<svg id="jewelry" xmlns="http://www.w3.org/2000/svg" viewBox="0 0 432 432">
  <defs>
    <style>.BUNTAI_OTTER_JEWELRY_BUNTAI_OTTER_JEWELRY_5_cls-1{fill:#594739;}.BUNTAI_OTTER_JEWELRY_BUNTAI_OTTER_JEWELRY_5_cls-2{fill:#917244;}.BUNTAI_OTTER_JEWELRY_BUNTAI_OTTER_JEWELRY_5_cls-3{fill:#c91629;}.BUNTAI_OTTER_JEWELRY_BUNTAI_OTTER_JEWELRY_5_cls-4,.BUNTAI_OTTER_JEWELRY_BUNTAI_OTTER_JEWELRY_5_cls-8{fill:none;}.BUNTAI_OTTER_JEWELRY_BUNTAI_OTTER_JEWELRY_5_cls-4,.BUNTAI_OTTER_JEWELRY_BUNTAI_OTTER_JEWELRY_5_cls-5,.BUNTAI_OTTER_JEWELRY_BUNTAI_OTTER_JEWELRY_5_cls-7,.BUNTAI_OTTER_JEWELRY_BUNTAI_OTTER_JEWELRY_5_cls-8{stroke:#000;}.BUNTAI_OTTER_JEWELRY_BUNTAI_OTTER_JEWELRY_5_cls-4,.BUNTAI_OTTER_JEWELRY_BUNTAI_OTTER_JEWELRY_5_cls-7,.BUNTAI_OTTER_JEWELRY_BUNTAI_OTTER_JEWELRY_5_cls-8{stroke-linecap:round;stroke-linejoin:round;}.BUNTAI_OTTER_JEWELRY_BUNTAI_OTTER_JEWELRY_5_cls-4{stroke-width:1.8px;}.BUNTAI_OTTER_JEWELRY_BUNTAI_OTTER_JEWELRY_5_cls-5{fill:#754c24;stroke-miterlimit:10;stroke-width:1.5px;}.BUNTAI_OTTER_JEWELRY_BUNTAI_OTTER_JEWELRY_5_cls-6{fill:#333;}.BUNTAI_OTTER_JEWELRY_BUNTAI_OTTER_JEWELRY_5_cls-7{fill:#e2cb6e;}.BUNTAI_OTTER_JEWELRY_BUNTAI_OTTER_JEWELRY_5_cls-7,.BUNTAI_OTTER_JEWELRY_BUNTAI_OTTER_JEWELRY_5_cls-8{stroke-width:0.73px;}</style>
  </defs>
  <path class="BUNTAI_OTTER_JEWELRY_BUNTAI_OTTER_JEWELRY_5_cls-1" d="M225.22,400.05a14,14,0,1,1-6.9.55,54.61,54.61,0,0,0,.72,8l-3.09.63,2.35,11.29,11.41-2.32-2.35-11.3-2.89.59A34,34,0,0,0,225.22,400.05Z" />
  <path class="BUNTAI_OTTER_JEWELRY_BUNTAI_OTTER_JEWELRY_5_cls-2" d="M227.71,396.65a17.87,17.87,0,1,1-9.23-.13,6.93,6.93,0,0,0-.19,1.7c0,.61,0,1.44,0,2.38a13.8,13.8,0,0,0-9.19,15.89,14,14,0,1,0,16.09-16.44c0-.7,0-1.43-.08-2.18a15,15,0,0,0-.11-1.75A18.68,18.68,0,0,1,227.71,396.65Z" />
  <path class="BUNTAI_OTTER_JEWELRY_BUNTAI_OTTER_JEWELRY_5_cls-3" d="M227.7,396.66a16.84,16.84,0,0,0-2.67-.54,15,15,0,0,1,.11,1.75c.05.75.07,1.48.08,2.18a34.57,34.57,0,0,1-.75,7.42,21,21,0,0,1-1.21,4c-.54.69-1.19.54-1.63-.46a1.58,1.58,0,0,1-.12-.45c-.52.35-1.5.76-2.13-.76a7.85,7.85,0,0,1-.34-1.2,54.62,54.62,0,0,1-.72-8c0-.94,0-1.76,0-2.37a6.89,6.89,0,0,1,.2-1.7,4.31,4.31,0,0,1,.53-1.32,4.25,4.25,0,0,1-.19-.9c0-.13,0-.27,0-.43a4,4,0,0,1,0-.49,5.09,5.09,0,0,1,0-.54,1.8,1.8,0,0,1,.21-.63,2.13,2.13,0,0,1,.16-.25l0,0,.17-.18c.08-.08.18-.15.27-.23a2,2,0,0,1,.28-.16l.3-.15.32-.11-1.24-5.94a1.88,1.88,0,0,1,.23-1.36,1.93,1.93,0,0,1,1.28-.91,1.91,1.91,0,0,1,1.45.28,2.14,2.14,0,0,1,.53.51h0a2.14,2.14,0,0,1,.3.71l1.44,6.92A4.49,4.49,0,0,1,227.7,396.66Z" />
  <path class="BUNTAI_OTTER_JEWELRY_BUNTAI_OTTER_JEWELRY_5_cls-4" d="M225,396.12a18.68,18.68,0,0,1,2.68.53,17.87,17.87,0,1,1-9.23-.13" />
  <path class="BUNTAI_OTTER_JEWELRY_BUNTAI_OTTER_JEWELRY_5_cls-4" d="M225.22,400.05a14,14,0,1,1-6.9.55" />
  <polyline class="BUNTAI_OTTER_JEWELRY_BUNTAI_OTTER_JEWELRY_5_cls-4" points="224.47 407.47 227.36 406.88 229.71 418.18 218.3 420.5 215.95 409.21 219.04 408.58" />
  <path class="BUNTAI_OTTER_JEWELRY_BUNTAI_OTTER_JEWELRY_5_cls-4" d="M221.51,410.54a1.58,1.58,0,0,0,.12.45c.45,1,1.09,1.15,1.64.46a21.5,21.5,0,0,0,1.2-4,34,34,0,0,0,.75-7.42c0-.7,0-1.43-.08-2.18a15,15,0,0,0-.11-1.75c-.2-1.34-.65-1.6-1.44-1.75-.61-.12-1,.07-1.24,1.2a37,37,0,0,0-.63,4.22A48,48,0,0,0,221.51,410.54Z" />
  <path class="BUNTAI_OTTER_JEWELRY_BUNTAI_OTTER_JEWELRY_5_cls-4" d="M222.35,395.57a1.82,1.82,0,0,0-2-1.25,1.63,1.63,0,0,0-.43.05,1.89,1.89,0,0,0-.94.83,4.45,4.45,0,0,0-.54,1.32,6.93,6.93,0,0,0-.19,1.7c0,.61,0,1.44,0,2.38a54.61,54.61,0,0,0,.72,8,7.85,7.85,0,0,0,.34,1.2c.62,1.52,1.62,1.11,2.13.76" />
  <path class="BUNTAI_OTTER_JEWELRY_BUNTAI_OTTER_JEWELRY_5_cls-4" d="M220.39,394.32a10.37,10.37,0,0,1,1.1-1.52,5,5,0,0,1,1.62-1.3,2.62,2.62,0,0,1,.46-.19,2.1,2.1,0,0,1,1,0,4.49,4.49,0,0,1,3.14,5.37" />
  <path class="BUNTAI_OTTER_JEWELRY_BUNTAI_OTTER_JEWELRY_5_cls-4" d="M223.11,391.49a2.54,2.54,0,0,0-2.53-.4,2.21,2.21,0,0,0-1.74,1.74,5.29,5.29,0,0,0,.18,2.37" />
  <path class="BUNTAI_OTTER_JEWELRY_BUNTAI_OTTER_JEWELRY_5_cls-4" d="M224.58,391.28l-.75-3.58-.69-3.34a2.14,2.14,0,0,0-.3-.71" />
  <path class="BUNTAI_OTTER_JEWELRY_BUNTAI_OTTER_JEWELRY_5_cls-4" d="M222.83,383.66a2.14,2.14,0,0,0-.53-.51,1.91,1.91,0,0,0-1.45-.28,1.93,1.93,0,0,0-1.28.91,1.88,1.88,0,0,0-.23,1.36l.6,2.91.64,3" />
  <line class="BUNTAI_OTTER_JEWELRY_BUNTAI_OTTER_JEWELRY_5_cls-4" x1="222.84" y1="383.65" x2="222.83" y2="383.66" />
  <path class="BUNTAI_OTTER_JEWELRY_BUNTAI_OTTER_JEWELRY_5_cls-5" d="M308.35,295.36c-3.16-.19-4.63,4.51-4.63,4.51l3.69,1c-11.07,25.75-34.51,59.28-86,77.41C171.8,366.16,138,335.61,126,308.83c-1.94-4.32-3.59-8.62-5-12.8l3-1.95c-2.07-2.52-3.48-2.84-4.81-2.45-2.46.73-2.56,2.81-1.73,5.22l.15.44c1.48,4.19,3.16,8.5,5.12,12.86,12.34,27.64,47,59.35,98.36,71.66a1.11,1.11,0,0,0,.4.06,2.05,2.05,0,0,0,.61-.1c52.79-18.4,77.52-53.06,89-79.51a13.69,13.69,0,0,0,.7-1.64C312.43,298.24,311.25,295.54,308.35,295.36Z" />
  <path class="BUNTAI_OTTER_JEWELRY_BUNTAI_OTTER_JEWELRY_5_cls-6" d="M217.29,377l2.44.66s2.53-1.41,3.56.57.56,3.4-.79,4-3.35.08-3.73-1a5.11,5.11,0,0,0-2.34-.51s1,3.71,4.23,4a4.75,4.75,0,0,0,5.55-4.31,4.55,4.55,0,0,0-2.62-4.79A5,5,0,0,0,217.29,377Z" />
  <path class="BUNTAI_OTTER_JEWELRY_BUNTAI_OTTER_JEWELRY_5_cls-4" d="M216.31,380.6a4.91,4.91,0,0,0,4.43,4.29,4,4,0,0,0,.49,0,5,5,0,0,0,3.32-1.25,4.84,4.84,0,0,0,1.64-3.41,1.14,1.14,0,0,0,0-.26,4.89,4.89,0,0,0-1.13-3.12,5,5,0,0,0-7.89.27l2.46.66a2.69,2.69,0,0,1,1.58-.51,2.6,2.6,0,0,1,1.49.45,2.66,2.66,0,0,1,.94,3.45,2.7,2.7,0,0,1-2.43,1.49,2.73,2.73,0,0,1-2.39-1.41h0Z" />
  <path class="BUNTAI_OTTER_JEWELRY_BUNTAI_OTTER_JEWELRY_5_cls-7" d="M147.65,145.37a3.7,3.7,0,0,1-2.12,2c-3.2,1.23-6.82-.16-6.07-3.76.91-4.36,2.71-5.44,4.93-5.23-.61.65-.68.81-1.48,1.81-.71.3-1.55,1-2,3.59s3.69,2.73,4.68,1l.1-.2a3.65,3.65,0,0,0-.47-3.8,2.87,2.87,0,0,1,1-1C148,141.7,148.35,143.81,147.65,145.37Z" />
  <path class="BUNTAI_OTTER_JEWELRY_BUNTAI_OTTER_JEWELRY_5_cls-8" d="M144.92,143.4a3,3,0,0,1-.17-1,2.93,2.93,0,0,1,.48-1.62,2.87,2.87,0,0,1,1-1,1.88,1.88,0,0,1,2.54,1" />
</svg>