<svg xmlns="http://www.w3.org/2000/svg" viewBox="0 0 432 432">
  <defs>
    <style>.BUNTAI_OTTER_JEWELRY_BUNTAI_OTTER_JEWELRY_22_cls-1{isolation:isolate;}.BUNTAI_OTTER_JEWELRY_BUNTAI_OTTER_JEWELRY_22_cls-2{fill:#c7a858;}.BUNTAI_OTTER_JEWELRY_BUNTAI_OTTER_JEWELRY_22_cls-11,.BUNTAI_OTTER_JEWELRY_BUNTAI_OTTER_JEWELRY_22_cls-12,.BUNTAI_OTTER_JEWELRY_BUNTAI_OTTER_JEWELRY_22_cls-3,.BUNTAI_OTTER_JEWELRY_BUNTAI_OTTER_JEWELRY_22_cls-4,.BUNTAI_OTTER_JEWELRY_BUNTAI_OTTER_JEWELRY_22_cls-7{fill:none;stroke-linecap:round;stroke-linejoin:round;}.BUNTAI_OTTER_JEWELRY_BUNTAI_OTTER_JEWELRY_22_cls-11,.BUNTAI_OTTER_JEWELRY_BUNTAI_OTTER_JEWELRY_22_cls-12,.BUNTAI_OTTER_JEWELRY_BUNTAI_OTTER_JEWELRY_22_cls-3,.BUNTAI_OTTER_JEWELRY_BUNTAI_OTTER_JEWELRY_22_cls-4,.BUNTAI_OTTER_JEWELRY_BUNTAI_OTTER_JEWELRY_22_cls-7,.BUNTAI_OTTER_JEWELRY_BUNTAI_OTTER_JEWELRY_22_cls-9{stroke:#000;}.BUNTAI_OTTER_JEWELRY_BUNTAI_OTTER_JEWELRY_22_cls-3{stroke-width:0.7px;}.BUNTAI_OTTER_JEWELRY_BUNTAI_OTTER_JEWELRY_22_cls-4{stroke-width:0.65px;}.BUNTAI_OTTER_JEWELRY_BUNTAI_OTTER_JEWELRY_22_cls-5{fill:#cbde8d;}.BUNTAI_OTTER_JEWELRY_BUNTAI_OTTER_JEWELRY_22_cls-6{fill:#91b90e;}.BUNTAI_OTTER_JEWELRY_BUNTAI_OTTER_JEWELRY_22_cls-7{stroke-width:0.62px;}.BUNTAI_OTTER_JEWELRY_BUNTAI_OTTER_JEWELRY_22_cls-8{opacity:0.43;mix-blend-mode:multiply;}.BUNTAI_OTTER_JEWELRY_BUNTAI_OTTER_JEWELRY_22_cls-10,.BUNTAI_OTTER_JEWELRY_BUNTAI_OTTER_JEWELRY_22_cls-9{fill:#e5b900;}.BUNTAI_OTTER_JEWELRY_BUNTAI_OTTER_JEWELRY_22_cls-9{stroke-miterlimit:10;stroke-width:0.5px;}.BUNTAI_OTTER_JEWELRY_BUNTAI_OTTER_JEWELRY_22_cls-11{stroke-width:0.67px;}.BUNTAI_OTTER_JEWELRY_BUNTAI_OTTER_JEWELRY_22_cls-12{stroke-width:0.54px;}.BUNTAI_OTTER_JEWELRY_BUNTAI_OTTER_JEWELRY_22_cls-13{opacity:0.38;}.BUNTAI_OTTER_JEWELRY_BUNTAI_OTTER_JEWELRY_22_cls-14,.BUNTAI_OTTER_JEWELRY_BUNTAI_OTTER_JEWELRY_22_cls-15{fill:#fff;}.BUNTAI_OTTER_JEWELRY_BUNTAI_OTTER_JEWELRY_22_cls-14{opacity:0.74;}</style>
  </defs>
  <g class="BUNTAI_OTTER_JEWELRY_BUNTAI_OTTER_JEWELRY_22_cls-1">
    <g id="jewelry">
      <path class="BUNTAI_OTTER_JEWELRY_BUNTAI_OTTER_JEWELRY_22_cls-2" d="M143.42,153.56c-1.34,0-1.12-1.83-1.12-1.83h0a3.65,3.65,0,0,0,1.65.34,1.5,1.5,0,0,0,.74-.18C144.69,152,144.71,153.56,143.42,153.56Z" />
      <path class="BUNTAI_OTTER_JEWELRY_BUNTAI_OTTER_JEWELRY_22_cls-2" d="M145.73,146.34c.49,1.64.39,4.76-1,5.55a1.5,1.5,0,0,1-.74.18,3.65,3.65,0,0,1-1.65-.34c-1.23-.6-1.85-2-1.77-4.11a6.81,6.81,0,0,1,.38-2.06,4.31,4.31,0,0,1,1.2-1.86,1.52,1.52,0,0,1,1.1-.46,1.86,1.86,0,0,1,1.33.79,2.93,2.93,0,0,1-.59.11h0a3.4,3.4,0,0,0-1.51,2.31c-.38,1.8.25,3.82,1.16,3.82s1-2.34,1-3.59h.08A4.46,4.46,0,0,0,145.73,146.34Z" />
      <path class="BUNTAI_OTTER_JEWELRY_BUNTAI_OTTER_JEWELRY_22_cls-2" d="M141.74,137.58c.51-.2,2.69-.38,2.73-.13s-.73,1.3-.67,1.5a7.22,7.22,0,0,0-1.58.9,2.71,2.71,0,0,0-.7,3.19,1.88,1.88,0,0,0,.59.66,4.31,4.31,0,0,0-1.2,1.86A4.81,4.81,0,0,1,141.74,137.58Z" />
      <path class="BUNTAI_OTTER_JEWELRY_BUNTAI_OTTER_JEWELRY_22_cls-2" d="M147.88,143.44a3.85,3.85,0,0,1-2.15,2.9,4.46,4.46,0,0,1-1.12.34h-.08a4.09,4.09,0,0,1-2.12-.22,3.42,3.42,0,0,1,1.5-2.32h0a2.8,2.8,0,0,0,.59-.11,1.76,1.76,0,0,0,1.25-1.09,1.35,1.35,0,0,0,.07-.46c0-1.91-.75-2-.75-2s0-.1-.09-.26a2.45,2.45,0,0,1,1.91-1.6A6.48,6.48,0,0,1,147.88,143.44Z" />
      <path class="BUNTAI_OTTER_JEWELRY_BUNTAI_OTTER_JEWELRY_22_cls-3" d="M140.91,145.56a4.81,4.81,0,0,1,.83-8c.48-.23,1.06-.52,3.34,0a2.92,2.92,0,0,0-1.44,1.56,2.53,2.53,0,0,0-1.42.71,2.71,2.71,0,0,0-.7,3.19,1.88,1.88,0,0,0,.59.66" />
      <path class="BUNTAI_OTTER_JEWELRY_BUNTAI_OTTER_JEWELRY_22_cls-3" d="M142.41,146.47a4.09,4.09,0,0,0,2.12.22h.08a4.46,4.46,0,0,0,1.12-.34,3.85,3.85,0,0,0,2.15-2.9,6.48,6.48,0,0,0-.95-4.82" />
      <path class="BUNTAI_OTTER_JEWELRY_BUNTAI_OTTER_JEWELRY_22_cls-3" d="M145,140.22c0,.16.09.26.09.26s.73.09.75,2a1.35,1.35,0,0,1-.07.46,1.76,1.76,0,0,1-1.25,1.09,2.8,2.8,0,0,1-.59.11" />
      <path class="BUNTAI_OTTER_JEWELRY_BUNTAI_OTTER_JEWELRY_22_cls-3" d="M145.73,146.34c.49,1.64.39,4.76-1,5.55a1.5,1.5,0,0,1-.74.18,3.65,3.65,0,0,1-1.65-.34c-1.23-.6-1.85-2-1.77-4.11a6.81,6.81,0,0,1,.38-2.06,4.31,4.31,0,0,1,1.2-1.86,1.52,1.52,0,0,1,1.1-.46,1.86,1.86,0,0,1,1.33.79" />
      <path class="BUNTAI_OTTER_JEWELRY_BUNTAI_OTTER_JEWELRY_22_cls-3" d="M144.53,146.69c.06,1.25.05,3.59-1,3.59s-1.54-2-1.16-3.82a3.4,3.4,0,0,1,1.51-2.31h0" />
      <path class="BUNTAI_OTTER_JEWELRY_BUNTAI_OTTER_JEWELRY_22_cls-3" d="M142.3,151.73s-.22,1.83,1.12,1.83,1.27-1.56,1.27-1.67h0" />
      <path class="BUNTAI_OTTER_JEWELRY_BUNTAI_OTTER_JEWELRY_22_cls-3" d="M145.16,142.18a2.45,2.45,0,0,1,1.77-3.56,1.87,1.87,0,0,1,.42,0,1.67,1.67,0,0,1,1.66,1.24" />
      <line class="BUNTAI_OTTER_JEWELRY_BUNTAI_OTTER_JEWELRY_22_cls-4" x1="143.49" y1="157.5" x2="143.49" y2="153.72" />
      <path class="BUNTAI_OTTER_JEWELRY_BUNTAI_OTTER_JEWELRY_22_cls-5" d="M143.41,189.69c.56,3.4.83,4.41.13,7.39,0,0,1.11-1.24,2.55-3.18A30.39,30.39,0,0,0,143.41,189.69Z" />
      <path class="BUNTAI_OTTER_JEWELRY_BUNTAI_OTTER_JEWELRY_22_cls-5" d="M143.27,188.68a6.63,6.63,0,0,0-3.59,3.41,54.59,54.59,0,0,0,3.86,5c.7-3,.43-4-.13-7.39C143.36,189.37,143.32,189,143.27,188.68Z" />
      <path class="BUNTAI_OTTER_JEWELRY_BUNTAI_OTTER_JEWELRY_22_cls-5" d="M143,185.87c.05,1,.14,1.94.24,2.81,0,.35.09.69.14,1a30.39,30.39,0,0,1,2.68,4.21c.6-.81,1.27-1.73,1.93-2.75C146.78,188.25,143,185.87,143,185.87Z" />
      <path class="BUNTAI_OTTER_JEWELRY_BUNTAI_OTTER_JEWELRY_22_cls-5" d="M143,182.92c0,1,0,2,.08,3,0,0,3.75,2.38,5,5.28.6-.92,1.21-1.9,1.78-2.93-.26-2-1.43-2.73-3.53-4.11a11.7,11.7,0,0,1-3.27-3.36C143,181.44,143,182.17,143,182.92Z" />
      <path class="BUNTAI_OTTER_JEWELRY_BUNTAI_OTTER_JEWELRY_22_cls-5" d="M143,182.92s-4.21,1.91-5.28,6c.65,1.12,1.35,2.2,2,3.17a6.63,6.63,0,0,1,3.59-3.41c-.1-.87-.19-1.82-.24-2.81s-.08-2-.08-3Z" />
      <path class="BUNTAI_OTTER_JEWELRY_BUNTAI_OTTER_JEWELRY_22_cls-5" d="M139.16,178.91c-2.8.83-3.74,1.26-4.46,3.06a22.22,22.22,0,0,0,1.39,3.9S136.62,181.48,139.16,178.91Z" />
      <path class="BUNTAI_OTTER_JEWELRY_BUNTAI_OTTER_JEWELRY_22_cls-5" d="M139.16,178.91c-2.54,2.57-3.07,7-3.07,7a33.81,33.81,0,0,0,1.58,3c1.07-4.09,5.28-6,5.28-6h0c0-.75,0-1.48.05-2.17a24.61,24.61,0,0,1,.26-2.68c.09-.57.16-1.17.21-1.77a6.54,6.54,0,0,1-3.86,2.48Z" />
      <path class="BUNTAI_OTTER_JEWELRY_BUNTAI_OTTER_JEWELRY_22_cls-5" d="M152.51,181.39a6.37,6.37,0,0,0-4.57-3,15.34,15.34,0,0,1,3.47,6.5,19.35,19.35,0,0,0,1.1-3.47Z" />
      <path class="BUNTAI_OTTER_JEWELRY_BUNTAI_OTTER_JEWELRY_22_cls-5" d="M143.47,176.3c-.05.6-.12,1.2-.21,1.77a24.61,24.61,0,0,0-.26,2.68,11.7,11.7,0,0,0,3.27,3.36c2.1,1.38,3.27,2.13,3.53,4.11a33,33,0,0,0,1.61-3.34h0a15.34,15.34,0,0,0-3.47-6.5h0c-.38-.08-.78-.15-1.18-.21a4.36,4.36,0,0,1-3.22-2Z" />
      <path class="BUNTAI_OTTER_JEWELRY_BUNTAI_OTTER_JEWELRY_22_cls-5" d="M143.6,163.5c.47.48,3.74,4,1.79,6.71,0,0,3.43,1,6.9,5.53-1.78-6.22-8-11.65-8.69-12.24Z" />
      <path class="BUNTAI_OTTER_JEWELRY_BUNTAI_OTTER_JEWELRY_22_cls-5" d="M143.47,176.3l.07-.12a4.36,4.36,0,0,0,3.22,2c.4.06.8.13,1.18.21h0a6.37,6.37,0,0,1,4.57,3,12.21,12.21,0,0,0,.26-2.44,11.66,11.66,0,0,0-.48-3.21c-3.47-4.51-6.9-5.53-6.9-5.53a5.22,5.22,0,0,1-1.85,1.52A41.24,41.24,0,0,1,143.47,176.3Z" />
      <path class="BUNTAI_OTTER_JEWELRY_BUNTAI_OTTER_JEWELRY_22_cls-5" d="M134.3,179a12.93,12.93,0,0,0,.4,3c.72-1.8,1.66-2.23,4.46-3.06l.45-.13a6.54,6.54,0,0,0,3.86-2.48,41.24,41.24,0,0,0,.07-4.57,5.13,5.13,0,0,1-1.85-1.52s-3.24.31-6.42,4.11A12.63,12.63,0,0,0,134.3,179Z" />
      <path class="BUNTAI_OTTER_JEWELRY_BUNTAI_OTTER_JEWELRY_22_cls-5" d="M143.48,163.5c-.64.54-6,5.21-8.21,10.82,3.18-3.8,6.42-4.11,6.42-4.11-1.95-2.75,1.32-6.23,1.79-6.71Z" />
      <path class="BUNTAI_OTTER_JEWELRY_BUNTAI_OTTER_JEWELRY_22_cls-2" d="M143.48,163.5c-.47.48-3.74,4-1.79,6.71a5.13,5.13,0,0,0,1.85,1.52,5.22,5.22,0,0,0,1.85-1.52c2-2.75-1.32-6.23-1.79-6.71h-.12Z" />
      <path class="BUNTAI_OTTER_JEWELRY_BUNTAI_OTTER_JEWELRY_22_cls-6" d="M143.54,159.36c-.71,0-1.29.93-1.29,2.08a2.41,2.41,0,0,0,.74,1.87h0a1.13,1.13,0,0,0,.54.13,1.16,1.16,0,0,0,.54-.13h0a2.42,2.42,0,0,0,.73-1.87C144.82,160.29,144.25,159.36,143.54,159.36Z" />
      <path class="BUNTAI_OTTER_JEWELRY_BUNTAI_OTTER_JEWELRY_22_cls-2" d="M141.69,160.47a3.15,3.15,0,0,0,1.3,2.84,2.41,2.41,0,0,1-.74-1.87c0-1.15.58-2.08,1.29-2.08s1.28.93,1.28,2.08a2.42,2.42,0,0,1-.73,1.87,3.15,3.15,0,0,0,1.3-2.84c0-1.64-.83-3-1.85-3S141.69,158.83,141.69,160.47Z" />
      <path class="BUNTAI_OTTER_JEWELRY_BUNTAI_OTTER_JEWELRY_22_cls-7" d="M151.41,184.88a33,33,0,0,1-1.61,3.34c-.57,1-1.18,2-1.78,2.93s-1.33,1.94-1.93,2.75c-1.44,1.94-2.55,3.18-2.55,3.18a54.59,54.59,0,0,1-3.86-5c-.66-1-1.36-2.05-2-3.17a33.81,33.81,0,0,1-1.58-3,22.22,22.22,0,0,1-1.39-3.9,12.93,12.93,0,0,1-.4-3,12.63,12.63,0,0,1,1-4.63c2.22-5.61,7.57-10.28,8.21-10.82l0,0h0" />
      <path class="BUNTAI_OTTER_JEWELRY_BUNTAI_OTTER_JEWELRY_22_cls-7" d="M152.51,181.4a19.35,19.35,0,0,1-1.1,3.47" />
      <path class="BUNTAI_OTTER_JEWELRY_BUNTAI_OTTER_JEWELRY_22_cls-7" d="M143.56,163.46h0l0,0c.7.59,6.91,6,8.69,12.24a11.66,11.66,0,0,1,.48,3.21,12.21,12.21,0,0,1-.26,2.44" />
      <path class="BUNTAI_OTTER_JEWELRY_BUNTAI_OTTER_JEWELRY_22_cls-7" d="M143.54,163.44l0,0h0l0,0c.47.48,3.74,4,1.79,6.71a5.22,5.22,0,0,1-1.85,1.52,5.13,5.13,0,0,1-1.85-1.52c-1.95-2.75,1.32-6.23,1.79-6.71l0,0h0Z" />
      <path class="BUNTAI_OTTER_JEWELRY_BUNTAI_OTTER_JEWELRY_22_cls-7" d="M143.54,171.73a41.24,41.24,0,0,1-.07,4.57c-.05.6-.12,1.2-.21,1.77a24.61,24.61,0,0,0-.26,2.68c0,.69-.05,1.42-.05,2.17,0,1,0,2,.08,3s.14,1.94.24,2.81c0,.35.09.69.14,1,.56,3.4.83,4.41.13,7.39" />
      <path class="BUNTAI_OTTER_JEWELRY_BUNTAI_OTTER_JEWELRY_22_cls-7" d="M145.39,170.21s3.43,1,6.9,5.53h0" />
      <path class="BUNTAI_OTTER_JEWELRY_BUNTAI_OTTER_JEWELRY_22_cls-7" d="M147.94,178.37c-.38-.08-.78-.15-1.18-.21a4.36,4.36,0,0,1-3.22-2l-.07.12a6.54,6.54,0,0,1-3.86,2.48l-.45.13c-2.8.83-3.74,1.26-4.46,3.06" />
      <path class="BUNTAI_OTTER_JEWELRY_BUNTAI_OTTER_JEWELRY_22_cls-7" d="M152.51,181.4h0a6.37,6.37,0,0,0-4.57-3" />
      <path class="BUNTAI_OTTER_JEWELRY_BUNTAI_OTTER_JEWELRY_22_cls-7" d="M151.41,184.88h0a15.34,15.34,0,0,0-3.47-6.5h0" />
      <path class="BUNTAI_OTTER_JEWELRY_BUNTAI_OTTER_JEWELRY_22_cls-7" d="M143,180.75a11.7,11.7,0,0,0,3.27,3.36c2.1,1.38,3.27,2.13,3.53,4.11" />
      <path class="BUNTAI_OTTER_JEWELRY_BUNTAI_OTTER_JEWELRY_22_cls-7" d="M143,185.87s3.75,2.38,5,5.28" />
      <path class="BUNTAI_OTTER_JEWELRY_BUNTAI_OTTER_JEWELRY_22_cls-7" d="M143.41,189.69a30.39,30.39,0,0,1,2.68,4.21" />
      <path class="BUNTAI_OTTER_JEWELRY_BUNTAI_OTTER_JEWELRY_22_cls-7" d="M141.69,170.21s-3.24.31-6.42,4.11" />
      <path class="BUNTAI_OTTER_JEWELRY_BUNTAI_OTTER_JEWELRY_22_cls-7" d="M136.09,185.87s.53-4.39,3.07-7" />
      <path class="BUNTAI_OTTER_JEWELRY_BUNTAI_OTTER_JEWELRY_22_cls-7" d="M143,182.92s-4.21,1.91-5.28,6" />
      <path class="BUNTAI_OTTER_JEWELRY_BUNTAI_OTTER_JEWELRY_22_cls-7" d="M143.27,188.68a6.63,6.63,0,0,0-3.59,3.41" />
      <path class="BUNTAI_OTTER_JEWELRY_BUNTAI_OTTER_JEWELRY_22_cls-7" d="M144.09,163.31a3.15,3.15,0,0,0,1.3-2.84c0-1.64-.83-3-1.85-3s-1.85,1.33-1.85,3a3.15,3.15,0,0,0,1.3,2.84" />
      <path class="BUNTAI_OTTER_JEWELRY_BUNTAI_OTTER_JEWELRY_22_cls-7" d="M143,163.31a1.13,1.13,0,0,0,.54.13,1.16,1.16,0,0,0,.54-.13" />
      <path class="BUNTAI_OTTER_JEWELRY_BUNTAI_OTTER_JEWELRY_22_cls-7" d="M144.09,163.31a2.42,2.42,0,0,0,.73-1.87c0-1.15-.57-2.08-1.28-2.08s-1.29.93-1.29,2.08a2.41,2.41,0,0,0,.74,1.87h0a.9.9,0,0,0,.48.19h.12a.9.9,0,0,0,.48-.19Z" />
      <g class="BUNTAI_OTTER_JEWELRY_BUNTAI_OTTER_JEWELRY_22_cls-8">
        <path d="M143.54,157.5a2,2,0,0,0,0,1.86,6.87,6.87,0,0,0,.06,4.14c-.56,4.72-.71,6.39.18,5.85a2.26,2.26,0,0,0,1-1.45s.91,2-.18,3.1c-1.1.73-.22,2.43-.25,5.09s-.16,6.26-.13,8.32.09,5.49.09,7.12a39.73,39.73,0,0,1-.75,5.3,29.48,29.48,0,0,1-7.22-10.32c-2.41-6.14-3-8-.87-12.76S143,164,143,164l.21-.53s-1.12-.12-1.3-2S141.93,157.92,143.54,157.5Z" />
      </g>
      <path class="BUNTAI_OTTER_JEWELRY_BUNTAI_OTTER_JEWELRY_22_cls-9" d="M241.08,138.57l.77-.84-.52-.48a1.82,1.82,0,0,0-2.28-.17l-.75-.69a1.83,1.83,0,0,0-.34-2.27l-.51-.48-.52-.48a1.83,1.83,0,0,0-2.28-.19l-.74-.7a1.83,1.83,0,0,0-.3-2.26l-.5-.49-.51-.49a1.83,1.83,0,0,0-2.27-.23l-.72-.72a1.8,1.8,0,0,0-.23-2.26l-.48-.51-.49-.51a1.82,1.82,0,0,0-2.25-.3c-.24-.25-.46-.5-.69-.75a1.82,1.82,0,0,0-.11-2.27l-.47-.52-.45-.53a1.81,1.81,0,0,0-2.22-.44l-.65-.78a1.83,1.83,0,0,0,.05-2.27l-.84-1.1a1.81,1.81,0,0,0-2.18-.61l-.58-.82a1.87,1.87,0,0,0,.24-2.26l-.37-.58-.37-.58a1.83,1.83,0,0,0-2.11-.8l-.49-.88a1.88,1.88,0,0,0,.45-2.21l-.3-.62-.31-.61a1.87,1.87,0,0,0-2-1l-.39-.93a1.76,1.76,0,0,0,.76-1.35l-1.15,0a.76.76,0,0,1-.09.18,1.34,1.34,0,0,1-.07-.18l-1.19.07c.06.18.13.35.21.53a.64.64,0,0,1-.48-.42l0-.1-1.18.06.16.44a1.81,1.81,0,0,0,2,1.16l.4,1a1.8,1.8,0,0,0-.53,2.26l.32.66.33.65a1.78,1.78,0,0,0,2.11,1l.51.89a1.83,1.83,0,0,0-.32,2.31l.39.62.39.62a1.79,1.79,0,0,0,2.19.74l.59.84a1.86,1.86,0,0,0-.11,2.33l.44.58.45.57a1.8,1.8,0,0,0,2.23.56l.66.79a1.83,1.83,0,0,0,.07,2.31l.47.56.48.54a1.82,1.82,0,0,0,2.27.39c.23.26.45.51.69.76a1.83,1.83,0,0,0,.2,2.29l1,1a1.83,1.83,0,0,0,2.29.28l.72.73a1.83,1.83,0,0,0,.28,2.28l.52.5.51.49a1.81,1.81,0,0,0,2.29.21l.74.71a1.82,1.82,0,0,0,.33,2.27l.52.49.52.48a1.8,1.8,0,0,0,2.28.18l.75.69a1.85,1.85,0,0,0,.34,2.27l.53.48.77-.83-.53-.48a.66.66,0,0,1-.2-.6l.49.46a.58.58,0,0,0,.82,0,.58.58,0,0,0-.05-.82l-.49-.46a.66.66,0,0,1,.61.16Zm-26.74-30.33-.29-.59a.57.57,0,1,0-1,.51l.3.61a.68.68,0,0,1-.51-.38l-.32-.64-.32-.65a.67.67,0,0,1,0-.63l.3.6a.58.58,0,0,0,.77.29.56.56,0,0,0,.25-.78l-.29-.59a.68.68,0,0,1,.51.36l.62,1.26A.67.67,0,0,1,214.34,108.24Zm3,5.15-.35-.56a.59.59,0,0,0-.8-.21.58.58,0,0,0-.16.81l.36.58a.7.7,0,0,1-.55-.32l-.38-.61-.39-.61a.62.62,0,0,1,0-.63c.1.19.23.38.35.57a.59.59,0,0,0,.81.21.57.57,0,0,0,.16-.8c-.12-.19-.24-.37-.35-.56a.67.67,0,0,1,.54.32l.38.59.37.59A.65.65,0,0,1,217.35,113.39Zm3.47,4.86-.4-.53a.59.59,0,0,0-.82-.13.58.58,0,0,0-.09.82l.42.53a.67.67,0,0,1-.58-.27l-.44-.56-.44-.58a.68.68,0,0,1-.08-.63l.39.55a.59.59,0,0,0,.82.14.57.57,0,0,0,.09-.81l-.38-.55a.66.66,0,0,1,.55.28l.43.56.43.55A.68.68,0,0,1,220.82,118.25Zm3.39,4.09a.59.59,0,0,0-.83-.07.58.58,0,0,0,0,.82l.45.5a.69.69,0,0,1-.6-.22l-.48-.54-.46-.54a.7.7,0,0,1-.14-.63l.44.52a.57.57,0,0,0,.81.09.59.59,0,0,0,.05-.83l-.43-.51a.69.69,0,0,1,.58.23l.45.54.47.53a.66.66,0,0,1,.16.61Zm4.07,4.4a.57.57,0,0,0-.82,0,.59.59,0,0,0,0,.83l.47.48a.72.72,0,0,1-.61-.2l-.49-.51-.49-.52a.67.67,0,0,1-.18-.61l.47.49a.57.57,0,0,0,.82,0,.59.59,0,0,0,0-.83l-.46-.48a.64.64,0,0,1,.59.2l1,1a.67.67,0,0,1,.18.6Zm4.26,4.22a.58.58,0,0,0-.82,0,.6.6,0,0,0,0,.83l.49.47a.7.7,0,0,1-.61-.18l-1-1a.66.66,0,0,1-.2-.6l.48.47a.57.57,0,1,0,.8-.81l-.48-.47a.68.68,0,0,1,.6.18l.51.49.51.5a.68.68,0,0,1,.19.6Zm4.37,4.13a.59.59,0,0,0-.83,0,.58.58,0,0,0,0,.82l.5.46a.68.68,0,0,1-.62-.17l-.52-.48-.52-.49a.64.64,0,0,1-.2-.59l.49.45a.56.56,0,1,0,.77-.82l-.49-.46a.67.67,0,0,1,.61.17l.52.48.52.48a.69.69,0,0,1,.21.6Z" />
      <path class="BUNTAI_OTTER_JEWELRY_BUNTAI_OTTER_JEWELRY_22_cls-9" d="M246.37,133.83a1.81,1.81,0,0,0-2.17-.71l-.56-.85a1.81,1.81,0,0,0,.22-2.27l-.39-.59-.39-.59a1.81,1.81,0,0,0-2.18-.69l-.56-.85a1.81,1.81,0,0,0,.2-2.27l-.4-.59-.39-.58a1.8,1.8,0,0,0-2.18-.67l-.58-.84a1.81,1.81,0,0,0,.18-2.28l-.4-.58-.4-.58a1.81,1.81,0,0,0-2.19-.65l-.58-.84a1.79,1.79,0,0,0,.14-2.27l-.4-.58-.41-.58a1.83,1.83,0,0,0-2.2-.62l-.59-.83a1.81,1.81,0,0,0,.11-2.28l-.42-.57-.42-.57a1.81,1.81,0,0,0-2.21-.58l-.62-.81a1.79,1.79,0,0,0,.06-2.29l-.44-.56-.43-.57a1.82,1.82,0,0,0-2.24-.52l-.64-.79a1.76,1.76,0,0,0,.31-.57H221l.28.34a.64.64,0,0,1-.58-.23l-.09-.1h-1.48l.26.31.45.52a1.82,1.82,0,0,0,2.21.43l.64.78a1.83,1.83,0,0,0,0,2.27l.43.55.42.55a1.82,1.82,0,0,0,2.21.54l.61.81a1.82,1.82,0,0,0-.1,2.27l.42.56.41.57a1.81,1.81,0,0,0,2.2.59l.59.82a1.81,1.81,0,0,0-.14,2.27l.41.57.4.58a1.81,1.81,0,0,0,2.19.62l.58.84a1.82,1.82,0,0,0-.17,2.27l.4.57.4.58a1.82,1.82,0,0,0,2.18.66l.57.83a1.81,1.81,0,0,0-.19,2.27l.39.59.39.58a1.82,1.82,0,0,0,2.18.67l.56.85a1.81,1.81,0,0,0-.21,2.26l.39.59.39.58a1.81,1.81,0,0,0,2.16.7l.56.85A1.81,1.81,0,0,0,243,136l.38.59,1-.62-.39-.59a.63.63,0,0,1-.05-.62l.36.56a.57.57,0,1,0,.95-.62l-.36-.56a.68.68,0,0,1,.55.3l.38.6.95-.62Zm-20.52-27.1-.41-.53a.58.58,0,0,0-.81-.12.57.57,0,0,0-.09.81l.41.53a.69.69,0,0,1-.58-.26l-.43-.55-.43-.56a.66.66,0,0,1-.1-.62l.4.53a.57.57,0,1,0,.9-.7l-.41-.53a.69.69,0,0,1,.57.26l.44.56.43.56A.67.67,0,0,1,225.85,106.73Zm3.57,4.81L229,111a.59.59,0,0,0-.81-.15.59.59,0,0,0-.11.82l.39.53a.66.66,0,0,1-.56-.27l-.42-.57-.41-.56a.65.65,0,0,1-.09-.63l.39.54a.58.58,0,0,0,.81.14.57.57,0,0,0,.1-.81l-.39-.54a.64.64,0,0,1,.56.27l.42.57.42.57A.68.68,0,0,1,229.42,111.54Zm3.48,4.87-.39-.55a.56.56,0,1,0-.92.65l.38.55a.67.67,0,0,1-.56-.29l-.41-.57-.4-.58a.63.63,0,0,1-.08-.62l.38.54a.57.57,0,1,0,.93-.65l-.39-.55a.67.67,0,0,1,.56.29l.41.57.41.58A.71.71,0,0,1,232.9,116.41Zm3.41,4.91-.38-.55a.57.57,0,1,0-.93.64l.37.55a.68.68,0,0,1-.56-.29l-.39-.58-.41-.58a.66.66,0,0,1-.07-.62l.38.54a.59.59,0,0,0,.81.17.57.57,0,0,0,.12-.81l-.38-.55a.67.67,0,0,1,.56.29l.41.58.4.58A.68.68,0,0,1,236.31,121.32Zm3.35,5-.37-.55a.57.57,0,0,0-.8-.18.58.58,0,0,0-.14.81l.37.55a.65.65,0,0,1-.55-.3l-.4-.58-.39-.58a.68.68,0,0,1-.07-.63l.38.55a.58.58,0,0,0,.8.18.59.59,0,0,0,.14-.81l-.38-.55a.67.67,0,0,1,.56.29l.39.59.4.58A.65.65,0,0,1,239.66,126.27Zm3.31,5-.36-.56a.57.57,0,1,0-1,.63l.37.55a.68.68,0,0,1-.56-.3l-.38-.59-.39-.58a.65.65,0,0,1-.06-.63l.37.56a.57.57,0,1,0,.94-.63l-.37-.56a.68.68,0,0,1,.56.3l.38.59.39.59A.65.65,0,0,1,243,131.25Z" />
      <path class="BUNTAI_OTTER_JEWELRY_BUNTAI_OTTER_JEWELRY_22_cls-9" d="M266.54,107.42l-.34-.57a1.78,1.78,0,0,0-1.05.82l-.35.62-.34.61a1.77,1.77,0,0,0,.42,2.21l-.47.88a1.76,1.76,0,0,0-2.08.87l-.32.61-.32.62a1.77,1.77,0,0,0,.49,2.2l-.45.89a1.77,1.77,0,0,0-2.05.93l-.3.63-.3.62a1.79,1.79,0,0,0,.55,2.19l-.41.9a1.77,1.77,0,0,0-2,1l-.28.64-.28.63a1.78,1.78,0,0,0,.62,2.17l-.39.91a1.77,1.77,0,0,0-2,1.06l-.27.65-.26.64a1.79,1.79,0,0,0,.69,2.15l-.35.92a1.79,1.79,0,0,0-2,1.12l0,.12,0-.39a1.82,1.82,0,0,0-1.53-1.74l-.11-1a1.83,1.83,0,0,0,1.21-2l-.12-.72-.13-.73a1.76,1.76,0,0,0-1.75-1.51l-.22-1a1.77,1.77,0,0,0,.92-2.12l-.2-.7-.2-.71a1.83,1.83,0,0,0-1.94-1.27l-.34-1a1.8,1.8,0,0,0,.65-2.21l-.28-.68-.31-.66a1.79,1.79,0,0,0-2.06-1l-.48-.91a1.83,1.83,0,0,0,.39-2.29l-.38-.62-.38-.63a1.77,1.77,0,0,0-2.18-.76l-.58-.85a1.78,1.78,0,0,0,.09-2.31l-.45-.58-.45-.58a1.82,1.82,0,0,0-2.27-.48l-.67-.77a1.75,1.75,0,0,0,.09-1.88h-1.48l.36.38a.65.65,0,0,1,.18.61l-.46-.49a.57.57,0,0,0-.82,0,.6.6,0,0,0,0,.83l.45.47a.64.64,0,0,1-.59-.19l-.47-.5-.51-.47a.64.64,0,0,1-.19-.59l.48.45a.59.59,0,0,0,.82,0,.52.52,0,0,0,.15-.47h-2.57a1.71,1.71,0,0,0,.53,1.43l.49.46.46.49a1.83,1.83,0,0,0,2.23.26l.65.76a1.82,1.82,0,0,0,0,2.23l.41.53.41.54a1.84,1.84,0,0,0,2.17.55l.56.83a1.87,1.87,0,0,0-.28,2.22l.35.58.35.57a1.8,1.8,0,0,0,2.08.83l.46.88a1.82,1.82,0,0,0-.55,2.18l.28.61.26.63a1.8,1.8,0,0,0,2,1.06l.33,1a1.79,1.79,0,0,0-.8,2.08l.18.65.19.65a1.84,1.84,0,0,0,1.81,1.3l.23,1a1.85,1.85,0,0,0-1.08,2l.11.67.12.66a1.78,1.78,0,0,0,1.61,1.53l.11,1a1.82,1.82,0,0,0-1.33,1.8l0,.67,1.13,0,0-.69a.64.64,0,0,1,.27-.56l0,.65a.6.6,0,0,0,.6.57.56.56,0,0,0,.54-.61l0-.67a.67.67,0,0,1,.32.54l0,.72,1,0-.07.19,1.06.39.25-.65a.62.62,0,0,1,.46-.4l-.23.61a.58.58,0,0,0,.33.74.59.59,0,0,0,.74-.35l.22-.6a.61.61,0,0,1,.09.6l-.24.64,1.07.4.24-.64a1.79,1.79,0,0,0-.73-2.11l.35-.92a1.78,1.78,0,0,0,2-1.07l.26-.63.25-.63a1.78,1.78,0,0,0-.66-2.14l.38-.91a1.77,1.77,0,0,0,2-1l.27-.62.28-.62a1.78,1.78,0,0,0-.6-2.15l.41-.9a1.8,1.8,0,0,0,2-.94l.29-.62.29-.61a1.78,1.78,0,0,0-.52-2.17l.44-.88a1.79,1.79,0,0,0,2.05-.89l.31-.6.32-.6a1.79,1.79,0,0,0-.46-2.19l.47-.87a1.77,1.77,0,0,0,2.07-.81l.33-.59.33-.58a1.62,1.62,0,0,0,.2-1.07C267.4,107.85,266.54,107.42,266.54,107.42ZM242,108l-.41-.53a.58.58,0,0,0-.82-.13.59.59,0,0,0-.09.81l.4.52a.66.66,0,0,1-.57-.26l-.42-.54-.42-.55a.68.68,0,0,1-.11-.61c.14.17.28.33.41.51a.57.57,0,0,0,.8.12.59.59,0,0,0,.09-.83c-.14-.18-.28-.35-.43-.52a.65.65,0,0,1,.59.25l.44.57.43.57A.67.67,0,0,1,242,108Zm3.26,5.07c-.11-.2-.21-.4-.33-.59a.59.59,0,0,0-.8-.22.57.57,0,0,0-.18.79c.12.18.21.38.32.57a.65.65,0,0,1-.52-.33l-.36-.59-.36-.59a.65.65,0,0,1,0-.62l.34.56a.59.59,0,0,0,.79.21.58.58,0,0,0,.18-.8l-.35-.58a.65.65,0,0,1,.54.33l.74,1.22A.64.64,0,0,1,245.21,113Zm1.6,4.48a.61.61,0,0,0-.3.77l.25.61a.65.65,0,0,1-.48-.39l-.26-.64-.29-.63a.63.63,0,0,1,0-.62l.27.6a.6.6,0,0,0,.77.3.56.56,0,0,0,.27-.77l-.29-.61a.68.68,0,0,1,.51.39l.3.65.27.66a.66.66,0,0,1-.06.63l-.25-.62A.57.57,0,0,0,246.81,117.5Zm2,5.6a.59.59,0,0,0-.38.73l.18.63a.66.66,0,0,1-.44-.45l-.19-.66-.19-.67a.66.66,0,0,1,.11-.6,4.48,4.48,0,0,1,.2.62.57.57,0,1,0,1.09-.33c-.06-.22-.13-.43-.21-.64a.64.64,0,0,1,.46.44l.2.69.19.69a.65.65,0,0,1-.13.62l-.18-.65A.59.59,0,0,0,248.84,123.1Zm2,6.32a.6.6,0,0,0-.66-.51.58.58,0,0,0-.47.67,4.84,4.84,0,0,1,.09.65.68.68,0,0,1-.36-.5l-.12-.68-.11-.68a.64.64,0,0,1,.2-.59l.11.65a.57.57,0,1,0,1.12-.2l-.12-.66a.65.65,0,0,1,.39.5l.12.71.12.7a.66.66,0,0,1-.22.6C250.88,129.86,250.86,129.64,250.82,129.42Zm6.71.52-.26.63-.25.63a.67.67,0,0,1-.48.4l.24-.6a.57.57,0,1,0-1-.43l-.24.61a.65.65,0,0,1-.07-.62l.26-.64.26-.64a.62.62,0,0,1,.47-.39l-.24.61a.57.57,0,1,0,1.05.43l.24-.6A.63.63,0,0,1,257.53,129.94Zm2.28-5.33-.28.63-.27.62a.68.68,0,0,1-.49.38l.26-.6a.56.56,0,0,0-.29-.75.57.57,0,0,0-.75.3l-.26.6a.62.62,0,0,1-.05-.62l.28-.63.27-.63a.69.69,0,0,1,.5-.38l-.27.6a.58.58,0,0,0,.28.76.59.59,0,0,0,.76-.3l.26-.59A.63.63,0,0,1,259.81,124.61Zm2.44-5.25L262,120l-.3.62a.63.63,0,0,1-.5.36l.28-.58a.57.57,0,1,0-1-.49l-.28.59a.65.65,0,0,1,0-.62l.29-.62.3-.63a.63.63,0,0,1,.51-.35l-.29.58a.57.57,0,1,0,1,.5l.28-.59A.65.65,0,0,1,262.25,119.36Zm2.61-5.18-.32.61-.31.61a.62.62,0,0,1-.51.34l.3-.57a.58.58,0,0,0-.24-.78.57.57,0,0,0-.77.26l-.3.58a.68.68,0,0,1,0-.62L263,114l.33-.61a.63.63,0,0,1,.51-.34l-.3.58a.56.56,0,0,0,.23.77.57.57,0,0,0,.77-.25l.3-.57A.6.6,0,0,1,264.86,114.18Zm2.77-5.08-.34.59-.33.6a.66.66,0,0,1-.52.33l.32-.57a.57.57,0,0,0-.22-.78.58.58,0,0,0-.78.23l-.31.57a.65.65,0,0,1,0-.62l.33-.6.35-.61a.62.62,0,0,1,.53-.32l-.33.56a.58.58,0,0,0,.2.79.58.58,0,0,0,.78-.22l.32-.56A.63.63,0,0,1,267.63,109.1Z" />
      <path class="BUNTAI_OTTER_JEWELRY_BUNTAI_OTTER_JEWELRY_22_cls-9" d="M274.68,112a1,1,0,0,0,.12.29l-.76.63a1.78,1.78,0,0,0-2.24,0l-.55.43-.55.45a1.79,1.79,0,0,0-.45,2.25l-.75.68a1.77,1.77,0,0,0-2.31.31l-1,1.14a1.78,1.78,0,0,0,0,2.29l-.6.81a1.78,1.78,0,0,0-2.19.65l-.4.6-.4.6a1.77,1.77,0,0,0,.28,2.27l-.51.87a1.78,1.78,0,0,0-2.11.88l-.33.64-.33.64a1.77,1.77,0,0,0,.53,2.23c-.14.31-.29.61-.42.93a1.76,1.76,0,0,0-2,1.1l-.27.67-.25.67a1.78,1.78,0,0,0,.76,2.16c-.1.32-.21.64-.31,1a1.77,1.77,0,0,0-1.87,1.32l-.19.69,1.1.29.18-.68a.65.65,0,0,1,.43-.45l-.17.63a.57.57,0,0,0,.39.72.58.58,0,0,0,.7-.42l.17-.62a.62.62,0,0,1,.15.6l-.19.66,1.1.28.18-.64a1.81,1.81,0,0,0-.89-2c.09-.32.19-.63.3-.94a1.81,1.81,0,0,0,1.91-1.14l.23-.62.25-.63a1.8,1.8,0,0,0-.67-2.12c.13-.31.27-.6.41-.9a1.81,1.81,0,0,0,2-.93l.3-.6.31-.59a1.8,1.8,0,0,0-.43-2.18l.5-.86a1.8,1.8,0,0,0,2.11-.7l.36-.56.37-.56a1.78,1.78,0,0,0-.19-2.21l.59-.8a1.79,1.79,0,0,0,2.17-.47l.42-.47.41-.47a1.84,1.84,0,0,0,.14-2.19l.73-.65a1.8,1.8,0,0,0,2.22,0l.53-.42.54-.43a1.78,1.78,0,0,0,.47-2.22l.78-.66a1.67,1.67,0,0,0,1.46.31C276.21,112.89,275.43,112.41,274.68,112Zm-14.29,21.72-.25.64-.23.64a.67.67,0,0,1-.47.41l.23-.61a.6.6,0,0,0-.33-.75.58.58,0,0,0-.74.35l-.22.63a.67.67,0,0,1-.09-.63l.24-.66.26-.65a.68.68,0,0,1,.48-.41l-.24.62a.57.57,0,0,0,.31.75.59.59,0,0,0,.74-.33l.24-.61A.64.64,0,0,1,260.39,133.67Zm2.43-5.25-.32.61-.31.61a.64.64,0,0,1-.5.35l.29-.58a.59.59,0,0,0-.25-.78.58.58,0,0,0-.77.27l-.29.6a.67.67,0,0,1,0-.63l.32-.63.32-.63a.68.68,0,0,1,.52-.35l-.31.59a.57.57,0,1,0,1,.53l.3-.57A.66.66,0,0,1,262.82,128.42Zm3-5-.38.57-.37.57a.63.63,0,0,1-.53.3l.34-.55a.56.56,0,0,0-.16-.79.56.56,0,0,0-.79.18l-.36.56a.7.7,0,0,1,0-.63l.38-.59.39-.59a.67.67,0,0,1,.56-.29l-.37.55a.57.57,0,1,0,.94.63l.36-.53A.64.64,0,0,1,265.79,123.46Zm3.5-4.56-.44.5-.43.5a.63.63,0,0,1-.57.24l.41-.5a.57.57,0,0,0-.06-.8.58.58,0,0,0-.82.08l-.42.52a.67.67,0,0,1,.12-.62l.47-.54.47-.55a.64.64,0,0,1,.6-.21c-.16.16-.31.33-.45.5a.57.57,0,0,0,0,.82.58.58,0,0,0,.81-.06,6.29,6.29,0,0,1,.43-.47A.71.71,0,0,1,269.29,118.9Zm4.29-3.82-.54.43-.53.43a.65.65,0,0,1-.61.12l.5-.41a.57.57,0,1,0-.71-.88l-.51.42a.65.65,0,0,1,.24-.58l.54-.44.55-.44a.67.67,0,0,1,.61-.11l-.52.41a.59.59,0,0,0-.1.81.57.57,0,0,0,.81.08l.51-.41A.64.64,0,0,1,273.58,115.08Z" />
      <circle class="BUNTAI_OTTER_JEWELRY_BUNTAI_OTTER_JEWELRY_22_cls-10" cx="249.75" cy="142.29" r="10.69" />
      <circle class="BUNTAI_OTTER_JEWELRY_BUNTAI_OTTER_JEWELRY_22_cls-11" cx="249.75" cy="142.29" r="10.69" />
      <circle class="BUNTAI_OTTER_JEWELRY_BUNTAI_OTTER_JEWELRY_22_cls-12" cx="249.75" cy="142.29" r="8.6" />
      <path d="M253.47,137.74a1,1,0,0,0-.8-.42H246.8a.92.92,0,0,0-.76.42.69.69,0,0,0,0,.79,28.12,28.12,0,0,0,3.49,4.08,22,22,0,0,0-3.35,4.09.72.72,0,0,0,.07.79,1,1,0,0,0,.76.41h5.37a1.05,1.05,0,0,0,.8-.42.7.7,0,0,0,.13-.79,17.54,17.54,0,0,0-3.23-4.08,24.16,24.16,0,0,0,3.47-4.08A.68.68,0,0,0,253.47,137.74Zm-.54,9a2.18,2.18,0,0,0-.18-.16l-6.2.17a.48.48,0,0,0-.11.49.39.39,0,0,1,0-.38,21.34,21.34,0,0,1,3.31-4l0,0,0,0A17.29,17.29,0,0,1,252.93,146.75Zm.31-8.41c-.18.27-.27.4-.47.67l-5.56.54c-.39-.49-.57-.73-.91-1.22a.39.39,0,0,1,0-.46.53.53,0,0,1,.46-.25h6a.59.59,0,0,1,.47.24A.41.41,0,0,1,253.24,138.34Z" />
      <path d="M252.84,136h-6.18a.53.53,0,0,0-.49.41.35.35,0,0,0,.36.42h6.54a.31.31,0,0,0,.31-.41A.61.61,0,0,0,252.84,136Zm.15.52h-6.41a.1.1,0,0,1-.1-.11.13.13,0,0,1,.13-.1h6.32a.16.16,0,0,1,.14.11A.08.08,0,0,1,253,136.53Z" />
      <path class="BUNTAI_OTTER_JEWELRY_BUNTAI_OTTER_JEWELRY_22_cls-13" d="M241.48,135.36s-3.9,3.61-1.49,11.32c.79,2.76,5.61,7.69,13.13,5.76a10.6,10.6,0,0,0,6.73-6.65c-2.69,2.5-10,4.47-14.66-.34C241.93,142.11,241.52,138.61,241.48,135.36Z" />
      <path class="BUNTAI_OTTER_JEWELRY_BUNTAI_OTTER_JEWELRY_22_cls-14" d="M253.12,135.92a10.43,10.43,0,0,1,4,9C257.93,142.13,258.15,137.64,253.12,135.92Z" />
      <path class="BUNTAI_OTTER_JEWELRY_BUNTAI_OTTER_JEWELRY_22_cls-15" d="M254.52,134.15a10,10,0,0,1,4.23,5.72,8.37,8.37,0,0,1-.74,6.54,7.93,7.93,0,0,0,1.2-7A7.56,7.56,0,0,0,254.52,134.15Z" />
    </g>
  </g>
</svg>