<svg id="jewelry" xmlns="http://www.w3.org/2000/svg" viewBox="0 0 432 432">
  <defs>
    <style>.BUNTAI_OTTER_JEWELRY_BUNTAI_OTTER_JEWELRY_21_cls-1{fill:#d64948;}.BUNTAI_OTTER_JEWELRY_BUNTAI_OTTER_JEWELRY_21_cls-2{fill:#3993d6;}.BUNTAI_OTTER_JEWELRY_BUNTAI_OTTER_JEWELRY_21_cls-3{fill:#fff;}.BUNTAI_OTTER_JEWELRY_BUNTAI_OTTER_JEWELRY_21_cls-4,.BUNTAI_OTTER_JEWELRY_BUNTAI_OTTER_JEWELRY_21_cls-6,.BUNTAI_OTTER_JEWELRY_BUNTAI_OTTER_JEWELRY_21_cls-8{fill:none;stroke-linecap:round;stroke-linejoin:round;}.BUNTAI_OTTER_JEWELRY_BUNTAI_OTTER_JEWELRY_21_cls-4,.BUNTAI_OTTER_JEWELRY_BUNTAI_OTTER_JEWELRY_21_cls-6,.BUNTAI_OTTER_JEWELRY_BUNTAI_OTTER_JEWELRY_21_cls-7,.BUNTAI_OTTER_JEWELRY_BUNTAI_OTTER_JEWELRY_21_cls-8,.BUNTAI_OTTER_JEWELRY_BUNTAI_OTTER_JEWELRY_21_cls-9{stroke:#000;}.BUNTAI_OTTER_JEWELRY_BUNTAI_OTTER_JEWELRY_21_cls-4{stroke-width:0.89px;}.BUNTAI_OTTER_JEWELRY_BUNTAI_OTTER_JEWELRY_21_cls-5{fill:#a18847;}.BUNTAI_OTTER_JEWELRY_BUNTAI_OTTER_JEWELRY_21_cls-6{stroke-width:0.73px;}.BUNTAI_OTTER_JEWELRY_BUNTAI_OTTER_JEWELRY_21_cls-7{fill:#e5b900;stroke-width:0.5px;}.BUNTAI_OTTER_JEWELRY_BUNTAI_OTTER_JEWELRY_21_cls-7,.BUNTAI_OTTER_JEWELRY_BUNTAI_OTTER_JEWELRY_21_cls-9{stroke-miterlimit:10;}.BUNTAI_OTTER_JEWELRY_BUNTAI_OTTER_JEWELRY_21_cls-8{stroke-width:1.68px;}.BUNTAI_OTTER_JEWELRY_BUNTAI_OTTER_JEWELRY_21_cls-9{fill:#834932;stroke-width:1.65px;}</style>
  </defs>
  <path class="BUNTAI_OTTER_JEWELRY_BUNTAI_OTTER_JEWELRY_21_cls-1" d="M152,185.08l.94,29H141.44a19,19,0,0,1,10.54-29Z" />
  <circle class="BUNTAI_OTTER_JEWELRY_BUNTAI_OTTER_JEWELRY_21_cls-2" cx="143.53" cy="176.99" r="4.11" />
  <path class="BUNTAI_OTTER_JEWELRY_BUNTAI_OTTER_JEWELRY_21_cls-3" d="M144.73,164.54h0a1.08,1.08,0,0,0-2.15,0h0a1.08,1.08,0,0,0,2.15,0Zm1.19,0h5.39l.67,20.55a19,19,0,0,0-10.54,29h-7.07L136,164.53h5.4a2.27,2.27,0,0,1,4.53,0ZM147.64,177a4.11,4.11,0,1,0-4.11,4.11A4.11,4.11,0,0,0,147.64,177Z" />
  <polyline class="BUNTAI_OTTER_JEWELRY_BUNTAI_OTTER_JEWELRY_21_cls-4" points="143.66 153.28 143.66 162.27 143.66 163.46 143.66 164.54" />
  <path class="BUNTAI_OTTER_JEWELRY_BUNTAI_OTTER_JEWELRY_21_cls-4" d="M152,185.08l-.67-20.55h-5.39a2.27,2.27,0,0,0-4.53,0H136l-1.62,49.59h7.07" />
  <path class="BUNTAI_OTTER_JEWELRY_BUNTAI_OTTER_JEWELRY_21_cls-4" d="M142.58,164.53a1.08,1.08,0,0,1,2.15,0" />
  <path class="BUNTAI_OTTER_JEWELRY_BUNTAI_OTTER_JEWELRY_21_cls-4" d="M142.58,164.53h0a1.08,1.08,0,0,0,2.15,0h0" />
  <path class="BUNTAI_OTTER_JEWELRY_BUNTAI_OTTER_JEWELRY_21_cls-4" d="M152,185.08h0l.94,29H141.44a19,19,0,0,1,10.54-29Z" />
  <circle class="BUNTAI_OTTER_JEWELRY_BUNTAI_OTTER_JEWELRY_21_cls-4" cx="143.53" cy="176.99" r="4.11" />
  <path class="BUNTAI_OTTER_JEWELRY_BUNTAI_OTTER_JEWELRY_21_cls-5" d="M143.59,153.28c-1.41,0-1.18-1.92-1.18-1.92h0a3.84,3.84,0,0,0,1.73.37,1.63,1.63,0,0,0,.77-.19C144.92,151.64,144.94,153.28,143.59,153.28Z" />
  <path class="BUNTAI_OTTER_JEWELRY_BUNTAI_OTTER_JEWELRY_21_cls-5" d="M146,145.7c.51,1.72.41,5-1.1,5.83a1.63,1.63,0,0,1-.77.19,3.84,3.84,0,0,1-1.73-.37c-1.29-.62-1.95-2.09-1.86-4.31a7.16,7.16,0,0,1,.4-2.16,4.52,4.52,0,0,1,1.26-1.95,1.57,1.57,0,0,1,1.15-.48,1.94,1.94,0,0,1,1.4.82,2.62,2.62,0,0,1-.62.12h0a3.62,3.62,0,0,0-1.58,2.43c-.39,1.89.27,4,1.22,4s1.08-2.46,1-3.76h.08A5,5,0,0,0,146,145.7Z" />
  <path class="BUNTAI_OTTER_JEWELRY_BUNTAI_OTTER_JEWELRY_21_cls-5" d="M141.82,136.51c.53-.22,2.82-.4,2.86-.14s-.76,1.36-.7,1.57a7.61,7.61,0,0,0-1.66.95,2.83,2.83,0,0,0-.73,3.34,1.91,1.91,0,0,0,.62.7,4.52,4.52,0,0,0-1.26,1.95A5,5,0,0,1,141.82,136.51Z" />
  <path class="BUNTAI_OTTER_JEWELRY_BUNTAI_OTTER_JEWELRY_21_cls-5" d="M148.27,142.66a4.09,4.09,0,0,1-2.26,3,4.53,4.53,0,0,1-1.18.36h-.08a4.41,4.41,0,0,1-2.23-.24,3.62,3.62,0,0,1,1.58-2.43,0,0,0,0,0,0,0h0a2.62,2.62,0,0,0,.62-.12,1.84,1.84,0,0,0,1.31-1.13,1.62,1.62,0,0,0,.08-.49c0-2-.79-2.1-.79-2.1a2.58,2.58,0,0,1-.1-.27,2.6,2.6,0,0,1,2-1.69A6.82,6.82,0,0,1,148.27,142.66Z" />
  <path class="BUNTAI_OTTER_JEWELRY_BUNTAI_OTTER_JEWELRY_21_cls-6" d="M141,144.88a5,5,0,0,1,.87-8.37c.5-.25,1.12-.55,3.5,0a3.07,3.07,0,0,0-1.51,1.63,2.62,2.62,0,0,0-1.49.75,2.83,2.83,0,0,0-.73,3.34,1.91,1.91,0,0,0,.62.7" />
  <path class="BUNTAI_OTTER_JEWELRY_BUNTAI_OTTER_JEWELRY_21_cls-6" d="M142.52,145.83a4.41,4.41,0,0,0,2.23.24h.08a4.53,4.53,0,0,0,1.18-.36,4.09,4.09,0,0,0,2.26-3,6.82,6.82,0,0,0-1-5.07" />
  <path class="BUNTAI_OTTER_JEWELRY_BUNTAI_OTTER_JEWELRY_21_cls-6" d="M145.26,139.28a2.58,2.58,0,0,0,.1.27s.76.1.79,2.1a1.62,1.62,0,0,1-.08.49,1.84,1.84,0,0,1-1.31,1.13,2.62,2.62,0,0,1-.62.12" />
  <path class="BUNTAI_OTTER_JEWELRY_BUNTAI_OTTER_JEWELRY_21_cls-6" d="M146,145.7c.51,1.72.41,5-1.1,5.83a1.63,1.63,0,0,1-.77.19,3.84,3.84,0,0,1-1.73-.37c-1.29-.62-1.95-2.09-1.86-4.31a7.16,7.16,0,0,1,.4-2.16,4.52,4.52,0,0,1,1.26-1.95,1.57,1.57,0,0,1,1.15-.48,1.94,1.94,0,0,1,1.4.82" />
  <path class="BUNTAI_OTTER_JEWELRY_BUNTAI_OTTER_JEWELRY_21_cls-6" d="M144.75,146.07c.07,1.3.05,3.76-1,3.76s-1.61-2.11-1.22-4a3.62,3.62,0,0,1,1.58-2.43h0" />
  <path class="BUNTAI_OTTER_JEWELRY_BUNTAI_OTTER_JEWELRY_21_cls-6" d="M142.41,151.36s-.23,1.92,1.18,1.92,1.33-1.64,1.32-1.75h0" />
  <path class="BUNTAI_OTTER_JEWELRY_BUNTAI_OTTER_JEWELRY_21_cls-6" d="M145.41,141.34a2.57,2.57,0,0,1-.29-1.21,2.66,2.66,0,0,1,.14-.85,2.6,2.6,0,0,1,2-1.69,3.15,3.15,0,0,1,.44,0,1.76,1.76,0,0,1,1.75,1.29" />
  <path class="BUNTAI_OTTER_JEWELRY_BUNTAI_OTTER_JEWELRY_21_cls-7" d="M235.41,356.47c-2.59-4-9-3.8-12.47-2.91a10.45,10.45,0,0,0-7.89,6.61c-2.43,6-1.82,9.73,2.34,13.29s6.17,3.87,4.62,7.85-3.88,3.11-3.73,5.54,6.17,5.12,11.27,1.8,8.23-6.76,8.8-15S238,360.45,235.41,356.47Zm-4,11.47c-1.28,3.71-3.39,6.17-7.61,2.4s-.38-9.46-.38-9.46c.44-.76,3.24-2.46,5.55-1.42S232.71,364.22,231.45,367.94Z" />
  <path class="BUNTAI_OTTER_JEWELRY_BUNTAI_OTTER_JEWELRY_21_cls-8" d="M231.6,353.17a16.53,16.53,0,0,0-13,1.78c-14.14,18.19,6.48,18.75,3.63,25.82-.88,2.21-2,3.31-3.2,3.77a2.37,2.37,0,0,0-.29,4,9.32,9.32,0,0,0,7.39,1.68C242.55,386.48,240.36,355.35,231.6,353.17Z" />
  <path class="BUNTAI_OTTER_JEWELRY_BUNTAI_OTTER_JEWELRY_21_cls-8" d="M223.46,360.88s-3.84,5.69.38,9.46,6.34,1.31,7.6-2.41-.14-7.43-2.44-8.47S223.9,360.12,223.46,360.88Z" />
  <path class="BUNTAI_OTTER_JEWELRY_BUNTAI_OTTER_JEWELRY_21_cls-9" d="M223.75,362.78H223c-41.51,0-85.42-48.7-94-58.67.67-1.47,1.25-2.11,1.82-3.19-6.06-5.65-9.86,1.42-6.34,6,.41.4,51,60.6,98.57,60.6h.76a2.37,2.37,0,0,0,0-4.69Z" />
  <path class="BUNTAI_OTTER_JEWELRY_BUNTAI_OTTER_JEWELRY_21_cls-9" d="M300,304.11c1.2,1.23,1.47,1.74,2.38,2.71-30.08,43.63-61.3,54.66-71.4,55.28a2.26,2.26,0,0,0-2.27,2,2.3,2.3,0,0,0,1.71,2.65,6.23,6.23,0,0,0,4.42.28c30-8.59,55.3-32.65,71.92-57.76C309.44,305.33,305.43,298.77,300,304.11Z" />
</svg>