<svg xmlns="http://www.w3.org/2000/svg" viewBox="0 0 432 432">
  <defs>
    <style>.BUNTAI_OTTER_JEWELRY_BUNTAI_OTTER_JEWELRY_20_cls-1{isolation:isolate;}.BUNTAI_OTTER_JEWELRY_BUNTAI_OTTER_JEWELRY_20_cls-2{fill:#c7a858;}.BUNTAI_OTTER_JEWELRY_BUNTAI_OTTER_JEWELRY_20_cls-3,.BUNTAI_OTTER_JEWELRY_BUNTAI_OTTER_JEWELRY_20_cls-6,.BUNTAI_OTTER_JEWELRY_BUNTAI_OTTER_JEWELRY_20_cls-7,.BUNTAI_OTTER_JEWELRY_BUNTAI_OTTER_JEWELRY_20_cls-9{fill:none;stroke:#000;stroke-linecap:round;stroke-linejoin:round;}.BUNTAI_OTTER_JEWELRY_BUNTAI_OTTER_JEWELRY_20_cls-3{stroke-width:0.63px;}.BUNTAI_OTTER_JEWELRY_BUNTAI_OTTER_JEWELRY_20_cls-4{fill:#d2a548;}.BUNTAI_OTTER_JEWELRY_BUNTAI_OTTER_JEWELRY_20_cls-5{fill:#5897a8;}.BUNTAI_OTTER_JEWELRY_BUNTAI_OTTER_JEWELRY_20_cls-6{stroke-width:0.25px;}.BUNTAI_OTTER_JEWELRY_BUNTAI_OTTER_JEWELRY_20_cls-7{stroke-width:0.66px;}.BUNTAI_OTTER_JEWELRY_BUNTAI_OTTER_JEWELRY_20_cls-8{opacity:0.43;mix-blend-mode:multiply;}.BUNTAI_OTTER_JEWELRY_BUNTAI_OTTER_JEWELRY_20_cls-9{stroke-width:0.58px;}</style>
  </defs>
  <g class="BUNTAI_OTTER_JEWELRY_BUNTAI_OTTER_JEWELRY_20_cls-1">
    <g id="jewelry">
      <path class="BUNTAI_OTTER_JEWELRY_BUNTAI_OTTER_JEWELRY_20_cls-2" d="M143.33,152.14c-1.21,0-1-1.65-1-1.65h0a3.28,3.28,0,0,0,1.49.31,1.4,1.4,0,0,0,.66-.16C144.47,150.73,144.5,152.14,143.33,152.14Z" />
      <path class="BUNTAI_OTTER_JEWELRY_BUNTAI_OTTER_JEWELRY_20_cls-2" d="M145.41,145.64c.45,1.47.35,4.29-.94,5a1.4,1.4,0,0,1-.66.16,3.28,3.28,0,0,1-1.49-.31c-1.11-.54-1.67-1.79-1.59-3.7a6,6,0,0,1,.34-1.86,3.94,3.94,0,0,1,1.08-1.68,1.41,1.41,0,0,1,1-.41,1.69,1.69,0,0,1,1.2.71,2.36,2.36,0,0,1-.53.1h0a3.07,3.07,0,0,0-1.36,2.09c-.34,1.62.23,3.44,1.05,3.44s.92-2.12.86-3.24h.07A4.13,4.13,0,0,0,145.41,145.64Z" />
      <path class="BUNTAI_OTTER_JEWELRY_BUNTAI_OTTER_JEWELRY_20_cls-2" d="M141.81,137.74c.46-.18,2.43-.34,2.46-.11s-.65,1.16-.6,1.34a6.72,6.72,0,0,0-1.42.82,2.44,2.44,0,0,0-.64,2.87,1.8,1.8,0,0,0,.54.59,3.94,3.94,0,0,0-1.08,1.68A4.34,4.34,0,0,1,141.81,137.74Z" />
      <path class="BUNTAI_OTTER_JEWELRY_BUNTAI_OTTER_JEWELRY_20_cls-2" d="M147.35,143a3.48,3.48,0,0,1-1.94,2.61,3.74,3.74,0,0,1-1,.31h-.07a3.84,3.84,0,0,1-1.91-.2,3.1,3.1,0,0,1,1.35-2.09h0a1.91,1.91,0,0,0,.53-.1,1.59,1.59,0,0,0,1.13-1,1.37,1.37,0,0,0,.06-.42c0-1.71-.68-1.8-.68-1.8l-.08-.23a2.22,2.22,0,0,1,1.72-1.45A5.87,5.87,0,0,1,147.35,143Z" />
      <path class="BUNTAI_OTTER_JEWELRY_BUNTAI_OTTER_JEWELRY_20_cls-3" d="M141.07,144.93a4.34,4.34,0,0,1,.74-7.19c.44-.21,1-.47,3,0a2.62,2.62,0,0,0-1.29,1.4,2.27,2.27,0,0,0-1.28.65,2.44,2.44,0,0,0-.64,2.87,1.8,1.8,0,0,0,.54.59" />
      <path class="BUNTAI_OTTER_JEWELRY_BUNTAI_OTTER_JEWELRY_20_cls-3" d="M142.42,145.75a3.84,3.84,0,0,0,1.91.2h.07a3.74,3.74,0,0,0,1-.31,3.48,3.48,0,0,0,1.94-2.61,5.87,5.87,0,0,0-.86-4.35" />
      <path class="BUNTAI_OTTER_JEWELRY_BUNTAI_OTTER_JEWELRY_20_cls-3" d="M144.77,140.12l.08.23s.66.09.68,1.8a1.37,1.37,0,0,1-.06.42,1.59,1.59,0,0,1-1.13,1,1.91,1.91,0,0,1-.53.1" />
      <path class="BUNTAI_OTTER_JEWELRY_BUNTAI_OTTER_JEWELRY_20_cls-3" d="M145.41,145.64c.45,1.47.35,4.29-.94,5a1.4,1.4,0,0,1-.66.16,3.28,3.28,0,0,1-1.49-.31c-1.11-.54-1.67-1.79-1.59-3.7a6,6,0,0,1,.34-1.86,3.94,3.94,0,0,1,1.08-1.68,1.41,1.41,0,0,1,1-.41,1.69,1.69,0,0,1,1.2.71" />
      <path class="BUNTAI_OTTER_JEWELRY_BUNTAI_OTTER_JEWELRY_20_cls-3" d="M144.33,146c.06,1.12,0,3.24-.86,3.24s-1.39-1.82-1.05-3.44a3.07,3.07,0,0,1,1.36-2.09h0" />
      <path class="BUNTAI_OTTER_JEWELRY_BUNTAI_OTTER_JEWELRY_20_cls-3" d="M142.32,150.49s-.2,1.65,1,1.65,1.14-1.41,1.14-1.5h0" />
      <path class="BUNTAI_OTTER_JEWELRY_BUNTAI_OTTER_JEWELRY_20_cls-3" d="M144.9,141.89a2.22,2.22,0,0,1,1.59-3.22,2.34,2.34,0,0,1,.38,0,1.52,1.52,0,0,1,1.5,1.12" />
      <path class="BUNTAI_OTTER_JEWELRY_BUNTAI_OTTER_JEWELRY_20_cls-4" d="M146.85,159.08a3.56,3.56,0,0,1-1.73,3,3.43,3.43,0,0,0-.58-1.23,2.19,2.19,0,1,0-2.46,0,3.26,3.26,0,0,0-.57,1.23,3.54,3.54,0,1,1,5.34-3Z" />
      <path class="BUNTAI_OTTER_JEWELRY_BUNTAI_OTTER_JEWELRY_20_cls-5" d="M155.54,177.05a26.26,26.26,0,0,1-8.95-4.89,6.55,6.55,0,0,1-1.42-1.46,8,8,0,0,1-.92-4.59V166s.15-1.85-.27-2.3-1.5-.62-1.71.8c0,0-.07.49-.24,1.26-.43,1.87-1.56,5.42-4.19,7.7h0a20.62,20.62,0,0,1-8.56,2,3.32,3.32,0,0,0-.07,1.29c-.57.06-1.15.11-1.72.14a2.36,2.36,0,0,0-.33,1,1,1,0,0,0,1.08,1,1.15,1.15,0,0,0,.07,1h0a1.47,1.47,0,0,0,.55.5,5.8,5.8,0,0,0,.69.27,4.11,4.11,0,0,0-.12.61h0a6.11,6.11,0,0,0-.06.86,1.5,1.5,0,0,1,.94.84,2.8,2.8,0,0,1,.19,1.41l.38.09.74.18c0,.2.06.39.09.6a1.29,1.29,0,0,1,.63.22,2,2,0,0,1,.58.58,1.67,1.67,0,0,1,.23,1.44l.16,0a1.14,1.14,0,0,1,.94.29.65.65,0,0,1,.16.13,2.43,2.43,0,0,0,1,.74,1.68,1.68,0,0,0,.74,0l.14,0a4.46,4.46,0,0,1,4.33,2c.09.14.18.29.26.44s.16.32.23.49a1.1,1.1,0,0,0,.36.53c.17-.19.37-.32.55-.52a2.94,2.94,0,0,1,.7-.66,1.08,1.08,0,0,1,.92-.13,1.88,1.88,0,0,1,1.07-.51,1.81,1.81,0,0,1,1.31.35,3,3,0,0,1,3.34-.31,1.1,1.1,0,0,1,0-.18,1.89,1.89,0,0,1,1.08-1.3,1.31,1.31,0,0,0,.5-.25c.21-.21.17-.59.29-.87,0,0,0,0,0,0a1.44,1.44,0,0,1,.55-.57,1.64,1.64,0,0,0,.58-.56.55.55,0,0,0-.12-.72s0-.05,0-.08c.06-.31.21-.63.26-.94l.08-.51a4.72,4.72,0,0,1,.23-1,1.47,1.47,0,0,1,.66-.73.19.19,0,0,1,.1,0c.17-.06.35-.09.52-.15a.68.68,0,0,0,.45-.42c.07-.32-.21-.58-.38-.85a1.32,1.32,0,0,1,.27-1.62c.19-.16.42-.26.62-.4a.9.9,0,0,0,.4-.5.17.17,0,0,0,0-.07s0,0,0-.07A2.08,2.08,0,0,1,155.54,177.05Z" />
      <path class="BUNTAI_OTTER_JEWELRY_BUNTAI_OTTER_JEWELRY_20_cls-4" d="M145.27,163.35a3.72,3.72,0,0,1-1,2.76V166s.15-1.85-.27-2.3-1.5-.62-1.71.8c0,0-.07.49-.24,1.26a4.11,4.11,0,0,1-.67-2.38,4.74,4.74,0,0,1,.15-1.22,3.26,3.26,0,0,1,.57-1.23,1.43,1.43,0,0,1,2.46,0,3.43,3.43,0,0,1,.58,1.23A5.22,5.22,0,0,1,145.27,163.35Z" />
      <path class="BUNTAI_OTTER_JEWELRY_BUNTAI_OTTER_JEWELRY_20_cls-6" d="M145.29,172.49a16.16,16.16,0,0,0,5.37,3.64c1.62.78,3.29,1.48,4.81,2.41" />
      <path class="BUNTAI_OTTER_JEWELRY_BUNTAI_OTTER_JEWELRY_20_cls-6" d="M154,180.31a65.52,65.52,0,0,0-5.54-4.29" />
      <path class="BUNTAI_OTTER_JEWELRY_BUNTAI_OTTER_JEWELRY_20_cls-6" d="M146.65,175.93a28.06,28.06,0,0,1,6.94,6.55" />
      <path class="BUNTAI_OTTER_JEWELRY_BUNTAI_OTTER_JEWELRY_20_cls-6" d="M144.49,174.15c1.12,1.92,2.4,3.77,3.66,5.6l2.86,4.16c.41.59.82,1.18,1.25,1.75" />
      <path class="BUNTAI_OTTER_JEWELRY_BUNTAI_OTTER_JEWELRY_20_cls-6" d="M149.36,190a52.84,52.84,0,0,1-5.69-15.15l0-.24a38.16,38.16,0,0,0,7.61,13" />
      <path class="BUNTAI_OTTER_JEWELRY_BUNTAI_OTTER_JEWELRY_20_cls-6" d="M144.69,190.17A52.94,52.94,0,0,1,143,175" />
      <path class="BUNTAI_OTTER_JEWELRY_BUNTAI_OTTER_JEWELRY_20_cls-6" d="M139,189.07h0A41.09,41.09,0,0,0,142.16,175v-.41" />
      <path class="BUNTAI_OTTER_JEWELRY_BUNTAI_OTTER_JEWELRY_20_cls-6" d="M142,181.17a37.61,37.61,0,0,1-1.11,9.8" />
      <path class="BUNTAI_OTTER_JEWELRY_BUNTAI_OTTER_JEWELRY_20_cls-6" d="M134.25,187.71a59.56,59.56,0,0,0,5-9.43h0l.36-.89c.55-1.36,1-2.74,1.48-4.15" />
      <path class="BUNTAI_OTTER_JEWELRY_BUNTAI_OTTER_JEWELRY_20_cls-6" d="M136.13,188.57a15.92,15.92,0,0,0,1.92-3.93,42.12,42.12,0,0,0,1.42-6.27" />
      <path class="BUNTAI_OTTER_JEWELRY_BUNTAI_OTTER_JEWELRY_20_cls-6" d="M130.88,184.43a31.79,31.79,0,0,0,7.88-7.38" />
      <path class="BUNTAI_OTTER_JEWELRY_BUNTAI_OTTER_JEWELRY_20_cls-6" d="M135,182.53l-2.66,2.9" />
      <path class="BUNTAI_OTTER_JEWELRY_BUNTAI_OTTER_JEWELRY_20_cls-6" d="M129.43,181.23a56.13,56.13,0,0,0,9.22-5.78" />
      <path class="BUNTAI_OTTER_JEWELRY_BUNTAI_OTTER_JEWELRY_20_cls-6" d="M128.31,179.84a60,60,0,0,0,6.74-3.18" />
      <path class="BUNTAI_OTTER_JEWELRY_BUNTAI_OTTER_JEWELRY_20_cls-7" d="M142,165.73a4.11,4.11,0,0,1-.67-2.38,4.74,4.74,0,0,1,.15-1.22,3.26,3.26,0,0,1,.57-1.23,1.43,1.43,0,0,1,2.46,0,3.43,3.43,0,0,1,.58,1.23,5.22,5.22,0,0,1,.15,1.22,3.72,3.72,0,0,1-1,2.76" />
      <path class="BUNTAI_OTTER_JEWELRY_BUNTAI_OTTER_JEWELRY_20_cls-7" d="M137.84,173.43a22.28,22.28,0,0,0,2.52-1.42" />
      <path class="BUNTAI_OTTER_JEWELRY_BUNTAI_OTTER_JEWELRY_20_cls-7" d="M129.21,176.69a3.32,3.32,0,0,1,.07-1.29,20.62,20.62,0,0,0,8.56-2" />
      <path class="BUNTAI_OTTER_JEWELRY_BUNTAI_OTTER_JEWELRY_20_cls-7" d="M137.84,173.43h0c2.63-2.28,3.76-5.83,4.19-7.7.17-.77.24-1.26.24-1.26.21-1.42,1.29-1.24,1.71-.8s.27,2.3.27,2.3v.14a8,8,0,0,0,.92,4.59,6.55,6.55,0,0,0,1.42,1.46,26.26,26.26,0,0,0,8.95,4.89,2.08,2.08,0,0,0,0,1.35s0,0,0,.07a.17.17,0,0,1,0,.07.9.9,0,0,1-.4.5c-.2.14-.43.24-.62.4a1.32,1.32,0,0,0-.27,1.62c.17.27.45.53.38.85a.68.68,0,0,1-.45.42c-.17.06-.35.09-.52.15a.19.19,0,0,0-.1,0,1.47,1.47,0,0,0-.66.73,4.72,4.72,0,0,0-.23,1l-.08.51c-.05.31-.2.63-.26.94,0,0,0,.05,0,.08a.55.55,0,0,1,.12.72,1.64,1.64,0,0,1-.58.56,1.44,1.44,0,0,0-.55.57s0,0,0,0c-.12.28-.08.66-.29.87a1.31,1.31,0,0,1-.5.25,1.89,1.89,0,0,0-1.08,1.3,1.1,1.1,0,0,0,0,.18,3,3,0,0,0-3.34.31,1.81,1.81,0,0,0-1.31-.35,1.88,1.88,0,0,0-1.07.51,1.08,1.08,0,0,0-.92.13,2.94,2.94,0,0,0-.7.66c-.18.2-.38.33-.55.52a1.1,1.1,0,0,1-.36-.53c-.07-.17-.15-.33-.23-.49s-.17-.3-.26-.44a4.46,4.46,0,0,0-4.33-2l-.14,0a1.68,1.68,0,0,1-.74,0,2.43,2.43,0,0,1-1-.74.65.65,0,0,0-.16-.13,1.14,1.14,0,0,0-.94-.29l-.16,0a1.67,1.67,0,0,0-.23-1.44,2,2,0,0,0-.58-.58,1.29,1.29,0,0,0-.63-.22c0-.21-.06-.4-.09-.6l-.74-.18-.38-.09a2.8,2.8,0,0,0-.19-1.41,1.5,1.5,0,0,0-.94-.84,6.11,6.11,0,0,1,.06-.86h0a4.11,4.11,0,0,1,.12-.61,5.8,5.8,0,0,1-.69-.27,1.47,1.47,0,0,1-.55-.5h0a1.15,1.15,0,0,1-.07-1,1,1,0,0,1-1.08-1,2.36,2.36,0,0,1,.33-1c.57,0,1.15-.08,1.72-.14a28.25,28.25,0,0,0,11-3.65" />
      <path class="BUNTAI_OTTER_JEWELRY_BUNTAI_OTTER_JEWELRY_20_cls-7" d="M142.08,160.9a2.19,2.19,0,1,1,2.46,0" />
      <path class="BUNTAI_OTTER_JEWELRY_BUNTAI_OTTER_JEWELRY_20_cls-7" d="M145.12,162.13a3.54,3.54,0,1,0-3.61,0" />
      <g class="BUNTAI_OTTER_JEWELRY_BUNTAI_OTTER_JEWELRY_20_cls-8">
        <path d="M143.31,155.55a1.12,1.12,0,0,0,0,1.46c-1.35.16-3.26,1.46-1.23,3.89a3.23,3.23,0,0,1,1.39-.7s-1.37,1.71-.16,3.15a113.93,113.93,0,0,1-2.45,12.58c-1,3.17-1.39,4.22-1.39,4.22a18.72,18.72,0,0,0,2.51-5.72,99.09,99.09,0,0,1-2.51,11.23,31.64,31.64,0,0,1-1,3.14,14.54,14.54,0,0,0-2.73-.23c-.69.11-1.78-1.07-2.14-1.3a1.47,1.47,0,0,1-.43-.33,2.33,2.33,0,0,0-1.33-1.92c-.38-.59-.46-.59-.46-.59l-.72-.14a2.63,2.63,0,0,0-1.27-2.32c0-1.16,0-1.49,0-1.49a1.71,1.71,0,0,1-1.32-1.64c-.94-.56-1-1-1-1l.45-1.19s.65.65,5.46.22a11.16,11.16,0,0,0,7.25-3.35s-5.41,2.36-8.46,2.72a21.58,21.58,0,0,1-2.91.26l.44-1.14a16.58,16.58,0,0,0,8.16-1.88,12.31,12.31,0,0,0,4.19-6c.68-2.29.27-2.22.27-2.22a2.83,2.83,0,0,1-.54-2.8,29,29,0,0,0-1.68-2.5c0-.05-.26-2.6,1.15-3.45A7.59,7.59,0,0,1,143.31,155.55Z" />
        <path d="M142.94,175.78s-.52,10.38.53,14.86c.8-.37,1.72-.78,2.55,0C143.56,181.17,142.86,178.08,142.94,175.78Z" />
      </g>
      <line class="BUNTAI_OTTER_JEWELRY_BUNTAI_OTTER_JEWELRY_20_cls-9" x1="143.4" y1="155.55" x2="143.4" y2="152.14" />
    </g>
  </g>
</svg>