<svg id="jewelry" xmlns="http://www.w3.org/2000/svg" viewBox="0 0 432 432">
  <defs>
    <style>.BUNTAI_OTTER_JEWELRY_BUNTAI_OTTER_JEWELRY_14_cls-1{fill:#c7a858;}.BUNTAI_OTTER_JEWELRY_BUNTAI_OTTER_JEWELRY_14_cls-2,.BUNTAI_OTTER_JEWELRY_BUNTAI_OTTER_JEWELRY_14_cls-4,.BUNTAI_OTTER_JEWELRY_BUNTAI_OTTER_JEWELRY_14_cls-8{fill:none;}.BUNTAI_OTTER_JEWELRY_BUNTAI_OTTER_JEWELRY_14_cls-2,.BUNTAI_OTTER_JEWELRY_BUNTAI_OTTER_JEWELRY_14_cls-4,.BUNTAI_OTTER_JEWELRY_BUNTAI_OTTER_JEWELRY_14_cls-5,.BUNTAI_OTTER_JEWELRY_BUNTAI_OTTER_JEWELRY_14_cls-6,.BUNTAI_OTTER_JEWELRY_BUNTAI_OTTER_JEWELRY_14_cls-8{stroke:#000;}.BUNTAI_OTTER_JEWELRY_BUNTAI_OTTER_JEWELRY_14_cls-2,.BUNTAI_OTTER_JEWELRY_BUNTAI_OTTER_JEWELRY_14_cls-4,.BUNTAI_OTTER_JEWELRY_BUNTAI_OTTER_JEWELRY_14_cls-5,.BUNTAI_OTTER_JEWELRY_BUNTAI_OTTER_JEWELRY_14_cls-8{stroke-linecap:round;stroke-linejoin:round;}.BUNTAI_OTTER_JEWELRY_BUNTAI_OTTER_JEWELRY_14_cls-2{stroke-width:0.57px;}.BUNTAI_OTTER_JEWELRY_BUNTAI_OTTER_JEWELRY_14_cls-3{fill:#39b54a;}.BUNTAI_OTTER_JEWELRY_BUNTAI_OTTER_JEWELRY_14_cls-4{stroke-width:0.88px;}.BUNTAI_OTTER_JEWELRY_BUNTAI_OTTER_JEWELRY_14_cls-5{fill:#fff;stroke-width:0.79px;}.BUNTAI_OTTER_JEWELRY_BUNTAI_OTTER_JEWELRY_14_cls-6{fill:#754c24;stroke-miterlimit:10;stroke-width:1.23px;}.BUNTAI_OTTER_JEWELRY_BUNTAI_OTTER_JEWELRY_14_cls-7{fill:#333;}.BUNTAI_OTTER_JEWELRY_BUNTAI_OTTER_JEWELRY_14_cls-8{stroke-width:0.8px;}</style>
  </defs>
  <path class="BUNTAI_OTTER_JEWELRY_BUNTAI_OTTER_JEWELRY_14_cls-1" d="M144.07,149.61c-1.1,0-.92-1.5-.92-1.5h0a3,3,0,0,0,1.35.29,1.34,1.34,0,0,0,.61-.15C145.12,148.33,145.14,149.61,144.07,149.61Z" />
  <path class="BUNTAI_OTTER_JEWELRY_BUNTAI_OTTER_JEWELRY_14_cls-1" d="M146,143.67c.41,1.34.32,3.92-.86,4.57a1.34,1.34,0,0,1-.61.15,3,3,0,0,1-1.35-.29c-1-.49-1.53-1.64-1.46-3.38A5.6,5.6,0,0,1,142,143a3.62,3.62,0,0,1,1-1.53,1.26,1.26,0,0,1,.9-.38,1.54,1.54,0,0,1,1.1.65,1.93,1.93,0,0,1-.49.09s0,0,0,0h0a2.79,2.79,0,0,0-1.24,1.91c-.31,1.48.21,3.14.95,3.14S145,145,145,144h.06A4,4,0,0,0,146,143.67Z" />
  <path class="BUNTAI_OTTER_JEWELRY_BUNTAI_OTTER_JEWELRY_14_cls-1" d="M142.68,136.45c.43-.17,2.22-.31,2.25-.1s-.59,1.06-.55,1.23a5.84,5.84,0,0,0-1.3.74,2.23,2.23,0,0,0-.58,2.62,1.53,1.53,0,0,0,.49.55,3.62,3.62,0,0,0-1,1.53A4,4,0,0,1,142.68,136.45Z" />
  <path class="BUNTAI_OTTER_JEWELRY_BUNTAI_OTTER_JEWELRY_14_cls-1" d="M147.75,141.28a3.24,3.24,0,0,1-1.78,2.39,3.54,3.54,0,0,1-.92.27H145a3.39,3.39,0,0,1-1.74-.18,2.79,2.79,0,0,1,1.24-1.91h0a2.56,2.56,0,0,0,.48-.1,1.44,1.44,0,0,0,1-.89,1.23,1.23,0,0,0,.06-.39c0-1.57-.62-1.64-.62-1.64l-.07-.22A2,2,0,0,1,147,137.3,5.37,5.37,0,0,1,147.75,141.28Z" />
  <path class="BUNTAI_OTTER_JEWELRY_BUNTAI_OTTER_JEWELRY_14_cls-2" d="M142,143a4,4,0,0,1,.68-6.57c.4-.19.88-.43,2.75,0a2.41,2.41,0,0,0-1.18,1.28,2.11,2.11,0,0,0-1.17.59,2.23,2.23,0,0,0-.58,2.62,1.53,1.53,0,0,0,.49.55" />
  <path class="BUNTAI_OTTER_JEWELRY_BUNTAI_OTTER_JEWELRY_14_cls-2" d="M143.24,143.77A3.39,3.39,0,0,0,145,144h.07a3.54,3.54,0,0,0,.92-.27,3.24,3.24,0,0,0,1.78-2.39,5.37,5.37,0,0,0-.79-4" />
  <path class="BUNTAI_OTTER_JEWELRY_BUNTAI_OTTER_JEWELRY_14_cls-2" d="M145.39,138.62l.07.22s.6.07.62,1.64a1.23,1.23,0,0,1-.06.39,1.44,1.44,0,0,1-1,.89,2.56,2.56,0,0,1-.48.1" />
  <path class="BUNTAI_OTTER_JEWELRY_BUNTAI_OTTER_JEWELRY_14_cls-2" d="M146,143.67c.41,1.34.32,3.92-.86,4.57a1.34,1.34,0,0,1-.61.15,3,3,0,0,1-1.35-.29c-1-.49-1.53-1.64-1.46-3.38A5.6,5.6,0,0,1,142,143a3.62,3.62,0,0,1,1-1.53,1.26,1.26,0,0,1,.9-.38,1.54,1.54,0,0,1,1.1.65" />
  <path class="BUNTAI_OTTER_JEWELRY_BUNTAI_OTTER_JEWELRY_14_cls-2" d="M145,144c0,1,0,2.95-.8,2.95s-1.26-1.66-.95-3.14a2.79,2.79,0,0,1,1.24-1.91h0s0,0,0,0" />
  <path class="BUNTAI_OTTER_JEWELRY_BUNTAI_OTTER_JEWELRY_14_cls-2" d="M143.15,148.11s-.18,1.5.92,1.5,1.05-1.28,1-1.37h0" />
  <path class="BUNTAI_OTTER_JEWELRY_BUNTAI_OTTER_JEWELRY_14_cls-2" d="M145.5,140.24a2.11,2.11,0,0,1-.23-.94,1.91,1.91,0,0,1,.12-.68A2,2,0,0,1,147,137.3a1.87,1.87,0,0,1,.34,0,1.37,1.37,0,0,1,1.37,1" />
  <path class="BUNTAI_OTTER_JEWELRY_BUNTAI_OTTER_JEWELRY_14_cls-3" d="M149.34,173.43c0,4.61-2.33,8.36-5.21,8.36s-5.21-3.75-5.21-8.36,2.33-8.36,5.21-8.36S149.34,168.81,149.34,173.43Z" />
  <path class="BUNTAI_OTTER_JEWELRY_BUNTAI_OTTER_JEWELRY_14_cls-1" d="M144.13,162.77c-3.67,0-6.65,4.77-6.65,10.66s3,10.66,6.65,10.66,6.64-4.77,6.64-10.66S147.8,162.77,144.13,162.77Zm0,19c-2.89,0-5.22-3.74-5.22-8.35s2.33-8.36,5.22-8.36,5.2,3.75,5.2,8.36S147,181.78,144.13,181.78Z" />
  <ellipse class="BUNTAI_OTTER_JEWELRY_BUNTAI_OTTER_JEWELRY_14_cls-1" cx="144.13" cy="160.98" rx="2.78" ry="1.79" />
  <ellipse class="BUNTAI_OTTER_JEWELRY_BUNTAI_OTTER_JEWELRY_14_cls-4" cx="144.13" cy="160.98" rx="2.78" ry="1.79" />
  <path class="BUNTAI_OTTER_JEWELRY_BUNTAI_OTTER_JEWELRY_14_cls-4" d="M150.77,173.43c0,5.89-3,10.66-6.64,10.66s-6.65-4.77-6.65-10.66,3-10.66,6.65-10.66S150.77,167.54,150.77,173.43Z" />
  <path class="BUNTAI_OTTER_JEWELRY_BUNTAI_OTTER_JEWELRY_14_cls-4" d="M149.34,173.43c0,4.61-2.33,8.36-5.21,8.36s-5.21-3.75-5.21-8.36,2.33-8.36,5.21-8.36S149.34,168.81,149.34,173.43Z" />
  <line class="BUNTAI_OTTER_JEWELRY_BUNTAI_OTTER_JEWELRY_14_cls-4" x1="144.05" y1="149.76" x2="144.05" y2="159.2" />
  <path class="BUNTAI_OTTER_JEWELRY_BUNTAI_OTTER_JEWELRY_14_cls-4" d="M144.59,166.85s3.13,1.14,3,7.09" />
  <path class="BUNTAI_OTTER_JEWELRY_BUNTAI_OTTER_JEWELRY_14_cls-5" d="M217.77,393.12a20.78,20.78,0,0,1,3.42,7.64s4.53-1.94,4.91-14.39a65.67,65.67,0,0,0-.26-8.27c0-.11,0-.22,0-.33a.53.53,0,0,0,0-.13l0-.26c0-.36-.08-.71-.12-1a1.46,1.46,0,0,0,0-.22c0-.07,0-.14,0-.21a2.89,2.89,0,0,1,0-.29c0-.23-.07-.45-.1-.67s0-.18,0-.26l0-.26c0-.11,0-.21-.05-.32a2.17,2.17,0,0,1,0-.25l-.06-.31c0-.05,0-.09,0-.14a2.07,2.07,0,0,1,0-.22s0,0,0,0,0-.16-.05-.24a2.38,2.38,0,0,0,0-.26l-.11-.55a.36.36,0,0,1,0-.1s0,0,0,0l0-.14c0-.11,0-.21-.07-.29l2-.12-.06-.71-2.61.16-1.22-13.44a1.27,1.27,0,0,0-1.42-1,1.43,1.43,0,0,0-.9.38.94.94,0,0,0-.32.8L221.51,371l-2.74.17.06.7,2.22-.14c0,.19,0,.48.07.86l0,.23a.38.38,0,0,0,0,.1V373l0,.25c0,.25,0,.52,0,.82,0,.14,0,.28,0,.43s0,.6,0,.93,0,.6,0,.92v.75c0,.23,0,.47,0,.71V378c0,.31,0,.62,0,.94,0,.12,0,.24,0,.36s0,.37,0,.56V380c0,.1,0,.2,0,.3s0,.39,0,.59q0,.65-.12,1.29c0,.22,0,.44-.07.66a3.11,3.11,0,0,1,0,.32l-.09.72c0,.17,0,.34-.08.5-.05.32-.1.63-.16.95l-.06.32c-.05.22-.09.45-.14.68s-.09.39-.14.59l-.09.39-.12.45c0,.05,0,.09,0,.14l-.07.25-.07.25-.15.48a.42.42,0,0,1,0,.1,2,2,0,0,1-.08.26c0,.13-.09.25-.13.38-.16.43-.33.86-.51,1.28l-.08.16c-.09.21-.19.41-.29.62l-.09.16a.8.8,0,0,1-.08.16l-.12.22h0l-.17.3a.43.43,0,0,1,0,.07Z" />
  <path class="BUNTAI_OTTER_JEWELRY_BUNTAI_OTTER_JEWELRY_14_cls-5" d="M220.29,357.59l.08.94,2.65-.16-.09-.95a1.27,1.27,0,0,0-1.42-1,1.43,1.43,0,0,0-.9.38A.94.94,0,0,0,220.29,357.59Z" />
  <polygon class="BUNTAI_OTTER_JEWELRY_BUNTAI_OTTER_JEWELRY_14_cls-5" points="220.38 358.53 221.51 371.03 224.15 370.87 223.02 358.37 220.38 358.53" />
  <polygon class="BUNTAI_OTTER_JEWELRY_BUNTAI_OTTER_JEWELRY_14_cls-5" points="218.77 371.2 218.83 371.9 226.82 371.41 226.75 370.7 218.77 371.2" />
  <polygon class="BUNTAI_OTTER_JEWELRY_BUNTAI_OTTER_JEWELRY_14_cls-5" points="218.77 371.2 218.83 371.9 226.82 371.41 226.75 370.7 218.77 371.2" />
  <path class="BUNTAI_OTTER_JEWELRY_BUNTAI_OTTER_JEWELRY_14_cls-5" d="M221.05,371.76c0,.39.11,1.22.16,2.35.22,4.42.14,13.49-3.44,19a20.78,20.78,0,0,1,3.42,7.64s4.53-1.94,4.91-14.39a63.73,63.73,0,0,0-.82-12.51c-.19-1.11-.37-1.91-.47-2.33" />
  <path class="BUNTAI_OTTER_JEWELRY_BUNTAI_OTTER_JEWELRY_14_cls-5" d="M224.15,370.87l-.06-.72L224,368.8l-.09-.92-.14-1.55-.05-.63-.05-.5-.12-1.3,0-.51-.11-1.17,0-.35-.13-1.35,0-.46-.11-1.21,0-.48-.08-.95a1.29,1.29,0,0,0-1.43-1,1.43,1.43,0,0,0-.9.38,1,1,0,0,0-.32.8l.09.94h0l.1,1.15,0,.18.11,1.21,0,.6.1,1.08,0,.3.12,1.38,0,.39.09.93.06.67v.07l.08.93.1,1.12.11,1.19.08.88,0,.42" />
  <line class="BUNTAI_OTTER_JEWELRY_BUNTAI_OTTER_JEWELRY_14_cls-5" x1="223.02" y1="358.37" x2="220.37" y2="358.53" />
  <polyline class="BUNTAI_OTTER_JEWELRY_BUNTAI_OTTER_JEWELRY_14_cls-5" points="221.47 370.61 224.09 370.15 221.39 369.73 223.97 368.8 221.28 368.54 223.88 367.88 221.18 367.43 223.76 366.56 221.09 366.42" />
  <line class="BUNTAI_OTTER_JEWELRY_BUNTAI_OTTER_JEWELRY_14_cls-5" x1="223.69" y1="365.7" x2="221.03" y2="365.75" />
  <path class="BUNTAI_OTTER_JEWELRY_BUNTAI_OTTER_JEWELRY_14_cls-5" d="M220.48,359.68c.75-.25,2.21-.73,2.58-.83" />
  <line class="BUNTAI_OTTER_JEWELRY_BUNTAI_OTTER_JEWELRY_14_cls-5" x1="223.21" y1="360.52" x2="220.61" y2="361.07" />
  <line class="BUNTAI_OTTER_JEWELRY_BUNTAI_OTTER_JEWELRY_14_cls-5" x1="223.17" y1="360.06" x2="220.5" y2="359.86" />
  <line class="BUNTAI_OTTER_JEWELRY_BUNTAI_OTTER_JEWELRY_14_cls-5" x1="223.37" y1="362.22" x2="220.76" y2="362.75" />
  <line class="BUNTAI_OTTER_JEWELRY_BUNTAI_OTTER_JEWELRY_14_cls-5" x1="223.34" y1="361.87" x2="220.66" y2="361.67" />
  <path class="BUNTAI_OTTER_JEWELRY_BUNTAI_OTTER_JEWELRY_14_cls-5" d="M223.48,363.39l-2.69-.34" />
  <path class="BUNTAI_OTTER_JEWELRY_BUNTAI_OTTER_JEWELRY_14_cls-5" d="M223.52,363.9l-2.61.53" />
  <line class="BUNTAI_OTTER_JEWELRY_BUNTAI_OTTER_JEWELRY_14_cls-5" x1="223.64" y1="365.2" x2="220.94" y2="364.82" />
  <path class="BUNTAI_OTTER_JEWELRY_BUNTAI_OTTER_JEWELRY_14_cls-6" d="M307.45,294.6c-2.6-1.78-4.7,2.17-4.7,2.17l2.27.66c-6.77,16.47-37.89,38.64-84.88,52.62-49.67-14-84.84-50.19-88.8-56.05l1.24-1.41s-1.23-3.08-4.61-1a2.89,2.89,0,0,0-.35,3.43s.2.32.51.78h0s39.8,43.57,91.54,57.92a2,2,0,0,0,.49.06,1.81,1.81,0,0,0,.52-.07C270.45,339,302.39,314.48,308.79,297,309.11,296.12,308,295,307.45,294.6Z" />
  <path class="BUNTAI_OTTER_JEWELRY_BUNTAI_OTTER_JEWELRY_14_cls-7" d="M217.32,349.27l2.25.6s2.34-1.29,3.3.53.51,3.14-.74,3.71-3.1.07-3.45-.93a4.89,4.89,0,0,0-2.16-.48s.9,3.43,3.91,3.73a4.4,4.4,0,0,0,5.14-4,4.21,4.21,0,0,0-2.42-4.42A4.6,4.6,0,0,0,217.32,349.27Z" />
  <path class="BUNTAI_OTTER_JEWELRY_BUNTAI_OTTER_JEWELRY_14_cls-8" d="M216.41,352.58a4.53,4.53,0,0,0,4.09,4l.46,0a4.62,4.62,0,0,0,3.07-1.15,4.46,4.46,0,0,0,1.52-3.14,1.06,1.06,0,0,0,0-.25,4.57,4.57,0,0,0-1-2.88,4.68,4.68,0,0,0-3.57-1.65,4.56,4.56,0,0,0-3.74,1.91l2.28.61a2.43,2.43,0,0,1,1.46-.47,2.52,2.52,0,0,1,2.52,2.48,2.37,2.37,0,0,1-.28,1.11,2.52,2.52,0,0,1-4.45.07h0Z" />
</svg>