<svg id="jewelry" xmlns="http://www.w3.org/2000/svg" viewBox="0 0 432 432">
  <defs>
    <style>.BUNTAI_OTTER_JEWELRY_BUNTAI_OTTER_JEWELRY_16_cls-1{fill:#c7a858;}.BUNTAI_OTTER_JEWELRY_BUNTAI_OTTER_JEWELRY_16_cls-2,.BUNTAI_OTTER_JEWELRY_BUNTAI_OTTER_JEWELRY_16_cls-4{fill:none;stroke:#000;stroke-linecap:round;stroke-linejoin:round;}.BUNTAI_OTTER_JEWELRY_BUNTAI_OTTER_JEWELRY_16_cls-2{stroke-width:0.57px;}.BUNTAI_OTTER_JEWELRY_BUNTAI_OTTER_JEWELRY_16_cls-3{fill:#39b54a;}.BUNTAI_OTTER_JEWELRY_BUNTAI_OTTER_JEWELRY_16_cls-4{stroke-width:0.88px;}</style>
  </defs>
  <path class="BUNTAI_OTTER_JEWELRY_BUNTAI_OTTER_JEWELRY_16_cls-1" d="M144.65,149c-1.11,0-.92-1.51-.92-1.51h0a3,3,0,0,0,1.35.29,1.34,1.34,0,0,0,.61-.15C145.69,147.73,145.71,149,144.65,149Z" />
  <path class="BUNTAI_OTTER_JEWELRY_BUNTAI_OTTER_JEWELRY_16_cls-1" d="M146.55,143.06c.41,1.35.32,3.93-.86,4.58a1.34,1.34,0,0,1-.61.15,3,3,0,0,1-1.35-.29c-1-.49-1.53-1.64-1.46-3.38a5.6,5.6,0,0,1,.31-1.7,3.56,3.56,0,0,1,1-1.53,1.26,1.26,0,0,1,.9-.38,1.54,1.54,0,0,1,1.1.65,1.93,1.93,0,0,1-.49.09h0a2.79,2.79,0,0,0-1.24,1.91c-.31,1.48.21,3.14,1,3.14s.85-1.93.79-3h.07A3.2,3.2,0,0,0,146.55,143.06Z" />
  <path class="BUNTAI_OTTER_JEWELRY_BUNTAI_OTTER_JEWELRY_16_cls-1" d="M143.26,135.85c.42-.17,2.22-.32,2.25-.11s-.6,1.07-.55,1.24a5.84,5.84,0,0,0-1.3.74,2.23,2.23,0,0,0-.58,2.62,1.53,1.53,0,0,0,.49.55,3.56,3.56,0,0,0-1,1.53A4,4,0,0,1,143.26,135.85Z" />
  <path class="BUNTAI_OTTER_JEWELRY_BUNTAI_OTTER_JEWELRY_16_cls-1" d="M148.33,140.68a3.2,3.2,0,0,1-2.7,2.66h-.07a3.39,3.39,0,0,1-1.74-.18,2.81,2.81,0,0,1,1.23-1.91h0a1.93,1.93,0,0,0,.49-.09,1.46,1.46,0,0,0,1-.89,1.23,1.23,0,0,0,.06-.39c0-1.57-.62-1.64-.62-1.64L146,138a2,2,0,0,1,1.57-1.32A5.41,5.41,0,0,1,148.33,140.68Z" />
  <path class="BUNTAI_OTTER_JEWELRY_BUNTAI_OTTER_JEWELRY_16_cls-2" d="M142.58,142.42a4,4,0,0,1,.68-6.57c.4-.19.88-.43,2.75,0a2.38,2.38,0,0,0-1.18,1.28,2.11,2.11,0,0,0-1.17.59,2.23,2.23,0,0,0-.58,2.62,1.53,1.53,0,0,0,.49.55" />
  <path class="BUNTAI_OTTER_JEWELRY_BUNTAI_OTTER_JEWELRY_16_cls-2" d="M143.82,143.17a3.39,3.39,0,0,0,1.74.18h.07a3.2,3.2,0,0,0,2.7-2.66,5.41,5.41,0,0,0-.79-4" />
  <path class="BUNTAI_OTTER_JEWELRY_BUNTAI_OTTER_JEWELRY_16_cls-2" d="M146,138l.07.22s.6.07.62,1.64a1.23,1.23,0,0,1-.06.39,1.46,1.46,0,0,1-1,.89,1.93,1.93,0,0,1-.49.09" />
  <path class="BUNTAI_OTTER_JEWELRY_BUNTAI_OTTER_JEWELRY_16_cls-2" d="M146.55,143.06c.41,1.35.32,3.93-.86,4.58a1.34,1.34,0,0,1-.61.15,3,3,0,0,1-1.35-.29c-1-.49-1.53-1.64-1.46-3.38a5.6,5.6,0,0,1,.31-1.7,3.56,3.56,0,0,1,1-1.53,1.26,1.26,0,0,1,.9-.38,1.54,1.54,0,0,1,1.1.65" />
  <path class="BUNTAI_OTTER_JEWELRY_BUNTAI_OTTER_JEWELRY_16_cls-2" d="M145.56,143.35c.06,1,.05,3-.79,3s-1.26-1.66-1-3.14a2.79,2.79,0,0,1,1.24-1.91h0" />
  <path class="BUNTAI_OTTER_JEWELRY_BUNTAI_OTTER_JEWELRY_16_cls-2" d="M143.73,147.5s-.19,1.51.92,1.51,1-1.28,1-1.37h0" />
  <path class="BUNTAI_OTTER_JEWELRY_BUNTAI_OTTER_JEWELRY_16_cls-2" d="M146.08,139.64a2.11,2.11,0,0,1-.23-.94A1.91,1.91,0,0,1,146,138a2,2,0,0,1,1.57-1.32,1.87,1.87,0,0,1,.34,0,1.37,1.37,0,0,1,1.37,1" />
  <path class="BUNTAI_OTTER_JEWELRY_BUNTAI_OTTER_JEWELRY_16_cls-3" d="M149.92,172.83c0,4.61-2.33,8.36-5.21,8.36s-5.21-3.75-5.21-8.36,2.33-8.36,5.21-8.36S149.92,168.21,149.92,172.83Z" />
  <path class="BUNTAI_OTTER_JEWELRY_BUNTAI_OTTER_JEWELRY_16_cls-1" d="M144.71,162.17c-3.67,0-6.65,4.77-6.65,10.66s3,10.66,6.65,10.66,6.64-4.77,6.64-10.66S148.38,162.17,144.71,162.17Zm0,19c-2.89,0-5.22-3.74-5.22-8.35s2.33-8.37,5.22-8.37,5.2,3.75,5.2,8.37S147.58,181.18,144.71,181.18Z" />
  <ellipse class="BUNTAI_OTTER_JEWELRY_BUNTAI_OTTER_JEWELRY_16_cls-1" cx="144.71" cy="160.38" rx="2.78" ry="1.79" />
  <ellipse class="BUNTAI_OTTER_JEWELRY_BUNTAI_OTTER_JEWELRY_16_cls-4" cx="144.71" cy="160.38" rx="2.78" ry="1.79" />
  <path class="BUNTAI_OTTER_JEWELRY_BUNTAI_OTTER_JEWELRY_16_cls-4" d="M151.35,172.83c0,5.89-3,10.66-6.64,10.66s-6.65-4.77-6.65-10.66,3-10.66,6.65-10.66S151.35,166.94,151.35,172.83Z" />
  <path class="BUNTAI_OTTER_JEWELRY_BUNTAI_OTTER_JEWELRY_16_cls-4" d="M149.92,172.83c0,4.61-2.33,8.36-5.21,8.36s-5.21-3.75-5.21-8.36,2.33-8.36,5.21-8.36S149.92,168.21,149.92,172.83Z" />
  <line class="BUNTAI_OTTER_JEWELRY_BUNTAI_OTTER_JEWELRY_16_cls-4" x1="144.63" y1="149.16" x2="144.63" y2="158.59" />
  <path class="BUNTAI_OTTER_JEWELRY_BUNTAI_OTTER_JEWELRY_16_cls-4" d="M145.16,166.24s3.14,1.15,3,7.1" />
</svg>