<svg id="jewelry" xmlns="http://www.w3.org/2000/svg" viewBox="0 0 432 432">
  <defs>
    <style>.BUNTAI_OTTER_JEWELRY_BUNTAI_OTTER_JEWELRY_19_cls-1{fill:#fff;}.BUNTAI_OTTER_JEWELRY_BUNTAI_OTTER_JEWELRY_19_cls-2{fill:#666;}.BUNTAI_OTTER_JEWELRY_BUNTAI_OTTER_JEWELRY_19_cls-3{fill:#c7a858;}.BUNTAI_OTTER_JEWELRY_BUNTAI_OTTER_JEWELRY_19_cls-11,.BUNTAI_OTTER_JEWELRY_BUNTAI_OTTER_JEWELRY_19_cls-12,.BUNTAI_OTTER_JEWELRY_BUNTAI_OTTER_JEWELRY_19_cls-4,.BUNTAI_OTTER_JEWELRY_BUNTAI_OTTER_JEWELRY_19_cls-5{fill:none;}.BUNTAI_OTTER_JEWELRY_BUNTAI_OTTER_JEWELRY_19_cls-11,.BUNTAI_OTTER_JEWELRY_BUNTAI_OTTER_JEWELRY_19_cls-12,.BUNTAI_OTTER_JEWELRY_BUNTAI_OTTER_JEWELRY_19_cls-4,.BUNTAI_OTTER_JEWELRY_BUNTAI_OTTER_JEWELRY_19_cls-5,.BUNTAI_OTTER_JEWELRY_BUNTAI_OTTER_JEWELRY_19_cls-6{stroke:#000;}.BUNTAI_OTTER_JEWELRY_BUNTAI_OTTER_JEWELRY_19_cls-11,.BUNTAI_OTTER_JEWELRY_BUNTAI_OTTER_JEWELRY_19_cls-4,.BUNTAI_OTTER_JEWELRY_BUNTAI_OTTER_JEWELRY_19_cls-5{stroke-linecap:round;stroke-linejoin:round;}.BUNTAI_OTTER_JEWELRY_BUNTAI_OTTER_JEWELRY_19_cls-4{stroke-width:0.92px;}.BUNTAI_OTTER_JEWELRY_BUNTAI_OTTER_JEWELRY_19_cls-5{stroke-width:0.67px;}.BUNTAI_OTTER_JEWELRY_BUNTAI_OTTER_JEWELRY_19_cls-6{fill:#754c24;stroke-width:1.04px;}.BUNTAI_OTTER_JEWELRY_BUNTAI_OTTER_JEWELRY_19_cls-12,.BUNTAI_OTTER_JEWELRY_BUNTAI_OTTER_JEWELRY_19_cls-6{stroke-miterlimit:10;}.BUNTAI_OTTER_JEWELRY_BUNTAI_OTTER_JEWELRY_19_cls-7{fill:#4d4d4d;}.BUNTAI_OTTER_JEWELRY_BUNTAI_OTTER_JEWELRY_19_cls-8{fill:#333;}.BUNTAI_OTTER_JEWELRY_BUNTAI_OTTER_JEWELRY_19_cls-9{fill:#8c6239;}.BUNTAI_OTTER_JEWELRY_BUNTAI_OTTER_JEWELRY_19_cls-10{fill:#006837;}.BUNTAI_OTTER_JEWELRY_BUNTAI_OTTER_JEWELRY_19_cls-11,.BUNTAI_OTTER_JEWELRY_BUNTAI_OTTER_JEWELRY_19_cls-12{stroke-width:0.78px;}</style>
  </defs>
  <path class="BUNTAI_OTTER_JEWELRY_BUNTAI_OTTER_JEWELRY_19_cls-1" d="M156.58,195.55a13.39,13.39,0,0,1-11.83-3.72,6.54,6.54,0,0,0,4.43-3.6A24.1,24.1,0,0,0,156.58,195.55Z" />
  <path class="BUNTAI_OTTER_JEWELRY_BUNTAI_OTTER_JEWELRY_19_cls-1" d="M156.75,195.66c-2.25.94-10.67,3.58-18.4-5.75a6.49,6.49,0,0,0,2.58-.38,31.27,31.27,0,0,1-3.1-1.3,34.27,34.27,0,0,1-.37-11.77l2.18-1.34-.36,1.95,1.51-1.2c-.54,4.58-.35,9.72,2,13.48a15.36,15.36,0,0,0,1.94,2.48,13.39,13.39,0,0,0,11.83,3.72Z" />
  <path class="BUNTAI_OTTER_JEWELRY_BUNTAI_OTTER_JEWELRY_19_cls-2" d="M142.53,170.51a21,21,0,0,0,3.67.91l-2.46,1.11,1.7.61-1.84.6s2.12,2.82,3.56,3.23a10.25,10.25,0,0,1-4.58-.88l-.89,2.19-.9-2.41a47.16,47.16,0,0,1,1-5.36Z" />
  <path class="BUNTAI_OTTER_JEWELRY_BUNTAI_OTTER_JEWELRY_19_cls-1" d="M141.69,178.28l.89-2.19,0,1.59s1.53,5,3.85,6.22c-1.62,3.82-1.62,4.61-1.62,4.61l3-3.35a9.37,9.37,0,0,0,1.3,3.07,6.54,6.54,0,0,1-4.43,3.6,15.36,15.36,0,0,1-1.94-2.48c-2.37-3.76-2.56-8.9-2-13.48Z" />
  <path class="BUNTAI_OTTER_JEWELRY_BUNTAI_OTTER_JEWELRY_19_cls-2" d="M141.75,170.51a47.16,47.16,0,0,0-1,5.36l-1.51,1.2.36-1.95-2.18,1.34a5.65,5.65,0,0,1-2.09,1.22,10.83,10.83,0,0,0,1.91-3.45l-1.07-.46,1.44-1.17L136.34,171s2.47,0,2.75-.09,1.84-.42,1.84-.42Z" />
  <path class="BUNTAI_OTTER_JEWELRY_BUNTAI_OTTER_JEWELRY_19_cls-3" d="M143.54,161.3a2.45,2.45,0,0,1-.16,4.9,1.84,1.84,0,0,1-.41,0,2.45,2.45,0,0,1,.41-4.86Z" />
  <path class="BUNTAI_OTTER_JEWELRY_BUNTAI_OTTER_JEWELRY_19_cls-4" d="M143.54,161.3a2.45,2.45,0,0,1-.16,4.9,1.84,1.84,0,0,1-.41,0,2.45,2.45,0,0,1,.41-4.86Z" />
  <path class="BUNTAI_OTTER_JEWELRY_BUNTAI_OTTER_JEWELRY_19_cls-4" d="M141.75,170.51h-.82s-1.56.37-1.84.42-2.75.09-2.75.09l1.31,1.58-1.44,1.17,1.07.46a10.83,10.83,0,0,1-1.91,3.45,5.65,5.65,0,0,0,2.09-1.22,34.27,34.27,0,0,0,.37,11.77,31.27,31.27,0,0,0,3.1,1.3,6.49,6.49,0,0,1-2.58.38c7.73,9.33,16.15,6.69,18.4,5.75l-.17-.11a24.1,24.1,0,0,1-7.4-7.32,9.37,9.37,0,0,1-1.3-3.07l-3,3.35s0-.79,1.62-4.61c-2.32-1.25-3.85-6.22-3.85-6.22l0-1.59a10.25,10.25,0,0,0,4.58.88c-1.44-.41-3.56-3.23-3.56-3.23l1.84-.6-1.7-.61,2.46-1.11a21,21,0,0,1-3.67-.91h-.78" />
  <path class="BUNTAI_OTTER_JEWELRY_BUNTAI_OTTER_JEWELRY_19_cls-4" d="M143,166.16c-.32,1-.79,2.48-1.22,4.35a47.16,47.16,0,0,0-1,5.36c-.54,4.58-.35,9.72,2,13.48a15.36,15.36,0,0,0,1.94,2.48,13.39,13.39,0,0,0,11.83,3.72" />
  <path class="BUNTAI_OTTER_JEWELRY_BUNTAI_OTTER_JEWELRY_19_cls-4" d="M144.75,191.83a6.54,6.54,0,0,0,4.43-3.6" />
  <polyline class="BUNTAI_OTTER_JEWELRY_BUNTAI_OTTER_JEWELRY_19_cls-4" points="142.58 176.09 141.69 178.28 140.79 175.87 139.28 177.07 139.64 175.12 137.46 176.46" />
  <line class="BUNTAI_OTTER_JEWELRY_BUNTAI_OTTER_JEWELRY_19_cls-4" x1="143.54" y1="161.31" x2="143.54" y2="153.08" />
  <path class="BUNTAI_OTTER_JEWELRY_BUNTAI_OTTER_JEWELRY_19_cls-3" d="M143.58,152.84c-1.3,0-1.08-1.77-1.08-1.77h0a3.51,3.51,0,0,0,1.58.33,1.46,1.46,0,0,0,.71-.17C144.8,151.33,144.82,152.84,143.58,152.84Z" />
  <path class="BUNTAI_OTTER_JEWELRY_BUNTAI_OTTER_JEWELRY_19_cls-3" d="M145.8,145.88c.48,1.58.38,4.59-1,5.35a1.46,1.46,0,0,1-.71.17,3.51,3.51,0,0,1-1.58-.33c-1.19-.58-1.79-1.92-1.71-4a6.47,6.47,0,0,1,.37-2,4.27,4.27,0,0,1,1.15-1.79,1.53,1.53,0,0,1,1.06-.44,1.8,1.8,0,0,1,1.28.76,2.5,2.5,0,0,1-.57.11h0A3.29,3.29,0,0,0,142.6,146c-.36,1.73.25,3.68,1.12,3.68s1-2.26.93-3.46h.07A4.27,4.27,0,0,0,145.8,145.88Z" />
  <path class="BUNTAI_OTTER_JEWELRY_BUNTAI_OTTER_JEWELRY_19_cls-3" d="M142,137.44c.5-.2,2.59-.37,2.63-.13s-.69,1.25-.64,1.45a6.79,6.79,0,0,0-1.52.86,2.61,2.61,0,0,0-.68,3.07,1.77,1.77,0,0,0,.57.64,4.27,4.27,0,0,0-1.15,1.79A4.63,4.63,0,0,1,142,137.44Z" />
  <path class="BUNTAI_OTTER_JEWELRY_BUNTAI_OTTER_JEWELRY_19_cls-3" d="M147.88,143.08a3.77,3.77,0,0,1-2.08,2.8,4.27,4.27,0,0,1-1.08.32l-.07,0a4,4,0,0,1-2.05-.22,3.29,3.29,0,0,1,1.45-2.23,0,0,0,0,0,0,0h0a2.74,2.74,0,0,0,.57-.11,1.69,1.69,0,0,0,1.2-1,1.63,1.63,0,0,0,.07-.45c0-1.84-.72-1.93-.72-1.93a1.45,1.45,0,0,1-.09-.25,2.35,2.35,0,0,1,1.83-1.54A6.26,6.26,0,0,1,147.88,143.08Z" />
  <path class="BUNTAI_OTTER_JEWELRY_BUNTAI_OTTER_JEWELRY_19_cls-5" d="M141.16,145.12a4.63,4.63,0,0,1,.79-7.68c.47-.23,1-.51,3.22,0a2.77,2.77,0,0,0-1.38,1.5,2.36,2.36,0,0,0-1.37.68,2.61,2.61,0,0,0-.68,3.07,1.77,1.77,0,0,0,.57.64" />
  <path class="BUNTAI_OTTER_JEWELRY_BUNTAI_OTTER_JEWELRY_19_cls-5" d="M142.6,146a4,4,0,0,0,2.05.22l.07,0a4.27,4.27,0,0,0,1.08-.32,3.77,3.77,0,0,0,2.08-2.8,6.26,6.26,0,0,0-.93-4.64" />
  <path class="BUNTAI_OTTER_JEWELRY_BUNTAI_OTTER_JEWELRY_19_cls-5" d="M145.12,140a1.45,1.45,0,0,0,.09.25s.69.09.72,1.93a1.63,1.63,0,0,1-.07.45,1.69,1.69,0,0,1-1.2,1,2.74,2.74,0,0,1-.57.11" />
  <path class="BUNTAI_OTTER_JEWELRY_BUNTAI_OTTER_JEWELRY_19_cls-5" d="M145.8,145.88c.48,1.58.38,4.59-1,5.35a1.46,1.46,0,0,1-.71.17,3.51,3.51,0,0,1-1.58-.33c-1.19-.58-1.79-1.92-1.71-4a6.47,6.47,0,0,1,.37-2,4.27,4.27,0,0,1,1.15-1.79,1.53,1.53,0,0,1,1.06-.44,1.8,1.8,0,0,1,1.28.76" />
  <path class="BUNTAI_OTTER_JEWELRY_BUNTAI_OTTER_JEWELRY_19_cls-5" d="M144.65,146.22c.06,1.2,0,3.46-.93,3.46s-1.48-2-1.12-3.68a3.29,3.29,0,0,1,1.45-2.23h0" />
  <path class="BUNTAI_OTTER_JEWELRY_BUNTAI_OTTER_JEWELRY_19_cls-5" d="M142.5,151.07s-.22,1.77,1.08,1.77,1.22-1.51,1.21-1.61h0" />
  <path class="BUNTAI_OTTER_JEWELRY_BUNTAI_OTTER_JEWELRY_19_cls-5" d="M145.25,141.87a2.39,2.39,0,0,1-.27-1.1,2.3,2.3,0,0,1,.14-.79,2.35,2.35,0,0,1,1.83-1.54,1.84,1.84,0,0,1,.41,0,1.61,1.61,0,0,1,1.6,1.19" />
  <path class="BUNTAI_OTTER_JEWELRY_BUNTAI_OTTER_JEWELRY_19_cls-6" d="M303.77,309v0c-10.46,24.75-36.35,65.15-84.5,82.37a1.49,1.49,0,0,1-.55.1,1.24,1.24,0,0,1-.38-.05c-46.8-11.52-70-44.74-81.28-70.6a165.55,165.55,0,0,1-7.87-22.51c-1-2.73-1.22-7.21,4.34-4.15a27.44,27.44,0,0,0-1.42,2.37,161.9,161.9,0,0,0,8,23.06c10.92,25,33.41,57.19,78.54,68.49,46.63-16.84,73.21-58.27,83.39-82.29,0,0-1.09-1.61-1.71-2.35.69-.94,2.66-1.25,4.3.48C305.55,304.93,304,308.42,303.77,309Z" />
  <path class="BUNTAI_OTTER_JEWELRY_BUNTAI_OTTER_JEWELRY_19_cls-7" d="M226.61,415.9c2.18,2,3.83,11.57-4.69,12.8S209,420.64,214,412.75c4.84-7.65,14.2-4.19,14.78-4-3.93-1.06-9.44-.89-13.32,5.1-5.58,8.62,5.21,14.34,8.27,9.92s-.75-8.94-5.69-9.54C220.51,412.68,224.44,413.93,226.61,415.9Z" />
  <path class="BUNTAI_OTTER_JEWELRY_BUNTAI_OTTER_JEWELRY_19_cls-8" d="M236.32,418.84c-.6-6.71-10.26-13.63-18.31-4.58,2.5-1.58,6.43-.33,8.6,1.64s3.83,11.57-4.69,12.8S209,420.64,214,412.75c4.84-7.65,14.2-4.19,14.78-4h0a14.41,14.41,0,0,1,3.95,1.71s-1-8-12.78-8.82c-.65-.05-1.33-.07-2-.07h-.72c-13.21.53-18.22,15.43-14.42,24.8,3.87,9.55,14.87,13,22.87,10.37S236.91,425.55,236.32,418.84Z" />
  <path class="BUNTAI_OTTER_JEWELRY_BUNTAI_OTTER_JEWELRY_19_cls-9" d="M219.94,393.62v8.06c-.65-.05-1.33-.07-2-.07h-.72v-8a2.28,2.28,0,0,1,0-.26,3.66,3.66,0,0,0,1.36.26,3.82,3.82,0,0,0,1.36-.25A1,1,0,0,1,219.94,393.62Z" />
  <path class="BUNTAI_OTTER_JEWELRY_BUNTAI_OTTER_JEWELRY_19_cls-10" d="M218.56,385.67a4,4,0,0,1,1.36,7.7,3.82,3.82,0,0,1-1.36.25,3.66,3.66,0,0,1-1.36-.26,4,4,0,0,1,1.36-7.69Z" />
  <path class="BUNTAI_OTTER_JEWELRY_BUNTAI_OTTER_JEWELRY_19_cls-11" d="M228.77,408.79a14.41,14.41,0,0,1,3.95,1.71s-1-8-12.78-8.82c-.65-.05-1.33-.07-2-.07h-.72c-13.21.53-18.22,15.43-14.42,24.8,3.87,9.55,14.87,13,22.87,10.37s11.28-11.24,10.69-18-10.26-13.63-18.31-4.58c4.94.6,8.75,5.13,5.69,9.54s-13.85-1.3-8.27-9.92c3.88-6,9.39-6.16,13.32-5.1" />
  <path class="BUNTAI_OTTER_JEWELRY_BUNTAI_OTTER_JEWELRY_19_cls-11" d="M230.11,407.64h0" />
  <path class="BUNTAI_OTTER_JEWELRY_BUNTAI_OTTER_JEWELRY_19_cls-11" d="M221.92,403.24a11.19,11.19,0,0,1,.16,3.44,25.06,25.06,0,0,1,8,.95A11.46,11.46,0,0,0,221.92,403.24Z" />
  <path class="BUNTAI_OTTER_JEWELRY_BUNTAI_OTTER_JEWELRY_19_cls-11" d="M215.35,403.68s-5.93,2.75-7.38,6.17c3.7,1.66,4.59,2.56,4.59,2.56l2.26-2.89a24.85,24.85,0,0,0-3.16-2.21l-1.14,1.42a8.17,8.17,0,0,1,2.12,1.22" />
  <path class="BUNTAI_OTTER_JEWELRY_BUNTAI_OTTER_JEWELRY_19_cls-11" d="M207,417.93l1.77.22v4h-3.51s.1-5.51.62-6.67a31.24,31.24,0,0,1,4.72.68s-.4,6.9,0,8.4c-4.83,1.61-6.58.54-6.58.54s-1.39-7.85,1.48-12.73a20.3,20.3,0,0,1,6.28,2.22" />
  <path class="BUNTAI_OTTER_JEWELRY_BUNTAI_OTTER_JEWELRY_19_cls-11" d="M228.77,408.79h0c-.58-.22-9.94-3.68-14.78,4-5,7.89-.56,17.18,7.95,15.95s6.87-10.84,4.69-12.8-6.1-3.22-8.6-1.64" />
  <path class="BUNTAI_OTTER_JEWELRY_BUNTAI_OTTER_JEWELRY_19_cls-11" d="M211.11,425.49a14.17,14.17,0,0,1-5.52,2.61c6.32,6,11.64,6.9,11.64,6.9l2.21-4.25s-5.27-1.81-6.92-3.77c-2,1.35-2.3,1.93-2.3,1.93a27.85,27.85,0,0,0,4.84,3.35c1-1.11,1-1.39,1-1.39" />
  <path class="BUNTAI_OTTER_JEWELRY_BUNTAI_OTTER_JEWELRY_19_cls-11" d="M220.94,430.24s-.45,3.94-.77,4.94a9.91,9.91,0,0,0,7.45-2.47,13.47,13.47,0,0,0-1.29-3A50.59,50.59,0,0,1,220.94,430.24Z" />
  <path class="BUNTAI_OTTER_JEWELRY_BUNTAI_OTTER_JEWELRY_19_cls-11" d="M229.58,416.83s-2.39-3.14-5.56-3.69a8.53,8.53,0,0,1,7.17.49A15.64,15.64,0,0,0,229.58,416.83Z" />
  <path class="BUNTAI_OTTER_JEWELRY_BUNTAI_OTTER_JEWELRY_19_cls-11" d="M233.17,415.52s-2.85,2.05-3.54,4.24c0,2.94-.23,4.65-.87,6.08a9,9,0,0,1-1.16,1.88,16.33,16.33,0,0,1,2.79,3.56s5.4-3.9,3.83-12.52a5.58,5.58,0,0,0-3.17,1s-.27,4.86-1.13,6.35l-.09.13a11,11,0,0,0,1.69,1.11" />
  <path class="BUNTAI_OTTER_JEWELRY_BUNTAI_OTTER_JEWELRY_19_cls-11" d="M217.2,393.36a3.9,3.9,0,1,1,2.72,0,3.82,3.82,0,0,1-1.36.25A3.66,3.66,0,0,1,217.2,393.36Z" />
  <path class="BUNTAI_OTTER_JEWELRY_BUNTAI_OTTER_JEWELRY_19_cls-12" d="M217.18,401.62h0v-8a2.28,2.28,0,0,1,0-.26" />
  <path class="BUNTAI_OTTER_JEWELRY_BUNTAI_OTTER_JEWELRY_19_cls-12" d="M219.92,393.37a1,1,0,0,1,0,.25v8.06" />
</svg>