<svg xmlns="http://www.w3.org/2000/svg" viewBox="0 0 432 432">
  <defs>
    <style>.BUNTAI_OTTER_JEWELRY_BUNTAI_OTTER_JEWELRY_29_cls-1{isolation:isolate;}.BUNTAI_OTTER_JEWELRY_BUNTAI_OTTER_JEWELRY_29_cls-2{fill:#c7a858;}.BUNTAI_OTTER_JEWELRY_BUNTAI_OTTER_JEWELRY_29_cls-3,.BUNTAI_OTTER_JEWELRY_BUNTAI_OTTER_JEWELRY_29_cls-4,.BUNTAI_OTTER_JEWELRY_BUNTAI_OTTER_JEWELRY_29_cls-6{fill:none;stroke:#000;stroke-linecap:round;stroke-linejoin:round;}.BUNTAI_OTTER_JEWELRY_BUNTAI_OTTER_JEWELRY_29_cls-3{stroke-width:0.69px;}.BUNTAI_OTTER_JEWELRY_BUNTAI_OTTER_JEWELRY_29_cls-4{stroke-width:0.64px;}.BUNTAI_OTTER_JEWELRY_BUNTAI_OTTER_JEWELRY_29_cls-5{fill:#10b3c7;}.BUNTAI_OTTER_JEWELRY_BUNTAI_OTTER_JEWELRY_29_cls-6{stroke-width:0.73px;}.BUNTAI_OTTER_JEWELRY_BUNTAI_OTTER_JEWELRY_29_cls-7{opacity:0.43;mix-blend-mode:multiply;}</style>
  </defs>
  <g class="BUNTAI_OTTER_JEWELRY_BUNTAI_OTTER_JEWELRY_29_cls-1">
    <g id="jewelry">
      <path class="BUNTAI_OTTER_JEWELRY_BUNTAI_OTTER_JEWELRY_29_cls-2" d="M143.32,153c-1.33,0-1.11-1.82-1.11-1.82h0a3.64,3.64,0,0,0,1.64.35,1.58,1.58,0,0,0,.73-.18C144.58,151.39,144.61,153,143.32,153Z" />
      <path class="BUNTAI_OTTER_JEWELRY_BUNTAI_OTTER_JEWELRY_29_cls-2" d="M145.62,145.76c.49,1.63.39,4.74-1,5.53a1.58,1.58,0,0,1-.73.18,3.64,3.64,0,0,1-1.64-.35c-1.23-.59-1.85-2-1.76-4.08a6.59,6.59,0,0,1,.37-2.06,4.5,4.5,0,0,1,1.2-1.85,1.51,1.51,0,0,1,1.09-.45,1.87,1.87,0,0,1,1.33.78,2.94,2.94,0,0,1-.59.12h0a3.41,3.41,0,0,0-1.49,2.31c-.38,1.79.25,3.79,1.15,3.79s1-2.33,1-3.57h.07A4.08,4.08,0,0,0,145.62,145.76Z" />
      <path class="BUNTAI_OTTER_JEWELRY_BUNTAI_OTTER_JEWELRY_29_cls-2" d="M141.64,137.05c.52-.2,2.68-.38,2.72-.13s-.72,1.29-.66,1.49a7.22,7.22,0,0,0-1.58.9,2.67,2.67,0,0,0-.69,3.16,1.64,1.64,0,0,0,.59.66,4.5,4.5,0,0,0-1.2,1.85A4.79,4.79,0,0,1,141.64,137.05Z" />
      <path class="BUNTAI_OTTER_JEWELRY_BUNTAI_OTTER_JEWELRY_29_cls-2" d="M147.76,142.88a3.85,3.85,0,0,1-2.14,2.88,4.46,4.46,0,0,1-1.12.34h-.07a4,4,0,0,1-2.11-.22,3.38,3.38,0,0,1,1.49-2.31h0a2.94,2.94,0,0,0,.59-.12,1.73,1.73,0,0,0,1.24-1.08,1.35,1.35,0,0,0,.07-.46c0-1.9-.75-2-.75-2s0-.1-.09-.26a2.44,2.44,0,0,1,1.9-1.59A6.47,6.47,0,0,1,147.76,142.88Z" />
      <path class="BUNTAI_OTTER_JEWELRY_BUNTAI_OTTER_JEWELRY_29_cls-3" d="M140.82,145a4.79,4.79,0,0,1,.82-7.93c.48-.23,1.07-.52,3.33,0a2.88,2.88,0,0,0-1.43,1.55,2.46,2.46,0,0,0-1.42.71,2.67,2.67,0,0,0-.69,3.16,1.64,1.64,0,0,0,.59.66" />
      <path class="BUNTAI_OTTER_JEWELRY_BUNTAI_OTTER_JEWELRY_29_cls-3" d="M142.32,145.89a4,4,0,0,0,2.11.22h.07a4.46,4.46,0,0,0,1.12-.34,3.85,3.85,0,0,0,2.14-2.88,6.47,6.47,0,0,0-.95-4.8" />
      <path class="BUNTAI_OTTER_JEWELRY_BUNTAI_OTTER_JEWELRY_29_cls-3" d="M144.91,139.67c.05.16.09.26.09.26s.73.09.75,2a1.35,1.35,0,0,1-.07.46,1.73,1.73,0,0,1-1.24,1.08,2.94,2.94,0,0,1-.59.12" />
      <path class="BUNTAI_OTTER_JEWELRY_BUNTAI_OTTER_JEWELRY_29_cls-3" d="M145.62,145.76c.49,1.63.39,4.74-1,5.53a1.58,1.58,0,0,1-.73.18,3.64,3.64,0,0,1-1.64-.35c-1.23-.59-1.85-2-1.76-4.08a6.59,6.59,0,0,1,.37-2.06,4.5,4.5,0,0,1,1.2-1.85,1.51,1.51,0,0,1,1.09-.45,1.87,1.87,0,0,1,1.33.78" />
      <path class="BUNTAI_OTTER_JEWELRY_BUNTAI_OTTER_JEWELRY_29_cls-3" d="M144.43,146.11c.06,1.24,0,3.57-1,3.57s-1.53-2-1.15-3.79a3.41,3.41,0,0,1,1.49-2.31h0" />
      <path class="BUNTAI_OTTER_JEWELRY_BUNTAI_OTTER_JEWELRY_29_cls-3" d="M142.21,151.13S142,153,143.32,153s1.26-1.56,1.26-1.66h0" />
      <path class="BUNTAI_OTTER_JEWELRY_BUNTAI_OTTER_JEWELRY_29_cls-3" d="M145.05,141.63a2.56,2.56,0,0,1-.28-1.14,2.48,2.48,0,0,1,.14-.82,2.44,2.44,0,0,1,1.9-1.59,1.87,1.87,0,0,1,.42,0,1.66,1.66,0,0,1,1.65,1.23" />
      <line class="BUNTAI_OTTER_JEWELRY_BUNTAI_OTTER_JEWELRY_29_cls-4" x1="143.29" y1="156.73" x2="143.29" y2="152.97" />
      <path class="BUNTAI_OTTER_JEWELRY_BUNTAI_OTTER_JEWELRY_29_cls-2" d="M143.44,167.81a4.74,4.74,0,1,0-4.74-4.74A4.74,4.74,0,0,0,143.44,167.81Zm6.23-4.74a6,6,0,0,1-.15,1.35,5.84,5.84,0,0,1-.9,2.11,6.17,6.17,0,0,1-3.34,2.49,6.21,6.21,0,0,1-1.84.28h0a6.17,6.17,0,0,1-4.06-1.5,6.16,6.16,0,0,1-1.33-1.59,6,6,0,0,1-.76-2.09,6.12,6.12,0,0,1-.09-1.05,6.24,6.24,0,0,1,6.16-6.24h.08A6.23,6.23,0,0,1,149.67,163.07Z" />
      <path class="BUNTAI_OTTER_JEWELRY_BUNTAI_OTTER_JEWELRY_29_cls-5" d="M156.34,170.15a6.47,6.47,0,0,1,.48,2,21.82,21.82,0,0,0-4.66-5.77h0c-.15-.13-.3-.27-.47-.4l.42.07a6.24,6.24,0,0,1,2.9,1.4l-1.16-.3A6.62,6.62,0,0,1,156.34,170.15Z" />
      <path class="BUNTAI_OTTER_JEWELRY_BUNTAI_OTTER_JEWELRY_29_cls-5" d="M156.82,172.18h0c0,.17,0,.35,0,.52a22.56,22.56,0,0,1-2.32-1.87l-.1.1a8.74,8.74,0,0,0-1.37-1.22h0a18,18,0,0,1-.88-3.31A21.82,21.82,0,0,1,156.82,172.18Z" />
      <path class="BUNTAI_OTTER_JEWELRY_BUNTAI_OTTER_JEWELRY_29_cls-5" d="M156.1,175.24a14.7,14.7,0,0,1-.16,3.57c-.16-.15-.31-.3-.48-.44a22.21,22.21,0,0,0-4.76-9.69v-.14a8.87,8.87,0,0,1,2.34,1.18h0a8.74,8.74,0,0,1,1.37,1.22l-1,.06a3.17,3.17,0,0,1,2,1.65A6.4,6.4,0,0,1,156.1,175.24Z" />
      <path class="BUNTAI_OTTER_JEWELRY_BUNTAI_OTTER_JEWELRY_29_cls-5" d="M150.7,168.68a22.21,22.21,0,0,1,4.76,9.69c-.55-.47-1.16-.9-1.73-1.38-.2-.17-.4-.34-.6-.53,0-.36-.08-.71-.14-1.06a3.84,3.84,0,0,0-1.83-2.66l.89,0a6.89,6.89,0,0,0-1.37-1.53C150.69,170.35,150.69,169.51,150.7,168.68Z" />
      <path class="BUNTAI_OTTER_JEWELRY_BUNTAI_OTTER_JEWELRY_29_cls-5" d="M153.13,176.46a14.57,14.57,0,0,1-.27,4.56,28.05,28.05,0,0,0-4.36-11.11h0a7.36,7.36,0,0,1,2.18,1.28,6.89,6.89,0,0,1,1.37,1.53l-.89,0A3.84,3.84,0,0,1,153,175.4C153.05,175.75,153.1,176.1,153.13,176.46Z" />
      <path class="BUNTAI_OTTER_JEWELRY_BUNTAI_OTTER_JEWELRY_29_cls-5" d="M152.86,181h0a14.16,14.16,0,0,1-.38,1.42,16.49,16.49,0,0,0-2.65-3.56,4.89,4.89,0,0,0-.58-1.84,14.36,14.36,0,0,0-1.52-2.2c.27,0,.5.1.75.15l.33.05c-.14-.26-.28-.52-.43-.77a14.23,14.23,0,0,1,.12-4.37A28.05,28.05,0,0,1,152.86,181Z" />
      <path class="BUNTAI_OTTER_JEWELRY_BUNTAI_OTTER_JEWELRY_29_cls-5" d="M148.38,174.28c.15.25.29.51.43.77l-.33-.05c-.25-.05-.48-.11-.75-.15a14.36,14.36,0,0,1,1.52,2.2,4.89,4.89,0,0,1,.58,1.84,9.63,9.63,0,0,1-1.89,6.15,43.31,43.31,0,0,0-1.89-13.75l0-.06A17.55,17.55,0,0,1,148.38,174.28Z" />
      <path class="BUNTAI_OTTER_JEWELRY_BUNTAI_OTTER_JEWELRY_29_cls-5" d="M146.17,180.86a21.65,21.65,0,0,1-.58-6.21,1.89,1.89,0,0,0-.21.09,9.44,9.44,0,0,0-.24-1.41c.17-.39.36-.75.54-1.14a6.53,6.53,0,0,0,.37-.9A43.31,43.31,0,0,1,147.94,185c-.18.27-.36.53-.55.78A38.14,38.14,0,0,0,146.17,180.86Z" />
      <path class="BUNTAI_OTTER_JEWELRY_BUNTAI_OTTER_JEWELRY_29_cls-5" d="M145.38,174.74c.07.72.07,1.47.07,2.19a3.15,3.15,0,0,0-1.64,0,6.32,6.32,0,0,1,1.33,1.2,19.45,19.45,0,0,1-1.93,8.17,8.6,8.6,0,0,1-1.77-3.45,17.54,17.54,0,0,1-.21-5.27c.31-.37.69-.8,1-1.16l-1-.51c0-.35,0-.71,0-1.07a4.5,4.5,0,0,1,.09-1.11,2,2,0,0,1,.2-.47,16.25,16.25,0,0,1,1.84-2.44l.17-.18a5,5,0,0,1,1.11,1.42,5.57,5.57,0,0,1,.47,1.23A9.44,9.44,0,0,1,145.38,174.74Z" />
      <path class="BUNTAI_OTTER_JEWELRY_BUNTAI_OTTER_JEWELRY_29_cls-5" d="M138.38,185a42.89,42.89,0,0,1,1.89-13.74,8,8,0,0,0,.36.9,14.82,14.82,0,0,1,.72,1.58,4.5,4.5,0,0,0-.09,1.11c-.18-.08-.36-.17-.53-.23a21.31,21.31,0,0,1-.59,6.21,39.76,39.76,0,0,0-1.21,5c-.19-.25-.38-.51-.55-.78h0Z" />
      <path class="BUNTAI_OTTER_JEWELRY_BUNTAI_OTTER_JEWELRY_29_cls-5" d="M140.27,171.29A42.89,42.89,0,0,0,138.38,185a9.63,9.63,0,0,1-1.9-6.14,4.94,4.94,0,0,1,.58-1.84,15.17,15.17,0,0,1,1.53-2.2c-.39.06-.7.15-1.08.2.13-.26.28-.52.43-.77a17.12,17.12,0,0,1,2.31-3.05A.14.14,0,0,0,140.27,171.29Z" />
      <path class="BUNTAI_OTTER_JEWELRY_BUNTAI_OTTER_JEWELRY_29_cls-5" d="M137.82,169.91a14.55,14.55,0,0,1,.12,4.37c-.15.25-.3.51-.43.77.38-.05.69-.14,1.08-.2a15.17,15.17,0,0,0-1.53,2.2,4.94,4.94,0,0,0-.58,1.84,16.12,16.12,0,0,0-2.64,3.56,14.35,14.35,0,0,1-.38-1.43A28.05,28.05,0,0,1,137.82,169.91Z" />
      <path class="BUNTAI_OTTER_JEWELRY_BUNTAI_OTTER_JEWELRY_29_cls-5" d="M137.82,169.91A28.05,28.05,0,0,0,133.46,181a14.57,14.57,0,0,1-.28-4.56c0-.36.08-.71.15-1.06a3.9,3.9,0,0,1,1.83-2.66l-.89,0a7.1,7.1,0,0,1,1.36-1.53,7.54,7.54,0,0,1,2.19-1.28h0Z" />
      <path class="BUNTAI_OTTER_JEWELRY_BUNTAI_OTTER_JEWELRY_29_cls-5" d="M135.16,172.74a3.9,3.9,0,0,0-1.83,2.66c-.07.35-.11.7-.15,1.06a7.57,7.57,0,0,1-.6.53c-.56.48-1.17.91-1.73,1.38a22.34,22.34,0,0,1,4.77-9.69c0,.83,0,1.67,0,2.5a7.1,7.1,0,0,0-1.36,1.53Z" />
      <path class="BUNTAI_OTTER_JEWELRY_BUNTAI_OTTER_JEWELRY_29_cls-5" d="M135.62,168.68a22.34,22.34,0,0,0-4.77,9.69l-.47.44a14.7,14.7,0,0,1-.16-3.57,6.4,6.4,0,0,1,.66-2.59,3.14,3.14,0,0,1,2-1.65l-1-.06,0,0a7.86,7.86,0,0,1,1.33-1.18,8.93,8.93,0,0,1,2.35-1.18Z" />
      <path class="BUNTAI_OTTER_JEWELRY_BUNTAI_OTTER_JEWELRY_29_cls-5" d="M134.15,166.41a15.85,15.85,0,0,1-.88,3.31,7.86,7.86,0,0,0-1.33,1.18l-.11-.1a22.9,22.9,0,0,1-2.34,1.91v-.13c0-.13,0-.26,0-.39A21.83,21.83,0,0,1,134.15,166.41Z" />
      <path class="BUNTAI_OTTER_JEWELRY_BUNTAI_OTTER_JEWELRY_29_cls-5" d="M134.15,166.41a21.83,21.83,0,0,0-4.65,5.78,6.49,6.49,0,0,1,3-5c-.38.11-.77.2-1.15.3a6.15,6.15,0,0,1,2.9-1.4l.41-.07-.47.4Z" />
      <path class="BUNTAI_OTTER_JEWELRY_BUNTAI_OTTER_JEWELRY_29_cls-6" d="M143.36,156.83h.08a6.23,6.23,0,0,1,6.23,6.24,6,6,0,0,1-.15,1.35,5.84,5.84,0,0,1-.9,2.11,6.17,6.17,0,0,1-3.34,2.49,6.21,6.21,0,0,1-1.84.28h0a6.17,6.17,0,0,1-4.06-1.5,6.16,6.16,0,0,1-1.33-1.59,6,6,0,0,1-.76-2.09,6.12,6.12,0,0,1-.09-1.05A6.24,6.24,0,0,1,143.36,156.83Z" />
      <circle class="BUNTAI_OTTER_JEWELRY_BUNTAI_OTTER_JEWELRY_29_cls-6" cx="143.44" cy="163.07" r="4.74" />
      <path class="BUNTAI_OTTER_JEWELRY_BUNTAI_OTTER_JEWELRY_29_cls-6" d="M143.44,169.3c0,.42,0,.83,0,1.24,0,.11,0,.21,0,.32q-.21,6.3-.43,12.58" />
      <path class="BUNTAI_OTTER_JEWELRY_BUNTAI_OTTER_JEWELRY_29_cls-6" d="M143.56,170.68l-.16-.14" />
      <path class="BUNTAI_OTTER_JEWELRY_BUNTAI_OTTER_JEWELRY_29_cls-6" d="M143.39,170.86l.17-.18a5,5,0,0,1,1.11,1.42,5.57,5.57,0,0,1,.47,1.23,9.44,9.44,0,0,1,.24,1.41c.07.72.07,1.47.07,2.19a3.15,3.15,0,0,0-1.64,0,6.32,6.32,0,0,1,1.33,1.2,19.45,19.45,0,0,1-1.93,8.17,8.6,8.6,0,0,1-1.77-3.45,17.54,17.54,0,0,1-.21-5.27c.31-.37.69-.8,1-1.16l-1-.51c0-.35,0-.71,0-1.07a4.5,4.5,0,0,1,.09-1.11,2,2,0,0,1,.2-.47,16.25,16.25,0,0,1,1.84-2.44" />
      <path class="BUNTAI_OTTER_JEWELRY_BUNTAI_OTTER_JEWELRY_29_cls-6" d="M141.1,168.85c-.28.76-.55,1.53-.79,2.32a.56.56,0,0,0,0,.12A42.89,42.89,0,0,0,138.38,185h0" />
      <path class="BUNTAI_OTTER_JEWELRY_BUNTAI_OTTER_JEWELRY_29_cls-6" d="M140.31,171.17l-.06.06a17.12,17.12,0,0,0-2.31,3.05c-.15.25-.3.51-.43.77.38-.05.69-.14,1.08-.2a15.17,15.17,0,0,0-1.53,2.2,4.94,4.94,0,0,0-.58,1.84,9.63,9.63,0,0,0,1.9,6.14h0c.17.27.36.53.55.78" />
      <path class="BUNTAI_OTTER_JEWELRY_BUNTAI_OTTER_JEWELRY_29_cls-6" d="M138.93,185.82a39.76,39.76,0,0,1,1.21-5,21.31,21.31,0,0,0,.59-6.21c.17.06.35.15.53.23" />
      <path class="BUNTAI_OTTER_JEWELRY_BUNTAI_OTTER_JEWELRY_29_cls-6" d="M141.35,173.77a14.82,14.82,0,0,0-.72-1.58,8,8,0,0,1-.36-.9.14.14,0,0,1,0-.06" />
      <path class="BUNTAI_OTTER_JEWELRY_BUNTAI_OTTER_JEWELRY_29_cls-6" d="M137.82,169.91A28.05,28.05,0,0,0,133.46,181" />
      <path class="BUNTAI_OTTER_JEWELRY_BUNTAI_OTTER_JEWELRY_29_cls-6" d="M139.38,167.8c-.55.67-1.06,1.37-1.55,2.1h0" />
      <path class="BUNTAI_OTTER_JEWELRY_BUNTAI_OTTER_JEWELRY_29_cls-6" d="M137.83,169.9h0a7.54,7.54,0,0,0-2.19,1.28,7.1,7.1,0,0,0-1.36,1.53l.89,0a3.9,3.9,0,0,0-1.83,2.66c-.07.35-.11.7-.15,1.06a14.57,14.57,0,0,0,.28,4.56,14.35,14.35,0,0,0,.38,1.43" />
      <path class="BUNTAI_OTTER_JEWELRY_BUNTAI_OTTER_JEWELRY_29_cls-6" d="M137.94,174.28a14.55,14.55,0,0,0-.12-4.37h0" />
      <path class="BUNTAI_OTTER_JEWELRY_BUNTAI_OTTER_JEWELRY_29_cls-6" d="M136.48,178.89a16.12,16.12,0,0,0-2.64,3.56" />
      <path class="BUNTAI_OTTER_JEWELRY_BUNTAI_OTTER_JEWELRY_29_cls-6" d="M130.85,178.37a22.34,22.34,0,0,1,4.77-9.69l.15-.18a23.47,23.47,0,0,1,2.28-2.29" />
      <path class="BUNTAI_OTTER_JEWELRY_BUNTAI_OTTER_JEWELRY_29_cls-6" d="M130.38,178.81a14.7,14.7,0,0,1-.16-3.57,6.4,6.4,0,0,1,.66-2.59,3.14,3.14,0,0,1,2-1.65l-1-.06,0,0a7.86,7.86,0,0,1,1.33-1.18,8.93,8.93,0,0,1,2.35-1.18l.15,0" />
      <path class="BUNTAI_OTTER_JEWELRY_BUNTAI_OTTER_JEWELRY_29_cls-6" d="M135.62,168.54v.14c0,.83,0,1.67,0,2.5" />
      <path class="BUNTAI_OTTER_JEWELRY_BUNTAI_OTTER_JEWELRY_29_cls-6" d="M134.15,166.41l.47-.4a22.26,22.26,0,0,1,2.67-1.89" />
      <path class="BUNTAI_OTTER_JEWELRY_BUNTAI_OTTER_JEWELRY_29_cls-6" d="M129.5,172.19a21.83,21.83,0,0,1,4.65-5.78" />
      <path class="BUNTAI_OTTER_JEWELRY_BUNTAI_OTTER_JEWELRY_29_cls-6" d="M134.62,166l-.41.07a6.15,6.15,0,0,0-2.9,1.4c.38-.1.77-.19,1.15-.3a6.49,6.49,0,0,0-3,5c0,.13,0,.26,0,.39v.13" />
      <path class="BUNTAI_OTTER_JEWELRY_BUNTAI_OTTER_JEWELRY_29_cls-6" d="M132.4,170a3.43,3.43,0,0,1-.57.8,22.9,22.9,0,0,1-2.34,1.91h0" />
      <path class="BUNTAI_OTTER_JEWELRY_BUNTAI_OTTER_JEWELRY_29_cls-6" d="M134.15,166.41h0a15.85,15.85,0,0,1-.88,3.31" />
      <path class="BUNTAI_OTTER_JEWELRY_BUNTAI_OTTER_JEWELRY_29_cls-6" d="M133.18,176.46a7.57,7.57,0,0,1-.6.53c-.56.48-1.17.91-1.73,1.38l-.47.44" />
      <path class="BUNTAI_OTTER_JEWELRY_BUNTAI_OTTER_JEWELRY_29_cls-6" d="M147.94,185a43.31,43.31,0,0,0-1.89-13.75.56.56,0,0,0,0-.12c-.22-.72-.46-1.44-.73-2.15" />
      <path class="BUNTAI_OTTER_JEWELRY_BUNTAI_OTTER_JEWELRY_29_cls-6" d="M146,171.17l.07.06a17.55,17.55,0,0,1,2.3,3.05c.15.25.29.51.43.77l-.33-.05c-.25-.05-.48-.11-.75-.15a14.36,14.36,0,0,1,1.52,2.2,4.89,4.89,0,0,1,.58,1.84,9.63,9.63,0,0,1-1.89,6.15c-.18.27-.36.53-.55.78" />
      <path class="BUNTAI_OTTER_JEWELRY_BUNTAI_OTTER_JEWELRY_29_cls-6" d="M145.38,174.74a1.89,1.89,0,0,1,.21-.09,21.65,21.65,0,0,0,.58,6.21,38.14,38.14,0,0,1,1.22,5" />
      <path class="BUNTAI_OTTER_JEWELRY_BUNTAI_OTTER_JEWELRY_29_cls-6" d="M145.14,173.33c.17-.39.36-.75.54-1.14a6.53,6.53,0,0,0,.37-.9l0-.06" />
      <path class="BUNTAI_OTTER_JEWELRY_BUNTAI_OTTER_JEWELRY_29_cls-6" d="M148.5,169.91h0c-.42-.63-.87-1.24-1.33-1.83" />
      <path class="BUNTAI_OTTER_JEWELRY_BUNTAI_OTTER_JEWELRY_29_cls-6" d="M152.86,181a28.05,28.05,0,0,0-4.36-11.11" />
      <path class="BUNTAI_OTTER_JEWELRY_BUNTAI_OTTER_JEWELRY_29_cls-6" d="M152.48,182.45a14.16,14.16,0,0,0,.38-1.42h0a14.57,14.57,0,0,0,.27-4.56c0-.36-.08-.71-.14-1.06a3.84,3.84,0,0,0-1.83-2.66l.89,0a6.89,6.89,0,0,0-1.37-1.53,7.36,7.36,0,0,0-2.18-1.28h0" />
      <path class="BUNTAI_OTTER_JEWELRY_BUNTAI_OTTER_JEWELRY_29_cls-6" d="M148.38,174.28a14.23,14.23,0,0,1,.12-4.37h0" />
      <path class="BUNTAI_OTTER_JEWELRY_BUNTAI_OTTER_JEWELRY_29_cls-6" d="M152.48,182.45a16.49,16.49,0,0,0-2.65-3.56" />
      <path class="BUNTAI_OTTER_JEWELRY_BUNTAI_OTTER_JEWELRY_29_cls-6" d="M148.62,166.53a19.94,19.94,0,0,1,1.93,2l.15.18a22.21,22.21,0,0,1,4.76,9.69" />
      <path class="BUNTAI_OTTER_JEWELRY_BUNTAI_OTTER_JEWELRY_29_cls-6" d="M153.05,169.72a8.74,8.74,0,0,1,1.37,1.22l-1,.06a3.17,3.17,0,0,1,2,1.65,6.4,6.4,0,0,1,.66,2.59,14.7,14.7,0,0,1-.16,3.57" />
      <path class="BUNTAI_OTTER_JEWELRY_BUNTAI_OTTER_JEWELRY_29_cls-6" d="M150.55,168.5l.15,0a8.87,8.87,0,0,1,2.34,1.18" />
      <path class="BUNTAI_OTTER_JEWELRY_BUNTAI_OTTER_JEWELRY_29_cls-6" d="M150.7,168.54v.14c0,.83,0,1.67,0,2.5" />
      <path class="BUNTAI_OTTER_JEWELRY_BUNTAI_OTTER_JEWELRY_29_cls-6" d="M152.16,166.41a21.82,21.82,0,0,1,4.66,5.77" />
      <path class="BUNTAI_OTTER_JEWELRY_BUNTAI_OTTER_JEWELRY_29_cls-6" d="M149.52,164.42a18.88,18.88,0,0,1,2.17,1.59c.17.13.32.27.47.4" />
      <path class="BUNTAI_OTTER_JEWELRY_BUNTAI_OTTER_JEWELRY_29_cls-6" d="M151.69,166l.42.07a6.24,6.24,0,0,1,2.9,1.4l-1.16-.3a6.62,6.62,0,0,1,2.49,3,6.47,6.47,0,0,1,.48,2h0c0,.17,0,.35,0,.52" />
      <path class="BUNTAI_OTTER_JEWELRY_BUNTAI_OTTER_JEWELRY_29_cls-6" d="M153.92,170a3.79,3.79,0,0,0,.6.84,22.56,22.56,0,0,0,2.32,1.87h0" />
      <path class="BUNTAI_OTTER_JEWELRY_BUNTAI_OTTER_JEWELRY_29_cls-6" d="M152.16,166.41h0a18,18,0,0,0,.88,3.31h0" />
      <path class="BUNTAI_OTTER_JEWELRY_BUNTAI_OTTER_JEWELRY_29_cls-6" d="M153.13,176.46c.2.19.4.36.6.53.57.48,1.18.91,1.73,1.38.17.14.32.29.48.44" />
      <g class="BUNTAI_OTTER_JEWELRY_BUNTAI_OTTER_JEWELRY_29_cls-7">
        <path d="M134,166.21a3.12,3.12,0,0,0-2.59,1.59,7.28,7.28,0,0,0-1.69,4.7c1.12-.84,1.65-1.27,1.65-1.27a20,20,0,0,1,1.5-3.16,16.92,16.92,0,0,1-.85,3.62s-2.54,3.11-1.46,6.68c1.32-2.77,3.12-7.14,3.12-7.14a48.45,48.45,0,0,0-.62,5.14c0,1.32.07,4,.94,5.47,1.37-1.73,2-2.64,2-2.64s.52-.39.76-2.83.63-4.66.63-4.66l-1.94,5.08,1-5.84,1.35-.34s-.07,4.07-.12,6.21.47,6.93,1.42,8.51c1-4.47,1.57-7.53,1.67-7.93s.69,1.49.69,1.49.28,5.54,1.71,6.93c.35-5.91.93-10.72,1.06-11.56a7,7,0,0,0-.58-2.57l-.28-.33s-.28,5-.2,8.16c-.84-6.14-1-7.23-1-7.23l-.71,1.39-1.26-1.7a71.31,71.31,0,0,0-1.12,8.26l-.21-7.41-1,.5s.36-3.15,0-3.33a5.59,5.59,0,0,0-2.17,1.06l-.3-2-2,.2Z" />
        <path d="M139.39,158.33a6.26,6.26,0,0,0-1.91,6.57c1.18,4.18,7.42,6.36,10.78,2.11-1.95,1.19-6.54,2.83-9.18-.8S139.39,158.33,139.39,158.33Z" />
      </g>
    </g>
  </g>
</svg>