<svg id="jewelry" xmlns="http://www.w3.org/2000/svg" viewBox="0 0 432 432">
  <defs>
    <style>.BUNTAI_OTTER_JEWELRY_BUNTAI_OTTER_JEWELRY_3_cls-1{fill:#754c24;stroke-miterlimit:10;stroke-width:1.52px;}.BUNTAI_OTTER_JEWELRY_BUNTAI_OTTER_JEWELRY_3_cls-1,.BUNTAI_OTTER_JEWELRY_BUNTAI_OTTER_JEWELRY_3_cls-4,.BUNTAI_OTTER_JEWELRY_BUNTAI_OTTER_JEWELRY_3_cls-5,.BUNTAI_OTTER_JEWELRY_BUNTAI_OTTER_JEWELRY_3_cls-7{stroke:#000;}.BUNTAI_OTTER_JEWELRY_BUNTAI_OTTER_JEWELRY_3_cls-2{fill:#22b573;}.BUNTAI_OTTER_JEWELRY_BUNTAI_OTTER_JEWELRY_3_cls-3{fill:#c7a858;}.BUNTAI_OTTER_JEWELRY_BUNTAI_OTTER_JEWELRY_3_cls-4,.BUNTAI_OTTER_JEWELRY_BUNTAI_OTTER_JEWELRY_3_cls-5,.BUNTAI_OTTER_JEWELRY_BUNTAI_OTTER_JEWELRY_3_cls-7{fill:none;stroke-linecap:round;stroke-linejoin:round;}.BUNTAI_OTTER_JEWELRY_BUNTAI_OTTER_JEWELRY_3_cls-4{stroke-width:0.94px;}.BUNTAI_OTTER_JEWELRY_BUNTAI_OTTER_JEWELRY_3_cls-5{stroke-width:0.57px;}.BUNTAI_OTTER_JEWELRY_BUNTAI_OTTER_JEWELRY_3_cls-6{fill:#39b54a;}.BUNTAI_OTTER_JEWELRY_BUNTAI_OTTER_JEWELRY_3_cls-7{stroke-width:0.88px;}</style>
  </defs>
  <path class="BUNTAI_OTTER_JEWELRY_BUNTAI_OTTER_JEWELRY_3_cls-1" d="M217.51,364.87l-.11,0-.7.23-.6.18-.56.17h0l-.07,0-.41.13a2.63,2.63,0,0,1-.39.06h-.24l-.24,0-.08,0H214l-.57-.12-1.22-.26c-.25-.05-.5-.1-.72-.16s-.53-.11-.66-.15l-.13,0c-1.26-.28-2.5-.58-3.72-.91-39.38-10.12-59.47-34.13-69.48-53-3-5.64-6.07-9.68-7.8-14.76a.31.31,0,0,1,0-.07c-.12-.46-1-3.83,1.73-4.77,3-1,4.57.33,4.57.33-.73.88-1.34,1.34-3.06,3.14,1.74,5.15,4.38,9.4,7.44,15.17,9.63,18.15,28.85,41.14,66.16,51.19h0c1.76.46,3.53.91,5.37,1.32l2.55.55,1.12-.34Z" />
  <path class="BUNTAI_OTTER_JEWELRY_BUNTAI_OTTER_JEWELRY_3_cls-1" d="M300.5,292.64l-.35.86c-.64,1.46-1.33,2.95-2.08,4.45-9.13,18.31-34.6,51.43-76.12,65.47l-4.44,1.45-.11,0-.7.23c-.37.11-.82.25-1.2.35l-.07,0c-.33.09-.62.16-.8.19h-.24l-.32-.05H214c-.67-.13-1.77-.37-2.51-.54l-.79-.18-.13-2.68,1.33.29,2.55.55,1.12-.34,4.89-1.56c40.78-13.71,65.85-46.31,74.77-64.21a19.84,19.84,0,0,0,1.63-4.31,20.81,20.81,0,0,0-1.95-1.41c1.66-3.15,4.35-2.21,5.5-.92C301.08,291.1,300.52,292.45,300.5,292.64Z" />
  <path class="BUNTAI_OTTER_JEWELRY_BUNTAI_OTTER_JEWELRY_3_cls-2" d="M234,373.44c1.89,4.33-2.54,9.65-9.89,11.88s-14.84.52-16.72-3.81v0c-1.86-4.32,2.57-9.62,9.9-11.84s14.78-.54,16.7,3.76h0Z" />
  <path class="BUNTAI_OTTER_JEWELRY_BUNTAI_OTTER_JEWELRY_3_cls-3" d="M233.52,371.67a5,5,0,0,1,.41,1.73c-1.92-4.3-9.38-6-16.7-3.76s-11.76,7.52-9.9,11.84a6,6,0,0,1-1-1.56c-1.36-3.11.62-6.75,4.62-9.39a20.85,20.85,0,0,1,4.95-2.37l.62-.2a23.91,23.91,0,0,1,6.93-1C228.23,367,232.23,368.7,233.52,371.67Z" />
  <path class="BUNTAI_OTTER_JEWELRY_BUNTAI_OTTER_JEWELRY_3_cls-3" d="M213,356.31a3.13,3.13,0,0,0-2.09,4.25,3.93,3.93,0,0,0,.34.81,56.52,56.52,0,0,0,4.65,6.79,20.85,20.85,0,0,0-4.95,2.37c-1.29-1.58-5-6.5-4.37-9.66S210.26,356.27,213,356.31Z" />
  <path class="BUNTAI_OTTER_JEWELRY_BUNTAI_OTTER_JEWELRY_3_cls-3" d="M220.44,361.17q-2.4.79-4.89,1.56a5.38,5.38,0,0,0-4.32-1.36,4.91,4.91,0,0,1-.34-.81,3.13,3.13,0,0,1,2.09-4.25,6.44,6.44,0,0,1,1.72.24l.28.09.24.1.06,0a6,6,0,0,1,.87.45h0a3.14,3.14,0,0,1,.31.18,16.15,16.15,0,0,1,3.5,3.19l.3.37Z" />
  <path class="BUNTAI_OTTER_JEWELRY_BUNTAI_OTTER_JEWELRY_3_cls-3" d="M223.43,366.94a22.76,22.76,0,0,0-4.43.41,16.46,16.46,0,0,0-1.48-2.48c1.5-.46,3-.95,4.43-1.44A14.9,14.9,0,0,1,223.43,366.94Z" />
  <path class="BUNTAI_OTTER_JEWELRY_BUNTAI_OTTER_JEWELRY_3_cls-4" d="M233.93,373.4l0,0c1.89,4.33-2.54,9.65-9.89,11.88s-14.84.52-16.72-3.81v0c-1.86-4.32,2.57-9.62,9.9-11.84s14.78-.54,16.7,3.76" />
  <path class="BUNTAI_OTTER_JEWELRY_BUNTAI_OTTER_JEWELRY_3_cls-4" d="M233.93,373.4h0a5,5,0,0,0-.41-1.73c-1.29-3-5.29-4.68-10.09-4.73a23.91,23.91,0,0,0-6.93,1l-.62.2a20.85,20.85,0,0,0-4.95,2.37c-4,2.64-6,6.28-4.62,9.39a6,6,0,0,0,1,1.56" />
  <path class="BUNTAI_OTTER_JEWELRY_BUNTAI_OTTER_JEWELRY_3_cls-4" d="M213,356.31a6.44,6.44,0,0,1,1.72.24l.28.09.24.1.06,0,.21.09c.21.11.44.22.66.36h0a3.14,3.14,0,0,1,.31.18,16.15,16.15,0,0,1,3.5,3.19l.3.37.17.21" />
  <path class="BUNTAI_OTTER_JEWELRY_BUNTAI_OTTER_JEWELRY_3_cls-4" d="M219,367.35a16.46,16.46,0,0,0-1.48-2.48l4.43-1.44a14.9,14.9,0,0,1,1.48,3.51" />
  <path class="BUNTAI_OTTER_JEWELRY_BUNTAI_OTTER_JEWELRY_3_cls-4" d="M210.93,370.53c-1.29-1.58-5-6.5-4.37-9.66s3.7-4.6,6.42-4.56" />
  <path class="BUNTAI_OTTER_JEWELRY_BUNTAI_OTTER_JEWELRY_3_cls-4" d="M215.88,368.16a56.52,56.52,0,0,1-4.65-6.79,3.93,3.93,0,0,1-.34-.81,3.13,3.13,0,0,1,2.09-4.25h0" />
  <path class="BUNTAI_OTTER_JEWELRY_BUNTAI_OTTER_JEWELRY_3_cls-4" d="M211.23,361.37a5.38,5.38,0,0,1,4.32,1.36" />
  <path class="BUNTAI_OTTER_JEWELRY_BUNTAI_OTTER_JEWELRY_3_cls-4" d="M209.76,377.33s3.69,1.4,9.76-.69,6.66-5.13,6.66-5.13" />
  <path class="BUNTAI_OTTER_JEWELRY_BUNTAI_OTTER_JEWELRY_3_cls-4" d="M223,370.53a9.13,9.13,0,0,1-2.82,5.88" />
  <path class="BUNTAI_OTTER_JEWELRY_BUNTAI_OTTER_JEWELRY_3_cls-4" d="M220.15,372s.88,2.48-3.15,5.37" />
  <path class="BUNTAI_OTTER_JEWELRY_BUNTAI_OTTER_JEWELRY_3_cls-4" d="M215.36,377.63a6.3,6.3,0,0,0,2.61-4.16" />
  <path class="BUNTAI_OTTER_JEWELRY_BUNTAI_OTTER_JEWELRY_3_cls-4" d="M218.31,377s-3.71,3.75-5.73,3.66,0-2.15,1-2.1.35,1.05-.07,1.2" />
  <path class="BUNTAI_OTTER_JEWELRY_BUNTAI_OTTER_JEWELRY_3_cls-4" d="M212.9,382.89a23.42,23.42,0,0,1,6.59-4A35.09,35.09,0,0,1,229,377" />
  <path class="BUNTAI_OTTER_JEWELRY_BUNTAI_OTTER_JEWELRY_3_cls-4" d="M220.64,382.4a4.39,4.39,0,0,0-4.1-2.13" />
  <path class="BUNTAI_OTTER_JEWELRY_BUNTAI_OTTER_JEWELRY_3_cls-4" d="M218.31,379.33s3.85,1.26,4.62,3.68" />
  <path class="BUNTAI_OTTER_JEWELRY_BUNTAI_OTTER_JEWELRY_3_cls-4" d="M220.45,378.52s3.36,1.58,3.88,3.21" />
  <path class="BUNTAI_OTTER_JEWELRY_BUNTAI_OTTER_JEWELRY_3_cls-4" d="M223.83,377.67s3.68.77,4.38,2.28" />
  <path class="BUNTAI_OTTER_JEWELRY_BUNTAI_OTTER_JEWELRY_3_cls-4" d="M214.13,373.7s-.21,1.66,1,1.85l1.24.18S216.7,374.14,214.13,373.7Z" />
  <path class="BUNTAI_OTTER_JEWELRY_BUNTAI_OTTER_JEWELRY_3_cls-4" d="M218.73,371.11s-1.2.84-.62,1.51l.57.66S219.89,372.52,218.73,371.11Z" />
  <path class="BUNTAI_OTTER_JEWELRY_BUNTAI_OTTER_JEWELRY_3_cls-4" d="M223.62,376.53a3.93,3.93,0,0,1,3.28-1.6C226,376.39,225.68,376.3,223.62,376.53Z" />
  <path class="BUNTAI_OTTER_JEWELRY_BUNTAI_OTTER_JEWELRY_3_cls-4" d="M228.14,374.72a2.63,2.63,0,0,1,3.33-1.14C230.54,374.73,229.53,374.77,228.14,374.72Z" />
  <path class="BUNTAI_OTTER_JEWELRY_BUNTAI_OTTER_JEWELRY_3_cls-4" d="M226.55,374.07s.17-2.41,1.69-2.93A2.39,2.39,0,0,1,226.55,374.07Z" />
  <path class="BUNTAI_OTTER_JEWELRY_BUNTAI_OTTER_JEWELRY_3_cls-4" d="M227.33,376a3.14,3.14,0,0,1,3.49,0A3.41,3.41,0,0,1,227.33,376Z" />
  <path class="BUNTAI_OTTER_JEWELRY_BUNTAI_OTTER_JEWELRY_3_cls-4" d="M227.75,378.35s.28,1.19,2.78,1C229.93,378.48,229.91,378.16,227.75,378.35Z" />
  <path class="BUNTAI_OTTER_JEWELRY_BUNTAI_OTTER_JEWELRY_3_cls-4" d="M224.07,379a3,3,0,0,1,2.11.76,3.71,3.71,0,0,1,.94,1.88S224.23,381.09,224.07,379Z" />
  <path class="BUNTAI_OTTER_JEWELRY_BUNTAI_OTTER_JEWELRY_3_cls-4" d="M221.3,383a1.12,1.12,0,0,0,.37,1.6A1.17,1.17,0,0,0,221.3,383Z" />
  <path class="BUNTAI_OTTER_JEWELRY_BUNTAI_OTTER_JEWELRY_3_cls-3" d="M144.72,150.84c-1.1,0-.92-1.51-.92-1.51h0a3,3,0,0,0,1.36.29,1.27,1.27,0,0,0,.6-.15C145.77,149.56,145.79,150.84,144.72,150.84Z" />
  <path class="BUNTAI_OTTER_JEWELRY_BUNTAI_OTTER_JEWELRY_3_cls-3" d="M146.62,144.89c.41,1.35.32,3.93-.86,4.58a1.27,1.27,0,0,1-.6.15,3,3,0,0,1-1.36-.29c-1-.49-1.53-1.64-1.46-3.38a5.59,5.59,0,0,1,.32-1.7,3.46,3.46,0,0,1,1-1.53,1.26,1.26,0,0,1,.91-.38,1.51,1.51,0,0,1,1.09.65,1.94,1.94,0,0,1-.48.09h0a2.82,2.82,0,0,0-1.24,1.91c-.31,1.48.21,3.14,1,3.14s.84-1.93.79-3h.06A3.2,3.2,0,0,0,146.62,144.89Z" />
  <path class="BUNTAI_OTTER_JEWELRY_BUNTAI_OTTER_JEWELRY_3_cls-3" d="M143.33,137.68c.43-.17,2.22-.31,2.25-.11s-.59,1.07-.55,1.24a5.84,5.84,0,0,0-1.3.74,2.23,2.23,0,0,0-.58,2.62,1.53,1.53,0,0,0,.49.55,3.46,3.46,0,0,0-1,1.53A4,4,0,0,1,143.33,137.68Z" />
  <path class="BUNTAI_OTTER_JEWELRY_BUNTAI_OTTER_JEWELRY_3_cls-3" d="M148.4,142.51a3.2,3.2,0,0,1-1.78,2.38,3.1,3.1,0,0,1-.92.28h-.06a3.42,3.42,0,0,1-1.75-.18,2.79,2.79,0,0,1,1.24-1.91h0a2.11,2.11,0,0,0,.49-.09,1.46,1.46,0,0,0,1-.89,1.23,1.23,0,0,0,.06-.39c0-1.57-.62-1.64-.62-1.64l-.07-.22a2,2,0,0,1,1.57-1.32A5.36,5.36,0,0,1,148.4,142.51Z" />
  <path class="BUNTAI_OTTER_JEWELRY_BUNTAI_OTTER_JEWELRY_3_cls-5" d="M142.66,144.25a4,4,0,0,1,.67-6.57c.4-.19.88-.43,2.75,0A2.38,2.38,0,0,0,144.9,139a2.11,2.11,0,0,0-1.17.59,2.23,2.23,0,0,0-.58,2.62,1.53,1.53,0,0,0,.49.55" />
  <path class="BUNTAI_OTTER_JEWELRY_BUNTAI_OTTER_JEWELRY_3_cls-5" d="M143.89,145a3.42,3.42,0,0,0,1.75.18h.06a3.1,3.1,0,0,0,.92-.28,3.2,3.2,0,0,0,1.78-2.38,5.36,5.36,0,0,0-.79-4" />
  <path class="BUNTAI_OTTER_JEWELRY_BUNTAI_OTTER_JEWELRY_3_cls-5" d="M146,139.85l.07.22s.6.07.62,1.64a1.23,1.23,0,0,1-.06.39,1.46,1.46,0,0,1-1,.89,2.11,2.11,0,0,1-.49.09" />
  <path class="BUNTAI_OTTER_JEWELRY_BUNTAI_OTTER_JEWELRY_3_cls-5" d="M146.62,144.89c.41,1.35.32,3.93-.86,4.58a1.27,1.27,0,0,1-.6.15,3,3,0,0,1-1.36-.29c-1-.49-1.53-1.64-1.46-3.38a5.59,5.59,0,0,1,.32-1.7,3.46,3.46,0,0,1,1-1.53,1.26,1.26,0,0,1,.91-.38,1.51,1.51,0,0,1,1.09.65" />
  <path class="BUNTAI_OTTER_JEWELRY_BUNTAI_OTTER_JEWELRY_3_cls-5" d="M145.64,145.18c.05,1,0,3-.79,3s-1.27-1.66-1-3.14a2.82,2.82,0,0,1,1.24-1.91h0" />
  <path class="BUNTAI_OTTER_JEWELRY_BUNTAI_OTTER_JEWELRY_3_cls-5" d="M143.8,149.33s-.18,1.51.92,1.51,1.05-1.28,1-1.37h0" />
  <path class="BUNTAI_OTTER_JEWELRY_BUNTAI_OTTER_JEWELRY_3_cls-5" d="M146.16,141.47a2,2,0,0,1-.23-.94,2.15,2.15,0,0,1,.11-.68,2,2,0,0,1,1.57-1.32,2,2,0,0,1,.34,0,1.39,1.39,0,0,1,1.38,1" />
  <path class="BUNTAI_OTTER_JEWELRY_BUNTAI_OTTER_JEWELRY_3_cls-6" d="M150,174.66c0,4.61-2.33,8.36-5.21,8.36s-5.21-3.75-5.21-8.36,2.33-8.36,5.21-8.36S150,170,150,174.66Z" />
  <path class="BUNTAI_OTTER_JEWELRY_BUNTAI_OTTER_JEWELRY_3_cls-3" d="M144.78,164c-3.67,0-6.65,4.77-6.65,10.66s3,10.66,6.65,10.66,6.64-4.77,6.64-10.66S148.45,164,144.78,164Zm0,19c-2.88,0-5.21-3.74-5.21-8.35s2.33-8.37,5.21-8.37S150,170,150,174.66,147.66,183,144.78,183Z" />
  <ellipse class="BUNTAI_OTTER_JEWELRY_BUNTAI_OTTER_JEWELRY_3_cls-3" cx="144.78" cy="162.21" rx="2.78" ry="1.79" />
  <ellipse class="BUNTAI_OTTER_JEWELRY_BUNTAI_OTTER_JEWELRY_3_cls-7" cx="144.78" cy="162.21" rx="2.78" ry="1.79" />
  <path class="BUNTAI_OTTER_JEWELRY_BUNTAI_OTTER_JEWELRY_3_cls-7" d="M151.43,174.66c0,5.89-3,10.66-6.65,10.66s-6.65-4.77-6.65-10.66,3-10.66,6.65-10.66S151.43,168.77,151.43,174.66Z" />
  <path class="BUNTAI_OTTER_JEWELRY_BUNTAI_OTTER_JEWELRY_3_cls-7" d="M150,174.66c0,4.61-2.33,8.36-5.21,8.36s-5.21-3.75-5.21-8.36,2.33-8.36,5.21-8.36S150,170,150,174.66Z" />
  <line class="BUNTAI_OTTER_JEWELRY_BUNTAI_OTTER_JEWELRY_3_cls-7" x1="144.7" y1="150.99" x2="144.7" y2="160.42" />
  <path class="BUNTAI_OTTER_JEWELRY_BUNTAI_OTTER_JEWELRY_3_cls-7" d="M145.24,168.07s3.13,1.15,3,7.1" />
</svg>