<svg xmlns="http://www.w3.org/2000/svg" viewBox="0 0 432 432">
  <defs>
    <style>.BUNTAI_OTTER_JEWELRY_BUNTAI_OTTER_JEWELRY_26_cls-1{isolation:isolate;}.BUNTAI_OTTER_JEWELRY_BUNTAI_OTTER_JEWELRY_26_cls-2{fill:#c7a858;}.BUNTAI_OTTER_JEWELRY_BUNTAI_OTTER_JEWELRY_26_cls-12,.BUNTAI_OTTER_JEWELRY_BUNTAI_OTTER_JEWELRY_26_cls-14,.BUNTAI_OTTER_JEWELRY_BUNTAI_OTTER_JEWELRY_26_cls-3{fill:none;stroke:#000;stroke-linecap:round;stroke-linejoin:round;}.BUNTAI_OTTER_JEWELRY_BUNTAI_OTTER_JEWELRY_26_cls-3{stroke-width:0.75px;}.BUNTAI_OTTER_JEWELRY_BUNTAI_OTTER_JEWELRY_26_cls-4{fill:#87e04a;}.BUNTAI_OTTER_JEWELRY_BUNTAI_OTTER_JEWELRY_26_cls-5{fill:#f4f4f2;}.BUNTAI_OTTER_JEWELRY_BUNTAI_OTTER_JEWELRY_26_cls-6{fill:#184098;}.BUNTAI_OTTER_JEWELRY_BUNTAI_OTTER_JEWELRY_26_cls-7{fill:#2dbcd5;}.BUNTAI_OTTER_JEWELRY_BUNTAI_OTTER_JEWELRY_26_cls-8{fill:#e1a04c;}.BUNTAI_OTTER_JEWELRY_BUNTAI_OTTER_JEWELRY_26_cls-9{fill:#a64e42;}.BUNTAI_OTTER_JEWELRY_BUNTAI_OTTER_JEWELRY_26_cls-10{fill:#ccc;}.BUNTAI_OTTER_JEWELRY_BUNTAI_OTTER_JEWELRY_26_cls-11{fill:#e7ff87;}.BUNTAI_OTTER_JEWELRY_BUNTAI_OTTER_JEWELRY_26_cls-12{stroke-width:0.78px;}.BUNTAI_OTTER_JEWELRY_BUNTAI_OTTER_JEWELRY_26_cls-13{opacity:0.43;mix-blend-mode:multiply;}.BUNTAI_OTTER_JEWELRY_BUNTAI_OTTER_JEWELRY_26_cls-14{stroke-width:0.69px;}</style>
  </defs>
  <g class="BUNTAI_OTTER_JEWELRY_BUNTAI_OTTER_JEWELRY_26_cls-1">
    <g id="jewelry">
      <path class="BUNTAI_OTTER_JEWELRY_BUNTAI_OTTER_JEWELRY_26_cls-2" d="M143.23,154c-1.44,0-1.21-2-1.21-2h0a3.91,3.91,0,0,0,1.77.37,1.75,1.75,0,0,0,.8-.19C144.59,152.28,144.62,154,143.23,154Z" />
      <path class="BUNTAI_OTTER_JEWELRY_BUNTAI_OTTER_JEWELRY_26_cls-2" d="M145.71,146.2c.53,1.76.42,5.12-1.12,6a1.75,1.75,0,0,1-.8.19A3.91,3.91,0,0,1,142,152c-1.32-.64-2-2.14-1.9-4.41a7.2,7.2,0,0,1,.41-2.22,4.68,4.68,0,0,1,1.29-2,1.64,1.64,0,0,1,1.18-.49,2,2,0,0,1,1.43.85,3.29,3.29,0,0,1-.64.12h0a3.63,3.63,0,0,0-1.62,2.48c-.4,1.94.27,4.1,1.25,4.1s1.1-2.52,1-3.85h.08A4.76,4.76,0,0,0,145.71,146.2Z" />
      <path class="BUNTAI_OTTER_JEWELRY_BUNTAI_OTTER_JEWELRY_26_cls-2" d="M141.42,136.79c.55-.22,2.89-.41,2.93-.14s-.78,1.39-.72,1.61a7.84,7.84,0,0,0-1.7,1,2.92,2.92,0,0,0-.75,3.43,2,2,0,0,0,.64.71,4.68,4.68,0,0,0-1.29,2A5.17,5.17,0,0,1,141.42,136.79Z" />
      <path class="BUNTAI_OTTER_JEWELRY_BUNTAI_OTTER_JEWELRY_26_cls-2" d="M148,143.08a4.15,4.15,0,0,1-2.31,3.12,4.76,4.76,0,0,1-1.21.36l-.08,0a4.59,4.59,0,0,1-2.28-.24,3.65,3.65,0,0,1,1.62-2.49h0a3.29,3.29,0,0,0,.64-.12,1.88,1.88,0,0,0,1.34-1.17,1.64,1.64,0,0,0,.08-.5c0-2.05-.81-2.15-.81-2.15s0-.11-.09-.28a2.63,2.63,0,0,1,2-1.72A7,7,0,0,1,148,143.08Z" />
      <path class="BUNTAI_OTTER_JEWELRY_BUNTAI_OTTER_JEWELRY_26_cls-3" d="M140.53,145.36a5.17,5.17,0,0,1,.89-8.57c.51-.25,1.14-.57,3.58,0a3.13,3.13,0,0,0-1.54,1.67,2.7,2.7,0,0,0-1.53.76,2.92,2.92,0,0,0-.75,3.43,2,2,0,0,0,.64.71" />
      <path class="BUNTAI_OTTER_JEWELRY_BUNTAI_OTTER_JEWELRY_26_cls-3" d="M142.14,146.34a4.59,4.59,0,0,0,2.28.24l.08,0a4.76,4.76,0,0,0,1.21-.36,4.15,4.15,0,0,0,2.31-3.12,7,7,0,0,0-1-5.18" />
      <path class="BUNTAI_OTTER_JEWELRY_BUNTAI_OTTER_JEWELRY_26_cls-3" d="M145,139.62c.05.17.09.28.09.28s.78.1.81,2.15a1.64,1.64,0,0,1-.08.5,1.88,1.88,0,0,1-1.34,1.17,3.29,3.29,0,0,1-.64.12" />
      <path class="BUNTAI_OTTER_JEWELRY_BUNTAI_OTTER_JEWELRY_26_cls-3" d="M145.71,146.2c.53,1.76.42,5.12-1.12,6a1.75,1.75,0,0,1-.8.19A3.91,3.91,0,0,1,142,152c-1.32-.64-2-2.14-1.9-4.41a7.2,7.2,0,0,1,.41-2.22,4.68,4.68,0,0,1,1.29-2,1.64,1.64,0,0,1,1.18-.49,2,2,0,0,1,1.43.85" />
      <path class="BUNTAI_OTTER_JEWELRY_BUNTAI_OTTER_JEWELRY_26_cls-3" d="M144.42,146.58c.07,1.33.05,3.85-1,3.85s-1.65-2.16-1.25-4.1a3.63,3.63,0,0,1,1.62-2.48h0" />
      <path class="BUNTAI_OTTER_JEWELRY_BUNTAI_OTTER_JEWELRY_26_cls-3" d="M142,152s-.23,2,1.21,2,1.36-1.68,1.36-1.79h0" />
      <path class="BUNTAI_OTTER_JEWELRY_BUNTAI_OTTER_JEWELRY_26_cls-3" d="M145.1,141.73a2.57,2.57,0,0,1-.3-1.23,2.63,2.63,0,0,1,2.19-2.6,2.28,2.28,0,0,1,.45,0,1.79,1.79,0,0,1,1.79,1.33" />
      <path class="BUNTAI_OTTER_JEWELRY_BUNTAI_OTTER_JEWELRY_26_cls-4" d="M146.66,201.28c1.66.75,3,3.68,3,3.68s-3.05,1-4.71.23c-1.32-.59-2-2.38-2.31-3.12h0l-.06-.31C142.87,201.6,145.13,200.59,146.66,201.28Z" />
      <path class="BUNTAI_OTTER_JEWELRY_BUNTAI_OTTER_JEWELRY_26_cls-5" d="M142.25,197.39s-.61,2.72-2.23,3.55-4.73,0-4.73,0,1.17-3,2.78-3.82S142.25,197.39,142.25,197.39Z" />
      <path class="BUNTAI_OTTER_JEWELRY_BUNTAI_OTTER_JEWELRY_26_cls-6" d="M151.09,190.84c1.62,1.17,2.37,4.61,2.37,4.61s-3.51.38-5.12-.79-1.83-4.21-1.83-4.21S149.46,189.68,151.09,190.84Z" />
      <path class="BUNTAI_OTTER_JEWELRY_BUNTAI_OTTER_JEWELRY_26_cls-7" d="M147.39,183.28a.13.13,0,0,1,0,.06h0c-.18.68-.9,2.92-2.4,3.69-1.78.9-5.18,0-5.18,0s1.26-3.28,3-4.19,4.36.21,4.58.3h0Z" />
      <path class="BUNTAI_OTTER_JEWELRY_BUNTAI_OTTER_JEWELRY_26_cls-8" d="M153.74,173.09c2.31.84,4.35,4.64,4.35,4.64s-4,1.62-6.31.79a6,6,0,0,1-2.8-2.74s0,0,0,0a5.88,5.88,0,0,0-.43-1.06c-.1-.18-.2-.36-.29-.56C148.62,173.93,151.59,172.31,153.74,173.09Z" />
      <path class="BUNTAI_OTTER_JEWELRY_BUNTAI_OTTER_JEWELRY_26_cls-9" d="M143.64,167s0,0,0,0c.16.54.34,1.12.54,1.72v0a6,6,0,0,1-.17,3.8c-1.1,2.19-5.12,3.77-5.12,3.77s-1.14-4.17,0-6.36,4.75-3,4.75-3l0,.05Z" />
      <path class="BUNTAI_OTTER_JEWELRY_BUNTAI_OTTER_JEWELRY_26_cls-10" d="M149,175.78c1.54,5-2,14.37-5.41,20.42a8.49,8.49,0,0,0-1,5.55l0,0s0,.11.1.29h0a13.18,13.18,0,0,0,5.64,8.1c-2.54-1.36-8.61-7.64-5.37-14a49.62,49.62,0,0,0,4.51-12.85h0a1.22,1.22,0,0,0,.05-.19h0c.59-3.36.53-6.42-.66-8.44a32.45,32.45,0,0,1-2.56-5.89v0a11.21,11.21,0,0,0-.54-1.72s0,0,0,0h0c-.44-1.45-.76-2.72-.95-3.56a3,3,0,0,0,.79.11,2.66,2.66,0,0,0,1.48-.44,46.47,46.47,0,0,0,3.28,11h0l0,0a11,11,0,0,0,.76,1.6S149,175.77,149,175.78Z" />
      <path class="BUNTAI_OTTER_JEWELRY_BUNTAI_OTTER_JEWELRY_26_cls-11" d="M145,160.9a1.48,1.48,0,1,0-1.48,1.47A1.47,1.47,0,0,0,145,160.9Zm-1.48-2.68a2.68,2.68,0,1,1,0,5.36,3,3,0,0,1-.79-.11,2.69,2.69,0,0,1,.79-5.25Z" />
      <path class="BUNTAI_OTTER_JEWELRY_BUNTAI_OTTER_JEWELRY_26_cls-12" d="M144.19,168.79a11.21,11.21,0,0,0-.54-1.72" />
      <path class="BUNTAI_OTTER_JEWELRY_BUNTAI_OTTER_JEWELRY_26_cls-12" d="M143.64,167l0-.05s-3.65.85-4.75,3,0,6.36,0,6.36,4-1.58,5.12-3.77a6,6,0,0,0,.17-3.8" />
      <path class="BUNTAI_OTTER_JEWELRY_BUNTAI_OTTER_JEWELRY_26_cls-12" d="M147.42,183.14c-.22-.09-2.87-1.16-4.58-.3s-3,4.19-3,4.19,3.4.91,5.18,0c1.5-.77,2.22-3,2.4-3.69" />
      <path class="BUNTAI_OTTER_JEWELRY_BUNTAI_OTTER_JEWELRY_26_cls-12" d="M147.38,183.34a1.22,1.22,0,0,0,.05-.19h0" />
      <path class="BUNTAI_OTTER_JEWELRY_BUNTAI_OTTER_JEWELRY_26_cls-12" d="M142.25,197.39s-2.56-1.09-4.18-.27-2.78,3.82-2.78,3.82,3.11.82,4.73,0S142.25,197.39,142.25,197.39Z" />
      <path class="BUNTAI_OTTER_JEWELRY_BUNTAI_OTTER_JEWELRY_26_cls-12" d="M142.6,202.07c.26.74,1,2.53,2.31,3.12,1.66.75,4.71-.23,4.71-.23s-1.3-2.93-3-3.68-3.79.32-4.12.47l0,0s0,.11.1.29" />
      <path class="BUNTAI_OTTER_JEWELRY_BUNTAI_OTTER_JEWELRY_26_cls-12" d="M146.51,190.45s.21,3.05,1.83,4.21,5.12.79,5.12.79-.75-3.44-2.37-4.61S146.51,190.45,146.51,190.45Z" />
      <path class="BUNTAI_OTTER_JEWELRY_BUNTAI_OTTER_JEWELRY_26_cls-12" d="M149,175.78a6,6,0,0,0,2.8,2.74c2.3.83,6.31-.79,6.31-.79s-2-3.8-4.35-4.64c-2.15-.78-5.12.84-5.49,1l0,0a11,11,0,0,0,.76,1.6" />
      <path class="BUNTAI_OTTER_JEWELRY_BUNTAI_OTTER_JEWELRY_26_cls-12" d="M148.24,210.17c-2.54-1.36-8.61-7.64-5.37-14a49.62,49.62,0,0,0,4.51-12.85h0a.13.13,0,0,0,0-.06l0-.13h0c.59-3.36.53-6.42-.66-8.44a32.45,32.45,0,0,1-2.56-5.89v0c-.2-.6-.38-1.18-.54-1.72,0,0,0,0,0,0h0c-.44-1.45-.76-2.72-.95-3.56h0" />
      <path class="BUNTAI_OTTER_JEWELRY_BUNTAI_OTTER_JEWELRY_26_cls-12" d="M146.63,213c-2.19,1.27,2,2.28,1.66,0-2-4.38-6.89,3.14-1.18,3.47,3.39,0,3.71-5.09,1.31-6.22" />
      <path class="BUNTAI_OTTER_JEWELRY_BUNTAI_OTTER_JEWELRY_26_cls-12" d="M148.42,210.27l-.18-.1a13.18,13.18,0,0,1-5.64-8.1h0l-.06-.31a8.49,8.49,0,0,1,1-5.55c3.4-6,7-15.39,5.41-20.42,0,0,0,0,0,0a5.88,5.88,0,0,0-.43-1.06c-.1-.18-.2-.36-.29-.56h0a46.47,46.47,0,0,1-3.28-11" />
      <path class="BUNTAI_OTTER_JEWELRY_BUNTAI_OTTER_JEWELRY_26_cls-12" d="M142.69,163.47a2.69,2.69,0,0,1,.79-5.25,2.68,2.68,0,1,1,0,5.36A3,3,0,0,1,142.69,163.47Z" />
      <path class="BUNTAI_OTTER_JEWELRY_BUNTAI_OTTER_JEWELRY_26_cls-12" d="M145,160.9a1.48,1.48,0,1,1-1.48-1.47A1.47,1.47,0,0,1,145,160.9Z" />
      <g class="BUNTAI_OTTER_JEWELRY_BUNTAI_OTTER_JEWELRY_26_cls-13">
        <path d="M140.8,161.22s.91,1.9,2.13,2.3c.5,2.8.69,3.46.69,3.46a22.49,22.49,0,0,1-2.46,5.67,18.81,18.81,0,0,0-2,3.61s5.06-2.18,5.57-5.91c1.15,2.73,3.05,4.88,3,7.88a46.41,46.41,0,0,1-.31,4.84,11.77,11.77,0,0,1-4,2.52c-2.26.8-3.64,1.33-3.64,1.33a4.1,4.1,0,0,0,4,.45,7.55,7.55,0,0,0,3.16-2.21s-1.83,8.4-3.2,10.62a12.47,12.47,0,0,1-1.66,1.57s-4.54,3.06-7,3.48c2.29.68,5.95.15,7.16-2.14.2,2.21-.57,8.75,7.31,6.15a60.21,60.21,0,0,1-6.47-3.33s-1.38-1.43-.14-4c2.8-5.13,3.62-6.6,3.62-6.6s-.7,5.3,6.72,4.53c-3.27-2.18-6.2-4-6.55-5.27,1.3-4,2.74-6,2.59-9.83l-.15-3.78s1.72,3.59,8.76.89c-5.68-1.86-8.15-2-9.73-3.41-1.58-4.09-3.56-10.27-3.45-10.82s1.58-1.42,1.4-2.83C144.8,162.44,143.73,164,140.8,161.22Z" />
      </g>
      <line class="BUNTAI_OTTER_JEWELRY_BUNTAI_OTTER_JEWELRY_26_cls-14" x1="143.44" y1="158.02" x2="143.44" y2="153.96" />
    </g>
  </g>
</svg>