<svg id="jewelry" xmlns="http://www.w3.org/2000/svg" viewBox="0 0 432 432">
  <defs>
    <style>.BUNTAI_OTTER_JEWELRY_BUNTAI_OTTER_JEWELRY_23_cls-1{fill:#e2d93c;stroke-width:2px;}.BUNTAI_OTTER_JEWELRY_BUNTAI_OTTER_JEWELRY_23_cls-1,.BUNTAI_OTTER_JEWELRY_BUNTAI_OTTER_JEWELRY_23_cls-10,.BUNTAI_OTTER_JEWELRY_BUNTAI_OTTER_JEWELRY_23_cls-5,.BUNTAI_OTTER_JEWELRY_BUNTAI_OTTER_JEWELRY_23_cls-6,.BUNTAI_OTTER_JEWELRY_BUNTAI_OTTER_JEWELRY_23_cls-7,.BUNTAI_OTTER_JEWELRY_BUNTAI_OTTER_JEWELRY_23_cls-8{stroke:#000;}.BUNTAI_OTTER_JEWELRY_BUNTAI_OTTER_JEWELRY_23_cls-1,.BUNTAI_OTTER_JEWELRY_BUNTAI_OTTER_JEWELRY_23_cls-8{stroke-miterlimit:10;}.BUNTAI_OTTER_JEWELRY_BUNTAI_OTTER_JEWELRY_23_cls-2{fill:#fff;}.BUNTAI_OTTER_JEWELRY_BUNTAI_OTTER_JEWELRY_23_cls-3{fill:#666;}.BUNTAI_OTTER_JEWELRY_BUNTAI_OTTER_JEWELRY_23_cls-4{fill:#c7a858;}.BUNTAI_OTTER_JEWELRY_BUNTAI_OTTER_JEWELRY_23_cls-10,.BUNTAI_OTTER_JEWELRY_BUNTAI_OTTER_JEWELRY_23_cls-5,.BUNTAI_OTTER_JEWELRY_BUNTAI_OTTER_JEWELRY_23_cls-6,.BUNTAI_OTTER_JEWELRY_BUNTAI_OTTER_JEWELRY_23_cls-7{fill:none;stroke-linecap:round;stroke-linejoin:round;}.BUNTAI_OTTER_JEWELRY_BUNTAI_OTTER_JEWELRY_23_cls-5{stroke-width:0.92px;}.BUNTAI_OTTER_JEWELRY_BUNTAI_OTTER_JEWELRY_23_cls-6{stroke-width:0.67px;}.BUNTAI_OTTER_JEWELRY_BUNTAI_OTTER_JEWELRY_23_cls-7{stroke-width:0.95px;}.BUNTAI_OTTER_JEWELRY_BUNTAI_OTTER_JEWELRY_23_cls-8{fill:#754c24;stroke-width:1.32px;}.BUNTAI_OTTER_JEWELRY_BUNTAI_OTTER_JEWELRY_23_cls-9{fill:#333;}.BUNTAI_OTTER_JEWELRY_BUNTAI_OTTER_JEWELRY_23_cls-10{stroke-width:0.85px;}</style>
  </defs>
  <circle class="BUNTAI_OTTER_JEWELRY_BUNTAI_OTTER_JEWELRY_23_cls-1" cx="239.89" cy="151.24" r="2.6" />
  <circle class="BUNTAI_OTTER_JEWELRY_BUNTAI_OTTER_JEWELRY_23_cls-1" cx="258" cy="151.24" r="2.6" />
  <path class="BUNTAI_OTTER_JEWELRY_BUNTAI_OTTER_JEWELRY_23_cls-2" d="M156.58,195.55a13.39,13.39,0,0,1-11.83-3.72,6.54,6.54,0,0,0,4.43-3.6A24.1,24.1,0,0,0,156.58,195.55Z" />
  <path class="BUNTAI_OTTER_JEWELRY_BUNTAI_OTTER_JEWELRY_23_cls-2" d="M156.75,195.66c-2.25.94-10.67,3.58-18.4-5.75a6.49,6.49,0,0,0,2.58-.38,31.27,31.27,0,0,1-3.1-1.3,34.27,34.27,0,0,1-.37-11.77l2.18-1.34-.36,1.95,1.51-1.2c-.54,4.58-.35,9.72,2,13.48a15.36,15.36,0,0,0,1.94,2.48,13.39,13.39,0,0,0,11.83,3.72Z" />
  <path class="BUNTAI_OTTER_JEWELRY_BUNTAI_OTTER_JEWELRY_23_cls-3" d="M142.53,170.51a21,21,0,0,0,3.67.91l-2.46,1.11,1.7.61-1.84.6s2.12,2.82,3.56,3.23a10.25,10.25,0,0,1-4.58-.88l-.89,2.19-.9-2.41a47.16,47.16,0,0,1,1-5.36Z" />
  <path class="BUNTAI_OTTER_JEWELRY_BUNTAI_OTTER_JEWELRY_23_cls-2" d="M141.69,178.28l.89-2.19,0,1.59s1.53,5,3.85,6.22c-1.62,3.82-1.62,4.61-1.62,4.61l3-3.35a9.37,9.37,0,0,0,1.3,3.07,6.54,6.54,0,0,1-4.43,3.6,15.36,15.36,0,0,1-1.94-2.48c-2.37-3.76-2.56-8.9-2-13.48Z" />
  <path class="BUNTAI_OTTER_JEWELRY_BUNTAI_OTTER_JEWELRY_23_cls-3" d="M141.75,170.51a47.16,47.16,0,0,0-1,5.36l-1.51,1.2.36-1.95-2.18,1.34a5.65,5.65,0,0,1-2.09,1.22,10.83,10.83,0,0,0,1.91-3.45l-1.07-.46,1.44-1.17L136.34,171s2.47,0,2.75-.09,1.84-.42,1.84-.42Z" />
  <path class="BUNTAI_OTTER_JEWELRY_BUNTAI_OTTER_JEWELRY_23_cls-4" d="M143.54,161.3a2.45,2.45,0,0,1-.16,4.9,1.84,1.84,0,0,1-.41,0,2.45,2.45,0,0,1,.41-4.86Z" />
  <path class="BUNTAI_OTTER_JEWELRY_BUNTAI_OTTER_JEWELRY_23_cls-5" d="M143.54,161.3a2.45,2.45,0,0,1-.16,4.9,1.84,1.84,0,0,1-.41,0,2.45,2.45,0,0,1,.41-4.86Z" />
  <path class="BUNTAI_OTTER_JEWELRY_BUNTAI_OTTER_JEWELRY_23_cls-5" d="M141.75,170.51h-.82s-1.56.37-1.84.42-2.75.09-2.75.09l1.31,1.58-1.44,1.17,1.07.46a10.83,10.83,0,0,1-1.91,3.45,5.65,5.65,0,0,0,2.09-1.22,34.27,34.27,0,0,0,.37,11.77,31.27,31.27,0,0,0,3.1,1.3,6.49,6.49,0,0,1-2.58.38c7.73,9.33,16.15,6.69,18.4,5.75l-.17-.11a24.1,24.1,0,0,1-7.4-7.32,9.37,9.37,0,0,1-1.3-3.07l-3,3.35s0-.79,1.62-4.61c-2.32-1.25-3.85-6.22-3.85-6.22l0-1.59a10.25,10.25,0,0,0,4.58.88c-1.44-.41-3.56-3.23-3.56-3.23l1.84-.6-1.7-.61,2.46-1.11a21,21,0,0,1-3.67-.91h-.78" />
  <path class="BUNTAI_OTTER_JEWELRY_BUNTAI_OTTER_JEWELRY_23_cls-5" d="M143,166.16c-.32,1-.79,2.48-1.22,4.35a47.16,47.16,0,0,0-1,5.36c-.54,4.58-.35,9.72,2,13.48a15.36,15.36,0,0,0,1.94,2.48,13.39,13.39,0,0,0,11.83,3.72" />
  <path class="BUNTAI_OTTER_JEWELRY_BUNTAI_OTTER_JEWELRY_23_cls-5" d="M144.75,191.83a6.54,6.54,0,0,0,4.43-3.6" />
  <polyline class="BUNTAI_OTTER_JEWELRY_BUNTAI_OTTER_JEWELRY_23_cls-5" points="142.58 176.09 141.69 178.28 140.79 175.87 139.28 177.07 139.64 175.12 137.46 176.46" />
  <line class="BUNTAI_OTTER_JEWELRY_BUNTAI_OTTER_JEWELRY_23_cls-5" x1="143.54" y1="161.31" x2="143.54" y2="153.08" />
  <path class="BUNTAI_OTTER_JEWELRY_BUNTAI_OTTER_JEWELRY_23_cls-4" d="M143.58,152.84c-1.3,0-1.08-1.77-1.08-1.77h0a3.51,3.51,0,0,0,1.58.33,1.46,1.46,0,0,0,.71-.17C144.8,151.33,144.82,152.84,143.58,152.84Z" />
  <path class="BUNTAI_OTTER_JEWELRY_BUNTAI_OTTER_JEWELRY_23_cls-4" d="M145.8,145.88c.48,1.58.38,4.59-1,5.35a1.46,1.46,0,0,1-.71.17,3.51,3.51,0,0,1-1.58-.33c-1.19-.58-1.79-1.92-1.71-4a6.47,6.47,0,0,1,.37-2,4.27,4.27,0,0,1,1.15-1.79,1.53,1.53,0,0,1,1.06-.44,1.8,1.8,0,0,1,1.28.76,2.5,2.5,0,0,1-.57.11h0A3.29,3.29,0,0,0,142.6,146c-.36,1.73.25,3.68,1.12,3.68s1-2.26.93-3.46h.07A4.27,4.27,0,0,0,145.8,145.88Z" />
  <path class="BUNTAI_OTTER_JEWELRY_BUNTAI_OTTER_JEWELRY_23_cls-4" d="M142,137.44c.5-.2,2.59-.37,2.63-.13s-.69,1.25-.64,1.45a6.79,6.79,0,0,0-1.52.86,2.61,2.61,0,0,0-.68,3.07,1.77,1.77,0,0,0,.57.64,4.27,4.27,0,0,0-1.15,1.79A4.63,4.63,0,0,1,142,137.44Z" />
  <path class="BUNTAI_OTTER_JEWELRY_BUNTAI_OTTER_JEWELRY_23_cls-4" d="M147.88,143.08a3.77,3.77,0,0,1-2.08,2.8,4.27,4.27,0,0,1-1.08.32l-.07,0a4,4,0,0,1-2.05-.22,3.29,3.29,0,0,1,1.45-2.23,0,0,0,0,0,0,0h0a2.74,2.74,0,0,0,.57-.11,1.69,1.69,0,0,0,1.2-1,1.63,1.63,0,0,0,.07-.45c0-1.84-.72-1.93-.72-1.93a1.45,1.45,0,0,1-.09-.25,2.35,2.35,0,0,1,1.83-1.54A6.26,6.26,0,0,1,147.88,143.08Z" />
  <path class="BUNTAI_OTTER_JEWELRY_BUNTAI_OTTER_JEWELRY_23_cls-6" d="M141.16,145.12a4.63,4.63,0,0,1,.79-7.68c.47-.23,1-.51,3.22,0a2.77,2.77,0,0,0-1.38,1.5,2.36,2.36,0,0,0-1.37.68,2.61,2.61,0,0,0-.68,3.07,1.77,1.77,0,0,0,.57.64" />
  <path class="BUNTAI_OTTER_JEWELRY_BUNTAI_OTTER_JEWELRY_23_cls-6" d="M142.6,146a4,4,0,0,0,2.05.22l.07,0a4.27,4.27,0,0,0,1.08-.32,3.77,3.77,0,0,0,2.08-2.8,6.26,6.26,0,0,0-.93-4.64" />
  <path class="BUNTAI_OTTER_JEWELRY_BUNTAI_OTTER_JEWELRY_23_cls-6" d="M145.12,140a1.45,1.45,0,0,0,.09.25s.69.09.72,1.93a1.63,1.63,0,0,1-.07.45,1.69,1.69,0,0,1-1.2,1,2.74,2.74,0,0,1-.57.11" />
  <path class="BUNTAI_OTTER_JEWELRY_BUNTAI_OTTER_JEWELRY_23_cls-6" d="M145.8,145.88c.48,1.58.38,4.59-1,5.35a1.46,1.46,0,0,1-.71.17,3.51,3.51,0,0,1-1.58-.33c-1.19-.58-1.79-1.92-1.71-4a6.47,6.47,0,0,1,.37-2,4.27,4.27,0,0,1,1.15-1.79,1.53,1.53,0,0,1,1.06-.44,1.8,1.8,0,0,1,1.28.76" />
  <path class="BUNTAI_OTTER_JEWELRY_BUNTAI_OTTER_JEWELRY_23_cls-6" d="M144.65,146.22c.06,1.2,0,3.46-.93,3.46s-1.48-2-1.12-3.68a3.29,3.29,0,0,1,1.45-2.23h0" />
  <path class="BUNTAI_OTTER_JEWELRY_BUNTAI_OTTER_JEWELRY_23_cls-6" d="M142.5,151.07s-.22,1.77,1.08,1.77,1.22-1.51,1.21-1.61h0" />
  <path class="BUNTAI_OTTER_JEWELRY_BUNTAI_OTTER_JEWELRY_23_cls-6" d="M145.25,141.87a2.39,2.39,0,0,1-.27-1.1,2.3,2.3,0,0,1,.14-.79,2.35,2.35,0,0,1,1.83-1.54,1.84,1.84,0,0,1,.41,0,1.61,1.61,0,0,1,1.6,1.19" />
  <path class="BUNTAI_OTTER_JEWELRY_BUNTAI_OTTER_JEWELRY_23_cls-4" d="M233.88,382.42a16.27,16.27,0,1,0-16.25,16.25A16.24,16.24,0,0,0,233.88,382.42Zm-16.25-18.16a18.16,18.16,0,1,1-18.15,18.16A18.16,18.16,0,0,1,217.63,364.26Z" />
  <path class="BUNTAI_OTTER_JEWELRY_BUNTAI_OTTER_JEWELRY_23_cls-2" d="M223.7,367.35a16.25,16.25,0,0,1-10.91,30.59c-5.83-8.33,3.36-13.16,9.76-17.44S223.7,367.35,223.7,367.35ZM220.55,392a2.92,2.92,0,1,0-2.92,2.92A2.91,2.91,0,0,0,220.55,392Z" />
  <path d="M223.7,367.35s5.27,8.88-1.15,13.15-15.59,9.11-9.76,17.44a16.25,16.25,0,0,1,4.84-31.77A16.09,16.09,0,0,1,223.7,367.35Zm-3.15,7.55a2.92,2.92,0,1,0-2.92,2.92A2.91,2.91,0,0,0,220.55,374.9Z" />
  <path class="BUNTAI_OTTER_JEWELRY_BUNTAI_OTTER_JEWELRY_23_cls-2" d="M220.55,374.9a2.92,2.92,0,1,1-2.92-2.91A2.92,2.92,0,0,1,220.55,374.9Z" />
  <path class="BUNTAI_OTTER_JEWELRY_BUNTAI_OTTER_JEWELRY_23_cls-7" d="M223.7,367.35a16.24,16.24,0,1,1-6.07-1.18A16.24,16.24,0,0,1,223.7,367.35Z" />
  <path class="BUNTAI_OTTER_JEWELRY_BUNTAI_OTTER_JEWELRY_23_cls-7" d="M220.55,374.9a2.92,2.92,0,1,1-2.92-2.91A2.92,2.92,0,0,1,220.55,374.9Z" />
  <path class="BUNTAI_OTTER_JEWELRY_BUNTAI_OTTER_JEWELRY_23_cls-7" d="M220.55,392a2.92,2.92,0,1,1-2.92-2.91A2.93,2.93,0,0,1,220.55,392Z" />
  <path class="BUNTAI_OTTER_JEWELRY_BUNTAI_OTTER_JEWELRY_23_cls-7" d="M235.78,382.42a18.15,18.15,0,1,1-18.15-18.16A18.15,18.15,0,0,1,235.78,382.42Z" />
  <path class="BUNTAI_OTTER_JEWELRY_BUNTAI_OTTER_JEWELRY_23_cls-7" d="M223.7,367.35s5.27,8.88-1.15,13.15-15.59,9.11-9.76,17.44" />
  <path d="M220.55,392a2.92,2.92,0,1,1-2.92-2.91A2.93,2.93,0,0,1,220.55,392Z" />
  <path class="BUNTAI_OTTER_JEWELRY_BUNTAI_OTTER_JEWELRY_23_cls-8" d="M304,302.64A3.58,3.58,0,0,0,299,303l1.81,2c-7.22,17.62-33.64,41.58-83.79,56.54-53-14.94-82.42-53.84-86.64-60.11l1.74-1.85s-1.13-2.52-5-.19c-1.07.95-.67,3.19-.11,4.11,0,0,.21.35.55.85h0s33.72,45.78,88.93,61.12a1.89,1.89,0,0,0,.53.08,1.76,1.76,0,0,0,.55-.09c53.12-15.7,80.58-41.67,87.41-60.39A2.39,2.39,0,0,0,304,302.64Z" />
  <path class="BUNTAI_OTTER_JEWELRY_BUNTAI_OTTER_JEWELRY_23_cls-9" d="M214,360.69l2.4.64s2.5-1.38,3.53.57.54,3.35-.79,4-3.3.07-3.68-1a5.18,5.18,0,0,0-2.31-.51s1,3.67,4.17,4a4.69,4.69,0,0,0,5.49-4.25,4.5,4.5,0,0,0-2.59-4.73A4.91,4.91,0,0,0,214,360.69Z" />
  <path class="BUNTAI_OTTER_JEWELRY_BUNTAI_OTTER_JEWELRY_23_cls-10" d="M213,364.23a4.85,4.85,0,0,0,4.37,4.23,4,4,0,0,0,.49,0,4.89,4.89,0,0,0,3.27-1.24,4.73,4.73,0,0,0,1.63-3.36,1.1,1.1,0,0,0,0-.26,4.84,4.84,0,0,0-1.11-3.08,5,5,0,0,0-3.81-1.77,4.9,4.9,0,0,0-4,2l2.43.65a2.69,2.69,0,0,1,1.56-.5,2.6,2.6,0,0,1,1.47.44,2.6,2.6,0,0,1,.93,3.4,2.69,2.69,0,0,1-4.76.08h0Z" />
</svg>