<svg xmlns="http://www.w3.org/2000/svg" viewBox="0 0 432 432">
  <defs>
    <style>.BUNTAI_DEER_JEWELRY_DEER_JEWELRY_27_cls-1{isolation:isolate;}.BUNTAI_DEER_JEWELRY_DEER_JEWELRY_27_cls-2{fill:#c7a858;}.BUNTAI_DEER_JEWELRY_DEER_JEWELRY_27_cls-3,.BUNTAI_DEER_JEWELRY_DEER_JEWELRY_27_cls-4,.BUNTAI_DEER_JEWELRY_DEER_JEWELRY_27_cls-7{fill:none;stroke:#000;stroke-linecap:round;stroke-linejoin:round;}.BUNTAI_DEER_JEWELRY_DEER_JEWELRY_27_cls-3{stroke-width:0.7px;}.BUNTAI_DEER_JEWELRY_DEER_JEWELRY_27_cls-4{stroke-width:0.66px;}.BUNTAI_DEER_JEWELRY_DEER_JEWELRY_27_cls-5{fill:#cbde8d;}.BUNTAI_DEER_JEWELRY_DEER_JEWELRY_27_cls-6{fill:#91b90e;}.BUNTAI_DEER_JEWELRY_DEER_JEWELRY_27_cls-7{stroke-width:0.63px;}.BUNTAI_DEER_JEWELRY_DEER_JEWELRY_27_cls-8{opacity:0.43;mix-blend-mode:multiply;}</style>
  </defs>
  <g class="BUNTAI_DEER_JEWELRY_DEER_JEWELRY_27_cls-1">
    <g id="jewelry">
      <path class="BUNTAI_DEER_JEWELRY_DEER_JEWELRY_27_cls-2" d="M153,181.55c-1.36,0-1.14-1.86-1.14-1.86h0a3.64,3.64,0,0,0,1.67.35,1.54,1.54,0,0,0,.75-.18C154.27,180,154.3,181.55,153,181.55Z" />
      <path class="BUNTAI_DEER_JEWELRY_DEER_JEWELRY_27_cls-2" d="M155.33,174.23c.5,1.66.39,4.83-1.06,5.63a1.54,1.54,0,0,1-.75.18,3.64,3.64,0,0,1-1.67-.35c-1.25-.6-1.88-2-1.79-4.16a7,7,0,0,1,.38-2.09,4.45,4.45,0,0,1,1.22-1.89,1.54,1.54,0,0,1,1.11-.46,1.87,1.87,0,0,1,1.35.8,2.9,2.9,0,0,1-.6.11h0a3.49,3.49,0,0,0-1.53,2.35c-.38,1.82.26,3.86,1.18,3.86s1-2.37,1-3.63h.08A4.76,4.76,0,0,0,155.33,174.23Z" />
      <path class="BUNTAI_DEER_JEWELRY_DEER_JEWELRY_27_cls-2" d="M151.28,165.35c.52-.2,2.73-.38,2.77-.13s-.74,1.31-.68,1.52a7.18,7.18,0,0,0-1.6.91,2.74,2.74,0,0,0-.71,3.23,1.76,1.76,0,0,0,.6.67,4.45,4.45,0,0,0-1.22,1.89A4.89,4.89,0,0,1,151.28,165.35Z" />
      <path class="BUNTAI_DEER_JEWELRY_DEER_JEWELRY_27_cls-2" d="M157.51,171.29a3.93,3.93,0,0,1-2.18,2.94,4.23,4.23,0,0,1-1.14.34l-.08,0a4.32,4.32,0,0,1-2.15-.23,3.45,3.45,0,0,1,1.53-2.35h0a2.9,2.9,0,0,0,.6-.11,1.78,1.78,0,0,0,1.27-1.1,1.45,1.45,0,0,0,.07-.47c0-1.94-.76-2-.76-2s0-.1-.09-.26a2.48,2.48,0,0,1,1.93-1.63A6.56,6.56,0,0,1,157.51,171.29Z" />
      <path class="BUNTAI_DEER_JEWELRY_DEER_JEWELRY_27_cls-3" d="M150.44,173.44a4.89,4.89,0,0,1,.84-8.09c.49-.23,1.08-.53,3.38,0a3,3,0,0,0-1.45,1.58,2.56,2.56,0,0,0-1.44.72,2.74,2.74,0,0,0-.71,3.23,1.76,1.76,0,0,0,.6.67" />
      <path class="BUNTAI_DEER_JEWELRY_DEER_JEWELRY_27_cls-3" d="M152,174.36a4.32,4.32,0,0,0,2.15.23l.08,0a4.23,4.23,0,0,0,1.14-.34,3.93,3.93,0,0,0,2.18-2.94,6.56,6.56,0,0,0-1-4.89" />
      <path class="BUNTAI_DEER_JEWELRY_DEER_JEWELRY_27_cls-3" d="M154.61,168c0,.16.09.26.09.26s.74.09.76,2a1.45,1.45,0,0,1-.07.47,1.78,1.78,0,0,1-1.27,1.1,2.9,2.9,0,0,1-.6.11" />
      <path class="BUNTAI_DEER_JEWELRY_DEER_JEWELRY_27_cls-3" d="M155.33,174.23c.5,1.66.39,4.83-1.06,5.63a1.54,1.54,0,0,1-.75.18,3.64,3.64,0,0,1-1.67-.35c-1.25-.6-1.88-2-1.79-4.16a7,7,0,0,1,.38-2.09,4.45,4.45,0,0,1,1.22-1.89,1.54,1.54,0,0,1,1.11-.46,1.87,1.87,0,0,1,1.35.8" />
      <path class="BUNTAI_DEER_JEWELRY_DEER_JEWELRY_27_cls-3" d="M154.11,174.59c.07,1.26,0,3.63-1,3.63s-1.56-2-1.18-3.86a3.49,3.49,0,0,1,1.53-2.35h0" />
      <path class="BUNTAI_DEER_JEWELRY_DEER_JEWELRY_27_cls-3" d="M151.85,179.69s-.22,1.86,1.14,1.86,1.28-1.58,1.28-1.69h0" />
      <path class="BUNTAI_DEER_JEWELRY_DEER_JEWELRY_27_cls-3" d="M154.75,170a2.55,2.55,0,0,1-.28-1.16,2.49,2.49,0,0,1,2.07-2.46,3,3,0,0,1,.43,0,1.69,1.69,0,0,1,1.68,1.26" />
      <line class="BUNTAI_DEER_JEWELRY_DEER_JEWELRY_27_cls-4" x1="153.05" y1="185.54" x2="153.05" y2="181.71" />
      <path class="BUNTAI_DEER_JEWELRY_DEER_JEWELRY_27_cls-5" d="M153,218.18c.57,3.45.83,4.46.13,7.48,0,0,1.12-1.25,2.59-3.22A31.59,31.59,0,0,0,153,218.18Z" />
      <path class="BUNTAI_DEER_JEWELRY_DEER_JEWELRY_27_cls-5" d="M152.83,217.15a6.69,6.69,0,0,0-3.63,3.46,55.26,55.26,0,0,0,3.91,5c.7-3,.44-4-.13-7.48C152.93,217.85,152.88,217.51,152.83,217.15Z" />
      <path class="BUNTAI_DEER_JEWELRY_DEER_JEWELRY_27_cls-5" d="M152.59,214.31c.06,1,.14,2,.24,2.84,0,.36.1.7.15,1a31.59,31.59,0,0,1,2.72,4.26c.61-.81,1.28-1.75,2-2.78C156.4,216.72,152.59,214.31,152.59,214.31Z" />
      <path class="BUNTAI_DEER_JEWELRY_DEER_JEWELRY_27_cls-5" d="M152.51,211.31c0,1,0,2,.08,3,0,0,3.81,2.41,5.06,5.35.61-.94,1.23-1.93,1.8-3-.26-2-1.45-2.76-3.58-4.16a12,12,0,0,1-3.31-3.4C152.53,209.81,152.51,210.55,152.51,211.31Z" />
      <path class="BUNTAI_DEER_JEWELRY_DEER_JEWELRY_27_cls-5" d="M152.51,211.31s-4.27,1.94-5.35,6.08c.66,1.15,1.36,2.23,2,3.22a6.69,6.69,0,0,1,3.63-3.46c-.1-.88-.18-1.84-.24-2.84s-.08-2-.08-3Z" />
      <path class="BUNTAI_DEER_JEWELRY_DEER_JEWELRY_27_cls-5" d="M148.67,207.25c-2.84.84-3.79,1.28-4.52,3.1a22.37,22.37,0,0,0,1.41,4S146.09,209.85,148.67,207.25Z" />
      <path class="BUNTAI_DEER_JEWELRY_DEER_JEWELRY_27_cls-5" d="M148.67,207.25c-2.58,2.6-3.11,7.06-3.11,7.06a34.52,34.52,0,0,0,1.6,3.08c1.08-4.14,5.35-6.08,5.35-6.08h0c0-.76,0-1.5.05-2.19a25.66,25.66,0,0,1,.26-2.73,16.86,16.86,0,0,0,.21-1.79,6.61,6.61,0,0,1-3.91,2.52Z" />
      <path class="BUNTAI_DEER_JEWELRY_DEER_JEWELRY_27_cls-5" d="M162.2,209.77a6.45,6.45,0,0,0-4.63-3.07,15.67,15.67,0,0,1,3.52,6.59,19.88,19.88,0,0,0,1.11-3.52Z" />
      <path class="BUNTAI_DEER_JEWELRY_DEER_JEWELRY_27_cls-5" d="M153,204.6a16.86,16.86,0,0,1-.21,1.79,25.66,25.66,0,0,0-.26,2.73,12,12,0,0,0,3.31,3.4c2.13,1.4,3.32,2.16,3.58,4.16a31,31,0,0,0,1.64-3.38h0a15.67,15.67,0,0,0-3.52-6.59h0q-.58-.12-1.2-.21a4.43,4.43,0,0,1-3.26-2A.49.49,0,0,1,153,204.6Z" />
      <path class="BUNTAI_DEER_JEWELRY_DEER_JEWELRY_27_cls-5" d="M153.16,191.63c.48.48,3.8,4,1.82,6.8,0,0,3.48,1,7,5.6-1.81-6.3-8.1-11.8-8.81-12.4Z" />
      <path class="BUNTAI_DEER_JEWELRY_DEER_JEWELRY_27_cls-5" d="M153,204.6a.49.49,0,0,0,.08-.12,4.43,4.43,0,0,0,3.26,2q.62.09,1.2.21h0a6.45,6.45,0,0,1,4.63,3.07,12.69,12.69,0,0,0,.26-2.49A11.68,11.68,0,0,0,162,204c-3.52-4.57-7-5.6-7-5.6a5.24,5.24,0,0,1-1.87,1.54A40.94,40.94,0,0,1,153,204.6Z" />
      <path class="BUNTAI_DEER_JEWELRY_DEER_JEWELRY_27_cls-5" d="M143.74,207.28a12.78,12.78,0,0,0,.41,3.07c.73-1.82,1.68-2.26,4.52-3.1l.45-.13A6.61,6.61,0,0,0,153,204.6a40.94,40.94,0,0,0,.08-4.63,5.29,5.29,0,0,1-1.88-1.54s-3.28.32-6.51,4.16A12.83,12.83,0,0,0,143.74,207.28Z" />
      <path class="BUNTAI_DEER_JEWELRY_DEER_JEWELRY_27_cls-5" d="M153,191.63c-.65.55-6.07,5.27-8.32,11,3.23-3.84,6.51-4.16,6.51-4.16-2-2.79,1.34-6.32,1.82-6.8Z" />
      <path class="BUNTAI_DEER_JEWELRY_DEER_JEWELRY_27_cls-2" d="M153.05,191.63c-.48.48-3.79,4-1.82,6.8a5.29,5.29,0,0,0,1.88,1.54,5.24,5.24,0,0,0,1.87-1.54c2-2.79-1.34-6.32-1.82-6.8h-.11Z" />
      <path class="BUNTAI_DEER_JEWELRY_DEER_JEWELRY_27_cls-6" d="M153.11,187.43c-.72,0-1.31.95-1.31,2.1a2.42,2.42,0,0,0,.75,1.9h0a1.18,1.18,0,0,0,.55.14,1.26,1.26,0,0,0,.54-.13h0a2.43,2.43,0,0,0,.75-1.9C154.41,188.38,153.83,187.43,153.11,187.43Z" />
      <path class="BUNTAI_DEER_JEWELRY_DEER_JEWELRY_27_cls-2" d="M151.23,188.56a3.18,3.18,0,0,0,1.32,2.87,2.42,2.42,0,0,1-.75-1.9c0-1.15.59-2.1,1.31-2.1s1.3.95,1.3,2.1a2.43,2.43,0,0,1-.75,1.9,3.18,3.18,0,0,0,1.32-2.87c0-1.66-.84-3-1.87-3S151.23,186.9,151.23,188.56Z" />
      <path class="BUNTAI_DEER_JEWELRY_DEER_JEWELRY_27_cls-7" d="M161.09,213.3a31,31,0,0,1-1.64,3.38c-.57,1-1.19,2-1.8,3s-1.34,2-2,2.78c-1.47,2-2.59,3.22-2.59,3.22a55.26,55.26,0,0,1-3.91-5c-.68-1-1.38-2.07-2-3.22a34.52,34.52,0,0,1-1.6-3.08,22.37,22.37,0,0,1-1.41-4,11.71,11.71,0,0,1,.57-7.76c2.25-5.69,7.67-10.41,8.32-11l0,0h0" />
      <path class="BUNTAI_DEER_JEWELRY_DEER_JEWELRY_27_cls-7" d="M162.2,209.77a19.88,19.88,0,0,1-1.11,3.52" />
      <path class="BUNTAI_DEER_JEWELRY_DEER_JEWELRY_27_cls-7" d="M153.13,191.59h0l0,0c.71.6,7,6.1,8.81,12.4a11.68,11.68,0,0,1,.48,3.25,12.69,12.69,0,0,1-.26,2.49" />
      <path class="BUNTAI_DEER_JEWELRY_DEER_JEWELRY_27_cls-7" d="M153.11,191.57l0,0h0l0,0c.48.48,3.8,4,1.82,6.8a5.24,5.24,0,0,1-1.87,1.54,5.29,5.29,0,0,1-1.88-1.54c-2-2.79,1.34-6.32,1.82-6.8l0,0h0Z" />
      <path class="BUNTAI_DEER_JEWELRY_DEER_JEWELRY_27_cls-7" d="M153.11,200a40.94,40.94,0,0,1-.08,4.63,16.86,16.86,0,0,1-.21,1.79,25.66,25.66,0,0,0-.26,2.73c0,.69-.05,1.43-.05,2.19,0,1,0,2,.08,3s.14,2,.24,2.84c0,.36.1.7.15,1,.57,3.45.83,4.46.13,7.48" />
      <path class="BUNTAI_DEER_JEWELRY_DEER_JEWELRY_27_cls-7" d="M155,198.43s3.48,1,7,5.6h0" />
      <path class="BUNTAI_DEER_JEWELRY_DEER_JEWELRY_27_cls-7" d="M157.57,206.7q-.58-.12-1.2-.21a4.43,4.43,0,0,1-3.26-2,.49.49,0,0,1-.08.12,6.61,6.61,0,0,1-3.91,2.52l-.45.13c-2.84.84-3.79,1.28-4.52,3.1" />
      <path class="BUNTAI_DEER_JEWELRY_DEER_JEWELRY_27_cls-7" d="M162.2,209.77h0a6.45,6.45,0,0,0-4.63-3.07" />
      <path class="BUNTAI_DEER_JEWELRY_DEER_JEWELRY_27_cls-7" d="M161.09,213.3h0a15.67,15.67,0,0,0-3.52-6.59h0" />
      <path class="BUNTAI_DEER_JEWELRY_DEER_JEWELRY_27_cls-7" d="M152.56,209.12a12,12,0,0,0,3.31,3.4c2.13,1.4,3.32,2.16,3.58,4.16" />
      <path class="BUNTAI_DEER_JEWELRY_DEER_JEWELRY_27_cls-7" d="M152.59,214.31s3.81,2.41,5.06,5.35" />
      <path class="BUNTAI_DEER_JEWELRY_DEER_JEWELRY_27_cls-7" d="M153,218.18a31.59,31.59,0,0,1,2.72,4.26" />
      <path class="BUNTAI_DEER_JEWELRY_DEER_JEWELRY_27_cls-7" d="M151.23,198.43s-3.28.32-6.51,4.16" />
      <path class="BUNTAI_DEER_JEWELRY_DEER_JEWELRY_27_cls-7" d="M145.56,214.31s.53-4.46,3.11-7.06" />
      <path class="BUNTAI_DEER_JEWELRY_DEER_JEWELRY_27_cls-7" d="M152.51,211.31s-4.27,1.94-5.35,6.08" />
      <path class="BUNTAI_DEER_JEWELRY_DEER_JEWELRY_27_cls-7" d="M152.83,217.15a6.69,6.69,0,0,0-3.63,3.46" />
      <path class="BUNTAI_DEER_JEWELRY_DEER_JEWELRY_27_cls-7" d="M153.66,191.43a3.18,3.18,0,0,0,1.32-2.87c0-1.66-.84-3-1.87-3s-1.88,1.36-1.88,3a3.18,3.18,0,0,0,1.32,2.87" />
      <path class="BUNTAI_DEER_JEWELRY_DEER_JEWELRY_27_cls-7" d="M152.56,191.43a1.18,1.18,0,0,0,.55.14,1.26,1.26,0,0,0,.54-.13" />
      <path class="BUNTAI_DEER_JEWELRY_DEER_JEWELRY_27_cls-7" d="M153.66,191.43a2.43,2.43,0,0,0,.75-1.9c0-1.15-.58-2.1-1.3-2.1s-1.31.95-1.31,2.1a2.42,2.42,0,0,0,.75,1.9h0a.84.84,0,0,0,.48.2h.13a.87.87,0,0,0,.48-.19Z" />
      <g class="BUNTAI_DEER_JEWELRY_DEER_JEWELRY_27_cls-8">
        <path d="M153.11,185.54a2,2,0,0,0,0,1.89,6.91,6.91,0,0,0,.06,4.2c-.57,4.78-.73,6.47.18,5.93a2.33,2.33,0,0,0,1.06-1.47s.92,2-.19,3.14c-1.11.74-.22,2.46-.25,5.16s-.16,6.35-.14,8.43.1,5.57.1,7.23a39.58,39.58,0,0,1-.77,5.36A29.92,29.92,0,0,1,145.84,215c-2.43-6.23-3-8.17-.88-12.94s7.63-9.89,7.63-9.89l.21-.54s-1.13-.13-1.31-2S151.47,186,153.11,185.54Z" />
      </g>
      <path class="BUNTAI_DEER_JEWELRY_DEER_JEWELRY_27_cls-2" d="M302,181.55c1.36,0,1.14-1.86,1.14-1.86h0a3.64,3.64,0,0,1-1.67.35,1.54,1.54,0,0,1-.75-.18C300.67,180,300.64,181.55,302,181.55Z" />
      <path class="BUNTAI_DEER_JEWELRY_DEER_JEWELRY_27_cls-2" d="M299.62,174.23c-.5,1.66-.4,4.83,1.05,5.63a1.54,1.54,0,0,0,.75.18,3.64,3.64,0,0,0,1.67-.35c1.25-.6,1.88-2,1.79-4.16a6.72,6.72,0,0,0-.38-2.09,4.54,4.54,0,0,0-1.21-1.89,1.56,1.56,0,0,0-1.12-.46,1.9,1.9,0,0,0-1.35.8,2.9,2.9,0,0,0,.6.11h0a3.45,3.45,0,0,1,1.53,2.35c.38,1.82-.26,3.86-1.18,3.86s-1-2.37-1-3.63h-.08A4.54,4.54,0,0,1,299.62,174.23Z" />
      <path class="BUNTAI_DEER_JEWELRY_DEER_JEWELRY_27_cls-2" d="M303.66,165.35c-.52-.2-2.72-.38-2.76-.13s.73,1.31.67,1.52a7.32,7.32,0,0,1,1.61.91,2.75,2.75,0,0,1,.71,3.23,2,2,0,0,1-.6.67,4.54,4.54,0,0,1,1.21,1.89A4.88,4.88,0,0,0,303.66,165.35Z" />
      <path class="BUNTAI_DEER_JEWELRY_DEER_JEWELRY_27_cls-2" d="M297.43,171.29a3.92,3.92,0,0,0,2.19,2.94,4.16,4.16,0,0,0,1.13.34l.08,0a4.31,4.31,0,0,0,2.15-.23,3.47,3.47,0,0,0-1.52-2.35h0a3,3,0,0,1-.6-.11,1.82,1.82,0,0,1-1.27-1.1,1.78,1.78,0,0,1-.07-.47c0-1.94.76-2,.76-2s0-.1.09-.26a2.48,2.48,0,0,0-1.93-1.63A6.65,6.65,0,0,0,297.43,171.29Z" />
      <path class="BUNTAI_DEER_JEWELRY_DEER_JEWELRY_27_cls-3" d="M304.5,173.44a4.88,4.88,0,0,0-.84-8.09c-.48-.23-1.08-.53-3.38,0a3,3,0,0,1,1.45,1.58,2.56,2.56,0,0,1,1.45.72,2.75,2.75,0,0,1,.71,3.23,2,2,0,0,1-.6.67" />
      <path class="BUNTAI_DEER_JEWELRY_DEER_JEWELRY_27_cls-3" d="M303,174.36a4.31,4.31,0,0,1-2.15.23l-.08,0a4.16,4.16,0,0,1-1.13-.34,3.92,3.92,0,0,1-2.19-2.94,6.65,6.65,0,0,1,1-4.89" />
      <path class="BUNTAI_DEER_JEWELRY_DEER_JEWELRY_27_cls-3" d="M300.33,168c-.05.16-.09.26-.09.26s-.73.09-.76,2a1.78,1.78,0,0,0,.07.47,1.82,1.82,0,0,0,1.27,1.1,3,3,0,0,0,.6.11" />
      <path class="BUNTAI_DEER_JEWELRY_DEER_JEWELRY_27_cls-3" d="M299.62,174.23c-.5,1.66-.4,4.83,1.05,5.63a1.54,1.54,0,0,0,.75.18,3.64,3.64,0,0,0,1.67-.35c1.25-.6,1.88-2,1.79-4.16a6.72,6.72,0,0,0-.38-2.09,4.54,4.54,0,0,0-1.21-1.89,1.56,1.56,0,0,0-1.12-.46,1.9,1.9,0,0,0-1.35.8" />
      <path class="BUNTAI_DEER_JEWELRY_DEER_JEWELRY_27_cls-3" d="M300.83,174.59c-.06,1.26-.05,3.63,1,3.63s1.56-2,1.18-3.86a3.45,3.45,0,0,0-1.53-2.35h0" />
      <path class="BUNTAI_DEER_JEWELRY_DEER_JEWELRY_27_cls-3" d="M303.09,179.69s.22,1.86-1.14,1.86-1.28-1.58-1.28-1.69h0" />
      <path class="BUNTAI_DEER_JEWELRY_DEER_JEWELRY_27_cls-3" d="M300.19,170a2.55,2.55,0,0,0,.28-1.16,2.26,2.26,0,0,0-.14-.83,2.48,2.48,0,0,0-1.93-1.63,2.85,2.85,0,0,0-.42,0,1.7,1.7,0,0,0-1.69,1.26" />
      <line class="BUNTAI_DEER_JEWELRY_DEER_JEWELRY_27_cls-4" x1="301.89" y1="185.54" x2="301.89" y2="181.71" />
      <path class="BUNTAI_DEER_JEWELRY_DEER_JEWELRY_27_cls-5" d="M302,218.18c-.56,3.45-.83,4.46-.12,7.48,0,0-1.13-1.25-2.59-3.22A30.9,30.9,0,0,1,302,218.18Z" />
      <path class="BUNTAI_DEER_JEWELRY_DEER_JEWELRY_27_cls-5" d="M302.11,217.15a6.69,6.69,0,0,1,3.63,3.46,54.25,54.25,0,0,1-3.9,5c-.71-3-.44-4,.12-7.48C302,217.85,302.06,217.51,302.11,217.15Z" />
      <path class="BUNTAI_DEER_JEWELRY_DEER_JEWELRY_27_cls-5" d="M302.35,214.31c-.05,1-.14,2-.24,2.84-.05.36-.1.7-.15,1a30.9,30.9,0,0,0-2.71,4.26c-.61-.81-1.28-1.75-2-2.78C298.55,216.72,302.35,214.31,302.35,214.31Z" />
      <path class="BUNTAI_DEER_JEWELRY_DEER_JEWELRY_27_cls-5" d="M302.43,211.31c0,1,0,2-.08,3,0,0-3.8,2.41-5.06,5.35-.61-.94-1.22-1.93-1.8-3,.26-2,1.45-2.76,3.58-4.16a11.82,11.82,0,0,0,3.31-3.4C302.41,209.81,302.43,210.55,302.43,211.31Z" />
      <path class="BUNTAI_DEER_JEWELRY_DEER_JEWELRY_27_cls-5" d="M302.43,211.31s4.27,1.94,5.35,6.08c-.66,1.15-1.36,2.23-2,3.22a6.69,6.69,0,0,0-3.63-3.46c.1-.88.19-1.84.24-2.84s.08-2,.08-3Z" />
      <path class="BUNTAI_DEER_JEWELRY_DEER_JEWELRY_27_cls-5" d="M306.27,207.25c2.84.84,3.8,1.28,4.53,3.1a22.43,22.43,0,0,1-1.42,4S308.85,209.85,306.27,207.25Z" />
      <path class="BUNTAI_DEER_JEWELRY_DEER_JEWELRY_27_cls-5" d="M306.27,207.25c2.58,2.6,3.11,7.06,3.11,7.06a32.08,32.08,0,0,1-1.6,3.08c-1.08-4.14-5.35-6.08-5.35-6.08h0c0-.76,0-1.5-.05-2.19a23.28,23.28,0,0,0-.26-2.73c-.09-.57-.16-1.18-.21-1.79a6.61,6.61,0,0,0,3.91,2.52Z" />
      <path class="BUNTAI_DEER_JEWELRY_DEER_JEWELRY_27_cls-5" d="M292.75,209.77a6.42,6.42,0,0,1,4.62-3.07,15.8,15.8,0,0,0-3.52,6.59,19.83,19.83,0,0,1-1.1-3.52Z" />
      <path class="BUNTAI_DEER_JEWELRY_DEER_JEWELRY_27_cls-5" d="M301.91,204.6c0,.61.12,1.22.21,1.79a23.28,23.28,0,0,1,.26,2.73,11.82,11.82,0,0,1-3.31,3.4c-2.13,1.4-3.32,2.16-3.58,4.16a32.89,32.89,0,0,1-1.64-3.38h0a15.8,15.8,0,0,1,3.52-6.59h0q.58-.12,1.2-.21a4.47,4.47,0,0,0,3.27-2A.64.64,0,0,0,301.91,204.6Z" />
      <path class="BUNTAI_DEER_JEWELRY_DEER_JEWELRY_27_cls-5" d="M301.78,191.63c-.48.48-3.79,4-1.82,6.8,0,0-3.48,1-7,5.6,1.81-6.3,8.11-11.8,8.81-12.4Z" />
      <path class="BUNTAI_DEER_JEWELRY_DEER_JEWELRY_27_cls-5" d="M301.91,204.6a.64.64,0,0,1-.07-.12,4.47,4.47,0,0,1-3.27,2q-.61.09-1.2.21h0a6.42,6.42,0,0,0-4.62,3.07A11.4,11.4,0,0,1,293,204c3.52-4.57,7-5.6,7-5.6a5.29,5.29,0,0,0,1.88,1.54A39.59,39.59,0,0,0,301.91,204.6Z" />
      <path class="BUNTAI_DEER_JEWELRY_DEER_JEWELRY_27_cls-5" d="M311.2,207.28a13.27,13.27,0,0,1-.4,3.07c-.73-1.82-1.69-2.26-4.53-3.1l-.45-.13a6.61,6.61,0,0,1-3.91-2.52,39.59,39.59,0,0,1-.07-4.63,5.24,5.24,0,0,0,1.87-1.54s3.29.32,6.51,4.16A12.83,12.83,0,0,1,311.2,207.28Z" />
      <path class="BUNTAI_DEER_JEWELRY_DEER_JEWELRY_27_cls-5" d="M301.9,191.63c.65.55,6.07,5.27,8.32,11-3.22-3.84-6.51-4.16-6.51-4.16,2-2.79-1.34-6.32-1.82-6.8Z" />
      <path class="BUNTAI_DEER_JEWELRY_DEER_JEWELRY_27_cls-2" d="M301.89,191.63c.48.48,3.8,4,1.82,6.8a5.24,5.24,0,0,1-1.87,1.54,5.29,5.29,0,0,1-1.88-1.54c-2-2.79,1.34-6.32,1.82-6.8h.11Z" />
      <path class="BUNTAI_DEER_JEWELRY_DEER_JEWELRY_27_cls-6" d="M301.84,187.43c.71,0,1.3.95,1.3,2.1a2.42,2.42,0,0,1-.75,1.9h0a1.21,1.21,0,0,1-.55.14,1.31,1.31,0,0,1-.55-.13h0a2.43,2.43,0,0,1-.74-1.9C300.54,188.38,301.12,187.43,301.84,187.43Z" />
      <path class="BUNTAI_DEER_JEWELRY_DEER_JEWELRY_27_cls-2" d="M303.71,188.56a3.18,3.18,0,0,1-1.32,2.87,2.42,2.42,0,0,0,.75-1.9c0-1.15-.59-2.1-1.3-2.1s-1.3.95-1.3,2.1a2.43,2.43,0,0,0,.74,1.9,3.18,3.18,0,0,1-1.32-2.87c0-1.66.84-3,1.88-3S303.71,186.9,303.71,188.56Z" />
      <path class="BUNTAI_DEER_JEWELRY_DEER_JEWELRY_27_cls-7" d="M293.85,213.3a32.89,32.89,0,0,0,1.64,3.38c.58,1,1.19,2,1.8,3s1.35,2,2,2.78c1.46,2,2.59,3.22,2.59,3.22a54.25,54.25,0,0,0,3.9-5c.68-1,1.38-2.07,2-3.22a32.08,32.08,0,0,0,1.6-3.08,22.43,22.43,0,0,0,1.42-4,13.27,13.27,0,0,0,.4-3.07,12.83,12.83,0,0,0-1-4.69c-2.25-5.69-7.67-10.41-8.32-11l0,0h0" />
      <path class="BUNTAI_DEER_JEWELRY_DEER_JEWELRY_27_cls-7" d="M292.75,209.77a19.83,19.83,0,0,0,1.1,3.52" />
      <path class="BUNTAI_DEER_JEWELRY_DEER_JEWELRY_27_cls-7" d="M301.82,191.59h0l0,0c-.7.6-7,6.1-8.81,12.4a11.4,11.4,0,0,0-.21,5.74" />
      <path class="BUNTAI_DEER_JEWELRY_DEER_JEWELRY_27_cls-7" d="M301.84,191.57l0,0h0l0,0c-.48.48-3.79,4-1.82,6.8a5.29,5.29,0,0,0,1.88,1.54,5.24,5.24,0,0,0,1.87-1.54c2-2.79-1.34-6.32-1.82-6.8l0,0h0Z" />
      <path class="BUNTAI_DEER_JEWELRY_DEER_JEWELRY_27_cls-7" d="M301.84,200a39.59,39.59,0,0,0,.07,4.63c0,.61.12,1.22.21,1.79a23.28,23.28,0,0,1,.26,2.73c0,.69.05,1.43.05,2.19,0,1,0,2-.08,3s-.14,2-.24,2.84c-.05.36-.1.7-.15,1-.56,3.45-.83,4.46-.12,7.48" />
      <path class="BUNTAI_DEER_JEWELRY_DEER_JEWELRY_27_cls-7" d="M300,198.43s-3.48,1-7,5.6h0" />
      <path class="BUNTAI_DEER_JEWELRY_DEER_JEWELRY_27_cls-7" d="M297.37,206.7q.58-.12,1.2-.21a4.47,4.47,0,0,0,3.27-2,.64.64,0,0,0,.07.12,6.61,6.61,0,0,0,3.91,2.52l.45.13c2.84.84,3.8,1.28,4.53,3.1" />
      <path class="BUNTAI_DEER_JEWELRY_DEER_JEWELRY_27_cls-7" d="M292.75,209.77h0a6.42,6.42,0,0,1,4.62-3.07" />
      <path class="BUNTAI_DEER_JEWELRY_DEER_JEWELRY_27_cls-7" d="M293.85,213.3h0a15.8,15.8,0,0,1,3.52-6.59h0" />
      <path class="BUNTAI_DEER_JEWELRY_DEER_JEWELRY_27_cls-7" d="M302.38,209.12a11.82,11.82,0,0,1-3.31,3.4c-2.13,1.4-3.32,2.16-3.58,4.16" />
      <path class="BUNTAI_DEER_JEWELRY_DEER_JEWELRY_27_cls-7" d="M302.35,214.31s-3.8,2.41-5.06,5.35" />
      <path class="BUNTAI_DEER_JEWELRY_DEER_JEWELRY_27_cls-7" d="M302,218.18a30.9,30.9,0,0,0-2.71,4.26" />
      <path class="BUNTAI_DEER_JEWELRY_DEER_JEWELRY_27_cls-7" d="M303.71,198.43s3.29.32,6.51,4.16" />
      <path class="BUNTAI_DEER_JEWELRY_DEER_JEWELRY_27_cls-7" d="M309.38,214.31s-.53-4.46-3.11-7.06" />
      <path class="BUNTAI_DEER_JEWELRY_DEER_JEWELRY_27_cls-7" d="M302.43,211.31s4.27,1.94,5.35,6.08" />
      <path class="BUNTAI_DEER_JEWELRY_DEER_JEWELRY_27_cls-7" d="M302.11,217.15a6.69,6.69,0,0,1,3.63,3.46" />
      <path class="BUNTAI_DEER_JEWELRY_DEER_JEWELRY_27_cls-7" d="M301.28,191.43a3.18,3.18,0,0,1-1.32-2.87c0-1.66.84-3,1.88-3s1.87,1.36,1.87,3a3.18,3.18,0,0,1-1.32,2.87" />
      <path class="BUNTAI_DEER_JEWELRY_DEER_JEWELRY_27_cls-7" d="M302.39,191.43a1.21,1.21,0,0,1-.55.14,1.31,1.31,0,0,1-.55-.13" />
      <path class="BUNTAI_DEER_JEWELRY_DEER_JEWELRY_27_cls-7" d="M301.28,191.43a2.43,2.43,0,0,1-.74-1.9c0-1.15.58-2.1,1.3-2.1s1.3.95,1.3,2.1a2.42,2.42,0,0,1-.75,1.9h0a.9.9,0,0,1-.49.2h-.13a.9.9,0,0,1-.48-.19Z" />
      <g class="BUNTAI_DEER_JEWELRY_DEER_JEWELRY_27_cls-8">
        <path d="M301.84,185.54a2,2,0,0,1,0,1.89,6.89,6.89,0,0,1-.07,4.2c.57,4.78.73,6.47-.18,5.93a2.29,2.29,0,0,1-1-1.47s-.92,2,.18,3.14c1.12.74.22,2.46.26,5.16s.15,6.35.13,8.43-.1,5.57-.1,7.23a39.58,39.58,0,0,0,.77,5.36A29.92,29.92,0,0,0,309.1,215c2.44-6.23,3-8.17.88-12.94s-7.63-9.89-7.63-9.89l-.21-.54s1.13-.13,1.32-2S303.47,186,301.84,185.54Z" />
      </g>
    </g>
  </g>
</svg>