<svg id="jewelry" xmlns="http://www.w3.org/2000/svg" viewBox="0 0 432 432">
  <defs>
    <style>.BUNTAI_DEER_JEWELRY_DEER_JEWELRY_21_cls-1{fill:#7367ff;}.BUNTAI_DEER_JEWELRY_DEER_JEWELRY_21_cls-2{fill:#ff5e63;}.BUNTAI_DEER_JEWELRY_DEER_JEWELRY_21_cls-3{fill:#fff;}.BUNTAI_DEER_JEWELRY_DEER_JEWELRY_21_cls-4{fill:none;stroke:#000;stroke-linecap:round;stroke-linejoin:round;stroke-width:0.91px;}.BUNTAI_DEER_JEWELRY_DEER_JEWELRY_21_cls-5{fill:#c7a858;}</style>
  </defs>
  <path class="BUNTAI_DEER_JEWELRY_DEER_JEWELRY_21_cls-1" d="M294.25,219.19l-1,29.45H305a19.33,19.33,0,0,0-10.69-29.45Z" />
  <circle class="BUNTAI_DEER_JEWELRY_DEER_JEWELRY_21_cls-2" cx="302.83" cy="210.98" r="4.17" />
  <path class="BUNTAI_DEER_JEWELRY_DEER_JEWELRY_21_cls-3" d="M302.7,199.45a1.09,1.09,0,0,0,1.09-1.09h0a1.09,1.09,0,0,0-1.09-1.09,1.08,1.08,0,0,0-1.09,1.09h0A1.08,1.08,0,0,0,302.7,199.45Zm0-3.38a2.3,2.3,0,0,1,2.29,2.29h5.48l1.64,50.28H305a19.33,19.33,0,0,0-10.69-29.45l.67-20.83h5.47A2.3,2.3,0,0,1,302.7,196.07Zm.13,19.08a4.17,4.17,0,1,0-4.17-4.17A4.17,4.17,0,0,0,302.83,215.15Z" />
  <polyline class="BUNTAI_DEER_JEWELRY_DEER_JEWELRY_21_cls-4" points="302.69 186.95 302.69 196.07 302.69 197.27 302.69 198.36" />
  <path class="BUNTAI_DEER_JEWELRY_DEER_JEWELRY_21_cls-4" d="M294.26,219.19l.67-20.83h5.47a2.3,2.3,0,0,1,4.59,0h5.48l1.64,50.28H305" />
  <path class="BUNTAI_DEER_JEWELRY_DEER_JEWELRY_21_cls-4" d="M303.79,198.36a1.09,1.09,0,0,0-1.09-1.09,1.08,1.08,0,0,0-1.09,1.09" />
  <path class="BUNTAI_DEER_JEWELRY_DEER_JEWELRY_21_cls-4" d="M303.79,198.36h0a1.09,1.09,0,1,1-2.18,0h0" />
  <path class="BUNTAI_DEER_JEWELRY_DEER_JEWELRY_21_cls-4" d="M294.26,219.19h0l-1,29.45H305a19.33,19.33,0,0,0-10.69-29.45Z" />
  <circle class="BUNTAI_DEER_JEWELRY_DEER_JEWELRY_21_cls-4" cx="302.83" cy="210.98" r="4.17" />
  <path class="BUNTAI_DEER_JEWELRY_DEER_JEWELRY_21_cls-5" d="M302.78,187.09c1.75,0,1.47-2.39,1.47-2.39h0a4.7,4.7,0,0,1-2.15.46,2,2,0,0,1-1-.24C301.13,185.05,301.1,187.09,302.78,187.09Z" />
  <path class="BUNTAI_DEER_JEWELRY_DEER_JEWELRY_21_cls-5" d="M299.78,177.68c-.64,2.13-.51,6.21,1.36,7.23a2,2,0,0,0,1,.24,4.7,4.7,0,0,0,2.15-.46c1.6-.77,2.41-2.59,2.3-5.34a8.77,8.77,0,0,0-.5-2.69,5.64,5.64,0,0,0-1.56-2.42,2,2,0,0,0-1.43-.6,2.4,2.4,0,0,0-1.73,1,3.75,3.75,0,0,0,.77.14h0a4.39,4.39,0,0,1,2,3c.49,2.34-.33,5-1.51,5s-1.33-3.05-1.25-4.67l-.1,0A5.67,5.67,0,0,1,299.78,177.68Z" />
  <path class="BUNTAI_DEER_JEWELRY_DEER_JEWELRY_21_cls-5" d="M305,166.27c-.67-.27-3.5-.5-3.56-.17s.95,1.69.88,2a10,10,0,0,1,2.05,1.17s2.14,1.86.92,4.15a2.43,2.43,0,0,1-.78.87,5.64,5.64,0,0,1,1.56,2.42A6.27,6.27,0,0,0,305,166.27Z" />
  <path class="BUNTAI_DEER_JEWELRY_DEER_JEWELRY_21_cls-5" d="M297,173.9a5.05,5.05,0,0,0,2.81,3.78,5.56,5.56,0,0,0,1.46.44l.1,0a5.34,5.34,0,0,0,2.76-.3,4.44,4.44,0,0,0-2-3h0a4.13,4.13,0,0,1-.78-.15,2.28,2.28,0,0,1-1.62-1.41,2,2,0,0,1-.09-.61c0-2.49,1-2.6,1-2.6a3.53,3.53,0,0,0,.12-.34,3.19,3.19,0,0,0-2.48-2.09A8.47,8.47,0,0,0,297,173.9Z" />
  <path class="BUNTAI_DEER_JEWELRY_DEER_JEWELRY_21_cls-4" d="M306.05,176.66A6.27,6.27,0,0,0,305,166.27c-.63-.3-1.39-.68-4.35,0a3.78,3.78,0,0,1,1.87,2,3.26,3.26,0,0,1,1.85.92s2.14,1.86.92,4.15a2.43,2.43,0,0,1-.78.87" />
  <path class="BUNTAI_DEER_JEWELRY_DEER_JEWELRY_21_cls-4" d="M304.1,177.84a5.34,5.34,0,0,1-2.76.3l-.1,0a5.56,5.56,0,0,1-1.46-.44A5.05,5.05,0,0,1,297,173.9a8.47,8.47,0,0,1,1.25-6.28" />
  <path class="BUNTAI_DEER_JEWELRY_DEER_JEWELRY_21_cls-4" d="M300.7,169.71a3.53,3.53,0,0,1-.12.34s-.94.11-1,2.6a2,2,0,0,0,.09.61,2.28,2.28,0,0,0,1.62,1.41,4.13,4.13,0,0,0,.78.15" />
  <path class="BUNTAI_DEER_JEWELRY_DEER_JEWELRY_21_cls-4" d="M299.78,177.68c-.64,2.13-.51,6.21,1.36,7.23a2,2,0,0,0,1,.24,4.7,4.7,0,0,0,2.15-.46c1.6-.77,2.41-2.59,2.3-5.34a8.77,8.77,0,0,0-.5-2.69,5.64,5.64,0,0,0-1.56-2.42,2,2,0,0,0-1.43-.6,2.4,2.4,0,0,0-1.73,1" />
  <path class="BUNTAI_DEER_JEWELRY_DEER_JEWELRY_21_cls-4" d="M301.34,178.14c-.08,1.62-.07,4.67,1.25,4.67s2-2.63,1.51-5a4.39,4.39,0,0,0-2-3h0" />
  <path class="BUNTAI_DEER_JEWELRY_DEER_JEWELRY_21_cls-4" d="M304.25,184.7s.28,2.39-1.47,2.39-1.65-2-1.64-2.18h0" />
  <path class="BUNTAI_DEER_JEWELRY_DEER_JEWELRY_21_cls-4" d="M300.52,172.26a3.22,3.22,0,0,0,.36-1.49,3.11,3.11,0,0,0-.18-1.06,3.19,3.19,0,0,0-2.48-2.09,3.31,3.31,0,0,0-.55-.05,2.18,2.18,0,0,0-2.16,1.61" />
</svg>