<svg xmlns="http://www.w3.org/2000/svg" viewBox="0 0 432 432">
  <defs>
    <style>.BUNTAI_DEER_JEWELRY_DEER_JEWELRY_30_cls-1{isolation:isolate;}.BUNTAI_DEER_JEWELRY_DEER_JEWELRY_30_cls-2{fill:#c7a858;}.BUNTAI_DEER_JEWELRY_DEER_JEWELRY_30_cls-3,.BUNTAI_DEER_JEWELRY_DEER_JEWELRY_30_cls-4,.BUNTAI_DEER_JEWELRY_DEER_JEWELRY_30_cls-6{fill:none;stroke:#000;stroke-linecap:round;stroke-linejoin:round;}.BUNTAI_DEER_JEWELRY_DEER_JEWELRY_30_cls-3{stroke-width:0.88px;}.BUNTAI_DEER_JEWELRY_DEER_JEWELRY_30_cls-4{stroke-width:0.82px;}.BUNTAI_DEER_JEWELRY_DEER_JEWELRY_30_cls-5{fill:#10b3c7;}.BUNTAI_DEER_JEWELRY_DEER_JEWELRY_30_cls-6{stroke-width:0.92px;}.BUNTAI_DEER_JEWELRY_DEER_JEWELRY_30_cls-7{opacity:0.43;mix-blend-mode:multiply;}</style>
  </defs>
  <g class="BUNTAI_DEER_JEWELRY_DEER_JEWELRY_30_cls-1">
    <g id="jewelry">
      <path class="BUNTAI_DEER_JEWELRY_DEER_JEWELRY_30_cls-2" d="M151.72,186.15c-1.7,0-1.42-2.32-1.42-2.32h0a4.62,4.62,0,0,0,2.08.44,2,2,0,0,0,.94-.24C153.32,184.17,153.35,186.15,151.72,186.15Z" />
      <path class="BUNTAI_DEER_JEWELRY_DEER_JEWELRY_30_cls-2" d="M154.64,177c.62,2.07.49,6-1.32,7a2,2,0,0,1-.94.24,4.62,4.62,0,0,1-2.08-.44c-1.56-.76-2.35-2.52-2.24-5.2a8.32,8.32,0,0,1,.48-2.61,5.57,5.57,0,0,1,1.51-2.36,2,2,0,0,1,1.39-.57,2.34,2.34,0,0,1,1.69,1,3,3,0,0,1-.75.14h0a0,0,0,0,1,0,0,4.28,4.28,0,0,0-1.9,2.93c-.48,2.27.32,4.83,1.47,4.83s1.29-3,1.21-4.55h.1A5.77,5.77,0,0,0,154.64,177Z" />
      <path class="BUNTAI_DEER_JEWELRY_DEER_JEWELRY_30_cls-2" d="M149.58,165.92c.65-.25,3.41-.48,3.46-.16s-.92,1.64-.85,1.89a9.35,9.35,0,0,0-2,1.14s-2.08,1.81-.88,4a2.32,2.32,0,0,0,.74.84,5.57,5.57,0,0,0-1.51,2.36A6.09,6.09,0,0,1,149.58,165.92Z" />
      <path class="BUNTAI_DEER_JEWELRY_DEER_JEWELRY_30_cls-2" d="M157.36,173.34a4.89,4.89,0,0,1-2.72,3.67,5.77,5.77,0,0,1-1.42.43h-.1a5.25,5.25,0,0,1-2.68-.28,4.29,4.29,0,0,1,1.9-2.94h0a3.79,3.79,0,0,0,.76-.15,2.19,2.19,0,0,0,1.57-1.37,1.87,1.87,0,0,0,.1-.59c0-2.41-.95-2.53-.95-2.53a2.76,2.76,0,0,1-.12-.33,3.11,3.11,0,0,1,2.41-2A8.19,8.19,0,0,1,157.36,173.34Z" />
      <path class="BUNTAI_DEER_JEWELRY_DEER_JEWELRY_30_cls-3" d="M148.54,176a6.09,6.09,0,0,1,1-10.1c.61-.29,1.35-.66,4.23,0a3.71,3.71,0,0,0-1.82,2,3.15,3.15,0,0,0-1.8.9s-2.08,1.81-.88,4a2.32,2.32,0,0,0,.74.84" />
      <path class="BUNTAI_DEER_JEWELRY_DEER_JEWELRY_30_cls-3" d="M150.44,177.17a5.25,5.25,0,0,0,2.68.28h.1a5.77,5.77,0,0,0,1.42-.43,4.89,4.89,0,0,0,2.72-3.67,8.19,8.19,0,0,0-1.21-6.11" />
      <path class="BUNTAI_DEER_JEWELRY_DEER_JEWELRY_30_cls-3" d="M153.74,169.26a2.76,2.76,0,0,0,.12.33s.91.12.95,2.53a1.87,1.87,0,0,1-.1.59,2.19,2.19,0,0,1-1.57,1.37,3.79,3.79,0,0,1-.76.15" />
      <path class="BUNTAI_DEER_JEWELRY_DEER_JEWELRY_30_cls-3" d="M154.64,177c.62,2.07.49,6-1.32,7a2,2,0,0,1-.94.24,4.62,4.62,0,0,1-2.08-.44c-1.56-.76-2.35-2.52-2.24-5.2a8.32,8.32,0,0,1,.48-2.61,5.57,5.57,0,0,1,1.51-2.36,2,2,0,0,1,1.39-.57,2.34,2.34,0,0,1,1.69,1" />
      <path class="BUNTAI_DEER_JEWELRY_DEER_JEWELRY_30_cls-3" d="M153.12,177.45c.08,1.58.07,4.55-1.21,4.55s-1.95-2.56-1.47-4.83a4.28,4.28,0,0,1,1.9-2.93,0,0,0,0,0,0,0h0" />
      <path class="BUNTAI_DEER_JEWELRY_DEER_JEWELRY_30_cls-3" d="M150.3,183.83s-.28,2.32,1.42,2.32,1.6-2,1.6-2.12h0" />
      <path class="BUNTAI_DEER_JEWELRY_DEER_JEWELRY_30_cls-3" d="M153.92,171.75a3.11,3.11,0,0,1-.36-1.45,3.24,3.24,0,0,1,.18-1,3.11,3.11,0,0,1,2.41-2,3.08,3.08,0,0,1,.53,0,2.12,2.12,0,0,1,2.11,1.56" />
      <line class="BUNTAI_DEER_JEWELRY_DEER_JEWELRY_30_cls-4" x1="151.67" y1="190.96" x2="151.67" y2="186.18" />
      <path class="BUNTAI_DEER_JEWELRY_DEER_JEWELRY_30_cls-2" d="M151.86,205.05a6,6,0,1,0-6-6A6,6,0,0,0,151.86,205.05Zm7.93-6a7.64,7.64,0,0,1-.19,1.73,7.79,7.79,0,0,1-1.14,2.68,7.88,7.88,0,0,1-4.25,3.17,7.89,7.89,0,0,1-2.34.35h0A8,8,0,0,1,146.7,205a8,8,0,0,1-1.69-2,7.69,7.69,0,0,1-1-2.67,7.42,7.42,0,0,1-.12-1.34,7.93,7.93,0,0,1,7.84-7.93h.09A7.93,7.93,0,0,1,159.79,199Z" />
      <path class="BUNTAI_DEER_JEWELRY_DEER_JEWELRY_30_cls-5" d="M168.28,208a8.45,8.45,0,0,1,.61,2.59,27.67,27.67,0,0,0-5.93-7.34h0l-.6-.51c.18,0,.37.05.54.09a7.87,7.87,0,0,1,3.68,1.78l-1.47-.37A8.39,8.39,0,0,1,168.28,208Z" />
      <path class="BUNTAI_DEER_JEWELRY_DEER_JEWELRY_30_cls-5" d="M168.89,210.62h0c0,.23,0,.45,0,.67a28.67,28.67,0,0,1-2.95-2.38l-.13.12a10.66,10.66,0,0,0-1.74-1.55h0a22.63,22.63,0,0,1-1.12-4.2A27.67,27.67,0,0,1,168.89,210.62Z" />
      <path class="BUNTAI_DEER_JEWELRY_DEER_JEWELRY_30_cls-5" d="M168,214.51a19.18,19.18,0,0,1-.2,4.54c-.2-.19-.4-.38-.61-.56a28.33,28.33,0,0,0-6.06-12.33V206a11.4,11.4,0,0,1,3,1.49h0a10.66,10.66,0,0,1,1.74,1.55c-.42,0-.85.05-1.26.09a4,4,0,0,1,2.56,2.09A8.18,8.18,0,0,1,168,214.51Z" />
      <path class="BUNTAI_DEER_JEWELRY_DEER_JEWELRY_30_cls-5" d="M161.1,206.16a28.33,28.33,0,0,1,6.06,12.33c-.71-.6-1.48-1.15-2.2-1.75a9.86,9.86,0,0,1-.76-.69c0-.45-.1-.9-.18-1.34a4.94,4.94,0,0,0-2.33-3.38l1.13,0a9,9,0,0,0-1.74-1.95C161.09,208.28,161.09,207.22,161.1,206.16Z" />
      <path class="BUNTAI_DEER_JEWELRY_DEER_JEWELRY_30_cls-5" d="M164.2,216.05a18.67,18.67,0,0,1-.35,5.82,35.51,35.51,0,0,0-5.55-14.14h0a9.45,9.45,0,0,1,2.77,1.63,9,9,0,0,1,1.74,1.95l-1.13,0a4.94,4.94,0,0,1,2.33,3.38C164.1,215.15,164.16,215.6,164.2,216.05Z" />
      <path class="BUNTAI_DEER_JEWELRY_DEER_JEWELRY_30_cls-5" d="M163.85,221.87h0c-.13.61-.29,1.21-.48,1.81a20.77,20.77,0,0,0-3.37-4.53,6.18,6.18,0,0,0-.75-2.34,17.21,17.21,0,0,0-1.93-2.8l1,.19.42.07c-.18-.33-.36-.67-.56-1a18.44,18.44,0,0,1,.16-5.55A35.51,35.51,0,0,1,163.85,221.87Z" />
      <path class="BUNTAI_DEER_JEWELRY_DEER_JEWELRY_30_cls-5" d="M158.14,213.28c.2.32.38.66.56,1l-.42-.07-1-.19a17.21,17.21,0,0,1,1.93,2.8,6.18,6.18,0,0,1,.75,2.34c.31,2.58-.83,5.46-2.41,7.83a55.09,55.09,0,0,0-2.4-17.49l0-.08A21.48,21.48,0,0,1,158.14,213.28Z" />
      <path class="BUNTAI_DEER_JEWELRY_DEER_JEWELRY_30_cls-5" d="M155.34,221.65a27.54,27.54,0,0,1-.74-7.89,1.92,1.92,0,0,0-.27.11,11.73,11.73,0,0,0-.3-1.79c.21-.49.46-1,.69-1.45a7.59,7.59,0,0,0,.47-1.14,55.09,55.09,0,0,1,2.4,17.49c-.23.34-.46.67-.7,1A48.32,48.32,0,0,0,155.34,221.65Z" />
      <path class="BUNTAI_DEER_JEWELRY_DEER_JEWELRY_30_cls-5" d="M154.33,213.87a26,26,0,0,1,.09,2.79,4,4,0,0,0-2.09.05,8,8,0,0,1,1.7,1.53,25,25,0,0,1-2.45,10.39,11,11,0,0,1-2.26-4.39,22.11,22.11,0,0,1-.27-6.7c.4-.48.88-1,1.29-1.49-.44-.22-.8-.43-1.23-.64,0-.45,0-.9,0-1.37a5,5,0,0,1,.11-1.4,2.49,2.49,0,0,1,.26-.61,20.67,20.67,0,0,1,2.33-3.09l.22-.24a6.41,6.41,0,0,1,1.41,1.82,7.19,7.19,0,0,1,.6,1.56A11.73,11.73,0,0,1,154.33,213.87Z" />
      <path class="BUNTAI_DEER_JEWELRY_DEER_JEWELRY_30_cls-5" d="M145.43,227a54.93,54.93,0,0,1,2.4-17.47,10.48,10.48,0,0,0,.47,1.14,20,20,0,0,1,.91,2,5,5,0,0,0-.11,1.4c-.23-.1-.46-.2-.68-.28a27.19,27.19,0,0,1-.75,7.89,51.7,51.7,0,0,0-1.54,6.31c-.24-.31-.48-.64-.7-1h0Z" />
      <path class="BUNTAI_DEER_JEWELRY_DEER_JEWELRY_30_cls-5" d="M147.83,209.49a54.93,54.93,0,0,0-2.4,17.47c-1.59-2.38-2.72-5.23-2.41-7.81a6.38,6.38,0,0,1,.73-2.34,19.39,19.39,0,0,1,1.94-2.8c-.49.07-.88.19-1.37.26.17-.33.36-.67.55-1a22.51,22.51,0,0,1,2.93-3.87Z" />
      <path class="BUNTAI_DEER_JEWELRY_DEER_JEWELRY_30_cls-5" d="M144.72,207.73a18.44,18.44,0,0,1,.15,5.55c-.19.32-.38.66-.55,1,.49-.07.88-.19,1.37-.26a19.39,19.39,0,0,0-1.94,2.8,6.38,6.38,0,0,0-.73,2.34,20.69,20.69,0,0,0-3.37,4.53c-.19-.6-.35-1.21-.48-1.81A35.51,35.51,0,0,1,144.72,207.73Z" />
      <path class="BUNTAI_DEER_JEWELRY_DEER_JEWELRY_30_cls-5" d="M144.72,207.73a35.51,35.51,0,0,0-5.55,14.14,18.67,18.67,0,0,1-.35-5.82c.05-.45.1-.9.18-1.34a4.94,4.94,0,0,1,2.33-3.38l-1.13,0a9,9,0,0,1,1.74-1.95,9.37,9.37,0,0,1,2.78-1.63h0Z" />
      <path class="BUNTAI_DEER_JEWELRY_DEER_JEWELRY_30_cls-5" d="M141.33,211.33a4.94,4.94,0,0,0-2.33,3.38c-.08.44-.13.89-.18,1.34-.25.25-.5.47-.76.69-.73.6-1.5,1.15-2.21,1.75a28.56,28.56,0,0,1,6.06-12.33l0,3.18a9,9,0,0,0-1.74,1.95Z" />
      <path class="BUNTAI_DEER_JEWELRY_DEER_JEWELRY_30_cls-5" d="M141.91,206.16a28.56,28.56,0,0,0-6.06,12.33l-.6.56a18.67,18.67,0,0,1-.2-4.54,8.34,8.34,0,0,1,.84-3.3,4,4,0,0,1,2.57-2.09l-1.27-.09a.07.07,0,0,0,0-.05,10.5,10.5,0,0,1,1.7-1.5,11.4,11.4,0,0,1,3-1.49Z" />
      <path class="BUNTAI_DEER_JEWELRY_DEER_JEWELRY_30_cls-5" d="M140.05,203.28a20.51,20.51,0,0,1-1.12,4.2,10.5,10.5,0,0,0-1.7,1.5l-.13-.12a28.53,28.53,0,0,1-3,2.43v-.16a4.36,4.36,0,0,1,0-.51A27.55,27.55,0,0,1,140.05,203.28Z" />
      <path class="BUNTAI_DEER_JEWELRY_DEER_JEWELRY_30_cls-5" d="M140.05,203.28a27.55,27.55,0,0,0-5.91,7.34,8,8,0,0,1,.6-2.59,8.37,8.37,0,0,1,3.16-3.77l-1.47.37a7.9,7.9,0,0,1,3.69-1.78l.53-.09-.6.51Z" />
      <path class="BUNTAI_DEER_JEWELRY_DEER_JEWELRY_30_cls-6" d="M151.77,191.09h.09a7.93,7.93,0,0,1,7.93,7.93,7.64,7.64,0,0,1-.19,1.73,7.79,7.79,0,0,1-1.14,2.68,7.88,7.88,0,0,1-4.25,3.17,7.89,7.89,0,0,1-2.34.35h0A8,8,0,0,1,146.7,205a8,8,0,0,1-1.69-2,7.69,7.69,0,0,1-1-2.67,7.42,7.42,0,0,1-.12-1.34A7.93,7.93,0,0,1,151.77,191.09Z" />
      <circle class="BUNTAI_DEER_JEWELRY_DEER_JEWELRY_30_cls-6" cx="151.86" cy="199.02" r="6.03" />
      <path class="BUNTAI_DEER_JEWELRY_DEER_JEWELRY_30_cls-6" d="M151.87,207c0,.53,0,1.06-.05,1.58,0,.14,0,.27,0,.41q-.27,8-.55,16" />
      <path class="BUNTAI_DEER_JEWELRY_DEER_JEWELRY_30_cls-6" d="M152,208.7l-.2-.17" />
      <path class="BUNTAI_DEER_JEWELRY_DEER_JEWELRY_30_cls-6" d="M151.8,208.94l.22-.24a6.41,6.41,0,0,1,1.41,1.82,7.19,7.19,0,0,1,.6,1.56,11.73,11.73,0,0,1,.3,1.79,26,26,0,0,1,.09,2.79,4,4,0,0,0-2.09.05,8,8,0,0,1,1.7,1.53,25,25,0,0,1-2.45,10.39,11,11,0,0,1-2.26-4.39,22.11,22.11,0,0,1-.27-6.7c.4-.48.88-1,1.29-1.49-.44-.22-.8-.43-1.23-.64,0-.45,0-.9,0-1.37a5,5,0,0,1,.11-1.4,2.49,2.49,0,0,1,.26-.61,20.67,20.67,0,0,1,2.33-3.09" />
      <path class="BUNTAI_DEER_JEWELRY_DEER_JEWELRY_30_cls-6" d="M148.89,206.37c-.36,1-.7,2-1,3a.75.75,0,0,0,0,.16,54.93,54.93,0,0,0-2.4,17.47h0" />
      <path class="BUNTAI_DEER_JEWELRY_DEER_JEWELRY_30_cls-6" d="M147.88,209.33a.6.6,0,0,0-.08.08,22.51,22.51,0,0,0-2.93,3.87c-.19.32-.38.66-.55,1,.49-.07.88-.19,1.37-.26a19.39,19.39,0,0,0-1.94,2.8,6.38,6.38,0,0,0-.73,2.34c-.31,2.58.82,5.43,2.41,7.81h0c.22.34.46.67.7,1" />
      <path class="BUNTAI_DEER_JEWELRY_DEER_JEWELRY_30_cls-6" d="M146.13,228a51.7,51.7,0,0,1,1.54-6.31,27.19,27.19,0,0,0,.75-7.89c.22.08.45.18.68.28" />
      <path class="BUNTAI_DEER_JEWELRY_DEER_JEWELRY_30_cls-6" d="M149.21,212.64a20,20,0,0,0-.91-2,10.48,10.48,0,0,1-.47-1.14l0-.08" />
      <path class="BUNTAI_DEER_JEWELRY_DEER_JEWELRY_30_cls-6" d="M144.72,207.73a35.51,35.51,0,0,0-5.55,14.14" />
      <path class="BUNTAI_DEER_JEWELRY_DEER_JEWELRY_30_cls-6" d="M146.7,205c-.7.86-1.35,1.75-2,2.67h0" />
      <path class="BUNTAI_DEER_JEWELRY_DEER_JEWELRY_30_cls-6" d="M144.73,207.71h0a9.37,9.37,0,0,0-2.78,1.63,9,9,0,0,0-1.74,1.95l1.13,0a4.94,4.94,0,0,0-2.33,3.38c-.08.44-.13.89-.18,1.34a18.67,18.67,0,0,0,.35,5.82c.13.6.29,1.21.48,1.81" />
      <path class="BUNTAI_DEER_JEWELRY_DEER_JEWELRY_30_cls-6" d="M144.87,213.28a18.44,18.44,0,0,0-.15-5.55h0" />
      <path class="BUNTAI_DEER_JEWELRY_DEER_JEWELRY_30_cls-6" d="M143,219.15a20.69,20.69,0,0,0-3.37,4.53" />
      <path class="BUNTAI_DEER_JEWELRY_DEER_JEWELRY_30_cls-6" d="M135.85,218.49a28.56,28.56,0,0,1,6.06-12.33l.2-.22A27.48,27.48,0,0,1,145,203" />
      <path class="BUNTAI_DEER_JEWELRY_DEER_JEWELRY_30_cls-6" d="M135.25,219.05a18.67,18.67,0,0,1-.2-4.54,8.34,8.34,0,0,1,.84-3.3,4,4,0,0,1,2.57-2.09l-1.27-.09a.07.07,0,0,0,0-.05,10.5,10.5,0,0,1,1.7-1.5,11.4,11.4,0,0,1,3-1.49l.2-.05" />
      <path class="BUNTAI_DEER_JEWELRY_DEER_JEWELRY_30_cls-6" d="M141.91,206v.17l0,3.18" />
      <path class="BUNTAI_DEER_JEWELRY_DEER_JEWELRY_30_cls-6" d="M140.05,203.27l.6-.51a27,27,0,0,1,3.4-2.4" />
      <path class="BUNTAI_DEER_JEWELRY_DEER_JEWELRY_30_cls-6" d="M134.14,210.62a27.55,27.55,0,0,1,5.91-7.34" />
      <path class="BUNTAI_DEER_JEWELRY_DEER_JEWELRY_30_cls-6" d="M140.65,202.76l-.53.09a7.9,7.9,0,0,0-3.69,1.78l1.47-.37a8.37,8.37,0,0,0-3.16,3.77,8,8,0,0,0-.6,2.59,4.36,4.36,0,0,0,0,.51v.16" />
      <path class="BUNTAI_DEER_JEWELRY_DEER_JEWELRY_30_cls-6" d="M137.83,207.84a4.87,4.87,0,0,1-.73,1,28.53,28.53,0,0,1-3,2.43h0" />
      <path class="BUNTAI_DEER_JEWELRY_DEER_JEWELRY_30_cls-6" d="M140.05,203.27h0a20.51,20.51,0,0,1-1.12,4.2" />
      <path class="BUNTAI_DEER_JEWELRY_DEER_JEWELRY_30_cls-6" d="M138.82,216.05c-.25.25-.5.47-.76.69-.73.6-1.5,1.15-2.21,1.75l-.6.56" />
      <path class="BUNTAI_DEER_JEWELRY_DEER_JEWELRY_30_cls-6" d="M157.59,227a55.09,55.09,0,0,0-2.4-17.49c0-.06,0-.11-.05-.16q-.42-1.38-.93-2.73" />
      <path class="BUNTAI_DEER_JEWELRY_DEER_JEWELRY_30_cls-6" d="M155.14,209.33l.08.08a21.48,21.48,0,0,1,2.92,3.87c.2.32.38.66.56,1l-.42-.07-1-.19a17.21,17.21,0,0,1,1.93,2.8,6.18,6.18,0,0,1,.75,2.34c.31,2.58-.83,5.46-2.41,7.83-.23.34-.46.67-.7,1" />
      <path class="BUNTAI_DEER_JEWELRY_DEER_JEWELRY_30_cls-6" d="M154.33,213.87a1.92,1.92,0,0,1,.27-.11,27.54,27.54,0,0,0,.74,7.89,48.32,48.32,0,0,1,1.55,6.31" />
      <path class="BUNTAI_DEER_JEWELRY_DEER_JEWELRY_30_cls-6" d="M154,212.08c.21-.49.46-1,.69-1.45a7.59,7.59,0,0,0,.47-1.14l0-.08" />
      <path class="BUNTAI_DEER_JEWELRY_DEER_JEWELRY_30_cls-6" d="M158.3,207.72h0c-.53-.8-1.1-1.57-1.69-2.32" />
      <path class="BUNTAI_DEER_JEWELRY_DEER_JEWELRY_30_cls-6" d="M163.85,221.87a35.51,35.51,0,0,0-5.55-14.14" />
      <path class="BUNTAI_DEER_JEWELRY_DEER_JEWELRY_30_cls-6" d="M163.37,223.68c.19-.6.35-1.2.48-1.81h0a18.67,18.67,0,0,0,.35-5.82c0-.45-.1-.9-.18-1.34a4.94,4.94,0,0,0-2.33-3.38l1.13,0a9,9,0,0,0-1.74-1.95,9.45,9.45,0,0,0-2.77-1.63h0" />
      <path class="BUNTAI_DEER_JEWELRY_DEER_JEWELRY_30_cls-6" d="M158.14,213.28a18.44,18.44,0,0,1,.16-5.55h0" />
      <path class="BUNTAI_DEER_JEWELRY_DEER_JEWELRY_30_cls-6" d="M163.37,223.68a20.77,20.77,0,0,0-3.37-4.53" />
      <path class="BUNTAI_DEER_JEWELRY_DEER_JEWELRY_30_cls-6" d="M158.46,203.43a24.22,24.22,0,0,1,2.45,2.51,1.37,1.37,0,0,1,.19.22,28.33,28.33,0,0,1,6.06,12.33" />
      <path class="BUNTAI_DEER_JEWELRY_DEER_JEWELRY_30_cls-6" d="M164.09,207.48a10.66,10.66,0,0,1,1.74,1.55c-.42,0-.85.05-1.26.09a4,4,0,0,1,2.56,2.09,8.18,8.18,0,0,1,.84,3.3,19.18,19.18,0,0,1-.2,4.54" />
      <path class="BUNTAI_DEER_JEWELRY_DEER_JEWELRY_30_cls-6" d="M160.91,205.94l.19.05a11.4,11.4,0,0,1,3,1.49" />
      <path class="BUNTAI_DEER_JEWELRY_DEER_JEWELRY_30_cls-6" d="M161.1,206v.17c0,1.06,0,2.12,0,3.18" />
      <path class="BUNTAI_DEER_JEWELRY_DEER_JEWELRY_30_cls-6" d="M163,203.28a27.67,27.67,0,0,1,5.93,7.34" />
      <path class="BUNTAI_DEER_JEWELRY_DEER_JEWELRY_30_cls-6" d="M159.6,200.75a24.61,24.61,0,0,1,2.76,2l.6.51" />
      <path class="BUNTAI_DEER_JEWELRY_DEER_JEWELRY_30_cls-6" d="M162.36,202.76c.18,0,.37.05.54.09a7.87,7.87,0,0,1,3.68,1.78l-1.47-.37a8.2,8.2,0,0,1,3.78,6.36h0c0,.23,0,.45,0,.67" />
      <path class="BUNTAI_DEER_JEWELRY_DEER_JEWELRY_30_cls-6" d="M165.2,207.84a4.73,4.73,0,0,0,.76,1.07,28.67,28.67,0,0,0,2.95,2.38h0" />
      <path class="BUNTAI_DEER_JEWELRY_DEER_JEWELRY_30_cls-6" d="M163,203.27h0a22.63,22.63,0,0,0,1.12,4.2h0" />
      <path class="BUNTAI_DEER_JEWELRY_DEER_JEWELRY_30_cls-6" d="M164.2,216.05a9.86,9.86,0,0,0,.76.69c.72.6,1.49,1.15,2.2,1.75.21.18.41.37.61.56" />
      <g class="BUNTAI_DEER_JEWELRY_DEER_JEWELRY_30_cls-7">
        <path d="M139.9,203s-2.46.09-3.3,2a9.3,9.3,0,0,0-2.15,6c1.42-1.06,2.09-1.61,2.09-1.61a26.75,26.75,0,0,1,1.91-4,21.58,21.58,0,0,1-1.07,4.6s-3.24,4-1.86,8.5c1.68-3.52,4-9.08,4-9.08a63.14,63.14,0,0,0-.79,6.53c0,1.68.09,5.05,1.2,7,1.74-2.21,2.53-3.37,2.53-3.37s.66-.5,1-3.6.81-5.92.81-5.92l-2.47,6.46,1.29-7.43,1.71-.44s-.09,5.18-.16,7.9.61,8.82,1.82,10.84c1.28-5.7,2-9.59,2.12-10.1s.87,1.9.87,1.9.36,7,2.18,8.81c.45-7.51,1.19-13.64,1.35-14.69a9.06,9.06,0,0,0-.74-3.28l-.35-.42s-.37,6.34-.26,10.38c-1.07-7.81-1.24-9.19-1.24-9.19l-.9,1.76-1.62-2.16s-1.51,8.25-1.41,10.5l-.27-9.43-1.26.65s.47-4,0-4.24a7.09,7.09,0,0,0-2.75,1.35l-.38-2.5-2.56.26Z" />
        <path d="M146.71,193a8,8,0,0,0-2.43,8.36c1.5,5.32,9.44,8.09,13.72,2.69-2.48,1.51-8.32,3.59-11.68-1S146.71,193,146.71,193Z" />
      </g>
      <path class="BUNTAI_DEER_JEWELRY_DEER_JEWELRY_30_cls-2" d="M303,186.15c1.7,0,1.42-2.32,1.42-2.32h0a4.7,4.7,0,0,1-2.09.44,1.89,1.89,0,0,1-.93-.24C301.36,184.17,301.33,186.15,303,186.15Z" />
      <path class="BUNTAI_DEER_JEWELRY_DEER_JEWELRY_30_cls-2" d="M300.05,177c-.63,2.07-.49,6,1.32,7a1.89,1.89,0,0,0,.93.24,4.7,4.7,0,0,0,2.09-.44c1.56-.76,2.34-2.52,2.24-5.2a8.93,8.93,0,0,0-.48-2.61,5.67,5.67,0,0,0-1.52-2.36,1.94,1.94,0,0,0-1.39-.57,2.34,2.34,0,0,0-1.69,1,3.2,3.2,0,0,0,.75.14h0a4.29,4.29,0,0,1,1.91,2.93c.47,2.27-.32,4.83-1.47,4.83s-1.3-3-1.22-4.55h-.09A5.77,5.77,0,0,1,300.05,177Z" />
      <path class="BUNTAI_DEER_JEWELRY_DEER_JEWELRY_30_cls-2" d="M305.1,165.92c-.65-.25-3.4-.48-3.45-.16s.91,1.64.84,1.89a9.35,9.35,0,0,1,2,1.14s2.08,1.81.89,4a2.26,2.26,0,0,1-.75.84,5.67,5.67,0,0,1,1.52,2.36A6.1,6.1,0,0,0,305.1,165.92Z" />
      <path class="BUNTAI_DEER_JEWELRY_DEER_JEWELRY_30_cls-2" d="M297.32,173.34a4.93,4.93,0,0,0,2.73,3.67,5.77,5.77,0,0,0,1.42.43h.1a5.26,5.26,0,0,0,2.68-.28,4.36,4.36,0,0,0-1.9-2.94h-.05a3.83,3.83,0,0,1-.75-.15,2.23,2.23,0,0,1-1.58-1.37,1.87,1.87,0,0,1-.09-.59c0-2.41.95-2.53.95-2.53l.12-.33a3.11,3.11,0,0,0-2.42-2A8.28,8.28,0,0,0,297.32,173.34Z" />
      <path class="BUNTAI_DEER_JEWELRY_DEER_JEWELRY_30_cls-3" d="M306.15,176a6.1,6.1,0,0,0-1-10.1c-.61-.29-1.35-.66-4.22,0a3.73,3.73,0,0,1,1.81,2,3.15,3.15,0,0,1,1.8.9s2.08,1.81.89,4a2.26,2.26,0,0,1-.75.84" />
      <path class="BUNTAI_DEER_JEWELRY_DEER_JEWELRY_30_cls-3" d="M304.25,177.17a5.26,5.26,0,0,1-2.68.28h-.1a5.77,5.77,0,0,1-1.42-.43,4.93,4.93,0,0,1-2.73-3.67,8.28,8.28,0,0,1,1.21-6.11" />
      <path class="BUNTAI_DEER_JEWELRY_DEER_JEWELRY_30_cls-3" d="M301,169.26l-.12.33s-.92.12-.95,2.53a1.87,1.87,0,0,0,.09.59,2.23,2.23,0,0,0,1.58,1.37,3.83,3.83,0,0,0,.75.15" />
      <path class="BUNTAI_DEER_JEWELRY_DEER_JEWELRY_30_cls-3" d="M300.05,177c-.63,2.07-.49,6,1.32,7a1.89,1.89,0,0,0,.93.24,4.7,4.7,0,0,0,2.09-.44c1.56-.76,2.34-2.52,2.24-5.2a8.93,8.93,0,0,0-.48-2.61,5.67,5.67,0,0,0-1.52-2.36,1.94,1.94,0,0,0-1.39-.57,2.34,2.34,0,0,0-1.69,1" />
      <path class="BUNTAI_DEER_JEWELRY_DEER_JEWELRY_30_cls-3" d="M301.56,177.45c-.08,1.58-.06,4.55,1.22,4.55s1.94-2.56,1.47-4.83a4.29,4.29,0,0,0-1.91-2.93h0" />
      <path class="BUNTAI_DEER_JEWELRY_DEER_JEWELRY_30_cls-3" d="M304.39,183.83s.28,2.32-1.42,2.32-1.61-2-1.6-2.12h0" />
      <path class="BUNTAI_DEER_JEWELRY_DEER_JEWELRY_30_cls-3" d="M300.77,171.75a3.21,3.21,0,0,0,.18-2.49,3.11,3.11,0,0,0-2.42-2,3,3,0,0,0-.53,0,2.11,2.11,0,0,0-2.1,1.56" />
      <line class="BUNTAI_DEER_JEWELRY_DEER_JEWELRY_30_cls-4" x1="303.01" y1="190.96" x2="303.01" y2="186.18" />
      <path class="BUNTAI_DEER_JEWELRY_DEER_JEWELRY_30_cls-2" d="M308.85,199a6,6,0,1,0-6,6A6,6,0,0,0,308.85,199Zm-6-7.93h.1a7.92,7.92,0,0,1,7.83,7.93,7.42,7.42,0,0,1-.11,1.34,7.9,7.9,0,0,1-1,2.67,8,8,0,0,1-1.7,2,7.6,7.6,0,0,1-2.18,1.33,7.8,7.8,0,0,1-3,.58h0a7.84,7.84,0,0,1-2.34-.35,8,8,0,0,1-2.39-1.21,8.29,8.29,0,0,1-1.87-2,7.77,7.77,0,0,1-1.13-2.68,7.12,7.12,0,0,1-.2-1.73A7.93,7.93,0,0,1,302.82,191.09Z" />
      <path class="BUNTAI_DEER_JEWELRY_DEER_JEWELRY_30_cls-5" d="M286.41,208a7.91,7.91,0,0,0-.61,2.59,27.63,27.63,0,0,1,5.92-7.34h0l.6-.51c-.18,0-.36.05-.53.09a7.86,7.86,0,0,0-3.69,1.78l1.47-.37A8.3,8.3,0,0,0,286.41,208Z" />
      <path class="BUNTAI_DEER_JEWELRY_DEER_JEWELRY_30_cls-5" d="M285.8,210.62h0c0,.23,0,.45,0,.67a28.67,28.67,0,0,0,3-2.38l.13.12a10.66,10.66,0,0,1,1.74-1.55h0a21.17,21.17,0,0,0,1.12-4.2A27.63,27.63,0,0,0,285.8,210.62Z" />
      <path class="BUNTAI_DEER_JEWELRY_DEER_JEWELRY_30_cls-5" d="M286.72,214.51a18.18,18.18,0,0,0,.2,4.54l.6-.56a28.56,28.56,0,0,1,6.06-12.33V206a11.4,11.4,0,0,0-3,1.49h0a10.66,10.66,0,0,0-1.74,1.55l1.26.09a3.94,3.94,0,0,0-2.56,2.09A8.18,8.18,0,0,0,286.72,214.51Z" />
      <path class="BUNTAI_DEER_JEWELRY_DEER_JEWELRY_30_cls-5" d="M293.58,206.16a28.56,28.56,0,0,0-6.06,12.33c.71-.6,1.48-1.15,2.21-1.75.26-.22.51-.44.76-.69,0-.45.1-.9.18-1.34a4.88,4.88,0,0,1,2.33-3.38l-1.13,0a8.73,8.73,0,0,1,1.74-1.95Z" />
      <path class="BUNTAI_DEER_JEWELRY_DEER_JEWELRY_30_cls-5" d="M290.49,216.05a18.37,18.37,0,0,0,.35,5.82,35.51,35.51,0,0,1,5.55-14.14h0a9.32,9.32,0,0,0-2.77,1.63,8.73,8.73,0,0,0-1.74,1.95l1.13,0a4.88,4.88,0,0,0-2.33,3.38C290.59,215.15,290.53,215.6,290.49,216.05Z" />
      <path class="BUNTAI_DEER_JEWELRY_DEER_JEWELRY_30_cls-5" d="M290.84,221.87h0c.13.61.29,1.21.47,1.81a21.1,21.1,0,0,1,3.37-4.53,6.55,6.55,0,0,1,.75-2.34,17.86,17.86,0,0,1,1.93-2.8l-.95.19-.42.07c.17-.33.36-.67.55-1a18.44,18.44,0,0,0-.15-5.55A35.51,35.51,0,0,0,290.84,221.87Z" />
      <path class="BUNTAI_DEER_JEWELRY_DEER_JEWELRY_30_cls-5" d="M296.54,213.28c-.19.32-.38.66-.55,1l.42-.07.95-.19a17.86,17.86,0,0,0-1.93,2.8,6.55,6.55,0,0,0-.75,2.34c-.3,2.58.84,5.46,2.41,7.83a54.82,54.82,0,0,1,2.41-17.49.13.13,0,0,1,0-.08A21.53,21.53,0,0,0,296.54,213.28Z" />
      <path class="BUNTAI_DEER_JEWELRY_DEER_JEWELRY_30_cls-5" d="M299.34,221.65a27.19,27.19,0,0,0,.74-7.89,1.28,1.28,0,0,1,.27.11,11.75,11.75,0,0,1,.31-1.79c-.22-.49-.46-1-.69-1.45a7.59,7.59,0,0,1-.47-1.14A54.82,54.82,0,0,0,297.09,227c.24.34.47.67.71,1A48.26,48.26,0,0,1,299.34,221.65Z" />
      <path class="BUNTAI_DEER_JEWELRY_DEER_JEWELRY_30_cls-5" d="M300.35,213.87c-.08.92-.09,1.87-.08,2.79a4,4,0,0,1,2.08.05,8.19,8.19,0,0,0-1.69,1.53,24.65,24.65,0,0,0,2.45,10.39,10.87,10.87,0,0,0,2.25-4.39,22.11,22.11,0,0,0,.27-6.7c-.4-.48-.87-1-1.28-1.49.44-.22.79-.43,1.22-.64,0-.45,0-.9,0-1.37a4.66,4.66,0,0,0-.12-1.4,2.45,2.45,0,0,0-.25-.61,20.08,20.08,0,0,0-2.34-3.09,2.25,2.25,0,0,0-.21-.24,6.44,6.44,0,0,0-1.42,1.82,7.16,7.16,0,0,0-.59,1.56A11.75,11.75,0,0,0,300.35,213.87Z" />
      <path class="BUNTAI_DEER_JEWELRY_DEER_JEWELRY_30_cls-5" d="M309.26,227a54.93,54.93,0,0,0-2.4-17.47,10.48,10.48,0,0,1-.47,1.14,20.11,20.11,0,0,0-.92,2,4.66,4.66,0,0,1,.12,1.4c.23-.1.46-.2.68-.28a27.19,27.19,0,0,0,.74,7.89,48.26,48.26,0,0,1,1.54,6.31,9.68,9.68,0,0,0,.7-1h0Z" />
      <path class="BUNTAI_DEER_JEWELRY_DEER_JEWELRY_30_cls-5" d="M306.86,209.49a54.93,54.93,0,0,1,2.4,17.47c1.59-2.38,2.72-5.23,2.41-7.81a6.22,6.22,0,0,0-.74-2.34A18.63,18.63,0,0,0,309,214c.49.07.89.19,1.38.26-.18-.33-.36-.67-.56-1a22,22,0,0,0-2.93-3.87S306.87,209.46,306.86,209.49Z" />
      <path class="BUNTAI_DEER_JEWELRY_DEER_JEWELRY_30_cls-5" d="M310,207.73a18.44,18.44,0,0,0-.16,5.55c.2.32.38.66.56,1-.49-.07-.89-.19-1.38-.26a18.63,18.63,0,0,1,1.94,2.8,6.22,6.22,0,0,1,.74,2.34,20.64,20.64,0,0,1,3.36,4.53,17.36,17.36,0,0,0,.49-1.81A35.66,35.66,0,0,0,310,207.73Z" />
      <path class="BUNTAI_DEER_JEWELRY_DEER_JEWELRY_30_cls-5" d="M310,207.73a35.66,35.66,0,0,1,5.55,14.14,18.67,18.67,0,0,0,.35-5.82c-.05-.45-.1-.9-.19-1.34a4.93,4.93,0,0,0-2.32-3.38l1.13,0a9.25,9.25,0,0,0-1.74-1.95,9.5,9.5,0,0,0-2.78-1.63h0Z" />
      <path class="BUNTAI_DEER_JEWELRY_DEER_JEWELRY_30_cls-5" d="M313.36,211.33a4.93,4.93,0,0,1,2.32,3.38c.09.44.14.89.19,1.34a9.86,9.86,0,0,0,.76.69c.72.6,1.49,1.15,2.2,1.75a28.44,28.44,0,0,0-6.06-12.33c0,1.06,0,2.12,0,3.18a9.25,9.25,0,0,1,1.74,1.95Z" />
      <path class="BUNTAI_DEER_JEWELRY_DEER_JEWELRY_30_cls-5" d="M312.77,206.16a28.44,28.44,0,0,1,6.06,12.33c.21.18.41.37.6.56a18.18,18.18,0,0,0,.2-4.54,8.17,8.17,0,0,0-.83-3.3,4,4,0,0,0-2.57-2.09l1.26-.09,0-.05a10.1,10.1,0,0,0-1.7-1.5,11.4,11.4,0,0,0-3-1.49Z" />
      <path class="BUNTAI_DEER_JEWELRY_DEER_JEWELRY_30_cls-5" d="M314.63,203.28a21.88,21.88,0,0,0,1.12,4.2,10.1,10.1,0,0,1,1.7,1.5l.13-.12a28.53,28.53,0,0,0,3,2.43v-.16c0-.17,0-.34,0-.51A27.59,27.59,0,0,0,314.63,203.28Z" />
      <path class="BUNTAI_DEER_JEWELRY_DEER_JEWELRY_30_cls-5" d="M314.63,203.28a27.59,27.59,0,0,1,5.92,7.34A8.22,8.22,0,0,0,320,208a8.39,8.39,0,0,0-3.17-3.77l1.47.37a7.87,7.87,0,0,0-3.68-1.78l-.54-.09.6.51Z" />
      <path class="BUNTAI_DEER_JEWELRY_DEER_JEWELRY_30_cls-6" d="M302.92,191.09h-.1a7.93,7.93,0,0,0-7.93,7.93,7.12,7.12,0,0,0,.2,1.73,7.77,7.77,0,0,0,1.13,2.68,8.29,8.29,0,0,0,1.87,2,8,8,0,0,0,2.39,1.21,7.84,7.84,0,0,0,2.34.35h0a7.8,7.8,0,0,0,3-.58A7.6,7.6,0,0,0,308,205a8,8,0,0,0,1.7-2,7.9,7.9,0,0,0,1-2.67,7.42,7.42,0,0,0,.11-1.34A7.92,7.92,0,0,0,302.92,191.09Z" />
      <circle class="BUNTAI_DEER_JEWELRY_DEER_JEWELRY_30_cls-6" cx="302.82" cy="199.02" r="6.03" />
      <path class="BUNTAI_DEER_JEWELRY_DEER_JEWELRY_30_cls-6" d="M302.82,207c0,.53,0,1.06.05,1.58,0,.14,0,.27,0,.41q.27,8,.55,16" />
      <path class="BUNTAI_DEER_JEWELRY_DEER_JEWELRY_30_cls-6" d="M302.67,208.7l.2-.17" />
      <path class="BUNTAI_DEER_JEWELRY_DEER_JEWELRY_30_cls-6" d="M302.88,208.94a2.25,2.25,0,0,0-.21-.24,6.44,6.44,0,0,0-1.42,1.82,7.16,7.16,0,0,0-.59,1.56,11.75,11.75,0,0,0-.31,1.79c-.08.92-.09,1.87-.08,2.79a4,4,0,0,1,2.08.05,8.19,8.19,0,0,0-1.69,1.53,24.65,24.65,0,0,0,2.45,10.39,10.87,10.87,0,0,0,2.25-4.39,22.11,22.11,0,0,0,.27-6.7c-.4-.48-.87-1-1.28-1.49.44-.22.79-.43,1.22-.64,0-.45,0-.9,0-1.37a4.66,4.66,0,0,0-.12-1.4,2.45,2.45,0,0,0-.25-.61,20.08,20.08,0,0,0-2.34-3.09" />
      <path class="BUNTAI_DEER_JEWELRY_DEER_JEWELRY_30_cls-6" d="M305.8,206.37c.36,1,.7,2,1,3a.76.76,0,0,1,.06.16,54.93,54.93,0,0,1,2.4,17.47h0" />
      <path class="BUNTAI_DEER_JEWELRY_DEER_JEWELRY_30_cls-6" d="M306.8,209.33a.3.3,0,0,1,.08.08,22,22,0,0,1,2.93,3.87c.2.32.38.66.56,1-.49-.07-.89-.19-1.38-.26a18.63,18.63,0,0,1,1.94,2.8,6.22,6.22,0,0,1,.74,2.34c.31,2.58-.82,5.43-2.41,7.81h0a9.68,9.68,0,0,1-.7,1" />
      <path class="BUNTAI_DEER_JEWELRY_DEER_JEWELRY_30_cls-6" d="M308.55,228a48.26,48.26,0,0,0-1.54-6.31,27.19,27.19,0,0,1-.74-7.89c-.22.08-.45.18-.68.28" />
      <path class="BUNTAI_DEER_JEWELRY_DEER_JEWELRY_30_cls-6" d="M305.47,212.64a20.11,20.11,0,0,1,.92-2,10.48,10.48,0,0,0,.47-1.14s0-.06,0-.08" />
      <path class="BUNTAI_DEER_JEWELRY_DEER_JEWELRY_30_cls-6" d="M310,207.73a35.66,35.66,0,0,1,5.55,14.14" />
      <path class="BUNTAI_DEER_JEWELRY_DEER_JEWELRY_30_cls-6" d="M308,205c.7.86,1.36,1.75,2,2.67h0" />
      <path class="BUNTAI_DEER_JEWELRY_DEER_JEWELRY_30_cls-6" d="M310,207.71h0a9.5,9.5,0,0,1,2.78,1.63,9.25,9.25,0,0,1,1.74,1.95l-1.13,0a4.93,4.93,0,0,1,2.32,3.38c.09.44.14.89.19,1.34a18.67,18.67,0,0,1-.35,5.82,17.36,17.36,0,0,1-.49,1.81" />
      <path class="BUNTAI_DEER_JEWELRY_DEER_JEWELRY_30_cls-6" d="M309.81,213.28a18.44,18.44,0,0,1,.16-5.55h0" />
      <path class="BUNTAI_DEER_JEWELRY_DEER_JEWELRY_30_cls-6" d="M311.67,219.15a20.64,20.64,0,0,1,3.36,4.53" />
      <path class="BUNTAI_DEER_JEWELRY_DEER_JEWELRY_30_cls-6" d="M318.83,218.49a28.44,28.44,0,0,0-6.06-12.33,1.42,1.42,0,0,0-.2-.22,26.47,26.47,0,0,0-2.89-2.91" />
      <path class="BUNTAI_DEER_JEWELRY_DEER_JEWELRY_30_cls-6" d="M319.43,219.05a18.18,18.18,0,0,0,.2-4.54,8.17,8.17,0,0,0-.83-3.3,4,4,0,0,0-2.57-2.09l1.26-.09,0-.05a10.1,10.1,0,0,0-1.7-1.5,11.4,11.4,0,0,0-3-1.49l-.2-.05" />
      <path class="BUNTAI_DEER_JEWELRY_DEER_JEWELRY_30_cls-6" d="M312.77,206v.17c0,1.06,0,2.12,0,3.18" />
      <path class="BUNTAI_DEER_JEWELRY_DEER_JEWELRY_30_cls-6" d="M314.63,203.27l-.6-.51a27.68,27.68,0,0,0-3.39-2.4" />
      <path class="BUNTAI_DEER_JEWELRY_DEER_JEWELRY_30_cls-6" d="M320.55,210.62a27.59,27.59,0,0,0-5.92-7.34" />
      <path class="BUNTAI_DEER_JEWELRY_DEER_JEWELRY_30_cls-6" d="M314,202.76l.54.09a7.87,7.87,0,0,1,3.68,1.78l-1.47-.37A8.39,8.39,0,0,1,320,208a8.22,8.22,0,0,1,.6,2.59c0,.17,0,.34,0,.51v.16" />
      <path class="BUNTAI_DEER_JEWELRY_DEER_JEWELRY_30_cls-6" d="M316.86,207.84a4.83,4.83,0,0,0,.72,1,28.53,28.53,0,0,0,3,2.43h0" />
      <path class="BUNTAI_DEER_JEWELRY_DEER_JEWELRY_30_cls-6" d="M314.63,203.27h0a21.88,21.88,0,0,0,1.12,4.2" />
      <path class="BUNTAI_DEER_JEWELRY_DEER_JEWELRY_30_cls-6" d="M315.87,216.05a9.86,9.86,0,0,0,.76.69c.72.6,1.49,1.15,2.2,1.75.21.18.41.37.6.56" />
      <path class="BUNTAI_DEER_JEWELRY_DEER_JEWELRY_30_cls-6" d="M297.09,227a54.82,54.82,0,0,1,2.41-17.49c0-.06,0-.11,0-.16.29-.92.6-1.83.94-2.73" />
      <path class="BUNTAI_DEER_JEWELRY_DEER_JEWELRY_30_cls-6" d="M299.54,209.33l-.07.08a21.53,21.53,0,0,0-2.93,3.87c-.19.32-.38.66-.55,1l.42-.07.95-.19a17.86,17.86,0,0,0-1.93,2.8,6.55,6.55,0,0,0-.75,2.34c-.3,2.58.84,5.46,2.41,7.83.24.34.47.67.71,1" />
      <path class="BUNTAI_DEER_JEWELRY_DEER_JEWELRY_30_cls-6" d="M300.35,213.87a1.28,1.28,0,0,0-.27-.11,27.19,27.19,0,0,1-.74,7.89A48.26,48.26,0,0,0,297.8,228" />
      <path class="BUNTAI_DEER_JEWELRY_DEER_JEWELRY_30_cls-6" d="M300.66,212.08c-.22-.49-.46-1-.69-1.45a7.59,7.59,0,0,1-.47-1.14.13.13,0,0,1,0-.08" />
      <path class="BUNTAI_DEER_JEWELRY_DEER_JEWELRY_30_cls-6" d="M296.39,207.72h0c.54-.8,1.11-1.57,1.7-2.32" />
      <path class="BUNTAI_DEER_JEWELRY_DEER_JEWELRY_30_cls-6" d="M290.84,221.87a35.51,35.51,0,0,1,5.55-14.14" />
      <path class="BUNTAI_DEER_JEWELRY_DEER_JEWELRY_30_cls-6" d="M291.31,223.68c-.18-.6-.34-1.2-.47-1.81h0a18.37,18.37,0,0,1-.35-5.82c0-.45.1-.9.18-1.34a4.88,4.88,0,0,1,2.33-3.38l-1.13,0a8.73,8.73,0,0,1,1.74-1.95,9.32,9.32,0,0,1,2.77-1.63h0" />
      <path class="BUNTAI_DEER_JEWELRY_DEER_JEWELRY_30_cls-6" d="M296.54,213.28a18.44,18.44,0,0,0-.15-5.55h0" />
      <path class="BUNTAI_DEER_JEWELRY_DEER_JEWELRY_30_cls-6" d="M291.31,223.68a21.1,21.1,0,0,1,3.37-4.53" />
      <path class="BUNTAI_DEER_JEWELRY_DEER_JEWELRY_30_cls-6" d="M296.22,203.43a24.13,24.13,0,0,0-2.44,2.51,2.19,2.19,0,0,0-.2.22,28.56,28.56,0,0,0-6.06,12.33" />
      <path class="BUNTAI_DEER_JEWELRY_DEER_JEWELRY_30_cls-6" d="M290.6,207.48a10.66,10.66,0,0,0-1.74,1.55l1.26.09a3.94,3.94,0,0,0-2.56,2.09,8.18,8.18,0,0,0-.84,3.3,18.18,18.18,0,0,0,.2,4.54" />
      <path class="BUNTAI_DEER_JEWELRY_DEER_JEWELRY_30_cls-6" d="M293.78,205.94l-.2.05a11.4,11.4,0,0,0-3,1.49" />
      <path class="BUNTAI_DEER_JEWELRY_DEER_JEWELRY_30_cls-6" d="M293.58,206v.17l0,3.18" />
      <path class="BUNTAI_DEER_JEWELRY_DEER_JEWELRY_30_cls-6" d="M291.72,203.28a27.63,27.63,0,0,0-5.92,7.34" />
      <path class="BUNTAI_DEER_JEWELRY_DEER_JEWELRY_30_cls-6" d="M295.09,200.75a23.85,23.85,0,0,0-2.77,2l-.6.51" />
      <path class="BUNTAI_DEER_JEWELRY_DEER_JEWELRY_30_cls-6" d="M292.32,202.76c-.18,0-.36.05-.53.09a7.86,7.86,0,0,0-3.69,1.78l1.47-.37a8.3,8.3,0,0,0-3.16,3.77,7.91,7.91,0,0,0-.61,2.59h0c0,.23,0,.45,0,.67" />
      <path class="BUNTAI_DEER_JEWELRY_DEER_JEWELRY_30_cls-6" d="M289.49,207.84a4.73,4.73,0,0,1-.76,1.07,28.67,28.67,0,0,1-3,2.38h0" />
      <path class="BUNTAI_DEER_JEWELRY_DEER_JEWELRY_30_cls-6" d="M291.72,203.27h0a21.17,21.17,0,0,1-1.12,4.2h0" />
      <path class="BUNTAI_DEER_JEWELRY_DEER_JEWELRY_30_cls-6" d="M290.49,216.05c-.25.25-.5.47-.76.69-.73.6-1.5,1.15-2.21,1.75l-.6.56" />
      <g class="BUNTAI_DEER_JEWELRY_DEER_JEWELRY_30_cls-7">
        <path d="M314.79,203s2.46.09,3.3,2a9.36,9.36,0,0,1,2.15,6c-1.43-1.06-2.1-1.61-2.1-1.61a25.76,25.76,0,0,0-1.91-4,21.58,21.58,0,0,0,1.07,4.6s3.24,4,1.86,8.5c-1.68-3.52-4-9.08-4-9.08a60.42,60.42,0,0,1,.79,6.53c0,1.68-.08,5.05-1.19,7-1.75-2.21-2.53-3.37-2.53-3.37s-.67-.5-1-3.6-.81-5.92-.81-5.92l2.47,6.46-1.28-7.43-1.72-.44s.1,5.18.16,7.9-.6,8.82-1.81,10.84c-1.29-5.7-2-9.59-2.12-10.1s-.88,1.9-.88,1.9-.35,7-2.18,8.81c-.44-7.51-1.18-13.64-1.35-14.69a9.06,9.06,0,0,1,.74-3.28l.36-.42s.36,6.34.25,10.38c1.07-7.81,1.25-9.19,1.25-9.19l.9,1.76,1.61-2.16s1.52,8.25,1.42,10.5l.27-9.43,1.25.65s-.46-4,0-4.24a7.09,7.09,0,0,1,2.75,1.35l.39-2.5,2.56.26Z" />
        <path d="M308,193a8,8,0,0,1,2.43,8.36c-1.51,5.32-9.44,8.09-13.73,2.69,2.49,1.51,8.32,3.59,11.68-1S308,193,308,193Z" />
      </g>
    </g>
  </g>
</svg>