<svg xmlns="http://www.w3.org/2000/svg" viewBox="0 0 432 432">
  <defs>
    <style>.BUNTAI_DEER_JEWELRY_DEER_JEWELRY_22_cls-1{isolation:isolate;}.BUNTAI_DEER_JEWELRY_DEER_JEWELRY_22_cls-2{fill:#c7a858;}.BUNTAI_DEER_JEWELRY_DEER_JEWELRY_22_cls-11,.BUNTAI_DEER_JEWELRY_DEER_JEWELRY_22_cls-3,.BUNTAI_DEER_JEWELRY_DEER_JEWELRY_22_cls-4,.BUNTAI_DEER_JEWELRY_DEER_JEWELRY_22_cls-7{fill:none;stroke-linecap:round;stroke-linejoin:round;}.BUNTAI_DEER_JEWELRY_DEER_JEWELRY_22_cls-11,.BUNTAI_DEER_JEWELRY_DEER_JEWELRY_22_cls-3,.BUNTAI_DEER_JEWELRY_DEER_JEWELRY_22_cls-4,.BUNTAI_DEER_JEWELRY_DEER_JEWELRY_22_cls-7,.BUNTAI_DEER_JEWELRY_DEER_JEWELRY_22_cls-9{stroke:#000;}.BUNTAI_DEER_JEWELRY_DEER_JEWELRY_22_cls-3{stroke-width:0.7px;}.BUNTAI_DEER_JEWELRY_DEER_JEWELRY_22_cls-4{stroke-width:0.66px;}.BUNTAI_DEER_JEWELRY_DEER_JEWELRY_22_cls-5{fill:#cbde8d;}.BUNTAI_DEER_JEWELRY_DEER_JEWELRY_22_cls-6{fill:#91b90e;}.BUNTAI_DEER_JEWELRY_DEER_JEWELRY_22_cls-7{stroke-width:0.63px;}.BUNTAI_DEER_JEWELRY_DEER_JEWELRY_22_cls-8{opacity:0.43;mix-blend-mode:multiply;}.BUNTAI_DEER_JEWELRY_DEER_JEWELRY_22_cls-9{fill:#754c24;stroke-miterlimit:10;stroke-width:0.97px;}.BUNTAI_DEER_JEWELRY_DEER_JEWELRY_22_cls-10{fill:#22b573;}.BUNTAI_DEER_JEWELRY_DEER_JEWELRY_22_cls-11{stroke-width:0.63px;}</style>
  </defs>
  <g class="BUNTAI_DEER_JEWELRY_DEER_JEWELRY_22_cls-1">
    <g id="jewelry">
      <path class="BUNTAI_DEER_JEWELRY_DEER_JEWELRY_22_cls-2" d="M152.4,181.63c-1.36,0-1.13-1.86-1.13-1.86h0a3.61,3.61,0,0,0,1.67.36,1.48,1.48,0,0,0,.74-.19C153.69,180,153.71,181.63,152.4,181.63Z" />
      <path class="BUNTAI_DEER_JEWELRY_DEER_JEWELRY_22_cls-2" d="M154.74,174.31c.5,1.65.4,4.83-1.06,5.62a1.48,1.48,0,0,1-.74.19,3.61,3.61,0,0,1-1.67-.36c-1.25-.6-1.88-2-1.8-4.16a7.07,7.07,0,0,1,.39-2.09,4.56,4.56,0,0,1,1.21-1.88,1.56,1.56,0,0,1,1.12-.46,1.87,1.87,0,0,1,1.35.79,3,3,0,0,1-.6.12h0a3.47,3.47,0,0,0-1.52,2.35c-.38,1.82.26,3.87,1.18,3.87s1-2.38,1-3.64h.07A4.49,4.49,0,0,0,154.74,174.31Z" />
      <path class="BUNTAI_DEER_JEWELRY_DEER_JEWELRY_22_cls-2" d="M150.69,165.43c.53-.21,2.73-.39,2.77-.13s-.73,1.31-.68,1.51a7.79,7.79,0,0,0-1.6.92,2.75,2.75,0,0,0-.71,3.23,2.15,2.15,0,0,0,.6.67,4.56,4.56,0,0,0-1.21,1.88A4.87,4.87,0,0,1,150.69,165.43Z" />
      <path class="BUNTAI_DEER_JEWELRY_DEER_JEWELRY_22_cls-2" d="M156.93,171.37a3.94,3.94,0,0,1-2.19,2.94,4.67,4.67,0,0,1-1.13.34h-.08a4.09,4.09,0,0,1-2.15-.23,3.47,3.47,0,0,1,1.52-2.35h0a3,3,0,0,0,.6-.12,1.76,1.76,0,0,0,1.26-1.1,1.4,1.4,0,0,0,.08-.47c0-1.93-.76-2-.76-2a2.58,2.58,0,0,1-.1-.27,2.5,2.5,0,0,1,1.94-1.62A6.64,6.64,0,0,1,156.93,171.37Z" />
      <path class="BUNTAI_DEER_JEWELRY_DEER_JEWELRY_22_cls-3" d="M149.86,173.51a4.87,4.87,0,0,1,.83-8.08c.49-.24,1.09-.53,3.39,0a3,3,0,0,0-1.46,1.57,2.55,2.55,0,0,0-1.44.73,2.75,2.75,0,0,0-.71,3.23,2.15,2.15,0,0,0,.6.67" />
      <path class="BUNTAI_DEER_JEWELRY_DEER_JEWELRY_22_cls-3" d="M151.38,174.43a4.09,4.09,0,0,0,2.15.23h.08a4.67,4.67,0,0,0,1.13-.34,3.94,3.94,0,0,0,2.19-2.94,6.64,6.64,0,0,0-1-4.89" />
      <path class="BUNTAI_DEER_JEWELRY_DEER_JEWELRY_22_cls-3" d="M154,168.1a2.58,2.58,0,0,0,.1.27s.73.09.76,2a1.4,1.4,0,0,1-.08.47,1.76,1.76,0,0,1-1.26,1.1,3,3,0,0,1-.6.12" />
      <path class="BUNTAI_DEER_JEWELRY_DEER_JEWELRY_22_cls-3" d="M154.74,174.31c.5,1.65.4,4.83-1.06,5.62a1.48,1.48,0,0,1-.74.19,3.61,3.61,0,0,1-1.67-.36c-1.25-.6-1.88-2-1.8-4.16a7.07,7.07,0,0,1,.39-2.09,4.56,4.56,0,0,1,1.21-1.88,1.56,1.56,0,0,1,1.12-.46,1.87,1.87,0,0,1,1.35.79" />
      <path class="BUNTAI_DEER_JEWELRY_DEER_JEWELRY_22_cls-3" d="M153.53,174.66c.06,1.26.05,3.64-1,3.64s-1.56-2.05-1.18-3.87a3.47,3.47,0,0,1,1.52-2.35h0" />
      <path class="BUNTAI_DEER_JEWELRY_DEER_JEWELRY_22_cls-3" d="M151.27,179.77s-.23,1.86,1.13,1.86,1.29-1.59,1.28-1.7h0" />
      <path class="BUNTAI_DEER_JEWELRY_DEER_JEWELRY_22_cls-3" d="M154.17,170.09a2.48,2.48,0,0,1,1.79-3.61,1.87,1.87,0,0,1,.42,0,1.71,1.71,0,0,1,1.69,1.25" />
      <line class="BUNTAI_DEER_JEWELRY_DEER_JEWELRY_22_cls-4" x1="152.47" y1="185.62" x2="152.47" y2="181.79" />
      <path class="BUNTAI_DEER_JEWELRY_DEER_JEWELRY_22_cls-5" d="M152.4,218.25c.56,3.45.83,4.47.12,7.49,0,0,1.12-1.25,2.59-3.22A31.27,31.27,0,0,0,152.4,218.25Z" />
      <path class="BUNTAI_DEER_JEWELRY_DEER_JEWELRY_22_cls-5" d="M152.25,217.23a6.68,6.68,0,0,0-3.64,3.45,54.66,54.66,0,0,0,3.91,5.06c.71-3,.44-4-.12-7.49C152.34,217.93,152.3,217.58,152.25,217.23Z" />
      <path class="BUNTAI_DEER_JEWELRY_DEER_JEWELRY_22_cls-5" d="M152,214.38c.05,1,.13,2,.24,2.85.05.35.09.7.15,1a31.27,31.27,0,0,1,2.71,4.27c.61-.82,1.28-1.76,1.95-2.79C155.81,216.8,152,214.38,152,214.38Z" />
      <path class="BUNTAI_DEER_JEWELRY_DEER_JEWELRY_22_cls-5" d="M151.93,211.39c0,1,0,2,.08,3,0,0,3.8,2.42,5.05,5.35.62-.93,1.23-1.93,1.81-3-.26-2-1.45-2.76-3.58-4.17a11.68,11.68,0,0,1-3.31-3.4C151.94,209.89,151.93,210.63,151.93,211.39Z" />
      <path class="BUNTAI_DEER_JEWELRY_DEER_JEWELRY_22_cls-5" d="M151.92,211.39s-4.27,1.93-5.35,6.08c.66,1.14,1.37,2.23,2,3.21a6.68,6.68,0,0,1,3.64-3.45c-.11-.88-.19-1.85-.24-2.85s-.08-2-.08-3Z" />
      <path class="BUNTAI_DEER_JEWELRY_DEER_JEWELRY_22_cls-5" d="M148.08,207.32c-2.83.85-3.79,1.28-4.52,3.1a22.9,22.9,0,0,0,1.41,4S145.5,209.92,148.08,207.32Z" />
      <path class="BUNTAI_DEER_JEWELRY_DEER_JEWELRY_22_cls-5" d="M148.08,207.32c-2.58,2.6-3.11,7.06-3.11,7.06.48,1.06,1,2.1,1.6,3.09,1.08-4.15,5.35-6.08,5.35-6.08h0c0-.76,0-1.5,0-2.2a22.88,22.88,0,0,1,.26-2.72c.09-.58.16-1.19.21-1.79a6.56,6.56,0,0,1-3.91,2.51Z" />
      <path class="BUNTAI_DEER_JEWELRY_DEER_JEWELRY_22_cls-5" d="M161.61,209.84a6.4,6.4,0,0,0-4.62-3.06,15.68,15.68,0,0,1,3.52,6.59,20.09,20.09,0,0,0,1.1-3.52Z" />
      <path class="BUNTAI_DEER_JEWELRY_DEER_JEWELRY_22_cls-5" d="M152.45,204.68c0,.6-.12,1.21-.21,1.79a22.88,22.88,0,0,0-.26,2.72,11.68,11.68,0,0,0,3.31,3.4c2.13,1.41,3.32,2.17,3.58,4.17a36.44,36.44,0,0,0,1.64-3.39h0a15.68,15.68,0,0,0-3.52-6.59h0c-.39-.08-.8-.14-1.21-.2a4.43,4.43,0,0,1-3.26-2A.92.92,0,0,1,152.45,204.68Z" />
      <path class="BUNTAI_DEER_JEWELRY_DEER_JEWELRY_22_cls-5" d="M152.58,191.7c.48.48,3.79,4,1.81,6.8,0,0,3.49,1,7,5.61-1.81-6.31-8.11-11.81-8.82-12.41Z" />
      <path class="BUNTAI_DEER_JEWELRY_DEER_JEWELRY_22_cls-5" d="M152.45,204.68a.92.92,0,0,0,.07-.13,4.43,4.43,0,0,0,3.26,2c.41.06.82.12,1.21.2h0a6.4,6.4,0,0,1,4.62,3.06,12.54,12.54,0,0,0,.27-2.48,12,12,0,0,0-.48-3.25c-3.52-4.58-7-5.61-7-5.61a5.06,5.06,0,0,1-1.87,1.54A39.77,39.77,0,0,1,152.45,204.68Z" />
      <path class="BUNTAI_DEER_JEWELRY_DEER_JEWELRY_22_cls-5" d="M143.16,207.36a13.19,13.19,0,0,0,.4,3.06c.73-1.82,1.69-2.25,4.52-3.1l.46-.13a6.56,6.56,0,0,0,3.91-2.51,39.77,39.77,0,0,0,.07-4.64,5.14,5.14,0,0,1-1.87-1.54s-3.29.32-6.51,4.17A12.79,12.79,0,0,0,143.16,207.36Z" />
      <path class="BUNTAI_DEER_JEWELRY_DEER_JEWELRY_22_cls-5" d="M152.46,191.7c-.65.55-6.07,5.28-8.32,11,3.22-3.85,6.51-4.17,6.51-4.17-2-2.78,1.34-6.32,1.81-6.8Z" />
      <path class="BUNTAI_DEER_JEWELRY_DEER_JEWELRY_22_cls-2" d="M152.46,191.7c-.47.48-3.79,4-1.81,6.8a5.14,5.14,0,0,0,1.87,1.54,5.06,5.06,0,0,0,1.87-1.54c2-2.78-1.33-6.32-1.81-6.8h-.12Z" />
      <path class="BUNTAI_DEER_JEWELRY_DEER_JEWELRY_22_cls-6" d="M152.52,187.51c-.72,0-1.3.94-1.3,2.1a2.43,2.43,0,0,0,.75,1.9h0a1.17,1.17,0,0,0,.55.13,1.2,1.2,0,0,0,.55-.13h0a2.44,2.44,0,0,0,.74-1.9C153.82,188.45,153.24,187.51,152.52,187.51Z" />
      <path class="BUNTAI_DEER_JEWELRY_DEER_JEWELRY_22_cls-2" d="M150.65,188.63a3.2,3.2,0,0,0,1.32,2.88,2.43,2.43,0,0,1-.75-1.9c0-1.16.58-2.1,1.3-2.1s1.3.94,1.3,2.1a2.44,2.44,0,0,1-.74,1.9,3.2,3.2,0,0,0,1.31-2.88c0-1.66-.84-3-1.87-3S150.65,187,150.65,188.63Z" />
      <path class="BUNTAI_DEER_JEWELRY_DEER_JEWELRY_22_cls-7" d="M160.51,213.37a36.44,36.44,0,0,1-1.64,3.39c-.58,1-1.19,2-1.81,3s-1.34,2-1.95,2.79c-1.47,2-2.59,3.22-2.59,3.22a54.66,54.66,0,0,1-3.91-5.06c-.67-1-1.38-2.07-2-3.21-.57-1-1.12-2-1.6-3.09a22.9,22.9,0,0,1-1.41-4,13.19,13.19,0,0,1-.4-3.06,12.79,12.79,0,0,1,1-4.69c2.25-5.69,7.67-10.42,8.32-11l0,0h0" />
      <path class="BUNTAI_DEER_JEWELRY_DEER_JEWELRY_22_cls-7" d="M161.61,209.85a20.09,20.09,0,0,1-1.1,3.52" />
      <path class="BUNTAI_DEER_JEWELRY_DEER_JEWELRY_22_cls-7" d="M152.54,191.67h0l0,0c.71.6,7,6.1,8.82,12.41a12,12,0,0,1,.48,3.25,12.54,12.54,0,0,1-.27,2.48" />
      <path class="BUNTAI_DEER_JEWELRY_DEER_JEWELRY_22_cls-7" d="M152.52,191.64l0,0h0l0,0c.48.48,3.79,4,1.81,6.8a5.06,5.06,0,0,1-1.87,1.54,5.14,5.14,0,0,1-1.87-1.54c-2-2.78,1.34-6.32,1.81-6.8l0,0h0Z" />
      <path class="BUNTAI_DEER_JEWELRY_DEER_JEWELRY_22_cls-7" d="M152.52,200a39.77,39.77,0,0,1-.07,4.64c0,.6-.12,1.21-.21,1.79a22.88,22.88,0,0,0-.26,2.72c0,.7,0,1.44,0,2.2,0,1,0,2,.08,3s.13,2,.24,2.85c.05.35.09.7.15,1,.56,3.45.83,4.47.12,7.49" />
      <path class="BUNTAI_DEER_JEWELRY_DEER_JEWELRY_22_cls-7" d="M154.39,198.5s3.49,1,7,5.61h0" />
      <path class="BUNTAI_DEER_JEWELRY_DEER_JEWELRY_22_cls-7" d="M157,206.77c-.39-.08-.8-.14-1.21-.2a4.43,4.43,0,0,1-3.26-2,.92.92,0,0,1-.07.13,6.56,6.56,0,0,1-3.91,2.51l-.46.13c-2.83.85-3.79,1.28-4.52,3.1" />
      <path class="BUNTAI_DEER_JEWELRY_DEER_JEWELRY_22_cls-7" d="M161.61,209.85h0a6.4,6.4,0,0,0-4.62-3.06" />
      <path class="BUNTAI_DEER_JEWELRY_DEER_JEWELRY_22_cls-7" d="M160.51,213.37h0a15.68,15.68,0,0,0-3.52-6.59h0" />
      <path class="BUNTAI_DEER_JEWELRY_DEER_JEWELRY_22_cls-7" d="M152,209.19a11.68,11.68,0,0,0,3.31,3.4c2.13,1.41,3.32,2.17,3.58,4.17" />
      <path class="BUNTAI_DEER_JEWELRY_DEER_JEWELRY_22_cls-7" d="M152,214.38s3.8,2.42,5.05,5.35" />
      <path class="BUNTAI_DEER_JEWELRY_DEER_JEWELRY_22_cls-7" d="M152.4,218.25a31.27,31.27,0,0,1,2.71,4.27" />
      <path class="BUNTAI_DEER_JEWELRY_DEER_JEWELRY_22_cls-7" d="M150.65,198.5s-3.29.32-6.51,4.17" />
      <path class="BUNTAI_DEER_JEWELRY_DEER_JEWELRY_22_cls-7" d="M145,214.38s.53-4.46,3.11-7.06" />
      <path class="BUNTAI_DEER_JEWELRY_DEER_JEWELRY_22_cls-7" d="M151.92,211.39s-4.27,1.93-5.35,6.08" />
      <path class="BUNTAI_DEER_JEWELRY_DEER_JEWELRY_22_cls-7" d="M152.25,217.23a6.68,6.68,0,0,0-3.64,3.45" />
      <path class="BUNTAI_DEER_JEWELRY_DEER_JEWELRY_22_cls-7" d="M153.08,191.51a3.2,3.2,0,0,0,1.31-2.88c0-1.66-.84-3-1.87-3s-1.87,1.35-1.87,3a3.2,3.2,0,0,0,1.32,2.88" />
      <path class="BUNTAI_DEER_JEWELRY_DEER_JEWELRY_22_cls-7" d="M152,191.51a1.17,1.17,0,0,0,.55.13,1.2,1.2,0,0,0,.55-.13" />
      <path class="BUNTAI_DEER_JEWELRY_DEER_JEWELRY_22_cls-7" d="M153.08,191.51a2.44,2.44,0,0,0,.74-1.9c0-1.16-.58-2.1-1.3-2.1s-1.3.94-1.3,2.1a2.43,2.43,0,0,0,.75,1.9h0a.93.93,0,0,0,.49.19h.12a.9.9,0,0,0,.49-.19Z" />
      <g class="BUNTAI_DEER_JEWELRY_DEER_JEWELRY_22_cls-8">
        <path d="M152.52,185.62a2,2,0,0,0,0,1.89,6.87,6.87,0,0,0,.06,4.19c-.56,4.79-.72,6.47.18,5.94a2.29,2.29,0,0,0,1.06-1.48s.92,2-.18,3.15c-1.12.73-.22,2.46-.26,5.15s-.15,6.35-.13,8.44.1,5.57.1,7.22a39.8,39.8,0,0,1-.77,5.37A30,30,0,0,1,145.26,215c-2.44-6.22-3-8.16-.88-12.94S152,192.2,152,192.2l.2-.53s-1.12-.13-1.31-2S150.89,186.05,152.52,185.62Z" />
      </g>
      <path class="BUNTAI_DEER_JEWELRY_DEER_JEWELRY_22_cls-2" d="M302.11,181.63c1.36,0,1.14-1.86,1.14-1.86h0a3.64,3.64,0,0,1-1.67.36,1.52,1.52,0,0,1-.75-.19C300.82,180,300.8,181.63,302.11,181.63Z" />
      <path class="BUNTAI_DEER_JEWELRY_DEER_JEWELRY_22_cls-2" d="M299.77,174.31c-.5,1.65-.39,4.83,1.06,5.62a1.52,1.52,0,0,0,.75.19,3.64,3.64,0,0,0,1.67-.36c1.24-.6,1.87-2,1.79-4.16a6.76,6.76,0,0,0-.39-2.09,4.37,4.37,0,0,0-1.21-1.88,1.54,1.54,0,0,0-1.11-.46A1.84,1.84,0,0,0,301,172a2.77,2.77,0,0,0,.6.12h0a3.44,3.44,0,0,1,1.52,2.35c.39,1.82-.25,3.87-1.17,3.87s-1-2.38-1-3.64h-.07A4.62,4.62,0,0,1,299.77,174.31Z" />
      <path class="BUNTAI_DEER_JEWELRY_DEER_JEWELRY_22_cls-2" d="M303.82,165.43c-.52-.21-2.73-.39-2.77-.13s.73,1.31.68,1.51a7.79,7.79,0,0,1,1.6.92A2.75,2.75,0,0,1,304,171a2,2,0,0,1-.6.67,4.37,4.37,0,0,1,1.21,1.88A4.87,4.87,0,0,0,303.82,165.43Z" />
      <path class="BUNTAI_DEER_JEWELRY_DEER_JEWELRY_22_cls-2" d="M297.59,171.37a4,4,0,0,0,2.18,2.94,4.62,4.62,0,0,0,1.14.34H301a4.07,4.07,0,0,0,2.14-.23,3.44,3.44,0,0,0-1.52-2.35h0a3,3,0,0,1-.6-.12,1.76,1.76,0,0,1-1.26-1.1,1.41,1.41,0,0,1-.07-.47c0-1.93.76-2,.76-2s0-.11.09-.27a2.49,2.49,0,0,0-1.93-1.62A6.55,6.55,0,0,0,297.59,171.37Z" />
      <path class="BUNTAI_DEER_JEWELRY_DEER_JEWELRY_22_cls-3" d="M304.65,173.51a4.87,4.87,0,0,0-.83-8.08c-.49-.24-1.08-.53-3.39,0a2.94,2.94,0,0,1,1.46,1.57,2.55,2.55,0,0,1,1.44.73A2.75,2.75,0,0,1,304,171a2,2,0,0,1-.6.67" />
      <path class="BUNTAI_DEER_JEWELRY_DEER_JEWELRY_22_cls-3" d="M303.13,174.43a4.07,4.07,0,0,1-2.14.23h-.08a4.62,4.62,0,0,1-1.14-.34,4,4,0,0,1-2.18-2.94,6.55,6.55,0,0,1,1-4.89" />
      <path class="BUNTAI_DEER_JEWELRY_DEER_JEWELRY_22_cls-3" d="M300.49,168.1c-.05.16-.09.27-.09.27s-.74.09-.76,2a1.41,1.41,0,0,0,.07.47A1.76,1.76,0,0,0,301,172a3,3,0,0,0,.6.12" />
      <path class="BUNTAI_DEER_JEWELRY_DEER_JEWELRY_22_cls-3" d="M299.77,174.31c-.5,1.65-.39,4.83,1.06,5.62a1.52,1.52,0,0,0,.75.19,3.64,3.64,0,0,0,1.67-.36c1.24-.6,1.87-2,1.79-4.16a6.76,6.76,0,0,0-.39-2.09,4.37,4.37,0,0,0-1.21-1.88,1.54,1.54,0,0,0-1.11-.46A1.84,1.84,0,0,0,301,172" />
      <path class="BUNTAI_DEER_JEWELRY_DEER_JEWELRY_22_cls-3" d="M301,174.66c-.06,1.26-.05,3.64,1,3.64s1.56-2.05,1.17-3.87a3.44,3.44,0,0,0-1.52-2.35h0" />
      <path class="BUNTAI_DEER_JEWELRY_DEER_JEWELRY_22_cls-3" d="M303.25,179.77s.22,1.86-1.14,1.86-1.29-1.59-1.28-1.7h0" />
      <path class="BUNTAI_DEER_JEWELRY_DEER_JEWELRY_22_cls-3" d="M300.34,170.09a2.4,2.4,0,0,0,.29-1.16,2.54,2.54,0,0,0-.14-.83,2.49,2.49,0,0,0-1.93-1.62,2,2,0,0,0-.43,0,1.69,1.69,0,0,0-1.68,1.25" />
      <line class="BUNTAI_DEER_JEWELRY_DEER_JEWELRY_22_cls-4" x1="302.04" y1="185.62" x2="302.04" y2="181.79" />
      <path class="BUNTAI_DEER_JEWELRY_DEER_JEWELRY_22_cls-5" d="M302.12,218.25c-.57,3.45-.84,4.47-.13,7.49,0,0-1.12-1.25-2.59-3.22A32,32,0,0,1,302.12,218.25Z" />
      <path class="BUNTAI_DEER_JEWELRY_DEER_JEWELRY_22_cls-5" d="M302.26,217.23a6.65,6.65,0,0,1,3.64,3.45,54.66,54.66,0,0,1-3.91,5.06c-.71-3-.44-4,.13-7.49C302.17,217.93,302.22,217.58,302.26,217.23Z" />
      <path class="BUNTAI_DEER_JEWELRY_DEER_JEWELRY_22_cls-5" d="M302.51,214.38c-.06,1-.14,2-.25,2.85,0,.35-.09.7-.14,1a32,32,0,0,0-2.72,4.27c-.61-.82-1.28-1.76-1.95-2.79C298.7,216.8,302.51,214.38,302.51,214.38Z" />
      <path class="BUNTAI_DEER_JEWELRY_DEER_JEWELRY_22_cls-5" d="M302.58,211.39c0,1,0,2-.07,3,0,0-3.81,2.42-5.06,5.35-.61-.93-1.23-1.93-1.81-3,.27-2,1.46-2.76,3.59-4.17a11.85,11.85,0,0,0,3.31-3.4C302.57,209.89,302.58,210.63,302.58,211.39Z" />
      <path class="BUNTAI_DEER_JEWELRY_DEER_JEWELRY_22_cls-5" d="M302.59,211.39s4.27,1.93,5.35,6.08c-.66,1.14-1.36,2.23-2,3.21a6.65,6.65,0,0,0-3.64-3.45c.11-.88.19-1.85.25-2.85s.07-2,.07-3Z" />
      <path class="BUNTAI_DEER_JEWELRY_DEER_JEWELRY_22_cls-5" d="M306.43,207.32c2.84.85,3.79,1.28,4.52,3.1a22.09,22.09,0,0,1-1.41,4S309,209.92,306.43,207.32Z" />
      <path class="BUNTAI_DEER_JEWELRY_DEER_JEWELRY_22_cls-5" d="M306.43,207.32c2.58,2.6,3.11,7.06,3.11,7.06a33.38,33.38,0,0,1-1.6,3.09c-1.08-4.15-5.35-6.08-5.35-6.08h0c0-.76,0-1.5,0-2.2a24.94,24.94,0,0,0-.27-2.72c-.09-.58-.16-1.19-.21-1.79a6.61,6.61,0,0,0,3.92,2.51Z" />
      <path class="BUNTAI_DEER_JEWELRY_DEER_JEWELRY_22_cls-5" d="M292.9,209.84a6.44,6.44,0,0,1,4.63-3.06,15.43,15.43,0,0,0-3.52,6.59,20.14,20.14,0,0,1-1.11-3.52Z" />
      <path class="BUNTAI_DEER_JEWELRY_DEER_JEWELRY_22_cls-5" d="M302.06,204.68c.05.6.12,1.21.21,1.79a24.94,24.94,0,0,1,.27,2.72,11.85,11.85,0,0,1-3.31,3.4c-2.13,1.41-3.32,2.17-3.59,4.17a34,34,0,0,1-1.63-3.39h0a15.43,15.43,0,0,1,3.52-6.59h0c.39-.08.79-.14,1.2-.2a4.43,4.43,0,0,0,3.26-2A.92.92,0,0,0,302.06,204.68Z" />
      <path class="BUNTAI_DEER_JEWELRY_DEER_JEWELRY_22_cls-5" d="M301.93,191.7c-.47.48-3.79,4-1.81,6.8,0,0-3.48,1-7,5.61,1.81-6.31,8.1-11.81,8.81-12.41Z" />
      <path class="BUNTAI_DEER_JEWELRY_DEER_JEWELRY_22_cls-5" d="M302.06,204.68a.92.92,0,0,1-.07-.13,4.43,4.43,0,0,1-3.26,2c-.41.06-.81.12-1.2.2h0a6.44,6.44,0,0,0-4.63,3.06,12.54,12.54,0,0,1-.27-2.48,11.64,11.64,0,0,1,.49-3.25c3.52-4.58,7-5.61,7-5.61A5.14,5.14,0,0,0,302,200,42.52,42.52,0,0,0,302.06,204.68Z" />
      <path class="BUNTAI_DEER_JEWELRY_DEER_JEWELRY_22_cls-5" d="M311.35,207.36a12.67,12.67,0,0,1-.4,3.06c-.73-1.82-1.68-2.25-4.52-3.1l-.45-.13a6.61,6.61,0,0,1-3.92-2.51A42.52,42.52,0,0,1,302,200a5.06,5.06,0,0,0,1.87-1.54s3.29.32,6.51,4.17A12.59,12.59,0,0,1,311.35,207.36Z" />
      <path class="BUNTAI_DEER_JEWELRY_DEER_JEWELRY_22_cls-5" d="M302.05,191.7c.65.55,6.07,5.28,8.32,11-3.22-3.85-6.51-4.17-6.51-4.17,2-2.78-1.33-6.32-1.81-6.8Z" />
      <path class="BUNTAI_DEER_JEWELRY_DEER_JEWELRY_22_cls-2" d="M302.05,191.7c.48.48,3.79,4,1.81,6.8A5.06,5.06,0,0,1,302,200a5.14,5.14,0,0,1-1.87-1.54c-2-2.78,1.34-6.32,1.81-6.8h.12Z" />
      <path class="BUNTAI_DEER_JEWELRY_DEER_JEWELRY_22_cls-6" d="M302,187.51c.72,0,1.31.94,1.31,2.1a2.43,2.43,0,0,1-.75,1.9h0a1.17,1.17,0,0,1-.55.13,1.13,1.13,0,0,1-.54-.13h0a2.41,2.41,0,0,1-.75-1.9C300.69,188.45,301.27,187.51,302,187.51Z" />
      <path class="BUNTAI_DEER_JEWELRY_DEER_JEWELRY_22_cls-2" d="M303.86,188.63a3.2,3.2,0,0,1-1.31,2.88,2.43,2.43,0,0,0,.75-1.9c0-1.16-.59-2.1-1.31-2.1s-1.3.94-1.3,2.1a2.41,2.41,0,0,0,.75,1.9,3.18,3.18,0,0,1-1.32-2.88c0-1.66.84-3,1.87-3S303.86,187,303.86,188.63Z" />
      <path class="BUNTAI_DEER_JEWELRY_DEER_JEWELRY_22_cls-7" d="M294,213.37a34,34,0,0,0,1.63,3.39c.58,1,1.2,2,1.81,3s1.34,2,1.95,2.79c1.47,2,2.59,3.22,2.59,3.22a54.66,54.66,0,0,0,3.91-5.06c.68-1,1.38-2.07,2-3.21a33.38,33.38,0,0,0,1.6-3.09,22.09,22.09,0,0,0,1.41-4,11.79,11.79,0,0,0-.58-7.75c-2.25-5.69-7.67-10.42-8.32-11l0,0h0" />
      <path class="BUNTAI_DEER_JEWELRY_DEER_JEWELRY_22_cls-7" d="M292.9,209.85a20.14,20.14,0,0,0,1.11,3.52" />
      <path class="BUNTAI_DEER_JEWELRY_DEER_JEWELRY_22_cls-7" d="M302,191.67h0l0,0c-.71.6-7,6.1-8.81,12.41a11.64,11.64,0,0,0-.49,3.25,12.54,12.54,0,0,0,.27,2.48" />
      <path class="BUNTAI_DEER_JEWELRY_DEER_JEWELRY_22_cls-7" d="M302,191.64l0,0h0l0,0c-.47.48-3.79,4-1.81,6.8A5.14,5.14,0,0,0,302,200a5.06,5.06,0,0,0,1.87-1.54c2-2.78-1.33-6.32-1.81-6.8l0,0h0Z" />
      <path class="BUNTAI_DEER_JEWELRY_DEER_JEWELRY_22_cls-7" d="M302,200a42.52,42.52,0,0,0,.07,4.64c.05.6.12,1.21.21,1.79a24.94,24.94,0,0,1,.27,2.72c0,.7,0,1.44,0,2.2,0,1,0,2-.07,3s-.14,2-.25,2.85c0,.35-.09.7-.14,1-.57,3.45-.84,4.47-.13,7.49" />
      <path class="BUNTAI_DEER_JEWELRY_DEER_JEWELRY_22_cls-7" d="M300.12,198.5s-3.48,1-7,5.61h0" />
      <path class="BUNTAI_DEER_JEWELRY_DEER_JEWELRY_22_cls-7" d="M297.53,206.77c.39-.08.79-.14,1.2-.2a4.43,4.43,0,0,0,3.26-2,.92.92,0,0,0,.07.13,6.61,6.61,0,0,0,3.92,2.51l.45.13c2.84.85,3.79,1.28,4.52,3.1" />
      <path class="BUNTAI_DEER_JEWELRY_DEER_JEWELRY_22_cls-7" d="M292.9,209.85h0a6.44,6.44,0,0,1,4.63-3.06" />
      <path class="BUNTAI_DEER_JEWELRY_DEER_JEWELRY_22_cls-7" d="M294,213.37h0a15.43,15.43,0,0,1,3.52-6.59h0" />
      <path class="BUNTAI_DEER_JEWELRY_DEER_JEWELRY_22_cls-7" d="M302.54,209.19a11.85,11.85,0,0,1-3.31,3.4c-2.13,1.41-3.32,2.17-3.59,4.17" />
      <path class="BUNTAI_DEER_JEWELRY_DEER_JEWELRY_22_cls-7" d="M302.51,214.38s-3.81,2.42-5.06,5.35" />
      <path class="BUNTAI_DEER_JEWELRY_DEER_JEWELRY_22_cls-7" d="M302.12,218.25a32,32,0,0,0-2.72,4.27" />
      <path class="BUNTAI_DEER_JEWELRY_DEER_JEWELRY_22_cls-7" d="M303.86,198.5s3.29.32,6.51,4.17" />
      <path class="BUNTAI_DEER_JEWELRY_DEER_JEWELRY_22_cls-7" d="M309.54,214.38s-.53-4.46-3.11-7.06" />
      <path class="BUNTAI_DEER_JEWELRY_DEER_JEWELRY_22_cls-7" d="M302.59,211.39s4.27,1.93,5.35,6.08" />
      <path class="BUNTAI_DEER_JEWELRY_DEER_JEWELRY_22_cls-7" d="M302.26,217.23a6.65,6.65,0,0,1,3.64,3.45" />
      <path class="BUNTAI_DEER_JEWELRY_DEER_JEWELRY_22_cls-7" d="M301.44,191.51a3.18,3.18,0,0,1-1.32-2.88c0-1.66.84-3,1.87-3s1.87,1.35,1.87,3a3.2,3.2,0,0,1-1.31,2.88" />
      <path class="BUNTAI_DEER_JEWELRY_DEER_JEWELRY_22_cls-7" d="M302.54,191.51a1.17,1.17,0,0,1-.55.13,1.13,1.13,0,0,1-.54-.13" />
      <path class="BUNTAI_DEER_JEWELRY_DEER_JEWELRY_22_cls-7" d="M301.44,191.51a2.41,2.41,0,0,1-.75-1.9c0-1.16.58-2.1,1.3-2.1s1.31.94,1.31,2.1a2.43,2.43,0,0,1-.75,1.9h0a.9.9,0,0,1-.49.19h-.12a.87.87,0,0,1-.48-.19Z" />
      <g class="BUNTAI_DEER_JEWELRY_DEER_JEWELRY_22_cls-8">
        <path d="M302,185.62a2,2,0,0,1,0,1.89,6.87,6.87,0,0,1-.06,4.19c.57,4.79.72,6.47-.18,5.94a2.29,2.29,0,0,1-1.06-1.48s-.92,2,.18,3.15c1.12.73.23,2.46.26,5.15s.16,6.35.13,8.44-.09,5.57-.09,7.22a40.29,40.29,0,0,0,.76,5.37A30,30,0,0,0,309.25,215c2.44-6.22,3-8.16.88-12.94s-7.62-9.89-7.62-9.89l-.21-.53s1.13-.13,1.31-2S303.62,186.05,302,185.62Z" />
      </g>
      <path class="BUNTAI_DEER_JEWELRY_DEER_JEWELRY_22_cls-9" d="M286,341.66a2.7,2.7,0,0,0-3.84.64l1.43,1.08c-5.35,12.93-24.24,29.49-61.42,40.47-39.32-11-59-37.56-62.17-42.16l1.57-1.49s-1.15-2.14-4-.43a2.49,2.49,0,0,0-.23,2.85s.16.25.41.62h0s23.1,32.23,64,43.5a1.74,1.74,0,0,0,.39.05,1.52,1.52,0,0,0,.42-.06c39.38-11.53,59-29.56,64.09-43.3A1.73,1.73,0,0,0,286,341.66Z" />
      <path class="BUNTAI_DEER_JEWELRY_DEER_JEWELRY_22_cls-10" d="M234.68,391.53c1.23,3-1.66,6.69-6.47,8.24s-9.68.36-10.91-2.64v0c-1.21-3,1.68-6.68,6.47-8.23s9.65-.36,10.9,2.62h0Z" />
      <path class="BUNTAI_DEER_JEWELRY_DEER_JEWELRY_22_cls-2" d="M234.39,390.3a3.6,3.6,0,0,1,.27,1.2c-1.25-3-6.12-4.16-10.9-2.62s-7.68,5.23-6.47,8.23a4,4,0,0,1-.67-1.09c-.88-2.16.41-4.68,3-6.52a13.48,13.48,0,0,1,3.24-1.64l.4-.14a14,14,0,0,1,1.63-.43,13.86,13.86,0,0,1,2.89-.28C230.94,387.05,233.55,388.24,234.39,390.3Z" />
      <path class="BUNTAI_DEER_JEWELRY_DEER_JEWELRY_22_cls-2" d="M221,379.63a2.22,2.22,0,0,0-1.37,3c0,.15.13.34.23.56a39.34,39.34,0,0,0,3,4.71,13.48,13.48,0,0,0-3.24,1.64c-.84-1.09-3.28-4.51-2.85-6.7A4.05,4.05,0,0,1,221,379.63Z" />
      <path class="BUNTAI_DEER_JEWELRY_DEER_JEWELRY_22_cls-2" d="M225.67,382.77l-3.38,1a3.17,3.17,0,0,0-2.45-.67,3,3,0,0,1-.23-.56,2.3,2.3,0,0,1,.42-2.33,2.57,2.57,0,0,1,.95-.62,4.23,4.23,0,0,1,1.13.17l.17.06.17.07h0l.14.07c.13.07.28.15.43.25h0l.19.13a10.71,10.71,0,0,1,2.29,2.21Z" />
      <path class="BUNTAI_DEER_JEWELRY_DEER_JEWELRY_22_cls-2" d="M227.8,387a13.92,13.92,0,0,0-2.89.28c-.12-.26-.32-.65-.57-1.09l2.86-.89A8.82,8.82,0,0,1,227.8,387Z" />
      <path class="BUNTAI_DEER_JEWELRY_DEER_JEWELRY_22_cls-11" d="M234.66,391.5l0,0c1.23,3-1.66,6.69-6.47,8.24s-9.68.36-10.91-2.64v0c-1.21-3,1.68-6.68,6.47-8.23s9.65-.36,10.9,2.62" />
      <path class="BUNTAI_DEER_JEWELRY_DEER_JEWELRY_22_cls-11" d="M234.66,391.5h0a3.6,3.6,0,0,0-.27-1.2c-.84-2.06-3.45-3.25-6.59-3.29a13.86,13.86,0,0,0-2.89.28,14,14,0,0,0-1.63.43l-.4.14a13.48,13.48,0,0,0-3.24,1.64c-2.61,1.84-3.9,4.36-3,6.52a4,4,0,0,0,.67,1.09" />
      <path class="BUNTAI_DEER_JEWELRY_DEER_JEWELRY_22_cls-11" d="M219.84,383.14a3.17,3.17,0,0,1,2.45.67l3.38-1-.13-.17a10.71,10.71,0,0,0-2.29-2.21l-.19-.13h0c-.15-.1-.3-.18-.43-.25l-.14-.07h0l-.17-.07-.17-.06a4.23,4.23,0,0,0-1.13-.17" />
      <path class="BUNTAI_DEER_JEWELRY_DEER_JEWELRY_22_cls-11" d="M227.8,387a8.82,8.82,0,0,0-.6-1.7l-2.86.89c.25.44.45.83.57,1.09" />
      <path class="BUNTAI_DEER_JEWELRY_DEER_JEWELRY_22_cls-11" d="M219.64,389.5c-.84-1.09-3.28-4.51-2.85-6.7a4.05,4.05,0,0,1,4.19-3.17" />
      <path class="BUNTAI_DEER_JEWELRY_DEER_JEWELRY_22_cls-11" d="M222.88,387.86a39.34,39.34,0,0,1-3-4.71c-.1-.22-.18-.41-.23-.56a2.22,2.22,0,0,1,1.37-3h0" />
      <path class="BUNTAI_DEER_JEWELRY_DEER_JEWELRY_22_cls-11" d="M218.88,394.23s2.41,1,6.37-.49,4.35-3.55,4.35-3.55" />
      <path class="BUNTAI_DEER_JEWELRY_DEER_JEWELRY_22_cls-11" d="M227.51,389.5a6.58,6.58,0,0,1-1.85,4.09" />
      <path class="BUNTAI_DEER_JEWELRY_DEER_JEWELRY_22_cls-11" d="M225.66,390.51s.58,1.72-2.06,3.73" />
      <path class="BUNTAI_DEER_JEWELRY_DEER_JEWELRY_22_cls-11" d="M222.53,394.44a4.44,4.44,0,0,0,1.71-2.89" />
      <path class="BUNTAI_DEER_JEWELRY_DEER_JEWELRY_22_cls-11" d="M224.46,394s-2.42,2.6-3.74,2.54,0-1.49.68-1.45.23.72,0,.83" />
      <path class="BUNTAI_DEER_JEWELRY_DEER_JEWELRY_22_cls-11" d="M220.93,398.09a15.14,15.14,0,0,1,4.3-2.81,21.61,21.61,0,0,1,6.24-1.27" />
      <path class="BUNTAI_DEER_JEWELRY_DEER_JEWELRY_22_cls-11" d="M226,397.74a2.85,2.85,0,0,0-2.68-1.47" />
      <path class="BUNTAI_DEER_JEWELRY_DEER_JEWELRY_22_cls-11" d="M224.46,395.62s2.52.87,3,2.55" />
      <path class="BUNTAI_DEER_JEWELRY_DEER_JEWELRY_22_cls-11" d="M225.86,395.05s2.19,1.1,2.54,2.23" />
      <path class="BUNTAI_DEER_JEWELRY_DEER_JEWELRY_22_cls-11" d="M228.07,394.46s2.4.54,2.85,1.59" />
      <path class="BUNTAI_DEER_JEWELRY_DEER_JEWELRY_22_cls-11" d="M221.73,391.7s-.13,1.16.67,1.29l.81.13S223.41,392,221.73,391.7Z" />
      <path class="BUNTAI_DEER_JEWELRY_DEER_JEWELRY_22_cls-11" d="M224.74,389.91s-.79.58-.41,1l.38.46S225.49,390.89,224.74,389.91Z" />
      <path class="BUNTAI_DEER_JEWELRY_DEER_JEWELRY_22_cls-11" d="M227.93,393.67a2.54,2.54,0,0,1,2.14-1.11C229.49,393.57,229.27,393.51,227.93,393.67Z" />
      <path class="BUNTAI_DEER_JEWELRY_DEER_JEWELRY_22_cls-11" d="M230.88,392.41a1.69,1.69,0,0,1,2.17-.79A2.15,2.15,0,0,1,230.88,392.41Z" />
      <path class="BUNTAI_DEER_JEWELRY_DEER_JEWELRY_22_cls-11" d="M229.84,392s.12-1.67,1.11-2A1.67,1.67,0,0,1,229.84,392Z" />
      <path class="BUNTAI_DEER_JEWELRY_DEER_JEWELRY_22_cls-11" d="M230.36,393.31a1.94,1.94,0,0,1,2.27,0A2.12,2.12,0,0,1,230.36,393.31Z" />
      <path class="BUNTAI_DEER_JEWELRY_DEER_JEWELRY_22_cls-11" d="M230.63,394.94s.18.82,1.81.69C232.05,395,232,394.8,230.63,394.94Z" />
      <path class="BUNTAI_DEER_JEWELRY_DEER_JEWELRY_22_cls-11" d="M228.23,395.36a1.86,1.86,0,0,1,1.37.53,2.58,2.58,0,0,1,.62,1.3S228.33,396.83,228.23,395.36Z" />
      <path class="BUNTAI_DEER_JEWELRY_DEER_JEWELRY_22_cls-11" d="M226.41,398.17a.82.82,0,0,0,.24,1.11A.84.84,0,0,0,226.41,398.17Z" />
    </g>
  </g>
</svg>