<svg id="jewelry" xmlns="http://www.w3.org/2000/svg" viewBox="0 0 432 432">
  <defs>
    <style>.BUNTAI_DEER_JEWELRY_DEER_JEWELRY_5_cls-1{fill:#fc9f1e;}.BUNTAI_DEER_JEWELRY_DEER_JEWELRY_5_cls-2{fill:none;stroke-linecap:round;stroke-linejoin:round;stroke-width:1.11px;}.BUNTAI_DEER_JEWELRY_DEER_JEWELRY_5_cls-2,.BUNTAI_DEER_JEWELRY_DEER_JEWELRY_5_cls-3{stroke:#000;}.BUNTAI_DEER_JEWELRY_DEER_JEWELRY_5_cls-3{fill:#834932;stroke-miterlimit:10;stroke-width:1.09px;}</style>
  </defs>
  <path class="BUNTAI_DEER_JEWELRY_DEER_JEWELRY_5_cls-1" d="M232.84,365.44c-1.71-2.62-5.93-2.5-8.21-1.91a6.89,6.89,0,0,0-5.2,4.35c-1.59,3.93-1.19,6.4,1.54,8.75s4.06,2.54,3.05,5.16-2.56,2-2.46,3.65,4.06,3.37,7.42,1.18,5.42-4.44,5.79-9.87S234.54,368.06,232.84,365.44ZM230.23,373c-.84,2.45-2.23,4.07-5,1.58s-.25-6.22-.25-6.22a3.45,3.45,0,0,1,3.65-.94C230.13,368.09,231.06,370.54,230.23,373Z" />
  <path class="BUNTAI_DEER_JEWELRY_DEER_JEWELRY_5_cls-2" d="M230.33,363.27a10.87,10.87,0,0,0-8.55,1.17c-9.31,12,4.27,12.34,2.39,17a4.06,4.06,0,0,1-2.11,2.48,1.55,1.55,0,0,0-.19,2.62,6.06,6.06,0,0,0,4.86,1.11C237.53,385.2,236.1,364.71,230.33,363.27Z" />
  <path class="BUNTAI_DEER_JEWELRY_DEER_JEWELRY_5_cls-2" d="M225,368.35s-2.53,3.74.25,6.22,4.17.87,5-1.58-.09-4.89-1.6-5.58A3.43,3.43,0,0,0,225,368.35Z" />
  <path class="BUNTAI_DEER_JEWELRY_DEER_JEWELRY_5_cls-3" d="M225.16,369.6h-.49c-27.33,0-55.06-29.82-60.74-36.38a14.24,14.24,0,0,1,.38-2.76c-2.56-1.29-5.29,1.54-3,4.53.27.26,32,37.7,63.34,37.7h.5a1.56,1.56,0,0,0,0-3.08Z" />
  <path class="BUNTAI_DEER_JEWELRY_DEER_JEWELRY_5_cls-3" d="M275.32,330.05c.27.49.37,2.39,1.07,3.76-19.8,28.73-40,35.4-46.66,35.8a1.49,1.49,0,0,0-1.49,1.32,1.52,1.52,0,0,0,1.13,1.74,4,4,0,0,0,2.9.18c19.77-5.65,36.41-21.49,47.35-38C281.36,332.25,277.55,328.48,275.32,330.05Z" />
</svg>