<svg id="jewelry" xmlns="http://www.w3.org/2000/svg" viewBox="0 0 432 432">
  <defs>
    <style>.BUNTAI_DEER_JEWELRY_DEER_JEWELRY_15_cls-1{fill:#d8d189;}.BUNTAI_DEER_JEWELRY_DEER_JEWELRY_15_cls-2{fill:#e5e5cd;}.BUNTAI_DEER_JEWELRY_DEER_JEWELRY_15_cls-3{fill:#864821;}</style>
  </defs>
  <polygon class="BUNTAI_DEER_JEWELRY_DEER_JEWELRY_15_cls-1" points="206.53 373.47 201.94 373.07 199.07 374.5 197.44 377.65 197.97 380.46 201.55 382.87 205.48 382.96 208.38 380.99 209.74 378.65 209.14 375.75 206.53 373.47" />
  <polygon class="BUNTAI_DEER_JEWELRY_DEER_JEWELRY_15_cls-1" points="180.43 353.13 177.14 352.78 173.6 354.43 172.02 356.93 173.15 360.71 176.21 362.82 179.91 362.77 182.66 361.62 184.24 359.01 183.79 355.84 180.43 353.13" />
  <polygon class="BUNTAI_DEER_JEWELRY_DEER_JEWELRY_15_cls-1" points="238.25 373.07 233.66 373.47 231.05 375.75 230.45 378.65 231.81 380.99 234.71 382.96 238.64 382.87 242.22 380.46 242.75 377.65 241.11 374.5 238.25 373.07" />
  <polygon class="BUNTAI_DEER_JEWELRY_DEER_JEWELRY_15_cls-1" points="266.58 354.43 263.05 352.78 259.76 353.13 256.4 355.84 255.95 359.01 257.53 361.62 260.28 362.77 263.98 362.82 267.04 360.71 268.17 356.93 266.58 354.43" />
  <path class="BUNTAI_DEER_JEWELRY_DEER_JEWELRY_15_cls-2" d="M220,378.79s-3.94-.59-3.94,5.5c0,0,0,24.58,3.94,24.58S224,384.29,224,384.29C224,378.2,220,378.79,220,378.79Z" />
  <path class="BUNTAI_DEER_JEWELRY_DEER_JEWELRY_15_cls-2" d="M191.43,366.53s-2.93-2.31-6.79,2.81c0,0-15.52,20.69-12.25,22.49S191.26,373,191.26,373C195.11,367.85,191.43,366.53,191.43,366.53Z" />
  <path class="BUNTAI_DEER_JEWELRY_DEER_JEWELRY_15_cls-2" d="M174.62,342.93s-1-3.31-7.48-.82c0,0-26.21,10.1-24.62,13.14s27.84-7,27.84-7C176.86,345.75,174.62,342.93,174.62,342.93Z" />
  <path class="BUNTAI_DEER_JEWELRY_DEER_JEWELRY_15_cls-2" d="M248.75,366.53s-3.67,1.32.18,6.44c0,0,15.59,20.66,18.86,18.86s-12.25-22.49-12.25-22.49C251.69,364.22,248.75,366.53,248.75,366.53Z" />
  <path class="BUNTAI_DEER_JEWELRY_DEER_JEWELRY_15_cls-2" d="M273.05,342.11c-6.5-2.49-7.48.82-7.48.82s-2.24,2.82,4.26,5.31c0,0,26.24,10,27.84,7S273.05,342.11,273.05,342.11Z" />
  <path class="BUNTAI_DEER_JEWELRY_DEER_JEWELRY_15_cls-3" d="M195.11,370.64a2.76,2.76,0,0,0-1.71.15s-4.23,5.64-2.88,6.46,3.55-1.42,4.59-3.44S195.84,370.9,195.11,370.64Z" />
  <path class="BUNTAI_DEER_JEWELRY_DEER_JEWELRY_15_cls-3" d="M198.3,372a2.76,2.76,0,0,0-1.72.16s-4.23,5.63-2.88,6.45,3.56-1.42,4.6-3.44S199,372.26,198.3,372Z" />
  <path class="BUNTAI_DEER_JEWELRY_DEER_JEWELRY_15_cls-3" d="M212.17,377.3a2.72,2.72,0,0,0-1.67.35s-3.3,6.07-1.83,6.73,3.3-1.82,4-3.94S212.93,377.48,212.17,377.3Z" />
  <path class="BUNTAI_DEER_JEWELRY_DEER_JEWELRY_15_cls-3" d="M215.54,378.27a2.72,2.72,0,0,0-1.67.35s-3.29,6.08-1.83,6.73,3.3-1.82,4-3.94S216.3,378.45,215.54,378.27Z" />
  <path class="BUNTAI_DEER_JEWELRY_DEER_JEWELRY_15_cls-3" d="M176.74,347.65a2.49,2.49,0,0,0-1.47-.76s-7.36,2.27-6.88,3.62,3.84.72,6.1-.34S177.13,348.24,176.74,347.65Z" />
  <path class="BUNTAI_DEER_JEWELRY_DEER_JEWELRY_15_cls-3" d="M178.31,350.38a2.51,2.51,0,0,0-1.47-.76s-7.37,2.27-6.88,3.62,3.83.72,6.09-.34S178.7,351,178.31,350.38Z" />
  <path class="BUNTAI_DEER_JEWELRY_DEER_JEWELRY_15_cls-3" d="M185.55,361.81a2.65,2.65,0,0,0-1.58-.59s-6.94,3.11-6.24,4.39,3.91.27,6-1S186,362.35,185.55,361.81Z" />
  <path class="BUNTAI_DEER_JEWELRY_DEER_JEWELRY_15_cls-3" d="M186,363.74s-6.93,3.11-6.24,4.4,3.91.27,6-1.05,2.32-2.22,1.84-2.76A2.65,2.65,0,0,0,186,363.74Z" />
  <path class="BUNTAI_DEER_JEWELRY_DEER_JEWELRY_15_cls-3" d="M168.9,338.14c2.48-.61,3.07-1.39,2.85-2s-1.24-1-1.24-1-1,.11-2.22.31c2.41-.61,3-1.38,2.77-2s-1.24-1-1.24-1-7.77.85-7.64,2.26c.11,1.1,2.21,1.34,4.31,1.1-1.87.39-3.68.94-3.62,1.63C163,338.75,166.43,338.76,168.9,338.14Z" />
  <path class="BUNTAI_DEER_JEWELRY_DEER_JEWELRY_15_cls-3" d="M172.58,339.06c-.23-.65-1.24-1-1.24-1s-7.77.85-7.64,2.26,3.56,1.42,6,.8S172.81,339.71,172.58,339.06Z" />
  <path class="BUNTAI_DEER_JEWELRY_DEER_JEWELRY_15_cls-3" d="M167.38,332.45c2.48-.61,3.08-1.39,2.85-2s-1.24-1-1.24-1-7.77.85-7.64,2.26S164.91,333.07,167.38,332.45Z" />
  <path class="BUNTAI_DEER_JEWELRY_DEER_JEWELRY_15_cls-3" d="M245.07,370.64c-.72.26-1,1.15,0,3.17s3.25,4.26,4.6,3.44-2.88-6.46-2.88-6.46A2.78,2.78,0,0,0,245.07,370.64Z" />
  <path class="BUNTAI_DEER_JEWELRY_DEER_JEWELRY_15_cls-3" d="M241.89,372c-.73.27-1,1.15,0,3.17s3.24,4.26,4.59,3.44-2.88-6.45-2.88-6.45A2.72,2.72,0,0,0,241.89,372Z" />
  <path class="BUNTAI_DEER_JEWELRY_DEER_JEWELRY_15_cls-3" d="M228,377.3c-.77.18-1.22,1-.51,3.14s2.54,4.6,4,3.94-1.82-6.73-1.82-6.73A2.72,2.72,0,0,0,228,377.3Z" />
  <path class="BUNTAI_DEER_JEWELRY_DEER_JEWELRY_15_cls-3" d="M224.64,378.27c-.76.18-1.21,1-.5,3.14s2.54,4.6,4,3.94-1.82-6.73-1.82-6.73A2.73,2.73,0,0,0,224.64,378.27Z" />
  <path class="BUNTAI_DEER_JEWELRY_DEER_JEWELRY_15_cls-3" d="M264.91,346.89a2.51,2.51,0,0,0-1.47.76c-.38.59,0,1.46,2.26,2.52s5.6,1.69,6.09.34S264.91,346.89,264.91,346.89Z" />
  <path class="BUNTAI_DEER_JEWELRY_DEER_JEWELRY_15_cls-3" d="M263.35,349.62a2.49,2.49,0,0,0-1.47.76c-.39.59,0,1.46,2.25,2.52s5.61,1.69,6.1.34S263.35,349.62,263.35,349.62Z" />
  <path class="BUNTAI_DEER_JEWELRY_DEER_JEWELRY_15_cls-3" d="M256.22,361.22a2.65,2.65,0,0,0-1.58.59c-.48.54-.23,1.44,1.84,2.76s5.28,2.33,6,1S256.22,361.22,256.22,361.22Z" />
  <path class="BUNTAI_DEER_JEWELRY_DEER_JEWELRY_15_cls-3" d="M254.23,363.74a2.61,2.61,0,0,0-1.57.59c-.48.54-.24,1.44,1.83,2.76s5.28,2.33,6,1.05S254.23,363.74,254.23,363.74Z" />
  <path class="BUNTAI_DEER_JEWELRY_DEER_JEWELRY_15_cls-3" d="M268.85,338s-1,.37-1.24,1,.37,1.42,2.84,2,5.9.61,6-.8S268.85,338,268.85,338Z" />
  <path class="BUNTAI_DEER_JEWELRY_DEER_JEWELRY_15_cls-3" d="M271.2,329.39s-1,.38-1.24,1,.37,1.43,2.84,2,5.9.61,6-.8S271.2,329.39,271.2,329.39Z" />
  <path class="BUNTAI_DEER_JEWELRY_DEER_JEWELRY_15_cls-3" d="M270.36,332.35s-1,.37-1.23,1,.36,1.41,2.77,2c-1.25-.2-2.22-.31-2.22-.31s-1,.38-1.24,1,.37,1.42,2.84,2,5.91.61,6-.8c.06-.69-1.75-1.24-3.63-1.63,2.1.24,4.21,0,4.31-1.1C278.13,333.2,270.36,332.35,270.36,332.35Z" />
  <path d="M220,409.45c-1.4,0-3.13-1.46-4.05-12.82-.49-6.1-.5-12.27-.5-12.34,0-2.49.63-4.27,1.89-5.27a4.76,4.76,0,0,1,5.31,0c1.26,1,1.89,2.78,1.89,5.27,0,.07,0,6.24-.5,12.34C223.14,408,221.42,409.45,220,409.45Zm-.29-30.1a2.55,2.55,0,0,0-1.59.57c-.94.76-1.44,2.27-1.44,4.37,0,.06,0,6.2.51,12.25.92,11.43,2.62,11.76,2.81,11.76s1.88-.33,2.8-11.76c.49-6.05.51-12.19.51-12.25,0-2.1-.5-3.61-1.44-4.37a2.56,2.56,0,0,0-1.78-.56h-.38Z" />
  <path d="M172.86,392.52a1.53,1.53,0,0,1-.78-.2,1.4,1.4,0,0,1-.7-1c-.93-4,11.35-20.48,12.76-22.35,1.61-2.15,3.3-3.34,5-3.55a3.89,3.89,0,0,1,2.6.57,3.21,3.21,0,0,1,1.73,1.88c.47,1.44-.11,3.26-1.72,5.4,0,.05-4,5.23-8.23,10.13C177,390.88,174.29,392.52,172.86,392.52Zm16.81-25.93a2.55,2.55,0,0,0-.39,0c-1.33.17-2.75,1.23-4.13,3.06-5.39,7.18-13.18,18.81-12.56,21.45,0,.17.1.2.12.21a.53.53,0,0,0,.26.06c2.18,0,10.73-9.41,17.78-18.75,1.35-1.79,1.89-3.3,1.55-4.37a2,2,0,0,0-1.1-1.2L191,367A2.44,2.44,0,0,0,189.67,366.59Z" />
  <path d="M144.31,356.4c-1.52,0-2.09-.41-2.35-.9a1.3,1.3,0,0,1,0-1.08c1.51-3.72,22.57-11.92,25-12.84,2.82-1.08,5-1.27,6.61-.55a3.21,3.21,0,0,1,1.67,1.64,2.66,2.66,0,0,1,.31,2.24c-.44,1.49-2.09,2.79-4.9,3.87-.06,0-6.65,2.54-13.36,4.65C150.14,355.67,146.36,356.4,144.31,356.4Zm27-14.64a11.2,11.2,0,0,0-4,.89c-9.2,3.54-23.27,9.72-24.27,12.18,0,0,0,.12,0,.16s.91,1.4,13.76-2.65c6.67-2.1,13.23-4.6,13.29-4.63,3-1.16,3.95-2.33,4.18-3.11a1.54,1.54,0,0,0-.18-1.33.76.76,0,0,1-.09-.18,2,2,0,0,0-1.1-1A3.93,3.93,0,0,0,171.33,341.76Z" />
  <path d="M205.48,383.53h0l-3.93-.08a.66.66,0,0,1-.35-.11l-3.58-2.41a.54.54,0,0,1-.24-.37l-.53-2.81a.6.6,0,0,1,0-.35l1.64-3.15a.57.57,0,0,1,.26-.25l2.86-1.43a.61.61,0,0,1,.35-.07l4.6.4a.68.68,0,0,1,.36.15l2.61,2.28a.55.55,0,0,1,.18.31l.61,2.9a.56.56,0,0,1-.07.38l-1.36,2.35a.54.54,0,0,1-.18.19l-2.9,2A.57.57,0,0,1,205.48,383.53Zm-3.73-1.23,3.53.08,2.62-1.78,1.19-2.05-.52-2.5-2.31-2-4.2-.37-2.52,1.26-1.46,2.81.45,2.4Z" />
  <path d="M176.21,363.4a.67.67,0,0,1-.37-.11l-3.06-2.11a.64.64,0,0,1-.23-.31l-1.13-3.78a.56.56,0,0,1,.07-.45l1.58-2.5a.58.58,0,0,1,.26-.23l3.53-1.64a.7.7,0,0,1,.35-.06l3.29.35a.65.65,0,0,1,.33.14l3.36,2.7a.59.59,0,0,1,.21.37l.45,3.16a.52.52,0,0,1-.08.36l-1.58,2.61a.55.55,0,0,1-.28.24l-2.75,1.16a.7.7,0,0,1-.25.05l-3.69,0Zm-2.53-3,2.73,1.87,3.36,0,2.45-1,1.38-2.28-.39-2.76-3-2.44-2.92-.31L174,354.87,172.69,357Z" />
  <path d="M267.33,392.52c-1.43,0-4.19-1.64-10.68-9.08-4.27-4.9-8.19-10.08-8.23-10.13-1.6-2.14-2.18-4-1.71-5.4a3.18,3.18,0,0,1,1.73-1.88,3.87,3.87,0,0,1,2.6-.57c1.71.21,3.39,1.4,5,3.55,1.4,1.87,13.68,18.38,12.76,22.35a1.4,1.4,0,0,1-.7,1A1.58,1.58,0,0,1,267.33,392.52ZM249,367.07a1.93,1.93,0,0,0-1.09,1.2c-.34,1.07.2,2.58,1.55,4.37,7.37,9.77,16.38,19.61,18,18.69,0,0,.08,0,.12-.21.61-2.64-7.18-14.27-12.57-21.45-1.37-1.83-2.8-2.89-4.12-3.06a2.52,2.52,0,0,0-1.76.36A1,1,0,0,1,249,367.07Zm-.23-.54h0Z" />
  <path d="M295.87,356.4c-2,0-5.82-.73-12.92-3-6.7-2.11-13.29-4.63-13.36-4.65-2.8-1.08-4.45-2.38-4.9-3.87a2.69,2.69,0,0,1,.32-2.24,3.14,3.14,0,0,1,1.66-1.64c1.57-.72,3.8-.53,6.61.55,2.4.92,23.45,9.12,25,12.84a1.23,1.23,0,0,1,0,1.08C298,356,297.4,356.4,295.87,356.4Zm-29.8-13.14a1.6,1.6,0,0,0-.18,1.37c.25.77,1.17,1.93,4.17,3.08.07,0,6.63,2.53,13.29,4.63,12.86,4.05,13.73,2.71,13.76,2.65s0-.13,0-.16c-1-2.46-15.07-8.64-24.28-12.18-3.05-1.18-4.7-1-5.56-.6a2,2,0,0,0-1.09,1A.56.56,0,0,1,266.07,343.26Zm-.5-.33Z" />
  <path d="M234.71,383.53a.62.62,0,0,1-.37-.11l-2.9-2a.81.81,0,0,1-.18-.19l-1.36-2.35a.5.5,0,0,1-.06-.38l.6-2.9a.56.56,0,0,1,.19-.31l2.6-2.28a.68.68,0,0,1,.37-.15l4.59-.4a.6.6,0,0,1,.35.07L241.4,374a.55.55,0,0,1,.27.25l1.63,3.15a.54.54,0,0,1,.06.35l-.53,2.81a.59.59,0,0,1-.25.37L239,383.34a.61.61,0,0,1-.35.11l-3.93.08Zm-2.42-2.93,2.61,1.78,3.53-.08,3.22-2.17.45-2.4-1.46-2.81-2.52-1.26-4.19.37-2.31,2-.52,2.51Z" />
  <path d="M264,363.4h0l-3.7,0a.64.64,0,0,1-.24-.05l-2.75-1.16a.62.62,0,0,1-.29-.24l-1.58-2.61a.57.57,0,0,1-.07-.36l.44-3.16a.63.63,0,0,1,.21-.37l3.37-2.7a.65.65,0,0,1,.33-.14l3.29-.35a.66.66,0,0,1,.34.06l3.54,1.64a.58.58,0,0,1,.26.23l1.58,2.5a.55.55,0,0,1,.06.45l-1.12,3.78a.64.64,0,0,1-.23.31l-3.06,2.11A.7.7,0,0,1,264,363.4Zm-3.56-1.2,3.36,0,2.72-1.87,1-3.35-1.36-2.15-3.2-1.49-2.92.31-3,2.44-.39,2.76,1.38,2.28Z" />
  <path d="M191.16,378a1.83,1.83,0,0,1-1-.27,1.08,1.08,0,0,1-.51-.74c-.35-1.66,2.62-5.73,3.22-6.53a.67.67,0,0,1,.25-.19,3.43,3.43,0,0,1,2.2-.17,1.54,1.54,0,0,1,.92.86c.3.72.11,1.74-.59,3.1-.81,1.58-2.39,3.46-3.93,3.86A2.38,2.38,0,0,1,191.16,378Zm2.64-6.74c-1.82,2.46-3.18,5-2.91,5.54a.79.79,0,0,0,.52,0c1-.25,2.34-1.68,3.14-3.25s.63-2,.56-2.18a.41.41,0,0,0-.22-.21A1.93,1.93,0,0,0,193.8,371.26Z" />
  <path d="M194.34,379.35a1.82,1.82,0,0,1-1-.27,1.1,1.1,0,0,1-.52-.74c-.34-1.66,2.63-5.73,3.23-6.52a.62.62,0,0,1,.25-.2,3.4,3.4,0,0,1,2.19-.17,1.54,1.54,0,0,1,.92.86c.31.72.12,1.74-.59,3.1-.81,1.58-2.38,3.46-3.92,3.86A2,2,0,0,1,194.34,379.35Zm2.65-6.73c-1.83,2.46-3.18,5-2.92,5.53a.73.73,0,0,0,.52,0c1-.25,2.34-1.67,3.15-3.25.73-1.42.63-2,.55-2.18a.34.34,0,0,0-.22-.2A1.87,1.87,0,0,0,197,372.62Z" />
  <path d="M209.17,385.06a1.9,1.9,0,0,1-.77-.16,1.17,1.17,0,0,1-.62-.68c-.59-1.61,1.7-6,2.17-6.83a.6.6,0,0,1,.22-.23,3.25,3.25,0,0,1,2.15-.42,1.58,1.58,0,0,1,1,.74c.41.68.38,1.71-.09,3.13-.55,1.65-1.81,3.69-3.27,4.29A2.22,2.22,0,0,1,209.17,385.06Zm1.8-7c-1.4,2.62-2.35,5.36-2,5.81a.69.69,0,0,0,.54,0c.9-.37,2-1.93,2.57-3.57.5-1.49.31-2,.2-2.22a.36.36,0,0,0-.26-.19A1.84,1.84,0,0,0,211,378.07Z" />
  <path d="M212.55,386a1.84,1.84,0,0,1-.77-.17,1.15,1.15,0,0,1-.63-.68c-.59-1.61,1.7-6,2.17-6.83a.69.69,0,0,1,.22-.23,3.4,3.4,0,0,1,2.15-.42,1.58,1.58,0,0,1,1,.74c.41.68.38,1.71-.09,3.13-.55,1.65-1.81,3.69-3.27,4.29A2.19,2.19,0,0,1,212.55,386Zm1.79-7c-1.4,2.61-2.35,5.36-2,5.81a.69.69,0,0,0,.54,0c.9-.37,2-1.93,2.58-3.57.49-1.48.3-2.05.2-2.22a.4.4,0,0,0-.27-.19A1.86,1.86,0,0,0,214.34,379Z" />
  <path d="M170.15,351.86a3.7,3.7,0,0,1-1.34-.21,1.59,1.59,0,0,1-1-1,1,1,0,0,1,.08-.82c.8-1.5,6.13-3.2,7.19-3.53a.61.61,0,0,1,.3,0,3,3,0,0,1,1.89,1,1.27,1.27,0,0,1,.16,1.12c-.23.75-1.1,1.48-2.66,2.21A11.83,11.83,0,0,1,170.15,351.86ZM169,350.37a.48.48,0,0,0,.29.22c.89.34,3.1-.08,4.92-.93s2-1.36,2-1.5a.22.22,0,0,0,0-.21,1.85,1.85,0,0,0-.91-.47C172.15,348.47,169.27,349.79,169,350.37Z" />
  <path d="M171.71,354.59a3.64,3.64,0,0,1-1.33-.21,1.65,1.65,0,0,1-1-.95,1.05,1.05,0,0,1,.08-.83c.81-1.5,6.13-3.2,7.19-3.53a.65.65,0,0,1,.31,0,3,3,0,0,1,1.89,1,1.31,1.31,0,0,1,.16,1.12c-.23.76-1.1,1.48-2.67,2.22A11.9,11.9,0,0,1,171.71,354.59Zm-1.15-1.49a.51.51,0,0,0,.29.22c.9.34,3.1-.08,4.92-.93s2-1.36,2-1.5a.23.23,0,0,0,0-.21,1.76,1.76,0,0,0-.91-.47C173.72,351.2,170.83,352.52,170.56,353.1Z" />
  <path d="M179.09,366.78a3,3,0,0,1-.75-.08,1.68,1.68,0,0,1-1.16-.83,1,1,0,0,1-.05-.83c.58-1.59,5.57-3.89,6.57-4.34a.61.61,0,0,1,.3-.05,3.15,3.15,0,0,1,2,.79,1.31,1.31,0,0,1,.33,1.11c-.11.77-.86,1.59-2.29,2.49A10.59,10.59,0,0,1,179.09,366.78Zm-.79-1.39a.51.51,0,0,0,.35.19c.94.23,3.06-.44,4.71-1.49s1.75-1.55,1.77-1.71a.21.21,0,0,0-.06-.2,1.81,1.81,0,0,0-1-.37C181.12,363.15,178.48,364.79,178.3,365.39Z" />
  <path d="M181.07,369.31a3.08,3.08,0,0,1-.75-.09,1.72,1.72,0,0,1-1.16-.82,1,1,0,0,1,0-.84c.57-1.58,5.57-3.89,6.56-4.34a.63.63,0,0,1,.3-.05,3.16,3.16,0,0,1,2,.8,1.31,1.31,0,0,1,.33,1.1c-.12.77-.87,1.59-2.3,2.5A10.59,10.59,0,0,1,181.07,369.31Zm-.78-1.4a.55.55,0,0,0,.34.2c1,.23,3.06-.45,4.72-1.5s1.74-1.55,1.77-1.7a.24.24,0,0,0-.07-.21,1.77,1.77,0,0,0-1-.37C183.11,365.67,180.47,367.31,180.29,367.91Z" />
  <path d="M165.78,339.11a5.42,5.42,0,0,1-2.8-.59,1.56,1.56,0,0,1-.73-1.13c-.15-1.63,4.37-2.46,8.19-2.88a.63.63,0,0,1,.3,0,2.84,2.84,0,0,1,1.59,1.38,1.26,1.26,0,0,1-.11,1.1c-.4.69-1.44,1.24-3.16,1.67A14.1,14.1,0,0,1,165.78,339.11Zm-2.29-1.77a.41.41,0,0,0,.21.23c.77.51,3,.52,5,0,1.85-.46,2.29-.93,2.39-1.11a.22.22,0,0,0,0-.2,1.63,1.63,0,0,0-.75-.61C167.05,336.05,163.88,336.81,163.49,337.34Z" />
  <path d="M166.61,342.07a5.28,5.28,0,0,1-2.79-.6,1.47,1.47,0,0,1-.73-1.12c-.16-1.63,4.36-2.47,8.18-2.88a.62.62,0,0,1,.3,0,2.85,2.85,0,0,1,1.6,1.38,1.29,1.29,0,0,1-.12,1.11c-.4.69-1.43,1.24-3.16,1.67A14,14,0,0,1,166.61,342.07Zm-2.29-1.78a.43.43,0,0,0,.21.24c.77.51,3,.51,5,0,1.85-.46,2.29-.92,2.4-1.1a.24.24,0,0,0,0-.2,1.58,1.58,0,0,0-.75-.61C167.88,339,164.71,339.77,164.32,340.29Z" />
  <path d="M164.26,333.42a5.38,5.38,0,0,1-2.79-.59,1.5,1.5,0,0,1-.73-1.13c-.16-1.63,4.36-2.46,8.18-2.88a.63.63,0,0,1,.3,0,2.85,2.85,0,0,1,1.6,1.38,1.26,1.26,0,0,1-.12,1.1c-.4.69-1.43,1.24-3.16,1.67A14,14,0,0,1,164.26,333.42ZM162,331.64a.43.43,0,0,0,.21.24c.77.51,3,.51,5,0,1.85-.46,2.29-.93,2.4-1.11a.24.24,0,0,0,0-.2,1.58,1.58,0,0,0-.75-.61C165.53,330.36,162.36,331.12,162,331.64Z" />
  <path d="M165.09,336.38a5.28,5.28,0,0,1-2.79-.6,1.47,1.47,0,0,1-.73-1.12c-.15-1.63,4.36-2.47,8.18-2.88a.62.62,0,0,1,.3,0,2.85,2.85,0,0,1,1.6,1.38,1.32,1.32,0,0,1-.11,1.11c-.41.69-1.44,1.24-3.16,1.67A14.18,14.18,0,0,1,165.09,336.38Zm-2.28-1.78c0,.07.06.15.2.24.77.51,3,.51,5.05,0,1.84-.46,2.28-.92,2.39-1.1a.21.21,0,0,0,0-.2,1.52,1.52,0,0,0-.75-.61C166.36,333.32,163.2,334.08,162.81,334.6Z" />
  <path d="M249,378a2.46,2.46,0,0,1-.59-.08c-1.54-.4-3.11-2.28-3.92-3.86-.7-1.36-.9-2.38-.59-3.1a1.54,1.54,0,0,1,.92-.86,3.33,3.33,0,0,1,2.19.17.6.6,0,0,1,.25.19c.6.8,3.57,4.87,3.23,6.53a1.11,1.11,0,0,1-.51.74A1.88,1.88,0,0,1,249,378Zm-3.41-6.87a1.12,1.12,0,0,0-.32,0,.38.38,0,0,0-.22.21c-.08.18-.18.76.55,2.18s2.19,3,3.15,3.25a.68.68,0,0,0,.55,0c.23-.49-1.12-3-2.94-5.51A2.87,2.87,0,0,0,245.62,371.13Z" />
  <path d="M245.84,379.35a2,2,0,0,1-.58-.08c-1.54-.4-3.12-2.28-3.93-3.86-.7-1.36-.89-2.38-.59-3.1a1.56,1.56,0,0,1,.92-.86,3.43,3.43,0,0,1,2.2.17.62.62,0,0,1,.25.2c.6.79,3.57,4.86,3.22,6.52a1.06,1.06,0,0,1-.51.74A1.83,1.83,0,0,1,245.84,379.35Zm-3.4-6.87a.88.88,0,0,0-.33,0,.36.36,0,0,0-.22.2c-.07.18-.17.76.56,2.18.81,1.58,2.19,3,3.14,3.25a.64.64,0,0,0,.55,0c.24-.48-1.12-3-2.94-5.5A2.39,2.39,0,0,0,242.44,372.48Z" />
  <path d="M231,385.06a2.26,2.26,0,0,1-.83-.16c-1.45-.6-2.71-2.64-3.26-4.29-.48-1.42-.51-2.45-.1-3.13a1.63,1.63,0,0,1,1-.74,3.28,3.28,0,0,1,2.16.42.69.69,0,0,1,.22.23c.46.86,2.75,5.22,2.16,6.83a1.11,1.11,0,0,1-.62.68A1.83,1.83,0,0,1,231,385.06Zm-2.66-7.22a.52.52,0,0,0-.18,0,.36.36,0,0,0-.27.19c-.1.17-.29.73.2,2.22.55,1.64,1.68,3.2,2.58,3.57a.66.66,0,0,0,.57,0c.31-.43-.63-3.18-2-5.79A2.22,2.22,0,0,0,228.35,377.84Z" />
  <path d="M227.64,386a2.28,2.28,0,0,1-.83-.17c-1.46-.6-2.71-2.64-3.26-4.29-.48-1.42-.51-2.45-.1-3.13a1.63,1.63,0,0,1,1-.74,3.35,3.35,0,0,1,2.16.42.69.69,0,0,1,.22.23c.46.86,2.75,5.22,2.16,6.83a1.14,1.14,0,0,1-.62.68A1.84,1.84,0,0,1,227.64,386ZM225,378.81a.52.52,0,0,0-.18,0,.36.36,0,0,0-.27.19c-.1.17-.29.74.2,2.22.55,1.64,1.68,3.2,2.58,3.57a.66.66,0,0,0,.57,0c.31-.43-.63-3.18-2-5.79A2.27,2.27,0,0,0,225,378.81Z" />
  <path d="M270,351.86a11.74,11.74,0,0,1-4.62-1.18c-1.56-.73-2.44-1.46-2.67-2.21a1.28,1.28,0,0,1,.17-1.12,3,3,0,0,1,1.88-1,.65.65,0,0,1,.31,0c1.06.33,6.38,2,7.19,3.53a1,1,0,0,1,.08.82,1.63,1.63,0,0,1-1,1A3.64,3.64,0,0,1,270,351.86Zm-5.16-4.38a1.76,1.76,0,0,0-.91.47.26.26,0,0,0,0,.21c.05.14.33.69,2,1.5s4,1.27,4.92.93a.51.51,0,0,0,.29-.22C270.92,349.79,268,348.47,264.88,347.48Z" />
  <path d="M268.5,354.58a12.11,12.11,0,0,1-4.64-1.16c-1.57-.74-2.44-1.46-2.67-2.22a1.27,1.27,0,0,1,.16-1.12,3,3,0,0,1,1.89-1,.61.61,0,0,1,.3,0c1.06.33,6.39,2,7.19,3.53a1,1,0,0,1,.08.83,1.6,1.6,0,0,1-1,.95A3.76,3.76,0,0,1,268.5,354.58Zm-5.19-4.37a1.85,1.85,0,0,0-.91.47.22.22,0,0,0,0,.21c0,.14.32.69,2,1.5s4,1.27,4.93.93a.48.48,0,0,0,.28-.22C269.35,352.52,266.47,351.2,263.31,350.21Z" />
  <path d="M261.1,366.78a10.48,10.48,0,0,1-5-1.74c-1.43-.9-2.18-1.72-2.3-2.49a1.34,1.34,0,0,1,.33-1.11,3.19,3.19,0,0,1,2-.79.63.63,0,0,1,.3.05c1,.45,6,2.75,6.56,4.34a1,1,0,0,1,0,.83,1.7,1.7,0,0,1-1.16.83A3,3,0,0,1,261.1,366.78Zm-5-5a1.8,1.8,0,0,0-1,.37.19.19,0,0,0-.06.2c0,.16.21.73,1.76,1.71s3.77,1.73,4.72,1.49a.5.5,0,0,0,.34-.19C261.7,364.79,259.06,363.15,256.1,361.81Z" />
  <path d="M259.11,369.31a10.59,10.59,0,0,1-5-1.74c-1.42-.91-2.18-1.73-2.29-2.5a1.28,1.28,0,0,1,.33-1.1,3.12,3.12,0,0,1,2-.8.6.6,0,0,1,.3.05c1,.45,6,2.76,6.57,4.34a1,1,0,0,1-.05.84,1.67,1.67,0,0,1-1.16.82A3,3,0,0,1,259.11,369.31Zm-5-5a1.81,1.81,0,0,0-1,.37.22.22,0,0,0-.06.21c0,.15.22.72,1.77,1.7s3.77,1.72,4.71,1.5a.55.55,0,0,0,.35-.2C259.72,367.31,257.08,365.67,254.12,364.33Z" />
  <path d="M274.41,339.11a14.18,14.18,0,0,1-3.29-.41c-1.72-.43-2.75-1-3.16-1.67a1.29,1.29,0,0,1-.11-1.1,2.85,2.85,0,0,1,1.6-1.38.63.63,0,0,1,.3,0c3.82.42,8.33,1.25,8.18,2.88a1.5,1.5,0,0,1-.73,1.13A5.38,5.38,0,0,1,274.41,339.11Zm-4.63-3.44a1.58,1.58,0,0,0-.75.61.21.21,0,0,0,0,.2c.11.18.55.65,2.39,1.11,2,.49,4.28.49,5.05,0,.14-.09.19-.17.2-.23C276.3,336.81,273.14,336.05,269.78,335.67Z" />
  <path d="M273.58,342.07a14.11,14.11,0,0,1-3.29-.41c-1.72-.43-2.75-1-3.16-1.67a1.32,1.32,0,0,1-.11-1.11,2.85,2.85,0,0,1,1.6-1.38.61.61,0,0,1,.3,0c3.81.41,8.33,1.25,8.18,2.88a1.47,1.47,0,0,1-.73,1.12A5.3,5.3,0,0,1,273.58,342.07Zm-4.64-3.44c-.29.14-.67.39-.74.61a.19.19,0,0,0,0,.2c.1.18.54.64,2.39,1.1,2,.5,4.27.5,5.05,0,.14-.09.19-.17.2-.24C275.47,339.77,272.31,339,268.94,338.63Z" />
  <path d="M275.93,333.42a14.18,14.18,0,0,1-3.29-.41c-1.72-.43-2.75-1-3.16-1.67a1.29,1.29,0,0,1-.11-1.1,2.85,2.85,0,0,1,1.6-1.38.61.61,0,0,1,.3,0c3.81.42,8.33,1.25,8.18,2.88a1.5,1.5,0,0,1-.73,1.13A5.4,5.4,0,0,1,275.93,333.42ZM271.29,330a1.59,1.59,0,0,0-.74.61.21.21,0,0,0,0,.2c.1.18.55.65,2.39,1.11,2,.5,4.27.49,5.05,0,.14-.09.19-.17.2-.24C277.82,331.12,274.66,330.36,271.29,330Z" />
  <path d="M275.09,336.38a14.1,14.1,0,0,1-3.28-.41c-1.72-.43-2.76-1-3.16-1.67a1.32,1.32,0,0,1-.11-1.11,2.82,2.82,0,0,1,1.6-1.38.61.61,0,0,1,.3,0c3.81.41,8.33,1.25,8.18,2.88a1.5,1.5,0,0,1-.73,1.12A5.32,5.32,0,0,1,275.09,336.38Zm-4.63-3.44c-.29.14-.67.38-.75.61a.22.22,0,0,0,0,.2c.1.18.54.64,2.39,1.1,2,.5,4.27.5,5.05,0a.41.41,0,0,0,.2-.24C277,334.08,273.82,333.32,270.46,332.94Z" />
  <path d="M276.88,329.82a2.24,2.24,0,0,1-.05.27,1.06,1.06,0,0,1-.1.3,1.6,1.6,0,0,1-.31.47l0,0-2.86-.6a1.35,1.35,0,0,1-.09-.6,1.5,1.5,0,0,1,0-.2c0-.11.05-.24.07-.39a15.85,15.85,0,0,0,.18-2.11c0-.13,0-.27,0-.4a11.13,11.13,0,0,0-.93-4.79l-1.29-5.31a7.72,7.72,0,0,1,3.25,2.22C277.92,322.39,277.12,328.46,276.88,329.82Z" />
  <path d="M166.89,315.9a3.1,3.1,0,0,0-1.87-.25c-3.88.5-3.49,5.05-3.49,5.44v0a26.22,26.22,0,0,0,.56,3.74,33.3,33.3,0,0,0,1.46,4.89l0,0a1.37,1.37,0,0,0,.31.48,1.63,1.63,0,0,0,.66.44l1.86-.37a1.48,1.48,0,0,0,.4-.65,1.25,1.25,0,0,0,.08-.6,2.13,2.13,0,0,0-.1-.42,27.93,27.93,0,0,1-1.89-8.91c0-.37.26-.65.37-1Z" />
</svg>