<svg xmlns="http://www.w3.org/2000/svg" viewBox="0 0 432 432">
  <defs>
    <style>.BUNTAI_DEER_JEWELRY_DEER_JEWELRY_4_cls-1{isolation:isolate;}.BUNTAI_DEER_JEWELRY_DEER_JEWELRY_4_cls-2{fill:#c7a858;}.BUNTAI_DEER_JEWELRY_DEER_JEWELRY_4_cls-13,.BUNTAI_DEER_JEWELRY_DEER_JEWELRY_4_cls-3,.BUNTAI_DEER_JEWELRY_DEER_JEWELRY_4_cls-6,.BUNTAI_DEER_JEWELRY_DEER_JEWELRY_4_cls-7,.BUNTAI_DEER_JEWELRY_DEER_JEWELRY_4_cls-9{fill:none;stroke-linecap:round;stroke-linejoin:round;}.BUNTAI_DEER_JEWELRY_DEER_JEWELRY_4_cls-10,.BUNTAI_DEER_JEWELRY_DEER_JEWELRY_4_cls-11,.BUNTAI_DEER_JEWELRY_DEER_JEWELRY_4_cls-13,.BUNTAI_DEER_JEWELRY_DEER_JEWELRY_4_cls-3,.BUNTAI_DEER_JEWELRY_DEER_JEWELRY_4_cls-6,.BUNTAI_DEER_JEWELRY_DEER_JEWELRY_4_cls-7,.BUNTAI_DEER_JEWELRY_DEER_JEWELRY_4_cls-9{stroke:#000;}.BUNTAI_DEER_JEWELRY_DEER_JEWELRY_4_cls-3{stroke-width:0.85px;}.BUNTAI_DEER_JEWELRY_DEER_JEWELRY_4_cls-4{fill:#d2a548;}.BUNTAI_DEER_JEWELRY_DEER_JEWELRY_4_cls-5{fill:#5897a8;}.BUNTAI_DEER_JEWELRY_DEER_JEWELRY_4_cls-6{stroke-width:0.34px;}.BUNTAI_DEER_JEWELRY_DEER_JEWELRY_4_cls-7{stroke-width:0.89px;}.BUNTAI_DEER_JEWELRY_DEER_JEWELRY_4_cls-8{opacity:0.43;mix-blend-mode:multiply;}.BUNTAI_DEER_JEWELRY_DEER_JEWELRY_4_cls-9{stroke-width:0.79px;}.BUNTAI_DEER_JEWELRY_DEER_JEWELRY_4_cls-10{fill:#fff;}.BUNTAI_DEER_JEWELRY_DEER_JEWELRY_4_cls-10,.BUNTAI_DEER_JEWELRY_DEER_JEWELRY_4_cls-11{stroke-miterlimit:10;stroke-width:0.62px;}.BUNTAI_DEER_JEWELRY_DEER_JEWELRY_4_cls-11{fill:#754c24;}.BUNTAI_DEER_JEWELRY_DEER_JEWELRY_4_cls-12{fill:#333;}.BUNTAI_DEER_JEWELRY_DEER_JEWELRY_4_cls-13{stroke-width:0.47px;}</style>
  </defs>
  <g class="BUNTAI_DEER_JEWELRY_DEER_JEWELRY_4_cls-1">
    <g id="jewelry">
      <path class="BUNTAI_DEER_JEWELRY_DEER_JEWELRY_4_cls-2" d="M302.4,184.79c1.63,0,1.37-2.23,1.37-2.23h0a4.52,4.52,0,0,1-2,.42,1.93,1.93,0,0,1-.9-.22C300.85,182.89,300.82,184.79,302.4,184.79Z" />
      <path class="BUNTAI_DEER_JEWELRY_DEER_JEWELRY_4_cls-2" d="M299.58,176c-.6,2-.47,5.81,1.27,6.77a1.93,1.93,0,0,0,.9.22,4.52,4.52,0,0,0,2-.42c1.5-.73,2.25-2.43,2.15-5a8.09,8.09,0,0,0-.46-2.52,5.37,5.37,0,0,0-1.46-2.27,1.85,1.85,0,0,0-1.34-.55,2.27,2.27,0,0,0-1.63,1,3.51,3.51,0,0,0,.72.13h0a4.19,4.19,0,0,1,1.84,2.83c.46,2.19-.31,4.65-1.42,4.65s-1.24-2.86-1.17-4.37l-.09,0A5.49,5.49,0,0,1,299.58,176Z" />
      <path class="BUNTAI_DEER_JEWELRY_DEER_JEWELRY_4_cls-2" d="M304.45,165.31c-.62-.25-3.28-.47-3.33-.16s.88,1.57.82,1.82a9,9,0,0,1,1.93,1.1s2,1.74.85,3.89a2.22,2.22,0,0,1-.72.8,5.37,5.37,0,0,1,1.46,2.27A5.86,5.86,0,0,0,304.45,165.31Z" />
      <path class="BUNTAI_DEER_JEWELRY_DEER_JEWELRY_4_cls-2" d="M297,172.45a4.76,4.76,0,0,0,2.63,3.54,5.49,5.49,0,0,0,1.37.41H301a5,5,0,0,0,2.59-.27,4.21,4.21,0,0,0-1.83-2.83h-.05a4.36,4.36,0,0,1-.72-.14,2.16,2.16,0,0,1-1.52-1.33,1.69,1.69,0,0,1-.09-.56c0-2.33.92-2.44.92-2.44s.05-.13.11-.32a3,3,0,0,0-2.33-2A8,8,0,0,0,297,172.45Z" />
      <path class="BUNTAI_DEER_JEWELRY_DEER_JEWELRY_4_cls-3" d="M305.46,175a5.86,5.86,0,0,0-1-9.72c-.58-.29-1.3-.65-4.07,0a3.54,3.54,0,0,1,1.75,1.89,3.09,3.09,0,0,1,1.74.87s2,1.74.85,3.89a2.22,2.22,0,0,1-.72.8" />
      <path class="BUNTAI_DEER_JEWELRY_DEER_JEWELRY_4_cls-3" d="M303.63,176.14a5,5,0,0,1-2.59.27H301a5.49,5.49,0,0,1-1.37-.41,4.76,4.76,0,0,1-2.63-3.54,8,8,0,0,1,1.17-5.88" />
      <path class="BUNTAI_DEER_JEWELRY_DEER_JEWELRY_4_cls-3" d="M300.45,168.52c-.06.19-.11.32-.11.32s-.89.11-.92,2.44a1.69,1.69,0,0,0,.09.56,2.16,2.16,0,0,0,1.52,1.33,4.36,4.36,0,0,0,.72.14" />
      <path class="BUNTAI_DEER_JEWELRY_DEER_JEWELRY_4_cls-3" d="M299.58,176c-.6,2-.47,5.81,1.27,6.77a1.93,1.93,0,0,0,.9.22,4.52,4.52,0,0,0,2-.42c1.5-.73,2.25-2.43,2.15-5a8.09,8.09,0,0,0-.46-2.52,5.37,5.37,0,0,0-1.46-2.27,1.85,1.85,0,0,0-1.34-.55,2.27,2.27,0,0,0-1.63,1" />
      <path class="BUNTAI_DEER_JEWELRY_DEER_JEWELRY_4_cls-3" d="M301,176.42c-.07,1.51-.06,4.37,1.17,4.37s1.88-2.46,1.42-4.65a4.19,4.19,0,0,0-1.84-2.83h0" />
      <path class="BUNTAI_DEER_JEWELRY_DEER_JEWELRY_4_cls-3" d="M303.77,182.56s.26,2.23-1.37,2.23-1.55-1.9-1.55-2h0" />
      <path class="BUNTAI_DEER_JEWELRY_DEER_JEWELRY_4_cls-3" d="M300.27,170.91a3,3,0,0,0,.35-1.39,3,3,0,0,0-2.5-3,2.76,2.76,0,0,0-.51,0,2,2,0,0,0-2,1.51" />
      <path class="BUNTAI_DEER_JEWELRY_DEER_JEWELRY_4_cls-4" d="M297.64,194.19a4.8,4.8,0,0,0,2.34,4.12,4.74,4.74,0,0,1,.78-1.66,3,3,0,0,1,1.66-5.42,3,3,0,0,1,1.66,5.42,4.41,4.41,0,0,1,.78,1.66,4.79,4.79,0,1,0-7.22-4.12Z" />
      <path class="BUNTAI_DEER_JEWELRY_DEER_JEWELRY_4_cls-5" d="M285.87,218.51A35.92,35.92,0,0,0,298,211.9a9.53,9.53,0,0,0,1.92-2c1.21-1.78,1.26-4,1.24-6.21v-.19s-.2-2.51.37-3.11,2-.84,2.31,1.08c0,0,.09.66.33,1.7.58,2.54,2.11,7.34,5.67,10.42h0a27.8,27.8,0,0,0,11.58,2.66,4.33,4.33,0,0,1,.1,1.75c.78.09,1.55.15,2.33.19a3.07,3.07,0,0,1,.44,1.37,1.42,1.42,0,0,1-.44,1,1.46,1.46,0,0,1-1,.38,1.59,1.59,0,0,1-.1,1.33s0,0,0,0a1.84,1.84,0,0,1-.74.67,5.81,5.81,0,0,1-.93.37,5.66,5.66,0,0,1,.16.82h0a7.58,7.58,0,0,1,.07,1.17,2,2,0,0,0-1.27,1.14,3.93,3.93,0,0,0-.26,1.9l-.52.12-1,.25-.12.81a1.8,1.8,0,0,0-.85.29,3,3,0,0,0-.79.79,2.31,2.31,0,0,0-.31,2l-.22-.05a1.55,1.55,0,0,0-1.27.39,1.24,1.24,0,0,0-.22.18,3.39,3.39,0,0,1-1.32,1,2.46,2.46,0,0,1-1,0,.58.58,0,0,0-.19,0,6.05,6.05,0,0,0-3.73.7,6,6,0,0,0-2.13,2c-.12.2-.24.4-.34.6s-.22.43-.32.66a1.5,1.5,0,0,1-.49.72c-.23-.26-.5-.43-.74-.7a4.22,4.22,0,0,0-.95-.89A1.44,1.44,0,0,0,302,237a2.44,2.44,0,0,0-1.45-.69,2.4,2.4,0,0,0-1.77.47,4,4,0,0,0-4.51-.43,2,2,0,0,0,0-.24,2.54,2.54,0,0,0-1.46-1.76,1.83,1.83,0,0,1-.67-.33c-.29-.29-.24-.8-.4-1.18,0,0,0,0,0,0a2.05,2.05,0,0,0-.75-.77,2.34,2.34,0,0,1-.78-.75.76.76,0,0,1,.17-1,.43.43,0,0,1,0-.11c-.09-.41-.28-.86-.35-1.27l-.11-.69a5.45,5.45,0,0,0-.32-1.31,1.88,1.88,0,0,0-.89-1,.31.31,0,0,0-.12-.05c-.23-.08-.48-.12-.71-.2a.9.9,0,0,1-.61-.57c-.1-.42.29-.78.51-1.15a1.64,1.64,0,0,0,.21-1,1.7,1.7,0,0,0-.58-1.17,9,9,0,0,0-.83-.53,1.34,1.34,0,0,1-.55-.69.28.28,0,0,0,0-.09s0-.06,0-.1A2.78,2.78,0,0,0,285.87,218.51Z" />
      <path class="BUNTAI_DEER_JEWELRY_DEER_JEWELRY_4_cls-4" d="M299.77,200a5.05,5.05,0,0,0,1.38,3.74v-.19s-.2-2.51.37-3.11,2-.84,2.31,1.08c0,0,.09.66.33,1.7a5.6,5.6,0,0,0,.91-3.22,6.21,6.21,0,0,0-.21-1.65,4.41,4.41,0,0,0-.78-1.66,2.13,2.13,0,0,0-1.66-1,2.17,2.17,0,0,0-1.66,1,4.74,4.74,0,0,0-.78,1.66A6.65,6.65,0,0,0,299.77,200Z" />
      <path class="BUNTAI_DEER_JEWELRY_DEER_JEWELRY_4_cls-6" d="M299.75,212.33a22,22,0,0,1-7.27,4.94,69.45,69.45,0,0,0-6.52,3.25" />
      <path class="BUNTAI_DEER_JEWELRY_DEER_JEWELRY_4_cls-6" d="M287.92,222.91a87.23,87.23,0,0,1,7.51-5.79" />
      <path class="BUNTAI_DEER_JEWELRY_DEER_JEWELRY_4_cls-6" d="M297.91,217a37.68,37.68,0,0,0-9.39,8.86" />
      <path class="BUNTAI_DEER_JEWELRY_DEER_JEWELRY_4_cls-6" d="M300.83,214.59c-1.52,2.6-3.25,5.09-4.95,7.57L292,227.79c-.55.8-1.1,1.6-1.69,2.37" />
      <path class="BUNTAI_DEER_JEWELRY_DEER_JEWELRY_4_cls-6" d="M294.23,236.07a71.51,71.51,0,0,0,7.71-20.49l.07-.34A51.48,51.48,0,0,1,291.7,232.8" />
      <path class="BUNTAI_DEER_JEWELRY_DEER_JEWELRY_4_cls-6" d="M300.55,236.27a71.51,71.51,0,0,0,2.35-20.49" />
      <path class="BUNTAI_DEER_JEWELRY_DEER_JEWELRY_4_cls-6" d="M308.22,234.78h0a55,55,0,0,1-4.23-19l0-.56" />
      <path class="BUNTAI_DEER_JEWELRY_DEER_JEWELRY_4_cls-6" d="M304.23,224.09a50.71,50.71,0,0,0,1.52,13.26" />
      <path class="BUNTAI_DEER_JEWELRY_DEER_JEWELRY_4_cls-6" d="M314.69,232.93a79.57,79.57,0,0,1-6.78-12.76h0c-.17-.39-.33-.8-.49-1.2q-1.11-2.76-2-5.61" />
      <path class="BUNTAI_DEER_JEWELRY_DEER_JEWELRY_4_cls-6" d="M312.14,234.1a21.49,21.49,0,0,1-2.59-5.32,57.32,57.32,0,0,1-1.93-8.49" />
      <path class="BUNTAI_DEER_JEWELRY_DEER_JEWELRY_4_cls-6" d="M319.24,228.49a42.87,42.87,0,0,1-10.66-10" />
      <path class="BUNTAI_DEER_JEWELRY_DEER_JEWELRY_4_cls-6" d="M313.68,225.92c1.19,1.31,2.4,2.62,3.6,3.92" />
      <path class="BUNTAI_DEER_JEWELRY_DEER_JEWELRY_4_cls-6" d="M321.21,224.16a75.21,75.21,0,0,1-12.47-7.82" />
      <path class="BUNTAI_DEER_JEWELRY_DEER_JEWELRY_4_cls-6" d="M322.73,222.28a81.5,81.5,0,0,1-9.12-4.3" />
      <path class="BUNTAI_DEER_JEWELRY_DEER_JEWELRY_4_cls-7" d="M304.16,203.18a5.6,5.6,0,0,0,.91-3.22,6.21,6.21,0,0,0-.21-1.65,4.41,4.41,0,0,0-.78-1.66,2.13,2.13,0,0,0-1.66-1,2.17,2.17,0,0,0-1.66,1,4.74,4.74,0,0,0-.78,1.66,6.65,6.65,0,0,0-.21,1.65,5.05,5.05,0,0,0,1.38,3.74" />
      <path class="BUNTAI_DEER_JEWELRY_DEER_JEWELRY_4_cls-7" d="M309.83,213.6a27.21,27.21,0,0,1-3.41-1.91" />
      <path class="BUNTAI_DEER_JEWELRY_DEER_JEWELRY_4_cls-7" d="M321.51,218a4.33,4.33,0,0,0-.1-1.75,27.8,27.8,0,0,1-11.58-2.66" />
      <path class="BUNTAI_DEER_JEWELRY_DEER_JEWELRY_4_cls-7" d="M309.83,213.61h0c-3.56-3.08-5.09-7.88-5.67-10.42-.24-1-.33-1.7-.33-1.7-.28-1.92-1.74-1.68-2.31-1.08s-.37,3.11-.37,3.11v.19c0,2.16,0,4.43-1.24,6.21a9.53,9.53,0,0,1-1.92,2,35.92,35.92,0,0,1-12.12,6.61,2.78,2.78,0,0,1,.07,1.82s0,.06,0,.1a.28.28,0,0,1,0,.09,1.34,1.34,0,0,0,.55.69,9,9,0,0,1,.83.53,1.7,1.7,0,0,1,.58,1.17,1.64,1.64,0,0,1-.21,1c-.22.37-.61.73-.51,1.15a.9.9,0,0,0,.61.57c.23.08.48.12.71.2a.31.31,0,0,1,.12.05,1.88,1.88,0,0,1,.89,1,5.45,5.45,0,0,1,.32,1.31l.11.69c.07.41.26.86.35,1.27a.43.43,0,0,0,0,.11.76.76,0,0,0-.17,1,2.34,2.34,0,0,0,.78.75,2.05,2.05,0,0,1,.75.77s0,0,0,0c.16.38.11.89.4,1.18a1.83,1.83,0,0,0,.67.33,2.54,2.54,0,0,1,1.46,1.76,2,2,0,0,1,0,.24,4,4,0,0,1,4.51.43,2.4,2.4,0,0,1,1.77-.47A2.44,2.44,0,0,1,302,237a1.44,1.44,0,0,1,1.25.18,4.22,4.22,0,0,1,.95.89c.24.27.51.44.74.7a1.5,1.5,0,0,0,.49-.72c.1-.23.21-.45.32-.66s.22-.4.34-.6a6,6,0,0,1,2.13-2,6.05,6.05,0,0,1,3.73-.7.58.58,0,0,1,.19,0,2.46,2.46,0,0,0,1,0,3.39,3.39,0,0,0,1.32-1,1.24,1.24,0,0,1,.22-.18,1.55,1.55,0,0,1,1.27-.39l.22.05a2.31,2.31,0,0,1,.31-2,3,3,0,0,1,.79-.79,1.8,1.8,0,0,1,.85-.29l.12-.81,1-.25.52-.12a3.93,3.93,0,0,1,.26-1.9,2,2,0,0,1,1.27-1.14,7.58,7.58,0,0,0-.07-1.17h0a5.66,5.66,0,0,0-.16-.82A5.81,5.81,0,0,0,322,223a1.84,1.84,0,0,0,.74-.67s0,0,0,0a1.59,1.59,0,0,0,.1-1.33,1.46,1.46,0,0,0,1-.38,1.42,1.42,0,0,0,.44-1,3.11,3.11,0,0,0-.44-1.37c-.78,0-1.55-.1-2.33-.19a38.12,38.12,0,0,1-14.84-5" />
      <path class="BUNTAI_DEER_JEWELRY_DEER_JEWELRY_4_cls-7" d="M304.08,196.65a3,3,0,1,0-3.32,0" />
      <path class="BUNTAI_DEER_JEWELRY_DEER_JEWELRY_4_cls-7" d="M300,198.31a4.79,4.79,0,1,1,4.88,0" />
      <g class="BUNTAI_DEER_JEWELRY_DEER_JEWELRY_4_cls-8">
        <path d="M302.42,189.4a1.53,1.53,0,0,1,0,2c1.83.23,4.42,2,1.66,5.27a4.38,4.38,0,0,0-1.87-1s1.85,2.32.21,4.27c.14,1.39,2,12.72,3.33,17s1.87,5.71,1.87,5.71a25.31,25.31,0,0,1-3.4-7.73,138.09,138.09,0,0,0,3.4,15.19,43.82,43.82,0,0,0,1.38,4.26,19.39,19.39,0,0,1,3.7-.32c.93.15,2.41-1.45,2.9-1.76a1.89,1.89,0,0,0,.58-.45A3.11,3.11,0,0,1,318,229.3c.52-.8.63-.81.63-.81l1-.19a3.56,3.56,0,0,1,1.72-3.13c0-1.58,0-2,0-2a2.3,2.3,0,0,0,1.79-2.21c1.27-.75,1.36-1.29,1.36-1.29l-.61-1.62s-.89.88-7.39.3a15.07,15.07,0,0,1-9.81-4.54s7.31,3.19,11.44,3.68a30.48,30.48,0,0,0,3.95.36l-.61-1.55s-6.31.3-11-2.53a16.62,16.62,0,0,1-5.68-8.11c-.93-3.09-.36-3-.36-3a3.84,3.84,0,0,0,.73-3.78,39.18,39.18,0,0,1,2.27-3.4c0-.06.34-3.51-1.56-4.67A10.32,10.32,0,0,0,302.42,189.4Z" />
        <path d="M302.93,216.78s.69,14.05-.72,20.13c-1.09-.51-2.33-1.06-3.45,0C302.09,224.09,303,219.9,302.93,216.78Z" />
      </g>
      <line class="BUNTAI_DEER_JEWELRY_DEER_JEWELRY_4_cls-9" x1="302.3" y1="189.4" x2="302.3" y2="184.79" />
      <path class="BUNTAI_DEER_JEWELRY_DEER_JEWELRY_4_cls-10" d="M196.37,409.56l1.08.38,2.33.78.81.27,1.08.35.24.07.78.25,1.78.56,1.31.38,1.61.46.51.14.55.15,1.17.29.61.14.72.15c.39-1.32.8-2.45.8-2.45l-.72-.2h0l-.5-.13-.23-.07-1.35-.37-1-.27-1.37-.39-2-.57-.82-.24-1.32-.39-.35-.11-.51-.16-.77-.25-.95-.31-.59-.19-.85-.29-.07,0-1.29-.45a4.93,4.93,0,0,0-.82,1.45A1.76,1.76,0,0,0,196.37,409.56Z" />
      <polyline class="BUNTAI_DEER_JEWELRY_DEER_JEWELRY_4_cls-10" points="211.75 411.48 212.41 409.86 212.82 409.94 212.5 411.85 212.09 411.77 211.51 413.78 211.89 413.85 211 415.54 210.69 415.41 210.95 413.94" />
      <line class="BUNTAI_DEER_JEWELRY_DEER_JEWELRY_4_cls-10" x1="213.19" y1="411.99" x2="212.5" y2="411.85" />
      <line class="BUNTAI_DEER_JEWELRY_DEER_JEWELRY_4_cls-10" x1="212.64" y1="414.01" x2="211.89" y2="413.85" />
      <path class="BUNTAI_DEER_JEWELRY_DEER_JEWELRY_4_cls-10" d="M211,411.28s-.54,1.55-.79,2.5" />
      <path class="BUNTAI_DEER_JEWELRY_DEER_JEWELRY_4_cls-10" d="M197.45,409.94a8,8,0,0,1,.94-2.4" />
      <path class="BUNTAI_DEER_JEWELRY_DEER_JEWELRY_4_cls-10" d="M197.9,410.09s.69-1,1.34-2.26" />
      <path class="BUNTAI_DEER_JEWELRY_DEER_JEWELRY_4_cls-10" d="M199.83,408a4.55,4.55,0,0,1-.81,2.45" />
      <path class="BUNTAI_DEER_JEWELRY_DEER_JEWELRY_4_cls-10" d="M201.55,408.58a15.51,15.51,0,0,1-1,2.41" />
      <path class="BUNTAI_DEER_JEWELRY_DEER_JEWELRY_4_cls-10" d="M200.78,408.33a4,4,0,0,1-1,2.39" />
      <path class="BUNTAI_DEER_JEWELRY_DEER_JEWELRY_4_cls-10" d="M202.06,408.74a13.19,13.19,0,0,1-.1,2.36c0,.1,0,.21-.05.31" />
      <path class="BUNTAI_DEER_JEWELRY_DEER_JEWELRY_4_cls-10" d="M201.67,411.34l.29-.24a12.84,12.84,0,0,0,1.77-1.86" />
      <path class="BUNTAI_DEER_JEWELRY_DEER_JEWELRY_4_cls-10" d="M204.55,409.48l-.15.2a14.36,14.36,0,0,1-1.71,2" />
      <path class="BUNTAI_DEER_JEWELRY_DEER_JEWELRY_4_cls-10" d="M204.4,409.68a3.83,3.83,0,0,1,.17,1.65c0,.31-.06.61-.1.89" />
      <path class="BUNTAI_DEER_JEWELRY_DEER_JEWELRY_4_cls-10" d="M204.57,411.33a5.44,5.44,0,0,0,1.27-.69c.12-.08.23-.17.34-.26a4.69,4.69,0,0,0,.4-.33" />
      <path class="BUNTAI_DEER_JEWELRY_DEER_JEWELRY_4_cls-10" d="M205.84,410.64a5.71,5.71,0,0,1-.06,2" />
      <path class="BUNTAI_DEER_JEWELRY_DEER_JEWELRY_4_cls-10" d="M208,410.44a5.43,5.43,0,0,1-.32,2.05c-.07.18-.15.38-.24.57" />
      <path class="BUNTAI_DEER_JEWELRY_DEER_JEWELRY_4_cls-10" d="M206.18,410.38a9.41,9.41,0,0,1,1.45,2.11" />
      <path class="BUNTAI_DEER_JEWELRY_DEER_JEWELRY_4_cls-10" d="M210.53,411.15a8.66,8.66,0,0,1-.91,2.49" />
      <path class="BUNTAI_DEER_JEWELRY_DEER_JEWELRY_4_cls-10" d="M210.3,411.08a8.65,8.65,0,0,1-1.85,2.27" />
      <line class="BUNTAI_DEER_JEWELRY_DEER_JEWELRY_4_cls-10" x1="207.9" y1="413.2" x2="208.95" y2="410.71" />
      <path class="BUNTAI_DEER_JEWELRY_DEER_JEWELRY_4_cls-10" d="M249.29,414.69a31.14,31.14,0,0,1-10.78,2.4c-11.27.77-24-2.08-26-2.56l.83-3c1.79.42,18.84,5.06,36.73,1.29C251,412.57,250.17,414.29,249.29,414.69Z" />
      <line class="BUNTAI_DEER_JEWELRY_DEER_JEWELRY_4_cls-10" x1="213.33" y1="411.49" x2="212.5" y2="414.53" />
      <path class="BUNTAI_DEER_JEWELRY_DEER_JEWELRY_4_cls-11" d="M222.68,411.25a1,1,0,0,1-.25,0c-30.29-6.4-45.33-24.86-52.61-39.22-7.86-15.52-9.69-33.58-9.69-33.72a2.47,2.47,0,0,1,1-1.8c1-.49,1.44-.49,2.56.65-.55.6-.93,1-1.39,1.64,0,.14,1.79,17.34,9.51,32.54,7.06,13.9,21.62,31.77,50.83,38.05,30.83-9.56,44.94-27.57,51.34-41,7-14.63,6.66-26.17,6.6-26.28-.38-.56-.72-1.18-1.11-1.66a2.25,2.25,0,0,1,2.15-.59c1,.17,1.06,1.68,1.07,2.19s.39,12.05-6.75,27c-6.59,13.84-21.12,32.39-52.89,42.15A1.06,1.06,0,0,1,222.68,411.25Z" />
      <path class="BUNTAI_DEER_JEWELRY_DEER_JEWELRY_4_cls-12" d="M220.22,408.74l1.44.34s1.49-.73,2.1.3.33,1.76-.47,2.08-2,0-2.2-.52a3.39,3.39,0,0,0-1.38-.27,3,3,0,0,0,2.49,2.09c1.92.17,3.09-.86,3.28-2.23a2.34,2.34,0,0,0-1.54-2.49A3.23,3.23,0,0,0,220.22,408.74Z" />
      <path class="BUNTAI_DEER_JEWELRY_DEER_JEWELRY_4_cls-13" d="M219.64,410.6a2.77,2.77,0,0,0,2.61,2.23h.29a3.14,3.14,0,0,0,2-.65,2.45,2.45,0,0,0,1-1.77.57.57,0,0,0,0-.13,2.36,2.36,0,0,0-.66-1.62,3.13,3.13,0,0,0-2.28-.93,3.06,3.06,0,0,0-2.38,1.07l1.45.34a1.77,1.77,0,0,1,.93-.26,1.7,1.7,0,0,1,.88.23,1.36,1.36,0,0,1,.73,1.17,1.24,1.24,0,0,1-.18.62,1.71,1.71,0,0,1-2.83,0h0Z" />
    </g>
  </g>
</svg>