<svg id="jewelry" xmlns="http://www.w3.org/2000/svg" viewBox="0 0 432 432">
  <defs>
    <style>.BUNTAI_DEER_JEWELRY_DEER_JEWELRY_9_cls-1,.BUNTAI_DEER_JEWELRY_DEER_JEWELRY_9_cls-10,.BUNTAI_DEER_JEWELRY_DEER_JEWELRY_9_cls-11,.BUNTAI_DEER_JEWELRY_DEER_JEWELRY_9_cls-4,.BUNTAI_DEER_JEWELRY_DEER_JEWELRY_9_cls-7{fill:none;}.BUNTAI_DEER_JEWELRY_DEER_JEWELRY_9_cls-1,.BUNTAI_DEER_JEWELRY_DEER_JEWELRY_9_cls-10,.BUNTAI_DEER_JEWELRY_DEER_JEWELRY_9_cls-11,.BUNTAI_DEER_JEWELRY_DEER_JEWELRY_9_cls-4,.BUNTAI_DEER_JEWELRY_DEER_JEWELRY_9_cls-5,.BUNTAI_DEER_JEWELRY_DEER_JEWELRY_9_cls-7{stroke:#000;}.BUNTAI_DEER_JEWELRY_DEER_JEWELRY_9_cls-1,.BUNTAI_DEER_JEWELRY_DEER_JEWELRY_9_cls-10,.BUNTAI_DEER_JEWELRY_DEER_JEWELRY_9_cls-4,.BUNTAI_DEER_JEWELRY_DEER_JEWELRY_9_cls-7{stroke-linecap:round;stroke-linejoin:round;}.BUNTAI_DEER_JEWELRY_DEER_JEWELRY_9_cls-1{stroke-width:1.02px;}.BUNTAI_DEER_JEWELRY_DEER_JEWELRY_9_cls-2{fill:#c0c380;}.BUNTAI_DEER_JEWELRY_DEER_JEWELRY_9_cls-3{fill:#057948;}.BUNTAI_DEER_JEWELRY_DEER_JEWELRY_9_cls-4{stroke-width:0.75px;}.BUNTAI_DEER_JEWELRY_DEER_JEWELRY_9_cls-5{fill:#754c24;stroke-width:0.98px;}.BUNTAI_DEER_JEWELRY_DEER_JEWELRY_9_cls-11,.BUNTAI_DEER_JEWELRY_DEER_JEWELRY_9_cls-5{stroke-miterlimit:10;}.BUNTAI_DEER_JEWELRY_DEER_JEWELRY_9_cls-6{fill:#c7a858;}.BUNTAI_DEER_JEWELRY_DEER_JEWELRY_9_cls-7{stroke-width:0.74px;}.BUNTAI_DEER_JEWELRY_DEER_JEWELRY_9_cls-8{fill:#fff;}.BUNTAI_DEER_JEWELRY_DEER_JEWELRY_9_cls-9{fill:#c74c58;}.BUNTAI_DEER_JEWELRY_DEER_JEWELRY_9_cls-10,.BUNTAI_DEER_JEWELRY_DEER_JEWELRY_9_cls-11{stroke-width:1.23px;}</style>
  </defs>
  <line class="BUNTAI_DEER_JEWELRY_DEER_JEWELRY_9_cls-1" x1="222.16" y1="386.15" x2="222.16" y2="389.25" />
  <path class="BUNTAI_DEER_JEWELRY_DEER_JEWELRY_9_cls-2" d="M233.24,413a6.74,6.74,0,0,1-1.35,3.85l-.94.48h0l-5.86,4.24a14,14,0,0,0-2.7,3.17,13.89,13.89,0,0,0-2.71-3.17l-5.86-4.25-.94-.48a6.74,6.74,0,0,1-1.35-3.85,9.36,9.36,0,0,0,1.3.92,7.82,7.82,0,0,1-1.08-4.27,13.57,13.57,0,0,1,1.09-5.35c.72-1.35,3-4.43,3.25-5.93-1-1.37-1.41-3.32.6-3.32a2.29,2.29,0,0,1,2.36,1.75h-1.18s-.41-.54-.79-.32.16.67.49,1.54-.18,2.07-.88,3a16.7,16.7,0,0,1,3.79-3v-1.66s-1.26-3.83-1.52-5.32.72-1.84.72-1.84h5.41s1,.35.73,1.84-1.52,5.32-1.52,5.32v1.66a16.54,16.54,0,0,1,3.78,3c-.69-1-1.21-2.18-.87-3s.87-1.32.48-1.54-.79.32-.79.32h-1.18a2.29,2.29,0,0,1,2.36-1.75c2,0,1.64,1.95.61,3.32.22,1.5,2.53,4.58,3.24,5.93s2.08,6.43,0,9.62A9.36,9.36,0,0,0,233.24,413Z" />
  <path class="BUNTAI_DEER_JEWELRY_DEER_JEWELRY_9_cls-3" d="M222.05,401.21s-5.59,1.89-6.35,6.49,2,9.06,6.25,9.06,6.16-2.33,6.36-3.09-.33,1.12.37-2.2.73-4.68-1.42-7.14A10.58,10.58,0,0,0,222.05,401.21Z" />
  <path class="BUNTAI_DEER_JEWELRY_DEER_JEWELRY_9_cls-4" d="M225.29,416.39h0c2.58-1.16,4.1-4,4.1-7.75,0-5-7-7.83-7-7.83s-7,2.79-7,7.83c0,3.78,1.52,6.59,4.09,7.75h0" />
  <path class="BUNTAI_DEER_JEWELRY_DEER_JEWELRY_9_cls-4" d="M219.47,416.39a7,7,0,0,0,2.91.6" />
  <path class="BUNTAI_DEER_JEWELRY_DEER_JEWELRY_9_cls-4" d="M229.06,415.2c.21-.36,1.09-2.1,1.09-6.75,0-5.29-7.77-10.26-7.77-10.26s-7.78,5-7.78,10.26c0,4.65.88,6.39,1.1,6.75a10.38,10.38,0,0,1-.83-11.74,13.31,13.31,0,0,1,1.81-2.41,16.7,16.7,0,0,1,3.79-3v-1.66s-1.26-3.83-1.52-5.32.72-1.84.72-1.84h5.41s1,.35.73,1.84-1.52,5.32-1.52,5.32v1.66a16.54,16.54,0,0,1,3.78,3,13.31,13.31,0,0,1,1.81,2.41A10.36,10.36,0,0,1,229.06,415.2Z" />
  <path class="BUNTAI_DEER_JEWELRY_DEER_JEWELRY_9_cls-4" d="M215.73,415.25h0a33.68,33.68,0,0,0,3.72,1.12" />
  <path class="BUNTAI_DEER_JEWELRY_DEER_JEWELRY_9_cls-4" d="M216.68,401.05c.7-1,1.21-2.18.88-3s-.88-1.32-.49-1.54.79.32.79.32H219a2.29,2.29,0,0,0-2.36-1.75c-2,0-1.64,1.95-.6,3.32-.22,1.5-2.53,4.58-3.25,5.93a13.57,13.57,0,0,0-1.09,5.35,7.82,7.82,0,0,0,1.08,4.27c.11.17.23.33.36.5" />
  <path class="BUNTAI_DEER_JEWELRY_DEER_JEWELRY_9_cls-4" d="M219.47,416.39h0a32.4,32.4,0,0,1-3.72-1.13,18.59,18.59,0,0,1-2.92-1.35,9.36,9.36,0,0,1-1.3-.92,6.74,6.74,0,0,0,1.35,3.85l.94.48c1.9.95,6.2,3,8.57,3V417" />
  <path class="BUNTAI_DEER_JEWELRY_DEER_JEWELRY_9_cls-4" d="M213.81,417.32l5.86,4.25a13.89,13.89,0,0,1,2.71,3.17v-4.45" />
  <path class="BUNTAI_DEER_JEWELRY_DEER_JEWELRY_9_cls-4" d="M222.38,417a7,7,0,0,0,2.91-.6" />
  <path class="BUNTAI_DEER_JEWELRY_DEER_JEWELRY_9_cls-4" d="M229,415.26h0" />
  <path class="BUNTAI_DEER_JEWELRY_DEER_JEWELRY_9_cls-4" d="M231.94,413.91h0c2.06-3.19.66-8.33,0-9.62s-3-4.43-3.24-5.93c1-1.37,1.41-3.32-.61-3.32a2.29,2.29,0,0,0-2.36,1.75h1.18s.42-.54.79-.32-.16.67-.48,1.54.18,2.07.87,3" />
  <path class="BUNTAI_DEER_JEWELRY_DEER_JEWELRY_9_cls-4" d="M222.38,417v3.3a14,14,0,0,0,4.46-1.13c1.6-.62,3.14-1.36,4.1-1.83h0l.94-.48a6.74,6.74,0,0,0,1.35-3.85,9.36,9.36,0,0,1-1.3.92h0a18.59,18.59,0,0,1-2.92,1.35h0a31.25,31.25,0,0,1-3.72,1.13" />
  <path class="BUNTAI_DEER_JEWELRY_DEER_JEWELRY_9_cls-4" d="M222.38,420.29v4.45a14,14,0,0,1,2.7-3.17l5.86-4.24h0" />
  <path class="BUNTAI_DEER_JEWELRY_DEER_JEWELRY_9_cls-5" d="M287.24,337.23a2.68,2.68,0,0,0-3.84.64l1.42,1.09c-5.36,13.09-25.59,33.11-62.82,44.21-39.35-11.08-58.81-37.84-61.94-42.49l1.59-.86a2.94,2.94,0,0,0-4.32-1.22,2.55,2.55,0,0,0-.23,2.88s.16.26.41.63h0s23.13,32.59,64.12,44a1.27,1.27,0,0,0,.39.06,1.4,1.4,0,0,0,.41-.06c39.43-11.66,60.43-33.18,65.5-47.07A1.76,1.76,0,0,0,287.24,337.23Z" />
  <path class="BUNTAI_DEER_JEWELRY_DEER_JEWELRY_9_cls-6" d="M152.26,182.48c-1.43,0-1.2-1.95-1.2-1.95h0a3.91,3.91,0,0,0,1.77.38,1.67,1.67,0,0,0,.78-.2C153.62,180.82,153.64,182.48,152.26,182.48Z" />
  <path class="BUNTAI_DEER_JEWELRY_DEER_JEWELRY_9_cls-6" d="M154.73,174.77c.52,1.75.41,5.09-1.12,5.93a1.67,1.67,0,0,1-.78.2,3.91,3.91,0,0,1-1.77-.38c-1.31-.63-2-2.12-1.88-4.38a7.38,7.38,0,0,1,.4-2.2,4.79,4.79,0,0,1,1.28-2,1.64,1.64,0,0,1,1.17-.49,2,2,0,0,1,1.43.85,2.68,2.68,0,0,1-.63.11h0a3.67,3.67,0,0,0-1.61,2.48c-.4,1.92.27,4.07,1.24,4.07s1.1-2.5,1-3.83h.08A4.69,4.69,0,0,0,154.73,174.77Z" />
  <path class="BUNTAI_DEER_JEWELRY_DEER_JEWELRY_9_cls-6" d="M150.46,165.42c.55-.22,2.88-.41,2.92-.14s-.77,1.38-.72,1.6a7.81,7.81,0,0,0-1.68,1,2.88,2.88,0,0,0-.75,3.4,1.88,1.88,0,0,0,.63.71,4.79,4.79,0,0,0-1.28,2A5.14,5.14,0,0,1,150.46,165.42Z" />
  <path class="BUNTAI_DEER_JEWELRY_DEER_JEWELRY_9_cls-6" d="M157,171.68a4.15,4.15,0,0,1-2.3,3.09,4.68,4.68,0,0,1-1.2.36l-.08,0a4.56,4.56,0,0,1-2.27-.24,3.67,3.67,0,0,1,1.61-2.48h0a2.71,2.71,0,0,0,.63-.13,1.86,1.86,0,0,0,1.33-1.15,1.64,1.64,0,0,0,.08-.5c0-2-.8-2.13-.8-2.13a2.34,2.34,0,0,1-.1-.28,2.62,2.62,0,0,1,2-1.71A7,7,0,0,1,157,171.68Z" />
  <path class="BUNTAI_DEER_JEWELRY_DEER_JEWELRY_9_cls-7" d="M149.58,173.94a5.14,5.14,0,0,1,.88-8.52c.52-.25,1.14-.56,3.57,0a3.09,3.09,0,0,0-1.53,1.66,2.66,2.66,0,0,0-1.52.76,2.88,2.88,0,0,0-.75,3.4,1.88,1.88,0,0,0,.63.71" />
  <path class="BUNTAI_DEER_JEWELRY_DEER_JEWELRY_9_cls-7" d="M151.18,174.91a4.56,4.56,0,0,0,2.27.24l.08,0a4.68,4.68,0,0,0,1.2-.36,4.15,4.15,0,0,0,2.3-3.09,7,7,0,0,0-1-5.15" />
  <path class="BUNTAI_DEER_JEWELRY_DEER_JEWELRY_9_cls-7" d="M154,168.24a2.34,2.34,0,0,0,.1.28s.77.09.8,2.13a1.64,1.64,0,0,1-.08.5,1.86,1.86,0,0,1-1.33,1.15,2.71,2.71,0,0,1-.63.13" />
  <path class="BUNTAI_DEER_JEWELRY_DEER_JEWELRY_9_cls-7" d="M154.73,174.77c.52,1.75.41,5.09-1.12,5.93a1.67,1.67,0,0,1-.78.2,3.91,3.91,0,0,1-1.77-.38c-1.31-.63-2-2.12-1.88-4.38a7.38,7.38,0,0,1,.4-2.2,4.79,4.79,0,0,1,1.28-2,1.64,1.64,0,0,1,1.17-.49,2,2,0,0,1,1.43.85" />
  <path class="BUNTAI_DEER_JEWELRY_DEER_JEWELRY_9_cls-7" d="M153.45,175.15c.07,1.33.05,3.83-1,3.83s-1.64-2.15-1.24-4.07a3.67,3.67,0,0,1,1.61-2.48h0" />
  <path class="BUNTAI_DEER_JEWELRY_DEER_JEWELRY_9_cls-7" d="M151.06,180.53s-.23,1.95,1.2,1.95,1.36-1.66,1.35-1.78h0" />
  <path class="BUNTAI_DEER_JEWELRY_DEER_JEWELRY_9_cls-7" d="M154.12,170.33a2.62,2.62,0,0,1-.3-1.22,2.53,2.53,0,0,1,.15-.87,2.62,2.62,0,0,1,2-1.71,2.12,2.12,0,0,1,.44,0,1.78,1.78,0,0,1,1.78,1.32" />
  <path class="BUNTAI_DEER_JEWELRY_DEER_JEWELRY_9_cls-6" d="M158.81,200a1.2,1.2,0,0,1,0,2.4h-6.54v-.37a1.19,1.19,0,0,0,1.2-1.2V200Z" />
  <polygon class="BUNTAI_DEER_JEWELRY_DEER_JEWELRY_9_cls-8" points="152.27 202.43 154.67 202.43 154.67 223.79 152.27 229.81 149.86 223.79 149.86 202.43 152.27 202.43" />
  <path class="BUNTAI_DEER_JEWELRY_DEER_JEWELRY_9_cls-9" d="M152.27,189.68a1.2,1.2,0,0,1,1.2,1.2v10a1.2,1.2,0,1,1-2.4,0v-10A1.2,1.2,0,0,1,152.27,189.68Z" />
  <path class="BUNTAI_DEER_JEWELRY_DEER_JEWELRY_9_cls-6" d="M152.27,202.06v.37h-6.54a1.2,1.2,0,1,1,0-2.4h5.34v.83A1.2,1.2,0,0,0,152.27,202.06Z" />
  <line class="BUNTAI_DEER_JEWELRY_DEER_JEWELRY_9_cls-10" x1="152.27" y1="189.68" x2="152.27" y2="182.48" />
  <path class="BUNTAI_DEER_JEWELRY_DEER_JEWELRY_9_cls-11" d="M152.27,202.06a1.2,1.2,0,0,1-1.2-1.2v-10a1.2,1.2,0,1,1,2.4,0v10A1.19,1.19,0,0,1,152.27,202.06Z" />
  <polyline class="BUNTAI_DEER_JEWELRY_DEER_JEWELRY_9_cls-11" points="154.67 202.43 154.67 223.79 152.27 229.81 149.86 223.79 149.86 202.43" />
  <path class="BUNTAI_DEER_JEWELRY_DEER_JEWELRY_9_cls-11" d="M151.07,200h-5.34a1.2,1.2,0,1,0,0,2.4h13.08a1.2,1.2,0,0,0,0-2.4h-5.34" />
  <polyline class="BUNTAI_DEER_JEWELRY_DEER_JEWELRY_9_cls-11" points="152.27 202.06 152.27 202.43 152.27 223.31" />
</svg>