<svg id="jewelry" xmlns="http://www.w3.org/2000/svg" viewBox="0 0 432 432">
  <defs>
    <style>.BUNTAI_DEER_JEWELRY_DEER_JEWELRY_18_cls-1{fill:#c7a858;}.BUNTAI_DEER_JEWELRY_DEER_JEWELRY_18_cls-2{fill:#fff;}.BUNTAI_DEER_JEWELRY_DEER_JEWELRY_18_cls-3,.BUNTAI_DEER_JEWELRY_DEER_JEWELRY_18_cls-6{fill:none;stroke-linecap:round;stroke-linejoin:round;}.BUNTAI_DEER_JEWELRY_DEER_JEWELRY_18_cls-3,.BUNTAI_DEER_JEWELRY_DEER_JEWELRY_18_cls-4,.BUNTAI_DEER_JEWELRY_DEER_JEWELRY_18_cls-6{stroke:#000;}.BUNTAI_DEER_JEWELRY_DEER_JEWELRY_18_cls-3{stroke-width:0.7px;}.BUNTAI_DEER_JEWELRY_DEER_JEWELRY_18_cls-4{fill:#754c24;stroke-miterlimit:10;stroke-width:0.97px;}.BUNTAI_DEER_JEWELRY_DEER_JEWELRY_18_cls-5{fill:#333;}.BUNTAI_DEER_JEWELRY_DEER_JEWELRY_18_cls-6{stroke-width:0.63px;}</style>
  </defs>
  <path class="BUNTAI_DEER_JEWELRY_DEER_JEWELRY_18_cls-1" d="M233.32,392.26a12,12,0,0,0-7.52-11.12,12,12,0,0,0-16.47,11.12,12,12,0,1,0,24,0Zm-12-13.4a13.41,13.41,0,1,1-13.4,13.4A13.4,13.4,0,0,1,221.32,378.86Z" />
  <path class="BUNTAI_DEER_JEWELRY_DEER_JEWELRY_18_cls-2" d="M225.8,381.14a12,12,0,0,1-8.05,22.58c-4.31-6.15,2.47-9.72,7.2-12.87S225.8,381.14,225.8,381.14Zm-2.33,18.2a2.15,2.15,0,1,0-2.15,2.15A2.15,2.15,0,0,0,223.47,399.34Z" />
  <path d="M225.8,381.14s3.89,6.55-.85,9.71-11.51,6.72-7.2,12.87a12,12,0,0,1,3.57-23.45A11.88,11.88,0,0,1,225.8,381.14Zm-2.33,5.57a2.15,2.15,0,1,0-2.15,2.16A2.15,2.15,0,0,0,223.47,386.71Z" />
  <path class="BUNTAI_DEER_JEWELRY_DEER_JEWELRY_18_cls-2" d="M223.47,386.71a2.15,2.15,0,1,1-2.15-2.15A2.16,2.16,0,0,1,223.47,386.71Z" />
  <path class="BUNTAI_DEER_JEWELRY_DEER_JEWELRY_18_cls-3" d="M225.8,381.14a12,12,0,1,1-4.48-.87A11.88,11.88,0,0,1,225.8,381.14Z" />
  <path class="BUNTAI_DEER_JEWELRY_DEER_JEWELRY_18_cls-3" d="M223.47,386.71a2.15,2.15,0,1,1-2.15-2.15A2.16,2.16,0,0,1,223.47,386.71Z" />
  <path class="BUNTAI_DEER_JEWELRY_DEER_JEWELRY_18_cls-3" d="M223.47,399.34a2.15,2.15,0,1,1-2.15-2.15A2.15,2.15,0,0,1,223.47,399.34Z" />
  <path class="BUNTAI_DEER_JEWELRY_DEER_JEWELRY_18_cls-3" d="M234.72,392.26a13.4,13.4,0,1,1-13.4-13.4A13.4,13.4,0,0,1,234.72,392.26Z" />
  <path class="BUNTAI_DEER_JEWELRY_DEER_JEWELRY_18_cls-3" d="M225.8,381.14s3.89,6.55-.85,9.71-11.51,6.72-7.2,12.87" />
  <path d="M223.47,399.34a2.15,2.15,0,1,1-2.15-2.15A2.15,2.15,0,0,1,223.47,399.34Z" />
  <path class="BUNTAI_DEER_JEWELRY_DEER_JEWELRY_18_cls-4" d="M284.38,334.41a2.68,2.68,0,0,0-3.82.64l1.42,1.09c-5.33,13-24.12,29.66-61.14,40.7-39.14-11-59-38.37-62.06-43l1.52-1.27s-1.08-1.95-3.92-.24c-.78.71-.49,2.36-.08,3.05,0,0,.16.25.41.62h0s23,32.41,63.76,43.74a1.58,1.58,0,0,0,.38.05,1.4,1.4,0,0,0,.41-.06C260.47,368.14,280,350,285.07,336.19A1.75,1.75,0,0,0,284.38,334.41Z" />
  <path class="BUNTAI_DEER_JEWELRY_DEER_JEWELRY_18_cls-5" d="M218.61,376.22l1.78.48s1.84-1,2.6.41.4,2.48-.58,2.93-2.44.06-2.72-.73a3.84,3.84,0,0,0-1.71-.38s.72,2.71,3.08,2.94a3.45,3.45,0,0,0,4.05-3.14,3.32,3.32,0,0,0-1.9-3.49A3.64,3.64,0,0,0,218.61,376.22Z" />
  <path class="BUNTAI_DEER_JEWELRY_DEER_JEWELRY_18_cls-6" d="M217.89,378.83a3.59,3.59,0,0,0,3.23,3.13l.36,0a3.62,3.62,0,0,0,2.42-.91,3.55,3.55,0,0,0,1.2-2.48,1.34,1.34,0,0,0,0-.2,3.56,3.56,0,0,0-.82-2.27,3.64,3.64,0,0,0-2.81-1.31,3.6,3.6,0,0,0-2.94,1.51l1.79.48a2,2,0,0,1,1.15-.37,1.94,1.94,0,0,1,1.77,2.84,2,2,0,0,1-3.51.05h0Z" />
</svg>