<svg id="jewelry" xmlns="http://www.w3.org/2000/svg" viewBox="0 0 432 432">
  <defs>
    <style>.BUNTAI_DEER_JEWELRY_DEER_JEWELRY_24_cls-1{fill:#fff;}.BUNTAI_DEER_JEWELRY_DEER_JEWELRY_24_cls-2{fill:#666;}.BUNTAI_DEER_JEWELRY_DEER_JEWELRY_24_cls-3{fill:#c7a858;}.BUNTAI_DEER_JEWELRY_DEER_JEWELRY_24_cls-11,.BUNTAI_DEER_JEWELRY_DEER_JEWELRY_24_cls-12,.BUNTAI_DEER_JEWELRY_DEER_JEWELRY_24_cls-4,.BUNTAI_DEER_JEWELRY_DEER_JEWELRY_24_cls-5{fill:none;}.BUNTAI_DEER_JEWELRY_DEER_JEWELRY_24_cls-11,.BUNTAI_DEER_JEWELRY_DEER_JEWELRY_24_cls-12,.BUNTAI_DEER_JEWELRY_DEER_JEWELRY_24_cls-4,.BUNTAI_DEER_JEWELRY_DEER_JEWELRY_24_cls-5,.BUNTAI_DEER_JEWELRY_DEER_JEWELRY_24_cls-6{stroke:#000;}.BUNTAI_DEER_JEWELRY_DEER_JEWELRY_24_cls-11,.BUNTAI_DEER_JEWELRY_DEER_JEWELRY_24_cls-4,.BUNTAI_DEER_JEWELRY_DEER_JEWELRY_24_cls-5{stroke-linecap:round;stroke-linejoin:round;}.BUNTAI_DEER_JEWELRY_DEER_JEWELRY_24_cls-4{stroke-width:0.99px;}.BUNTAI_DEER_JEWELRY_DEER_JEWELRY_24_cls-5{stroke-width:0.87px;}.BUNTAI_DEER_JEWELRY_DEER_JEWELRY_24_cls-6{fill:#754c24;stroke-width:1.02px;}.BUNTAI_DEER_JEWELRY_DEER_JEWELRY_24_cls-12,.BUNTAI_DEER_JEWELRY_DEER_JEWELRY_24_cls-6{stroke-miterlimit:10;}.BUNTAI_DEER_JEWELRY_DEER_JEWELRY_24_cls-7{fill:#4d4d4d;}.BUNTAI_DEER_JEWELRY_DEER_JEWELRY_24_cls-8{fill:#333;}.BUNTAI_DEER_JEWELRY_DEER_JEWELRY_24_cls-9{fill:#8c6239;}.BUNTAI_DEER_JEWELRY_DEER_JEWELRY_24_cls-10{fill:#006837;}.BUNTAI_DEER_JEWELRY_DEER_JEWELRY_24_cls-11,.BUNTAI_DEER_JEWELRY_DEER_JEWELRY_24_cls-12{stroke-width:0.54px;}</style>
  </defs>
  <path class="BUNTAI_DEER_JEWELRY_DEER_JEWELRY_24_cls-1" d="M288.23,231.18a14.39,14.39,0,0,0,12.71-4,7,7,0,0,1-4.77-3.86A25.77,25.77,0,0,1,288.23,231.18Z" />
  <path class="BUNTAI_DEER_JEWELRY_DEER_JEWELRY_24_cls-1" d="M288.05,231.3c2.41,1,11.46,3.84,19.76-6.18a7,7,0,0,1-2.77-.4,34,34,0,0,0,3.32-1.4,36.84,36.84,0,0,0,.4-12.64l-2.34-1.45.39,2.11-1.62-1.29c.58,4.91.38,10.43-2.17,14.47a15.75,15.75,0,0,1-2.08,2.66,14.39,14.39,0,0,1-12.71,4A.94.94,0,0,0,288.05,231.3Z" />
  <path class="BUNTAI_DEER_JEWELRY_DEER_JEWELRY_24_cls-2" d="M303.32,204.29a22.34,22.34,0,0,1-3.94,1l2.64,1.2-1.82.65,2,.65s-2.27,3-3.82,3.47c3.5-.1,4.92-.95,4.92-.95l1,2.35,1-2.58a53.57,53.57,0,0,0-1-5.76Z" />
  <path class="BUNTAI_DEER_JEWELRY_DEER_JEWELRY_24_cls-1" d="M304.22,212.63l-1-2.35,0,1.7s-1.65,5.34-4.15,6.69c1.75,4.1,1.75,5,1.75,5l-3.25-3.6a10.24,10.24,0,0,1-1.4,3.3,7,7,0,0,0,4.77,3.86,15.75,15.75,0,0,0,2.08-2.66c2.55-4,2.75-9.56,2.17-14.47Z" />
  <path class="BUNTAI_DEER_JEWELRY_DEER_JEWELRY_24_cls-2" d="M304.16,204.29a53.57,53.57,0,0,1,1,5.76l1.62,1.29-.39-2.11,2.34,1.45A5.91,5.91,0,0,0,311,212a11.5,11.5,0,0,1-2.05-3.69l1.15-.5-1.55-1.25,1.4-1.7s-2.64-.05-2.95-.1-2-.45-2-.45Z" />
  <path class="BUNTAI_DEER_JEWELRY_DEER_JEWELRY_24_cls-3" d="M302.23,194.4a2.63,2.63,0,0,0,.18,5.26,2.12,2.12,0,0,0,.44,0,2.63,2.63,0,0,0-.44-5.23Z" />
  <path class="BUNTAI_DEER_JEWELRY_DEER_JEWELRY_24_cls-4" d="M302.23,194.4a2.63,2.63,0,0,0,.18,5.26,2.12,2.12,0,0,0,.44,0,2.63,2.63,0,0,0-.44-5.23Z" />
  <path class="BUNTAI_DEER_JEWELRY_DEER_JEWELRY_24_cls-4" d="M304.16,204.29H305s1.68.4,2,.45,2.95.1,2.95.1l-1.4,1.7,1.55,1.25-1.15.5A11.5,11.5,0,0,0,311,212a5.91,5.91,0,0,1-2.25-1.3,36.84,36.84,0,0,1-.4,12.64,34,34,0,0,1-3.32,1.4,7,7,0,0,0,2.77.4c-8.3,10-17.35,7.19-19.76,6.18a.94.94,0,0,1,.18-.12,25.77,25.77,0,0,0,7.94-7.86,10.24,10.24,0,0,0,1.4-3.3l3.25,3.6s0-.85-1.75-5c2.5-1.35,4.15-6.69,4.15-6.69l0-1.7s-1.42.85-4.92.95c1.55-.45,3.82-3.47,3.82-3.47l-2-.65,1.82-.65-2.64-1.2a22.34,22.34,0,0,0,3.94-1h.84" />
  <path class="BUNTAI_DEER_JEWELRY_DEER_JEWELRY_24_cls-4" d="M302.85,199.62c.34,1,.84,2.66,1.31,4.67a53.57,53.57,0,0,1,1,5.76c.58,4.91.38,10.43-2.17,14.47a15.75,15.75,0,0,1-2.08,2.66,14.39,14.39,0,0,1-12.71,4" />
  <path class="BUNTAI_DEER_JEWELRY_DEER_JEWELRY_24_cls-4" d="M300.94,227.18a7,7,0,0,1-4.77-3.86" />
  <polyline class="BUNTAI_DEER_JEWELRY_DEER_JEWELRY_24_cls-4" points="303.27 210.28 304.22 212.63 305.19 210.05 306.81 211.34 306.42 209.24 308.76 210.68" />
  <line class="BUNTAI_DEER_JEWELRY_DEER_JEWELRY_24_cls-4" x1="302.23" y1="194.4" x2="302.23" y2="185.56" />
  <path class="BUNTAI_DEER_JEWELRY_DEER_JEWELRY_24_cls-3" d="M302.23,185.38c1.67,0,1.4-2.28,1.4-2.28h0a4.57,4.57,0,0,1-2.06.44,2,2,0,0,1-.92-.23C300.65,183.43,300.62,185.38,302.23,185.38Z" />
  <path class="BUNTAI_DEER_JEWELRY_DEER_JEWELRY_24_cls-3" d="M299.35,176.38c-.61,2-.48,5.94,1.3,6.92a2,2,0,0,0,.92.23,4.57,4.57,0,0,0,2.06-.44c1.53-.74,2.31-2.47,2.2-5.11a8.35,8.35,0,0,0-.47-2.57,5.39,5.39,0,0,0-1.5-2.32,1.88,1.88,0,0,0-1.36-.57,2.34,2.34,0,0,0-1.67,1,3.72,3.72,0,0,0,.74.14h0a4.23,4.23,0,0,1,1.88,2.89c.47,2.24-.32,4.75-1.45,4.75s-1.27-2.92-1.2-4.47l-.09,0A5.33,5.33,0,0,1,299.35,176.38Z" />
  <path class="BUNTAI_DEER_JEWELRY_DEER_JEWELRY_24_cls-3" d="M304.33,165.47c-.64-.26-3.35-.48-3.4-.16s.9,1.61.83,1.86a9.35,9.35,0,0,1,2,1.12s2,1.78.87,4a2.28,2.28,0,0,1-.74.83,5.39,5.39,0,0,1,1.5,2.32A6,6,0,0,0,304.33,165.47Z" />
  <path class="BUNTAI_DEER_JEWELRY_DEER_JEWELRY_24_cls-3" d="M296.67,172.77a4.85,4.85,0,0,0,2.68,3.61,5.33,5.33,0,0,0,1.4.42l.1,0a5.23,5.23,0,0,0,2.64-.28,4.27,4.27,0,0,0-1.87-2.89h-.05a3.72,3.72,0,0,1-.74-.14,2.17,2.17,0,0,1-1.55-1.35,1.81,1.81,0,0,1-.09-.58c0-2.38.93-2.49.93-2.49a2.76,2.76,0,0,0,.12-.33,3.09,3.09,0,0,0-2.38-2A8.1,8.1,0,0,0,296.67,172.77Z" />
  <path class="BUNTAI_DEER_JEWELRY_DEER_JEWELRY_24_cls-5" d="M305.36,175.41a6,6,0,0,0-1-9.94c-.6-.29-1.33-.66-4.16,0A3.62,3.62,0,0,1,302,167.4a3.18,3.18,0,0,1,1.77.89s2,1.78.87,4a2.28,2.28,0,0,1-.74.83" />
  <path class="BUNTAI_DEER_JEWELRY_DEER_JEWELRY_24_cls-5" d="M303.49,176.54a5.23,5.23,0,0,1-2.64.28l-.1,0a5.33,5.33,0,0,1-1.4-.42,4.85,4.85,0,0,1-2.68-3.61,8.1,8.1,0,0,1,1.19-6" />
  <path class="BUNTAI_DEER_JEWELRY_DEER_JEWELRY_24_cls-5" d="M300.24,168.75a2.76,2.76,0,0,1-.12.33s-.9.11-.93,2.49a1.81,1.81,0,0,0,.09.58,2.17,2.17,0,0,0,1.55,1.35,3.72,3.72,0,0,0,.74.14" />
  <path class="BUNTAI_DEER_JEWELRY_DEER_JEWELRY_24_cls-5" d="M299.35,176.38c-.61,2-.48,5.94,1.3,6.92a2,2,0,0,0,.92.23,4.57,4.57,0,0,0,2.06-.44c1.53-.74,2.31-2.47,2.2-5.11a8.35,8.35,0,0,0-.47-2.57,5.39,5.39,0,0,0-1.5-2.32,1.88,1.88,0,0,0-1.36-.57,2.34,2.34,0,0,0-1.67,1" />
  <path class="BUNTAI_DEER_JEWELRY_DEER_JEWELRY_24_cls-5" d="M300.84,176.82c-.07,1.55-.06,4.47,1.2,4.47s1.92-2.51,1.45-4.75a4.23,4.23,0,0,0-1.88-2.89h0" />
  <path class="BUNTAI_DEER_JEWELRY_DEER_JEWELRY_24_cls-5" d="M303.63,183.1s.27,2.28-1.4,2.28-1.58-1.95-1.58-2.08h0" />
  <path class="BUNTAI_DEER_JEWELRY_DEER_JEWELRY_24_cls-5" d="M300.06,171.2a3.12,3.12,0,0,0,.35-1.43,3.16,3.16,0,0,0-.17-1,3.09,3.09,0,0,0-2.38-2,3,3,0,0,0-.52,0,2.09,2.09,0,0,0-2.08,1.54" />
  <path class="BUNTAI_DEER_JEWELRY_DEER_JEWELRY_24_cls-6" d="M286.85,341.75a2.81,2.81,0,0,0-4,.67l1.49,1.14c-5.61,13.7-25.4,31.22-64.36,42.84-41.2-11.61-61.72-39.43-65-44.3l2.19-1.22a3.26,3.26,0,0,0-4.67-1,2.48,2.48,0,0,0-.45,2.87l.42.65h0s24.21,34.11,67.11,46a1.83,1.83,0,0,0,.4.05,1.61,1.61,0,0,0,.44-.06c41.27-12.21,61.86-31.29,67.16-45.83A1.83,1.83,0,0,0,286.85,341.75Z" />
  <path class="BUNTAI_DEER_JEWELRY_DEER_JEWELRY_24_cls-7" d="M225.81,406.72c1.49,1.35,2.62,8-3.23,8.8s-8.89-5.54-5.46-11c3.32-5.25,9.75-2.88,10.15-2.72a7.79,7.79,0,0,0-9.14,3.5c-3.84,5.92,3.57,9.85,5.67,6.82s-.51-6.15-3.91-6.56C221.61,404.51,224.31,405.37,225.81,406.72Z" />
  <path class="BUNTAI_DEER_JEWELRY_DEER_JEWELRY_24_cls-8" d="M232.47,408.75c-.41-4.61-7-9.37-12.58-3.15,1.72-1.09,4.42-.23,5.92,1.12s2.62,8-3.23,8.8-8.89-5.54-5.46-11c3.32-5.25,9.75-2.88,10.15-2.72h0A10.11,10.11,0,0,1,230,403s-.66-5.49-8.78-6.06c-.44,0-.91,0-1.4,0h-.49c-9.08.36-12.52,10.6-9.91,17s10.22,8.92,15.71,7.12S232.88,413.36,232.47,408.75Z" />
  <path class="BUNTAI_DEER_JEWELRY_DEER_JEWELRY_24_cls-9" d="M221.22,391.42V397c-.44,0-.91,0-1.4,0h-.49v-5.49a1.09,1.09,0,0,1,0-.18,2.65,2.65,0,0,0,.93.18,2.9,2.9,0,0,0,.94-.17A.91.91,0,0,1,221.22,391.42Z" />
  <path class="BUNTAI_DEER_JEWELRY_DEER_JEWELRY_24_cls-10" d="M220.27,386a2.71,2.71,0,0,1,2.69,2.73,2.74,2.74,0,0,1-1.75,2.56,2.9,2.9,0,0,1-.94.17,2.65,2.65,0,0,1-.93-.18,2.73,2.73,0,0,1,.93-5.28Z" />
  <path class="BUNTAI_DEER_JEWELRY_DEER_JEWELRY_24_cls-11" d="M227.29,401.84A10.11,10.11,0,0,1,230,403s-.66-5.49-8.78-6.06c-.44,0-.91,0-1.4,0h-.49c-9.08.36-12.52,10.6-9.91,17s10.22,8.92,15.71,7.12,7.75-7.71,7.34-12.32-7-9.37-12.58-3.15c3.4.41,6,3.52,3.91,6.56s-9.51-.9-5.67-6.82a7.79,7.79,0,0,1,9.14-3.5" />
  <path class="BUNTAI_DEER_JEWELRY_DEER_JEWELRY_24_cls-11" d="M228.21,401.05h0" />
  <path class="BUNTAI_DEER_JEWELRY_DEER_JEWELRY_24_cls-11" d="M222.58,398a7.6,7.6,0,0,1,.11,2.37,17.41,17.41,0,0,1,5.52.65A8,8,0,0,0,222.58,398Z" />
  <path class="BUNTAI_DEER_JEWELRY_DEER_JEWELRY_24_cls-11" d="M218.07,398.33s-4.08,1.89-5.07,4.24a12,12,0,0,1,3.15,1.76l1.55-2a16.84,16.84,0,0,0-2.17-1.52l-.78,1a5.63,5.63,0,0,1,1.46.84" />
  <path class="BUNTAI_DEER_JEWELRY_DEER_JEWELRY_24_cls-11" d="M212.33,408.12l1.22.15v2.78h-2.41a25.11,25.11,0,0,1,.42-4.58,21.28,21.28,0,0,1,3.24.46,40.42,40.42,0,0,0,0,5.77c-3.32,1.11-4.51.38-4.51.38s-1-5.4,1-8.75a13.81,13.81,0,0,1,4.31,1.52" />
  <path class="BUNTAI_DEER_JEWELRY_DEER_JEWELRY_24_cls-11" d="M227.29,401.84h0c-.4-.16-6.83-2.53-10.15,2.72-3.43,5.42-.39,11.8,5.46,11s4.72-7.45,3.23-8.8-4.2-2.21-5.92-1.12" />
  <path class="BUNTAI_DEER_JEWELRY_DEER_JEWELRY_24_cls-11" d="M215.16,413.31a9.78,9.78,0,0,1-3.79,1.79c4.34,4.16,8,4.75,8,4.75l1.52-2.92s-3.62-1.24-4.76-2.59c-1.38.93-1.58,1.32-1.58,1.32a19.52,19.52,0,0,0,3.33,2.3c.69-.75.69-.95.69-.95" />
  <path class="BUNTAI_DEER_JEWELRY_DEER_JEWELRY_24_cls-11" d="M221.91,416.58s-.31,2.7-.53,3.39a6.85,6.85,0,0,0,5.12-1.69,9,9,0,0,0-.89-2.09A35.42,35.42,0,0,1,221.91,416.58Z" />
  <path class="BUNTAI_DEER_JEWELRY_DEER_JEWELRY_24_cls-11" d="M227.84,407.36a7.23,7.23,0,0,0-3.81-2.53,5.85,5.85,0,0,1,4.92.34A10.68,10.68,0,0,0,227.84,407.36Z" />
  <path class="BUNTAI_DEER_JEWELRY_DEER_JEWELRY_24_cls-11" d="M230.31,406.47a7.45,7.45,0,0,0-2.43,2.91,10.29,10.29,0,0,1-.6,4.17,6.31,6.31,0,0,1-.79,1.29,11.24,11.24,0,0,1,1.91,2.45s3.71-2.68,2.63-8.6a3.82,3.82,0,0,0-2.17.69s-.19,3.34-.78,4.36l-.06.09a7.28,7.28,0,0,0,1.16.76" />
  <path class="BUNTAI_DEER_JEWELRY_DEER_JEWELRY_24_cls-11" d="M219.34,391.24a2.67,2.67,0,1,1,1.87,0,2.9,2.9,0,0,1-.94.17A2.65,2.65,0,0,1,219.34,391.24Z" />
  <path class="BUNTAI_DEER_JEWELRY_DEER_JEWELRY_24_cls-12" d="M219.33,396.92h0v-5.49a1.09,1.09,0,0,1,0-.18" />
  <path class="BUNTAI_DEER_JEWELRY_DEER_JEWELRY_24_cls-12" d="M221.21,391.25a.91.91,0,0,1,0,.17V397" />
</svg>