<svg xmlns="http://www.w3.org/2000/svg" viewBox="0 0 432 432">
  <defs>
    <style>.BUNTAI_DEER_JEWELRY_DEER_JEWELRY_25_cls-1{isolation:isolate;}.BUNTAI_DEER_JEWELRY_DEER_JEWELRY_25_cls-2{fill:#c7a858;}.BUNTAI_DEER_JEWELRY_DEER_JEWELRY_25_cls-12,.BUNTAI_DEER_JEWELRY_DEER_JEWELRY_25_cls-14,.BUNTAI_DEER_JEWELRY_DEER_JEWELRY_25_cls-16,.BUNTAI_DEER_JEWELRY_DEER_JEWELRY_25_cls-19,.BUNTAI_DEER_JEWELRY_DEER_JEWELRY_25_cls-3{fill:none;stroke-linecap:round;stroke-linejoin:round;}.BUNTAI_DEER_JEWELRY_DEER_JEWELRY_25_cls-12,.BUNTAI_DEER_JEWELRY_DEER_JEWELRY_25_cls-14,.BUNTAI_DEER_JEWELRY_DEER_JEWELRY_25_cls-16,.BUNTAI_DEER_JEWELRY_DEER_JEWELRY_25_cls-17,.BUNTAI_DEER_JEWELRY_DEER_JEWELRY_25_cls-19,.BUNTAI_DEER_JEWELRY_DEER_JEWELRY_25_cls-3{stroke:#000;}.BUNTAI_DEER_JEWELRY_DEER_JEWELRY_25_cls-3{stroke-width:0.86px;}.BUNTAI_DEER_JEWELRY_DEER_JEWELRY_25_cls-4{fill:#87e04a;}.BUNTAI_DEER_JEWELRY_DEER_JEWELRY_25_cls-5{fill:#f4f4f2;}.BUNTAI_DEER_JEWELRY_DEER_JEWELRY_25_cls-6{fill:#184098;}.BUNTAI_DEER_JEWELRY_DEER_JEWELRY_25_cls-7{fill:#2dbcd5;}.BUNTAI_DEER_JEWELRY_DEER_JEWELRY_25_cls-8{fill:#e1a04c;}.BUNTAI_DEER_JEWELRY_DEER_JEWELRY_25_cls-9{fill:#a64e42;}.BUNTAI_DEER_JEWELRY_DEER_JEWELRY_25_cls-10{fill:#ccc;}.BUNTAI_DEER_JEWELRY_DEER_JEWELRY_25_cls-11{fill:#e7ff87;}.BUNTAI_DEER_JEWELRY_DEER_JEWELRY_25_cls-12{stroke-width:0.9px;}.BUNTAI_DEER_JEWELRY_DEER_JEWELRY_25_cls-13{opacity:0.43;mix-blend-mode:multiply;}.BUNTAI_DEER_JEWELRY_DEER_JEWELRY_25_cls-14{stroke-width:0.8px;}.BUNTAI_DEER_JEWELRY_DEER_JEWELRY_25_cls-15{fill:#666;}.BUNTAI_DEER_JEWELRY_DEER_JEWELRY_25_cls-16{stroke-width:0.68px;}.BUNTAI_DEER_JEWELRY_DEER_JEWELRY_25_cls-17{fill:#754c24;stroke-miterlimit:10;stroke-width:1.03px;}.BUNTAI_DEER_JEWELRY_DEER_JEWELRY_25_cls-18{fill:#333;}.BUNTAI_DEER_JEWELRY_DEER_JEWELRY_25_cls-19{stroke-width:0.66px;}</style>
  </defs>
  <g class="BUNTAI_DEER_JEWELRY_DEER_JEWELRY_25_cls-1">
    <g id="jewelry">
      <path class="BUNTAI_DEER_JEWELRY_DEER_JEWELRY_25_cls-2" d="M152.67,184.65c-1.67,0-1.39-2.26-1.39-2.26h0a4.45,4.45,0,0,0,2,.43,1.94,1.94,0,0,0,.91-.22C154.24,182.72,154.27,184.65,152.67,184.65Z" />
      <path class="BUNTAI_DEER_JEWELRY_DEER_JEWELRY_25_cls-2" d="M155.52,175.71c.62,2,.49,5.9-1.29,6.88a1.94,1.94,0,0,1-.91.22,4.45,4.45,0,0,1-2-.43c-1.53-.74-2.3-2.46-2.2-5.08a8.58,8.58,0,0,1,.48-2.56,5.3,5.3,0,0,1,1.48-2.3,1.9,1.9,0,0,1,1.36-.57,2.33,2.33,0,0,1,1.65,1,4.29,4.29,0,0,1-.73.14h0a4.25,4.25,0,0,0-1.87,2.86c-.46,2.23.32,4.73,1.44,4.73s1.27-2.9,1.19-4.44l.09,0A5.53,5.53,0,0,0,155.52,175.71Z" />
      <path class="BUNTAI_DEER_JEWELRY_DEER_JEWELRY_25_cls-2" d="M150.58,164.86c.63-.25,3.33-.47,3.38-.16s-.9,1.6-.83,1.85a9.48,9.48,0,0,0-2,1.12s-2,1.76-.86,4a2.4,2.4,0,0,0,.73.82,5.3,5.3,0,0,0-1.48,2.3A6,6,0,0,1,150.58,164.86Z" />
      <path class="BUNTAI_DEER_JEWELRY_DEER_JEWELRY_25_cls-2" d="M158.19,172.12a4.78,4.78,0,0,1-2.67,3.59,5.18,5.18,0,0,1-1.38.42H154a5.12,5.12,0,0,1-2.62-.27,4.15,4.15,0,0,1,1.85-2.87h0a3.49,3.49,0,0,0,.73-.14,2.17,2.17,0,0,0,1.55-1.35,1.75,1.75,0,0,0,.09-.57c0-2.37-.93-2.48-.93-2.48s0-.13-.11-.32a3,3,0,0,1,2.36-2A8.05,8.05,0,0,1,158.19,172.12Z" />
      <path class="BUNTAI_DEER_JEWELRY_DEER_JEWELRY_25_cls-3" d="M149.56,174.74a6,6,0,0,1,1-9.88c.59-.29,1.32-.65,4.13,0a3.58,3.58,0,0,0-1.77,1.93,3.12,3.12,0,0,0-1.77.88s-2,1.76-.86,4a2.4,2.4,0,0,0,.73.82" />
      <path class="BUNTAI_DEER_JEWELRY_DEER_JEWELRY_25_cls-3" d="M151.42,175.87a5.12,5.12,0,0,0,2.62.27h.1a5.18,5.18,0,0,0,1.38-.42,4.78,4.78,0,0,0,2.67-3.59,8.05,8.05,0,0,0-1.18-6" />
      <path class="BUNTAI_DEER_JEWELRY_DEER_JEWELRY_25_cls-3" d="M154.65,168.13c.06.19.11.32.11.32s.9.11.93,2.48a1.75,1.75,0,0,1-.09.57,2.17,2.17,0,0,1-1.55,1.35,3.49,3.49,0,0,1-.73.14" />
      <path class="BUNTAI_DEER_JEWELRY_DEER_JEWELRY_25_cls-3" d="M155.52,175.71c.62,2,.49,5.9-1.29,6.88a1.94,1.94,0,0,1-.91.22,4.45,4.45,0,0,1-2-.43c-1.53-.74-2.3-2.46-2.2-5.08a8.58,8.58,0,0,1,.48-2.56,5.3,5.3,0,0,1,1.48-2.3,1.9,1.9,0,0,1,1.36-.57,2.33,2.33,0,0,1,1.65,1" />
      <path class="BUNTAI_DEER_JEWELRY_DEER_JEWELRY_25_cls-3" d="M154,176.15c.08,1.54.06,4.44-1.19,4.44s-1.9-2.5-1.44-4.73a4.25,4.25,0,0,1,1.87-2.86h0" />
      <path class="BUNTAI_DEER_JEWELRY_DEER_JEWELRY_25_cls-3" d="M151.28,182.39s-.28,2.26,1.39,2.26,1.57-1.93,1.56-2.06h0" />
      <path class="BUNTAI_DEER_JEWELRY_DEER_JEWELRY_25_cls-3" d="M154.82,170.56a3.08,3.08,0,0,1-.35-1.42,2.83,2.83,0,0,1,.18-1,3,3,0,0,1,2.36-2,2.89,2.89,0,0,1,.52,0,2.08,2.08,0,0,1,2.06,1.53" />
      <path class="BUNTAI_DEER_JEWELRY_DEER_JEWELRY_25_cls-4" d="M156.62,239.2c1.92.86,3.42,4.25,3.42,4.25s-3.52,1.12-5.44.26c-1.51-.68-2.36-2.75-2.66-3.59v0l-.06-.36C152.25,239.57,154.86,238.41,156.62,239.2Z" />
      <path class="BUNTAI_DEER_JEWELRY_DEER_JEWELRY_25_cls-5" d="M151.54,234.72s-.7,3.14-2.57,4.09-5.45,0-5.45,0,1.34-3.46,3.2-4.41S151.54,234.72,151.54,234.72Z" />
      <path class="BUNTAI_DEER_JEWELRY_DEER_JEWELRY_25_cls-6" d="M161.72,227.17c1.87,1.35,2.74,5.31,2.74,5.31s-4,.44-5.9-.91-2.11-4.86-2.11-4.86S159.86,225.83,161.72,227.17Z" />
      <path class="BUNTAI_DEER_JEWELRY_DEER_JEWELRY_25_cls-7" d="M157.47,218.45s0,.05,0,.07h0c-.21.79-1,3.37-2.76,4.25-2.06,1-6,0-6,0s1.46-3.79,3.51-4.83,5,.24,5.28.34h0Z" />
      <path class="BUNTAI_DEER_JEWELRY_DEER_JEWELRY_25_cls-8" d="M164.78,206.7c2.66,1,5,5.35,5,5.35s-4.61,1.87-7.27.92a6.88,6.88,0,0,1-3.22-3.17,0,0,0,0,0,0,0,6.36,6.36,0,0,0-.5-1.22l-.34-.65C158.88,207.67,162.3,205.81,164.78,206.7Z" />
      <path class="BUNTAI_DEER_JEWELRY_DEER_JEWELRY_25_cls-9" d="M153.14,199.73s0,0,0,0c.18.63.39,1.3.61,2a0,0,0,0,1,0,0,6.79,6.79,0,0,1-.19,4.38c-1.26,2.52-5.9,4.34-5.9,4.34s-1.32-4.8-.05-7.32,5.48-3.5,5.48-3.5a.12.12,0,0,1,0,.05Z" />
      <path class="BUNTAI_DEER_JEWELRY_DEER_JEWELRY_25_cls-10" d="M159.3,209.8c1.78,5.8-2.32,16.57-6.23,23.54a9.77,9.77,0,0,0-1.19,6.4l0,0,.11.34v0a15.19,15.19,0,0,0,6.5,9.33c-2.93-1.56-9.92-8.81-6.19-16.11a57,57,0,0,0,5.2-14.81h0a1.16,1.16,0,0,0,.06-.22h0c.67-3.88.61-7.4-.76-9.72a37.77,37.77,0,0,1-3-6.8,0,0,0,0,0,0,0,13.13,13.13,0,0,0-.61-2s0,0,0,0h0c-.5-1.67-.87-3.14-1.1-4.11a3.1,3.1,0,0,0,.92.14,3.07,3.07,0,0,0,1.7-.51c.4,2.21,1.63,8.32,3.79,12.67h0l0,0a12.77,12.77,0,0,0,.88,1.85A0,0,0,0,1,159.3,209.8Z" />
      <path class="BUNTAI_DEER_JEWELRY_DEER_JEWELRY_25_cls-11" d="M154.66,192.65a1.7,1.7,0,1,0-1.7,1.7A1.7,1.7,0,0,0,154.66,192.65Zm-1.7-3.09a3.1,3.1,0,1,1-3.09,3.09A3.09,3.09,0,0,1,153,189.56Z" />
      <path class="BUNTAI_DEER_JEWELRY_DEER_JEWELRY_25_cls-12" d="M153.77,201.75a13.13,13.13,0,0,0-.61-2" />
      <path class="BUNTAI_DEER_JEWELRY_DEER_JEWELRY_25_cls-12" d="M153.14,199.72a.12.12,0,0,0,0-.05s-4.21,1-5.48,3.5.05,7.32.05,7.32,4.64-1.82,5.9-4.34a6.79,6.79,0,0,0,.19-4.38" />
      <path class="BUNTAI_DEER_JEWELRY_DEER_JEWELRY_25_cls-12" d="M157.5,218.29c-.25-.1-3.31-1.34-5.28-.34s-3.51,4.83-3.51,4.83,3.92,1,6,0c1.73-.88,2.55-3.46,2.76-4.25" />
      <path class="BUNTAI_DEER_JEWELRY_DEER_JEWELRY_25_cls-12" d="M157.45,218.52a1.16,1.16,0,0,0,.06-.22h0" />
      <path class="BUNTAI_DEER_JEWELRY_DEER_JEWELRY_25_cls-12" d="M151.54,234.72s-2.95-1.26-4.82-.32-3.2,4.41-3.2,4.41,3.58.94,5.45,0S151.54,234.72,151.54,234.72Z" />
      <path class="BUNTAI_DEER_JEWELRY_DEER_JEWELRY_25_cls-12" d="M151.94,240.12c.3.84,1.15,2.91,2.66,3.59,1.92.86,5.44-.26,5.44-.26s-1.5-3.39-3.42-4.25c-1.76-.79-4.37.37-4.74.54l0,0,.11.34" />
      <path class="BUNTAI_DEER_JEWELRY_DEER_JEWELRY_25_cls-12" d="M156.45,226.71s.24,3.52,2.11,4.86,5.9.91,5.9.91-.87-4-2.74-5.31S156.45,226.71,156.45,226.71Z" />
      <path class="BUNTAI_DEER_JEWELRY_DEER_JEWELRY_25_cls-12" d="M159.3,209.8a6.88,6.88,0,0,0,3.22,3.17c2.66.95,7.27-.92,7.27-.92s-2.35-4.38-5-5.35c-2.48-.89-5.9,1-6.33,1.22l0,0a12.77,12.77,0,0,0,.88,1.85" />
      <path class="BUNTAI_DEER_JEWELRY_DEER_JEWELRY_25_cls-12" d="M158.44,249.45c-2.93-1.56-9.92-8.81-6.19-16.11a57,57,0,0,0,5.2-14.81h0s0-.05,0-.07l0-.15h0c.67-3.88.61-7.4-.76-9.72a37.77,37.77,0,0,1-3-6.8,0,0,0,0,0,0,0c-.22-.69-.43-1.36-.61-2,0,0,0,0,0,0h0c-.5-1.67-.87-3.14-1.1-4.11h0" />
      <path class="BUNTAI_DEER_JEWELRY_DEER_JEWELRY_25_cls-12" d="M156.58,252.75c-2.51,1.46,2.33,2.63,1.93,0-2.32-5-7.95,3.62-1.37,4,3.91,0,4.28-5.87,1.51-7.17" />
      <path class="BUNTAI_DEER_JEWELRY_DEER_JEWELRY_25_cls-12" d="M158.65,249.56l-.21-.11a15.19,15.19,0,0,1-6.5-9.33v0l-.06-.36a9.77,9.77,0,0,1,1.19-6.4c3.91-7,8-17.74,6.23-23.54a0,0,0,0,0,0,0,6.36,6.36,0,0,0-.5-1.22l-.34-.65h0c-2.16-4.35-3.39-10.46-3.79-12.67" />
      <path class="BUNTAI_DEER_JEWELRY_DEER_JEWELRY_25_cls-12" d="M152,195.61a3.09,3.09,0,1,1,2.62-.37,3.07,3.07,0,0,1-1.7.51A3.1,3.1,0,0,1,152,195.61Z" />
      <path class="BUNTAI_DEER_JEWELRY_DEER_JEWELRY_25_cls-12" d="M154.66,192.65A1.7,1.7,0,1,1,153,191,1.7,1.7,0,0,1,154.66,192.65Z" />
      <g class="BUNTAI_DEER_JEWELRY_DEER_JEWELRY_25_cls-13">
        <path d="M149.87,193s1,2.19,2.45,2.65c.58,3.22.8,4,.8,4a25.84,25.84,0,0,1-2.84,6.52,21.05,21.05,0,0,0-2.27,4.17s5.82-2.52,6.41-6.81c1.33,3.15,3.52,5.62,3.45,9.09a53.16,53.16,0,0,1-.36,5.57,13.4,13.4,0,0,1-4.55,2.91c-2.61.92-4.2,1.53-4.2,1.53a4.74,4.74,0,0,0,4.61.52,8.79,8.79,0,0,0,3.64-2.55s-2.11,9.68-3.68,12.24a14.58,14.58,0,0,1-1.92,1.81s-5.23,3.52-8.12,4c2.63.79,6.86.18,8.25-2.46.23,2.54-.66,10.08,8.43,7.08a69.62,69.62,0,0,1-7.47-3.83s-1.59-1.65-.15-4.58c3.23-5.91,4.17-7.61,4.17-7.61s-.81,6.11,7.75,5.22c-3.78-2.51-7.16-4.58-7.55-6.07,1.49-4.65,3.16-7,3-11.33l-.17-4.36s2,4.13,10.1,1c-6.55-2.14-9.4-2.33-11.22-3.93-1.82-4.71-4.1-11.83-4-12.46s1.82-1.64,1.61-3.27C154.48,194.43,153.25,196.27,149.87,193Z" />
      </g>
      <line class="BUNTAI_DEER_JEWELRY_DEER_JEWELRY_25_cls-14" x1="152.91" y1="189.34" x2="152.91" y2="184.65" />
      <path class="BUNTAI_DEER_JEWELRY_DEER_JEWELRY_25_cls-15" d="M220.85,415.43l3.46,9.81-2.79.29-1.78-9.9a5.89,5.89,0,0,0,.71-.11h0Z" />
      <path class="BUNTAI_DEER_JEWELRY_DEER_JEWELRY_25_cls-15" d="M222.6,414.73l6.62,8.61-2.36.9-2.55,1h0l-3.46-9.81a7.43,7.43,0,0,0,1.4-.52A2.91,2.91,0,0,0,222.6,414.73Z" />
      <path class="BUNTAI_DEER_JEWELRY_DEER_JEWELRY_25_cls-15" d="M232.89,420.49l-1.87,1.4-1.8,1.45-6.62-8.61a5.92,5.92,0,0,0,1.12-.8l.13-.12Z" />
      <path class="BUNTAI_DEER_JEWELRY_DEER_JEWELRY_25_cls-15" d="M235.26,417,234,418.7l-1.1,1.79-9-6.68a5.34,5.34,0,0,0,.9-1.17.94.94,0,0,0,.12-.22Z" />
      <path class="BUNTAI_DEER_JEWELRY_DEER_JEWELRY_25_cls-15" d="M236.74,412.92l-.73,1.85-.75,2.19-10.39-4.54a4.82,4.82,0,0,0,.43-1.14,2.68,2.68,0,0,0,.07-.27Z" />
      <path class="BUNTAI_DEER_JEWELRY_DEER_JEWELRY_25_cls-15" d="M236.93,409.42l-.27,1.5.08,2L225.37,411a7.71,7.71,0,0,0,.16-1.59Z" />
      <path class="BUNTAI_DEER_JEWELRY_DEER_JEWELRY_25_cls-15" d="M236.66,407.93l.27,1.49h-11.4a7.68,7.68,0,0,0-.16-1.58l11.37-1.91Z" />
      <path class="BUNTAI_DEER_JEWELRY_DEER_JEWELRY_25_cls-15" d="M236,404.07l.73,1.86-11.37,1.91a2.68,2.68,0,0,0-.07-.27,5.07,5.07,0,0,0-.43-1.15l10.39-4.53Z" />
      <path class="BUNTAI_DEER_JEWELRY_DEER_JEWELRY_25_cls-15" d="M234,400.14l1.27,1.75-10.39,4.53a1.13,1.13,0,0,0-.12-.21,5.11,5.11,0,0,0-.9-1.17l9-6.68Z" />
      <path class="BUNTAI_DEER_JEWELRY_DEER_JEWELRY_25_cls-15" d="M232.89,398.36l-9,6.68-.13-.12a6.47,6.47,0,0,0-1.12-.81l6.62-8.61L231,397Z" />
      <path class="BUNTAI_DEER_JEWELRY_DEER_JEWELRY_25_cls-15" d="M229.22,395.5l-6.62,8.61-.35-.17a7.43,7.43,0,0,0-1.4-.52l3.46-9.81h0l2.55,1Z" />
      <path class="BUNTAI_DEER_JEWELRY_DEER_JEWELRY_25_cls-15" d="M224.31,393.61l-3.46,9.81-.4-.09h0a7,7,0,0,0-.71-.1l1.78-9.9Z" />
      <path class="BUNTAI_DEER_JEWELRY_DEER_JEWELRY_25_cls-16" d="M220.45,403.32a7,7,0,0,0-.71-.1l1.78-9.9,2.79.29h0l2.55,1,2.36.89L231,397l1.87,1.4,1.1,1.78,1.27,1.75.75,2.18.73,1.86-.08,2,.27,1.49" />
      <path class="BUNTAI_DEER_JEWELRY_DEER_JEWELRY_25_cls-16" d="M225.53,409.42a7.68,7.68,0,0,0-.16-1.58,2.68,2.68,0,0,0-.07-.27,5.07,5.07,0,0,0-.43-1.15,1.13,1.13,0,0,0-.12-.21,5.11,5.11,0,0,0-.9-1.17l-.13-.12a6.47,6.47,0,0,0-1.12-.81l-.35-.17a7.43,7.43,0,0,0-1.4-.52l-.4-.09" />
      <line class="BUNTAI_DEER_JEWELRY_DEER_JEWELRY_25_cls-16" x1="224.87" y1="406.42" x2="235.26" y2="401.89" />
      <polyline class="BUNTAI_DEER_JEWELRY_DEER_JEWELRY_25_cls-16" points="223.85 405.04 223.85 405.04 232.89 398.36" />
      <line class="BUNTAI_DEER_JEWELRY_DEER_JEWELRY_25_cls-16" x1="222.6" y1="404.11" x2="229.22" y2="395.5" />
      <line class="BUNTAI_DEER_JEWELRY_DEER_JEWELRY_25_cls-16" x1="220.85" y1="403.42" x2="224.31" y2="393.61" />
      <line class="BUNTAI_DEER_JEWELRY_DEER_JEWELRY_25_cls-16" x1="225.37" y1="407.84" x2="236.74" y2="405.93" />
      <polyline class="BUNTAI_DEER_JEWELRY_DEER_JEWELRY_25_cls-16" points="220.45 403.32 220.45 403.33 219.2 409.42" />
      <polyline class="BUNTAI_DEER_JEWELRY_DEER_JEWELRY_25_cls-16" points="225.31 407.57 219.2 409.42 224.75 406.21" />
      <polyline class="BUNTAI_DEER_JEWELRY_DEER_JEWELRY_25_cls-16" points="223.72 404.92 219.2 409.42 222.25 403.94" />
      <path class="BUNTAI_DEER_JEWELRY_DEER_JEWELRY_25_cls-16" d="M220.45,415.52a5.89,5.89,0,0,1-.71.11l1.78,9.9,2.79-.29h0l2.55-1,2.36-.9,1.8-1.45,1.87-1.4,1.1-1.79,1.27-1.74.75-2.19.73-1.85-.08-2,.27-1.5h-11.4a7.71,7.71,0,0,1-.16,1.59,2.68,2.68,0,0,1-.07.27,4.82,4.82,0,0,1-.43,1.14.94.94,0,0,1-.12.22,5.34,5.34,0,0,1-.9,1.17l-.13.12a5.92,5.92,0,0,1-1.12.8,2.91,2.91,0,0,1-.35.18,7.43,7.43,0,0,1-1.4.52l-.4.09" />
      <line class="BUNTAI_DEER_JEWELRY_DEER_JEWELRY_25_cls-16" x1="235.26" y1="416.96" x2="224.87" y2="412.42" />
      <polyline class="BUNTAI_DEER_JEWELRY_DEER_JEWELRY_25_cls-16" points="232.89 420.49 223.85 413.81 223.85 413.81" />
      <line class="BUNTAI_DEER_JEWELRY_DEER_JEWELRY_25_cls-16" x1="229.22" y1="423.34" x2="222.6" y2="414.73" />
      <line class="BUNTAI_DEER_JEWELRY_DEER_JEWELRY_25_cls-16" x1="224.31" y1="425.24" x2="220.85" y2="415.43" />
      <line class="BUNTAI_DEER_JEWELRY_DEER_JEWELRY_25_cls-16" x1="236.74" y1="412.92" x2="225.37" y2="411.01" />
      <polyline class="BUNTAI_DEER_JEWELRY_DEER_JEWELRY_25_cls-16" points="220.45 415.52 220.45 415.52 219.2 409.42 225.53 409.42" />
      <polyline class="BUNTAI_DEER_JEWELRY_DEER_JEWELRY_25_cls-16" points="225.31 411.28 219.2 409.42 224.75 412.64" />
      <polyline class="BUNTAI_DEER_JEWELRY_DEER_JEWELRY_25_cls-16" points="223.72 413.93 219.2 409.42 222.25 414.91" />
      <path class="BUNTAI_DEER_JEWELRY_DEER_JEWELRY_25_cls-17" d="M286.67,342.38a2.66,2.66,0,0,0-3.92.7l1.45,1.18c-5.47,14.16-24.78,32.28-62.81,44.29-40.21-12-60.08-41-63.28-46l1.53-1.39s-1.4-2.73-4.32-.86a2.87,2.87,0,0,0-.23,3.12l.41.67h0s23.62,35.27,65.5,47.6a1.27,1.27,0,0,0,.39.06,1.55,1.55,0,0,0,.43-.07c40.27-12.62,60.37-32.35,65.55-47.38A2,2,0,0,0,286.67,342.38Z" />
      <path class="BUNTAI_DEER_JEWELRY_DEER_JEWELRY_25_cls-18" d="M219.57,387.93l1.84.52s1.91-1.1,2.69.44.42,2.66-.6,3.15-2.53.06-2.81-.79a3.78,3.78,0,0,0-1.77-.41s.74,2.91,3.19,3.16a3.8,3.8,0,0,0,2.22-7.12A3.67,3.67,0,0,0,219.57,387.93Z" />
      <path class="BUNTAI_DEER_JEWELRY_DEER_JEWELRY_25_cls-19" d="M218.83,390.74a3.76,3.76,0,0,0,3.34,3.35,2.3,2.3,0,0,0,.37,0,3.65,3.65,0,0,0,2.51-1,3.84,3.84,0,0,0,1.24-2.66,1.48,1.48,0,0,0,0-.21,3.88,3.88,0,0,0-.85-2.43,3.71,3.71,0,0,0-2.91-1.41,3.68,3.68,0,0,0-3,1.62l1.85.52a2,2,0,0,1,1.19-.4,1.9,1.9,0,0,1,1.13.35,2.1,2.1,0,0,1,.93,1.75,2,2,0,0,1-.23.94,2,2,0,0,1-3.63.07h0Z" />
    </g>
  </g>
</svg>