<svg xmlns="http://www.w3.org/2000/svg" viewBox="0 0 432 432">
  <defs>
    <style>.BUNTAI_WOLF_OUTFIT_WOLF_OUTFIT_32_cls-1{isolation:isolate;}.BUNTAI_WOLF_OUTFIT_WOLF_OUTFIT_32_cls-2{fill:#ccc;}.BUNTAI_WOLF_OUTFIT_WOLF_OUTFIT_32_cls-3{fill:none;stroke:#000;stroke-linecap:round;stroke-linejoin:round;stroke-width:2px;}.BUNTAI_WOLF_OUTFIT_WOLF_OUTFIT_32_cls-4{opacity:0.22;mix-blend-mode:multiply;}</style>
  </defs>
  <g class="BUNTAI_WOLF_OUTFIT_WOLF_OUTFIT_32_cls-1">
    <g id="outfit">
      <path class="BUNTAI_WOLF_OUTFIT_WOLF_OUTFIT_32_cls-2" d="M412.85,425.6V440l-57.29.74h-1.44l-4.27.06-104.54,1.34-44.55.57L31,444.94l-9.32-22.37s9.78-17.48,18.4-31.92,14.81-40.32,14.34-45.91,11.06-21.67,11.06-21.67,8.86-.7,11.19-2.09,17.94-14.92,21.67-16.55,27.84-8.27,27.84-8.27l2.1-2.33s4-6.64,4.31-6.64S142,281.1,142,281.1q1.71-.8,3.27-1.68c1.76,10.33,5.91,23.77,10.54,37.38,5.75,16.89,18.61,32.19,35.74,50.81a331.83,331.83,0,0,1,28.86,36.24s9.41-6,23.57-18.19,37.57-36.78,37.57-36.78l9.78-14.41c9.79-14.4,16.14-29.92,16.17-38a20.4,20.4,0,0,0-1.25-7.57l4.74-.35,18.62,9.26s9.08,8.39,12.75,10,18.18,13.81,18.18,13.81,6.46,0,9.26,2.27,9.09,11.88,13.28,14.85c4.2,25.34,3.91,40.55,13.69,59.89S412.85,425.6,412.85,425.6Z" />
      <path class="BUNTAI_WOLF_OUTFIT_WOLF_OUTFIT_32_cls-3" d="M305.43,288.94l5.56-.41,18.62,9.26s-8.8,31.11-23.95,60.7c-11.67,22.81-51.26,55.31-68.8,69" />
      <path class="BUNTAI_WOLF_OUTFIT_WOLF_OUTFIT_32_cls-3" d="M200.76,442.76c-1.65-3.14-3.56-6.74-5.77-10.87a762.92,762.92,0,0,0-48.7-80.16c-17-24.93-20.16-55.57-20.16-55.57l2.1-2.33s4-6.64,4.31-6.64S142,281.1,142,281.1a40.68,40.68,0,0,0,4.05-2.14" />
      <path class="BUNTAI_WOLF_OUTFIT_WOLF_OUTFIT_32_cls-3" d="M305.43,288.94s4.23,5.36.61,14.53c-3.45,8.78-11.51,46.18-85.16,100.38" />
      <path class="BUNTAI_WOLF_OUTFIT_WOLF_OUTFIT_32_cls-3" d="M146.05,279s2.16,31.3,22.4,61.82c12.22,15.09,33,36.61,52.43,63.07,5.51,7.5,10.91,15.39,16,23.64,2.94,4.78,5.77,9.68,8.45,14.7" />
      <path class="BUNTAI_WOLF_OUTFIT_WOLF_OUTFIT_32_cls-3" d="M126.13,296.16S102,302.8,98.29,304.43,79,319.58,76.62,321s-11.19,2.09-11.19,2.09-11.52,16.08-11.06,21.67S48.66,376.2,40,390.65s-18.4,31.92-18.4,31.92L31,444.94l169.81-2.18,44.55-.57,104.54-1.34,4.27-.06h1.44l57.29-.74V425.6s-6.29-7.69-16.08-27-9.49-34.55-13.69-59.89c-4.19-3-10.48-12.58-13.28-14.85s-9.26-2.27-9.26-2.27S346,309.33,342.36,307.75s-12.75-10-12.75-10" />
      <path class="BUNTAI_WOLF_OUTFIT_WOLF_OUTFIT_32_cls-3" d="M355.56,440.78c7.38-11.07,12.55-20.31,12.55-20.31" />
      <path class="BUNTAI_WOLF_OUTFIT_WOLF_OUTFIT_32_cls-3" d="M354.12,440.79c9.13-28.44,11.66-62.73,11.66-62.73" />
      <path class="BUNTAI_WOLF_OUTFIT_WOLF_OUTFIT_32_cls-3" d="M349.47,411.5s2,17.56.38,29.35" />
      <path class="BUNTAI_WOLF_OUTFIT_WOLF_OUTFIT_32_cls-3" d="M76.39,341.94S79.65,411.38,88,442.37C79,431.19,73.82,408.12,73.82,408.12" />
      <g class="BUNTAI_WOLF_OUTFIT_WOLF_OUTFIT_32_cls-4">
        <path d="M323.73,294.86s-19.63,60.07-46.9,83-47.7,37.68-47.7,37.68l8.08,12.55s42.73-35.25,55.47-51.35,23.56-38.45,27.54-51.26A198.39,198.39,0,0,1,327,306.29s33.32,25.17,34.37,26.1c-3.61,29.24-9,71.77-8.16,84.82,0,0,9.91-58.61,16.55-69.44,4.42,17.94,11.06,43.16,14.91,52.78C375.05,428.16,362.81,439,362.81,439s24.12-25.34,28.32-32c10.83,16.78,21.72,23.61,21.72,23.61v-5s-13.51-19.81-19.34-35.31-10.07-51.38-10.07-51.38a46.88,46.88,0,0,1-9.56-10.48c-3.78-6-6.35-6.25-9.21-6.5s-5.23-.55-5.23-.55-9.73-9.15-15.32-12.82-9.69-5.06-11.37-8S323.73,294.86,323.73,294.86Z" />
        <path d="M136.69,284.61s10.77,44.05,29.17,68.05c-12.11-9.78-21.9-24.23-21.9-24.23s10,20.74,38.68,55,41.48,57.36,41.48,57.36L200.76,439s-34.66-53-43-61.4-9.56-10.66-9.56-10.66-24.75-36.64-29.82-49.57c-.18,24.47,3.49,34.43,3.49,34.43s-26,16.08-31.45,25-9.44,15.38-9.44,15.38,2.9,37.92,5.82,45C76.5,412.43,73.82,397.4,73.82,397.4S70,415.34,75.34,428c-11-17.94-13.75-22.37-13.75-22.37L29.22,440.78l-7.14-19s14.7-20.32,23.59-42.56,8.71-33.9,8.71-33.9,5.46-16.78,11.05-22.25c8.57-1.21,10.84,0,21.44-10.49,12.84-8.69,15.85-10.6,28-13.28l11.3-3.14L132,287Z" />
      </g>
    </g>
  </g>
</svg>