<svg xmlns="http://www.w3.org/2000/svg" viewBox="0 0 432 432">
  <defs>
    <style>.BUNTAI_WOLF_OUTFIT_WOLF_OUTFIT_37_cls-1{isolation:isolate;}.BUNTAI_WOLF_OUTFIT_WOLF_OUTFIT_37_cls-2{fill:#843f00;}.BUNTAI_WOLF_OUTFIT_WOLF_OUTFIT_37_cls-3{fill:#52000a;}.BUNTAI_WOLF_OUTFIT_WOLF_OUTFIT_37_cls-4{fill:#811522;}.BUNTAI_WOLF_OUTFIT_WOLF_OUTFIT_37_cls-5{fill:#303d46;}.BUNTAI_WOLF_OUTFIT_WOLF_OUTFIT_37_cls-6{fill:#7f1720;}.BUNTAI_WOLF_OUTFIT_WOLF_OUTFIT_37_cls-7{fill:#fff;}.BUNTAI_WOLF_OUTFIT_WOLF_OUTFIT_37_cls-8{fill:none;stroke:#000;stroke-linecap:round;stroke-linejoin:round;stroke-width:2.65px;}.BUNTAI_WOLF_OUTFIT_WOLF_OUTFIT_37_cls-9{opacity:0.43;mix-blend-mode:multiply;}</style>
  </defs>
  <g class="BUNTAI_WOLF_OUTFIT_WOLF_OUTFIT_37_cls-1">
    <g id="outfit">
      <path class="BUNTAI_WOLF_OUTFIT_WOLF_OUTFIT_37_cls-2" d="M298.9,309.87a73.69,73.69,0,0,1,4.6-8,4.87,4.87,0,0,1,6.25-1.29,3.83,3.83,0,0,1,1.45,5.6,55.24,55.24,0,0,0-3.33,5.75A136,136,0,0,0,296,346.31c-1,4.56-1.79,9.5-2.4,14.78a4.39,4.39,0,0,1-4.51,3.64l-.47,0a4.19,4.19,0,0,1-4-4.46c.65-5.62,1.53-10.87,2.55-15.72A143.54,143.54,0,0,1,298.9,309.87Z" />
      <path class="BUNTAI_WOLF_OUTFIT_WOLF_OUTFIT_37_cls-3" d="M306.42,417.26c-20,2.82-50.86,6.23-83.16,6.23s-63.18-3.41-83.14-6.23c-7.32-1-13.17-2-17.09-2.64l-4.07,6.7s5.62,1.64,15.69,3.73a442.78,442.78,0,0,0,88.61,8.85,442.84,442.84,0,0,0,88.63-8.85c10.07-2.09,15.69-3.73,15.69-3.73l-4.08-6.7C319.57,415.29,313.73,416.24,306.42,417.26Z" />
      <path class="BUNTAI_WOLF_OUTFIT_WOLF_OUTFIT_37_cls-3" d="M223.26,390.78s55.38.6,88.63-.36c11-.3,19.59-.79,22.93-1.53-3.17-2.44-6.66-5.72-6.66-5.72-5.28.28-12.33.59-20.66.86-9.66.3-21,.53-33.36.53H172.39c-12.33,0-23.7-.23-33.35-.53-8.33-.27-15.38-.58-20.66-.86,0,0-3.5,3.28-6.66,5.72,3.34.74,11.92,1.23,22.93,1.53C167.88,391.38,223.26,390.78,223.26,390.78Z" />
      <path class="BUNTAI_WOLF_OUTFIT_WOLF_OUTFIT_37_cls-4" d="M338.28,373.76A37.35,37.35,0,0,0,354.74,351h0l1.85,1.73c-1.46,3.92,1.14,9.18,4.5,14.49h0s-2.73,9.83-15,18.59a61,61,0,0,1-12.05,6.6l.83-3.56c-3.17-2.44-6.66-5.72-6.66-5.72,6.73-.35,10.59-.63,10.59-.63Z" />
      <path class="BUNTAI_WOLF_OUTFIT_WOLF_OUTFIT_37_cls-4" d="M416.71,430.72c.32.4.63.76.92,1.09a46.93,46.93,0,0,1-32.39,14.65c-21,1-33.21-.92-33.21-.92-6.1-2.41-10.5-4.59-10.5-4.59s-3.24-5-3.39-5.43c0-.12.06-1.54.08-3.77,1.43.33,22.53,5,38.41-1.24,16.46-6.48,31.26-20.06,31.26-20.06s3.51,7.8,5.66,10.13l2.15,2.33A7.49,7.49,0,0,0,416.71,430.72Z" />
      <path class="BUNTAI_WOLF_OUTFIT_WOLF_OUTFIT_37_cls-4" d="M91.79,351a37.27,37.27,0,0,0,16.47,22.72h0l-.48,8.78s3.86.28,10.59.63c0,0-3.5,3.28-6.66,5.72l.82,3.56h0a61.19,61.19,0,0,1-12-6.6c-12.32-8.77-15-18.59-15-18.59h0c3.35-5.31,6-10.57,4.49-14.49Z" />
      <path class="BUNTAI_WOLF_OUTFIT_WOLF_OUTFIT_37_cls-4" d="M108.29,431.75c0,2.23.15,3.65.1,3.77-.15.4-3.4,5.43-3.4,5.43s-4.38,2.17-10.48,4.59h0c-.5.08-12.65,1.85-33.21.92a47,47,0,0,1-32.4-14.65c.29-.33.6-.69.92-1.09a7.52,7.52,0,0,0,1-7.81L33,420.58c2.15-2.33,5.66-10.13,5.66-10.13S53.45,424,69.89,430.51C85.74,436.77,106.74,432.11,108.29,431.75Z" />
      <path class="BUNTAI_WOLF_OUTFIT_WOLF_OUTFIT_37_cls-3" d="M361.09,352.05s-.91,4.4,7.39,13.73,11.21,24.19,14.94,27.63,39.31,14.5,39.31,14.5l-2.44,4.52a50.52,50.52,0,0,1-12.4-2,60.14,60.14,0,0,1-11.89-5,75.41,75.41,0,0,0-19.92-7.6s-3.18-11.66-7.93-19.77c-2-3.35-4.69-7.11-7-10.85-3.36-5.31-6-10.57-4.5-14.49a26.08,26.08,0,0,1,4.49-.73Z" />
      <path class="BUNTAI_WOLF_OUTFIT_WOLF_OUTFIT_37_cls-3" d="M361.09,352a26.08,26.08,0,0,0-4.49.73L354.75,351h0a148.08,148.08,0,0,0-11.83-9.93,12.73,12.73,0,0,1-4.16-15.81c1.73.29,3.74.52,6.07.71-2.9,5.37,2.38,12.4,8,15.93S360.94,351.7,361.09,352Z" />
      <path class="BUNTAI_WOLF_OUTFIT_WOLF_OUTFIT_37_cls-3" d="M344.82,326c-2.33-.19-4.34-.42-6.07-.71-6.58-1.09-9.5-3.08-12.27-7.4-3.51-5.48-4.39-7.18-4.39-7.18v0c1.78-.73,3.7-1.68,5.71-2.7,0,0,6.4,13.46,18.18,18.08h0Z" />
      <path class="BUNTAI_WOLF_OUTFIT_WOLF_OUTFIT_37_cls-3" d="M85.45,352a25.74,25.74,0,0,1,4.48.73c1.47,3.92-1.14,9.18-4.49,14.49-2.36,3.74-5.08,7.5-7,10.85-4.76,8.11-7.93,19.77-7.93,19.77a75.53,75.53,0,0,0-19.93,7.6,60.08,60.08,0,0,1-11.88,5,50.82,50.82,0,0,1-12.41,2h0l-2.44-4.52s35.58-11.05,39.31-14.5,6.65-18.31,14.95-27.63,7.4-13.73,7.4-13.73Z" />
      <path class="BUNTAI_WOLF_OUTFIT_WOLF_OUTFIT_37_cls-3" d="M91.79,351l-1.86,1.73a25.74,25.74,0,0,0-4.48-.73c.14-.34,2.86-6.67,8.29-10.1,5.59-3.53,10.87-10.56,8-15.93,2.33-.19,4.34-.42,6.08-.71a12.74,12.74,0,0,1-4.16,15.81A148.7,148.7,0,0,0,91.79,351Z" />
      <path class="BUNTAI_WOLF_OUTFIT_WOLF_OUTFIT_37_cls-3" d="M107.79,325.3c-1.74.29-3.75.52-6.08.71l-1.16.08h0c11.79-4.62,18.18-18.08,18.18-18.08h0c2,1,3.93,2,5.72,2.71v0s-.89,1.7-4.4,7.18C117.27,322.22,114.36,324.21,107.79,325.3Z" />
      <path class="BUNTAI_WOLF_OUTFIT_WOLF_OUTFIT_37_cls-3" d="M363.72,316a2.92,2.92,0,1,1-.12,5.8c-2.07,0-8.05,0-10.92.77a3.47,3.47,0,0,1-.9.11,3.2,3.2,0,0,1-3.11-2.11A2.87,2.87,0,0,1,350.9,317C355.23,315.87,362.86,316,363.72,316Z" />
      <path class="BUNTAI_WOLF_OUTFIT_WOLF_OUTFIT_37_cls-3" d="M385.41,346a2.8,2.8,0,0,1,1.49,3.91,3.28,3.28,0,0,1-2.89,1.61,3.42,3.42,0,0,1-1.42-.3c-.07,0-7.58-2.88-13.8-3.25a3,3,0,0,1-3-3.08,3.16,3.16,0,0,1,3.46-2.71C376.88,342.67,385.34,346,385.41,346Z" />
      <path class="BUNTAI_WOLF_OUTFIT_WOLF_OUTFIT_37_cls-3" d="M409.32,392.44a2.77,2.77,0,0,1,1.47,3.88,3.33,3.33,0,0,1-2.92,1.62,3.37,3.37,0,0,1-1.42-.31,114,114,0,0,0-14.86-5.22,2.87,2.87,0,0,1-2.22-3.58,3.3,3.3,0,0,1,4-2A117,117,0,0,1,409.32,392.44Z" />
      <path class="BUNTAI_WOLF_OUTFIT_WOLF_OUTFIT_37_cls-3" d="M57.15,388.83a2.84,2.84,0,0,1-2.21,3.58,112.94,112.94,0,0,0-14.85,5.22,3.49,3.49,0,0,1-1.44.31,3.31,3.31,0,0,1-2.9-1.62,2.76,2.76,0,0,1,1.46-3.88,117.79,117.79,0,0,1,15.94-5.6A3.3,3.3,0,0,1,57.15,388.83Z" />
      <path class="BUNTAI_WOLF_OUTFIT_WOLF_OUTFIT_37_cls-3" d="M95.64,317a2.88,2.88,0,0,1,2.22,3.58,3.22,3.22,0,0,1-3.12,2.11,3.42,3.42,0,0,1-.88-.11c-2.88-.73-8.86-.8-10.92-.77a2.92,2.92,0,1,1-.12-5.8C83.68,316,91.31,315.87,95.64,317Z" />
      <path class="BUNTAI_WOLF_OUTFIT_WOLF_OUTFIT_37_cls-3" d="M80.75,344.91a3,3,0,0,1-3,3.08c-6.23.37-13.72,3.21-13.8,3.25a3.36,3.36,0,0,1-1.42.3,3.28,3.28,0,0,1-2.88-1.61A2.8,2.8,0,0,1,61.12,346c.08,0,8.54-3.35,16.18-3.82A3.14,3.14,0,0,1,80.75,344.91Z" />
      <path class="BUNTAI_WOLF_OUTFIT_WOLF_OUTFIT_37_cls-5" d="M277.46,328.87a80.25,80.25,0,0,0,17.09-20.4h0s1.73.63,4.34,1.4a143.54,143.54,0,0,0-11.79,34.66l-.73-.11Z" />
      <path class="BUNTAI_WOLF_OUTFIT_WOLF_OUTFIT_37_cls-5" d="M352,445.54s12.23,1.88,33.21.92a46.93,46.93,0,0,0,32.39-14.65,17.1,17.1,0,0,0,4.07,3.68s1.13,8.11,2.94,12.05a19.2,19.2,0,0,0,4.64,6.29s1.93,7.1,2.15,8.73a53.72,53.72,0,0,0,2.27,6.68l2.72,14.4H347.2a9.3,9.3,0,0,1-3.4-7.91,97,97,0,0,1,1.81-11l-2.37-4.6s-1.36-7.69-1.71-13.08,0-6.09,0-6.09S345.93,443.13,352,445.54Z" />
      <path class="BUNTAI_WOLF_OUTFIT_WOLF_OUTFIT_37_cls-5" d="M354.74,351a37.35,37.35,0,0,1-16.46,22.72c-.17-3.23-.41-7.64-.74-13.66A229,229,0,0,0,301,347.5c-1.8-.45-3.46-.84-5-1.19h0a136,136,0,0,1,11.89-34.4h0a32.07,32.07,0,0,0,9.32.3,20.51,20.51,0,0,0,4.89-1.51v0s.88,1.7,4.39,7.18c2.77,4.32,5.69,6.31,12.27,7.4a12.73,12.73,0,0,0,4.16,15.81A148.08,148.08,0,0,1,354.74,351Z" />
      <path class="BUNTAI_WOLF_OUTFIT_WOLF_OUTFIT_37_cls-5" d="M338.22,431.64c0-5.05-.37-14.1-4-21.53,0,0,9-14,12-24.07l-.18-.19c12.32-8.76,15-18.59,15-18.59h0c2.36,3.74,5.08,7.5,7,10.85,4.75,8.11,7.93,19.77,7.93,19.77a75.41,75.41,0,0,1,19.92,7.6,60.14,60.14,0,0,0,11.89,5s-14.8,13.58-31.26,20.06c-15.88,6.28-37,1.57-38.41,1.24A.21.21,0,0,0,338.22,431.64Z" />
      <path class="BUNTAI_WOLF_OUTFIT_WOLF_OUTFIT_37_cls-5" d="M346,385.85l.18.19c-3,10.07-12,24.07-12,24.07,3.64,7.43,4.06,16.48,4,21.53l-.08.09.08,0c0,2.23-.12,3.65-.08,3.77l-2,4.6s-.3,6.75-.3,6.92-2.42,3.21-2.72,4,2.41,5.54,3.77,9.06,1.07,5,0,12.7,0,10.82,0,10.82l-28.37.81c14-23.79,19-63.13,19-63.13l-4.08-6.7c3.6-.62,5.58-1,5.58-1L334,392.45A61,61,0,0,0,346,385.85Z" />
      <path class="BUNTAI_WOLF_OUTFIT_WOLF_OUTFIT_37_cls-5" d="M94.5,445.54h0C100.61,443.12,105,441,105,441s.34.72,0,6.09-1.7,13.08-1.7,13.08l-2.37,4.6a98.12,98.12,0,0,1,1.8,11,9.27,9.27,0,0,1-3.39,7.91H10.12l2.72-14.4a54.06,54.06,0,0,0,2.26-6.68c.23-1.63,2.15-8.73,2.15-8.73a19.3,19.3,0,0,0,4.65-6.29c1.8-3.94,2.94-12.05,2.94-12.05a16.86,16.86,0,0,0,4.05-3.68,47,47,0,0,0,32.4,14.65C81.85,447.39,94,445.62,94.5,445.54Z" />
      <path class="BUNTAI_WOLF_OUTFIT_WOLF_OUTFIT_37_cls-5" d="M138,484.45l-28.38-.81s1.05-3.11,0-10.82-1.36-9.19,0-12.7,4.07-8.25,3.77-9.06-2.72-3.84-2.72-4-.3-6.92-.3-6.92l-2-4.6c0-.12-.07-1.54-.1-3.77l.1,0-.1-.09c0-5.05.38-14.1,4-21.53,0,0-9-14-12-24.07l.17-.19a61.19,61.19,0,0,0,12,6.6h0l4.9,21.17s2,.38,5.59,1l-4.07,6.7S123.93,460.66,138,484.45Z" />
      <path class="BUNTAI_WOLF_OUTFIT_WOLF_OUTFIT_37_cls-5" d="M112.31,410.11c-3.64,7.43-4,16.48-4,21.53v.11c-1.55.36-22.55,5-38.4-1.24C53.45,424,38.65,410.45,38.65,410.45a60.08,60.08,0,0,0,11.88-5,75.53,75.53,0,0,1,19.93-7.6s3.17-11.66,7.93-19.77c2-3.35,4.69-7.11,7-10.85h0s2.71,9.82,15,18.59l-.17.19C103.33,396.11,112.31,410.11,112.31,410.11Z" />
      <path class="BUNTAI_WOLF_OUTFIT_WOLF_OUTFIT_37_cls-5" d="M150.55,346.31c-1.51.35-3.16.74-5,1.19A229.32,229.32,0,0,0,109,360.1c-.32,6-.55,10.43-.72,13.66h0A37.27,37.27,0,0,1,91.79,351a148.7,148.7,0,0,1,11.84-9.93,12.74,12.74,0,0,0,4.16-15.81c6.57-1.09,9.48-3.08,12.26-7.4,3.51-5.48,4.4-7.18,4.4-7.18v0a20.51,20.51,0,0,0,4.89,1.51,32,32,0,0,0,9.31-.3A135.49,135.49,0,0,1,150.55,346.31Z" />
      <path class="BUNTAI_WOLF_OUTFIT_WOLF_OUTFIT_37_cls-5" d="M169.08,328.87l-8.92,15.55-.75.11a141.79,141.79,0,0,0-11.79-34.66c2.63-.77,4.35-1.4,4.35-1.4A80.61,80.61,0,0,0,169.08,328.87Z" />
      <path class="BUNTAI_WOLF_OUTFIT_WOLF_OUTFIT_37_cls-6" d="M400.42,362.4c-8.16-4.16-24.68-11.36-33.18-10.85-2.62.15-4.63.33-6.15.49-.15-.34-2.87-6.67-8.31-10.1s-10.86-10.56-8-15.93l1.16.08c10.57.49,19.47-4.09,29.41-2.62,0,0,7.14,2.43,15.74,16.42S404.37,360,400.42,362.4ZM368.79,348c6.22.37,13.73,3.21,13.8,3.25a3.42,3.42,0,0,0,1.42.3,3.28,3.28,0,0,0,2.89-1.61,2.8,2.8,0,0,0-1.49-3.91c-.07,0-8.53-3.35-16.17-3.82a3.16,3.16,0,0,0-3.46,2.71A3,3,0,0,0,368.79,348Z" />
      <path class="BUNTAI_WOLF_OUTFIT_WOLF_OUTFIT_37_cls-6" d="M361.09,352c1.52-.16,3.53-.34,6.15-.49,8.5-.51,25,6.69,33.18,10.85,0,0,15.08,26.93,22.33,45.51h0s-35.56-11.05-39.31-14.5-6.63-18.31-14.94-27.63-7.39-13.73-7.39-13.73Zm49.7,44.28a2.77,2.77,0,0,0-1.47-3.88,117,117,0,0,0-15.95-5.6,3.3,3.3,0,0,0-4,2,2.87,2.87,0,0,0,2.22,3.58,114,114,0,0,1,14.86,5.22,3.37,3.37,0,0,0,1.42.31A3.33,3.33,0,0,0,410.79,396.32Z" />
      <path class="BUNTAI_WOLF_OUTFIT_WOLF_OUTFIT_37_cls-6" d="M375.39,323.47c-9.94-1.47-18.84,3.11-29.41,2.62h0C334.2,321.46,327.8,308,327.8,308c8.42-4.29,18.31-9.93,25.51-7.75C353.31,300.25,369.39,314.54,375.39,323.47Zm-22.71-.93c2.87-.73,8.85-.8,10.92-.77a2.92,2.92,0,1,0,.12-5.8c-.86,0-8.49-.1-12.82,1a2.87,2.87,0,0,0-2.23,3.58,3.2,3.2,0,0,0,3.11,2.11A3.47,3.47,0,0,0,352.68,322.54Z" />
      <path class="BUNTAI_WOLF_OUTFIT_WOLF_OUTFIT_37_cls-6" d="M303.5,301.85a73.69,73.69,0,0,0-4.6,8c-2.61-.77-4.34-1.4-4.34-1.4S295,308,300,303.8s11.21-17.93,11.21-17.93,5.09,2.42,15.06,2.23,18.45-7.3,25.7-5.08,1.36,17.23,1.36,17.23h0c-7.2-2.18-17.09,3.46-25.51,7.75-2,1-3.93,2-5.71,2.7a20.51,20.51,0,0,1-4.89,1.51,32.07,32.07,0,0,1-9.32-.3h0a55.24,55.24,0,0,1,3.33-5.75,3.83,3.83,0,0,0-1.45-5.6A4.87,4.87,0,0,0,303.5,301.85Z" />
      <path class="BUNTAI_WOLF_OUTFIT_WOLF_OUTFIT_37_cls-6" d="M85.45,352h0s.9,4.4-7.4,13.73S66.85,390,63.1,393.41s-39.31,14.5-39.31,14.5C31,389.33,46.11,362.4,46.11,362.4,54.28,358.24,70.8,351,79.3,351.55,81.91,351.7,83.92,351.88,85.45,352ZM54.94,392.41a2.84,2.84,0,0,0,2.21-3.58,3.3,3.3,0,0,0-4-2,117.79,117.79,0,0,0-15.94,5.6,2.76,2.76,0,0,0-1.46,3.88,3.31,3.31,0,0,0,2.9,1.62,3.49,3.49,0,0,0,1.44-.31A112.94,112.94,0,0,1,54.94,392.41Z" />
      <path class="BUNTAI_WOLF_OUTFIT_WOLF_OUTFIT_37_cls-6" d="M79.3,351.55c-8.5-.51-25,6.69-33.19,10.85-4-2.44.69-8.52,9.29-22.51s15.75-16.42,15.75-16.42c9.93-1.47,18.81,3.11,29.4,2.62l1.16-.08c2.9,5.37-2.38,12.4-8,15.93-5.43,3.43-8.15,9.76-8.29,10.1C83.92,351.88,81.91,351.7,79.3,351.55Zm-15.36-.31c.08,0,7.57-2.88,13.8-3.25a3,3,0,0,0,3-3.08,3.14,3.14,0,0,0-3.45-2.71c-7.64.47-16.1,3.78-16.18,3.82a2.8,2.8,0,0,0-1.48,3.91,3.28,3.28,0,0,0,2.88,1.61A3.36,3.36,0,0,0,63.94,351.24Z" />
      <path class="BUNTAI_WOLF_OUTFIT_WOLF_OUTFIT_37_cls-6" d="M93.86,322.54a3.42,3.42,0,0,0,.88.11,3.22,3.22,0,0,0,3.12-2.11A2.88,2.88,0,0,0,95.64,317c-4.33-1.09-12-1-12.82-1a2.92,2.92,0,1,0,.12,5.8C85,321.74,91,321.81,93.86,322.54Zm6.69,3.54h0c-10.59.49-19.47-4.09-29.4-2.62,6-8.93,22.06-23.22,22.06-23.22,7.21-2.19,17.09,3.46,25.52,7.74h0S112.34,321.46,100.55,326.08Z" />
      <path class="BUNTAI_WOLF_OUTFIT_WOLF_OUTFIT_37_cls-6" d="M135.34,285.87s6.22,13.78,11.2,17.93,5.43,4.67,5.43,4.67-1.72.63-4.35,1.4a69.09,69.09,0,0,0-4.59-8,4.86,4.86,0,0,0-6.24-1.29,3.82,3.82,0,0,0-1.45,5.6,63.48,63.48,0,0,1,3.31,5.75,32,32,0,0,1-9.31.3,20.51,20.51,0,0,1-4.89-1.51c-1.79-.74-3.72-1.68-5.72-2.71-8.43-4.28-18.31-9.93-25.52-7.74,0,0-5.88-15,1.36-17.23s15.75,4.89,25.71,5.08S135.34,285.87,135.34,285.87Z" />
      <path class="BUNTAI_WOLF_OUTFIT_WOLF_OUTFIT_37_cls-7" d="M311.2,285.87S305,299.65,300,303.8s-5.43,4.67-5.43,4.67h0a80.25,80.25,0,0,1-17.09,20.4l-29.28.44c39.23-20.65,40.45-36.92,48.6-43S311.2,285.87,311.2,285.87Z" />
      <path class="BUNTAI_WOLF_OUTFIT_WOLF_OUTFIT_37_cls-7" d="M198.36,329.31l-29.28-.44A80.61,80.61,0,0,1,152,308.47s-.45-.52-5.43-4.67-11.2-17.93-11.2-17.93,6.25-5.65,14.42.42S159.11,308.66,198.36,329.31Z" />
      <path class="BUNTAI_WOLF_OUTFIT_WOLF_OUTFIT_37_cls-2" d="M162,360.25a4.21,4.21,0,0,1-4,4.46l-.48,0a4.36,4.36,0,0,1-4.49-3.64c-.61-5.28-1.44-10.22-2.41-14.78a135.49,135.49,0,0,0-11.9-34.4,63.48,63.48,0,0,0-3.31-5.75,3.82,3.82,0,0,1,1.45-5.6,4.86,4.86,0,0,1,6.24,1.29,69.09,69.09,0,0,1,4.59,8,141.79,141.79,0,0,1,11.79,34.66C160.43,349.38,161.31,354.63,162,360.25Z" />
      <path class="BUNTAI_WOLF_OUTFIT_WOLF_OUTFIT_37_cls-6" d="M327.58,421.32s-5,39.34-19,63.13c-4.76.48-9.58.91-14.4,1.3,7.43-8.44-.85-8.19,1.41-13.87s16.32-46.82,16.32-46.82h0C322,423,327.58,421.32,327.58,421.32Z" />
      <path class="BUNTAI_WOLF_OUTFIT_WOLF_OUTFIT_37_cls-6" d="M334.82,388.89l-.83,3.56-4.91,21.17s-2,.38-5.58,1c-3.93.67-9.77,1.62-17.08,2.64l5.47-26.83h0C322.9,390.12,331.48,389.63,334.82,388.89Z" />
      <path class="BUNTAI_WOLF_OUTFIT_WOLF_OUTFIT_37_cls-6" d="M338.28,373.76l.47,8.78s-3.86.28-10.59.63c-5.28.28-12.33.59-20.66.86-1.07-6.5-6.55-36.53-6.55-36.53a229,229,0,0,1,36.59,12.6C337.87,366.12,338.11,370.53,338.28,373.76Z" />
      <path class="BUNTAI_WOLF_OUTFIT_WOLF_OUTFIT_37_cls-6" d="M111.72,388.89c3.34.74,11.92,1.23,22.93,1.53h0l5.47,26.83c-7.32-1-13.17-2-17.09-2.64-3.61-.62-5.59-1-5.59-1l-4.9-21.17Z" />
      <path class="BUNTAI_WOLF_OUTFIT_WOLF_OUTFIT_37_cls-6" d="M151,471.88c2.26,5.68-6,5.43,1.41,13.87-4.82-.39-9.64-.82-14.39-1.3-14-23.79-19-63.13-19-63.13s5.62,1.64,15.69,3.73h0S148.69,466.2,151,471.88Z" />
      <path class="BUNTAI_WOLF_OUTFIT_WOLF_OUTFIT_37_cls-6" d="M145.58,347.5s-5.48,30-6.54,36.53c-8.33-.27-15.38-.58-20.66-.86-6.73-.35-10.59-.63-10.59-.63l.48-8.78c.17-3.23.4-7.64.72-13.66A229.32,229.32,0,0,1,145.58,347.5Z" />
      <path class="BUNTAI_WOLF_OUTFIT_WOLF_OUTFIT_37_cls-6" d="M311.89,425.05h0s-14.05,41.14-16.32,46.82,6,5.43-1.41,13.87c-35.73,2.87-70.9,3.29-70.9,3.29s-35.16-.42-70.89-3.29c-7.42-8.44.85-8.19-1.41-13.87s-16.31-46.82-16.31-46.82h0a442.78,442.78,0,0,0,88.61,8.85A442.84,442.84,0,0,0,311.89,425.05Z" />
      <path class="BUNTAI_WOLF_OUTFIT_WOLF_OUTFIT_37_cls-6" d="M311.89,390.42h0l-5.47,26.83c-20,2.82-50.86,6.23-83.16,6.23s-63.18-3.41-83.14-6.23l-5.47-26.83h0c33.23,1,88.61.36,88.61.36S278.64,391.38,311.89,390.42Z" />
      <path class="BUNTAI_WOLF_OUTFIT_WOLF_OUTFIT_37_cls-6" d="M301,347.5s5.48,30,6.55,36.53c-9.66.3-21,.53-33.36.53H172.39c-12.33,0-23.7-.23-33.35-.53,1.06-6.5,6.54-36.53,6.54-36.53,1.81-.45,3.46-.84,5-1.19,1,4.56,1.8,9.5,2.41,14.78a4.36,4.36,0,0,0,4.49,3.64l.48,0a4.21,4.21,0,0,0,4-4.46c-.67-5.62-1.55-10.87-2.57-15.72l.75-.11,8.92-15.55,29.28.44,24.9.37h0l24.91-.37,29.28-.44,8.92,15.55.73.11c-1,4.85-1.9,10.1-2.55,15.72a4.19,4.19,0,0,0,4,4.46l.47,0a4.39,4.39,0,0,0,4.51-3.64c.61-5.28,1.44-10.22,2.4-14.78h0C297.49,346.66,299.15,347.05,301,347.5Z" />
      <path class="BUNTAI_WOLF_OUTFIT_WOLF_OUTFIT_37_cls-8" d="M223.26,334.42s-29.73.71-45.46,0" />
      <path class="BUNTAI_WOLF_OUTFIT_WOLF_OUTFIT_37_cls-8" d="M76.85,416.63s23.9,5.74,31.44,15l.1.09" />
      <path class="BUNTAI_WOLF_OUTFIT_WOLF_OUTFIT_37_cls-8" d="M53.15,386.84a117.79,117.79,0,0,0-15.94,5.6,2.76,2.76,0,0,0-1.46,3.88,3.31,3.31,0,0,0,2.9,1.62,3.49,3.49,0,0,0,1.44-.31,112.94,112.94,0,0,1,14.85-5.22,2.84,2.84,0,0,0,2.21-3.58A3.3,3.3,0,0,0,53.15,386.84Z" />
      <path class="BUNTAI_WOLF_OUTFIT_WOLF_OUTFIT_37_cls-8" d="M77.3,342.2c-7.64.47-16.1,3.78-16.18,3.82a2.8,2.8,0,0,0-1.48,3.91,3.28,3.28,0,0,0,2.88,1.61,3.36,3.36,0,0,0,1.42-.3c.08,0,7.57-2.88,13.8-3.25a3,3,0,0,0,3-3.08A3.14,3.14,0,0,0,77.3,342.2Z" />
      <path class="BUNTAI_WOLF_OUTFIT_WOLF_OUTFIT_37_cls-8" d="M95.64,317c-4.33-1.09-12-1-12.82-1a2.92,2.92,0,1,0,.12,5.8c2.06,0,8,0,10.92.77a3.42,3.42,0,0,0,.88.11,3.22,3.22,0,0,0,3.12-2.11A2.88,2.88,0,0,0,95.64,317Z" />
      <path class="BUNTAI_WOLF_OUTFIT_WOLF_OUTFIT_37_cls-8" d="M91.79,351a37.27,37.27,0,0,0,16.47,22.72" />
      <path class="BUNTAI_WOLF_OUTFIT_WOLF_OUTFIT_37_cls-8" d="M85.45,367.26s2.71,9.82,15,18.59a61.19,61.19,0,0,0,12,6.6" />
      <path class="BUNTAI_WOLF_OUTFIT_WOLF_OUTFIT_37_cls-8" d="M28.89,431.81a47,47,0,0,0,32.4,14.65c20.56.93,32.71-.84,33.21-.92" />
      <path class="BUNTAI_WOLF_OUTFIT_WOLF_OUTFIT_37_cls-8" d="M38.65,410.45S53.45,424,69.89,430.51c15.85,6.26,36.85,1.6,38.4,1.24l.1,0" />
      <path class="BUNTAI_WOLF_OUTFIT_WOLF_OUTFIT_37_cls-8" d="M105,441s3.25-5,3.4-5.43c0-.12-.07-1.54-.1-3.77v-.11c0-5.05.38-14.1,4-21.53" />
      <path class="BUNTAI_WOLF_OUTFIT_WOLF_OUTFIT_37_cls-8" d="M95.1,392s11.47,13.65,17.21,18.11c0,0-9-14-12-24.07" />
      <path class="BUNTAI_WOLF_OUTFIT_WOLF_OUTFIT_37_cls-8" d="M38.65,410.45s-3.51,7.8-5.66,10.13l-2.15,2.33a7.52,7.52,0,0,1-1,7.81c-.32.4-.63.76-.92,1.09a16.86,16.86,0,0,1-4.05,3.68s-1.14,8.11-2.94,12.05a19.3,19.3,0,0,1-4.65,6.29s-1.92,7.1-2.15,8.73a54.06,54.06,0,0,1-2.26,6.68l-2.72,14.4H99.33a9.27,9.27,0,0,0,3.39-7.91,98.12,98.12,0,0,0-1.8-11l2.37-4.6s1.36-7.69,1.7-13.08,0-6.09,0-6.09-4.38,2.17-10.48,4.59h0c-5.89,2.32-13.4,4.86-20.07,5.85-13.6,2-26.05,12.69-25.14,12.88S66,461.44,66,461.44" />
      <line class="BUNTAI_WOLF_OUTFIT_WOLF_OUTFIT_37_cls-8" x1="26.24" y1="412.43" x2="26.26" y2="412.48" />
      <path class="BUNTAI_WOLF_OUTFIT_WOLF_OUTFIT_37_cls-8" d="M85.45,352.05s.9,4.4-7.4,13.73S66.85,390,63.1,393.41s-39.31,14.5-39.31,14.5l2.44,4.52" />
      <path class="BUNTAI_WOLF_OUTFIT_WOLF_OUTFIT_37_cls-8" d="M85.45,352.05h0c.14-.34,2.86-6.67,8.29-10.1,5.59-3.53,10.87-10.56,8-15.93" />
      <path class="BUNTAI_WOLF_OUTFIT_WOLF_OUTFIT_37_cls-8" d="M118.73,308s-6.39,13.46-18.18,18.08" />
      <path class="BUNTAI_WOLF_OUTFIT_WOLF_OUTFIT_37_cls-8" d="M89.93,352.77c1.47,3.92-1.14,9.18-4.49,14.49-2.36,3.74-5.08,7.5-7,10.85-4.76,8.11-7.93,19.77-7.93,19.77a75.53,75.53,0,0,0-19.93,7.6,60.08,60.08,0,0,1-11.88,5,50.82,50.82,0,0,1-12.41,2h0" />
      <path class="BUNTAI_WOLF_OUTFIT_WOLF_OUTFIT_37_cls-8" d="M23.79,407.91C31,389.33,46.11,362.4,46.11,362.4" />
      <path class="BUNTAI_WOLF_OUTFIT_WOLF_OUTFIT_37_cls-8" d="M107.79,325.29h0a12.74,12.74,0,0,1-4.16,15.81A148.7,148.7,0,0,0,91.79,351l-1.86,1.73a25.74,25.74,0,0,0-4.48-.73c-1.53-.16-3.54-.34-6.15-.49-8.5-.51-25,6.69-33.19,10.85-4-2.44.69-8.52,9.29-22.51s15.75-16.42,15.75-16.42" />
      <path class="BUNTAI_WOLF_OUTFIT_WOLF_OUTFIT_37_cls-8" d="M93.21,300.25s-16.06,14.29-22.06,23.22c9.93-1.47,18.81,3.11,29.4,2.62l1.16-.08c2.33-.19,4.34-.42,6.08-.71,6.57-1.09,9.48-3.08,12.26-7.4,3.51-5.48,4.4-7.18,4.4-7.18" />
      <path class="BUNTAI_WOLF_OUTFIT_WOLF_OUTFIT_37_cls-8" d="M138.65,311.91a32,32,0,0,1-9.31.3,20.51,20.51,0,0,1-4.89-1.51c-1.79-.74-3.72-1.68-5.72-2.71-8.43-4.28-18.31-9.93-25.52-7.74,0,0-5.88-15,1.36-17.23s15.75,4.89,25.71,5.08,15.06-2.23,15.06-2.23,6.22,13.78,11.2,17.93,5.43,4.67,5.43,4.67-1.72.63-4.35,1.4" />
      <path class="BUNTAI_WOLF_OUTFIT_WOLF_OUTFIT_37_cls-8" d="M159.41,344.53c1,4.85,1.9,10.1,2.57,15.72a4.21,4.21,0,0,1-4,4.46l-.48,0a4.36,4.36,0,0,1-4.49-3.64c-.61-5.28-1.44-10.22-2.41-14.78a135.49,135.49,0,0,0-11.9-34.4,63.48,63.48,0,0,0-3.31-5.75,3.82,3.82,0,0,1,1.45-5.6,4.86,4.86,0,0,1,6.24,1.29,69.09,69.09,0,0,1,4.59,8A141.79,141.79,0,0,1,159.41,344.53Z" />
      <path class="BUNTAI_WOLF_OUTFIT_WOLF_OUTFIT_37_cls-8" d="M97.86,288.7c5.55-2.94,14.94,5.68,20.94,11.15s15.85,6.28,15.85,6.28" />
      <line class="BUNTAI_WOLF_OUTFIT_WOLF_OUTFIT_37_cls-8" x1="118.96" y1="421.32" x2="123.03" y2="414.62" />
      <path class="BUNTAI_WOLF_OUTFIT_WOLF_OUTFIT_37_cls-8" d="M145.58,347.5s-5.48,30-6.54,36.53c-2.32,3.36-4.22,6.16-4.39,6.39h0l5.47,26.83v0l-5.47,7.77h0s14,41.14,16.31,46.82-6,5.43,1.41,13.87" />
      <path class="BUNTAI_WOLF_OUTFIT_WOLF_OUTFIT_37_cls-8" d="M223.26,433.9a442.78,442.78,0,0,1-88.61-8.85C124.58,423,119,421.32,119,421.32s5,39.34,19,63.13c4.75.48,9.57.91,14.39,1.3,35.73,2.87,70.89,3.29,70.89,3.29" />
      <path class="BUNTAI_WOLF_OUTFIT_WOLF_OUTFIT_37_cls-8" d="M111.72,388.89l.82,3.56,4.9,21.17s2,.38,5.59,1c3.92.67,9.77,1.62,17.09,2.64,20,2.82,50.85,6.23,83.14,6.23" />
      <path class="BUNTAI_WOLF_OUTFIT_WOLF_OUTFIT_37_cls-8" d="M223.26,390.78s-55.38.6-88.61-.36c-11-.3-19.59-.79-22.93-1.53,3.16-2.44,6.66-5.72,6.66-5.72" />
      <path class="BUNTAI_WOLF_OUTFIT_WOLF_OUTFIT_37_cls-8" d="M152,308.47a80.61,80.61,0,0,0,17.11,20.4" />
      <path class="BUNTAI_WOLF_OUTFIT_WOLF_OUTFIT_37_cls-8" d="M135.34,285.87s6.25-5.65,14.42.42,9.35,22.37,48.6,43" />
      <path class="BUNTAI_WOLF_OUTFIT_WOLF_OUTFIT_37_cls-8" d="M223.26,384.56H172.39c-12.33,0-23.7-.23-33.35-.53-8.33-.27-15.38-.58-20.66-.86-6.73-.35-10.59-.63-10.59-.63l.48-8.78c.17-3.23.4-7.64.72-13.66a229.32,229.32,0,0,1,36.59-12.6c1.81-.45,3.46-.84,5-1.19" />
      <path class="BUNTAI_WOLF_OUTFIT_WOLF_OUTFIT_37_cls-8" d="M159.41,344.53l.75-.11,8.92-15.55,29.28.44,24.9.37" />
      <path class="BUNTAI_WOLF_OUTFIT_WOLF_OUTFIT_37_cls-8" d="M223.26,334.42s29.74.71,45.48,0" />
      <path class="BUNTAI_WOLF_OUTFIT_WOLF_OUTFIT_37_cls-8" d="M369.69,416.63s-23.91,5.74-31.47,15l-.08.09" />
      <path class="BUNTAI_WOLF_OUTFIT_WOLF_OUTFIT_37_cls-8" d="M393.37,386.84a117,117,0,0,1,15.95,5.6,2.77,2.77,0,0,1,1.47,3.88,3.33,3.33,0,0,1-2.92,1.62,3.37,3.37,0,0,1-1.42-.31,114,114,0,0,0-14.86-5.22,2.87,2.87,0,0,1-2.22-3.58A3.3,3.3,0,0,1,393.37,386.84Z" />
      <path class="BUNTAI_WOLF_OUTFIT_WOLF_OUTFIT_37_cls-8" d="M369.24,342.2c7.64.47,16.1,3.78,16.17,3.82a2.8,2.8,0,0,1,1.49,3.91,3.28,3.28,0,0,1-2.89,1.61,3.42,3.42,0,0,1-1.42-.3c-.07,0-7.58-2.88-13.8-3.25a3,3,0,0,1-3-3.08A3.16,3.16,0,0,1,369.24,342.2Z" />
      <path class="BUNTAI_WOLF_OUTFIT_WOLF_OUTFIT_37_cls-8" d="M350.9,317c4.33-1.09,12-1,12.82-1a2.92,2.92,0,1,1-.12,5.8c-2.07,0-8.05,0-10.92.77a3.47,3.47,0,0,1-.9.11,3.2,3.2,0,0,1-3.11-2.11A2.87,2.87,0,0,1,350.9,317Z" />
      <path class="BUNTAI_WOLF_OUTFIT_WOLF_OUTFIT_37_cls-8" d="M354.74,351a37.35,37.35,0,0,1-16.46,22.72h0" />
      <path class="BUNTAI_WOLF_OUTFIT_WOLF_OUTFIT_37_cls-8" d="M361.09,367.26s-2.73,9.83-15,18.59a61,61,0,0,1-12.05,6.6" />
      <path class="BUNTAI_WOLF_OUTFIT_WOLF_OUTFIT_37_cls-8" d="M417.63,431.81a46.93,46.93,0,0,1-32.39,14.65c-21,1-33.21-.92-33.21-.92" />
      <path class="BUNTAI_WOLF_OUTFIT_WOLF_OUTFIT_37_cls-8" d="M407.89,410.45s-14.8,13.58-31.26,20.06c-15.88,6.28-37,1.57-38.41,1.24l-.08,0" />
      <path class="BUNTAI_WOLF_OUTFIT_WOLF_OUTFIT_37_cls-8" d="M341.53,441s-3.24-5-3.39-5.43c0-.12.06-1.54.08-3.77a.21.21,0,0,0,0-.11c0-5.05-.37-14.1-4-21.53" />
      <path class="BUNTAI_WOLF_OUTFIT_WOLF_OUTFIT_37_cls-8" d="M351.43,392S340,405.65,334.21,410.11c0,0,9-14,12-24.07" />
      <path class="BUNTAI_WOLF_OUTFIT_WOLF_OUTFIT_37_cls-8" d="M407.89,410.45s3.51,7.8,5.66,10.13l2.15,2.33a7.49,7.49,0,0,0,1,7.81c.32.4.63.76.92,1.09a17.1,17.1,0,0,0,4.07,3.68s1.13,8.11,2.94,12.05a19.2,19.2,0,0,0,4.64,6.29s1.93,7.1,2.15,8.73a53.72,53.72,0,0,0,2.27,6.68l2.72,14.4H347.2a9.3,9.3,0,0,1-3.4-7.91,97,97,0,0,1,1.81-11l-2.37-4.6s-1.36-7.69-1.71-13.08,0-6.09,0-6.09,4.4,2.18,10.5,4.59c5.88,2.32,13.4,4.86,20.08,5.85,13.58,2,26,12.69,25.14,12.88s-16.77-2.83-16.77-2.83" />
      <path class="BUNTAI_WOLF_OUTFIT_WOLF_OUTFIT_37_cls-8" d="M361.09,352.05s-.91,4.4,7.39,13.73,11.21,24.19,14.94,27.63,39.31,14.5,39.31,14.5l-2.44,4.52,0,.05" />
      <path class="BUNTAI_WOLF_OUTFIT_WOLF_OUTFIT_37_cls-8" d="M361.09,352.05h0c-.15-.34-2.87-6.67-8.31-10.1s-10.86-10.56-8-15.93" />
      <path class="BUNTAI_WOLF_OUTFIT_WOLF_OUTFIT_37_cls-8" d="M327.8,308s6.4,13.46,18.18,18.08" />
      <path class="BUNTAI_WOLF_OUTFIT_WOLF_OUTFIT_37_cls-8" d="M420.31,412.43h0a50.52,50.52,0,0,1-12.4-2,60.14,60.14,0,0,1-11.89-5,75.41,75.41,0,0,0-19.92-7.6s-3.18-11.66-7.93-19.77c-2-3.35-4.69-7.11-7-10.85-3.36-5.31-6-10.57-4.5-14.49" />
      <path class="BUNTAI_WOLF_OUTFIT_WOLF_OUTFIT_37_cls-8" d="M400.42,362.4s15.08,26.93,22.33,45.51" />
      <path class="BUNTAI_WOLF_OUTFIT_WOLF_OUTFIT_37_cls-8" d="M375.39,323.47s7.14,2.43,15.74,16.42,13.24,20.07,9.29,22.51c-8.16-4.16-24.68-11.36-33.18-10.85-2.62.15-4.63.33-6.15.49a26.08,26.08,0,0,0-4.49.73L354.75,351h0a148.08,148.08,0,0,0-11.83-9.93,12.73,12.73,0,0,1-4.16-15.81h0" />
      <path class="BUNTAI_WOLF_OUTFIT_WOLF_OUTFIT_37_cls-8" d="M353.31,300.25s16.08,14.29,22.08,23.22c-9.94-1.47-18.84,3.11-29.41,2.62l-1.16-.08c-2.33-.19-4.34-.42-6.07-.71-6.58-1.09-9.5-3.08-12.27-7.4-3.51-5.48-4.39-7.18-4.39-7.18" />
      <path class="BUNTAI_WOLF_OUTFIT_WOLF_OUTFIT_37_cls-8" d="M298.92,309.87h0c-2.61-.77-4.34-1.4-4.34-1.4S295,308,300,303.8s11.21-17.93,11.21-17.93,5.09,2.42,15.06,2.23,18.45-7.3,25.7-5.08,1.36,17.23,1.36,17.23h0c-7.2-2.18-17.09,3.46-25.51,7.75-2,1-3.93,2-5.71,2.7a20.51,20.51,0,0,1-4.89,1.51,32.07,32.07,0,0,1-9.32-.3" />
      <path class="BUNTAI_WOLF_OUTFIT_WOLF_OUTFIT_37_cls-8" d="M287.11,344.53c-1,4.85-1.9,10.1-2.55,15.72a4.19,4.19,0,0,0,4,4.46l.47,0a4.39,4.39,0,0,0,4.51-3.64c.61-5.28,1.44-10.22,2.4-14.78a136,136,0,0,1,11.89-34.4,55.24,55.24,0,0,1,3.33-5.75,3.83,3.83,0,0,0-1.45-5.6,4.87,4.87,0,0,0-6.25,1.29,73.69,73.69,0,0,0-4.6,8A143.54,143.54,0,0,0,287.11,344.53Z" />
      <path class="BUNTAI_WOLF_OUTFIT_WOLF_OUTFIT_37_cls-8" d="M348.67,288.7c-5.54-2.94-14.94,5.68-20.95,11.15s-15.85,6.28-15.85,6.28" />
      <line class="BUNTAI_WOLF_OUTFIT_WOLF_OUTFIT_37_cls-8" x1="327.58" y1="421.32" x2="323.5" y2="414.62" />
      <path class="BUNTAI_WOLF_OUTFIT_WOLF_OUTFIT_37_cls-8" d="M301,347.5s5.48,30,6.55,36.53c2.31,3.36,4.22,6.16,4.39,6.39h0l-5.47,26.83v0l5.47,7.77h0s-14.05,41.14-16.32,46.82,6,5.43-1.41,13.87" />
      <path class="BUNTAI_WOLF_OUTFIT_WOLF_OUTFIT_37_cls-8" d="M223.26,433.9a442.84,442.84,0,0,0,88.63-8.85c10.07-2.09,15.69-3.73,15.69-3.73s-5,39.34-19,63.13c-4.76.48-9.58.91-14.4,1.3-35.73,2.87-70.9,3.29-70.9,3.29" />
      <path class="BUNTAI_WOLF_OUTFIT_WOLF_OUTFIT_37_cls-8" d="M334.82,388.89l-.83,3.56-4.91,21.17s-2,.38-5.58,1c-3.93.67-9.77,1.62-17.08,2.64-20,2.82-50.86,6.23-83.16,6.23" />
      <path class="BUNTAI_WOLF_OUTFIT_WOLF_OUTFIT_37_cls-8" d="M223.26,390.78s55.38.6,88.63-.36c11-.3,19.59-.79,22.93-1.53-3.17-2.44-6.66-5.72-6.66-5.72" />
      <path class="BUNTAI_WOLF_OUTFIT_WOLF_OUTFIT_37_cls-8" d="M294.55,308.47a80.25,80.25,0,0,1-17.09,20.4" />
      <path class="BUNTAI_WOLF_OUTFIT_WOLF_OUTFIT_37_cls-8" d="M311.2,285.87s-6.27-5.65-14.42.42-9.37,22.37-48.6,43" />
      <path class="BUNTAI_WOLF_OUTFIT_WOLF_OUTFIT_37_cls-8" d="M296,346.31c1.5.35,3.16.74,5,1.19a229,229,0,0,1,36.59,12.6c.33,6,.57,10.43.74,13.66l.47,8.78s-3.86.28-10.59.63c-5.28.28-12.33.59-20.66.86-9.66.3-21,.53-33.36.53H223.27" />
      <path class="BUNTAI_WOLF_OUTFIT_WOLF_OUTFIT_37_cls-8" d="M223.27,329.68l24.91-.37,29.28-.44,8.92,15.55.73.11h0" />
      <g class="BUNTAI_WOLF_OUTFIT_WOLF_OUTFIT_37_cls-9">
        <path d="M324.26,413.76s3.47,2.73,4.83,11.77A180.47,180.47,0,0,1,330.9,445c0,1.49-5.54,23.92-5.54,23.92s9-18.64,8.1-30.13a153.81,153.81,0,0,0-2-16.67l-1.21-4.84s3.73-3.46,5.42-4.83a9,9,0,0,0,2.43-3.67l.61-11.63s-6,8.57-6,9.83-1.21,7.66-1.21,7.66l-2.15-2.14Z" />
        <path d="M304.66,318.67c12.39,5.81,20.41,7.42,20.41,7.42s7.66,17,11.82,20.78,11.78,12.48,11.78,12.48v3s6.39-9.22,6.07-9.63a19.43,19.43,0,0,1-1.13-2.75s-19.48-7.79-15.34-24.72c-6.09-1.93-14.09-7.61-16.18-15-6.18,2.54-14.58,2.32-14.58,2.32Z" />
        <path d="M338.75,433.09s23.55,3,36.83,1.48,26.27-9.52,26.27-9.52-7.85,10.33-29.74,13.31c22.64-.81,37.59-6.55,37.59-6.55s-3.5,8.17-21.45,10.33S362.68,444,361.06,444s-10.78.81-10.78.81,14.13,4.55,23.94,6.94,14,5.94,14,5.94-22.18-3.47-30.63-4.18-12.38-1.13-12.38-1.13h-2.42l-1.44-9.05-2.63-5.54Z" />
        <path d="M339.73,430s2.34-3.9,17.13-7.93,29.89-6.67,29-4.13-25.39,7.08-33.3,10.62-8.54,5.16-8.54,5.16l-4.07-1.64Z" />
        <path d="M334.82,409.62s14.47-14.7,19.92-19.2,7.1,2,7.1,2l-20.31,21.17s23.48-12.08,24.84-12.39,5.74,5.73,5.74,5.73-17.44,2.88-24.57,6.66-8.79,8.48-8.79,8.48Z" />
        <path d="M223.27,329.68v4.74s-2.79,45.89-3.92,49.61L213,390.86l1.57,32.55-7.16,10.34,6.26,41H162.51s50.05,4,54.35,4.66,7.25,5.84,0,6.37-4.31,3.29-4.31,3.29L138,484.45s-14.79-27-19-38.93-4-16.93-4-16.93l-3.24-15.1,4.62-4.63s-7.23-14.45-8.55-18.6c4.43.79-10.3-10.43-16-21.07,6.64,5.67,11.92,10.13,11.92,10.13l1.43.53-4.83-6.09s-3.83-5.69-3.08-5.18,9.91,7.7,9.91,7.7L109,376l0-15.88,40.4-13.52,1.16-2.05s-4.26-17.54-9.17-27-7.74-14.17-7.63-14.48a42.53,42.53,0,0,1,3.73-2.84s7.56,11,13.07,30.65,7,31.9,9,32.41,2.44-4.91.11-17.61c8.76-15.64,10.35-16.83,10.35-16.83Z" />
        <path d="M134.22,350.68s-7.58-.42-11.19-3.81-6-16-6-16,6.19,8.2,14.19,11.33,15.1,5.27,15.1,5.27Z" />
        <path d="M107.79,286.16s8.87,6.76,16.66,8.52a86.85,86.85,0,0,1-6.07-7.57Z" />
        <path d="M40.23,412.48l2.83,4.15s-5.17,14.88-6.9,17.54l-1.74,2.66-4.83-4.64a7,7,0,0,0,1.06-3.6c.15-2.4,0-4.34.36-5.28a17.74,17.74,0,0,1,2.4-3.23l5.24-7.6Z" />
        <path d="M55.14,403.17l-2.81-4.87s-4.41-2.71-4.67-3.63-1.83.2,1.15-6.58,10.93-26.51,17.52-34.15c5-4.93,4.82-5.47,4.82-5.47s.56-4.86,4.33-7,13.73-16.36,13.73-16.36L90.35,322s-2.33-4.46,1.44-5.69,10.57-12.26,16-13.71c-8.16-3.34,10.28,5.93,15.91,7.76s13.61,3.62,14.77,1.19c-1.25-5.13-3.13-5.41-3.13-5.41s-6.27,1.41-12.69-3.62S104.2,286.27,98.82,288.6a12.06,12.06,0,0,0-6.73,7l.65,5.08S81.19,312.5,76.85,317a72.38,72.38,0,0,1-6.39,6.14A109,109,0,0,0,53.93,340.8a41.92,41.92,0,0,0-8.2,22.28L31.46,390.61l-7.15,17.47,1.58,4.35,2,1.06s10.49-2.57,15.85-4.06S55.14,403.17,55.14,403.17Z" />
        <path d="M102.91,432.74c-1,.14-17.2,4.43-28.5,1.66s-23.53-11.49-23.53-11.49a36.86,36.86,0,0,0,19.81,16.36c-19.25-3.89-27.63-7.54-27.63-7.54s10.17,13,33.79,15.31c12.52-.3,16.93-1.15,19.86-2.39s9.64-2.64,9.3-3.7,2.38-5.43,2.38-5.43l-1.7-3.33Z" />
        <path d="M111.72,409.63S99.93,395.54,95.1,389.87s-8.79-7.74-8.79-4,3,5,11.1,14.15,12.34,10.11,12.34,10.11-18.46-6.77-22.87-9.6,2.36,4.06,10.35,8.52a96.1,96.1,0,0,0,13.08,6.27l-6.6,11.77s-24.19-10.64-32.23-11.86-8.83.51-8.83.51,18,4.11,26.95,8.54,12.31,5.95,12.31,5.95l6.39,2L110.65,418s1.83-5.9,1.88-6.1.5-1.76.5-1.76Z" />
      </g>
    </g>
  </g>
</svg>