<svg xmlns="http://www.w3.org/2000/svg" viewBox="0 0 432 432">
  <defs>
    <style>.BUNTAI_WOLF_OUTFIT_WOLF_OUTFIT_6_cls-1{isolation:isolate;}.BUNTAI_WOLF_OUTFIT_WOLF_OUTFIT_6_cls-2{fill:#fff;}.BUNTAI_WOLF_OUTFIT_WOLF_OUTFIT_6_cls-3{fill:#ffe7c0;}.BUNTAI_WOLF_OUTFIT_WOLF_OUTFIT_6_cls-4{fill:#98704c;}.BUNTAI_WOLF_OUTFIT_WOLF_OUTFIT_6_cls-5{fill:#a42327;}.BUNTAI_WOLF_OUTFIT_WOLF_OUTFIT_6_cls-6,.BUNTAI_WOLF_OUTFIT_WOLF_OUTFIT_6_cls-8{fill:none;stroke:#000;stroke-linecap:round;stroke-linejoin:round;}.BUNTAI_WOLF_OUTFIT_WOLF_OUTFIT_6_cls-6{stroke-width:1.85px;}.BUNTAI_WOLF_OUTFIT_WOLF_OUTFIT_6_cls-7{opacity:0.43;mix-blend-mode:multiply;}.BUNTAI_WOLF_OUTFIT_WOLF_OUTFIT_6_cls-8{stroke-width:2.09px;}</style>
  </defs>
  <g class="BUNTAI_WOLF_OUTFIT_WOLF_OUTFIT_6_cls-1">
    <g id="outfit">
      <path class="BUNTAI_WOLF_OUTFIT_WOLF_OUTFIT_6_cls-2" d="M271.05,382.82a1.09,1.09,0,0,0,0-.18,2.2,2.2,0,0,0,0-.36,2.48,2.48,0,0,0,0-.27,2,2,0,0,0-.07-.35,1.14,1.14,0,0,0-.09-.3.1.1,0,0,0,0-.07,3.27,3.27,0,0,0-.17-.53c0-.1-.09-.2-.14-.3a1.26,1.26,0,0,0-.13-.26.05.05,0,0,0,0-.05.65.65,0,0,0-.08-.17l-.05-.08a.24.24,0,0,0-.06-.09c-.09-.12-.16-.24-.25-.35l-.06-.06-.06-.08a3,3,0,0,0-.25-.29,1.34,1.34,0,0,0-.21-.2,2,2,0,0,0-.27-.22,4.47,4.47,0,0,0-.35-.29l-.44-.28a.13.13,0,0,0-.07-.05l-.35-.18a1.57,1.57,0,0,0-.29-.14l-.12-.05a1.36,1.36,0,0,0-.23-.09l0,0a1.57,1.57,0,0,0-.28-.1s0,0,0,0a.52.52,0,0,1-.13-.06h-.06l-.17,0h0a3.7,3.7,0,0,0-.55-.14l-.45-.09a6.32,6.32,0,0,0-.76-.11l-.69-.06h-.48a32.43,32.43,0,0,0-10,1.76c1.35-2.63,2.18-5.59.86-7.81-.8-1.33-2.63-2.91-6.9-2.91s-6.09,1.58-6.88,2.91c-1.79,3,.32,7.31,2.34,10.35H200.73c2-3,4.11-7.37,2.32-10.35-.8-1.33-2.63-2.91-6.88-2.91s-6.09,1.58-6.9,2.91c-1.32,2.22-.49,5.18.86,7.81a33.78,33.78,0,0,0-9.59-1.77l-.81,0-.39,0-.4,0-.42.05-.5.08-.13,0a7.9,7.9,0,0,0-.87.22l-.4.14-.4.16-.38.18-.2.11-.12.06-.1.06-.23.15-.32.22-.22.17a.57.57,0,0,0-.15.12c-.11.1-.23.21-.34.33a.92.92,0,0,0-.14.14l0,0-.15.2a.9.9,0,0,0-.15.19c-.05.07-.09.14-.15.21a4.83,4.83,0,0,0-.26.45l-.24.49c-.05.14-.1.28-.14.42s0,.09,0,.14,0,0,0,0a1.33,1.33,0,0,0-.1.34v0a1.16,1.16,0,0,0,0,.18,2.74,2.74,0,0,0-.05.28s0,.06,0,.09,0,.25,0,.38,0,.41,0,.63a5.76,5.76,0,0,0,3.26,5.48,10.49,10.49,0,0,0,4.71.94,33.37,33.37,0,0,0,9.58-1.77c-1.35,2.63-2.18,5.6-.86,7.81.81,1.33,2.64,2.92,6.9,2.92s6.08-1.59,6.88-2.92c1.78-3-.32-7.28-2.32-10.33h42.2c-2,3.05-4.1,7.35-2.33,10.33.79,1.33,2.63,2.92,6.88,2.92s6.1-1.59,6.9-2.92c1.32-2.21.49-5.18-.86-7.81a33.3,33.3,0,0,0,9.57,1.77,10.51,10.51,0,0,0,4.72-.94,5.77,5.77,0,0,0,3.27-5.48A2.27,2.27,0,0,0,271.05,382.82Zm-77.32-10.09a.3.3,0,0,1,.11-.12,1.43,1.43,0,0,1,.41-.23,4.83,4.83,0,0,1,1.34-.22h1.16a4.89,4.89,0,0,1,1.33.22,1.24,1.24,0,0,1,.4.23.51.51,0,0,1,.13.12c.64,1.08-.61,3.93-2.44,6.66C194.33,376.66,193.09,373.81,193.73,372.73Zm-5.36,11.2-1.33.4h0c-.43.13-.86.24-1.3.36l-1.28.3-1.22.24a19.5,19.5,0,0,1-2.1.25l-.63,0a4.86,4.86,0,0,1-2.11-.38c-.22-.12-.83-.42-.83-1.85a2.44,2.44,0,0,1,.34-1.4,1.25,1.25,0,0,1,.12-.17,1.2,1.2,0,0,1,.37-.26,2.17,2.17,0,0,1,.42-.17,2.46,2.46,0,0,1,.39-.09,2.63,2.63,0,0,1,.39-.06l.43,0h.48c2.56,0,6.36,1,9.83,2.21C189.69,383.51,189,383.73,188.37,383.93Zm10.24,9.88a.85.85,0,0,1-.3.25,1.55,1.55,0,0,1-.53.19l-.32.07a7,7,0,0,1-1.29.1,6.9,6.9,0,0,1-1.29-.1,1.81,1.81,0,0,1-.35-.07,1.88,1.88,0,0,1-.51-.19l-.17-.11a.29.29,0,0,1-.12-.13c-.64-1.07.61-3.93,2.44-6.65C198,389.89,199.25,392.74,198.61,393.81Zm51.32,0a.76.76,0,0,1-.3.24,2,2,0,0,1-.52.19,1.86,1.86,0,0,1-.34.07,8.31,8.31,0,0,1-2.57,0,1.7,1.7,0,0,1-.34-.07l-.3-.09a.88.88,0,0,1-.22-.1.89.89,0,0,1-.31-.25c-.62-1.07.62-3.92,2.45-6.64C249.31,389.89,250.56,392.75,249.93,393.82Zm-2.45-14.43c-1.83-2.73-3.07-5.58-2.45-6.66a.51.51,0,0,1,.13-.12,1.36,1.36,0,0,1,.4-.23,5.05,5.05,0,0,1,1.35-.22h1.15a4.9,4.9,0,0,1,1.34.22,1.36,1.36,0,0,1,.4.23.38.38,0,0,1,.13.12C250.56,373.81,249.31,376.66,247.48,379.39Zm17.77,5.72a4.73,4.73,0,0,1-2.12.38l-.75,0h-.2l-.2,0-.42,0-.71-.1-1-.18c-.34-.06-.69-.14-1.06-.22-.7-.16-1.43-.35-2.17-.56l-1.34-.4c-.43-.13-.87-.27-1.31-.43l-.63-.22a33.82,33.82,0,0,1,9.82-2.21h.47l.43,0a2.25,2.25,0,0,1,.4.06,2.34,2.34,0,0,1,.38.09,1.76,1.76,0,0,1,.42.17,1,1,0,0,1,.37.26.47.47,0,0,1,.11.13.19.19,0,0,1,0,.09,1.19,1.19,0,0,1,.09.15.87.87,0,0,1,.07.17,3.41,3.41,0,0,1,.15,1C266.09,384.7,265.48,385,265.25,385.11Z" />
      <path class="BUNTAI_WOLF_OUTFIT_WOLF_OUTFIT_6_cls-3" d="M422.3,433.92s-.94-1.87-1.52-3-3.25-10.16-5.11-16.46-6-9.48-12.78-18.16A128.52,128.52,0,0,0,389.7,381.8l2.44-4.74a22.76,22.76,0,0,1,.52-3.17c.52-2.59,5.84-7.33,4.71-7.61s-5.31.94-5.31.94-4.8-1.84-9.25-.37-2.48,5-5.88,4.61-4.84-2.75-8-.24-5.93-.44-9.85-1.11-4.79,2.07-10.28,2.95c-3.52.55-8.67-1-11.92-2.12A68,68,0,0,1,342,383c.09.3.17.61.25.91a41,41,0,0,1-6.45,33.95,39.27,39.27,0,0,1-2.54,3.27A55.14,55.14,0,0,1,309.47,437H425.2Z" />
      <path class="BUNTAI_WOLF_OUTFIT_WOLF_OUTFIT_6_cls-3" d="M107.87,417.83a41,41,0,0,1-6.45-33.93v0c.08-.3.16-.61.25-.91a68,68,0,0,1,5.07-12c-3.25,1.16-8.4,2.67-11.92,2.12-5.49-.88-6.37-3.62-10.29-2.95s-6.71,3.62-9.84,1.11-7.58-.19-11,.24-2.45-3.13-6.88-4.61-9.25.37-9.25.37-4.18-1.22-5.32-.94,4.19,5,4.71,7.61a22.36,22.36,0,0,1,.53,3.17l2.43,4.74a127.94,127.94,0,0,0-13.18,14.54C30,405,25.84,408.2,24,414.5S19.44,429.87,18.86,431s-1.51,3-1.51,3L14.45,437H134.18C123.31,433.18,113.9,426.39,107.87,417.83Z" />
      <path class="BUNTAI_WOLF_OUTFIT_WOLF_OUTFIT_6_cls-4" d="M229.85,398.81a55.28,55.28,0,0,1,1-13.41H224c-3.89,19.82-2,41.05,18.85,54a127.61,127.61,0,0,0,28.26,3.87l-17-7.28C241.18,431.65,231.08,416.85,229.85,398.81Z" />
      <path class="BUNTAI_WOLF_OUTFIT_WOLF_OUTFIT_6_cls-4" d="M212.84,385.4a55.26,55.26,0,0,1,.95,13.41c-1.22,18-11.32,32.84-24.23,37.13l-17,5.46a220.1,220.1,0,0,0,28.23-2c20.87-12.9,22.75-34.13,18.85-54Z" />
      <path class="BUNTAI_WOLF_OUTFIT_WOLF_OUTFIT_6_cls-4" d="M109.7,364h0l-.41-.25h0l-.09-.06a.19.19,0,0,0-.09,0A65.37,65.37,0,0,1,91.5,348.1c-.55-.71-1.07-1.43-1.57-2.16a42.27,42.27,0,0,1-5.23-10.48s0-.09,0-.14A35.57,35.57,0,0,1,83,320.69l.17-.13a91.48,91.48,0,0,1,8-5.26c0,1.18.07,2.36.15,3.53,0,.52.07,1.05.13,1.57s.1,1,.16,1.56.11,1,.18,1.47a.69.69,0,0,0,0,.13c0,.37.09.74.16,1.11.17,1.19.39,2.37.64,3.55.08.41.17.82.26,1.24,0,.14.07.29.1.44.1.45.21.91.33,1.36s.25,1,.39,1.48.35,1.27.54,1.9c.09.32.19.65.3,1s.24.77.37,1.15.33,1,.5,1.46.33.89.49,1.33l.45,1.16c.15.37.29.75.46,1.12s.41,1,.63,1.48.43,1,.66,1.46a80.16,80.16,0,0,0,3.77,7.16c.56.94,1.14,1.86,1.73,2.78q1.4,2.15,2.94,4.21c.6.83,1.24,1.65,1.9,2.46h0c.43.53.86,1.05,1.31,1.58h0v0C109.67,363.34,109.68,363.69,109.7,364Z" />
      <path class="BUNTAI_WOLF_OUTFIT_WOLF_OUTFIT_6_cls-4" d="M360.86,324.43a39.23,39.23,0,0,1-7.13,21.51C348.84,353.11,341.9,359.18,334,364h0c0-.33,0-.68,0-1l0,0h0c.68-.8,1.34-1.6,2-2.42l.94-1.23c.72-.94,1.39-1.89,2.07-2.86.46-.67.9-1.34,1.33-2,.33-.49.64-1,.94-1.48l.75-1.24a.55.55,0,0,1,.09-.14c.21-.38.43-.76.66-1.15a.54.54,0,0,1,.1-.18c.23-.41.45-.83.67-1.25s.48-.89.71-1.34c.47-.89.92-1.8,1.33-2.71.65-1.37,1.24-2.75,1.8-4.14q1.26-3.17,2.22-6.4c.1-.31.19-.63.28-1,.29-1,.57-2.08.81-3.13.11-.48.22-.95.31-1.43.08-.33.16-.67.22-1s.18-.89.26-1.34.14-.78.2-1.17q.36-2.17.57-4.35c0-.34.06-.68.1-1l.06-.75C355.63,321.29,358.52,323.06,360.86,324.43Z" />
      <path class="BUNTAI_WOLF_OUTFIT_WOLF_OUTFIT_6_cls-4" d="M312.89,293.6c-.73.35-1.49.68-2.23,1A256.85,256.85,0,0,1,261,310.67c-9.69,2.09-19.54,4.2-29.48,4.66a36.35,36.35,0,0,1,6.26,4.51l.68.62.42.39.27.27a29.62,29.62,0,0,1,3.06,3.53c.11.15.21.29.3.44a21.22,21.22,0,0,1,1.47,2.39c.08.13.14.25.21.38s.15.31.22.48.07.15.11.24c.13.28.25.56.37.85l.06.15c.05.16.12.33.18.5s.15.46.23.7a3.37,3.37,0,0,1,.1.34c.08.32.17.64.25,1a16.52,16.52,0,0,1-.54,8.89c-3.66,10.84-10.27,25.93-13.51,40.2h-6.8c3.18-13.48,8.66-26,12.12-34.27.1-.23.19-.47.27-.7.19-.47.36-.93.5-1.38s.31-.91.43-1.35c.2-.66.35-1.31.49-2,.08-.43.17-.84.23-1.26,0-.21.06-.42.08-.62.06-.41.11-.82.14-1.22s0-.61.05-.91c0-.54,0-1.08,0-1.6l0-.58c0-.53-.09-1.06-.17-1.57,0-.25-.06-.5-.1-.74s-.1-.49-.15-.73a15.28,15.28,0,0,0-.42-1.68c-.08-.28-.17-.54-.27-.81a6.26,6.26,0,0,0-.21-.61c-.08-.23-.18-.46-.27-.69s-.14-.34-.22-.5-.17-.38-.26-.56-.18-.36-.27-.54-.2-.38-.31-.57-.22-.39-.32-.58-.33-.55-.5-.81-.52-.79-.79-1.16-.55-.73-.83-1.08-.35-.42-.53-.62-.21-.26-.32-.38-.44-.47-.64-.69-.15-.16-.23-.24l-.42-.42c-.54-.54-1.08-1-1.61-1.47l-.62-.52c-.61-.49-1.19-.92-1.71-1.29-.19-.13-.35-.25-.52-.35l-.46-.31-.37-.23-.42-.26a2.84,2.84,0,0,1-.31-.18l-.15-.08-.19-.11h0l-.13-.08-.09,0h0c-.81,0-1.64-.06-2.48-.11a8.68,8.68,0,0,1-1-.1h0a8.14,8.14,0,0,1-1,.1c-.85,0-1.67.1-2.5.11,0,0-20.5,10.26-11.68,31.5,3.45,8.31,8.94,20.79,12.12,34.27H212c-3.25-14.27-9.87-29.36-13.52-40.2a16.77,16.77,0,0,1-.83-7.14l.15-1.1c.05-.19.08-.37.12-.55.08-.35.16-.71.27-1.06a3.37,3.37,0,0,1,.1-.34c.07-.23.15-.47.23-.7,0,0,0-.07,0-.1.19-.48.38-.94.58-1.4.11-.25.23-.49.34-.72l.24-.46.27-.48a18.91,18.91,0,0,1,1.16-1.83c.1-.15.19-.29.31-.44l.31-.42.32-.42.1-.12.64-.78c.56-.63,1.12-1.23,1.69-1.79.23-.23.45-.45.68-.66l.68-.62a32.83,32.83,0,0,1,2.59-2.1c.12-.1.25-.19.36-.27,1.21-.88,2.21-1.5,2.77-1.84l.15-.08.39-.22c-9.94-.47-19.79-2.57-29.46-4.66a257.54,257.54,0,0,1-33.22-9.5l-.08,0c-5.5-2-10.94-4.15-16.36-6.53l-.48-.21c-.45-.19-.88-.39-1.31-.6l1.18-.61,7.27-3.79,3-1.54h0a194.2,194.2,0,0,0,75.59,22l.6,0a12.3,12.3,0,0,0,1.34-.11h0c.51-.05,1-.12,1.52-.14h.21c.5,0,1,.09,1.53.14h0l.73.08h0a7.63,7.63,0,0,0,1.17,0l2.54-.22c3.68-.35,7.33-.8,11-1.35,1.74-.25,3.48-.54,5.21-.85l.14,0,2.67-.49,2.66-.53q2.65-.56,5.28-1.17c1.51-.35,3-.72,4.5-1.12.79-.2,1.57-.41,2.33-.62s1.42-.39,2.12-.59c1.48-.42,2.94-.86,4.4-1.32s2.93-.92,4.38-1.41c.84-.28,1.66-.57,2.51-.87l1-.35a184.48,184.48,0,0,0,25.38-11.32l1.14-.62.14-.09h0S306.84,289.59,312.89,293.6Z" />
      <path class="BUNTAI_WOLF_OUTFIT_WOLF_OUTFIT_6_cls-5" d="M198.61,372.73c-.23-.37-1.14-.59-2.44-.59s-2.23.22-2.45.59c-.64,1.08.6,3.93,2.45,6.66C198,376.66,199.25,373.81,198.61,372.73Z" />
      <path class="BUNTAI_WOLF_OUTFIT_WOLF_OUTFIT_6_cls-5" d="M178.38,381.44c-.22.12-.82.42-.82,1.83s.6,1.73.82,1.85c2.05,1,7.31-.2,12-1.85-3.46-1.22-7.27-2.21-9.83-2.21A4.78,4.78,0,0,0,178.38,381.44Z" />
      <path class="BUNTAI_WOLF_OUTFIT_WOLF_OUTFIT_6_cls-5" d="M193.72,393.82c.22.36,1.14.59,2.45.59s2.21-.23,2.44-.6c.64-1.07-.61-3.92-2.44-6.64C194.33,389.89,193.08,392.75,193.72,393.82Z" />
      <path class="BUNTAI_WOLF_OUTFIT_WOLF_OUTFIT_6_cls-5" d="M245,393.81c.23.37,1.14.6,2.44.6s2.22-.23,2.45-.59c.63-1.07-.61-3.93-2.45-6.65C245.65,389.89,244.4,392.74,245,393.81Z" />
      <path class="BUNTAI_WOLF_OUTFIT_WOLF_OUTFIT_6_cls-5" d="M249.93,372.73c-.23-.37-1.14-.59-2.45-.59s-2.21.22-2.44.59c-.64,1.08.61,3.93,2.44,6.66C249.32,376.66,250.56,373.81,249.93,372.73Z" />
      <path class="BUNTAI_WOLF_OUTFIT_WOLF_OUTFIT_6_cls-5" d="M265.26,385.11c.23-.11.82-.41.82-1.84s-.59-1.71-.82-1.83a4.73,4.73,0,0,0-2.12-.38c-2.56,0-6.37,1-9.83,2.21C258,384.92,263.22,386.15,265.26,385.11Z" />
      <path class="BUNTAI_WOLF_OUTFIT_WOLF_OUTFIT_6_cls-5" d="M213.78,398.81c0,.42-.05.84-.09,1.26s-.06.6-.1.9a5,5,0,0,1-.07.56c0,.29-.06.59-.1.88-.17,1.3-.4,2.57-.67,3.82-.1.54-.23,1.09-.36,1.62s-.26,1-.41,1.53c-.09.34-.19.68-.29,1s-.22.73-.34,1.09c-.07.21-.13.42-.21.62-.12.38-.26.76-.41,1.13s-.32.89-.5,1.32-.39.95-.6,1.42-.41.92-.65,1.38-.44.91-.68,1.35-.38.75-.59,1.12-.56,1-.86,1.47-.52.83-.8,1.24-.5.74-.76,1.11-.59.84-.91,1.24-.59.75-.88,1.11-.61.72-.92,1.07-.63.69-1,1-.43.46-.66.67l-.54.52q-.37.38-.78.72c-.67.6-1.38,1.17-2.09,1.7-.41.32-.84.62-1.28.9-.23.17-.47.32-.7.46a26.23,26.23,0,0,1-6,2.89l-17,5.46c-4.16.05-8.58,0-13.08-.28l-1.79-.11c-1-.06-1.95-.14-2.92-.22h-.1l-.68-.06c-1-.09-1.93-.18-2.89-.29-.68-.07-1.37-.15-2-.24l-1.32-.17-1.66-.23-.92-.14c-.31,0-.61-.1-.93-.15l-.21,0-1.11-.19q-.91-.15-1.83-.33a63.53,63.53,0,0,1-6.94-2c-.57-.2-1.14-.41-1.7-.63-1.09-.41-2.19-.87-3.25-1.37-.33-.13-.67-.29-1-.45l-.12-.06c-.48-.23-1-.46-1.43-.71l-.18-.09c-.55-.28-1.08-.57-1.62-.87a1.2,1.2,0,0,1-.2-.11l-.05,0a52,52,0,0,1-4.45-2.79,6.31,6.31,0,0,1-.57-.39l-.27-.2c-.39-.28-.79-.57-1.17-.87a1.15,1.15,0,0,1-.19-.14l-.27-.21-.35-.28-.55-.43-.43-.36-.27-.23c-.42-.36-.84-.71-1.23-1.09-.23-.19-.45-.4-.67-.61l0,0c-.38-.34-.73-.69-1.09-1s-.47-.47-.69-.71l-.11-.1c-.13-.14-.27-.28-.4-.43l0,0a1.41,1.41,0,0,1-.17-.18s0,0,0,0-.07,0-.07-.07h0c-.41-.44-.81-.88-1.19-1.34l-.14-.16c-.28-.34-.56-.68-.83-1-.15-.17-.27-.34-.41-.51a1.49,1.49,0,0,1-.15-.2c-.34-.43-.66-.88-1-1.32v0l0,0c-.11-.14-.2-.29-.29-.43s-.26-.37-.38-.56c-.36-.53-.69-1.06-1-1.59-.11-.17-.2-.33-.3-.5-.44-.75-.86-1.5-1.24-2.27a.47.47,0,0,0,0-.1c-.09-.17-.17-.35-.26-.53s-.31-.62-.44-.93-.38-.83-.54-1.25c-.1-.2-.18-.41-.26-.62-.26-.66-.51-1.32-.73-2,0-.09-.08-.19-.11-.28v0c-.15-.44-.29-.88-.42-1.33-.08-.28-.17-.57-.25-.86s-.16-.57-.22-.86-.19-.77-.27-1.16c-.16-.68-.3-1.35-.4-2s-.18-1.11-.24-1.66c-.14-1.11-.24-2.22-.28-3.33s0-2.16,0-3.24c0-.51,0-1,.08-1.54a.61.61,0,0,1,0-.14c0-.37.07-.73.12-1.11l.15-1.29a39.8,39.8,0,0,1,.88-4.29h0l.24-.91c.15-.52.3-1,.48-1.54.29-.88.61-1.76,1-2.62.11-.28.22-.55.34-.83,0-.1.07-.19.1-.28s0,0,0,0v0c0-.1.09-.19.13-.29.91-2.16,2-4.28,3-6.39,1-1.92,2-3.83,3-5.74h0c.17-.29.31-.57.47-.86s.15-.29.22-.43c-.26-.3-.52-.59-.76-.9v0h0c-.45-.53-.88-1.05-1.31-1.58h0c-.66-.81-1.3-1.63-1.9-2.46q-1.55-2.07-2.94-4.21c-.59-.92-1.17-1.84-1.73-2.78A80.16,80.16,0,0,1,98,344.77c-.23-.49-.46-1-.66-1.46s-.43-1-.63-1.48-.31-.75-.46-1.12l-.45-1.16c-.16-.44-.33-.88-.49-1.33s-.34-1-.5-1.46-.26-.76-.37-1.15-.21-.65-.3-1c-.19-.63-.37-1.26-.54-1.9s-.27-1-.39-1.48-.23-.91-.33-1.36c0-.15-.08-.3-.1-.44-.09-.42-.18-.83-.26-1.24-.25-1.18-.47-2.36-.64-3.55-.07-.37-.11-.74-.16-1.11a.69.69,0,0,1,0-.13c-.07-.49-.14-1-.18-1.47s-.12-1-.16-1.56-.09-1-.13-1.57c-.08-1.17-.13-2.35-.15-3.53,7.88-4.77,17.82-9.89,25.65-14l14-7.3.42-.22c.43.21.86.41,1.31.6l.48.21c5.42,2.38,10.86,4.55,16.36,6.53l.08,0a257.54,257.54,0,0,0,33.22,9.5c9.67,2.09,19.52,4.19,29.46,4.66l-.1.05-.06,0a34.4,34.4,0,0,0-3.82,2.55c-.32.23-.64.48-1,.74s-.89.73-1.33,1.13l-.68.62a31.49,31.49,0,0,0-3.11,3.35l-.32.42-.31.42c-.12.15-.21.29-.31.44a18.91,18.91,0,0,0-1.16,1.83l-.27.48-.24.47a18.61,18.61,0,0,0-1.17,2.91,3.37,3.37,0,0,0-.1.34,16.28,16.28,0,0,0,.29,9.85c3.65,10.84,10.27,25.93,13.52,40.2H200.73c2-3,4.11-7.37,2.32-10.35-.8-1.33-2.63-2.91-6.88-2.91s-6.09,1.58-6.9,2.91c-1.32,2.22-.49,5.18.86,7.81a33.78,33.78,0,0,0-9.59-1.77l-.81,0c-.26,0-.53,0-.79.07a5,5,0,0,0-.59.08,7.54,7.54,0,0,0-.9.18c-.28.08-.56.16-.83.26s-.53.22-.78.34l-.2.11a4.12,4.12,0,0,0-.45.27l-.32.22-.22.17-.15.12c-.11.1-.23.21-.34.33a6,6,0,0,0-.63.78,4.83,4.83,0,0,0-.26.45l-.24.49h0c-.06.18-.13.36-.18.55a2,2,0,0,0-.1.4,1.91,1.91,0,0,0-.07.36,1.35,1.35,0,0,0,0,.29,1.27,1.27,0,0,0,0,.28q0,.3,0,.63a5.76,5.76,0,0,0,3.26,5.48,10.49,10.49,0,0,0,4.71.94,33.37,33.37,0,0,0,9.58-1.77c-1.35,2.63-2.18,5.6-.86,7.81.81,1.33,2.64,2.92,6.9,2.92s6.08-1.59,6.88-2.92c1.78-3-.32-7.28-2.32-10.33h12.12c.08.46.15.91.23,1.36s.13.84.19,1.26c.09.6.17,1.19.23,1.78,0,.1,0,.2,0,.3v0a8.78,8.78,0,0,1,.1.88c0,.29.06.59.08.88A44.47,44.47,0,0,1,213.78,398.81Z" />
      <path class="BUNTAI_WOLF_OUTFIT_WOLF_OUTFIT_6_cls-5" d="M352.39,319.26l-.06.75c0,.34-.06.68-.1,1q-.21,2.18-.57,4.35c-.06.39-.14.78-.2,1.17s-.18.9-.26,1.34-.14.68-.22,1c-.09.48-.2,1-.31,1.43-.24,1.05-.52,2.09-.81,3.13-.09.32-.18.64-.28,1q-1,3.24-2.22,6.4c-.56,1.39-1.15,2.77-1.8,4.14-.41.91-.86,1.82-1.33,2.71-.23.45-.46.9-.71,1.34l-.67,1.25a.54.54,0,0,0-.1.18c-.23.38-.45.76-.66,1.15a.55.55,0,0,0-.09.14l-.75,1.24c-.3.5-.61,1-.94,1.48-.43.68-.88,1.35-1.33,2-.68,1-1.35,1.92-2.07,2.86l-.94,1.23c-.63.82-1.29,1.62-2,2.42h0v0c-.23.31-.48.6-.75.9l.23.43c.14.29.29.57.45.86h0c1,1.91,2,3.82,3,5.74A68.72,68.72,0,0,1,342,383l.25.91a41,41,0,0,1-6.45,33.95l-.31.45,0,0c-.15.2-.28.4-.43.59s-.5.66-.77,1-.46.58-.71.87a2.34,2.34,0,0,1-.29.35h0c-.75.87-1.53,1.73-2.34,2.55-.41.42-.84.83-1.25,1.23s-.94.86-1.42,1.28a1.54,1.54,0,0,1-.19.17s0,0-.07.07c-.32.28-.66.55-1,.82a55.88,55.88,0,0,1-10.65,6.86c-.47.23-.94.46-1.41.67a56.32,56.32,0,0,1-5.44,2.22,64.35,64.35,0,0,1-7,2,80.65,80.65,0,0,1-18.36,3.84l-1.89.16-.8.05c-.75.06-1.5.1-2.23.14h0l-2.61.09-2.56,0c-1,0-2,0-3,0h0l-4.29-1.84h0l-12.69-5.44a26.43,26.43,0,0,1-6-2.89c-.23-.14-.47-.29-.7-.46-.43-.28-.86-.58-1.28-.9-.71-.53-1.41-1.1-2.08-1.7q-.41-.35-.78-.72c-.19-.17-.36-.34-.54-.52s-.45-.44-.66-.67-.64-.67-1-1-.61-.7-.91-1.07-.6-.73-.88-1.11-.62-.82-.92-1.24-.51-.73-.76-1.11-.54-.82-.8-1.24-.57-1-.85-1.47-.42-.74-.6-1.12-.46-.89-.68-1.35-.43-.91-.64-1.38-.41-.94-.6-1.42-.39-1-.56-1.45-.39-1.07-.58-1.62-.28-.91-.41-1.37-.27-.95-.4-1.43c-.05-.17-.09-.33-.13-.5-.23-.91-.44-1.83-.62-2.77-.11-.54-.2-1.07-.29-1.62s-.15-.89-.2-1.34c0,0,0,0,0,0,0-.29-.08-.59-.11-.88A5,5,0,0,1,230,401c0-.3-.06-.6-.08-.9s-.08-.84-.11-1.26a45.07,45.07,0,0,1,.07-6.66c0-.52.08-1,.13-1.56s.11-1,.17-1.44a.61.61,0,0,0,0-.14h0v0c0-.06,0-.13,0-.19a.71.71,0,0,1,0-.14l.18-1.15c.06-.46.14-.93.23-1.39a.77.77,0,0,1,0-.15c0-.19.06-.37.09-.56h12.13c-2,3.05-4.1,7.35-2.33,10.33.79,1.33,2.63,2.92,6.88,2.92s6.1-1.59,6.9-2.92c1.32-2.21.49-5.18-.86-7.81a33.3,33.3,0,0,0,9.57,1.77,10.51,10.51,0,0,0,4.72-.94,5.77,5.77,0,0,0,3.27-5.48,1.51,1.51,0,0,0,0-.3.76.76,0,0,0,0-.15,1.09,1.09,0,0,0,0-.18A6.07,6.07,0,0,0,271,382a2,2,0,0,0-.07-.35,1.21,1.21,0,0,0-.11-.37l-.06-.24c0-.1-.07-.19-.11-.29a4.11,4.11,0,0,0-.27-.56.05.05,0,0,0,0-.05.65.65,0,0,0-.08-.17l-.05-.08a.24.24,0,0,0-.06-.09l-.21-.3a.35.35,0,0,0-.1-.11l-.06-.08a3,3,0,0,0-.25-.29,1.34,1.34,0,0,0-.21-.2,2,2,0,0,0-.27-.22,4.47,4.47,0,0,0-.35-.29l-.44-.28a.12.12,0,0,0-.07-.05l-.35-.18-.41-.19a1.36,1.36,0,0,0-.23-.09l0,0a1.57,1.57,0,0,0-.28-.1s0,0,0,0l-.19-.07-.17,0h0a3.7,3.7,0,0,0-.55-.14l-.45-.09a6.32,6.32,0,0,0-.76-.11l-.69-.06h-.48a32.43,32.43,0,0,0-10,1.76c1.35-2.63,2.18-5.59.86-7.81-.8-1.33-2.63-2.91-6.9-2.91s-6.09,1.58-6.88,2.91c-1.79,3,.32,7.31,2.34,10.35H231.68c3.24-14.27,9.85-29.36,13.51-40.2a16.93,16.93,0,0,0,.92-5.44c0-.3,0-.59,0-.88s-.05-.59-.08-.87a8.08,8.08,0,0,0-.11-.86c0-.25-.1-.5-.14-.74a.94.94,0,0,1,0-.16c-.07-.31-.16-.61-.23-.9a3.37,3.37,0,0,0-.1-.34c-.08-.24-.15-.47-.23-.7s-.17-.44-.24-.65-.23-.57-.37-.85a21.4,21.4,0,0,0-2-3.49,4.27,4.27,0,0,0-.3-.44.71.71,0,0,0-.1-.14q-.31-.42-.63-.81h0c-.25-.31-.5-.61-.77-.9a2.32,2.32,0,0,0-.21-.25c-.18-.21-.37-.41-.56-.61-.49-.52-1-1-1.48-1.47l-.68-.62c-.44-.4-.89-.78-1.32-1.13s-.64-.51-1-.74l-1.43-1.05-.53-.35c-.88-.59-1.56-1-1.85-1.15l-.07,0-.1-.05c9.94-.46,19.79-2.57,29.48-4.66a256.85,256.85,0,0,0,49.64-16.06c.74-.33,1.5-.66,2.23-1C323.5,300.65,340.33,311.74,352.39,319.26Z" />
      <path class="BUNTAI_WOLF_OUTFIT_WOLF_OUTFIT_6_cls-6" d="M131.19,293.8c.43.21.87.41,1.31.6l.48.21c5.42,2.38,10.86,4.55,16.36,6.53l.08,0a257.54,257.54,0,0,0,33.22,9.5c9.68,2.09,19.52,4.19,29.46,4.66q3.1.17,6.23.07" />
      <path class="BUNTAI_WOLF_OUTFIT_WOLF_OUTFIT_6_cls-6" d="M142.63,287.86c22.72,12.28,48.79,20.77,75.6,22l.6,0c1.49.05,3.39,0,5.38,0h0c1.23,0,2.49-.11,3.7-.21q5.52-.53,11-1.35,2.61-.39,5.21-.85l.15,0,2.66-.49,2.66-.53q2.65-.56,5.28-1.17c1.51-.35,3-.72,4.5-1.12l2.34-.62,2.11-.59q2.22-.63,4.41-1.32c1.47-.45,2.92-.92,4.37-1.41.84-.28,1.67-.57,2.51-.87l1-.35a184.48,184.48,0,0,0,25.38-11.32l1.14-.62.15-.08h0" />
      <path class="BUNTAI_WOLF_OUTFIT_WOLF_OUTFIT_6_cls-6" d="M83,320.69a35.57,35.57,0,0,0,1.69,14.63c0,.05,0,.1,0,.14a42.27,42.27,0,0,0,5.23,10.48c.5.73,1,1.45,1.57,2.16a65.37,65.37,0,0,0,17.6,15.56.19.19,0,0,1,.09,0l.1.06h0l.4.25c.17.11.33.21.5.3" />
      <path class="BUNTAI_WOLF_OUTFIT_WOLF_OUTFIT_6_cls-6" d="M110.42,363.9c-.26-.3-.52-.59-.76-.9v0h0c-.45-.53-.88-1.05-1.31-1.58h0c-.66-.81-1.29-1.63-1.9-2.46q-1.55-2.07-2.94-4.21c-.59-.92-1.17-1.84-1.72-2.78A77.74,77.74,0,0,1,98,344.77c-.23-.49-.45-1-.66-1.46s-.43-1-.63-1.48-.31-.75-.45-1.12-.31-.77-.45-1.16-.34-.88-.49-1.33-.35-1-.5-1.46-.26-.76-.38-1.15-.21-.65-.3-1c-.19-.63-.37-1.26-.54-1.9s-.27-1-.39-1.48-.23-.91-.33-1.36c0-.15-.07-.3-.09-.44-.1-.42-.19-.83-.27-1.24-.25-1.18-.46-2.36-.64-3.55-.06-.37-.11-.74-.16-1.11a.69.69,0,0,1,0-.13q-.11-.74-.18-1.47c-.06-.52-.12-1-.16-1.56s-.09-1-.13-1.57c-.08-1.17-.13-2.35-.15-3.53" />
      <path class="BUNTAI_WOLF_OUTFIT_WOLF_OUTFIT_6_cls-6" d="M109.74,365.19c0-.39,0-.78,0-1.17s0-.68,0-1v0q-.39-10-.8-20.07" />
      <path class="BUNTAI_WOLF_OUTFIT_WOLF_OUTFIT_6_cls-6" d="M134.18,437H14.45l2.9-3.06s.94-1.87,1.51-3S22.12,420.8,24,414.5,30,405,36.76,396.34A127.94,127.94,0,0,1,49.94,381.8l-2.43-4.74a22.36,22.36,0,0,0-.53-3.17c-.52-2.59-5.83-7.33-4.71-7.61s5.32.94,5.32.94,4.8-1.84,9.25-.37,3.48,5,6.88,4.61,7.84-2.75,11-.24,5.92-.44,9.84-1.11,4.8,2.07,10.29,2.95c3.52.55,8.67-1,11.92-2.12" />
      <path class="BUNTAI_WOLF_OUTFIT_WOLF_OUTFIT_6_cls-6" d="M101.43,383.88s-30.51,1.52-51.49-2.08" />
      <path class="BUNTAI_WOLF_OUTFIT_WOLF_OUTFIT_6_cls-6" d="M116.11,350a64.16,64.16,0,0,1-5.69,13.94l-.22.43-.46.86h0c-1,1.91-2,3.82-3,5.74a68,68,0,0,0-5.07,12c-.09.3-.17.61-.25.91v0a41,41,0,0,0,6.45,33.93c6,8.56,15.44,15.35,26.31,19.15a63.53,63.53,0,0,0,6.94,2,161.63,161.63,0,0,0,31.48,2.45,220.1,220.1,0,0,0,28.23-2c20.87-12.9,22.75-34.13,18.85-54" />
      <path class="BUNTAI_WOLF_OUTFIT_WOLF_OUTFIT_6_cls-6" d="M172.58,441.41h0l17-5.46c12.91-4.29,23-19.09,24.23-37.13a55.26,55.26,0,0,0-.95-13.41" />
      <path class="BUNTAI_WOLF_OUTFIT_WOLF_OUTFIT_6_cls-6" d="M212.09,315.33S193.22,325.44,198.46,341c3.64,10.84,10.26,25.93,13.51,40.2" />
      <path class="BUNTAI_WOLF_OUTFIT_WOLF_OUTFIT_6_cls-6" d="M193.72,372.73c.22-.37,1.14-.59,2.45-.59s2.21.22,2.44.59c.64,1.08-.61,3.93-2.44,6.66C194.32,376.66,193.08,373.81,193.72,372.73Z" />
      <path class="BUNTAI_WOLF_OUTFIT_WOLF_OUTFIT_6_cls-6" d="M178.38,385.12c-.22-.12-.82-.42-.82-1.85s.6-1.71.82-1.83a4.78,4.78,0,0,1,2.13-.38c2.56,0,6.37,1,9.83,2.21C185.69,384.92,180.43,386.15,178.38,385.12Z" />
      <path class="BUNTAI_WOLF_OUTFIT_WOLF_OUTFIT_6_cls-6" d="M198.61,393.81c-.23.37-1.14.6-2.44.6s-2.23-.23-2.45-.59c-.64-1.07.61-3.93,2.45-6.65C198,389.89,199.25,392.74,198.61,393.81Z" />
      <path class="BUNTAI_WOLF_OUTFIT_WOLF_OUTFIT_6_cls-6" d="M200.72,385.4c2,3.05,4.1,7.35,2.34,10.33-.8,1.33-2.65,2.92-6.89,2.92s-6.1-1.59-6.9-2.92c-1.32-2.21-.49-5.18.85-7.81a33.24,33.24,0,0,1-9.56,1.77,10.48,10.48,0,0,1-4.72-.94,6.22,6.22,0,0,1,0-10.94c3.63-1.84,9.51-.68,14.28.82-1.34-2.63-2.17-5.59-.85-7.81.8-1.33,2.64-2.91,6.9-2.91s6.09,1.58,6.89,2.91c1.77,3-.33,7.31-2.34,10.35" />
      <path class="BUNTAI_WOLF_OUTFIT_WOLF_OUTFIT_6_cls-6" d="M225.32,315.4h0c2.08.06,4.14,0,6.22-.07,9.93-.46,19.78-2.57,29.47-4.66a256.63,256.63,0,0,0,49.64-16.06c.74-.33,1.5-.66,2.23-1" />
      <path class="BUNTAI_WOLF_OUTFIT_WOLF_OUTFIT_6_cls-6" d="M333.46,364.33l.49-.3c7.95-4.85,14.89-10.92,19.78-18.09a39.23,39.23,0,0,0,7.13-21.51" />
      <path class="BUNTAI_WOLF_OUTFIT_WOLF_OUTFIT_6_cls-6" d="M352.39,319.26l-.06.75-.09,1c-.15,1.45-.34,2.9-.58,4.35-.06.39-.13.78-.2,1.17s-.17.9-.26,1.34-.13.68-.21,1c-.1.48-.2,1-.32,1.43-.24,1.05-.52,2.09-.81,3.13-.09.32-.18.64-.28,1q-1,3.24-2.22,6.4c-.55,1.39-1.15,2.77-1.79,4.14-.42.91-.87,1.82-1.33,2.71-.23.45-.46.9-.71,1.34s-.45.84-.68,1.25a1.62,1.62,0,0,0-.1.18l-.66,1.15-.09.14c-.24.42-.49.83-.75,1.24s-.61,1-.93,1.48c-.44.68-.88,1.35-1.34,2-.67,1-1.35,1.92-2.07,2.86-.3.42-.62.82-.94,1.23-.63.82-1.29,1.62-2,2.42h0v0c-.24.31-.49.6-.75.9" />
      <path class="BUNTAI_WOLF_OUTFIT_WOLF_OUTFIT_6_cls-6" d="M334.8,342.9q-.41,10-.8,20.07v0c0,.34,0,.69,0,1s0,.78,0,1.17" />
      <path class="BUNTAI_WOLF_OUTFIT_WOLF_OUTFIT_6_cls-6" d="M336.9,370.94c3.25,1.16,8.4,2.67,11.92,2.12,5.49-.88,6.36-3.62,10.28-2.95s6.72,3.62,9.85,1.11,4.58-.19,8,.24,1.44-3.13,5.88-4.61,9.25.37,9.25.37,4.17-1.22,5.31-.94-4.19,5-4.71,7.61a22.76,22.76,0,0,0-.52,3.17l-2.44,4.74a128.52,128.52,0,0,1,13.19,14.54c6.74,8.68,10.92,11.86,12.78,18.16s4.53,15.37,5.11,16.46,1.52,3,1.52,3l2.9,3.06H309.47" />
      <path class="BUNTAI_WOLF_OUTFIT_WOLF_OUTFIT_6_cls-6" d="M342.22,383.88s26.51,1.52,47.48-2.08" />
      <path class="BUNTAI_WOLF_OUTFIT_WOLF_OUTFIT_6_cls-6" d="M224.87,381.17c3.19-13.48,8.68-26,12.13-34.27,8.83-21.24-11.68-31.5-11.68-31.5h-7s-20.51,10.26-11.68,31.5c3.45,8.31,8.94,20.79,12.12,34.27" />
      <path class="BUNTAI_WOLF_OUTFIT_WOLF_OUTFIT_6_cls-6" d="M271.07,443.22c9.81.25,21-.67,31.46-4.27a64.17,64.17,0,0,0,6.94-2,55.14,55.14,0,0,0,23.76-15.88,39.27,39.27,0,0,0,2.54-3.27,41,41,0,0,0,6.45-33.95c-.08-.3-.16-.61-.25-.91a68,68,0,0,0-5.07-12c-1-1.92-2-3.83-3-5.74h0l-.46-.86-.22-.43A64.16,64.16,0,0,1,327.54,350" />
      <path class="BUNTAI_WOLF_OUTFIT_WOLF_OUTFIT_6_cls-6" d="M224,385.4c-3.89,19.82-2,41.05,18.85,54a127.61,127.61,0,0,0,28.26,3.87" />
      <path class="BUNTAI_WOLF_OUTFIT_WOLF_OUTFIT_6_cls-6" d="M271.07,443.22h0l-17-7.28c-12.9-4.29-23-19.09-24.23-37.13a55.28,55.28,0,0,1,1-13.41" />
      <path class="BUNTAI_WOLF_OUTFIT_WOLF_OUTFIT_6_cls-6" d="M231.54,315.33s18.88,10.11,13.65,25.64c-3.65,10.84-10.27,25.93-13.52,40.2" />
      <path class="BUNTAI_WOLF_OUTFIT_WOLF_OUTFIT_6_cls-6" d="M247.48,379.39c-1.83-2.73-3.08-5.58-2.44-6.66.23-.37,1.14-.59,2.44-.59s2.22.22,2.45.59C250.56,373.81,249.32,376.66,247.48,379.39Z" />
      <path class="BUNTAI_WOLF_OUTFIT_WOLF_OUTFIT_6_cls-6" d="M253.31,383.27c3.46-1.22,7.27-2.21,9.83-2.21a4.73,4.73,0,0,1,2.12.38c.23.12.82.42.82,1.83s-.59,1.73-.82,1.84C263.22,386.15,258,384.92,253.31,383.27Z" />
      <path class="BUNTAI_WOLF_OUTFIT_WOLF_OUTFIT_6_cls-6" d="M247.48,387.17c1.84,2.72,3.08,5.58,2.45,6.65-.23.36-1.14.59-2.45.59s-2.21-.23-2.44-.6C244.4,392.74,245.65,389.89,247.48,387.17Z" />
      <path class="BUNTAI_WOLF_OUTFIT_WOLF_OUTFIT_6_cls-6" d="M242.93,381.17c-2-3-4.11-7.37-2.34-10.35.8-1.33,2.63-2.91,6.89-2.91s6.1,1.58,6.89,2.91c1.32,2.22.49,5.18-.85,7.81,4.76-1.5,10.66-2.66,14.29-.82a6.22,6.22,0,0,1,0,10.94,10.52,10.52,0,0,1-4.73.94,33.36,33.36,0,0,1-9.56-1.77c1.34,2.63,2.17,5.6.85,7.81-.79,1.33-2.63,2.92-6.89,2.92s-6.09-1.59-6.89-2.92c-1.76-3,.32-7.28,2.33-10.33" />
      <path class="BUNTAI_WOLF_OUTFIT_WOLF_OUTFIT_6_cls-6" d="M49.94,412.52S67.66,384.3,72.78,384.2s-5.81,28.91-13.48,39" />
      <path class="BUNTAI_WOLF_OUTFIT_WOLF_OUTFIT_6_cls-6" d="M101.43,383.88v0c-.42.86-13.8,28.59-16.32,39.27" />
      <path class="BUNTAI_WOLF_OUTFIT_WOLF_OUTFIT_6_cls-6" d="M95.09,437s7.67-14.6,10-13.81,3.77,8.08,3.77,8.08" />
      <line class="BUNTAI_WOLF_OUTFIT_WOLF_OUTFIT_6_cls-6" x1="333.23" y1="421.1" x2="338.08" y2="431.95" />
      <path class="BUNTAI_WOLF_OUTFIT_WOLF_OUTFIT_6_cls-6" d="M348.53,421.1s-4.44-36.47,4.06-33.81,20.7,39.23,20.7,39.23" />
      <path class="BUNTAI_WOLF_OUTFIT_WOLF_OUTFIT_6_cls-6" d="M385,398.65s-3.14-13.07,2.09-11.48S408.32,416,408.32,416" />
      <path class="BUNTAI_WOLF_OUTFIT_WOLF_OUTFIT_6_cls-6" d="M242.93,381.17h4.55a2.14,2.14,0,1,1,0,4.23H195.61a2.14,2.14,0,1,1,0-4.23h47.32Z" />
      <path class="BUNTAI_WOLF_OUTFIT_WOLF_OUTFIT_6_cls-6" d="M83,320.69a93.7,93.7,0,0,1,8.12-5.39c7.88-4.77,17.82-9.89,25.66-14l14.45-7.52c5.6-2.91,10.05-5.23,11.44-5.94" />
      <path class="BUNTAI_WOLF_OUTFIT_WOLF_OUTFIT_6_cls-6" d="M360.86,324.43c-2.34-1.37-5.23-3.14-8.47-5.17-12.06-7.52-28.89-18.61-39.5-25.66-6.05-4-10.08-6.72-10.08-6.72h0" />
      <g class="BUNTAI_WOLF_OUTFIT_WOLF_OUTFIT_6_cls-7">
        <path d="M221.81,315.19c-32.7-1.59-50.61-6.82-72.39-14l-.08,0a167.38,167.38,0,0,1-16.93-6.33c-.6-.27-1.14-.53-1.64-.79l.42-.22,1.18-.61,7.27-3.79,5.54,3.2C154.83,298.12,176.81,311.36,221.81,315.19Z" />
        <path d="M132.75,293.38l-.25,1c0,.13-.06.26-.09.41-.89,3.73-3.29,14.2-4.78,24.81-1.86,13.21-11.73,31.19-11.73,31.19l0,.05h0v0l-2.76,6.6v-2.76l-1.4-11.83-2,10-.47-.79h0v0h0c-1.31-2.35-5-9.24-6.45-15.81.08,9.55,3.77,20.47,5.57,25.19h0c.55,1.42.91,2.27.94,2.38l-.09-.06a.19.19,0,0,0-.09,0c-.91-.66-5.25-3.87-15.75-13.5-.66-.68-1.29-1.36-1.85-2.06a35.29,35.29,0,0,1-6.8-12.64s0-.09,0-.14a41.28,41.28,0,0,1-1.52-14.76,91.48,91.48,0,0,1,8-5.26c7.88-4.77,17.82-9.89,25.65-14l14-7.3.42-.22,1.18-.61Z" />
        <path d="M103.59,377.62s-13.15.68-15.94.18A8.67,8.67,0,0,1,83,375.73c0-.2-1.39,1.94-6.85,2.25s-7.44-.87-8-1.56-3.37-.7-3.37-.7-4.18,3.64-8.13,0A35.6,35.6,0,0,0,50.7,371L44,369.23a19.8,19.8,0,0,1,3.54,7.94l2.11,4.11s2.71,2,17.36,2.67,34.63-.07,34.63-.07Z" />
        <path d="M58.16,400.2s9.74-6.59,10.87-4.51,2,3.72,2,3.72,4.74-14.74,1.87-15.25S58.16,400.2,58.16,400.2Z" />
        <path d="M93.27,384.25s-4.67,18.18-5.43,30.52c6.91-16.49,13-29.55,13-29.55v-1.5Z" />
        <path d="M102.59,423.59S96,433.65,95.09,437h37.13s-19.61-9.32-27.15-23.6c-4.57-9.76-4.92-14.13-4.92-14.13s.17,13.1,6.18,20.64,8.37,10.5,8.37,10.5-6.27-2.55-7.53-4.6S104.33,422.11,102.59,423.59Z" />
        <path d="M102.67,382.39s9.85,22,36.58,34.86,73.09-7.33,73.91-18.6c.24-9.69.72-11.48.72-11.48l-1-1.77,5.93.1s5.49,11.86,1,29.11a41.08,41.08,0,0,1-19,24.74s-27.9,4-48,1.19S116.12,430,107.76,417.75c15.57,12.91,36.72,17.55,36.72,17.55s-28.7-15.68-35.33-31S102.67,382.39,102.67,382.39Z" />
        <path d="M341.2,382.39s-9.85,22-36.58,34.86-73.09-7.33-73.9-18.6c-.24-9.69-.73-11.48-.73-11.48l1-1.77-5.92.1s-5.5,11.86-1.05,29.11a41.08,41.08,0,0,0,19,24.74s27.9,4,48,1.19,36.71-10.57,45.08-22.79c-15.58,12.91-36.72,17.55-36.72,17.55s28.7-15.68,35.32-31S341.2,382.39,341.2,382.39Z" />
        <path d="M333.23,361.83s-.57-11.17-1.39-18.86l-.82-7.7s6.08,8,5.87,14.87A23,23,0,0,1,333.23,361.83Z" />
        <path d="M392.56,374.39s-1-.43-5.38,1.14-1.65,3.46-9.09,2.37-8.17-1.18-10.73-.69-3.26.74-5.23,1-7.44,1-7.44,1l-10.69-1-2.8.18,1.71,5.8s20.15.58,31.07,0a140.92,140.92,0,0,0,14.36-1.2l1.36-1.2S393,376.4,392.56,374.39Z" />
        <path d="M347.37,417.15s3.26-13.31,8.14-11.93S371.7,422,371.7,422s-12.61-34.95-20.16-34.84C348.77,387.76,346.44,403.94,347.37,417.15Z" />
        <path d="M386.71,411s-3.5-23.34-1.58-23.61,8,5.09,16.63,17.95c-11-11.7-13.3-15.05-14.35-9.13S386.71,411,386.71,411Z" />
        <path d="M329.59,425s3.52,11,13.91,11.94H311.58S327.14,429.22,329.59,425Z" />
      </g>
      <path class="BUNTAI_WOLF_OUTFIT_WOLF_OUTFIT_6_cls-8" d="M221.55,381.06s.85-14.21-3.93-21.92" />
      <path class="BUNTAI_WOLF_OUTFIT_WOLF_OUTFIT_6_cls-8" d="M224.87,358.41s-3.54,5-4.1,9.88" />
    </g>
  </g>
</svg>