<svg xmlns="http://www.w3.org/2000/svg" viewBox="0 0 432 432">
  <defs>
    <style>.BUNTAI_WOLF_OUTFIT_WOLF_OUTFIT_26_cls-1{isolation:isolate;}.BUNTAI_WOLF_OUTFIT_WOLF_OUTFIT_26_cls-2{fill:#f54633;}.BUNTAI_WOLF_OUTFIT_WOLF_OUTFIT_26_cls-3{fill:none;stroke:#000;stroke-linecap:round;stroke-linejoin:round;stroke-width:2px;}.BUNTAI_WOLF_OUTFIT_WOLF_OUTFIT_26_cls-4{opacity:0.22;mix-blend-mode:multiply;}</style>
  </defs>
  <g class="BUNTAI_WOLF_OUTFIT_WOLF_OUTFIT_26_cls-1">
    <g id="outfit">
      <path class="BUNTAI_WOLF_OUTFIT_WOLF_OUTFIT_26_cls-2" d="M413.69,426v14.44l-57.29.74H355l-4.27.06L246.15,442.6l-44.55.57L31.79,445.35,22.47,423s9.78-17.48,18.4-31.92,14.81-40.32,14.34-45.91,11.06-21.67,11.06-21.67,8.86-3.71,11.19-5.1,17.94-11.91,21.67-13.54S127,296.57,127,296.57l2.1-2.33s4-6.64,4.31-6.64,12.47-3.09,12.47-3.09q1.71-.79,3.27-1.68c1.76,10.33,2.9,20.77,7.53,34.38,5.75,16.89,18.61,32.19,35.74,50.81a331.83,331.83,0,0,1,28.86,36.24s9.41-6,23.57-18.19,37.57-36.78,37.57-36.78l9.78-14.41c9.79-14.4,16.14-29.92,16.17-38a20.4,20.4,0,0,0-1.25-7.57l4.74-.35,18.62,9.26s9.08,8.39,12.75,10S361.38,322,361.38,322s6.46,0,9.26,2.27,9.09,11.88,13.28,14.85c4.2,25.34,3.91,40.55,13.69,59.89S413.69,426,413.69,426Z" />
      <path class="BUNTAI_WOLF_OUTFIT_WOLF_OUTFIT_26_cls-3" d="M306.27,289.35l5.56-.41,18.62,9.26s-8.8,31.11-23.95,60.7c-11.67,22.81-51.26,55.31-68.8,69" />
      <path class="BUNTAI_WOLF_OUTFIT_WOLF_OUTFIT_26_cls-3" d="M201.6,443.17C200,440,198,436.43,195.83,432.3a762.92,762.92,0,0,0-48.7-80.16c-17-24.93-20.16-55.57-20.16-55.57l2.1-2.33s4-6.64,4.31-6.64,12.47-3.09,12.47-3.09a40.68,40.68,0,0,0,4.05-2.14" />
      <path class="BUNTAI_WOLF_OUTFIT_WOLF_OUTFIT_26_cls-3" d="M306.27,289.35s4.23,5.36.61,14.53c-3.45,8.78-11.51,46.18-85.16,100.38" />
      <path class="BUNTAI_WOLF_OUTFIT_WOLF_OUTFIT_26_cls-3" d="M149.9,282.37s-.85,28.3,19.39,58.82c12.22,15.09,33,36.61,52.43,63.07,5.51,7.5,10.91,15.39,16,23.64,2.94,4.78,5.77,9.68,8.45,14.7" />
      <path class="BUNTAI_WOLF_OUTFIT_WOLF_OUTFIT_26_cls-3" d="M127,296.57s-24.12,6.64-27.84,8.27S79.79,317,77.46,318.38s-11.19,5.1-11.19,5.1-11.52,16.08-11.06,21.67-5.71,31.46-14.34,45.91S22.47,423,22.47,423l9.32,22.37,169.81-2.18,44.55-.57,104.54-1.34,4.27-.06h1.44l57.29-.74V426s-6.29-7.69-16.08-27-9.49-34.55-13.69-59.89c-4.19-3-10.48-12.58-13.28-14.85s-9.26-2.27-9.26-2.27-14.51-12.23-18.18-13.81-12.75-10-12.75-10" />
      <path class="BUNTAI_WOLF_OUTFIT_WOLF_OUTFIT_26_cls-3" d="M356.4,441.19c7.38-11.07,12.55-20.31,12.55-20.31" />
      <path class="BUNTAI_WOLF_OUTFIT_WOLF_OUTFIT_26_cls-3" d="M355,441.2c9.13-28.44,11.66-62.73,11.66-62.73" />
      <path class="BUNTAI_WOLF_OUTFIT_WOLF_OUTFIT_26_cls-3" d="M350.31,411.91s2.05,17.56.38,29.35" />
      <path class="BUNTAI_WOLF_OUTFIT_WOLF_OUTFIT_26_cls-3" d="M77.23,342.35s3.26,69.44,11.65,100.43c-9.09-11.18-14.22-34.25-14.22-34.25" />
      <g class="BUNTAI_WOLF_OUTFIT_WOLF_OUTFIT_26_cls-4">
        <path d="M324.57,295.27s-19.63,60.07-46.9,83S230,415.92,230,415.92l8.08,12.55s42.74-35.25,55.47-51.35,23.56-38.45,27.54-51.26a198.39,198.39,0,0,1,6.77-19.16s33.32,25.17,34.37,26.1c-3.61,29.24-9,71.77-8.16,84.82,0,0,9.91-58.61,16.55-69.44C375,366.12,381.66,391.34,385.5,401c-9.61,27.61-21.84,38.44-21.84,38.44s24.11-25.34,28.31-32C402.8,424.2,413.69,431,413.69,431v-5s-13.51-19.81-19.34-35.31-10.07-51.38-10.07-51.38a46.88,46.88,0,0,1-9.56-10.48c-3.78-6-6.35-6.25-9.2-6.5s-5.24-.55-5.24-.55S350.55,312.64,345,309s-9.69-5.06-11.37-8S324.57,295.27,324.57,295.27Z" />
        <path d="M137.76,286.55s10.54,42.52,28.94,66.52c-12.11-9.78-21.9-24.23-21.9-24.23s10,20.74,38.68,55S225,441.19,225,441.19L201.6,439.4s-34.66-53-43-61.4S149,367.34,149,367.34s-24.76-36.64-29.83-49.57c-.17,24.47,3.49,34.43,3.49,34.43s-26,16.08-31.45,25-9.44,15.38-9.44,15.38,2.9,37.92,5.82,45c-10.25-24.7-12.93-39.73-12.93-39.73s-3.84,17.94,1.52,30.64c-11-17.94-13.75-22.37-13.75-22.37L30.06,441.19l-7.14-19s14.7-20.32,23.59-42.55,8.71-33.91,8.71-33.91,5.46-16.78,11-22.25c-.86.12,20.28-9.33,21.44-10.49,12.84-8.69,15.85-10.6,28-13.28l11.3-3.14,5.89-9.15Z" />
      </g>
    </g>
  </g>
</svg>