<svg xmlns="http://www.w3.org/2000/svg" viewBox="0 0 432 432">
  <defs>
    <style>.BUNTAI_WOLF_OUTFIT_WOLF_OUTFIT_20_cls-1{isolation:isolate;}.BUNTAI_WOLF_OUTFIT_WOLF_OUTFIT_20_cls-2{fill:#ef8e47;}.BUNTAI_WOLF_OUTFIT_WOLF_OUTFIT_20_cls-3{fill:#653b47;}.BUNTAI_WOLF_OUTFIT_WOLF_OUTFIT_20_cls-4{opacity:0.4;mix-blend-mode:multiply;}.BUNTAI_WOLF_OUTFIT_WOLF_OUTFIT_20_cls-5{fill:#8b3135;}.BUNTAI_WOLF_OUTFIT_WOLF_OUTFIT_20_cls-6{fill:#f1b761;stroke-miterlimit:10;stroke-width:2px;}.BUNTAI_WOLF_OUTFIT_WOLF_OUTFIT_20_cls-6,.BUNTAI_WOLF_OUTFIT_WOLF_OUTFIT_20_cls-7{stroke:#000;stroke-linecap:round;}.BUNTAI_WOLF_OUTFIT_WOLF_OUTFIT_20_cls-7{fill:none;stroke-linejoin:round;stroke-width:2px;}</style>
  </defs>
  <g class="BUNTAI_WOLF_OUTFIT_WOLF_OUTFIT_20_cls-1">
    <g id="outfit">
      <path class="BUNTAI_WOLF_OUTFIT_WOLF_OUTFIT_20_cls-2" d="M274.61,439.71H247.75a94.53,94.53,0,0,0-11-13.56l-1.56-1.6-1.23-1.23-.29-.3c-.33-.3-.65-.61-1-.92-.56-.55-1.13-1.08-1.7-1.63l-.36-.34-.38-.35-1.71-1.59c-1.75-1.58-3.54-3.17-5.39-4.74-1.24-1.06-2.51-2.12-3.8-3.16-.33-.27-.67-.55-1-.82l-.41-.34c-.1-.07-.17-.14-.26-.21s-.16-.14-.25-.2l-.7-.55-.93-.74c-1.09-.87-2.21-1.73-3.34-2.57s-2.28-1.73-3.45-2.59c-2.6-1.91-5.28-3.81-8.06-5.73-.54-.38-1.11-.76-1.65-1.12l-.35-.23-.19-.14-.28-.19a2.71,2.71,0,0,1-.25-.17c-.24-.18-.49-.32-.73-.49l-1.3-.87-.45-.31c-.16-.1-.29-.2-.45-.29l-.44-.29-.9-.6-.91-.59-.89-.59h0c-.6-.38-1.19-.78-1.82-1.17h0l-.77-.48-.53-.35c-.2-.11-.37-.23-.55-.35l-.17-.1a1.18,1.18,0,0,0-.19-.11l0,0,0,0-.31-.2-.06,0s0,0-.05,0l0,0,0,0-.09-.06a1.37,1.37,0,0,1-.2-.13l-.37-.23-.15-.08a1.74,1.74,0,0,0-.2-.13l-.45-.29-1.45-.9c-.65-.4-1.28-.8-1.93-1.19l-.29-.18,0,0-.15-.08-.34-.22-.07,0a1.34,1.34,0,0,0-.28-.18l-.16-.1-.17-.11-.1-.05-.08,0-.07,0-.22-.12-.25-.16,0,0-.06,0-.06,0a.41.41,0,0,1-.11-.07l-.19-.1h0l-.08-.05a.05.05,0,0,1,0,0l-2.38-1.44-.33-.2c-1-.62-2.06-1.23-3.11-1.84-.48-.29-1-.57-1.44-.84l-.74-.44-.65-.38a1,1,0,0,0-.2-.11l0,0-.47-.27h0a5.48,5.48,0,0,0-.52-.31l-1.63-.94-2.2-1.27c-1.34-.77-2.67-1.55-4-2.36-.48-.28-.94-.58-1.41-.88L159,370.61c-.57-.37-1.13-.75-1.69-1.13-.2-.11-.39-.25-.58-.37l-.93-.65c-1.17-.82-2.32-1.64-3.45-2.47q-.49-.35-.93-.69c-.43-.31-.81-.61-1.23-.92a2.11,2.11,0,0,0-.23-.19l-1.66-1.3c-.82-.63-1.61-1.28-2.39-1.93a151.33,151.33,0,0,1-11.3-10.34c-1.18-1.18-2.31-2.37-3.42-3.57-.4-.43-.8-.87-1.21-1.3-.85-.95-1.71-1.9-2.52-2.86-.31-.35-.62-.71-.92-1.07-.91-1.07-1.81-2.14-2.66-3.21-.49-.59-1-1.19-1.44-1.79v0a4.11,4.11,0,0,1-.27-.35,4.29,4.29,0,0,1-.28-.35c-.55-.7-1.08-1.39-1.62-2.1-.27-.36-.53-.72-.78-1.07-.12-.16-.25-.33-.36-.49s-.29-.39-.43-.58c-.85-1.18-1.69-2.35-2.48-3.5-.11-.15-.22-.3-.31-.45l-.28-.39-.62-.9c-.51-.75-1-1.48-1.46-2.22-.64-.95-1.25-1.91-1.85-2.86l-1.43-2.32c-1.39-2.31-2.67-4.54-3.82-6.65-.07-.13-.15-.25-.21-.37a7.31,7.31,0,0,1-.35-.68c-.39-.68-.74-1.35-1.07-2l-.52-1c-.06-.14-.14-.28-.21-.42,6.88-3.76,13.4-7.1,17.78-9.28l.29-.15.58-.29,1.56-.77.75-.37,1.17-.57.38-.18.26-.13,0,0,.43-.16c1.74,3.19,3.79,6.71,6.18,10.45.32.5.66,1,1,1.52.56.84,1.12,1.69,1.71,2.54l1,1.4q1.43,2,3,4.15c.32.47.7.94,1.05,1.43l1.7,2.19q3,3.84,6.49,7.74c.5.56,1,1.12,1.51,1.67,2.68,2.93,5.55,5.86,8.65,8.75.42.41.88.82,1.33,1.23,1.2,1.1,2.42,2.2,3.68,3.27a1.79,1.79,0,0,1,.14.13c.6.5,1.18,1,1.77,1.48s1.29,1.07,2,1.61c.5.41,1,.82,1.55,1.24.16.11.3.22.45.34,1.29,1,2.61,2,4,3,3,2.15,6,4.22,9.28,6.22.65.42,1.3.81,2,1.21.84.51,1.7,1,2.57,1.5a431.41,431.41,0,0,1,40.89,25.95,198.53,198.53,0,0,1,24.34,20.69l.09.08c.37.37.75.75,1.12,1.14.74.76,1.45,1.52,2.16,2.29,1.74,1.9,3.38,4.82,4.91,6.74h0q1.79,2.24,3.36,4.49h0c1.37,2,2.62,4,3.76,5.93l.51.91h0l.49.91h0A62,62,0,0,1,274.61,439.71Z" />
      <path class="BUNTAI_WOLF_OUTFIT_WOLF_OUTFIT_20_cls-3" d="M335.75,408.75c.62,7.32,6.5,17.51,2.22,28.88-.09.23-.19.46-.27.69h0c-.2.46-.41.92-.64,1.38H274.61a62,62,0,0,0-4.69-11.29h0c-.33-.62-.67-1.22-1-1.83-1.14-2-2.39-4-3.76-5.93h0a3.26,3.26,0,0,1,0-.39.81.81,0,0,0,0-.15c0-.06,0-.12,0-.18s0-.31,0-.5,0-.39,0-.62c0-.68,0-1.54,0-2.56,0-.28,0-.57,0-.87s0-.66,0-1c0-.52.06-1.06.1-1.63,0-.12,0-.25,0-.38,0-.52.09-1,.14-1.6s.11-1.13.19-1.72l0-.29c.14-1.21.34-2.49.58-3.84.08-.55.19-1.1.29-1.67s.21-1,.31-1.51.23-1,.35-1.55c.28-1.18.58-2.39.92-3.63.12-.42.24-.84.37-1.26.25-.85.51-1.7.8-2.57.08-.29.19-.58.29-.87A86.94,86.94,0,0,1,275.59,378c.16-.32.35-.64.53-1a90.56,90.56,0,0,1,7.78-11.66c20.88-26.69,30.93-49.9,31.7-70.24,7.62,5.22,18.78,12.77,28.13,18.67h0l.06.13c-1.13,8.7-8.83,20.09-15.7,40.32a68,68,0,0,0,.1,41.76c.06.2.14.4.21.6s.13.41.22.62.26.68.4,1a35.7,35.7,0,0,0,3.19,6.24c.07.12.16.23.24.35s.28.42.44.62l.16.24c.06.07.18.22.32.41l.15.21.18.22a3.22,3.22,0,0,0,.24.28l.06.08q.3.34.6.66a.57.57,0,0,1,.12.28.52.52,0,0,0,0,.24v0a.13.13,0,0,0,.07.08l.15.14h0l.4.36.06.06Z" />
      <path class="BUNTAI_WOLF_OUTFIT_WOLF_OUTFIT_20_cls-4" d="M337.07,439.72H274.61a62.13,62.13,0,0,0-4.7-11.3c-.33-.62-.65-1.23-1-1.84-1.13-2-2.38-4-3.76-5.93h0a42.3,42.3,0,0,1-.08-4.41,48.65,48.65,0,0,0,38.78,17.57c40.48-.62,26.82-15.39,28.37-29.29a20,20,0,0,0,3.24,4.26l.31,0C336.4,416.51,343,427.51,337.07,439.72Z" />
      <path class="BUNTAI_WOLF_OUTFIT_WOLF_OUTFIT_20_cls-5" d="M247.75,439.71l-217.11.94h0l.77-4.92c1.52-5.67,3.19-11.39,5-17.1.55-1.77,1.12-3.55,1.68-5.32l.87-2.65c.29-.88.59-1.76.87-2.64l.9-2.64c.3-.87.59-1.75.9-2.62,1.5-4.36,3-8.66,4.61-12.86.31-.84.62-1.68.94-2.51h0c.31-.83.62-1.66.94-2.48.86-2.27,1.72-4.5,2.6-6.7.14-.37.29-.73.44-1.1h0c.24-.62.48-1.24.73-1.86.48-1.17.94-2.34,1.41-3.49l.48-1.15a.85.85,0,0,1,.12-.28c.26-.67.54-1.33.81-2s.61-1.49.93-2.23.62-1.46.91-2.18q1.4-3.24,2.73-6.29.45-1,.9-2c.73-1.64,1.46-3.24,2.16-4.78l.5-1.08h0c.06-.1.1-.18.15-.28s.14-.3.21-.45c.27-.6.55-1.19.83-1.77l.41-.86c.67-1.42,1.34-2.78,2-4.07.84-1.69,1.63-3.26,2.4-4.71l.18-.33.51-1c.12-.21.23-.42.35-.62s.11-.21.15-.31h0c.15-.28.29-.56.45-.82a3.9,3.9,0,0,1,.19-.35c.38-.66.74-1.29,1.09-1.88l.31-.53c.32-.53.62-1,.92-1.47,0,0,0,0,0-.05.18-.28.36-.55.54-.8s.15-.22.21-.33,0,0,0,0a1,1,0,0,1,.12-.16l.09-.12a6.65,6.65,0,0,1,.42-.58,2.51,2.51,0,0,1,.25-.32,2.09,2.09,0,0,1,.23-.29c.08-.09.14-.18.22-.26l.23-.25c.08-.09.16-.17.23-.26l.12-.11h0l.24-.23.13-.12.4-.34c1.44-1.26,2.91-2.47,4.4-3.65a.24.24,0,0,1,.08-.06c.18-.15.35-.3.55-.44l0,0,.08-.05,0,0,.09-.07a196.08,196.08,0,0,1,17.4-10.82l1.12-.64c1.29-.73,2.58-1.44,3.88-2.15v0s0,0,0,0,.15.28.21.42l.52,1c.33.66.68,1.33,1.07,2a7.31,7.31,0,0,0,.35.68c.06.12.14.24.21.37,1.15,2.11,2.43,4.34,3.82,6.65l1.43,2.32c.6.95,1.21,1.91,1.85,2.86.46.74,1,1.47,1.46,2.22l.62.9.28.39c.09.15.2.3.31.45.79,1.15,1.63,2.32,2.48,3.5.14.19.27.39.43.58s.24.33.36.49c.25.35.51.71.78,1.07.54.71,1.07,1.4,1.62,2.1a4.29,4.29,0,0,0,.28.35,4.11,4.11,0,0,0,.27.35v0c.48.6,1,1.2,1.44,1.79.85,1.07,1.75,2.14,2.66,3.21.3.36.61.72.92,1.07.81,1,1.67,1.91,2.52,2.86.41.43.81.87,1.21,1.3,1.11,1.2,2.24,2.39,3.42,3.57A151.33,151.33,0,0,0,146,361c.78.65,1.57,1.3,2.39,1.93l1.66,1.3a2.11,2.11,0,0,1,.23.19c.42.31.8.61,1.23.92s.6.46.93.69c1.13.83,2.28,1.65,3.45,2.47l.93.65c.19.12.38.26.58.37.56.38,1.12.76,1.69,1.13l1.76,1.12c.47.3.93.6,1.41.88,1.31.81,2.64,1.59,4,2.36l2.2,1.27,1.63.94.52.31h0l.47.26,0,0a1,1,0,0,1,.2.11l.65.38.74.44c.49.27,1,.55,1.44.84,1,.61,2.08,1.22,3.11,1.84l.33.2L179.9,383a.05.05,0,0,0,0,0l.08.05h0l.19.1a.41.41,0,0,0,.11.07l.06,0,.06,0,0,0,.25.16.22.12.14.08h0l.1.05.17.11.16.1a1.34,1.34,0,0,1,.28.18l.07,0,.34.22.15.08,0,0,.29.18c.65.39,1.28.79,1.93,1.19l1.45.9.45.29a1.74,1.74,0,0,1,.2.13l.15.08.37.23a1.37,1.37,0,0,0,.2.13l.09.06,0,0,0,0s0,0,.05,0l.06,0,.29.18,0,0,0,0,0,0a1.18,1.18,0,0,1,.19.11l.17.1c.18.12.35.24.55.35l.53.35.77.48h0c.63.39,1.22.79,1.82,1.17h0l.89.59.91.59.9.6.44.29c.16.09.29.19.45.29l.45.31,1.3.87c.24.17.49.31.73.49a2.71,2.71,0,0,0,.25.17l.28.19.19.14.35.23c.54.36,1.11.74,1.65,1.12,2.78,1.92,5.46,3.82,8.06,5.73,1.17.86,2.31,1.72,3.45,2.59s2.25,1.7,3.34,2.57l.93.74.7.55c.09.06.16.13.25.2s.16.14.26.21l.41.34c.36.27.7.55,1,.82,1.3,1.06,2.56,2.1,3.8,3.16,1.85,1.57,3.64,3.16,5.39,4.74l1.71,1.59.38.35.36.34c.57.55,1.14,1.08,1.7,1.63.31.31.63.62,1,.92l.29.3,1.23,1.23,1.56,1.6A94.53,94.53,0,0,1,247.75,439.71Z" />
      <path class="BUNTAI_WOLF_OUTFIT_WOLF_OUTFIT_20_cls-6" d="M90.19,378.77c-3.9,6.67-10.6,8.1-14.75,8.29a20.13,20.13,0,0,1-3.67-.15,57.08,57.08,0,0,1-20.64-9.82h0c.24-.62.48-1.24.73-1.86.48-1.17.94-2.34,1.41-3.49l.48-1.15a.85.85,0,0,1,.12-.28c.26-.67.54-1.33.81-2s.61-1.49.93-2.23.62-1.46.91-2.18q1.4-3.24,2.73-6.29.45-1,.9-2c.73-1.64,1.46-3.24,2.16-4.78l.5-1.08A41.37,41.37,0,0,0,79,373.09,46.35,46.35,0,0,0,90.19,378.77Z" />
      <path class="BUNTAI_WOLF_OUTFIT_WOLF_OUTFIT_20_cls-6" d="M48.74,439.12a34,34,0,0,0,7.87-30.49c9.49-8.26,23.54-3.8,23.54-3.8S63.59,419,82,439.72Z" />
      <path class="BUNTAI_WOLF_OUTFIT_WOLF_OUTFIT_20_cls-6" d="M116.33,382.77c8.31-7.09,8.11-28.88-19.64-26.21a30.69,30.69,0,0,1-11.29-.81c-10.63-2.95-14.9-11.93-16.61-18.15l.18-.33.51-1c.12-.21.23-.42.35-.62s.11-.21.15-.31h0c.15-.28.29-.56.45-.82a3.9,3.9,0,0,1,.19-.35c.38-.66.74-1.29,1.09-1.88l.31-.53c.32-.53.62-1,.92-1.47,0,0,0,0,0-.05.18-.28.36-.55.54-.8s.15-.22.21-.33,0,0,0,0a1,1,0,0,1,.12-.16l.09-.12a6.65,6.65,0,0,1,.42-.58,2.51,2.51,0,0,1,.25-.32,2.09,2.09,0,0,1,.23-.29c.08-.09.14-.18.22-.26l.23-.25c.08-.09.16-.17.23-.26l.12-.11h0l.24-.23.13-.12.4-.34c1.44-1.26,2.91-2.47,4.4-3.65a.24.24,0,0,1,.08-.06c.18-.15.35-.3.55-.44l0,0,.08-.05,0,0,.09-.07a196.08,196.08,0,0,1,17.4-10.82l1.12-.64c1.29-.73,2.58-1.44,3.88-2.15,0,.17.09.33.14.51-17.29,7.09-17,21.92-6.45,30.94a31.35,31.35,0,0,0,12.75,6.35C132,351.23,141.37,375.63,116.33,382.77Z" />
      <path class="BUNTAI_WOLF_OUTFIT_WOLF_OUTFIT_20_cls-6" d="M177.1,439.72H98.19l-1.51-.6s-11.34-21.29,6.3-51.89c-.29,1.37-6.94,33.45,21.45,42.57,29,9.32,34.06-26,10.1-31,20.18-8.63,31.53,4.34,34.06,20.32C170,428.27,172.64,434.73,177.1,439.72Z" />
      <path class="BUNTAI_WOLF_OUTFIT_WOLF_OUTFIT_20_cls-6" d="M206.43,432.47a23.23,23.23,0,0,1-6.94,1.13c-9.47,0-16.55-6.9-14.5-20.19,2.51-16.39-15.14-35.54-15.14-35.54l.71-.38c11.21,6.5,21.29,12.81,30.33,19.06a25.27,25.27,0,0,1-4.55,19.94C191.29,423.14,196.34,429.8,206.43,432.47Z" />
      <path class="BUNTAI_WOLF_OUTFIT_WOLF_OUTFIT_20_cls-6" d="M218.91,439.72a40.19,40.19,0,0,0-4-23.89c.47.4,13.48,11.48,17.09,23.89Z" />
      <path class="BUNTAI_WOLF_OUTFIT_WOLF_OUTFIT_20_cls-4" d="M132.41,439.72H95.09c-2.72-10.86-5.74-34.49,10.62-57.47C105.71,382.25,99.8,426.09,132.41,439.72Z" />
      <path class="BUNTAI_WOLF_OUTFIT_WOLF_OUTFIT_20_cls-4" d="M140.2,316.25c-.42,0-.84.05-1.26.06-17.74.4-17.21,15.28-16.47,20.49v0c.14,1,.29,1.67.29,1.73s-.77-1-8.36-10.84A129.17,129.17,0,0,0,97.8,339.56a50.08,50.08,0,0,0-12.4,16.19A101.81,101.81,0,0,0,79,373.08h0c-1.18,4.14-2.35,8.75-3.58,14v0c-.09.39-.19.8-.28,1.2a109.33,109.33,0,0,0-2.5,15.39h0a69.12,69.12,0,0,0,1,20.35s0,0,0,.05,0,.24.07.37.06.35.11.53,0,.13,0,.2,0,.2.08.31,0,.28.09.42.09.29.13.43h0l0,.08c0,.06,0,.12,0,.18a1.58,1.58,0,0,0,.09.31s0,.05,0,.07h0c2.2,8,5.53,11.87,6.31,12.71h0l-50.06.93.77-4.92c1.52-5.67,3.19-11.39,5-17.1.55-1.77,1.12-3.55,1.68-5.32l.87-2.65c.29-.88.59-1.76.87-2.64l.9-2.64c.3-.87.59-1.75.9-2.62,1.5-4.36,3-8.66,4.61-12.86.31-.84.62-1.68.94-2.51h0c.31-.83.62-1.66.94-2.48.86-2.27,1.72-4.5,2.6-6.7.14-.37.29-.73.44-1.1h0c.24-.62.48-1.24.73-1.86.48-1.17.94-2.34,1.41-3.49l.48-1.15a.85.85,0,0,1,.12-.28c.26-.67.54-1.33.81-2s.61-1.49.93-2.23.62-1.46.91-2.18q1.4-3.24,2.73-6.29.45-1,.9-2c.73-1.64,1.46-3.24,2.16-4.78l.5-1.08h0c.06-.1.1-.18.15-.28s.14-.3.21-.45c.27-.6.55-1.19.83-1.77l.41-.86c.67-1.42,1.34-2.78,2-4.07.84-1.69,1.63-3.26,2.4-4.71l.18-.33.51-1c.12-.21.23-.42.35-.62s.11-.21.15-.31h0c.15-.28.29-.56.45-.82a3.9,3.9,0,0,1,.19-.35c.38-.66.74-1.29,1.09-1.88l.31-.53c.32-.53.62-1,.92-1.47,0,0,0,0,0-.05.18-.28.36-.55.54-.8s.15-.22.21-.33,0,0,0,0a1,1,0,0,1,.12-.16l.09-.12a6.65,6.65,0,0,1,.42-.58,2.51,2.51,0,0,1,.25-.32,2.09,2.09,0,0,1,.23-.29c.08-.09.14-.18.22-.26l.23-.25c.08-.09.16-.17.23-.26l.12-.11h0l.24-.23.13-.12.4-.34c1.44-1.26,2.91-2.47,4.4-3.65a.24.24,0,0,1,.08-.06c.18-.15.35-.3.55-.44l0,0,.08-.05,0,0,.09-.07a196.08,196.08,0,0,1,17.4-10.82l1.12-.64c1.29-.73,2.58-1.44,3.88-2.15v0s0,0,0,0c6.88-3.76,13.4-7.1,17.78-9.28l.29-.15.58-.29,1.56-.77.75-.37,1.17-.57.38-.18.26-.13,0,0,.43-.16c1.74,3.19,3.79,6.71,6.18,10.45.32.5.66,1,1,1.52.56.84,1.12,1.69,1.71,2.54l1,1.4Q138.63,314.14,140.2,316.25Z" />
      <path class="BUNTAI_WOLF_OUTFIT_WOLF_OUTFIT_20_cls-7" d="M127.36,296.19c1.74,3.19,3.79,6.71,6.19,10.45l1,1.52c.55.84,1.11,1.69,1.71,2.54l1,1.4q1.43,2,3,4.15c.33.47.7.94,1.06,1.43l1.69,2.19q3,3.84,6.49,7.74c.5.56,1,1.12,1.51,1.67,2.68,2.93,5.56,5.86,8.65,8.75.43.41.88.82,1.33,1.23,1.2,1.09,2.42,2.19,3.68,3.27l.15.13,1.76,1.48,2,1.61L170,347l.44.34c1.29,1,2.61,2,4,3,3,2.15,6,4.22,9.28,6.22.65.42,1.31.81,2,1.21.85.51,1.7,1,2.57,1.5,29.12,16.63,49.52,30.79,65.24,46.64l.08.08h0c.37.37.75.75,1.11,1.14.74.76,1.46,1.52,2.16,2.29,1.74,1.9,3.38,4.82,4.92,6.74h0c1.18,1.49,2.3,3,3.35,4.5" />
      <path class="BUNTAI_WOLF_OUTFIT_WOLF_OUTFIT_20_cls-7" d="M274.61,439.72a62.84,62.84,0,0,0-4.7-11.3c-.33-.62-.65-1.23-1-1.84-1.13-2-2.38-4-3.76-5.93" />
      <path class="BUNTAI_WOLF_OUTFIT_WOLF_OUTFIT_20_cls-7" d="M247.76,439.71a94.62,94.62,0,0,0-11-13.56l-1.56-1.6-1.23-1.23-1.25-1.22c-.56-.55-1.12-1.08-1.7-1.63l-.36-.34-.37-.36-1.72-1.58c-1.74-1.58-3.54-3.17-5.39-4.74-1.24-1.06-2.5-2.1-3.8-3.16-.33-.27-.67-.55-1-.82l-.42-.34-.26-.21-.17-.12-.78-.63-.93-.74c-1.09-.87-2.2-1.73-3.34-2.57s-2.28-1.73-3.45-2.59c-2.6-1.91-5.28-3.81-8.06-5.73-.54-.38-1.1-.76-1.65-1.12l-.35-.23-.19-.14-.28-.19-.25-.17c-.24-.18-.49-.32-.73-.49l-1.3-.87-.45-.31-.44-.29-.44-.29-.91-.6-.9-.59-.9-.59h0c-.6-.38-1.19-.78-1.81-1.17h0l-.77-.48-.54-.35c-.19-.11-.37-.23-.55-.35l0,0-.15-.09-.17-.1h0l0,0,0,0-.29-.18-.06,0s0,0-.05,0l0,0,0,0-.1-.06-.2-.13-.37-.23-.14-.08c-.06-.05-.14-.08-.2-.13l-.46-.29-1.45-.9c-.64-.41-1.28-.8-1.93-1.19l-.29-.18,0,0-.26-.16-.23-.14-.06,0a2.2,2.2,0,0,0-.28-.18l-.17-.1-.17-.11-.11-.06-.14-.08-.21-.13a1.35,1.35,0,0,0-.26-.15l0,0-.06,0-.06,0-.11-.07-.18-.1h0l-.09-.05a.05.05,0,0,1,0,0l-2.38-1.44-.33-.2c-1-.62-2.06-1.23-3.11-1.84-.48-.29-1-.57-1.44-.84l-.74-.44-.64-.38-.2-.11,0,0-.46-.26h0l-.53-.31-1.63-.94-2.2-1.27c-1.34-.77-2.67-1.55-4-2.36-.47-.28-.94-.58-1.4-.88s-1.18-.75-1.76-1.12-1.14-.75-1.7-1.13l-.29-.19-1.22-.83c-1.17-.82-2.32-1.64-3.45-2.47l-.93-.69-1.22-.92-.24-.18-1.66-1.31c-.81-.63-1.61-1.28-2.39-1.93a151.33,151.33,0,0,1-11.3-10.34c-1.18-1.18-2.31-2.37-3.42-3.57l-1.2-1.3c-.86-.95-1.71-1.9-2.53-2.86-.31-.35-.62-.71-.92-1.07-.91-1.07-1.8-2.14-2.66-3.21-.5-.6-1-1.19-1.44-1.79v0l-.27-.35c-.1-.11-.19-.24-.28-.35-.55-.7-1.08-1.39-1.61-2.1l-.79-1.07c-.12-.16-.25-.33-.36-.49s-.29-.39-.42-.58c-.88-1.17-1.71-2.34-2.49-3.5l-.31-.45-.28-.39-.61-.9c-.51-.75-1-1.48-1.47-2.22-.64-.95-1.25-1.91-1.84-2.86-.49-.78-1-1.55-1.43-2.32-1.4-2.31-2.68-4.54-3.83-6.65l-.56-1.05c-.38-.68-.74-1.35-1.07-2l-.52-1c-.06-.14-.14-.28-.21-.42s0,0,0,0" />
      <path class="BUNTAI_WOLF_OUTFIT_WOLF_OUTFIT_20_cls-7" d="M229.16,385.18c-.41-1-.83-1.95-1.28-2.87" />
      <path class="BUNTAI_WOLF_OUTFIT_WOLF_OUTFIT_20_cls-7" d="M212,363.06s9.56,6.1,15.9,19.23" />
      <path class="BUNTAI_WOLF_OUTFIT_WOLF_OUTFIT_20_cls-7" d="M227.87,382.31v0A34.27,34.27,0,0,1,238.19,365" />
      <path class="BUNTAI_WOLF_OUTFIT_WOLF_OUTFIT_20_cls-7" d="M337.07,439.72c5.93-12.2.1-23.11-1.32-31" />
      <path class="BUNTAI_WOLF_OUTFIT_WOLF_OUTFIT_20_cls-7" d="M315.6,295.12v0c-.77,20.34-10.81,43.55-31.7,70.24a90.56,90.56,0,0,0-7.78,11.66c-.18.32-.36.64-.53,1a87.86,87.86,0,0,0-6.07,13.82c-.1.29-.2.58-.29.87-.29.87-.55,1.72-.8,2.57-.12.42-.25.84-.36,1.26q-.52,1.86-.93,3.63c-.12.52-.23,1-.34,1.55s-.22,1-.31,1.51-.21,1.12-.3,1.67c-.24,1.35-.43,2.63-.58,3.84l0,.29c-.07.59-.14,1.16-.19,1.72s-.1,1.08-.14,1.6l0,.38c0,.57-.08,1.11-.1,1.63,0,.35,0,.68,0,1-.05,1.4,0,2.56,0,3.43,0,.23,0,.43,0,.62s0,.35,0,.5,0,.12,0,.18,0,.11,0,.15a3.26,3.26,0,0,0,0,.39h0" />
      <path class="BUNTAI_WOLF_OUTFIT_WOLF_OUTFIT_20_cls-7" d="M343.73,313.82h0l.06.13c-1.14,8.7-8.84,20.09-15.71,40.32a68,68,0,0,0,.1,41.76l.21.6c.07.21.14.41.22.62s.26.68.4,1a35.7,35.7,0,0,0,3.19,6.24l.24.35c.14.21.29.42.44.62l.17.24.31.41.16.21.17.22c.32.41.69.89,1,1.3s.55.71.68.85l.06.06" />
      <path class="BUNTAI_WOLF_OUTFIT_WOLF_OUTFIT_20_cls-7" d="M103.48,387.09a53.18,53.18,0,0,0-8.25,17.74,60.49,60.49,0,0,0,1,34.89" />
      <path class="BUNTAI_WOLF_OUTFIT_WOLF_OUTFIT_20_cls-7" d="M88.76,392.81s6.27,5.72,6.47,12" />
      <path class="BUNTAI_WOLF_OUTFIT_WOLF_OUTFIT_20_cls-7" d="M127.36,296.19l-.43.16,0,0" />
      <path class="BUNTAI_WOLF_OUTFIT_WOLF_OUTFIT_20_cls-7" d="M126.93,296.35l0,0-.26.13-.38.18-1.17.57-.75.37-1.56.77-.58.29-.29.15c-4.37,2.18-10.9,5.52-17.78,9.28h0l-3.88,2.15-1.12.64a197.55,197.55,0,0,0-17.4,10.82l-.09.07,0,0-.07.05-.06,0a47.55,47.55,0,0,0-5.7,4.73l0,0-.08.09h0l-.11.11c-.08.09-.16.17-.23.26a2.77,2.77,0,0,0-.24.25l-.22.26a3.25,3.25,0,0,0-.23.29,3.92,3.92,0,0,0-.25.32c-.14.18-.28.37-.42.58l-.09.12a.91.91,0,0,0-.11.16l0,0-.22.33c-.18.25-.36.52-.53.8,0,0,0,0,0,.05-.3.45-.6.94-.91,1.47-.11.17-.21.35-.32.53-.35.59-.71,1.22-1.09,1.88l-.19.35c-.15.26-.3.54-.45.82h0c0,.1-.11.2-.16.31s-.23.41-.34.62-.35.64-.52,1c-.06.11-.12.22-.17.33q-1.15,2.17-2.41,4.71c-.64,1.29-1.31,2.65-2,4.07l-.41.86c-.28.58-.56,1.17-.83,1.77l-.21.45-.14.28h0c-.17.35-.33.72-.5,1.08-.71,1.54-1.44,3.14-2.17,4.78-.3.66-.59,1.33-.89,2q-1.35,3-2.73,6.29l-.92,2.18-.93,2.23c-.27.65-.55,1.31-.81,2a1.69,1.69,0,0,0-.12.28c-.16.38-.32.76-.47,1.15l-1.42,3.49c-.25.62-.49,1.24-.73,1.86h0c-.15.37-.3.73-.44,1.1q-1.3,3.3-2.6,6.7c-.32.82-.63,1.65-.94,2.48h0c-.32.83-.63,1.67-.94,2.51-1.56,4.2-3.11,8.5-4.61,12.86l-.9,2.62c-.3.88-.6,1.76-.89,2.64l-.88,2.64c-.29.88-.58,1.77-.86,2.65-.57,1.77-1.14,3.55-1.69,5.32-1.78,5.71-3.45,11.43-5,17.1l-.77,4.92h0" />
      <path class="BUNTAI_WOLF_OUTFIT_WOLF_OUTFIT_20_cls-7" d="M315.6,295.15c7.62,5.22,18.78,12.77,28.13,18.67h0" />
    </g>
  </g>
</svg>