<svg xmlns="http://www.w3.org/2000/svg" viewBox="0 0 432 432">
  <defs>
    <style>.BUNTAI_WOLF_OUTFIT_WOLF_OUTFIT_4_cls-1{isolation:isolate;}.BUNTAI_WOLF_OUTFIT_WOLF_OUTFIT_4_cls-2{fill:#11294d;}.BUNTAI_WOLF_OUTFIT_WOLF_OUTFIT_4_cls-3{fill:#567a8a;}.BUNTAI_WOLF_OUTFIT_WOLF_OUTFIT_4_cls-4{fill:#fff;}.BUNTAI_WOLF_OUTFIT_WOLF_OUTFIT_4_cls-5{fill:#ffd9b8;}.BUNTAI_WOLF_OUTFIT_WOLF_OUTFIT_4_cls-6{fill:#d3a67c;}.BUNTAI_WOLF_OUTFIT_WOLF_OUTFIT_4_cls-10,.BUNTAI_WOLF_OUTFIT_WOLF_OUTFIT_4_cls-7,.BUNTAI_WOLF_OUTFIT_WOLF_OUTFIT_4_cls-9{fill:none;}.BUNTAI_WOLF_OUTFIT_WOLF_OUTFIT_4_cls-10,.BUNTAI_WOLF_OUTFIT_WOLF_OUTFIT_4_cls-7{stroke:#000;stroke-linecap:round;stroke-linejoin:round;}.BUNTAI_WOLF_OUTFIT_WOLF_OUTFIT_4_cls-7{stroke-width:1.89px;}.BUNTAI_WOLF_OUTFIT_WOLF_OUTFIT_4_cls-8{opacity:0.43;mix-blend-mode:multiply;}.BUNTAI_WOLF_OUTFIT_WOLF_OUTFIT_4_cls-10{stroke-width:2px;}</style>
  </defs>
  <g class="BUNTAI_WOLF_OUTFIT_WOLF_OUTFIT_4_cls-1">
    <g id="outfit">
      <path class="BUNTAI_WOLF_OUTFIT_WOLF_OUTFIT_4_cls-2" d="M121.64,336.69h0l0,0c-.39.86-.77,1.73-1.14,2.62-.19.45-.38.9-.56,1.35h0c-.26.62-.51,1.26-.75,1.91l-.1.25a1.34,1.34,0,0,1-.07.18h0c-.06.14-.11.27-.16.41l-.3.84-.21.57-.27.75-.06.18c-.2.56-.39,1.12-.58,1.68v0a1.59,1.59,0,0,0-.07.2v0c-1.28,3.83-2.41,7.73-3.39,11.5-.14.53-.27,1.05-.4,1.57-.21.82-.41,1.64-.61,2.45-.44,1.87-.86,3.69-1.23,5.42-.14.65-.27,1.29-.4,1.91s-.24,1.18-.36,1.75c0,.18-.07.35-.1.52-.07.33-.13.66-.19,1l0,.1c-.08.41-.16.81-.23,1.2h0c-.21,1.09-.4,2.12-.56,3.07-.06.32-.11.62-.16.92s-.09.49-.13.73-.11.66-.16,1-.11.68-.16,1-.08.47-.11.69l0,.2s0,.06,0,.09,0,.22-.05.32l0,.23a2,2,0,0,1,0,.24l0,.23,0,.27-.2,1.38c0,.08-.06.16-.08.23v0c-.17.44-.34.87-.5,1.31-.06.14-.11.28-.16.42s-.2.53-.29.79l-.39,1.09c-.06.19-.13.37-.19.56s-.18.5-.25.75a1.18,1.18,0,0,0-.07.2,1.54,1.54,0,0,1,0,.17h0c-.18.56-.36,1.12-.53,1.69s-.33,1.07-.48,1.6-.35,1.21-.51,1.82l-.43.39-.4.38-.25.25-.22.24-.07.07a2.09,2.09,0,0,0-.14.17l-.06.06a6,6,0,0,0-.47.62s0,0,0,0l0,0a2.84,2.84,0,0,0-.38.76.9.9,0,0,0-.06.22.2.2,0,0,0,0,.07.34.34,0,0,0,0,.09.71.71,0,0,0,0,.14.88.88,0,0,0,0,.24,2,2,0,0,0,1.29,1.58,73.17,73.17,0,0,0-1.08,7.56c0,.16,0,.31,0,.47s0,.53-.06.79v0c-.12,1.93-.17,3.87-.12,5.8,0,1.24.09,2.47.2,3.71a.86.86,0,0,0,0,.16c0,.43.08.86.13,1.28s.1.92.17,1.37a.88.88,0,0,0,0,.16c0,.27.07.54.12.8s.08.53.12.8c.09.52.19,1.05.3,1.57s.19.95.3,1.41.27,1.14.42,1.71c.32,1.18.69,2.35,1.1,3.49h0l-.33.11-.64.21a59.57,59.57,0,0,0-8.14-.42l-1,0-.46,0c-.24,0-.49,0-.75,0l-.32,0-1,0-.38,0h-.57l-.52,0-.86,0-.79,0-2.46.13-2.38.13-2.52.13c-.43,0-.87,0-1.3.06l-2,.1c-5.27.25-10.85.47-15.48.52H62c-.1,0-2.13.87-4.83,2l-.78.34-1.24.53-.85.37-.43.19-1.3.56-1.3.57-.86.37-1.66.72-3.51,1.52-.54.23c-.94.39-1.52.63-1.57.63l-.88,0c-.41,0-.83,0-1.24-.06-1-.05-1.95-.14-2.87-.25l-1.48-.19c-.52-.07-1-.16-1.49-.25h0l-1.34-.27-.63-.16a19.3,19.3,0,0,1-2-.57l-.56-.21c-.21-.09-.4-.16-.58-.25l-.4-.18a7.81,7.81,0,0,1-.71-.4,3.13,3.13,0,0,1-.3-.2l-.07-.05a3,3,0,0,1-.33-.27,2.87,2.87,0,0,1-.31-.29,2.26,2.26,0,0,1-.23-.31,1.35,1.35,0,0,1-.18-.33,1.31,1.31,0,0,1-.1-.32,1.24,1.24,0,0,1,0-.33,2.34,2.34,0,0,1,.74-1.56c.65-.69,1.34-1.48,2-2.35l.33-.43c.2-.26.4-.53.59-.8l.57-.84c0-.05.07-.1.1-.16l.38-.6a22.4,22.4,0,0,0,2-4.06l.27-.82s0,0,0,0c.1-.32.19-.65.26-1a2.46,2.46,0,0,0,.07-.29l.09-.46a9.06,9.06,0,0,0,.13-.91c0-.22,0-.43.06-.65a11.71,11.71,0,0,0-.29-3.57c-1.58-6.61-4.24-27,7.4-28.91.52-.08,1-.17,1.51-.27.34-.07-8.79-4-8.46-4.08.81-.17,1.6-.36,2.36-.57a49.61,49.61,0,0,0,9-3.37c-6.12-8.54,7.87-12.18,4.44-16.34a10.9,10.9,0,0,1-2.5-7c0-.29,0-.59,0-.89,0,0,0,0,0-.07,0-.24,0-.48.08-.71a8.81,8.81,0,0,1,.17-.92c0-.12,0-.24.07-.35a5.5,5.5,0,0,1,.16-.58.59.59,0,0,1,.06-.2,2.7,2.7,0,0,1,.16-.48,1.19,1.19,0,0,1,.1-.28c.08-.21.15-.41.24-.61s.15-.34.23-.51c.6-1.28-7.48-7.27-6.51-8.3.1-.11.2-.22.31-.32l.45-.42c.21-.19.42-.37.65-.55a1,1,0,0,1,.15-.11,5.67,5.67,0,0,1,.64-.45c.2-.14.41-.27.62-.39s.25-.15.39-.21.39-.19.58-.28c4.49-2,11.05-.1,17.69,1.89a83.6,83.6,0,0,0-5.15-10.37l0,0c-.12-.23-.23-.45-.36-.68l0,0c-2.07-3.87-4-7.91-4.78-12-2-10.78,23.07-12.74,36.29-12.42h1a55.9,55.9,0,0,0,15.18-1.74l.44-.27c0,.06-.1.13-.16.19a24,24,0,0,0,3.91-1.37.28.28,0,0,0,0,.06l.33,1.5c0,.19.08.38.13.58a167.27,167.27,0,0,0,4.71,16.7l.46,1.31q.43,1.25.9,2.49c.37,1,.76,2,1.17,3q.44,1.08.9,2.16l.08.18c.37.86.76,1.72,1.16,2.56C121.07,335.53,121.35,336.11,121.64,336.69Z" />
      <path class="BUNTAI_WOLF_OUTFIT_WOLF_OUTFIT_4_cls-3" d="M338,394.77a14.92,14.92,0,0,1-1.34,11.12,15.91,15.91,0,0,1-4.52,5.18,17.26,17.26,0,0,1-10.36,3.39c-9.24,0-16.73-7.06-16.73-15.79a15.3,15.3,0,0,1,5.13-11.37,17.19,17.19,0,0,1,11.6-4.42h.32a16.76,16.76,0,0,1,15,9.33A15.28,15.28,0,0,1,338,394.77Z" />
      <path class="BUNTAI_WOLF_OUTFIT_WOLF_OUTFIT_4_cls-4" d="M404.56,410.94c-1.13,6-19,17.82-35.29,17.07-9.87-.45-4.62-4.7-19.29-9.84-6.52-2.27-12.7-4.72-17.85-7.09h0c.47-.35.91-.73,1.34-1.11a16.32,16.32,0,0,0,2.38-2.75,15.5,15.5,0,0,0,2.66-8.54,14.74,14.74,0,0,0-.52-3.9l.43,0h.13a52.86,52.86,0,0,0,5.38.22H344c1,0,2.06,0,3.22-.08,5.26-.24-9.26-1-.1-2.9,25.55-5.23,35.3-16.75,35.3-16.75s8-5.55,11.25-3.63c2.35,1.37,3.3,9.51-1.51,17.12a10.53,10.53,0,0,1,2.53,1.55c.34.53-.56,7.47-.56,7.47s2.51,7.73,7.51,11.4A13.46,13.46,0,0,0,404.56,410.94Z" />
      <path class="BUNTAI_WOLF_OUTFIT_WOLF_OUTFIT_4_cls-5" d="M285,357.56l8.75-6.29c6.43,6.74,16,14.67,21.24,20.3,4.75,5.15,6.48,9.08,7.1,11.32h-.32a17.19,17.19,0,0,0-11.6,4.42c-4.78-5.52-15.78-17.21-26.65-21.48.07-2.28-.37-4.49-1.88-5.84Z" />
      <path class="BUNTAI_WOLF_OUTFIT_WOLF_OUTFIT_4_cls-2" d="M322.2,365.82c10.27,8.74,15.7,19,14.83,26.4a15.28,15.28,0,0,1,.94,2.55,61.47,61.47,0,0,0,9.23.19,96.77,96.77,0,0,0-3.19-9.48s-3.83-29-13-48.79c0,0-3.85-8.22-10.85-6.4s-18.43,15.57-18.43,15.57A224.33,224.33,0,0,0,322.2,365.82Z" />
      <path class="BUNTAI_WOLF_OUTFIT_WOLF_OUTFIT_4_cls-2" d="M350,418.17a50.71,50.71,0,0,1-3.07,15.08,48.41,48.41,0,0,1-11.65,17.31,116.43,116.43,0,0,1-15.33,12.09c-24.88,14.7-58.77,5.36-88.4-6.16-26.22,24.11-98.82,6.16-98.82,6.16a117.76,117.76,0,0,1-15.33-12.09A48.83,48.83,0,0,1,106,433.88l.58-.33.53-.29.33-.18a4.13,4.13,0,0,1,.37-.2l.4-.22.94-.51c.16-.1.34-.19.52-.28s.24-.14.37-.2l2.49-1.33.75-.39a3.68,3.68,0,0,1,.44-.23l.74-.4,1.29-.67L117,428c1.68-.87,3.55-1.82,5.58-2.85.35-.17.7-.36,1.06-.53,2.14-1.08,4.47-2.24,7-3.45l2.3-1.12,6.2-3c.77-.35,1.54-.72,2.33-1.1l2.21-1,2.27-1.05.8-.37c1.67-.77,3.37-1.55,5.13-2.34l3.55-1.6,5.54-2.44c1.88-.83,3.81-1.66,5.77-2.5l3-1.27,1.87-.78q2.58-1.09,5.25-2.19a4.22,4.22,0,0,1,.45-.18c1-.41,1.94-.8,2.92-1.2s2-.8,3-1.2l2.71-1.08,2.28-.87,3.17-1.18,2.74-1,2.61-.9c1.32-.46,2.65-.91,4-1.34s2.92-.94,4.38-1.4,2.92-.9,4.36-1.33l3.26-.95,1.62-.46c5.31-1.5,10.52-2.85,15.55-4.05l.16,0q3.38-.81,6.63-1.52c.65-.15,1.31-.3,2-.43l2.11-.46,3.22-.67c4-.8,7.69-1.52,11.19-2.14h0c3-.53,5.79-1,8.37-1.41l2.05-.33,1.34-.2,2.54-.38c7.7-1.12,12.32-1.57,12.32-1.57a28.37,28.37,0,0,0,1.8-8.32c10.86,4.27,21.87,16,26.65,21.48A15.3,15.3,0,0,0,305,398.67c0,8.72,7.49,15.79,16.73,15.79a17.22,17.22,0,0,0,9.5-2.8l.32-.21.54-.38h0C337.28,413.45,343.46,415.9,350,418.17Z" />
      <path class="BUNTAI_WOLF_OUTFIT_WOLF_OUTFIT_4_cls-5" d="M228.19,310.5a9.36,9.36,0,0,0-.77-1.47,13.08,13.08,0,0,0-1-1.35,14.78,14.78,0,0,0-2.5-2.3,10.76,10.76,0,0,0-5.12-2.19,6,6,0,0,0-5.12,1.79,4.23,4.23,0,0,0-.43,4.83,4.8,4.8,0,0,0,4.58,2.21,3.4,3.4,0,0,1-.28.87,3.11,3.11,0,0,1-.22.4,3.18,3.18,0,0,1-.27.37,2.51,2.51,0,0,1-.31.35,2,2,0,0,1-.26.24l-.21.18s0,0-.06,0l-.25.19a2.2,2.2,0,0,1-.25.17,1,1,0,0,1-.24.14,2,2,0,0,1-.32.18,2.77,2.77,0,0,1-.46.22c-.31.13-.64.24-1,.34s-.43.11-.64.15a.83.83,0,0,1-.22,0,4.69,4.69,0,0,1-.64.09l-.49,0a7.89,7.89,0,0,1-6.44-3.55,11,11,0,0,1-1.62-7.07,13.79,13.79,0,0,1,1.18-4.54,28.84,28.84,0,0,0-4.36-2.25c-.55-.24-1.13-.48-1.73-.71l-1.86-.69c-7-2.51-16.17-4.79-24.26-7.54-.43-.14-.85-.29-1.28-.45l-1.28-.49-1.25-.5c-.56-.23-1.11-.46-1.66-.71-1-.45-2.06-.93-3.08-1.44-.47-.22-1-.46-1.42-.71-1.4-.71-2.8-1.47-4.17-2.26-.46-.26-.92-.52-1.37-.8-1.52-.89-3-1.82-4.46-2.76-.5.51-1,1-1.52,1.5,0,0,0,0,0,0-.5.48-1,.94-1.52,1.39s-1.1,1-1.65,1.43a74.37,74.37,0,0,1-7.63,5.57l-.06,0c-1.27.81-2.51,1.55-3.67,2.21a68.46,68.46,0,0,1-9.31,4.47l-.69.34-.38.18-1.17.57-.75.37-1.56.77-.58.29-.29.15c-2.88,1.44-6.7,3.38-10.94,5.61a.28.28,0,0,0,0,.06l.33,1.5c0,.19.08.38.13.58a167.27,167.27,0,0,0,4.71,16.7l.46,1.31q.43,1.25.9,2.49c.37,1,.76,2,1.17,3q.44,1.08.9,2.16l.08.18c.37.86.76,1.72,1.16,2.56.27.59.55,1.17.84,1.75h0l0,0c-.39.86-.77,1.73-1.14,2.62-.19.45-.38.9-.56,1.35h0c-.2.5-.39,1-.58,1.49l-.17.42-.1.25a1.34,1.34,0,0,1-.07.18h0l-.15.41h0l-.3.84-.21.57-.27.75-.06.18c-.2.56-.39,1.12-.58,1.68v0a1.59,1.59,0,0,0-.07.2v0c-1.28,3.83-2.41,7.73-3.39,11.5-.14.53-.27,1.05-.4,1.57-.21.82-.41,1.64-.61,2.45-.44,1.87-.86,3.69-1.23,5.42-.14.65-.27,1.29-.4,1.91s-.24,1.18-.36,1.75c0,.18-.07.35-.1.52-.07.33-.13.66-.19,1l0,.1c-.08.41-.16.81-.23,1.2l0,0c.81-.81,1.68-1.7,2.61-2.65l1.43-1.49.74-.78.7-.74.45-.48.27-.3c.75-.8,1.51-1.62,2.28-2.47s1.75-1.93,2.63-2.94l.81-.94c.12-.13.25-.28.36-.42l.84-1,.3-.35,1.29-1.54,1.32-1.6.81-1c.54-.67,1.07-1.35,1.6-2,.2-.25.4-.51.59-.77.58-.78,1.16-1.55,1.72-2.33a.83.83,0,0,0,.11-.15l.94-1.31c.32-.45.64-.9.95-1.36.07-.1.14-.21.22-.31.21-.3.41-.59.6-.89l.36-.54.34-.53a.57.57,0,0,0,.08-.13,1.4,1.4,0,0,0,.1-.16l0-.06c.06-.1.12-.2.19-.3s0,0,0,0a2.38,2.38,0,0,0,.18-.3s0,0,0,0c.34-.55.67-1.11,1-1.67.16-.29.33-.58.48-.87l.14-.24a2.79,2.79,0,0,0,.18-.34c.06-.11.11-.23.17-.34l.37-.72a.6.6,0,0,0,.06-.11c.1-.19.19-.38.28-.58a1.76,1.76,0,0,0,.09-.2c.14-.3.27-.59.4-.89a1.54,1.54,0,0,1,.08-.19c.24-.52.45-1,.66-1.54l.05-.11c.09-.22.18-.43.26-.65s.19-.51.28-.76c0,0,0,0,0,0a.16.16,0,0,0,0-.1q.13-.34.24-.69c.06-.17.11-.33.17-.49v0c.06-.17.12-.34.17-.51a.29.29,0,0,0,0-.09c.12-.37.23-.73.33-1.1s.21-.72.3-1.07l.06-.22a1.05,1.05,0,0,0,.06-.24,2.79,2.79,0,0,0,.1-.39c0-.09,0-.17.05-.25s.07-.26.1-.38.1-.4.13-.6a.17.17,0,0,1,0-.07l.06-.31c0-.2.09-.41.13-.61s.08-.41.11-.61.08-.48.11-.73c.07-.41.13-.81.18-1.21s.09-.79.12-1.18.05-.54.06-.8a4.63,4.63,0,0,0,0-.51c0-.15,0-.31,0-.46,0-.41,0-.82,0-1.22,0-.23,0-.46,0-.69a2.71,2.71,0,0,0,0-.29c0-.13,0-.26,0-.39v0c0-.3,0-.61-.07-.9,0,0,0-.08,0-.12l-.06-.64v0s0,0,0-.06a.51.51,0,0,0,0-.13c0-.06,0-.12,0-.18v0s0-.07,0-.11l-.06-.42s0-.07,0-.11,0-.24-.07-.36a1.6,1.6,0,0,1-.05-.21,1.91,1.91,0,0,0-.06-.33c0-.11,0-.21-.08-.32s-.09-.36-.14-.53-.09-.34-.14-.51-.11-.33-.17-.49a9.24,9.24,0,0,0-.36-.92c-.08-.18-.16-.36-.25-.54l-.22-.43-.05-.07a.08.08,0,0,0,0,0,3.45,3.45,0,0,0-.2-.32l-.24-.35a3.44,3.44,0,0,0-.28-.36l-.23-.27a2.44,2.44,0,0,0-.27-.29c-.16-.15-.31-.28-.47-.41l0,0h0l0,0,0,0h0l-.05,0,0,0-.05,0a.15.15,0,0,1-.06,0l0,0-.06,0a2,2,0,0,0-.27-.17l-.33-.18a4.65,4.65,0,0,0-.7-.28l0,0-.13,0-.23-.06-.27-.05-.23,0-.3,0h-.67c-.26,0-.52,0-.78.08s-.44.06-.65.1l-.09,0a12,12,0,0,0-1.4.39l-.66.26a10.74,10.74,0,0,0-1.22.62l-.38.24-.36.25c-.24.16-.47.34-.7.52l-.56.48c-.12.1-.23.21-.34.32l-.34.34a3.61,3.61,0,0,0-.33.35c-.14.16-.28.31-.41.47s-.45.56-.66.84-.6.85-.85,1.26c-.13.2-.25.41-.36.61s-.23.4-.33.59l-.22.44-.2.41c-.13.27-.24.52-.34.75-.26.58-.42,1-.51,1.3s-.06.18-.07.22.06-.3.14-.64c0-.11.06-.23.09-.37s.08-.28.12-.44.08-.33.14-.51c.2-.72.47-1.6.81-2.56.13-.37.27-.74.42-1.13.25-.64.54-1.3.85-2l.39-.81h0c.15-.27.29-.54.43-.81s.3-.55.46-.82l.49-.81.13-.2c.22-.33.45-.66.68-1s.38-.52.58-.76.4-.5.62-.74.36-.39.54-.57l.12-.12.25-.24c.19-.19.38-.36.58-.53l.44-.36a5.3,5.3,0,0,1,.45-.34l.36-.25.37-.24.42-.25.42-.23a4.39,4.39,0,0,1,.44-.21l.45-.2.54-.2.58-.19.42-.1.49-.11c.21,0,.44-.08.66-.1a6.48,6.48,0,0,1,.77-.07l.63,0h.1c11.87.11,16.61,23.8,6.78,42.68-1,1.85-2,3.64-3,5.38-.43.71-.87,1.41-1.31,2.1l-.76,1.18c-.65,1-1.3,1.95-2,2.89s-1.29,1.81-1.93,2.68l-1.57,2.07c-.52.67-1,1.32-1.55,2-.64.8-1.27,1.57-1.9,2.31-.37.45-.74.88-1.11,1.31-.12.14-.25.28-.36.42l-.93,1.05c-.75.85-1.48,1.65-2.18,2.39l-.56.6c-.7.74-1.36,1.43-2,2l-.4.4-.86.86-.16.16-1.15,1.11-.25.24-.23.21c-.74.7-1.18,1.09-1.26,1.16h0s.28,4.72.56,7.79a325.26,325.26,0,0,1,30.37-14.67c4.19-1.72,8.73-3.3,13.17-4.69,1-.33,2.07-.65,3.09-1l.21-.06,1.63-.48,1.6-.46c.45-.13.89-.26,1.32-.37l1.53-.42c1-.29,2-.56,3-.8l.95-.25c2.22-.58,4.25-1.08,6-1.49l.54-.13,1.21-.28.55-.13.53-.12.77-.18.38-.08.36-.08.27-.06.22-.05.24,0,.26-.06.44-.1.34-.07.38-.08c0-.36-.06-.72-.08-1.08s0-.74,0-1.11,0-.6,0-.89,0-.63.07-.95c0-.13,0-.25,0-.37s0-.42.09-.63.11-.68.18-1,.08-.37.12-.56a2,2,0,0,1,.07-.26c.06-.22.12-.45.19-.67a4.16,4.16,0,0,1,.16-.5c.08-.24.16-.48.26-.72,0-.08.07-.17.11-.25a1.42,1.42,0,0,1,.08-.18c.08-.19.16-.37.25-.55.16-.35.34-.69.53-1l.27-.44,0-.06s0,0,0,0l.17-.25a.05.05,0,0,0,0,0,11.28,11.28,0,0,1,.78-1c.15-.18.3-.35.46-.52s.42-.42.64-.62.45-.38.69-.55a10.71,10.71,0,0,1,.9-.59,3,3,0,0,1,.34-.2c.14-.09.3-.16.45-.25l.77-.38.86-.38.87-.36,1.25-.49c.57-.22,1.13-.43,1.69-.66.34-.13.68-.28,1-.42a2.28,2.28,0,0,0,.4-.17q.36-.15.72-.33l.2-.1.07,0,.11-.05.16-.09.23-.12s0,0,0,0l.07,0c.26-.14.52-.3.78-.46s.5-.34.74-.52l.25-.2h0s0,0,0,0a7.24,7.24,0,0,0,.94-1c.17-.22.34-.45.5-.69a10,10,0,0,0,.76-1.41,4.4,4.4,0,0,0,.21-.5c.13-.3.24-.61.35-.92s.25-.74.36-1.11c0-.13.08-.25.11-.38s0,0,0-.05c.13-.42.25-.84.38-1.26.08-.26.15-.52.24-.77s.1-.33.16-.49v0s0-.05,0-.08a1.43,1.43,0,0,1,.08-.22c0-.07.05-.14.07-.21a4.08,4.08,0,0,1,.17-.42,1.11,1.11,0,0,1,.07-.16c.1-.26.22-.51.34-.76l.06-.11c.09-.18.19-.36.29-.53l.18-.29.11-.17a2.26,2.26,0,0,1,.26-.37c1.89-2.52,5.06-3.83,8-5.16l.54-.25.78-.37a2.59,2.59,0,0,0,.33-.17c.19-.09.37-.19.55-.29l.16-.08.78-.44.12-.08a2.26,2.26,0,0,0,.26-.16.18.18,0,0,0,.08-.05,3.41,3.41,0,0,0,.42-.28.23.23,0,0,0,.1-.07l.16-.11.06,0a2.43,2.43,0,0,0,.32-.24l.37-.3.27-.23a6.21,6.21,0,0,0,.59-.56,3.8,3.8,0,0,0,.33-.37,6.54,6.54,0,0,0,.41-.51,3.71,3.71,0,0,0,.28-.41l0,0c0-.08.09-.15.13-.22l0,0s0-.08.07-.13v0l.05-.08a2.81,2.81,0,0,0,.14-.26h0A8,8,0,0,0,228.19,310.5ZM126,335.74c0-.12,0-.25,0-.38s0-.26,0-.4,0-.45.06-.68c0,0,0,0,0-.07a3.62,3.62,0,0,1,.06-.46,1.1,1.1,0,0,1,0-.18c0-.2.06-.4.09-.6s0-.12,0-.18c.06-.33.13-.64.2-1s.15-.67.24-1,.11-.42.18-.63.1-.36.16-.53l.12-.36c.09-.27.19-.54.29-.8a1.34,1.34,0,0,1,.07-.18c.09-.23.18-.46.28-.68a16.08,16.08,0,0,1,1.4-2.62,6.91,6.91,0,0,1,.44-.62c.11-.14.22-.28.34-.41a4.17,4.17,0,0,1,.34-.38h0l0,0,.21-.2s0,0,0,0h0a3,3,0,0,1,.28-.25L131,323a3.53,3.53,0,0,1,.89-.54l.26-.1h0l.13,0a.93.93,0,0,1,.23,0,1.62,1.62,0,0,1,.38,0c2.4.1,3.38,4.56,2.2,10-.08.38-.17.75-.28,1.12s-.19.66-.29,1-.16.51-.25.75a.61.61,0,0,1-.05.12,2.19,2.19,0,0,1-.12.33.49.49,0,0,1,0,.11c-.1.26-.2.51-.31.75s-.24.55-.37.82-.4.77-.61,1.12l-.21.35a11.87,11.87,0,0,1-.7,1l-.08.1-.05.07,0,0,0,0h0l0,0,0,.05,0,.06-.07.07a.69.69,0,0,0-.11.13l0,.05-.32.33h0l-.35.31a3.52,3.52,0,0,1-.58.42c-.08.05-.16.08-.24.12a2.88,2.88,0,0,1-.59.23,1.5,1.5,0,0,1-.29.06l-.26,0h-.08a.85.85,0,0,1-.23,0,1.59,1.59,0,0,1-.33-.09l-.11-.05-.25-.13-.24-.18-.15-.15a.43.43,0,0,1-.11-.12c0-.06-.11-.12-.16-.19a3.17,3.17,0,0,1-.37-.63c-.06-.12-.11-.24-.16-.37s-.1-.26-.14-.4,0-.18-.08-.27-.12-.47-.17-.72a.13.13,0,0,1,0-.06c0-.24-.08-.5-.1-.76s0-.53-.06-.81c0-.11,0-.23,0-.36s0-.24,0-.37Z" />
      <path class="BUNTAI_WOLF_OUTFIT_WOLF_OUTFIT_4_cls-6" d="M135.15,332.2c1.18-5.4.2-9.86-2.2-10s-5.29,4.18-6.47,9.58-.2,9.86,2.19,10S134,337.59,135.15,332.2Z" />
      <path class="BUNTAI_WOLF_OUTFIT_WOLF_OUTFIT_4_cls-6" d="M322.2,365.82a224.33,224.33,0,0,1-20.46-20s11.42-13.76,18.43-15.57,10.85,6.4,10.85,6.4a55.68,55.68,0,0,0,2.63-6.17c-8.2-14-29.65-2.69-46.15,12.25.8,2.31,3.15,5.26,6.22,8.5,6.44,6.74,16,14.67,21.25,20.3,4.75,5.15,6.48,9.08,7.1,11.32a16.76,16.76,0,0,1,15,9.33C337.9,384.81,332.47,374.56,322.2,365.82Z" />
      <path class="BUNTAI_WOLF_OUTFIT_WOLF_OUTFIT_4_cls-6" d="M297,280.68h0a7.89,7.89,0,0,1-.81.52l0,0h0l0,0h-.05c-.6.36-1.21.71-1.82,1.05s-1.23.67-1.85,1l-.93.45-.93.42c-.56.25-1.12.48-1.68.68-.26.11-.53.21-.79.3s-.65.23-1,.33c-13.34,4.27-20.26,10.11-20.26,10.11a9.47,9.47,0,0,0-8-.6,17.63,17.63,0,0,0-10.65,9.89,16.92,16.92,0,0,0-1,3c-.09.35-.16.71-.23,1.06H236.77a16,16,0,0,0-1.7-4.07c-2.95-5-8.43-8.51-14.35-9.89-3.54-.84-7.5-.9-10.71.6,0,0-9.33-5.84-27.31-10.11a44.44,44.44,0,0,1-4.28-1.25c-.58-.2-1.17-.41-1.75-.63l-.88-.34c-.88-.35-1.76-.72-2.65-1.11s-2.06-.95-3.1-1.45-2.06-1-3.09-1.59c-.58-.31-1.17-.63-1.75-1l-1.74-1c-.57-.33-1.15-.67-1.72-1-.85-.51-1.69-1-2.53-1.56l-.38-.24-.34-.21-.08-.05-.08-.05-.09-.07-.51-.34h0a52.55,52.55,0,0,1-5,5.91c1.45.94,2.94,1.87,4.46,2.76l1.37.8c1.37.79,2.77,1.55,4.17,2.26.47.25.94.48,1.42.71,1,.51,2,1,3.08,1.44.55.25,1.1.48,1.66.71l1.25.5,1.28.49c.43.16.85.31,1.28.45,8.09,2.75,17.24,5,24.26,7.54l1.86.69c.6.23,1.18.47,1.73.71a28.84,28.84,0,0,1,4.36,2.25,13.79,13.79,0,0,0-1.18,4.54,11,11,0,0,0,1.62,7.07,7.89,7.89,0,0,0,6.44,3.55l.49,0a4.69,4.69,0,0,0,.64-.09.83.83,0,0,0,.22,0c.21,0,.43-.09.64-.15s.65-.21,1-.34l.46-.22a2,2,0,0,0,.32-.18l.24-.14a2.2,2.2,0,0,0,.25-.17l.25-.19s0,0,.06,0l.21-.18a2,2,0,0,0,.26-.24c.11-.11.21-.23.31-.35a3.18,3.18,0,0,0,.27-.37c.08-.13.15-.26.22-.4a3.4,3.4,0,0,0,.28-.87,4.8,4.8,0,0,1-4.58-2.21,4.23,4.23,0,0,1,.43-4.83,6,6,0,0,1,5.12-1.79,10.76,10.76,0,0,1,5.12,2.19,14.78,14.78,0,0,1,2.5,2.3,13.08,13.08,0,0,1,1,1.35,9.36,9.36,0,0,1,.77,1.47,8,8,0,0,1,0,6.42h0a2.81,2.81,0,0,1-.14.26l-.05.08v0c0,.05-.05.09-.07.13l0,0c0,.07-.09.14-.13.22l0,0a3.71,3.71,0,0,1-.28.41,4,4,0,0,1-.41.51,3.8,3.8,0,0,1-.33.37,6.21,6.21,0,0,1-.59.56l-.27.23-.37.3a2.43,2.43,0,0,1-.32.24l-.06,0h0l-.16.1a.23.23,0,0,1-.1.07,3.07,3.07,0,0,1-.42.28.18.18,0,0,1-.08.05,2.26,2.26,0,0,1-.26.16l-.12.08-.78.44-.16.08c-.18.1-.36.2-.55.29a2.59,2.59,0,0,1-.33.17l-.78.37-.54.25c-3,1.33-6.12,2.64-8,5.16a2.26,2.26,0,0,0-.26.37l-.11.17-.18.29c-.1.17-.2.35-.29.53l-.06.11c-.12.25-.24.5-.34.76a1.11,1.11,0,0,0-.07.16,4.08,4.08,0,0,0-.17.42c0,.07,0,.14-.07.21a1.43,1.43,0,0,0-.08.22s0,.05,0,.08v0c-.06.16-.11.32-.16.49l-.24.77c-.13.42-.25.84-.38,1.26,0,0,0,0,0,.05s-.07.25-.11.38q-.17.56-.36,1.11c-.11.31-.22.62-.35.92a4.4,4.4,0,0,1-.21.5,10,10,0,0,1-.76,1.41c-.16.24-.32.47-.5.69a7.24,7.24,0,0,1-.94,1s0,0,0,0h0l-.25.2c-.24.18-.48.36-.74.52s-.51.31-.78.46l-.07,0s0,0,0,0l-.23.12-.16.09-.11.06-.07,0-.2.1q-.36.18-.72.33a2.28,2.28,0,0,1-.4.17c-.32.14-.66.29-1,.42-.56.23-1.12.44-1.69.66l-1.25.49-.87.36-.86.38-.77.38c-.15.09-.31.16-.45.25a3,3,0,0,0-.34.2,3.28,3.28,0,0,0-.31.2c-.2.12-.4.25-.59.39s-.47.36-.69.55-.44.4-.64.62-.31.34-.46.52a11.28,11.28,0,0,0-.78,1,.05.05,0,0,1,0,0l-.17.25s0,0,0,0l0,.06-.27.44c-.19.33-.37.67-.53,1-.09.18-.17.36-.25.55a1.42,1.42,0,0,0-.08.18c0,.08-.07.17-.11.25-.1.24-.18.48-.26.72s-.11.33-.16.5-.13.45-.19.67a2,2,0,0,0-.07.26c0,.19-.09.37-.12.56s-.13.68-.18,1-.06.42-.09.63,0,.24,0,.37c0,.32-.05.63-.07.95s0,.59,0,.89,0,.74,0,1.11,0,.72.08,1.08l-.38.08-.34.07-.44.1-.26.06-.24,0-.22.05-.27.06-.36.08-.38.08-.77.18-.53.12-.55.13-1.21.28-.54.13c-1.74.41-3.77.91-6,1.49l-.95.25c-1,.24-2,.51-3,.8l-1.53.42c-.43.11-.87.24-1.32.37l-1.6.46-1.63.48-.21.06c-1,.3-2.05.62-3.09,1-4.44,1.39-9,3-13.17,4.69a325.26,325.26,0,0,0-30.37,14.67c-.28-3.07-.56-7.79-.56-7.79h0c.08-.07.52-.46,1.26-1.16l.23-.21h0l.25-.23,1.15-1.11.16-.16.86-.86.4-.4c.61-.62,1.27-1.31,2-2l.56-.6c.7-.74,1.43-1.54,2.18-2.39l.93-1.05c.11-.14.24-.28.36-.42.36-.43.74-.86,1.11-1.31.63-.74,1.26-1.51,1.9-2.31.51-.64,1-1.29,1.55-2l1.57-2.07c.64-.87,1.29-1.76,1.93-2.68s1.31-1.9,2-2.89l.76-1.18c.44-.69.88-1.39,1.31-2.1,1-1.74,2.07-3.53,3-5.38,9.83-18.88,5.09-42.57-6.78-42.68h-.1l-.63,0a6.48,6.48,0,0,0-.77.07c-.22,0-.45.06-.66.1l-.49.11-.42.1-.58.19-.54.2-.45.2a4.39,4.39,0,0,0-.44.21l-.42.23-.42.25-.37.24-.36.25a5.3,5.3,0,0,0-.45.34l-.44.36c-.2.17-.39.34-.58.53l-.25.24-.12.12c-.18.18-.36.38-.54.57s-.42.49-.62.74-.39.5-.58.76-.46.65-.68,1l-.13.2-.49.81c-.16.27-.31.54-.46.82s-.28.54-.43.81h0l-.39.81c-.31.68-.6,1.34-.85,2-.15.39-.29.76-.42,1.13-.34,1-.61,1.84-.81,2.56,0,.18-.1.35-.14.51s-.08.3-.12.44-.06.26-.09.37c-.08.34-.12.56-.14.64s0-.11.07-.22.25-.72.51-1.3c.1-.23.21-.48.34-.75a3.07,3.07,0,0,1,.2-.41c.06-.14.14-.29.22-.44s.21-.39.33-.59.23-.41.36-.61c.25-.41.54-.84.85-1.26s.43-.56.66-.84.26-.31.41-.47a3.61,3.61,0,0,1,.33-.35l.34-.34c.11-.11.22-.22.34-.32l.56-.48c.23-.18.46-.36.7-.52l.36-.25.38-.24a10.74,10.74,0,0,1,1.22-.62l.66-.26a10.28,10.28,0,0,1,1.4-.39l.09,0c.21,0,.43-.08.65-.1s.52-.06.78-.08h.67l.3,0,.23,0,.27.05.23.06.13,0,0,0a4.65,4.65,0,0,1,.7.28,2.11,2.11,0,0,1,.33.18,2,2,0,0,1,.27.17l.06,0,0,0a.15.15,0,0,0,.06,0l.05,0,0,0,.05,0h0l0,0,0,0,0,0c.16.13.31.26.47.41a2.44,2.44,0,0,1,.27.29l.23.27a3.44,3.44,0,0,1,.28.36l.24.35a3.45,3.45,0,0,1,.2.32.08.08,0,0,1,0,0l.05.07.22.43c.08.16.16.32.23.48a.14.14,0,0,1,0,.06h0c.06.14.13.29.19.45s.11.31.16.47.12.32.17.49.1.33.14.51.05.17.08.26l.06.27c0,.11.06.21.08.32a1.91,1.91,0,0,1,.06.33,1.6,1.6,0,0,0,.05.21c0,.12,0,.24.07.36s0,.07,0,.11l.06.42s0,.07,0,.11v0l0,.2a.51.51,0,0,1,0,.13s0,0,0,.06v0l.06.64s0,.08,0,.12c0,.29.05.6.07.9v0c0,.13,0,.26,0,.39a2.71,2.71,0,0,1,0,.29c0,.23,0,.46,0,.69,0,.4,0,.81,0,1.22,0,.15,0,.31,0,.46a4.63,4.63,0,0,1,0,.51c0,.26,0,.53-.06.8s-.07.78-.12,1.18-.09.7-.15,1.06-.09.58-.14.88-.07.41-.11.61-.09.41-.13.61l-.06.31a.17.17,0,0,0,0,.07c0,.2-.08.4-.13.6s-.06.25-.1.38-.09.42-.15.64a1.05,1.05,0,0,1-.06.24l-.06.22c-.09.35-.19.71-.3,1.07s-.21.73-.33,1.1a.29.29,0,0,1,0,.09c-.06.16-.11.34-.17.51v0c0,.15-.09.29-.14.43a.09.09,0,0,1,0,.06q-.1.35-.24.69a.26.26,0,0,1,0,.1s0,0,0,0c-.09.25-.19.5-.28.76s-.17.43-.26.65l-.05.11c-.21.51-.42,1-.66,1.54a1.54,1.54,0,0,0-.08.19c-.13.3-.26.59-.4.89a1.76,1.76,0,0,1-.09.2,6.19,6.19,0,0,1-.28.58.6.6,0,0,1-.06.11l-.37.72c-.06.11-.11.23-.17.34a2.79,2.79,0,0,1-.18.34l-.14.24c-.15.29-.32.58-.48.87-.31.56-.64,1.12-1,1.67,0,0,0,0,0,0a2.38,2.38,0,0,1-.18.3s0,0,0,0-.13.2-.19.3l0,.06a1.4,1.4,0,0,1-.1.16.57.57,0,0,1-.08.13l-.34.53-.36.54c-.19.3-.39.59-.6.89-.08.1-.15.21-.22.31-.31.46-.63.91-.95,1.36l-.94,1.31a.83.83,0,0,1-.11.15c-.56.78-1.14,1.55-1.72,2.33-.19.26-.39.52-.59.77-.53.69-1.06,1.37-1.6,2l-.81,1-1.32,1.6-1.29,1.54-.3.35-.84,1c-.11.14-.24.29-.36.42l-.81.94c-.88,1-1.76,2-2.63,2.94s-1.53,1.67-2.28,2.47l-.27.3-.45.48c-.23.25-.46.5-.7.74l-.74.78L113,372.47c-.93.95-1.8,1.84-2.61,2.65l0,0h0c-.21,1.09-.4,2.12-.56,3.07-.06.32-.11.62-.16.92s-.09.49-.13.73-.11.66-.16,1-.11.68-.16,1-.08.47-.11.69l0,.2s0,.06,0,.09,0,.22-.05.32l0,.23a2,2,0,0,1,0,.24l0,.23,0,.27-.2,1.38c0,.08-.06.16-.08.23v0c-.17.44-.34.87-.5,1.31-.06.14-.11.28-.16.42s-.2.53-.29.79l-.39,1.09c-.06.19-.13.37-.19.56s-.17.5-.25.75a1.18,1.18,0,0,0-.07.2,1.54,1.54,0,0,1,0,.17c-.19.56-.37,1.13-.54,1.69s-.33,1.07-.48,1.6-.35,1.21-.51,1.82l-.43.39-.4.38-.25.25-.22.24h0l-.06.07a2.09,2.09,0,0,0-.14.17h0l0,.06a6,6,0,0,0-.47.62s0,0,0,0l0,0a2.84,2.84,0,0,0-.38.76.9.9,0,0,0-.06.22.2.2,0,0,0,0,.07s0,.07,0,.09a.71.71,0,0,0,0,.14.88.88,0,0,0,0,.24,2,2,0,0,0,1.29,1.58,4.7,4.7,0,0,0,2.71,0,52.33,52.33,0,0,0-.1,15.77h0a43.7,43.7,0,0,0,2.13,8.5l-1.09.79-.91.68-1,.82-.27.22-.23.19-.32.27-.39.35c.32,1.18.69,2.35,1.1,3.49.09.22.16.45.25.67h0c.07.21.16.41.24.62h0l.58-.33.52-.29.33-.18.14-.07,1.57-.86c.16-.1.34-.19.52-.28l.27-.14.1-.06.49-.26.08,0,.22-.12,1.71-.91.74-.39c1.75-.93,3.82-2,6.16-3.2l.13-.06.12-.07.16-.08,2.77-1.4,1-.53,2.68-1.34,1.25-.62q4.44-2.19,9.66-4.69l.76-.36.74-.35.91-.43.75-.35.11-.05.45-.22.3-.14.2-.09.39-.19,1.64-.76h0l.61-.29,1.28-.59.09,0,.42-.2c1.81-.83,3.67-1.69,5.59-2.55l3.13-1.41.17-.08,1.91-.85.55-.24.87-.39,1.36-.6,1.44-.63.16-.07.06,0,1.51-.66.17-.07,1.93-.83q4.56-2,9.4-4c.87-.37,1.75-.74,2.64-1.1a3.66,3.66,0,0,1,.46-.18c1-.41,1.94-.8,2.92-1.2l3-1.2q1.35-.56,2.7-1.08l1.64-.62.64-.25,1.35-.5.19-.07,1.64-.61,2.73-1h0c.74-.26,1.46-.52,2.19-.76,2.92-1,5.85-2,8.77-2.88,1.46-.46,2.91-.9,4.35-1.33l3.26-.95,1.09-.31c1.44-.41,2.87-.8,4.3-1.19l2.13-.57,1.28-.34.84-.22c1.25-.33,2.49-.64,3.73-1a4.21,4.21,0,0,0,.48-.12l3.32-.81.13,0h0l2.63-.62,1.33-.31,2.67-.59,1-.22,2.91-.63.59-.12.45-.1.87-.18,1.48-.31,1.33-.27.92-.18,2.1-.42,2.8-.53.45-.08,1.72-.32,1.68-.3h.05l.15,0,1.11-.2.33-.05.1,0,.76-.13,2.31-.4.38-.06.39-.07.75-.12.26-.05,1-.16,1-.15.67-.11.29,0,.49-.08.44-.07.17,0,2.63-.4,1.56-.22,1.19-.17.82-.12,2.41-.33.26,0,.17,0,1.36-.17.63-.08h0l.57-.07.34,0,.31,0,.3,0,.34-.05.18,0,.63-.07.5-.06h.16l.49-.05.21,0h0l.58-.06.22,0h.28a1.18,1.18,0,0,1,.06-.18.19.19,0,0,1,0-.07c0-.1.08-.23.13-.37h0l0,0a.58.58,0,0,0,.05-.14c0-.07.05-.16.08-.24l.09-.27q.06-.22.15-.48c.08-.26.16-.53.24-.83s.22-.82.32-1.26a22.11,22.11,0,0,0,.62-4.42c.07-2.28-.37-4.49-1.87-5.84.09-4.66-.41-9.63-2.84-13.14s-6.78-3.92-9.62-6.83c-.17-.18-.33-.37-.49-.57a5.89,5.89,0,0,1-.42-.64,5.7,5.7,0,0,1-.37-.69c-.12-.24-.22-.48-.32-.73v0c-.09-.24-.19-.5-.27-.76s-.17-.53-.25-.8c-.15-.54-.29-1.08-.41-1.63-.06-.27-.12-.54-.17-.82-.15-.68-.3-1.37-.47-2-.05-.21-.1-.41-.16-.61a3.57,3.57,0,0,0-.1-.35,3.38,3.38,0,0,0-.11-.34,2.53,2.53,0,0,0-.12-.36c0-.11-.07-.21-.11-.32s-.14-.37-.22-.55c0,0,0,0,0,0s0-.11-.07-.16l-.09-.18c-.08-.18-.17-.35-.26-.51-1.39-2.52-3.74-3.83-5.93-5.16l-.76-.47-.47-.32-.58-.41c-.19-.13-.37-.27-.55-.42l-.28-.24a10,10,0,0,1-.76-.7l-.48-.52c-.22-.26-.43-.53-.63-.82s-.32-.5-.47-.78l-.06-.13c-.07-.13-.13-.26-.19-.4a6.07,6.07,0,0,1-.24-.59,10.43,10.43,0,0,1,0-6.42,11.26,11.26,0,0,1,.93-2.16,9.89,9.89,0,0,1,.81-1.28c.14-.21.3-.41.45-.6a14.33,14.33,0,0,1,1-1.08h0a7.1,7.1,0,0,1,3.8-2.19A3.83,3.83,0,0,1,264.1,305a5.46,5.46,0,0,1,.33,4.83,4.3,4.3,0,0,1-.72,1.12l-.18.19a2.91,2.91,0,0,1-.27.24,1.37,1.37,0,0,1-.21.15l-.25.16-.14.07-.12.06-.2.08h0L262,312l-.28,0h-.13a2,2,0,0,1-.54,0,5.41,5.41,0,0,0,.12.58,1.61,1.61,0,0,0,.09.29,1.45,1.45,0,0,0,.11.26c0,.1.09.2.14.3a1,1,0,0,0,.11.21,2.13,2.13,0,0,0,.16.25.36.36,0,0,0,.07.1,1.55,1.55,0,0,0,.19.24.39.39,0,0,0,.08.1,4,4,0,0,0,.35.36,3.54,3.54,0,0,0,.42.35l.05,0a3.41,3.41,0,0,0,.42.28,7.79,7.79,0,0,0,.72.34,3.72,3.72,0,0,0,.65.19l.09,0h0l.36.06.36,0c1.93,0,3.74-1.48,4.78-3.55q.15-.3.27-.6a2.6,2.6,0,0,0,.1-.25c0-.09.07-.18.1-.27l.09-.27q.11-.3.18-.6l.09-.35c0-.17.08-.34.11-.51a.45.45,0,0,0,0-.16c0-.2.08-.4.1-.6s.07-.51.09-.77a17.26,17.26,0,0,0,0-2.69,1.15,1.15,0,0,1,0-.19.41.41,0,0,0,0-.11,2.31,2.31,0,0,0,0-.37,1.07,1.07,0,0,0,0-.25s0,0,0,0,0-.26-.05-.39c0-.29-.08-.57-.13-.85l-.06-.3,0-.15c-.06-.28-.12-.55-.19-.83s-.22-.73-.34-1.09c4.78-4.18,15.18-7.18,23.91-11.19.42-.19.83-.38,1.23-.58s.81-.38,1.2-.58l1.17-.58q1.77-.88,3.39-1.83l.2-.12A17.71,17.71,0,0,1,297,280.68ZM116.17,420.83a39.83,39.83,0,0,1-4-21.32l1.59-.71,1.72-.81,1.86-.9,2-1c2.77-1.38,5.93-3,9.51-4.79,0,.43-.38,13.46,4.11,19.94C125.78,415.09,120.31,418.26,116.17,420.83Zm23.45-13.09c-5-9.49-3.33-20.17-3.33-20.17,5.78-2.78,12.65-5.6,19.65-8.25,0,0-1.27,10,4.15,18.29C152.26,401.34,145.48,404.71,139.62,407.74Zm38.08-17.56-1.43.54c-1,.37-2,.76-2.93,1.14-2.31.91-4.59,1.85-6.82,2.82a22.82,22.82,0,0,1-1.06-2.17c-.32-.72-.6-1.45-.85-2.17-.13-.36-.24-.71-.34-1.07s-.22-.71-.3-1q-.27-1-.45-1.92l-.12-.62c-.08-.41-.15-.82-.2-1.21,0-.2-.06-.39-.08-.58-.06-.44-.11-.86-.14-1.26,0-.2,0-.4,0-.6a29.08,29.08,0,0,1,0-5.3c10.22-3.69,20-6.85,26.29-8.82,0,0,1.57,10,5.54,16.39C189,386.12,183.28,388.07,177.7,390.18Zm76.24-62.51c.38.34.77.67,1.16,1,.59.51,1.18,1,1.75,1.52.32.28.63.57.94.86.16.15.32.3.46.45s.5.5.74.76a17.69,17.69,0,0,1,1.72,2.12l.3.46a14.34,14.34,0,0,1,.76,1.33c.1.21.2.42.29.63s.21.5.31.75l.15.39a.3.3,0,0,1,0,.08c0,.09.06.17.08.25a.14.14,0,0,1,0,.06l.27.79a23.63,23.63,0,0,0,1.9,4.81,7,7,0,0,0,.58.84,5,5,0,0,0,.37.42,1.7,1.7,0,0,0,.19.19,2.44,2.44,0,0,0,.29.27,6.73,6.73,0,0,0,.63.49,3.62,3.62,0,0,0,.32.22c.21.14.44.27.67.4l.57.29c.43.21.86.4,1.3.6s.73.31,1.09.49.53.25.79.39.61.33.91.52a9.43,9.43,0,0,1,1.6,1.32c.25.25.5.52.73.8a13.36,13.36,0,0,1,2.4,4.51c.05.19.11.38.16.57a17,17,0,0,1,.4,2,16,16,0,0,1-.82,7.5,591.08,591.08,0,0,0-74.43,16.18c-.23-.37-.46-.74-.68-1.13s-.52-.92-.76-1.4-.36-.72-.53-1.09-.4-.85-.58-1.27-.37-.85-.54-1.27c-.1-.25-.2-.49-.29-.73s-.19-.49-.28-.73c-.46-1.22-.86-2.39-1.2-3.47-.07-.19-.13-.39-.18-.57-.13-.38-.24-.75-.33-1.09a1,1,0,0,0-.05-.16l-.15-.52a2.29,2.29,0,0,0-.08-.28c0-.16-.08-.3-.12-.44l-.12-.45-.32-1.26a1.82,1.82,0,0,1-.07-.3v0a6,6,0,0,1-.29-.64,4.73,4.73,0,0,1-.25-.62,11.81,11.81,0,0,1-.48-1.74q-.08-.35-.12-.69a12.2,12.2,0,0,1-.1-1c0-.25,0-.51,0-.77s0-.54,0-.81,0-.5.07-.74a.5.5,0,0,1,0-.12,5.62,5.62,0,0,1,.09-.57c0-.21.08-.41.13-.62s.1-.4.16-.6.13-.41.2-.6a13.1,13.1,0,0,1,6.61-7.21c3.17-1.53,7.06-1.92,9.6-4.28,2.29-2.12,2.93-5.33,4.5-8,.09-.15.18-.3.29-.45l.14-.21a14,14,0,0,1,1.22-1.56c.2-.23.41-.45.63-.67s.71-.69,1.09-1,.76-.65,1.16-.95c2-1.57,4.35-2.93,6.58-4.37.92-.59,1.83-1.21,2.7-1.85l.64-.49c.22-.16.43-.33.63-.5s.53-.45.79-.68.66-.62,1-.94l.24-.27c.13-.13.24-.26.35-.39.32-.37.63-.76.92-1.17a14,14,0,0,0,2.37-6h9.53c0,.27.07.53.11.8.08.53.18,1.05.3,1.57a16.1,16.1,0,0,0,.93,2.77c.13.3.27.6.42.89a14,14,0,0,0,1,1.59l.27.38a4.22,4.22,0,0,0,.27.36c.18.24.37.47.56.7l.37.42c.23.26.47.51.71.76s.53.53.81.79C252.9,326.76,253.41,327.22,253.94,327.67Z" />
      <path class="BUNTAI_WOLF_OUTFIT_WOLF_OUTFIT_4_cls-5" d="M337.54,309.85a67,67,0,0,1-3.88,20.67c-8.21-14-29.66-2.69-46.16,12.25.8,2.31,3.15,5.26,6.23,8.5L285,357.56,281.63,360c.09-4.66-.41-9.63-2.84-13.14s-6.78-3.92-9.62-6.83c-.17-.18-.33-.37-.49-.57a5.89,5.89,0,0,1-.42-.64,7.55,7.55,0,0,1-.37-.69c-.12-.24-.22-.48-.32-.73v0c-.1-.25-.19-.5-.27-.76s-.17-.53-.25-.8c-.15-.54-.28-1.08-.4-1.63l-.18-.82c-.15-.68-.3-1.37-.47-2-.05-.21-.1-.41-.16-.61a3.57,3.57,0,0,0-.1-.35,3.38,3.38,0,0,0-.11-.34,10.87,10.87,0,0,0-.89-2.13c-1.39-2.52-3.74-3.83-5.93-5.16-.41-.25-.82-.51-1.23-.79l-.58-.41c-.19-.13-.37-.27-.55-.42l-.28-.24a10,10,0,0,1-.76-.7l-.48-.52c-.22-.26-.43-.53-.63-.82a7.85,7.85,0,0,1-.72-1.31,6.07,6.07,0,0,1-.24-.59,10.43,10.43,0,0,1,0-6.42,11.26,11.26,0,0,1,.93-2.16,11.1,11.1,0,0,1,.81-1.28c.14-.21.3-.41.45-.6a14.45,14.45,0,0,1,1-1.08,7.1,7.1,0,0,1,3.8-2.19A3.83,3.83,0,0,1,264.1,305a5.46,5.46,0,0,1,.33,4.83,4.3,4.3,0,0,1-.72,1.12l-.18.19a2.91,2.91,0,0,1-.27.24,1.37,1.37,0,0,1-.21.15l-.25.16a2.77,2.77,0,0,1-.81.31l-.28,0a2.51,2.51,0,0,1-.67,0,5.41,5.41,0,0,0,.12.58,2.79,2.79,0,0,0,.2.55,1.17,1.17,0,0,0,.14.3,1,1,0,0,0,.11.21,1.32,1.32,0,0,0,.16.25,2.87,2.87,0,0,0,.34.44,4,4,0,0,0,.35.36,3.54,3.54,0,0,0,.42.35.09.09,0,0,0,.05,0,3.41,3.41,0,0,0,.42.28,5.85,5.85,0,0,0,.72.34,3.72,3.72,0,0,0,.65.19,4,4,0,0,0,.46.08l.36,0c1.93,0,3.74-1.48,4.78-3.55q.15-.3.27-.6a2.6,2.6,0,0,0,.1-.25,11.19,11.19,0,0,0,.57-2,.45.45,0,0,0,0-.16c0-.2.08-.4.1-.6s.07-.51.09-.77l.06-.82a16.67,16.67,0,0,0,0-1.87,1.23,1.23,0,0,0,0-.19,6,6,0,0,0-.07-.73s0,0,0,0a2.6,2.6,0,0,0-.05-.39c0-.29-.08-.57-.13-.85l-.06-.3,0-.15c-.05-.28-.12-.56-.19-.83s-.22-.73-.34-1.09c4.78-4.18,15.18-7.18,23.91-11.19.42-.19.83-.38,1.23-.58s.81-.37,1.2-.58.79-.38,1.17-.58q1.77-.88,3.39-1.83l.2-.12.1.07,4.77,2.92s3.17,2.22,8,5.52C320.65,298.62,329.33,304.52,337.54,309.85Z" />
      <path class="BUNTAI_WOLF_OUTFIT_WOLF_OUTFIT_4_cls-7" d="M120.74,386.09a325.18,325.18,0,0,1,30.36-14.67c16.79-6.89,39-11.44,39-11.44-.48-4.65.55-9.63,3.82-13.14s9.13-3.92,13-6.83c1.86-1.42,2.76-3.66,3.41-5.84s1.18-4.45,2.56-6.29c1.89-2.52,5-3.83,8-5.16s6-3,7.37-5.8a8,8,0,0,0,0-6.42,12.78,12.78,0,0,0-4.27-5.12,10.81,10.81,0,0,0-5.12-2.19,6,6,0,0,0-5.12,1.79,4.25,4.25,0,0,0-.44,4.83,4.82,4.82,0,0,0,4.58,2.21c-.43,2.43-3.47,4-6.07,4a7.89,7.89,0,0,1-6.44-3.55,10.93,10.93,0,0,1-1.62-7.07,13.54,13.54,0,0,1,1.18-4.54,10.33,10.33,0,0,1,5.13-5.25c3.22-1.5,7.17-1.44,10.72-.6,5.92,1.38,11.4,4.86,14.35,9.89a16.32,16.32,0,0,1,1.7,4.07,15.77,15.77,0,0,1,.37,6.3,14,14,0,0,1-2.36,6c-4.58,6.51-14.28,8.7-18.35,15.51-1.57,2.64-2.21,5.85-4.5,8-2.55,2.36-6.43,2.75-9.6,4.28a13.07,13.07,0,0,0-6.61,7.21,12.17,12.17,0,0,0,.57,9.5s-2.68.8-7,2.16c-6.3,2-16.07,5.13-26.29,8.82-2.33.83-4.68,1.7-7,2.59-7,2.65-13.87,5.47-19.65,8.25l-2,1-5.49,2.77c-7.15,3.61-12.63,6.43-16.69,8.2a30.46,30.46,0,0,1-5.54,2,4.67,4.67,0,0,1-2.7,0,2,2,0,0,1-1.29-1.58c-.23-.89.72-2.19,2.52-3.76C108.28,393.38,114.07,389.78,120.74,386.09Z" />
      <path class="BUNTAI_WOLF_OUTFIT_WOLF_OUTFIT_4_cls-7" d="M204.87,300.84a28.84,28.84,0,0,0-4.36-2.25c-.55-.24-1.13-.47-1.73-.71l-1.86-.69c-7-2.51-16.17-4.79-24.26-7.54-.43-.14-.85-.29-1.28-.45l-1.28-.49-1.25-.5c-.56-.23-1.11-.46-1.66-.71-1-.45-2.06-.93-3.08-1.44-.48-.23-1-.46-1.42-.71-1.4-.71-2.8-1.47-4.17-2.26l-1.37-.8c-1.52-.89-3-1.82-4.46-2.76" />
      <path class="BUNTAI_WOLF_OUTFIT_WOLF_OUTFIT_4_cls-7" d="M157.72,273.62h0l.51.34.09.07.08.05.08.05.34.21.38.24c.84.53,1.68,1.05,2.53,1.56.57.35,1.15.69,1.72,1l1.74,1c.58.33,1.17.65,1.75,1,1,.55,2.06,1.09,3.09,1.59s2.07,1,3.1,1.45,1.77.77,2.65,1.11l.88.34c.58.22,1.17.43,1.75.63a44.44,44.44,0,0,0,4.28,1.25c18,4.27,27.31,10.11,27.31,10.11" />
      <path class="BUNTAI_WOLF_OUTFIT_WOLF_OUTFIT_4_cls-7" d="M64.66,343.17a83.6,83.6,0,0,0-5.15-10.37l0,0c-.12-.23-.23-.45-.36-.68l0,0c-2.07-3.87-4-7.91-4.78-12-2-10.78,23.07-12.74,36.29-12.42h1a55.9,55.9,0,0,0,15.18-1.74l.28-.08a24,24,0,0,0,3.91-1.37" />
      <path class="BUNTAI_WOLF_OUTFIT_WOLF_OUTFIT_4_cls-7" d="M63.06,407.74a13.86,13.86,0,0,0,7-2.85h0a18.47,18.47,0,0,0,5.25-6.21c1.61-3-25.7-13-28.85-17.37-6.12-8.54,7.87-12.18,4.44-16.34a10.91,10.91,0,0,1-2.51-7c0-.29,0-.59,0-.89,0,0,0,0,0-.07,0-.24,0-.48.08-.71s.1-.62.16-.92a3.59,3.59,0,0,1,.08-.35,5.5,5.5,0,0,1,.16-.58.59.59,0,0,1,.06-.2,2.08,2.08,0,0,1,.16-.48,1.19,1.19,0,0,1,.1-.28,3.51,3.51,0,0,1,.24-.61c.07-.17.14-.35.22-.51.6-1.28-7.47-7.27-6.5-8.3a3.11,3.11,0,0,1,.31-.32l.44-.42.65-.55c.05,0,.1-.08.16-.11a5.67,5.67,0,0,1,.64-.45c.2-.14.41-.27.62-.39s.25-.15.39-.21.39-.19.58-.28c4.48-2,11.05-.1,17.69,1.89,3.23,1,15.37,6.78,18.39,7.33,5.27,1,11.52-.61,15.9-2.15l0,0a50.8,50.8,0,0,0,5.47-2.25" />
      <path class="BUNTAI_WOLF_OUTFIT_WOLF_OUTFIT_4_cls-7" d="M46.45,381.3a49.75,49.75,0,0,1-9,3.37c-.75.21-1.54.4-2.35.57-.33.08,8.8,4,8.46,4.08-.49.1-1,.19-1.51.27-11.64,1.92-9,22.3-7.4,28.91s-3,13.23-6.56,17a2.36,2.36,0,0,0-.75,1.56,1.24,1.24,0,0,0,0,.33,2.13,2.13,0,0,0,.29.65,1.66,1.66,0,0,0,.23.31,2.16,2.16,0,0,0,.31.29,3,3,0,0,0,.33.27l.07.05a2.23,2.23,0,0,0,.3.2,6.65,6.65,0,0,0,.71.4l.39.18.59.25.56.21a19.3,19.3,0,0,0,2,.57l.63.16,1.34.27h0c.47.09,1,.18,1.48.25l1.49.19c.92.11,1.88.2,2.87.25.41,0,.82,0,1.24.06l.87,0c.3,0,18.59-8.07,18.88-8.07h1.52c4.63-.05,10.21-.27,15.48-.52l2-.1c.43,0,.87,0,1.3-.06l2.52-.13,2.38-.13,2.46-.13.79,0,.86,0,.51,0H92l.78,0,1,0,.33,0c.26,0,.51,0,.75,0l.46,0,1,0a59.71,59.71,0,0,1,8.14.42" />
      <path class="BUNTAI_WOLF_OUTFIT_WOLF_OUTFIT_4_cls-7" d="M93.7,407.74s-7-17.12-4.83-18.57c1.34-.9,8.62,11.68,13.85,21.15" />
      <path class="BUNTAI_WOLF_OUTFIT_WOLF_OUTFIT_4_cls-7" d="M123.46,321c.16-.84,3.79-18,15.38-17.9,11.87.11,16.61,23.8,6.78,42.68s-25.44,32.54-25.44,32.54.28,4.72.56,7.79" />
      <path class="BUNTAI_WOLF_OUTFIT_WOLF_OUTFIT_4_cls-7" d="M110.38,375.15c6.56-6.58,17.19-17.91,24.38-29.07,11.08-17.18,9.16-36.49.46-36-8.43.53-11.58,10.25-11.76,10.86v0" />
      <path class="BUNTAI_WOLF_OUTFIT_WOLF_OUTFIT_4_cls-7" d="M140.29,289.48a80.08,80.08,0,0,0,12.34,9.34" />
      <path class="BUNTAI_WOLF_OUTFIT_WOLF_OUTFIT_4_cls-7" d="M135.15,332.2c-1.18,5.39-4.08,9.69-6.48,9.59s-3.38-4.57-2.19-10,4.08-9.69,6.47-9.58S136.33,326.8,135.15,332.2Z" />
      <path class="BUNTAI_WOLF_OUTFIT_WOLF_OUTFIT_4_cls-7" d="M79,433.36a163.66,163.66,0,0,0,21.52-17.21" />
      <path class="BUNTAI_WOLF_OUTFIT_WOLF_OUTFIT_4_cls-7" d="M270.64,300.83c4.78-4.18,15.18-7.18,23.91-11.19.42-.19.83-.38,1.23-.58s.81-.37,1.2-.58.79-.38,1.17-.58q1.77-.88,3.39-1.83l.2-.12" />
      <path class="BUNTAI_WOLF_OUTFIT_WOLF_OUTFIT_4_cls-7" d="M296.16,281.23h0l0,0a7.89,7.89,0,0,0,.81-.52h0" />
      <path class="BUNTAI_WOLF_OUTFIT_WOLF_OUTFIT_4_cls-7" d="M296.12,281.25l0,0,0,0h-.05" />
      <path class="BUNTAI_WOLF_OUTFIT_WOLF_OUTFIT_4_cls-7" d="M297,280.68a7.89,7.89,0,0,1-.81.52l0,0h0l0,0h-.05c-.6.37-1.21.72-1.82,1.05s-1.23.67-1.85,1l-.93.45-.93.42c-.56.25-1.12.48-1.68.68-.26.11-.53.21-.79.3s-.65.23-1,.33c-13.34,4.27-20.26,10.11-20.26,10.11" />
      <path class="BUNTAI_WOLF_OUTFIT_WOLF_OUTFIT_4_cls-7" d="M314.58,294.46c-1.74,1.5-3.57,3-5.16,4.36" />
      <path class="BUNTAI_WOLF_OUTFIT_WOLF_OUTFIT_4_cls-7" d="M347.2,395c-.05-.18-.1-.36-.16-.54s0-.09,0-.14c-.15-.56-.32-1.12-.49-1.67l-.12-.39c-.19-.63-.39-1.26-.61-1.88l-.06-.17v0c-.25-.76-.53-1.52-.8-2.27l0-.05s0,0,0-.05c-.28-.77-.57-1.54-.87-2.3,0,0-3.83-29-13-48.79a57.64,57.64,0,0,0,2.63-6.17,67,67,0,0,0,3.88-20.67" />
      <path class="BUNTAI_WOLF_OUTFIT_WOLF_OUTFIT_4_cls-7" d="M103.9,401.48a73.17,73.17,0,0,0-1.08,7.56c0,.16,0,.31,0,.47l-.06.81c-.12,1.93-.17,3.87-.12,5.8,0,1.24.08,2.47.2,3.71a.86.86,0,0,0,0,.16c0,.43.08.86.13,1.28s.1.93.17,1.39a.36.36,0,0,0,0,.14c0,.27.07.54.12.8a7.36,7.36,0,0,0,.12.8c.09.52.19,1.05.29,1.57s.2.95.3,1.41.28,1.14.43,1.71c.32,1.18.69,2.35,1.1,3.49.08.22.16.45.25.67s.16.42.25.63a48.83,48.83,0,0,0,11.39,16.68,117.76,117.76,0,0,0,15.33,12.09s72.6,18,98.82-6.16c29.63,11.52,63.52,20.86,88.4,6.16a116.43,116.43,0,0,0,15.33-12.09,48.41,48.41,0,0,0,11.65-17.31A50.71,50.71,0,0,0,350,418.17" />
      <path class="BUNTAI_WOLF_OUTFIT_WOLF_OUTFIT_4_cls-7" d="M105.13,396.14c.16-.61.33-1.21.51-1.82s.31-1.07.48-1.6.35-1.13.53-1.69l.06-.17a1.18,1.18,0,0,1,.07-.2c.08-.25.16-.5.25-.75s.13-.37.19-.56l.39-1.09c.09-.26.19-.52.29-.79s.1-.28.16-.42c.16-.44.33-.87.5-1.31v0c0-.07.05-.15.08-.23l.2-1.38,0-.27,0-.23a2,2,0,0,0,0-.24c0-.2.06-.41.1-.64l0-.2c0-.22.07-.45.11-.69s.1-.64.16-1,.1-.63.16-1,.08-.48.13-.73.1-.6.16-.92c.16-1,.35-2,.56-3.07h0c.07-.39.15-.79.23-1.2l0-.1c.06-.32.12-.65.19-1,0-.17.07-.34.1-.52.12-.57.23-1.15.36-1.75s.26-1.26.4-1.91c.37-1.73.79-3.55,1.23-5.42.2-.81.4-1.63.61-2.45.13-.52.26-1,.4-1.57,1-3.77,2.11-7.67,3.39-11.5v0a1.59,1.59,0,0,1,.07-.2v0c.19-.56.38-1.12.58-1.68l.54-1.5c.1-.28.2-.56.31-.84l.15-.41h0a1.34,1.34,0,0,0,.07-.18l.1-.25.17-.42c.19-.5.38-1,.58-1.49h0c.18-.45.37-.9.56-1.35.37-.89.75-1.76,1.14-2.62l0,0h0c-.29-.58-.57-1.16-.84-1.75-.4-.84-.79-1.7-1.16-2.56l-.08-.18q-.47-1.08-.9-2.16c-.41-1-.8-2-1.17-3q-.46-1.24-.9-2.49a125.22,125.22,0,0,1-4.6-15.17c0-.2-.09-.39-.13-.58-.13-.57-.24-1.09-.34-1.56s-.14-.66-.2-.95c-.1-.46-.17-.85-.23-1.15,0-.09,0-.17,0-.25s0-.05,0-.07,0-.14,0-.2,0-.07,0-.09a1.11,1.11,0,0,0,0-.13" />
      <path class="BUNTAI_WOLF_OUTFIT_WOLF_OUTFIT_4_cls-7" d="M74.34,322.24s28.11-4.09,36.61-17.8" />
      <path class="BUNTAI_WOLF_OUTFIT_WOLF_OUTFIT_4_cls-7" d="M106,433.88h0c.48-.28,31.39-17.65,77.16-36.06,46.12-18.56,98.55-23.68,98.55-23.68a28.37,28.37,0,0,0,1.8-8.32c.07-2.28-.37-4.49-1.88-5.84.1-4.66-.4-9.63-2.83-13.14s-6.78-3.92-9.62-6.83c-1.38-1.42-2.05-3.66-2.54-5.84a23.25,23.25,0,0,0-1.9-6.29c-1.4-2.52-3.74-3.83-5.94-5.16s-4.47-3-5.46-5.8a10.43,10.43,0,0,1,0-6.42,12.55,12.55,0,0,1,3.16-5.12,7.16,7.16,0,0,1,3.81-2.19A3.84,3.84,0,0,1,264.1,305a5.5,5.5,0,0,1,.33,4.83A3.37,3.37,0,0,1,261,312a4.73,4.73,0,0,0,4.51,4c1.93,0,3.74-1.48,4.78-3.55a14.22,14.22,0,0,0,1.2-7.07,16.84,16.84,0,0,0-.88-4.55,10.62,10.62,0,0,0-2.71-4.4,7.74,7.74,0,0,0-1.09-.84,9.47,9.47,0,0,0-8-.6,17.6,17.6,0,0,0-10.65,9.89A18.89,18.89,0,0,0,247,309a21.48,21.48,0,0,0-.29,6.3,17.2,17.2,0,0,0,1.76,6c3.41,6.51,10.61,8.7,13.62,15.51,1.18,2.64,1.64,5.85,3.35,8,1.88,2.36,4.76,2.75,7.12,4.28a12.37,12.37,0,0,1,4.9,7.21,16,16,0,0,1-.42,9.5,591.08,591.08,0,0,0-74.43,16.18q-3.9,1.14-7.79,2.37a291.26,291.26,0,0,0-28.27,10.39q-3.28,1.43-6.43,2.92c-7.83,3.73-14.61,7.1-20.47,10.13-2.38,1.23-4.59,2.39-6.67,3.51-7.17,3.84-12.64,7-16.78,9.58-3.3,2-5.74,3.67-7.53,4.94a40.29,40.29,0,0,0-4.25,3.32" />
      <line class="BUNTAI_WOLF_OUTFIT_WOLF_OUTFIT_4_cls-7" x1="246.68" y1="315.25" x2="237.14" y2="315.25" />
      <line class="BUNTAI_WOLF_OUTFIT_WOLF_OUTFIT_4_cls-7" x1="246.97" y1="308.95" x2="236.77" y2="308.95" />
      <path class="BUNTAI_WOLF_OUTFIT_WOLF_OUTFIT_4_cls-7" d="M338,394.77a14.92,14.92,0,0,1-1.34,11.12,15.91,15.91,0,0,1-4.52,5.18,17.26,17.26,0,0,1-10.36,3.39c-9.24,0-16.73-7.06-16.73-15.79a15.3,15.3,0,0,1,5.13-11.37,17.19,17.19,0,0,1,11.6-4.42h.32a16.76,16.76,0,0,1,15,9.33A15.28,15.28,0,0,1,338,394.77Z" />
      <path class="BUNTAI_WOLF_OUTFIT_WOLF_OUTFIT_4_cls-7" d="M331,336.69s-3.85-8.22-10.85-6.4-18.43,15.57-18.43,15.57a224.33,224.33,0,0,0,20.46,20c10.27,8.74,15.7,19,14.83,26.4" />
      <path class="BUNTAI_WOLF_OUTFIT_WOLF_OUTFIT_4_cls-7" d="M333.65,330.52c-8.2-14-29.65-2.69-46.15,12.25.8,2.31,3.15,5.26,6.23,8.5,6.43,6.74,16,14.67,21.24,20.3,4.75,5.15,6.48,9.08,7.1,11.32" />
      <polyline class="BUNTAI_WOLF_OUTFIT_WOLF_OUTFIT_4_cls-7" points="281.63 359.98 284.98 357.56 293.73 351.26" />
      <path class="BUNTAI_WOLF_OUTFIT_WOLF_OUTFIT_4_cls-7" d="M283.5,365.82c10.87,4.27,21.87,16,26.65,21.48" />
      <path class="BUNTAI_WOLF_OUTFIT_WOLF_OUTFIT_4_cls-7" d="M285,357.56S302.2,369.87,307.84,378" />
      <path class="BUNTAI_WOLF_OUTFIT_WOLF_OUTFIT_4_cls-7" d="M354.34,406.78s11.45-.75,25.58-9.17c4-2.4,10.3-5.78,12.22-8.81,4.81-7.61,3.86-15.75,1.51-17.12-3.28-1.92-11.25,3.63-11.25,3.63s-9.75,11.52-35.29,16.75c-9.16,1.87,5.35,2.66.09,2.9a61.47,61.47,0,0,1-9.23-.19" />
      <path class="BUNTAI_WOLF_OUTFIT_WOLF_OUTFIT_4_cls-7" d="M332.11,411.07h0c5.15,2.37,11.33,4.82,17.85,7.09,14.67,5.14,9.42,9.39,19.29,9.84,16.27.75,34.16-11.09,35.29-17.07a13.46,13.46,0,0,1-2.94-1.72c-5-3.67-7.51-11.4-7.51-11.4s.9-6.94.56-7.47a10.53,10.53,0,0,0-2.53-1.55" />
      <path class="BUNTAI_WOLF_OUTFIT_WOLF_OUTFIT_4_cls-7" d="M388.86,409.34A100.33,100.33,0,0,1,349,413.71c-7.69-.68,6.84-2.08.89-3.62a134.17,134.17,0,0,1-13.28-4.2" />
      <path class="BUNTAI_WOLF_OUTFIT_WOLF_OUTFIT_4_cls-7" d="M196.29,365.75s2.21,9.79,6.29,16.18" />
      <path class="BUNTAI_WOLF_OUTFIT_WOLF_OUTFIT_4_cls-7" d="M189.25,367.91s1.57,10,5.54,16.39" />
      <path class="BUNTAI_WOLF_OUTFIT_WOLF_OUTFIT_4_cls-7" d="M163,376.73a32.73,32.73,0,0,0,3.56,18" />
      <path class="BUNTAI_WOLF_OUTFIT_WOLF_OUTFIT_4_cls-7" d="M155.94,379.32s-1.27,10,4.15,18.29" />
      <path class="BUNTAI_WOLF_OUTFIT_WOLF_OUTFIT_4_cls-7" d="M136.29,387.57s-1.66,10.68,3.33,20.17" />
      <path class="BUNTAI_WOLF_OUTFIT_WOLF_OUTFIT_4_cls-7" d="M128.83,391.3h0c0,.43-.37,13.46,4.12,19.94" />
      <path class="BUNTAI_WOLF_OUTFIT_WOLF_OUTFIT_4_cls-7" d="M112.14,399.51a39.9,39.9,0,0,0,4,21.32" />
      <path class="BUNTAI_WOLF_OUTFIT_WOLF_OUTFIT_4_cls-7" d="M106.6,401.49a52.54,52.54,0,0,0-.09,15.77h0a42.31,42.31,0,0,0,2.13,8.5" />
      <g class="BUNTAI_WOLF_OUTFIT_WOLF_OUTFIT_4_cls-8">
        <path d="M105.13,344.59A27.07,27.07,0,0,1,99,348.35a28,28,0,0,1-4.7,1.63c-6.56,1.63-23.39-3.93-29.59-6.81a85,85,0,0,0-5.15-10.37c.89,1.34,12.65,9,21.18,10.6A96.53,96.53,0,0,0,100,345.23Z" />
        <path d="M70.05,404.89h0c.21-.27-21.15-11.67-24.36-15.1-1.71-1.84-5.24-3.74-8.2-5.11a49.75,49.75,0,0,0,9-3.37c-6.12-8.54,7.87-12.18,4.44-16.34a10.91,10.91,0,0,1-2.51-7c0-.29,0-.59,0-.89,0,0,0,0,0-.07,0-.24,0-.48.08-.71s.1-.62.16-.92a3.59,3.59,0,0,1,.08-.35,5.5,5.5,0,0,1,.16-.58.59.59,0,0,1,.06-.2,2.08,2.08,0,0,1,.16-.48,1.19,1.19,0,0,1,.1-.28,6.44,6.44,0,0,1,.24-.61,55.3,55.3,0,0,0,7.37,5.3c7.57,4.59,13,17.58,14.61,27.61A46.06,46.06,0,0,1,70.05,404.89Z" />
        <path d="M103.18,410.17s-12.77-21.31-13.7-20.85,6.11,23.42,6.11,23.42-1.23-11,.7-9.28,1.61,23.64,9.45,29.79C101.49,424.58,103.18,410.17,103.18,410.17Z" />
        <polyline class="BUNTAI_WOLF_OUTFIT_WOLF_OUTFIT_4_cls-9" points="96.56 419.76 95.7 420.52 94.95 421.17 81 433.26" />
        <path d="M121.63,336.69s-10.53,13.48-20.2,20.05-22.29,9.92-22.29,9.92,20.3-3.51,27.49-9.28a99.34,99.34,0,0,0,10.68-9.66Z" />
        <path d="M186.5,312.47c-24.18-3.26-43.79-16.34-49.88-20.78,1.16-.66,2.4-1.4,3.67-2.21l.06,0C151.44,299.75,174.63,309.18,186.5,312.47Z" />
        <path d="M350,418.17a50.71,50.71,0,0,1-3.07,15.08,48.41,48.41,0,0,1-11.65,17.31,116.43,116.43,0,0,1-15.33,12.09c-24.88,14.7-58.77,5.36-88.4-6.16-26.22,24.11-98.82,6.16-98.82,6.16a117.76,117.76,0,0,1-15.33-12.09A48.83,48.83,0,0,1,106,433.88c-.09-.21-.17-.42-.25-.63l.83.3c6.55,2.28,50.35,17.17,78,16,30-1.28,51.91-10.89,51.91-10.89s50.65,21.64,100.15-4.38C345.78,429.39,350,418.17,350,418.17Z" />
        <path d="M404.56,410.94c-1.13,6-19,17.82-35.29,17.07-9.87-.45-4.62-4.7-19.29-9.84l-14.15-11-.56-.43,1.36-.89.06,0c1.26.58,2.32,10.73,19.76,8.54.89-.11,1.77-.23,2.65-.36h0c16.62-2.51,35.67-8.21,35.67-8.21s-4,9.2-12.21,10.91-24,0-24,0,6.5,8.95,22.9,5.23c9.52-2.17,16.18-8.16,20.16-12.81A13.46,13.46,0,0,0,404.56,410.94Z" />
        <path d="M320.08,383s-7.14,6.3-7.84,13.19S321,412,333.45,410c-4.85,4.92-19,7.5-25.59-2.86S307.09,385.34,320.08,383Z" />
        <path d="M309.27,337.85s12,9.83,17.3,17.77c-5.2-12.22-7.28-17.34-7.28-17.34s9.76,12.19,14.17,23.38S344,395,344,395l-5.58-.23-1.54-2.59s.09-9.24-5.33-16.07S304.75,351.37,302.38,346A89.87,89.87,0,0,1,309.27,337.85Z" />
        <path d="M255.07,378s-16.12,12-24.26,15.5a335,335,0,0,0-82.75,31.23s31.63-20.53,49.28-27.32A267.45,267.45,0,0,1,228,387.57l1.8-4.28Z" />
        <path d="M228.2,316.92s-4.28,8-9.93,11.65-5.11,10-8.27,12.16A78,78,0,0,1,199.44,346c-.51.17-7.42,3.27-7.42,3.27s3-4.54,11.49-6.83a18.81,18.81,0,0,0,7.69-11.32c1-4.15,3.11-6.5,7.74-8S225.81,319,228.2,316.92Z" />
        <path d="M107.2,305.62c0,.06-.1.13-.16.19-6,7.22-17.69,12-25.35,14.16-7.44,2.09-24.6-3.41-25.92-3.84,1.1.28,12.85,3.17,24.24,1.27,10.74-1.8,24.15-9.89,26.75-11.51Z" />
        <path d="M138.46,311a22.33,22.33,0,0,1,6,21c-2.88,13.2-25.27,39.73-26.85,41.83s-3.58,15.47-3.58,15.47l-8.33,5.38,2.76-8.6,2.13-12.25s23.3-20.09,29.29-38.55C142.75,325.05,143.1,315.42,138.46,311Z" />
        <path d="M130.63,323.32s-1.9,8.77-.88,12.4,2.17,3.95,2.17,3.95-3.89,5.24-5.52,0S130.63,323.32,130.63,323.32Z" />
      </g>
      <path class="BUNTAI_WOLF_OUTFIT_WOLF_OUTFIT_4_cls-10" d="M111,304.44c4.24-2.23,8.06-4.17,10.94-5.61l.29-.15.58-.29,1.56-.77.75-.37,1.17-.57.38-.18.69-.34a68.46,68.46,0,0,0,9.31-4.47c1.16-.66,2.4-1.4,3.67-2.21l.06,0a74.37,74.37,0,0,0,7.63-5.57c.55-.46,1.11-.93,1.65-1.43s1-.91,1.52-1.39c0,0,0,0,0,0,.51-.49,1-1,1.52-1.5a52.55,52.55,0,0,0,5-5.91h0" />
      <path class="BUNTAI_WOLF_OUTFIT_WOLF_OUTFIT_4_cls-10" d="M337.54,309.85c-8.21-5.33-16.89-11.23-23-15.39-4.8-3.3-8-5.52-8-5.52L301.84,286l-.1-.07a17.71,17.71,0,0,1-4.72-5.27h0" />
    </g>
  </g>
</svg>