<svg id="jewelry" xmlns="http://www.w3.org/2000/svg" viewBox="0 0 432 432">
  <defs>
    <style>.GUNDAN_JAPANESE_SEROW_JEWELRY_JAPANESE_SEROW_JEWELRY_6_cls-1{fill:#85432d;}.GUNDAN_JAPANESE_SEROW_JEWELRY_JAPANESE_SEROW_JEWELRY_6_cls-2{fill:#009e61;stroke-miterlimit:10;stroke-width:1.14px;}.GUNDAN_JAPANESE_SEROW_JEWELRY_JAPANESE_SEROW_JEWELRY_6_cls-2,.GUNDAN_JAPANESE_SEROW_JEWELRY_JAPANESE_SEROW_JEWELRY_6_cls-3{stroke:#000;}.GUNDAN_JAPANESE_SEROW_JEWELRY_JAPANESE_SEROW_JEWELRY_6_cls-3{fill:none;stroke-linecap:round;stroke-linejoin:round;stroke-width:1.04px;}</style>
  </defs>
  <path class="GUNDAN_JAPANESE_SEROW_JEWELRY_JAPANESE_SEROW_JEWELRY_6_cls-1" d="M142.31,143.42h-.1l-.09,0-1.75-.44a.53.53,0,0,1-.38-.64l.36-1.4a8.71,8.71,0,0,1-1.2-.66l-1,1a.54.54,0,0,1-.37.16.51.51,0,0,1-.36-.15l-1.35-1.3a.53.53,0,0,1,0-.74l1-1c-.1-.15-.21-.3-.3-.46a8,8,0,0,1-.4-.72l-1.39.39a.32.32,0,0,1-.14,0,.5.5,0,0,1-.5-.38l-.51-1.79a.54.54,0,0,1,.36-.65l1.39-.39a7.83,7.83,0,0,1,0-1.37l-1.41-.36a.52.52,0,0,1-.37-.63l.46-1.81a.53.53,0,0,1,.51-.39l.12,0,1.4.35a8.11,8.11,0,0,1,.67-1.19l-1-1a.57.57,0,0,1-.16-.37.56.56,0,0,1,.15-.37l1.31-1.33a.52.52,0,0,1,.38-.16.51.51,0,0,1,.36.15l1,1c.16-.11.34-.23.53-.34a5.84,5.84,0,0,1,.65-.35l-.39-1.39a.51.51,0,0,1,.36-.64l1.79-.51.14,0a.48.48,0,0,1,.26.07.47.47,0,0,1,.24.31l.4,1.39a7.5,7.5,0,0,1,.82,0l.55,0,.35-1.39a.51.51,0,0,1,.5-.4l.12,0,.57.13,1.25.32a.52.52,0,0,1,.38.63l-.36,1.41a7.06,7.06,0,0,1,1.2.67l1-1a.51.51,0,0,1,.37-.15h0a.54.54,0,0,1,.36.14l1.34,1.3a.57.57,0,0,1,.16.37.56.56,0,0,1-.15.37l-1,1a7.8,7.8,0,0,1,.7,1.18l1.39-.39.14,0a.48.48,0,0,1,.26.07.52.52,0,0,1,.25.31l.5,1.8a.53.53,0,0,1-.36.64l-1.39.39a7.85,7.85,0,0,1,0,1.37l1.4.36a.49.49,0,0,1,.32.24.54.54,0,0,1,.06.39l-.47,1.81a.53.53,0,0,1-.51.39l-.13,0-1.39-.35a8.22,8.22,0,0,1-.67,1.19l1,1a.48.48,0,0,1,.16.36.51.51,0,0,1-.15.37l-1.3,1.34a.52.52,0,0,1-.37.16h0a.51.51,0,0,1-.37-.15l-1-1a8,8,0,0,1-1.17.69l.38,1.39a.51.51,0,0,1-.36.64l-1.79.51-.14,0a.51.51,0,0,1-.5-.38l-.4-1.39h0l-.49,0h-.31a4.52,4.52,0,0,1-.52,0l-.32,1.27,0,.14A.51.51,0,0,1,142.31,143.42Zm1.44-15.9a5.93,5.93,0,0,0,0,11.86h0a6,6,0,0,0,5.93-6,5.92,5.92,0,0,0-5.92-5.81Z" />
  <path d="M145.18,124l.56.14,1.25.32-.46,1.83a7.81,7.81,0,0,1,1.87,1l1.32-1.35,1.33,1.3-1.32,1.35a7.42,7.42,0,0,1,1.1,1.84l1.22-.34.6-.17.51,1.8-1.82.51a7.32,7.32,0,0,1,0,2.14l1.84.47-.47,1.81-1.82-.47a7.81,7.81,0,0,1-1,1.87l1.35,1.32-1.3,1.34-1.35-1.32a7.58,7.58,0,0,1-1.85,1.09l.51,1.82-1.79.51-.52-1.82-.45.05a3.71,3.71,0,0,1-.47,0h-.3a7,7,0,0,1-.92-.06l-.43,1.71,0,.12-.08,0-1.73-.44.46-1.83a7.66,7.66,0,0,1-1.87-1.05l-1.31,1.36-.66-.64-.68-.66,1.32-1.36a8.29,8.29,0,0,1-.55-.77,7.15,7.15,0,0,1-.54-1.07l-1.83.51-.5-1.8,1.82-.51a7.32,7.32,0,0,1,0-2.14l-1.84-.47.47-1.81,1.83.47a7.78,7.78,0,0,1,1-1.87l-1.35-1.32,1.31-1.34,1.34,1.32a7.85,7.85,0,0,1,.84-.58,7.35,7.35,0,0,1,1-.51l-.51-1.82,1.79-.51.52,1.82a8.08,8.08,0,0,1,1.2-.09,7.3,7.3,0,0,1,.94.06l.46-1.83m-1.44,15.9a6.59,6.59,0,0,0,1.75-.24,6.48,6.48,0,0,0,4.71-6.34,7.08,7.08,0,0,0-.25-1.62,6.44,6.44,0,0,0-6.2-4.7,6.22,6.22,0,0,0-1.75.25,6.45,6.45,0,0,0,1.74,12.65M145.18,123a1,1,0,0,0-1,.79l-.25,1h-.58l-.27-1a1.08,1.08,0,0,0-.5-.63,1,1,0,0,0-.51-.13.9.9,0,0,0-.28,0l-1.79.5a1.06,1.06,0,0,0-.73,1.29l.28,1-.3.17-.2.13-.73-.71a1,1,0,0,0-.72-.3,1.05,1.05,0,0,0-.75.31l-1.31,1.34a1.07,1.07,0,0,0-.3.74,1.09,1.09,0,0,0,.32.74l.73.71c-.1.16-.19.33-.28.5l-1-.25a1.07,1.07,0,0,0-.25,0,1,1,0,0,0-1,.79l-.47,1.8A1.06,1.06,0,0,0,134,133l1,.25c0,.2,0,.39,0,.58l-1,.28a1.05,1.05,0,0,0-.72,1.29l.51,1.8a1,1,0,0,0,.49.62,1.06,1.06,0,0,0,.51.14,1.45,1.45,0,0,0,.29,0l1-.28c.07.13.14.26.22.38l.07.12-.71.73a1,1,0,0,0,0,1.47l.69.67.65.64a1.09,1.09,0,0,0,.73.29,1,1,0,0,0,.74-.32l.71-.73.51.29-.25,1a1,1,0,0,0,.75,1.27l1.73.44H142l.09,0,.2,0a1,1,0,0,0,1-.76l0-.12.22-.89h.58l.28,1a1,1,0,0,0,1,.76.9.9,0,0,0,.28,0l1.8-.51a1,1,0,0,0,.72-1.28l-.28-1,.5-.29.73.7a1,1,0,0,0,.73.3h0a1.06,1.06,0,0,0,.73-.31l1.31-1.34a1,1,0,0,0,.29-.74,1,1,0,0,0-.31-.74l-.73-.71c.1-.16.2-.33.29-.5l1,.25.27,0a1,1,0,0,0,1-.78l.47-1.81a1,1,0,0,0-.75-1.27l-1-.25c0-.19,0-.39,0-.58l1-.28a1,1,0,0,0,.72-1.28l-.5-1.8a1,1,0,0,0-.5-.63,1,1,0,0,0-.51-.13.9.9,0,0,0-.28,0l-.61.17-.37.1c-.09-.17-.19-.33-.3-.5l.71-.73a1,1,0,0,0,0-1.47l-1.33-1.3a1.06,1.06,0,0,0-.73-.3h0a1.07,1.07,0,0,0-.73.32l-.71.73c-.16-.1-.33-.2-.51-.29l.25-1a1,1,0,0,0-.75-1.26l-1.25-.32-.58-.14a1,1,0,0,0-.24,0Zm-1.44,15.89a5.4,5.4,0,0,1-4.7-8,5.35,5.35,0,0,1,3.24-2.55,5.66,5.66,0,0,1,1.47-.2A5.42,5.42,0,0,1,149,132a5.73,5.73,0,0,1,.2,1.36,5.4,5.4,0,0,1-3.94,5.3,5.21,5.21,0,0,1-1.47.2Z" />
  <circle class="GUNDAN_JAPANESE_SEROW_JEWELRY_JAPANESE_SEROW_JEWELRY_6_cls-2" cx="143.75" cy="134.29" r="3.16" />
  <line class="GUNDAN_JAPANESE_SEROW_JEWELRY_JAPANESE_SEROW_JEWELRY_6_cls-3" x1="143.75" y1="131.14" x2="143.75" y2="127.89" />
  <path class="GUNDAN_JAPANESE_SEROW_JEWELRY_JAPANESE_SEROW_JEWELRY_6_cls-3" d="M145.74,99.05a6,6,0,0,1,1,6.43c-2.78,6.22-3,9.25-3,9.25V125.2" />
  <path class="GUNDAN_JAPANESE_SEROW_JEWELRY_JAPANESE_SEROW_JEWELRY_6_cls-3" d="M141.15,97.78s-3.56-.43-3.55,5.24" />
  <path class="GUNDAN_JAPANESE_SEROW_JEWELRY_JAPANESE_SEROW_JEWELRY_6_cls-3" d="M144.66,100.15A4.81,4.81,0,0,1,146.85,98" />
</svg>