<svg id="jewelry" xmlns="http://www.w3.org/2000/svg" viewBox="0 0 432 432">
  <defs>
    <style>.GUNDAN_JAPANESE_SEROW_JEWELRY_JAPANESE_SEROW_JEWELRY_2_cls-1{fill:#afafaf;}.GUNDAN_JAPANESE_SEROW_JEWELRY_JAPANESE_SEROW_JEWELRY_2_cls-2{fill:#494949;}.GUNDAN_JAPANESE_SEROW_JEWELRY_JAPANESE_SEROW_JEWELRY_2_cls-11,.GUNDAN_JAPANESE_SEROW_JEWELRY_JAPANESE_SEROW_JEWELRY_2_cls-3{fill:#8c8c8c;}.GUNDAN_JAPANESE_SEROW_JEWELRY_JAPANESE_SEROW_JEWELRY_2_cls-4,.GUNDAN_JAPANESE_SEROW_JEWELRY_JAPANESE_SEROW_JEWELRY_2_cls-5{fill:none;}.GUNDAN_JAPANESE_SEROW_JEWELRY_JAPANESE_SEROW_JEWELRY_2_cls-11,.GUNDAN_JAPANESE_SEROW_JEWELRY_JAPANESE_SEROW_JEWELRY_2_cls-4,.GUNDAN_JAPANESE_SEROW_JEWELRY_JAPANESE_SEROW_JEWELRY_2_cls-5{stroke:#000;stroke-linecap:round;stroke-linejoin:round;}.GUNDAN_JAPANESE_SEROW_JEWELRY_JAPANESE_SEROW_JEWELRY_2_cls-4{stroke-width:0.75px;}.GUNDAN_JAPANESE_SEROW_JEWELRY_JAPANESE_SEROW_JEWELRY_2_cls-5{stroke-width:0.72px;}.GUNDAN_JAPANESE_SEROW_JEWELRY_JAPANESE_SEROW_JEWELRY_2_cls-6{fill:#214919;}.GUNDAN_JAPANESE_SEROW_JEWELRY_JAPANESE_SEROW_JEWELRY_2_cls-7{fill:#45793b;}.GUNDAN_JAPANESE_SEROW_JEWELRY_JAPANESE_SEROW_JEWELRY_2_cls-8{fill:#8cdd7d;}.GUNDAN_JAPANESE_SEROW_JEWELRY_JAPANESE_SEROW_JEWELRY_2_cls-9{fill:#c1c1c1;}.GUNDAN_JAPANESE_SEROW_JEWELRY_JAPANESE_SEROW_JEWELRY_2_cls-10{fill:#888d85;}.GUNDAN_JAPANESE_SEROW_JEWELRY_JAPANESE_SEROW_JEWELRY_2_cls-11{stroke-width:0.61px;}</style>
  </defs>
  <ellipse cx="243.98" cy="341.75" rx="3.09" ry="3.07" />
  <path d="M142,275.6l.87-3.89a5.3,5.3,0,0,0-4.41,1.45" />
  <path class="GUNDAN_JAPANESE_SEROW_JEWELRY_JAPANESE_SEROW_JEWELRY_2_cls-1" d="M196.59,325.84s-2.61-2-4.88-3.4l0,0a3.49,3.49,0,0,0,1.11-.89,3.36,3.36,0,0,0,.6-1.07,17.74,17.74,0,0,1,3.48,2.14c.4.37.74.69,1,1A3.5,3.5,0,0,0,196.59,325.84Z" />
  <path class="GUNDAN_JAPANESE_SEROW_JEWELRY_JAPANESE_SEROW_JEWELRY_2_cls-1" d="M182,317.75c.48.88,4.52,3.38,7,3.22h0a1.94,1.94,0,0,0,1.49-.6,1.49,1.49,0,0,0,.45-1h.11s1.06.44,2.34,1a3.36,3.36,0,0,1-.6,1.07,3.49,3.49,0,0,1-1.11.89l0,0a7.84,7.84,0,0,1-6.6-.33c-3.12-1.42-5.4-3.1-5.32-4.91a3.61,3.61,0,0,1,1.32-2.3,5.92,5.92,0,0,1,1,1.17,1.44,1.44,0,0,0-.29,1A1.3,1.3,0,0,0,182,317.75Z" />
  <path class="GUNDAN_JAPANESE_SEROW_JEWELRY_JAPANESE_SEROW_JEWELRY_2_cls-1" d="M143.9,281.17a1.52,1.52,0,0,1-.63.78,3.24,3.24,0,0,1-2.9.47,1.75,1.75,0,0,1,.18-.68,2,2,0,0,1,.84-.8h0a5,5,0,0,0-.24-1.4,4.79,4.79,0,0,0-2.43,1.58s-.48-1.06-1.15-2.36v0c-.8-2-.27-5.36,2.33-6.13h0c2.64-.82,1.88,2.68,2,2.81,1.13,1.78,1.31,1.7,1.95,3.75A3.06,3.06,0,0,1,143.9,281.17Z" />
  <path class="GUNDAN_JAPANESE_SEROW_JEWELRY_JAPANESE_SEROW_JEWELRY_2_cls-2" d="M143.89,281.17a3,3,0,0,0-.09-2,11.48,11.48,0,0,1,5.43,4.22,6,6,0,0,1,.92,3.23c-.1-.07-.18-.15-.26-.2a5.78,5.78,0,0,0-2.32-1.16A8.48,8.48,0,0,0,143.89,281.17Z" />
  <path class="GUNDAN_JAPANESE_SEROW_JEWELRY_JAPANESE_SEROW_JEWELRY_2_cls-1" d="M138.71,281.11a4.83,4.83,0,0,1,2.44-1.58,5.08,5.08,0,0,1,.23,1.4h0a1.91,1.91,0,0,0-.83.8,1.42,1.42,0,0,0-.19.67c0,.86,1.69,3.89,3.74,5.11a2.65,2.65,0,0,0,2.45.37,2.41,2.41,0,0,0,.74-.47c.21.13,1,.68,2,1.38a4.2,4.2,0,0,1-1.33,1,4.8,4.8,0,0,1-1.24.37,6.8,6.8,0,0,1-6-2.67C138.75,285.06,137.66,282.7,138.71,281.11Z" />
  <path class="GUNDAN_JAPANESE_SEROW_JEWELRY_JAPANESE_SEROW_JEWELRY_2_cls-1" d="M146.73,290.14a4.8,4.8,0,0,0,1.24-.37,4.2,4.2,0,0,0,1.33-1h0a14.78,14.78,0,0,1,2.91,2.61c.32.43.58.8.77,1.1a3.9,3.9,0,0,0-1.84,2h0A52.53,52.53,0,0,0,146.73,290.14Z" />
  <path class="GUNDAN_JAPANESE_SEROW_JEWELRY_JAPANESE_SEROW_JEWELRY_2_cls-3" d="M146.56,287.89a2.65,2.65,0,0,1-2.45-.37,1.1,1.1,0,0,1,.17-1.2,3.35,3.35,0,0,1,3.29-1.07,5.78,5.78,0,0,1,2.32,1.16c.08,0,.16.13.26.2h0a29,29,0,0,1,5.29,5,3.37,3.37,0,0,1,.75,1.9,1.4,1.4,0,0,1-.36.87,3,3,0,0,1-2.67,1.08,1.39,1.39,0,0,1,0-.67,1.66,1.66,0,0,1,.53-1h0a4.94,4.94,0,0,0-.68-1.28c-.19-.3-.45-.67-.77-1.1a14.78,14.78,0,0,0-2.91-2.61h0c-1-.7-1.79-1.25-2-1.38A2.41,2.41,0,0,1,146.56,287.89Z" />
  <path class="GUNDAN_JAPANESE_SEROW_JEWELRY_JAPANESE_SEROW_JEWELRY_2_cls-2" d="M169.5,305.22a3.08,3.08,0,0,0-.56-1.94h0a12.74,12.74,0,0,1,6.31,3.28,6.56,6.56,0,0,1,1.68,3l-.31-.16a6.15,6.15,0,0,0-2.55-.76A9.54,9.54,0,0,0,169.5,305.22Z" />
  <path class="GUNDAN_JAPANESE_SEROW_JEWELRY_JAPANESE_SEROW_JEWELRY_2_cls-2" d="M160.85,296.34a10,10,0,0,0-4.65-2.86,3.37,3.37,0,0,0-.75-1.9,13,13,0,0,1,6.6,2.86,5.86,5.86,0,0,1,2.07,3.54l-.22-.2A4.88,4.88,0,0,0,160.85,296.34Z" />
  <path class="GUNDAN_JAPANESE_SEROW_JEWELRY_JAPANESE_SEROW_JEWELRY_2_cls-1" d="M160.86,301.74a8,8,0,0,1-5.65-1.52c-2.72-1.89-4.55-3.91-4.06-5.67a3.9,3.9,0,0,1,1.84-2,4.94,4.94,0,0,1,.68,1.28h0a1.66,1.66,0,0,0-.53,1,1.39,1.39,0,0,0,0,.67c.26.87,3.1,3.54,5.52,4.19h0a2.58,2.58,0,0,0,2.26-.27,1.74,1.74,0,0,0,.51-.55c.39.3,1.14.9,1.93,1.59h0a3.84,3.84,0,0,1-.46.44A4.13,4.13,0,0,1,160.86,301.74Z" />
  <path class="GUNDAN_JAPANESE_SEROW_JEWELRY_JAPANESE_SEROW_JEWELRY_2_cls-3" d="M158.71,299.63h0c-.73-.84-1-1.6-.37-2.28a3.37,3.37,0,0,1,2.53-1,4.88,4.88,0,0,1,3.05,1.44l.22.2h0a27.42,27.42,0,0,1,4.81,5.28h0a3.08,3.08,0,0,1,.56,1.94h0a1.37,1.37,0,0,1-.43.84,3.13,3.13,0,0,1-2.75.92,1.53,1.53,0,0,1,0-.68,1.81,1.81,0,0,1,.62-.92,5.18,5.18,0,0,0-.56-1.34c-.16-.33-.39-.7-.66-1.14a12.49,12.49,0,0,0-2.34-2.51c-.79-.69-1.54-1.29-1.93-1.59a1.74,1.74,0,0,1-.51.55A2.58,2.58,0,0,1,158.71,299.63Z" />
  <path class="GUNDAN_JAPANESE_SEROW_JEWELRY_JAPANESE_SEROW_JEWELRY_2_cls-1" d="M163.41,300.4a12.49,12.49,0,0,1,2.34,2.51c.27.44.5.81.66,1.14a4.26,4.26,0,0,0-2,1.93s-1.79-2.4-3.52-4.24a4.13,4.13,0,0,0,2.08-.89,3.84,3.84,0,0,0,.46-.44Z" />
  <path class="GUNDAN_JAPANESE_SEROW_JEWELRY_JAPANESE_SEROW_JEWELRY_2_cls-1" d="M166.32,307c.16.86,2.59,3.56,4.88,4.44a2.73,2.73,0,0,0,2.51,0,2.24,2.24,0,0,0,.61-.57c.21.08,1.17.48,2.29,1a3.73,3.73,0,0,1-1.08,1.17,4,4,0,0,1-1.14.55,7.24,7.24,0,0,1-6.49-1.67c-2.54-2.06-4.17-4.18-3.52-5.91a4.26,4.26,0,0,1,2-1.93,5.18,5.18,0,0,1,.56,1.34,1.81,1.81,0,0,0-.62.92A1.53,1.53,0,0,0,166.32,307Z" />
  <path class="GUNDAN_JAPANESE_SEROW_JEWELRY_JAPANESE_SEROW_JEWELRY_2_cls-1" d="M180.1,313.94c.41.37.74.68,1,.95h0a3.61,3.61,0,0,0-1.32,2.3h0a59.44,59.44,0,0,0-5.38-3.63h0a4,4,0,0,0,1.14-.55,3.73,3.73,0,0,0,1.08-1.17A17.32,17.32,0,0,1,180.1,313.94Z" />
  <path class="GUNDAN_JAPANESE_SEROW_JEWELRY_JAPANESE_SEROW_JEWELRY_2_cls-3" d="M181.1,314.89c-.26-.27-.59-.58-1-.95a17.32,17.32,0,0,0-3.49-2.1c-1.12-.54-2.08-.94-2.29-1a2.24,2.24,0,0,1-.61.57,2.73,2.73,0,0,1-2.51,0,1.11,1.11,0,0,1-.1-1.22,3.05,3.05,0,0,1,3-1.56,6.15,6.15,0,0,1,2.55.76l.31.16a50.78,50.78,0,0,1,6.38,4l1.08,1.43a2,2,0,0,1,.1.32,1.36,1.36,0,0,1-.15.92,2.79,2.79,0,0,1-2.35,1.48,1.3,1.3,0,0,1-.19-.67,1.44,1.44,0,0,1,.29-1,5.92,5.92,0,0,0-1-1.17Z" />
  <path class="GUNDAN_JAPANESE_SEROW_JEWELRY_JAPANESE_SEROW_JEWELRY_2_cls-2" d="M189.73,317.41a11.36,11.36,0,0,0-5.24-2.06,2,2,0,0,0-.1-.32l-1.08-1.43a14.11,14.11,0,0,1,7.16,1.78,7.78,7.78,0,0,1,2.55,2.43,4.92,4.92,0,0,0-2.92-.49Z" />
  <path class="GUNDAN_JAPANESE_SEROW_JEWELRY_JAPANESE_SEROW_JEWELRY_2_cls-3" d="M189,320.92c-1-.64-1.47-1.32-1.07-2.11a2.86,2.86,0,0,1,1.76-1.4l.37-.09a4.92,4.92,0,0,1,2.92.49l.47.24a1.56,1.56,0,0,1,.28.16h0a33,33,0,0,1,6.36,4.06h0a3.61,3.61,0,0,1,1.17,1.76,1.32,1.32,0,0,1-.15.91,2.82,2.82,0,0,1-2.37,1.46,1.33,1.33,0,0,1-.19-.66,1.54,1.54,0,0,1,.31-1h0a5.56,5.56,0,0,0-1-1.15c-.25-.28-.59-.6-1-1a17.74,17.74,0,0,0-3.48-2.14c-1.28-.61-2.34-1-2.34-1H191a1.49,1.49,0,0,1-.45,1,1.94,1.94,0,0,1-1.49.6v0Z" />
  <path class="GUNDAN_JAPANESE_SEROW_JEWELRY_JAPANESE_SEROW_JEWELRY_2_cls-2" d="M207.29,324.09a7.52,7.52,0,0,1,2.58,2.54,1.87,1.87,0,0,1-.34-.08,6.3,6.3,0,0,0-2.72-.19,10.92,10.92,0,0,0-5.5-2.33,3.61,3.61,0,0,0-1.17-1.76A14,14,0,0,1,207.29,324.09Z" />
  <path class="GUNDAN_JAPANESE_SEROW_JEWELRY_JAPANESE_SEROW_JEWELRY_2_cls-1" d="M208.71,331c-1.66,1-4.28,1-6.83-.23-3.11-1.43-5.37-3.14-5.29-4.94h0a3.5,3.5,0,0,1,1.34-2.27,5.56,5.56,0,0,1,1,1.15h0a1.54,1.54,0,0,0-.31,1,1.33,1.33,0,0,0,.19.66c.44.8,3.63,2.87,6.14,3.23a2.59,2.59,0,0,0,2.41-.56,1.74,1.74,0,0,0,.41-.67c.26,0,1.32.22,2.55.5a3.09,3.09,0,0,1-.67,1.34,4,4,0,0,1-.91.78Z" />
  <path class="GUNDAN_JAPANESE_SEROW_JEWELRY_JAPANESE_SEROW_JEWELRY_2_cls-1" d="M215.08,333.37s-3.57-1.53-6.36-2.35a4,4,0,0,0,.91-.78,3.09,3.09,0,0,0,.67-1.34,20.13,20.13,0,0,1,4,1.28c.52.26.94.49,1.28.7A3.27,3.27,0,0,0,215.08,333.37Z" />
  <path class="GUNDAN_JAPANESE_SEROW_JEWELRY_JAPANESE_SEROW_JEWELRY_2_cls-3" d="M204.93,329.63a1.16,1.16,0,0,1-.49-1.14,2.67,2.67,0,0,1,2.37-2.13,6.3,6.3,0,0,1,2.72.19,1.87,1.87,0,0,0,.34.08h0a37.11,37.11,0,0,1,7.44,2.53,4.11,4.11,0,0,1,1.7,1.44,1.16,1.16,0,0,1,.17.9,2.5,2.5,0,0,1-1.82,1.93,1.86,1.86,0,0,1-.39-.6,1.39,1.39,0,0,1,0-1h0a7,7,0,0,0-1.32-.91c-.34-.21-.76-.44-1.28-.7a20.13,20.13,0,0,0-4-1.28c-1.23-.28-2.29-.46-2.55-.5a1.74,1.74,0,0,1-.41.67A2.59,2.59,0,0,1,204.93,329.63Z" />
  <path class="GUNDAN_JAPANESE_SEROW_JEWELRY_JAPANESE_SEROW_JEWELRY_2_cls-3" d="M215.63,330.88a7,7,0,0,1,1.32.91h0a1.39,1.39,0,0,0,0,1,1.86,1.86,0,0,0,.39.6c1,.92,8,3.09,9.15.69,1.3-2.69-5.36-3.94-7.5-3.52a4.11,4.11,0,0,0-1.7-1.44,14.64,14.64,0,0,1,7.52.19c3.63,1.23,5.1,3.42,4.27,5.4s-3.83,2.92-7.3,2.22-6.23-1.85-6.73-3.6h0A3.27,3.27,0,0,1,215.63,330.88Z" />
  <path class="GUNDAN_JAPANESE_SEROW_JEWELRY_JAPANESE_SEROW_JEWELRY_2_cls-4" d="M141.38,280.93a5.08,5.08,0,0,0-.23-1.4c-.09-.33-.21-.74-.37-1.23a11,11,0,0,0-1.55-2.63" />
  <path class="GUNDAN_JAPANESE_SEROW_JEWELRY_JAPANESE_SEROW_JEWELRY_2_cls-4" d="M138.71,281.11s-.48-1.06-1.15-2.36v0" />
  <path class="GUNDAN_JAPANESE_SEROW_JEWELRY_JAPANESE_SEROW_JEWELRY_2_cls-4" d="M139.88,272.6l2.41-.53c.08.11-.62,3.31-.53,3.44,1.14,1.61,1.41,1.6,2.05,3.65a3.06,3.06,0,0,1,.09,2,1.52,1.52,0,0,1-.63.78,3.24,3.24,0,0,1-2.9.47" />
  <path class="GUNDAN_JAPANESE_SEROW_JEWELRY_JAPANESE_SEROW_JEWELRY_2_cls-4" d="M141.39,280.94a1.91,1.91,0,0,0-.83.8,1.42,1.42,0,0,0-.19.67c0,.86,1.69,3.89,3.74,5.11a2.65,2.65,0,0,0,2.45.37,2.41,2.41,0,0,0,.74-.47" />
  <path class="GUNDAN_JAPANESE_SEROW_JEWELRY_JAPANESE_SEROW_JEWELRY_2_cls-4" d="M147.57,285.25a8.48,8.48,0,0,0-3.68-4.08" />
  <path class="GUNDAN_JAPANESE_SEROW_JEWELRY_JAPANESE_SEROW_JEWELRY_2_cls-4" d="M149.3,288.8a4.2,4.2,0,0,1-1.33,1,4.8,4.8,0,0,1-1.24.37,6.8,6.8,0,0,1-6-2.67c-2-2.41-3.1-4.77-2-6.36a4.83,4.83,0,0,1,2.44-1.58h0" />
  <path class="GUNDAN_JAPANESE_SEROW_JEWELRY_JAPANESE_SEROW_JEWELRY_2_cls-4" d="M150.15,286.61a6,6,0,0,0-.92-3.23,11.48,11.48,0,0,0-5.43-4.22" />
  <path class="GUNDAN_JAPANESE_SEROW_JEWELRY_JAPANESE_SEROW_JEWELRY_2_cls-4" d="M153.67,293.79a4.94,4.94,0,0,0-.68-1.28c-.19-.3-.45-.67-.77-1.1a14.78,14.78,0,0,0-2.91-2.61h0c-1-.7-1.79-1.25-2-1.38l-.06,0" />
  <path class="GUNDAN_JAPANESE_SEROW_JEWELRY_JAPANESE_SEROW_JEWELRY_2_cls-4" d="M151.14,294.56a52.53,52.53,0,0,0-4.41-4.42" />
  <path class="GUNDAN_JAPANESE_SEROW_JEWELRY_JAPANESE_SEROW_JEWELRY_2_cls-4" d="M144.11,287.52a1.1,1.1,0,0,1,.17-1.2,3.35,3.35,0,0,1,3.29-1.07,5.78,5.78,0,0,1,2.32,1.16c.08,0,.16.13.26.2h0a29,29,0,0,1,5.29,5,3.37,3.37,0,0,1,.75,1.9,1.4,1.4,0,0,1-.36.87,3,3,0,0,1-2.67,1.08" />
  <path class="GUNDAN_JAPANESE_SEROW_JEWELRY_JAPANESE_SEROW_JEWELRY_2_cls-4" d="M158.71,299.63a2.58,2.58,0,0,0,2.26-.27,1.74,1.74,0,0,0,.51-.55" />
  <path class="GUNDAN_JAPANESE_SEROW_JEWELRY_JAPANESE_SEROW_JEWELRY_2_cls-4" d="M153.68,293.8a1.66,1.66,0,0,0-.53,1,1.39,1.39,0,0,0,0,.67c.26.87,3.1,3.54,5.52,4.19" />
  <path class="GUNDAN_JAPANESE_SEROW_JEWELRY_JAPANESE_SEROW_JEWELRY_2_cls-4" d="M160.85,296.34a10,10,0,0,0-4.65-2.86s0,0,0,0" />
  <path class="GUNDAN_JAPANESE_SEROW_JEWELRY_JAPANESE_SEROW_JEWELRY_2_cls-4" d="M153,292.49v0a3.9,3.9,0,0,0-1.84,2c-.49,1.76,1.34,3.78,4.06,5.67a8,8,0,0,0,5.65,1.52,4.13,4.13,0,0,0,2.08-.89,3.84,3.84,0,0,0,.46-.44" />
  <path class="GUNDAN_JAPANESE_SEROW_JEWELRY_JAPANESE_SEROW_JEWELRY_2_cls-4" d="M164.12,298a5.86,5.86,0,0,0-2.07-3.54,13,13,0,0,0-6.6-2.86h0" />
  <path class="GUNDAN_JAPANESE_SEROW_JEWELRY_JAPANESE_SEROW_JEWELRY_2_cls-4" d="M167,305.39a5.18,5.18,0,0,0-.56-1.34c-.16-.33-.39-.7-.66-1.14a12.49,12.49,0,0,0-2.34-2.51c-.79-.69-1.54-1.29-1.93-1.59l-.31-.22" />
  <path class="GUNDAN_JAPANESE_SEROW_JEWELRY_JAPANESE_SEROW_JEWELRY_2_cls-4" d="M164.38,306s-1.79-2.4-3.52-4.24" />
  <path class="GUNDAN_JAPANESE_SEROW_JEWELRY_JAPANESE_SEROW_JEWELRY_2_cls-4" d="M158.71,299.63h0c-.73-.84-1-1.6-.37-2.28a3.37,3.37,0,0,1,2.53-1,4.88,4.88,0,0,1,3.05,1.44l.22.2h0a27.42,27.42,0,0,1,4.81,5.28h0a3.08,3.08,0,0,1,.56,1.94h0a1.37,1.37,0,0,1-.43.84,3.13,3.13,0,0,1-2.75.92h0" />
  <path class="GUNDAN_JAPANESE_SEROW_JEWELRY_JAPANESE_SEROW_JEWELRY_2_cls-4" d="M167,305.39a1.81,1.81,0,0,0-.62.92,1.53,1.53,0,0,0,0,.68c.16.86,2.59,3.56,4.88,4.44a2.73,2.73,0,0,0,2.51,0,2.24,2.24,0,0,0,.61-.57" />
  <path class="GUNDAN_JAPANESE_SEROW_JEWELRY_JAPANESE_SEROW_JEWELRY_2_cls-4" d="M174.07,308.65a9.54,9.54,0,0,0-4.57-3.43" />
  <path class="GUNDAN_JAPANESE_SEROW_JEWELRY_JAPANESE_SEROW_JEWELRY_2_cls-4" d="M176.61,311.84a3.73,3.73,0,0,1-1.08,1.17,4,4,0,0,1-1.14.55,7.24,7.24,0,0,1-6.49-1.67c-2.54-2.06-4.17-4.18-3.52-5.91a4.26,4.26,0,0,1,2-1.93h0" />
  <path class="GUNDAN_JAPANESE_SEROW_JEWELRY_JAPANESE_SEROW_JEWELRY_2_cls-4" d="M176.93,309.57a6.56,6.56,0,0,0-1.68-3,12.74,12.74,0,0,0-6.31-3.28" />
  <path class="GUNDAN_JAPANESE_SEROW_JEWELRY_JAPANESE_SEROW_JEWELRY_2_cls-4" d="M181.1,314.89c-.26-.27-.59-.58-1-.95a17.32,17.32,0,0,0-3.49-2.1c-1.12-.54-2.08-.94-2.29-1l-.06,0" />
  <path class="GUNDAN_JAPANESE_SEROW_JEWELRY_JAPANESE_SEROW_JEWELRY_2_cls-4" d="M182.09,316.07a5.92,5.92,0,0,0-1-1.17" />
  <path class="GUNDAN_JAPANESE_SEROW_JEWELRY_JAPANESE_SEROW_JEWELRY_2_cls-4" d="M179.78,317.2a59.44,59.44,0,0,0-5.38-3.63" />
  <path class="GUNDAN_JAPANESE_SEROW_JEWELRY_JAPANESE_SEROW_JEWELRY_2_cls-4" d="M171.2,311.43a1.11,1.11,0,0,1-.1-1.22,3.05,3.05,0,0,1,3-1.56,6.15,6.15,0,0,1,2.55.76l.31.16a50.78,50.78,0,0,1,6.38,4l1.08,1.43a2,2,0,0,1,.1.32,1.36,1.36,0,0,1-.15.92,2.79,2.79,0,0,1-2.35,1.48" />
  <path class="GUNDAN_JAPANESE_SEROW_JEWELRY_JAPANESE_SEROW_JEWELRY_2_cls-4" d="M184.48,315.36h0a11.36,11.36,0,0,1,5.24,2.06" />
  <path class="GUNDAN_JAPANESE_SEROW_JEWELRY_JAPANESE_SEROW_JEWELRY_2_cls-4" d="M191,319.4a1.49,1.49,0,0,1-.45,1,1.94,1.94,0,0,1-1.49.6h0c-2.53.16-6.57-2.34-7-3.22a1.3,1.3,0,0,1-.19-.67,1.44,1.44,0,0,1,.29-1" />
  <path class="GUNDAN_JAPANESE_SEROW_JEWELRY_JAPANESE_SEROW_JEWELRY_2_cls-4" d="M183.29,313.61h0a14.11,14.11,0,0,1,7.16,1.78,7.78,7.78,0,0,1,2.55,2.43" />
  <path class="GUNDAN_JAPANESE_SEROW_JEWELRY_JAPANESE_SEROW_JEWELRY_2_cls-4" d="M193.46,320.46a3.36,3.36,0,0,1-.6,1.07,3.49,3.49,0,0,1-1.11.89l0,0a7.84,7.84,0,0,1-6.6-.33c-3.12-1.42-5.4-3.1-5.32-4.91a3.61,3.61,0,0,1,1.32-2.3h0" />
  <path class="GUNDAN_JAPANESE_SEROW_JEWELRY_JAPANESE_SEROW_JEWELRY_2_cls-4" d="M191.12,319.41s1.06.44,2.34,1a17.74,17.74,0,0,1,3.48,2.14c.4.37.74.69,1,1a5.56,5.56,0,0,1,1,1.15" />
  <path class="GUNDAN_JAPANESE_SEROW_JEWELRY_JAPANESE_SEROW_JEWELRY_2_cls-4" d="M196.59,325.84s-2.61-2-4.88-3.4" />
  <path class="GUNDAN_JAPANESE_SEROW_JEWELRY_JAPANESE_SEROW_JEWELRY_2_cls-4" d="M198.77,326.41h0a2.82,2.82,0,0,0,2.37-1.46,1.32,1.32,0,0,0,.15-.91,3.61,3.61,0,0,0-1.17-1.76h0a33,33,0,0,0-6.36-4.06h0a1.56,1.56,0,0,0-.28-.16l-.47-.24a4.92,4.92,0,0,0-2.92-.49l-.37.09a2.86,2.86,0,0,0-1.76,1.4c-.4.79.1,1.47,1.07,2.11h0" />
  <path class="GUNDAN_JAPANESE_SEROW_JEWELRY_JAPANESE_SEROW_JEWELRY_2_cls-4" d="M198.91,324.73a1.54,1.54,0,0,0-.31,1,1.33,1.33,0,0,0,.19.66c.44.8,3.63,2.87,6.14,3.23a2.59,2.59,0,0,0,2.41-.56,1.74,1.74,0,0,0,.41-.67" />
  <path class="GUNDAN_JAPANESE_SEROW_JEWELRY_JAPANESE_SEROW_JEWELRY_2_cls-4" d="M206.81,326.36a10.92,10.92,0,0,0-5.5-2.33h0" />
  <path class="GUNDAN_JAPANESE_SEROW_JEWELRY_JAPANESE_SEROW_JEWELRY_2_cls-4" d="M208.71,331c-1.66,1-4.28,1-6.83-.23-3.11-1.43-5.37-3.14-5.29-4.94h0a3.5,3.5,0,0,1,1.34-2.27v0" />
  <path class="GUNDAN_JAPANESE_SEROW_JEWELRY_JAPANESE_SEROW_JEWELRY_2_cls-4" d="M210.3,328.9a3.09,3.09,0,0,1-.67,1.34,4,4,0,0,1-.91.78" />
  <path class="GUNDAN_JAPANESE_SEROW_JEWELRY_JAPANESE_SEROW_JEWELRY_2_cls-4" d="M209.87,326.63a7.52,7.52,0,0,0-2.58-2.54,14,14,0,0,0-7.15-1.82h0" />
  <path class="GUNDAN_JAPANESE_SEROW_JEWELRY_JAPANESE_SEROW_JEWELRY_2_cls-4" d="M217,331.79a7,7,0,0,0-1.32-.91c-.34-.21-.76-.44-1.28-.7a20.13,20.13,0,0,0-4-1.28c-1.23-.28-2.29-.46-2.55-.5l-.07,0" />
  <path class="GUNDAN_JAPANESE_SEROW_JEWELRY_JAPANESE_SEROW_JEWELRY_2_cls-4" d="M215.08,333.37s-3.57-1.53-6.36-2.35h0" />
  <path class="GUNDAN_JAPANESE_SEROW_JEWELRY_JAPANESE_SEROW_JEWELRY_2_cls-4" d="M204.93,329.63a1.16,1.16,0,0,1-.49-1.14,2.67,2.67,0,0,1,2.37-2.13,6.3,6.3,0,0,1,2.72.19,1.87,1.87,0,0,0,.34.08h0a37.11,37.11,0,0,1,7.44,2.53,4.11,4.11,0,0,1,1.7,1.44,1.16,1.16,0,0,1,.17.9,2.5,2.5,0,0,1-1.82,1.93" />
  <path class="GUNDAN_JAPANESE_SEROW_JEWELRY_JAPANESE_SEROW_JEWELRY_2_cls-4" d="M219,330.61c2.14-.42,8.8.83,7.5,3.52-1.17,2.4-8.2.23-9.15-.69a1.86,1.86,0,0,1-.39-.6,1.39,1.39,0,0,1,0-1" />
  <path class="GUNDAN_JAPANESE_SEROW_JEWELRY_JAPANESE_SEROW_JEWELRY_2_cls-4" d="M217.32,329.17h0a14.64,14.64,0,0,1,7.52.19c3.63,1.23,5.1,3.42,4.27,5.4s-3.83,2.92-7.3,2.22-6.23-1.85-6.73-3.6h0a3.27,3.27,0,0,1,.55-2.49" />
  <path class="GUNDAN_JAPANESE_SEROW_JEWELRY_JAPANESE_SEROW_JEWELRY_2_cls-4" d="M139.89,272.6h0c-2.6.77-3.13,4.18-2.33,6.13v0" />
  <path d="M305.43,290c-.34-1.56-.51-2.33-.86-3.89a4.84,4.84,0,0,1,4.09,1.51" />
  <path class="GUNDAN_JAPANESE_SEROW_JEWELRY_JAPANESE_SEROW_JEWELRY_2_cls-1" d="M248.27,333s3-1.37,5.45-2.25a0,0,0,0,0,0,0,3.72,3.72,0,0,1-.89-1.1,3.2,3.2,0,0,1-.34-1.16,18.3,18.3,0,0,0-3.8,1.32c-.47.27-.87.5-1.17.71A3.52,3.52,0,0,1,248.27,333Z" />
  <path class="GUNDAN_JAPANESE_SEROW_JEWELRY_JAPANESE_SEROW_JEWELRY_2_cls-1" d="M264.05,328c-.63.78-5,2.51-7.45,1.86h0a2,2,0,0,1-1.32-.89,1.55,1.55,0,0,1-.24-1l-.11,0s-1.1.22-2.45.55a3.2,3.2,0,0,0,.34,1.16,3.72,3.72,0,0,0,.89,1.1,0,0,0,0,1,0,0,7.61,7.61,0,0,0,6.48,1c3.31-.81,5.83-2.11,6.07-3.89a3.59,3.59,0,0,0-.89-2.47,6.4,6.4,0,0,0-1.14,1,1.59,1.59,0,0,1-.19,1.67Z" />
  <path class="GUNDAN_JAPANESE_SEROW_JEWELRY_JAPANESE_SEROW_JEWELRY_2_cls-1" d="M303.68,295.47a1.65,1.65,0,0,0,.58.79,2.9,2.9,0,0,0,2.73.53,1.62,1.62,0,0,0-.17-.68,2,2,0,0,0-.79-.81h0a5.28,5.28,0,0,1,.21-1.39,4.49,4.49,0,0,1,2.3,1.61s.45-1.05,1.05-2.34v0c.72-1.94.12-5.34-2.29-6.13h0c-2.46-.85-1.68,2.63-1.76,2.77a11.45,11.45,0,0,0-1.79,3.68A3.41,3.41,0,0,0,303.68,295.47Z" />
  <path class="GUNDAN_JAPANESE_SEROW_JEWELRY_JAPANESE_SEROW_JEWELRY_2_cls-2" d="M303.68,295.46a3.24,3.24,0,0,1,.09-2,10.82,10.82,0,0,0-5.1,4,6.18,6.18,0,0,0-.95,3.17c.1-.07.17-.14.25-.19a5.23,5.23,0,0,1,2.21-1.05A8.22,8.22,0,0,1,303.68,295.46Z" />
  <path class="GUNDAN_JAPANESE_SEROW_JEWELRY_JAPANESE_SEROW_JEWELRY_2_cls-1" d="M308.55,295.51a4.52,4.52,0,0,0-2.3-1.61,5.2,5.2,0,0,0-.21,1.38h0a2,2,0,0,1,.79.82,1.59,1.59,0,0,1,.17.68c0,.86-1.61,3.86-3.58,5a2.41,2.41,0,0,1-2.34.28,2.45,2.45,0,0,1-.69-.5c-.19.12-1,.63-1.93,1.29a4.17,4.17,0,0,0,1.23,1,4.36,4.36,0,0,0,1.16.42,6.19,6.19,0,0,0,5.75-2.48C308.53,299.47,309.55,297.11,308.55,295.51Z" />
  <path class="GUNDAN_JAPANESE_SEROW_JEWELRY_JAPANESE_SEROW_JEWELRY_2_cls-1" d="M300.84,304.32a4.36,4.36,0,0,1-1.16-.42,4.17,4.17,0,0,1-1.23-1h0a15.19,15.19,0,0,0-2.87,2.45q-.48.62-.78,1.05a4,4,0,0,1,1.65,2.15h0A56.75,56.75,0,0,1,300.84,304.32Z" />
  <path class="GUNDAN_JAPANESE_SEROW_JEWELRY_JAPANESE_SEROW_JEWELRY_2_cls-3" d="M301.07,302.08a2.41,2.41,0,0,0,2.34-.28,1.19,1.19,0,0,0-.14-1.21,3.19,3.19,0,0,0-3.09-1.19,5.23,5.23,0,0,0-2.21,1.05c-.08.05-.15.12-.25.19h0a28.92,28.92,0,0,0-5.2,4.62,3.4,3.4,0,0,0-.83,1.83,1.44,1.44,0,0,0,.3.9,2.82,2.82,0,0,0,2.47,1.26,1.44,1.44,0,0,0,.07-.67,1.77,1.77,0,0,0-.45-1h0a5.14,5.14,0,0,1,.72-1.23q.3-.44.78-1.05a15.19,15.19,0,0,1,2.87-2.45h0c.93-.66,1.74-1.17,1.93-1.29A2.45,2.45,0,0,0,301.07,302.08Z" />
  <path class="GUNDAN_JAPANESE_SEROW_JEWELRY_JAPANESE_SEROW_JEWELRY_2_cls-2" d="M277.94,317.45a3.16,3.16,0,0,1,.76-1.85h0a12.55,12.55,0,0,0-6.44,2.41,6.62,6.62,0,0,0-2,2.74l.32-.12a5.82,5.82,0,0,1,2.55-.38A9.51,9.51,0,0,1,277.94,317.45Z" />
  <path class="GUNDAN_JAPANESE_SEROW_JEWELRY_JAPANESE_SEROW_JEWELRY_2_cls-2" d="M287.07,309.57a9.5,9.5,0,0,1,4.61-2.47,3.4,3.4,0,0,1,.83-1.83,12.38,12.38,0,0,0-6.43,2.3,5.92,5.92,0,0,0-2.26,3.31l.23-.17A4.49,4.49,0,0,1,287.07,309.57Z" />
  <path class="GUNDAN_JAPANESE_SEROW_JEWELRY_JAPANESE_SEROW_JEWELRY_2_cls-1" d="M286.61,314.94a7.43,7.43,0,0,0,5.57-1c2.76-1.68,4.64-3.6,4.26-5.39a4,4,0,0,0-1.65-2.15,5.14,5.14,0,0,0-.72,1.23h0a1.77,1.77,0,0,1,.45,1,1.44,1.44,0,0,1-.07.67c-.29.85-3.2,3.32-5.57,3.76h0a2.43,2.43,0,0,1-2.15-.47,1.78,1.78,0,0,1-.44-.59c-.4.26-1.17.78-2,1.38v0a6,6,0,0,0,.4.48A4,4,0,0,0,286.61,314.94Z" />
  <path class="GUNDAN_JAPANESE_SEROW_JEWELRY_JAPANESE_SEROW_JEWELRY_2_cls-3" d="M288.86,313h0c.77-.77,1.07-1.51.52-2.24a3.17,3.17,0,0,0-2.33-1.21,4.49,4.49,0,0,0-3,1.14l-.23.17v0a28.06,28.06,0,0,0-5.12,4.69h0a3.16,3.16,0,0,0-.76,1.85h0a1.42,1.42,0,0,0,.31.89,3,3,0,0,0,2.54,1.24,1.28,1.28,0,0,0,0-.69,1.77,1.77,0,0,0-.49-1,5.62,5.62,0,0,1,.69-1.26c.19-.31.45-.65.75-1.06a12.61,12.61,0,0,1,2.49-2.25c.82-.6,1.59-1.12,2-1.38a1.78,1.78,0,0,0,.44.59A2.43,2.43,0,0,0,288.86,313Z" />
  <path class="GUNDAN_JAPANESE_SEROW_JEWELRY_JAPANESE_SEROW_JEWELRY_2_cls-1" d="M284.28,313.35a12.61,12.61,0,0,0-2.49,2.25c-.3.41-.56.75-.75,1.06a4.18,4.18,0,0,1,1.74,2.14s2-2.2,3.83-3.86a4,4,0,0,1-1.92-1.09,6,6,0,0,1-.4-.48Z" />
  <path class="GUNDAN_JAPANESE_SEROW_JEWELRY_JAPANESE_SEROW_JEWELRY_2_cls-1" d="M280.79,319.59c-.25.83-2.94,3.22-5.29,3.79a2.6,2.6,0,0,1-2.42-.39,1.87,1.87,0,0,1-.5-.65c-.23.06-1.21.31-2.37.68a3.93,3.93,0,0,0,.87,1.32,3.78,3.78,0,0,0,1,.7,6.91,6.91,0,0,0,6.56-.78c2.74-1.73,4.57-3.67,4.12-5.46a4.18,4.18,0,0,0-1.74-2.14,5.62,5.62,0,0,0-.69,1.26,1.77,1.77,0,0,1,.49,1A1.28,1.28,0,0,1,280.79,319.59Z" />
  <path class="GUNDAN_JAPANESE_SEROW_JEWELRY_JAPANESE_SEROW_JEWELRY_2_cls-1" d="M266.51,324.54c-.45.3-.82.54-1.12.77h0a3.54,3.54,0,0,1,.89,2.47h0s3.27-1.74,5.81-2.74h0a3.78,3.78,0,0,1-1-.7,3.93,3.93,0,0,1-.87-1.32A17.69,17.69,0,0,0,266.51,324.54Z" />
  <path class="GUNDAN_JAPANESE_SEROW_JEWELRY_JAPANESE_SEROW_JEWELRY_2_cls-3" d="M265.39,325.31c.3-.23.67-.47,1.12-.77a17.69,17.69,0,0,1,3.7-1.52c1.16-.37,2.14-.62,2.37-.68a1.87,1.87,0,0,0,.5.65,2.6,2.6,0,0,0,2.42.39,1.12,1.12,0,0,0,.27-1.19,3,3,0,0,0-2.66-1.95,5.82,5.82,0,0,0-2.55.38l-.32.12a57.81,57.81,0,0,0-6.75,2.93l-1.29,1.21a1.68,1.68,0,0,0-.15.3,1.32,1.32,0,0,0,0,.92,2.74,2.74,0,0,0,2,1.86,1.59,1.59,0,0,0,.19-1.67,6.4,6.4,0,0,1,1.14-1Z" />
  <path class="GUNDAN_JAPANESE_SEROW_JEWELRY_JAPANESE_SEROW_JEWELRY_2_cls-2" d="M256.64,326.21a11.13,11.13,0,0,1,5.41-1,1.68,1.68,0,0,1,.15-.3l1.29-1.21a14,14,0,0,0-7.17.42,7.64,7.64,0,0,0-2.9,1.85,4.76,4.76,0,0,1,2.88.11A2.68,2.68,0,0,1,256.64,326.21Z" />
  <path class="GUNDAN_JAPANESE_SEROW_JEWELRY_JAPANESE_SEROW_JEWELRY_2_cls-3" d="M256.62,329.77c1.07-.44,1.68-1,1.45-1.85a2.83,2.83,0,0,0-1.43-1.71,2.68,2.68,0,0,0-.34-.16,4.76,4.76,0,0,0-2.88-.11l-.5.13-.3.1h0a34,34,0,0,0-6.94,2.53h0a3.64,3.64,0,0,0-1.52,1.42,1.44,1.44,0,0,0-.07.92,2.81,2.81,0,0,0,1.94,2,1.27,1.27,0,0,0,.34-.6,1.49,1.49,0,0,0-.06-1h0a6.71,6.71,0,0,1,1.2-.9c.3-.21.7-.44,1.17-.71a17.74,17.74,0,0,1,3.8-1.32c1.34-.34,2.45-.55,2.45-.55l.11,0a1.55,1.55,0,0,0,.24,1,2,2,0,0,0,1.32.89v0Z" />
  <path class="GUNDAN_JAPANESE_SEROW_JEWELRY_JAPANESE_SEROW_JEWELRY_2_cls-2" d="M238.44,328.73a7.42,7.42,0,0,0-3.08,1.76h.34a6.24,6.24,0,0,1,2.63.52,11.1,11.1,0,0,1,5.81-.89,3.64,3.64,0,0,1,1.52-1.42A14.1,14.1,0,0,0,238.44,328.73Z" />
  <path class="GUNDAN_JAPANESE_SEROW_JEWELRY_JAPANESE_SEROW_JEWELRY_2_cls-1" d="M235.31,335c1.33,1.38,3.88,2,6.65,1.52,3.37-.62,6-1.77,6.3-3.53h0a3.52,3.52,0,0,0-.78-2.51,6.71,6.71,0,0,0-1.2.9h0a1.49,1.49,0,0,1,.06,1,1.27,1.27,0,0,1-.34.6c-.6.67-4.2,1.92-6.71,1.62a2.53,2.53,0,0,1-2.16-1.14,1.85,1.85,0,0,1-.22-.76c-.26,0-1.31-.13-2.57-.19a3.18,3.18,0,0,0,.29,1.46,4.11,4.11,0,0,0,.66,1Z" />
  <path class="GUNDAN_JAPANESE_SEROW_JEWELRY_JAPANESE_SEROW_JEWELRY_2_cls-1" d="M228.57,335.47s3.84-.44,6.73-.49a4.11,4.11,0,0,1-.66-1,3.18,3.18,0,0,1-.29-1.46,21.05,21.05,0,0,0-4.19.11c-.56.11-1,.2-1.41.3A3.18,3.18,0,0,1,228.57,335.47Z" />
  <path class="GUNDAN_JAPANESE_SEROW_JEWELRY_JAPANESE_SEROW_JEWELRY_2_cls-3" d="M239.3,334.63a1.16,1.16,0,0,0,.77-1,2.67,2.67,0,0,0-1.74-2.65,6.24,6.24,0,0,0-2.63-.52h-.36a41.68,41.68,0,0,0-7.72.35,4.18,4.18,0,0,0-2,.87,1.19,1.19,0,0,0-.42.81,2.47,2.47,0,0,0,1.16,2.35,1.77,1.77,0,0,0,.54-.45,1.36,1.36,0,0,0,.33-1h0a7.76,7.76,0,0,1,1.51-.48c.38-.1.85-.19,1.41-.3a21.05,21.05,0,0,1,4.19-.11c1.26.06,2.31.16,2.57.19a1.85,1.85,0,0,0,.22.76A2.53,2.53,0,0,0,239.3,334.63Z" />
  <path class="GUNDAN_JAPANESE_SEROW_JEWELRY_JAPANESE_SEROW_JEWELRY_2_cls-5" d="M306,295.28a5.2,5.2,0,0,1,.21-1.38c.08-.33.19-.74.34-1.22a11,11,0,0,1,1.4-2.61" />
  <path class="GUNDAN_JAPANESE_SEROW_JEWELRY_JAPANESE_SEROW_JEWELRY_2_cls-5" d="M308.55,295.51s.45-1.05,1.05-2.34v0" />
  <path class="GUNDAN_JAPANESE_SEROW_JEWELRY_JAPANESE_SEROW_JEWELRY_2_cls-5" d="M307.32,287c-.9-.22-1.34-.34-2.23-.57-.08.11.63,3.31.55,3.44-1,1.58-1.29,1.56-1.88,3.58a3.26,3.26,0,0,0-.08,2,1.59,1.59,0,0,0,.58.79,2.9,2.9,0,0,0,2.73.53" />
  <path class="GUNDAN_JAPANESE_SEROW_JEWELRY_JAPANESE_SEROW_JEWELRY_2_cls-5" d="M306,295.29a2,2,0,0,1,.79.82,1.59,1.59,0,0,1,.17.68c0,.86-1.61,3.86-3.58,5a2.41,2.41,0,0,1-2.34.28,2.45,2.45,0,0,1-.69-.5" />
  <path class="GUNDAN_JAPANESE_SEROW_JEWELRY_JAPANESE_SEROW_JEWELRY_2_cls-5" d="M300.18,299.4a8.22,8.22,0,0,1,3.5-3.94" />
  <path class="GUNDAN_JAPANESE_SEROW_JEWELRY_JAPANESE_SEROW_JEWELRY_2_cls-5" d="M298.45,302.87a4.17,4.17,0,0,0,1.23,1,4.36,4.36,0,0,0,1.16.42,6.19,6.19,0,0,0,5.75-2.48c1.94-2.37,3-4.73,2-6.33a4.56,4.56,0,0,0-2.3-1.61h0" />
  <path class="GUNDAN_JAPANESE_SEROW_JEWELRY_JAPANESE_SEROW_JEWELRY_2_cls-5" d="M297.72,300.64a6.18,6.18,0,0,1,.95-3.17,10.82,10.82,0,0,1,5.1-4" />
  <path class="GUNDAN_JAPANESE_SEROW_JEWELRY_JAPANESE_SEROW_JEWELRY_2_cls-5" d="M294.07,307.59a5.14,5.14,0,0,1,.72-1.23q.3-.44.78-1.05a15.19,15.19,0,0,1,2.87-2.45h0c.93-.66,1.74-1.17,1.93-1.29l.06,0" />
  <path class="GUNDAN_JAPANESE_SEROW_JEWELRY_JAPANESE_SEROW_JEWELRY_2_cls-5" d="M296.45,308.51a56.75,56.75,0,0,1,4.39-4.19" />
  <path class="GUNDAN_JAPANESE_SEROW_JEWELRY_JAPANESE_SEROW_JEWELRY_2_cls-5" d="M303.41,301.8a1.19,1.19,0,0,0-.14-1.21,3.19,3.19,0,0,0-3.09-1.19,5.23,5.23,0,0,0-2.21,1.05c-.08.05-.15.12-.25.19h0a28.92,28.92,0,0,0-5.2,4.62,3.4,3.4,0,0,0-.83,1.83,1.44,1.44,0,0,0,.3.9,2.82,2.82,0,0,0,2.47,1.26" />
  <path class="GUNDAN_JAPANESE_SEROW_JEWELRY_JAPANESE_SEROW_JEWELRY_2_cls-5" d="M288.86,313a2.43,2.43,0,0,1-2.15-.47,1.78,1.78,0,0,1-.44-.59" />
  <path class="GUNDAN_JAPANESE_SEROW_JEWELRY_JAPANESE_SEROW_JEWELRY_2_cls-5" d="M294.07,307.6a1.77,1.77,0,0,1,.45,1,1.44,1.44,0,0,1-.07.67c-.29.85-3.2,3.32-5.57,3.76" />
  <path class="GUNDAN_JAPANESE_SEROW_JEWELRY_JAPANESE_SEROW_JEWELRY_2_cls-5" d="M287.07,309.57a9.5,9.5,0,0,1,4.61-2.47h0" />
  <path class="GUNDAN_JAPANESE_SEROW_JEWELRY_JAPANESE_SEROW_JEWELRY_2_cls-5" d="M294.78,306.34v0a4,4,0,0,1,1.65,2.15c.38,1.79-1.5,3.71-4.26,5.39a7.43,7.43,0,0,1-5.57,1,4,4,0,0,1-1.92-1.09,6,6,0,0,1-.4-.48" />
  <path class="GUNDAN_JAPANESE_SEROW_JEWELRY_JAPANESE_SEROW_JEWELRY_2_cls-5" d="M283.82,310.88a5.92,5.92,0,0,1,2.26-3.31,12.38,12.38,0,0,1,6.43-2.3h0" />
  <path class="GUNDAN_JAPANESE_SEROW_JEWELRY_JAPANESE_SEROW_JEWELRY_2_cls-5" d="M280.35,317.92a5.62,5.62,0,0,1,.69-1.26c.19-.31.45-.65.75-1.06a12.61,12.61,0,0,1,2.49-2.25c.82-.6,1.59-1.12,2-1.38l.31-.2" />
  <path class="GUNDAN_JAPANESE_SEROW_JEWELRY_JAPANESE_SEROW_JEWELRY_2_cls-5" d="M282.78,318.8s2-2.2,3.83-3.86" />
  <path class="GUNDAN_JAPANESE_SEROW_JEWELRY_JAPANESE_SEROW_JEWELRY_2_cls-5" d="M288.86,313h0c.77-.77,1.07-1.51.52-2.24a3.17,3.17,0,0,0-2.33-1.21,4.49,4.49,0,0,0-3,1.14l-.23.17v0a28.06,28.06,0,0,0-5.12,4.69h0a3.16,3.16,0,0,0-.76,1.85h0a1.42,1.42,0,0,0,.31.89,3,3,0,0,0,2.54,1.24h0" />
  <path class="GUNDAN_JAPANESE_SEROW_JEWELRY_JAPANESE_SEROW_JEWELRY_2_cls-5" d="M280.35,317.92a1.77,1.77,0,0,1,.49,1,1.28,1.28,0,0,1,0,.69c-.25.83-2.94,3.22-5.29,3.79a2.6,2.6,0,0,1-2.42-.39,1.87,1.87,0,0,1-.5-.65" />
  <path class="GUNDAN_JAPANESE_SEROW_JEWELRY_JAPANESE_SEROW_JEWELRY_2_cls-5" d="M273.11,320.24a9.51,9.51,0,0,1,4.83-2.79" />
  <path class="GUNDAN_JAPANESE_SEROW_JEWELRY_JAPANESE_SEROW_JEWELRY_2_cls-5" d="M270.21,323a3.93,3.93,0,0,0,.87,1.32,3.78,3.78,0,0,0,1,.7,6.91,6.91,0,0,0,6.56-.78c2.74-1.73,4.57-3.67,4.12-5.46a4.18,4.18,0,0,0-1.74-2.14h0" />
  <path class="GUNDAN_JAPANESE_SEROW_JEWELRY_JAPANESE_SEROW_JEWELRY_2_cls-5" d="M270.24,320.74a6.62,6.62,0,0,1,2-2.74,12.55,12.55,0,0,1,6.44-2.41" />
  <path class="GUNDAN_JAPANESE_SEROW_JEWELRY_JAPANESE_SEROW_JEWELRY_2_cls-5" d="M265.39,325.31c.3-.23.67-.47,1.12-.77a17.69,17.69,0,0,1,3.7-1.52c1.16-.37,2.14-.62,2.37-.68h.05" />
  <path class="GUNDAN_JAPANESE_SEROW_JEWELRY_JAPANESE_SEROW_JEWELRY_2_cls-5" d="M264.24,326.29a6.4,6.4,0,0,1,1.14-1" />
  <path class="GUNDAN_JAPANESE_SEROW_JEWELRY_JAPANESE_SEROW_JEWELRY_2_cls-5" d="M266.28,327.79s3.27-1.74,5.81-2.74" />
  <path class="GUNDAN_JAPANESE_SEROW_JEWELRY_JAPANESE_SEROW_JEWELRY_2_cls-5" d="M275.5,323.38a1.12,1.12,0,0,0,.27-1.19,3,3,0,0,0-2.66-1.95,5.82,5.82,0,0,0-2.55.38l-.32.12a57.81,57.81,0,0,0-6.75,2.93l-1.29,1.21a1.68,1.68,0,0,0-.15.3,1.32,1.32,0,0,0,0,.92,2.74,2.74,0,0,0,2,1.86" />
  <path class="GUNDAN_JAPANESE_SEROW_JEWELRY_JAPANESE_SEROW_JEWELRY_2_cls-5" d="M262.06,325.18h0a11.13,11.13,0,0,0-5.41,1" />
  <path class="GUNDAN_JAPANESE_SEROW_JEWELRY_JAPANESE_SEROW_JEWELRY_2_cls-5" d="M255,327.9a1.55,1.55,0,0,0,.24,1,2,2,0,0,0,1.32.89h0c2.42.65,6.82-1.08,7.45-1.86a1.59,1.59,0,0,0,.19-1.67" />
  <path class="GUNDAN_JAPANESE_SEROW_JEWELRY_JAPANESE_SEROW_JEWELRY_2_cls-5" d="M263.5,323.67h0a14,14,0,0,0-7.17.42,7.64,7.64,0,0,0-2.9,1.85" />
  <path class="GUNDAN_JAPANESE_SEROW_JEWELRY_JAPANESE_SEROW_JEWELRY_2_cls-5" d="M252.46,328.43a3.2,3.2,0,0,0,.34,1.16,3.72,3.72,0,0,0,.89,1.1,0,0,0,0,1,0,0,7.61,7.61,0,0,0,6.48,1c3.31-.81,5.84-2.1,6.07-3.89a3.54,3.54,0,0,0-.89-2.47h0" />
  <path class="GUNDAN_JAPANESE_SEROW_JEWELRY_JAPANESE_SEROW_JEWELRY_2_cls-5" d="M254.91,327.88s-1.1.22-2.45.55a18.3,18.3,0,0,0-3.8,1.32c-.47.27-.87.5-1.17.71a6.71,6.71,0,0,0-1.2.9" />
  <path class="GUNDAN_JAPANESE_SEROW_JEWELRY_JAPANESE_SEROW_JEWELRY_2_cls-5" d="M248.27,333s3-1.37,5.45-2.25" />
  <path class="GUNDAN_JAPANESE_SEROW_JEWELRY_JAPANESE_SEROW_JEWELRY_2_cls-5" d="M246,333h0a2.81,2.81,0,0,1-1.94-2,1.44,1.44,0,0,1,.07-.92,3.64,3.64,0,0,1,1.52-1.42h0a34,34,0,0,1,6.94-2.53h0l.3-.1.5-.13a4.76,4.76,0,0,1,2.88.11,2.68,2.68,0,0,1,.34.16,2.83,2.83,0,0,1,1.43,1.71c.23.84-.38,1.41-1.45,1.85h0" />
  <path class="GUNDAN_JAPANESE_SEROW_JEWELRY_JAPANESE_SEROW_JEWELRY_2_cls-5" d="M246.29,331.37a1.49,1.49,0,0,1,.06,1,1.27,1.27,0,0,1-.34.6c-.6.67-4.2,1.92-6.71,1.62a2.53,2.53,0,0,1-2.16-1.14,1.85,1.85,0,0,1-.22-.76" />
  <path class="GUNDAN_JAPANESE_SEROW_JEWELRY_JAPANESE_SEROW_JEWELRY_2_cls-5" d="M238.33,331a11.1,11.1,0,0,1,5.81-.89h0" />
  <path class="GUNDAN_JAPANESE_SEROW_JEWELRY_JAPANESE_SEROW_JEWELRY_2_cls-5" d="M235.31,335c1.33,1.38,3.88,2,6.65,1.52,3.37-.62,6-1.77,6.3-3.53h0a3.52,3.52,0,0,0-.78-2.51h0" />
  <path class="GUNDAN_JAPANESE_SEROW_JEWELRY_JAPANESE_SEROW_JEWELRY_2_cls-5" d="M234.35,332.54a3.18,3.18,0,0,0,.29,1.46,4.11,4.11,0,0,0,.66,1" />
  <path class="GUNDAN_JAPANESE_SEROW_JEWELRY_JAPANESE_SEROW_JEWELRY_2_cls-5" d="M235.36,330.49a7.42,7.42,0,0,1,3.08-1.76,14.1,14.1,0,0,1,7.22,0h0" />
  <path class="GUNDAN_JAPANESE_SEROW_JEWELRY_JAPANESE_SEROW_JEWELRY_2_cls-5" d="M235.31,335h0a61.16,61.16,0,0,0-6.73.64s.85-.57.65-2.78" />
  <path class="GUNDAN_JAPANESE_SEROW_JEWELRY_JAPANESE_SEROW_JEWELRY_2_cls-5" d="M239.3,334.63a1.16,1.16,0,0,0,.77-1,2.67,2.67,0,0,0-1.74-2.65,6.24,6.24,0,0,0-2.63-.52h-.36a41.68,41.68,0,0,0-7.72.35,4.18,4.18,0,0,0-2,.87,1.19,1.19,0,0,0-.42.81,2.24,2.24,0,0,0,.81,2.2,5.46,5.46,0,0,0,1.23-1.29,7.76,7.76,0,0,1,1.51-.48c.38-.1.85-.19,1.41-.3a21.05,21.05,0,0,1,4.19-.11c1.26.06,2.31.16,2.57.19H237" />
  <path class="GUNDAN_JAPANESE_SEROW_JEWELRY_JAPANESE_SEROW_JEWELRY_2_cls-5" d="M307.31,287h0c2.41.79,3,4.19,2.29,6.13v0" />
  <ellipse cx="246.62" cy="356.4" rx="14.67" ry="14.65" />
  <polygon class="GUNDAN_JAPANESE_SEROW_JEWELRY_JAPANESE_SEROW_JEWELRY_2_cls-6" points="243.84 365.4 245.79 364.75 242.5 363.02 243.84 365.4" />
  <polygon class="GUNDAN_JAPANESE_SEROW_JEWELRY_JAPANESE_SEROW_JEWELRY_2_cls-7" points="247.44 364.75 250.74 363.02 249.4 365.4 247.44 364.75" />
  <polygon class="GUNDAN_JAPANESE_SEROW_JEWELRY_JAPANESE_SEROW_JEWELRY_2_cls-7" points="239 357.49 240.74 361.43 237.87 360.18 239 357.49" />
  <path class="GUNDAN_JAPANESE_SEROW_JEWELRY_JAPANESE_SEROW_JEWELRY_2_cls-6" d="M236.21,364.37a13.48,13.48,0,0,1-1.61-2.75l2.21-.78Z" />
  <path class="GUNDAN_JAPANESE_SEROW_JEWELRY_JAPANESE_SEROW_JEWELRY_2_cls-7" d="M233.57,355.45a12.86,12.86,0,0,1,.8-3.68l2.32.82Z" />
  <polygon class="GUNDAN_JAPANESE_SEROW_JEWELRY_JAPANESE_SEROW_JEWELRY_2_cls-6" points="240.74 351.37 239 355.31 237.87 352.62 240.74 351.37" />
  <path class="GUNDAN_JAPANESE_SEROW_JEWELRY_JAPANESE_SEROW_JEWELRY_2_cls-6" d="M234.6,351.18a13.22,13.22,0,0,1,1.61-2.75l.6,3.53Z" />
  <path class="GUNDAN_JAPANESE_SEROW_JEWELRY_JAPANESE_SEROW_JEWELRY_2_cls-7" d="M234.37,361a12.86,12.86,0,0,1-.8-3.68l3.12,2.86Z" />
  <polygon class="GUNDAN_JAPANESE_SEROW_JEWELRY_JAPANESE_SEROW_JEWELRY_2_cls-8" points="238.53 356.4 237.17 359.64 233.64 356.4 237.17 353.16 238.53 356.4" />
  <polygon class="GUNDAN_JAPANESE_SEROW_JEWELRY_JAPANESE_SEROW_JEWELRY_2_cls-7" points="243.84 347.4 245.79 348.05 242.5 349.78 243.84 347.4" />
  <path class="GUNDAN_JAPANESE_SEROW_JEWELRY_JAPANESE_SEROW_JEWELRY_2_cls-7" d="M245.88,369.55a12.71,12.71,0,0,1-4.4-1l2.06-2.1Z" />
  <polygon class="GUNDAN_JAPANESE_SEROW_JEWELRY_JAPANESE_SEROW_JEWELRY_2_cls-9" points="246.62 364.42 241.91 361.95 239.46 356.4 241.91 350.85 246.62 348.38 251.33 350.85 253.77 356.4 251.33 361.95 246.62 364.42" />
  <polygon class="GUNDAN_JAPANESE_SEROW_JEWELRY_JAPANESE_SEROW_JEWELRY_2_cls-8" points="241.14 362.32 242.92 365.47 236.99 365.07 237.72 360.82 241.14 362.32" />
  <polygon class="GUNDAN_JAPANESE_SEROW_JEWELRY_JAPANESE_SEROW_JEWELRY_2_cls-6" points="250.74 349.78 247.44 348.05 249.4 347.4 250.74 349.78" />
  <polygon class="GUNDAN_JAPANESE_SEROW_JEWELRY_JAPANESE_SEROW_JEWELRY_2_cls-6" points="252.49 361.43 254.23 357.49 255.36 360.18 252.49 361.43" />
  <polygon class="GUNDAN_JAPANESE_SEROW_JEWELRY_JAPANESE_SEROW_JEWELRY_2_cls-7" points="254.23 355.31 252.49 351.37 255.36 352.62 254.23 355.31" />
  <path class="GUNDAN_JAPANESE_SEROW_JEWELRY_JAPANESE_SEROW_JEWELRY_2_cls-7" d="M240.75,368.17a13.2,13.2,0,0,1-3.4-2.48l5.47.37Z" />
  <polygon class="GUNDAN_JAPANESE_SEROW_JEWELRY_JAPANESE_SEROW_JEWELRY_2_cls-8" points="246.62 369.2 244.19 365.95 246.62 365.14 249.04 365.95 246.62 369.2" />
  <polygon class="GUNDAN_JAPANESE_SEROW_JEWELRY_JAPANESE_SEROW_JEWELRY_2_cls-8" points="255.52 360.82 256.24 365.07 250.31 365.47 252.09 362.32 255.52 360.82" />
  <path class="GUNDAN_JAPANESE_SEROW_JEWELRY_JAPANESE_SEROW_JEWELRY_2_cls-7" d="M258.63,361.62a13.44,13.44,0,0,1-1.6,2.75l-.61-3.53Z" />
  <polygon class="GUNDAN_JAPANESE_SEROW_JEWELRY_JAPANESE_SEROW_JEWELRY_2_cls-8" points="254.71 356.4 256.06 353.16 259.6 356.4 256.06 359.64 254.71 356.4" />
  <path class="GUNDAN_JAPANESE_SEROW_JEWELRY_JAPANESE_SEROW_JEWELRY_2_cls-7" d="M259.66,357.35a13.19,13.19,0,0,1-.79,3.68l-2.33-.82Z" />
  <path class="GUNDAN_JAPANESE_SEROW_JEWELRY_JAPANESE_SEROW_JEWELRY_2_cls-6" d="M255.89,365.69a13.09,13.09,0,0,1-3.41,2.48l-2.06-2.11Z" />
  <path class="GUNDAN_JAPANESE_SEROW_JEWELRY_JAPANESE_SEROW_JEWELRY_2_cls-7" d="M251.75,368.52a12.65,12.65,0,0,1-4.4,1l2.34-3.13Z" />
  <polygon class="GUNDAN_JAPANESE_SEROW_JEWELRY_JAPANESE_SEROW_JEWELRY_2_cls-8" points="252.09 350.48 250.31 347.33 256.24 347.73 255.52 351.97 252.09 350.48" />
  <path class="GUNDAN_JAPANESE_SEROW_JEWELRY_JAPANESE_SEROW_JEWELRY_2_cls-7" d="M258.87,351.77a13.19,13.19,0,0,1,.79,3.68l-3.12-2.86Z" />
  <path class="GUNDAN_JAPANESE_SEROW_JEWELRY_JAPANESE_SEROW_JEWELRY_2_cls-7" d="M247.35,343.24a12.89,12.89,0,0,1,4.4,1l-2.06,2.1Z" />
  <path class="GUNDAN_JAPANESE_SEROW_JEWELRY_JAPANESE_SEROW_JEWELRY_2_cls-7" d="M252.48,344.63a13.09,13.09,0,0,1,3.41,2.48l-5.47-.37Z" />
  <path class="GUNDAN_JAPANESE_SEROW_JEWELRY_JAPANESE_SEROW_JEWELRY_2_cls-7" d="M237.35,347.11a13.2,13.2,0,0,1,3.4-2.48l2.07,2.11Z" />
  <path class="GUNDAN_JAPANESE_SEROW_JEWELRY_JAPANESE_SEROW_JEWELRY_2_cls-10" d="M241.48,344.28a13,13,0,0,1,4.4-1l-2.34,3.14Z" />
  <polygon class="GUNDAN_JAPANESE_SEROW_JEWELRY_JAPANESE_SEROW_JEWELRY_2_cls-8" points="237.72 351.97 236.99 347.73 242.92 347.33 241.14 350.48 237.72 351.97" />
  <polygon class="GUNDAN_JAPANESE_SEROW_JEWELRY_JAPANESE_SEROW_JEWELRY_2_cls-8" points="244.19 346.85 246.62 343.6 249.04 346.85 246.62 347.66 244.19 346.85" />
  <path class="GUNDAN_JAPANESE_SEROW_JEWELRY_JAPANESE_SEROW_JEWELRY_2_cls-6" d="M257,348.43a13.18,13.18,0,0,1,1.6,2.75l-2.21.78Z" />
  <path class="GUNDAN_JAPANESE_SEROW_JEWELRY_JAPANESE_SEROW_JEWELRY_2_cls-11" d="M244.09,343.2h0a1.36,1.36,0,0,1-1.58-1.1l-1.27-7.23a1.35,1.35,0,0,1,1.12-1.57h0a1.36,1.36,0,0,1,1.58,1.1l1.27,7.23A1.35,1.35,0,0,1,244.09,343.2Z" />
</svg>