<svg id="jewelry" xmlns="http://www.w3.org/2000/svg" viewBox="0 0 432 432">
  <defs>
    <style>.GUNDAN_JAPANESE_SEROW_JEWELRY_JAPANESE_SEROW_JEWELRY_12_cls-1{fill:#e3a92b;}.GUNDAN_JAPANESE_SEROW_JEWELRY_JAPANESE_SEROW_JEWELRY_12_cls-2,.GUNDAN_JAPANESE_SEROW_JEWELRY_JAPANESE_SEROW_JEWELRY_12_cls-3{fill:none;stroke:#000;stroke-linecap:round;stroke-linejoin:round;}.GUNDAN_JAPANESE_SEROW_JEWELRY_JAPANESE_SEROW_JEWELRY_12_cls-2{stroke-width:1.88px;}.GUNDAN_JAPANESE_SEROW_JEWELRY_JAPANESE_SEROW_JEWELRY_12_cls-3{stroke-width:1.64px;}</style>
  </defs>
  <path class="GUNDAN_JAPANESE_SEROW_JEWELRY_JAPANESE_SEROW_JEWELRY_12_cls-1" d="M250,223.78a16.14,16.14,0,1,1-10.4-.09,5.49,5.49,0,0,1,1.26,3.74,12.18,12.18,0,1,0,8,.11A5.44,5.44,0,0,1,250,223.78Z" />
  <path class="GUNDAN_JAPANESE_SEROW_JEWELRY_JAPANESE_SEROW_JEWELRY_12_cls-2" d="M260.8,239a16.14,16.14,0,1,1-21.21-15.32,5.49,5.49,0,0,1,1.26,3.74,12.18,12.18,0,1,0,8,.11,5.44,5.44,0,0,1,1.19-3.76A16.14,16.14,0,0,1,260.8,239Z" />
  <path class="GUNDAN_JAPANESE_SEROW_JEWELRY_JAPANESE_SEROW_JEWELRY_12_cls-1" d="M317.12,106.28a16.13,16.13,0,1,1-10.41-.1,5.49,5.49,0,0,1,1.26,3.74,12.18,12.18,0,1,0,7.95.11Z" />
  <path class="GUNDAN_JAPANESE_SEROW_JEWELRY_JAPANESE_SEROW_JEWELRY_12_cls-3" d="M317.12,106.28c0,.23-1.2,3.75-1.2,3.75a12.2,12.2,0,1,1-7.95-.11,5.49,5.49,0,0,0-1.26-3.74,16.15,16.15,0,1,0,10.41.1" />
  <path class="GUNDAN_JAPANESE_SEROW_JEWELRY_JAPANESE_SEROW_JEWELRY_12_cls-3" d="M304.87,103.41s3.74,3.3,3.52,11.22" />
</svg>