<svg id="jewelry" xmlns="http://www.w3.org/2000/svg" viewBox="0 0 432 432">
  <defs>
    <style>.GUNDAN_JAPANESE_SEROW_JEWELRY_JAPANESE_SEROW_JEWELRY_17_cls-1{fill:#dfca6d;}.GUNDAN_JAPANESE_SEROW_JEWELRY_JAPANESE_SEROW_JEWELRY_17_cls-1,.GUNDAN_JAPANESE_SEROW_JEWELRY_JAPANESE_SEROW_JEWELRY_17_cls-2,.GUNDAN_JAPANESE_SEROW_JEWELRY_JAPANESE_SEROW_JEWELRY_17_cls-3{stroke:#000;stroke-miterlimit:10;stroke-width:0.97px;}.GUNDAN_JAPANESE_SEROW_JEWELRY_JAPANESE_SEROW_JEWELRY_17_cls-2{fill:#c03d00;}.GUNDAN_JAPANESE_SEROW_JEWELRY_JAPANESE_SEROW_JEWELRY_17_cls-3{fill:none;stroke-linecap:round;}.GUNDAN_JAPANESE_SEROW_JEWELRY_JAPANESE_SEROW_JEWELRY_17_cls-4{fill:#fff;}</style>
  </defs>
  <path class="GUNDAN_JAPANESE_SEROW_JEWELRY_JAPANESE_SEROW_JEWELRY_17_cls-1" d="M296.26,167h0l.16.16a.51.51,0,0,0,.74,0l1.22-1.22a11.91,11.91,0,0,0,1.18.91l-.87,1.49a.52.52,0,0,0,.19.71l.77.45a.52.52,0,0,0,.71-.19l.86-1.49c.44.21.91.4,1.38.57l-.45,1.66a.52.52,0,0,0,.37.63l.86.23a.51.51,0,0,0,.63-.36l.45-1.67a13.89,13.89,0,0,0,1.48.2v1.73a.51.51,0,0,0,.51.51h.89a.52.52,0,0,0,.52-.52v-1.72a14.62,14.62,0,0,0,1.48-.2l.44,1.67a.52.52,0,0,0,.63.36l.87-.23a.51.51,0,0,0,.36-.63l-.44-1.66c.47-.17.93-.36,1.37-.57l.87,1.49a.51.51,0,0,0,.7.19l.77-.45a.52.52,0,0,0,.19-.71l-.86-1.49a14.81,14.81,0,0,0,1.18-.91l1.22,1.22a.5.5,0,0,0,.73,0l.63-.62a.53.53,0,0,0,0-.74l-1.22-1.22a11.91,11.91,0,0,0,.91-1.18l1.49.86a.52.52,0,0,0,.71-.18l.44-.77a.51.51,0,0,0-.19-.71l-1.48-.86c.2-.45.39-.9.56-1.38l1.66.45a.52.52,0,0,0,.64-.37l.23-.86a.52.52,0,0,0-.37-.63l-1.67-.45a11.82,11.82,0,0,0,.2-1.47h1.73a.53.53,0,0,0,.52-.53v-.89a.52.52,0,0,0-.52-.51h-1.73a12,12,0,0,0-.2-1.48l1.67-.44a.52.52,0,0,0,.37-.63l-.23-.86a.52.52,0,0,0-.64-.37l-1.66.44c-.17-.47-.36-.93-.56-1.37l1.48-.86a.52.52,0,0,0,.19-.71l-.44-.77a.52.52,0,0,0-.71-.19l-1.49.86a14.81,14.81,0,0,0-.91-1.18l1.22-1.22a.52.52,0,0,0,0-.73l-.63-.63a.52.52,0,0,0-.73,0l-1.22,1.22a12.79,12.79,0,0,0-1.18-.91l.86-1.49a.52.52,0,0,0-.19-.71l-.77-.44a.51.51,0,0,0-.7.18l-.87,1.49a12.68,12.68,0,0,0-1.37-.56l.44-1.67a.52.52,0,0,0-.36-.63l-.87-.23a.52.52,0,0,0-.63.36l-.44,1.67a12.22,12.22,0,0,0-1.48-.19v-1.72a.52.52,0,0,0-.52-.52h-.44v.37a6.47,6.47,0,0,0,3.84,6,9.71,9.71,0,0,1-3.55,18.61,10,10,0,0,1-3.77-.64A6.26,6.26,0,0,0,296.26,167Z" />
  <path class="GUNDAN_JAPANESE_SEROW_JEWELRY_JAPANESE_SEROW_JEWELRY_17_cls-2" d="M306.17,150.06a1.51,1.51,0,0,1,2,0c1.05.9,2.58,2.55,2.58,4.57s-1.32,4.93-2.35,7.06a1.35,1.35,0,0,1-2.43,0c-1-2.13-2.34-5.19-2.34-7.06S305.11,151,306.17,150.06Z" />
  <line class="GUNDAN_JAPANESE_SEROW_JEWELRY_JAPANESE_SEROW_JEWELRY_17_cls-2" x1="307.15" y1="162.45" x2="307.15" y2="165.77" />
  <line class="GUNDAN_JAPANESE_SEROW_JEWELRY_JAPANESE_SEROW_JEWELRY_17_cls-2" x1="307.15" y1="171.33" x2="307.15" y2="177.06" />
  <circle class="GUNDAN_JAPANESE_SEROW_JEWELRY_JAPANESE_SEROW_JEWELRY_17_cls-2" cx="307.15" cy="179.61" r="2.74" />
  <path class="GUNDAN_JAPANESE_SEROW_JEWELRY_JAPANESE_SEROW_JEWELRY_17_cls-3" d="M313.35,115.56a6.89,6.89,0,0,1,1.64,4.52" />
  <path class="GUNDAN_JAPANESE_SEROW_JEWELRY_JAPANESE_SEROW_JEWELRY_17_cls-3" d="M307.15,149.7v-8.88l-1.43-21.49a4.48,4.48,0,0,1,2.41-4.61" />
  <path class="GUNDAN_JAPANESE_SEROW_JEWELRY_JAPANESE_SEROW_JEWELRY_17_cls-4" d="M307.15,152a5.14,5.14,0,0,1,1.78,4.5c.93-2.55.34-3.86-.38-4.84S306.74,150.56,307.15,152Z" />
  <path class="GUNDAN_JAPANESE_SEROW_JEWELRY_JAPANESE_SEROW_JEWELRY_17_cls-3" d="M307.16,113.75a2.86,2.86,0,0,1,1.4,2.77" />
</svg>