<svg xmlns="http://www.w3.org/2000/svg" viewBox="0 0 432 432">
  <defs>
    <style>.GUNDAN_JAPANESE_SEROW_JEWELRY_JAPANESE_SEROW_JEWELRY_19_cls-1{isolation:isolate;}.GUNDAN_JAPANESE_SEROW_JEWELRY_JAPANESE_SEROW_JEWELRY_19_cls-2{fill:none;stroke:#000;stroke-linecap:round;stroke-linejoin:round;stroke-width:0.96px;}.GUNDAN_JAPANESE_SEROW_JEWELRY_JAPANESE_SEROW_JEWELRY_19_cls-3{fill:#776c3e;}.GUNDAN_JAPANESE_SEROW_JEWELRY_JAPANESE_SEROW_JEWELRY_19_cls-4{fill:#292929;opacity:0.8;mix-blend-mode:multiply;}.GUNDAN_JAPANESE_SEROW_JEWELRY_JAPANESE_SEROW_JEWELRY_19_cls-5{fill:#ad9f63;}</style>
  </defs>
  <g class="GUNDAN_JAPANESE_SEROW_JEWELRY_JAPANESE_SEROW_JEWELRY_19_cls-1">
    <g id="jewelry">
      <path class="GUNDAN_JAPANESE_SEROW_JEWELRY_JAPANESE_SEROW_JEWELRY_19_cls-2" d="M146.59,99.73a7,7,0,0,1,3.29,8.22" />
      <path class="GUNDAN_JAPANESE_SEROW_JEWELRY_JAPANESE_SEROW_JEWELRY_19_cls-3" d="M144.24,115.36a3.27,3.27,0,0,1-.35-.3l-.18-.15a5.78,5.78,0,0,1-1.2-1.68,2.22,2.22,0,0,1-.18-.49.48.48,0,0,1-.05-.11,2.07,2.07,0,0,1-.1-.33,2,2,0,0,1-.09-.41s0-.09,0-.12c0-.2-.06-.4-.07-.6a2.43,2.43,0,0,1,0-.27,1,1,0,0,1,0-.17s0-.08,0-.11a4.32,4.32,0,0,1,.19-1.23,1.49,1.49,0,0,0,.27.23,5.54,5.54,0,0,0,4.49,1,17.1,17.1,0,0,0,2,3.47,16,16,0,0,0,1.28,1.56,12,12,0,0,1-1.67.78A5.64,5.64,0,0,1,144.24,115.36Z" />
      <path class="GUNDAN_JAPANESE_SEROW_JEWELRY_JAPANESE_SEROW_JEWELRY_19_cls-4" d="M143.92,113.31a5.5,5.5,0,0,1-1.91-2.56v0s0-.08,0-.11a4.32,4.32,0,0,1,.19-1.23,1.49,1.49,0,0,0,.27.23,5.54,5.54,0,0,0,4.49,1,17.1,17.1,0,0,0,2,3.47c-.23.1-.48.19-.72.28A5.62,5.62,0,0,1,143.92,113.31Z" />
      <path class="GUNDAN_JAPANESE_SEROW_JEWELRY_JAPANESE_SEROW_JEWELRY_19_cls-3" d="M140.16,115.34a8.31,8.31,0,0,1-1.39-1.32,8.14,8.14,0,0,1,2.9-12.67h0a8.18,8.18,0,0,1,6.51-.09,5.47,5.47,0,0,1,1.9,2.53,4.43,4.43,0,0,1,.08,2.65c-2.33-1-5.5-1-7.08,1.11a5.27,5.27,0,0,0-.89,1.85,5.59,5.59,0,0,0,6.38,7A9.86,9.86,0,0,1,146,117,8.44,8.44,0,0,1,140.16,115.34Z" />
      <path class="GUNDAN_JAPANESE_SEROW_JEWELRY_JAPANESE_SEROW_JEWELRY_19_cls-5" d="M138.77,114a8.14,8.14,0,0,1,2.9-12.67h0a8.18,8.18,0,0,1,6.51-.09,5.47,5.47,0,0,1,1.9,2.53c-2.87-1.34-9.29-2-11.43,3.79C137.47,109.53,138,112,138.77,114Z" />
      <path class="GUNDAN_JAPANESE_SEROW_JEWELRY_JAPANESE_SEROW_JEWELRY_19_cls-2" d="M142.2,109.39a5,5,0,0,0-.2,1.26.38.38,0,0,0,0,.1.26.26,0,0,0,0,.15,5.76,5.76,0,0,0,.18,1.42c0,.09,0,.18.08.28a3.91,3.91,0,0,0,.28.68c.06.12.12.25.2.38a4,4,0,0,0,.61.85,3.8,3.8,0,0,0,.33.37l0,0,.18.15a3.27,3.27,0,0,0,.35.3,5.64,5.64,0,0,0,4.34,1,5.85,5.85,0,0,0,1.78-.68" />
      <path class="GUNDAN_JAPANESE_SEROW_JEWELRY_JAPANESE_SEROW_JEWELRY_19_cls-2" d="M141.68,101.34a8.18,8.18,0,0,1,6.51-.09" />
      <path class="GUNDAN_JAPANESE_SEROW_JEWELRY_JAPANESE_SEROW_JEWELRY_19_cls-2" d="M150.25,115.61a12,12,0,0,1-1.67.78A10.63,10.63,0,0,1,146,117a8.44,8.44,0,0,1-5.88-1.63,3.8,3.8,0,0,1-.49-.41l-.17-.14-.17-.17a7.06,7.06,0,0,1-.69-.76c-.11-.13-.21-.28-.32-.43a5.52,5.52,0,0,1-.48-.77c-.07-.16-.17-.34-.23-.5a.75.75,0,0,1-.06-.13c0-.09-.08-.17-.11-.26l-.18-.51a6,6,0,0,1-.17-.64A3.71,3.71,0,0,1,137,110a4.58,4.58,0,0,1-.07-.55s0-.07,0-.1a2.79,2.79,0,0,1,0-.5,7,7,0,0,1,0-.79v0c0-.18,0-.34.07-.52a8.35,8.35,0,0,1,1.51-3.58,8.1,8.1,0,0,1,3.19-2.56" />
      <path class="GUNDAN_JAPANESE_SEROW_JEWELRY_JAPANESE_SEROW_JEWELRY_19_cls-2" d="M150.16,106.43c-2.32-1-5.49-1-7.07,1.11a5.27,5.27,0,0,0-.89,1.85" />
      <path class="GUNDAN_JAPANESE_SEROW_JEWELRY_JAPANESE_SEROW_JEWELRY_19_cls-2" d="M150.16,106.43a4.91,4.91,0,0,0-2-5.18" />
      <path class="GUNDAN_JAPANESE_SEROW_JEWELRY_JAPANESE_SEROW_JEWELRY_19_cls-2" d="M141.67,101.35h0" />
      <path class="GUNDAN_JAPANESE_SEROW_JEWELRY_JAPANESE_SEROW_JEWELRY_19_cls-2" d="M147,110.58a5.54,5.54,0,0,1-4.49-1,1.49,1.49,0,0,1-.27-.23" />
      <path class="GUNDAN_JAPANESE_SEROW_JEWELRY_JAPANESE_SEROW_JEWELRY_19_cls-2" d="M147,110.58a17.1,17.1,0,0,0,2,3.47,16,16,0,0,0,1.28,1.56.35.35,0,0,0,.11.1" />
      <path class="GUNDAN_JAPANESE_SEROW_JEWELRY_JAPANESE_SEROW_JEWELRY_19_cls-2" d="M152.57,110.71a7,7,0,0,1,3.29,8.23" />
      <path class="GUNDAN_JAPANESE_SEROW_JEWELRY_JAPANESE_SEROW_JEWELRY_19_cls-3" d="M150.23,126.34a3.37,3.37,0,0,1-.35-.29l-.19-.16a5.49,5.49,0,0,1-1.19-1.68,2.82,2.82,0,0,1-.19-.48,1,1,0,0,1-.05-.12c0-.11-.07-.22-.09-.32a2.22,2.22,0,0,1-.1-.41s0-.09,0-.12c0-.2-.05-.4-.06-.6s0-.19,0-.28a1,1,0,0,0,0-.17s0-.07,0-.1a5.16,5.16,0,0,1,.19-1.23,2.88,2.88,0,0,0,.27.22,5.57,5.57,0,0,0,4.5,1,17.22,17.22,0,0,0,2,3.46,16.2,16.2,0,0,0,1.29,1.57,13.13,13.13,0,0,1-1.67.77A5.6,5.6,0,0,1,150.23,126.34Z" />
      <path class="GUNDAN_JAPANESE_SEROW_JEWELRY_JAPANESE_SEROW_JEWELRY_19_cls-4" d="M149.9,124.3a5.55,5.55,0,0,1-1.9-2.57l0,0s0-.07,0-.1a5.16,5.16,0,0,1,.19-1.23,2.88,2.88,0,0,0,.27.22,5.57,5.57,0,0,0,4.5,1,17.22,17.22,0,0,0,2,3.46,7.49,7.49,0,0,1-.71.28A5.63,5.63,0,0,1,149.9,124.3Z" />
      <path class="GUNDAN_JAPANESE_SEROW_JEWELRY_JAPANESE_SEROW_JEWELRY_19_cls-3" d="M146.15,126.32a7.89,7.89,0,0,1-1.39-1.31,8.16,8.16,0,0,1-.3-10.11,8.07,8.07,0,0,1,3.2-2.57h0a8.21,8.21,0,0,1,6.52-.08,5.47,5.47,0,0,1,1.9,2.53,4.4,4.4,0,0,1,.07,2.64c-2.33-1-5.49-1-7.07,1.11a5.59,5.59,0,0,0,5.49,8.84,10.42,10.42,0,0,1-2.54.6A8.4,8.4,0,0,1,146.15,126.32Z" />
      <path class="GUNDAN_JAPANESE_SEROW_JEWELRY_JAPANESE_SEROW_JEWELRY_19_cls-5" d="M144.76,125a8.16,8.16,0,0,1-.3-10.11,8.07,8.07,0,0,1,3.2-2.57h0a8.21,8.21,0,0,1,6.52-.08,5.47,5.47,0,0,1,1.9,2.53c-2.88-1.34-9.29-2-11.44,3.78C143.45,120.51,143.94,123,144.76,125Z" />
      <path class="GUNDAN_JAPANESE_SEROW_JEWELRY_JAPANESE_SEROW_JEWELRY_19_cls-2" d="M148.18,120.38a5.33,5.33,0,0,0-.19,1.26s0,.06,0,.09a.28.28,0,0,0,0,.15,5.77,5.77,0,0,0,.19,1.42,1.47,1.47,0,0,0,.08.28,4,4,0,0,0,.27.68c.07.13.13.26.21.39a4.26,4.26,0,0,0,.61.85,2.76,2.76,0,0,0,.33.36l0,0,.19.16a3.37,3.37,0,0,0,.35.29,5.48,5.48,0,0,0,6.12.36" />
      <path class="GUNDAN_JAPANESE_SEROW_JEWELRY_JAPANESE_SEROW_JEWELRY_19_cls-2" d="M147.66,112.32a8.21,8.21,0,0,1,6.52-.08" />
      <path class="GUNDAN_JAPANESE_SEROW_JEWELRY_JAPANESE_SEROW_JEWELRY_19_cls-2" d="M156.24,126.6a13.13,13.13,0,0,1-1.67.77A10.65,10.65,0,0,1,152,128a8.48,8.48,0,0,1-5.88-1.63,3.89,3.89,0,0,1-.49-.42c-.06,0-.12-.08-.17-.13s-.11-.12-.17-.17a6.23,6.23,0,0,1-.69-.77l-.33-.42a7.68,7.68,0,0,1-.47-.78,5.4,5.4,0,0,1-.23-.49.38.38,0,0,1-.06-.13l-.12-.27-.18-.5c-.05-.21-.13-.43-.17-.64s-.09-.44-.12-.65a4.76,4.76,0,0,1-.07-.56.27.27,0,0,1,0-.09,4.35,4.35,0,0,1,0-.51c0-.25,0-.53,0-.78v0a4.81,4.81,0,0,1,.07-.53,8.34,8.34,0,0,1,1.5-3.57,8.16,8.16,0,0,1,3.2-2.57" />
      <path class="GUNDAN_JAPANESE_SEROW_JEWELRY_JAPANESE_SEROW_JEWELRY_19_cls-2" d="M156.15,117.41c-2.33-1-5.49-1-7.07,1.11a5.57,5.57,0,0,0-.9,1.85" />
      <path class="GUNDAN_JAPANESE_SEROW_JEWELRY_JAPANESE_SEROW_JEWELRY_19_cls-2" d="M156.15,117.41a4.92,4.92,0,0,0-2-5.17" />
      <path class="GUNDAN_JAPANESE_SEROW_JEWELRY_JAPANESE_SEROW_JEWELRY_19_cls-2" d="M147.66,112.33h0" />
      <path class="GUNDAN_JAPANESE_SEROW_JEWELRY_JAPANESE_SEROW_JEWELRY_19_cls-2" d="M153,121.57a5.57,5.57,0,0,1-4.5-1,2.88,2.88,0,0,1-.27-.22" />
      <path class="GUNDAN_JAPANESE_SEROW_JEWELRY_JAPANESE_SEROW_JEWELRY_19_cls-2" d="M153,121.57a17.22,17.22,0,0,0,2,3.46,16.2,16.2,0,0,0,1.29,1.57.52.52,0,0,0,.11.1" />
    </g>
  </g>
</svg>