<svg id="jewelry" xmlns="http://www.w3.org/2000/svg" viewBox="0 0 432 432">
  <defs>
    <style>.GUNDAN_RED_PANDA_JEWELRY_GUNDAN_RED_PANDA_JEWELRY_7_cls-1,.GUNDAN_RED_PANDA_JEWELRY_GUNDAN_RED_PANDA_JEWELRY_7_cls-6{fill:#85432d;}.GUNDAN_RED_PANDA_JEWELRY_GUNDAN_RED_PANDA_JEWELRY_7_cls-1,.GUNDAN_RED_PANDA_JEWELRY_GUNDAN_RED_PANDA_JEWELRY_7_cls-7,.GUNDAN_RED_PANDA_JEWELRY_GUNDAN_RED_PANDA_JEWELRY_7_cls-8{stroke:#000;}.GUNDAN_RED_PANDA_JEWELRY_GUNDAN_RED_PANDA_JEWELRY_7_cls-1,.GUNDAN_RED_PANDA_JEWELRY_GUNDAN_RED_PANDA_JEWELRY_7_cls-7{stroke-miterlimit:10;}.GUNDAN_RED_PANDA_JEWELRY_GUNDAN_RED_PANDA_JEWELRY_7_cls-1{stroke-width:1.37px;}.GUNDAN_RED_PANDA_JEWELRY_GUNDAN_RED_PANDA_JEWELRY_7_cls-2{fill:#b9876e;}.GUNDAN_RED_PANDA_JEWELRY_GUNDAN_RED_PANDA_JEWELRY_7_cls-3{fill:#645433;}.GUNDAN_RED_PANDA_JEWELRY_GUNDAN_RED_PANDA_JEWELRY_7_cls-4{fill:#766e4a;}.GUNDAN_RED_PANDA_JEWELRY_GUNDAN_RED_PANDA_JEWELRY_7_cls-5{fill:#dfca6d;}.GUNDAN_RED_PANDA_JEWELRY_GUNDAN_RED_PANDA_JEWELRY_7_cls-7{fill:#009e61;stroke-width:1.14px;}.GUNDAN_RED_PANDA_JEWELRY_GUNDAN_RED_PANDA_JEWELRY_7_cls-8{fill:none;stroke-linecap:round;stroke-linejoin:round;stroke-width:1.04px;}</style>
  </defs>
  <path class="GUNDAN_RED_PANDA_JEWELRY_GUNDAN_RED_PANDA_JEWELRY_7_cls-1" d="M169.63,313.16a135,135,0,0,0,18.23,38.72l-3,2.39C175,339,167.85,321,166.15,311.82c-.14-.75.55-4.14,5-3.43q-.49.57-.87,1.08A4.2,4.2,0,0,0,169.63,313.16Z" />
  <path class="GUNDAN_RED_PANDA_JEWELRY_GUNDAN_RED_PANDA_JEWELRY_7_cls-1" d="M290.31,315.13c-1.43,7.74-6.71,21.72-14.26,35.05q-.68,1.2-1.38,2.37a8,8,0,0,0-3-2c.3-.47.6-.95.88-1.43a137,137,0,0,0,14.28-32.61,4.2,4.2,0,0,0-.67-3.69q-.37-.51-.87-1.08C289.76,311,290.45,314.38,290.31,315.13Z" />
  <path class="GUNDAN_RED_PANDA_JEWELRY_GUNDAN_RED_PANDA_JEWELRY_7_cls-2" d="M190.2,364a3.63,3.63,0,0,1-3.63-3.48,3.64,3.64,0,0,1,3.48-3.77h.15a3.63,3.63,0,0,1,.15,7.26Z" />
  <path d="M190.2,357.09a3.32,3.32,0,0,1,.13,6.64h-.13a3.32,3.32,0,0,1-.14-6.63h.14m0-.62H190a3.89,3.89,0,0,0-2.73,1.26,3.94,3.94,0,0,0,2.9,6.61h.16a3.94,3.94,0,0,0-.16-7.88Z" />
  <path class="GUNDAN_RED_PANDA_JEWELRY_GUNDAN_RED_PANDA_JEWELRY_7_cls-2" d="M189.91,371.39l-.75,0a.3.3,0,0,1-.21-.12.29.29,0,0,1-.07-.22l.07-.69a9.64,9.64,0,0,1-1.4-.28l-.2.66a.31.31,0,0,1-.3.22H187l-.71-.25a.3.3,0,0,1-.17-.16.29.29,0,0,1,0-.24l.25-.64a9.51,9.51,0,0,1-1.27-.65l-.37.58a.32.32,0,0,1-.27.14.33.33,0,0,1-.16-.05c-.21-.13-.42-.28-.62-.43a.3.3,0,0,1-.06-.43l.41-.55a10.68,10.68,0,0,1-1-1l-.51.45a.32.32,0,0,1-.44,0c-.17-.19-.33-.39-.48-.58a.32.32,0,0,1-.06-.23.3.3,0,0,1,.12-.21l.54-.42a10.12,10.12,0,0,1-.75-1.21l-.62.3a.21.21,0,0,1-.13,0,.3.3,0,0,1-.28-.17c-.11-.22-.21-.45-.31-.68a.33.33,0,0,1,.18-.41l.64-.26a9.22,9.22,0,0,1-.4-1.36l-.68.12h-.05a.31.31,0,0,1-.31-.25c0-.25-.08-.49-.11-.74a.32.32,0,0,1,.07-.23.3.3,0,0,1,.21-.12l.68-.07a2.64,2.64,0,0,1,0-.38,7.36,7.36,0,0,1,0-1l-.69-.07a.36.36,0,0,1-.21-.11.35.35,0,0,1-.07-.23c0-.25.06-.5.1-.74a.31.31,0,0,1,.3-.26h.05l.67.11a11.15,11.15,0,0,1,.38-1.37l-.64-.25a.37.37,0,0,1-.17-.16.33.33,0,0,1,0-.24c.09-.23.18-.46.29-.69a.33.33,0,0,1,.17-.16l.11,0a.28.28,0,0,1,.13,0l.63.29a10.7,10.7,0,0,1,.72-1.23l-.55-.4a.35.35,0,0,1-.12-.21.32.32,0,0,1,.06-.23c.15-.2.31-.4.47-.58a.26.26,0,0,1,.21-.11h0a.31.31,0,0,1,.2.07l.52.45a11.85,11.85,0,0,1,1-1l-.42-.55a.31.31,0,0,1,.06-.43c.19-.15.4-.3.6-.44a.41.41,0,0,1,.18,0,.3.3,0,0,1,.25.14l.39.57a9.94,9.94,0,0,1,1.25-.66l-.25-.65a.3.3,0,0,1,.17-.4l.7-.26h.1a.3.3,0,0,1,.29.21l.22.66a8,8,0,0,1,1.39-.3l-.08-.69a.33.33,0,0,1,.07-.23.31.31,0,0,1,.21-.11c.24,0,.49-.05.74-.06h0a.32.32,0,0,1,.31.3l0,.67h.12a9.47,9.47,0,0,1,1.3.09l.11-.67a.3.3,0,0,1,.3-.26H192c.25,0,.5.09.74.15a.3.3,0,0,1,.19.14.27.27,0,0,1,0,.23l-.16.67a9.74,9.74,0,0,1,1.35.46l.29-.62a.35.35,0,0,1,.18-.16l.1,0a.35.35,0,0,1,.14,0c.22.11.45.22.66.34a.31.31,0,0,1,.13.42l-.34.61a9.38,9.38,0,0,1,1.17.81l.45-.53a.31.31,0,0,1,.24-.1.31.31,0,0,1,.2.07c.19.16.37.33.55.51a.28.28,0,0,1,.09.22.31.31,0,0,1-.09.22l-.48.49a10.51,10.51,0,0,1,.91,1.09l.57-.38a.27.27,0,0,1,.18-.05h.06a.29.29,0,0,1,.19.13c.14.21.28.42.4.64a.32.32,0,0,1-.11.42l-.6.35a10.77,10.77,0,0,1,.58,1.29l.65-.21h.1a.32.32,0,0,1,.14,0,.3.3,0,0,1,.15.18q.12.36.21.72a.31.31,0,0,1-.22.38l-.66.16a11.43,11.43,0,0,1,.21,1.41l.69,0a.32.32,0,0,1,.21.08.37.37,0,0,1,.1.22c0,.28,0,.53,0,.78a.27.27,0,0,1-.09.21.31.31,0,0,1-.22.09l-.69,0a10.87,10.87,0,0,1-.18,1.41l.67.16a.3.3,0,0,1,.19.14.31.31,0,0,1,0,.23c-.06.25-.13.49-.2.73a.3.3,0,0,1-.15.18.42.42,0,0,1-.15,0l-.09,0-.66-.2a8.9,8.9,0,0,1-.56,1.31l.61.33a.32.32,0,0,1,.12.43c-.12.21-.25.43-.39.64a.26.26,0,0,1-.19.13h-.07a.34.34,0,0,1-.17-.05l-.58-.37a10.06,10.06,0,0,1-.89,1.11l.49.48a.32.32,0,0,1,.1.22.31.31,0,0,1-.09.22l-.55.52a.29.29,0,0,1-.2.07h0a.28.28,0,0,1-.21-.1l-.46-.51a9.66,9.66,0,0,1-1.16.82l.35.6a.31.31,0,0,1-.12.42,6,6,0,0,1-.66.35.33.33,0,0,1-.14,0l-.1,0a.3.3,0,0,1-.17-.16l-.3-.61a11.36,11.36,0,0,1-1.34.49l.16.65a.33.33,0,0,1,0,.24.3.3,0,0,1-.19.14c-.24.06-.49.12-.73.16h-.06a.31.31,0,0,1-.18-.05.32.32,0,0,1-.12-.2l-.13-.68a8.34,8.34,0,0,1-1,.11s-.32,0-.36,0l0,.69a.28.28,0,0,1-.1.21.29.29,0,0,1-.21.09Zm0-18.68a7.71,7.71,0,0,0,.31,15.41h.33a7.71,7.71,0,0,0-.32-15.42Z" />
  <path d="M189.74,349.75l0,1h.42a10.05,10.05,0,0,1,1.56.13l.15-1c.24,0,.48.08.72.14l-.23,1a9.82,9.82,0,0,1,1.87.64l.42-.9c.22.1.44.22.65.33l-.48.88a9.61,9.61,0,0,1,1.63,1.12l.65-.75c.18.15.36.32.53.49l-.7.71a9.23,9.23,0,0,1,1.27,1.52l.83-.55c.13.2.26.4.38.61l-.86.5a8.9,8.9,0,0,1,.8,1.81l1-.31c.07.23.14.46.2.7l-.95.24a9.65,9.65,0,0,1,.28,2l1-.05v0c0,.24,0,.49,0,.73l-1,0a9.73,9.73,0,0,1-.25,2l1,.23a6.22,6.22,0,0,1-.19.71l-.95-.3a9.5,9.5,0,0,1-.78,1.82l.88.49c-.12.21-.25.42-.38.62l-.83-.54a9.73,9.73,0,0,1-1.24,1.54l.71.7-.53.5-.66-.74a9.23,9.23,0,0,1-1.61,1.15l.5.87c-.21.12-.43.23-.65.34l-.43-.9a9.86,9.86,0,0,1-1.86.69l.24.95c-.23.06-.47.11-.71.15l-.17-1a11.59,11.59,0,0,1-1.32.15h-.66l0,1-.73,0,.09-1a10.59,10.59,0,0,1-1.94-.39l-.29.95-.69-.24.36-.92a10.52,10.52,0,0,1-1.77-.9l-.54.83c-.2-.13-.4-.27-.59-.42l.59-.79a9.25,9.25,0,0,1-1.46-1.34l-.74.66c-.16-.18-.32-.37-.46-.56l.78-.61a9.62,9.62,0,0,1-1-1.68l-.89.43c-.11-.21-.21-.44-.3-.66l.92-.37a10.12,10.12,0,0,1-.55-1.9l-1,.17c0-.23-.08-.48-.11-.72l1-.11c0-.22-.05-.44-.06-.67a9.51,9.51,0,0,1,0-1.31l-1-.09.09-.72,1,.16a8.84,8.84,0,0,1,.52-1.91l-.92-.36c.08-.22.18-.45.28-.67l.9.42a10,10,0,0,1,1-1.7l-.79-.59c.15-.2.3-.39.46-.57l.75.65a10.3,10.3,0,0,1,1.43-1.37l-.6-.78c.19-.15.39-.3.59-.43l.55.83a9.46,9.46,0,0,1,1.75-.93l-.38-.92c.23-.09.46-.18.69-.25l.31.94a10.19,10.19,0,0,1,1.93-.42l-.11-1c.24,0,.48-.05.73-.06m.45,18.68h.34a8,8,0,0,0-.33-16h-.33a8,8,0,0,0,.32,16m-.45-19.3h0c-.26,0-.51,0-.77.06a.61.61,0,0,0-.41.23.63.63,0,0,0-.14.46l.05.38a8,8,0,0,0-.85.19l-.12-.37a.62.62,0,0,0-.59-.43.58.58,0,0,0-.19,0l-.73.26a.62.62,0,0,0-.34.81l.15.37c-.26.12-.52.26-.77.4l-.22-.33a.62.62,0,0,0-.39-.26h-.12a.6.6,0,0,0-.35.1l-.62.45a.64.64,0,0,0-.12.88l.25.31c-.22.19-.43.38-.63.59l-.3-.25a.62.62,0,0,0-.4-.15.64.64,0,0,0-.48.21l-.48.61a.61.61,0,0,0,.13.86l.31.24c-.16.24-.3.49-.44.74l-.36-.16a.58.58,0,0,0-.26-.06.61.61,0,0,0-.56.36c-.11.23-.21.47-.3.71a.59.59,0,0,0,0,.47.61.61,0,0,0,.34.33l.36.14c-.09.28-.16.56-.23.84l-.38-.06h-.1a.62.62,0,0,0-.36.12.63.63,0,0,0-.25.4c0,.25-.07.51-.1.76a.62.62,0,0,0,.57.68l.38,0c0,.27,0,.52,0,.77v.09l-.38,0a.63.63,0,0,0-.55.69c0,.25.07.51.12.76a.61.61,0,0,0,.61.51h.11l.38-.07c.07.29.15.56.24.84l-.36.14a.62.62,0,0,0-.34.81c.09.24.2.48.31.71a.63.63,0,0,0,.56.35.54.54,0,0,0,.27-.07l.35-.17a8.23,8.23,0,0,0,.46.74l-.31.24a.63.63,0,0,0-.12.87c.16.2.33.4.5.59a.63.63,0,0,0,.42.21h0a.62.62,0,0,0,.41-.16l.29-.25c.21.2.42.4.64.58l-.23.31a.62.62,0,0,0,.12.87c.21.16.42.3.64.44a.58.58,0,0,0,.33.1.63.63,0,0,0,.53-.28l.21-.33c.25.14.51.28.77.4l-.14.36a.64.64,0,0,0,0,.47.63.63,0,0,0,.35.33c.24.09.48.18.73.25a.57.57,0,0,0,.18,0,.61.61,0,0,0,.59-.44l.12-.37c.28.07.56.12.85.17l0,.39a.62.62,0,0,0,.56.67c.26,0,.52,0,.77.05h0a.63.63,0,0,0,.43-.17.68.68,0,0,0,.19-.44v-.38h.07a7.46,7.46,0,0,0,.79-.07l.07.38a.58.58,0,0,0,.26.4.56.56,0,0,0,.35.11h.11c.25,0,.51-.1.75-.17a.62.62,0,0,0,.46-.75l-.1-.37c.28-.09.55-.19.82-.3l.17.35a.63.63,0,0,0,.35.31.79.79,0,0,0,.2,0,.55.55,0,0,0,.28-.07c.23-.11.45-.23.68-.36a.61.61,0,0,0,.23-.84l-.2-.34c.25-.16.48-.33.71-.51l.25.29a.64.64,0,0,0,.47.21.65.65,0,0,0,.41-.15l.56-.53a.67.67,0,0,0,.18-.44.61.61,0,0,0-.19-.44l-.28-.28c.19-.22.37-.44.54-.67l.33.21a.63.63,0,0,0,.34.1.63.63,0,0,0,.52-.28c.14-.22.28-.44.4-.66a.62.62,0,0,0-.24-.85l-.35-.19a8,8,0,0,0,.34-.8l.38.12.18,0a.63.63,0,0,0,.6-.44c.07-.25.14-.5.2-.75a.62.62,0,0,0-.46-.74l-.38-.09c0-.29.08-.57.11-.86h.4a.61.61,0,0,0,.43-.17.6.6,0,0,0,.19-.44c0-.25,0-.51,0-.76a.67.67,0,0,0-.2-.45.64.64,0,0,0-.43-.18h0l-.38,0a8.51,8.51,0,0,0-.13-.86l.37-.09a.59.59,0,0,0,.38-.29.6.6,0,0,0,.07-.47c-.06-.24-.13-.49-.21-.74a.64.64,0,0,0-.31-.36.67.67,0,0,0-.28-.06.58.58,0,0,0-.19,0l-.38.12a7,7,0,0,0-.35-.79l.34-.2a.62.62,0,0,0,.23-.85c-.13-.22-.27-.44-.41-.65a.62.62,0,0,0-.52-.28.65.65,0,0,0-.34.11l-.33.22c-.17-.23-.36-.45-.55-.67l.28-.28a.58.58,0,0,0,.17-.44.62.62,0,0,0-.18-.44l-.57-.52a.65.65,0,0,0-.4-.14h0a.63.63,0,0,0-.43.21l-.25.3c-.23-.17-.47-.34-.71-.49l.19-.35a.62.62,0,0,0-.25-.84c-.22-.12-.45-.24-.69-.35a.58.58,0,0,0-.26-.06.52.52,0,0,0-.21,0,.65.65,0,0,0-.35.32l-.17.36c-.26-.11-.54-.2-.82-.29l.09-.38a.64.64,0,0,0-.07-.47.65.65,0,0,0-.39-.28l-.76-.14h-.1a.61.61,0,0,0-.61.52l-.06.38q-.44,0-.87-.06v-.38a.61.61,0,0,0-.62-.59Zm.45,18.68a7.4,7.4,0,0,1-.3-14.79h.31a7.4,7.4,0,0,1,.3,14.8Z" />
  <path class="GUNDAN_RED_PANDA_JEWELRY_GUNDAN_RED_PANDA_JEWELRY_7_cls-2" d="M268.79,361.63a3.63,3.63,0,0,1-.14-7.26h.15a3.63,3.63,0,0,1,.15,7.26Z" />
  <path d="M268.8,354.68a3.32,3.32,0,0,1,.13,6.64h-.14a3.32,3.32,0,0,1-.13-6.64h.14m0-.62h-.17a3.94,3.94,0,0,0,.16,7.88H269a3.94,3.94,0,0,0,2.73-1.27,3.87,3.87,0,0,0,1-2.83,3.93,3.93,0,0,0-3.93-3.78Z" />
  <path class="GUNDAN_RED_PANDA_JEWELRY_GUNDAN_RED_PANDA_JEWELRY_7_cls-2" d="M268.51,369l-.75-.05a.33.33,0,0,1-.21-.11.32.32,0,0,1-.07-.23l.06-.68a9.78,9.78,0,0,1-1.39-.28l-.2.66a.32.32,0,0,1-.3.22h-.09l-.46-.16-.24-.09a.26.26,0,0,1-.18-.16.29.29,0,0,1,0-.24l.25-.65a8.88,8.88,0,0,1-1.27-.64l-.38.58a.26.26,0,0,1-.19.13H263a.34.34,0,0,1-.17,0c-.21-.13-.41-.28-.62-.43a.32.32,0,0,1-.06-.44l.42-.54a9.65,9.65,0,0,1-1.05-1l-.52.45a.27.27,0,0,1-.2.08.29.29,0,0,1-.23-.1,7,7,0,0,1-.49-.59.33.33,0,0,1,.07-.43l.54-.41a10.12,10.12,0,0,1-.75-1.21l-.62.3a.28.28,0,0,1-.13,0,.31.31,0,0,1-.28-.17c-.11-.23-.22-.46-.31-.68a.32.32,0,0,1,.17-.41l.64-.26a11.25,11.25,0,0,1-.4-1.37l-.66.13h-.06a.31.31,0,0,1-.3-.25,6.33,6.33,0,0,1-.12-.74A.28.28,0,0,1,258,359a.28.28,0,0,1,.21-.12l.68-.07c0-.13,0-.25,0-.38a7.47,7.47,0,0,1,0-1.05l-.69-.06a.32.32,0,0,1-.28-.34c0-.24.05-.5.09-.74a.32.32,0,0,1,.31-.26h.05l.67.11a9.39,9.39,0,0,1,.38-1.38l-.64-.24a.3.3,0,0,1-.17-.16.29.29,0,0,1,0-.24c.09-.23.19-.45.29-.67a.33.33,0,0,1,.18-.17.28.28,0,0,1,.13,0l.11,0,.62.29a10.2,10.2,0,0,1,.73-1.23l-.55-.41a.31.31,0,0,1-.06-.43c.1-.14.21-.27.32-.41l.14-.17a.3.3,0,0,1,.21-.12h0a.37.37,0,0,1,.2.07l.53.46a8.62,8.62,0,0,1,1-1l-.42-.55a.3.3,0,0,1,.06-.43c.2-.16.4-.3.61-.44a.34.34,0,0,1,.17-.05.31.31,0,0,1,.26.14l.38.57a9.55,9.55,0,0,1,1.26-.67l-.27-.64a.31.31,0,0,1,.18-.41c.22-.09.45-.17.67-.24a.25.25,0,0,1,.12,0,.32.32,0,0,1,.14,0,.27.27,0,0,1,.16.17l.22.66a11.77,11.77,0,0,1,1.39-.3l-.08-.69a.31.31,0,0,1,.28-.34l.74-.05h0a.31.31,0,0,1,.31.3l0,.67h.16a8.79,8.79,0,0,1,1.26.09l.11-.68a.32.32,0,0,1,.31-.26h.05l.74.16a.31.31,0,0,1,.23.37l-.16.67a7.94,7.94,0,0,1,1.3.45h.05l.29-.62a.3.3,0,0,1,.41-.15c.23.1.45.22.67.34a.31.31,0,0,1,.12.42l-.33.6a9.9,9.9,0,0,1,1.17.82l.44-.53a.32.32,0,0,1,.24-.11.31.31,0,0,1,.2.07l.34.31.21.19a.33.33,0,0,1,0,.45l-.49.5a10.41,10.41,0,0,1,.92,1.09l.57-.39a.34.34,0,0,1,.17-.05.31.31,0,0,1,.25.13c.15.21.28.43.41.65a.32.32,0,0,1-.11.42l-.6.35a9.39,9.39,0,0,1,.58,1.29l.65-.21.1,0a.23.23,0,0,1,.14,0,.29.29,0,0,1,.16.18c.07.23.14.48.2.71a.33.33,0,0,1,0,.24.35.35,0,0,1-.2.14l-.66.17a9.4,9.4,0,0,1,.21,1.41l.7,0a.27.27,0,0,1,.21.09.28.28,0,0,1,.1.22c0,.27,0,.51,0,.76a.31.31,0,0,1-.31.3h-.69a10.44,10.44,0,0,1-.18,1.41l.66.16a.3.3,0,0,1,.23.37c-.05.23-.12.48-.19.72a.31.31,0,0,1-.3.22h-.09l-.66-.2a11.57,11.57,0,0,1-.56,1.3l.61.34a.32.32,0,0,1,.15.19.31.31,0,0,1,0,.23c-.12.22-.25.43-.39.64a.27.27,0,0,1-.19.14h-.07a.34.34,0,0,1-.17-.05l-.57-.37a10.3,10.3,0,0,1-.9,1.1l.5.49a.31.31,0,0,1,0,.44l-.54.51a.29.29,0,0,1-.21.08.29.29,0,0,1-.23-.1l-.46-.51a9.22,9.22,0,0,1-1.16.82l.35.59a.34.34,0,0,1,0,.24.29.29,0,0,1-.15.19,5.32,5.32,0,0,1-.67.35.31.31,0,0,1-.13,0,.3.3,0,0,1-.28-.17l-.3-.62a9.24,9.24,0,0,1-1.33.49l.16.67a.31.31,0,0,1-.22.37c-.24.06-.49.12-.74.16h-.05a.31.31,0,0,1-.31-.25l-.12-.68a8,8,0,0,1-1.05.11h-.37v.69a.31.31,0,0,1-.31.3Zm0-18.69a7.71,7.71,0,0,0,.33,15.42h.32a7.71,7.71,0,0,0-.32-15.42Z" />
  <path d="M268.33,347.34l.05,1h.44a8.62,8.62,0,0,1,1.53.13l.16-1,.72.15-.23,1a10,10,0,0,1,1.55.51l.32.14.42-.9c.22.1.44.21.65.33l-.48.87a10.09,10.09,0,0,1,1.63,1.13l.64-.76.32.29a2.09,2.09,0,0,1,.22.2l-.7.72a9.75,9.75,0,0,1,1.27,1.52l.82-.56c.14.2.27.41.39.62l-.86.5a8.81,8.81,0,0,1,.8,1.8l.95-.31c.07.23.14.47.2.7l-1,.24a9.76,9.76,0,0,1,.29,2l1,0v0q0,.36,0,.72l-1,0a9.73,9.73,0,0,1-.25,2l1,.23c-.05.23-.12.47-.19.7l-.95-.29a10.08,10.08,0,0,1-.78,1.82l.88.48c-.12.21-.25.42-.38.63l-.83-.54a10.2,10.2,0,0,1-1.24,1.54l.71.7-.53.5-.66-.74a9.23,9.23,0,0,1-1.61,1.15l.5.86c-.21.12-.43.24-.65.34l-.43-.89a9.19,9.19,0,0,1-1.86.68l.24,1c-.23.06-.47.11-.71.15l-.18-1a9.38,9.38,0,0,1-1.31.16h-.66l0,1-.73-.05.09-1a9.66,9.66,0,0,1-1.94-.38l-.29.95L265,368l.36-.93a9.5,9.5,0,0,1-1.77-.9L263,367l-.6-.42.6-.79a10.32,10.32,0,0,1-1.46-1.34l-.74.65a6.22,6.22,0,0,1-.46-.56l.78-.6a9.62,9.62,0,0,1-1-1.68l-.89.43q-.17-.33-.3-.66l.92-.38a9.91,9.91,0,0,1-.55-1.9l-1,.18c-.05-.24-.08-.48-.11-.72l1-.11c0-.22-.05-.44-.06-.67a9.51,9.51,0,0,1,0-1.31l-1-.09c0-.24.05-.49.09-.72l1,.15a9.47,9.47,0,0,1,.53-1.91l-.93-.35c.09-.23.19-.45.29-.67l.9.42a9.74,9.74,0,0,1,1-1.71l-.79-.59c.14-.19.3-.38.45-.57l.76.65a9.68,9.68,0,0,1,1.43-1.36l-.6-.79c.19-.15.39-.29.59-.42l.55.82a10.05,10.05,0,0,1,1.75-.92l-.38-.93.69-.25.31.95a10,10,0,0,1,1.93-.42l-.11-1,.72-.05M268.8,366h.33a8,8,0,0,0-.33-16h-.34a8,8,0,0,0,.34,16m-.47-19.3h0l-.74,0a.68.68,0,0,0-.43.23.63.63,0,0,0-.14.46l.05.39a8,8,0,0,0-.85.19l-.12-.38a.67.67,0,0,0-.31-.37.71.71,0,0,0-.28-.06.64.64,0,0,0-.2,0l-.72.26a.6.6,0,0,0-.34.34.61.61,0,0,0,0,.48l.16.37a8,8,0,0,0-.77.4l-.21-.33a.64.64,0,0,0-.52-.27.61.61,0,0,0-.34.1c-.24.15-.44.3-.64.45a.64.64,0,0,0-.11.87l.24.31c-.21.19-.42.39-.62.6l-.31-.26a.59.59,0,0,0-.4-.15h-.06a.63.63,0,0,0-.43.24l-.14.18-.32.4a.62.62,0,0,0,.13.87l.31.23q-.24.38-.45.75l-.35-.16a.58.58,0,0,0-.26-.06.57.57,0,0,0-.22,0,.65.65,0,0,0-.35.32l-.3.7a.61.61,0,0,0,0,.48.66.66,0,0,0,.35.33l.36.14a7.39,7.39,0,0,0-.23.84l-.39-.06h-.09a.61.61,0,0,0-.61.51c0,.24-.08.51-.1.78a.62.62,0,0,0,.56.67l.39,0c0,.28,0,.53,0,.78v.09l-.38,0a.65.65,0,0,0-.42.24.63.63,0,0,0-.13.46c0,.25.07.51.12.77a.62.62,0,0,0,.61.49h.11l.38-.07c.07.28.15.56.24.83l-.37.16a.64.64,0,0,0-.34.81c.1.23.21.46.32.7a.62.62,0,0,0,.56.34.66.66,0,0,0,.27-.06l.35-.17c.14.25.29.5.45.74l-.3.23a.63.63,0,0,0-.13.85c.16.23.34.42.5.61a.64.64,0,0,0,.47.21.63.63,0,0,0,.41-.15l.29-.26c.21.2.42.4.64.59l-.24.31a.62.62,0,0,0-.12.46.64.64,0,0,0,.25.41c.21.16.42.3.63.44a.59.59,0,0,0,.34.1h.13a.64.64,0,0,0,.39-.27l.22-.34a8,8,0,0,0,.77.4l-.14.37a.62.62,0,0,0,0,.48.65.65,0,0,0,.36.33l.22.08.49.16.18,0a.61.61,0,0,0,.59-.44l.12-.37a8,8,0,0,0,.85.16l0,.39a.68.68,0,0,0,.14.46.6.6,0,0,0,.43.22l.75.05h0a.63.63,0,0,0,.43-.17.6.6,0,0,0,.19-.44v-.38h.08a7.28,7.28,0,0,0,.78-.07l.07.38a.61.61,0,0,0,.61.51h.1c.27,0,.53-.1.77-.16a.61.61,0,0,0,.44-.75l-.09-.38a7.81,7.81,0,0,0,.81-.29l.17.34a.63.63,0,0,0,.56.35.8.8,0,0,0,.26-.05c.26-.12.51-.26.7-.37a.62.62,0,0,0,.29-.38.64.64,0,0,0-.06-.47l-.2-.34a7,7,0,0,0,.71-.5l.26.29a.6.6,0,0,0,.46.21.59.59,0,0,0,.41-.16c.19-.16.38-.34.56-.52a.62.62,0,0,0,.18-.44.63.63,0,0,0-.18-.44l-.29-.28c.19-.22.37-.44.54-.67l.33.21a.59.59,0,0,0,.34.1h.13a.65.65,0,0,0,.4-.28l.39-.65a.67.67,0,0,0,.06-.48.65.65,0,0,0-.3-.37l-.35-.19c.12-.26.24-.53.34-.8l.38.11.18,0a.59.59,0,0,0,.29-.07.58.58,0,0,0,.3-.37c.08-.24.15-.5.21-.75a.62.62,0,0,0-.47-.73l-.37-.09c0-.28.08-.57.11-.87h.4a.62.62,0,0,0,.62-.59q0-.39,0-.78a.64.64,0,0,0-.62-.62h0l-.39,0c0-.29-.07-.58-.12-.86l.37-.1a.6.6,0,0,0,.38-.28.63.63,0,0,0,.07-.48c-.06-.23-.13-.48-.21-.72a.61.61,0,0,0-.3-.37.59.59,0,0,0-.29-.07.58.58,0,0,0-.19,0l-.38.12a7.91,7.91,0,0,0-.35-.79l.34-.19a.62.62,0,0,0,.23-.85c-.14-.24-.28-.46-.42-.67a.62.62,0,0,0-.51-.26.58.58,0,0,0-.35.11l-.32.22c-.18-.23-.36-.45-.56-.67l.28-.29a.62.62,0,0,0,0-.87,2.73,2.73,0,0,0-.25-.23c-.11-.1-.22-.21-.34-.3a.62.62,0,0,0-.87.08l-.25.3c-.23-.18-.47-.34-.71-.5l.19-.34a.62.62,0,0,0-.23-.84,7.61,7.61,0,0,0-.7-.35.62.62,0,0,0-.26-.06.61.61,0,0,0-.56.36l-.17.35c-.25-.1-.53-.19-.82-.28l.09-.37a.62.62,0,0,0-.45-.75,7,7,0,0,0-.77-.16h-.1a.58.58,0,0,0-.36.12.56.56,0,0,0-.25.4l-.07.38c-.28,0-.57,0-.86-.05l0-.38a.62.62,0,0,0-.62-.59Zm.47,18.68a7.4,7.4,0,0,1-.31-14.8h.31a7.4,7.4,0,0,1,.3,14.8Z" />
  <path class="GUNDAN_RED_PANDA_JEWELRY_GUNDAN_RED_PANDA_JEWELRY_7_cls-3" d="M202.74,391.15l-.57,0a.31.31,0,0,1-.3-.32l0-.73-.08.73a.3.3,0,0,1-.3.28h0l-.75-.09a.32.32,0,0,1-.26-.36l.12-.72-.16.71a.3.3,0,0,1-.13.2.34.34,0,0,1-.17.05h-.07l-.73-.18a.36.36,0,0,1-.19-.15.33.33,0,0,1,0-.24l.21-.72-.25.71a.3.3,0,0,1-.15.18.35.35,0,0,1-.14,0l-.1,0-.72-.27a.3.3,0,0,1-.16-.4l.28-.69-.32.67a.33.33,0,0,1-.28.18.28.28,0,0,1-.13,0l-.68-.35a.33.33,0,0,1-.15-.18.33.33,0,0,1,0-.24l.35-.64-.39.62a.32.32,0,0,1-.26.15.37.37,0,0,1-.17-.05l-.63-.43a.31.31,0,0,1-.07-.43l.42-.59-.45.57a.32.32,0,0,1-.25.12.37.37,0,0,1-.19-.07l-.58-.49a.31.31,0,0,1,0-.44l.48-.54-.51.51a.31.31,0,0,1-.22.09h0a.31.31,0,0,1-.22-.09c-.18-.18-.35-.36-.52-.55a.31.31,0,0,1,0-.44l.54-.48-.56.45a.32.32,0,0,1-.19.07h0a.36.36,0,0,1-.21-.11c-.15-.2-.31-.4-.45-.61a.31.31,0,0,1,.08-.43l.58-.41-.6.37a.28.28,0,0,1-.17.05.31.31,0,0,1-.26-.14c-.14-.22-.26-.44-.39-.66a.31.31,0,0,1,.13-.42l.62-.34-.64.3a.28.28,0,0,1-.13,0,.16.16,0,0,1-.1,0,.27.27,0,0,1-.18-.15c-.11-.23-.21-.47-.31-.7a.29.29,0,0,1,0-.24.35.35,0,0,1,.17-.17l.67-.26-.69.23h-.1a.3.3,0,0,1-.29-.21c-.08-.23-.16-.48-.22-.72a.29.29,0,0,1,0-.24.34.34,0,0,1,.18-.15l.7-.19-.7.16h-.07a.3.3,0,0,1-.3-.24c-.06-.25-.1-.5-.14-.75a.3.3,0,0,1,.26-.35l.71-.11-.75.07a.31.31,0,0,1-.31-.28c0-.24,0-.49,0-.73a.41.41,0,0,1,.08-.24.33.33,0,0,1,.22-.11l.72,0h-.72a.32.32,0,0,1-.22-.1.28.28,0,0,1-.09-.22l0-.75a.36.36,0,0,1,.11-.22.31.31,0,0,1,.2-.07l.75.05-.72-.09a.31.31,0,0,1-.27-.35c0-.25.08-.5.12-.75a.34.34,0,0,1,.13-.2.41.41,0,0,1,.18-.05h.06l.72.14-.72-.17a.4.4,0,0,1-.19-.15.31.31,0,0,1,0-.23c.06-.25.13-.49.2-.73a.36.36,0,0,1,.15-.19.4.4,0,0,1,.15,0h.09l.72.23-.7-.27a.31.31,0,0,1-.18-.16.33.33,0,0,1,0-.24c.09-.23.19-.47.29-.7a.31.31,0,0,1,.17-.17l.12,0a.27.27,0,0,1,.12,0l.68.3-.66-.34a.32.32,0,0,1-.16-.18.37.37,0,0,1,0-.23c.12-.23.24-.45.37-.67a.31.31,0,0,1,.27-.15.32.32,0,0,1,.16,0l.63.37-.61-.4a.31.31,0,0,1-.09-.43l.44-.63a.3.3,0,0,1,.25-.12.3.3,0,0,1,.18.06l.59.45-.56-.48a.3.3,0,0,1,0-.43c.16-.2.34-.39.51-.57a.33.33,0,0,1,.23-.1.3.3,0,0,1,.21.09l.53.5-.5-.53a.31.31,0,0,1-.09-.22.32.32,0,0,1,.1-.22c.18-.17.37-.34.57-.5a.32.32,0,0,1,.2-.08.28.28,0,0,1,.23.12l.46.54-.42-.57a.27.27,0,0,1-.06-.23.28.28,0,0,1,.12-.2l.62-.44A.34.34,0,0,1,196,368h.06a.35.35,0,0,1,.2.14l.39.6-.36-.62a.33.33,0,0,1,.11-.43c.22-.12.44-.25.67-.36a.32.32,0,0,1,.14,0h.1a.31.31,0,0,1,.18.16l.31.62-.28-.64a.32.32,0,0,1,.16-.41c.23-.1.47-.2.71-.28a.18.18,0,0,1,.1,0l.13,0a.33.33,0,0,1,.17.18l.25.69-.22-.7a.33.33,0,0,1,0-.24.27.27,0,0,1,.18-.15c.24-.08.49-.14.73-.2h.08a.32.32,0,0,1,.16,0,.3.3,0,0,1,.14.19l.17.71-.13-.71a.29.29,0,0,1,.05-.24.33.33,0,0,1,.19-.13l.76-.11h0a.32.32,0,0,1,.19.07.28.28,0,0,1,.12.21l.09.72-.05-.73a.31.31,0,0,1,.29-.33c.25,0,.5,0,.76,0h0a.31.31,0,0,1,.22.09.28.28,0,0,1,.09.22V367l0-.73a.3.3,0,0,1,.1-.22.32.32,0,0,1,.21-.08h0l.76,0a.3.3,0,0,1,.21.12.29.29,0,0,1,.07.22l-.07.73.11-.72a.31.31,0,0,1,.31-.26h0l.75.14a.35.35,0,0,1,.2.14.31.31,0,0,1,0,.23l-.16.7.2-.69a.31.31,0,0,1,.3-.23h.08l.73.23a.31.31,0,0,1,.19.4l-.25.71.29-.7a.3.3,0,0,1,.29-.19.23.23,0,0,1,.11,0c.24.09.47.2.7.31a.31.31,0,0,1,.15.41l-.32.66.35-.64a.33.33,0,0,1,.27-.16.24.24,0,0,1,.15,0l.66.38a.3.3,0,0,1,.14.2.31.31,0,0,1,0,.23l-.39.62.42-.6a.33.33,0,0,1,.25-.13.28.28,0,0,1,.18.06c.21.14.41.3.61.45a.31.31,0,0,1,0,.44l-.45.57.48-.54a.29.29,0,0,1,.21-.11h0a.32.32,0,0,1,.21.08l.55.52a.31.31,0,0,1,.09.22.29.29,0,0,1-.09.22l-.52.52.55-.49a.32.32,0,0,1,.2-.08.3.3,0,0,1,.23.11,6.82,6.82,0,0,1,.49.58.3.3,0,0,1,.07.23.28.28,0,0,1-.12.2l-.56.45.59-.42a.34.34,0,0,1,.17-.05h.06a.34.34,0,0,1,.2.13l.42.63a.32.32,0,0,1-.1.43l-.6.37.62-.34a.37.37,0,0,1,.15,0,.3.3,0,0,1,.27.16c.12.22.24.45.34.67a.29.29,0,0,1,0,.24.28.28,0,0,1-.16.18l-.62.29.64-.26.12,0a.3.3,0,0,1,.28.19q.15.36.27.72a.31.31,0,0,1-.19.39l-.7.23.71-.19h.08a.31.31,0,0,1,.3.22c.07.25.13.5.18.74a.3.3,0,0,1-.24.37l-.71.15.72-.11h0a.3.3,0,0,1,.18.06.27.27,0,0,1,.12.2c0,.25.08.5.1.75a.3.3,0,0,1-.07.23.33.33,0,0,1-.21.11l-.72.07.74,0a.32.32,0,0,1,.21.08.37.37,0,0,1,.1.22c0,.28,0,.54,0,.79a.31.31,0,0,1-.31.3h-.74l.73.05a.31.31,0,0,1,.29.33c0,.25,0,.51-.08.76a.28.28,0,0,1-.12.2.26.26,0,0,1-.19.07l-.77-.1.73.14a.26.26,0,0,1,.19.13.27.27,0,0,1,0,.23c0,.25-.1.5-.16.74a.32.32,0,0,1-.3.24h-.08l-.7-.18.69.21a.29.29,0,0,1,.18.16.31.31,0,0,1,0,.23c-.08.25-.16.49-.25.72a.31.31,0,0,1-.29.2.2.2,0,0,1-.11,0l-.7-.26.68.3a.33.33,0,0,1,.17.18.31.31,0,0,1,0,.23q-.15.35-.33.69a.3.3,0,0,1-.18.15l-.1,0a.27.27,0,0,1-.14,0l-.65-.34.63.38a.32.32,0,0,1,.15.19.27.27,0,0,1,0,.23c-.12.22-.26.44-.4.65a.3.3,0,0,1-.26.13.26.26,0,0,1-.17-.05l-.62-.41.59.44a.32.32,0,0,1,.07.44c-.15.2-.31.4-.48.59a.29.29,0,0,1-.21.11h0a.31.31,0,0,1-.2-.07l-.54-.46.52.49a.3.3,0,0,1,0,.43c-.17.19-.36.37-.54.54a.3.3,0,0,1-.21.09.33.33,0,0,1-.23-.1l-.49-.53.46.55a.29.29,0,0,1,.07.23.26.26,0,0,1-.11.21l-.59.47a.33.33,0,0,1-.19.06.32.32,0,0,1-.25-.12l-.43-.58.4.6a.32.32,0,0,1,.05.23.32.32,0,0,1-.14.2c-.21.14-.42.28-.64.4a.29.29,0,0,1-.16,0h-.08a.3.3,0,0,1-.19-.14l-.36-.62.33.64a.29.29,0,0,1-.14.41c-.22.12-.45.23-.68.33a.27.27,0,0,1-.13,0,.23.23,0,0,1-.11,0,.3.3,0,0,1-.17-.16l-.29-.68.25.69a.31.31,0,0,1-.18.4l-.72.24-.09,0a.31.31,0,0,1-.3-.22l-.21-.7.17.71a.31.31,0,0,1,0,.23.35.35,0,0,1-.2.14c-.24.06-.49.12-.74.16H205a.32.32,0,0,1-.3-.26l-.13-.72.09.73a.32.32,0,0,1-.27.35l-.76.07h0a.32.32,0,0,1-.2-.08.33.33,0,0,1-.11-.21l0-.72v.72a.33.33,0,0,1-.31.32Zm-9.22-8.53a10.05,10.05,0,0,0,9.23,6.05h.43a10.1,10.1,0,0,0,6.22-2.5l-2.67-2.68a6.29,6.29,0,0,1-3.71,1.4h-.26a6.34,6.34,0,0,1-5.68-3.55Zm17.3,2A10.08,10.08,0,0,0,206,369l-1,3.66a6.32,6.32,0,0,1,2.93,9.55Zm-12.43-3.77a5,5,0,0,0,4.37,2.64h.2a4.81,4.81,0,0,0,2.78-1l-1.87-1.88a2.4,2.4,0,0,1-1,.29h0a2.41,2.41,0,0,1-1.95-.94Zm8.48.44a4.93,4.93,0,0,0-2.22-7.3l-.69,2.56a2.3,2.3,0,0,1,1.14,1.9,2.23,2.23,0,0,1-.25,1.13Zm-4.53-12.84A10.12,10.12,0,0,0,192.66,379a9.2,9.2,0,0,0,.21,1.65l3.66-1c-.05-.29-.08-.57-.1-.84a6.34,6.34,0,0,1,6.07-6.59h.23l.56,0,.66-3.73a9.82,9.82,0,0,0-1.21-.07Zm.22,5.16a5,5,0,0,0-4.74,5.14,5.24,5.24,0,0,0,.06.54l2.54-.68a2.33,2.33,0,0,1,2.15-2.39l.47-2.6h-.48Z" />
  <path d="M202.62,366.28l0,1.1h.6l0-1.1.74,0-.11,1.1.6.07.17-1.08.73.13-.24,1.08.58.14.3-1.06.71.22L206.4,368a5.37,5.37,0,0,1,.56.21l.42-1c.23.09.45.19.68.3l-.48,1a5.36,5.36,0,0,1,.53.28l.53-1c.22.12.44.24.64.37l-.58.94c.17.1.33.22.5.33l.63-.9a6.7,6.7,0,0,1,.6.45l-.69.86c.15.13.31.25.46.39l.73-.83.54.51-.79.78c.15.15.29.28.42.43l.82-.73q.26.28.48.57l-.87.69a4.29,4.29,0,0,1,.36.48l.9-.64c.15.2.28.41.41.62l-.93.58.3.52,1-.53c.11.21.23.43.33.66l-1,.46a5.48,5.48,0,0,1,.23.56l1-.42c.09.23.18.46.26.7l-1.05.35c.07.19.12.38.18.57l1.06-.29c.07.23.13.48.18.72l-1.08.23c0,.19.08.39.11.59l1.09-.17c0,.24.07.49.09.73l-1.1.11c0,.2.05.4.06.6L215,378v0c0,.25,0,.5,0,.74l-1.11,0c0,.2,0,.4,0,.6l1.1.08c0,.25,0,.49-.08.74l-1.09-.15c0,.2-.06.4-.1.6l1.09.2c-.05.24-.1.49-.16.73l-1.07-.27c0,.19-.11.38-.17.57l1.06.33c-.07.24-.16.47-.24.7l-1-.38c-.07.18-.15.37-.24.55l1,.45c-.1.22-.21.45-.33.67l-1-.51c-.09.18-.18.35-.29.53l1,.56c-.13.21-.26.42-.4.62l-.92-.61c-.11.16-.22.33-.34.49l.88.66c-.15.2-.31.39-.47.58l-.84-.72a5.82,5.82,0,0,1-.4.45l.8.76c-.17.18-.34.36-.52.53l-.76-.81a5.82,5.82,0,0,1-.45.4l.71.84a6.51,6.51,0,0,1-.58.46l-.65-.88c-.16.12-.33.23-.5.34l.61.92a6.65,6.65,0,0,1-.63.39l-.55-.95c-.17.1-.35.19-.53.28l.5,1-.67.31-.44-1-.55.23.38,1c-.23.09-.47.17-.7.24l-.32-1.06-.58.17.26,1.06-.73.16-.19-1.09-.6.1.14,1.09-.74.07-.07-1.1-.29,0h-.31l0,1.11h-.18l-.57,0,0-1.09-.59-.05-.11,1.1-.74-.1.17-1.08c-.2,0-.39-.08-.58-.12l-.24,1.08-.72-.18.3-1.06-.57-.19-.36,1.05-.7-.26.42-1-.55-.24-.47,1c-.22-.11-.45-.22-.66-.34l.53-1c-.17-.1-.35-.19-.52-.3l-.58.93c-.21-.13-.42-.26-.62-.41l.64-.9-.48-.36-.69.87-.56-.48.73-.82-.43-.42-.78.78c-.17-.17-.35-.35-.51-.54l.82-.73-.38-.46-.86.69q-.24-.3-.45-.6l.91-.63c-.12-.17-.23-.33-.33-.5l-.94.58c-.13-.21-.26-.42-.37-.64l1-.53c-.09-.17-.2-.34-.28-.53l-1,.47c-.11-.22-.21-.45-.3-.68l1-.41c-.08-.18-.15-.37-.22-.56l-1,.35c-.08-.23-.15-.47-.21-.71l1.06-.29c0-.19-.1-.38-.14-.58l-1.08.23c0-.24-.1-.48-.14-.73l1.09-.16c0-.2-.05-.4-.07-.6l-1.1.11c0-.24,0-.48,0-.71v0l1.09,0c0-.21,0-.4,0-.61h-1.11l0-.74,1.1.08c0-.2,0-.4.07-.6l-1.1-.14c0-.24.07-.49.12-.73l1.08.21c0-.2.08-.4.13-.59l-1.07-.27c.06-.24.13-.48.2-.71l1.05.33c.07-.19.12-.39.19-.57l-1-.39c.09-.23.19-.46.29-.69l1,.45c.08-.18.16-.36.25-.54l-1-.5c.11-.22.23-.44.36-.65l.95.56c.1-.18.21-.34.32-.51l-.92-.61c.14-.21.28-.41.43-.61l.87.66c.12-.16.26-.31.39-.46l-.85-.71c.16-.19.33-.38.5-.56l.79.76.43-.42-.76-.8.56-.5.71.85.46-.38-.66-.87c.2-.15.4-.3.61-.43l.61.92.5-.32-.55-.95.65-.35.5,1,.54-.26-.44-1c.22-.09.45-.19.69-.27l.38,1,.57-.19-.33-1.06.72-.19.25,1.06.59-.12-.2-1.08c.24-.05.49-.08.73-.12l.14,1.1q.3,0,.6-.06l-.08-1.1c.24,0,.49,0,.74,0m-10,14.74,4.25-1.14a6.27,6.27,0,0,1-.15-1.07,6,6,0,0,1,5.77-6.27h.22a7.34,7.34,0,0,1,.81,0l.78-4.33a10.31,10.31,0,0,0-1.58-.12h-.41A10.4,10.4,0,0,0,192.64,381m18.23,4.06a10.39,10.39,0,0,0-5.09-16.48l-1.14,4.24a6.05,6.05,0,0,1,4.14,5.47,6,6,0,0,1-1.27,3.94l3.36,2.83m-13.23-5.4,3.12-.83,0-.21a2,2,0,0,1,2-2.11h.15l.57-3.19a5,5,0,0,0-.67,0h-.19a5.19,5.19,0,0,0-4.9,6.37m9.29,2.07a5.24,5.24,0,0,0-2.49-8.16l-.84,3.13a2,2,0,0,1,.86,2.94l2.47,2.09m-4.17,2.06H203a5.21,5.21,0,0,0,3.22-1.28l-2.28-2.3a2.12,2.12,0,0,1-1.08.37h-.08a2,2,0,0,1-1.74-1l-3.06,1.1a5.29,5.29,0,0,0,4.8,3.12m0,5.17h.43a10.37,10.37,0,0,0,6.66-2.8l-3.1-3.11a6,6,0,0,1-3.74,1.51h-.25a6,6,0,0,1-5.52-3.63l-4.14,1.49a10.45,10.45,0,0,0,9.66,6.54m-.14-23.32h0c-.26,0-.52,0-.77,0a.67.67,0,0,0-.34.13.64.64,0,0,0-.28-.07h-.07c-.26,0-.52.07-.77.12a.57.57,0,0,0-.32.16.76.76,0,0,0-.21,0h-.15c-.25.07-.5.13-.75.21a.69.69,0,0,0-.3.2h-.15l-.21,0c-.24.09-.49.19-.72.3a.63.63,0,0,0-.28.23h-.07a.71.71,0,0,0-.28.06c-.23.12-.46.24-.68.37a.65.65,0,0,0-.25.27h0a.59.59,0,0,0-.34.1c-.22.14-.43.29-.64.45a.61.61,0,0,0-.21.29.58.58,0,0,0-.33.14,7.17,7.17,0,0,0-.58.52.55.55,0,0,0-.18.31.5.5,0,0,0-.31.18c-.18.18-.36.38-.53.58a.75.75,0,0,0-.14.33.66.66,0,0,0-.29.21c-.15.2-.31.42-.45.63a.64.64,0,0,0-.1.35.62.62,0,0,0-.27.24c-.13.22-.26.46-.37.69a.61.61,0,0,0-.07.35.67.67,0,0,0-.23.27c-.11.24-.21.48-.3.73a.6.6,0,0,0,0,.35.61.61,0,0,0-.2.3q-.12.38-.21.75a.63.63,0,0,0,0,.36.65.65,0,0,0-.16.32c-.05.26-.09.52-.12.77a.62.62,0,0,0,.05.36.55.55,0,0,0-.12.33c0,.26,0,.52,0,.78a.59.59,0,0,0,.1.34.68.68,0,0,0-.09.35c0,.28,0,.53,0,.78a.71.71,0,0,0,.14.33.64.64,0,0,0-.05.36c0,.25.09.51.14.76a.6.6,0,0,0,.18.32.55.55,0,0,0,0,.36c.07.25.14.5.23.74a.61.61,0,0,0,.2.3.6.6,0,0,0,0,.35c.09.24.2.48.31.72a.6.6,0,0,0,.24.26.63.63,0,0,0,.07.36c.12.22.26.45.39.67a.69.69,0,0,0,.27.24.76.76,0,0,0,.11.34c.15.21.31.42.47.62a.63.63,0,0,0,.3.21.5.5,0,0,0,.15.32c.17.2.35.39.53.57a.59.59,0,0,0,.32.17.7.7,0,0,0,.18.31c.19.17.39.34.6.5a.59.59,0,0,0,.33.13.58.58,0,0,0,.22.29c.21.15.43.29.65.43a.64.64,0,0,0,.33.1h0a.6.6,0,0,0,.25.25c.22.13.46.25.69.36a.66.66,0,0,0,.27.06h.09a.58.58,0,0,0,.28.23l.73.28a.64.64,0,0,0,.2,0l.16,0a.6.6,0,0,0,.3.19c.25.07.51.14.76.19l.13,0a.59.59,0,0,0,.23-.05.52.52,0,0,0,.32.16c.26,0,.52.08.77.1h.07a.6.6,0,0,0,.29-.08.55.55,0,0,0,.33.12l.6,0h.18a.69.69,0,0,0,.35-.11.61.61,0,0,0,.3.08h0c.25,0,.51,0,.77-.08a.62.62,0,0,0,.33-.14.69.69,0,0,0,.24.05h.12c.25-.05.51-.1.76-.17a.61.61,0,0,0,.31-.18.52.52,0,0,0,.18,0,.57.57,0,0,0,.18,0c.25-.07.49-.16.74-.25a.56.56,0,0,0,.28-.22h.11a.53.53,0,0,0,.25-.05c.24-.1.47-.21.71-.33a.67.67,0,0,0,.25-.25h0a.55.55,0,0,0,.31-.08c.23-.13.45-.27.67-.41a.7.7,0,0,0,.23-.28.52.52,0,0,0,.33-.12c.21-.15.42-.32.61-.48a.59.59,0,0,0,.2-.3.65.65,0,0,0,.32-.16c.19-.18.38-.36.55-.55a.63.63,0,0,0,.17-.32.66.66,0,0,0,.3-.2,7.16,7.16,0,0,0,.48-.61.59.59,0,0,0,.13-.33.7.7,0,0,0,.28-.23c.14-.22.28-.44.41-.66a.63.63,0,0,0,.09-.35.69.69,0,0,0,.25-.26c.12-.23.23-.47.33-.7a.57.57,0,0,0,.05-.36.64.64,0,0,0,.22-.29c.09-.24.18-.49.25-.73a.55.55,0,0,0,0-.36.63.63,0,0,0,.19-.31c.06-.25.12-.51.17-.76a.62.62,0,0,0,0-.36.67.67,0,0,0,.15-.33c0-.26.06-.52.08-.78a.62.62,0,0,0-.08-.35.55.55,0,0,0,.11-.34c0-.26,0-.52,0-.78a.72.72,0,0,0-.13-.36.64.64,0,0,0,.08-.36c0-.25-.06-.51-.1-.77a.58.58,0,0,0-.16-.32.56.56,0,0,0,0-.36c-.05-.25-.11-.51-.18-.76a.6.6,0,0,0-.19-.3.63.63,0,0,0,0-.36c-.08-.25-.17-.49-.27-.73a.63.63,0,0,0-.22-.28.64.64,0,0,0-.06-.36c-.11-.23-.22-.47-.35-.69a.57.57,0,0,0-.26-.25.53.53,0,0,0-.09-.35c-.13-.22-.28-.44-.43-.65a.6.6,0,0,0-.28-.22.59.59,0,0,0-.13-.33c-.16-.21-.33-.41-.5-.6a.67.67,0,0,0-.31-.19.53.53,0,0,0-.17-.31,7.27,7.27,0,0,0-.57-.54.5.5,0,0,0-.32-.15.69.69,0,0,0-.2-.3l-.63-.47a.6.6,0,0,0-.34-.11.67.67,0,0,0-.23-.27c-.22-.14-.45-.27-.68-.4a.6.6,0,0,0-.3-.07h0a.58.58,0,0,0-.27-.24c-.23-.12-.47-.22-.71-.32a.66.66,0,0,0-.23,0h-.13a.56.56,0,0,0-.29-.21,7.16,7.16,0,0,0-.75-.23.45.45,0,0,0-.16,0,.69.69,0,0,0-.2,0,.67.67,0,0,0-.31-.17c-.25-.06-.51-.11-.77-.15h-.09a.71.71,0,0,0-.26.05.74.74,0,0,0-.34-.14l-.77-.05h0a.57.57,0,0,0-.32.09.59.59,0,0,0-.34-.1Zm-9.51,14.59A11.3,11.3,0,0,1,193,379a9.81,9.81,0,0,1,9.39-10.19h.38a8.19,8.19,0,0,1,.85,0l-.56,3.12h-.54a6.65,6.65,0,0,0-6.37,6.91q0,.3.06.6l-3.07.82Zm12.27-7.79.83-3.06a9.76,9.76,0,0,1,4.56,14.78l-2.42-2a6.62,6.62,0,0,0-3-9.68Zm-7.24,6.45a.81.81,0,0,0,0-.16,4.65,4.65,0,0,1,4.44-4.82h.1l-.37,2a2.65,2.65,0,0,0-2.18,2.43l-2,.53Zm6.18-2.49.53-2a4.61,4.61,0,0,1,1.94,6.4l-1.56-1.32a2.75,2.75,0,0,0,.18-1.06,2.65,2.65,0,0,0-1.09-2ZM198.85,381l2-.7a2.66,2.66,0,0,0,2,.88h.11a2.8,2.8,0,0,0,.94-.22l1.45,1.46a4.47,4.47,0,0,1-2.31.73h-.19a4.63,4.63,0,0,1-3.91-2.16Zm-4.91,1.77,3-1.08a6.63,6.63,0,0,0,5.83,3.48H203a6.69,6.69,0,0,0,3.68-1.29l2.24,2.24a9.81,9.81,0,0,1-5.78,2.21h-.41a9.76,9.76,0,0,1-8.82-5.56Z" />
  <path class="GUNDAN_RED_PANDA_JEWELRY_GUNDAN_RED_PANDA_JEWELRY_7_cls-2" d="M222.33,385.32a.28.28,0,0,1-.21-.1.26.26,0,0,1-.19.07h0l-.48-.06a.34.34,0,0,1-.2-.12.32.32,0,0,1-.16,0H221l-.47-.12a.4.4,0,0,1-.19-.14.28.28,0,0,1-.13,0l-.1,0-.45-.17a.29.29,0,0,1-.17-.17l-.1,0a.31.31,0,0,1-.13,0l-.44-.22a.31.31,0,0,1-.14-.18h-.06a.33.33,0,0,1-.17,0l-.4-.27a.3.3,0,0,1-.13-.2h0a.35.35,0,0,1-.19-.06l-.37-.32a.33.33,0,0,1-.11-.21A.29.29,0,0,1,217,383l-.33-.35a.3.3,0,0,1-.08-.22.33.33,0,0,1-.2-.11c-.1-.13-.2-.26-.29-.4a.28.28,0,0,1,0-.22.33.33,0,0,1-.19-.14,4.19,4.19,0,0,1-.24-.42.31.31,0,0,1,0-.23.28.28,0,0,1-.17-.15c-.07-.15-.13-.3-.19-.45a.26.26,0,0,1,0-.23.31.31,0,0,1-.15-.17c-.06-.16-.11-.32-.15-.47a.31.31,0,0,1,0-.23.29.29,0,0,1-.13-.19c0-.16-.06-.32-.09-.48a.37.37,0,0,1,0-.23.26.26,0,0,1-.1-.2c0-.16,0-.32,0-.47a.38.38,0,0,1,.08-.23.35.35,0,0,1-.08-.22c0-.16,0-.33,0-.49a.26.26,0,0,1,.1-.2.32.32,0,0,1-.06-.23c0-.16,0-.32.08-.48a.34.34,0,0,0,.09-.42c0-.16.08-.32.13-.47a.3.3,0,0,1,.15-.18.39.39,0,0,1,0-.24c.06-.15.12-.3.19-.45a.31.31,0,0,1,.16-.16.32.32,0,0,1,0-.23l.23-.43a.31.31,0,0,1,.18-.14.36.36,0,0,1,.05-.22c.09-.14.19-.27.28-.4a.3.3,0,0,1,.2-.12.34.34,0,0,1,.07-.22l.33-.36a.28.28,0,0,1,.21-.1.3.3,0,0,1,.1-.21,3.73,3.73,0,0,1,.36-.32.32.32,0,0,1,.2-.08h0a.28.28,0,0,1,.12-.2l.4-.28a.26.26,0,0,1,.17,0h.05a.31.31,0,0,1,.14-.18l.43-.23a.25.25,0,0,1,.14,0l.09,0a.3.3,0,0,1,.16-.17l.45-.18.11,0a.28.28,0,0,1,.13,0,.34.34,0,0,1,.18-.15l.47-.13h.07a.47.47,0,0,1,.16,0,.28.28,0,0,1,.19-.12l.48-.08h0a.33.33,0,0,1,.19.06.3.3,0,0,1,.2-.1l.49,0h0a.27.27,0,0,1,.21.09.32.32,0,0,1,.21-.08h0l.49,0a.28.28,0,0,0,.38.06H224l.48.09a.33.33,0,0,1,.19.13.37.37,0,0,1,.15,0h.08l.47.15a.31.31,0,0,1,.17.15l.12,0,.11,0,.45.2a.33.33,0,0,1,.16.17h.08a.28.28,0,0,1,.15,0l.42.24a.36.36,0,0,1,.13.19h.05a.41.41,0,0,1,.18.05l.39.3a.31.31,0,0,1,.11.2h0a.29.29,0,0,1,.21.08c.12.1.24.22.35.33a.3.3,0,0,1,.09.21.36.36,0,0,1,.21.11c.1.12.21.24.31.37a.34.34,0,0,1,.07.22.35.35,0,0,1,.19.13l.27.4a.31.31,0,0,1,0,.23.29.29,0,0,1,.18.15c.08.14.15.28.22.43a.31.31,0,0,1,0,.23.3.3,0,0,1,.16.17c.06.15.12.3.17.45a.33.33,0,0,1,0,.24.26.26,0,0,1,.14.18l.12.47a.37.37,0,0,1,0,.23.31.31,0,0,1,.11.2c0,.16.05.32.07.48a.34.34,0,0,1-.07.22.32.32,0,0,1,.1.21c0,.18,0,.35,0,.51a.27.27,0,0,1-.09.21.29.29,0,0,1,.07.22,4.07,4.07,0,0,1-.05.49.31.31,0,0,1-.11.2.36.36,0,0,1,0,.23c0,.15-.07.31-.11.47a.33.33,0,0,1-.13.19.3.3,0,0,1,0,.23,4.19,4.19,0,0,1-.16.46.28.28,0,0,1-.15.17.36.36,0,0,1,0,.23l-.21.44a.27.27,0,0,1-.18.15.31.31,0,0,1,0,.23c-.08.14-.17.28-.26.41a.3.3,0,0,1-.19.14.31.31,0,0,1-.06.22c-.1.13-.2.26-.31.38a.31.31,0,0,1-.2.11.29.29,0,0,1-.09.21c-.11.12-.22.24-.34.35a.34.34,0,0,1-.21.08h0a.24.24,0,0,1-.11.2,3.57,3.57,0,0,1-.38.3.26.26,0,0,1-.18.07h0a.29.29,0,0,1-.13.19l-.42.26a.26.26,0,0,1-.15,0h-.07a.31.31,0,0,1-.16.18l-.44.2-.12,0-.11,0a.3.3,0,0,1-.17.16l-.46.15-.09,0a.33.33,0,0,1-.14,0,.3.3,0,0,1-.19.14l-.48.1h0a.26.26,0,0,1-.17-.05.31.31,0,0,1-.2.11,4.07,4.07,0,0,1-.49.05h0a.31.31,0,0,1-.2-.07.29.29,0,0,1-.21.09h-.49ZM217,379.9a6.24,6.24,0,0,0,5.68,3.64H223a6.3,6.3,0,0,0,3.77-1.47l-1.54-1.54a4.06,4.06,0,0,1-2.32.86h-.17a4.11,4.11,0,0,1-3.64-2.22Zm10.75,1a6.25,6.25,0,0,0-2.95-9.56l-.56,2.09a4.15,4.15,0,0,1,2.55,3.63,4,4,0,0,1-.7,2.43Zm-7.66-2.16a3,3,0,0,0,2.59,1.49h.12a2.91,2.91,0,0,0,1.58-.54l-1-1a1.46,1.46,0,0,1-.61.16h0a1.65,1.65,0,0,1-1.27-.57Zm5.15,0a2.84,2.84,0,0,0,.44-1.67,3,3,0,0,0-1.73-2.59l-.38,1.4a1.57,1.57,0,0,1,.7,1.25,1.49,1.49,0,0,1-.13.69ZM222.45,371a6.27,6.27,0,0,0-6,6.53,6.88,6.88,0,0,0,.1.9l2.1-.55a3.29,3.29,0,0,1-.05-.44,4.1,4.1,0,0,1,1.09-3,4,4,0,0,1,2.85-1.32h.12l.29,0,.38-2.14-.63,0Zm.14,3.26a3,3,0,0,0-2.09,1,3,3,0,0,0-.79,2.16c0,.07,0,.13,0,.2l1.4-.37a1.6,1.6,0,0,1,1.37-1.53l.26-1.43h-.09V374Z" />
  <path d="M222.62,369.51v.7H223l0-.69.47,0-.07.7.37,0,.11-.68.46.08-.15.68.37.09.19-.67.44.14-.22.66.35.14.27-.65.42.19-.29.62.33.18.34-.61a4.23,4.23,0,0,1,.4.24l-.37.58.31.22.41-.57.37.28-.43.54.29.25.46-.52c.12.1.23.21.34.32l-.5.49.27.27.52-.46.3.36-.55.44c.08.09.15.19.23.3l.57-.4c.09.12.17.25.26.39l-.6.36c.07.11.13.22.19.33l.62-.33.21.41-.63.3a3.68,3.68,0,0,1,.15.35l.64-.27c.06.15.12.3.17.44l-.66.23c0,.11.08.24.11.36l.67-.19c0,.15.08.31.11.46l-.68.14c0,.13,0,.25.07.38l.69-.11.06.46-.7.07c0,.12,0,.25,0,.38l.69,0v0c0,.15,0,.31,0,.46h-.69c0,.13,0,.25,0,.38l.69.05c0,.16,0,.31,0,.47l-.69-.1-.06.38.68.13c0,.15-.06.3-.1.46l-.67-.17c0,.12-.07.24-.11.36l.67.21c-.05.15-.1.29-.16.44l-.64-.24-.15.34.64.29-.21.42-.62-.32c0,.11-.12.22-.18.33l.6.36c-.08.13-.16.26-.25.39l-.58-.39-.21.32.55.41c-.09.13-.19.25-.29.37l-.54-.45c-.08.09-.16.19-.25.28l.51.48-.33.33-.48-.51-.28.25.45.54-.37.29-.41-.56-.32.21.39.58-.4.25-.35-.6-.33.18.31.62-.42.2-.28-.64-.35.14.24.66-.44.14-.2-.66-.37.11.17.67-.46.09-.13-.68-.37.06.09.69-.47,0,0-.69h-.37v.7h-.46l0-.69-.38,0-.07.69a3.62,3.62,0,0,1-.46-.06l.11-.68-.37-.08-.15.68-.46-.11.19-.67-.36-.12-.23.66-.44-.16.27-.65a2.17,2.17,0,0,1-.35-.15l-.3.63-.42-.21.34-.62-.33-.18-.36.58a3.77,3.77,0,0,1-.39-.26l.4-.57-.3-.22-.44.54c-.12-.09-.24-.2-.36-.3l.47-.52-.27-.26-.5.49c-.11-.11-.22-.22-.32-.34l.52-.46-.24-.29-.55.43-.28-.37.58-.4a2.92,2.92,0,0,1-.21-.32l-.6.37-.23-.4.61-.34c-.06-.11-.12-.22-.17-.33l-.63.29c-.07-.14-.13-.28-.19-.42l.65-.26c0-.12-.09-.24-.13-.36l-.66.22c-.05-.14-.1-.29-.14-.44l.67-.19-.09-.37-.68.15c0-.15-.06-.31-.08-.46l.68-.1c0-.13,0-.26,0-.38L215,378c0-.15,0-.3,0-.45v0l.69,0c0-.12,0-.25,0-.38H215c0-.15,0-.31,0-.46l.69.05c0-.13,0-.26,0-.38l-.69-.09c0-.15,0-.31.07-.46l.69.13c0-.13.05-.25.08-.37l-.68-.17c0-.15.08-.3.13-.45l.67.21c0-.12.07-.25.11-.36l-.65-.25.18-.43.64.28c.05-.11.1-.23.16-.34l-.62-.32c.07-.14.15-.27.23-.41l.6.36a3.45,3.45,0,0,1,.2-.32l-.58-.39.27-.38.55.41.25-.29-.54-.45.31-.35.51.48.27-.27-.48-.5c.11-.11.23-.21.35-.31l.45.53.29-.24-.41-.55a3.28,3.28,0,0,1,.38-.27l.38.58.32-.2-.35-.6.41-.23.32.63.34-.17-.28-.63A3.93,3.93,0,0,1,220,370l.24.65.36-.12-.2-.66.45-.13.16.67.38-.07-.13-.69.46-.07.09.69.38,0-.05-.7.46,0m-6.3,9.31,2.69-.72a3.71,3.71,0,0,1-.1-.68,3.81,3.81,0,0,1,3.64-3.95h.11a3.19,3.19,0,0,1,.54.05l.49-2.75a6.41,6.41,0,0,0-1-.07h-.26a6.58,6.58,0,0,0-6.3,6.85,6.69,6.69,0,0,0,.18,1.28m11.51,2.56a6.49,6.49,0,0,0,1.45-4.39,6.56,6.56,0,0,0-4.66-6l-.73,2.69a3.8,3.8,0,0,1,2.62,3.44,3.75,3.75,0,0,1-.81,2.47l2.13,1.8m-8.35-3.4,2-.53a.59.59,0,0,1,0-.13,1.27,1.27,0,0,1,1.23-1.33h.09l.37-2c-.15,0-.3,0-.46,0h-.09a3.32,3.32,0,0,0-3.17,3.45,3.68,3.68,0,0,0,.08.58m5.85,1.29a3.2,3.2,0,0,0,.69-2.14,3.3,3.3,0,0,0-2.25-3l-.53,2a1.29,1.29,0,0,1,.75,1.11,1.27,1.27,0,0,1-.21.75l1.55,1.31m-2.62,1.31h.14a3.33,3.33,0,0,0,2-.82l-1.44-1.44a1.29,1.29,0,0,1-.68.23h0a1.29,1.29,0,0,1-1.1-.64l-1.92.7a3.32,3.32,0,0,0,3,2m0,3.27H223a6.55,6.55,0,0,0,4.21-1.77l-2-2a3.71,3.71,0,0,1-2.35,1h-.16a3.8,3.8,0,0,1-3.48-2.3l-2.62,1a6.59,6.59,0,0,0,6.1,4.13m-.09-15h0l-.51,0a.79.79,0,0,0-.22.06l-.15,0h-.08l-.5.07-.21.09h-.08l-.15,0-.48.13a.7.7,0,0,0-.21.11h0a.52.52,0,0,0-.21,0l-.47.19a.5.5,0,0,0-.19.13.6.6,0,0,0-.22.06l-.44.24a.5.5,0,0,0-.17.15.67.67,0,0,0-.21.09l-.42.29a.61.61,0,0,0-.15.17.56.56,0,0,0-.2.11c-.13.11-.26.22-.38.34a.46.46,0,0,0-.13.18.8.8,0,0,0-.19.13c-.11.12-.23.25-.33.38a.82.82,0,0,0-.12.2.57.57,0,0,0-.16.15c-.11.14-.2.27-.3.41a1,1,0,0,0-.09.21.9.9,0,0,0-.15.18l-.24.44a.57.57,0,0,0-.07.22.52.52,0,0,0-.12.19c-.07.15-.14.31-.2.47a.85.85,0,0,0,0,.22.75.75,0,0,0-.1.2c-.05.16-.1.33-.14.49a.6.6,0,0,0,0,.23.67.67,0,0,0-.09.21c0,.17,0,.34-.08.5a.58.58,0,0,0,0,.23.43.43,0,0,0-.06.22c0,.17,0,.34,0,.5a.59.59,0,0,0,0,.23.57.57,0,0,0,0,.22c0,.18,0,.35,0,.51a.79.79,0,0,0,.06.22.55.55,0,0,0,0,.22c0,.17.06.34.1.5a.49.49,0,0,0,.08.21.9.9,0,0,0,0,.23l.15.48a.55.55,0,0,0,.11.2.64.64,0,0,0,.05.23c.06.15.13.31.2.46a.59.59,0,0,0,.13.18.81.81,0,0,0,.07.22c.08.15.17.3.26.44a.61.61,0,0,0,.15.17.54.54,0,0,0,.1.2,3.91,3.91,0,0,0,.3.41.8.8,0,0,1,.29.34c.11.13.22.25.34.37a.59.59,0,0,0,.19.13.49.49,0,0,0,.14.18l.39.33a.78.78,0,0,0,.2.11.61.61,0,0,0,.16.16,4.38,4.38,0,0,0,.42.28.49.49,0,0,0,.21.08.61.61,0,0,0,.17.15l.45.23a1,1,0,0,0,.23.06.52.52,0,0,0,.19.12,3.8,3.8,0,0,0,.47.18.79.79,0,0,0,.2,0h0a.75.75,0,0,0,.2.1l.49.12h.23a.81.81,0,0,0,.22.07l.5.07h.06l.17,0a.51.51,0,0,0,.22.05h.5a.85.85,0,0,0,.23,0l.18,0h0l.51-.05a.52.52,0,0,0,.21-.07h.23l.5-.1a.54.54,0,0,0,.2-.1H225a.57.57,0,0,0,.18,0l.48-.16a.82.82,0,0,0,.2-.12.59.59,0,0,0,.22-.05l.46-.22a.49.49,0,0,0,.18-.14.58.58,0,0,0,.21-.07c.15-.09.29-.17.43-.27a.49.49,0,0,0,.16-.16.58.58,0,0,0,.21-.1c.13-.1.27-.2.39-.31a.65.65,0,0,0,.15-.18.47.47,0,0,0,.19-.12l.36-.35a.59.59,0,0,0,.12-.2.49.49,0,0,0,.18-.14l.32-.39a1,1,0,0,0,.1-.21.81.81,0,0,0,.16-.16l.27-.43a.58.58,0,0,0,.07-.21.49.49,0,0,0,.14-.18,4.81,4.81,0,0,0,.22-.46.6.6,0,0,0,.06-.22.56.56,0,0,0,.11-.2c.06-.16.12-.32.17-.48a.85.85,0,0,0,0-.23.72.72,0,0,0,.09-.2c0-.17.08-.33.11-.5a.59.59,0,0,0,0-.23.48.48,0,0,0,.07-.21c0-.17,0-.34.05-.51a.55.55,0,0,0,0-.22.57.57,0,0,0,0-.22c0-.17,0-.34,0-.51a.6.6,0,0,0-.06-.23.66.66,0,0,0,0-.24c0-.17,0-.33-.07-.5a.65.65,0,0,0-.07-.21.59.59,0,0,0,0-.23l-.12-.49a.68.68,0,0,0-.1-.21.83.83,0,0,0,0-.22l-.18-.48a.62.62,0,0,0-.12-.19.79.79,0,0,0-.06-.22c-.07-.15-.15-.31-.23-.45a.86.86,0,0,0-.14-.18.78.78,0,0,0-.09-.21c-.09-.14-.18-.29-.28-.42a.49.49,0,0,0-.16-.16.56.56,0,0,0-.11-.2l-.32-.39a.49.49,0,0,0-.18-.14.59.59,0,0,0-.13-.19l-.37-.34a.39.39,0,0,0-.19-.12.65.65,0,0,0-.15-.18l-.4-.3a.64.64,0,0,0-.21-.09.65.65,0,0,0-.17-.16l-.44-.26a.74.74,0,0,0-.21-.07.64.64,0,0,0-.19-.13l-.46-.21a.57.57,0,0,0-.22,0,.56.56,0,0,0-.2-.11l-.49-.16-.16,0h-.07a.4.4,0,0,0-.21-.09L224,369h-.1l-.13,0a.57.57,0,0,0-.22-.07l-.5,0h0a.64.64,0,0,0-.2,0,.78.78,0,0,0-.22,0Zm-5.82,9.16a4.9,4.9,0,0,1,0-.54,6,6,0,0,1,5.7-6.2h.5l-.27,1.53h-.16a4.43,4.43,0,0,0-4.24,4.6,1.5,1.5,0,0,0,0,.2l-1.51.4Zm7.84-4.75.4-1.51a5.95,5.95,0,0,1,2.68,8.69l-1.19-1a4.35,4.35,0,0,0,.6-2.39,4.45,4.45,0,0,0-2.49-3.78ZM220,377.19a2.69,2.69,0,0,1,2.36-2.6l-.16.84a1.91,1.91,0,0,0-1.39,1.54l-.81.22Zm3.93-1.36.23-.82a2.67,2.67,0,0,1,1.22,2.14,2.64,2.64,0,0,1-.22,1.18l-.64-.54a1.73,1.73,0,0,0,.07-.6,1.86,1.86,0,0,0-.66-1.36Zm-3.34,3.11.8-.29a1.89,1.89,0,0,0,1.3.52h.08a1.78,1.78,0,0,0,.52-.1l.6.6a2.76,2.76,0,0,1-1.09.29h-.11a2.69,2.69,0,0,1-2.1-1Zm-3.15,1.13,1.47-.53a4.41,4.41,0,0,0,3.78,2.15h.18a4.33,4.33,0,0,0,2.28-.75l1.1,1.1a5.93,5.93,0,0,1-3.31,1.19h-.25a5.92,5.92,0,0,1-5.25-3.15Z" />
  <path class="GUNDAN_RED_PANDA_JEWELRY_GUNDAN_RED_PANDA_JEWELRY_7_cls-3" d="M255.48,386.65h-.57a.3.3,0,0,1-.29-.32v0a.33.33,0,0,1-.12.21.32.32,0,0,1-.19.07h0q-.36,0-.72-.09a.31.31,0,0,1-.25-.36v0a.31.31,0,0,1-.3.25h-.07l-.69-.17a.36.36,0,0,1-.19-.15.33.33,0,0,1,0-.24l0-.05,0,.05a.32.32,0,0,1-.3.21h-.1l-.67-.26a.3.3,0,0,1-.17-.16.33.33,0,0,1,0-.24l0-.06,0,.06a.35.35,0,0,1-.18.16h-.1a.32.32,0,0,1-.14,0c-.21-.1-.43-.21-.64-.33a.31.31,0,0,1-.12-.42l0,0,0,0a.35.35,0,0,1-.2.14h-.07a.33.33,0,0,1-.16,0l-.6-.4a.28.28,0,0,1-.12-.2.27.27,0,0,1,.05-.23l0,0,0,0a.3.3,0,0,1-.21.12h0a.28.28,0,0,1-.19-.07l-.55-.46a.31.31,0,0,1,0-.44l0,0,0,0a.31.31,0,0,1-.44,0c-.17-.17-.34-.35-.49-.52a.3.3,0,0,1-.08-.23.28.28,0,0,1,.1-.21l0,0,0,0a.33.33,0,0,1-.19.06.32.32,0,0,1-.24-.11c-.15-.19-.3-.39-.43-.58a.3.3,0,0,1,.07-.43l0,0,0,0a.32.32,0,0,1-.16,0h-.07a.3.3,0,0,1-.2-.13l-.36-.63a.32.32,0,0,1,.13-.42h0a.35.35,0,0,1-.14,0,.31.31,0,0,1-.28-.18c-.1-.21-.2-.43-.28-.65a.33.33,0,0,1,0-.24.29.29,0,0,1,.17-.17l.05,0-.05,0-.1,0a.23.23,0,0,1-.14,0,.33.33,0,0,1-.16-.17l-.21-.69a.33.33,0,0,1,0-.24.3.3,0,0,1,.19-.14l0,0-.11,0a.32.32,0,0,1-.3-.24c-.05-.24-.09-.47-.13-.71a.32.32,0,0,1,.06-.23.27.27,0,0,1,.2-.12h0a.3.3,0,0,1-.31-.27c0-.23,0-.46,0-.69a.38.38,0,0,1,.08-.24.38.38,0,0,1,.21-.12.29.29,0,0,1-.21-.09.31.31,0,0,1-.09-.22l0-.72a.32.32,0,0,1,.31-.29h0a.3.3,0,0,1-.27-.34c0-.24.07-.48.11-.72a.32.32,0,0,1,.31-.25h.06a.32.32,0,0,1-.23-.38c.06-.23.12-.47.19-.69a.31.31,0,0,1,.3-.22h.09l.07,0-.07,0a.31.31,0,0,1-.18-.4c.08-.22.18-.45.27-.67a.32.32,0,0,1,.29-.18l.12,0,.06,0-.06,0a.31.31,0,0,1-.13-.42c.11-.21.22-.42.35-.63a.31.31,0,0,1,.26-.15.29.29,0,0,1,.16,0l0,0,0,0a.31.31,0,0,1-.13-.2.28.28,0,0,1,.05-.23c.13-.2.27-.39.41-.58a.33.33,0,0,1,.21-.13h0a.33.33,0,0,1,.19.06l0,0,0,0a.29.29,0,0,1-.11-.21.33.33,0,0,1,.07-.23l.48-.53a.29.29,0,0,1,.23-.1.3.3,0,0,1,.21.09l0,0,0,0a.31.31,0,0,1,0-.44q.27-.25.54-.48a.31.31,0,0,1,.2-.07.32.32,0,0,1,.24.11l0,0,0,0a.32.32,0,0,1,.06-.44l.59-.41a.26.26,0,0,1,.17-.05.31.31,0,0,1,.26.14v0a.31.31,0,0,1,.11-.43l.63-.34a.43.43,0,0,1,.14,0,.32.32,0,0,1,.28.17h0a.31.31,0,0,1,0-.23.3.3,0,0,1,.16-.17c.22-.1.44-.19.67-.27a.2.2,0,0,1,.11,0,.31.31,0,0,1,.29.2v0a.29.29,0,0,1,0-.24.33.33,0,0,1,.18-.15l.7-.19h.07a.42.42,0,0,1,.16,0,.35.35,0,0,1,.14.2v0a.3.3,0,0,1,.05-.24.32.32,0,0,1,.2-.13l.7-.11h0a.26.26,0,0,1,.19.07.28.28,0,0,1,.12.2v0a.31.31,0,0,1,.29-.33l.72,0h0a.31.31,0,0,1,.31.31v0a.37.37,0,0,1,.1-.22.34.34,0,0,1,.21-.08h0l.71.05a.28.28,0,0,1,.21.12.26.26,0,0,1,.07.22v0a.34.34,0,0,1,.13-.2.3.3,0,0,1,.18-.06h.05c.24,0,.47.08.71.13a.26.26,0,0,1,.19.13.29.29,0,0,1,0,.24v0l0,0a.3.3,0,0,1,.14-.19.28.28,0,0,1,.15,0h.09l.69.22a.31.31,0,0,1,.19.39l0,.07,0-.07a.31.31,0,0,1,.17-.17l.12,0,.12,0,.66.29a.3.3,0,0,1,.15.18.29.29,0,0,1,0,.24l0,0,0,0a.33.33,0,0,1,.28-.16.32.32,0,0,1,.14,0l.63.37a.31.31,0,0,1,.09.43l0,0,0,0a.31.31,0,0,1,.2-.13h0a.37.37,0,0,1,.18,0c.19.14.39.29.57.44a.3.3,0,0,1,.05.43l0,0,0,0a.37.37,0,0,1,.22-.1h0a.32.32,0,0,1,.2.08c.18.16.36.32.52.49a.31.31,0,0,1,.09.22.28.28,0,0,1-.09.22v0a.32.32,0,0,1,.21-.08h0a.28.28,0,0,1,.21.1c.16.18.32.36.46.55a.3.3,0,0,1-.05.43l0,0,0,0a.27.27,0,0,1,.17-.06.33.33,0,0,1,.26.13c.13.2.27.4.39.6a.27.27,0,0,1,0,.23.39.39,0,0,1-.13.2l0,0,0,0a.23.23,0,0,1,.14,0,.33.33,0,0,1,.28.16l.32.64a.29.29,0,0,1,0,.24.28.28,0,0,1-.16.18h0a.26.26,0,0,1,.24,0,.29.29,0,0,1,.17.17c.09.22.17.45.25.67a.29.29,0,0,1,0,.24.33.33,0,0,1-.17.16h.08a.28.28,0,0,1,.15,0,.3.3,0,0,1,.15.18c.06.23.12.47.17.7a.31.31,0,0,1-.24.37h.05a.28.28,0,0,1,.18.06.34.34,0,0,1,.13.2l.09.71a.31.31,0,0,1-.28.34h0a.29.29,0,0,1,.21.09.28.28,0,0,1,.1.21c0,.27,0,.51,0,.75a.31.31,0,0,1-.09.22.35.35,0,0,1-.22.08h0a.3.3,0,0,1,.28.33c0,.24,0,.48-.07.71a.3.3,0,0,1-.12.21.31.31,0,0,1-.19.06h0a.31.31,0,0,1,.25.36c-.05.24-.1.48-.16.71a.3.3,0,0,1-.14.19.29.29,0,0,1-.16,0h-.07a.35.35,0,0,1,.18.16.27.27,0,0,1,0,.23c-.07.23-.15.46-.23.68a.33.33,0,0,1-.17.18.27.27,0,0,1-.12,0l-.12,0-.05,0,.05,0a.31.31,0,0,1,.16.41c-.09.22-.2.44-.31.65a.3.3,0,0,1-.18.15l-.09,0a.42.42,0,0,1-.15,0l0,0,0,0a.36.36,0,0,1,.15.19.34.34,0,0,1,0,.24c-.12.21-.25.41-.38.61a.31.31,0,0,1-.26.14.27.27,0,0,1-.17-.06l0,0,0,0a.35.35,0,0,1,.12.21.32.32,0,0,1-.06.23l-.45.56a.32.32,0,0,1-.24.11.31.31,0,0,1-.2-.07l0,0,0,0a.28.28,0,0,1,.1.21.32.32,0,0,1-.09.23c-.16.17-.33.34-.51.5a.29.29,0,0,1-.21.09.34.34,0,0,1-.23-.1l0,0,0,0a.32.32,0,0,1,0,.44l-.56.44a.32.32,0,0,1-.19.07h0a.27.27,0,0,1-.2-.12l0,0v0a.31.31,0,0,1-.08.43l-.61.38a.29.29,0,0,1-.16,0h-.08A.3.3,0,0,1,261,385v0a.29.29,0,0,1-.14.41c-.21.11-.43.22-.65.31a.24.24,0,0,1-.12,0,.2.2,0,0,1-.11,0,.27.27,0,0,1-.17-.16l0,0v0a.31.31,0,0,1-.18.4l-.68.23h-.09a.31.31,0,0,1-.3-.22v0a.31.31,0,0,1-.23.38c-.23.06-.47.11-.7.15h-.06a.26.26,0,0,1-.17,0,.3.3,0,0,1-.13-.2v0a.3.3,0,0,1-.26.35l-.72.07h0a.28.28,0,0,1-.2-.08.29.29,0,0,1-.11-.21v0a.31.31,0,0,1-.31.31Zm-8.71-8a9.48,9.48,0,0,0,8.7,5.68h.4a9.53,9.53,0,0,0,5.85-2.34l-2.5-2.5a6,6,0,0,1-3.5,1.31h-.25a6,6,0,0,1-5.37-3.35Zm16.31,1.86a9.49,9.49,0,0,0-4.54-14.71l-.92,3.41a6,6,0,0,1,3.84,5.34,6,6,0,0,1-1.08,3.68Zm-11.7-3.52a4.65,4.65,0,0,0,4.09,2.46h.19a4.43,4.43,0,0,0,2.6-.93l-1.74-1.75a2.3,2.3,0,0,1-1,.27h0a2.31,2.31,0,0,1-1.85-.88Zm8,.37a4.63,4.63,0,0,0-2.08-6.84l-.65,2.39a2.19,2.19,0,0,1,1.08,1.8,2.35,2.35,0,0,1-.23,1.07Zm-3.9-12.08h-.37a9.52,9.52,0,0,0-9.12,9.91,9,9,0,0,0,.19,1.54l3.42-.91a5.33,5.33,0,0,1-.09-.78,6,6,0,0,1,5.74-6.24h.22l.51,0,.63-3.48A8.68,8.68,0,0,0,255.45,365.23Zm-.17,4.88a4.66,4.66,0,0,0-4.45,4.83,4.28,4.28,0,0,0,0,.49l2.37-.63a2.2,2.2,0,0,1,.58-1.56,2.23,2.23,0,0,1,1.45-.71l.43-2.42h-.43Z" />
  <path d="M255.34,363.16v1h.57l0-1,.7.05-.1,1c.19,0,.38,0,.56.06l.16-1,.69.13-.22,1,.55.13.27-1c.23.06.45.13.68.21l-.34,1,.53.2.39-1,.64.28-.45.94.5.26.51-.91.6.35-.55.88.47.32.6-.85c.19.13.38.27.56.42l-.65.81.43.37.7-.78.5.48-.74.74a5.18,5.18,0,0,1,.4.41l.77-.69c.16.17.31.35.45.53l-.82.65.34.45.85-.6c.14.19.27.39.39.58l-.88.55c.1.16.19.33.28.49l.91-.5c.12.2.22.41.32.62l-.93.44c.08.17.14.35.21.53l1-.4c.09.22.17.44.25.66l-1,.33c.06.18.11.36.17.55l1-.28c.06.22.12.45.17.68l-1,.22c0,.18.08.36.11.55l1-.16q.06.35.09.69l-1,.11c0,.18,0,.37,0,.56l1-.05v0c0,.24,0,.47,0,.7l-1,0c0,.19,0,.38,0,.57l1,.07c0,.24,0,.47-.07.7l-1-.14a5,5,0,0,1-.09.56l1,.2c0,.23-.09.46-.15.68l-1-.25c0,.18-.11.36-.16.54l1,.31c-.07.22-.14.45-.22.67l-1-.37c-.07.18-.15.35-.23.52l1,.42-.3.64-.93-.48-.27.49.89.53c-.11.2-.24.4-.37.6l-.87-.59a4.87,4.87,0,0,1-.32.47l.83.62c-.14.19-.29.37-.44.55l-.79-.68-.38.43.76.71-.5.5-.71-.76-.43.37.67.8a5.79,5.79,0,0,1-.55.43l-.61-.83a4.87,4.87,0,0,1-.47.32l.58.87-.6.37-.52-.9c-.16.1-.33.18-.5.27l.47.93-.63.3-.42-1-.52.22.36,1c-.22.08-.44.16-.66.22l-.3-1L258,385l.25,1-.69.14-.18-1-.56.09.13,1-.7.07-.07-1-.27,0h-.3l0,1h-.7l0-1-.57-.05-.1,1-.7-.1.17-1c-.19,0-.37-.08-.56-.12l-.22,1-.68-.17.28-1-.54-.17-.34,1c-.22-.07-.44-.16-.65-.24l.39-1-.52-.22-.44.93-.63-.32.51-.91c-.17-.09-.34-.18-.5-.28l-.55.88-.58-.39.61-.85-.46-.34-.65.81c-.18-.14-.36-.3-.53-.45l.7-.77c-.15-.13-.28-.27-.41-.4l-.74.74c-.17-.16-.33-.34-.48-.51l.78-.69a4.94,4.94,0,0,1-.36-.44l-.82.65c-.15-.18-.29-.37-.42-.56l.85-.6-.31-.47-.88.55c-.13-.2-.24-.4-.35-.6l.91-.5c-.09-.17-.18-.33-.26-.5l-.94.44c-.1-.21-.19-.42-.28-.64l1-.39c-.07-.17-.14-.35-.2-.53l-1,.34c-.08-.22-.15-.45-.21-.67l1-.28c-.05-.18-.1-.36-.14-.55l-1,.22c0-.23-.09-.46-.12-.69l1-.15c0-.19,0-.38-.06-.57l-1,.1c0-.22,0-.44-.05-.67v0l1,0a5.42,5.42,0,0,1,0-.57l-1.05,0,0-.7,1,.08c0-.19,0-.38.06-.56l-1-.14c0-.23.06-.46.11-.69l1,.2a5.59,5.59,0,0,1,.12-.56l-1-.25c.06-.22.12-.45.19-.67l1,.31c.06-.18.11-.36.18-.54l-1-.36c.08-.22.17-.44.27-.65l1,.42.24-.51-.92-.47c.1-.21.22-.42.33-.62l.9.53.3-.48-.87-.58.41-.57.83.62c.11-.15.24-.29.36-.43l-.8-.68.47-.52.75.72c.13-.14.27-.27.4-.4l-.71-.76.52-.46.67.8c.15-.12.29-.25.44-.36l-.62-.83c.18-.14.38-.27.57-.4l.58.87c.15-.1.31-.21.47-.3l-.52-.9c.2-.12.41-.23.61-.33l.47.93.52-.25-.42-.95.65-.26.35,1c.18-.07.36-.12.54-.18l-.3-1,.67-.19.25,1,.55-.11-.19-1,.69-.11.13,1,.57,0-.08-1c.23,0,.47,0,.7,0m-9.42,13.91,4-1.07a6.64,6.64,0,0,1-.14-1,5.7,5.7,0,0,1,5.45-5.92h.2a6.49,6.49,0,0,1,.77.05l.73-4.09a10.34,10.34,0,0,0-1.49-.11h-.38a9.83,9.83,0,0,0-9.42,10.23,9.16,9.16,0,0,0,.27,1.91m17.2,3.84a9.8,9.8,0,0,0-4.8-15.56l-1.07,4a5.67,5.67,0,0,1,2.71,8.87l3.16,2.68m-12.48-5.09,3-.79a1.38,1.38,0,0,1,0-.2,1.91,1.91,0,0,1,1.83-2h.15l.54-3a4.49,4.49,0,0,0-.64,0h-.17a5,5,0,0,0-4.75,5.16,4.14,4.14,0,0,0,.12.86m8.76,1.95a4.92,4.92,0,0,0,1-3.22,5,5,0,0,0-3.37-4.49l-.8,2.95a1.92,1.92,0,0,1,1.13,1.66,2,2,0,0,1-.32,1.13l2.33,2m-3.93,1.94h.21a5,5,0,0,0,3-1.22l-2.16-2.17a2,2,0,0,1-1,.35h-.08a1.92,1.92,0,0,1-1.64-.95l-2.89,1a5,5,0,0,0,4.53,2.95m0,4.88h.41a9.77,9.77,0,0,0,6.29-2.64L259.24,379a5.68,5.68,0,0,1-3.53,1.43h-.24a5.71,5.71,0,0,1-5.21-3.43l-3.9,1.4a9.83,9.83,0,0,0,9.11,6.18m-.13-22h0c-.24,0-.49,0-.73,0a.6.6,0,0,0-.32.12.58.58,0,0,0-.26-.06H254c-.25,0-.49.06-.73.11a.6.6,0,0,0-.31.15.58.58,0,0,0-.19,0l-.14,0-.72.19a.61.61,0,0,0-.28.19h-.12a.78.78,0,0,0-.22,0l-.68.28a.64.64,0,0,0-.27.22h0a.72.72,0,0,0-.28.07c-.22.11-.43.23-.64.35a.58.58,0,0,0-.24.25.55.55,0,0,0-.32.1c-.21.13-.41.28-.6.42a.66.66,0,0,0-.21.27.73.73,0,0,0-.31.14l-.55.49a.67.67,0,0,1-.46.46l-.5.55a.79.79,0,0,0-.14.31.6.6,0,0,0-.27.21c-.14.19-.29.4-.42.6a.65.65,0,0,0-.11.32.61.61,0,0,0-.24.24c-.13.21-.25.42-.36.64a.66.66,0,0,0-.06.34.56.56,0,0,0-.22.26c-.1.22-.19.45-.28.68a.66.66,0,0,0,0,.34.59.59,0,0,0-.18.28c-.08.24-.14.48-.2.71a.56.56,0,0,0,0,.34.6.6,0,0,0-.15.31c0,.24-.09.48-.12.73a.62.62,0,0,0,0,.33.6.6,0,0,0-.12.32l0,.74a.59.59,0,0,0,.09.32.62.62,0,0,0-.08.33c0,.26,0,.5,0,.74a.65.65,0,0,0,.12.31.78.78,0,0,0,0,.34c0,.24.09.48.14.72a.55.55,0,0,0,.16.3.56.56,0,0,0,0,.34c.07.24.14.47.22.71a.67.67,0,0,0,.19.28.53.53,0,0,0,0,.33c.09.23.19.46.29.68a.61.61,0,0,0,.23.25.55.55,0,0,0,.07.33c.12.22.24.43.37.64a.61.61,0,0,0,.25.23.65.65,0,0,0,.11.32c.14.2.29.4.44.59a.63.63,0,0,0,.28.2.59.59,0,0,0,.14.3l.51.54a.56.56,0,0,0,.29.16.79.79,0,0,0,.18.29l.57.48a.71.71,0,0,0,.31.13.66.66,0,0,0,.21.26l.62.41a.55.55,0,0,0,.32.1.78.78,0,0,0,.24.24c.22.11.44.23.66.33a.6.6,0,0,0,.27.06h.06a.62.62,0,0,0,.27.21l.69.26.2,0h.14a.79.79,0,0,0,.29.18l.72.18H253a.52.52,0,0,0,.21,0,.57.57,0,0,0,.3.15c.24,0,.49.07.73.09h.07a.68.68,0,0,0,.27-.07.52.52,0,0,0,.32.11h.74a.62.62,0,0,0,.32-.09.73.73,0,0,0,.29.07h0l.73-.07a.71.71,0,0,0,.32-.14.54.54,0,0,0,.22,0h.11l.73-.16a.66.66,0,0,0,.29-.17.41.41,0,0,0,.16,0l.18,0c.23-.07.47-.15.7-.24a.6.6,0,0,0,.27-.2h.09a.74.74,0,0,0,.25-.05l.67-.32a.53.53,0,0,0,.24-.23h0a.65.65,0,0,0,.31-.08l.63-.39a.68.68,0,0,0,.22-.26.59.59,0,0,0,.31-.12c.2-.14.4-.3.58-.45a.64.64,0,0,0,.19-.28.67.67,0,0,0,.3-.16c.18-.17.36-.34.53-.52a.57.57,0,0,0,.15-.3.61.61,0,0,0,.29-.19l.46-.57a.66.66,0,0,0,.12-.32.68.68,0,0,0,.26-.22c.13-.2.27-.41.39-.62a.56.56,0,0,0,.08-.33.72.72,0,0,0,.24-.25c.11-.22.22-.44.32-.67a.63.63,0,0,0,0-.33.71.71,0,0,0,.21-.27l.24-.7a.79.79,0,0,0,0-.34.55.55,0,0,0,.16-.3c.06-.23.12-.48.16-.72a.56.56,0,0,0,0-.34.63.63,0,0,0,.14-.31c0-.24.05-.49.07-.73a.54.54,0,0,0-.07-.33.64.64,0,0,0,.1-.33c0-.24,0-.49,0-.73a.6.6,0,0,0-.11-.34.71.71,0,0,0,.07-.35c0-.24-.06-.49-.1-.73a.49.49,0,0,0-.14-.3.57.57,0,0,0,0-.34c-.05-.24-.11-.48-.17-.72a.68.68,0,0,0-.18-.29.57.57,0,0,0,0-.34c-.07-.23-.16-.46-.25-.69a.71.71,0,0,0-.21-.27.65.65,0,0,0-.06-.33q-.15-.33-.33-.66a.69.69,0,0,0-.24-.24.59.59,0,0,0-.09-.32c-.13-.21-.27-.42-.41-.62a.66.66,0,0,0-.26-.21.61.61,0,0,0-.13-.31,6.57,6.57,0,0,0-.48-.57.59.59,0,0,0-.28-.18.65.65,0,0,0-.17-.3l-.53-.5a.6.6,0,0,0-.31-.15.59.59,0,0,0-.19-.28l-.59-.44a.65.65,0,0,0-.32-.11.61.61,0,0,0-.23-.25c-.21-.13-.42-.26-.64-.38A.59.59,0,0,0,261,364h0a.56.56,0,0,0-.25-.23l-.68-.3a.59.59,0,0,0-.23,0h-.1a.69.69,0,0,0-.28-.2l-.71-.22-.17,0-.17,0a.64.64,0,0,0-.3-.17l-.72-.13h-.1a.69.69,0,0,0-.24.05.71.71,0,0,0-.31-.13l-.74-.05h0a.61.61,0,0,0-.3.08.59.59,0,0,0-.32-.09Zm-9,13.76a7.74,7.74,0,0,1-.12-1.17,9.21,9.21,0,0,1,8.82-9.58h.36c.25,0,.51,0,.76,0l-.51,2.88h-.49a6.32,6.32,0,0,0-6,6.56c0,.18,0,.36.05.54l-2.83.75ZM258,369l.76-2.83A9.18,9.18,0,0,1,263,380l-2.23-1.88A6.29,6.29,0,0,0,258,369ZM251.15,375a.41.41,0,0,1,0-.11,4.34,4.34,0,0,1,4.15-4.51h.05l-.33,1.84a2.5,2.5,0,0,0-1.4.77,2.6,2.6,0,0,0-.67,1.53l-1.79.48Zm5.83-2.32.49-1.81a4.34,4.34,0,0,1,2.33,3.66,4.28,4.28,0,0,1-.53,2.27l-1.42-1.2a2.57,2.57,0,0,0,.16-1,2.52,2.52,0,0,0-1-1.93Zm-5.15,4.38,1.78-.64a2.54,2.54,0,0,0,1.86.83h.11a2.62,2.62,0,0,0,.87-.2l1.33,1.33a4.2,4.2,0,0,1-2.13.66h-.18a4.33,4.33,0,0,1-3.64-2Zm-4.64,1.67,2.76-1a6.3,6.3,0,0,0,5.52,3.28h.26a6.32,6.32,0,0,0,3.46-1.21l2.07,2.07a9.23,9.23,0,0,1-5.41,2h-.38a9.17,9.17,0,0,1-8.28-5.2Z" />
  <path class="GUNDAN_RED_PANDA_JEWELRY_GUNDAN_RED_PANDA_JEWELRY_7_cls-4" d="M239,400.53a.27.27,0,0,1-.21-.09.3.3,0,0,1-.1-.22v-.68h-.29l-.05.68a.31.31,0,0,1-.11.22.29.29,0,0,1-.2.07h0c-.22,0-.45,0-.67-.07a.28.28,0,0,1-.2-.12.3.3,0,0,1-.06-.23l.09-.68-.28,0-.16.67a.31.31,0,0,1-.3.24h-.07c-.22,0-.43-.1-.65-.16a.38.38,0,0,1-.18-.15.34.34,0,0,1,0-.24l.2-.66-.27-.09-.26.63a.3.3,0,0,1-.16.17.28.28,0,0,1-.13,0l-.11,0-.61-.27a.26.26,0,0,1-.16-.18.27.27,0,0,1,0-.23l.29-.62-.25-.14-.35.59a.31.31,0,0,1-.27.15.32.32,0,0,1-.16,0,6.65,6.65,0,0,1-.56-.36.31.31,0,0,1-.09-.43l.39-.57-.23-.17-.44.53a.26.26,0,0,1-.21.11h0a.32.32,0,0,1-.19-.07c-.18-.14-.35-.29-.51-.44a.37.37,0,0,1-.1-.22.31.31,0,0,1,.09-.22l.46-.5-.21-.21-.5.46a.32.32,0,0,1-.21.08h0a.35.35,0,0,1-.21-.1l-.43-.51a.32.32,0,0,1,.05-.44l.54-.43-.17-.23-.58.38a.34.34,0,0,1-.17.05h-.06a.35.35,0,0,1-.2-.14,6.42,6.42,0,0,1-.34-.56.31.31,0,0,1,.11-.43l.6-.34c-.05-.08-.09-.17-.13-.25l-.63.28a.28.28,0,0,1-.13,0,.32.32,0,0,1-.28-.18c-.09-.21-.18-.41-.25-.62a.3.3,0,0,1,.18-.4l.64-.25-.09-.27-.67.18-.08,0a.32.32,0,0,1-.3-.23c-.06-.22-.11-.43-.16-.65a.32.32,0,0,1,.24-.37l.68-.14a2.93,2.93,0,0,1-.05-.29l-.72.09a.32.32,0,0,1-.19-.07.3.3,0,0,1-.12-.21q0-.33-.06-.66a.3.3,0,0,1,.08-.22.29.29,0,0,1,.21-.11l.68,0v-.29l-.68,0a.31.31,0,0,1-.3-.32c0-.22,0-.44,0-.66a.36.36,0,0,1,.11-.22.37.37,0,0,1,.2-.07l.72.07a2.89,2.89,0,0,1,0-.29l-.68-.12a.32.32,0,0,1-.25-.37c0-.21.09-.43.15-.65a.3.3,0,0,1,.14-.19.29.29,0,0,1,.16,0h.07l.67.17a2.29,2.29,0,0,1,.08-.28l-.64-.23a.31.31,0,0,1-.19-.4c.07-.2.15-.41.24-.62a.35.35,0,0,1,.17-.17l.11,0a.28.28,0,0,1,.13,0l.63.27a2.1,2.1,0,0,1,.13-.26l-.61-.33a.3.3,0,0,1-.15-.18.33.33,0,0,1,0-.24c.11-.2.22-.39.34-.58a.3.3,0,0,1,.19-.14h.07a.34.34,0,0,1,.17.05l.57.36.17-.24-.54-.41a.31.31,0,0,1-.07-.43l.42-.52a.36.36,0,0,1,.21-.11h0a.37.37,0,0,1,.2.07l.52.45.2-.21-.48-.49a.31.31,0,0,1,0-.44c.16-.16.32-.31.49-.45a.32.32,0,0,1,.2-.08h0a.36.36,0,0,1,.21.11l.45.52.22-.18-.39-.55a.32.32,0,0,1,.07-.44l.55-.37a.33.33,0,0,1,.17,0h.07a.3.3,0,0,1,.19.14l.36.59.26-.15-.31-.61a.31.31,0,0,1,.14-.42c.19-.1.4-.19.6-.28l.12,0a.31.31,0,0,1,.29.19l.27.63.27-.1-.21-.66a.27.27,0,0,1,0-.23.29.29,0,0,1,.18-.16l.64-.18h.08a.32.32,0,0,1,.3.23l.16.67.29-.06-.11-.68a.31.31,0,0,1,.26-.35l.66-.09h0a.31.31,0,0,1,.31.28l.07.68h.28v-.68a.28.28,0,0,1,.09-.22.32.32,0,0,1,.22-.1h0l.66,0a.31.31,0,0,1,.29.33l0,.68.29,0,.1-.68a.3.3,0,0,1,.31-.26h0q.33,0,.66.12a.32.32,0,0,1,.24.37l-.15.67.28.08.21-.66a.32.32,0,0,1,.15-.19.35.35,0,0,1,.14,0h.1l.63.22a.3.3,0,0,1,.17.16.29.29,0,0,1,0,.24l-.24.64.26.11.3-.61a.31.31,0,0,1,.28-.17.35.35,0,0,1,.14,0l.59.31a.31.31,0,0,1,.11.43l-.34.59.25.16.39-.57a.33.33,0,0,1,.26-.13.27.27,0,0,1,.17.06l.54.39a.36.36,0,0,1,.11.21.31.31,0,0,1-.06.23l-.43.54.22.19.47-.5a.37.37,0,0,1,.22-.1h0a.31.31,0,0,1,.21.09c.16.15.32.31.47.48a.3.3,0,0,1,0,.43l-.51.47c.07.07.13.15.19.22l.54-.42a.35.35,0,0,1,.19-.06.32.32,0,0,1,.25.12l.39.54a.37.37,0,0,1,0,.23.39.39,0,0,1-.13.2l-.57.39.15.24.6-.33a.28.28,0,0,1,.15,0,.32.32,0,0,1,.27.16c.11.2.21.4.3.59a.33.33,0,0,1,0,.24.35.35,0,0,1-.16.18l-.62.29c0,.09.08.18.11.27l.64-.24.11,0a.31.31,0,0,1,.29.21q.12.31.21.63a.32.32,0,0,1-.21.39l-.66.19c0,.1.05.19.07.28l.68-.13h.06a.27.27,0,0,1,.17.06.26.26,0,0,1,.13.19c0,.22.08.44.11.66a.31.31,0,0,1-.27.35l-.67.09,0,.29.69,0a.31.31,0,0,1,.31.3c0,.24,0,.47,0,.69a.37.37,0,0,1-.1.22.32.32,0,0,1-.21.08h-.7a2.83,2.83,0,0,1,0,.29l.69.07a.31.31,0,0,1,.27.35q0,.33-.09.66a.31.31,0,0,1-.31.25h0l-.67-.12a2.29,2.29,0,0,1-.07.28l.66.18a.32.32,0,0,1,.19.15.31.31,0,0,1,0,.23c-.06.22-.12.43-.19.64a.32.32,0,0,1-.3.21h-.1l-.65-.22c0,.09-.07.18-.11.27l.63.28a.3.3,0,0,1,.16.41c-.09.2-.19.4-.29.6a.3.3,0,0,1-.18.15h-.09l-.15,0-.61-.32a2,2,0,0,1-.14.25l.58.37a.39.39,0,0,1,.13.2.31.31,0,0,1,0,.23c-.12.19-.25.37-.38.55a.33.33,0,0,1-.25.13.3.3,0,0,1-.18-.06l-.56-.41-.18.23.52.45a.32.32,0,0,1,0,.44c-.14.17-.3.33-.46.49a.32.32,0,0,1-.22.09h0a.31.31,0,0,1-.21-.09l-.49-.49-.22.19.45.53a.32.32,0,0,1,0,.44l-.53.41a.32.32,0,0,1-.18.06.29.29,0,0,1-.25-.13l-.41-.55-.24.16.35.59a.27.27,0,0,1,0,.23.3.3,0,0,1-.14.19c-.19.12-.39.23-.58.33l-.15,0h-.09a.3.3,0,0,1-.18-.15l-.32-.62-.26.12.26.64a.33.33,0,0,1,0,.24.35.35,0,0,1-.17.17l-.63.23-.1,0a.31.31,0,0,1-.29-.21l-.22-.65-.28.08.16.66a.32.32,0,0,1-.23.38l-.65.13h-.06a.41.41,0,0,1-.18-.05.32.32,0,0,1-.12-.2l-.12-.68-.29,0,.06.69a.31.31,0,0,1-.29.33l-.42,0Zm-4.56-5.2a7.23,7.23,0,0,0,4,1.47l-.06-1.41a5.68,5.68,0,0,1-3-1.1Zm5.3,1.42a7.2,7.2,0,0,0,3.87-1.8l-1-.95a5.76,5.76,0,0,1-2.88,1.34Zm-8-6.17a7.18,7.18,0,0,0,1.79,3.87l1-1a5.6,5.6,0,0,1-1.34-2.88Zm4.54,2.8a4.54,4.54,0,0,0,2.1.77l-.12-2.92Zm3.39.71a4.51,4.51,0,0,0,2-.94l-2.15-2Zm4.86-.09a7.2,7.2,0,0,0,1.47-4l-1.41.06a5.68,5.68,0,0,1-1.1,3Zm-10.14-3.53a4.51,4.51,0,0,0,.94,2l2-2.15Zm8.19,1.73a4.54,4.54,0,0,0,.77-2.1l-2.92.12Zm-9.43-6.92a7.31,7.31,0,0,0-1.47,4l1.41-.06a5.77,5.77,0,0,1,1.1-3Zm2,1.8a4.43,4.43,0,0,0-.77,2.1l2.91-.12Zm5.27,1.85,2.91-.12a4.51,4.51,0,0,0-.94-2Zm2.81-3.06a5.59,5.59,0,0,1,1.34,2.89l1.41-.06a7.14,7.14,0,0,0-1.79-3.87Zm-5.06,2.23-.12-2.91a4.51,4.51,0,0,0-2,.94Zm1.29-.05,2-2.14a4.33,4.33,0,0,0-2.1-.77ZM235,385.29A5.59,5.59,0,0,1,237.9,384l-.06-1.41a7.22,7.22,0,0,0-3.87,1.79Zm4.18-1.4a5.77,5.77,0,0,1,3,1.1l1-1a7.2,7.2,0,0,0-4-1.47Z" />
  <path d="M238.79,379.06l.59,0-.06,1a8.46,8.46,0,0,1,.88.09l.15-1,.63.11-.2,1a8.15,8.15,0,0,1,.85.22l.29-.95a6.45,6.45,0,0,1,.62.21l-.35.92c.27.11.54.22.81.35l.43-.88.57.3-.49.87a7.25,7.25,0,0,1,.75.47l.57-.82c.17.12.35.25.52.39l-.62.78c.23.18.45.37.67.57l.68-.71c.15.14.31.3.45.46l-.72.67c.2.22.39.44.57.67l.78-.6c.13.17.26.34.38.52l-.82.56c.16.24.32.49.46.75l.87-.48c.1.19.2.38.29.58l-.89.42a8.16,8.16,0,0,1,.34.81l.93-.34c.07.21.14.41.2.62l-.95.28c.08.28.15.57.21.86l1-.2c0,.21.07.43.1.64l-1,.14a8.27,8.27,0,0,1,.08.87l1,0v0c0,.22,0,.44,0,.65l-1,0a8.48,8.48,0,0,1-.06.88l1,.11c0,.22,0,.43-.09.64l-1-.17a8.23,8.23,0,0,1-.19.86l1,.26a6.36,6.36,0,0,1-.19.62l-.94-.32a7.34,7.34,0,0,1-.32.82l.91.41c-.09.2-.18.39-.28.58l-.88-.46c-.14.27-.29.52-.45.77l.84.53-.37.54-.8-.59c-.17.24-.36.47-.55.69l.74.65c-.14.17-.29.32-.44.48l-.71-.71c-.21.21-.42.41-.65.6l.64.76-.51.4-.59-.8a7.15,7.15,0,0,1-.73.49l.51.85-.57.31-.46-.88c-.26.13-.52.26-.8.37l.38.92-.61.23-.32-.94q-.41.13-.84.24l.23,1c-.21.05-.43.1-.64.13l-.17-1a8.27,8.27,0,0,1-.87.11l.08,1-.41,0H239l0-1h-.23c-.22,0-.43,0-.65,0l-.07,1c-.21,0-.43,0-.64-.07l.13-1a8.34,8.34,0,0,1-.87-.16l-.22,1-.63-.16.28-1a8.09,8.09,0,0,1-.83-.28l-.37.92-.59-.26.42-.9a8.3,8.3,0,0,1-.78-.41l-.5.85-.55-.34.56-.83c-.25-.16-.48-.34-.71-.52l-.63.77-.49-.43.67-.72c-.21-.2-.42-.41-.62-.63l-.73.66-.42-.5.78-.62a7.55,7.55,0,0,1-.51-.71l-.84.55c-.11-.18-.23-.37-.33-.56l.86-.49a7.16,7.16,0,0,1-.4-.78l-.91.41c-.08-.2-.17-.4-.24-.6l.92-.35q-.15-.42-.27-.84l-1,.26a6.23,6.23,0,0,1-.15-.62l1-.21a8.74,8.74,0,0,1-.14-.87l-1,.12c0-.22-.05-.43-.06-.65l1-.06c0-.05,0-.1,0-.15,0-.25,0-.49,0-.73l-1,0c0-.21,0-.43,0-.65l1,.1q0-.45.12-.87l-1-.19c0-.21.08-.42.14-.63l1,.24c.07-.28.16-.56.25-.84l-.93-.33a6.44,6.44,0,0,1,.24-.61l.91.39c.12-.27.24-.53.38-.79l-.87-.47c.1-.19.21-.38.32-.56l.84.52a7.25,7.25,0,0,1,.5-.73l-.79-.6c.13-.17.27-.34.41-.5l.75.65c.2-.23.4-.44.61-.64l-.7-.72.48-.44.65.76c.22-.19.45-.38.69-.55l-.57-.8a5.07,5.07,0,0,1,.54-.36l.52.84a8.35,8.35,0,0,1,.77-.43l-.45-.89c.2-.09.39-.19.59-.27l.39.92a8.29,8.29,0,0,1,.83-.31l-.31-.95.63-.18.24,1c.28-.07.57-.13.86-.18l-.15-1c.21,0,.43-.07.64-.09l.1,1a4.57,4.57,0,0,1,.52-.05h.36v-1h.06m3.43,6.35,1.37-1.49a7.37,7.37,0,0,0-4.78-1.75l.08,2a5.5,5.5,0,0,1,3.33,1.22m-7.21.3a5.4,5.4,0,0,1,3.21-1.49l-.08-2a7.53,7.53,0,0,0-4.63,2.14l1.5,1.38m9.19,3.37,2-.08a7.47,7.47,0,0,0-2.14-4.63l-1.38,1.5a5.4,5.4,0,0,1,1.49,3.21m-5.12-.27,2.72-2.95a4.81,4.81,0,0,0-2.88-1.05l.16,4m-7.78.8,2-.08a5.47,5.47,0,0,1,1.22-3.32l-1.49-1.38a7.44,7.44,0,0,0-1.76,4.78m7.11-.77-.17-4a4.83,4.83,0,0,0-2.78,1.29l2.95,2.72m1.17.43,4-.17a4.83,4.83,0,0,0-1.29-2.78l-2.72,2.95m-5.64.23,4-.16L235,386.62a4.88,4.88,0,0,0-1.06,2.88m10.57,4.95a7.48,7.48,0,0,0,1.75-4.78l-2,.08a5.37,5.37,0,0,1-1.22,3.33l1.5,1.37m-1.95-1.79a4.82,4.82,0,0,0,1.06-2.88l-4,.17,2.95,2.71m-7.3.3L238,390l-4,.17a4.8,4.8,0,0,0,1.29,2.78m-1.79,2,1.38-1.5a5.4,5.4,0,0,1-1.49-3.21l-2,.09a7.53,7.53,0,0,0,2.14,4.62m5.85-.46a4.8,4.8,0,0,0,2.78-1.29l-2.95-2.72.17,4m-.68,0-.16-4-2.72,2.95a4.82,4.82,0,0,0,2.88,1.06m.79,2.61a7.47,7.47,0,0,0,4.62-2.14l-1.5-1.38a5.4,5.4,0,0,1-3.21,1.49l.09,2m-.68,0-.08-2a5.35,5.35,0,0,1-3.32-1.22l-1.38,1.5a7.48,7.48,0,0,0,4.78,1.75m0-18.68h-.06a.61.61,0,0,0-.44.19l-.06.07a.64.64,0,0,0-.47-.21h-.06l-.68.08a.63.63,0,0,0-.4.25l-.06.08a.62.62,0,0,0-.39-.14l-.16,0c-.22,0-.44.12-.66.19a.64.64,0,0,0-.36.31l0,.09a.57.57,0,0,0-.32-.09.52.52,0,0,0-.24,0c-.21.09-.42.18-.62.29a.6.6,0,0,0-.34.45.59.59,0,0,0-.23,0,.63.63,0,0,0-.33.09l-.57.38a.58.58,0,0,0-.25.4.38.38,0,0,0,0,.1l-.15,0a.62.62,0,0,0-.4.15l-.51.47a.59.59,0,0,0-.18.53h-.05a.59.59,0,0,0-.47.22c-.15.17-.3.35-.43.53a.6.6,0,0,0-.1.56h-.1a.65.65,0,0,0-.39.28c-.12.19-.23.39-.34.59a.6.6,0,0,0,0,.47.3.3,0,0,0,0,.1.63.63,0,0,0-.44.36c-.09.21-.17.42-.25.64a.63.63,0,0,0,0,.47.41.41,0,0,0,.05.09.6.6,0,0,0-.37.43c-.06.22-.11.44-.15.67a.62.62,0,0,0,.09.46l.07.08a.24.24,0,0,0-.08.06.61.61,0,0,0-.23.42c0,.22,0,.45,0,.68a.61.61,0,0,0,.24.51.62.62,0,0,0-.23.52l.06.68a.61.61,0,0,0,.23.41l.09.06a.62.62,0,0,0-.15.54c0,.23.1.45.16.67a.66.66,0,0,0,.3.38l.09,0a.35.35,0,0,0,0,.08.67.67,0,0,0,0,.48c.09.21.17.43.27.63a.61.61,0,0,0,.44.36.59.59,0,0,0,0,.56c.11.2.23.39.35.59a.64.64,0,0,0,.4.26l.1,0a.59.59,0,0,0,.11.55c.14.18.29.35.44.52a.59.59,0,0,0,.43.21h.1a.28.28,0,0,0,0,.09.67.67,0,0,0,.2.44l.52.45a.62.62,0,0,0,.39.14l.16,0a.28.28,0,0,0,0,.09.62.62,0,0,0,.26.4l.58.37a.61.61,0,0,0,.32.08h.15l.1,0a.3.3,0,0,0,0,.1.65.65,0,0,0,.32.35l.63.28a.93.93,0,0,0,.23,0,.7.7,0,0,0,.25,0l.09-.05a.36.36,0,0,0,0,.09.56.56,0,0,0,.37.3c.21.07.44.13.66.18h.14a.66.66,0,0,0,.33-.09l.08-.06a.22.22,0,0,0,.05.08.62.62,0,0,0,.41.24l.69.07h0a.62.62,0,0,0,.48-.22l.06.07a.6.6,0,0,0,.43.18h.26l.44,0a.63.63,0,0,0,.42-.21l.06-.08.07.06a.59.59,0,0,0,.36.11h.11l.67-.14a.65.65,0,0,0,.39-.28l0-.09.09.05a.52.52,0,0,0,.27.07.45.45,0,0,0,.2,0L243,400a.63.63,0,0,0,.34-.34.32.32,0,0,0,0-.09l.09,0,.19,0a.59.59,0,0,0,.29-.07q.3-.15.6-.33a.66.66,0,0,0,.3-.48.58.58,0,0,0,.19,0,.62.62,0,0,0,.36-.12c.19-.13.37-.28.54-.42a.63.63,0,0,0,.23-.52h.1a.59.59,0,0,0,.43-.19c.17-.16.32-.32.47-.49a.64.64,0,0,0,.16-.45s0-.07,0-.1h0a.63.63,0,0,0,.5-.25q.21-.28.39-.57a.62.62,0,0,0,.06-.56.65.65,0,0,0,.46-.33l.3-.62a.64.64,0,0,0,0-.47l0-.09a.64.64,0,0,0,.4-.4c.07-.21.14-.43.2-.66a.57.57,0,0,0-.12-.55.59.59,0,0,0,.34-.45c0-.22.08-.45.1-.68a.63.63,0,0,0-.2-.53l.08-.06a.66.66,0,0,0,.19-.44c0-.22,0-.45,0-.68a.69.69,0,0,0-.2-.45l-.09-.06.08-.08a.63.63,0,0,0,.12-.46c0-.23-.07-.45-.12-.68a.59.59,0,0,0-.26-.39l-.09-.05.06-.08a.62.62,0,0,0,.05-.48c-.07-.22-.14-.43-.22-.65a.62.62,0,0,0-.41-.38.67.67,0,0,0,0-.57l-.32-.61a.65.65,0,0,0-.37-.3l-.09,0a.66.66,0,0,0-.07-.56l-.41-.55a.6.6,0,0,0-.49-.24h0a.38.38,0,0,0,0-.1A.61.61,0,0,0,247,382l-.48-.48a.61.61,0,0,0-.43-.18H246a.28.28,0,0,0,0-.09.61.61,0,0,0-.23-.42c-.18-.14-.36-.28-.55-.41a.66.66,0,0,0-.35-.11l-.21,0a.61.61,0,0,0-.31-.47c-.2-.11-.4-.22-.61-.32a.63.63,0,0,0-.27-.06.59.59,0,0,0-.29.07.36.36,0,0,0,0-.09.61.61,0,0,0-.34-.33c-.21-.08-.43-.16-.65-.22a.58.58,0,0,0-.19,0,.55.55,0,0,0-.28.07l-.09.05a.22.22,0,0,0-.05-.08.6.6,0,0,0-.39-.27l-.67-.13h-.1a.61.61,0,0,0-.44.19.59.59,0,0,0-.49-.29l-.62,0Zm.7,5.17,0-.79a6.77,6.77,0,0,1,3.21,1.18l-.53.58a6,6,0,0,0-2.65-1Zm-5.05.73a6.76,6.76,0,0,1,3.1-1.44l0,.79a6,6,0,0,0-2.56,1.19l-.58-.54Zm9.11,1.54.53-.58a6.76,6.76,0,0,1,1.44,3.1l-.79,0a6,6,0,0,0-1.18-2.56Zm-3.91,1.41-.07-1.79a4,4,0,0,1,1.29.47l-1.22,1.32Zm-3.23-1.14a4.11,4.11,0,0,1,1.24-.57l.08,1.79-1.32-1.22ZM232,389a6.77,6.77,0,0,1,1.18-3.21l.58.54a6,6,0,0,0-1,2.64l-.79,0Zm9.09-.37,1.22-1.32a4.39,4.39,0,0,1,.58,1.24l-1.8.08Zm-6.41.26a4,4,0,0,1,.47-1.28l1.32,1.21-1.79.07Zm10.17,1.5.79,0a6.87,6.87,0,0,1-1.17,3.21l-.59-.53a6,6,0,0,0,1-2.65Zm-3.68.15,1.8-.07a4.28,4.28,0,0,1-.48,1.29l-1.32-1.22Zm-6.41.27,1.79-.07L235.29,392a4.11,4.11,0,0,1-.57-1.24Zm-2.68.11.79,0A5.93,5.93,0,0,0,234,393.4l-.54.59a6.84,6.84,0,0,1-1.44-3.11Zm7.87,2.83-.08-1.8,1.32,1.22a4.39,4.39,0,0,1-1.24.58Zm-3.21-.4,1.22-1.32.07,1.8a4.38,4.38,0,0,1-1.29-.48Zm3.29,2.28a6,6,0,0,0,2.55-1.18l.59.53a6.84,6.84,0,0,1-3.11,1.44l0-.79Zm-5.1-.3.54-.59a6,6,0,0,0,2.64,1l0,.79a6.87,6.87,0,0,1-3.21-1.17Z" />
  <path class="GUNDAN_RED_PANDA_JEWELRY_GUNDAN_RED_PANDA_JEWELRY_7_cls-2" d="M219.14,397.82a4,4,0,0,1-.17-8.08h.17a4,4,0,0,1,.17,8.08Zm-.1-6.43a2.39,2.39,0,0,0,.1,4.78h.1a2.4,2.4,0,0,0-.1-4.79Z" />
  <path d="M219.14,390.05a3.73,3.73,0,0,1,.16,7.46h-.16a3.73,3.73,0,0,1-.15-7.46h.15m0,6.43h.11a2.71,2.71,0,0,0-.11-5.41H219a2.7,2.7,0,0,0,.11,5.4m0-7.05H219a4.35,4.35,0,0,0,.18,8.7h.18a4.35,4.35,0,0,0-.18-8.7Zm0,6.43a2.08,2.08,0,0,1-.08-4.16h.08a2.07,2.07,0,0,1,2.08,2,2.09,2.09,0,0,1-2,2.17Z" />
  <path class="GUNDAN_RED_PANDA_JEWELRY_GUNDAN_RED_PANDA_JEWELRY_7_cls-2" d="M219.14,399.36A5.57,5.57,0,0,1,215,390a5.52,5.52,0,0,1,3.87-1.8h.23a5.58,5.58,0,0,1,.23,11.16Zm-.19-10.3a4.72,4.72,0,0,0,.19,9.44h.2a4.72,4.72,0,0,0-.2-9.43Z" />
  <path d="M219.14,388.51a5.27,5.27,0,0,1,.22,10.54h-.22a5.27,5.27,0,0,1-.22-10.54h.22m0,10.3h.21a5,5,0,0,0-.21-10.05h-.21a5,5,0,0,0,.21,10.06m0-10.92h-.24a5.89,5.89,0,0,0,.24,11.78h.25a5.89,5.89,0,0,0-.25-11.78Zm0,10.3a4.41,4.41,0,0,1-.18-8.82h.18a4.4,4.4,0,0,1,4.41,4.23,4.35,4.35,0,0,1-1.17,3.16,4.31,4.31,0,0,1-3.06,1.42Z" />
  <path class="GUNDAN_RED_PANDA_JEWELRY_GUNDAN_RED_PANDA_JEWELRY_7_cls-2" d="M219.14,404.18a10.56,10.56,0,0,1-1.49-.1.37.37,0,0,1-.2-.12.34.34,0,0,1-.06-.24l.08-.57a9.84,9.84,0,0,1-2.46-.8l-.27.52a.3.3,0,0,1-.18.15l-.09,0a.42.42,0,0,1-.15,0A10.68,10.68,0,0,1,212.7,402a.33.33,0,0,1,0-.44l.37-.46a9.29,9.29,0,0,1-1.74-1.91l-.49.31a.26.26,0,0,1-.17.05.31.31,0,0,1-.26-.14,10.33,10.33,0,0,1-.88-1.72.31.31,0,0,1,.17-.4l.55-.22a9.45,9.45,0,0,1-.55-2.53l-.59,0a.32.32,0,0,1-.31-.29,10.28,10.28,0,0,1,.09-1.93.35.35,0,0,1,.12-.21.33.33,0,0,1,.19-.06l.62.09a9.58,9.58,0,0,1,.8-2.46l-.52-.28a.31.31,0,0,1-.13-.42,11.34,11.34,0,0,1,1-1.61.33.33,0,0,1,.25-.12.28.28,0,0,1,.19.07l.46.36a9.34,9.34,0,0,1,1.92-1.74l-.32-.49a.31.31,0,0,1,.1-.43,10.62,10.62,0,0,1,1.71-.88.25.25,0,0,1,.12,0,.31.31,0,0,1,.29.19l.21.55a9.62,9.62,0,0,1,2.53-.55l0-.58a.3.3,0,0,1,.29-.32h.46a10.27,10.27,0,0,1,1.47.1.3.3,0,0,1,.26.35l-.08.58a9.68,9.68,0,0,1,2.46.79l.27-.52a.33.33,0,0,1,.28-.16.35.35,0,0,1,.14,0,10.68,10.68,0,0,1,1.62,1.05.32.32,0,0,1,.12.2.3.3,0,0,1-.07.23l-.36.47a9.53,9.53,0,0,1,1.73,1.91l.5-.32a.33.33,0,0,1,.17,0,.31.31,0,0,1,.26.14,11,11,0,0,1,.88,1.71.32.32,0,0,1-.17.41l-.55.21a9.62,9.62,0,0,1,.55,2.53l.59,0a.32.32,0,0,1,.32.29,11.43,11.43,0,0,1-.1,1.95.35.35,0,0,1-.12.21.33.33,0,0,1-.19.06l-.62-.09a9.32,9.32,0,0,1-.8,2.46l.52.27a.32.32,0,0,1,.15.19.26.26,0,0,1,0,.23,10.21,10.21,0,0,1-1.05,1.62.3.3,0,0,1-.24.12.31.31,0,0,1-.2-.07l-.46-.36a9.81,9.81,0,0,1-1.91,1.73l.31.5a.31.31,0,0,1-.09.42,10,10,0,0,1-1.72.88.37.37,0,0,1-.24,0,.3.3,0,0,1-.16-.17l-.22-.54a10,10,0,0,1-2.53.54l0,.58a.29.29,0,0,1-.08.23.32.32,0,0,1-.23.09Zm-.3-17.77a7.38,7.38,0,0,0,.3,14.75h.31a7.38,7.38,0,0,0-.3-14.75Z" />
  <path d="M219.15,383.69a9.69,9.69,0,0,1,1.42.1l-.12.88a9,9,0,0,1,2.94.95l.42-.79a10,10,0,0,1,1.57,1l-.56.7a9.13,9.13,0,0,1,2.08,2.3l.76-.48a10,10,0,0,1,.85,1.66l-.83.33a9.22,9.22,0,0,1,.66,3l.88,0v0a10.61,10.61,0,0,1-.1,1.87l-.88-.13a8.92,8.92,0,0,1-1,2.94l.79.42a10,10,0,0,1-1,1.57l-.7-.56a9.3,9.3,0,0,1-2.3,2.08l.48.75a9.72,9.72,0,0,1-1.67.85l-.33-.82a9.47,9.47,0,0,1-3,.65l0,.88h-.42a9.77,9.77,0,0,1-1.44-.1l.12-.88a9.07,9.07,0,0,1-2.94-1l-.41.79a10,10,0,0,1-1.57-1l.55-.7a9.5,9.5,0,0,1-2.08-2.3l-.75.48a10.83,10.83,0,0,1-.85-1.66l.83-.33a9.22,9.22,0,0,1-.66-3l-.88,0h0a9.59,9.59,0,0,1,.09-1.86l.88.13a9.28,9.28,0,0,1,.95-3l-.79-.41a10,10,0,0,1,1-1.57l.7.55A9.45,9.45,0,0,1,214.2,386l-.48-.75a10.49,10.49,0,0,1,1.67-.85l.33.82a9.47,9.47,0,0,1,3-.65l0-.88h.44m0,17.78h.32a7.69,7.69,0,0,0-.31-15.37h-.33a7.69,7.69,0,0,0,.32,15.37m0-18.41h-.45a.64.64,0,0,0-.61.65V384a10.05,10.05,0,0,0-2,.43l-.11-.26a.58.58,0,0,0-.33-.34.52.52,0,0,0-.24,0,.59.59,0,0,0-.23,0,10.56,10.56,0,0,0-1.77.91.63.63,0,0,0-.19.86l.16.24a9.68,9.68,0,0,0-1.54,1.39l-.23-.18a.58.58,0,0,0-.38-.13h-.07a.65.65,0,0,0-.42.23,11.89,11.89,0,0,0-1.08,1.67.64.64,0,0,0,0,.47.63.63,0,0,0,.31.37l.25.13a10.64,10.64,0,0,0-.64,2l-.28,0h-.09a.61.61,0,0,0-.61.53,10,10,0,0,0-.1,2,.63.63,0,0,0,.62.61h.31a9.34,9.34,0,0,0,.44,2l-.27.11a.58.58,0,0,0-.34.33.61.61,0,0,0,0,.48,10.47,10.47,0,0,0,.91,1.76.65.65,0,0,0,.39.28h.13a.56.56,0,0,0,.33-.1l.25-.15a9.61,9.61,0,0,0,1.39,1.53l-.18.23a.63.63,0,0,0,.1.88,10.08,10.08,0,0,0,1.67,1.07.6.6,0,0,0,.29.08A.63.63,0,0,0,215,403l.13-.26a9.44,9.44,0,0,0,2,.64l0,.29a.63.63,0,0,0,.12.46.62.62,0,0,0,.41.24,9.76,9.76,0,0,0,1.53.11h.44a.62.62,0,0,0,.6-.65v-.28a10.05,10.05,0,0,0,2-.43l.11.26a.61.61,0,0,0,.57.4.59.59,0,0,0,.23,0,10.52,10.52,0,0,0,1.77-.9.62.62,0,0,0,.19-.86l-.15-.25a9.61,9.61,0,0,0,1.53-1.39l.23.18a.62.62,0,0,0,.39.14h.07a.61.61,0,0,0,.41-.23,10.49,10.49,0,0,0,1.08-1.66.62.62,0,0,0,.05-.48.64.64,0,0,0-.31-.36l-.25-.14a10.31,10.31,0,0,0,.64-2l.28,0h.09a.62.62,0,0,0,.62-.53,12,12,0,0,0,.1-2,.63.63,0,0,0-.21-.44.6.6,0,0,0-.42-.18h-.31a9.43,9.43,0,0,0-.44-2l.27-.1a.63.63,0,0,0,.35-.81,10.56,10.56,0,0,0-.91-1.77.6.6,0,0,0-.39-.27l-.13,0a.67.67,0,0,0-.34.1l-.24.16a9.67,9.67,0,0,0-1.4-1.53l.18-.23a.6.6,0,0,0,.13-.46.63.63,0,0,0-.23-.42,10.08,10.08,0,0,0-1.67-1.07.58.58,0,0,0-.28-.07.61.61,0,0,0-.55.33l-.14.26a9.08,9.08,0,0,0-2-.64l0-.29a.62.62,0,0,0-.53-.7,11,11,0,0,0-1.51-.11Zm0,17.79a7.07,7.07,0,0,1-.29-14.13h.3a7.07,7.07,0,0,1,.28,14.13Z" />
  <path class="GUNDAN_RED_PANDA_JEWELRY_GUNDAN_RED_PANDA_JEWELRY_7_cls-5" d="M230.78,415.05a.6.6,0,0,1-.6-.58l0-.67-.28,0-.15.66a.61.61,0,0,1-.58.47l-.14,0-.48-.1a.61.61,0,0,1-.45-.72l.15-.66-.27-.1-.31.6a.6.6,0,0,1-.53.32.53.53,0,0,1-.28-.07l-.44-.23a.58.58,0,0,1-.29-.34.57.57,0,0,1,0-.46l.31-.6-.23-.17-.46.5a.57.57,0,0,1-.44.2.59.59,0,0,1-.4-.16l-.37-.34a.59.59,0,0,1-.19-.42.58.58,0,0,1,.16-.43l.45-.49-.18-.22-.57.36a.58.58,0,0,1-.32.1.61.61,0,0,1-.5-.28l-.27-.42a.61.61,0,0,1,.19-.83l.57-.36a1.23,1.23,0,0,1-.12-.26l-.65.21-.18,0a.6.6,0,0,1-.57-.42l-.15-.47a.61.61,0,0,1,.4-.75l.64-.2a2.74,2.74,0,0,0,0-.28l-.67,0a.61.61,0,0,1-.63-.58l0-.49a.62.62,0,0,1,.16-.43.57.57,0,0,1,.42-.19l.67,0,0-.28-.66-.15a.62.62,0,0,1-.37-.26.56.56,0,0,1-.08-.45l.1-.49a.61.61,0,0,1,.59-.47l.13,0,.66.15c0-.09.06-.18.1-.27l-.6-.31a.58.58,0,0,1-.29-.36.55.55,0,0,1,0-.45L223,402a.58.58,0,0,1,.52-.32.53.53,0,0,1,.28.07l.6.31.16-.23-.49-.46a.55.55,0,0,1-.19-.41.59.59,0,0,1,.15-.44l.34-.36a.6.6,0,0,1,.44-.19.55.55,0,0,1,.4.16l.5.45.22-.18-.36-.57a.56.56,0,0,1-.08-.45.6.6,0,0,1,.26-.38l.42-.26a.62.62,0,0,1,.32-.09.58.58,0,0,1,.5.27l.37.57.26-.12-.21-.64a.61.61,0,0,1,.39-.75l.48-.15.18,0a.59.59,0,0,1,.57.42l.2.64.28-.05,0-.67a.62.62,0,0,1,.58-.63l.49,0a.6.6,0,0,1,.62.58l0,.67.28,0,.15-.66a.59.59,0,0,1,.58-.47l.14,0,.48.1a.61.61,0,0,1,.45.72l-.14.66.26.09.31-.59a.61.61,0,0,1,.54-.32.63.63,0,0,1,.27.06l.44.23a.59.59,0,0,1,.29.35.57.57,0,0,1,0,.46l-.31.6.23.16.46-.49a.57.57,0,0,1,.44-.2.62.62,0,0,1,.41.16l.36.34a.59.59,0,0,1,0,.84l-.45.5.18.22.57-.36a.55.55,0,0,1,.32-.1.61.61,0,0,1,.51.28l.26.42a.59.59,0,0,1,.08.45.62.62,0,0,1-.27.38l-.56.35.12.26.64-.2.18,0a.6.6,0,0,1,.57.43l.15.47a.61.61,0,0,1-.4.75l-.64.2c0,.09,0,.18,0,.28l.67,0a.61.61,0,0,1,.63.57l0,.5a.62.62,0,0,1-.16.43.61.61,0,0,1-.42.19l-.67,0,0,.28.66.15a.59.59,0,0,1,.45.71l-.1.49a.6.6,0,0,1-.59.46h-.13l-.66-.15-.09.27.59.31a.64.64,0,0,1,.3.35.61.61,0,0,1,0,.46l-.23.44a.6.6,0,0,1-.53.32.55.55,0,0,1-.28-.07l-.6-.31-.16.23.49.46a.59.59,0,0,1,0,.84l-.34.37a.59.59,0,0,1-.84,0l-.5-.46-.22.19.37.57a.6.6,0,0,1-.19.82l-.42.27a.59.59,0,0,1-.32.09.58.58,0,0,1-.5-.28l-.36-.57-.26.12.2.65a.59.59,0,0,1,0,.45.64.64,0,0,1-.35.3l-.48.14-.18,0a.6.6,0,0,1-.57-.42l-.2-.64-.28.05,0,.67a.59.59,0,0,1-.57.62Zm-.3-13.87a5.08,5.08,0,0,0,.2,10.15h.22a5.08,5.08,0,0,0-.21-10.16Z" />
  <path d="M230.59,397.77a.29.29,0,0,1,.29.28l0,1a7.74,7.74,0,0,1,.83.07l.2-.93a.3.3,0,0,1,.28-.23h.07l.48.11a.28.28,0,0,1,.22.34l-.21.93a7.31,7.31,0,0,1,.78.29l.44-.85a.28.28,0,0,1,.26-.15.31.31,0,0,1,.13,0l.44.23a.29.29,0,0,1,.12.39l-.45.84a8.29,8.29,0,0,1,.68.48l.65-.7a.26.26,0,0,1,.21-.1.32.32,0,0,1,.2.08l.36.33a.3.3,0,0,1,0,.41l-.65.71c.18.2.36.41.53.63l.81-.51a.27.27,0,0,1,.39.09l.27.41a.3.3,0,0,1-.09.4l-.81.51c.13.25.25.5.35.75l.91-.28.09,0a.29.29,0,0,1,.27.21l.15.47a.29.29,0,0,1-.19.36l-.91.29a6.84,6.84,0,0,1,.14.81l1,0h0a.29.29,0,0,1,.29.28l0,.49a.3.3,0,0,1-.28.3l-1,0a7.35,7.35,0,0,1-.07.82l.93.21a.29.29,0,0,1,.22.35l-.11.48a.28.28,0,0,1-.28.22h-.06l-.93-.21c-.09.26-.18.52-.29.77l.85.45a.28.28,0,0,1,.12.39l-.23.43a.28.28,0,0,1-.25.16.35.35,0,0,1-.14,0l-.85-.45a6.32,6.32,0,0,1-.47.68l.7.65a.28.28,0,0,1,0,.4l-.33.37a.31.31,0,0,1-.22.09.24.24,0,0,1-.19-.08l-.71-.65a6.31,6.31,0,0,1-.63.53l.51.81a.28.28,0,0,1-.09.4l-.41.27a.32.32,0,0,1-.16,0,.29.29,0,0,1-.24-.13l-.51-.81c-.24.13-.5.24-.75.35l.28.91a.29.29,0,0,1-.19.36l-.47.15h-.09a.29.29,0,0,1-.27-.2l-.29-.91c-.26.06-.53.1-.81.14l0,1a.29.29,0,0,1-.28.3l-.49,0h0a.29.29,0,0,1-.29-.27l0-1a7.35,7.35,0,0,1-.82-.07l-.21.93a.29.29,0,0,1-.28.23h-.07l-.48-.11a.29.29,0,0,1-.22-.34l.21-.94a7.08,7.08,0,0,1-.77-.28l-.45.85a.27.27,0,0,1-.25.15.35.35,0,0,1-.14,0l-.43-.23a.29.29,0,0,1-.13-.39l.45-.85a6.32,6.32,0,0,1-.68-.47l-.65.7a.27.27,0,0,1-.21.09.26.26,0,0,1-.19-.07l-.37-.34a.28.28,0,0,1,0-.4l.64-.71c-.18-.2-.36-.41-.53-.63l-.8.51a.32.32,0,0,1-.16,0,.27.27,0,0,1-.24-.13l-.27-.42a.29.29,0,0,1,.09-.39l.81-.52c-.13-.24-.24-.49-.35-.75l-.91.29h-.09a.29.29,0,0,1-.27-.2l-.15-.47a.29.29,0,0,1,.19-.36l.92-.29a5.49,5.49,0,0,1-.14-.81l-1,0h0a.28.28,0,0,1-.28-.28l0-.49a.29.29,0,0,1,.28-.3l1,0a7.15,7.15,0,0,1,.07-.82l-.93-.22a.27.27,0,0,1-.22-.34l.11-.48a.29.29,0,0,1,.28-.23h.06l.94.21a7.25,7.25,0,0,1,.28-.78l-.85-.44a.29.29,0,0,1-.12-.39l.23-.44a.3.3,0,0,1,.26-.15.31.31,0,0,1,.13,0l.85.45a6.32,6.32,0,0,1,.47-.68l-.7-.65a.29.29,0,0,1,0-.41l.34-.36a.27.27,0,0,1,.21-.09.26.26,0,0,1,.19.07l.71.65a8,8,0,0,1,.63-.53l-.51-.81a.28.28,0,0,1,.09-.39l.42-.27a.29.29,0,0,1,.39.09l.52.81a6.41,6.41,0,0,1,.75-.35l-.29-.91a.29.29,0,0,1,.19-.36l.47-.15h.09a.29.29,0,0,1,.27.2l.29.91a7.21,7.21,0,0,1,.81-.14l0-1a.3.3,0,0,1,.28-.3l.49,0h0m.09,13.87h.23a5.39,5.39,0,0,0-.22-10.78h-.23a5.39,5.39,0,0,0,.22,10.77m-.09-14.49h0l-.5,0a.94.94,0,0,0-.84.67.88.88,0,0,0-.74-.38.86.86,0,0,0-.28,0l-.47.14a.93.93,0,0,0-.63.87.89.89,0,0,0-.59-.21,1,1,0,0,0-.49.14l-.41.26a.87.87,0,0,0-.4.57.89.89,0,0,0,0,.43,1,1,0,0,0-.38-.08.9.9,0,0,0-.67.29l-.33.36a.86.86,0,0,0-.24.66.73.73,0,0,0,.12.41h-.16a.91.91,0,0,0-.81.48l-.23.44a.93.93,0,0,0,.16,1.07.91.91,0,0,0-.81.71l-.11.47a1.12,1.12,0,0,1-.17,1.88l0,.5a.92.92,0,0,0,.68.84.9.9,0,0,0-.35,1l.15.48a.88.88,0,0,0,.86.63.9.9,0,0,0-.07,1.07l.26.42a.91.91,0,0,0,.77.43.85.85,0,0,0,.23,0,.83.83,0,0,0-.08.42.89.89,0,0,0,.29.63l.37.34a.9.9,0,0,0,.61.24.87.87,0,0,0,.45-.13,1,1,0,0,0,0,.43.87.87,0,0,0,.45.54l.44.23a.84.84,0,0,0,.42.1.9.9,0,0,0,.64-.26.91.91,0,0,0,.7.81l.49.11.2,0a.91.91,0,0,1,1.64.15l.53,0a.89.89,0,0,0,.63-.29,1,1,0,0,0,.21-.38.91.91,0,0,0,.74.39.86.86,0,0,0,.28,0l.47-.15a.89.89,0,0,0,.53-.44.91.91,0,0,0,.11-.42.86.86,0,0,0,.58.21,1,1,0,0,0,.49-.14l.42-.26a.91.91,0,0,0,.39-1,1,1,0,0,0,.38.08.93.93,0,0,0,.68-.3l.33-.35a.93.93,0,0,0,.12-1.07h.16a.9.9,0,0,0,.8-.49l.23-.44a.92.92,0,0,0-.16-1.06.89.89,0,0,0,.81-.71l.11-.48a.92.92,0,0,0-.43-1,.88.88,0,0,0,.36-.24.93.93,0,0,0,.24-.66l0-.49a1.12,1.12,0,0,1-.33-1.85l-.15-.48a.62.62,0,0,1-.67-1,.89.89,0,0,0-.12-.69l-.26-.42a.92.92,0,0,0-.77-.42.85.85,0,0,0-.23,0,.91.91,0,0,0-.21-1l-.37-.34a.9.9,0,0,0-.61-.24.87.87,0,0,0-.45.12.9.9,0,0,0-.47-1l-.44-.23a.9.9,0,0,0-.42-.1.77.77,0,0,1-1.35-.55l-.49-.11-.2,0a.91.91,0,0,1-1.64-.15Zm.09,13.87a4.77,4.77,0,0,1-.19-9.53h.2a4.77,4.77,0,0,1,.19,9.54Z" />
  <path class="GUNDAN_RED_PANDA_JEWELRY_GUNDAN_RED_PANDA_JEWELRY_7_cls-5" d="M230.68,410.84a4.59,4.59,0,0,1-.18-9.17h.19a4.58,4.58,0,0,1,.18,9.16Zm.1-2.39a.6.6,0,0,0-.57.62.59.59,0,1,0,.59-.62v-.31Zm-2.91-2.67a.59.59,0,1,0,.62.57.6.6,0,0,0-.62-.57v-.31Zm5.58-.23a.63.63,0,0,0-.41.19.56.56,0,0,0-.15.42.58.58,0,0,0,.58.57.66.66,0,0,0,.44-.19.6.6,0,0,0,.15-.42.59.59,0,0,0-.59-.57v-.31Zm-2.9-2.67a.59.59,0,0,0-.57.61.59.59,0,0,0,1.18-.05.59.59,0,0,0-.59-.56v-.31Z" />
  <path d="M230.69,402a4.27,4.27,0,0,1,.17,8.54h-.18a4.27,4.27,0,0,1-.17-8.54h.18m-.12,2.39h0a.9.9,0,0,0,0-1.79h0a.9.9,0,0,0,0,1.8m2.9,2.67h0a.9.9,0,0,0,0-1.8h0a.9.9,0,0,0,0,1.8m-5.57.23h0a.9.9,0,0,0,0-1.8h0a.9.9,0,0,0,0,1.8m2.9,2.67h0a.9.9,0,0,0,0-1.8h0a.9.9,0,0,0,0,1.8m-.11-8.58h-.21a4.89,4.89,0,0,0,.2,9.78h.21a4.89,4.89,0,0,0-.2-9.78Z" />
  <path class="GUNDAN_RED_PANDA_JEWELRY_GUNDAN_RED_PANDA_JEWELRY_7_cls-6" d="M122.75,219l-.1,0h-.09l-1.75-.45a.52.52,0,0,1-.38-.63l.36-1.4a7.28,7.28,0,0,1-1.19-.67l-1,1a.5.5,0,0,1-.37.16.54.54,0,0,1-.36-.14l-1.35-1.31a.52.52,0,0,1,0-.73l1-1-.3-.45q-.21-.35-.39-.72l-1.4.39-.14,0A.45.45,0,0,1,115,213a.52.52,0,0,1-.25-.31l-.51-1.8a.53.53,0,0,1,.36-.64l1.39-.39a7.83,7.83,0,0,1,0-1.37l-1.4-.36a.53.53,0,0,1-.38-.63l.46-1.81a.51.51,0,0,1,.51-.39h.13l1.39.36a8.77,8.77,0,0,1,.67-1.2l-1-1a.51.51,0,0,1-.15-.37.5.5,0,0,1,.14-.37l1.31-1.34a.55.55,0,0,1,.38-.15.51.51,0,0,1,.36.15l1,1c.17-.12.34-.23.53-.34s.43-.25.65-.36l-.39-1.39a.52.52,0,0,1,.36-.64l1.79-.51h.14a.58.58,0,0,1,.26.06.49.49,0,0,1,.24.31l.4,1.4a7.52,7.52,0,0,1,.82-.05l.55,0,.35-1.39a.52.52,0,0,1,.5-.39h.12l.57.14,1.25.32a.52.52,0,0,1,.38.63l-.36,1.4a7.83,7.83,0,0,1,1.2.67l1-1a.48.48,0,0,1,.36-.16h0a.49.49,0,0,1,.36.15l1.34,1.3a.52.52,0,0,1,0,.73l-1,1a7.34,7.34,0,0,1,.7,1.18l1.39-.4.14,0a.59.59,0,0,1,.26.07.55.55,0,0,1,.25.31l.5,1.8a.53.53,0,0,1-.36.65l-1.39.39a7.72,7.72,0,0,1,0,1.36l1.4.36a.52.52,0,0,1,.32.24.56.56,0,0,1,.06.4l-.47,1.8a.52.52,0,0,1-.51.4l-.13,0-1.39-.36a8.33,8.33,0,0,1-.67,1.2l1,1a.52.52,0,0,1,.16.37.51.51,0,0,1-.15.37l-1.3,1.34a.57.57,0,0,1-.37.16h0a.56.56,0,0,1-.37-.15l-1-1a7.24,7.24,0,0,1-1.17.7l.38,1.38a.52.52,0,0,1-.36.65L126,219a.32.32,0,0,1-.14,0,.51.51,0,0,1-.25-.06.54.54,0,0,1-.25-.32l-.4-1.39h0c-.15,0-.32,0-.5,0h-.31l-.52,0-.32,1.27,0,.14A.51.51,0,0,1,122.75,219Zm1.44-15.9a6.31,6.31,0,0,0-1.61.22A5.93,5.93,0,0,0,124.19,215h0a5.77,5.77,0,0,0,1.6-.22,6,6,0,0,0,4.33-5.82,6.41,6.41,0,0,0-.23-1.49A5.94,5.94,0,0,0,124.19,203.13Z" />
  <path d="M125.62,199.61l.57.13,1.24.32L127,201.9a7.48,7.48,0,0,1,1.87,1l1.32-1.36,1.33,1.3-1.32,1.36a7.07,7.07,0,0,1,1.1,1.84l1.22-.34.6-.17.51,1.79-1.82.52a7.32,7.32,0,0,1,0,2.14l1.84.47-.46,1.8-1.83-.47a7.88,7.88,0,0,1-1,1.88l1.35,1.31-1.3,1.34L129,215a7.3,7.3,0,0,1-1.85,1.1l.51,1.81-1.79.51-.52-1.82-.45.06c-.15,0-.31,0-.47,0h-.3a7,7,0,0,1-.92-.06l-.43,1.7,0,.12h-.08l-1.73-.44.46-1.84a8.18,8.18,0,0,1-1.87-1l-1.31,1.35-.66-.63-.68-.67,1.32-1.36a6.56,6.56,0,0,1-.54-.76,6.46,6.46,0,0,1-.55-1.08l-1.83.52-.5-1.8,1.82-.51a7.32,7.32,0,0,1,0-2.14l-1.84-.47.47-1.81,1.83.46a7.66,7.66,0,0,1,1-1.87l-1.36-1.32,1.31-1.33,1.34,1.31a8.47,8.47,0,0,1,.85-.58,7.82,7.82,0,0,1,1-.51l-.51-1.82,1.79-.5.52,1.82a8.08,8.08,0,0,1,1.2-.09,7.3,7.3,0,0,1,.94.06l.46-1.83m-1.44,15.89a6.59,6.59,0,0,0,1.75-.24,6.46,6.46,0,0,0,4.71-6.33,7,7,0,0,0-.25-1.62,6.44,6.44,0,0,0-6.2-4.7,6.59,6.59,0,0,0-1.75.24,6.45,6.45,0,0,0,1.74,12.65m1.44-16.93a1,1,0,0,0-1,.78l-.25,1h-.58l-.27-1a1.06,1.06,0,0,0-.5-.62,1,1,0,0,0-.51-.14,1.35,1.35,0,0,0-.28,0l-1.79.51a1,1,0,0,0-.72,1.29l.27,1-.3.16-.2.13-.73-.71a1,1,0,0,0-.72-.29,1.05,1.05,0,0,0-.75.31L116,202.35a1.09,1.09,0,0,0-.3.75,1.07,1.07,0,0,0,.32.73l.73.71c-.1.17-.19.34-.28.51l-1-.25a1.07,1.07,0,0,0-.25,0,1,1,0,0,0-1,.78l-.47,1.81a1.1,1.1,0,0,0,.12.79,1.07,1.07,0,0,0,.64.48l1,.25a5.61,5.61,0,0,0,0,.58l-1,.28a1,1,0,0,0-.72,1.28l.51,1.8a1,1,0,0,0,.49.63,1,1,0,0,0,.51.13,1,1,0,0,0,.29,0l1-.28c.07.14.14.26.22.39l.07.11-.71.73a1.05,1.05,0,0,0,0,1.48l.69.67.65.63a1.06,1.06,0,0,0,1.48,0l.7-.73.51.28-.25,1a1,1,0,0,0,.75,1.27l1.73.44h0l.09,0,.2,0a1,1,0,0,0,1-.76l0-.12.22-.89h.58l.28,1a1,1,0,0,0,1,.75.9.9,0,0,0,.28,0l1.8-.5a1.05,1.05,0,0,0,.72-1.29l-.28-1c.17-.1.34-.19.5-.3l.73.71a1,1,0,0,0,.73.3h0a1,1,0,0,0,.73-.32l1.31-1.34a1,1,0,0,0,.29-.74,1,1,0,0,0-.31-.73l-.73-.71c.1-.17.2-.34.29-.51l1,.25a.75.75,0,0,0,.26,0,1,1,0,0,0,1-.78l.47-1.81a1,1,0,0,0-.75-1.27l-1-.26c0-.19,0-.38,0-.58l1-.27a1.05,1.05,0,0,0,.72-1.29l-.5-1.79a1,1,0,0,0-.5-.63,1,1,0,0,0-.51-.14,1.35,1.35,0,0,0-.28,0l-.6.17-.38.11a5.09,5.09,0,0,0-.3-.5l.71-.73a1.05,1.05,0,0,0,0-1.48l-1.33-1.3a1.1,1.1,0,0,0-.73-.29h0a1,1,0,0,0-.73.32l-.71.72c-.16-.1-.33-.19-.51-.28l.25-1a1,1,0,0,0-.75-1.27l-1.25-.32-.58-.13-.24,0Zm-1.44,15.89a5.4,5.4,0,0,1-4.7-8.05,5.45,5.45,0,0,1,4.71-2.76,5.42,5.42,0,0,1,5.2,3.94,5.81,5.81,0,0,1,.2,1.36,5.41,5.41,0,0,1-3.94,5.31,5.6,5.6,0,0,1-1.47.2Z" />
  <circle class="GUNDAN_RED_PANDA_JEWELRY_GUNDAN_RED_PANDA_JEWELRY_7_cls-7" cx="124.19" cy="209.9" r="3.16" />
  <line class="GUNDAN_RED_PANDA_JEWELRY_GUNDAN_RED_PANDA_JEWELRY_7_cls-8" x1="124.19" y1="206.74" x2="124.19" y2="203.5" />
  <path class="GUNDAN_RED_PANDA_JEWELRY_GUNDAN_RED_PANDA_JEWELRY_7_cls-8" d="M126.18,174.65a6,6,0,0,1,1,6.43c-2.78,6.22-3,9.25-3,9.25V200.8" />
  <path class="GUNDAN_RED_PANDA_JEWELRY_GUNDAN_RED_PANDA_JEWELRY_7_cls-8" d="M125.16,175.91a3.48,3.48,0,0,1,2.89-2.08" />
  <path class="GUNDAN_RED_PANDA_JEWELRY_GUNDAN_RED_PANDA_JEWELRY_7_cls-8" d="M121.58,173.26s-3.17-.15-4.43,5.4" />
  <path class="GUNDAN_RED_PANDA_JEWELRY_GUNDAN_RED_PANDA_JEWELRY_7_cls-6" d="M329.27,215.25a.51.51,0,0,1-.5-.38l-.36-1.4-.52,0h-.33a4.38,4.38,0,0,1-.5,0h0l-.4,1.39a.51.51,0,0,1-.5.38l-.14,0-1.79-.51a.51.51,0,0,1-.36-.64l.38-1.38a8,8,0,0,1-1.17-.7l-1,1a.51.51,0,0,1-.37.15h0a.51.51,0,0,1-.37-.15l-1.3-1.34a.53.53,0,0,1-.15-.37.52.52,0,0,1,.16-.37l1-1a8.9,8.9,0,0,1-.67-1.2L319,209h-.13a.51.51,0,0,1-.5-.39l-.47-1.8a.55.55,0,0,1,.06-.4.49.49,0,0,1,.32-.24l1.4-.36a7.72,7.72,0,0,1,0-1.36l-1.39-.4a.52.52,0,0,1-.36-.64l.5-1.8a.55.55,0,0,1,.25-.31.48.48,0,0,1,.26-.07l.14,0,1.39.39a7.7,7.7,0,0,1,.7-1.17l-1-1a.56.56,0,0,1-.15-.37.52.52,0,0,1,.16-.36l1.34-1.3a.51.51,0,0,1,.36-.15h0a.52.52,0,0,1,.37.16l1,1a7.83,7.83,0,0,1,1.2-.67l-.36-1.4a.52.52,0,0,1,.38-.63l1.25-.32.57-.14h.12a.51.51,0,0,1,.5.39l.35,1.39.55,0c.27,0,.55,0,.82,0l.4-1.39a.49.49,0,0,1,.24-.31.59.59,0,0,1,.26-.07l.14,0,1.79.51a.52.52,0,0,1,.36.64l-.39,1.39c.22.11.44.22.65.35s.36.23.53.35l1-1a.5.5,0,0,1,.36-.14.55.55,0,0,1,.38.15l1.31,1.34a.54.54,0,0,1,.15.37.52.52,0,0,1-.16.36l-1,1a8.77,8.77,0,0,1,.67,1.2l1.4-.36h.12a.51.51,0,0,1,.51.39l.46,1.8a.53.53,0,0,1-.37.64l-1.41.36a7.72,7.72,0,0,1,0,1.36l1.39.4a.52.52,0,0,1,.36.64l-.51,1.8a.54.54,0,0,1-.5.38l-.14,0-1.4-.39q-.18.38-.39.72l-.3.45,1,1a.52.52,0,0,1,0,.73l-1.35,1.3a.51.51,0,0,1-.36.15.5.5,0,0,1-.37-.16l-1-1a8.11,8.11,0,0,1-1.19.67l.36,1.4a.52.52,0,0,1-.38.63l-1.73.44-.11,0Zm-1.44-15.89a5.93,5.93,0,0,0-5.7,4.32,5.84,5.84,0,0,0-.22,1.49,5.93,5.93,0,0,0,4.32,5.82,6.19,6.19,0,0,0,1.61.22,5.93,5.93,0,1,0,0-11.85Z" />
  <path d="M326.4,195.84l.46,1.82a7.3,7.3,0,0,1,.94-.06,8.09,8.09,0,0,1,1.2.1l.52-1.83,1.79.51-.51,1.82a7.82,7.82,0,0,1,1,.51,8.47,8.47,0,0,1,.85.58L334,198l1.31,1.33-1.36,1.32A7.48,7.48,0,0,1,335,202.5l1.83-.46.47,1.8-1.84.47a7.32,7.32,0,0,1,0,2.14l1.82.52-.5,1.8-1.83-.52a6.36,6.36,0,0,1-.55,1.07,5.91,5.91,0,0,1-.54.77l1.32,1.36-.68.67-.66.63-1.31-1.35a8.18,8.18,0,0,1-1.87,1l.46,1.83-1.73.45h-.08l0-.12-.43-1.7c-.3,0-.61.05-.92.05h-.3l-.47,0-.45,0-.52,1.82-1.79-.51.51-1.82a7.27,7.27,0,0,1-1.85-1.09l-1.35,1.32-1.3-1.34,1.35-1.31a7.88,7.88,0,0,1-1.05-1.88l-1.83.47-.46-1.8,1.84-.47a7.31,7.31,0,0,1,0-2.14l-1.82-.52.51-1.8.6.18,1.22.34a7.07,7.07,0,0,1,1.1-1.84l-1.32-1.36,1.33-1.3,1.32,1.35a7.45,7.45,0,0,1,1.87-1l-.46-1.84,1.24-.32.57-.13m1.44,15.89a6.45,6.45,0,0,0,1.74-12.65,6.59,6.59,0,0,0-1.75-.24,6.43,6.43,0,0,0-6.2,4.7,6.91,6.91,0,0,0-.25,1.61,6.48,6.48,0,0,0,4.71,6.34,6.59,6.59,0,0,0,1.75.24m-1.44-16.94-.24,0-.57.14-1.26.32a1,1,0,0,0-.75,1.27l.25,1a4.16,4.16,0,0,0-.51.28l-.71-.73a1,1,0,0,0-.73-.31h0a1.05,1.05,0,0,0-.73.29l-1.33,1.3a1.05,1.05,0,0,0,0,1.48l.71.73a5.09,5.09,0,0,0-.3.5l-.38-.11-.6-.17a.9.9,0,0,0-.28,0,1.1,1.1,0,0,0-.51.13,1.08,1.08,0,0,0-.5.63l-.5,1.8a1,1,0,0,0,.72,1.28l1,.28c0,.2,0,.39,0,.58l-1,.26a1,1,0,0,0-.64.48,1,1,0,0,0-.11.79l.47,1.8a1,1,0,0,0,1,.78,1.09,1.09,0,0,0,.26,0l1-.25c.09.17.19.34.29.51l-.73.7a1,1,0,0,0-.31.74,1,1,0,0,0,.29.74l1.31,1.34a1,1,0,0,0,.73.32h0a1,1,0,0,0,.73-.3l.73-.71.5.3-.28,1a1.06,1.06,0,0,0,.72,1.29l1.8.5a.9.9,0,0,0,.28,0,1,1,0,0,0,1-.76l.28-1H328l.21.85,0,.16a1,1,0,0,0,1,.75.68.68,0,0,0,.2,0h.14l1.73-.45a1,1,0,0,0,.75-1.26l-.25-1,.51-.28.7.73a1.05,1.05,0,0,0,.75.31,1.09,1.09,0,0,0,.73-.29l.65-.63.69-.67a1.05,1.05,0,0,0,0-1.48l-.71-.73.07-.12c.08-.12.15-.25.22-.38l1,.28a1,1,0,0,0,.29,0,1.17,1.17,0,0,0,.51-.13,1,1,0,0,0,.49-.63l.51-1.8a1.06,1.06,0,0,0-.72-1.29l-1-.27a5.61,5.61,0,0,0,0-.58l1-.26a1,1,0,0,0,.64-.48,1.08,1.08,0,0,0,.12-.79l-.47-1.8a1,1,0,0,0-1-.79.73.73,0,0,0-.25,0l-1,.25c-.09-.18-.18-.34-.28-.51l.73-.71a1.07,1.07,0,0,0,.32-.74,1.09,1.09,0,0,0-.3-.74l-1.31-1.33a1.06,1.06,0,0,0-.75-.32,1,1,0,0,0-.72.3l-.73.71-.2-.12-.3-.18.27-1a1,1,0,0,0-.72-1.28l-1.79-.51a.9.9,0,0,0-.28,0,1.14,1.14,0,0,0-.51.13,1.12,1.12,0,0,0-.5.63l-.27,1h-.58l-.25-1a1,1,0,0,0-1-.79Zm1.44,15.9a5.22,5.22,0,0,1-1.47-.21,5.39,5.39,0,0,1-3.94-5.3,6,6,0,0,1,.2-1.37,5.42,5.42,0,0,1,5.2-3.93,5.66,5.66,0,0,1,1.47.2,5.41,5.41,0,0,1,3.73,6.67,5.42,5.42,0,0,1-5.19,3.94Z" />
  <circle class="GUNDAN_RED_PANDA_JEWELRY_GUNDAN_RED_PANDA_JEWELRY_7_cls-7" cx="327.83" cy="206.13" r="3.16" />
  <line class="GUNDAN_RED_PANDA_JEWELRY_GUNDAN_RED_PANDA_JEWELRY_7_cls-8" x1="327.83" y1="202.97" x2="327.83" y2="199.73" />
  <path class="GUNDAN_RED_PANDA_JEWELRY_GUNDAN_RED_PANDA_JEWELRY_7_cls-8" d="M325.84,170.88a6,6,0,0,0-1,6.43c2.78,6.22,3,9.25,3,9.25V197" />
  <path class="GUNDAN_RED_PANDA_JEWELRY_GUNDAN_RED_PANDA_JEWELRY_7_cls-8" d="M326.86,172.14a3.46,3.46,0,0,0-2.89-2.08" />
  <path class="GUNDAN_RED_PANDA_JEWELRY_GUNDAN_RED_PANDA_JEWELRY_7_cls-8" d="M330.44,169.48s3.17-.15,4.43,5.41" />
</svg>