<svg id="jewelry" xmlns="http://www.w3.org/2000/svg" viewBox="0 0 432 432">
  <defs>
    <style>.GUNDAN_RED_PANDA_JEWELRY_GUNDAN_RED_PANDA_JEWELRY_14_cls-1{fill:#aeaeaf;}.GUNDAN_RED_PANDA_JEWELRY_GUNDAN_RED_PANDA_JEWELRY_14_cls-2{fill:#4a4a4a;}.GUNDAN_RED_PANDA_JEWELRY_GUNDAN_RED_PANDA_JEWELRY_14_cls-3{fill:#8b8b8b;}.GUNDAN_RED_PANDA_JEWELRY_GUNDAN_RED_PANDA_JEWELRY_14_cls-4,.GUNDAN_RED_PANDA_JEWELRY_GUNDAN_RED_PANDA_JEWELRY_14_cls-7{fill:none;stroke:#000;stroke-linecap:round;stroke-linejoin:round;}.GUNDAN_RED_PANDA_JEWELRY_GUNDAN_RED_PANDA_JEWELRY_14_cls-4{stroke-width:0.42px;}.GUNDAN_RED_PANDA_JEWELRY_GUNDAN_RED_PANDA_JEWELRY_14_cls-5{fill:#686868;}.GUNDAN_RED_PANDA_JEWELRY_GUNDAN_RED_PANDA_JEWELRY_14_cls-6{fill:#a1a1a1;}.GUNDAN_RED_PANDA_JEWELRY_GUNDAN_RED_PANDA_JEWELRY_14_cls-7{stroke-width:0.77px;}.GUNDAN_RED_PANDA_JEWELRY_GUNDAN_RED_PANDA_JEWELRY_14_cls-8{fill:#24123e;}.GUNDAN_RED_PANDA_JEWELRY_GUNDAN_RED_PANDA_JEWELRY_14_cls-9{fill:#593c82;}.GUNDAN_RED_PANDA_JEWELRY_GUNDAN_RED_PANDA_JEWELRY_14_cls-10{fill:#846aae;}</style>
  </defs>
  <path d="M178.9,303.69l.26-2.45a2.34,2.34,0,0,0-2.16,1.05" />
  <path class="GUNDAN_RED_PANDA_JEWELRY_GUNDAN_RED_PANDA_JEWELRY_14_cls-1" d="M208.82,333.17s-1.41-1.16-2.62-2h0a2,2,0,0,0,.52-.59,1.93,1.93,0,0,0,.25-.68,8.79,8.79,0,0,1,1.86,1.21c.23.22.41.41.55.57A2.33,2.33,0,0,0,208.82,333.17Z" />
  <path class="GUNDAN_RED_PANDA_JEWELRY_GUNDAN_RED_PANDA_JEWELRY_14_cls-1" d="M201.06,328.6c.29.53,2.44,2,3.72,1.78h0a.91.91,0,0,0,.73-.42,1.09,1.09,0,0,0,.19-.62h0s.56.24,1.23.58a1.93,1.93,0,0,1-.25.68,2,2,0,0,1-.52.59h0a3.35,3.35,0,0,1-3.36,0c-1.64-.79-2.88-1.76-2.92-2.89a2.37,2.37,0,0,1,.57-1.47,4,4,0,0,1,.55.7,1.07,1.07,0,0,0-.11.64A1.1,1.1,0,0,0,201.06,328.6Z" />
  <path class="GUNDAN_RED_PANDA_JEWELRY_GUNDAN_RED_PANDA_JEWELRY_14_cls-1" d="M180.12,307.09a.9.9,0,0,1-.28.5,1.4,1.4,0,0,1-1.45.39,1.15,1.15,0,0,1,.06-.43,1.06,1.06,0,0,1,.39-.52h0a3.67,3.67,0,0,0-.18-.86,2.37,2.37,0,0,0-1.16,1.06s-.29-.64-.69-1.43c0,0,0,0,0,0-.49-1.18-.37-3.32.91-3.88h0c1.3-.59,1.08,1.61,1.13,1.69a7.31,7.31,0,0,1,1.15,2.26A2.37,2.37,0,0,1,180.12,307.09Z" />
  <path class="GUNDAN_RED_PANDA_JEWELRY_GUNDAN_RED_PANDA_JEWELRY_14_cls-2" d="M180.12,307.09a2.37,2.37,0,0,0-.14-1.25,6.22,6.22,0,0,1,2.94,2.45,4.41,4.41,0,0,1,.61,2l-.14-.12a2.7,2.7,0,0,0-1.23-.64A5.09,5.09,0,0,0,180.12,307.09Z" />
  <path class="GUNDAN_RED_PANDA_JEWELRY_GUNDAN_RED_PANDA_JEWELRY_14_cls-1" d="M177.49,307.22a2.33,2.33,0,0,1,1.16-1.06,3.67,3.67,0,0,1,.18.86h0a1.06,1.06,0,0,0-.39.53,1.09,1.09,0,0,0-.06.42,5.85,5.85,0,0,0,2.12,3.06,1.16,1.16,0,0,0,1.26.15,1.34,1.34,0,0,0,.35-.31c.11.07.56.38,1.08.79a2.13,2.13,0,0,1-.63.64,1.84,1.84,0,0,1-.61.27,3.23,3.23,0,0,1-3.15-1.46C177.69,309.67,177,308.24,177.49,307.22Z" />
  <path class="GUNDAN_RED_PANDA_JEWELRY_GUNDAN_RED_PANDA_JEWELRY_14_cls-1" d="M182,312.57a1.84,1.84,0,0,0,.61-.27,2.13,2.13,0,0,0,.63-.64h0a8.7,8.7,0,0,1,1.6,1.53l.44.66a2.28,2.28,0,0,0-.85,1.32h0A30.79,30.79,0,0,0,182,312.57Z" />
  <path class="GUNDAN_RED_PANDA_JEWELRY_GUNDAN_RED_PANDA_JEWELRY_14_cls-3" d="M181.77,311.18a1.16,1.16,0,0,1-1.26-.15.83.83,0,0,1,0-.75,1.52,1.52,0,0,1,1.62-.77,2.7,2.7,0,0,1,1.23.64l.14.12h0a16,16,0,0,1,2.91,2.91,2.53,2.53,0,0,1,.47,1.15,1,1,0,0,1-.15.56,1.38,1.38,0,0,1-1.3.76,1,1,0,0,1,0-.42,1.08,1.08,0,0,1,.22-.61h0a4,4,0,0,0-.4-.77l-.44-.66a8.7,8.7,0,0,0-1.6-1.53h0c-.52-.41-1-.72-1.08-.79A1.34,1.34,0,0,1,181.77,311.18Z" />
  <path class="GUNDAN_RED_PANDA_JEWELRY_GUNDAN_RED_PANDA_JEWELRY_14_cls-2" d="M194.17,321.22a2.21,2.21,0,0,0-.37-1.19h0a6.18,6.18,0,0,1,3.35,1.83,4.51,4.51,0,0,1,1,1.83l-.16-.09a2.72,2.72,0,0,0-1.33-.4A5.15,5.15,0,0,0,194.17,321.22Z" />
  <path class="GUNDAN_RED_PANDA_JEWELRY_GUNDAN_RED_PANDA_JEWELRY_14_cls-2" d="M189.39,316a5.19,5.19,0,0,0-2.48-1.64,2.53,2.53,0,0,0-.47-1.15,6,6,0,0,1,3.47,1.57,3.94,3.94,0,0,1,1.21,2.13l-.12-.11A2.31,2.31,0,0,0,189.39,316Z" />
  <path class="GUNDAN_RED_PANDA_JEWELRY_GUNDAN_RED_PANDA_JEWELRY_14_cls-1" d="M189.63,319.33a3.56,3.56,0,0,1-2.93-.76c-1.46-1.09-2.48-2.28-2.31-3.4a2.28,2.28,0,0,1,.85-1.32,4,4,0,0,1,.4.77h0a1.08,1.08,0,0,0-.22.61,1,1,0,0,0,0,.42,5.87,5.87,0,0,0,3,2.42h0a1.1,1.1,0,0,0,1.13-.24,1,1,0,0,0,.24-.36c.21.18.62.52,1.05.92h0a3.15,3.15,0,0,1-.22.29A1.93,1.93,0,0,1,189.63,319.33Z" />
  <path class="GUNDAN_RED_PANDA_JEWELRY_GUNDAN_RED_PANDA_JEWELRY_14_cls-3" d="M188.45,318.09h0c-.41-.49-.57-1-.29-1.4a1.55,1.55,0,0,1,1.24-.7,2.31,2.31,0,0,1,1.61.8l.12.11h0A16.27,16.27,0,0,1,193.8,320h0a2.21,2.21,0,0,1,.37,1.19h0a.86.86,0,0,1-.18.54,1.38,1.38,0,0,1-1.35.66,1.06,1.06,0,0,1,0-.43,1.16,1.16,0,0,1,.28-.59,3.71,3.71,0,0,0-.35-.81c-.1-.2-.23-.42-.38-.69a7.87,7.87,0,0,0-1.3-1.49c-.43-.4-.84-.74-1.05-.92a1,1,0,0,1-.24.36A1.1,1.1,0,0,1,188.45,318.09Z" />
  <path class="GUNDAN_RED_PANDA_JEWELRY_GUNDAN_RED_PANDA_JEWELRY_14_cls-1" d="M190.87,318.41a7.87,7.87,0,0,1,1.3,1.49c.15.27.28.49.38.69a2.34,2.34,0,0,0-.94,1.26s-1-1.43-2-2.52a1.93,1.93,0,0,0,1-.62,3.15,3.15,0,0,0,.22-.29Z" />
  <path class="GUNDAN_RED_PANDA_JEWELRY_GUNDAN_RED_PANDA_JEWELRY_14_cls-1" d="M192.64,322.42a5.84,5.84,0,0,0,2.67,2.6,1.15,1.15,0,0,0,1.27-.1,1.1,1.1,0,0,0,.28-.38c.12,0,.62.26,1.21.57a2.23,2.23,0,0,1-.5.76,1.84,1.84,0,0,1-.55.37,3.19,3.19,0,0,1-3.36-.82c-1.38-1.2-2.3-2.47-2-3.57a2.34,2.34,0,0,1,.94-1.26,3.71,3.71,0,0,1,.35.81,1.16,1.16,0,0,0-.28.59A1.06,1.06,0,0,0,192.64,322.42Z" />
  <path class="GUNDAN_RED_PANDA_JEWELRY_GUNDAN_RED_PANDA_JEWELRY_14_cls-1" d="M199.94,326.3l.55.56h0a2.37,2.37,0,0,0-.57,1.47h0a31.07,31.07,0,0,0-2.89-2.08h0a1.84,1.84,0,0,0,.55-.37,2.23,2.23,0,0,0,.5-.76A8.33,8.33,0,0,1,199.94,326.3Z" />
  <path class="GUNDAN_RED_PANDA_JEWELRY_GUNDAN_RED_PANDA_JEWELRY_14_cls-3" d="M200.49,326.86l-.55-.56a8.33,8.33,0,0,0-1.87-1.19c-.59-.31-1.09-.52-1.21-.57a1.1,1.1,0,0,1-.28.38,1.15,1.15,0,0,1-1.27.1.83.83,0,0,1-.11-.75,1.52,1.52,0,0,1,1.44-1.07,2.72,2.72,0,0,1,1.33.4l.16.09a24.13,24.13,0,0,1,3.41,2.3l.62.85.06.2a1,1,0,0,1,0,.57,1.36,1.36,0,0,1-1.13,1,1.1,1.1,0,0,1-.13-.4,1.07,1.07,0,0,1,.11-.64,4,4,0,0,0-.55-.7Z" />
  <path class="GUNDAN_RED_PANDA_JEWELRY_GUNDAN_RED_PANDA_JEWELRY_14_cls-2" d="M205,328.15a5.09,5.09,0,0,0-2.75-1.11l-.06-.2-.62-.85a6.1,6.1,0,0,1,3.71.87,4.6,4.6,0,0,1,1.4,1.43,2.12,2.12,0,0,0-1.5-.21A1,1,0,0,0,205,328.15Z" />
  <path class="GUNDAN_RED_PANDA_JEWELRY_GUNDAN_RED_PANDA_JEWELRY_14_cls-3" d="M204.78,330.35c-.52-.37-.81-.77-.64-1.28a1.52,1.52,0,0,1,.83-.92,1,1,0,0,1,.18-.07,2.12,2.12,0,0,1,1.5.21l.25.13.15.09h0a16.92,16.92,0,0,1,3.4,2.32h0a2.41,2.41,0,0,1,.68,1.05,1,1,0,0,1,0,.57,1.41,1.41,0,0,1-1.14,1,1,1,0,0,1-.12-.41,1.07,1.07,0,0,1,.11-.64h0a4.26,4.26,0,0,0-.55-.69c-.14-.16-.32-.35-.55-.57a8.79,8.79,0,0,0-1.86-1.21c-.67-.34-1.23-.58-1.23-.58h0a1.09,1.09,0,0,1-.19.62.91.91,0,0,1-.73.42v0Z" />
  <path class="GUNDAN_RED_PANDA_JEWELRY_GUNDAN_RED_PANDA_JEWELRY_14_cls-2" d="M214.17,331.74a4.34,4.34,0,0,1,1.42,1.5l-.17,0a2.65,2.65,0,0,0-1.39,0,5.23,5.23,0,0,0-2.89-1.27,2.41,2.41,0,0,0-.68-1.05A6,6,0,0,1,214.17,331.74Z" />
  <path class="GUNDAN_RED_PANDA_JEWELRY_GUNDAN_RED_PANDA_JEWELRY_14_cls-1" d="M215.2,336a3.25,3.25,0,0,1-3.48.08c-1.64-.8-2.86-1.78-2.89-2.91h0a2.33,2.33,0,0,1,.58-1.46,4.26,4.26,0,0,1,.55.69h0a1.07,1.07,0,0,0-.11.64,1,1,0,0,0,.12.41,5.84,5.84,0,0,0,3.26,1.81,1.14,1.14,0,0,0,1.2-.43,1.17,1.17,0,0,0,.17-.43c.14,0,.68.09,1.32.23a2.18,2.18,0,0,1-.28.86,2.33,2.33,0,0,1-.43.51Z" />
  <path class="GUNDAN_RED_PANDA_JEWELRY_GUNDAN_RED_PANDA_JEWELRY_14_cls-1" d="M218.53,337.26A31.62,31.62,0,0,0,215.2,336a2.33,2.33,0,0,0,.43-.51,2.18,2.18,0,0,0,.28-.86,8.57,8.57,0,0,1,2.11.67,7.42,7.42,0,0,1,.68.39A2.4,2.4,0,0,0,218.53,337.26Z" />
  <path class="GUNDAN_RED_PANDA_JEWELRY_GUNDAN_RED_PANDA_JEWELRY_14_cls-3" d="M213.22,335.26a.8.8,0,0,1-.3-.69,1.52,1.52,0,0,1,1.11-1.41,2.65,2.65,0,0,1,1.39,0l.17,0h0a17.55,17.55,0,0,1,3.89,1.33,2.45,2.45,0,0,1,.92.84.86.86,0,0,1,.12.56,1.37,1.37,0,0,1-.83,1.25,1,1,0,0,1-.22-.35,1.08,1.08,0,0,1-.07-.65h0a4.08,4.08,0,0,0-.71-.52,7.42,7.42,0,0,0-.68-.39,8.57,8.57,0,0,0-2.11-.67c-.64-.14-1.18-.21-1.32-.23a1.17,1.17,0,0,1-.17.43A1.14,1.14,0,0,1,213.22,335.26Z" />
  <path class="GUNDAN_RED_PANDA_JEWELRY_GUNDAN_RED_PANDA_JEWELRY_14_cls-3" d="M218.7,335.69a4.08,4.08,0,0,1,.71.52h0a1.08,1.08,0,0,0,.07.65,1,1,0,0,0,.22.35c.52.55,4.18,1.67,4.67.15.54-1.72-2.89-2.29-4-2a2.45,2.45,0,0,0-.92-.84,6.12,6.12,0,0,1,3.81-.12c1.9.65,2.74,2,2.41,3.22s-1.81,1.94-3.6,1.61-3.24-.94-3.58-2h0A2.4,2.4,0,0,1,218.7,335.69Z" />
  <path class="GUNDAN_RED_PANDA_JEWELRY_GUNDAN_RED_PANDA_JEWELRY_14_cls-4" d="M178.83,307a3.67,3.67,0,0,0-.18-.86c-.06-.2-.14-.46-.24-.75a7.29,7.29,0,0,0-.91-1.59" />
  <path class="GUNDAN_RED_PANDA_JEWELRY_GUNDAN_RED_PANDA_JEWELRY_14_cls-4" d="M177.49,307.22s-.29-.64-.69-1.43c0,0,0,0,0,0" />
  <path class="GUNDAN_RED_PANDA_JEWELRY_GUNDAN_RED_PANDA_JEWELRY_14_cls-4" d="M177.7,301.89l1.19-.41c.05.07-.16,2.08-.11,2.16a6.13,6.13,0,0,1,1.2,2.2,2.37,2.37,0,0,1,.14,1.25.9.9,0,0,1-.28.5,1.4,1.4,0,0,1-1.45.39" />
  <path class="GUNDAN_RED_PANDA_JEWELRY_GUNDAN_RED_PANDA_JEWELRY_14_cls-4" d="M178.84,307a1.06,1.06,0,0,0-.39.53,1.09,1.09,0,0,0-.06.42,5.85,5.85,0,0,0,2.12,3.06,1.16,1.16,0,0,0,1.26.15,1.34,1.34,0,0,0,.35-.31" />
  <path class="GUNDAN_RED_PANDA_JEWELRY_GUNDAN_RED_PANDA_JEWELRY_14_cls-4" d="M182.16,309.51a5.09,5.09,0,0,0-2-2.42" />
  <path class="GUNDAN_RED_PANDA_JEWELRY_GUNDAN_RED_PANDA_JEWELRY_14_cls-4" d="M183.2,311.66a2.13,2.13,0,0,1-.63.64,1.84,1.84,0,0,1-.61.27,3.23,3.23,0,0,1-3.15-1.46c-1.12-1.44-1.78-2.87-1.32-3.89a2.33,2.33,0,0,1,1.16-1.06h0" />
  <path class="GUNDAN_RED_PANDA_JEWELRY_GUNDAN_RED_PANDA_JEWELRY_14_cls-4" d="M183.53,310.27a4.41,4.41,0,0,0-.61-2,6.22,6.22,0,0,0-2.94-2.45" />
  <path class="GUNDAN_RED_PANDA_JEWELRY_GUNDAN_RED_PANDA_JEWELRY_14_cls-4" d="M185.64,314.62a4,4,0,0,0-.4-.77l-.44-.66a8.7,8.7,0,0,0-1.6-1.53h0c-.52-.41-1-.72-1.08-.79l0,0" />
  <path class="GUNDAN_RED_PANDA_JEWELRY_GUNDAN_RED_PANDA_JEWELRY_14_cls-4" d="M184.39,315.18a30.79,30.79,0,0,0-2.43-2.61" />
  <path class="GUNDAN_RED_PANDA_JEWELRY_GUNDAN_RED_PANDA_JEWELRY_14_cls-4" d="M180.51,311a.83.83,0,0,1,0-.75,1.52,1.52,0,0,1,1.62-.77,2.7,2.7,0,0,1,1.23.64l.14.12h0a16,16,0,0,1,2.91,2.91,2.53,2.53,0,0,1,.47,1.15,1,1,0,0,1-.15.56,1.38,1.38,0,0,1-1.3.76" />
  <path class="GUNDAN_RED_PANDA_JEWELRY_GUNDAN_RED_PANDA_JEWELRY_14_cls-4" d="M188.45,318.09a1.1,1.1,0,0,0,1.13-.24,1,1,0,0,0,.24-.36" />
  <path class="GUNDAN_RED_PANDA_JEWELRY_GUNDAN_RED_PANDA_JEWELRY_14_cls-4" d="M185.64,314.63a1.08,1.08,0,0,0-.22.61,1,1,0,0,0,0,.42,5.87,5.87,0,0,0,3,2.42" />
  <path class="GUNDAN_RED_PANDA_JEWELRY_GUNDAN_RED_PANDA_JEWELRY_14_cls-4" d="M189.39,316a5.19,5.19,0,0,0-2.48-1.64h0" />
  <path class="GUNDAN_RED_PANDA_JEWELRY_GUNDAN_RED_PANDA_JEWELRY_14_cls-4" d="M185.24,313.84h0a2.28,2.28,0,0,0-.85,1.32c-.17,1.12.85,2.31,2.31,3.4a3.56,3.56,0,0,0,2.93.76,1.93,1.93,0,0,0,1-.62,3.15,3.15,0,0,0,.22-.29" />
  <path class="GUNDAN_RED_PANDA_JEWELRY_GUNDAN_RED_PANDA_JEWELRY_14_cls-4" d="M191.12,316.89a3.94,3.94,0,0,0-1.21-2.13,6,6,0,0,0-3.47-1.57h0" />
  <path class="GUNDAN_RED_PANDA_JEWELRY_GUNDAN_RED_PANDA_JEWELRY_14_cls-4" d="M192.9,321.4a3.71,3.71,0,0,0-.35-.81c-.1-.2-.23-.42-.38-.69a7.87,7.87,0,0,0-1.3-1.49c-.43-.4-.84-.74-1.05-.92l-.17-.13" />
  <path class="GUNDAN_RED_PANDA_JEWELRY_GUNDAN_RED_PANDA_JEWELRY_14_cls-4" d="M191.61,321.85s-1-1.43-2-2.52" />
  <path class="GUNDAN_RED_PANDA_JEWELRY_GUNDAN_RED_PANDA_JEWELRY_14_cls-4" d="M188.45,318.09h0c-.41-.49-.57-1-.29-1.4a1.55,1.55,0,0,1,1.24-.7,2.31,2.31,0,0,1,1.61.8l.12.11h0A16.27,16.27,0,0,1,193.8,320h0a2.21,2.21,0,0,1,.37,1.19h0a.86.86,0,0,1-.18.54,1.38,1.38,0,0,1-1.35.66h0" />
  <path class="GUNDAN_RED_PANDA_JEWELRY_GUNDAN_RED_PANDA_JEWELRY_14_cls-4" d="M192.9,321.4a1.16,1.16,0,0,0-.28.59,1.06,1.06,0,0,0,0,.43,5.84,5.84,0,0,0,2.67,2.6,1.15,1.15,0,0,0,1.27-.1,1.1,1.1,0,0,0,.28-.38" />
  <path class="GUNDAN_RED_PANDA_JEWELRY_GUNDAN_RED_PANDA_JEWELRY_14_cls-4" d="M196.64,323.2a5.15,5.15,0,0,0-2.47-2" />
  <path class="GUNDAN_RED_PANDA_JEWELRY_GUNDAN_RED_PANDA_JEWELRY_14_cls-4" d="M198.07,325.11a2.23,2.23,0,0,1-.5.76,1.84,1.84,0,0,1-.55.37,3.19,3.19,0,0,1-3.36-.82c-1.38-1.2-2.3-2.47-2-3.57a2.34,2.34,0,0,1,.94-1.26h0" />
  <path class="GUNDAN_RED_PANDA_JEWELRY_GUNDAN_RED_PANDA_JEWELRY_14_cls-4" d="M198.13,323.69a4.51,4.51,0,0,0-1-1.83A6.18,6.18,0,0,0,193.8,320" />
  <path class="GUNDAN_RED_PANDA_JEWELRY_GUNDAN_RED_PANDA_JEWELRY_14_cls-4" d="M200.49,326.86l-.55-.56a8.33,8.33,0,0,0-1.87-1.19c-.59-.31-1.09-.52-1.21-.57h0" />
  <path class="GUNDAN_RED_PANDA_JEWELRY_GUNDAN_RED_PANDA_JEWELRY_14_cls-4" d="M201,327.56a4,4,0,0,0-.55-.7" />
  <path class="GUNDAN_RED_PANDA_JEWELRY_GUNDAN_RED_PANDA_JEWELRY_14_cls-4" d="M199.92,328.33a31.07,31.07,0,0,0-2.89-2.08" />
  <path class="GUNDAN_RED_PANDA_JEWELRY_GUNDAN_RED_PANDA_JEWELRY_14_cls-4" d="M195.31,325a.83.83,0,0,1-.11-.75,1.52,1.52,0,0,1,1.44-1.07,2.72,2.72,0,0,1,1.33.4l.16.09a24.13,24.13,0,0,1,3.41,2.3l.62.85.06.2a1,1,0,0,1,0,.57,1.36,1.36,0,0,1-1.13,1" />
  <path class="GUNDAN_RED_PANDA_JEWELRY_GUNDAN_RED_PANDA_JEWELRY_14_cls-4" d="M202.22,327h0a5.09,5.09,0,0,1,2.75,1.11" />
  <path class="GUNDAN_RED_PANDA_JEWELRY_GUNDAN_RED_PANDA_JEWELRY_14_cls-4" d="M205.71,329.34a1.09,1.09,0,0,1-.19.62.91.91,0,0,1-.73.42h0c-1.28.18-3.43-1.25-3.72-1.78a1.1,1.1,0,0,1-.13-.4,1.07,1.07,0,0,1,.11-.64" />
  <path class="GUNDAN_RED_PANDA_JEWELRY_GUNDAN_RED_PANDA_JEWELRY_14_cls-4" d="M201.54,326h0a6.1,6.1,0,0,1,3.71.87,4.6,4.6,0,0,1,1.4,1.43" />
  <path class="GUNDAN_RED_PANDA_JEWELRY_GUNDAN_RED_PANDA_JEWELRY_14_cls-4" d="M207,329.93a1.93,1.93,0,0,1-.25.68,2,2,0,0,1-.52.59h0a3.35,3.35,0,0,1-3.36,0c-1.64-.79-2.88-1.76-2.92-2.89a2.37,2.37,0,0,1,.57-1.47h0" />
  <path class="GUNDAN_RED_PANDA_JEWELRY_GUNDAN_RED_PANDA_JEWELRY_14_cls-4" d="M205.76,329.35s.56.24,1.23.58a8.79,8.79,0,0,1,1.86,1.21c.23.22.41.41.55.57a4.26,4.26,0,0,1,.55.69" />
  <path class="GUNDAN_RED_PANDA_JEWELRY_GUNDAN_RED_PANDA_JEWELRY_14_cls-4" d="M208.82,333.17s-1.41-1.16-2.62-2" />
  <path class="GUNDAN_RED_PANDA_JEWELRY_GUNDAN_RED_PANDA_JEWELRY_14_cls-4" d="M210,333.45h0a1.41,1.41,0,0,0,1.14-1,1,1,0,0,0,0-.57,2.41,2.41,0,0,0-.68-1.05h0a16.92,16.92,0,0,0-3.4-2.32h0l-.15-.09-.25-.13a2.12,2.12,0,0,0-1.5-.21,1,1,0,0,0-.18.07,1.52,1.52,0,0,0-.83.92c-.17.51.12.91.64,1.28h0" />
  <path class="GUNDAN_RED_PANDA_JEWELRY_GUNDAN_RED_PANDA_JEWELRY_14_cls-4" d="M210,332.4a1.07,1.07,0,0,0-.11.64,1,1,0,0,0,.12.41,5.84,5.84,0,0,0,3.26,1.81,1.14,1.14,0,0,0,1.2-.43,1.17,1.17,0,0,0,.17-.43" />
  <path class="GUNDAN_RED_PANDA_JEWELRY_GUNDAN_RED_PANDA_JEWELRY_14_cls-4" d="M214,333.16a5.23,5.23,0,0,0-2.89-1.27h0" />
  <path class="GUNDAN_RED_PANDA_JEWELRY_GUNDAN_RED_PANDA_JEWELRY_14_cls-4" d="M215.2,336a3.25,3.25,0,0,1-3.48.08c-1.64-.8-2.86-1.78-2.89-2.91h0a2.33,2.33,0,0,1,.58-1.46h0" />
  <path class="GUNDAN_RED_PANDA_JEWELRY_GUNDAN_RED_PANDA_JEWELRY_14_cls-4" d="M215.91,334.63a2.18,2.18,0,0,1-.28.86,2.33,2.33,0,0,1-.43.51" />
  <path class="GUNDAN_RED_PANDA_JEWELRY_GUNDAN_RED_PANDA_JEWELRY_14_cls-4" d="M215.59,333.24a4.34,4.34,0,0,0-1.42-1.5,6,6,0,0,0-3.71-.9h0" />
  <path class="GUNDAN_RED_PANDA_JEWELRY_GUNDAN_RED_PANDA_JEWELRY_14_cls-4" d="M219.41,336.21a4.08,4.08,0,0,0-.71-.52,7.42,7.42,0,0,0-.68-.39,8.57,8.57,0,0,0-2.11-.67c-.64-.14-1.18-.21-1.32-.23h0" />
  <path class="GUNDAN_RED_PANDA_JEWELRY_GUNDAN_RED_PANDA_JEWELRY_14_cls-4" d="M218.53,337.26A31.62,31.62,0,0,0,215.2,336h0" />
  <path class="GUNDAN_RED_PANDA_JEWELRY_GUNDAN_RED_PANDA_JEWELRY_14_cls-4" d="M213.22,335.26a.8.8,0,0,1-.3-.69,1.52,1.52,0,0,1,1.11-1.41,2.65,2.65,0,0,1,1.39,0l.17,0h0a17.55,17.55,0,0,1,3.89,1.33,2.45,2.45,0,0,1,.92.84.86.86,0,0,1,.12.56,1.37,1.37,0,0,1-.83,1.25" />
  <path class="GUNDAN_RED_PANDA_JEWELRY_GUNDAN_RED_PANDA_JEWELRY_14_cls-4" d="M220.41,335.41c1.07-.33,4.5.24,4,2-.49,1.52-4.15.4-4.67-.15a1,1,0,0,1-.22-.35,1.08,1.08,0,0,1-.07-.65" />
  <path class="GUNDAN_RED_PANDA_JEWELRY_GUNDAN_RED_PANDA_JEWELRY_14_cls-4" d="M219.48,334.58h0a6.12,6.12,0,0,1,3.81-.12c1.9.65,2.74,2,2.41,3.22s-1.81,1.94-3.6,1.61-3.24-.94-3.58-2h0a2.4,2.4,0,0,1,.17-1.57" />
  <path class="GUNDAN_RED_PANDA_JEWELRY_GUNDAN_RED_PANDA_JEWELRY_14_cls-4" d="M177.7,301.89h0c-1.28.56-1.4,2.7-.91,3.88,0,0,0,0,0,0" />
  <path d="M275.64,305.82l-.94-2.27a2.35,2.35,0,0,1,2.37.38" />
  <path class="GUNDAN_RED_PANDA_JEWELRY_GUNDAN_RED_PANDA_JEWELRY_14_cls-1" d="M275.44,309.43a.93.93,0,0,0,.41.4,1.38,1.38,0,0,0,1.5,0,1.13,1.13,0,0,0-.18-.4,1.11,1.11,0,0,0-.52-.39h0a4.51,4.51,0,0,1-.07-.88,2.33,2.33,0,0,1,1.42.69s.1-.7.25-1.57v0c.13-1.27-.58-3.29-2-3.46h0c-1.41-.21-.57,1.84-.6,1.93a7.6,7.6,0,0,0-.47,2.5A2.34,2.34,0,0,0,275.44,309.43Z" />
  <path class="GUNDAN_RED_PANDA_JEWELRY_GUNDAN_RED_PANDA_JEWELRY_14_cls-2" d="M275.44,309.42a2.28,2.28,0,0,1-.22-1.23,6.19,6.19,0,0,0-2.13,3.18,4.54,4.54,0,0,0,0,2.07c.05-.05.07-.11.11-.15a2.73,2.73,0,0,1,1-1A5.11,5.11,0,0,1,275.44,309.42Z" />
  <path class="GUNDAN_RED_PANDA_JEWELRY_GUNDAN_RED_PANDA_JEWELRY_14_cls-1" d="M278,308.8a2.4,2.4,0,0,0-1.42-.68,3.48,3.48,0,0,0,.07.87h0a1.09,1.09,0,0,1,.52.4,1,1,0,0,1,.18.38,5.92,5.92,0,0,1-1.17,3.54,1.17,1.17,0,0,1-1.17.5,1.44,1.44,0,0,1-.43-.21c-.08.11-.43.54-.8,1.07a2.14,2.14,0,0,0,.78.44,2.5,2.5,0,0,0,.66.09,3.23,3.23,0,0,0,2.6-2.3C278.5,311.21,278.73,309.66,278,308.8Z" />
  <path class="GUNDAN_RED_PANDA_JEWELRY_GUNDAN_RED_PANDA_JEWELRY_14_cls-1" d="M275.22,315.21a2.5,2.5,0,0,1-.66-.09,2.14,2.14,0,0,1-.78-.44h0a8.19,8.19,0,0,0-1.09,1.92c-.11.3-.18.55-.24.75a2.29,2.29,0,0,1,1.18,1h0A30.34,30.34,0,0,1,275.22,315.21Z" />
  <path class="GUNDAN_RED_PANDA_JEWELRY_GUNDAN_RED_PANDA_JEWELRY_14_cls-3" d="M275,313.82a1.17,1.17,0,0,0,1.17-.5.83.83,0,0,0-.25-.72,1.54,1.54,0,0,0-1.77-.28,2.73,2.73,0,0,0-1,1s-.06.1-.11.15h0a16.38,16.38,0,0,0-2,3.62,2.27,2.27,0,0,0-.12,1.23,1,1,0,0,0,.3.5,1.37,1.37,0,0,0,1.46.35,1,1,0,0,0-.08-.41,1,1,0,0,0-.39-.52h0a3.86,3.86,0,0,1,.17-.86c.06-.2.13-.45.24-.75a8.19,8.19,0,0,1,1.09-1.92h0c.37-.53.72-1,.8-1.07A1.44,1.44,0,0,0,275,313.82Z" />
  <path class="GUNDAN_RED_PANDA_JEWELRY_GUNDAN_RED_PANDA_JEWELRY_14_cls-2" d="M266,327a2.28,2.28,0,0,1,0-1.24h0a6.22,6.22,0,0,0-2.7,2.71,4.59,4.59,0,0,0-.43,2l.13-.13a2.7,2.7,0,0,1,1.17-.76A5.21,5.21,0,0,1,266,327Z" />
  <path class="GUNDAN_RED_PANDA_JEWELRY_GUNDAN_RED_PANDA_JEWELRY_14_cls-2" d="M269.06,320.57A5.18,5.18,0,0,1,271,318.3a2.27,2.27,0,0,1,.12-1.23,6.07,6.07,0,0,0-2.89,2.48,3.9,3.9,0,0,0-.55,2.39c0-.06.06-.1.08-.15A2.34,2.34,0,0,1,269.06,320.57Z" />
  <path class="GUNDAN_RED_PANDA_JEWELRY_GUNDAN_RED_PANDA_JEWELRY_14_cls-1" d="M269.77,323.86a3.6,3.6,0,0,0,2.6-1.56c1.09-1.46,1.73-2.89,1.25-3.91a2.29,2.29,0,0,0-1.18-1,3.86,3.86,0,0,0-.17.86h0a1,1,0,0,1,.39.52,1,1,0,0,1,.08.41,5.86,5.86,0,0,1-2.18,3.17h0a1.12,1.12,0,0,1-1.16.09.87.87,0,0,1-.32-.27c-.16.22-.45.67-.75,1.18h0a3.06,3.06,0,0,0,.29.21A2,2,0,0,0,269.77,323.86Z" />
  <path class="GUNDAN_RED_PANDA_JEWELRY_GUNDAN_RED_PANDA_JEWELRY_14_cls-3" d="M270.56,322.33h0c.25-.59.28-1.08-.12-1.43a1.56,1.56,0,0,0-1.38-.32,2.34,2.34,0,0,0-1.32,1.22s-.06.09-.08.15h0A15.71,15.71,0,0,0,266,325.7h0a2.28,2.28,0,0,0,0,1.24h0a1,1,0,0,0,.33.46,1.36,1.36,0,0,0,1.48.25,1,1,0,0,0-.1-.41,1.15,1.15,0,0,0-.43-.49,3.86,3.86,0,0,1,.1-.88c0-.22.1-.47.17-.77a7.67,7.67,0,0,1,.83-1.79c.3-.51.59-1,.75-1.18a.87.87,0,0,0,.32.27A1.12,1.12,0,0,0,270.56,322.33Z" />
  <path class="GUNDAN_RED_PANDA_JEWELRY_GUNDAN_RED_PANDA_JEWELRY_14_cls-1" d="M268.33,323.33a7.67,7.67,0,0,0-.83,1.79c-.07.3-.13.55-.17.77a2.39,2.39,0,0,1,1.26.95s.57-1.67,1.18-3a2,2,0,0,1-1.15-.31,3.06,3.06,0,0,1-.29-.21Z" />
  <path class="GUNDAN_RED_PANDA_JEWELRY_GUNDAN_RED_PANDA_JEWELRY_14_cls-1" d="M267.76,327.67a5.82,5.82,0,0,1-1.83,3.25,1.14,1.14,0,0,1-1.24.26,1.21,1.21,0,0,1-.38-.28c-.09.08-.52.43-1,.89a2.52,2.52,0,0,0,.7.59,2,2,0,0,0,.63.2,3.2,3.2,0,0,0,3-1.75c1-1.54,1.51-3,1-4a2.39,2.39,0,0,0-1.26-.95,3.86,3.86,0,0,0-.1.88,1.15,1.15,0,0,1,.43.49A1,1,0,0,1,267.76,327.67Z" />
  <path class="GUNDAN_RED_PANDA_JEWELRY_GUNDAN_RED_PANDA_JEWELRY_14_cls-4" d="M276.65,309a3.48,3.48,0,0,1-.07-.87c0-.21,0-.48,0-.79a7.33,7.33,0,0,1,.42-1.78" />
  <path class="GUNDAN_RED_PANDA_JEWELRY_GUNDAN_RED_PANDA_JEWELRY_14_cls-4" d="M278,308.81s.1-.7.25-1.57v0" />
  <path class="GUNDAN_RED_PANDA_JEWELRY_GUNDAN_RED_PANDA_JEWELRY_14_cls-4" d="M276.29,303.76,275,303.7c0,.08.75,1.95.72,2a6.26,6.26,0,0,0-.53,2.45,2.34,2.34,0,0,0,.23,1.24.93.93,0,0,0,.41.4,1.38,1.38,0,0,0,1.5,0" />
  <path class="GUNDAN_RED_PANDA_JEWELRY_GUNDAN_RED_PANDA_JEWELRY_14_cls-4" d="M276.65,309a1.09,1.09,0,0,1,.52.4,1,1,0,0,1,.18.38,5.92,5.92,0,0,1-1.17,3.54,1.17,1.17,0,0,1-1.17.5,1.44,1.44,0,0,1-.43-.21" />
  <path class="GUNDAN_RED_PANDA_JEWELRY_GUNDAN_RED_PANDA_JEWELRY_14_cls-4" d="M274.16,312.32a5.11,5.11,0,0,1,1.28-2.9" />
  <path class="GUNDAN_RED_PANDA_JEWELRY_GUNDAN_RED_PANDA_JEWELRY_14_cls-4" d="M273.78,314.68a2.14,2.14,0,0,0,.78.44,2.5,2.5,0,0,0,.66.09,3.23,3.23,0,0,0,2.6-2.3c.68-1.7.91-3.25.18-4.11a2.4,2.4,0,0,0-1.42-.68h0" />
  <path class="GUNDAN_RED_PANDA_JEWELRY_GUNDAN_RED_PANDA_JEWELRY_14_cls-4" d="M273.06,313.44a4.54,4.54,0,0,1,0-2.07,6.19,6.19,0,0,1,2.13-3.18" />
  <path class="GUNDAN_RED_PANDA_JEWELRY_GUNDAN_RED_PANDA_JEWELRY_14_cls-4" d="M272.27,318.21a3.86,3.86,0,0,1,.17-.86c.06-.2.13-.45.24-.75a8.19,8.19,0,0,1,1.09-1.92h0c.37-.53.72-1,.8-1.07l0,0" />
  <path class="GUNDAN_RED_PANDA_JEWELRY_GUNDAN_RED_PANDA_JEWELRY_14_cls-4" d="M273.63,318.39a30.34,30.34,0,0,1,1.59-3.18" />
  <path class="GUNDAN_RED_PANDA_JEWELRY_GUNDAN_RED_PANDA_JEWELRY_14_cls-4" d="M276.18,313.32a.83.83,0,0,0-.25-.72,1.54,1.54,0,0,0-1.77-.28,2.73,2.73,0,0,0-1,1s-.06.1-.11.15h0a16.38,16.38,0,0,0-2,3.62,2.27,2.27,0,0,0-.12,1.23,1,1,0,0,0,.3.5,1.37,1.37,0,0,0,1.46.35" />
  <path class="GUNDAN_RED_PANDA_JEWELRY_GUNDAN_RED_PANDA_JEWELRY_14_cls-4" d="M270.56,322.33a1.12,1.12,0,0,1-1.16.09.87.87,0,0,1-.32-.27" />
  <path class="GUNDAN_RED_PANDA_JEWELRY_GUNDAN_RED_PANDA_JEWELRY_14_cls-4" d="M272.27,318.22a1,1,0,0,1,.39.52,1,1,0,0,1,.08.41,5.86,5.86,0,0,1-2.18,3.17" />
  <path class="GUNDAN_RED_PANDA_JEWELRY_GUNDAN_RED_PANDA_JEWELRY_14_cls-4" d="M269.06,320.57A5.18,5.18,0,0,1,271,318.3h0" />
  <path class="GUNDAN_RED_PANDA_JEWELRY_GUNDAN_RED_PANDA_JEWELRY_14_cls-4" d="M272.43,317.35h0a2.29,2.29,0,0,1,1.18,1c.48,1-.16,2.45-1.25,3.91a3.6,3.6,0,0,1-2.6,1.56,2,2,0,0,1-1.15-.31,3.06,3.06,0,0,1-.29-.21" />
  <path class="GUNDAN_RED_PANDA_JEWELRY_GUNDAN_RED_PANDA_JEWELRY_14_cls-4" d="M267.66,321.94a3.9,3.9,0,0,1,.55-2.39,6.07,6.07,0,0,1,2.89-2.48h0" />
  <path class="GUNDAN_RED_PANDA_JEWELRY_GUNDAN_RED_PANDA_JEWELRY_14_cls-4" d="M267.23,326.77a3.86,3.86,0,0,1,.1-.88c0-.22.1-.47.17-.77a7.67,7.67,0,0,1,.83-1.79c.3-.51.59-1,.75-1.18a1.8,1.8,0,0,1,.12-.17" />
  <path class="GUNDAN_RED_PANDA_JEWELRY_GUNDAN_RED_PANDA_JEWELRY_14_cls-4" d="M268.59,326.84s.57-1.67,1.18-3" />
  <path class="GUNDAN_RED_PANDA_JEWELRY_GUNDAN_RED_PANDA_JEWELRY_14_cls-4" d="M270.56,322.33h0c.25-.59.28-1.08-.12-1.43a1.56,1.56,0,0,0-1.38-.32,2.34,2.34,0,0,0-1.32,1.22s-.06.09-.08.15h0A15.71,15.71,0,0,0,266,325.7h0a2.28,2.28,0,0,0,0,1.24h0a1,1,0,0,0,.33.46,1.36,1.36,0,0,0,1.48.25h0" />
  <path class="GUNDAN_RED_PANDA_JEWELRY_GUNDAN_RED_PANDA_JEWELRY_14_cls-4" d="M267.23,326.77a1.15,1.15,0,0,1,.43.49,1,1,0,0,1,.1.41,5.82,5.82,0,0,1-1.83,3.25,1.14,1.14,0,0,1-1.24.26,1.21,1.21,0,0,1-.38-.28" />
  <path class="GUNDAN_RED_PANDA_JEWELRY_GUNDAN_RED_PANDA_JEWELRY_14_cls-4" d="M264.15,329.55A5.21,5.21,0,0,1,266,327" />
  <path class="GUNDAN_RED_PANDA_JEWELRY_GUNDAN_RED_PANDA_JEWELRY_14_cls-4" d="M263.31,331.79a2.52,2.52,0,0,0,.7.59,2,2,0,0,0,.63.2,3.2,3.2,0,0,0,3-1.75c1-1.54,1.51-3,1-4a2.39,2.39,0,0,0-1.26-.95h0" />
  <path class="GUNDAN_RED_PANDA_JEWELRY_GUNDAN_RED_PANDA_JEWELRY_14_cls-4" d="M262.85,330.44a4.59,4.59,0,0,1,.43-2,6.22,6.22,0,0,1,2.7-2.71" />
  <path class="GUNDAN_RED_PANDA_JEWELRY_GUNDAN_RED_PANDA_JEWELRY_14_cls-4" d="M276.28,303.76h0c1.39.17,2.1,2.19,2,3.46v0" />
  <polygon points="249.03 354.7 244.91 355.3 244.6 355.34 240.48 355.94 235.82 361.86 238 376.97 243.82 381.74 249.29 380.95 250.7 380.74 253.12 380.39 257.35 374.17 255.16 359.06 249.03 354.7" />
  <path class="GUNDAN_RED_PANDA_JEWELRY_GUNDAN_RED_PANDA_JEWELRY_14_cls-5" d="M266.81,333.71a4,4,0,0,0,.44.92,2.67,2.67,0,0,0-2.59,1.17c-.28-1.62-3.53-4.5-8.72-6.16C263.76,328.44,266.24,332,266.81,333.71Z" />
  <path class="GUNDAN_RED_PANDA_JEWELRY_GUNDAN_RED_PANDA_JEWELRY_14_cls-5" d="M245.93,336.35s2.74,1.34,3.65.15,4.28-5.91,4.28-5.91,5.42,1.37,7.6,4a9.24,9.24,0,0,0,2.13,2s-6.65,1.19-7.89,5.79c-5.16.15-6.82,2.31-7.86,4.21a3,3,0,0,0-.64-1.44C243.55,339.83,245.93,336.35,245.93,336.35Z" />
  <path class="GUNDAN_RED_PANDA_JEWELRY_GUNDAN_RED_PANDA_JEWELRY_14_cls-2" d="M244.62,351.09a3.06,3.06,0,0,0,1.47-3.25,4,4,0,0,0-.34-1.11,2,2,0,0,0,.65.51,2,2,0,0,0,.81.18c0,.09,0,.17,0,.25a4.39,4.39,0,0,1-2.42,4.87h0l-.2-1.43v0Z" />
  <path class="GUNDAN_RED_PANDA_JEWELRY_GUNDAN_RED_PANDA_JEWELRY_14_cls-3" d="M244.6,351.09v0l.2,1.43.5,3.43a.65.65,0,0,1-1.29.19l-.5-3.44-.21-1.42v0a.66.66,0,0,1,.56-.72A.65.65,0,0,1,244.6,351.09Z" />
  <path class="GUNDAN_RED_PANDA_JEWELRY_GUNDAN_RED_PANDA_JEWELRY_14_cls-2" d="M243.76,343.71c.36.67.77,1.37,1.18,2a2.36,2.36,0,0,0-1.84-.57h0a2.32,2.32,0,0,0-1.6,1.06c.22-.7.41-1.49.57-2.23a2.94,2.94,0,0,1,.83-.24h0a3,3,0,0,1,.85,0Z" />
  <path class="GUNDAN_RED_PANDA_JEWELRY_GUNDAN_RED_PANDA_JEWELRY_14_cls-5" d="M244,331.58a2.11,2.11,0,0,1-.78,1.91,3.43,3.43,0,0,1-1.68.64h0a3.42,3.42,0,0,1-1.8-.15,2.09,2.09,0,0,1-1.28-1.61s-1.09-1.47-.64-2.25a.6.6,0,0,1,.18-.21c1-.8,1.95,1.25,1.95,1.25l1.12-.27h0l1.15-.06s.32-2.23,1.52-1.75C244.73,329.48,244,331.58,244,331.58Z" />
  <path class="GUNDAN_RED_PANDA_JEWELRY_GUNDAN_RED_PANDA_JEWELRY_14_cls-2" d="M239.79,348.49a1.92,1.92,0,0,0,.73-.4,2.41,2.41,0,0,0,.48-.67,3.46,3.46,0,0,0,0,1.16,3.07,3.07,0,0,0,2.33,2.7v0l.21,1.42a4.36,4.36,0,0,1-3.7-4A2.3,2.3,0,0,1,239.79,348.49Z" />
  <path class="GUNDAN_RED_PANDA_JEWELRY_GUNDAN_RED_PANDA_JEWELRY_14_cls-5" d="M239.16,346.34a3.26,3.26,0,0,0-.2,1.56c-1.53-1.52-3.73-3.12-8.69-1.82h-.05a5.65,5.65,0,0,0-.71-.94,6.94,6.94,0,0,0-2.3-1.54,12.07,12.07,0,0,0-3.66-.85,16.45,16.45,0,0,0-2.53,0,9.15,9.15,0,0,0,1.48-2.53c1.34-3.15,6.15-6,6.15-6l.5.4,2.57,2,1,.8,1.37,1.05.3.22c1.2.88,3.46-1.18,3.46-1.18S241.15,340.18,239.16,346.34Z" />
  <path class="GUNDAN_RED_PANDA_JEWELRY_GUNDAN_RED_PANDA_JEWELRY_14_cls-3" d="M229.15,334.63a12.29,12.29,0,0,0-5.6,8.13,16.45,16.45,0,0,0-2.53,0,9.15,9.15,0,0,0,1.48-2.53c1.34-3.15,6.15-6,6.15-6Z" />
  <path class="GUNDAN_RED_PANDA_JEWELRY_GUNDAN_RED_PANDA_JEWELRY_14_cls-3" d="M239.16,346.34a3.26,3.26,0,0,0-.2,1.56,10.25,10.25,0,0,0-1.19-1c-1.5-1.08-3.68-1.79-7.5-.79a16.86,16.86,0,0,0,3.86-7.61l.3.22c.66.49,1.65.07,2.4-.39a9.08,9.08,0,0,0,1.06-.79S241.15,340.18,239.16,346.34Z" />
  <path class="GUNDAN_RED_PANDA_JEWELRY_GUNDAN_RED_PANDA_JEWELRY_14_cls-5" d="M226.38,333.91c-4.5,3.06-6.8,6.74-6.61,8.37a2.16,2.16,0,0,0-1.47-.63,3.42,3.42,0,0,0-1.35.24,3.29,3.29,0,0,0,.16-1C217.18,339.1,218.55,335,226.38,333.91Z" />
  <path class="GUNDAN_RED_PANDA_JEWELRY_GUNDAN_RED_PANDA_JEWELRY_14_cls-2" d="M226.38,333.91c-6.74,2.36-7.92,6-8.08,7.74a3.42,3.42,0,0,0-1.35.24,3.29,3.29,0,0,0,.16-1C217.18,339.1,218.55,335,226.38,333.91Z" />
  <path class="GUNDAN_RED_PANDA_JEWELRY_GUNDAN_RED_PANDA_JEWELRY_14_cls-2" d="M232.76,337.42a19.76,19.76,0,0,1-3.25,7.73,6.94,6.94,0,0,0-2.3-1.54,27.46,27.46,0,0,0,4.51-7Z" />
  <path class="GUNDAN_RED_PANDA_JEWELRY_GUNDAN_RED_PANDA_JEWELRY_14_cls-5" d="M268.33,334.33c-.21.59-.63.9-1.08.3a4,4,0,0,1-.44-.92c-.57-1.7-3.05-5.27-10.87-4.07,5.19,1.66,8.44,4.54,8.72,6.16.17,1-.24,1.3-1.07.82a9.24,9.24,0,0,1-2.13-2c-2.18-2.64-7.6-4-7.6-4s-3.37,4.73-4.28,5.91-3.65-.15-3.65-.15-2.38,3.48,1.27,8.83a3,3,0,0,1,.64,1.44.64.64,0,0,1-.63.8,2,2,0,0,1-.81-.18,2,2,0,0,1-.65-.51,8.78,8.78,0,0,1-.81-1c-.41-.61-.82-1.31-1.18-2-.7-1.28-1.21-2.42-1.21-2.42h0s-.18,1.24-.48,2.67c-.16.74-.35,1.53-.57,2.23a8.79,8.79,0,0,1-.48,1.23,2.41,2.41,0,0,1-.48.67,1.92,1.92,0,0,1-.73.4.6.6,0,0,1-.35,0,.69.69,0,0,1-.48-.6,3.26,3.26,0,0,1,.2-1.56c2-6.16-1.27-8.83-1.27-8.83a9.08,9.08,0,0,1-1.06.79c-.75.46-1.74.88-2.4.39-1.21-.88-5.78-4.46-5.78-4.46s-4.81,2.85-6.15,6a9.15,9.15,0,0,1-1.48,2.53h0c-.66.7-1.14.51-1.25-.48-.19-1.63,2.11-5.31,6.61-8.37-7.83,1.06-9.2,5.19-9.27,7a3.29,3.29,0,0,1-.16,1h0c-.14.38-.36.5-.59.44a1,1,0,0,1-.53-.43,7.65,7.65,0,0,1,1.68-6c3-3.57,9-4.36,10.41-4s5.54,3.75,7.29,4.54l.31.12a1.37,1.37,0,0,0,.75,0c1.5-.38,3.43-2.53,3.43-2.53h0a3.42,3.42,0,0,0,1.8.15h0a3.43,3.43,0,0,0,1.68-.64h0s3.42,2.11,4.72,1.26,4.71-5.87,6-6.62,7.19-1.66,11.11.9A7.65,7.65,0,0,1,268.33,334.33Z" />
  <path class="GUNDAN_RED_PANDA_JEWELRY_GUNDAN_RED_PANDA_JEWELRY_14_cls-2" d="M241.44,333.65l.07.48.27,1.87c-1.47.21-2.29-.85-2.38.35s.28.76,1.28,4.46-1.12,7.49-1.12,7.49l-.12.2a.69.69,0,0,1-.48-.6,3.26,3.26,0,0,1,.2-1.56c2-6.16-1.27-8.83-1.27-8.83a9.08,9.08,0,0,1-1.06.79,4.26,4.26,0,0,0-.31-.5l-.25-1.27c1.5-.38,3.43-2.53,3.43-2.53h0a2.09,2.09,0,0,1-1.28-1.61s-1.09-1.47-.64-2.25l.53-.05A1.64,1.64,0,0,0,239,332,2.21,2.21,0,0,0,241.44,333.65Z" />
  <path class="GUNDAN_RED_PANDA_JEWELRY_GUNDAN_RED_PANDA_JEWELRY_14_cls-2" d="M241.37,333.66l.07.48.27,1.87c1.48-.21,2-1.46,2.38-.34s-.05.81,0,4.64,3.19,6.87,3.19,6.87l.17.16a.68.68,0,0,0,.29-.71,3.11,3.11,0,0,0-.63-1.44c-3.65-5.35-1.28-8.83-1.28-8.83a8.55,8.55,0,0,0,1.24.45,5.46,5.46,0,0,1,.15-.56l-.11-1.29c-1.55.06-4-1.46-4-1.46h0a2.11,2.11,0,0,0,.77-1.91s.63-1.73,0-2.34l-.52.1a1.64,1.64,0,0,1-.16,2A2.2,2.2,0,0,1,241.37,333.66Z" />
  <path class="GUNDAN_RED_PANDA_JEWELRY_GUNDAN_RED_PANDA_JEWELRY_14_cls-6" d="M235.47,336.8a30,30,0,0,1-5.89-3.1c-2-1.46-2.76-1-2.76-1-2.79.07-7.4,1.81-9.08,4.26a8.24,8.24,0,0,0-1.23,5.37l-.15,0a1,1,0,0,1-.53-.43,7.65,7.65,0,0,1,1.68-6c3-3.57,9-4.36,10.41-4s5.54,3.75,7.29,4.54C235.41,336.66,235.51,336.8,235.47,336.8Z" />
  <path class="GUNDAN_RED_PANDA_JEWELRY_GUNDAN_RED_PANDA_JEWELRY_14_cls-3" d="M253.49,331.11a12.33,12.33,0,0,1,7.68,6.22,14.23,14.23,0,0,1,2.42-.71,9,9,0,0,1-2.13-2c-2.19-2.63-7.61-4-7.61-4Z" />
  <path class="GUNDAN_RED_PANDA_JEWELRY_GUNDAN_RED_PANDA_JEWELRY_14_cls-3" d="M247.2,345.18a3.11,3.11,0,0,1,.63,1.44c1-1.9,2.7-4.05,7.82-4.21a16.82,16.82,0,0,1-5.85-6.21l-.22.31c-.91,1.18-3.65-.16-3.65-.16S243.55,339.83,247.2,345.18Z" />
  <path class="GUNDAN_RED_PANDA_JEWELRY_GUNDAN_RED_PANDA_JEWELRY_14_cls-2" d="M255.94,329.64c7.14.36,9.3,3.54,9.95,5.14a3.35,3.35,0,0,1,1.35-.15,3.63,3.63,0,0,1-.43-.92C266.24,332,263.75,328.44,255.94,329.64Z" />
  <path class="GUNDAN_RED_PANDA_JEWELRY_GUNDAN_RED_PANDA_JEWELRY_14_cls-2" d="M250.82,334.82a19.7,19.7,0,0,0,5.3,6.49,6.91,6.91,0,0,1,1.77-2.13,27.16,27.16,0,0,1-6.3-5.43Z" />
  <path class="GUNDAN_RED_PANDA_JEWELRY_GUNDAN_RED_PANDA_JEWELRY_14_cls-6" d="M248,335a29.68,29.68,0,0,0,4.77-4.64c1.5-1.95,2.37-1.76,2.37-1.76,2.69-.72,7.6-.36,9.91,1.52a8.28,8.28,0,0,1,2.7,4.8h.15a1.09,1.09,0,0,0,.39-.57A7.69,7.69,0,0,0,265,329c-3.92-2.56-9.84-1.65-11.12-.9s-4.25,5.17-5.7,6.42C248.06,334.83,248,335,248,335Z" />
  <path class="GUNDAN_RED_PANDA_JEWELRY_GUNDAN_RED_PANDA_JEWELRY_14_cls-7" d="M217,341.9c-.26.69-.76.51-1.12,0a7.65,7.65,0,0,1,1.68-6c3-3.57,9-4.36,10.41-4s6.11,4.22,7.6,4.66S239.7,334,239.7,334" />
  <path class="GUNDAN_RED_PANDA_JEWELRY_GUNDAN_RED_PANDA_JEWELRY_14_cls-7" d="M221,342.76c-.66.7-1.14.51-1.25-.48-.19-1.63,2.11-5.31,6.61-8.37-7.83,1.06-9.2,5.19-9.27,7a3.29,3.29,0,0,1-.16,1" />
  <path class="GUNDAN_RED_PANDA_JEWELRY_GUNDAN_RED_PANDA_JEWELRY_14_cls-7" d="M242.53,341.29s-.18,1.24-.48,2.67c-.16.74-.35,1.53-.57,2.23a8.79,8.79,0,0,1-.48,1.23,2.41,2.41,0,0,1-.48.67,1.92,1.92,0,0,1-.73.4.64.64,0,0,1-.83-.59,3.26,3.26,0,0,1,.2-1.56c2-6.16-1.27-8.83-1.27-8.83s-2.26,2.06-3.46,1.18-5.78-4.46-5.78-4.46-4.81,2.85-6.15,6a9.15,9.15,0,0,1-1.48,2.53" />
  <path class="GUNDAN_RED_PANDA_JEWELRY_GUNDAN_RED_PANDA_JEWELRY_14_cls-7" d="M241,330.9l-1.12.27s-.93-2.05-1.95-1.25.46,2.46.46,2.46A2.09,2.09,0,0,0,239.7,334a3.42,3.42,0,0,0,1.8.15" />
  <path class="GUNDAN_RED_PANDA_JEWELRY_GUNDAN_RED_PANDA_JEWELRY_14_cls-7" d="M217,341.9h0a2.65,2.65,0,0,1,2.82.39" />
  <path class="GUNDAN_RED_PANDA_JEWELRY_GUNDAN_RED_PANDA_JEWELRY_14_cls-7" d="M221,342.76h0c.21,0,6.76-.67,9.2,3.33,5-1.32,7.21.28,8.74,1.81l0,0" />
  <path class="GUNDAN_RED_PANDA_JEWELRY_GUNDAN_RED_PANDA_JEWELRY_14_cls-7" d="M242.88,343.72a2.94,2.94,0,0,0-.83.24" />
  <path class="GUNDAN_RED_PANDA_JEWELRY_GUNDAN_RED_PANDA_JEWELRY_14_cls-7" d="M243.52,352.72a4.36,4.36,0,0,1-3.7-4,2.3,2.3,0,0,1,0-.26" />
  <path class="GUNDAN_RED_PANDA_JEWELRY_GUNDAN_RED_PANDA_JEWELRY_14_cls-7" d="M243.08,345.13a2.32,2.32,0,0,0-1.6,1.06" />
  <path class="GUNDAN_RED_PANDA_JEWELRY_GUNDAN_RED_PANDA_JEWELRY_14_cls-7" d="M241,347.42a3.46,3.46,0,0,0,0,1.16,3.07,3.07,0,0,0,2.33,2.7" />
  <path class="GUNDAN_RED_PANDA_JEWELRY_GUNDAN_RED_PANDA_JEWELRY_14_cls-7" d="M242.55,341.29s.51,1.14,1.21,2.42c.36.67.77,1.37,1.18,2a8.78,8.78,0,0,0,.81,1,2,2,0,0,0,.65.51,2,2,0,0,0,.81.18.64.64,0,0,0,.63-.8,3,3,0,0,0-.64-1.44c-3.65-5.35-1.27-8.83-1.27-8.83s2.74,1.34,3.65.15,4.28-5.91,4.28-5.91,5.42,1.37,7.6,4a9.24,9.24,0,0,0,2.13,2c.83.48,1.24.16,1.07-.82-.28-1.62-3.53-4.5-8.72-6.16,7.82-1.2,10.3,2.37,10.87,4.07a4,4,0,0,0,.44.92c.45.6.87.29,1.08-.3A7.65,7.65,0,0,0,265,329c-3.92-2.56-9.84-1.65-11.11-.9s-4.67,5.78-6,6.62-4.72-1.26-4.72-1.26" />
  <path class="GUNDAN_RED_PANDA_JEWELRY_GUNDAN_RED_PANDA_JEWELRY_14_cls-7" d="M241,330.9l1.15-.06s.32-2.23,1.52-1.75c1,.39.26,2.49.26,2.49a2.11,2.11,0,0,1-.78,1.91,3.43,3.43,0,0,1-1.68.64" />
  <path class="GUNDAN_RED_PANDA_JEWELRY_GUNDAN_RED_PANDA_JEWELRY_14_cls-7" d="M267.25,334.63a2.67,2.67,0,0,0-2.59,1.17" />
  <path class="GUNDAN_RED_PANDA_JEWELRY_GUNDAN_RED_PANDA_JEWELRY_14_cls-7" d="M263.59,336.62s-6.65,1.19-7.89,5.79c-5.16.15-6.82,2.31-7.86,4.21v0" />
  <path class="GUNDAN_RED_PANDA_JEWELRY_GUNDAN_RED_PANDA_JEWELRY_14_cls-7" d="M242.9,343.71a3,3,0,0,1,.85,0" />
  <path class="GUNDAN_RED_PANDA_JEWELRY_GUNDAN_RED_PANDA_JEWELRY_14_cls-7" d="M244.83,352.54a4.39,4.39,0,0,0,2.42-4.87c0-.08,0-.16,0-.25" />
  <path class="GUNDAN_RED_PANDA_JEWELRY_GUNDAN_RED_PANDA_JEWELRY_14_cls-7" d="M243.1,345.12a2.36,2.36,0,0,1,1.84.57" />
  <path class="GUNDAN_RED_PANDA_JEWELRY_GUNDAN_RED_PANDA_JEWELRY_14_cls-7" d="M244.62,351.09a3.06,3.06,0,0,0,1.47-3.25,4,4,0,0,0-.34-1.11" />
  <path class="GUNDAN_RED_PANDA_JEWELRY_GUNDAN_RED_PANDA_JEWELRY_14_cls-7" d="M244.81,352.54l.5,3.43a.65.65,0,0,1-1.29.19l-.5-3.44-.21-1.42v0a.66.66,0,0,1,.56-.72.65.65,0,0,1,.73.53v0Z" />
  <polygon class="GUNDAN_RED_PANDA_JEWELRY_GUNDAN_RED_PANDA_JEWELRY_14_cls-8" points="249.8 360.59 252.13 360.83 251.89 362.31 251.45 365.05 250.05 361.27 249.8 360.59" />
  <polygon class="GUNDAN_RED_PANDA_JEWELRY_GUNDAN_RED_PANDA_JEWELRY_14_cls-8" points="252.15 378.76 252.15 378.77 255.55 373.98 254.56 374.12 251.76 377.61 252.15 378.76" />
  <polygon class="GUNDAN_RED_PANDA_JEWELRY_GUNDAN_RED_PANDA_JEWELRY_14_cls-9" points="251.12 377.16 251.16 375.57 249.32 376.63 251.12 377.16" />
  <polygon class="GUNDAN_RED_PANDA_JEWELRY_GUNDAN_RED_PANDA_JEWELRY_14_cls-8" points="252.04 371.34 251.82 374.58 252.87 374.15 253.99 373.69 253.32 372.3 252.15 369.84 252.04 371.34" />
  <polygon class="GUNDAN_RED_PANDA_JEWELRY_GUNDAN_RED_PANDA_JEWELRY_14_cls-10" points="251.35 372.4 251.61 368.66 251.27 366.33 249.98 362.85 249.11 360.5 246.06 359.76 244.75 359.95 242.03 361.52 241.61 367.72 241.95 370.06 244.11 375.89 247.15 376.62 248.47 376.43 251.19 374.87 251.35 372.4" />
  <polygon class="GUNDAN_RED_PANDA_JEWELRY_GUNDAN_RED_PANDA_JEWELRY_14_cls-9" points="241 367.82 239.41 364.49 240.75 373.78 241.34 370.13 241 367.82" />
  <polygon class="GUNDAN_RED_PANDA_JEWELRY_GUNDAN_RED_PANDA_JEWELRY_14_cls-10" points="252.22 368.56 253.81 371.89 252.47 362.61 251.88 366.25 252.22 368.56" />
  <polygon class="GUNDAN_RED_PANDA_JEWELRY_GUNDAN_RED_PANDA_JEWELRY_14_cls-9" points="241.47 359.72 239.78 361.82 241.44 361.15 241.47 359.72" />
  <polygon class="GUNDAN_RED_PANDA_JEWELRY_GUNDAN_RED_PANDA_JEWELRY_14_cls-9" points="248.4 358.32 246.83 359.33 248.89 359.83 248.4 358.32" />
  <polygon class="GUNDAN_RED_PANDA_JEWELRY_GUNDAN_RED_PANDA_JEWELRY_14_cls-9" points="242.06 360.81 243.89 359.76 242.1 359.23 242.06 360.81" />
  <polygon class="GUNDAN_RED_PANDA_JEWELRY_GUNDAN_RED_PANDA_JEWELRY_14_cls-10" points="248.33 356.21 241.57 357.19 241.73 357.65 242.02 358.5 248.27 357.59 248.33 356.21" />
  <polygon class="GUNDAN_RED_PANDA_JEWELRY_GUNDAN_RED_PANDA_JEWELRY_14_cls-10" points="241.06 357.6 237.56 362.42 238.66 362.26 241.46 358.77 241.06 357.6" />
  <polygon class="GUNDAN_RED_PANDA_JEWELRY_GUNDAN_RED_PANDA_JEWELRY_14_cls-9" points="252.56 360.26 253.66 360.1 248.93 356.46 248.89 357.53 248.88 357.7 252.56 360.26" />
  <rect class="GUNDAN_RED_PANDA_JEWELRY_GUNDAN_RED_PANDA_JEWELRY_14_cls-10" x="238.38" y="362.89" width="1.1" height="12.82" transform="translate(-50.32 37.93) rotate(-8.22)" />
  <rect class="GUNDAN_RED_PANDA_JEWELRY_GUNDAN_RED_PANDA_JEWELRY_14_cls-10" x="253.74" y="360.67" width="1.1" height="12.82" transform="translate(-49.84 40.1) rotate(-8.22)" />
  <polygon class="GUNDAN_RED_PANDA_JEWELRY_GUNDAN_RED_PANDA_JEWELRY_14_cls-8" points="239.23 362.69 241.07 366.55 241.4 361.8 239.23 362.69" />
  <polygon class="GUNDAN_RED_PANDA_JEWELRY_GUNDAN_RED_PANDA_JEWELRY_14_cls-8" points="245.97 359.18 247.27 358.34 243.19 358.93 244.67 359.37 245.97 359.18" />
  <polygon class="GUNDAN_RED_PANDA_JEWELRY_GUNDAN_RED_PANDA_JEWELRY_14_cls-9" points="253.43 374.56 251.78 375.24 251.76 376.23 251.75 376.67 253.43 374.56" />
  <polygon class="GUNDAN_RED_PANDA_JEWELRY_GUNDAN_RED_PANDA_JEWELRY_14_cls-8" points="241.09 375.55 242.22 375.67 243.42 375.79 241.76 371.33 241.09 375.55" />
  <polygon class="GUNDAN_RED_PANDA_JEWELRY_GUNDAN_RED_PANDA_JEWELRY_14_cls-8" points="249.33 359.2 249.58 359.97 251.35 360.15 251.01 359.91 249.14 358.61 249.33 359.2" />
  <polygon class="GUNDAN_RED_PANDA_JEWELRY_GUNDAN_RED_PANDA_JEWELRY_14_cls-9" points="244.82 378.07 246.39 377.05 244.33 376.56 244.82 378.07" />
  <polygon class="GUNDAN_RED_PANDA_JEWELRY_GUNDAN_RED_PANDA_JEWELRY_14_cls-8" points="244.95 378.79 244.91 379.68 244.89 380.17 251.65 379.19 251.2 377.89 244.95 378.79" />
  <polygon class="GUNDAN_RED_PANDA_JEWELRY_GUNDAN_RED_PANDA_JEWELRY_14_cls-9" points="244.34 378.76 244.34 378.69 240.66 376.13 239.67 376.27 244.29 379.91 244.34 378.76" />
  <polygon class="GUNDAN_RED_PANDA_JEWELRY_GUNDAN_RED_PANDA_JEWELRY_14_cls-8" points="247.25 377.21 245.95 378.05 250.03 377.46 248.55 377.02 247.25 377.21" />
  <polygon class="GUNDAN_RED_PANDA_JEWELRY_GUNDAN_RED_PANDA_JEWELRY_14_cls-9" points="243.89 377.18 243.64 376.42 241.87 376.23 242.15 376.43 244.08 377.77 243.89 377.18" />
</svg>