<svg id="jewelry" xmlns="http://www.w3.org/2000/svg" viewBox="0 0 432 432">
  <defs>
    <style>.GUNDAN_RED_PANDA_JEWELRY_GUNDAN_RED_PANDA_JEWELRY_2_cls-1,.GUNDAN_RED_PANDA_JEWELRY_GUNDAN_RED_PANDA_JEWELRY_2_cls-6{fill:none;stroke:#000;stroke-linecap:round;stroke-linejoin:round;}.GUNDAN_RED_PANDA_JEWELRY_GUNDAN_RED_PANDA_JEWELRY_2_cls-1{stroke-width:0.95px;}.GUNDAN_RED_PANDA_JEWELRY_GUNDAN_RED_PANDA_JEWELRY_2_cls-2{fill:#b7866d;}.GUNDAN_RED_PANDA_JEWELRY_GUNDAN_RED_PANDA_JEWELRY_2_cls-3{fill:#f49092;}.GUNDAN_RED_PANDA_JEWELRY_GUNDAN_RED_PANDA_JEWELRY_2_cls-4{fill:#e12d2b;}.GUNDAN_RED_PANDA_JEWELRY_GUNDAN_RED_PANDA_JEWELRY_2_cls-5{fill:#9e1d20;}.GUNDAN_RED_PANDA_JEWELRY_GUNDAN_RED_PANDA_JEWELRY_2_cls-6{stroke-width:0.76px;}</style>
  </defs>
  <path class="GUNDAN_RED_PANDA_JEWELRY_GUNDAN_RED_PANDA_JEWELRY_2_cls-1" d="M120.54,169.28c-1.49.45-1.66,2.22-1.66,2.92v1.64" />
  <path class="GUNDAN_RED_PANDA_JEWELRY_GUNDAN_RED_PANDA_JEWELRY_2_cls-1" d="M126.34,194.27V172a3.89,3.89,0,0,0-1.65-3.18" />
  <path class="GUNDAN_RED_PANDA_JEWELRY_GUNDAN_RED_PANDA_JEWELRY_2_cls-2" d="M125.28,206c-.27,0-.55-.06-.82-.1a.3.3,0,0,1-.22-.14.28.28,0,0,1-.06-.25l.11-.74-.39-.08a11,11,0,0,1-1.12-.32l-.26.7a.33.33,0,0,1-.32.22.25.25,0,0,1-.12,0c-.26-.1-.51-.2-.76-.32a.34.34,0,0,1-.17-.45l.31-.68a10.69,10.69,0,0,1-1.34-.79l-.45.6a.35.35,0,0,1-.27.14.42.42,0,0,1-.21-.06l-.64-.52a.34.34,0,0,1,0-.48l.49-.57a11.5,11.5,0,0,1-1.09-1.12l-.59.46a.35.35,0,0,1-.48-.06c-.17-.22-.33-.44-.48-.67a.33.33,0,0,1,.09-.47l.63-.43a12.14,12.14,0,0,1-.75-1.37l-.69.29a.32.32,0,0,1-.13,0,.32.32,0,0,1-.32-.21c-.1-.25-.2-.51-.29-.77a.34.34,0,0,1,.22-.43l.72-.24a11.31,11.31,0,0,1-.35-1.53l-.79.09a.34.34,0,0,1-.34-.3c0-.27,0-.54-.07-.82a.33.33,0,0,1,.33-.35l.75,0a10.21,10.21,0,0,1,.09-1.56l-.75-.12a.34.34,0,0,1-.28-.39q.06-.41.15-.81a.36.36,0,0,1,.16-.22.37.37,0,0,1,.2-.07H115l.72.17a12.3,12.3,0,0,1,.51-1.48l-.68-.32a.31.31,0,0,1-.18-.19.34.34,0,0,1,0-.26c.12-.25.24-.5.37-.74a.35.35,0,0,1,.3-.17.29.29,0,0,1,.16,0l.67.36a11.29,11.29,0,0,1,.88-1.29l-.57-.49a.34.34,0,0,1,0-.48c.17-.2.36-.41.55-.6a.32.32,0,0,1,.24-.11h0a.34.34,0,0,1,.23.1l.55.53a9.64,9.64,0,0,1,1.2-1l-.43-.63a.35.35,0,0,1,.09-.47c.23-.15.46-.3.7-.44a.33.33,0,0,1,.17,0h.09a.34.34,0,0,1,.21.16l.38.65a11.38,11.38,0,0,1,1.42-.64l-.24-.72a.34.34,0,0,1,.22-.43c.26-.09.52-.17.79-.24h.08a.41.41,0,0,1,.18.05.36.36,0,0,1,.15.21l.19.73a11.35,11.35,0,0,1,1.55-.23l0-.76a.33.33,0,0,1,.33-.35l.56,0h.26a.33.33,0,0,1,.33.34V183a10.1,10.1,0,0,1,1.55.19l.17-.72a.34.34,0,0,1,.15-.22.37.37,0,0,1,.18-.05H129c.26.06.53.13.79.21a.36.36,0,0,1,.23.43l-.22.72a11.48,11.48,0,0,1,1.44.6l.36-.66a.34.34,0,0,1,.3-.18.35.35,0,0,1,.17,0c.24.13.47.27.71.42a.35.35,0,0,1,.1.47l-.41.64a10.39,10.39,0,0,1,1.22,1l.53-.54a.34.34,0,0,1,.24-.11h0a.37.37,0,0,1,.24.1l.57.59a.34.34,0,0,1,0,.48l-.56.51a12.6,12.6,0,0,1,.91,1.26l.66-.38a.33.33,0,0,1,.17,0h.09a.32.32,0,0,1,.2.16c.14.23.27.48.39.72a.34.34,0,0,1-.15.46l-.68.33a11.71,11.71,0,0,1,.55,1.47l.73-.19h.08a.34.34,0,0,1,.33.25q.11.4.18.81a.33.33,0,0,1-.27.39l-.74.14a10.37,10.37,0,0,1,.13,1.56l.75,0a.35.35,0,0,1,.24.1.34.34,0,0,1,.09.25c0,.27,0,.55,0,.82a.35.35,0,0,1-.34.31l-.78-.07a10.61,10.61,0,0,1-.19,1.13c0,.14-.07.27-.11.41l.72.21a.35.35,0,0,1,.23.43c-.08.26-.17.52-.26.77a.39.39,0,0,1-.18.2l-.14,0a.27.27,0,0,1-.12,0l-.71-.26a11.29,11.29,0,0,1-.7,1.39l.64.41a.34.34,0,0,1,.15.22.32.32,0,0,1-.05.25c-.14.23-.3.46-.46.68a.35.35,0,0,1-.28.14.31.31,0,0,1-.2-.07l-.6-.44a11.46,11.46,0,0,1-1.06,1.15l.51.56a.34.34,0,0,1,0,.48c-.2.18-.41.36-.63.53a.35.35,0,0,1-.48-.06l-.46-.59a10.6,10.6,0,0,1-1.33.83l.34.67a.35.35,0,0,1-.16.46c-.24.12-.49.24-.75.34a.28.28,0,0,1-.13,0,.31.31,0,0,1-.13,0,.32.32,0,0,1-.18-.18l-.29-.7a13.56,13.56,0,0,1-1.5.45l.14.73a.34.34,0,0,1-.05.26.33.33,0,0,1-.22.14c-.27,0-.54.1-.82.13h0a.4.4,0,0,1-.21-.07.36.36,0,0,1-.13-.23l-.08-.75c-.32,0-.63,0-.94,0l-.63,0-.06.75a.35.35,0,0,1-.34.31Zm1.06-20.48a8.47,8.47,0,0,0-1.88,16.72,8,8,0,0,0,1.88.22,8.47,8.47,0,0,0,7.16-13,8.42,8.42,0,0,0-5.28-3.74A8.54,8.54,0,0,0,126.34,185.48Z" />
  <path d="M126.33,182.23h.25l0,1.08a10.51,10.51,0,0,1,2.14.26h0l.24-1.06c.26.06.52.13.77.21l-.31,1a11.41,11.41,0,0,1,2,.84l.52-1a7.84,7.84,0,0,1,.69.41L132,185a9.7,9.7,0,0,1,1.7,1.35l.77-.79c.19.19.37.38.55.58l-.81.73a10.5,10.5,0,0,1,1.27,1.76l.95-.55c.13.23.26.46.38.7l-1,.48a11.37,11.37,0,0,1,.76,2l1.05-.27q.1.39.18.78l-1.07.2a10.43,10.43,0,0,1,.18,2.17l1.08,0c0,.26,0,.53,0,.8l-1.09-.1a9.93,9.93,0,0,1-.21,1.42c-.06.24-.13.48-.2.71l1,.32c-.07.25-.16.51-.25.75l-1-.38a10,10,0,0,1-1,1.94l.93.59-.46.66-.87-.65a10.69,10.69,0,0,1-1.47,1.61l.73.81a7.49,7.49,0,0,1-.61.51l-.67-.85a10.91,10.91,0,0,1-1.84,1.15l.48,1-.73.33-.41-1a11.43,11.43,0,0,1-2.09.62l.21,1.07c-.27.05-.53.09-.8.12l-.12-1.09a10.32,10.32,0,0,1-1.24.08c-.31,0-.62,0-.94-.05l-.09,1.09c-.27,0-.53-.06-.8-.1l.17-1.07-.7-.13a10.36,10.36,0,0,1-1.4-.43l-.38,1c-.25-.09-.5-.2-.74-.31l.45-1a10.55,10.55,0,0,1-1.87-1.1l-.64.87c-.22-.16-.43-.32-.63-.49l.7-.84a10.53,10.53,0,0,1-1.5-1.56l-.86.67c-.16-.21-.32-.43-.47-.65l.91-.61a10.71,10.71,0,0,1-1-1.91l-1,.41a6.09,6.09,0,0,1-.28-.75l1-.34a10.31,10.31,0,0,1-.47-2.12l-1.09.12c0-.26,0-.53-.07-.79l1.09-.06a11.38,11.38,0,0,1,.12-2.17l-1.08-.17c0-.26.1-.52.16-.78v0l1,.24a10.55,10.55,0,0,1,.71-2.05l-1-.46c.11-.24.23-.48.36-.71l1,.52a10.52,10.52,0,0,1,1.23-1.79l-.83-.7a7.7,7.7,0,0,1,.54-.6l.78.77a10.53,10.53,0,0,1,1.67-1.39l-.62-.91c.22-.15.45-.29.68-.42l.55.94a11,11,0,0,1,2-.89l-.34-1,.76-.23.28,1.06a10.14,10.14,0,0,1,2.15-.32l-.06-1.09.55,0m0,20.53a8.81,8.81,0,0,0,1.95-17.4,8.7,8.7,0,0,0-1.95-.22,8.81,8.81,0,1,0,0,17.62m0-21.21h-.58a.66.66,0,0,0-.47.23.68.68,0,0,0-.18.49l0,.43c-.31,0-.63.08-.94.14l-.11-.42a.68.68,0,0,0-.66-.51l-.17,0c-.27.07-.54.16-.81.24a.67.67,0,0,0-.39.35.63.63,0,0,0,0,.52l.14.41q-.45.18-.87.39l-.22-.38a.7.7,0,0,0-.59-.34.61.61,0,0,0-.34.1l-.72.45a.69.69,0,0,0-.29.43.71.71,0,0,0,.11.51l.24.36c-.25.19-.49.4-.73.61l-.31-.3a.66.66,0,0,0-1,0c-.2.2-.39.41-.57.62a.67.67,0,0,0,.08,1l.32.28c-.19.25-.37.52-.54.79l-.37-.21a.67.67,0,0,0-.33-.08.7.7,0,0,0-.6.35c-.13.25-.26.5-.38.76a.69.69,0,0,0,.34.9l.38.18c-.11.29-.22.6-.31.9l-.4-.09a.47.47,0,0,0-.16,0,.65.65,0,0,0-.36.1.7.7,0,0,0-.3.43c-.07.3-.13.58-.17.86a.67.67,0,0,0,.12.5.7.7,0,0,0,.45.28l.42.06c0,.32,0,.64,0,.95l-.43,0a.62.62,0,0,0-.47.22.68.68,0,0,0-.18.49c0,.28,0,.56.07.84a.7.7,0,0,0,.26.46.72.72,0,0,0,.42.15h.08l.43-.05q.09.47.21.93L115,197a.69.69,0,0,0-.39.34.63.63,0,0,0,0,.52c.09.27.19.53.3.79a.66.66,0,0,0,.89.37l.39-.16c.14.28.29.56.46.84l-.36.24a.67.67,0,0,0-.18.94c.15.24.32.47.49.69a.74.74,0,0,0,.46.26h.08a.71.71,0,0,0,.42-.14l.34-.27a8.57,8.57,0,0,0,.66.69l-.28.32a.69.69,0,0,0,.08,1c.21.18.44.35.66.52a.69.69,0,0,0,.41.13.67.67,0,0,0,.55-.28l.25-.34a8.45,8.45,0,0,0,.82.49l-.18.38a.68.68,0,0,0,.34.9c.25.12.52.23.78.33a.7.7,0,0,0,.88-.4l.15-.4c.29.1.56.17.84.24h.08l-.07.42a.69.69,0,0,0,.12.5.7.7,0,0,0,.45.28c.28,0,.56.08.84.1h.06a.68.68,0,0,0,.68-.62l0-.43h.32l.64,0,0,.43a.68.68,0,0,0,.67.6h.08l.84-.13a.69.69,0,0,0,.55-.8l-.08-.42c.3-.08.61-.17.91-.27l.16.4a.69.69,0,0,0,.37.36.62.62,0,0,0,.26.06.75.75,0,0,0,.26-.05l.77-.35a.66.66,0,0,0,.35-.4.68.68,0,0,0,0-.52l-.18-.38c.27-.16.54-.32.8-.5l.26.33a.7.7,0,0,0,.46.26h.08a.71.71,0,0,0,.42-.14c.22-.17.44-.36.65-.54a.69.69,0,0,0,0-1l-.29-.32c.23-.22.44-.46.65-.7l.34.26a.73.73,0,0,0,.4.13h.11a.67.67,0,0,0,.44-.27c.17-.22.33-.46.48-.7a.65.65,0,0,0,.09-.51.7.7,0,0,0-.3-.43l-.36-.23c.15-.28.29-.56.42-.85l.41.15a.6.6,0,0,0,.24.05.71.71,0,0,0,.28-.06.72.72,0,0,0,.35-.38c.1-.27.19-.54.28-.81a.65.65,0,0,0-.06-.51.66.66,0,0,0-.4-.33l-.4-.13a.3.3,0,0,0,0-.1c.06-.26.11-.53.15-.83l.43,0H138a.69.69,0,0,0,.68-.62c0-.28,0-.57,0-.85a.63.63,0,0,0-.19-.48.64.64,0,0,0-.47-.21h-.42c0-.32,0-.63-.08-.95l.41-.08a.69.69,0,0,0,.55-.8c-.06-.27-.12-.55-.19-.82a.67.67,0,0,0-.31-.42.73.73,0,0,0-.35-.09.5.5,0,0,0-.17,0l-.41.11q-.15-.47-.33-.9l.38-.19a.69.69,0,0,0,.34-.39.67.67,0,0,0,0-.52c-.13-.25-.26-.5-.4-.75a.67.67,0,0,0-.42-.31.47.47,0,0,0-.17,0,.67.67,0,0,0-.34.09l-.38.22a7.22,7.22,0,0,0-.56-.77l.33-.29a.68.68,0,0,0,0-1c-.19-.21-.38-.42-.59-.62a.67.67,0,0,0-.47-.19h0a.68.68,0,0,0-.48.21l-.3.31a8.45,8.45,0,0,0-.75-.59l.24-.37a.68.68,0,0,0-.21-.94l-.73-.43a.73.73,0,0,0-.33-.08.63.63,0,0,0-.19,0,.73.73,0,0,0-.41.32l-.2.38c-.29-.13-.58-.25-.88-.36l.12-.42a.68.68,0,0,0-.45-.85c-.27-.08-.54-.15-.82-.21l-.15,0a.67.67,0,0,0-.66.53l-.1.41c-.31-.06-.63-.09-.94-.12v-.42a.75.75,0,0,0-.19-.49.73.73,0,0,0-.48-.21Zm0,20.53a8,8,0,0,1-1.81-.21,8.12,8.12,0,0,1-6.11-9.72,8.17,8.17,0,0,1,7.92-6.32,7.82,7.82,0,0,1,1.8.2,8.13,8.13,0,0,1-1.8,16.05Z" />
  <ellipse cx="126.33" cy="193.93" rx="6.61" ry="6.65" />
  <polygon class="GUNDAN_RED_PANDA_JEWELRY_GUNDAN_RED_PANDA_JEWELRY_2_cls-3" points="127.58 198.02 126.7 197.73 128.18 196.94 127.58 198.02" />
  <polygon class="GUNDAN_RED_PANDA_JEWELRY_GUNDAN_RED_PANDA_JEWELRY_2_cls-4" points="125.95 197.73 124.47 196.94 125.07 198.02 125.95 197.73" />
  <polygon class="GUNDAN_RED_PANDA_JEWELRY_GUNDAN_RED_PANDA_JEWELRY_2_cls-4" points="129.76 194.43 128.97 196.22 130.27 195.65 129.76 194.43" />
  <path class="GUNDAN_RED_PANDA_JEWELRY_GUNDAN_RED_PANDA_JEWELRY_2_cls-3" d="M131,197.56a6.24,6.24,0,0,0,.72-1.25l-1-.36Z" />
  <path class="GUNDAN_RED_PANDA_JEWELRY_GUNDAN_RED_PANDA_JEWELRY_2_cls-4" d="M132.21,193.5a6.22,6.22,0,0,0-.36-1.67l-1,.37Z" />
  <polygon class="GUNDAN_RED_PANDA_JEWELRY_GUNDAN_RED_PANDA_JEWELRY_2_cls-3" points="128.97 191.65 129.76 193.44 130.27 192.22 128.97 191.65" />
  <path class="GUNDAN_RED_PANDA_JEWELRY_GUNDAN_RED_PANDA_JEWELRY_2_cls-3" d="M131.74,191.56a6.24,6.24,0,0,0-.72-1.25l-.27,1.61Z" />
  <path class="GUNDAN_RED_PANDA_JEWELRY_GUNDAN_RED_PANDA_JEWELRY_2_cls-4" d="M131.85,196a6.22,6.22,0,0,0,.36-1.67l-1.41,1.3Z" />
  <polygon class="GUNDAN_RED_PANDA_JEWELRY_GUNDAN_RED_PANDA_JEWELRY_2_cls-5" points="129.97 193.93 130.59 195.41 132.18 193.93 130.59 192.46 129.97 193.93" />
  <polygon class="GUNDAN_RED_PANDA_JEWELRY_GUNDAN_RED_PANDA_JEWELRY_2_cls-4" points="127.58 189.84 126.7 190.14 128.18 190.93 127.58 189.84" />
  <path class="GUNDAN_RED_PANDA_JEWELRY_GUNDAN_RED_PANDA_JEWELRY_2_cls-4" d="M126.66,199.91a5.69,5.69,0,0,0,2-.47l-.93-.95Z" />
  <polygon class="GUNDAN_RED_PANDA_JEWELRY_GUNDAN_RED_PANDA_JEWELRY_2_cls-3" points="126.33 197.58 128.45 196.46 129.55 193.93 128.45 191.41 126.33 190.29 124.2 191.41 123.1 193.93 124.2 196.46 126.33 197.58" />
  <polygon class="GUNDAN_RED_PANDA_JEWELRY_GUNDAN_RED_PANDA_JEWELRY_2_cls-5" points="128.79 196.62 127.99 198.06 130.67 197.87 130.34 195.94 128.79 196.62" />
  <polygon class="GUNDAN_RED_PANDA_JEWELRY_GUNDAN_RED_PANDA_JEWELRY_2_cls-3" points="124.47 190.93 125.95 190.14 125.07 189.84 124.47 190.93" />
  <polygon class="GUNDAN_RED_PANDA_JEWELRY_GUNDAN_RED_PANDA_JEWELRY_2_cls-3" points="123.68 196.22 122.9 194.43 122.39 195.65 123.68 196.22" />
  <polygon class="GUNDAN_RED_PANDA_JEWELRY_GUNDAN_RED_PANDA_JEWELRY_2_cls-4" points="122.9 193.44 123.68 191.65 122.39 192.22 122.9 193.44" />
  <path class="GUNDAN_RED_PANDA_JEWELRY_GUNDAN_RED_PANDA_JEWELRY_2_cls-4" d="M129,199.28a5.88,5.88,0,0,0,1.54-1.13l-2.47.17Z" />
  <polygon class="GUNDAN_RED_PANDA_JEWELRY_GUNDAN_RED_PANDA_JEWELRY_2_cls-5" points="126.33 199.75 127.42 198.27 126.33 197.9 125.23 198.27 126.33 199.75" />
  <polygon class="GUNDAN_RED_PANDA_JEWELRY_GUNDAN_RED_PANDA_JEWELRY_2_cls-5" points="122.31 195.94 121.99 197.87 124.66 198.06 123.86 196.62 122.31 195.94" />
  <path class="GUNDAN_RED_PANDA_JEWELRY_GUNDAN_RED_PANDA_JEWELRY_2_cls-4" d="M120.91,196.31a6.76,6.76,0,0,0,.72,1.25l.28-1.61Z" />
  <polygon class="GUNDAN_RED_PANDA_JEWELRY_GUNDAN_RED_PANDA_JEWELRY_2_cls-5" points="122.68 193.93 122.07 192.46 120.48 193.93 122.07 195.41 122.68 193.93" />
  <path class="GUNDAN_RED_PANDA_JEWELRY_GUNDAN_RED_PANDA_JEWELRY_2_cls-4" d="M120.45,194.37a5.86,5.86,0,0,0,.36,1.67l1-.37Z" />
  <path class="GUNDAN_RED_PANDA_JEWELRY_GUNDAN_RED_PANDA_JEWELRY_2_cls-3" d="M122.15,198.15a5.68,5.68,0,0,0,1.53,1.13l.93-1Z" />
  <path class="GUNDAN_RED_PANDA_JEWELRY_GUNDAN_RED_PANDA_JEWELRY_2_cls-4" d="M124,199.44a5.74,5.74,0,0,0,2,.47l-1-1.42Z" />
  <polygon class="GUNDAN_RED_PANDA_JEWELRY_GUNDAN_RED_PANDA_JEWELRY_2_cls-5" points="123.86 191.25 124.66 189.81 121.99 190 122.31 191.92 123.86 191.25" />
  <path class="GUNDAN_RED_PANDA_JEWELRY_GUNDAN_RED_PANDA_JEWELRY_2_cls-4" d="M120.81,191.83a5.86,5.86,0,0,0-.36,1.67l1.4-1.3Z" />
  <path class="GUNDAN_RED_PANDA_JEWELRY_GUNDAN_RED_PANDA_JEWELRY_2_cls-4" d="M126,188a5.74,5.74,0,0,0-2,.47l.93.95Z" />
  <path class="GUNDAN_RED_PANDA_JEWELRY_GUNDAN_RED_PANDA_JEWELRY_2_cls-4" d="M123.68,188.59a5.86,5.86,0,0,0-1.53,1.12l2.46-.17Z" />
  <path class="GUNDAN_RED_PANDA_JEWELRY_GUNDAN_RED_PANDA_JEWELRY_2_cls-4" d="M130.51,189.71a6.08,6.08,0,0,0-1.54-1.12l-.93.95Z" />
  <path class="GUNDAN_RED_PANDA_JEWELRY_GUNDAN_RED_PANDA_JEWELRY_2_cls-3" d="M128.64,188.43a5.69,5.69,0,0,0-2-.47l1,1.42Z" />
  <polygon class="GUNDAN_RED_PANDA_JEWELRY_GUNDAN_RED_PANDA_JEWELRY_2_cls-5" points="130.34 191.92 130.67 190 127.99 189.81 128.79 191.25 130.34 191.92" />
  <polygon class="GUNDAN_RED_PANDA_JEWELRY_GUNDAN_RED_PANDA_JEWELRY_2_cls-5" points="127.42 189.6 126.33 188.12 125.23 189.6 126.33 189.97 127.42 189.6" />
  <path class="GUNDAN_RED_PANDA_JEWELRY_GUNDAN_RED_PANDA_JEWELRY_2_cls-3" d="M121.63,190.31a6.76,6.76,0,0,0-.72,1.25l1,.36Z" />
  <path class="GUNDAN_RED_PANDA_JEWELRY_GUNDAN_RED_PANDA_JEWELRY_2_cls-6" d="M126.06,167.39a3.24,3.24,0,0,0-2,3.47" />
</svg>