<svg id="jewelry" xmlns="http://www.w3.org/2000/svg" viewBox="0 0 432 432">
  <defs>
    <style>.GUNDAN_RED_PANDA_JEWELRY_GUNDAN_RED_PANDA_JEWELRY_12_cls-1{fill:#d0b240;}.GUNDAN_RED_PANDA_JEWELRY_GUNDAN_RED_PANDA_JEWELRY_12_cls-2,.GUNDAN_RED_PANDA_JEWELRY_GUNDAN_RED_PANDA_JEWELRY_12_cls-5,.GUNDAN_RED_PANDA_JEWELRY_GUNDAN_RED_PANDA_JEWELRY_12_cls-6{fill:none;stroke:#000;stroke-linecap:round;stroke-linejoin:round;}.GUNDAN_RED_PANDA_JEWELRY_GUNDAN_RED_PANDA_JEWELRY_12_cls-2{stroke-width:1.06px;}.GUNDAN_RED_PANDA_JEWELRY_GUNDAN_RED_PANDA_JEWELRY_12_cls-3{fill:#ecbe38;}.GUNDAN_RED_PANDA_JEWELRY_GUNDAN_RED_PANDA_JEWELRY_12_cls-4{fill:#ad8c2f;}.GUNDAN_RED_PANDA_JEWELRY_GUNDAN_RED_PANDA_JEWELRY_12_cls-5{stroke-width:0.26px;}.GUNDAN_RED_PANDA_JEWELRY_GUNDAN_RED_PANDA_JEWELRY_12_cls-6{stroke-width:0.32px;}</style>
  </defs>
  <path class="GUNDAN_RED_PANDA_JEWELRY_GUNDAN_RED_PANDA_JEWELRY_12_cls-1" d="M205.58,320.78a1.08,1.08,0,0,1,.71.32,1.28,1.28,0,0,1,.4.76,1,1,0,0,1-.28.84,1.19,1.19,0,0,1-.88.36,1.36,1.36,0,0,1-.49-.12,1.17,1.17,0,0,1-.39-.28.89.89,0,0,1-.21-.86,1.56,1.56,0,0,1,.43-.73.89.89,0,0,1,.32-.21A1,1,0,0,1,205.58,320.78Z" />
  <path class="GUNDAN_RED_PANDA_JEWELRY_GUNDAN_RED_PANDA_JEWELRY_12_cls-1" d="M182,300.53a1.12,1.12,0,0,1,1.57.36,1.17,1.17,0,0,1,.14.87,1.12,1.12,0,0,1-.53.7,1.18,1.18,0,0,1-.86.11,1.12,1.12,0,0,1-.32-2Z" />
  <path class="GUNDAN_RED_PANDA_JEWELRY_GUNDAN_RED_PANDA_JEWELRY_12_cls-1" d="M203.88,320.37a1,1,0,0,1,.49.58,1.5,1.5,0,0,1,.07.85,1,1,0,0,1-.59.67,1.22,1.22,0,0,1-1-.06l-.2-.12-.13-.14a1.14,1.14,0,0,1-.19-.34,1.29,1.29,0,0,1,0-.87,1.08,1.08,0,0,1,.61-.63,1.19,1.19,0,0,1,.47-.06l.25.05A.86.86,0,0,1,203.88,320.37Z" />
  <path class="GUNDAN_RED_PANDA_JEWELRY_GUNDAN_RED_PANDA_JEWELRY_12_cls-1" d="M183.14,302.46a1.12,1.12,0,0,1,1.54.44,1.13,1.13,0,1,1-1.54-.44Z" />
  <path class="GUNDAN_RED_PANDA_JEWELRY_GUNDAN_RED_PANDA_JEWELRY_12_cls-1" d="M201.63,319.51a1.18,1.18,0,0,1,.66.56,1.09,1.09,0,0,1,.05.87,1.13,1.13,0,0,1-.56.65,1.09,1.09,0,0,1-.87.07,1.18,1.18,0,0,1-.7-.61,1,1,0,0,1,0-.88,1.31,1.31,0,0,1,.61-.6A1.05,1.05,0,0,1,201.63,319.51Z" />
  <path class="GUNDAN_RED_PANDA_JEWELRY_GUNDAN_RED_PANDA_JEWELRY_12_cls-1" d="M184.22,304.44a1.13,1.13,0,0,1,1.13,2,1.13,1.13,0,1,1-1.13-2Z" />
  <path class="GUNDAN_RED_PANDA_JEWELRY_GUNDAN_RED_PANDA_JEWELRY_12_cls-1" d="M200,318.66a.85.85,0,0,1,.26.31,1.2,1.2,0,0,1,.11.35,1.42,1.42,0,0,1-.1.85.93.93,0,0,1-.69.54,1,1,0,0,1-.5,0,1.63,1.63,0,0,1-.44-.22,1.18,1.18,0,0,1-.26-1.54A1.1,1.1,0,0,1,200,318.66Z" />
  <path class="GUNDAN_RED_PANDA_JEWELRY_GUNDAN_RED_PANDA_JEWELRY_12_cls-1" d="M185.35,306.4a1.16,1.16,0,0,1,1.54.28,1.19,1.19,0,0,1-.2,1.54,1.13,1.13,0,1,1-1.34-1.82Z" />
  <path class="GUNDAN_RED_PANDA_JEWELRY_GUNDAN_RED_PANDA_JEWELRY_12_cls-1" d="M198.08,317.39a1.18,1.18,0,0,1,.25,1.54,1.13,1.13,0,1,1-1.81-1.35A1.16,1.16,0,0,1,198.08,317.39Z" />
  <path class="GUNDAN_RED_PANDA_JEWELRY_GUNDAN_RED_PANDA_JEWELRY_12_cls-1" d="M189.9,309.75a1.14,1.14,0,0,1,0,1.61h0a1.13,1.13,0,0,1-1.66-1.53h0l0,0A1.12,1.12,0,0,1,189.9,309.75Z" />
  <path class="GUNDAN_RED_PANDA_JEWELRY_GUNDAN_RED_PANDA_JEWELRY_12_cls-1" d="M186.69,308.22a1.17,1.17,0,0,1,1.58,0,1.16,1.16,0,0,1,0,1.57l0,0h0a1.13,1.13,0,0,1-1.6,0A1.1,1.1,0,0,1,186.69,308.22Z" />
  <path class="GUNDAN_RED_PANDA_JEWELRY_GUNDAN_RED_PANDA_JEWELRY_12_cls-1" d="M196.46,316a1.16,1.16,0,0,1,.06,1.59,1.12,1.12,0,0,1-1.62.07,1.14,1.14,0,0,1,0-1.61h0A1.14,1.14,0,0,1,196.46,316Z" />
  <path class="GUNDAN_RED_PANDA_JEWELRY_GUNDAN_RED_PANDA_JEWELRY_12_cls-1" d="M190,311.36a1.12,1.12,0,0,1,1.6,0,1.13,1.13,0,1,1-1.61,0Z" />
  <path class="GUNDAN_RED_PANDA_JEWELRY_GUNDAN_RED_PANDA_JEWELRY_12_cls-1" d="M192.38,312.56a1.19,1.19,0,0,1,.81.31,1.14,1.14,0,0,1,0,1.61,1.13,1.13,0,1,1-.84-1.92Z" />
  <path class="GUNDAN_RED_PANDA_JEWELRY_GUNDAN_RED_PANDA_JEWELRY_12_cls-1" d="M194,314.12a1.16,1.16,0,0,1,.81.32,1.12,1.12,0,0,1,0,1.59h0a1.13,1.13,0,1,1-1.63-1.56A1.16,1.16,0,0,1,194,314.12Z" />
  <path class="GUNDAN_RED_PANDA_JEWELRY_GUNDAN_RED_PANDA_JEWELRY_12_cls-2" d="M182,300.53a1.12,1.12,0,0,0,.32,2,1.18,1.18,0,0,0,.86-.11,1.12,1.12,0,0,0,.53-.7,1.17,1.17,0,0,0-.14-.87A1.12,1.12,0,0,0,182,300.53Z" />
  <path class="GUNDAN_RED_PANDA_JEWELRY_GUNDAN_RED_PANDA_JEWELRY_12_cls-1" d="M181.21,298.13a1.14,1.14,0,0,1,1.57.36,1.2,1.2,0,0,1,.14.88,1.11,1.11,0,0,1-.53.69,1.13,1.13,0,0,1-.86.11,1.08,1.08,0,0,1-.68-.49A1.14,1.14,0,0,1,181.21,298.13Z" />
  <path class="GUNDAN_RED_PANDA_JEWELRY_GUNDAN_RED_PANDA_JEWELRY_12_cls-2" d="M181.21,298.13a1.14,1.14,0,0,0-.36,1.55,1.08,1.08,0,0,0,.68.49,1.13,1.13,0,0,0,.86-.11,1.11,1.11,0,0,0,.53-.69,1.2,1.2,0,0,0-.14-.88A1.14,1.14,0,0,0,181.21,298.13Z" />
  <path class="GUNDAN_RED_PANDA_JEWELRY_GUNDAN_RED_PANDA_JEWELRY_12_cls-2" d="M183.14,302.46a1.13,1.13,0,1,0,1.54.44A1.12,1.12,0,0,0,183.14,302.46Z" />
  <path class="GUNDAN_RED_PANDA_JEWELRY_GUNDAN_RED_PANDA_JEWELRY_12_cls-2" d="M184.22,304.44a1.13,1.13,0,1,0,1.13,2,1.13,1.13,0,0,0-1.13-2Z" />
  <path class="GUNDAN_RED_PANDA_JEWELRY_GUNDAN_RED_PANDA_JEWELRY_12_cls-2" d="M185.35,306.4a1.13,1.13,0,1,0,1.34,1.82,1.19,1.19,0,0,0,.2-1.54A1.16,1.16,0,0,0,185.35,306.4Z" />
  <path class="GUNDAN_RED_PANDA_JEWELRY_GUNDAN_RED_PANDA_JEWELRY_12_cls-2" d="M188.31,309.8a1.16,1.16,0,0,0,0-1.57,1.17,1.17,0,0,0-1.58,0,1.1,1.1,0,0,0,0,1.63,1.13,1.13,0,0,0,1.6,0" />
  <path class="GUNDAN_RED_PANDA_JEWELRY_GUNDAN_RED_PANDA_JEWELRY_12_cls-2" d="M190,311.36a1.14,1.14,0,0,0,0-1.61,1.12,1.12,0,0,0-1.59.05l0,0h0a1.13,1.13,0,0,0,1.66,1.53" />
  <path class="GUNDAN_RED_PANDA_JEWELRY_GUNDAN_RED_PANDA_JEWELRY_12_cls-2" d="M189.94,311.36a1.14,1.14,0,1,0,1.61,0,1.12,1.12,0,0,0-1.6,0Z" />
  <path class="GUNDAN_RED_PANDA_JEWELRY_GUNDAN_RED_PANDA_JEWELRY_12_cls-2" d="M191.62,314.51a1.13,1.13,0,0,0,1.6,0,1.14,1.14,0,0,0,0-1.61,1.19,1.19,0,0,0-.81-.31,1.14,1.14,0,0,0-.76,1.95Z" />
  <path class="GUNDAN_RED_PANDA_JEWELRY_GUNDAN_RED_PANDA_JEWELRY_12_cls-2" d="M194.87,316a1.12,1.12,0,0,0,0-1.59,1.11,1.11,0,0,0-1.6,0" />
  <path class="GUNDAN_RED_PANDA_JEWELRY_GUNDAN_RED_PANDA_JEWELRY_12_cls-2" d="M193.23,314.48a1.13,1.13,0,1,0,1.63,1.56" />
  <path class="GUNDAN_RED_PANDA_JEWELRY_GUNDAN_RED_PANDA_JEWELRY_12_cls-2" d="M194.86,316a1.14,1.14,0,0,0,0,1.61,1.12,1.12,0,0,0,1.62-.07,1.16,1.16,0,0,0-.06-1.59,1.14,1.14,0,0,0-1.59,0Z" />
  <path class="GUNDAN_RED_PANDA_JEWELRY_GUNDAN_RED_PANDA_JEWELRY_12_cls-2" d="M196.52,317.58a1.13,1.13,0,1,0,1.81,1.35,1.18,1.18,0,0,0-.25-1.54A1.16,1.16,0,0,0,196.52,317.58Z" />
  <path class="GUNDAN_RED_PANDA_JEWELRY_GUNDAN_RED_PANDA_JEWELRY_12_cls-2" d="M198.33,318.93a1.18,1.18,0,0,0,.26,1.54,1.63,1.63,0,0,0,.44.22,1,1,0,0,0,.5,0,.93.93,0,0,0,.69-.54,1.42,1.42,0,0,0,.1-.85,1.2,1.2,0,0,0-.11-.35.85.85,0,0,0-.26-.31A1.1,1.1,0,0,0,198.33,318.93Z" />
  <path class="GUNDAN_RED_PANDA_JEWELRY_GUNDAN_RED_PANDA_JEWELRY_12_cls-2" d="M200.22,320.17a1,1,0,0,0,0,.88,1.18,1.18,0,0,0,.7.61,1.09,1.09,0,0,0,.87-.07,1.13,1.13,0,0,0,.56-.65,1.09,1.09,0,0,0-.05-.87,1.18,1.18,0,0,0-.66-.56,1.05,1.05,0,0,0-.8.06A1.31,1.31,0,0,0,200.22,320.17Z" />
  <path class="GUNDAN_RED_PANDA_JEWELRY_GUNDAN_RED_PANDA_JEWELRY_12_cls-2" d="M202.34,320.94a1.29,1.29,0,0,0,0,.87,1.14,1.14,0,0,0,.19.34l.13.14.2.12a1.22,1.22,0,0,0,1,.06,1,1,0,0,0,.59-.67,1.5,1.5,0,0,0-.07-.85,1,1,0,0,0-.49-.58.86.86,0,0,0-.21-.07l-.25-.05a1.19,1.19,0,0,0-.47.06A1.08,1.08,0,0,0,202.34,320.94Z" />
  <path class="GUNDAN_RED_PANDA_JEWELRY_GUNDAN_RED_PANDA_JEWELRY_12_cls-2" d="M204.65,322.66a1.17,1.17,0,0,0,.39.28,1.36,1.36,0,0,0,.49.12,1.19,1.19,0,0,0,.88-.36,1,1,0,0,0,.28-.84,1.28,1.28,0,0,0-.4-.76,1.08,1.08,0,0,0-.71-.32,1,1,0,0,0-.39.08.89.89,0,0,0-.32.21,1.56,1.56,0,0,0-.43.73A.89.89,0,0,0,204.65,322.66Z" />
  <path class="GUNDAN_RED_PANDA_JEWELRY_GUNDAN_RED_PANDA_JEWELRY_12_cls-1" d="M266.42,317.29a1.15,1.15,0,0,0-.31.73,1.32,1.32,0,0,0,.23.82,1,1,0,0,0,.77.43,1.17,1.17,0,0,0,.89-.34,1.15,1.15,0,0,0,.28-.42,1.24,1.24,0,0,0,.1-.47.85.85,0,0,0-.43-.77,1.62,1.62,0,0,0-.81-.25,1,1,0,0,0-.38.07A1.08,1.08,0,0,0,266.42,317.29Z" />
  <path class="GUNDAN_RED_PANDA_JEWELRY_GUNDAN_RED_PANDA_JEWELRY_12_cls-1" d="M267.39,315.84a1,1,0,0,0,0,.76,1.52,1.52,0,0,0,.53.67,1,1,0,0,0,.88.09,1.28,1.28,0,0,0,.68-.71.9.9,0,0,0,.06-.22.6.6,0,0,0,0-.19,1.38,1.38,0,0,0-.09-.39,1.32,1.32,0,0,0-.58-.64,1.06,1.06,0,0,0-.87,0,1.13,1.13,0,0,0-.39.28l-.15.2A1.24,1.24,0,0,0,267.39,315.84Z" />
  <path class="GUNDAN_RED_PANDA_JEWELRY_GUNDAN_RED_PANDA_JEWELRY_12_cls-1" d="M268.45,313.68a1.16,1.16,0,0,0-.1.86,1.07,1.07,0,0,0,.55.67,1.14,1.14,0,0,0,.86.09,1.06,1.06,0,0,0,.68-.54,1.19,1.19,0,0,0,.1-.92,1,1,0,0,0-.6-.64,1.34,1.34,0,0,0-.86,0A1,1,0,0,0,268.45,313.68Z" />
  <path class="GUNDAN_RED_PANDA_JEWELRY_GUNDAN_RED_PANDA_JEWELRY_12_cls-1" d="M269.11,311.91a.73.73,0,0,0,0,.4,1.31,1.31,0,0,0,.16.34,1.39,1.39,0,0,0,.66.55.93.93,0,0,0,.87-.07,1,1,0,0,0,.35-.36,1.38,1.38,0,0,0,.17-.46,1.16,1.16,0,0,0-.85-1.3A1.09,1.09,0,0,0,269.11,311.91Z" />
  <path class="GUNDAN_RED_PANDA_JEWELRY_GUNDAN_RED_PANDA_JEWELRY_12_cls-1" d="M269.61,309.71a1.18,1.18,0,0,0,.87,1.3,1.13,1.13,0,1,0,.4-2.22A1.16,1.16,0,0,0,269.61,309.71Z" />
  <path class="GUNDAN_RED_PANDA_JEWELRY_GUNDAN_RED_PANDA_JEWELRY_12_cls-1" d="M269.85,307.58a1.16,1.16,0,0,0,1,1.21,1.13,1.13,0,1,0,.17-2.26h0A1.13,1.13,0,0,0,269.85,307.58Z" />
  <path class="GUNDAN_RED_PANDA_JEWELRY_GUNDAN_RED_PANDA_JEWELRY_12_cls-1" d="M271.47,299.75a1.13,1.13,0,1,0,1.06,1.2,1.13,1.13,0,0,0-1.06-1.2Z" />
  <path class="GUNDAN_RED_PANDA_JEWELRY_GUNDAN_RED_PANDA_JEWELRY_12_cls-1" d="M270.51,302.29a1.14,1.14,0,0,0-.38.78,1.13,1.13,0,1,0,.38-.78Z" />
  <path class="GUNDAN_RED_PANDA_JEWELRY_GUNDAN_RED_PANDA_JEWELRY_12_cls-1" d="M270.37,304.55a1.13,1.13,0,0,0,.67,2h0a1.13,1.13,0,0,0,.14-2.26A1.13,1.13,0,0,0,270.37,304.55Z" />
  <path class="GUNDAN_RED_PANDA_JEWELRY_GUNDAN_RED_PANDA_JEWELRY_12_cls-2" d="M271.48,299.75a1.13,1.13,0,1,1-1.21,1.06,1.14,1.14,0,0,1,1.21-1.06Z" />
  <path class="GUNDAN_RED_PANDA_JEWELRY_GUNDAN_RED_PANDA_JEWELRY_12_cls-2" d="M272.39,303.21a1.13,1.13,0,1,1-1.88-.92,1.13,1.13,0,0,1,.82-.28A1.14,1.14,0,0,1,272.39,303.21Z" />
  <path class="GUNDAN_RED_PANDA_JEWELRY_GUNDAN_RED_PANDA_JEWELRY_12_cls-2" d="M271,306.53a1.13,1.13,0,0,1,.15-2.26" />
  <path class="GUNDAN_RED_PANDA_JEWELRY_GUNDAN_RED_PANDA_JEWELRY_12_cls-2" d="M271.19,304.27a1.13,1.13,0,0,1-.14,2.26" />
  <path class="GUNDAN_RED_PANDA_JEWELRY_GUNDAN_RED_PANDA_JEWELRY_12_cls-2" d="M271.05,306.53a1.13,1.13,0,1,1-.17,2.26,1.16,1.16,0,0,1-1-1.21,1.13,1.13,0,0,1,1.19-1.05Z" />
  <path class="GUNDAN_RED_PANDA_JEWELRY_GUNDAN_RED_PANDA_JEWELRY_12_cls-2" d="M270.88,308.79a1.13,1.13,0,1,1-.4,2.22,1.18,1.18,0,0,1-.87-1.3A1.16,1.16,0,0,1,270.88,308.79Z" />
  <path class="GUNDAN_RED_PANDA_JEWELRY_GUNDAN_RED_PANDA_JEWELRY_12_cls-2" d="M270.48,311a1.16,1.16,0,0,1,.85,1.3,1.38,1.38,0,0,1-.17.46,1,1,0,0,1-.35.36.93.93,0,0,1-.87.07,1.39,1.39,0,0,1-.66-.55,1.31,1.31,0,0,1-.16-.34.73.73,0,0,1,0-.4A1.09,1.09,0,0,1,270.48,311Z" />
  <path class="GUNDAN_RED_PANDA_JEWELRY_GUNDAN_RED_PANDA_JEWELRY_12_cls-2" d="M269.94,313.2a1,1,0,0,1,.6.64,1.19,1.19,0,0,1-.1.92,1.06,1.06,0,0,1-.68.54,1.14,1.14,0,0,1-.86-.09,1.07,1.07,0,0,1-.55-.67,1.16,1.16,0,0,1,.1-.86,1,1,0,0,1,.63-.5A1.34,1.34,0,0,1,269.94,313.2Z" />
  <path class="GUNDAN_RED_PANDA_JEWELRY_GUNDAN_RED_PANDA_JEWELRY_12_cls-2" d="M268.9,315.21a1.32,1.32,0,0,1,.58.64,1.38,1.38,0,0,1,.09.39.6.6,0,0,1,0,.19.9.9,0,0,1-.06.22,1.28,1.28,0,0,1-.68.71,1,1,0,0,1-.88-.09,1.52,1.52,0,0,1-.53-.67,1,1,0,0,1,0-.76,1.24,1.24,0,0,1,.1-.2l.15-.2a1.13,1.13,0,0,1,.39-.28A1.06,1.06,0,0,1,268.9,315.21Z" />
  <path class="GUNDAN_RED_PANDA_JEWELRY_GUNDAN_RED_PANDA_JEWELRY_12_cls-2" d="M268.38,318a1.24,1.24,0,0,1-.1.47,1.15,1.15,0,0,1-.28.42,1.17,1.17,0,0,1-.89.34,1,1,0,0,1-.77-.43,1.32,1.32,0,0,1-.23-.82,1.15,1.15,0,0,1,.31-.73,1.08,1.08,0,0,1,.34-.2,1,1,0,0,1,.38-.07,1.62,1.62,0,0,1,.81.25A.85.85,0,0,1,268.38,318Z" />
  <path d="M238.41,326.63a2.93,2.93,0,0,1-2.17-.66c-.25,0-.52,0-.77,0-.41,0-.79.06-1,.09a2.19,2.19,0,0,1-1.55.59,6.41,6.41,0,0,1-1.22,0,3.4,3.4,0,0,1-2.21-1h-.33l-1.19.11a2.25,2.25,0,0,1-1.59.62,8.06,8.06,0,0,1-1.18,0,3.21,3.21,0,0,1-2.34-1.19c-.67-.16-1.47-.27-1.85-.33a1.88,1.88,0,0,1-.82.25,5.77,5.77,0,0,1-2.12-.4c-1.38-.47-2.25-1.5-2.11-2.49a1.42,1.42,0,0,1,.62-1,2.12,2.12,0,0,1,1.14-.37,4,4,0,0,1,1.07.09,5.55,5.55,0,0,1,2.37,1.26,12.75,12.75,0,0,1,2.4.5,3,3,0,0,1,1.11-.27h.14a5.34,5.34,0,0,1,2.54.68,4.52,4.52,0,0,1,.69-.08,15.91,15.91,0,0,1,1.83,0h.2a3.18,3.18,0,0,1,1.1-.27h.17a5.56,5.56,0,0,1,2.57.71l.7-.05c.77-.05,1.21-.05,1.59,0a2.8,2.8,0,0,1,1.07-.57,6.73,6.73,0,0,1,.9-.13,4.37,4.37,0,0,1,1.66.19,10.6,10.6,0,0,1,2.13-.66,2.76,2.76,0,0,1,1.4-.73l.46-.05a4.8,4.8,0,0,1,2.12.3,10,10,0,0,1,2.15-.49,2.6,2.6,0,0,1,.89-.77,4.69,4.69,0,0,1,1.66-.43,3.86,3.86,0,0,1,.78,0,2.81,2.81,0,0,1,.86-.52l.17-.07.13-.34c.24-.67.28-.77.51-.86l.06,0h.1a.52.52,0,0,1,.38.13l.63.59a.49.49,0,0,1,.15.45,1.66,1.66,0,0,1,.14,1.17,1.81,1.81,0,0,1,.09.73,2.48,2.48,0,0,1-.9,1.66.57.57,0,0,1-.28.11.6.6,0,0,1-.3-.07.49.49,0,0,1-.13-.12A3.54,3.54,0,0,1,251.2,324a3.36,3.36,0,0,1-.93.2,2.69,2.69,0,0,1-1.6-.39c-.59.13-1.26.33-1.61.43-.33.62-1.16,1-2.53,1.08h0a3.4,3.4,0,0,1-2.07-.48c-.51.16-1,.36-1.3.47-.28.65-1.07,1.07-2.41,1.28Zm0-2.33a1.4,1.4,0,0,1,.17.56,4.51,4.51,0,0,0,.53-.1,1.78,1.78,0,0,1-.21-.48h-.25ZM232,325a4.35,4.35,0,0,0,.61,0,1.53,1.53,0,0,1-.06-.45l-.5-.1a1,1,0,0,1,0,.25A.75.75,0,0,1,232,325ZM244.49,323a1.38,1.38,0,0,1,.08.27.89.89,0,0,1,0,.28,2.57,2.57,0,0,0,.4-.06,1.84,1.84,0,0,1-.17-.47h-.34Zm-19.05,1.58a4.35,4.35,0,0,0,.61,0,1.63,1.63,0,0,1-.07-.45,4,4,0,0,0-.54-.1A1.46,1.46,0,0,1,225.44,324.61Zm24.92-2.87a1.62,1.62,0,0,1,.29.57,2.76,2.76,0,0,0,.46-.19,2.17,2.17,0,0,1-.32-.46v0A2.38,2.38,0,0,0,250.36,321.74ZM218,322.5l-.15,0s0,.08.13.17a3.91,3.91,0,0,0,1.43.6,1.9,1.9,0,0,1,.05-.4A3.57,3.57,0,0,0,218,322.5Z" />
  <path d="M218.2,324.29a5.15,5.15,0,0,0,2,.37,1.27,1.27,0,0,0,.75-.26c.24,0,1.34.18,2.19.39a2.75,2.75,0,0,0,2.14,1.14,7.25,7.25,0,0,0,1.12,0,1.67,1.67,0,0,0,1.4-.59c.22,0,1.13-.13,1.92-.15a2.9,2.9,0,0,0,2.06,1,7.69,7.69,0,0,0,1.15,0,1.64,1.64,0,0,0,1.37-.58,21,21,0,0,1,2.14-.13,2.52,2.52,0,0,0,2,.66l.3,0c1.29-.2,2-.6,2.17-1.19.2-.08,1-.4,1.67-.6a2.91,2.91,0,0,0,1.93.52h0c1.32-.11,2.08-.45,2.29-1a17,17,0,0,1,2-.52,2.18,2.18,0,0,0,1.48.4,2.67,2.67,0,0,0,.83-.17c1.19-.43,1.79-1,1.81-1.6l.7-.46h0l0,0a.13.13,0,0,0,0-.16,2.13,2.13,0,0,0,.38-.49,1.13,1.13,0,0,1,0,.26,1.77,1.77,0,0,1-.64,1.19h0l0,0a.13.13,0,0,0,.05.18.09.09,0,0,0,.07,0l.07,0h0a2,2,0,0,0,.74-1.38,1.25,1.25,0,0,0-.1-.67,1.34,1.34,0,0,0-.17-1.18h0a.13.13,0,0,0,0-.18l-.62-.59a.14.14,0,0,0-.14,0c-.07,0-.08,0-.3.63l-.19.51-.32.14a2.41,2.41,0,0,0-.89.56,4.11,4.11,0,0,0-2.37.34,2.31,2.31,0,0,0-.86.8h0a9.49,9.49,0,0,0-2.37.54,4.58,4.58,0,0,0-2.49-.29,2.21,2.21,0,0,0-1.28.71,9.58,9.58,0,0,0-2.3.72,4.52,4.52,0,0,0-2.48-.11,2.44,2.44,0,0,0-1,.6,17.07,17.07,0,0,0-2.53.09,5,5,0,0,0-2.47-.71,2.73,2.73,0,0,0-1.21.28h-.28a11.09,11.09,0,0,0-2.57.1,5,5,0,0,0-2.47-.7,2.88,2.88,0,0,0-1.22.3,13,13,0,0,0-2.6-.53,5.15,5.15,0,0,0-2.29-1.26,2.48,2.48,0,0,0-1.91.22,1.08,1.08,0,0,0-.46.76C216.22,323,217,323.88,218.2,324.29Zm21-.11a1.27,1.27,0,0,0,.53.74,4.13,4.13,0,0,1-1.68.35.48.48,0,0,0,.07-.23,1.12,1.12,0,0,0-.46-1,3.46,3.46,0,0,1,1.53-.15A.62.62,0,0,0,239.22,324.18Zm6.45-.45A4.15,4.15,0,0,1,244,324a.53.53,0,0,0,.24-.58,1.24,1.24,0,0,0-.4-.66,3.77,3.77,0,0,1,1.42,0,.57.57,0,0,0,0,.26A1.21,1.21,0,0,0,245.67,323.73Zm5.47-2.24a1.3,1.3,0,0,0,.66.65,3.67,3.67,0,0,1-1.51.66.69.69,0,0,0,0-.25,1.24,1.24,0,0,0-.66-.9,3,3,0,0,1,1.42-.43A.68.68,0,0,0,251.14,321.49Zm-17.95,3.83a4.47,4.47,0,0,1-2-.15.56.56,0,0,0,.44-.51,1,1,0,0,0-.16-.62,4,4,0,0,1,1.49.24.55.55,0,0,0-.07.24A1.09,1.09,0,0,0,233.19,325.32ZM219.86,323a1,1,0,0,0,.07.82,4.66,4.66,0,0,1-2.19-.78.62.62,0,0,1-.27-.48.37.37,0,0,1,.25-.33,3.29,3.29,0,0,1,2.26.58A.39.39,0,0,0,219.86,323Zm6.81,2a4.82,4.82,0,0,1-1.78-.08.59.59,0,0,0,.13-.18,1,1,0,0,0-.18-1,3.9,3.9,0,0,1,1.58.23.84.84,0,0,0-.06.24A1.15,1.15,0,0,0,226.67,325Zm26.66-6.11.14.14a.37.37,0,0,0-.23.1Z" />
  <path d="M241.52,340.22a3.83,3.83,0,0,1-2.65-.74l-1.39.06-1.19.09a2.53,2.53,0,0,1-1.74.66,8.66,8.66,0,0,1-2-.14,4.42,4.42,0,0,1-2.84-1.62c-.83-.08-1.75-.13-2.25-.16a2.12,2.12,0,0,1-1.21.43,7.6,7.6,0,0,1-2.54-.42,4.2,4.2,0,0,1-2.7-2.19c-.89-.47-2-1-2.44-1.19a1.81,1.81,0,0,1-.31.05,5.64,5.64,0,0,1-3.3-1.53c-1.48-1.19-2.09-2.78-1.48-3.86a1.69,1.69,0,0,1,1.08-.82,2.2,2.2,0,0,1,.37-.06,4.07,4.07,0,0,1,2.33.75,8.65,8.65,0,0,1,2.38,2.5,21.38,21.38,0,0,1,2.61,1.35l.27.16a2.7,2.7,0,0,1,.41-.05,4.44,4.44,0,0,1,1.23.09,8,8,0,0,1,3.05,1.5,18.83,18.83,0,0,1,2.85.31l.71.12a3.63,3.63,0,0,1,1-.18h.66a8.14,8.14,0,0,1,3.26,1.09c1.73-.09,2.53-.1,3.08-.09a3.83,3.83,0,0,1,1.36-.78,8.17,8.17,0,0,1,1.56-.26,6.66,6.66,0,0,1,1.73.12,14.84,14.84,0,0,1,2.55-1.12l.16-.06a3.44,3.44,0,0,1,1.6-1.19,8.25,8.25,0,0,1,2-.39,7,7,0,0,1,1.28,0,16.44,16.44,0,0,1,2.43-1.25l.17-.08a3.7,3.7,0,0,1,.83-1.27,6.39,6.39,0,0,1,2.76-1.45,3.47,3.47,0,0,1,.79-1l.23-.22v-.85c0-.18,0-1,0-1h.39a2.68,2.68,0,0,1,1.63.6,2,2,0,0,1,.84,1.14,3,3,0,0,1-.31,2.32l0,.05c-.24.31-.44.59-.56.76.11.67-.16,1.68-1.8,3a4.17,4.17,0,0,1-2.25.9,2.86,2.86,0,0,1-1-.1c-.82.42-1.75,1-2.1,1.19-.25.86-1.28,1.57-3,2.05a5.08,5.08,0,0,1-1,.17,4,4,0,0,1-1.82-.29c-.72.33-1.49.73-1.83.91-.27.86-1.33,1.51-3.07,1.88A4.43,4.43,0,0,1,241.52,340.22Zm-.14-2.93a1.6,1.6,0,0,1,.33.89,4.69,4.69,0,0,0,1.06-.28,1.88,1.88,0,0,1-.39-.64l0-.1h-.14A5.93,5.93,0,0,0,241.38,337.29Zm-8.57.91a7.42,7.42,0,0,0,1.2.15,1.66,1.66,0,0,1-.08-.69v-.05a5.54,5.54,0,0,0-1-.23,1.48,1.48,0,0,1,0,.42A1.11,1.11,0,0,1,232.81,338.2Zm16.42-3.55a1.83,1.83,0,0,1,.26.42,1.25,1.25,0,0,1,.08.42,5.61,5.61,0,0,0,.85-.3,1.75,1.75,0,0,1-.4-.61l0-.07A4.38,4.38,0,0,0,249.23,334.65Zm-25,1.85a6.7,6.7,0,0,0,1.12.3,1.77,1.77,0,0,1,0-.69s0,0,0-.06a7.18,7.18,0,0,0-1-.38A1.49,1.49,0,0,1,224.24,336.5Zm32-5.35a1.91,1.91,0,0,1,.71.7,4.94,4.94,0,0,0,.75-.65,2,2,0,0,1-.65-.45l-.08-.08A4.8,4.8,0,0,0,256.27,331.15Zm-40.81-.28c-.05,0-.05,0-.07.05s0,.11.09.3a5.68,5.68,0,0,0,1.74,1.56,1.6,1.6,0,0,1,.28-.59,4,4,0,0,0-2-1.32l0-.38Z" />
  <path d="M260.62,327.41a1.58,1.58,0,0,0-.7-.94,2.23,2.23,0,0,0-1.39-.52c0,.24,0,.44,0,.63v.3c0,.26,0,.6,0,.71s-.24.25-.34.34a3.34,3.34,0,0,0-.8,1.05,5.82,5.82,0,0,0-2.74,1.38,3.17,3.17,0,0,0-.79,1.28l-.33.15a14.17,14.17,0,0,0-2.48,1.3,6.9,6.9,0,0,0-3.2.3,3.06,3.06,0,0,0-1.5,1.15l-.28.1a14.67,14.67,0,0,0-2.6,1.17,6.81,6.81,0,0,0-3.24.1,3.49,3.49,0,0,0-1.34.8c-.53,0-1.3,0-3.33.1a7.48,7.48,0,0,0-3.18-1.1,4.26,4.26,0,0,0-1.59.19l-.21,0-.12,0h0l-.45-.07a16.63,16.63,0,0,0-2.92-.3,7.54,7.54,0,0,0-3-1.51,3.74,3.74,0,0,0-1.63,0l-.4-.23a21.22,21.22,0,0,0-2.68-1.37,8.11,8.11,0,0,0-2.32-2.48,3.26,3.26,0,0,0-2.41-.65,1.39,1.39,0,0,0-.84.64c-.51.9.08,2.32,1.39,3.38a5.52,5.52,0,0,0,3,1.44,1.37,1.37,0,0,0,.35-.08c.29.13,1.68.77,2.73,1.33a3.78,3.78,0,0,0,2.5,2.1,7.36,7.36,0,0,0,2.4.4,1.6,1.6,0,0,0,1.1-.44c.3,0,1.56.08,2.62.19a3.85,3.85,0,0,0,2.67,1.6,8.79,8.79,0,0,0,1.91.14,2.1,2.1,0,0,0,1.58-.64c.3,0,1.77-.16,2.92-.18a3.29,3.29,0,0,0,2.48.74,4,4,0,0,0,.67-.09c1.69-.36,2.68-1,2.82-1.77.25-.13,1.26-.66,2.16-1.07a3.59,3.59,0,0,0,1.8.33,5.07,5.07,0,0,0,.92-.16c1.67-.47,2.64-1.15,2.76-1.93.25-.15,1.44-.87,2.41-1.35a2.59,2.59,0,0,0,1,.13,3.79,3.79,0,0,0,2-.82c1.29-1,1.86-2,1.63-2.75l.66-.91h0A2.61,2.61,0,0,0,260.62,327.41Zm-3.93,4.71a1.53,1.53,0,0,0-1.13-.82,4.41,4.41,0,0,1,1.6-1.12.92.92,0,0,0,.18.3,1.6,1.6,0,0,0,1.06.48,4.79,4.79,0,0,1-1.65,1.48A.61.61,0,0,0,256.69,332.12Zm-7.56,3.1a1.48,1.48,0,0,0-.66-.72,5,5,0,0,1,1.85-.39.86.86,0,0,0,.05.32,1.47,1.47,0,0,0,.79.81A5.79,5.79,0,0,1,249,336,.65.65,0,0,0,249.13,335.22Zm-8.47,1.9a5,5,0,0,1,2-.33.75.75,0,0,0,0,.33,1.48,1.48,0,0,0,.77.86,5.3,5.3,0,0,1-2.26.63.58.58,0,0,0,.08-.3A1.38,1.38,0,0,0,240.66,337.12Zm-8.08.62a1.35,1.35,0,0,0-.15-.8,5.9,5.9,0,0,1,2,.45.54.54,0,0,0-.1.3,1.31,1.31,0,0,0,.36,1,6.44,6.44,0,0,1-2.75-.4A.71.71,0,0,0,232.58,337.74Zm-8.76-1.29a1.2,1.2,0,0,0,0-1.29,5.92,5.92,0,0,1,2,.74.66.66,0,0,0-.13.28,1.4,1.4,0,0,0,.23,1.07,6.47,6.47,0,0,1-2.36-.61A.76.76,0,0,0,223.82,336.45Zm-6-4a1.19,1.19,0,0,0-.22,1,6.34,6.34,0,0,1-2.44-2,.71.71,0,0,1-.11-.65.41.41,0,0,1,.39-.27h0c.73,0,2.07,1.06,2.59,1.74A.59.59,0,0,0,217.81,332.42Z" />
  <path d="M252.67,320.75l.42-1.32a1.83,1.83,0,0,1,1.06,1.21" />
  <path class="GUNDAN_RED_PANDA_JEWELRY_GUNDAN_RED_PANDA_JEWELRY_12_cls-3" d="M227.69,325.25s1.13-.15,2.05-.17h0a1.21,1.21,0,0,1-.16-.88,5.44,5.44,0,0,0-1.41,0,4.53,4.53,0,0,0-.46.11A1.26,1.26,0,0,1,227.69,325.25Z" />
  <path class="GUNDAN_RED_PANDA_JEWELRY_GUNDAN_RED_PANDA_JEWELRY_12_cls-3" d="M233.45,325.38a3.87,3.87,0,0,1-2.66-.27h0a.68.68,0,0,1-.33-.44.53.53,0,0,1,0-.36l0,0s-.39,0-.88-.09a1.21,1.21,0,0,0,.16.88h0a2.69,2.69,0,0,0,2,1.06c1.17.12,2.15,0,2.44-.54a1.24,1.24,0,0,0,0-.92,1.9,1.9,0,0,0-.5.18.51.51,0,0,1-.09.35A.5.5,0,0,1,233.45,325.38Z" />
  <path class="GUNDAN_RED_PANDA_JEWELRY_GUNDAN_RED_PANDA_JEWELRY_12_cls-3" d="M251.2,321.09a.58.58,0,0,0,.05.34,1.12,1.12,0,0,0,.78.65.75.75,0,0,0,.07-.23.69.69,0,0,0-.11-.39h0a1.83,1.83,0,0,1,.32-.38,1.67,1.67,0,0,1,.45.9s.32-.23.75-.5h0a1.63,1.63,0,0,0,.39-2.24h0c-.63-.71-1,.47-1.07.5a3.52,3.52,0,0,0-1.24.78A1.09,1.09,0,0,0,251.2,321.09Z" />
  <path class="GUNDAN_RED_PANDA_JEWELRY_GUNDAN_RED_PANDA_JEWELRY_12_cls-4" d="M251.21,321.09a1,1,0,0,1,.38-.58,4,4,0,0,0-2.36.31,2.12,2.12,0,0,0-.84.81l.11,0a1.91,1.91,0,0,1,.89.06A3,3,0,0,1,251.21,321.09Z" />
  <path class="GUNDAN_RED_PANDA_JEWELRY_GUNDAN_RED_PANDA_JEWELRY_12_cls-3" d="M252.76,322a1.67,1.67,0,0,0-.45-.9,1.83,1.83,0,0,0-.32.38h0a.69.69,0,0,1,.11.39.55.55,0,0,1-.07.23,3.17,3.17,0,0,1-2,.88,1,1,0,0,1-.79-.32,1,1,0,0,1-.14-.27c-.08,0-.43,0-.83.06a1.32,1.32,0,0,0,.22.52,1.57,1.57,0,0,0,.3.33,2.34,2.34,0,0,0,2.24.25C252.05,323.15,252.79,322.64,252.76,322Z" />
  <path class="GUNDAN_RED_PANDA_JEWELRY_GUNDAN_RED_PANDA_JEWELRY_12_cls-3" d="M248.78,323.28a1.57,1.57,0,0,1-.3-.33,1.32,1.32,0,0,1-.22-.52h0a5.4,5.4,0,0,0-1.32.27,4.27,4.27,0,0,0-.42.2,1.38,1.38,0,0,1,.18.93h0A17.77,17.77,0,0,1,248.78,323.28Z" />
  <path class="GUNDAN_RED_PANDA_JEWELRY_GUNDAN_RED_PANDA_JEWELRY_12_cls-1" d="M249.23,322.64a1,1,0,0,0,.79.32.38.38,0,0,0,.16-.39,1.13,1.13,0,0,0-.79-.9,1.91,1.91,0,0,0-.89-.06l-.11,0h0a9.69,9.69,0,0,0-2.45.56,1.23,1.23,0,0,0-.56.43.53.53,0,0,0,0,.33,1,1,0,0,0,.6.79.53.53,0,0,0,.12-.2.6.6,0,0,0,0-.38h0a1.5,1.5,0,0,1,.43-.26,4.27,4.27,0,0,1,.42-.2,5.4,5.4,0,0,1,1.32-.27h0c.4,0,.75-.06.83-.06A1,1,0,0,0,249.23,322.64Z" />
  <path class="GUNDAN_RED_PANDA_JEWELRY_GUNDAN_RED_PANDA_JEWELRY_12_cls-4" d="M239.37,323.81a1.06,1.06,0,0,1,.5-.48h0a4.35,4.35,0,0,0-2.46-.12,2.19,2.19,0,0,0-1,.61h.12a2.16,2.16,0,0,1,.9.22A3.38,3.38,0,0,1,239.37,323.81Z" />
  <path class="GUNDAN_RED_PANDA_JEWELRY_GUNDAN_RED_PANDA_JEWELRY_12_cls-4" d="M243.5,322.67a3.46,3.46,0,0,1,1.88-.05,1.23,1.23,0,0,1,.56-.43,4.45,4.45,0,0,0-2.46-.3,2,2,0,0,0-1.24.7l.1,0A1.65,1.65,0,0,1,243.5,322.67Z" />
  <path class="GUNDAN_RED_PANDA_JEWELRY_GUNDAN_RED_PANDA_JEWELRY_12_cls-3" d="M242.55,324.28a2.8,2.8,0,0,0,1.94.54c1.14-.1,2-.38,2.2-1a1.38,1.38,0,0,0-.18-.93,1.5,1.5,0,0,0-.43.26h0a.6.6,0,0,1,0,.38.53.53,0,0,1-.12.2,3.81,3.81,0,0,1-2.38.29h0a.91.91,0,0,1-.63-.48.62.62,0,0,1-.05-.25l-.86.13h0a1.72,1.72,0,0,0,.07.21A1.34,1.34,0,0,0,242.55,324.28Z" />
  <path class="GUNDAN_RED_PANDA_JEWELRY_GUNDAN_RED_PANDA_JEWELRY_12_cls-1" d="M243.56,324h0c.37-.13.58-.31.51-.62a1.12,1.12,0,0,0-.57-.74,1.65,1.65,0,0,0-1.16-.1l-.1,0h0a9.25,9.25,0,0,0-2.36.74h0a1.06,1.06,0,0,0-.5.48h0a.47.47,0,0,0,0,.33,1.08,1.08,0,0,0,.65.76.53.53,0,0,0,.11-.21.62.62,0,0,0,0-.39,2.24,2.24,0,0,1,.4-.3l.4-.22a4.18,4.18,0,0,1,1.13-.35l.86-.13a.62.62,0,0,0,.05.25A.91.91,0,0,0,243.56,324Z" />
  <path class="GUNDAN_RED_PANDA_JEWELRY_GUNDAN_RED_PANDA_JEWELRY_12_cls-3" d="M242,323.43a4.18,4.18,0,0,0-1.13.35l-.4.22a1.46,1.46,0,0,1,.26.93s1-.4,1.8-.65a1.34,1.34,0,0,1-.46-.63,1.72,1.72,0,0,1-.07-.21Z" />
  <path class="GUNDAN_RED_PANDA_JEWELRY_GUNDAN_RED_PANDA_JEWELRY_12_cls-3" d="M240,324.9a3.51,3.51,0,0,1-2.23.47.93.93,0,0,1-.74-.45.8.8,0,0,1-.08-.28c-.08,0-.43-.06-.86-.09a1.49,1.49,0,0,0,.11.54,1.45,1.45,0,0,0,.25.36,2.46,2.46,0,0,0,2.22.64c1.11-.17,2-.52,2.08-1.16a1.46,1.46,0,0,0-.26-.93,2.24,2.24,0,0,0-.4.3.62.62,0,0,1,0,.39A.53.53,0,0,1,240,324.9Z" />
  <path class="GUNDAN_RED_PANDA_JEWELRY_GUNDAN_RED_PANDA_JEWELRY_12_cls-3" d="M234.68,324.57c-.18,0-.34.07-.46.11h0a1.24,1.24,0,0,1,0,.92h0a20.32,20.32,0,0,1,2.23-.15h0a1.45,1.45,0,0,1-.25-.36,1.49,1.49,0,0,1-.11-.54A5.48,5.48,0,0,0,234.68,324.57Z" />
  <path class="GUNDAN_RED_PANDA_JEWELRY_GUNDAN_RED_PANDA_JEWELRY_12_cls-1" d="M234.22,324.68c.12,0,.28-.07.46-.11a5.48,5.48,0,0,1,1.41,0c.43,0,.78.08.86.09a.8.8,0,0,0,.08.28.93.93,0,0,0,.74.45A.36.36,0,0,0,238,325a1,1,0,0,0-.6-1,2.16,2.16,0,0,0-.9-.22h-.12a16.68,16.68,0,0,0-2.6.09l-.57.23-.09.08a.48.48,0,0,0-.11.3,1,1,0,0,0,.43.86.5.5,0,0,0,.18-.17.51.51,0,0,0,.09-.35,1.9,1.9,0,0,1,.5-.18Z" />
  <path class="GUNDAN_RED_PANDA_JEWELRY_GUNDAN_RED_PANDA_JEWELRY_12_cls-4" d="M231.22,323.92a3.94,3.94,0,0,1,1.91.3l.09-.08.57-.23a4.67,4.67,0,0,0-2.44-.72,2.56,2.56,0,0,0-1.18.28,1.67,1.67,0,0,1,1,.36Z" />
  <path class="GUNDAN_RED_PANDA_JEWELRY_GUNDAN_RED_PANDA_JEWELRY_12_cls-1" d="M230.8,325.1c.4,0,.67-.14.69-.45a1,1,0,0,0-.27-.73l-.1-.09a1.67,1.67,0,0,0-1-.36h-.3a10.78,10.78,0,0,0-2.6.11h0a1.28,1.28,0,0,0-.66.32.51.51,0,0,0-.12.3,1,1,0,0,0,.45.85.38.38,0,0,0,.17-.16.54.54,0,0,0,.09-.36h0a1.9,1.9,0,0,1,.5-.18,4.53,4.53,0,0,1,.46-.11,5.44,5.44,0,0,1,1.41,0c.49,0,.88.09.88.09l0,0a.53.53,0,0,0,0,.36.68.68,0,0,0,.33.44h0Z" />
  <path class="GUNDAN_RED_PANDA_JEWELRY_GUNDAN_RED_PANDA_JEWELRY_12_cls-4" d="M224.82,322.85a2.65,2.65,0,0,0-1.21.31l.11,0a2.24,2.24,0,0,1,.85.41,3.77,3.77,0,0,1,2,.27,1.28,1.28,0,0,1,.66-.32A4.86,4.86,0,0,0,224.82,322.85Z" />
  <path class="GUNDAN_RED_PANDA_JEWELRY_GUNDAN_RED_PANDA_JEWELRY_12_cls-3" d="M223.18,324.68a2.62,2.62,0,0,0,2.07,1.12c1.18.12,2.15,0,2.44-.55h0a1.26,1.26,0,0,0,0-.92,1.9,1.9,0,0,0-.5.18h0a.54.54,0,0,1-.09.36.38.38,0,0,1-.17.16,4.07,4.07,0,0,1-2.39-.11.89.89,0,0,1-.62-.58.66.66,0,0,1,0-.28l-.85-.3a1.14,1.14,0,0,0,0,.52,1.44,1.44,0,0,0,.13.4Z" />
  <path class="GUNDAN_RED_PANDA_JEWELRY_GUNDAN_RED_PANDA_JEWELRY_12_cls-3" d="M220.88,324.27a21.53,21.53,0,0,1,2.3.41,1.44,1.44,0,0,1-.13-.4,1.14,1.14,0,0,1,0-.52,7.87,7.87,0,0,0-1.42-.32,4.58,4.58,0,0,0-.51,0A1.16,1.16,0,0,1,220.88,324.27Z" />
  <path class="GUNDAN_RED_PANDA_JEWELRY_GUNDAN_RED_PANDA_JEWELRY_12_cls-1" d="M224.55,324.92a.42.42,0,0,0,.35-.25,1,1,0,0,0-.33-1.06,2.24,2.24,0,0,0-.85-.41l-.11,0h0a12.34,12.34,0,0,0-2.65-.54,1.41,1.41,0,0,0-.76.13.49.49,0,0,0-.21.24.85.85,0,0,0,.2.89.51.51,0,0,0,.22-.11.45.45,0,0,0,.2-.3h0a2.48,2.48,0,0,1,.55,0,4.58,4.58,0,0,1,.51,0,7.87,7.87,0,0,1,1.42.32l.85.3a.66.66,0,0,0,0,.28A.89.89,0,0,0,224.55,324.92Z" />
  <path class="GUNDAN_RED_PANDA_JEWELRY_GUNDAN_RED_PANDA_JEWELRY_12_cls-4" d="M221.15,323.43a2.48,2.48,0,0,0-.55,0h0a.45.45,0,0,1-.2.3.51.51,0,0,1-.22.11c-.44.12-2.91-.46-2.84-1.38s2.29-.25,2.85.25a1.41,1.41,0,0,1,.76-.13,4.91,4.91,0,0,0-2.27-1.26c-1.29-.27-2.11.13-2.22.87s.63,1.54,1.78,1.94,2.18.54,2.63.1h0A1.16,1.16,0,0,0,221.15,323.43Z" />
  <path class="GUNDAN_RED_PANDA_JEWELRY_GUNDAN_RED_PANDA_JEWELRY_12_cls-5" d="M252,321.46a1.83,1.83,0,0,1,.32-.38l.33-.3a3.59,3.59,0,0,1,.92-.52" />
  <path class="GUNDAN_RED_PANDA_JEWELRY_GUNDAN_RED_PANDA_JEWELRY_12_cls-5" d="M252.76,322s.32-.23.75-.5h0" />
  <path class="GUNDAN_RED_PANDA_JEWELRY_GUNDAN_RED_PANDA_JEWELRY_12_cls-5" d="M253.91,319.23l-.62-.58s-.4,1.1-.45,1.12a3.1,3.1,0,0,0-1.25.74,1.09,1.09,0,0,0-.39.58.58.58,0,0,0,.05.34,1.12,1.12,0,0,0,.78.65" />
  <path class="GUNDAN_RED_PANDA_JEWELRY_GUNDAN_RED_PANDA_JEWELRY_12_cls-5" d="M252,321.46a.69.69,0,0,1,.11.39.55.55,0,0,1-.07.23,3.17,3.17,0,0,1-2,.88,1,1,0,0,1-.79-.32,1,1,0,0,1-.14-.27" />
  <path class="GUNDAN_RED_PANDA_JEWELRY_GUNDAN_RED_PANDA_JEWELRY_12_cls-5" d="M249.39,321.67a3,3,0,0,1,1.82-.58" />
  <path class="GUNDAN_RED_PANDA_JEWELRY_GUNDAN_RED_PANDA_JEWELRY_12_cls-5" d="M248.26,322.43a1.32,1.32,0,0,0,.22.52,1.57,1.57,0,0,0,.3.33,2.34,2.34,0,0,0,2.24.25c1-.38,1.77-.89,1.74-1.55a1.67,1.67,0,0,0-.45-.9h0" />
  <path class="GUNDAN_RED_PANDA_JEWELRY_GUNDAN_RED_PANDA_JEWELRY_12_cls-5" d="M248.39,321.63a2.12,2.12,0,0,1,.84-.81,4,4,0,0,1,2.36-.31" />
  <path class="GUNDAN_RED_PANDA_JEWELRY_GUNDAN_RED_PANDA_JEWELRY_12_cls-5" d="M246.08,323.16a1.5,1.5,0,0,1,.43-.26,4.27,4.27,0,0,1,.42-.2,5.4,5.4,0,0,1,1.32-.27h0c.4,0,.75-.06.83-.06h0" />
  <path class="GUNDAN_RED_PANDA_JEWELRY_GUNDAN_RED_PANDA_JEWELRY_12_cls-5" d="M246.7,323.83a17.77,17.77,0,0,1,2.08-.55" />
  <path class="GUNDAN_RED_PANDA_JEWELRY_GUNDAN_RED_PANDA_JEWELRY_12_cls-5" d="M250,323a.38.38,0,0,0,.16-.39,1.13,1.13,0,0,0-.79-.9,1.91,1.91,0,0,0-.89-.06l-.11,0h0a9.69,9.69,0,0,0-2.45.56,1.23,1.23,0,0,0-.56.43.53.53,0,0,0,0,.33,1,1,0,0,0,.6.79" />
  <path class="GUNDAN_RED_PANDA_JEWELRY_GUNDAN_RED_PANDA_JEWELRY_12_cls-5" d="M243.56,324a.91.91,0,0,1-.63-.48.62.62,0,0,1-.05-.25" />
  <path class="GUNDAN_RED_PANDA_JEWELRY_GUNDAN_RED_PANDA_JEWELRY_12_cls-5" d="M246.08,323.16a.6.6,0,0,1,0,.38.53.53,0,0,1-.12.2,3.81,3.81,0,0,1-2.38.29" />
  <path class="GUNDAN_RED_PANDA_JEWELRY_GUNDAN_RED_PANDA_JEWELRY_12_cls-5" d="M243.5,322.67a3.46,3.46,0,0,1,1.88-.05h0" />
  <path class="GUNDAN_RED_PANDA_JEWELRY_GUNDAN_RED_PANDA_JEWELRY_12_cls-5" d="M246.51,322.89h0a1.38,1.38,0,0,1,.18.93c-.16.61-1.06.89-2.2,1a2.8,2.8,0,0,1-1.94-.54,1.34,1.34,0,0,1-.46-.63,1.72,1.72,0,0,1-.07-.21" />
  <path class="GUNDAN_RED_PANDA_JEWELRY_GUNDAN_RED_PANDA_JEWELRY_12_cls-5" d="M242.24,322.59a2,2,0,0,1,1.24-.7,4.45,4.45,0,0,1,2.46.3h0" />
  <path class="GUNDAN_RED_PANDA_JEWELRY_GUNDAN_RED_PANDA_JEWELRY_12_cls-5" d="M240.09,324.3a2.24,2.24,0,0,1,.4-.3l.4-.22a4.18,4.18,0,0,1,1.13-.35l.86-.13.13,0" />
  <path class="GUNDAN_RED_PANDA_JEWELRY_GUNDAN_RED_PANDA_JEWELRY_12_cls-5" d="M240.75,324.93s1-.4,1.8-.65" />
  <path class="GUNDAN_RED_PANDA_JEWELRY_GUNDAN_RED_PANDA_JEWELRY_12_cls-5" d="M243.56,324h0c.37-.13.58-.31.51-.62a1.12,1.12,0,0,0-.57-.74,1.65,1.65,0,0,0-1.16-.1l-.1,0h0a9.25,9.25,0,0,0-2.36.74h0a1.06,1.06,0,0,0-.5.48h0a.47.47,0,0,0,0,.33,1.08,1.08,0,0,0,.65.76h0" />
  <path class="GUNDAN_RED_PANDA_JEWELRY_GUNDAN_RED_PANDA_JEWELRY_12_cls-5" d="M240.09,324.3a.62.62,0,0,1,0,.39.53.53,0,0,1-.11.21,3.51,3.51,0,0,1-2.23.47.93.93,0,0,1-.74-.45.8.8,0,0,1-.08-.28" />
  <path class="GUNDAN_RED_PANDA_JEWELRY_GUNDAN_RED_PANDA_JEWELRY_12_cls-5" d="M237.41,324a3.38,3.38,0,0,1,2-.23" />
  <path class="GUNDAN_RED_PANDA_JEWELRY_GUNDAN_RED_PANDA_JEWELRY_12_cls-5" d="M236.09,324.55a1.49,1.49,0,0,0,.11.54,1.45,1.45,0,0,0,.25.36,2.46,2.46,0,0,0,2.22.64c1.11-.17,2-.52,2.08-1.16a1.46,1.46,0,0,0-.26-.93h0" />
  <path class="GUNDAN_RED_PANDA_JEWELRY_GUNDAN_RED_PANDA_JEWELRY_12_cls-5" d="M236.39,323.82a2.19,2.19,0,0,1,1-.61,4.35,4.35,0,0,1,2.46.12" />
  <path class="GUNDAN_RED_PANDA_JEWELRY_GUNDAN_RED_PANDA_JEWELRY_12_cls-5" d="M234.22,324.68c.12,0,.28-.07.46-.11a5.48,5.48,0,0,1,1.41,0c.43,0,.78.08.86.09h0" />
  <path class="GUNDAN_RED_PANDA_JEWELRY_GUNDAN_RED_PANDA_JEWELRY_12_cls-5" d="M233.72,324.86a1.9,1.9,0,0,1,.5-.18" />
  <path class="GUNDAN_RED_PANDA_JEWELRY_GUNDAN_RED_PANDA_JEWELRY_12_cls-5" d="M234.21,325.6a20.32,20.32,0,0,1,2.23-.15" />
  <path class="GUNDAN_RED_PANDA_JEWELRY_GUNDAN_RED_PANDA_JEWELRY_12_cls-5" d="M237.77,325.37A.36.36,0,0,0,238,325a1,1,0,0,0-.6-1,2.16,2.16,0,0,0-.9-.22h-.12a16.68,16.68,0,0,0-2.6.09l-.57.23-.09.08a.48.48,0,0,0-.11.3,1,1,0,0,0,.43.86" />
  <path class="GUNDAN_RED_PANDA_JEWELRY_GUNDAN_RED_PANDA_JEWELRY_12_cls-5" d="M233.14,324.23h0a3.94,3.94,0,0,0-1.91-.3" />
  <path class="GUNDAN_RED_PANDA_JEWELRY_GUNDAN_RED_PANDA_JEWELRY_12_cls-5" d="M230.48,324.3a.53.53,0,0,0,0,.36.68.68,0,0,0,.33.44h0a3.87,3.87,0,0,0,2.66.27.5.5,0,0,0,.18-.17.51.51,0,0,0,.09-.35" />
  <path class="GUNDAN_RED_PANDA_JEWELRY_GUNDAN_RED_PANDA_JEWELRY_12_cls-5" d="M233.8,323.91h0a4.67,4.67,0,0,0-2.44-.72,2.56,2.56,0,0,0-1.18.28" />
  <path class="GUNDAN_RED_PANDA_JEWELRY_GUNDAN_RED_PANDA_JEWELRY_12_cls-5" d="M229.57,324.19a1.21,1.21,0,0,0,.16.88h0a2.69,2.69,0,0,0,2,1.06c1.17.12,2.15,0,2.44-.54a1.24,1.24,0,0,0,0-.92h0" />
  <path class="GUNDAN_RED_PANDA_JEWELRY_GUNDAN_RED_PANDA_JEWELRY_12_cls-5" d="M230.45,324.28s-.39,0-.88-.09a5.44,5.44,0,0,0-1.41,0,4.53,4.53,0,0,0-.46.11,1.9,1.9,0,0,0-.5.18" />
  <path class="GUNDAN_RED_PANDA_JEWELRY_GUNDAN_RED_PANDA_JEWELRY_12_cls-5" d="M227.69,325.25s1.13-.15,2.05-.17" />
  <path class="GUNDAN_RED_PANDA_JEWELRY_GUNDAN_RED_PANDA_JEWELRY_12_cls-5" d="M226.94,325h0a1,1,0,0,1-.45-.85.51.51,0,0,1,.12-.3,1.28,1.28,0,0,1,.66-.32h0a10.78,10.78,0,0,1,2.6-.11h.3a1.67,1.67,0,0,1,1,.36l.1.09a1,1,0,0,1,.27.73c0,.31-.29.42-.69.45h0" />
  <path class="GUNDAN_RED_PANDA_JEWELRY_GUNDAN_RED_PANDA_JEWELRY_12_cls-5" d="M227.2,324.51a.54.54,0,0,1-.09.36.38.38,0,0,1-.17.16,4.07,4.07,0,0,1-2.39-.11.89.89,0,0,1-.62-.58.66.66,0,0,1,0-.28" />
  <path class="GUNDAN_RED_PANDA_JEWELRY_GUNDAN_RED_PANDA_JEWELRY_12_cls-5" d="M224.57,323.61a3.77,3.77,0,0,1,2,.27h0" />
  <path class="GUNDAN_RED_PANDA_JEWELRY_GUNDAN_RED_PANDA_JEWELRY_12_cls-5" d="M223.18,324.68a2.62,2.62,0,0,0,2.07,1.12c1.18.12,2.15,0,2.44-.55h0a1.26,1.26,0,0,0,0-.92h0" />
  <path class="GUNDAN_RED_PANDA_JEWELRY_GUNDAN_RED_PANDA_JEWELRY_12_cls-5" d="M223.08,323.76a1.14,1.14,0,0,0,0,.52,1.44,1.44,0,0,0,.13.4" />
  <path class="GUNDAN_RED_PANDA_JEWELRY_GUNDAN_RED_PANDA_JEWELRY_12_cls-5" d="M223.61,323.16a2.65,2.65,0,0,1,1.21-.31,4.86,4.86,0,0,1,2.45.71h0" />
  <path class="GUNDAN_RED_PANDA_JEWELRY_GUNDAN_RED_PANDA_JEWELRY_12_cls-5" d="M220.6,323.47a2.48,2.48,0,0,1,.55,0,4.58,4.58,0,0,1,.51,0,7.87,7.87,0,0,1,1.42.32l.85.3h0" />
  <path class="GUNDAN_RED_PANDA_JEWELRY_GUNDAN_RED_PANDA_JEWELRY_12_cls-5" d="M220.88,324.27a21.53,21.53,0,0,1,2.3.41h0" />
  <path class="GUNDAN_RED_PANDA_JEWELRY_GUNDAN_RED_PANDA_JEWELRY_12_cls-5" d="M224.55,324.92a.42.42,0,0,0,.35-.25,1,1,0,0,0-.33-1.06,2.24,2.24,0,0,0-.85-.41l-.11,0h0a12.34,12.34,0,0,0-2.65-.54,1.41,1.41,0,0,0-.76.13.49.49,0,0,0-.21.24.85.85,0,0,0,.2.89" />
  <path class="GUNDAN_RED_PANDA_JEWELRY_GUNDAN_RED_PANDA_JEWELRY_12_cls-5" d="M220.19,322.75c-.56-.5-2.76-1.29-2.85-.25s2.4,1.5,2.84,1.38a.51.51,0,0,0,.22-.11.45.45,0,0,0,.2-.3" />
  <path class="GUNDAN_RED_PANDA_JEWELRY_GUNDAN_RED_PANDA_JEWELRY_12_cls-5" d="M221,322.62h0a4.91,4.91,0,0,0-2.27-1.26c-1.29-.27-2.11.13-2.22.87s.63,1.54,1.78,1.94,2.18.54,2.63.1h0a1.16,1.16,0,0,0,.27-.84" />
  <path class="GUNDAN_RED_PANDA_JEWELRY_GUNDAN_RED_PANDA_JEWELRY_12_cls-5" d="M253.81,320.22h0a1.63,1.63,0,0,1-.39,2.24h0" />
  <path d="M258.59,327.7c0-.71,0-1.06-.06-1.75a2.15,2.15,0,0,1,1.73.89" />
  <path class="GUNDAN_RED_PANDA_JEWELRY_GUNDAN_RED_PANDA_JEWELRY_12_cls-3" d="M227.26,337.82s1.53.07,2.77.2v0a1.35,1.35,0,0,1-.16-.61,1.26,1.26,0,0,1,.07-.52,9.42,9.42,0,0,0-1.86-.23,5,5,0,0,0-.63.05A1.41,1.41,0,0,1,227.26,337.82Z" />
  <path class="GUNDAN_RED_PANDA_JEWELRY_GUNDAN_RED_PANDA_JEWELRY_12_cls-3" d="M235,338.8a5.34,5.34,0,0,1-3.57-.59h0a.85.85,0,0,1-.4-.6.63.63,0,0,1,.09-.45l0,0-1.15-.25a1.26,1.26,0,0,0-.07.52,1.35,1.35,0,0,0,.16.61v0a3.61,3.61,0,0,0,2.61,1.6c1.6.27,3,.17,3.38-.51a1.46,1.46,0,0,0,0-1.15,3,3,0,0,0-.67.2.63.63,0,0,1-.14.44A.54.54,0,0,1,235,338.8Z" />
  <path class="GUNDAN_RED_PANDA_JEWELRY_GUNDAN_RED_PANDA_JEWELRY_12_cls-3" d="M257.27,330a.63.63,0,0,0,.19.39,1.33,1.33,0,0,0,1.2.41.69.69,0,0,0-.3-.71h0a2.16,2.16,0,0,1,.23-.59,1.92,1.92,0,0,1,.91.85s.3-.44.7-1c0,0,0,0,0,0,.51-.81.51-2.33-.52-2.81h0c-1-.51-1,1.05-1,1.1a6,6,0,0,0-1.15,1.49A1.56,1.56,0,0,0,257.27,330Z" />
  <path class="GUNDAN_RED_PANDA_JEWELRY_GUNDAN_RED_PANDA_JEWELRY_12_cls-4" d="M257.27,330a1.42,1.42,0,0,1,.23-.86,5.64,5.64,0,0,0-2.72,1.35,2.94,2.94,0,0,0-.78,1.29l.14-.06a2.63,2.63,0,0,1,1.12-.27A4.24,4.24,0,0,1,257.27,330Z" />
  <path class="GUNDAN_RED_PANDA_JEWELRY_GUNDAN_RED_PANDA_JEWELRY_12_cls-3" d="M259.51,330.32a2,2,0,0,0-.91-.85,2.16,2.16,0,0,0-.23.59h0a.76.76,0,0,1,.28.41.6.6,0,0,1,0,.3,4.3,4.3,0,0,1-2.18,2,1.22,1.22,0,0,1-1.11-.06,1.35,1.35,0,0,1-.26-.28c-.1,0-.53.19-1,.4a1.62,1.62,0,0,0,.44.55,2,2,0,0,0,.49.28A3.11,3.11,0,0,0,258,333C259.11,332.06,259.82,331.08,259.51,330.32Z" />
  <path class="GUNDAN_RED_PANDA_JEWELRY_GUNDAN_RED_PANDA_JEWELRY_12_cls-3" d="M255,333.62a2,2,0,0,1-.49-.28,1.62,1.62,0,0,1-.44-.55h0a8.23,8.23,0,0,0-1.6.8L252,334a1.63,1.63,0,0,1,.49,1.09h0S253.91,334.17,255,333.62Z" />
  <path class="GUNDAN_RED_PANDA_JEWELRY_GUNDAN_RED_PANDA_JEWELRY_12_cls-1" d="M255.37,332.67a1.22,1.22,0,0,0,1.11.06.49.49,0,0,0,.07-.54,1.42,1.42,0,0,0-1.29-.76,2.63,2.63,0,0,0-1.12.27l-.14.06h0a16.24,16.24,0,0,0-2.9,1.5,1.52,1.52,0,0,0-.6.7.58.58,0,0,0,0,.41,1.26,1.26,0,0,0,1,.8.74.74,0,0,0,.12-.28.69.69,0,0,0-.08-.47h0A2.64,2.64,0,0,1,252,334l.48-.37a8.23,8.23,0,0,1,1.6-.8h0c.49-.21.92-.36,1-.4A1.35,1.35,0,0,0,255.37,332.67Z" />
  <path class="GUNDAN_RED_PANDA_JEWELRY_GUNDAN_RED_PANDA_JEWELRY_12_cls-4" d="M242.89,336.65a1.46,1.46,0,0,1,.61-.67h0a6.58,6.58,0,0,0-3.21.08,3.3,3.3,0,0,0-1.34.81h.16a2.79,2.79,0,0,1,1.19.23A4.91,4.91,0,0,1,242.89,336.65Z" />
  <path class="GUNDAN_RED_PANDA_JEWELRY_GUNDAN_RED_PANDA_JEWELRY_12_cls-4" d="M248.09,334.5a4.92,4.92,0,0,1,2.41-.54,1.52,1.52,0,0,1,.6-.7,6.43,6.43,0,0,0-3.18.28,2.77,2.77,0,0,0-1.45,1.13l.12-.05A2.31,2.31,0,0,1,248.09,334.5Z" />
  <path class="GUNDAN_RED_PANDA_JEWELRY_GUNDAN_RED_PANDA_JEWELRY_12_cls-3" d="M247.15,336.72a3.58,3.58,0,0,0,2.68.19c1.49-.41,2.61-1.07,2.66-1.87A1.63,1.63,0,0,0,252,334a2.64,2.64,0,0,0-.48.46h0a.69.69,0,0,1,.08.47.74.74,0,0,1-.12.28,5,5,0,0,1-3,1h0a1.09,1.09,0,0,1-.91-.44.71.71,0,0,1-.12-.31c-.21.07-.63.19-1.09.35h0a1,1,0,0,0,.12.25A1.66,1.66,0,0,0,247.15,336.72Z" />
  <path class="GUNDAN_RED_PANDA_JEWELRY_GUNDAN_RED_PANDA_JEWELRY_12_cls-1" d="M248.44,336.17h0c.46-.24.7-.52.55-.89a1.46,1.46,0,0,0-.9-.78,2.31,2.31,0,0,0-1.5.12l-.12.05h0a16.17,16.17,0,0,0-3,1.31h0a1.46,1.46,0,0,0-.61.67h0a.56.56,0,0,0,0,.42,1.31,1.31,0,0,0,1,.86.57.57,0,0,0,.12-.28.75.75,0,0,0-.07-.47,2.61,2.61,0,0,1,.5-.44l.49-.35a6.69,6.69,0,0,1,1.44-.62c.46-.16.88-.28,1.09-.35a.71.71,0,0,0,.12.31A1.09,1.09,0,0,0,248.44,336.17Z" />
  <path class="GUNDAN_RED_PANDA_JEWELRY_GUNDAN_RED_PANDA_JEWELRY_12_cls-3" d="M246.32,335.77a6.69,6.69,0,0,0-1.44.62l-.49.35a1.73,1.73,0,0,1,.46,1.13s1.23-.67,2.3-1.15a1.66,1.66,0,0,1-.71-.7,1,1,0,0,1-.12-.25Z" />
  <path class="GUNDAN_RED_PANDA_JEWELRY_GUNDAN_RED_PANDA_JEWELRY_12_cls-3" d="M243.84,337.93a4.86,4.86,0,0,1-3,.83,1.22,1.22,0,0,1-1-.52.81.81,0,0,1-.12-.35c-.11,0-.58-.05-1.16-.08a1.51,1.51,0,0,0,.17.67,1.45,1.45,0,0,0,.33.45,3.43,3.43,0,0,0,3.06.66c1.52-.33,2.66-.91,2.72-1.72a1.73,1.73,0,0,0-.46-1.13,2.61,2.61,0,0,0-.5.44.75.75,0,0,1,.07.47A.57.57,0,0,1,243.84,337.93Z" />
  <path class="GUNDAN_RED_PANDA_JEWELRY_GUNDAN_RED_PANDA_JEWELRY_12_cls-3" d="M236.69,337.83l-.62.12h0a1.46,1.46,0,0,1,0,1.15h0s1.74-.16,3-.18h0a1.45,1.45,0,0,1-.33-.45,1.51,1.51,0,0,1-.17-.67A9,9,0,0,0,236.69,337.83Z" />
  <path class="GUNDAN_RED_PANDA_JEWELRY_GUNDAN_RED_PANDA_JEWELRY_12_cls-1" d="M236.07,338l.62-.12a9,9,0,0,1,1.88,0c.58,0,1.05.07,1.16.08a.81.81,0,0,0,.12.35,1.22,1.22,0,0,0,1,.52.49.49,0,0,0,.32-.45,1.33,1.33,0,0,0-.87-1.2,2.79,2.79,0,0,0-1.19-.23H239c-.6,0-1.37,0-3.43.1l-.77.27-.12.09a.52.52,0,0,0-.17.37,1.2,1.2,0,0,0,.54,1.1.54.54,0,0,0,.24-.2.63.63,0,0,0,.14-.44,3,3,0,0,1,.67-.2Z" />
  <path class="GUNDAN_RED_PANDA_JEWELRY_GUNDAN_RED_PANDA_JEWELRY_12_cls-4" d="M232.13,336.78a5.76,5.76,0,0,1,2.51.55l.12-.09.77-.27a7.34,7.34,0,0,0-3.15-1.1,3.84,3.84,0,0,0-1.57.2,2.29,2.29,0,0,1,1.2.58A.71.71,0,0,1,232.13,336.78Z" />
  <path class="GUNDAN_RED_PANDA_JEWELRY_GUNDAN_RED_PANDA_JEWELRY_12_cls-1" d="M231.45,338.19c.54,0,.92-.09,1-.47a1.2,1.2,0,0,0-.29-.94.71.71,0,0,0-.12-.13,2.29,2.29,0,0,0-1.2-.58l-.24-.05h-.14a20.46,20.46,0,0,0-3.4-.38h0a1.75,1.75,0,0,0-.92.23.62.62,0,0,0-.22.35,1.24,1.24,0,0,0,.41,1.16.56.56,0,0,0,.27-.16.59.59,0,0,0,.18-.42h0a3.15,3.15,0,0,1,.68-.1,5,5,0,0,1,.63-.05,9.33,9.33,0,0,1,1.86.23c.63.12,1.15.25,1.15.25l0,0a.63.63,0,0,0-.09.45.85.85,0,0,0,.4.6h0Z" />
  <path class="GUNDAN_RED_PANDA_JEWELRY_GUNDAN_RED_PANDA_JEWELRY_12_cls-4" d="M224.06,334.11a3.7,3.7,0,0,0-1.63,0l.14.08a3.08,3.08,0,0,1,1,.78,5.67,5.67,0,0,1,2.58.89,1.75,1.75,0,0,1,.92-.23A7.36,7.36,0,0,0,224.06,334.11Z" />
  <path class="GUNDAN_RED_PANDA_JEWELRY_GUNDAN_RED_PANDA_JEWELRY_12_cls-3" d="M221.45,335.81a3.55,3.55,0,0,0,2.42,2.06c1.55.49,2.89.57,3.39-.05h0a1.41,1.41,0,0,0,.18-1.13,3.15,3.15,0,0,0-.68.1h0a.59.59,0,0,1-.18.42.56.56,0,0,1-.27.16,5.51,5.51,0,0,1-3.14-.8,1.19,1.19,0,0,1-.64-.92.82.82,0,0,1,.07-.34l-1-.65a1.2,1.2,0,0,0-.2.62,1.8,1.8,0,0,0,.05.52Z" />
  <path class="GUNDAN_RED_PANDA_JEWELRY_GUNDAN_RED_PANDA_JEWELRY_12_cls-3" d="M218.6,334.42s1.65.74,2.84,1.38a1.8,1.8,0,0,1-.05-.52,1.2,1.2,0,0,1,.2-.62,10.84,10.84,0,0,0-1.72-.92c-.25-.09-.45-.17-.63-.22A1.3,1.3,0,0,1,218.6,334.42Z" />
  <path class="GUNDAN_RED_PANDA_JEWELRY_GUNDAN_RED_PANDA_JEWELRY_12_cls-1" d="M223.16,336.57a.53.53,0,0,0,.53-.21,1.15,1.15,0,0,0-.16-1.39,3.08,3.08,0,0,0-1-.78l-.14-.08h0a23.06,23.06,0,0,0-3.16-1.64,2,2,0,0,0-1-.16.52.52,0,0,0-.35.2,1,1,0,0,0-.07,1.15.68.68,0,0,0,.32,0,.58.58,0,0,0,.35-.28h0a4.22,4.22,0,0,1,.71.18c.18.05.38.13.63.22a10.84,10.84,0,0,1,1.72.92l1,.65a.82.82,0,0,0-.07.34A1.19,1.19,0,0,0,223.16,336.57Z" />
  <path class="GUNDAN_RED_PANDA_JEWELRY_GUNDAN_RED_PANDA_JEWELRY_12_cls-4" d="M219.24,333.52a4.22,4.22,0,0,0-.71-.18h0a.58.58,0,0,1-.35.28.68.68,0,0,1-.32,0c-.61-.05-3.45-1.93-3-3s2.87.79,3.38,1.62a2,2,0,0,1,1,.16A7.67,7.67,0,0,0,217,330c-1.44-.9-2.57-.86-3-.06s.06,2.14,1.35,3.17,2.56,1.65,3.3,1.32h0A1.3,1.3,0,0,0,219.24,333.52Z" />
  <path class="GUNDAN_RED_PANDA_JEWELRY_GUNDAN_RED_PANDA_JEWELRY_12_cls-6" d="M258.37,330.06a2.16,2.16,0,0,1,.23-.59c.07-.14.15-.31.27-.51a5.09,5.09,0,0,1,.88-1.06" />
  <path class="GUNDAN_RED_PANDA_JEWELRY_GUNDAN_RED_PANDA_JEWELRY_12_cls-6" d="M259.51,330.32s.3-.44.7-1c0,0,0,0,0,0" />
  <path class="GUNDAN_RED_PANDA_JEWELRY_GUNDAN_RED_PANDA_JEWELRY_12_cls-6" d="M259.7,326.52l-1-.38s0,1.48,0,1.53a4.85,4.85,0,0,0-1.19,1.44,1.41,1.41,0,0,0-.23.87.58.58,0,0,0,.19.39,1.33,1.33,0,0,0,1.2.41" />
  <path class="GUNDAN_RED_PANDA_JEWELRY_GUNDAN_RED_PANDA_JEWELRY_12_cls-6" d="M258.36,330.07a.76.76,0,0,1,.28.41.6.6,0,0,1,0,.3,4.3,4.3,0,0,1-2.18,2,1.22,1.22,0,0,1-1.11-.06,1.35,1.35,0,0,1-.26-.28" />
  <path class="GUNDAN_RED_PANDA_JEWELRY_GUNDAN_RED_PANDA_JEWELRY_12_cls-6" d="M255.26,331.43a4.24,4.24,0,0,1,2-1.45" />
  <path class="GUNDAN_RED_PANDA_JEWELRY_GUNDAN_RED_PANDA_JEWELRY_12_cls-6" d="M254.09,332.79a1.62,1.62,0,0,0,.44.55,2,2,0,0,0,.49.28A3.11,3.11,0,0,0,258,333c1.16-.91,1.86-1.89,1.56-2.65a2,2,0,0,0-.91-.85h0" />
  <path class="GUNDAN_RED_PANDA_JEWELRY_GUNDAN_RED_PANDA_JEWELRY_12_cls-6" d="M254,331.76a2.94,2.94,0,0,1,.78-1.29,5.64,5.64,0,0,1,2.72-1.35" />
  <path class="GUNDAN_RED_PANDA_JEWELRY_GUNDAN_RED_PANDA_JEWELRY_12_cls-6" d="M251.52,334.41A2.64,2.64,0,0,1,252,334l.48-.37a8.23,8.23,0,0,1,1.6-.8h0c.49-.21.92-.36,1-.4h0" />
  <path class="GUNDAN_RED_PANDA_JEWELRY_GUNDAN_RED_PANDA_JEWELRY_12_cls-6" d="M252.49,335s1.42-.87,2.53-1.42" />
  <path class="GUNDAN_RED_PANDA_JEWELRY_GUNDAN_RED_PANDA_JEWELRY_12_cls-6" d="M256.48,332.73a.49.49,0,0,0,.07-.54,1.42,1.42,0,0,0-1.29-.76,2.63,2.63,0,0,0-1.12.27l-.14.06h0a16.24,16.24,0,0,0-2.9,1.5,1.52,1.52,0,0,0-.6.7.58.58,0,0,0,0,.41,1.26,1.26,0,0,0,1,.8" />
  <path class="GUNDAN_RED_PANDA_JEWELRY_GUNDAN_RED_PANDA_JEWELRY_12_cls-6" d="M248.44,336.17a1.09,1.09,0,0,1-.91-.44.71.71,0,0,1-.12-.31" />
  <path class="GUNDAN_RED_PANDA_JEWELRY_GUNDAN_RED_PANDA_JEWELRY_12_cls-6" d="M251.52,334.42a.69.69,0,0,1,.08.47.74.74,0,0,1-.12.28,5,5,0,0,1-3,1" />
  <path class="GUNDAN_RED_PANDA_JEWELRY_GUNDAN_RED_PANDA_JEWELRY_12_cls-6" d="M248.09,334.5a4.92,4.92,0,0,1,2.41-.54h0" />
  <path class="GUNDAN_RED_PANDA_JEWELRY_GUNDAN_RED_PANDA_JEWELRY_12_cls-6" d="M252,334h0a1.63,1.63,0,0,1,.49,1.09c-.05.8-1.17,1.46-2.66,1.87a3.58,3.58,0,0,1-2.68-.19,1.66,1.66,0,0,1-.71-.7,1,1,0,0,1-.12-.25" />
  <path class="GUNDAN_RED_PANDA_JEWELRY_GUNDAN_RED_PANDA_JEWELRY_12_cls-6" d="M246.47,334.67a2.77,2.77,0,0,1,1.45-1.13,6.43,6.43,0,0,1,3.18-.28h0" />
  <path class="GUNDAN_RED_PANDA_JEWELRY_GUNDAN_RED_PANDA_JEWELRY_12_cls-6" d="M243.89,337.18a2.61,2.61,0,0,1,.5-.44l.49-.35a6.69,6.69,0,0,1,1.44-.62c.46-.16.88-.28,1.09-.35l.17,0" />
  <path class="GUNDAN_RED_PANDA_JEWELRY_GUNDAN_RED_PANDA_JEWELRY_12_cls-6" d="M244.85,337.87s1.23-.67,2.3-1.15" />
  <path class="GUNDAN_RED_PANDA_JEWELRY_GUNDAN_RED_PANDA_JEWELRY_12_cls-6" d="M248.44,336.17h0c.46-.24.7-.52.55-.89a1.46,1.46,0,0,0-.9-.78,2.31,2.31,0,0,0-1.5.12l-.12.05h0a16.17,16.17,0,0,0-3,1.31h0a1.46,1.46,0,0,0-.61.67h0a.56.56,0,0,0,0,.42,1.31,1.31,0,0,0,1,.86h0" />
  <path class="GUNDAN_RED_PANDA_JEWELRY_GUNDAN_RED_PANDA_JEWELRY_12_cls-6" d="M243.89,337.18a.75.75,0,0,1,.07.47.57.57,0,0,1-.12.28,4.86,4.86,0,0,1-3,.83,1.22,1.22,0,0,1-1-.52.81.81,0,0,1-.12-.35" />
  <path class="GUNDAN_RED_PANDA_JEWELRY_GUNDAN_RED_PANDA_JEWELRY_12_cls-6" d="M240.31,337.11a4.91,4.91,0,0,1,2.58-.46" />
  <path class="GUNDAN_RED_PANDA_JEWELRY_GUNDAN_RED_PANDA_JEWELRY_12_cls-6" d="M238.57,337.81a1.51,1.51,0,0,0,.17.67,1.45,1.45,0,0,0,.33.45,3.43,3.43,0,0,0,3.06.66c1.52-.33,2.66-.91,2.72-1.72a1.73,1.73,0,0,0-.46-1.13h0" />
  <path class="GUNDAN_RED_PANDA_JEWELRY_GUNDAN_RED_PANDA_JEWELRY_12_cls-6" d="M239,336.87a3.3,3.3,0,0,1,1.34-.81,6.58,6.58,0,0,1,3.21-.08" />
  <path class="GUNDAN_RED_PANDA_JEWELRY_GUNDAN_RED_PANDA_JEWELRY_12_cls-6" d="M236.07,338l.62-.12a9,9,0,0,1,1.88,0c.58,0,1.05.07,1.16.08h0" />
  <path class="GUNDAN_RED_PANDA_JEWELRY_GUNDAN_RED_PANDA_JEWELRY_12_cls-6" d="M235.39,338.16a3,3,0,0,1,.67-.2" />
  <path class="GUNDAN_RED_PANDA_JEWELRY_GUNDAN_RED_PANDA_JEWELRY_12_cls-6" d="M236,339.11s1.74-.16,3-.18" />
  <path class="GUNDAN_RED_PANDA_JEWELRY_GUNDAN_RED_PANDA_JEWELRY_12_cls-6" d="M240.86,338.76a.49.49,0,0,0,.32-.45,1.33,1.33,0,0,0-.87-1.2,2.79,2.79,0,0,0-1.19-.23H239c-.6,0-1.37,0-3.43.1l-.77.27-.12.09a.52.52,0,0,0-.17.37,1.2,1.2,0,0,0,.54,1.1" />
  <path class="GUNDAN_RED_PANDA_JEWELRY_GUNDAN_RED_PANDA_JEWELRY_12_cls-6" d="M234.64,337.33h0a5.76,5.76,0,0,0-2.51-.55" />
  <path class="GUNDAN_RED_PANDA_JEWELRY_GUNDAN_RED_PANDA_JEWELRY_12_cls-6" d="M231.12,337.15a.63.63,0,0,0-.09.45.85.85,0,0,0,.4.6h0a5.34,5.34,0,0,0,3.57.59.54.54,0,0,0,.24-.2.63.63,0,0,0,.14-.44" />
  <path class="GUNDAN_RED_PANDA_JEWELRY_GUNDAN_RED_PANDA_JEWELRY_12_cls-6" d="M235.53,337h0a7.34,7.34,0,0,0-3.15-1.1,3.84,3.84,0,0,0-1.57.2" />
  <path class="GUNDAN_RED_PANDA_JEWELRY_GUNDAN_RED_PANDA_JEWELRY_12_cls-6" d="M229.93,336.87a1.26,1.26,0,0,0-.07.52,1.35,1.35,0,0,0,.16.61v0a3.61,3.61,0,0,0,2.61,1.6c1.6.27,3,.18,3.38-.51a1.46,1.46,0,0,0,0-1.15h0" />
  <path class="GUNDAN_RED_PANDA_JEWELRY_GUNDAN_RED_PANDA_JEWELRY_12_cls-6" d="M231.08,337.12l-1.15-.25a9.42,9.42,0,0,0-1.86-.23,5,5,0,0,0-.63.05,3.15,3.15,0,0,0-.68.1" />
  <path class="GUNDAN_RED_PANDA_JEWELRY_GUNDAN_RED_PANDA_JEWELRY_12_cls-6" d="M227.26,337.82s1.53.07,2.77.2" />
  <path class="GUNDAN_RED_PANDA_JEWELRY_GUNDAN_RED_PANDA_JEWELRY_12_cls-6" d="M226.31,337.38h0a1.24,1.24,0,0,1-.41-1.16.62.62,0,0,1,.22-.35,1.75,1.75,0,0,1,.92-.23h0a20.46,20.46,0,0,1,3.4.38h.14l.24.05a2.29,2.29,0,0,1,1.2.58.71.71,0,0,1,.12.13,1.2,1.2,0,0,1,.29.94c0,.38-.43.5-1,.47h0" />
  <path class="GUNDAN_RED_PANDA_JEWELRY_GUNDAN_RED_PANDA_JEWELRY_12_cls-6" d="M226.75,336.79a.59.59,0,0,1-.18.42.56.56,0,0,1-.27.16,5.51,5.51,0,0,1-3.14-.8,1.19,1.19,0,0,1-.64-.92.82.82,0,0,1,.07-.34" />
  <path class="GUNDAN_RED_PANDA_JEWELRY_GUNDAN_RED_PANDA_JEWELRY_12_cls-6" d="M223.53,335a5.67,5.67,0,0,1,2.58.89h0" />
  <path class="GUNDAN_RED_PANDA_JEWELRY_GUNDAN_RED_PANDA_JEWELRY_12_cls-6" d="M221.45,335.81a3.55,3.55,0,0,0,2.42,2.06c1.55.49,2.89.57,3.39-.05h0a1.41,1.41,0,0,0,.18-1.13h0" />
  <path class="GUNDAN_RED_PANDA_JEWELRY_GUNDAN_RED_PANDA_JEWELRY_12_cls-6" d="M221.59,334.66a1.2,1.2,0,0,0-.2.62,1.8,1.8,0,0,0,.05.52" />
  <path class="GUNDAN_RED_PANDA_JEWELRY_GUNDAN_RED_PANDA_JEWELRY_12_cls-6" d="M222.43,334.11a3.7,3.7,0,0,1,1.63,0,7.36,7.36,0,0,1,3,1.52h0" />
  <path class="GUNDAN_RED_PANDA_JEWELRY_GUNDAN_RED_PANDA_JEWELRY_12_cls-6" d="M218.53,333.34a4.22,4.22,0,0,1,.71.18c.18.05.38.13.63.22a10.84,10.84,0,0,1,1.72.92l1,.65,0,0" />
  <path class="GUNDAN_RED_PANDA_JEWELRY_GUNDAN_RED_PANDA_JEWELRY_12_cls-6" d="M218.6,334.42s1.65.74,2.84,1.38h0" />
  <path class="GUNDAN_RED_PANDA_JEWELRY_GUNDAN_RED_PANDA_JEWELRY_12_cls-6" d="M223.16,336.57a.53.53,0,0,0,.53-.21,1.15,1.15,0,0,0-.16-1.39,3.08,3.08,0,0,0-1-.78l-.14-.08h0a23.06,23.06,0,0,0-3.16-1.64,2,2,0,0,0-1-.16.52.52,0,0,0-.35.2,1,1,0,0,0-.07,1.15" />
  <path class="GUNDAN_RED_PANDA_JEWELRY_GUNDAN_RED_PANDA_JEWELRY_12_cls-6" d="M218.28,332.31c-.51-.83-2.84-2.79-3.38-1.62s2.35,2.92,3,3a.68.68,0,0,0,.32,0,.58.58,0,0,0,.35-.28" />
  <path class="GUNDAN_RED_PANDA_JEWELRY_GUNDAN_RED_PANDA_JEWELRY_12_cls-6" d="M219.27,332.47h0A7.67,7.67,0,0,0,217,330c-1.44-.9-2.57-.86-3-.06s.06,2.14,1.35,3.17,2.56,1.65,3.3,1.32h0a1.3,1.3,0,0,0,.64-.9" />
  <path class="GUNDAN_RED_PANDA_JEWELRY_GUNDAN_RED_PANDA_JEWELRY_12_cls-6" d="M259.69,326.52h0c1,.48,1,2,.52,2.81,0,0,0,0,0,0" />
  <path class="GUNDAN_RED_PANDA_JEWELRY_GUNDAN_RED_PANDA_JEWELRY_12_cls-1" d="M211.7,333.77a.64.64,0,0,1-.64-.57l-.07-.56h-.13l-.08.56a.65.65,0,0,1-.64.55l-.55-.07A.65.65,0,0,1,209,333l.08-.56-.13,0-.22.52a.65.65,0,0,1-.59.39.7.7,0,0,1-.25,0l-.44-.19a.65.65,0,0,1-.34-.84l.23-.53-.11-.06-.36.44a.62.62,0,0,1-.5.25.63.63,0,0,1-.4-.14l-.37-.28a.67.67,0,0,1-.24-.44.61.61,0,0,1,.14-.47l.34-.45-.09-.09-.45.34a.65.65,0,0,1-.9-.12l-.29-.38a.65.65,0,0,1,.13-.9l.46-.34a.75.75,0,0,1-.07-.12l-.52.21a.7.7,0,0,1-.25.05.63.63,0,0,1-.59-.41l-.18-.43a.64.64,0,0,1,.36-.83l.53-.22,0-.12-.58.06a.66.66,0,0,1-.71-.56l0-.46a.65.65,0,0,1,.56-.72l.57-.07v-.13l-.57-.08a.64.64,0,0,1-.54-.73l.06-.46a.65.65,0,0,1,.64-.55l.65.09c0-.05,0-.09,0-.13l-.52-.23a.63.63,0,0,1-.35-.35.64.64,0,0,1,0-.49l.18-.43a.63.63,0,0,1,.59-.39.58.58,0,0,1,.26.05l.52.22.07-.11-.45-.35a.67.67,0,0,1-.24-.43.64.64,0,0,1,.13-.48l.29-.36a.63.63,0,0,1,.9-.11l.45.35.09-.09-.34-.46a.65.65,0,0,1,.13-.9l.37-.28a.63.63,0,0,1,.39-.13.66.66,0,0,1,.51.25l.35.46.11-.06-.21-.53a.66.66,0,0,1,.35-.84l.44-.17a.69.69,0,0,1,.24-.05.64.64,0,0,1,.6.41l.21.52.13,0-.07-.56a.64.64,0,0,1,.56-.72l.48-.06a.66.66,0,0,1,.7.56l.07.57h.13l.08-.56a.65.65,0,0,1,.64-.56l.55.08a.64.64,0,0,1,.55.73l-.08.56.13,0,.22-.52a.63.63,0,0,1,.59-.39.8.8,0,0,1,.26.05l.42.18a.65.65,0,0,1,.35.36.64.64,0,0,1,0,.49l-.22.52.11.07.36-.45a.64.64,0,0,1,.5-.24.62.62,0,0,1,.4.13l.37.29a.65.65,0,0,1,.11.9l-.36.45a.94.94,0,0,1,.1.1l.45-.35a.69.69,0,0,1,.39-.12.63.63,0,0,1,.51.25l.29.38a.66.66,0,0,1,.12.48.65.65,0,0,1-.26.42l-.45.34.07.11.52-.21a.67.67,0,0,1,.24,0,.64.64,0,0,1,.6.4l.17.43a.63.63,0,0,1-.35.84l-.53.21,0,.13.58-.07a.64.64,0,0,1,.7.56l.06.47a.65.65,0,0,1-.13.47.64.64,0,0,1-.43.25l-.57.06v.13l.56.08a.65.65,0,0,1,.55.73l-.06.47a.65.65,0,0,1-.64.55l-.65-.09,0,.13.52.22a.63.63,0,0,1,.34.85l-.18.43a.64.64,0,0,1-.59.39.7.7,0,0,1-.25-.05l-.53-.23a.75.75,0,0,1-.07.12l.45.35a.64.64,0,0,1,.11.9l-.29.37a.63.63,0,0,1-.9.11l-.45-.35-.09.09.34.45a.64.64,0,0,1,.12.48.62.62,0,0,1-.25.43l-.37.28a.7.7,0,0,1-.39.13.68.68,0,0,1-.52-.26l-.34-.45-.11.06.21.53a.69.69,0,0,1,0,.49.63.63,0,0,1-.36.34l-.43.18a.69.69,0,0,1-.24.05.65.65,0,0,1-.6-.41l-.21-.53-.13,0,.07.56a.69.69,0,0,1-.13.48.67.67,0,0,1-.43.24l-.47.05Zm-.7-13.08a5.59,5.59,0,0,0-.57,0,4.72,4.72,0,0,0,.56,9.41l.58,0a4.72,4.72,0,0,0-.57-9.41Z" />
  <path d="M210.3,317.43a.26.26,0,0,1,.27.24l.11.9H211l.45,0,.13-.9a.27.27,0,0,1,.27-.23h0l.46.06a.28.28,0,0,1,.23.31l-.13.9a5,5,0,0,1,.76.21l.35-.83a.28.28,0,0,1,.25-.17l.11,0,.43.19a.26.26,0,0,1,.14.35l-.35.83a6.68,6.68,0,0,1,.67.41l.56-.72a.25.25,0,0,1,.21-.1.27.27,0,0,1,.17.06l.37.28a.27.27,0,0,1,0,.39l-.56.71a4.85,4.85,0,0,1,.55.56l.72-.55a.34.34,0,0,1,.17-.05.29.29,0,0,1,.22.11l.28.37a.27.27,0,0,1-.06.38l-.72.54a5.76,5.76,0,0,1,.38.69l.84-.34a.2.2,0,0,1,.1,0,.28.28,0,0,1,.26.17l.17.43a.28.28,0,0,1-.15.36l-.84.33a6.49,6.49,0,0,1,.19.76l.9-.11h0a.28.28,0,0,1,.27.24l0,.46a.28.28,0,0,1-.24.31l-.9.11a6.77,6.77,0,0,1,0,.78l.89.12a.28.28,0,0,1,.23.31l-.06.46a.28.28,0,0,1-.27.24h0l-.9-.12a6.37,6.37,0,0,1-.2.75l.83.35a.28.28,0,0,1,.14.36l-.18.43a.3.3,0,0,1-.25.17l-.11,0-.83-.36a7.41,7.41,0,0,1-.4.67l.71.56a.27.27,0,0,1,0,.38l-.29.37a.26.26,0,0,1-.21.11.27.27,0,0,1-.17-.06l-.72-.56a7,7,0,0,1-.55.54l.54.73a.27.27,0,0,1-.05.38l-.38.28a.24.24,0,0,1-.16.05.27.27,0,0,1-.22-.1l-.54-.73c-.22.14-.45.27-.68.39l.33.84a.27.27,0,0,1-.15.35l-.43.17a.18.18,0,0,1-.1,0,.26.26,0,0,1-.25-.17l-.34-.84c-.25.08-.5.14-.76.2l.11.9a.27.27,0,0,1-.24.3l-.46.05h0a.26.26,0,0,1-.27-.24l-.11-.9h-.78l-.13.9a.28.28,0,0,1-.27.23h0l-.46-.07a.27.27,0,0,1-.23-.31l.13-.89c-.26-.06-.51-.13-.76-.21l-.35.83a.3.3,0,0,1-.25.17.23.23,0,0,1-.11,0l-.43-.18a.27.27,0,0,1-.14-.36l.35-.83a6.58,6.58,0,0,1-.67-.4l-.56.72a.28.28,0,0,1-.21.1.27.27,0,0,1-.17-.06l-.37-.29a.26.26,0,0,1,0-.38l.55-.71a7.14,7.14,0,0,1-.54-.56l-.73.54a.25.25,0,0,1-.16.06.29.29,0,0,1-.22-.11l-.28-.37a.28.28,0,0,1,.06-.39l.72-.54a5.63,5.63,0,0,1-.38-.68l-.84.34-.11,0a.3.3,0,0,1-.25-.17l-.17-.44a.26.26,0,0,1,.15-.35l.84-.34a6.33,6.33,0,0,1-.19-.75l-.9.1h0a.29.29,0,0,1-.28-.24l0-.47a.27.27,0,0,1,.24-.3l.9-.11a6.77,6.77,0,0,1,0-.78l-.89-.13a.28.28,0,0,1-.24-.3l.07-.47a.28.28,0,0,1,.27-.23h0l.89.13q.09-.39.21-.75l-.83-.36a.28.28,0,0,1-.14-.36l.18-.43a.28.28,0,0,1,.25-.16l.11,0,.83.36a6.24,6.24,0,0,1,.4-.67l-.71-.56a.28.28,0,0,1,0-.39l.29-.36a.26.26,0,0,1,.21-.11.27.27,0,0,1,.17.06l.72.56a7.14,7.14,0,0,1,.55-.55l-.54-.72a.27.27,0,0,1,.05-.38l.38-.28a.25.25,0,0,1,.16-.06.29.29,0,0,1,.22.11l.54.72c.22-.14.45-.26.68-.38l-.34-.84a.28.28,0,0,1,.15-.35l.44-.18.1,0a.27.27,0,0,1,.25.17l.34.84c.25-.07.5-.14.76-.19l-.11-.9a.27.27,0,0,1,.24-.3l.46-.06h0m.69,13.08c.21,0,.41,0,.62,0a5.09,5.09,0,0,0-.6-10.15,4.3,4.3,0,0,0-.62,0,5.09,5.09,0,0,0,.6,10.15m-.69-13.82h-.12l-.46.06a1,1,0,0,0-.68.38.76.76,0,0,0-.12.19,1,1,0,0,0-.59-.19.84.84,0,0,0-.38.08l-.43.17a1,1,0,0,0-.62.75,1.09,1.09,0,0,0-.36-.06,1,1,0,0,0-.61.2l-.37.28a1,1,0,0,0-.4.67,1.62,1.62,0,0,0,0,.22h-.1a1,1,0,0,0-.8.39l-.28.36a1,1,0,0,0-.21.76.8.8,0,0,0,.05.21,1,1,0,0,0-.77.6l-.18.43a1,1,0,0,0,.09,1,1,1,0,0,0-.59.78l-.06.46a1,1,0,0,0,.34.91,1,1,0,0,0-.36.91l.05.47a1.33,1.33,0,0,1,.46,1.76l.17.44a1,1,0,0,0,.76.62,1,1,0,0,0,.14,1l.28.38a1,1,0,0,0,.81.4H205a.81.81,0,0,0,0,.22,1,1,0,0,0,.38.68l.37.29a1,1,0,0,0,.63.21,1.27,1.27,0,0,0,.34-.05,1,1,0,0,0,.6.77l.43.18a1.06,1.06,0,0,0,.4.08.94.94,0,0,0,.57-.18,1.06,1.06,0,0,0,.78.59l.47.06h.14a1,1,0,0,0,.77-.35,1,1,0,0,0,.79.37h.12l.46-.05a1.06,1.06,0,0,0,.68-.38,1,1,0,0,0,.12-.19,1,1,0,0,0,.59.19,1,1,0,0,0,.38-.08l.43-.17a1,1,0,0,0,.62-.76.89.89,0,0,0,.36.07,1,1,0,0,0,.61-.2l.37-.28a1,1,0,0,0,.41-.9h.1a1,1,0,0,0,.8-.39l.28-.37a1,1,0,0,0,.16-1,1,1,0,0,0,.77-.6l.19-.44a1,1,0,0,0-.1-1,1,1,0,0,0,.58-.78l.07-.46a1.37,1.37,0,0,1,0-1.83l-.06-.46a1,1,0,0,0-.57-.8,1,1,0,0,0,.12-1l-.17-.44a1,1,0,0,0-.76-.62,1.66,1.66,0,0,0,.06-.21,1,1,0,0,0-.2-.76l-.28-.37a1,1,0,0,0-.81-.41H217a1,1,0,0,0-.38-.9l-.37-.29a1,1,0,0,0-.63-.22,1,1,0,0,0-.34.06.83.83,0,0,0-.06-.21,1,1,0,0,0-.54-.56l-.43-.18a.92.92,0,0,0-.4-.08,1,1,0,0,0-.57.17,1,1,0,0,0-.78-.58l-.47-.07h-.14a1,1,0,0,1-1.56,0Zm.69,13.07a4.35,4.35,0,0,1-4.31-3.83,4.37,4.37,0,0,1,3.8-4.84,4.58,4.58,0,0,1,.53,0,4.35,4.35,0,0,1,.51,8.67,4.58,4.58,0,0,1-.53,0Z" />
  <path class="GUNDAN_RED_PANDA_JEWELRY_GUNDAN_RED_PANDA_JEWELRY_12_cls-1" d="M261.15,329.51a.64.64,0,0,1-.64-.56l-.07-.57h-.13l-.08.56a.65.65,0,0,1-.64.55l-.55-.07a.65.65,0,0,1-.55-.73l.08-.56-.13,0-.22.52a.63.63,0,0,1-.59.39.75.75,0,0,1-.26-.05l-.42-.18a.65.65,0,0,1-.34-.85l.22-.52-.11-.07-.36.45a.64.64,0,0,1-.5.24.65.65,0,0,1-.4-.14l-.37-.28a.67.67,0,0,1-.24-.43.64.64,0,0,1,.14-.48l.34-.44-.09-.1-.45.34a.65.65,0,0,1-.9-.12l-.28-.38a.64.64,0,0,1,.12-.9l.46-.34a.75.75,0,0,1-.07-.12l-.52.22a.67.67,0,0,1-.24,0,.64.64,0,0,1-.6-.4l-.18-.44a.64.64,0,0,1,.36-.83l.53-.22,0-.12-.58.07a.67.67,0,0,1-.71-.57l-.05-.46a.69.69,0,0,1,.13-.48.67.67,0,0,1,.43-.24l.57-.07V321l-.57-.08a.63.63,0,0,1-.54-.72l.06-.47a.65.65,0,0,1,.64-.55l.65.09s0-.09,0-.13l-.52-.22a.65.65,0,0,1-.34-.85l.18-.43a.63.63,0,0,1,.59-.39.75.75,0,0,1,.26.05l.52.22.07-.11-.45-.35a.66.66,0,0,1-.11-.91l.29-.36a.63.63,0,0,1,.9-.11l.45.35.09-.09-.34-.46A.62.62,0,0,1,255,315a.6.6,0,0,1,.25-.42l.37-.28a.7.7,0,0,1,.39-.13.64.64,0,0,1,.51.26l.35.45.11-.06-.21-.53a.66.66,0,0,1,.35-.84l.44-.17a.69.69,0,0,1,.24-.05.64.64,0,0,1,.6.41l.21.52.13,0-.07-.56a.69.69,0,0,1,.13-.48.67.67,0,0,1,.43-.24l.48-.06a.67.67,0,0,1,.7.57l.07.56h.13l.08-.56a.65.65,0,0,1,.64-.55l.55.07a.64.64,0,0,1,.55.73l-.08.56.13,0,.22-.52a.63.63,0,0,1,.59-.39.7.7,0,0,1,.25.05l.44.19a.62.62,0,0,1,.34.35.64.64,0,0,1,0,.49l-.22.52.11.07.36-.45a.64.64,0,0,1,.5-.24.63.63,0,0,1,.4.14l.37.28a.66.66,0,0,1,.11.91l-.35.44.09.1.45-.34a.65.65,0,0,1,.9.12l.29.38a.65.65,0,0,1-.13.9l-.46.34a.75.75,0,0,1,.07.12l.52-.22a.67.67,0,0,1,.24,0,.64.64,0,0,1,.6.4l.18.43a.65.65,0,0,1-.36.84l-.53.22,0,.12.58-.07a.65.65,0,0,1,.7.57l.06.46a.66.66,0,0,1-.56.72l-.57.07v.13l.57.08a.64.64,0,0,1,.54.73l-.06.46a.65.65,0,0,1-.64.55l-.65-.09c0,.05,0,.09,0,.13l.52.22a.68.68,0,0,1,.35.36.64.64,0,0,1,0,.49l-.18.43a.63.63,0,0,1-.59.39.7.7,0,0,1-.25-.05l-.53-.22-.07.11.45.35a.64.64,0,0,1,.11.9l-.29.37a.62.62,0,0,1-.5.25.63.63,0,0,1-.4-.14l-.45-.35-.09.09.34.46a.65.65,0,0,1-.13.9l-.37.28a.7.7,0,0,1-.39.13.64.64,0,0,1-.51-.26l-.35-.45-.11.06.21.53a.69.69,0,0,1,0,.49.65.65,0,0,1-.36.35l-.43.17a.69.69,0,0,1-.24.05.66.66,0,0,1-.6-.4l-.21-.53-.13,0,.07.56a.69.69,0,0,1-.13.48.67.67,0,0,1-.43.24l-.47.05Zm-.69-13.08a3.77,3.77,0,0,0-.58,0,4.72,4.72,0,0,0,.56,9.41,3.86,3.86,0,0,0,.58,0,4.73,4.73,0,0,0,4.12-5.25A4.73,4.73,0,0,0,260.46,316.43Z" />
  <path d="M259.75,313.17a.26.26,0,0,1,.27.24l.11.9h.33l.45,0,.13-.9a.28.28,0,0,1,.27-.23h0l.46.07a.27.27,0,0,1,.23.3l-.13.9c.26.06.51.13.76.21l.35-.83a.28.28,0,0,1,.25-.17l.11,0,.43.19a.26.26,0,0,1,.14.35l-.35.84a6.58,6.58,0,0,1,.67.4l.56-.72a.25.25,0,0,1,.21-.1.27.27,0,0,1,.17.06l.37.28a.27.27,0,0,1,0,.39l-.56.71a5.8,5.8,0,0,1,.55.56l.73-.55a.28.28,0,0,1,.16-.05.29.29,0,0,1,.22.11l.28.37a.27.27,0,0,1-.06.38l-.72.55a5,5,0,0,1,.38.68l.84-.34.1,0a.28.28,0,0,1,.26.17l.17.43a.28.28,0,0,1-.15.36l-.84.34a5.88,5.88,0,0,1,.19.75l.9-.11h0a.28.28,0,0,1,.27.24l.05.46a.28.28,0,0,1-.24.31l-.9.11a6.77,6.77,0,0,1,0,.78l.89.12a.28.28,0,0,1,.23.31l-.06.47a.28.28,0,0,1-.27.23h0l-.9-.13a5.89,5.89,0,0,1-.2.75l.83.36a.26.26,0,0,1,.14.35l-.18.43a.28.28,0,0,1-.25.17l-.11,0-.83-.36a7.41,7.41,0,0,1-.4.67l.71.56a.28.28,0,0,1,0,.39l-.29.36a.26.26,0,0,1-.21.11.27.27,0,0,1-.17-.06l-.72-.56c-.17.19-.36.37-.55.55l.54.72a.27.27,0,0,1-.05.38l-.38.28a.25.25,0,0,1-.16.06.29.29,0,0,1-.22-.11l-.54-.73a6.61,6.61,0,0,1-.68.39l.33.84a.26.26,0,0,1-.15.35l-.43.18-.1,0a.27.27,0,0,1-.25-.18l-.34-.84a6.53,6.53,0,0,1-.76.2l.11.9a.27.27,0,0,1-.24.3l-.46.06h0a.26.26,0,0,1-.27-.24l-.11-.9h-.33l-.45,0-.13.9a.28.28,0,0,1-.27.23h0l-.46-.07a.27.27,0,0,1-.23-.3l.13-.9c-.26-.06-.51-.13-.76-.21l-.35.83a.28.28,0,0,1-.25.17l-.11,0-.43-.19a.27.27,0,0,1-.14-.36l.35-.83a6.58,6.58,0,0,1-.67-.4l-.56.72a.25.25,0,0,1-.21.1.27.27,0,0,1-.17-.06l-.37-.28a.27.27,0,0,1,0-.39l.55-.71a7.14,7.14,0,0,1-.54-.56l-.73.55a.28.28,0,0,1-.16.05.29.29,0,0,1-.22-.11l-.28-.37a.27.27,0,0,1,.06-.38l.72-.55a5,5,0,0,1-.38-.68l-.84.34-.1,0a.28.28,0,0,1-.26-.17l-.17-.43a.28.28,0,0,1,.15-.36l.84-.34a5.88,5.88,0,0,1-.19-.75l-.9.11h0a.28.28,0,0,1-.28-.24l-.05-.47a.28.28,0,0,1,.24-.3l.9-.11a6.77,6.77,0,0,1,0-.78l-.89-.13a.27.27,0,0,1-.24-.3l.07-.47a.28.28,0,0,1,.27-.23h0l.9.13a5.89,5.89,0,0,1,.2-.75l-.83-.36a.27.27,0,0,1-.14-.35l.18-.43a.28.28,0,0,1,.25-.17l.11,0,.83.36a7.41,7.41,0,0,1,.4-.67l-.71-.56a.28.28,0,0,1-.05-.39l.29-.36a.26.26,0,0,1,.21-.11.27.27,0,0,1,.17.06l.72.56a7.14,7.14,0,0,1,.55-.55l-.54-.72a.27.27,0,0,1,0-.38l.38-.28a.25.25,0,0,1,.16-.06.29.29,0,0,1,.22.11l.54.72c.22-.14.45-.26.68-.38l-.34-.84a.28.28,0,0,1,.15-.35l.44-.17a.19.19,0,0,1,.1,0,.27.27,0,0,1,.25.18l.34.84a6.53,6.53,0,0,1,.76-.2l-.11-.9a.27.27,0,0,1,.24-.3l.46-.06h0m.69,13.08a4.3,4.3,0,0,0,.62,0,5.09,5.09,0,0,0-.6-10.15,4.3,4.3,0,0,0-.62,0,5.09,5.09,0,0,0,.6,10.15m-.69-13.82h-.12l-.46.05a1,1,0,0,0-.8.57,1,1,0,0,0-1-.11l-.43.17a1,1,0,0,0-.62.76.89.89,0,0,0-.36-.07,1,1,0,0,0-.61.2l-.37.28a1,1,0,0,0-.4.67,1.7,1.7,0,0,0,0,.22h-.1a1,1,0,0,0-.8.39l-.28.37a1,1,0,0,0-.21.75.8.8,0,0,0,0,.21,1,1,0,0,0-.77.6l-.18.43a1,1,0,0,0,0,.78.75.75,0,0,0,.1.2,1,1,0,0,0-.59.78l-.06.46a1,1,0,0,0,.19.76l.15.16-.15.15a1,1,0,0,0-.21.75l.05.47a1.33,1.33,0,0,1,.46,1.76l.17.44a1,1,0,0,0,.76.62,1,1,0,0,0,.14,1l.28.38a1,1,0,0,0,.81.4h.08a.81.81,0,0,0,0,.22,1,1,0,0,0,.38.68l.37.29a1,1,0,0,0,.63.22,1,1,0,0,0,.34-.06,1.6,1.6,0,0,0,.05.21,1.07,1.07,0,0,0,.55.56l.43.18a1.06,1.06,0,0,0,.4.08.94.94,0,0,0,.57-.18,1,1,0,0,0,.78.59l.47.07h.14a1,1,0,0,1,1.56,0h.12l.46-.06a1,1,0,0,0,.8-.57,1,1,0,0,0,.59.19,1,1,0,0,0,.38-.08l.43-.17a1,1,0,0,0,.62-.75,1.09,1.09,0,0,0,.36.06,1,1,0,0,0,.61-.2l.37-.28a1,1,0,0,0,.41-.89h.1a1,1,0,0,0,.8-.39l.28-.36a1.35,1.35,0,0,1,.93-1.57l.19-.43a1,1,0,0,0-.1-1,1,1,0,0,0,.58-.78l.07-.46a1.36,1.36,0,0,1,0-1.82l-.06-.47a1,1,0,0,0-.57-.79,1,1,0,0,0,.12-1l-.17-.44a1,1,0,0,0-.76-.62.83.83,0,0,0,.06-.21,1,1,0,0,0-.2-.76l-.28-.37a1,1,0,0,0-.81-.4h-.08a1,1,0,0,0-.38-.9l-.37-.29a1,1,0,0,0-.63-.22,1,1,0,0,0-.34.06,1,1,0,0,0-.6-.77l-.43-.18a1.1,1.1,0,0,0-.4-.08.94.94,0,0,0-.57.18,1,1,0,0,0-.78-.59l-.47-.07h-.14a1,1,0,0,0-.77.36,1,1,0,0,0-.79-.37Zm.69,13.07a4.35,4.35,0,0,1-.51-8.66,4.55,4.55,0,0,1,.53,0,4.35,4.35,0,0,1,.51,8.67,4.58,4.58,0,0,1-.53,0Z" />
</svg>