<svg id="jewelry" xmlns="http://www.w3.org/2000/svg" viewBox="0 0 432 432">
  <defs>
    <style>.GUNDAN_RED_PANDA_JEWELRY_GUNDAN_RED_PANDA_JEWELRY_4_cls-1{fill:#ed9547;}.GUNDAN_RED_PANDA_JEWELRY_GUNDAN_RED_PANDA_JEWELRY_4_cls-2{fill:#facf56;}.GUNDAN_RED_PANDA_JEWELRY_GUNDAN_RED_PANDA_JEWELRY_4_cls-3,.GUNDAN_RED_PANDA_JEWELRY_GUNDAN_RED_PANDA_JEWELRY_4_cls-4{fill:none;stroke:#000;stroke-linecap:round;}.GUNDAN_RED_PANDA_JEWELRY_GUNDAN_RED_PANDA_JEWELRY_4_cls-3{stroke-miterlimit:10;stroke-width:0.9px;}.GUNDAN_RED_PANDA_JEWELRY_GUNDAN_RED_PANDA_JEWELRY_4_cls-4{stroke-linejoin:round;stroke-width:0.81px;}</style>
  </defs>
  <path class="GUNDAN_RED_PANDA_JEWELRY_GUNDAN_RED_PANDA_JEWELRY_4_cls-1" d="M123.16,182.8a3.92,3.92,0,0,1,3.93,3.92,4.14,4.14,0,0,1-.1.87,3.84,3.84,0,0,1-1.12,1.95,3.38,3.38,0,0,1-.86.64,3.93,3.93,0,0,1-1.85.46,4,4,0,0,1-1.84-.45,4.43,4.43,0,0,1-.87-.64,4,4,0,0,1-1.1-2,3.57,3.57,0,0,1-.1-.87A3.91,3.91,0,0,1,123.16,182.8Z" />
  <path class="GUNDAN_RED_PANDA_JEWELRY_GUNDAN_RED_PANDA_JEWELRY_4_cls-2" d="M123.16,182.8a3,3,0,0,1,3,3,3.08,3.08,0,0,1-.07.68,3,3,0,0,1-.87,1.51,2.66,2.66,0,0,1-.67.5,3,3,0,0,1-1.44.36,3,3,0,0,1-3-2.37,3.08,3.08,0,0,1-.07-.68A3,3,0,0,1,123.16,182.8Z" />
  <path class="GUNDAN_RED_PANDA_JEWELRY_GUNDAN_RED_PANDA_JEWELRY_4_cls-1" d="M125.89,189.55c2.36,4.57,5.93,11.51,5.24,18.64s-4.43,9.78-8,9.78-7.29-2.6-8-9.78,2.89-14.07,5.26-18.64a4.43,4.43,0,0,0,.87.64c-1.6,3.74-4,8.82-3.56,14.62s3,8,5.4,8,5-2.11,5.42-8-2-10.9-3.57-14.63a3.38,3.38,0,0,0,.86-.64Z" />
  <path class="GUNDAN_RED_PANDA_JEWELRY_GUNDAN_RED_PANDA_JEWELRY_4_cls-2" d="M125.63,189.55c2.14,4.13,5.36,10.41,4.74,16.87s-4,9.53-7.21,9.53-6.59-3-7.21-9.53,2.62-12.74,4.76-16.87a4,4,0,0,0,.79.58c-1.45,3.38-4.3,9.08-3.91,14.36s3.4,8.31,5.57,8.31,5.16-3.37,5.12-9.06c0-5.28-2-10.24-3.44-13.62a3.12,3.12,0,0,0,.77-.58Z" />
  <path class="GUNDAN_RED_PANDA_JEWELRY_GUNDAN_RED_PANDA_JEWELRY_4_cls-1" d="M123.16,235.14c-9.46,0-19.53-10.06-16.39-25.19,2.76-13.32,12.57-22.35,12.57-22.35s0,.12.06.19a3.73,3.73,0,0,0,1,1.77c-14.49,18.21-5.19,32.59,2.71,32.59s17.19-14.38,2.72-32.59h0a3.83,3.83,0,0,0,1.06-1.76c0-.07,0-.13.06-.19s9.81,9,12.56,22.35C142.7,225.08,132.61,235.14,123.16,235.14Z" />
  <path class="GUNDAN_RED_PANDA_JEWELRY_GUNDAN_RED_PANDA_JEWELRY_4_cls-2" d="M123.16,231.81c-8.79,0-18.16-9.36-15.23-23.44,2.33-11.29,10.12-19.26,11.47-20.58a3.73,3.73,0,0,0,1,1.77c-14.49,18.21-5.19,32.59,2.71,32.59s17.19-14.38,2.72-32.59h0a3.83,3.83,0,0,0,1.06-1.76c1.35,1.32,9.15,9.29,11.49,20.58C141.33,222.45,132,231.81,123.16,231.81Z" />
  <path class="GUNDAN_RED_PANDA_JEWELRY_GUNDAN_RED_PANDA_JEWELRY_4_cls-3" d="M119.35,187.59a3.57,3.57,0,0,1-.1-.87,3.92,3.92,0,1,1,7.84,0,4.14,4.14,0,0,1-.1.87,3.84,3.84,0,0,1-1.12,1.95,3.38,3.38,0,0,1-.86.64,3.93,3.93,0,0,1-1.85.46,4,4,0,0,1-1.84-.45,4.43,4.43,0,0,1-.87-.64A4,4,0,0,1,119.35,187.59Z" />
  <path class="GUNDAN_RED_PANDA_JEWELRY_GUNDAN_RED_PANDA_JEWELRY_4_cls-3" d="M123.16,235.13c-9.45,0-19.53-10.06-16.38-25.19,2.76-13.32,12.57-22.35,12.57-22.35" />
  <path class="GUNDAN_RED_PANDA_JEWELRY_GUNDAN_RED_PANDA_JEWELRY_4_cls-3" d="M123.16,222.15c-7.89,0-17.19-14.39-2.71-32.6" />
  <path class="GUNDAN_RED_PANDA_JEWELRY_GUNDAN_RED_PANDA_JEWELRY_4_cls-3" d="M120.45,189.55c-2.37,4.57-5.93,11.51-5.26,18.64s4.44,9.78,8,9.78" />
  <path class="GUNDAN_RED_PANDA_JEWELRY_GUNDAN_RED_PANDA_JEWELRY_4_cls-3" d="M121.32,190.18h0c-1.6,3.74-4,8.82-3.56,14.62s3,8,5.4,8" />
  <path class="GUNDAN_RED_PANDA_JEWELRY_GUNDAN_RED_PANDA_JEWELRY_4_cls-3" d="M123.16,235.13c9.45,0,19.54-10.06,16.4-25.19C136.8,196.62,127,187.59,127,187.59" />
  <path class="GUNDAN_RED_PANDA_JEWELRY_GUNDAN_RED_PANDA_JEWELRY_4_cls-3" d="M123.16,222.15c7.91,0,17.19-14.39,2.73-32.6" />
  <path class="GUNDAN_RED_PANDA_JEWELRY_GUNDAN_RED_PANDA_JEWELRY_4_cls-3" d="M125.89,189.55c2.36,4.57,5.93,11.51,5.24,18.64s-4.43,9.78-8,9.78" />
  <path class="GUNDAN_RED_PANDA_JEWELRY_GUNDAN_RED_PANDA_JEWELRY_4_cls-3" d="M125,190.18c1.61,3.73,4,8.81,3.57,14.63s-3,8-5.42,8" />
  <path class="GUNDAN_RED_PANDA_JEWELRY_GUNDAN_RED_PANDA_JEWELRY_4_cls-3" d="M123.16,190.64c3.41,3.83,4.8,15.56.84,16.34s-5.2-4.5-2.54-5.89a2,2,0,0,1,2.81,1.12" />
  <path class="GUNDAN_RED_PANDA_JEWELRY_GUNDAN_RED_PANDA_JEWELRY_4_cls-3" d="M124.08,167.9a4.35,4.35,0,0,1,4.17,4.09c.39,3.87-5.15,4.65-5.15,10.68" />
  <path class="GUNDAN_RED_PANDA_JEWELRY_GUNDAN_RED_PANDA_JEWELRY_4_cls-3" d="M118,173.1A6.69,6.69,0,0,1,120.9,169" />
  <path class="GUNDAN_RED_PANDA_JEWELRY_GUNDAN_RED_PANDA_JEWELRY_4_cls-4" d="M124.45,166.4a2.79,2.79,0,0,0-.29,3.35" />
</svg>