<svg id="jewelry" xmlns="http://www.w3.org/2000/svg" viewBox="0 0 432 432">
  <defs>
    <style>.GUNDAN_RED_PANDA_JEWELRY_GUNDAN_RED_PANDA_JEWELRY_11_cls-1,.GUNDAN_RED_PANDA_JEWELRY_GUNDAN_RED_PANDA_JEWELRY_11_cls-4{fill:#dec96c;}.GUNDAN_RED_PANDA_JEWELRY_GUNDAN_RED_PANDA_JEWELRY_11_cls-1,.GUNDAN_RED_PANDA_JEWELRY_GUNDAN_RED_PANDA_JEWELRY_11_cls-15,.GUNDAN_RED_PANDA_JEWELRY_GUNDAN_RED_PANDA_JEWELRY_11_cls-2,.GUNDAN_RED_PANDA_JEWELRY_GUNDAN_RED_PANDA_JEWELRY_11_cls-4,.GUNDAN_RED_PANDA_JEWELRY_GUNDAN_RED_PANDA_JEWELRY_11_cls-8,.GUNDAN_RED_PANDA_JEWELRY_GUNDAN_RED_PANDA_JEWELRY_11_cls-9{stroke:#000;}.GUNDAN_RED_PANDA_JEWELRY_GUNDAN_RED_PANDA_JEWELRY_11_cls-1,.GUNDAN_RED_PANDA_JEWELRY_GUNDAN_RED_PANDA_JEWELRY_11_cls-2{stroke-miterlimit:10;}.GUNDAN_RED_PANDA_JEWELRY_GUNDAN_RED_PANDA_JEWELRY_11_cls-1,.GUNDAN_RED_PANDA_JEWELRY_GUNDAN_RED_PANDA_JEWELRY_11_cls-2,.GUNDAN_RED_PANDA_JEWELRY_GUNDAN_RED_PANDA_JEWELRY_11_cls-4{stroke-width:1.26px;}.GUNDAN_RED_PANDA_JEWELRY_GUNDAN_RED_PANDA_JEWELRY_11_cls-2{fill:#be3f27;}.GUNDAN_RED_PANDA_JEWELRY_GUNDAN_RED_PANDA_JEWELRY_11_cls-3{fill:#fff;}.GUNDAN_RED_PANDA_JEWELRY_GUNDAN_RED_PANDA_JEWELRY_11_cls-15,.GUNDAN_RED_PANDA_JEWELRY_GUNDAN_RED_PANDA_JEWELRY_11_cls-4,.GUNDAN_RED_PANDA_JEWELRY_GUNDAN_RED_PANDA_JEWELRY_11_cls-8,.GUNDAN_RED_PANDA_JEWELRY_GUNDAN_RED_PANDA_JEWELRY_11_cls-9{stroke-linecap:round;stroke-linejoin:round;}.GUNDAN_RED_PANDA_JEWELRY_GUNDAN_RED_PANDA_JEWELRY_11_cls-5{fill:#aeaeaf;}.GUNDAN_RED_PANDA_JEWELRY_GUNDAN_RED_PANDA_JEWELRY_11_cls-6{fill:#4a4a4a;}.GUNDAN_RED_PANDA_JEWELRY_GUNDAN_RED_PANDA_JEWELRY_11_cls-15,.GUNDAN_RED_PANDA_JEWELRY_GUNDAN_RED_PANDA_JEWELRY_11_cls-7{fill:#8b8b8b;}.GUNDAN_RED_PANDA_JEWELRY_GUNDAN_RED_PANDA_JEWELRY_11_cls-8,.GUNDAN_RED_PANDA_JEWELRY_GUNDAN_RED_PANDA_JEWELRY_11_cls-9{fill:none;}.GUNDAN_RED_PANDA_JEWELRY_GUNDAN_RED_PANDA_JEWELRY_11_cls-8{stroke-width:0.42px;}.GUNDAN_RED_PANDA_JEWELRY_GUNDAN_RED_PANDA_JEWELRY_11_cls-9{stroke-width:0.4px;}.GUNDAN_RED_PANDA_JEWELRY_GUNDAN_RED_PANDA_JEWELRY_11_cls-10{fill:#254922;}.GUNDAN_RED_PANDA_JEWELRY_GUNDAN_RED_PANDA_JEWELRY_11_cls-11{fill:#45793b;}.GUNDAN_RED_PANDA_JEWELRY_GUNDAN_RED_PANDA_JEWELRY_11_cls-12{fill:#92cb7b;}.GUNDAN_RED_PANDA_JEWELRY_GUNDAN_RED_PANDA_JEWELRY_11_cls-13{fill:silver;}.GUNDAN_RED_PANDA_JEWELRY_GUNDAN_RED_PANDA_JEWELRY_11_cls-14{fill:#878c84;}.GUNDAN_RED_PANDA_JEWELRY_GUNDAN_RED_PANDA_JEWELRY_11_cls-15{stroke-width:0.34px;}</style>
  </defs>
  <path class="GUNDAN_RED_PANDA_JEWELRY_GUNDAN_RED_PANDA_JEWELRY_11_cls-1" d="M330.28,166.06s4.26-.68,5.31,3.3-1.78,7.74-5.38,7.81-5.35-2.71-5.07-4.2a18.36,18.36,0,0,0,.74-3.43,3.48,3.48,0,0,1,2.23,2c.51,1.51,5.35,1.17,5.3-.53s-3-3.25-3.24-3.13A2.19,2.19,0,0,1,330.28,166.06Z" />
  <path class="GUNDAN_RED_PANDA_JEWELRY_GUNDAN_RED_PANDA_JEWELRY_11_cls-2" d="M335.35,173.44a3.43,3.43,0,0,0-3.39.28,4.42,4.42,0,0,0-1.51,3.44,2.6,2.6,0,0,0,3.8,1.74C337.32,177.64,336.71,174.8,335.35,173.44Z" />
  <path class="GUNDAN_RED_PANDA_JEWELRY_GUNDAN_RED_PANDA_JEWELRY_11_cls-3" d="M333.29,174.73s-1.1,1.23-.63,2.24a2.43,2.43,0,0,0,1.12,1.26s-2.17-.26-2.19-1.79S333.29,174.73,333.29,174.73Z" />
  <path class="GUNDAN_RED_PANDA_JEWELRY_GUNDAN_RED_PANDA_JEWELRY_11_cls-4" d="M326.45,167.62s-1.77,3-1.59,9.11" />
  <circle cx="238.39" cy="330.58" r="1.7" />
  <path d="M182.24,293.88l.47-2.16a2.88,2.88,0,0,0-2.42.81" />
  <path class="GUNDAN_RED_PANDA_JEWELRY_GUNDAN_RED_PANDA_JEWELRY_11_cls-5" d="M212.3,321.75s-1.44-1.11-2.69-1.88h0a2.17,2.17,0,0,0,.62-.5,1.71,1.71,0,0,0,.32-.59,9.42,9.42,0,0,1,1.92,1.19,6.91,6.91,0,0,1,.54.53A1.93,1.93,0,0,0,212.3,321.75Z" />
  <path class="GUNDAN_RED_PANDA_JEWELRY_GUNDAN_RED_PANDA_JEWELRY_11_cls-5" d="M204.26,317.26a6.19,6.19,0,0,0,3.88,1.79h0a1.08,1.08,0,0,0,.82-.34.9.9,0,0,0,.25-.53h.06s.58.25,1.28.59a1.71,1.71,0,0,1-.32.59,2.17,2.17,0,0,1-.62.5h0a4.33,4.33,0,0,1-3.63-.18c-1.72-.79-3-1.73-2.93-2.73a2,2,0,0,1,.73-1.28,3.85,3.85,0,0,1,.54.65.77.77,0,0,0-.16.56A.67.67,0,0,0,204.26,317.26Z" />
  <path class="GUNDAN_RED_PANDA_JEWELRY_GUNDAN_RED_PANDA_JEWELRY_11_cls-5" d="M183.29,297a.87.87,0,0,1-.34.43,1.78,1.78,0,0,1-1.6.26.81.81,0,0,1,.1-.37,1.1,1.1,0,0,1,.46-.45h0a3,3,0,0,0-.14-.78,2.67,2.67,0,0,0-1.34.88s-.26-.59-.63-1.31v0c-.45-1.08-.15-3,1.28-3.39h0c1.46-.46,1,1.48,1.09,1.56a5.92,5.92,0,0,1,1.07,2.07A1.68,1.68,0,0,1,183.29,297Z" />
  <path class="GUNDAN_RED_PANDA_JEWELRY_GUNDAN_RED_PANDA_JEWELRY_11_cls-6" d="M183.29,297a1.68,1.68,0,0,0,0-1.12,6.34,6.34,0,0,1,3,2.35,3.28,3.28,0,0,1,.51,1.79l-.14-.11a3.16,3.16,0,0,0-1.28-.65A4.62,4.62,0,0,0,183.29,297Z" />
  <path class="GUNDAN_RED_PANDA_JEWELRY_GUNDAN_RED_PANDA_JEWELRY_11_cls-5" d="M180.43,296.94a2.68,2.68,0,0,1,1.35-.88,3.17,3.17,0,0,1,.13.77h0a1.1,1.1,0,0,0-.46.45.81.81,0,0,0-.1.37,5,5,0,0,0,2.06,2.83,1.45,1.45,0,0,0,1.35.21,1.32,1.32,0,0,0,.4-.26c.12.07.58.37,1.1.76a2.28,2.28,0,0,1-.73.54,2.56,2.56,0,0,1-.68.21,3.72,3.72,0,0,1-3.28-1.48C180.46,299.13,179.86,297.82,180.43,296.94Z" />
  <path class="GUNDAN_RED_PANDA_JEWELRY_GUNDAN_RED_PANDA_JEWELRY_11_cls-5" d="M184.85,302a2.56,2.56,0,0,0,.68-.21,2.28,2.28,0,0,0,.73-.54h0a8.51,8.51,0,0,1,1.6,1.45c.18.24.32.44.43.61a2.23,2.23,0,0,0-1,1.13h0A28.22,28.22,0,0,0,184.85,302Z" />
  <path class="GUNDAN_RED_PANDA_JEWELRY_GUNDAN_RED_PANDA_JEWELRY_11_cls-7" d="M184.76,300.7a1.45,1.45,0,0,1-1.35-.21.6.6,0,0,1,.09-.66,1.84,1.84,0,0,1,1.81-.6,3.16,3.16,0,0,1,1.28.65l.14.11h0a15.87,15.87,0,0,1,2.91,2.76,1.82,1.82,0,0,1,.41,1.05.74.74,0,0,1-.2.48,1.66,1.66,0,0,1-1.46.6.79.79,0,0,1,0-.37.93.93,0,0,1,.29-.53h0a2.83,2.83,0,0,0-.37-.71c-.11-.17-.25-.37-.43-.61a8.51,8.51,0,0,0-1.6-1.45h0c-.52-.39-1-.69-1.1-.76A1.32,1.32,0,0,1,184.76,300.7Z" />
  <path class="GUNDAN_RED_PANDA_JEWELRY_GUNDAN_RED_PANDA_JEWELRY_11_cls-6" d="M197.38,310.31a1.63,1.63,0,0,0-.3-1.07h0a7,7,0,0,1,3.48,1.82,3.71,3.71,0,0,1,.93,1.68l-.17-.09a3.26,3.26,0,0,0-1.41-.42A5.3,5.3,0,0,0,197.38,310.31Z" />
  <path class="GUNDAN_RED_PANDA_JEWELRY_GUNDAN_RED_PANDA_JEWELRY_11_cls-6" d="M192.63,305.39a5.49,5.49,0,0,0-2.57-1.59,1.82,1.82,0,0,0-.41-1.05,7.05,7.05,0,0,1,3.63,1.58,3.27,3.27,0,0,1,1.14,2l-.12-.11A2.6,2.6,0,0,0,192.63,305.39Z" />
  <path class="GUNDAN_RED_PANDA_JEWELRY_GUNDAN_RED_PANDA_JEWELRY_11_cls-5" d="M192.63,308.38a4.38,4.38,0,0,1-3.11-.84c-1.5-1.05-2.51-2.17-2.24-3.15a2.23,2.23,0,0,1,1-1.13,2.83,2.83,0,0,1,.37.71h0a.93.93,0,0,0-.29.53.79.79,0,0,0,0,.37,5.92,5.92,0,0,0,3,2.33h0a1.41,1.41,0,0,0,1.25-.15,1,1,0,0,0,.28-.3c.21.17.63.5,1.06.88h0a3.07,3.07,0,0,1-.26.25A2.23,2.23,0,0,1,192.63,308.38Z" />
  <path class="GUNDAN_RED_PANDA_JEWELRY_GUNDAN_RED_PANDA_JEWELRY_11_cls-7" d="M191.44,307.21h0c-.4-.47-.54-.89-.2-1.27a1.86,1.86,0,0,1,1.4-.55,2.6,2.6,0,0,1,1.67.8l.12.11h0a15.29,15.29,0,0,1,2.64,2.93h0a1.63,1.63,0,0,1,.3,1.07h0a.79.79,0,0,1-.24.47,1.75,1.75,0,0,1-1.51.51.69.69,0,0,1,0-.38,1,1,0,0,1,.34-.51,2.73,2.73,0,0,0-.31-.75c-.09-.18-.21-.38-.36-.63a6.57,6.57,0,0,0-1.29-1.39c-.43-.38-.85-.71-1.06-.88a1,1,0,0,1-.28.3A1.41,1.41,0,0,1,191.44,307.21Z" />
  <path class="GUNDAN_RED_PANDA_JEWELRY_GUNDAN_RED_PANDA_JEWELRY_11_cls-5" d="M194,307.64a6.57,6.57,0,0,1,1.29,1.39c.15.25.27.45.36.63a2.43,2.43,0,0,0-1.11,1.07s-1-1.33-1.94-2.35a2.23,2.23,0,0,0,1.14-.49,3.07,3.07,0,0,0,.26-.25Z" />
  <path class="GUNDAN_RED_PANDA_JEWELRY_GUNDAN_RED_PANDA_JEWELRY_11_cls-5" d="M195.64,311.3a5.6,5.6,0,0,0,2.68,2.46,1.46,1.46,0,0,0,1.38,0,1.15,1.15,0,0,0,.34-.31c.12.05.65.26,1.26.57a2.16,2.16,0,0,1-.6.65,2.37,2.37,0,0,1-.62.3,4,4,0,0,1-3.58-.92c-1.39-1.15-2.29-2.32-1.93-3.29a2.43,2.43,0,0,1,1.11-1.07,2.73,2.73,0,0,1,.31.75,1,1,0,0,0-.34.51A.69.69,0,0,0,195.64,311.3Z" />
  <path class="GUNDAN_RED_PANDA_JEWELRY_GUNDAN_RED_PANDA_JEWELRY_11_cls-5" d="M203.22,315.15c.23.21.41.38.55.53h0a2,2,0,0,0-.73,1.28h0a31.55,31.55,0,0,0-3-2h0a2.37,2.37,0,0,0,.62-.3,2.16,2.16,0,0,0,.6-.65A9.39,9.39,0,0,1,203.22,315.15Z" />
  <path class="GUNDAN_RED_PANDA_JEWELRY_GUNDAN_RED_PANDA_JEWELRY_11_cls-7" d="M203.77,315.68c-.14-.15-.32-.32-.55-.53A9.39,9.39,0,0,0,201.3,314c-.61-.31-1.14-.52-1.26-.57a1.15,1.15,0,0,1-.34.31,1.46,1.46,0,0,1-1.38,0,.62.62,0,0,1-.06-.68,1.7,1.7,0,0,1,1.64-.86,3.26,3.26,0,0,1,1.41.42l.17.09A27.08,27.08,0,0,1,205,315l.59.8a1.15,1.15,0,0,1,.06.17.75.75,0,0,1-.08.51,1.55,1.55,0,0,1-1.3.82.67.67,0,0,1-.1-.37.77.77,0,0,1,.16-.56,3.85,3.85,0,0,0-.54-.65Z" />
  <path class="GUNDAN_RED_PANDA_JEWELRY_GUNDAN_RED_PANDA_JEWELRY_11_cls-6" d="M208.52,317.07a6.3,6.3,0,0,0-2.88-1.14,1.15,1.15,0,0,0-.06-.17L205,315a7.73,7.73,0,0,1,3.94,1,4.23,4.23,0,0,1,1.4,1.35,2.77,2.77,0,0,0-1.6-.28Z" />
  <path class="GUNDAN_RED_PANDA_JEWELRY_GUNDAN_RED_PANDA_JEWELRY_11_cls-7" d="M208.14,319c-.53-.36-.81-.74-.59-1.18a1.64,1.64,0,0,1,1-.78l.21-.05a2.77,2.77,0,0,1,1.6.28l.26.13a.83.83,0,0,1,.16.09h0a17.4,17.4,0,0,1,3.5,2.25h0a2,2,0,0,1,.65,1,.84.84,0,0,1-.08.51,1.57,1.57,0,0,1-1.31.81.82.82,0,0,1-.11-.37.87.87,0,0,1,.17-.56h0a3.1,3.1,0,0,0-.54-.64,6.91,6.91,0,0,0-.54-.53,9.42,9.42,0,0,0-1.92-1.19c-.7-.34-1.28-.59-1.28-.59h-.06a.9.9,0,0,1-.25.53,1.08,1.08,0,0,1-.82.34v0Z" />
  <path class="GUNDAN_RED_PANDA_JEWELRY_GUNDAN_RED_PANDA_JEWELRY_11_cls-6" d="M218.19,320.78a4.32,4.32,0,0,1,1.42,1.41l-.19,0a3.47,3.47,0,0,0-1.49-.11,6,6,0,0,0-3-1.29,2,2,0,0,0-.65-1A7.66,7.66,0,0,1,218.19,320.78Z" />
  <path class="GUNDAN_RED_PANDA_JEWELRY_GUNDAN_RED_PANDA_JEWELRY_11_cls-5" d="M219,324.63a4.14,4.14,0,0,1-3.76-.13c-1.71-.8-3-1.74-2.91-2.74h0a1.93,1.93,0,0,1,.73-1.26,3.1,3.1,0,0,1,.54.64h0a.87.87,0,0,0-.17.56.82.82,0,0,0,.11.37,6.49,6.49,0,0,0,3.38,1.79,1.44,1.44,0,0,0,1.33-.31,1.07,1.07,0,0,0,.22-.38c.14,0,.73.12,1.41.28a1.75,1.75,0,0,1-.38.74,2.27,2.27,0,0,1-.49.44Z" />
  <path class="GUNDAN_RED_PANDA_JEWELRY_GUNDAN_RED_PANDA_JEWELRY_11_cls-5" d="M222.48,325.93s-2-.85-3.5-1.3a2.27,2.27,0,0,0,.49-.44,1.75,1.75,0,0,0,.38-.74,11.7,11.7,0,0,1,2.23.71l.7.39A1.79,1.79,0,0,0,222.48,325.93Z" />
  <path class="GUNDAN_RED_PANDA_JEWELRY_GUNDAN_RED_PANDA_JEWELRY_11_cls-7" d="M216.89,323.86a.66.66,0,0,1-.27-.63,1.48,1.48,0,0,1,1.31-1.19,3.47,3.47,0,0,1,1.49.11l.19,0h0a19.86,19.86,0,0,1,4.1,1.4,2.22,2.22,0,0,1,.93.8.64.64,0,0,1,.09.5,1.37,1.37,0,0,1-1,1.07.91.91,0,0,1-.22-.33.81.81,0,0,1,0-.58h0a4.14,4.14,0,0,0-.73-.5l-.7-.39a11.7,11.7,0,0,0-2.23-.71c-.68-.16-1.27-.26-1.41-.28a1.07,1.07,0,0,1-.22.38A1.44,1.44,0,0,1,216.89,323.86Z" />
  <path class="GUNDAN_RED_PANDA_JEWELRY_GUNDAN_RED_PANDA_JEWELRY_11_cls-7" d="M222.78,324.55a4.14,4.14,0,0,1,.73.5h0a.81.81,0,0,0,0,.58.91.91,0,0,0,.22.33c.52.51,4.39,1.72,5,.38.72-1.49-2.95-2.19-4.13-2a2.22,2.22,0,0,0-.93-.8,7.92,7.92,0,0,1,4.14.11c2,.68,2.8,1.9,2.34,3s-2.1,1.62-4,1.23-3.43-1-3.71-2h0A1.79,1.79,0,0,1,222.78,324.55Z" />
  <path class="GUNDAN_RED_PANDA_JEWELRY_GUNDAN_RED_PANDA_JEWELRY_11_cls-8" d="M181.91,296.83a3.17,3.17,0,0,0-.13-.77c-.05-.18-.12-.41-.21-.68a5.9,5.9,0,0,0-.85-1.46" />
  <path class="GUNDAN_RED_PANDA_JEWELRY_GUNDAN_RED_PANDA_JEWELRY_11_cls-8" d="M180.43,296.94s-.26-.59-.63-1.31v0" />
  <path class="GUNDAN_RED_PANDA_JEWELRY_GUNDAN_RED_PANDA_JEWELRY_11_cls-8" d="M181.08,292.22l1.32-.3c0,.06-.33,1.84-.29,1.91a5,5,0,0,1,1.13,2,1.68,1.68,0,0,1,0,1.12.87.87,0,0,1-.34.43,1.78,1.78,0,0,1-1.6.26" />
  <path class="GUNDAN_RED_PANDA_JEWELRY_GUNDAN_RED_PANDA_JEWELRY_11_cls-8" d="M181.91,296.84a1.1,1.1,0,0,0-.46.45.81.81,0,0,0-.1.37,5,5,0,0,0,2.06,2.83,1.45,1.45,0,0,0,1.35.21,1.32,1.32,0,0,0,.4-.26" />
  <path class="GUNDAN_RED_PANDA_JEWELRY_GUNDAN_RED_PANDA_JEWELRY_11_cls-8" d="M185.31,299.23a4.62,4.62,0,0,0-2-2.26" />
  <path class="GUNDAN_RED_PANDA_JEWELRY_GUNDAN_RED_PANDA_JEWELRY_11_cls-8" d="M186.26,301.2a2.28,2.28,0,0,1-.73.54,2.56,2.56,0,0,1-.68.21,3.72,3.72,0,0,1-3.28-1.48c-1.11-1.34-1.71-2.65-1.14-3.53a2.68,2.68,0,0,1,1.35-.88h0" />
  <path class="GUNDAN_RED_PANDA_JEWELRY_GUNDAN_RED_PANDA_JEWELRY_11_cls-8" d="M186.73,300a3.28,3.28,0,0,0-.51-1.79,6.34,6.34,0,0,0-3-2.35" />
  <path class="GUNDAN_RED_PANDA_JEWELRY_GUNDAN_RED_PANDA_JEWELRY_11_cls-8" d="M188.67,304a2.83,2.83,0,0,0-.37-.71c-.11-.17-.25-.37-.43-.61a8.51,8.51,0,0,0-1.6-1.45h0c-.52-.39-1-.69-1.1-.76l0,0" />
  <path class="GUNDAN_RED_PANDA_JEWELRY_GUNDAN_RED_PANDA_JEWELRY_11_cls-8" d="M187.28,304.4a28.22,28.22,0,0,0-2.43-2.45" />
  <path class="GUNDAN_RED_PANDA_JEWELRY_GUNDAN_RED_PANDA_JEWELRY_11_cls-8" d="M183.41,300.49a.6.6,0,0,1,.09-.66,1.84,1.84,0,0,1,1.81-.6,3.16,3.16,0,0,1,1.28.65l.14.11h0a15.87,15.87,0,0,1,2.91,2.76,1.82,1.82,0,0,1,.41,1.05.74.74,0,0,1-.2.48,1.66,1.66,0,0,1-1.46.6" />
  <path class="GUNDAN_RED_PANDA_JEWELRY_GUNDAN_RED_PANDA_JEWELRY_11_cls-8" d="M191.44,307.21a1.41,1.41,0,0,0,1.25-.15,1,1,0,0,0,.28-.3" />
  <path class="GUNDAN_RED_PANDA_JEWELRY_GUNDAN_RED_PANDA_JEWELRY_11_cls-8" d="M188.67,304a.93.93,0,0,0-.29.53.79.79,0,0,0,0,.37,5.92,5.92,0,0,0,3,2.33" />
  <path class="GUNDAN_RED_PANDA_JEWELRY_GUNDAN_RED_PANDA_JEWELRY_11_cls-8" d="M192.63,305.39a5.49,5.49,0,0,0-2.57-1.59h0" />
  <path class="GUNDAN_RED_PANDA_JEWELRY_GUNDAN_RED_PANDA_JEWELRY_11_cls-8" d="M188.3,303.25h0a2.23,2.23,0,0,0-1,1.13c-.27,1,.74,2.1,2.24,3.15a4.38,4.38,0,0,0,3.11.84,2.23,2.23,0,0,0,1.14-.49,3.07,3.07,0,0,0,.26-.25" />
  <path class="GUNDAN_RED_PANDA_JEWELRY_GUNDAN_RED_PANDA_JEWELRY_11_cls-8" d="M194.42,306.3a3.27,3.27,0,0,0-1.14-2,7.05,7.05,0,0,0-3.63-1.58h0" />
  <path class="GUNDAN_RED_PANDA_JEWELRY_GUNDAN_RED_PANDA_JEWELRY_11_cls-8" d="M196,310.41a2.73,2.73,0,0,0-.31-.75c-.09-.18-.21-.38-.36-.63a6.57,6.57,0,0,0-1.29-1.39c-.43-.38-.85-.71-1.06-.88l-.17-.13" />
  <path class="GUNDAN_RED_PANDA_JEWELRY_GUNDAN_RED_PANDA_JEWELRY_11_cls-8" d="M194.57,310.73s-1-1.33-1.94-2.35" />
  <path class="GUNDAN_RED_PANDA_JEWELRY_GUNDAN_RED_PANDA_JEWELRY_11_cls-8" d="M191.44,307.21h0c-.4-.47-.54-.89-.2-1.27a1.86,1.86,0,0,1,1.4-.55,2.6,2.6,0,0,1,1.67.8l.12.11h0a15.29,15.29,0,0,1,2.64,2.93h0a1.63,1.63,0,0,1,.3,1.07h0a.79.79,0,0,1-.24.47,1.75,1.75,0,0,1-1.51.51h0" />
  <path class="GUNDAN_RED_PANDA_JEWELRY_GUNDAN_RED_PANDA_JEWELRY_11_cls-8" d="M196,310.41a1,1,0,0,0-.34.51.69.69,0,0,0,0,.38,5.6,5.6,0,0,0,2.68,2.46,1.46,1.46,0,0,0,1.38,0,1.15,1.15,0,0,0,.34-.31" />
  <path class="GUNDAN_RED_PANDA_JEWELRY_GUNDAN_RED_PANDA_JEWELRY_11_cls-8" d="M199.9,312.22a5.3,5.3,0,0,0-2.52-1.91" />
  <path class="GUNDAN_RED_PANDA_JEWELRY_GUNDAN_RED_PANDA_JEWELRY_11_cls-8" d="M201.3,314a2.16,2.16,0,0,1-.6.65,2.37,2.37,0,0,1-.62.3,4,4,0,0,1-3.58-.92c-1.39-1.15-2.29-2.32-1.93-3.29a2.43,2.43,0,0,1,1.11-1.07h0" />
  <path class="GUNDAN_RED_PANDA_JEWELRY_GUNDAN_RED_PANDA_JEWELRY_11_cls-8" d="M201.48,312.73a3.71,3.71,0,0,0-.93-1.68,7,7,0,0,0-3.48-1.82" />
  <path class="GUNDAN_RED_PANDA_JEWELRY_GUNDAN_RED_PANDA_JEWELRY_11_cls-8" d="M203.77,315.68c-.14-.15-.32-.32-.55-.53A9.39,9.39,0,0,0,201.3,314c-.61-.31-1.14-.52-1.26-.57l0,0" />
  <path class="GUNDAN_RED_PANDA_JEWELRY_GUNDAN_RED_PANDA_JEWELRY_11_cls-8" d="M204.32,316.33a3.85,3.85,0,0,0-.54-.65" />
  <path class="GUNDAN_RED_PANDA_JEWELRY_GUNDAN_RED_PANDA_JEWELRY_11_cls-8" d="M203,317a31.55,31.55,0,0,0-3-2" />
  <path class="GUNDAN_RED_PANDA_JEWELRY_GUNDAN_RED_PANDA_JEWELRY_11_cls-8" d="M198.32,313.76a.62.62,0,0,1-.06-.68,1.7,1.7,0,0,1,1.64-.86,3.26,3.26,0,0,1,1.41.42l.17.09A27.08,27.08,0,0,1,205,315l.59.8a1.15,1.15,0,0,1,.06.17.75.75,0,0,1-.08.51,1.55,1.55,0,0,1-1.3.82" />
  <path class="GUNDAN_RED_PANDA_JEWELRY_GUNDAN_RED_PANDA_JEWELRY_11_cls-8" d="M205.63,315.94h0a6.3,6.3,0,0,1,2.88,1.14" />
  <path class="GUNDAN_RED_PANDA_JEWELRY_GUNDAN_RED_PANDA_JEWELRY_11_cls-8" d="M209.23,318.18a.9.9,0,0,1-.25.53,1.08,1.08,0,0,1-.82.34h0a6.19,6.19,0,0,1-3.88-1.79.67.67,0,0,1-.1-.37.77.77,0,0,1,.16-.56" />
  <path class="GUNDAN_RED_PANDA_JEWELRY_GUNDAN_RED_PANDA_JEWELRY_11_cls-8" d="M205,315h0a7.73,7.73,0,0,1,3.94,1,4.23,4.23,0,0,1,1.4,1.35" />
  <path class="GUNDAN_RED_PANDA_JEWELRY_GUNDAN_RED_PANDA_JEWELRY_11_cls-8" d="M210.57,318.77a1.71,1.71,0,0,1-.32.59,2.17,2.17,0,0,1-.62.5h0a4.33,4.33,0,0,1-3.63-.18c-1.72-.79-3-1.73-2.93-2.73a2,2,0,0,1,.73-1.28h0" />
  <path class="GUNDAN_RED_PANDA_JEWELRY_GUNDAN_RED_PANDA_JEWELRY_11_cls-8" d="M209.29,318.18s.58.25,1.28.59a9.42,9.42,0,0,1,1.92,1.19,6.91,6.91,0,0,1,.54.53,3.1,3.1,0,0,1,.54.64" />
  <path class="GUNDAN_RED_PANDA_JEWELRY_GUNDAN_RED_PANDA_JEWELRY_11_cls-8" d="M212.3,321.75s-1.44-1.11-2.69-1.88" />
  <path class="GUNDAN_RED_PANDA_JEWELRY_GUNDAN_RED_PANDA_JEWELRY_11_cls-8" d="M213.5,322.07h0a1.57,1.57,0,0,0,1.31-.81.84.84,0,0,0,.08-.51,2,2,0,0,0-.65-1h0a17.4,17.4,0,0,0-3.5-2.25h0a.83.83,0,0,0-.16-.09l-.26-.13a2.77,2.77,0,0,0-1.6-.28l-.21.05a1.64,1.64,0,0,0-1,.78c-.22.44.06.82.59,1.18h0" />
  <path class="GUNDAN_RED_PANDA_JEWELRY_GUNDAN_RED_PANDA_JEWELRY_11_cls-8" d="M213.57,321.14a.87.87,0,0,0-.17.56.82.82,0,0,0,.11.37,6.49,6.49,0,0,0,3.38,1.79,1.44,1.44,0,0,0,1.33-.31,1.07,1.07,0,0,0,.22-.38" />
  <path class="GUNDAN_RED_PANDA_JEWELRY_GUNDAN_RED_PANDA_JEWELRY_11_cls-8" d="M217.93,322a6,6,0,0,0-3-1.29h0" />
  <path class="GUNDAN_RED_PANDA_JEWELRY_GUNDAN_RED_PANDA_JEWELRY_11_cls-8" d="M219,324.63a4.14,4.14,0,0,1-3.76-.13c-1.71-.8-3-1.74-2.91-2.74h0a1.93,1.93,0,0,1,.73-1.26h0" />
  <path class="GUNDAN_RED_PANDA_JEWELRY_GUNDAN_RED_PANDA_JEWELRY_11_cls-8" d="M219.85,323.45a1.75,1.75,0,0,1-.38.74,2.27,2.27,0,0,1-.49.44" />
  <path class="GUNDAN_RED_PANDA_JEWELRY_GUNDAN_RED_PANDA_JEWELRY_11_cls-8" d="M219.61,322.19a4.32,4.32,0,0,0-1.42-1.41,7.66,7.66,0,0,0-3.94-1h0" />
  <path class="GUNDAN_RED_PANDA_JEWELRY_GUNDAN_RED_PANDA_JEWELRY_11_cls-8" d="M223.51,325.05a4.14,4.14,0,0,0-.73-.5l-.7-.39a11.7,11.7,0,0,0-2.23-.71c-.68-.16-1.27-.26-1.41-.28h0" />
  <path class="GUNDAN_RED_PANDA_JEWELRY_GUNDAN_RED_PANDA_JEWELRY_11_cls-8" d="M222.48,325.93s-2-.85-3.5-1.3h0" />
  <path class="GUNDAN_RED_PANDA_JEWELRY_GUNDAN_RED_PANDA_JEWELRY_11_cls-8" d="M216.89,323.86a.66.66,0,0,1-.27-.63,1.48,1.48,0,0,1,1.31-1.19,3.47,3.47,0,0,1,1.49.11l.19,0h0a19.86,19.86,0,0,1,4.1,1.4,2.22,2.22,0,0,1,.93.8.64.64,0,0,1,.09.5,1.37,1.37,0,0,1-1,1.07" />
  <path class="GUNDAN_RED_PANDA_JEWELRY_GUNDAN_RED_PANDA_JEWELRY_11_cls-8" d="M224.65,324.4c1.18-.24,4.85.46,4.13,2-.64,1.34-4.51.13-5-.38a.91.91,0,0,1-.22-.33.81.81,0,0,1,0-.58" />
  <path class="GUNDAN_RED_PANDA_JEWELRY_GUNDAN_RED_PANDA_JEWELRY_11_cls-8" d="M223.71,323.6h0a7.92,7.92,0,0,1,4.14.11c2,.68,2.8,1.9,2.34,3s-2.1,1.62-4,1.23-3.43-1-3.71-2h0a1.79,1.79,0,0,1,.3-1.38" />
  <path class="GUNDAN_RED_PANDA_JEWELRY_GUNDAN_RED_PANDA_JEWELRY_11_cls-8" d="M181.08,292.22h0c-1.43.42-1.73,2.31-1.28,3.39v0" />
  <path d="M272.22,301.85c-.19-.87-.29-1.3-.48-2.16a2.63,2.63,0,0,1,2.25.84" />
  <path class="GUNDAN_RED_PANDA_JEWELRY_GUNDAN_RED_PANDA_JEWELRY_11_cls-5" d="M240.75,325.71s1.63-.76,3-1.25l0,0a1.88,1.88,0,0,1-.48-.61,1.7,1.7,0,0,1-.2-.64,10.19,10.19,0,0,0-2.09.73c-.26.15-.47.28-.64.4A1.92,1.92,0,0,1,240.75,325.71Z" />
  <path class="GUNDAN_RED_PANDA_JEWELRY_GUNDAN_RED_PANDA_JEWELRY_11_cls-5" d="M249.43,322.93a6,6,0,0,1-4.09,1h0a1,1,0,0,1-.72-.49.84.84,0,0,1-.14-.57h-.05s-.61.12-1.36.3a1.7,1.7,0,0,0,.2.64,1.88,1.88,0,0,0,.48.61l0,0a4.19,4.19,0,0,0,3.57.54c1.82-.45,3.21-1.18,3.34-2.17a2,2,0,0,0-.49-1.37,3.24,3.24,0,0,0-.63.55.8.8,0,0,1,.06.58A.68.68,0,0,1,249.43,322.93Z" />
  <path class="GUNDAN_RED_PANDA_JEWELRY_GUNDAN_RED_PANDA_JEWELRY_11_cls-5" d="M271.25,304.9a.91.91,0,0,0,.32.44,1.59,1.59,0,0,0,1.51.3,1,1,0,0,0-.54-.83h0a3.35,3.35,0,0,1,.12-.77,2.58,2.58,0,0,1,1.26.9s.25-.59.58-1.3v0c.39-1.08.06-3-1.26-3.4h0c-1.35-.47-.93,1.46-1,1.53a6.47,6.47,0,0,0-1,2.05A1.86,1.86,0,0,0,271.25,304.9Z" />
  <path class="GUNDAN_RED_PANDA_JEWELRY_GUNDAN_RED_PANDA_JEWELRY_11_cls-6" d="M271.25,304.9a1.86,1.86,0,0,1,.05-1.11,6,6,0,0,0-2.81,2.22,3.55,3.55,0,0,0-.52,1.76l.14-.1a2.76,2.76,0,0,1,1.21-.58A4.54,4.54,0,0,1,271.25,304.9Z" />
  <path class="GUNDAN_RED_PANDA_JEWELRY_GUNDAN_RED_PANDA_JEWELRY_11_cls-5" d="M273.93,304.93a2.5,2.5,0,0,0-1.26-.9,3.28,3.28,0,0,0-.12.77h0a1,1,0,0,1,.53.82,4.82,4.82,0,0,1-2,2.79,1.3,1.3,0,0,1-1.28.15,1.14,1.14,0,0,1-.38-.28c-.11.07-.56.36-1.06.72a2.09,2.09,0,0,0,.67.57,2.14,2.14,0,0,0,.64.23,3.37,3.37,0,0,0,3.17-1.37C273.92,307.12,274.48,305.81,273.93,304.93Z" />
  <path class="GUNDAN_RED_PANDA_JEWELRY_GUNDAN_RED_PANDA_JEWELRY_11_cls-5" d="M269.69,309.81a2.14,2.14,0,0,1-.64-.23,2.09,2.09,0,0,1-.67-.57h0a8.32,8.32,0,0,0-1.58,1.35c-.18.23-.32.42-.43.58a2.22,2.22,0,0,1,.91,1.2h0S268.59,310.73,269.69,309.81Z" />
  <path class="GUNDAN_RED_PANDA_JEWELRY_GUNDAN_RED_PANDA_JEWELRY_11_cls-7" d="M269.82,308.57a1.3,1.3,0,0,0,1.28-.15.64.64,0,0,0-.08-.67,1.71,1.71,0,0,0-1.7-.66,2.76,2.76,0,0,0-1.21.58l-.14.1h0a15.85,15.85,0,0,0-2.87,2.56,1.93,1.93,0,0,0-.45,1,.8.8,0,0,0,.16.49,1.57,1.57,0,0,0,1.36.71.82.82,0,0,0,0-.37.93.93,0,0,0-.25-.55h0a2.78,2.78,0,0,1,.4-.69c.11-.16.25-.35.43-.58a8.32,8.32,0,0,1,1.58-1.35h0c.5-.36.95-.65,1.06-.72A1.14,1.14,0,0,0,269.82,308.57Z" />
  <path class="GUNDAN_RED_PANDA_JEWELRY_GUNDAN_RED_PANDA_JEWELRY_11_cls-6" d="M257.08,317.1a1.81,1.81,0,0,1,.42-1h0A6.79,6.79,0,0,0,254,317.4a3.72,3.72,0,0,0-1.12,1.52l.18-.06a3.15,3.15,0,0,1,1.4-.21A5.21,5.21,0,0,1,257.08,317.1Z" />
  <path class="GUNDAN_RED_PANDA_JEWELRY_GUNDAN_RED_PANDA_JEWELRY_11_cls-6" d="M262.11,312.73a5.21,5.21,0,0,1,2.54-1.37,1.93,1.93,0,0,1,.45-1,6.84,6.84,0,0,0-3.54,1.28,3.29,3.29,0,0,0-1.24,1.84l.13-.1A2.48,2.48,0,0,1,262.11,312.73Z" />
  <path class="GUNDAN_RED_PANDA_JEWELRY_GUNDAN_RED_PANDA_JEWELRY_11_cls-5" d="M261.86,315.71a4.08,4.08,0,0,0,3.06-.58c1.52-.93,2.56-2,2.35-3a2.22,2.22,0,0,0-.91-1.2,2.78,2.78,0,0,0-.4.69h0a.93.93,0,0,1,.25.55.82.82,0,0,1,0,.37,5.5,5.5,0,0,1-3.07,2.08h0a1.27,1.27,0,0,1-1.18-.26.87.87,0,0,1-.24-.32c-.22.14-.65.43-1.1.76h0a1.86,1.86,0,0,0,.22.27A2.2,2.2,0,0,0,261.86,315.71Z" />
  <path class="GUNDAN_RED_PANDA_JEWELRY_GUNDAN_RED_PANDA_JEWELRY_11_cls-7" d="M263.09,314.64h0c.43-.43.59-.84.29-1.24a1.72,1.72,0,0,0-1.28-.67,2.48,2.48,0,0,0-1.66.63l-.13.1h0a15.47,15.47,0,0,0-2.82,2.61h0a1.81,1.81,0,0,0-.42,1h0a.79.79,0,0,0,.18.5,1.62,1.62,0,0,0,1.39.68.71.71,0,0,0,0-.38,1,1,0,0,0-.27-.54,3.13,3.13,0,0,1,.38-.7c.11-.17.25-.36.41-.59a7.36,7.36,0,0,1,1.37-1.25c.45-.33.88-.62,1.1-.76a.87.87,0,0,0,.24.32A1.27,1.27,0,0,0,263.09,314.64Z" />
  <path class="GUNDAN_RED_PANDA_JEWELRY_GUNDAN_RED_PANDA_JEWELRY_11_cls-5" d="M260.57,314.82a7.36,7.36,0,0,0-1.37,1.25c-.16.23-.3.42-.41.59a2.3,2.3,0,0,1,1,1.18s1.09-1.21,2.11-2.13a2.2,2.2,0,0,1-1.06-.61,1.86,1.86,0,0,1-.22-.27Z" />
  <path class="GUNDAN_RED_PANDA_JEWELRY_GUNDAN_RED_PANDA_JEWELRY_11_cls-5" d="M258.65,318.28a5.4,5.4,0,0,1-2.91,2.11,1.39,1.39,0,0,1-1.33-.22,1,1,0,0,1-.28-.36c-.12,0-.66.17-1.3.38a2.1,2.1,0,0,0,.48.73,2,2,0,0,0,.56.39,3.77,3.77,0,0,0,3.61-.43c1.51-1,2.52-2,2.27-3a2.3,2.3,0,0,0-1-1.18,3.13,3.13,0,0,0-.38.7,1,1,0,0,1,.27.54A.71.71,0,0,1,258.65,318.28Z" />
  <path class="GUNDAN_RED_PANDA_JEWELRY_GUNDAN_RED_PANDA_JEWELRY_11_cls-5" d="M250.79,321c-.25.17-.45.3-.62.43h0a2,2,0,0,1,.49,1.37h0s1.79-1,3.19-1.53h0a2,2,0,0,1-.56-.39,2.1,2.1,0,0,1-.48-.73A9.42,9.42,0,0,0,250.79,321Z" />
  <path class="GUNDAN_RED_PANDA_JEWELRY_GUNDAN_RED_PANDA_JEWELRY_11_cls-7" d="M250.17,321.46c.17-.13.37-.26.62-.43a9.42,9.42,0,0,1,2-.84c.64-.21,1.18-.35,1.3-.38a1,1,0,0,0,.28.36,1.39,1.39,0,0,0,1.33.22.62.62,0,0,0,.15-.66,1.66,1.66,0,0,0-1.47-1.08,3.15,3.15,0,0,0-1.4.21l-.18.06a33.14,33.14,0,0,0-3.71,1.63l-.71.67-.09.16a.84.84,0,0,0,0,.52,1.52,1.52,0,0,0,1.11,1,.68.68,0,0,0,.17-.34.8.8,0,0,0-.06-.58,3.24,3.24,0,0,1,.63-.55Z" />
  <path class="GUNDAN_RED_PANDA_JEWELRY_GUNDAN_RED_PANDA_JEWELRY_11_cls-6" d="M245.36,322a6.15,6.15,0,0,1,3-.58l.09-.16.71-.67a7.62,7.62,0,0,0-3.95.23,4.3,4.3,0,0,0-1.6,1,2.66,2.66,0,0,1,1.59.06Z" />
  <path class="GUNDAN_RED_PANDA_JEWELRY_GUNDAN_RED_PANDA_JEWELRY_11_cls-7" d="M245.34,323.93c.59-.24.93-.56.8-1a1.59,1.59,0,0,0-.78-1l-.19-.09a2.66,2.66,0,0,0-1.59-.06l-.27.07-.17.06h0a18.65,18.65,0,0,0-3.82,1.41h0a2.05,2.05,0,0,0-.83.79.75.75,0,0,0,0,.51,1.54,1.54,0,0,0,1.07,1.09.77.77,0,0,0,.18-.33.85.85,0,0,0,0-.58h0a4,4,0,0,1,.66-.49c.17-.12.38-.25.64-.4a9.82,9.82,0,0,1,2.09-.73c.74-.19,1.36-.3,1.36-.3h.05a.84.84,0,0,0,.14.57,1,1,0,0,0,.72.49v0Z" />
  <path class="GUNDAN_RED_PANDA_JEWELRY_GUNDAN_RED_PANDA_JEWELRY_11_cls-6" d="M235.34,323.35a4.14,4.14,0,0,0-1.7,1h.19a3.54,3.54,0,0,1,1.45.29,6,6,0,0,1,3.2-.5,2.05,2.05,0,0,1,.83-.79A7.75,7.75,0,0,0,235.34,323.35Z" />
  <path class="GUNDAN_RED_PANDA_JEWELRY_GUNDAN_RED_PANDA_JEWELRY_11_cls-5" d="M233.62,326.83a4.06,4.06,0,0,0,3.66.84c1.85-.34,3.28-1,3.46-2h0a1.92,1.92,0,0,0-.43-1.39,4,4,0,0,0-.66.49h0a.85.85,0,0,1,0,.58.77.77,0,0,1-.18.33,6.31,6.31,0,0,1-3.7.9,1.39,1.39,0,0,1-1.19-.63,1.08,1.08,0,0,1-.12-.42c-.14,0-.72-.08-1.41-.11a1.68,1.68,0,0,0,.16.81,2.17,2.17,0,0,0,.36.55Z" />
  <path class="GUNDAN_RED_PANDA_JEWELRY_GUNDAN_RED_PANDA_JEWELRY_11_cls-5" d="M229.9,327.1s2.12-.25,3.71-.27a2.17,2.17,0,0,1-.36-.55,1.68,1.68,0,0,1-.16-.81,11.53,11.53,0,0,0-2.31.06c-.31.06-.57.11-.78.17A1.76,1.76,0,0,1,229.9,327.1Z" />
  <path class="GUNDAN_RED_PANDA_JEWELRY_GUNDAN_RED_PANDA_JEWELRY_11_cls-7" d="M235.81,326.63a.65.65,0,0,0,.43-.53,1.5,1.5,0,0,0-1-1.47,3.54,3.54,0,0,0-1.45-.29h-.2a21.69,21.69,0,0,0-4.25.19,2.21,2.21,0,0,0-1.1.48.62.62,0,0,0-.23.45,1.36,1.36,0,0,0,.64,1.3,1.08,1.08,0,0,0,.3-.25.74.74,0,0,0,.18-.54h0a3.64,3.64,0,0,1,.83-.27c.21-.06.47-.11.78-.17a11.53,11.53,0,0,1,2.31-.06c.69,0,1.27.09,1.41.11a1.08,1.08,0,0,0,.12.42A1.39,1.39,0,0,0,235.81,326.63Z" />
  <path class="GUNDAN_RED_PANDA_JEWELRY_GUNDAN_RED_PANDA_JEWELRY_11_cls-9" d="M272.55,304.8a3.28,3.28,0,0,1,.12-.77c0-.18.1-.41.18-.68a6.24,6.24,0,0,1,.78-1.44" />
  <path class="GUNDAN_RED_PANDA_JEWELRY_GUNDAN_RED_PANDA_JEWELRY_11_cls-9" d="M273.93,304.93s.25-.59.58-1.3v0" />
  <path class="GUNDAN_RED_PANDA_JEWELRY_GUNDAN_RED_PANDA_JEWELRY_11_cls-9" d="M273.26,300.21c-.5-.12-.74-.19-1.23-.32,0,.06.34,1.84.3,1.91a5.09,5.09,0,0,0-1,2,1.79,1.79,0,0,0-.05,1.11.87.87,0,0,0,.32.44,1.59,1.59,0,0,0,1.51.3" />
  <path class="GUNDAN_RED_PANDA_JEWELRY_GUNDAN_RED_PANDA_JEWELRY_11_cls-9" d="M272.55,304.81a1,1,0,0,1,.53.82,4.82,4.82,0,0,1-2,2.79,1.3,1.3,0,0,1-1.28.15,1.14,1.14,0,0,1-.38-.28" />
  <path class="GUNDAN_RED_PANDA_JEWELRY_GUNDAN_RED_PANDA_JEWELRY_11_cls-9" d="M269.32,307.09a4.54,4.54,0,0,1,1.93-2.19" />
  <path class="GUNDAN_RED_PANDA_JEWELRY_GUNDAN_RED_PANDA_JEWELRY_11_cls-9" d="M268.38,309a2.09,2.09,0,0,0,.67.57,2.14,2.14,0,0,0,.64.23,3.37,3.37,0,0,0,3.17-1.37c1.06-1.32,1.62-2.62,1.07-3.51a2.5,2.5,0,0,0-1.26-.9h0" />
  <path class="GUNDAN_RED_PANDA_JEWELRY_GUNDAN_RED_PANDA_JEWELRY_11_cls-9" d="M268,307.77a3.55,3.55,0,0,1,.52-1.76,6,6,0,0,1,2.81-2.22" />
  <path class="GUNDAN_RED_PANDA_JEWELRY_GUNDAN_RED_PANDA_JEWELRY_11_cls-9" d="M266,311.63a2.78,2.78,0,0,1,.4-.69c.11-.16.25-.35.43-.58a8.32,8.32,0,0,1,1.58-1.35h0c.5-.36.95-.65,1.06-.72h0" />
  <path class="GUNDAN_RED_PANDA_JEWELRY_GUNDAN_RED_PANDA_JEWELRY_11_cls-9" d="M267.27,312.14s1.32-1.41,2.42-2.33" />
  <path class="GUNDAN_RED_PANDA_JEWELRY_GUNDAN_RED_PANDA_JEWELRY_11_cls-9" d="M271.1,308.42a.64.64,0,0,0-.08-.67,1.71,1.71,0,0,0-1.7-.66,2.76,2.76,0,0,0-1.21.58l-.14.1h0a15.85,15.85,0,0,0-2.87,2.56,1.93,1.93,0,0,0-.45,1,.8.8,0,0,0,.16.49,1.57,1.57,0,0,0,1.36.71" />
  <path class="GUNDAN_RED_PANDA_JEWELRY_GUNDAN_RED_PANDA_JEWELRY_11_cls-9" d="M263.09,314.64a1.27,1.27,0,0,1-1.18-.26.87.87,0,0,1-.24-.32" />
  <path class="GUNDAN_RED_PANDA_JEWELRY_GUNDAN_RED_PANDA_JEWELRY_11_cls-9" d="M266,311.64a.93.93,0,0,1,.25.55.82.82,0,0,1,0,.37,5.5,5.5,0,0,1-3.07,2.08" />
  <path class="GUNDAN_RED_PANDA_JEWELRY_GUNDAN_RED_PANDA_JEWELRY_11_cls-9" d="M262.11,312.73a5.21,5.21,0,0,1,2.54-1.37h0" />
  <path class="GUNDAN_RED_PANDA_JEWELRY_GUNDAN_RED_PANDA_JEWELRY_11_cls-9" d="M266.35,310.94h0a2.22,2.22,0,0,1,.91,1.2c.21,1-.83,2.06-2.35,3a4.08,4.08,0,0,1-3.06.58,2.2,2.2,0,0,1-1.06-.61,1.86,1.86,0,0,1-.22-.27" />
  <path class="GUNDAN_RED_PANDA_JEWELRY_GUNDAN_RED_PANDA_JEWELRY_11_cls-9" d="M260.32,313.46a3.29,3.29,0,0,1,1.24-1.84,6.84,6.84,0,0,1,3.54-1.28h0" />
  <path class="GUNDAN_RED_PANDA_JEWELRY_GUNDAN_RED_PANDA_JEWELRY_11_cls-9" d="M258.41,317.36a3.13,3.13,0,0,1,.38-.7c.11-.17.25-.36.41-.59a7.36,7.36,0,0,1,1.37-1.25c.45-.33.88-.62,1.1-.76l.17-.11" />
  <path class="GUNDAN_RED_PANDA_JEWELRY_GUNDAN_RED_PANDA_JEWELRY_11_cls-9" d="M259.75,317.84s1.09-1.21,2.11-2.13" />
  <path class="GUNDAN_RED_PANDA_JEWELRY_GUNDAN_RED_PANDA_JEWELRY_11_cls-9" d="M263.09,314.64h0c.43-.43.59-.84.29-1.24a1.72,1.72,0,0,0-1.28-.67,2.48,2.48,0,0,0-1.66.63l-.13.1h0a15.47,15.47,0,0,0-2.82,2.61h0a1.81,1.81,0,0,0-.42,1h0a.79.79,0,0,0,.18.5,1.62,1.62,0,0,0,1.39.68h0" />
  <path class="GUNDAN_RED_PANDA_JEWELRY_GUNDAN_RED_PANDA_JEWELRY_11_cls-9" d="M258.41,317.36a1,1,0,0,1,.27.54.71.71,0,0,1,0,.38,5.4,5.4,0,0,1-2.91,2.11,1.39,1.39,0,0,1-1.33-.22,1,1,0,0,1-.28-.36" />
  <path class="GUNDAN_RED_PANDA_JEWELRY_GUNDAN_RED_PANDA_JEWELRY_11_cls-9" d="M254.42,318.65a5.21,5.21,0,0,1,2.66-1.55" />
  <path class="GUNDAN_RED_PANDA_JEWELRY_GUNDAN_RED_PANDA_JEWELRY_11_cls-9" d="M252.83,320.19a2.1,2.1,0,0,0,.48.73,2,2,0,0,0,.56.39,3.77,3.77,0,0,0,3.61-.43c1.51-1,2.52-2,2.27-3a2.3,2.3,0,0,0-1-1.18h0" />
  <path class="GUNDAN_RED_PANDA_JEWELRY_GUNDAN_RED_PANDA_JEWELRY_11_cls-9" d="M252.84,318.92A3.72,3.72,0,0,1,254,317.4a6.79,6.79,0,0,1,3.54-1.33" />
  <path class="GUNDAN_RED_PANDA_JEWELRY_GUNDAN_RED_PANDA_JEWELRY_11_cls-9" d="M250.17,321.46c.17-.13.37-.26.62-.43a9.42,9.42,0,0,1,2-.84c.64-.21,1.18-.35,1.3-.38h0" />
  <path class="GUNDAN_RED_PANDA_JEWELRY_GUNDAN_RED_PANDA_JEWELRY_11_cls-9" d="M249.54,322a3.24,3.24,0,0,1,.63-.55" />
  <path class="GUNDAN_RED_PANDA_JEWELRY_GUNDAN_RED_PANDA_JEWELRY_11_cls-9" d="M250.67,322.84s1.79-1,3.19-1.53" />
  <path class="GUNDAN_RED_PANDA_JEWELRY_GUNDAN_RED_PANDA_JEWELRY_11_cls-9" d="M255.74,320.39a.62.62,0,0,0,.15-.66,1.66,1.66,0,0,0-1.47-1.08,3.15,3.15,0,0,0-1.4.21l-.18.06a33.14,33.14,0,0,0-3.71,1.63l-.71.67-.09.16a.84.84,0,0,0,0,.52,1.52,1.52,0,0,0,1.11,1" />
  <path class="GUNDAN_RED_PANDA_JEWELRY_GUNDAN_RED_PANDA_JEWELRY_11_cls-9" d="M248.34,321.39h0a6.15,6.15,0,0,0-3,.58" />
  <path class="GUNDAN_RED_PANDA_JEWELRY_GUNDAN_RED_PANDA_JEWELRY_11_cls-9" d="M244.46,322.89a.84.84,0,0,0,.14.57,1,1,0,0,0,.72.49h0a6,6,0,0,0,4.09-1,.68.68,0,0,0,.17-.34.8.8,0,0,0-.06-.58" />
  <path class="GUNDAN_RED_PANDA_JEWELRY_GUNDAN_RED_PANDA_JEWELRY_11_cls-9" d="M249.13,320.55h0a7.62,7.62,0,0,0-3.95.23,4.3,4.3,0,0,0-1.6,1" />
  <path class="GUNDAN_RED_PANDA_JEWELRY_GUNDAN_RED_PANDA_JEWELRY_11_cls-9" d="M243.05,323.19a1.7,1.7,0,0,0,.2.64,1.88,1.88,0,0,0,.48.61l0,0a4.19,4.19,0,0,0,3.57.54c1.82-.45,3.21-1.17,3.34-2.17a2,2,0,0,0-.49-1.37h0" />
  <path class="GUNDAN_RED_PANDA_JEWELRY_GUNDAN_RED_PANDA_JEWELRY_11_cls-9" d="M244.41,322.89s-.61.12-1.36.3a10.19,10.19,0,0,0-2.09.73c-.26.15-.47.28-.64.4a4,4,0,0,0-.66.49" />
  <path class="GUNDAN_RED_PANDA_JEWELRY_GUNDAN_RED_PANDA_JEWELRY_11_cls-9" d="M240.75,325.71s1.63-.76,3-1.25" />
  <path class="GUNDAN_RED_PANDA_JEWELRY_GUNDAN_RED_PANDA_JEWELRY_11_cls-9" d="M239.51,325.74h0a1.54,1.54,0,0,1-1.07-1.09.75.75,0,0,1,0-.51,2.05,2.05,0,0,1,.83-.79h0a18.65,18.65,0,0,1,3.82-1.41h0l.17-.06.27-.07a2.66,2.66,0,0,1,1.59.06l.19.09a1.59,1.59,0,0,1,.78,1c.13.46-.21.78-.8,1h0" />
  <path class="GUNDAN_RED_PANDA_JEWELRY_GUNDAN_RED_PANDA_JEWELRY_11_cls-9" d="M239.66,324.82a.85.85,0,0,1,0,.58.77.77,0,0,1-.18.33,6.31,6.31,0,0,1-3.7.9,1.39,1.39,0,0,1-1.19-.63,1.08,1.08,0,0,1-.12-.42" />
  <path class="GUNDAN_RED_PANDA_JEWELRY_GUNDAN_RED_PANDA_JEWELRY_11_cls-9" d="M235.28,324.63a6,6,0,0,1,3.2-.5h0" />
  <path class="GUNDAN_RED_PANDA_JEWELRY_GUNDAN_RED_PANDA_JEWELRY_11_cls-9" d="M233.62,326.83a4.06,4.06,0,0,0,3.66.84c1.85-.34,3.28-1,3.46-2h0a1.92,1.92,0,0,0-.43-1.39h0" />
  <path class="GUNDAN_RED_PANDA_JEWELRY_GUNDAN_RED_PANDA_JEWELRY_11_cls-9" d="M233.09,325.47a1.68,1.68,0,0,0,.16.81,2.17,2.17,0,0,0,.36.55" />
  <path class="GUNDAN_RED_PANDA_JEWELRY_GUNDAN_RED_PANDA_JEWELRY_11_cls-9" d="M233.64,324.33a4.14,4.14,0,0,1,1.7-1,7.75,7.75,0,0,1,4,0h0" />
  <path class="GUNDAN_RED_PANDA_JEWELRY_GUNDAN_RED_PANDA_JEWELRY_11_cls-9" d="M233.62,326.83h0a32.16,32.16,0,0,0-3.71.35s.47-.32.36-1.54" />
  <path class="GUNDAN_RED_PANDA_JEWELRY_GUNDAN_RED_PANDA_JEWELRY_11_cls-9" d="M235.81,326.63a.65.65,0,0,0,.43-.53,1.5,1.5,0,0,0-1-1.47,3.54,3.54,0,0,0-1.45-.29h-.2a21.69,21.69,0,0,0-4.25.19,2.21,2.21,0,0,0-1.1.48.62.62,0,0,0-.23.45,1.24,1.24,0,0,0,.45,1.22,3.11,3.11,0,0,0,.67-.71,3.64,3.64,0,0,1,.83-.27c.21-.06.47-.11.78-.17a11.53,11.53,0,0,1,2.31-.06c.69,0,1.27.09,1.41.11h0" />
  <path class="GUNDAN_RED_PANDA_JEWELRY_GUNDAN_RED_PANDA_JEWELRY_11_cls-9" d="M273.25,300.21h0c1.32.44,1.65,2.32,1.26,3.4v0" />
  <ellipse cx="239.84" cy="338.71" rx="8.08" ry="8.13" />
  <polygon class="GUNDAN_RED_PANDA_JEWELRY_GUNDAN_RED_PANDA_JEWELRY_11_cls-10" points="238.31 343.7 239.38 343.34 237.57 342.38 238.31 343.7" />
  <polygon class="GUNDAN_RED_PANDA_JEWELRY_GUNDAN_RED_PANDA_JEWELRY_11_cls-11" points="240.29 343.34 242.11 342.38 241.37 343.7 240.29 343.34" />
  <polygon class="GUNDAN_RED_PANDA_JEWELRY_GUNDAN_RED_PANDA_JEWELRY_11_cls-11" points="235.65 339.31 236.6 341.5 235.03 340.81 235.65 339.31" />
  <path class="GUNDAN_RED_PANDA_JEWELRY_GUNDAN_RED_PANDA_JEWELRY_11_cls-10" d="M234.11,343.13a7.24,7.24,0,0,1-.88-1.53l1.21-.43Z" />
  <path class="GUNDAN_RED_PANDA_JEWELRY_GUNDAN_RED_PANDA_JEWELRY_11_cls-11" d="M232.66,338.18a7.28,7.28,0,0,1,.44-2l1.27.45Z" />
  <polygon class="GUNDAN_RED_PANDA_JEWELRY_GUNDAN_RED_PANDA_JEWELRY_11_cls-10" points="236.6 335.92 235.65 338.11 235.03 336.61 236.6 335.92" />
  <path class="GUNDAN_RED_PANDA_JEWELRY_GUNDAN_RED_PANDA_JEWELRY_11_cls-10" d="M233.23,335.81a7.5,7.5,0,0,1,.88-1.53l.33,2Z" />
  <path class="GUNDAN_RED_PANDA_JEWELRY_GUNDAN_RED_PANDA_JEWELRY_11_cls-11" d="M233.1,341.28a7.35,7.35,0,0,1-.44-2l1.71,1.58Z" />
  <polygon class="GUNDAN_RED_PANDA_JEWELRY_GUNDAN_RED_PANDA_JEWELRY_11_cls-12" points="235.39 338.71 234.64 340.5 232.69 338.71 234.64 336.91 235.39 338.71" />
  <polygon class="GUNDAN_RED_PANDA_JEWELRY_GUNDAN_RED_PANDA_JEWELRY_11_cls-11" points="238.31 333.71 239.38 334.08 237.57 335.04 238.31 333.71" />
  <path class="GUNDAN_RED_PANDA_JEWELRY_GUNDAN_RED_PANDA_JEWELRY_11_cls-11" d="M239.43,346a7,7,0,0,1-2.42-.58l1.13-1.16Z" />
  <polygon class="GUNDAN_RED_PANDA_JEWELRY_GUNDAN_RED_PANDA_JEWELRY_11_cls-13" points="239.84 343.16 237.25 341.79 235.9 338.71 237.25 335.63 239.84 334.26 242.43 335.63 243.78 338.71 242.43 341.79 239.84 343.16" />
  <polygon class="GUNDAN_RED_PANDA_JEWELRY_GUNDAN_RED_PANDA_JEWELRY_11_cls-12" points="236.83 341.99 237.8 343.74 234.54 343.52 234.94 341.16 236.83 341.99" />
  <polygon class="GUNDAN_RED_PANDA_JEWELRY_GUNDAN_RED_PANDA_JEWELRY_11_cls-10" points="242.11 335.04 240.29 334.08 241.37 333.71 242.11 335.04" />
  <polygon class="GUNDAN_RED_PANDA_JEWELRY_GUNDAN_RED_PANDA_JEWELRY_11_cls-10" points="243.07 341.5 244.03 339.31 244.65 340.81 243.07 341.5" />
  <polygon class="GUNDAN_RED_PANDA_JEWELRY_GUNDAN_RED_PANDA_JEWELRY_11_cls-11" points="244.03 338.11 243.07 335.92 244.65 336.61 244.03 338.11" />
  <path class="GUNDAN_RED_PANDA_JEWELRY_GUNDAN_RED_PANDA_JEWELRY_11_cls-11" d="M236.61,345.24a7.08,7.08,0,0,1-1.87-1.38l3,.21Z" />
  <polygon class="GUNDAN_RED_PANDA_JEWELRY_GUNDAN_RED_PANDA_JEWELRY_11_cls-12" points="239.84 345.81 238.5 344 239.84 343.55 241.17 344 239.84 345.81" />
  <polygon class="GUNDAN_RED_PANDA_JEWELRY_GUNDAN_RED_PANDA_JEWELRY_11_cls-12" points="244.74 341.16 245.14 343.52 241.87 343.74 242.85 341.99 244.74 341.16" />
  <path class="GUNDAN_RED_PANDA_JEWELRY_GUNDAN_RED_PANDA_JEWELRY_11_cls-11" d="M246.45,341.6a7.24,7.24,0,0,1-.88,1.53l-.33-2Z" />
  <polygon class="GUNDAN_RED_PANDA_JEWELRY_GUNDAN_RED_PANDA_JEWELRY_11_cls-12" points="244.29 338.71 245.04 336.91 246.98 338.71 245.04 340.5 244.29 338.71" />
  <path class="GUNDAN_RED_PANDA_JEWELRY_GUNDAN_RED_PANDA_JEWELRY_11_cls-11" d="M247,339.24a7.35,7.35,0,0,1-.44,2l-1.28-.46Z" />
  <path class="GUNDAN_RED_PANDA_JEWELRY_GUNDAN_RED_PANDA_JEWELRY_11_cls-10" d="M244.94,343.86a7.25,7.25,0,0,1-1.87,1.38l-1.14-1.17Z" />
  <path class="GUNDAN_RED_PANDA_JEWELRY_GUNDAN_RED_PANDA_JEWELRY_11_cls-11" d="M242.67,345.43a7,7,0,0,1-2.43.58l1.29-1.74Z" />
  <polygon class="GUNDAN_RED_PANDA_JEWELRY_GUNDAN_RED_PANDA_JEWELRY_11_cls-12" points="242.85 335.42 241.87 333.67 245.14 333.9 244.74 336.25 242.85 335.42" />
  <path class="GUNDAN_RED_PANDA_JEWELRY_GUNDAN_RED_PANDA_JEWELRY_11_cls-11" d="M246.58,336.14a7.28,7.28,0,0,1,.44,2l-1.72-1.59Z" />
  <path class="GUNDAN_RED_PANDA_JEWELRY_GUNDAN_RED_PANDA_JEWELRY_11_cls-11" d="M240.24,331.41a7.26,7.26,0,0,1,2.43.57l-1.14,1.17Z" />
  <path class="GUNDAN_RED_PANDA_JEWELRY_GUNDAN_RED_PANDA_JEWELRY_11_cls-11" d="M243.07,332.18a7.21,7.21,0,0,1,1.87,1.37l-3-.2Z" />
  <path class="GUNDAN_RED_PANDA_JEWELRY_GUNDAN_RED_PANDA_JEWELRY_11_cls-11" d="M234.74,333.55a7,7,0,0,1,1.87-1.37l1.14,1.17Z" />
  <path class="GUNDAN_RED_PANDA_JEWELRY_GUNDAN_RED_PANDA_JEWELRY_11_cls-14" d="M237,332a7.26,7.26,0,0,1,2.42-.57l-1.29,1.74Z" />
  <polygon class="GUNDAN_RED_PANDA_JEWELRY_GUNDAN_RED_PANDA_JEWELRY_11_cls-12" points="234.94 336.25 234.54 333.9 237.8 333.67 236.83 335.42 234.94 336.25" />
  <polygon class="GUNDAN_RED_PANDA_JEWELRY_GUNDAN_RED_PANDA_JEWELRY_11_cls-12" points="238.5 333.41 239.84 331.61 241.17 333.41 239.84 333.86 238.5 333.41" />
  <path class="GUNDAN_RED_PANDA_JEWELRY_GUNDAN_RED_PANDA_JEWELRY_11_cls-10" d="M245.57,334.28a7.5,7.5,0,0,1,.88,1.53l-1.21.43Z" />
  <rect class="GUNDAN_RED_PANDA_JEWELRY_GUNDAN_RED_PANDA_JEWELRY_11_cls-15" x="237.22" y="325.85" width="1.51" height="5.58" rx="0.76" transform="translate(-52.81 45.66) rotate(-9.87)" />
</svg>