<svg id="jewelry" xmlns="http://www.w3.org/2000/svg" viewBox="0 0 432 432">
  <defs>
    <style>.GUNDAN_RED_PANDA_JEWELRY_GUNDAN_RED_PANDA_JEWELRY_5_cls-1{fill:#84442d;}.GUNDAN_RED_PANDA_JEWELRY_GUNDAN_RED_PANDA_JEWELRY_5_cls-2{fill:#009d61;stroke-miterlimit:10;stroke-width:2px;}.GUNDAN_RED_PANDA_JEWELRY_GUNDAN_RED_PANDA_JEWELRY_5_cls-2,.GUNDAN_RED_PANDA_JEWELRY_GUNDAN_RED_PANDA_JEWELRY_5_cls-3,.GUNDAN_RED_PANDA_JEWELRY_GUNDAN_RED_PANDA_JEWELRY_5_cls-4{stroke:#000;}.GUNDAN_RED_PANDA_JEWELRY_GUNDAN_RED_PANDA_JEWELRY_5_cls-3,.GUNDAN_RED_PANDA_JEWELRY_GUNDAN_RED_PANDA_JEWELRY_5_cls-4{fill:none;stroke-linecap:round;stroke-linejoin:round;}.GUNDAN_RED_PANDA_JEWELRY_GUNDAN_RED_PANDA_JEWELRY_5_cls-3{stroke-width:1.84px;}</style>
  </defs>
  <path class="GUNDAN_RED_PANDA_JEWELRY_GUNDAN_RED_PANDA_JEWELRY_5_cls-1" d="M326.09,224.63a.92.92,0,0,1-.88-.66l-.06-.22-.57-2.26c-.3,0-.6,0-.91,0h-.58c-.28,0-.59,0-.89-.07h0l-.7,2.45a.91.91,0,0,1-.88.67,1.07,1.07,0,0,1-.25,0l-3.16-.9a.91.91,0,0,1-.63-1.13l.68-2.44a13,13,0,0,1-2.07-1.23l-1.81,1.77a.91.91,0,0,1-.64.27h0a1,1,0,0,1-.65-.28l-2.3-2.36a.94.94,0,0,1-.26-.65.88.88,0,0,1,.28-.65l1.82-1.77a15.07,15.07,0,0,1-1.19-2.1l-2.45.63a.86.86,0,0,1-.23,0,.92.92,0,0,1-.89-.68l-.82-3.18a.9.9,0,0,1,.1-.7.91.91,0,0,1,.56-.42l2.48-.64a12.84,12.84,0,0,1,0-2.4l-2.44-.69a.92.92,0,0,1-.63-1.14l.88-3.16a.92.92,0,0,1,.44-.56,1,1,0,0,1,.45-.11l.25,0,2.45.69a13.45,13.45,0,0,1,1.23-2.07L310,196.86a.92.92,0,0,1,0-1.3l2.36-2.29a.9.9,0,0,1,.64-.26h0a.92.92,0,0,1,.64.28l1.77,1.82a15.11,15.11,0,0,1,2.11-1.18l-.62-2.47a.91.91,0,0,1,.66-1.11l2.2-.56,1-.25.22,0a.93.93,0,0,1,.89.69l.61,2.45q.48,0,1,0c.48,0,1,0,1.46.07l.69-2.45a.89.89,0,0,1,.88-.66,1.07,1.07,0,0,1,.25,0l3.16.89a.91.91,0,0,1,.63,1.13l-.68,2.45c.38.19.76.39,1.14.62a10.67,10.67,0,0,1,.93.61l1.81-1.77a.94.94,0,0,1,.65-.26.92.92,0,0,1,.65.27l2.31,2.35a1,1,0,0,1,.26.66.88.88,0,0,1-.28.64L335.54,199a15.28,15.28,0,0,1,1.17,2.1l2.46-.62a.92.92,0,0,1,1.12.66l.81,3.18a.9.9,0,0,1-.1.7.89.89,0,0,1-.56.42l-2.47.63a13.83,13.83,0,0,1,0,2.41l2.45.69a.91.91,0,0,1,.63,1.13l-.89,3.17a1,1,0,0,1-.43.55.92.92,0,0,1-.45.12.69.69,0,0,1-.25,0l-2.45-.69c-.22.45-.45.87-.7,1.28s-.34.53-.53.79l1.78,1.82a.93.93,0,0,1,0,1.3l-1.21,1.18-1.16,1.11a.85.85,0,0,1-.63.26.9.9,0,0,1-.66-.28l-1.77-1.81a14.82,14.82,0,0,1-2.1,1.17l.62,2.46a.92.92,0,0,1-.66,1.12l-3,.78-.2,0Zm-2.53-28a10.49,10.49,0,0,0-10.05,7.61,11.3,11.3,0,0,0-.39,2.62A10.44,10.44,0,1,0,326.4,197,10.57,10.57,0,0,0,323.56,196.64Z" />
  <path d="M321,190.44l.81,3.21a13.46,13.46,0,0,1,3.77.07l.91-3.22,3.16.9-.9,3.2a14,14,0,0,1,1.77.9,13.86,13.86,0,0,1,1.48,1l2.38-2.31,2.3,2.35-2.39,2.32a13.87,13.87,0,0,1,1.84,3.3l3.23-.82.81,3.18-3.23.83a13.25,13.25,0,0,1-.05,3.77l3.21.9-.89,3.17L336,212.3a12.9,12.9,0,0,1-1,1.89,12.7,12.7,0,0,1-1,1.35l2.33,2.4-1.21,1.17-1.15,1.11-2.32-2.38a13.65,13.65,0,0,1-3.29,1.84l.81,3.23-3,.78-.15,0-.06-.22-.75-3a12.32,12.32,0,0,1-1.61.1h-.54a7.54,7.54,0,0,1-.82-.06c-.27,0-.54-.05-.8-.09l-.91,3.2-3.16-.89.9-3.2a13.23,13.23,0,0,1-3.25-1.93L312.72,220l-2.3-2.36,2.38-2.32A13.71,13.71,0,0,1,311,212l-3.22.83-.82-3.18,3.24-.83a12.89,12.89,0,0,1,.05-3.77l-3.21-.91.89-3.16,1.06.3,2.15.6a13,13,0,0,1,1.93-3.24l-2.33-2.39,2.36-2.29,2.31,2.38a13.91,13.91,0,0,1,3.3-1.84l-.81-3.23,2.19-.57,1-.23m2.53,28A11.36,11.36,0,1,0,312.63,204a11.62,11.62,0,0,0-.42,2.85,11.38,11.38,0,0,0,11.36,11.58M321,188.6a2.1,2.1,0,0,0-.43.05l-1,.24-2.23.57a1.83,1.83,0,0,0-1.32,2.23l.44,1.74c-.31.16-.61.32-.9.5l-1.25-1.28a1.84,1.84,0,0,0-1.29-.56h0a1.88,1.88,0,0,0-1.29.52l-2.35,2.29a1.84,1.84,0,0,0,0,2.6l1.25,1.28c-.19.29-.36.59-.53.89l-.67-.19-1.05-.3a1.77,1.77,0,0,0-.5-.07,1.88,1.88,0,0,0-.9.23,1.82,1.82,0,0,0-.87,1.11l-.89,3.17a1.84,1.84,0,0,0,1.27,2.26l1.72.49c0,.34,0,.68,0,1l-1.75.45a1.83,1.83,0,0,0-1.12.84,1.85,1.85,0,0,0-.2,1.4l.83,3.18a1.83,1.83,0,0,0,1.77,1.37,1.82,1.82,0,0,0,.46-.06l1.73-.44c.15.3.32.6.5.9l-1.28,1.24a1.83,1.83,0,0,0,0,2.6l2.3,2.36a1.81,1.81,0,0,0,1.29.55h0a1.8,1.8,0,0,0,1.28-.52l1.27-1.25a9.85,9.85,0,0,0,.89.52l-.49,1.72a1.85,1.85,0,0,0,1.27,2.27l3.16.89a1.77,1.77,0,0,0,.5.07,1.85,1.85,0,0,0,1.77-1.34l.48-1.72h1l.38,1.51,0,.05.06.22a1.84,1.84,0,0,0,1.76,1.33l.36,0,.15,0,.1,0,3-.78a1.83,1.83,0,0,0,1.32-2.23l-.44-1.74c.31-.16.6-.32.89-.5l1.25,1.28a1.84,1.84,0,0,0,1.32.56,1.82,1.82,0,0,0,1.27-.51l1.15-1.12,1.22-1.18a1.84,1.84,0,0,0,0-2.6l-1.25-1.28c0-.08.09-.15.13-.22a7.16,7.16,0,0,0,.39-.66l1.73.49a2.08,2.08,0,0,0,.5.07,1.75,1.75,0,0,0,.89-.24,1.81,1.81,0,0,0,.87-1.1l.9-3.17a1.85,1.85,0,0,0-1.27-2.27l-1.73-.48c0-.34,0-.68,0-1l1.75-.44a1.85,1.85,0,0,0,1.32-2.24l-.81-3.18a1.84,1.84,0,0,0-1.78-1.38,1.74,1.74,0,0,0-.45.06l-1.74.44c-.16-.31-.32-.6-.5-.89l1.29-1.26a1.84,1.84,0,0,0,.56-1.29,1.88,1.88,0,0,0-.53-1.31l-2.3-2.35a1.85,1.85,0,0,0-2.6,0l-1.28,1.25-.34-.22-.54-.3.49-1.73a1.84,1.84,0,0,0-1.27-2.26l-3.16-.89a1.68,1.68,0,0,0-.5-.07,1.83,1.83,0,0,0-1.77,1.33l-.48,1.73-.78,0h-.25l-.43-1.72A1.84,1.84,0,0,0,321,188.6Zm2.53,28a9.92,9.92,0,0,1-2.59-.35,9.54,9.54,0,0,1-6.94-9.36,10,10,0,0,1,.36-2.39,9.52,9.52,0,0,1,11.75-6.57,9.5,9.5,0,0,1,6.57,11.74,9.54,9.54,0,0,1-9.15,6.93Z" />
  <circle class="GUNDAN_RED_PANDA_JEWELRY_GUNDAN_RED_PANDA_JEWELRY_5_cls-2" cx="323.56" cy="208.56" r="5.56" />
  <line class="GUNDAN_RED_PANDA_JEWELRY_GUNDAN_RED_PANDA_JEWELRY_5_cls-3" x1="323.56" y1="203" x2="323.56" y2="197.29" />
  <path class="GUNDAN_RED_PANDA_JEWELRY_GUNDAN_RED_PANDA_JEWELRY_5_cls-3" d="M329.25,170.3a6.18,6.18,0,0,1,3.16,4.46" />
  <path class="GUNDAN_RED_PANDA_JEWELRY_GUNDAN_RED_PANDA_JEWELRY_5_cls-3" d="M323.56,192.55v-17a6.56,6.56,0,0,1,1.5-3.78" />
  <path class="GUNDAN_RED_PANDA_JEWELRY_GUNDAN_RED_PANDA_JEWELRY_5_cls-4" d="M326.56,173.15s-1.12-2.24-2.8-2.52" />
</svg>