<svg id="jewelry" xmlns="http://www.w3.org/2000/svg" viewBox="0 0 432 432">
  <defs>
    <style>.GUNDAN_RED_PANDA_JEWELRY_GUNDAN_RED_PANDA_JEWELRY_3_cls-1{fill:#85432d;stroke-miterlimit:10;stroke-width:1.37px;}.GUNDAN_RED_PANDA_JEWELRY_GUNDAN_RED_PANDA_JEWELRY_3_cls-1,.GUNDAN_RED_PANDA_JEWELRY_GUNDAN_RED_PANDA_JEWELRY_3_cls-2,.GUNDAN_RED_PANDA_JEWELRY_GUNDAN_RED_PANDA_JEWELRY_3_cls-4,.GUNDAN_RED_PANDA_JEWELRY_GUNDAN_RED_PANDA_JEWELRY_3_cls-5{stroke:#000;}.GUNDAN_RED_PANDA_JEWELRY_GUNDAN_RED_PANDA_JEWELRY_3_cls-2{fill:#6d2316;stroke-width:2.06px;}.GUNDAN_RED_PANDA_JEWELRY_GUNDAN_RED_PANDA_JEWELRY_3_cls-2,.GUNDAN_RED_PANDA_JEWELRY_GUNDAN_RED_PANDA_JEWELRY_3_cls-4,.GUNDAN_RED_PANDA_JEWELRY_GUNDAN_RED_PANDA_JEWELRY_3_cls-5{stroke-linecap:round;stroke-linejoin:round;}.GUNDAN_RED_PANDA_JEWELRY_GUNDAN_RED_PANDA_JEWELRY_3_cls-3{fill:#e3a92b;}.GUNDAN_RED_PANDA_JEWELRY_GUNDAN_RED_PANDA_JEWELRY_3_cls-4,.GUNDAN_RED_PANDA_JEWELRY_GUNDAN_RED_PANDA_JEWELRY_3_cls-5{fill:none;}.GUNDAN_RED_PANDA_JEWELRY_GUNDAN_RED_PANDA_JEWELRY_3_cls-4{stroke-width:0.83px;}.GUNDAN_RED_PANDA_JEWELRY_GUNDAN_RED_PANDA_JEWELRY_3_cls-5{stroke-width:0.68px;}.GUNDAN_RED_PANDA_JEWELRY_GUNDAN_RED_PANDA_JEWELRY_3_cls-6{fill:#b9876e;}</style>
  </defs>
  <path class="GUNDAN_RED_PANDA_JEWELRY_GUNDAN_RED_PANDA_JEWELRY_3_cls-1" d="M240.16,359.65a2.09,2.09,0,0,1-.34,0,136.71,136.71,0,0,1-29.71-12.41c-20.31-11.53-32.48-25.5-36.24-42.39-.16-.74.55-4.14,5-3.43-.33.37-.62.74-.87,1.08a4.32,4.32,0,0,0-.67,3.69c9.58,36,58.07,49.39,62.8,50.7,3.55-1.11,33-10.61,47.73-41.69a1.92,1.92,0,0,0-.69-2.46,10.41,10.41,0,0,0-1.63-.79c4-2.2,6.37,1.22,5.69,2.78-16,34.95-50.37,44.81-50.72,44.91A1.5,1.5,0,0,1,240.16,359.65Z" />
  <line class="GUNDAN_RED_PANDA_JEWELRY_GUNDAN_RED_PANDA_JEWELRY_3_cls-2" x1="239.94" y1="360.12" x2="240.01" y2="365.29" />
  <path class="GUNDAN_RED_PANDA_JEWELRY_GUNDAN_RED_PANDA_JEWELRY_3_cls-3" d="M227.26,379.52c5.75,1.94,8.58-1.44,8.58-1.44l-2.28,6.45S232.69,384.11,227.26,379.52Z" />
  <path class="GUNDAN_RED_PANDA_JEWELRY_GUNDAN_RED_PANDA_JEWELRY_3_cls-3" d="M240.85,391.77c12.86-7.6,18.69-17.58,18.65-23.88a6.7,6.7,0,0,0-3.62-6.36,10.31,10.31,0,0,0-4.79-1.3c-5.47,0-9,5.54-9,5.59l-.06.11-1.27,1.6-.75.94-2-2.54-.07-.11c0-.06-3.47-5.59-9-5.59a10.28,10.28,0,0,0-4.79,1.3,6.74,6.74,0,0,0-3.63,6.36c0,6.44,6.06,16.71,19.5,24.37Zm16-32c10.09,5.36,3.59,23.62-16.79,34.75-20.37-11.13-26.88-29.39-16.8-34.75s16.4,5,16.4,5l.4.5.4-.5S246.72,354.44,256.8,359.78Z" />
  <path class="GUNDAN_RED_PANDA_JEWELRY_GUNDAN_RED_PANDA_JEWELRY_3_cls-4" d="M256.8,359.78c-10.08-5.34-16.39,5-16.39,5l-.4.5-.4-.5s-6.31-10.35-16.4-5-3.57,23.62,16.8,34.75C260.39,383.4,266.89,365.14,256.8,359.78Z" />
  <path class="GUNDAN_RED_PANDA_JEWELRY_GUNDAN_RED_PANDA_JEWELRY_3_cls-4" d="M240.85,391.77l-.84.49c-13.44-7.66-19.54-17.93-19.5-24.37a6.74,6.74,0,0,1,3.63-6.36,10.28,10.28,0,0,1,4.79-1.3c5.52,0,9,5.53,9,5.59l.07.11,2,2.54.75-.94,1.27-1.6.06-.11c0-.05,3.53-5.59,9-5.59a10.31,10.31,0,0,1,4.79,1.3,6.7,6.7,0,0,1,3.62,6.36C259.54,374.19,253.71,384.17,240.85,391.77Z" />
  <polyline class="GUNDAN_RED_PANDA_JEWELRY_GUNDAN_RED_PANDA_JEWELRY_3_cls-4" points="240.76 367.53 241.92 371.05 238.97 374.73 240.44 377.69 235.84 385.6 241.52 389.6 240.85 391.77" />
  <path class="GUNDAN_RED_PANDA_JEWELRY_GUNDAN_RED_PANDA_JEWELRY_3_cls-5" d="M235.84,378.08s-2.83,3.38-8.58,1.44c5.43,4.59,6.3,5,6.3,5Z" />
  <circle class="GUNDAN_RED_PANDA_JEWELRY_GUNDAN_RED_PANDA_JEWELRY_3_cls-3" cx="229.94" cy="370.52" r="2.52" />
  <path d="M229.94,368.26a2.27,2.27,0,1,1-2.26,2.26,2.27,2.27,0,0,1,2.26-2.26m0-.52a2.78,2.78,0,1,0,2.78,2.78,2.78,2.78,0,0,0-2.78-2.78Z" />
  <path class="GUNDAN_RED_PANDA_JEWELRY_GUNDAN_RED_PANDA_JEWELRY_3_cls-3" d="M229.94,372.88a2.36,2.36,0,1,1,2.36-2.36A2.36,2.36,0,0,1,229.94,372.88Z" />
  <path d="M229.94,368.42a2.1,2.1,0,1,1-2.1,2.1,2.11,2.11,0,0,1,2.1-2.1m0-.51a2.62,2.62,0,1,0,2.62,2.61,2.61,2.61,0,0,0-2.62-2.61Z" />
  <path class="GUNDAN_RED_PANDA_JEWELRY_GUNDAN_RED_PANDA_JEWELRY_3_cls-3" d="M229.3,378.34a7.35,7.35,0,0,1-.82-.11.26.26,0,0,1-.21-.3l.16-.85a6.49,6.49,0,0,1-1-.29l-.35.79a.24.24,0,0,1-.23.15.22.22,0,0,1-.11,0c-.25-.11-.5-.24-.74-.37a.28.28,0,0,1-.12-.16.21.21,0,0,1,0-.19l.43-.76a5.94,5.94,0,0,1-.81-.58l-.58.63a.31.31,0,0,1-.18.09h0a.29.29,0,0,1-.18-.07,8.21,8.21,0,0,1-.58-.6.23.23,0,0,1-.06-.18.23.23,0,0,1,.09-.18l.64-.57a7.4,7.4,0,0,1-.57-.81l-.76.41a.25.25,0,0,1-.34-.11,5.17,5.17,0,0,1-.36-.75.25.25,0,0,1,.14-.33l.79-.33a7.56,7.56,0,0,1-.27-1l-.89.15a.27.27,0,0,1-.26-.22c0-.27-.07-.55-.09-.83a.26.26,0,0,1,.24-.27l.86-.05v-.15a7.89,7.89,0,0,1,0-.84l-.85-.14a.27.27,0,0,1-.21-.3c.05-.27.11-.55.18-.81a.24.24,0,0,1,.25-.19h.07l.83.23a6.21,6.21,0,0,1,.37-.93l-.76-.41a.26.26,0,0,1-.1-.35,7.45,7.45,0,0,1,.43-.71.27.27,0,0,1,.17-.1h0a.25.25,0,0,1,.15,0l.71.49a6.73,6.73,0,0,1,.65-.75l-.58-.64a.26.26,0,0,1-.07-.19.23.23,0,0,1,.08-.17,7.81,7.81,0,0,1,.64-.53.24.24,0,0,1,.15-.06.26.26,0,0,1,.21.11l.52.69a6.65,6.65,0,0,1,.86-.5l-.35-.79a.26.26,0,0,1,.13-.34,6.58,6.58,0,0,1,.78-.29l.08,0a.25.25,0,0,1,.24.18l.26.82a8.08,8.08,0,0,1,1-.19l-.07-.86a.26.26,0,0,1,.23-.28l.66,0h.17a.26.26,0,0,1,.26.26l0,.86a8,8,0,0,1,1,.13l.21-.83a.26.26,0,0,1,.25-.2h.07a8,8,0,0,1,.79.25.25.25,0,0,1,.15.33l-.29.81a5.72,5.72,0,0,1,.89.45l.47-.73a.23.23,0,0,1,.16-.11h.05a.24.24,0,0,1,.14.05,6.51,6.51,0,0,1,.68.49.25.25,0,0,1,0,.36l-.54.67a6.62,6.62,0,0,1,.69.71l.68-.53a.27.27,0,0,1,.16-.06.26.26,0,0,1,.2.1,6,6,0,0,1,.48.68.28.28,0,0,1,0,.2.31.31,0,0,1-.12.16l-.73.45a7.43,7.43,0,0,1,.43.9l.81-.28h.09a.2.2,0,0,1,.11,0,.24.24,0,0,1,.13.15,7.32,7.32,0,0,1,.23.8.26.26,0,0,1-.19.31l-.84.19a6.66,6.66,0,0,1,.11,1h.86a.26.26,0,0,1,.26.26,7.63,7.63,0,0,1,0,.84.27.27,0,0,1-.26.23l-.88-.09a6.48,6.48,0,0,1-.22,1l.82.28a.25.25,0,0,1,.14.13.28.28,0,0,1,0,.2,7.35,7.35,0,0,1-.32.77.27.27,0,0,1-.14.14h-.09l-.11,0-.78-.37a7.44,7.44,0,0,1-.52.85l.68.53a.27.27,0,0,1,.1.17.25.25,0,0,1-.05.19,8.27,8.27,0,0,1-.55.63.25.25,0,0,1-.18.08h0a.29.29,0,0,1-.18-.07l-.63-.6a6.69,6.69,0,0,1-.76.63l.47.72a.28.28,0,0,1,0,.2.36.36,0,0,1-.11.16c-.23.15-.48.29-.72.42l-.12,0-.08,0a.26.26,0,0,1-.15-.12l-.39-.77a6.55,6.55,0,0,1-.93.35l.21.84a.22.22,0,0,1,0,.19.25.25,0,0,1-.16.12,7.73,7.73,0,0,1-.81.16h0a.26.26,0,0,1-.26-.22l-.12-.85c-.23,0-.47,0-.7,0h-.29l-.07.86a.26.26,0,0,1-.26.23Zm.64-13.1a5.29,5.29,0,1,0,5.29,5.28A5.29,5.29,0,0,0,229.94,365.24Z" />
  <path d="M229.94,362.93h.17l0,1.11a6.76,6.76,0,0,1,1.44.19l.27-1.08c.26.07.52.15.77.24l-.38,1a6,6,0,0,1,1.29.66l.61-.94a6.42,6.42,0,0,1,.65.48l-.7.86a7.1,7.1,0,0,1,1,1l.88-.69a6,6,0,0,1,.46.66l-.94.59a6.83,6.83,0,0,1,.62,1.31l1.06-.37a7.59,7.59,0,0,1,.22.78l-1.09.25a6.17,6.17,0,0,1,.17,1.44h1.11a7,7,0,0,1,0,.8l-1.11-.11a6.56,6.56,0,0,1-.31,1.41l1.05.37a6.74,6.74,0,0,1-.3.74l-1-.47a6.54,6.54,0,0,1-.76,1.24l.88.68a7.6,7.6,0,0,1-.52.61l-.81-.78a6.29,6.29,0,0,1-1.12.93l.62.93a7.1,7.1,0,0,1-.7.41l-.51-1a7.08,7.08,0,0,1-1.35.51l.27,1.08a7.37,7.37,0,0,1-.79.16l-.16-1.11a6.86,6.86,0,0,1-.92.07,4.71,4.71,0,0,1-.53,0l-.09,1.12c-.27,0-.53-.06-.8-.11l.21-1.1a6,6,0,0,1-1.38-.43l-.45,1a6.1,6.1,0,0,1-.72-.37l.55-1a7,7,0,0,1-1.17-.85l-.75.82a6.11,6.11,0,0,1-.56-.58l.83-.73a6.51,6.51,0,0,1-.83-1.19l-1,.53a6.07,6.07,0,0,1-.34-.73l1-.42a5.94,5.94,0,0,1-.4-1.4l-1.1.19a5.29,5.29,0,0,1-.09-.8l1.11-.07c0-.13,0-.26,0-.39a6.23,6.23,0,0,1,.09-1.06l-1.1-.18a6.76,6.76,0,0,1,.17-.78l1.07.29a6.29,6.29,0,0,1,.55-1.34l-1-.53a7.92,7.92,0,0,1,.42-.69l.92.63a6.64,6.64,0,0,1,1-1.09l-.75-.82a5.17,5.17,0,0,1,.62-.52l.66.9a6.28,6.28,0,0,1,1.25-.73l-.45-1a7,7,0,0,1,.76-.29l.34,1.06a6.62,6.62,0,0,1,1.42-.28l-.09-1.11.63,0m0,13.13a5.54,5.54,0,1,0-5.54-5.54,5.54,5.54,0,0,0,5.54,5.54m0-13.64-.68,0a.51.51,0,0,0-.47.55l.05.62-.52.1-.19-.59a.55.55,0,0,0-.26-.3.59.59,0,0,0-.23-.05.41.41,0,0,0-.16,0c-.27.09-.54.19-.8.3a.51.51,0,0,0-.27.68l.25.57-.46.27-.37-.5a.57.57,0,0,0-.34-.2h-.07a.48.48,0,0,0-.31.1,6.87,6.87,0,0,0-.66.55.53.53,0,0,0-.17.36.59.59,0,0,0,.14.37l.42.45c-.12.13-.24.27-.35.41l-.51-.35a.53.53,0,0,0-.3-.09h-.09a.57.57,0,0,0-.33.22c-.16.23-.31.48-.45.73a.52.52,0,0,0,.21.7l.54.29c-.07.17-.14.34-.2.51l-.59-.17-.14,0a.48.48,0,0,0-.26.07.57.57,0,0,0-.24.31,7.83,7.83,0,0,0-.18.84.52.52,0,0,0,.42.59l.61.1,0,.54-.61,0a.49.49,0,0,0-.36.17.54.54,0,0,0-.13.37,7.89,7.89,0,0,0,.1.85.52.52,0,0,0,.51.43h.08l.61-.11.15.52-.57.24a.48.48,0,0,0-.28.28.53.53,0,0,0,0,.39,7.92,7.92,0,0,0,.37.78.45.45,0,0,0,.31.24.32.32,0,0,0,.14,0,.55.55,0,0,0,.25-.07l.54-.29.31.44-.47.41a.53.53,0,0,0-.17.35.5.5,0,0,0,.13.37c.19.22.39.42.6.62a.49.49,0,0,0,.35.13h0a.5.5,0,0,0,.36-.16l.42-.46c.14.11.28.22.43.32l-.31.54a.53.53,0,0,0,0,.39.57.57,0,0,0,.24.31c.25.14.51.27.77.39a.52.52,0,0,0,.21,0,.5.5,0,0,0,.47-.31l.25-.57a5,5,0,0,0,.51.16l-.11.61a.51.51,0,0,0,.41.6,6.21,6.21,0,0,0,.85.12h0a.54.54,0,0,0,.34-.12.53.53,0,0,0,.17-.35l0-.62h.54l.09.61a.55.55,0,0,0,.2.34.57.57,0,0,0,.31.1h.07c.28-.05.57-.1.85-.17a.52.52,0,0,0,.37-.63l-.15-.6a5.1,5.1,0,0,0,.5-.19l.28.55a.51.51,0,0,0,.46.28.52.52,0,0,0,.24-.05c.25-.13.5-.28.74-.43a.53.53,0,0,0,.15-.72l-.34-.52c.14-.11.28-.22.41-.34l.45.43a.51.51,0,0,0,.36.15h0a.57.57,0,0,0,.36-.16c.2-.21.38-.43.56-.65a.52.52,0,0,0-.09-.72l-.49-.38c.1-.15.19-.31.28-.46l.56.26a.59.59,0,0,0,.22.05.52.52,0,0,0,.47-.3,7.85,7.85,0,0,0,.32-.8.51.51,0,0,0-.32-.65l-.59-.2a5,5,0,0,0,.12-.53l.62.07h.05a.53.53,0,0,0,.51-.46,8.11,8.11,0,0,0,.05-.86.52.52,0,0,0-.52-.53h-.62a4.78,4.78,0,0,0-.06-.53l.6-.14a.51.51,0,0,0,.39-.62,5.91,5.91,0,0,0-.24-.82.48.48,0,0,0-.26-.3.54.54,0,0,0-.22-.05.47.47,0,0,0-.17,0l-.59.2c-.07-.17-.15-.33-.23-.49l.53-.33a.5.5,0,0,0,.16-.7c-.15-.25-.32-.48-.49-.71a.49.49,0,0,0-.34-.19h-.07a.51.51,0,0,0-.31.11l-.49.39c-.12-.14-.25-.26-.38-.39l.39-.48a.51.51,0,0,0-.07-.72c-.22-.18-.46-.35-.69-.51a.6.6,0,0,0-.29-.08H234a.54.54,0,0,0-.33.22l-.34.52a3.58,3.58,0,0,0-.48-.24l.22-.58a.53.53,0,0,0-.31-.67c-.27-.09-.54-.18-.82-.25h-.13a.48.48,0,0,0-.26.07.52.52,0,0,0-.24.32l-.15.6-.53-.08V363a.51.51,0,0,0-.5-.53Zm0,13.13a5,5,0,1,1,5-5,5,5,0,0,1-5,5Z" />
  <path class="GUNDAN_RED_PANDA_JEWELRY_GUNDAN_RED_PANDA_JEWELRY_3_cls-6" d="M252.35,368.75a1.57,1.57,0,1,1,1.57-1.56A1.57,1.57,0,0,1,252.35,368.75Z" />
  <path d="M252.35,365.75a1.44,1.44,0,1,1-1.43,1.44,1.44,1.44,0,0,1,1.43-1.44m0-.27a1.71,1.71,0,1,0,1.7,1.71,1.71,1.71,0,0,0-1.7-1.71Z" />
  <path class="GUNDAN_RED_PANDA_JEWELRY_GUNDAN_RED_PANDA_JEWELRY_3_cls-6" d="M252,371.92l-.32,0a.13.13,0,0,1-.09-.05.19.19,0,0,1,0-.1l0-.3a3.9,3.9,0,0,1-.59-.14l-.1.28a.14.14,0,0,1-.13.09h-.05l-.3-.12a.14.14,0,0,1-.07-.18l.12-.27a4.85,4.85,0,0,1-.54-.3l-.17.24a.11.11,0,0,1-.11.06l-.07,0-.26-.2a.11.11,0,0,1-.05-.09.17.17,0,0,1,0-.1l.18-.23a4.36,4.36,0,0,1-.43-.43l-.23.18a.11.11,0,0,1-.08,0h0a.12.12,0,0,1-.09-.05c-.07-.08-.13-.17-.19-.25a.13.13,0,0,1,0-.1.15.15,0,0,1,.06-.09l.24-.17a3.2,3.2,0,0,1-.3-.54l-.27.12h-.06a.13.13,0,0,1-.12-.08l-.12-.3a.13.13,0,0,1,.08-.17l.28-.1a3.75,3.75,0,0,1-.14-.6l-.32,0a.11.11,0,0,1-.08,0,.12.12,0,0,1,0-.09,1.82,1.82,0,0,1,0-.32.1.1,0,0,1,0-.1.13.13,0,0,1,.09-.05l.3,0a.92.92,0,0,1,0-.16,3.4,3.4,0,0,1,0-.45l-.3,0a.13.13,0,0,1-.11-.15,3.06,3.06,0,0,1,0-.32.15.15,0,0,1,.13-.11l.32.06c0-.19.11-.39.18-.58l-.27-.12a.14.14,0,0,1-.07-.08.17.17,0,0,1,0-.1l.14-.29a.18.18,0,0,1,.08-.07h.1l.27.14a4.59,4.59,0,0,1,.33-.52l-.23-.18a.18.18,0,0,1,0-.09.09.09,0,0,1,0-.1,2.52,2.52,0,0,1,.21-.25.13.13,0,0,1,.1,0,.12.12,0,0,1,.09,0l.22.2a4.49,4.49,0,0,1,.46-.41l-.17-.24a.13.13,0,0,1,0-.19l.27-.17a.08.08,0,0,1,.07,0h0a.16.16,0,0,1,.08.06l.16.26a4,4,0,0,1,.55-.27l-.1-.28a.12.12,0,0,1,0-.1.1.1,0,0,1,.07-.07l.31-.1h0a.13.13,0,0,1,.13.09l.08.29a4,4,0,0,1,.6-.11l0-.29a.14.14,0,0,1,.13-.15h.32a.18.18,0,0,1,.1,0,.17.17,0,0,1,0,.1v.29c.2,0,.41,0,.61.06l.06-.29a.16.16,0,0,1,.06-.08.08.08,0,0,1,.07,0h0l.31.08a.12.12,0,0,1,.09.16l-.08.29a4.07,4.07,0,0,1,.58.22l.13-.26a.13.13,0,0,1,.12-.07h.07l.28.16a.13.13,0,0,1,0,.18l-.15.26a4.2,4.2,0,0,1,.49.37l.2-.22a.13.13,0,0,1,.1,0,.14.14,0,0,1,.09,0l.23.23a.13.13,0,0,1,0,.1.15.15,0,0,1,0,.09l-.22.21a4.37,4.37,0,0,1,.37.48l.25-.15.08,0h0a.16.16,0,0,1,.08.06l.16.29a.14.14,0,0,1-.06.18l-.26.13c.09.19.16.38.23.57l.28-.08h0a.14.14,0,0,1,.13.1c0,.1.05.21.07.31a.13.13,0,0,1-.1.16l-.29.06a4.22,4.22,0,0,1,.07.61H257a.13.13,0,0,1,.1,0,.14.14,0,0,1,0,.09c0,.12,0,.23,0,.34a.11.11,0,0,1,0,.09l-.09,0h-.31a4.17,4.17,0,0,1-.1.6l.29.08a.13.13,0,0,1,.08.07.11.11,0,0,1,0,.1c0,.1-.06.2-.1.31a.13.13,0,0,1-.12.08h-.05l-.28-.1a4,4,0,0,1-.27.55l.26.16a.13.13,0,0,1,0,.18,2.46,2.46,0,0,1-.17.27.15.15,0,0,1-.09.06h0l-.08,0-.24-.18a4.6,4.6,0,0,1-.41.47l.2.21a.13.13,0,0,1,0,.19l-.25.22a.11.11,0,0,1-.08,0h0a.13.13,0,0,1-.09,0l-.19-.23a5.19,5.19,0,0,1-.52.34l.14.26a.12.12,0,0,1,0,.1.11.11,0,0,1-.07.08l-.29.14h-.05a.13.13,0,0,1-.12-.08l-.12-.27a4.49,4.49,0,0,1-.59.19l.06.28a.14.14,0,0,1,0,.11.1.1,0,0,1-.08.05l-.32.06h0a.13.13,0,0,1-.13-.12l0-.29a3.55,3.55,0,0,1-.46,0h-.16l0,.3a.12.12,0,0,1-.13.12Zm.32-8.06a3.33,3.33,0,1,0,3.33,3.33A3.33,3.33,0,0,0,252.35,363.86Z" />
  <path d="M252.34,362.58V363h0a3.86,3.86,0,0,1,.84.09l.09-.42.3.07-.11.42a4.57,4.57,0,0,1,.8.31l.19-.38.28.15-.23.37a3.9,3.9,0,0,1,.69.52l.29-.32.22.22-.31.3a4.37,4.37,0,0,1,.52.68l.36-.23a2.54,2.54,0,0,1,.16.28l-.38.19a3.9,3.9,0,0,1,.31.8l.42-.12c0,.1,0,.21.07.31l-.41.09a5.68,5.68,0,0,1,.09.85H257c0,.1,0,.21,0,.31l-.43,0a4.86,4.86,0,0,1-.14.85l.41.11-.09.3-.41-.14a4.2,4.2,0,0,1-.37.77l.37.22c-.05.09-.11.18-.17.27l-.35-.25a4.35,4.35,0,0,1-.57.64l.3.32-.24.2-.27-.33a4.16,4.16,0,0,1-.71.47l.19.38-.28.14L254,371a3.76,3.76,0,0,1-.82.27l.09.41-.31.05-.06-.42a3.64,3.64,0,0,1-.57,0h-.28l0,.43-.31,0,.05-.43a4.78,4.78,0,0,1-.83-.2l-.14.4-.29-.11.17-.39a4,4,0,0,1-.75-.43l-.25.36-.25-.19.27-.34a4.25,4.25,0,0,1-.6-.6l-.33.27-.2-.25.36-.25a4.2,4.2,0,0,1-.43-.74l-.39.17c0-.1-.08-.2-.11-.29l.4-.15a4.38,4.38,0,0,1-.2-.83l-.43.06,0-.31.43,0a2.83,2.83,0,0,1,0-.29,3.66,3.66,0,0,1,.05-.57l-.43-.05a2.87,2.87,0,0,1,.05-.31l.42.08a4.5,4.5,0,0,1,.26-.81l-.39-.17a2.55,2.55,0,0,1,.13-.29l.38.2a4.46,4.46,0,0,1,.47-.72l-.33-.27L249,364l.31.3a4.92,4.92,0,0,1,.64-.57l-.24-.35.26-.17.22.37a4.2,4.2,0,0,1,.77-.37l-.14-.41.3-.09.11.41a4.86,4.86,0,0,1,.85-.14l0-.43h.31m0,8.07a3.47,3.47,0,1,0-3.47-3.46,3.47,3.47,0,0,0,3.47,3.46m0-8.34H252a.27.27,0,0,0-.25.29v.16l-.37.07,0-.16a.31.31,0,0,0-.13-.17.31.31,0,0,0-.13,0H251l-.32.1a.29.29,0,0,0-.15.14.2.2,0,0,0,0,.2l0,.17a2.49,2.49,0,0,0-.33.16l-.09-.15A.28.28,0,0,0,250,363a.33.33,0,0,0-.14,0l-.28.19a.25.25,0,0,0-.11.17.29.29,0,0,0,.05.2l.09.14-.28.24-.12-.11a.26.26,0,0,0-.18-.07.24.24,0,0,0-.2.08c-.08.08-.15.17-.22.25a.36.36,0,0,0-.06.2.29.29,0,0,0,.1.18l.13.11a3.28,3.28,0,0,0-.2.31l-.15-.08a.31.31,0,0,0-.13,0,.29.29,0,0,0-.24.15l-.14.3a.23.23,0,0,0,0,.2.26.26,0,0,0,.14.15l.15.07c0,.12-.08.24-.11.36l-.16,0h-.06a.27.27,0,0,0-.26.21l-.06.33a.3.3,0,0,0,.06.2.23.23,0,0,0,.17.1l.17,0c0,.12,0,.23,0,.34v0h-.17a.24.24,0,0,0-.18.09.27.27,0,0,0-.07.2c0,.11,0,.22,0,.33a.23.23,0,0,0,.1.17.25.25,0,0,0,.16.06h0l.17,0a2.22,2.22,0,0,0,.09.37l-.16.05a.32.32,0,0,0-.16.14.3.3,0,0,0,0,.21l.13.31a.26.26,0,0,0,.24.16.23.23,0,0,0,.11,0l.15-.06a3.37,3.37,0,0,0,.19.32l-.14.1a.26.26,0,0,0-.06.37l.2.27a.29.29,0,0,0,.18.1h0a.23.23,0,0,0,.16-.06l.13-.11.27.27-.11.13a.27.27,0,0,0,0,.37l.27.2a.21.21,0,0,0,.15.05h.05a.25.25,0,0,0,.17-.11l.1-.14.33.19-.07.15a.26.26,0,0,0,.14.35l.31.13h.09a.27.27,0,0,0,.25-.18l.06-.16.36.09,0,.17a.26.26,0,0,0,.23.3l.33,0h0a.27.27,0,0,0,.27-.25v-.17h.37l0,.16a.27.27,0,0,0,.27.23h0a1.65,1.65,0,0,0,.32-.06.23.23,0,0,0,.17-.11.24.24,0,0,0,0-.2l0-.17.36-.11.06.15a.28.28,0,0,0,.25.16.23.23,0,0,0,.11,0l.3-.14a.27.27,0,0,0,.11-.36l-.08-.15.32-.21.1.13a.27.27,0,0,0,.18.1h0a.27.27,0,0,0,.17-.06l.25-.22a.27.27,0,0,0,0-.38l-.11-.12.24-.28.14.1a.29.29,0,0,0,.16,0,.26.26,0,0,0,.22-.11l.18-.28a.27.27,0,0,0-.09-.37l-.15-.08.17-.34.16.05.09,0a.23.23,0,0,0,.11,0,.26.26,0,0,0,.14-.15,3,3,0,0,0,.1-.32.24.24,0,0,0,0-.2.26.26,0,0,0-.16-.13l-.16,0a2.38,2.38,0,0,0,.06-.37H257a.26.26,0,0,0,.18-.07.28.28,0,0,0,.09-.18c0-.11,0-.22,0-.33a.3.3,0,0,0-.08-.2.27.27,0,0,0-.19-.08h-.17c0-.13,0-.25,0-.38l.16,0a.28.28,0,0,0,.17-.11.31.31,0,0,0,0-.21l-.08-.32a.29.29,0,0,0-.26-.2h-.08l-.16.05c0-.12-.09-.23-.14-.35l.15-.08a.26.26,0,0,0,.12-.36c-.05-.1-.11-.19-.17-.29a.25.25,0,0,0-.16-.12h-.07a.43.43,0,0,0-.14,0l-.14.09a3.25,3.25,0,0,0-.23-.29l.13-.12a.28.28,0,0,0,0-.38l-.24-.24a.29.29,0,0,0-.18-.07.28.28,0,0,0-.2.09l-.11.12-.3-.22.09-.15a.28.28,0,0,0,0-.2.3.3,0,0,0-.12-.17l-.29-.16a.28.28,0,0,0-.13,0,.25.25,0,0,0-.23.15l-.08.15-.35-.14,0-.16a.3.3,0,0,0,0-.21.24.24,0,0,0-.16-.12l-.33-.08h-.05a.3.3,0,0,0-.15.05.25.25,0,0,0-.11.17l0,.16-.37,0v-.16a.27.27,0,0,0-.27-.27Zm0,8.07a3.2,3.2,0,1,1,3.2-3.19,3.2,3.2,0,0,1-3.2,3.19Z" />
  <path class="GUNDAN_RED_PANDA_JEWELRY_GUNDAN_RED_PANDA_JEWELRY_3_cls-6" d="M246.77,376.19a1.57,1.57,0,1,1,1.57-1.57A1.57,1.57,0,0,1,246.77,376.19Z" />
  <path d="M246.77,373.19a1.44,1.44,0,1,1-1.43,1.43,1.44,1.44,0,0,1,1.43-1.43m0-.27a1.71,1.71,0,1,0,1.7,1.7,1.7,1.7,0,0,0-1.7-1.7Z" />
  <path class="GUNDAN_RED_PANDA_JEWELRY_GUNDAN_RED_PANDA_JEWELRY_3_cls-6" d="M246.45,379.36l-.32,0a.15.15,0,0,1-.09-.06.14.14,0,0,1,0-.09l0-.3a3.9,3.9,0,0,1-.59-.14l-.1.28a.13.13,0,0,1-.13.08h0l-.31-.12a.19.19,0,0,1-.07-.08.17.17,0,0,1,0-.1l.12-.27a5.54,5.54,0,0,1-.53-.3l-.18.24a.11.11,0,0,1-.1.06.11.11,0,0,1-.08,0,2.48,2.48,0,0,1-.26-.19.12.12,0,0,1-.05-.09.17.17,0,0,1,0-.1l.19-.23a4.57,4.57,0,0,1-.44-.44l-.23.19a.11.11,0,0,1-.08,0h0a.14.14,0,0,1-.09-.05l-.19-.26a.12.12,0,0,1,0-.18l.24-.18a4,4,0,0,1-.3-.53l-.27.12h-.06a.13.13,0,0,1-.12-.08l-.12-.3a.12.12,0,0,1,0-.1.1.1,0,0,1,.07-.07l.28-.1a4.34,4.34,0,0,1-.14-.6l-.32,0a.13.13,0,0,1-.08,0,.14.14,0,0,1-.05-.08l0-.33a.14.14,0,0,1,0-.09.12.12,0,0,1,.09-.05l.3,0a1,1,0,0,1,0-.17,3.15,3.15,0,0,1,0-.44l-.29,0a.13.13,0,0,1-.12-.15,3.06,3.06,0,0,1,.05-.32.14.14,0,0,1,.14-.11h0l.29.06a4.49,4.49,0,0,1,.19-.59l-.27-.11a.14.14,0,0,1-.07-.18,2.59,2.59,0,0,1,.14-.29.12.12,0,0,1,.07-.07h0l.07,0,.26.14a3.11,3.11,0,0,1,.34-.52l-.23-.19a.11.11,0,0,1-.05-.09.13.13,0,0,1,0-.1l.21-.24a.13.13,0,0,1,.1,0l.09,0,.22.21a4.49,4.49,0,0,1,.46-.41l-.17-.24a.13.13,0,0,1,0-.19l.27-.18.07,0a.14.14,0,0,1,.11.07l.16.25a3.94,3.94,0,0,1,.55-.26l-.1-.28a.14.14,0,0,1,0-.11.11.11,0,0,1,.07-.06l.31-.1h0l.07,0a.16.16,0,0,1,.06.08l.08.29a4.1,4.1,0,0,1,.61-.11l0-.3a.13.13,0,0,1,.12-.14h.32a.13.13,0,0,1,.14.13v.3a3.08,3.08,0,0,1,.61.06l.06-.29a.14.14,0,0,1,.13-.11h0l.31.07a.1.1,0,0,1,.08.06.15.15,0,0,1,0,.11l-.08.28a4.84,4.84,0,0,1,.57.23l.14-.27a.1.1,0,0,1,.08-.06h0l.06,0,.28.15a.15.15,0,0,1,.06.09.17.17,0,0,1,0,.1l-.16.26a3.5,3.5,0,0,1,.49.37l.2-.22a.14.14,0,0,1,.1,0,.14.14,0,0,1,.09,0l.23.23a.14.14,0,0,1,0,.19l-.22.2a5.72,5.72,0,0,1,.37.49l.26-.15a.08.08,0,0,1,.07,0,.13.13,0,0,1,.11.06c.06.09.11.19.16.28a.13.13,0,0,1-.06.18l-.26.14a4.84,4.84,0,0,1,.23.57l.28-.08h0a.13.13,0,0,1,.13.09c0,.11,0,.21.08.32a.18.18,0,0,1,0,.1.15.15,0,0,1-.09.06l-.28.06a6,6,0,0,1,.06.61h.29a.13.13,0,0,1,.1,0,.15.15,0,0,1,0,.09c0,.12,0,.23,0,.34a.16.16,0,0,1,0,.09.14.14,0,0,1-.09,0l-.3,0a4.1,4.1,0,0,1-.11.61l.29.08a.16.16,0,0,1,.08.06.12.12,0,0,1,0,.1l-.09.31a.19.19,0,0,1-.07.08h-.11l-.28-.1a3.57,3.57,0,0,1-.26.56l.25.16a.1.1,0,0,1,.06.08.17.17,0,0,1,0,.1l-.18.27a.14.14,0,0,1-.11.06.13.13,0,0,1-.08,0l-.24-.17a4.49,4.49,0,0,1-.41.46l.21.22a.14.14,0,0,1,0,.19,2.25,2.25,0,0,1-.24.21l-.09,0a.13.13,0,0,1-.1,0l-.19-.23a4.45,4.45,0,0,1-.51.33l.13.27a.13.13,0,0,1,0,.18l-.3.14h-.1a.12.12,0,0,1-.07-.07l-.12-.27a4,4,0,0,1-.59.18l.06.29a.13.13,0,0,1-.1.16l-.32.06h0a.11.11,0,0,1-.08,0,.11.11,0,0,1,0-.09l0-.29-.46,0h-.16l0,.29a.13.13,0,0,1-.13.13Zm.32-8.07a3.34,3.34,0,1,0,3.33,3.33A3.34,3.34,0,0,0,246.77,371.29Z" />
  <path d="M246.76,370v.43h0a4.8,4.8,0,0,1,.85.08l.08-.41.31.07-.12.42a3.69,3.69,0,0,1,.8.31l.2-.38.27.15-.22.37a4.83,4.83,0,0,1,.68.51l.29-.31.23.22-.32.3a3.5,3.5,0,0,1,.52.68l.37-.23.15.27-.38.2a4.31,4.31,0,0,1,.32.8l.41-.12a2.82,2.82,0,0,1,.07.31l-.41.08a4,4,0,0,1,.09.85h.42c0,.11,0,.21,0,.32l-.43,0a3.88,3.88,0,0,1-.14.84l.41.12-.09.3-.41-.15a3.72,3.72,0,0,1-.37.78l.37.22a2.33,2.33,0,0,1-.17.26l-.35-.24a4.92,4.92,0,0,1-.57.64l.3.31-.24.21-.27-.33a4.16,4.16,0,0,1-.71.47l.19.38-.28.13-.17-.39a4.5,4.5,0,0,1-.81.26l.08.42-.31.05-.06-.42a5.1,5.1,0,0,1-.57,0h-.28l0,.42a1.63,1.63,0,0,1-.31,0l.06-.42a4.68,4.68,0,0,1-.84-.2l-.14.4-.29-.11.17-.4a3.69,3.69,0,0,1-.75-.42l-.24.35-.26-.19.27-.33a4.25,4.25,0,0,1-.6-.6l-.33.27c-.07-.08-.13-.17-.19-.25l.35-.25a3.62,3.62,0,0,1-.42-.74l-.4.17c0-.1-.08-.2-.11-.3l.4-.14a4.57,4.57,0,0,1-.2-.83l-.43.06,0-.32.43,0c0-.1,0-.2,0-.3a3.52,3.52,0,0,1,0-.56l-.43-.06c0-.1,0-.21.06-.31l.41.09a4.36,4.36,0,0,1,.26-.82l-.39-.17.13-.28.39.2a3.83,3.83,0,0,1,.46-.72l-.33-.27.21-.24.31.3a4.42,4.42,0,0,1,.65-.57l-.25-.35.26-.17.22.37a3.89,3.89,0,0,1,.77-.37l-.14-.41.3-.09.12.41a3.89,3.89,0,0,1,.84-.15l0-.43h.31m0,8.08a3.47,3.47,0,1,0-3.46-3.47,3.47,3.47,0,0,0,3.46,3.47m0-8.34h-.33a.24.24,0,0,0-.18.09.26.26,0,0,0-.07.19v.17l-.37.07,0-.17a.26.26,0,0,0-.26-.19h-.07l-.32.1a.26.26,0,0,0-.16.34l.05.16-.33.16-.09-.14a.26.26,0,0,0-.17-.12h-.06a.23.23,0,0,0-.14,0l-.28.18a.27.27,0,0,0-.06.38l.1.13-.28.25-.13-.11a.25.25,0,0,0-.18-.08h0a.34.34,0,0,0-.19.09c-.07.08-.15.16-.22.25a.36.36,0,0,0-.06.2.32.32,0,0,0,.1.18l.13.1a3.45,3.45,0,0,0-.2.32l-.15-.08a.28.28,0,0,0-.13,0h-.08a.27.27,0,0,0-.15.13l-.15.31a.28.28,0,0,0,0,.2.29.29,0,0,0,.14.15l.16.07a2.06,2.06,0,0,0-.12.35l-.16,0h-.05a.25.25,0,0,0-.15.05.3.3,0,0,0-.12.17c0,.11,0,.22-.05.33a.27.27,0,0,0,.23.3l.16,0c0,.12,0,.23,0,.33v.05h-.17a.23.23,0,0,0-.18.09.26.26,0,0,0-.07.19c0,.11,0,.22,0,.33a.29.29,0,0,0,.1.18.27.27,0,0,0,.16.06h0l.17,0a2.37,2.37,0,0,0,.09.36l-.16.06a.23.23,0,0,0-.15.14.23.23,0,0,0,0,.2,1.66,1.66,0,0,0,.12.31.26.26,0,0,0,.24.16.2.2,0,0,0,.11,0l.16-.07a2.68,2.68,0,0,0,.18.33l-.14.1a.25.25,0,0,0-.11.17.29.29,0,0,0,0,.2l.2.27a.24.24,0,0,0,.18.09h0a.28.28,0,0,0,.17-.07l.13-.1a3.19,3.19,0,0,0,.26.26l-.1.13a.26.26,0,0,0,0,.38l.26.2a.3.3,0,0,0,.16.05h0a.25.25,0,0,0,.17-.11l.1-.14a2.68,2.68,0,0,0,.33.18l-.07.16a.23.23,0,0,0,0,.2.26.26,0,0,0,.14.15,2,2,0,0,0,.31.12l.09,0a.27.27,0,0,0,.25-.18l.06-.16.36.09,0,.17a.27.27,0,0,0,.23.3l.33,0h0a.28.28,0,0,0,.18-.06.34.34,0,0,0,.09-.19v-.16h0l.34,0,0,.17a.26.26,0,0,0,.26.23h0l.33-.06a.25.25,0,0,0,.17-.11.31.31,0,0,0,0-.21l0-.16.36-.11.06.15a.28.28,0,0,0,.25.16l.11,0,.3-.14a.29.29,0,0,0,.13-.16.26.26,0,0,0,0-.21l-.07-.15.31-.2.1.13a.26.26,0,0,0,.21.1.27.27,0,0,0,.17-.06l.25-.22a.27.27,0,0,0,0-.38l-.12-.12a3.47,3.47,0,0,0,.25-.29l.13.1a.3.3,0,0,0,.16.05h0a.27.27,0,0,0,.18-.11l.18-.28a.24.24,0,0,0,0-.2.26.26,0,0,0-.12-.17l-.14-.09c0-.11.11-.22.16-.34l.16.06.09,0a.27.27,0,0,0,.25-.18c0-.11.07-.21.1-.32a.27.27,0,0,0-.18-.33l-.17-.05c0-.12,0-.24.07-.37l.16,0h0a.29.29,0,0,0,.18-.07.31.31,0,0,0,.09-.18c0-.11,0-.23,0-.34a.27.27,0,0,0-.08-.19.28.28,0,0,0-.19-.09h-.16c0-.12,0-.24,0-.37l.16,0a.27.27,0,0,0,.21-.32c0-.11-.05-.22-.08-.32a.28.28,0,0,0-.26-.2h-.07l-.17.05a3.62,3.62,0,0,0-.13-.35l.15-.08a.27.27,0,0,0,.11-.36l-.16-.29a.29.29,0,0,0-.23-.13.23.23,0,0,0-.14,0l-.15.09-.23-.3.13-.11a.27.27,0,0,0,.08-.19.23.23,0,0,0-.07-.19l-.23-.24a.28.28,0,0,0-.19-.07.25.25,0,0,0-.19.09l-.12.12-.3-.22.09-.15a.26.26,0,0,0-.09-.37l-.29-.16a.27.27,0,0,0-.12,0,.26.26,0,0,0-.24.14l-.08.15-.35-.13.05-.17a.27.27,0,0,0-.19-.33l-.33-.08h-.05a.27.27,0,0,0-.26.21l0,.16c-.12,0-.24,0-.37,0V370a.27.27,0,0,0-.08-.19.26.26,0,0,0-.19-.07Zm0,8.07a3.2,3.2,0,1,1,3.2-3.2,3.2,3.2,0,0,1-3.2,3.2Z" />
  <circle class="GUNDAN_RED_PANDA_JEWELRY_GUNDAN_RED_PANDA_JEWELRY_3_cls-6" cx="248.2" cy="382.17" r="0.9" />
  <path d="M248.2,381.35a.83.83,0,1,1-.82.82.83.83,0,0,1,.82-.82m0-.16a1,1,0,1,0,1,1,1,1,0,0,0-1-1Z" />
  <path class="GUNDAN_RED_PANDA_JEWELRY_GUNDAN_RED_PANDA_JEWELRY_3_cls-6" d="M247.83,384.88a.09.09,0,0,1-.05,0,.07.07,0,0,1,0-.06l0-.17-.34-.08-.06.16a.08.08,0,0,1-.07.05h0l-.17-.07a.08.08,0,0,1,0-.1l.07-.16a3.07,3.07,0,0,1-.31-.17l-.1.14-.05,0h0l0,0-.15-.11a.08.08,0,0,1,0-.11l.11-.13a2,2,0,0,1-.25-.25l-.13.11h0s-.05,0-.06,0l-.12-.15a.09.09,0,0,1,0-.11l.14-.1c-.06-.1-.12-.2-.17-.3l-.16.06h0a.08.08,0,0,1-.07-.05c0-.05,0-.11-.07-.17a.09.09,0,0,1,.05-.1l.16-.06a1.87,1.87,0,0,1-.08-.34l-.18,0h-.05a.05.05,0,0,1,0-.05,1.23,1.23,0,0,1,0-.19.08.08,0,0,1,.07-.08h.17v-.1a2,2,0,0,1,0-.25l-.17,0a.06.06,0,0,1-.06-.08l0-.19a.09.09,0,0,1,0-.05h.05l.18,0a1.91,1.91,0,0,1,.1-.34l-.15-.07s0,0,0,0a.06.06,0,0,1,0-.06.89.89,0,0,1,.08-.17.07.07,0,0,1,.07,0h0l.15.08a2.23,2.23,0,0,1,.2-.3l-.14-.11a.08.08,0,0,1,0-.05.07.07,0,0,1,0-.06l.13-.14,0,0a.07.07,0,0,1,.06,0l.12.12a1.55,1.55,0,0,1,.27-.24l-.1-.14a.06.06,0,0,1,0-.1l.15-.11h0a.08.08,0,0,1,.07,0l.09.14.32-.15-.06-.16a.06.06,0,0,1,0-.06.1.1,0,0,1,0,0l.17-.05h.06a.1.1,0,0,1,0,.05l0,.16c.12,0,.23-.05.35-.06v-.17a.08.08,0,0,1,0,0,.05.05,0,0,1,0,0h.19a.09.09,0,0,1,.08.08v.17c.12,0,.23,0,.35,0l0-.16a.08.08,0,0,1,.08-.06l.19,0a.1.1,0,0,1,0,0,.13.13,0,0,1,0,.06l-.05.16a2.52,2.52,0,0,1,.33.13l.08-.15a.07.07,0,0,1,.07,0h0a1.4,1.4,0,0,1,.17.09.09.09,0,0,1,0,.05,0,0,0,0,1,0,.05l-.09.15.29.21.11-.12.06,0h0l.05,0,.13.14a.08.08,0,0,1,0,.11l-.12.11.21.28.15-.09h0a.08.08,0,0,1,.06,0l.09.16a.07.07,0,0,1,0,.06.1.1,0,0,1,0,0l-.15.07c.05.11.09.22.13.33l.19-.05h0a.07.07,0,0,1,0,.05l0,.18a.07.07,0,0,1,0,.06.05.05,0,0,1-.05,0l-.16,0c0,.12,0,.23,0,.35h.17l0,0a.14.14,0,0,1,0,.06v.19l0,.05-.05,0h-.18a2,2,0,0,1-.06.35l.17,0a.1.1,0,0,1,.05,0s0,0,0,.06l-.05.18s0,0,0,0h-.06l-.16-.05-.16.32.15.09a.08.08,0,0,1,0,.1l-.11.16-.05,0h0l-.14-.1a2,2,0,0,1-.24.26l.12.13a.08.08,0,0,1,0,.05.14.14,0,0,1,0,.06l-.15.12,0,0a.06.06,0,0,1-.06,0l-.11-.13a2.2,2.2,0,0,1-.3.19l.08.15a.08.08,0,0,1,0,.11l-.17.08h-.06a.08.08,0,0,1,0,0l-.07-.16-.33.11,0,.16a.07.07,0,0,1-.06.09l-.18,0h0a.08.08,0,0,1-.08-.07l0-.17-.27,0h-.14l0,.17a.14.14,0,0,1,0,.06l-.06,0Zm.37-4.62a1.92,1.92,0,1,0,1.92,1.91A1.92,1.92,0,0,0,248.2,380.26Z" />
  <path d="M248.2,379.52v.25h0a2.63,2.63,0,0,1,.49,0l.05-.23.17,0-.06.24a2.54,2.54,0,0,1,.46.17l.11-.21.16.08-.13.22a2.19,2.19,0,0,1,.39.29l.17-.18.13.13-.18.17a2.19,2.19,0,0,1,.29.39l.22-.13.09.16-.22.11a3.66,3.66,0,0,1,.18.46l.24-.07c0,.06,0,.12,0,.18l-.24.05a2.63,2.63,0,0,1,.05.49h.24v.18h-.25a2.53,2.53,0,0,1-.08.48l.24.07-.06.17-.23-.08a3.55,3.55,0,0,1-.21.44l.21.13-.1.15-.2-.14a2.91,2.91,0,0,1-.33.37l.17.18-.13.12-.16-.19a2.9,2.9,0,0,1-.41.27l.11.22-.16.08-.1-.23a1.84,1.84,0,0,1-.47.15l.05.24-.17,0,0-.24-.33,0H248l0,.25-.18,0,0-.24a3.37,3.37,0,0,1-.48-.12l-.08.23-.17-.06.1-.23a2,2,0,0,1-.43-.24l-.15.2-.14-.11.16-.19a1.93,1.93,0,0,1-.35-.35l-.19.16-.11-.15.2-.14a1.64,1.64,0,0,1-.24-.43l-.23.1c0-.05-.05-.11-.07-.17l.24-.08a1.88,1.88,0,0,1-.12-.48l-.24,0a1.1,1.1,0,0,1,0-.18l.24,0v-.17c0-.11,0-.21,0-.32l-.24,0a.57.57,0,0,1,0-.18l.23.05a3.23,3.23,0,0,1,.15-.47l-.22-.1a.8.8,0,0,1,.08-.16l.22.11a1.91,1.91,0,0,1,.26-.41l-.19-.16.12-.13.18.16a3.68,3.68,0,0,1,.37-.32l-.14-.2.15-.1.13.21a2.53,2.53,0,0,1,.44-.21l-.08-.23.17-.06.07.24a2.7,2.7,0,0,1,.48-.09v-.24h.18m0,4.65a2,2,0,1,0-2-2,2,2,0,0,0,2,2m0-4.8H248a.24.24,0,0,0-.11.06.15.15,0,0,0,0,.11v.1l-.21,0,0-.09a.16.16,0,0,0-.07-.09.11.11,0,0,0-.08,0h0l-.18.06a.16.16,0,0,0-.09.2l0,.09-.2.09-.05-.08a.13.13,0,0,0-.09-.07h0a.13.13,0,0,0-.08,0l-.16.1a.17.17,0,0,0,0,.22l.06.08-.16.14-.07-.07a.21.21,0,0,0-.11,0h0a.16.16,0,0,0-.11.05l-.13.14a.16.16,0,0,0,0,.22l.07.06-.12.18-.08,0-.07,0h0a.16.16,0,0,0-.09.07,1.42,1.42,0,0,0-.08.18.13.13,0,0,0,0,.12.15.15,0,0,0,.08.08l.09,0a1.72,1.72,0,0,0-.07.21l-.09,0h0a.16.16,0,0,0-.16.13l0,.19a.16.16,0,0,0,.13.17h.1a1.21,1.21,0,0,0,0,.19v0h-.09a.17.17,0,0,0-.11.06.15.15,0,0,0,0,.11c0,.06,0,.13,0,.19a.15.15,0,0,0,.16.13h.11c0,.07,0,.14.05.21l-.09,0a.16.16,0,0,0-.09.2.87.87,0,0,0,.07.17.24.24,0,0,0,.08.09h.06l.06,0,.09,0a1.74,1.74,0,0,0,.11.18l-.08.06a.15.15,0,0,0,0,.21l.12.16a.12.12,0,0,0,.1.05h0a.14.14,0,0,0,.09,0l.08-.06.15.15-.06.07a.18.18,0,0,0,0,.12.12.12,0,0,0,.05.1l.16.12a.11.11,0,0,0,.08,0h0a.13.13,0,0,0,.1-.06l.06-.08.18.11,0,.09a.15.15,0,0,0,.08.2l.18.07h0l.06,0a.14.14,0,0,0,.08-.09l0-.09.21.05v.1a.16.16,0,0,0,.13.17l.19,0h0a.2.2,0,0,0,.11,0,.16.16,0,0,0,.05-.11v-.1h.22v.09a.15.15,0,0,0,.16.13h0l.19,0a.16.16,0,0,0,.12-.18l0-.1.2-.06,0,.09.08.08h.12l.18-.09a.15.15,0,0,0,.06-.2l0-.09.18-.12.06.08a.12.12,0,0,0,.1.05h0a.14.14,0,0,0,.09,0l.15-.13a.12.12,0,0,0,0-.1.21.21,0,0,0,0-.11l-.07-.08a1.07,1.07,0,0,0,.14-.16l.08.06a.16.16,0,0,0,.09,0h0a.15.15,0,0,0,.1-.06c0-.05.07-.1.1-.16a.16.16,0,0,0,0-.12.16.16,0,0,0-.07-.09l-.08-.05.09-.2.09,0h0l.07,0a.18.18,0,0,0,.08-.09l.06-.18a.16.16,0,0,0-.11-.19l-.09,0,0-.21h.11a.15.15,0,0,0,.15-.15,1.15,1.15,0,0,0,0-.19.16.16,0,0,0,0-.11.14.14,0,0,0-.11-.05h-.09a1.49,1.49,0,0,0,0-.21l.09,0a.14.14,0,0,0,.1-.07.14.14,0,0,0,0-.11,1.05,1.05,0,0,0,0-.19.15.15,0,0,0-.14-.11h0l-.09,0a1.19,1.19,0,0,0-.08-.2l.09-.05a.13.13,0,0,0,.07-.09.14.14,0,0,0,0-.11l-.09-.17a.14.14,0,0,0-.1-.07h0a.11.11,0,0,0-.08,0l-.09,0a1.09,1.09,0,0,0-.13-.17l.07-.07a.14.14,0,0,0,0-.11.15.15,0,0,0,0-.11l-.14-.13a.15.15,0,0,0-.21,0l-.07.07-.17-.13.05-.09a.16.16,0,0,0-.05-.21l-.17-.09-.07,0a.16.16,0,0,0-.14.08l0,.09-.2-.08,0-.09a.15.15,0,0,0-.11-.19l-.18-.05h0a.15.15,0,0,0-.15.12l0,.1-.22,0v-.1a.15.15,0,0,0-.15-.15Zm0,4.64a1.84,1.84,0,1,1,1.84-1.84A1.84,1.84,0,0,1,248.2,384Z" />
</svg>