<svg id="jewelry" xmlns="http://www.w3.org/2000/svg" viewBox="0 0 432 432">
  <defs>
    <style>.GUNDAN_RED_PANDA_JEWELRY_GUNDAN_RED_PANDA_JEWELRY_13_cls-1{fill:#ee3742;}.GUNDAN_RED_PANDA_JEWELRY_GUNDAN_RED_PANDA_JEWELRY_13_cls-2{fill:#f493a2;}.GUNDAN_RED_PANDA_JEWELRY_GUNDAN_RED_PANDA_JEWELRY_13_cls-3{fill:#b32126;}.GUNDAN_RED_PANDA_JEWELRY_GUNDAN_RED_PANDA_JEWELRY_13_cls-4{fill:#ed9547;}.GUNDAN_RED_PANDA_JEWELRY_GUNDAN_RED_PANDA_JEWELRY_13_cls-5{fill:#facf56;}.GUNDAN_RED_PANDA_JEWELRY_GUNDAN_RED_PANDA_JEWELRY_13_cls-6,.GUNDAN_RED_PANDA_JEWELRY_GUNDAN_RED_PANDA_JEWELRY_13_cls-7,.GUNDAN_RED_PANDA_JEWELRY_GUNDAN_RED_PANDA_JEWELRY_13_cls-8{fill:none;stroke:#000;stroke-miterlimit:10;}.GUNDAN_RED_PANDA_JEWELRY_GUNDAN_RED_PANDA_JEWELRY_13_cls-6,.GUNDAN_RED_PANDA_JEWELRY_GUNDAN_RED_PANDA_JEWELRY_13_cls-7{stroke-width:0.9px;}.GUNDAN_RED_PANDA_JEWELRY_GUNDAN_RED_PANDA_JEWELRY_13_cls-7,.GUNDAN_RED_PANDA_JEWELRY_GUNDAN_RED_PANDA_JEWELRY_13_cls-8{stroke-linecap:round;}.GUNDAN_RED_PANDA_JEWELRY_GUNDAN_RED_PANDA_JEWELRY_13_cls-8{stroke-width:0.67px;}</style>
  </defs>
  <path class="GUNDAN_RED_PANDA_JEWELRY_GUNDAN_RED_PANDA_JEWELRY_13_cls-1" d="M119.24,211a19.18,19.18,0,0,0,6.69,6.49l.45-.28a19.39,19.39,0,0,0,5.79-5.53,7.82,7.82,0,0,0,.43-.68,74,74,0,0,0-6.67-14c-.65,1.07-1.36,2.3-2.11,3.67-.61,1.14-1.24,2.37-1.86,3.69A59.4,59.4,0,0,0,119.24,211Z" />
  <path class="GUNDAN_RED_PANDA_JEWELRY_GUNDAN_RED_PANDA_JEWELRY_13_cls-2" d="M123.82,201.26c4.31,3.53,7.62,9.6,8.35,11,.15-.23.3-.45.43-.69a73.91,73.91,0,0,0-6.67-14C125.28,198.66,124.57,199.89,123.82,201.26Z" />
  <path class="GUNDAN_RED_PANDA_JEWELRY_GUNDAN_RED_PANDA_JEWELRY_13_cls-3" d="M119.24,211a19.18,19.18,0,0,0,6.69,6.49l.45-.28c-3-4.29-4.44-8.17-4.42-12.83A59.4,59.4,0,0,0,119.24,211Z" />
  <path class="GUNDAN_RED_PANDA_JEWELRY_GUNDAN_RED_PANDA_JEWELRY_13_cls-4" d="M124.1,193.55a0,0,0,0,1,0,0,3,3,0,0,0-.33-2.68,2.47,2.47,0,0,1,1.38-3.84,3.71,3.71,0,0,1,.77-.08,2.47,2.47,0,0,1,2.14,3.92,3.13,3.13,0,0,0-.35,2.66s0,0,0,0a77,77,0,0,1,8.48,17.72,22.19,22.19,0,0,1-10.29,9.95s-.4-.17-1-.51a22,22,0,0,1-9.28-9.44A78.2,78.2,0,0,1,124.1,193.55Zm.92,5A72.45,72.45,0,0,0,119.24,211a18.55,18.55,0,0,0,5.67,5.84c.37.25.71.48,1,.65A19.24,19.24,0,0,0,132.6,211a74,74,0,0,0-6.67-14C125.64,197.45,125.33,198,125,198.52Z" />
  <path class="GUNDAN_RED_PANDA_JEWELRY_GUNDAN_RED_PANDA_JEWELRY_13_cls-5" d="M124.51,193.55a0,0,0,0,1,0,0,3.06,3.06,0,0,0-.33-2.68,2.47,2.47,0,0,1,1.38-3.84,2.49,2.49,0,0,1,1,3.73,3.1,3.1,0,0,0-.34,2.67.1.1,0,0,1,0,0,76.73,76.73,0,0,1,8.49,17.72,22.06,22.06,0,0,1-9.48,9.54,22.09,22.09,0,0,1-9.27-9.44A77.78,77.78,0,0,1,124.51,193.55ZM125.62,217c.26-.14-.61,0-.3-.2.37.25.71.48,1,.65A19.17,19.17,0,0,0,133,211a73.39,73.39,0,0,0-6.68-14c-.29.47-.59,1-.9,1.54-.33-.59.64.11.34-.4A62.4,62.4,0,0,0,119.65,211,16.23,16.23,0,0,0,125.62,217Z" />
  <path class="GUNDAN_RED_PANDA_JEWELRY_GUNDAN_RED_PANDA_JEWELRY_13_cls-6" d="M125.93,217.45A19.15,19.15,0,0,0,132.6,211a74,74,0,0,0-6.67-14,74,74,0,0,0-6.69,14A19.18,19.18,0,0,0,125.93,217.45Z" />
  <path class="GUNDAN_RED_PANDA_JEWELRY_GUNDAN_RED_PANDA_JEWELRY_13_cls-6" d="M125.93,186.93a2.47,2.47,0,0,1,2.14,3.92,3.08,3.08,0,0,0-.34,2.66.16.16,0,0,1,0,0,76.94,76.94,0,0,1,8.49,17.72,22.24,22.24,0,0,1-10.3,9.95,22.23,22.23,0,0,1-10.32-9.95,78.63,78.63,0,0,1,8.49-17.72,0,0,0,0,1,0,0,3,3,0,0,0-.32-2.68,2.46,2.46,0,0,1,2.14-3.92" />
  <circle class="GUNDAN_RED_PANDA_JEWELRY_GUNDAN_RED_PANDA_JEWELRY_13_cls-6" cx="125.93" cy="183.71" r="1.83" />
  <polyline class="GUNDAN_RED_PANDA_JEWELRY_GUNDAN_RED_PANDA_JEWELRY_13_cls-7" points="125.93 184.72 125.93 185.54 125.93 186.93 125.93 187.78" />
  <polyline class="GUNDAN_RED_PANDA_JEWELRY_GUNDAN_RED_PANDA_JEWELRY_13_cls-7" points="125.93 175.07 125.93 181.89 125.93 182.82" />
  <path class="GUNDAN_RED_PANDA_JEWELRY_GUNDAN_RED_PANDA_JEWELRY_13_cls-8" d="M124.48,174.84a2.57,2.57,0,0,1,2.88,1.13" />
</svg>