<svg xmlns="http://www.w3.org/2000/svg" viewBox="0 0 432 432">
  <defs>
    <style>.GUNDAN_FROG_OUTFIT_FROG_OUTFIT_27_cls-1{isolation:isolate;}.GUNDAN_FROG_OUTFIT_FROG_OUTFIT_27_cls-2{fill:#ddc96e;}.GUNDAN_FROG_OUTFIT_FROG_OUTFIT_27_cls-3{fill:#2d1711;}.GUNDAN_FROG_OUTFIT_FROG_OUTFIT_27_cls-4,.GUNDAN_FROG_OUTFIT_FROG_OUTFIT_27_cls-8{fill:#070707;mix-blend-mode:multiply;}.GUNDAN_FROG_OUTFIT_FROG_OUTFIT_27_cls-4{opacity:0.2;}.GUNDAN_FROG_OUTFIT_FROG_OUTFIT_27_cls-5{fill:#000001;}.GUNDAN_FROG_OUTFIT_FROG_OUTFIT_27_cls-6{fill:#866f56;}.GUNDAN_FROG_OUTFIT_FROG_OUTFIT_27_cls-10,.GUNDAN_FROG_OUTFIT_FROG_OUTFIT_27_cls-11,.GUNDAN_FROG_OUTFIT_FROG_OUTFIT_27_cls-7{fill:none;stroke:#000;stroke-linecap:round;stroke-linejoin:round;}.GUNDAN_FROG_OUTFIT_FROG_OUTFIT_27_cls-7{stroke-width:1.64px;}.GUNDAN_FROG_OUTFIT_FROG_OUTFIT_27_cls-8{opacity:0.7;}.GUNDAN_FROG_OUTFIT_FROG_OUTFIT_27_cls-9{fill:#7b4d0f;}.GUNDAN_FROG_OUTFIT_FROG_OUTFIT_27_cls-10{stroke-width:1.65px;}.GUNDAN_FROG_OUTFIT_FROG_OUTFIT_27_cls-11{stroke-width:1.69px;}.GUNDAN_FROG_OUTFIT_FROG_OUTFIT_27_cls-12{fill:#cfb59c;}.GUNDAN_FROG_OUTFIT_FROG_OUTFIT_27_cls-13{fill:#b29476;}</style>
  </defs>
  <g class="GUNDAN_FROG_OUTFIT_FROG_OUTFIT_27_cls-1">
    <g id="outfit">
      <path class="GUNDAN_FROG_OUTFIT_FROG_OUTFIT_27_cls-2" d="M270.4,435.13h-8.71c-33.27-31.77-16.71-58.77-16-59.88l-.58-.28a18,18,0,0,0,8.21-.4l-3,4.7c-.61,1-14.54,23.67,16.4,52.43Z" />
      <path class="GUNDAN_FROG_OUTFIT_FROG_OUTFIT_27_cls-3" d="M73.43,338s12.61,17.11,43,32.5c23.82,12.09,58.57,23.14,106.75,24.06,0-.64,0-1.26,0-1.87a57.57,57.57,0,0,1,2.47-15.26,52.31,52.31,0,0,1,3.19-8.08c-14.93-6.67-47.28-6.21-68.9-13.86-13.32-4.72-21.09-15.29-25.12-22.83L104,317.5Z" />
      <path class="GUNDAN_FROG_OUTFIT_FROG_OUTFIT_27_cls-4" d="M73.43,338s12.61,17.11,43,32.5c1.08-14.79,12.87-22.76,12.87-22.76s9.81,22.35,53.87,22.35c19.57,0,33.63,3.78,42.5,7.34a52.31,52.31,0,0,1,3.19-8.08c-14.93-6.67-47.28-6.21-68.9-13.86-13.32-4.72-21.09-15.29-25.12-22.83L104,317.5Z" />
      <path class="GUNDAN_FROG_OUTFIT_FROG_OUTFIT_27_cls-5" d="M377.91,373.1a4.31,4.31,0,0,0,4.3,1.8,46.91,46.91,0,0,1-8.75,1.1,5.37,5.37,0,0,1-4.5-2.16c-9.28-12.55-31.1-32.87-31.71-33.45a55.6,55.6,0,0,0,5.07-4.33S367.3,357.29,377.91,373.1Z" />
      <path class="GUNDAN_FROG_OUTFIT_FROG_OUTFIT_27_cls-2" d="M377.91,373.1a4.31,4.31,0,0,0,4.3,1.8,46.91,46.91,0,0,1-8.75,1.1,5.37,5.37,0,0,1-4.5-2.16c-9.28-12.55-31.1-32.87-31.71-33.45a55.6,55.6,0,0,0,5.07-4.33S367.3,357.29,377.91,373.1Z" />
      <path class="GUNDAN_FROG_OUTFIT_FROG_OUTFIT_27_cls-4" d="M377.91,373.1a4.31,4.31,0,0,0,4.3,1.8,46.91,46.91,0,0,1-8.75,1.1,5.37,5.37,0,0,1-4.5-2.16c-9.28-12.55-31.1-32.87-31.71-33.45a55.6,55.6,0,0,0,5.07-4.33S367.3,357.29,377.91,373.1Z" />
      <path class="GUNDAN_FROG_OUTFIT_FROG_OUTFIT_27_cls-6" d="M369.78,435.13H270.4l-3.69-3.43c-30.94-28.76-17-51.48-16.4-52.43l3-4.7a14,14,0,0,0,5.88-3.65l4.12-8.67a16.75,16.75,0,0,0,.2-2.61c8.36-.62,29.41-1.93,40.29-4.6.91,3.73,11.74,43.46,63.45,70.26l1.59.73.25.1c-.07,2.41-.08,6.65.67,8.51,0,0-.08,0,0,0Z" />
      <path class="GUNDAN_FROG_OUTFIT_FROG_OUTFIT_27_cls-6" d="M286.83,271c-.24,4.22-.67,9-1.4,14.3a58,58,0,0,1-13.1-2,5.9,5.9,0,0,0,0-7.28c-2.11-3.14-.47-5.29,1.66-6.91A79.2,79.2,0,0,0,286.83,271Z" />
      <path class="GUNDAN_FROG_OUTFIT_FROG_OUTFIT_27_cls-6" d="M298.11,270.32c1,1.65,1.29,3.53-.71,5.62-2.9,3-2.28,6.26,0,9a78.23,78.23,0,0,1-11.92.31c.73-5.26,1.16-10.08,1.4-14.3C294.28,271.41,298.11,270.32,298.11,270.32Z" />
      <path class="GUNDAN_FROG_OUTFIT_FROG_OUTFIT_27_cls-6" d="M263.53,359.64a16.75,16.75,0,0,1-.2,2.61C240,351.56,200.42,331,169.58,314.71,144.39,301.37,125,290.85,125,290.85l9.95-16.4h0l22.66,12.81c8.55-1.34,21.81-1.56,33.63,6.1.49.31,1,.65,1.47,1,18.89,12.9,37.49,37.94,51.57,45.21a76.28,76.28,0,0,1,10,6,29.57,29.57,0,0,1,6,5.56,15.41,15.41,0,0,1,2.27,3.86A13,13,0,0,1,263.53,359.64Z" />
      <path class="GUNDAN_FROG_OUTFIT_FROG_OUTFIT_27_cls-6" d="M245.7,375.25c-.72,1.11-17.28,28.11,16,59.88H245.46c-13.76-16.6-16.66-31.79-16.39-42.32a49.62,49.62,0,0,1,5.2-21.09A48.91,48.91,0,0,0,245.11,375h0Z" />
      <path class="GUNDAN_FROG_OUTFIT_FROG_OUTFIT_27_cls-7" d="M245.7,375.25c-.72,1.11-17.28,28.11,16,59.88H245.46c-13.76-16.6-16.66-31.79-16.39-42.32a49.62,49.62,0,0,1,5.2-21.09A48.91,48.91,0,0,0,245.11,375h0Z" />
      <path class="GUNDAN_FROG_OUTFIT_FROG_OUTFIT_27_cls-6" d="M267.38,274.5c3.36,3.29,2,7.15-1.68,10.26s-1.95,6.9-.4,10.12c3.84,8-5.56,9.88-.24,13.89-.75-1.73.68-3.73,2.11-5.59h0A56,56,0,0,0,281.25,306c-2.87,10.83-17,22.52-23.23,33.95-1,1.89-2.6,3.65-3.74,5.53a76.28,76.28,0,0,0-10-6c-14.45-7.45-33.65-33.62-53-46.19-.6-.39-1.2-.76-1.81-1.1-11.34-6.54-23.71-6.27-31.82-5L135,274.45h0c-15.46-20.93-15.46-42.88-15.46-42.88s4.57,1.82,12.45,4.43c9.38,3.11,33.27,7.28,49.94,11,27.58,6.09,72.63,10.64,104.93,6a120.83,120.83,0,0,1,.21,13.94,51.33,51.33,0,0,1-10.21-1.38c-.19-2.26-2.83-4.79-7.82-3C261.86,265,264,271.2,267.38,274.5Z" />
      <path class="GUNDAN_FROG_OUTFIT_FROG_OUTFIT_27_cls-6" d="M133.78,225.42c-.65,3.7,3.4,8.75,2.85,12-7.89-2.61-17.14-5.89-17.14-5.89A53.71,53.71,0,0,1,133.78,225.42Z" />
      <path class="GUNDAN_FROG_OUTFIT_FROG_OUTFIT_27_cls-8" d="M133.78,225.42c-.65,3.7,3.4,8.75,2.85,12-7.89-2.61-17.14-5.89-17.14-5.89A53.71,53.71,0,0,1,133.78,225.42Z" />
      <path class="GUNDAN_FROG_OUTFIT_FROG_OUTFIT_27_cls-4" d="M257.53,339.87c-1,1.89-2.11,3.77-3.25,5.65a76.28,76.28,0,0,0-10-6c-14.45-7.45-33.65-33.62-53-46.19-.6-.39-1.2-.76-1.81-1.1-11.34-6.54-23.71-6.27-31.82-5L135,274.45h0a77.46,77.46,0,0,1-15.46-42.88s4.57,1.82,12.45,4.43c9.38,3.11,33.27,7.28,49.94,11-.43,5.76-1.64,29.89,7.71,45,25.1,10,37.13,19,43.58,30.45C238.16,331.31,251.66,337.51,257.53,339.87Z" />
      <path class="GUNDAN_FROG_OUTFIT_FROG_OUTFIT_27_cls-2" d="M237.92,435.13h-56c-28.65-3.09-52-9-70.88-16.07A200.64,200.64,0,0,1,85.6,407.49,155,155,0,0,1,57.85,388.4C42,374.6,36.67,363.29,36.67,363.29s2.5-2.31,7.08-5.89c0,0,13,22.09,49,41.74h0c29.57,16.11,74.69,30.56,141,29.8C235,431,236.36,433,237.92,435.13Z" />
      <path class="GUNDAN_FROG_OUTFIT_FROG_OUTFIT_27_cls-4" d="M92.75,399.14c-7,.85-7.15,8.35-7.15,8.35A155,155,0,0,1,57.85,388.4C42,374.6,36.67,363.29,36.67,363.29s2.5-2.31,7.08-5.89C43.75,357.4,56.7,379.49,92.75,399.14Z" />
      <path class="GUNDAN_FROG_OUTFIT_FROG_OUTFIT_27_cls-3" d="M369.78,420.62c-51.56-26.73-60.77-67-60.77-67,10.14-2.93,20.13-7.14,28.22-13.25h0c.61.58,22.43,20.9,31.71,33.45a5.37,5.37,0,0,0,4.5,2.16,46.91,46.91,0,0,0,8.75-1.1l.05,0a4.7,4.7,0,0,0,.51-.12l.19-.05a24,24,0,0,0,5.91-3s19.19,31.13,19.19,63.41c-34.13,0-38-.34-38.28-.45v0c-.75-1.86-.74-6.1-.67-8.51l-.25-.1Q369.37,423.57,369.78,420.62Z" />
      <path class="GUNDAN_FROG_OUTFIT_FROG_OUTFIT_27_cls-2" d="M229.07,392.81c-.27,10.53,2.63,25.72,16.39,42.32h-7.54c-1.56-2.09-3-4.16-4.21-6.19-8.19-13.2-10.48-25.22-10.55-34.43,0-.63,0-1.25,0-1.86a56.19,56.19,0,0,1,5.66-23.34l.48.22c1.73.81,3.37,1.55,4.94,2.19A49.62,49.62,0,0,0,229.07,392.81Z" />
      <path class="GUNDAN_FROG_OUTFIT_FROG_OUTFIT_27_cls-2" d="M269.21,300.29a73.45,73.45,0,0,0,13,2.16A64.25,64.25,0,0,0,297,302c.48,1,1.09,2,1.56,3a61.1,61.1,0,0,1-17.33,1,56,56,0,0,1-14.07-2.86h0a18.5,18.5,0,0,0,2-2.89Z" />
      <path class="GUNDAN_FROG_OUTFIT_FROG_OUTFIT_27_cls-6" d="M296.18,299.59A6.38,6.38,0,0,0,297,302a64.25,64.25,0,0,1-14.85.42c1.07-4.39,1.91-8.64,2.58-12.67a51,51,0,0,0,15.48-1.4c.91,1.62.43,2.8-.9,4.36C297.43,294.94,296.09,297.12,296.18,299.59Z" />
      <path class="GUNDAN_FROG_OUTFIT_FROG_OUTFIT_27_cls-2" d="M263.33,362.25l-4.12,8.67c-22.84-12.08-63.62-31.06-95.47-45.59-25.67-11.72-47.05-21.53-47.05-21.53s-1-10.17,8.31-12.95c0,0,19.39,10.52,44.58,23.86C200.42,331,240,351.56,263.33,362.25Z" />
      <path class="GUNDAN_FROG_OUTFIT_FROG_OUTFIT_27_cls-4" d="M164.06,324.93l-.32.4c-25.67-11.72-47.05-21.53-47.05-21.53s-1-10.17,8.31-12.95c0,0,19.39,10.52,44.58,23.86C162.89,315.8,164.06,324.93,164.06,324.93Z" />
      <path class="GUNDAN_FROG_OUTFIT_FROG_OUTFIT_27_cls-6" d="M325.7,288.93c5.45,1.53,7.38,4.62,11.53,8-16,24.18-59.41,44.55-76.9,54.17a29.57,29.57,0,0,0-6-5.56C265.6,339.74,310.48,320.87,325.7,288.93Z" />
      <path class="GUNDAN_FROG_OUTFIT_FROG_OUTFIT_27_cls-6" d="M284.75,289.78c-.67,4-1.51,8.28-2.58,12.67a73.45,73.45,0,0,1-13-2.16h0a3,3,0,0,0,.28-.75c.5-2.42-.44-4.79-1.92-7.27-1.26-2.09-1.4-3.45.64-5.27A73.12,73.12,0,0,0,284.75,289.78Z" />
      <path class="GUNDAN_FROG_OUTFIT_FROG_OUTFIT_27_cls-2" d="M367.27,425.3c-51.71-26.8-62.54-66.53-63.45-70.26,1.73-.43,3.46-.89,5.19-1.4,0,0,9.21,40.25,60.77,67q-.4,3-.92,5.41Z" />
      <path class="GUNDAN_FROG_OUTFIT_FROG_OUTFIT_27_cls-6" d="M347.77,312.05a25.46,25.46,0,0,1,1,9.76,29.49,29.49,0,0,1-3.36,11q-1.45,1.69-3.08,3.27a55.6,55.6,0,0,1-5.07,4.33h0c-8.09,6.11-18.08,10.32-28.22,13.25-1.73.51-3.46,1-5.19,1.4-10.88,2.67-31.93,4-40.29,4.6a13,13,0,0,0-.93-4.7C296.82,348.62,333,334.86,347.77,312.05Z" />
      <path class="GUNDAN_FROG_OUTFIT_FROG_OUTFIT_27_cls-6" d="M325.7,288.92c-15.23,31.95-60.1,50.81-71.42,56.6,8.06-13.23,23.62-26.87,27-39.48a61.1,61.1,0,0,0,17.33-1c.74,1.59,1.16,3.16.37,4.36,5.94-3.07-3-6.44,2.16-13.73,2.06-2.91,4.42-6.35,1.32-10s-3.77-7.7.11-10.4,7.06-8.47.47-12.13c-5.72-3.19-9,.74-8.22,3.25a37.63,37.63,0,0,1-7.77.49,120.7,120.7,0,0,0-.21-13.93c9.87-1.42,27.48-5.25,36.63-8.62.38-.14.76-.28,1.14-.44.58-.21,1.16-.43,1.74-.67l1.73-.7q1.72-.72,3.42-1.5c.57-.25,1.13-.52,1.69-.79s1.12-.53,1.68-.82c1.11-.54,2.22-1.12,3.31-1.72C340.86,257.11,332.4,274.85,325.7,288.92Z" />
      <path class="GUNDAN_FROG_OUTFIT_FROG_OUTFIT_27_cls-6" d="M338.15,237.67c-1.09.6-2.2,1.18-3.31,1.72-.56.29-1.11.56-1.68.82s-1.12.54-1.69.79q-1.7.78-3.42,1.5l-1.73.7-1.74.67a58.41,58.41,0,0,0,3.9-9.74c1.32.35,2.52.7,3.59,1l.55.17c.91.29,1.71.55,2.41.81s1.15.44,1.6.64l.41.18A4.63,4.63,0,0,1,338.15,237.67Z" />
      <path class="GUNDAN_FROG_OUTFIT_FROG_OUTFIT_27_cls-8" d="M338.15,237.67c-1.09.6-2.2,1.18-3.31,1.72-.56.29-1.11.56-1.68.82s-1.12.54-1.69.79q-1.7.78-3.42,1.5l-1.73.7-1.74.67a58.41,58.41,0,0,0,3.9-9.74c1.32.35,2.52.7,3.59,1l.55.17c.91.29,1.71.55,2.41.81s1.15.44,1.6.64l.41.18A4.63,4.63,0,0,1,338.15,237.67Z" />
      <path class="GUNDAN_FROG_OUTFIT_FROG_OUTFIT_27_cls-2" d="M274,269.11c-2.13,1.62-3.77,3.77-1.66,6.91a5.9,5.9,0,0,1,0,7.28,11.2,11.2,0,0,1-2.71,2.59A17.74,17.74,0,0,0,268.2,287c-2,1.82-1.9,3.18-.64,5.27,1.48,2.48,2.42,4.85,1.92,7.27a3,3,0,0,1-.28.75,18.5,18.5,0,0,1-2,2.89c-1.43,1.86-2.86,3.86-2.11,5.59-5.32-4,4.08-5.85.24-13.89-1.55-3.22-3.28-7,.4-10.12s5-7,1.68-10.26-5.52-9.52,1.61-12c5-1.76,7.63.77,7.82,3a2.5,2.5,0,0,1-1.09,2.44C275.15,268.3,274.55,268.68,274,269.11Z" />
      <path class="GUNDAN_FROG_OUTFIT_FROG_OUTFIT_27_cls-2" d="M302.43,285.64c3.09,3.69.74,7.13-1.32,10.05-5.18,7.28,3.77,10.65-2.16,13.72.79-1.2.36-2.76-.37-4.36-.47-1-1.08-2.07-1.56-3a6.38,6.38,0,0,1-.84-2.44c-.09-2.47,1.25-4.65,3.15-6.85,1.33-1.56,1.81-2.74.9-4.36a10.83,10.83,0,0,0-1.85-2.27,12,12,0,0,1-1-1.14c-2.23-2.77-2.85-6,0-9,2-2.09,1.74-4,.71-5.62a14.84,14.84,0,0,0-2.67-2.93,2.21,2.21,0,0,1-.65-1c-.79-2.5,2.5-6.43,8.22-3.24,6.59,3.66,3.41,9.44-.47,12.13S299.35,282,302.43,285.64Z" />
      <path class="GUNDAN_FROG_OUTFIT_FROG_OUTFIT_27_cls-6" d="M233.71,428.94c-66.26.76-111.38-13.69-140.95-29.8h0c-36-19.65-49-41.74-49-41.74A217.67,217.67,0,0,1,73.42,338s12.62,17.11,43,32.51c23.83,12.09,58.58,23.14,106.75,24C223.23,403.72,225.52,415.74,233.71,428.94Z" />
      <path class="GUNDAN_FROG_OUTFIT_FROG_OUTFIT_27_cls-4" d="M116.41,370.47c0,.14,0,.29,0,.45-7.22.87-25.19,18.36-23.61,28.22h0c-36-19.65-49-41.74-49-41.74A217.67,217.67,0,0,1,73.42,338S86,355.07,116.41,370.47Z" />
      <path class="GUNDAN_FROG_OUTFIT_FROG_OUTFIT_27_cls-6" d="M259.21,370.92a14,14,0,0,1-5.88,3.65,18,18,0,0,1-8.21.4h0a48.91,48.91,0,0,1-10.84-3.25c-1.57-.64-3.21-1.38-4.94-2.19l-.48-.22c-14.47-6.46-45.26-6.23-66.82-13.16-.71-.23-1.4-.46-2.08-.7-13.32-4.71-21.09-15.29-25.12-22.83L104,317.5l12.7-13.7s21.38,9.81,47.05,21.53C195.59,339.86,236.37,358.84,259.21,370.92Z" />
      <path class="GUNDAN_FROG_OUTFIT_FROG_OUTFIT_27_cls-4" d="M162.33,356.07l-.3.08c-.71-.23-1.4-.46-2.08-.7-13.32-4.71-21.09-15.29-25.12-22.83L104,317.5l12.7-13.7s21.38,9.81,47.05,21.53C161.73,327.9,151.32,342.49,162.33,356.07Z" />
      <path class="GUNDAN_FROG_OUTFIT_FROG_OUTFIT_27_cls-4" d="M192.72,294.34c-18-3.87-26.22,13-23.14,20.37C144.39,301.37,125,290.85,125,290.85l9.95-16.4h0l22.66,12.81c8.55-1.34,21.81-1.56,33.63,6.1C191.74,293.67,192.23,294,192.72,294.34Z" />
      <path class="GUNDAN_FROG_OUTFIT_FROG_OUTFIT_27_cls-9" d="M57.85,388.4q-1.34,3-2.38,6.11C39,384,36.67,363.29,36.67,363.29S42,374.6,57.85,388.4Z" />
      <path class="GUNDAN_FROG_OUTFIT_FROG_OUTFIT_27_cls-4" d="M57.85,388.4q-1.34,3-2.38,6.11C39,384,36.67,363.29,36.67,363.29S42,374.6,57.85,388.4Z" />
      <path class="GUNDAN_FROG_OUTFIT_FROG_OUTFIT_27_cls-2" d="M295.44,267.39a14.84,14.84,0,0,1,2.67,2.93s-3.83,1.09-11.28.66A79.2,79.2,0,0,1,274,269.11c.57-.43,1.17-.81,1.74-1.18a2.5,2.5,0,0,0,1.09-2.44A51.33,51.33,0,0,0,287,266.87a37.68,37.68,0,0,0,7.77-.51A2.21,2.21,0,0,0,295.44,267.39Z" />
      <path class="GUNDAN_FROG_OUTFIT_FROG_OUTFIT_27_cls-2" d="M391.13,365.17a4.15,4.15,0,0,1-.87,5.49c-.41.33-.87.69-1.39,1.06a24,24,0,0,1-5.91,3l-.19.05-.51.12-.05,0a4.31,4.31,0,0,1-4.3-1.8c-10.61-15.81-35.59-37-35.59-37q1.62-1.57,3.08-3.27a29.49,29.49,0,0,0,3.36-11C369.44,333.3,385.87,357,391.13,365.17Z" />
      <path class="GUNDAN_FROG_OUTFIT_FROG_OUTFIT_27_cls-2" d="M298.38,286.11a10.83,10.83,0,0,1,1.85,2.27,51,51,0,0,1-15.48,1.4A73.12,73.12,0,0,1,268.2,287a17.74,17.74,0,0,1,1.42-1.11,11.2,11.2,0,0,0,2.71-2.59,58,58,0,0,0,13.1,2,78.23,78.23,0,0,0,11.92-.31A12,12,0,0,0,298.38,286.11Z" />
      <path class="GUNDAN_FROG_OUTFIT_FROG_OUTFIT_27_cls-6" d="M181.9,435.13H114.61s0-.16-.17-.48c0-.16-.13-.37-.21-.62a.94.94,0,0,1-.06-.15,79.16,79.16,0,0,1-2.54-10.48v0c-.22-1.35-.43-2.8-.61-4.32l.28.1q5.79,2.18,12.17,4.18A304,304,0,0,0,181.9,435.13Z" />
      <path class="GUNDAN_FROG_OUTFIT_FROG_OUTFIT_27_cls-2" d="M337.23,296.91c9.75.17,13.63,9.29,10.55,15.13h0c-14.75,22.81-50.95,36.57-85.17,42.89a15.41,15.41,0,0,0-2.27-3.86C277.82,341.46,321.19,321.09,337.23,296.91Z" />
      <path class="GUNDAN_FROG_OUTFIT_FROG_OUTFIT_27_cls-6" d="M114.61,435.13H49.3v-.43s-.53-20.73,6.17-40.19q1.05-3.09,2.38-6.11a158.47,158.47,0,0,0,32.26,21.48h0a205,205,0,0,0,20.9,9.18c.18,1.52.39,3,.61,4.32v0a79.16,79.16,0,0,0,2.54,10.48.94.94,0,0,0,.06.15c.08.25.16.46.21.62C114.56,435,114.61,435.13,114.61,435.13Z" />
      <path class="GUNDAN_FROG_OUTFIT_FROG_OUTFIT_27_cls-4" d="M49.3,435.13v-.43s-.53-20.73,6.17-40.19q1.05-3.09,2.38-6.11a158.47,158.47,0,0,0,32.26,21.48c-.87,3.08-4.43,17.33,3.09,25.25Z" />
      <path class="GUNDAN_FROG_OUTFIT_FROG_OUTFIT_27_cls-4" d="M125.58,435.13h-11c-.1-.34-.22-.71-.32-1.1a.94.94,0,0,1-.06-.15,72.82,72.82,0,0,1-2.87-14.72q5.79,2.18,12.17,4.18A18.92,18.92,0,0,0,125.58,435.13Z" />
      <path class="GUNDAN_FROG_OUTFIT_FROG_OUTFIT_27_cls-10" d="M111,419.06c.18,1.52.39,3,.61,4.32v0a73.34,73.34,0,0,0,2.81,11.25c.12.32.17.48.17.48" />
      <path class="GUNDAN_FROG_OUTFIT_FROG_OUTFIT_27_cls-10" d="M366.56,434.65c.26-.78.83-2.49,1.45-4.91.27-1.1.57-2.34.85-3.71q.51-2.46.92-5.41c1.14-8.41,1.28-19.49-2.58-30.48h0a50.87,50.87,0,0,0-6.12-12c-.06-.11-.13-.2-.2-.31" />
      <path class="GUNDAN_FROG_OUTFIT_FROG_OUTFIT_27_cls-10" d="M369.53,399.14a16.5,16.5,0,0,1,.57-2.67,29.36,29.36,0,0,1,4.87-8.9" />
      <path class="GUNDAN_FROG_OUTFIT_FROG_OUTFIT_27_cls-10" d="M388.87,371.72s19.19,31.13,19.19,63.41c-34.13,0-38-.34-38.28-.45-.08,0,0,0,0,0-.75-1.86-.74-6.1-.67-8.51,0-1.05.07-1.75.07-1.75" />
      <path class="GUNDAN_FROG_OUTFIT_FROG_OUTFIT_27_cls-11" d="M270.4,435.13l-3.69-3.43c-30.94-28.76-17-51.48-16.4-52.43l3-4.7" />
      <path class="GUNDAN_FROG_OUTFIT_FROG_OUTFIT_27_cls-11" d="M228.85,369.31a56.19,56.19,0,0,0-5.66,23.34c0,.61,0,1.23,0,1.86.07,9.21,2.36,21.23,10.55,34.43,1.24,2,2.65,4.1,4.21,6.19" />
      <path class="GUNDAN_FROG_OUTFIT_FROG_OUTFIT_27_cls-11" d="M245.46,435.13c-13.76-16.6-16.66-31.79-16.39-42.32a49.62,49.62,0,0,1,5.2-21.09" />
      <path class="GUNDAN_FROG_OUTFIT_FROG_OUTFIT_27_cls-11" d="M245.12,375l.58.28c-.72,1.11-17.28,28.11,16,59.88" />
      <path class="GUNDAN_FROG_OUTFIT_FROG_OUTFIT_27_cls-10" d="M73.42,338s40.18,54.48,149.74,56.55" />
      <path class="GUNDAN_FROG_OUTFIT_FROG_OUTFIT_27_cls-7" d="M133.53,225.5a53.06,53.06,0,0,0-14,6.07s4.57,1.82,12.46,4.43c1.4.47,3,.95,4.68,1.46C165.54,246,237.91,260,286.81,252.93c9.87-1.42,27.48-5.25,36.63-8.62.38-.14.76-.28,1.14-.44l1.74-.67,1.73-.7q1.72-.72,3.42-1.5c.57-.25,1.13-.52,1.69-.79s1.12-.53,1.68-.82c1.11-.54,2.22-1.12,3.31-1.72A4.63,4.63,0,0,0,337,237l-.41-.18c-.45-.2-1-.41-1.6-.64s-1.5-.52-2.41-.81l-.55-.17c-1.07-.33-2.27-.68-3.59-1" />
      <path class="GUNDAN_FROG_OUTFIT_FROG_OUTFIT_27_cls-7" d="M328.48,234.13a58.41,58.41,0,0,1-3.9,9.74" />
      <path class="GUNDAN_FROG_OUTFIT_FROG_OUTFIT_27_cls-7" d="M133.53,225.5c0,.24.07.48.11.73a59.34,59.34,0,0,0,3,11.23" />
      <path class="GUNDAN_FROG_OUTFIT_FROG_OUTFIT_27_cls-7" d="M119.49,231.57s-.76,20.64,15.46,42.88" />
      <path class="GUNDAN_FROG_OUTFIT_FROG_OUTFIT_27_cls-7" d="M338.15,237.67c2.71,19.44-5.75,37.18-12.45,51.26-15.22,31.94-60.1,50.81-71.42,56.59" />
      <path class="GUNDAN_FROG_OUTFIT_FROG_OUTFIT_27_cls-7" d="M337.23,340.39c-8.09,6.11-18.08,10.32-28.22,13.25-1.73.51-3.46,1-5.19,1.4-10.88,2.67-31.93,4-40.29,4.6" />
      <path class="GUNDAN_FROG_OUTFIT_FROG_OUTFIT_27_cls-7" d="M347.77,312.05a25.46,25.46,0,0,1,1,9.76,29.49,29.49,0,0,1-3.36,11q-1.45,1.69-3.08,3.27a55.6,55.6,0,0,1-5.07,4.33" />
      <path class="GUNDAN_FROG_OUTFIT_FROG_OUTFIT_27_cls-7" d="M337.23,296.91c-4.15-3.36-6.08-6.45-11.53-8" />
      <path class="GUNDAN_FROG_OUTFIT_FROG_OUTFIT_27_cls-7" d="M260.33,351.08c17.49-9.62,60.86-30,76.9-54.17,9.75.17,13.63,9.29,10.55,15.13h0c-14.75,22.81-50.95,36.57-85.17,42.89" />
      <path class="GUNDAN_FROG_OUTFIT_FROG_OUTFIT_27_cls-12" d="M237.52,312.91a44.13,44.13,0,0,1-12,10.15h0c-.25.16-.51.3-.75.45-2.55-2.51-5.17-5.14-7.83-7.8-1.49-1.49-3-3-4.5-4.45A50.22,50.22,0,0,0,222,300.59h0c3.13-4.89,5.33-10.8,4.55-17.28A44.14,44.14,0,0,1,237.52,312.91Z" />
      <path class="GUNDAN_FROG_OUTFIT_FROG_OUTFIT_27_cls-12" d="M222,300.58h0a50.22,50.22,0,0,1-9.49,10.68l-2-1.94c-3-2.85-6-5.64-9-8.24q-2.58-2.2-5.17-4.17l-.34-.26c.39-.44.8-.9,1.2-1.38a52.33,52.33,0,0,0,6.33-9.19c3-5.69,4.91-12.42,3.47-19.52A49.56,49.56,0,0,1,222,300.58Z" />
      <path class="GUNDAN_FROG_OUTFIT_FROG_OUTFIT_27_cls-12" d="M244.31,339.56h0a41.08,41.08,0,0,1-5.25-3.33,94,94,0,0,1-7.83-6.56c-2-1.83-4-3.79-6.09-5.82l-.32-.32c.24-.15.5-.29.75-.45h0a44.13,44.13,0,0,0,12-10.15,24.41,24.41,0,0,0,5.31-12.42C250.17,314.1,248.88,328.3,244.31,339.56Z" />
      <path class="GUNDAN_FROG_OUTFIT_FROG_OUTFIT_27_cls-12" d="M203.47,286.09a52.33,52.33,0,0,1-6.33,9.19c-.4.48-.81.94-1.2,1.38q-2.34-1.77-4.69-3.3a41.51,41.51,0,0,0-6.18-3.29,43.52,43.52,0,0,0-6.48-2.15,50.72,50.72,0,0,0,2.54-9.62c1-6.37.58-13.38-3.16-19.67a50.24,50.24,0,0,1,25.49,27.46Z" />
      <path class="GUNDAN_FROG_OUTFIT_FROG_OUTFIT_27_cls-12" d="M181.79,279.1a51.64,51.64,0,0,1-3.11,8.84l-.09,0a54,54,0,0,0-21-.66l-1.82.32c0-.47-.06-.94-.11-1.41-.27-2.54-.83-5.31-1.13-7.73-.82-6.73-3.38-13.67-9.46-18.79a55.78,55.78,0,0,1,36.68,19.45Z" />
      <path class="GUNDAN_FROG_OUTFIT_FROG_OUTFIT_27_cls-7" d="M181.13,278.3a50.72,50.72,0,0,1-2.54,9.62l-1.6-.36a51.51,51.51,0,0,0-13.28-.94,60.1,60.1,0,0,0-6.09.64l-1.63-.92c-.39-8.64-2.79-20.14-12-27C160.32,260.18,172.78,268.44,181.13,278.3Z" />
      <path class="GUNDAN_FROG_OUTFIT_FROG_OUTFIT_27_cls-13" d="M177,287.56a51.51,51.51,0,0,0-13.28-.94,25.83,25.83,0,0,0-6.93-19.15C172.49,275.28,176.2,284.63,177,287.56Z" />
      <path class="GUNDAN_FROG_OUTFIT_FROG_OUTFIT_27_cls-13" d="M197.14,295.28a5.81,5.81,0,0,1-.14,1l-.72.67-.34-.26q-2.34-1.77-4.69-3.3a41.51,41.51,0,0,0-6.18-3.29l0-.19a25.73,25.73,0,0,0,.27-20.32C197.23,282.2,197.43,292.2,197.14,295.28Z" />
      <path class="GUNDAN_FROG_OUTFIT_FROG_OUTFIT_27_cls-13" d="M210.48,309.33c-3-2.85-6-5.64-9-8.24l.18-.72A26.09,26.09,0,0,0,212,282.79C215.48,297,212.53,305.53,210.48,309.33Z" />
      <path class="GUNDAN_FROG_OUTFIT_FROG_OUTFIT_27_cls-13" d="M225.57,323.06h0a8.35,8.35,0,0,1-.43.77l-.32-.32c-2.55-2.51-5.17-5.14-7.83-7.8a26.33,26.33,0,0,0,12.66-15.14C230.27,311.57,227.92,318.74,225.57,323.06Z" />
      <path class="GUNDAN_FROG_OUTFIT_FROG_OUTFIT_27_cls-13" d="M243.3,316c0,9.43-2,15.94-4.26,20.23a94,94,0,0,1-7.83-6.56A26.24,26.24,0,0,0,243.3,316Z" />
      <path class="GUNDAN_FROG_OUTFIT_FROG_OUTFIT_27_cls-12" d="M229.37,369.36c-6.44,10.37-17.26,19.93-32.78,22.28a24.59,24.59,0,0,0,6.92-11.6,0,0,0,0,0,0,0,43.26,43.26,0,0,0,1.08-16.1l0-.34.16,0c2.54.36,5,.74,7.39,1.13a106.35,106.35,0,0,1,11.28,2.44,39.25,39.25,0,0,1,5.94,2.16Z" />
      <path class="GUNDAN_FROG_OUTFIT_FROG_OUTFIT_27_cls-12" d="M203.52,380a0,0,0,0,1,0,0,45.79,45.79,0,0,1-30.69,9c5.74-3.25,9.23-8.53,11.35-13.91a49.46,49.46,0,0,0,3.06-13.89c1.84.26,3.69.52,5.54.76,4,.54,8,1.05,11.8,1.58l0,.34A43.26,43.26,0,0,1,203.52,380Z" />
      <path class="GUNDAN_FROG_OUTFIT_FROG_OUTFIT_27_cls-12" d="M147.91,348.54a50.84,50.84,0,0,1-6.31,7.72h0c-13-.7-27.18-5.59-37.6-17.92a28.09,28.09,0,0,0,14.79,0A47.65,47.65,0,0,0,133,331.7l1.8.76c.77,1.44,1.68,3,2.74,4.6a50.5,50.5,0,0,0,8.54,10C146.69,347.54,147.29,348.05,147.91,348.54Z" />
      <path class="GUNDAN_FROG_OUTFIT_FROG_OUTFIT_27_cls-12" d="M165.42,357a52.9,52.9,0,0,1-4.12,12.23c-11.45,3.07-24.75,3-37.61-3.69,7.35-.81,13.32-4.68,17.9-9.26h0a50.84,50.84,0,0,0,6.31-7.72,40.55,40.55,0,0,0,5.12,3.52,39.79,39.79,0,0,0,6.94,3.22c1.67.6,3.42,1.13,5.21,1.64Z" />
      <path class="GUNDAN_FROG_OUTFIT_FROG_OUTFIT_27_cls-12" d="M187.23,361.25a49.46,49.46,0,0,1-3.06,13.89,51.48,51.48,0,0,1-36.69,8.48c6.65-3.11,11-8.64,13.82-14.41A52.9,52.9,0,0,0,165.42,357c2.11.59,4.3,1.12,6.54,1.6,3.89.86,7.94,1.56,12,2.19C185.06,360.94,186.14,361.09,187.23,361.25Z" />
      <path class="GUNDAN_FROG_OUTFIT_FROG_OUTFIT_27_cls-13" d="M146.12,347c-3.17,1.06-13,3.12-28.12-4.92a2.85,2.85,0,0,0,.29,0,27,27,0,0,0,19.29-5.07A50.5,50.5,0,0,0,146.12,347Z" />
      <path class="GUNDAN_FROG_OUTFIT_FROG_OUTFIT_27_cls-13" d="M165.18,356.92l-.18,1.24s-8,8.7-29,5.78a26.57,26.57,0,0,0,16.82-11.82l.19-.06a39.79,39.79,0,0,0,6.94,3.22C161.64,355.88,163.39,356.41,165.18,356.92Z" />
      <path class="GUNDAN_FROG_OUTFIT_FROG_OUTFIT_27_cls-13" d="M184,360.77c-1.62,3.54-6.76,11.47-21.66,17.2a26,26,0,0,0,8.74-18.42l.89-1C175.85,359.44,179.9,360.14,184,360.77Z" />
      <path class="GUNDAN_FROG_OUTFIT_FROG_OUTFIT_27_cls-13" d="M204.73,363.61a2.15,2.15,0,0,1-.13.32c-1.8,4.41-6.27,11.42-17.37,18.11a25.84,25.84,0,0,0,5.3-19.65l.24-.38c4,.54,8,1.05,11.8,1.58Z" />
      <path class="GUNDAN_FROG_OUTFIT_FROG_OUTFIT_27_cls-13" d="M223.4,367.18c-2,4.49-6.26,10.78-15.51,17.11a25.85,25.85,0,0,0,4.23-19.55A106.35,106.35,0,0,1,223.4,367.18Z" />
      <path class="GUNDAN_FROG_OUTFIT_FROG_OUTFIT_27_cls-7" d="M178.59,287.92a50.72,50.72,0,0,0,2.54-9.62c1-6.37.58-13.38-3.16-19.67a50.24,50.24,0,0,1,25.49,27.46" />
      <path class="GUNDAN_FROG_OUTFIT_FROG_OUTFIT_27_cls-7" d="M222,300.58a49.56,49.56,0,0,0-15-34c1.44,7.1-.46,13.83-3.47,19.52a54.29,54.29,0,0,1-7.53,10.57" />
      <path class="GUNDAN_FROG_OUTFIT_FROG_OUTFIT_27_cls-7" d="M237.52,312.91a44.14,44.14,0,0,0-11-29.61c.78,6.48-1.42,12.39-4.55,17.28h0a50.22,50.22,0,0,1-9.49,10.68" />
      <path class="GUNDAN_FROG_OUTFIT_FROG_OUTFIT_27_cls-7" d="M224.8,323.52a45,45,0,0,0,12.72-10.61,24.41,24.41,0,0,0,5.31-12.42c7.34,13.61,6,27.81,1.48,39.07" />
      <path class="GUNDAN_FROG_OUTFIT_FROG_OUTFIT_27_cls-7" d="M156,286.34c-.39-8.64-2.79-20.14-12-27,16.28.84,28.74,9.1,37.09,19" />
      <path class="GUNDAN_FROG_OUTFIT_FROG_OUTFIT_27_cls-7" d="M157.62,287.26l-1.63-.92-.3-.17L135,274.45h0L125,290.85s95.86,52,138.33,71.4a16.75,16.75,0,0,0,.2-2.61,13,13,0,0,0-.93-4.7,15.41,15.41,0,0,0-2.27-3.86,29.57,29.57,0,0,0-6-5.56,76.64,76.64,0,0,0-10-6h0c-5.82-3-12.42-9.06-19.49-16-4-3.91-8.1-8.12-12.33-12.25a171.35,171.35,0,0,0-16.53-14.61q-2.34-1.77-4.69-3.3a41.15,41.15,0,0,0-12.57-5.42l-.09,0a54,54,0,0,0-21-.66l-1.82.32a47.61,47.61,0,0,0-7.19,1.85" />
      <path class="GUNDAN_FROG_OUTFIT_FROG_OUTFIT_27_cls-7" d="M131.21,324.07a49.86,49.86,0,0,0,3.63,8.39" />
      <path class="GUNDAN_FROG_OUTFIT_FROG_OUTFIT_27_cls-7" d="M229.37,369.36l0,0c-5.94-2.79-14.85-4.35-24.77-5.75-5.57-.77-11.46-1.5-17.34-2.34A176.92,176.92,0,0,1,165.42,357q-2.82-.76-5.45-1.7a40.82,40.82,0,0,1-12.06-6.74,52.06,52.06,0,0,1-13.07-16.08l-1.8-.76-29-14.35h0l12.69-13.7s70.94,31.81,117.91,54.69c9.34,4.55,17.79,8.79,24.63,12.4a15.39,15.39,0,0,1-2,1.72,13.33,13.33,0,0,1-4.37,2.08,15.83,15.83,0,0,1-4.5.53,30.24,30.24,0,0,1-8.16-1.43,77.88,77.88,0,0,1-10.82-4.27" />
      <path class="GUNDAN_FROG_OUTFIT_FROG_OUTFIT_27_cls-7" d="M141.59,356.26c-4.58,4.58-10.55,8.46-17.9,9.26,12.86,6.67,26.16,6.76,37.61,3.69" />
      <path class="GUNDAN_FROG_OUTFIT_FROG_OUTFIT_27_cls-7" d="M147.91,348.54a50.84,50.84,0,0,1-6.31,7.72" />
      <path class="GUNDAN_FROG_OUTFIT_FROG_OUTFIT_27_cls-7" d="M184.19,375.13h0a51.48,51.48,0,0,1-36.69,8.48c6.65-3.11,11-8.64,13.82-14.41A52.9,52.9,0,0,0,165.42,357" />
      <path class="GUNDAN_FROG_OUTFIT_FROG_OUTFIT_27_cls-7" d="M203.51,380a45.79,45.79,0,0,1-30.69,9c5.74-3.25,9.23-8.53,11.35-13.91a49.46,49.46,0,0,0,3.06-13.89" />
      <path class="GUNDAN_FROG_OUTFIT_FROG_OUTFIT_27_cls-7" d="M204.57,363.59a43.42,43.42,0,0,1-1,16.44,0,0,0,0,1,0,0,24.59,24.59,0,0,1-6.92,11.6c15.52-2.35,26.34-11.91,32.78-22.28" />
      <path class="GUNDAN_FROG_OUTFIT_FROG_OUTFIT_27_cls-7" d="M133,331.7c-7.27,4.84-18,9.76-29,6.64,10.42,12.33,24.59,17.22,37.6,17.92h0" />
      <path class="GUNDAN_FROG_OUTFIT_FROG_OUTFIT_27_cls-7" d="M131.2,324.24a50.4,50.4,0,0,0,3.63,8.38c4,7.54,11.8,18.12,25.12,22.83,21.61,7.65,54,7.19,68.9,13.86l.48.22c1.73.81,3.37,1.55,4.94,2.19A48.91,48.91,0,0,0,245.11,375h0a18,18,0,0,0,8.21-.4,14,14,0,0,0,5.88-3.65C218,349.11,116.69,303.8,116.69,303.8L104,317.5l30.84,15.12" />
      <path class="GUNDAN_FROG_OUTFIT_FROG_OUTFIT_27_cls-7" d="M116.69,303.8s-1-10.17,8.31-12.95" />
      <line class="GUNDAN_FROG_OUTFIT_FROG_OUTFIT_27_cls-7" x1="263.33" y1="362.25" x2="259.21" y2="370.92" />
      <path class="GUNDAN_FROG_OUTFIT_FROG_OUTFIT_27_cls-7" d="M104,317.5c-13.88,7.83-19.8,14.6-30.57,20.46A217.67,217.67,0,0,0,43.75,357.4c-4.58,3.58-7.08,5.89-7.08,5.89S42,374.6,57.85,388.4c11.52,10.05,28.58,21.4,53.17,30.66,18.89,7.11,42.23,13,70.88,16.07a461.3,461.3,0,0,0,72.38,1.64" />
      <path class="GUNDAN_FROG_OUTFIT_FROG_OUTFIT_27_cls-7" d="M57.85,388.39h0q-1.34,3-2.38,6.11C48.77,414,49.3,434.7,49.3,434.7v.43H369.78v-.49" />
      <path class="GUNDAN_FROG_OUTFIT_FROG_OUTFIT_27_cls-7" d="M36.67,363.29S39,384,55.47,394.51" />
      <path class="GUNDAN_FROG_OUTFIT_FROG_OUTFIT_27_cls-7" d="M43.75,357.4s42.92,73.22,190,71.54" />
      <path class="GUNDAN_FROG_OUTFIT_FROG_OUTFIT_27_cls-11" d="M369.11,426.13l-.25-.1-1.59-.73c-51.71-26.8-62.54-66.53-63.45-70.26" />
      <path class="GUNDAN_FROG_OUTFIT_FROG_OUTFIT_27_cls-11" d="M309,353.64s9.21,40.25,60.77,67" />
      <path class="GUNDAN_FROG_OUTFIT_FROG_OUTFIT_27_cls-11" d="M383,374.71a24,24,0,0,0,5.91-3c.52-.37,1-.73,1.39-1.06a4.15,4.15,0,0,0,.87-5.49c-5.26-8.19-21.69-31.87-42.37-43.36" />
      <path class="GUNDAN_FROG_OUTFIT_FROG_OUTFIT_27_cls-11" d="M382.26,374.88a4.7,4.7,0,0,0,.51-.12" />
      <path class="GUNDAN_FROG_OUTFIT_FROG_OUTFIT_27_cls-11" d="M342.32,336.06s25,21.23,35.59,37a4.31,4.31,0,0,0,4.3,1.8" />
      <path class="GUNDAN_FROG_OUTFIT_FROG_OUTFIT_27_cls-11" d="M337.23,340.39h0c.61.58,22.43,20.9,31.71,33.45a5.37,5.37,0,0,0,4.5,2.16,46.91,46.91,0,0,0,8.75-1.1l.05,0,.51-.12.19-.05" />
      <path class="GUNDAN_FROG_OUTFIT_FROG_OUTFIT_27_cls-7" d="M281.25,306c-3.35,12.61-18.92,26.26-27,39.48" />
      <path class="GUNDAN_FROG_OUTFIT_FROG_OUTFIT_27_cls-7" d="M286.83,271c-.24,4.22-.67,9-1.4,14.3" />
      <path class="GUNDAN_FROG_OUTFIT_FROG_OUTFIT_27_cls-7" d="M286.81,252.93a120.83,120.83,0,0,1,.21,13.94" />
      <path class="GUNDAN_FROG_OUTFIT_FROG_OUTFIT_27_cls-7" d="M284.75,289.78c-.67,4-1.51,8.28-2.58,12.67" />
      <path class="GUNDAN_FROG_OUTFIT_FROG_OUTFIT_27_cls-7" d="M276.81,265.49c-.19-2.26-2.83-4.79-7.82-3-7.13,2.52-5,8.74-1.61,12s2,7.15-1.68,10.26-1.95,6.9-.4,10.12c3.84,8-5.56,9.88-.24,13.89-.75-1.73.68-3.73,2.11-5.59a18.5,18.5,0,0,0,2-2.89,3,3,0,0,0,.28-.75c.5-2.42-.44-4.79-1.92-7.27-1.26-2.09-1.4-3.45.64-5.27a17.74,17.74,0,0,1,1.42-1.11,11.2,11.2,0,0,0,2.71-2.59,5.9,5.9,0,0,0,0-7.28c-2.11-3.14-.47-5.29,1.66-6.91.57-.43,1.17-.81,1.74-1.18A2.5,2.5,0,0,0,276.81,265.49Z" />
      <path class="GUNDAN_FROG_OUTFIT_FROG_OUTFIT_27_cls-7" d="M294.79,266.36c-.79-2.5,2.5-6.43,8.22-3.24,6.59,3.66,3.41,9.44-.47,12.13s-3.19,6.71-.11,10.39.74,7.13-1.32,10.05c-5.18,7.28,3.77,10.65-2.16,13.72.79-1.2.36-2.76-.37-4.36-.47-1-1.08-2.07-1.56-3a6.38,6.38,0,0,1-.84-2.44c-.09-2.47,1.25-4.65,3.15-6.85,1.33-1.56,1.81-2.74.9-4.36a10.83,10.83,0,0,0-1.85-2.27,12,12,0,0,1-1-1.14c-2.23-2.77-2.85-6,0-9,2-2.09,1.74-4,.71-5.62a14.84,14.84,0,0,0-2.67-2.93A2.21,2.21,0,0,1,294.79,266.36Z" />
      <path class="GUNDAN_FROG_OUTFIT_FROG_OUTFIT_27_cls-7" d="M276.81,265.49A51.33,51.33,0,0,0,287,266.87a37.68,37.68,0,0,0,7.77-.51" />
      <path class="GUNDAN_FROG_OUTFIT_FROG_OUTFIT_27_cls-7" d="M298.11,270.32s-3.83,1.09-11.28.66A79.2,79.2,0,0,1,274,269.11h0" />
      <path class="GUNDAN_FROG_OUTFIT_FROG_OUTFIT_27_cls-7" d="M272.33,283.3a58,58,0,0,0,13.1,2,78.23,78.23,0,0,0,11.92-.31" />
      <path class="GUNDAN_FROG_OUTFIT_FROG_OUTFIT_27_cls-7" d="M268.2,287a73.12,73.12,0,0,0,16.55,2.78,51,51,0,0,0,15.48-1.4" />
      <path class="GUNDAN_FROG_OUTFIT_FROG_OUTFIT_27_cls-7" d="M269.21,300.29a73.45,73.45,0,0,0,13,2.16A64.25,64.25,0,0,0,297,302" />
      <path class="GUNDAN_FROG_OUTFIT_FROG_OUTFIT_27_cls-7" d="M267.18,303.18A56,56,0,0,0,281.25,306a61.1,61.1,0,0,0,17.33-1" />
    </g>
  </g>
</svg>