<svg xmlns="http://www.w3.org/2000/svg" xmlns:xlink="http://www.w3.org/1999/xlink" viewBox="0 0 432 432">
  <defs>
    <style>.BUNTAI_GOAT_BODY_BUNTAI_GOAT_BODY_44_cls-1,.BUNTAI_GOAT_BODY_BUNTAI_GOAT_BODY_44_cls-6{fill:none;}.BUNTAI_GOAT_BODY_BUNTAI_GOAT_BODY_44_cls-1,.BUNTAI_GOAT_BODY_BUNTAI_GOAT_BODY_44_cls-10,.BUNTAI_GOAT_BODY_BUNTAI_GOAT_BODY_44_cls-6{stroke:#000;stroke-linecap:round;stroke-linejoin:round;}.BUNTAI_GOAT_BODY_BUNTAI_GOAT_BODY_44_cls-1,.BUNTAI_GOAT_BODY_BUNTAI_GOAT_BODY_44_cls-10{stroke-width:1.75px;}.BUNTAI_GOAT_BODY_BUNTAI_GOAT_BODY_44_cls-2{isolation:isolate;}.BUNTAI_GOAT_BODY_BUNTAI_GOAT_BODY_44_cls-3{fill:#1f1b1a;}.BUNTAI_GOAT_BODY_BUNTAI_GOAT_BODY_44_cls-4{fill:#3f3325;}.BUNTAI_GOAT_BODY_BUNTAI_GOAT_BODY_44_cls-5{fill:#d9beab;}.BUNTAI_GOAT_BODY_BUNTAI_GOAT_BODY_44_cls-6{stroke-width:1.59px;}.BUNTAI_GOAT_BODY_BUNTAI_GOAT_BODY_44_cls-7{fill:#fff;}.BUNTAI_GOAT_BODY_BUNTAI_GOAT_BODY_44_cls-8{clip-path:url(#BUNTAI_GOAT_BODY_BUNTAI_GOAT_BODY_44_clip-path);}.BUNTAI_GOAT_BODY_BUNTAI_GOAT_BODY_44_cls-9{fill:#ff6a61;}.BUNTAI_GOAT_BODY_BUNTAI_GOAT_BODY_44_cls-10,.BUNTAI_GOAT_BODY_BUNTAI_GOAT_BODY_44_cls-12{fill:#f64d00;}.BUNTAI_GOAT_BODY_BUNTAI_GOAT_BODY_44_cls-11{clip-path:url(#BUNTAI_GOAT_BODY_BUNTAI_GOAT_BODY_44_clip-path-2);}.BUNTAI_GOAT_BODY_BUNTAI_GOAT_BODY_44_cls-13{opacity:0.22;mix-blend-mode:multiply;}</style>
    <clipPath id="clip-path">
      <path class="BUNTAI_GOAT_BODY_BUNTAI_GOAT_BODY_44_cls-1" d="M185.53,181.54s5.48-8.71,11.51-6.9c6.85,2.05,7.82,11.3,12.52,14.77-5.62-1.17-11,2.15-15.44,0S188.39,181.39,185.53,181.54Z" />
    </clipPath>
    <clipPath id="clip-path-2">
      <path class="BUNTAI_GOAT_BODY_BUNTAI_GOAT_BODY_44_cls-1" d="M282.46,181.54s-2-8.71-8-6.9c-6.85,2.05-7.82,11.3-12.53,14.77,5.63-1.17,11,2.15,15.45,0S279.6,181.39,282.46,181.54Z" />
    </clipPath>
  </defs>
  <g class="BUNTAI_GOAT_BODY_BUNTAI_GOAT_BODY_44_cls-2">
    <g id="body">
      <path class="BUNTAI_GOAT_BODY_BUNTAI_GOAT_BODY_44_cls-3" d="M249.49,256.5c-.12-.23-2.08-3.88-3.79-6.55s-4-5.31-5.25-5.31a2,2,0,0,0-1.71,1.38,14.47,14.47,0,0,1,3,3.37c1.05,1.82,2,3.71,2,3.71s.87.57,1.95,1.24A42.73,42.73,0,0,0,240,252c-1-.88-4.22-9.47-3.45-12.16s1.34-4.56,5.63-6.59a27.25,27.25,0,0,1,10.62-3,14.07,14.07,0,0,1,9,2.43c2.84,2,5,4.58,5,5.71,0,1.84-2,13.37-2,13.37a5.86,5.86,0,0,1-3.42,3,36.22,36.22,0,0,0-5.58,3.17c-.87.46-5,.32-7.9-2a13.32,13.32,0,0,0-1.1-.8A22.7,22.7,0,0,0,249.49,256.5Zm7.74,0a54.68,54.68,0,0,0,4.46-3.4s.75-1.89,1.57-3.71a13.64,13.64,0,0,1,2.32-3.37s-.34-1.38-1.33-1.38-2.71,2.55-4.08,5.31S257.32,256.27,257.23,256.5Z" />
      <path class="BUNTAI_GOAT_BODY_BUNTAI_GOAT_BODY_44_cls-4" d="M340.09,131.92c-2.39-5.29-5.22-15.63-8.27-20.79a36.54,36.54,0,0,0-8.17-9.77c-2.35-2-16.25-12.16-32.25-12.16s-23.29,8.63-28.73,11.4-6.45,3.86-7.53,8.08c-.75,3-4.55,11.87-6.69,16.76-.87,2-1.47,3.33-1.47,3.33s5.91,7.59,9.61,12.65c2.79,3.81,4.12,5.84,6.67,6.68a11,11,0,0,0,3,.46c4.83.15,7.41-4.68,7.41-4.68a28.53,28.53,0,0,1,1.34-4.83,24.47,24.47,0,0,1,4.71-8.05,15.92,15.92,0,0,1,4.88-3.69,29.62,29.62,0,0,1,3.25-1.35c7.52-2.59,13.58-.88,18.93,3.42,5.17,6,7.54,9.54,9,14a42.26,42.26,0,0,1,1.36,6.06,52.46,52.46,0,0,1,.75,11.74l-2.93-2h0a16,16,0,0,0,0-1.69c-.25-4.21-5.15-9.43-11.18-9.66a7,7,0,0,0-5.69,2.64,145.44,145.44,0,0,0-14.42-6s-.27,17.54,1.83,25.06v0c.14.45.27.87.42,1.24,1.65,4.23,1.85,7.66.89,10.7l5.66,2.72a20.53,20.53,0,0,0,1.44,3.07c2.55,6.23,8,11.81,13.83,13.78h0c0,.05.18.28.41.67a103.53,103.53,0,0,1,5.61,10.41h0c.58,1.23,1.17,2.54,1.74,3.91a79,79,0,0,1,3.89,11.61,49.82,49.82,0,0,1,1.48,10c.61,17.49-2.3,25.32-1.23,26.39s10.89-5.07,16-26.08c1.8-7.47,1.77-16.16,1-24.26-.46-4.75-1.18-9.29-1.93-13.26-1.59-8.32-3.37-14.16-3.37-14.16a65.5,65.5,0,0,0,6.5-8.07c4-6.21,4.09-11.89,4.59-12.65s-.44-5,.32-9.21S342.47,137.21,340.09,131.92Z" />
      <path class="BUNTAI_GOAT_BODY_BUNTAI_GOAT_BODY_44_cls-4" d="M220.89,108.68c-1.3-4.22-2.53-5.32-9.18-8.08s-15.54-11.4-35.07-11.4-36.51,10.12-39.37,12.16a39.35,39.35,0,0,0-10,9.77c-3.74,5.16-7.19,15.5-10.1,20.79s-4.07,20.24-3.15,24.46-.23,8.44.39,9.21.76,6.44,5.59,12.65a83,83,0,0,0,10.18,10c-2.12,3.48-4.16,7.14-6,10.91-.41.84-.82,1.69-1.22,2.55-.28.61-.56,1.22-.83,1.83-1.15,2.57-2.21,5.19-3.13,7.82-7.05,19.94-7.12,41,11.51,54.52,3.26-.21-1.05-8.74-1.43-18a19.42,19.42,0,0,1,.09-2.53,68.21,68.21,0,0,1,4.75-17.95,89.8,89.8,0,0,1,3.94-8.54h0a84.47,84.47,0,0,1,6.46-10.44,81.33,81.33,0,0,1,5.57-6.87,14.85,14.85,0,0,0,5.1-.07,20,20,0,0,0,2.1-.51,22.55,22.55,0,0,0,2.18-.76l.36-.16a3.42,3.42,0,0,0,.34-.13l.08,0a29.3,29.3,0,0,0,9.85-7.21h0a24.88,24.88,0,0,0,3.71-5.38,17.53,17.53,0,0,0,1.54-2.63l5.6-.51.68-1.61v-2.38c0-.69,4-7.67,4.92-18.26a65.42,65.42,0,0,0-.54-17.48,64.38,64.38,0,0,0-17.4,6,9.35,9.35,0,0,0-6.84-2.54c-7.35.23-13.34,5.45-13.65,9.66a14.6,14.6,0,0,0,.91,6.63q-1.58,1.5-3.13,3.17a6.7,6.7,0,0,1-.54-1.23c-.92-3-1.58-8.44.05-16.62s3.78-11.66,12.6-20.1c6.63-4.36,14.15-6.06,23.51-3.3q1.74.51,3.57,1.23a19.54,19.54,0,0,1,6.37,4.07,24.12,24.12,0,0,1,5.47,8,23.41,23.41,0,0,1,1.51,4.52,11.09,11.09,0,0,0,9,4.68,15.21,15.21,0,0,0,3.77-.49c3-.85,4.67-2.88,8-6.65,4.52-5.06,11.74-12.65,11.74-12.65s-.57-1-1.43-2.63C226.93,121.46,221.86,111.83,220.89,108.68Zm-56.68,61.9a1.5,1.5,0,0,1,.15.75A1.46,1.46,0,0,1,164.21,170.58Z" />
      <path class="BUNTAI_GOAT_BODY_BUNTAI_GOAT_BODY_44_cls-5" d="M359.8,406.24c1.56,1.14,2.24,1.63,3,1.36-4.87-13.9-3.32-18.87-4.63-28.24s-4.59-19.59-11.26-23.55l2.8-.11L325.66,337l3.6-.05c-17.79-12.31-28.68-28.46-33.39-38.81h0c0-.27,0-.55,0-.85l.13,0c-2.65-8.38-5.17-29.24-5.17-29.24s5.86,14.15,9.24,16.91c-6.85-11.56-7.36-35.79-9.72-46.23s-7.64-37-7.64-37a66,66,0,0,0,11.05,7.79c7.05,3.77,12.56,6.25,21.7,6.54-.57-1.37-1.16-2.68-1.74-3.91h0a103.53,103.53,0,0,0-5.61-10.41c-.23-.39-.38-.62-.41-.67h0c-5.78-2-11.28-7.55-13.83-13.78a20.53,20.53,0,0,1-1.44-3.07l-5.66-2.72c1-3,.76-6.47-.89-10.7-.15-.37-.28-.79-.42-1.24v0c-2.1-7.52-1.83-25.06-1.83-25.06a10.13,10.13,0,0,1-3.37-1.43c-1.68-1.12-5.21-4-5.21-4a28.53,28.53,0,0,0-1.34,4.83s-2.58,4.83-7.41,4.68a11,11,0,0,1-3-.46c-2.55-.84-3.88-2.87-6.67-6.68-3.7-5.06-9.61-12.65-9.61-12.65s.6-1.34,1.47-3.33c0,0-5.14-.35-7.8-.66s-11.21,1.36-11.21,1.36c.86,1.6,1.43,2.63,1.43,2.63s-7.22,7.59-11.74,12.65c-3.37,3.77-5,5.8-8,6.65a15.21,15.21,0,0,1-3.77.49,11.09,11.09,0,0,1-9-4.68,23.41,23.41,0,0,0-1.51-4.52c-1.37.91-3.34,2.2-4.32,2.76a34,34,0,0,1-4.83,2.3h-1.77a65.42,65.42,0,0,1,.54,17.48c-.92,10.59-4.92,17.57-4.92,18.26v2.38l-.68,1.61-5.6.51a17.53,17.53,0,0,1-1.54,2.63,24.88,24.88,0,0,1-3.71,5.38h0a29.3,29.3,0,0,1-9.85,7.21l-.08,0a3.42,3.42,0,0,1-.34.13l-.36.16a22.55,22.55,0,0,1-2.18.76,20,20,0,0,1-2.1.51,14.85,14.85,0,0,1-5.1.07,81.33,81.33,0,0,0-5.57,6.87,84.47,84.47,0,0,0-6.46,10.44c.27.14,11.49,5.7,21.68,2.87a46.05,46.05,0,0,0,7.23-2.71s-6.18,27.49-14.33,47.26l2.72-.85c-.19.5-6.45,16.43-10.38,22.49l4.37-1.06s-3.81,9.44-5.84,11.29c-6.23,10.35-20.64,26.5-44.2,38.81l4.77.05L72,355.7l3.7.11c-8.82,4-13.15,14-14.91,23.55s.33,14.34-6.13,28.24c1,.27,2-.22,4-1.36-5.25,11.65-11.85,28.3-14,43.46H370.36C368.74,434.54,363.76,417.89,359.8,406.24ZM236.58,239.79c.76-2.68,1.34-4.56,5.63-6.59a27.25,27.25,0,0,1,10.62-3,14.07,14.07,0,0,1,9,2.43c2.84,2,5,4.58,5,5.71,0,1.84-2,13.37-2,13.37a5.86,5.86,0,0,1-3.42,3,36.22,36.22,0,0,0-5.58,3.17c-.87.46-5,.32-7.9-2a13.32,13.32,0,0,0-1.1-.8l-.08,0-1.05-.65-.11-.06A42.73,42.73,0,0,0,240,252C239,251.07,235.81,242.48,236.58,239.79Zm-38.31,34.78c.4-.53.79-1.05,1.15-1.56A11.43,11.43,0,0,1,198.27,274.57Z" />
      <path class="BUNTAI_GOAT_BODY_BUNTAI_GOAT_BODY_44_cls-5" d="M349.74,205.93c-6.06.07-15.11-5.46-15.11-5.46.75,4,1.47,8.51,1.93,13.26C340,213.47,344.23,210.76,349.74,205.93Z" />
      <path class="BUNTAI_GOAT_BODY_BUNTAI_GOAT_BODY_44_cls-5" d="M119,211.39c.92-2.63,2-5.25,3.13-7.82.27-.61.55-1.22.83-1.83.4-.86.81-1.71,1.22-2.55,0,0-10.3,1.22-13.74,1.37C114.9,208.92,119,211.39,119,211.39Z" />
      <path class="BUNTAI_GOAT_BODY_BUNTAI_GOAT_BODY_44_cls-6" d="M284.83,301.9c-1.94,10.74.71,21.27,3.68,31.71-1.84-8.7,2-14.56,3.6-24.86.72-4.67,3.52-4.3,3.74-10.6,0-.27,0-.55,0-.85" />
      <path class="BUNTAI_GOAT_BODY_BUNTAI_GOAT_BODY_44_cls-6" d="M246.94,255.1a13.32,13.32,0,0,1,1.1.8c2.88,2.3,7,2.44,7.9,2a36.22,36.22,0,0,1,5.58-3.17,5.86,5.86,0,0,0,3.42-3s2-11.53,2-13.37c0-1.13-2.2-3.73-5-5.71a14.07,14.07,0,0,0-9-2.43,27.25,27.25,0,0,0-10.62,3c-4.29,2-4.87,3.91-5.63,6.59S239,251.07,240,252a42.73,42.73,0,0,1,5.67,2.39" />
      <path class="BUNTAI_GOAT_BODY_BUNTAI_GOAT_BODY_44_cls-6" d="M141.12,182.46a31.38,31.38,0,0,0,10,.23,18.13,18.13,0,0,0,8-3.11,15.13,15.13,0,0,0,2.17-1.9" />
      <path class="BUNTAI_GOAT_BODY_BUNTAI_GOAT_BODY_44_cls-6" d="M169.93,192.67a24.88,24.88,0,0,0,3.71-5.38,17.53,17.53,0,0,0,1.54-2.63,25.57,25.57,0,0,0,2.22-12.79c-.38-7.59,0-7.9-2.83-12.49-1.72-2.8-3.42-6.52-6.13-9" />
      <path class="BUNTAI_GOAT_BODY_BUNTAI_GOAT_BODY_44_cls-6" d="M168.44,150.41a9.35,9.35,0,0,0-6.84-2.54c-7.35.23-13.34,5.45-13.65,9.66a14.6,14.6,0,0,0,.91,6.63c.39.8.86,1.14,1.31.74a14.43,14.43,0,0,1,3.47-2.89,7.22,7.22,0,0,1,4.9-.49c5,1.08,3.75,6.14,5.67,9.06a1.5,1.5,0,0,1,.15.75,10.51,10.51,0,0,1-3.09,6.35,12.41,12.41,0,0,1-8.1-2.33,23,23,0,0,1-2.31-1.89,27.59,27.59,0,0,1-5.13-6.13,6.7,6.7,0,0,1-.54-1.23c-.92-3-1.58-8.44.05-16.62s3.78-11.66,12.6-20.1c6.63-4.36,14.15-6.06,23.51-3.3q1.74.51,3.57,1.23a19.54,19.54,0,0,1,6.37,4.07,24.12,24.12,0,0,1,5.47,8,23.41,23.41,0,0,1,1.51,4.52,11.09,11.09,0,0,0,9,4.68,15.21,15.21,0,0,0,3.77-.49c3-.85,4.67-2.88,8-6.65,4.52-5.06,11.74-12.65,11.74-12.65s-.57-1-1.43-2.63c-2.51-4.68-7.58-14.31-8.55-17.46-1.3-4.22-2.53-5.32-9.18-8.08s-15.54-11.4-35.07-11.4-36.51,10.12-39.37,12.16a39.35,39.35,0,0,0-10,9.77c-3.74,5.16-7.19,15.5-10.1,20.79s-4.07,20.24-3.15,24.46-.23,8.44.39,9.21.76,6.44,5.59,12.65a83,83,0,0,0,10.18,10l3.22,2.75c2.33,2,4.19,3.56,4.94,4.39a21.12,21.12,0,0,0,11.54,6.13,14.85,14.85,0,0,0,5.1-.07,20,20,0,0,0,2.1-.51,22.55,22.55,0,0,0,2.18-.76l.36-.16a3.42,3.42,0,0,0,.34-.13l.08,0a29.3,29.3,0,0,0,9.85-7.21" />
      <path class="BUNTAI_GOAT_BODY_BUNTAI_GOAT_BODY_44_cls-6" d="M304,177.68A13.63,13.63,0,0,0,314.42,183a23.32,23.32,0,0,0,6.07-.49" />
      <path class="BUNTAI_GOAT_BODY_BUNTAI_GOAT_BODY_44_cls-6" d="M307.68,201.07c-5.78-2-11.28-7.55-13.83-13.78a20.53,20.53,0,0,1-1.44-3.07" />
      <path class="BUNTAI_GOAT_BODY_BUNTAI_GOAT_BODY_44_cls-6" d="M302,174.14a13.35,13.35,0,0,0,1.95,3.54,9,9,0,0,0,6.63-2.33,18.19,18.19,0,0,0,1.62-1.6c1.93-2.12,4.34-5.4,4.92-7.65a25.9,25.9,0,0,0,.7-4.88,52.46,52.46,0,0,0-.75-11.74,42.26,42.26,0,0,0-1.36-6.06c-1.42-4.5-3.79-8-9-14-5.35-4.3-11.41-6-18.93-3.42a29.62,29.62,0,0,0-3.25,1.35,15.92,15.92,0,0,0-4.88,3.69,24.47,24.47,0,0,0-4.71,8.05,28.53,28.53,0,0,0-1.34,4.83s-2.58,4.83-7.41,4.68a11,11,0,0,1-3-.46c-2.55-.84-3.88-2.87-6.67-6.68-3.7-5.06-9.61-12.65-9.61-12.65s.6-1.34,1.47-3.33c2.14-4.89,5.94-13.76,6.69-16.76,1.08-4.22,2.08-5.32,7.53-8.08s12.72-11.4,28.73-11.4,29.9,10.12,32.25,12.16a36.54,36.54,0,0,1,8.17,9.77c3.05,5.16,5.88,15.5,8.27,20.79s3.33,20.24,2.58,24.46.18,8.44-.32,9.21-.63,6.44-4.59,12.65a65.5,65.5,0,0,1-6.5,8.07c-3.7,4-7.46,7.69-8.51,9.11a16.66,16.66,0,0,1-2.29,2.42c-2.21,1.93-5.49,3.92-9.16,3.9a9.2,9.2,0,0,1-2.18-.26,12.8,12.8,0,0,1-1.43-.41" />
      <path class="BUNTAI_GOAT_BODY_BUNTAI_GOAT_BODY_44_cls-6" d="M292.41,184.22a31.36,31.36,0,0,1-1.64-12.35c.31-7.59,0-7.9,2.32-12.49,1.4-2.76,2.77-6.42,4.93-8.87a7,7,0,0,1,5.69-2.64c6,.23,10.93,5.45,11.18,9.66a16,16,0,0,1,0,1.69c-.06,3.57-1,6.61-1.84,5.68s-2.77-4.45-6.86-3.38a4.94,4.94,0,0,0-.71.25c-3.25,1.45-2.46,6.07-3.93,8.81a5.79,5.79,0,0,0,.46,3.55" />
      <path class="BUNTAI_GOAT_BODY_BUNTAI_GOAT_BODY_44_cls-6" d="M148.86,164.16q-1.58,1.5-3.13,3.17" />
      <path class="BUNTAI_GOAT_BODY_BUNTAI_GOAT_BODY_44_cls-6" d="M175.18,184.66l5.6-.51.68-1.61v-2.38c0-.69,4-7.67,4.92-18.26a65.42,65.42,0,0,0-.54-17.48h1.77a34,34,0,0,0,4.83-2.3c1-.56,2.95-1.85,4.32-2.76" />
      <path class="BUNTAI_GOAT_BODY_BUNTAI_GOAT_BODY_44_cls-6" d="M137.88,218.86a84.47,84.47,0,0,1,6.46-10.44,81.33,81.33,0,0,1,5.57-6.87" />
      <path class="BUNTAI_GOAT_BODY_BUNTAI_GOAT_BODY_44_cls-6" d="M130.21,188.28c-2.12,3.48-4.16,7.14-6,10.91-.41.84-.82,1.69-1.22,2.55-.28.61-.56,1.22-.83,1.83-1.15,2.57-2.21,5.19-3.13,7.82-7.05,19.94-7.12,41,11.51,54.52,3.26-.21-1.05-8.74-1.43-18a19.42,19.42,0,0,1,.09-2.53,68.21,68.21,0,0,1,4.75-17.95,89.8,89.8,0,0,1,3.94-8.54" />
      <path class="BUNTAI_GOAT_BODY_BUNTAI_GOAT_BODY_44_cls-6" d="M168.44,150.41a64.38,64.38,0,0,1,17.4-6" />
      <path class="BUNTAI_GOAT_BODY_BUNTAI_GOAT_BODY_44_cls-6" d="M229.44,126.14s8.55-1.66,11.21-1.36,7.8.66,7.8.66" />
      <path class="BUNTAI_GOAT_BODY_BUNTAI_GOAT_BODY_44_cls-6" d="M274,251.76a72.64,72.64,0,0,0,3.7-13.88c.56-3.82,2-8.94,2.27-15.46.21-6,.11-20.61.08-23.09V199l1.68-3.22c1.69-3.21,2.61-4.49,2.51-9.51a15.47,15.47,0,0,0,2.53-4.74c1-3,.76-6.47-.89-10.7-.15-.37-.28-.79-.42-1.24v0c-2.1-7.52-1.83-25.06-1.83-25.06a10.13,10.13,0,0,1-3.37-1.43c-1.68-1.12-5.21-4-5.21-4" />
      <path class="BUNTAI_GOAT_BODY_BUNTAI_GOAT_BODY_44_cls-6" d="M193.13,212a27.86,27.86,0,0,1-1.84,10.66c-.27.66-.49,1.26-.71,1.82-1.51,4.07-1.72,6.2-1.51,15.36-1.62-7.28-1-19.86-1-19.86a36.28,36.28,0,0,1-6.83,8.66c6.29-8,7.21-30.14,7.21-30.14-.36-.44-.74-.92-1.13-1.47a22,22,0,0,1-3.78-9.42,21.73,21.73,0,0,1-2.76-3.45" />
      <path class="BUNTAI_GOAT_BODY_BUNTAI_GOAT_BODY_44_cls-6" d="M197,240.47a40.2,40.2,0,0,1-4.18,15.7" />
      <path class="BUNTAI_GOAT_BODY_BUNTAI_GOAT_BODY_44_cls-6" d="M197,240.34c0-.61,0-1.24.07-1.89C197.08,239.09,197.05,239.72,197,240.34Z" />
      <path class="BUNTAI_GOAT_BODY_BUNTAI_GOAT_BODY_44_cls-6" d="M197,240.34v.13" />
      <path class="BUNTAI_GOAT_BODY_BUNTAI_GOAT_BODY_44_cls-6" d="M199.46,273c4.62-7.46,3.08-21.72,1.46-30.08a87.06,87.06,0,0,0-.3,21.43c-3.07-7.09-4-11.41-3.6-23.85" />
      <path class="BUNTAI_GOAT_BODY_BUNTAI_GOAT_BODY_44_cls-6" d="M199.42,273a11.43,11.43,0,0,1-1.15,1.56C198.67,274,199.06,273.52,199.42,273Z" />
      <path class="BUNTAI_GOAT_BODY_BUNTAI_GOAT_BODY_44_cls-6" d="M199.42,273l0,0" />
      <path class="BUNTAI_GOAT_BODY_BUNTAI_GOAT_BODY_44_cls-6" d="M268.19,266.7c-.17,3.66-2.17,5.55-4.07,7.85s-5.37,6.34-5.37,6.34c-2,2.14-6.59,4.35-15.24,2.4s-16.25-13-18.19-15-6.14-2.4-6.14-2.4-2.82-.16,0,7.82c-2.51-1.94-5.47-9.21-5.83-16.72-2.09,2.66-2.3,9.92-2.3,9.92s-2.28-4.17-2.36-11.53c-.93,4.53-3.47,9.74-9.23,17.57" />
      <path class="BUNTAI_GOAT_BODY_BUNTAI_GOAT_BODY_44_cls-6" d="M192.69,256.5c.05-.11.11-.22.15-.33a18.56,18.56,0,0,0,.3-11.49c-2.67-4.65-2.56-20.21-2.56-20.21l-.44-1.62" />
      <path class="BUNTAI_GOAT_BODY_BUNTAI_GOAT_BODY_44_cls-6" d="M207.82,243.41c1.59,3.57,4.71,2.81,6,3.48s3.48,5.16,5.83,8.07,1.79,3.89,8.79,10.54,14.32,5.42,20.56,4.6,9.25,0,11.91.3c2,.2,4.5-1,7.29-3.7a34.6,34.6,0,0,0,2.79-3.05c.92-2.29,2.83-11.07,3-11.84a.1.1,0,0,0,0-.05,23.81,23.81,0,0,0-.14-7.89c-.82-4-2.55-11.56-1.63-16.77a16.11,16.11,0,0,0-2.15-11A67.74,67.74,0,0,1,262,189.41" />
      <path class="BUNTAI_GOAT_BODY_BUNTAI_GOAT_BODY_44_cls-6" d="M119,211.39s-4.11-2.47-8.56-10.83c3.44-.15,13.74-1.37,13.74-1.37" />
      <path class="BUNTAI_GOAT_BODY_BUNTAI_GOAT_BODY_44_cls-6" d="M137.87,218.86h0c.27.14,11.49,5.7,21.68,2.87a46.05,46.05,0,0,0,7.23-2.71h0c8.38-4,16.88-10.88,21.66-20.52" />
      <path class="BUNTAI_GOAT_BODY_BUNTAI_GOAT_BODY_44_cls-6" d="M110.45,200.56s8,1.12,11.68,3" />
      <path class="BUNTAI_GOAT_BODY_BUNTAI_GOAT_BODY_44_cls-6" d="M144.34,208.42s7.65-4.75,16.75-3.13,17.48,7.31,26.23-8.27" />
      <line class="BUNTAI_GOAT_BODY_BUNTAI_GOAT_BODY_44_cls-6" x1="286.75" y1="181.5" x2="292.41" y2="184.22" />
      <path class="BUNTAI_GOAT_BODY_BUNTAI_GOAT_BODY_44_cls-6" d="M313.71,212.15a103.53,103.53,0,0,0-5.61-10.41c-.23-.39-.38-.62-.41-.67h0" />
      <path class="BUNTAI_GOAT_BODY_BUNTAI_GOAT_BODY_44_cls-6" d="M331.26,186.31s1.78,5.84,3.37,14.16c.75,4,1.47,8.51,1.93,13.26.77,8.1.8,16.79-1,24.26-5.07,21-14.88,27.15-16,26.08s1.84-8.9,1.23-26.39a49.82,49.82,0,0,0-1.48-10,79,79,0,0,0-3.89-11.61c-.57-1.37-1.16-2.68-1.74-3.91" />
      <path class="BUNTAI_GOAT_BODY_BUNTAI_GOAT_BODY_44_cls-6" d="M336.55,213.73h0c3.46-.26,7.67-3,13.18-7.8-6.06.07-15.11-5.46-15.11-5.46" />
      <path class="BUNTAI_GOAT_BODY_BUNTAI_GOAT_BODY_44_cls-6" d="M280.11,199.4a16.25,16.25,0,0,0,12.19,2.77c7.36-1.22,11.13-2,15.8-.43" />
      <path class="BUNTAI_GOAT_BODY_BUNTAI_GOAT_BODY_44_cls-6" d="M280,199.33l0,0,0,0,0,0c.26.26,1.2,1.13,2.6,2.34a66,66,0,0,0,11.05,7.79c7.05,3.77,12.56,6.25,21.7,6.54" />
      <path class="BUNTAI_GOAT_BODY_BUNTAI_GOAT_BODY_44_cls-6" d="M282.71,201.74s5.29,26.53,7.64,37,2.87,34.67,9.72,46.23c-3.38-2.76-9.24-16.91-9.24-16.91s2.52,20.86,5.17,29.24c.17.51.33,1,.49,1.38" />
      <path class="BUNTAI_GOAT_BODY_BUNTAI_GOAT_BODY_44_cls-6" d="M277.78,278s.41,38.86-13.91,51.34c2.86-6.95,0-22.09,0-22.09" />
      <path class="BUNTAI_GOAT_BODY_BUNTAI_GOAT_BODY_44_cls-6" d="M190.91,328.92c-7.39-8.54-13.75-17.88-16.83-26.4-5.32-14.73-4.29-31.76-4.29-31.76s-5.53,11.1-4.91,15.4" />
      <path class="BUNTAI_GOAT_BODY_BUNTAI_GOAT_BODY_44_cls-6" d="M180.78,291.55s2.2,5.72,5.55,13.57c5.61,13.17,14.45,32.35,21.5,40.55a156.65,156.65,0,0,1-16.91-16.75" />
      <path class="BUNTAI_GOAT_BODY_BUNTAI_GOAT_BODY_44_cls-6" d="M168.35,297.92s6.06,25.39,22.56,31h0" />
      <path class="BUNTAI_GOAT_BODY_BUNTAI_GOAT_BODY_44_cls-6" d="M186.33,305.12s-2.44-18.76.63-37.17" />
      <path class="BUNTAI_GOAT_BODY_BUNTAI_GOAT_BODY_44_cls-6" d="M283.6,144.47a145.44,145.44,0,0,1,14.42,6" />
      <line class="BUNTAI_GOAT_BODY_BUNTAI_GOAT_BODY_44_cls-6" x1="314.93" y1="159.22" x2="317.86" y2="161.22" />
      <path class="BUNTAI_GOAT_BODY_BUNTAI_GOAT_BODY_44_cls-6" d="M212.38,195s6.59,19.41,8.13,26.92L222,229.4" />
      <path class="BUNTAI_GOAT_BODY_BUNTAI_GOAT_BODY_44_cls-6" d="M190.67,165.89s-4.75,11.12-5.14,15.65" />
      <path class="BUNTAI_GOAT_BODY_BUNTAI_GOAT_BODY_44_cls-6" d="M211.09,148.07s-6.23-14.39-7.3-17.76c-.72-2.24-3.58-4.54-6.06-7.14a17,17,0,0,1-3.15-4.22c-2.14-4.44-10.58-5.21-12.27-7.36a7.8,7.8,0,0,0-3.65-1.92c-3.26-1-7.74-1.39-10.22-.69-3.14.9-3.77.52-6.46.72-.54,0-1.17.1-1.91.2-3.51.49-13.62,3.54-19,7.59a11.34,11.34,0,0,0-2.73,2.72,6.08,6.08,0,0,0-.42.74c-2.65,5.67-3.78,4.45-5.59,6.59s-4.27,15.34-5.19,16.88a10.43,10.43,0,0,0-1.07,8.13c.72,2.18.47,5.64.75,9a17.73,17.73,0,0,0,.93,4.71c1.69,4.49,4.61,9.09,6.14,11.85" />
      <path class="BUNTAI_GOAT_BODY_BUNTAI_GOAT_BODY_44_cls-6" d="M263.26,148.1s4-8.13,4.95-13.35c3.53-6.75,5.63-10,6.19-12h0c5-8,6.49-8.12,9.2-10.12a14.2,14.2,0,0,1,6-2.5,9,9,0,0,1,1.25-.1c1.49,0,7.32-.92,11.3-.77a11,11,0,0,1,3.2.81c4.9,1.84,12.19,6.25,14.55,7.47a8.23,8.23,0,0,1,2.2,2.32c3.62,5,9,16,9.51,19.47.61,4.29-.46,10.12,0,14.11a56.41,56.41,0,0,1,0,7.86c-.23,4.49-.77,9.34-1.58,11.31A13.22,13.22,0,0,1,327,177a13.52,13.52,0,0,1-1.39,1.17" />
      <path class="BUNTAI_GOAT_BODY_BUNTAI_GOAT_BODY_44_cls-6" d="M280.13,161.44a69.41,69.41,0,0,1,5.3,8.09l0,0" />
      <path class="BUNTAI_GOAT_BODY_BUNTAI_GOAT_BODY_44_cls-6" d="M191.29,131.38a26.4,26.4,0,0,0,6.44-8.21c2.07-4.6,2.15-11.43,2.15-11.43" />
      <path class="BUNTAI_GOAT_BODY_BUNTAI_GOAT_BODY_44_cls-6" d="M166.31,93.69s10.38,7.22,12.35,16h0c2.27,4.67,3.4,7.54,2.89,8.76s1.25,5.46-.2,7.64" />
      <path class="BUNTAI_GOAT_BODY_BUNTAI_GOAT_BODY_44_cls-6" d="M159.15,106.76A14.49,14.49,0,0,1,162,109.7a11.22,11.22,0,0,1,2.31,6" />
      <path class="BUNTAI_GOAT_BODY_BUNTAI_GOAT_BODY_44_cls-6" d="M131.46,117.88a18.74,18.74,0,0,1,6.83,2.33,8.54,8.54,0,0,1,4,4.88" />
      <path class="BUNTAI_GOAT_BODY_BUNTAI_GOAT_BODY_44_cls-6" d="M143.81,121.48a30.21,30.21,0,0,0-2.79-4,8.19,8.19,0,0,0-2-1.83" />
      <path class="BUNTAI_GOAT_BODY_BUNTAI_GOAT_BODY_44_cls-6" d="M133.23,135.44s11.26,3.19,13.83,7.58" />
      <path class="BUNTAI_GOAT_BODY_BUNTAI_GOAT_BODY_44_cls-6" d="M121.31,169.78s.82-.41,2-3.27.59-4,2.24-4.5c.36-.11.75-.25,1.17-.41a39.53,39.53,0,0,1,6.46-1.95" />
      <path class="BUNTAI_GOAT_BODY_BUNTAI_GOAT_BODY_44_cls-6" d="M133.58,190.85s-1-7.43,1.13-10.52c.27-.39.56-.76.86-1.13a18.24,18.24,0,0,1,5.55-4.72c.95-.3,9.74-1,9.74-1" />
      <path class="BUNTAI_GOAT_BODY_BUNTAI_GOAT_BODY_44_cls-6" d="M151.2,183.08s-6,11.74,5.91,17.89" />
      <path class="BUNTAI_GOAT_BODY_BUNTAI_GOAT_BODY_44_cls-6" d="M159.1,179.58s.59,11.33,10.82,13.09h0" />
      <path class="BUNTAI_GOAT_BODY_BUNTAI_GOAT_BODY_44_cls-6" d="M164.21,170.58a1.46,1.46,0,0,0,.15.75c.31.72,1.22,1.87,3.79,3.15" />
      <path class="BUNTAI_GOAT_BODY_BUNTAI_GOAT_BODY_44_cls-6" d="M160,162s2.71,0,3-4.32" />
      <path class="BUNTAI_GOAT_BODY_BUNTAI_GOAT_BODY_44_cls-6" d="M151.63,154.39a7.91,7.91,0,0,1,2,7.62" />
      <path class="BUNTAI_GOAT_BODY_BUNTAI_GOAT_BODY_44_cls-6" d="M287.86,126a29.3,29.3,0,0,1,1.08-13.87c.23-.72.43-1.36.62-1.93,1.85-5.6,2.06-4.56,3.73-7.7,1.85-3.45,3.23-7.21,7.21-8.2" />
      <path class="BUNTAI_GOAT_BODY_BUNTAI_GOAT_BODY_44_cls-6" d="M279.73,131s-3.91-3.87-5.33-8.22c-.09-.3-.17-.59-.24-.89-1.11-4.7-1.27-7.08-2-9.76s.54-6.29.54-6.29" />
      <path class="BUNTAI_GOAT_BODY_BUNTAI_GOAT_BODY_44_cls-6" d="M311.32,107.14a11.85,11.85,0,0,0-6,3A12.89,12.89,0,0,0,302,115" />
      <path class="BUNTAI_GOAT_BODY_BUNTAI_GOAT_BODY_44_cls-6" d="M315.75,143.42s1.89-4.47,9.73-6.65" />
      <path class="BUNTAI_GOAT_BODY_BUNTAI_GOAT_BODY_44_cls-6" d="M320.29,122.41a4.62,4.62,0,0,1,1.77-2.52A10.07,10.07,0,0,1,327,118" />
      <path class="BUNTAI_GOAT_BODY_BUNTAI_GOAT_BODY_44_cls-6" d="M325.48,159.65a13.66,13.66,0,0,1,6.13,1.68,9.34,9.34,0,0,1,4.28,5.24" />
      <path class="BUNTAI_GOAT_BODY_BUNTAI_GOAT_BODY_44_cls-6" d="M312.24,173.75A16,16,0,0,1,327,177" />
      <path class="BUNTAI_GOAT_BODY_BUNTAI_GOAT_BODY_44_cls-6" d="M311.3,201.74s.63-5,2-10.59,3.47-5.3,1.16-8.16" />
      <path class="BUNTAI_GOAT_BODY_BUNTAI_GOAT_BODY_44_cls-6" d="M302,174.13h0c-.07.21-1.15,3-6.52.55" />
      <path class="BUNTAI_GOAT_BODY_BUNTAI_GOAT_BODY_44_cls-6" d="M303.5,154.29s-3.35,4.17,2,7.48" />
      <path class="BUNTAI_GOAT_BODY_BUNTAI_GOAT_BODY_44_cls-6" d="M138.37,195.42a147.39,147.39,0,0,0-6.77,14.11A100,100,0,0,0,126,226.62a47.76,47.76,0,0,0-1.08,7.53c-.35,6.37-.69,10.95-.56,14.78.21,6.14,1.64,10.37,6.14,17" />
      <path class="BUNTAI_GOAT_BODY_BUNTAI_GOAT_BODY_44_cls-6" d="M319.6,264.07a173.26,173.26,0,0,0,5.87-17,63.94,63.94,0,0,0,2.22-10.84,28.1,28.1,0,0,0-.29-8.06c-.77-4.09-2.22-6.21-1.38-10.31.3-1.5.52-2.86.65-4.1.42-3.84,0-6.54-1.19-8.63-1.58-2.76-5-7.32-5-7.32" />
      <path class="BUNTAI_GOAT_BODY_BUNTAI_GOAT_BODY_44_cls-6" d="M123,201.74a83,83,0,0,0,7,6.68c.59.42,1.12.79,1.65,1.11a15.29,15.29,0,0,0,5.41,1.86" />
      <path class="BUNTAI_GOAT_BODY_BUNTAI_GOAT_BODY_44_cls-6" d="M121.06,223a13.54,13.54,0,0,0,5,3.66,13.17,13.17,0,0,0,7.91.78" />
      <path class="BUNTAI_GOAT_BODY_BUNTAI_GOAT_BODY_44_cls-6" d="M122,248.78a6,6,0,0,0,2.35.15,6.2,6.2,0,0,0,4.8-3.58" />
      <path class="BUNTAI_GOAT_BODY_BUNTAI_GOAT_BODY_44_cls-6" d="M313.71,212.15h0c.3.15,5.59,2.86,9.77,2.38a14.46,14.46,0,0,0,3.18-.75c2.92-1,5.2-2.67,5.51-3.21" />
      <path class="BUNTAI_GOAT_BODY_BUNTAI_GOAT_BODY_44_cls-6" d="M321.44,227.15a30.35,30.35,0,0,0,6,1c2.12.13,4.32,0,5.7-1" />
      <path class="BUNTAI_GOAT_BODY_BUNTAI_GOAT_BODY_44_cls-6" d="M328.4,247a5.4,5.4,0,0,1-2.93.11,1.92,1.92,0,0,1-1.57-2.17" />
      <path class="BUNTAI_GOAT_BODY_BUNTAI_GOAT_BODY_44_cls-6" d="M155.19,265.42h0c-.19.5-6.45,16.43-10.38,22.49l4.37-1.06s-3.81,9.44-5.84,11.29" />
      <path class="BUNTAI_GOAT_BODY_BUNTAI_GOAT_BODY_44_cls-6" d="M166.79,219s-6.18,27.49-14.33,47.26l2.72-.85" />
      <path class="BUNTAI_GOAT_BODY_BUNTAI_GOAT_BODY_44_cls-6" d="M295.87,298.15c4.71,10.35,15.6,26.5,33.39,38.81l-3.6.05,24.08,18.69-2.8.11c6.67,4,9.93,14,11.26,23.55s-.24,14.34,4.63,28.24c-.79.27-1.47-.22-3-1.36,4,11.65,8.94,28.3,10.56,43.46H44.73c2.13-15.16,8.73-31.81,14-43.46-2.07,1.14-3,1.63-4,1.36,6.46-13.9,4.4-18.87,6.13-28.24s6.09-19.59,14.91-23.55L72,355.7,103.9,337,99.13,337c23.56-12.31,38-28.46,44.2-38.81" />
      <path class="BUNTAI_GOAT_BODY_BUNTAI_GOAT_BODY_44_cls-6" d="M121.35,362s-37.4,61.87,5,95.42" />
      <path class="BUNTAI_GOAT_BODY_BUNTAI_GOAT_BODY_44_cls-6" d="M109.59,366s-2.67,17.88,0,24.32" />
      <path class="BUNTAI_GOAT_BODY_BUNTAI_GOAT_BODY_44_cls-6" d="M315,362s37.4,61.87-5,95.42" />
      <path class="BUNTAI_GOAT_BODY_BUNTAI_GOAT_BODY_44_cls-6" d="M326.79,366s2.67,17.88,0,24.32" />
      <path class="BUNTAI_GOAT_BODY_BUNTAI_GOAT_BODY_44_cls-7" d="M197,174.64c-6-1.81-11.51,6.9-11.51,6.9,2.86-.15,4.17,5.73,8.59,7.87s9.82-1.17,15.44,0C204.86,185.94,203.89,176.69,197,174.64Z" />
      <path class="BUNTAI_GOAT_BODY_BUNTAI_GOAT_BODY_44_cls-7" d="M274.47,174.64c-6.85,2.05-7.82,11.3-12.53,14.77,5.63-1.17,11,2.15,15.45,0s2.21-8,5.07-7.87C282.46,181.54,280.49,172.83,274.47,174.64Z" />
      <g class="BUNTAI_GOAT_BODY_BUNTAI_GOAT_BODY_44_cls-8">
        <circle class="BUNTAI_GOAT_BODY_BUNTAI_GOAT_BODY_44_cls-9" cx="197.88" cy="180.2" r="7.18" />
        <circle class="BUNTAI_GOAT_BODY_BUNTAI_GOAT_BODY_44_cls-10" cx="197.88" cy="180.2" r="7.18" />
        <path d="M197.28,183.65a6.21,6.21,0,0,1-4.91-2.23.88.88,0,0,1,1.41-1c.09.12,2,2.57,6.18,1a.87.87,0,0,1,1.13.5.88.88,0,0,1-.5,1.14A9.22,9.22,0,0,1,197.28,183.65Z" />
      </g>
      <path class="BUNTAI_GOAT_BODY_BUNTAI_GOAT_BODY_44_cls-1" d="M185.53,181.54s5.48-8.71,11.51-6.9c6.85,2.05,7.82,11.3,12.52,14.77-5.62-1.17-11,2.15-15.44,0S188.39,181.39,185.53,181.54Z" />
      <g class="BUNTAI_GOAT_BODY_BUNTAI_GOAT_BODY_44_cls-11">
        <circle class="BUNTAI_GOAT_BODY_BUNTAI_GOAT_BODY_44_cls-12" cx="272.2" cy="180.2" r="7.18" />
        <circle class="BUNTAI_GOAT_BODY_BUNTAI_GOAT_BODY_44_cls-1" cx="272.2" cy="180.2" r="7.18" />
        <path d="M273.49,183.15a6.24,6.24,0,0,1-5.34-.73.88.88,0,0,1-.17-1.23.87.87,0,0,1,1.22-.18c.12.09,2.69,1.88,6.2-.84a.88.88,0,0,1,1.23.16.87.87,0,0,1-.16,1.23A9.08,9.08,0,0,1,273.49,183.15Z" />
      </g>
      <path class="BUNTAI_GOAT_BODY_BUNTAI_GOAT_BODY_44_cls-1" d="M282.46,181.54s-2-8.71-8-6.9c-6.85,2.05-7.82,11.3-12.53,14.77,5.63-1.17,11,2.15,15.45,0S279.6,181.39,282.46,181.54Z" />
      <path d="M264.25,244.64c1,0,1.33,1.38,1.33,1.38a13.64,13.64,0,0,0-2.32,3.37c-.82,1.82-1.57,3.71-1.57,3.71a54.68,54.68,0,0,1-4.46,3.4c.09-.23,1.61-3.88,2.94-6.55S263.26,244.64,264.25,244.64Z" />
      <path d="M245.7,250c1.71,2.67,3.67,6.32,3.79,6.55a22.7,22.7,0,0,1-2.55-1.4l-.08,0c-.35-.24-.7-.45-1.05-.65l-.11-.06c-1.08-.67-1.95-1.24-1.95-1.24s-1-1.89-2-3.71a14.47,14.47,0,0,0-3-3.37,2,2,0,0,1,1.71-1.38C241.73,244.64,243.94,247.19,245.7,250Z" />
      <path d="M246.86,255.05l-1.05-.65C246.16,254.6,246.51,254.81,246.86,255.05Z" />
      <g class="BUNTAI_GOAT_BODY_BUNTAI_GOAT_BODY_44_cls-13">
        <path d="M222.44,137.15a12.34,12.34,0,0,1-1.53-3.67c-.81-2.77-3.58-3-4.09-6.24s-.71-2.76-2.14-5.12-3.48-4.29-5.63-8.38-11.15-7.77-13.8-9-.8-2.86-7.15-3.38-7.48-1.73-11.67-2.14-14.52,5.11-17.59,5.11-4.6,1.94-6.85,3-5.93,1.63-7.16,2.55-2.05-.2-5,2.56S134,122.84,131.94,124,124.27,130,121,132s-6.36,9.06-6.36,9.06-1.25,9.15-.59,15.28-.77,7.26,1.48,14.22,10,13.62,13.39,16.55,10.39,10.8,14.48,12.64,12,4.61,21.06-2.45,10.59-12.17,12-16.57,1-15.24-.1-17.89-2.66-6.34-2.66-6.34-3.5-5.68-5.33-6.6-8-2.05-11.14-1.28-6.72,4-6.72,4l-2,2.6-.1,4.5.71,5.11a10.75,10.75,0,0,0,3.79-2.35c1.23-1.43,4.6-1.84,6.9-.21s3.07,4.35,3.89,7-.62,7.92-1.79,8.41l-1.18.48s-11.53-5.57-13.23-8-3.9-7.78-3.9-11.61,2.81-17.49,7.88-23.32,12.79-10.79,19-10.68,14.83,2,18.1,4.7,7.17,6.39,7.37,8.46,2.48,5.71,2.48,5.71a13.25,13.25,0,0,0,1.09,2.63c.26.07,5.8,3.95,11.42,1.73s6.73-6.19,7.3-6.36S222.44,137.15,222.44,137.15Z" />
        <path d="M247,128.77s12.08,18.61,15.61,19.43,8.23-1,9-1.66,2.36-2.07,2.36-2.07,1-12.68,10.13-16.31,11.22-4,16.67-1.89,10.4,7.64,12.14,11a76.57,76.57,0,0,1,3.3,7.49s3.21,12.68,1.66,18.06-4.41,12.67-8.65,13.5-5.22.92-5.22.92,1,4.08,8.71,5.08,13.6-.68,19.32-7.58,5.47-20.46,5.47-24.14.35-2.21-.44-6.83S331,124,329.52,121.61s-13.19-8.69-18.31-11.35-8.59-1.23-16.26-5-6.64-5.73-10.12-6.75-3.89-2.35-12.17-1.33-9.28,2.54-11.84,4.46-4,1.56-4.9,4.6-2.47,7.85-4.12,12.34A89.58,89.58,0,0,1,247,128.77Z" />
        <path d="M314.64,157.86s-4.42-5.78-9.1-6-8.59,11.2-8.8,18.56,5.58,10.79,6.75,13a9.76,9.76,0,0,0,5.32,4.71c2.2.76,3.59-.61,5.83-.33a18,18,0,0,0,5.84-.85s7.86-3.91,10.78-5.51,6.64-5.89,6.64-5.89a57.87,57.87,0,0,1,2.71-6.7c1.33-2.53,2-4.21,1.86-3.76a36.45,36.45,0,0,1-7.38,16.95,118.36,118.36,0,0,1-15.48,16.44c-2.16,1.92-5.48,4.22-9.88,3.2s-10.19-5.83-11.1-6.93-5.22-6.76-5.93-9.89-2.51-8.14-2.3-11.77,0-6.31.48-8,3.92-8.8,5.1-11.21,3.85-6,8-5.89,5.95,1.92,5.95,1.92l2.9,1.95A8,8,0,0,1,314.64,157.86Z" />
        <path d="M186.35,163.9,176.89,168s.87,9-.25,12.59-1.46,4.44-1.46,4.44l5.39-.8s1-3.36,1.23-3.94,1.17-3.14,1.17-3.14,2.67-7.62,2.87-9.05S186.35,163.9,186.35,163.9Z" />
        <polygon points="164.16 172.13 155.47 177.19 160.37 178.47 163.49 176.27 164.16 172.13" />
        <path d="M133.07,190.85s-12.4,21.06-13.61,39.06,7.77,35.88,10.69,35.73c1.49-.72,1.62-.84,1-4s-2.7-13.79-.24-23.31,4-16.75,9.95-25,8.35-11.61,8.35-11.61-7.37-2.15-10.84-5.42A72.84,72.84,0,0,1,133.07,190.85Z" />
        <path d="M283.6,158.53l7.93,7s.27,16.69,1.07,19c-3.72-2-6.24-3.27-6.24-3.27a18.24,18.24,0,0,0,.39-7.39c-.64-4-1.31-6.77-1.31-6.77A19.67,19.67,0,0,1,283.6,158.53Z" />
        <path d="M320.48,197.82s13,34-.88,66.25c.64-8.83,1.7-21.06.95-29.86s-6.17-20.8-6.17-20.8l-6.13-12.14a8.82,8.82,0,0,0,7.2-.46A40.26,40.26,0,0,0,320.48,197.82Z" />
        <path d="M181.2,185.07l3.07,3.91a92.25,92.25,0,0,1-14,9.23,108.48,108.48,0,0,0-11.35,6.49l-13.72,3,4.21-6.63s6.84,2,14.29-3.37,8.93-7.88,8.93-7.88,3.06-5.31,2.68-5.11a47.22,47.22,0,0,0,4.94-.35Z" />
        <path d="M187,197.64s-3.19,10.36-13,10.17a78.22,78.22,0,0,0-23.47,3.58,111,111,0,0,1,18.24-1.32s-10.13,5.06-19.86,5.06c11.28.92,18-.84,18-.84s-9.12,4.83-9.74,5.06,10.1-1.26,14.93-4A54.69,54.69,0,0,0,177.7,212s2-2.55,5.58-6.57,4.91-5.59,4.63-5.89A12.69,12.69,0,0,1,187,197.64Z" />
        <path d="M293.41,202a87.46,87.46,0,0,1,11.08,4.71c6.06,3.06,7.75,4.9,7.75,4.9s-2.61-2.56-10-4.8c3.76,2.12,5.42,3.19,5.42,3.19s-3.73-1.68-9-4c4,3,13,8.59,13,8.59s-14.11-7.44-15.72-8.21-2.92-1.3-2.92-1.3,5.91,5.31,10,8.64c-11.56-5.51-17.09-10.13-19-11.61s-3.81-2.72-3.81-2.72a41.75,41.75,0,0,0,3.17-7.07,35.27,35.27,0,0,0,.81-6l1.65-2.65,1.46-1.62,4.95,2.72s2.34,7,7.8,11.4,5.68,4.21,5.45,4.36S300.54,201.81,293.41,202Z" />
        <path d="M347.79,206.35c-.2,0-12.55-1-12.55-1l-1-4.45,6.59,3.38Z" />
        <path d="M277.77,282.7s-3.5,20.64-5.8,25-4.14,5.21-4.14,5.21l-3-3.53s1.38,11.66-1.31,19c4.22-2.84,9.09-9,10.83-18.91S277.77,282.7,277.77,282.7Z" />
        <path d="M196.65,251.26s-4.29,13.42-2.3,27.23C192,269.2,191.67,268,191.67,268s-2.23,9,2.49,25.72,11.11,35.54,11.72,40.86L197,313.66s5.42,22.5,10.84,32,9.51,17.79,9.51,17.79l-8.22-11.77-36-32.38L157,304l-9.16-6.67-5.53,1.05s5.13-5,6.45-11.81l-3.5.83s6.63-11.59,10-21.95l-2.73.86s4.32-11.32,7.65-22.45,6.57-24.77,6.57-24.77a27.94,27.94,0,0,0,11.81-7.75,110.73,110.73,0,0,0,10-12.39s.25,5.22-1.69,14.47-4.49,13.7-4.49,13.7L188,221l.14,8,2.81.41A31.85,31.85,0,0,0,192,239.83a54.57,54.57,0,0,1,1.79,9.56s-.05,3.27,0,3.12,2.87-6.34,2.77-6.19S196.65,251.26,196.65,251.26Z" />
        <path d="M220.07,360.67s-3.4-8.25-8.62-38.16c9.05,27.15,17.89,43.15,27.28,51.16Z" />
        <path d="M196.88,237.94a21.77,21.77,0,0,0-2.2,7.62c-.25,3.93-.47,6.06-.47,6.06s3.34-6.24,3.34-6.84S196.88,237.94,196.88,237.94Z" />
        <polygon points="287.32 249.49 296.66 276.71 296.31 278.24 290.83 268.02 287.32 249.49" />
        <path d="M284.17,302.14S276,325,271.33,337s-4.57,13.72-4.57,13.72l17.64-35.81Z" />
        <path d="M290.61,315s-1.69-12.62-5.47-34.41l-3.79-21.78s6.7,28.53,9.08,34.87a64.39,64.39,0,0,1,3.15,11.08,51.57,51.57,0,0,0-1.4,5.13A34.51,34.51,0,0,1,290.61,315Z" />
        <path d="M272.67,237.85s-4.44,1.19-5.81.23c-7.85-5.2-15.83-4.85-21.15-2.14s-8.73,2.51-8.73,2.51a55.09,55.09,0,0,1-12.26-2.92c-5-2.07-19.54-8.13-23.92-13.34s-7.45-9.2-7.45-9.2l-.81,2.81s-3.87-6-4.4-12.17a154.24,154.24,0,0,1-5.34,22.43l5.15-4.38v10.9l2.8-5s1,12.83,2,16.26a33.73,33.73,0,0,1,1.16,6.75l.31,2.47,2.83-7.48s.57,11.71,2.38,15,1.19,1.07,1.19,1.07-.81-8.59.82-15c.92,9.25,3.12,17-1.17,25.29l8.23-13.33,2.58,7.78,1.77-8.7,2.21,8.66L218,273s-.3-7.12,1.3-7.08,5.61,2,5.61,2,6.08,7.67,9.86,11.1,10.74,5.26,15.34,5,7.89-1.5,12-7.14,5.46-7.36,5.46-7.36-.16-1.35-.16-1.56,3.28-2.71,4.35-6,3.48-15.44,3.53-15.7,4.2-16.36,4.71-22.39C277.06,233.9,277.38,237.05,272.67,237.85Z" />
        <path d="M262.14,276.92s-7.07,9.13-11.11,12.35S241,305.18,239.94,308.76v-7.37s-2.46,12.93-5.53,19.66l-3.07,6.73s-7.15-13.14-9.81-22.22c.61,9.23.92,12.3.92,12.3s-10.28-6.65-15.11-15.65S198,279.8,197,270.76l1.44,19.08s-4.74-17-4.21-31c.93-11.25,2.06-13.86,2.06-13.86l11,1.79s5.12,3.28,6.7,5.68,6.9,7,6.9,7a117.48,117.48,0,0,0,12.68,12.63c7.93,6.86,10,8.39,11.41,8.85s4.19,1.89,7.46,1.12S262.14,276.92,262.14,276.92Z" />
        <path d="M248,128.54s-15.6-.82-17.1.23a16.36,16.36,0,0,1-2.44,1.46l-.56,1.15S220,114,219.05,112.28s-1.23-3.07-2.46-4.83-8.1-4.6-8.1-4.6-4.25-1.84-6.16-4.3-8.29-4.22-8.75-4.45S181,91,181,91l-3.07-1.83A31.67,31.67,0,0,1,190.32,91c6.67,2.35,10.08,3.45,14.3,5.81s6.94,3.63,9.06,4.64a46.5,46.5,0,0,1,5.19,2.9c1.1.73,1.61,3.38,2.73,5.55s6.19,13.44,6.19,13.44l2,2.75s8.83-1.43,12.82-1.1,6.74.46,6.74.46Z" />
        <path d="M199.87,144.42S188,148,186.45,149.13c-3.27.81-2.29,1.32-4.52,2.14S176,153,176,153l-4.39,1.38-4.1-4s8.67-3.62,12.69-4.65a44.13,44.13,0,0,1,7.1-1.34,5.79,5.79,0,0,0,1.13-.31l9.1-5.42Z" />
        <path d="M187.32,182.28a22.94,22.94,0,0,1,2.81,5.86c.85,3,2.37,6.13,6.86,6.59s6.56-5.26,12.32-5.32c-7.92.37-8.87,1.33-11.76,1a8.22,8.22,0,0,1-4.41-1.59A27.71,27.71,0,0,1,190.9,187C190.75,186.75,188.87,182.63,187.32,182.28Z" />
        <path d="M282.78,182.28a23.51,23.51,0,0,0-2.67,5.86c-.79,3-2.24,6.13-6.49,6.59s-6.22-5.27-11.68-5.32c7.51.37,8.41,1.33,11.15,1a7.48,7.48,0,0,0,4.17-1.59,27.64,27.64,0,0,0,2.13-1.87C279.53,186.75,281.31,182.63,282.78,182.28Z" />
        <path d="M212.37,195.43a62.89,62.89,0,0,0,0,11c.57,5.11,2,12.06,2.1,13s7.38,9.09,7.38,9.09S217.44,205.34,212.37,195.43Z" />
        <path d="M182.49,178.47a8.33,8.33,0,0,0,3,7.52c2.61,6.34,7.16,12.88,15,16.21-4.65-.57-6-2-6-2s-2.4,14.69,9.82,25.12c-7.21,4.69-10.5-1.65-10.5-1.65l-6.58-13.9.63-11.1-1.6-3.12L183,187.42l-2.26-3.27V182Z" />
        <path d="M281.66,195s-3.58,5.93-7.16,7.16c4-.72,5.6-2,5.6-2Z" />
        <path d="M218.8,374c-7.24-12.25-24.13-28.36-24.13-28.36s-14.22-11.19-22.25-6.42S152,356.5,142.94,367.33c-6,7.14-16.62,10.79-23.68,14.25A36.25,36.25,0,0,1,121.35,362c-3.89,4.83-9.92,22.9-9.92,22.9s-6.52,16.72-5.3,33.67c1.06,14.75,9,27.39,11.05,30.42l-.4.69H45.19a221.83,221.83,0,0,1,5.61-23.78,124.68,124.68,0,0,1,7.67-19.14l-3.67,1.15s3.85-9,4.49-15.09a123.13,123.13,0,0,1,4.14-22.46C65.87,362.27,74.2,356,74.2,356L72,355.7s10.28-6.49,21.23-12.2,9.44-6.5,9.44-6.5l-3.12-.27c16-8.52,30.61-22.61,36.32-28.44a46.29,46.29,0,0,0,8.24-11.12l7.87-3.35L191.64,326l11.28,20.14S207,353.35,218.8,374Z" />
        <path d="M327.18,369.06s2.75,14.26-.86,21.29c3.32,14.18,8.74,30.78-3.67,52.93,17.42-20,13.11-33.55,13.11-33.55s-3.38-16.07-3.38-20.38S329.55,374.87,327.18,369.06Z" />
        <path d="M317.82,366s7.7,17.05,9,24.32C326.32,375,324.11,368.69,317.82,366Z" />
      </g>
    </g>
  </g>
</svg>