<svg id="jewelry" xmlns="http://www.w3.org/2000/svg" viewBox="0 0 432 432">
  <defs>
    <style>.GUNDAN_DESERT_FOX_JEWELRY_DESERT_FOX_JEWELLERY_22_cls-1{fill:#afafaf;}.GUNDAN_DESERT_FOX_JEWELRY_DESERT_FOX_JEWELLERY_22_cls-2{fill:#494949;}.GUNDAN_DESERT_FOX_JEWELRY_DESERT_FOX_JEWELLERY_22_cls-3{fill:#8c8c8c;}.GUNDAN_DESERT_FOX_JEWELRY_DESERT_FOX_JEWELLERY_22_cls-13,.GUNDAN_DESERT_FOX_JEWELRY_DESERT_FOX_JEWELLERY_22_cls-14,.GUNDAN_DESERT_FOX_JEWELRY_DESERT_FOX_JEWELLERY_22_cls-4,.GUNDAN_DESERT_FOX_JEWELRY_DESERT_FOX_JEWELLERY_22_cls-5,.GUNDAN_DESERT_FOX_JEWELRY_DESERT_FOX_JEWELLERY_22_cls-8{fill:none;stroke:#000;stroke-linecap:round;}.GUNDAN_DESERT_FOX_JEWELRY_DESERT_FOX_JEWELLERY_22_cls-13,.GUNDAN_DESERT_FOX_JEWELRY_DESERT_FOX_JEWELLERY_22_cls-4,.GUNDAN_DESERT_FOX_JEWELRY_DESERT_FOX_JEWELLERY_22_cls-5,.GUNDAN_DESERT_FOX_JEWELRY_DESERT_FOX_JEWELLERY_22_cls-8{stroke-linejoin:round;}.GUNDAN_DESERT_FOX_JEWELRY_DESERT_FOX_JEWELLERY_22_cls-4{stroke-width:0.4px;}.GUNDAN_DESERT_FOX_JEWELRY_DESERT_FOX_JEWELLERY_22_cls-5{stroke-width:0.38px;}.GUNDAN_DESERT_FOX_JEWELRY_DESERT_FOX_JEWELLERY_22_cls-6{fill:#686868;}.GUNDAN_DESERT_FOX_JEWELRY_DESERT_FOX_JEWELLERY_22_cls-7{fill:#a3a3a3;}.GUNDAN_DESERT_FOX_JEWELRY_DESERT_FOX_JEWELLERY_22_cls-8{stroke-width:0.72px;}.GUNDAN_DESERT_FOX_JEWELRY_DESERT_FOX_JEWELLERY_22_cls-9{fill:#24133f;}.GUNDAN_DESERT_FOX_JEWELRY_DESERT_FOX_JEWELLERY_22_cls-10{fill:#583c82;}.GUNDAN_DESERT_FOX_JEWELRY_DESERT_FOX_JEWELLERY_22_cls-11{fill:#9568dd;}.GUNDAN_DESERT_FOX_JEWELRY_DESERT_FOX_JEWELLERY_22_cls-12{fill:#e3a92b;}.GUNDAN_DESERT_FOX_JEWELRY_DESERT_FOX_JEWELLERY_22_cls-13{stroke-width:1.88px;}.GUNDAN_DESERT_FOX_JEWELRY_DESERT_FOX_JEWELLERY_22_cls-14{stroke-miterlimit:10;stroke-width:1.62px;}</style>
  </defs>
  <path d="M170.57,318.85l.22-2.11a2.78,2.78,0,0,0-2.22,1" />
  <path class="GUNDAN_DESERT_FOX_JEWELRY_DESERT_FOX_JEWELLERY_22_cls-1" d="M202.14,342.18s-1.48-.91-2.76-1.51c0,0,0,0,0,0a1.68,1.68,0,0,0,.53-.53,1.64,1.64,0,0,0,.25-.6,9.07,9.07,0,0,1,1.95.93,5.67,5.67,0,0,1,.58.45A1.89,1.89,0,0,0,202.14,342.18Z" />
  <path class="GUNDAN_DESERT_FOX_JEWELRY_DESERT_FOX_JEWELLERY_22_cls-1" d="M194,338.76a6,6,0,0,0,3.89,1.29h0a1,1,0,0,0,.75-.4.87.87,0,0,0,.18-.54h.06s.58.17,1.28.42a1.64,1.64,0,0,1-.25.6,1.68,1.68,0,0,1-.53.53s0,0,0,0a4.13,4.13,0,0,1-3.47.21c-1.72-.57-3-1.32-3.08-2.28a1.92,1.92,0,0,1,.55-1.29,3.24,3.24,0,0,1,.59.56.8.8,0,0,0-.1.55A.88.88,0,0,0,194,338.76Z" />
  <path class="GUNDAN_DESERT_FOX_JEWELRY_DESERT_FOX_JEWELLERY_22_cls-1" d="M171.9,321.68a.78.78,0,0,1-.29.44,1.69,1.69,0,0,1-1.49.42.87.87,0,0,1,.06-.37,1,1,0,0,1,.39-.47h0a2.94,2.94,0,0,0-.2-.73,2.55,2.55,0,0,0-1.19,1s-.31-.53-.74-1.18h0c-.54-1-.46-2.82.85-3.37h0c1.33-.59,1.14,1.3,1.2,1.37a5.62,5.62,0,0,1,1.24,1.86A1.61,1.61,0,0,1,171.9,321.68Z" />
  <path class="GUNDAN_DESERT_FOX_JEWELRY_DESERT_FOX_JEWELLERY_22_cls-2" d="M171.89,321.68a1.6,1.6,0,0,0-.16-1.06,6,6,0,0,1,3.09,1.91,3.19,3.19,0,0,1,.67,1.65l-.14-.09a3,3,0,0,0-1.29-.47A4.48,4.48,0,0,0,171.89,321.68Z" />
  <path class="GUNDAN_DESERT_FOX_JEWELRY_DESERT_FOX_JEWELLERY_22_cls-1" d="M169.17,322a2.55,2.55,0,0,1,1.19-1,2.79,2.79,0,0,1,.21.73h0a1,1,0,0,0-.39.48.8.8,0,0,0-.06.36,4.82,4.82,0,0,0,2.26,2.48,1.42,1.42,0,0,0,1.31.05,1.57,1.57,0,0,0,.36-.29c.11.05.59.29,1.13.61a2.28,2.28,0,0,1-.64.59,2.35,2.35,0,0,1-.63.27,3.57,3.57,0,0,1-3.28-1.06C169.43,324,168.72,322.85,169.17,322Z" />
  <path class="GUNDAN_DESERT_FOX_JEWELRY_DESERT_FOX_JEWELLERY_22_cls-1" d="M173.91,326.25a2.35,2.35,0,0,0,.63-.27,2.28,2.28,0,0,0,.64-.59h0a7.57,7.57,0,0,1,1.68,1.21c.2.21.35.38.47.53a2.07,2.07,0,0,0-.84,1.19h0A27.49,27.49,0,0,0,173.91,326.25Z" />
  <path class="GUNDAN_DESERT_FOX_JEWELRY_DESERT_FOX_JEWELLERY_22_cls-3" d="M173.69,325.07a1.42,1.42,0,0,1-1.31-.05.61.61,0,0,1,0-.65,1.75,1.75,0,0,1,1.66-.75,3,3,0,0,1,1.29.47l.14.09h0a14.73,14.73,0,0,1,3.06,2.31,1.72,1.72,0,0,1,.51.95.72.72,0,0,1-.14.49,1.6,1.6,0,0,1-1.33.72.73.73,0,0,1,0-.35.89.89,0,0,1,.22-.54h0a2.6,2.6,0,0,0-.43-.64c-.12-.15-.27-.32-.47-.53a7.57,7.57,0,0,0-1.68-1.21h0c-.54-.32-1-.56-1.13-.61A1.57,1.57,0,0,1,173.69,325.07Z" />
  <path class="GUNDAN_DESERT_FOX_JEWELRY_DESERT_FOX_JEWELLERY_22_cls-2" d="M186.73,332.87a1.6,1.6,0,0,0-.41-1h0a6.66,6.66,0,0,1,3.5,1.36,3.47,3.47,0,0,1,1.06,1.5l-.17-.07a3.32,3.32,0,0,0-1.38-.25A5.13,5.13,0,0,0,186.73,332.87Z" />
  <path class="GUNDAN_DESERT_FOX_JEWELRY_DESERT_FOX_JEWELLERY_22_cls-2" d="M181.68,328.7a5.34,5.34,0,0,0-2.61-1.25,1.72,1.72,0,0,0-.51-.95,6.87,6.87,0,0,1,3.63,1.12,3.09,3.09,0,0,1,1.29,1.75l-.12-.09A2.53,2.53,0,0,0,181.68,328.7Z" />
  <path class="GUNDAN_DESERT_FOX_JEWELRY_DESERT_FOX_JEWELLERY_22_cls-1" d="M182,331.55a4.22,4.22,0,0,1-3.05-.48c-1.54-.84-2.62-1.79-2.46-2.75a2.07,2.07,0,0,1,.84-1.19,2.6,2.6,0,0,1,.43.64h0a.89.89,0,0,0-.22.54.73.73,0,0,0,0,.35,5.61,5.61,0,0,0,3.13,1.89h0a1.36,1.36,0,0,0,1.17-.28.87.87,0,0,0,.24-.32c.22.14.65.41,1.11.73h0a2.65,2.65,0,0,1-.21.26A2.25,2.25,0,0,1,182,331.55Z" />
  <path class="GUNDAN_DESERT_FOX_JEWELRY_DESERT_FOX_JEWELLERY_22_cls-3" d="M180.74,330.56h0c-.43-.4-.61-.79-.32-1.18a1.74,1.74,0,0,1,1.27-.67,2.53,2.53,0,0,1,1.68.58l.12.09h0a14,14,0,0,1,2.83,2.5h0a1.6,1.6,0,0,1,.41,1h0a.71.71,0,0,1-.18.47,1.64,1.64,0,0,1-1.38.65.79.79,0,0,1,0-.37.94.94,0,0,1,.27-.52,3,3,0,0,0-.38-.67c-.1-.16-.24-.35-.41-.57a6.87,6.87,0,0,0-1.37-1.18c-.46-.32-.89-.59-1.11-.73a.87.87,0,0,1-.24.32A1.36,1.36,0,0,1,180.74,330.56Z" />
  <path class="GUNDAN_DESERT_FOX_JEWELRY_DESERT_FOX_JEWELLERY_22_cls-1" d="M183.26,330.69a6.87,6.87,0,0,1,1.37,1.18c.17.22.31.41.41.57a2.29,2.29,0,0,0-.95,1.14,28.84,28.84,0,0,0-2.09-2,2.25,2.25,0,0,0,1-.6,2.65,2.65,0,0,0,.21-.26Z" />
  <path class="GUNDAN_DESERT_FOX_JEWELRY_DESERT_FOX_JEWELLERY_22_cls-1" d="M185.17,334a5.39,5.39,0,0,0,2.82,2.05,1.42,1.42,0,0,0,1.31-.16,1.08,1.08,0,0,0,.28-.34c.12,0,.65.18,1.27.41a2.25,2.25,0,0,1-.5.68,2.19,2.19,0,0,1-.56.35,3.77,3.77,0,0,1-3.5-.5c-1.46-.94-2.44-2-2.2-2.91a2.29,2.29,0,0,1,.95-1.14,3,3,0,0,1,.38.67.94.94,0,0,0-.27.52A.79.79,0,0,0,185.17,334Z" />
  <path class="GUNDAN_DESERT_FOX_JEWELRY_DESERT_FOX_JEWELLERY_22_cls-1" d="M192.8,336.86c.24.17.43.31.58.44h0a1.92,1.92,0,0,0-.55,1.29h0a31.19,31.19,0,0,0-3-1.6h0a2.19,2.19,0,0,0,.56-.35,2.25,2.25,0,0,0,.5-.68A8.61,8.61,0,0,1,192.8,336.86Z" />
  <path class="GUNDAN_DESERT_FOX_JEWELRY_DESERT_FOX_JEWELLERY_22_cls-3" d="M193.38,337.3c-.15-.13-.34-.27-.58-.44a8.61,8.61,0,0,0-2-.9c-.62-.23-1.15-.38-1.27-.41a1.08,1.08,0,0,1-.28.34,1.42,1.42,0,0,1-1.31.16.57.57,0,0,1-.13-.63,1.61,1.61,0,0,1,1.47-1,3.32,3.32,0,0,1,1.38.25l.17.07a27,27,0,0,1,3.58,1.75l.65.69a.87.87,0,0,1,.07.17.69.69,0,0,1,0,.49,1.49,1.49,0,0,1-1.15.92.88.88,0,0,1-.14-.34.8.8,0,0,1,.1-.55,3.24,3.24,0,0,0-.59-.56Z" />
  <path class="GUNDAN_DESERT_FOX_JEWELRY_DESERT_FOX_JEWELLERY_22_cls-2" d="M198.05,338.13a5.87,5.87,0,0,0-2.87-.78.87.87,0,0,0-.07-.17l-.65-.69a7.39,7.39,0,0,1,3.86.52,4.23,4.23,0,0,1,1.48,1.13,2.59,2.59,0,0,0-1.56-.08A.84.84,0,0,0,198.05,338.13Z" />
  <path class="GUNDAN_DESERT_FOX_JEWELRY_DESERT_FOX_JEWELLERY_22_cls-3" d="M197.9,340c-.55-.28-.85-.61-.69-1a1.5,1.5,0,0,1,.84-.84.84.84,0,0,1,.19-.07,2.59,2.59,0,0,1,1.56.08l.26.1.15.07h0a17,17,0,0,1,3.57,1.77h0a2,2,0,0,1,.72.86.75.75,0,0,1,0,.49,1.49,1.49,0,0,1-1.16.91.62.62,0,0,1-.14-.33.81.81,0,0,1,.1-.56h0a3.1,3.1,0,0,0-.58-.55,5.67,5.67,0,0,0-.58-.45,9.07,9.07,0,0,0-1.95-.93c-.7-.25-1.28-.42-1.28-.42h-.06a.87.87,0,0,1-.18.54,1,1,0,0,1-.75.4v0Z" />
  <path class="GUNDAN_DESERT_FOX_JEWELRY_DESERT_FOX_JEWELLERY_22_cls-2" d="M207.65,340.63a4,4,0,0,1,1.5,1.19l-.18,0a3.46,3.46,0,0,0-1.44.06,5.87,5.87,0,0,0-3-.91,2,2,0,0,0-.72-.86A7.38,7.38,0,0,1,207.65,340.63Z" />
  <path class="GUNDAN_DESERT_FOX_JEWELRY_DESERT_FOX_JEWELLERY_22_cls-1" d="M208.8,344.2a4,4,0,0,1-3.6.28c-1.71-.57-3-1.34-3.06-2.3h0a1.89,1.89,0,0,1,.57-1.28,3.1,3.1,0,0,1,.58.55h0a.81.81,0,0,0-.1.56.62.62,0,0,0,.14.33,6.11,6.11,0,0,0,3.41,1.35,1.31,1.31,0,0,0,1.22-.44.94.94,0,0,0,.18-.38c.14,0,.7,0,1.37.12a1.73,1.73,0,0,1-.28.75,2.08,2.08,0,0,1-.43.46Z" />
  <path class="GUNDAN_DESERT_FOX_JEWELRY_DESERT_FOX_JEWELLERY_22_cls-1" d="M212.27,345.07s-2-.6-3.47-.87a2.08,2.08,0,0,0,.43-.46,1.73,1.73,0,0,0,.28-.75,10.09,10.09,0,0,1,2.19.44c.29.11.53.2.72.29A1.77,1.77,0,0,0,212.27,345.07Z" />
  <path class="GUNDAN_DESERT_FOX_JEWELRY_DESERT_FOX_JEWELLERY_22_cls-3" d="M206.74,343.69a.62.62,0,0,1-.33-.57,1.42,1.42,0,0,1,1.12-1.27,3.46,3.46,0,0,1,1.44-.06l.18,0h0a19.22,19.22,0,0,1,4.05.9,2.18,2.18,0,0,1,1,.66.63.63,0,0,1,.14.47,1.31,1.31,0,0,1-.84,1.12,1.06,1.06,0,0,1-.24-.29.73.73,0,0,1-.07-.55h0a4.4,4.4,0,0,0-.74-.4c-.19-.09-.43-.18-.72-.29a10.09,10.09,0,0,0-2.19-.44c-.67-.08-1.23-.11-1.37-.12a.94.94,0,0,1-.18.38A1.31,1.31,0,0,1,206.74,343.69Z" />
  <path class="GUNDAN_DESERT_FOX_JEWELRY_DESERT_FOX_JEWELLERY_22_cls-3" d="M212.42,343.72a4.4,4.4,0,0,1,.74.4h0a.73.73,0,0,0,.07.55,1.06,1.06,0,0,0,.24.29c.56.43,4.37,1.17,4.84-.17.52-1.5-3-1.77-4.14-1.42a2.18,2.18,0,0,0-1-.66,7.56,7.56,0,0,1,3.95-.34c2,.44,2.87,1.51,2.55,2.6s-1.83,1.77-3.69,1.6-3.38-.61-3.74-1.5h0A1.77,1.77,0,0,1,212.42,343.72Z" />
  <path class="GUNDAN_DESERT_FOX_JEWELRY_DESERT_FOX_JEWELLERY_22_cls-4" d="M170.57,321.7a2.79,2.79,0,0,0-.21-.73c-.07-.17-.15-.38-.27-.62a5.61,5.61,0,0,0-1-1.3" />
  <path class="GUNDAN_DESERT_FOX_JEWELRY_DESERT_FOX_JEWELLERY_22_cls-4" d="M169.17,322s-.31-.53-.74-1.18h0" />
  <path class="GUNDAN_DESERT_FOX_JEWELRY_DESERT_FOX_JEWELLERY_22_cls-4" d="M169.28,317.39l1.24-.43c0,.06-.13,1.79-.08,1.86a4.67,4.67,0,0,1,1.29,1.8,1.61,1.61,0,0,1,.17,1.06.78.78,0,0,1-.29.44,1.69,1.69,0,0,1-1.49.42" />
  <path class="GUNDAN_DESERT_FOX_JEWELRY_DESERT_FOX_JEWELLERY_22_cls-4" d="M170.57,321.7a1,1,0,0,0-.39.48.8.8,0,0,0-.06.36,4.82,4.82,0,0,0,2.26,2.48,1.42,1.42,0,0,0,1.31.05,1.57,1.57,0,0,0,.36-.29" />
  <path class="GUNDAN_DESERT_FOX_JEWELRY_DESERT_FOX_JEWELLERY_22_cls-4" d="M174.06,323.62a4.48,4.48,0,0,0-2.17-1.94" />
  <path class="GUNDAN_DESERT_FOX_JEWELRY_DESERT_FOX_JEWELLERY_22_cls-4" d="M175.18,325.39a2.28,2.28,0,0,1-.64.59,2.35,2.35,0,0,1-.63.27,3.57,3.57,0,0,1-3.28-1.06c-1.2-1.16-1.91-2.34-1.46-3.24a2.55,2.55,0,0,1,1.19-1h0" />
  <path class="GUNDAN_DESERT_FOX_JEWELRY_DESERT_FOX_JEWELLERY_22_cls-4" d="M175.49,324.18a3.19,3.19,0,0,0-.67-1.65,6,6,0,0,0-3.09-1.91" />
  <path class="GUNDAN_DESERT_FOX_JEWELRY_DESERT_FOX_JEWELLERY_22_cls-4" d="M177.76,327.77a2.6,2.6,0,0,0-.43-.64c-.12-.15-.27-.32-.47-.53a7.57,7.57,0,0,0-1.68-1.21h0c-.54-.32-1-.56-1.13-.61l0,0" />
  <path class="GUNDAN_DESERT_FOX_JEWELRY_DESERT_FOX_JEWELLERY_22_cls-4" d="M176.48,328.32a27.49,27.49,0,0,0-2.57-2.07" />
  <path class="GUNDAN_DESERT_FOX_JEWELRY_DESERT_FOX_JEWELLERY_22_cls-4" d="M172.38,325a.61.61,0,0,1,0-.65,1.75,1.75,0,0,1,1.66-.75,3,3,0,0,1,1.29.47l.14.09h0a14.73,14.73,0,0,1,3.06,2.31,1.72,1.72,0,0,1,.51.95.72.72,0,0,1-.14.49,1.6,1.6,0,0,1-1.33.72" />
  <path class="GUNDAN_DESERT_FOX_JEWELRY_DESERT_FOX_JEWELLERY_22_cls-4" d="M180.74,330.56a1.36,1.36,0,0,0,1.17-.28.87.87,0,0,0,.24-.32" />
  <path class="GUNDAN_DESERT_FOX_JEWELRY_DESERT_FOX_JEWELLERY_22_cls-4" d="M177.77,327.77a.89.89,0,0,0-.22.54.73.73,0,0,0,0,.35,5.61,5.61,0,0,0,3.13,1.89" />
  <path class="GUNDAN_DESERT_FOX_JEWELRY_DESERT_FOX_JEWELLERY_22_cls-4" d="M181.68,328.7a5.34,5.34,0,0,0-2.61-1.25h0" />
  <path class="GUNDAN_DESERT_FOX_JEWELRY_DESERT_FOX_JEWELLERY_22_cls-4" d="M177.34,327.12h0a2.07,2.07,0,0,0-.84,1.19c-.16,1,.92,1.91,2.46,2.75a4.22,4.22,0,0,0,3.05.48,2.25,2.25,0,0,0,1-.6,2.65,2.65,0,0,0,.21-.26" />
  <path class="GUNDAN_DESERT_FOX_JEWELRY_DESERT_FOX_JEWELLERY_22_cls-4" d="M183.48,329.37a3.09,3.09,0,0,0-1.29-1.75,6.87,6.87,0,0,0-3.63-1.12h0" />
  <path class="GUNDAN_DESERT_FOX_JEWELRY_DESERT_FOX_JEWELLERY_22_cls-4" d="M185.42,333.11a3,3,0,0,0-.38-.67c-.1-.16-.24-.35-.41-.57a6.87,6.87,0,0,0-1.37-1.18c-.46-.32-.89-.59-1.11-.73l-.17-.1" />
  <path class="GUNDAN_DESERT_FOX_JEWELRY_DESERT_FOX_JEWELLERY_22_cls-4" d="M184.09,333.58a28.84,28.84,0,0,0-2.09-2" />
  <path class="GUNDAN_DESERT_FOX_JEWELRY_DESERT_FOX_JEWELLERY_22_cls-4" d="M180.74,330.56h0c-.43-.4-.61-.79-.32-1.18a1.74,1.74,0,0,1,1.27-.67,2.53,2.53,0,0,1,1.68.58l.12.09h0a14,14,0,0,1,2.83,2.5h0a1.6,1.6,0,0,1,.41,1h0a.71.71,0,0,1-.18.47,1.64,1.64,0,0,1-1.38.65h0" />
  <path class="GUNDAN_DESERT_FOX_JEWELRY_DESERT_FOX_JEWELLERY_22_cls-4" d="M185.42,333.11a.94.94,0,0,0-.27.52.79.79,0,0,0,0,.37,5.39,5.39,0,0,0,2.82,2.05,1.42,1.42,0,0,0,1.31-.16,1.08,1.08,0,0,0,.28-.34" />
  <path class="GUNDAN_DESERT_FOX_JEWELRY_DESERT_FOX_JEWELLERY_22_cls-4" d="M189.33,334.42a5.13,5.13,0,0,0-2.6-1.55" />
  <path class="GUNDAN_DESERT_FOX_JEWELRY_DESERT_FOX_JEWELLERY_22_cls-4" d="M190.85,336a2.25,2.25,0,0,1-.5.68,2.19,2.19,0,0,1-.56.35,3.77,3.77,0,0,1-3.5-.5c-1.46-.94-2.44-2-2.2-2.91a2.29,2.29,0,0,1,.95-1.14h0" />
  <path class="GUNDAN_DESERT_FOX_JEWELRY_DESERT_FOX_JEWELLERY_22_cls-4" d="M190.88,334.74a3.47,3.47,0,0,0-1.06-1.5,6.66,6.66,0,0,0-3.5-1.36" />
  <path class="GUNDAN_DESERT_FOX_JEWELRY_DESERT_FOX_JEWELLERY_22_cls-4" d="M193.38,337.3c-.15-.13-.34-.27-.58-.44a8.61,8.61,0,0,0-2-.9c-.62-.23-1.15-.38-1.27-.41h0" />
  <path class="GUNDAN_DESERT_FOX_JEWELRY_DESERT_FOX_JEWELLERY_22_cls-4" d="M194,337.87a3.24,3.24,0,0,0-.59-.56" />
  <path class="GUNDAN_DESERT_FOX_JEWELRY_DESERT_FOX_JEWELLERY_22_cls-4" d="M192.82,338.6a31.19,31.19,0,0,0-3-1.6" />
  <path class="GUNDAN_DESERT_FOX_JEWELRY_DESERT_FOX_JEWELLERY_22_cls-4" d="M188,336.05a.57.57,0,0,1-.13-.63,1.61,1.61,0,0,1,1.47-1,3.32,3.32,0,0,1,1.38.25l.17.07a27,27,0,0,1,3.58,1.75l.65.69a.87.87,0,0,1,.07.17.69.69,0,0,1,0,.49,1.49,1.49,0,0,1-1.15.92" />
  <path class="GUNDAN_DESERT_FOX_JEWELRY_DESERT_FOX_JEWELLERY_22_cls-4" d="M195.18,337.35h0a5.87,5.87,0,0,1,2.87.78" />
  <path class="GUNDAN_DESERT_FOX_JEWELRY_DESERT_FOX_JEWELLERY_22_cls-4" d="M198.84,339.1a.87.87,0,0,1-.18.54,1,1,0,0,1-.75.4h0a6,6,0,0,1-3.89-1.29.88.88,0,0,1-.14-.34.8.8,0,0,1,.1-.55" />
  <path class="GUNDAN_DESERT_FOX_JEWELRY_DESERT_FOX_JEWELLERY_22_cls-4" d="M194.45,336.5h0a7.39,7.39,0,0,1,3.86.52,4.23,4.23,0,0,1,1.48,1.13" />
  <path class="GUNDAN_DESERT_FOX_JEWELRY_DESERT_FOX_JEWELLERY_22_cls-4" d="M200.18,339.52a1.64,1.64,0,0,1-.25.6,1.68,1.68,0,0,1-.53.53s0,0,0,0a4.13,4.13,0,0,1-3.47.21c-1.72-.57-3-1.32-3.08-2.28a1.92,1.92,0,0,1,.55-1.29h0" />
  <path class="GUNDAN_DESERT_FOX_JEWELRY_DESERT_FOX_JEWELLERY_22_cls-4" d="M198.9,339.1s.58.17,1.28.42a9.07,9.07,0,0,1,1.95.93,5.67,5.67,0,0,1,.58.45,3.1,3.1,0,0,1,.58.55" />
  <path class="GUNDAN_DESERT_FOX_JEWELRY_DESERT_FOX_JEWELLERY_22_cls-4" d="M202.14,342.18s-1.48-.91-2.76-1.51" />
  <path class="GUNDAN_DESERT_FOX_JEWELRY_DESERT_FOX_JEWELLERY_22_cls-4" d="M203.32,342.35h0a1.49,1.49,0,0,0,1.16-.91.75.75,0,0,0,0-.49,2,2,0,0,0-.72-.86h0a17,17,0,0,0-3.57-1.77h0l-.15-.07-.26-.1a2.59,2.59,0,0,0-1.56-.08.84.84,0,0,0-.19.07,1.5,1.5,0,0,0-.84.84c-.16.44.14.77.69,1h0" />
  <path class="GUNDAN_DESERT_FOX_JEWELRY_DESERT_FOX_JEWELLERY_22_cls-4" d="M203.29,341.45a.81.81,0,0,0-.1.56.62.62,0,0,0,.14.33,6.11,6.11,0,0,0,3.41,1.35,1.31,1.31,0,0,0,1.22-.44.94.94,0,0,0,.18-.38" />
  <path class="GUNDAN_DESERT_FOX_JEWELRY_DESERT_FOX_JEWELLERY_22_cls-4" d="M207.53,341.85a5.87,5.87,0,0,0-3-.91h0" />
  <path class="GUNDAN_DESERT_FOX_JEWELRY_DESERT_FOX_JEWELLERY_22_cls-4" d="M208.8,344.2a4,4,0,0,1-3.6.28c-1.71-.57-3-1.34-3.06-2.3h0a1.89,1.89,0,0,1,.57-1.28h0" />
  <path class="GUNDAN_DESERT_FOX_JEWELRY_DESERT_FOX_JEWELLERY_22_cls-4" d="M209.51,343a1.73,1.73,0,0,1-.28.75,2.08,2.08,0,0,1-.43.46" />
  <path class="GUNDAN_DESERT_FOX_JEWELRY_DESERT_FOX_JEWELLERY_22_cls-4" d="M209.15,341.82a4,4,0,0,0-1.5-1.19,7.38,7.38,0,0,0-3.86-.55h0" />
  <path class="GUNDAN_DESERT_FOX_JEWELRY_DESERT_FOX_JEWELLERY_22_cls-4" d="M213.16,344.12a4.4,4.4,0,0,0-.74-.4c-.19-.09-.43-.18-.72-.29a10.09,10.09,0,0,0-2.19-.44c-.67-.08-1.23-.11-1.37-.12h0" />
  <path class="GUNDAN_DESERT_FOX_JEWELRY_DESERT_FOX_JEWELLERY_22_cls-4" d="M212.27,345.07s-2-.6-3.47-.87h0" />
  <path class="GUNDAN_DESERT_FOX_JEWELRY_DESERT_FOX_JEWELLERY_22_cls-4" d="M206.74,343.69a.62.62,0,0,1-.33-.57,1.42,1.42,0,0,1,1.12-1.27,3.46,3.46,0,0,1,1.44-.06l.18,0h0a19.22,19.22,0,0,1,4.05.9,2.18,2.18,0,0,1,1,.66.63.63,0,0,1,.14.47,1.31,1.31,0,0,1-.84,1.12" />
  <path class="GUNDAN_DESERT_FOX_JEWELRY_DESERT_FOX_JEWELLERY_22_cls-4" d="M214.18,343.38c1.1-.35,4.66-.08,4.14,1.42-.47,1.34-4.28.6-4.84.17a1.06,1.06,0,0,1-.24-.29.73.73,0,0,1-.07-.55" />
  <path class="GUNDAN_DESERT_FOX_JEWELRY_DESERT_FOX_JEWELLERY_22_cls-4" d="M213.2,342.72h0a7.56,7.56,0,0,1,3.95-.34c2,.44,2.87,1.51,2.55,2.6s-1.83,1.77-3.69,1.6-3.38-.61-3.74-1.5h0a1.77,1.77,0,0,1,.15-1.35" />
  <path class="GUNDAN_DESERT_FOX_JEWELRY_DESERT_FOX_JEWELLERY_22_cls-4" d="M169.29,317.39h0c-1.31.55-1.39,2.39-.85,3.37h0" />
  <path d="M257.05,316.85l-.68-2a2.54,2.54,0,0,1,2.23.56" />
  <path class="GUNDAN_DESERT_FOX_JEWELRY_DESERT_FOX_JEWELLERY_22_cls-1" d="M229.64,342.91s1.47-.89,2.72-1.51h0a1.68,1.68,0,0,1-.53-.53,1.72,1.72,0,0,1-.26-.59,10,10,0,0,0-1.91.92q-.35.26-.57.45A1.84,1.84,0,0,1,229.64,342.91Z" />
  <path class="GUNDAN_DESERT_FOX_JEWELRY_DESERT_FOX_JEWELLERY_22_cls-1" d="M237.61,339.34a5.71,5.71,0,0,1-3.79,1.42h0a1.06,1.06,0,0,1-.75-.39.77.77,0,0,1-.18-.53h-.06s-.57.18-1.26.43a1.72,1.72,0,0,0,.26.59,1.68,1.68,0,0,0,.53.53h0a4,4,0,0,0,3.45.14c1.69-.63,2.94-1.46,3-2.42a1.94,1.94,0,0,0-.62-1.25,3.46,3.46,0,0,0-.54.58.79.79,0,0,1,.12.55A.67.67,0,0,1,237.61,339.34Z" />
  <path class="GUNDAN_DESERT_FOX_JEWELRY_DESERT_FOX_JEWELLERY_22_cls-1" d="M256.46,319.86a.82.82,0,0,0,.35.39,1.51,1.51,0,0,0,1.46.12.91.91,0,0,0-.13-.35,1,1,0,0,0-.46-.38h0a3.37,3.37,0,0,1,0-.74,2.36,2.36,0,0,1,1.3.71s.17-.58.41-1.3h0c.26-1.07-.26-2.83-1.57-3.1h0c-1.34-.31-.73,1.49-.76,1.56a6,6,0,0,0-.72,2.05A1.74,1.74,0,0,0,256.46,319.86Z" />
  <path class="GUNDAN_DESERT_FOX_JEWELRY_DESERT_FOX_JEWELLERY_22_cls-2" d="M256.46,319.86a1.74,1.74,0,0,1-.08-1.06,5.68,5.68,0,0,0-2.43,2.42,3.31,3.31,0,0,0-.31,1.73c.05,0,.08-.09.12-.12a2.66,2.66,0,0,1,1.09-.68A4.39,4.39,0,0,1,256.46,319.86Z" />
  <path class="GUNDAN_DESERT_FOX_JEWELRY_DESERT_FOX_JEWELLERY_22_cls-1" d="M259,319.6a2.37,2.37,0,0,0-1.3-.71,2.67,2.67,0,0,0,0,.74h0a1,1,0,0,1,.46.38.91.91,0,0,1,.13.35,4.66,4.66,0,0,1-1.58,2.86,1.26,1.26,0,0,1-1.21.28,1.59,1.59,0,0,1-.39-.22c-.1.07-.49.39-.94.79a2.1,2.1,0,0,0,.71.47,2.33,2.33,0,0,0,.63.16,3.26,3.26,0,0,0,2.87-1.65C259.23,321.69,259.63,320.39,259,319.6Z" />
  <path class="GUNDAN_DESERT_FOX_JEWELRY_DESERT_FOX_JEWELLERY_22_cls-1" d="M255.49,324.71a2.33,2.33,0,0,1-.63-.16,2.1,2.1,0,0,1-.71-.47h0a7.61,7.61,0,0,0-1.36,1.46c-.15.23-.26.43-.35.6a2,2,0,0,1,1,1h0A29.39,29.39,0,0,1,255.49,324.71Z" />
  <path class="GUNDAN_DESERT_FOX_JEWELRY_DESERT_FOX_JEWELLERY_22_cls-3" d="M255.48,323.51a1.26,1.26,0,0,0,1.21-.28.61.61,0,0,0-.15-.63,1.66,1.66,0,0,0-1.69-.45,2.66,2.66,0,0,0-1.09.68s-.07.08-.12.12h0a16.07,16.07,0,0,0-2.45,2.75,1.75,1.75,0,0,0-.32,1,.83.83,0,0,0,.2.46,1.5,1.5,0,0,0,1.38.52.72.72,0,0,0,0-.36.84.84,0,0,0-.29-.49h0a2.52,2.52,0,0,1,.3-.69c.09-.17.2-.37.35-.6a7.61,7.61,0,0,1,1.36-1.46h0c.45-.4.84-.72.94-.79A1.59,1.59,0,0,0,255.48,323.51Z" />
  <path class="GUNDAN_DESERT_FOX_JEWELRY_DESERT_FOX_JEWELLERY_22_cls-2" d="M244.27,333a1.6,1.6,0,0,1,.29-1h0a6.47,6.47,0,0,0-3.23,1.64,3.55,3.55,0,0,0-.9,1.57l.16-.08a3,3,0,0,1,1.31-.35A5,5,0,0,1,244.27,333Z" />
  <path class="GUNDAN_DESERT_FOX_JEWELRY_DESERT_FOX_JEWELLERY_22_cls-2" d="M248.58,328.28a5.11,5.11,0,0,1,2.28-1.57,1.75,1.75,0,0,1,.32-1,6.51,6.51,0,0,0-3.23,1.59,3.18,3.18,0,0,0-1,1.88l.11-.11A2.43,2.43,0,0,1,248.58,328.28Z" />
  <path class="GUNDAN_DESERT_FOX_JEWELRY_DESERT_FOX_JEWELLERY_22_cls-1" d="M248.66,331.15a3.89,3.89,0,0,0,2.86-.88c1.35-1,2.22-2.17,1.91-3.09a2,2,0,0,0-1-1,2.52,2.52,0,0,0-.3.69h0a.84.84,0,0,1,.29.49.72.72,0,0,1,0,.36,5.34,5.34,0,0,1-2.7,2.31h0a1.27,1.27,0,0,1-1.15-.13.79.79,0,0,1-.27-.28c-.19.16-.57.48-1,.84h0a2.61,2.61,0,0,0,.24.23A2.13,2.13,0,0,0,248.66,331.15Z" />
  <path class="GUNDAN_DESERT_FOX_JEWELRY_DESERT_FOX_JEWELLERY_22_cls-3" d="M249.73,330h0c.35-.45.47-.86.14-1.21a1.71,1.71,0,0,0-1.3-.51,2.43,2.43,0,0,0-1.51.78l-.11.11h0a15,15,0,0,0-2.4,2.79h0a1.6,1.6,0,0,0-.29,1h0a.74.74,0,0,0,.22.45,1.55,1.55,0,0,0,1.4.5.86.86,0,0,0,0-.36,1,1,0,0,0-.32-.49,2.67,2.67,0,0,1,.29-.71,6.56,6.56,0,0,1,.33-.6,7,7,0,0,1,1.17-1.34c.39-.36.77-.68,1-.84a.79.79,0,0,0,.27.28A1.27,1.27,0,0,0,249.73,330Z" />
  <path class="GUNDAN_DESERT_FOX_JEWELRY_DESERT_FOX_JEWELLERY_22_cls-1" d="M247.35,330.44a7,7,0,0,0-1.17,1.34,6.56,6.56,0,0,0-.33.6,2.23,2.23,0,0,1,1,1s.92-1.28,1.78-2.26a2.13,2.13,0,0,1-1.07-.47,2.61,2.61,0,0,1-.24-.23Z" />
  <path class="GUNDAN_DESERT_FOX_JEWELRY_DESERT_FOX_JEWELLERY_22_cls-1" d="M245.89,333.94a5.09,5.09,0,0,1-2.55,2.31,1.33,1.33,0,0,1-1.29-.06,1.1,1.1,0,0,1-.3-.31c-.12,0-.62.23-1.2.5a2.11,2.11,0,0,0,.53.64,2,2,0,0,0,.58.31,3.63,3.63,0,0,0,3.39-.79c1.33-1.08,2.18-2.21,1.83-3.13a2.23,2.23,0,0,0-1-1,2.67,2.67,0,0,0-.29.71,1,1,0,0,1,.32.49A.86.86,0,0,1,245.89,333.94Z" />
  <path class="GUNDAN_DESERT_FOX_JEWELRY_DESERT_FOX_JEWELLERY_22_cls-1" d="M238.7,337.39l-.54.47h0a1.94,1.94,0,0,1,.62,1.25h0s1.61-1.12,2.88-1.79h0a2,2,0,0,1-.58-.31,2.11,2.11,0,0,1-.53-.64A8.68,8.68,0,0,0,238.7,337.39Z" />
  <path class="GUNDAN_DESERT_FOX_JEWELRY_DESERT_FOX_JEWELLERY_22_cls-3" d="M238.16,337.86l.54-.47a8.68,8.68,0,0,1,1.85-1c.58-.27,1.08-.46,1.2-.5a1.1,1.1,0,0,0,.3.31,1.33,1.33,0,0,0,1.29.06.57.57,0,0,0,.07-.64,1.58,1.58,0,0,0-1.51-.87,3,3,0,0,0-1.31.35l-.16.08a31.3,31.3,0,0,0-3.37,1.94l-.6.72-.06.16a.75.75,0,0,0,0,.49,1.45,1.45,0,0,0,1.17.86.67.67,0,0,0,.12-.34.79.79,0,0,0-.12-.55,3.46,3.46,0,0,1,.54-.58Z" />
  <path class="GUNDAN_DESERT_FOX_JEWELRY_DESERT_FOX_JEWELLERY_22_cls-2" d="M233.63,338.85a5.87,5.87,0,0,1,2.77-.86l.06-.16.6-.72a7.44,7.44,0,0,0-3.73.64,4.12,4.12,0,0,0-1.41,1.15,2.5,2.5,0,0,1,1.52-.11Z" />
  <path class="GUNDAN_DESERT_FOX_JEWELRY_DESERT_FOX_JEWELLERY_22_cls-3" d="M233.82,340.74c.54-.3.83-.64.65-1.07a1.5,1.5,0,0,0-.84-.82l-.19-.06a2.5,2.5,0,0,0-1.52.11l-.25.1a.52.52,0,0,0-.15.07h0a17.68,17.68,0,0,0-3.48,1.74h0a2,2,0,0,0-.71.83.69.69,0,0,0,0,.49,1.46,1.46,0,0,0,1.13.93.75.75,0,0,0,.14-.34.8.8,0,0,0-.1-.55h0a3,3,0,0,1,.57-.54q.22-.19.57-.45a9.44,9.44,0,0,1,1.91-.92c.69-.26,1.26-.43,1.26-.43h.06a.77.77,0,0,0,.18.53,1.06,1.06,0,0,0,.75.39v0Z" />
  <path class="GUNDAN_DESERT_FOX_JEWELRY_DESERT_FOX_JEWELLERY_22_cls-2" d="M224.24,341.25a4,4,0,0,0-1.51,1.11h.18a3.41,3.41,0,0,1,1.41.11,5.89,5.89,0,0,1,3-.81,2,2,0,0,1,.71-.83A7.32,7.32,0,0,0,224.24,341.25Z" />
  <path class="GUNDAN_DESERT_FOX_JEWELRY_DESERT_FOX_JEWELLERY_22_cls-1" d="M223,344.74a3.93,3.93,0,0,0,3.57.41c1.73-.53,3-1.28,3.09-2.23h0a1.84,1.84,0,0,0-.56-1.27,3,3,0,0,0-.57.54h0a.8.8,0,0,1,.1.55.75.75,0,0,1-.14.34,6.11,6.11,0,0,1-3.42,1.25,1.33,1.33,0,0,1-1.2-.48,1,1,0,0,1-.16-.39c-.14,0-.7,0-1.36.05a1.82,1.82,0,0,0,.24.76,2.32,2.32,0,0,0,.4.48Z" />
  <path class="GUNDAN_DESERT_FOX_JEWELRY_DESERT_FOX_JEWELLERY_22_cls-1" d="M219.47,345.39s2-.46,3.49-.65a2.32,2.32,0,0,1-.4-.48,1.82,1.82,0,0,1-.24-.76,11.36,11.36,0,0,0-2.19.3c-.29.09-.53.17-.72.25A1.7,1.7,0,0,1,219.47,345.39Z" />
  <path class="GUNDAN_DESERT_FOX_JEWELRY_DESERT_FOX_JEWELLERY_22_cls-3" d="M225,344.32a.61.61,0,0,0,.34-.56,1.43,1.43,0,0,0-1.06-1.3,3.41,3.41,0,0,0-1.41-.11h-.19a21.3,21.3,0,0,0-4,.64,2.07,2.07,0,0,0-1,.58.58.58,0,0,0-.17.45,1.29,1.29,0,0,0,.74,1.17.94.94,0,0,0,.26-.27.73.73,0,0,0,.12-.53h0a4,4,0,0,1,.76-.34c.19-.08.43-.16.72-.25a11.36,11.36,0,0,1,2.19-.3c.66,0,1.22-.05,1.36-.05a1,1,0,0,0,.16.39A1.33,1.33,0,0,0,225,344.32Z" />
  <path class="GUNDAN_DESERT_FOX_JEWELRY_DESERT_FOX_JEWELLERY_22_cls-5" d="M257.68,319.63a2.67,2.67,0,0,1,0-.74c0-.18.06-.41.1-.67a6.47,6.47,0,0,1,.59-1.46" />
  <path class="GUNDAN_DESERT_FOX_JEWELRY_DESERT_FOX_JEWELLERY_22_cls-5" d="M259,319.6s.17-.58.41-1.3h0" />
  <path class="GUNDAN_DESERT_FOX_JEWELRY_DESERT_FOX_JEWELLERY_22_cls-5" d="M257.86,315.19l-1.2-.18c0,.07.53,1.72.49,1.79a4.87,4.87,0,0,0-.77,2,1.74,1.74,0,0,0,.08,1.06.78.78,0,0,0,.35.39,1.5,1.5,0,0,0,1.46.12" />
  <path class="GUNDAN_DESERT_FOX_JEWELRY_DESERT_FOX_JEWELLERY_22_cls-5" d="M257.68,319.64a1,1,0,0,1,.46.38.91.91,0,0,1,.13.35,4.66,4.66,0,0,1-1.58,2.86,1.26,1.26,0,0,1-1.21.28,1.59,1.59,0,0,1-.39-.22" />
  <path class="GUNDAN_DESERT_FOX_JEWELRY_DESERT_FOX_JEWELLERY_22_cls-5" d="M254.85,322.15a4.39,4.39,0,0,1,1.61-2.29" />
  <path class="GUNDAN_DESERT_FOX_JEWELRY_DESERT_FOX_JEWELLERY_22_cls-5" d="M254.15,324.08a2.1,2.1,0,0,0,.71.47,2.33,2.33,0,0,0,.63.16,3.26,3.26,0,0,0,2.87-1.65c.87-1.37,1.27-2.67.65-3.46a2.37,2.37,0,0,0-1.3-.71h0" />
  <path class="GUNDAN_DESERT_FOX_JEWELRY_DESERT_FOX_JEWELLERY_22_cls-5" d="M253.64,323a3.31,3.31,0,0,1,.31-1.73,5.68,5.68,0,0,1,2.43-2.42" />
  <path class="GUNDAN_DESERT_FOX_JEWELRY_DESERT_FOX_JEWELLERY_22_cls-5" d="M252.14,326.83a2.52,2.52,0,0,1,.3-.69c.09-.17.2-.37.35-.6a7.61,7.61,0,0,1,1.36-1.46h0c.45-.4.84-.72.94-.79l0,0" />
  <path class="GUNDAN_DESERT_FOX_JEWELRY_DESERT_FOX_JEWELLERY_22_cls-5" d="M253.44,327.18a29.39,29.39,0,0,1,2.05-2.47" />
  <path class="GUNDAN_DESERT_FOX_JEWELRY_DESERT_FOX_JEWELLERY_22_cls-5" d="M256.69,323.23a.61.61,0,0,0-.15-.63,1.66,1.66,0,0,0-1.69-.45,2.66,2.66,0,0,0-1.09.68s-.07.08-.12.12h0a16.07,16.07,0,0,0-2.45,2.75,1.75,1.75,0,0,0-.32,1,.83.83,0,0,0,.2.46,1.5,1.5,0,0,0,1.38.52" />
  <path class="GUNDAN_DESERT_FOX_JEWELRY_DESERT_FOX_JEWELLERY_22_cls-5" d="M249.73,330a1.27,1.27,0,0,1-1.15-.13.79.79,0,0,1-.27-.28" />
  <path class="GUNDAN_DESERT_FOX_JEWELRY_DESERT_FOX_JEWELLERY_22_cls-5" d="M252.14,326.84a.84.84,0,0,1,.29.49.72.72,0,0,1,0,.36,5.34,5.34,0,0,1-2.7,2.31" />
  <path class="GUNDAN_DESERT_FOX_JEWELRY_DESERT_FOX_JEWELLERY_22_cls-5" d="M248.58,328.28a5.11,5.11,0,0,1,2.28-1.57h0" />
  <path class="GUNDAN_DESERT_FOX_JEWELRY_DESERT_FOX_JEWELLERY_22_cls-5" d="M252.43,326.13h0a2,2,0,0,1,1,1c.31.92-.56,2.05-1.91,3.09a3.89,3.89,0,0,1-2.86.88,2.13,2.13,0,0,1-1.07-.47,2.61,2.61,0,0,1-.24-.23" />
  <path class="GUNDAN_DESERT_FOX_JEWELRY_DESERT_FOX_JEWELLERY_22_cls-5" d="M247,329.17a3.18,3.18,0,0,1,1-1.88,6.51,6.51,0,0,1,3.23-1.59h0" />
  <path class="GUNDAN_DESERT_FOX_JEWELRY_DESERT_FOX_JEWELLERY_22_cls-5" d="M245.56,333.09a2.67,2.67,0,0,1,.29-.71,6.56,6.56,0,0,1,.33-.6,7,7,0,0,1,1.17-1.34c.39-.36.77-.68,1-.84l.15-.12" />
  <path class="GUNDAN_DESERT_FOX_JEWELRY_DESERT_FOX_JEWELLERY_22_cls-5" d="M246.88,333.41s.92-1.28,1.78-2.26" />
  <path class="GUNDAN_DESERT_FOX_JEWELRY_DESERT_FOX_JEWELLERY_22_cls-5" d="M249.73,330h0c.35-.45.47-.86.14-1.21a1.71,1.71,0,0,0-1.3-.51,2.43,2.43,0,0,0-1.51.78l-.11.11h0a15,15,0,0,0-2.4,2.79h0a1.6,1.6,0,0,0-.29,1h0a.74.74,0,0,0,.22.45,1.55,1.55,0,0,0,1.4.5h0" />
  <path class="GUNDAN_DESERT_FOX_JEWELRY_DESERT_FOX_JEWELLERY_22_cls-5" d="M245.56,333.09a1,1,0,0,1,.32.49.86.86,0,0,1,0,.36,5.09,5.09,0,0,1-2.55,2.31,1.33,1.33,0,0,1-1.29-.06,1.1,1.1,0,0,1-.3-.31" />
  <path class="GUNDAN_DESERT_FOX_JEWELRY_DESERT_FOX_JEWELLERY_22_cls-5" d="M241.9,334.74a5,5,0,0,1,2.37-1.76" />
  <path class="GUNDAN_DESERT_FOX_JEWELRY_DESERT_FOX_JEWELLERY_22_cls-5" d="M240.55,336.38a2.11,2.11,0,0,0,.53.64,2,2,0,0,0,.58.31,3.63,3.63,0,0,0,3.39-.79c1.33-1.08,2.18-2.21,1.83-3.13a2.23,2.23,0,0,0-1-1h0" />
  <path class="GUNDAN_DESERT_FOX_JEWELRY_DESERT_FOX_JEWELLERY_22_cls-5" d="M240.43,335.17a3.55,3.55,0,0,1,.9-1.57,6.47,6.47,0,0,1,3.23-1.64" />
  <path class="GUNDAN_DESERT_FOX_JEWELRY_DESERT_FOX_JEWELLERY_22_cls-5" d="M238.16,337.86l.54-.47a8.68,8.68,0,0,1,1.85-1c.58-.27,1.08-.46,1.2-.5h0" />
  <path class="GUNDAN_DESERT_FOX_JEWELRY_DESERT_FOX_JEWELLERY_22_cls-5" d="M237.61,338.45a3.46,3.46,0,0,1,.54-.58" />
  <path class="GUNDAN_DESERT_FOX_JEWELRY_DESERT_FOX_JEWELLERY_22_cls-5" d="M238.77,339.13s1.61-1.12,2.88-1.79" />
  <path class="GUNDAN_DESERT_FOX_JEWELRY_DESERT_FOX_JEWELLERY_22_cls-5" d="M243.34,336.25a.57.57,0,0,0,.07-.64,1.58,1.58,0,0,0-1.51-.87,3,3,0,0,0-1.31.35l-.16.08a31.3,31.3,0,0,0-3.37,1.94l-.6.72-.06.16a.75.75,0,0,0,0,.49,1.45,1.45,0,0,0,1.17.86" />
  <path class="GUNDAN_DESERT_FOX_JEWELRY_DESERT_FOX_JEWELLERY_22_cls-5" d="M236.41,338h0a5.87,5.87,0,0,0-2.77.86" />
  <path class="GUNDAN_DESERT_FOX_JEWELRY_DESERT_FOX_JEWELLERY_22_cls-5" d="M232.88,339.84a.77.77,0,0,0,.18.53,1.06,1.06,0,0,0,.75.39h0a5.71,5.71,0,0,0,3.79-1.42.67.67,0,0,0,.12-.34.79.79,0,0,0-.12-.55" />
  <path class="GUNDAN_DESERT_FOX_JEWELRY_DESERT_FOX_JEWELLERY_22_cls-5" d="M237.07,337.11h0a7.44,7.44,0,0,0-3.73.64,4.12,4.12,0,0,0-1.41,1.15" />
  <path class="GUNDAN_DESERT_FOX_JEWELRY_DESERT_FOX_JEWELLERY_22_cls-5" d="M231.56,340.27a1.72,1.72,0,0,0,.26.59,1.68,1.68,0,0,0,.53.53h0a4,4,0,0,0,3.45.14c1.69-.63,2.94-1.46,3-2.42a1.94,1.94,0,0,0-.62-1.25h0" />
  <path class="GUNDAN_DESERT_FOX_JEWELRY_DESERT_FOX_JEWELLERY_22_cls-5" d="M232.82,339.84s-.57.18-1.26.43a10,10,0,0,0-1.91.92q-.35.26-.57.45a3,3,0,0,0-.57.54" />
  <path class="GUNDAN_DESERT_FOX_JEWELRY_DESERT_FOX_JEWELLERY_22_cls-5" d="M229.64,342.91s1.47-.89,2.72-1.51" />
  <path class="GUNDAN_DESERT_FOX_JEWELRY_DESERT_FOX_JEWELLERY_22_cls-5" d="M228.47,343.07h0a1.46,1.46,0,0,1-1.13-.93.69.69,0,0,1,0-.49,2,2,0,0,1,.71-.83h0a17.68,17.68,0,0,1,3.48-1.74h0a.52.52,0,0,1,.15-.07l.25-.1a2.5,2.5,0,0,1,1.52-.11l.19.06a1.5,1.5,0,0,1,.84.82c.18.43-.11.77-.65,1.07h0" />
  <path class="GUNDAN_DESERT_FOX_JEWELRY_DESERT_FOX_JEWELLERY_22_cls-5" d="M228.5,342.18a.8.8,0,0,1,.1.55.75.75,0,0,1-.14.34,6.11,6.11,0,0,1-3.42,1.25,1.33,1.33,0,0,1-1.2-.48,1,1,0,0,1-.16-.39" />
  <path class="GUNDAN_DESERT_FOX_JEWELRY_DESERT_FOX_JEWELLERY_22_cls-5" d="M224.32,342.46a5.89,5.89,0,0,1,3-.81h0" />
  <path class="GUNDAN_DESERT_FOX_JEWELRY_DESERT_FOX_JEWELLERY_22_cls-5" d="M223,344.74a3.93,3.93,0,0,0,3.57.41c1.73-.53,3-1.28,3.09-2.23h0a1.84,1.84,0,0,0-.56-1.27h0" />
  <path class="GUNDAN_DESERT_FOX_JEWELRY_DESERT_FOX_JEWELLERY_22_cls-5" d="M222.32,343.5a1.82,1.82,0,0,0,.24.76,2.32,2.32,0,0,0,.4.48" />
  <path class="GUNDAN_DESERT_FOX_JEWELRY_DESERT_FOX_JEWELLERY_22_cls-5" d="M222.73,342.36a4,4,0,0,1,1.51-1.11,7.32,7.32,0,0,1,3.78-.43h0" />
  <path class="GUNDAN_DESERT_FOX_JEWELRY_DESERT_FOX_JEWELLERY_22_cls-5" d="M223,344.74h0a30.93,30.93,0,0,0-3.49.73s.41-.35.18-1.51" />
  <path class="GUNDAN_DESERT_FOX_JEWELRY_DESERT_FOX_JEWELLERY_22_cls-5" d="M225,344.32a.61.61,0,0,0,.34-.56,1.43,1.43,0,0,0-1.06-1.3,3.41,3.41,0,0,0-1.41-.11h-.19a21.3,21.3,0,0,0-4,.64,2.07,2.07,0,0,0-1,.58.58.58,0,0,0-.17.45,1.16,1.16,0,0,0,.55,1.11,2.94,2.94,0,0,0,.57-.75,4,4,0,0,1,.76-.34c.19-.08.43-.16.72-.25a11.36,11.36,0,0,1,2.19-.3c.66,0,1.22-.05,1.36-.05h0" />
  <path class="GUNDAN_DESERT_FOX_JEWELRY_DESERT_FOX_JEWELLERY_22_cls-5" d="M257.86,315.19h0c1.31.27,1.83,2,1.57,3.1h0" />
  <polygon points="233.36 356.84 229.5 357.61 229.21 357.66 225.35 358.43 221.24 364.24 224.04 378.4 229.76 382.62 234.88 381.61 236.21 381.35 238.47 380.9 242.16 374.82 239.36 360.66 233.36 356.84" />
  <path class="GUNDAN_DESERT_FOX_JEWELRY_DESERT_FOX_JEWELLERY_22_cls-6" d="M249.13,336.16a3.07,3.07,0,0,0,.46.85,2.54,2.54,0,0,0-2.4,1.23c-.34-1.51-3.55-4.07-8.52-5.39C246,331.34,248.5,334.59,249.13,336.16Z" />
  <path class="GUNDAN_DESERT_FOX_JEWELRY_DESERT_FOX_JEWELLERY_22_cls-6" d="M229.54,339.67s2.66,1.13,3.46,0,3.74-5.79,3.74-5.79,5.19,1,7.38,3.42a8.34,8.34,0,0,0,2.11,1.79s-6.23,1.45-7.17,5.86c-4.86.39-6.33,2.51-7.21,4.35a3,3,0,0,0-.68-1.32C227.47,343.08,229.54,339.67,229.54,339.67Z" />
  <path class="GUNDAN_DESERT_FOX_JEWELRY_DESERT_FOX_JEWELLERY_22_cls-2" d="M229,353.65a2.88,2.88,0,0,0,1.23-3.14,3.18,3.18,0,0,0-.38-1,2,2,0,0,0,.65.45,1.8,1.8,0,0,0,.77.13c0,.08,0,.16.05.23a4.14,4.14,0,0,1-2.05,4.71h0l-.26-1.34v0Z" />
  <path class="GUNDAN_DESERT_FOX_JEWELRY_DESERT_FOX_JEWELLERY_22_cls-3" d="M229,353.65v0l.26,1.34.64,3.21a.63.63,0,0,1-.49.73.61.61,0,0,1-.72-.49l-.64-3.21-.26-1.34v0a.61.61,0,0,1,.49-.7A.62.62,0,0,1,229,353.65Z" />
  <path class="GUNDAN_DESERT_FOX_JEWELRY_DESERT_FOX_JEWELLERY_22_cls-2" d="M227.85,346.72a21.28,21.28,0,0,0,1.21,1.82,2.18,2.18,0,0,0-1.76-.45h0a2.23,2.23,0,0,0-1.46,1.09c.17-.67.32-1.43.43-2.14a3.35,3.35,0,0,1,.77-.27h0a3.13,3.13,0,0,1,.81,0Z" />
  <path class="GUNDAN_DESERT_FOX_JEWELRY_DESERT_FOX_JEWELLERY_22_cls-6" d="M227.46,335.26a2,2,0,0,1-.64,1.84,3.2,3.2,0,0,1-1.56.69h0a3.33,3.33,0,0,1-1.7-.05,2,2,0,0,1-1.29-1.46s-1.1-1.34-.72-2.09a.65.65,0,0,1,.16-.21c.93-.8,1.91,1.08,1.91,1.08l1-.31h0l1.09-.11s.18-2.12,1.34-1.73C228.08,333.25,227.46,335.26,227.46,335.26Z" />
  <path class="GUNDAN_DESERT_FOX_JEWELRY_DESERT_FOX_JEWELLERY_22_cls-2" d="M224.33,351.43A1.78,1.78,0,0,0,225,351a2.09,2.09,0,0,0,.42-.66,3.36,3.36,0,0,0,.05,1.09,2.89,2.89,0,0,0,2.33,2.44v0l.26,1.34a4.15,4.15,0,0,1-3.68-3.58A2,2,0,0,1,224.33,351.43Z" />
  <path class="GUNDAN_DESERT_FOX_JEWELRY_DESERT_FOX_JEWELLERY_22_cls-6" d="M223.64,349.43a3,3,0,0,0-.11,1.49c-1.52-1.37-3.68-2.77-8.3-1.3h0a5.47,5.47,0,0,0-.72-.85,6.28,6.28,0,0,0-2.24-1.34,11.16,11.16,0,0,0-3.51-.62,14.32,14.32,0,0,0-2.38.12,8.77,8.77,0,0,0,1.27-2.47c1.12-3,5.52-6,5.52-6l.49.35c.56.4,1.54,1.08,2.52,1.75l1,.72,1.34.91.3.2c1.18.77,3.2-1.28,3.2-1.28S225.22,343.52,223.64,349.43Z" />
  <path class="GUNDAN_DESERT_FOX_JEWELRY_DESERT_FOX_JEWELLERY_22_cls-3" d="M213.62,338.86a11.66,11.66,0,0,0-4.9,8,14.32,14.32,0,0,0-2.38.12,8.77,8.77,0,0,0,1.27-2.47c1.12-3,5.52-6,5.52-6Z" />
  <path class="GUNDAN_DESERT_FOX_JEWELRY_DESERT_FOX_JEWELLERY_22_cls-3" d="M223.64,349.43a3,3,0,0,0-.11,1.49,10.25,10.25,0,0,0-1.18-.92c-1.47-.94-3.56-1.51-7.12-.38a15.94,15.94,0,0,0,3.27-7.38l.3.2c.65.43,1.56,0,2.25-.49a7.17,7.17,0,0,0,.95-.79S225.22,343.52,223.64,349.43Z" />
  <path class="GUNDAN_DESERT_FOX_JEWELRY_DESERT_FOX_JEWELLERY_22_cls-6" d="M211,338.32c-4.1,3.11-6.09,6.69-5.83,8.23a2.06,2.06,0,0,0-1.43-.53,3.35,3.35,0,0,0-1.25.29,3.7,3.7,0,0,0,.1-.95C202.54,343.66,203.63,339.7,211,338.32Z" />
  <path class="GUNDAN_DESERT_FOX_JEWELRY_DESERT_FOX_JEWELLERY_22_cls-2" d="M211,338.32c-6.25,2.55-7.18,6.07-7.26,7.7a3.35,3.35,0,0,0-1.25.29,3.7,3.7,0,0,0,.1-.95C202.54,343.66,203.63,339.7,211,338.32Z" />
  <path class="GUNDAN_DESERT_FOX_JEWELRY_DESERT_FOX_JEWELLERY_22_cls-2" d="M217.16,341.33a18.68,18.68,0,0,1-2.69,7.45,6.28,6.28,0,0,0-2.24-1.34,26.13,26.13,0,0,0,3.91-6.83Z" />
  <path class="GUNDAN_DESERT_FOX_JEWELRY_DESERT_FOX_JEWELLERY_22_cls-6" d="M250.59,336.68c-.17.56-.55.87-1,.33a3.07,3.07,0,0,1-.46-.85c-.63-1.57-3.15-4.82-10.46-3.31,5,1.32,8.18,3.88,8.52,5.39.21.92-.15,1.24-1,.82a8.22,8.22,0,0,1-2.11-1.8c-2.19-2.38-7.38-3.41-7.38-3.41s-2.94,4.63-3.74,5.79-3.46,0-3.46,0-2.07,3.41,1.63,8.28a3,3,0,0,1,.68,1.32c.06.46-.15.75-.56.79a1.8,1.8,0,0,1-.77-.13,2,2,0,0,1-.65-.45,9,9,0,0,1-.81-.94,21.28,21.28,0,0,1-1.21-1.82c-.72-1.17-1.26-2.22-1.26-2.22h0s-.1,1.17-.32,2.54c-.11.71-.26,1.47-.43,2.14a8.11,8.11,0,0,1-.4,1.18,2.09,2.09,0,0,1-.42.66,1.78,1.78,0,0,1-.67.41.61.61,0,0,1-.32,0,.62.62,0,0,1-.48-.54,3,3,0,0,1,.11-1.49c1.58-5.91-1.64-8.27-1.64-8.27a7.17,7.17,0,0,1-.95.79c-.69.48-1.6.92-2.25.49-1.18-.77-5.67-3.93-5.67-3.93s-4.4,2.93-5.52,6a8.77,8.77,0,0,1-1.27,2.47h0c-.59.69-1.05.53-1.2-.39-.26-1.54,1.73-5.12,5.83-8.23-7.34,1.38-8.43,5.34-8.41,7a3.7,3.7,0,0,1-.1.95h0c-.12.37-.32.49-.54.45a1,1,0,0,1-.52-.38,7.26,7.26,0,0,1,1.29-5.77c2.7-3.51,8.26-4.56,9.63-4.29s5.41,3.27,7.1,3.93l.31.1a1.31,1.31,0,0,0,.7-.05c1.39-.43,3.11-2.56,3.11-2.56h0a3.33,3.33,0,0,0,1.7.05h0a3.2,3.2,0,0,0,1.56-.69h0s3.34,1.82,4.53,1,4.15-5.78,5.32-6.55,6.71-1.91,10.53.31A7.25,7.25,0,0,1,250.59,336.68Z" />
  <path class="GUNDAN_DESERT_FOX_JEWELRY_DESERT_FOX_JEWELLERY_22_cls-2" d="M225.17,337.34l.09.45.35,1.75c-1.38.28-2.21-.69-2.23.44s.3.72,1.42,4.16-.69,7.12-.69,7.12l-.1.2a.62.62,0,0,1-.48-.54,3,3,0,0,1,.11-1.49c1.58-5.91-1.64-8.27-1.64-8.27a7.17,7.17,0,0,1-.95.79,4.11,4.11,0,0,0-.32-.45l-.3-1.19c1.39-.43,3.11-2.56,3.11-2.56h0a2,2,0,0,1-1.29-1.46s-1.1-1.34-.72-2.09l.5-.07a1.54,1.54,0,0,0,.77,1.73A2.08,2.08,0,0,0,225.17,337.34Z" />
  <path class="GUNDAN_DESERT_FOX_JEWELRY_DESERT_FOX_JEWELLERY_22_cls-2" d="M225.11,337.35l.09.46.34,1.75c1.38-.28,1.78-1.48,2.23-.44s0,.77.26,4.38,3.35,6.33,3.35,6.33l.17.14a.65.65,0,0,0,.24-.69,3,3,0,0,0-.67-1.32c-3.71-4.87-1.63-8.28-1.63-8.28a7,7,0,0,0,1.19.37,3.74,3.74,0,0,1,.11-.54l-.17-1.21c-1.45.13-3.85-1.18-3.85-1.18h0a2,2,0,0,0,.64-1.84s.5-1.65-.14-2.2l-.49.12a1.55,1.55,0,0,1-.05,1.9A2.08,2.08,0,0,1,225.11,337.35Z" />
  <path class="GUNDAN_DESERT_FOX_JEWELRY_DESERT_FOX_JEWELLERY_22_cls-7" d="M219.69,340.6A28,28,0,0,1,214,338c-1.95-1.27-2.66-.83-2.66-.83-2.63.2-6.9,2.06-8.37,4.46a7.8,7.8,0,0,0-.89,5.13l-.14,0a1,1,0,0,1-.52-.38,7.26,7.26,0,0,1,1.29-5.77c2.7-3.51,8.26-4.56,9.63-4.29s5.41,3.27,7.1,3.93C219.62,340.48,219.72,340.6,219.69,340.6Z" />
  <path class="GUNDAN_DESERT_FOX_JEWELRY_DESERT_FOX_JEWELLERY_22_cls-3" d="M236.42,334.36a11.58,11.58,0,0,1,7.55,5.5,14.92,14.92,0,0,1,2.25-.8,8.52,8.52,0,0,1-2.11-1.79c-2.19-2.39-7.37-3.42-7.37-3.42Z" />
  <path class="GUNDAN_DESERT_FOX_JEWELRY_DESERT_FOX_JEWELLERY_22_cls-3" d="M231.17,348a2.94,2.94,0,0,1,.67,1.33c.89-1.85,2.35-4,7.18-4.36a15.86,15.86,0,0,1-5.83-5.57l-.2.29c-.8,1.16-3.45,0-3.45,0S227.46,343.08,231.17,348Z" />
  <path class="GUNDAN_DESERT_FOX_JEWELRY_DESERT_FOX_JEWELLERY_22_cls-2" d="M238.67,332.85c6.75,0,9,2.89,9.63,4.37a3.31,3.31,0,0,1,1.28-.21,3.36,3.36,0,0,1-.46-.85C248.5,334.59,246,331.34,238.67,332.85Z" />
  <path class="GUNDAN_DESERT_FOX_JEWELRY_DESERT_FOX_JEWELLERY_22_cls-2" d="M234.08,338a18.52,18.52,0,0,0,5.33,5.88,6.37,6.37,0,0,1,1.56-2.1,25.61,25.61,0,0,1-6.21-4.82Z" />
  <path class="GUNDAN_DESERT_FOX_JEWELRY_DESERT_FOX_JEWELLERY_22_cls-7" d="M231.47,338.28a28.48,28.48,0,0,0,4.28-4.62c1.31-1.91,2.14-1.78,2.14-1.78,2.51-.81,7.16-.71,9.43.95a7.8,7.8,0,0,1,2.78,4.41h.15a1,1,0,0,0,.34-.55,7.25,7.25,0,0,0-3.39-4.85c-3.83-2.22-9.37-1.07-10.54-.31s-3.76,5.09-5.07,6.34C231.48,338.14,231.44,338.29,231.47,338.28Z" />
  <path class="GUNDAN_DESERT_FOX_JEWELRY_DESERT_FOX_JEWELLERY_22_cls-8" d="M202.46,346.32c-.21.67-.7.52-1.06.07a7.26,7.26,0,0,1,1.29-5.77c2.7-3.51,8.26-4.56,9.63-4.29s6,3.69,7.41,4,3.81-2.61,3.81-2.61" />
  <path class="GUNDAN_DESERT_FOX_JEWELRY_DESERT_FOX_JEWELLERY_22_cls-8" d="M206.34,346.94c-.59.69-1.05.53-1.2-.39-.26-1.54,1.73-5.12,5.83-8.23-7.34,1.38-8.43,5.34-8.41,7a3.7,3.7,0,0,1-.1.95" />
  <path class="GUNDAN_DESERT_FOX_JEWELRY_DESERT_FOX_JEWELLERY_22_cls-8" d="M226.57,344.5s-.1,1.17-.32,2.54c-.11.71-.26,1.47-.43,2.14a8.11,8.11,0,0,1-.4,1.18,2.09,2.09,0,0,1-.42.66,1.78,1.78,0,0,1-.67.41.59.59,0,0,1-.8-.51,3,3,0,0,1,.11-1.49c1.58-5.91-1.64-8.27-1.64-8.27s-2,2-3.2,1.28-5.67-3.93-5.67-3.93-4.4,2.93-5.52,6a8.77,8.77,0,0,1-1.27,2.47" />
  <path class="GUNDAN_DESERT_FOX_JEWELRY_DESERT_FOX_JEWELLERY_22_cls-8" d="M224.65,334.76l-1,.31s-1-1.88-1.91-1.08c-.78.67.56,2.3.56,2.3a2,2,0,0,0,1.29,1.46,3.33,3.33,0,0,0,1.7.05" />
  <path class="GUNDAN_DESERT_FOX_JEWELRY_DESERT_FOX_JEWELLERY_22_cls-8" d="M202.45,346.32h0a2.51,2.51,0,0,1,2.68.24" />
  <path class="GUNDAN_DESERT_FOX_JEWELRY_DESERT_FOX_JEWELLERY_22_cls-8" d="M206.34,346.94h0c.19,0,6.35-1,8.85,2.69,4.65-1.49,6.81-.08,8.34,1.29h0" />
  <path class="GUNDAN_DESERT_FOX_JEWELRY_DESERT_FOX_JEWELLERY_22_cls-8" d="M227,346.77a3.35,3.35,0,0,0-.77.27" />
  <path class="GUNDAN_DESERT_FOX_JEWELRY_DESERT_FOX_JEWELLERY_22_cls-8" d="M228.06,355.25a4.15,4.15,0,0,1-3.68-3.58,2,2,0,0,1,0-.24" />
  <path class="GUNDAN_DESERT_FOX_JEWELRY_DESERT_FOX_JEWELLERY_22_cls-8" d="M227.28,348.09a2.23,2.23,0,0,0-1.46,1.09" />
  <path class="GUNDAN_DESERT_FOX_JEWELRY_DESERT_FOX_JEWELLERY_22_cls-8" d="M225.42,350.36a3.36,3.36,0,0,0,.05,1.09,2.89,2.89,0,0,0,2.33,2.44" />
  <path class="GUNDAN_DESERT_FOX_JEWELRY_DESERT_FOX_JEWELLERY_22_cls-8" d="M226.59,344.5s.54,1.05,1.26,2.22a21.28,21.28,0,0,0,1.21,1.82,9,9,0,0,0,.81.94,2,2,0,0,0,.65.45,1.8,1.8,0,0,0,.77.13c.41,0,.62-.33.56-.79a3,3,0,0,0-.68-1.32c-3.7-4.87-1.63-8.28-1.63-8.28s2.66,1.13,3.46,0,3.74-5.79,3.74-5.79,5.19,1,7.38,3.42a8.34,8.34,0,0,0,2.11,1.79c.81.42,1.17.1,1-.82-.34-1.51-3.55-4.07-8.52-5.39,7.31-1.51,9.83,1.74,10.46,3.31a3.07,3.07,0,0,0,.46.85c.45.54.83.23,1-.33a7.25,7.25,0,0,0-3.39-4.85c-3.82-2.22-9.37-1.07-10.53-.31s-4.13,5.69-5.32,6.55-4.53-1-4.53-1" />
  <path class="GUNDAN_DESERT_FOX_JEWELRY_DESERT_FOX_JEWELLERY_22_cls-8" d="M224.66,334.76l1.09-.11s.18-2.12,1.34-1.73c1,.33.37,2.34.37,2.34a2,2,0,0,1-.64,1.84,3.2,3.2,0,0,1-1.56.69" />
  <path class="GUNDAN_DESERT_FOX_JEWELRY_DESERT_FOX_JEWELLERY_22_cls-8" d="M249.59,337a2.54,2.54,0,0,0-2.4,1.23" />
  <path class="GUNDAN_DESERT_FOX_JEWELRY_DESERT_FOX_JEWELLERY_22_cls-8" d="M246.23,339.06s-6.23,1.45-7.17,5.86c-4.86.39-6.33,2.51-7.21,4.35v0" />
  <path class="GUNDAN_DESERT_FOX_JEWELRY_DESERT_FOX_JEWELLERY_22_cls-8" d="M227,346.77a3.13,3.13,0,0,1,.81,0" />
  <path class="GUNDAN_DESERT_FOX_JEWELRY_DESERT_FOX_JEWELLERY_22_cls-8" d="M229.29,355a4.14,4.14,0,0,0,2.05-4.71c0-.07,0-.15-.05-.23" />
  <path class="GUNDAN_DESERT_FOX_JEWELRY_DESERT_FOX_JEWELLERY_22_cls-8" d="M227.3,348.09a2.18,2.18,0,0,1,1.76.45" />
  <path class="GUNDAN_DESERT_FOX_JEWELRY_DESERT_FOX_JEWELLERY_22_cls-8" d="M229,353.65a2.88,2.88,0,0,0,1.23-3.14,3.18,3.18,0,0,0-.38-1" />
  <path class="GUNDAN_DESERT_FOX_JEWELRY_DESERT_FOX_JEWELLERY_22_cls-8" d="M229.27,355l.64,3.21a.63.63,0,0,1-.49.73.61.61,0,0,1-.72-.49l-.64-3.21-.26-1.34v0a.61.61,0,0,1,.49-.7.62.62,0,0,1,.72.46v0Z" />
  <polygon class="GUNDAN_DESERT_FOX_JEWELRY_DESERT_FOX_JEWELLERY_22_cls-9" points="234.38 362.37 236.59 362.48 236.43 363.89 236.15 366.5 234.65 363 234.38 362.37" />
  <polygon class="GUNDAN_DESERT_FOX_JEWELRY_DESERT_FOX_JEWELLERY_22_cls-9" points="237.47 379.4 237.48 379.42 240.46 374.72 239.53 374.91 237.05 378.34 237.47 379.4" />
  <polygon class="GUNDAN_DESERT_FOX_JEWELRY_DESERT_FOX_JEWELLERY_22_cls-10" points="236.43 377.94 236.39 376.44 234.71 377.53 236.43 377.94" />
  <polygon class="GUNDAN_DESERT_FOX_JEWELRY_DESERT_FOX_JEWELLERY_22_cls-9" points="237.01 372.4 236.96 375.47 237.94 375.01 238.96 374.53 238.27 373.24 237.04 370.98 237.01 372.4" />
  <polygon class="GUNDAN_DESERT_FOX_JEWELRY_DESERT_FOX_JEWELLERY_22_cls-11" points="236.42 373.44 236.48 369.9 236.04 367.71 234.66 364.49 233.72 362.31 230.81 361.77 229.57 362.01 227.09 363.62 226.99 369.5 227.42 371.69 229.75 377.08 232.66 377.63 233.89 377.38 236.38 375.77 236.42 373.44" />
  <polygon class="GUNDAN_DESERT_FOX_JEWELRY_DESERT_FOX_JEWELLERY_22_cls-10" points="226.42 369.62 224.76 366.55 226.48 375.25 226.85 371.79 226.42 369.62" />
  <polygon class="GUNDAN_DESERT_FOX_JEWELRY_DESERT_FOX_JEWELLERY_22_cls-11" points="237.04 369.77 238.71 372.84 236.99 364.14 236.62 367.61 237.04 369.77" />
  <polygon class="GUNDAN_DESERT_FOX_JEWELRY_DESERT_FOX_JEWELLERY_22_cls-10" points="226.47 361.95 224.98 364.02 226.51 363.3 226.47 361.95" />
  <polygon class="GUNDAN_DESERT_FOX_JEWELRY_DESERT_FOX_JEWELLERY_22_cls-10" points="232.94 360.29 231.51 361.32 233.48 361.69 232.94 360.29" />
  <polygon class="GUNDAN_DESERT_FOX_JEWELRY_DESERT_FOX_JEWELLERY_22_cls-10" points="227.08 362.95 228.76 361.87 227.04 361.45 227.08 362.95" />
  <polygon class="GUNDAN_DESERT_FOX_JEWELRY_DESERT_FOX_JEWELLERY_22_cls-11" points="232.78 358.31 226.44 359.56 226.62 359.99 226.93 360.77 232.79 359.61 232.78 358.31" />
  <polygon class="GUNDAN_DESERT_FOX_JEWELRY_DESERT_FOX_JEWELLERY_22_cls-11" points="225.98 359.97 222.91 364.69 223.94 364.49 226.42 361.05 225.98 359.97" />
  <polygon class="GUNDAN_DESERT_FOX_JEWELRY_DESERT_FOX_JEWELLERY_22_cls-10" points="236.97 361.92 237.99 361.71 233.36 358.51 233.37 359.52 233.37 359.68 236.97 361.92" />
  <rect class="GUNDAN_DESERT_FOX_JEWELRY_DESERT_FOX_JEWELLERY_22_cls-11" x="224.02" y="365.06" width="1.04" height="12.12" transform="translate(-67.63 50.52) rotate(-11.17)" />
  <rect class="GUNDAN_DESERT_FOX_JEWELRY_DESERT_FOX_JEWELLERY_22_cls-11" x="238.41" y="362.22" width="1.04" height="12.12" transform="translate(-66.81 53.25) rotate(-11.17)" />
  <polygon class="GUNDAN_DESERT_FOX_JEWELRY_DESERT_FOX_JEWELLERY_22_cls-9" points="224.5 364.87 226.43 368.42 226.5 363.92 224.5 364.87" />
  <polygon class="GUNDAN_DESERT_FOX_JEWELRY_DESERT_FOX_JEWELLERY_22_cls-9" points="230.69 361.22 231.87 360.36 228.06 361.12 229.47 361.46 230.69 361.22" />
  <polygon class="GUNDAN_DESERT_FOX_JEWELRY_DESERT_FOX_JEWELLERY_22_cls-10" points="238.49 375.38 236.96 376.1 236.98 377.03 236.99 377.44 238.49 375.38" />
  <polygon class="GUNDAN_DESERT_FOX_JEWELRY_DESERT_FOX_JEWELLERY_22_cls-9" points="226.88 376.92 227.95 376.97 229.09 377.03 227.31 372.9 226.88 376.92" />
  <polygon class="GUNDAN_DESERT_FOX_JEWELRY_DESERT_FOX_JEWELLERY_22_cls-9" points="233.86 361.08 234.14 361.79 235.82 361.88 235.48 361.67 233.66 360.53 233.86 361.08" />
  <polygon class="GUNDAN_DESERT_FOX_JEWELRY_DESERT_FOX_JEWELLERY_22_cls-10" points="230.53 379.11 231.96 378.07 229.99 377.7 230.53 379.11" />
  <polygon class="GUNDAN_DESERT_FOX_JEWELRY_DESERT_FOX_JEWELLERY_22_cls-9" points="230.68 379.78 230.69 380.62 230.69 381.09 237.03 379.84 236.54 378.63 230.68 379.78" />
  <polygon class="GUNDAN_DESERT_FOX_JEWELRY_DESERT_FOX_JEWELLERY_22_cls-10" points="230.1 379.78 230.1 379.71 226.5 377.48 225.57 377.66 230.11 380.87 230.1 379.78" />
  <polygon class="GUNDAN_DESERT_FOX_JEWELRY_DESERT_FOX_JEWELLERY_22_cls-9" points="232.78 378.18 231.59 379.03 235.41 378.28 233.99 377.94 232.78 378.18" />
  <polygon class="GUNDAN_DESERT_FOX_JEWELRY_DESERT_FOX_JEWELLERY_22_cls-10" points="229.6 378.32 229.33 377.6 227.65 377.52 227.92 377.69 229.81 378.86 229.6 378.32" />
  <path class="GUNDAN_DESERT_FOX_JEWELRY_DESERT_FOX_JEWELLERY_22_cls-12" d="M321.83,136.3a16.13,16.13,0,1,1-10.31-1.37,5.56,5.56,0,0,1,.79,3.87,12.19,12.19,0,1,0,7.87,1.09A5.46,5.46,0,0,1,321.83,136.3Z" />
  <path class="GUNDAN_DESERT_FOX_JEWELRY_DESERT_FOX_JEWELLERY_22_cls-13" d="M330.68,152.75a16.14,16.14,0,1,1-19.16-17.82,5.56,5.56,0,0,1,.79,3.87,12.19,12.19,0,1,0,7.87,1.09,5.46,5.46,0,0,1,1.65-3.59A16.14,16.14,0,0,1,330.68,152.75Z" />
  <path class="GUNDAN_DESERT_FOX_JEWELRY_DESERT_FOX_JEWELLERY_22_cls-14" d="M312.72,141.73s.16-5.8-1.75-9.3" />
  <path class="GUNDAN_DESERT_FOX_JEWELRY_DESERT_FOX_JEWELLERY_22_cls-12" d="M326,113.23a16.13,16.13,0,1,1-10.39.34,5.46,5.46,0,0,1,1.41,3.69,12.19,12.19,0,1,0,8-.22A5.48,5.48,0,0,1,326,113.23Z" />
  <path class="GUNDAN_DESERT_FOX_JEWELRY_DESERT_FOX_JEWELLERY_22_cls-13" d="M337.44,128a16.14,16.14,0,1,1-21.83-14.42,5.46,5.46,0,0,1,1.41,3.69,12.19,12.19,0,1,0,8-.22,5.48,5.48,0,0,1,1-3.81A16.12,16.12,0,0,1,337.44,128Z" />
  <path class="GUNDAN_DESERT_FOX_JEWELRY_DESERT_FOX_JEWELLERY_22_cls-14" d="M317.91,120.07s-.8-5.74-3.25-8.87" />
</svg>