<svg id="jewelry" xmlns="http://www.w3.org/2000/svg" viewBox="0 0 432 432">
  <defs>
    <style>.GUNDAN_DESERT_FOX_JEWELRY_DESERT_FOX_JEWELLERY_1_cls-1{fill:#6d2316;}.GUNDAN_DESERT_FOX_JEWELRY_DESERT_FOX_JEWELLERY_1_cls-2{fill:#b9876e;}.GUNDAN_DESERT_FOX_JEWELRY_DESERT_FOX_JEWELLERY_1_cls-3{fill:#645433;}.GUNDAN_DESERT_FOX_JEWELRY_DESERT_FOX_JEWELLERY_1_cls-4{fill:#766e4a;}.GUNDAN_DESERT_FOX_JEWELRY_DESERT_FOX_JEWELLERY_1_cls-5{fill:#dfca6d;}.GUNDAN_DESERT_FOX_JEWELRY_DESERT_FOX_JEWELLERY_1_cls-6{fill:#ee9546;}.GUNDAN_DESERT_FOX_JEWELRY_DESERT_FOX_JEWELLERY_1_cls-7{fill:#fbd055;}.GUNDAN_DESERT_FOX_JEWELRY_DESERT_FOX_JEWELLERY_1_cls-8{fill:#b42025;}.GUNDAN_DESERT_FOX_JEWELRY_DESERT_FOX_JEWELLERY_1_cls-9{fill:#ee3642;}.GUNDAN_DESERT_FOX_JEWELRY_DESERT_FOX_JEWELLERY_1_cls-10,.GUNDAN_DESERT_FOX_JEWELRY_DESERT_FOX_JEWELLERY_1_cls-11{fill:none;stroke:#000;stroke-linecap:round;stroke-miterlimit:10;}.GUNDAN_DESERT_FOX_JEWELRY_DESERT_FOX_JEWELLERY_1_cls-10{stroke-width:0.9px;}.GUNDAN_DESERT_FOX_JEWELRY_DESERT_FOX_JEWELLERY_1_cls-11{stroke-width:0.74px;}</style>
  </defs>
  <path class="GUNDAN_DESERT_FOX_JEWELRY_DESERT_FOX_JEWELLERY_1_cls-1" d="M185.17,328.54a.4.4,0,0,1-.35-.21c-.76-1.27-4.63-8.28-8.54-24.87-.33-1.92-.93-5.46,1.47-5.89h.07a.48.48,0,0,1,.23.07.41.41,0,0,1,.17.26c3.38,19.34,7.9,27.73,8.78,29.22a.49.49,0,0,1,.05.34.39.39,0,0,1-.19.26l-1.51.78A.41.41,0,0,1,185.17,328.54Z" />
  <path d="M177.82,298c3.7,21.19,8.79,29.25,8.86,29.4l-1.51.78c-.07-.14-4.24-6.72-8.5-24.77-.42-2.44-.67-5.08,1.15-5.41m0-.8h-.14c-2.79.51-2.12,4.44-1.8,6.33a.07.07,0,0,0,0,.05c3.93,16.64,7.82,23.7,8.56,24.95a.82.82,0,0,0,.72.44.77.77,0,0,0,.36-.09l1.52-.78a.81.81,0,0,0,.35-1.07l-.06-.1c-.87-1.47-5.36-9.8-8.73-29.08a.77.77,0,0,0-.33-.51.75.75,0,0,0-.46-.15Z" />
  <path class="GUNDAN_DESERT_FOX_JEWELRY_DESERT_FOX_JEWELLERY_1_cls-1" d="M248.92,327.16l-.14,0-1.59-.59A.4.4,0,0,1,247,326c.16-.68,2.51-14,3.5-27.63a.4.4,0,0,1,.19-.31.42.42,0,0,1,.21-.06.41.41,0,0,1,.16,0c1.51.62,1.55,3.64,1.55,4-.75,16.1-3.25,24.79-3.27,24.85a.43.43,0,0,1-.21.23A.47.47,0,0,1,248.92,327.16Z" />
  <path d="M250.86,298.44c1,.42,1.31,2.49,1.31,3.62-.75,15.91-3.2,24.57-3.25,24.7l-1.59-.59c0-.14,2.5-13.57,3.53-27.73m0-.8a.81.81,0,0,0-.42.12.78.78,0,0,0-.37.62c-1,13.45-3.31,26.67-3.51,27.59a.8.8,0,0,0,.5.95l1.58.59a.69.69,0,0,0,.28.05.78.78,0,0,0,.75-.52c0-.06,2.54-8.8,3.3-25,0-.64-.09-3.69-1.8-4.39a.81.81,0,0,0-.31-.06Z" />
  <path class="GUNDAN_DESERT_FOX_JEWELRY_DESERT_FOX_JEWELLERY_1_cls-2" d="M190.35,335.3a2.5,2.5,0,0,1-.1-5h.11a2.5,2.5,0,0,1,.1,5Z" />
  <path d="M190.36,330.53a2.27,2.27,0,0,1,.09,4.54h-.1a2.27,2.27,0,0,1-.09-4.54h.1m0-.46h-.12a2.72,2.72,0,0,0,.11,5.44h.12a2.73,2.73,0,0,0-.11-5.45Z" />
  <path class="GUNDAN_DESERT_FOX_JEWELRY_DESERT_FOX_JEWELLERY_1_cls-2" d="M190.16,340.32a4.24,4.24,0,0,1-.51,0,.21.21,0,0,1-.16-.08.21.21,0,0,1-.05-.17l0-.45a6.14,6.14,0,0,1-.93-.19l-.13.44a.22.22,0,0,1-.22.16h-.07l-.48-.17a.22.22,0,0,1-.13-.12.25.25,0,0,1,0-.17l.16-.42a7.49,7.49,0,0,1-.84-.44l-.25.39a.22.22,0,0,1-.14.09h0a.16.16,0,0,1-.12,0c-.15-.09-.29-.19-.43-.29a.22.22,0,0,1-.08-.15.21.21,0,0,1,0-.17l.27-.36a7.08,7.08,0,0,1-.7-.64l-.34.3a.21.21,0,0,1-.15.05.23.23,0,0,1-.17-.07l-.33-.4a.22.22,0,0,1,.05-.31l.36-.28a5.7,5.7,0,0,1-.5-.81l-.41.2a.2.2,0,0,1-.1,0,.22.22,0,0,1-.21-.12l-.21-.47a.23.23,0,0,1,0-.18.23.23,0,0,1,.12-.12l.42-.17a8.7,8.7,0,0,1-.26-.91l-.49.08a.22.22,0,0,1-.22-.18c0-.17-.06-.34-.08-.51a.26.26,0,0,1,0-.17.28.28,0,0,1,.15-.08l.46-.05a2.29,2.29,0,0,1,0-.25,5.43,5.43,0,0,1,0-.7l-.46,0a.28.28,0,0,1-.15-.08.22.22,0,0,1,0-.17c0-.17,0-.34.07-.51a.22.22,0,0,1,.22-.19l.48.08a7.36,7.36,0,0,1,.25-.92l-.42-.16a.25.25,0,0,1-.13-.12.25.25,0,0,1,0-.17c.06-.16.13-.32.2-.48a.23.23,0,0,1,.2-.13l.1,0,.41.2a7.4,7.4,0,0,1,.49-.82l-.36-.27a.24.24,0,0,1-.05-.32c.1-.14.21-.27.32-.4a.25.25,0,0,1,.17-.08.22.22,0,0,1,.15.06l.35.29a7,7,0,0,1,.68-.65l-.28-.36a.25.25,0,0,1,0-.17.24.24,0,0,1,.09-.15c.13-.1.27-.21.41-.3a.2.2,0,0,1,.13,0,.26.26,0,0,1,.19.1l.25.38a8.37,8.37,0,0,1,.84-.44l-.17-.43a.22.22,0,0,1,.12-.29l.48-.18h.07a.22.22,0,0,1,.22.16l.14.43a9,9,0,0,1,.93-.2l-.05-.45a.21.21,0,0,1,.2-.25l.51,0h0a.22.22,0,0,1,.22.22l0,.44h.08a6.36,6.36,0,0,1,.87.06l.07-.44a.23.23,0,0,1,.23-.19h0l.51.1a.21.21,0,0,1,.14.1.25.25,0,0,1,0,.17l-.11.45a6.78,6.78,0,0,1,.9.3l.19-.41a.23.23,0,0,1,.21-.13l.09,0,.46.23a.19.19,0,0,1,.11.14.2.2,0,0,1,0,.17l-.22.4q.41.25.78.54l.3-.34a.2.2,0,0,1,.17-.08.21.21,0,0,1,.15.05l.38.35a.22.22,0,0,1,0,.32l-.32.33a6.14,6.14,0,0,1,.6.73l.38-.26a.22.22,0,0,1,.13,0h0a.21.21,0,0,1,.15.09c.09.14.19.29.27.44a.23.23,0,0,1-.08.31l-.4.22a6.79,6.79,0,0,1,.39.87l.43-.14h.07l.1,0a.25.25,0,0,1,.12.13c.05.16.1.33.14.5a.23.23,0,0,1-.16.27l-.44.11a7.62,7.62,0,0,1,.14.94l.46,0a.22.22,0,0,1,.22.22c0,.19,0,.36,0,.53a.24.24,0,0,1-.23.22h-.46a7.32,7.32,0,0,1-.12.94l.44.1a.23.23,0,0,1,.17.28c0,.16-.08.33-.13.49a.26.26,0,0,1-.11.14l-.11,0h-.07l-.44-.13a6,6,0,0,1-.37.87l.4.22a.23.23,0,0,1,.09.31c-.08.15-.17.3-.26.44a.23.23,0,0,1-.19.1.28.28,0,0,1-.13,0l-.38-.25a6.94,6.94,0,0,1-.6.74l.33.32a.22.22,0,0,1,0,.32c-.12.12-.24.24-.37.35a.2.2,0,0,1-.15.06.25.25,0,0,1-.17-.08l-.3-.34a7.22,7.22,0,0,1-.77.56l.23.39a.23.23,0,0,1-.09.31,3.88,3.88,0,0,1-.45.24.18.18,0,0,1-.1,0h-.07a.21.21,0,0,1-.13-.11l-.2-.41a5.92,5.92,0,0,1-.89.32l.11.44a.25.25,0,0,1,0,.17.22.22,0,0,1-.14.11l-.5.1h0a.28.28,0,0,1-.13,0,.24.24,0,0,1-.09-.15l-.08-.45a5.71,5.71,0,0,1-.71.08h-.24v.45a.24.24,0,0,1-.07.16.23.23,0,0,1-.16.06Zm0-12.78a5.26,5.26,0,0,0,.21,10.52h.22a5.26,5.26,0,0,0-.21-10.51Z" />
  <path d="M190,325.51l0,.67h.29a6.23,6.23,0,0,1,1.06.09l.11-.67.49.1-.16.66a6.66,6.66,0,0,1,1.28.44l.29-.61.44.22-.33.6a7.18,7.18,0,0,1,1.12.77l.44-.52.37.34-.48.49a6.18,6.18,0,0,1,.86,1l.57-.38c.09.13.18.28.26.42l-.58.34a7.56,7.56,0,0,1,.55,1.23l.64-.21c.05.16.1.32.14.48l-.65.17a6.56,6.56,0,0,1,.19,1.34l.68,0v0c0,.16,0,.33,0,.49H197a6.64,6.64,0,0,1-.17,1.34l.66.15c0,.17-.08.33-.13.49l-.65-.21a7.33,7.33,0,0,1-.53,1.25l.59.33c-.08.14-.16.29-.25.43l-.57-.37a7.22,7.22,0,0,1-.85,1.05l.48.48a3.89,3.89,0,0,1-.36.34l-.45-.5a6.28,6.28,0,0,1-1.1.79l.34.58a3.75,3.75,0,0,1-.44.24l-.3-.61a6.61,6.61,0,0,1-1.27.46l.17.66-.49.1-.12-.67a5.27,5.27,0,0,1-.9.11h-.45l0,.68-.49,0,.06-.68a5.92,5.92,0,0,1-1.33-.27l-.2.65a3.71,3.71,0,0,1-.47-.16L188,339a6.2,6.2,0,0,1-1.2-.62l-.37.57c-.14-.09-.28-.18-.41-.28l.4-.54a7.2,7.2,0,0,1-1-.92l-.51.45c-.11-.13-.22-.25-.32-.38l.54-.42a7.11,7.11,0,0,1-.71-1.15l-.61.3c-.08-.15-.14-.3-.21-.46l.64-.25a6.47,6.47,0,0,1-.38-1.3l-.67.12c0-.16,0-.33-.07-.49l.67-.08c0-.15,0-.3,0-.46a8.72,8.72,0,0,1,0-.89l-.67-.07a4.1,4.1,0,0,1,.06-.49l.66.11a7.25,7.25,0,0,1,.36-1.31l-.63-.24c.06-.16.12-.31.19-.46l.62.29a6.21,6.21,0,0,1,.69-1.17l-.54-.4a4.08,4.08,0,0,1,.31-.39l.52.44a6.65,6.65,0,0,1,1-.93l-.42-.54.41-.29.38.57a6.48,6.48,0,0,1,1.19-.64l-.25-.63.46-.17.21.64a7.31,7.31,0,0,1,1.33-.28l-.08-.68c.17,0,.33,0,.5,0m.31,12.77h.23a5.49,5.49,0,0,0-.22-11h-.23a5.48,5.48,0,0,0,.22,11M190,325.05h0l-.53,0a.48.48,0,0,0-.3.17.44.44,0,0,0-.1.33l0,.24a4.54,4.54,0,0,0-.53.12l-.08-.23a.38.38,0,0,0-.22-.26.41.41,0,0,0-.21,0,.36.36,0,0,0-.14,0,4.84,4.84,0,0,0-.49.18.44.44,0,0,0-.25.59l.09.23a4.37,4.37,0,0,0-.48.25l-.14-.2a.47.47,0,0,0-.28-.2h-.09a.43.43,0,0,0-.25.07l-.43.31a.45.45,0,0,0-.08.64l.14.19-.39.37-.18-.16a.48.48,0,0,0-.3-.11h0a.46.46,0,0,0-.31.15,4.35,4.35,0,0,0-.33.42.45.45,0,0,0,.09.63l.19.14c-.1.15-.19.31-.28.47l-.21-.1a.45.45,0,0,0-.2,0,.39.39,0,0,0-.15,0,.5.5,0,0,0-.26.24c-.07.16-.14.32-.2.48a.43.43,0,0,0,0,.35.4.4,0,0,0,.25.24l.22.09c-.06.17-.1.34-.15.52l-.23,0h-.07a.5.5,0,0,0-.27.08.49.49,0,0,0-.18.3,4.6,4.6,0,0,0-.06.52.44.44,0,0,0,.4.49l.24,0a4.17,4.17,0,0,0,0,.5v0l-.23,0a.44.44,0,0,0-.4.49,4.51,4.51,0,0,0,.08.53.44.44,0,0,0,.44.37h.08l.24,0a4.44,4.44,0,0,0,.15.52l-.23.09a.46.46,0,0,0-.25.59c.07.16.14.33.22.49a.45.45,0,0,0,.41.25.34.34,0,0,0,.19-.05l.22-.1c.09.16.19.31.29.46l-.19.15a.45.45,0,0,0-.09.63l.34.41a.46.46,0,0,0,.31.15h0a.46.46,0,0,0,.3-.11l.18-.16.4.37-.14.19a.45.45,0,0,0,.09.63c.14.11.29.21.43.3a.44.44,0,0,0,.63-.13l.13-.2.48.24-.08.23a.44.44,0,0,0,.26.58,4.24,4.24,0,0,0,.5.18l.13,0a.46.46,0,0,0,.43-.32l.08-.23.53.1,0,.24a.45.45,0,0,0,.4.5l.53,0h0a.44.44,0,0,0,.31-.13.46.46,0,0,0,.15-.31v-.24h0l.51,0,0,.23a.45.45,0,0,0,.45.37h.08l.52-.11a.46.46,0,0,0,.33-.55l-.06-.23.51-.19.1.22a.53.53,0,0,0,.26.23l.15,0a.46.46,0,0,0,.2-.05c.16-.07.31-.16.47-.24a.46.46,0,0,0,.21-.28.45.45,0,0,0,0-.34l-.12-.21a4.91,4.91,0,0,0,.44-.31l.16.17a.47.47,0,0,0,.31.16h0a.42.42,0,0,0,.3-.12l.39-.36a.48.48,0,0,0,.13-.32.47.47,0,0,0-.14-.32l-.17-.17L196,337l.2.13a.46.46,0,0,0,.63-.14c.09-.14.18-.3.27-.45a.46.46,0,0,0-.18-.62l-.21-.11a5.32,5.32,0,0,0,.21-.5l.24.07.13,0a.46.46,0,0,0,.43-.32c.05-.17.1-.34.14-.51a.45.45,0,0,0-.34-.55l-.23,0c0-.18,0-.36.07-.54h.25a.44.44,0,0,0,.31-.13.41.41,0,0,0,.14-.31,4.68,4.68,0,0,0,0-.53.51.51,0,0,0-.15-.33.49.49,0,0,0-.31-.13h0l-.24,0a5,5,0,0,0-.08-.54l.23-.06a.46.46,0,0,0,.33-.55,4.91,4.91,0,0,0-.15-.51.47.47,0,0,0-.22-.26.54.54,0,0,0-.21-.05l-.14,0-.23.08c-.07-.17-.14-.34-.22-.5l.21-.12a.46.46,0,0,0,.17-.62l-.28-.45a.46.46,0,0,0-.38-.2.46.46,0,0,0-.25.08l-.2.14a4.87,4.87,0,0,0-.35-.42l.17-.17a.46.46,0,0,0,0-.64q-.19-.19-.39-.36a.48.48,0,0,0-.3-.11.43.43,0,0,0-.34.16l-.16.18c-.15-.1-.29-.21-.45-.31l.12-.21a.45.45,0,0,0-.18-.61,4.16,4.16,0,0,0-.47-.24.41.41,0,0,0-.19,0,.45.45,0,0,0-.41.27l-.1.21-.52-.17.06-.24a.46.46,0,0,0-.34-.54,4.76,4.76,0,0,0-.52-.1h-.07a.46.46,0,0,0-.45.38l0,.23-.54,0v-.23a.44.44,0,0,0-.15-.32.42.42,0,0,0-.3-.12Zm.31,12.78a5,5,0,0,1-3.7-8.44,5,5,0,0,1,3.5-1.62h.21a5,5,0,0,1,.2,10.07Z" />
  <path class="GUNDAN_DESERT_FOX_JEWELRY_DESERT_FOX_JEWELLERY_1_cls-2" d="M244.12,333.64a2.48,2.48,0,0,1-2.49-2.39,2.42,2.42,0,0,1,.66-1.79,2.48,2.48,0,0,1,1.73-.81h.1a2.5,2.5,0,0,1,.11,5Z" />
  <path d="M244.12,328.88a2.27,2.27,0,0,1,.1,4.54h-.1a2.27,2.27,0,0,1-.09-4.54h.09m0-.46H244a2.72,2.72,0,0,0,.11,5.44h.12a2.73,2.73,0,0,0-.12-5.45Z" />
  <path class="GUNDAN_DESERT_FOX_JEWELRY_DESERT_FOX_JEWELLERY_1_cls-2" d="M243.93,338.67a4.53,4.53,0,0,1-.52,0,.23.23,0,0,1-.2-.25l0-.45a6.14,6.14,0,0,1-.93-.19l-.13.44a.22.22,0,0,1-.22.16h-.07l-.48-.17a.21.21,0,0,1-.13-.29l.16-.43a5.55,5.55,0,0,1-.84-.43l-.25.38a.24.24,0,0,1-.19.11.2.2,0,0,1-.13,0l-.42-.29a.23.23,0,0,1,0-.32l.27-.36a8.57,8.57,0,0,1-.7-.64l-.34.3a.27.27,0,0,1-.15,0h0a.22.22,0,0,1-.16-.07l-.33-.4a.23.23,0,0,1,0-.16.2.2,0,0,1,.08-.15l.37-.28a6.87,6.87,0,0,1-.51-.81l-.41.2a.15.15,0,0,1-.09,0,.22.22,0,0,1-.21-.12l-.21-.47a.24.24,0,0,1,.13-.3l.42-.17a7.25,7.25,0,0,1-.26-.91l-.49.08a.22.22,0,0,1-.22-.18c0-.17-.06-.34-.08-.51a.26.26,0,0,1,.05-.17.28.28,0,0,1,.15-.08l.45-.05c0-.09,0-.17,0-.25a5.43,5.43,0,0,1,0-.7l-.46,0a.23.23,0,0,1-.2-.25l.06-.51a.24.24,0,0,1,.23-.19l.48.08a6,6,0,0,1,.25-.92l-.42-.16a.22.22,0,0,1-.13-.29c.06-.16.13-.32.2-.48a.23.23,0,0,1,.2-.13l.1,0,.41.2a7.4,7.4,0,0,1,.49-.82l-.37-.27a.22.22,0,0,1-.08-.15.21.21,0,0,1,0-.17c.1-.14.21-.27.32-.4a.23.23,0,0,1,.17-.08.22.22,0,0,1,.15.06l.35.29a7,7,0,0,1,.68-.65l-.28-.36a.23.23,0,0,1,0-.32l.42-.3a.2.2,0,0,1,.13,0,.22.22,0,0,1,.18.1l.26.38a8.37,8.37,0,0,1,.84-.44l-.18-.43a.23.23,0,0,1,.13-.29l.48-.18h.07a.23.23,0,0,1,.11,0,.21.21,0,0,1,.11.13l.14.43a7,7,0,0,1,.93-.2l0-.45a.25.25,0,0,1,0-.17.21.21,0,0,1,.16-.08l.51,0h0a.22.22,0,0,1,.15.06.21.21,0,0,1,.07.15l0,.45h.07a6.4,6.4,0,0,1,.88.06l.07-.45a.24.24,0,0,1,.23-.19h0a4.59,4.59,0,0,1,.51.1.21.21,0,0,1,.14.1.25.25,0,0,1,0,.17l-.11.44a8.67,8.67,0,0,1,.9.31l.19-.41a.23.23,0,0,1,.21-.13l.09,0,.46.23a.22.22,0,0,1,.11.14.2.2,0,0,1,0,.17l-.22.4a8.33,8.33,0,0,1,.78.54l.3-.35a.22.22,0,0,1,.17-.07.23.23,0,0,1,.15.05l.38.35a.23.23,0,0,1,.06.16.25.25,0,0,1-.06.16l-.32.32a8.3,8.3,0,0,1,.6.73l.38-.25a.22.22,0,0,1,.13,0,.26.26,0,0,1,.19.1l.27.44a.24.24,0,0,1-.08.31l-.4.22a6.79,6.79,0,0,1,.39.87l.43-.14h.07a.24.24,0,0,1,.22.15c.05.16.1.33.14.5a.22.22,0,0,1-.17.27l-.43.11c.06.31.11.62.14.94l.46,0a.21.21,0,0,1,.22.21c0,.2,0,.37,0,.54a.24.24,0,0,1-.23.22H251a7.55,7.55,0,0,1-.12.94l.44.1a.24.24,0,0,1,.14.1.29.29,0,0,1,0,.18,4.5,4.5,0,0,1-.14.49.16.16,0,0,1-.11.13.19.19,0,0,1-.1,0H251l-.44-.13a6.68,6.68,0,0,1-.37.87l.4.22a.26.26,0,0,1,.11.14.2.2,0,0,1,0,.17c-.08.15-.17.3-.26.44a.23.23,0,0,1-.19.1.28.28,0,0,1-.13,0l-.38-.25a6.94,6.94,0,0,1-.6.74l.33.32a.22.22,0,0,1,0,.32c-.12.12-.24.24-.37.35a.2.2,0,0,1-.15.06h0a.21.21,0,0,1-.16-.08l-.3-.34a7.22,7.22,0,0,1-.77.56l.23.39a.25.25,0,0,1,0,.17.26.26,0,0,1-.11.14l-.45.24a.2.2,0,0,1-.1,0,.2.2,0,0,1-.2-.13l-.2-.4a6.34,6.34,0,0,1-.89.32l.11.44a.25.25,0,0,1,0,.17.22.22,0,0,1-.14.11l-.5.1h0a.28.28,0,0,1-.13,0,.24.24,0,0,1-.09-.15l-.08-.45c-.24,0-.47.06-.71.08h-.24v.45a.24.24,0,0,1-.23.22Zm0-12.78a5.26,5.26,0,0,0,.21,10.52h.22a5.26,5.26,0,0,0-.21-10.51Z" />
  <path d="M243.81,323.85l0,.68h.29a6.23,6.23,0,0,1,1.06.09l.11-.67.49.1-.16.66a6,6,0,0,1,1.28.44l.29-.61.44.22-.33.6a7.18,7.18,0,0,1,1.12.77l.44-.52.37.34-.48.49a6.18,6.18,0,0,1,.86,1l.57-.38c.09.13.18.28.26.42l-.59.34a6.83,6.83,0,0,1,.56,1.23l.64-.21c.05.16.1.32.14.48l-.65.17a6.56,6.56,0,0,1,.19,1.34l.68,0v.51h-.68a6.64,6.64,0,0,1-.17,1.34l.66.15c0,.16-.08.33-.13.48l-.65-.2a7.33,7.33,0,0,1-.53,1.25l.59.33c-.08.14-.16.29-.25.43l-.58-.37a6.56,6.56,0,0,1-.84,1.05l.48.48c-.11.12-.24.23-.36.34l-.45-.5a6.08,6.08,0,0,1-1.1.78l.34.59c-.14.09-.29.16-.44.24l-.3-.61a6.61,6.61,0,0,1-1.27.46l.17.66-.49.1-.12-.67a5.53,5.53,0,0,1-.9.11H244l0,.68-.5,0,.07-.67a7.29,7.29,0,0,1-1.33-.27l-.2.65-.47-.16.24-.63a6.49,6.49,0,0,1-1.2-.62l-.37.57c-.14-.09-.28-.18-.41-.28l.4-.54a7.2,7.2,0,0,1-1-.92l-.51.45c-.11-.13-.22-.25-.32-.39l.54-.41a7.16,7.16,0,0,1-.72-1.15l-.6.3c-.08-.15-.14-.3-.21-.46l.64-.25a6.47,6.47,0,0,1-.38-1.3l-.67.12c0-.17-.05-.33-.07-.5l.67-.07c0-.15,0-.3,0-.46a6.56,6.56,0,0,1,0-.89l-.67-.07a4.1,4.1,0,0,1,.06-.49l.66.11a7,7,0,0,1,.36-1.31l-.63-.24c.06-.16.12-.31.19-.46l.62.28a6.46,6.46,0,0,1,.69-1.16l-.54-.4a4.08,4.08,0,0,1,.31-.39l.52.44a6.17,6.17,0,0,1,1-.93l-.42-.54.41-.29.38.56a6.44,6.44,0,0,1,1.19-.63l-.26-.63.47-.17.21.64a7.31,7.31,0,0,1,1.33-.28l-.08-.68.5,0m.31,12.78h.23a5.49,5.49,0,0,0-.22-11h-.23a5.49,5.49,0,0,0,.22,11m-.31-13.23h0l-.53,0a.48.48,0,0,0-.3.17.44.44,0,0,0-.1.33l0,.24a4.54,4.54,0,0,0-.53.12l-.08-.23a.46.46,0,0,0-.22-.27.52.52,0,0,0-.21,0,.36.36,0,0,0-.14,0,5,5,0,0,0-.5.18.46.46,0,0,0-.25.59l.1.22a5.42,5.42,0,0,0-.48.26l-.14-.2a.45.45,0,0,0-.37-.21.5.5,0,0,0-.26.08c-.14.1-.29.2-.42.31a.46.46,0,0,0-.09.64l.15.19-.39.37-.18-.16a.48.48,0,0,0-.3-.11.46.46,0,0,0-.34.16c-.12.14-.23.27-.33.41a.46.46,0,0,0-.09.34.45.45,0,0,0,.18.3l.19.14c-.1.15-.19.31-.28.47l-.22-.1a.41.41,0,0,0-.19-.05l-.15,0a.47.47,0,0,0-.26.24c-.07.16-.14.32-.2.48a.45.45,0,0,0,.26.59l.22.08a5.26,5.26,0,0,0-.15.53l-.23,0h-.07a.5.5,0,0,0-.27.08.49.49,0,0,0-.18.3c0,.17-.05.35-.07.52a.45.45,0,0,0,.41.49l.24,0a4.17,4.17,0,0,0,0,.5v0l-.23,0a.53.53,0,0,0-.31.17.49.49,0,0,0-.09.33c0,.18,0,.35.07.53a.48.48,0,0,0,.19.29.5.5,0,0,0,.26.08H237l.24,0a4.44,4.44,0,0,0,.15.52l-.23.09a.42.42,0,0,0-.24.25.45.45,0,0,0,0,.34c.07.16.14.33.22.48a.4.4,0,0,0,.26.23l.15,0a.45.45,0,0,0,.19-.05l.22-.1c.09.15.18.31.29.46l-.19.15a.45.45,0,0,0-.18.3.47.47,0,0,0,.09.33c.11.14.22.28.34.41a.46.46,0,0,0,.31.15h0a.46.46,0,0,0,.3-.11l.18-.16.4.37-.14.19a.39.39,0,0,0-.09.33.45.45,0,0,0,.18.3,4.15,4.15,0,0,0,.43.3.45.45,0,0,0,.25.07h.09a.44.44,0,0,0,.29-.19l.13-.2.48.24-.08.23a.44.44,0,0,0,.26.58c.16.07.33.12.5.18l.13,0a.46.46,0,0,0,.43-.32l.07-.23.54.1,0,.24a.47.47,0,0,0,.41.5l.53,0h0a.44.44,0,0,0,.31-.13.41.41,0,0,0,.14-.31v-.24h0l.51,0,0,.23a.44.44,0,0,0,.19.29.42.42,0,0,0,.26.08h.08l.52-.11a.46.46,0,0,0,.33-.55l-.06-.23.51-.19.1.21a.45.45,0,0,0,.41.26.49.49,0,0,0,.2-.05l.46-.24a.45.45,0,0,0,.17-.62l-.12-.21.44-.32.16.18a.47.47,0,0,0,.31.16h0a.42.42,0,0,0,.3-.12c.13-.11.26-.24.38-.36a.45.45,0,0,0,0-.64l-.17-.17.34-.42.2.13a.46.46,0,0,0,.63-.14l.27-.45a.47.47,0,0,0,0-.35.49.49,0,0,0-.22-.27l-.21-.11a5.49,5.49,0,0,0,.21-.51l.23.08.14,0a.42.42,0,0,0,.21-.06.41.41,0,0,0,.22-.26c.05-.17.1-.34.14-.51a.41.41,0,0,0-.06-.34.43.43,0,0,0-.28-.21l-.23-.05c0-.18.05-.36.07-.54h.25a.44.44,0,0,0,.31-.13.43.43,0,0,0,.14-.32,4.51,4.51,0,0,0,0-.52.51.51,0,0,0-.15-.33.44.44,0,0,0-.31-.13h-.25a4.85,4.85,0,0,0-.08-.53l.23-.06a.46.46,0,0,0,.33-.55,4.91,4.91,0,0,0-.15-.51.45.45,0,0,0-.43-.31l-.14,0-.23.08c-.07-.17-.14-.34-.22-.5l.21-.12a.46.46,0,0,0,.17-.62l-.28-.45a.46.46,0,0,0-.38-.2.46.46,0,0,0-.25.08l-.2.14a4.87,4.87,0,0,0-.35-.42l.17-.17a.45.45,0,0,0,0-.64,3.33,3.33,0,0,0-.39-.36.46.46,0,0,0-.29-.11.43.43,0,0,0-.34.16l-.16.18-.45-.31L248,325a.45.45,0,0,0,0-.34.48.48,0,0,0-.22-.28l-.47-.24a.65.65,0,0,0-.19,0,.45.45,0,0,0-.41.26l-.1.22-.52-.17.06-.24a.5.5,0,0,0-.06-.34.41.41,0,0,0-.28-.2l-.52-.11h-.07a.5.5,0,0,0-.27.08.45.45,0,0,0-.18.3l0,.23a4.89,4.89,0,0,0-.54,0v-.24a.45.45,0,0,0-.45-.43Zm.31,12.78a5,5,0,0,1-.2-10.06h.21a5,5,0,0,1,.2,10.07Z" />
  <path class="GUNDAN_DESERT_FOX_JEWELRY_DESERT_FOX_JEWELLERY_1_cls-3" d="M199,353.84h-.42a.23.23,0,0,1-.21-.23.28.28,0,0,1-.08.15.25.25,0,0,1-.15.05h0l-.52-.06a.22.22,0,0,1-.18-.25.26.26,0,0,1-.1.13.28.28,0,0,1-.12,0h0l-.51-.13a.21.21,0,0,1-.15-.28h0a.23.23,0,0,1-.22.16h-.07l-.49-.19a.18.18,0,0,1-.12-.12.2.2,0,0,1,0-.17.23.23,0,0,1-.2.13l-.09,0-.47-.23a.23.23,0,0,1-.09-.31.22.22,0,0,1-.19.1.27.27,0,0,1-.12,0c-.15-.09-.29-.19-.43-.29a.22.22,0,0,1-.06-.31.25.25,0,0,1-.17.08.24.24,0,0,1-.14-.05l-.4-.34a.22.22,0,0,1-.08-.15.09.09,0,1,0-.1-.1h0a.23.23,0,0,1-.16-.06l-.35-.38a.27.27,0,0,1-.06-.17.23.23,0,0,1,.07-.15.24.24,0,0,1-.13.05.21.21,0,0,1-.18-.09c-.11-.13-.21-.28-.31-.42a.21.21,0,0,1,0-.17.29.29,0,0,1,.08-.14.2.2,0,0,1-.11,0,.24.24,0,0,1-.19-.1c-.09-.15-.18-.3-.26-.46a.21.21,0,0,1,.08-.29h-.16a.22.22,0,0,1-.13-.12l-.21-.47a.28.28,0,0,1,0-.18.34.34,0,0,1,.12-.12H191a.23.23,0,0,1-.21-.15,4.13,4.13,0,0,1-.15-.5.2.2,0,0,1,0-.17.19.19,0,0,1,.13-.1h0a.22.22,0,0,1-.22-.18c0-.17-.07-.34-.1-.51a.25.25,0,0,1,0-.17.22.22,0,0,1,.14-.09h0a.22.22,0,0,1-.22-.2c0-.17,0-.34,0-.5a.3.3,0,0,1,.06-.18.32.32,0,0,1,.14-.08.17.17,0,0,1-.14-.06.26.26,0,0,1-.07-.16c0-.18,0-.35,0-.53a.21.21,0,0,1,.22-.2h0a.19.19,0,0,1-.14-.09.26.26,0,0,1-.05-.17c0-.17.05-.34.08-.51a.31.31,0,0,1,.1-.15.28.28,0,0,1,.13,0h0a.26.26,0,0,1-.13-.1.26.26,0,0,1,0-.17c.05-.17.09-.34.14-.51a.25.25,0,0,1,.12-.13.17.17,0,0,1,.1,0H191a.24.24,0,0,1-.13-.11.23.23,0,0,1,0-.18c.06-.16.12-.32.19-.48a.25.25,0,0,1,.13-.12h.17a.21.21,0,0,1-.11-.13.25.25,0,0,1,0-.17l.25-.46a.24.24,0,0,1,.2-.11.23.23,0,0,1,.11,0,.19.19,0,0,1-.09-.14.25.25,0,0,1,0-.17l.3-.42a.24.24,0,0,1,.15-.09h0a.28.28,0,0,1,.13,0,.22.22,0,0,1,0-.31c.11-.13.23-.26.35-.38a.25.25,0,0,1,.16-.08h0a.2.2,0,0,1,.15.06.21.21,0,0,1,0-.15.2.2,0,0,1,.07-.16,4.4,4.4,0,0,1,.39-.35.24.24,0,0,1,.14,0h0a.21.21,0,0,1,.15.07.22.22,0,0,1,0-.16.24.24,0,0,1,.09-.15l.43-.3a.24.24,0,0,1,.12,0h0a.2.2,0,0,1,.13.09.24.24,0,0,1,.09-.3l.46-.25a.16.16,0,0,1,.1,0,.21.21,0,0,1,.19.11.24.24,0,0,1,.13-.29c.15-.07.32-.13.48-.19l.08,0,.09,0a.34.34,0,0,1,.12.12.18.18,0,0,1,0-.16.21.21,0,0,1,.13-.11l.5-.14H197a.15.15,0,0,1,.11,0,.19.19,0,0,1,.1.13.22.22,0,0,1,0-.16.23.23,0,0,1,.15-.1l.51-.08h0a.24.24,0,0,1,.14.05.22.22,0,0,1,.08.13.24.24,0,0,1,.06-.15.21.21,0,0,1,.15-.07l.52,0h0a.23.23,0,0,0,.46,0h0l.53,0a.23.23,0,0,1,.2.24.19.19,0,0,1,.09-.14.2.2,0,0,1,.13,0h0l.52.1a.22.22,0,0,1,.17.26.22.22,0,0,1,.22-.16h.06l.5.15a.25.25,0,0,1,.13.12.25.25,0,0,1,0,.17h0a.22.22,0,0,1,.21-.14.13.13,0,0,1,.08,0,5,5,0,0,1,.48.21.22.22,0,0,1,.11.29.26.26,0,0,1,.13-.1H203a.2.2,0,0,1,.11,0l.45.26a.21.21,0,0,1,.1.14.2.2,0,0,1,0,.17.21.21,0,0,1,.18-.09.22.22,0,0,1,.13,0l.42.31a.23.23,0,0,1,0,.31.2.2,0,0,1,.15-.06h0a.22.22,0,0,1,.15.06l.38.36a.23.23,0,0,1,.06.16.25.25,0,0,1,0,.15.24.24,0,0,1,.14-.05h0a.25.25,0,0,1,.16.08l.33.4a.22.22,0,0,1,.05.16.28.28,0,0,1-.08.15.19.19,0,0,1,.12,0,.26.26,0,0,1,.19.1l.29.43a.2.2,0,0,1,0,.17.22.22,0,0,1-.09.14.19.19,0,0,1,.1,0,.24.24,0,0,1,.2.12l.24.47a.25.25,0,0,1,0,.17.19.19,0,0,1-.1.12h.07a.15.15,0,0,1,.09,0,.2.2,0,0,1,.12.12,4.09,4.09,0,0,1,.18.49.2.2,0,0,1,0,.17.22.22,0,0,1-.12.11h0a.2.2,0,0,1,.11,0,.23.23,0,0,1,.11.13,4.7,4.7,0,0,1,.12.51.21.21,0,0,1-.16.26h0a.24.24,0,0,1,.13,0,.21.21,0,0,1,.09.15,4.43,4.43,0,0,1,.06.51.22.22,0,0,1-.05.17.22.22,0,0,1-.13.08.23.23,0,0,1,.22.21c0,.2,0,.37,0,.55a.18.18,0,0,1-.07.15.21.21,0,0,1-.14.07.27.27,0,0,1,.14.07.22.22,0,0,1,.05.17c0,.17,0,.35-.05.52a.22.22,0,0,1-.22.19h0a.23.23,0,0,1,.18.26c0,.17-.07.35-.12.51a.21.21,0,0,1-.1.14.21.21,0,0,1-.12,0h0a.22.22,0,0,1,.12.11.2.2,0,0,1,0,.17c-.05.17-.11.33-.17.5a.23.23,0,0,1-.21.14h-.08a.22.22,0,0,1,.11.29c-.07.16-.14.32-.22.48a.26.26,0,0,1-.14.11h-.06l-.1,0a.26.26,0,0,1,.1.13.25.25,0,0,1,0,.17c-.09.15-.18.3-.28.44a.21.21,0,0,1-.14.1h0a.21.21,0,0,1-.12,0,.28.28,0,0,1,.08.15.23.23,0,0,1,0,.16l-.33.41a.22.22,0,0,1-.15.08h0a.24.24,0,0,1-.14-.05.23.23,0,0,1,0,.31l-.37.37a.22.22,0,0,1-.15.06h0a.2.2,0,0,1-.15-.06.21.21,0,0,1,0,.15.21.21,0,0,1-.08.16c-.13.11-.26.22-.4.32a.27.27,0,0,1-.14.05.23.23,0,0,1-.17-.08.19.19,0,0,1,0,.15.21.21,0,0,1-.09.15l-.45.27a.2.2,0,0,1-.11,0h-.06a.26.26,0,0,1-.13-.1.22.22,0,0,1,0,.16.21.21,0,0,1-.11.13l-.48.23h-.08a.22.22,0,0,1-.21-.12.18.18,0,0,1,0,.16.23.23,0,0,1-.12.12l-.5.17h-.06a.22.22,0,0,1-.22-.16.25.25,0,0,1,0,.17.24.24,0,0,1-.14.1l-.51.11h0a.22.22,0,0,1-.13,0,.3.3,0,0,1-.09-.13.22.22,0,0,1-.19.24l-.52.05h0a.22.22,0,0,1-.15-.06.17.17,0,0,1-.07-.14.21.21,0,0,1-.07.15.24.24,0,0,1-.16.07ZM192.64,348a6.87,6.87,0,0,0,6.31,4.11h.28a6.93,6.93,0,0,0,4.24-1.7l-1.81-1.81a4.34,4.34,0,0,1-2.53.95H199a4.35,4.35,0,0,1-3.9-2.43Zm11.82,1.35a6.88,6.88,0,0,0-3.29-10.66l-.66,2.47a4.34,4.34,0,0,1,2,6.54ZM196,346.79a3.35,3.35,0,0,0,3,1.79h.14a3.28,3.28,0,0,0,1.88-.67l-1.26-1.26a1.73,1.73,0,0,1-.7.18h0a1.66,1.66,0,0,1-1.34-.63Zm5.78.27a3.32,3.32,0,0,0,.55-2,3.37,3.37,0,0,0-2.06-3l-.46,1.73a1.57,1.57,0,0,1,.77,1.3,1.61,1.61,0,0,1-.16.78Zm-3.1-8.74a6.82,6.82,0,0,0-4.79,2.22,6.89,6.89,0,0,0-1.82,5,8.42,8.42,0,0,0,.14,1.11l2.48-.66a3.68,3.68,0,0,1-.06-.56,4.34,4.34,0,0,1,4.16-4.52h.53l.45-2.52a7.49,7.49,0,0,0-.81-.05Zm.15,3.53a3.38,3.38,0,0,0-3.23,3.5c0,.12,0,.24,0,.35l1.71-.46a1.63,1.63,0,0,1,1.48-1.64l.31-1.75h-.31Z" />
  <path d="M198.85,336.81v.76h.41l0-.75.5,0-.08.76.41,0,.12-.74.5.1-.16.74.4.09.2-.72.48.15-.24.71c.13,0,.26.09.38.15l.29-.7.46.2-.32.68.36.19.36-.66c.15.08.3.16.44.25l-.4.64a4,4,0,0,1,.34.23l.44-.62.4.31-.47.59.32.26.5-.56.37.35-.54.53.29.3.56-.5c.11.12.22.26.32.39l-.59.47.25.32.61-.43.28.42-.64.4.21.35.66-.36c.08.15.16.3.23.45l-.68.32c.06.13.11.25.16.38l.7-.28c.07.15.12.31.18.47l-.71.24c0,.13.08.26.11.4L207,343a4.54,4.54,0,0,1,.12.5l-.74.15c0,.14.06.27.08.41l.74-.12c0,.17,0,.34.07.5l-.75.08c0,.13,0,.27,0,.41l.75,0v0c0,.17,0,.34,0,.51h-.76c0,.13,0,.27,0,.41l.75.05c0,.17,0,.34-.05.51l-.75-.1c0,.13,0,.27-.07.4l.74.14a4,4,0,0,1-.11.5l-.72-.18-.12.39.72.22c-.05.17-.1.33-.16.49l-.7-.27c-.05.13-.11.25-.17.38l.69.3c-.06.16-.14.31-.21.46l-.68-.34c-.06.12-.12.24-.19.36l.65.38-.27.43-.63-.42c-.08.11-.15.23-.23.33l.6.46-.32.39-.58-.49-.27.31.55.52-.36.36-.52-.56-.31.28.49.58-.4.31-.45-.6-.34.23.42.63-.43.27-.38-.66-.36.2.34.67-.45.22-.31-.7-.38.16.27.71-.48.16-.22-.72-.4.11.18.73-.5.1-.13-.74-.41.07.1.74-.51,0,0-.75-.19,0h-.22v.75h-.51l0-.75c-.14,0-.27,0-.41,0l-.08.75-.5-.07.12-.73-.4-.09-.16.74-.5-.12.21-.73c-.13,0-.26-.08-.39-.12l-.25.71a3.8,3.8,0,0,1-.47-.18l.28-.7-.37-.16-.33.68-.45-.23.37-.67-.36-.2-.4.64-.42-.28.44-.62-.33-.25-.47.59-.39-.32.5-.56-.29-.29-.54.53c-.12-.11-.23-.24-.34-.36l.56-.5c-.09-.11-.18-.21-.26-.32l-.59.47c-.11-.13-.21-.27-.31-.41l.62-.43-.23-.34-.64.4-.25-.44.66-.36-.19-.36-.68.32c-.07-.16-.14-.31-.2-.47l.7-.28c0-.13-.1-.25-.14-.38l-.72.24c-.05-.16-.1-.33-.14-.49l.72-.2-.09-.4-.74.16a4,4,0,0,1-.09-.5l.74-.11c0-.13,0-.27,0-.41l-.75.08a4,4,0,0,1,0-.49v0l.74,0c0-.14,0-.27,0-.41h-.76c0-.17,0-.34,0-.51l.75.06c0-.14,0-.28.05-.41l-.75-.1c0-.16,0-.33.08-.5l.74.14c0-.13.05-.27.08-.4l-.73-.18c0-.16.09-.33.14-.49l.72.23c0-.13.08-.27.13-.39l-.7-.27c.06-.15.12-.31.19-.47l.69.31c.06-.13.11-.25.18-.37l-.68-.35c.08-.15.16-.3.25-.44l.65.38a4,4,0,0,1,.22-.34l-.63-.42.29-.42.6.45c.08-.11.18-.21.26-.31l-.58-.49.34-.38.55.52.29-.29-.52-.55c.13-.11.25-.23.38-.33l.49.58.32-.26-.45-.6c.13-.11.27-.2.41-.3l.42.64a4,4,0,0,1,.34-.23l-.38-.64.45-.25.34.68c.12-.07.25-.12.37-.18l-.3-.69.47-.19.26.7.39-.12-.22-.73.49-.13.17.73a2.7,2.7,0,0,1,.41-.08l-.14-.75.5-.07.09.74c.14,0,.27,0,.41,0l-.05-.76.5,0M192,346.89l2.91-.77a4.54,4.54,0,0,1-.1-.74,4.12,4.12,0,0,1,3.95-4.28h.15a5.09,5.09,0,0,1,.55,0l.53-3a6.38,6.38,0,0,0-1.08-.09h-.28a7.13,7.13,0,0,0-6.82,7.42,7,7,0,0,0,.19,1.38m12.47,2.78A7.1,7.1,0,0,0,201,338.4l-.79,2.9a4.11,4.11,0,0,1,2.83,3.74,4,4,0,0,1-.86,2.69l2.29,1.94M195.44,346l2.14-.57a.68.68,0,0,1,0-.14,1.4,1.4,0,0,1,1.33-1.45H199l.39-2.18a3.55,3.55,0,0,0-.46,0h-.13a3.6,3.6,0,0,0-3.44,3.74,4.2,4.2,0,0,0,.08.62m6.36,1.42a3.66,3.66,0,0,0,.74-2.34,3.6,3.6,0,0,0-2.44-3.25l-.58,2.14a1.4,1.4,0,0,1,.82,1.2,1.45,1.45,0,0,1-.23.82l1.69,1.43M199,348.8h.15a3.52,3.52,0,0,0,2.2-.88l-1.56-1.57a1.42,1.42,0,0,1-.73.25H199a1.38,1.38,0,0,1-1.19-.69l-2.09.76A3.6,3.6,0,0,0,199,348.8m0,3.54h.29a7.07,7.07,0,0,0,4.56-1.91l-2.12-2.13a4.11,4.11,0,0,1-2.56,1H199a4.14,4.14,0,0,1-3.78-2.48l-2.83,1a7.14,7.14,0,0,0,6.61,4.47m-.1-16h0l-.54,0a.63.63,0,0,0-.23.08.53.53,0,0,0-.18,0h-.06l-.53.08a.46.46,0,0,0-.22.11.3.3,0,0,0-.13,0h-.11l-.52.14a.41.41,0,0,0-.2.14H196a.45.45,0,0,0-.16,0,5.21,5.21,0,0,0-.5.2.44.44,0,0,0-.18.15h0a.54.54,0,0,0-.21.05l-.46.25a.42.42,0,0,0-.17.18.41.41,0,0,0-.24.08c-.15.09-.29.2-.44.3a.48.48,0,0,0-.14.2.43.43,0,0,0-.23.1l-.4.35a.45.45,0,0,0-.12.21.46.46,0,0,0-.21.13,4.48,4.48,0,0,0-.36.4.37.37,0,0,0-.1.22.43.43,0,0,0-.2.15c-.11.14-.21.29-.31.44a.39.39,0,0,0-.07.23.42.42,0,0,0-.18.17c-.09.15-.18.31-.26.47a.52.52,0,0,0-.05.24.4.4,0,0,0-.15.19c-.08.16-.14.33-.21.49a.54.54,0,0,0,0,.25.42.42,0,0,0-.13.21l-.15.51a.53.53,0,0,0,0,.25.51.51,0,0,0-.11.22c0,.17-.06.35-.08.53a.5.5,0,0,0,0,.24.63.63,0,0,0-.08.23c0,.18,0,.36,0,.53a.51.51,0,0,1,0,.48c0,.19,0,.36,0,.53a.43.43,0,0,0,.09.23.5.5,0,0,0,0,.24c0,.18.06.36.1.53a.39.39,0,0,0,.11.22.49.49,0,0,0,0,.24c.05.17.1.35.16.51a.41.41,0,0,0,.14.21.4.4,0,0,0,0,.24c.07.16.14.33.22.49a.35.35,0,0,0,.16.18.4.4,0,0,0,0,.24l.27.47a.46.46,0,0,0,.18.16.49.49,0,0,0,.08.23c.1.15.21.29.32.43a.39.39,0,0,0,.2.14.41.41,0,0,0,.11.23c.11.13.24.26.36.38a.4.4,0,0,0,.22.12.39.39,0,0,0,.13.21l.41.35a.43.43,0,0,0,.22.09.38.38,0,0,0,.16.19,4.27,4.27,0,0,0,.44.3.4.4,0,0,0,.24.07.46.46,0,0,0,.17.17l.48.25a.43.43,0,0,0,.19,0h0a.45.45,0,0,0,.19.15l.51.19a.32.32,0,0,0,.14,0h.1a.46.46,0,0,0,.21.13l.52.13h.1l.15,0a.41.41,0,0,0,.22.1l.53.07h0a.45.45,0,0,0,.2,0,.48.48,0,0,0,.23.07h.54a.39.39,0,0,0,.23-.07.41.41,0,0,0,.21.05h0l.53-.05a.43.43,0,0,0,.23-.09.45.45,0,0,0,.16,0h.08l.53-.11a.45.45,0,0,0,.21-.12h.12a.32.32,0,0,0,.13,0l.5-.17a.43.43,0,0,0,.2-.14h.07a.39.39,0,0,0,.18,0l.48-.22a.49.49,0,0,0,.18-.17h0a.46.46,0,0,0,.23-.06l.45-.28a.48.48,0,0,0,.16-.19.41.41,0,0,0,.23-.09q.21-.15.42-.33a.48.48,0,0,0,.14-.2.51.51,0,0,0,.22-.11l.38-.38a.57.57,0,0,0,.11-.22.39.39,0,0,0,.2-.13l.34-.42a.5.5,0,0,0,.09-.23.46.46,0,0,0,.18-.16c.1-.15.2-.3.29-.45a.53.53,0,0,0,.06-.24.42.42,0,0,0,.17-.18c.08-.16.16-.32.23-.48a.54.54,0,0,0,0-.25.45.45,0,0,0,.15-.19c.06-.17.12-.34.17-.51a.43.43,0,0,0,0-.25.4.4,0,0,0,.12-.21,4.87,4.87,0,0,0,.12-.52.52.52,0,0,0,0-.25.43.43,0,0,0,.09-.22,5,5,0,0,0,.06-.54.52.52,0,0,0-.05-.24.42.42,0,0,0,.07-.23c0-.18,0-.36,0-.53a.52.52,0,0,1,0-.5c0-.18,0-.35-.07-.53a.44.44,0,0,0-.1-.22.52.52,0,0,0,0-.25l-.13-.52a.57.57,0,0,0-.13-.21.39.39,0,0,0,0-.24c-.06-.17-.12-.34-.19-.51a.45.45,0,0,0-.15-.19.41.41,0,0,0,0-.24l-.24-.48a.46.46,0,0,0-.17-.17.51.51,0,0,0-.07-.24l-.3-.44A.42.42,0,0,0,206,340a.43.43,0,0,0-.09-.22c-.11-.14-.23-.28-.35-.41a.34.34,0,0,0-.2-.13.48.48,0,0,0-.12-.22l-.39-.37a.44.44,0,0,0-.22-.1.48.48,0,0,0-.14-.2l-.43-.32a.5.5,0,0,0-.23-.09.48.48,0,0,0-.17-.18l-.46-.27a.43.43,0,0,0-.22-.06h0a.49.49,0,0,0-.18-.17l-.49-.21a.38.38,0,0,0-.17,0H202a.41.41,0,0,0-.2-.14l-.51-.16-.12,0-.13,0a.45.45,0,0,0-.21-.12c-.18,0-.35-.07-.53-.09h-.07a.47.47,0,0,0-.17,0,.5.5,0,0,0-.23-.09l-.54,0h0a.51.51,0,0,0-.22.05.48.48,0,0,0-.24-.06Zm-6.48,10a6,6,0,0,1-.09-.84,6.68,6.68,0,0,1,6.39-6.95h.26a5,5,0,0,1,.55,0l-.37,2.08h-.35a4.59,4.59,0,0,0-4.38,4.76c0,.13,0,.26,0,.39l-2,.54Zm8.41-5.3.55-2a6.7,6.7,0,0,1,4.29,6,6.63,6.63,0,0,1-1.2,4.08l-1.61-1.36a4.56,4.56,0,0,0-2-6.63Zm-5,4.38a.15.15,0,0,1,0-.07,3.15,3.15,0,0,1,3-3.27h0l-.24,1.33a1.83,1.83,0,0,0-1.5,1.67l-1.29.34Zm4.23-1.67.35-1.31a3.18,3.18,0,0,1,1.69,2.65,3.23,3.23,0,0,1-.39,1.64l-1-.87a1.74,1.74,0,0,0,.12-.71,1.85,1.85,0,0,0-.74-1.4Zm-3.73,3.18,1.28-.47a1.81,1.81,0,0,0,1.35.6H199a2,2,0,0,0,.64-.14l1,1a3.1,3.1,0,0,1-1.54.48H199a3.14,3.14,0,0,1-2.63-1.43ZM193,348.13l2-.72a4.55,4.55,0,0,0,4,2.37h.19a4.58,4.58,0,0,0,2.5-.88l1.5,1.5a6.68,6.68,0,0,1-3.92,1.48H199a6.65,6.65,0,0,1-6-3.76Z" />
  <path class="GUNDAN_DESERT_FOX_JEWELRY_DESERT_FOX_JEWELLERY_1_cls-2" d="M212.34,349.85a.2.2,0,0,1-.15-.06.18.18,0,0,1-.13,0h0l-.33,0a.29.29,0,0,1-.14-.08.19.19,0,0,1-.1,0h-.05l-.33-.08a.19.19,0,0,1-.12-.09h-.16a1.66,1.66,0,0,1-.31-.12.18.18,0,0,1-.12-.1h-.06a.19.19,0,0,1-.1,0l-.3-.15a.23.23,0,0,1-.1-.12h0a.24.24,0,0,1-.12,0l-.28-.19a.2.2,0,0,1-.09-.13h0a.19.19,0,0,1-.14-.05l-.25-.21a.29.29,0,0,1-.08-.14.21.21,0,0,1-.14-.07c-.08-.07-.15-.16-.23-.24a.25.25,0,0,1,0-.15.23.23,0,0,1-.14-.08c-.07-.08-.13-.17-.2-.26a.29.29,0,0,1,0-.16.22.22,0,0,1-.12-.09c-.06-.1-.12-.19-.17-.29a.29.29,0,0,1,0-.16.2.2,0,0,1-.11-.11c0-.1-.1-.2-.14-.3a.22.22,0,0,1,0-.16.23.23,0,0,1-.1-.12c0-.11-.07-.21-.1-.32a.22.22,0,0,1,0-.16.18.18,0,0,1-.09-.13l-.06-.33a.2.2,0,0,1,0-.15.27.27,0,0,1-.07-.14c0-.11,0-.22,0-.32a.28.28,0,0,1,.05-.16.25.25,0,0,1-.05-.15c0-.11,0-.23,0-.34a.27.27,0,0,1,.07-.14.2.2,0,0,1,0-.15c0-.11,0-.22,0-.33a.22.22,0,0,1,.09-.14.16.16,0,0,1,0-.15,1.68,1.68,0,0,1,.09-.32.21.21,0,0,1,.09-.13.29.29,0,0,1,0-.16l.13-.31a.2.2,0,0,1,.11-.11.23.23,0,0,1,0-.16l.16-.29a.23.23,0,0,1,.12-.1.26.26,0,0,1,0-.15l.19-.27a.2.2,0,0,1,.13-.09.24.24,0,0,1,.06-.15l.22-.24a.17.17,0,0,1,.14-.07.23.23,0,0,1,.07-.14,2.73,2.73,0,0,1,.25-.23.25.25,0,0,1,.15-.05h0a.22.22,0,0,1,.08-.13l.28-.19a.17.17,0,0,1,.12,0h0a.23.23,0,0,1,.1-.12,2.69,2.69,0,0,1,.29-.16.2.2,0,0,1,.1,0h.06a.29.29,0,0,1,.11-.11l.31-.12.08,0,.08,0a.23.23,0,0,1,.12-.1l.33-.09h.05l.1,0a.22.22,0,0,1,.14-.08l.33-.05h0a.2.2,0,0,1,.13,0,.21.21,0,0,1,.14-.07h.34a.22.22,0,0,0,.28,0h0l.33,0a.28.28,0,0,1,.15.08.15.15,0,0,1,.11,0h0l.33.07a.22.22,0,0,1,.13.08l.1,0h.06l.32.1a.23.23,0,0,1,.12.1l.07,0,.09,0,.3.14a.2.2,0,0,1,.11.11h0a.23.23,0,0,1,.11,0l.29.17a.24.24,0,0,1,.09.13h0a.2.2,0,0,1,.13,0l.27.2a.22.22,0,0,1,.08.13.24.24,0,0,1,.15.06l.24.23a.2.2,0,0,1,.06.14.18.18,0,0,1,.14.08,2.62,2.62,0,0,1,.22.25.27.27,0,0,1,.05.15.22.22,0,0,1,.13.09l.18.28a.2.2,0,0,1,0,.15.23.23,0,0,1,.12.1l.15.3a.3.3,0,0,1,0,.16.22.22,0,0,1,.1.11l.12.32a.26.26,0,0,1,0,.15.2.2,0,0,1,.09.13,2,2,0,0,1,.08.33.16.16,0,0,1,0,.15.25.25,0,0,1,.08.14c0,.11,0,.22,0,.33a.2.2,0,0,1,0,.15.22.22,0,0,1,.06.14c0,.13,0,.24,0,.35a.25.25,0,0,1-.06.15.2.2,0,0,1,0,.15c0,.11,0,.22,0,.33a.22.22,0,0,1-.08.14.22.22,0,0,1,0,.16c0,.1,0,.21-.07.32a.21.21,0,0,1-.09.13.22.22,0,0,1,0,.16c0,.1-.07.21-.11.32a.22.22,0,0,1-.1.11.29.29,0,0,1,0,.16l-.15.3a.2.2,0,0,1-.11.11.21.21,0,0,1,0,.15l-.18.29a.25.25,0,0,1-.13.09.2.2,0,0,1,0,.15l-.21.26a.29.29,0,0,1-.14.08.2.2,0,0,1-.06.14,2.72,2.72,0,0,1-.24.24.25.25,0,0,1-.14.06.22.22,0,0,1-.08.13l-.26.21a.24.24,0,0,1-.13.05h0a.24.24,0,0,1-.09.13l-.29.18a.2.2,0,0,1-.11,0h0a.25.25,0,0,1-.11.12l-.3.14-.09,0h-.07a.18.18,0,0,1-.12.1l-.31.11h-.07l-.09,0a.24.24,0,0,1-.13.09l-.33.07h0a.2.2,0,0,1-.11,0,.19.19,0,0,1-.14.07l-.33,0h0a.21.21,0,0,1-.13-.05.22.22,0,0,1-.15.06h-.33Zm-3.61-3.72a4.24,4.24,0,0,0,3.86,2.47h.18a4.29,4.29,0,0,0,2.56-1l-1-1a2.74,2.74,0,0,1-1.59.58h-.11a2.81,2.81,0,0,1-2.5-1.51Zm7.33.69a4.25,4.25,0,0,0-2-6.5l-.38,1.41a2.82,2.82,0,0,1,1.74,2.48,2.77,2.77,0,0,1-.47,1.67Zm-5.21-1.45a2,2,0,0,0,1.75,1,2.11,2.11,0,0,0,1.14-.36l-.68-.68a1.18,1.18,0,0,1-.42.1h0a1.15,1.15,0,0,1-.88-.39Zm3.49,0a2.06,2.06,0,0,0,.3-1.13,2,2,0,0,0-1.17-1.75l-.25.93a1.1,1.1,0,0,1,.48.86,1,1,0,0,1-.09.47Zm-1.92-5.31a4.25,4.25,0,0,0-4.09,4.44,3.08,3.08,0,0,0,.07.61l1.4-.38,0-.29a2.84,2.84,0,0,1,2.71-2.94h.27l.25-1.44-.41,0Zm.09,2.23a2,2,0,0,0-1.95,2.12.49.49,0,0,0,0,.12l.92-.25a1.09,1.09,0,0,1,.3-.7,1,1,0,0,1,.65-.34l.17-.95h0v-.23Z" />
  <path d="M212.54,339v.48h.26l0-.47.32,0,0,.48.26,0,.07-.46a1.65,1.65,0,0,1,.32.06l-.1.46.25.06.13-.45.3.09-.15.45.24.09.18-.44.29.13-.2.43.23.12.23-.42.28.16-.26.41a1.64,1.64,0,0,1,.22.14l.27-.39.26.19-.3.38.2.16.32-.35.23.22-.34.34.18.18.35-.31c.08.08.14.16.21.24l-.37.3.15.2.39-.27.18.27-.41.25a2.53,2.53,0,0,1,.13.22l.42-.23.15.29-.43.2a2.44,2.44,0,0,1,.1.24l.44-.18c0,.1.08.2.11.3l-.45.15c0,.08.05.17.08.25l.46-.13c0,.1,0,.21.07.31l-.46.1c0,.09,0,.17.05.26l.47-.08c0,.11,0,.22,0,.32l-.48.05a2.11,2.11,0,0,1,0,.26l.48,0h0v.32h-.48a2.26,2.26,0,0,1,0,.26l.48,0a3.11,3.11,0,0,1,0,.32l-.47-.06a2.34,2.34,0,0,1,0,.26l.47.08c0,.11,0,.21-.07.32l-.46-.12c0,.09-.05.17-.07.25l.45.14c0,.1-.06.21-.1.31l-.44-.17a2.56,2.56,0,0,1-.11.24l.44.19c0,.1-.09.19-.14.29l-.42-.22-.13.23.41.24c0,.09-.11.18-.17.27l-.39-.27-.15.22.38.28-.2.25-.37-.31a1.63,1.63,0,0,1-.17.2l.35.33-.23.22-.33-.35a1.54,1.54,0,0,1-.19.17l.31.37-.25.2-.29-.38-.21.14.26.4-.27.17-.24-.41-.23.12.22.43-.29.13-.19-.43-.24.1.17.44-.31.1L214,349l-.25.07.12.46-.32.07-.08-.47-.26,0,.06.47-.32,0,0-.47h-.26v.47h-.32l0-.48-.26,0-.05.48-.31-.05.07-.46-.25-.06-.1.47-.32-.08.13-.45-.24-.08-.16.45-.3-.12.18-.44-.24-.1-.2.43L210,349l.24-.42-.23-.12-.25.4-.27-.18.28-.39-.21-.16-.3.38-.24-.21.32-.35-.19-.18-.34.33-.22-.23.36-.31c-.06-.07-.11-.14-.17-.2l-.37.29c-.07-.08-.13-.17-.19-.25l.39-.28-.14-.21-.41.25c-.06-.09-.11-.19-.16-.28l.42-.23-.12-.22-.43.2-.13-.3.45-.17a1.86,1.86,0,0,1-.1-.25l-.45.16-.09-.31.46-.13-.06-.25-.47.1-.06-.31.47-.07,0-.26-.47,0c0-.1,0-.2,0-.3v0h.47a2.25,2.25,0,0,1,0-.26h-.48c0-.11,0-.21,0-.32l.47,0,0-.26-.47-.06a3.06,3.06,0,0,1,0-.32l.46.09.06-.25-.46-.12c0-.1.05-.21.08-.31l.46.15c0-.09,0-.17.08-.25l-.44-.17a1.48,1.48,0,0,1,.12-.29l.43.19a2.56,2.56,0,0,0,.11-.24l-.42-.21a2.54,2.54,0,0,1,.16-.28l.41.24a1.64,1.64,0,0,1,.14-.22l-.4-.27.18-.26.38.29a1.63,1.63,0,0,1,.17-.2l-.37-.31.21-.24.35.33.18-.18-.32-.35.24-.21.3.36.2-.16-.28-.38a2.4,2.4,0,0,1,.26-.18l.26.4.22-.14-.24-.41.28-.16.22.43.23-.11-.19-.44.3-.12.16.45.25-.08-.14-.46.31-.09.11.46.25-.05-.08-.47.31-.05.06.48.26,0,0-.47.32,0m-4.32,6.37,1.84-.49a2.42,2.42,0,0,1-.06-.46,2.6,2.6,0,0,1,2.49-2.71h.07a2.22,2.22,0,0,1,.37,0l.34-1.88a5.06,5.06,0,0,0-.68-.05h-.18a4.5,4.5,0,0,0-4.31,4.68,5,5,0,0,0,.12.88m7.88,1.75a4.46,4.46,0,0,0,1-3A4.51,4.51,0,0,0,213.9,340l-.49,1.84a2.61,2.61,0,0,1,1.79,2.36,2.55,2.55,0,0,1-.56,1.69l1.46,1.23m-5.71-2.33,1.34-.36s0-.06,0-.09a.88.88,0,0,1,.84-.91h.07l.24-1.38-.31,0h-.06a2.22,2.22,0,0,0-2.11,2.75m4,.89a2.22,2.22,0,0,0,.47-1.47,2.28,2.28,0,0,0-1.54-2.05l-.36,1.35a.86.86,0,0,1,.51.76.85.85,0,0,1-.14.52l1.06.89m-1.79.9h.09a2.22,2.22,0,0,0,1.39-.56l-1-1a.85.85,0,0,1-.47.15h0a.86.86,0,0,1-.75-.43l-1.32.48a2.27,2.27,0,0,0,2.07,1.35m0,2.23h.19a4.43,4.43,0,0,0,2.88-1.2l-1.35-1.35a2.6,2.6,0,0,1-1.61.66h-.1a2.61,2.61,0,0,1-2.38-1.57l-1.8.64a4.5,4.5,0,0,0,4.17,2.83m-.05-10.26h0l-.35,0-.15,0h-.15l-.35.05-.14.05h-.16l-.33.1a.31.31,0,0,0-.14.07.41.41,0,0,0-.16,0l-.32.13a.57.57,0,0,0-.13.08.44.44,0,0,0-.15.05l-.31.17a.53.53,0,0,0-.12.1l-.14.06-.28.2a.38.38,0,0,0-.11.11l-.14.08-.25.23a.41.41,0,0,0-.1.13.34.34,0,0,0-.12.09l-.24.26a.33.33,0,0,0-.07.13.43.43,0,0,0-.12.11l-.2.28a.47.47,0,0,0-.06.15.29.29,0,0,0-.1.12c-.06.1-.12.2-.17.3a.44.44,0,0,0-.05.15l-.09.13c0,.11-.09.22-.13.32a.45.45,0,0,0,0,.16.61.61,0,0,0-.07.14l-.09.33a.29.29,0,0,0,0,.16.34.34,0,0,0-.06.15c0,.11,0,.22-.05.34a.43.43,0,0,0,0,.16.33.33,0,0,0,0,.15c0,.11,0,.23,0,.34a.41.41,0,0,0,0,.16.4.4,0,0,0,0,.15c0,.13,0,.24,0,.35a.42.42,0,0,0,0,.15.43.43,0,0,0,0,.16c0,.11,0,.23.06.34a.35.35,0,0,0,.06.14.43.43,0,0,0,0,.16c0,.11.07.22.11.33a.37.37,0,0,0,.07.14.4.4,0,0,0,0,.15c.05.11.09.22.14.32l.09.13a.88.88,0,0,0,.05.15l.18.3a.52.52,0,0,0,.1.11.51.51,0,0,0,.07.15,2.47,2.47,0,0,0,.21.27.38.38,0,0,0,.11.11.57.57,0,0,0,.08.13l.24.25a.38.38,0,0,0,.13.09.41.41,0,0,0,.1.13l.26.22a.39.39,0,0,0,.14.08l.11.11a2.9,2.9,0,0,0,.29.19.35.35,0,0,0,.14.06l.12.1.31.16.16,0a.41.41,0,0,0,.13.08l.32.13.15,0h0l.14.07.34.08h.16l.14.05.35.05h0l.11,0a.42.42,0,0,0,.16,0h.34a.41.41,0,0,0,.16,0,.25.25,0,0,0,.12,0h0l.35,0a.44.44,0,0,0,.15-.05h.15l.34-.07a.67.67,0,0,0,.15-.06h0l.13,0,.33-.12a.37.37,0,0,0,.14-.07l.15,0,.32-.15.12-.09.15-.06a2.82,2.82,0,0,0,.29-.18.63.63,0,0,0,.12-.11A.46.46,0,0,0,216,349l.27-.21.1-.12a.38.38,0,0,0,.13-.09l.25-.24.08-.13a.4.4,0,0,0,.12-.1l.22-.27a.46.46,0,0,0,.07-.14.63.63,0,0,0,.11-.12,2.82,2.82,0,0,0,.18-.29.47.47,0,0,0,.06-.15.27.27,0,0,0,.09-.12,2.3,2.3,0,0,0,.15-.32.28.28,0,0,0,0-.15.35.35,0,0,0,.08-.13l.12-.33a.88.88,0,0,0,0-.16.59.59,0,0,0,.06-.14c0-.11,0-.23.07-.34a.86.86,0,0,0,0-.16.33.33,0,0,0,0-.15c0-.11,0-.23,0-.34a.41.41,0,0,0,0-.16.4.4,0,0,0,0-.15v-.35a.42.42,0,0,0,0-.16.44.44,0,0,0,0-.16c0-.12,0-.23-.05-.35a.44.44,0,0,0-.05-.15.38.38,0,0,0,0-.15l-.09-.34a.35.35,0,0,0-.06-.14.5.5,0,0,0,0-.16c0-.1-.08-.21-.12-.32a.41.41,0,0,0-.08-.13.75.75,0,0,0,0-.16l-.16-.3a.64.64,0,0,0-.1-.13.35.35,0,0,0-.06-.14,2.9,2.9,0,0,0-.19-.29l-.11-.11a.61.61,0,0,0-.07-.14l-.23-.27a.34.34,0,0,0-.12-.09.38.38,0,0,0-.09-.13l-.25-.24-.13-.08a.63.63,0,0,0-.11-.12l-.28-.21a.35.35,0,0,0-.14-.06.38.38,0,0,0-.11-.11l-.3-.18-.15,0-.13-.09-.32-.14-.15,0-.14-.08-.33-.1-.12,0h0l-.14-.06-.35-.06h-.15l-.15,0-.35,0h0a.27.27,0,0,0-.13,0,.4.4,0,0,0-.15,0Zm-4,6.26,0-.34a4.05,4.05,0,0,1,3.88-4.21h.31l-.18,1h-.09a3,3,0,0,0-2.92,3.17v.12l-1,.26ZM214,341.6l.26-1a4,4,0,0,1,2.43,3.54,4,4,0,0,1-.62,2.32l-.78-.65a3,3,0,0,0,.41-1.63,3.09,3.09,0,0,0-1.7-2.6Zm-3.17,2.64a1.82,1.82,0,0,1,1.55-1.71l-.09.52a1.31,1.31,0,0,0-1,1.06l-.51.13Zm2.7-.9.14-.51a1.79,1.79,0,0,1,.65,2.18l-.39-.33a1.39,1.39,0,0,0,0-.41,1.27,1.27,0,0,0-.44-.93Zm-2.28,2.14.5-.18a1.3,1.3,0,0,0,.9.36h.05a1.36,1.36,0,0,0,.35-.07l.37.37a1.69,1.69,0,0,1-.7.18h-.07a1.79,1.79,0,0,1-1.4-.66Zm-2.15.78.95-.34a3,3,0,0,0,2.6,1.46h.12a3,3,0,0,0,1.55-.51l.72.72a4.06,4.06,0,0,1-2.23.78h-.17a4,4,0,0,1-3.54-2.12Z" />
  <path class="GUNDAN_DESERT_FOX_JEWELRY_DESERT_FOX_JEWELLERY_1_cls-3" d="M234.63,350.76a.25.25,0,0,1-.16-.08.41.41,0,0,1-.05-.09.23.23,0,0,1-.21.13h0a4.1,4.1,0,0,1-.49-.06.24.24,0,0,1-.15-.09.3.3,0,0,1,0-.1.21.21,0,0,1-.19.11h0l-.48-.12a.22.22,0,0,1-.16-.21.31.31,0,0,1-.09.07l-.1,0h-.07c-.15-.06-.31-.11-.46-.18a.24.24,0,0,1-.14-.22l-.09.05-.08,0-.09,0-.44-.23a.26.26,0,0,1-.11-.14.17.17,0,0,1,0-.1.3.3,0,0,1-.15.05.27.27,0,0,1-.12,0l-.41-.28a.19.19,0,0,1-.09-.14.2.2,0,0,1,0-.11l-.1,0h0a.24.24,0,0,1-.14-.05l-.38-.32a.23.23,0,0,1-.07-.15.2.2,0,0,1,0-.11.19.19,0,0,1-.1,0,.24.24,0,0,1-.16-.07l-.34-.36a.23.23,0,0,1-.06-.16.29.29,0,0,1,0-.1h-.1a.21.21,0,0,1-.15-.09l-.3-.39a.24.24,0,0,1,0-.27h-.06a.23.23,0,0,1-.19-.11l-.25-.42a.23.23,0,0,1,0-.26h0a.22.22,0,0,1-.2-.13c-.07-.15-.14-.3-.2-.45a.28.28,0,0,1,0-.18.24.24,0,0,1,.06-.08h0a.23.23,0,0,1-.21-.15c-.06-.16-.1-.32-.15-.48a.26.26,0,0,1,0-.17.18.18,0,0,1,.08-.07.22.22,0,0,1-.2-.18,3.86,3.86,0,0,1-.09-.49.18.18,0,0,1,0-.16.18.18,0,0,1,.08-.07.23.23,0,0,1-.18-.2l0-.48a.27.27,0,0,1,.06-.17l.09-.06a.24.24,0,0,1-.16-.22c0-.16,0-.33,0-.49a.24.24,0,0,1,.07-.16l.1,0a.16.16,0,0,1-.08-.06.22.22,0,0,1-.05-.17c0-.16.05-.32.08-.49a.22.22,0,0,1,.09-.14l.1,0a.16.16,0,0,1-.07-.07.26.26,0,0,1,0-.17c0-.16.09-.32.13-.48a.22.22,0,0,1,.22-.16.2.2,0,0,1-.07-.25c0-.16.12-.31.18-.46a.23.23,0,0,1,.21-.14h0a.19.19,0,0,1-.05-.09.25.25,0,0,1,0-.17l.24-.43a.21.21,0,0,1,.14-.1h.1a.23.23,0,0,1,0-.26c.09-.14.19-.27.29-.4a.21.21,0,0,1,.18-.09h.07a.24.24,0,0,1,0-.27l.33-.36a.2.2,0,0,1,.16-.07h0a.16.16,0,0,1,.1,0,.36.36,0,0,1,0-.11.21.21,0,0,1,.07-.15,3.8,3.8,0,0,1,.37-.33.19.19,0,0,1,.14-.05h0a.17.17,0,0,1,.1,0,.34.34,0,0,1,0-.1.21.21,0,0,1,.09-.15l.41-.29a.24.24,0,0,1,.12,0h0a.2.2,0,0,1,.09.05.23.23,0,0,1,.11-.25c.14-.08.28-.16.43-.23a.19.19,0,0,1,.1,0,.24.24,0,0,1,.16.07.22.22,0,0,1,.13-.23,4.37,4.37,0,0,1,.46-.18l.08,0a.21.21,0,0,1,.18.09.3.3,0,0,1,0-.1.19.19,0,0,1,.14-.11l.47-.14h.06a.2.2,0,0,1,.11,0,.19.19,0,0,1,.08.07.22.22,0,0,1,.18-.19l.49-.07h0a.22.22,0,0,1,.2.13.41.41,0,0,1,.05-.09.25.25,0,0,1,.16-.08l.49,0h0a.24.24,0,0,1,.16.07.19.19,0,0,1,0,.09.24.24,0,0,1,.22-.15h0l.5,0a.21.21,0,0,1,.19.17.24.24,0,0,1,.21-.12h0l.49.09a.24.24,0,0,1,.17.2.23.23,0,0,1,.19-.1h.06a3.68,3.68,0,0,1,.47.15.18.18,0,0,1,.13.11.19.19,0,0,1,0,.1.24.24,0,0,1,.08-.06l.09,0,.09,0,.45.2a.21.21,0,0,1,.11.13.17.17,0,0,1,0,.1l.1-.05h.06a.23.23,0,0,1,.11,0l.42.25a.22.22,0,0,1,.1.25.19.19,0,0,1,.1-.05h0a.22.22,0,0,1,.13,0l.39.3a.2.2,0,0,1,.07.25l.12,0a.24.24,0,0,1,.15.06c.12.11.24.22.35.34a.2.2,0,0,1,.07.16.3.3,0,0,1,0,.1l.09,0h0a.25.25,0,0,1,.16.08l.31.38a.23.23,0,0,1,0,.26h.11a.21.21,0,0,1,.14.1c.1.13.19.27.28.41a.23.23,0,0,1,0,.26h.1a.21.21,0,0,1,.14.1c.08.15.15.3.22.44a.23.23,0,0,1,0,.26h0a.23.23,0,0,1,.2.14c.07.16.12.31.18.47a.24.24,0,0,1-.08.25.25.25,0,0,1,.21.17c0,.15.08.31.11.48a.23.23,0,0,1-.1.24.21.21,0,0,1,.18.18c0,.17.05.33.07.49a.34.34,0,0,1,0,.17L243,342a.21.21,0,0,1,.1.06.24.24,0,0,1,.07.16c0,.17,0,.34,0,.5a.2.2,0,0,1-.07.16.2.2,0,0,1-.09.06.15.15,0,0,1,.09.06.18.18,0,0,1,0,.16c0,.16,0,.33,0,.49a.22.22,0,0,1-.08.15.18.18,0,0,1-.1,0l.08.08a.2.2,0,0,1,0,.17c0,.16-.06.32-.1.48a.25.25,0,0,1-.21.17.14.14,0,0,1,.07.08.2.2,0,0,1,0,.17c-.05.16-.1.31-.16.47a.23.23,0,0,1-.21.14h0a.35.35,0,0,1,.06.09.2.2,0,0,1,0,.17c-.06.15-.14.3-.21.45a.24.24,0,0,1-.2.12h0a.19.19,0,0,1,0,.09.2.2,0,0,1,0,.17l-.27.42a.22.22,0,0,1-.18.1h-.07a.22.22,0,0,1,0,.27c-.1.13-.2.26-.31.38a.22.22,0,0,1-.15.08h0l-.09,0a.2.2,0,0,1,0,.11.27.27,0,0,1-.06.16c-.11.12-.23.23-.35.34a.2.2,0,0,1-.16.07.19.19,0,0,1-.1,0,.22.22,0,0,1-.07.25c-.12.11-.25.21-.38.31a.25.25,0,0,1-.14,0,.2.2,0,0,1-.13,0,.24.24,0,0,1-.09.25l-.42.26-.11,0a.2.2,0,0,1-.15-.06.24.24,0,0,1-.13.24l-.44.21-.09,0A.21.21,0,0,1,238,350a.22.22,0,0,1-.15.22l-.47.16h-.06a.21.21,0,0,1-.19-.1.22.22,0,0,1-.17.21l-.48.1h0a.22.22,0,0,1-.2-.11.36.36,0,0,1,0,.09.24.24,0,0,1-.15.09l-.49,0h0a.22.22,0,0,1-.15-.06.2.2,0,0,1-.06-.09.19.19,0,0,1-.05.09.2.2,0,0,1-.16.07h-.49Zm-5.56-5.52a6.47,6.47,0,0,0,5.94,3.87h.27a6.51,6.51,0,0,0,4-1.58l-1.69-1.7a4.1,4.1,0,0,1-2.39.9H235a4.1,4.1,0,0,1-3.68-2.29Zm11.14,1.25a6.41,6.41,0,0,0,1.29-4.15,6.5,6.5,0,0,0-4.38-5.87l-.63,2.31a4.13,4.13,0,0,1,2.63,3.66,4,4,0,0,1-.74,2.51Zm-8-2.38a3.15,3.15,0,0,0,2.78,1.66h.13a3.21,3.21,0,0,0,1.76-.62L235.72,344a1.61,1.61,0,0,1-.65.17h0a1.54,1.54,0,0,1-1.27-.6Zm5.43.23a3.14,3.14,0,0,0,.51-1.86,3.17,3.17,0,0,0-1.92-2.78l-.44,1.6a1.53,1.53,0,0,1,.58,2Zm-2.92-8.23a6.51,6.51,0,0,0-6.23,6.77,7.58,7.58,0,0,0,.13,1l2.32-.62a3.19,3.19,0,0,1-.06-.52,4.11,4.11,0,0,1,3.94-4.28H235l.34,0,.42-2.36a6.45,6.45,0,0,0-.76,0Zm.14,3.34a3.16,3.16,0,0,0-3,3.29,1.55,1.55,0,0,0,0,.31l1.59-.42a1.54,1.54,0,0,1,1.39-1.55l.3-1.63h-.28Z" />
  <path d="M234.92,334.68v.71h.39l0-.7a3.71,3.71,0,0,1,.47,0l-.07.71.39,0,.11-.7.47.09-.16.7c.13,0,.26.05.38.09l.19-.68.46.14-.23.67.36.14.27-.66.44.19-.31.64.35.18.34-.62c.14.07.28.16.41.24l-.38.6.32.22.42-.58.38.28-.45.56a3.61,3.61,0,0,1,.3.25l.48-.53.34.33-.5.5.27.28.53-.47c.1.12.21.24.3.37l-.56.44.24.31.58-.41c.09.13.18.26.26.4l-.6.37a3.72,3.72,0,0,1,.19.34l.63-.35c.07.14.15.29.21.43l-.63.3c0,.12.1.24.14.36l.67-.27c.06.15.11.3.16.45l-.67.23c0,.12.08.24.11.37l.69-.19c0,.15.08.31.11.46l-.69.15c0,.13.05.25.07.38l.7-.11c0,.16,0,.32.06.48l-.71.07c0,.12,0,.25,0,.38l.7,0v0c0,.16,0,.32,0,.48h-.72c0,.13,0,.26,0,.38l.71.05c0,.16,0,.32,0,.48l-.71-.09a2.5,2.5,0,0,1-.06.38l.7.13c0,.16-.06.32-.1.47l-.69-.17c0,.12-.07.25-.11.37l.68.21c0,.15-.1.31-.15.46l-.66-.26c-.05.13-.11.24-.16.36l.65.29c-.06.15-.13.29-.2.43l-.64-.32-.18.34.61.36-.25.4-.6-.4a3.62,3.62,0,0,1-.22.32l.57.43-.3.37-.55-.46a3.47,3.47,0,0,1-.25.29l.51.49c-.1.12-.22.23-.33.34l-.49-.52-.29.25.46.55-.38.3-.42-.57-.32.22.39.59-.4.26-.36-.62-.34.18.32.64-.43.2-.29-.65-.35.15.24.66-.45.16-.21-.69-.37.11.17.69-.47.1-.13-.7-.38.06.09.7-.48,0,0-.71-.18,0h-.2v.72h-.48l0-.71-.39,0-.07.71-.47-.06.11-.7-.38-.08-.15.7-.47-.12.2-.68-.37-.12-.24.67-.45-.17.28-.66-.36-.15-.31.64-.42-.22.34-.62-.33-.2-.38.6-.4-.26.42-.58-.31-.24-.45.56c-.12-.1-.25-.2-.36-.31l.47-.53a3.57,3.57,0,0,1-.28-.27l-.5.51a3.61,3.61,0,0,1-.33-.35l.53-.47-.25-.3-.56.44-.28-.38.58-.41-.21-.32-.61.37-.24-.41.63-.34a3.65,3.65,0,0,1-.18-.34l-.64.3c-.07-.14-.13-.29-.19-.44l.66-.26c-.05-.12-.1-.24-.14-.37l-.67.23c-.05-.15-.1-.3-.14-.46l.69-.18a2.62,2.62,0,0,1-.09-.38l-.7.15-.09-.47.7-.11c0-.13,0-.25,0-.38l-.71.07a3.67,3.67,0,0,1,0-.46v0l.7,0v-.39h-.71c0-.16,0-.32,0-.48l.71.06c0-.13,0-.26,0-.39l-.71-.09c0-.16.05-.32.08-.47l.7.13c0-.13.05-.25.08-.38l-.69-.17c0-.15.08-.31.13-.46l.68.21.12-.37-.66-.25c0-.14.12-.29.18-.44l.65.29c.06-.12.11-.24.17-.35l-.64-.32c.08-.15.15-.29.24-.43l.61.37.21-.33-.6-.4.28-.39.56.43.25-.3-.54-.46.31-.36.52.49.28-.27-.49-.52.35-.32.46.55.3-.24-.42-.57.39-.28.39.6.33-.21-.36-.61.42-.23.32.64.35-.17-.28-.65a3.38,3.38,0,0,1,.44-.18l.25.66.37-.12-.22-.68.47-.13.16.69.38-.07-.13-.71.48-.07.09.7.38,0-.05-.71.48,0m-6.45,9.52,2.75-.74a3.82,3.82,0,0,1-.1-.69,3.91,3.91,0,0,1,3.73-4H235a3,3,0,0,1,.52,0l.5-2.8a6.77,6.77,0,0,0-1-.08h-.27a6.72,6.72,0,0,0-6.44,7,7.12,7.12,0,0,0,.18,1.31m11.77,2.62A6.7,6.7,0,0,0,237,336.18l-.74,2.74a3.89,3.89,0,0,1,1.86,6.07l2.16,1.83m-8.54-3.48,2-.54a.68.68,0,0,1,0-.14A1.31,1.31,0,0,1,235,341.3h.1l.37-2.05a3.11,3.11,0,0,0-.43,0h-.12a3.4,3.4,0,0,0-3.25,3.53,3.81,3.81,0,0,0,.08.59m6,1.33a3.38,3.38,0,0,0-1.61-5.27l-.54,2a1.31,1.31,0,0,1,.77,1.13,1.27,1.27,0,0,1-.22.77l1.6,1.35M235,346h.14a3.4,3.4,0,0,0,2.08-.84l-1.47-1.48a1.31,1.31,0,0,1-.7.24H235a1.28,1.28,0,0,1-1.12-.65l-2,.71a3.41,3.41,0,0,0,3.1,2m0,3.34h.28a6.74,6.74,0,0,0,4.3-1.8l-2-2a3.91,3.91,0,0,1-2.42,1H235a3.9,3.9,0,0,1-3.57-2.35l-2.67,1a6.73,6.73,0,0,0,6.24,4.23m-.09-15.11h0l-.5,0a.41.41,0,0,0-.22.07.47.47,0,0,0-.17,0H234l-.5.08a.41.41,0,0,0-.21.1l-.12,0H233l-.49.14a.39.39,0,0,0-.19.12h-.08a.44.44,0,0,0-.16,0l-.47.19a.65.65,0,0,0-.18.15h0a.35.35,0,0,0-.2.05,4.92,4.92,0,0,0-.45.24.49.49,0,0,0-.16.16.45.45,0,0,0-.22.08l-.41.29a.38.38,0,0,0-.15.18.45.45,0,0,0-.21.1l-.37.33a.53.53,0,0,0-.13.2.39.39,0,0,0-.19.12c-.12.12-.23.25-.34.38a.41.41,0,0,0-.1.21.49.49,0,0,0-.18.14l-.3.41a.63.63,0,0,0-.07.22.41.41,0,0,0-.16.16c-.09.15-.17.3-.25.45a.59.59,0,0,0,0,.23.37.37,0,0,0-.14.18c-.07.15-.14.31-.2.47a.58.58,0,0,0,0,.23.39.39,0,0,0-.12.19c0,.16-.1.33-.14.49a.36.36,0,0,0,0,.23.41.41,0,0,0-.1.21,4.71,4.71,0,0,0-.08.5.45.45,0,0,0,0,.23.45.45,0,0,0-.08.22c0,.17,0,.34,0,.51a.54.54,0,0,0,.05.22.59.59,0,0,0-.05.23c0,.18,0,.34,0,.5a.53.53,0,0,0,.08.22.45.45,0,0,0,0,.23c0,.16.06.33.1.5a.42.42,0,0,0,.1.2.45.45,0,0,0,0,.23l.15.49a.5.5,0,0,0,.13.19.45.45,0,0,0,0,.23c.06.16.13.31.2.47a.5.5,0,0,1,.21.4c.08.14.16.29.25.43a.51.51,0,0,1,.25.38c.09.14.2.27.3.41a.43.43,0,0,0,.19.13.41.41,0,0,0,.1.21c.11.13.23.25.35.37a.56.56,0,0,0,.2.12.44.44,0,0,0,.12.19l.39.33a.43.43,0,0,0,.21.09.43.43,0,0,0,.15.18l.42.28a.63.63,0,0,0,.22.07.52.52,0,0,0,.17.16l.45.23a.43.43,0,0,0,.19,0h0a.49.49,0,0,0,.18.14l.48.18a.35.35,0,0,0,.14,0h.09a.56.56,0,0,0,.2.12l.49.12h.1l.13,0a.43.43,0,0,0,.21.09l.51.07h0a.37.37,0,0,0,.18,0,.45.45,0,0,0,.23.07h.5a.4.4,0,0,0,.22-.06.48.48,0,0,0,.2,0h0l.5-.05a.48.48,0,0,0,.22-.08l.15,0h.08l.5-.1a.56.56,0,0,0,.2-.11h.1l.13,0,.48-.16a.45.45,0,0,0,.19-.14h0a.58.58,0,0,0,.18,0l.46-.22a.5.5,0,0,0,.17-.15.46.46,0,0,0,.22-.06l.43-.27a.57.57,0,0,1,.37-.26l.4-.31a.5.5,0,0,0,.13-.19.49.49,0,0,0,.2-.11l.36-.36a.33.33,0,0,0,.11-.2.43.43,0,0,0,.19-.13c.11-.13.22-.26.32-.4a.57.57,0,0,1,.26-.37,4.94,4.94,0,0,0,.27-.42.46.46,0,0,0,.06-.23.44.44,0,0,0,.16-.17c.08-.15.15-.3.22-.46a.45.45,0,0,0,0-.23.49.49,0,0,0,.14-.18c.06-.16.12-.32.17-.48a.49.49,0,0,0,0-.24.37.37,0,0,0,.12-.2c0-.16.07-.33.11-.49a.58.58,0,0,0,0-.23.47.47,0,0,0,.09-.22c0-.17,0-.33.05-.5a.59.59,0,0,0,0-.23.43.43,0,0,0,.06-.22c0-.17,0-.34,0-.51a.48.48,0,0,0-.07-.23.47.47,0,0,0,0-.24l-.06-.5a.51.51,0,0,0-.1-.21.36.36,0,0,0,0-.23,3.89,3.89,0,0,0-.12-.49.43.43,0,0,0-.11-.2.49.49,0,0,0,0-.24c0-.15-.11-.31-.18-.47a.43.43,0,0,0-.13-.19.44.44,0,0,0,0-.22,3.81,3.81,0,0,0-.23-.45.36.36,0,0,0-.15-.17.52.52,0,0,0-.07-.22,4.38,4.38,0,0,0-.28-.42.43.43,0,0,0-.18-.15.4.4,0,0,0-.09-.21,4.24,4.24,0,0,0-.33-.39.41.41,0,0,0-.19-.13.47.47,0,0,0-.12-.2c-.11-.12-.24-.24-.36-.35a.41.41,0,0,0-.21-.1.43.43,0,0,0-.14-.19c-.13-.1-.26-.21-.4-.3a.51.51,0,0,1-.38-.25l-.43-.26a.46.46,0,0,0-.22-.06h0a.45.45,0,0,0-.18-.15l-.46-.2a.51.51,0,0,0-.17,0h-.06a.5.5,0,0,0-.19-.13l-.49-.15-.12,0-.11,0a.53.53,0,0,0-.21-.11l-.49-.09h-.07a.41.41,0,0,0-.16,0,.58.58,0,0,0-.22-.08l-.51,0h0a.46.46,0,0,0-.21,0,.54.54,0,0,0-.22,0Zm-6.1,9.41a6.94,6.94,0,0,1-.08-.77,6.28,6.28,0,0,1,6-6.53H235l.48,0-.34,1.92h-.31a4.36,4.36,0,0,0-4.16,4.52l0,.34-1.88.51Zm7.94-5,.51-1.88a6.25,6.25,0,0,1,2.9,9.4l-1.49-1.25a4.31,4.31,0,0,0-1.92-6.27Zm-4.69,4.13v0a3,3,0,0,1,.78-2.11,2.89,2.89,0,0,1,2-.95h0l-.22,1.21a1.76,1.76,0,0,0-1,.53,1.79,1.79,0,0,0-.46,1l-1.18.32Zm4-1.56.32-1.19a3,3,0,0,1,1.56,2.47,2.91,2.91,0,0,1-.35,1.5l-.93-.79a1.86,1.86,0,0,0,.1-.66,1.72,1.72,0,0,0-.7-1.33Zm-3.51,3,1.17-.42a1.76,1.76,0,0,0,1.28.56h.07a1.69,1.69,0,0,0,.59-.13l.87.87a2.78,2.78,0,0,1-1.41.43H235a3,3,0,0,1-2.45-1.32Zm-3.18,1.14,1.84-.66A4.33,4.33,0,0,0,235,347h.18a4.28,4.28,0,0,0,2.36-.82l1.38,1.38a6.31,6.31,0,0,1-3.66,1.38H235a6.26,6.26,0,0,1-5.63-3.51Z" />
  <path class="GUNDAN_DESERT_FOX_JEWELRY_DESERT_FOX_JEWELLERY_1_cls-4" d="M223.73,360.25a.22.22,0,0,1-.23-.22v-.45h-.17l0,.46a.23.23,0,0,1-.23.21h0l-.46-.05a.22.22,0,0,1-.19-.25l.06-.46-.17,0-.1.45a.24.24,0,0,1-.1.14l-.12,0h-.05l-.45-.12a.23.23,0,0,1-.13-.11.2.2,0,0,1,0-.17l.13-.44-.16-.05-.17.42a.23.23,0,0,1-.21.14h-.08c-.14-.06-.29-.12-.42-.19a.2.2,0,0,1-.12-.12.23.23,0,0,1,0-.18l.19-.41-.15-.08-.23.39a.23.23,0,0,1-.19.11l-.12,0-.39-.24a.24.24,0,0,1-.09-.15.25.25,0,0,1,0-.17l.26-.38-.14-.1-.29.36a.24.24,0,0,1-.15.08h0a.3.3,0,0,1-.15-.05l-.34-.3a.24.24,0,0,1-.07-.16.19.19,0,0,1,.06-.16l.3-.33-.12-.13-.33.31a.28.28,0,0,1-.15.06h0a.21.21,0,0,1-.15-.07l-.3-.35a.23.23,0,0,1,0-.32l.36-.28-.1-.14-.38.25a.28.28,0,0,1-.13,0h-.05a.23.23,0,0,1-.14-.1l-.24-.39a.22.22,0,0,1,.09-.3l.39-.23-.07-.15-.42.19-.09,0a.23.23,0,0,1-.21-.14c-.06-.14-.12-.28-.17-.42a.21.21,0,0,1,.13-.29l.42-.16a1.09,1.09,0,0,0,0-.17l-.44.13h-.06a.23.23,0,0,1-.22-.17c0-.15-.08-.3-.11-.44a.23.23,0,0,1,.18-.27l.45-.1a.86.86,0,0,1,0-.17l-.48.06a.23.23,0,0,1-.23-.2c0-.15,0-.3,0-.46a.23.23,0,0,1,.06-.16.28.28,0,0,1,.15-.08l.46,0a.48.48,0,0,1,0-.17l-.46,0a.24.24,0,0,1-.16-.07.23.23,0,0,1-.06-.16l0-.46a.23.23,0,0,1,.23-.2l.47,0,0-.17-.45-.08a.25.25,0,0,1-.15-.1.25.25,0,0,1,0-.17c0-.15.06-.29.1-.44a.22.22,0,0,1,.22-.17h0l.44.12.05-.17-.43-.15a.22.22,0,0,1-.13-.29c.05-.14.1-.29.16-.43a.25.25,0,0,1,.13-.12H217l.42.18.07-.15-.4-.22a.22.22,0,0,1-.09-.3c.07-.14.15-.27.23-.4a.21.21,0,0,1,.14-.1h.05a.19.19,0,0,1,.12,0l.38.24a1.3,1.3,0,0,0,.1-.15l-.36-.27a.22.22,0,0,1,0-.32l.28-.35a.25.25,0,0,1,.18-.08.24.24,0,0,1,.14.05l.35.3.12-.12-.32-.33a.22.22,0,0,1,0-.32l.34-.31a.25.25,0,0,1,.15-.05h0a.21.21,0,0,1,.15.07l.3.35.13-.1-.26-.38a.21.21,0,0,1,.05-.31l.38-.26.12,0h0a.21.21,0,0,1,.14.1l.24.38.15-.08-.2-.41a.2.2,0,0,1,0-.17.24.24,0,0,1,.11-.13l.41-.19.09,0,.09,0a.2.2,0,0,1,.12.12l.18.42.16-.06-.14-.44a.25.25,0,0,1,0-.17.26.26,0,0,1,.14-.11l.44-.13h.05a.19.19,0,0,1,.12,0,.21.21,0,0,1,.1.14l.11.43.17,0-.07-.45a.25.25,0,0,1,0-.17.29.29,0,0,1,.15-.09l.45-.05h0a.22.22,0,0,1,.15.06.24.24,0,0,1,.08.15l0,.45h.17v-.45a.22.22,0,0,1,.22-.23H224a.25.25,0,0,1,.16.08.18.18,0,0,1,.05.16l0,.45.17,0,.07-.45a.24.24,0,0,1,.09-.15.25.25,0,0,1,.13,0h0l.45.08a.23.23,0,0,1,.18.27l-.1.45.17,0,.13-.43a.22.22,0,0,1,.22-.16h.07a3.66,3.66,0,0,1,.43.15.21.21,0,0,1,.13.29l-.16.42.16.07.2-.41a.21.21,0,0,1,.13-.11h.07a.18.18,0,0,1,.1,0l.41.21a.24.24,0,0,1,.08.31l-.23.4.15.09.26-.37a.23.23,0,0,1,.15-.1h0a.22.22,0,0,1,.13,0l.36.27a.24.24,0,0,1,.09.15.26.26,0,0,1-.05.17l-.28.36.12.11.32-.33a.2.2,0,0,1,.16-.07.23.23,0,0,1,.16.06l.32.33a.23.23,0,0,1,.06.16.24.24,0,0,1-.07.16l-.34.31a.69.69,0,0,1,.11.13l.37-.28a.24.24,0,0,1,.13-.05.21.21,0,0,1,.18.09,3.18,3.18,0,0,1,.27.37.25.25,0,0,1,0,.17.31.31,0,0,1-.1.15l-.38.25.09.15.4-.22a.23.23,0,0,1,.11,0H230a.2.2,0,0,1,.13.11l.21.4a.23.23,0,0,1-.11.3l-.41.2.07.15.42-.15h.08a.18.18,0,0,1,.1,0,.21.21,0,0,1,.11.13l.15.43a.25.25,0,0,1,0,.17.22.22,0,0,1-.14.11l-.44.13a1,1,0,0,1,0,.17l.45-.09h.05a.23.23,0,0,1,.22.19c0,.14.05.3.07.45a.18.18,0,0,1,0,.16.24.24,0,0,1-.15.09l-.45.06c0,.06,0,.12,0,.17l.46,0a.21.21,0,0,1,.22.21c0,.18,0,.33,0,.48a.2.2,0,0,1-.07.16.22.22,0,0,1-.15.06h-.47c0,.06,0,.12,0,.18l.46.05a.19.19,0,0,1,.15.08.26.26,0,0,1,0,.17c0,.15,0,.3-.07.45a.22.22,0,0,1-.22.19l-.49-.09,0,.17.43.12a.22.22,0,0,1,.16.28c0,.14-.08.29-.13.44a.28.28,0,0,1-.11.13l-.1,0h-.08l-.43-.15-.06.16.42.19a.28.28,0,0,1,.12.12.23.23,0,0,1,0,.18c-.06.14-.13.27-.2.41a.24.24,0,0,1-.2.12.19.19,0,0,1-.1,0l-.41-.21-.08.15.38.25a.21.21,0,0,1,.1.14.25.25,0,0,1,0,.17c-.09.13-.17.26-.26.38a.25.25,0,0,1-.19.09.22.22,0,0,1-.13,0l-.37-.27-.1.13.34.3a.23.23,0,0,1,0,.32,3.34,3.34,0,0,1-.32.33.2.2,0,0,1-.16.07.23.23,0,0,1-.16-.07l-.32-.32a.69.69,0,0,1-.13.11l.3.36a.23.23,0,0,1,0,.32l-.36.28a.23.23,0,0,1-.14,0h0a.24.24,0,0,1-.15-.09l-.27-.37a.71.71,0,0,1-.14.1l.23.39a.25.25,0,0,1,0,.17.22.22,0,0,1-.11.14l-.39.22a.22.22,0,0,1-.11,0,.22.22,0,0,1-.2-.12l-.21-.4-.15.07.17.42a.28.28,0,0,1,0,.18.25.25,0,0,1-.13.12l-.42.16h-.08a.22.22,0,0,1-.21-.16l-.15-.43-.16,0,.1.44a.22.22,0,0,1-.16.27l-.45.1h0a.2.2,0,0,1-.13,0,.24.24,0,0,1-.09-.15l-.08-.45-.17,0,0,.46a.23.23,0,0,1-.06.16.19.19,0,0,1-.15.08l-.29,0Zm-3.1-3.57a4.91,4.91,0,0,0,2.7,1l0-.94a3.9,3.9,0,0,1-2-.75Zm3.62,1a4.92,4.92,0,0,0,2.61-1.21l-.69-.64a3.9,3.9,0,0,1-2,.91Zm-5.5-4.19a4.82,4.82,0,0,0,1.21,2.61l.63-.69a4,4,0,0,1-.91-2Zm3.11,1.9a3.08,3.08,0,0,0,1.4.51l-.08-1.94Zm2.31.47a3,3,0,0,0,1.35-.62l-1.43-1.32Zm3.31-.07a4.82,4.82,0,0,0,1-2.7l-.93,0a3.93,3.93,0,0,1-.75,2Zm-6.92-2.37a3.16,3.16,0,0,0,.63,1.35l1.32-1.43Zm5.58,1.14a3.06,3.06,0,0,0,.52-1.4l-1.95.08Zm-6.44-4.69a4.93,4.93,0,0,0-1,2.71l.94,0a3.92,3.92,0,0,1,.74-2Zm1.34,1.23a3.1,3.1,0,0,0-.52,1.4l1.95-.08Zm3.63,1.23,2-.08a3.05,3.05,0,0,0-.63-1.35Zm1.92-2.08a4,4,0,0,1,.91,2l.93,0a4.85,4.85,0,0,0-1.21-2.62Zm-3.5,1.5-.08-1.94a2.93,2.93,0,0,0-1.35.62Zm.91,0,1.32-1.43a3.08,3.08,0,0,0-1.4-.51Zm-3-1.87a3.82,3.82,0,0,1,2-.91l0-.94a4.85,4.85,0,0,0-2.61,1.21Zm2.88-.95a3.89,3.89,0,0,1,2,.74l.64-.69a4.9,4.9,0,0,0-2.7-1Z" />
  <path d="M223.59,345.56H224l0,.67c.2,0,.4,0,.6.07l.1-.67.44.07-.14.67c.19,0,.39.09.58.15l.2-.65.42.15-.24.63a5.38,5.38,0,0,1,.55.24l.3-.61.39.21-.33.59.51.32.39-.55.35.26-.42.53.46.4.46-.49.31.31-.49.46.39.46.53-.41.26.36-.56.38c.11.17.22.34.31.51l.6-.33.2.4-.61.29a3.76,3.76,0,0,1,.23.55l.64-.23c.05.14.1.28.14.42l-.66.2a5.47,5.47,0,0,1,.15.58l.67-.13c0,.14.05.29.07.44l-.67.09a5.54,5.54,0,0,1,.06.6l.67,0h0c0,.15,0,.3,0,.45l-.69,0a4.08,4.08,0,0,1,0,.61l.68.07c0,.15,0,.29-.06.44l-.67-.12a3.87,3.87,0,0,1-.13.59l.66.18c0,.14-.09.28-.13.42l-.65-.21c-.06.19-.14.37-.22.56l.62.27c-.06.14-.12.27-.19.4l-.6-.31c-.09.18-.2.35-.3.52l.57.37c-.08.12-.17.25-.26.36l-.54-.4c-.12.16-.25.32-.38.47l.51.45c-.1.11-.2.22-.31.32l-.48-.48-.44.41.43.52a3,3,0,0,1-.35.27l-.4-.54a4.32,4.32,0,0,1-.5.33l.35.58-.39.22-.31-.61a5.52,5.52,0,0,1-.55.26l.26.63-.42.15-.21-.64-.58.17.15.65a3.29,3.29,0,0,1-.43.09l-.12-.67a5.59,5.59,0,0,1-.59.08l0,.68h-.44l0-.68h-.6l-.05.67-.44,0,.09-.68a5.59,5.59,0,0,1-.59-.11l-.15.67c-.15,0-.29-.07-.43-.12l.19-.65-.57-.19-.25.63-.41-.18.29-.61a5.45,5.45,0,0,1-.53-.29l-.34.59-.38-.24.38-.56-.48-.36-.43.52c-.12-.09-.23-.19-.34-.29l.46-.49a5.66,5.66,0,0,1-.42-.43l-.5.45-.29-.34.53-.42c-.12-.16-.24-.32-.35-.49l-.57.37c-.08-.12-.16-.25-.23-.38l.59-.33q-.15-.27-.27-.54l-.62.28c-.06-.13-.12-.27-.17-.41l.63-.24c-.07-.19-.13-.38-.19-.57l-.65.18c0-.14-.08-.29-.11-.43l.67-.14c0-.2-.08-.4-.1-.6l-.67.08c0-.14,0-.29,0-.44l.67,0a.45.45,0,0,0,0-.11c0-.16,0-.33,0-.49l-.68,0a3.4,3.4,0,0,1,0-.45l.67.07q0-.3.09-.6l-.67-.12c0-.15.06-.29.1-.44l.65.17a5.58,5.58,0,0,1,.18-.58l-.64-.22c0-.14.1-.28.16-.42l.63.27a4.49,4.49,0,0,1,.26-.54l-.6-.33c.07-.13.14-.26.22-.38l.57.36c.11-.18.22-.34.34-.5l-.53-.41c.09-.12.18-.23.28-.34l.51.44a5.77,5.77,0,0,1,.42-.44l-.48-.49.33-.3.44.52a5.45,5.45,0,0,1,.47-.37l-.39-.56.37-.24.36.57c.17-.1.34-.2.52-.29l-.3-.61.4-.18.27.62a5.37,5.37,0,0,1,.56-.21l-.2-.65.42-.12.17.66a5.6,5.6,0,0,1,.59-.12l-.11-.67.44-.06.07.68.36,0h.24v-.68h0m2.35,4.34.94-1a5.06,5.06,0,0,0-3.27-1.2l.06,1.39a3.67,3.67,0,0,1,2.27.83m-4.93.2a3.7,3.7,0,0,1,2.2-1l-.06-1.38a5,5,0,0,0-3.16,1.46l1,.94m6.29,2.31,1.39-.06a5.11,5.11,0,0,0-1.47-3.16l-.94,1a3.73,3.73,0,0,1,1,2.2m-3.5-.18,1.86-2a3.28,3.28,0,0,0-2-.72l.12,2.74m-5.32.54,1.38,0a3.75,3.75,0,0,1,.84-2.28l-1-.94a5.1,5.1,0,0,0-1.19,3.27m4.86-.52-.12-2.75a3.37,3.37,0,0,0-1.9.89l2,1.86m.8.29,2.74-.11a3.29,3.29,0,0,0-.88-1.91l-1.86,2m-3.86.16,2.74-.11-2-1.86a3.26,3.26,0,0,0-.73,2m7.23,3.38a5.15,5.15,0,0,0,1.2-3.27l-1.39.06a3.7,3.7,0,0,1-.84,2.27l1,.94m-1.33-1.22a3.34,3.34,0,0,0,.72-2l-2.74.11,2,1.86m-5,.21,1.86-2-2.74.11a3.29,3.29,0,0,0,.88,1.91M220,356.4l.94-1a3.7,3.7,0,0,1-1-2.19l-1.38.06A5.07,5.07,0,0,0,220,356.4m4-.32a3.29,3.29,0,0,0,1.9-.88l-2-1.86.12,2.74m-.46,0-.12-2.74-1.86,2a3.3,3.3,0,0,0,2,.72m.53,1.79a5.08,5.08,0,0,0,3.16-1.47l-1-.94a3.7,3.7,0,0,1-2.19,1l.05,1.39m-.46,0-.06-1.39a3.73,3.73,0,0,1-2.27-.83l-.94,1a5.11,5.11,0,0,0,3.27,1.2m0-12.8h0a.44.44,0,0,0-.32.13l0,0a.46.46,0,0,0-.32-.13h0l-.47.06a.43.43,0,0,0-.29.18s0,0,0,0a.5.5,0,0,0-.27-.08h-.11l-.45.13a.47.47,0,0,0-.27.23v0h0a.33.33,0,0,0-.17,0,.58.58,0,0,0-.18,0l-.42.2a.45.45,0,0,0-.23.26s0,0,0,0a.35.35,0,0,0-.14,0,.55.55,0,0,0-.24.07l-.39.26a.45.45,0,0,0-.18.3s0,0,0,0h-.07a.48.48,0,0,0-.3.11c-.12.1-.23.21-.34.32a.44.44,0,0,0-.14.35h0a.48.48,0,0,0-.35.16c-.1.12-.2.24-.29.37a.42.42,0,0,0-.08.37.44.44,0,0,0-.32.21,3.38,3.38,0,0,0-.24.41.45.45,0,0,0,0,.34l0,0h0a.47.47,0,0,0-.25.25c-.06.14-.12.29-.17.43a.47.47,0,0,0,0,.35s0,0,0,0a.42.42,0,0,0-.24.29,3.78,3.78,0,0,0-.1.46.41.41,0,0,0,.07.34l0,0,0,0a.43.43,0,0,0-.16.3,3.83,3.83,0,0,0,0,.47.41.41,0,0,0,.15.35l0,0a.44.44,0,0,0-.11.33,3.89,3.89,0,0,0,0,.47.44.44,0,0,0,.17.3l0,0a.45.45,0,0,0-.09.37c0,.16.07.31.11.46a.46.46,0,0,0,.22.27l0,0a.5.5,0,0,0,0,.38c.06.15.12.29.19.44a.45.45,0,0,0,.29.25.43.43,0,0,0,0,.38c.07.13.16.27.24.4a.44.44,0,0,0,.29.19h0a.42.42,0,0,0,.09.37c.09.12.2.24.3.36a.46.46,0,0,0,.31.15h0v0a.46.46,0,0,0,.15.31c.11.11.23.21.35.31a.46.46,0,0,0,.29.11h.08a.08.08,0,0,0,0,0,.47.47,0,0,0,.19.29l.39.25a.5.5,0,0,0,.24.06H220l0,0s0,0,0,0a.45.45,0,0,0,.23.26l.43.19a.51.51,0,0,0,.17,0,.39.39,0,0,0,.18,0h0a.51.51,0,0,0,.29.25l.46.12h.1a.42.42,0,0,0,.24-.07l0,0a.41.41,0,0,0,.32.2l.47,0h0a.49.49,0,0,0,.33-.13l0,0a.44.44,0,0,0,.32.13h.18l.3,0a.43.43,0,0,0,.3-.16l0,0,0,0a.43.43,0,0,0,.26.09h.08l.46-.09a.49.49,0,0,0,.28-.21l0,0,0,0a.48.48,0,0,0,.2,0,.39.39,0,0,0,.15,0l.44-.16a.51.51,0,0,0,.25-.25v0a.47.47,0,0,0,.17,0,.54.54,0,0,0,.21-.05l.41-.23a.46.46,0,0,0,.21-.28.08.08,0,0,1,0,0h.1a.44.44,0,0,0,.27-.09c.13-.09.25-.19.37-.29a.44.44,0,0,0,.16-.35h0a.43.43,0,0,0,.32-.14l.33-.34a.44.44,0,0,0,.11-.33v0a.47.47,0,0,0,.33-.19q.14-.18.27-.39a.5.5,0,0,0,.06-.34v0h0a.45.45,0,0,0,.26-.23l.21-.42a.47.47,0,0,0,0-.35l0,0a.45.45,0,0,0,.26-.28c0-.15.1-.3.14-.45a.47.47,0,0,0,0-.35l0,0,0,0a.48.48,0,0,0,.19-.29l.06-.47a.42.42,0,0,0-.12-.36l0,0a.41.41,0,0,0,.14-.31c0-.16,0-.32,0-.47a.5.5,0,0,0-.14-.33l0,0,0,0a.44.44,0,0,0,.09-.33c0-.16-.05-.32-.08-.47a.48.48,0,0,0-.22-.31l0,0a.47.47,0,0,0,0-.35,3.26,3.26,0,0,0-.15-.44.42.42,0,0,0-.23-.26h0l0,0a.44.44,0,0,0,0-.34,4.11,4.11,0,0,0-.21-.42.45.45,0,0,0-.31-.23.47.47,0,0,0-.06-.38l-.28-.38a.42.42,0,0,0-.34-.17.47.47,0,0,0-.11-.37l-.34-.33a.4.4,0,0,0-.31-.13h-.05v0a.4.4,0,0,0-.17-.3l-.38-.29a.44.44,0,0,0-.25-.08l-.12,0v0a.44.44,0,0,0-.21-.27l-.42-.22a.46.46,0,0,0-.2-.05.39.39,0,0,0-.18,0l0,0a.49.49,0,0,0-.25-.24l-.44-.15-.14,0a.54.54,0,0,0-.21.05l0,0a.46.46,0,0,0-.31-.23l-.46-.08h-.07a.47.47,0,0,0-.3.12.42.42,0,0,0-.34-.18Zm.51,3.53,0-.48a4.62,4.62,0,0,1,2.13.78l-.33.36a4.1,4.1,0,0,0-1.78-.66Zm-3.44.53a4.76,4.76,0,0,1,2.06-1l0,.49a4.06,4.06,0,0,0-1.72.8l-.36-.33Zm6.23,1.05.33-.36a4.69,4.69,0,0,1,.95,2.06l-.49,0a4.1,4.1,0,0,0-.79-1.72Zm-2.68.9-.05-1.13a3,3,0,0,1,.81.3l-.76.83Zm-2.2-.71a2.9,2.9,0,0,1,.78-.36l.05,1.12-.83-.76ZM219,352.3a4.82,4.82,0,0,1,.78-2.13l.36.33a4.21,4.21,0,0,0-.65,1.78l-.49,0Zm6.26-.26.76-.82a3.11,3.11,0,0,1,.37.78l-1.13,0Zm-4.42.19a2.81,2.81,0,0,1,.3-.81l.82.76-1.12.05Zm7,1.08.49,0a4.63,4.63,0,0,1-.78,2.12l-.36-.33a4.17,4.17,0,0,0,.65-1.77Zm-2.47.1,1.12-.05a3.12,3.12,0,0,1-.29.81l-.83-.76Zm-4.42.18,1.12,0-.76.83a2.77,2.77,0,0,1-.36-.78Zm-1.84.08.49,0a4.22,4.22,0,0,0,.79,1.72l-.33.35a4.6,4.6,0,0,1-1-2.05Zm5.38,1.87,0-1.13.83.77a2.77,2.77,0,0,1-.78.36Zm-2.18-.24.77-.83,0,1.12a2.71,2.71,0,0,1-.81-.29Zm2.23,1.59a4.06,4.06,0,0,0,1.72-.8l.36.33a4.64,4.64,0,0,1-2.06.95l0-.48Zm-3.47-.24.33-.36a4,4,0,0,0,1.78.65l0,.49a4.66,4.66,0,0,1-2.13-.78Z" />
  <path class="GUNDAN_DESERT_FOX_JEWELRY_DESERT_FOX_JEWELLERY_1_cls-2" d="M210.15,358.4a2.78,2.78,0,0,1-.11-5.55h.12a2.78,2.78,0,0,1,.11,5.55Zm-.06-4.4a1.62,1.62,0,0,0-1.56,1.69,1.63,1.63,0,0,0,1.62,1.56,1.68,1.68,0,0,0,1.2-.53,1.66,1.66,0,0,0,.43-1.16,1.62,1.62,0,0,0-1.62-1.56v-.23Z" />
  <path d="M210.16,353.07a2.55,2.55,0,0,1,.1,5.1h-.11a2.56,2.56,0,0,1-.1-5.11h.11m0,4.4h.08a1.85,1.85,0,0,0-.07-3.7h-.08a1.85,1.85,0,0,0,.07,3.69m0-4.85H210a3,3,0,0,0,.12,6h.13a3,3,0,0,0-.12-6Zm0,4.4a1.39,1.39,0,0,1-1.39-1.34,1.33,1.33,0,0,1,.37-1,1.35,1.35,0,0,1,1-.45h.06a1.38,1.38,0,0,1,1.39,1.34,1.34,1.34,0,0,1-.37,1,1.43,1.43,0,0,1-1,.45Z" />
  <path class="GUNDAN_DESERT_FOX_JEWELRY_DESERT_FOX_JEWELLERY_1_cls-2" d="M210.15,359.46a3.82,3.82,0,0,1-3.82-3.68,3.74,3.74,0,0,1,1-2.75,3.81,3.81,0,0,1,2.66-1.24h.16a3.83,3.83,0,0,1,.15,7.66Zm-.13-7a3.22,3.22,0,0,0,.13,6.43h.14a3.22,3.22,0,0,0-.13-6.43Z" />
  <path d="M210.16,352a3.61,3.61,0,0,1,.14,7.21h-.15A3.61,3.61,0,0,1,210,352h.15m0,7.05h.15a3.44,3.44,0,0,0-.14-6.88H210a3.44,3.44,0,0,0,.14,6.88m0-7.51H210a4.06,4.06,0,0,0,.16,8.11h.17a4.06,4.06,0,0,0-.16-8.12Zm0,7.05a3,3,0,0,1-2.19-5,3,3,0,0,1,2.07-1h.13a3,3,0,0,1,.12,6Z" />
  <path class="GUNDAN_DESERT_FOX_JEWELRY_DESERT_FOX_JEWELLERY_1_cls-2" d="M210.15,362.75a6.77,6.77,0,0,1-1-.07.21.21,0,0,1-.15-.09.22.22,0,0,1-.05-.16L209,362a6.09,6.09,0,0,1-1.66-.54l-.18.35a.22.22,0,0,1-.2.12.23.23,0,0,1-.11,0,7.2,7.2,0,0,1-1.11-.71.3.3,0,0,1-.08-.16.2.2,0,0,1,.05-.16l.24-.31a6.51,6.51,0,0,1-1.17-1.29l-.33.21a.27.27,0,0,1-.12,0h-.05a.24.24,0,0,1-.14-.1,7.32,7.32,0,0,1-.61-1.18.23.23,0,0,1,.13-.29l.36-.15a6.63,6.63,0,0,1-.37-1.7h-.39a.23.23,0,0,1-.16-.06.24.24,0,0,1-.07-.16,6.36,6.36,0,0,1,.07-1.31.23.23,0,0,1,.22-.2l.42.06a6.56,6.56,0,0,1,.53-1.66l-.34-.18a.23.23,0,0,1-.1-.31,7.44,7.44,0,0,1,.72-1.1.24.24,0,0,1,.15-.09h0a.24.24,0,0,1,.14.05l.3.24a6.56,6.56,0,0,1,1.3-1.17l-.21-.33a.22.22,0,0,1,.07-.31,7.22,7.22,0,0,1,1.17-.61h.18a.25.25,0,0,1,.12.13l.14.36a6.61,6.61,0,0,1,1.71-.37l0-.38a.23.23,0,0,1,.21-.24h.32a8.72,8.72,0,0,1,1,.07.19.19,0,0,1,.14.09.22.22,0,0,1,.05.17l-.06.38a6.94,6.94,0,0,1,1.67.54l.18-.34a.2.2,0,0,1,.13-.12h.07a.19.19,0,0,1,.1,0,6.58,6.58,0,0,1,1.11.72.21.21,0,0,1,0,.31l-.24.31a6.51,6.51,0,0,1,1.17,1.29l.33-.21a.27.27,0,0,1,.12,0,.24.24,0,0,1,.19.1,6.55,6.55,0,0,1,.6,1.18.17.17,0,0,1,0,.17.2.2,0,0,1-.12.12l-.36.15a6.63,6.63,0,0,1,.37,1.7l.39,0a.24.24,0,0,1,.23.22,6.62,6.62,0,0,1-.07,1.34.22.22,0,0,1-.22.19l-.42-.06a6,6,0,0,1-.54,1.66l.35.19a.22.22,0,0,1,.09.3,6.58,6.58,0,0,1-.72,1.11.21.21,0,0,1-.17.09.24.24,0,0,1-.14-.05l-.31-.24a7.18,7.18,0,0,1-1.29,1.17l.21.32a.26.26,0,0,1,0,.17.31.31,0,0,1-.1.15,8.72,8.72,0,0,1-1.18.6h-.17a.22.22,0,0,1-.12-.13l-.15-.36a6.61,6.61,0,0,1-1.71.37l0,.38a.27.27,0,0,1-.06.17.24.24,0,0,1-.17.07ZM210,350.6a5,5,0,0,0,.2,10.06h.21a5,5,0,0,0-.2-10.06Z" />
  <path d="M210.16,348.72a6.24,6.24,0,0,1,1,.07l-.08.6a6.32,6.32,0,0,1,2,.65l.29-.54a8.12,8.12,0,0,1,1.07.69l-.38.48a6.25,6.25,0,0,1,1.42,1.57l.52-.33a6.44,6.44,0,0,1,.58,1.14l-.56.23a6.43,6.43,0,0,1,.45,2.07l.6,0v0a6.82,6.82,0,0,1-.06,1.28l-.6-.09a6.34,6.34,0,0,1-.66,2l.54.29a7.21,7.21,0,0,1-.69,1.07l-.48-.38a6.25,6.25,0,0,1-1.57,1.42l.32.51a7.15,7.15,0,0,1-1.13.59l-.23-.57a6.18,6.18,0,0,1-2.07.45l0,.6h-.29a7.93,7.93,0,0,1-1-.07l.08-.6a6.34,6.34,0,0,1-2-.66l-.28.54a6.81,6.81,0,0,1-1.08-.69l.38-.48a6.44,6.44,0,0,1-1.42-1.57l-.51.33a7.25,7.25,0,0,1-.59-1.14l.57-.23a6.18,6.18,0,0,1-.45-2.07l-.6,0h0a6.72,6.72,0,0,1,.06-1.27l.6.09a6.55,6.55,0,0,1,.65-2l-.54-.28a6.36,6.36,0,0,1,.7-1.07l.48.37a6.65,6.65,0,0,1,1.57-1.42l-.33-.51a6.83,6.83,0,0,1,1.14-.59l.22.57a6.23,6.23,0,0,1,2.07-.45l0-.6h.3m0,12.16h.22a5.26,5.26,0,0,0-.21-10.52h-.22a5.26,5.26,0,0,0,.21,10.51m0-12.61h-.31a.46.46,0,0,0-.44.47v.17a7.82,7.82,0,0,0-1.34.29L208,349a.43.43,0,0,0-.24-.24.39.39,0,0,0-.18,0,.47.47,0,0,0-.17,0,7,7,0,0,0-1.21.63.43.43,0,0,0-.14.62l.09.15a6.84,6.84,0,0,0-1,.92L205,351a.42.42,0,0,0-.28-.1.44.44,0,0,0-.36.18,7.18,7.18,0,0,0-.74,1.14.46.46,0,0,0,.19.61l.16.08a6.7,6.7,0,0,0-.43,1.31l-.17,0h-.06a.45.45,0,0,0-.45.39,8.66,8.66,0,0,0-.07,1.35.47.47,0,0,0,.46.44h.19a6.65,6.65,0,0,0,.28,1.34l-.16.07a.45.45,0,0,0-.25.59,7.67,7.67,0,0,0,.62,1.21.5.5,0,0,0,.29.2h.1a.51.51,0,0,0,.24-.07l.15-.1a6.84,6.84,0,0,0,.92,1l-.11.14a.45.45,0,0,0,.07.63,7.27,7.27,0,0,0,1.15.74.37.37,0,0,0,.21.06l.13,0a.47.47,0,0,0,.27-.23l.08-.15a6.16,6.16,0,0,0,1.3.42l0,.17a.42.42,0,0,0,.09.34.43.43,0,0,0,.29.18,7.41,7.41,0,0,0,1.05.07h.31a.45.45,0,0,0,.32-.14.5.5,0,0,0,.12-.33v-.17a6.79,6.79,0,0,0,1.34-.28l.07.16a.41.41,0,0,0,.24.24.34.34,0,0,0,.18,0,.45.45,0,0,0,.16,0,8.23,8.23,0,0,0,1.22-.62.47.47,0,0,0,.14-.63l-.1-.14a7.44,7.44,0,0,0,1-.92l.14.1a.42.42,0,0,0,.28.1.46.46,0,0,0,.35-.17,7.66,7.66,0,0,0,.74-1.14.47.47,0,0,0,0-.35.51.51,0,0,0-.23-.27l-.15-.08a6,6,0,0,0,.42-1.3l.17,0H217a.44.44,0,0,0,.27-.09.45.45,0,0,0,.18-.3,8.86,8.86,0,0,0,.07-1.36.53.53,0,0,0-.15-.33.52.52,0,0,0-.31-.12h-.19a6,6,0,0,0-.29-1.34l.16-.07a.45.45,0,0,0,.25-.59,6.28,6.28,0,0,0-.62-1.21.47.47,0,0,0-.38-.21.42.42,0,0,0-.24.07l-.15.1a6.84,6.84,0,0,0-.92-1l.11-.14a.45.45,0,0,0-.08-.63,7.66,7.66,0,0,0-1.14-.74.41.41,0,0,0-.21-.05.47.47,0,0,0-.41.24l-.08.15a7.31,7.31,0,0,0-1.3-.42l0-.17a.42.42,0,0,0-.08-.33.47.47,0,0,0-.3-.18,7.17,7.17,0,0,0-1-.07Zm0,12.16a4.81,4.81,0,0,1-.19-9.61h.2a4.81,4.81,0,0,1,.19,9.61Z" />
  <path class="GUNDAN_DESERT_FOX_JEWELRY_DESERT_FOX_JEWELLERY_1_cls-5" d="M218.11,370.19a.43.43,0,0,1-.42-.41l0-.45-.17,0-.09.45a.44.44,0,0,1-.42.33l-.42-.09a.42.42,0,0,1-.32-.5l.1-.44-.16-.06-.21.4a.42.42,0,0,1-.38.22.67.67,0,0,1-.19-.05l-.3-.15a.42.42,0,0,1-.18-.57l.21-.4-.14-.1-.31.33a.41.41,0,0,1-.59,0l-.25-.23a.43.43,0,0,1-.14-.3.46.46,0,0,1,.11-.3l.31-.33-.11-.13-.38.24a.46.46,0,0,1-.23.06.44.44,0,0,1-.36-.19l-.18-.29a.4.4,0,0,1-.05-.32.4.4,0,0,1,.18-.26l.38-.24-.07-.16-.43.14h-.13a.43.43,0,0,1-.4-.29l-.1-.32a.42.42,0,0,1,.28-.53l.43-.14,0-.17-.45,0a.43.43,0,0,1-.44-.41l0-.33a.45.45,0,0,1,.12-.31.39.39,0,0,1,.29-.13l.45,0a1,1,0,0,1,0-.17l-.44-.1a.42.42,0,0,1-.27-.18.4.4,0,0,1-.05-.32l.07-.33a.43.43,0,0,1,.41-.34l.53.12.06-.17-.4-.2a.44.44,0,0,1-.2-.25.38.38,0,0,1,0-.33l.15-.3a.43.43,0,0,1,.38-.22.59.59,0,0,1,.19.05l.4.2.1-.14-.33-.3a.44.44,0,0,1-.14-.29.43.43,0,0,1,.12-.31l.22-.25a.46.46,0,0,1,.31-.13.44.44,0,0,1,.29.11l.33.3a.69.69,0,0,0,.13-.11l-.24-.38a.4.4,0,0,1-.05-.32.38.38,0,0,1,.19-.26L215,359a.48.48,0,0,1,.23-.07.43.43,0,0,1,.35.2l.24.38.16-.07-.14-.43a.44.44,0,0,1,.28-.53l.33-.1.12,0a.43.43,0,0,1,.41.3l.13.42.17,0,0-.45a.39.39,0,0,1,.11-.31.42.42,0,0,1,.3-.13l.33,0a.43.43,0,0,1,.44.41l0,.45h.17l.1-.44a.42.42,0,0,1,.41-.33l.42.08a.44.44,0,0,1,.33.51l-.1.44.16.06.21-.4a.41.41,0,0,1,.37-.23l.2.05.3.16a.44.44,0,0,1,.18.57l-.21.4.14.1.3-.33a.41.41,0,0,1,.31-.14.44.44,0,0,1,.29.11l.25.23a.43.43,0,0,1,0,.6l-.3.33.11.13.38-.24a.44.44,0,0,1,.22-.07.43.43,0,0,1,.36.2l.18.28a.48.48,0,0,1,.06.33.42.42,0,0,1-.19.26l-.38.24a1,1,0,0,1,.07.15l.43-.13.13,0a.41.41,0,0,1,.4.3l.1.32a.38.38,0,0,1,0,.33.39.39,0,0,1-.25.2l-.42.14,0,.16.45,0a.43.43,0,0,1,.44.41v.34a.46.46,0,0,1-.11.3.43.43,0,0,1-.3.14l-.44,0s0,.11,0,.17l.44.1a.42.42,0,0,1,.32.5l-.08.33a.42.42,0,0,1-.41.33l-.53-.11-.06.16.4.21a.42.42,0,0,1,.18.57l-.16.3a.41.41,0,0,1-.37.23.65.65,0,0,1-.2-.05l-.4-.21a.71.71,0,0,1-.1.14l.34.31a.41.41,0,0,1,0,.59l-.23.25a.41.41,0,0,1-.31.14.44.44,0,0,1-.29-.11l-.33-.31a.69.69,0,0,1-.13.11l.24.38a.42.42,0,0,1-.13.59l-.28.18a.46.46,0,0,1-.23.06.42.42,0,0,1-.36-.19l-.24-.38-.15.07.13.43a.45.45,0,0,1,0,.32.44.44,0,0,1-.25.21l-.32.1-.13,0a.43.43,0,0,1-.4-.3l-.13-.43-.17,0,0,.45a.47.47,0,0,1-.12.31.39.39,0,0,1-.29.13Zm-.2-9.49a3.43,3.43,0,0,0-2.4,1.11,3.46,3.46,0,0,0,2.54,5.81h.15a3.46,3.46,0,0,0-.15-6.91Z" />
  <path d="M218,358.36a.21.21,0,0,1,.2.19l0,.65a5.48,5.48,0,0,1,.57.05l.14-.64a.19.19,0,0,1,.19-.15h0l.33.08a.19.19,0,0,1,.14.23l-.14.64.53.19.31-.58a.19.19,0,0,1,.17-.1l.09,0,.3.16a.19.19,0,0,1,.09.26l-.31.58a4.84,4.84,0,0,1,.46.33l.45-.48a.21.21,0,0,1,.14-.07.2.2,0,0,1,.14.06l.24.23a.19.19,0,0,1,0,.27l-.45.49a3.73,3.73,0,0,1,.36.43l.56-.35a.19.19,0,0,1,.1,0,.2.2,0,0,1,.17.09l.18.29a.2.2,0,0,1-.06.27l-.55.35a4.67,4.67,0,0,1,.23.51l.63-.19h.06a.2.2,0,0,1,.19.14l.1.32a.2.2,0,0,1-.13.24l-.63.2a3.45,3.45,0,0,1,.1.56l.66,0h0a.19.19,0,0,1,.2.19v.34a.18.18,0,0,1-.18.2l-.66,0a5.07,5.07,0,0,1,0,.56l.64.15a.2.2,0,0,1,.15.23l-.08.33a.2.2,0,0,1-.19.16h0l-.64-.14c-.06.18-.12.36-.19.53l.58.3a.21.21,0,0,1,.08.27l-.16.3a.19.19,0,0,1-.17.1.15.15,0,0,1-.09,0l-.58-.3a4.84,4.84,0,0,1-.33.46l.48.44a.19.19,0,0,1,0,.28l-.23.25a.18.18,0,0,1-.14.06.15.15,0,0,1-.13,0l-.49-.44a3.73,3.73,0,0,1-.43.36l.35.55a.21.21,0,0,1-.06.28l-.28.18a.23.23,0,0,1-.11,0,.2.2,0,0,1-.17-.09l-.35-.56a4.74,4.74,0,0,1-.51.24l.19.63a.18.18,0,0,1-.12.24l-.33.1h-.06a.18.18,0,0,1-.18-.14l-.2-.62a5,5,0,0,1-.56.09l0,.66a.21.21,0,0,1-.19.21h-.35a.19.19,0,0,1-.19-.19l0-.65-.56-.05-.15.64a.19.19,0,0,1-.19.15h0l-.33-.07a.2.2,0,0,1-.15-.24l.14-.63a4.81,4.81,0,0,1-.53-.2l-.3.58a.21.21,0,0,1-.18.11l-.09,0-.3-.15a.21.21,0,0,1-.08-.27l.3-.58A4.84,4.84,0,0,1,215,368l-.44.49a.2.2,0,0,1-.15.06.24.24,0,0,1-.13,0l-.25-.23a.2.2,0,0,1,0-.28l.44-.48a4.82,4.82,0,0,1-.36-.43l-.55.35a.23.23,0,0,1-.11,0,.2.2,0,0,1-.16-.09l-.19-.29a.2.2,0,0,1,.06-.27l.56-.35a4.9,4.9,0,0,1-.24-.52l-.63.2h-.05a.2.2,0,0,1-.19-.14l-.1-.32a.19.19,0,0,1,.13-.25l.62-.19a5.43,5.43,0,0,1-.09-.56l-.66,0h0a.21.21,0,0,1-.2-.19v-.34a.21.21,0,0,1,.19-.21l.66,0a3.66,3.66,0,0,1,.05-.57l-.64-.14a.19.19,0,0,1-.15-.23l.07-.33a.19.19,0,0,1,.19-.16h0l.64.14a3.35,3.35,0,0,1,.19-.53l-.58-.31a.19.19,0,0,1-.08-.26l.15-.3a.21.21,0,0,1,.18-.11l.09,0,.58.3a4.84,4.84,0,0,1,.33-.46l-.49-.45a.2.2,0,0,1,0-.28l.23-.24a.18.18,0,0,1,.15-.07.24.24,0,0,1,.13,0l.48.45a4.82,4.82,0,0,1,.43-.36l-.35-.56a.2.2,0,0,1,.07-.27l.28-.18a.2.2,0,0,1,.11,0,.19.19,0,0,1,.16.09l.35.55a4.83,4.83,0,0,1,.52-.23l-.2-.63a.21.21,0,0,1,.13-.25l.32-.1h.06a.2.2,0,0,1,.19.14l.2.63a4.86,4.86,0,0,1,.55-.1l0-.65a.2.2,0,0,1,.18-.21H218m.06,9.48h.15a3.69,3.69,0,0,0-.15-7.37h-.15a3.69,3.69,0,0,0,.15,7.37M218,357.9h-.36a.65.65,0,0,0-.59.43.64.64,0,0,0-.5-.24l-.2,0-.31.1a.67.67,0,0,0-.46.57.63.63,0,0,0-.37-.12.6.6,0,0,0-.35.1l-.29.18a.61.61,0,0,0-.28.4.77.77,0,0,0,0,.26.57.57,0,0,0-.22,0,.65.65,0,0,0-.48.21l-.23.25a.62.62,0,0,0-.17.47.5.5,0,0,0,.06.24h-.06a.66.66,0,0,0-.58.35l-.15.3a.64.64,0,0,0-.05.49.84.84,0,0,0,.12.23.65.65,0,0,0-.52.5l-.08.33a.7.7,0,0,0,.09.49.77.77,0,0,0,.18.18.8.8,0,0,0-.21.15.62.62,0,0,0-.17.47v.34a.65.65,0,0,0,.43.58.66.66,0,0,0-.21.69l.11.33a.63.63,0,0,0,.56.45.65.65,0,0,0,0,.72l.18.29a.65.65,0,0,0,.55.3h.11a1,1,0,0,0,0,.25.68.68,0,0,0,.21.45l.25.23a.66.66,0,0,0,.44.17.67.67,0,0,0,.28-.06.76.76,0,0,0,0,.26.71.71,0,0,0,.32.38l.3.16a.78.78,0,0,0,.3.07.54.54,0,0,1,.92.37l.33.08H217a.63.63,0,0,0,.53-.28.65.65,0,0,0,.59.38h.37a.64.64,0,0,0,.58-.43.61.61,0,0,0,.7.2l.32-.09a.67.67,0,0,0,.45-.57.64.64,0,0,0,.38.12.64.64,0,0,0,.35-.1l.28-.18a.64.64,0,0,0,.29-.66.93.93,0,0,0,.23,0,.64.64,0,0,0,.48-.22l.23-.24a.68.68,0,0,0,.11-.72h.06a.65.65,0,0,0,.57-.35l.16-.3a.62.62,0,0,0,0-.5.48.48,0,0,0-.12-.22.66.66,0,0,0,.53-.5l.07-.33a.64.64,0,0,0-.26-.67.67.67,0,0,0,.38-.62l0-.34a.63.63,0,0,0-.42-.58.66.66,0,0,0,.2-.69l-.1-.33a.64.64,0,0,0-.56-.45.87.87,0,0,0,.1-.24.61.61,0,0,0-.09-.49l-.18-.28a.64.64,0,0,0-.55-.3h-.11a.66.66,0,0,0-.17-.71l-.25-.23a.64.64,0,0,0-.44-.17.63.63,0,0,0-.27.06.54.54,0,0,0,0-.25.61.61,0,0,0-.32-.38l-.3-.16a.6.6,0,0,0-.3-.07.66.66,0,0,0-.42.15.64.64,0,0,0-.49-.52l-.34-.08h-.14a.64.64,0,0,0-.53.27.66.66,0,0,0-.59-.38Zm.06,9.49a3.23,3.23,0,0,1-.13-6.46h.13a3.23,3.23,0,0,1,3.23,3.1,3.18,3.18,0,0,1-.85,2.33,3.24,3.24,0,0,1-2.24,1Z" />
  <path class="GUNDAN_DESERT_FOX_JEWELRY_DESERT_FOX_JEWELLERY_1_cls-5" d="M218.05,367.31a3.14,3.14,0,0,1-3.14-3,3.1,3.1,0,0,1,.83-2.26,3.14,3.14,0,0,1,2.18-1h.14a3.15,3.15,0,0,1,.12,6.3Zm.06-1.63a.39.39,0,0,0,0,.77.41.41,0,0,0,.29-.12.42.42,0,0,0,.1-.28.39.39,0,0,0-.39-.37v-.23Zm-2-1.83a.4.4,0,0,0-.27.12.37.37,0,0,0-.1.28.4.4,0,0,0,.39.38.39.39,0,0,0,.28-.13.36.36,0,0,0,.1-.28.37.37,0,0,0-.38-.37v-.23Zm3.81-.16a.41.41,0,0,0-.27.13.39.39,0,0,0-.1.28.39.39,0,1,0,.39-.41v-.22Zm-2-1.83a.38.38,0,0,0-.37.41.37.37,0,0,0,.38.37.39.39,0,1,0,0-.78v0Z" />
  <path d="M218.05,361.24a2.92,2.92,0,0,1,.12,5.84h-.12a2.92,2.92,0,0,1-.12-5.84h.12m-.08,1.63h0a.62.62,0,0,0,0-1.23h0a.62.62,0,0,0,0,1.23m2,1.82h0a.61.61,0,0,0,.58-.64.6.6,0,0,0-.61-.58h0a.61.61,0,0,0,0,1.22m-3.81.16h0a.62.62,0,0,0,0-1.23h0a.62.62,0,0,0,0,1.23m2,1.83h0a.62.62,0,0,0,.59-.64.62.62,0,0,0-.62-.59h0a.62.62,0,0,0,0,1.23m-.08-5.9h-.14a3.32,3.32,0,0,0-2.34,1.08,3.37,3.37,0,0,0,2.48,5.66h.14a3.38,3.38,0,0,0-.14-6.75Z" />
  <path class="GUNDAN_DESERT_FOX_JEWELRY_DESERT_FOX_JEWELLERY_1_cls-6" d="M110.19,203.77c-2-16.08,12.18-14.32,11.47-.85C115.61,208.33,110.19,203.77,110.19,203.77Z" />
  <path class="GUNDAN_DESERT_FOX_JEWELRY_DESERT_FOX_JEWELLERY_1_cls-7" d="M111.81,202.47c-1.74-13.78,10.43-12.28,9.82-.74C116.45,206.37,111.81,202.47,111.81,202.47Z" />
  <path class="GUNDAN_DESERT_FOX_JEWELRY_DESERT_FOX_JEWELLERY_1_cls-8" d="M125.28,223.34a2.69,2.69,0,0,1-3.51,2.2,2.68,2.68,0,0,1-4,1.18,2.68,2.68,0,0,1-4.18-.57,2.68,2.68,0,0,1-3.79-1.65s-3.16.62-3.47-2,3.91-18.72,3.91-18.72,5.42,4.56,11.47-.85h.11s6.55,15.29,6.64,17.93S125.28,223.34,125.28,223.34Z" />
  <path class="GUNDAN_DESERT_FOX_JEWELRY_DESERT_FOX_JEWELLERY_1_cls-9" d="M124.49,221.22a2.46,2.46,0,0,1-3.23,2,2.49,2.49,0,0,1-3.72,1.07,2.5,2.5,0,0,1-3.84-.5,2.46,2.46,0,0,1-3.48-1.47s-2.91.55-3.19-1.79,3.63-16.76,3.63-16.76,5,4.07,10.54-.79h.1s6,13.68,6.07,16S124.49,221.22,124.49,221.22Z" />
  <path class="GUNDAN_DESERT_FOX_JEWELRY_DESERT_FOX_JEWELLERY_1_cls-10" d="M110.19,203.77s5.42,4.56,11.47-.85C122.37,189.45,108.16,187.69,110.19,203.77Z" />
  <path class="GUNDAN_DESERT_FOX_JEWELRY_DESERT_FOX_JEWELLERY_1_cls-10" d="M121.77,202.91s6.55,15.29,6.64,17.93-3.13,2.5-3.13,2.5a2.69,2.69,0,0,1-3.51,2.2,2.68,2.68,0,0,1-4,1.18,2.68,2.68,0,0,1-4.18-.57,2.68,2.68,0,0,1-3.79-1.65s-3.16.62-3.47-2,3.91-18.72,3.91-18.72" />
  <path class="GUNDAN_DESERT_FOX_JEWELRY_DESERT_FOX_JEWELLERY_1_cls-10" d="M111.25,172.63a5.16,5.16,0,0,0-.71,3.35" />
  <path class="GUNDAN_DESERT_FOX_JEWELRY_DESERT_FOX_JEWELLERY_1_cls-10" d="M115.84,171.85a3.51,3.51,0,0,1,1.67,2.76,5.87,5.87,0,0,1-3.35,5.79l.28,3.81" />
  <line class="GUNDAN_DESERT_FOX_JEWELRY_DESERT_FOX_JEWELLERY_1_cls-10" x1="115.15" y1="192.26" x2="114.95" y2="189.62" />
  <path class="GUNDAN_DESERT_FOX_JEWELRY_DESERT_FOX_JEWELLERY_1_cls-10" d="M114.55,184.2a2.72,2.72,0,1,1-2.5,2.91A2.72,2.72,0,0,1,114.55,184.2Z" />
  <line class="GUNDAN_DESERT_FOX_JEWELRY_DESERT_FOX_JEWELLERY_1_cls-10" x1="111.96" y1="209.77" x2="109.75" y2="224.5" />
  <line class="GUNDAN_DESERT_FOX_JEWELRY_DESERT_FOX_JEWELLERY_1_cls-10" x1="114.42" y1="213.83" x2="113.54" y2="226.15" />
  <line class="GUNDAN_DESERT_FOX_JEWELRY_DESERT_FOX_JEWELLERY_1_cls-10" x1="116.58" y1="209.42" x2="117.72" y2="226.72" />
  <line class="GUNDAN_DESERT_FOX_JEWELRY_DESERT_FOX_JEWELLERY_1_cls-10" x1="119.58" y1="215.14" x2="121.77" y2="225.54" />
  <line class="GUNDAN_DESERT_FOX_JEWELRY_DESERT_FOX_JEWELLERY_1_cls-10" x1="119.94" y1="208.01" x2="125.28" y2="223.34" />
  <path class="GUNDAN_DESERT_FOX_JEWELRY_DESERT_FOX_JEWELLERY_1_cls-11" d="M117.31,170.92s-1.73.15-2.48,2.68" />
</svg>