<svg id="jewelry" xmlns="http://www.w3.org/2000/svg" viewBox="0 0 432 432">
  <defs>
    <style>.GUNDAN_DESERT_FOX_JEWELRY_DESERT_FOX_JEWELLERY_12_cls-1,.GUNDAN_DESERT_FOX_JEWELRY_DESERT_FOX_JEWELLERY_12_cls-6{fill:none;stroke:#000;stroke-linecap:round;stroke-linejoin:round;}.GUNDAN_DESERT_FOX_JEWELRY_DESERT_FOX_JEWELLERY_12_cls-1{stroke-width:1.64px;}.GUNDAN_DESERT_FOX_JEWELRY_DESERT_FOX_JEWELLERY_12_cls-2{fill:#b9876e;}.GUNDAN_DESERT_FOX_JEWELRY_DESERT_FOX_JEWELLERY_12_cls-3{fill:#ff9292;}.GUNDAN_DESERT_FOX_JEWELRY_DESERT_FOX_JEWELLERY_12_cls-4{fill:#e22b2b;}.GUNDAN_DESERT_FOX_JEWELRY_DESERT_FOX_JEWELLERY_12_cls-5{fill:#a00808;}.GUNDAN_DESERT_FOX_JEWELRY_DESERT_FOX_JEWELLERY_12_cls-6{stroke-width:1.3px;}</style>
  </defs>
  <path class="GUNDAN_DESERT_FOX_JEWELRY_DESERT_FOX_JEWELLERY_12_cls-1" d="M317.2,151.66a6.58,6.58,0,0,1,.87,3.3v2.81" />
  <path class="GUNDAN_DESERT_FOX_JEWELRY_DESERT_FOX_JEWELLERY_12_cls-1" d="M304.76,193.22V155a6.66,6.66,0,0,1,2.82-5.45" />
  <path class="GUNDAN_DESERT_FOX_JEWELRY_DESERT_FOX_JEWELLERY_12_cls-2" d="M306.53,213.26a.58.58,0,0,1-.58-.53l-.12-1.29c-.36,0-.71,0-1.07,0-.53,0-1.07,0-1.61-.07l-.15,1.29a.58.58,0,0,1-.58.52h-.07c-.46,0-.93-.12-1.4-.21a.59.59,0,0,1-.46-.68l.24-1.27a18,18,0,0,1-2.57-.77l-.5,1.2a.59.59,0,0,1-.31.31.64.64,0,0,1-.23.05.59.59,0,0,1-.22-.05c-.43-.17-.87-.37-1.29-.58a.56.56,0,0,1-.29-.33.59.59,0,0,1,0-.45l.57-1.16a18.35,18.35,0,0,1-2.27-1.42l-.79,1a.6.6,0,0,1-.47.23A.57.57,0,0,1,292,209c-.37-.29-.74-.6-1.09-.91a.61.61,0,0,1-.19-.4.57.57,0,0,1,.15-.43l.86-1a17.68,17.68,0,0,1-1.8-2l-1,.77a.61.61,0,0,1-.35.11h-.09a.6.6,0,0,1-.38-.24c-.28-.37-.54-.76-.8-1.16a.6.6,0,0,1,.18-.81l1.1-.69a17.91,17.91,0,0,1-1.2-2.4l-1.21.46a.78.78,0,0,1-.21,0,.59.59,0,0,1-.55-.38c-.16-.44-.31-.89-.45-1.34a.56.56,0,0,1,0-.44.58.58,0,0,1,.34-.29l1.23-.37c-.06-.23-.13-.46-.18-.7a16.17,16.17,0,0,1-.32-1.93l-1.34.12a.59.59,0,0,1-.58-.53c0-.47-.07-.95-.08-1.41a.58.58,0,0,1,.57-.6l1.28,0a18.63,18.63,0,0,1,.23-2.67l-1.27-.24a.62.62,0,0,1-.37-.24.58.58,0,0,1-.09-.44c.08-.46.19-.93.3-1.38a.61.61,0,0,1,.27-.36.64.64,0,0,1,.3-.08l.15,0,1.25.33a18.9,18.9,0,0,1,.93-2.52l-1.16-.57a.59.59,0,0,1-.26-.78c.21-.42.43-.84.67-1.25a.58.58,0,0,1,.5-.29.6.6,0,0,1,.29.08l1.13.66a19.05,19.05,0,0,1,1.57-2.17l-1-.87a.61.61,0,0,1-.19-.4.57.57,0,0,1,.15-.43c.31-.34.64-.69,1-1a.62.62,0,0,1,.41-.17.58.58,0,0,1,.42.18l.91.93a18.68,18.68,0,0,1,2.1-1.66l-.7-1.1a.53.53,0,0,1-.08-.44.59.59,0,0,1,.25-.37c.4-.25.81-.49,1.22-.71a.6.6,0,0,1,.28-.08.61.61,0,0,1,.52.31l.61,1.14a18,18,0,0,1,2.48-1l-.38-1.24a.59.59,0,0,1,.05-.45.53.53,0,0,1,.34-.28c.45-.14.91-.26,1.36-.36l.14,0a.61.61,0,0,1,.31.09.59.59,0,0,1,.26.37l.28,1.24a17.11,17.11,0,0,1,2.66-.33l0-1.28a.56.56,0,0,1,.16-.42.6.6,0,0,1,.41-.18h.44l1,0a.6.6,0,0,1,.56.61l-.07,1.3a18.16,18.16,0,0,1,2.66.4l.32-1.26a.6.6,0,0,1,.57-.44l.14,0c.46.12.91.26,1.36.4a.59.59,0,0,1,.34.3.56.56,0,0,1,0,.44l-.41,1.24a19.14,19.14,0,0,1,2.44,1.1l.65-1.13a.61.61,0,0,1,.36-.27l.15,0a.6.6,0,0,1,.29.08q.62.36,1.2.75a.59.59,0,0,1,.25.37.67.67,0,0,1-.09.44l-.73,1.08a18.67,18.67,0,0,1,2.05,1.72l.93-.91a.58.58,0,0,1,.41-.17h0a.58.58,0,0,1,.41.18c.33.33.65.68.95,1a.58.58,0,0,1-.07.82l-1,.84a17.93,17.93,0,0,1,1.51,2.21l1.14-.62a.58.58,0,0,1,.28-.07.57.57,0,0,1,.51.3c.23.41.44.84.64,1.26a.59.59,0,0,1,0,.45.55.55,0,0,1-.3.33l-1.16.53a21.08,21.08,0,0,1,.86,2.54l1.25-.28a.27.27,0,0,1,.13,0,.59.59,0,0,1,.31.09.6.6,0,0,1,.26.36c.11.51.2,1,.27,1.44a.57.57,0,0,1-.48.67l-1.28.2a20.07,20.07,0,0,1,.15,2.68l1.29.06a.57.57,0,0,1,.55.61c0,.47-.06.94-.11,1.41a.58.58,0,0,1-.58.51l-1.36-.15a19.32,19.32,0,0,1-.59,2.61l1.23.42a.58.58,0,0,1,.37.74c-.15.44-.31.89-.49,1.32a.58.58,0,0,1-.54.36.62.62,0,0,1-.23,0l-1.19-.5a20,20,0,0,1-1.28,2.36l1.08.73a.58.58,0,0,1,.16.81c-.27.39-.55.77-.83,1.14a.62.62,0,0,1-.39.22h-.08a.61.61,0,0,1-.36-.13l-1-.79a18.76,18.76,0,0,1-1.86,1.93l.84,1a.53.53,0,0,1,.13.42.56.56,0,0,1-.2.4c-.36.3-.73.6-1.11.87a.54.54,0,0,1-.34.12h-.09a.61.61,0,0,1-.39-.23l-.76-1a18,18,0,0,1-2.31,1.37l.54,1.16a.6.6,0,0,1-.29.78c-.43.19-.87.37-1.31.54a.65.65,0,0,1-.2,0,.59.59,0,0,1-.55-.38l-.46-1.21a18.67,18.67,0,0,1-1.91.56l-.67.13.2,1.27a.6.6,0,0,1-.49.67c-.46.07-.93.13-1.4.17Zm-1.77-35.11a14.65,14.65,0,0,0-3.22.36,14.53,14.53,0,0,0-10.93,17.38,14.52,14.52,0,1,0,14.15-17.74Z" />
  <path d="M304.78,172.57l.93,0-.09,1.87a18.17,18.17,0,0,1,3.69.56l.47-1.81c.44.11.88.24,1.31.39l-.59,1.78a18.9,18.9,0,0,1,3.4,1.53l.94-1.62c.39.23.78.47,1.16.72L315,177.57a18.13,18.13,0,0,1,2.86,2.39l1.34-1.31c.32.32.63.66.93,1l-1.43,1.21a17.76,17.76,0,0,1,2.11,3.07l1.64-.9c.22.4.43.82.62,1.23l-1.69.77a17.9,17.9,0,0,1,1.2,3.53l1.81-.42v.06c.1.44.19.89.26,1.34l-1.85.29a18,18,0,0,1,.2,3.72l1.87.09c0,.46-.06.92-.11,1.37l-1.86-.22a18.65,18.65,0,0,1-.82,3.64l1.78.59c-.15.43-.31.87-.48,1.29l-1.73-.72a18.83,18.83,0,0,1-1.77,3.28l1.55,1.05c-.25.38-.53.75-.81,1.11l-1.46-1.14a19.29,19.29,0,0,1-2.59,2.68l1.21,1.42c-.35.3-.71.58-1.07.85l-1.11-1.5a18.33,18.33,0,0,1-3.21,1.9l.77,1.68c-.41.19-.84.37-1.26.53l-.66-1.75a18.44,18.44,0,0,1-2.39.74c-.4.09-.81.15-1.21.21l.29,1.85c-.45.07-.91.13-1.36.17l-.17-1.87c-.53.05-1.07.07-1.6.07a18.7,18.7,0,0,1-2.12-.12l-.22,1.86c-.45-.05-.91-.12-1.36-.21l.35-1.83a17.59,17.59,0,0,1-3.58-1.07l-.71,1.73c-.42-.17-.84-.36-1.25-.56l.83-1.67a18.42,18.42,0,0,1-3.16-2l-1.15,1.46c-.35-.28-.71-.57-1.05-.87l1.25-1.4a18.76,18.76,0,0,1-2.51-2.75l-1.5,1.11c-.27-.37-.53-.75-.77-1.13l1.58-1a18.51,18.51,0,0,1-1.67-3.33l-1.75.66c-.16-.42-.31-.86-.44-1.3l1.79-.54c-.12-.4-.25-.8-.34-1.22a18.54,18.54,0,0,1-.37-2.43l-1.86.16c0-.45-.07-.91-.08-1.37l1.86,0a17.64,17.64,0,0,1,.31-3.72L285,189c.09-.45.19-.9.3-1.34l1.81.47a18.57,18.57,0,0,1,1.29-3.5l-1.67-.82c.2-.41.42-.82.65-1.21l1.62.94a18.6,18.6,0,0,1,2.19-3l-1.4-1.24c.31-.34.63-.68.95-1l1.31,1.34A18.21,18.21,0,0,1,295,177.3l-1-1.58c.38-.25.78-.48,1.18-.7l.89,1.64a19,19,0,0,1,3.44-1.43l-.54-1.79c.44-.13.88-.25,1.33-.35l.41,1.8h0a17.87,17.87,0,0,1,3.67-.45l0-1.85h.44m0,35.2a15.37,15.37,0,0,0,3.35-.38,15.1,15.1,0,0,0-3.35-29.83,15.44,15.44,0,0,0-3.35.38,15.1,15.1,0,0,0,3.35,29.83m0-36.37h-.47a1.17,1.17,0,0,0-1.14,1.19l0,.72c-.55.05-1.09.11-1.62.2l-.16-.7a1.17,1.17,0,0,0-1.14-.9l-.27,0c-.46.1-.94.23-1.4.37a1.18,1.18,0,0,0-.78,1.46l.22.7c-.52.19-1,.4-1.51.63l-.35-.65a1.19,1.19,0,0,0-.7-.56,1.16,1.16,0,0,0-.89.09c-.42.23-.84.48-1.25.74a1.19,1.19,0,0,0-.36,1.62l.4.62c-.44.32-.86.66-1.27,1l-.52-.53a1.16,1.16,0,0,0-.82-.35h0a1.16,1.16,0,0,0-.81.33c-.35.34-.69.69-1,1a1.17,1.17,0,0,0,.09,1.65l.56.49a15.9,15.9,0,0,0-1,1.32l-.64-.37a1.11,1.11,0,0,0-.59-.16,1,1,0,0,0-.3,0,1.17,1.17,0,0,0-.71.54c-.24.41-.47.84-.69,1.28a1.19,1.19,0,0,0-.05.89,1.15,1.15,0,0,0,.59.67l.65.33c-.21.5-.4,1-.56,1.53l-.72-.18a.92.92,0,0,0-.29,0,1.11,1.11,0,0,0-.59.16,1.17,1.17,0,0,0-.54.71c-.12.47-.23.95-.32,1.42a1.17,1.17,0,0,0,.94,1.37l.71.13c-.07.54-.12,1.09-.14,1.63l-.72,0a1.13,1.13,0,0,0-.82.36,1.15,1.15,0,0,0-.32.83c0,.48,0,1,.08,1.45a1.12,1.12,0,0,0,.41.79,1.15,1.15,0,0,0,.75.27h.11l.72-.07c.07.51.16,1,.26,1.43,0,.06,0,.12,0,.18l-.69.2a1.18,1.18,0,0,0-.78,1.46c.14.46.3.93.47,1.37a1.16,1.16,0,0,0,1.09.76,1.14,1.14,0,0,0,.41-.07l.7-.26c.22.49.46,1,.73,1.45l-.63.4a1.15,1.15,0,0,0-.51.73,1.21,1.21,0,0,0,.15.89c.26.4.54.81.82,1.19a1.13,1.13,0,0,0,.77.46l.17,0a1.2,1.2,0,0,0,.7-.23l.59-.44c.34.42.71.82,1.09,1.21l-.49.54a1.21,1.21,0,0,0-.29.85,1.15,1.15,0,0,0,.38.81q.54.48,1.11.93a1.2,1.2,0,0,0,.72.24h.15a1.11,1.11,0,0,0,.78-.44l.44-.57c.45.31.91.6,1.39.87l-.33.65a1.18,1.18,0,0,0,.53,1.57c.44.21.88.41,1.33.59a1.12,1.12,0,0,0,.44.09,1.17,1.17,0,0,0,.45-.09,1.15,1.15,0,0,0,.63-.63l.28-.68c.52.18,1,.34,1.57.47l-.14.72a1.17,1.17,0,0,0,.19.87,1.11,1.11,0,0,0,.75.49c.47.09,1,.17,1.43.22h.14a1.17,1.17,0,0,0,1.16-1l.09-.74c.36,0,.73,0,1.09,0h.54l.06.73a1.18,1.18,0,0,0,1.17,1.07h.1c.48,0,1-.1,1.44-.18a1.14,1.14,0,0,0,1-1.33l-.11-.71.14,0c.46-.11.94-.24,1.44-.4l.25.68a1.17,1.17,0,0,0,1.1.76,1,1,0,0,0,.41-.08c.45-.17.9-.35,1.34-.55a1.17,1.17,0,0,0,.58-1.55l-.3-.66c.47-.25.94-.53,1.4-.83l.43.59a1.18,1.18,0,0,0,.95.47,1.12,1.12,0,0,0,.69-.23q.58-.42,1.14-.9a1.16,1.16,0,0,0,.13-1.64l-.47-.56c.39-.38.77-.77,1.13-1.18l.57.45a1.13,1.13,0,0,0,.72.25h.15a1.16,1.16,0,0,0,.78-.44c.29-.38.58-.77.85-1.17a1.17,1.17,0,0,0-.31-1.62l-.62-.42c.28-.47.54-1,.78-1.43l.68.28a1.2,1.2,0,0,0,.45.09,1.16,1.16,0,0,0,1.08-.73c.18-.44.35-.9.51-1.36a1.2,1.2,0,0,0-.07-.89,1.15,1.15,0,0,0-.67-.59l-.71-.23a14.77,14.77,0,0,0,.36-1.6l.74.09h.14a1.19,1.19,0,0,0,.72-.25,1.24,1.24,0,0,0,.44-.78c.05-.48.1-1,.12-1.45a1.18,1.18,0,0,0-.3-.84,1.2,1.2,0,0,0-.81-.39l-.74,0c0-.54,0-1.09-.09-1.63l.73-.12a1.11,1.11,0,0,0,.76-.46,1.14,1.14,0,0,0,.21-.87c-.07-.48-.16-1-.27-1.42v-.06a1.21,1.21,0,0,0-.52-.73,1.22,1.22,0,0,0-.89-.14l-.69.16c-.16-.52-.33-1-.53-1.55l.65-.3a1.17,1.17,0,0,0,.58-1.55c-.2-.44-.42-.87-.65-1.3a1.17,1.17,0,0,0-1-.61,1.15,1.15,0,0,0-.56.15l-.65.35c-.28-.46-.59-.91-.92-1.35l.56-.47a1.18,1.18,0,0,0,.14-1.65c-.32-.37-.64-.73-1-1.07a1.17,1.17,0,0,0-1.65,0l-.54.52c-.4-.37-.82-.72-1.25-1.05l.42-.61a1.16,1.16,0,0,0-.32-1.62c-.39-.27-.81-.53-1.22-.77a1.17,1.17,0,0,0-1.6.42l-.38.64c-.48-.24-1-.46-1.48-.67l.23-.7a1.17,1.17,0,0,0-.06-.9,1.19,1.19,0,0,0-.68-.58c-.46-.15-.92-.29-1.39-.41a1,1,0,0,0-.29,0,1.16,1.16,0,0,0-1.13.88l-.19.71q-.79-.15-1.62-.24l0-.74a1.16,1.16,0,0,0-1.11-1.22q-.5,0-1,0Zm0,35.2a14,14,0,0,1-13.58-10.84,14,14,0,0,1,10.49-16.68,13.92,13.92,0,0,1,16.68,10.49,13.95,13.95,0,0,1-13.59,17Z" />
  <ellipse cx="304.78" cy="192.64" rx="11.34" ry="11.41" />
  <polygon class="GUNDAN_DESERT_FOX_JEWELRY_DESERT_FOX_JEWELLERY_12_cls-3" points="302.63 199.65 304.14 199.14 301.6 197.79 302.63 199.65" />
  <polygon class="GUNDAN_DESERT_FOX_JEWELRY_DESERT_FOX_JEWELLERY_12_cls-4" points="305.42 199.14 307.97 197.79 306.93 199.65 305.42 199.14" />
  <polygon class="GUNDAN_DESERT_FOX_JEWELRY_DESERT_FOX_JEWELLERY_12_cls-4" points="298.9 193.48 300.24 196.56 298.02 195.58 298.9 193.48" />
  <path class="GUNDAN_DESERT_FOX_JEWELRY_DESERT_FOX_JEWELLERY_12_cls-3" d="M296.73,198.85a10.15,10.15,0,0,1-1.23-2.15l1.7-.6Z" />
  <path class="GUNDAN_DESERT_FOX_JEWELRY_DESERT_FOX_JEWELLERY_12_cls-4" d="M294.7,191.9a10.4,10.4,0,0,1,.61-2.87l1.8.64Z" />
  <polygon class="GUNDAN_DESERT_FOX_JEWELRY_DESERT_FOX_JEWELLERY_12_cls-3" points="300.24 188.72 298.9 191.79 298.02 189.69 300.24 188.72" />
  <path class="GUNDAN_DESERT_FOX_JEWELRY_DESERT_FOX_JEWELLERY_12_cls-3" d="M295.5,188.57a10.08,10.08,0,0,1,1.23-2.14l.47,2.75Z" />
  <path class="GUNDAN_DESERT_FOX_JEWELRY_DESERT_FOX_JEWELLERY_12_cls-4" d="M295.31,196.24a10.41,10.41,0,0,1-.61-2.86l2.41,2.23Z" />
  <polygon class="GUNDAN_DESERT_FOX_JEWELRY_DESERT_FOX_JEWELLERY_12_cls-5" points="298.53 192.64 297.48 195.16 294.75 192.64 297.48 190.12 298.53 192.64" />
  <polygon class="GUNDAN_DESERT_FOX_JEWELRY_DESERT_FOX_JEWELLERY_12_cls-4" points="302.63 185.63 304.14 186.13 301.6 187.48 302.63 185.63" />
  <path class="GUNDAN_DESERT_FOX_JEWELRY_DESERT_FOX_JEWELLERY_12_cls-4" d="M304.21,202.88a9.73,9.73,0,0,1-3.4-.8l1.59-1.64Z" />
  <polygon class="GUNDAN_DESERT_FOX_JEWELRY_DESERT_FOX_JEWELLERY_12_cls-3" points="304.78 198.89 301.14 196.96 299.25 192.64 301.14 188.31 304.78 186.39 308.42 188.31 310.31 192.64 308.42 196.96 304.78 198.89" />
  <polygon class="GUNDAN_DESERT_FOX_JEWELRY_DESERT_FOX_JEWELLERY_12_cls-5" points="300.55 197.25 301.92 199.71 297.34 199.39 297.9 196.09 300.55 197.25" />
  <polygon class="GUNDAN_DESERT_FOX_JEWELRY_DESERT_FOX_JEWELLERY_12_cls-3" points="307.97 187.48 305.42 186.13 306.93 185.63 307.97 187.48" />
  <polygon class="GUNDAN_DESERT_FOX_JEWELRY_DESERT_FOX_JEWELLERY_12_cls-3" points="309.32 196.56 310.67 193.48 311.54 195.58 309.32 196.56" />
  <polygon class="GUNDAN_DESERT_FOX_JEWELRY_DESERT_FOX_JEWELLERY_12_cls-4" points="310.67 191.79 309.32 188.72 311.54 189.69 310.67 191.79" />
  <path class="GUNDAN_DESERT_FOX_JEWELRY_DESERT_FOX_JEWELLERY_12_cls-4" d="M300.25,201.81a10.07,10.07,0,0,1-2.63-1.94l4.22.29Z" />
  <polygon class="GUNDAN_DESERT_FOX_JEWELRY_DESERT_FOX_JEWELLERY_12_cls-5" points="304.78 202.61 302.91 200.08 304.78 199.44 306.65 200.08 304.78 202.61" />
  <polygon class="GUNDAN_DESERT_FOX_JEWELRY_DESERT_FOX_JEWELLERY_12_cls-5" points="311.66 196.09 312.22 199.39 307.64 199.71 309.01 197.25 311.66 196.09" />
  <path class="GUNDAN_DESERT_FOX_JEWELRY_DESERT_FOX_JEWELLERY_12_cls-4" d="M314.07,196.7a10.64,10.64,0,0,1-1.24,2.15l-.47-2.75Z" />
  <polygon class="GUNDAN_DESERT_FOX_JEWELRY_DESERT_FOX_JEWELLERY_12_cls-5" points="311.03 192.64 312.08 190.12 314.81 192.64 312.08 195.16 311.03 192.64" />
  <path class="GUNDAN_DESERT_FOX_JEWELRY_DESERT_FOX_JEWELLERY_12_cls-4" d="M314.87,193.38a10.8,10.8,0,0,1-.62,2.86l-1.8-.63Z" />
  <path class="GUNDAN_DESERT_FOX_JEWELRY_DESERT_FOX_JEWELLERY_12_cls-3" d="M312,199.87a10.29,10.29,0,0,1-2.64,1.94l-1.59-1.65Z" />
  <path class="GUNDAN_DESERT_FOX_JEWELRY_DESERT_FOX_JEWELLERY_12_cls-4" d="M308.75,202.08a9.68,9.68,0,0,1-3.4.8l1.81-2.44Z" />
  <polygon class="GUNDAN_DESERT_FOX_JEWELRY_DESERT_FOX_JEWELLERY_12_cls-5" points="309.01 188.03 307.64 185.57 312.22 185.88 311.66 189.19 309.01 188.03" />
  <path class="GUNDAN_DESERT_FOX_JEWELRY_DESERT_FOX_JEWELLERY_12_cls-4" d="M314.25,189a10.79,10.79,0,0,1,.62,2.87l-2.42-2.23Z" />
  <path class="GUNDAN_DESERT_FOX_JEWELRY_DESERT_FOX_JEWELLERY_12_cls-4" d="M305.35,182.39a9.91,9.91,0,0,1,3.4.81l-1.59,1.63Z" />
  <path class="GUNDAN_DESERT_FOX_JEWELRY_DESERT_FOX_JEWELLERY_12_cls-4" d="M309.31,183.47A10.25,10.25,0,0,1,312,185.4l-4.23-.29Z" />
  <path class="GUNDAN_DESERT_FOX_JEWELRY_DESERT_FOX_JEWELLERY_12_cls-4" d="M297.62,185.4a10,10,0,0,1,2.63-1.93l1.59,1.64Z" />
  <path class="GUNDAN_DESERT_FOX_JEWELRY_DESERT_FOX_JEWELLERY_12_cls-3" d="M300.81,183.2a10,10,0,0,1,3.4-.81l-1.81,2.44Z" />
  <polygon class="GUNDAN_DESERT_FOX_JEWELRY_DESERT_FOX_JEWELLERY_12_cls-5" points="297.9 189.19 297.34 185.88 301.92 185.57 300.55 188.03 297.9 189.19" />
  <polygon class="GUNDAN_DESERT_FOX_JEWELRY_DESERT_FOX_JEWELLERY_12_cls-5" points="302.91 185.2 304.78 182.66 306.65 185.2 304.78 185.83 302.91 185.2" />
  <path class="GUNDAN_DESERT_FOX_JEWELRY_DESERT_FOX_JEWELLERY_12_cls-3" d="M312.83,186.43a10.57,10.57,0,0,1,1.24,2.14l-1.71.61Z" />
  <path class="GUNDAN_DESERT_FOX_JEWELRY_DESERT_FOX_JEWELLERY_12_cls-6" d="M305.24,147.11s4.22,1.74,3.4,5.95" />
</svg>