<svg id="jewelry" xmlns="http://www.w3.org/2000/svg" viewBox="0 0 432 432">
  <defs>
    <style>.GUNDAN_DESERT_FOX_JEWELRY_DESERT_FOX_JEWELLERY_8_cls-1{fill:#e3a92b;}.GUNDAN_DESERT_FOX_JEWELRY_DESERT_FOX_JEWELLERY_8_cls-2,.GUNDAN_DESERT_FOX_JEWELRY_DESERT_FOX_JEWELLERY_8_cls-3{fill:none;stroke:#000;stroke-linecap:round;}.GUNDAN_DESERT_FOX_JEWELRY_DESERT_FOX_JEWELLERY_8_cls-2{stroke-linejoin:round;stroke-width:1.88px;}.GUNDAN_DESERT_FOX_JEWELRY_DESERT_FOX_JEWELLERY_8_cls-3{stroke-miterlimit:10;stroke-width:1.62px;}</style>
  </defs>
  <path class="GUNDAN_DESERT_FOX_JEWELRY_DESERT_FOX_JEWELLERY_8_cls-1" d="M321.69,136.3a16.13,16.13,0,1,1-10.31-1.37,5.56,5.56,0,0,1,.79,3.87,12.19,12.19,0,1,0,7.87,1.09A5.46,5.46,0,0,1,321.69,136.3Z" />
  <path class="GUNDAN_DESERT_FOX_JEWELRY_DESERT_FOX_JEWELLERY_8_cls-2" d="M330.54,152.75a16.14,16.14,0,1,1-19.16-17.82,5.56,5.56,0,0,1,.79,3.87,12.19,12.19,0,1,0,7.87,1.09,5.46,5.46,0,0,1,1.65-3.59A16.14,16.14,0,0,1,330.54,152.75Z" />
  <path class="GUNDAN_DESERT_FOX_JEWELRY_DESERT_FOX_JEWELLERY_8_cls-3" d="M312.58,141.73s.16-5.8-1.74-9.3" />
  <path class="GUNDAN_DESERT_FOX_JEWELRY_DESERT_FOX_JEWELLERY_8_cls-1" d="M325.87,113.23a16.13,16.13,0,1,1-10.4.34,5.52,5.52,0,0,1,1.42,3.69,12.18,12.18,0,1,0,7.94-.22A5.44,5.44,0,0,1,325.87,113.23Z" />
  <path class="GUNDAN_DESERT_FOX_JEWELRY_DESERT_FOX_JEWELLERY_8_cls-2" d="M337.3,128a16.14,16.14,0,1,1-21.83-14.42,5.52,5.52,0,0,1,1.42,3.69,12.18,12.18,0,1,0,7.94-.22,5.44,5.44,0,0,1,1-3.81A16.12,16.12,0,0,1,337.3,128Z" />
  <path class="GUNDAN_DESERT_FOX_JEWELRY_DESERT_FOX_JEWELLERY_8_cls-3" d="M317.77,120.07s-.8-5.74-3.25-8.87" />
</svg>