<svg xmlns="http://www.w3.org/2000/svg" viewBox="0 0 432 432">
  <defs>
    <style>.GUNDAN_DESERT_FOX_JEWELRY_DESERT_FOX_JEWELLERY_18_cls-1{isolation:isolate;}.GUNDAN_DESERT_FOX_JEWELRY_DESERT_FOX_JEWELLERY_18_cls-2{fill:#b9c6c3;}.GUNDAN_DESERT_FOX_JEWELRY_DESERT_FOX_JEWELLERY_18_cls-3{fill:#292929;opacity:0.8;mix-blend-mode:multiply;}.GUNDAN_DESERT_FOX_JEWELRY_DESERT_FOX_JEWELLERY_18_cls-4{fill:#adadad;}.GUNDAN_DESERT_FOX_JEWELRY_DESERT_FOX_JEWELLERY_18_cls-5{fill:#fff;}.GUNDAN_DESERT_FOX_JEWELRY_DESERT_FOX_JEWELLERY_18_cls-6{fill:none;stroke:#000;stroke-linecap:round;stroke-linejoin:round;stroke-width:1.1px;}</style>
  </defs>
  <g class="GUNDAN_DESERT_FOX_JEWELRY_DESERT_FOX_JEWELLERY_18_cls-1">
    <g id="jewelry">
      <path class="GUNDAN_DESERT_FOX_JEWELRY_DESERT_FOX_JEWELLERY_18_cls-2" d="M106.68,175.94a4.15,4.15,0,0,1-.43-.3l-.22-.16a6.42,6.42,0,0,1-1.51-1.8,2.65,2.65,0,0,1-.25-.54.4.4,0,0,1-.07-.12c0-.12-.1-.24-.14-.37a2.35,2.35,0,0,1-.14-.45s0-.1,0-.14c0-.22-.09-.45-.13-.67a3,3,0,0,0,0-.31c0-.07,0-.13,0-.19s0-.09,0-.13a5.17,5.17,0,0,1,.11-1.41,1.86,1.86,0,0,0,.32.23,6.29,6.29,0,0,0,5.2.69,19.66,19.66,0,0,0,2.59,3.76,19,19,0,0,0,1.6,1.66,12.75,12.75,0,0,1-1.83,1A6.33,6.33,0,0,1,106.68,175.94Z" />
      <path class="GUNDAN_DESERT_FOX_JEWELRY_DESERT_FOX_JEWELLERY_18_cls-3" d="M106.13,173.65a6.29,6.29,0,0,1-2.4-2.75h0s0-.09,0-.13a5.17,5.17,0,0,1,.11-1.41,1.86,1.86,0,0,0,.32.23,6.29,6.29,0,0,0,5.2.69,19.66,19.66,0,0,0,2.59,3.76c-.24.13-.52.27-.78.39A6.42,6.42,0,0,1,106.13,173.65Z" />
      <path class="GUNDAN_DESERT_FOX_JEWELRY_DESERT_FOX_JEWELLERY_18_cls-4" d="M102,176.29a9.11,9.11,0,0,1-1.7-1.37,9.29,9.29,0,0,1-1.25-11.46,9.15,9.15,0,0,1,3.4-3.21h0a9.3,9.3,0,0,1,7.4-.68,6.13,6.13,0,0,1,2.39,2.7,5.08,5.08,0,0,1,.32,3c-2.74-.95-6.34-.66-7.94,1.9a6,6,0,0,0-.85,2.18,6.38,6.38,0,0,0,7.88,7.38,11.51,11.51,0,0,1-2.83.9A9.6,9.6,0,0,1,102,176.29Z" />
      <path class="GUNDAN_DESERT_FOX_JEWELRY_DESERT_FOX_JEWELLERY_18_cls-5" d="M100.34,174.92a9.29,9.29,0,0,1-1.25-11.46,9.15,9.15,0,0,1,3.4-3.21h0a9.3,9.3,0,0,1,7.4-.68,6.13,6.13,0,0,1,2.39,2.7c-3.39-1.27-10.74-1.42-12.66,5.33C98.45,169.93,99.22,172.71,100.34,174.92Z" />
      <path class="GUNDAN_DESERT_FOX_JEWELRY_DESERT_FOX_JEWELLERY_18_cls-6" d="M103.82,169.35a5.43,5.43,0,0,0-.11,1.45.18.18,0,0,0,0,.1.37.37,0,0,0,0,.18,6.84,6.84,0,0,0,.34,1.59,2.85,2.85,0,0,0,.12.31,4,4,0,0,0,.37.75c.09.14.17.28.27.42a4.82,4.82,0,0,0,.77.91,3,3,0,0,0,.41.39l0,0,.22.16a4.15,4.15,0,0,0,.43.3,6.33,6.33,0,0,0,5,.78,6.44,6.44,0,0,0,2-.92" />
      <path class="GUNDAN_DESERT_FOX_JEWELRY_DESERT_FOX_JEWELLERY_18_cls-6" d="M102.5,160.24a9.3,9.3,0,0,1,7.4-.68" />
      <path class="GUNDAN_DESERT_FOX_JEWELRY_DESERT_FOX_JEWELLERY_18_cls-6" d="M113.53,175.69a12.75,12.75,0,0,1-1.83,1,11.81,11.81,0,0,1-2.83.9,9.6,9.6,0,0,1-6.83-1.33,4.65,4.65,0,0,1-.6-.42l-.2-.14c-.07-.06-.14-.13-.21-.18a6.54,6.54,0,0,1-.85-.81c-.14-.14-.27-.29-.41-.45a6.44,6.44,0,0,1-.61-.84c-.1-.17-.22-.37-.31-.54a1,1,0,0,1-.08-.14c0-.1-.1-.19-.15-.3s-.17-.36-.25-.55a5.55,5.55,0,0,1-.25-.72,4.64,4.64,0,0,1-.2-.73,4.81,4.81,0,0,1-.13-.62s0-.07,0-.1a5.41,5.41,0,0,1-.07-.58,8.9,8.9,0,0,1,0-.9h0c0-.21,0-.4,0-.61a9.72,9.72,0,0,1,1.39-4.2,9.28,9.28,0,0,1,3.4-3.2" />
      <path class="GUNDAN_DESERT_FOX_JEWELRY_DESERT_FOX_JEWELLERY_18_cls-6" d="M112.61,165.26c-2.74-.95-6.34-.66-7.94,1.9a6,6,0,0,0-.85,2.18" />
      <path class="GUNDAN_DESERT_FOX_JEWELRY_DESERT_FOX_JEWELLERY_18_cls-6" d="M112.61,165.26a5.6,5.6,0,0,0-2.71-5.7" />
      <path class="GUNDAN_DESERT_FOX_JEWELRY_DESERT_FOX_JEWELLERY_18_cls-6" d="M102.49,160.25h0" />
      <path class="GUNDAN_DESERT_FOX_JEWELRY_DESERT_FOX_JEWELLERY_18_cls-6" d="M109.34,170.27a6.29,6.29,0,0,1-5.2-.69,1.86,1.86,0,0,1-.32-.23" />
      <path class="GUNDAN_DESERT_FOX_JEWELRY_DESERT_FOX_JEWELLERY_18_cls-6" d="M109.34,170.27a19.66,19.66,0,0,0,2.59,3.76,19,19,0,0,0,1.6,1.66.49.49,0,0,0,.14.11" />
      <path class="GUNDAN_DESERT_FOX_JEWELRY_DESERT_FOX_JEWELLERY_18_cls-6" d="M108.21,157.71c1.86,1.07,4.66,3.61,4.93,9.32" />
      <path class="GUNDAN_DESERT_FOX_JEWELRY_DESERT_FOX_JEWELLERY_18_cls-2" d="M117.58,188.75a4.83,4.83,0,0,1-.45-.26l-.24-.15a6.38,6.38,0,0,1-1.65-1.67,3.81,3.81,0,0,1-.29-.52l-.08-.12a2.21,2.21,0,0,1-.16-.35,2,2,0,0,1-.18-.44,1.21,1.21,0,0,1,0-.14c-.06-.22-.13-.44-.18-.66s0-.21-.06-.31,0-.12,0-.19a.16.16,0,0,1,0-.12,5.62,5.62,0,0,1,0-1.42,3.87,3.87,0,0,0,.34.21,6.38,6.38,0,0,0,5.24.28,19.87,19.87,0,0,0,2.88,3.54,17.45,17.45,0,0,0,1.73,1.53,12.92,12.92,0,0,1-1.74,1.17A6.31,6.31,0,0,1,117.58,188.75Z" />
      <path class="GUNDAN_DESERT_FOX_JEWELRY_DESERT_FOX_JEWELLERY_18_cls-3" d="M116.84,186.51a6.35,6.35,0,0,1-2.61-2.55v0a.16.16,0,0,1,0-.12,5.62,5.62,0,0,1,0-1.42,3.87,3.87,0,0,0,.34.21,6.38,6.38,0,0,0,5.24.28,19.87,19.87,0,0,0,2.88,3.54c-.23.15-.5.31-.75.44A6.4,6.4,0,0,1,116.84,186.51Z" />
      <path class="GUNDAN_DESERT_FOX_JEWELRY_DESERT_FOX_JEWELLERY_18_cls-4" d="M113,189.46a9.3,9.3,0,0,1-.81-16h0a9.35,9.35,0,0,1,7.32-1.26,6.26,6.26,0,0,1,2.6,2.5,5.09,5.09,0,0,1,.55,3c-2.8-.73-6.36-.16-7.76,2.52a6,6,0,0,0-.68,2.25,6.37,6.37,0,0,0,8.44,6.72,11.31,11.31,0,0,1-2.75,1.13A9.59,9.59,0,0,1,113,189.46Z" />
      <path class="GUNDAN_DESERT_FOX_JEWELRY_DESERT_FOX_JEWELLERY_18_cls-5" d="M111.17,188.23a9.3,9.3,0,0,1,1-14.8h0a9.35,9.35,0,0,1,7.32-1.26,6.26,6.26,0,0,1,2.6,2.5c-3.48-1-10.82-.56-12.2,6.32C108.9,183.41,109.89,186.12,111.17,188.23Z" />
      <path class="GUNDAN_DESERT_FOX_JEWELRY_DESERT_FOX_JEWELLERY_18_cls-6" d="M114.2,182.4a5.94,5.94,0,0,0,0,1.46.18.18,0,0,0,0,.1.24.24,0,0,0,0,.17,6.4,6.4,0,0,0,.46,1.57,2,2,0,0,0,.14.3,4.42,4.42,0,0,0,.43.72q.14.19.3.39a4.83,4.83,0,0,0,.84.85,3.08,3.08,0,0,0,.44.35l0,0,.24.15a4.83,4.83,0,0,0,.45.26,6.31,6.31,0,0,0,5.07.38,6.53,6.53,0,0,0,1.88-1.07" />
      <path class="GUNDAN_DESERT_FOX_JEWELRY_DESERT_FOX_JEWELLERY_18_cls-6" d="M112.17,173.42a9.35,9.35,0,0,1,7.32-1.26" />
      <path class="GUNDAN_DESERT_FOX_JEWELRY_DESERT_FOX_JEWELLERY_18_cls-6" d="M124.39,188a12.92,12.92,0,0,1-1.74,1.17,12,12,0,0,1-2.76,1.12,9.66,9.66,0,0,1-6.91-.78,5.85,5.85,0,0,1-.63-.38,1.55,1.55,0,0,0-.22-.12,1.77,1.77,0,0,0-.22-.16,8.16,8.16,0,0,1-.91-.74c-.15-.13-.29-.28-.44-.42a8.57,8.57,0,0,1-.68-.79c-.11-.17-.25-.35-.34-.51a.61.61,0,0,1-.1-.14l-.17-.28c-.1-.18-.2-.35-.3-.54a6.23,6.23,0,0,1-.3-.69,4.66,4.66,0,0,1-.26-.71c-.06-.18-.13-.39-.18-.61,0,0,0-.07,0-.1a5.72,5.72,0,0,1-.11-.57c0-.29-.09-.6-.11-.89v0c0-.21,0-.4,0-.6a9.55,9.55,0,0,1,1.06-4.3,9.19,9.19,0,0,1,3.13-3.46" />
      <path class="GUNDAN_DESERT_FOX_JEWELRY_DESERT_FOX_JEWELLERY_18_cls-6" d="M122.64,177.63c-2.8-.73-6.36-.16-7.76,2.52a6,6,0,0,0-.68,2.25" />
      <path class="GUNDAN_DESERT_FOX_JEWELRY_DESERT_FOX_JEWELLERY_18_cls-6" d="M122.64,177.63a5.61,5.61,0,0,0-3.15-5.47" />
      <path class="GUNDAN_DESERT_FOX_JEWELRY_DESERT_FOX_JEWELLERY_18_cls-6" d="M112.16,173.43h0" />
      <path class="GUNDAN_DESERT_FOX_JEWELRY_DESERT_FOX_JEWELLERY_18_cls-6" d="M119.78,182.89a6.38,6.38,0,0,1-5.24-.28,3.87,3.87,0,0,1-.34-.21" />
      <path class="GUNDAN_DESERT_FOX_JEWELRY_DESERT_FOX_JEWELLERY_18_cls-6" d="M119.78,182.89a19.87,19.87,0,0,0,2.88,3.54,17.45,17.45,0,0,0,1.73,1.53.71.71,0,0,0,.14.1" />
      <path class="GUNDAN_DESERT_FOX_JEWELRY_DESERT_FOX_JEWELLERY_18_cls-6" d="M117.66,170.45c1.94.92,4.94,3.24,5.65,8.9" />
    </g>
  </g>
</svg>