<svg id="jewelry" xmlns="http://www.w3.org/2000/svg" viewBox="0 0 432 432">
  <defs>
    <style>.GUNDAN_DESERT_FOX_JEWELRY_DESERT_FOX_JEWELLERY_10_cls-1{fill:#ee9546;}.GUNDAN_DESERT_FOX_JEWELRY_DESERT_FOX_JEWELLERY_10_cls-2{fill:#fbd055;}.GUNDAN_DESERT_FOX_JEWELRY_DESERT_FOX_JEWELLERY_10_cls-3,.GUNDAN_DESERT_FOX_JEWELRY_DESERT_FOX_JEWELLERY_10_cls-7,.GUNDAN_DESERT_FOX_JEWELRY_DESERT_FOX_JEWELLERY_10_cls-8{fill:none;}.GUNDAN_DESERT_FOX_JEWELRY_DESERT_FOX_JEWELLERY_10_cls-3,.GUNDAN_DESERT_FOX_JEWELRY_DESERT_FOX_JEWELLERY_10_cls-7,.GUNDAN_DESERT_FOX_JEWELRY_DESERT_FOX_JEWELLERY_10_cls-8,.GUNDAN_DESERT_FOX_JEWELRY_DESERT_FOX_JEWELLERY_10_cls-9{stroke:#000;stroke-linecap:round;}.GUNDAN_DESERT_FOX_JEWELRY_DESERT_FOX_JEWELLERY_10_cls-3{stroke-miterlimit:10;stroke-width:0.9px;}.GUNDAN_DESERT_FOX_JEWELRY_DESERT_FOX_JEWELLERY_10_cls-4,.GUNDAN_DESERT_FOX_JEWELRY_DESERT_FOX_JEWELLERY_10_cls-9{fill:#766e4a;}.GUNDAN_DESERT_FOX_JEWELRY_DESERT_FOX_JEWELLERY_10_cls-5{fill:#c4b98c;}.GUNDAN_DESERT_FOX_JEWELRY_DESERT_FOX_JEWELLERY_10_cls-6{fill:#685b25;}.GUNDAN_DESERT_FOX_JEWELRY_DESERT_FOX_JEWELLERY_10_cls-7,.GUNDAN_DESERT_FOX_JEWELRY_DESERT_FOX_JEWELLERY_10_cls-8,.GUNDAN_DESERT_FOX_JEWELRY_DESERT_FOX_JEWELLERY_10_cls-9{stroke-linejoin:round;}.GUNDAN_DESERT_FOX_JEWELRY_DESERT_FOX_JEWELLERY_10_cls-7{stroke-width:0.4px;}.GUNDAN_DESERT_FOX_JEWELRY_DESERT_FOX_JEWELLERY_10_cls-8{stroke-width:0.38px;}.GUNDAN_DESERT_FOX_JEWELRY_DESERT_FOX_JEWELLERY_10_cls-9{stroke-width:0.32px;}</style>
  </defs>
  <path class="GUNDAN_DESERT_FOX_JEWELRY_DESERT_FOX_JEWELLERY_10_cls-1" d="M106.77,171.43a3.93,3.93,0,0,1,3.93,3.93,3.63,3.63,0,0,1-.1.87,3.77,3.77,0,0,1-1.12,1.94,3.28,3.28,0,0,1-.85.64,3.89,3.89,0,0,1-1.86.47,4,4,0,0,1-1.83-.45,4.21,4.21,0,0,1-.88-.64,4,4,0,0,1-1.1-2,4.22,4.22,0,0,1-.1-.87A3.92,3.92,0,0,1,106.77,171.43Z" />
  <path class="GUNDAN_DESERT_FOX_JEWELRY_DESERT_FOX_JEWELLERY_10_cls-2" d="M106.77,171.43a3.08,3.08,0,0,1,3,3.73,3,3,0,0,1-.87,1.51,2.55,2.55,0,0,1-.67.5,3,3,0,0,1-1.44.36,3,3,0,0,1-1.42-.35,3.6,3.6,0,0,1-.68-.5,3,3,0,0,1-.86-1.52,3.08,3.08,0,0,1-.07-.68A3,3,0,0,1,106.77,171.43Z" />
  <path class="GUNDAN_DESERT_FOX_JEWELRY_DESERT_FOX_JEWELLERY_10_cls-1" d="M109.5,178.19c2.36,4.56,5.93,11.51,5.25,18.64s-4.44,9.78-8,9.78-7.29-2.6-8-9.78,2.9-14.08,5.26-18.64a4.21,4.21,0,0,0,.88.64c-1.61,3.74-4,8.81-3.57,14.62s3,8,5.4,8,5-2.12,5.42-8-2-10.9-3.56-14.64a3.28,3.28,0,0,0,.85-.64Z" />
  <path class="GUNDAN_DESERT_FOX_JEWELRY_DESERT_FOX_JEWELLERY_10_cls-2" d="M109.24,178.19c2.14,4.13,5.37,10.41,4.75,16.86s-4,9.54-7.22,9.54-6.59-3-7.21-9.54,2.62-12.73,4.76-16.86a4.46,4.46,0,0,0,.79.58c-1.45,3.38-4.29,9.07-3.91,14.35s3.4,8.32,5.57,8.32,5.16-3.37,5.12-9.06c0-5.28-2-10.25-3.44-13.63a2.89,2.89,0,0,0,.77-.58Z" />
  <path class="GUNDAN_DESERT_FOX_JEWELRY_DESERT_FOX_JEWELLERY_10_cls-1" d="M106.77,223.78c-9.45,0-19.53-10.06-16.38-25.2C93.14,185.27,103,176.24,103,176.24a1.27,1.27,0,0,0,.06.18,3.8,3.8,0,0,0,1,1.78c-14.48,18.2-5.19,32.59,2.71,32.59S124,196.4,109.49,178.2v0a3.58,3.58,0,0,0,1.06-1.76,1.27,1.27,0,0,0,.06-.18s9.81,9,12.57,22.34C126.31,213.72,116.22,223.78,106.77,223.78Z" />
  <path class="GUNDAN_DESERT_FOX_JEWELRY_DESERT_FOX_JEWELLERY_10_cls-2" d="M106.77,220.45c-8.78,0-18.16-9.36-15.23-23.44,2.33-11.29,10.12-19.26,11.47-20.59a3.8,3.8,0,0,0,1,1.78c-14.48,18.2-5.19,32.59,2.71,32.59S124,196.4,109.49,178.2v0a3.58,3.58,0,0,0,1.06-1.76c1.35,1.33,9.15,9.3,11.49,20.59C124.94,211.09,115.57,220.45,106.77,220.45Z" />
  <path class="GUNDAN_DESERT_FOX_JEWELRY_DESERT_FOX_JEWELLERY_10_cls-3" d="M103,176.23a4.22,4.22,0,0,1-.1-.87,3.92,3.92,0,1,1,7.84,0,3.63,3.63,0,0,1-.1.87,3.77,3.77,0,0,1-1.12,1.94,3.28,3.28,0,0,1-.85.64,3.89,3.89,0,0,1-1.86.47,4,4,0,0,1-1.83-.45,4.21,4.21,0,0,1-.88-.64A4,4,0,0,1,103,176.23Z" />
  <path class="GUNDAN_DESERT_FOX_JEWELRY_DESERT_FOX_JEWELLERY_10_cls-3" d="M106.77,223.77c-9.45,0-19.53-10.06-16.38-25.19C93.15,185.26,103,176.23,103,176.23" />
  <path class="GUNDAN_DESERT_FOX_JEWELRY_DESERT_FOX_JEWELLERY_10_cls-3" d="M106.77,210.78c-7.89,0-17.19-14.39-2.71-32.59" />
  <path class="GUNDAN_DESERT_FOX_JEWELRY_DESERT_FOX_JEWELLERY_10_cls-3" d="M104.06,178.19c-2.36,4.56-5.93,11.51-5.26,18.64s4.44,9.78,8,9.78" />
  <path class="GUNDAN_DESERT_FOX_JEWELRY_DESERT_FOX_JEWELLERY_10_cls-3" d="M104.94,178.81v0c-1.61,3.74-4,8.81-3.57,14.62s3,8,5.4,8" />
  <path class="GUNDAN_DESERT_FOX_JEWELRY_DESERT_FOX_JEWELLERY_10_cls-3" d="M106.77,223.77c9.46,0,19.55-10.06,16.4-25.19-2.76-13.32-12.57-22.35-12.57-22.35" />
  <path class="GUNDAN_DESERT_FOX_JEWELRY_DESERT_FOX_JEWELLERY_10_cls-3" d="M106.77,210.78c7.91,0,17.19-14.39,2.73-32.59" />
  <path class="GUNDAN_DESERT_FOX_JEWELRY_DESERT_FOX_JEWELLERY_10_cls-3" d="M109.5,178.19c2.36,4.56,5.93,11.51,5.25,18.64s-4.44,9.78-8,9.78" />
  <path class="GUNDAN_DESERT_FOX_JEWELRY_DESERT_FOX_JEWELLERY_10_cls-3" d="M108.63,178.81c1.6,3.74,4,8.82,3.56,14.64s-3,8-5.42,8" />
  <path class="GUNDAN_DESERT_FOX_JEWELRY_DESERT_FOX_JEWELLERY_10_cls-3" d="M106.77,179.28c3.41,3.83,4.8,15.56.84,16.34s-5.2-4.5-2.53-5.89a2,2,0,0,1,2.8,1.12" />
  <path class="GUNDAN_DESERT_FOX_JEWELRY_DESERT_FOX_JEWELLERY_10_cls-3" d="M110.25,157.85a5.1,5.1,0,0,1,1.61,2.77c1,4.42-5.15,4.65-5.15,10.69" />
  <path class="GUNDAN_DESERT_FOX_JEWELRY_DESERT_FOX_JEWELLERY_10_cls-3" d="M101.57,161.74a6.69,6.69,0,0,1,2.94-4.11" />
  <path class="GUNDAN_DESERT_FOX_JEWELRY_DESERT_FOX_JEWELLERY_10_cls-3" d="M111.84,157s-2.19-.19-2.65,2.66" />
  <path class="GUNDAN_DESERT_FOX_JEWELRY_DESERT_FOX_JEWELLERY_10_cls-4" d="M228.19,364.19l-.49,0a.17.17,0,0,1-.13-.07.24.24,0,0,1,0-.14l0-.54-.28,0-.09.54a.2.2,0,0,1-.19.16h0l-.48-.1a.2.2,0,0,1-.14-.24l.13-.52-.27-.08-.18.51a.18.18,0,0,1-.18.13h-.06l-.46-.17a.2.2,0,0,1-.11-.26l.21-.49-.26-.12-.25.48a.17.17,0,0,1-.11.09h-.06l-.09,0-.43-.24a.2.2,0,0,1-.06-.27l.28-.46a1.88,1.88,0,0,1-.23-.16l-.32.44a.21.21,0,0,1-.16.08.19.19,0,0,1-.12,0l-.38-.3a.19.19,0,0,1,0-.28l.35-.41-.21-.18-.38.37a.17.17,0,0,1-.14.06h0a.2.2,0,0,1-.14-.06q-.16-.16-.33-.36a.2.2,0,0,1-.05-.14.21.21,0,0,1,.07-.13l.4-.36-.17-.21-.44.31a.15.15,0,0,1-.11,0h0a.22.22,0,0,1-.13-.08c-.1-.13-.19-.27-.28-.4a.2.2,0,0,1,.06-.27l.46-.29c0-.08-.1-.16-.14-.24l-.48.25-.09,0a.18.18,0,0,1-.17-.11c-.08-.14-.15-.29-.22-.44a.19.19,0,0,1,0-.15.22.22,0,0,1,.1-.11l.5-.22a2,2,0,0,1-.1-.26l-.51.18H221a.19.19,0,0,1-.18-.14c-.05-.15-.1-.31-.14-.47a.14.14,0,0,1,0-.14.16.16,0,0,1,.12-.09l.52-.14-.06-.28-.57.1a.15.15,0,0,1-.11,0,.2.2,0,0,1-.08-.12c0-.16,0-.33-.07-.49a.23.23,0,0,1,0-.14.19.19,0,0,1,.14-.07l.53-.06c0-.09,0-.19,0-.28h-.54a.19.19,0,0,1-.13,0,.2.2,0,0,1-.06-.14,4,4,0,0,1,0-.49.21.21,0,0,1,.2-.19l.55,0a2.46,2.46,0,0,1,0-.28l-.54-.07a.2.2,0,0,1-.12-.08.15.15,0,0,1,0-.14c0-.16.05-.33.08-.49a.19.19,0,0,1,.19-.15h0l.52.11a2.68,2.68,0,0,0,.07-.27l-.51-.16a.19.19,0,0,1-.12-.09.26.26,0,0,1,0-.15c.05-.16.1-.31.16-.47a.2.2,0,0,1,.18-.12h.07l.51.18a2.72,2.72,0,0,1,.11-.25l-.49-.23a.2.2,0,0,1-.1-.26c.07-.15.15-.3.23-.44a.19.19,0,0,1,.17-.1l.09,0,.47.26.14-.23-.44-.31a.19.19,0,0,1,0-.27c.09-.13.19-.27.29-.39a.21.21,0,0,1,.15-.08.21.21,0,0,1,.12,0l.43.33.18-.21-.4-.37a.19.19,0,0,1,0-.27c.11-.12.23-.24.35-.35a.18.18,0,0,1,.13-.06.18.18,0,0,1,.14.06l.37.39.21-.18-.33-.42a.18.18,0,0,1,0-.14.17.17,0,0,1,.07-.13l.39-.3.12,0h0a.22.22,0,0,1,.13.08l.3.44.24-.14-.27-.47a.26.26,0,0,1,0-.15.23.23,0,0,1,.1-.12c.14-.08.28-.16.43-.23l.08,0a.19.19,0,0,1,.18.11l.24.49.25-.11-.19-.51a.19.19,0,0,1,0-.15.35.35,0,0,1,.11-.1l.47-.16h0a.2.2,0,0,1,.19.14l.16.51.27-.07-.11-.52a.2.2,0,0,1,0-.15.17.17,0,0,1,.12-.08,4,4,0,0,1,.48-.09h0a.19.19,0,0,1,.19.16l.08.54.21,0h.07l0-.54a.16.16,0,0,1,.05-.14.16.16,0,0,1,.13-.06l.45,0a.25.25,0,0,1,.16.06.27.27,0,0,1,.07.14v.53l.28,0,0-.54a.21.21,0,0,1,.07-.13.19.19,0,0,1,.12,0h0a3.86,3.86,0,0,1,.49.06.19.19,0,0,1,.16.22l-.08.54.27.05.13-.52a.22.22,0,0,1,.09-.12.19.19,0,0,1,.1,0h.05l.47.14a.2.2,0,0,1,.13.24l-.17.51.26.1.21-.49a.2.2,0,0,1,.18-.12h.08l.44.21a.19.19,0,0,1,.09.26l-.24.49.24.13.29-.46a.23.23,0,0,1,.12-.09h0a.23.23,0,0,1,.11,0l.4.27a.19.19,0,0,1,0,.27l-.31.44.22.17.35-.41a.16.16,0,0,1,.13-.06h0a.18.18,0,0,1,.13,0l.36.33a.2.2,0,0,1,.06.14.24.24,0,0,1-.05.14l-.38.39a1.8,1.8,0,0,1,.19.2l.41-.35a.21.21,0,0,1,.13-.05h0a.23.23,0,0,1,.14.07c.1.12.21.25.3.38a.19.19,0,0,1,0,.27l-.44.33a1.88,1.88,0,0,1,.16.23l.46-.29a.19.19,0,0,1,.1,0,.21.21,0,0,1,.17.1,3.5,3.5,0,0,1,.24.42.18.18,0,0,1-.07.26l-.48.26a1.15,1.15,0,0,1,.12.25l.5-.21.07,0,.08,0a.19.19,0,0,1,.1.1,4.37,4.37,0,0,1,.18.46.2.2,0,0,1-.12.25l-.51.18c0,.09,0,.18.08.26l.53-.13h0a.18.18,0,0,1,.19.14c0,.16.08.32.11.48a.21.21,0,0,1,0,.15.22.22,0,0,1-.13.08l-.52.1a2.51,2.51,0,0,0,0,.27l.55-.05a.19.19,0,0,1,.19.17,4.77,4.77,0,0,1,0,.51.2.2,0,0,1-.18.21h-.55v.28l.54,0a.19.19,0,0,1,.18.21c0,.16,0,.33,0,.49a.19.19,0,0,1-.19.17l-.56-.07c0,.09,0,.19,0,.28l.52.11a.18.18,0,0,1,.12.09.17.17,0,0,1,0,.14l-.12.48a.22.22,0,0,1-.09.12l-.1,0h-.05l-.52-.14-.09.26.51.19a.2.2,0,0,1,.11.26l-.19.45a.21.21,0,0,1-.18.11.11.11,0,0,1-.08,0l-.49-.22c0,.08-.08.17-.13.25l.47.26a.22.22,0,0,1,.09.12.19.19,0,0,1,0,.15c-.08.14-.17.28-.26.42a.18.18,0,0,1-.16.09.17.17,0,0,1-.11,0l-.45-.29a1.77,1.77,0,0,1-.16.22l.42.34a.17.17,0,0,1,.07.13.15.15,0,0,1,0,.14c-.1.13-.2.26-.31.38a.2.2,0,0,1-.14.06h0a.21.21,0,0,1-.13-.05l-.4-.36-.2.2.37.39a.16.16,0,0,1,.05.14.18.18,0,0,1-.06.14c-.12.11-.24.22-.37.32a.17.17,0,0,1-.12,0h0a.17.17,0,0,1-.13-.07l-.34-.41-.23.16.3.45a.19.19,0,0,1-.05.27l-.41.26a.19.19,0,0,1-.1,0h-.05a.19.19,0,0,1-.12-.09l-.28-.47-.24.13.23.49a.26.26,0,0,1,0,.15.2.2,0,0,1-.11.11,4.68,4.68,0,0,1-.45.2h-.07l-.08,0a.24.24,0,0,1-.1-.1l-.2-.51-.26.1.15.51a.19.19,0,0,1,0,.15.18.18,0,0,1-.12.09l-.47.13h0a.19.19,0,0,1-.19-.15l-.12-.53-.27.05.07.54a.2.2,0,0,1-.17.22l-.44,0a.29.29,0,0,1-.16,0s-.09-.08-.09-.14l0-.53h-.28V364a.19.19,0,0,1-.19.19Zm-2.87-3.63a5.22,5.22,0,0,0,3,1h.06l-.1-1.11a4.19,4.19,0,0,1-2.28-.7Zm4,.87a5.34,5.34,0,0,0,2.86-1.5l-.86-.71a4.16,4.16,0,0,1-2.11,1.11Zm-6.17-4.3a5.32,5.32,0,0,0,1.51,2.87l.7-.86a4.16,4.16,0,0,1-1.11-2.11Zm3.44,1.93a3.37,3.37,0,0,0,1.66.51l-.21-2.26Zm2.54.43a3.33,3.33,0,0,0,1.54-.81l-1.75-1.45Zm3.62-.25a5.32,5.32,0,0,0,1-3.09l-1.1.1a4.12,4.12,0,0,1-.71,2.28ZM225.07,357a3.3,3.3,0,0,0,.82,1.54l1.44-1.75Zm6.15,1a3.37,3.37,0,0,0,.51-1.66l-2.26.21ZM224,353.16a5.33,5.33,0,0,0-1,3.09l1.11-.1a4.17,4.17,0,0,1,.7-2.29Zm1.5,1.25a3.34,3.34,0,0,0-.51,1.66l2.26-.21Zm3.89,1.25,2.26-.21a3.33,3.33,0,0,0-.81-1.54Zm2-2.4a4.12,4.12,0,0,1,1.11,2.11l1.11-.11a5.46,5.46,0,0,0-1.51-2.86Zm-3.56,1.91-.21-2.26a3.38,3.38,0,0,0-1.54.81Zm.88-.08,1.45-1.75a3.34,3.34,0,0,0-1.66-.51Zm-3.28-1.91a4.16,4.16,0,0,1,2.11-1.11l-.1-1.11a5.45,5.45,0,0,0-2.87,1.51Zm3-1.2a4.18,4.18,0,0,1,2.28.71l.71-.86a5.28,5.28,0,0,0-3-.95h-.06Z" />
  <path d="M228.37,348.4h0v.73c.21,0,.43,0,.64,0l.07-.73.48.06-.12.73c.22,0,.43.08.64.13l.18-.71.46.13-.22.69.61.23.28-.67.44.2-.33.66a6.22,6.22,0,0,1,.56.32l.39-.63.4.27-.42.6a5.93,5.93,0,0,1,.51.4l.47-.56.36.32-.51.53c.15.15.3.31.44.47l.56-.47.3.37-.59.44a5.14,5.14,0,0,1,.37.54l.62-.39a3.38,3.38,0,0,1,.24.41l-.64.35a4.41,4.41,0,0,1,.28.58l.67-.28c.07.14.12.29.18.44l-.7.25a4.44,4.44,0,0,1,.19.62l.71-.18c0,.15.08.31.11.47l-.72.13c0,.21.07.43.09.65l.73-.07h0l0,.48-.74,0c0,.22,0,.44,0,.65l.73.05c0,.16,0,.32,0,.47l-.73-.08c0,.21-.06.43-.1.64l.71.15-.12.47-.7-.2a6.26,6.26,0,0,1-.21.61l.69.27c-.06.14-.12.29-.19.44l-.67-.31a6.27,6.27,0,0,1-.29.58l.63.36c-.08.14-.16.28-.25.41l-.61-.4c-.12.18-.25.36-.38.53l.57.45c-.1.13-.2.25-.31.37l-.54-.5c-.15.17-.3.32-.46.47l.5.54-.36.31-.46-.56c-.17.13-.34.26-.52.38l.4.61-.4.25-.37-.63a6.36,6.36,0,0,1-.58.3l.31.66a3.43,3.43,0,0,1-.44.19l-.27-.68-.61.22.2.7-.46.12-.16-.72a4.5,4.5,0,0,1-.64.11l.1.73-.3,0h-.18l0-.73-.53,0h-.12V364l-.48,0,.06-.73a4.81,4.81,0,0,1-.65-.08l-.12.72c-.16,0-.32-.06-.47-.09l.17-.72a6.32,6.32,0,0,1-.62-.18l-.24.7-.45-.17.28-.68a6.28,6.28,0,0,1-.59-.27l-.34.65-.42-.24.38-.63-.54-.36-.43.59-.38-.29.47-.56c-.17-.14-.33-.29-.48-.44l-.52.51-.32-.34.55-.49a5.08,5.08,0,0,1-.41-.51l-.59.44a3.51,3.51,0,0,1-.27-.4l.61-.39c-.11-.18-.22-.37-.32-.56l-.65.33-.21-.43.67-.3c-.08-.19-.16-.39-.23-.6l-.7.23c-.05-.15-.09-.3-.13-.46l.71-.19a4.13,4.13,0,0,1-.14-.63l-.73.12c0-.15,0-.31-.06-.47l.72-.08s0-.07,0-.11,0-.36,0-.54l-.73,0c0-.16,0-.32,0-.48l.73,0c0-.22,0-.43.06-.65l-.73-.1c0-.15.05-.31.08-.47l.72.14q.06-.31.15-.63l-.7-.2.15-.46.69.25c.08-.2.16-.4.25-.59l-.66-.32c.07-.14.14-.29.22-.43l.63.36c.11-.19.22-.38.34-.56l-.6-.41.28-.38.58.44.42-.49-.53-.5c.1-.12.22-.23.33-.34l.51.53c.15-.15.32-.29.49-.43l-.46-.57.39-.29.41.6.55-.34-.36-.64.42-.22.33.66a6.21,6.21,0,0,1,.59-.26l-.26-.69.45-.15.22.69.63-.16-.15-.71.47-.09.11.73.38-.06H228l0-.73h.45m-.13,3.78h.12a4,4,0,0,1,2.37.77l1-1.15a5.47,5.47,0,0,0-3.32-1.12h-.27l.14,1.49m-2.81,1.27a4,4,0,0,1,2.31-1.22l-.14-1.49a5.46,5.46,0,0,0-3.32,1.75l1.15,1m6.9,2.13,1.49-.14a5.43,5.43,0,0,0-1.75-3.32l-1,1.15a4,4,0,0,1,1.22,2.31m-3.78,0,1.89-2.28a3.58,3.58,0,0,0-2.08-.67h-.08l.27,2.95m-.49,0-.28-2.94a3.53,3.53,0,0,0-2,1.06l2.28,1.88m-5.21.84,1.49-.14a4,4,0,0,1,.77-2.49l-1.15-1a5.56,5.56,0,0,0-1.11,3.59m6.09-.57,2.94-.27a3.53,3.53,0,0,0-1.06-2l-1.88,2.27m-4.15.39,3-.27-2.28-1.89a3.53,3.53,0,0,0-.67,2.16m8,3.24a5.47,5.47,0,0,0,1.11-3.59l-1.49.14a4,4,0,0,1-.77,2.5l1.15.95m-1.5-1.24a3.53,3.53,0,0,0,.67-2.16l-3,.27,2.28,1.89m-5.36.5,1.89-2.28-2.95.28a3.53,3.53,0,0,0,1.06,2m3,.94a3.53,3.53,0,0,0,2-1.06l-2.27-1.89.27,3m-4.29.56,1-1.15a4,4,0,0,1-1.22-2.31l-1.49.14a5.51,5.51,0,0,0,1.75,3.32m3.71-.51h.08l-.27-2.95-1.89,2.28a3.58,3.58,0,0,0,2.08.67m.76,1.89a5.48,5.48,0,0,0,3.32-1.75l-1.15-1a3.93,3.93,0,0,1-2.31,1.22l.14,1.49m-.77,0h.28l-.14-1.49h-.13a4,4,0,0,1-2.37-.77l-1,1.15a5.49,5.49,0,0,0,3.31,1.11m0-13.7h-.47a.41.41,0,0,0-.27.13.39.39,0,0,0-.08.14.32.32,0,0,0-.11-.12.4.4,0,0,0-.23-.08h-.06a4.21,4.21,0,0,0-.49.09.42.42,0,0,0-.25.16.44.44,0,0,0-.06.16.37.37,0,0,0-.31-.15.23.23,0,0,0-.11,0,4.5,4.5,0,0,0-.48.16.4.4,0,0,0-.25.36l-.14-.08-.13,0a.38.38,0,0,0-.17,0l-.44.23a.38.38,0,0,0-.19.4.4.4,0,0,0-.45,0l-.4.3a.4.4,0,0,0-.13.43.33.33,0,0,0-.17,0,.36.36,0,0,0-.27.11l-.35.35a.4.4,0,0,0-.06.44h-.12a.4.4,0,0,0-.31.15l-.29.4a.41.41,0,0,0,0,.45h-.05a.39.39,0,0,0-.34.21c-.08.14-.16.29-.23.44a.39.39,0,0,0,0,.3.42.42,0,0,0,.09.14.29.29,0,0,0-.16,0,.34.34,0,0,0-.2.22,3.71,3.71,0,0,0-.16.47.39.39,0,0,0,.14.43.37.37,0,0,0-.32.31c0,.16-.06.33-.09.49a.43.43,0,0,0,.08.29.63.63,0,0,0,.12.11.37.37,0,0,0-.26.35c0,.17,0,.34,0,.5a.38.38,0,0,0,.26.36.4.4,0,0,0-.21.39c0,.17,0,.34.07.5a.38.38,0,0,0,.16.25.35.35,0,0,0,.15.07.38.38,0,0,0-.15.41c0,.17.09.33.14.49a.43.43,0,0,0,.2.22.29.29,0,0,0,.16,0,.4.4,0,0,0-.08.44c.06.15.14.3.21.45a.38.38,0,0,0,.35.21h0a.39.39,0,0,0,0,.44c.09.14.18.28.28.42a.42.42,0,0,0,.32.16l.1,0a.39.39,0,0,0,.05.44c.11.13.23.25.35.37a.39.39,0,0,0,.27.11h0a.41.41,0,0,0,.16,0,.88.88,0,0,0,0,.16.4.4,0,0,0,.14.27l.4.31a.39.39,0,0,0,.23.07.39.39,0,0,0,.21-.06.4.4,0,0,0,.18.41l.44.24a.41.41,0,0,0,.18.05l.12,0,.14-.08a.45.45,0,0,0,0,.16.43.43,0,0,0,.21.21l.47.18.13,0a.47.47,0,0,0,.17,0,.35.35,0,0,0,.13-.11.39.39,0,0,0,.3.34l.49.1H227a.36.36,0,0,0,.22-.07.32.32,0,0,0,.11-.12.44.44,0,0,0,.08.15.35.35,0,0,0,.27.13,4.07,4.07,0,0,0,.5,0h0a.4.4,0,0,0,.36-.24.38.38,0,0,0,.1.13.38.38,0,0,0,.25.09h.21l.32,0a.39.39,0,0,0,.33-.3.38.38,0,0,0,.32.18h.09l.48-.13a.38.38,0,0,0,.24-.19.37.37,0,0,0,0-.15.42.42,0,0,0,.14.09l.15,0a.39.39,0,0,0,.15,0l.46-.2a.47.47,0,0,0,.2-.22.33.33,0,0,0,0-.17.36.36,0,0,0,.15.08h.1a.41.41,0,0,0,.19-.05l.43-.27a.38.38,0,0,0,.16-.41l.16.05h0a.36.36,0,0,0,.24-.09,3.9,3.9,0,0,0,.38-.33.39.39,0,0,0,.1-.43.32.32,0,0,0,.14,0h0a.39.39,0,0,0,.27-.13l.33-.38a.41.41,0,0,0,0-.45h.08a.4.4,0,0,0,.33-.17l.26-.43a.39.39,0,0,0,0-.44h0a.38.38,0,0,0,.35-.23c.07-.15.14-.31.2-.46a.39.39,0,0,0,0-.3.42.42,0,0,0-.09-.14.39.39,0,0,0,.34-.28l.12-.49a.41.41,0,0,0-.17-.41.34.34,0,0,0,.15-.07.38.38,0,0,0,.14-.26c0-.17,0-.33,0-.5a.37.37,0,0,0-.1-.28.41.41,0,0,0-.13-.1.3.3,0,0,0,.13-.09.43.43,0,0,0,.11-.28l0-.5a.42.42,0,0,0-.14-.28l-.15-.08a.43.43,0,0,0,.12-.11.39.39,0,0,0,.06-.3c0-.16-.07-.32-.11-.49a.38.38,0,0,0-.33-.29.45.45,0,0,0,.1-.13.39.39,0,0,0,0-.3,4.37,4.37,0,0,0-.18-.46.36.36,0,0,0-.21-.21.4.4,0,0,0-.15,0h0a.53.53,0,0,0,.08-.15.37.37,0,0,0,0-.29l-.25-.44a.39.39,0,0,0-.25-.17h-.16a.3.3,0,0,0,.05-.16.38.38,0,0,0-.07-.29l-.32-.39a.36.36,0,0,0-.29-.13.27.27,0,0,0-.13,0,.4.4,0,0,0-.09-.44c-.12-.11-.24-.23-.37-.33a.37.37,0,0,0-.26-.1.41.41,0,0,0-.18.05.91.91,0,0,0,0-.17.42.42,0,0,0-.16-.25l-.42-.28a.39.39,0,0,0-.21-.06h-.09l-.14.07a.39.39,0,0,0-.22-.38l-.45-.22a.45.45,0,0,0-.16,0,.44.44,0,0,0-.28.12.47.47,0,0,0,0-.16.39.39,0,0,0-.23-.19l-.48-.14h-.1a.39.39,0,0,0-.32.16.38.38,0,0,0-.32-.3l-.5-.07h0a.4.4,0,0,0-.35.22.37.37,0,0,0-.36-.25Zm.22,3.78-.06-.71a5,5,0,0,1,2.58.8l-.46.55a4.37,4.37,0,0,0-2.06-.64Zm-3.73.67a5.13,5.13,0,0,1,2.39-1.26l.07.71a4.42,4.42,0,0,0-1.91,1l-.55-.46Zm6.78.79.46-.56a5.11,5.11,0,0,1,1.26,2.4l-.71.07a4.31,4.31,0,0,0-1-1.91Zm-2.79,1.35-.14-1.56a3.13,3.13,0,0,1,1.15.35l-1,1.21Zm-2.48-.88a3.14,3.14,0,0,1,1.07-.56l.14,1.56-1.21-1ZM223.24,356a5.15,5.15,0,0,1,.8-2.58l.55.46A4.25,4.25,0,0,0,224,356l-.72.06Zm6.6-.61,1-1.21a3.09,3.09,0,0,1,.56,1.06l-1.56.15Zm-4.64.43a3.35,3.35,0,0,1,.36-1.15l1.2,1-1.56.14Zm7.57.58.71-.07a5.06,5.06,0,0,1-.8,2.59l-.55-.46a4.41,4.41,0,0,0,.64-2.06Zm-2.81.26,1.56-.14a3,3,0,0,1-.35,1.14l-1.21-1Zm-4.64.44,1.56-.15-1,1.21a3.38,3.38,0,0,1-.56-1.06Zm-2,.18.71-.07a4.53,4.53,0,0,0,1,1.91l-.46.55a5.22,5.22,0,0,1-1.26-2.39Zm5.93,1.93-.15-1.56,1.21,1a3.27,3.27,0,0,1-1.06.56Zm-2.42-.24,1-1.2.14,1.56a3.23,3.23,0,0,1-1.14-.36Zm2.53,1.49a4.41,4.41,0,0,0,1.91-1l.56.46a5.21,5.21,0,0,1-2.4,1.26l-.07-.71Zm-3.79,0,.46-.55a4.29,4.29,0,0,0,2.06.63l.07.72a5.06,5.06,0,0,1-2.59-.8Z" />
  <circle cx="227.49" cy="348.37" r="1.63" />
  <path d="M170.9,318.85l.22-2.11a2.79,2.79,0,0,0-2.22,1" />
  <path class="GUNDAN_DESERT_FOX_JEWELRY_DESERT_FOX_JEWELLERY_10_cls-5" d="M202.48,342.18s-1.49-.91-2.76-1.51l0,0a1.68,1.68,0,0,0,.53-.53,1.64,1.64,0,0,0,.25-.6,9.07,9.07,0,0,1,1.95.93,5.42,5.42,0,0,1,.57.45A1.89,1.89,0,0,0,202.48,342.18Z" />
  <path class="GUNDAN_DESERT_FOX_JEWELRY_DESERT_FOX_JEWELLERY_10_cls-5" d="M194.35,338.76a6,6,0,0,0,3.89,1.29h0a1.07,1.07,0,0,0,.75-.4.94.94,0,0,0,.18-.54h0s.58.17,1.29.42a1.64,1.64,0,0,1-.25.6,1.68,1.68,0,0,1-.53.53l0,0a4.16,4.16,0,0,1-3.48.21c-1.71-.57-3-1.32-3.07-2.28a1.87,1.87,0,0,1,.55-1.29,2.87,2.87,0,0,1,.58.56.76.76,0,0,0-.09.55A.75.75,0,0,0,194.35,338.76Z" />
  <path class="GUNDAN_DESERT_FOX_JEWELRY_DESERT_FOX_JEWELLERY_10_cls-5" d="M172.23,321.68a.76.76,0,0,1-.28.44,1.69,1.69,0,0,1-1.49.42.74.74,0,0,1,.06-.37,1,1,0,0,1,.39-.47h0a2.79,2.79,0,0,0-.21-.73,2.59,2.59,0,0,0-1.18,1s-.31-.53-.74-1.18h0c-.53-1-.45-2.82.86-3.37h0c1.33-.59,1.14,1.3,1.19,1.37a5.64,5.64,0,0,1,1.25,1.86A1.66,1.66,0,0,1,172.23,321.68Z" />
  <path class="GUNDAN_DESERT_FOX_JEWELRY_DESERT_FOX_JEWELLERY_10_cls-6" d="M172.23,321.68a1.66,1.66,0,0,0-.16-1.06,6.08,6.08,0,0,1,3.09,1.91,3.28,3.28,0,0,1,.67,1.65l-.15-.09a2.92,2.92,0,0,0-1.28-.47A4.48,4.48,0,0,0,172.23,321.68Z" />
  <path class="GUNDAN_DESERT_FOX_JEWELRY_DESERT_FOX_JEWELLERY_10_cls-5" d="M169.51,322a2.55,2.55,0,0,1,1.19-1,2.94,2.94,0,0,1,.2.73h0a1,1,0,0,0-.38.48.69.69,0,0,0-.06.36,4.77,4.77,0,0,0,2.26,2.48,1.42,1.42,0,0,0,1.31.05,1.82,1.82,0,0,0,.36-.29c.11.05.58.29,1.12.61a2.15,2.15,0,0,1-.64.59,2.29,2.29,0,0,1-.62.27,3.59,3.59,0,0,1-3.29-1.06C169.77,324,169.06,322.85,169.51,322Z" />
  <path class="GUNDAN_DESERT_FOX_JEWELRY_DESERT_FOX_JEWELLERY_10_cls-5" d="M174.25,326.25a2.29,2.29,0,0,0,.62-.27,2.15,2.15,0,0,0,.64-.59h0a7.81,7.81,0,0,1,1.68,1.21c.19.21.35.38.47.53a2.11,2.11,0,0,0-.85,1.19h0A27.49,27.49,0,0,0,174.25,326.25Z" />
  <path class="GUNDAN_DESERT_FOX_JEWELRY_DESERT_FOX_JEWELLERY_10_cls-4" d="M174,325.07a1.42,1.42,0,0,1-1.31-.05.59.59,0,0,1,0-.65,1.75,1.75,0,0,1,1.66-.75,2.92,2.92,0,0,1,1.28.47l.15.09h0a14.79,14.79,0,0,1,3.07,2.31,1.86,1.86,0,0,1,.51.95.85.85,0,0,1-.14.49,1.6,1.6,0,0,1-1.33.72.64.64,0,0,1-.06-.35,1,1,0,0,1,.22-.54h0a2.6,2.6,0,0,0-.43-.64c-.12-.15-.28-.32-.47-.53a7.81,7.81,0,0,0-1.68-1.21h0c-.54-.32-1-.56-1.12-.61A1.82,1.82,0,0,1,174,325.07Z" />
  <path class="GUNDAN_DESERT_FOX_JEWELRY_DESERT_FOX_JEWELLERY_10_cls-6" d="M187.07,332.87a1.66,1.66,0,0,0-.41-1h0a6.69,6.69,0,0,1,3.5,1.36,3.47,3.47,0,0,1,1.06,1.5l-.17-.07a3.32,3.32,0,0,0-1.38-.25A5.13,5.13,0,0,0,187.07,332.87Z" />
  <path class="GUNDAN_DESERT_FOX_JEWELRY_DESERT_FOX_JEWELLERY_10_cls-6" d="M182,328.7a5.27,5.27,0,0,0-2.6-1.25,1.86,1.86,0,0,0-.51-.95,6.87,6.87,0,0,1,3.63,1.12,3.14,3.14,0,0,1,1.29,1.75l-.12-.09A2.53,2.53,0,0,0,182,328.7Z" />
  <path class="GUNDAN_DESERT_FOX_JEWELRY_DESERT_FOX_JEWELLERY_10_cls-5" d="M182.33,331.55a4.23,4.23,0,0,1-3.05-.48c-1.53-.84-2.61-1.79-2.46-2.75a2.11,2.11,0,0,1,.85-1.19,2.6,2.6,0,0,1,.43.64h0a1,1,0,0,0-.22.54.64.64,0,0,0,.06.35,5.61,5.61,0,0,0,3.13,1.89h0a1.36,1.36,0,0,0,1.17-.28.87.87,0,0,0,.24-.32c.22.14.65.41,1.1.73h0a1.78,1.78,0,0,1-.22.26A2.2,2.2,0,0,1,182.33,331.55Z" />
  <path class="GUNDAN_DESERT_FOX_JEWELRY_DESERT_FOX_JEWELLERY_10_cls-4" d="M181.08,330.56h0c-.43-.4-.61-.79-.32-1.18a1.72,1.72,0,0,1,1.26-.67,2.53,2.53,0,0,1,1.69.58l.12.09h0a14.08,14.08,0,0,1,2.84,2.5h0a1.66,1.66,0,0,1,.41,1h0a.71.71,0,0,1-.18.47,1.64,1.64,0,0,1-1.38.65.69.69,0,0,1,0-.37,1,1,0,0,1,.27-.52,2.57,2.57,0,0,0-.37-.67l-.41-.57a6.67,6.67,0,0,0-1.38-1.18c-.45-.32-.88-.59-1.1-.73a.87.87,0,0,1-.24.32A1.36,1.36,0,0,1,181.08,330.56Z" />
  <path class="GUNDAN_DESERT_FOX_JEWELRY_DESERT_FOX_JEWELLERY_10_cls-5" d="M183.59,330.69a6.67,6.67,0,0,1,1.38,1.18l.41.57a2.19,2.19,0,0,0-.95,1.14,27.74,27.74,0,0,0-2.1-2,2.2,2.2,0,0,0,1-.6,1.78,1.78,0,0,0,.22-.26Z" />
  <path class="GUNDAN_DESERT_FOX_JEWELRY_DESERT_FOX_JEWELLERY_10_cls-5" d="M185.51,334a5.35,5.35,0,0,0,2.82,2.05,1.42,1.42,0,0,0,1.31-.16,1.08,1.08,0,0,0,.28-.34c.12,0,.65.18,1.26.41a2.06,2.06,0,0,1-.49.68,2.08,2.08,0,0,1-.57.35,3.78,3.78,0,0,1-3.5-.5c-1.45-.94-2.43-2-2.19-2.91a2.19,2.19,0,0,1,.95-1.14,2.57,2.57,0,0,1,.37.67,1,1,0,0,0-.27.52A.69.69,0,0,0,185.51,334Z" />
  <path class="GUNDAN_DESERT_FOX_JEWELRY_DESERT_FOX_JEWELLERY_10_cls-5" d="M193.14,336.86l.58.44h0a1.87,1.87,0,0,0-.55,1.29h0a31.19,31.19,0,0,0-3-1.6h0a2.08,2.08,0,0,0,.57-.35,2.06,2.06,0,0,0,.49-.68A8.7,8.7,0,0,1,193.14,336.86Z" />
  <path class="GUNDAN_DESERT_FOX_JEWELRY_DESERT_FOX_JEWELLERY_10_cls-4" d="M193.72,337.3l-.58-.44a8.7,8.7,0,0,0-2-.9c-.61-.23-1.14-.38-1.26-.41a1.08,1.08,0,0,1-.28.34,1.42,1.42,0,0,1-1.31.16.57.57,0,0,1-.13-.63,1.6,1.6,0,0,1,1.47-1,3.32,3.32,0,0,1,1.38.25l.17.07a27,27,0,0,1,3.58,1.75l.65.69a.87.87,0,0,1,.07.17.69.69,0,0,1,0,.49,1.49,1.49,0,0,1-1.15.92.75.75,0,0,1-.14-.34.76.76,0,0,1,.09-.55,2.87,2.87,0,0,0-.58-.56Z" />
  <path class="GUNDAN_DESERT_FOX_JEWELRY_DESERT_FOX_JEWELLERY_10_cls-6" d="M198.39,338.13a5.87,5.87,0,0,0-2.87-.78.87.87,0,0,0-.07-.17l-.65-.69a7.35,7.35,0,0,1,3.85.52,4.14,4.14,0,0,1,1.48,1.13,2.55,2.55,0,0,0-1.55-.08A.84.84,0,0,0,198.39,338.13Z" />
  <path class="GUNDAN_DESERT_FOX_JEWELRY_DESERT_FOX_JEWELLERY_10_cls-4" d="M198.23,340c-.55-.28-.85-.61-.68-1a1.47,1.47,0,0,1,.84-.84.84.84,0,0,1,.19-.07,2.55,2.55,0,0,1,1.55.08l.27.1.15.07h0a17.21,17.21,0,0,1,3.57,1.77h0a2,2,0,0,1,.72.86.75.75,0,0,1,0,.49,1.46,1.46,0,0,1-1.16.91.84.84,0,0,1-.14-.33.85.85,0,0,1,.11-.56h0a3.1,3.1,0,0,0-.58-.55,5.42,5.42,0,0,0-.57-.45,9.07,9.07,0,0,0-1.95-.93c-.71-.25-1.29-.42-1.29-.42h0a.94.94,0,0,1-.18.54,1.07,1.07,0,0,1-.75.4v0Z" />
  <path class="GUNDAN_DESERT_FOX_JEWELRY_DESERT_FOX_JEWELLERY_10_cls-6" d="M208,340.63a3.85,3.85,0,0,1,1.5,1.19l-.18,0a3.43,3.43,0,0,0-1.43.06,5.9,5.9,0,0,0-3-.91,2,2,0,0,0-.72-.86A7.34,7.34,0,0,1,208,340.63Z" />
  <path class="GUNDAN_DESERT_FOX_JEWELRY_DESERT_FOX_JEWELLERY_10_cls-5" d="M209.13,344.2a4,4,0,0,1-3.59.28c-1.71-.57-3-1.34-3.06-2.3h0a1.89,1.89,0,0,1,.56-1.28,3.1,3.1,0,0,1,.58.55h0a.85.85,0,0,0-.11.56.84.84,0,0,0,.14.33,6.17,6.17,0,0,0,3.41,1.35,1.34,1.34,0,0,0,1.23-.44.94.94,0,0,0,.18-.38c.13,0,.7,0,1.36.12a1.71,1.71,0,0,1-.27.75,2.35,2.35,0,0,1-.43.46Z" />
  <path class="GUNDAN_DESERT_FOX_JEWELRY_DESERT_FOX_JEWELLERY_10_cls-5" d="M212.61,345.07s-2-.6-3.47-.87a2.35,2.35,0,0,0,.43-.46,1.71,1.71,0,0,0,.27-.75,10.19,10.19,0,0,1,2.2.44c.29.11.52.2.71.29A1.74,1.74,0,0,0,212.61,345.07Z" />
  <path class="GUNDAN_DESERT_FOX_JEWELRY_DESERT_FOX_JEWELLERY_10_cls-4" d="M207.07,343.69a.62.62,0,0,1-.33-.57,1.44,1.44,0,0,1,1.13-1.27,3.43,3.43,0,0,1,1.43-.06l.18,0h0a19.08,19.08,0,0,1,4,.9,2.16,2.16,0,0,1,1,.66.63.63,0,0,1,.14.47,1.33,1.33,0,0,1-.84,1.12,1.06,1.06,0,0,1-.24-.29.76.76,0,0,1-.08-.55h0a4.33,4.33,0,0,0-.75-.4c-.19-.09-.42-.18-.71-.29a10.19,10.19,0,0,0-2.2-.44c-.66-.08-1.23-.11-1.36-.12a.94.94,0,0,1-.18.38A1.34,1.34,0,0,1,207.07,343.69Z" />
  <path class="GUNDAN_DESERT_FOX_JEWELRY_DESERT_FOX_JEWELLERY_10_cls-4" d="M212.75,343.72a4.33,4.33,0,0,1,.75.4h0a.76.76,0,0,0,.08.55,1.06,1.06,0,0,0,.24.29c.55.43,4.36,1.17,4.83-.17.53-1.5-3-1.77-4.13-1.42a2.16,2.16,0,0,0-1-.66,7.58,7.58,0,0,1,4-.34c2,.44,2.88,1.51,2.56,2.6s-1.84,1.77-3.7,1.6-3.37-.61-3.74-1.5h0A1.74,1.74,0,0,1,212.75,343.72Z" />
  <path class="GUNDAN_DESERT_FOX_JEWELRY_DESERT_FOX_JEWELLERY_10_cls-7" d="M170.9,321.7a2.94,2.94,0,0,0-.2-.73c-.07-.17-.16-.38-.27-.62a5.92,5.92,0,0,0-1-1.3" />
  <path class="GUNDAN_DESERT_FOX_JEWELRY_DESERT_FOX_JEWELLERY_10_cls-7" d="M169.51,322s-.31-.53-.74-1.18h0" />
  <path class="GUNDAN_DESERT_FOX_JEWELRY_DESERT_FOX_JEWELLERY_10_cls-7" d="M169.62,317.39l1.23-.43c.05.06-.12,1.79-.07,1.86a4.89,4.89,0,0,1,1.29,1.8,1.66,1.66,0,0,1,.16,1.06.81.81,0,0,1-.28.44,1.69,1.69,0,0,1-1.49.42" />
  <path class="GUNDAN_DESERT_FOX_JEWELRY_DESERT_FOX_JEWELLERY_10_cls-7" d="M170.9,321.7a1,1,0,0,0-.38.48.69.69,0,0,0-.06.36,4.77,4.77,0,0,0,2.26,2.48,1.42,1.42,0,0,0,1.31.05,1.82,1.82,0,0,0,.36-.29" />
  <path class="GUNDAN_DESERT_FOX_JEWELRY_DESERT_FOX_JEWELLERY_10_cls-7" d="M174.4,323.62a4.48,4.48,0,0,0-2.17-1.94" />
  <path class="GUNDAN_DESERT_FOX_JEWELRY_DESERT_FOX_JEWELLERY_10_cls-7" d="M175.51,325.39a2.15,2.15,0,0,1-.64.59,2.29,2.29,0,0,1-.62.27,3.59,3.59,0,0,1-3.29-1.06c-1.19-1.16-1.9-2.34-1.45-3.24a2.55,2.55,0,0,1,1.19-1h0" />
  <path class="GUNDAN_DESERT_FOX_JEWELRY_DESERT_FOX_JEWELLERY_10_cls-7" d="M175.83,324.18a3.28,3.28,0,0,0-.67-1.65,6.08,6.08,0,0,0-3.09-1.91" />
  <path class="GUNDAN_DESERT_FOX_JEWELRY_DESERT_FOX_JEWELLERY_10_cls-7" d="M178.1,327.77a2.6,2.6,0,0,0-.43-.64c-.12-.15-.28-.32-.47-.53a7.81,7.81,0,0,0-1.68-1.21h0c-.54-.32-1-.56-1.12-.61l0,0" />
  <path class="GUNDAN_DESERT_FOX_JEWELRY_DESERT_FOX_JEWELLERY_10_cls-7" d="M176.82,328.32a27.49,27.49,0,0,0-2.57-2.07" />
  <path class="GUNDAN_DESERT_FOX_JEWELRY_DESERT_FOX_JEWELLERY_10_cls-7" d="M172.72,325a.59.59,0,0,1,0-.65,1.75,1.75,0,0,1,1.66-.75,2.92,2.92,0,0,1,1.28.47l.15.09h0a14.79,14.79,0,0,1,3.07,2.31,1.86,1.86,0,0,1,.51.95.85.85,0,0,1-.14.49,1.6,1.6,0,0,1-1.33.72" />
  <path class="GUNDAN_DESERT_FOX_JEWELRY_DESERT_FOX_JEWELLERY_10_cls-7" d="M181.08,330.56a1.36,1.36,0,0,0,1.17-.28.87.87,0,0,0,.24-.32" />
  <path class="GUNDAN_DESERT_FOX_JEWELRY_DESERT_FOX_JEWELLERY_10_cls-7" d="M178.1,327.77a1,1,0,0,0-.22.54.64.64,0,0,0,.06.35,5.61,5.61,0,0,0,3.13,1.89" />
  <path class="GUNDAN_DESERT_FOX_JEWELRY_DESERT_FOX_JEWELLERY_10_cls-7" d="M182,328.7a5.27,5.27,0,0,0-2.6-1.25h0" />
  <path class="GUNDAN_DESERT_FOX_JEWELRY_DESERT_FOX_JEWELLERY_10_cls-7" d="M177.67,327.12h0a2.11,2.11,0,0,0-.85,1.19c-.15,1,.93,1.91,2.46,2.75a4.23,4.23,0,0,0,3.05.48,2.2,2.2,0,0,0,1-.6,1.78,1.78,0,0,0,.22-.26" />
  <path class="GUNDAN_DESERT_FOX_JEWELRY_DESERT_FOX_JEWELLERY_10_cls-7" d="M183.82,329.37a3.14,3.14,0,0,0-1.29-1.75,6.87,6.87,0,0,0-3.63-1.12h0" />
  <path class="GUNDAN_DESERT_FOX_JEWELRY_DESERT_FOX_JEWELLERY_10_cls-7" d="M185.75,333.11a2.57,2.57,0,0,0-.37-.67l-.41-.57a6.67,6.67,0,0,0-1.38-1.18c-.45-.32-.88-.59-1.1-.73l-.18-.1" />
  <path class="GUNDAN_DESERT_FOX_JEWELRY_DESERT_FOX_JEWELLERY_10_cls-7" d="M184.43,333.58a27.74,27.74,0,0,0-2.1-2" />
  <path class="GUNDAN_DESERT_FOX_JEWELRY_DESERT_FOX_JEWELLERY_10_cls-7" d="M181.08,330.56h0c-.43-.4-.61-.79-.32-1.18a1.72,1.72,0,0,1,1.26-.67,2.53,2.53,0,0,1,1.69.58l.12.09h0a14.08,14.08,0,0,1,2.84,2.5h0a1.66,1.66,0,0,1,.41,1h0a.71.71,0,0,1-.18.47,1.64,1.64,0,0,1-1.38.65h0" />
  <path class="GUNDAN_DESERT_FOX_JEWELRY_DESERT_FOX_JEWELLERY_10_cls-7" d="M185.75,333.11a1,1,0,0,0-.27.52.69.69,0,0,0,0,.37,5.35,5.35,0,0,0,2.82,2.05,1.42,1.42,0,0,0,1.31-.16,1.08,1.08,0,0,0,.28-.34" />
  <path class="GUNDAN_DESERT_FOX_JEWELRY_DESERT_FOX_JEWELLERY_10_cls-7" d="M189.67,334.42a5.13,5.13,0,0,0-2.6-1.55" />
  <path class="GUNDAN_DESERT_FOX_JEWELRY_DESERT_FOX_JEWELLERY_10_cls-7" d="M191.18,336a2.06,2.06,0,0,1-.49.68,2.08,2.08,0,0,1-.57.35,3.78,3.78,0,0,1-3.5-.5c-1.45-.94-2.43-2-2.19-2.91a2.19,2.19,0,0,1,.95-1.14h0" />
  <path class="GUNDAN_DESERT_FOX_JEWELRY_DESERT_FOX_JEWELLERY_10_cls-7" d="M191.22,334.74a3.47,3.47,0,0,0-1.06-1.5,6.69,6.69,0,0,0-3.5-1.36" />
  <path class="GUNDAN_DESERT_FOX_JEWELRY_DESERT_FOX_JEWELLERY_10_cls-7" d="M193.72,337.3l-.58-.44a8.7,8.7,0,0,0-2-.9c-.61-.23-1.14-.38-1.26-.41h0" />
  <path class="GUNDAN_DESERT_FOX_JEWELRY_DESERT_FOX_JEWELLERY_10_cls-7" d="M194.3,337.87a2.87,2.87,0,0,0-.58-.56" />
  <path class="GUNDAN_DESERT_FOX_JEWELRY_DESERT_FOX_JEWELLERY_10_cls-7" d="M193.16,338.6a31.19,31.19,0,0,0-3-1.6" />
  <path class="GUNDAN_DESERT_FOX_JEWELRY_DESERT_FOX_JEWELLERY_10_cls-7" d="M188.33,336.05a.57.57,0,0,1-.13-.63,1.6,1.6,0,0,1,1.47-1,3.32,3.32,0,0,1,1.38.25l.17.07a27,27,0,0,1,3.58,1.75l.65.69a.87.87,0,0,1,.07.17.69.69,0,0,1,0,.49,1.49,1.49,0,0,1-1.15.92" />
  <path class="GUNDAN_DESERT_FOX_JEWELRY_DESERT_FOX_JEWELLERY_10_cls-7" d="M195.51,337.35h0a5.87,5.87,0,0,1,2.87.78" />
  <path class="GUNDAN_DESERT_FOX_JEWELRY_DESERT_FOX_JEWELLERY_10_cls-7" d="M199.18,339.1a.94.94,0,0,1-.18.54,1.07,1.07,0,0,1-.75.4h0a6,6,0,0,1-3.89-1.29.75.75,0,0,1-.14-.34.76.76,0,0,1,.09-.55" />
  <path class="GUNDAN_DESERT_FOX_JEWELRY_DESERT_FOX_JEWELLERY_10_cls-7" d="M194.79,336.5h0a7.35,7.35,0,0,1,3.85.52,4.14,4.14,0,0,1,1.48,1.13" />
  <path class="GUNDAN_DESERT_FOX_JEWELRY_DESERT_FOX_JEWELLERY_10_cls-7" d="M200.52,339.52a1.64,1.64,0,0,1-.25.6,1.68,1.68,0,0,1-.53.53l0,0a4.16,4.16,0,0,1-3.48.21c-1.71-.57-3-1.32-3.07-2.28a1.87,1.87,0,0,1,.55-1.29h0" />
  <path class="GUNDAN_DESERT_FOX_JEWELRY_DESERT_FOX_JEWELLERY_10_cls-7" d="M199.23,339.1s.58.17,1.29.42a9.07,9.07,0,0,1,1.95.93,5.42,5.42,0,0,1,.57.45,3.1,3.1,0,0,1,.58.55" />
  <path class="GUNDAN_DESERT_FOX_JEWELRY_DESERT_FOX_JEWELLERY_10_cls-7" d="M202.48,342.18s-1.49-.91-2.76-1.51" />
  <path class="GUNDAN_DESERT_FOX_JEWELRY_DESERT_FOX_JEWELLERY_10_cls-7" d="M203.66,342.35h0a1.46,1.46,0,0,0,1.16-.91.75.75,0,0,0,0-.49,2,2,0,0,0-.72-.86h0a17.21,17.21,0,0,0-3.57-1.77h0l-.15-.07-.27-.1a2.55,2.55,0,0,0-1.55-.08.84.84,0,0,0-.19.07,1.47,1.47,0,0,0-.84.84c-.17.44.13.77.68,1h0" />
  <path class="GUNDAN_DESERT_FOX_JEWELRY_DESERT_FOX_JEWELLERY_10_cls-7" d="M203.63,341.45a.85.85,0,0,0-.11.56.84.84,0,0,0,.14.33,6.17,6.17,0,0,0,3.41,1.35,1.34,1.34,0,0,0,1.23-.44.94.94,0,0,0,.18-.38" />
  <path class="GUNDAN_DESERT_FOX_JEWELRY_DESERT_FOX_JEWELLERY_10_cls-7" d="M207.87,341.85a5.9,5.9,0,0,0-3-.91h0" />
  <path class="GUNDAN_DESERT_FOX_JEWELRY_DESERT_FOX_JEWELLERY_10_cls-7" d="M209.13,344.2a4,4,0,0,1-3.59.28c-1.71-.57-3-1.34-3.06-2.3h0a1.89,1.89,0,0,1,.56-1.28h0" />
  <path class="GUNDAN_DESERT_FOX_JEWELRY_DESERT_FOX_JEWELLERY_10_cls-7" d="M209.84,343a1.71,1.71,0,0,1-.27.75,2.35,2.35,0,0,1-.43.46" />
  <path class="GUNDAN_DESERT_FOX_JEWELRY_DESERT_FOX_JEWELLERY_10_cls-7" d="M209.48,341.82a3.85,3.85,0,0,0-1.5-1.19,7.34,7.34,0,0,0-3.85-.55h0" />
  <path class="GUNDAN_DESERT_FOX_JEWELRY_DESERT_FOX_JEWELLERY_10_cls-7" d="M213.5,344.12a4.33,4.33,0,0,0-.75-.4c-.19-.09-.42-.18-.71-.29a10.19,10.19,0,0,0-2.2-.44c-.66-.08-1.23-.11-1.36-.12h0" />
  <path class="GUNDAN_DESERT_FOX_JEWELRY_DESERT_FOX_JEWELLERY_10_cls-7" d="M212.61,345.07s-2-.6-3.47-.87h0" />
  <path class="GUNDAN_DESERT_FOX_JEWELRY_DESERT_FOX_JEWELLERY_10_cls-7" d="M207.07,343.69a.62.62,0,0,1-.33-.57,1.44,1.44,0,0,1,1.13-1.27,3.43,3.43,0,0,1,1.43-.06l.18,0h0a19.08,19.08,0,0,1,4,.9,2.16,2.16,0,0,1,1,.66.63.63,0,0,1,.14.47,1.33,1.33,0,0,1-.84,1.12" />
  <path class="GUNDAN_DESERT_FOX_JEWELRY_DESERT_FOX_JEWELLERY_10_cls-7" d="M214.52,343.38c1.09-.35,4.66-.08,4.13,1.42-.47,1.34-4.28.6-4.83.17a1.06,1.06,0,0,1-.24-.29.76.76,0,0,1-.08-.55" />
  <path class="GUNDAN_DESERT_FOX_JEWELRY_DESERT_FOX_JEWELLERY_10_cls-7" d="M213.54,342.72h0a7.58,7.58,0,0,1,4-.34c2,.44,2.88,1.51,2.56,2.6s-1.84,1.77-3.7,1.6-3.37-.61-3.74-1.5h0a1.74,1.74,0,0,1,.14-1.35" />
  <path class="GUNDAN_DESERT_FOX_JEWELRY_DESERT_FOX_JEWELLERY_10_cls-7" d="M169.63,317.39h0c-1.31.55-1.39,2.39-.86,3.37h0" />
  <path d="M257.39,316.85c-.28-.8-.41-1.2-.69-2a2.54,2.54,0,0,1,2.23.56" />
  <path class="GUNDAN_DESERT_FOX_JEWELRY_DESERT_FOX_JEWELLERY_10_cls-5" d="M230,342.91s1.48-.89,2.73-1.51h0a1.91,1.91,0,0,1-.53-.53,1.7,1.7,0,0,1-.25-.59,9.71,9.71,0,0,0-1.91.92q-.35.26-.57.45A1.84,1.84,0,0,1,230,342.91Z" />
  <path class="GUNDAN_DESERT_FOX_JEWELRY_DESERT_FOX_JEWELLERY_10_cls-5" d="M238,339.34a5.76,5.76,0,0,1-3.79,1.42h0a1,1,0,0,1-.74-.39.84.84,0,0,1-.19-.53h-.05s-.57.18-1.26.43a1.7,1.7,0,0,0,.25.59,1.91,1.91,0,0,0,.53.53h0a4,4,0,0,0,3.45.14c1.69-.63,2.93-1.46,2.95-2.42a1.9,1.9,0,0,0-.61-1.25,3.46,3.46,0,0,0-.54.58.79.79,0,0,1,.12.55A.67.67,0,0,1,238,339.34Z" />
  <path class="GUNDAN_DESERT_FOX_JEWELRY_DESERT_FOX_JEWELLERY_10_cls-5" d="M256.79,319.86a.94.94,0,0,0,.35.39,1.53,1.53,0,0,0,1.47.12.92.92,0,0,0-.14-.35,1,1,0,0,0-.46-.38h0a2.67,2.67,0,0,1,0-.74,2.36,2.36,0,0,1,1.3.71s.17-.58.41-1.3h0c.27-1.07-.25-2.83-1.56-3.1h0c-1.33-.31-.72,1.49-.75,1.56a5.83,5.83,0,0,0-.72,2.05A1.75,1.75,0,0,0,256.79,319.86Z" />
  <path class="GUNDAN_DESERT_FOX_JEWELRY_DESERT_FOX_JEWELLERY_10_cls-6" d="M256.79,319.86a1.75,1.75,0,0,1-.07-1.06,5.69,5.69,0,0,0-2.44,2.42A3.41,3.41,0,0,0,254,323a1.35,1.35,0,0,0,.12-.12,2.75,2.75,0,0,1,1.1-.68A4.32,4.32,0,0,1,256.79,319.86Z" />
  <path class="GUNDAN_DESERT_FOX_JEWELRY_DESERT_FOX_JEWELLERY_10_cls-5" d="M259.35,319.6a2.43,2.43,0,0,0-1.3-.71,2.67,2.67,0,0,0,0,.74h0a1,1,0,0,1,.46.38.92.92,0,0,1,.14.35,4.63,4.63,0,0,1-1.59,2.86,1.24,1.24,0,0,1-1.2.28,1.29,1.29,0,0,1-.39-.22c-.1.07-.49.39-.94.79a2.1,2.1,0,0,0,.71.47,2.24,2.24,0,0,0,.63.16,3.23,3.23,0,0,0,2.86-1.65C259.57,321.69,260,320.39,259.35,319.6Z" />
  <path class="GUNDAN_DESERT_FOX_JEWELRY_DESERT_FOX_JEWELLERY_10_cls-5" d="M255.83,324.71a2.24,2.24,0,0,1-.63-.16,2.1,2.1,0,0,1-.71-.47h0a7.54,7.54,0,0,0-1.35,1.46c-.15.23-.26.43-.35.6a2.06,2.06,0,0,1,1,1h0A29.39,29.39,0,0,1,255.83,324.71Z" />
  <path class="GUNDAN_DESERT_FOX_JEWELRY_DESERT_FOX_JEWELLERY_10_cls-4" d="M255.82,323.51a1.24,1.24,0,0,0,1.2-.28.62.62,0,0,0-.14-.63,1.66,1.66,0,0,0-1.69-.45,2.75,2.75,0,0,0-1.1.68,1.35,1.35,0,0,1-.12.12h0a15.26,15.26,0,0,0-2.45,2.75,1.84,1.84,0,0,0-.33,1,.84.84,0,0,0,.21.46,1.48,1.48,0,0,0,1.37.52.87.87,0,0,0,0-.36.89.89,0,0,0-.3-.49h0a2.93,2.93,0,0,1,.31-.69c.09-.17.2-.37.35-.6a7.54,7.54,0,0,1,1.35-1.46h0c.45-.4.84-.72.94-.79A1.29,1.29,0,0,0,255.82,323.51Z" />
  <path class="GUNDAN_DESERT_FOX_JEWELRY_DESERT_FOX_JEWELLERY_10_cls-6" d="M244.61,333a1.65,1.65,0,0,1,.28-1h0a6.53,6.53,0,0,0-3.24,1.64,3.65,3.65,0,0,0-.9,1.57l.16-.08a3,3,0,0,1,1.32-.35A5,5,0,0,1,244.61,333Z" />
  <path class="GUNDAN_DESERT_FOX_JEWELRY_DESERT_FOX_JEWELLERY_10_cls-6" d="M248.92,328.28a5.09,5.09,0,0,1,2.27-1.57,1.84,1.84,0,0,1,.33-1,6.49,6.49,0,0,0-3.24,1.59,3.11,3.11,0,0,0-1,1.88l.11-.11A2.43,2.43,0,0,1,248.92,328.28Z" />
  <path class="GUNDAN_DESERT_FOX_JEWELRY_DESERT_FOX_JEWELLERY_10_cls-5" d="M249,331.15a3.9,3.9,0,0,0,2.86-.88c1.34-1,2.21-2.17,1.91-3.09a2.06,2.06,0,0,0-1-1,2.93,2.93,0,0,0-.31.69h0a.89.89,0,0,1,.3.49.87.87,0,0,1,0,.36,5.25,5.25,0,0,1-2.7,2.31h0a1.27,1.27,0,0,1-1.15-.13.76.76,0,0,1-.26-.28c-.2.16-.57.48-1,.84h0a2.61,2.61,0,0,0,.24.23A2.09,2.09,0,0,0,249,331.15Z" />
  <path class="GUNDAN_DESERT_FOX_JEWELRY_DESERT_FOX_JEWELLERY_10_cls-4" d="M250.06,330h0c.36-.45.48-.86.15-1.21a1.71,1.71,0,0,0-1.3-.51,2.43,2.43,0,0,0-1.51.78l-.11.11h0a14.61,14.61,0,0,0-2.4,2.79h0a1.65,1.65,0,0,0-.28,1h0a.74.74,0,0,0,.22.45,1.56,1.56,0,0,0,1.41.5.71.71,0,0,0,0-.36,1,1,0,0,0-.31-.49,2.79,2.79,0,0,1,.28-.71l.33-.6a7,7,0,0,1,1.17-1.34c.4-.36.77-.68,1-.84a.76.76,0,0,0,.26.28A1.27,1.27,0,0,0,250.06,330Z" />
  <path class="GUNDAN_DESERT_FOX_JEWELRY_DESERT_FOX_JEWELLERY_10_cls-5" d="M247.68,330.44a7,7,0,0,0-1.17,1.34l-.33.6a2.23,2.23,0,0,1,1,1s.92-1.28,1.78-2.26a2.09,2.09,0,0,1-1.07-.47,2.61,2.61,0,0,1-.24-.23Z" />
  <path class="GUNDAN_DESERT_FOX_JEWELRY_DESERT_FOX_JEWELLERY_10_cls-5" d="M246.23,333.94a5.18,5.18,0,0,1-2.55,2.31,1.33,1.33,0,0,1-1.29-.06,1,1,0,0,1-.31-.31c-.11,0-.61.23-1.2.5a2.15,2.15,0,0,0,.54.64,2.11,2.11,0,0,0,.57.31,3.63,3.63,0,0,0,3.39-.79c1.34-1.08,2.18-2.21,1.84-3.13a2.23,2.23,0,0,0-1-1,2.79,2.79,0,0,0-.28.71,1,1,0,0,1,.31.49A.71.71,0,0,1,246.23,333.94Z" />
  <path class="GUNDAN_DESERT_FOX_JEWELRY_DESERT_FOX_JEWELLERY_10_cls-5" d="M239,337.39l-.55.47h0a1.9,1.9,0,0,1,.61,1.25h0a32.32,32.32,0,0,1,2.88-1.79h0a2.11,2.11,0,0,1-.57-.31,2.15,2.15,0,0,1-.54-.64A8.59,8.59,0,0,0,239,337.39Z" />
  <path class="GUNDAN_DESERT_FOX_JEWELRY_DESERT_FOX_JEWELLERY_10_cls-4" d="M238.49,337.86l.55-.47a8.59,8.59,0,0,1,1.84-1c.59-.27,1.09-.46,1.2-.5a1,1,0,0,0,.31.31,1.33,1.33,0,0,0,1.29.06.61.61,0,0,0,.07-.64,1.59,1.59,0,0,0-1.51-.87,3,3,0,0,0-1.32.35l-.16.08a31.61,31.61,0,0,0-3.36,1.94l-.6.72a1.11,1.11,0,0,0-.07.16.75.75,0,0,0,.05.49,1.44,1.44,0,0,0,1.17.86.67.67,0,0,0,.12-.34.79.79,0,0,0-.12-.55,3.46,3.46,0,0,1,.54-.58Z" />
  <path class="GUNDAN_DESERT_FOX_JEWELRY_DESERT_FOX_JEWELLERY_10_cls-6" d="M234,338.85a5.9,5.9,0,0,1,2.77-.86,1.11,1.11,0,0,1,.07-.16l.6-.72a7.43,7.43,0,0,0-3.73.64,4,4,0,0,0-1.41,1.15,2.46,2.46,0,0,1,1.51-.11Z" />
  <path class="GUNDAN_DESERT_FOX_JEWELRY_DESERT_FOX_JEWELLERY_10_cls-4" d="M234.16,340.74c.54-.3.82-.64.65-1.07a1.52,1.52,0,0,0-.85-.82l-.19-.06a2.46,2.46,0,0,0-1.51.11l-.26.1-.15.07h0a17.76,17.76,0,0,0-3.49,1.74h0a2,2,0,0,0-.71.83.75.75,0,0,0,0,.49,1.47,1.47,0,0,0,1.14.93.88.88,0,0,0,.14-.34.8.8,0,0,0-.1-.55h0a2.94,2.94,0,0,1,.58-.54q.22-.19.57-.45a9.44,9.44,0,0,1,1.91-.92c.68-.26,1.26-.43,1.26-.43h.05a.84.84,0,0,0,.19.53,1,1,0,0,0,.74.39v0Z" />
  <path class="GUNDAN_DESERT_FOX_JEWELRY_DESERT_FOX_JEWELLERY_10_cls-6" d="M224.58,341.25a4,4,0,0,0-1.52,1.11h.18a3.37,3.37,0,0,1,1.41.11,6,6,0,0,1,3-.81,2,2,0,0,1,.71-.83A7.32,7.32,0,0,0,224.58,341.25Z" />
  <path class="GUNDAN_DESERT_FOX_JEWELRY_DESERT_FOX_JEWELLERY_10_cls-5" d="M223.31,344.74a3.93,3.93,0,0,0,3.57.41c1.73-.53,3-1.28,3.09-2.23h0a1.84,1.84,0,0,0-.55-1.27,2.94,2.94,0,0,0-.58.54h0a.8.8,0,0,1,.1.55.88.88,0,0,1-.14.34,6.11,6.11,0,0,1-3.42,1.25,1.35,1.35,0,0,1-1.21-.48,1,1,0,0,1-.15-.39c-.14,0-.7,0-1.36.05a1.58,1.58,0,0,0,.24.76,2,2,0,0,0,.4.48Z" />
  <path class="GUNDAN_DESERT_FOX_JEWELRY_DESERT_FOX_JEWELLERY_10_cls-5" d="M219.8,345.39s2-.46,3.5-.65a2,2,0,0,1-.4-.48,1.58,1.58,0,0,1-.24-.76,11.36,11.36,0,0,0-2.19.3c-.29.09-.53.17-.72.25A1.72,1.72,0,0,1,219.8,345.39Z" />
  <path class="GUNDAN_DESERT_FOX_JEWELRY_DESERT_FOX_JEWELLERY_10_cls-4" d="M225.38,344.32a.63.63,0,0,0,.34-.56,1.43,1.43,0,0,0-1.07-1.3,3.37,3.37,0,0,0-1.41-.11h-.19a21.43,21.43,0,0,0-4,.64,2.17,2.17,0,0,0-1,.58.66.66,0,0,0-.17.45,1.31,1.31,0,0,0,.75,1.17.94.94,0,0,0,.26-.27.7.7,0,0,0,.11-.53h0a3.56,3.56,0,0,1,.76-.34c.19-.08.43-.16.72-.25a11.36,11.36,0,0,1,2.19-.3c.66,0,1.22-.05,1.36-.05a1,1,0,0,0,.15.39A1.35,1.35,0,0,0,225.38,344.32Z" />
  <path class="GUNDAN_DESERT_FOX_JEWELRY_DESERT_FOX_JEWELLERY_10_cls-8" d="M258,319.63a2.67,2.67,0,0,1,0-.74c0-.18.05-.41.1-.67a6.4,6.4,0,0,1,.58-1.46" />
  <path class="GUNDAN_DESERT_FOX_JEWELRY_DESERT_FOX_JEWELLERY_10_cls-8" d="M259.35,319.6s.17-.58.41-1.3h0" />
  <path class="GUNDAN_DESERT_FOX_JEWELRY_DESERT_FOX_JEWELLERY_10_cls-8" d="M258.2,315.19,257,315c0,.07.52,1.72.49,1.79a4.87,4.87,0,0,0-.77,2,1.75,1.75,0,0,0,.07,1.06.88.88,0,0,0,.35.39,1.53,1.53,0,0,0,1.47.12" />
  <path class="GUNDAN_DESERT_FOX_JEWELRY_DESERT_FOX_JEWELLERY_10_cls-8" d="M258,319.64a1,1,0,0,1,.46.38.92.92,0,0,1,.14.35,4.63,4.63,0,0,1-1.59,2.86,1.24,1.24,0,0,1-1.2.28,1.29,1.29,0,0,1-.39-.22" />
  <path class="GUNDAN_DESERT_FOX_JEWELRY_DESERT_FOX_JEWELLERY_10_cls-8" d="M255.19,322.15a4.32,4.32,0,0,1,1.6-2.29" />
  <path class="GUNDAN_DESERT_FOX_JEWELRY_DESERT_FOX_JEWELLERY_10_cls-8" d="M254.49,324.08a2.1,2.1,0,0,0,.71.47,2.24,2.24,0,0,0,.63.16,3.23,3.23,0,0,0,2.86-1.65c.88-1.37,1.28-2.67.66-3.46a2.43,2.43,0,0,0-1.3-.71h0" />
  <path class="GUNDAN_DESERT_FOX_JEWELRY_DESERT_FOX_JEWELLERY_10_cls-8" d="M254,323a3.41,3.41,0,0,1,.31-1.73,5.69,5.69,0,0,1,2.44-2.42" />
  <path class="GUNDAN_DESERT_FOX_JEWELRY_DESERT_FOX_JEWELLERY_10_cls-8" d="M252.47,326.83a2.93,2.93,0,0,1,.31-.69c.09-.17.2-.37.35-.6a7.54,7.54,0,0,1,1.35-1.46h0c.45-.4.84-.72.94-.79l0,0" />
  <path class="GUNDAN_DESERT_FOX_JEWELRY_DESERT_FOX_JEWELLERY_10_cls-8" d="M253.78,327.18a29.39,29.39,0,0,1,2.05-2.47" />
  <path class="GUNDAN_DESERT_FOX_JEWELRY_DESERT_FOX_JEWELLERY_10_cls-8" d="M257,323.23a.62.62,0,0,0-.14-.63,1.66,1.66,0,0,0-1.69-.45,2.75,2.75,0,0,0-1.1.68,1.35,1.35,0,0,1-.12.12h0a15.26,15.26,0,0,0-2.45,2.75,1.84,1.84,0,0,0-.33,1,.84.84,0,0,0,.21.46,1.48,1.48,0,0,0,1.37.52" />
  <path class="GUNDAN_DESERT_FOX_JEWELRY_DESERT_FOX_JEWELLERY_10_cls-8" d="M250.06,330a1.27,1.27,0,0,1-1.15-.13.76.76,0,0,1-.26-.28" />
  <path class="GUNDAN_DESERT_FOX_JEWELRY_DESERT_FOX_JEWELLERY_10_cls-8" d="M252.47,326.84a.89.89,0,0,1,.3.49.87.87,0,0,1,0,.36,5.25,5.25,0,0,1-2.7,2.31" />
  <path class="GUNDAN_DESERT_FOX_JEWELRY_DESERT_FOX_JEWELLERY_10_cls-8" d="M248.92,328.28a5.09,5.09,0,0,1,2.27-1.57h0" />
  <path class="GUNDAN_DESERT_FOX_JEWELRY_DESERT_FOX_JEWELLERY_10_cls-8" d="M252.77,326.13h0a2.06,2.06,0,0,1,1,1c.31.92-.57,2.05-1.91,3.09a3.9,3.9,0,0,1-2.86.88,2.09,2.09,0,0,1-1.07-.47,2.61,2.61,0,0,1-.24-.23" />
  <path class="GUNDAN_DESERT_FOX_JEWELRY_DESERT_FOX_JEWELLERY_10_cls-8" d="M247.3,329.17a3.11,3.11,0,0,1,1-1.88,6.49,6.49,0,0,1,3.24-1.59h0" />
  <path class="GUNDAN_DESERT_FOX_JEWELRY_DESERT_FOX_JEWELLERY_10_cls-8" d="M245.9,333.09a2.79,2.79,0,0,1,.28-.71l.33-.6a7,7,0,0,1,1.17-1.34c.4-.36.77-.68,1-.84l.15-.12" />
  <path class="GUNDAN_DESERT_FOX_JEWELRY_DESERT_FOX_JEWELLERY_10_cls-8" d="M247.22,333.41s.92-1.28,1.78-2.26" />
  <path class="GUNDAN_DESERT_FOX_JEWELRY_DESERT_FOX_JEWELLERY_10_cls-8" d="M250.06,330h0c.36-.45.48-.86.15-1.21a1.71,1.71,0,0,0-1.3-.51,2.43,2.43,0,0,0-1.51.78l-.11.11h0a14.61,14.61,0,0,0-2.4,2.79h0a1.65,1.65,0,0,0-.28,1h0a.74.74,0,0,0,.22.45,1.56,1.56,0,0,0,1.41.5h0" />
  <path class="GUNDAN_DESERT_FOX_JEWELRY_DESERT_FOX_JEWELLERY_10_cls-8" d="M245.9,333.09a1,1,0,0,1,.31.49.71.71,0,0,1,0,.36,5.18,5.18,0,0,1-2.55,2.31,1.33,1.33,0,0,1-1.29-.06,1,1,0,0,1-.31-.31" />
  <path class="GUNDAN_DESERT_FOX_JEWELRY_DESERT_FOX_JEWELLERY_10_cls-8" d="M242.24,334.74a5,5,0,0,1,2.37-1.76" />
  <path class="GUNDAN_DESERT_FOX_JEWELRY_DESERT_FOX_JEWELLERY_10_cls-8" d="M240.88,336.38a2.15,2.15,0,0,0,.54.64,2.11,2.11,0,0,0,.57.31,3.63,3.63,0,0,0,3.39-.79c1.34-1.08,2.18-2.21,1.84-3.13a2.23,2.23,0,0,0-1-1h0" />
  <path class="GUNDAN_DESERT_FOX_JEWELRY_DESERT_FOX_JEWELLERY_10_cls-8" d="M240.76,335.17a3.65,3.65,0,0,1,.9-1.57A6.53,6.53,0,0,1,244.9,332" />
  <path class="GUNDAN_DESERT_FOX_JEWELRY_DESERT_FOX_JEWELLERY_10_cls-8" d="M238.49,337.86l.55-.47a8.59,8.59,0,0,1,1.84-1c.59-.27,1.09-.46,1.2-.5h0" />
  <path class="GUNDAN_DESERT_FOX_JEWELRY_DESERT_FOX_JEWELLERY_10_cls-8" d="M238,338.45a3.46,3.46,0,0,1,.54-.58" />
  <path class="GUNDAN_DESERT_FOX_JEWELRY_DESERT_FOX_JEWELLERY_10_cls-8" d="M239.11,339.13a32.32,32.32,0,0,1,2.88-1.79" />
  <path class="GUNDAN_DESERT_FOX_JEWELRY_DESERT_FOX_JEWELLERY_10_cls-8" d="M243.68,336.25a.61.61,0,0,0,.07-.64,1.59,1.59,0,0,0-1.51-.87,3,3,0,0,0-1.32.35l-.16.08a31.61,31.61,0,0,0-3.36,1.94l-.6.72a1.11,1.11,0,0,0-.07.16.75.75,0,0,0,.05.49,1.44,1.44,0,0,0,1.17.86" />
  <path class="GUNDAN_DESERT_FOX_JEWELRY_DESERT_FOX_JEWELLERY_10_cls-8" d="M236.74,338h0a5.9,5.9,0,0,0-2.77.86" />
  <path class="GUNDAN_DESERT_FOX_JEWELRY_DESERT_FOX_JEWELLERY_10_cls-8" d="M233.21,339.84a.84.84,0,0,0,.19.53,1,1,0,0,0,.74.39h0a5.76,5.76,0,0,0,3.79-1.42.67.67,0,0,0,.12-.34.79.79,0,0,0-.12-.55" />
  <path class="GUNDAN_DESERT_FOX_JEWELRY_DESERT_FOX_JEWELLERY_10_cls-8" d="M237.41,337.11h0a7.43,7.43,0,0,0-3.73.64,4,4,0,0,0-1.41,1.15" />
  <path class="GUNDAN_DESERT_FOX_JEWELRY_DESERT_FOX_JEWELLERY_10_cls-8" d="M231.9,340.27a1.7,1.7,0,0,0,.25.59,1.91,1.91,0,0,0,.53.53h0a4,4,0,0,0,3.45.14c1.69-.63,2.94-1.46,2.95-2.42a1.9,1.9,0,0,0-.61-1.25h0" />
  <path class="GUNDAN_DESERT_FOX_JEWELRY_DESERT_FOX_JEWELLERY_10_cls-8" d="M233.16,339.84s-.57.18-1.26.43a9.71,9.71,0,0,0-1.91.92q-.35.26-.57.45a2.94,2.94,0,0,0-.58.54" />
  <path class="GUNDAN_DESERT_FOX_JEWELRY_DESERT_FOX_JEWELLERY_10_cls-8" d="M230,342.91s1.48-.89,2.73-1.51" />
  <path class="GUNDAN_DESERT_FOX_JEWELRY_DESERT_FOX_JEWELLERY_10_cls-8" d="M228.8,343.07h0a1.47,1.47,0,0,1-1.14-.93.75.75,0,0,1,0-.49,2,2,0,0,1,.71-.83h0a17.76,17.76,0,0,1,3.49-1.74h0L232,339l.26-.1a2.46,2.46,0,0,1,1.51-.11l.19.06a1.52,1.52,0,0,1,.85.82c.17.43-.11.77-.65,1.07h0" />
  <path class="GUNDAN_DESERT_FOX_JEWELRY_DESERT_FOX_JEWELLERY_10_cls-8" d="M228.84,342.18a.8.8,0,0,1,.1.55.88.88,0,0,1-.14.34,6.11,6.11,0,0,1-3.42,1.25,1.35,1.35,0,0,1-1.21-.48,1,1,0,0,1-.15-.39" />
  <path class="GUNDAN_DESERT_FOX_JEWELRY_DESERT_FOX_JEWELLERY_10_cls-8" d="M224.65,342.46a6,6,0,0,1,3-.81h0" />
  <path class="GUNDAN_DESERT_FOX_JEWELRY_DESERT_FOX_JEWELLERY_10_cls-8" d="M223.31,344.74a3.93,3.93,0,0,0,3.57.41c1.73-.53,3-1.28,3.09-2.23h0a1.84,1.84,0,0,0-.55-1.27h0" />
  <path class="GUNDAN_DESERT_FOX_JEWELRY_DESERT_FOX_JEWELLERY_10_cls-8" d="M222.66,343.5a1.58,1.58,0,0,0,.24.76,2,2,0,0,0,.4.48" />
  <path class="GUNDAN_DESERT_FOX_JEWELRY_DESERT_FOX_JEWELLERY_10_cls-8" d="M223.06,342.36a4,4,0,0,1,1.52-1.11,7.32,7.32,0,0,1,3.78-.43h0" />
  <path class="GUNDAN_DESERT_FOX_JEWELRY_DESERT_FOX_JEWELLERY_10_cls-8" d="M223.31,344.74h0a30.93,30.93,0,0,0-3.49.73s.41-.35.17-1.51" />
  <path class="GUNDAN_DESERT_FOX_JEWELRY_DESERT_FOX_JEWELLERY_10_cls-8" d="M225.38,344.32a.63.63,0,0,0,.34-.56,1.43,1.43,0,0,0-1.07-1.3,3.37,3.37,0,0,0-1.41-.11h-.19a21.43,21.43,0,0,0-4,.64,2.17,2.17,0,0,0-1,.58.66.66,0,0,0-.17.45,1.18,1.18,0,0,0,.56,1.11,2.94,2.94,0,0,0,.57-.75,3.56,3.56,0,0,1,.76-.34c.19-.08.43-.16.72-.25a11.36,11.36,0,0,1,2.19-.3c.66,0,1.22-.05,1.36-.05h0" />
  <path class="GUNDAN_DESERT_FOX_JEWELRY_DESERT_FOX_JEWELLERY_10_cls-8" d="M258.19,315.19h0c1.31.27,1.83,2,1.56,3.1h0" />
  <rect class="GUNDAN_DESERT_FOX_JEWELRY_DESERT_FOX_JEWELLERY_10_cls-9" x="226.42" y="343.82" width="1.45" height="5.34" rx="0.72" transform="translate(-47.04 35.89) rotate(-8.19)" />
</svg>