<svg xmlns="http://www.w3.org/2000/svg" viewBox="0 0 432 432">
  <defs>
    <style>.BUNTAI_RED_PANDA_BODY_BUNTAI_RED_PANDA_BODY_51_cls-1{isolation:isolate;}.BUNTAI_RED_PANDA_BODY_BUNTAI_RED_PANDA_BODY_51_cls-2{fill:#bc1f11;}.BUNTAI_RED_PANDA_BODY_BUNTAI_RED_PANDA_BODY_51_cls-3{fill:#3b1d02;}.BUNTAI_RED_PANDA_BODY_BUNTAI_RED_PANDA_BODY_51_cls-10,.BUNTAI_RED_PANDA_BODY_BUNTAI_RED_PANDA_BODY_51_cls-12,.BUNTAI_RED_PANDA_BODY_BUNTAI_RED_PANDA_BODY_51_cls-16,.BUNTAI_RED_PANDA_BODY_BUNTAI_RED_PANDA_BODY_51_cls-17,.BUNTAI_RED_PANDA_BODY_BUNTAI_RED_PANDA_BODY_51_cls-18,.BUNTAI_RED_PANDA_BODY_BUNTAI_RED_PANDA_BODY_51_cls-19,.BUNTAI_RED_PANDA_BODY_BUNTAI_RED_PANDA_BODY_51_cls-4{fill:none;stroke:#000;stroke-linecap:round;}.BUNTAI_RED_PANDA_BODY_BUNTAI_RED_PANDA_BODY_51_cls-10,.BUNTAI_RED_PANDA_BODY_BUNTAI_RED_PANDA_BODY_51_cls-16,.BUNTAI_RED_PANDA_BODY_BUNTAI_RED_PANDA_BODY_51_cls-17,.BUNTAI_RED_PANDA_BODY_BUNTAI_RED_PANDA_BODY_51_cls-18,.BUNTAI_RED_PANDA_BODY_BUNTAI_RED_PANDA_BODY_51_cls-19,.BUNTAI_RED_PANDA_BODY_BUNTAI_RED_PANDA_BODY_51_cls-4{stroke-linejoin:round;}.BUNTAI_RED_PANDA_BODY_BUNTAI_RED_PANDA_BODY_51_cls-4{stroke-width:2.57px;}.BUNTAI_RED_PANDA_BODY_BUNTAI_RED_PANDA_BODY_51_cls-5{fill:#1a1a1a;}.BUNTAI_RED_PANDA_BODY_BUNTAI_RED_PANDA_BODY_51_cls-6{fill:#82385a;}.BUNTAI_RED_PANDA_BODY_BUNTAI_RED_PANDA_BODY_51_cls-7{fill:#bb4913;}.BUNTAI_RED_PANDA_BODY_BUNTAI_RED_PANDA_BODY_51_cls-8{fill:#fff;}.BUNTAI_RED_PANDA_BODY_BUNTAI_RED_PANDA_BODY_51_cls-9{fill:#332e33;}.BUNTAI_RED_PANDA_BODY_BUNTAI_RED_PANDA_BODY_51_cls-10,.BUNTAI_RED_PANDA_BODY_BUNTAI_RED_PANDA_BODY_51_cls-12{stroke-width:2.35px;}.BUNTAI_RED_PANDA_BODY_BUNTAI_RED_PANDA_BODY_51_cls-11{fill:#ed87a7;}.BUNTAI_RED_PANDA_BODY_BUNTAI_RED_PANDA_BODY_51_cls-12{stroke-miterlimit:10;}.BUNTAI_RED_PANDA_BODY_BUNTAI_RED_PANDA_BODY_51_cls-13{opacity:0.43;mix-blend-mode:multiply;}.BUNTAI_RED_PANDA_BODY_BUNTAI_RED_PANDA_BODY_51_cls-14{opacity:0.49;}.BUNTAI_RED_PANDA_BODY_BUNTAI_RED_PANDA_BODY_51_cls-15{opacity:0.31;mix-blend-mode:screen;}.BUNTAI_RED_PANDA_BODY_BUNTAI_RED_PANDA_BODY_51_cls-16{stroke-width:2.39px;}.BUNTAI_RED_PANDA_BODY_BUNTAI_RED_PANDA_BODY_51_cls-17{stroke-width:2.3px;}.BUNTAI_RED_PANDA_BODY_BUNTAI_RED_PANDA_BODY_51_cls-18{stroke-width:2.16px;}.BUNTAI_RED_PANDA_BODY_BUNTAI_RED_PANDA_BODY_51_cls-19{stroke-width:2.22px;}</style>
  </defs>
  <g class="BUNTAI_RED_PANDA_BODY_BUNTAI_RED_PANDA_BODY_51_cls-1">
    <g id="body">
      <path class="BUNTAI_RED_PANDA_BODY_BUNTAI_RED_PANDA_BODY_51_cls-2" d="M130.54,205.29a196.56,196.56,0,0,1-7.16-22.86c-.8-3.4-1.49-6.88-1.95-10.23-.19-1.39-.34-2.72-.42-4a34.05,34.05,0,0,1-.15-4,28.43,28.43,0,0,1,.38-4.76,14.4,14.4,0,0,1,1.86-5.36,7.8,7.8,0,0,1,3.53-3.24,14.52,14.52,0,0,1,4.78-1.16c.6-.05,1.19-.08,1.81-.08h.28a33.51,33.51,0,0,1,5.54.59,1.18,1.18,0,0,1,.28.06c6.8,1.28,14.42,4.37,21.14,7.64l1.7.85c2.44,1.19,4.71,2.42,6.77,3.56h0a54,54,0,0,1,5.62-4.41,78,78,0,0,1,22.22-10.19l.38-.12h0a128.11,128.11,0,0,1,22.17-4.22c2-.21,3.86-.36,5.45-.44.29,0,.6,0,.85,0h.13c1.08-.08,2-.11,2.78-.13h.13c1.68-.08,2.63,0,2.63,0h0c.35,0,2.59,0,6.14.2,1.26.08,2.68.19,4.24.34s3.17.3,4.92.54c2.91.36,6.13.87,9.5,1.57,1.52.28,3.06.64,4.64,1a.1.1,0,0,1,.07,0c.62.14,1.24.31,1.85.47,1.11.28,2.24.59,3.38,1,.72.21,1.44.44,2.16.67,2.19.69,4.38,1.46,6.54,2.37a.33.33,0,0,0,.16.05c1.57.64,3.08,1.34,4.6,2.09.8.36,1.57.77,2.35,1.18,1.54.82,3.06,1.7,4.53,2.65a54.54,54.54,0,0,1,4.81,3.44h0c.83-.49,1.68-1,2.57-1.5l1.48-.85c5.8-3.26,12.37-6.36,18.24-7.64a1,1,0,0,1,.25-.06,25.88,25.88,0,0,1,4.78-.59h.25c.52,0,1,0,1.55.07a11.68,11.68,0,0,1,4.14,1.17,7.13,7.13,0,0,1,3,3.24,15.58,15.58,0,0,1,1.61,5.36,32.1,32.1,0,0,1,.34,4.76c0,1.29,0,2.61-.14,4s-.2,2.65-.35,4c-.41,3.35-3.6,17.75-12,28.84l-1.27.12C318.32,205.57,324,214,332.31,218c0,0,0,0,.05,0l-.54.31c-.31.17-.63.33-.91.51-6.28,3.45-9.5,3.32-9.5,3.32s4.61,3.53,9.5,6.75a47.67,47.67,0,0,0,8.34,4.52s.06,0,.08,0a2.9,2.9,0,0,1-.29.51,67,67,0,0,1-5.41,8.43l-.16.22c-.8,1.07-1.65,2.16-2.56,3.28-1.8,2.19-3.8,4.45-6,6.74-.54.57-1.11,1.14-1.7,1.7-.93.93-1.88,1.83-2.88,2.74h0c-.42.4-.82.77-1.27,1.15-.28.25-.58.54-.89.8-.94.81-1.91,1.62-2.9,2.4l-.27.21a270.93,270.93,0,0,1-28.38,18.91c0-.07.07-.35.17-.77l-.46-.06-.11-.24c-.28-.67-.56-1.33-.87-2a78.76,78.76,0,0,0-4.19-8.09,1,1,0,0,0-.15-.26.3.3,0,0,0-.12-.14,43.7,43.7,0,0,0-2.57-4c-.28-.41-.58-.83-.88-1.24-.55-.75-1.13-1.52-1.73-2.25a54.94,54.94,0,0,0-4.72-5.1l-.35-.33c-.75-.69-1.53-1.35-2.33-2L266.81,253a38.2,38.2,0,0,0-6.33-3.74,37.46,37.46,0,0,0-3.57-1.44,38.89,38.89,0,0,0-5.88-1.47,43.12,43.12,0,0,0-4.34-.42c-.76,0-1.48,0-2.23,0s-1.49,0-2.21.08a1,1,0,0,1-.28,0c-1.27.09-2.5.25-3.75.44-.13,0-.23.05-.36.06-.54.13-1,.21-1.59.31a4.56,4.56,0,0,1-.64.14c-1.4.35-2.8.76-4.19,1.23-.71.21-1.38.46-2.09.74s-1.39.55-2.07.86a72.41,72.41,0,0,0-20.65,14.34c-1,.92-1.89,1.89-2.8,2.82-1.26,1.26-2.41,2.52-3.51,3.79-.21.24-.42.48-.6.71a.64.64,0,0,0-.2.21.64.64,0,0,0-.21.27c-.74.84-1.43,1.63-2.06,2.45s-1.28,1.56-1.9,2.34-1.25,1.61-1.79,2.4-1,1.34-1.46,2c-.67.88-1.24,1.77-1.82,2.6l-.32-.3c-.26-.26-.53-.52-.79-.75a7.59,7.59,0,0,0-.71-.69l-5.14-.71h-1a65.28,65.28,0,0,1-8.11-.61c-1-.13-2-.28-3-.43-1.36-.24-2.7-.49-4-.8-.87-.18-1.72-.39-2.57-.62a.59.59,0,0,1-.21-.05h0l-.31-.08c-2.26-.59-4.48-1.29-6.61-2.06-.33-.1-.67-.24-1-.36l-.09,0c-1.53-.57-3-1.17-4.46-1.83l-.16-.08h0c-1.11-.49-2.19-1-3.27-1.54-.67-.32-1.32-.65-1.93-1-.95-.49-1.88-1-2.81-1.55l-.26-.12c-.64-.37-1.29-.76-1.9-1.14-.46-.25-.93-.54-1.39-.85-1-.6-2-1.26-3-1.91a95.57,95.57,0,0,1-9.33-7.1l-.9-.8c-.44-.38-.87-.8-1.31-1.18h0v0c-1-.9-1.92-1.77-2.85-2.68s-1.91-1.93-2.78-2.88l-1.6-1.73c-1.9-2.08-3.6-4.14-5.12-6.1s-2.76-3.73-3.86-5.43q-1.47-2.25-2.48-4.17a.09.09,0,0,1,0-.06l-.28-.5s.06,0,.08,0a38.7,38.7,0,0,0,7.27-3.87c5.27-3.32,10.6-7.41,10.6-7.41s-2,.08-5.9-1.57a38.61,38.61,0,0,1-5-2.58l0,0a16.79,16.79,0,0,0,2.76-1.28s0,0,.05,0,0,0,0-.05a48.1,48.1,0,0,0,5.61-3.78.59.59,0,0,1,.19-.13c.3-.23.59-.47.9-.69v0c.43-.33.87-.67,1.31-1,1.26-1,2.49-2.08,3.71-3.14a.44.44,0,0,1,.15-.13c.79-.72,1.57-1.39,2.32-2.09C130.62,205.52,130.59,205.42,130.54,205.29Z" />
      <path class="BUNTAI_RED_PANDA_BODY_BUNTAI_RED_PANDA_BODY_51_cls-3" d="M236.79,304.5v0c.47,0,6.15-.23,13-1.21A83.13,83.13,0,0,0,261.16,301c.77-.21,1.53-.43,2.27-.68l.56,5.79s1.49,13.88,2.21,14.56c13.28,12.41,43.7,26.05,43.7,26.05s24,11.06,30.47,33.08,20.15,67.11,20.15,67.11H84.41s1.4-4.19,7-28,7.34-40.2,17.63-56.62,51.85-20.28,76.11-37.06c4-2.77,2.63-19.16,2.63-19.16v-2.4c-.44-13.36-1.32-21.85-1.32-21.85l2,.08h0a6.71,6.71,0,0,1,.66.65c.27.23.53.49.79.75.58.56,1.18,1.13,1.76,1.72L193,286.3c.89.9,1.76,1.8,2.6,2.68l.24.23c.23.26.47.51.71.77s.31.34.47.52.26.28.4.43l.86.93c.53.59,1.05,1.21,1.55,1.78,0,.05.08.07.11.13.42.46.79.92,1.16,1.36a5.87,5.87,0,0,0,.65.7,4.3,4.3,0,0,0,.77.69s0,0,.05,0l0,.05a17,17,0,0,0,1.77,1.21.19.19,0,0,0,.1.05,22,22,0,0,0,3.26,1.6.3.3,0,0,0,.21.07,35,35,0,0,0,3.71,1.29c.13,0,.23.08.37.1,1.81.52,3.73,1,5.65,1.37a137.55,137.55,0,0,0,17.85,2.16c.23,0,.42,0,.6,0,.34,0,.58,0,.69,0h0Z" />
      <path class="BUNTAI_RED_PANDA_BODY_BUNTAI_RED_PANDA_BODY_51_cls-4" d="M130.92,370.27c-2.56,8.71-3.47,15.65-.12,31.29" />
      <path class="BUNTAI_RED_PANDA_BODY_BUNTAI_RED_PANDA_BODY_51_cls-4" d="M188.49,281.94l-2-.08s.88,8.49,1.32,21.85v2.4s1.38,16.39-2.63,19.16c-24.26,16.78-65.81,20.63-76.11,37.06S97,395.18,91.4,419s-7,28-7,28H360.52s-13.63-45.09-20.15-67.11-30.47-33.08-30.47-33.08-30.42-13.64-43.7-26.05c-.72-.68-2.21-14.56-2.21-14.56l-.56-5.79" />
      <path class="BUNTAI_RED_PANDA_BODY_BUNTAI_RED_PANDA_BODY_51_cls-4" d="M306.35,374.21s12.23,19.68,17.82,29.94-4.54,33-22,42.76" />
      <path class="BUNTAI_RED_PANDA_BODY_BUNTAI_RED_PANDA_BODY_51_cls-4" d="M140.16,446.91c-4-6.84-12.8-23.38-11.71-35.3,1.4-15.38,18.81-37.4,18.81-37.4" />
      <path class="BUNTAI_RED_PANDA_BODY_BUNTAI_RED_PANDA_BODY_51_cls-4" d="M320.2,397.14s-1.57-18.92-4.54-28.35" />
      <path class="BUNTAI_RED_PANDA_BODY_BUNTAI_RED_PANDA_BODY_51_cls-5" d="M175.55,268.92s-8.36,6.86-13.68,14.25a59.75,59.75,0,0,1,2.72-13.31s-4,.34-10.59,4c-7.12,5.36-7.4,19.17-7.12,25.61a27.82,27.82,0,0,0-3.8,3c-2.14,2.08-1.65,11.6-1.21,16.76h0c-2.28,1.53-5.92,4.24-6.74,6.3-.46,2.86,1.19,7,3.34,11-2.4,1.61-5.91,4.49-6.92,8-1.17,4.09,5,13,8.22,17.29a13.78,13.78,0,0,0-.43,3.44,9.44,9.44,0,0,0,3.11,6.6h0c-1.35.82-2.89,2.06-2.43,3.25.23.57,1,.85,2.16.91-1.57,3.18-5.12,10.26-7.63,14.5-3.32,5.59-1.69,22-1.11,25.8,5.13-1.28,17.82-6.52,24.29-13.28a95,95,0,0,0-1.95-22.21c.46,1.38,5.87,17.49,6.15,19.82,5.47-3.2,6.34-11.82,6.34-11.82s-8.12-11.49-15-16.09c1.43-1.66,1.11-4.07-.48-4.54a78.47,78.47,0,0,0,5-7.45,10.56,10.56,0,0,0,.83-9.88c10.79-8.86,6.18-15.07,3.6-17.39,1.89-1.84,4.36-4.14,7.07-6.32,3.5-2.82,2-7.62.13-11.1,10.48-7,12.06-14.66,7.91-22.62a25.7,25.7,0,0,0,10.58-13.31c3.49-10.84,3.81-15.56,3.81-15.56S179.81,265.43,175.55,268.92Z" />
      <path class="BUNTAI_RED_PANDA_BODY_BUNTAI_RED_PANDA_BODY_51_cls-6" d="M145,370.93s-5,2.34-4.72,3.76,8.74,1.57,12.14-1,3.06-5.77-.13-5.53S145,370.93,145,370.93Z" />
      <path class="BUNTAI_RED_PANDA_BODY_BUNTAI_RED_PANDA_BODY_51_cls-4" d="M153.3,372.72a4,4,0,0,1-1.22,1,24,24,0,0,1-9.9,2.31c-1.12-.06-1.93-.34-2.16-.91-.78-2,4.2-4.19,4.2-4.19s3.76-1.49,7.08-2.63l.28-.09C154.18,367.54,155,370.7,153.3,372.72Z" />
      <path class="BUNTAI_RED_PANDA_BODY_BUNTAI_RED_PANDA_BODY_51_cls-4" d="M155.78,380.81A95,95,0,0,1,157.73,403c-6.47,6.76-19.16,12-24.29,13.28-.58-3.84-2.21-20.21,1.11-25.8,2.51-4.24,6.06-11.32,7.63-14.5" />
      <path class="BUNTAI_RED_PANDA_BODY_BUNTAI_RED_PANDA_BODY_51_cls-4" d="M153.3,372.72c6.85,4.6,15,16.09,15,16.09s-.87,8.62-6.34,11.82c-.28-2.33-5.69-18.44-6.15-19.82a.64.64,0,0,0,0-.07.08.08,0,0,1,0,0" />
      <path class="BUNTAI_RED_PANDA_BODY_BUNTAI_RED_PANDA_BODY_51_cls-4" d="M151.58,368.18c1.85-2.13,4.34-5,5.86-7,2.32-3,2.5-4.91,1.18-10.35-.21-.83-.44-1.75-.71-2.76-4.07,1.19-8.75,4.62-12.45,8.1h0a42.12,42.12,0,0,0-5.4,6,11,11,0,0,0-1,1.67c-1.14,2.53,1.81,6,3.64,7.81" />
      <path class="BUNTAI_RED_PANDA_BODY_BUNTAI_RED_PANDA_BODY_51_cls-4" d="M158.62,350.85c10.79-8.86,6.18-15.07,3.6-17.39a10.3,10.3,0,0,0-1.31-1,59.12,59.12,0,0,0-8.34,4.46c-1.71,1.08-3.57,2.36-5.47,3.84a8.38,8.38,0,0,0-3,4.68c-1,3.81.33,8.17,1.37,10.76h0" />
      <path class="BUNTAI_RED_PANDA_BODY_BUNTAI_RED_PANDA_BODY_51_cls-4" d="M140.06,362.19c-3.15-4.14-9.72-13.47-8.51-17.68,1-3.53,4.52-6.41,6.92-8" />
      <path class="BUNTAI_RED_PANDA_BODY_BUNTAI_RED_PANDA_BODY_51_cls-4" d="M152.57,336.91a64.25,64.25,0,0,1-5.74-11c-1.88-4.4-3.08-8-3.08-8s-.78.47-1.88,1.21h0c-2.28,1.53-5.92,4.24-6.74,6.3-.46,2.86,1.19,7,3.34,11a86.24,86.24,0,0,0,5.62,8.94" />
      <path class="BUNTAI_RED_PANDA_BODY_BUNTAI_RED_PANDA_BODY_51_cls-4" d="M162.22,333.46c1.89-1.84,4.36-4.14,7.07-6.32,3.5-2.82,2-7.62.13-11.1a29.49,29.49,0,0,0-2.75-4.23s-2.81,2.2-8.23,6.51l-.94.76A75.25,75.25,0,0,1,146.83,326" />
      <path class="BUNTAI_RED_PANDA_BODY_BUNTAI_RED_PANDA_BODY_51_cls-4" d="M158.44,318.32A70.9,70.9,0,0,1,154.17,306c-1.4-5.29-2.18-9.65-2.18-9.65s-2.53,1.34-5.11,3.07a27.82,27.82,0,0,0-3.8,3c-2.14,2.08-1.65,11.6-1.21,16.76h0" />
      <path class="BUNTAI_RED_PANDA_BODY_BUNTAI_RED_PANDA_BODY_51_cls-4" d="M169.42,316c10.48-7,12.06-14.66,7.91-22.62a27.16,27.16,0,0,0-2-3.29c-2,2.54-6.77,6.21-11.46,9.47h0c-3.89,2.71-7.69,5.14-9.69,6.4" />
      <path class="BUNTAI_RED_PANDA_BODY_BUNTAI_RED_PANDA_BODY_51_cls-4" d="M163.86,299.61h0c-2.18-5.24-2.44-11.21-2-16.43a59.75,59.75,0,0,1,2.72-13.31s-4,.34-10.59,4c-7.12,5.36-7.4,19.17-7.12,25.61" />
      <path class="BUNTAI_RED_PANDA_BODY_BUNTAI_RED_PANDA_BODY_51_cls-4" d="M161.87,283.17c5.32-7.39,13.68-14.25,13.68-14.25,4.26-3.49,16.17-4.37,16.17-4.37s-.32,4.72-3.81,15.56a25.7,25.7,0,0,1-10.58,13.31" />
      <path class="BUNTAI_RED_PANDA_BODY_BUNTAI_RED_PANDA_BODY_51_cls-7" d="M169,162.29a102.36,102.36,0,0,1,47.44-18.63c28.25-3.37,40.83,1.1,51.87,4.78s22.36,11.77,22.36,11.77,19.12-11.25,28.65-10.38,11.24,10.09,9.72,21.81-11.55,28.86-11.55,28.86l-.24,3.16,1,3.65s8.67,9.08,14.09,10.69c-5.23,2.71-9.62,4.72-9.62,4.72s9.75,9.48,16.65,10.75c-4.31,7.81-9.52,14.88-18.61,23.25S287.61,280,287.61,280s-6.72,4.74-10,9.61S266.87,302,245,304s-39.13-3.28-44.18-8.72-14.32-13.39-14.32-13.39a82.4,82.4,0,0,1-26.57-4.49c-13-4.77-27.31-12.8-36.18-22.74a218.49,218.49,0,0,1-16.47-21.38l16.24-11-9.09-4.56s12.45-6.75,15.93-13c-6.46-16.44-12.65-40.83-7.76-49.09s14.17-7.31,25.29-3.16A167.66,167.66,0,0,1,169,162.29Z" />
      <path class="BUNTAI_RED_PANDA_BODY_BUNTAI_RED_PANDA_BODY_51_cls-8" d="M208.07,236.8a14.39,14.39,0,0,0,3.57-10.7c-.62-6.43-20.86-25.64-29.71-15.25S189,237.11,208.07,236.8Z" />
      <path class="BUNTAI_RED_PANDA_BODY_BUNTAI_RED_PANDA_BODY_51_cls-4" d="M208.07,236.67a13.94,13.94,0,0,0,3.57-10.57c-.62-6.43-20.86-25.64-29.71-15.25S189,237,208.07,236.67Z" />
      <path class="BUNTAI_RED_PANDA_BODY_BUNTAI_RED_PANDA_BODY_51_cls-8" d="M273.09,237.41a15.39,15.39,0,0,1-3.73-11c.62-6.44,20.86-25.64,29.71-15.25S292.16,237.72,273.09,237.41Z" />
      <path class="BUNTAI_RED_PANDA_BODY_BUNTAI_RED_PANDA_BODY_51_cls-4" d="M272.9,236.62a13.61,13.61,0,0,1-3.7-10.52c.62-6.43,20.86-25.64,29.71-15.25S292,236.92,272.9,236.62Z" />
      <path class="BUNTAI_RED_PANDA_BODY_BUNTAI_RED_PANDA_BODY_51_cls-8" d="M286.55,280.17s-10.82-29.88-37.43-34.11-48.81,24.61-48.81,24.61l-9.66,13.66s9.93,9.6,12.18,12.66,24.08,7.3,39.57,7.12,27-6,30.12-9S284.34,281.06,286.55,280.17Z" />
      <path class="BUNTAI_RED_PANDA_BODY_BUNTAI_RED_PANDA_BODY_51_cls-8" d="M166.59,183.78s-7.23.18-10.51-4.91-9-14.67-14.87-16.82S135,160,135,160l.87,4.55-6.58,1.92,1.73,3.66s.07,14.75,2.46,17.78c-6.17,1.34-9.86,5.1-7.08,9.46-1.71,2.71-5.2,7.68-1.62,9.71s4.34,0,4.34,0S145.84,187.45,166.59,183.78Z" />
      <path class="BUNTAI_RED_PANDA_BODY_BUNTAI_RED_PANDA_BODY_51_cls-8" d="M294.17,182.9A38.19,38.19,0,0,0,302,173c3.27-6,12-14,15.51-13.86-1.36,4.93-1.67,5.79-1.67,5.79l8,.93-1.8,4a24.62,24.62,0,0,1-2.73,17c4.87,4.15,6.06,8.27,2.47,11.67,3.49,3.49,7,8.06,1.13,12.22-4.93-5.59-6.75-8.27-9.27-13.09S302.22,184.92,294.17,182.9Z" />
      <path class="BUNTAI_RED_PANDA_BODY_BUNTAI_RED_PANDA_BODY_51_cls-8" d="M169.32,279s-21.73-11.88-23-17.39S149,255.3,149,255.3s-8.19-9.54-2.17-14.69,7.55-3.12,7.55-3.12,4.42-7.45,10.22-6.27,5.53,4.49,5.53,4.49,10-2.22,12.11,1.12-3.45,4.91-8.17,9.54-8,6.75-8.45,14.52S169.32,279,169.32,279Z" />
      <path class="BUNTAI_RED_PANDA_BODY_BUNTAI_RED_PANDA_BODY_51_cls-8" d="M310.91,264.29s.53-12.73-5.73-17.29-9.37-7.78-8.42-10.19,9.67-2.63,10.94-.68c3.63-5.48,5.4-5.57,8.32-4.35s4.49,5,4.49,5,4.28.83,6.11,4.06.64,8.2.64,8.2Z" />
      <path class="BUNTAI_RED_PANDA_BODY_BUNTAI_RED_PANDA_BODY_51_cls-9" d="M249.3,263.49s14.94,4.4,14.11,12.74-5.6,14-17.35,9.86c-9.58,2.75-13.71.76-16.08-5.89s1.07-10.21,6.75-13.36a36.91,36.91,0,0,1,9.89-3.94Z" />
      <path class="BUNTAI_RED_PANDA_BODY_BUNTAI_RED_PANDA_BODY_51_cls-8" d="M292.7,230.83c-1.11,7.11-6.85,10.92-19.75,6a20.89,20.89,0,0,1,1.11-4.19,11.64,11.64,0,0,1,.46-1.19c.21-.43.41-.87.64-1.34A17.52,17.52,0,0,1,278,226a4.57,4.57,0,0,1,.44-.44c.1-.1.23-.23.33-.31a14.49,14.49,0,0,1,1.5-1.15,7.12,7.12,0,0,1,.8-.49,12.6,12.6,0,0,1,1.82-.83,8.55,8.55,0,0,1,1-.33c.57-.14,1.16-.25,1.79-.34s1-.1,1.5-.12h.08a16,16,0,0,1,1.83,0,22.18,22.18,0,0,1,3.24.52A23.69,23.69,0,0,1,292.7,230.83Z" />
      <path class="BUNTAI_RED_PANDA_BODY_BUNTAI_RED_PANDA_BODY_51_cls-8" d="M284.51,223.49a7.42,7.42,0,1,1-7.42,7.42A7.42,7.42,0,0,1,284.51,223.49Z" />
      <path class="BUNTAI_RED_PANDA_BODY_BUNTAI_RED_PANDA_BODY_51_cls-10" d="M292.7,230.83c-1.11,7.11-6.85,10.92-19.75,6a20.89,20.89,0,0,1,1.11-4.19,11.64,11.64,0,0,1,.46-1.19c.21-.43.41-.87.64-1.34A17.52,17.52,0,0,1,278,226a4.57,4.57,0,0,1,.44-.44c.1-.1.23-.23.33-.31a14.49,14.49,0,0,1,1.5-1.15,7.12,7.12,0,0,1,.8-.49,12.6,12.6,0,0,1,1.82-.83,8.55,8.55,0,0,1,1-.33,15.05,15.05,0,0,1,3.37-.47,16,16,0,0,1,1.83,0,22.18,22.18,0,0,1,3.24.52A23.69,23.69,0,0,1,292.7,230.83Z" />
      <path class="BUNTAI_RED_PANDA_BODY_BUNTAI_RED_PANDA_BODY_51_cls-11" d="M283.41,223.49a7.42,7.42,0,1,0,7.42,7.42A7.42,7.42,0,0,0,283.41,223.49Z" />
      <circle cx="282.57" cy="230.91" r="3.59" />
      <circle class="BUNTAI_RED_PANDA_BODY_BUNTAI_RED_PANDA_BODY_51_cls-8" cx="284.53" cy="227.73" r="1.63" />
      <circle class="BUNTAI_RED_PANDA_BODY_BUNTAI_RED_PANDA_BODY_51_cls-12" cx="283.41" cy="230.91" r="7.42" />
      <path class="BUNTAI_RED_PANDA_BODY_BUNTAI_RED_PANDA_BODY_51_cls-8" d="M208.07,236.8c-13.11,5-18.8,1-19.83-6.28v-.05a25.1,25.1,0,0,1,.44-8,22.18,22.18,0,0,1,3.24-.52,16,16,0,0,1,1.83,0h.08c.52,0,1,.06,1.51.12s1.22.2,1.79.34c.33.1.66.2,1,.33a12.36,12.36,0,0,1,1.8.83,12,12,0,0,1,2.89,2.21,1.54,1.54,0,0,1,.2.18c.31.34.62.7.9,1.06a.92.92,0,0,1,.23.31,10.72,10.72,0,0,1,.91,1.28s0,0,0,0c.23.38.46.8.67,1.18.05.08.08.16.13.23.23.47.44.91.62,1.34a11.64,11.64,0,0,1,.46,1.19,5.51,5.51,0,0,1,.26.74c.26.8.46,1.52.59,2.09.05.28.1.51.15.72a.09.09,0,0,1,0,.08C208,236.6,208.07,236.8,208.07,236.8Z" />
      <path class="BUNTAI_RED_PANDA_BODY_BUNTAI_RED_PANDA_BODY_51_cls-8" d="M196.53,223.49a7.42,7.42,0,1,0,7.42,7.42A7.42,7.42,0,0,0,196.53,223.49Z" />
      <path class="BUNTAI_RED_PANDA_BODY_BUNTAI_RED_PANDA_BODY_51_cls-10" d="M208.09,236.8h0c-13.11,5-18.8,1-19.83-6.28v-.05a25.1,25.1,0,0,1,.44-8,22.18,22.18,0,0,1,3.24-.52,16,16,0,0,1,1.83,0,15.15,15.15,0,0,1,3.38.47c.33.1.66.2,1,.33a12.36,12.36,0,0,1,1.8.83,12,12,0,0,1,2.89,2.21,1.54,1.54,0,0,1,.2.18c.31.34.62.7.9,1.06a.92.92,0,0,1,.23.31,10.72,10.72,0,0,1,.91,1.28s0,0,0,0c.23.38.46.8.67,1.18.05.08.08.16.13.23.23.47.44.91.62,1.34a11.64,11.64,0,0,1,.46,1.19,5.51,5.51,0,0,1,.26.74,15.18,15.18,0,0,1,.59,2.09c.05.28.1.51.15.72a.09.09,0,0,1,0,.08A5.33,5.33,0,0,1,208.09,236.8Z" />
      <path class="BUNTAI_RED_PANDA_BODY_BUNTAI_RED_PANDA_BODY_51_cls-11" d="M195.65,223.49a7.42,7.42,0,1,0,7.42,7.42A7.42,7.42,0,0,0,195.65,223.49Z" />
      <circle cx="195.65" cy="230.91" r="3.59" />
      <circle class="BUNTAI_RED_PANDA_BODY_BUNTAI_RED_PANDA_BODY_51_cls-8" cx="193.7" cy="227.73" r="1.63" />
      <circle class="BUNTAI_RED_PANDA_BODY_BUNTAI_RED_PANDA_BODY_51_cls-12" cx="195.65" cy="230.91" r="7.42" />
      <g class="BUNTAI_RED_PANDA_BODY_BUNTAI_RED_PANDA_BODY_51_cls-13">
        <path d="M140,185.21a31.41,31.41,0,0,0,2.68,10s8.92-9.37,17.73-11.61c-8.34-8.34-12.72-17.32-15.87-19.65s-8.7-4-8.7-4,4.16,7.18,4.93,13.84c-3.84-2.9-6.14-3.11-6.14-3.11S139.22,178.81,140,185.21Z" />
        <path class="BUNTAI_RED_PANDA_BODY_BUNTAI_RED_PANDA_BODY_51_cls-14" d="M187.78,281.86h-.52A80.16,80.16,0,0,1,166,279c-2-.51-4-1.13-6.07-1.8-1.76-.6-3.56-1.25-5.35-2h0c-2.86-1.12-5.74-2.37-8.65-3.82a1.66,1.66,0,0,1-.27-.13c-1.49-.71-3-1.5-4.54-2.35-.82-.42-1.63-.87-2.47-1.34s-1.61-.92-2.42-1.4A.63.63,0,0,1,136,266c-1.14-.66-2.28-1.37-3.42-2.09a66.78,66.78,0,0,1-22.66-24.1c-.05-.08-.1-.18-.16-.27a6.36,6.36,0,0,1-.32-.64,43.41,43.41,0,0,1-2.32-5,.12.12,0,0,1,0-.06c-.11-.24-.17-.43-.22-.56l-.08-.24s3.91-2,8.13-4.65v0a48,48,0,0,0,7.37-5.47.27.27,0,0,0,.16-.17,9.19,9.19,0,0,0,1.11-1.18,2.56,2.56,0,0,0,.28-.3l-1.25-.45c-.41-.13-.79-.28-1.15-.41-.73-.26-1.38-.52-2-.73-.79-.31-1.47-.6-2-.86a8,8,0,0,1-.76-.35,18.25,18.25,0,0,1-1.94-1l-.24-.15c-.33-.24-.35-.35-.35-.35h0l0,0c.35-.22,2.67-1.53,5.6-3.39,0,0,.06,0,.08-.06l3.27-2.1a.62.62,0,0,1,.19-.14c.27-.2.57-.39.84-.56v0a62.24,62.24,0,0,0,8.57-6.8c-1.28,1.7-3.05,4-4.82,6.2-2.2,2.85-4.38,5.54-5.38,6.55,9.38,3.22,20.58-10.55,21.37-11.51-.41.87-7.12,14.9-13.49,19,9.55,2.32,13.3-4.3,17.13-7.8,3.24-2.92-7.26,15.78-7.26,15.78l14.52.62a.75.75,0,0,1,.3,0s0,0,.06,0h0l0,0,0,0h.08v0a23.12,23.12,0,0,0,6.09,14.92l0,0a20.72,20.72,0,0,0,2.26,2.08,25.16,25.16,0,0,0,7.31,4v0c1,8.14,2.86,14,6.74,19.06v0l.09.08a39,39,0,0,0,8.07,7.57c.06,0,.08.08.14.11C186.61,281,187.18,281.46,187.78,281.86Z" />
        <path d="M289.7,160l-.23.16-.87.54-.2.13-.69.42c-.3.2-.61.4-.89.56a1.74,1.74,0,0,1-.3.2l-.38.22s-4.63-3.19-24-10.72c-.59-.24-1.2-.5-1.83-.73a44.8,44.8,0,0,0-5.14-1.63c-19.5-5.21-47.54-2.34-47.54-2.34a143.4,143.4,0,0,1,28.35,3c-34.76-.6-63.67,13.53-64.79,14.09a.05.05,0,0,1-.07,0,.45.45,0,0,1-.31-.18l-.07-.08a6.55,6.55,0,0,1-1.05-1.91l.61-.39c.46-.31,1-.64,1.66-1l1-.61c.41-.25.84-.51,1.3-.76,2-1.15,4.5-2.47,7.47-3.86,1.15-.56,2.29-1,3.46-1.55s2.06-.91,3.15-1.34,2.32-.94,3.49-1.34q2.94-1.06,6.15-2.07a117.74,117.74,0,0,1,44-4.29c.74.07,1.45.14,2.16.23s1.53.16,2.29.25c3.53.45,6.92,1,10.07,1.73,2.57.58,5,1.21,7.3,1.87,3.68,1,7,2.22,10,3.38,1,.42,1.93.78,2.85,1.17,1.5.64,2.85,1.24,4.09,1.84.36.16.71.34,1.07.52a3.38,3.38,0,0,1,.46.24,2,2,0,0,1,.4.18s0,0,.06,0a.07.07,0,0,1,.07,0c.31.18.61.34.92.49.53.27,1,.55,1.47.79,1.48.84,2.62,1.52,3.38,2l.56.37s.05,0,.08,0l.33.24A.46.46,0,0,1,289.7,160Z" />
        <path class="BUNTAI_RED_PANDA_BODY_BUNTAI_RED_PANDA_BODY_51_cls-14" d="M339,233.35s-5.55,11.24-12.44,17.05S306,268.8,306,268.8L294.18,276l-.44.21a48.85,48.85,0,0,1-8.11,5.67h-.34c.37-.4.74-.83,1.1-1.23,0,0,.05-.08.09-.1,3-8.83,9.49-17,8.7-26.74v0a15.35,15.35,0,0,0,4.69-4,16.55,16.55,0,0,0,1.41-2.08l0,0c3.73-6.41,3.4-14.32,3.38-14.92v0h.06l0,0v0h0s0,0,0,0a.65.65,0,0,1,.2,0l9.65-.63s-5.48-12.16-2.37-10.12,4.85,2.6,8.58,2.14c-4.42-4.05-5.06-11.69-5.37-12.57.57,1,8,7.15,10.29,5.14-.48-.69-1.35-2.13-2.37-3.87l6.8,4.59.23.64-.65.48a4,4,0,0,1-.5.34c-.37.27-.8.55-1.31.87l-1.28.73-.59.34-4.26,1.8,9.69,6.76,1.31.37c1.08.91,2.06,1.7,2.79,2.3Z" />
        <path class="BUNTAI_RED_PANDA_BODY_BUNTAI_RED_PANDA_BODY_51_cls-14" d="M263,273.54s-14.18,9.28-33.22,0c-13.22,5.79-25.94,2.21-31-1.66a73.1,73.1,0,0,0-9.5,13s10.28,7.68,12.43,10.75,11.9,6.14,23.15,8.2,27.45-.06,33.66-2A107.67,107.67,0,0,0,270.82,297l12.23-12.92,3.12-4.58-3.64-7.61S273,278.11,263,273.54Z" />
      </g>
      <g class="BUNTAI_RED_PANDA_BODY_BUNTAI_RED_PANDA_BODY_51_cls-15">
        <path class="BUNTAI_RED_PANDA_BODY_BUNTAI_RED_PANDA_BODY_51_cls-8" d="M179.83,167.9s-45.43-20.41-57-9.87c3.29-7.43,6.8-9.61,15.72-7.88S166.82,157.87,179.83,167.9Z" />
        <path class="BUNTAI_RED_PANDA_BODY_BUNTAI_RED_PANDA_BODY_51_cls-8" d="M138.72,198.55s5.46-1.72,7-1.52-7.17,9.18-12.33,11.87-7.91,2.38-7.91,2.38S136.9,202.91,138.72,198.55Z" />
        <path class="BUNTAI_RED_PANDA_BODY_BUNTAI_RED_PANDA_BODY_51_cls-8" d="M279.8,167.9s39.14-20.41,49.1-9.87c-2.84-7.43-5.86-9.61-13.55-7.88S291,157.87,279.8,167.9Z" />
        <path class="BUNTAI_RED_PANDA_BODY_BUNTAI_RED_PANDA_BODY_51_cls-8" d="M319.31,202.5l-1.72,3.57c-4.61-3.67-9.35-8.89-8.19-9,1.5-.2,7,1.53,7,1.53A15,15,0,0,0,319.31,202.5Z" />
        <path class="BUNTAI_RED_PANDA_BODY_BUNTAI_RED_PANDA_BODY_51_cls-8" d="M261.68,271.09s-11.52-4.78-14.1-5.47c-5.76.92-18,8.5-17.51,6.6s13.24-9.37,16.29-9.63l3-.26S258.2,267.3,261.68,271.09Z" />
        <g class="BUNTAI_RED_PANDA_BODY_BUNTAI_RED_PANDA_BODY_51_cls-15">
          <path class="BUNTAI_RED_PANDA_BODY_BUNTAI_RED_PANDA_BODY_51_cls-8" d="M292.77,162.21l-1,.67a5.27,5.27,0,0,0-.49-.3,2,2,0,0,0-.26-.16,7,7,0,0,0-.7-.43c-.64-.38-1.52-.89-2.58-1.46a.25.25,0,0,0-.13-.05c-.65-.35-1.37-.73-2.15-1.11a.1.1,0,0,0-.07,0s0-.06-.06-.06a3,3,0,0,0-.41-.19,5.06,5.06,0,0,0-.46-.24c-.37-.19-.73-.38-1.09-.54-1.27-.62-2.64-1.24-4.16-1.91-.93-.41-1.89-.79-2.9-1.22-3-1.16-6.41-2.37-10.19-3.48-2.32-.7-4.8-1.37-7.42-2a117.36,117.36,0,0,0-12.51-2.32c-.72-.11-1.45-.19-2.2-.27-3.72-.44-7.62-.73-11.68-.84a111.46,111.46,0,0,0-33.07,4.26c-2.17.62-4.27,1.27-6.26,1.94-1.19.38-2.38.84-3.54,1.27s-2.17.84-3.21,1.27c-1.19.48-2.35.94-3.51,1.48-3,1.32-5.56,2.59-7.6,3.7q-.71.36-1.32.72c-.37.22-.73.41-1,.6-.64.35-1.21.67-1.68,1-.23.13-.44.27-.62.38a11.58,11.58,0,0,0-1,.62c.11-.27,1.09-2.4,4.48-5.26,3.74-3.18,10.47-7.26,22.31-10.68.15-.06.28-.08.41-.14a117.13,117.13,0,0,1,21.72-3.93c3.08-.3,6.1-.44,9.08-.49,1.57,0,3.12,0,4.68,0h0c1.16,0,2.3.05,3.44.11a118.77,118.77,0,0,1,24.59,3.5h0c.06,0,.11,0,.16.06a68,68,0,0,1,7.26,2.34,141,141,0,0,1,25,13A1,1,0,0,1,292.77,162.21Z" />
        </g>
      </g>
      <path class="BUNTAI_RED_PANDA_BODY_BUNTAI_RED_PANDA_BODY_51_cls-4" d="M189.26,284.85c.58-.83,2.17-2.93,2.84-3.81.44-.64.92-1.32,1.46-2s1.16-1.58,1.79-2.4,1.23-1.57,1.9-2.35,1.32-1.61,2.06-2.45a.79.79,0,0,1,.21-.27.75.75,0,0,1,.2-.21l.59-.71c1.11-1.26,2.26-2.53,3.51-3.79.91-.92,1.84-1.89,2.8-2.81a72.62,72.62,0,0,1,20.66-14.35c.68-.3,1.36-.57,2.07-.85s1.37-.53,2.09-.75c1.38-.46,2.78-.87,4.19-1.22a4.56,4.56,0,0,0,.64-.14c.54-.11,1-.19,1.59-.31l.36-.06c1.25-.19,2.48-.35,3.75-.45a1.47,1.47,0,0,0,.28,0c.72,0,1.46-.06,2.2-.08s1.48,0,2.23,0a43,43,0,0,1,4.35.42,40.77,40.77,0,0,1,5.88,1.47c1.24.43,2.41.92,3.57,1.45a37.52,37.52,0,0,1,6.33,3.74l1.45,1.09c.8.64,1.58,1.31,2.32,2l.36.32a55,55,0,0,1,4.72,5.11c.59.73,1.18,1.49,1.72,2.25.31.41.61.83.89,1.24a43.7,43.7,0,0,1,2.57,4,.31.31,0,0,1,.12.14,1.35,1.35,0,0,1,.15.26,81.8,81.8,0,0,1,4.19,8.08c.31.7.59,1.37.87,2l.1.25" />
      <path class="BUNTAI_RED_PANDA_BODY_BUNTAI_RED_PANDA_BODY_51_cls-4" d="M231.34,142.64s-1,0-2.63.06h-.13c-.77,0-1.7.05-2.78.12h-.13c-.26,0-.56,0-.85.06-1.59.07-3.42.23-5.46.43a129.28,129.28,0,0,0-22.16,4.23c-.13.05-.26.07-.42.12a78.25,78.25,0,0,0-22.22,10.2,56.23,56.23,0,0,0-5.61,4.4" />
      <path class="BUNTAI_RED_PANDA_BODY_BUNTAI_RED_PANDA_BODY_51_cls-4" d="M167.39,183.52s-8,3.62-14-8.54-18.9-16.27-18.9-16.27l2.3,6.24-8.54,1,2.79,3.62s-1.81,11.83,2.14,18.24c0,0-6.59-.06-7.47,5.53-.43,3.41.88,3.68.88,3.68s-8,9.94,1.58,10.82" />
      <path class="BUNTAI_RED_PANDA_BODY_BUNTAI_RED_PANDA_BODY_51_cls-4" d="M178.89,168.24s-1.44-1-3.87-2.42c-.43-.26-.9-.54-1.39-.85-.3-.16-.64-.36-1-.57,0-.05-.13-.07-.21-.13h0l-.23-.15c-.65-.39-1.34-.77-2.09-1.21-.26-.13-.51-.26-.77-.41l-.36-.21s0,0,0,0c-2.06-1.14-4.32-2.37-6.77-3.56l-1.7-.85c-6.72-3.27-14.34-6.36-21.14-7.64a1.09,1.09,0,0,0-.28-.06,33.39,33.39,0,0,0-5.53-.59h-.29c-.62,0-1.21,0-1.8.08a14.58,14.58,0,0,0-4.79,1.16,7.8,7.8,0,0,0-3.53,3.24,14.39,14.39,0,0,0-1.85,5.36,27.38,27.38,0,0,0-.39,4.76,36.45,36.45,0,0,0,.16,4c.08,1.31.23,2.65.41,4,.46,3.35,1.16,6.83,2,10.23s1.74,6.69,2.66,9.71c0,0,0,0,0,.05" />
      <path class="BUNTAI_RED_PANDA_BODY_BUNTAI_RED_PANDA_BODY_51_cls-4" d="M130.66,205.62c0-.06,0-.13-.08-.2" />
      <path class="BUNTAI_RED_PANDA_BODY_BUNTAI_RED_PANDA_BODY_51_cls-4" d="M186,281.55l-2.66-.37h-.26a65.45,65.45,0,0,1-8.83-.61c-1-.13-2-.28-3-.44-1.36-.23-2.7-.49-4-.79-.87-.19-1.72-.39-2.57-.62a.43.43,0,0,1-.21-.06h0l-.3-.08c-2.27-.58-4.48-1.28-6.62-2.05l-1-.36-.09,0c-1.53-.57-3-1.16-4.46-1.83l-.15-.07h0c-1.11-.49-2.19-1-3.27-1.54-.67-.32-1.32-.65-1.93-1-.95-.49-1.88-1-2.81-1.55l-.26-.13c-.64-.36-1.29-.75-1.9-1.13-.46-.26-.93-.55-1.39-.85-1-.6-2-1.26-3-1.91a94.08,94.08,0,0,1-9.33-7.11c-.3-.25-.61-.54-.9-.79-.44-.39-.87-.8-1.31-1.18h0v0c-1-.9-1.92-1.78-2.85-2.68s-1.91-1.93-2.78-2.89c-.54-.58-1.08-1.15-1.6-1.72-1.9-2.08-3.6-4.15-5.12-6.1s-2.76-3.74-3.86-5.43c-1-1.5-1.8-2.89-2.48-4.18a.08.08,0,0,1,0,0l-.29-.51.08,0a39.92,39.92,0,0,0,7.27-3.87c5.27-3.32,10.6-7.41,10.6-7.41s-2,.08-5.9-1.57a40.54,40.54,0,0,1-5-2.58l0,0a17.67,17.67,0,0,0,2.76-1.28s0,0,.05,0,0,0,0-.05a49.4,49.4,0,0,0,5.61-3.78.54.54,0,0,1,.19-.13c.3-.23.59-.47.9-.7v0c.44-.33.87-.68,1.31-1,1.26-1,2.49-2.09,3.71-3.15a.87.87,0,0,1,.15-.13c.8-.72,1.57-1.38,2.32-2.08h0c.78-.69,1.5-1.34,2.19-2a.3.3,0,0,0,.08-.08l0,0c1.95-1.81,3.55-3.33,4.48-4.28,0,0,.05,0,.08,0a3.07,3.07,0,0,0,.25-.26c.13-.1.24-.23.33-.3l.34-.34" />
      <path class="BUNTAI_RED_PANDA_BODY_BUNTAI_RED_PANDA_BODY_51_cls-4" d="M291.26,160.21h0a53.84,53.84,0,0,0-4.81-3.43q-2.22-1.42-4.54-2.65c-.77-.41-1.54-.83-2.34-1.18-1.52-.75-3-1.45-4.61-2.09a.44.44,0,0,1-.15-.05c-2.17-.91-4.35-1.68-6.54-2.37-.72-.23-1.45-.47-2.16-.67-1.14-.36-2.27-.67-3.38-1-.61-.16-1.24-.34-1.85-.47a.12.12,0,0,0-.08,0c-1.57-.39-3.11-.75-4.64-1-3.36-.7-6.58-1.21-9.49-1.58-1.76-.23-3.4-.4-4.92-.54-6-.56-9.92-.54-10.38-.54h0" />
      <path class="BUNTAI_RED_PANDA_BODY_BUNTAI_RED_PANDA_BODY_51_cls-4" d="M293.72,183.28a29.81,29.81,0,0,0,7.25-9,30.84,30.84,0,0,1,17.16-15.56l-2.3,6.24,8.54,1-2.79,3.62s1.81,11.83-2.14,18.24c0,0,6,3.85,4.27,7.69s-2.33,2.82-2.33,2.82,9.23,6.81,1.53,12.54" />
      <path class="BUNTAI_RED_PANDA_BODY_BUNTAI_RED_PANDA_BODY_51_cls-4" d="M314.26,198.32a52.69,52.69,0,0,0,8.65,12.53A33,33,0,0,0,332.3,218s0,0,.05,0l-.54.31c-.31.17-.62.33-.9.51-6.28,3.45-9.5,3.32-9.5,3.32s4.61,3.53,9.5,6.75a47.31,47.31,0,0,0,8.34,4.52s.05,0,.08,0a3.7,3.7,0,0,1-.29.51,68.34,68.34,0,0,1-5.42,8.43,1.53,1.53,0,0,1-.16.22c-.79,1.07-1.64,2.16-2.55,3.28-1.25,1.52-2.61,3.08-4.07,4.66,0,0,0,0,0,0-.63.69-1.29,1.38-2,2.07s-1.1,1.14-1.7,1.7c-.93.93-1.87,1.82-2.88,2.74h0c-.42.4-.83.77-1.27,1.15l-.89.8c-.94.81-1.91,1.62-2.91,2.4l-.26.21c-.74.59-2.14,1.66-4.08,3.07-5.16,3.75-14.12,9.94-24.31,15.85h0" />
      <path class="BUNTAI_RED_PANDA_BODY_BUNTAI_RED_PANDA_BODY_51_cls-16" d="M323,191.17h0v0a71.48,71.48,0,0,0,6-18.93c.16-1.38.29-2.72.35-4a36.49,36.49,0,0,0,.14-4,32.15,32.15,0,0,0-.33-4.76,16,16,0,0,0-1.61-5.36,7.2,7.2,0,0,0-3-3.24,11.62,11.62,0,0,0-4.14-1.17c-.51,0-1-.07-1.55-.07h-.25a26,26,0,0,0-4.78.59.84.84,0,0,0-.24.06c-5.87,1.28-12.45,4.38-18.25,7.64l-1.48.85c-.88.5-1.74,1-2.56,1.5h0c-1.15.69-2.24,1.39-3.27,2.05a0,0,0,0,1,0,0l-.31.2a5.13,5.13,0,0,1-.66.41c-.65.44-1.24.82-1.8,1.22l-.2.14h0c-.06.06-.13.07-.17.14-.31.2-.6.41-.86.56l-1.21.85c-2.09,1.46-3.33,2.42-3.33,2.42" />
      <path class="BUNTAI_RED_PANDA_BODY_BUNTAI_RED_PANDA_BODY_51_cls-4" d="M177.22,272.25s3.93,4.37,8.77,9.31c1,1.08,2.16,2.19,3.27,3.29a86.15,86.15,0,0,0,10.42,9.07c5.34,3.57,15,11.69,45.36,10.39,19.26-.82,34.26-13.85,41.7-23.34l.69-.9a65.35,65.35,0,0,0,5.21-7.82" />
      <path class="BUNTAI_RED_PANDA_BODY_BUNTAI_RED_PANDA_BODY_51_cls-4" d="M170.58,279.67s-10.39-18.48-1.18-29,13.73-9.15,14-12.61-11.7-4.74-13.71-1.92c-2.9-6.77-11.27-7.55-15.34,1.36-11.24-.68-12.05,10.78-5.65,17.78C138.88,258.61,152.17,269.66,170.58,279.67Z" />
      <path class="BUNTAI_RED_PANDA_BODY_BUNTAI_RED_PANDA_BODY_51_cls-17" d="M326.84,250.58s0,0,0,0c-.63.69-1.29,1.38-2,2.07s-1.1,1.14-1.7,1.7c-.93.93-1.87,1.82-2.88,2.74h0c-.42.4-.83.77-1.27,1.15l-.89.8c-.94.81-1.91,1.62-2.91,2.4l-.26.21c-.74.59-2.14,1.66-4.08,3.07.42-4.87-.1-10.05-2.91-14.07-7.36-10.54-11-9.15-11.2-12.61s9.34-4.73,10.94-1.92c2.32-6.77,9-7.55,12.26,1.37C327.1,237,329,244.1,326.84,250.58Z" />
      <path class="BUNTAI_RED_PANDA_BODY_BUNTAI_RED_PANDA_BODY_51_cls-4" d="M247.29,286.08c-4.84,2.5-9.93,1.88-12.89-.18a11.11,11.11,0,0,1-2.32-2.11c-.08-.1-.18-.2-.26-.31a7.23,7.23,0,0,1-.69-1,7.74,7.74,0,0,1-.75-1.39,11.24,11.24,0,0,1-1-3.21c0-.29-.08-.6-.1-.88a8.42,8.42,0,0,1,.2-2.81v0c.08-.21.13-.41.21-.62v0a4.86,4.86,0,0,1,.64-1.41c4-6.33,15-9.14,15-9.14" />
      <path d="M232.08,283.79h0l-.23-.31a7.23,7.23,0,0,1-.69-1,7.74,7.74,0,0,1-.75-1.39,11.24,11.24,0,0,1-1-3.21c0-.29-.08-.6-.1-.88a8.42,8.42,0,0,1,.2-2.81v0a4.43,4.43,0,0,1,.18-.65l0,0c2.06,2.19,5.74,5.54,9,5.54C243.15,279.11,240.45,286.32,232.08,283.79Z" />
      <path d="M260.55,283.79c-8.39,2.55-11.07-4.68-6.56-4.68,3.24,0,6.95-3.38,9-5.57C264.06,276.63,263.05,280.78,260.55,283.79Z" />
      <path class="BUNTAI_RED_PANDA_BODY_BUNTAI_RED_PANDA_BODY_51_cls-4" d="M245.32,263s13,2.81,17,9.14a4.61,4.61,0,0,1,.64,1.41c1.09,3.09.08,7.24-2.42,10.25a11.31,11.31,0,0,1-2.31,2.11c-3,2.06-6.08,2.68-10.92.18" />
      <path class="BUNTAI_RED_PANDA_BODY_BUNTAI_RED_PANDA_BODY_51_cls-18" d="M246.31,293.56a15.4,15.4,0,0,0,9.75,1.24c5.91-1.24,7.35-5.28,7.35-5.28" />
      <path class="BUNTAI_RED_PANDA_BODY_BUNTAI_RED_PANDA_BODY_51_cls-18" d="M246.31,293.56a15.4,15.4,0,0,1-9.75,1.24c-5.91-1.24-7.34-5.28-7.34-5.28" />
      <path class="BUNTAI_RED_PANDA_BODY_BUNTAI_RED_PANDA_BODY_51_cls-19" d="M246.29,293.62s3.2-10.46,0-21.1" />
    </g>
  </g>
</svg>