<svg xmlns="http://www.w3.org/2000/svg" viewBox="0 0 432 432">
  <defs>
    <style>.BUNTAI_RED_PANDA_BODY_BUNTAI_RED_PANDA_BODY_29_cls-1{isolation:isolate;}.BUNTAI_RED_PANDA_BODY_BUNTAI_RED_PANDA_BODY_29_cls-2{fill:#ca370f;}.BUNTAI_RED_PANDA_BODY_BUNTAI_RED_PANDA_BODY_29_cls-3{fill:#373135;}.BUNTAI_RED_PANDA_BODY_BUNTAI_RED_PANDA_BODY_29_cls-4{fill:#fff;}.BUNTAI_RED_PANDA_BODY_BUNTAI_RED_PANDA_BODY_29_cls-5{fill:#8cfb7e;}.BUNTAI_RED_PANDA_BODY_BUNTAI_RED_PANDA_BODY_29_cls-6{fill:#1a1a1a;}.BUNTAI_RED_PANDA_BODY_BUNTAI_RED_PANDA_BODY_29_cls-7{opacity:0.43;mix-blend-mode:multiply;}.BUNTAI_RED_PANDA_BODY_BUNTAI_RED_PANDA_BODY_29_cls-8{opacity:0.49;}.BUNTAI_RED_PANDA_BODY_BUNTAI_RED_PANDA_BODY_29_cls-9{opacity:0.31;mix-blend-mode:screen;}.BUNTAI_RED_PANDA_BODY_BUNTAI_RED_PANDA_BODY_29_cls-10,.BUNTAI_RED_PANDA_BODY_BUNTAI_RED_PANDA_BODY_29_cls-11,.BUNTAI_RED_PANDA_BODY_BUNTAI_RED_PANDA_BODY_29_cls-12,.BUNTAI_RED_PANDA_BODY_BUNTAI_RED_PANDA_BODY_29_cls-13,.BUNTAI_RED_PANDA_BODY_BUNTAI_RED_PANDA_BODY_29_cls-14,.BUNTAI_RED_PANDA_BODY_BUNTAI_RED_PANDA_BODY_29_cls-15,.BUNTAI_RED_PANDA_BODY_BUNTAI_RED_PANDA_BODY_29_cls-17,.BUNTAI_RED_PANDA_BODY_BUNTAI_RED_PANDA_BODY_29_cls-19,.BUNTAI_RED_PANDA_BODY_BUNTAI_RED_PANDA_BODY_29_cls-21{fill:none;stroke:#000;stroke-linecap:round;}.BUNTAI_RED_PANDA_BODY_BUNTAI_RED_PANDA_BODY_29_cls-10,.BUNTAI_RED_PANDA_BODY_BUNTAI_RED_PANDA_BODY_29_cls-11,.BUNTAI_RED_PANDA_BODY_BUNTAI_RED_PANDA_BODY_29_cls-12,.BUNTAI_RED_PANDA_BODY_BUNTAI_RED_PANDA_BODY_29_cls-13,.BUNTAI_RED_PANDA_BODY_BUNTAI_RED_PANDA_BODY_29_cls-14,.BUNTAI_RED_PANDA_BODY_BUNTAI_RED_PANDA_BODY_29_cls-17,.BUNTAI_RED_PANDA_BODY_BUNTAI_RED_PANDA_BODY_29_cls-19,.BUNTAI_RED_PANDA_BODY_BUNTAI_RED_PANDA_BODY_29_cls-21{stroke-linejoin:round;}.BUNTAI_RED_PANDA_BODY_BUNTAI_RED_PANDA_BODY_29_cls-10{stroke-width:2.57px;}.BUNTAI_RED_PANDA_BODY_BUNTAI_RED_PANDA_BODY_29_cls-11{stroke-width:2.39px;}.BUNTAI_RED_PANDA_BODY_BUNTAI_RED_PANDA_BODY_29_cls-12{stroke-width:2.6px;}.BUNTAI_RED_PANDA_BODY_BUNTAI_RED_PANDA_BODY_29_cls-13{stroke-width:2.16px;}.BUNTAI_RED_PANDA_BODY_BUNTAI_RED_PANDA_BODY_29_cls-14{stroke-width:2.22px;}.BUNTAI_RED_PANDA_BODY_BUNTAI_RED_PANDA_BODY_29_cls-15{stroke-miterlimit:10;}.BUNTAI_RED_PANDA_BODY_BUNTAI_RED_PANDA_BODY_29_cls-15,.BUNTAI_RED_PANDA_BODY_BUNTAI_RED_PANDA_BODY_29_cls-19{stroke-width:2.35px;}.BUNTAI_RED_PANDA_BODY_BUNTAI_RED_PANDA_BODY_29_cls-16{fill:#00828f;}.BUNTAI_RED_PANDA_BODY_BUNTAI_RED_PANDA_BODY_29_cls-17{stroke-width:2.37px;}.BUNTAI_RED_PANDA_BODY_BUNTAI_RED_PANDA_BODY_29_cls-18{fill:#420901;}.BUNTAI_RED_PANDA_BODY_BUNTAI_RED_PANDA_BODY_29_cls-20{fill:#f2ae62;}.BUNTAI_RED_PANDA_BODY_BUNTAI_RED_PANDA_BODY_29_cls-21{stroke-width:2.45px;}</style>
  </defs>
  <g class="BUNTAI_RED_PANDA_BODY_BUNTAI_RED_PANDA_BODY_29_cls-1">
    <g id="body">
      <path class="BUNTAI_RED_PANDA_BODY_BUNTAI_RED_PANDA_BODY_29_cls-2" d="M339.33,233.48l0,.06c-.08.15-.16.29-.25.43s0,0,0,0a.25.25,0,0,1,0,.07c-.15.28-.3.57-.47.87-.35.64-.74,1.3-1.16,2s-.95,1.52-1.49,2.32l-.61.9c-.52.75-1.06,1.51-1.64,2.29a.76.76,0,0,1-.08.11.76.76,0,0,0-.08.11c-.8,1.06-1.65,2.16-2.56,3.28-.45.55-.91,1.1-1.39,1.66q-1.42,1.66-3,3.37-.78.86-1.62,1.71l-.83.85-.88.85-.7.69-.11.12-.19.18c-.37.36-.75.71-1.13,1.06l-.26.24-.48.45h0l-.24.22-.1.09-.28.27-.65.57c-.28.25-.58.54-.89.8-.47.41-.95.81-1.43,1.21s-1,.8-1.47,1.19h0l-.26.21-1,.77c-.53.42-1.2.92-2,1.5l-.62.45c-.42.32-.87.64-1.35,1l-.74.53c-.19.15-.38.28-.58.42l-1.86,1.31h0c-1.15.82-2.41,1.68-3.74,2.58h0c-1,.69-2,1.38-3.13,2.1h0c-1,.67-2.06,1.35-3.14,2l-1.43.92-1.17.74h0l-.05,0,0,0h0l-.65.4h0l0,0c-1.84,1.14-3.75,2.29-5.7,3.44l-.07,0-.07,0,0,0-.07,0h0l-.85.49c0-.07.07-.35.17-.77h0l-.34-.05h-.11l-.08-.17,0-.07h0l0-.07c-.27-.64-.54-1.28-.84-2-.57-1.26-1.21-2.58-1.9-3.94-.28-.54-.56-1.09-.87-1.64,0,0,0,0,0-.05a.41.41,0,0,1-.05-.09c-.24-.44-.49-.87-.74-1.31s-.4-.7-.61-1.05a1,1,0,0,0-.15-.26.15.15,0,0,0,0-.07.23.23,0,0,0-.07-.07,43.7,43.7,0,0,0-2.57-4l-.43-.62-.45-.62-.49-.65c-.4-.54-.82-1.08-1.24-1.6-.55-.67-1.12-1.34-1.72-2s-1.14-1.27-1.75-1.89l-1.25-1.22-.26-.24-.1-.09-.53-.48c-.41-.37-.83-.73-1.26-1.07q-.27-.24-.54-.45c-.46-.36-.95-.72-1.44-1.09-.73-.53-1.48-1-2.26-1.53a38,38,0,0,0-4.08-2.21,35.27,35.27,0,0,0-3.56-1.44l-1-.31-.84-.25a39.4,39.4,0,0,0-4.06-.91c-.6-.09-1.21-.17-1.83-.23-.82-.09-1.66-.15-2.51-.19l-1.12,0h-1.12c-.74,0-1.49,0-2.2.08a1,1,0,0,1-.28,0L241,246c-.94.09-1.87.22-2.8.36l-.37.06c-.54.13-1,.21-1.58.31a4.56,4.56,0,0,1-.64.14c-.7.18-1.41.36-2.11.57s-1.39.43-2.08.66l-1.05.34-1,.4-1,.42-1,.44a65,65,0,0,0-13.5,8.15l-1.25,1c-.82.66-1.63,1.33-2.42,2q-1.8,1.55-3.49,3.18-.72.69-1.41,1.41c-.47.47-.92.94-1.38,1.41l-.93.94c-.3.31-.6.63-.89.95-.58.63-1.14,1.26-1.69,1.9l-.06.07c-.19.21-.37.43-.54.63h0a.69.69,0,0,0-.13.11l-.07.09a.79.79,0,0,0-.21.27h0l-.22.25h0c-.65.75-1.27,1.46-1.83,2.19s-1.29,1.57-1.9,2.35-1.25,1.61-1.79,2.4c-.41.5-.77,1-1.12,1.49l-.34.49-.49.66-.19.28c-.4.57-.77,1.13-1.14,1.66l-.08-.08-.08-.07-.16-.15h0l-.39-.39-.39-.36-.34-.34a2.42,2.42,0,0,0-.33-.31l0,0-.78-.11h0l-1.68-.23-2.67-.37h-1c-1.39,0-2.75-.08-4.1-.18-.7-.06-1.4-.12-2.1-.2h0l-1.88-.23c-1-.13-2-.28-3-.43l-1.39-.25-.15,0c-.83-.16-1.67-.33-2.5-.52s-1.73-.38-2.57-.62a.59.59,0,0,1-.21-.05h0l-.31-.08c-1.4-.37-2.79-.78-4.15-1.22h0l-.89-.29h0l-1.53-.53c-.33-.1-.67-.23-1-.36l-.09,0c-1.53-.57-3-1.17-4.46-1.83l-.16-.08h0c-1.11-.49-2.19-1-3.28-1.54-.66-.32-1.31-.65-1.92-1-.24-.12-.48-.25-.71-.39a2.58,2.58,0,0,1-.37-.19c-.58-.31-1.16-.64-1.73-1l-.26-.12c-.64-.37-1.29-.76-1.9-1.14a15.7,15.7,0,0,1-1.39-.85l-.75-.46c-.5-.31-1-.64-1.48-1l-.73-.49a95.57,95.57,0,0,1-9.33-7.1c-.31-.26-.61-.54-.9-.8-.44-.38-.88-.79-1.31-1.18h0v0l-1.44-1.34c-.48-.44-.94-.88-1.41-1.34s-.95-1-1.42-1.45-.93-.95-1.36-1.43l-1.6-1.73L117,248.2l-.67-.78q-1-1.15-1.89-2.28l-1.17-1.49c-.37-.47-.72-1-1.07-1.41q-1.55-2.1-2.79-4c-.61-.93-1.16-1.82-1.64-2.66-.31-.52-.59-1-.84-1.51a.09.09,0,0,1,0-.06l-.28-.5s.06,0,.08,0l.17-.07h0a3.44,3.44,0,0,0,.37-.14,42,42,0,0,0,6.71-3.66c.79-.5,1.59-1,2.36-1.53l1.52-1c3.73-2.55,6.73-4.86,6.73-4.86a7.09,7.09,0,0,1-1.4-.15l-.25-.05a22.7,22.7,0,0,1-4.25-1.37,38,38,0,0,1-5-2.58l0,0h0c.24-.08.5-.18.76-.29h0l.35-.15h0a16.08,16.08,0,0,0,1.6-.81s0,0,.05,0l0,0,0,0a49,49,0,0,0,5.61-3.78.53.53,0,0,1,.15-.11l0,0,.91-.69v0l.52-.4c.26-.21.53-.41.79-.63l.72-.6c1-.83,2-1.68,3-2.54.05-.05.09-.11.15-.13s.29-.27.44-.39,0,0,.05,0c.62-.57,1.23-1.1,1.82-1.66h0c0-.1-.08-.2-.13-.33s-.14-.37-.23-.59c0,0,0-.08,0-.12l-.15-.4c-.1-.29-.22-.59-.34-.91-.89-2.42-2.13-6-3.42-10.08-1-3.3-2.07-7-3-10.77,0-.1,0-.19-.07-.29l-.45-2-.33-1.57c-.44-2.14-.81-4.29-1.1-6.38-.1-.7-.18-1.38-.25-2s-.13-1.33-.17-2c-.11-1.19-.16-2.33-.16-3.44,0-.19,0-.37,0-.55a28.43,28.43,0,0,1,.38-4.76c0-.26.09-.51.14-.76a.06.06,0,0,1,0,0,15.13,15.13,0,0,1,1.07-3.39,13,13,0,0,1,.64-1.17,9,9,0,0,1,1.09-1.48l.42-.42a7.28,7.28,0,0,1,2-1.34,13.59,13.59,0,0,1,3.51-1h0q.61-.09,1.26-.15c.59-.05,1.19-.08,1.8-.08h.29a33.39,33.39,0,0,1,5.53.59l.16,0,.13,0c.77.14,1.55.31,2.34.5,1.65.4,3.34.89,5.05,1.45l.13,0,.39.13c1.56.53,3.14,1.11,4.7,1.73l.67.27.33.14,1.44.62c2.07.88,4.12,1.8,6.08,2.76l1.7.85c1.84.89,3.58,1.81,5.2,2.69l.26.15.64.35.25.14.42.22h0s0,0,0,0h0c.29-.26.58-.52.88-.77,1.14-1,2.33-1.92,3.54-2.79l0,0,1.14-.81c1.28-.89,2.6-1.72,3.94-2.5.89-.52,1.8-1,2.71-1.5s1.84-.93,2.77-1.38h0c2.32-1.1,4.7-2.07,7.08-2.94q2.87-1,5.72-1.87l.38-.12h0a121.92,121.92,0,0,1,15.28-3.33l.69-.11.17,0,.94-.13a.69.69,0,0,1,.2,0l1.18-.17.73-.09,2.59-.29.4-.05.74-.08.74-.07.62,0,.41,0,.38,0,1.32-.1,1.24-.07.44,0h.54l.42,0,1.09-.06,1.27,0h.13c1.11,0,1.91-.06,2.31-.06h2.12l1,0,.73,0H235l1.45.07,1.08.06q1.47.09,3.21.24l1,.1c.76.07,1.55.14,2.37.23l1.4.16,1.15.15,1.11.14c.69.09,1.4.2,2.13.31,2,.3,4.09.67,6.25,1.12,1.52.28,3.07.64,4.64,1a.12.12,0,0,1,.08,0c.62.14,1.24.31,1.85.47,1.11.28,2.24.59,3.38,1,.66.19,1.32.4,2,.61l.18.06c2.19.69,4.37,1.46,6.53,2.37l.08,0,.07,0h0c1.57.64,3.09,1.34,4.61,2.09.4.18.79.37,1.18.57l1.16.61q2.33,1.23,4.54,2.65c.41.26.83.53,1.24.81q1.21.82,2.4,1.71c.29.22.59.44.87.68l0,0h0l.27.21h0c.82-.49,1.68-1,2.56-1.5l1.48-.85c1.21-.68,2.45-1.35,3.71-2l.07,0,.7-.35,1.14-.57.17-.08.14-.06.84-.41c.78-.37,1.56-.72,2.33-1s1.55-.65,2.32-1h0c.77-.3,1.54-.58,2.3-.84a39.49,39.49,0,0,1,4.51-1.28,1,1,0,0,1,.25-.06,25.88,25.88,0,0,1,4.78-.59h.25l.78,0h.08l.69,0a14,14,0,0,1,2.5.5h0l.14,0a9.79,9.79,0,0,1,1.46.61,6.48,6.48,0,0,1,1.74,1.34,8,8,0,0,1,1.3,1.9,12.42,12.42,0,0,1,.55,1.16,16.75,16.75,0,0,1,.94,3.44l.12.76c.11.73.19,1.49.25,2.29s.09,1.62.09,2.47v.67c0,.52,0,1,0,1.58,0,.33,0,.67-.06,1s0,.49,0,.74c-.06,1.31-.2,2.65-.35,4a43.6,43.6,0,0,1-1.06,5.13c-.2.79-.43,1.64-.7,2.54s-.56,1.86-.9,2.85a65.79,65.79,0,0,1-8.85,17.7s0,0,0,0a.09.09,0,0,1,0,0l-.39.53-1.22.12h-.05c.34.58.74,1.24,1.19,2h0c.08.11.15.23.23.36.3.45.61.93.95,1.42.16.24.33.48.51.73a44.83,44.83,0,0,0,7.29,8.11l.64.54c.44.37.88.72,1.34,1,.22.17.46.33.69.5.47.32.94.63,1.43.93l.65.38a.59.59,0,0,0,.17.1l.65.36.78.4h0l0,0h0l-.26.15-.27.16c-.15.09-.31.17-.47.25l-.44.26a36.57,36.57,0,0,1-4.69,2.19h0a19.65,19.65,0,0,1-2.73.84,8.64,8.64,0,0,1-2,.28l.49.38c.14.09.31.22.51.37l.22.17,0,0,.16.12.58.43c.46.34,1,.72,1.56,1.13l.06,0h0c1.66,1.2,3.74,2.67,5.87,4.07l.55.35.09.06h.05c.53.34,1.06.67,1.58,1s1,.61,1.53.89l0,0a35.38,35.38,0,0,0,3.18,1.66l.21.09.11.05.59.24.15.06h0l.26.1h0Z" />
      <path class="BUNTAI_RED_PANDA_BODY_BUNTAI_RED_PANDA_BODY_29_cls-3" d="M247.57,286.21l-.25-.12h0c-4.84,2.49-9.93,1.88-12.89-.18a11.43,11.43,0,0,1-2.32-2.12l-.26-.3a9.15,9.15,0,0,1-.69-1,8.85,8.85,0,0,1-.75-1.39,11.62,11.62,0,0,1-1-3.22,8.46,8.46,0,0,1-.1-.88,8.34,8.34,0,0,1,.2-2.8v0c.08-.2.13-.41.21-.62v0a4.8,4.8,0,0,1,.64-1.42c4-6.33,15-9.14,15-9.14h0s13,2.81,17,9.14a4.58,4.58,0,0,1,.65,1.42c1.08,3.09.07,7.23-2.42,10.24a11.7,11.7,0,0,1-2.32,2.12C255.33,287.93,252.27,288.56,247.57,286.21Z" />
      <path class="BUNTAI_RED_PANDA_BODY_BUNTAI_RED_PANDA_BODY_29_cls-4" d="M286.73,279.8l-.34-.05h-.11l-.08-.17,0-.07h0l0-.07c-.27-.64-.54-1.28-.84-2-.57-1.26-1.21-2.58-1.9-3.94-.28-.54-.56-1.09-.87-1.64,0,0,0,0,0-.05a.41.41,0,0,1-.05-.09c-.24-.44-.49-.87-.74-1.31s-.4-.7-.61-1.05a1,1,0,0,0-.15-.26l0-.07a.23.23,0,0,0-.07-.07,43.7,43.7,0,0,0-2.57-4l-.43-.62-.45-.62-.49-.65c-.4-.54-.82-1.08-1.24-1.6-.55-.67-1.12-1.34-1.72-2s-1.14-1.27-1.75-1.89l-1.25-1.22-.26-.24-.1-.09-.53-.48c-.41-.37-.83-.73-1.26-1.07q-.27-.24-.54-.45c-.46-.36-.95-.72-1.44-1.09-.73-.53-1.48-1-2.26-1.53a38,38,0,0,0-4.08-2.21,35.27,35.27,0,0,0-3.56-1.44l-1-.31-.84-.25a39.4,39.4,0,0,0-4.06-.91c-.6-.09-1.21-.17-1.83-.23-.82-.09-1.66-.15-2.51-.19l-1.12,0h-1.12c-.74,0-1.49,0-2.2.08a1,1,0,0,1-.28,0L241,246c-.94.09-1.87.22-2.8.36l-.37.06c-.54.13-1,.21-1.58.31a4.56,4.56,0,0,1-.64.14c-.7.18-1.41.36-2.11.57s-1.39.43-2.08.66l-1.05.34-1,.4-1,.42-1,.44a65,65,0,0,0-13.5,8.15l-1.25,1c-.82.67-1.63,1.34-2.42,2q-1.8,1.55-3.49,3.18-.72.69-1.41,1.41c-.47.47-.92.94-1.38,1.41l-.93.94c-.3.31-.6.63-.89.95-.58.63-1.14,1.26-1.69,1.9l-.06.07c-.19.21-.37.43-.54.63h0a.69.69,0,0,0-.13.11l-.07.09a.79.79,0,0,0-.21.27h0l-.22.25h0c-.65.75-1.27,1.46-1.83,2.19s-1.29,1.57-1.9,2.35-1.25,1.61-1.79,2.4c-.41.5-.77,1-1.12,1.49l-.34.49-.49.66-.19.28c-.4.57-.77,1.13-1.14,1.66l.5.5h0a.1.1,0,0,1,0,.05c.3.29.59.57.88.87h0l.61.62.62.62h0c.89.9,1.76,1.8,2.6,2.68l.23.23h0c.23.26.47.51.71.77l.47.52c.07.08.13.14.19.22l.2.21.87.93c.15.17.31.34.45.52l.09.1c.35.39.68.79,1,1.16l.06.06a.18.18,0,0,1,.05.07c.22.24.43.49.63.73l.52.63a5.87,5.87,0,0,0,.65.7h0a2.38,2.38,0,0,0,.35.36,3.07,3.07,0,0,0,.35.28h0l.05,0s0,0,.05,0h0l0,.05a16.87,16.87,0,0,0,1.76,1.21.19.19,0,0,0,.1.05,20,20,0,0,0,2.4,1.23.47.47,0,0,0,.15.06l.71.31a.3.3,0,0,0,.21.07,35,35,0,0,0,3.71,1.29c.13,0,.23.08.37.1,1.81.52,3.73,1,5.65,1.37l.12,0h.06l.27.05a135.21,135.21,0,0,0,16.05,2h0l.36,0h.08l.88.06c.23,0,.42,0,.6,0,.34,0,.58,0,.69,0h.05v0l.74,0h0l2.09-.12.39,0,1.75-.13.66-.06h0c2.08-.19,4.59-.45,7.27-.84,2.44-.32,5-.76,7.56-1.31l.07,0,1.22-.28h0c.5-.11,1-.23,1.48-.36l.06,0,.78-.21h0l.17-.05.92-.26.77-.23.58-.19a32.59,32.59,0,0,0,4.44-1.78l.53-.29.53-.3.1-.06a5.51,5.51,0,0,0,.58-.34l.06,0,.22-.14c.37-.22.74-.48,1.06-.71a.42.42,0,0,1,.18-.16,8.67,8.67,0,0,0,1-1,.26.26,0,0,1,.09,0l.28-.36,0-.05.14-.17c.36-.44.84-1,1.42-1.61a.36.36,0,0,0,.08-.09h0c.55-.6,1.15-1.26,1.81-2l.54-.56c.32-.33.65-.68,1-1,1.66-1.72,3.52-3.6,5.36-5.43l.12-.13h0l2.24-2.2.51-.5,0-.05.1-.1.08-.08,0,0,.12-.11.28-.27.13-.13h0c0-.07.07-.35.17-.77Zm-30.6,7.28a7.86,7.86,0,0,1-3.74.62,10.2,10.2,0,0,1-1-.15,10.52,10.52,0,0,1-1.66-.44c-.43-.15-.87-.33-1.34-.53l-.77-.37h0a1.66,1.66,0,0,1-.24-.11h0c-.17.09-.33.17-.5.24a13.54,13.54,0,0,1-10,.76s0,0,0,0a9.17,9.17,0,0,1-2.39-1.17,10.54,10.54,0,0,1-1.79-1.54c-.18-.19-.35-.38-.52-.58l-.13-.15-.08-.09-.05-.06a3.27,3.27,0,0,1-.28-.37,1,1,0,0,1-.08-.11h0c-.11-.16-.22-.32-.32-.49h0a8,8,0,0,1-.69-1.29.47.47,0,0,1-.05-.1c-.13-.26-.25-.52-.35-.78l-.09-.23a2,2,0,0,1-.12-.34l0-.1s0,0,0,0a3,3,0,0,1-.15-.48,2.6,2.6,0,0,1-.1-.4l0-.11c-.06-.23-.1-.45-.14-.68a.3.3,0,0,0,0-.1c0-.13,0-.26-.05-.38l0-.3a.76.76,0,0,1,0-.15c0-.1,0-.21,0-.31a.49.49,0,0,1,0-.12c0-.21,0-.42,0-.63s0-.32,0-.48a.21.21,0,0,1,0-.11c0-.13,0-.26.05-.39a3,3,0,0,1,.09-.52,2,2,0,0,1,0-.24v0a2.81,2.81,0,0,0,.1-.31,2.47,2.47,0,0,0,.1-.29h0v0a4.53,4.53,0,0,1,.44-1.09s0,0,0,0,.13-.21.2-.32a13.47,13.47,0,0,1,.82-1.16l0,0,.18-.2c2.34-2.74,5.94-4.71,8.9-6,1.22-.52,2.33-.93,3.19-1.21l.08,0c1.09-.36,1.78-.54,1.78-.54h0l.46.1c1.78.44,8.23,2.16,12.83,5.36l.2.15c.22.15.43.31.63.47l.44.35.12.1.45.4c.38.35.73.72,1.07,1.1a12.07,12.07,0,0,1,.81,1.11,5.09,5.09,0,0,1,.38.68,4.22,4.22,0,0,1,.27.73h0a8.05,8.05,0,0,1,.43,2.57,11.07,11.07,0,0,1-.58,3.54l-.16.48h0l-.18.48-.15.33-.15.3c-.12.26-.26.52-.41.78a13,13,0,0,1-1.21,1.75c-.17.2-.35.4-.53.58a11.09,11.09,0,0,1-1.8,1.54,11.21,11.21,0,0,1-2.07,1.16Z" />
      <path class="BUNTAI_RED_PANDA_BODY_BUNTAI_RED_PANDA_BODY_29_cls-5" d="M237.45,142.8s-.08-.05-.11-.08l-.61-.54c-.43-.38-.88-.79-1.36-1.24l-.73-.69c-.33-.33-.69-.67-1.06-1.05-.66-.67-1.41-1.42-2.16-2.22-.31-.31-.62-.64-.92-1-1-1.08-2-2.27-3.09-3.55-.29-.34-.57-.67-.85-1s-.7-.85-1.06-1.32-.69-.9-1.06-1.36-.69-.93-1.05-1.42l-1.24-1.7c-.23-.33-.46-.67-.72-1l-.54-.77c-.1-.16-.2-.32-.31-.48l-.31-.47c-1-1.52-2.06-3.14-3.09-4.84v0l0,0,0,0a0,0,0,0,1,0,0h0a.31.31,0,0,0-.05-.1h0C194.69,114.2,189.9,133,189.9,133h0s1.08,2.39,2.76,5.81c.67,1.37,1.44,2.91,2.26,4.51.05.1.11.18.16.28.33.65.67,1.29,1,2l.47.82c.07.16.15.31.23.47s.27.48.4.73h0a128.11,128.11,0,0,1,22.17-4.22c2-.21,3.86-.36,5.45-.44.29,0,.6,0,.85,0h.13c1.08-.08,2-.11,2.78-.13h.13c1.68-.08,2.63,0,2.63,0h0c.35,0,2.59,0,6.14.2Z" />
      <path class="BUNTAI_RED_PANDA_BODY_BUNTAI_RED_PANDA_BODY_29_cls-6" d="M198.16,82.86c4.58-.62,8-.41,10.63.7,0,0,.08,0,.1,0a9.26,9.26,0,0,1,4,3.37s.05.11.08.13a16.05,16.05,0,0,1,2.13,5.1c.18.62.34,1.29.49,2s.18,1.08.26,1.64a1.27,1.27,0,0,1,.08.44,118.82,118.82,0,0,1,1,14.24c0,1,0,2.08.05,3.19,0,.17,0,.34,0,.52s0,.36,0,.54c0,.72,0,1.46,0,2.24v.82h0C194.69,114.2,189.9,133,189.9,133h0s-.2-.06-.56-.13c0,0,0,0-.06,0h0c-3.94-1.05-24.67-7-27.4-17.09a4.94,4.94,0,0,1-.12-.65.08.08,0,0,1,0-.08c-.62-3.54,1.12-7.85,4.31-12.14l0,0v0a50.23,50.23,0,0,1,8.54-8.7h0a61.35,61.35,0,0,1,5.12-3.76.81.81,0,0,0,.18-.1c1.36-.88,2.78-1.73,4.19-2.48h0a46.42,46.42,0,0,1,10.45-4.17,1.21,1.21,0,0,0,.18,0h0c.83-.2,1.62-.38,2.42-.49C197.49,83,197.82,82.91,198.16,82.86Z" />
      <g class="BUNTAI_RED_PANDA_BODY_BUNTAI_RED_PANDA_BODY_29_cls-7">
        <path d="M140,185.21a31.41,31.41,0,0,0,2.68,10s8.92-9.37,17.73-11.61c-8.34-8.34-12.72-17.32-15.87-19.65s-8.7-4-8.7-4,4.16,7.18,4.93,13.84c-3.84-2.9-6.14-3.11-6.14-3.11S139.22,178.81,140,185.21Z" />
        <path class="BUNTAI_RED_PANDA_BODY_BUNTAI_RED_PANDA_BODY_29_cls-8" d="M187.78,281.86h-.52A80.16,80.16,0,0,1,166,279c-2-.51-4-1.13-6.07-1.8-1.76-.6-3.56-1.25-5.35-2h0c-2.86-1.12-5.74-2.37-8.65-3.82a1.66,1.66,0,0,1-.27-.13c-1.49-.71-3-1.5-4.54-2.35-.82-.42-1.63-.87-2.47-1.34s-1.61-.92-2.42-1.4A.63.63,0,0,1,136,266c-1.14-.66-2.28-1.37-3.42-2.09a66.78,66.78,0,0,1-22.66-24.1c-.05-.08-.1-.18-.16-.27a6.36,6.36,0,0,1-.32-.64,43.41,43.41,0,0,1-2.32-5,.12.12,0,0,1,0-.06c-.11-.24-.17-.43-.22-.56l-.08-.24s3.91-2,8.13-4.65v0a48,48,0,0,0,7.37-5.47.27.27,0,0,0,.16-.17,9.19,9.19,0,0,0,1.11-1.18,2.56,2.56,0,0,0,.28-.3l-1.25-.45c-.41-.13-.79-.28-1.15-.41-.73-.26-1.38-.52-2-.73-.79-.31-1.47-.6-2-.86a8,8,0,0,1-.76-.35,18.25,18.25,0,0,1-1.94-1l-.24-.15c-.33-.24-.35-.35-.35-.35h0l0,0c.35-.22,2.67-1.53,5.6-3.39,0,0,.06,0,.08-.06l3.27-2.1a.62.62,0,0,1,.19-.14c.27-.2.57-.39.84-.56v0a62.24,62.24,0,0,0,8.57-6.8c-1.28,1.7-3.05,4-4.82,6.2-2.2,2.85-4.38,5.54-5.38,6.55,9.38,3.22,20.58-10.55,21.37-11.51-.41.87-7.12,14.9-13.49,19,9.55,2.32,13.3-4.3,17.13-7.8,3.24-2.92-7.26,15.78-7.26,15.78l14.52.62a.75.75,0,0,1,.3,0s0,0,.06,0h0l0,0,0,0h.08v0a23.12,23.12,0,0,0,6.09,14.92l0,0a20.72,20.72,0,0,0,2.26,2.08,25.16,25.16,0,0,0,7.31,4v0c1,8.14,2.86,14,6.74,19.06v0l.09.08a39,39,0,0,0,8.07,7.57c.06,0,.08.08.14.11C186.61,281,187.18,281.46,187.78,281.86Z" />
        <path d="M289.7,160l-.23.16-.87.54-.2.13-.69.42c-.3.2-.61.4-.89.56a1.74,1.74,0,0,1-.3.2l-.38.22s-4.63-3.19-24-10.72c-.59-.24-1.2-.5-1.83-.73a44.8,44.8,0,0,0-5.14-1.63c-19.5-5.21-47.54-2.34-47.54-2.34a143.4,143.4,0,0,1,28.35,3c-34.76-.6-63.67,13.53-64.79,14.09a.05.05,0,0,1-.07,0,.45.45,0,0,1-.31-.18l-.07-.08a6.55,6.55,0,0,1-1.05-1.91l.61-.39c.46-.31,1-.64,1.66-1l1-.61c.41-.25.84-.51,1.3-.76,2-1.15,4.5-2.47,7.47-3.86,1.15-.56,2.29-1,3.46-1.55s2.06-.91,3.15-1.34,2.32-.94,3.49-1.34q2.94-1.06,6.15-2.07a117.74,117.74,0,0,1,44-4.29c.74.07,1.45.14,2.16.23s1.53.16,2.29.25c3.53.45,6.92,1,10.07,1.73,2.57.58,5,1.21,7.3,1.87,3.68,1,7,2.22,10,3.38,1,.42,1.93.78,2.85,1.17,1.5.64,2.85,1.24,4.09,1.84.36.16.71.34,1.07.52a3.38,3.38,0,0,1,.46.24,2,2,0,0,1,.4.18s0,0,.06,0a.07.07,0,0,1,.07,0c.31.18.61.34.92.49.53.27,1,.55,1.47.79,1.48.84,2.62,1.52,3.38,2l.56.37s.05,0,.08,0l.33.24A.46.46,0,0,1,289.7,160Z" />
        <path class="BUNTAI_RED_PANDA_BODY_BUNTAI_RED_PANDA_BODY_29_cls-8" d="M339,233.35s-5.55,11.24-12.44,17.05S306,268.8,306,268.8L294.18,276l-.44.21a48.85,48.85,0,0,1-8.11,5.67h-.34c.37-.4.74-.83,1.1-1.23,0,0,.05-.08.09-.1,3-8.83,9.49-17,8.7-26.74v0a15.35,15.35,0,0,0,4.69-4,16.55,16.55,0,0,0,1.41-2.08l0,0c3.73-6.41,3.4-14.32,3.38-14.92v0h.06l0,0v0h0s0,0,0,0a.65.65,0,0,1,.2,0l9.65-.63s-5.48-12.16-2.37-10.12,4.85,2.6,8.58,2.14c-4.42-4.05-5.06-11.69-5.37-12.57.57,1,8,7.15,10.29,5.14-.48-.69-1.35-2.13-2.37-3.87l6.8,4.59.23.64-.65.48a4,4,0,0,1-.5.34c-.37.27-.8.55-1.31.87l-1.28.73-.59.34-4.26,1.8,9.69,6.76,1.31.37c1.08.91,2.06,1.7,2.79,2.3Z" />
        <path class="BUNTAI_RED_PANDA_BODY_BUNTAI_RED_PANDA_BODY_29_cls-8" d="M263,273.54s-14.18,9.28-33.22,0c-13.22,5.79-25.94,2.21-31-1.66-6.57,7.39-8.11,11.75-8.11,11.75s8.89,8.9,11,12,11.9,6.14,23.15,8.2,27.45-.06,33.66-2A107.67,107.67,0,0,0,270.82,297l12.23-12.92,3.12-4.58-3.64-7.61S273,278.11,263,273.54Z" />
      </g>
      <g class="BUNTAI_RED_PANDA_BODY_BUNTAI_RED_PANDA_BODY_29_cls-9">
        <path class="BUNTAI_RED_PANDA_BODY_BUNTAI_RED_PANDA_BODY_29_cls-4" d="M210.33,117.37s7.32,13.18,10.56,18.73,5.63,6.91,5.63,6.91l10.08-.35s-15.25-14.74-19.48-24.75A62.86,62.86,0,0,0,210.33,117.37Z" />
        <path class="BUNTAI_RED_PANDA_BODY_BUNTAI_RED_PANDA_BODY_29_cls-4" d="M190.84,85c.39,0,4.1.16,10.15,6.41,5.69,5.9,7.44,21.94,7.75,25.41,0,.44,0,.67,0,.67l0,0h0l2,.75L217,120.6l0-2.7V117c0-.77,0-1.51,0-2.24v-2a77.63,77.63,0,0,0-.88-15.29.75.75,0,0,0,0-.21c-.06-.33-.11-.64-.18-1a1.23,1.23,0,0,0-.08-.44,34.23,34.23,0,0,0-2.16-7.18c-.24-.52-.47-1-.72-1.52a.41.41,0,0,1-.08-.13,8.71,8.71,0,0,0-6.34-4.35,1.81,1.81,0,0,0-.43-.1,21.91,21.91,0,0,0-8,.33c-.33,0-.66.1-1,.18-.8.15-1.54.36-2.24.54h0c-1.11.31-2.06.64-2.76.88-.23.1-.44.15-.62.23Z" />
      </g>
      <g class="BUNTAI_RED_PANDA_BODY_BUNTAI_RED_PANDA_BODY_29_cls-9">
        <path class="BUNTAI_RED_PANDA_BODY_BUNTAI_RED_PANDA_BODY_29_cls-4" d="M179.83,167.9s-45.43-20.41-57-9.87c3.29-7.43,6.8-9.61,15.72-7.88S166.82,157.87,179.83,167.9Z" />
        <path class="BUNTAI_RED_PANDA_BODY_BUNTAI_RED_PANDA_BODY_29_cls-4" d="M138.72,198.55s5.46-1.72,7-1.52-7.17,9.18-12.33,11.87-7.91,2.38-7.91,2.38S136.9,202.91,138.72,198.55Z" />
        <path class="BUNTAI_RED_PANDA_BODY_BUNTAI_RED_PANDA_BODY_29_cls-4" d="M279.8,167.9s39.14-20.41,49.1-9.87c-2.84-7.43-5.86-9.61-13.55-7.88S291,157.87,279.8,167.9Z" />
        <path class="BUNTAI_RED_PANDA_BODY_BUNTAI_RED_PANDA_BODY_29_cls-4" d="M316.84,202.5l.75,3.57c-4.61-3.67-9.35-8.89-8.19-9,1.5-.2,5.23,1.29,5.23,1.29A11.17,11.17,0,0,0,316.84,202.5Z" />
        <path class="BUNTAI_RED_PANDA_BODY_BUNTAI_RED_PANDA_BODY_29_cls-4" d="M261.68,271.09s-11.52-4.78-14.1-5.47c-5.76.92-18,8.5-17.51,6.6s13.29-10.21,16.29-9.63a28.24,28.24,0,0,1,5.12,1.81S258.2,267.3,261.68,271.09Z" />
        <g class="BUNTAI_RED_PANDA_BODY_BUNTAI_RED_PANDA_BODY_29_cls-9">
          <path class="BUNTAI_RED_PANDA_BODY_BUNTAI_RED_PANDA_BODY_29_cls-4" d="M292.77,162.21l-1,.67a5.27,5.27,0,0,0-.49-.3,2,2,0,0,0-.26-.16,7,7,0,0,0-.7-.43c-.64-.38-1.52-.89-2.58-1.46a.25.25,0,0,0-.13-.05c-.65-.35-1.37-.73-2.15-1.11a.1.1,0,0,0-.07,0s0-.06-.06-.06a3,3,0,0,0-.41-.19,5.06,5.06,0,0,0-.46-.24c-.37-.19-.73-.38-1.09-.54-1.27-.62-2.64-1.24-4.16-1.91-.93-.41-1.89-.79-2.9-1.22-3-1.16-6.41-2.37-10.19-3.48-2.32-.7-4.8-1.37-7.42-2a117.36,117.36,0,0,0-12.51-2.32c-.72-.11-1.45-.19-2.2-.27-3.72-.44-7.62-.73-11.68-.84a111.46,111.46,0,0,0-33.07,4.26c-2.17.62-4.27,1.27-6.26,1.94-1.19.38-2.38.84-3.54,1.27s-2.17.84-3.21,1.27c-1.19.48-2.35.94-3.51,1.48-3,1.32-5.56,2.59-7.6,3.7q-.71.36-1.32.72c-.37.22-.73.41-1,.6-.64.35-1.21.67-1.68,1-.23.13-.44.27-.62.38a11.58,11.58,0,0,0-1,.62c.11-.27,1.09-2.4,4.48-5.26,3.74-3.18,10.47-7.26,22.31-10.68.15-.06.28-.08.41-.14a117.13,117.13,0,0,1,21.72-3.93c3.08-.3,6.1-.44,9.08-.49,1.57,0,3.12,0,4.68,0h0c1.16,0,2.3.05,3.44.11a118.77,118.77,0,0,1,24.59,3.5h0c.06,0,.11,0,.16.06a68,68,0,0,1,7.26,2.34,141,141,0,0,1,25,13A1,1,0,0,1,292.77,162.21Z" />
        </g>
      </g>
      <path class="BUNTAI_RED_PANDA_BODY_BUNTAI_RED_PANDA_BODY_29_cls-10" d="M194.71,83.53a1.21,1.21,0,0,1-.18,0,46.42,46.42,0,0,0-10.45,4.17h0c-1.41.75-2.83,1.6-4.19,2.48a.81.81,0,0,1-.18.1,61.35,61.35,0,0,0-5.12,3.76h0a50.23,50.23,0,0,0-8.54,8.7v0l0,0c-3.19,4.29-4.93,8.6-4.31,12.14a.08.08,0,0,0,0,.08,4.94,4.94,0,0,0,.12.65c2.73,10,23.46,16,27.4,17.09h0s0,0,.06,0c.36.07.56.13.56.13s1.08,2.39,2.76,5.81c.67,1.37,1.44,2.91,2.26,4.51.05.1.11.18.16.28.33.65.67,1.29,1,2l.47.82c.07.16.15.31.23.47s.27.48.4.73" />
      <path class="BUNTAI_RED_PANDA_BODY_BUNTAI_RED_PANDA_BODY_29_cls-10" d="M237.5,142.85l-.05,0s-.08-.05-.11-.08l-.61-.54c-.43-.38-.88-.79-1.36-1.24l-.73-.69c-.33-.33-.69-.67-1.06-1.05-.66-.67-1.41-1.42-2.16-2.22-.31-.31-.62-.64-.92-1-1-1.08-2-2.27-3.09-3.55-.29-.34-.57-.67-.85-1s-.7-.85-1.06-1.32-.69-.9-1.06-1.36-.69-.93-1.05-1.42l-1.24-1.7c-.23-.33-.46-.67-.72-1l-.54-.77c-.1-.16-.2-.32-.31-.48l-.31-.47c-1-1.52-2.06-3.14-3.09-4.84v0l0,0,0,0a0,0,0,0,1,0,0h0a.31.31,0,0,0-.05-.1V117c0-.78,0-1.52,0-2.24,0-.18,0-.36,0-.54s0-.35,0-.52c0-1.11,0-2.16-.05-3.19a118.82,118.82,0,0,0-1-14.24,1.27,1.27,0,0,0-.08-.44c-.08-.56-.15-1.1-.26-1.64s-.31-1.34-.49-2a16.05,16.05,0,0,0-2.13-5.1s-.05-.08-.08-.13a9.26,9.26,0,0,0-4-3.37s-.07,0-.1,0c-2.6-1.11-6-1.32-10.63-.7-.34,0-.67.11-1,.18-.8.11-1.59.29-2.42.49" />
      <path class="BUNTAI_RED_PANDA_BODY_BUNTAI_RED_PANDA_BODY_29_cls-10" d="M217,117.8C194.69,114.2,189.9,133,189.9,133" />
      <path class="BUNTAI_RED_PANDA_BODY_BUNTAI_RED_PANDA_BODY_29_cls-10" d="M220.9,123.8h0c-9.12,1.78-22.24,5.84-28.24,15" />
      <path class="BUNTAI_RED_PANDA_BODY_BUNTAI_RED_PANDA_BODY_29_cls-10" d="M195.07,143.57l.8-.64c5.72-4.58,16.4-12.23,27.52-15.63" />
      <path class="BUNTAI_RED_PANDA_BODY_BUNTAI_RED_PANDA_BODY_29_cls-10" d="M231.43,137h0c-9.86.36-23.94,1.67-35.55,6-.31.13-.64.26-1,.36" />
      <path class="BUNTAI_RED_PANDA_BODY_BUNTAI_RED_PANDA_BODY_29_cls-10" d="M208.79,108.35s.31-5.4-2.11-13.64c-2.19-7.5-10.33-10.61-11.77-11.13h0l-.16,0h0" />
      <path class="BUNTAI_RED_PANDA_BODY_BUNTAI_RED_PANDA_BODY_29_cls-10" d="M191.55,105.65a73.29,73.29,0,0,1-7.47-17.9" />
      <path class="BUNTAI_RED_PANDA_BODY_BUNTAI_RED_PANDA_BODY_29_cls-10" d="M174.58,94.09s-3.27,17.27,13.23,28.37" />
      <path class="BUNTAI_RED_PANDA_BODY_BUNTAI_RED_PANDA_BODY_29_cls-10" d="M166,102.79v0s0,0,0,0c-.27,1.11-2.14,10.15,7,17.76" />
      <path class="BUNTAI_RED_PANDA_BODY_BUNTAI_RED_PANDA_BODY_29_cls-10" d="M190.28,283.64c.58-.83,1.15-1.72,1.82-2.6.45-.64.92-1.31,1.46-2s1.16-1.58,1.79-2.4,1.23-1.56,1.9-2.34,1.32-1.61,2.06-2.45a.64.64,0,0,1,.21-.27.64.64,0,0,1,.2-.21c.18-.23.39-.47.6-.71,1.1-1.27,2.25-2.53,3.51-3.79.91-.93,1.83-1.9,2.8-2.82a72.41,72.41,0,0,1,20.65-14.34c.68-.31,1.36-.58,2.07-.86s1.38-.53,2.09-.74c1.39-.47,2.79-.88,4.19-1.23a4.56,4.56,0,0,0,.64-.14c.55-.1,1-.18,1.59-.31.13,0,.23,0,.36-.06,1.25-.19,2.48-.35,3.75-.44a1,1,0,0,0,.28,0c.72,0,1.46-.06,2.21-.08s1.47,0,2.23,0a43.12,43.12,0,0,1,4.34.42,38.89,38.89,0,0,1,5.88,1.47,37.46,37.46,0,0,1,3.57,1.44,38.2,38.2,0,0,1,6.33,3.74l1.45,1.09c.8.65,1.58,1.31,2.33,2l.35.33a54.94,54.94,0,0,1,4.72,5.1c.6.73,1.18,1.5,1.73,2.25.3.41.6.83.88,1.24a43.7,43.7,0,0,1,2.57,4,.3.3,0,0,1,.12.14,1,1,0,0,1,.15.26,78.76,78.76,0,0,1,4.19,8.09c.31.7.59,1.36.87,2l.11.24" />
      <path class="BUNTAI_RED_PANDA_BODY_BUNTAI_RED_PANDA_BODY_29_cls-10" d="M231.34,142.65s-1,0-2.63,0h-.13c-.77,0-1.7.05-2.78.13h-.13c-.25,0-.56,0-.85,0-1.59.08-3.42.23-5.45.44a128.11,128.11,0,0,0-22.17,4.22h0l-.38.12a78,78,0,0,0-22.22,10.19,54,54,0,0,0-5.62,4.41" />
      <path class="BUNTAI_RED_PANDA_BODY_BUNTAI_RED_PANDA_BODY_29_cls-10" d="M167.39,183.53s-8,3.61-14-8.55-18.89-16.27-18.89-16.27l2.3,6.25-8.55,1,2.79,3.62s-1.8,11.83,2.14,18.24" />
      <path class="BUNTAI_RED_PANDA_BODY_BUNTAI_RED_PANDA_BODY_29_cls-10" d="M130.67,205.62c0-.1-.08-.2-.13-.33a196.56,196.56,0,0,1-7.16-22.86c-.8-3.4-1.49-6.88-1.95-10.23-.19-1.39-.34-2.72-.42-4a34.05,34.05,0,0,1-.15-4,28.43,28.43,0,0,1,.38-4.76,14.4,14.4,0,0,1,1.86-5.36,7.8,7.8,0,0,1,3.53-3.24,14.52,14.52,0,0,1,4.78-1.16c.6-.05,1.19-.08,1.81-.08h.28a33.51,33.51,0,0,1,5.54.59,1.18,1.18,0,0,1,.28.06c6.8,1.28,14.42,4.37,21.14,7.64l1.7.85c2.44,1.19,4.71,2.42,6.77,3.56h0c.13.08.24.13.36.21s.52.28.78.41c.74.44,1.44.82,2.08,1.21l.23.15h0c.08.06.15.08.21.13.36.21.69.41,1,.57.49.31,1,.59,1.39.85,2.42,1.47,3.86,2.42,3.86,2.42" />
      <path class="BUNTAI_RED_PANDA_BODY_BUNTAI_RED_PANDA_BODY_29_cls-10" d="M125.59,257.07v0c-1-.9-1.92-1.77-2.85-2.68s-1.91-1.93-2.78-2.88l-1.6-1.73c-1.9-2.08-3.6-4.14-5.12-6.1s-2.76-3.73-3.86-5.43q-1.47-2.25-2.48-4.17a.09.09,0,0,1,0-.06l-.28-.5s.06,0,.08,0a38.7,38.7,0,0,0,7.27-3.87c5.27-3.32,10.6-7.41,10.6-7.41s-2,.08-5.9-1.57a38.61,38.61,0,0,1-5-2.58l0,0a16.79,16.79,0,0,0,2.76-1.28s0,0,.05,0,0,0,0-.05a48.1,48.1,0,0,0,5.61-3.78.59.59,0,0,1,.19-.13c.3-.23.59-.47.9-.69v0c.43-.33.87-.67,1.31-1,1.26-1,2.49-2.08,3.71-3.14a.44.44,0,0,1,.15-.13c.79-.72,1.57-1.39,2.32-2.09h0c.77-.69,1.5-1.34,2.19-2l.08-.07,0,0c1.95-1.8,3.55-3.33,4.48-4.28l.08,0c.09-.08.17-.19.25-.27s.24-.22.33-.3l.34-.33" />
      <path class="BUNTAI_RED_PANDA_BODY_BUNTAI_RED_PANDA_BODY_29_cls-10" d="M151.68,274.24c-1.11-.49-2.19-1-3.27-1.54-.67-.32-1.32-.65-1.93-1-.95-.49-1.88-1-2.81-1.55l-.26-.12c-.64-.37-1.29-.76-1.9-1.14-.46-.25-.93-.54-1.39-.85-1-.6-2-1.26-3-1.91a95.57,95.57,0,0,1-9.33-7.1l-.9-.8c-.44-.38-.87-.8-1.31-1.18" />
      <path class="BUNTAI_RED_PANDA_BODY_BUNTAI_RED_PANDA_BODY_29_cls-10" d="M188.46,281.9l-5.14-.71h-1a65.28,65.28,0,0,1-8.11-.61c-1-.13-2-.28-3-.43-1.36-.24-2.7-.49-4-.8-.87-.18-1.72-.39-2.57-.62a.59.59,0,0,1-.21-.05h0l-.31-.08c-2.26-.59-4.48-1.29-6.61-2.06-.33-.1-.67-.24-1-.36l-.09,0c-1.53-.57-3-1.17-4.46-1.83l-.16-.08" />
      <path class="BUNTAI_RED_PANDA_BODY_BUNTAI_RED_PANDA_BODY_29_cls-10" d="M291.25,160.22a54.54,54.54,0,0,0-4.81-3.44c-1.47-.95-3-1.83-4.53-2.65-.78-.41-1.55-.82-2.35-1.18-1.52-.75-3-1.45-4.6-2.09a.33.33,0,0,1-.16-.05c-2.16-.91-4.35-1.68-6.54-2.37-.72-.23-1.44-.46-2.16-.67-1.14-.36-2.27-.67-3.38-1-.61-.16-1.23-.33-1.85-.47a.1.1,0,0,0-.07,0c-1.58-.39-3.12-.75-4.64-1-3.37-.7-6.59-1.21-9.5-1.57-1.75-.24-3.4-.41-4.92-.54s-3-.26-4.24-.34c-3.55-.22-5.79-.2-6.14-.2h0" />
      <path class="BUNTAI_RED_PANDA_BODY_BUNTAI_RED_PANDA_BODY_29_cls-10" d="M293.72,183.28a29.93,29.93,0,0,0,7.26-9,30.8,30.8,0,0,1,17.15-15.56l-2.3,6.25,8.55,1-2.8,3.62s1.81,11.83-2.13,18.24" />
      <path class="BUNTAI_RED_PANDA_BODY_BUNTAI_RED_PANDA_BODY_29_cls-10" d="M314.27,198.32h0v0a.17.17,0,0,0,0,.05,0,0,0,0,1,0,0l.05.09c.13.26.38.77.75,1.47q.08.12.15.27.24.41.51.9c.34.58.74,1.24,1.19,2h0c.08.11.15.23.23.36.3.45.61.93.95,1.42.16.24.33.49.51.73a44.83,44.83,0,0,0,7.29,8.11l.64.54c.44.37.88.72,1.34,1,.22.17.46.33.69.5.47.32.94.63,1.43.93l.65.38a.59.59,0,0,0,.17.1l.65.36.78.4h0l0,0h0" />
      <path class="BUNTAI_RED_PANDA_BODY_BUNTAI_RED_PANDA_BODY_29_cls-10" d="M332.36,218h0l-.26.15-.27.16c-.15.09-.31.17-.47.25l-.44.26a36.57,36.57,0,0,1-4.69,2.19h0a19.65,19.65,0,0,1-2.73.84,8.64,8.64,0,0,1-2,.28l.49.38c.14.09.31.22.51.37l.22.17,0,0,.16.12.58.43c.46.34,1,.72,1.56,1.13l.06,0h0c1.66,1.2,3.74,2.67,5.87,4.07l.55.35.09.06h.05c.53.34,1.06.67,1.58,1s1,.61,1.53.89l0,0a35.38,35.38,0,0,0,3.18,1.66l.21.09.11.05.59.24.15.06h0l.26.1h0l0,0,0,.06a3.7,3.7,0,0,1-.25.43s0,0,0,0a.25.25,0,0,1,0,.07c-.15.28-.3.57-.47.87-.35.64-.74,1.3-1.16,2s-.95,1.52-1.49,2.32l-.61.9c-.52.75-1.06,1.51-1.64,2.29a.76.76,0,0,1-.08.11.76.76,0,0,0-.08.11c-.8,1.06-1.65,2.16-2.56,3.28-.45.55-.91,1.1-1.39,1.66q-1.42,1.66-3,3.37-.78.86-1.62,1.71l-.83.85-.88.85-.7.69-.11.12-.19.18c-.37.36-.75.71-1.13,1.06l-.26.24-.48.45h0l-.24.22-.1.09-.28.27-.65.57c-.28.25-.58.54-.89.8-.47.41-.95.81-1.43,1.21s-1,.8-1.47,1.19h0l-.26.21-1,.77c-.53.42-1.2.92-2,1.5l-.62.45c-.42.32-.87.64-1.35,1l-.74.53c-.19.15-.38.28-.58.42l-1.86,1.31h0c-1.15.82-2.41,1.68-3.74,2.58h0c-1,.69-2,1.38-3.13,2.1h0c-1,.67-2.06,1.35-3.14,2l-1.43.92-1.17.74h0l-.05,0,0,0h0l-.65.4h0l0,0c-1.84,1.14-3.75,2.29-5.7,3.44l-.07,0-.07,0,0,0-.07,0h0l-.85.49" />
      <path class="BUNTAI_RED_PANDA_BODY_BUNTAI_RED_PANDA_BODY_29_cls-11" d="M317.05,201l.39-.53a.09.09,0,0,0,0,0s0,0,0,0a65.79,65.79,0,0,0,8.85-17.7q.51-1.49.9-2.85c.27-.9.5-1.75.7-2.54A43.6,43.6,0,0,0,329,172.2c.15-1.38.29-2.72.35-4,0-.25,0-.5,0-.74s.05-.68.06-1c0-.54,0-1.06,0-1.58v-.67c0-.85,0-1.67-.09-2.47s-.14-1.56-.25-2.29l-.12-.76a16.75,16.75,0,0,0-.94-3.44,12.42,12.42,0,0,0-.55-1.16,8,8,0,0,0-1.3-1.9,6.48,6.48,0,0,0-1.74-1.34,9.79,9.79,0,0,0-1.46-.61l-.14,0h0a14,14,0,0,0-2.5-.5l-.69,0h-.08l-.78,0h-.25a25.88,25.88,0,0,0-4.78.59,1,1,0,0,0-.25.06A39.49,39.49,0,0,0,309,151.5c-.76.26-1.53.54-2.3.84h0c-.77.31-1.55.63-2.32,1s-1.55.68-2.33,1l-.84.41-.14.06-.17.08-1.14.57-.7.35-.07,0c-1.26.65-2.5,1.32-3.71,2l-1.48.85c-.88.5-1.74,1-2.56,1.5h0l-.78.49c-.3.17-.6.36-.89.55h0a2.2,2.2,0,0,0-.25.17h0l-1.33.84s0,0,0,0h0l-.31.2a5.93,5.93,0,0,1-.66.41c-.65.44-1.25.82-1.81,1.22l-.2.14h0l-.13.1,0,0h0c-.31.2-.6.41-.87.56-.42.31-.82.59-1.2.85-1.28.89-2.25,1.6-2.8,2l0,0-.48.37h0" />
      <path class="BUNTAI_RED_PANDA_BODY_BUNTAI_RED_PANDA_BODY_29_cls-12" d="M177.66,271.7l.39.36.08.08c.92.82,3.13,2.88,5.89,5.48.6.57,1.26,1.19,1.92,1.83l.13.13c.39.36.76.75,1.18,1.16h0v0a2.74,2.74,0,0,1,.31.29v0h0l.13.13,0,0,.42.41a2.12,2.12,0,0,1,.26.26,7.59,7.59,0,0,1,.71.69c.26.23.53.49.79.75l.32.3c.48.47,1,.94,1.44,1.42L193,286.3c.89.9,1.76,1.8,2.6,2.68l.24.23c.23.26.47.51.71.77l.47.52.39.43.87.93c.53.59,1,1.21,1.55,1.78,0,.05.08.07.11.13.42.46.79.92,1.15,1.36a7,7,0,0,0,.66.7,4.23,4.23,0,0,0,.76.69s0,0,.06,0l0,.05a18,18,0,0,0,1.76,1.21.27.27,0,0,0,.11.05,22,22,0,0,0,3.26,1.6.3.3,0,0,0,.21.07,34.8,34.8,0,0,0,3.7,1.29c.14,0,.24.08.37.1,1.82.52,3.74,1,5.65,1.37a137.94,137.94,0,0,0,17.85,2.16c.24,0,.43,0,.61,0l.68,0h.06" />
      <path class="BUNTAI_RED_PANDA_BODY_BUNTAI_RED_PANDA_BODY_29_cls-10" d="M247.29,286.09c-4.84,2.49-9.93,1.88-12.89-.18a11.43,11.43,0,0,1-2.32-2.12l-.26-.3a9.15,9.15,0,0,1-.69-1,8.85,8.85,0,0,1-.75-1.39,11.62,11.62,0,0,1-1-3.22,8.46,8.46,0,0,1-.1-.88,8.34,8.34,0,0,1,.2-2.8v0c.08-.2.13-.41.21-.62v0a4.8,4.8,0,0,1,.64-1.42c4-6.33,15-9.14,15-9.14" />
      <path class="BUNTAI_RED_PANDA_BODY_BUNTAI_RED_PANDA_BODY_29_cls-10" d="M245.32,263s13,2.81,17,9.14a4.58,4.58,0,0,1,.65,1.42c1.08,3.09.07,7.23-2.42,10.24a11.7,11.7,0,0,1-2.32,2.12c-2.91,2-6,2.65-10.67.3l-.25-.12" />
      <path class="BUNTAI_RED_PANDA_BODY_BUNTAI_RED_PANDA_BODY_29_cls-13" d="M246.31,293.56a15.4,15.4,0,0,0,9.75,1.24c5.91-1.23,7.35-5.28,7.35-5.28" />
      <path class="BUNTAI_RED_PANDA_BODY_BUNTAI_RED_PANDA_BODY_29_cls-13" d="M246.31,293.56a15.4,15.4,0,0,1-9.75,1.24c-5.91-1.23-7.34-5.28-7.34-5.28" />
      <path class="BUNTAI_RED_PANDA_BODY_BUNTAI_RED_PANDA_BODY_29_cls-14" d="M246.29,293.63a.31.31,0,0,0,0-.07,39.17,39.17,0,0,0,1.26-7.35,37.4,37.4,0,0,0-1.28-13.68" />
      <path class="BUNTAI_RED_PANDA_BODY_BUNTAI_RED_PANDA_BODY_29_cls-4" d="M200.81,214s-10.76-5.78-19.39-6.21l2.17,3.53s-7.88,1.77-12.21,5.78c7.15,5.74,15.48,13,15.48,13s-.17,7.42,7.14,8.68,13.69-3.17,13.69-3.17,2-11.24-5.5-23.86Z" />
      <path class="BUNTAI_RED_PANDA_BODY_BUNTAI_RED_PANDA_BODY_29_cls-4" d="M307.79,217.05c-4.33-4-12.21-5.78-12.21-5.78l2.17-3.53c-8.63.43-19.39,6.21-19.39,6.21L277,211.66c-7.54,12.62-5.5,23.86-5.5,23.86s6.38,4.43,13.69,3.17,7.14-8.68,7.14-8.68S300.64,222.79,307.79,217.05Z" />
      <path class="BUNTAI_RED_PANDA_BODY_BUNTAI_RED_PANDA_BODY_29_cls-4" d="M292.7,230.83c-1.11,7.11-6.85,10.92-19.75,6a20.89,20.89,0,0,1,1.11-4.19,11.64,11.64,0,0,1,.46-1.19c.21-.43.41-.87.64-1.34A17.52,17.52,0,0,1,278,226a4.57,4.57,0,0,1,.44-.44c.1-.1.23-.23.33-.31a14.49,14.49,0,0,1,1.5-1.15,7.12,7.12,0,0,1,.8-.49,12.6,12.6,0,0,1,1.82-.83,8.55,8.55,0,0,1,1-.33c.57-.14,1.16-.25,1.79-.34s1-.1,1.5-.12h.08a16,16,0,0,1,1.83,0,22.18,22.18,0,0,1,3.24.52A23.69,23.69,0,0,1,292.7,230.83Z" />
      <path class="BUNTAI_RED_PANDA_BODY_BUNTAI_RED_PANDA_BODY_29_cls-4" d="M284.51,223.49a7.42,7.42,0,1,1-7.42,7.42A7.42,7.42,0,0,1,284.51,223.49Z" />
      <path class="BUNTAI_RED_PANDA_BODY_BUNTAI_RED_PANDA_BODY_29_cls-15" d="M292.7,230.83c-1.11,7.11-6.85,10.92-19.75,6a20.89,20.89,0,0,1,1.11-4.19,11.64,11.64,0,0,1,.46-1.19c.21-.43.41-.87.64-1.34A17.52,17.52,0,0,1,278,226a4.57,4.57,0,0,1,.44-.44c.1-.1.23-.23.33-.31a14.49,14.49,0,0,1,1.5-1.15,7.12,7.12,0,0,1,.8-.49,12.6,12.6,0,0,1,1.82-.83,8.55,8.55,0,0,1,1-.33,15.05,15.05,0,0,1,3.37-.47,16,16,0,0,1,1.83,0,22.18,22.18,0,0,1,3.24.52A23.69,23.69,0,0,1,292.7,230.83Z" />
      <path class="BUNTAI_RED_PANDA_BODY_BUNTAI_RED_PANDA_BODY_29_cls-16" d="M283.41,223.49a7.42,7.42,0,1,0,7.42,7.42A7.42,7.42,0,0,0,283.41,223.49Z" />
      <circle cx="282.57" cy="230.91" r="3.59" />
      <circle class="BUNTAI_RED_PANDA_BODY_BUNTAI_RED_PANDA_BODY_29_cls-4" cx="284.53" cy="227.73" r="1.63" />
      <circle class="BUNTAI_RED_PANDA_BODY_BUNTAI_RED_PANDA_BODY_29_cls-15" cx="283.41" cy="230.91" r="7.42" />
      <path class="BUNTAI_RED_PANDA_BODY_BUNTAI_RED_PANDA_BODY_29_cls-4" d="M208.07,236.8c-13.11,5-18.8,1-19.83-6.28v-.05a25.1,25.1,0,0,1,.44-8,22.18,22.18,0,0,1,3.24-.52,16,16,0,0,1,1.83,0h.08c.52,0,1,.06,1.51.12s1.22.2,1.79.34c.33.1.66.2,1,.33a12.36,12.36,0,0,1,1.8.83,12,12,0,0,1,2.89,2.21,1.54,1.54,0,0,1,.2.18c.31.34.62.7.9,1.06a.92.92,0,0,1,.23.31,10.72,10.72,0,0,1,.91,1.28s0,0,0,0c.23.38.46.8.67,1.18.05.08.08.16.13.23.23.47.44.91.62,1.34a11.64,11.64,0,0,1,.46,1.19,5.51,5.51,0,0,1,.26.74c.26.8.46,1.52.59,2.09.05.28.1.51.15.72a.09.09,0,0,1,0,.08C208,236.6,208.07,236.8,208.07,236.8Z" />
      <path class="BUNTAI_RED_PANDA_BODY_BUNTAI_RED_PANDA_BODY_29_cls-4" d="M196.53,223.49a7.42,7.42,0,1,0,7.42,7.42A7.42,7.42,0,0,0,196.53,223.49Z" />
      <path class="BUNTAI_RED_PANDA_BODY_BUNTAI_RED_PANDA_BODY_29_cls-15" d="M208.09,236.8h0c-13.11,5-18.8,1-19.83-6.28v-.05a25.1,25.1,0,0,1,.44-8,22.18,22.18,0,0,1,3.24-.52,16,16,0,0,1,1.83,0,15.15,15.15,0,0,1,3.38.47c.33.1.66.2,1,.33a12.36,12.36,0,0,1,1.8.83,12,12,0,0,1,2.89,2.21,1.54,1.54,0,0,1,.2.18c.31.34.62.7.9,1.06a.92.92,0,0,1,.23.31,10.72,10.72,0,0,1,.91,1.28s0,0,0,0c.23.38.46.8.67,1.18.05.08.08.16.13.23.23.47.44.91.62,1.34a11.64,11.64,0,0,1,.46,1.19,5.51,5.51,0,0,1,.26.74,15.18,15.18,0,0,1,.59,2.09c.05.28.1.51.15.72a.09.09,0,0,1,0,.08A5.33,5.33,0,0,1,208.09,236.8Z" />
      <path class="BUNTAI_RED_PANDA_BODY_BUNTAI_RED_PANDA_BODY_29_cls-16" d="M195.65,223.49a7.42,7.42,0,1,0,7.42,7.42A7.42,7.42,0,0,0,195.65,223.49Z" />
      <circle cx="195.65" cy="230.91" r="3.59" />
      <circle class="BUNTAI_RED_PANDA_BODY_BUNTAI_RED_PANDA_BODY_29_cls-4" cx="193.7" cy="227.73" r="1.63" />
      <circle class="BUNTAI_RED_PANDA_BODY_BUNTAI_RED_PANDA_BODY_29_cls-15" cx="195.65" cy="230.91" r="7.42" />
      <path class="BUNTAI_RED_PANDA_BODY_BUNTAI_RED_PANDA_BODY_29_cls-10" d="M188.24,230.52l0,0,0,0c-.54-.49-8.67-7.9-16.78-14,2.91-2.91,13.46-4.43,13.46-4.43l-2.62-4.27c8.31,0,19.38,6.56,19.38,6.56v-3.94c9.48,10.2,6.41,26.44,6.41,26.44" />
      <path class="BUNTAI_RED_PANDA_BODY_BUNTAI_RED_PANDA_BODY_29_cls-10" d="M273,236.8s-3.06-16.24,6.41-26.44v3.94s11.07-6.56,19.39-6.56L296.12,212s10.56,1.52,13.47,4.43c-8.11,6.13-16,13.57-16.51,14.06l-.38.33" />
      <path d="M238.64,279.11c-3.24,0-6.92-3.35-9-5.54l0,0a4.43,4.43,0,0,0-.18.65v0a8.42,8.42,0,0,0-.2,2.81c0,.28.05.59.1.88a11.24,11.24,0,0,0,1,3.21,7.74,7.74,0,0,0,.75,1.39,7.23,7.23,0,0,0,.69,1l.23.31h0C240.45,286.32,243.15,279.11,238.64,279.11Z" />
      <path d="M263,273.54c-2,2.19-5.74,5.57-9,5.57-4.51,0-1.83,7.23,6.56,4.68C263.05,280.78,264.06,276.63,263,273.54Z" />
      <path class="BUNTAI_RED_PANDA_BODY_BUNTAI_RED_PANDA_BODY_29_cls-4" d="M182.65,245.3a20.28,20.28,0,0,0-2.11.52h0c-.33.1-.69.2-1,.33-.69.23-1.38.51-2.08.82s-1.37.65-2,1a.11.11,0,0,1-.08,0,4.27,4.27,0,0,1-.49.28l-.38.24c-.16.08-.31.17-.44.25l-1.42.9c-.05.06-.1.08-.15.14l-.08,0-1.13.82c-.31.24-.62.47-.9.7l-.11.07c-.53.42-1,.83-1.56,1.32h0c-.18.15-.38.34-.57.51s-.41.36-.59.55c0,0,0,0,0,0-.21.19-.42.36-.62.57-.65.61-1.26,1.24-1.88,1.87s-1.26,1.34-1.86,2c-.41.46-.82.92-1.21,1.41s-.82,1-1.18,1.45c-.59.66-1.11,1.35-1.63,2.05s-1.15,1.52-1.67,2.27-1.06,1.47-1.52,2.19c-1.49,2.16-2.83,4.3-4,6.28-.07.11-.12.2-.18.31h0c-1.11-.49-2.19-1-3.27-1.54-.67-.32-1.32-.65-1.93-1-.95-.49-1.88-1-2.81-1.55l-.26-.12c-.64-.37-1.29-.76-1.9-1.14-.46-.25-.93-.54-1.39-.85-1-.6-2-1.26-3-1.91a95.57,95.57,0,0,1-9.33-7.1l-.9-.8c-.44-.38-.87-.8-1.31-1.18a14.68,14.68,0,0,1,.95-1.75c.19-.32.36-.62.57-.93.33-.52.65-1,1-1.52s.58-.82.9-1.24.8-1,1.21-1.52c.57-.69,1.18-1.36,1.77-2a47.06,47.06,0,0,1,4.68-4.2c.35-.28.68-.51,1-.74.81-.62,1.58-1.16,2.32-1.63.27-.17.49-.33.75-.48l2-1.19h0l1.13-.61.76-.4a3.09,3.09,0,0,0,.46-.2s0,0,0,0l.07,0,0,0a.81.81,0,0,1-.23-.13h0a1,1,0,0,1-.25-.09c-.29-.11-.65-.27-1.09-.41a.32.32,0,0,1-.15-.06c-.42-.13-.91-.29-1.44-.43a18.56,18.56,0,0,0-2-.49.09.09,0,0,1-.08,0c-.44-.05-.9-.13-1.36-.21l0,0,.52-.46a8.28,8.28,0,0,1,1.11-.69,4.37,4.37,0,0,1,.69-.33c.08-.06.19-.08.29-.14l.56-.23.24-.07c.25-.08.54-.16.82-.26a.09.09,0,0,0,.08,0l1.72-.39.9-.14c.93-.14,1.86-.24,2.76-.32,1.21-.08,2.34-.1,3.34-.1.36,0,.7,0,1,0,1.5,0,2.47.11,2.47.11v0h0l-3-4.3H152a6.84,6.84,0,0,1,.79,0,6.33,6.33,0,0,0,.65,0c.18,0,.36,0,.6.06a5.28,5.28,0,0,1,.66.05c.31.05.62.07,1,.12.77.16,1.65.32,2.63.57s2.13.59,3.34,1l.1,0v0c.91.33,1.89.72,2.89,1.15.39.19.77.36,1.18.57s.77.39,1.19.59.87.46,1.33.73l.14.07c.28.18.59.34.9.52l.9.56s.05,0,.08,0c.36.21.69.43,1.06.67.17.1.38.23.56.36,0,0,0,0,0,0a1.77,1.77,0,0,1,.24.17c.46.29.93.62,1.41,1,1.13.83,2.29,1.7,3.45,2.66v0h0c.53.44,1.08.9,1.62,1.39a1.53,1.53,0,0,1,.16.13s0,0,0,0l1.81,1.62h0v0c.59.57,1.21,1.16,1.82,1.77Z" />
      <path class="BUNTAI_RED_PANDA_BODY_BUNTAI_RED_PANDA_BODY_29_cls-4" d="M332.41,235.57a6.37,6.37,0,0,1,.94.7c.15.15.3.3.44.46v0c-.38.07-.78.15-1.15.19,0,0,0,0-.06,0-.63.15-1.2.31-1.74.49s-.87.3-1.22.44a.21.21,0,0,1-.13.05c-.37.15-.68.31-.91.42a.93.93,0,0,1-.22.09h0a1.08,1.08,0,0,1-.19.14l0,0a.13.13,0,0,1,.07,0s0,0,.05,0a2.36,2.36,0,0,0,.38.21l.65.39,1,.61h0c.5.37,1,.74,1.66,1.19.21.15.41.31.63.49s.72.53,1.09.85l-.16.22c-.8,1.07-1.65,2.16-2.56,3.28-1.8,2.19-3.8,4.45-6,6.74-.54.57-1.11,1.14-1.7,1.7-.93.93-1.88,1.83-2.88,2.74h0c-.42.4-.82.77-1.27,1.15-.28.25-.58.54-.89.8-.94.81-1.91,1.62-2.9,2.4l-.23-.31c-.3-.49-.65-1-1-1.45s-.68-.95-1-1.41c-.5-.67-1-1.34-1.57-2s-1.05-1.27-1.6-1.88c-.18-.21-.35-.39-.53-.57,0,0,0,0,0,0-.16-.18-.34-.36-.5-.55s-.33-.36-.49-.5h0c-.46-.49-.87-.91-1.33-1.32l-.09-.08-.76-.7c-.33-.28-.65-.53-1-.82,0,0,0,0-.06,0s-.09-.08-.13-.14l-1.2-.89a3.62,3.62,0,0,0-.38-.26l-.32-.23-.42-.29a.07.07,0,0,1-.06,0c-.55-.36-1.14-.69-1.71-1a16.53,16.53,0,0,0-1.77-.82c-.29-.13-.59-.23-.87-.33h0a14.94,14.94,0,0,0-1.78-.52v0c.53-.63,1.05-1.21,1.55-1.78v0h0c.52-.56,1-1.1,1.53-1.62,0,0,0,0,0,0a.8.8,0,0,1,.13-.13c.46-.49.92-.94,1.37-1.39h0v0c1-1,2-1.83,2.92-2.66.42-.33.81-.67,1.21-1l.19-.17a0,0,0,0,0,0,0c.15-.13.33-.25.48-.36.31-.24.59-.47.89-.67l.07,0c.27-.21.53-.39.76-.58s.53-.33.77-.51c0,0,.07-.06.11-.07.39-.27.77-.49,1.13-.72l1-.61c.35-.19.69-.37,1-.56.86-.43,1.68-.82,2.45-1.15v0a.16.16,0,0,0,.09,0c1-.42,2-.75,2.84-1s1.58-.41,2.23-.56c.3,0,.56-.08.84-.14a3.69,3.69,0,0,1,.56,0c.2,0,.35,0,.49-.06a4.53,4.53,0,0,0,.56,0,4.86,4.86,0,0,1,.67,0h.05l-2.58,4.3h0v0s.84-.08,2.1-.1a8,8,0,0,1,.86,0c.85,0,1.81,0,2.84.1.76.08,1.55.18,2.34.31.26.05.5.11.76.15l1.47.39s0,0,.07,0a6.52,6.52,0,0,0,.7.25l.19.09.48.22a2.55,2.55,0,0,1,.24.14A3.84,3.84,0,0,1,332.41,235.57Z" />
      <path class="BUNTAI_RED_PANDA_BODY_BUNTAI_RED_PANDA_BODY_29_cls-10" d="M151.68,274.24c-1.11-.49-2.19-1-3.27-1.54-.67-.32-1.32-.65-1.93-1-.95-.49-1.88-1-2.81-1.55l-.26-.12c-.64-.37-1.29-.76-1.9-1.14-.46-.25-.93-.54-1.39-.85-1-.6-2-1.26-3-1.91a95.57,95.57,0,0,1-9.33-7.1l-.9-.8c-.44-.38-.87-.8-1.31-1.18" />
      <path class="BUNTAI_RED_PANDA_BODY_BUNTAI_RED_PANDA_BODY_29_cls-10" d="M125.59,257.1v0h0a14.68,14.68,0,0,1,.95-1.75c.19-.32.36-.62.57-.93.33-.52.65-1,1-1.52s.58-.82.9-1.24.8-1,1.21-1.52c.57-.69,1.18-1.36,1.77-2a47.06,47.06,0,0,1,4.68-4.2c.35-.28.68-.51,1-.74.81-.62,1.58-1.16,2.32-1.63.27-.17.49-.33.75-.48l2-1.19h0l1.13-.61.76-.4a3.09,3.09,0,0,0,.46-.2s0,0,0,0l.07,0,0,0a.81.81,0,0,1-.23-.13h0a1,1,0,0,1-.25-.09c-.29-.11-.65-.27-1.09-.41a.32.32,0,0,1-.15-.06c-.42-.13-.91-.29-1.44-.43a18.56,18.56,0,0,0-2-.49.09.09,0,0,1-.08,0c-.44-.05-.9-.13-1.36-.21l0,0,.52-.46a8.28,8.28,0,0,1,1.11-.69,4.37,4.37,0,0,1,.69-.33c.08-.06.19-.08.29-.14l.56-.23.24-.07c.25-.08.54-.16.82-.26a.09.09,0,0,0,.08,0l1.72-.39.9-.14c.93-.14,1.86-.24,2.76-.32,1.21-.08,2.34-.1,3.34-.1.36,0,.7,0,1,0,1.5,0,2.47.11,2.47.11v0h0l-3-4.3H152a6.84,6.84,0,0,1,.79,0,6.33,6.33,0,0,0,.65,0c.18,0,.36,0,.6.06a5.28,5.28,0,0,1,.66.05c.31.05.62.07,1,.12.77.16,1.65.32,2.63.57s2.13.59,3.34,1l.1,0v0c.91.33,1.89.72,2.89,1.15.39.19.77.36,1.18.57s.77.39,1.19.59.87.46,1.33.73l.14.07c.28.18.59.34.9.52l.9.56s.05,0,.08,0c.36.21.69.43,1.06.67.17.1.38.23.56.36,0,0,0,0,0,0a1.77,1.77,0,0,1,.24.17c.46.29.93.62,1.41,1,1.13.83,2.29,1.7,3.45,2.66v0h0c.53.44,1.08.9,1.62,1.39a1.53,1.53,0,0,1,.16.13s0,0,0,0l1.81,1.62h0v0c.59.57,1.21,1.16,1.82,1.77l0,0a20.28,20.28,0,0,0-2.11.52h0c-.33.1-.69.2-1,.33-.69.23-1.38.51-2.08.82s-1.37.65-2,1a.11.11,0,0,1-.08,0,4.27,4.27,0,0,1-.49.28l-.38.24c-.16.08-.31.17-.44.25l-1.42.9c-.05.06-.1.08-.15.14l-.08,0-1.13.82c-.31.24-.62.47-.9.7l-.11.07c-.53.42-1,.83-1.56,1.32h0c-.18.15-.38.34-.57.51s-.41.36-.59.55c0,0,0,0,0,0-.21.19-.42.36-.62.57-.65.61-1.26,1.24-1.88,1.87s-1.26,1.34-1.86,2c-.41.46-.82.92-1.21,1.41s-.82,1-1.18,1.45c-.59.66-1.11,1.35-1.63,2.05s-1.15,1.52-1.67,2.27-1.06,1.47-1.52,2.19c-1.49,2.16-2.83,4.3-4,6.28-.07.11-.12.2-.18.31h0v0" />
      <path class="BUNTAI_RED_PANDA_BODY_BUNTAI_RED_PANDA_BODY_29_cls-10" d="M315.22,261.45c1-.78,2-1.59,2.9-2.4.31-.26.61-.55.89-.8.45-.38.85-.75,1.27-1.15h0c1-.91,1.95-1.81,2.88-2.74.59-.56,1.16-1.13,1.7-1.7,2.22-2.29,4.22-4.55,6-6.74.91-1.12,1.76-2.21,2.56-3.28l.16-.22" />
      <path class="BUNTAI_RED_PANDA_BODY_BUNTAI_RED_PANDA_BODY_29_cls-17" d="M315.22,261.45l-.23-.31c-.3-.49-.65-1-1-1.45s-.68-.95-1-1.41c-.5-.67-1-1.34-1.57-2s-1.05-1.27-1.6-1.88c-.18-.21-.35-.39-.53-.57,0,0,0,0,0,0-.16-.18-.34-.36-.5-.55s-.33-.36-.49-.5h0c-.46-.49-.87-.91-1.33-1.32l-.09-.08-.76-.7c-.33-.28-.65-.53-1-.82,0,0,0,0-.06,0s-.09-.08-.13-.14l-1.2-.89a3.62,3.62,0,0,0-.38-.26l-.32-.23-.42-.29a.07.07,0,0,1-.06,0c-.55-.36-1.14-.69-1.71-1a16.53,16.53,0,0,0-1.77-.82c-.29-.13-.59-.23-.87-.33h0a14.94,14.94,0,0,0-1.78-.52v0c.53-.63,1.05-1.21,1.55-1.78v0h0c.52-.56,1-1.1,1.53-1.62,0,0,0,0,0,0a.8.8,0,0,1,.13-.13c.46-.49.92-.94,1.37-1.39h0v0c1-1,2-1.83,2.92-2.66.42-.33.81-.67,1.21-1l.19-.17a0,0,0,0,0,0,0c.15-.13.33-.25.48-.36.31-.24.59-.47.89-.67l.07,0c.27-.21.53-.39.76-.58s.53-.33.77-.51c0,0,.07-.06.11-.07.39-.27.77-.49,1.13-.72l1-.61c.35-.19.69-.37,1-.56.86-.43,1.68-.82,2.45-1.15v0a.16.16,0,0,0,.09,0c1-.42,2-.75,2.84-1s1.58-.41,2.23-.56c.3,0,.56-.08.84-.14a3.69,3.69,0,0,1,.56,0c.2,0,.35,0,.49-.06a4.53,4.53,0,0,0,.56,0,4.86,4.86,0,0,1,.67,0h.05l-2.58,4.3h0v0s.84-.08,2.1-.1a8,8,0,0,1,.86,0c.85,0,1.81,0,2.84.1.76.08,1.55.18,2.34.31.26.05.5.11.76.15l1.47.39s0,0,.07,0a6.52,6.52,0,0,0,.7.25l.19.09.48.22a2.55,2.55,0,0,1,.24.14,3.84,3.84,0,0,1,.59.33,6.37,6.37,0,0,1,.94.7c.15.15.3.3.44.46v0c-.38.07-.78.15-1.15.19,0,0,0,0-.06,0-.63.15-1.2.31-1.74.49s-.87.3-1.22.44a.21.21,0,0,1-.13.05c-.37.15-.68.31-.91.42a.93.93,0,0,1-.22.09h0a1.08,1.08,0,0,1-.19.14l0,0a.13.13,0,0,1,.07,0s0,0,.05,0a2.36,2.36,0,0,0,.38.21l.65.39,1,.61h0c.5.37,1,.74,1.66,1.19.21.15.41.31.63.49s.72.53,1.09.85" />
      <path class="BUNTAI_RED_PANDA_BODY_BUNTAI_RED_PANDA_BODY_29_cls-18" d="M236.79,304.5v0c.47,0,6.15-.23,13-1.21A83.13,83.13,0,0,0,261.16,301c.77-.21,1.53-.43,2.27-.68l.56,5.79s1.49,13.88,2.21,14.56c13.28,12.41,43.7,26.05,43.7,26.05s24,11.06,30.47,33.08,20.15,67.11,20.15,67.11H84.41s1.4-4.19,7-28,7.34-40.2,17.63-56.62,51.85-20.28,76.11-37.06c4-2.77,2.63-19.16,2.63-19.16v-2.4c-.44-13.36-1.32-21.85-1.32-21.85l2,.08h0a6.71,6.71,0,0,1,.66.65c.27.23.53.49.79.75.58.56,1.18,1.13,1.76,1.72L193,286.3c.89.9,1.76,1.8,2.6,2.68l.24.23c.23.26.47.51.71.77s.31.34.47.52.26.28.4.43l.86.93c.53.59,1.05,1.21,1.55,1.78,0,.05.08.07.11.13.42.46.79.92,1.16,1.36a5.87,5.87,0,0,0,.65.7,4.3,4.3,0,0,0,.77.69s0,0,.05,0l0,.05a17,17,0,0,0,1.77,1.21.19.19,0,0,0,.1.05,22,22,0,0,0,3.26,1.6.3.3,0,0,0,.21.07,35,35,0,0,0,3.71,1.29c.13,0,.23.08.37.1,1.81.52,3.73,1,5.65,1.37a137.55,137.55,0,0,0,17.85,2.16c.23,0,.42,0,.6,0,.34,0,.58,0,.69,0h0Z" />
      <path class="BUNTAI_RED_PANDA_BODY_BUNTAI_RED_PANDA_BODY_29_cls-10" d="M130.92,370.27c-2.56,8.71-3.47,15.65-.12,31.29" />
      <path class="BUNTAI_RED_PANDA_BODY_BUNTAI_RED_PANDA_BODY_29_cls-10" d="M188.49,281.94l-2-.08s.88,8.49,1.32,21.85v2.4s1.38,16.39-2.63,19.16c-24.26,16.78-65.81,20.63-76.11,37.06S97,395.18,91.4,419s-7,28-7,28H360.52s-13.63-45.09-20.15-67.11-30.47-33.08-30.47-33.08-30.42-13.64-43.7-26.05c-.72-.68-2.21-14.56-2.21-14.56l-.56-5.79" />
      <path class="BUNTAI_RED_PANDA_BODY_BUNTAI_RED_PANDA_BODY_29_cls-10" d="M306.35,374.21s12.23,19.68,17.82,29.94-4.54,33-22,42.76" />
      <path class="BUNTAI_RED_PANDA_BODY_BUNTAI_RED_PANDA_BODY_29_cls-10" d="M140.16,446.91c-4-6.84-12.8-23.38-11.71-35.3,1.4-15.38,18.81-37.4,18.81-37.4" />
      <path class="BUNTAI_RED_PANDA_BODY_BUNTAI_RED_PANDA_BODY_29_cls-10" d="M320.2,397.14s-1.57-18.92-4.54-28.35" />
      <path class="BUNTAI_RED_PANDA_BODY_BUNTAI_RED_PANDA_BODY_29_cls-2" d="M339.33,233.48l0,.06c-.08.15-.16.29-.25.43s0,0,0,0a.25.25,0,0,1,0,.07c-.94,1.68-1.93,3.33-3,5l-.13.2-.61.9a88.67,88.67,0,0,1-12.9,15l-.19.18-.41.38-.72.68-.26.24-.49.44a0,0,0,0,1,0,0l-.25.22-.1.09a.6.6,0,0,1-.12.11c-1.35,1.18-2.94,2.47-4.69,3.81-1.29,1-2.67,2-4.09,3l-.67.48-.37.26-.06.05-.77.54-.41.29h0c-9.54,6.73-20.14,13.34-21.09,13.93l-.07,0-.07,0,0,0-.1.08c-.27.2-.84.62-1.57,1.2a1.77,1.77,0,0,0-.17.14h0c-.55.43-1.17.94-1.84,1.51l0,0c-.86.74-1.78,1.58-2.69,2.49A29.24,29.24,0,0,0,278,289l-.39.56,0,.05q-.33.48-.72,1-.49.67-1.11,1.38a23.36,23.36,0,0,1-2.55,2.49l0,0-.26.22-.2.16A37.33,37.33,0,0,1,259,301.51c-.53.15-1.07.29-1.63.43l-.07,0a81.56,81.56,0,0,1-12.37,2l-1.51.12c-1.14.1-2.26.16-3.37.21l-.39,0c-1.5.06-3,.09-4.42.08h-.75a93.13,93.13,0,0,1-9.61-.58h-.08c-8-.93-14.54-2.82-19-5.06a21.08,21.08,0,0,1-3-1.76h0a12.33,12.33,0,0,1-2-1.72c-.51-.55-1.05-1.12-1.63-1.7h0c-.76-.77-1.58-1.56-2.41-2.34-2.57-2.45-5.3-4.87-7.28-6.58h0c-1.39-1.2-2.39-2.05-2.71-2.31l-.1-.09h-.14a89,89,0,0,1-26.6-4.84h0c-.33-.12-.66-.24-1-.38-1.9-.71-3.83-1.49-5.75-2.35l-.37-.16-.93-.42c-9.58-4.36-19.11-10.27-26.06-17.25-.72-.71-1.4-1.43-2.06-2.17a218.49,218.49,0,0,1-16.47-21.38l3.19-2.16,0,0,11.13-7.53,0,0,1.85-1.25-.37-.18-.2-.11-8.5-4.27h0l.31-.18h0a77.85,77.85,0,0,0,9-5.9c.26-.21.53-.41.79-.63l.72-.6c.78-.65,1.53-1.34,2.22-2l0,0a17.17,17.17,0,0,0,2.85-3.62s0-.08,0-.12c-5.78-14.74-11.33-35.8-8.89-45.93a.06.06,0,0,1,0,0,10.91,10.91,0,0,1,1.16-3,11.9,11.9,0,0,1,7.58-5.81h0c4.83-1.21,10.91.12,17.68,2.65l.76.29c1.13.43,2.25.87,3.34,1.33l.67.27.33.14c6.59,2.79,12.21,5.73,14.68,7.07l.64.35.25.14.42.23s0,0,0,0h0s.26-.21.76-.57l.22-.16.3-.22.07-.05,0,0,1.44-1a0,0,0,0,1,0,0,104.71,104.71,0,0,1,40.7-16l.69-.11.17,0,.42-.07h0l1.88-.26.73-.09,2.59-.29,2.5-.25.41,0,.38,0,.67-.06c1.1-.09,2.17-.17,3.22-.23,3.73-.24,7.14-.32,10.27-.28l.67,0c13.95.27,22.49,3.05,30.09,5.59l.9.29.18.06c10.67,3.56,21.57,11.23,22.31,11.76h0l0,0L291,160h0c.77-.44,2.72-1.54,5.31-2.86l.45-.22.09,0c1.25-.63,2.62-1.3,4.08-2h0l.17-.08.14-.06c5.12-2.33,11.13-4.59,15.77-4.93h.1a14.1,14.1,0,0,1,2.16,0c5.21.47,8.08,3.43,9.36,7.93,0,0,0,0,0,0a30.54,30.54,0,0,1,.72,10.35v0q-.14,1.7-.36,3.48c-1.45,11.2-10.68,27.35-11.5,28.76a.08.08,0,0,1,0,.05.09.09,0,0,1,0,0l-.24,3v.17l.57,2.05.44,1.6s8.68,9.09,14.1,10.69c-2.29,1.19-4.42,2.24-6.08,3.05h0c-2.13,1-3.5,1.66-3.5,1.66s.71.69,1.89,1.73l0,0,.37.33.06,0h0c3.23,2.81,9.17,7.48,13.91,8.54h0Z" />
      <path class="BUNTAI_RED_PANDA_BODY_BUNTAI_RED_PANDA_BODY_29_cls-4" d="M286.55,280.17s-10.83-29.88-37.43-34.1-48.81,24.61-48.81,24.61l-9.66,13.65s9.92,9.61,12.18,12.67,24.08,7.29,39.57,7.11,27-6,30.11-9S284.34,281.06,286.55,280.17Z" />
      <path class="BUNTAI_RED_PANDA_BODY_BUNTAI_RED_PANDA_BODY_29_cls-4" d="M154.78,226.48s7.88,6.61,22.87,12.57c-9.46,10-22,20.46-1.5,41.75a128.53,128.53,0,0,1-17.68-4.15s-12.45-9.86-14.19-25.23S154.78,226.48,154.78,226.48Z" />
      <path class="BUNTAI_RED_PANDA_BODY_BUNTAI_RED_PANDA_BODY_29_cls-4" d="M297.55,239.45s15.38,8.26,11.22,26.54a92.39,92.39,0,0,0,19-18.07s-2.24-15.31-9.32-20.6C311.87,232.42,303.09,238.68,297.55,239.45Z" />
      <path class="BUNTAI_RED_PANDA_BODY_BUNTAI_RED_PANDA_BODY_29_cls-4" d="M189.65,234.86s-7.84-.51-8.54-6.75a34.07,34.07,0,0,1,0-9.64s-6.35-7.6-.64-11.09,17.62,6.88,17.62,6.88,3.74-6.26,5.85-4.53,4.66,7.08,5.07,14.36a47.73,47.73,0,0,1-.92,12.72s-8.4,2.7-13,1.52S189.65,234.86,189.65,234.86Z" />
      <path class="BUNTAI_RED_PANDA_BODY_BUNTAI_RED_PANDA_BODY_29_cls-4" d="M291.46,234.86s7.84-.51,8.54-6.75a34.07,34.07,0,0,0,0-9.64s6.35-7.6.64-11.09S283,214.26,283,214.26s-3.74-6.26-5.85-4.53-4.66,7.08-5.07,14.36a47.73,47.73,0,0,0,.92,12.72s8.4,2.7,13,1.52S291.46,234.86,291.46,234.86Z" />
      <path class="BUNTAI_RED_PANDA_BODY_BUNTAI_RED_PANDA_BODY_29_cls-3" d="M249.3,263.49s14.94,4.4,14.1,12.74-5.6,14-17.35,9.86c-9.57,2.75-13.71.76-16.08-5.89s1.08-10.21,6.75-13.36a37,37,0,0,1,9.9-3.94Z" />
      <path class="BUNTAI_RED_PANDA_BODY_BUNTAI_RED_PANDA_BODY_29_cls-4" d="M292.69,230.83c-1.1,7.11-6.85,10.92-19.74,6a21.21,21.21,0,0,1,1.1-4.2,10.73,10.73,0,0,1,.47-1.18c.2-.44.41-.88.64-1.34A17.78,17.78,0,0,1,278,226a3,3,0,0,1,.44-.43,2.34,2.34,0,0,1,.33-.31,12.33,12.33,0,0,1,1.49-1.16,8.15,8.15,0,0,1,.8-.49,13.21,13.21,0,0,1,1.83-.82,8.36,8.36,0,0,1,1-.34,16.23,16.23,0,0,1,1.79-.33,14.39,14.39,0,0,1,1.51-.13h.08a13.8,13.8,0,0,1,1.82,0,21,21,0,0,1,3.25.51A23.67,23.67,0,0,1,292.69,230.83Z" />
      <path class="BUNTAI_RED_PANDA_BODY_BUNTAI_RED_PANDA_BODY_29_cls-4" d="M284.5,223.49a7.42,7.42,0,1,1-7.42,7.42A7.42,7.42,0,0,1,284.5,223.49Z" />
      <path class="BUNTAI_RED_PANDA_BODY_BUNTAI_RED_PANDA_BODY_29_cls-19" d="M292.69,230.83c-1.1,7.11-6.85,10.92-19.74,6a21.21,21.21,0,0,1,1.1-4.2,10.73,10.73,0,0,1,.47-1.18c.2-.44.41-.88.64-1.34A17.78,17.78,0,0,1,278,226a3,3,0,0,1,.44-.43,2.34,2.34,0,0,1,.33-.31,12.33,12.33,0,0,1,1.49-1.16,8.15,8.15,0,0,1,.8-.49,13.21,13.21,0,0,1,1.83-.82,8.36,8.36,0,0,1,1-.34,14.6,14.6,0,0,1,3.38-.46,13.8,13.8,0,0,1,1.82,0,21,21,0,0,1,3.25.51A23.67,23.67,0,0,1,292.69,230.83Z" />
      <path class="BUNTAI_RED_PANDA_BODY_BUNTAI_RED_PANDA_BODY_29_cls-20" d="M283.4,223.49a7.42,7.42,0,1,0,7.42,7.42A7.42,7.42,0,0,0,283.4,223.49Z" />
      <circle cx="282.57" cy="230.91" r="3.59" />
      <circle class="BUNTAI_RED_PANDA_BODY_BUNTAI_RED_PANDA_BODY_29_cls-4" cx="284.53" cy="227.73" r="1.63" />
      <circle class="BUNTAI_RED_PANDA_BODY_BUNTAI_RED_PANDA_BODY_29_cls-15" cx="283.4" cy="230.91" r="7.42" />
      <path class="BUNTAI_RED_PANDA_BODY_BUNTAI_RED_PANDA_BODY_29_cls-4" d="M208.06,236.81c-13.1,5-18.79,1-19.82-6.28v-.06a25.11,25.11,0,0,1,.44-8,20.85,20.85,0,0,1,3.24-.51,14,14,0,0,1,1.83,0h.08a14.19,14.19,0,0,1,1.5.13,16.23,16.23,0,0,1,1.79.33c.34.1.67.21,1,.34a12.83,12.83,0,0,1,1.8.82,12.5,12.5,0,0,1,1.59,1.05,11.17,11.17,0,0,1,1.29,1.16,1.68,1.68,0,0,1,.21.18c.31.34.62.7.9,1.06a1.24,1.24,0,0,1,.23.31,11.07,11.07,0,0,1,.9,1.29s0,0,0,0c.23.39.46.8.67,1.19.05.07.07.15.13.23.23.46.43.9.61,1.34a10.73,10.73,0,0,1,.47,1.18,5.49,5.49,0,0,1,.25.75c.26.8.47,1.52.6,2.08.05.29.1.52.15.72a.1.1,0,0,1,0,.08C208,236.6,208.06,236.81,208.06,236.81Z" />
      <path class="BUNTAI_RED_PANDA_BODY_BUNTAI_RED_PANDA_BODY_29_cls-4" d="M196.52,223.49a7.42,7.42,0,1,0,7.42,7.42A7.42,7.42,0,0,0,196.52,223.49Z" />
      <path class="BUNTAI_RED_PANDA_BODY_BUNTAI_RED_PANDA_BODY_29_cls-19" d="M208.09,236.81h0c-13.1,5-18.79,1-19.82-6.28v-.06a25.11,25.11,0,0,1,.44-8,20.85,20.85,0,0,1,3.24-.51,14,14,0,0,1,1.83,0,14.59,14.59,0,0,1,3.37.46c.34.1.67.21,1,.34a12.83,12.83,0,0,1,1.8.82,12.5,12.5,0,0,1,1.59,1.05,11.17,11.17,0,0,1,1.29,1.16,1.68,1.68,0,0,1,.21.18c.31.34.62.7.9,1.06a1.24,1.24,0,0,1,.23.31,11.07,11.07,0,0,1,.9,1.29s0,0,0,0c.23.39.46.8.67,1.19.05.07.07.15.13.23.23.46.43.9.61,1.34a10.73,10.73,0,0,1,.47,1.18,5.49,5.49,0,0,1,.25.75,15.34,15.34,0,0,1,.6,2.08c.05.29.1.52.15.72a.1.1,0,0,1,0,.08C208.06,236.6,208.09,236.81,208.09,236.81Z" />
      <path class="BUNTAI_RED_PANDA_BODY_BUNTAI_RED_PANDA_BODY_29_cls-20" d="M195.65,223.49a7.42,7.42,0,1,0,7.42,7.42A7.42,7.42,0,0,0,195.65,223.49Z" />
      <circle cx="195.65" cy="230.91" r="3.59" />
      <circle class="BUNTAI_RED_PANDA_BODY_BUNTAI_RED_PANDA_BODY_29_cls-4" cx="193.69" cy="227.73" r="1.63" />
      <circle class="BUNTAI_RED_PANDA_BODY_BUNTAI_RED_PANDA_BODY_29_cls-15" cx="195.65" cy="230.91" r="7.42" />
      <path class="BUNTAI_RED_PANDA_BODY_BUNTAI_RED_PANDA_BODY_29_cls-10" d="M208,236.66s3.84-16.7-1.28-24.27-8.13,2.35-8.13,2.35-13.31-12.84-19.13-7,2.36,11.3,2.36,11.3-6,14.27,7.13,15.47" />
      <path class="BUNTAI_RED_PANDA_BODY_BUNTAI_RED_PANDA_BODY_29_cls-10" d="M272.92,236.61S269,220,274.17,212.39s8.12,2.35,8.12,2.35,13.31-12.84,19.14-7-2.36,11.3-2.36,11.3,5.82,14.27-7.27,15.47" />
      <g class="BUNTAI_RED_PANDA_BODY_BUNTAI_RED_PANDA_BODY_29_cls-7">
        <path d="M140,185.21a31.74,31.74,0,0,0,2.68,10s8.93-9.37,17.74-11.6c-8.34-8.35-12.72-17.33-15.88-19.66s-8.69-4-8.69-4,4.15,7.17,4.93,13.83c-3.85-2.89-6.14-3.11-6.14-3.11S139.21,178.81,140,185.21Z" />
        <path class="BUNTAI_RED_PANDA_BODY_BUNTAI_RED_PANDA_BODY_29_cls-8" d="M187.77,281.86h-.51A80.67,80.67,0,0,1,166,279c-2-.51-4-1.13-6.06-1.8q-2.66-.9-5.36-2h0c-2.86-1.13-5.74-2.38-8.65-3.83a1.11,1.11,0,0,1-.27-.13c-1.5-.71-3-1.5-4.54-2.34-.82-.42-1.64-.87-2.48-1.35l-2.42-1.4A.56.56,0,0,1,136,266c-1.14-.66-2.29-1.37-3.43-2.08a66.8,66.8,0,0,1-22.65-24.1l-.16-.27a6.63,6.63,0,0,1-.33-.65,42.87,42.87,0,0,1-2.31-5s0,0,0,0a5.55,5.55,0,0,1-.21-.57l-.09-.24s3.92-2,8.13-4.65v0a47.5,47.5,0,0,0,7.37-5.47.29.29,0,0,0,.17-.17,9.24,9.24,0,0,0,1.11-1.18,2.44,2.44,0,0,0,.27-.3l-1.25-.44c-.41-.13-.79-.29-1.14-.42-.73-.26-1.39-.52-2-.73-.79-.31-1.47-.6-2-.86-.27-.11-.54-.24-.76-.34-1-.45-1.55-.77-1.93-1l-.24-.16c-.33-.24-.36-.35-.36-.35h0l0,0c.35-.22,2.66-1.53,5.6-3.39,0,0,0,0,.08,0,1-.67,2.12-1.36,3.26-2.11a1,1,0,0,1,.19-.14c.27-.19.57-.39.85-.55v0a61.5,61.5,0,0,0,8.56-6.8c-1.28,1.7-3,4-4.81,6.2-2.2,2.85-4.38,5.54-5.39,6.56,9.39,3.22,20.59-10.56,21.38-11.52-.41.88-7.13,14.91-13.49,19,9.54,2.32,13.3-4.29,17.13-7.79,3.24-2.92-7.26,15.77-7.26,15.77l14.52.62a1.51,1.51,0,0,1,.3,0s0,0,0,0h0l0,0,0,0h.08v0a23.06,23.06,0,0,0,6.09,14.91l0,0a20.52,20.52,0,0,0,2.25,2.08,25.23,25.23,0,0,0,7.32,4v0c1,8.14,2.85,14,6.74,19.05v0l.08.08a39.33,39.33,0,0,0,8.08,7.57s.08.08.13.11C186.6,281,187.18,281.46,187.77,281.86Z" />
        <path d="M289.69,160l-.23.17-.86.53a1.43,1.43,0,0,0-.2.14l-.69.42-.89.56a1.66,1.66,0,0,1-.3.19c-.26.14-.39.23-.39.23s-4.62-3.19-24-10.73c-.58-.23-1.19-.49-1.83-.72a44.64,44.64,0,0,0-5.13-1.64c-19.5-5.2-47.55-2.33-47.55-2.33a143.81,143.81,0,0,1,28.35,3c-34.75-.6-63.66,13.53-64.78,14.1a.09.09,0,0,1-.08,0c-.05,0-.15,0-.3-.18l-.08-.08a6.7,6.7,0,0,1-1-1.91l.61-.39c.46-.3,1-.64,1.65-1,.31-.2.66-.4,1-.62s.84-.5,1.3-.76c2-1.15,4.5-2.47,7.47-3.85,1.14-.57,2.29-1.05,3.46-1.56,1-.45,2.06-.91,3.15-1.33s2.31-.94,3.48-1.35c2-.71,4-1.4,6.16-2.07a117.91,117.91,0,0,1,44-4.29c.73.07,1.45.14,2.16.23s1.52.16,2.29.26c3.53.44,6.91,1,10.06,1.73,2.57.57,5,1.2,7.3,1.86a105,105,0,0,1,10,3.38c1,.42,1.93.78,2.85,1.17,1.5.65,2.84,1.24,4.09,1.84.35.16.71.34,1.07.52a3.28,3.28,0,0,1,.45.24,2.44,2.44,0,0,1,.41.18s0,0,.05,0a.09.09,0,0,1,.08,0c.3.18.61.34.91.5.54.26,1,.55,1.48.78,1.47.84,2.62,1.52,3.38,2l.56.36s.05.06.08.06l.33.23A.7.7,0,0,1,289.69,160Z" />
        <path class="BUNTAI_RED_PANDA_BODY_BUNTAI_RED_PANDA_BODY_29_cls-8" d="M339,233.35s-5.55,11.24-12.44,17.05S306,268.8,306,268.8L294.18,276l-.45.2a47.84,47.84,0,0,1-8.11,5.67h-.34c.38-.4.74-.82,1.1-1.23,0,0,.06-.07.09-.1,3-8.83,9.5-17,8.71-26.73v0a15.59,15.59,0,0,0,4.69-4,16.17,16.17,0,0,0,1.41-2.08l0,0c3.72-6.41,3.4-14.32,3.37-14.92v0h.07v0l0,0h0s0,0,0,0a.46.46,0,0,1,.2,0l9.66-.62s-5.48-12.16-2.38-10.12,4.86,2.6,8.59,2.14c-4.43-4.06-5.07-11.7-5.37-12.58.57,1,8,7.15,10.29,5.14-.48-.68-1.36-2.13-2.37-3.87l6.8,4.59.22.64-.64.48a5.41,5.41,0,0,1-.5.35c-.37.26-.81.55-1.32.86s-.79.47-1.27.73l-.6.34-4.25,1.8,9.69,6.77,1.31.36c1.07.92,2.05,1.7,2.79,2.3Z" />
        <path class="BUNTAI_RED_PANDA_BODY_BUNTAI_RED_PANDA_BODY_29_cls-8" d="M263,273.55s-14.18,9.28-33.22,0c-13.23,5.78-25.95,2.2-31-1.67a76.09,76.09,0,0,0-10,13.91s10.74,6.74,12.88,9.82,11.9,6.13,23.16,8.19,27.45-.06,33.66-2A108.06,108.06,0,0,0,270.81,297L283,284.07l3.12-4.57-3.63-7.62S273,278.11,263,273.55Z" />
      </g>
      <g class="BUNTAI_RED_PANDA_BODY_BUNTAI_RED_PANDA_BODY_29_cls-9">
        <path class="BUNTAI_RED_PANDA_BODY_BUNTAI_RED_PANDA_BODY_29_cls-4" d="M179.83,167.9s-45.43-20.41-57-9.87c3.3-7.42,6.81-9.6,15.73-7.88S166.82,157.87,179.83,167.9Z" />
        <path class="BUNTAI_RED_PANDA_BODY_BUNTAI_RED_PANDA_BODY_29_cls-4" d="M138.71,198.55s5.46-1.72,7-1.52-7.18,9.18-12.33,11.87-7.91,2.38-7.91,2.38S136.89,202.92,138.71,198.55Z" />
        <path class="BUNTAI_RED_PANDA_BODY_BUNTAI_RED_PANDA_BODY_29_cls-4" d="M279.8,167.9s39.13-20.41,49.09-9.87c-2.84-7.42-5.86-9.6-13.55-7.88S291,157.87,279.8,167.9Z" />
        <path class="BUNTAI_RED_PANDA_BODY_BUNTAI_RED_PANDA_BODY_29_cls-4" d="M318.15,204.91l-.39.8-.18.36h0c-.39-.31-.78-.63-1.16-1l-.38-.33-.77-.67c-.62-.56-1.23-1.13-1.81-1.69-2.74-2.66-4.71-5.11-4.15-5.38l.08,0a4.82,4.82,0,0,1,1.09.05l.29,0a50.7,50.7,0,0,1,5.59,1.43,9.07,9.07,0,0,0,1.13,1.86h0s0,0,0,0a.09.09,0,0,1,0,0l-.24,3C317.5,203.94,317.81,204.42,318.15,204.91Z" />
        <path class="BUNTAI_RED_PANDA_BODY_BUNTAI_RED_PANDA_BODY_29_cls-4" d="M261.68,271.09s-11.52-4.78-14.1-5.46c-5.76.91-18,8.49-17.51,6.59s13.24-9.37,16.28-9.63l3.05-.26S258.19,267.3,261.68,271.09Z" />
        <g class="BUNTAI_RED_PANDA_BODY_BUNTAI_RED_PANDA_BODY_29_cls-9">
          <path class="BUNTAI_RED_PANDA_BODY_BUNTAI_RED_PANDA_BODY_29_cls-4" d="M292.76,162.21l-1,.67s-.16-.11-.49-.29l-.26-.17c-.18-.13-.42-.27-.7-.43-.65-.38-1.53-.89-2.59-1.45a.16.16,0,0,0-.12-.06c-.65-.35-1.37-.73-2.15-1.1a.09.09,0,0,0-.08,0s0,0,0,0a1.88,1.88,0,0,0-.41-.19,3.57,3.57,0,0,0-.47-.25q-.54-.29-1.08-.54c-1.27-.62-2.64-1.24-4.17-1.91-.93-.41-1.88-.78-2.89-1.21-3-1.16-6.41-2.38-10.19-3.48-2.33-.7-4.81-1.38-7.42-2a118.3,118.3,0,0,0-12.51-2.32c-.73-.11-1.45-.19-2.2-.27-3.72-.43-7.63-.73-11.69-.84a111.55,111.55,0,0,0-33.07,4.26c-2.17.62-4.26,1.27-6.25,1.95-1.19.37-2.38.83-3.55,1.26s-2.17.84-3.2,1.27c-1.19.49-2.35.94-3.52,1.48-3,1.33-5.56,2.59-7.6,3.7-.46.24-.9.48-1.32.73s-.72.4-1,.59c-.65.35-1.22.67-1.68,1l-.62.38a10.08,10.08,0,0,0-1,.62c.1-.27,1.08-2.4,4.47-5.26,3.75-3.18,10.47-7.25,22.31-10.68l.42-.13a117.17,117.17,0,0,1,21.72-3.94c3.07-.3,6.1-.43,9.07-.49,1.58,0,3.13,0,4.68,0h0c1.16,0,2.3.06,3.44.11a118.62,118.62,0,0,1,24.58,3.51h0a.88.88,0,0,1,.15,0,66.08,66.08,0,0,1,7.27,2.35,139.91,139.91,0,0,1,25,13A.73.73,0,0,1,292.76,162.21Z" />
        </g>
      </g>
      <path class="BUNTAI_RED_PANDA_BODY_BUNTAI_RED_PANDA_BODY_29_cls-11" d="M317.05,201l.39-.53a.09.09,0,0,0,0,0s0,0,0,0a65.79,65.79,0,0,0,8.85-17.7q.5-1.49.9-2.85c.26-.9.49-1.75.7-2.54A45.14,45.14,0,0,0,329,172.2c.16-1.38.29-2.72.35-4v0c0-.24,0-.47,0-.7s.05-.68.06-1c0-.53,0-1.06,0-1.58v-.11c0-.19,0-.38,0-.56,0-.85,0-1.67-.08-2.47s-.14-1.56-.25-2.29l-.12-.76a17.4,17.4,0,0,0-.94-3.44,12.42,12.42,0,0,0-.55-1.16,8.17,8.17,0,0,0-1.3-1.9,6.48,6.48,0,0,0-1.74-1.34,9.79,9.79,0,0,0-1.46-.61l-.11,0,0,0h0a14,14,0,0,0-2.5-.5l-.69,0h-.08l-.78,0h-.25a25.88,25.88,0,0,0-4.78.59,1,1,0,0,0-.25.06A39.49,39.49,0,0,0,309,151.5c-.76.26-1.53.54-2.3.84h0c-.78.3-1.55.62-2.32,1s-1.55.68-2.33,1l-1,.47-.17.08h0l-1.13.57-.7.35-.07,0c-1.26.65-2.5,1.32-3.71,2l-1.48.85c-.88.5-1.74,1-2.56,1.5h0l-.79.48-.88.56h0l-.26.16h0l-1.33.84h0a0,0,0,0,1,0,0h0l-.31.2a5.93,5.93,0,0,1-.66.41c-.65.44-1.25.82-1.81,1.22l-.2.14h0l-.13.1,0,0c-.31.2-.6.41-.87.56-.42.31-.82.59-1.2.85-1.28.89-2.25,1.6-2.8,2l0,0-.48.37h0" />
      <path class="BUNTAI_RED_PANDA_BODY_BUNTAI_RED_PANDA_BODY_29_cls-10" d="M159,277.07c-11.71-9.64-24.34-29-3.84-51,5.59,8.4,23.76,13,23.76,13s-29.7,16.33-2.74,41.75" />
      <path class="BUNTAI_RED_PANDA_BODY_BUNTAI_RED_PANDA_BODY_29_cls-21" d="M308.67,266.31c5.25-17-11.73-27.26-11.73-27.26s16.48-4.55,21.55-13c6.84,8.07,9.62,15.8,9.86,22.81" />
      <path class="BUNTAI_RED_PANDA_BODY_BUNTAI_RED_PANDA_BODY_29_cls-10" d="M189.26,284.85c.58-.83,2.17-2.93,2.84-3.81.44-.64.92-1.32,1.46-2s1.16-1.58,1.79-2.4,1.23-1.57,1.9-2.35,1.32-1.61,2.06-2.45a.79.79,0,0,1,.21-.27.75.75,0,0,1,.2-.21l.59-.71c1.11-1.26,2.26-2.53,3.51-3.79.91-.92,1.84-1.89,2.8-2.81a72.62,72.62,0,0,1,20.66-14.35c.68-.3,1.36-.57,2.07-.85s1.37-.53,2.09-.75c1.38-.46,2.78-.87,4.19-1.22a4.56,4.56,0,0,0,.64-.14c.54-.11,1-.19,1.59-.31l.36-.06c1.25-.19,2.48-.35,3.75-.45a1.47,1.47,0,0,0,.28,0c.72,0,1.46-.06,2.2-.08s1.48,0,2.23,0a43,43,0,0,1,4.35.42,40.77,40.77,0,0,1,5.88,1.47c1.24.43,2.41.92,3.57,1.45a37.52,37.52,0,0,1,6.33,3.74l1.45,1.09c.8.64,1.58,1.31,2.32,2l.36.32a55,55,0,0,1,4.72,5.11c.59.73,1.18,1.49,1.72,2.25.31.41.61.83.89,1.24a43.7,43.7,0,0,1,2.57,4,.31.31,0,0,1,.12.14,1.35,1.35,0,0,1,.15.26,81.8,81.8,0,0,1,4.19,8.08c.31.7.59,1.37.87,2l.1.25" />
      <path class="BUNTAI_RED_PANDA_BODY_BUNTAI_RED_PANDA_BODY_29_cls-10" d="M231.34,142.64s-1,0-2.63.06h-.13c-.77,0-1.7.05-2.78.12h-.13c-.26,0-.56,0-.85.06-1.59.07-3.42.23-5.46.43a129.28,129.28,0,0,0-22.16,4.23c-.13.05-.26.07-.42.12a78.25,78.25,0,0,0-22.22,10.2,56.23,56.23,0,0,0-5.61,4.4" />
      <path class="BUNTAI_RED_PANDA_BODY_BUNTAI_RED_PANDA_BODY_29_cls-10" d="M167.39,183.52s-8,3.62-14-8.54-18.9-16.27-18.9-16.27l2.3,6.24-8.54,1,2.79,3.62s-1.81,11.83,2.14,18.24" />
      <path class="BUNTAI_RED_PANDA_BODY_BUNTAI_RED_PANDA_BODY_29_cls-10" d="M130.67,205.62a2.06,2.06,0,0,1-.13-.33,194.28,194.28,0,0,1-7.16-22.87c-.8-3.4-1.49-6.87-2-10.22-.18-1.39-.33-2.73-.41-4a34.05,34.05,0,0,1-.15-4,28.35,28.35,0,0,1,.38-4.76,14.4,14.4,0,0,1,1.86-5.36,7.78,7.78,0,0,1,3.52-3.24,14.64,14.64,0,0,1,4.79-1.16c.59-.05,1.19-.08,1.8-.08h.29a33.39,33.39,0,0,1,5.53.59,2,2,0,0,1,.29.05c6.79,1.29,14.42,4.38,21.14,7.65l1.69.85c2.45,1.18,4.72,2.42,6.78,3.55,0,0,0,0,0,0l.36.21c.26.15.52.28.77.41.75.43,1.45.82,2.09,1.21l.23.15h0a1.74,1.74,0,0,1,.2.13c.36.21.7.41,1,.57.49.31,1,.59,1.39.85,2.42,1.46,3.86,2.42,3.86,2.42" />
      <path class="BUNTAI_RED_PANDA_BODY_BUNTAI_RED_PANDA_BODY_29_cls-10" d="M186,281.56l-2.67-.37h-.26a67.12,67.12,0,0,1-8.83-.61c-1-.14-2-.28-3-.44-1.36-.24-2.7-.49-4-.8-.88-.18-1.73-.38-2.57-.62a.59.59,0,0,1-.21-.05h0l-.31-.08c-2.26-.59-4.48-1.29-6.61-2.06-.33-.1-.67-.23-1-.36l-.09,0c-1.53-.57-3-1.17-4.46-1.83l-.16-.08h0c-1.11-.49-2.19-1-3.28-1.54-.66-.32-1.31-.65-1.92-1-.95-.49-1.88-1-2.81-1.55l-.26-.12c-.64-.37-1.29-.75-1.9-1.14a15.7,15.7,0,0,1-1.39-.85c-1-.59-2-1.26-3-1.91a95.57,95.57,0,0,1-9.33-7.1c-.31-.26-.61-.54-.9-.8-.44-.38-.88-.79-1.31-1.18h0v0c-1-.9-1.92-1.77-2.85-2.67s-1.91-1.94-2.78-2.89l-1.6-1.73c-1.91-2.08-3.6-4.14-5.13-6.09s-2.75-3.74-3.85-5.44q-1.47-2.25-2.48-4.17a.09.09,0,0,1,0-.06l-.28-.5s.06,0,.08,0a38.36,38.36,0,0,0,7.26-3.87c5.28-3.31,10.61-7.41,10.61-7.41s-2,.08-5.9-1.57a38,38,0,0,1-5-2.58l0,0a16.92,16.92,0,0,0,2.76-1.29s0,0,.05,0,0,0,0-.05a49,49,0,0,0,5.61-3.78,1,1,0,0,1,.18-.13l.91-.69v0c.43-.33.87-.67,1.31-1,1.26-1,2.49-2.08,3.71-3.14.05-.05.09-.11.15-.13.79-.72,1.57-1.39,2.32-2.09h0c.77-.69,1.5-1.33,2.19-2l.08-.08,0,0c1.95-1.8,3.55-3.32,4.48-4.28a.13.13,0,0,0,.07,0c.1-.08.18-.19.26-.26s.23-.23.33-.31l.34-.33" />
      <path class="BUNTAI_RED_PANDA_BODY_BUNTAI_RED_PANDA_BODY_29_cls-10" d="M291.26,160.21h0a53.84,53.84,0,0,0-4.81-3.43q-2.22-1.42-4.54-2.65c-.77-.41-1.54-.83-2.34-1.18-1.52-.75-3-1.45-4.61-2.09a.44.44,0,0,1-.15-.05c-2.17-.91-4.35-1.68-6.54-2.37-.72-.23-1.45-.47-2.16-.67-1.14-.36-2.27-.67-3.38-1-.61-.16-1.24-.34-1.85-.47a.12.12,0,0,0-.08,0c-1.57-.39-3.11-.75-4.64-1-3.36-.7-6.58-1.21-9.49-1.58-1.76-.23-3.4-.4-4.92-.54-6-.56-9.92-.54-10.38-.54h0" />
      <path class="BUNTAI_RED_PANDA_BODY_BUNTAI_RED_PANDA_BODY_29_cls-10" d="M293.72,183.28a29.81,29.81,0,0,0,7.25-9,30.84,30.84,0,0,1,17.16-15.56l-2.3,6.24,8.54,1-2.79,3.62s1.81,11.83-2.14,18.24" />
      <path class="BUNTAI_RED_PANDA_BODY_BUNTAI_RED_PANDA_BODY_29_cls-10" d="M314.27,198.31h0v0s0,0,0,.05a0,0,0,0,1,0,0,.36.36,0,0,1,.05.09c.13.26.38.77.75,1.47l.15.27q.24.41.51.9c.34.58.74,1.24,1.19,2h0c.08.11.15.23.23.36.3.45.61.93.95,1.42.16.24.33.48.51.73a44.83,44.83,0,0,0,7.29,8.11c.21.19.42.37.64.54.44.37.88.72,1.34,1,.23.18.46.34.69.5.46.33.94.64,1.43.93a6.11,6.11,0,0,0,.65.38.59.59,0,0,0,.17.1c.21.13.43.25.65.36l.78.4s0,0,0,0h0l-.26.15-.28.15c-.15.09-.3.18-.46.26l-.44.26a36.57,36.57,0,0,1-4.69,2.19h0a19.65,19.65,0,0,1-2.73.84,8.64,8.64,0,0,1-2,.28l.49.38c.14.09.31.22.51.37l.25.19.16.12.05,0,.53.4L325,224.8l.06,0,0,0c1.66,1.19,3.74,2.66,5.87,4.06l.41.26.24.15h0l1.58,1c.52.31,1,.61,1.53.89l0,0a35.38,35.38,0,0,0,3.18,1.66l.21.09.11.05.59.24.15.06h0l.26.1h.08l0,.06a3.7,3.7,0,0,1-.25.43s0,0,0,0a.25.25,0,0,1,0,.07c-.15.28-.3.57-.47.87-.35.64-.74,1.3-1.16,2s-.88,1.39-1.36,2.12l-.13.2c-.69,1-1.44,2.08-2.26,3.18h0l-.07.11a.76.76,0,0,0-.08.11c-.8,1.06-1.65,2.16-2.56,3.28-.45.55-.91,1.1-1.39,1.66l-1.17,1.33c-.59.67-1.21,1.35-1.84,2s-1.08,1.14-1.63,1.71l-.82.85-.88.85-.7.69-.71.68-.72.68-.26.24-.49.44h0l-.24.23-.1.09a.6.6,0,0,1-.12.11l-.16.16-.65.57c-.28.25-.59.54-.89.79l-1.43,1.22c-.48.4-1,.79-1.47,1.18h0l-.26.21-1,.77c-.53.41-1.2.91-2,1.5l-.62.45-1.35,1-.74.53-.5.35h0l-.08.06-1.85,1.31h0l-3.74,2.58h0l-3.13,2.1h0l-3.14,2-1.43.92-1.18.74-.05,0,0,0h0l-.65.4h0l0,0c-1.84,1.14-3.75,2.29-5.7,3.44l-.07,0-.07,0,0,0-.07,0h0l-.85.49h0" />
      <path class="BUNTAI_RED_PANDA_BODY_BUNTAI_RED_PANDA_BODY_29_cls-10" d="M177.22,272.25s3.93,4.37,8.77,9.31c1,1.08,2.16,2.19,3.27,3.29a86.15,86.15,0,0,0,10.42,9.07c5.34,3.57,15,11.69,45.36,10.39,19.26-.82,34.26-13.85,41.7-23.34l.69-.9a65.35,65.35,0,0,0,5.21-7.82" />
      <path class="BUNTAI_RED_PANDA_BODY_BUNTAI_RED_PANDA_BODY_29_cls-10" d="M247.29,286.09c-4.84,2.49-9.94,1.88-12.9-.18a11.7,11.7,0,0,1-2.32-2.12c-.07-.1-.18-.2-.25-.3a9.25,9.25,0,0,1-.7-1,9.76,9.76,0,0,1-.75-1.39,12,12,0,0,1-1-3.22c-.05-.28-.07-.59-.1-.88a8.34,8.34,0,0,1,.21-2.8v0c.08-.2.13-.41.2-.62v0a4.58,4.58,0,0,1,.65-1.42c4-6.33,15-9.14,15-9.14" />
      <path d="M232.07,283.79h0l-.23-.3a9.25,9.25,0,0,1-.7-1,9.76,9.76,0,0,1-.75-1.39,12,12,0,0,1-1-3.22c-.05-.28-.07-.59-.1-.88a8.34,8.34,0,0,1,.21-2.8v0a4,4,0,0,1,.18-.64l0,0c2.06,2.19,5.75,5.54,9,5.54C243.15,279.11,240.44,286.32,232.07,283.79Z" />
      <path d="M260.55,283.79c-8.39,2.55-11.07-4.68-6.57-4.68,3.25,0,7-3.37,9-5.56C264.05,276.64,263.05,280.78,260.55,283.79Z" />
      <path class="BUNTAI_RED_PANDA_BODY_BUNTAI_RED_PANDA_BODY_29_cls-10" d="M245.31,263s13,2.81,17,9.14a4.8,4.8,0,0,1,.64,1.42c1.08,3.09.08,7.23-2.42,10.24a11.43,11.43,0,0,1-2.32,2.12c-3,2.06-6.08,2.67-10.92.18" />
      <path class="BUNTAI_RED_PANDA_BODY_BUNTAI_RED_PANDA_BODY_29_cls-13" d="M246.31,293.56a15.4,15.4,0,0,0,9.75,1.24c5.91-1.23,7.34-5.28,7.34-5.28" />
      <path class="BUNTAI_RED_PANDA_BODY_BUNTAI_RED_PANDA_BODY_29_cls-13" d="M246.31,293.56a15.4,15.4,0,0,1-9.75,1.24c-5.91-1.23-7.35-5.28-7.35-5.28" />
      <path class="BUNTAI_RED_PANDA_BODY_BUNTAI_RED_PANDA_BODY_29_cls-14" d="M246.28,293.63s3.2-10.47,0-21.1" />
    </g>
  </g>
</svg>