<svg xmlns="http://www.w3.org/2000/svg" viewBox="0 0 432 432">
  <defs>
    <style>.GUNDAN_OWL_OUTFIT_GUNDAN_OWL_OUTFIT_19_cls-1{isolation:isolate;}.GUNDAN_OWL_OUTFIT_GUNDAN_OWL_OUTFIT_19_cls-2{fill:#ad4036;}.GUNDAN_OWL_OUTFIT_GUNDAN_OWL_OUTFIT_19_cls-3{fill:#2b3e59;}.GUNDAN_OWL_OUTFIT_GUNDAN_OWL_OUTFIT_19_cls-4{fill:#24123b;}.GUNDAN_OWL_OUTFIT_GUNDAN_OWL_OUTFIT_19_cls-5{fill:#213b28;}.GUNDAN_OWL_OUTFIT_GUNDAN_OWL_OUTFIT_19_cls-6{fill:#fff;}.GUNDAN_OWL_OUTFIT_GUNDAN_OWL_OUTFIT_19_cls-7{fill:#80a3a2;}.GUNDAN_OWL_OUTFIT_GUNDAN_OWL_OUTFIT_19_cls-8{fill:#38311f;}.GUNDAN_OWL_OUTFIT_GUNDAN_OWL_OUTFIT_19_cls-9{fill:none;stroke:#000;stroke-linecap:round;stroke-linejoin:round;stroke-width:1.86px;}.GUNDAN_OWL_OUTFIT_GUNDAN_OWL_OUTFIT_19_cls-10{opacity:0.22;mix-blend-mode:multiply;}</style>
  </defs>
  <g class="GUNDAN_OWL_OUTFIT_GUNDAN_OWL_OUTFIT_19_cls-1">
    <g id="oufit">
      <path class="GUNDAN_OWL_OUTFIT_GUNDAN_OWL_OUTFIT_19_cls-2" d="M236,419.16a8.11,8.11,0,0,1-.11,2.26c-.46,2.59-1.33,7.28-2.43,11.54a0,0,0,0,1,0,0,9,9,0,0,0-.94,3.3v0a27.56,27.56,0,0,1-1.29,3.45l.59.26c1.95.89,4.94,1.66,6.64-.66,2,.61,4.3,1.25,6.75,1.86,0,0-1.33,4.35-4.68,5-1.84.36-8.27-.33-14-1.46-.79-.16-1.56-.31-2.3-.48-.49-12.12,4.19-32.48,4.19-32.48,1.31.14,2.69.28,4.11.46,6.12.75,12.66,1.86,14.71,2.77,4,1.76,2.46,7,2.46,7-.39,0-.75.06-1.08.07a21.84,21.84,0,0,0-5.62.84,4,4,0,0,0-2.15-3.62C239.47,418.66,237.49,418.85,236,419.16Z" />
      <path class="GUNDAN_OWL_OUTFIT_GUNDAN_OWL_OUTFIT_19_cls-3" d="M219.48,413.32a3.65,3.65,0,0,1,.87-1.75c.64-.32,3.92-.17,8,.23,0,0-4.68,20.36-4.19,32.48-3.77-.84-6.92-1.86-7.75-2.86-1-1.21-.63-7.32.22-13.71.21-1.57.46-3.15.71-4.67A78.47,78.47,0,0,1,219.48,413.32Z" />
      <path class="GUNDAN_OWL_OUTFIT_GUNDAN_OWL_OUTFIT_19_cls-2" d="M296.12,413.32a5.43,5.43,0,0,0-.57,0,26.22,26.22,0,0,0-5.2.61,26.65,26.65,0,0,0-9.77,4.35,25.33,25.33,0,0,0-3.34,2.79A27.46,27.46,0,0,0,269,440.78a25.2,25.2,0,0,0,.23,3.5,27.25,27.25,0,0,0,24.68,23.86l0-1.69c-9-1.44-16.22-8.87-18.12-18.47a25.12,25.12,0,0,1-.47-3.7q0-.69,0-1.38a24.8,24.8,0,0,1,6.85-17.32,19.29,19.29,0,0,1,2.19-2,20.6,20.6,0,0,1,8.29-4,18.26,18.26,0,0,1,2.95-.44c.51,0,1-.07,1.55-.07a3.23,3.23,0,0,1,.22-.41c.29-1.74.6-3.49.95-5.24C297.57,413.36,296.84,413.32,296.12,413.32Z" />
      <path class="GUNDAN_OWL_OUTFIT_GUNDAN_OWL_OUTFIT_19_cls-3" d="M297.1,419.08c-.52,0-1,0-1.55.07a18.26,18.26,0,0,0-2.95.44,20.6,20.6,0,0,0-8.29,4,19.29,19.29,0,0,0-2.19,2,24.8,24.8,0,0,0-6.85,17.32q0,.69,0,1.38a25.12,25.12,0,0,0,.47,3.7c1.9,9.6,9.12,17,18.12,18.47a265.21,265.21,0,0,1,3.37-47.37Z" />
      <path class="GUNDAN_OWL_OUTFIT_GUNDAN_OWL_OUTFIT_19_cls-3" d="M295,409.71a31.55,31.55,0,0,0-22.84,9.65,30.17,30.17,0,0,0-6.82,11.14,28.75,28.75,0,0,0-1.21,4.75,30.34,30.34,0,0,0-.07,9.5c2.21,14.37,14.72,25.45,30,25.9,0-.83-.05-1.67-.08-2.51a27.25,27.25,0,0,1-24.68-23.86,25.2,25.2,0,0,1-.23-3.5,27.46,27.46,0,0,1,8.23-19.69,25.33,25.33,0,0,1,3.34-2.79,26.65,26.65,0,0,1,9.77-4.35,26.22,26.22,0,0,1,5.2-.61,5.43,5.43,0,0,1,.57,0c.72,0,1.45,0,2.15.11.22-1.16.43-2.31.69-3.47A29.18,29.18,0,0,0,295,409.71Z" />
      <path class="GUNDAN_OWL_OUTFIT_GUNDAN_OWL_OUTFIT_19_cls-4" d="M153.65,408.55h0c6,3.53,43.22,10.92,62.11,14.51-6.13.1-44.78-.05-59.62-3.39l-.42-.1q.71,4.29,1.24,8.54c.82.21,1.87.45,3.11.72,6.22,1.36,40.46,3.37,51.58,3.42h0c1.67-1.5,3.32-3,5-4.55.21-1.57.46-3.15.71-4.67a78.47,78.47,0,0,1,2.14-9.72c-23.84-5.62-63.16-14.28-69-17.75C151.68,399.9,152.73,404.24,153.65,408.55Z" />
      <path class="GUNDAN_OWL_OUTFIT_GUNDAN_OWL_OUTFIT_19_cls-4" d="M250.1,422l-.47,0c-.39,0-.75.06-1.08.07a21.84,21.84,0,0,0-5.62.84h0c-2.39.79-3.47,2.12-3.47,4.09,0,2.95.64,4,.72,4.09-.4-.11-.76-.21-1.07-.32a4.25,4.25,0,0,0-5.65,2.11,0,0,0,0,1,0,0c-.29,1.15-.6,2.27-.94,3.3v0a7.08,7.08,0,0,0,0,.9,16.79,16.79,0,0,0,1.63.71c1.14.43,2.62.93,4.33,1.44,2,.61,4.3,1.25,6.75,1.86A127.59,127.59,0,0,0,264,444.75a30.34,30.34,0,0,1,.07-9.5s-12.75-1.66-20.51-3.27a128.12,128.12,0,0,0,21.71-1.48h0a30.17,30.17,0,0,1,6.82-11.14S257.33,421.5,250.1,422Z" />
      <path class="GUNDAN_OWL_OUTFIT_GUNDAN_OWL_OUTFIT_19_cls-5" d="M157,428.12q-.54-4.25-1.24-8.54c-.05-.3-.09-.6-.14-.9v0a34.34,34.34,0,0,0-6.86-8.46c-.27-.23-.52-.45-.8-.67a219.23,219.23,0,0,1-1.19,82.8h10.62c.54-4.68,1-9.79,1.29-15.26h0c.35-6.41.51-13.29.38-20.52A268.46,268.46,0,0,0,157,428.12Z" />
      <path class="GUNDAN_OWL_OUTFIT_GUNDAN_OWL_OUTFIT_19_cls-5" d="M305,409.52c-.26.22-.53.44-.79.68a34.43,34.43,0,0,0-6.87,8.47l-.06.41a265.21,265.21,0,0,0-3.37,47.37l0,1.69c0,.84.05,1.68.08,2.51.26,7.9.83,15.21,1.57,21.68h10.61A219.49,219.49,0,0,1,305,409.52Z" />
      <path class="GUNDAN_OWL_OUTFIT_GUNDAN_OWL_OUTFIT_19_cls-5" d="M386.38,422.69c-.36-1-.84-2.08-1.87-2.34a2.7,2.7,0,0,0-1.89.37,7.28,7.28,0,0,0-1.49,1,27.76,27.76,0,0,0,2.11,5.57,15.7,15.7,0,0,1-5.7,5.89,31.93,31.93,0,0,1-9.44,3.6,12.27,12.27,0,0,0-1.12,2.83,149.18,149.18,0,0,1-17.38,9.47A59.67,59.67,0,0,1,331,454.18a59.63,59.63,0,0,0-.46-9.15,13,13,0,0,0-1-4,5.12,5.12,0,0,0-3-2.73,5.19,5.19,0,0,0-5.07,1.76,12,12,0,0,0-2.34,5,42.53,42.53,0,0,0-1.36,8.16,31.56,31.56,0,0,1-9-3.76q.24,5.54.47,11.06a34.24,34.24,0,0,0,18,4.09,52.41,52.41,0,0,0,14.28-2.4c9.64-3,18.31-8.3,26.74-13.81l0,.06a7,7,0,0,0,4.28,3.3,20.31,20.31,0,0,0,9.23-5l.14-.12v0a58.81,58.81,0,0,0,6.86-7.67l2.17-2.72C389.33,431.74,388,427.19,386.38,422.69Zm-12,23.63a4.25,4.25,0,1,1,4.37-4.25A4.31,4.31,0,0,1,374.4,446.32Z" />
      <path class="GUNDAN_OWL_OUTFIT_GUNDAN_OWL_OUTFIT_19_cls-5" d="M133.81,445a11.88,11.88,0,0,0-2.35-5,5.17,5.17,0,0,0-5.06-1.76,5,5,0,0,0-3,2.73,12.22,12.22,0,0,0-1,4,60.91,60.91,0,0,0-.45,9.15,59.59,59.59,0,0,1-18.6-5.08,146.78,146.78,0,0,1-17.38-9.47h0a12.5,12.5,0,0,0-1.13-2.82,32,32,0,0,1-9.43-3.6,15.88,15.88,0,0,1-5.71-5.89,28.75,28.75,0,0,0,2.12-5.58,8,8,0,0,0-1.49-1,2.7,2.7,0,0,0-1.89-.37c-1,.26-1.52,1.37-1.87,2.34-1.59,4.5-3,9.05-4.56,13.56L64.13,439a60.56,60.56,0,0,0,6.88,7.7l.12.11a20.32,20.32,0,0,0,9.25,5,7,7,0,0,0,4.26-3.3.13.13,0,0,1,0-.06c8.43,5.51,17.09,10.85,26.75,13.81a52.1,52.1,0,0,0,14.28,2.4,34.14,34.14,0,0,0,18-4.09c.16-3.68.33-7.37.47-11.06a31.63,31.63,0,0,1-9,3.77A42,42,0,0,0,133.81,445Zm-55.63,1.28a4.25,4.25,0,1,1,4.36-4.25A4.32,4.32,0,0,1,78.18,446.32Z" />
      <path class="GUNDAN_OWL_OUTFIT_GUNDAN_OWL_OUTFIT_19_cls-6" d="M272.67,364.61c-1.05,1.44-2.1,2.86-3.16,4.28-5.18-1.77-13.45-4.09-21.06-4-9.36.07-17.72,4-24.67,5.47-2.14-2-4.26-4-6.33-6A83.34,83.34,0,0,0,235,361.44c9.35-2.83,25.42-1.57,33.35,1.53C270.13,363.66,271.55,364.2,272.67,364.61Z" />
      <path class="GUNDAN_OWL_OUTFIT_GUNDAN_OWL_OUTFIT_19_cls-6" d="M240.78,419.36c-1.31-.7-3.29-.51-4.78-.2a8.11,8.11,0,0,1-.11,2.26c-.46,2.59-1.33,7.28-2.43,11.54a4.25,4.25,0,0,1,5.65-2.11c.31.11.67.21,1.07.32-.08-.12-.72-1.14-.72-4.09,0-2,1.08-3.3,3.47-4.09h0A4,4,0,0,0,240.78,419.36Z" />
      <path class="GUNDAN_OWL_OUTFIT_GUNDAN_OWL_OUTFIT_19_cls-6" d="M216.41,441.42c-1-1.21-.63-7.32.22-13.71-1.65,1.53-3.3,3.05-5,4.55h0c-9.45,8.51-42.46,16.62-52.64,24.28.13,7.23,0,14.11-.38,20.52,15.83-9.44,54-20.28,67.83-32.3-.79-.16-1.56-.31-2.3-.48C220.39,443.44,217.24,442.42,216.41,441.42Z" />
      <path class="GUNDAN_OWL_OUTFIT_GUNDAN_OWL_OUTFIT_19_cls-6" d="M313.14,321.3a108.25,108.25,0,0,1-8.11-8.49,429.15,429.15,0,0,1-32.36,51.8c-1.05,1.44-2.1,2.86-3.16,4.28q-9,12.11-18.91,23.56a306.28,306.28,0,0,1-26.82-22.11c-2.14-2-4.26-4-6.33-6-16.76-16.4-54.75-34.66-67.22-54.36A110.9,110.9,0,0,1,140.05,321a2.26,2.26,0,0,0,.17.35c17.58,33.51,66.73,62.83,98.16,84.68q-2.92,3.13-5.92,6.2c6.12.75,12.66,1.86,14.71,2.77,4,1.76,2.46,7,2.46,7l.47,0a309.7,309.7,0,0,0,63.43-100.37Z" />
      <path class="GUNDAN_OWL_OUTFIT_GUNDAN_OWL_OUTFIT_19_cls-7" d="M269.51,368.89c-5.18-1.77-13.45-4.09-21.06-4-9.36.07-17.72,4-24.67,5.47a306.28,306.28,0,0,0,26.82,22.11Q260.47,381,269.51,368.89Z" />
      <path class="GUNDAN_OWL_OUTFIT_GUNDAN_OWL_OUTFIT_19_cls-7" d="M265.31,430.5h0A128.12,128.12,0,0,1,243.59,432c7.76,1.61,20.51,3.27,20.51,3.27A28.75,28.75,0,0,1,265.31,430.5Z" />
      <path class="GUNDAN_OWL_OUTFIT_GUNDAN_OWL_OUTFIT_19_cls-7" d="M320.8,327.9q-3.76-3-7.27-6.23A309.7,309.7,0,0,1,250.1,422c7.23-.54,22-2.68,22-2.68A31.55,31.55,0,0,1,295,409.71a29.18,29.18,0,0,1,4,.25,207.83,207.83,0,0,1,5.8-22.22c3.92-12.19,11.07-23.21,15.27-35.31C322.78,344.5,327.5,333.14,320.8,327.9Z" />
      <path class="GUNDAN_OWL_OUTFIT_GUNDAN_OWL_OUTFIT_19_cls-7" d="M215.76,423.07c-18.89-3.59-56.15-11-62.11-14.51.72,3.39,1.35,6.76,1.92,10.1v0c.19.32.38.66.56,1C171,423,209.63,423.17,215.76,423.07Z" />
      <path class="GUNDAN_OWL_OUTFIT_GUNDAN_OWL_OUTFIT_19_cls-7" d="M211.65,432.26c-11.12-.05-45.36-2.06-51.58-3.42-1.24-.27-2.29-.51-3.11-.72a268.46,268.46,0,0,1,2,28.42C169.19,448.88,202.2,440.77,211.65,432.26Z" />
      <path class="GUNDAN_OWL_OUTFIT_GUNDAN_OWL_OUTFIT_19_cls-7" d="M219.48,413.32a3.65,3.65,0,0,1,.87-1.75c.64-.32,3.92-.17,8,.23,1.31.14,2.69.28,4.11.46q3-3.08,5.92-6.2c-31.43-21.85-80.58-51.17-98.16-84.68a3.55,3.55,0,0,0-.47-.08c-2.45,2.32-5,4.51-7.66,6.6-6.69,5.24-2,16.6.79,24.53,4.18,12.1,11.34,23.12,15.25,35.31.84,2.61,1.62,5.21,2.33,7.82h0C156.32,399,195.64,407.7,219.48,413.32Z" />
      <path class="GUNDAN_OWL_OUTFIT_GUNDAN_OWL_OUTFIT_19_cls-8" d="M381.13,421.74c-1.73-6.33-1.6-13.29-1.11-19.91.7-9.59,2-19.52-1.31-28.6-1.78-5-4.82-9.42-7.85-13.81-1.27-1.87-2.22-4.15-3.5-6-3.52.51-7.09-.87-10-2.81s-5.46-4.46-8.25-6.61a41.17,41.17,0,0,0-10-5.63,3.24,3.24,0,0,0-.13-.41,9.56,9.56,0,0,0-6.15-6.2,8.69,8.69,0,0,0-.36-7.14,9.08,9.08,0,0,0-5.73-4.47,18.45,18.45,0,0,0-7.43.18c-1.86.31-3.72.6-5.59.9a3.66,3.66,0,0,1-.18.46q3.51,3.27,7.27,6.23c6.7,5.24,2,16.6-.77,24.53-4.2,12.1-11.35,23.12-15.27,35.31A207.83,207.83,0,0,0,299,410c-.26,1.16-.47,2.31-.69,3.47-.35,1.75-.66,3.5-.95,5.24a34.43,34.43,0,0,1,6.87-8.47c.26-.24.53-.46.79-.68a35.15,35.15,0,0,1,3.59-2.54,35.15,35.15,0,0,0-3.59,2.54,219.49,219.49,0,0,0,1.2,82.81h22.25a17.17,17.17,0,0,1-1.19-3.25,13.64,13.64,0,0,1,.05-4.23c.35-3,1.49-6.44.48-9.26a13.23,13.23,0,0,0-3.75-5.47,7.34,7.34,0,0,0,2.91-2.94,5.66,5.66,0,0,0,.27-2.59,34.24,34.24,0,0,1-18-4.09q-.22-5.52-.47-11.06a31.56,31.56,0,0,0,9,3.76,42.53,42.53,0,0,1,1.36-8.16,12,12,0,0,1,2.34-5,5.19,5.19,0,0,1,5.07-1.76,5.12,5.12,0,0,1,3,2.73,13,13,0,0,1,1,4,59.63,59.63,0,0,1,.46,9.15,59.67,59.67,0,0,0,18.59-5.08A149.18,149.18,0,0,0,367,439.63a12.27,12.27,0,0,1,1.12-2.83,31.93,31.93,0,0,0,9.44-3.6,15.7,15.7,0,0,0,5.7-5.89A27.76,27.76,0,0,1,381.13,421.74Z" />
      <path class="GUNDAN_OWL_OUTFIT_GUNDAN_OWL_OUTFIT_19_cls-8" d="M155.57,418.66c-.57-3.34-1.2-6.71-1.92-10.1h0c-.92-4.31-2-8.65-3.19-13h0c-.71-2.61-1.49-5.21-2.33-7.82-3.91-12.19-11.07-23.21-15.25-35.31-2.76-7.93-7.48-19.29-.79-24.53,2.66-2.09,5.21-4.28,7.66-6.6l-6.16-1a18.44,18.44,0,0,0-7.43-.18,9.07,9.07,0,0,0-5.71,4.47,8.65,8.65,0,0,0-.38,7.14,9.63,9.63,0,0,0-6.15,6.2c0,.13-.09.27-.13.41h0a40.64,40.64,0,0,0-10,5.62c-2.81,2.15-5.31,4.66-8.27,6.61s-6.5,3.32-10,2.81c-1.29,1.87-2.22,4.15-3.51,6-3,4.39-6.07,8.83-7.85,13.81-3.24,9.08-2,19-1.3,28.6.48,6.62.61,13.57-1.11,19.9a28.75,28.75,0,0,1-2.12,5.58,15.88,15.88,0,0,0,5.71,5.89,32,32,0,0,0,9.43,3.6,12.5,12.5,0,0,1,1.13,2.82h0a146.78,146.78,0,0,0,17.38,9.47,59.59,59.59,0,0,0,18.6,5.08,60.91,60.91,0,0,1,.45-9.15,12.22,12.22,0,0,1,1-4,5,5,0,0,1,3-2.73,5.17,5.17,0,0,1,5.06,1.76,11.88,11.88,0,0,1,2.35,5,42,42,0,0,1,1.35,8.17,31.63,31.63,0,0,0,9-3.77c-.14,3.69-.31,7.38-.47,11.06a34.14,34.14,0,0,1-18,4.09,5.28,5.28,0,0,0,.26,2.59,7.34,7.34,0,0,0,2.91,2.94,13.33,13.33,0,0,0-3.75,5.47c-1,2.82.12,6.3.47,9.26a13.64,13.64,0,0,1,.06,4.23,17.17,17.17,0,0,1-1.19,3.25h22.25a219.23,219.23,0,0,0,1.19-82.8,35,35,0,0,0-3.57-2.55,35,35,0,0,1,3.57,2.55c.28.22.53.44.8.67A34.34,34.34,0,0,1,155.57,418.66Z" />
      <path class="GUNDAN_OWL_OUTFIT_GUNDAN_OWL_OUTFIT_19_cls-9" d="M155.58,418.68c0,.3.09.6.14.9q.71,4.29,1.24,8.54a268.46,268.46,0,0,1,2,28.42c.13,7.23,0,14.11-.38,20.52" />
      <path class="GUNDAN_OWL_OUTFIT_GUNDAN_OWL_OUTFIT_19_cls-9" d="M153.65,408.56c.72,3.39,1.35,6.76,1.92,10.1" />
      <path class="GUNDAN_OWL_OUTFIT_GUNDAN_OWL_OUTFIT_19_cls-9" d="M150.46,395.57c1.22,4.33,2.27,8.67,3.19,13" />
      <path class="GUNDAN_OWL_OUTFIT_GUNDAN_OWL_OUTFIT_19_cls-9" d="M150.23,310A110.9,110.9,0,0,1,140.05,321l-.3.27c-2.45,2.32-5,4.51-7.66,6.6-6.69,5.24-2,16.6.79,24.53,4.18,12.1,11.34,23.12,15.25,35.31.84,2.61,1.62,5.21,2.33,7.82" />
      <path class="GUNDAN_OWL_OUTFIT_GUNDAN_OWL_OUTFIT_19_cls-9" d="M113.79,338.35c0-.14.08-.28.13-.41a9.63,9.63,0,0,1,6.15-6.2,8.65,8.65,0,0,1,.38-7.14,9.07,9.07,0,0,1,5.71-4.47,18.44,18.44,0,0,1,7.43.18l6.16,1a3.55,3.55,0,0,1,.47.08" />
      <path class="GUNDAN_OWL_OUTFIT_GUNDAN_OWL_OUTFIT_19_cls-9" d="M156.14,419.68c-.18-.34-.37-.68-.56-1v0a34.34,34.34,0,0,0-6.86-8.46c-.27-.23-.52-.45-.8-.67a35,35,0,0,0-3.57-2.55,45.92,45.92,0,0,0-10-4.43,122.15,122.15,0,0,0-15.87-4c-4.38-11-4.71-23.13-5-34.95q-.19-8.52-.38-17a26.66,26.66,0,0,1,.64-8.18" />
      <path class="GUNDAN_OWL_OUTFIT_GUNDAN_OWL_OUTFIT_19_cls-9" d="M113.79,338.35h0a40.64,40.64,0,0,0-10,5.62c-2.81,2.15-5.31,4.66-8.27,6.61s-6.5,3.32-10,2.81c-1.29,1.87-2.22,4.15-3.51,6-3,4.39-6.07,8.83-7.85,13.81-3.24,9.08-2,19-1.3,28.6.48,6.62.61,13.57-1.11,19.9a28.75,28.75,0,0,1-2.12,5.58" />
      <path class="GUNDAN_OWL_OUTFIT_GUNDAN_OWL_OUTFIT_19_cls-9" d="M85.92,439.62a12.5,12.5,0,0,0-1.13-2.82,32,32,0,0,1-9.43-3.6,15.88,15.88,0,0,1-5.71-5.89,9.22,9.22,0,0,1-.69-1.58" />
      <path class="GUNDAN_OWL_OUTFIT_GUNDAN_OWL_OUTFIT_19_cls-9" d="M71.77,421.73a8,8,0,0,0-1.49-1,2.7,2.7,0,0,0-1.89-.37c-1,.26-1.52,1.37-1.87,2.34-1.59,4.5-3,9.05-4.56,13.56L64.13,439a60.56,60.56,0,0,0,6.88,7.7l.12.11a20.32,20.32,0,0,0,9.25,5,7,7,0,0,0,4.26-3.3.13.13,0,0,1,0-.06,11.24,11.24,0,0,0,1.24-8.75" />
      <path class="GUNDAN_OWL_OUTFIT_GUNDAN_OWL_OUTFIT_19_cls-9" d="M144.34,407c1.32,6.69,1,13.71.76,20.57-.31,7.3-.63,14.58-.94,21.88" />
      <path class="GUNDAN_OWL_OUTFIT_GUNDAN_OWL_OUTFIT_19_cls-9" d="M147.91,409.53a219.23,219.23,0,0,1-1.19,82.8" />
      <path class="GUNDAN_OWL_OUTFIT_GUNDAN_OWL_OUTFIT_19_cls-9" d="M120.07,331.74s-1.07,26.77,6,39.3" />
      <path class="GUNDAN_OWL_OUTFIT_GUNDAN_OWL_OUTFIT_19_cls-9" d="M299,410a207.83,207.83,0,0,1,5.8-22.22c3.92-12.19,11.07-23.21,15.27-35.31,2.75-7.93,7.47-19.29.77-24.53q-3.76-3-7.27-6.23l-.39-.37a108.25,108.25,0,0,1-8.11-8.49" />
      <path class="GUNDAN_OWL_OUTFIT_GUNDAN_OWL_OUTFIT_19_cls-9" d="M313.14,321.3l.57-.09c1.87-.3,3.73-.59,5.59-.9a18.45,18.45,0,0,1,7.43-.18,9.08,9.08,0,0,1,5.73,4.47,8.69,8.69,0,0,1,.36,7.14,9.56,9.56,0,0,1,6.15,6.2,3.24,3.24,0,0,1,.13.41,26.7,26.7,0,0,1,.65,8.19q-.18,8.5-.39,17c-.26,11.82-.58,23.92-4.95,34.95a121.88,121.88,0,0,0-15.88,4,45.84,45.84,0,0,0-10,4.43,35.15,35.15,0,0,0-3.59,2.54c-.26.22-.53.44-.79.68a34.43,34.43,0,0,0-6.87,8.47,3.23,3.23,0,0,0-.22.41" />
      <path class="GUNDAN_OWL_OUTFIT_GUNDAN_OWL_OUTFIT_19_cls-9" d="M383.24,427.31a27.76,27.76,0,0,1-2.11-5.57c-1.73-6.33-1.6-13.29-1.11-19.91.7-9.59,2-19.52-1.31-28.6-1.78-5-4.82-9.42-7.85-13.81-1.27-1.87-2.22-4.15-3.5-6-3.52.51-7.09-.87-10-2.81s-5.46-4.46-8.25-6.61a41.17,41.17,0,0,0-10-5.63" />
      <path class="GUNDAN_OWL_OUTFIT_GUNDAN_OWL_OUTFIT_19_cls-9" d="M383.93,425.73a11.11,11.11,0,0,1-.69,1.58,15.7,15.7,0,0,1-5.7,5.89,31.93,31.93,0,0,1-9.44,3.6,12.27,12.27,0,0,0-1.12,2.83,11.24,11.24,0,0,0,1.24,8.75l0,.06a7,7,0,0,0,4.28,3.3,20.31,20.31,0,0,0,9.23-5l.14-.12v0a58.81,58.81,0,0,0,6.86-7.67l2.17-2.72c-1.6-4.51-2.95-9.06-4.55-13.56-.36-1-.84-2.08-1.87-2.34a2.7,2.7,0,0,0-1.89.37,7.28,7.28,0,0,0-1.49,1" />
      <path class="GUNDAN_OWL_OUTFIT_GUNDAN_OWL_OUTFIT_19_cls-9" d="M308.57,407c-1.34,6.69-1.06,13.72-.77,20.57l.93,21.88" />
      <path class="GUNDAN_OWL_OUTFIT_GUNDAN_OWL_OUTFIT_19_cls-9" d="M306.18,492.33a219.49,219.49,0,0,1-1.2-82.81" />
      <path class="GUNDAN_OWL_OUTFIT_GUNDAN_OWL_OUTFIT_19_cls-9" d="M332.82,331.74s1.07,26.77-6,39.3" />
      <path class="GUNDAN_OWL_OUTFIT_GUNDAN_OWL_OUTFIT_19_cls-9" d="M250.6,392.45a306.28,306.28,0,0,1-26.82-22.11c-2.14-2-4.26-4-6.33-6-16.76-16.4-54.75-34.66-67.22-54.36" />
      <path class="GUNDAN_OWL_OUTFIT_GUNDAN_OWL_OUTFIT_19_cls-9" d="M238.38,406.06c-31.43-21.85-80.58-51.17-98.16-84.68a2.26,2.26,0,0,1-.17-.35" />
      <path class="GUNDAN_OWL_OUTFIT_GUNDAN_OWL_OUTFIT_19_cls-9" d="M211.66,432.26c1.67-1.5,3.32-3,5-4.55" />
      <path class="GUNDAN_OWL_OUTFIT_GUNDAN_OWL_OUTFIT_19_cls-9" d="M159,456.54c10.18-7.66,43.19-15.77,52.64-24.28" />
      <path class="GUNDAN_OWL_OUTFIT_GUNDAN_OWL_OUTFIT_19_cls-9" d="M232.46,412.26q3-3.08,5.92-6.2,6.26-6.68,12.22-13.61,9.87-11.46,18.91-23.56c1.06-1.42,2.11-2.84,3.16-4.28A429.15,429.15,0,0,0,305,312.81" />
      <path class="GUNDAN_OWL_OUTFIT_GUNDAN_OWL_OUTFIT_19_cls-9" d="M250.1,422a309.7,309.7,0,0,0,63.43-100.37,3.66,3.66,0,0,0,.18-.46" />
      <path class="GUNDAN_OWL_OUTFIT_GUNDAN_OWL_OUTFIT_19_cls-9" d="M217.45,364.32A83.34,83.34,0,0,0,235,361.44c9.35-2.83,25.42-1.57,33.35,1.53,1.8.69,3.22,1.23,4.34,1.64" />
      <path class="GUNDAN_OWL_OUTFIT_GUNDAN_OWL_OUTFIT_19_cls-9" d="M223.78,370.34c6.95-1.5,15.31-5.4,24.67-5.47,7.61-.07,15.88,2.25,21.06,4" />
      <path class="GUNDAN_OWL_OUTFIT_GUNDAN_OWL_OUTFIT_19_cls-9" d="M293.89,466.45c-9-1.44-16.22-8.87-18.12-18.47a25.12,25.12,0,0,1-.47-3.7q0-.69,0-1.38a24.8,24.8,0,0,1,6.85-17.32,19.29,19.29,0,0,1,2.19-2,20.6,20.6,0,0,1,8.29-4,18.26,18.26,0,0,1,2.95-.44c.51,0,1-.07,1.55-.07h.16" />
      <path class="GUNDAN_OWL_OUTFIT_GUNDAN_OWL_OUTFIT_19_cls-9" d="M293.92,468.14a27.25,27.25,0,0,1-24.68-23.86,25.2,25.2,0,0,1-.23-3.5,27.46,27.46,0,0,1,8.23-19.69,25.33,25.33,0,0,1,3.34-2.79,26.65,26.65,0,0,1,9.77-4.35,26.22,26.22,0,0,1,5.2-.61,5.43,5.43,0,0,1,.57,0c.72,0,1.45,0,2.15.11" />
      <path class="GUNDAN_OWL_OUTFIT_GUNDAN_OWL_OUTFIT_19_cls-9" d="M299,410c-.26,1.16-.47,2.31-.69,3.47-.35,1.75-.66,3.5-.95,5.24l-.06.41a265.21,265.21,0,0,0-3.37,47.37l0,1.69c0,.84.05,1.68.08,2.51-15.25-.45-27.76-11.53-30-25.9a30.34,30.34,0,0,1,.07-9.5,28.75,28.75,0,0,1,1.21-4.75,30.17,30.17,0,0,1,6.82-11.14A31.55,31.55,0,0,1,295,409.71,29.18,29.18,0,0,1,299,410Z" />
      <path class="GUNDAN_OWL_OUTFIT_GUNDAN_OWL_OUTFIT_19_cls-9" d="M240.19,431.18l.78.2c.77.2,1.66.4,2.62.6,7.76,1.61,20.51,3.27,20.51,3.27" />
      <path class="GUNDAN_OWL_OUTFIT_GUNDAN_OWL_OUTFIT_19_cls-9" d="M233.46,433a4.25,4.25,0,0,1,5.65-2.11c.31.11.67.21,1.07.32" />
      <path class="GUNDAN_OWL_OUTFIT_GUNDAN_OWL_OUTFIT_19_cls-9" d="M242.93,423a21.84,21.84,0,0,1,5.62-.84c.33,0,.69,0,1.08-.07l.47,0c7.23-.54,22-2.68,22-2.68" />
      <path class="GUNDAN_OWL_OUTFIT_GUNDAN_OWL_OUTFIT_19_cls-9" d="M240.19,431.18h0c-.08-.12-.72-1.14-.72-4.09,0-2,1.08-3.3,3.47-4.09" />
      <path class="GUNDAN_OWL_OUTFIT_GUNDAN_OWL_OUTFIT_19_cls-9" d="M265.3,430.5A128.12,128.12,0,0,1,243.59,432h0" />
      <path class="GUNDAN_OWL_OUTFIT_GUNDAN_OWL_OUTFIT_19_cls-9" d="M249.63,422.07s1.51-5.28-2.46-7c-2-.91-8.59-2-14.71-2.77-1.42-.18-2.8-.32-4.11-.46-4.08-.4-7.36-.55-8-.23a3.65,3.65,0,0,0-.87,1.75,78.47,78.47,0,0,0-2.14,9.72c-.25,1.52-.5,3.1-.71,4.67-.85,6.39-1.22,12.5-.22,13.71.83,1,4,2,7.75,2.86.74.17,1.51.32,2.3.48,5.78,1.13,12.21,1.82,14,1.46,3.35-.65,4.68-5,4.68-5" />
      <path class="GUNDAN_OWL_OUTFIT_GUNDAN_OWL_OUTFIT_19_cls-9" d="M232.86,414.76a5.07,5.07,0,0,1,3.14,4.4,8.11,8.11,0,0,1-.11,2.26c-.46,2.59-1.33,7.28-2.43,11.54a0,0,0,0,1,0,0c-.29,1.15-.6,2.27-.94,3.3v0a27.56,27.56,0,0,1-1.29,3.45,8.37,8.37,0,0,1-.89,1.6h0a2.46,2.46,0,0,1-.91.83" />
      <path class="GUNDAN_OWL_OUTFIT_GUNDAN_OWL_OUTFIT_19_cls-9" d="M236,419.16c1.49-.31,3.47-.5,4.78.2a4,4,0,0,1,2.15,3.62h0" />
      <path class="GUNDAN_OWL_OUTFIT_GUNDAN_OWL_OUTFIT_19_cls-9" d="M228.35,411.8s-4.68,20.36-4.19,32.48" />
      <path class="GUNDAN_OWL_OUTFIT_GUNDAN_OWL_OUTFIT_19_cls-9" d="M219.49,413.32h0c-23.84-5.62-63.16-14.28-69-17.75h0" />
      <path class="GUNDAN_OWL_OUTFIT_GUNDAN_OWL_OUTFIT_19_cls-9" d="M215.76,423.07c-6.13.1-44.78-.05-59.62-3.39l-.42-.1" />
      <path class="GUNDAN_OWL_OUTFIT_GUNDAN_OWL_OUTFIT_19_cls-9" d="M217.34,423l-1.56,0" />
      <path class="GUNDAN_OWL_OUTFIT_GUNDAN_OWL_OUTFIT_19_cls-9" d="M211.66,432.26h0c-11.12-.05-45.36-2.06-51.58-3.42-1.24-.27-2.29-.51-3.11-.72" />
      <path class="GUNDAN_OWL_OUTFIT_GUNDAN_OWL_OUTFIT_19_cls-9" d="M215.8,423.08h0c-18.89-3.59-56.15-11-62.11-14.51h0" />
      <polyline class="GUNDAN_OWL_OUTFIT_GUNDAN_OWL_OUTFIT_19_cls-9" points="280.56 418.29 280.58 418.3 284.3 423.6" />
      <line class="GUNDAN_OWL_OUTFIT_GUNDAN_OWL_OUTFIT_19_cls-9" x1="277.24" y1="421.09" x2="282.12" y2="425.58" />
      <line class="GUNDAN_OWL_OUTFIT_GUNDAN_OWL_OUTFIT_19_cls-9" x1="290.35" y1="413.95" x2="292.6" y2="419.59" />
      <line class="GUNDAN_OWL_OUTFIT_GUNDAN_OWL_OUTFIT_19_cls-9" x1="295.55" y1="413.34" x2="295.55" y2="419.14" />
      <g class="GUNDAN_OWL_OUTFIT_GUNDAN_OWL_OUTFIT_19_cls-10">
        <path d="M136.51,326.35s-7.46.41-9.59,7.23-1.6,21,4.06,32.52c-8.12-21.21-8.37-32.33-8.37-32.33s-2.84-3.83-1.53-8.15c-3.14,3.39-1,8.92-1,8.92s-2.11-.77-4.58,2.41-2.07,4.72-2.07,4.72a17.54,17.54,0,0,0-8.64,3.65c-4.19,3.31-12,11.76-19.43,10.19-4.13,6.88-10.16,15.68-11.8,21.1s-1.88,16.87-1.06,22.91,1.2,22.23-2.72,28.37l-1.45-6s-.79-1.59-4.55,9.84l-1.66,5.61s6.64,9.86,12.31,12.66c4.94,2.74,5.61,2.37,5.61,2.37a7.4,7.4,0,0,0,5.7-5.74c9.79,7.33,32.74,16.3,37.73,16.49-18.26,0-24.84-1.16-24.84-1.16a58.54,58.54,0,0,1,12.76,6.35c-11.07.69-13,.92-13,.92s8.56,10.18,17.72,13.7l8.32,1.69s-8.58,6.58-22.75,7.72h50.54s6.14-55.69-1.59-78.85c-5.85-5.42-5.95-35.86-3-48,6.88,18,70.79,48,70.79,48s-50.85-18.24-62.92-46.92S136.51,326.35,136.51,326.35Z" />
        <path d="M146.25,316.7l-6.58,6.94s14.52,28.45,27.39,40.58,59.22,39.39,70.11,43.16l9.17-10S189,376.83,171.17,355.52,146.25,316.7,146.25,316.7Z" />
        <path d="M217,420.2s6.39-4.14,8.58.79c-1.46,8.89-2.13,17.92-2.13,17.92a16,16,0,0,0,9.08,4c5.49.48,6.43-2,6.43-2l4.94,1.2s-.4,4.71-7.65,4.9-20.72-2.54-21.5-6.1S217,420.2,217,420.2Z" />
        <path d="M216.93,418.57s-51.13-7.52-58.55-11.95L151,402.18l2.06,8.61s16.7,8.17,25.73,10.6,35.1,2.75,35.1,2.75l2.14-.32Z" />
        <path d="M215.56,426.48s-34.71,1.44-43.2.67S155.48,425,155.48,425l1.19,4.07s16,3.59,23.46,3.83,30.76.24,30.76.24L215.5,429Z" />
        <path d="M279.29,428.08s.33,17.77,13.14,25.29c-.67,9.35-.12,13.48-.12,13.48s-15.26-3.08-17.66-17.17C273.21,442.48,273.3,436.05,279.29,428.08Z" />
        <path d="M318.49,403.39s-3.84,21.88-2.5,32.13a112.25,112.25,0,0,0,4.37,19.11s6.53,6.43,5.69,10.36c-7.88.59-16.56-1.09-18.54-4.3-.65-26-2.58-47.88-.62-52.41A109.36,109.36,0,0,1,318.49,403.39Z" />
        <path d="M301.77,420.88s-6.12,28.54-6.71,45.51,1.6,26.27,1.6,26.27h11.92s-6.94-20.74-7.24-43.56S301.77,420.88,301.77,420.88Z" />
        <path d="M308.58,321.14S281.51,378.67,262.31,397s-20,18.08-20,18.08,4.9.49,5.72,3.08a13.86,13.86,0,0,1,.78,4.07s12-11.31,19.27-21.23,28.35-42.89,33-52.1,10.66-24.38,10.66-24.38Z" />
        <path d="M313.85,325.8s9.11,1.8,10.44,6.36,1.77,11-1.84,19.93-5.28,13.84-8.44,23-6.45,17.38-7.15,22S305.3,386,306.73,381c1.93-6,7.92-17.13,10.51-24s6.92-17.38,4.56-22.84S313.81,326.89,313.85,325.8Z" />
      </g>
    </g>
  </g>
</svg>