<svg xmlns="http://www.w3.org/2000/svg" viewBox="0 0 432 432">
  <defs>
    <style>.GUNDAN_OWL_OUTFIT_GUNDAN_OWL_OUTFIT_10_cls-1{isolation:isolate;}.GUNDAN_OWL_OUTFIT_GUNDAN_OWL_OUTFIT_10_cls-2,.GUNDAN_OWL_OUTFIT_GUNDAN_OWL_OUTFIT_10_cls-3{fill:#6495b6;}.GUNDAN_OWL_OUTFIT_GUNDAN_OWL_OUTFIT_10_cls-10,.GUNDAN_OWL_OUTFIT_GUNDAN_OWL_OUTFIT_10_cls-2,.GUNDAN_OWL_OUTFIT_GUNDAN_OWL_OUTFIT_10_cls-8{stroke:#000;}.GUNDAN_OWL_OUTFIT_GUNDAN_OWL_OUTFIT_10_cls-2{stroke-miterlimit:10;}.GUNDAN_OWL_OUTFIT_GUNDAN_OWL_OUTFIT_10_cls-4{fill:#503b36;}.GUNDAN_OWL_OUTFIT_GUNDAN_OWL_OUTFIT_10_cls-5{fill:#1e2223;}.GUNDAN_OWL_OUTFIT_GUNDAN_OWL_OUTFIT_10_cls-6{fill:#11221a;}.GUNDAN_OWL_OUTFIT_GUNDAN_OWL_OUTFIT_10_cls-7{fill:#fff;}.GUNDAN_OWL_OUTFIT_GUNDAN_OWL_OUTFIT_10_cls-10,.GUNDAN_OWL_OUTFIT_GUNDAN_OWL_OUTFIT_10_cls-8{fill:none;stroke-linecap:round;stroke-linejoin:round;}.GUNDAN_OWL_OUTFIT_GUNDAN_OWL_OUTFIT_10_cls-8{stroke-width:1.86px;}.GUNDAN_OWL_OUTFIT_GUNDAN_OWL_OUTFIT_10_cls-9{opacity:0.22;mix-blend-mode:multiply;}.GUNDAN_OWL_OUTFIT_GUNDAN_OWL_OUTFIT_10_cls-10{stroke-width:1.57px;}</style>
  </defs>
  <g class="GUNDAN_OWL_OUTFIT_GUNDAN_OWL_OUTFIT_10_cls-1">
    <g id="oufit">
      <path class="GUNDAN_OWL_OUTFIT_GUNDAN_OWL_OUTFIT_10_cls-2" d="M129.36,327.88s-7.76,4.81-11.09,8.16,8.07,10.07,8.07,10.07l3.84-1.61" />
      <path class="GUNDAN_OWL_OUTFIT_GUNDAN_OWL_OUTFIT_10_cls-3" d="M313.14,318.69c-.12-2.59-.35-4.91-.57-6.83-1-2.85-8.42-5.3-14.1-11.49.11,2.07,1.64,4.15,1.75,6.22.14,2.64-.14,2.73.11,5.33,0,0,2.38,3,.16,4.67-.27,4.11-5.1,9-6.27,14.07,3.57,9.4-5.73,34.86-6,35.53a25.89,25.89,0,0,0,4.93-2.83c-.23-3.39-.59-5.37-.6-5.48a2.91,2.91,0,0,1,2.53-3.35,3.12,3.12,0,0,1,3.61,2.34c0,.12.08.44.16,1,6.53-8.53,14.64-28.26,14.34-37.38h0C313.2,319.84,313.18,319.26,313.14,318.69Z" />
      <path class="GUNDAN_OWL_OUTFIT_GUNDAN_OWL_OUTFIT_10_cls-3" d="M151.3,354.5c-.21-.92-.43-1.88-.63-2.86-.14-.32-.28-.67-.42-1-.55-3.74-1.13-10.82-.06-15.4-.88-3.82,2.51-7.78,3.44-11.74a26,26,0,0,0,.22-10h-.94c0-.31.07-.63.11-1h0c.07-.65.13-1.29.19-1.93.15-1.57.27-3.15.42-4.72a3.12,3.12,0,0,0-.69-.54,73.89,73.89,0,0,0-5.42,6,.21.21,0,0,0,0,.06c-2.92,3.58-9.27,3.42-10.61,5.94l0,0a17.8,17.8,0,0,0-1.12,2.5c-.26,2.35-6.31,1.84-6.42,5.12h0c0,.84,0,1.71,0,2.59l0,.33c.11,1.65,2.49,7.7,2.85,9.42.94,4.49,4.68,8.4,7,12.78a.43.43,0,0,1,0,.07c.69,1.29,1.42,2.56,2.19,3.78s1.77,2.66,2.71,3.9c.08-.52.14-.84.17-1a3,3,0,0,1,1.93-2.18,3.39,3.39,0,0,1,1.68-.16,3.06,3.06,0,0,1,2.35,1.77,2.66,2.66,0,0,1,.18,1.58,49.5,49.5,0,0,0-.61,5.48,26.2,26.2,0,0,0,4.93,2.83c-.07-.21-1.28-3.55-2.54-8.11C151.92,357,151.61,355.75,151.3,354.5Z" />
      <path class="GUNDAN_OWL_OUTFIT_GUNDAN_OWL_OUTFIT_10_cls-4" d="M249.6,426.43a26.66,26.66,0,0,0-7.16-2.49H200.57a26.78,26.78,0,0,0-7.16,2.49,31.19,31.19,0,0,0-8.94,6.73v21.08l2.58,2.26L200.25,468h42.51L256,456.5l2.57-2.26V433.16A31.06,31.06,0,0,0,249.6,426.43Zm-48.71,33.21c-1.23,0-2.23-6.15-2.23-13.72s1-13.71,2.23-13.71,2.26,6.13,2.26,13.71S202.14,459.64,200.89,459.64Zm10.32,0c-1.24,0-2.26-6.15-2.26-13.72s1-13.71,2.26-13.71,2.24,6.13,2.24,13.71S212.44,459.64,211.21,459.64Zm10.29,0c-1.24,0-2.25-6.15-2.25-13.72s1-13.71,2.25-13.71,2.26,6.13,2.26,13.71S222.76,459.64,221.5,459.64Zm10.3,0c-1.23,0-2.23-6.15-2.23-13.72s1-13.71,2.23-13.71,2.26,6.13,2.26,13.71S233.05,459.64,231.8,459.64Zm10.32,0c-1.25,0-2.26-6.15-2.26-13.72s1-13.71,2.26-13.71,2.24,6.13,2.24,13.71S243.35,459.64,242.12,459.64Z" />
      <path class="GUNDAN_OWL_OUTFIT_GUNDAN_OWL_OUTFIT_10_cls-5" d="M388.2,417c-.09-.29-.16-.6-.26-.87a20.18,20.18,0,0,0-1.15-2.85c-2-4-5-6.51-7.6-5.9a4.6,4.6,0,0,0-3.06,3.27,10.61,10.61,0,0,0-.53,2.43,18.39,18.39,0,0,0,.65,6.77c0,.12.06.24.1.36a20.2,20.2,0,0,0,1,2.81c2,4.35,5.18,7.08,7.87,6.44,1.52-.36,2.63-1.74,3.2-3.72a11,11,0,0,0,.43-2.42A18.63,18.63,0,0,0,388.2,417Z" />
      <path class="GUNDAN_OWL_OUTFIT_GUNDAN_OWL_OUTFIT_10_cls-5" d="M375.69,387.39a18.91,18.91,0,0,0-2-6.06c-.14-.27-.29-.54-.45-.8A18.59,18.59,0,0,0,371.5,378c-2.81-3.58-6.31-5.46-8.72-4.39a4.48,4.48,0,0,0-2.29,3.77v0a9.32,9.32,0,0,0,0,2.47,18.5,18.5,0,0,0,2.06,6.52c.07.11.13.23.19.33a19,19,0,0,0,1.62,2.54c2.86,3.9,6.57,6,9.08,4.87,1.42-.63,2.2-2.19,2.34-4.24A10.93,10.93,0,0,0,375.69,387.39Z" />
      <path class="GUNDAN_OWL_OUTFIT_GUNDAN_OWL_OUTFIT_10_cls-5" d="M352,354.54a20,20,0,0,0-3.53-5.44c-.21-.23-.41-.45-.63-.67a20.64,20.64,0,0,0-2.34-2.11c-3.67-2.84-7.55-3.9-9.59-2.31-1.12.86-1.51,2.35-1.26,4.16v0a10.82,10.82,0,0,0,.63,2.4,19.5,19.5,0,0,0,3.69,5.85,3.71,3.71,0,0,0,.27.29,20,20,0,0,0,2.23,2.11c3.8,3.15,7.94,4.37,10.08,2.71,1.21-.94,1.57-2.62,1.17-4.64A12.91,12.91,0,0,0,352,354.54Z" />
      <path class="GUNDAN_OWL_OUTFIT_GUNDAN_OWL_OUTFIT_10_cls-5" d="M97.49,346.32a19.06,19.06,0,0,0-2.34,2.11c-.23.22-.43.44-.64.67A20,20,0,0,0,91,354.54a11.52,11.52,0,0,0-.72,2.37c-.4,2,0,3.7,1.17,4.64,2.14,1.66,6.27.44,10.07-2.71a20,20,0,0,0,2.23-2.11,2.44,2.44,0,0,0,.27-.29,19.3,19.3,0,0,0,3.69-5.85,10.3,10.3,0,0,0,.63-2.4v0c.25-1.81-.13-3.3-1.25-4.16C105,342.42,101.15,343.48,97.49,346.32Z" />
      <path class="GUNDAN_OWL_OUTFIT_GUNDAN_OWL_OUTFIT_10_cls-5" d="M66.88,410.69a4.59,4.59,0,0,0-3-3.27c-2.58-.61-5.61,1.88-7.61,5.9a21.45,21.45,0,0,0-1.15,2.85c-.1.27-.17.58-.26.87a18.61,18.61,0,0,0-.68,6.32,11,11,0,0,0,.42,2.42c.57,2,1.68,3.36,3.2,3.72,2.69.64,5.88-2.09,7.87-6.44a21.57,21.57,0,0,0,1-2.81c0-.12.06-.24.1-.36a18.37,18.37,0,0,0,.64-6.77A10.61,10.61,0,0,0,66.88,410.69Z" />
      <path class="GUNDAN_OWL_OUTFIT_GUNDAN_OWL_OUTFIT_10_cls-5" d="M82.52,377.34a4.46,4.46,0,0,0-2.29-3.77c-2.4-1.07-5.9.81-8.72,4.39a18.59,18.59,0,0,0-1.73,2.57c-.16.26-.31.53-.45.8a18.87,18.87,0,0,0-2,6.06,9.87,9.87,0,0,0-.11,2.46c.13,2,.92,3.61,2.34,4.24,2.5,1.14,6.21-1,9.07-4.87a18,18,0,0,0,1.62-2.54,3.54,3.54,0,0,0,.19-.33,18.54,18.54,0,0,0,2.07-6.52,9.73,9.73,0,0,0,0-2.47Z" />
      <path class="GUNDAN_OWL_OUTFIT_GUNDAN_OWL_OUTFIT_10_cls-4" d="M390.74,408.22c-3.91-13.49-9.5-14.55-9.5-14.55.73-8.31-14.43-34-17.33-37.91s-8.71-4.12-8.71-4.12-15.95-20-19.15-20.68c-3-.63-2.82-8.28-10.19,2,.85.72,1.68,1.38,2.5,2,1,.76,1.95,1.46,2.82,2.13,2.79,2.14-.17,7.92,1.14,9.07-.17,3.58-2.53,11-3,12.84-.13.46-.25.9-.4,1.32a91.15,91.15,0,0,0,21.87,22.15c.24.63.5,1.24.77,1.85.16.4.33.8.51,1.18.27.63.56,1.24.84,1.85l.5,1c1.14,2.34,2.31,4.51,3.48,6.49.18.31.35.61.54.91,1.15,1.92,2.27,3.64,3.31,5.14.76,1.1,1.48,2.09,2.13,2.94.16.21.31.43.46.62,1.07,1.4,1.89,2.39,2.36,2.92l.3.35.11.12s1.16,17.47,5.74,24.71,7.49,10.58,8.54,16.91c.56-.64,1.11-1.34,1.67-2.08a96.5,96.5,0,0,0,8.71-14.38C392.92,428.5,394.66,421.71,390.74,408.22ZM341.5,358.85a21,21,0,0,1-2.22-2.12,2.54,2.54,0,0,1-.28-.29,19.5,19.5,0,0,1-3.68-5.85,10.93,10.93,0,0,1-.65-2.4v0c-.24-1.81.15-3.3,1.26-4.16,2.05-1.59,5.93-.53,9.6,2.31a19.82,19.82,0,0,1,2.34,2.11c.22.22.42.44.63.67a19.89,19.89,0,0,1,3.53,5.44,12.52,12.52,0,0,1,.72,2.36c.4,2,0,3.71-1.18,4.65C349.43,363.21,345.3,362,341.5,358.85Zm22.88,30.37a18.63,18.63,0,0,1-1.62-2.54c-.07-.1-.12-.22-.19-.33a18.57,18.57,0,0,1-2.06-6.52,8.89,8.89,0,0,1,0-2.47v0a4.38,4.38,0,0,1,2.29-3.76c2.4-1.09,5.9.79,8.71,4.38a18.05,18.05,0,0,1,1.74,2.57,8.88,8.88,0,0,1,.44.81,19,19,0,0,1,2,6.05,10.35,10.35,0,0,1,.1,2.46c-.13,2-.91,3.6-2.34,4.24C371,395.23,367.24,393.12,364.38,389.22Zm24.51,34.14a11,11,0,0,1-.43,2.42c-.57,2-1.68,3.36-3.2,3.72-2.68.64-5.88-2.1-7.86-6.45a23,23,0,0,1-1.06-2.8c0-.12,0-.25-.09-.36a18.6,18.6,0,0,1-.65-6.77,10.1,10.1,0,0,1,.54-2.43,4.56,4.56,0,0,1,3.05-3.27c2.57-.62,5.6,1.88,7.6,5.9a20,20,0,0,1,1.15,2.84c.1.29.18.58.26.88A18.61,18.61,0,0,1,388.89,423.36Z" />
      <path class="GUNDAN_OWL_OUTFIT_GUNDAN_OWL_OUTFIT_10_cls-4" d="M123.74,340.48l-.07-.09c-.24-.32-.48-.64-.73-.93l-.06-.1-.16-.2-.18-.21c-.28-.35-.56-.67-.84-1s-.45-.52-.68-.76a27.36,27.36,0,0,0-2.23-2.14c-.1-.09-.21-.19-.33-.28-.38-.32-.76-.62-1.13-.88l-.59-.41-.11-.08-.1-.07-1-.62-.68-.36c-.37-.19-.72-.35-1.07-.51l-.25-.1a11.37,11.37,0,0,0-1.26-.45,4.43,4.43,0,0,0-.49-.13,9,9,0,0,0-.91-.21l-.37-.07-.5,0-.41,0-.29,0h-.61l-.5,0-.56.05-.11,0h-.11l-.24,0-.21,0a1.77,1.77,0,0,0-.53.23h0l0,0-.11.07,0,0a16.49,16.49,0,0,0-2.21,1.82c-.22.2-.45.42-.68.65-.81.79-1.7,1.71-2.62,2.71l-.79.85c-3.11,3.4-6.55,7.5-9,10.43l0,0a.69.69,0,0,1-.11.13l0,0,0,0s0,0,0,0c-1,1.21-1.8,2.2-2.31,2.83l-.16.2-.46.57-.3,0h-.25a15.41,15.41,0,0,0-2.05.36l-.48.13c-.4.11-.81.25-1.23.41l-.36.14c-.21.09-.41.18-.62.29l-.22.11c-.31.16-.61.33-.91.52l-.11.07-.16.11a.09.09,0,0,0-.05,0,9.3,9.3,0,0,0-1,.86,4.26,4.26,0,0,0-.42.43c-.18.2-.35.4-.51.61-2.9,3.92-18.06,29.6-17.33,37.91,0,0-5.59,1.06-9.5,14.55q-.8,2.73-1.29,5.11c-.07.32-.13.64-.19.95s-.12.61-.17.91c-.09.47-.16.94-.23,1.39a37.52,37.52,0,0,0-.44,6.3v.06L50,424c0,.18,0,.36,0,.54s0,.32,0,.47c0,.34.07.66.11,1s.11.78.17,1.15.16.77.24,1.13.14.57.22.84c0,.1.05.21.08.31.08.27.16.52.24.77l.06.18c.18.53.37,1,.58,1.51,0,.08.06.16.09.22s.12.29.19.44l.23.49A95.88,95.88,0,0,0,61,447.43c.07.08.12.17.18.25h0l0,0,.14.18.09.11q.18.25.39.51c.27.35.55.68.83,1,0,0,0,0,0,0a2.56,2.56,0,0,1,0-.27c0-.29.1-.57.16-.85,0,0,0,0,0,0,.07-.35.15-.69.24-1a.43.43,0,0,1,0-.05c.08-.27.15-.54.24-.8a20.93,20.93,0,0,1,1.13-2.93c.08-.17.16-.33.23-.5.45-.9.94-1.78,1.5-2.69l.53-.87c.38-.6.79-1.24,1.23-1.91.14-.23.3-.45.45-.69.83-1.27,1.75-2.68,2.75-4.26,4.57-7.24,5.74-24.71,5.74-24.71s1.6-1.76,3.91-4.92l.89-1.24a.18.18,0,0,0,.05-.08l0,0c.53-.76,1.09-1.57,1.67-2.45.41-.61.82-1.26,1.23-1.92a96,96,0,0,0,5-9c.13-.24.25-.49.36-.74.76-1.61,1.5-3.28,2.19-5,.61-.42,1.2-.84,1.79-1.28,1.47-1.07,2.86-2.19,4.2-3.32.78-.66,1.55-1.34,2.3-2,.56-.5,1.1-1,1.63-1.52l.11-.1a96.28,96.28,0,0,0,6.61-7.1c.25-.3.5-.59.73-.88.36-.44.72-.87,1-1.29l1.26-1.61c.7-.91,1.31-1.76,1.85-2.53l.21-.28h0l.14-.2c-.15-.42-.27-.86-.39-1.32,0-.13-.07-.29-.11-.44-.07-.33-.14-.69-.2-1.09a2.61,2.61,0,0,1,0-.31c-.26-1.65-.43-3.77-.55-6h0c0-.32,0-.64,0-1l.39-.34c1.3-1.13,3.17-2.7,5.7-4.64l1.35-1,1.47-1.1.11-.07h0c.77-.57,1.57-1.2,2.37-1.89C124,340.89,123.88,340.67,123.74,340.48ZM90.26,356.9a12.6,12.6,0,0,1,.73-2.36,19.43,19.43,0,0,1,3.53-5.44c.2-.23.4-.45.63-.67a19.82,19.82,0,0,1,2.34-2.11c.57-.43,1.14-.84,1.7-1.18l.66-.38.07,0c.24-.14.49-.26.72-.38l.6-.27.19-.08c.2-.09.4-.15.6-.22s.37-.13.56-.18l.28-.07.53-.12h0c.19,0,.38-.06.56-.08h.08l.57,0h.41a1.9,1.9,0,0,1,.4,0l.37.08h0a1.12,1.12,0,0,1,.31.1s0,0,0,0a3,3,0,0,1,.88.47c1.11.86,1.5,2.35,1.26,4.16v0a11.46,11.46,0,0,1-.64,2.4c-.07.16-.13.33-.21.5s-.14.34-.22.51l-.27.54a15.76,15.76,0,0,1-1,1.78l-.43.62c0,.06-.09.13-.14.2l-.65.85c-.1.12-.19.24-.3.36l-.42.49c-.1.1-.18.2-.28.29a21.05,21.05,0,0,1-2.23,2.12c-3.79,3.14-7.93,4.36-10.07,2.7C90.22,360.61,89.86,358.93,90.26,356.9Zm-23.49,63c0,.11-.07.24-.1.36a21.42,21.42,0,0,1-1,2.8c-2,4.35-5.18,7.09-7.87,6.45-1.52-.36-2.63-1.74-3.2-3.72a11,11,0,0,1-.43-2.42,18.63,18.63,0,0,1,.7-6.32c.08-.3.16-.59.25-.88a20,20,0,0,1,1.15-2.84c2-4,5-6.52,7.6-5.9a4.56,4.56,0,0,1,3.05,3.27,9.64,9.64,0,0,1,.54,2.43A18.58,18.58,0,0,1,66.77,419.89ZM82.5,379.83a18.36,18.36,0,0,1-2.06,6.52,3.54,3.54,0,0,1-.19.33,18.63,18.63,0,0,1-1.62,2.54,1.39,1.39,0,0,1-.15.19,14,14,0,0,1-.89,1.09c-.15.18-.31.35-.46.52s-.55.56-.83.81-.32.3-.48.43c-.33.27-.66.52-1,.74a4.55,4.55,0,0,1-.49.32,6.82,6.82,0,0,1-2.81,1.05l-.46,0a3.46,3.46,0,0,1-1.51-.31c-1.43-.64-2.21-2.19-2.34-4.24a9.87,9.87,0,0,1,.11-2.46,18.74,18.74,0,0,1,2-6.05,8.93,8.93,0,0,1,.45-.81A17.25,17.25,0,0,1,71.52,378c2.39-3.06,5.29-4.88,7.57-4.67a3.42,3.42,0,0,1,1.14.29,3.23,3.23,0,0,1,.8.52,1.59,1.59,0,0,1,.13.13.81.81,0,0,1,.18.19l.24.28h0l0,0v0a.46.46,0,0,1,.07.1.59.59,0,0,1,.1.17,1.16,1.16,0,0,1,.14.24.05.05,0,0,1,0,.05h0a3.38,3.38,0,0,1,.18.44,1,1,0,0,1,.09.22,2,2,0,0,1,.11.42,2.66,2.66,0,0,1,.1.38,3.16,3.16,0,0,1,.09.55v0a9.56,9.56,0,0,1,0,1.79h0C82.55,379.38,82.53,379.6,82.5,379.83Z" />
      <path class="GUNDAN_OWL_OUTFIT_GUNDAN_OWL_OUTFIT_10_cls-4" d="M371.81,432.6c-4.57-7.24-5.74-24.72-5.74-24.72a91.71,91.71,0,0,1-15.3-25.41,91,91,0,0,1-21.87-22.15c-1.46,4.42-3.8,6.86-2.2,9.76,1.44,2.65,12.29,13.19,17.06,16.82a6.6,6.6,0,0,0,2,1.23.86.86,0,0,0,.42-.08s.53,2.54,1.29,5.51c.45,1.69,1,3.53,1.48,5.1,1.46,4.33,9.37,10.62,9.37,10.62-1.75,8.14,3,17.5,7.28,23.17a11.13,11.13,0,0,1,.74,1.17c1.75,3.27,2.32,8.31,3.18,12.54.78,3.91,1.78,7.12,4.14,7.68,1.84.43,4.26-1.49,6.69-4.33C379.31,443.18,376.38,439.85,371.81,432.6Z" />
      <path class="GUNDAN_OWL_OUTFIT_GUNDAN_OWL_OUTFIT_10_cls-4" d="M92.25,382.47a91.87,91.87,0,0,1-15.31,25.41s-1.17,17.48-5.74,24.72-7.5,10.58-8.54,16.91c2.43,2.84,4.84,4.76,6.68,4.33,2.36-.56,3.37-3.77,4.14-7.68.86-4.23,1.43-9.27,3.19-12.54a9.66,9.66,0,0,1,.73-1.17c4.25-5.67,9-15,7.29-23.17,0,0,7.9-6.29,9.36-10.62.52-1.57,1-3.41,1.48-5.1.76-3,1.3-5.51,1.3-5.51a.81.81,0,0,0,.41.08,6.49,6.49,0,0,0,2-1.23c4.77-3.63,15.61-14.17,17.06-16.82,1.59-2.9-.75-5.34-2.21-9.76A90.88,90.88,0,0,1,92.25,382.47Z" />
      <path class="GUNDAN_OWL_OUTFIT_GUNDAN_OWL_OUTFIT_10_cls-3" d="M277.06,398.11a101.79,101.79,0,0,0,13.66-6.44h0c.1-.41.2-.81.28-1.22h0c.55-2.48,1-4.88,1.32-7.18a83.39,83.39,0,0,1-18.44,10.92A18.53,18.53,0,0,1,277.06,398.11Z" />
      <path class="GUNDAN_OWL_OUTFIT_GUNDAN_OWL_OUTFIT_10_cls-3" d="M328.35,335s-12.41,26.09-29,42.16c-.14,1.77-.32,3.61-.59,5.54-.17,1.38-.38,2.79-.64,4.24,25.53-18.32,33-49.81,33-49.81C330.31,336.42,329.37,335.71,328.35,335Z" />
      <path class="GUNDAN_OWL_OUTFIT_GUNDAN_OWL_OUTFIT_10_cls-3" d="M347.48,393.56c-.76-3-1.29-5.51-1.29-5.51a.86.86,0,0,1-.42.08,6.6,6.6,0,0,1-2-1.23s-8.71,22.63-25.58,33.17h0l-5.58,3h0c.38,3.1.7,6.25,1,9.25l3.55-1.26C338.19,423.62,347.48,393.56,347.48,393.56Z" />
      <path class="GUNDAN_OWL_OUTFIT_GUNDAN_OWL_OUTFIT_10_cls-3" d="M124.85,420.07h0C108,409.53,99.26,386.9,99.26,386.9a6.49,6.49,0,0,1-2,1.23.81.81,0,0,1-.41-.08s-.54,2.54-1.3,5.51c0,0,9.29,30.06,30.35,37.49l3.55,1.26c.31-3,.63-6.15,1-9.25h0Z" />
      <path class="GUNDAN_OWL_OUTFIT_GUNDAN_OWL_OUTFIT_10_cls-3" d="M143.61,377.12a88.4,88.4,0,0,1-21.93-34.06c-1,.75-2,1.46-2.82,2.13,0,0,.46,23.39,26,41.71-.26-1.45-.48-2.86-.65-4.24C143.94,380.73,143.75,378.89,143.61,377.12Z" />
      <path class="GUNDAN_OWL_OUTFIT_GUNDAN_OWL_OUTFIT_10_cls-3" d="M152,390.45h0c.08.41.17.81.27,1.22h0A101.79,101.79,0,0,0,166,398.11a18.56,18.56,0,0,1,3.17-3.92,83.47,83.47,0,0,1-18.45-10.92C151,385.57,151.45,388,152,390.45Z" />
      <path class="GUNDAN_OWL_OUTFIT_GUNDAN_OWL_OUTFIT_10_cls-5" d="M299.51,364a90.77,90.77,0,0,1,.06,10.17c0,.94-.1,1.92-.17,2.92,16.54-16.07,29-42.16,29-42.16-.81-.59-1.64-1.25-2.49-2a143,143,0,0,1-12.64-12.54c.3,9.12-7.81,28.85-14.34,37.39C299.05,359,299.34,361.14,299.51,364Z" />
      <path class="GUNDAN_OWL_OUTFIT_GUNDAN_OWL_OUTFIT_10_cls-5" d="M126.44,486.18v0l.6-15.58c.55.31,15.29,8.89,30.93,8.93-.68-4.33-1.27-8.66-1.75-12.84-.29-2.45-.54-4.85-.78-7.17-17.8-1-27.72-6.88-27.72-6.88l.07-1.52s.57-7.63,1.48-17c0,0,8.54,6.92,24.9,8.84-.33-6-.42-9.71-.42-9.71a72.8,72.8,0,0,1,6.18-8.94,90.22,90.22,0,0,1-5.63-9.44,92.63,92.63,0,0,1-4.75-10.64,96.28,96.28,0,0,1-3.36-10.91c-.53-2.18-1-4.31-1.34-6.36-25.53-18.32-26-41.71-26-41.71-2.79,2.14-4.78,3.83-6.09,5a51.84,51.84,0,0,0,.94,8.84c.13.45.25.89.4,1.31,1.46,4.42,3.8,6.86,2.21,9.76-1.45,2.65-12.29,13.19-17.06,16.82,0,0,8.7,22.63,25.57,33.17h0l5.58,3h0c-.38,3.1-.7,6.25-1,9.25l-3.55-1.26c-21.06-7.43-30.35-37.49-30.35-37.49-.45,1.69-1,3.53-1.48,5.1-1.46,4.33-9.36,10.62-9.36,10.62,1.74,8.14-3,17.5-7.29,23.17a9.66,9.66,0,0,0-.73,1.17s14.38,17.95,41,12.54h0l9.3-3.39.57,6S122,451.3,115.5,453.9h0c-26.87,8.16-42-7.74-42-7.74-.77,3.91-1.78,7.12-4.14,7.68-1.84.43-4.25-1.49-6.68-4.33-.56-.65-1.11-1.34-1.67-2.07-.3,2.32-.76,6.19-1.11,10.08-2.43,2.77-6.11,7.22-6.31,8.71s1.69,3.65,3,6.26c-1,4.64-2.83,13.26-4.17,16.92C50.53,494.54,51,503.86,51,503.86H163.45c-.62-2-1.22-4-1.77-6.14C161.68,497.72,138,494.28,126.44,486.18Z" />
      <path class="GUNDAN_OWL_OUTFIT_GUNDAN_OWL_OUTFIT_10_cls-5" d="M292.69,380.63c.35-2.91.55-5.64.62-8.12.11-3.15.05-5.89-.07-8.14,0-.35,0-.68-.05-1a27.88,27.88,0,0,1-4.95,2.83,60.89,60.89,0,0,1-17,26,15.18,15.18,0,0,1,2.69,2,83.39,83.39,0,0,0,18.44-10.92C292.48,382.38,292.59,381.49,292.69,380.63Z" />
      <path class="GUNDAN_OWL_OUTFIT_GUNDAN_OWL_OUTFIT_10_cls-5" d="M288.17,400.44a88.74,88.74,0,0,0,2.55-8.77,101.79,101.79,0,0,1-13.66,6.44,28.56,28.56,0,0,1,2.39,5,1.71,1.71,0,0,1-1.13,2.22,2,2,0,0,1-.63.09,1.89,1.89,0,0,1-.63-.1l-1.31,3.78a26.05,26.05,0,0,1,3.7,6.88,1.7,1.7,0,0,1-1.13,2.22l.81,1a88.36,88.36,0,0,0,9-18.74Z" />
      <path class="GUNDAN_OWL_OUTFIT_GUNDAN_OWL_OUTFIT_10_cls-5" d="M390.6,489.41c-1.34-3.66-3.21-12.28-4.17-16.92,1.32-2.61,3.22-4.71,3-6.26s-3.89-5.94-6.32-8.71c-.35-3.89-.81-7.76-1.11-10.08-.56.73-1.1,1.42-1.66,2.07-2.43,2.84-4.85,4.76-6.69,4.33-2.36-.56-3.36-3.77-4.14-7.68,0,0-15.13,15.9-42,7.74h0c-6.54-2.6-12.07-5.13-12.07-5.13l.57-6,9.31,3.39h0c26.62,5.41,41-12.54,41-12.54a11.13,11.13,0,0,0-.74-1.17c-4.24-5.67-9-15-7.28-23.17,0,0-7.91-6.29-9.37-10.62-.52-1.57-1-3.41-1.48-5.1,0,0-9.29,30.06-30.35,37.49l-3.55,1.26c-.31-3-.63-6.15-1-9.25h0l5.58-3h0c16.87-10.54,25.58-33.17,25.58-33.17-4.77-3.63-15.62-14.17-17.06-16.82-1.6-2.9.74-5.34,2.2-9.76.15-.42.27-.86.4-1.31.48-1.87,2.86-9.27,3-12.85-1.31-1.15,1.65-6.93-1.14-9.07,0,0-7.48,31.49-33,49.81-.36,2.05-.81,4.18-1.35,6.36a94.28,94.28,0,0,1-3.36,10.91,90.93,90.93,0,0,1-4.75,10.64,88.4,88.4,0,0,1-5.62,9.44,73.65,73.65,0,0,1,6.17,8.94s-.08,3.74-.42,9.71c16.36-1.92,24.91-8.84,24.91-8.84.9,9.41,1.48,17,1.48,17l.06,1.52s-9.91,5.85-27.72,6.88c-.24,2.32-.49,4.72-.77,7.17-.49,4.18-1.07,8.51-1.76,12.84,15.64,0,30.39-8.62,30.93-8.93l.6,15.58v0c-11.57,8.1-35.24,11.54-35.24,11.54-.55,2.12-1.15,4.17-1.77,6.14H392.05S392.48,494.54,390.6,489.41Z" />
      <path class="GUNDAN_OWL_OUTFIT_GUNDAN_OWL_OUTFIT_10_cls-5" d="M167.26,409.08,166,405.3a1.89,1.89,0,0,1-.63.1,1.94,1.94,0,0,1-.62-.09,1.71,1.71,0,0,1-1.14-2.22,29.3,29.3,0,0,1,2.39-5,101.79,101.79,0,0,1-13.66-6.44,88.87,88.87,0,0,0,2.56,8.77,86,86,0,0,0,3.53,8.74,88,88,0,0,0,5.51,10l.81-1a1.71,1.71,0,0,1-1.14-2.22A26.34,26.34,0,0,1,167.26,409.08Z" />
      <path class="GUNDAN_OWL_OUTFIT_GUNDAN_OWL_OUTFIT_10_cls-5" d="M154.77,366.2a27.44,27.44,0,0,1-4.94-2.83c0,.32,0,.65-.05,1-.13,2.25-.19,5-.08,8.14.08,2.48.28,5.21.63,8.12.1.86.21,1.75.34,2.64a83.47,83.47,0,0,0,18.45,10.92,14.49,14.49,0,0,1,2.69-2A60.8,60.8,0,0,1,154.77,366.2Z" />
      <path class="GUNDAN_OWL_OUTFIT_GUNDAN_OWL_OUTFIT_10_cls-5" d="M143.44,374.2A93.24,93.24,0,0,1,143.5,364c.18-2.89.46-5,.64-6.19C137.6,349.3,129,334.08,129.3,325c-2.91,3.22-.42,12.17-5.13,16.12-.84.72-1.68,1.38-2.49,2a88.4,88.4,0,0,0,21.93,34.06C143.54,376.12,143.48,375.14,143.44,374.2Z" />
      <path class="GUNDAN_OWL_OUTFIT_GUNDAN_OWL_OUTFIT_10_cls-6" d="M283.09,424.25c-.11.16-.21.34-.34.5-.56.81-1.13,1.64-1.73,2.45a3.16,3.16,0,0,1-2.57,1.26,3.27,3.27,0,0,1-1.75-.51,2.77,2.77,0,0,1-.81-4c.72-1,1.42-2,2.06-3h0c.4-.59.78-1.18,1.16-1.77-.51-.63-.82-1-.82-1a2.18,2.18,0,0,1-.61.08,1.87,1.87,0,0,1-1.78-1.16c-3.67-9.73-8.69-11-18.47-11.5-10.06-.5-35.68-.51-35.95-.51-.12,0-6.22,0-13.61.07h-1.25l-3.85,0h-2.56c-2.58,0-5.13.08-7.47.13l-1.16,0-1.12,0h0l-1.71.06-.58,0c-1,0-1.84.06-2.62.1-9.78.49-14.8,1.77-18.48,11.5a1.84,1.84,0,0,1-1.76,1.16,2.25,2.25,0,0,1-.62-.08s-.31.36-.82,1q.57.88,1.17,1.77h0c.64,1,1.34,2,2.06,3a2.77,2.77,0,0,1-.8,4,3.3,3.3,0,0,1-1.76.51A3.13,3.13,0,0,1,162,427.2c-.61-.81-1.18-1.64-1.74-2.45-.12-.16-.23-.34-.34-.5a71.71,71.71,0,0,0-6.17,8.95s.09,3.73.42,9.7c.27,4.48.67,10.22,1.27,16.6.24,2.32.49,4.72.78,7.16l.27,2.29c.06.47.13.94.18,1.42.11.88.23,1.77.35,2.67s.29,2,.44,3.07.33,2.27.51,3.4c.75,4.64,1.61,9.27,2.63,13.72.34,1.52.71,3,1.09,4.49.54,2.12,1.14,4.17,1.76,6.14H279.56q.94-3,1.77-6.14c.37-1.46.75-3,1.08-4.49,1-4.45,1.89-9.08,2.63-13.72.12-.79.24-1.58.37-2.36s.2-1.36.29-2c0-.21.06-.4.09-.59.08-.63.18-1.27.25-1.89s.21-1.52.3-2.27c.17-1.25.32-2.48.46-3.71.28-2.44.53-4.84.77-7.16.61-6.38,1-12.12,1.27-16.6.34-6,.42-9.7.42-9.7A71.71,71.71,0,0,0,283.09,424.25Zm-1.76,28.9a3.31,3.31,0,1,1-3.3-3.07A3.2,3.2,0,0,1,281.33,453.15Zm-96.86-20a31.19,31.19,0,0,1,8.94-6.73,26.78,26.78,0,0,1,7.16-2.49h41.87a26.66,26.66,0,0,1,7.16,2.49,31.06,31.06,0,0,1,8.94,6.73v21.08L256,456.5,242.76,468H200.25l-13.2-11.53-2.58-2.26V433.16Zm-16.19,20a3.3,3.3,0,1,1-3.3-3.07A3.2,3.2,0,0,1,168.28,453.15Zm3.3,32a3.31,3.31,0,1,1-3.3-3.07A3.2,3.2,0,0,1,171.58,485.12Zm99.85,0a3.31,3.31,0,1,1,3.3,3.07A3.19,3.19,0,0,1,271.43,485.12Z" />
      <path class="GUNDAN_OWL_OUTFIT_GUNDAN_OWL_OUTFIT_10_cls-6" d="M185.36,402.13c10.16-.5,35.89-.51,36.15-.51s26,0,36.15.51c7.54.37,13.61,1.21,18.09,6.95l1.31-3.78a1.85,1.85,0,0,1-1.13-1.06c-3.68-9.73-8.7-11-18.47-11.5-10.06-.5-35.69-.51-35.95-.51s-25.89,0-35.95.51c-9.78.48-14.8,1.77-18.47,11.5A1.87,1.87,0,0,1,166,405.3l1.31,3.78C171.74,403.34,177.81,402.5,185.36,402.13Z" />
      <path class="GUNDAN_OWL_OUTFIT_GUNDAN_OWL_OUTFIT_10_cls-3" d="M164.56,428.46a3.21,3.21,0,0,0,1.76-.51,2.76,2.76,0,0,0,.8-4c-.72-1-1.41-2-2.06-3h0c-.4-.6-.79-1.19-1.16-1.78a88,88,0,0,1-5.51-10,86,86,0,0,1-3.53-8.74,88.87,88.87,0,0,1-2.56-8.77h0c-.1-.41-.19-.81-.27-1.22h0c-.54-2.48-1-4.88-1.32-7.18-.13-.89-.24-1.78-.34-2.64-.35-2.91-.55-5.64-.63-8.12-.11-3.15,0-5.89.08-8.14,0-.35,0-.68.05-1a49.51,49.51,0,0,1,.61-5.49,2.93,2.93,0,0,0-2.53-3.35,3.11,3.11,0,0,0-3.61,2.34c0,.12-.09.44-.16,1-.18,1.17-.46,3.3-.64,6.19a93.24,93.24,0,0,0-.06,10.17c0,.94.1,1.92.17,2.92.14,1.77.33,3.61.59,5.54.17,1.38.39,2.79.65,4.24.36,2.05.81,4.18,1.34,6.36a96.28,96.28,0,0,0,3.36,10.91,92.63,92.63,0,0,0,4.75,10.64,90.22,90.22,0,0,0,5.63,9.44c.1.16.21.34.33.5.56.81,1.14,1.63,1.73,2.45A3.16,3.16,0,0,0,164.56,428.46Z" />
      <path class="GUNDAN_OWL_OUTFIT_GUNDAN_OWL_OUTFIT_10_cls-3" d="M299.51,364c-.17-2.89-.46-5-.63-6.19-.08-.53-.14-.85-.17-1a3.1,3.1,0,0,0-3.61-2.34,2.92,2.92,0,0,0-2.52,3.35c0,.11.37,2.09.61,5.49,0,.32,0,.65.05,1,.12,2.25.18,5,.07,8.14-.07,2.48-.27,5.21-.62,8.12-.1.86-.21,1.75-.35,2.64-.34,2.3-.77,4.7-1.32,7.18h0c-.08.41-.18.81-.28,1.22h0a91.14,91.14,0,0,1-6.09,17.51,87.84,87.84,0,0,1-5.5,10c-.38.59-.76,1.18-1.16,1.78h0c-.65,1-1.35,2-2.07,3a2.77,2.77,0,0,0,.81,4,3.25,3.25,0,0,0,4.32-.75c.6-.82,1.17-1.64,1.73-2.45.12-.16.24-.34.34-.5a88.4,88.4,0,0,0,5.62-9.44,90.93,90.93,0,0,0,4.75-10.64,94.28,94.28,0,0,0,3.36-10.91c.54-2.18,1-4.31,1.35-6.36.26-1.45.47-2.86.64-4.24.27-1.93.45-3.77.59-5.54.07-1,.14-2,.17-2.92A90.77,90.77,0,0,0,299.51,364Z" />
      <path class="GUNDAN_OWL_OUTFIT_GUNDAN_OWL_OUTFIT_10_cls-3" d="M277.69,418.28a2.06,2.06,0,0,0,.63-.1,1.7,1.7,0,0,0,1.13-2.22,26.05,26.05,0,0,0-3.7-6.88c-4.48-5.74-10.55-6.58-18.09-6.95-10.16-.5-35.89-.51-36.15-.51s-26,0-36.15.51c-7.55.37-13.62,1.21-18.1,6.95a26.34,26.34,0,0,0-3.7,6.88,1.71,1.71,0,0,0,1.14,2.22,2,2,0,0,0,.62.1,1.88,1.88,0,0,0,1.77-1.16c3.67-9.73,8.69-11,18.47-11.51,10.06-.5,35.69-.51,35.95-.51s25.89,0,35.95.51c9.77.49,14.79,1.78,18.47,11.51A1.85,1.85,0,0,0,277.69,418.28Z" />
      <path class="GUNDAN_OWL_OUTFIT_GUNDAN_OWL_OUTFIT_10_cls-3" d="M164.7,405.31a1.94,1.94,0,0,0,.62.09,1.89,1.89,0,0,0,.63-.1,1.87,1.87,0,0,0,1.14-1.06c3.67-9.73,8.69-11,18.47-11.5,10.06-.5,35.69-.51,35.95-.51s25.89,0,35.95.51c9.77.48,14.79,1.77,18.47,11.5a1.85,1.85,0,0,0,1.13,1.06,1.89,1.89,0,0,0,.63.1,2,2,0,0,0,.63-.09,1.71,1.71,0,0,0,1.13-2.22,28.56,28.56,0,0,0-2.39-5,18.53,18.53,0,0,0-3.16-3.92,15.18,15.18,0,0,0-2.69-2c-3.78-2.19-8.31-2.68-13.55-2.94-5.73-.28-16.4-.41-24.68-.47-6.41,0-11.36,0-11.47,0s-5.07,0-11.47,0c-8.28.06-19,.19-24.68.47-5.25.26-9.78.75-13.55,2.94a14.49,14.49,0,0,0-2.69,2,18.56,18.56,0,0,0-3.17,3.92,29.3,29.3,0,0,0-2.39,5A1.71,1.71,0,0,0,164.7,405.31Z" />
      <path class="GUNDAN_OWL_OUTFIT_GUNDAN_OWL_OUTFIT_10_cls-6" d="M294.21,330.66c-2.49,10.72-12.58,26.2-23,32.06C248,375.7,233,382.18,233,382.18v6.61c8.28.06,19,.19,24.68.47,5.24.26,9.77.75,13.55,2.94a60.89,60.89,0,0,0,17-26S297.84,340.19,294.21,330.66Z" />
      <path class="GUNDAN_OWL_OUTFIT_GUNDAN_OWL_OUTFIT_10_cls-6" d="M210,382.18v6.61c-5.05,0-11,.1-16.19.21-3.28.06-6.26.14-8.48.26-5.25.27-9.78.75-13.55,2.95a60.91,60.91,0,0,1-17-26h0c-.07-.21-1.28-3.55-2.54-8.11-.3-1.13-.61-2.33-.92-3.58-.21-.92-.43-1.88-.63-2.86-1.25-6.07-1.92-12.69-.32-16.89,2.49,10.72,11,22.11,21.49,28C195,375.7,210,382.18,210,382.18Z" />
      <path class="GUNDAN_OWL_OUTFIT_GUNDAN_OWL_OUTFIT_10_cls-7" d="M300.67,313c0,1.12-.09,2.33-.18,3.62-.27,4.11-5.1,9-6.27,14.07-2.49,10.72-12.59,26.2-23.05,32.06C248,375.7,233,382.18,233,382.18v6.61c-6.41-.05-11.36-.05-11.48-.05s-5.06,0-11.47.05v-6.61s-15-6.48-38.19-19.46c-10.46-5.86-19-17.25-21.49-28-.13-.51-.24-1-.35-1.54h0c-1.36-6.43,4-9.06,3.89-13.42.81.87,31.12,32,77.7,48.38C260.68,346,292.86,320.45,300.67,313Z" />
      <path class="GUNDAN_OWL_OUTFIT_GUNDAN_OWL_OUTFIT_10_cls-8" d="M154,313.17s-.17,2.21-.12,5.77c0,.27,0,.54,0,.84.1,4.36-5.25,7-3.89,13.42" />
      <path class="GUNDAN_OWL_OUTFIT_GUNDAN_OWL_OUTFIT_10_cls-8" d="M150,333.21c.11.51.22,1,.35,1.54,2.49,10.72,11,22.11,21.49,28C195,375.7,210,382.18,210,382.18v6.61" />
      <path class="GUNDAN_OWL_OUTFIT_GUNDAN_OWL_OUTFIT_10_cls-8" d="M171.81,392.2a60.8,60.8,0,0,1-17-26,27.44,27.44,0,0,1-4.94-2.83" />
      <path class="GUNDAN_OWL_OUTFIT_GUNDAN_OWL_OUTFIT_10_cls-8" d="M129.3,325c-.3,9.11,8.3,24.33,14.84,32.87" />
      <path class="GUNDAN_OWL_OUTFIT_GUNDAN_OWL_OUTFIT_10_cls-8" d="M129.3,325c.11-3.28,6.16-2.77,6.42-5.12a17.8,17.8,0,0,1,1.12-2.5l0,0c1.34-2.52,7.69-2.36,10.61-5.94a.21.21,0,0,1,0-.06,73.89,73.89,0,0,1,5.42-6,3.12,3.12,0,0,1,.69.54" />
      <path class="GUNDAN_OWL_OUTFIT_GUNDAN_OWL_OUTFIT_10_cls-8" d="M221.51,388.75c-.12,0-5.07,0-11.47,0-8.28.06-19,.19-24.68.47-5.25.26-9.78.75-13.55,2.94a14.49,14.49,0,0,0-2.69,2,18.56,18.56,0,0,0-3.17,3.92,29.3,29.3,0,0,0-2.39,5,1.71,1.71,0,0,0,1.14,2.22,1.94,1.94,0,0,0,.62.09,1.89,1.89,0,0,0,.63-.1,1.87,1.87,0,0,0,1.14-1.06c3.67-9.73,8.69-11,18.47-11.5,10.06-.5,35.69-.51,35.95-.51" />
      <path class="GUNDAN_OWL_OUTFIT_GUNDAN_OWL_OUTFIT_10_cls-8" d="M221.51,405.1c-.26,0-25.89,0-35.95.51-9.78.49-14.8,1.78-18.47,11.51a1.88,1.88,0,0,1-1.77,1.16,2,2,0,0,1-.62-.1,1.71,1.71,0,0,1-1.14-2.22,26.34,26.34,0,0,1,3.7-6.88c4.48-5.74,10.55-6.58,18.1-6.95,10.16-.5,35.89-.51,36.15-.51" />
      <line class="GUNDAN_OWL_OUTFIT_GUNDAN_OWL_OUTFIT_10_cls-8" x1="167.26" y1="409.08" x2="165.95" y2="405.3" />
      <path class="GUNDAN_OWL_OUTFIT_GUNDAN_OWL_OUTFIT_10_cls-8" d="M129.3,325v0c-2.91,3.22-.42,12.17-5.13,16.12-.84.72-1.68,1.38-2.49,2-1,.75-2,1.46-2.82,2.13-2.79,2.14-4.78,3.83-6.09,5" />
      <path class="GUNDAN_OWL_OUTFIT_GUNDAN_OWL_OUTFIT_10_cls-8" d="M124.17,341.09C116.8,330.78,110,330.33,107,331c-3.2.69-19.15,20.68-19.15,20.68s-1.82,13.25-.72,19.12c.57,3.13,2.85,7.94,5.16,11.71,1.75,2.88,3.53,5.15,4.58,5.58a.81.81,0,0,0,.41.08,6.49,6.49,0,0,0,2-1.23c4.77-3.63,15.61-14.17,17.06-16.82,1.59-2.9-.75-5.34-2.21-9.76-.15-.42-.27-.86-.4-1.31a51.84,51.84,0,0,1-.94-8.84c-.31-6.53-.23-13.73-.23-13.73" />
      <path class="GUNDAN_OWL_OUTFIT_GUNDAN_OWL_OUTFIT_10_cls-8" d="M96.83,388.05s-.54,2.54-1.3,5.51c-.45,1.69-1,3.53-1.48,5.1-1.46,4.33-9.36,10.62-9.36,10.62s-1.16-.14-6.3-1.06c-.45-.08-.93-.2-1.45-.34-5.48-1.52-14.51-6.62-15.17-14.22-.73-8.3,14.44-34,17.34-37.9s8.7-4.12,8.7-4.12" />
      <path class="GUNDAN_OWL_OUTFIT_GUNDAN_OWL_OUTFIT_10_cls-8" d="M84.69,409.28c1.74,8.14-3,17.5-7.29,23.17a9.66,9.66,0,0,0-.73,1.17c-1.76,3.27-2.33,8.31-3.19,12.54-.77,3.91-1.78,7.12-4.14,7.68-1.84.43-4.25-1.49-6.68-4.33-.56-.65-1.11-1.34-1.67-2.07a96.89,96.89,0,0,1-8.72-14.39c-2.18-4.55-3.92-11.34,0-24.83s9.5-14.56,9.5-14.56" />
      <path class="GUNDAN_OWL_OUTFIT_GUNDAN_OWL_OUTFIT_10_cls-8" d="M62.66,449.51c1-6.33,4-9.66,8.54-16.91s5.74-24.72,5.74-24.72a91.87,91.87,0,0,0,15.31-25.41,90.88,90.88,0,0,0,21.86-22.15" />
      <path class="GUNDAN_OWL_OUTFIT_GUNDAN_OWL_OUTFIT_10_cls-8" d="M159.93,424.25a72.8,72.8,0,0,0-6.18,8.94s.09,3.74.42,9.71c.27,4.48.66,10.22,1.27,16.6.24,2.32.49,4.72.78,7.17.48,4.18,1.07,8.51,1.75,12.84.75,4.64,1.61,9.28,2.63,13.72.34,1.52.71,3,1.08,4.49.55,2.12,1.15,4.17,1.77,6.14h58.06" />
      <path class="GUNDAN_OWL_OUTFIT_GUNDAN_OWL_OUTFIT_10_cls-8" d="M164.7,418.18l-.81,1" />
      <path class="GUNDAN_OWL_OUTFIT_GUNDAN_OWL_OUTFIT_10_cls-8" d="M221.51,416H197.63s-3.86,4.38-7.41,8.79c-2.8,3.5-5.41,7-5.75,8.34v21.08l2.58,2.25L200.25,468h21.26" />
      <path class="GUNDAN_OWL_OUTFIT_GUNDAN_OWL_OUTFIT_10_cls-8" d="M221.51,423.94H200.57a26.35,26.35,0,0,0-7.16,2.49,31.19,31.19,0,0,0-8.94,6.73" />
      <path class="GUNDAN_OWL_OUTFIT_GUNDAN_OWL_OUTFIT_10_cls-8" d="M187.05,456.49s1.27-20.76,6.36-30.05" />
      <path class="GUNDAN_OWL_OUTFIT_GUNDAN_OWL_OUTFIT_10_cls-8" d="M124.85,420.07l1,11,.66,6.88.45,4.84.57,6,.23,2.33s.57-7.63,1.48-17c.06-.58.11-1.16.16-1.75.31-3,.63-6.15,1-9.25.76-6.67,1.64-13.15,2.56-17.66" />
      <line class="GUNDAN_OWL_OUTFIT_GUNDAN_OWL_OUTFIT_10_cls-8" x1="122.78" y1="398.36" x2="124.83" y2="420.07" />
      <path class="GUNDAN_OWL_OUTFIT_GUNDAN_OWL_OUTFIT_10_cls-8" d="M99.26,386.9s8.7,22.63,25.57,33.17h0l5.58,3" />
      <path class="GUNDAN_OWL_OUTFIT_GUNDAN_OWL_OUTFIT_10_cls-8" d="M95.53,393.56s9.29,30.06,30.35,37.49l3.55,1.26h0" />
      <path class="GUNDAN_OWL_OUTFIT_GUNDAN_OWL_OUTFIT_10_cls-8" d="M108.33,348.19a10.3,10.3,0,0,1-.63,2.4,19.3,19.3,0,0,1-3.69,5.85,2.44,2.44,0,0,1-.27.29,20,20,0,0,1-2.23,2.11c-3.8,3.15-7.93,4.37-10.07,2.71-1.21-.94-1.57-2.62-1.17-4.64a11.52,11.52,0,0,1,.72-2.37,20,20,0,0,1,3.52-5.44c.21-.23.41-.45.64-.67a19.06,19.06,0,0,1,2.34-2.11c3.66-2.84,7.54-3.9,9.59-2.31,1.12.86,1.5,2.35,1.25,4.16" />
      <polyline class="GUNDAN_OWL_OUTFIT_GUNDAN_OWL_OUTFIT_10_cls-8" points="97.49 346.32 108.33 348.17 108.33 348.19" />
      <line class="GUNDAN_OWL_OUTFIT_GUNDAN_OWL_OUTFIT_10_cls-8" x1="107.7" y1="350.59" x2="95.15" y2="348.43" />
      <line class="GUNDAN_OWL_OUTFIT_GUNDAN_OWL_OUTFIT_10_cls-8" x1="103.74" y1="356.73" x2="90.99" y2="354.54" />
      <line class="GUNDAN_OWL_OUTFIT_GUNDAN_OWL_OUTFIT_10_cls-8" x1="101.51" y1="358.84" x2="90.27" y2="356.91" />
      <path class="GUNDAN_OWL_OUTFIT_GUNDAN_OWL_OUTFIT_10_cls-8" d="M82.52,377.36a9.73,9.73,0,0,1,0,2.47,18.54,18.54,0,0,1-2.07,6.52,3.54,3.54,0,0,1-.19.33,18,18,0,0,1-1.62,2.54c-2.86,3.9-6.57,6-9.07,4.87-1.42-.63-2.21-2.19-2.34-4.24a9.87,9.87,0,0,1,.11-2.46,18.87,18.87,0,0,1,2-6.06c.14-.27.29-.54.45-.8A18.59,18.59,0,0,1,71.51,378c2.82-3.58,6.32-5.46,8.72-4.39a4.46,4.46,0,0,1,2.29,3.77" />
      <polyline class="GUNDAN_OWL_OUTFIT_GUNDAN_OWL_OUTFIT_10_cls-8" points="71.51 377.96 82.52 377.35 82.52 377.36" />
      <polyline class="GUNDAN_OWL_OUTFIT_GUNDAN_OWL_OUTFIT_10_cls-8" points="82.52 379.83 82.51 379.83 69.78 380.53" />
      <polyline class="GUNDAN_OWL_OUTFIT_GUNDAN_OWL_OUTFIT_10_cls-8" points="80.25 386.68 67.33 387.39 67.31 387.39" />
      <line class="GUNDAN_OWL_OUTFIT_GUNDAN_OWL_OUTFIT_10_cls-8" x1="78.63" y1="389.22" x2="67.22" y2="389.85" />
      <path class="GUNDAN_OWL_OUTFIT_GUNDAN_OWL_OUTFIT_10_cls-8" d="M67.41,413.12a18.37,18.37,0,0,1-.64,6.77c0,.12-.07.24-.1.36a21.57,21.57,0,0,1-1,2.81c-2,4.35-5.18,7.08-7.87,6.44-1.52-.36-2.63-1.74-3.2-3.72a11,11,0,0,1-.42-2.42,18.61,18.61,0,0,1,.68-6.32c.09-.29.16-.6.26-.87a21.45,21.45,0,0,1,1.15-2.85c2-4,5-6.51,7.61-5.9a4.59,4.59,0,0,1,3,3.27A10.61,10.61,0,0,1,67.41,413.12Z" />
      <line class="GUNDAN_OWL_OUTFIT_GUNDAN_OWL_OUTFIT_10_cls-8" x1="56.22" y1="413.32" x2="66.88" y2="410.69" />
      <line class="GUNDAN_OWL_OUTFIT_GUNDAN_OWL_OUTFIT_10_cls-8" x1="67.41" y1="413.12" x2="55.07" y2="416.17" />
      <line class="GUNDAN_OWL_OUTFIT_GUNDAN_OWL_OUTFIT_10_cls-8" x1="66.65" y1="420.25" x2="54.13" y2="423.36" />
      <line class="GUNDAN_OWL_OUTFIT_GUNDAN_OWL_OUTFIT_10_cls-8" x1="65.61" y1="423.06" x2="54.55" y2="425.78" />
      <polyline class="GUNDAN_OWL_OUTFIT_GUNDAN_OWL_OUTFIT_10_cls-8" points="167.09 417.12 190.22 424.82 190.24 424.82" />
      <path class="GUNDAN_OWL_OUTFIT_GUNDAN_OWL_OUTFIT_10_cls-8" d="M150.35,334.75c-1.6,4.2-.93,10.82.32,16.89.2,1,.42,1.94.63,2.86.31,1.25.62,2.45.92,3.58,1.26,4.56,2.47,7.9,2.54,8.11h0" />
      <path class="GUNDAN_OWL_OUTFIT_GUNDAN_OWL_OUTFIT_10_cls-8" d="M152.29,391.67a88.87,88.87,0,0,0,2.56,8.77,86,86,0,0,0,3.53,8.74,88,88,0,0,0,5.51,10c.37.59.76,1.18,1.16,1.78" />
      <path class="GUNDAN_OWL_OUTFIT_GUNDAN_OWL_OUTFIT_10_cls-8" d="M152,390.45c.08.41.17.81.27,1.22" />
      <path class="GUNDAN_OWL_OUTFIT_GUNDAN_OWL_OUTFIT_10_cls-8" d="M165.06,421c.65,1,1.34,2,2.06,3a2.76,2.76,0,0,1-.8,4,3.21,3.21,0,0,1-1.76.51A3.16,3.16,0,0,1,162,427.2c-.59-.82-1.17-1.64-1.73-2.45-.12-.16-.23-.34-.33-.5a90.22,90.22,0,0,1-5.63-9.44,92.63,92.63,0,0,1-4.75-10.64,96.28,96.28,0,0,1-3.36-10.91c-.53-2.18-1-4.31-1.34-6.36-.26-1.45-.48-2.86-.65-4.24-.26-1.93-.45-3.77-.59-5.54-.07-1-.13-2-.17-2.92A93.24,93.24,0,0,1,143.5,364c.18-2.89.46-5,.64-6.19.07-.53.13-.85.16-1a3.11,3.11,0,0,1,3.61-2.34,2.93,2.93,0,0,1,2.53,3.35,49.51,49.51,0,0,0-.61,5.49c0,.32,0,.65-.05,1-.13,2.25-.19,5-.08,8.14.08,2.48.28,5.21.63,8.12.1.86.21,1.75.34,2.64.34,2.3.78,4.7,1.32,7.18" />
      <path class="GUNDAN_OWL_OUTFIT_GUNDAN_OWL_OUTFIT_10_cls-8" d="M143.5,364a7.75,7.75,0,0,1,6.28.34" />
      <path class="GUNDAN_OWL_OUTFIT_GUNDAN_OWL_OUTFIT_10_cls-8" d="M143.44,374.2a7.41,7.41,0,0,1,6.26-1.69" />
      <path class="GUNDAN_OWL_OUTFIT_GUNDAN_OWL_OUTFIT_10_cls-8" d="M144.2,382.66a7,7,0,0,1,6.13-2" />
      <path class="GUNDAN_OWL_OUTFIT_GUNDAN_OWL_OUTFIT_10_cls-8" d="M150.45,390.58a7.66,7.66,0,0,0-4.26,2.68" />
      <path class="GUNDAN_OWL_OUTFIT_GUNDAN_OWL_OUTFIT_10_cls-8" d="M152,390.45h0a6.88,6.88,0,0,0-1.53.13" />
      <path class="GUNDAN_OWL_OUTFIT_GUNDAN_OWL_OUTFIT_10_cls-8" d="M149.55,404.17a8,8,0,0,1,5.3-3.73" />
      <path class="GUNDAN_OWL_OUTFIT_GUNDAN_OWL_OUTFIT_10_cls-8" d="M154.3,414.81a10.26,10.26,0,0,1,4.08-5.63" />
      <path class="GUNDAN_OWL_OUTFIT_GUNDAN_OWL_OUTFIT_10_cls-8" d="M165.06,421h0a5.38,5.38,0,0,0-4.79,3.79" />
      <path class="GUNDAN_OWL_OUTFIT_GUNDAN_OWL_OUTFIT_10_cls-8" d="M223.76,445.92c0,7.57-1,13.72-2.25,13.72s-2.26-6.15-2.26-13.72,1-13.71,2.26-13.71S223.76,438.34,223.76,445.92Z" />
      <path class="GUNDAN_OWL_OUTFIT_GUNDAN_OWL_OUTFIT_10_cls-8" d="M213.45,445.92c0,7.57-1,13.72-2.24,13.72S209,453.49,209,445.92s1-13.71,2.26-13.71S213.45,438.34,213.45,445.92Z" />
      <path class="GUNDAN_OWL_OUTFIT_GUNDAN_OWL_OUTFIT_10_cls-8" d="M203.15,445.92c0,7.57-1,13.72-2.25,13.72s-2.24-6.15-2.24-13.72,1-13.71,2.24-13.71S203.15,438.34,203.15,445.92Z" />
      <line class="GUNDAN_OWL_OUTFIT_GUNDAN_OWL_OUTFIT_10_cls-8" x1="150.46" y1="390.58" x2="150.45" y2="390.58" />
      <path class="GUNDAN_OWL_OUTFIT_GUNDAN_OWL_OUTFIT_10_cls-8" d="M152.28,391.67h0A101.79,101.79,0,0,0,166,398.11" />
      <path class="GUNDAN_OWL_OUTFIT_GUNDAN_OWL_OUTFIT_10_cls-8" d="M118.86,345.19s.46,23.39,26,41.71" />
      <path class="GUNDAN_OWL_OUTFIT_GUNDAN_OWL_OUTFIT_10_cls-8" d="M169.12,394.19a83.47,83.47,0,0,1-18.45-10.92" />
      <path class="GUNDAN_OWL_OUTFIT_GUNDAN_OWL_OUTFIT_10_cls-8" d="M121.68,343.06a88.4,88.4,0,0,0,21.93,34.06" />
      <path class="GUNDAN_OWL_OUTFIT_GUNDAN_OWL_OUTFIT_10_cls-8" d="M233,388.79v-6.61s15-6.48,38.19-19.46c10.46-5.86,20.56-21.34,23.05-32.06,1.17-5.06,6-10,6.27-14.07.09-1.29.14-2.5.18-3.62" />
      <path class="GUNDAN_OWL_OUTFIT_GUNDAN_OWL_OUTFIT_10_cls-8" d="M293.19,363.37a27.88,27.88,0,0,1-4.95,2.83,60.89,60.89,0,0,1-17,26" />
      <path class="GUNDAN_OWL_OUTFIT_GUNDAN_OWL_OUTFIT_10_cls-8" d="M298.47,300.37c5.68,6.19,13.14,8.64,14.1,11.49.22,1.92.45,4.24.57,6.83,0,.57.06,1.15.08,1.75" />
      <path class="GUNDAN_OWL_OUTFIT_GUNDAN_OWL_OUTFIT_10_cls-8" d="M298.88,357.84c6.53-8.54,14.64-28.27,14.34-37.39" />
      <path class="GUNDAN_OWL_OUTFIT_GUNDAN_OWL_OUTFIT_10_cls-8" d="M221.51,392.23c.26,0,25.89,0,35.95.51,9.77.48,14.79,1.77,18.47,11.5a1.85,1.85,0,0,0,1.13,1.06,1.89,1.89,0,0,0,.63.1,2,2,0,0,0,.63-.09,1.71,1.71,0,0,0,1.13-2.22,28.56,28.56,0,0,0-2.39-5,18.53,18.53,0,0,0-3.16-3.92,15.18,15.18,0,0,0-2.69-2c-3.78-2.19-8.31-2.68-13.55-2.94-5.73-.28-16.4-.41-24.68-.47-6.41,0-11.36,0-11.47,0" />
      <path class="GUNDAN_OWL_OUTFIT_GUNDAN_OWL_OUTFIT_10_cls-8" d="M221.51,405.1c.26,0,25.89,0,35.95.51,9.77.49,14.79,1.78,18.47,11.51a1.85,1.85,0,0,0,1.76,1.16,2,2,0,0,0,.63-.1,1.7,1.7,0,0,0,1.13-2.22,26.05,26.05,0,0,0-3.7-6.88c-4.48-5.74-10.55-6.58-18.09-6.95-10.16-.5-35.89-.51-36.15-.51" />
      <line class="GUNDAN_OWL_OUTFIT_GUNDAN_OWL_OUTFIT_10_cls-8" x1="277.06" y1="405.3" x2="275.75" y2="409.08" />
      <path class="GUNDAN_OWL_OUTFIT_GUNDAN_OWL_OUTFIT_10_cls-8" d="M332.32,346.16c-1.31-1.15,1.65-6.93-1.14-9.07-.87-.67-1.81-1.38-2.83-2.13-.81-.59-1.64-1.25-2.49-2a143,143,0,0,1-12.64-12.54h0" />
      <path class="GUNDAN_OWL_OUTFIT_GUNDAN_OWL_OUTFIT_10_cls-8" d="M332.54,332.43s.09,7.2-.22,13.73c-.16,3.58-2.54,11-3,12.85-.13.45-.25.89-.4,1.31-1.46,4.42-3.8,6.86-2.2,9.76,1.44,2.65,12.29,13.19,17.06,16.82a6.6,6.6,0,0,0,2,1.23.86.86,0,0,0,.42-.08c1-.43,2.82-2.7,4.58-5.58,2.3-3.77,4.58-8.58,5.15-11.71,1.1-5.87-.72-19.12-.72-19.12s-15.95-20-19.15-20.68c-3-.63-2.81-8.28-10.19,2" />
      <path class="GUNDAN_OWL_OUTFIT_GUNDAN_OWL_OUTFIT_10_cls-8" d="M355.2,351.64s5.8.2,8.71,4.12,18.06,29.6,17.33,37.9c-.66,7.6-9.69,12.7-15.17,14.22-.52.14-1,.26-1.44.34-5.15.92-6.3,1.06-6.3,1.06S350.42,403,349,398.66c-.52-1.57-1-3.41-1.48-5.1-.76-3-1.29-5.51-1.29-5.51" />
      <path class="GUNDAN_OWL_OUTFIT_GUNDAN_OWL_OUTFIT_10_cls-8" d="M381.24,393.66s5.59,1.07,9.5,14.56,2.18,20.28,0,24.83A96.89,96.89,0,0,1,382,447.44c-.56.73-1.1,1.42-1.66,2.07-2.43,2.84-4.85,4.76-6.69,4.33-2.36-.56-3.36-3.77-4.14-7.68-.86-4.23-1.43-9.27-3.18-12.54a11.13,11.13,0,0,0-.74-1.17c-4.24-5.67-9-15-7.28-23.17" />
      <path class="GUNDAN_OWL_OUTFIT_GUNDAN_OWL_OUTFIT_10_cls-8" d="M328.9,360.32a91,91,0,0,0,21.87,22.15,91.71,91.71,0,0,0,15.3,25.41s1.17,17.48,5.74,24.72,7.5,10.58,8.55,16.91" />
      <path class="GUNDAN_OWL_OUTFIT_GUNDAN_OWL_OUTFIT_10_cls-8" d="M221.51,503.86h58.05c.62-2,1.22-4,1.77-6.14.37-1.46.75-3,1.08-4.49,1-4.44,1.88-9.08,2.63-13.72.69-4.33,1.27-8.66,1.76-12.84.28-2.45.53-4.85.77-7.17.61-6.38,1-12.12,1.27-16.6.34-6,.42-9.71.42-9.71a73.65,73.65,0,0,0-6.17-8.94" />
      <path class="GUNDAN_OWL_OUTFIT_GUNDAN_OWL_OUTFIT_10_cls-8" d="M279.13,419.18l-.81-1" />
      <path class="GUNDAN_OWL_OUTFIT_GUNDAN_OWL_OUTFIT_10_cls-8" d="M221.51,416h23.87s3.86,4.38,7.41,8.79c2.8,3.5,5.42,7,5.75,8.34v21.08L256,456.49,242.76,468H221.51" />
      <path class="GUNDAN_OWL_OUTFIT_GUNDAN_OWL_OUTFIT_10_cls-8" d="M221.51,423.94h20.93a26.35,26.35,0,0,1,7.16,2.49,31.19,31.19,0,0,1,8.94,6.73" />
      <path class="GUNDAN_OWL_OUTFIT_GUNDAN_OWL_OUTFIT_10_cls-8" d="M256,456.49s-1.27-20.76-6.36-30.05" />
      <path class="GUNDAN_OWL_OUTFIT_GUNDAN_OWL_OUTFIT_10_cls-8" d="M318.17,420.07l-1,11-.66,6.88-.45,4.84-.57,6-.22,2.33s-.58-7.63-1.48-17c-.07-.58-.12-1.16-.17-1.75-.31-3-.63-6.15-1-9.25-.75-6.67-1.64-13.15-2.56-17.66" />
      <line class="GUNDAN_OWL_OUTFIT_GUNDAN_OWL_OUTFIT_10_cls-8" x1="320.23" y1="398.36" x2="318.18" y2="420.07" />
      <path class="GUNDAN_OWL_OUTFIT_GUNDAN_OWL_OUTFIT_10_cls-8" d="M343.76,386.9s-8.71,22.63-25.58,33.17h0l-5.58,3" />
      <path class="GUNDAN_OWL_OUTFIT_GUNDAN_OWL_OUTFIT_10_cls-8" d="M347.48,393.56s-9.29,30.06-30.35,37.49l-3.55,1.26h0" />
      <path class="GUNDAN_OWL_OUTFIT_GUNDAN_OWL_OUTFIT_10_cls-8" d="M334.68,348.19a10.82,10.82,0,0,0,.63,2.4,19.5,19.5,0,0,0,3.69,5.85,3.71,3.71,0,0,0,.27.29,20,20,0,0,0,2.23,2.11c3.8,3.15,7.94,4.37,10.08,2.71,1.21-.94,1.57-2.62,1.17-4.64a12.91,12.91,0,0,0-.72-2.37,20,20,0,0,0-3.53-5.44c-.21-.23-.41-.45-.63-.67a20.64,20.64,0,0,0-2.34-2.11c-3.67-2.84-7.55-3.9-9.59-2.31-1.12.86-1.51,2.35-1.26,4.16" />
      <polyline class="GUNDAN_OWL_OUTFIT_GUNDAN_OWL_OUTFIT_10_cls-8" points="334.68 348.19 334.68 348.17 345.52 346.32" />
      <line class="GUNDAN_OWL_OUTFIT_GUNDAN_OWL_OUTFIT_10_cls-8" x1="347.87" y1="348.43" x2="335.31" y2="350.59" />
      <line class="GUNDAN_OWL_OUTFIT_GUNDAN_OWL_OUTFIT_10_cls-8" x1="352.03" y1="354.54" x2="339.27" y2="356.73" />
      <line class="GUNDAN_OWL_OUTFIT_GUNDAN_OWL_OUTFIT_10_cls-8" x1="352.75" y1="356.91" x2="341.5" y2="358.84" />
      <path class="GUNDAN_OWL_OUTFIT_GUNDAN_OWL_OUTFIT_10_cls-8" d="M360.49,377.36a9.32,9.32,0,0,0,0,2.47,18.5,18.5,0,0,0,2.06,6.52c.07.11.13.23.19.33a19,19,0,0,0,1.62,2.54c2.86,3.9,6.57,6,9.08,4.87,1.42-.63,2.2-2.19,2.34-4.24a10.93,10.93,0,0,0-.11-2.46,18.91,18.91,0,0,0-2-6.06c-.14-.27-.29-.54-.45-.8A18.59,18.59,0,0,0,371.5,378c-2.81-3.58-6.31-5.46-8.72-4.39a4.48,4.48,0,0,0-2.29,3.77" />
      <polyline class="GUNDAN_OWL_OUTFIT_GUNDAN_OWL_OUTFIT_10_cls-8" points="360.49 377.36 360.49 377.35 371.5 377.96" />
      <polyline class="GUNDAN_OWL_OUTFIT_GUNDAN_OWL_OUTFIT_10_cls-8" points="373.23 380.53 360.51 379.83 360.49 379.83" />
      <polyline class="GUNDAN_OWL_OUTFIT_GUNDAN_OWL_OUTFIT_10_cls-8" points="375.7 387.39 375.69 387.39 362.76 386.68" />
      <line class="GUNDAN_OWL_OUTFIT_GUNDAN_OWL_OUTFIT_10_cls-8" x1="375.8" y1="389.85" x2="364.38" y2="389.22" />
      <path class="GUNDAN_OWL_OUTFIT_GUNDAN_OWL_OUTFIT_10_cls-8" d="M375.6,413.12a18.39,18.39,0,0,0,.65,6.77c0,.12.06.24.1.36a20.2,20.2,0,0,0,1,2.81c2,4.35,5.18,7.08,7.87,6.44,1.52-.36,2.63-1.74,3.2-3.72a11,11,0,0,0,.43-2.42,18.63,18.63,0,0,0-.69-6.32c-.09-.29-.16-.6-.26-.87a20.18,20.18,0,0,0-1.15-2.85c-2-4-5-6.51-7.6-5.9a4.6,4.6,0,0,0-3.06,3.27A10.61,10.61,0,0,0,375.6,413.12Z" />
      <line class="GUNDAN_OWL_OUTFIT_GUNDAN_OWL_OUTFIT_10_cls-8" x1="376.13" y1="410.69" x2="386.79" y2="413.32" />
      <line class="GUNDAN_OWL_OUTFIT_GUNDAN_OWL_OUTFIT_10_cls-8" x1="387.94" y1="416.17" x2="375.6" y2="413.12" />
      <line class="GUNDAN_OWL_OUTFIT_GUNDAN_OWL_OUTFIT_10_cls-8" x1="388.89" y1="423.36" x2="376.36" y2="420.25" />
      <line class="GUNDAN_OWL_OUTFIT_GUNDAN_OWL_OUTFIT_10_cls-8" x1="388.46" y1="425.78" x2="377.4" y2="423.06" />
      <polyline class="GUNDAN_OWL_OUTFIT_GUNDAN_OWL_OUTFIT_10_cls-8" points="275.93 417.12 252.79 424.82 252.78 424.82" />
      <path class="GUNDAN_OWL_OUTFIT_GUNDAN_OWL_OUTFIT_10_cls-8" d="M288.24,366.2s9.6-26,6-35.54" />
      <path class="GUNDAN_OWL_OUTFIT_GUNDAN_OWL_OUTFIT_10_cls-8" d="M290.72,391.67a91.14,91.14,0,0,1-6.09,17.51,87.84,87.84,0,0,1-5.5,10c-.38.59-.76,1.18-1.16,1.78" />
      <path class="GUNDAN_OWL_OUTFIT_GUNDAN_OWL_OUTFIT_10_cls-8" d="M291,390.45c-.08.41-.18.81-.28,1.22" />
      <path class="GUNDAN_OWL_OUTFIT_GUNDAN_OWL_OUTFIT_10_cls-8" d="M278,421c-.65,1-1.35,2-2.07,3a2.77,2.77,0,0,0,.81,4,3.25,3.25,0,0,0,4.32-.75c.6-.82,1.17-1.64,1.73-2.45.12-.16.24-.34.34-.5a88.4,88.4,0,0,0,5.62-9.44,90.93,90.93,0,0,0,4.75-10.64,94.28,94.28,0,0,0,3.36-10.91c.54-2.18,1-4.31,1.35-6.36.26-1.45.47-2.86.64-4.24.27-1.93.45-3.77.59-5.54.07-1,.14-2,.17-2.92a90.77,90.77,0,0,0-.06-10.17c-.17-2.89-.46-5-.63-6.19-.08-.53-.14-.85-.17-1a3.1,3.1,0,0,0-3.61-2.34,2.92,2.92,0,0,0-2.52,3.35c0,.11.37,2.09.61,5.49,0,.32,0,.65.05,1,.12,2.25.18,5,.07,8.14-.07,2.48-.27,5.21-.62,8.12-.1.86-.21,1.75-.35,2.64-.34,2.3-.77,4.7-1.32,7.18" />
      <path class="GUNDAN_OWL_OUTFIT_GUNDAN_OWL_OUTFIT_10_cls-8" d="M293.24,364.37a7.72,7.72,0,0,1,6.27-.34" />
      <path class="GUNDAN_OWL_OUTFIT_GUNDAN_OWL_OUTFIT_10_cls-8" d="M293.31,372.51a7.39,7.39,0,0,1,6.26,1.69" />
      <path class="GUNDAN_OWL_OUTFIT_GUNDAN_OWL_OUTFIT_10_cls-8" d="M292.69,380.63a6.92,6.92,0,0,1,6.12,2" />
      <path class="GUNDAN_OWL_OUTFIT_GUNDAN_OWL_OUTFIT_10_cls-8" d="M292.55,390.58a6.88,6.88,0,0,0-1.53-.13h0" />
      <path class="GUNDAN_OWL_OUTFIT_GUNDAN_OWL_OUTFIT_10_cls-8" d="M296.82,393.26a7.66,7.66,0,0,0-4.26-2.68" />
      <path class="GUNDAN_OWL_OUTFIT_GUNDAN_OWL_OUTFIT_10_cls-8" d="M288.17,400.44a8,8,0,0,1,5.29,3.73" />
      <path class="GUNDAN_OWL_OUTFIT_GUNDAN_OWL_OUTFIT_10_cls-8" d="M284.63,409.18a10.26,10.26,0,0,1,4.08,5.63" />
      <path class="GUNDAN_OWL_OUTFIT_GUNDAN_OWL_OUTFIT_10_cls-8" d="M282.75,424.75A5.38,5.38,0,0,0,278,421h0" />
      <path class="GUNDAN_OWL_OUTFIT_GUNDAN_OWL_OUTFIT_10_cls-8" d="M229.56,445.92c0,7.57,1,13.72,2.25,13.72s2.25-6.15,2.25-13.72-1-13.71-2.25-13.71S229.56,438.34,229.56,445.92Z" />
      <path class="GUNDAN_OWL_OUTFIT_GUNDAN_OWL_OUTFIT_10_cls-8" d="M239.86,445.92c0,7.57,1,13.72,2.26,13.72s2.24-6.15,2.24-13.72-1-13.71-2.24-13.71S239.86,438.34,239.86,445.92Z" />
      <line class="GUNDAN_OWL_OUTFIT_GUNDAN_OWL_OUTFIT_10_cls-8" x1="292.56" y1="390.58" x2="292.55" y2="390.58" />
      <path class="GUNDAN_OWL_OUTFIT_GUNDAN_OWL_OUTFIT_10_cls-8" d="M277.06,398.11a101.79,101.79,0,0,0,13.66-6.44h0" />
      <path class="GUNDAN_OWL_OUTFIT_GUNDAN_OWL_OUTFIT_10_cls-8" d="M298.17,386.9c25.53-18.32,33-49.81,33-49.81" />
      <path class="GUNDAN_OWL_OUTFIT_GUNDAN_OWL_OUTFIT_10_cls-8" d="M292.34,383.27a83.39,83.39,0,0,1-18.44,10.92" />
      <path class="GUNDAN_OWL_OUTFIT_GUNDAN_OWL_OUTFIT_10_cls-8" d="M299.4,377.12c16.54-16.07,29-42.16,29-42.16" />
      <path class="GUNDAN_OWL_OUTFIT_GUNDAN_OWL_OUTFIT_10_cls-8" d="M210,383.84c3.88-2.69,7.72-5.42,11.47-8.15,3.43-2.51,6.8-5,10.08-7.53C260.68,346,292.86,320.44,300.67,313" />
      <path class="GUNDAN_OWL_OUTFIT_GUNDAN_OWL_OUTFIT_10_cls-8" d="M231.59,368.16c-46.58-16.34-76.89-47.51-77.7-48.38h0" />
      <path class="GUNDAN_OWL_OUTFIT_GUNDAN_OWL_OUTFIT_10_cls-8" d="M221.5,375.69c-33.87-7.88-63-33.28-71.5-42.48h0" />
      <g class="GUNDAN_OWL_OUTFIT_GUNDAN_OWL_OUTFIT_10_cls-9">
        <path d="M152.43,355.63c-.08-.07-.52-.49-1.13-1.13a23.24,23.24,0,0,1-3.31-4.33c-1.62-2.88-5.21-12.41-5.43-12.81-.1-.2-1.74-4.62-3.45-9.24a43.36,43.36,0,0,1-2.27-10.79l0,0c.33-.52,7.6-1.78,10.61-5.94a.21.21,0,0,1,0-.06c2.42-3.34,4.75-6.22,5.42-6a2.06,2.06,0,0,1,.69.49v.05c-.15,1.57-.27,3.15-.42,4.72-.06.64-.12,1.28-.19,1.93h0a39.88,39.88,0,0,0-1.38,5.47c-.61,3.21-6.9,3.95-7,9.13-.23,8.15,3.69,18.82,6.07,24.52C151.64,354,152.36,355.48,152.43,355.63Z" />
        <path d="M129.3,325s-.34,13.2-7.28,17.86-8.85,7-8.85,7a14.86,14.86,0,0,0,1.52,12.07c3.72,6.21,2.06,7.87.86,9.29s-14,13.89-14,13.89l-2.25,1.83s5.92,22.84,33.39,36.88c-14.75-17.57-12.28-39.94-12.28-39.94L133,360.09l7.45-7.25S128.66,333.56,129.3,325Z" />
        <path d="M95,395.55a19.08,19.08,0,0,1-9.94,12.95,24.52,24.52,0,0,1-1.93,13.74c-2,4.36-5.72,9.67-7,12.56s-2.33,13-3.87,15.93-4.41,5.43-8.93-.48l-2.13-2.57S59.46,460.8,59.88,470a98.69,98.69,0,0,1-.49,17.08s-1-16-2.67-18.35a17.23,17.23,0,0,0-2.85-3.3A32.46,32.46,0,0,0,56,471.48c1.17,2.09,1,3.15,1,3.15l-.47-1S52.87,487.92,51.94,491s-1.75,12.2-1,12.91H98.6s2.11-26.17,7.3-31.37,24.5-20.16,19.81-18-14.63,3.13-14.63,3.13,15.2-18.45,16.69-21,2.25-4.09,1.66-4.3-2.32-8.95-2.32-8.95-25.73-10.28-31-32.3C96,395,95,395.55,95,395.55Z" />
        <path d="M87.69,352.56s-5.3,18.33-4.54,29c-2.61-10.69-2.9-15.39-2.9-15.39s-3.74,18.2-1,27.46,2.53,8,2.53,8,5.69,2,9.17,1.7c-6.53,7.72-5.65,22.51-6.36,23.43s-6.7,12.66-7.14,14.79-6.63,14.9-7,15.1-6.53-1.78-6.64-2.16-3.5-7-3.5-7-9.84-14.25-10.4-22,3.46-22.47,7.48-26.32,4.28-3.8,4.28-3.8,1-8.36,9.22-21,8.15-19.47,10.41-20.59a34.07,34.07,0,0,1,6.12-2s17.63-19.88,18.91-20.46,5.57-1.26,10.23,2.22a33.55,33.55,0,0,1,7.09,7.06l-10.56,9.34s1.68-11.7-.4-11.6-6.55,4.84-6.55,4.84-2.14,46.59-9.39,32.81S87.69,352.56,87.69,352.56Z" />
        <path d="M188.59,402s3.06,1.62,1.64,3.1a91.65,91.65,0,0,1,7.4,10.93h22.08l4,7.75s8.68,33.73,4.33,44.24c-4.35,22.88-6.09,35.84-6.09,35.84H125.26s1.13-39.31-.41-36.47-15.58,30.33-15.58,30.33,5.86-22.75,12.83-36.17,8.33-17.47,8.33-17.47-.58-16.09,0-21,2.36-17.21,2.56-17.66-8.17-29.13-5.13-37.84,6.1-18.31,6.1-18.31l8.27,5.19s8.41-1,11.33,5.88,7.49,17.25,7.93,17.47,28.07,11.13,37.86,12.35,31.56-2.77,31.78,2.12c-25.68.05-33.52,1-33.52,1S217.86,402.9,188.59,402Z" />
        <path d="M307.74,402.31s2.39,31.53,5.37,51.4a198.83,198.83,0,0,1,2.34,34.48s.52,14,1,11.56-1.19-16.3-.61-32,1.31-21.74,3.34-27.94,9.2-16.81,8.12-30.76-3.17-25.81-3.17-25.81-4.27,15.87-3.93,29.37A81.24,81.24,0,0,1,317.59,436s-2.67-5.71-1.69-19.54a49.57,49.57,0,0,0-4.74-24.53l-5-3.19Z" />
      </g>
      <path class="GUNDAN_OWL_OUTFIT_GUNDAN_OWL_OUTFIT_10_cls-10" d="M152.49,316.73c.21-1.4.38-2.81.53-4.21h0c.07-.65.13-1.29.19-1.93.15-1.57.27-3.15.42-4.72v-.05" />
      <path class="GUNDAN_OWL_OUTFIT_GUNDAN_OWL_OUTFIT_10_cls-8" d="M300.49,316.59c2.22-1.69-.16-4.67-.16-4.67-.25-2.6,0-2.69-.11-5.33-.11-2.07-1.64-4.15-1.75-6.22" />
    </g>
  </g>
</svg>