<svg xmlns="http://www.w3.org/2000/svg" viewBox="0 0 432 432">
  <defs>
    <style>.GUNDAN_OWL_OUTFIT_GUNDAN_OWL_OUTFIT_1_cls-1{isolation:isolate;}.GUNDAN_OWL_OUTFIT_GUNDAN_OWL_OUTFIT_1_cls-2{fill:#b69643;}.GUNDAN_OWL_OUTFIT_GUNDAN_OWL_OUTFIT_1_cls-3{fill:#622206;}.GUNDAN_OWL_OUTFIT_GUNDAN_OWL_OUTFIT_1_cls-4{fill:#413f2a;}.GUNDAN_OWL_OUTFIT_GUNDAN_OWL_OUTFIT_1_cls-5{fill:#412734;}.GUNDAN_OWL_OUTFIT_GUNDAN_OWL_OUTFIT_1_cls-6{fill:#fff;}.GUNDAN_OWL_OUTFIT_GUNDAN_OWL_OUTFIT_1_cls-7{fill:#9da8ac;}.GUNDAN_OWL_OUTFIT_GUNDAN_OWL_OUTFIT_1_cls-8{fill:#34303e;}.GUNDAN_OWL_OUTFIT_GUNDAN_OWL_OUTFIT_1_cls-9{fill:none;stroke:#000;stroke-linecap:round;stroke-linejoin:round;stroke-width:1.86px;}.GUNDAN_OWL_OUTFIT_GUNDAN_OWL_OUTFIT_1_cls-10{opacity:0.22;mix-blend-mode:multiply;}</style>
  </defs>
  <g class="GUNDAN_OWL_OUTFIT_GUNDAN_OWL_OUTFIT_1_cls-1">
    <g id="oufit">
      <path class="GUNDAN_OWL_OUTFIT_GUNDAN_OWL_OUTFIT_1_cls-2" d="M235.56,419.53a8.07,8.07,0,0,1-.1,2.26c-.46,2.59-1.34,7.27-2.44,11.54v0a9.14,9.14,0,0,0-.95,3.31v0a28.26,28.26,0,0,1-1.28,3.45l.58.26c2,.88,4.95,1.66,6.65-.66,2,.6,4.3,1.24,6.75,1.86,0,0-1.34,4.35-4.68,5-1.84.35-8.28-.33-14.06-1.46l-2.3-.48c-.48-12.13,4.2-32.48,4.2-32.48,1.31.13,2.69.28,4.1.46,6.13.75,12.67,1.86,14.71,2.76,4,1.76,2.46,7.05,2.46,7.05-.39,0-.74.06-1.08.07a21.91,21.91,0,0,0-5.62.84,4,4,0,0,0-2.15-3.62C239,419,237.05,419.21,235.56,419.53Z" />
      <path class="GUNDAN_OWL_OUTFIT_GUNDAN_OWL_OUTFIT_1_cls-3" d="M219,413.69a3.71,3.71,0,0,1,.87-1.76c.65-.31,3.92-.17,8,.24,0,0-4.68,20.35-4.2,32.48-3.77-.84-6.92-1.86-7.75-2.86-1-1.21-.63-7.33.22-13.71.22-1.57.46-3.15.71-4.67A78,78,0,0,1,219,413.69Z" />
      <path class="GUNDAN_OWL_OUTFIT_GUNDAN_OWL_OUTFIT_1_cls-2" d="M295.68,413.69h-.56a27.09,27.09,0,0,0-5.21.62,26.4,26.4,0,0,0-9.77,4.35,24.5,24.5,0,0,0-3.33,2.79,27.43,27.43,0,0,0-8.24,19.69,25.3,25.3,0,0,0,.23,3.5,26.64,26.64,0,0,0,1,4.74,27.17,27.17,0,0,0,23.67,19.12c0-.56,0-1.12,0-1.69-9-1.45-16.22-8.87-18.12-18.48a24.81,24.81,0,0,1-.47-3.69q0-.69,0-1.38A24.78,24.78,0,0,1,281.68,426a19.38,19.38,0,0,1,2.2-2,20.71,20.71,0,0,1,8.28-4,18.37,18.37,0,0,1,3-.43c.5,0,1-.07,1.54-.07a4,4,0,0,1,.23-.41q.44-2.61.94-5.25C297.13,413.73,296.41,413.69,295.68,413.69Z" />
      <path class="GUNDAN_OWL_OUTFIT_GUNDAN_OWL_OUTFIT_1_cls-3" d="M296.66,419.45c-.52,0-1,0-1.54.07a18.37,18.37,0,0,0-3,.43,20.71,20.71,0,0,0-8.28,4,19.38,19.38,0,0,0-2.2,2,24.78,24.78,0,0,0-6.85,17.32q0,.69,0,1.38a24.81,24.81,0,0,0,.47,3.69c1.9,9.61,9.12,17,18.12,18.48a265.21,265.21,0,0,1,3.37-47.37Z" />
      <path class="GUNDAN_OWL_OUTFIT_GUNDAN_OWL_OUTFIT_1_cls-3" d="M294.53,410.07a31.56,31.56,0,0,0-22.84,9.66,30.3,30.3,0,0,0-6.82,11.14,27.76,27.76,0,0,0-1.2,4.75,28.72,28.72,0,0,0-.42,4.94,30,30,0,0,0,.35,4.56c2.2,14.37,14.71,25.45,30,25.9,0-.83-.06-1.67-.08-2.51a27.17,27.17,0,0,1-23.67-19.12,26.64,26.64,0,0,1-1-4.74,25.3,25.3,0,0,1-.23-3.5,27.43,27.43,0,0,1,8.24-19.69,24.5,24.5,0,0,1,3.33-2.79,26.4,26.4,0,0,1,9.77-4.35,27.09,27.09,0,0,1,5.21-.62h.56c.73,0,1.45,0,2.15.1.22-1.15.44-2.31.69-3.46A29.07,29.07,0,0,0,294.53,410.07Z" />
      <path class="GUNDAN_OWL_OUTFIT_GUNDAN_OWL_OUTFIT_1_cls-4" d="M153.21,408.92h0c6,3.53,43.22,10.91,62.12,14.51-6.14.1-44.78-.06-59.62-3.4l-.43-.1c.47,2.87.89,5.72,1.24,8.55.82.2,1.88.45,3.12.72,6.22,1.35,40.46,3.37,51.57,3.42h0c1.67-1.51,3.33-3,5-4.55.22-1.57.46-3.15.71-4.67a78,78,0,0,1,2.14-9.72c-23.84-5.62-63.16-14.28-69-17.76C151.25,400.27,152.29,404.61,153.21,408.92Z" />
      <path class="GUNDAN_OWL_OUTFIT_GUNDAN_OWL_OUTFIT_1_cls-4" d="M249.66,422.41l-.47,0c-.39,0-.74.06-1.08.07a21.91,21.91,0,0,0-5.62.84h0c-2.39.78-3.47,2.12-3.47,4.09,0,2.95.64,4,.72,4.09-.4-.11-.75-.21-1.07-.33a4.25,4.25,0,0,0-5.65,2.12v0c-.3,1.16-.61,2.28-.95,3.31v0a7.08,7.08,0,0,0,0,.9,16.78,16.78,0,0,0,1.63.7c1.14.44,2.63.93,4.34,1.45,2,.6,4.3,1.24,6.75,1.86a129.76,129.76,0,0,0,18.84,3.53,30,30,0,0,1-.35-4.56,28.72,28.72,0,0,1,.42-4.94s-12.75-1.66-20.51-3.27a127.94,127.94,0,0,0,21.7-1.48h0a30.3,30.3,0,0,1,6.82-11.14S256.9,421.87,249.66,422.41Z" />
      <path class="GUNDAN_OWL_OUTFIT_GUNDAN_OWL_OUTFIT_1_cls-5" d="M156.52,428.49c-.35-2.83-.77-5.68-1.24-8.55-.05-.29-.09-.59-.14-.89,0,0,0,0,0,0a34.07,34.07,0,0,0-6.86-8.45l-.79-.68a219.49,219.49,0,0,1-1.2,82.81H156.9c.54-4.68,1-9.79,1.29-15.26h0c.36-6.41.52-13.29.38-20.53A263.08,263.08,0,0,0,156.52,428.49Z" />
      <path class="GUNDAN_OWL_OUTFIT_GUNDAN_OWL_OUTFIT_1_cls-5" d="M304.54,409.88l-.79.69a34.16,34.16,0,0,0-6.86,8.47c0,.13-.05.28-.07.41a265.21,265.21,0,0,0-3.37,47.37c0,.57,0,1.13,0,1.69,0,.84,0,1.68.08,2.51.25,7.9.82,15.2,1.56,21.68h10.61A219.75,219.75,0,0,1,304.54,409.88Z" />
      <path class="GUNDAN_OWL_OUTFIT_GUNDAN_OWL_OUTFIT_1_cls-5" d="M385.94,423.06c-.35-1-.84-2.09-1.87-2.34a2.66,2.66,0,0,0-1.89.37,6.9,6.9,0,0,0-1.49,1,28.57,28.57,0,0,0,2.12,5.56,15.83,15.83,0,0,1-5.71,5.9,31.57,31.57,0,0,1-9.43,3.59,11.94,11.94,0,0,0-1.13,2.84,146.84,146.84,0,0,1-17.38,9.46,59.62,59.62,0,0,1-18.59,5.09,59.5,59.5,0,0,0-.46-9.15,12.46,12.46,0,0,0-1-4,5.1,5.1,0,0,0-3-2.74,5.23,5.23,0,0,0-5.07,1.76,12,12,0,0,0-2.34,5,44.18,44.18,0,0,0-1.36,8.15,31.26,31.26,0,0,1-9-3.75c.16,3.69.32,7.37.47,11.06a34.24,34.24,0,0,0,18,4.09,52.8,52.8,0,0,0,14.28-2.4c9.65-3,18.31-8.3,26.74-13.81l0,.05a6.91,6.91,0,0,0,4.27,3.31,20.5,20.5,0,0,0,9.23-5l.14-.13h0a57.4,57.4,0,0,0,6.86-7.67l2.18-2.73C388.9,432.11,387.54,427.56,385.94,423.06Zm-12,23.63a4.25,4.25,0,1,1,4.36-4.25A4.31,4.31,0,0,1,374,446.69Z" />
      <path class="GUNDAN_OWL_OUTFIT_GUNDAN_OWL_OUTFIT_1_cls-5" d="M133.37,445.41a11.9,11.9,0,0,0-2.34-5,5.21,5.21,0,0,0-5.06-1.76,5.05,5.05,0,0,0-3,2.74,12.22,12.22,0,0,0-1,4,60.78,60.78,0,0,0-.45,9.15,59.68,59.68,0,0,1-18.6-5.09A145.28,145.28,0,0,1,85.48,440h0a11.87,11.87,0,0,0-1.13-2.83,31.52,31.52,0,0,1-9.42-3.59,15.86,15.86,0,0,1-5.72-5.9,28.5,28.5,0,0,0,2.12-5.58,8.18,8.18,0,0,0-1.48-1,2.69,2.69,0,0,0-1.9-.37c-1,.25-1.52,1.36-1.86,2.34-1.6,4.5-3,9.05-4.57,13.55l2.18,2.73A59.72,59.72,0,0,0,70.57,447l.13.12a20.48,20.48,0,0,0,9.24,5,6.89,6.89,0,0,0,4.26-3.31l0-.05c8.44,5.51,17.09,10.84,26.75,13.81a52.55,52.55,0,0,0,14.29,2.4,34.17,34.17,0,0,0,18-4.09c.16-3.69.32-7.37.47-11.06a31.87,31.87,0,0,1-9,3.77A42.77,42.77,0,0,0,133.37,445.41Zm-55.63,1.28a4.25,4.25,0,1,1,4.36-4.25A4.31,4.31,0,0,1,77.74,446.69Z" />
      <path class="GUNDAN_OWL_OUTFIT_GUNDAN_OWL_OUTFIT_1_cls-6" d="M272.23,365c-1.05,1.43-2.09,2.86-3.16,4.28-5.17-1.77-13.45-4.09-21.06-4-9.36.06-17.72,4-24.67,5.46-2.14-2-4.25-4-6.32-6a83.55,83.55,0,0,0,17.53-2.88c9.34-2.84,25.41-1.57,33.35,1.52C269.69,364,271.12,364.56,272.23,365Z" />
      <path class="GUNDAN_OWL_OUTFIT_GUNDAN_OWL_OUTFIT_1_cls-6" d="M240.34,419.73c-1.31-.71-3.29-.51-4.78-.2a8.07,8.07,0,0,1-.1,2.26c-.46,2.59-1.34,7.27-2.44,11.54a4.25,4.25,0,0,1,5.65-2.12c.32.12.67.22,1.07.33-.08-.12-.72-1.14-.72-4.09,0-2,1.08-3.31,3.47-4.09h0A4,4,0,0,0,240.34,419.73Z" />
      <path class="GUNDAN_OWL_OUTFIT_GUNDAN_OWL_OUTFIT_1_cls-6" d="M216,441.79c-1-1.21-.63-7.33.22-13.71-1.64,1.53-3.3,3-5,4.55h0c-9.45,8.51-42.46,16.62-52.64,24.27.14,7.24,0,14.12-.38,20.53C174,468,212.14,457.15,226,445.13l-2.3-.48C220,443.81,216.8,442.79,216,441.79Z" />
      <path class="GUNDAN_OWL_OUTFIT_GUNDAN_OWL_OUTFIT_1_cls-6" d="M312.71,321.67a106.7,106.7,0,0,1-8.12-8.5A428.48,428.48,0,0,1,272.23,365c-1.05,1.43-2.09,2.86-3.16,4.28q-9,12.11-18.91,23.56a306.07,306.07,0,0,1-26.82-22.12c-2.14-2-4.25-4-6.32-6-16.76-16.4-54.76-34.67-67.22-54.36a111,111,0,0,1-10.19,11.07,3.59,3.59,0,0,0,.17.34c17.58,33.51,66.73,62.83,98.16,84.69q-2.91,3.13-5.92,6.2c6.13.75,12.67,1.86,14.71,2.76,4,1.76,2.46,7.05,2.46,7.05l.47,0A310,310,0,0,0,313.1,322C313,321.91,312.83,321.8,312.71,321.67Z" />
      <path class="GUNDAN_OWL_OUTFIT_GUNDAN_OWL_OUTFIT_1_cls-7" d="M269.07,369.26c-5.17-1.77-13.45-4.09-21.06-4-9.36.06-17.72,4-24.67,5.46a306.07,306.07,0,0,0,26.82,22.12Q260,381.36,269.07,369.26Z" />
      <path class="GUNDAN_OWL_OUTFIT_GUNDAN_OWL_OUTFIT_1_cls-7" d="M264.87,430.87h0a127.94,127.94,0,0,1-21.7,1.48c7.76,1.61,20.51,3.27,20.51,3.27A27.76,27.76,0,0,1,264.87,430.87Z" />
      <path class="GUNDAN_OWL_OUTFIT_GUNDAN_OWL_OUTFIT_1_cls-7" d="M320.36,328.27c-2.5-2-4.93-4-7.26-6.23a310,310,0,0,1-63.44,100.37c7.24-.54,22-2.68,22-2.68a31.56,31.56,0,0,1,22.84-9.66,29.07,29.07,0,0,1,4,.26,211.11,211.11,0,0,1,5.81-22.23c3.92-12.19,11.07-23.2,15.26-35.3C322.34,344.87,327.06,333.51,320.36,328.27Z" />
      <path class="GUNDAN_OWL_OUTFIT_GUNDAN_OWL_OUTFIT_1_cls-7" d="M215.33,423.44c-18.9-3.6-56.15-11-62.12-14.51.73,3.38,1.36,6.76,1.92,10.09,0,0,0,0,0,0,.2.32.38.66.57,1C170.55,423.38,209.19,423.54,215.33,423.44Z" />
      <path class="GUNDAN_OWL_OUTFIT_GUNDAN_OWL_OUTFIT_1_cls-7" d="M211.21,432.63c-11.11-.05-45.35-2.07-51.57-3.42-1.24-.27-2.3-.52-3.12-.72a263.08,263.08,0,0,1,2,28.41C168.75,449.25,201.76,441.14,211.21,432.63Z" />
      <path class="GUNDAN_OWL_OUTFIT_GUNDAN_OWL_OUTFIT_1_cls-7" d="M219,413.69a3.71,3.71,0,0,1,.87-1.76c.65-.31,3.92-.17,8,.24,1.31.13,2.69.28,4.1.46q3-3.08,5.92-6.2c-31.43-21.86-80.58-51.18-98.16-84.69l-.47-.07c-2.45,2.32-5,4.51-7.65,6.6-6.69,5.24-2,16.6.78,24.53,4.18,12.1,11.35,23.11,15.25,35.3.84,2.61,1.62,5.21,2.34,7.82h0C155.88,399.41,195.2,408.07,219,413.69Z" />
      <path class="GUNDAN_OWL_OUTFIT_GUNDAN_OWL_OUTFIT_1_cls-8" d="M380.69,422.11c-1.72-6.33-1.6-13.29-1.1-19.91.7-9.59,1.94-19.52-1.31-28.61-1.79-5-4.83-9.42-7.86-13.8-1.27-1.87-2.21-4.15-3.5-6-3.52.52-7.08-.86-10-2.81s-5.46-4.46-8.25-6.61a40.76,40.76,0,0,0-10-5.62c0-.14-.08-.28-.12-.42a9.61,9.61,0,0,0-6.15-6.19A8.65,8.65,0,0,0,332,325a9.08,9.08,0,0,0-5.73-4.47,18.4,18.4,0,0,0-7.42.18l-5.6.9a4.28,4.28,0,0,1-.17.46c2.33,2.18,4.76,4.25,7.26,6.23,6.7,5.24,2,16.6-.77,24.53-4.19,12.1-11.34,23.11-15.26,35.3a211.11,211.11,0,0,0-5.81,22.23c-.25,1.15-.47,2.31-.69,3.46q-.51,2.64-.94,5.25a34.16,34.16,0,0,1,6.86-8.47l.79-.69a34.61,34.61,0,0,1,3.59-2.53,34.61,34.61,0,0,0-3.59,2.53,219.75,219.75,0,0,0,1.2,82.82H328a18.16,18.16,0,0,1-1.19-3.25,13.71,13.71,0,0,1,.06-4.24c.34-2.95,1.48-6.44.47-9.25a13.33,13.33,0,0,0-3.75-5.48,7.32,7.32,0,0,0,2.91-2.93,5.67,5.67,0,0,0,.27-2.59,34.24,34.24,0,0,1-18-4.09c-.15-3.69-.31-7.37-.47-11.06a31.26,31.26,0,0,0,9,3.75,44.18,44.18,0,0,1,1.36-8.15,12,12,0,0,1,2.34-5,5.23,5.23,0,0,1,5.07-1.76,5.1,5.1,0,0,1,3,2.74,12.46,12.46,0,0,1,1,4,59.5,59.5,0,0,1,.46,9.15,59.62,59.62,0,0,0,18.59-5.09A146.84,146.84,0,0,0,366.54,440a11.94,11.94,0,0,1,1.13-2.84,31.57,31.57,0,0,0,9.43-3.59,15.83,15.83,0,0,0,5.71-5.9A28.57,28.57,0,0,1,380.69,422.11Z" />
      <path class="GUNDAN_OWL_OUTFIT_GUNDAN_OWL_OUTFIT_1_cls-8" d="M155.13,419c-.56-3.33-1.19-6.71-1.92-10.09h0c-.92-4.31-2-8.65-3.18-13h0c-.72-2.61-1.5-5.21-2.34-7.82-3.9-12.19-11.07-23.2-15.25-35.3-2.76-7.93-7.47-19.29-.78-24.53,2.65-2.09,5.2-4.28,7.65-6.6l-6.16-1a18.4,18.4,0,0,0-7.42-.18A9.06,9.06,0,0,0,120,325a8.69,8.69,0,0,0-.38,7.14,9.63,9.63,0,0,0-6.15,6.19c0,.14-.09.27-.12.42h0a40.48,40.48,0,0,0-10,5.61c-2.8,2.15-5.31,4.66-8.26,6.61s-6.51,3.33-10,2.81c-1.29,1.88-2.22,4.16-3.51,6-3,4.38-6.07,8.83-7.85,13.8-3.24,9.09-2,19-1.3,28.61.49,6.62.61,13.56-1.11,19.89a28.5,28.5,0,0,1-2.12,5.58,15.86,15.86,0,0,0,5.72,5.9,31.52,31.52,0,0,0,9.42,3.59A11.87,11.87,0,0,1,85.48,440h0a145.28,145.28,0,0,0,17.38,9.46,59.68,59.68,0,0,0,18.6,5.09,60.78,60.78,0,0,1,.45-9.15,12.22,12.22,0,0,1,1-4,5.05,5.05,0,0,1,3-2.74,5.21,5.21,0,0,1,5.06,1.76,11.9,11.9,0,0,1,2.34,5,42.77,42.77,0,0,1,1.36,8.17,31.87,31.87,0,0,0,9-3.77c-.15,3.69-.31,7.37-.47,11.06a34.17,34.17,0,0,1-18,4.09,5.4,5.4,0,0,0,.25,2.59,7.38,7.38,0,0,0,2.91,2.93,13.43,13.43,0,0,0-3.75,5.48c-1,2.81.13,6.3.47,9.25a13.41,13.41,0,0,1,.06,4.24A18.12,18.12,0,0,1,124,492.7h22.24a219.49,219.49,0,0,0,1.2-82.81,34.57,34.57,0,0,0-3.58-2.54,34.57,34.57,0,0,1,3.58,2.54l.79.68A34.07,34.07,0,0,1,155.13,419Z" />
      <path class="GUNDAN_OWL_OUTFIT_GUNDAN_OWL_OUTFIT_1_cls-9" d="M155.14,419.05c.05.3.09.6.14.89.47,2.87.89,5.72,1.24,8.55a263.08,263.08,0,0,1,2,28.41c.14,7.24,0,14.12-.38,20.53" />
      <path class="GUNDAN_OWL_OUTFIT_GUNDAN_OWL_OUTFIT_1_cls-9" d="M153.21,408.93c.73,3.38,1.36,6.76,1.92,10.09" />
      <path class="GUNDAN_OWL_OUTFIT_GUNDAN_OWL_OUTFIT_1_cls-9" d="M150,395.93c1.22,4.34,2.26,8.68,3.18,13" />
      <path class="GUNDAN_OWL_OUTFIT_GUNDAN_OWL_OUTFIT_1_cls-9" d="M149.8,310.33a111,111,0,0,1-10.19,11.07l-.3.27c-2.45,2.32-5,4.51-7.65,6.6-6.69,5.24-2,16.6.78,24.53,4.18,12.1,11.35,23.11,15.25,35.3.84,2.61,1.62,5.21,2.34,7.82" />
      <path class="GUNDAN_OWL_OUTFIT_GUNDAN_OWL_OUTFIT_1_cls-9" d="M113.36,338.72c0-.15.08-.28.12-.42a9.63,9.63,0,0,1,6.15-6.19A8.65,8.65,0,0,1,120,325a9.06,9.06,0,0,1,5.72-4.47,18.4,18.4,0,0,1,7.42.18l6.16,1,.47.07" />
      <path class="GUNDAN_OWL_OUTFIT_GUNDAN_OWL_OUTFIT_1_cls-9" d="M155.71,420c-.19-.33-.37-.67-.57-1,0,0,0,0,0,0a34.07,34.07,0,0,0-6.86-8.45l-.79-.68a36.15,36.15,0,0,0-3.58-2.54,45.53,45.53,0,0,0-10-4.44,122.11,122.11,0,0,0-15.87-4c-4.38-11-4.7-23.13-5-34.95q-.18-8.52-.38-17a26.64,26.64,0,0,1,.65-8.18" />
      <path class="GUNDAN_OWL_OUTFIT_GUNDAN_OWL_OUTFIT_1_cls-9" d="M113.36,338.72h0a40.48,40.48,0,0,0-10,5.61c-2.8,2.15-5.31,4.66-8.26,6.61s-6.51,3.33-10,2.81c-1.29,1.88-2.22,4.16-3.51,6-3,4.38-6.07,8.83-7.85,13.8-3.24,9.09-2,19-1.3,28.61.49,6.62.61,13.56-1.11,19.89a28.5,28.5,0,0,1-2.12,5.58" />
      <path class="GUNDAN_OWL_OUTFIT_GUNDAN_OWL_OUTFIT_1_cls-9" d="M85.48,440a11.87,11.87,0,0,0-1.13-2.83,31.52,31.52,0,0,1-9.42-3.59,15.86,15.86,0,0,1-5.72-5.9,10.63,10.63,0,0,1-.69-1.58" />
      <path class="GUNDAN_OWL_OUTFIT_GUNDAN_OWL_OUTFIT_1_cls-9" d="M71.33,422.09a8.18,8.18,0,0,0-1.48-1,2.69,2.69,0,0,0-1.9-.37c-1,.25-1.52,1.36-1.86,2.34-1.6,4.5-3,9.05-4.57,13.55l2.18,2.73A59.72,59.72,0,0,0,70.57,447l.13.12a20.48,20.48,0,0,0,9.24,5,6.89,6.89,0,0,0,4.26-3.31l0-.05A11.24,11.24,0,0,0,85.48,440" />
      <path class="GUNDAN_OWL_OUTFIT_GUNDAN_OWL_OUTFIT_1_cls-9" d="M143.9,407.35c1.32,6.69,1,13.7.76,20.57l-.93,21.88" />
      <path class="GUNDAN_OWL_OUTFIT_GUNDAN_OWL_OUTFIT_1_cls-9" d="M147.48,409.89a219.49,219.49,0,0,1-1.2,82.81" />
      <path class="GUNDAN_OWL_OUTFIT_GUNDAN_OWL_OUTFIT_1_cls-9" d="M119.63,332.11s-1.07,26.76,6,39.3" />
      <path class="GUNDAN_OWL_OUTFIT_GUNDAN_OWL_OUTFIT_1_cls-9" d="M298.52,410.33a211.11,211.11,0,0,1,5.81-22.23c3.92-12.19,11.07-23.2,15.26-35.3,2.75-7.93,7.47-19.29.77-24.53-2.5-2-4.93-4-7.26-6.23-.13-.13-.27-.24-.39-.37a106.7,106.7,0,0,1-8.12-8.5" />
      <path class="GUNDAN_OWL_OUTFIT_GUNDAN_OWL_OUTFIT_1_cls-9" d="M312.71,321.67l.56-.09,5.6-.9a18.4,18.4,0,0,1,7.42-.18A9.08,9.08,0,0,1,332,325a8.65,8.65,0,0,1,.37,7.14,9.61,9.61,0,0,1,6.15,6.19c0,.14.09.28.12.42a26.7,26.7,0,0,1,.66,8.19c-.13,5.67-.25,11.35-.39,17-.27,11.82-.59,23.92-5,34.95a121.3,121.3,0,0,0-15.87,4,46,46,0,0,0-10,4.44,34.61,34.61,0,0,0-3.59,2.53l-.79.69a34.16,34.16,0,0,0-6.86,8.47,4,4,0,0,0-.23.41" />
      <path class="GUNDAN_OWL_OUTFIT_GUNDAN_OWL_OUTFIT_1_cls-9" d="M382.81,427.67a28.57,28.57,0,0,1-2.12-5.56c-1.72-6.33-1.6-13.29-1.1-19.91.7-9.59,1.94-19.52-1.31-28.61-1.79-5-4.83-9.42-7.86-13.8-1.27-1.87-2.21-4.15-3.5-6-3.52.52-7.08-.86-10-2.81s-5.46-4.46-8.25-6.61a40.76,40.76,0,0,0-10-5.62" />
      <path class="GUNDAN_OWL_OUTFIT_GUNDAN_OWL_OUTFIT_1_cls-9" d="M383.5,426.09a13.22,13.22,0,0,1-.69,1.58,15.83,15.83,0,0,1-5.71,5.9,31.57,31.57,0,0,1-9.43,3.59,11.94,11.94,0,0,0-1.13,2.84,11.24,11.24,0,0,0,1.24,8.75l0,.05a6.91,6.91,0,0,0,4.27,3.31,20.5,20.5,0,0,0,9.23-5l.14-.13h0a57.4,57.4,0,0,0,6.86-7.67l2.18-2.73c-1.6-4.5-3-9.05-4.56-13.55-.35-1-.84-2.09-1.87-2.34a2.66,2.66,0,0,0-1.89.37,6.9,6.9,0,0,0-1.49,1" />
      <path class="GUNDAN_OWL_OUTFIT_GUNDAN_OWL_OUTFIT_1_cls-9" d="M308.13,407.35c-1.33,6.69-1.06,13.71-.77,20.57l.93,21.88" />
      <path class="GUNDAN_OWL_OUTFIT_GUNDAN_OWL_OUTFIT_1_cls-9" d="M305.74,492.7a219.75,219.75,0,0,1-1.2-82.82" />
      <path class="GUNDAN_OWL_OUTFIT_GUNDAN_OWL_OUTFIT_1_cls-9" d="M332.39,332.11s1.07,26.76-6,39.3" />
      <path class="GUNDAN_OWL_OUTFIT_GUNDAN_OWL_OUTFIT_1_cls-9" d="M250.16,392.82a306.07,306.07,0,0,1-26.82-22.12c-2.14-2-4.25-4-6.32-6-16.76-16.4-54.76-34.67-67.22-54.36" />
      <path class="GUNDAN_OWL_OUTFIT_GUNDAN_OWL_OUTFIT_1_cls-9" d="M237.94,406.43c-31.43-21.86-80.58-51.18-98.16-84.69a3.59,3.59,0,0,1-.17-.34" />
      <path class="GUNDAN_OWL_OUTFIT_GUNDAN_OWL_OUTFIT_1_cls-9" d="M211.22,432.63c1.67-1.51,3.33-3,5-4.55" />
      <path class="GUNDAN_OWL_OUTFIT_GUNDAN_OWL_OUTFIT_1_cls-9" d="M158.57,456.9c10.18-7.65,43.19-15.76,52.64-24.27" />
      <path class="GUNDAN_OWL_OUTFIT_GUNDAN_OWL_OUTFIT_1_cls-9" d="M232,412.63q3-3.08,5.92-6.2,6.26-6.69,12.22-13.61,9.89-11.46,18.91-23.56c1.07-1.42,2.11-2.85,3.16-4.28a428.48,428.48,0,0,0,32.36-51.81" />
      <path class="GUNDAN_OWL_OUTFIT_GUNDAN_OWL_OUTFIT_1_cls-9" d="M249.66,422.41A310,310,0,0,0,313.1,322a4.28,4.28,0,0,0,.17-.46" />
      <path class="GUNDAN_OWL_OUTFIT_GUNDAN_OWL_OUTFIT_1_cls-9" d="M217,364.69a83.55,83.55,0,0,0,17.53-2.88c9.34-2.84,25.41-1.57,33.35,1.52,1.79.7,3.22,1.23,4.33,1.65" />
      <path class="GUNDAN_OWL_OUTFIT_GUNDAN_OWL_OUTFIT_1_cls-9" d="M223.34,370.7c6.95-1.5,15.31-5.4,24.67-5.46,7.61-.07,15.89,2.25,21.06,4" />
      <path class="GUNDAN_OWL_OUTFIT_GUNDAN_OWL_OUTFIT_1_cls-9" d="M293.45,466.82c-9-1.45-16.22-8.87-18.12-18.48a24.81,24.81,0,0,1-.47-3.69q0-.69,0-1.38A24.78,24.78,0,0,1,281.68,426a19.38,19.38,0,0,1,2.2-2,20.71,20.71,0,0,1,8.28-4,18.37,18.37,0,0,1,3-.43c.5,0,1-.07,1.54-.07h.16" />
      <path class="GUNDAN_OWL_OUTFIT_GUNDAN_OWL_OUTFIT_1_cls-9" d="M293.49,468.51a27.17,27.17,0,0,1-23.67-19.12,26.64,26.64,0,0,1-1-4.74,25.3,25.3,0,0,1-.23-3.5,27.43,27.43,0,0,1,8.24-19.69,24.5,24.5,0,0,1,3.33-2.79,26.4,26.4,0,0,1,9.77-4.35,27.09,27.09,0,0,1,5.21-.62h.56c.73,0,1.45,0,2.15.1" />
      <path class="GUNDAN_OWL_OUTFIT_GUNDAN_OWL_OUTFIT_1_cls-9" d="M298.52,410.33c-.25,1.15-.47,2.31-.69,3.46q-.51,2.64-.94,5.25c0,.13-.05.28-.07.41a265.21,265.21,0,0,0-3.37,47.37c0,.57,0,1.13,0,1.69,0,.84,0,1.68.08,2.51-15.26-.45-27.77-11.53-30-25.9a30,30,0,0,1-.35-4.56,28.72,28.72,0,0,1,.42-4.94,27.76,27.76,0,0,1,1.2-4.75,30.3,30.3,0,0,1,6.82-11.14,31.56,31.56,0,0,1,22.84-9.66A29.07,29.07,0,0,1,298.52,410.33Z" />
      <path class="GUNDAN_OWL_OUTFIT_GUNDAN_OWL_OUTFIT_1_cls-9" d="M239.76,431.55l.78.2c.77.19,1.65.39,2.62.6,7.76,1.61,20.51,3.27,20.51,3.27" />
      <path class="GUNDAN_OWL_OUTFIT_GUNDAN_OWL_OUTFIT_1_cls-9" d="M233,433.33a4.25,4.25,0,0,1,5.65-2.12c.32.12.67.22,1.07.33" />
      <path class="GUNDAN_OWL_OUTFIT_GUNDAN_OWL_OUTFIT_1_cls-9" d="M242.49,423.35a21.91,21.91,0,0,1,5.62-.84c.34,0,.69,0,1.08-.07l.47,0c7.24-.54,22-2.68,22-2.68" />
      <path class="GUNDAN_OWL_OUTFIT_GUNDAN_OWL_OUTFIT_1_cls-9" d="M239.76,431.55h0c-.08-.12-.72-1.14-.72-4.09,0-2,1.08-3.31,3.47-4.09" />
      <path class="GUNDAN_OWL_OUTFIT_GUNDAN_OWL_OUTFIT_1_cls-9" d="M264.86,430.87a127.94,127.94,0,0,1-21.7,1.48h0" />
      <path class="GUNDAN_OWL_OUTFIT_GUNDAN_OWL_OUTFIT_1_cls-9" d="M249.19,422.44s1.51-5.29-2.46-7.05c-2-.9-8.58-2-14.71-2.76-1.41-.18-2.79-.33-4.1-.46-4.09-.41-7.36-.55-8-.24a3.71,3.71,0,0,0-.87,1.76,78,78,0,0,0-2.14,9.72c-.25,1.52-.49,3.1-.71,4.67-.85,6.38-1.22,12.5-.22,13.71.83,1,4,2,7.75,2.86l2.3.48c5.78,1.13,12.22,1.81,14.06,1.46,3.34-.65,4.68-5,4.68-5" />
      <path class="GUNDAN_OWL_OUTFIT_GUNDAN_OWL_OUTFIT_1_cls-9" d="M232.42,415.13a5.05,5.05,0,0,1,3.14,4.4,8.07,8.07,0,0,1-.1,2.26c-.46,2.59-1.34,7.27-2.44,11.54v0c-.3,1.16-.61,2.28-.95,3.31v0a28.26,28.26,0,0,1-1.28,3.45,8.49,8.49,0,0,1-.9,1.59h0a2.3,2.3,0,0,1-.91.83" />
      <path class="GUNDAN_OWL_OUTFIT_GUNDAN_OWL_OUTFIT_1_cls-9" d="M235.56,419.53c1.49-.32,3.47-.51,4.78.2a4,4,0,0,1,2.15,3.62h0" />
      <path class="GUNDAN_OWL_OUTFIT_GUNDAN_OWL_OUTFIT_1_cls-9" d="M227.92,412.17s-4.68,20.35-4.2,32.48" />
      <path class="GUNDAN_OWL_OUTFIT_GUNDAN_OWL_OUTFIT_1_cls-9" d="M219.05,413.69h0c-23.84-5.62-63.16-14.28-69-17.76h0" />
      <path class="GUNDAN_OWL_OUTFIT_GUNDAN_OWL_OUTFIT_1_cls-9" d="M215.33,423.44c-6.14.1-44.78-.06-59.62-3.4l-.43-.1" />
      <path class="GUNDAN_OWL_OUTFIT_GUNDAN_OWL_OUTFIT_1_cls-9" d="M216.9,423.41l-1.56,0" />
      <path class="GUNDAN_OWL_OUTFIT_GUNDAN_OWL_OUTFIT_1_cls-9" d="M211.22,432.63h0c-11.11-.05-45.35-2.07-51.57-3.42-1.24-.27-2.3-.52-3.12-.72" />
      <path class="GUNDAN_OWL_OUTFIT_GUNDAN_OWL_OUTFIT_1_cls-9" d="M215.36,423.45h0c-18.9-3.6-56.15-11-62.12-14.51h0" />
      <polyline class="GUNDAN_OWL_OUTFIT_GUNDAN_OWL_OUTFIT_1_cls-9" points="280.13 418.65 280.14 418.67 283.86 423.96" />
      <line class="GUNDAN_OWL_OUTFIT_GUNDAN_OWL_OUTFIT_1_cls-9" x1="276.81" y1="421.46" x2="281.68" y2="425.95" />
      <line class="GUNDAN_OWL_OUTFIT_GUNDAN_OWL_OUTFIT_1_cls-9" x1="289.91" y1="414.32" x2="292.16" y2="419.95" />
      <line class="GUNDAN_OWL_OUTFIT_GUNDAN_OWL_OUTFIT_1_cls-9" x1="295.12" y1="413.7" x2="295.12" y2="419.51" />
      <g class="GUNDAN_OWL_OUTFIT_GUNDAN_OWL_OUTFIT_1_cls-10">
        <path d="M136.07,326.71s-7.46.42-9.59,7.23-1.59,21,4.06,32.52c-8.11-21.21-8.37-32.32-8.37-32.32s-2.84-3.83-1.52-8.15c-3.15,3.39-1,8.92-1,8.92s-2.11-.77-4.58,2.41S113,342,113,342a17.54,17.54,0,0,0-8.64,3.65c-4.19,3.31-12,11.76-19.43,10.19-4.13,6.87-10.16,15.67-11.8,21.1s-1.88,16.86-1.06,22.9,1.2,22.24-2.71,28.38l-1.46-6s-.79-1.59-4.55,9.84l-1.65,5.61s6.64,9.85,12.31,12.66c4.93,2.74,5.6,2.37,5.6,2.37a7.41,7.41,0,0,0,5.7-5.74c9.8,7.33,32.75,16.29,37.74,16.49-18.26,0-24.85-1.16-24.85-1.16a58.73,58.73,0,0,1,12.76,6.34c-11.06.7-13,.93-13,.93s8.57,10.18,17.72,13.7L124,485s-8.58,6.58-22.75,7.73h50.54s6.15-55.7-1.59-78.85c-5.84-5.42-5.94-35.86-3.05-48,6.89,18,70.79,48,70.79,48s-50.85-18.25-62.91-46.92S136.07,326.71,136.07,326.71Z" />
        <path d="M145.81,317.07,139.23,324s14.53,28.45,27.4,40.58,59.21,39.39,70.1,43.16l9.18-10s-57.4-20.52-75.18-41.83S145.81,317.07,145.81,317.07Z" />
        <path d="M216.56,420.57s6.39-4.15,8.58.79c-1.46,8.88-2.13,17.92-2.13,17.92a16,16,0,0,0,9.08,4.05c5.49.48,6.44-2,6.44-2l4.93,1.19s-.39,4.72-7.64,4.9-20.73-2.54-21.51-6.09S216.56,420.57,216.56,420.57Z" />
        <path d="M216.49,418.94s-51.13-7.52-58.55-12l-7.43-4.43,2.06,8.61s16.7,8.16,25.73,10.6,35.1,2.75,35.1,2.75l2.15-.32Z" />
        <path d="M215.13,426.84s-34.72,1.45-43.21.68-16.87-2.12-16.87-2.12l1.18,4.07s16,3.58,23.46,3.83,30.77.24,30.77.24l4.6-4.15Z" />
        <path d="M278.85,428.45s.33,17.77,13.14,25.29c-.66,9.35-.12,13.47-.12,13.47s-15.26-3.07-17.65-17.16C272.77,442.85,272.86,436.42,278.85,428.45Z" />
        <path d="M318.06,403.76s-3.85,21.88-2.5,32.13a110.88,110.88,0,0,0,4.37,19.1s6.52,6.44,5.69,10.37c-7.89.59-16.57-1.09-18.55-4.3-.64-26-2.58-47.88-.61-52.41A109.36,109.36,0,0,1,318.06,403.76Z" />
        <path d="M301.33,421.25s-6.11,28.54-6.71,45.5S296.23,493,296.23,493h11.91s-6.94-20.73-7.23-43.55S301.33,421.25,301.33,421.25Z" />
        <path d="M308.14,321.5S281.07,379,261.88,397.4s-20,18.08-20,18.08,4.9.49,5.72,3.08a13.78,13.78,0,0,1,.78,4.06s12-11.3,19.27-21.23,28.35-42.88,33-52.1,10.66-24.38,10.66-24.38Z" />
        <path d="M313.41,326.17s9.11,1.8,10.44,6.36,1.77,11-1.84,19.92-5.27,13.85-8.43,23-6.46,17.39-7.15,22-1.57-11.11-.14-16.13c1.93-6,7.92-17.12,10.51-24s6.92-17.38,4.56-22.84S313.38,327.26,313.41,326.17Z" />
      </g>
    </g>
  </g>
</svg>