<svg xmlns="http://www.w3.org/2000/svg" viewBox="0 0 432 432">
  <defs>
    <style>.GUNDAN_OWL_OUTFIT_GUNDAN_OWL_OUTFIT_33_cls-1{isolation:isolate;}.GUNDAN_OWL_OUTFIT_GUNDAN_OWL_OUTFIT_33_cls-2{fill:#4a4a6c;}.GUNDAN_OWL_OUTFIT_GUNDAN_OWL_OUTFIT_33_cls-3{fill:#fff;}.GUNDAN_OWL_OUTFIT_GUNDAN_OWL_OUTFIT_33_cls-4{fill:#9a3211;}.GUNDAN_OWL_OUTFIT_GUNDAN_OWL_OUTFIT_33_cls-5{fill:#e3dfda;}.GUNDAN_OWL_OUTFIT_GUNDAN_OWL_OUTFIT_33_cls-6{fill:#491f2a;}.GUNDAN_OWL_OUTFIT_GUNDAN_OWL_OUTFIT_33_cls-7{fill:#deb641;}.GUNDAN_OWL_OUTFIT_GUNDAN_OWL_OUTFIT_33_cls-8{fill:none;stroke:#000;stroke-linecap:round;stroke-linejoin:round;stroke-width:1.7px;}.GUNDAN_OWL_OUTFIT_GUNDAN_OWL_OUTFIT_33_cls-9{opacity:0.22;mix-blend-mode:multiply;}</style>
  </defs>
  <g class="GUNDAN_OWL_OUTFIT_GUNDAN_OWL_OUTFIT_33_cls-1">
    <g id="oufit">
      <path class="GUNDAN_OWL_OUTFIT_GUNDAN_OWL_OUTFIT_33_cls-2" d="M276.42,374.1a4.64,4.64,0,0,1-.53,0,9.21,9.21,0,0,1-2.41-.39,4.47,4.47,0,0,1-1.39-.66,57.23,57.23,0,0,1,2.78-10.24c.25-.63.49-1.22.74-1.79h0c0-1.34,5.22-5.73,5.3-7.07-5.44,3.48-20.44,9.31-26.36,11.28l-1,.33a71.82,71.82,0,0,1-9.92,2.36l-6,7.2c2.63-2.41,5.68-4.14,3.11-6.28-3.88-.16-32.72-.72-36.36-1.58-7.39-1.74-14.19-4.91-20.2-7.72-2.46-1.14-5-2.36-7.6-3.72.13,1.74.18,3.47.17,5.21h0c.26.57.5,1.16.74,1.79A56.77,56.77,0,0,1,180.3,373a4.42,4.42,0,0,1-1.4.66,9.13,9.13,0,0,1-2.4.39,4.69,4.69,0,0,1-.53,0c-2.63,23.3-11.57,46.2-25.45,66.63H301.87C288,420.3,279.05,397.4,276.42,374.1Z" />
      <path class="GUNDAN_OWL_OUTFIT_GUNDAN_OWL_OUTFIT_33_cls-3" d="M243.64,367.89l-3.36,4c-2.26-1.07-4.58-2.21-6.94-3.42C237.88,368.35,242.05,368.15,243.64,367.89Z" />
      <path class="GUNDAN_OWL_OUTFIT_GUNDAN_OWL_OUTFIT_33_cls-3" d="M302.47,305.87l-.26.1a7.36,7.36,0,0,0-2.94,2.57c-3.14,4.12-7.22,8.77-9.53,13.23-10.24,11.68-29.56,26.48-39.53,38.31-1.15,1.34-2.27,2.68-3.4,4a47.56,47.56,0,0,1-5.46.79c-1.76.17-3.72.32-5.79.44h-.1c-2.43.14-5,.24-7.54.3l-.11-.06c-21.24-11.43-44.46-27.09-58.9-39.71l-.1-.09c-2.21-1.93-4.21-3.79-5.95-5.55l-.09-.08c-.57-.58-1.11-1.14-1.63-1.69l-.6-.65h0l-.06-.07C160,317,159.52,316,159,315c-.12-.23-.26-.46-.39-.7a93.62,93.62,0,0,0-5.82-9.85,7.38,7.38,0,0,0-2.94-2.58l-.12,0-.14-.05c1.62-1.31,4.8-2.2,6.42-3.52,19.15,18,60.13,41.4,83.56,55.59,18-14.71,43-41.14,56-59.28C298.15,296.72,299.8,303.71,302.47,305.87Z" />
      <path class="GUNDAN_OWL_OUTFIT_GUNDAN_OWL_OUTFIT_33_cls-4" d="M293.88,364.22c-1.48-3.8,2.26-9.56.39-10.44a3.46,3.46,0,0,0-.66-.23h0c-.19-1.35-.44-2.6-.71-3.71-.2-.85-.42-1.63-.64-2.31a3.56,3.56,0,0,0,1.12-.94,2.68,2.68,0,0,0,.55-1.61.91.91,0,0,0,0-.17,3.12,3.12,0,0,0-2.11-2.61,4.26,4.26,0,0,0-1.63-.3c-2.06,0-3.74,1.37-3.74,3.08a2.54,2.54,0,0,0,.09.68c-1.7,1.43-3.47,2.79-5.29,4-5.71,4-21.09,10.23-27.42,12.4l-1.61.54q-2.69.84-5.4,1.46c-7.06,1.59-28.34,2-35.15,1.24a54.73,54.73,0,0,1-6.23-1.08c-7-1.64-13.56-4.72-19.38-7.44a108.07,108.07,0,0,1-9.82-5c-1.81-1.08-9-5.81-10.54-7.11a1.23,1.23,0,0,0,0-.27c0-1.7-1.68-3.08-3.75-3.08a4.38,4.38,0,0,0-1.63.31,3.14,3.14,0,0,0-2.11,2.6,1,1,0,0,0,0,.17,2.66,2.66,0,0,0,.56,1.61,3.55,3.55,0,0,0,1.11.95c-.21.68-.43,1.46-.64,2.31-.27,1.11-.51,2.36-.7,3.7h0a3.46,3.46,0,0,0-.66.23c-1.87.88,2.1,7.15.63,11a57.76,57.76,0,0,0-2.79,10.23,4.78,4.78,0,0,0,1.4.67,10.57,10.57,0,0,0,2.39.39,20.82,20.82,0,0,0,3-.1c.56-.07,1.12-.14,1.61-.23l.57-.09c.65-.12,1.21-.25,1.63-.36-.45-1.78.86-7.65.94-11.54,0-1.75-5.25-6.75-5.35-7.85a2.29,2.29,0,0,0-1-2,36.3,36.3,0,0,1,1.3-5.85,3.91,3.91,0,0,0,1.15-.22,34,34,0,0,1,.95,4.66,2.29,2.29,0,0,0-1,2c-.11,1.09,5.47,6.1,5.51,7.86.07,3.87,1.39,9.75.94,11.52a16.64,16.64,0,0,0,1.63.37c.64.12,1.39.23,2.17.32a21.47,21.47,0,0,0,2.42.1,4.69,4.69,0,0,0,.53,0,9.13,9.13,0,0,0,2.4-.39,4.42,4.42,0,0,0,1.4-.66,56.77,56.77,0,0,0-2.79-10.24c-.24-.63-.48-1.22-.74-1.79h0c-1.23-2.84-7.93-8.41-9.49-9.14a4.27,4.27,0,0,0-.65-.24c-.12-.82-.26-1.6-.41-2.34,1.6,1.07,8.7,5.6,10.38,6.51,2.55,1.36,5.14,2.58,7.6,3.72,6,2.81,12.81,6,20.2,7.72a60.15,60.15,0,0,0,11.34,1.52q1.33.06,2.67.06c3.69,0,21.51-.31,25.23-.92a71.82,71.82,0,0,0,9.92-2.36l1-.33c5.92-2,20.92-7.8,26.36-11.28,1.66-1.07,3.29-2.2,4.87-3.4-.09.52-.18,1.06-.26,1.62a3.46,3.46,0,0,0-.66.23c-1.55.73-8,5.78-9.25,8.62h0c-.25.57-.49,1.16-.74,1.79A57.23,57.23,0,0,0,272.09,373a4.47,4.47,0,0,0,1.39.66,9.21,9.21,0,0,0,2.41.39,4.64,4.64,0,0,0,.53,0,21.56,21.56,0,0,0,2.42-.1c.78-.09,1.52-.2,2.17-.32s1.22-.25,1.63-.37c-.45-1.77.87-7.65.94-11.52,0-1.76,5.37-6.26,5.27-7.35a2.34,2.34,0,0,0-1-2,34.1,34.1,0,0,1,.83-4.25l.11-.41.27.09a3.83,3.83,0,0,0,.89.13,36.55,36.55,0,0,1,1.3,5.85c-.66.4-6.11,4.11-6.18,5-.11,1.09.05,2.53.08,4.28.08,3.89,1.39,9.76.94,11.54.42.11,1,.24,1.63.36l.56.09c.5.09,1.05.16,1.62.23a20.68,20.68,0,0,0,2.95.1,10.38,10.38,0,0,0,2.39-.39,4.55,4.55,0,0,0,1.4-.67A57.24,57.24,0,0,0,293.88,364.22Z" />
      <path class="GUNDAN_OWL_OUTFIT_GUNDAN_OWL_OUTFIT_33_cls-2" d="M186.05,356.83c5.82,2.72,12.42,5.8,19.38,7.44,2,.48,20.37,1.13,22.49,1.37-24.09-12.68-53.41-32.42-67.45-47.91,5.55,9.59,14.49,23.53,15.76,34.11A108.07,108.07,0,0,0,186.05,356.83Z" />
      <path class="GUNDAN_OWL_OUTFIT_GUNDAN_OWL_OUTFIT_33_cls-2" d="M253.82,362.11c6.33-2.17,21.71-8.39,27.42-12.4a79.19,79.19,0,0,1,8.5-27.93c-10.24,11.68-29.56,26.48-39.53,38.3-1.15,1.34-2.27,2.68-3.4,4q2.72-.62,5.4-1.46Z" />
      <path class="GUNDAN_OWL_OUTFIT_GUNDAN_OWL_OUTFIT_33_cls-3" d="M355.17,403h0a4.3,4.3,0,0,0-1.92-1.37,8.47,8.47,0,0,0-5.44-.2c-2.69.78-5.24,2.9-7.28,6.19a1,1,0,0,0,.32,1.38,11.75,11.75,0,0,0,2.24,1.08c.71.28,1.52.58,2.37.87-.56,1-1.16,2-1.66,2.69a1.06,1.06,0,0,0,.53,1.58,1.65,1.65,0,0,0,.69.15,1.48,1.48,0,0,0,1.22-.59c.56-.8,1.23-1.91,1.85-3l2,.65c1.35.41,2.44.72,2.95.87a1.53,1.53,0,0,0,.47.07,1.42,1.42,0,0,0,1.32-.77C355.2,411.86,357.59,406,355.17,403Zm-2.53,7.75-1.22-.36-2.15-.67c.32-.57.53-1,.55-1a1.08,1.08,0,0,0-.72-1.52,1.53,1.53,0,0,0-1.85.59s-.24.44-.6,1.08c-.87-.3-1.64-.57-2.27-.82l-.74-.29a13.84,13.84,0,0,1,2.38-2.62,6.56,6.56,0,0,1,4.19-1.74,5.36,5.36,0,0,1,1.87.35c1.05.39,1.38,1.6,1.34,3A14.41,14.41,0,0,1,352.64,410.75Z" />
      <path class="GUNDAN_OWL_OUTFIT_GUNDAN_OWL_OUTFIT_33_cls-3" d="M104.58,401.43a8.47,8.47,0,0,0-5.44.2A4.25,4.25,0,0,0,97.22,403h0c-2.42,3,0,8.86.3,9.63a1.41,1.41,0,0,0,1.32.77,1.53,1.53,0,0,0,.47-.07c.5-.15,1.6-.46,2.94-.87l2-.65c.61,1.06,1.28,2.17,1.84,3a1.51,1.51,0,0,0,1.22.59,1.69,1.69,0,0,0,.7-.15,1.06,1.06,0,0,0,.52-1.58c-.49-.71-1.09-1.71-1.66-2.69.86-.29,1.66-.59,2.38-.87a11.75,11.75,0,0,0,2.24-1.08,1,1,0,0,0,.32-1.38C109.81,404.33,107.27,402.21,104.58,401.43ZM108,408c-.64.25-1.41.52-2.29.82-.34-.64-.58-1.07-.59-1.08a1.52,1.52,0,0,0-1.85-.59,1.08,1.08,0,0,0-.72,1.52l.56,1-2.15.67c-.41.11-.82.24-1.22.36a14.06,14.06,0,0,1-.78-4c0-1.41.29-2.62,1.34-3a5.36,5.36,0,0,1,1.87-.35,6.56,6.56,0,0,1,4.19,1.74,13.77,13.77,0,0,1,2.37,2.62Z" />
      <path class="GUNDAN_OWL_OUTFIT_GUNDAN_OWL_OUTFIT_33_cls-5" d="M347.25,407.78a1.53,1.53,0,0,1,1.85-.59,1.08,1.08,0,0,1,.72,1.52c0,.05-.23.44-.55,1l2.15.67c.71-1.2,1.38-2.41,2-3.64,0-1.41-.29-2.62-1.34-3a5.36,5.36,0,0,0-1.87-.35,6.56,6.56,0,0,0-4.19,1.74c-.52,1-1.06,1.95-1.64,2.91.63.25,1.4.52,2.27.82C347,408.22,347.25,407.79,347.25,407.78Z" />
      <path class="GUNDAN_OWL_OUTFIT_GUNDAN_OWL_OUTFIT_33_cls-5" d="M100.31,403.74c-1,.39-1.39,1.6-1.34,3,.62,1.23,1.28,2.44,2,3.64l2.15-.67-.56-1a1.08,1.08,0,0,1,.72-1.52,1.52,1.52,0,0,1,1.85.59s.25.44.59,1.08c.88-.3,1.65-.57,2.29-.82-.58-1-1.12-1.93-1.64-2.91a6.56,6.56,0,0,0-4.19-1.74A5.36,5.36,0,0,0,100.31,403.74Z" />
      <path class="GUNDAN_OWL_OUTFIT_GUNDAN_OWL_OUTFIT_33_cls-5" d="M356.25,381.39c-1.31.12-2.55.62-3.85.85a53.59,53.59,0,0,1-4.59,19.19,8.47,8.47,0,0,1,5.44.2,4.3,4.3,0,0,1,1.92,1.37A57.68,57.68,0,0,0,359.93,382,7.63,7.63,0,0,0,356.25,381.39Z" />
      <path class="GUNDAN_OWL_OUTFIT_GUNDAN_OWL_OUTFIT_33_cls-5" d="M350.13,412.46l-2-.65c-.62,1.06-1.29,2.17-1.85,3a1.48,1.48,0,0,1-1.22.59,1.65,1.65,0,0,1-.69-.15,1.06,1.06,0,0,1-.53-1.58c.5-.71,1.1-1.71,1.66-2.69-.85-.29-1.66-.59-2.37-.87a62.67,62.67,0,0,1-5.36,7,135.89,135.89,0,0,1-15.22-43.7,12.19,12.19,0,0,1-7.89-2.72l-.09-.09a141.61,141.61,0,0,0,17.92,51.83c1.08,1.88,2.22,3.75,3.38,5.59q4.14,6.53,9,12.72h9a153.12,153.12,0,0,1-12.45-17.36A68.54,68.54,0,0,0,350.13,412.46Z" />
      <path class="GUNDAN_OWL_OUTFIT_GUNDAN_OWL_OUTFIT_33_cls-5" d="M104.58,401.43a53.6,53.6,0,0,1-4.6-19.19c-1.29-.23-2.53-.73-3.84-.85a7.63,7.63,0,0,0-3.68.56A57.68,57.68,0,0,0,97.22,403a4.25,4.25,0,0,1,1.92-1.37A8.47,8.47,0,0,1,104.58,401.43Z" />
      <path class="GUNDAN_OWL_OUTFIT_GUNDAN_OWL_OUTFIT_33_cls-5" d="M129.88,373.4a135.89,135.89,0,0,1-15.22,43.7,61.49,61.49,0,0,1-5.36-7c-.72.28-1.52.58-2.38.87.57,1,1.17,2,1.66,2.69a1.06,1.06,0,0,1-.52,1.58,1.69,1.69,0,0,1-.7.15,1.51,1.51,0,0,1-1.22-.59c-.56-.8-1.23-1.91-1.84-3l-2,.65A69.1,69.1,0,0,0,111,423.37a151.78,151.78,0,0,1-12.44,17.36h9q4.86-6.19,9-12.72c1.16-1.84,2.29-3.71,3.37-5.59a141.44,141.44,0,0,0,17.93-51.83l-.1.09A12.16,12.16,0,0,1,129.88,373.4Z" />
      <path class="GUNDAN_OWL_OUTFIT_GUNDAN_OWL_OUTFIT_33_cls-6" d="M352.64,410.75a14.41,14.41,0,0,0,.78-4c-.62,1.23-1.29,2.44-2,3.64Z" />
      <path class="GUNDAN_OWL_OUTFIT_GUNDAN_OWL_OUTFIT_33_cls-6" d="M344.38,408c.58-1,1.12-1.93,1.64-2.91a13.84,13.84,0,0,0-2.38,2.62Z" />
      <path class="GUNDAN_OWL_OUTFIT_GUNDAN_OWL_OUTFIT_33_cls-6" d="M108,408l.73-.29a13.77,13.77,0,0,0-2.37-2.62C106.89,406.11,107.43,407.08,108,408Z" />
      <path class="GUNDAN_OWL_OUTFIT_GUNDAN_OWL_OUTFIT_33_cls-6" d="M101,410.39c-.72-1.2-1.38-2.41-2-3.64a14.06,14.06,0,0,0,.78,4C100.15,410.63,100.56,410.5,101,410.39Z" />
      <path class="GUNDAN_OWL_OUTFIT_GUNDAN_OWL_OUTFIT_33_cls-6" d="M369.08,382.43a11.27,11.27,0,0,0-3.7,1.59c-.7.46-1.78.07-2.54-.31s-1.38-.93-2.11-1.36a8.52,8.52,0,0,0-.8-.4A57.68,57.68,0,0,1,355.17,403h0c2.42,3,0,8.86-.3,9.63a1.42,1.42,0,0,1-1.32.77,1.53,1.53,0,0,1-.47-.07c-.51-.15-1.6-.46-2.95-.87a68.54,68.54,0,0,1-8.77,10.91,153.12,153.12,0,0,0,12.45,17.36h26.06A154.1,154.1,0,0,0,369.08,382.43Z" />
      <path class="GUNDAN_OWL_OUTFIT_GUNDAN_OWL_OUTFIT_33_cls-6" d="M332.45,422.42a141.61,141.61,0,0,1-17.92-51.83,10.11,10.11,0,0,1-.95-.9,13.49,13.49,0,0,0-2.94-2.58c-1.95-1.1-4.46-1.17-6.81-1.54a12,12,0,0,1-3.12-.84,10.86,10.86,0,0,1-4.41-4.18c-1.1-1.64,3.12-6.43,1.53-7.77a31.17,31.17,0,0,0-4.93-2.94c.27,1.11.52,2.36.71,3.71h0a3.46,3.46,0,0,1,.66.23c1.87.88-1.87,6.64-.39,10.44a57.24,57.24,0,0,1,2.78,10.23,4.55,4.55,0,0,1-1.4.67,10.38,10.38,0,0,1-2.39.39,20.68,20.68,0,0,1-2.95-.1c-.57-.07-1.12-.14-1.62-.23,3.82,23.58,13.07,46.32,29.82,65.55h26.7q-4.86-6.19-9-12.72C334.67,426.17,333.53,424.3,332.45,422.42Z" />
      <path class="GUNDAN_OWL_OUTFIT_GUNDAN_OWL_OUTFIT_33_cls-6" d="M343.09,410.08a11.75,11.75,0,0,1-2.24-1.08,1,1,0,0,1-.32-1.38c2-3.29,4.59-5.41,7.28-6.19a53.59,53.59,0,0,0,4.59-19.19,2.93,2.93,0,0,1-.41.07,7.12,7.12,0,0,1-4.25-.6c-1.57-.84-2.4-2.43-4-3.23a5.13,5.13,0,0,0-1.1-.39,12.65,12.65,0,0,0-4.3,0,12.14,12.14,0,0,1-5.44-.18c-1.63-.61-2.68-1.89-3.89-3l-.4-.34a5.39,5.39,0,0,0-4.26-1.36,8.62,8.62,0,0,1-1.83.2,135.89,135.89,0,0,0,15.22,43.7A62.67,62.67,0,0,0,343.09,410.08Z" />
      <path class="GUNDAN_OWL_OUTFIT_GUNDAN_OWL_OUTFIT_33_cls-6" d="M111.86,407.62a1,1,0,0,1-.32,1.38,11.75,11.75,0,0,1-2.24,1.08,61.49,61.49,0,0,0,5.36,7,135.89,135.89,0,0,0,15.22-43.7,8.62,8.62,0,0,1-1.83-.2,5.22,5.22,0,0,0-4.05,1.19c-.21.16-.42.33-.62.51-1.21,1.07-2.26,2.35-3.89,3a12.13,12.13,0,0,1-5.44.18c-1.83-.21-3.81-.34-5.39.44a3.88,3.88,0,0,0-.57.33c-1.26.85-2.07,2.16-3.45,2.9a7.08,7.08,0,0,1-4.24.6,2.83,2.83,0,0,1-.42-.07,53.6,53.6,0,0,0,4.6,19.19C107.27,402.21,109.81,404.33,111.86,407.62Z" />
      <path class="GUNDAN_OWL_OUTFIT_GUNDAN_OWL_OUTFIT_33_cls-6" d="M102.25,412.46c-1.34.41-2.44.72-2.94.87a1.53,1.53,0,0,1-.47.07,1.41,1.41,0,0,1-1.32-.77c-.33-.77-2.72-6.61-.3-9.63h0A57.68,57.68,0,0,1,92.46,382c-.28.12-.55.26-.81.4-.73.43-1.34,1-2.11,1.36s-1.84.77-2.53.31a11.27,11.27,0,0,0-3.7-1.59c-7.39,18.79-12.23,38.56-12,58.3H98.58A151.78,151.78,0,0,0,111,423.37,69.1,69.1,0,0,1,102.25,412.46Z" />
      <path class="GUNDAN_OWL_OUTFIT_GUNDAN_OWL_OUTFIT_33_cls-6" d="M157.88,353.27a3.46,3.46,0,0,1,.66-.23h0c.19-1.34.43-2.59.7-3.7a31.53,31.53,0,0,0-4.92,2.94c-1.59,1.34,2.87,6.64,1.77,8.28a10.88,10.88,0,0,1-4.42,4.18,11.8,11.8,0,0,1-3.11.84c-2.35.37-4.86.44-6.81,1.54a11.09,11.09,0,0,0-2.49,2.12c-.46.46-.91.93-1.4,1.36a141.44,141.44,0,0,1-17.93,51.83c-1.08,1.88-2.21,3.75-3.37,5.59q-4.14,6.53-9,12.72h26.7c16.75-19.23,26-42,29.81-65.55-.49.09-1.05.16-1.61.23a20.82,20.82,0,0,1-3,.1,10.57,10.57,0,0,1-2.39-.39,4.78,4.78,0,0,1-1.4-.67,57.76,57.76,0,0,1,2.79-10.23C160,360.42,156,354.15,157.88,353.27Z" />
      <path class="GUNDAN_OWL_OUTFIT_GUNDAN_OWL_OUTFIT_33_cls-4" d="M364.94,370.09a8.09,8.09,0,0,0-.91-.84,32.9,32.9,0,0,1-4.36,1,6.75,6.75,0,0,1,3,1.4,4.69,4.69,0,0,1,1.84,3.17,2.48,2.48,0,0,1-.4,1.62,2.85,2.85,0,0,1-1.56,1,4.55,4.55,0,0,1-4.14-1,.54.54,0,0,0-.66,0,.33.33,0,0,0-.07.51,5.64,5.64,0,0,0,2.24,1.52,5.93,5.93,0,0,0,3,.28,4.82,4.82,0,0,0,2.74-1.37,4,4,0,0,0,1.1-2.49A6.35,6.35,0,0,0,364.94,370.09Z" />
      <path class="GUNDAN_OWL_OUTFIT_GUNDAN_OWL_OUTFIT_33_cls-4" d="M312.07,355.44c.45.63-4.44,4.38-4.4,5.1a2.38,2.38,0,0,1-.4,1.61,2.81,2.81,0,0,1-1.56,1,4.53,4.53,0,0,1-4.13-1,.57.57,0,0,0-.67,0,.35.35,0,0,0-.07.52,5.78,5.78,0,0,0,2.25,1.52,7.71,7.71,0,0,0,1,.27,6.07,6.07,0,0,0,2,0,5,5,0,0,0,2.73-1.38,4,4,0,0,0,1.09-2.49,4.82,4.82,0,0,0,0-.85C308.92,359.32,313.09,355.86,312.07,355.44Z" />
      <path class="GUNDAN_OWL_OUTFIT_GUNDAN_OWL_OUTFIT_33_cls-4" d="M348.32,370.52a5.86,5.86,0,0,1,.74.54,4.64,4.64,0,0,1,1.84,3.16,2.39,2.39,0,0,1-.4,1.62,2.87,2.87,0,0,1-1.56,1,4.55,4.55,0,0,1-4.14-1,.54.54,0,0,0-.66,0,.33.33,0,0,0-.06.51,4.61,4.61,0,0,0,1,.87,5.47,5.47,0,0,0,1.25.65,5.82,5.82,0,0,0,3,.28,4.82,4.82,0,0,0,2.74-1.37,4.07,4.07,0,0,0,1.09-2.49,5.63,5.63,0,0,0-.91-3.5C351,370.73,349.64,370.66,348.32,370.52Z" />
      <path class="GUNDAN_OWL_OUTFIT_GUNDAN_OWL_OUTFIT_33_cls-4" d="M319.3,363.19a5.46,5.46,0,0,1,1.11.73,4.71,4.71,0,0,1,1.83,3.16,2.5,2.5,0,0,1-.39,1.62,2.88,2.88,0,0,1-1.56,1,4.57,4.57,0,0,1-4.15-1,.54.54,0,0,0-.66,0,.33.33,0,0,0-.07.5,2.61,2.61,0,0,0,.23.24,5.55,5.55,0,0,0,2,1.28,5.93,5.93,0,0,0,3,.29,5,5,0,0,0,2.74-1.37,4.13,4.13,0,0,0,1.09-2.5,5.63,5.63,0,0,0-.32-2.3Q321.74,364,319.3,363.19Z" />
      <path class="GUNDAN_OWL_OUTFIT_GUNDAN_OWL_OUTFIT_33_cls-4" d="M333.63,367.59c-1.29-.35-2.56-.71-3.84-1.08a1.88,1.88,0,0,0,.85.41,1.9,1.9,0,0,0,.25,0,6.94,6.94,0,0,1,3.68,1.51,4.63,4.63,0,0,1,1.84,3.17,2.38,2.38,0,0,1-.4,1.61,2.81,2.81,0,0,1-1.56,1,4.53,4.53,0,0,1-4.14-1,.54.54,0,0,0-.66,0,.34.34,0,0,0-.07.51,5.53,5.53,0,0,0,2.25,1.51,5.83,5.83,0,0,0,3,.29,5,5,0,0,0,2.74-1.37,4.08,4.08,0,0,0,1.09-2.5,5.46,5.46,0,0,0-.6-2.93C336.59,368.38,335.1,368,333.63,367.59Z" />
      <path class="GUNDAN_OWL_OUTFIT_GUNDAN_OWL_OUTFIT_33_cls-4" d="M150.81,362.15a4.55,4.55,0,0,1-4.14,1,2.82,2.82,0,0,1-1.55-1,2.44,2.44,0,0,1-.41-1.61c0-.72-5.09-5-4.64-5.61q-1.51.63-3.06,1.23c0,.28,5.41,4.12,5.42,4.41a4.14,4.14,0,0,0,1.09,2.49,5,5,0,0,0,2.74,1.38,6.07,6.07,0,0,0,2,0,7.3,7.3,0,0,0,1-.27,5.67,5.67,0,0,0,2.24-1.52.35.35,0,0,0-.06-.52A.57.57,0,0,0,150.81,362.15Z" />
      <path class="GUNDAN_OWL_OUTFIT_GUNDAN_OWL_OUTFIT_33_cls-4" d="M136.24,368.7a4.54,4.54,0,0,1-4.14,1,2.85,2.85,0,0,1-1.56-1,2.44,2.44,0,0,1-.39-1.62,4.64,4.64,0,0,1,1.83-3.16,5.39,5.39,0,0,1,1.1-.73q-2.43.85-4.89,1.63a5.32,5.32,0,0,0-.32,2.3,4,4,0,0,0,1.09,2.5A5,5,0,0,0,131.7,371a5.9,5.9,0,0,0,3-.29,5.64,5.64,0,0,0,2.26-1.52.33.33,0,0,0-.07-.5A.55.55,0,0,0,136.24,368.7Z" />
      <path class="GUNDAN_OWL_OUTFIT_GUNDAN_OWL_OUTFIT_33_cls-4" d="M122.08,373.24a4.54,4.54,0,0,1-4.14,1,2.81,2.81,0,0,1-1.56-1,2.44,2.44,0,0,1-.41-1.61,4.71,4.71,0,0,1,1.84-3.17A7,7,0,0,1,121.5,367a1.75,1.75,0,0,0,.24,0,1.87,1.87,0,0,0,.86-.41c-1.28.37-2.55.73-3.84,1.08-1.47.4-3,.79-4.46,1.14a5.46,5.46,0,0,0-.6,2.93,4.12,4.12,0,0,0,1.08,2.5,5,5,0,0,0,2.74,1.37,5.87,5.87,0,0,0,3-.29,5.59,5.59,0,0,0,1.78-1.05,5,5,0,0,0,.46-.46.33.33,0,0,0-.06-.51A.54.54,0,0,0,122.08,373.24Z" />
      <path class="GUNDAN_OWL_OUTFIT_GUNDAN_OWL_OUTFIT_33_cls-4" d="M107.59,375.84a4.58,4.58,0,0,1-4.15,1,2.87,2.87,0,0,1-1.55-1,2.46,2.46,0,0,1-.41-1.62,4.71,4.71,0,0,1,1.84-3.16,7.77,7.77,0,0,1,.74-.54c-1.31.14-2.62.21-4,.24a5.76,5.76,0,0,0-.91,3.5,4.19,4.19,0,0,0,1.09,2.49,4.88,4.88,0,0,0,2.75,1.37,5.86,5.86,0,0,0,2.54-.12,4,4,0,0,0,.49-.16,5.57,5.57,0,0,0,2.24-1.52.34.34,0,0,0-.06-.51A.54.54,0,0,0,107.59,375.84Z" />
      <path class="GUNDAN_OWL_OUTFIT_GUNDAN_OWL_OUTFIT_33_cls-4" d="M94,376.45a4.55,4.55,0,0,1-4.14,1,2.85,2.85,0,0,1-1.56-1,2.48,2.48,0,0,1-.4-1.62,4.68,4.68,0,0,1,1.83-3.17,6.85,6.85,0,0,1,3-1.4,33.12,33.12,0,0,1-4.35-1,7.4,7.4,0,0,0-.92.84,6.38,6.38,0,0,0-1.87,4.78,4.07,4.07,0,0,0,1.09,2.49,4.88,4.88,0,0,0,2.74,1.37,5.93,5.93,0,0,0,3-.28,5.5,5.5,0,0,0,2.24-1.52.33.33,0,0,0-.06-.51A.54.54,0,0,0,94,376.45Z" />
      <path class="GUNDAN_OWL_OUTFIT_GUNDAN_OWL_OUTFIT_33_cls-3" d="M375.91,379.57c-2.35-1.14-3.78-3.2-5.09-5.16s-3-4-4.61-5.93c-.71.28-1.43.54-2.18.77a8.09,8.09,0,0,1,.91.84,6.35,6.35,0,0,1,1.88,4.78,4,4,0,0,1-1.1,2.49,4.82,4.82,0,0,1-2.74,1.37,5.93,5.93,0,0,1-3-.28,5.64,5.64,0,0,1-2.24-1.52.33.33,0,0,1,.07-.51.54.54,0,0,1,.66,0,4.55,4.55,0,0,0,4.14,1,2.85,2.85,0,0,0,1.56-1,2.48,2.48,0,0,0,.4-1.62,4.69,4.69,0,0,0-1.84-3.17,6.75,6.75,0,0,0-3-1.4,40.45,40.45,0,0,1-5,.49c-.8,0-1.59,0-2.39,0a5.63,5.63,0,0,1,.91,3.5,4.07,4.07,0,0,1-1.09,2.49,4.82,4.82,0,0,1-2.74,1.37,5.82,5.82,0,0,1-3-.28,5.47,5.47,0,0,1-1.25-.65,4.61,4.61,0,0,1-1-.87.33.33,0,0,1,.06-.51.54.54,0,0,1,.66,0,4.55,4.55,0,0,0,4.14,1,2.87,2.87,0,0,0,1.56-1,2.39,2.39,0,0,0,.4-1.62,4.64,4.64,0,0,0-1.84-3.16,5.86,5.86,0,0,0-.74-.54,75.5,75.5,0,0,1-10.23-1.79,5.46,5.46,0,0,1,.6,2.93,4.08,4.08,0,0,1-1.09,2.5,5,5,0,0,1-2.74,1.37,5.94,5.94,0,0,1-4.56-1.13,5.76,5.76,0,0,1-.72-.67.34.34,0,0,1,.07-.51.54.54,0,0,1,.66,0,4.53,4.53,0,0,0,4.14,1,2.81,2.81,0,0,0,1.56-1,2.38,2.38,0,0,0,.4-1.61,4.63,4.63,0,0,0-1.84-3.17,6.94,6.94,0,0,0-3.68-1.51,1.9,1.9,0,0,1-.25,0,1.88,1.88,0,0,1-.85-.41c-1.88-.54-3.74-1.11-5.59-1.69a5.63,5.63,0,0,1,.32,2.3,4.13,4.13,0,0,1-1.09,2.5,5,5,0,0,1-2.74,1.37,5.93,5.93,0,0,1-3-.29,5.55,5.55,0,0,1-2-1.28,2.61,2.61,0,0,1-.23-.24.33.33,0,0,1,.07-.5.54.54,0,0,1,.66,0,4.57,4.57,0,0,0,4.15,1,2.88,2.88,0,0,0,1.56-1,2.5,2.5,0,0,0,.39-1.62,4.71,4.71,0,0,0-1.83-3.16,5.46,5.46,0,0,0-1.11-.73l-2-.69h0c-.61-.2-1.23-.43-1.84-.65h0q-2.79-1-5.53-2.11a4.82,4.82,0,0,1,0,.85,4,4,0,0,1-1.09,2.49,5,5,0,0,1-2.73,1.38,6.07,6.07,0,0,1-2,0,7.71,7.71,0,0,1-1-.27,5.78,5.78,0,0,1-2.25-1.52.35.35,0,0,1,.07-.52.57.57,0,0,1,.67,0,4.53,4.53,0,0,0,4.13,1,2.81,2.81,0,0,0,1.56-1,2.38,2.38,0,0,0,.4-1.61c0-.72,4.85-4.47,4.4-5.1-6.41-2.66-12.67-5.62-18.69-8.85a3.56,3.56,0,0,1-1.12.94c.22.68.44,1.46.64,2.31a31.17,31.17,0,0,1,4.93,2.94c1.59,1.34-2.63,6.13-1.53,7.77a10.86,10.86,0,0,0,4.41,4.18,12,12,0,0,0,3.12.84c2.35.37,4.86.44,6.81,1.54a13.49,13.49,0,0,1,2.94,2.58,10.11,10.11,0,0,0,.95.9l.09.09a12.19,12.19,0,0,0,7.89,2.72,8.62,8.62,0,0,0,1.83-.2,5.39,5.39,0,0,1,4.26,1.36l.4.34c1.21,1.07,2.26,2.35,3.89,3a12.14,12.14,0,0,0,5.44.18,12.65,12.65,0,0,1,4.3,0,5.13,5.13,0,0,1,1.1.39c1.61.8,2.44,2.39,4,3.23a7.12,7.12,0,0,0,4.25.6,2.93,2.93,0,0,0,.41-.07c1.3-.23,2.54-.73,3.85-.85a7.63,7.63,0,0,1,3.68.56,8.52,8.52,0,0,1,.8.4c.73.43,1.34,1,2.11,1.36s1.84.77,2.54.31a11.27,11.27,0,0,1,3.7-1.59,9,9,0,0,1,4.77.13,2.42,2.42,0,0,0,2.63-.75A1.53,1.53,0,0,0,375.91,379.57Z" />
      <path class="GUNDAN_OWL_OUTFIT_GUNDAN_OWL_OUTFIT_33_cls-3" d="M158.77,346.07c-6,3.24-12.28,6.19-18.7,8.86-.45.63,4.69,4.89,4.64,5.61a2.44,2.44,0,0,0,.41,1.61,2.82,2.82,0,0,0,1.55,1,4.55,4.55,0,0,0,4.14-1,.57.57,0,0,1,.67,0,.35.35,0,0,1,.06.52,5.67,5.67,0,0,1-2.24,1.52,7.3,7.3,0,0,1-1,.27,6.07,6.07,0,0,1-2,0,5,5,0,0,1-2.74-1.38,4.14,4.14,0,0,1-1.09-2.49c0-.29-5.44-4.13-5.42-4.41-1.82.73,1.77,5-.09,5.67h0c-.61.22-1.23.45-1.85.65h0l-2,.69a5.39,5.39,0,0,0-1.1.73,4.64,4.64,0,0,0-1.83,3.16,2.44,2.44,0,0,0,.39,1.62,2.85,2.85,0,0,0,1.56,1,4.54,4.54,0,0,0,4.14-1,.55.55,0,0,1,.67,0,.33.33,0,0,1,.07.5,5.64,5.64,0,0,1-2.26,1.52,5.9,5.9,0,0,1-3,.29,5,5,0,0,1-2.74-1.37,4,4,0,0,1-1.09-2.5,5.32,5.32,0,0,1,.32-2.3c-1.85.58-3.72,1.15-5.59,1.69a1.87,1.87,0,0,1-.86.41,1.75,1.75,0,0,1-.24,0,7,7,0,0,0-3.69,1.51,4.71,4.71,0,0,0-1.84,3.17,2.44,2.44,0,0,0,.41,1.61,2.81,2.81,0,0,0,1.56,1,4.54,4.54,0,0,0,4.14-1,.54.54,0,0,1,.66,0,.33.33,0,0,1,.06.51,5,5,0,0,1-.46.46,5.59,5.59,0,0,1-1.78,1.05,5.87,5.87,0,0,1-3,.29,5,5,0,0,1-2.74-1.37,4.12,4.12,0,0,1-1.08-2.5,5.46,5.46,0,0,1,.6-2.93,75.64,75.64,0,0,1-10.24,1.79,7.77,7.77,0,0,0-.74.54,4.71,4.71,0,0,0-1.84,3.16,2.46,2.46,0,0,0,.41,1.62,2.87,2.87,0,0,0,1.55,1,4.58,4.58,0,0,0,4.15-1,.54.54,0,0,1,.66,0,.34.34,0,0,1,.06.51,5.57,5.57,0,0,1-2.24,1.52,4,4,0,0,1-.49.16,5.86,5.86,0,0,1-2.54.12,4.88,4.88,0,0,1-2.75-1.37,4.19,4.19,0,0,1-1.09-2.49,5.76,5.76,0,0,1,.91-3.5c-.79,0-1.58,0-2.38,0a40.43,40.43,0,0,1-5-.49,6.85,6.85,0,0,0-3,1.4,4.68,4.68,0,0,0-1.83,3.17,2.48,2.48,0,0,0,.4,1.62,2.85,2.85,0,0,0,1.56,1,4.55,4.55,0,0,0,4.14-1,.54.54,0,0,1,.66,0,.33.33,0,0,1,.06.51,5.5,5.5,0,0,1-2.24,1.52,5.93,5.93,0,0,1-3,.28,4.88,4.88,0,0,1-2.74-1.37,4.07,4.07,0,0,1-1.09-2.49,6.38,6.38,0,0,1,1.87-4.78,7.4,7.4,0,0,1,.92-.84c-.75-.23-1.47-.49-2.18-.77-1.58,1.95-3.23,3.85-4.61,5.93s-2.74,4-5.09,5.16a1.53,1.53,0,0,0-.57,2.24,2.41,2.41,0,0,0,2.63.75,9,9,0,0,1,4.77-.13A11.27,11.27,0,0,1,87,384c.69.46,1.77.07,2.53-.31s1.38-.93,2.11-1.36c.26-.14.53-.28.81-.4a7.63,7.63,0,0,1,3.68-.56c1.31.12,2.55.62,3.84.85a2.83,2.83,0,0,0,.42.07,7.08,7.08,0,0,0,4.24-.6c1.38-.74,2.19-2,3.45-2.9a3.88,3.88,0,0,1,.57-.33c1.58-.78,3.56-.65,5.39-.44a12.13,12.13,0,0,0,5.44-.18c1.63-.61,2.68-1.89,3.89-3,.2-.18.41-.35.62-.51a5.22,5.22,0,0,1,4.05-1.19,8.62,8.62,0,0,0,1.83.2,12.16,12.16,0,0,0,7.88-2.72l.1-.09c.49-.43.94-.9,1.4-1.36a11.09,11.09,0,0,1,2.49-2.12c1.95-1.1,4.46-1.17,6.81-1.54a11.8,11.8,0,0,0,3.11-.84,10.88,10.88,0,0,0,4.42-4.18c1.1-1.64-3.36-6.94-1.77-8.28a31.53,31.53,0,0,1,4.92-2.94c.21-.85.43-1.63.64-2.31A3.55,3.55,0,0,1,158.77,346.07Z" />
      <path class="GUNDAN_OWL_OUTFIT_GUNDAN_OWL_OUTFIT_33_cls-7" d="M363.83,365.28c-20.47,9.59-57.52-14-69.91-20.47a.91.91,0,0,1,0,.17,2.68,2.68,0,0,1-.55,1.61c6,3.23,12.28,6.19,18.69,8.85,1,.42-3.15,3.88-2.13,4.28q2.74,1.09,5.53,2.11h0c.61.22,1.23.45,1.84.65h0l2,.69q2.44.85,4.9,1.63c1.85.58,3.71,1.15,5.59,1.69,1.28.37,2.55.73,3.84,1.08,1.47.4,3,.79,4.46,1.14a75.5,75.5,0,0,0,10.23,1.79c1.32.14,2.63.21,3.95.24.8,0,1.59,0,2.39,0a40.45,40.45,0,0,0,5-.49,32.9,32.9,0,0,0,4.36-1c.75-.23,1.47-.49,2.18-.77C365.38,367.44,364.56,366.38,363.83,365.28Z" />
      <path class="GUNDAN_OWL_OUTFIT_GUNDAN_OWL_OUTFIT_33_cls-7" d="M284.86,352.37a3.46,3.46,0,0,1,.66-.23c.08-.56.17-1.1.26-1.62-1.58,1.2-3.21,2.33-4.87,3.4-.08,1.34-5.3,5.73-5.3,7.07C276.84,358.15,283.31,353.1,284.86,352.37Z" />
      <path class="GUNDAN_OWL_OUTFIT_GUNDAN_OWL_OUTFIT_33_cls-7" d="M166.22,349.28c.15.74.29,1.52.41,2.34a4.27,4.27,0,0,1,.65.24c1.56.73,8.26,6.3,9.49,9.14,0-1.74,0-3.47-.17-5.21C174.92,354.88,167.82,350.35,166.22,349.28Z" />
      <path class="GUNDAN_OWL_OUTFIT_GUNDAN_OWL_OUTFIT_33_cls-7" d="M157.37,328.41a52.9,52.9,0,0,1,3,13.28,4.38,4.38,0,0,1,1.63-.31c2.07,0,3.75,1.38,3.75,3.08a1.23,1.23,0,0,1,0,.27c1.56,1.3,8.73,6,10.54,7.11C175,341.26,166,327.32,160.47,317.73c-1.85-3.22-5.43-10.28-7.73-13.29a7.38,7.38,0,0,0-2.94-2.58l-.26-.1c-1.28-.4-2.95-.16-3.56.84-.84,1.39-1.07,6-2.88,6.63C149.87,314.23,150.78,310.72,157.37,328.41Z" />
      <path class="GUNDAN_OWL_OUTFIT_GUNDAN_OWL_OUTFIT_33_cls-7" d="M286.44,345c0-1.71,1.68-3.08,3.74-3.08a4.26,4.26,0,0,1,1.63.3,52.48,52.48,0,0,1,3-13.28A42,42,0,0,1,309,309.74c-1.81-.61-3.51-1.31-4.36-2.69-.61-1-.94-1.58-2.22-1.18l-.26.1a7.28,7.28,0,0,0-2.93,2.58c-3.15,4.11-7.22,8.76-9.53,13.23a79.19,79.19,0,0,0-8.5,27.93c1.82-1.26,3.59-2.62,5.29-4A2.54,2.54,0,0,1,286.44,345Z" />
      <path class="GUNDAN_OWL_OUTFIT_GUNDAN_OWL_OUTFIT_33_cls-7" d="M287.74,375.09c-.66-.12-1.21-.25-1.63-.36.45-1.78-.86-7.65-.94-11.54,0-1.75-.19-3.19-.08-4.28.07-.91,5.52-4.62,6.18-5A36.55,36.55,0,0,0,290,348a3.83,3.83,0,0,1-.89-.13,3.05,3.05,0,0,1-.38.32,34.1,34.1,0,0,0-.83,4.25,2.34,2.34,0,0,1,1,2c.1,1.09-5.25,5.59-5.27,7.35-.07,3.87-1.39,9.75-.94,11.52-.41.12-1,.25-1.63.37s-1.39.23-2.17.32a21.56,21.56,0,0,1-2.42.1c2.63,23.3,11.57,46.2,25.45,66.63h16.25c-16.75-19.23-26-42-29.82-65.55Z" />
      <path class="GUNDAN_OWL_OUTFIT_GUNDAN_OWL_OUTFIT_33_cls-7" d="M171.38,373.68a16.64,16.64,0,0,1-1.63-.37c.45-1.77-.87-7.65-.94-11.52,0-1.76-5.62-6.77-5.51-7.86a2.29,2.29,0,0,1,1-2,34,34,0,0,0-.95-4.66,3.91,3.91,0,0,1-1.15.22,36.3,36.3,0,0,0-1.3,5.85,2.29,2.29,0,0,1,1,2c.1,1.1,5.37,6.1,5.35,7.85-.08,3.89-1.39,9.76-.94,11.54-.42.11-1,.24-1.63.36l-.57.09c-3.81,23.58-13.06,46.32-29.81,65.55h16.25C164.4,420.3,173.34,397.4,176,374.1a21.47,21.47,0,0,1-2.42-.1C172.77,373.91,172,373.8,171.38,373.68Z" />
      <path class="GUNDAN_OWL_OUTFIT_GUNDAN_OWL_OUTFIT_33_cls-7" d="M135.06,362.49c.62-.2,1.24-.43,1.85-.65h0c1.86-.68-1.73-4.94.09-5.67q1.55-.6,3.06-1.23c6.42-2.67,12.67-5.62,18.7-8.86a2.66,2.66,0,0,1-.56-1.61,1,1,0,0,1,0-.17c-12.38,6.48-49.2,30.58-69.66,21-.73,1.1-1.55,2.16-2.38,3.2.71.28,1.43.54,2.18.77a33.12,33.12,0,0,0,4.35,1,40.43,40.43,0,0,0,5,.49c.8,0,1.59,0,2.38,0,1.33,0,2.64-.1,4-.24a75.64,75.64,0,0,0,10.24-1.79c1.5-.35,3-.74,4.46-1.14,1.29-.35,2.56-.71,3.84-1.08,1.87-.54,3.74-1.11,5.59-1.69q2.46-.78,4.89-1.63l2-.69Z" />
      <path class="GUNDAN_OWL_OUTFIT_GUNDAN_OWL_OUTFIT_33_cls-6" d="M367,329.75a26.05,26.05,0,0,0-7.88-4.75,23.35,23.35,0,0,0-9.41,9.84c-1,2.23-1.62,4.58-2.6,6.82-1.38,3.19-3.71,6.3-8.3,7.27a13.46,13.46,0,0,1-7.52-.66c-10-3.86-19.79-8.39-27.75-14.47-3.53-2.69-4.68-6.85-2.67-10.39a25.57,25.57,0,0,1,6.65-7.67,31.93,31.93,0,0,1,6.88-4.07c-.78-.33-1.58-.64-2.38-.95s-1.94-.66-2.93-1a42,42,0,0,0-14.26,19.18,52.48,52.48,0,0,0-3,13.28,3.12,3.12,0,0,1,2.11,2.61c12.39,6.47,49.44,30.06,69.91,20.47,1.92-5.45,9-14,9.25-19.7S371.56,334,367,329.75Z" />
      <path class="GUNDAN_OWL_OUTFIT_GUNDAN_OWL_OUTFIT_33_cls-6" d="M143.1,309.23c-1,.32-2,.62-2.92,1s-1.6.62-2.39.94a32.45,32.45,0,0,1,6.89,4.08,25.85,25.85,0,0,1,6.65,7.67c2,3.54.85,7.7-2.68,10.39-8,6.08-17.7,10.6-27.74,14.47a13.38,13.38,0,0,1-7.52.65c-4.59-1-6.92-4.08-8.3-7.26-1-2.25-1.56-4.59-2.6-6.82a23.35,23.35,0,0,0-9.41-9.84,26,26,0,0,0-7.89,4.74c-4.6,4.24-6.32,10.17-6.12,15.84s7.57,14.76,9.49,20.21c20.46,9.59,57.28-14.51,69.66-21a3.14,3.14,0,0,1,2.11-2.6,52.9,52.9,0,0,0-3-13.28C150.78,310.72,149.87,314.23,143.1,309.23Z" />
      <path class="GUNDAN_OWL_OUTFIT_GUNDAN_OWL_OUTFIT_33_cls-7" d="M114.08,328.55h1.25a5.57,5.57,0,0,0,0,.82l-1.25.26c-.22,0-.36.2-.33.36l.1.5a.35.35,0,0,0,.44.21l1.26-.26a7.22,7.22,0,0,0,.33.81l-1.18.52a.32.32,0,0,0-.21.43l.27.48a.44.44,0,0,0,.53.11l1.2-.53a8.29,8.29,0,0,0,.61.72l-1,.77a.29.29,0,0,0-.06.47l.44.41a.48.48,0,0,0,.58,0l1-.78c.27.2.56.4.86.58l-.75,1a.29.29,0,0,0,.11.47l.59.3a.47.47,0,0,0,.57-.12l.74-1c.34.14.7.26,1.06.38l-.4,1.12a.34.34,0,0,0,.27.43l.69.17a.45.45,0,0,0,.52-.26l.39-1.13a11,11,0,0,0,1.17.12l0,1.18a.39.39,0,0,0,.42.36h.72a.39.39,0,0,0,.42-.36v-1.18a10.84,10.84,0,0,0,1.16-.12l.39,1.13a.45.45,0,0,0,.52.26l.69-.17a.33.33,0,0,0,.27-.43l-.4-1.12c.36-.12.72-.24,1.06-.38l.75,1a.47.47,0,0,0,.57.12l.59-.3a.3.3,0,0,0,.11-.47l-.76-1c.31-.18.59-.38.87-.58l1,.78a.47.47,0,0,0,.57,0l.44-.41a.3.3,0,0,0,0-.47l-1-.77a5.82,5.82,0,0,0,.61-.72l1.2.53a.44.44,0,0,0,.53-.11l.27-.48a.31.31,0,0,0-.2-.43l-1.19-.52a7.22,7.22,0,0,0,.33-.81l1.26.26c.22,0,.41-.05.44-.21l.1-.5c0-.16-.11-.32-.32-.36l-1.26-.26a4.46,4.46,0,0,0,0-.82h1.24c.2,0,.35-.13.33-.29l-.08-.48a.39.39,0,0,0-.41-.28h-1.22c-.07-.27-.14-.53-.23-.78l1.12-.24c.19,0,.28-.18.21-.33l-.23-.44a.44.44,0,0,0-.46-.18l-1.12.22a6.45,6.45,0,0,0-.47-.69l.95-.42a.21.21,0,0,0,.09-.35l-.35-.38a.48.48,0,0,0-.49-.09l-.95.42c-.22-.2-.44-.39-.68-.57l.76-.58c.12-.09.1-.25,0-.34l-.44-.29a.42.42,0,0,0-.48,0l-.75.57a9.16,9.16,0,0,0-.82-.43l.52-.68c.08-.12,0-.26-.15-.33l-.52-.2a.41.41,0,0,0-.45.09l-.53.68c-.29-.1-.6-.19-.91-.27l.26-.74c0-.13-.07-.25-.25-.28l-.55-.1c-.18,0-.37,0-.4.16l-.27.74c-.32,0-.64-.07-1-.08v-.77c0-.13-.15-.23-.34-.23h-.56c-.19,0-.34.1-.34.23v.77c-.32,0-.64,0-1,.08l-.26-.74a.36.36,0,0,0-.4-.16l-.56.1c-.18,0-.29.15-.25.28l.26.74c-.31.08-.61.17-.91.27l-.52-.68a.43.43,0,0,0-.46-.09l-.51.2c-.17.07-.23.21-.15.33l.51.68a9.16,9.16,0,0,0-.82.43l-.75-.57a.42.42,0,0,0-.48,0l-.44.29a.2.2,0,0,0,0,.34l.75.58c-.24.18-.46.37-.68.57l-1-.42a.46.46,0,0,0-.48.09l-.36.38a.21.21,0,0,0,.09.35l1,.42a6.45,6.45,0,0,0-.47.69l-1.12-.22a.45.45,0,0,0-.46.18l-.23.44c-.07.15,0,.3.21.33l1.13.24a5,5,0,0,0-.23.78h-1.23a.39.39,0,0,0-.41.28l-.08.48C113.73,328.42,113.88,328.55,114.08,328.55Zm3.68-.53c.28-2.8,3.38-4.91,6.93-4.91s6.65,2.11,6.93,4.91c.3,3.05-2.79,5.71-6.93,5.71S117.46,331.07,117.76,328Z" />
      <path class="GUNDAN_OWL_OUTFIT_GUNDAN_OWL_OUTFIT_33_cls-7" d="M318.45,325.15l1,.42a7,7,0,0,0-.47.69l-1.13-.22a.43.43,0,0,0-.46.19l-.22.44c-.08.14,0,.29.21.33l1.12.23a6.41,6.41,0,0,0-.23.78H317a.41.41,0,0,0-.42.28l-.07.48c0,.16.12.29.33.29h1.24a5.57,5.57,0,0,0,0,.82l-1.25.26c-.21,0-.35.21-.32.36l.09.5c0,.16.23.25.44.22l1.27-.27a5.68,5.68,0,0,0,.32.81l-1.18.52a.31.31,0,0,0-.2.43l.27.48a.44.44,0,0,0,.53.11l1.2-.53a5.13,5.13,0,0,0,.61.73l-1,.77a.29.29,0,0,0,0,.46l.44.41a.47.47,0,0,0,.57,0l1-.78a8.77,8.77,0,0,0,.87.58l-.75,1a.3.3,0,0,0,.11.47l.59.3a.46.46,0,0,0,.57-.12l.74-1c.35.14.71.27,1.07.38l-.4,1.12a.33.33,0,0,0,.27.44l.68.16a.44.44,0,0,0,.52-.26l.39-1.13c.38.06.77.1,1.17.13v1.17a.4.4,0,0,0,.41.37h.72a.4.4,0,0,0,.42-.37v-1.17c.4,0,.78-.07,1.17-.13l.38,1.13a.44.44,0,0,0,.52.26l.69-.16a.35.35,0,0,0,.28-.44l-.41-1.12a11,11,0,0,0,1.06-.38l.74,1a.46.46,0,0,0,.57.12l.6-.3a.3.3,0,0,0,.11-.47l-.75-1a8.62,8.62,0,0,0,.86-.58l1,.78a.48.48,0,0,0,.58,0l.45-.41a.28.28,0,0,0-.06-.46l-1-.77c.21-.24.42-.47.61-.73l1.2.53a.41.41,0,0,0,.51-.11l.28-.48a.32.32,0,0,0-.2-.43l-1.18-.52a5.68,5.68,0,0,0,.32-.81l1.27.27c.21,0,.4-.06.43-.22l.1-.5c0-.15-.12-.32-.32-.36l-1.25-.26a5.57,5.57,0,0,0,0-.82h1.24c.21,0,.35-.13.33-.29l-.07-.48a.41.41,0,0,0-.41-.28h-1.23a5,5,0,0,0-.24-.78l1.14-.23c.18,0,.28-.19.2-.33l-.22-.44a.45.45,0,0,0-.47-.19l-1.12.22c-.14-.23-.3-.46-.47-.69l1-.42a.21.21,0,0,0,.09-.35l-.36-.38a.48.48,0,0,0-.49-.09l-1,.43a6,6,0,0,0-.66-.57l.75-.59a.2.2,0,0,0,0-.34l-.45-.29a.46.46,0,0,0-.48,0l-.75.57a7.82,7.82,0,0,0-.81-.43l.5-.68c.09-.12,0-.26-.15-.32l-.51-.2a.4.4,0,0,0-.45.08l-.52.68a9.46,9.46,0,0,0-.91-.26l.25-.75c0-.12-.07-.25-.25-.28l-.55-.1a.38.38,0,0,0-.41.16l-.26.74c-.32,0-.64-.07-1-.08v-.77c0-.12-.15-.22-.34-.22h-.57c-.18,0-.33.1-.33.22v.77c-.33,0-.65,0-1,.08l-.27-.74a.37.37,0,0,0-.4-.16l-.56.1c-.18,0-.29.16-.24.28l.25.75a8.7,8.7,0,0,0-.91.26l-.52-.68a.4.4,0,0,0-.45-.08l-.52.2c-.17.06-.23.2-.15.32l.52.68a8,8,0,0,0-.82.43L321,323a.46.46,0,0,0-.48,0l-.44.29c-.15.09-.17.25-.05.34l.76.59a7.21,7.21,0,0,0-.67.57l-1-.43a.48.48,0,0,0-.49.09l-.34.38A.2.2,0,0,0,318.45,325.15Zm2.07,3.38c.28-2.8,3.37-4.91,6.94-4.91s6.65,2.11,6.93,4.91c.3,3.05-2.8,5.71-6.93,5.71S320.22,331.58,320.52,328.53Z" />
      <path class="GUNDAN_OWL_OUTFIT_GUNDAN_OWL_OUTFIT_33_cls-7" d="M355.56,323.78a20.21,20.21,0,0,0-10,9.6c-.86,1.89-1.33,3.89-2.13,5.8-1.13,2.69-3,5.33-6.78,6.17a10.7,10.7,0,0,1-6.14-.56c-8.21-3.29-16.18-7.13-22.68-12.29-2.88-2.29-3.82-5.83-2.19-8.83a21.83,21.83,0,0,1,5.43-6.51,27,27,0,0,1,6.93-4c-1.21-.5-2.42-1-3.64-1.47a31.93,31.93,0,0,0-6.88,4.07,25.57,25.57,0,0,0-6.65,7.67c-2,3.54-.86,7.7,2.67,10.39,8,6.08,17.71,10.61,27.75,14.47a13.46,13.46,0,0,0,7.52.66c4.59-1,6.92-4.08,8.3-7.27,1-2.24,1.56-4.59,2.6-6.82a23.35,23.35,0,0,1,9.41-9.84C357.92,324.54,356.75,324.13,355.56,323.78Z" />
      <path class="GUNDAN_OWL_OUTFIT_GUNDAN_OWL_OUTFIT_33_cls-7" d="M144.68,315.23a32.45,32.45,0,0,0-6.89-4.08l-3.64,1.47a27.16,27.16,0,0,1,6.94,4,21.9,21.9,0,0,1,5.43,6.52c1.63,3,.69,6.54-2.19,8.83-6.51,5.16-14.47,9-22.68,12.29a10.62,10.62,0,0,1-6.14.55c-3.75-.83-5.66-3.47-6.78-6.16-.8-1.91-1.27-3.91-2.13-5.8a20.21,20.21,0,0,0-10-9.6c-1.19.35-2.36.76-3.51,1.22a23.35,23.35,0,0,1,9.41,9.84c1,2.23,1.62,4.57,2.6,6.82,1.38,3.18,3.71,6.29,8.3,7.26a13.38,13.38,0,0,0,7.52-.65c10-3.87,19.78-8.39,27.74-14.47,3.53-2.69,4.69-6.85,2.68-10.39A25.85,25.85,0,0,0,144.68,315.23Z" />
      <path class="GUNDAN_OWL_OUTFIT_GUNDAN_OWL_OUTFIT_33_cls-5" d="M327.46,323.62c-3.57,0-6.66,2.11-6.94,4.91-.3,3.05,2.8,5.71,6.94,5.71s7.23-2.66,6.93-5.71C334.11,325.73,331,323.62,327.46,323.62Z" />
      <path class="GUNDAN_OWL_OUTFIT_GUNDAN_OWL_OUTFIT_33_cls-5" d="M124.69,323.11c-3.55,0-6.65,2.11-6.93,4.91-.3,3.05,2.79,5.71,6.93,5.71s7.23-2.66,6.93-5.71C131.34,325.22,128.25,323.11,124.69,323.11Z" />
      <path class="GUNDAN_OWL_OUTFIT_GUNDAN_OWL_OUTFIT_33_cls-5" d="M354,323.31c-4.86-1.32-9.91-2-14.87-3.06-7.42-1.54-14.25-4.32-21.1-7.11a27,27,0,0,0-6.93,4,21.83,21.83,0,0,0-5.43,6.51c-1.63,3-.69,6.54,2.19,8.83,6.5,5.16,14.47,9,22.68,12.29a10.7,10.7,0,0,0,6.14.56c3.74-.84,5.65-3.48,6.78-6.17.8-1.91,1.27-3.91,2.13-5.8a20.21,20.21,0,0,1,10-9.6C355,323.61,354.5,323.45,354,323.31ZM334,334.36a8.62,8.62,0,0,1-.86.58l.75,1a.3.3,0,0,1-.11.47l-.6.3a.46.46,0,0,1-.57-.12l-.74-1a11,11,0,0,1-1.06.38l.41,1.12a.35.35,0,0,1-.28.44l-.69.16a.44.44,0,0,1-.52-.26l-.38-1.13c-.39.06-.77.1-1.17.13v1.17a.4.4,0,0,1-.42.37h-.72a.4.4,0,0,1-.41-.37v-1.17c-.4,0-.79-.07-1.17-.13l-.39,1.13a.44.44,0,0,1-.52.26l-.68-.16a.33.33,0,0,1-.27-.44l.4-1.12c-.36-.11-.72-.24-1.07-.38l-.74,1a.46.46,0,0,1-.57.12l-.59-.3a.3.3,0,0,1-.11-.47l.75-1a8.77,8.77,0,0,1-.87-.58l-1,.78a.47.47,0,0,1-.57,0l-.44-.41a.29.29,0,0,1,0-.46l1-.77a5.13,5.13,0,0,1-.61-.73l-1.2.53a.44.44,0,0,1-.53-.11l-.27-.48a.31.31,0,0,1,.2-.43l1.18-.52a5.68,5.68,0,0,1-.32-.81l-1.27.27c-.21,0-.41-.06-.44-.22l-.09-.5c0-.15.11-.32.32-.36l1.25-.26a5.57,5.57,0,0,1,0-.82h-1.24c-.21,0-.36-.13-.33-.29l.07-.48A.41.41,0,0,1,317,328h1.22a6.41,6.41,0,0,1,.23-.78l-1.12-.23c-.19,0-.29-.19-.21-.33l.22-.44a.43.43,0,0,1,.46-.19l1.13.22a7,7,0,0,1,.47-.69l-1-.42a.2.2,0,0,1-.08-.35l.34-.38a.48.48,0,0,1,.49-.09l1,.43a7.21,7.21,0,0,1,.67-.57l-.76-.59c-.12-.09-.1-.25.05-.34l.44-.29a.46.46,0,0,1,.48,0l.76.57a8,8,0,0,1,.82-.43l-.52-.68c-.08-.12,0-.26.15-.32l.52-.2a.4.4,0,0,1,.45.08l.52.68a8.7,8.7,0,0,1,.91-.26l-.25-.75c0-.12.06-.25.24-.28l.56-.1a.37.37,0,0,1,.4.16l.27.74c.31,0,.63-.07,1-.08v-.77c0-.12.15-.22.33-.22h.57c.19,0,.33.1.34.22v.77c.32,0,.64,0,1,.08l.26-.74a.38.38,0,0,1,.41-.16l.55.1c.18,0,.29.16.25.28l-.25.75a9.46,9.46,0,0,1,.91.26l.52-.68a.4.4,0,0,1,.45-.08l.51.2c.17.06.24.2.15.32l-.5.68a7.82,7.82,0,0,1,.81.43l.75-.57a.46.46,0,0,1,.48,0l.45.29a.2.2,0,0,1,0,.34l-.75.59a6,6,0,0,1,.66.57l1-.43a.48.48,0,0,1,.49.09l.36.38a.21.21,0,0,1-.09.35l-1,.42c.17.23.33.46.47.69l1.12-.22a.45.45,0,0,1,.47.19l.22.44c.08.14,0,.29-.2.33l-1.14.23a5,5,0,0,1,.24.78h1.23a.41.41,0,0,1,.41.28l.07.48c0,.16-.12.29-.33.29h-1.24a5.57,5.57,0,0,1,0,.82l1.25.26c.2,0,.35.21.32.36l-.1.5c0,.16-.22.25-.43.22l-1.27-.27a5.68,5.68,0,0,1-.32.81l1.18.52a.32.32,0,0,1,.2.43l-.28.48a.41.41,0,0,1-.51.11l-1.2-.53c-.19.26-.4.49-.61.73l1,.77a.28.28,0,0,1,.06.46l-.45.41a.48.48,0,0,1-.58,0Z" />
      <path class="GUNDAN_OWL_OUTFIT_GUNDAN_OWL_OUTFIT_33_cls-5" d="M141.09,316.64a27.16,27.16,0,0,0-6.94-4c-6.84,2.8-13.67,5.58-21.09,7.12-5,1-10,1.74-14.88,3.06-.53.14-1.07.3-1.59.47a20.21,20.21,0,0,1,10,9.6c.86,1.89,1.33,3.89,2.13,5.8,1.12,2.69,3,5.33,6.78,6.16a10.62,10.62,0,0,0,6.14-.55c8.21-3.29,16.17-7.13,22.68-12.29,2.88-2.29,3.82-5.83,2.19-8.83A21.9,21.9,0,0,0,141.09,316.64Zm-5.81,13c.21,0,.35.2.32.36l-.1.5c0,.16-.22.25-.44.21l-1.26-.26a7.22,7.22,0,0,1-.33.81l1.19.52a.31.31,0,0,1,.2.43l-.27.48a.44.44,0,0,1-.53.11l-1.2-.53a5.82,5.82,0,0,1-.61.72l1,.77a.3.3,0,0,1,0,.47l-.44.41a.47.47,0,0,1-.57,0l-1-.78c-.28.2-.56.4-.87.58l.76,1a.3.3,0,0,1-.11.47l-.59.3a.47.47,0,0,1-.57-.12l-.75-1c-.34.14-.7.26-1.06.38l.4,1.12a.33.33,0,0,1-.27.43l-.69.17a.45.45,0,0,1-.52-.26l-.39-1.13a10.84,10.84,0,0,1-1.16.12v1.18a.39.39,0,0,1-.42.36h-.72a.39.39,0,0,1-.42-.36l0-1.18a11,11,0,0,1-1.17-.12l-.39,1.13a.45.45,0,0,1-.52.26l-.69-.17a.34.34,0,0,1-.27-.43l.4-1.12c-.36-.12-.72-.24-1.06-.38l-.74,1a.47.47,0,0,1-.57.12l-.59-.3a.29.29,0,0,1-.11-.47l.75-1c-.3-.18-.59-.38-.86-.58l-1,.78a.48.48,0,0,1-.58,0l-.44-.41a.29.29,0,0,1,.06-.47l1-.77a8.29,8.29,0,0,1-.61-.72l-1.2.53a.44.44,0,0,1-.53-.11l-.27-.48a.32.32,0,0,1,.21-.43l1.18-.52a7.22,7.22,0,0,1-.33-.81l-1.26.26a.35.35,0,0,1-.44-.21l-.1-.5c0-.16.11-.32.33-.36l1.25-.26a5.57,5.57,0,0,1,0-.82h-1.25c-.2,0-.35-.13-.33-.29l.08-.48a.39.39,0,0,1,.41-.28h1.23a5,5,0,0,1,.23-.78l-1.13-.24c-.19,0-.28-.18-.21-.33l.23-.44a.45.45,0,0,1,.46-.18l1.12.22a6.45,6.45,0,0,1,.47-.69l-1-.42a.21.21,0,0,1-.09-.35l.36-.38a.46.46,0,0,1,.48-.09l1,.42c.22-.2.44-.39.68-.57l-.75-.58a.2.2,0,0,1,0-.34l.44-.29a.42.42,0,0,1,.48,0l.75.57a9.16,9.16,0,0,1,.82-.43l-.51-.68c-.08-.12,0-.26.15-.33l.51-.2a.43.43,0,0,1,.46.09l.52.68c.3-.1.6-.19.91-.27l-.26-.74c0-.13.07-.25.25-.28l.56-.1a.36.36,0,0,1,.4.16l.26.74c.32,0,.64-.07,1-.08v-.77c0-.13.15-.23.34-.23H125c.19,0,.34.1.34.23v.77c.32,0,.64,0,1,.08l.27-.74c0-.12.22-.19.4-.16l.55.1c.18,0,.29.15.25.28l-.26.74c.31.08.62.17.91.27l.53-.68a.41.41,0,0,1,.45-.09l.52.2c.16.07.23.21.15.33l-.52.68a9.16,9.16,0,0,1,.82.43l.75-.57a.42.42,0,0,1,.48,0l.44.29c.15.09.17.25,0,.34l-.76.58c.24.18.46.37.68.57l.95-.42a.48.48,0,0,1,.49.09l.35.38a.21.21,0,0,1-.09.35l-.95.42a6.45,6.45,0,0,1,.47.69l1.12-.22a.44.44,0,0,1,.46.18l.23.44c.07.15,0,.3-.21.33l-1.12.24c.09.25.16.51.23.78h1.22a.39.39,0,0,1,.41.28l.08.48c0,.16-.13.29-.33.29h-1.24a4.46,4.46,0,0,1,0,.82Z" />
      <path class="GUNDAN_OWL_OUTFIT_GUNDAN_OWL_OUTFIT_33_cls-8" d="M156,298.25c-1.62,1.31-4.8,2.2-6.42,3.51" />
      <path class="GUNDAN_OWL_OUTFIT_GUNDAN_OWL_OUTFIT_33_cls-8" d="M150.52,440.73C164.4,420.3,173.34,397.4,176,374.1" />
      <path class="GUNDAN_OWL_OUTFIT_GUNDAN_OWL_OUTFIT_33_cls-8" d="M159.24,349.33a31.53,31.53,0,0,0-4.92,2.94c-1.59,1.34,2.87,6.64,1.77,8.28a10.88,10.88,0,0,1-4.42,4.18,11.8,11.8,0,0,1-3.11.84c-2.35.37-4.86.44-6.81,1.54a11.09,11.09,0,0,0-2.49,2.12c-.46.46-.91.93-1.4,1.36l-.1.09a12.16,12.16,0,0,1-7.88,2.72,8.62,8.62,0,0,1-1.83-.2,5.22,5.22,0,0,0-4.05,1.19c-.21.16-.42.33-.62.51-1.21,1.07-2.26,2.35-3.89,3a12.13,12.13,0,0,1-5.44.18c-1.83-.21-3.81-.34-5.39.44a3.88,3.88,0,0,0-.57.33c-1.26.85-2.07,2.16-3.45,2.9a7.08,7.08,0,0,1-4.24.6,1.94,1.94,0,0,1-.42-.07c-1.29-.23-2.53-.73-3.84-.85a7.63,7.63,0,0,0-3.68.56c-.28.12-.55.26-.81.4-.73.43-1.34,1-2.11,1.36s-1.84.77-2.53.31a11.27,11.27,0,0,0-3.7-1.59,9,9,0,0,0-4.77.13,2.41,2.41,0,0,1-2.63-.75,1.53,1.53,0,0,1,.57-2.24c2.35-1.14,3.78-3.2,5.09-5.16s3-4,4.61-5.93c.83-1,1.65-2.1,2.38-3.2-1.92-5.45-9.29-14.53-9.49-20.21s1.52-11.6,6.12-15.84a26,26,0,0,1,7.89-4.74c1.15-.46,2.32-.87,3.51-1.22.52-.17,1.06-.33,1.59-.47,4.86-1.32,9.92-2,14.88-3.06,7.42-1.54,14.25-4.32,21.09-7.12l3.64-1.47c.79-.32,1.59-.64,2.39-.94s1.94-.66,2.92-1c1.81-.61,2-5.24,2.88-6.63.61-1,2.28-1.24,3.56-.84l.26.1a7.38,7.38,0,0,1,2.94,2.58c2.3,3,5.88,10.07,7.73,13.29,5.55,9.59,14.49,23.53,15.76,34.11" />
      <path class="GUNDAN_OWL_OUTFIT_GUNDAN_OWL_OUTFIT_33_cls-8" d="M176.6,355.79c.13,1.74.18,3.47.17,5.21" />
      <path class="GUNDAN_OWL_OUTFIT_GUNDAN_OWL_OUTFIT_33_cls-8" d="M143.1,309.23c6.77,5,7.68,1.49,14.27,19.18a52.9,52.9,0,0,1,3,13.28" />
      <path class="GUNDAN_OWL_OUTFIT_GUNDAN_OWL_OUTFIT_33_cls-8" d="M134.27,440.73c16.75-19.23,26-42,29.81-65.55" />
      <path class="GUNDAN_OWL_OUTFIT_GUNDAN_OWL_OUTFIT_33_cls-8" d="M160.56,353.23h0l0,.5" />
      <path class="GUNDAN_OWL_OUTFIT_GUNDAN_OWL_OUTFIT_33_cls-8" d="M88.56,365.28c20.46,9.59,57.28-14.51,69.66-21" />
      <path class="GUNDAN_OWL_OUTFIT_GUNDAN_OWL_OUTFIT_33_cls-8" d="M134.15,312.62a27.16,27.16,0,0,1,6.94,4,21.9,21.9,0,0,1,5.43,6.52c1.63,3,.69,6.54-2.19,8.83-6.51,5.16-14.47,9-22.68,12.29a10.62,10.62,0,0,1-6.14.55c-3.75-.83-5.66-3.47-6.78-6.16-.8-1.91-1.27-3.91-2.13-5.8a20.21,20.21,0,0,0-10-9.6" />
      <path class="GUNDAN_OWL_OUTFIT_GUNDAN_OWL_OUTFIT_33_cls-8" d="M137.79,311.15a32.45,32.45,0,0,1,6.89,4.08,25.85,25.85,0,0,1,6.65,7.67c2,3.54.85,7.7-2.68,10.39-8,6.08-17.7,10.6-27.74,14.47a13.38,13.38,0,0,1-7.52.65c-4.59-1-6.92-4.08-8.3-7.26-1-2.25-1.56-4.59-2.6-6.82a23.35,23.35,0,0,0-9.41-9.84" />
      <path class="GUNDAN_OWL_OUTFIT_GUNDAN_OWL_OUTFIT_33_cls-8" d="M83.31,382.43c-7.39,18.79-12.23,38.56-12,58.3H379.87" />
      <path class="GUNDAN_OWL_OUTFIT_GUNDAN_OWL_OUTFIT_33_cls-8" d="M107.57,440.73q4.86-6.19,9-12.72c1.16-1.84,2.29-3.71,3.37-5.59a141.44,141.44,0,0,0,17.93-51.83" />
      <path class="GUNDAN_OWL_OUTFIT_GUNDAN_OWL_OUTFIT_33_cls-8" d="M98.58,440.73A151.78,151.78,0,0,0,111,423.37c1.27-2.06,2.49-4.16,3.64-6.27a135.89,135.89,0,0,0,15.22-43.7" />
      <path class="GUNDAN_OWL_OUTFIT_GUNDAN_OWL_OUTFIT_33_cls-8" d="M108,408c-.58-1-1.12-1.93-1.64-2.91" />
      <path class="GUNDAN_OWL_OUTFIT_GUNDAN_OWL_OUTFIT_33_cls-8" d="M101,410.39c-.72-1.2-1.38-2.41-2-3.64" />
      <path class="GUNDAN_OWL_OUTFIT_GUNDAN_OWL_OUTFIT_33_cls-8" d="M111,423.37a69.1,69.1,0,0,1-8.77-10.91" />
      <path class="GUNDAN_OWL_OUTFIT_GUNDAN_OWL_OUTFIT_33_cls-8" d="M114.66,417.1a61.49,61.49,0,0,1-5.36-7" />
      <path class="GUNDAN_OWL_OUTFIT_GUNDAN_OWL_OUTFIT_33_cls-8" d="M100,382.24a53.6,53.6,0,0,0,4.6,19.19" />
      <path class="GUNDAN_OWL_OUTFIT_GUNDAN_OWL_OUTFIT_33_cls-8" d="M97.22,403A57.68,57.68,0,0,1,92.46,382" />
      <path class="GUNDAN_OWL_OUTFIT_GUNDAN_OWL_OUTFIT_33_cls-8" d="M165.69,344.73a1.23,1.23,0,0,0,0-.27c0-1.7-1.68-3.08-3.75-3.08a4.38,4.38,0,0,0-1.63.31,3.14,3.14,0,0,0-2.11,2.6,1,1,0,0,0,0,.17,2.66,2.66,0,0,0,.56,1.61,3.55,3.55,0,0,0,1.11.95,4.42,4.42,0,0,0,2.08.52h.22a3.91,3.91,0,0,0,1.15-.22.33.33,0,0,0,.14,0" />
      <ellipse class="GUNDAN_OWL_OUTFIT_GUNDAN_OWL_OUTFIT_33_cls-8" cx="103.88" cy="324.46" rx="2.16" ry="1.05" />
      <path class="GUNDAN_OWL_OUTFIT_GUNDAN_OWL_OUTFIT_33_cls-8" d="M136.1,316.18c0,.59-1,1.06-2.16,1.06s-2.16-.47-2.16-1.06,1-1.05,2.16-1.05S136.1,315.6,136.1,316.18Z" />
      <path class="GUNDAN_OWL_OUTFIT_GUNDAN_OWL_OUTFIT_33_cls-8" d="M117.62,341.31a2.18,2.18,0,1,1-2.13-1.75A2,2,0,0,1,117.62,341.31Z" />
      <path class="GUNDAN_OWL_OUTFIT_GUNDAN_OWL_OUTFIT_33_cls-8" d="M145.66,327.26a2.17,2.17,0,1,1-2.13-1.75A2,2,0,0,1,145.66,327.26Z" />
      <path class="GUNDAN_OWL_OUTFIT_GUNDAN_OWL_OUTFIT_33_cls-8" d="M140.07,354.93c6.42-2.67,12.67-5.62,18.7-8.86" />
      <path class="GUNDAN_OWL_OUTFIT_GUNDAN_OWL_OUTFIT_33_cls-8" d="M136.91,361.84h0c1.86-.68-1.73-4.94.09-5.67" />
      <path class="GUNDAN_OWL_OUTFIT_GUNDAN_OWL_OUTFIT_33_cls-8" d="M133.08,363.19l2-.69h0" />
      <path class="GUNDAN_OWL_OUTFIT_GUNDAN_OWL_OUTFIT_33_cls-8" d="M122.6,366.51c1.87-.54,3.74-1.11,5.59-1.69" />
      <path class="GUNDAN_OWL_OUTFIT_GUNDAN_OWL_OUTFIT_33_cls-8" d="M104.06,370.52a75.64,75.64,0,0,0,10.24-1.79" />
      <path class="GUNDAN_OWL_OUTFIT_GUNDAN_OWL_OUTFIT_33_cls-8" d="M92.71,370.26a40.43,40.43,0,0,0,5,.49c.8,0,1.59,0,2.38,0" />
      <path class="GUNDAN_OWL_OUTFIT_GUNDAN_OWL_OUTFIT_33_cls-8" d="M86.18,368.48c.71.28,1.43.54,2.18.77" />
      <path class="GUNDAN_OWL_OUTFIT_GUNDAN_OWL_OUTFIT_33_cls-8" d="M92.71,370.26a6.85,6.85,0,0,0-3,1.4,4.68,4.68,0,0,0-1.83,3.17,2.48,2.48,0,0,0,.4,1.62,2.85,2.85,0,0,0,1.56,1,4.55,4.55,0,0,0,4.14-1,.54.54,0,0,1,.66,0,.33.33,0,0,1,.06.51,5.5,5.5,0,0,1-2.24,1.52,5.93,5.93,0,0,1-3,.28,4.88,4.88,0,0,1-2.74-1.37,4.07,4.07,0,0,1-1.09-2.49,6.38,6.38,0,0,1,1.87-4.78,7.4,7.4,0,0,1,.92-.84A33.12,33.12,0,0,0,92.71,370.26Z" />
      <path class="GUNDAN_OWL_OUTFIT_GUNDAN_OWL_OUTFIT_33_cls-8" d="M104.06,370.52a7.77,7.77,0,0,0-.74.54,4.71,4.71,0,0,0-1.84,3.16,2.46,2.46,0,0,0,.41,1.62,2.87,2.87,0,0,0,1.55,1,4.58,4.58,0,0,0,4.15-1,.54.54,0,0,1,.66,0,.34.34,0,0,1,.06.51,5.57,5.57,0,0,1-2.24,1.52,4,4,0,0,1-.49.16,5.86,5.86,0,0,1-2.54.12,4.88,4.88,0,0,1-2.75-1.37,4.19,4.19,0,0,1-1.09-2.49,5.76,5.76,0,0,1,.91-3.5C101.44,370.73,102.75,370.66,104.06,370.52Z" />
      <path class="GUNDAN_OWL_OUTFIT_GUNDAN_OWL_OUTFIT_33_cls-8" d="M122.6,366.51a1.87,1.87,0,0,1-.86.41,1.75,1.75,0,0,1-.24,0,7,7,0,0,0-3.69,1.51,4.71,4.71,0,0,0-1.84,3.17,2.44,2.44,0,0,0,.41,1.61,2.81,2.81,0,0,0,1.56,1,4.54,4.54,0,0,0,4.14-1,.54.54,0,0,1,.66,0,.33.33,0,0,1,.06.51,5,5,0,0,1-.46.46,5.59,5.59,0,0,1-1.78,1.05,5.87,5.87,0,0,1-3,.29,5,5,0,0,1-2.74-1.37,4.12,4.12,0,0,1-1.08-2.5,5.46,5.46,0,0,1,.6-2.93c1.5-.35,3-.74,4.46-1.14C120.05,367.24,121.32,366.88,122.6,366.51Z" />
      <path class="GUNDAN_OWL_OUTFIT_GUNDAN_OWL_OUTFIT_33_cls-8" d="M136.91,361.84c-.61.22-1.23.45-1.85.65" />
      <path class="GUNDAN_OWL_OUTFIT_GUNDAN_OWL_OUTFIT_33_cls-8" d="M137,369.18a5.64,5.64,0,0,1-2.26,1.52,5.9,5.9,0,0,1-3,.29,5,5,0,0,1-2.74-1.37,4,4,0,0,1-1.09-2.5,5.32,5.32,0,0,1,.32-2.3q2.46-.78,4.89-1.63a5.39,5.39,0,0,0-1.1.73,4.64,4.64,0,0,0-1.83,3.16,2.44,2.44,0,0,0,.39,1.62,2.85,2.85,0,0,0,1.56,1,4.54,4.54,0,0,0,4.14-1,.55.55,0,0,1,.67,0A.33.33,0,0,1,137,369.18Z" />
      <path class="GUNDAN_OWL_OUTFIT_GUNDAN_OWL_OUTFIT_33_cls-8" d="M140.07,354.93c-.45.63,4.69,4.89,4.64,5.61a2.44,2.44,0,0,0,.41,1.61,2.82,2.82,0,0,0,1.55,1,4.55,4.55,0,0,0,4.14-1,.57.57,0,0,1,.67,0,.35.35,0,0,1,.06.52,5.67,5.67,0,0,1-2.24,1.52,7.3,7.3,0,0,1-1,.27,6.07,6.07,0,0,1-2,0,5,5,0,0,1-2.74-1.38,4.14,4.14,0,0,1-1.09-2.49c0-.29-5.44-4.13-5.42-4.41Q138.56,355.56,140.07,354.93Z" />
      <path class="GUNDAN_OWL_OUTFIT_GUNDAN_OWL_OUTFIT_33_cls-8" d="M160.88,353.38a36.3,36.3,0,0,1,1.3-5.85" />
      <path class="GUNDAN_OWL_OUTFIT_GUNDAN_OWL_OUTFIT_33_cls-8" d="M159.88,347c-.21.68-.43,1.46-.64,2.31-.27,1.11-.51,2.36-.7,3.7" />
      <path class="GUNDAN_OWL_OUTFIT_GUNDAN_OWL_OUTFIT_33_cls-8" d="M157.12,375.12a4.78,4.78,0,0,1-1.4-.67,57.76,57.76,0,0,1,2.79-10.23c1.47-3.8-2.5-10.07-.63-11a3.46,3.46,0,0,1,.66-.23h0a3.11,3.11,0,0,1,1.18,0,3.21,3.21,0,0,1,.84.23s.06,0,.1,0a1.13,1.13,0,0,1,.22.11,2.29,2.29,0,0,1,1,2c.1,1.1,5.37,6.1,5.35,7.85-.08,3.89-1.39,9.76-.94,11.54-.42.11-1,.24-1.63.36l-.57.09c-.49.09-1.05.16-1.61.23a20.82,20.82,0,0,1-3,.1A10.57,10.57,0,0,1,157.12,375.12Z" />
      <path class="GUNDAN_OWL_OUTFIT_GUNDAN_OWL_OUTFIT_33_cls-8" d="M157.12,375.11s4.84-9.18.76-21.84" />
      <path class="GUNDAN_OWL_OUTFIT_GUNDAN_OWL_OUTFIT_33_cls-8" d="M159.51,375.51s1.92-13,.21-22.51" />
      <path class="GUNDAN_OWL_OUTFIT_GUNDAN_OWL_OUTFIT_33_cls-8" d="M160.66,353.27s0,.16-.13.46c-.67,2.37,1.71,17,1.94,21.67" />
      <path class="GUNDAN_OWL_OUTFIT_GUNDAN_OWL_OUTFIT_33_cls-8" d="M164.65,375.08s1.4-11.28-2.78-19.74" />
      <path class="GUNDAN_OWL_OUTFIT_GUNDAN_OWL_OUTFIT_33_cls-8" d="M164.28,352a34,34,0,0,0-.95-4.66" />
      <path class="GUNDAN_OWL_OUTFIT_GUNDAN_OWL_OUTFIT_33_cls-8" d="M166.63,351.62c-.12-.82-.26-1.6-.41-2.34" />
      <path class="GUNDAN_OWL_OUTFIT_GUNDAN_OWL_OUTFIT_33_cls-8" d="M178.9,373.7a4.42,4.42,0,0,0,1.4-.66,56.77,56.77,0,0,0-2.79-10.24c-.24-.63-.48-1.22-.74-1.79h0c-1.23-2.84-7.93-8.41-9.49-9.14a4.27,4.27,0,0,0-.65-.24,3.17,3.17,0,0,0-.69-.07,2.89,2.89,0,0,0-.5,0,3,3,0,0,0-.94.27,1.51,1.51,0,0,0-.22.11,2.29,2.29,0,0,0-1,2c-.11,1.09,5.47,6.1,5.51,7.86.07,3.87,1.39,9.75.94,11.52a16.64,16.64,0,0,0,1.63.37c.64.12,1.39.23,2.17.32a21.47,21.47,0,0,0,2.42.1,4.73,4.73,0,0,0,.53,0A9.13,9.13,0,0,0,178.9,373.7Z" />
      <path class="GUNDAN_OWL_OUTFIT_GUNDAN_OWL_OUTFIT_33_cls-8" d="M178.9,373.7s-.87-3.65-2.26-8.07h0c-1.06-3.37-7.85-10.76-9.36-13.76" />
      <path class="GUNDAN_OWL_OUTFIT_GUNDAN_OWL_OUTFIT_33_cls-8" d="M176.5,374.09s-.13-.55-.36-1.49h0c-.94-3.77-8.9-17.22-10.7-21" />
      <path class="GUNDAN_OWL_OUTFIT_GUNDAN_OWL_OUTFIT_33_cls-8" d="M164.5,351.86s9.32,16.89,9.05,22.13" />
      <path class="GUNDAN_OWL_OUTFIT_GUNDAN_OWL_OUTFIT_33_cls-8" d="M171.38,373.67s3-13.9-8.08-19.74" />
      <path class="GUNDAN_OWL_OUTFIT_GUNDAN_OWL_OUTFIT_33_cls-8" d="M106.92,411c.86-.29,1.66-.59,2.38-.87a11.75,11.75,0,0,0,2.24-1.08,1,1,0,0,0,.32-1.38c-2-3.29-4.59-5.41-7.28-6.19a8.47,8.47,0,0,0-5.44.2A4.25,4.25,0,0,0,97.22,403h0c-2.42,3,0,8.86.3,9.63a1.41,1.41,0,0,0,1.32.77,1.53,1.53,0,0,0,.47-.07c.5-.15,1.6-.46,2.94-.87l2-.65" />
      <path class="GUNDAN_OWL_OUTFIT_GUNDAN_OWL_OUTFIT_33_cls-8" d="M105.72,408.86c.88-.3,1.65-.57,2.29-.82l.73-.29a13.77,13.77,0,0,0-2.37-2.62,6.56,6.56,0,0,0-4.19-1.74,5.36,5.36,0,0,0-1.87.35c-1,.39-1.39,1.6-1.34,3a14.06,14.06,0,0,0,.78,4c.4-.12.81-.25,1.22-.36l2.15-.67" />
      <path class="GUNDAN_OWL_OUTFIT_GUNDAN_OWL_OUTFIT_33_cls-8" d="M106.92,411c.57,1,1.17,2,1.66,2.69a1.06,1.06,0,0,1-.52,1.58,1.69,1.69,0,0,1-.7.15,1.51,1.51,0,0,1-1.22-.59c-.56-.8-1.23-1.91-1.84-3-.45-.78-.87-1.52-1.18-2.09l-.56-1a1.08,1.08,0,0,1,.72-1.52,1.52,1.52,0,0,1,1.85.59s.25.44.59,1.08S106.47,410.19,106.92,411Z" />
      <path class="GUNDAN_OWL_OUTFIT_GUNDAN_OWL_OUTFIT_33_cls-8" d="M135.28,329.63l-1.26-.26a4.46,4.46,0,0,0,0-.82h1.24c.2,0,.35-.13.33-.29l-.08-.48a.39.39,0,0,0-.41-.28h-1.22c-.07-.27-.14-.53-.23-.78l1.12-.24c.19,0,.28-.18.21-.33l-.23-.44a.44.44,0,0,0-.46-.18l-1.12.22a6.45,6.45,0,0,0-.47-.69l.95-.42a.21.21,0,0,0,.09-.35l-.35-.38a.48.48,0,0,0-.49-.09l-.95.42c-.22-.2-.44-.39-.68-.57l.76-.58c.12-.09.1-.25,0-.34l-.44-.29a.42.42,0,0,0-.48,0l-.75.57a9.16,9.16,0,0,0-.82-.43l.52-.68c.08-.12,0-.26-.15-.33l-.52-.2a.41.41,0,0,0-.45.09l-.53.68c-.29-.1-.6-.19-.91-.27l.26-.74c0-.13-.07-.25-.25-.28l-.55-.1c-.18,0-.37,0-.4.16l-.27.74c-.32,0-.64-.07-1-.08v-.77c0-.13-.15-.23-.34-.23h-.56c-.19,0-.34.1-.34.23v.77c-.32,0-.64,0-1,.08l-.26-.74a.36.36,0,0,0-.4-.16l-.56.1c-.18,0-.29.15-.25.28l.26.74c-.31.08-.61.17-.91.27l-.52-.68a.43.43,0,0,0-.46-.09l-.51.2c-.17.07-.23.21-.15.33l.51.68a9.16,9.16,0,0,0-.82.43l-.75-.57a.42.42,0,0,0-.48,0l-.44.29a.2.2,0,0,0,0,.34l.75.58c-.24.18-.46.37-.68.57l-1-.42a.46.46,0,0,0-.48.09l-.36.38a.21.21,0,0,0,.09.35l1,.42a6.45,6.45,0,0,0-.47.69l-1.12-.22a.45.45,0,0,0-.46.18l-.23.44c-.07.15,0,.3.21.33l1.13.24a5,5,0,0,0-.23.78h-1.23a.39.39,0,0,0-.41.28l-.08.48c0,.16.13.29.33.29h1.25a5.57,5.57,0,0,0,0,.82l-1.25.26c-.22,0-.36.2-.33.36l.1.5a.35.35,0,0,0,.44.21l1.26-.26a7.22,7.22,0,0,0,.33.81l-1.18.52a.32.32,0,0,0-.21.43l.27.48a.44.44,0,0,0,.53.11l1.2-.53a8.29,8.29,0,0,0,.61.72l-1,.77a.29.29,0,0,0-.06.47l.44.41a.48.48,0,0,0,.58,0l1-.78c.27.2.56.4.86.58l-.75,1a.29.29,0,0,0,.11.47l.59.3a.47.47,0,0,0,.57-.12l.74-1c.34.14.7.26,1.06.38l-.4,1.12a.34.34,0,0,0,.27.43l.69.17a.45.45,0,0,0,.52-.26l.39-1.13a11,11,0,0,0,1.17.12l0,1.18a.39.39,0,0,0,.42.36h.72a.39.39,0,0,0,.42-.36v-1.18a10.84,10.84,0,0,0,1.16-.12l.39,1.13a.45.45,0,0,0,.52.26l.69-.17a.33.33,0,0,0,.27-.43l-.4-1.12c.36-.12.72-.24,1.06-.38l.75,1a.47.47,0,0,0,.57.12l.59-.3a.3.3,0,0,0,.11-.47l-.76-1c.31-.18.59-.38.87-.58l1,.78a.47.47,0,0,0,.57,0l.44-.41a.3.3,0,0,0,0-.47l-1-.77a5.82,5.82,0,0,0,.61-.72l1.2.53a.44.44,0,0,0,.53-.11l.27-.48a.31.31,0,0,0-.2-.43l-1.19-.52a7.22,7.22,0,0,0,.33-.81l1.26.26c.22,0,.41-.05.44-.21l.1-.5C135.63,329.83,135.49,329.67,135.28,329.63Z" />
      <path class="GUNDAN_OWL_OUTFIT_GUNDAN_OWL_OUTFIT_33_cls-8" d="M124.69,333.73c-4.14,0-7.23-2.66-6.93-5.71.28-2.8,3.38-4.91,6.93-4.91s6.65,2.11,6.93,4.91C131.92,331.07,128.83,333.73,124.69,333.73Z" />
      <path class="GUNDAN_OWL_OUTFIT_GUNDAN_OWL_OUTFIT_33_cls-8" d="M130.19,328c-.18-2.24-2.64-3.95-5.5-3.95s-5.32,1.71-5.49,3.95c-.18,2.39,2.26,4.45,5.49,4.45S130.37,330.41,130.19,328Z" />
      <path class="GUNDAN_OWL_OUTFIT_GUNDAN_OWL_OUTFIT_33_cls-8" d="M124.69,324.58c.61,0,1.11.36,1.12.81s-.5.82-1.12.82-1.12-.36-1.11-.82S124.08,324.58,124.69,324.58Z" />
      <path class="GUNDAN_OWL_OUTFIT_GUNDAN_OWL_OUTFIT_33_cls-8" d="M121.06,328.91c-.65,0-1.14-.4-1.11-.89a1.12,1.12,0,0,1,1.2-.87c.63,0,1.13.39,1.11.87A1.1,1.1,0,0,1,121.06,328.91Z" />
      <path class="GUNDAN_OWL_OUTFIT_GUNDAN_OWL_OUTFIT_33_cls-8" d="M124.69,331.83a1.08,1.08,0,0,1-1.2-1,1.24,1.24,0,0,1,2.4,0A1.08,1.08,0,0,1,124.69,331.83Z" />
      <path class="GUNDAN_OWL_OUTFIT_GUNDAN_OWL_OUTFIT_33_cls-8" d="M128.32,328.91a1.1,1.1,0,0,1-1.2-.89c0-.48.48-.87,1.12-.87a1.13,1.13,0,0,1,1.2.87C129.46,328.51,129,328.91,128.32,328.91Z" />
      <path class="GUNDAN_OWL_OUTFIT_GUNDAN_OWL_OUTFIT_33_cls-8" d="M302.46,305.87c-2.67-2.16-4.09-7.42-7-11.33" />
      <path class="GUNDAN_OWL_OUTFIT_GUNDAN_OWL_OUTFIT_33_cls-8" d="M276.42,374.1c2.63,23.3,11.57,46.2,25.45,66.63" />
      <path class="GUNDAN_OWL_OUTFIT_GUNDAN_OWL_OUTFIT_33_cls-8" d="M280.91,353.92c-.08,1.34-5.3,5.73-5.3,7.07" />
      <path class="GUNDAN_OWL_OUTFIT_GUNDAN_OWL_OUTFIT_33_cls-8" d="M281.24,349.71a79.19,79.19,0,0,1,8.5-27.93c2.31-4.47,6.38-9.12,9.53-13.23A7.28,7.28,0,0,1,302.2,306l.26-.1c1.28-.4,1.61.17,2.22,1.18.85,1.38,2.55,2.08,4.36,2.69,1,.32,2,.62,2.93,1s1.6.62,2.38.95c1.22.48,2.43,1,3.64,1.47,6.85,2.79,13.68,5.57,21.1,7.11,5,1,10,1.74,14.87,3.06.54.14,1.07.3,1.6.47,1.19.35,2.36.76,3.51,1.22a26.05,26.05,0,0,1,7.88,4.75c4.61,4.23,6.33,10.16,6.13,15.83s-7.33,14.25-9.25,19.7c.73,1.1,1.55,2.16,2.38,3.2,1.58,1.95,3.23,3.85,4.61,5.93s2.74,4,5.09,5.16a1.53,1.53,0,0,1,.57,2.24,2.42,2.42,0,0,1-2.63.75,9,9,0,0,0-4.77-.13,11.27,11.27,0,0,0-3.7,1.59c-.7.46-1.78.07-2.54-.31s-1.38-.93-2.11-1.36a8.52,8.52,0,0,0-.8-.4,7.63,7.63,0,0,0-3.68-.56c-1.31.12-2.55.62-3.85.85a2,2,0,0,1-.41.07,7.12,7.12,0,0,1-4.25-.6c-1.57-.84-2.4-2.43-4-3.23a5.13,5.13,0,0,0-1.1-.39,12.65,12.65,0,0,0-4.3,0,12.14,12.14,0,0,1-5.44-.18c-1.63-.61-2.68-1.89-3.89-3l-.4-.34a5.39,5.39,0,0,0-4.26-1.36,8.62,8.62,0,0,1-1.83.2,12.19,12.19,0,0,1-7.89-2.72l-.09-.09a10.11,10.11,0,0,1-.95-.9,13.49,13.49,0,0,0-2.94-2.58c-1.95-1.1-4.46-1.17-6.81-1.54a12,12,0,0,1-3.12-.84,10.86,10.86,0,0,1-4.41-4.18c-1.1-1.64,3.12-6.43,1.53-7.77a31.17,31.17,0,0,0-4.93-2.94" />
      <path class="GUNDAN_OWL_OUTFIT_GUNDAN_OWL_OUTFIT_33_cls-8" d="M291.81,342.2a52.48,52.48,0,0,1,3-13.28A42,42,0,0,1,309,309.74" />
      <path class="GUNDAN_OWL_OUTFIT_GUNDAN_OWL_OUTFIT_33_cls-8" d="M288.3,375.18c3.82,23.58,13.07,46.32,29.82,65.55" />
      <path class="GUNDAN_OWL_OUTFIT_GUNDAN_OWL_OUTFIT_33_cls-8" d="M291.62,354.24l0-.49h0" />
      <path class="GUNDAN_OWL_OUTFIT_GUNDAN_OWL_OUTFIT_33_cls-8" d="M293.92,344.81c12.39,6.47,49.44,30.06,69.91,20.47" />
      <path class="GUNDAN_OWL_OUTFIT_GUNDAN_OWL_OUTFIT_33_cls-8" d="M355.56,323.78a20.21,20.21,0,0,0-10,9.6c-.86,1.89-1.33,3.89-2.13,5.8-1.13,2.69-3,5.33-6.78,6.17a10.7,10.7,0,0,1-6.14-.56c-8.21-3.29-16.18-7.13-22.68-12.29-2.88-2.29-3.82-5.83-2.19-8.83a21.83,21.83,0,0,1,5.43-6.51,27,27,0,0,1,6.93-4" />
      <path class="GUNDAN_OWL_OUTFIT_GUNDAN_OWL_OUTFIT_33_cls-8" d="M359.07,325a23.35,23.35,0,0,0-9.41,9.84c-1,2.23-1.62,4.58-2.6,6.82-1.38,3.18-3.71,6.3-8.3,7.27a13.46,13.46,0,0,1-7.52-.66c-10-3.86-19.79-8.39-27.75-14.47-3.53-2.69-4.68-6.85-2.67-10.39a25.57,25.57,0,0,1,6.65-7.67,31.93,31.93,0,0,1,6.88-4.07" />
      <path class="GUNDAN_OWL_OUTFIT_GUNDAN_OWL_OUTFIT_33_cls-8" d="M369.08,382.43a154.1,154.1,0,0,1,10.79,58.3" />
      <path class="GUNDAN_OWL_OUTFIT_GUNDAN_OWL_OUTFIT_33_cls-8" d="M322.51,373.4a135.89,135.89,0,0,0,15.22,43.7c1.15,2.11,2.37,4.21,3.63,6.27a153.12,153.12,0,0,0,12.45,17.36" />
      <path class="GUNDAN_OWL_OUTFIT_GUNDAN_OWL_OUTFIT_33_cls-8" d="M314.53,370.59a141.61,141.61,0,0,0,17.92,51.83c1.08,1.88,2.22,3.75,3.38,5.59q4.14,6.53,9,12.72" />
      <path class="GUNDAN_OWL_OUTFIT_GUNDAN_OWL_OUTFIT_33_cls-8" d="M346,405.13c-.52,1-1.06,1.95-1.64,2.91" />
      <path class="GUNDAN_OWL_OUTFIT_GUNDAN_OWL_OUTFIT_33_cls-8" d="M353.42,406.75c-.62,1.23-1.29,2.44-2,3.64" />
      <path class="GUNDAN_OWL_OUTFIT_GUNDAN_OWL_OUTFIT_33_cls-8" d="M350.13,412.46a68.54,68.54,0,0,1-8.77,10.91" />
      <path class="GUNDAN_OWL_OUTFIT_GUNDAN_OWL_OUTFIT_33_cls-8" d="M343.09,410.08a62.67,62.67,0,0,1-5.36,7" />
      <path class="GUNDAN_OWL_OUTFIT_GUNDAN_OWL_OUTFIT_33_cls-8" d="M347.81,401.43a53.59,53.59,0,0,0,4.59-19.19" />
      <path class="GUNDAN_OWL_OUTFIT_GUNDAN_OWL_OUTFIT_33_cls-8" d="M359.93,382A57.68,57.68,0,0,1,355.17,403" />
      <path class="GUNDAN_OWL_OUTFIT_GUNDAN_OWL_OUTFIT_33_cls-8" d="M289.08,347.91a3.83,3.83,0,0,0,.89.13h.21a4.28,4.28,0,0,0,2.08-.52,3.56,3.56,0,0,0,1.12-.94,2.68,2.68,0,0,0,.55-1.61.91.91,0,0,0,0-.17,3.12,3.12,0,0,0-2.11-2.61,4.26,4.26,0,0,0-1.63-.3c-2.06,0-3.74,1.37-3.74,3.08a2.54,2.54,0,0,0,.09.68" />
      <ellipse class="GUNDAN_OWL_OUTFIT_GUNDAN_OWL_OUTFIT_33_cls-8" cx="348.27" cy="324.97" rx="2.16" ry="1.05" />
      <path class="GUNDAN_OWL_OUTFIT_GUNDAN_OWL_OUTFIT_33_cls-8" d="M316.05,316.69c0,.59,1,1.06,2.16,1.06s2.16-.47,2.16-1.06-1-1-2.16-1S316.05,316.12,316.05,316.69Z" />
      <path class="GUNDAN_OWL_OUTFIT_GUNDAN_OWL_OUTFIT_33_cls-8" d="M334.53,341.82a2.18,2.18,0,1,0,2.13-1.75A2,2,0,0,0,334.53,341.82Z" />
      <path class="GUNDAN_OWL_OUTFIT_GUNDAN_OWL_OUTFIT_33_cls-8" d="M306.48,327.77a2.17,2.17,0,1,0,2.13-1.74A2,2,0,0,0,306.48,327.77Z" />
      <path class="GUNDAN_OWL_OUTFIT_GUNDAN_OWL_OUTFIT_33_cls-8" d="M364,369.25c.75-.23,1.47-.49,2.18-.77" />
      <path class="GUNDAN_OWL_OUTFIT_GUNDAN_OWL_OUTFIT_33_cls-8" d="M352.27,370.76c.8,0,1.59,0,2.39,0a40.45,40.45,0,0,0,5-.49" />
      <path class="GUNDAN_OWL_OUTFIT_GUNDAN_OWL_OUTFIT_33_cls-8" d="M338.09,368.73a75.5,75.5,0,0,0,10.23,1.79" />
      <path class="GUNDAN_OWL_OUTFIT_GUNDAN_OWL_OUTFIT_33_cls-8" d="M324.2,364.82c1.85.58,3.71,1.15,5.59,1.69" />
      <path class="GUNDAN_OWL_OUTFIT_GUNDAN_OWL_OUTFIT_33_cls-8" d="M317.32,362.49h0l2,.69" />
      <path class="GUNDAN_OWL_OUTFIT_GUNDAN_OWL_OUTFIT_33_cls-8" d="M309.94,359.72q2.74,1.09,5.53,2.11h0" />
      <path class="GUNDAN_OWL_OUTFIT_GUNDAN_OWL_OUTFIT_33_cls-8" d="M293.38,346.59c6,3.23,12.28,6.19,18.69,8.85" />
      <path class="GUNDAN_OWL_OUTFIT_GUNDAN_OWL_OUTFIT_33_cls-8" d="M359.67,370.26a6.75,6.75,0,0,1,3,1.4,4.69,4.69,0,0,1,1.84,3.17,2.48,2.48,0,0,1-.4,1.62,2.85,2.85,0,0,1-1.56,1,4.55,4.55,0,0,1-4.14-1,.54.54,0,0,0-.66,0,.33.33,0,0,0-.07.51,5.64,5.64,0,0,0,2.24,1.52,5.93,5.93,0,0,0,3,.28,4.82,4.82,0,0,0,2.74-1.37,4,4,0,0,0,1.1-2.49,6.35,6.35,0,0,0-1.88-4.78,8.09,8.09,0,0,0-.91-.84A32.9,32.9,0,0,1,359.67,370.26Z" />
      <path class="GUNDAN_OWL_OUTFIT_GUNDAN_OWL_OUTFIT_33_cls-8" d="M348.32,370.52a5.86,5.86,0,0,1,.74.54,4.64,4.64,0,0,1,1.84,3.16,2.39,2.39,0,0,1-.4,1.62,2.87,2.87,0,0,1-1.56,1,4.55,4.55,0,0,1-4.14-1,.54.54,0,0,0-.66,0,.33.33,0,0,0-.06.51,4.61,4.61,0,0,0,1,.87,5.47,5.47,0,0,0,1.25.65,5.82,5.82,0,0,0,3,.28,4.82,4.82,0,0,0,2.74-1.37,4.07,4.07,0,0,0,1.09-2.49,5.63,5.63,0,0,0-.91-3.5C351,370.73,349.64,370.66,348.32,370.52Z" />
      <path class="GUNDAN_OWL_OUTFIT_GUNDAN_OWL_OUTFIT_33_cls-8" d="M329.79,366.51a1.83,1.83,0,0,0,.85.41,1.9,1.9,0,0,0,.25,0,6.94,6.94,0,0,1,3.68,1.51,4.63,4.63,0,0,1,1.84,3.17,2.38,2.38,0,0,1-.4,1.61,2.81,2.81,0,0,1-1.56,1,4.53,4.53,0,0,1-4.14-1,.54.54,0,0,0-.66,0,.34.34,0,0,0-.07.51,5.53,5.53,0,0,0,2.25,1.51,5.83,5.83,0,0,0,3,.29,5,5,0,0,0,2.74-1.37,4.08,4.08,0,0,0,1.09-2.5,5.46,5.46,0,0,0-.6-2.93c-1.5-.35-3-.74-4.46-1.14C332.34,367.24,331.07,366.88,329.79,366.51Z" />
      <path class="GUNDAN_OWL_OUTFIT_GUNDAN_OWL_OUTFIT_33_cls-8" d="M317.32,362.49c-.61-.2-1.23-.43-1.84-.65" />
      <path class="GUNDAN_OWL_OUTFIT_GUNDAN_OWL_OUTFIT_33_cls-8" d="M319.3,363.19a5.46,5.46,0,0,1,1.11.73,4.71,4.71,0,0,1,1.83,3.16,2.5,2.5,0,0,1-.39,1.62,2.88,2.88,0,0,1-1.56,1,4.57,4.57,0,0,1-4.15-1,.54.54,0,0,0-.66,0,.33.33,0,0,0-.07.5,2.61,2.61,0,0,0,.23.24,5.55,5.55,0,0,0,2,1.28,5.93,5.93,0,0,0,3,.29,5,5,0,0,0,2.74-1.37,4.13,4.13,0,0,0,1.09-2.5,5.63,5.63,0,0,0-.32-2.3Q321.74,364,319.3,363.19Z" />
      <path class="GUNDAN_OWL_OUTFIT_GUNDAN_OWL_OUTFIT_33_cls-8" d="M312.07,355.44c.45.63-4.44,4.38-4.4,5.1a2.38,2.38,0,0,1-.4,1.61,2.81,2.81,0,0,1-1.56,1,4.53,4.53,0,0,1-4.13-1,.57.57,0,0,0-.67,0,.35.35,0,0,0-.07.52,5.78,5.78,0,0,0,2.25,1.52,7.71,7.71,0,0,0,1,.27,6.07,6.07,0,0,0,2,0,5,5,0,0,0,2.73-1.38,4,4,0,0,0,1.09-2.49,4.82,4.82,0,0,0,0-.85C308.92,359.32,313.09,355.86,312.07,355.44Z" />
      <path class="GUNDAN_OWL_OUTFIT_GUNDAN_OWL_OUTFIT_33_cls-8" d="M290,348a36.55,36.55,0,0,1,1.3,5.85" />
      <path class="GUNDAN_OWL_OUTFIT_GUNDAN_OWL_OUTFIT_33_cls-8" d="M293.61,353.55c-.19-1.35-.44-2.6-.71-3.71-.2-.85-.42-1.63-.64-2.31" />
      <path class="GUNDAN_OWL_OUTFIT_GUNDAN_OWL_OUTFIT_33_cls-8" d="M295.26,375.12a4.55,4.55,0,0,0,1.4-.67,57.24,57.24,0,0,0-2.78-10.23c-1.48-3.8,2.26-9.56.39-10.44a3.46,3.46,0,0,0-.66-.23h0a3,3,0,0,0-1.19,0,3,3,0,0,0-.83.21l-.11,0-.21.11c-.66.4-6.11,4.11-6.18,5-.11,1.09.05,2.53.08,4.28.08,3.89,1.39,9.76.94,11.54.42.11,1,.24,1.63.36l.56.09c.5.09,1.05.16,1.62.23a20.68,20.68,0,0,0,2.95.1A10.38,10.38,0,0,0,295.26,375.12Z" />
      <path class="GUNDAN_OWL_OUTFIT_GUNDAN_OWL_OUTFIT_33_cls-8" d="M295.26,375.11s-4.46-13.27-1-21.33" />
      <path class="GUNDAN_OWL_OUTFIT_GUNDAN_OWL_OUTFIT_33_cls-8" d="M292.87,375.51s-4.34-12.14-.45-22" />
      <path class="GUNDAN_OWL_OUTFIT_GUNDAN_OWL_OUTFIT_33_cls-8" d="M291.48,353.78s0,.17.13.46c-4.91,9.17-1.46,16.5-1.69,21.16" />
      <path class="GUNDAN_OWL_OUTFIT_GUNDAN_OWL_OUTFIT_33_cls-8" d="M287.74,375.08s-.62-11.46-2.65-16.17" />
      <path class="GUNDAN_OWL_OUTFIT_GUNDAN_OWL_OUTFIT_33_cls-8" d="M288.81,347.82l-.11.41a34.1,34.1,0,0,0-.83,4.25" />
      <path class="GUNDAN_OWL_OUTFIT_GUNDAN_OWL_OUTFIT_33_cls-8" d="M285.78,350.52c-.09.52-.18,1.06-.26,1.62" />
      <path class="GUNDAN_OWL_OUTFIT_GUNDAN_OWL_OUTFIT_33_cls-8" d="M288.85,354.44c.1,1.09-5.25,5.59-5.27,7.35-.07,3.87-1.39,9.75-.94,11.52-.41.12-1,.25-1.63.37s-1.39.23-2.17.32a21.56,21.56,0,0,1-2.42.1,4.64,4.64,0,0,1-.53,0,9.21,9.21,0,0,1-2.41-.39,4.47,4.47,0,0,1-1.39-.66,57.23,57.23,0,0,1,2.78-10.24c.25-.63.49-1.22.74-1.79h0c1.23-2.84,7.7-7.89,9.25-8.62a3.46,3.46,0,0,1,.66-.23,2.63,2.63,0,0,1,.68-.08,4.38,4.38,0,0,1,.5,0,3,3,0,0,1,.95.27l.22.11A2.34,2.34,0,0,1,288.85,354.44Z" />
      <path class="GUNDAN_OWL_OUTFIT_GUNDAN_OWL_OUTFIT_33_cls-8" d="M273.48,373.7s2.61-14.3,11.38-21.32" />
      <path class="GUNDAN_OWL_OUTFIT_GUNDAN_OWL_OUTFIT_33_cls-8" d="M275.89,374.09s.13-.55.36-1.49h0c.94-3.77,2.92-14.14,10.45-20.49" />
      <path class="GUNDAN_OWL_OUTFIT_GUNDAN_OWL_OUTFIT_33_cls-8" d="M287.65,352.38s-9.91,11-8.81,21.61" />
      <path class="GUNDAN_OWL_OUTFIT_GUNDAN_OWL_OUTFIT_33_cls-8" d="M281,373.67s-1.11-14.56,7.84-19.23" />
      <path class="GUNDAN_OWL_OUTFIT_GUNDAN_OWL_OUTFIT_33_cls-8" d="M348.09,411.81l2,.65c1.35.41,2.44.72,2.95.87a1.53,1.53,0,0,0,.47.07,1.42,1.42,0,0,0,1.32-.77c.33-.77,2.72-6.61.3-9.63h0a4.3,4.3,0,0,0-1.92-1.37,8.47,8.47,0,0,0-5.44-.2c-2.69.78-5.24,2.9-7.28,6.19a1,1,0,0,0,.32,1.38,11.75,11.75,0,0,0,2.24,1.08c.71.28,1.52.58,2.37.87" />
      <path class="GUNDAN_OWL_OUTFIT_GUNDAN_OWL_OUTFIT_33_cls-8" d="M349.27,409.72l2.15.67,1.22.36a14.41,14.41,0,0,0,.78-4c0-1.41-.29-2.62-1.34-3a5.36,5.36,0,0,0-1.87-.35,6.56,6.56,0,0,0-4.19,1.74,13.84,13.84,0,0,0-2.38,2.62l.74.29c.63.25,1.4.52,2.27.82h0" />
      <path class="GUNDAN_OWL_OUTFIT_GUNDAN_OWL_OUTFIT_33_cls-8" d="M345.46,411c-.56,1-1.16,2-1.66,2.69a1.06,1.06,0,0,0,.53,1.58,1.65,1.65,0,0,0,.69.15,1.48,1.48,0,0,0,1.22-.59c.56-.8,1.23-1.91,1.85-3,.45-.78.87-1.52,1.18-2.09s.53-1,.55-1a1.08,1.08,0,0,0-.72-1.52,1.53,1.53,0,0,0-1.85.59s-.24.44-.6,1.08S345.91,410.19,345.46,411Z" />
      <path class="GUNDAN_OWL_OUTFIT_GUNDAN_OWL_OUTFIT_33_cls-8" d="M338,330.14l-1.25-.26a5.57,5.57,0,0,0,0-.82h1.24c.21,0,.35-.13.33-.29l-.07-.48a.41.41,0,0,0-.41-.28h-1.23a5,5,0,0,0-.24-.78l1.14-.23c.18,0,.28-.19.2-.33l-.22-.44a.45.45,0,0,0-.47-.19l-1.12.22c-.14-.23-.3-.46-.47-.69l1-.42a.21.21,0,0,0,.09-.35l-.36-.38a.48.48,0,0,0-.49-.09l-1,.43a6,6,0,0,0-.66-.57l.75-.59a.2.2,0,0,0,0-.34l-.45-.29a.46.46,0,0,0-.48,0l-.75.57a7.82,7.82,0,0,0-.81-.43l.5-.68c.09-.12,0-.26-.15-.32l-.51-.2a.4.4,0,0,0-.45.08l-.52.68a9.46,9.46,0,0,0-.91-.26l.25-.75c0-.12-.07-.25-.25-.28l-.55-.1a.38.38,0,0,0-.41.16l-.26.74c-.32,0-.64-.07-1-.08v-.77c0-.12-.15-.22-.34-.22h-.57c-.18,0-.33.1-.33.22v.77c-.33,0-.65,0-1,.08l-.27-.74a.37.37,0,0,0-.4-.16l-.56.1c-.18,0-.29.16-.24.28l.25.75a8.7,8.7,0,0,0-.91.26l-.52-.68a.4.4,0,0,0-.45-.08l-.52.2c-.17.06-.23.2-.15.32l.52.68a8,8,0,0,0-.82.43L321,323a.46.46,0,0,0-.48,0l-.44.29c-.15.09-.17.25-.05.34l.76.59a7.21,7.21,0,0,0-.67.57l-1-.43a.48.48,0,0,0-.49.09l-.34.38a.2.2,0,0,0,.08.35l1,.42a7,7,0,0,0-.47.69l-1.13-.22a.43.43,0,0,0-.46.19l-.22.44c-.08.14,0,.29.21.33l1.12.23a6.41,6.41,0,0,0-.23.78H317a.41.41,0,0,0-.42.28l-.07.48c0,.16.12.29.33.29h1.24a5.57,5.57,0,0,0,0,.82l-1.25.26c-.21,0-.35.21-.32.36l.09.5c0,.16.23.25.44.22l1.27-.27a5.68,5.68,0,0,0,.32.81l-1.18.52a.31.31,0,0,0-.2.43l.27.48a.44.44,0,0,0,.53.11l1.2-.53a5.13,5.13,0,0,0,.61.73l-1,.77a.29.29,0,0,0,0,.46l.44.41a.47.47,0,0,0,.57,0l1-.78a8.77,8.77,0,0,0,.87.58l-.75,1a.3.3,0,0,0,.11.47l.59.3a.46.46,0,0,0,.57-.12l.74-1c.35.14.71.27,1.07.38l-.4,1.12a.33.33,0,0,0,.27.44l.68.16a.44.44,0,0,0,.52-.26l.39-1.13c.38.06.77.1,1.17.13v1.17a.4.4,0,0,0,.41.37h.72a.4.4,0,0,0,.42-.37v-1.17c.4,0,.78-.07,1.17-.13l.38,1.13a.44.44,0,0,0,.52.26l.69-.16a.35.35,0,0,0,.28-.44l-.41-1.12a11,11,0,0,0,1.06-.38l.74,1a.46.46,0,0,0,.57.12l.6-.3a.3.3,0,0,0,.11-.47l-.75-1a8.62,8.62,0,0,0,.86-.58l1,.78a.48.48,0,0,0,.58,0l.45-.41a.28.28,0,0,0-.06-.46l-1-.77c.21-.24.42-.47.61-.73l1.2.53a.41.41,0,0,0,.51-.11l.28-.48a.32.32,0,0,0-.2-.43l-1.18-.52a5.68,5.68,0,0,0,.32-.81l1.27.27c.21,0,.4-.06.43-.22l.1-.5C338.39,330.35,338.24,330.18,338,330.14Z" />
      <path class="GUNDAN_OWL_OUTFIT_GUNDAN_OWL_OUTFIT_33_cls-8" d="M327.46,334.24c-4.14,0-7.24-2.66-6.94-5.71.28-2.8,3.37-4.91,6.94-4.91s6.65,2.11,6.93,4.91C334.69,331.58,331.59,334.24,327.46,334.24Z" />
      <path class="GUNDAN_OWL_OUTFIT_GUNDAN_OWL_OUTFIT_33_cls-8" d="M332.94,328.54c-.17-2.24-2.62-4-5.48-4s-5.32,1.71-5.5,4,2.27,4.44,5.5,4.44S333.13,330.92,332.94,328.54Z" />
      <path class="GUNDAN_OWL_OUTFIT_GUNDAN_OWL_OUTFIT_33_cls-8" d="M327.46,325.09c.6,0,1.1.37,1.1.81s-.48.83-1.1.83-1.13-.37-1.12-.83S326.85,325.09,327.46,325.09Z" />
      <path class="GUNDAN_OWL_OUTFIT_GUNDAN_OWL_OUTFIT_33_cls-8" d="M323.82,329.42c-.64,0-1.14-.4-1.11-.88a1.12,1.12,0,0,1,1.2-.87c.63,0,1.13.38,1.12.87A1.12,1.12,0,0,1,323.82,329.42Z" />
      <path class="GUNDAN_OWL_OUTFIT_GUNDAN_OWL_OUTFIT_33_cls-8" d="M327.46,332.34a1.08,1.08,0,0,1-1.2-1,1.23,1.23,0,1,1,1.2,1Z" />
      <path class="GUNDAN_OWL_OUTFIT_GUNDAN_OWL_OUTFIT_33_cls-8" d="M331.09,329.42c-.65,0-1.19-.4-1.2-.88s.47-.87,1.1-.87a1.1,1.1,0,0,1,1.2.87C332.23,329,331.73,329.42,331.09,329.42Z" />
      <path class="GUNDAN_OWL_OUTFIT_GUNDAN_OWL_OUTFIT_33_cls-8" d="M240.28,371.92c-2.26-1.07-4.58-2.21-6.94-3.42" />
      <path class="GUNDAN_OWL_OUTFIT_GUNDAN_OWL_OUTFIT_33_cls-8" d="M160.47,317.73c.22.24.44.49.67.73,12.48,13.35,41.1,33.37,66.78,47.18" />
      <path class="GUNDAN_OWL_OUTFIT_GUNDAN_OWL_OUTFIT_33_cls-8" d="M246.81,364.11c1.13-1.35,2.25-2.69,3.4-4,10-11.82,29.29-26.62,39.53-38.3" />
      <path class="GUNDAN_OWL_OUTFIT_GUNDAN_OWL_OUTFIT_33_cls-8" d="M171,440.73c17.09-22.12,48.7-44,66.67-65.64l6-7.2" />
      <path class="GUNDAN_OWL_OUTFIT_GUNDAN_OWL_OUTFIT_33_cls-8" d="M250.21,360.08q-5.4-3-10.69-6.25c-23.43-14.19-64.41-37.57-83.56-55.58" />
      <path class="GUNDAN_OWL_OUTFIT_GUNDAN_OWL_OUTFIT_33_cls-8" d="M239.52,353.83c18-14.71,43.06-41.14,56-59.29" />
      <path class="GUNDAN_OWL_OUTFIT_GUNDAN_OWL_OUTFIT_33_cls-8" d="M289.08,347.91a3.05,3.05,0,0,1-.38.32c-.95.79-1.92,1.56-2.92,2.29-1.58,1.2-3.21,2.33-4.87,3.4-5.44,3.48-20.44,9.31-26.36,11.28l-1,.33a71.82,71.82,0,0,1-9.92,2.36c-3.72.61-21.54.92-25.23.92q-1.33,0-2.67-.06a60.15,60.15,0,0,1-11.34-1.52c-7.39-1.74-14.19-4.91-20.2-7.72-2.46-1.14-5-2.36-7.6-3.72-1.68-.91-8.78-5.44-10.38-6.51-.94-.64-1.86-1.3-2.75-2a3.16,3.16,0,0,0,2.22-2.54c1.56,1.3,8.73,6,10.54,7.11a108.07,108.07,0,0,0,9.82,5c5.82,2.72,12.42,5.8,19.38,7.44a54.73,54.73,0,0,0,6.23,1.08c6.81.78,28.09.35,35.15-1.24q2.72-.62,5.4-1.46l1.61-.54c6.33-2.17,21.71-8.39,27.42-12.4,1.82-1.26,3.59-2.62,5.29-4a3.35,3.35,0,0,0,2.28,2.16Z" />
      <path class="GUNDAN_OWL_OUTFIT_GUNDAN_OWL_OUTFIT_33_cls-8" d="M195.09,422q-3.18,4-6.34,8.08" />
      <path class="GUNDAN_OWL_OUTFIT_GUNDAN_OWL_OUTFIT_33_cls-8" d="M207.18,413.24l-6.69,6.23" />
      <path class="GUNDAN_OWL_OUTFIT_GUNDAN_OWL_OUTFIT_33_cls-8" d="M218.89,403.69l-6.42,5.68" />
      <path class="GUNDAN_OWL_OUTFIT_GUNDAN_OWL_OUTFIT_33_cls-8" d="M238.29,385.39c-2,2.51-9.58,10.42-11.6,12.93" />
      <path class="GUNDAN_OWL_OUTFIT_GUNDAN_OWL_OUTFIT_33_cls-8" d="M247.27,374.29l-5,6.21" />
      <path class="GUNDAN_OWL_OUTFIT_GUNDAN_OWL_OUTFIT_33_cls-8" d="M254.55,365.2c-1,1.25-2,2.5-3,3.75" />
      <path class="GUNDAN_OWL_OUTFIT_GUNDAN_OWL_OUTFIT_33_cls-8" d="M278.67,343.57,271,353.18" />
      <path class="GUNDAN_OWL_OUTFIT_GUNDAN_OWL_OUTFIT_33_cls-8" d="M209.31,374.11c1.73,1.57,3.43,3.13,5.14,4.71" />
      <path class="GUNDAN_OWL_OUTFIT_GUNDAN_OWL_OUTFIT_33_cls-8" d="M201.1,366.73l3.47,3.1" />
      <path class="GUNDAN_OWL_OUTFIT_GUNDAN_OWL_OUTFIT_33_cls-8" d="M188.91,355.91l4.36,3.86" />
      <path class="GUNDAN_OWL_OUTFIT_GUNDAN_OWL_OUTFIT_33_cls-8" d="M176.8,345.25q3.58,3.13,7.15,6.29" />
      <g class="GUNDAN_OWL_OUTFIT_GUNDAN_OWL_OUTFIT_33_cls-9">
        <path d="M75.64,379.65a64.14,64.14,0,0,0,8.17-1.44c2.85-.85,8.32-1.06,10.14-1.76s3.11-.5,8.33-.84,11.22-2.35,16-4.31-1.68-.5,9.09-3.51,12.74-3.37,15.44-4.6,2.52-5.3,6-7.44a37.88,37.88,0,0,0,6.23-4.87s-.77,2.08-1.37,2.35,1.77,10.65-3,11.85-7,.13-10.7,3.36-5.29,4.53-8.53,4.89-4.23-.77-6.58.49-3.45,4.62-6.86,4.57-6.8-1.82-10.69,1-3.58,3.91-9.44,2.16c-3.23-.58-4.63.06-7.29,1.49s-2.49,1.47-5.39.13-4.76-1.21-6.45-.67S74.54,382.61,75.64,379.65Z" />
        <path d="M83.1,383S70.61,410,71.33,440.73h40.35a354.49,354.49,0,0,0,25.38-35.07c-13.17,14.22-22.76,21.4-22.76,21.4s17.19-18.61,28.14-39.45,11.1-24,11.1-24-9.4,11.37-20.46,18.59-29,18.44-29,18.44-3.57-9-3.63-13.48-.34-4.77-.34-4.77a13.59,13.59,0,0,0-4.93-1c-2.43.07-2.71,1.05-5.17,2s-2.8.44-4.75-.27S83.1,383,83.1,383Z" />
        <path d="M172.41,373.85a132.87,132.87,0,0,1-13.51,38.81c-10.75,20.14-17.2,28.07-17.2,28.07h21.09a229.81,229.81,0,0,0,16.11-43.45c5.86-23.42,6.13-37,6.13-37l-8.19-4.32-.15,4.45s3.62,8.94,3.69,12.77a15,15,0,0,1-5.24,1Z" />
        <path d="M300,303.87s-17.86,18-27.09,29.3S244.75,357,244.75,357l-8,5.85-15.15,2.69s22.51-.79,25.23-1.47c9.79-11.58,42.27-41.59,42.27-41.59s9.19-14.19,13.12-16.55A27.32,27.32,0,0,0,300,303.87Z" />
        <path d="M241.5,365.08s-2.43.13-5.94.26h-.1c-2.24.09-4.91.18-7.65.24-21.24-11.43-44.46-27.09-58.9-39.71l-.1-.09-5.95-5.55-.09-.08-2-1.82-.28-.52h0c-.32-.58-.87-1.58-1.58-2.82-.12-.23-.26-.46-.39-.7-2.65-4.6-6.92-11.6-8.88-12.47l-.14-.05,4.63-2.06s16.14,18.18,30.36,32,56.16,32.42,56.16,32.42l.66.79Z" />
        <path d="M188.91,440.73l21.69-12.24c13.61-7.67,53.06-29.33,53.06-29.33s-16,19.65-22.16,26.37-25.76,13.59-25.76,13.59l-4.16,1.61Z" />
        <path d="M281.51,401.07s-7.51,8.85-9.79,13.29-12.13,17.23-12.13,17.23l-5,6.29s15.38-11.56,18-14.51,11.15-8,11.15-8l2.45-3.79L282,400.21Z" />
        <path d="M253.05,371.92s-38.13,20.59-48.48,36.83-26.26,32-26.26,32l3.39.41s25.08-26.86,35.43-39.71S253.05,371.92,253.05,371.92Z" />
        <path d="M289.92,375.41s6.92,15.74,13.42,26.58,15.75,21.73,26.33,29.06,15.15,9.68,15.15,9.68H301.87s-13.41-20.84-17.18-32.51-7.05-23.44-7.83-30.62c4.59,14.23,17.23,45.51,30,54a210.34,210.34,0,0,1-24.2-57.92s.26-4.44.41-6.68,6.3-11.54,6-12.55a9.65,9.65,0,0,0-.74-1.79l-.69-.17,1.43-4.77,1,.66,1.41,5.41s-6.16,3.64-6.25,5.32a79.69,79.69,0,0,0,.35,8.69c.28,2.84.83,7.19.83,7.19Z" />
        <path d="M85.85,328.66s.16,17.19,5.94,22.22,26,4.39,38.41,0,29.24-16,29.24-16l1.12,6.54s.44,5.15,5,4.32c-1.44,2.07-4.37,2.72-7,.49-4,2.4-14.25,12.86-25.84,17.22s-28.62,7.7-35.45,7a60.54,60.54,0,0,1-11.07-2l2.38-3.2s-10.15-13.5-9.33-22.09S83.74,330.21,85.85,328.66Z" />
      </g>
    </g>
  </g>
</svg>