<svg xmlns="http://www.w3.org/2000/svg" viewBox="0 0 432 432">
  <defs>
    <style>.GUNDAN_JAPANESE_SEROW_OUTFIT_JAPANESE_SEROW_OUTFIT_20_cls-1{isolation:isolate;}.GUNDAN_JAPANESE_SEROW_OUTFIT_JAPANESE_SEROW_OUTFIT_20_cls-2{fill:#463723;}.GUNDAN_JAPANESE_SEROW_OUTFIT_JAPANESE_SEROW_OUTFIT_20_cls-3{fill:#b46924;}.GUNDAN_JAPANESE_SEROW_OUTFIT_JAPANESE_SEROW_OUTFIT_20_cls-4{fill:#7d131f;}.GUNDAN_JAPANESE_SEROW_OUTFIT_JAPANESE_SEROW_OUTFIT_20_cls-5{fill:#fff;}.GUNDAN_JAPANESE_SEROW_OUTFIT_JAPANESE_SEROW_OUTFIT_20_cls-6,.GUNDAN_JAPANESE_SEROW_OUTFIT_JAPANESE_SEROW_OUTFIT_20_cls-7{fill:none;stroke:#000;stroke-width:1.28px;}.GUNDAN_JAPANESE_SEROW_OUTFIT_JAPANESE_SEROW_OUTFIT_20_cls-6{stroke-linecap:round;stroke-linejoin:round;}.GUNDAN_JAPANESE_SEROW_OUTFIT_JAPANESE_SEROW_OUTFIT_20_cls-7{stroke-miterlimit:10;}.GUNDAN_JAPANESE_SEROW_OUTFIT_JAPANESE_SEROW_OUTFIT_20_cls-8{opacity:0.22;mix-blend-mode:multiply;}</style>
  </defs>
  <g class="GUNDAN_JAPANESE_SEROW_OUTFIT_JAPANESE_SEROW_OUTFIT_20_cls-1">
    <g id="outfit">
      <path class="GUNDAN_JAPANESE_SEROW_OUTFIT_JAPANESE_SEROW_OUTFIT_20_cls-2" d="M397.66,423.14c-2.23-3.52-4.37-5.85-4.49-6.38-.21-1.14,1.76-12.63-1.41-19.9a87.25,87.25,0,0,0-4.85-8.79c-3.72-6.1-8.35-13.12-10.8-16.77A91.09,91.09,0,0,0,368,380c-4,4.81-13.46,10.88-21.32,17.3-4.19,3.44-8.9,7-14.07,10.46,3.46,13.85,6.39,37.57,6.39,37.57,2,0,4.24-.07,6.59-.2C359.08,444.42,377.22,441,397.66,423.14Z" />
      <path class="GUNDAN_JAPANESE_SEROW_OUTFIT_JAPANESE_SEROW_OUTFIT_20_cls-2" d="M83,380a92.41,92.41,0,0,0-8.08-8.7C72.47,375,67.84,382,64.12,388.07a84.84,84.84,0,0,0-4.84,8.79c-3.18,7.27,1.88,18.76,1.66,19.9-.11.53-2.26,2.86-4.48,6.38C76.9,441,95,444.42,108.51,445.13c2.35.13,4.54.17,6.59.2,0,0,2.93-23.72,6.39-37.57-5.18-3.49-9.89-7-14.08-10.46C99.55,390.88,87,384.81,83,380Z" />
      <path class="GUNDAN_JAPANESE_SEROW_OUTFIT_JAPANESE_SEROW_OUTFIT_20_cls-3" d="M370,362a3.53,3.53,0,1,0,3.4,3.52A3.46,3.46,0,0,0,370,362Z" />
      <path class="GUNDAN_JAPANESE_SEROW_OUTFIT_JAPANESE_SEROW_OUTFIT_20_cls-3" d="M342.83,386.09a3.53,3.53,0,1,0,3.4,3.53A3.47,3.47,0,0,0,342.83,386.09Z" />
      <path class="GUNDAN_JAPANESE_SEROW_OUTFIT_JAPANESE_SEROW_OUTFIT_20_cls-3" d="M111.28,386.09a3.53,3.53,0,1,0,3.39,3.53A3.46,3.46,0,0,0,111.28,386.09Z" />
      <path class="GUNDAN_JAPANESE_SEROW_OUTFIT_JAPANESE_SEROW_OUTFIT_20_cls-3" d="M81,362a3.53,3.53,0,1,0,3.4,3.52A3.47,3.47,0,0,0,81,362Z" />
      <path class="GUNDAN_JAPANESE_SEROW_OUTFIT_JAPANESE_SEROW_OUTFIT_20_cls-3" d="M314.4,484.63a43.13,43.13,0,0,1-6.23-.43,32,32,0,0,1-11.9-4,23.52,23.52,0,0,1-8.26-8.3,28,28,0,0,1-1.9-4,31,31,0,0,1-1.62-6.18c-.07-.44-.13-.88-.19-1.32a36.38,36.38,0,0,0,8.22,4.68,45.26,45.26,0,0,0,11.32,3,53.77,53.77,0,0,0,7.17.48c1.74,0,3.2-.08,4.29-.17a45.37,45.37,0,0,1-.44-7.8,48.12,48.12,0,0,1-9.58-.22,38.39,38.39,0,0,1-9.95-2.52,28.26,28.26,0,0,1-8.2-5.06l-.68-.63c-.63-.61-1.24-1.21-1.81-1.8a47.32,47.32,0,0,1,2.73-9.53,59.68,59.68,0,0,1,3.75-7.71c1.19-2.09,2.35-3.83,3.29-5.17-2.15.86-4.33,1.67-6.54,2.46q-2.42.84-4.88,1.64a63,63,0,0,0-3.15,7.08c-.47,1.25-.9,2.52-1.28,3.85a43.58,43.58,0,0,1-3.43-5.8c-.45-.94-.82-1.79-1.09-2.5-2.44.65-4.9,1.25-7.41,1.79.39,1.1.92,2.41,1.63,3.92a53.21,53.21,0,0,0,5.83,9.42c.77,1,1.64,2.08,2.56,3.16a44.41,44.41,0,0,0,0,7.2,39.76,39.76,0,0,0,2.42,10.61,32.75,32.75,0,0,0,1.9,4.14,30.71,30.71,0,0,0,12,12.27,41.43,41.43,0,0,0,15.36,4.92,50.28,50.28,0,0,0,6.22.39,43.74,43.74,0,0,0,5.48-.33c-.76-2.42-1.41-5-2-7.68C317.08,484.57,315.83,484.63,314.4,484.63Z" />
      <path class="GUNDAN_JAPANESE_SEROW_OUTFIT_JAPANESE_SEROW_OUTFIT_20_cls-3" d="M179,437.16a43.58,43.58,0,0,1-3.43,5.8c-.39-1.33-.81-2.6-1.28-3.85a63,63,0,0,0-3.15-7.08c-1.64-.53-3.28-1.08-4.88-1.64-2.21-.79-4.4-1.6-6.54-2.46.94,1.34,2.09,3.08,3.28,5.17a58.39,58.39,0,0,1,3.76,7.71,46.67,46.67,0,0,1,2.72,9.53c-.56.59-1.18,1.19-1.81,1.8l-.67.63a28.26,28.26,0,0,1-8.2,5.06,38.45,38.45,0,0,1-10,2.52,48.12,48.12,0,0,1-9.58.22,44.37,44.37,0,0,1-.43,7.8c1.09.09,2.54.17,4.29.17a53.77,53.77,0,0,0,7.17-.48,45.26,45.26,0,0,0,11.32-3,36.11,36.11,0,0,0,8.21-4.68c-.05.44-.11.88-.19,1.32a30.34,30.34,0,0,1-1.62,6.18,26.94,26.94,0,0,1-1.89,4,23.52,23.52,0,0,1-8.26,8.3,32,32,0,0,1-11.9,4,43.22,43.22,0,0,1-6.23.43c-1.43,0-2.69-.06-3.7-.16-.57,2.65-1.22,5.26-2,7.68a43.91,43.91,0,0,0,5.49.33,50.12,50.12,0,0,0,6.21-.39,41.54,41.54,0,0,0,15.37-4.92,30.84,30.84,0,0,0,12-12.27,31.37,31.37,0,0,0,1.89-4.14,39.38,39.38,0,0,0,2.42-10.61,43.32,43.32,0,0,0,0-7.2c.92-1.08,1.78-2.13,2.56-3.16a53.81,53.81,0,0,0,5.83-9.42c.71-1.51,1.24-2.82,1.63-3.92-2.51-.54-5-1.14-7.41-1.79C179.8,435.37,179.44,436.22,179,437.16Z" />
      <path class="GUNDAN_JAPANESE_SEROW_OUTFIT_JAPANESE_SEROW_OUTFIT_20_cls-3" d="M268.94,358.35a14.53,14.53,0,0,0-3.35-12.28c-.12-.16-.24-.31-.38-.47h0a21.81,21.81,0,0,0-3-2.9,27.16,27.16,0,0,0-7-4.23,24.67,24.67,0,0,0-8.39-1.86,27.09,27.09,0,0,0-4.45.22,28.6,28.6,0,0,0-7.27,2h0a28.57,28.57,0,0,0-2.6,1.22,3.33,3.33,0,0,0-2.41-1.23c-.87,0-7.68.44-8.41,1.23-.81-.43-1.68-.84-2.6-1.22h0a28.6,28.6,0,0,0-7.27-2,27.21,27.21,0,0,0-4.46-.22,24.62,24.62,0,0,0-8.38,1.86,27.16,27.16,0,0,0-7,4.23,21.81,21.81,0,0,0-3,2.9h0a5.22,5.22,0,0,0-.38.47,14.49,14.49,0,0,0-3.35,12.28,13.54,13.54,0,0,0,2,4.85,16,16,0,0,0,2.92,3.32,17.69,17.69,0,0,0,4.61,2.92,18.69,18.69,0,0,0,1.75.69,19,19,0,0,0,5.76.91,18,18,0,0,0,5.76-.94,19.52,19.52,0,0,0,3.89-1.77c1.36-.81,3-1.78,4.65-2.8l.9-.56A84.19,84.19,0,0,0,215,377.14a4.44,4.44,0,0,1,1.89-.07,4.89,4.89,0,0,1,1.5.51,2.22,2.22,0,0,1,.34.22,79.06,79.06,0,0,1,3-14.45c.11-.35.23-.68.31-1,.61.5,7.26.78,7.94.78a3,3,0,0,0,1.93-.78l.32,1a79.25,79.25,0,0,1,3,14.45,2.84,2.84,0,0,1,.34-.22,5.05,5.05,0,0,1,1.51-.51,4.39,4.39,0,0,1,1.88.07A84.19,84.19,0,0,0,236.72,365l.91.56c1.67,1,3.29,2,4.64,2.8a19.59,19.59,0,0,0,3.9,1.77,18,18,0,0,0,5.76.94,19,19,0,0,0,5.76-.91,18.69,18.69,0,0,0,1.75-.69,17.64,17.64,0,0,0,4.6-2.92A16.09,16.09,0,0,0,267,363.2,13.72,13.72,0,0,0,268.94,358.35Zm-54.47-.56-2.35,1.38-4,2.39a12,12,0,0,1-2,.93,11.55,11.55,0,0,1-8.2-.13,9.58,9.58,0,0,1-4.54-3.53,5.61,5.61,0,0,1-1-3.5,8.5,8.5,0,0,1,2.69-5.15l.46-.45c.35-.33.69-.63,1-.89a21,21,0,0,1,4.16-2.67,17.15,17.15,0,0,1,7.63-1.79,21.17,21.17,0,0,1,9.46,2.4l1,.56a26.49,26.49,0,0,0-.25,3.65,24.47,24.47,0,0,0,.34,4.2Zm46.26,1a9.56,9.56,0,0,1-4.55,3.53,11.52,11.52,0,0,1-8.19.13,12,12,0,0,1-2-.93l-4-2.39-2.35-1.38-4.44-2.6a25.54,25.54,0,0,0,.33-4.2,25,25,0,0,0-.25-3.65l1-.56a21.12,21.12,0,0,1,9.45-2.4,17.19,17.19,0,0,1,7.64,1.79,20.7,20.7,0,0,1,4.15,2.67c.32.26.65.56,1,.89l.46.45a8.55,8.55,0,0,1,2.69,5.15A5.67,5.67,0,0,1,260.73,358.83Z" />
      <path class="GUNDAN_JAPANESE_SEROW_OUTFIT_JAPANESE_SEROW_OUTFIT_20_cls-2" d="M236.72,365l.91.56c1.67,1,3.29,2,4.64,2.8a19.59,19.59,0,0,0,3.9,1.77,18,18,0,0,0,5.76.94,19,19,0,0,0,5.76-.91,18.69,18.69,0,0,0,1.75-.69c2.58,6.84,9.21,24.09,12.52,30.14,4.17,7.63,8.63,11,16.16,11,3,0,7.84-4.73,13.52-11.48,5-5.88,10.6-13.31,16.21-20.48,2.41,4.8,7.58,12.84,16.43,16.64-4.86,4.55-17.56,15.18-38.43,23.7q-2.93,1.22-6.07,2.34h0c-15.8,5.7-35.66,10-59.71,10s-49.92-4.27-65.71-10h0c-2.1-.75-4.12-1.53-6.08-2.34-20.86-8.52-33.57-19.15-38.43-23.7,8.85-3.8,14-11.84,16.44-16.64,5.61,7.17,11.23,14.6,16.2,20.48,5.69,6.75,10.54,11.48,13.53,11.48,7.53,0,12-3.4,16.15-11,3.32-6.05,9.95-23.3,12.53-30.14a18.69,18.69,0,0,0,1.75.69,19,19,0,0,0,5.76.91,18,18,0,0,0,5.76-.94,19.52,19.52,0,0,0,3.89-1.77c1.36-.81,3-1.78,4.65-2.8l.9-.56A84.19,84.19,0,0,0,215,377.14h0a5.17,5.17,0,0,0-1,.43c-3,1.67-5.3,6.81-7.65,14A126.82,126.82,0,0,0,201.9,411a6.79,6.79,0,0,0,2.23,1.26,13,13,0,0,0,3.82.73,27.38,27.38,0,0,0,4.71-.18c1.24-.16,2.43-.38,3.46-.6s1.94-.48,2.6-.69c-.71-3.35,1.38-14.49,1.5-21.83.05-3.33.3-6.06.13-8.13-.12-1.7-.54-2.95-1.58-3.71a79.06,79.06,0,0,1,3-14.45c.11-.35.23-.68.31-1,.61.5,7.26.78,7.94.78a3,3,0,0,0,1.93-.78l.32,1a79.25,79.25,0,0,1,3,14.45c-1,.76-1.45,2-1.58,3.71-.16,2.07.09,4.8.14,8.13.11,7.34,2.21,18.48,1.49,21.83.67.21,1.56.46,2.6.69s2.22.44,3.47.6a27.38,27.38,0,0,0,4.71.18,12.89,12.89,0,0,0,3.81-.73,6.84,6.84,0,0,0,2.24-1.26,126.15,126.15,0,0,0-4.45-19.38c-2.35-7.18-4.67-12.32-7.64-14a5.24,5.24,0,0,0-1.06-.43h0A84.19,84.19,0,0,0,236.72,365Z" />
      <path class="GUNDAN_JAPANESE_SEROW_OUTFIT_JAPANESE_SEROW_OUTFIT_20_cls-4" d="M393.19,362.27a21.15,21.15,0,0,1-5.21-.2,35.21,35.21,0,0,1-12.11-4.5c-5.62-3.21-13.86-7.39-17-10.36h0a43.21,43.21,0,0,0-20.9,9c-5.78,4.55-13,13.31-20.15,22.48,2.41,4.8,7.58,12.84,16.43,16.64-4.86,4.55-17.56,15.18-38.43,23.7q-2.93,1.22-6.07,2.34h0c-15.8,5.7-35.66,10-59.71,10s-49.92-4.27-65.71-10h0c-2.1-.75-4.12-1.53-6.08-2.34-20.86-8.52-33.57-19.15-38.43-23.7,8.85-3.8,14-11.84,16.44-16.64-7.2-9.17-14.38-17.93-20.15-22.48-7.4-5.82-21.48-8.14-27.39-9h0a72.09,72.09,0,0,1-13.56,10.36,35.24,35.24,0,0,1-12.1,4.5,21.19,21.19,0,0,1-5.21.2c-3.8,10,.82,19.46,6.27,25.8,3.72-6.1,8.35-13.12,10.8-16.77A92.41,92.41,0,0,1,83,380c4,4.81,16.55,10.88,24.41,17.3,4.19,3.44,8.9,7,14.08,10.46,2.08,1.42,4.26,2.83,6.5,4.21,1.49.93,3,1.84,4.56,2.74a29.71,29.71,0,0,0,.68,25.76c.33.64.64,1.28.93,1.89.85,1.76,1.57,3.41,2.17,5h0a39.85,39.85,0,0,1,2.92,13.23,48.12,48.12,0,0,0,9.58-.22,38.45,38.45,0,0,0,10-2.52,28.26,28.26,0,0,0,8.2-5.06l.67-.63c.63-.61,1.25-1.21,1.81-1.8a46.67,46.67,0,0,0-2.72-9.53A58.39,58.39,0,0,0,163,433.1c-1.19-2.09-2.34-3.83-3.28-5.17,2.14.86,4.33,1.67,6.54,2.46,1.6.56,3.24,1.11,4.88,1.64a63,63,0,0,1,3.15,7.08c.47,1.25.89,2.52,1.28,3.85a43.58,43.58,0,0,0,3.43-5.8c.45-.94.81-1.79,1.09-2.5,2.44.65,4.9,1.25,7.41,1.79a170.84,170.84,0,0,0,30.57,3.92c2,.06,10,.1,12,.1s4,0,6-.1a171,171,0,0,0,30.57-3.92c2.51-.54,5-1.14,7.41-1.79.27.71.64,1.56,1.09,2.5a43.58,43.58,0,0,0,3.43,5.8c.38-1.33.81-2.6,1.28-3.85A63,63,0,0,1,283,432q2.46-.79,4.88-1.64c2.21-.79,4.39-1.6,6.54-2.46-.94,1.34-2.1,3.08-3.29,5.17a59.68,59.68,0,0,0-3.75,7.71,47.32,47.32,0,0,0-2.73,9.53c.57.59,1.18,1.19,1.81,1.8l.68.63a28.26,28.26,0,0,0,8.2,5.06,38.39,38.39,0,0,0,9.95,2.52,48.12,48.12,0,0,0,9.58.22,39.89,39.89,0,0,1,2.93-13.23h0c.6-1.56,1.31-3.21,2.17-5,.29-.61.6-1.25.93-1.89a29.75,29.75,0,0,0,.68-25.76q2.32-1.35,4.55-2.74c2.25-1.38,4.41-2.79,6.51-4.21,5.17-3.49,9.88-7,14.07-10.46C354.56,390.88,364,384.81,368,380a91.09,91.09,0,0,1,8.09-8.7c2.45,3.65,7.08,10.67,10.8,16.77C392.36,381.73,397,372.31,393.19,362.27ZM81,369a3.53,3.53,0,1,1,3.4-3.53A3.47,3.47,0,0,1,81,369Zm30.28,24.13a3.53,3.53,0,1,1,3.39-3.52A3.46,3.46,0,0,1,111.28,393.14Zm231.55,0a3.53,3.53,0,1,1,3.4-3.52A3.46,3.46,0,0,1,342.83,393.14ZM370,369a3.53,3.53,0,1,1,3.4-3.53A3.47,3.47,0,0,1,370,369Z" />
      <path class="GUNDAN_JAPANESE_SEROW_OUTFIT_JAPANESE_SEROW_OUTFIT_20_cls-5" d="M240.13,377.58a5.24,5.24,0,0,0-1.06-.43h0a4.39,4.39,0,0,0-1.88-.07,5.05,5.05,0,0,0-1.51.51,2.84,2.84,0,0,0-.34.22c-1,.76-1.45,2-1.58,3.71-.16,2.07.09,4.8.14,8.13.11,7.34,2.21,18.48,1.49,21.83.67.21,1.56.46,2.6.69s2.22.44,3.47.6a27.38,27.38,0,0,0,4.71.18,12.89,12.89,0,0,0,3.81-.73,6.84,6.84,0,0,0,2.24-1.26,126.15,126.15,0,0,0-4.45-19.38C245.42,384.39,243.1,379.25,240.13,377.58Z" />
      <path class="GUNDAN_JAPANESE_SEROW_OUTFIT_JAPANESE_SEROW_OUTFIT_20_cls-5" d="M220.22,389.64c.05-3.33.3-6.06.13-8.13-.12-1.7-.54-2.95-1.58-3.71a2.22,2.22,0,0,0-.34-.22,4.89,4.89,0,0,0-1.5-.51,4.44,4.44,0,0,0-1.89.07h0a5.17,5.17,0,0,0-1,.43c-3,1.67-5.3,6.81-7.65,14A126.82,126.82,0,0,0,201.9,411a6.79,6.79,0,0,0,2.23,1.26,13,13,0,0,0,3.82.73,27.38,27.38,0,0,0,4.71-.18c1.24-.16,2.43-.38,3.46-.6s1.94-.48,2.6-.69C218,408.12,220.1,397,220.22,389.64Z" />
      <path class="GUNDAN_JAPANESE_SEROW_OUTFIT_JAPANESE_SEROW_OUTFIT_20_cls-5" d="M136.33,447.34h0c-.6-1.56-1.32-3.21-2.17-5-.29-.61-.6-1.25-.93-1.89a29.71,29.71,0,0,1-.68-25.76c-1.56-.9-3.07-1.81-4.56-2.74-2.24-1.38-4.42-2.79-6.5-4.21-3.46,13.85-6.39,37.57-6.39,37.57-2,0-4.24-.07-6.59-.2-13.47-.71-31.61-4.18-52-22a31.7,31.7,0,0,0-4.63,11.45l1.15.52a4.3,4.3,0,0,1,.72.41c.26.19,27.13,19.75,61.06,18.94.13,1.25.25,2.56.33,3.9a11.05,11.05,0,0,1-.53,3.92h-1.81c-33.72,0-59.65-17.71-63.08-20.16l-.53-.24a67.93,67.93,0,0,0-8.27,15.34l4.68,1.35c6.7,2,19.51,5.69,30.92,9.18,15.68,4.78,33.36.41,34.86,0l.08,0h0a107,107,0,0,0-3.87,19.94h0c2.34,4.78,5.9,9.8,10,12.88a14.16,14.16,0,0,0,6.59,3c4.69.59,7.74-4.6,9.87-11.39.77-2.42,1.42-5,2-7.68.61-2.91,1.13-5.84,1.59-8.53s.9-5.17,1.21-7.57a44.37,44.37,0,0,0,.43-7.8A39.85,39.85,0,0,0,136.33,447.34ZM123.1,486.23c-.57,3.51-2.24,6.14-3.71,5.88s-2.19-3.3-1.63-6.82,2.24-6.14,3.72-5.88S123.68,482.72,123.1,486.23Zm4.68-26c-.58,3.5-2.23,6.14-3.72,5.88s-2.19-3.32-1.62-6.82,2.24-6.14,3.71-5.9S128.35,456.76,127.78,460.28Z" />
      <path class="GUNDAN_JAPANESE_SEROW_OUTFIT_JAPANESE_SEROW_OUTFIT_20_cls-5" d="M405,441.89l-.53.24c-3.43,2.45-29.37,20.16-63.09,20.16h-1.8a10.83,10.83,0,0,1-.53-3.92c.07-1.34.2-2.65.32-3.9,33.94.81,60.8-18.75,61.07-18.94a3.85,3.85,0,0,1,.71-.41l1.16-.52a31.7,31.7,0,0,0-4.63-11.45c-20.44,17.81-38.58,21.28-52.05,22-2.35.13-4.55.17-6.59.2,0,0-2.93-23.72-6.39-37.57-2.1,1.42-4.26,2.83-6.51,4.21q-2.22,1.39-4.55,2.74a29.75,29.75,0,0,1-.68,25.76c-.33.64-.64,1.28-.93,1.89-.86,1.76-1.57,3.41-2.17,5h0a39.89,39.89,0,0,0-2.93,13.23,45.37,45.37,0,0,0,.44,7.8c.3,2.4.74,4.88,1.21,7.57s1,5.62,1.59,8.53c.57,2.65,1.22,5.26,2,7.68,2.14,6.79,5.19,12,9.87,11.39a14.08,14.08,0,0,0,6.59-3c4.12-3.08,7.67-8.1,10-12.88h0a106.56,106.56,0,0,0-3.88-19.94h0l.07,0c1.51.37,19.18,4.74,34.86,0,11.42-3.49,24.22-7.22,30.93-9.18l4.68-1.35A68.44,68.44,0,0,0,405,441.89ZM330,466.16c-1.47.26-3.13-2.38-3.7-5.88s.15-6.58,1.63-6.84,3.12,2.39,3.7,5.9S331.52,465.9,330,466.16Zm4.68,25.95c-1.48.26-3.14-2.37-3.71-5.88s.16-6.56,1.63-6.82,3.14,2.37,3.7,5.88S336.19,491.85,334.72,492.11Z" />
      <path class="GUNDAN_JAPANESE_SEROW_OUTFIT_JAPANESE_SEROW_OUTFIT_20_cls-5" d="M197.93,362.36a11.55,11.55,0,0,0,8.2.13,12,12,0,0,0,2-.93l4-2.39a182.22,182.22,0,0,1-17-9,8.5,8.5,0,0,0-2.69,5.15,5.61,5.61,0,0,0,1,3.5A9.58,9.58,0,0,0,197.93,362.36Z" />
      <path class="GUNDAN_JAPANESE_SEROW_OUTFIT_JAPANESE_SEROW_OUTFIT_20_cls-5" d="M260.73,358.83a5.67,5.67,0,0,0,1-3.5,8.55,8.55,0,0,0-2.69-5.15,183.49,183.49,0,0,1-17,9l4,2.39a12,12,0,0,0,2,.93,11.52,11.52,0,0,0,8.19-.13A9.56,9.56,0,0,0,260.73,358.83Z" />
      <path class="GUNDAN_JAPANESE_SEROW_OUTFIT_JAPANESE_SEROW_OUTFIT_20_cls-5" d="M190.07,366.52a16,16,0,0,1-2.92-3.32,13.54,13.54,0,0,1-2-4.85,14.49,14.49,0,0,1,3.35-12.28c-36.36-23.85-58.68-56.89-58.68-56.89l1.09,8.22-4.72,5.23s-20,5.81-22,7.85c-1.3,1.27-1.41,5.58,1.13,10.26-2.49,1.72-.62,8.45-4.12,9.08-5.41,1-18.32,1.74-22.93,9-5.41,11.51-5.71,14.47-5.71,14.47l2.61,4.25a72.09,72.09,0,0,0,13.56-10.36h0c5.91.82,20,3.14,27.39,9,5.77,4.55,12.95,13.31,20.15,22.48,5.61,7.17,11.23,14.6,16.2,20.48,5.69,6.75,10.54,11.48,13.53,11.48,7.53,0,12-3.4,16.15-11,3.32-6.05,9.95-23.3,12.53-30.14A17.69,17.69,0,0,1,190.07,366.52Z" />
      <path class="GUNDAN_JAPANESE_SEROW_OUTFIT_JAPANESE_SEROW_OUTFIT_20_cls-5" d="M338,356.17a43.21,43.21,0,0,1,20.9-9h0c3.1,3,11.34,7.15,17,10.36l2.62-4.25s-.31-3-5.72-14.47c-4.6-7.29-14.43-8-19.84-9-3.51-.63-7.65-3.18-10.14-4.89,2.54-4.69,2.43-9,1.13-10.27-2.08-2-19.18-8.61-19.18-8.61L320,300.82l1.09-8.22s-19.17,29.62-55.52,53.47a14.53,14.53,0,0,1,3.35,12.28,13.72,13.72,0,0,1-2,4.85,16.09,16.09,0,0,1-2.93,3.32,17.64,17.64,0,0,1-4.6,2.92c2.58,6.84,9.21,24.09,12.52,30.14,4.17,7.63,8.63,11,16.16,11,3,0,7.84-4.73,13.52-11.48,5-5.88,10.6-13.31,16.21-20.48C325,369.48,332.22,360.72,338,356.17Z" />
      <path class="GUNDAN_JAPANESE_SEROW_OUTFIT_JAPANESE_SEROW_OUTFIT_20_cls-4" d="M218.82,347.34l-1-.56a21.17,21.17,0,0,0-9.46-2.4,17.15,17.15,0,0,0-7.63,1.79,21,21,0,0,0-4.16,2.67c-.31.26-.65.56-1,.89l-.46.45a182.22,182.22,0,0,0,17,9l2.35-1.38,4.44-2.6a24.47,24.47,0,0,1-.34-4.2A26.49,26.49,0,0,1,218.82,347.34Z" />
      <path class="GUNDAN_JAPANESE_SEROW_OUTFIT_JAPANESE_SEROW_OUTFIT_20_cls-4" d="M257.55,348.84a20.7,20.7,0,0,0-4.15-2.67,17.19,17.19,0,0,0-7.64-1.79,21.12,21.12,0,0,0-9.45,2.4l-1,.56a25,25,0,0,1,.25,3.65,25.54,25.54,0,0,1-.33,4.2l4.44,2.6,2.35,1.38a183.49,183.49,0,0,0,17-9l-.46-.45C258.2,349.4,257.87,349.1,257.55,348.84Z" />
      <path class="GUNDAN_JAPANESE_SEROW_OUTFIT_JAPANESE_SEROW_OUTFIT_20_cls-4" d="M207.32,336.61a27.21,27.21,0,0,1,4.46.22c-16.77-10.82-53.33-38.47-69-53.05-5.56,2.42-12.92,5.4-12.92,5.4s22.32,33,58.68,56.89a5.22,5.22,0,0,1,.38-.47h0a21.81,21.81,0,0,1,3-2.9,27.16,27.16,0,0,1,7-4.23A24.62,24.62,0,0,1,207.32,336.61Z" />
      <path class="GUNDAN_JAPANESE_SEROW_OUTFIT_JAPANESE_SEROW_OUTFIT_20_cls-4" d="M305,288.48c-15.68,14.58-45.89,37.53-62.66,48.35a27.09,27.09,0,0,1,4.45-.22,24.67,24.67,0,0,1,8.39,1.86,27.16,27.16,0,0,1,7,4.23,21.81,21.81,0,0,1,3,2.9h0c.14.16.26.31.38.47,36.35-23.85,55.52-53.47,55.52-53.47S310.56,290.9,305,288.48Z" />
      <path class="GUNDAN_JAPANESE_SEROW_OUTFIT_JAPANESE_SEROW_OUTFIT_20_cls-6" d="M218.77,377.8a79.06,79.06,0,0,1,3-14.45c.11-.35.23-.68.31-1" />
      <path class="GUNDAN_JAPANESE_SEROW_OUTFIT_JAPANESE_SEROW_OUTFIT_20_cls-6" d="M215,377.14A84.19,84.19,0,0,1,217.39,365" />
      <path class="GUNDAN_JAPANESE_SEROW_OUTFIT_JAPANESE_SEROW_OUTFIT_20_cls-6" d="M204.13,412.21A6.79,6.79,0,0,1,201.9,411a126.82,126.82,0,0,1,4.44-19.38c2.35-7.18,4.67-12.32,7.65-14a5.17,5.17,0,0,1,1-.43h0a4.44,4.44,0,0,1,1.89-.07,4.89,4.89,0,0,1,1.5.51,2.22,2.22,0,0,1,.34.22c1,.76,1.46,2,1.58,3.71.17,2.07-.08,4.8-.13,8.13-.12,7.34-2.21,18.48-1.5,21.83-.66.21-1.55.46-2.6.69s-2.22.44-3.46.6a27.38,27.38,0,0,1-4.71.18A13,13,0,0,1,204.13,412.21Z" />
      <path class="GUNDAN_JAPANESE_SEROW_OUTFIT_JAPANESE_SEROW_OUTFIT_20_cls-6" d="M212.12,359.17a182.22,182.22,0,0,1-17-9" />
      <path class="GUNDAN_JAPANESE_SEROW_OUTFIT_JAPANESE_SEROW_OUTFIT_20_cls-6" d="M211.78,336.83c-16.77-10.82-53.33-38.47-69-53.05-5.56,2.42-12.92,5.4-12.92,5.4s22.32,33,58.68,56.89" />
      <path class="GUNDAN_JAPANESE_SEROW_OUTFIT_JAPANESE_SEROW_OUTFIT_20_cls-6" d="M129.85,289.18l1.09,8.22-4.72,5.23s-20,5.81-22,7.85c-1.3,1.27-1.41,5.58,1.13,10.26,1.53,2.85,10,10,13.87,12.57,6.22,4.13,19.77,10.29,33.29,14.49,8.43,2.61,16.84,4.48,23.47,4.61" />
      <path class="GUNDAN_JAPANESE_SEROW_OUTFIT_JAPANESE_SEROW_OUTFIT_20_cls-6" d="M75.16,357.57l-2.61-4.25s.3-3,5.71-14.47c4.61-7.29,17.52-8,22.93-9,3.5-.63,1.63-7.36,4.12-9.08" />
      <path class="GUNDAN_JAPANESE_SEROW_OUTFIT_JAPANESE_SEROW_OUTFIT_20_cls-6" d="M88.72,347.21a36.72,36.72,0,0,0-10.9,0" />
      <path class="GUNDAN_JAPANESE_SEROW_OUTFIT_JAPANESE_SEROW_OUTFIT_20_cls-6" d="M190.07,366.52c-4.87,15.94-16.15,44.09-24.07,44.09-3,0-7.84-4.73-13.53-11.48-5-5.88-10.59-13.31-16.2-20.48-7.2-9.17-14.38-17.93-20.15-22.48-7.4-5.82-21.48-8.14-27.39-9" />
      <path class="GUNDAN_JAPANESE_SEROW_OUTFIT_JAPANESE_SEROW_OUTFIT_20_cls-6" d="M166,410.61c7.53,0,12-3.4,16.15-11,3.32-6.05,9.95-23.3,12.53-30.14" />
      <path class="GUNDAN_JAPANESE_SEROW_OUTFIT_JAPANESE_SEROW_OUTFIT_20_cls-6" d="M112.39,341.35s37.6,23.32,40.08,57.78" />
      <path class="GUNDAN_JAPANESE_SEROW_OUTFIT_JAPANESE_SEROW_OUTFIT_20_cls-6" d="M88.73,347.21h0a72.09,72.09,0,0,1-13.56,10.36,35.24,35.24,0,0,1-12.1,4.5,21.19,21.19,0,0,1-5.21.2c-3.8,10,.82,19.46,6.27,25.8" />
      <path class="GUNDAN_JAPANESE_SEROW_OUTFIT_JAPANESE_SEROW_OUTFIT_20_cls-6" d="M62,365.6a2.46,2.46,0,0,1,1.52-.63c1.77-.2,5.29.61,11.45,6.33A92.41,92.41,0,0,1,83,380c4,4.81,16.55,10.88,24.41,17.3,4.19,3.44,8.9,7,14.08,10.46,2.08,1.42,4.26,2.83,6.5,4.21,1.49.93,3,1.84,4.56,2.74a195.35,195.35,0,0,0,27.16,13.22c2.14.86,4.33,1.67,6.54,2.46,1.6.56,3.24,1.11,4.88,1.64,2.92.94,5.91,1.82,9,2.63,2.44.65,4.9,1.25,7.41,1.79a170.84,170.84,0,0,0,30.57,3.92c2,.06,10,.1,12,.1" />
      <path class="GUNDAN_JAPANESE_SEROW_OUTFIT_JAPANESE_SEROW_OUTFIT_20_cls-6" d="M74.92,371.3C72.47,375,67.84,382,64.12,388.07a84.84,84.84,0,0,0-4.84,8.79c-3.18,7.28,1.88,18.76,1.66,19.9-.11.53-2.26,2.86-4.48,6.38" />
      <path class="GUNDAN_JAPANESE_SEROW_OUTFIT_JAPANESE_SEROW_OUTFIT_20_cls-6" d="M51.83,434.59a31.7,31.7,0,0,1,4.63-11.45C76.9,441,95,444.42,108.51,445.13c2.35.13,4.54.17,6.59.2-1.08,2.14-.71,5.41-.34,9.13.13,1.25.25,2.56.33,3.9a11.05,11.05,0,0,1-.53,3.92,14.93,14.93,0,0,1-3.13,5.48" />
      <path class="GUNDAN_JAPANESE_SEROW_OUTFIT_JAPANESE_SEROW_OUTFIT_20_cls-6" d="M86.73,415.74c.31.55,7.78,13.39,9.85,20.79" />
      <path class="GUNDAN_JAPANESE_SEROW_OUTFIT_JAPANESE_SEROW_OUTFIT_20_cls-6" d="M86.72,415.73h0c.25.14,4.47,2.67,10.85,11.48a157,157,0,0,1,10.93,17.91" />
      <path class="GUNDAN_JAPANESE_SEROW_OUTFIT_JAPANESE_SEROW_OUTFIT_20_cls-6" d="M132.55,414.71a29.71,29.71,0,0,0,.68,25.76c.33.64.64,1.28.93,1.89.85,1.76,1.57,3.41,2.17,5" />
      <path class="GUNDAN_JAPANESE_SEROW_OUTFIT_JAPANESE_SEROW_OUTFIT_20_cls-6" d="M117.57,500.59c8.77-.8,12.73-16.61,15.37-30.15s-1.76-20.87-6.44-33.91c-3.48-9.67-.34-19.92,1.49-24.56" />
      <path class="GUNDAN_JAPANESE_SEROW_OUTFIT_JAPANESE_SEROW_OUTFIT_20_cls-7" d="M169.47,450.34a46.67,46.67,0,0,0-2.72-9.53A58.39,58.39,0,0,0,163,433.1c-1.19-2.09-2.34-3.83-3.28-5.17" />
      <path class="GUNDAN_JAPANESE_SEROW_OUTFIT_JAPANESE_SEROW_OUTFIT_20_cls-7" d="M175.56,443c-.39-1.33-.81-2.6-1.28-3.85a63,63,0,0,0-3.15-7.08" />
      <path class="GUNDAN_JAPANESE_SEROW_OUTFIT_JAPANESE_SEROW_OUTFIT_20_cls-6" d="M136.27,378.65c-2.41,4.8-7.59,12.84-16.44,16.64a26.47,26.47,0,0,1-12.42,2" />
      <path class="GUNDAN_JAPANESE_SEROW_OUTFIT_JAPANESE_SEROW_OUTFIT_20_cls-6" d="M230.06,431.3c-24.06,0-49.92-4.27-65.71-10h0c-2.1-.75-4.12-1.53-6.08-2.34-20.86-8.52-33.57-19.15-38.43-23.7" />
      <path class="GUNDAN_JAPANESE_SEROW_OUTFIT_JAPANESE_SEROW_OUTFIT_20_cls-6" d="M111.43,405.5c-1.06,11.71,3.67,39.83,3.67,39.83s2.93-23.72,6.39-37.57" />
      <path class="GUNDAN_JAPANESE_SEROW_OUTFIT_JAPANESE_SEROW_OUTFIT_20_cls-6" d="M152.47,347.8s17.42,15.95,22,31.47" />
      <path class="GUNDAN_JAPANESE_SEROW_OUTFIT_JAPANESE_SEROW_OUTFIT_20_cls-6" d="M130.94,297.4s4.28,10.13,7.35,13.53" />
      <path class="GUNDAN_JAPANESE_SEROW_OUTFIT_JAPANESE_SEROW_OUTFIT_20_cls-6" d="M106.37,309.27s11.35,16.76,28,21.32a119.82,119.82,0,0,1,29.69,12.88" />
      <path class="GUNDAN_JAPANESE_SEROW_OUTFIT_JAPANESE_SEROW_OUTFIT_20_cls-6" d="M138,425.51s-2.42,10.29-3.79,16.85" />
      <ellipse class="GUNDAN_JAPANESE_SEROW_OUTFIT_JAPANESE_SEROW_OUTFIT_20_cls-6" cx="81" cy="365.48" rx="3.4" ry="3.53" />
      <path class="GUNDAN_JAPANESE_SEROW_OUTFIT_JAPANESE_SEROW_OUTFIT_20_cls-6" d="M114.67,389.62a3.4,3.4,0,1,1-3.39-3.53A3.45,3.45,0,0,1,114.67,389.62Z" />
      <path class="GUNDAN_JAPANESE_SEROW_OUTFIT_JAPANESE_SEROW_OUTFIT_20_cls-6" d="M188.91,345.6a5.22,5.22,0,0,0-.38.47,14.49,14.49,0,0,0-3.35,12.28,13.54,13.54,0,0,0,2,4.85,16,16,0,0,0,2.92,3.32,17.69,17.69,0,0,0,4.61,2.92,18.69,18.69,0,0,0,1.75.69,19,19,0,0,0,5.76.91,18,18,0,0,0,5.76-.94,19.52,19.52,0,0,0,3.89-1.77c1.36-.81,3-1.78,4.65-2.8l.9-.56c1.12-.69,2.24-1.39,3.3-2.07l1.17-.75" />
      <path class="GUNDAN_JAPANESE_SEROW_OUTFIT_JAPANESE_SEROW_OUTFIT_20_cls-6" d="M219.05,338.8a28.6,28.6,0,0,0-7.27-2,27.21,27.21,0,0,0-4.46-.22,24.62,24.62,0,0,0-8.38,1.86,27.16,27.16,0,0,0-7,4.23,21.81,21.81,0,0,0-3,2.9" />
      <path class="GUNDAN_JAPANESE_SEROW_OUTFIT_JAPANESE_SEROW_OUTFIT_20_cls-6" d="M221.65,340c-.81-.43-1.68-.84-2.6-1.22" />
      <path class="GUNDAN_JAPANESE_SEROW_OUTFIT_JAPANESE_SEROW_OUTFIT_20_cls-6" d="M218.91,355.19l-4.44,2.6-2.35,1.38-4,2.39a12,12,0,0,1-2,.93,11.55,11.55,0,0,1-8.2-.13,9.58,9.58,0,0,1-4.54-3.53,5.61,5.61,0,0,1-1-3.5,8.5,8.5,0,0,1,2.69-5.15l.46-.45c.35-.33.69-.63,1-.89a21,21,0,0,1,4.16-2.67,17.15,17.15,0,0,1,7.63-1.79,21.17,21.17,0,0,1,9.46,2.4l1,.56" />
      <path class="GUNDAN_JAPANESE_SEROW_OUTFIT_JAPANESE_SEROW_OUTFIT_20_cls-6" d="M219.05,338.8h0c.88,2.41,1.19,5.52-1.24,8" />
      <path class="GUNDAN_JAPANESE_SEROW_OUTFIT_JAPANESE_SEROW_OUTFIT_20_cls-6" d="M207.32,336.61c1.5,1.68,3,4.45,1,7.77" />
      <path class="GUNDAN_JAPANESE_SEROW_OUTFIT_JAPANESE_SEROW_OUTFIT_20_cls-6" d="M198.94,338.47c1.1,1.85,2.43,4.83,1.78,7.7" />
      <path class="GUNDAN_JAPANESE_SEROW_OUTFIT_JAPANESE_SEROW_OUTFIT_20_cls-6" d="M188.91,345.6h0c2.62-.36,5.49.26,6.64,4.13" />
      <path class="GUNDAN_JAPANESE_SEROW_OUTFIT_JAPANESE_SEROW_OUTFIT_20_cls-6" d="M185.18,358.35c1.74-2.71,5-3.11,7.23-3" />
      <path class="GUNDAN_JAPANESE_SEROW_OUTFIT_JAPANESE_SEROW_OUTFIT_20_cls-6" d="M196.43,370.13a8.35,8.35,0,0,1,1.5-7.77" />
      <path class="GUNDAN_JAPANESE_SEROW_OUTFIT_JAPANESE_SEROW_OUTFIT_20_cls-6" d="M208,370.1a10.25,10.25,0,0,1-1.82-7.61" />
      <path class="GUNDAN_JAPANESE_SEROW_OUTFIT_JAPANESE_SEROW_OUTFIT_20_cls-6" d="M214.47,357.79a18.59,18.59,0,0,0,.21,2.55h0a12.94,12.94,0,0,0,1.8,5.19" />
      <path class="GUNDAN_JAPANESE_SEROW_OUTFIT_JAPANESE_SEROW_OUTFIT_20_cls-6" d="M163,433.1a10.83,10.83,0,0,1,3.26-2.71" />
      <path class="GUNDAN_JAPANESE_SEROW_OUTFIT_JAPANESE_SEROW_OUTFIT_20_cls-6" d="M204.13,412.2s4.3-21.48,9.86-34.61" />
      <path class="GUNDAN_JAPANESE_SEROW_OUTFIT_JAPANESE_SEROW_OUTFIT_20_cls-6" d="M208,412.94s5.41-26.93,9-35.87" />
      <path class="GUNDAN_JAPANESE_SEROW_OUTFIT_JAPANESE_SEROW_OUTFIT_20_cls-6" d="M218.43,377.59s-6.2,25.24-5.77,35.16" />
      <path class="GUNDAN_JAPANESE_SEROW_OUTFIT_JAPANESE_SEROW_OUTFIT_20_cls-6" d="M216.12,412.15s1-21.72,4.23-30.64" />
      <path class="GUNDAN_JAPANESE_SEROW_OUTFIT_JAPANESE_SEROW_OUTFIT_20_cls-6" d="M232,362.4l.32,1a79.25,79.25,0,0,1,3,14.45" />
      <path class="GUNDAN_JAPANESE_SEROW_OUTFIT_JAPANESE_SEROW_OUTFIT_20_cls-6" d="M236.72,365a84.19,84.19,0,0,1,2.35,12.17" />
      <path class="GUNDAN_JAPANESE_SEROW_OUTFIT_JAPANESE_SEROW_OUTFIT_20_cls-6" d="M250,412.21a6.84,6.84,0,0,0,2.24-1.26,126.15,126.15,0,0,0-4.45-19.38c-2.35-7.18-4.67-12.32-7.64-14a5.24,5.24,0,0,0-1.06-.43h0a4.39,4.39,0,0,0-1.88-.07,5.05,5.05,0,0,0-1.51.51,2.84,2.84,0,0,0-.34.22c-1,.76-1.45,2-1.58,3.71-.16,2.07.09,4.8.14,8.13.11,7.34,2.21,18.48,1.49,21.83.67.21,1.56.46,2.6.69s2.22.44,3.47.6a27.38,27.38,0,0,0,4.71.18A12.89,12.89,0,0,0,250,412.21Z" />
      <path class="GUNDAN_JAPANESE_SEROW_OUTFIT_JAPANESE_SEROW_OUTFIT_20_cls-6" d="M259,350.18a183.49,183.49,0,0,1-17,9" />
      <path class="GUNDAN_JAPANESE_SEROW_OUTFIT_JAPANESE_SEROW_OUTFIT_20_cls-6" d="M265.59,346.07c36.35-23.85,55.52-53.47,55.52-53.47s-10.55-1.7-16.11-4.12c-15.68,14.58-45.89,37.53-62.66,48.35" />
      <path class="GUNDAN_JAPANESE_SEROW_OUTFIT_JAPANESE_SEROW_OUTFIT_20_cls-6" d="M321.11,292.6,320,300.82l4.72,5.23s17.1,6.57,19.18,8.61c1.3,1.28,1.41,5.58-1.13,10.27a23.68,23.68,0,0,1-7.87,8.38c-6.21,4.13-19.76,10.29-33.28,14.49-8.42,2.61-16.83,4.48-23.46,4.61" />
      <path class="GUNDAN_JAPANESE_SEROW_OUTFIT_JAPANESE_SEROW_OUTFIT_20_cls-6" d="M342.79,324.93c2.49,1.71,6.63,4.26,10.14,4.89,5.41,1,15.24,1.74,19.84,9,5.41,11.51,5.72,14.47,5.72,14.47l-2.62,4.25" />
      <path class="GUNDAN_JAPANESE_SEROW_OUTFIT_JAPANESE_SEROW_OUTFIT_20_cls-6" d="M358.9,347.21a43.21,43.21,0,0,0-20.9,9c-5.78,4.55-13,13.31-20.15,22.48-5.61,7.17-11.24,14.6-16.21,20.48-5.68,6.75-10.53,11.48-13.52,11.48-7.92,0-19.21-28.15-24.08-44.09" />
      <path class="GUNDAN_JAPANESE_SEROW_OUTFIT_JAPANESE_SEROW_OUTFIT_20_cls-6" d="M373.21,347.18a69.1,69.1,0,0,0-14.3,0" />
      <path class="GUNDAN_JAPANESE_SEROW_OUTFIT_JAPANESE_SEROW_OUTFIT_20_cls-6" d="M259.44,369.44c2.58,6.84,9.21,24.09,12.52,30.14,4.17,7.63,8.63,11,16.16,11" />
      <path class="GUNDAN_JAPANESE_SEROW_OUTFIT_JAPANESE_SEROW_OUTFIT_20_cls-6" d="M341.73,341.35s-37.61,23.32-40.09,57.78" />
      <path class="GUNDAN_JAPANESE_SEROW_OUTFIT_JAPANESE_SEROW_OUTFIT_20_cls-6" d="M386.91,388.07c5.45-6.34,10.07-15.76,6.28-25.8a21.15,21.15,0,0,1-5.21-.2,35.21,35.21,0,0,1-12.11-4.5c-5.62-3.21-13.86-7.39-17-10.36h0" />
      <path class="GUNDAN_JAPANESE_SEROW_OUTFIT_JAPANESE_SEROW_OUTFIT_20_cls-6" d="M389.08,365.6a2.46,2.46,0,0,0-1.52-.63c-1.78-.2-5.3.6-11.45,6.33A91.09,91.09,0,0,0,368,380c-4,4.81-13.46,10.88-21.32,17.3-4.19,3.44-8.9,7-14.07,10.46-2.1,1.42-4.26,2.83-6.51,4.21q-2.22,1.39-4.55,2.74a195.35,195.35,0,0,1-27.16,13.22c-2.15.86-4.33,1.67-6.54,2.46q-2.42.84-4.88,1.64c-2.93.94-5.92,1.82-8.95,2.63-2.44.65-4.9,1.25-7.41,1.79a171,171,0,0,1-30.57,3.92c-2,.06-4,.1-6,.1" />
      <path class="GUNDAN_JAPANESE_SEROW_OUTFIT_JAPANESE_SEROW_OUTFIT_20_cls-6" d="M397.66,423.14c-2.23-3.52-4.37-5.85-4.49-6.38-.21-1.14,1.76-12.62-1.41-19.9a87.25,87.25,0,0,0-4.85-8.79c-3.72-6.1-8.35-13.12-10.8-16.77" />
      <path class="GUNDAN_JAPANESE_SEROW_OUTFIT_JAPANESE_SEROW_OUTFIT_20_cls-6" d="M342.68,467.76a15,15,0,0,1-3.12-5.48,10.83,10.83,0,0,1-.53-3.92c.07-1.34.2-2.65.32-3.9.38-3.72.75-7-.33-9.13,2,0,4.24-.07,6.59-.2,13.47-.71,31.61-4.18,52.05-22a31.7,31.7,0,0,1,4.63,11.45" />
      <path class="GUNDAN_JAPANESE_SEROW_OUTFIT_JAPANESE_SEROW_OUTFIT_20_cls-6" d="M357.53,436.53c2.07-7.4,9.54-20.24,9.86-20.79" />
      <path class="GUNDAN_JAPANESE_SEROW_OUTFIT_JAPANESE_SEROW_OUTFIT_20_cls-6" d="M345.61,445.13a154.09,154.09,0,0,1,10.93-17.91c6.38-8.81,10.6-11.34,10.85-11.48h0" />
      <path class="GUNDAN_JAPANESE_SEROW_OUTFIT_JAPANESE_SEROW_OUTFIT_20_cls-6" d="M346.56,487.7h0c-2.35,4.78-5.9,9.8-10,12.88a14,14,0,0,1-6.59,2.94c-4.68.6-7.73-4.59-9.87-11.38-.76-2.42-1.41-5-2-7.68-.61-2.91-1.13-5.84-1.59-8.53s-.91-5.17-1.21-7.57a45.37,45.37,0,0,1-.44-7.8,39.89,39.89,0,0,1,2.93-13.23h0c.6-1.56,1.31-3.21,2.17-5,.29-.61.6-1.25.93-1.89a29.75,29.75,0,0,0,.68-25.76" />
      <path class="GUNDAN_JAPANESE_SEROW_OUTFIT_JAPANESE_SEROW_OUTFIT_20_cls-6" d="M326.12,412c1.84,4.64,5,14.89,1.5,24.56-4.69,13-9.07,20.36-6.44,33.91s6.6,29.35,15.36,30.15" />
      <path class="GUNDAN_JAPANESE_SEROW_OUTFIT_JAPANESE_SEROW_OUTFIT_20_cls-7" d="M294.41,427.93c-.94,1.34-2.1,3.08-3.29,5.17a59.68,59.68,0,0,0-3.75,7.71,47.32,47.32,0,0,0-2.73,9.53" />
      <path class="GUNDAN_JAPANESE_SEROW_OUTFIT_JAPANESE_SEROW_OUTFIT_20_cls-7" d="M283,432a63,63,0,0,0-3.15,7.08c-.47,1.25-.9,2.52-1.28,3.85" />
      <path class="GUNDAN_JAPANESE_SEROW_OUTFIT_JAPANESE_SEROW_OUTFIT_20_cls-6" d="M346.71,397.3h0a26.49,26.49,0,0,1-12.42-2c-8.85-3.8-14-11.84-16.43-16.64" />
      <path class="GUNDAN_JAPANESE_SEROW_OUTFIT_JAPANESE_SEROW_OUTFIT_20_cls-6" d="M334.28,395.29c-4.86,4.55-17.56,15.18-38.43,23.7q-2.93,1.22-6.07,2.34h0c-15.8,5.7-35.66,10-59.71,10" />
      <path class="GUNDAN_JAPANESE_SEROW_OUTFIT_JAPANESE_SEROW_OUTFIT_20_cls-6" d="M332.63,407.76c3.46,13.85,6.39,37.57,6.39,37.57s4.73-28.12,3.66-39.83" />
      <path class="GUNDAN_JAPANESE_SEROW_OUTFIT_JAPANESE_SEROW_OUTFIT_20_cls-6" d="M301.64,347.8s-17.41,15.95-22,31.47" />
      <path class="GUNDAN_JAPANESE_SEROW_OUTFIT_JAPANESE_SEROW_OUTFIT_20_cls-6" d="M320,300.82s-7.14,10.89-10.22,14.3" />
      <path class="GUNDAN_JAPANESE_SEROW_OUTFIT_JAPANESE_SEROW_OUTFIT_20_cls-6" d="M341.73,313.45s-5.34,12.58-22,17.14A119.82,119.82,0,0,0,290,343.47" />
      <path class="GUNDAN_JAPANESE_SEROW_OUTFIT_JAPANESE_SEROW_OUTFIT_20_cls-6" d="M316.17,425.51s2.41,10.29,3.79,16.85" />
      <ellipse class="GUNDAN_JAPANESE_SEROW_OUTFIT_JAPANESE_SEROW_OUTFIT_20_cls-6" cx="370.04" cy="365.48" rx="3.4" ry="3.53" />
      <ellipse class="GUNDAN_JAPANESE_SEROW_OUTFIT_JAPANESE_SEROW_OUTFIT_20_cls-6" cx="342.83" cy="389.62" rx="3.4" ry="3.53" />
      <path class="GUNDAN_JAPANESE_SEROW_OUTFIT_JAPANESE_SEROW_OUTFIT_20_cls-6" d="M235.29,347.34l1-.56a21.12,21.12,0,0,1,9.45-2.4,17.19,17.19,0,0,1,7.64,1.79,20.7,20.7,0,0,1,4.15,2.67c.32.26.65.56,1,.89l.46.45a8.55,8.55,0,0,1,2.69,5.15,5.67,5.67,0,0,1-1,3.5,9.56,9.56,0,0,1-4.55,3.53,11.52,11.52,0,0,1-8.19.13,12,12,0,0,1-2-.93l-4-2.39-2.35-1.38-4.44-2.6" />
      <path class="GUNDAN_JAPANESE_SEROW_OUTFIT_JAPANESE_SEROW_OUTFIT_20_cls-6" d="M235.07,338.81a28.57,28.57,0,0,0-2.6,1.22" />
      <path class="GUNDAN_JAPANESE_SEROW_OUTFIT_JAPANESE_SEROW_OUTFIT_20_cls-6" d="M265.2,345.6a21.81,21.81,0,0,0-3-2.9,27.16,27.16,0,0,0-7-4.23,24.67,24.67,0,0,0-8.39-1.86,27.09,27.09,0,0,0-4.45.22,28.6,28.6,0,0,0-7.27,2" />
      <path class="GUNDAN_JAPANESE_SEROW_OUTFIT_JAPANESE_SEROW_OUTFIT_20_cls-6" d="M232.26,362.15c.37.25.76.49,1.16.75l3.3,2.07.91.56c1.67,1,3.29,2,4.64,2.8a19.59,19.59,0,0,0,3.9,1.77,18,18,0,0,0,5.76.94,19,19,0,0,0,5.76-.91,18.69,18.69,0,0,0,1.75-.69,17.64,17.64,0,0,0,4.6-2.92A16.09,16.09,0,0,0,267,363.2a13.72,13.72,0,0,0,2-4.85,14.53,14.53,0,0,0-3.35-12.28c-.12-.16-.24-.31-.38-.47" />
      <path class="GUNDAN_JAPANESE_SEROW_OUTFIT_JAPANESE_SEROW_OUTFIT_20_cls-6" d="M236.31,346.78c-2.44-2.45-2.12-5.56-1.24-8h0" />
      <path class="GUNDAN_JAPANESE_SEROW_OUTFIT_JAPANESE_SEROW_OUTFIT_20_cls-6" d="M245.76,344.38c-2-3.32-.46-6.09,1-7.77" />
      <path class="GUNDAN_JAPANESE_SEROW_OUTFIT_JAPANESE_SEROW_OUTFIT_20_cls-6" d="M253.4,346.17c-.66-2.87.67-5.85,1.78-7.7" />
      <path class="GUNDAN_JAPANESE_SEROW_OUTFIT_JAPANESE_SEROW_OUTFIT_20_cls-6" d="M258.56,349.73c1.15-3.87,4-4.49,6.64-4.13h0" />
      <path class="GUNDAN_JAPANESE_SEROW_OUTFIT_JAPANESE_SEROW_OUTFIT_20_cls-6" d="M261.71,355.33c2.21-.09,5.48.31,7.23,3" />
      <path class="GUNDAN_JAPANESE_SEROW_OUTFIT_JAPANESE_SEROW_OUTFIT_20_cls-6" d="M256.18,362.36a8.38,8.38,0,0,1,1.51,7.77" />
      <path class="GUNDAN_JAPANESE_SEROW_OUTFIT_JAPANESE_SEROW_OUTFIT_20_cls-6" d="M248,362.49a10.3,10.3,0,0,1-1.82,7.61" />
      <path class="GUNDAN_JAPANESE_SEROW_OUTFIT_JAPANESE_SEROW_OUTFIT_20_cls-6" d="M237.63,365.53a12.78,12.78,0,0,0,1.79-5.19h0a20.32,20.32,0,0,0,.21-2.55" />
      <path class="GUNDAN_JAPANESE_SEROW_OUTFIT_JAPANESE_SEROW_OUTFIT_20_cls-6" d="M287.87,430.39a10.78,10.78,0,0,1,3.25,2.71" />
      <path class="GUNDAN_JAPANESE_SEROW_OUTFIT_JAPANESE_SEROW_OUTFIT_20_cls-6" d="M250,412.2s-4.29-21.48-9.85-34.61" />
      <path class="GUNDAN_JAPANESE_SEROW_OUTFIT_JAPANESE_SEROW_OUTFIT_20_cls-6" d="M246.17,412.94s-5.42-26.93-9-35.87" />
      <path class="GUNDAN_JAPANESE_SEROW_OUTFIT_JAPANESE_SEROW_OUTFIT_20_cls-6" d="M235.68,377.59s6.2,25.24,5.78,35.16" />
      <path class="GUNDAN_JAPANESE_SEROW_OUTFIT_JAPANESE_SEROW_OUTFIT_20_cls-6" d="M238,412.15s-1-21.72-4.23-30.64" />
      <path class="GUNDAN_JAPANESE_SEROW_OUTFIT_JAPANESE_SEROW_OUTFIT_20_cls-6" d="M235.29,347.34a25,25,0,0,1,.25,3.65,25.54,25.54,0,0,1-.33,4.2c-.52,3.12-1.6,5.65-3,7l-.27.25a3,3,0,0,1-1.93.78c-.68,0-7.33-.28-7.94-.78l-.26-.25c-1.37-1.31-2.43-3.84-3-7a24.47,24.47,0,0,1-.34-4.2,26.49,26.49,0,0,1,.25-3.65c.45-3.21,1.48-5.85,2.83-7.31.73-.79,7.54-1.23,8.41-1.23a3.33,3.33,0,0,1,2.41,1.23C233.8,341.49,234.84,344.13,235.29,347.34Z" />
      <g class="GUNDAN_JAPANESE_SEROW_OUTFIT_JAPANESE_SEROW_OUTFIT_20_cls-8">
        <path d="M139.35,285.35s33.42,36.36,50.72,45.91c-24.92-14.43-37.41-23.05-37.41-23.05s33.41,27.42,41.87,32.57c.57,5.49,3.51,2.49,4.12,6.55s8.67,6.45,8.67,6.45l8,3.54-3.15,1.85s-22.46-9.6-46.56-30.75-35.71-39.24-35.71-39.24Z" />
        <path d="M130.62,297.76l-4.2,4.93-20.58,6.81a3.27,3.27,0,0,0-2.56,3.72,44.08,44.08,0,0,0,2,7.89s-1,8.09-6.24,9.09-16.48,2.71-19.67,6.86-6.85,16.26-6.85,16.26l2.37,4.39S68.79,362,63.79,362s-5.94.32-5.94.32-2.82,8.38.53,15.55,5.37,9.8,5.37,9.8-5.24,9.66-6.6,15.48,4.53,12.83,2.91,15a39,39,0,0,0-8.56,20.09A138.31,138.31,0,0,0,41,457l4.58,1.63s.57,4.54-1.62,6.3-6.71,5-7.58,8.31c7-2.78,25.9-2.78,25.9-2.78s-28,10.17-28.13,10.46-3.35,5.05-3.35,5.05v7.74l-3,12.75h98.89l2.14-4.42s2.55-8.09,5.25-20.21,3.71-29.74-.81-40.11-3.58-24.24-2.19-27.88c17,7.73,54.42,29.54,111.93,26-18-1.7-58.62-6.22-80.23-19.08,57.15,11.7,101.31,7.19,101.31,7.19s-60.5-10.71-69.66-22.43,7.88-34.44,7.88-34.44-13.09-2.4-16.49-10.59a13.15,13.15,0,0,1,2.44-14S159,324,146.59,311.31s-16-21-16-21Z" />
        <path d="M168.09,431s8.3,16.41,5,31.27-20.89,30.11-37.93,23.47l.76-1s22.37,2.51,30.88-14.71-2.3-36.21-8.05-42.86C165.76,429.94,168.09,431,168.09,431Z" />
        <path d="M307.83,289.61s-61.69,55-37.41,38.85S297.33,310,297.33,310l-34.95,32.28,3.21,3.75s47.72-36.19,55.18-53.47C316.49,293,307.83,289.61,307.83,289.61Z" />
        <path d="M321.57,414.71s6.46,11.44-.19,23.9-7.61,23.13-5.31,35.1,5.07,28.47,11.42,29.58,8.4-2.22,8.4-2.22-11.44-4.46-13.86-20-4.27-28.74,1.16-39.89,5.53-22.59,2.63-29.23C324.65,412.88,321.57,414.71,321.57,414.71Z" />
      </g>
    </g>
  </g>
</svg>