<svg xmlns="http://www.w3.org/2000/svg" viewBox="0 0 432 432">
  <defs>
    <style>.GUNDAN_JAPANESE_SEROW_OUTFIT_JAPANESE_SEROW_OUTFIT_12_cls-1{isolation:isolate;}.GUNDAN_JAPANESE_SEROW_OUTFIT_JAPANESE_SEROW_OUTFIT_12_cls-2{fill:#fff;}.GUNDAN_JAPANESE_SEROW_OUTFIT_JAPANESE_SEROW_OUTFIT_12_cls-3{fill:#d7ead0;}.GUNDAN_JAPANESE_SEROW_OUTFIT_JAPANESE_SEROW_OUTFIT_12_cls-4{fill:#6f5d49;}.GUNDAN_JAPANESE_SEROW_OUTFIT_JAPANESE_SEROW_OUTFIT_12_cls-5{fill:#d7af71;}.GUNDAN_JAPANESE_SEROW_OUTFIT_JAPANESE_SEROW_OUTFIT_12_cls-6{fill:#add75b;}.GUNDAN_JAPANESE_SEROW_OUTFIT_JAPANESE_SEROW_OUTFIT_12_cls-7{fill:#272621;}.GUNDAN_JAPANESE_SEROW_OUTFIT_JAPANESE_SEROW_OUTFIT_12_cls-8{fill:#272123;}.GUNDAN_JAPANESE_SEROW_OUTFIT_JAPANESE_SEROW_OUTFIT_12_cls-9{fill:#744c1e;}.GUNDAN_JAPANESE_SEROW_OUTFIT_JAPANESE_SEROW_OUTFIT_12_cls-10{fill:#eaded0;}.GUNDAN_JAPANESE_SEROW_OUTFIT_JAPANESE_SEROW_OUTFIT_12_cls-11{fill:none;stroke:#000;stroke-linecap:round;stroke-linejoin:round;stroke-width:1.78px;}.GUNDAN_JAPANESE_SEROW_OUTFIT_JAPANESE_SEROW_OUTFIT_12_cls-12{opacity:0.22;mix-blend-mode:multiply;}</style>
  </defs>
  <g class="GUNDAN_JAPANESE_SEROW_OUTFIT_JAPANESE_SEROW_OUTFIT_12_cls-1">
    <g id="outfit">
      <path class="GUNDAN_JAPANESE_SEROW_OUTFIT_JAPANESE_SEROW_OUTFIT_12_cls-2" d="M315.84,377.16a11,11,0,0,0-1.64-2.78,15.27,15.27,0,0,0-1.06-1.17,9.87,9.87,0,0,0-6.25-2.78,15.69,15.69,0,0,0-3.94.27c-1.07.21-2,.47-2.81.7l-.17,0a15.1,15.1,0,0,0-3.39,1.63c-.48.28-1,.59-1.48.92-2.49,1.6-5.19,3.62-7.16,5.13l-2.11,1.68a2,2,0,0,0-.32,3l4.23,4.86.07.09,0,0a2.68,2.68,0,0,0,1,.69l-.13.32,4.31,5a2.56,2.56,0,0,0,1.08.73,3,3,0,0,0,1.13.21,3.34,3.34,0,0,0,.94-.14c.39-.13.82-.27,1.25-.44a46,46,0,0,0,5.88-2.94c3.86-2.22,7.34-4.7,7.94-5.12a1.41,1.41,0,0,0,.23-.18A9.43,9.43,0,0,0,316,383,8.17,8.17,0,0,0,315.84,377.16Zm-5.12,4.7a5.08,5.08,0,0,1-1.16,1.85c-1.05.75-2.85,2-4.87,3.24-.83.51-1.72,1.05-2.59,1.56-1.15.66-2.28,1.27-3.33,1.77l-.61.28-2.29-2.62,2.42-1.43L300.9,385a2,2,0,0,0,.65-3.17,3.08,3.08,0,0,0-3.8-.53l-.07,0-5,2.95-1.35-1.55c.78-.6,1.57-1.2,2.35-1.78s1.68-1.24,2.48-1.81l1.18-.82a21.53,21.53,0,0,1,4.37-2.55l.17,0c.6-.17,1.16-.31,1.68-.44,2.6-.61,4.36-.54,6.11,1.64a4.47,4.47,0,0,1,.42.58A4.67,4.67,0,0,1,310.72,381.86Z" />
      <path class="GUNDAN_JAPANESE_SEROW_OUTFIT_JAPANESE_SEROW_OUTFIT_12_cls-3" d="M400.43,318.26l.75,3.19a58.38,58.38,0,0,0-4.13,7.56,25.84,25.84,0,0,0-1.34,6.53h0c-3.49.72-9.92,2.16-10.5,3.29s5.92,3.7,9.65,5.07c-.5,5.39-1.06,10.5-2.1,12.25A88.44,88.44,0,0,1,384,367.89c-3.29-1.37-8.84-3.53-10.11-3s2,6.76,3.7,9.68c-.31.31-.64.63-1,.94-5.06,4.66-13.28,7.77-23.37,11.14-2.11-2.52-5.48-6.26-6.83-6.29s-2,5.89-2.27,9.31c-3.15,1.05,9.6,2.17,6.22,3.39A87.18,87.18,0,0,1,328,398.41c-1-2.93-3-7.81-4.27-8.22s-4.18,5.05-5.68,8.23c-2.18-.17-4.24-.45-6.25-.77-3.91-.62-5.68-2.78-6.5-5.49,3.86-2.22,7.34-4.7,7.94-5.12a2,2,0,0,0,.23-.18A9.64,9.64,0,0,0,316,383a64.25,64.25,0,0,0,11.18,1,63.41,63.41,0,0,0,25-5c13.56-5.88,7.25-16.19,15.81-25.29,4-4.21,8.09-8.57,11.11-13.58,3.5-5.84,4.88-11.73,4-17a17.59,17.59,0,0,0-.83-3.15c3.3-.09,6.26-.3,8.8-.57C394.6,319,397.74,318.59,400.43,318.26Z" />
      <path class="GUNDAN_JAPANESE_SEROW_OUTFIT_JAPANESE_SEROW_OUTFIT_12_cls-3" d="M312.1,337.56c.86-8.72-.26-18.28-1-23.12,4-3.48,7.32-6,9.18-7.33,0,0,9.91,5.55,8.71,17s-7.62,15.18-10.24,13.89-3-9,2.32-11.41c-4,1-7.49,6.33-7.9,11.07Z" />
      <path class="GUNDAN_JAPANESE_SEROW_OUTFIT_JAPANESE_SEROW_OUTFIT_12_cls-4" d="M297.68,381.31c-.06-.56-.13-1.1-.19-1.6a7.49,7.49,0,0,0-1.33-.59c-.81.57-1.64,1.17-2.49,1.81s-1.57,1.18-2.34,1.78l1.35,1.55Z" />
      <path class="GUNDAN_JAPANESE_SEROW_OUTFIT_JAPANESE_SEROW_OUTFIT_12_cls-4" d="M298.3,386.51l-2.43,1.43,2.29,2.62.62-.28C298.61,389,298.45,387.77,298.3,386.51Z" />
      <path class="GUNDAN_JAPANESE_SEROW_OUTFIT_JAPANESE_SEROW_OUTFIT_12_cls-4" d="M295.05,394.74l-4.31-5-.89-1s0,0,0,0l-.07-.09-4.22-4.86a2,2,0,0,1,.31-3l2.11-1.68a10.47,10.47,0,0,0-3,1.68,364.2,364.2,0,0,1-30.05,21.83c-1,.69-2.09,1.36-3.13,2-6.31,4-12.64,7.85-18.92,11.42-3.67,2.09-6,4.09-9.67,6h0q-7.42,3.95-14.67,7.46a499.9,499.9,0,0,1-77.75,30.22c-4.12,1.21-7.31,2.06-9.4,2.59-1.75.46-2.73.7-2.84.72-5.44,1.24-8.65,5.93-7.15,10.46,1.16,3.55,4.85,6,9,6.24.28,0,.57,0,.86,0a12.71,12.71,0,0,0,2.71-.3c.52-.12,2.54-.59,5.84-1.46a498.15,498.15,0,0,0,81.4-30h0c5.49-2.57,11.13-5.33,16.84-8.28,6.44-3.32,11.73-6.87,18.33-10.69h0c2-1.13,3.93-2.29,5.91-3.48h0a409.07,409.07,0,0,0,43.83-30.13A2.69,2.69,0,0,1,295.05,394.74Z" />
      <path class="GUNDAN_JAPANESE_SEROW_OUTFIT_JAPANESE_SEROW_OUTFIT_12_cls-5" d="M252.63,398.21c-.36,2.24-.64,4.41-.88,6.44,1-.66,2.09-1.33,3.13-2A10.39,10.39,0,0,1,252.63,398.21Z" />
      <path class="GUNDAN_JAPANESE_SEROW_OUTFIT_JAPANESE_SEROW_OUTFIT_12_cls-6" d="M300.25,399a33.11,33.11,0,0,1-.79-3.93c-.44.17-.86.31-1.26.44a3.33,3.33,0,0,1-.94.13,3.06,3.06,0,0,1-1.13-.2A409.07,409.07,0,0,1,252.3,425.6,62.51,62.51,0,0,1,266.25,424c11.76,0,36.24-2.52,37.82-19.06.09-1,.16-2,.23-3.09C302,400.87,300.51,399.87,300.25,399Z" />
      <path class="GUNDAN_JAPANESE_SEROW_OUTFIT_JAPANESE_SEROW_OUTFIT_12_cls-6" d="M211.17,448.07h0c.58,4.46,1.18,9.39,1.72,14.49s1,10.38,1.37,15.48.55,10.2.52,14.68H240c0-4.46.18-9.47.53-14.68s.82-10.36,1.35-15.48c1.89-17.68,4.48-33.47,4.48-33.47-6.6,3.82-11.89,7.37-18.33,10.69C222.3,442.74,216.66,445.5,211.17,448.07Z" />
      <path class="GUNDAN_JAPANESE_SEROW_OUTFIT_JAPANESE_SEROW_OUTFIT_12_cls-6" d="M201.73,395.71c-.47,6.75-5.1,13-20.21,9.53s-20.17-15.75-22.87-32.68a21.83,21.83,0,0,0-31-16.82c24.15.92,20.66,32.7,22.24,49.24S176,424,187.73,424s19.49,3.24,19.49,3.24c-1.18-2.24-2.91-6.78-3.51-15A163.91,163.91,0,0,0,201.73,395.71Z" />
      <path class="GUNDAN_JAPANESE_SEROW_OUTFIT_JAPANESE_SEROW_OUTFIT_12_cls-7" d="M272.27,342c2.32-6.1,9-15,16.26-23.15-3.59,1.28-8,2.76-12,3.76-8.27,2.12-19.24,7.54-21.3,11.26,2.54,7.66,6.28,23.22-8.86,25.9,5.48-3.57,11-17,2.38-18.56s-9,14.68-9.78,18.56c-.57,3.15-2.81,25.05-7.54,37.46A26.55,26.55,0,0,1,228,404c-6.41-8-11.55-40.31-12.27-44.18-.3-1.61-.56-5.4-1.38-9.14-1.15-5.21-3.38-10.36-8.39-9.42-8.58,1.59-3.1,15,2.39,18.56-15.14-2.68-11.41-18.24-8.87-25.9-2.06-3.72-13-9.14-21.29-11.26-3.92-1-8.38-2.49-12-3.76,7.26,8.15,13.94,17.05,16.26,23.15,5,13.1,9.3,9.33,24.32,27.4s15.25,49.83,15.25,49.83l1.11,2.81c3.63-1.92,6-3.92,9.67-6,.51-8.51,3-32,15.13-46.63C263,351.37,267.26,355.14,272.27,342Z" />
      <path class="GUNDAN_JAPANESE_SEROW_OUTFIT_JAPANESE_SEROW_OUTFIT_12_cls-7" d="M269.26,363.68C259,370,254.65,385.22,252.63,398.19v0a10.39,10.39,0,0,0,2.25,4.42,364.2,364.2,0,0,0,30.05-21.83,10.47,10.47,0,0,1,3-1.68c2-1.51,4.67-3.53,7.17-5.13.08-.48.15-1,.23-1.43a24.1,24.1,0,0,1,.63-2.84c-.26-1.4-.59-3.08-1-5.12-1.75-9.12,5.08-8.46,10.65-23.29a33.49,33.49,0,0,0,.76-22.57,108.64,108.64,0,0,0-13.76,15.86C280.62,351.77,283.72,354.81,269.26,363.68Z" />
      <path class="GUNDAN_JAPANESE_SEROW_OUTFIT_JAPANESE_SEROW_OUTFIT_12_cls-7" d="M130.74,459.77a499.9,499.9,0,0,0,77.75-30.22c0-.29-.07-.45-.07-.45a9,9,0,0,1-1.2-1.82S199.49,424,187.73,424,151.5,421.52,149.9,405s1.91-48.32-22.24-49.24a21.83,21.83,0,0,1,31,16.82c2.7,16.93,7.79,29.24,22.87,32.68s19.74-2.78,20.21-9.53c-2.19-12.38-6.65-26.15-16.22-32-14.46-8.87-11.37-11.91-23.41-29.08s-32.46-28.23-32.46-28.23h0s-20.35,10.45-27.25,16.9c-5.22,4.89-17.42,9.87-27.79,14.58a130.55,130.55,0,0,1,18,12.93c12.15,10.32,36.71,47.64,38.48,67.3C131.9,427,131.46,444,130.74,459.77Z" />
      <path class="GUNDAN_JAPANESE_SEROW_OUTFIT_JAPANESE_SEROW_OUTFIT_12_cls-7" d="M322.88,418.08a47.17,47.17,0,0,1,2.51-10.76c-7.63-1-16.17-3.24-21.09-5.43-.07,1.08-.14,2.11-.24,3.09C302.48,421.52,278,424,266.25,424a62.44,62.44,0,0,0-13.95,1.56h0q-3,1.78-5.91,3.48h0s-2.59,15.79-4.47,33.47c-.53,5.12-1,10.39-1.35,15.48s-.56,10.22-.53,14.68h85.17C324.31,480.54,321.35,435,322.88,418.08Zm-67.76,59.45a4,4,0,0,1-3.55-1.95,2.84,2.84,0,0,1-.31-1.28c0-1.77,1.73-3.21,3.86-3.21s3.86,1.44,3.86,3.21S257.25,477.53,255.12,477.53Zm0-15.27a4,4,0,0,1-3.55-1.95,2.88,2.88,0,0,1-.31-1.28c0-1.77,1.73-3.21,3.86-3.21S259,457.26,259,459,257.25,462.26,255.12,462.26Z" />
      <path class="GUNDAN_JAPANESE_SEROW_OUTFIT_JAPANESE_SEROW_OUTFIT_12_cls-6" d="M304.7,387a61.14,61.14,0,0,0-.17-6.45c-.19-1.33-.6-3.12-1-5.23-.52.13-1.08.27-1.68.44l-.16,0a21.52,21.52,0,0,0-4.38,2.55l-1.17.82a7.49,7.49,0,0,1,1.33.59c.06.5.13,1,.19,1.6l.07,0a3.1,3.1,0,0,1,3.81.53,2,2,0,0,1-.66,3.17l-2.6,1.54c.15,1.26.31,2.53.48,3.77,1.05-.5,2.18-1.11,3.32-1.77Z" />
      <path class="GUNDAN_JAPANESE_SEROW_OUTFIT_JAPANESE_SEROW_OUTFIT_12_cls-6" d="M320.55,360.6c-10.1,3.09-13.48,9.5-13.66,9.83a9.85,9.85,0,0,1,6.25,2.78c6.64-10.5,19.21-7.24,28.14-14s7.16-18.77-.59-25.22C348.67,348.89,330.91,357.42,320.55,360.6Z" />
      <path class="GUNDAN_JAPANESE_SEROW_OUTFIT_JAPANESE_SEROW_OUTFIT_12_cls-6" d="M322,305.64a13.29,13.29,0,0,0,.5-3.7c-.12-1.59-4.57-6.42-12.36-2.72-2.67,1.27-7.36,5.16-12.57,10.25l0,0c-.84.46-14.23,7.82-25,10.22C261.42,322.19,241,331.12,237,349.65s-9,46.85-9,46.85-6.17-27.83-10.13-46.36c0-.17-.07-.33-.11-.49-4-18.53-24.44-27.46-35.53-29.94-10.75-2.4-24.14-9.76-25-10.22l0,0C152,304.38,141.5,294.3,138.84,293c-7.79-3.71-12.25,5.16-12.36,6.75s3.16,6.59,3.16,6.59,20.42,11.05,32.46,28.23,8.94,20.21,23.4,29.08c9.58,5.88,14,19.65,16.22,32a161.08,161.08,0,0,1,2,16.61c.6,8.18,2.33,12.72,3.52,15a9,9,0,0,0,1.2,1.82s0,.16.07.45q7.23-3.51,14.66-7.46h0l-1.1-2.81s0-.57-.05-1.59c0-.15,0-.32,0-.5,0-.41,0-.87-.08-1.38l0-.44c-.11-1.79-.31-4.11-.65-6.79l-.12-1c-.08-.61-.17-1.23-.27-1.88s-.18-1.18-.28-1.79c-.2-1.21-.42-2.47-.68-3.76-.19-1-.4-2-.63-3-.12-.5-.23-1-.36-1.51s-.25-1-.38-1.53l-.21-.77c-.06-.26-.13-.51-.21-.77-.14-.52-.29-1-.44-1.55-.21-.69-.42-1.38-.65-2.08-.17-.52-.34-1-.52-1.56-.42-1.21-.87-2.42-1.36-3.63-.17-.42-.35-.85-.53-1.27a62.67,62.67,0,0,0-2.81-5.77c-.23-.4-.46-.81-.7-1.21s-.47-.79-.72-1.19-.55-.86-.83-1.28l-.07-.11-.8-1.14-.73-1c-.36-.48-.74-1-1.12-1.41-2.42-2.91-4.56-5.25-6.47-7.19l-.52-.52c-1.59-1.59-3-2.89-4.3-4-1-.9-2-1.68-2.85-2.39l-.65-.53-1.58-1.3-.49-.42,0,0-.9-.8a21.59,21.59,0,0,1-1.72-1.73l-.3-.34c-.1-.12-.19-.24-.29-.35-.33-.41-.66-.84-1-1.3l-.37-.56c-.13-.19-.25-.39-.37-.59l-.36-.64c-.09-.14-.17-.3-.25-.45l-.21-.4-.06-.12c-.08-.15-.15-.31-.23-.47a3.54,3.54,0,0,1-.16-.34c-.06-.12-.12-.24-.17-.36s-.23-.53-.35-.8-.24-.56-.36-.86-.24-.6-.36-.91c-2.32-6.1-9-15-16.26-23.15,3.6,1.27,8.06,2.76,12,3.76,8.27,2.12,19.24,7.54,21.3,11.26-1.14,3.43-2.51,8.44-2.33,13.17a4.36,4.36,0,0,0,0,.51c0,.17,0,.35,0,.52a.66.66,0,0,0,0,.14c0,.21,0,.43.07.64s.08.58.14.87.09.44.14.66.07.3.11.45.11.39.17.59.06.21.1.31a2.83,2.83,0,0,0,.11.31l.24.61c.06.13.11.26.17.38s.25.51.39.76a8.23,8.23,0,0,0,.46.74c.14.21.29.42.45.62a1.71,1.71,0,0,0,.21.26c.15.16.28.34.43.49s.43.43.65.63.51.44.78.64.45.32.69.47l.08.05.41.25a16.3,16.3,0,0,0,5.31,1.83c-5.48-3.57-11-17-2.38-18.56,5-.94,7.24,4.21,8.39,9.42.81,3.74,1.07,7.53,1.37,9.14.13.67.39,2.21.77,4.34.09.53.19,1.1.3,1.7.21,1.13.44,2.39.7,3.73.08.44.17.9.26,1.36s.22,1.09.33,1.66.21,1.06.33,1.61c.75,3.66,1.63,7.65,2.62,11.52.07.3.15.59.23.89s.19.75.29,1.12l.18.64q.1.44.24.87s0,.06,0,.09l.09.31c0,.16.09.31.13.46.2.7.4,1.38.61,2.05l.27.86c.1.35.21.69.32,1,0,.07.05.13.07.2.25.75.5,1.47.75,2.17l0,.12c.11.32.23.63.35.93s.22.59.34.87c.3.75.61,1.45.92,2.1.08.16.15.33.23.48l.24.46.33.62c.11.2.22.39.34.58a1,1,0,0,0,.08.14l.29.46.3.43,0,.06.25.33a26.24,26.24,0,0,0,3.45-6.72c.59-1.55,1.15-3.25,1.66-5,.45-1.57.88-3.22,1.27-4.89.1-.41.19-.83.29-1.26.38-1.69.73-3.4,1.06-5.1l0-.08a.44.44,0,0,0,0-.1c.31-1.64.6-3.27.87-4.85s.49-3,.7-4.36c.06-.41.12-.8.18-1.19l.18-1.24c0-.31.09-.61.13-.9,0-.1,0-.2,0-.29s.05-.39.08-.57c0,0,0-.06,0-.08l.12-.9c.09-.59.16-1.14.23-1.67.05-.31.09-.61.13-.9,0,0,0,0,0,0s0,0,0,0c0-.31.08-.59.11-.86s.07-.5.1-.73,0-.15,0-.21.05-.37.07-.54,0-.18,0-.27,0-.35.07-.5c0-.38.1-.68.14-.9.72-3.88,1.2-20.16,9.78-18.56s3.1,15-2.39,18.56l.8-.16c.13,0,.26,0,.38-.09l.67-.17.85-.26c.25-.08.5-.18.74-.27l.06,0,.49-.2.41-.19a4.44,4.44,0,0,0,.49-.24,12.05,12.05,0,0,0,1.6-1,10.32,10.32,0,0,0,1.57-1.43,5.58,5.58,0,0,0,.39-.46,10.1,10.1,0,0,0,1-1.41c.11-.19.22-.39.32-.6a12.7,12.7,0,0,0,.64-1.53c.07-.2.13-.39.18-.59s.19-.68.26-1,.09-.46.13-.7.07-.44.1-.66a11.63,11.63,0,0,0,.11-1.2,5.63,5.63,0,0,0,0-.58c0-.41,0-.83,0-1.26,0-.22,0-.44,0-.66a5.12,5.12,0,0,0,0-.67c0-.5-.08-1-.14-1.49a33.07,33.07,0,0,0-.6-3.54c-.09-.41-.18-.8-.28-1.19s-.22-.89-.34-1.31c-.06-.23-.12-.45-.19-.67-.24-.84-.48-1.62-.72-2.33,2.06-3.72,13-9.14,21.29-11.26,3.92-1,8.38-2.48,12-3.76-7.26,8.15-13.94,17.05-16.26,23.15-.31.82-.62,1.57-.94,2.27-.07.17-.14.34-.23.51a26,26,0,0,1-1.9,3.46l-.48.69c-.14.2-.29.39-.43.57l-.3.38a26,26,0,0,1-3.15,3.14l-.61.51c-.47.4-1,.81-1.49,1.23l-.54.44-.1.09c-.25.19-.51.4-.77.63-.79.65-1.63,1.36-2.54,2.15l-.34.3-.11.11q-.46.41-1,.87c-.31.29-.64.59-1,.91s-.7.67-1.06,1l-.54.54c-.37.36-.74.74-1.12,1.14l-.75.79c-.27.28-.53.56-.8.86s-.43.47-.65.71-.45.49-.67.75l-.69.78c-.7.79-1.42,1.64-2.17,2.54-.3.36-.59.72-.87,1.09l-.43.57c-.2.25-.39.5-.56.76l-.42.6c-.61.85-1.17,1.73-1.7,2.62-.09.14-.18.28-.26.43-.2.33-.39.66-.58,1s-.48.87-.71,1.32a1.62,1.62,0,0,0-.1.18q-.48.93-.93,1.86c-.07.13-.13.26-.19.39-.51,1.07-1,2.16-1.44,3.26-.2.5-.4,1-.59,1.5s-.35.91-.51,1.37-.28.75-.4,1.13c-.19.53-.37,1.06-.54,1.6-.07.23-.15.45-.21.67l-.09.26c-.33,1.06-.63,2.11-.92,3.15-.64,2.37-1.17,4.7-1.62,6.93-.09.42-.17.84-.24,1.25s-.11.59-.16.88-.14.77-.2,1.15-.15.87-.21,1.29-.12.79-.18,1.17c0,0,0,0,0,0,0,.17-.06.35-.08.52s0,.34-.07.51c-.05.35-.1.69-.14,1s-.09.68-.13,1c-.14,1.17-.26,2.26-.35,3.27,0,.19,0,.37,0,.55q-.09,1-.15,1.8c0,.31,0,.6-.06.88s0,.42,0,.62q9.42-5.35,18.92-11.42c.23-2,.52-4.2.87-6.44v0c2-13,6.41-28.24,16.63-34.51,14.46-8.87,11.37-11.91,23.4-29.08a108.64,108.64,0,0,1,13.76-15.86,33.56,33.56,0,0,1-.76,22.57c-5.57,14.83-12.4,14.17-10.66,23.29.39,2,.71,3.72,1,5.12s.47,2.49.62,3.35a15.1,15.1,0,0,1,3.39-1.63l.17,0c.79-.23,1.74-.49,2.81-.7-.51-5.78.09-12.87,4.92-19.59,2.46-3.42,3.7-8.34,4.23-13.55.86-8.72-.26-18.28-1-23.11,4-3.49,7.33-6,9.18-7.34,0,0,9.92,5.55,8.72,17s-7.62,15.18-10.24,13.89-3-9,2.32-11.41c-4,1-7.49,6.34-7.9,11.07-.28,3.08.73,5.92,3.72,7.21,7.57,3.26,17.58-11.14,19.62-17.89s-1.64-16.74-1.64-16.74-2.7-2.65-5.4-3.31a53.88,53.88,0,0,0-7.63-.9Z" />
      <path class="GUNDAN_JAPANESE_SEROW_OUTFIT_JAPANESE_SEROW_OUTFIT_12_cls-6" d="M400.43,318.26l.75,3.19a58.38,58.38,0,0,0-4.13,7.56,25.84,25.84,0,0,0-1.34,6.53h0c-3.49.72-9.92,2.16-10.5,3.29s5.92,3.7,9.65,5.08c-.5,5.38-1.06,10.49-2.1,12.24A88.44,88.44,0,0,1,384,367.89c-3.29-1.37-8.84-3.53-10.11-3s2,6.76,3.7,9.68c-.31.31-.64.63-1,.94-5.06,4.66-13.28,7.77-23.37,11.14-2.11-2.52-5.48-6.26-6.83-6.29s-2,5.89-2.27,9.31c-3.15,1.05,9.6,2.16,6.22,3.39A87.18,87.18,0,0,1,328,398.41c-1-2.93-3-7.81-4.27-8.22s-4.18,5.05-5.68,8.23c-2.18-.17-4.24-.45-6.25-.77-3.91-.62-5.68-2.78-6.5-5.49a46.68,46.68,0,0,1-5.88,2.94,33.11,33.11,0,0,0,.79,3.93c.26.84,1.76,1.84,4.05,2.86,4.92,2.19,13.46,4.46,21.09,5.43,1.9.24,3.73.4,5.45.46-1.72-.06-3.55-.22-5.45-.46a47.71,47.71,0,0,0-2.51,10.76c-1.53,16.95,1.43,62.46,2.28,74.65h9.07c-.11-4.15-.42-12.23-1.39-22.63-.92-9.86,1.12-32.29,4.24-51.09.71-4.34,1.49-8.49,2.31-12.24,5.36-1.59,11.43-4.95,17.7-8,6-2.91-3.89-5.54,2-6,13.5-1.15,14.77-1.48,18.91-5.48.27-.26.57-.56.87-.88,4.38-4.43,12.18-13.46,19-19.59.08-.08.16-.15.23-.23a20.61,20.61,0,0,0,4.3-6.66v0s0,0,0-.08c4.08-9.22,6.13-23.2,7.82-30a91.24,91.24,0,0,0,2.55-13.23S408.78,317.24,400.43,318.26Z" />
      <path class="GUNDAN_JAPANESE_SEROW_OUTFIT_JAPANESE_SEROW_OUTFIT_12_cls-6" d="M315.84,377.16A8.23,8.23,0,0,1,316,383a64.25,64.25,0,0,0,11.18,1,63.41,63.41,0,0,0,25-5c13.56-5.88,7.25-16.19,15.81-25.29,4-4.21,8.09-8.57,11.11-13.58,3.5-5.84,4.88-11.73,4-17a17.59,17.59,0,0,0-.83-3.15c-2.27.07-4.69.09-7.23.06a12.83,12.83,0,0,1,1.31,3.87c.88,5.26-1.33,10.35-3.33,13.7-2.72,4.5-6.6,8.64-10.37,12.63-8.14,8.64-1.35,18.43-13.6,23.75A56.55,56.55,0,0,1,315.84,377.16Z" />
      <path class="GUNDAN_JAPANESE_SEROW_OUTFIT_JAPANESE_SEROW_OUTFIT_12_cls-6" d="M92.61,350.78a130.55,130.55,0,0,0-18-12.93,49.25,49.25,0,0,1-9.16,3.29c18.71,13.91,39.68,37.37,45.55,52.59,2.1,5.44,4.17,14.81,5.92,25.28,2.46,14.86,4.24,32,4.43,43.35,2.09-.53,5.28-1.38,9.4-2.59.72-15.78,1.16-32.73.35-41.69C129.32,398.42,104.76,361.1,92.61,350.78Z" />
      <path class="GUNDAN_JAPANESE_SEROW_OUTFIT_JAPANESE_SEROW_OUTFIT_12_cls-8" d="M52.9,352.81c-1.46-.78-2.36-1.24-2.36-1.24l-3.52-1,4.35-2.33-7-1.74,10.85-2.78s-.66-1.24-4.3-7.84c3.1,2.58,14.49,5.3,14.49,5.3,18.71,13.91,39.68,37.37,45.55,52.59,2.1,5.44,4.17,14.81,5.92,25.28-3.2-5.46-11.78-12.69-11.78-12.69l-8.47-7.75,8.47,3.52-2.81-2.92c-2.79-2.93-8.88-10.82-13.46-14.69a19.75,19.75,0,0,0-10-4.32L83.78,379s-.53-.84-8.4-4.86-17.81-13.41-17.81-13.41,3.64.6,14.48,5.95C67.57,361.13,57.48,355.3,52.9,352.81Z" />
      <path class="GUNDAN_JAPANESE_SEROW_OUTFIT_JAPANESE_SEROW_OUTFIT_12_cls-9" d="M421.86,424c-1.75-11,4.61-26.39,4.61-26.39a18.8,18.8,0,0,0-9.37,8.52A96.28,96.28,0,0,1,408,421.26c-2.22-11,0-29.1,6.58-39.31-6.33.15-10.71,5.83-14.41,12-6.34-6.36-5.78-18.77-2.06-27.39-.07.08-.15.15-.23.23-6.82,6.13-14.62,15.16-19,19.59-.3.32-.6.62-.87.88-4.14,4-5.41,4.33-18.91,5.48-5.87.48,4,3.11-2,6-6.27,3-12.34,6.4-17.7,8-.82,3.75-1.6,7.9-2.31,12.24-3.12,18.8-5.16,41.23-4.24,51.09,1,10.4,1.28,18.48,1.39,22.63H410.7l-1.55-16.42s-3.35-12.16-1.12-18.53S423.61,435,421.86,424Z" />
      <path class="GUNDAN_JAPANESE_SEROW_OUTFIT_JAPANESE_SEROW_OUTFIT_12_cls-9" d="M111.35,473.54c-1.5-4.53,1.71-9.22,7.15-10.46.11,0,1.09-.26,2.84-.72-.08-4.5-.4-9.89-.92-15.68-.78-8.87-2-18.68-3.52-27.67-3.19-5.46-11.77-12.69-11.77-12.69l-8.47-7.75,8.46,3.51-2.8-2.91c-2.8-2.93-8.88-10.82-13.46-14.69a19.76,19.76,0,0,0-10-4.32L83.78,379s-.53-.84-8.4-4.86-17.82-13.41-17.82-13.41,3.65.6,14.49,5.95c-4.49-5.57-14.57-11.4-19.15-13.89h0a65.34,65.34,0,0,0-4.12,9.46c-.29.89-.56,1.79-.79,2.69h0a26.56,26.56,0,0,0-12.5-5.15c7,6.87,10.69,25.79,2.33,34.17-3.71-6.2-8.08-11.88-14.42-12C30,392.18,32.2,410.26,30,421.26a96,96,0,0,1-9.12-15.09,18.8,18.8,0,0,0-9.38-8.52s6.36,15.41,4.61,26.39c-1.32,8.31,6,19.69,10.59,27.51h0c-1.14,6.88-3.33,20.28-4.71,28.25-1.9,11.07-1.58,12.92-1.58,12.92h99.36c.07-2.75.23-7.22.61-13C116.19,479.5,112.51,477.09,111.35,473.54Z" />
      <path class="GUNDAN_JAPANESE_SEROW_OUTFIT_JAPANESE_SEROW_OUTFIT_12_cls-10" d="M309.66,376.91c-1.75-2.18-3.5-2.25-6.11-1.64.38,2.11.79,3.9,1,5.23a61.14,61.14,0,0,1,.17,6.45c2-1.26,3.81-2.49,4.87-3.24a5.24,5.24,0,0,0,1.15-1.85,4.67,4.67,0,0,0-.64-4.37A4.47,4.47,0,0,0,309.66,376.91Z" />
      <path class="GUNDAN_JAPANESE_SEROW_OUTFIT_JAPANESE_SEROW_OUTFIT_12_cls-3" d="M376.3,323.84A12.83,12.83,0,0,0,375,320c-15.25-.22-18.48-2.53-32.63-9l-4-.42h0c-2-.2-3.43-.36-3.43-.36s3.66,10,1.64,16.74-12,21.15-19.62,17.89c-3-1.29-4-4.13-3.72-7.21l-1.08-.07c-.53,5.21-1.77,10.13-4.23,13.55-4.83,6.72-5.43,13.81-4.92,19.59a15.69,15.69,0,0,1,3.94-.27c.18-.33,3.56-6.74,13.66-9.83,10.36-3.18,28.12-11.71,20.14-26.6,7.75,6.45,9.54,18.47.59,25.22s-21.5,3.49-28.14,14a15.27,15.27,0,0,1,1.06,1.17,10.74,10.74,0,0,1,1.64,2.78A56.55,56.55,0,0,0,349,373.92c12.25-5.32,5.46-15.11,13.6-23.75,3.77-4,7.65-8.13,10.37-12.63C375,334.19,377.18,329.1,376.3,323.84Z" />
      <path class="GUNDAN_JAPANESE_SEROW_OUTFIT_JAPANESE_SEROW_OUTFIT_12_cls-11" d="M223.16,422.08c3.63-1.92,6-3.92,9.67-6,6.28-3.57,12.61-7.38,18.92-11.42,1-.66,2.09-1.33,3.13-2a364.2,364.2,0,0,0,30.05-21.83,10.47,10.47,0,0,1,3-1.68" />
      <path class="GUNDAN_JAPANESE_SEROW_OUTFIT_JAPANESE_SEROW_OUTFIT_12_cls-11" d="M211.17,448.08a498.15,498.15,0,0,1-81.4,30c-3.3.87-5.32,1.34-5.84,1.46a12.71,12.71,0,0,1-2.71.3c-.29,0-.58,0-.86,0-4.16-.28-7.85-2.69-9-6.24-1.5-4.53,1.71-9.22,7.15-10.46.11,0,1.09-.26,2.84-.72,2.09-.53,5.28-1.38,9.4-2.59a499.9,499.9,0,0,0,77.75-30.22q7.23-3.51,14.67-7.46" />
      <path class="GUNDAN_JAPANESE_SEROW_OUTFIT_JAPANESE_SEROW_OUTFIT_12_cls-11" d="M246.34,429.1c-6.6,3.82-11.89,7.37-18.33,10.69-5.71,2.95-11.35,5.71-16.84,8.28" />
      <path class="GUNDAN_JAPANESE_SEROW_OUTFIT_JAPANESE_SEROW_OUTFIT_12_cls-11" d="M252.26,425.61c-2,1.19-3.94,2.35-5.91,3.48" />
      <path class="GUNDAN_JAPANESE_SEROW_OUTFIT_JAPANESE_SEROW_OUTFIT_12_cls-11" d="M296.13,395.47A409.07,409.07,0,0,1,252.3,425.6" />
      <path class="GUNDAN_JAPANESE_SEROW_OUTFIT_JAPANESE_SEROW_OUTFIT_12_cls-11" d="M297.49,379.71a7.49,7.49,0,0,0-1.33-.59" />
      <path class="GUNDAN_JAPANESE_SEROW_OUTFIT_JAPANESE_SEROW_OUTFIT_12_cls-11" d="M246.35,429.09h0s-2.59,15.79-4.48,33.47c-.53,5.12-1,10.39-1.35,15.48s-.56,10.22-.53,14.68" />
      <path class="GUNDAN_JAPANESE_SEROW_OUTFIT_JAPANESE_SEROW_OUTFIT_12_cls-11" d="M297.48,309.49c-2.91,2.84-6,6.06-9,9.4-7.26,8.15-13.94,17.05-16.26,23.15-5,13.1-9.29,9.33-24.31,27.4-12.13,14.59-14.62,38.12-15.13,46.63" />
      <path class="GUNDAN_JAPANESE_SEROW_OUTFIT_JAPANESE_SEROW_OUTFIT_12_cls-11" d="M297.52,309.47c5.21-5.09,9.9-9,12.57-10.25,7.79-3.7,12.24,1.13,12.36,2.72a13.29,13.29,0,0,1-.5,3.7c-.06.23-.1.36-.1.36s-.57.38-1.57,1.11c-1.85,1.34-5.19,3.85-9.18,7.34-1.48,1.29-3.07,2.73-4.69,4.29a108.64,108.64,0,0,0-13.76,15.86c-12,17.17-8.94,20.21-23.4,29.08C259,370,254.64,385.22,252.62,398.19" />
      <path class="GUNDAN_JAPANESE_SEROW_OUTFIT_JAPANESE_SEROW_OUTFIT_12_cls-11" d="M251.75,404.65c.24-2,.52-4.2.88-6.44" />
      <path class="GUNDAN_JAPANESE_SEROW_OUTFIT_JAPANESE_SEROW_OUTFIT_12_cls-11" d="M157.27,309.49c2.91,2.84,6,6.06,8.95,9.4,7.26,8.15,13.94,17.05,16.26,23.15,5,13.1,9.3,9.33,24.32,27.4s15.25,49.83,15.25,49.83l1.11,2.81h0" />
      <path class="GUNDAN_JAPANESE_SEROW_OUTFIT_JAPANESE_SEROW_OUTFIT_12_cls-11" d="M208.49,429.55c0-.29-.06-.45-.06-.45a8.72,8.72,0,0,1-1.21-1.82c-1.18-2.24-2.91-6.78-3.51-15a163.91,163.91,0,0,0-2-16.61c-2.19-12.38-6.65-26.15-16.22-32-14.46-8.87-11.37-11.91-23.41-29.08s-32.46-28.23-32.46-28.23-3.28-5-3.15-6.59,4.56-10.46,12.35-6.75c2.66,1.27,13.18,11.35,18.39,16.44" />
      <path class="GUNDAN_JAPANESE_SEROW_OUTFIT_JAPANESE_SEROW_OUTFIT_12_cls-11" d="M298.78,390.28c-.17-1.24-.33-2.51-.48-3.77" />
      <path class="GUNDAN_JAPANESE_SEROW_OUTFIT_JAPANESE_SEROW_OUTFIT_12_cls-11" d="M321.85,306a53.88,53.88,0,0,1,7.63.9c2.7.66,5.4,3.31,5.4,3.31s1.39.16,3.42.36" />
      <path class="GUNDAN_JAPANESE_SEROW_OUTFIT_JAPANESE_SEROW_OUTFIT_12_cls-11" d="M375,320c-15.25-.22-18.49-2.53-32.63-9l-4-.42" />
      <path class="GUNDAN_JAPANESE_SEROW_OUTFIT_JAPANESE_SEROW_OUTFIT_12_cls-11" d="M402.39,359.9s0,0,0-.08c4.08-9.22,6.13-23.2,7.82-30a91.24,91.24,0,0,0,2.55-13.23s-4,.68-12.36,1.7c-2.69.33-5.83.7-9.41,1.08-2.54.27-5.5.48-8.8.57" />
      <path class="GUNDAN_JAPANESE_SEROW_OUTFIT_JAPANESE_SEROW_OUTFIT_12_cls-11" d="M299.46,395.1a33.11,33.11,0,0,0,.79,3.93c.26.84,1.76,1.84,4.05,2.86,4.92,2.19,13.46,4.46,21.09,5.43a43.86,43.86,0,0,0,10.13.31,22.39,22.39,0,0,0,3.87-.86c5.36-1.59,11.43-4.95,17.7-8,6-2.91-3.89-5.54,2-6,13.5-1.15,14.77-1.48,18.91-5.48.27-.26.57-.56.87-.88,4.38-4.43,12.18-13.46,19-19.59.08-.08.16-.15.23-.23a20.61,20.61,0,0,0,4.3-6.66" />
      <path class="GUNDAN_JAPANESE_SEROW_OUTFIT_JAPANESE_SEROW_OUTFIT_12_cls-11" d="M297.68,381.31c-.06-.56-.13-1.1-.19-1.6" />
      <path class="GUNDAN_JAPANESE_SEROW_OUTFIT_JAPANESE_SEROW_OUTFIT_12_cls-11" d="M296.58,373.07c-.15-.86-.36-2-.62-3.35s-.58-3.08-1-5.12c-1.75-9.12,5.08-8.46,10.65-23.29a33.49,33.49,0,0,0,.76-22.57" />
      <path class="GUNDAN_JAPANESE_SEROW_OUTFIT_JAPANESE_SEROW_OUTFIT_12_cls-11" d="M395.71,335.54a25.84,25.84,0,0,1,1.34-6.53,58.38,58.38,0,0,1,4.13-7.56l-.75-3.19" />
      <path class="GUNDAN_JAPANESE_SEROW_OUTFIT_JAPANESE_SEROW_OUTFIT_12_cls-11" d="M384,367.89a88.44,88.44,0,0,0,8.81-11.73c1-1.75,1.6-6.86,2.1-12.25" />
      <path class="GUNDAN_JAPANESE_SEROW_OUTFIT_JAPANESE_SEROW_OUTFIT_12_cls-11" d="M328,398.41a87.18,87.18,0,0,0,22.27-5.35c3.38-1.22-9.37-2.34-6.22-3.39" />
      <path class="GUNDAN_JAPANESE_SEROW_OUTFIT_JAPANESE_SEROW_OUTFIT_12_cls-11" d="M311.11,314.44c.73,4.84,1.85,14.4,1,23.12-.53,5.21-1.77,10.13-4.23,13.55-4.83,6.72-5.43,13.81-4.92,19.59" />
      <path class="GUNDAN_JAPANESE_SEROW_OUTFIT_JAPANESE_SEROW_OUTFIT_12_cls-11" d="M305.34,392.16c.82,2.71,2.59,4.87,6.5,5.49,2,.32,4.07.6,6.25.77" />
      <path class="GUNDAN_JAPANESE_SEROW_OUTFIT_JAPANESE_SEROW_OUTFIT_12_cls-11" d="M303.55,375.27c.38,2.11.79,3.9,1,5.23a61.14,61.14,0,0,1,.17,6.45" />
      <path class="GUNDAN_JAPANESE_SEROW_OUTFIT_JAPANESE_SEROW_OUTFIT_12_cls-11" d="M353.19,386.65c10.09-3.37,18.31-6.48,23.37-11.14.34-.31.67-.63,1-.94" />
      <path class="GUNDAN_JAPANESE_SEROW_OUTFIT_JAPANESE_SEROW_OUTFIT_12_cls-11" d="M318.09,398.42c1.5-3.18,4.31-8.65,5.68-8.23s3.23,5.29,4.27,8.22" />
      <path class="GUNDAN_JAPANESE_SEROW_OUTFIT_JAPANESE_SEROW_OUTFIT_12_cls-11" d="M344.09,389.67c.23-3.42.82-9.35,2.27-9.31s4.72,3.77,6.83,6.29" />
      <path class="GUNDAN_JAPANESE_SEROW_OUTFIT_JAPANESE_SEROW_OUTFIT_12_cls-11" d="M377.54,374.57c-1.69-2.92-5.09-9.1-3.7-9.68s6.82,1.63,10.11,3" />
      <path class="GUNDAN_JAPANESE_SEROW_OUTFIT_JAPANESE_SEROW_OUTFIT_12_cls-11" d="M395.71,335.54h0c-3.49.72-9.92,2.16-10.5,3.29s5.92,3.7,9.65,5.07" />
      <path class="GUNDAN_JAPANESE_SEROW_OUTFIT_JAPANESE_SEROW_OUTFIT_12_cls-11" d="M74.6,337.85a130.55,130.55,0,0,1,18,12.93c12.15,10.32,36.71,47.64,38.48,67.3.81,9,.37,25.91-.35,41.69" />
      <path class="GUNDAN_JAPANESE_SEROW_OUTFIT_JAPANESE_SEROW_OUTFIT_12_cls-11" d="M129.64,306.37h0s-18.38,10.85-27.25,16.9c-5.91,4-17.42,9.87-27.79,14.58a49.25,49.25,0,0,1-9.16,3.29c18.71,13.91,39.68,37.37,45.55,52.59,2.1,5.44,4.17,14.81,5.92,25.28,2.46,14.86,4.24,32,4.43,43.35" />
      <path class="GUNDAN_JAPANESE_SEROW_OUTFIT_JAPANESE_SEROW_OUTFIT_12_cls-11" d="M116.91,419c-3.2-5.46-11.78-12.69-11.78-12.69l-8.47-7.75,8.47,3.52-2.81-2.92c-2.79-2.93-8.88-10.82-13.46-14.69a19.75,19.75,0,0,0-10-4.32L83.78,379s-.53-.84-8.4-4.86-17.81-13.41-17.81-13.41,3.64.6,14.48,5.95c-4.48-5.57-14.57-11.4-19.15-13.89-1.46-.78-2.36-1.24-2.36-1.24l-3.52-1,4.35-2.33-7-1.74,10.85-2.78s-.66-1.24-4.3-7.84c3.1,2.58,14.49,5.3,14.49,5.3" />
      <path class="GUNDAN_JAPANESE_SEROW_OUTFIT_JAPANESE_SEROW_OUTFIT_12_cls-11" d="M48,365a59.44,59.44,0,0,1,4.91-12.15" />
      <path class="GUNDAN_JAPANESE_SEROW_OUTFIT_JAPANESE_SEROW_OUTFIT_12_cls-11" d="M37.81,394c8.37-8.38,4.71-27.3-2.33-34.17A26.38,26.38,0,0,1,48,365a31.09,31.09,0,0,1,5.88,5.6,155.62,155.62,0,0,0,6.4,18.79c4.29,10.46,16.37,19.32,27.33,25.28s26.86,32.56,26.86,32.56H110s-1.2,14.56-4,18.92-4.78,5-4.78,5-1.43,6.16-2,11.12c-.33,2.76.26,7.16.85,10.52" />
      <path class="GUNDAN_JAPANESE_SEROW_OUTFIT_JAPANESE_SEROW_OUTFIT_12_cls-11" d="M30,421.26c2.24-11,0-29.08-6.58-39.31,6.35.15,10.71,5.83,14.42,12,2.69,4.52,5,9.33,7.52,12.45,5.88,7.41,20,17.74,29.4,23s23.53,36.66,23.53,36.66l2.93,5s1.43,6.36,2,8.72-.6,2.2-2,6.76c-.61,1.95.08,4.21,1.06,6.16" />
      <path class="GUNDAN_JAPANESE_SEROW_OUTFIT_JAPANESE_SEROW_OUTFIT_12_cls-11" d="M26.67,451.55c-4.61-7.82-11.91-19.2-10.59-27.51,1.75-11-4.61-26.39-4.61-26.39a18.8,18.8,0,0,1,9.39,8.52A96.58,96.58,0,0,0,30,421.26a95.31,95.31,0,0,0,21.72,20.38c21.45,15.09,35.91,38.17,35.91,38.17s4.45,9.22,4.61,12.92" />
      <path class="GUNDAN_JAPANESE_SEROW_OUTFIT_JAPANESE_SEROW_OUTFIT_12_cls-11" d="M40.16,407.37s13.12,16.47,22.41,23,14.46,9,18.08,16.81" />
      <path class="GUNDAN_JAPANESE_SEROW_OUTFIT_JAPANESE_SEROW_OUTFIT_12_cls-11" d="M31.1,431.59s10.38,9.52,19.5,18.65,12,10.73,16.27,17.87c0,0,6.11,16.94,6.75,24.62" />
      <path class="GUNDAN_JAPANESE_SEROW_OUTFIT_JAPANESE_SEROW_OUTFIT_12_cls-11" d="M408,421.26a96.28,96.28,0,0,0,9.13-15.09,18.8,18.8,0,0,1,9.37-8.52s-6.36,15.41-4.61,26.39-11.6,27.39-13.83,33.74,1.12,18.53,1.12,18.53l1.55,16.42H359" />
      <path class="GUNDAN_JAPANESE_SEROW_OUTFIT_JAPANESE_SEROW_OUTFIT_12_cls-11" d="M359,492.73H344.91c2.55-6.44,5.43-12.92,5.43-12.92s14.47-23.08,35.92-38.17A95.65,95.65,0,0,0,408,421.27" />
      <path class="GUNDAN_JAPANESE_SEROW_OUTFIT_JAPANESE_SEROW_OUTFIT_12_cls-11" d="M207.22,427.28S199.49,424,187.73,424,151.5,421.52,149.9,405s1.91-48.32-22.25-49.24a21.83,21.83,0,0,1,31,16.82c2.7,16.93,7.79,29.24,22.87,32.68s19.74-2.78,20.21-9.53" />
      <line class="GUNDAN_JAPANESE_SEROW_OUTFIT_JAPANESE_SEROW_OUTFIT_12_cls-11" x1="338.32" y1="310.58" x2="338.31" y2="310.57" />
      <path class="GUNDAN_JAPANESE_SEROW_OUTFIT_JAPANESE_SEROW_OUTFIT_12_cls-11" d="M325.16,492.73c-.85-12.19-3.81-57.7-2.28-74.65a47.71,47.71,0,0,1,2.51-10.76" />
      <path class="GUNDAN_JAPANESE_SEROW_OUTFIT_JAPANESE_SEROW_OUTFIT_12_cls-11" d="M334.23,492.73c-.11-4.15-.42-12.23-1.39-22.63-.92-9.86,1.12-32.29,4.24-51.09.71-4.34,1.49-8.49,2.31-12.24" />
      <path class="GUNDAN_JAPANESE_SEROW_OUTFIT_JAPANESE_SEROW_OUTFIT_12_cls-11" d="M337.08,419c3.18-5.46,11.77-12.69,11.77-12.69l8.24-7.54" />
      <path class="GUNDAN_JAPANESE_SEROW_OUTFIT_JAPANESE_SEROW_OUTFIT_12_cls-11" d="M354,492.73c.58-3.36,1.17-7.76.84-10.52-.6-5-2-11.12-2-11.12s-1.91-.59-4.76-5-4-18.92-4-18.92h-4.46s-.14-26.6,10.83-32.56,23.05-14.82,27.34-25.28c.41-1,.8-2,1.17-3" />
      <path class="GUNDAN_JAPANESE_SEROW_OUTFIT_JAPANESE_SEROW_OUTFIT_12_cls-11" d="M402.39,359.9v0" />
      <path class="GUNDAN_JAPANESE_SEROW_OUTFIT_JAPANESE_SEROW_OUTFIT_12_cls-11" d="M400.14,394c-6.34-6.36-5.78-18.77-2.06-27.39" />
      <path class="GUNDAN_JAPANESE_SEROW_OUTFIT_JAPANESE_SEROW_OUTFIT_12_cls-11" d="M408,421.27h0c-2.22-11,0-29.1,6.58-39.31-6.33.15-10.71,5.83-14.41,12-2.7,4.52-5,9.34-7.53,12.46-5.88,7.41-20,17.74-29.39,23s-7.49,36.66-7.49,36.66l-3,5" />
      <path class="GUNDAN_JAPANESE_SEROW_OUTFIT_JAPANESE_SEROW_OUTFIT_12_cls-11" d="M397.78,407.37s-13.11,16.47-22.41,23-14.46,9-18.07,16.81" />
      <path class="GUNDAN_JAPANESE_SEROW_OUTFIT_JAPANESE_SEROW_OUTFIT_12_cls-11" d="M359,492.73c3.93-11.08,12.1-24.62,12.1-24.62,4.28-7.14,7.15-8.73,16.26-17.87s19.49-18.65,19.49-18.65" />
      <path class="GUNDAN_JAPANESE_SEROW_OUTFIT_JAPANESE_SEROW_OUTFIT_12_cls-11" d="M290.88,389.46l-.14.32" />
      <path class="GUNDAN_JAPANESE_SEROW_OUTFIT_JAPANESE_SEROW_OUTFIT_12_cls-11" d="M295.11,374c.08-.48.15-1,.23-1.43a26.31,26.31,0,0,1,.62-2.84" />
      <path class="GUNDAN_JAPANESE_SEROW_OUTFIT_JAPANESE_SEROW_OUTFIT_12_cls-11" d="M252.63,398.19v0a10.39,10.39,0,0,0,2.25,4.42" />
      <path class="GUNDAN_JAPANESE_SEROW_OUTFIT_JAPANESE_SEROW_OUTFIT_12_cls-11" d="M252.26,425.61h0A62.51,62.51,0,0,1,266.25,424c11.76,0,36.24-2.52,37.82-19.06.09-1,.16-2,.23-3.09" />
      <path class="GUNDAN_JAPANESE_SEROW_OUTFIT_JAPANESE_SEROW_OUTFIT_12_cls-11" d="M157.23,309.47l0,0c.83.46,14.23,7.82,25,10.22,11.09,2.48,31.55,11.41,35.52,29.94,0,.16.07.32.11.49,4,18.53,10.13,46.36,10.13,46.36" />
      <path class="GUNDAN_JAPANESE_SEROW_OUTFIT_JAPANESE_SEROW_OUTFIT_12_cls-11" d="M166.22,318.89c3.6,1.27,8.06,2.76,12,3.76,8.26,2.12,19.23,7.54,21.29,11.26-2.54,7.66-6.28,23.22,8.87,25.9-5.49-3.57-11-17-2.39-18.56,5-.94,7.24,4.21,8.39,9.42.82,3.74,1.08,7.53,1.38,9.14C216.46,363.68,221.6,396,228,404" />
      <path class="GUNDAN_JAPANESE_SEROW_OUTFIT_JAPANESE_SEROW_OUTFIT_12_cls-11" d="M297.52,309.47l0,0c-.83.46-14.23,7.82-25,10.22C261.43,322.19,241,331.12,237,349.65s-9,46.85-9,46.85" />
      <path class="GUNDAN_JAPANESE_SEROW_OUTFIT_JAPANESE_SEROW_OUTFIT_12_cls-11" d="M228,404a26.55,26.55,0,0,0,3.46-6.72c4.73-12.41,7-34.31,7.54-37.46.73-3.88,1.2-20.16,9.78-18.56s3.1,15-2.38,18.56c15.14-2.68,11.4-18.24,8.86-25.9,2.06-3.72,13-9.14,21.3-11.26,3.91-1,8.37-2.48,12-3.76" />
      <path class="GUNDAN_JAPANESE_SEROW_OUTFIT_JAPANESE_SEROW_OUTFIT_12_cls-11" d="M316,383a64.25,64.25,0,0,0,11.18,1,63.41,63.41,0,0,0,25-5c13.56-5.88,7.25-16.19,15.81-25.29,4-4.21,8.09-8.57,11.11-13.58,3.5-5.84,4.88-11.73,4-17a17.59,17.59,0,0,0-.83-3.15c-2.27.07-4.69.09-7.23.06a12.83,12.83,0,0,1,1.31,3.87c.88,5.26-1.33,10.35-3.33,13.7-2.72,4.5-6.6,8.64-10.37,12.63-8.14,8.64-1.35,18.43-13.6,23.75a56.55,56.55,0,0,1-33.16,3.24" />
      <path class="GUNDAN_JAPANESE_SEROW_OUTFIT_JAPANESE_SEROW_OUTFIT_12_cls-11" d="M289.85,388.77l.89,1,4.31,5a2.69,2.69,0,0,0,1.08.73,3.06,3.06,0,0,0,1.13.2,3.33,3.33,0,0,0,.94-.13c.4-.13.82-.27,1.26-.44a46.68,46.68,0,0,0,5.88-2.94c3.86-2.22,7.34-4.7,7.94-5.12a2,2,0,0,0,.23-.18A9.64,9.64,0,0,0,316,383a8.23,8.23,0,0,0-.14-5.85,10.74,10.74,0,0,0-1.64-2.78,15.27,15.27,0,0,0-1.06-1.17,9.85,9.85,0,0,0-6.25-2.78,15.69,15.69,0,0,0-3.94.27c-1.06.21-2,.47-2.81.7l-.16,0a15.14,15.14,0,0,0-3.4,1.63c-.48.28-1,.59-1.47.92-2.5,1.6-5.2,3.62-7.17,5.13l-2.11,1.68a2,2,0,0,0-.31,3l4.22,4.86" />
      <path class="GUNDAN_JAPANESE_SEROW_OUTFIT_JAPANESE_SEROW_OUTFIT_12_cls-11" d="M295.87,387.94l2.29,2.62.62-.28c1.05-.5,2.18-1.11,3.32-1.77.88-.51,1.76-1.05,2.6-1.56,2-1.26,3.81-2.49,4.87-3.24a5.24,5.24,0,0,0,1.15-1.85,4.67,4.67,0,0,0-.64-4.37,4.47,4.47,0,0,0-.42-.58c-1.75-2.18-3.5-2.25-6.11-1.64-.52.13-1.08.27-1.68.44l-.16,0a21.52,21.52,0,0,0-4.38,2.55l-1.17.82c-.81.57-1.64,1.17-2.49,1.81s-1.57,1.18-2.34,1.78l1.35,1.55" />
      <path class="GUNDAN_JAPANESE_SEROW_OUTFIT_JAPANESE_SEROW_OUTFIT_12_cls-11" d="M295.87,387.94l-2.25,1.33a3.22,3.22,0,0,1-2.74.19,2.71,2.71,0,0,1-1-.69s0,0,0,0l-.07-.09a2.06,2.06,0,0,1,.73-3.08l2.21-1.29,5-2.95.07,0a3.1,3.1,0,0,1,3.81.53,2,2,0,0,1-.66,3.17l-2.6,1.54Z" />
      <path class="GUNDAN_JAPANESE_SEROW_OUTFIT_JAPANESE_SEROW_OUTFIT_12_cls-11" d="M320.29,307.11s9.91,5.55,8.71,17-7.62,15.18-10.24,13.89-3-9,2.32-11.41c-4,1-7.49,6.33-7.9,11.07-.27,3.08.74,5.92,3.72,7.21,7.58,3.26,17.59-11.14,19.62-17.89s-1.64-16.74-1.64-16.74" />
      <path class="GUNDAN_JAPANESE_SEROW_OUTFIT_JAPANESE_SEROW_OUTFIT_12_cls-11" d="M306.89,370.44h0c.18-.33,3.56-6.74,13.66-9.83,10.36-3.18,28.12-11.71,20.14-26.6,7.75,6.45,9.54,18.47.59,25.22s-21.5,3.49-28.14,14" />
      <g class="GUNDAN_JAPANESE_SEROW_OUTFIT_JAPANESE_SEROW_OUTFIT_12_cls-12">
        <path d="M129.76,296.45S160.1,318,172.65,339.31s26.7,21.92,33.86,41.2,7.11,40.93,10.86,44.6c-6.31,5.26-8,4-8,4h-1.17a8.66,8.66,0,0,1-1.88-2.49,81.72,81.72,0,0,0-20.25-2.72c-8-.06-30.9-2.88-35.17-14.58-1.82-7-2.82-21.42-2.83-30.19s-5.07-21.93-19.6-23.33c11.75-.36,26.29,8.67,27.49,23.17s10.25,34.34,28.13,35.53c17.52,1.2,19.31,0,19.31,0a118.8,118.8,0,0,0-2.78-24c-2.83-12.3-7.65-23.11-14.63-26.39s-12.44-10.94-16.71-18S152.24,320.8,142,313.75c-8-6.13-12.34-7.14-12.34-7.14s-3.75-6.31-2.57-7.79A11.29,11.29,0,0,1,129.76,296.45Z" />
        <path d="M65.44,340.64s4.88-1,6-1.45l1.14-.47a197.45,197.45,0,0,1,25.11,22.43c11.12,12.18,20.18,26.81,23,38s6.44,49.24,6.44,49.24v12.43l-5.78,1.55s-3.08-26.93-6.88-35.08-25.08-29.07-36.69-33.17a80.94,80.94,0,0,1,15.9,3.16S90.61,387.37,75,383c-16.27-4.37-17.38-8.48-17.38-8.48s9.06,3,11.92,2.9C58.23,369,53.31,364.34,50.44,358c2.05-4.35,2.46-5.13,2.46-5.13l-6.08-2,4.81-2.58a42.66,42.66,0,0,1,12.2,4.17,86.28,86.28,0,0,0-12.4-7.79s2.39-1.61,9.66.74a53.27,53.27,0,0,1-7.41-8S63.27,341.33,65.44,340.64Z" />
        <path d="M38.17,393.6S54.57,415,71.38,422.09,108,460.71,108,460.71s-1.25,8.71-7,10c-12.15-23.06-18.82-35.82-24.78-40.06C66,424.09,52.6,415.37,48.62,410.07S38.45,397.26,38.17,393.6Z" />
        <path d="M30.68,418.56s7,9.33,27.82,18.61,36.24,40.28,36.24,40.28-9.06-16.7-20.62-23.74c0,0,20.5,25.93,20.62,39-26.34,0-26.34-.53-26.34-.53s-15.62-24.92-29.09-41.28S20.25,416.76,17.5,408.08a112.42,112.42,0,0,0,39.34,45C73.76,464.53,80.08,474,80.08,474S69.71,454.5,54,444.47a83.76,83.76,0,0,1-24-23.21Z" />
        <path d="M70.16,402.55s8.89,6.59,25.73,14.19,20.41,29.9,21,38.26c-3.45-9.44-11.56-25.58-22.17-32.91S70.33,415.62,70.16,402.55Z" />
        <path d="M399.64,393.6S383.23,415,366.43,422.09s-20.55,38.62-20.55,38.62,1.25,8.71,7,10c12.15-23.06,2.79-35.82,8.75-40.06,10.17-6.55,23.58-15.27,27.57-20.57S399.35,397.26,399.64,393.6Z" />
        <path d="M407.13,418.56s-7,9.33-27.83,18.61-20.21,40.28-20.21,40.28-7-16.7,4.6-23.74c0,0-4.48,25.93-4.6,39,26.35,0,10.32-.53,10.32-.53s15.61-24.92,29.08-41.28,19.07-34.16,21.81-42.84a112.32,112.32,0,0,1-39.33,45C364,464.53,357.73,474,357.73,474s10.37-19.46,26.1-29.49a83.76,83.76,0,0,0,24-23.21Z" />
        <path d="M367.65,402.55s7.14,6.59-9.71,14.19-20.41,29.9-21,38.26c3.44-9.44,11.56-25.58,22.16-32.91S367.48,415.62,367.65,402.55Z" />
        <path d="M111.93,474.74s37.76-8.18,70.42-23.19,108.39-61.27,108.39-61.27l4.8,5s-49.19,36.88-85.7,52.79c27-15.45,35.28-25.31,35.28-25.31s-49.79,28.35-66.59,36.88-48.76,18.4-48.76,18.4-10.36,3.14-14,.89S111.93,474.74,111.93,474.74Z" />
        <path d="M126,400.6a104.75,104.75,0,0,1,10.75,22.17c3.81,11.71,5.88,17.67,5.88,17.67S153.66,451,157,451c-16.84,5.89-26.26,8.75-26.26,8.75s1.07-17.35,1.15-24.56S130.42,407,126,400.6Z" />
        <path d="M274.77,337a35.63,35.63,0,0,1-8.2,18.2c-7.15,7.94-21.53,22.15-24.23,35.36a130.1,130.1,0,0,0-2.85,21.64l-7.24,4.2s3.49-23.71,8.26-34.62,15.26-21.62,20.26-25.19,9.86-9.53,11.05-13.77S274.77,337,274.77,337Z" />
        <path d="M98.48,326.53s4.79,2.19,18.43,10.47,15.38,13.83,15.38,13.83S115,340.1,106.54,337c12.87,12.51,24.47,18.07,31.94,42.68s.58,38.35,13.2,53.61c-17.2-16.54-25.94-36.42-34.36-49.69s-22.83-37.84-43.43-45.43C86.06,331.79,98.48,326.53,98.48,326.53Z" />
      </g>
    </g>
  </g>
</svg>