<svg xmlns="http://www.w3.org/2000/svg" viewBox="0 0 432 432">
  <defs>
    <style>.GUNDAN_JAPANESE_SEROW_OUTFIT_JAPANESE_SEROW_OUTFIT_15_cls-1{isolation:isolate;}.GUNDAN_JAPANESE_SEROW_OUTFIT_JAPANESE_SEROW_OUTFIT_15_cls-2{fill:#fff;}.GUNDAN_JAPANESE_SEROW_OUTFIT_JAPANESE_SEROW_OUTFIT_15_cls-3{fill:#932920;}.GUNDAN_JAPANESE_SEROW_OUTFIT_JAPANESE_SEROW_OUTFIT_15_cls-4{fill:#183f34;}.GUNDAN_JAPANESE_SEROW_OUTFIT_JAPANESE_SEROW_OUTFIT_15_cls-5{fill:#d6d1ce;}.GUNDAN_JAPANESE_SEROW_OUTFIT_JAPANESE_SEROW_OUTFIT_15_cls-6{fill:#0f0a1c;}.GUNDAN_JAPANESE_SEROW_OUTFIT_JAPANESE_SEROW_OUTFIT_15_cls-7{fill:#cf6428;}.GUNDAN_JAPANESE_SEROW_OUTFIT_JAPANESE_SEROW_OUTFIT_15_cls-8{fill:none;stroke:#000;stroke-linecap:round;stroke-linejoin:round;stroke-width:1.74px;}.GUNDAN_JAPANESE_SEROW_OUTFIT_JAPANESE_SEROW_OUTFIT_15_cls-9{opacity:0.22;mix-blend-mode:multiply;}</style>
  </defs>
  <g class="GUNDAN_JAPANESE_SEROW_OUTFIT_JAPANESE_SEROW_OUTFIT_15_cls-1">
    <g id="outfit">
      <path class="GUNDAN_JAPANESE_SEROW_OUTFIT_JAPANESE_SEROW_OUTFIT_15_cls-2" d="M214.9,398.15c3.37,3.29,25.32,6.55,28.8,9.76q3.92-5.54,7.87-11.07c-4.89.93-28.32,1.41-33.16,1.41C217.24,398.25,216.07,398.22,214.9,398.15Z" />
      <path class="GUNDAN_JAPANESE_SEROW_OUTFIT_JAPANESE_SEROW_OUTFIT_15_cls-2" d="M305.52,290.58c-16.95,27.89-35.76,62-59.37,84.64-30.8-21.82-78.34-64.79-103.5-92.49-2.13,2-12.63,10.42-14.76,12.43l.35.15a10.25,10.25,0,0,1,3.85,4c3,4.64,7.73,15.49,10.17,20.44,18.46,23.82,45.7,52,67.27,73.22,8.95,1.2,36.93.55,46.21-1.9,1.48-2.08,3-4.14,4.46-6.2,13.11-18.18,33.2-40.94,46.66-58.9a140.42,140.42,0,0,1,10.77-19.83,10.25,10.25,0,0,1,3.85-4l.35-.15C318.32,298.67,309.05,293.92,305.52,290.58Z" />
      <path class="GUNDAN_JAPANESE_SEROW_OUTFIT_JAPANESE_SEROW_OUTFIT_15_cls-3" d="M312.3,391.19c-1.94-5.83,3-14.69.52-16.05a5.37,5.37,0,0,0-.88-.35h0c-.24-2.07-.56-4-.92-5.69-.27-1.32-.56-2.51-.84-3.55a5,5,0,0,0,1.47-1.46,4.64,4.64,0,0,0,.72-2.47,2.17,2.17,0,0,0,0-.26,4.72,4.72,0,0,0-2.77-4,5.06,5.06,0,0,0-2.15-.47,4.83,4.83,0,0,0-4.91,4.74,4,4,0,0,0,.12,1.05c-2.25,2.2-4.56,4.29-6.95,6.23C288.19,375,273.27,384.61,265,388c-.7.29-1.42.57-2.12.83-2.34.86-4.71,1.62-7.09,2.25-9.28,2.45-37.26,3.1-46.21,1.9a61.72,61.72,0,0,1-8.18-1.66c-9.15-2.52-17.82-7.25-25.47-11.43A137,137,0,0,1,163,372.15c-2.38-1.65-11.79-8.93-13.85-10.93a2.68,2.68,0,0,0,0-.4,4.83,4.83,0,0,0-4.92-4.74,5,5,0,0,0-2.14.48,4.68,4.68,0,0,0-2.77,4,1.14,1.14,0,0,0,0,.26,4.56,4.56,0,0,0,.73,2.47,5,5,0,0,0,1.47,1.46c-.29,1-.57,2.24-.84,3.55-.36,1.71-.68,3.62-.93,5.7h0a4.73,4.73,0,0,0-.87.34c-2.45,1.36,2.77,11,.84,16.84A101.6,101.6,0,0,0,136,406.93a6.4,6.4,0,0,0,1.85,1,11.66,11.66,0,0,0,3.14.59,21.91,21.91,0,0,0,3.89-.16c.74-.09,1.46-.21,2.12-.34l.74-.14c.86-.19,1.59-.39,2.14-.56-.59-2.73,1.14-11.77,1.24-17.73,0-2.7-6.89-10.39-7-12.07a3.72,3.72,0,0,0-1.31-3,64.08,64.08,0,0,1,1.72-9,4.43,4.43,0,0,0,1.51-.33,62.47,62.47,0,0,1,1.25,7.16,3.76,3.76,0,0,0-1.3,3c-.13,1.68,7.2,9.38,7.25,12.08.09,6,1.83,15,1.23,17.72.55.18,1.29.38,2.15.57s1.82.36,2.85.49a21,21,0,0,0,3.18.15c.23,0,.47,0,.7,0a11.07,11.07,0,0,0,3.16-.59,5.84,5.84,0,0,0,1.83-1A100.49,100.49,0,0,0,164.66,389c-.32-1-.64-1.88-1-2.75v0c-1.62-4.37-10.43-12.93-12.48-14.06a4.44,4.44,0,0,0-.86-.35c-.15-1.27-.33-2.48-.53-3.61,2.1,1.64,11.43,8.61,13.65,10,3.34,2.09,6.75,4,10,5.72,7.89,4.32,16.83,9.2,26.54,11.87a67,67,0,0,0,14.91,2.33c1.17.07,2.34.1,3.51.1,4.84,0,28.27-.48,33.16-1.41a81.28,81.28,0,0,0,13-3.64l1.31-.49c7.78-3,22.19-12,29.34-17.36,2.18-1.64,4.33-3.37,6.41-5.22-.12.79-.24,1.63-.34,2.49a4.52,4.52,0,0,0-.87.35c-2,1.13-10.54,8.89-12.15,13.26h0v0c-.34.87-.66,1.78-1,2.75a100.49,100.49,0,0,0-3.66,15.75,5.89,5.89,0,0,0,1.84,1,10.94,10.94,0,0,0,3.15.59c.24,0,.47,0,.71,0a21,21,0,0,0,3.18-.15c1-.13,2-.31,2.84-.49a21.77,21.77,0,0,0,2.15-.57c-.59-2.72,1.15-11.76,1.23-17.72,0-2.7,7.07-9.61,6.93-11.29a3.74,3.74,0,0,0-1.29-3,62,62,0,0,1,1.1-6.54c.05-.21.09-.42.14-.62a2.2,2.2,0,0,0,.36.13,5.63,5.63,0,0,0,1.16.2,62.54,62.54,0,0,1,1.71,9c-.86.61-8,6.32-8.12,7.7-.14,1.68.07,3.9.11,6.6.1,6,1.82,15,1.23,17.73.56.17,1.28.37,2.15.56l.74.14c.65.13,1.38.25,2.12.34a21.8,21.8,0,0,0,3.88.16,11.59,11.59,0,0,0,3.14-.59,6.22,6.22,0,0,0,1.84-1A100.24,100.24,0,0,0,312.3,391.19Z" />
      <path class="GUNDAN_JAPANESE_SEROW_OUTFIT_JAPANESE_SEROW_OUTFIT_15_cls-4" d="M175.88,379.84c7.65,4.18,16.32,8.91,25.47,11.43a61.72,61.72,0,0,0,8.18,1.66c-21.57-21.27-48.81-49.4-67.27-73.22,7.29,14.75,19.05,36.19,20.71,52.44A137,137,0,0,0,175.88,379.84Z" />
      <path class="GUNDAN_JAPANESE_SEROW_OUTFIT_JAPANESE_SEROW_OUTFIT_15_cls-4" d="M265,388c8.32-3.34,23.24-12.91,30.75-19.06a137.6,137.6,0,0,1,11.16-43c-13.46,18-33.55,40.72-46.66,58.9-1.5,2.06-3,4.12-4.46,6.2,2.38-.63,4.75-1.39,7.09-2.25C263.53,388.52,264.25,388.24,265,388Z" />
      <path class="GUNDAN_JAPANESE_SEROW_OUTFIT_JAPANESE_SEROW_OUTFIT_15_cls-4" d="M289.36,406.38c-.24,0-.47,0-.71,0a10.94,10.94,0,0,1-3.15-.59,5.89,5.89,0,0,1-1.84-1A100.49,100.49,0,0,1,287.32,389c.32-1,.64-1.88,1-2.75v0h0c0-2.06,6.85-8.82,6.95-10.88-7.15,5.36-21.56,14.33-29.34,17.36l-1.31.49a81.28,81.28,0,0,1-13,3.64q-4,5.52-7.87,11.07c-3.48-3.21-25.43-6.47-28.8-9.76A67,67,0,0,1,200,395.82c-9.71-2.67-18.65-7.55-26.54-11.87-3.23-1.76-6.64-3.63-10-5.72q.24,4,.22,8v0c.33.87.65,1.78,1,2.75a100.49,100.49,0,0,1,3.66,15.75,5.84,5.84,0,0,1-1.83,1,11.07,11.07,0,0,1-3.16.59c-.23,0-.47,0-.7,0-3.45,35.83-15.2,71-33.45,102.45H322.8C304.56,477.42,292.81,442.21,289.36,406.38Z" />
      <path class="GUNDAN_JAPANESE_SEROW_OUTFIT_JAPANESE_SEROW_OUTFIT_15_cls-5" d="M394.28,417.59c-1.73.19-3.36,1-5.06,1.32a93.85,93.85,0,0,1-6,29.49,9.59,9.59,0,0,1,7.15.32,5.73,5.73,0,0,1,2.53,2.09,101.45,101.45,0,0,0,6.25-32.35A8.83,8.83,0,0,0,394.28,417.59Z" />
      <path class="GUNDAN_JAPANESE_SEROW_OUTFIT_JAPANESE_SEROW_OUTFIT_15_cls-5" d="M386.24,465.36c-.84-.3-1.75-.63-2.69-1-.81,1.62-1.69,3.33-2.43,4.57a1.86,1.86,0,0,1-2.51.66,1.73,1.73,0,0,1-.69-2.42c.65-1.09,1.44-2.63,2.18-4.14-1.12-.45-2.18-.9-3.12-1.33a94.26,94.26,0,0,1-7.05,10.79,233.51,233.51,0,0,1-20-67.18,14.67,14.67,0,0,1-10.36-4.19l-.13-.14A243.29,243.29,0,0,0,363,480.68c1.42,2.89,2.91,5.76,4.44,8.6q5.43,10,11.81,19.55h11.82a236.44,236.44,0,0,1-16.36-26.69A104.35,104.35,0,0,0,386.24,465.36Z" />
      <path class="GUNDAN_JAPANESE_SEROW_OUTFIT_JAPANESE_SEROW_OUTFIT_15_cls-5" d="M68.8,448.4a94.13,94.13,0,0,1-6-29.49c-1.7-.36-3.33-1.13-5-1.32a8.8,8.8,0,0,0-4.83.87,100.9,100.9,0,0,0,6.25,32.35,5.7,5.7,0,0,1,2.52-2.09A9.59,9.59,0,0,1,68.8,448.4Z" />
      <path class="GUNDAN_JAPANESE_SEROW_OUTFIT_JAPANESE_SEROW_OUTFIT_15_cls-5" d="M102.05,405.32a233.51,233.51,0,0,1-20,67.18,97,97,0,0,1-7-10.79c-.93.43-2,.88-3.12,1.33.74,1.51,1.53,3,2.19,4.14a1.75,1.75,0,0,1-.69,2.42,1.91,1.91,0,0,1-.92.24,1.88,1.88,0,0,1-1.61-.9c-.73-1.24-1.62-2.95-2.42-4.57-.93.36-1.85.69-2.68,1a104.29,104.29,0,0,0,11.52,16.78,235,235,0,0,1-16.36,26.69H72.73q6.39-9.52,11.81-19.55c1.53-2.84,3-5.71,4.44-8.6A243,243,0,0,0,112.54,401a1.49,1.49,0,0,0-.12.14A14.71,14.71,0,0,1,102.05,405.32Z" />
      <path class="GUNDAN_JAPANESE_SEROW_OUTFIT_JAPANESE_SEROW_OUTFIT_15_cls-6" d="M411.14,419.19a14,14,0,0,0-4.87,2.44c-.91.71-2.33.12-3.33-.47s-1.81-1.44-2.77-2.09a9.14,9.14,0,0,0-1.06-.61,101.45,101.45,0,0,1-6.25,32.35v0c3.18,4.64,0,13.61-.4,14.8a1.84,1.84,0,0,1-1.73,1.18,1.93,1.93,0,0,1-.62-.11c-.67-.22-2.11-.71-3.87-1.34a104.35,104.35,0,0,1-11.53,16.78,236.44,236.44,0,0,0,16.36,26.69h34.25A272.83,272.83,0,0,0,411.14,419.19Z" />
      <path class="GUNDAN_JAPANESE_SEROW_OUTFIT_JAPANESE_SEROW_OUTFIT_15_cls-6" d="M363,480.68A243.29,243.29,0,0,1,339.44,401a14.86,14.86,0,0,1-1.24-1.38,19.18,19.18,0,0,0-3.87-4c-2.57-1.69-5.86-1.8-8.95-2.36a13.84,13.84,0,0,1-4.1-1.31c-2.62-1.38-4.36-3.89-5.8-6.41s4.11-9.89,2-11.95c-1.86-1.83-4.25-3.08-6.47-4.52.36,1.7.68,3.62.92,5.69h0a5.37,5.37,0,0,1,.88.35c2.45,1.36-2.46,10.22-.52,16.05A100.24,100.24,0,0,1,316,406.93a6.22,6.22,0,0,1-1.84,1,11.59,11.59,0,0,1-3.14.59,21.8,21.8,0,0,1-3.88-.16c-.74-.09-1.47-.21-2.12-.34,5,36.25,17.17,71.21,39.18,100.78h35.09q-6.37-9.52-11.81-19.55C365.91,486.44,364.42,483.57,363,480.68Z" />
      <path class="GUNDAN_JAPANESE_SEROW_OUTFIT_JAPANESE_SEROW_OUTFIT_15_cls-6" d="M377,461.71a15.32,15.32,0,0,1-3-1.66,1.72,1.72,0,0,1-.41-2.13c2.68-5.06,6-8.31,9.56-9.52a93.85,93.85,0,0,0,6-29.49,5.12,5.12,0,0,1-.54.1,8.2,8.2,0,0,1-5.58-.92c-2.08-1.3-3.16-3.74-5.28-5a7,7,0,0,0-1.44-.61,14.5,14.5,0,0,0-5.65-.07c-2.39.31-4.94.68-7.15-.27s-3.53-2.91-5.12-4.56c-.17-.17-.34-.35-.53-.52-1.54-1.43-3.57-2.57-5.59-2.08a11.45,11.45,0,0,1-2.41.31,233.51,233.51,0,0,0,20,67.18A94.26,94.26,0,0,0,377,461.71Z" />
      <path class="GUNDAN_JAPANESE_SEROW_OUTFIT_JAPANESE_SEROW_OUTFIT_15_cls-6" d="M78.37,457.92a1.72,1.72,0,0,1-.42,2.13,15,15,0,0,1-3,1.66,97,97,0,0,0,7,10.79,233.51,233.51,0,0,0,20-67.18,11.35,11.35,0,0,1-2.4-.31c-1.9-.46-3.81.52-5.32,1.82q-.42.38-.81.78c-1.59,1.65-3,3.63-5.12,4.56s-4.76.58-7.15.27-5-.52-7.09.68a6.59,6.59,0,0,0-.75.51c-1.65,1.31-2.71,3.32-4.52,4.46a8.23,8.23,0,0,1-5.59.92c-.18,0-.35-.06-.54-.1a94.13,94.13,0,0,0,6,29.49C72.34,449.61,75.68,452.86,78.37,457.92Z" />
      <path class="GUNDAN_JAPANESE_SEROW_OUTFIT_JAPANESE_SEROW_OUTFIT_15_cls-6" d="M65.75,465.36c-1.77.63-3.21,1.12-3.88,1.34a1.87,1.87,0,0,1-.61.11,1.85,1.85,0,0,1-1.74-1.18c-.43-1.19-3.58-10.16-.39-14.8v0a100.9,100.9,0,0,1-6.25-32.35,9.14,9.14,0,0,0-1.06.61c-1,.65-1.77,1.5-2.78,2.09s-2.41,1.18-3.33.47a13.87,13.87,0,0,0-4.87-2.44,272.56,272.56,0,0,0-14.17,89.64H60.91a235,235,0,0,0,16.36-26.69A104.29,104.29,0,0,1,65.75,465.36Z" />
      <path class="GUNDAN_JAPANESE_SEROW_OUTFIT_JAPANESE_SEROW_OUTFIT_15_cls-6" d="M138.85,374.35a4.73,4.73,0,0,1,.87-.34h0c.25-2.08.57-4,.93-5.7-2.22,1.45-4.61,2.69-6.47,4.52-2.1,2.06,3.77,10.21,2.33,12.74s-3.19,5-5.81,6.41a13.78,13.78,0,0,1-4.09,1.31c-3.1.56-6.39.67-9,2.36a14.91,14.91,0,0,0-3.28,3.26c-.59.71-1.19,1.43-1.84,2.09A243,243,0,0,1,89,480.68c-1.42,2.89-2.91,5.76-4.44,8.6q-5.43,10-11.81,19.55h35.09c22-29.57,34.17-64.53,39.19-100.78-.66.13-1.38.25-2.12.34a21.91,21.91,0,0,1-3.89.16,11.66,11.66,0,0,1-3.14-.59,6.4,6.4,0,0,1-1.85-1,101.6,101.6,0,0,1,3.68-15.74C141.62,385.36,136.4,375.71,138.85,374.35Z" />
      <path class="GUNDAN_JAPANESE_SEROW_OUTFIT_JAPANESE_SEROW_OUTFIT_15_cls-3" d="M405.7,400.21a13.2,13.2,0,0,0-1.2-1.29,36.33,36.33,0,0,1-5.72,1.55,8.41,8.41,0,0,1,4,2.17,7.54,7.54,0,0,1,2.41,4.87,4.23,4.23,0,0,1-.53,2.48,3.7,3.7,0,0,1-2,1.55,5.35,5.35,0,0,1-5.45-1.55.62.62,0,0,0-.86,0,.55.55,0,0,0-.09.78,7.34,7.34,0,0,0,2.95,2.33,6.72,6.72,0,0,0,4,.44,6.18,6.18,0,0,0,3.6-2.11,6.9,6.9,0,0,0,1.44-3.83A10.76,10.76,0,0,0,405.7,400.21Z" />
      <path class="GUNDAN_JAPANESE_SEROW_OUTFIT_JAPANESE_SEROW_OUTFIT_15_cls-3" d="M336.22,377.7c.59,1-5.85,6.73-5.79,7.83a4.23,4.23,0,0,1-.53,2.48,3.72,3.72,0,0,1-2,1.56,5.38,5.38,0,0,1-5.44-1.55.65.65,0,0,0-.88,0,.58.58,0,0,0-.08.79,7.56,7.56,0,0,0,2.94,2.34,7.48,7.48,0,0,0,1.32.41,6.9,6.9,0,0,0,2.68,0,6.36,6.36,0,0,0,3.6-2.12,6.91,6.91,0,0,0,1.43-3.84,11.24,11.24,0,0,0,0-1.3C332.07,383.66,337.55,378.35,336.22,377.7Z" />
      <path class="GUNDAN_JAPANESE_SEROW_OUTFIT_JAPANESE_SEROW_OUTFIT_15_cls-3" d="M383.86,400.89a8.41,8.41,0,0,1,1,.82,7.5,7.5,0,0,1,2.42,4.86,4.26,4.26,0,0,1-.53,2.49,3.73,3.73,0,0,1-2.05,1.55,5.38,5.38,0,0,1-5.45-1.55.62.62,0,0,0-.86,0,.57.57,0,0,0-.08.78,6.87,6.87,0,0,0,1.3,1.34,7.34,7.34,0,0,0,1.64,1,6.66,6.66,0,0,0,4,.43,6.21,6.21,0,0,0,3.62-2.1,7,7,0,0,0,1.43-3.84,10.08,10.08,0,0,0-1.2-5.39C387.31,401.21,385.59,401.09,383.86,400.89Z" />
      <path class="GUNDAN_JAPANESE_SEROW_OUTFIT_JAPANESE_SEROW_OUTFIT_15_cls-3" d="M345.72,389.61a7,7,0,0,1,1.45,1.12,7.54,7.54,0,0,1,2.41,4.87,4.3,4.3,0,0,1-.52,2.48,3.76,3.76,0,0,1-2.05,1.55,5.35,5.35,0,0,1-5.45-1.55.63.63,0,0,0-.87,0,.58.58,0,0,0-.09.78,3.44,3.44,0,0,0,.3.35,7.15,7.15,0,0,0,2.66,2,6.74,6.74,0,0,0,4,.44,6.18,6.18,0,0,0,3.6-2.11,6.81,6.81,0,0,0,1.43-3.83,9.57,9.57,0,0,0-.42-3.54C350,391.31,347.85,390.48,345.72,389.61Z" />
      <path class="GUNDAN_JAPANESE_SEROW_OUTFIT_JAPANESE_SEROW_OUTFIT_15_cls-3" d="M364.54,396.38c-1.69-.54-3.36-1.09-5-1.66a2.39,2.39,0,0,0,1.12.63l.32,0a8.35,8.35,0,0,1,4.85,2.33,7.51,7.51,0,0,1,2.41,4.86,4.14,4.14,0,0,1-.53,2.48,3.76,3.76,0,0,1-2,1.56,5.38,5.38,0,0,1-5.45-1.55.62.62,0,0,0-.86,0,.56.56,0,0,0-.09.78,7.6,7.6,0,0,0,.94,1,7.42,7.42,0,0,0,2,1.31,6.67,6.67,0,0,0,4,.43,6.28,6.28,0,0,0,3.6-2.1,7,7,0,0,0,1.43-3.84,9.77,9.77,0,0,0-.79-4.51C368.44,397.59,366.48,397,364.54,396.38Z" />
      <path class="GUNDAN_JAPANESE_SEROW_OUTFIT_JAPANESE_SEROW_OUTFIT_15_cls-3" d="M129.56,388a5.37,5.37,0,0,1-5.43,1.55,3.74,3.74,0,0,1-2-1.56,4.23,4.23,0,0,1-.53-2.48c.06-1.1-6.69-7.65-6.1-8.62q-2,1-4,1.89c0,.43,7.1,6.34,7.13,6.78a6.76,6.76,0,0,0,1.43,3.84,6.3,6.3,0,0,0,3.6,2.12,6.85,6.85,0,0,0,2.67,0,6.78,6.78,0,0,0,1.32-.41,7.52,7.52,0,0,0,3-2.34.59.59,0,0,0-.09-.79A.65.65,0,0,0,129.56,388Z" />
      <path class="GUNDAN_JAPANESE_SEROW_OUTFIT_JAPANESE_SEROW_OUTFIT_15_cls-3" d="M110.42,398.08a5.35,5.35,0,0,1-5.45,1.55,3.7,3.7,0,0,1-2-1.55,4.3,4.3,0,0,1-.52-2.48,7.57,7.57,0,0,1,2.4-4.87,7.09,7.09,0,0,1,1.46-1.12c-2.14.87-4.28,1.7-6.44,2.51a10,10,0,0,0-.42,3.54,6.88,6.88,0,0,0,1.43,3.83,6.24,6.24,0,0,0,3.6,2.11,6.72,6.72,0,0,0,4-.44,7.37,7.37,0,0,0,3-2.33.59.59,0,0,0-.08-.78A.65.65,0,0,0,110.42,398.08Z" />
      <path class="GUNDAN_JAPANESE_SEROW_OUTFIT_JAPANESE_SEROW_OUTFIT_15_cls-3" d="M91.81,405.07a5.39,5.39,0,0,1-5.45,1.55,3.79,3.79,0,0,1-2-1.56,4.21,4.21,0,0,1-.53-2.48,7.48,7.48,0,0,1,2.42-4.86A8.35,8.35,0,0,1,91,395.39l.32,0a2.3,2.3,0,0,0,1.12-.63q-2.51.86-5,1.66c-1.93.61-3.89,1.21-5.87,1.75a9.77,9.77,0,0,0-.79,4.51,7,7,0,0,0,1.43,3.84,6.28,6.28,0,0,0,3.6,2.1,6.71,6.71,0,0,0,4-.43,7.34,7.34,0,0,0,2.34-1.63,5.78,5.78,0,0,0,.6-.71.57.57,0,0,0-.08-.78A.62.62,0,0,0,91.81,405.07Z" />
      <path class="GUNDAN_JAPANESE_SEROW_OUTFIT_JAPANESE_SEROW_OUTFIT_15_cls-3" d="M72.76,409.06a5.37,5.37,0,0,1-5.45,1.55,3.73,3.73,0,0,1-2-1.55,4.26,4.26,0,0,1-.53-2.49,7.55,7.55,0,0,1,2.42-4.86,9.35,9.35,0,0,1,1-.82c-1.72.2-3.45.32-5.19.35a10,10,0,0,0-1.19,5.39,7,7,0,0,0,1.43,3.84,6.16,6.16,0,0,0,3.61,2.1,6.62,6.62,0,0,0,3.34-.19c.22-.07.43-.15.64-.24a7.43,7.43,0,0,0,2.95-2.34.57.57,0,0,0-.09-.78A.62.62,0,0,0,72.76,409.06Z" />
      <path class="GUNDAN_JAPANESE_SEROW_OUTFIT_JAPANESE_SEROW_OUTFIT_15_cls-3" d="M54.84,410a5.36,5.36,0,0,1-5.45,1.55,3.73,3.73,0,0,1-2-1.55,4.3,4.3,0,0,1-.53-2.48,7.5,7.5,0,0,1,2.42-4.87,8.41,8.41,0,0,1,4-2.17,36,36,0,0,1-5.72-1.55,12.18,12.18,0,0,0-1.21,1.29,10.81,10.81,0,0,0-2.47,7.36,6.84,6.84,0,0,0,1.45,3.83,6.12,6.12,0,0,0,3.6,2.11,6.74,6.74,0,0,0,4-.44,7.31,7.31,0,0,0,2.94-2.33.56.56,0,0,0-.08-.78A.62.62,0,0,0,54.84,410Z" />
      <path class="GUNDAN_JAPANESE_SEROW_OUTFIT_JAPANESE_SEROW_OUTFIT_15_cls-2" d="M420.11,414.8c-3.09-1.75-5-4.93-6.69-7.94-1.81-3.19-4-6.11-6.05-9.12-.94.44-1.89.83-2.87,1.18a13.2,13.2,0,0,1,1.2,1.29,10.76,10.76,0,0,1,2.47,7.36,6.9,6.9,0,0,1-1.44,3.83,6.18,6.18,0,0,1-3.6,2.11,6.72,6.72,0,0,1-4-.44,7.34,7.34,0,0,1-2.95-2.33.55.55,0,0,1,.09-.78.62.62,0,0,1,.86,0,5.35,5.35,0,0,0,5.45,1.55,3.7,3.7,0,0,0,2-1.55,4.23,4.23,0,0,0,.53-2.48,7.54,7.54,0,0,0-2.41-4.87,8.41,8.41,0,0,0-4-2.17,42.38,42.38,0,0,1-6.6.76c-1.05,0-2.08,0-3.13,0a10.08,10.08,0,0,1,1.2,5.39,7,7,0,0,1-1.43,3.84,6.21,6.21,0,0,1-3.62,2.1,6.66,6.66,0,0,1-4-.43,7.34,7.34,0,0,1-1.64-1,6.87,6.87,0,0,1-1.3-1.34.57.57,0,0,1,.08-.78.62.62,0,0,1,.86,0,5.38,5.38,0,0,0,5.45,1.55,3.73,3.73,0,0,0,2.05-1.55,4.26,4.26,0,0,0,.53-2.49,7.5,7.5,0,0,0-2.42-4.86,8.41,8.41,0,0,0-1-.82,87.7,87.7,0,0,1-13.45-2.76,9.77,9.77,0,0,1,.79,4.51,7,7,0,0,1-1.43,3.84,6.28,6.28,0,0,1-3.6,2.1,6.67,6.67,0,0,1-4-.43,7.42,7.42,0,0,1-2-1.31,7.6,7.6,0,0,1-.94-1,.56.56,0,0,1,.09-.78.62.62,0,0,1,.86,0,5.38,5.38,0,0,0,5.45,1.55,3.76,3.76,0,0,0,2-1.56,4.14,4.14,0,0,0,.53-2.48,7.51,7.51,0,0,0-2.41-4.86,8.35,8.35,0,0,0-4.85-2.33l-.32,0a2.39,2.39,0,0,1-1.12-.63q-3.71-1.25-7.35-2.6a9.57,9.57,0,0,1,.42,3.54,6.81,6.81,0,0,1-1.43,3.83,6.18,6.18,0,0,1-3.6,2.11,6.74,6.74,0,0,1-4-.44,7.15,7.15,0,0,1-2.66-2,3.44,3.44,0,0,1-.3-.35.58.58,0,0,1,.09-.78.63.63,0,0,1,.87,0,5.35,5.35,0,0,0,5.45,1.55,3.76,3.76,0,0,0,2.05-1.55,4.3,4.3,0,0,0,.52-2.48,7.54,7.54,0,0,0-2.41-4.87,7,7,0,0,0-1.45-1.12c-.88-.35-1.73-.7-2.59-1.06h0c-.82-.32-1.63-.66-2.43-1h0q-3.66-1.56-7.26-3.24a11.24,11.24,0,0,1,0,1.3,6.91,6.91,0,0,1-1.43,3.84,6.36,6.36,0,0,1-3.6,2.12,6.9,6.9,0,0,1-2.68,0,7.48,7.48,0,0,1-1.32-.41,7.56,7.56,0,0,1-2.94-2.34.58.58,0,0,1,.08-.79.65.65,0,0,1,.88,0,5.38,5.38,0,0,0,5.44,1.55,3.72,3.72,0,0,0,2-1.56,4.23,4.23,0,0,0,.53-2.48c-.06-1.1,6.38-6.86,5.79-7.83a258.64,258.64,0,0,1-24.57-13.62,5,5,0,0,1-1.47,1.46c.28,1,.57,2.23.84,3.55,2.22,1.44,4.61,2.69,6.47,4.52,2.1,2.06-3.45,9.42-2,11.95s3.18,5,5.8,6.41a13.84,13.84,0,0,0,4.1,1.31c3.09.56,6.38.67,8.95,2.36a19.18,19.18,0,0,1,3.87,4,14.86,14.86,0,0,0,1.24,1.38l.13.14a14.67,14.67,0,0,0,10.36,4.19,11.45,11.45,0,0,0,2.41-.31c2-.49,4.05.65,5.59,2.08.19.17.36.35.53.52,1.59,1.65,3,3.63,5.12,4.56s4.76.58,7.15.27a14.5,14.5,0,0,1,5.65.07,7,7,0,0,1,1.44.61c2.12,1.23,3.2,3.67,5.28,5a8.2,8.2,0,0,0,5.58.92,5.12,5.12,0,0,0,.54-.1c1.7-.36,3.33-1.13,5.06-1.32a8.83,8.83,0,0,1,4.83.87,9.14,9.14,0,0,1,1.06.61c1,.65,1.76,1.5,2.77,2.09s2.42,1.18,3.33.47a14,14,0,0,1,4.87-2.44,10.13,10.13,0,0,1,6.26.2,2.93,2.93,0,0,0,3.47-1.15A2.58,2.58,0,0,0,420.11,414.8Z" />
      <path class="GUNDAN_JAPANESE_SEROW_OUTFIT_JAPANESE_SEROW_OUTFIT_15_cls-2" d="M140,363.29a257.65,257.65,0,0,1-24.57,13.62c-.59,1,6.16,7.52,6.1,8.62a4.23,4.23,0,0,0,.53,2.48,3.74,3.74,0,0,0,2,1.56,5.37,5.37,0,0,0,5.43-1.55.65.65,0,0,1,.88,0,.59.59,0,0,1,.09.79,7.52,7.52,0,0,1-3,2.34,6.78,6.78,0,0,1-1.32.41,6.85,6.85,0,0,1-2.67,0,6.3,6.3,0,0,1-3.6-2.12,6.76,6.76,0,0,1-1.43-3.84c0-.44-7.16-6.35-7.13-6.78-2.4,1.13,2.32,7.68-.12,8.72h0c-.81.35-1.62.69-2.43,1h0l-2.58,1.06a7.09,7.09,0,0,0-1.46,1.12,7.57,7.57,0,0,0-2.4,4.87,4.3,4.3,0,0,0,.52,2.48,3.7,3.7,0,0,0,2,1.55,5.35,5.35,0,0,0,5.45-1.55.65.65,0,0,1,.88,0,.59.59,0,0,1,.08.78,7.37,7.37,0,0,1-3,2.33,6.72,6.72,0,0,1-4,.44,6.24,6.24,0,0,1-3.6-2.11,6.88,6.88,0,0,1-1.43-3.83,10,10,0,0,1,.42-3.54q-3.64,1.35-7.35,2.6a2.3,2.3,0,0,1-1.12.63l-.32,0a8.35,8.35,0,0,0-4.84,2.33,7.48,7.48,0,0,0-2.42,4.86,4.21,4.21,0,0,0,.53,2.48,3.79,3.79,0,0,0,2,1.56,5.39,5.39,0,0,0,5.45-1.55.62.62,0,0,1,.86,0,.57.57,0,0,1,.08.78,5.78,5.78,0,0,1-.6.71,7.34,7.34,0,0,1-2.34,1.63,6.71,6.71,0,0,1-4,.43,6.28,6.28,0,0,1-3.6-2.1,7,7,0,0,1-1.43-3.84,9.77,9.77,0,0,1,.79-4.51,87.46,87.46,0,0,1-13.45,2.76,9.35,9.35,0,0,0-1,.82,7.55,7.55,0,0,0-2.42,4.86,4.26,4.26,0,0,0,.53,2.49,3.73,3.73,0,0,0,2,1.55,5.37,5.37,0,0,0,5.45-1.55.62.62,0,0,1,.86,0,.57.57,0,0,1,.09.78,7.43,7.43,0,0,1-2.95,2.34c-.21.09-.42.17-.64.24a6.62,6.62,0,0,1-3.34.19,6.16,6.16,0,0,1-3.61-2.1,7,7,0,0,1-1.43-3.84,10,10,0,0,1,1.19-5.39c-1,0-2.08,0-3.13,0a42.11,42.11,0,0,1-6.59-.76,8.41,8.41,0,0,0-4,2.17,7.5,7.5,0,0,0-2.42,4.87,4.3,4.3,0,0,0,.53,2.48,3.73,3.73,0,0,0,2,1.55A5.36,5.36,0,0,0,54.84,410a.62.62,0,0,1,.86,0,.56.56,0,0,1,.08.78,7.31,7.31,0,0,1-2.94,2.33,6.74,6.74,0,0,1-4,.44,6.12,6.12,0,0,1-3.6-2.11,6.84,6.84,0,0,1-1.45-3.83,10.81,10.81,0,0,1,2.47-7.36,12.18,12.18,0,0,1,1.21-1.29,30.28,30.28,0,0,1-2.87-1.18c-2.08,3-4.24,5.93-6.06,9.12-1.72,3-3.6,6.19-6.69,7.94a2.56,2.56,0,0,0-.75,3.44,2.92,2.92,0,0,0,3.46,1.15,10.13,10.13,0,0,1,6.26-.2,13.87,13.87,0,0,1,4.87,2.44c.92.71,2.33.12,3.33-.47s1.81-1.44,2.78-2.09a9.14,9.14,0,0,1,1.06-.61,8.8,8.8,0,0,1,4.83-.87c1.72.19,3.35,1,5,1.32.19,0,.36.08.54.1a8.23,8.23,0,0,0,5.59-.92c1.81-1.14,2.87-3.15,4.52-4.46a6.59,6.59,0,0,1,.75-.51c2.09-1.2,4.69-1,7.09-.68s5,.68,7.15-.27,3.53-2.91,5.12-4.56q.39-.41.81-.78c1.51-1.3,3.42-2.28,5.32-1.82a11.35,11.35,0,0,0,2.4.31,14.71,14.71,0,0,0,10.37-4.19,1.49,1.49,0,0,1,.12-.14c.65-.66,1.25-1.38,1.84-2.09a14.91,14.91,0,0,1,3.28-3.26c2.56-1.69,5.85-1.8,9-2.36A13.78,13.78,0,0,0,130.7,392c2.62-1.38,4.36-3.89,5.81-6.41s-4.43-10.68-2.33-12.74c1.86-1.83,4.25-3.07,6.47-4.52.27-1.31.55-2.51.84-3.55A5,5,0,0,1,140,363.29Z" />
      <path class="GUNDAN_JAPANESE_SEROW_OUTFIT_JAPANESE_SEROW_OUTFIT_15_cls-7" d="M404.24,392.83c-26.9,14.74-75.61-21.53-91.88-31.48a2.17,2.17,0,0,1,0,.26,4.64,4.64,0,0,1-.72,2.47,258.64,258.64,0,0,0,24.57,13.62c1.33.65-4.15,6-2.8,6.58q3.6,1.68,7.26,3.24h0c.8.35,1.61.69,2.43,1h0c.86.36,1.71.71,2.59,1.06,2.13.87,4.28,1.7,6.43,2.51q3.64,1.35,7.35,2.6c1.68.57,3.35,1.12,5,1.66,1.94.61,3.9,1.21,5.87,1.75a87.7,87.7,0,0,0,13.45,2.76c1.73.2,3.45.32,5.19.35,1.05,0,2.08,0,3.13,0a42.38,42.38,0,0,0,6.6-.76,36.33,36.33,0,0,0,5.72-1.55c1-.35,1.93-.74,2.87-1.18C406.27,396.14,405.2,394.52,404.24,392.83Z" />
      <path class="GUNDAN_JAPANESE_SEROW_OUTFIT_JAPANESE_SEROW_OUTFIT_15_cls-7" d="M300.45,373a4.52,4.52,0,0,1,.87-.35c.1-.86.22-1.7.34-2.49-2.08,1.85-4.23,3.58-6.41,5.22-.1,2.06-6.95,8.82-6.95,10.88C289.91,381.86,298.41,374.1,300.45,373Z" />
      <path class="GUNDAN_JAPANESE_SEROW_OUTFIT_JAPANESE_SEROW_OUTFIT_15_cls-7" d="M149.82,368.22c.2,1.13.38,2.34.53,3.61a4.44,4.44,0,0,1,.86.35c2,1.13,10.86,9.69,12.48,14.06q0-4-.22-8C161.25,376.83,151.92,369.86,149.82,368.22Z" />
      <path class="GUNDAN_JAPANESE_SEROW_OUTFIT_JAPANESE_SEROW_OUTFIT_15_cls-7" d="M138.18,336.13a93,93,0,0,1,3.9,20.43,5,5,0,0,1,2.14-.48,4.83,4.83,0,0,1,4.92,4.74,2.68,2.68,0,0,1,0,.4c2.06,2,11.47,9.28,13.85,10.93-1.66-16.25-13.42-37.69-20.71-52.44-2.44-4.95-7.13-15.8-10.17-20.44a10.25,10.25,0,0,0-3.85-4l-.35-.15c-1.68-.62-3.87-.24-4.67,1.29-1.11,2.14-1.41,9.26-3.79,10.19C128.33,314.33,129.53,308.94,138.18,336.13Z" />
      <path class="GUNDAN_JAPANESE_SEROW_OUTFIT_JAPANESE_SEROW_OUTFIT_15_cls-7" d="M302.53,361.61a4.83,4.83,0,0,1,4.91-4.74,5.06,5.06,0,0,1,2.15.47,93.48,93.48,0,0,1,3.89-20.42c3.55-11.15,9.77-21.72,18.75-29.49-2.37-.94-4.62-2-5.73-4.14-.8-1.54-3-1.92-4.67-1.3l-.35.15a10.25,10.25,0,0,0-3.85,4,140.42,140.42,0,0,0-10.77,19.83,137.6,137.6,0,0,0-11.16,43c2.39-1.94,4.7-4,6.95-6.23A4,4,0,0,1,302.53,361.61Z" />
      <path class="GUNDAN_JAPANESE_SEROW_OUTFIT_JAPANESE_SEROW_OUTFIT_15_cls-7" d="M304.24,407.91c-.87-.19-1.59-.39-2.15-.56.59-2.73-1.13-11.77-1.23-17.73,0-2.7-.25-4.92-.11-6.6.1-1.38,7.26-7.09,8.12-7.7a62.54,62.54,0,0,0-1.71-9,5.63,5.63,0,0,1-1.16-.2c-.15.16-.32.33-.5.49a62,62,0,0,0-1.1,6.54,3.74,3.74,0,0,1,1.29,3c.14,1.68-6.89,8.59-6.93,11.29-.08,6-1.82,15-1.23,17.72a21.77,21.77,0,0,1-2.15.57c-.85.18-1.82.36-2.84.49a21,21,0,0,1-3.18.15c3.45,35.83,15.2,71,33.44,102.45h21.36C322.15,479.26,310,444.3,305,408.05Z" />
      <path class="GUNDAN_JAPANESE_SEROW_OUTFIT_JAPANESE_SEROW_OUTFIT_15_cls-7" d="M156.6,405.74c-.86-.19-1.6-.39-2.15-.57.6-2.72-1.14-11.76-1.23-17.72-.05-2.7-7.38-10.4-7.25-12.08a3.76,3.76,0,0,1,1.3-3A62.47,62.47,0,0,0,146,365.2a4.43,4.43,0,0,1-1.51.33,64.08,64.08,0,0,0-1.72,9,3.72,3.72,0,0,1,1.31,3c.14,1.68,7.06,9.37,7,12.07-.1,6-1.83,15-1.24,17.73-.55.17-1.28.37-2.14.56l-.74.14c-5,36.25-17.17,71.21-39.19,100.78h21.36c18.25-31.41,30-66.62,33.45-102.45a21,21,0,0,1-3.18-.15C158.42,406.1,157.44,405.92,156.6,405.74Z" />
      <path class="GUNDAN_JAPANESE_SEROW_OUTFIT_JAPANESE_SEROW_OUTFIT_15_cls-7" d="M108.87,388.54c.81-.32,1.62-.66,2.43-1h0c2.44-1-2.28-7.59.12-8.72q2-.92,4-1.89A257.65,257.65,0,0,0,140,363.29a4.56,4.56,0,0,1-.73-2.47,1.14,1.14,0,0,1,0-.26c-16.28,9.95-64.66,47-91.56,32.27-1,1.69-2,3.31-3.13,4.91a30.28,30.28,0,0,0,2.87,1.18,36,36,0,0,0,5.72,1.55,42.11,42.11,0,0,0,6.59.76c1.05,0,2.09,0,3.13,0,1.74,0,3.47-.15,5.19-.35a87.46,87.46,0,0,0,13.45-2.76c2-.54,3.94-1.14,5.87-1.75q2.53-.81,5-1.66,3.7-1.25,7.35-2.6c2.16-.81,4.3-1.64,6.44-2.51l2.58-1.06Z" />
      <path class="GUNDAN_JAPANESE_SEROW_OUTFIT_JAPANESE_SEROW_OUTFIT_15_cls-6" d="M408.34,338.19a33.69,33.69,0,0,0-10.36-7.3A34.14,34.14,0,0,0,385.61,346c-1.37,3.42-2.13,7-3.41,10.48-1.81,4.89-4.88,9.68-10.91,11.17a15.25,15.25,0,0,1-9.89-1c-13.19-5.94-26-12.9-36.46-22.24a13.49,13.49,0,0,1-3.52-16,38.66,38.66,0,0,1,8.74-11.79,42.06,42.06,0,0,1,9-6.26c-1-.5-2.08-1-3.13-1.46-1.22-.54-2.55-1-3.85-1.5-9,7.77-15.2,18.34-18.75,29.49a93.48,93.48,0,0,0-3.89,20.42,4.72,4.72,0,0,1,2.77,4c16.27,9.95,65,46.22,91.88,31.48,2.52-8.39,11.88-21.56,12.15-30.29S414.4,344.7,408.34,338.19Z" />
      <path class="GUNDAN_JAPANESE_SEROW_OUTFIT_JAPANESE_SEROW_OUTFIT_15_cls-6" d="M119.43,306.64c-1.29.5-2.62,1-3.84,1.51-1,.47-2.1,1-3.13,1.45a42.1,42.1,0,0,1,9,6.26,38.42,38.42,0,0,1,8.74,11.8,13.46,13.46,0,0,1-3.51,16c-10.46,9.34-23.27,16.3-36.46,22.25a15.31,15.31,0,0,1-9.89,1c-6-1.49-9.1-6.27-10.91-11.16-1.28-3.46-2-7.07-3.41-10.49a34.12,34.12,0,0,0-12.37-15.13,33.65,33.65,0,0,0-10.37,7.29c-6,6.51-8.31,15.63-8,24.35s9.95,22.69,12.48,31.08c26.9,14.74,75.28-22.32,91.56-32.27a4.68,4.68,0,0,1,2.77-4,93,93,0,0,0-3.9-20.43C129.53,308.94,128.33,314.33,119.43,306.64Z" />
      <path class="GUNDAN_JAPANESE_SEROW_OUTFIT_JAPANESE_SEROW_OUTFIT_15_cls-7" d="M81.29,336.35h1.64a10.54,10.54,0,0,0,0,1.26l-1.64.39a.54.54,0,0,0-.43.56l.12.77a.46.46,0,0,0,.58.33l1.66-.4a10.11,10.11,0,0,0,.44,1.24l-1.56.8a.51.51,0,0,0-.27.66l.36.73a.51.51,0,0,0,.69.18l1.58-.82a12.64,12.64,0,0,0,.8,1.12L84,344.35a.5.5,0,0,0-.08.72l.58.63a.57.57,0,0,0,.77,0l1.34-1.21a13.93,13.93,0,0,0,1.13.9l-1,1.51a.49.49,0,0,0,.15.72l.77.46a.57.57,0,0,0,.76-.19l1-1.53a12.3,12.3,0,0,0,1.39.58l-.53,1.72a.54.54,0,0,0,.36.67l.9.25a.56.56,0,0,0,.69-.39l.51-1.74a11,11,0,0,0,1.54.19l0,1.81a.56.56,0,0,0,.56.56h.93a.56.56,0,0,0,.56-.56v-1.81a10.89,10.89,0,0,0,1.52-.19l.51,1.74a.56.56,0,0,0,.69.39l.9-.25a.51.51,0,0,0,.36-.67l-.53-1.72a13.28,13.28,0,0,0,1.4-.58l1,1.53a.55.55,0,0,0,.75.19l.78-.46a.51.51,0,0,0,.14-.72l-1-1.51a12.67,12.67,0,0,0,1.15-.9l1.34,1.21a.56.56,0,0,0,.76,0l.58-.63a.5.5,0,0,0-.07-.72l-1.34-1.18a8.5,8.5,0,0,0,.8-1.12l1.58.82a.51.51,0,0,0,.69-.18l.36-.73a.51.51,0,0,0-.26-.66l-1.57-.8a8.64,8.64,0,0,0,.43-1.24l1.67.4a.46.46,0,0,0,.58-.33l.12-.77a.54.54,0,0,0-.42-.56l-1.65-.39a8.79,8.79,0,0,0,0-1.26h1.63a.4.4,0,0,0,.43-.44l-.1-.75a.53.53,0,0,0-.54-.42h-1.61a11.26,11.26,0,0,0-.3-1.21l1.48-.36a.36.36,0,0,0,.27-.51l-.3-.67a.53.53,0,0,0-.6-.28l-1.48.34c-.19-.37-.4-.72-.62-1.07l1.26-.65a.33.33,0,0,0,.11-.53l-.46-.58a.54.54,0,0,0-.64-.14l-1.25.65a12.29,12.29,0,0,0-.89-.88l1-.9a.32.32,0,0,0-.07-.52l-.57-.45a.55.55,0,0,0-.65,0l-1,.88c-.35-.24-.7-.46-1.07-.67l.67-1a.34.34,0,0,0-.19-.49l-.68-.31a.48.48,0,0,0-.59.13l-.69,1c-.39-.15-.79-.28-1.2-.4l.33-1.15c.07-.19-.08-.38-.32-.43l-.72-.15a.43.43,0,0,0-.53.25l-.36,1.13c-.42,0-.84-.1-1.26-.13v-1.18c0-.19-.2-.34-.45-.34h-.74a.4.4,0,0,0-.44.34v1.18c-.42,0-.84.08-1.26.13l-.34-1.13a.45.45,0,0,0-.53-.25l-.74.15a.36.36,0,0,0-.32.43l.33,1.15c-.41.12-.8.25-1.2.4l-.68-1a.49.49,0,0,0-.6-.13l-.66.31a.33.33,0,0,0-.2.49l.66,1c-.37.21-.72.43-1.07.67l-1-.88a.54.54,0,0,0-.64,0l-.58.45a.32.32,0,0,0,0,.52l1,.9a12.29,12.29,0,0,0-.89.88l-1.25-.65a.52.52,0,0,0-.63.14l-.47.58a.33.33,0,0,0,.11.53l1.26.65c-.22.35-.43.7-.62,1.07l-1.48-.34a.54.54,0,0,0-.6.28l-.3.67a.36.36,0,0,0,.27.51l1.49.36a7.93,7.93,0,0,0-.3,1.21H81.5a.54.54,0,0,0-.54.42l-.1.75A.4.4,0,0,0,81.29,336.35Zm4.83-.82c.37-4.3,4.44-7.54,9.11-7.54s8.74,3.24,9.11,7.54c.4,4.69-3.67,8.78-9.11,8.78S85.73,340.22,86.12,335.53Z" />
      <path class="GUNDAN_JAPANESE_SEROW_OUTFIT_JAPANESE_SEROW_OUTFIT_15_cls-7" d="M344.6,331.12l1.26.65a7.63,7.63,0,0,0-.62,1.07l-1.48-.35a.51.51,0,0,0-.6.29l-.3.67a.36.36,0,0,0,.27.51l1.48.36c-.12.39-.22.79-.31,1.2h-1.6a.53.53,0,0,0-.54.43l-.1.75a.39.39,0,0,0,.43.43h1.63a8.88,8.88,0,0,0,.05,1.27l-1.65.39a.52.52,0,0,0-.42.56l.12.77a.45.45,0,0,0,.58.33l1.66-.4a10.63,10.63,0,0,0,.42,1.24l-1.55.79a.51.51,0,0,0-.26.67l.36.73a.52.52,0,0,0,.69.18l1.58-.82a7.8,7.8,0,0,0,.8,1.11l-1.35,1.19a.51.51,0,0,0-.06.72l.58.63a.54.54,0,0,0,.75,0l1.35-1.21a12.9,12.9,0,0,0,1.14.9l-1,1.5a.5.5,0,0,0,.14.72l.78.47a.55.55,0,0,0,.75-.19l1-1.53c.45.21.92.4,1.4.58l-.53,1.72a.51.51,0,0,0,.36.67l.9.25a.56.56,0,0,0,.68-.39l.51-1.74a15.22,15.22,0,0,0,1.53.19v1.81a.56.56,0,0,0,.54.56h.95a.56.56,0,0,0,.56-.56l0-1.81a15.07,15.07,0,0,0,1.54-.19l.51,1.74a.55.55,0,0,0,.68.39l.91-.25a.54.54,0,0,0,.36-.67l-.53-1.72c.48-.18,1-.37,1.39-.58l1,1.53a.56.56,0,0,0,.75.19l.78-.47a.49.49,0,0,0,.15-.72l-1-1.5c.4-.29.78-.58,1.14-.9l1.34,1.21a.54.54,0,0,0,.75,0l.59-.63a.5.5,0,0,0-.07-.72L366.37,344a13.08,13.08,0,0,0,.8-1.11l1.58.82a.51.51,0,0,0,.68-.18l.37-.73a.53.53,0,0,0-.27-.67l-1.56-.79a10.68,10.68,0,0,0,.43-1.24l1.67.4a.43.43,0,0,0,.56-.33l.14-.77a.54.54,0,0,0-.43-.56l-1.64-.39a10.64,10.64,0,0,0,0-1.27h1.64a.4.4,0,0,0,.43-.43l-.1-.75a.54.54,0,0,0-.54-.43h-1.62a8.13,8.13,0,0,0-.31-1.2l1.49-.36a.37.37,0,0,0,.28-.51l-.3-.67a.55.55,0,0,0-.62-.29l-1.46.35c-.19-.37-.4-.73-.62-1.07l1.26-.65a.34.34,0,0,0,.11-.53l-.47-.58a.56.56,0,0,0-.64-.15l-1.26.66a10.33,10.33,0,0,0-.87-.88l1-.9a.33.33,0,0,0-.05-.52l-.59-.45a.52.52,0,0,0-.63,0l-1,.88a12.1,12.1,0,0,0-1.08-.67l.67-1a.35.35,0,0,0-.2-.5l-.68-.3a.48.48,0,0,0-.59.13l-.67,1c-.4-.16-.79-.29-1.2-.41l.33-1.14a.37.37,0,0,0-.33-.43l-.73-.15a.45.45,0,0,0-.53.24l-.34,1.14c-.42-.06-.84-.11-1.27-.13v-1.18a.42.42,0,0,0-.45-.35h-.74a.41.41,0,0,0-.44.35v1.18c-.43,0-.85.07-1.26.13l-.36-1.14a.45.45,0,0,0-.53-.24l-.72.15c-.24.05-.39.24-.33.43l.34,1.14a11.28,11.28,0,0,0-1.2.41l-.69-1a.48.48,0,0,0-.59-.13l-.68.3a.35.35,0,0,0-.2.5l.68,1a11.94,11.94,0,0,0-1.07.67l-1-.88a.52.52,0,0,0-.63,0l-.58.45a.33.33,0,0,0-.06.52l1,.9a12.29,12.29,0,0,0-.89.88l-1.25-.66a.57.57,0,0,0-.65.15l-.45.58A.34.34,0,0,0,344.6,331.12Zm2.72,5.2c.36-4.3,4.43-7.54,9.11-7.54s8.74,3.24,9.11,7.54c.4,4.69-3.67,8.78-9.11,8.78S346.93,341,347.32,336.32Z" />
      <path class="GUNDAN_JAPANESE_SEROW_OUTFIT_JAPANESE_SEROW_OUTFIT_15_cls-7" d="M393.37,329a29.09,29.09,0,0,0-13.16,14.77c-1.13,2.91-1.75,6-2.8,8.91-1.47,4.14-4,8.21-8.91,9.48a12.08,12.08,0,0,1-8.07-.85c-10.79-5.05-21.26-11-29.81-18.89a11.77,11.77,0,0,1-2.87-13.58,33.07,33.07,0,0,1,7.13-10,34.81,34.81,0,0,1,9.11-6.18c-1.59-.76-3.18-1.52-4.78-2.26a42.06,42.06,0,0,0-9,6.26,38.66,38.66,0,0,0-8.74,11.79,13.49,13.49,0,0,0,3.52,16c10.46,9.34,23.27,16.3,36.46,22.24a15.25,15.25,0,0,0,9.89,1c6-1.49,9.1-6.28,10.91-11.17,1.28-3.45,2-7.06,3.41-10.48A34.14,34.14,0,0,1,398,330.89,49.49,49.49,0,0,0,393.37,329Z" />
      <path class="GUNDAN_JAPANESE_SEROW_OUTFIT_JAPANESE_SEROW_OUTFIT_15_cls-7" d="M121.5,315.86a42.1,42.1,0,0,0-9-6.26l-4.79,2.26a34.72,34.72,0,0,1,9.11,6.18,32.93,32.93,0,0,1,7.14,10,11.78,11.78,0,0,1-2.87,13.58c-8.56,7.93-19,13.84-29.81,18.89a12.09,12.09,0,0,1-8.07.86c-4.92-1.28-7.44-5.34-8.92-9.49-1-2.93-1.66-6-2.8-8.91A29,29,0,0,0,58.3,328.22a48.48,48.48,0,0,0-4.61,1.89,34.12,34.12,0,0,1,12.37,15.13c1.36,3.42,2.13,7,3.41,10.49,1.81,4.89,4.88,9.67,10.91,11.16a15.31,15.31,0,0,0,9.89-1c13.19-5.95,26-12.91,36.46-22.25a13.46,13.46,0,0,0,3.51-16A38.42,38.42,0,0,0,121.5,315.86Z" />
      <path class="GUNDAN_JAPANESE_SEROW_OUTFIT_JAPANESE_SEROW_OUTFIT_15_cls-5" d="M356.43,328.78c-4.68,0-8.75,3.24-9.11,7.54-.39,4.69,3.68,8.78,9.11,8.78s9.51-4.09,9.11-8.78C365.17,332,361.11,328.78,356.43,328.78Z" />
      <path class="GUNDAN_JAPANESE_SEROW_OUTFIT_JAPANESE_SEROW_OUTFIT_15_cls-5" d="M95.23,328c-4.67,0-8.74,3.24-9.11,7.54-.39,4.69,3.68,8.78,9.11,8.78s9.51-4.09,9.11-8.78C104,331.23,99.92,328,95.23,328Z" />
      <path class="GUNDAN_JAPANESE_SEROW_OUTFIT_JAPANESE_SEROW_OUTFIT_15_cls-5" d="M391.27,328.29c-6.38-2-13-3.13-19.55-4.7C362,321.22,353,317,344,312.65a34.81,34.81,0,0,0-9.11,6.18,33.07,33.07,0,0,0-7.13,10,11.77,11.77,0,0,0,2.87,13.58c8.55,7.93,19,13.84,29.81,18.89a12.08,12.08,0,0,0,8.07.85c4.92-1.27,7.44-5.34,8.91-9.48,1-2.94,1.67-6,2.8-8.91A29.09,29.09,0,0,1,393.37,329C392.68,328.75,392,328.51,391.27,328.29Zm-26.18,17c-.36.32-.74.61-1.14.9l1,1.5a.49.49,0,0,1-.15.72l-.78.47a.56.56,0,0,1-.75-.19l-1-1.53c-.44.21-.91.4-1.39.58l.53,1.72a.54.54,0,0,1-.36.67l-.91.25a.55.55,0,0,1-.68-.39l-.51-1.74a15.07,15.07,0,0,1-1.54.19l0,1.81a.56.56,0,0,1-.56.56H356a.56.56,0,0,1-.54-.56v-1.81a15.22,15.22,0,0,1-1.53-.19l-.51,1.74a.56.56,0,0,1-.68.39l-.9-.25a.51.51,0,0,1-.36-.67l.53-1.72c-.48-.18-1-.37-1.4-.58l-1,1.53a.55.55,0,0,1-.75.19l-.78-.47a.5.5,0,0,1-.14-.72l1-1.5a12.9,12.9,0,0,1-1.14-.9l-1.35,1.21a.54.54,0,0,1-.75,0l-.58-.63a.51.51,0,0,1,.06-.72L346.5,344a7.8,7.8,0,0,1-.8-1.11l-1.58.82a.52.52,0,0,1-.69-.18l-.36-.73a.51.51,0,0,1,.26-.67l1.55-.79a10.63,10.63,0,0,1-.42-1.24l-1.66.4a.45.45,0,0,1-.58-.33l-.12-.77a.52.52,0,0,1,.42-.56l1.65-.39a8.88,8.88,0,0,1-.05-1.27h-1.63a.39.39,0,0,1-.43-.43l.1-.75a.53.53,0,0,1,.54-.43h1.6c.09-.41.19-.81.31-1.2l-1.48-.36a.36.36,0,0,1-.27-.51l.3-.67a.51.51,0,0,1,.6-.29l1.48.35a7.63,7.63,0,0,1,.62-1.07l-1.26-.65a.34.34,0,0,1-.11-.53l.45-.58a.57.57,0,0,1,.65-.15l1.25.66a12.29,12.29,0,0,1,.89-.88l-1-.9a.33.33,0,0,1,.06-.52l.58-.45a.52.52,0,0,1,.63,0l1,.88a11.94,11.94,0,0,1,1.07-.67l-.68-1a.35.35,0,0,1,.2-.5l.68-.3a.48.48,0,0,1,.59.13l.69,1a11.28,11.28,0,0,1,1.2-.41l-.34-1.14c-.06-.19.09-.38.33-.43l.72-.15a.45.45,0,0,1,.53.24l.36,1.14c.41-.06.83-.11,1.26-.13v-1.18a.41.41,0,0,1,.44-.35h.74a.42.42,0,0,1,.45.35v1.18c.43,0,.85.07,1.27.13l.34-1.14a.45.45,0,0,1,.53-.24l.73.15a.37.37,0,0,1,.33.43l-.33,1.14c.41.12.8.25,1.2.41l.67-1a.48.48,0,0,1,.59-.13l.68.3a.35.35,0,0,1,.2.5l-.67,1a12.1,12.1,0,0,1,1.08.67l1-.88a.52.52,0,0,1,.63,0l.59.45a.33.33,0,0,1,.05.52l-1,.9a10.33,10.33,0,0,1,.87.88l1.26-.66a.56.56,0,0,1,.64.15l.47.58a.34.34,0,0,1-.11.53l-1.26.65c.22.34.43.7.62,1.07l1.46-.35a.55.55,0,0,1,.62.29l.3.67a.37.37,0,0,1-.28.51l-1.49.36a8.13,8.13,0,0,1,.31,1.2h1.62a.54.54,0,0,1,.54.43l.1.75a.4.4,0,0,1-.43.43h-1.64a10.64,10.64,0,0,1,0,1.27l1.64.39a.54.54,0,0,1,.43.56l-.14.77a.43.43,0,0,1-.56.33l-1.67-.4a10.68,10.68,0,0,1-.43,1.24l1.56.79a.53.53,0,0,1,.27.67l-.37.73a.51.51,0,0,1-.68.18l-1.58-.82a13.08,13.08,0,0,1-.8,1.11l1.33,1.19a.5.5,0,0,1,.07.72l-.59.63a.54.54,0,0,1-.75,0Z" />
      <path class="GUNDAN_JAPANESE_SEROW_OUTFIT_JAPANESE_SEROW_OUTFIT_15_cls-5" d="M116.78,318a34.72,34.72,0,0,0-9.11-6.18c-9,4.3-18,8.57-27.72,10.94-6.52,1.58-13.17,2.68-19.55,4.7-.71.23-1.41.46-2.1.72A29,29,0,0,1,71.45,343c1.14,2.91,1.76,6,2.8,8.91,1.48,4.15,4,8.21,8.92,9.49a12.09,12.09,0,0,0,8.07-.86c10.79-5,21.25-11,29.81-18.89a11.78,11.78,0,0,0,2.87-13.58A32.93,32.93,0,0,0,116.78,318Zm-7.63,20a.54.54,0,0,1,.42.56l-.12.77a.46.46,0,0,1-.58.33l-1.67-.4a8.64,8.64,0,0,1-.43,1.24l1.57.8a.51.51,0,0,1,.26.66l-.36.73a.51.51,0,0,1-.69.18l-1.58-.82a8.5,8.5,0,0,1-.8,1.12l1.34,1.18a.5.5,0,0,1,.07.72l-.58.63a.56.56,0,0,1-.76,0l-1.34-1.21a12.67,12.67,0,0,1-1.15.9l1,1.51a.51.51,0,0,1-.14.72l-.78.46a.55.55,0,0,1-.75-.19l-1-1.53a13.28,13.28,0,0,1-1.4.58l.53,1.72a.51.51,0,0,1-.36.67l-.9.25a.56.56,0,0,1-.69-.39l-.51-1.74a10.89,10.89,0,0,1-1.52.19v1.81a.56.56,0,0,1-.56.56h-.93a.56.56,0,0,1-.56-.56l0-1.81a11,11,0,0,1-1.54-.19l-.51,1.74a.56.56,0,0,1-.69.39l-.9-.25a.54.54,0,0,1-.36-.67l.53-1.72a12.3,12.3,0,0,1-1.39-.58l-1,1.53a.57.57,0,0,1-.76.19l-.77-.46a.49.49,0,0,1-.15-.72l1-1.51a13.93,13.93,0,0,1-1.13-.9l-1.34,1.21a.57.57,0,0,1-.77,0l-.58-.63a.5.5,0,0,1,.08-.72l1.33-1.18a12.64,12.64,0,0,1-.8-1.12l-1.58.82a.51.51,0,0,1-.69-.18l-.36-.73a.51.51,0,0,1,.27-.66l1.56-.8a10.11,10.11,0,0,1-.44-1.24l-1.66.4a.46.46,0,0,1-.58-.33l-.12-.77a.54.54,0,0,1,.43-.56l1.64-.39a10.54,10.54,0,0,1,0-1.26H81.29a.4.4,0,0,1-.43-.44l.1-.75a.54.54,0,0,1,.54-.42h1.62a7.93,7.93,0,0,1,.3-1.21l-1.49-.36a.36.36,0,0,1-.27-.51L82,332a.54.54,0,0,1,.6-.28l1.48.34c.19-.37.4-.72.62-1.07l-1.26-.65a.33.33,0,0,1-.11-.53l.47-.58a.52.52,0,0,1,.63-.14l1.25.65a12.29,12.29,0,0,1,.89-.88l-1-.9a.32.32,0,0,1,0-.52l.58-.45a.54.54,0,0,1,.64,0l1,.88c.35-.24.7-.46,1.07-.67l-.66-1a.33.33,0,0,1,.2-.49l.66-.31a.49.49,0,0,1,.6.13l.68,1c.4-.15.79-.28,1.2-.4L91.22,325a.36.36,0,0,1,.32-.43l.74-.15a.45.45,0,0,1,.53.25l.34,1.13c.42,0,.84-.1,1.26-.13v-1.18a.4.4,0,0,1,.44-.34h.74c.25,0,.45.15.45.34v1.18c.42,0,.84.08,1.26.13l.36-1.13a.43.43,0,0,1,.53-.25l.72.15c.24,0,.39.24.32.43l-.33,1.15c.41.12.81.25,1.2.4l.69-1a.48.48,0,0,1,.59-.13l.68.31a.34.34,0,0,1,.19.49l-.67,1c.37.21.72.43,1.07.67l1-.88a.55.55,0,0,1,.65,0l.57.45a.32.32,0,0,1,.07.52l-1,.9a12.29,12.29,0,0,1,.89.88l1.25-.65a.54.54,0,0,1,.64.14l.46.58a.33.33,0,0,1-.11.53l-1.26.65c.22.35.43.7.62,1.07l1.48-.34a.53.53,0,0,1,.6.28l.3.67a.36.36,0,0,1-.27.51l-1.48.36a11.26,11.26,0,0,1,.3,1.21H109a.53.53,0,0,1,.54.42l.1.75a.4.4,0,0,1-.43.44h-1.63a8.79,8.79,0,0,1,0,1.26Z" />
      <path class="GUNDAN_JAPANESE_SEROW_OUTFIT_JAPANESE_SEROW_OUTFIT_15_cls-8" d="M142.65,282.73c-2.13,2-12.63,10.42-14.76,12.43" />
      <path class="GUNDAN_JAPANESE_SEROW_OUTFIT_JAPANESE_SEROW_OUTFIT_15_cls-8" d="M129.18,508.83c18.25-31.41,30-66.62,33.45-102.45" />
      <path class="GUNDAN_JAPANESE_SEROW_OUTFIT_JAPANESE_SEROW_OUTFIT_15_cls-8" d="M140.65,368.3c-2.22,1.45-4.61,2.69-6.47,4.52-2.1,2.06,3.77,10.21,2.33,12.74s-3.19,5-5.81,6.41a13.78,13.78,0,0,1-4.09,1.31c-3.1.56-6.39.67-9,2.36a14.91,14.91,0,0,0-3.28,3.26c-.59.71-1.19,1.43-1.84,2.09a1.49,1.49,0,0,0-.12.14,14.71,14.71,0,0,1-10.37,4.19,11.35,11.35,0,0,1-2.4-.31c-1.9-.46-3.81.52-5.32,1.82q-.42.38-.81.78c-1.59,1.65-3,3.63-5.12,4.56s-4.76.58-7.15.27-5-.52-7.09.68a6.59,6.59,0,0,0-.75.51c-1.65,1.31-2.71,3.32-4.52,4.46a8.23,8.23,0,0,1-5.59.92c-.18,0-.35-.06-.54-.1-1.7-.36-3.33-1.13-5-1.32a8.8,8.8,0,0,0-4.83.87,9.14,9.14,0,0,0-1.06.61c-1,.65-1.77,1.5-2.78,2.09s-2.41,1.18-3.33.47a13.87,13.87,0,0,0-4.87-2.44,10.13,10.13,0,0,0-6.26.2,2.92,2.92,0,0,1-3.46-1.15,2.56,2.56,0,0,1,.75-3.44c3.09-1.75,5-4.93,6.69-7.94,1.82-3.19,4-6.11,6.06-9.12,1.09-1.6,2.17-3.22,3.13-4.91-2.53-8.39-12.21-22.35-12.48-31.08s2-17.84,8-24.35a33.65,33.65,0,0,1,10.37-7.29,48.48,48.48,0,0,1,4.61-1.89c.69-.26,1.39-.49,2.1-.72,6.38-2,13-3.12,19.55-4.7,9.75-2.37,18.72-6.64,27.72-10.94l4.79-2.26c1-.5,2.08-1,3.13-1.45,1.22-.55,2.55-1,3.84-1.51,2.38-.93,2.68-8.05,3.79-10.19.8-1.53,3-1.91,4.67-1.29l.35.15a10.25,10.25,0,0,1,3.85,4c3,4.64,7.73,15.49,10.17,20.44,7.29,14.75,19.05,36.19,20.71,52.44" />
      <path class="GUNDAN_JAPANESE_SEROW_OUTFIT_JAPANESE_SEROW_OUTFIT_15_cls-8" d="M163.47,378.23q.24,4,.22,8" />
      <path class="GUNDAN_JAPANESE_SEROW_OUTFIT_JAPANESE_SEROW_OUTFIT_15_cls-8" d="M119.43,306.64c8.9,7.69,10.1,2.3,18.75,29.49a93,93,0,0,1,3.9,20.43" />
      <path class="GUNDAN_JAPANESE_SEROW_OUTFIT_JAPANESE_SEROW_OUTFIT_15_cls-8" d="M107.82,508.83c22-29.57,34.17-64.53,39.19-100.78" />
      <path class="GUNDAN_JAPANESE_SEROW_OUTFIT_JAPANESE_SEROW_OUTFIT_15_cls-8" d="M142.38,374.29h0c0,.25,0,.51,0,.76" />
      <path class="GUNDAN_JAPANESE_SEROW_OUTFIT_JAPANESE_SEROW_OUTFIT_15_cls-8" d="M47.75,392.83c26.9,14.74,75.28-22.32,91.56-32.27" />
      <path class="GUNDAN_JAPANESE_SEROW_OUTFIT_JAPANESE_SEROW_OUTFIT_15_cls-8" d="M107.67,311.86a34.72,34.72,0,0,1,9.11,6.18,32.93,32.93,0,0,1,7.14,10,11.78,11.78,0,0,1-2.87,13.58c-8.56,7.93-19,13.84-29.81,18.89a12.09,12.09,0,0,1-8.07.86c-4.92-1.28-7.44-5.34-8.92-9.49-1-2.93-1.66-6-2.8-8.91A29,29,0,0,0,58.3,328.22" />
      <path class="GUNDAN_JAPANESE_SEROW_OUTFIT_JAPANESE_SEROW_OUTFIT_15_cls-8" d="M112.46,309.6a42.1,42.1,0,0,1,9,6.26,38.42,38.42,0,0,1,8.74,11.8,13.46,13.46,0,0,1-3.51,16c-10.46,9.34-23.27,16.3-36.46,22.25a15.31,15.31,0,0,1-9.89,1c-6-1.49-9.1-6.27-10.91-11.16-1.28-3.46-2-7.07-3.41-10.49a34.12,34.12,0,0,0-12.37-15.13" />
      <path class="GUNDAN_JAPANESE_SEROW_OUTFIT_JAPANESE_SEROW_OUTFIT_15_cls-8" d="M40.84,419.19a272.56,272.56,0,0,0-14.17,89.64H425.32" />
      <path class="GUNDAN_JAPANESE_SEROW_OUTFIT_JAPANESE_SEROW_OUTFIT_15_cls-8" d="M72.73,508.83q6.39-9.52,11.81-19.55c1.53-2.84,3-5.71,4.44-8.6A243,243,0,0,0,112.54,401" />
      <path class="GUNDAN_JAPANESE_SEROW_OUTFIT_JAPANESE_SEROW_OUTFIT_15_cls-8" d="M60.91,508.83a235,235,0,0,0,16.36-26.69q2.51-4.75,4.78-9.64a233.51,233.51,0,0,0,20-67.18" />
      <path class="GUNDAN_JAPANESE_SEROW_OUTFIT_JAPANESE_SEROW_OUTFIT_15_cls-8" d="M62.76,418.91a94.13,94.13,0,0,0,6,29.49" />
      <path class="GUNDAN_JAPANESE_SEROW_OUTFIT_JAPANESE_SEROW_OUTFIT_15_cls-8" d="M59.13,450.81a100.85,100.85,0,0,1-6.25-32.35" />
      <path class="GUNDAN_JAPANESE_SEROW_OUTFIT_JAPANESE_SEROW_OUTFIT_15_cls-8" d="M149.12,361.22a2.68,2.68,0,0,0,0-.4,4.83,4.83,0,0,0-4.92-4.74,5,5,0,0,0-2.14.48,4.68,4.68,0,0,0-2.77,4,1.14,1.14,0,0,0,0,.26,4.56,4.56,0,0,0,.73,2.47,5,5,0,0,0,4.2,2.25h.29a4.43,4.43,0,0,0,1.51-.33.62.62,0,0,0,.19-.07" />
      <ellipse class="GUNDAN_JAPANESE_SEROW_OUTFIT_JAPANESE_SEROW_OUTFIT_15_cls-8" cx="67.88" cy="330.06" rx="2.84" ry="1.62" />
      <path class="GUNDAN_JAPANESE_SEROW_OUTFIT_JAPANESE_SEROW_OUTFIT_15_cls-8" d="M110.22,317.33c0,.9-1.26,1.62-2.83,1.62s-2.84-.72-2.84-1.62,1.27-1.61,2.84-1.61S110.22,316.44,110.22,317.33Z" />
      <path class="GUNDAN_JAPANESE_SEROW_OUTFIT_JAPANESE_SEROW_OUTFIT_15_cls-8" d="M85.94,356a2.81,2.81,0,1,1-2.8-2.68A2.75,2.75,0,0,1,85.94,356Z" />
      <path class="GUNDAN_JAPANESE_SEROW_OUTFIT_JAPANESE_SEROW_OUTFIT_15_cls-8" d="M122.8,334.37a2.8,2.8,0,1,1-2.8-2.69A2.76,2.76,0,0,1,122.8,334.37Z" />
      <path class="GUNDAN_JAPANESE_SEROW_OUTFIT_JAPANESE_SEROW_OUTFIT_15_cls-8" d="M115.45,376.91A257.65,257.65,0,0,0,140,363.29" />
      <path class="GUNDAN_JAPANESE_SEROW_OUTFIT_JAPANESE_SEROW_OUTFIT_15_cls-8" d="M111.3,387.53h0c2.44-1-2.28-7.59.12-8.72" />
      <path class="GUNDAN_JAPANESE_SEROW_OUTFIT_JAPANESE_SEROW_OUTFIT_15_cls-8" d="M106.27,389.61l2.58-1.06h0" />
      <path class="GUNDAN_JAPANESE_SEROW_OUTFIT_JAPANESE_SEROW_OUTFIT_15_cls-8" d="M92.48,394.72q3.7-1.25,7.35-2.6" />
      <path class="GUNDAN_JAPANESE_SEROW_OUTFIT_JAPANESE_SEROW_OUTFIT_15_cls-8" d="M68.12,400.89a87.46,87.46,0,0,0,13.45-2.76" />
      <path class="GUNDAN_JAPANESE_SEROW_OUTFIT_JAPANESE_SEROW_OUTFIT_15_cls-8" d="M53.21,400.47a42.11,42.11,0,0,0,6.59.76c1.05,0,2.09,0,3.13,0" />
      <path class="GUNDAN_JAPANESE_SEROW_OUTFIT_JAPANESE_SEROW_OUTFIT_15_cls-8" d="M44.62,397.74a30.28,30.28,0,0,0,2.87,1.18" />
      <path class="GUNDAN_JAPANESE_SEROW_OUTFIT_JAPANESE_SEROW_OUTFIT_15_cls-8" d="M53.21,400.47a8.41,8.41,0,0,0-4,2.17,7.53,7.53,0,0,0-2.42,4.87,4.3,4.3,0,0,0,.53,2.48,3.73,3.73,0,0,0,2,1.55A5.36,5.36,0,0,0,54.84,410a.62.62,0,0,1,.86,0,.56.56,0,0,1,.08.78,7.31,7.31,0,0,1-2.94,2.33,6.74,6.74,0,0,1-4,.44,6.12,6.12,0,0,1-3.6-2.11,6.84,6.84,0,0,1-1.45-3.83,10.81,10.81,0,0,1,2.47-7.36,12.18,12.18,0,0,1,1.21-1.29A36,36,0,0,0,53.21,400.47Z" />
      <path class="GUNDAN_JAPANESE_SEROW_OUTFIT_JAPANESE_SEROW_OUTFIT_15_cls-8" d="M68.12,400.89a9.35,9.35,0,0,0-1,.82,7.55,7.55,0,0,0-2.42,4.86,4.26,4.26,0,0,0,.53,2.49,3.73,3.73,0,0,0,2,1.55,5.37,5.37,0,0,0,5.45-1.55.62.62,0,0,1,.86,0,.57.57,0,0,1,.09.78,7.43,7.43,0,0,1-2.95,2.34c-.21.09-.42.17-.64.24a6.62,6.62,0,0,1-3.34.19,6.16,6.16,0,0,1-3.61-2.1,7,7,0,0,1-1.43-3.84,10,10,0,0,1,1.19-5.39C64.67,401.21,66.4,401.09,68.12,400.89Z" />
      <path class="GUNDAN_JAPANESE_SEROW_OUTFIT_JAPANESE_SEROW_OUTFIT_15_cls-8" d="M92.48,394.72a2.3,2.3,0,0,1-1.12.63l-.32,0a8.35,8.35,0,0,0-4.84,2.33,7.48,7.48,0,0,0-2.42,4.86,4.21,4.21,0,0,0,.53,2.48,3.79,3.79,0,0,0,2,1.56,5.39,5.39,0,0,0,5.45-1.55.62.62,0,0,1,.86,0,.57.57,0,0,1,.08.78,5.78,5.78,0,0,1-.6.71,7.34,7.34,0,0,1-2.34,1.63,6.71,6.71,0,0,1-4,.43,6.28,6.28,0,0,1-3.6-2.1,7,7,0,0,1-1.43-3.84,9.77,9.77,0,0,1,.79-4.51c2-.54,3.94-1.14,5.87-1.75Q90,395.57,92.48,394.72Z" />
      <path class="GUNDAN_JAPANESE_SEROW_OUTFIT_JAPANESE_SEROW_OUTFIT_15_cls-8" d="M111.3,387.53c-.81.35-1.62.69-2.43,1" />
      <path class="GUNDAN_JAPANESE_SEROW_OUTFIT_JAPANESE_SEROW_OUTFIT_15_cls-8" d="M111.38,398.83a7.37,7.37,0,0,1-3,2.33,6.72,6.72,0,0,1-4,.44,6.24,6.24,0,0,1-3.6-2.11,6.88,6.88,0,0,1-1.43-3.83,10,10,0,0,1,.42-3.54c2.16-.81,4.3-1.64,6.44-2.51a7.09,7.09,0,0,0-1.46,1.12,7.57,7.57,0,0,0-2.4,4.87,4.3,4.3,0,0,0,.52,2.48,3.7,3.7,0,0,0,2,1.55,5.35,5.35,0,0,0,5.45-1.55.65.65,0,0,1,.88,0A.59.59,0,0,1,111.38,398.83Z" />
      <path class="GUNDAN_JAPANESE_SEROW_OUTFIT_JAPANESE_SEROW_OUTFIT_15_cls-8" d="M115.45,376.91c-.59,1,6.16,7.52,6.1,8.62a4.23,4.23,0,0,0,.53,2.48,3.74,3.74,0,0,0,2,1.56,5.37,5.37,0,0,0,5.43-1.55.65.65,0,0,1,.88,0,.59.59,0,0,1,.09.79,7.52,7.52,0,0,1-3,2.34,6.78,6.78,0,0,1-1.32.41,6.85,6.85,0,0,1-2.67,0,6.3,6.3,0,0,1-3.6-2.12,6.76,6.76,0,0,1-1.43-3.84c0-.44-7.16-6.35-7.13-6.78Q113.46,377.89,115.45,376.91Z" />
      <path class="GUNDAN_JAPANESE_SEROW_OUTFIT_JAPANESE_SEROW_OUTFIT_15_cls-8" d="M142.79,374.53a64.08,64.08,0,0,1,1.72-9" />
      <path class="GUNDAN_JAPANESE_SEROW_OUTFIT_JAPANESE_SEROW_OUTFIT_15_cls-8" d="M141.49,364.75c-.29,1-.57,2.24-.84,3.55-.36,1.71-.68,3.62-.93,5.7" />
      <path class="GUNDAN_JAPANESE_SEROW_OUTFIT_JAPANESE_SEROW_OUTFIT_15_cls-8" d="M137.86,408a6.4,6.4,0,0,1-1.85-1,101.6,101.6,0,0,1,3.68-15.74c1.93-5.83-3.29-15.48-.84-16.84a4.73,4.73,0,0,1,.87-.34h0a3.41,3.41,0,0,1,1.56-.05,3.74,3.74,0,0,1,1.1.34l.13.06a2.27,2.27,0,0,1,.28.18,3.72,3.72,0,0,1,1.31,3c.14,1.68,7.06,9.37,7,12.07-.1,6-1.83,15-1.24,17.73-.55.17-1.28.37-2.14.56l-.74.14c-.66.13-1.38.25-2.12.34a21.91,21.91,0,0,1-3.89.16A11.66,11.66,0,0,1,137.86,408Z" />
      <path class="GUNDAN_JAPANESE_SEROW_OUTFIT_JAPANESE_SEROW_OUTFIT_15_cls-8" d="M137.86,407.94s6.36-14.11,1-33.58" />
      <path class="GUNDAN_JAPANESE_SEROW_OUTFIT_JAPANESE_SEROW_OUTFIT_15_cls-8" d="M141,408.55s2.53-20,.28-34.6" />
      <path class="GUNDAN_JAPANESE_SEROW_OUTFIT_JAPANESE_SEROW_OUTFIT_15_cls-8" d="M142.51,374.36l-.17.7c-.88,3.65,2.24,26.16,2.55,33.32" />
      <path class="GUNDAN_JAPANESE_SEROW_OUTFIT_JAPANESE_SEROW_OUTFIT_15_cls-8" d="M147.75,407.9s1.84-17.35-3.65-30.35" />
      <path class="GUNDAN_JAPANESE_SEROW_OUTFIT_JAPANESE_SEROW_OUTFIT_15_cls-8" d="M147.27,372.36A62.47,62.47,0,0,0,146,365.2" />
      <path class="GUNDAN_JAPANESE_SEROW_OUTFIT_JAPANESE_SEROW_OUTFIT_15_cls-8" d="M150.35,371.83c-.15-1.27-.33-2.48-.53-3.61" />
      <path class="GUNDAN_JAPANESE_SEROW_OUTFIT_JAPANESE_SEROW_OUTFIT_15_cls-8" d="M166.49,405.78a5.84,5.84,0,0,0,1.83-1A100.49,100.49,0,0,0,164.66,389c-.32-1-.64-1.88-1-2.76h0c-1.62-4.37-10.43-12.93-12.48-14.06a4.44,4.44,0,0,0-.86-.35,3.37,3.37,0,0,0-.9-.12,3.66,3.66,0,0,0-.65.06,3.83,3.83,0,0,0-1.25.41,2.68,2.68,0,0,0-.28.18,3.76,3.76,0,0,0-1.3,3c-.13,1.68,7.2,9.38,7.25,12.08.09,6,1.83,15,1.23,17.72.55.18,1.29.38,2.15.57s1.82.36,2.85.49a21,21,0,0,0,3.18.15c.23,0,.47,0,.7,0A11.07,11.07,0,0,0,166.49,405.78Z" />
      <path class="GUNDAN_JAPANESE_SEROW_OUTFIT_JAPANESE_SEROW_OUTFIT_15_cls-8" d="M166.49,405.77s-1.15-5.62-3-12.41h0c-1.39-5.19-10.31-16.55-12.3-21.15" />
      <path class="GUNDAN_JAPANESE_SEROW_OUTFIT_JAPANESE_SEROW_OUTFIT_15_cls-8" d="M163.33,406.37s-.17-.85-.48-2.3h0c-1.23-5.8-11.7-26.48-14-32.29" />
      <path class="GUNDAN_JAPANESE_SEROW_OUTFIT_JAPANESE_SEROW_OUTFIT_15_cls-8" d="M147.55,372.2s12.25,26,11.9,34" />
      <path class="GUNDAN_JAPANESE_SEROW_OUTFIT_JAPANESE_SEROW_OUTFIT_15_cls-8" d="M156.6,405.73s3.89-21.38-10.63-30.36" />
      <path class="GUNDAN_JAPANESE_SEROW_OUTFIT_JAPANESE_SEROW_OUTFIT_15_cls-8" d="M109.15,338l-1.65-.39a8.79,8.79,0,0,0,0-1.26h1.63a.4.4,0,0,0,.43-.44l-.1-.75a.53.53,0,0,0-.54-.42h-1.61a11.26,11.26,0,0,0-.3-1.21l1.48-.36a.36.36,0,0,0,.27-.51l-.3-.67a.53.53,0,0,0-.6-.28l-1.48.34c-.19-.37-.4-.72-.62-1.07l1.26-.65a.33.33,0,0,0,.11-.53l-.46-.58a.54.54,0,0,0-.64-.14l-1.25.65a12.29,12.29,0,0,0-.89-.88l1-.9a.32.32,0,0,0-.07-.52l-.57-.45a.55.55,0,0,0-.65,0l-1,.88c-.35-.24-.7-.46-1.07-.67l.67-1a.34.34,0,0,0-.19-.49l-.68-.31a.48.48,0,0,0-.59.13l-.69,1c-.39-.15-.79-.28-1.2-.4l.33-1.15c.07-.19-.08-.38-.32-.43l-.72-.15a.43.43,0,0,0-.53.25l-.36,1.13c-.42,0-.84-.1-1.26-.13v-1.18c0-.19-.2-.34-.45-.34h-.74a.4.4,0,0,0-.44.34v1.18c-.42,0-.84.08-1.26.13l-.34-1.13a.45.45,0,0,0-.53-.25l-.74.15a.36.36,0,0,0-.32.43l.33,1.15c-.41.12-.8.25-1.2.4l-.68-1a.49.49,0,0,0-.6-.13l-.66.31a.33.33,0,0,0-.2.49l.66,1c-.37.21-.72.43-1.07.67l-1-.88a.54.54,0,0,0-.64,0l-.58.45a.32.32,0,0,0,0,.52l1,.9a12.29,12.29,0,0,0-.89.88l-1.25-.65a.52.52,0,0,0-.63.14l-.47.58a.33.33,0,0,0,.11.53l1.26.65c-.22.35-.43.7-.62,1.07l-1.48-.34a.54.54,0,0,0-.6.28l-.3.67a.36.36,0,0,0,.27.51l1.49.36a7.93,7.93,0,0,0-.3,1.21H81.5a.54.54,0,0,0-.54.42l-.1.75a.4.4,0,0,0,.43.44h1.64a10.54,10.54,0,0,0,0,1.26l-1.64.39a.54.54,0,0,0-.43.56l.12.77a.46.46,0,0,0,.58.33l1.66-.4a10.11,10.11,0,0,0,.44,1.24l-1.56.8a.51.51,0,0,0-.27.66l.36.73a.51.51,0,0,0,.69.18l1.58-.82a12.64,12.64,0,0,0,.8,1.12L84,344.35a.5.5,0,0,0-.08.72l.58.63a.57.57,0,0,0,.77,0l1.34-1.21a13.93,13.93,0,0,0,1.13.9l-1,1.51a.49.49,0,0,0,.15.72l.77.46a.57.57,0,0,0,.76-.19l1-1.53a12.3,12.3,0,0,0,1.39.58l-.53,1.72a.54.54,0,0,0,.36.67l.9.25a.56.56,0,0,0,.69-.39l.51-1.74a11,11,0,0,0,1.54.19l0,1.81a.56.56,0,0,0,.56.56h.93a.56.56,0,0,0,.56-.56v-1.81a10.89,10.89,0,0,0,1.52-.19l.51,1.74a.56.56,0,0,0,.69.39l.9-.25a.51.51,0,0,0,.36-.67l-.53-1.72a13.28,13.28,0,0,0,1.4-.58l1,1.53a.55.55,0,0,0,.75.19l.78-.46a.51.51,0,0,0,.14-.72l-1-1.51a12.67,12.67,0,0,0,1.15-.9l1.34,1.21a.56.56,0,0,0,.76,0l.58-.63a.5.5,0,0,0-.07-.72l-1.34-1.18a8.5,8.5,0,0,0,.8-1.12l1.58.82a.51.51,0,0,0,.69-.18l.36-.73a.51.51,0,0,0-.26-.66l-1.57-.8a8.64,8.64,0,0,0,.43-1.24l1.67.4a.46.46,0,0,0,.58-.33l.12-.77A.54.54,0,0,0,109.15,338Z" />
      <path class="GUNDAN_JAPANESE_SEROW_OUTFIT_JAPANESE_SEROW_OUTFIT_15_cls-8" d="M95.23,344.31c-5.43,0-9.5-4.09-9.11-8.78.37-4.3,4.44-7.54,9.11-7.54s8.74,3.24,9.11,7.54C104.74,340.22,100.67,344.31,95.23,344.31Z" />
      <path class="GUNDAN_JAPANESE_SEROW_OUTFIT_JAPANESE_SEROW_OUTFIT_15_cls-8" d="M102.46,335.54c-.24-3.44-3.47-6.07-7.23-6.07s-7,2.63-7.21,6.07c-.24,3.67,3,6.83,7.21,6.83S102.71,339.21,102.46,335.54Z" />
      <path class="GUNDAN_JAPANESE_SEROW_OUTFIT_JAPANESE_SEROW_OUTFIT_15_cls-8" d="M95.23,330.25a1.27,1.27,0,1,1,0,2.51,1.27,1.27,0,1,1,0-2.51Z" />
      <path class="GUNDAN_JAPANESE_SEROW_OUTFIT_JAPANESE_SEROW_OUTFIT_15_cls-8" d="M90.46,336.9A1.35,1.35,0,0,1,89,335.54a1.52,1.52,0,0,1,1.58-1.34A1.37,1.37,0,0,1,92,335.54,1.51,1.51,0,0,1,90.46,336.9Z" />
      <path class="GUNDAN_JAPANESE_SEROW_OUTFIT_JAPANESE_SEROW_OUTFIT_15_cls-8" d="M95.23,341.39a1.46,1.46,0,1,1,1.58-1.48A1.5,1.5,0,0,1,95.23,341.39Z" />
      <path class="GUNDAN_JAPANESE_SEROW_OUTFIT_JAPANESE_SEROW_OUTFIT_15_cls-8" d="M100,336.9a1.5,1.5,0,0,1-1.58-1.36,1.38,1.38,0,0,1,1.46-1.34,1.54,1.54,0,0,1,1.58,1.34A1.36,1.36,0,0,1,100,336.9Z" />
      <path class="GUNDAN_JAPANESE_SEROW_OUTFIT_JAPANESE_SEROW_OUTFIT_15_cls-8" d="M321.83,302c-3.51-3.33-12.78-8.08-16.31-11.42" />
      <path class="GUNDAN_JAPANESE_SEROW_OUTFIT_JAPANESE_SEROW_OUTFIT_15_cls-8" d="M289.36,406.38c3.45,35.83,15.2,71,33.44,102.45" />
      <path class="GUNDAN_JAPANESE_SEROW_OUTFIT_JAPANESE_SEROW_OUTFIT_15_cls-8" d="M295.25,375.35c-.1,2.06-6.95,8.82-6.95,10.88" />
      <path class="GUNDAN_JAPANESE_SEROW_OUTFIT_JAPANESE_SEROW_OUTFIT_15_cls-8" d="M295.7,368.89a137.6,137.6,0,0,1,11.16-43,140.42,140.42,0,0,1,10.77-19.83,10.25,10.25,0,0,1,3.85-4l.35-.14c1.68-.63,3.87-.25,4.67,1.29,1.11,2.13,3.36,3.2,5.73,4.14,1.3.5,2.63,1,3.85,1.5,1.05.48,2.1,1,3.13,1.46,1.6.74,3.19,1.5,4.78,2.26,9,4.3,18,8.57,27.73,10.94,6.52,1.57,13.17,2.68,19.55,4.7.7.22,1.41.46,2.1.72a49.49,49.49,0,0,1,4.61,1.88,33.69,33.69,0,0,1,10.36,7.3c6.06,6.51,8.31,15.63,8.05,24.35s-9.63,21.9-12.15,30.29c1,1.69,2,3.31,3.13,4.91,2.07,3,4.24,5.93,6.05,9.12,1.73,3,3.6,6.19,6.69,7.94a2.58,2.58,0,0,1,.76,3.44,2.93,2.93,0,0,1-3.47,1.15,10.13,10.13,0,0,0-6.26-.2,14,14,0,0,0-4.87,2.44c-.91.71-2.33.12-3.33-.47s-1.81-1.44-2.77-2.09a9.14,9.14,0,0,0-1.06-.61,8.83,8.83,0,0,0-4.83-.87c-1.73.19-3.36,1-5.06,1.32a5.12,5.12,0,0,1-.54.1,8.2,8.2,0,0,1-5.58-.92c-2.08-1.3-3.16-3.74-5.28-5a7,7,0,0,0-1.44-.61,14.5,14.5,0,0,0-5.65-.07c-2.39.31-4.94.68-7.15-.27s-3.52-2.91-5.12-4.56c-.17-.17-.34-.35-.53-.52-1.54-1.43-3.57-2.57-5.59-2.08a11.45,11.45,0,0,1-2.41.31,14.67,14.67,0,0,1-10.36-4.19l-.13-.14a14.86,14.86,0,0,1-1.24-1.38,19.18,19.18,0,0,0-3.87-4c-2.57-1.69-5.86-1.8-8.95-2.36a13.84,13.84,0,0,1-4.1-1.31c-2.62-1.38-4.36-3.89-5.8-6.41s4.11-9.89,2-11.95c-1.86-1.83-4.25-3.08-6.47-4.52" />
      <path class="GUNDAN_JAPANESE_SEROW_OUTFIT_JAPANESE_SEROW_OUTFIT_15_cls-8" d="M309.59,357.34a93.48,93.48,0,0,1,3.89-20.42c3.55-11.15,9.77-21.72,18.75-29.49" />
      <path class="GUNDAN_JAPANESE_SEROW_OUTFIT_JAPANESE_SEROW_OUTFIT_15_cls-8" d="M305,408.05c5,36.25,17.17,71.21,39.18,100.78" />
      <path class="GUNDAN_JAPANESE_SEROW_OUTFIT_JAPANESE_SEROW_OUTFIT_15_cls-8" d="M309.33,375.85c0-.25,0-.51,0-.76h0" />
      <path class="GUNDAN_JAPANESE_SEROW_OUTFIT_JAPANESE_SEROW_OUTFIT_15_cls-8" d="M312.36,361.35c16.27,9.95,65,46.22,91.88,31.48" />
      <path class="GUNDAN_JAPANESE_SEROW_OUTFIT_JAPANESE_SEROW_OUTFIT_15_cls-8" d="M393.37,329a29.09,29.09,0,0,0-13.16,14.77c-1.13,2.91-1.75,6-2.8,8.91-1.47,4.14-4,8.21-8.91,9.48a12.08,12.08,0,0,1-8.07-.85c-10.79-5.05-21.26-11-29.81-18.89a11.77,11.77,0,0,1-2.87-13.58,33.07,33.07,0,0,1,7.13-10,34.81,34.81,0,0,1,9.11-6.18" />
      <path class="GUNDAN_JAPANESE_SEROW_OUTFIT_JAPANESE_SEROW_OUTFIT_15_cls-8" d="M398,330.89A34.14,34.14,0,0,0,385.61,346c-1.37,3.42-2.13,7-3.41,10.48-1.81,4.89-4.88,9.68-10.91,11.17a15.25,15.25,0,0,1-9.89-1c-13.19-5.94-26-12.9-36.46-22.24a13.49,13.49,0,0,1-3.52-16,38.66,38.66,0,0,1,8.74-11.79,42.06,42.06,0,0,1,9-6.26" />
      <path class="GUNDAN_JAPANESE_SEROW_OUTFIT_JAPANESE_SEROW_OUTFIT_15_cls-8" d="M411.14,419.19a272.83,272.83,0,0,1,14.18,89.64" />
      <path class="GUNDAN_JAPANESE_SEROW_OUTFIT_JAPANESE_SEROW_OUTFIT_15_cls-8" d="M349.93,405.32a233.51,233.51,0,0,0,20,67.18q2.28,4.88,4.78,9.64a236.44,236.44,0,0,0,16.36,26.69" />
      <path class="GUNDAN_JAPANESE_SEROW_OUTFIT_JAPANESE_SEROW_OUTFIT_15_cls-8" d="M339.44,401A243.29,243.29,0,0,0,363,480.68c1.42,2.89,2.91,5.76,4.44,8.6q5.43,10,11.81,19.55" />
      <path class="GUNDAN_JAPANESE_SEROW_OUTFIT_JAPANESE_SEROW_OUTFIT_15_cls-8" d="M383.18,448.4a93.85,93.85,0,0,0,6-29.49" />
      <path class="GUNDAN_JAPANESE_SEROW_OUTFIT_JAPANESE_SEROW_OUTFIT_15_cls-8" d="M399.11,418.46a101.4,101.4,0,0,1-6.25,32.35" />
      <path class="GUNDAN_JAPANESE_SEROW_OUTFIT_JAPANESE_SEROW_OUTFIT_15_cls-8" d="M306,366.12a5.63,5.63,0,0,0,1.16.2h.28a5.17,5.17,0,0,0,2.74-.79,5,5,0,0,0,1.47-1.46,4.64,4.64,0,0,0,.72-2.47,2.17,2.17,0,0,0,0-.26,4.72,4.72,0,0,0-2.77-4,5.06,5.06,0,0,0-2.15-.47,4.83,4.83,0,0,0-4.91,4.74,4,4,0,0,0,.12,1.05" />
      <ellipse class="GUNDAN_JAPANESE_SEROW_OUTFIT_JAPANESE_SEROW_OUTFIT_15_cls-8" cx="383.79" cy="330.85" rx="2.84" ry="1.62" />
      <path class="GUNDAN_JAPANESE_SEROW_OUTFIT_JAPANESE_SEROW_OUTFIT_15_cls-8" d="M341.44,318.12c0,.9,1.27,1.62,2.84,1.62s2.83-.72,2.83-1.62-1.27-1.61-2.83-1.61S341.44,317.23,341.44,318.12Z" />
      <path class="GUNDAN_JAPANESE_SEROW_OUTFIT_JAPANESE_SEROW_OUTFIT_15_cls-8" d="M365.73,356.75a2.81,2.81,0,1,0,2.8-2.69A2.75,2.75,0,0,0,365.73,356.75Z" />
      <path class="GUNDAN_JAPANESE_SEROW_OUTFIT_JAPANESE_SEROW_OUTFIT_15_cls-8" d="M328.87,335.16a2.8,2.8,0,1,0,2.8-2.69A2.76,2.76,0,0,0,328.87,335.16Z" />
      <path class="GUNDAN_JAPANESE_SEROW_OUTFIT_JAPANESE_SEROW_OUTFIT_15_cls-8" d="M404.5,398.92c1-.35,1.93-.74,2.87-1.18" />
      <path class="GUNDAN_JAPANESE_SEROW_OUTFIT_JAPANESE_SEROW_OUTFIT_15_cls-8" d="M389.05,401.24c1.05,0,2.08,0,3.13,0a42.38,42.38,0,0,0,6.6-.76" />
      <path class="GUNDAN_JAPANESE_SEROW_OUTFIT_JAPANESE_SEROW_OUTFIT_15_cls-8" d="M370.41,398.13a87.7,87.7,0,0,0,13.45,2.76" />
      <path class="GUNDAN_JAPANESE_SEROW_OUTFIT_JAPANESE_SEROW_OUTFIT_15_cls-8" d="M352.15,392.12q3.64,1.35,7.35,2.6" />
      <path class="GUNDAN_JAPANESE_SEROW_OUTFIT_JAPANESE_SEROW_OUTFIT_15_cls-8" d="M343.12,388.54h0c.86.36,1.71.71,2.59,1.06" />
      <path class="GUNDAN_JAPANESE_SEROW_OUTFIT_JAPANESE_SEROW_OUTFIT_15_cls-8" d="M333.42,384.28q3.6,1.68,7.26,3.24h0" />
      <path class="GUNDAN_JAPANESE_SEROW_OUTFIT_JAPANESE_SEROW_OUTFIT_15_cls-8" d="M311.65,364.08a258.64,258.64,0,0,0,24.57,13.62" />
      <path class="GUNDAN_JAPANESE_SEROW_OUTFIT_JAPANESE_SEROW_OUTFIT_15_cls-8" d="M398.78,400.47a8.41,8.41,0,0,1,4,2.17,7.56,7.56,0,0,1,2.41,4.87,4.23,4.23,0,0,1-.53,2.48,3.7,3.7,0,0,1-2,1.55,5.35,5.35,0,0,1-5.45-1.55.62.62,0,0,0-.86,0,.55.55,0,0,0-.09.78,7.34,7.34,0,0,0,2.95,2.33,6.72,6.72,0,0,0,4,.44,6.18,6.18,0,0,0,3.6-2.11,6.9,6.9,0,0,0,1.44-3.83,10.76,10.76,0,0,0-2.47-7.36,13.2,13.2,0,0,0-1.2-1.29A36.33,36.33,0,0,1,398.78,400.47Z" />
      <path class="GUNDAN_JAPANESE_SEROW_OUTFIT_JAPANESE_SEROW_OUTFIT_15_cls-8" d="M383.86,400.89a8.41,8.41,0,0,1,1,.82,7.5,7.5,0,0,1,2.42,4.86,4.26,4.26,0,0,1-.53,2.49,3.73,3.73,0,0,1-2.05,1.55,5.38,5.38,0,0,1-5.45-1.55.62.62,0,0,0-.86,0,.57.57,0,0,0-.08.78,6.87,6.87,0,0,0,1.3,1.34,7.34,7.34,0,0,0,1.64,1,6.66,6.66,0,0,0,4,.43,6.21,6.21,0,0,0,3.62-2.1,7,7,0,0,0,1.43-3.84,10.08,10.08,0,0,0-1.2-5.39C387.31,401.21,385.59,401.09,383.86,400.89Z" />
      <path class="GUNDAN_JAPANESE_SEROW_OUTFIT_JAPANESE_SEROW_OUTFIT_15_cls-8" d="M359.5,394.72a2.39,2.39,0,0,0,1.12.63l.32,0a8.35,8.35,0,0,1,4.85,2.33,7.51,7.51,0,0,1,2.41,4.86,4.14,4.14,0,0,1-.53,2.48,3.76,3.76,0,0,1-2,1.56,5.38,5.38,0,0,1-5.45-1.55.62.62,0,0,0-.86,0,.56.56,0,0,0-.09.78,7.6,7.6,0,0,0,.94,1,7.42,7.42,0,0,0,2,1.31,6.67,6.67,0,0,0,4,.43,6.28,6.28,0,0,0,3.6-2.1,7,7,0,0,0,1.43-3.84,9.77,9.77,0,0,0-.79-4.51c-2-.54-3.93-1.14-5.87-1.75C362.85,395.84,361.18,395.29,359.5,394.72Z" />
      <path class="GUNDAN_JAPANESE_SEROW_OUTFIT_JAPANESE_SEROW_OUTFIT_15_cls-8" d="M343.12,388.54c-.82-.32-1.63-.66-2.43-1" />
      <path class="GUNDAN_JAPANESE_SEROW_OUTFIT_JAPANESE_SEROW_OUTFIT_15_cls-8" d="M345.72,389.61a7,7,0,0,1,1.45,1.12,7.54,7.54,0,0,1,2.41,4.87,4.3,4.3,0,0,1-.52,2.48,3.76,3.76,0,0,1-2.05,1.55,5.35,5.35,0,0,1-5.45-1.55.63.63,0,0,0-.87,0,.58.58,0,0,0-.09.78,3.44,3.44,0,0,0,.3.35,7.15,7.15,0,0,0,2.66,2,6.74,6.74,0,0,0,4,.44,6.18,6.18,0,0,0,3.6-2.11,6.81,6.81,0,0,0,1.43-3.83,9.57,9.57,0,0,0-.42-3.54C350,391.31,347.85,390.48,345.72,389.61Z" />
      <path class="GUNDAN_JAPANESE_SEROW_OUTFIT_JAPANESE_SEROW_OUTFIT_15_cls-8" d="M336.22,377.7c.59,1-5.85,6.73-5.79,7.83a4.23,4.23,0,0,1-.53,2.48,3.72,3.72,0,0,1-2,1.56,5.38,5.38,0,0,1-5.44-1.55.65.65,0,0,0-.88,0,.58.58,0,0,0-.08.79,7.56,7.56,0,0,0,2.94,2.34,7.48,7.48,0,0,0,1.32.41,6.9,6.9,0,0,0,2.68,0,6.36,6.36,0,0,0,3.6-2.12,6.91,6.91,0,0,0,1.43-3.84,11.24,11.24,0,0,0,0-1.3C332.07,383.66,337.55,378.35,336.22,377.7Z" />
      <path class="GUNDAN_JAPANESE_SEROW_OUTFIT_JAPANESE_SEROW_OUTFIT_15_cls-8" d="M307.16,366.32a62.54,62.54,0,0,1,1.71,9" />
      <path class="GUNDAN_JAPANESE_SEROW_OUTFIT_JAPANESE_SEROW_OUTFIT_15_cls-8" d="M311.94,374.78c-.24-2.07-.56-4-.92-5.69-.27-1.32-.56-2.51-.84-3.55" />
      <path class="GUNDAN_JAPANESE_SEROW_OUTFIT_JAPANESE_SEROW_OUTFIT_15_cls-8" d="M314.12,408a6.22,6.22,0,0,0,1.84-1,100.24,100.24,0,0,0-3.66-15.74c-1.94-5.83,3-14.69.52-16.05a5.37,5.37,0,0,0-.88-.35h0a3.37,3.37,0,0,0-1.55,0,3.74,3.74,0,0,0-1.1.33l-.15.07-.27.18c-.86.61-8,6.32-8.12,7.7-.14,1.68.07,3.9.11,6.6.1,6,1.82,15,1.23,17.73.56.17,1.28.37,2.15.56l.74.14c.65.13,1.38.25,2.12.34a21.8,21.8,0,0,0,3.88.16A11.59,11.59,0,0,0,314.12,408Z" />
      <path class="GUNDAN_JAPANESE_SEROW_OUTFIT_JAPANESE_SEROW_OUTFIT_15_cls-8" d="M314.12,407.94s-5.86-20.41-1.3-32.79" />
      <path class="GUNDAN_JAPANESE_SEROW_OUTFIT_JAPANESE_SEROW_OUTFIT_15_cls-8" d="M311,408.55s-5.71-18.66-.59-33.81" />
      <path class="GUNDAN_JAPANESE_SEROW_OUTFIT_JAPANESE_SEROW_OUTFIT_15_cls-8" d="M309.14,375.15s.07.25.18.7c-6.45,14.1-1.92,25.37-2.22,32.53" />
      <path class="GUNDAN_JAPANESE_SEROW_OUTFIT_JAPANESE_SEROW_OUTFIT_15_cls-8" d="M304.24,407.9s-.82-17.63-3.49-24.88" />
      <path class="GUNDAN_JAPANESE_SEROW_OUTFIT_JAPANESE_SEROW_OUTFIT_15_cls-8" d="M305.64,366c-.05.2-.09.41-.14.62a62,62,0,0,0-1.1,6.54" />
      <path class="GUNDAN_JAPANESE_SEROW_OUTFIT_JAPANESE_SEROW_OUTFIT_15_cls-8" d="M301.66,370.13c-.12.79-.24,1.63-.34,2.49" />
      <path class="GUNDAN_JAPANESE_SEROW_OUTFIT_JAPANESE_SEROW_OUTFIT_15_cls-8" d="M305.69,376.16c.14,1.68-6.89,8.59-6.93,11.29-.08,6-1.82,15-1.23,17.72a21.77,21.77,0,0,1-2.15.57c-.85.18-1.82.36-2.84.49a21,21,0,0,1-3.18.15c-.24,0-.47,0-.71,0a10.94,10.94,0,0,1-3.15-.59,5.89,5.89,0,0,1-1.84-1A100.49,100.49,0,0,1,287.32,389c.32-1,.64-1.88,1-2.76h0c1.61-4.37,10.11-12.13,12.15-13.26a4.52,4.52,0,0,1,.87-.35,3,3,0,0,1,.9-.12,3.66,3.66,0,0,1,.65.06,3.91,3.91,0,0,1,1.25.41l.28.18A3.74,3.74,0,0,1,305.69,376.16Z" />
      <path class="GUNDAN_JAPANESE_SEROW_OUTFIT_JAPANESE_SEROW_OUTFIT_15_cls-8" d="M285.5,405.77s3.43-22,14.95-32.79" />
      <path class="GUNDAN_JAPANESE_SEROW_OUTFIT_JAPANESE_SEROW_OUTFIT_15_cls-8" d="M288.65,406.37s.18-.85.48-2.3h0c1.24-5.8,3.85-21.73,13.74-31.5" />
      <path class="GUNDAN_JAPANESE_SEROW_OUTFIT_JAPANESE_SEROW_OUTFIT_15_cls-8" d="M304.12,373s-13,16.86-11.58,33.24" />
      <path class="GUNDAN_JAPANESE_SEROW_OUTFIT_JAPANESE_SEROW_OUTFIT_15_cls-8" d="M295.38,405.73s-1.45-22.4,10.31-29.57" />
      <path class="GUNDAN_JAPANESE_SEROW_OUTFIT_JAPANESE_SEROW_OUTFIT_15_cls-8" d="M370.34,338.79l-1.64-.39a10.64,10.64,0,0,0,0-1.27h1.64a.4.4,0,0,0,.43-.43l-.1-.75a.54.54,0,0,0-.54-.43h-1.62a8.13,8.13,0,0,0-.31-1.2l1.49-.36a.37.37,0,0,0,.28-.51l-.3-.67a.55.55,0,0,0-.62-.29l-1.46.35c-.19-.37-.4-.73-.62-1.07l1.26-.65a.34.34,0,0,0,.11-.53l-.47-.58a.56.56,0,0,0-.64-.15l-1.26.66a10.33,10.33,0,0,0-.87-.88l1-.9a.33.33,0,0,0-.05-.52l-.59-.45a.52.52,0,0,0-.63,0l-1,.88a12.1,12.1,0,0,0-1.08-.67l.67-1a.35.35,0,0,0-.2-.5l-.68-.3a.48.48,0,0,0-.59.13l-.67,1c-.4-.16-.79-.29-1.2-.41l.33-1.14a.37.37,0,0,0-.33-.43l-.73-.15a.45.45,0,0,0-.53.24l-.34,1.14c-.42-.06-.84-.11-1.27-.13v-1.18a.42.42,0,0,0-.45-.35h-.74a.41.41,0,0,0-.44.35v1.18c-.43,0-.85.07-1.26.13l-.36-1.14a.45.45,0,0,0-.53-.24l-.72.15c-.24.05-.39.24-.33.43l.34,1.14a11.28,11.28,0,0,0-1.2.41l-.69-1a.48.48,0,0,0-.59-.13l-.68.3a.35.35,0,0,0-.2.5l.68,1a11.94,11.94,0,0,0-1.07.67l-1-.88a.52.52,0,0,0-.63,0l-.58.45a.33.33,0,0,0-.06.52l1,.9a12.29,12.29,0,0,0-.89.88l-1.25-.66a.57.57,0,0,0-.65.15l-.45.58a.34.34,0,0,0,.11.53l1.26.65a7.63,7.63,0,0,0-.62,1.07l-1.48-.35a.51.51,0,0,0-.6.29l-.3.67a.36.36,0,0,0,.27.51l1.48.36c-.12.39-.22.79-.31,1.2h-1.6a.53.53,0,0,0-.54.43l-.1.75a.39.39,0,0,0,.43.43h1.63a8.88,8.88,0,0,0,.05,1.27l-1.65.39a.52.52,0,0,0-.42.56l.12.77a.45.45,0,0,0,.58.33l1.66-.4a10.63,10.63,0,0,0,.42,1.24l-1.55.79a.51.51,0,0,0-.26.67l.36.73a.52.52,0,0,0,.69.18l1.58-.82a7.8,7.8,0,0,0,.8,1.11l-1.35,1.19a.51.51,0,0,0-.06.72l.58.63a.54.54,0,0,0,.75,0l1.35-1.21a12.9,12.9,0,0,0,1.14.9l-1,1.5a.5.5,0,0,0,.14.72l.78.47a.55.55,0,0,0,.75-.19l1-1.53c.45.21.92.4,1.4.58l-.53,1.72a.51.51,0,0,0,.36.67l.9.25a.56.56,0,0,0,.68-.39l.51-1.74a15.22,15.22,0,0,0,1.53.19v1.81a.56.56,0,0,0,.54.56h.95a.56.56,0,0,0,.56-.56l0-1.81a15.07,15.07,0,0,0,1.54-.19l.51,1.74a.55.55,0,0,0,.68.39l.91-.25a.54.54,0,0,0,.36-.67l-.53-1.72c.48-.18,1-.37,1.39-.58l1,1.53a.56.56,0,0,0,.75.19l.78-.47a.49.49,0,0,0,.15-.72l-1-1.5c.4-.29.78-.58,1.14-.9l1.34,1.21a.54.54,0,0,0,.75,0l.59-.63a.5.5,0,0,0-.07-.72L366.37,344a13.08,13.08,0,0,0,.8-1.11l1.58.82a.51.51,0,0,0,.68-.18l.37-.73a.53.53,0,0,0-.27-.67l-1.56-.79a10.68,10.68,0,0,0,.43-1.24l1.67.4a.43.43,0,0,0,.56-.33l.14-.77A.54.54,0,0,0,370.34,338.79Z" />
      <path class="GUNDAN_JAPANESE_SEROW_OUTFIT_JAPANESE_SEROW_OUTFIT_15_cls-8" d="M356.43,345.1c-5.43,0-9.5-4.09-9.11-8.78.36-4.3,4.43-7.54,9.11-7.54s8.74,3.24,9.11,7.54C365.94,341,361.87,345.1,356.43,345.1Z" />
      <path class="GUNDAN_JAPANESE_SEROW_OUTFIT_JAPANESE_SEROW_OUTFIT_15_cls-8" d="M363.64,336.33c-.22-3.45-3.45-6.07-7.21-6.07s-7,2.62-7.22,6.07c-.25,3.67,3,6.83,7.22,6.83S363.89,340,363.64,336.33Z" />
      <path class="GUNDAN_JAPANESE_SEROW_OUTFIT_JAPANESE_SEROW_OUTFIT_15_cls-8" d="M356.43,331a1.27,1.27,0,1,1-1.46,1.24A1.37,1.37,0,0,1,356.43,331Z" />
      <path class="GUNDAN_JAPANESE_SEROW_OUTFIT_JAPANESE_SEROW_OUTFIT_15_cls-8" d="M351.65,337.69a1.37,1.37,0,0,1-1.45-1.36,1.52,1.52,0,0,1,1.57-1.34,1.39,1.39,0,0,1,1.47,1.34A1.52,1.52,0,0,1,351.65,337.69Z" />
      <path class="GUNDAN_JAPANESE_SEROW_OUTFIT_JAPANESE_SEROW_OUTFIT_15_cls-8" d="M356.43,342.18A1.47,1.47,0,1,1,358,340.7,1.51,1.51,0,0,1,356.43,342.18Z" />
      <path class="GUNDAN_JAPANESE_SEROW_OUTFIT_JAPANESE_SEROW_OUTFIT_15_cls-8" d="M361.2,337.69a1.51,1.51,0,0,1-1.57-1.36,1.36,1.36,0,0,1,1.45-1.34,1.52,1.52,0,0,1,1.58,1.34A1.36,1.36,0,0,1,361.2,337.69Z" />
      <path class="GUNDAN_JAPANESE_SEROW_OUTFIT_JAPANESE_SEROW_OUTFIT_15_cls-8" d="M243.7,407.91c-3.48-3.21-25.43-6.47-28.8-9.76" />
      <path class="GUNDAN_JAPANESE_SEROW_OUTFIT_JAPANESE_SEROW_OUTFIT_15_cls-8" d="M142.26,319.71c18.46,23.82,45.7,52,67.27,73.22" />
      <path class="GUNDAN_JAPANESE_SEROW_OUTFIT_JAPANESE_SEROW_OUTFIT_15_cls-8" d="M255.74,391c1.48-2.08,3-4.14,4.46-6.2,13.11-18.18,33.2-40.94,46.66-58.9" />
      <path class="GUNDAN_JAPANESE_SEROW_OUTFIT_JAPANESE_SEROW_OUTFIT_15_cls-8" d="M156.07,508.83c22.46-34,64-67.64,87.63-100.92q3.92-5.54,7.87-11.07" />
      <path class="GUNDAN_JAPANESE_SEROW_OUTFIT_JAPANESE_SEROW_OUTFIT_15_cls-8" d="M260.2,384.83q-7.09-4.68-14-9.61c-30.8-21.82-78.34-64.79-103.5-92.49" />
      <path class="GUNDAN_JAPANESE_SEROW_OUTFIT_JAPANESE_SEROW_OUTFIT_15_cls-8" d="M246.15,375.22c23.61-22.61,42.42-56.75,59.37-84.64" />
      <path class="GUNDAN_JAPANESE_SEROW_OUTFIT_JAPANESE_SEROW_OUTFIT_15_cls-8" d="M306,366.12c-.15.16-.32.33-.5.49-1.25,1.21-2.53,2.4-3.84,3.52-2.08,1.85-4.23,3.58-6.41,5.22-7.15,5.36-21.56,14.33-29.34,17.36l-1.31.49a81.28,81.28,0,0,1-13,3.64c-4.89.93-28.32,1.41-33.16,1.41-1.17,0-2.34,0-3.51-.1A67,67,0,0,1,200,395.82c-9.71-2.67-18.65-7.55-26.54-11.87-3.23-1.76-6.64-3.63-10-5.72-2.22-1.4-11.55-8.37-13.65-10-1.24-1-2.45-2-3.61-3.09a4.73,4.73,0,0,0,2.91-3.91c2.06,2,11.47,9.28,13.85,10.93a137,137,0,0,0,12.91,7.69c7.65,4.18,16.32,8.91,25.47,11.43a61.72,61.72,0,0,0,8.18,1.66c8.95,1.2,36.93.55,46.21-1.9,2.38-.63,4.75-1.39,7.09-2.25.7-.26,1.42-.54,2.12-.83,8.32-3.34,23.24-12.91,30.75-19.06,2.39-1.94,4.7-4,6.95-6.23a4.78,4.78,0,0,0,3,3.33A2.2,2.2,0,0,0,306,366.12Z" />
      <path class="GUNDAN_JAPANESE_SEROW_OUTFIT_JAPANESE_SEROW_OUTFIT_15_cls-8" d="M244.53,423.74c-2,3.08-10.92,12.14-12.91,15.22" />
      <path class="GUNDAN_JAPANESE_SEROW_OUTFIT_JAPANESE_SEROW_OUTFIT_15_cls-8" d="M256.34,406.68c-2.2,3.18-4.42,6.36-6.63,9.54" />
      <path class="GUNDAN_JAPANESE_SEROW_OUTFIT_JAPANESE_SEROW_OUTFIT_15_cls-8" d="M265.91,392.71c-1.32,1.92-2.64,3.83-4,5.75" />
      <path class="GUNDAN_JAPANESE_SEROW_OUTFIT_JAPANESE_SEROW_OUTFIT_15_cls-8" d="M292.32,359.44l-10.14,14.77" />
      <path class="GUNDAN_JAPANESE_SEROW_OUTFIT_JAPANESE_SEROW_OUTFIT_15_cls-8" d="M206.45,406.41c2.27,2.4,4.51,4.8,6.76,7.23" />
      <path class="GUNDAN_JAPANESE_SEROW_OUTFIT_JAPANESE_SEROW_OUTFIT_15_cls-8" d="M195.67,395.05c1.51,1.59,3,3.17,4.54,4.77" />
      <path class="GUNDAN_JAPANESE_SEROW_OUTFIT_JAPANESE_SEROW_OUTFIT_15_cls-8" d="M179.64,378.42l5.73,5.93" />
      <path class="GUNDAN_JAPANESE_SEROW_OUTFIT_JAPANESE_SEROW_OUTFIT_15_cls-8" d="M163.72,362c3.15,3.21,6.27,6.43,9.4,9.66" />
      <path class="GUNDAN_JAPANESE_SEROW_OUTFIT_JAPANESE_SEROW_OUTFIT_15_cls-8" d="M218.68,417.89s6.69,6.45,10.32,8.5" />
      <g class="GUNDAN_JAPANESE_SEROW_OUTFIT_JAPANESE_SEROW_OUTFIT_15_cls-9">
        <path d="M127.89,295.16l12.4-10.2s14.9,35,33.59,56.23S247.69,391,247.69,391l1.06,1.5s-32.5,2-39.61.07c0,0-27.55-28.64-34.7-37s-31.72-35-31.72-35S131.62,296.52,127.89,295.16Z" />
        <path d="M30.77,414.91a71.94,71.94,0,0,0,10.74-2.21c3.75-1.3,10.93-1.63,13.33-2.71s4.09-.76,10.94-1.28,14.75-3.62,21-6.62-2.2-.78,12-5.41,16.74-5.18,20.29-7.07,3.32-8.15,7.91-11.44a51.58,51.58,0,0,0,8.19-7.49s-1,3.21-1.8,3.61,2.33,16.38-3.88,18.23-9.27.2-14.08,5.16-6.94,7-11.21,7.51-5.56-1.17-8.64.76-4.54,7.1-9,7-8.94-2.79-14,1.5-4.71,6-12.41,3.33c-4.24-.9-6.09.09-9.58,2.29s-3.28,2.26-7.09.19-6.25-1.84-8.47-1S29.32,419.47,30.77,414.91Z" />
        <path d="M40.58,420s-14.86,41.64-13.91,88.84H78.13a548.9,548.9,0,0,0,33.36-53.92c-17.31,21.87-29.92,32.9-29.92,32.9s22.61-28.61,37-60.65,14.59-36.84,14.59-36.84-12.37,17.48-26.89,28.59-38.13,28.35-38.13,28.35-4.68-13.87-4.76-20.73-.45-7.34-.45-7.34a15.65,15.65,0,0,0-6.47-1.54c-3.21.09-3.57,1.61-6.8,3.06s-3.68.69-6.25-.42S40.58,420,40.58,420Z" />
        <path d="M158,406a230,230,0,0,1-17.75,59.68c-14.13,31-22.61,43.15-22.61,43.15h27.72A392.42,392.42,0,0,0,166.49,442c7.69-36,8-56.95,8-56.95l-10.77-6.65-.19,6.84s4.76,13.75,4.84,19.63c-2.57,1.47-6.88,1.52-6.88,1.52Z" />
        <path d="M318.57,298.91S296.85,326,284.71,343.46,253,380.15,253,380.15l-10.54,9-19.91,4.13s29.58-1.22,33.16-2.26C268.6,373.23,306,327.09,306,327.09s10.32-21.32,15.48-24.95A43,43,0,0,0,318.57,298.91Z" />
        <path d="M263.94,403s-50.11,31.66-63.73,56.63-34.5,49.17-34.5,49.17l4.45.64s33-41.31,46.57-61.07S263.94,403,263.94,403Z" />
        <path d="M307.1,408.39s9.09,24.21,17.64,40.87,20.7,33.41,34.61,44.69,19.9,14.88,19.9,14.88H322.8s-17.62-32-22.58-50S291,422.8,289.94,411.77c6,21.87,22.64,70,39.46,83-23.9-46.14-31.82-89-31.82-89s.35-6.83.54-10.27,8.28-17.75,7.88-19.3a15.82,15.82,0,0,0-1-2.76l-.9-.25,1.88-7.34,1.29,1,1.85,8.32s-8.09,5.59-8.2,8.18.09,9,.46,13.35,1.09,11.06,1.09,11.06Z" />
        <path d="M44.19,336.52S44.4,363,52,370.68s34.13,6.76,50.48,0S140.9,346,140.9,346l1.48,10.06S143,364,149,362.71c-1.89,3.2-5.74,4.19-9.23.77-5.21,3.68-18.72,19.77-34,26.46s-37.61,11.85-46.59,10.84a68.42,68.42,0,0,1-14.55-3l3.13-4.91s-13.34-20.76-12.26-34S41.42,338.91,44.19,336.52Z" />
      </g>
    </g>
  </g>
</svg>