<svg xmlns="http://www.w3.org/2000/svg" viewBox="0 0 432 432">
  <defs>
    <style>.GUNDAN_JAPANESE_SEROW_OUTFIT_JAPANESE_SEROW_OUTFIT_34_cls-1{isolation:isolate;}.GUNDAN_JAPANESE_SEROW_OUTFIT_JAPANESE_SEROW_OUTFIT_34_cls-2,.GUNDAN_JAPANESE_SEROW_OUTFIT_JAPANESE_SEROW_OUTFIT_34_cls-6,.GUNDAN_JAPANESE_SEROW_OUTFIT_JAPANESE_SEROW_OUTFIT_34_cls-7{fill:none;stroke:#000;stroke-linecap:round;stroke-linejoin:round;}.GUNDAN_JAPANESE_SEROW_OUTFIT_JAPANESE_SEROW_OUTFIT_34_cls-2{stroke-width:1.69px;}.GUNDAN_JAPANESE_SEROW_OUTFIT_JAPANESE_SEROW_OUTFIT_34_cls-3{fill:#d1caaa;}.GUNDAN_JAPANESE_SEROW_OUTFIT_JAPANESE_SEROW_OUTFIT_34_cls-4{fill:#3c373a;}.GUNDAN_JAPANESE_SEROW_OUTFIT_JAPANESE_SEROW_OUTFIT_34_cls-5{fill:#a69943;}.GUNDAN_JAPANESE_SEROW_OUTFIT_JAPANESE_SEROW_OUTFIT_34_cls-6{stroke-width:1.65px;}.GUNDAN_JAPANESE_SEROW_OUTFIT_JAPANESE_SEROW_OUTFIT_34_cls-7{stroke-width:1.64px;}.GUNDAN_JAPANESE_SEROW_OUTFIT_JAPANESE_SEROW_OUTFIT_34_cls-8{fill:#1e1c24;opacity:0.4;mix-blend-mode:multiply;}</style>
  </defs>
  <g class="GUNDAN_JAPANESE_SEROW_OUTFIT_JAPANESE_SEROW_OUTFIT_34_cls-1">
    <g id="outfit">
      <path class="GUNDAN_JAPANESE_SEROW_OUTFIT_JAPANESE_SEROW_OUTFIT_34_cls-2" d="M256.86,391.37s0-10.64,11.09-19.61" />
      <path class="GUNDAN_JAPANESE_SEROW_OUTFIT_JAPANESE_SEROW_OUTFIT_34_cls-2" d="M243.63,371c9.34,7.72,15.57,21.69,15.57,37.65a54.38,54.38,0,0,1-7.07,27.46" />
      <path class="GUNDAN_JAPANESE_SEROW_OUTFIT_JAPANESE_SEROW_OUTFIT_34_cls-3" d="M274.27,425a2.48,2.48,0,1,1-2.51,2.47A2.49,2.49,0,0,1,274.27,425Z" />
      <path class="GUNDAN_JAPANESE_SEROW_OUTFIT_JAPANESE_SEROW_OUTFIT_34_cls-3" d="M240.32,415.73a2.5,2.5,0,1,1-2.49-2.48A2.49,2.49,0,0,1,240.32,415.73Z" />
      <path class="GUNDAN_JAPANESE_SEROW_OUTFIT_JAPANESE_SEROW_OUTFIT_34_cls-4" d="M120.08,428.9l-.36.14-.24.1c-6.31,2.36-17.21,1-26.82-2.75a51.26,51.26,0,0,1-9.5-4.82l0,0c-.74-.48-1.45-1-2.12-1.5-5.82-4.46-11-7-15.91-7.94a36.78,36.78,0,0,0,1.74-8c.43-4.27.09-9.4-2.9-13.11a20.75,20.75,0,0,1,5.95,1.37l.68.28c6.29,2.6,12.29,7.78,16.27,12.6a52.55,52.55,0,0,0,6.06,6.3,32.93,32.93,0,0,0,5.33,3.8,27.86,27.86,0,0,0,3.24,1.6A31.63,31.63,0,0,0,118,418.8a.55.55,0,0,0,.18,0l.51-.06c.19,2.56.49,4.95.86,7.11,0,0,0,.08,0,.12v0C119.7,427,119.89,428,120.08,428.9Z" />
      <path class="GUNDAN_JAPANESE_SEROW_OUTFIT_JAPANESE_SEROW_OUTFIT_34_cls-3" d="M238.57,427.5a2.5,2.5,0,1,1-2.5-2.47A2.49,2.49,0,0,1,238.57,427.5Z" />
      <path class="GUNDAN_JAPANESE_SEROW_OUTFIT_JAPANESE_SEROW_OUTFIT_34_cls-3" d="M127.55,382.54a46.54,46.54,0,0,0-3.76,6.43l-.54-1.27c-1.28-2.92-2.81-6-4.56-9.1-5.89-10.57-14.13-21.68-22.45-29.29q-1.62-1.49-3.24-2.78a3.57,3.57,0,0,1-.66-.69,3.75,3.75,0,0,1-.32-4.09,5.13,5.13,0,0,1,.93-1.22,3.78,3.78,0,0,1,4.36-.51,3.49,3.49,0,0,1,.65.43c1.25,1,2.46,2.08,3.62,3.17a103.4,103.4,0,0,1,18.33,23.3A105.11,105.11,0,0,1,127.55,382.54Z" />
      <path class="GUNDAN_JAPANESE_SEROW_OUTFIT_JAPANESE_SEROW_OUTFIT_34_cls-3" d="M152.91,419.36c-8.77-4.66-23.55.28-30.9,16.85a67.13,67.13,0,0,1-1.93-7.31c-.19-.91-.38-1.89-.56-2.92v0s0-.08,0-.12c7.27-9.82,16.88-15.82,26.42-16a18,18,0,0,1,11.68,4.29,58.08,58.08,0,0,0,25.75,12.07C171.1,430.83,158.8,422.49,152.91,419.36Z" />
      <path class="GUNDAN_JAPANESE_SEROW_OUTFIT_JAPANESE_SEROW_OUTFIT_34_cls-4" d="M118.65,418.72l-.51.06a.55.55,0,0,1-.18,0,31.63,31.63,0,0,1-16.5-1.87,27.86,27.86,0,0,1-3.24-1.6,32.93,32.93,0,0,1-5.33-3.8,52.55,52.55,0,0,1-6.06-6.3c-4-4.82-10-10-16.27-12.6l-.68-.28A21,21,0,0,0,67.76,373a21.84,21.84,0,0,1,8.09,1.71c.7.29,1.41.61,2.1,1a40.79,40.79,0,0,1,16.28,15.92A44.77,44.77,0,0,0,100.5,400c.81.86,1.66,1.68,2.52,2.44l0,0c.6.54,1.22,1,1.85,1.55a36.08,36.08,0,0,0,13,6.61l.18.05.45.11A68.76,68.76,0,0,0,118.65,418.72Z" />
      <path class="GUNDAN_JAPANESE_SEROW_OUTFIT_JAPANESE_SEROW_OUTFIT_34_cls-5" d="M123.79,389c-.18.37-.36.75-.53,1.12-.59,1.28-1.11,2.58-1.56,3.87h0s-.24-.31-.71-.8A18,18,0,0,0,108,387.7a8.59,8.59,0,0,1,6.83-2.06s-3.23-5.78-15.33-6.61c5.58-3.22,9.34-3.22,9.34-3.22a25.43,25.43,0,0,0-19.35-3.71c4.93-5.12,12.34-6,12.34-6s-9.25-4.5-16.93-.72c1.67-5.31,7.26-9.52,7.26-9.52a9.64,9.64,0,0,0-1.55-.09,14.5,14.5,0,0,0-3.64.49,14.17,14.17,0,0,0-7,4.31,35.09,35.09,0,0,1,12.32-14.78,3.57,3.57,0,0,0,.66.69q1.62,1.29,3.24,2.78c8.32,7.61,16.56,18.72,22.45,29.29,1.75,3.11,3.28,6.18,4.56,9.1Z" />
      <path class="GUNDAN_JAPANESE_SEROW_OUTFIT_JAPANESE_SEROW_OUTFIT_34_cls-4" d="M122.17,436.69H59.43S59,432.92,61.7,426c.19-.48.35-1,.49-1.41a13.15,13.15,0,0,0,.57-3.29,11.93,11.93,0,0,0-4.28-9.56,22.77,22.77,0,0,1,6.26.26l.35.06C70,413,75.18,415.58,81,420c.67.52,1.38,1,2.12,1.5l0,0a51.26,51.26,0,0,0,9.5,4.82c9.61,3.73,20.51,5.11,26.82,2.75l.24-.1.36-.14a64.9,64.9,0,0,0,1.9,7.21l0,.1C122.07,436.4,122.12,436.56,122.17,436.69Z" />
      <path class="GUNDAN_JAPANESE_SEROW_OUTFIT_JAPANESE_SEROW_OUTFIT_34_cls-4" d="M121.7,394c-.13.34-.26.69-.37,1-.5,1.49-.92,3-1.27,4.46-.21.88-.4,1.76-.56,2.63,0,.26-.1.52-.14.78a60.16,60.16,0,0,0-.83,7.94l-.45-.11-.18-.05a36.08,36.08,0,0,1-13-6.61c-.63-.5-1.25-1-1.85-1.55l0,0c-.86-.76-1.71-1.58-2.52-2.44a44.77,44.77,0,0,1-6.27-8.42A40.79,40.79,0,0,0,78,375.66c-.69-.36-1.4-.68-2.1-1,0,0,4.51-11,11.16-18.38a14.5,14.5,0,0,1,3.64-.49,9.64,9.64,0,0,1,1.55.09s-5.59,4.21-7.26,9.52c7.68-3.78,16.93.72,16.93.72s-7.41.83-12.34,6a25.43,25.43,0,0,1,19.35,3.71s-3.76,0-9.34,3.22c12.1.83,15.33,6.61,15.33,6.61A8.59,8.59,0,0,0,108,387.7,18,18,0,0,1,121,393.16c.47.49.71.8.71.8Z" />
      <path class="GUNDAN_JAPANESE_SEROW_OUTFIT_JAPANESE_SEROW_OUTFIT_34_cls-4" d="M354.21,400.91a16.33,16.33,0,0,0-.37,1.95h0a54,54,0,0,0-2.2-8.57h0a20.29,20.29,0,0,1,9.73-9.76l-6.46.21a14.75,14.75,0,0,1,9.88-6.11,16.67,16.67,0,0,0-6.47-2.27,10,10,0,0,1,6.51-1A32.44,32.44,0,0,1,369,383c-1.29,2.21-2.28,4.87-3.93,7.81A26.65,26.65,0,0,1,354.21,400.91Z" />
      <path class="GUNDAN_JAPANESE_SEROW_OUTFIT_JAPANESE_SEROW_OUTFIT_34_cls-3" d="M276,413.25a2.48,2.48,0,1,1-2.49,2.48A2.49,2.49,0,0,1,276,413.25Z" />
      <path class="GUNDAN_JAPANESE_SEROW_OUTFIT_JAPANESE_SEROW_OUTFIT_34_cls-4" d="M369,383c1.76-3,4-5.2,9.21-6.15-4.67,5.16-3.79,16-.86,20.4-4.56,2.46-5.84,5.43-12.07,12.3-8,8.83-10.58,4.79-10.58,4.79a62.56,62.56,0,0,0-.91-11.43h0a16.33,16.33,0,0,1,.37-1.95,26.65,26.65,0,0,0,10.9-10.15C366.76,387.82,367.75,385.16,369,383Z" />
      <path class="GUNDAN_JAPANESE_SEROW_OUTFIT_JAPANESE_SEROW_OUTFIT_34_cls-5" d="M367.83,376.55a9.07,9.07,0,0,0-3-1.19,10,10,0,0,0-6.51,1,16.67,16.67,0,0,1,6.47,2.27,14.75,14.75,0,0,0-9.88,6.11l6.46-.21a20.29,20.29,0,0,0-9.73,9.76,49.77,49.77,0,0,0-3.83-8.35c5.14-13.63,11.84-20.74,14.53-23.21C362.33,362.72,367.5,372.18,367.83,376.55Z" />
      <path class="GUNDAN_JAPANESE_SEROW_OUTFIT_JAPANESE_SEROW_OUTFIT_34_cls-4" d="M353.44,428.69s10.6,3.52,18.83-3.86a81.78,81.78,0,0,1,9.16-7.17,34.76,34.76,0,0,1,4.51-2.62c-.18.3-3.42,5.68-2.77,11.66.67,6.17,1.45,10.07,1.45,10.07l-30.55-.08c-.62-1.59-.68-5-.64-7.32C353.43,429.13,353.44,428.9,353.44,428.69Z" />
      <path class="GUNDAN_JAPANESE_SEROW_OUTFIT_JAPANESE_SEROW_OUTFIT_34_cls-3" d="M362.33,362.72c-2.69,2.47-9.39,9.58-14.53,23.21-.61-1-1.25-2.08-2-3.1l-.19-.29L344,379.86s5.36-14.9,14.52-21.63a2.6,2.6,0,0,1,3.07-.05,4.4,4.4,0,0,1,1.28,1.54A2.49,2.49,0,0,1,362.33,362.72Z" />
      <path class="GUNDAN_JAPANESE_SEROW_OUTFIT_JAPANESE_SEROW_OUTFIT_34_cls-3" d="M354.3,421.4a73.54,73.54,0,0,1-1.21,7.61c-5.44-5.65-12.41-7.52-17.73-5.63-5.59,2-17.51,7.74-27.67,2.08a51.76,51.76,0,0,0,24.23-7.27,16,16,0,0,1,10.84-2.27A24.53,24.53,0,0,1,354.3,421.4Z" />
      <path class="GUNDAN_JAPANESE_SEROW_OUTFIT_JAPANESE_SEROW_OUTFIT_34_cls-4" d="M353.44,428.69c0,.21,0,.44,0,.68l-.34-.36a73.54,73.54,0,0,0,1.21-7.61c.25-2.22.41-4.61.44-7.11,0,0,2.57,4,10.58-4.79,6.23-6.87,7.51-9.84,12.07-12.3a32.16,32.16,0,0,1,4.94-2.07c-3.58,5.29-3.13,16.24-.9,22.53a81.78,81.78,0,0,0-9.16,7.17C364,432.21,353.44,428.69,353.44,428.69Z" />
      <path class="GUNDAN_JAPANESE_SEROW_OUTFIT_JAPANESE_SEROW_OUTFIT_34_cls-3" d="M344,362.86a55.84,55.84,0,0,0-15.32,23,17.42,17.42,0,0,1-7.56,9.47c-10.07,5.83-24.93,4.09-38.59-4.3-4,3.38-10.54,6.31-15.39,8.7a60.53,60.53,0,0,1,.83,9.92,58.61,58.61,0,0,1-.52,7.8,55.06,55.06,0,0,1-2.95,11.94,46.89,46.89,0,0,1-3.09,6.68l-.32.58H242.76l.33-.58a47.07,47.07,0,0,0,3.27-7.23,54.93,54.93,0,0,0,2.8-11.63,60.38,60.38,0,0,0-.13-16h0c-6.52-1.77-12.06-5-20.06-9.52h0c-16.09,11.53-34.63,14.06-46.15,6.61a17.74,17.74,0,0,1-7.25-10A57.06,57.06,0,0,0,161.09,364c12.75,3,18.21,16.71,21.32,22.57,5,9.44,22.18,13.49,38.93.57a167.64,167.64,0,0,1-37.55-32.75,180.44,180.44,0,0,0-21.17-21.34c-2-1.74-4-3.35-5.92-4.85l-1.23-1c-12.74-9.79-22.18-14.32-22.34-14.4l-1.62-.55-.31-.11a3.17,3.17,0,0,1-1.77-1.52,3,3,0,0,1-.29-.77c-.63-2.74-.73-7.48,7-5.42,0,0,0,0,0,0,.28.06.57.15.87.24,0,0,11.31,5.33,26.17,17.11l.15.11a190.42,190.42,0,0,1,27.43,26.71c22.19,26.49,51.48,43.4,66.12,45l.38,0c.38,0,.75.06,1.1.08,31.59-12.18,45.06-47.19,48.68-77.47q.3-2.61.51-5.13.32-4,.37-7.67c4.74-1.66,7,.89,8,3.3a10.68,10.68,0,0,1,.77,4.87q-.12,1.62-.27,3.27-.51,5.83-1.49,11.83h0c0,.31-.1.62-.15.93-3.76,22.1-11.13,42.18-26.57,58.09,14.45,9.63,29,6.29,33.87-1.9C325.4,378.32,331.4,365.16,344,362.86Z" />
      <path class="GUNDAN_JAPANESE_SEROW_OUTFIT_JAPANESE_SEROW_OUTFIT_34_cls-5" d="M358.53,358.23l-.21-.53s-7-8.39-22.6-21.36S316.45,315,316.45,315h0q-.51,5.83-1.49,11.83h0c0,.31-.1.62-.15.93-3.76,22.1-11.13,42.18-26.57,58.09,14.45,9.63,29,6.29,33.87-1.9,3.31-5.58,9.31-18.74,21.92-21a55.84,55.84,0,0,0-15.32,23,17.42,17.42,0,0,1-7.56,9.47c-10.07,5.83-24.93,4.09-38.59-4.3-4,3.38-10.54,6.31-15.39,8.7a60.53,60.53,0,0,1,.83,9.92,58.61,58.61,0,0,1-.52,7.8,55.06,55.06,0,0,1-2.95,11.94,46.89,46.89,0,0,1-3.09,6.68l-.32.58H351c.05-.15.12-.35.19-.58s.09-.25.14-.39c.27-.88.65-2.14,1-3.7.23-.9.46-1.91.69-3a24.43,24.43,0,0,0-2.54-2.29l-.12-.09A20,20,0,0,0,346,424a13.3,13.3,0,0,0-1.76-.64,14,14,0,0,0-8.83,0c-5.59,2-17.51,7.74-27.67,2.08a51.76,51.76,0,0,0,24.23-7.27,16.05,16.05,0,0,1,10.84-2.27,21.79,21.79,0,0,1,3.43.86c.63.22,1.26.46,1.87.73a24.61,24.61,0,0,1,3.42,1.84,29.77,29.77,0,0,1,2.83,2c.24-2.22.4-4.6.43-7.1h0c0-1.84,0-3.75-.19-5.7v0c-.14-1.87-.37-3.78-.71-5.71-.18-1.06-.39-2.13-.64-3.2,0,0,0,0,0,0-.23-1-.48-1.94-.77-2.91q-.36-1.22-.78-2.43h0a49.77,49.77,0,0,0-3.83-8.35c-.61-1-1.25-2.08-2-3.1l-.19-.29L344,379.86s3.51-9.76,9.71-17A28.14,28.14,0,0,1,358.53,358.23Zm-82.51,55a2.48,2.48,0,1,1-2.5,2.48A2.49,2.49,0,0,1,276,413.25ZM274.27,425a2.48,2.48,0,1,1-2.51,2.47A2.49,2.49,0,0,1,274.27,425Z" />
      <path class="GUNDAN_JAPANESE_SEROW_OUTFIT_JAPANESE_SEROW_OUTFIT_34_cls-5" d="M249,401.24h0c-6.52-1.77-12.06-5-20.06-9.52h0c-16.09,11.53-34.63,14.06-46.15,6.61a17.74,17.74,0,0,1-7.25-10A57.06,57.06,0,0,0,161.09,364c12.75,3,18.21,16.71,21.32,22.57,5,9.44,22.18,13.49,38.93.57a167.64,167.64,0,0,1-37.55-32.75,180.44,180.44,0,0,0-21.17-21.34c-2-1.74-4-3.35-5.92-4.85l-1.23-1c-12.74-9.79-22.18-14.32-22.34-14.4l-1.62-.55-.31-.11a3.17,3.17,0,0,1-1.77-1.52C113.36,334.77,97.31,340,97.31,340a3.49,3.49,0,0,1,.65.43c1.25,1,2.46,2.08,3.62,3.17a103.4,103.4,0,0,1,18.33,23.3,105.11,105.11,0,0,1,7.64,15.62,46.54,46.54,0,0,0-3.76,6.43c-.18.37-.36.75-.53,1.12-.59,1.28-1.11,2.58-1.56,3.87-.13.34-.26.69-.37,1-.5,1.49-.92,3-1.27,4.46-.21.88-.4,1.76-.56,2.63,0,.26-.1.52-.14.78a60.16,60.16,0,0,0-.83,7.94,68.76,68.76,0,0,0,.12,7.92c.19,2.56.49,4.95.86,7.11a45.44,45.44,0,0,1,10.87-10.66,28.69,28.69,0,0,1,15.54-5.32,11.08,11.08,0,0,1,1.41,0,14.59,14.59,0,0,1,2.79.43,17.42,17.42,0,0,1,3.14,1.09,19.27,19.27,0,0,1,4.34,2.72,58.08,58.08,0,0,0,25.75,12.07c-9.75,3.68-19.52-.85-26.08-4.43-1.68-.92-3.16-1.78-4.36-2.42-5.91-3.14-14.55-1.92-21.8,4.28a34.88,34.88,0,0,0-9.05,12.47l0,.1c.06.19.11.35.16.48H242.76l.33-.58a47.07,47.07,0,0,0,3.27-7.23,54.93,54.93,0,0,0,2.8-11.63,60.38,60.38,0,0,0-.13-16Zm-11.2,12a2.48,2.48,0,1,1-2.51,2.48A2.49,2.49,0,0,1,237.83,413.25ZM236.07,425a2.48,2.48,0,1,1-2.5,2.47A2.49,2.49,0,0,1,236.07,425Z" />
      <path class="GUNDAN_JAPANESE_SEROW_OUTFIT_JAPANESE_SEROW_OUTFIT_34_cls-6" d="M122.17,436.69c0-.13-.1-.29-.16-.48l0-.1a64.9,64.9,0,0,1-1.9-7.21c-.19-.91-.38-1.89-.55-2.92v0s0-.08,0-.12c-.37-2.16-.67-4.55-.86-7.11a68.76,68.76,0,0,1-.12-7.92,60.16,60.16,0,0,1,.83-7.94c0-.26.09-.52.14-.78.16-.87.35-1.75.56-2.63.35-1.48.77-3,1.27-4.46.11-.34.24-.69.37-1,.45-1.29,1-2.59,1.56-3.87.17-.37.35-.75.53-1.12" />
      <path class="GUNDAN_JAPANESE_SEROW_OUTFIT_JAPANESE_SEROW_OUTFIT_34_cls-6" d="M119.91,366.92a105.11,105.11,0,0,1,7.64,15.62,46.54,46.54,0,0,0-3.76,6.43l-.54-1.27c-1.28-2.92-2.81-6-4.56-9.1-5.89-10.57-14.13-21.68-22.45-29.29q-1.62-1.49-3.24-2.78a3.57,3.57,0,0,1-.66-.69,3.75,3.75,0,0,1-.32-4.09,5.13,5.13,0,0,1,.93-1.22,3.78,3.78,0,0,1,4.36-.51,3.49,3.49,0,0,1,.65.43c1.25,1,2.46,2.08,3.62,3.17a103.4,103.4,0,0,1,18.33,23.3" />
      <path class="GUNDAN_JAPANESE_SEROW_OUTFIT_JAPANESE_SEROW_OUTFIT_34_cls-6" d="M114.21,391.84s4.51,5.44,5.15,11" />
      <path class="GUNDAN_JAPANESE_SEROW_OUTFIT_JAPANESE_SEROW_OUTFIT_34_cls-6" d="M351.63,394.28a49.77,49.77,0,0,0-3.83-8.35c-.61-1-1.25-2.08-2-3.1l-.19-.29L344,379.86s5.36-14.9,14.52-21.63a2.6,2.6,0,0,1,3.07-.05,4.4,4.4,0,0,1,1.28,1.54,2.49,2.49,0,0,1-.55,3c-2.69,2.47-9.39,9.58-14.53,23.21" />
      <path class="GUNDAN_JAPANESE_SEROW_OUTFIT_JAPANESE_SEROW_OUTFIT_34_cls-6" d="M351,436.7h0c.25-.75.79-2.38,1.38-4.67.23-.9.46-1.91.69-3a73.54,73.54,0,0,0,1.21-7.61c.25-2.22.41-4.61.44-7.11a62.56,62.56,0,0,0-.91-11.43,54,54,0,0,0-2.2-8.57" />
      <path class="GUNDAN_JAPANESE_SEROW_OUTFIT_JAPANESE_SEROW_OUTFIT_34_cls-6" d="M353.84,402.86a16.33,16.33,0,0,1,.37-1.95,5.72,5.72,0,0,1,.17-.59,27.87,27.87,0,0,1,4.61-8.48" />
      <path class="GUNDAN_JAPANESE_SEROW_OUTFIT_JAPANESE_SEROW_OUTFIT_34_cls-6" d="M120.08,428.9l-.36.14-.24.1c-6.31,2.36-17.21,1-26.82-2.75a51.26,51.26,0,0,1-9.5-4.82l0,0c-.74-.48-1.45-1-2.12-1.5-5.82-4.46-11-7-15.91-7.94l-.35-.06a22.77,22.77,0,0,0-6.26-.26,11.93,11.93,0,0,1,4.28,9.56,13.15,13.15,0,0,1-.57,3.29c-.14.46-.3.93-.49,1.41-2.71,6.88-2.27,10.65-2.27,10.65H354.07a4,4,0,0,1-.18-.58,29.77,29.77,0,0,1-.46-6.74c0-.24,0-.47,0-.68,0-1.06.08-1.78.08-1.78" />
      <path class="GUNDAN_JAPANESE_SEROW_OUTFIT_JAPANESE_SEROW_OUTFIT_34_cls-2" d="M242.75,436.69a46.09,46.09,0,0,0,3.61-7.81,54.93,54.93,0,0,0,2.8-11.63,60.38,60.38,0,0,0-.13-16" />
      <path class="GUNDAN_JAPANESE_SEROW_OUTFIT_JAPANESE_SEROW_OUTFIT_34_cls-2" d="M261.1,436.69a47,47,0,0,0,3.41-7.26,55.06,55.06,0,0,0,2.95-11.94,58.62,58.62,0,0,0,.51-7.8,60.54,60.54,0,0,0-.82-9.92" />
      <path class="GUNDAN_JAPANESE_SEROW_OUTFIT_JAPANESE_SEROW_OUTFIT_34_cls-6" d="M129.43,310.66C113.36,334.77,97.31,340,97.31,340" />
      <path class="GUNDAN_JAPANESE_SEROW_OUTFIT_JAPANESE_SEROW_OUTFIT_34_cls-6" d="M316.45,315s3.68,8.43,19.27,21.39,22.59,21.36,22.59,21.36" />
      <path class="GUNDAN_JAPANESE_SEROW_OUTFIT_JAPANESE_SEROW_OUTFIT_34_cls-6" d="M362.33,362.72s5.17,9.46,5.5,13.83a9.07,9.07,0,0,0-3-1.19,10,10,0,0,0-6.51,1,16.67,16.67,0,0,1,6.47,2.27,14.75,14.75,0,0,0-9.88,6.11l6.46-.21a20.29,20.29,0,0,0-9.73,9.76h0" />
      <path class="GUNDAN_JAPANESE_SEROW_OUTFIT_JAPANESE_SEROW_OUTFIT_34_cls-6" d="M92.34,345.84A35.09,35.09,0,0,0,80,360.62a14.17,14.17,0,0,1,7-4.31,14.5,14.5,0,0,1,3.64-.49,9.64,9.64,0,0,1,1.55.09s-5.59,4.21-7.26,9.52c7.68-3.78,16.93.72,16.93.72s-7.41.83-12.34,6a25.43,25.43,0,0,1,19.35,3.71s-3.76,0-9.34,3.22c12.1.83,15.33,6.61,15.33,6.61A8.59,8.59,0,0,0,108,387.7,18,18,0,0,1,121,393.16c.47.49.71.8.71.8" />
      <path class="GUNDAN_JAPANESE_SEROW_OUTFIT_JAPANESE_SEROW_OUTFIT_34_cls-6" d="M240.32,415.73a2.5,2.5,0,1,1-2.49-2.48A2.49,2.49,0,0,1,240.32,415.73Z" />
      <path class="GUNDAN_JAPANESE_SEROW_OUTFIT_JAPANESE_SEROW_OUTFIT_34_cls-6" d="M278.52,415.73a2.5,2.5,0,1,1-2.51-2.48A2.49,2.49,0,0,1,278.52,415.73Z" />
      <path class="GUNDAN_JAPANESE_SEROW_OUTFIT_JAPANESE_SEROW_OUTFIT_34_cls-6" d="M240.32,415.73s3.71.86,8.84,1.52a87.44,87.44,0,0,0,9.39.75,49.21,49.21,0,0,0,8.91-.51,22.72,22.72,0,0,0,6.06-1.76" />
      <path class="GUNDAN_JAPANESE_SEROW_OUTFIT_JAPANESE_SEROW_OUTFIT_34_cls-6" d="M238.57,427.5a2.5,2.5,0,1,1-2.5-2.47A2.49,2.49,0,0,1,238.57,427.5Z" />
      <path class="GUNDAN_JAPANESE_SEROW_OUTFIT_JAPANESE_SEROW_OUTFIT_34_cls-6" d="M276.77,427.5a2.51,2.51,0,1,1-2.5-2.47A2.49,2.49,0,0,1,276.77,427.5Z" />
      <path class="GUNDAN_JAPANESE_SEROW_OUTFIT_JAPANESE_SEROW_OUTFIT_34_cls-6" d="M238.57,427.5s3.2.74,7.79,1.38c2.71.38,5.9.72,9.19.85h0a53.12,53.12,0,0,0,8.95-.3,24.38,24.38,0,0,0,7.25-1.93" />
      <path class="GUNDAN_JAPANESE_SEROW_OUTFIT_JAPANESE_SEROW_OUTFIT_34_cls-7" d="M288.22,385.8c15.44-15.91,22.81-36,26.57-58.09,0-.31.11-.62.15-.93h0q1-6,1.49-11.83.15-1.65.27-3.27a10.68,10.68,0,0,0-.77-4.87c-1-2.41-3.25-5-8-3.3q-.06,3.71-.37,7.67-.21,2.52-.51,5.13c-2.75,33.28-17.09,65.29-48.68,77.47-.35,0-.72,0-1.1-.08l-.38,0c-14.64-1.61-43.93-18.52-66.12-45a190.42,190.42,0,0,0-27.43-26.71l-.15-.11C148.35,310.05,137,304.72,137,304.72c-.3-.09-.59-.18-.87-.24,0,0,0,0,0,0-7.72-2.06-7.62,2.68-7,5.42a3,3,0,0,0,.29.77,3.17,3.17,0,0,0,1.77,1.52l.31.11,1.62.55c.16.08,9.6,4.61,22.34,14.4l1.23,1c1.92,1.5,3.89,3.11,5.92,4.85a180.44,180.44,0,0,1,21.17,21.34,167.64,167.64,0,0,0,37.55,32.75" />
      <path class="GUNDAN_JAPANESE_SEROW_OUTFIT_JAPANESE_SEROW_OUTFIT_34_cls-7" d="M229,391.71c8,4.49,13.54,7.75,20.06,9.52h0a40.9,40.9,0,0,0,9,1.54l.71,0,1.18,0,1.77-.68q2.81-1.08,5.46-2.4c4.84-2.39,11.35-5.32,15.39-8.7" />
      <path class="GUNDAN_JAPANESE_SEROW_OUTFIT_JAPANESE_SEROW_OUTFIT_34_cls-7" d="M229,391.72c-16.09,11.53-34.63,14.06-46.15,6.61a17.74,17.74,0,0,1-7.25-10A57.06,57.06,0,0,0,161.09,364c12.75,3,18.21,16.71,21.32,22.57,5,9.44,22.18,13.49,38.93.57" />
      <path class="GUNDAN_JAPANESE_SEROW_OUTFIT_JAPANESE_SEROW_OUTFIT_34_cls-7" d="M119.5,425.83c7.27-9.82,16.88-15.82,26.42-16a18,18,0,0,1,11.68,4.29,58.08,58.08,0,0,0,25.75,12.07c-12.25,4.62-24.55-3.72-30.44-6.85-8.77-4.66-23.55.28-30.9,16.85" />
      <path class="GUNDAN_JAPANESE_SEROW_OUTFIT_JAPANESE_SEROW_OUTFIT_34_cls-7" d="M288.22,385.8c14.45,9.63,29,6.29,33.86-1.9,3.32-5.58,9.32-18.74,21.93-21a55.84,55.84,0,0,0-15.32,23,17.42,17.42,0,0,1-7.56,9.47c-10.07,5.83-24.93,4.09-38.59-4.3" />
      <path class="GUNDAN_JAPANESE_SEROW_OUTFIT_JAPANESE_SEROW_OUTFIT_34_cls-7" d="M354.3,421.4a24.53,24.53,0,0,0-11.54-5.48,16,16,0,0,0-10.84,2.27,51.76,51.76,0,0,1-24.23,7.27c10.16,5.66,22.08-.08,27.67-2.08,5.32-1.89,12.29,0,17.73,5.63l.34.36" />
      <path class="GUNDAN_JAPANESE_SEROW_OUTFIT_JAPANESE_SEROW_OUTFIT_34_cls-6" d="M118.65,418.72l-.51.06a.55.55,0,0,1-.18,0,31.63,31.63,0,0,1-16.5-1.87,27.86,27.86,0,0,1-3.24-1.6,32.93,32.93,0,0,1-5.33-3.8,52.55,52.55,0,0,1-6.06-6.3c-4-4.82-10-10-16.27-12.6l-.68-.28A20.75,20.75,0,0,0,63.93,391c3,3.71,3.33,8.84,2.9,13.11a36.78,36.78,0,0,1-1.74,8" />
      <path class="GUNDAN_JAPANESE_SEROW_OUTFIT_JAPANESE_SEROW_OUTFIT_34_cls-6" d="M118.53,410.8l-.45-.11-.18-.05a36.08,36.08,0,0,1-13-6.61c-.63-.5-1.25-1-1.85-1.55l0,0c-.86-.76-1.71-1.58-2.52-2.44a44.77,44.77,0,0,1-6.27-8.42A40.79,40.79,0,0,0,78,375.66c-.69-.36-1.4-.68-2.1-1A21.84,21.84,0,0,0,67.76,373a21,21,0,0,1,2.12,19.37" />
      <path class="GUNDAN_JAPANESE_SEROW_OUTFIT_JAPANESE_SEROW_OUTFIT_34_cls-6" d="M87,356.31c-6.65,7.38-11.16,18.38-11.16,18.38" />
      <path class="GUNDAN_JAPANESE_SEROW_OUTFIT_JAPANESE_SEROW_OUTFIT_34_cls-6" d="M386,415h0c-.18.3-3.42,5.68-2.77,11.66.67,6.17,1.45,10.07,1.45,10.07l-30.55-.08" />
      <path class="GUNDAN_JAPANESE_SEROW_OUTFIT_JAPANESE_SEROW_OUTFIT_34_cls-6" d="M353.44,428.69s10.6,3.52,18.83-3.86a81.78,81.78,0,0,1,9.16-7.17,34.76,34.76,0,0,1,4.51-2.62" />
      <path class="GUNDAN_JAPANESE_SEROW_OUTFIT_JAPANESE_SEROW_OUTFIT_34_cls-6" d="M354.74,414.29s2.57,4,10.58-4.79c6.23-6.87,7.51-9.84,12.07-12.3a32.16,32.16,0,0,1,4.94-2.07c-3.58,5.29-3.13,16.24-.9,22.53" />
      <path class="GUNDAN_JAPANESE_SEROW_OUTFIT_JAPANESE_SEROW_OUTFIT_34_cls-6" d="M354.21,400.91a26.65,26.65,0,0,0,10.9-10.15c1.65-2.94,2.64-5.6,3.93-7.81,1.76-3,4-5.2,9.21-6.15-4.67,5.16-3.79,16-.86,20.4" />
      <path class="GUNDAN_JAPANESE_SEROW_OUTFIT_JAPANESE_SEROW_OUTFIT_34_cls-6" d="M364.82,375.36A32.44,32.44,0,0,1,369,383h0" />
      <path class="GUNDAN_JAPANESE_SEROW_OUTFIT_JAPANESE_SEROW_OUTFIT_34_cls-2" d="M257.29,393.7a58.75,58.75,0,0,1,1.91,14.95,54.38,54.38,0,0,1-7.07,27.46" />
      <path class="GUNDAN_JAPANESE_SEROW_OUTFIT_JAPANESE_SEROW_OUTFIT_34_cls-8" d="M367.36,436.11H336.24c18.71-12.1,12.38-46.18,12.13-47.19,8.29,17,10.87,28.48,10.87,28.48a195.13,195.13,0,0,0,3.61-23.23c.92,11.11-.64,25.26-1.44,31.44a100.87,100.87,0,0,1,5.51-20.21C363.51,419.28,367.36,436.11,367.36,436.11Z" />
      <path class="GUNDAN_JAPANESE_SEROW_OUTFIT_JAPANESE_SEROW_OUTFIT_34_cls-8" d="M143.39,393.18s-25.51,18.48-5.37,43.51c-16.18,0-16.31-.58-16.31-.58s-16.52-36.37,19-66.48C125,390.05,125.8,399,125.8,405.05,134.06,390.29,143.39,393.18,143.39,393.18Z" />
      <path class="GUNDAN_JAPANESE_SEROW_OUTFIT_JAPANESE_SEROW_OUTFIT_34_cls-8" d="M163.36,321.94l-.16,0c-7.78-1.54-7.73,5.33-7.73,5.33S144.19,337.92,127,355.92a31.68,31.68,0,0,0-7.1,11,23.92,23.92,0,0,0-1.22,11.68,27.47,27.47,0,0,0,3.91,10.5q.38.6.66,1c.2.29.36.49.44.6l.09.11-3.59,8.74-.14-.09-.74-.46-1.29-.82-.23-.15c-3.57-2.25-10.24-6.44-13.69-8.47-1.24,5.3.07,11.66.8,14.48.17.64.3,1.09.37,1.32a12,12,0,0,0-2.22-2.87l0,0c-.65-.67-1.47-1.48-2.52-2.44-2.84,7.37-.17,14.48,1,16.93.24.52.41.83.44.9-.16-.1-1.67-1.11-3.68-2.5-1.6-1.11-3.53-2.47-5.33-3.81h0c-3,5.88-1.23,12.23-.23,14.86.28.72.5,1.16.53,1.24a51.49,51.49,0,0,1-10-6.06l0,0A18.84,18.84,0,0,0,80,436.11l-.18.58H59.43S59,432.92,61.7,426c.19-.48.35-1,.49-1.41.17-1,.36-2.14.57-3.29a11.93,11.93,0,0,0-4.28-9.56,22.77,22.77,0,0,1,6.26.26c.6-2.53,1.3-5.19,2.09-8,.43-4.27.09-9.4-2.9-13.11a20.75,20.75,0,0,1,5.95,1.37A21,21,0,0,0,67.76,373a21.84,21.84,0,0,1,8.09,1.71s4.51-11,11.16-18.38a14.17,14.17,0,0,0-7,4.31,35.09,35.09,0,0,1,12.32-14.78,3.75,3.75,0,0,1-.32-4.09,5.13,5.13,0,0,1,.93-1.22,3.78,3.78,0,0,1,4.36-.51s16-5.25,32.12-29.36a3,3,0,0,1-.29-.77c-.63-2.74-.73-7.48,7-5.42,0,0,0,0,0,0,.28.06.57.15.87.24,0,0,11.31,5.33,26.17,17.11Z" />
    </g>
  </g>
</svg>