<svg xmlns="http://www.w3.org/2000/svg" viewBox="0 0 432 432">
  <defs>
    <style>.GUNDAN_JAPANESE_SEROW_OUTFIT_JAPANESE_SEROW_OUTFIT_11_cls-1{isolation:isolate;}.GUNDAN_JAPANESE_SEROW_OUTFIT_JAPANESE_SEROW_OUTFIT_11_cls-2{fill:#7b641d;}.GUNDAN_JAPANESE_SEROW_OUTFIT_JAPANESE_SEROW_OUTFIT_11_cls-3{fill:#462623;}.GUNDAN_JAPANESE_SEROW_OUTFIT_JAPANESE_SEROW_OUTFIT_11_cls-4{fill:#fff;}.GUNDAN_JAPANESE_SEROW_OUTFIT_JAPANESE_SEROW_OUTFIT_11_cls-5{fill:#1b144d;}.GUNDAN_JAPANESE_SEROW_OUTFIT_JAPANESE_SEROW_OUTFIT_11_cls-6{fill:#211822;}.GUNDAN_JAPANESE_SEROW_OUTFIT_JAPANESE_SEROW_OUTFIT_11_cls-7{fill:none;stroke:#000;stroke-linecap:round;stroke-linejoin:round;stroke-width:1.3px;}.GUNDAN_JAPANESE_SEROW_OUTFIT_JAPANESE_SEROW_OUTFIT_11_cls-8{opacity:0.22;mix-blend-mode:multiply;}</style>
  </defs>
  <g class="GUNDAN_JAPANESE_SEROW_OUTFIT_JAPANESE_SEROW_OUTFIT_11_cls-1">
    <g id="outfit">
      <path class="GUNDAN_JAPANESE_SEROW_OUTFIT_JAPANESE_SEROW_OUTFIT_11_cls-2" d="M91.22,428.13l-5.28-2.75a2.25,2.25,0,0,0-2.73.52,1.71,1.71,0,0,0-.83-2.35,2.22,2.22,0,0,0-2.84.65l-.81,1.24-3.31,5-1-.54a2.21,2.21,0,0,0-2.83.66,1.73,1.73,0,0,0,.74,2.52l1,.54-3.67,5.56-.46.69a1.75,1.75,0,0,0,.75,2.52,2.25,2.25,0,0,0,1.84.11,1.84,1.84,0,0,0,1,1.38l6,3.11a2.22,2.22,0,0,0,2.84-.67l8.94-13.58,1.4-2.12A1.73,1.73,0,0,0,91.22,428.13ZM79.1,442.9l-4.19-2.18a2.19,2.19,0,0,0-1.28-.23l3.28-5,2.31,1.2a2.24,2.24,0,0,0,2.84-.66,1.72,1.72,0,0,0-.75-2.52L79,432.33l3.92-5.94a2.72,2.72,0,0,1,.16-.35l.1-.12h0l-.07.15-.21.32a1.72,1.72,0,0,0,.91,2.17l3.5,1.82Z" />
      <path class="GUNDAN_JAPANESE_SEROW_OUTFIT_JAPANESE_SEROW_OUTFIT_11_cls-3" d="M83.83,428.56a1.72,1.72,0,0,1-.91-2.17L79,432.33l2.31,1.2a1.72,1.72,0,0,1,.75,2.52,2.24,2.24,0,0,1-2.84.66l-2.31-1.2-3.28,5a2.19,2.19,0,0,1,1.28.23l4.19,2.18,8.23-12.52Z" />
      <path class="GUNDAN_JAPANESE_SEROW_OUTFIT_JAPANESE_SEROW_OUTFIT_11_cls-3" d="M71.56,430.59a2.21,2.21,0,0,1,2.83-.66l1,.54,3.31-5c-11.61-5.66-19.47-5-19.47-5a34.63,34.63,0,0,0-5,6.16c-1.27,2.05-2.49,4.13-3.62,6.18,0,0,12,1.24,19,6.44l3.67-5.56-1-.54A1.73,1.73,0,0,1,71.56,430.59Z" />
      <path class="GUNDAN_JAPANESE_SEROW_OUTFIT_JAPANESE_SEROW_OUTFIT_11_cls-4" d="M70.19,387.06l-7.32,4.31a38.71,38.71,0,0,0-.64-7.67l-6.84,6.78c1.4,4.73,2.36,8.21,2.33,9.54a17.51,17.51,0,0,0-12.32,5.52c-3.65,4-5,9.81-1.73,16a28.74,28.74,0,0,0-10.1,7.69s0,0,0,0h0c-4.61,5.52-6.92,12.54-5.87,19.24l9.07,4.84c1.55-5.06,6.86-21.28,13.88-30.44a38.91,38.91,0,0,1,2.87-3.33,100.12,100.12,0,0,1,15.93-12.77C74,396.82,70.19,387.06,70.19,387.06Z" />
      <path class="GUNDAN_JAPANESE_SEROW_OUTFIT_JAPANESE_SEROW_OUTFIT_11_cls-2" d="M81.23,385.49c-7.36-7.39-18.78-8.78-25.75-8.85-1.66,0-3.07,0-4.11.09.3,1.14.62,2.26.94,3.35,5.4.33,17.88,1.69,24.33,7.19C78.42,398.6,79,400.88,79,400.88s-4.2,2.31-9.56,5.89a100.12,100.12,0,0,0-15.93,12.77,38.91,38.91,0,0,0-2.87,3.33c-7,9.16-12.33,25.38-13.88,30.44l-9.07-4.84-7.35-3.92v0c-.09-.92-2.57-23.25-16.38-30.82l.15,11.21a44.58,44.58,0,0,1,13.45,20.32h0c.27.86.5,1.74.71,2.63,4.4,2.22,7.76,4,10.27,5.38,4.81,2.65,6.54,3.86,6.54,3.86l5.62,12.13S28.53,486,25.45,506.36h3.79s.53-2.6,1.56-6.51a112,112,0,0,1,7-19.59,38.67,38.67,0,0,1,7.57-11.13c-2.76-5-4.63-8.65-5.85-11.14l.69-2.5s.86-2.39,2.42-6.13a180.86,180.86,0,0,1,8-16.59c1.13-2,2.35-4.13,3.62-6.18a34.63,34.63,0,0,1,5-6.16c9.9-9.94,25-15.54,25-15.54Z" />
      <path class="GUNDAN_JAPANESE_SEROW_OUTFIT_JAPANESE_SEROW_OUTFIT_11_cls-5" d="M55.39,390.48c-.9-3-2-6.57-3.08-10.4-.32-1.09-.64-2.21-.94-3.35a186.27,186.27,0,0,1-5.14-22.68c-3.44,6.57-6.89,16-10.1,26.4h0a42.78,42.78,0,0,1,9.27,25.08A17.51,17.51,0,0,1,57.72,400C57.75,398.69,56.79,395.21,55.39,390.48Z" />
      <path class="GUNDAN_JAPANESE_SEROW_OUTFIT_JAPANESE_SEROW_OUTFIT_11_cls-5" d="M18.24,447.86c-.21-.89-.44-1.77-.71-2.63A44.58,44.58,0,0,0,4.08,424.91l.81,58.93v0c2.53,3.84,6.51,6.95,12.77,5.49a58.59,58.59,0,0,1,3.72-11.1C27.3,465.58,29,462.79,29,462.79l-.5-9.55C26,451.86,22.64,450.08,18.24,447.86Z" />
      <path class="GUNDAN_JAPANESE_SEROW_OUTFIT_JAPANESE_SEROW_OUTFIT_11_cls-6" d="M69.7,373.46a36.13,36.13,0,0,1-10.4-8.68l-3.82,11.86c7,.07,18.39,1.46,25.75,8.85l3,19.4s-15.06,5.6-25,15.54c0,0,7.86-.65,19.47,5l.81-1.24a2.22,2.22,0,0,1,2.84-.65,1.71,1.71,0,0,1,.83,2.35,2.25,2.25,0,0,1,2.73-.52l5.28,2.75a1.73,1.73,0,0,1,.75,2.52l-1.4,2.12s5.83,7.78,8,8.94a18.29,18.29,0,0,0,4.63,1.58L107.44,431s3.06-22.29,3.06-28.83V386.39l.12-.79C97.45,384,82.21,380.14,69.7,373.46Z" />
      <path class="GUNDAN_JAPANESE_SEROW_OUTFIT_JAPANESE_SEROW_OUTFIT_11_cls-6" d="M52.31,380.08c1.11,3.83,2.18,7.38,3.08,10.4l6.84-6.78a38.71,38.71,0,0,1,.64,7.67l7.32-4.31s3.78,9.76-.78,19.71c5.36-3.58,9.56-5.89,9.56-5.89s-.55-2.28-2.33-13.61C70.19,381.77,57.71,380.41,52.31,380.08Z" />
      <path class="GUNDAN_JAPANESE_SEROW_OUTFIT_JAPANESE_SEROW_OUTFIT_11_cls-6" d="M36.13,380.46C28.35,405.65,22,436.27,20.31,444.52v0l7.35,3.92c-1.05-6.7,1.26-13.72,5.87-19.24h0s0,0,0,0a28.74,28.74,0,0,1,10.1-7.69c-3.23-6.16-1.92-12,1.73-16A42.78,42.78,0,0,0,36.13,380.46Z" />
      <path class="GUNDAN_JAPANESE_SEROW_OUTFIT_JAPANESE_SEROW_OUTFIT_11_cls-6" d="M283.46,468.59c-36.56-9.34-68.9-24.94-93.45-39.31-22.55,28.84-55.16,66.66-78.23,77.08,0,0-8.67,6-18.33,11.46H329.78C312.77,509,295.43,486.62,283.46,468.59Z" />
      <path class="GUNDAN_JAPANESE_SEROW_OUTFIT_JAPANESE_SEROW_OUTFIT_11_cls-6" d="M93.52,498.6c2.09-1.88,3.43-3.13,3.43-3.13,17-12.66,48.89-50.83,71.83-79.48-3.48-2.32-6.67-4.52-9.53-6.57a11.64,11.64,0,0,1-2.88.41c-10.79.2-12.09-5.08-9-9.19-3.59-2.78-5.69-4.57-6.12-4.93a12.75,12.75,0,0,1-2-2.08h0a19.58,19.58,0,0,1-10.94-7.41h0a96.84,96.84,0,0,1-17.74-.62l-.12.79v15.82c0,6.54-3.06,28.83-3.06,28.83l-4.24,12.25-.6,1.77-1,2.05v0c0,4.4-.63,9.25-2.62,12.46l-.29.44a128.2,128.2,0,0,1-9.63,12.1L87,480.29s2.57,8.16,7.44,13.66C93.81,494.43,93.57,496.38,93.52,498.6Z" />
      <path class="GUNDAN_JAPANESE_SEROW_OUTFIT_JAPANESE_SEROW_OUTFIT_11_cls-6" d="M225.12,400.81c-4.17-.17-8.59-.43-13.18-.81-1.5,2.1-3.4,4.73-5.64,7.78a363.56,363.56,0,0,0,55.05,26.46C250.62,420.76,235.68,406.78,225.12,400.81Z" />
      <path class="GUNDAN_JAPANESE_SEROW_OUTFIT_JAPANESE_SEROW_OUTFIT_11_cls-6" d="M164.45,379.53c.94.72,2.08,1.62,3.42,2.64,1-1.79,2.8-4.24,5.08-3.43,3.5,1.23,7.14,4.45,6,8.48a17,17,0,0,1-.93,2.38c2.3,1.62,4.82,3.35,7.53,5.16,2.76-3.54,5.05-6.52,6.74-8.72-3.92-3.66-7.93-7.52-11.24-10.85a38.12,38.12,0,0,0-21.94-10.46,16.43,16.43,0,0,1,5.57,12.17A15.22,15.22,0,0,1,164.45,379.53Z" />
      <path class="GUNDAN_JAPANESE_SEROW_OUTFIT_JAPANESE_SEROW_OUTFIT_11_cls-3" d="M270.59,447.64a106.36,106.36,0,0,0-9.23-13.4h0a363.56,363.56,0,0,1-55.05-26.46c-2-1.17-3.94-2.34-5.84-3.48C195,401,190,397.76,185.54,394.76c-2.71-1.81-5.23-3.54-7.53-5.16-2.6,5.73-9.84,17.49-18.76,19.82,2.86,2.05,6.05,4.25,9.53,6.57,6.19,4.13,13.3,8.64,21.23,13.29,24.55,14.37,56.89,30,93.45,39.31C277.74,460,273.25,452.36,270.59,447.64Z" />
      <path class="GUNDAN_JAPANESE_SEROW_OUTFIT_JAPANESE_SEROW_OUTFIT_11_cls-3" d="M171.32,384.77l-3.45-2.6c-1.34-1-2.48-1.92-3.42-2.64-1.44,8.41-9.6,14.84-19.45,14.84a21.9,21.9,0,0,1-5.66-.74,12.75,12.75,0,0,0,2,2.08c.43.36,2.53,2.15,6.12,4.93,1.27,1,2.72,2.11,4.36,3.33C166.92,400.06,170.49,389.9,171.32,384.77Z" />
      <path class="GUNDAN_JAPANESE_SEROW_OUTFIT_JAPANESE_SEROW_OUTFIT_11_cls-4" d="M97,495.47s-1.34,1.25-3.43,3.13c-3.1,2.8-7.85,7-12.3,10.72-4,3.35-7.85,6.26-10,7.32l-1.53,1.18H93.45c9.66-5.48,18.33-11.46,18.33-11.46,23.07-10.42,55.68-48.24,78.23-77.08-7.93-4.65-15-9.16-21.23-13.29C145.84,444.64,113.92,482.81,97,495.47Z" />
      <path class="GUNDAN_JAPANESE_SEROW_OUTFIT_JAPANESE_SEROW_OUTFIT_11_cls-4" d="M192.28,386c-1.69,2.2-4,5.18-6.74,8.72,4.46,3,9.44,6.21,14.92,9.54,1.9,1.14,3.83,2.31,5.84,3.48,2.24-3,4.14-5.68,5.64-7.78-1.35-.11-2.72-.24-4.11-.37C206.49,398.93,199.57,392.84,192.28,386Z" />
      <path class="GUNDAN_JAPANESE_SEROW_OUTFIT_JAPANESE_SEROW_OUTFIT_11_cls-4" d="M305.61,297.47s-60.88,43.36-90.07,56.66c-34.63-22.1-73.41-71.73-73.41-71.73l-7.28,12.87,8,20.21c6.34,3.32,18.28,11.23,27.42,27.08A83.07,83.07,0,0,1,187,351c16.15,10.54,32.9,13.6,42.37,11.16a12.72,12.72,0,0,0,5.51-2.71c6.78-6.19,59-45.63,83.63-49,.55-1.69,1.05-3.13,1.5-4.37Z" />
      <path class="GUNDAN_JAPANESE_SEROW_OUTFIT_JAPANESE_SEROW_OUTFIT_11_cls-5" d="M448.81,490c-1.09-1.53-3.19-4.63-5.78-8.55-7.53-11.4-19.14-29.75-21.53-36.14,3.86-4.79,5.16-10.52,1.12-13s-6.2-8.34-8.39-21.88-11.5-30.5-11.5-30.5c3.13-1.55,5-2.74,5.34-4.41-1-1.07-16.2-12-19.95-17.39S381.18,333,373.8,326.42c-1.08-5.21-7.25-5.43-7.25-5.43a22.65,22.65,0,0,0-2.41-.19l-1.58-4.65s7.49-10.74,6.65-11.6-9.8-5.69-19.35-7.08-26.47,1.39-26.47,1.39-1,.82-3.34,7.23c-.45,1.24-.95,2.68-1.5,4.37-24.66,3.33-76.85,42.77-83.63,49a12.72,12.72,0,0,1-5.51,2.71c-9.47,2.44-26.22-.62-42.37-11.16a83.07,83.07,0,0,0-16.8-8.41c-9.14-15.85-21.08-23.76-27.42-27.08l7.42,22.45,2.48,7.47v0l6.38,19.3h0A38.12,38.12,0,0,1,181,375.19c3.31,3.33,7.32,7.19,11.24,10.85,7.29,6.8,14.21,12.89,15.55,13.59,1.39.13,2.76.26,4.11.37,4.59.38,9,.64,13.18.81,1.95.1,5.58.93,10.79,2.33A209.44,209.44,0,0,1,266,432.49a147.12,147.12,0,0,1,9.25,12.45A6.69,6.69,0,0,1,280,443c3.55,0,6.43,2.54,6.43,5.69a6,6,0,0,1-5.69,5.65l.32.59a112.12,112.12,0,0,0,9.32,15h0q2.65,3.7,5.67,7.37a6.52,6.52,0,0,1,5.72-3.13c3.54,0,6.4,2.56,6.4,5.69a5.9,5.9,0,0,1-5,5.57,178.36,178.36,0,0,0,20.51,18.8,6.54,6.54,0,0,1,5.74-3.15c3.53,0,6.41,2.54,6.41,5.69a5.43,5.43,0,0,1-2.32,4.38c7.32,4.63,14.3,7.81,20.26,8.9,20.79,3.77,44.91,1.08,47.64.76l.26,0A129.13,129.13,0,0,0,415.85,517c20.31-6.87,41.26-11.74,41.26-11.74S453.09,495.9,448.81,490Z" />
      <path class="GUNDAN_JAPANESE_SEROW_OUTFIT_JAPANESE_SEROW_OUTFIT_11_cls-2" d="M65.73,335.88A2,2,0,0,0,63.67,334h0a2,2,0,0,0-2.08,1.83c0,1.07,0,10.54,1.07,13.92a2.06,2.06,0,0,0,2,1.34,2.37,2.37,0,0,0,.57-.08,1.82,1.82,0,0,0,1.42-2.28C65.84,346.31,65.72,338.63,65.73,335.88Z" />
      <path class="GUNDAN_JAPANESE_SEROW_OUTFIT_JAPANESE_SEROW_OUTFIT_11_cls-2" d="M81.29,335.14A2.06,2.06,0,0,0,79,333.53a1.9,1.9,0,0,0-1.81,2.05c.07.56,1.86,13.56,5.22,19.31a2.21,2.21,0,0,0,2.79.79,1.73,1.73,0,0,0,.89-2.48C83,348,81.3,335.28,81.29,335.14Z" />
      <path class="GUNDAN_JAPANESE_SEROW_OUTFIT_JAPANESE_SEROW_OUTFIT_11_cls-2" d="M95.47,330.24A2.07,2.07,0,0,0,93,328.8,1.85,1.85,0,0,0,91.4,331c.15.64,3.61,15.67,8.72,22.08a2.18,2.18,0,0,0,1.7.79,2.32,2.32,0,0,0,1.21-.35,1.73,1.73,0,0,0,.48-2.57C98.9,345.15,95.51,330.38,95.47,330.24Z" />
      <path class="GUNDAN_JAPANESE_SEROW_OUTFIT_JAPANESE_SEROW_OUTFIT_11_cls-2" d="M121.42,349.52c-7.73-10.24-9.8-25.89-9.83-26a2,2,0,0,0-2.3-1.63,1.9,1.9,0,0,0-1.82,2c.08.68,2.21,16.7,10.49,27.69a2.19,2.19,0,0,0,1.73.81,2.29,2.29,0,0,0,1.16-.31A1.74,1.74,0,0,0,121.42,349.52Z" />
      <path class="GUNDAN_JAPANESE_SEROW_OUTFIT_JAPANESE_SEROW_OUTFIT_11_cls-5" d="M116.15,300.79s-4.72-2.4-9-.18c-1,.5-3,1.35-5.62,2.37-4.27,1.65-7.52,8.93-13.35,10.72a108.75,108.75,0,0,1-14.32,3.57,24,24,0,0,1-2.87.27c-2.93,0-6-.19-8.71-.19-4.61,0-8.54.58-10.38,4a8.51,8.51,0,0,0-.9,2.73c-.92,5.23,1,16.66,7.79,27.45h0a0,0,0,0,0,0,0,50.32,50.32,0,0,0,21.22,19q3.38,1.61,6.83,2.88h0a114,114,0,0,0,25.62,6.06,129.9,129.9,0,0,0,13.27,1,15.26,15.26,0,0,1-.44-3.65,15.88,15.88,0,0,1,1.77-7.25,18.8,18.8,0,0,1,9.62-8.61ZM65.21,351a2.37,2.37,0,0,1-.57.08,2.06,2.06,0,0,1-2-1.34c-1.11-3.38-1.07-12.85-1.07-13.92A2,2,0,0,1,63.66,334h0a2,2,0,0,1,2.06,1.86c0,2.75.11,10.43.9,12.87A1.82,1.82,0,0,1,65.21,351ZM79,333.53a2.06,2.06,0,0,1,2.32,1.61c0,.14,1.75,12.9,4.77,18.06a1.73,1.73,0,0,1-.89,2.48,2.21,2.21,0,0,1-2.79-.79c-3.36-5.75-5.15-18.75-5.22-19.31A1.9,1.9,0,0,1,79,333.53Zm30.32-11.67a2,2,0,0,1,2.3,1.63c0,.14,2.1,15.79,9.83,26a1.74,1.74,0,0,1-.57,2.56,2.29,2.29,0,0,1-1.16.31,2.19,2.19,0,0,1-1.73-.81c-8.28-11-10.41-27-10.49-27.69A1.9,1.9,0,0,1,109.29,321.86ZM93,328.8a2.07,2.07,0,0,1,2.45,1.44c0,.14,3.43,14.91,8,20.67a1.73,1.73,0,0,1-.48,2.57,2.32,2.32,0,0,1-1.21.35,2.18,2.18,0,0,1-1.7-.79C95,346.63,91.55,331.6,91.4,331A1.85,1.85,0,0,1,93,328.8Z" />
      <path class="GUNDAN_JAPANESE_SEROW_OUTFIT_JAPANESE_SEROW_OUTFIT_11_cls-2" d="M353.79,520.1c-6-1.09-12.94-4.27-20.26-8.9a5.43,5.43,0,0,0,2.32-4.38c0-3.15-2.88-5.69-6.41-5.69a6.54,6.54,0,0,0-5.74,3.15,178.36,178.36,0,0,1-20.51-18.8,5.9,5.9,0,0,0,5-5.57c0-3.13-2.86-5.69-6.4-5.69a6.52,6.52,0,0,0-5.72,3.13q-3-3.66-5.67-7.37h0a112.12,112.12,0,0,1-9.32-15l-.32-.59a6,6,0,0,0,5.69-5.65c0-3.15-2.88-5.69-6.43-5.69a6.69,6.69,0,0,0-4.78,1.93A147.12,147.12,0,0,0,266,432.49a209.44,209.44,0,0,0-30.07-29.35c-5.21-1.4-8.84-2.23-10.79-2.33,10.56,6,25.5,19.95,36.23,33.43h0a106.36,106.36,0,0,1,9.23,13.4c2.66,4.72,7.15,12.34,12.87,20.95,12,18,29.31,40.38,46.32,49.23a35.22,35.22,0,0,0,8.77,3.3c21.57,4.7,44.28,3.7,62.88-.26C398.7,521.18,374.58,523.87,353.79,520.1Z" />
      <path class="GUNDAN_JAPANESE_SEROW_OUTFIT_JAPANESE_SEROW_OUTFIT_11_cls-2" d="M173,378.74c-2.28-.81-4.1,1.64-5.08,3.43l3.45,2.6c-.83,5.13-4.4,15.29-19.54,19.2-1.64-1.22-3.09-2.34-4.36-3.33-3.14,4.11-1.84,9.39,9,9.19a11.64,11.64,0,0,0,2.88-.41c8.92-2.33,16.16-14.09,18.76-19.82a17,17,0,0,0,.93-2.38C180.09,383.19,176.45,380,173,378.74Z" />
      <path class="GUNDAN_JAPANESE_SEROW_OUTFIT_JAPANESE_SEROW_OUTFIT_11_cls-2" d="M164.45,379.53a15.22,15.22,0,0,0,.22-2.63,16.43,16.43,0,0,0-5.57-12.17h0l-6.38-19.3v0l-2.48-7.47-7.42-22.45-8-20.21-1-3-17.69,8.57L136.72,361a18.8,18.8,0,0,0-9.62,8.61,15.88,15.88,0,0,0-1.77,7.25,15.26,15.26,0,0,0,.44,3.65,129.9,129.9,0,0,1-13.27-1,114,114,0,0,1-25.62-6.06h0q-3.45-1.27-6.83-2.88a50.32,50.32,0,0,1-21.22-19,0,0,0,0,1,0,0h0C52,340.79,50.09,329.36,51,324.13a8.51,8.51,0,0,1,.9-2.73c-2.59-1-6.42-2-8.1-.4-2.17,2.07,2.17,28.07,15.49,43.78a36.13,36.13,0,0,0,10.4,8.68c12.51,6.68,27.75,10.58,40.92,12.14a96.84,96.84,0,0,0,17.74.62h0a19.58,19.58,0,0,0,10.94,7.41h0a21.9,21.9,0,0,0,5.66.74C154.85,394.37,163,387.94,164.45,379.53Z" />
      <path class="GUNDAN_JAPANESE_SEROW_OUTFIT_JAPANESE_SEROW_OUTFIT_11_cls-7" d="M128.36,386.22a16.32,16.32,0,0,1-2.59-5.67,15.26,15.26,0,0,1-.44-3.65,15.88,15.88,0,0,1,1.77-7.25,18.8,18.8,0,0,1,9.62-8.61,21.63,21.63,0,0,1,8.28-1.62,20.85,20.85,0,0,1,14.1,5.3" />
      <path class="GUNDAN_JAPANESE_SEROW_OUTFIT_JAPANESE_SEROW_OUTFIT_11_cls-7" d="M139.32,393.63a19.58,19.58,0,0,1-10.94-7.41" />
      <path class="GUNDAN_JAPANESE_SEROW_OUTFIT_JAPANESE_SEROW_OUTFIT_11_cls-7" d="M159.1,364.73a16.43,16.43,0,0,1,5.57,12.17,15.22,15.22,0,0,1-.22,2.63c-1.44,8.41-9.6,14.84-19.45,14.84a21.9,21.9,0,0,1-5.66-.74" />
      <polyline class="GUNDAN_JAPANESE_SEROW_OUTFIT_JAPANESE_SEROW_OUTFIT_11_cls-7" points="152.72 345.42 159.1 364.72 159.1 364.73" />
      <polyline class="GUNDAN_JAPANESE_SEROW_OUTFIT_JAPANESE_SEROW_OUTFIT_11_cls-7" points="136.72 361.04 116.15 300.79 133.84 292.22 134.85 295.27 142.82 315.48 150.24 337.93 152.72 345.4" />
      <path class="GUNDAN_JAPANESE_SEROW_OUTFIT_JAPANESE_SEROW_OUTFIT_11_cls-7" d="M86.88,373.52a114,114,0,0,0,25.62,6.06,129.9,129.9,0,0,0,13.27,1" />
      <path class="GUNDAN_JAPANESE_SEROW_OUTFIT_JAPANESE_SEROW_OUTFIT_11_cls-7" d="M58.81,351.6a50.32,50.32,0,0,0,21.22,19c2.25,1.07,4.54,2,6.83,2.88" />
      <path class="GUNDAN_JAPANESE_SEROW_OUTFIT_JAPANESE_SEROW_OUTFIT_11_cls-7" d="M116.15,300.79s-4.72-2.4-9-.18c-1,.5-3,1.35-5.62,2.37-4.27,1.65-7.52,8.93-13.35,10.72a108.75,108.75,0,0,1-14.32,3.57,24,24,0,0,1-2.87.27c-2.93,0-6-.19-8.71-.19-4.61,0-8.54.58-10.38,4a8.51,8.51,0,0,0-.9,2.73c-.92,5.23,1,16.66,7.79,27.45" />
      <path class="GUNDAN_JAPANESE_SEROW_OUTFIT_JAPANESE_SEROW_OUTFIT_11_cls-7" d="M51.91,321.4c-2.59-1-6.42-2-8.1-.4-2.17,2.07,2.17,28.07,15.49,43.78a36.13,36.13,0,0,0,10.4,8.68c12.51,6.68,27.75,10.58,40.92,12.14a96.84,96.84,0,0,0,17.74.62h0" />
      <path class="GUNDAN_JAPANESE_SEROW_OUTFIT_JAPANESE_SEROW_OUTFIT_11_cls-7" d="M134.85,295.27l7.28-12.87s38.78,49.63,73.41,71.73c4.58,2.94,9.23,5.64,13.87,8" />
      <path class="GUNDAN_JAPANESE_SEROW_OUTFIT_JAPANESE_SEROW_OUTFIT_11_cls-7" d="M142.82,315.48c6.34,3.32,18.28,11.23,27.42,27.08" />
      <path class="GUNDAN_JAPANESE_SEROW_OUTFIT_JAPANESE_SEROW_OUTFIT_11_cls-7" d="M364.14,320.8l-1.58-4.65s7.49-10.74,6.65-11.6-9.8-5.69-19.35-7.08-26.47,1.39-26.47,1.39-1,.82-3.34,7.23c-.45,1.24-.95,2.68-1.5,4.37-24.66,3.33-76.85,42.78-83.63,49a12.72,12.72,0,0,1-5.51,2.71c-9.47,2.44-26.22-.62-42.37-11.16a83.07,83.07,0,0,0-16.8-8.41,80.91,80.91,0,0,0-20-4.63" />
      <path class="GUNDAN_JAPANESE_SEROW_OUTFIT_JAPANESE_SEROW_OUTFIT_11_cls-7" d="M215.54,354.13c29.19-13.3,90.07-56.66,90.07-56.66l14.44,8.62" />
      <path class="GUNDAN_JAPANESE_SEROW_OUTFIT_JAPANESE_SEROW_OUTFIT_11_cls-7" d="M159.1,364.73A38.12,38.12,0,0,1,181,375.19c3.31,3.33,7.32,7.19,11.24,10.85,7.29,6.8,14.21,12.89,15.55,13.59,1.39.13,2.76.26,4.11.37,4.59.38,9,.64,13.18.81,14.65.6,26,0,28.17-1.18,3-1.61,15.2-14.72,28.09-33.48s45.23-36.82,61.19-38.12" />
      <path class="GUNDAN_JAPANESE_SEROW_OUTFIT_JAPANESE_SEROW_OUTFIT_11_cls-7" d="M152.72,345.4v0c7.62,1.45,29.09,7.2,49.19,28.18" />
      <path class="GUNDAN_JAPANESE_SEROW_OUTFIT_JAPANESE_SEROW_OUTFIT_11_cls-7" d="M368.05,401.89c10.16-4,24.43-17.09,30.22-19.88,1.69-.81,3.19-1.51,4.46-2.14,3.13-1.55,5-2.74,5.34-4.41-1-1.07-16.2-12-19.95-17.39S381.18,333,373.8,326.42c-1.08-5.21-7.25-5.43-7.25-5.43a22.65,22.65,0,0,0-2.41-.19c-5.35-.26-19.48,0-41.36,7-28.41,9-52.31,21.6-77.83,43.41-18.38,9.12-39.54,4.19-39.54,4.19s8,9.55,10.52,12.42" />
      <path class="GUNDAN_JAPANESE_SEROW_OUTFIT_JAPANESE_SEROW_OUTFIT_11_cls-7" d="M421.5,435s-14.35,8.52-27.5,8.52-34.5-9.23-48.68-12.68-28.79,0-28.79,0" />
      <path class="GUNDAN_JAPANESE_SEROW_OUTFIT_JAPANESE_SEROW_OUTFIT_11_cls-7" d="M261.35,434.24c-10.73-13.48-25.67-27.46-36.23-33.43,1.95.1,5.58.93,10.79,2.33,6.85,1.85,16.46,4.65,28.55,8,21.28,5.88,48.85-1.42,58.2-15.75s29.82-29.5,29.82-29.5" />
      <path class="GUNDAN_JAPANESE_SEROW_OUTFIT_JAPANESE_SEROW_OUTFIT_11_cls-7" d="M402.73,379.87s9.33,17,11.5,30.5,4.36,19.37,8.39,21.88,2.74,8.24-1.12,13c2.39,6.39,14,24.74,21.53,36.14,2.58,3.92,4.69,7,5.78,8.55,4.28,5.93,8.3,15.25,8.3,15.25s-20.95,4.87-41.26,11.74a129.13,129.13,0,0,1-14.16,3.86" />
      <path class="GUNDAN_JAPANESE_SEROW_OUTFIT_JAPANESE_SEROW_OUTFIT_11_cls-7" d="M164.45,379.53c.94.72,2.08,1.62,3.42,2.64l3.45,2.6" />
      <path class="GUNDAN_JAPANESE_SEROW_OUTFIT_JAPANESE_SEROW_OUTFIT_11_cls-7" d="M139.32,393.63h0a12.75,12.75,0,0,0,2,2.08c.43.37,2.53,2.15,6.12,4.93,1.27,1,2.72,2.11,4.36,3.33" />
      <path class="GUNDAN_JAPANESE_SEROW_OUTFIT_JAPANESE_SEROW_OUTFIT_11_cls-7" d="M178,389.6c2.3,1.62,4.82,3.35,7.53,5.16,4.46,3,9.44,6.21,14.92,9.54,1.89,1.14,3.83,2.31,5.84,3.48a363.56,363.56,0,0,0,55.05,26.46h0" />
      <path class="GUNDAN_JAPANESE_SEROW_OUTFIT_JAPANESE_SEROW_OUTFIT_11_cls-7" d="M159.25,409.42c2.86,2.05,6.05,4.25,9.53,6.57,6.19,4.13,13.3,8.64,21.23,13.29,24.55,14.37,56.89,30,93.45,39.31" />
      <path class="GUNDAN_JAPANESE_SEROW_OUTFIT_JAPANESE_SEROW_OUTFIT_11_cls-7" d="M171.57,381.69a17.06,17.06,0,0,1-.25,3.08c-.83,5.13-4.4,15.29-19.54,19.2-.86.22-1.75.41-2.67.6" />
      <path class="GUNDAN_JAPANESE_SEROW_OUTFIT_JAPANESE_SEROW_OUTFIT_11_cls-7" d="M167.87,382.17c1-1.79,2.8-4.24,5.08-3.43,3.5,1.23,7.14,4.45,6,8.48a17,17,0,0,1-.93,2.38c-2.6,5.73-9.84,17.49-18.76,19.82a11.64,11.64,0,0,1-2.88.41c-10.79.2-12.09-5.08-9-9.19" />
      <path class="GUNDAN_JAPANESE_SEROW_OUTFIT_JAPANESE_SEROW_OUTFIT_11_cls-7" d="M192.28,386c-1.69,2.2-4,5.18-6.74,8.72" />
      <path class="GUNDAN_JAPANESE_SEROW_OUTFIT_JAPANESE_SEROW_OUTFIT_11_cls-7" d="M69.74,517.82l1.53-1.18c2.1-1.06,5.92-4,10-7.32,4.45-3.7,9.2-7.92,12.3-10.72,2.09-1.88,3.43-3.13,3.43-3.13,17-12.66,48.89-50.83,71.83-79.48" />
      <path class="GUNDAN_JAPANESE_SEROW_OUTFIT_JAPANESE_SEROW_OUTFIT_11_cls-7" d="M93.45,517.82c9.66-5.48,18.33-11.45,18.33-11.45,23.07-10.43,55.68-48.25,78.23-77.09" />
      <path class="GUNDAN_JAPANESE_SEROW_OUTFIT_JAPANESE_SEROW_OUTFIT_11_cls-7" d="M211.94,400c-1.5,2.1-3.4,4.73-5.64,7.78" />
      <path class="GUNDAN_JAPANESE_SEROW_OUTFIT_JAPANESE_SEROW_OUTFIT_11_cls-7" d="M101.54,303s.89,20.64,6.38,37.54c4.4,13.56,15.14,25.12,19.18,29.13" />
      <path class="GUNDAN_JAPANESE_SEROW_OUTFIT_JAPANESE_SEROW_OUTFIT_11_cls-7" d="M88.19,313.7a73,73,0,0,0,7,37.85,157.67,157.67,0,0,0,17.32,28" />
      <path class="GUNDAN_JAPANESE_SEROW_OUTFIT_JAPANESE_SEROW_OUTFIT_11_cls-7" d="M86.88,373.52h0c-12.2-15.71-13.16-44.36-13-56.24" />
      <path class="GUNDAN_JAPANESE_SEROW_OUTFIT_JAPANESE_SEROW_OUTFIT_11_cls-7" d="M62.29,317.35c-2.22,7.17-5.66,21.27-3.49,34.23h0a0,0,0,0,0,0,0" />
      <path class="GUNDAN_JAPANESE_SEROW_OUTFIT_JAPANESE_SEROW_OUTFIT_11_cls-7" d="M106.47,415.56s-8.55-18.48-6.61-9.87S107.44,431,107.44,431l-4.24,12.25-.6,1.77-1,2.05" />
      <polyline class="GUNDAN_JAPANESE_SEROW_OUTFIT_JAPANESE_SEROW_OUTFIT_11_cls-7" points="55.35 377.03 55.48 376.64 59.3 364.78" />
      <path class="GUNDAN_JAPANESE_SEROW_OUTFIT_JAPANESE_SEROW_OUTFIT_11_cls-7" d="M33.53,429.23c-4.61,5.52-6.92,12.54-5.87,19.24" />
      <path class="GUNDAN_JAPANESE_SEROW_OUTFIT_JAPANESE_SEROW_OUTFIT_11_cls-7" d="M36.13,380.45c3.21-10.37,6.66-19.83,10.1-26.4a186.27,186.27,0,0,0,5.14,22.68c.3,1.14.62,2.26.94,3.35,1.11,3.83,2.18,7.38,3.08,10.4,1.4,4.73,2.36,8.21,2.33,9.54a17.51,17.51,0,0,0-12.32,5.52c-3.65,4-5,9.81-1.73,16a28.74,28.74,0,0,0-10.1,7.69" />
      <path class="GUNDAN_JAPANESE_SEROW_OUTFIT_JAPANESE_SEROW_OUTFIT_11_cls-7" d="M20.31,444.52c1.67-8.25,8-38.87,15.82-64.06" />
      <path class="GUNDAN_JAPANESE_SEROW_OUTFIT_JAPANESE_SEROW_OUTFIT_11_cls-7" d="M39.55,458l.69-2.5s.86-2.39,2.42-6.13a180.86,180.86,0,0,1,8-16.59c1.13-2,2.35-4.13,3.62-6.18a34.63,34.63,0,0,1,5-6.16c9.9-9.94,25-15.54,25-15.54l-3-19.4c-7.36-7.39-18.78-8.78-25.75-8.85-1.66,0-3.07,0-4.11.09" />
      <path class="GUNDAN_JAPANESE_SEROW_OUTFIT_JAPANESE_SEROW_OUTFIT_11_cls-7" d="M52.31,380.08c5.4.33,17.88,1.69,24.33,7.19C78.42,398.6,79,400.88,79,400.88s-4.2,2.31-9.56,5.89a100.12,100.12,0,0,0-15.93,12.77,38.91,38.91,0,0,0-2.87,3.33c-7,9.16-12.33,25.38-13.88,30.44" />
      <path class="GUNDAN_JAPANESE_SEROW_OUTFIT_JAPANESE_SEROW_OUTFIT_11_cls-7" d="M33.53,429.23h0s0,0,0,0c4-1.52,10.71-5.64,16.61-11.08a45.72,45.72,0,0,0,9-11,33.64,33.64,0,0,0,3.73-15.74,38.71,38.71,0,0,0-.64-7.67l-6.84,6.78" />
      <path class="GUNDAN_JAPANESE_SEROW_OUTFIT_JAPANESE_SEROW_OUTFIT_11_cls-7" d="M62.87,391.37l7.32-4.31s3.78,9.76-.78,19.71" />
      <path class="GUNDAN_JAPANESE_SEROW_OUTFIT_JAPANESE_SEROW_OUTFIT_11_cls-7" d="M45.4,405.54a42.78,42.78,0,0,0-9.27-25.08h0" />
      <path class="GUNDAN_JAPANESE_SEROW_OUTFIT_JAPANESE_SEROW_OUTFIT_11_cls-7" d="M4.89,483.84l-.81-58.93L3.93,413.7c13.81,7.58,16.29,29.9,16.38,30.82v0l7.35,3.92,9.07,4.84.85.45s.53,1.31,2,4.23c1.22,2.49,3.09,6.14,5.85,11.14a38.67,38.67,0,0,0-7.57,11.13,112,112,0,0,0-7,19.59c-1,3.91-1.56,6.52-1.56,6.52H25.45" />
      <path class="GUNDAN_JAPANESE_SEROW_OUTFIT_JAPANESE_SEROW_OUTFIT_11_cls-7" d="M24.66,517.82l.11-4.66a60.51,60.51,0,0,1,.68-6.79c3.08-20.39,15.22-37.14,15.22-37.14L35.05,457.1s-1.73-1.21-6.54-3.86c-2.51-1.38-5.87-3.16-10.27-5.38-.21-.89-.44-1.77-.71-2.63A44.58,44.58,0,0,0,4.08,424.91" />
      <path class="GUNDAN_JAPANESE_SEROW_OUTFIT_JAPANESE_SEROW_OUTFIT_11_cls-7" d="M320.12,320.74s14.38-13.82,25.27-15.43,23.82-.76,23.82-.76" />
      <path class="GUNDAN_JAPANESE_SEROW_OUTFIT_JAPANESE_SEROW_OUTFIT_11_cls-7" d="M235.91,403.14A209.44,209.44,0,0,1,266,432.49a147.12,147.12,0,0,1,9.25,12.45" />
      <path class="GUNDAN_JAPANESE_SEROW_OUTFIT_JAPANESE_SEROW_OUTFIT_11_cls-7" d="M266,432.49s34.43,5.49,59.42,16.2,61,13.7,78.52,0c-12.41,15-22.9,19.58-22.9,19.58" />
      <path class="GUNDAN_JAPANESE_SEROW_OUTFIT_JAPANESE_SEROW_OUTFIT_11_cls-7" d="M83.2,425.92h0l-.1.12a2.72,2.72,0,0,0-.16.35,1.72,1.72,0,0,0,.91,2.17l3.5,1.82L79.1,442.9l-4.19-2.18a2.19,2.19,0,0,0-1.28-.23" />
      <path class="GUNDAN_JAPANESE_SEROW_OUTFIT_JAPANESE_SEROW_OUTFIT_11_cls-7" d="M71.79,442.53a1.84,1.84,0,0,0,1,1.38l6,3.11a2.22,2.22,0,0,0,2.84-.67l8.94-13.58,1.4-2.12a1.73,1.73,0,0,0-.75-2.52l-5.29-2.75a2.22,2.22,0,0,0-2.72.52" />
      <path class="GUNDAN_JAPANESE_SEROW_OUTFIT_JAPANESE_SEROW_OUTFIT_11_cls-7" d="M75.42,430.47l3.31-5,.81-1.24a2.22,2.22,0,0,1,2.84-.65,1.71,1.71,0,0,1,.83,2.35s0,0,0,0l-.07.15-.21.32L79,432.33" />
      <path class="GUNDAN_JAPANESE_SEROW_OUTFIT_JAPANESE_SEROW_OUTFIT_11_cls-7" d="M73.33,433.65l-1-.54a1.73,1.73,0,0,1-.74-2.52,2.21,2.21,0,0,1,2.83-.66l1,.54L79,432.33l2.31,1.2a1.72,1.72,0,0,1,.75,2.52,2.24,2.24,0,0,1-2.84.66l-2.31-1.2Z" />
      <path class="GUNDAN_JAPANESE_SEROW_OUTFIT_JAPANESE_SEROW_OUTFIT_11_cls-7" d="M59.26,420.43s7.86-.65,19.47,5" />
      <path class="GUNDAN_JAPANESE_SEROW_OUTFIT_JAPANESE_SEROW_OUTFIT_11_cls-7" d="M92.83,398.45C94,412.84,107.44,431,107.44,431s3.06-22.29,3.06-28.83V386.39" />
      <path class="GUNDAN_JAPANESE_SEROW_OUTFIT_JAPANESE_SEROW_OUTFIT_11_cls-7" d="M117.75,395.87S115,421.94,107.44,431" />
      <path class="GUNDAN_JAPANESE_SEROW_OUTFIT_JAPANESE_SEROW_OUTFIT_11_cls-7" d="M89.05,472.13s20.48-6.31,29-14.1,14.67-25.7,14.67-25.7" />
      <path class="GUNDAN_JAPANESE_SEROW_OUTFIT_JAPANESE_SEROW_OUTFIT_11_cls-7" d="M121.42,349.52c-7.73-10.24-9.8-25.89-9.83-26a2,2,0,0,0-2.3-1.63,1.9,1.9,0,0,0-1.82,2c.08.68,2.21,16.7,10.49,27.69a2.19,2.19,0,0,0,1.73.81,2.29,2.29,0,0,0,1.16-.31A1.74,1.74,0,0,0,121.42,349.52Z" />
      <path class="GUNDAN_JAPANESE_SEROW_OUTFIT_JAPANESE_SEROW_OUTFIT_11_cls-7" d="M95.47,330.24A2.07,2.07,0,0,0,93,328.8,1.85,1.85,0,0,0,91.4,331c.15.64,3.61,15.67,8.72,22.08a2.18,2.18,0,0,0,1.7.79,2.32,2.32,0,0,0,1.21-.35,1.73,1.73,0,0,0,.48-2.57C98.9,345.15,95.51,330.38,95.47,330.24Z" />
      <path class="GUNDAN_JAPANESE_SEROW_OUTFIT_JAPANESE_SEROW_OUTFIT_11_cls-7" d="M81.29,335.14A2.06,2.06,0,0,0,79,333.53a1.9,1.9,0,0,0-1.81,2.05c.07.56,1.86,13.56,5.22,19.31a2.21,2.21,0,0,0,2.79.79,1.73,1.73,0,0,0,.89-2.48C83,348,81.3,335.28,81.29,335.14Z" />
      <path class="GUNDAN_JAPANESE_SEROW_OUTFIT_JAPANESE_SEROW_OUTFIT_11_cls-7" d="M65.73,335.88A2,2,0,0,0,63.67,334h0a2,2,0,0,0-2.08,1.83c0,1.07,0,10.54,1.07,13.92a2.06,2.06,0,0,0,2,1.34,2.37,2.37,0,0,0,.57-.08,1.82,1.82,0,0,0,1.42-2.28C65.84,346.31,65.72,338.63,65.73,335.88Z" />
      <g class="GUNDAN_JAPANESE_SEROW_OUTFIT_JAPANESE_SEROW_OUTFIT_11_cls-8">
        <path d="M142.46,282.77s23.22,42.53,33.54,52.7c22.57,11.74,30.34,24,53.41,26.66-15,2.94-38.54-5.22-50.67-7,20.88,8.8,54.43,21.92,76.83,6.82,21.92-18.85,38.7-27.28,58.34-31.08-28.85,16.72-47.31,40.45-60.85,52.87s-44.49,10.51-44.49,10.51,30,5.15,47.76-6.36,22.93-18.65,22.93-18.65-20.3,28.89-26,30.43-37.93,1.19-45.77-.2c-12-10.43-18.84-16.61-24.94-22.71s-16.36-11.59-23.48-12c-11.8,0-21,10.9-16.89,17.42S159,388.79,163,383.89c-3.72,6-7.71,7.88-7.71,7.88l7.86,6.14s-6.81,6.15-12,6.06c-9-7.55-11.83-10.54-11.83-10.54s-8-.77-12.92-10.8c-14.65,1-53.28-4-71.66-29.26l-8.08-12.53s-5.23-19.35-2.23-20.27,7.35.63,7.35.63,2.05-4.58,11.73-3.85,16.94-.79,30.11-5.5,14.71-12.69,18.28-12.16,5.44.7,5.44.7l16.56-7.95,1.1,2.61Z" />
        <path d="M117.75,395.87s3.74,23.9,0,35.17c7.14-10.54,9.35-28.48,9.35-28.48s6.21,24.05-1.33,35.6a201.16,201.16,0,0,1-16.36,21.43s9.56-4.63,12.82-7.36,10.52-18.58,10.52-18.58-4.59,22-10.64,30A183.8,183.8,0,0,1,110,478.11l13.27-8.2s-3,15.36-12.79,23.41-14.75,10.75-14.75,10.75,22.13-6.13,40.75-27.29S181.27,424,181.27,424l12.84,7.63s-6.6,18.18-26,37.84a327.07,327.07,0,0,1-36.93,32.31s29.62-14.05,53.44-30.59c-7,9.88-47.18,41.12-47.18,41.12s71.65-38.86,98.47-59.92C205.66,487.85,174,517.82,174,517.82H77.86s20.18-19.57,27.07-28.1c-10.63,8-11,8.47-11,8.47l.42-4.24A55,55,0,0,1,87,480.29l2.65-9.94s12.56-9.89,11.59-22.35c5.2-13.11,5.08-17.4,5.08-17.4l-5.54-10.2s-12.2,24.14-16.51,31.83-22.45,19.83-26.92,29.6l-2.78,6.7s2.66-36.25,6.17-45.85c-11.61,25.62-24.59,52.4-26.08,57.91s11-32,11-32,7.34-23.92,18.14-39.5S80.7,408.83,80.7,408.83l12.75-6.31s-2.91-12.48-1-18.79c4,17.11,9.84,28,10.72,30.73-2-19.74,1.73-20.92,3.13-15.12s1.12,16.22,1.12,16.22S116.89,415,117.75,395.87Z" />
        <path d="M235.16,402.94l11.4,15s11.82,10.16,27,32.45,21.22,42.68,57.36,59.19,78.78,9,92.91,4.8c-21-6.76-63.1-12.9-75.49-24.15,33.72,5.79,58,7.53,76.91-6.44-47.38,2.78-51.74,1.19-82.37-17.93S300,440,300,440s-15.47-17-31.43-24S235.16,402.94,235.16,402.94Z" />
        <path d="M273.22,411.92s18.54-6.28,32.4-12.87,29.34-35.94,46.75-45.54,33.05,4,33.05,4-18.7-3.87-34,8.74A184.53,184.53,0,0,0,321.54,397c-6.25,7.9-21.93,18.29-34.54,20.17,10.08-2.24,25.88-17.64,25.88-17.64S288.69,413.9,273.22,411.92Z" />
        <path d="M391.7,386.35S381.51,398.77,356,406.79a170.18,170.18,0,0,0-42.71,20.09s36-13.36,50.23-13.65S410,395.66,410,395.66s-4.29-12-7.25-15.79A103.59,103.59,0,0,0,391.7,386.35Z" />
      </g>
    </g>
  </g>
</svg>