<svg xmlns="http://www.w3.org/2000/svg" viewBox="0 0 432 432">
  <defs>
    <style>.BUNTAI_RED_PANDA_JEWELRY_BUNTAI_RED_PANDA_JEWELRY_10_cls-1{isolation:isolate;}.BUNTAI_RED_PANDA_JEWELRY_BUNTAI_RED_PANDA_JEWELRY_10_cls-2{fill:#c7a858;}.BUNTAI_RED_PANDA_JEWELRY_BUNTAI_RED_PANDA_JEWELRY_10_cls-3{fill:#fff;}.BUNTAI_RED_PANDA_JEWELRY_BUNTAI_RED_PANDA_JEWELRY_10_cls-4,.BUNTAI_RED_PANDA_JEWELRY_BUNTAI_RED_PANDA_JEWELRY_10_cls-7,.BUNTAI_RED_PANDA_JEWELRY_BUNTAI_RED_PANDA_JEWELRY_10_cls-9{fill:none;stroke-linecap:round;stroke-linejoin:round;}.BUNTAI_RED_PANDA_JEWELRY_BUNTAI_RED_PANDA_JEWELRY_10_cls-4,.BUNTAI_RED_PANDA_JEWELRY_BUNTAI_RED_PANDA_JEWELRY_10_cls-5,.BUNTAI_RED_PANDA_JEWELRY_BUNTAI_RED_PANDA_JEWELRY_10_cls-7,.BUNTAI_RED_PANDA_JEWELRY_BUNTAI_RED_PANDA_JEWELRY_10_cls-9{stroke:#000;}.BUNTAI_RED_PANDA_JEWELRY_BUNTAI_RED_PANDA_JEWELRY_10_cls-4,.BUNTAI_RED_PANDA_JEWELRY_BUNTAI_RED_PANDA_JEWELRY_10_cls-5{stroke-width:0.78px;}.BUNTAI_RED_PANDA_JEWELRY_BUNTAI_RED_PANDA_JEWELRY_10_cls-5{fill:#754c24;stroke-miterlimit:10;}.BUNTAI_RED_PANDA_JEWELRY_BUNTAI_RED_PANDA_JEWELRY_10_cls-6{fill:#333;}.BUNTAI_RED_PANDA_JEWELRY_BUNTAI_RED_PANDA_JEWELRY_10_cls-7{stroke-width:1.06px;}.BUNTAI_RED_PANDA_JEWELRY_BUNTAI_RED_PANDA_JEWELRY_10_cls-8{fill:#10b3c7;}.BUNTAI_RED_PANDA_JEWELRY_BUNTAI_RED_PANDA_JEWELRY_10_cls-9{stroke-width:1.2px;}.BUNTAI_RED_PANDA_JEWELRY_BUNTAI_RED_PANDA_JEWELRY_10_cls-10{opacity:0.43;mix-blend-mode:multiply;}</style>
  </defs>
  <g class="BUNTAI_RED_PANDA_JEWELRY_BUNTAI_RED_PANDA_JEWELRY_10_cls-1">
    <g id="jewelry">
      <path class="BUNTAI_RED_PANDA_JEWELRY_BUNTAI_RED_PANDA_JEWELRY_10_cls-2" d="M242.16,418.61a13.46,13.46,0,0,0-8.43-12.48,13.28,13.28,0,0,0-5-1,13.45,13.45,0,0,0-4,26.3,13.61,13.61,0,0,0,4,.61A13.46,13.46,0,0,0,242.16,418.61Zm-13.45-15a15,15,0,1,1-15,15A15,15,0,0,1,228.71,403.58Z" />
      <path class="BUNTAI_RED_PANDA_JEWELRY_BUNTAI_RED_PANDA_JEWELRY_10_cls-3" d="M233.73,406.13a13.46,13.46,0,0,1-5,25.94,13.61,13.61,0,0,1-4-.61c-4.83-6.9,2.77-10.9,8.08-14.44S233.73,406.13,233.73,406.13Zm-2.61,20.42a2.42,2.42,0,1,0-2.41,2.41A2.4,2.4,0,0,0,231.12,426.55Z" />
      <path d="M233.73,406.13s4.36,7.35-.95,10.89-12.91,7.54-8.08,14.44a13.45,13.45,0,0,1,4-26.3A13.28,13.28,0,0,1,233.73,406.13Zm-2.61,6.25a2.42,2.42,0,1,0-2.41,2.42A2.41,2.41,0,0,0,231.12,412.38Z" />
      <path class="BUNTAI_RED_PANDA_JEWELRY_BUNTAI_RED_PANDA_JEWELRY_10_cls-4" d="M233.73,406.13a13.46,13.46,0,0,1-5,25.94,13.61,13.61,0,0,1-4-.61,13.45,13.45,0,0,1,4-26.3A13.28,13.28,0,0,1,233.73,406.13Z" />
      <path class="BUNTAI_RED_PANDA_JEWELRY_BUNTAI_RED_PANDA_JEWELRY_10_cls-4" d="M231.12,412.38a2.42,2.42,0,1,1-2.41-2.41A2.42,2.42,0,0,1,231.12,412.38Z" />
      <path class="BUNTAI_RED_PANDA_JEWELRY_BUNTAI_RED_PANDA_JEWELRY_10_cls-4" d="M231.12,426.55a2.42,2.42,0,1,1-2.41-2.41A2.41,2.41,0,0,1,231.12,426.55Z" />
      <path class="BUNTAI_RED_PANDA_JEWELRY_BUNTAI_RED_PANDA_JEWELRY_10_cls-4" d="M243.73,418.61a15,15,0,1,1-15-15A15,15,0,0,1,243.73,418.61Z" />
      <path class="BUNTAI_RED_PANDA_JEWELRY_BUNTAI_RED_PANDA_JEWELRY_10_cls-4" d="M233.73,406.13s4.36,7.35-.95,10.89-12.91,7.54-8.08,14.44" />
      <path class="BUNTAI_RED_PANDA_JEWELRY_BUNTAI_RED_PANDA_JEWELRY_10_cls-5" d="M291.55,334.8a2.83,2.83,0,0,0-.69-.55,3,3,0,0,0-3-.06l-.58.36L290,336.3c-7.64,17.51-26.53,49.77-57.91,61.72H232c-.49.2-1,.39-1.49.57,0,0,0,0,0,0l-.1,0h0l-.93.33-1.17-.29-1.68-.46c-31.95-8.94-48.1-31.86-56-49.81a113.4,113.4,0,0,1-4.8-12.89c.73-.54,1-.76,1.68-1.27-4.57-1.79-4.24,1.58-3.82,2.67a118.64,118.64,0,0,0,4.66,12.41c8.18,18.49,24.78,42.08,57.72,51.27l.3.09h0l1.28.34h.12l1.49.37a1.55,1.55,0,0,0,.29,0,1.41,1.41,0,0,0,.41-.07c.36-.13.73-.26,1.08-.4h0l1.72-.64,0,0h0c31.52-12,51.1-44.49,59.09-62.5l.17-.39A3.26,3.26,0,0,0,291.55,334.8Z" />
      <path class="BUNTAI_RED_PANDA_JEWELRY_BUNTAI_RED_PANDA_JEWELRY_10_cls-6" d="M226.71,398.12l1.66.45s1.73-1,2.44.4.37,2.34-.55,2.77-2.28.06-2.54-.69a3.49,3.49,0,0,0-1.6-.36s.67,2.56,2.88,2.79a3.27,3.27,0,0,0,3.8-3,3.17,3.17,0,0,0-1.79-3.31A3.36,3.36,0,0,0,226.71,398.12Z" />
      <path class="BUNTAI_RED_PANDA_JEWELRY_BUNTAI_RED_PANDA_JEWELRY_10_cls-4" d="M226,400.6a3.36,3.36,0,0,0,3,3l.34,0a3.36,3.36,0,0,0,2.26-.87,3.29,3.29,0,0,0,1.12-2.35.55.55,0,0,0,0-.18,3.39,3.39,0,0,0-3.4-3.39,3.35,3.35,0,0,0-2.76,1.43l1.68.45a1.81,1.81,0,0,1,1.08-.35,1.78,1.78,0,0,1,1,.31,1.86,1.86,0,0,1,.84,1.55,1.82,1.82,0,0,1-.21.83,1.84,1.84,0,0,1-3.28.05h0Z" />
      <line class="BUNTAI_RED_PANDA_JEWELRY_BUNTAI_RED_PANDA_JEWELRY_10_cls-7" x1="321.79" y1="212.28" x2="321.79" y2="218.49" />
      <path class="BUNTAI_RED_PANDA_JEWELRY_BUNTAI_RED_PANDA_JEWELRY_10_cls-2" d="M321.8,212.28c1.68,0,1.4-2.29,1.4-2.29h0a4.57,4.57,0,0,1-2.06.44,1.85,1.85,0,0,1-.92-.23C320.21,210.33,320.18,212.28,321.8,212.28Z" />
      <path class="BUNTAI_RED_PANDA_JEWELRY_BUNTAI_RED_PANDA_JEWELRY_10_cls-2" d="M318.91,203.25c-.61,2.05-.48,6,1.31,6.94a1.85,1.85,0,0,0,.92.23,4.57,4.57,0,0,0,2.06-.44c1.54-.74,2.32-2.48,2.21-5.13a8.48,8.48,0,0,0-.47-2.58,5.55,5.55,0,0,0-1.5-2.32,1.9,1.9,0,0,0-1.37-.57,2.31,2.31,0,0,0-1.67,1,3.59,3.59,0,0,0,.74.14h0a4.27,4.27,0,0,1,1.88,2.9c.47,2.24-.31,4.77-1.45,4.77s-1.28-2.93-1.2-4.49h-.09A5.69,5.69,0,0,1,318.91,203.25Z" />
      <path class="BUNTAI_RED_PANDA_JEWELRY_BUNTAI_RED_PANDA_JEWELRY_10_cls-2" d="M323.91,192.3c-.4,2.06-.6,2.84-.6,2.84s2.05,1.78.87,4a2.36,2.36,0,0,1-.74.83,5.55,5.55,0,0,1,1.5,2.32A6,6,0,0,0,323.91,192.3Z" />
      <path class="BUNTAI_RED_PANDA_JEWELRY_BUNTAI_RED_PANDA_JEWELRY_10_cls-2" d="M316.22,199.63a4.88,4.88,0,0,0,2.69,3.62,5.33,5.33,0,0,0,1.4.42l.1,0a5.24,5.24,0,0,0,2.65-.28,4.24,4.24,0,0,0-1.88-2.9h0a3,3,0,0,1-.74-.14,2.18,2.18,0,0,1-1.56-1.36,1.81,1.81,0,0,1-.09-.58c0-2.38.94-2.5.94-2.5s.05-.12.11-.32a3.07,3.07,0,0,0-2.38-2A8.16,8.16,0,0,0,316.22,199.63Z" />
      <path class="BUNTAI_RED_PANDA_JEWELRY_BUNTAI_RED_PANDA_JEWELRY_10_cls-7" d="M324.94,202.27a6,6,0,0,0-1-10c-.42,1.7-.6,2.84-.6,2.84s2.05,1.78.87,4a2.36,2.36,0,0,1-.74.83" />
      <path class="BUNTAI_RED_PANDA_JEWELRY_BUNTAI_RED_PANDA_JEWELRY_10_cls-7" d="M317.42,193.59a8.16,8.16,0,0,0-1.2,6,4.88,4.88,0,0,0,2.69,3.62,5.33,5.33,0,0,0,1.4.42l.1,0a5.24,5.24,0,0,0,2.65-.28" />
      <path class="BUNTAI_RED_PANDA_JEWELRY_BUNTAI_RED_PANDA_JEWELRY_10_cls-7" d="M321.14,200.5a3,3,0,0,1-.74-.14,2.18,2.18,0,0,1-1.56-1.36,1.81,1.81,0,0,1-.09-.58c0-2.38.94-2.5.94-2.5s.05-.12.11-.32" />
      <path class="BUNTAI_RED_PANDA_JEWELRY_BUNTAI_RED_PANDA_JEWELRY_10_cls-7" d="M318.91,203.25c-.61,2.05-.48,6,1.31,6.94a1.85,1.85,0,0,0,.92.23,4.57,4.57,0,0,0,2.06-.44c1.54-.74,2.32-2.48,2.21-5.13a8.48,8.48,0,0,0-.47-2.58,5.55,5.55,0,0,0-1.5-2.32,1.9,1.9,0,0,0-1.37-.57,2.31,2.31,0,0,0-1.67,1" />
      <path class="BUNTAI_RED_PANDA_JEWELRY_BUNTAI_RED_PANDA_JEWELRY_10_cls-7" d="M320.41,203.69c-.08,1.56-.06,4.49,1.2,4.49s1.92-2.53,1.45-4.77a4.27,4.27,0,0,0-1.88-2.9h0" />
      <path class="BUNTAI_RED_PANDA_JEWELRY_BUNTAI_RED_PANDA_JEWELRY_10_cls-7" d="M323.2,210s.28,2.29-1.4,2.29-1.59-1.95-1.58-2.09h0" />
      <path class="BUNTAI_RED_PANDA_JEWELRY_BUNTAI_RED_PANDA_JEWELRY_10_cls-7" d="M319.62,198.05a3,3,0,0,0,.35-1.43,3.16,3.16,0,0,0-.17-1,3.07,3.07,0,0,0-2.38-2,3,3,0,0,0-.53,0,2.09,2.09,0,0,0-2.08,1.54" />
      <path class="BUNTAI_RED_PANDA_JEWELRY_BUNTAI_RED_PANDA_JEWELRY_10_cls-2" d="M329.38,229a7.83,7.83,0,1,0-7.83,7.83A7.84,7.84,0,0,0,329.38,229Zm-7.83-10.3h.12A10.3,10.3,0,0,1,331.85,229a10.45,10.45,0,0,1-1.4,5.2,10.42,10.42,0,0,1-5,4.35,10.13,10.13,0,0,1-3.86.75h0a10.22,10.22,0,0,1-3-.46,10.25,10.25,0,0,1-5.52-4.12,10,10,0,0,1-1.48-3.48,9.74,9.74,0,0,1-.25-2.24A10.3,10.3,0,0,1,321.55,218.66Z" />
      <path class="BUNTAI_RED_PANDA_JEWELRY_BUNTAI_RED_PANDA_JEWELRY_10_cls-8" d="M300.23,240.66a10.5,10.5,0,0,0-.79,3.36,35.94,35.94,0,0,1,7.69-9.53h0l.78-.66c-.23,0-.47.06-.69.11a10.18,10.18,0,0,0-4.79,2.32l1.91-.49A10.86,10.86,0,0,0,300.23,240.66Z" />
      <path class="BUNTAI_RED_PANDA_JEWELRY_BUNTAI_RED_PANDA_JEWELRY_10_cls-8" d="M299.44,244h0q0,.43,0,.87a38.94,38.94,0,0,0,3.83-3.1l.17.16a13.9,13.9,0,0,1,2.26-2h0a28,28,0,0,0,1.45-5.46A35.94,35.94,0,0,0,299.44,244Z" />
      <path class="BUNTAI_RED_PANDA_JEWELRY_BUNTAI_RED_PANDA_JEWELRY_10_cls-8" d="M300.63,249.07a24.27,24.27,0,0,0,.26,5.9c.26-.25.52-.49.79-.72a36.85,36.85,0,0,1,7.87-16V238a14.34,14.34,0,0,0-3.87,1.94h0a13.9,13.9,0,0,0-2.26,2l1.64.11a5.2,5.2,0,0,0-3.33,2.72A10.71,10.71,0,0,0,300.63,249.07Z" />
      <path class="BUNTAI_RED_PANDA_JEWELRY_BUNTAI_RED_PANDA_JEWELRY_10_cls-8" d="M309.55,238.23a36.85,36.85,0,0,0-7.87,16c.92-.79,1.92-1.5,2.86-2.28.34-.28.67-.57,1-.89.05-.59.13-1.17.23-1.75a6.43,6.43,0,0,1,3-4.39l-1.47-.05a11.58,11.58,0,0,1,2.26-2.53Z" />
      <path class="BUNTAI_RED_PANDA_JEWELRY_BUNTAI_RED_PANDA_JEWELRY_10_cls-8" d="M305.53,251.08a24,24,0,0,0,.45,7.55,46.15,46.15,0,0,1,7.21-18.36h0a12.09,12.09,0,0,0-3.6,2.11,11.58,11.58,0,0,0-2.26,2.53l1.47.05a6.43,6.43,0,0,0-3,4.39C305.66,249.91,305.58,250.49,305.53,251.08Z" />
      <path class="BUNTAI_RED_PANDA_JEWELRY_BUNTAI_RED_PANDA_JEWELRY_10_cls-8" d="M306,258.63h0c.17.79.38,1.57.62,2.34A27.11,27.11,0,0,1,311,255.1a8,8,0,0,1,1-3,22.65,22.65,0,0,1,2.51-3.64c-.45.07-.83.16-1.24.24-.18,0-.36.07-.55.09.23-.43.47-.86.72-1.28a23.88,23.88,0,0,0-.2-7.21A46.15,46.15,0,0,0,306,258.63Z" />
      <path class="BUNTAI_RED_PANDA_JEWELRY_BUNTAI_RED_PANDA_JEWELRY_10_cls-8" d="M313.39,247.48c-.25.42-.49.85-.72,1.28.19,0,.37-.06.55-.09.41-.08.79-.17,1.24-.24a22.65,22.65,0,0,0-2.51,3.64,8,8,0,0,0-1,3c-.4,3.36,1.08,7.09,3.13,10.17a71.38,71.38,0,0,1,3.12-22.72.3.3,0,0,1,0-.1A28.16,28.16,0,0,0,313.39,247.48Z" />
      <path class="BUNTAI_RED_PANDA_JEWELRY_BUNTAI_RED_PANDA_JEWELRY_10_cls-8" d="M317,258.35a35.69,35.69,0,0,0,1-10.25,2.55,2.55,0,0,1,.35.14,14.8,14.8,0,0,1,.4-2.32c-.28-.64-.6-1.25-.9-1.88a10.82,10.82,0,0,1-.61-1.49,71.38,71.38,0,0,0-3.12,22.72c.3.44.6.87.91,1.28C315.3,263.83,316.35,261.11,317,258.35Z" />
      <path class="BUNTAI_RED_PANDA_JEWELRY_BUNTAI_RED_PANDA_JEWELRY_10_cls-8" d="M318.34,248.24c-.11,1.2-.12,2.43-.11,3.63a5.2,5.2,0,0,1,2.71.06,10.41,10.41,0,0,0-2.2,2,32.11,32.11,0,0,0,3.18,13.5,14.26,14.26,0,0,0,2.93-5.71,28.79,28.79,0,0,0,.35-8.7c-.52-.62-1.14-1.32-1.67-1.93.57-.29,1-.56,1.59-.84,0-.58,0-1.17,0-1.77a6.44,6.44,0,0,0-.15-1.82,2.88,2.88,0,0,0-.33-.79,27,27,0,0,0-3-4c-.09-.1-.18-.21-.28-.31a8.27,8.27,0,0,0-1.84,2.36,9.23,9.23,0,0,0-.77,2A14.8,14.8,0,0,0,318.34,248.24Z" />
      <path class="BUNTAI_RED_PANDA_JEWELRY_BUNTAI_RED_PANDA_JEWELRY_10_cls-8" d="M329.91,265.24a71.44,71.44,0,0,0-3.12-22.69,14.08,14.08,0,0,1-.61,1.49,26.54,26.54,0,0,0-1.19,2.61,6.44,6.44,0,0,1,.15,1.82c.3-.13.6-.27.88-.37a35.35,35.35,0,0,0,1,10.25c.67,2.76,1.72,5.48,2,8.2.32-.41.63-.84.91-1.28h0Z" />
      <path class="BUNTAI_RED_PANDA_JEWELRY_BUNTAI_RED_PANDA_JEWELRY_10_cls-8" d="M326.79,242.55a71.44,71.44,0,0,1,3.12,22.69c2.06-3.08,3.53-6.79,3.13-10.14a8.13,8.13,0,0,0-1-3,24.07,24.07,0,0,0-2.52-3.64c.64.09,1.15.25,1.79.33-.23-.43-.47-.86-.72-1.28a28.69,28.69,0,0,0-3.81-5Z" />
      <path class="BUNTAI_RED_PANDA_JEWELRY_BUNTAI_RED_PANDA_JEWELRY_10_cls-8" d="M330.83,240.27a23.88,23.88,0,0,0-.2,7.21c.25.42.49.85.72,1.28-.64-.08-1.15-.24-1.79-.33a24.07,24.07,0,0,1,2.52,3.64,8.13,8.13,0,0,1,1,3,27,27,0,0,1,4.37,5.88,24,24,0,0,0,.63-2.35A46.3,46.3,0,0,0,330.83,240.27Z" />
      <path class="BUNTAI_RED_PANDA_JEWELRY_BUNTAI_RED_PANDA_JEWELRY_10_cls-8" d="M330.83,240.27A46.3,46.3,0,0,1,338,258.63a24.26,24.26,0,0,0,.45-7.55c-.06-.59-.13-1.17-.24-1.75a6.45,6.45,0,0,0-3-4.39l1.47-.05a11.84,11.84,0,0,0-2.26-2.53,12.14,12.14,0,0,0-3.61-2.11h0A0,0,0,0,0,330.83,240.27Z" />
      <path class="BUNTAI_RED_PANDA_JEWELRY_BUNTAI_RED_PANDA_JEWELRY_10_cls-8" d="M335.23,244.94a6.45,6.45,0,0,1,3,4.39c.11.58.18,1.16.24,1.75.32.32.65.61,1,.89.94.78,1.94,1.49,2.86,2.28a37,37,0,0,0-7.87-16l0,4.13a11.84,11.84,0,0,1,2.26,2.53Z" />
      <path class="BUNTAI_RED_PANDA_JEWELRY_BUNTAI_RED_PANDA_JEWELRY_10_cls-8" d="M334.47,238.23a37,37,0,0,1,7.87,16q.41.34.78.72a23.78,23.78,0,0,0,.26-5.9,10.7,10.7,0,0,0-1.08-4.28,5.22,5.22,0,0,0-3.34-2.72l1.64-.11-.05-.06a13.2,13.2,0,0,0-2.21-2,14.34,14.34,0,0,0-3.87-1.94Z" />
      <path class="BUNTAI_RED_PANDA_JEWELRY_BUNTAI_RED_PANDA_JEWELRY_10_cls-8" d="M336.89,234.49a27.32,27.32,0,0,0,1.45,5.46,13.2,13.2,0,0,1,2.21,2l.17-.16a37.6,37.6,0,0,0,3.88,3.16v-.22c0-.21,0-.43,0-.65A35.76,35.76,0,0,0,336.89,234.49Z" />
      <path class="BUNTAI_RED_PANDA_JEWELRY_BUNTAI_RED_PANDA_JEWELRY_10_cls-8" d="M336.89,234.49a35.76,35.76,0,0,1,7.68,9.54,10.55,10.55,0,0,0-.78-3.37,10.86,10.86,0,0,0-4.11-4.9l1.91.49a10.18,10.18,0,0,0-4.79-2.32c-.23-.05-.46-.08-.69-.11l.78.66Z" />
      <path class="BUNTAI_RED_PANDA_JEWELRY_BUNTAI_RED_PANDA_JEWELRY_10_cls-9" d="M321.67,218.66h-.12a10.3,10.3,0,0,0-10.3,10.3,9.74,9.74,0,0,0,.25,2.24,10,10,0,0,0,1.48,3.48,10.25,10.25,0,0,0,5.52,4.12,10.22,10.22,0,0,0,3,.46h0a10.13,10.13,0,0,0,3.86-.75,10.42,10.42,0,0,0,5-4.35,10.45,10.45,0,0,0,1.4-5.2A10.3,10.3,0,0,0,321.67,218.66Z" />
      <circle class="BUNTAI_RED_PANDA_JEWELRY_BUNTAI_RED_PANDA_JEWELRY_10_cls-9" cx="321.55" cy="228.96" r="7.83" />
      <path class="BUNTAI_RED_PANDA_JEWELRY_BUNTAI_RED_PANDA_JEWELRY_10_cls-9" d="M321.54,239.26c0,.69,0,1.37.07,2.05,0,.18,0,.35,0,.53.23,6.93.48,13.86.71,20.78" />
      <path class="BUNTAI_RED_PANDA_JEWELRY_BUNTAI_RED_PANDA_JEWELRY_10_cls-9" d="M321.35,241.53l.26-.22" />
      <path class="BUNTAI_RED_PANDA_JEWELRY_BUNTAI_RED_PANDA_JEWELRY_10_cls-9" d="M321.63,241.84c-.09-.1-.18-.21-.28-.31a8.27,8.27,0,0,0-1.84,2.36,9.23,9.23,0,0,0-.77,2,14.8,14.8,0,0,0-.4,2.32c-.11,1.2-.12,2.43-.11,3.63a5.2,5.2,0,0,1,2.71.06,10.41,10.41,0,0,0-2.2,2,32.11,32.11,0,0,0,3.18,13.5,14.26,14.26,0,0,0,2.93-5.71,28.79,28.79,0,0,0,.35-8.7c-.52-.62-1.14-1.32-1.67-1.93.57-.29,1-.56,1.59-.84,0-.58,0-1.17,0-1.77a6.44,6.44,0,0,0-.15-1.82,2.88,2.88,0,0,0-.33-.79,27,27,0,0,0-3-4" />
      <path class="BUNTAI_RED_PANDA_JEWELRY_BUNTAI_RED_PANDA_JEWELRY_10_cls-9" d="M325.41,238.51c.47,1.26.91,2.54,1.31,3.84a1.18,1.18,0,0,1,.07.2,71.44,71.44,0,0,1,3.12,22.69v0h0" />
      <path class="BUNTAI_RED_PANDA_JEWELRY_BUNTAI_RED_PANDA_JEWELRY_10_cls-9" d="M326.72,242.35a.47.47,0,0,1,.1.1,28.69,28.69,0,0,1,3.81,5c.25.42.49.85.72,1.28-.64-.08-1.15-.24-1.79-.33a24.07,24.07,0,0,1,2.52,3.64,8.13,8.13,0,0,1,1,3c.4,3.35-1.07,7.06-3.13,10.14v0h0c-.28.44-.59.87-.91,1.28" />
      <path class="BUNTAI_RED_PANDA_JEWELRY_BUNTAI_RED_PANDA_JEWELRY_10_cls-9" d="M329,266.55c-.28-2.72-1.33-5.44-2-8.2a35.35,35.35,0,0,1-1-10.25c-.28.1-.58.24-.88.37" />
      <path class="BUNTAI_RED_PANDA_JEWELRY_BUNTAI_RED_PANDA_JEWELRY_10_cls-9" d="M325,246.65a26.54,26.54,0,0,1,1.19-2.61,14.08,14.08,0,0,0,.61-1.49l0-.1" />
      <path class="BUNTAI_RED_PANDA_JEWELRY_BUNTAI_RED_PANDA_JEWELRY_10_cls-9" d="M330.83,240.27A46.3,46.3,0,0,1,338,258.63" />
      <path class="BUNTAI_RED_PANDA_JEWELRY_BUNTAI_RED_PANDA_JEWELRY_10_cls-9" d="M328.25,236.78q1.37,1.66,2.56,3.47h0" />
      <path class="BUNTAI_RED_PANDA_JEWELRY_BUNTAI_RED_PANDA_JEWELRY_10_cls-9" d="M330.81,240.25h0a12.14,12.14,0,0,1,3.61,2.11,11.84,11.84,0,0,1,2.26,2.53l-1.47.05a6.45,6.45,0,0,1,3,4.39c.11.58.18,1.16.24,1.75a24.26,24.26,0,0,1-.45,7.55,24,24,0,0,1-.63,2.35" />
      <path class="BUNTAI_RED_PANDA_JEWELRY_BUNTAI_RED_PANDA_JEWELRY_10_cls-9" d="M330.63,247.48a23.88,23.88,0,0,1,.2-7.21,0,0,0,0,1,0,0h0" />
      <path class="BUNTAI_RED_PANDA_JEWELRY_BUNTAI_RED_PANDA_JEWELRY_10_cls-9" d="M333,255.1a27,27,0,0,1,4.37,5.88" />
      <path class="BUNTAI_RED_PANDA_JEWELRY_BUNTAI_RED_PANDA_JEWELRY_10_cls-9" d="M342.34,254.25a37,37,0,0,0-7.87-16,3.58,3.58,0,0,0-.26-.29,35.31,35.31,0,0,0-3.76-3.78" />
      <path class="BUNTAI_RED_PANDA_JEWELRY_BUNTAI_RED_PANDA_JEWELRY_10_cls-9" d="M343.12,255a23.78,23.78,0,0,0,.26-5.9,10.7,10.7,0,0,0-1.08-4.28,5.22,5.22,0,0,0-3.34-2.72l1.64-.11-.05-.06a13.2,13.2,0,0,0-2.21-2,14.34,14.34,0,0,0-3.87-1.94l-.26-.07" />
      <path class="BUNTAI_RED_PANDA_JEWELRY_BUNTAI_RED_PANDA_JEWELRY_10_cls-9" d="M334.47,238v.22l0,4.13" />
      <path class="BUNTAI_RED_PANDA_JEWELRY_BUNTAI_RED_PANDA_JEWELRY_10_cls-9" d="M336.89,234.48l-.78-.66a34.77,34.77,0,0,0-4.41-3.12" />
      <path class="BUNTAI_RED_PANDA_JEWELRY_BUNTAI_RED_PANDA_JEWELRY_10_cls-9" d="M344.57,244a35.76,35.76,0,0,0-7.68-9.54" />
      <path class="BUNTAI_RED_PANDA_JEWELRY_BUNTAI_RED_PANDA_JEWELRY_10_cls-9" d="M336.11,233.82c.23,0,.46.06.69.11a10.18,10.18,0,0,1,4.79,2.32l-1.91-.49a10.86,10.86,0,0,1,4.11,4.9,10.55,10.55,0,0,1,.78,3.37c0,.22,0,.44,0,.65v.22" />
      <path class="BUNTAI_RED_PANDA_JEWELRY_BUNTAI_RED_PANDA_JEWELRY_10_cls-9" d="M339.78,240.41a5.92,5.92,0,0,0,.94,1.33,37.6,37.6,0,0,0,3.88,3.16h0" />
      <path class="BUNTAI_RED_PANDA_JEWELRY_BUNTAI_RED_PANDA_JEWELRY_10_cls-9" d="M336.89,234.48h0a27.32,27.32,0,0,0,1.45,5.46" />
      <path class="BUNTAI_RED_PANDA_JEWELRY_BUNTAI_RED_PANDA_JEWELRY_10_cls-9" d="M338.49,251.08c.32.32.65.61,1,.89.94.78,1.94,1.49,2.86,2.28q.41.34.78.72" />
      <path class="BUNTAI_RED_PANDA_JEWELRY_BUNTAI_RED_PANDA_JEWELRY_10_cls-9" d="M314.11,265.27a71.38,71.38,0,0,1,3.12-22.72l.06-.2c.37-1.2.77-2.38,1.21-3.55" />
      <path class="BUNTAI_RED_PANDA_JEWELRY_BUNTAI_RED_PANDA_JEWELRY_10_cls-9" d="M317.29,242.35l-.1.1a28.16,28.16,0,0,0-3.8,5c-.25.42-.49.85-.72,1.28.19,0,.37-.06.55-.09.41-.08.79-.17,1.24-.24a22.65,22.65,0,0,0-2.51,3.64,8,8,0,0,0-1,3c-.4,3.36,1.08,7.09,3.13,10.17.3.44.6.87.91,1.28" />
      <path class="BUNTAI_RED_PANDA_JEWELRY_BUNTAI_RED_PANDA_JEWELRY_10_cls-9" d="M318.34,248.24a2.55,2.55,0,0,0-.35-.14,35.69,35.69,0,0,1-1,10.25c-.68,2.76-1.73,5.48-2,8.2" />
      <path class="BUNTAI_RED_PANDA_JEWELRY_BUNTAI_RED_PANDA_JEWELRY_10_cls-9" d="M318.74,245.92c-.28-.64-.6-1.25-.9-1.88a10.82,10.82,0,0,1-.61-1.49.3.3,0,0,1,0-.1" />
      <path class="BUNTAI_RED_PANDA_JEWELRY_BUNTAI_RED_PANDA_JEWELRY_10_cls-9" d="M313.19,240.26h0c.69-1,1.43-2.05,2.2-3" />
      <path class="BUNTAI_RED_PANDA_JEWELRY_BUNTAI_RED_PANDA_JEWELRY_10_cls-9" d="M306,258.63a46.15,46.15,0,0,1,7.21-18.36" />
      <path class="BUNTAI_RED_PANDA_JEWELRY_BUNTAI_RED_PANDA_JEWELRY_10_cls-9" d="M306.6,261c-.24-.77-.45-1.55-.62-2.34h0a24,24,0,0,1-.45-7.55c.05-.59.13-1.17.23-1.75a6.43,6.43,0,0,1,3-4.39l-1.47-.05a11.58,11.58,0,0,1,2.26-2.53,12.09,12.09,0,0,1,3.6-2.11h0" />
      <path class="BUNTAI_RED_PANDA_JEWELRY_BUNTAI_RED_PANDA_JEWELRY_10_cls-9" d="M313.39,247.48a23.88,23.88,0,0,0-.2-7.21h0" />
      <path class="BUNTAI_RED_PANDA_JEWELRY_BUNTAI_RED_PANDA_JEWELRY_10_cls-9" d="M306.6,261A27.11,27.11,0,0,1,311,255.1" />
      <path class="BUNTAI_RED_PANDA_JEWELRY_BUNTAI_RED_PANDA_JEWELRY_10_cls-9" d="M313,234.68a33.77,33.77,0,0,0-3.18,3.26,3.47,3.47,0,0,0-.25.29,36.85,36.85,0,0,0-7.87,16" />
      <path class="BUNTAI_RED_PANDA_JEWELRY_BUNTAI_RED_PANDA_JEWELRY_10_cls-9" d="M305.67,240a13.9,13.9,0,0,0-2.26,2l1.64.11a5.2,5.2,0,0,0-3.33,2.72,10.71,10.71,0,0,0-1.09,4.28,24.27,24.27,0,0,0,.26,5.9" />
      <path class="BUNTAI_RED_PANDA_JEWELRY_BUNTAI_RED_PANDA_JEWELRY_10_cls-9" d="M309.8,237.94l-.25.07a14.34,14.34,0,0,0-3.87,1.94" />
      <path class="BUNTAI_RED_PANDA_JEWELRY_BUNTAI_RED_PANDA_JEWELRY_10_cls-9" d="M309.55,238v.22l0,4.13" />
      <path class="BUNTAI_RED_PANDA_JEWELRY_BUNTAI_RED_PANDA_JEWELRY_10_cls-9" d="M307.13,234.49a35.94,35.94,0,0,0-7.69,9.53" />
      <path class="BUNTAI_RED_PANDA_JEWELRY_BUNTAI_RED_PANDA_JEWELRY_10_cls-9" d="M311.5,231.2a33,33,0,0,0-3.59,2.62l-.78.66" />
      <path class="BUNTAI_RED_PANDA_JEWELRY_BUNTAI_RED_PANDA_JEWELRY_10_cls-9" d="M307.91,233.82c-.23,0-.47.06-.69.11a10.18,10.18,0,0,0-4.79,2.32l1.91-.49a10.86,10.86,0,0,0-4.11,4.9,10.5,10.5,0,0,0-.79,3.36h0q0,.43,0,.87" />
      <path class="BUNTAI_RED_PANDA_JEWELRY_BUNTAI_RED_PANDA_JEWELRY_10_cls-9" d="M304.23,240.41a6,6,0,0,1-1,1.39,38.94,38.94,0,0,1-3.83,3.1h0" />
      <path class="BUNTAI_RED_PANDA_JEWELRY_BUNTAI_RED_PANDA_JEWELRY_10_cls-9" d="M307.13,234.48h0a28,28,0,0,1-1.45,5.46h0" />
      <path class="BUNTAI_RED_PANDA_JEWELRY_BUNTAI_RED_PANDA_JEWELRY_10_cls-9" d="M305.53,251.08c-.32.32-.65.61-1,.89-.94.78-1.94,1.49-2.86,2.28-.27.23-.53.47-.79.72" />
      <g class="BUNTAI_RED_PANDA_JEWELRY_BUNTAI_RED_PANDA_JEWELRY_10_cls-10">
        <path d="M337.09,234.16s3.19.13,4.28,2.62a12.07,12.07,0,0,1,2.79,7.77c-1.85-1.39-2.72-2.1-2.72-2.1a33.28,33.28,0,0,0-2.48-5.22,28.3,28.3,0,0,0,1.39,6s4.21,5.14,2.42,11.05c-2.19-4.58-5.16-11.8-5.16-11.8a80.46,80.46,0,0,1,1,8.49c0,2.18-.11,6.55-1.55,9-2.27-2.87-3.29-4.37-3.29-4.37s-.86-.65-1.26-4.67-1-7.7-1-7.7l3.2,8.39L333,242l-2.23-.56s.12,6.72.21,10.26-.79,11.44-2.36,14.06c-1.67-7.39-2.59-12.45-2.76-13.1s-1.13,2.46-1.13,2.46-.47,9.15-2.83,11.45c-.58-9.76-1.54-17.72-1.76-19.09s1-4.26,1-4.26l.47-.54s.47,8.23.33,13.47c1.39-10.13,1.61-11.93,1.61-11.93l1.17,2.29,2.1-2.81s2,10.73,1.84,13.64l.35-12.24,1.62.84s-.59-5.2,0-5.51a9.13,9.13,0,0,1,3.58,1.76l.5-3.25,3.33.33Z" />
        <path d="M328.24,221.13A10.35,10.35,0,0,1,331.39,232c-1.95,6.91-12.26,10.51-17.82,3.5,3.23,2,10.8,4.66,15.17-1.32S328.24,221.13,328.24,221.13Z" />
      </g>
    </g>
  </g>
</svg>