<svg id="jewelry" xmlns="http://www.w3.org/2000/svg" viewBox="0 0 432 432">
  <defs>
    <style>.BUNTAI_RED_PANDA_JEWELRY_BUNTAI_RED_PANDA_JEWELRY_12_cls-1{fill:#fff;}.BUNTAI_RED_PANDA_JEWELRY_BUNTAI_RED_PANDA_JEWELRY_12_cls-1,.BUNTAI_RED_PANDA_JEWELRY_BUNTAI_RED_PANDA_JEWELRY_12_cls-2,.BUNTAI_RED_PANDA_JEWELRY_BUNTAI_RED_PANDA_JEWELRY_12_cls-4,.BUNTAI_RED_PANDA_JEWELRY_BUNTAI_RED_PANDA_JEWELRY_12_cls-7{stroke:#000;}.BUNTAI_RED_PANDA_JEWELRY_BUNTAI_RED_PANDA_JEWELRY_12_cls-1,.BUNTAI_RED_PANDA_JEWELRY_BUNTAI_RED_PANDA_JEWELRY_12_cls-2{stroke-miterlimit:10;stroke-width:0.64px;}.BUNTAI_RED_PANDA_JEWELRY_BUNTAI_RED_PANDA_JEWELRY_12_cls-2{fill:#754c24;}.BUNTAI_RED_PANDA_JEWELRY_BUNTAI_RED_PANDA_JEWELRY_12_cls-3{fill:#333;}.BUNTAI_RED_PANDA_JEWELRY_BUNTAI_RED_PANDA_JEWELRY_12_cls-4,.BUNTAI_RED_PANDA_JEWELRY_BUNTAI_RED_PANDA_JEWELRY_12_cls-7{fill:none;stroke-linecap:round;stroke-linejoin:round;}.BUNTAI_RED_PANDA_JEWELRY_BUNTAI_RED_PANDA_JEWELRY_12_cls-4{stroke-width:0.48px;}.BUNTAI_RED_PANDA_JEWELRY_BUNTAI_RED_PANDA_JEWELRY_12_cls-5{fill:#b5266f;}.BUNTAI_RED_PANDA_JEWELRY_BUNTAI_RED_PANDA_JEWELRY_12_cls-6{fill:#c7a858;}</style>
  </defs>
  <path class="BUNTAI_RED_PANDA_JEWELRY_BUNTAI_RED_PANDA_JEWELRY_12_cls-1" d="M199,386.08l1,.41c.57.23,1.34.53,2.25.87l.78.3,1,.38.23.09.76.27c.56.21,1.14.41,1.72.61l1.26.43,1.55.51.5.15.54.17,1.12.32.59.16.69.17c.38-1.46.77-2.72.77-2.72l-.69-.22h0l-.48-.15-.22-.07-1.31-.41-1-.31-1.32-.42-2-.64-.79-.26-1.27-.43-.34-.13L204,385l-.74-.28-.91-.34-.57-.22-.83-.31-.06,0-1.25-.49a5.86,5.86,0,0,0-.79,1.6A2.28,2.28,0,0,0,199,386.08Z" />
  <polyline class="BUNTAI_RED_PANDA_JEWELRY_BUNTAI_RED_PANDA_JEWELRY_12_cls-1" points="213.84 388.2 214.47 386.4 214.87 386.5 214.56 388.61 214.17 388.52 213.61 390.74 213.97 390.83 213.11 392.7 212.81 392.55 213.06 390.92" />
  <line class="BUNTAI_RED_PANDA_JEWELRY_BUNTAI_RED_PANDA_JEWELRY_12_cls-1" x1="215.23" y1="388.77" x2="214.56" y2="388.61" />
  <line class="BUNTAI_RED_PANDA_JEWELRY_BUNTAI_RED_PANDA_JEWELRY_12_cls-1" x1="214.7" y1="391" x2="213.97" y2="390.83" />
  <path class="BUNTAI_RED_PANDA_JEWELRY_BUNTAI_RED_PANDA_JEWELRY_12_cls-1" d="M213.14,388s-.52,1.72-.77,2.77" />
  <path class="BUNTAI_RED_PANDA_JEWELRY_BUNTAI_RED_PANDA_JEWELRY_12_cls-1" d="M200,386.49a9.88,9.88,0,0,1,.9-2.65" />
  <path class="BUNTAI_RED_PANDA_JEWELRY_BUNTAI_RED_PANDA_JEWELRY_12_cls-1" d="M200.46,386.66s.67-1.15,1.3-2.51" />
  <path class="BUNTAI_RED_PANDA_JEWELRY_BUNTAI_RED_PANDA_JEWELRY_12_cls-1" d="M202.33,384.37a5.59,5.59,0,0,1-.78,2.71" />
  <path class="BUNTAI_RED_PANDA_JEWELRY_BUNTAI_RED_PANDA_JEWELRY_12_cls-1" d="M204,385a18.44,18.44,0,0,1-.92,2.67" />
  <path class="BUNTAI_RED_PANDA_JEWELRY_BUNTAI_RED_PANDA_JEWELRY_12_cls-1" d="M203.24,384.71a4.87,4.87,0,0,1-1,2.65" />
  <path class="BUNTAI_RED_PANDA_JEWELRY_BUNTAI_RED_PANDA_JEWELRY_12_cls-1" d="M204.48,385.16a16.25,16.25,0,0,1-.1,2.62c0,.11,0,.23,0,.35" />
  <path class="BUNTAI_RED_PANDA_JEWELRY_BUNTAI_RED_PANDA_JEWELRY_12_cls-1" d="M204.1,388l.28-.26a13.23,13.23,0,0,0,1.71-2.06" />
  <path class="BUNTAI_RED_PANDA_JEWELRY_BUNTAI_RED_PANDA_JEWELRY_12_cls-1" d="M206.88,386a2.22,2.22,0,0,1-.15.23,15.6,15.6,0,0,1-1.64,2.19" />
  <path class="BUNTAI_RED_PANDA_JEWELRY_BUNTAI_RED_PANDA_JEWELRY_12_cls-1" d="M206.73,386.21a4.68,4.68,0,0,1,.17,1.83c0,.33-.05.67-.09,1" />
  <path class="BUNTAI_RED_PANDA_JEWELRY_BUNTAI_RED_PANDA_JEWELRY_12_cls-1" d="M206.9,388a5.24,5.24,0,0,0,1.23-.77l.33-.29.39-.36" />
  <path class="BUNTAI_RED_PANDA_JEWELRY_BUNTAI_RED_PANDA_JEWELRY_12_cls-1" d="M208.13,387.27a7.31,7.31,0,0,1-.06,2.17" />
  <path class="BUNTAI_RED_PANDA_JEWELRY_BUNTAI_RED_PANDA_JEWELRY_12_cls-1" d="M210.17,387a7,7,0,0,1-.31,2.27,6.34,6.34,0,0,1-.24.64" />
  <path class="BUNTAI_RED_PANDA_JEWELRY_BUNTAI_RED_PANDA_JEWELRY_12_cls-1" d="M208.46,387a10.52,10.52,0,0,1,1.4,2.33" />
  <path class="BUNTAI_RED_PANDA_JEWELRY_BUNTAI_RED_PANDA_JEWELRY_12_cls-1" d="M212.66,387.83a10.39,10.39,0,0,1-.88,2.76" />
  <path class="BUNTAI_RED_PANDA_JEWELRY_BUNTAI_RED_PANDA_JEWELRY_12_cls-1" d="M212.44,387.76a9.9,9.9,0,0,1-1.78,2.51" />
  <line class="BUNTAI_RED_PANDA_JEWELRY_BUNTAI_RED_PANDA_JEWELRY_12_cls-1" x1="210.12" y1="390.1" x2="211.13" y2="387.35" />
  <path class="BUNTAI_RED_PANDA_JEWELRY_BUNTAI_RED_PANDA_JEWELRY_12_cls-1" d="M250.09,391.76a27.12,27.12,0,0,1-10.41,2.65c-10.88.85-23.17-2.3-25.12-2.83l.8-3.37c1.73.46,18.2,5.6,35.47,1.42C251.76,389.41,250.94,391.31,250.09,391.76Z" />
  <line class="BUNTAI_RED_PANDA_JEWELRY_BUNTAI_RED_PANDA_JEWELRY_12_cls-1" x1="215.36" y1="388.21" x2="214.56" y2="391.58" />
  <path class="BUNTAI_RED_PANDA_JEWELRY_BUNTAI_RED_PANDA_JEWELRY_12_cls-2" d="M224.39,388l-.24,0c-29.25-7.09-43.77-27.53-50.8-43.43A102,102,0,0,1,165,311.41c0-.57.41-1.84.95-2a2.92,2.92,0,0,1,3.16,1.12,7.83,7.83,0,0,0-2,1.42,97.7,97.7,0,0,0,8.13,31.77c6.83,15.4,20.88,35.19,49.1,42.14,29.77-10.58,43.39-30.53,49.58-45.43,6.73-16.2,6.43-30,6.37-30.17-.58-.38-1.13-.63-1.57-.88a2.09,2.09,0,0,1,2.69-1.22c.93.25.9,1.47.92,2s.38,14.41-6.52,31c-6.37,15.32-20.4,35.86-51.08,46.67A1,1,0,0,1,224.39,388Z" />
  <path class="BUNTAI_RED_PANDA_JEWELRY_BUNTAI_RED_PANDA_JEWELRY_12_cls-3" d="M222,385.16l1.38.38s1.44-.81,2,.33.31,1.95-.46,2.31a1.68,1.68,0,0,1-2.12-.58,3,3,0,0,0-1.33-.3s.56,2.14,2.4,2.32a2.7,2.7,0,0,0,3.16-2.47,2.62,2.62,0,0,0-1.48-2.76A2.83,2.83,0,0,0,222,385.16Z" />
  <path class="BUNTAI_RED_PANDA_JEWELRY_BUNTAI_RED_PANDA_JEWELRY_12_cls-4" d="M221.46,387.23a2.81,2.81,0,0,0,2.52,2.46l.28,0a2.81,2.81,0,0,0,1.89-.72,2.75,2.75,0,0,0,.93-2,.76.76,0,0,0,0-.15,2.8,2.8,0,0,0-2.83-2.82,2.81,2.81,0,0,0-2.3,1.19l1.4.37a1.53,1.53,0,0,1,.9-.29,1.45,1.45,0,0,1,.85.26,1.53,1.53,0,0,1,.7,1.29,1.5,1.5,0,0,1-.17.69,1.52,1.52,0,0,1-1.38.85,1.54,1.54,0,0,1-1.36-.81h0Z" />
  <path class="BUNTAI_RED_PANDA_JEWELRY_BUNTAI_RED_PANDA_JEWELRY_12_cls-5" d="M129.77,209.7c0,5.23-2.64,9.47-5.91,9.47s-5.9-4.24-5.9-9.47,2.64-9.48,5.9-9.48S129.77,204.46,129.77,209.7Z" />
  <path class="BUNTAI_RED_PANDA_JEWELRY_BUNTAI_RED_PANDA_JEWELRY_12_cls-6" d="M123.86,197.61c-4.16,0-7.54,5.4-7.54,12.08s3.38,12.08,7.54,12.08,7.53-5.4,7.53-12.08S128,197.61,123.86,197.61Zm0,21.55c-3.27,0-5.91-4.24-5.91-9.47s2.64-9.48,5.91-9.48,5.9,4.25,5.9,9.48S127.12,219.16,123.86,219.16Z" />
  <ellipse class="BUNTAI_RED_PANDA_JEWELRY_BUNTAI_RED_PANDA_JEWELRY_12_cls-6" cx="123.86" cy="195.59" rx="3.15" ry="2.03" />
  <path class="BUNTAI_RED_PANDA_JEWELRY_BUNTAI_RED_PANDA_JEWELRY_12_cls-6" d="M123.77,182.86c-2.21,0-1.85-3-1.85-3h0a6,6,0,0,0,2.72.58,2.53,2.53,0,0,0,1.22-.3C125.87,180.28,125.91,182.86,123.77,182.86Z" />
  <path class="BUNTAI_RED_PANDA_JEWELRY_BUNTAI_RED_PANDA_JEWELRY_12_cls-6" d="M127.59,170.94c.81,2.7.64,7.87-1.73,9.17a2.53,2.53,0,0,1-1.22.3,6,6,0,0,1-2.72-.58c-2-1-3.06-3.28-2.92-6.78a11,11,0,0,1,.63-3.41,7.34,7.34,0,0,1,2-3.07,2.57,2.57,0,0,1,1.82-.75,3.05,3.05,0,0,1,2.2,1.3,5.15,5.15,0,0,1-1,.18h0a5.63,5.63,0,0,0-2.49,3.82c-.62,3,.42,6.3,1.92,6.3,1.67,0,1.69-3.87,1.59-5.92l.12,0A7.65,7.65,0,0,0,127.59,170.94Z" />
  <path class="BUNTAI_RED_PANDA_JEWELRY_BUNTAI_RED_PANDA_JEWELRY_12_cls-6" d="M122.1,156.22a12.66,12.66,0,0,0-.32,4s-2.71,2.36-1.15,5.26a3,3,0,0,0,1,1.1,7.34,7.34,0,0,0-2,3.07C116,166.46,114.46,158.17,122.1,156.22Z" />
  <path class="BUNTAI_RED_PANDA_JEWELRY_BUNTAI_RED_PANDA_JEWELRY_12_cls-6" d="M131.14,166.14a6.42,6.42,0,0,1-3.56,4.79,7.16,7.16,0,0,1-1.85.56l-.13,0a6.87,6.87,0,0,1-3.5-.37,5.62,5.62,0,0,1,2.48-3.83h.06a4.59,4.59,0,0,0,1-.19,2.89,2.89,0,0,0,2.06-1.79,2.39,2.39,0,0,0,.12-.77c0-3.15-1.24-3.3-1.24-3.3s-.07-.17-.15-.43a4.06,4.06,0,0,1,3.15-2.65A10.76,10.76,0,0,1,131.14,166.14Z" />
  <path class="BUNTAI_RED_PANDA_JEWELRY_BUNTAI_RED_PANDA_JEWELRY_12_cls-7" d="M119.63,169.64c-3.6-3.18-5.14-11.53,2.47-13.42-.27,1.64-.45,3.88-.45,3.88s-2.58,2.47-1,5.37a3,3,0,0,0,1,1.1" />
  <path class="BUNTAI_RED_PANDA_JEWELRY_BUNTAI_RED_PANDA_JEWELRY_12_cls-7" d="M122.1,171.14a6.87,6.87,0,0,0,3.5.37l.13,0a7.16,7.16,0,0,0,1.85-.56,6.42,6.42,0,0,0,3.56-4.79,10.76,10.76,0,0,0-1.58-8" />
  <path class="BUNTAI_RED_PANDA_JEWELRY_BUNTAI_RED_PANDA_JEWELRY_12_cls-7" d="M126.41,160.82c.08.26.15.43.15.43s1.2.15,1.24,3.3a2.39,2.39,0,0,1-.12.77,2.89,2.89,0,0,1-2.06,1.79,4.59,4.59,0,0,1-1,.19" />
  <path class="BUNTAI_RED_PANDA_JEWELRY_BUNTAI_RED_PANDA_JEWELRY_12_cls-7" d="M127.59,170.94c.81,2.7.64,7.87-1.73,9.17a2.53,2.53,0,0,1-1.22.3,6,6,0,0,1-2.72-.58c-2-1-3.06-3.28-2.92-6.78a11,11,0,0,1,.63-3.41,7.34,7.34,0,0,1,2-3.07,2.57,2.57,0,0,1,1.82-.75,3.05,3.05,0,0,1,2.2,1.3" />
  <path class="BUNTAI_RED_PANDA_JEWELRY_BUNTAI_RED_PANDA_JEWELRY_12_cls-7" d="M125.61,171.52c.1,2,.08,5.92-1.59,5.92-1.5,0-2.54-3.33-1.92-6.3a5.63,5.63,0,0,1,2.49-3.82h0" />
  <path class="BUNTAI_RED_PANDA_JEWELRY_BUNTAI_RED_PANDA_JEWELRY_12_cls-7" d="M121.92,179.84s-.36,3,1.85,3,2.1-2.58,2.09-2.75h0" />
  <ellipse class="BUNTAI_RED_PANDA_JEWELRY_BUNTAI_RED_PANDA_JEWELRY_12_cls-7" cx="123.86" cy="195.59" rx="3.15" ry="2.03" />
  <path class="BUNTAI_RED_PANDA_JEWELRY_BUNTAI_RED_PANDA_JEWELRY_12_cls-7" d="M131.4,209.7c0,6.67-3.38,12.08-7.54,12.08s-7.53-5.41-7.53-12.08,3.37-12.09,7.53-12.09S131.4,203,131.4,209.7Z" />
  <path class="BUNTAI_RED_PANDA_JEWELRY_BUNTAI_RED_PANDA_JEWELRY_12_cls-7" d="M129.77,209.7c0,5.23-2.64,9.47-5.91,9.47s-5.9-4.24-5.9-9.47,2.64-9.48,5.9-9.48S129.77,204.46,129.77,209.7Z" />
  <line class="BUNTAI_RED_PANDA_JEWELRY_BUNTAI_RED_PANDA_JEWELRY_12_cls-7" x1="123.77" y1="182.86" x2="123.77" y2="193.56" />
  <path class="BUNTAI_RED_PANDA_JEWELRY_BUNTAI_RED_PANDA_JEWELRY_12_cls-7" d="M124.38,202.23s3.55,1.3,3.4,8" />
  <path class="BUNTAI_RED_PANDA_JEWELRY_BUNTAI_RED_PANDA_JEWELRY_12_cls-7" d="M126.65,164.07a4.06,4.06,0,0,1,2.91-5.9,3.85,3.85,0,0,1,.69-.06,2.77,2.77,0,0,1,2.75,2" />
</svg>