<svg xmlns="http://www.w3.org/2000/svg" viewBox="0 0 432 432">
  <defs>
    <style>.BUNTAI_RED_PANDA_JEWELRY_BUNTAI_RED_PANDA_JEWELRY_19_cls-1{isolation:isolate;}.BUNTAI_RED_PANDA_JEWELRY_BUNTAI_RED_PANDA_JEWELRY_19_cls-2{fill:#d2a548;}.BUNTAI_RED_PANDA_JEWELRY_BUNTAI_RED_PANDA_JEWELRY_19_cls-3{fill:#5897a8;}.BUNTAI_RED_PANDA_JEWELRY_BUNTAI_RED_PANDA_JEWELRY_19_cls-4,.BUNTAI_RED_PANDA_JEWELRY_BUNTAI_RED_PANDA_JEWELRY_19_cls-5,.BUNTAI_RED_PANDA_JEWELRY_BUNTAI_RED_PANDA_JEWELRY_19_cls-7{fill:none;stroke:#000;stroke-linecap:round;stroke-linejoin:round;}.BUNTAI_RED_PANDA_JEWELRY_BUNTAI_RED_PANDA_JEWELRY_19_cls-4{stroke-width:0.46px;}.BUNTAI_RED_PANDA_JEWELRY_BUNTAI_RED_PANDA_JEWELRY_19_cls-5{stroke-width:1.2px;}.BUNTAI_RED_PANDA_JEWELRY_BUNTAI_RED_PANDA_JEWELRY_19_cls-6{opacity:0.43;mix-blend-mode:multiply;}.BUNTAI_RED_PANDA_JEWELRY_BUNTAI_RED_PANDA_JEWELRY_19_cls-7{stroke-width:1.06px;}.BUNTAI_RED_PANDA_JEWELRY_BUNTAI_RED_PANDA_JEWELRY_19_cls-8{fill:#c7a858;}</style>
  </defs>
  <g class="BUNTAI_RED_PANDA_JEWELRY_BUNTAI_RED_PANDA_JEWELRY_19_cls-1">
    <g id="jewelry">
      <path class="BUNTAI_RED_PANDA_JEWELRY_BUNTAI_RED_PANDA_JEWELRY_19_cls-2" d="M134.59,224.36a6.46,6.46,0,0,1-3.16,5.55,6.37,6.37,0,0,0-1.05-2.24,4,4,0,1,0-4.48,0,6.2,6.2,0,0,0-1.05,2.24,6.45,6.45,0,1,1,9.74-5.55Z" />
      <path class="BUNTAI_RED_PANDA_JEWELRY_BUNTAI_RED_PANDA_JEWELRY_19_cls-3" d="M150.45,257.14a48.44,48.44,0,0,1-16.34-8.92,12.85,12.85,0,0,1-2.59-2.67c-1.62-2.4-1.69-5.47-1.67-8.37v-.26s.28-3.38-.49-4.19-2.74-1.14-3.12,1.46c0,0-.12.88-.44,2.29-.79,3.42-2.85,9.89-7.65,14h0a37.58,37.58,0,0,1-15.6,3.59,5.85,5.85,0,0,0-.13,2.35c-1,.12-2.1.21-3.15.26a4.28,4.28,0,0,0-.59,1.85,1.92,1.92,0,0,0,.59,1.33,2,2,0,0,0,1.37.51,2.14,2.14,0,0,0,.13,1.8v0a2.58,2.58,0,0,0,1,.91,7.66,7.66,0,0,0,1.26.49,7,7,0,0,0-.22,1.11h0a10.27,10.27,0,0,0-.1,1.57,2.78,2.78,0,0,1,1.72,1.54,5.3,5.3,0,0,1,.34,2.57l.7.16,1.34.33c0,.36.11.72.16,1.09a2.44,2.44,0,0,1,1.15.4,3.82,3.82,0,0,1,1.06,1.06,3.1,3.1,0,0,1,.42,2.64l.29-.06a2.09,2.09,0,0,1,1.72.52,2.17,2.17,0,0,1,.29.24,4.5,4.5,0,0,0,1.78,1.36,3.29,3.29,0,0,0,1.36,0l.26,0a8.13,8.13,0,0,1,5,.95,8,8,0,0,1,2.88,2.67c.16.26.32.53.46.8s.29.58.42.89a2.16,2.16,0,0,0,.66,1c.31-.36.68-.59,1-.95a5.83,5.83,0,0,1,1.28-1.2,2,2,0,0,1,1.69-.24,3.37,3.37,0,0,1,4.34-.3,5.42,5.42,0,0,1,6.08-.57c0-.11,0-.22.05-.33a3.42,3.42,0,0,1,2-2.37,2.44,2.44,0,0,0,.9-.44c.39-.4.32-1.08.54-1.6v0a2.82,2.82,0,0,1,1-1.05,3,3,0,0,0,1.06-1,1,1,0,0,0-.23-1.32l0-.14c.11-.56.37-1.16.46-1.71l.15-.93a7.63,7.63,0,0,1,.43-1.77,2.58,2.58,0,0,1,1.2-1.34.58.58,0,0,1,.17-.06c.31-.11.64-.16,1-.27a1.2,1.2,0,0,0,.82-.77c.14-.57-.38-1.05-.68-1.55a2.26,2.26,0,0,1-.29-1.37,2.35,2.35,0,0,1,.78-1.58,12,12,0,0,1,1.13-.72,1.74,1.74,0,0,0,.73-.92s0-.09,0-.13,0-.08,0-.13A3.75,3.75,0,0,1,150.45,257.14Z" />
      <path class="BUNTAI_RED_PANDA_JEWELRY_BUNTAI_RED_PANDA_JEWELRY_19_cls-2" d="M131.71,232.14a6.8,6.8,0,0,1-1.86,5v-.26s.28-3.38-.49-4.19-2.74-1.14-3.12,1.46c0,0-.12.88-.44,2.29a7.51,7.51,0,0,1-1.23-4.34,8.78,8.78,0,0,1,.28-2.23,6.2,6.2,0,0,1,1.05-2.24,2.89,2.89,0,0,1,2.24-1.27,2.92,2.92,0,0,1,2.24,1.27,6.37,6.37,0,0,1,1.05,2.24A8.78,8.78,0,0,1,131.71,232.14Z" />
      <path class="BUNTAI_RED_PANDA_JEWELRY_BUNTAI_RED_PANDA_JEWELRY_19_cls-4" d="M131.74,248.81c2.63,3,6.21,4.95,9.8,6.65a94.57,94.57,0,0,1,8.78,4.39" />
      <path class="BUNTAI_RED_PANDA_JEWELRY_BUNTAI_RED_PANDA_JEWELRY_19_cls-4" d="M147.68,263.07a115.52,115.52,0,0,0-10.12-7.81" />
      <path class="BUNTAI_RED_PANDA_JEWELRY_BUNTAI_RED_PANDA_JEWELRY_19_cls-4" d="M134.22,255.08A51.38,51.38,0,0,1,146.88,267" />
      <path class="BUNTAI_RED_PANDA_JEWELRY_BUNTAI_RED_PANDA_JEWELRY_19_cls-4" d="M130.28,251.85c2.06,3.5,4.38,6.86,6.68,10.2l5.22,7.59c.75,1.08,1.49,2.16,2.29,3.2" />
      <path class="BUNTAI_RED_PANDA_JEWELRY_BUNTAI_RED_PANDA_JEWELRY_19_cls-4" d="M139.18,280.8a96.4,96.4,0,0,1-10.39-27.62l-.09-.45a69.37,69.37,0,0,0,13.89,23.66" />
      <path class="BUNTAI_RED_PANDA_JEWELRY_BUNTAI_RED_PANDA_JEWELRY_19_cls-4" d="M130.66,281.07a96.35,96.35,0,0,1-3.16-27.62" />
      <path class="BUNTAI_RED_PANDA_JEWELRY_BUNTAI_RED_PANDA_JEWELRY_19_cls-4" d="M120.32,279.06h0A74.12,74.12,0,0,0,126,253.39l0-.75" />
      <path class="BUNTAI_RED_PANDA_JEWELRY_BUNTAI_RED_PANDA_JEWELRY_19_cls-4" d="M125.7,264.65a68.58,68.58,0,0,1-2,17.87" />
      <path class="BUNTAI_RED_PANDA_JEWELRY_BUNTAI_RED_PANDA_JEWELRY_19_cls-4" d="M111.61,276.57a106.07,106.07,0,0,0,9.13-17.2h0c.22-.53.44-1.07.65-1.61,1-2.49,1.91-5,2.71-7.57" />
      <path class="BUNTAI_RED_PANDA_JEWELRY_BUNTAI_RED_PANDA_JEWELRY_19_cls-4" d="M115,278.14a29.25,29.25,0,0,0,3.5-7.17,78.16,78.16,0,0,0,2.6-11.43" />
      <path class="BUNTAI_RED_PANDA_JEWELRY_BUNTAI_RED_PANDA_JEWELRY_19_cls-4" d="M105.47,270.59a58.17,58.17,0,0,0,14.37-13.45" />
      <path class="BUNTAI_RED_PANDA_JEWELRY_BUNTAI_RED_PANDA_JEWELRY_19_cls-4" d="M113,267.12q-2.41,2.65-4.85,5.29" />
      <path class="BUNTAI_RED_PANDA_JEWELRY_BUNTAI_RED_PANDA_JEWELRY_19_cls-4" d="M102.82,264.75a101.3,101.3,0,0,0,16.81-10.54" />
      <path class="BUNTAI_RED_PANDA_JEWELRY_BUNTAI_RED_PANDA_JEWELRY_19_cls-4" d="M100.77,262.22a111.1,111.1,0,0,0,12.29-5.8" />
      <path class="BUNTAI_RED_PANDA_JEWELRY_BUNTAI_RED_PANDA_JEWELRY_19_cls-5" d="M125.8,236.48a7.51,7.51,0,0,1-1.23-4.34,8.78,8.78,0,0,1,.28-2.23,6.2,6.2,0,0,1,1.05-2.24,2.89,2.89,0,0,1,2.24-1.27,2.92,2.92,0,0,1,2.24,1.27,6.37,6.37,0,0,1,1.05,2.24,8.78,8.78,0,0,1,.28,2.23,6.8,6.8,0,0,1-1.86,5" />
      <path class="BUNTAI_RED_PANDA_JEWELRY_BUNTAI_RED_PANDA_JEWELRY_19_cls-5" d="M118.15,250.52a37,37,0,0,0,4.6-2.58" />
      <path class="BUNTAI_RED_PANDA_JEWELRY_BUNTAI_RED_PANDA_JEWELRY_19_cls-5" d="M102.42,256.47a5.85,5.85,0,0,1,.13-2.35,37.58,37.58,0,0,0,15.6-3.59" />
      <path class="BUNTAI_RED_PANDA_JEWELRY_BUNTAI_RED_PANDA_JEWELRY_19_cls-5" d="M118.15,250.53h0c4.8-4.15,6.86-10.62,7.65-14,.32-1.41.44-2.29.44-2.29.38-2.6,2.35-2.27,3.12-1.46s.49,4.19.49,4.19v.26c0,2.9.05,6,1.67,8.37a12.85,12.85,0,0,0,2.59,2.67,48.44,48.44,0,0,0,16.34,8.92,3.75,3.75,0,0,0-.1,2.45c0,.05,0,.08,0,.13s0,.09,0,.13a1.74,1.74,0,0,1-.73.92,12,12,0,0,0-1.13.72,2.35,2.35,0,0,0-.78,1.58,2.26,2.26,0,0,0,.29,1.37c.3.5.82,1,.68,1.55a1.2,1.2,0,0,1-.82.77c-.31.11-.64.16-1,.27a.58.58,0,0,0-.17.06,2.58,2.58,0,0,0-1.2,1.34,7.63,7.63,0,0,0-.43,1.77l-.15.93c-.09.55-.35,1.15-.46,1.71l0,.14a1,1,0,0,1,.23,1.32,3,3,0,0,1-1.06,1,2.82,2.82,0,0,0-1,1.05v0c-.22.52-.15,1.2-.54,1.6a2.44,2.44,0,0,1-.9.44,3.42,3.42,0,0,0-2,2.37c0,.11,0,.22-.05.33a5.42,5.42,0,0,0-6.08.57,3.37,3.37,0,0,0-4.34.3,2,2,0,0,0-1.69.24,5.83,5.83,0,0,0-1.28,1.2c-.32.36-.69.59-1,.95a2.16,2.16,0,0,1-.66-1c-.13-.31-.27-.6-.42-.89s-.3-.54-.46-.8a8,8,0,0,0-2.88-2.67,8.13,8.13,0,0,0-5-.95l-.26,0a3.29,3.29,0,0,1-1.36,0,4.5,4.5,0,0,1-1.78-1.36,2.17,2.17,0,0,0-.29-.24,2.09,2.09,0,0,0-1.72-.52l-.29.06a3.1,3.1,0,0,0-.42-2.64,3.82,3.82,0,0,0-1.06-1.06A2.44,2.44,0,0,0,107,272c0-.37-.11-.73-.16-1.09l-1.34-.33-.7-.16a5.3,5.3,0,0,0-.34-2.57,2.78,2.78,0,0,0-1.72-1.54,10.27,10.27,0,0,1,.1-1.57h0a7,7,0,0,1,.22-1.11,7.66,7.66,0,0,1-1.26-.49,2.58,2.58,0,0,1-1-.91v0a2.14,2.14,0,0,1-.13-1.8,2,2,0,0,1-1.37-.51,1.92,1.92,0,0,1-.59-1.33,4.28,4.28,0,0,1,.59-1.85c1-.05,2.1-.14,3.15-.26a51.29,51.29,0,0,0,20-6.66" />
      <path class="BUNTAI_RED_PANDA_JEWELRY_BUNTAI_RED_PANDA_JEWELRY_19_cls-5" d="M125.9,227.67a4,4,0,1,1,4.48,0" />
      <path class="BUNTAI_RED_PANDA_JEWELRY_BUNTAI_RED_PANDA_JEWELRY_19_cls-5" d="M131.43,229.91a6.45,6.45,0,1,0-6.58,0" />
      <g class="BUNTAI_RED_PANDA_JEWELRY_BUNTAI_RED_PANDA_JEWELRY_19_cls-6">
        <path d="M128.14,217.91a2.06,2.06,0,0,0,0,2.66c-2.46.31-5.95,2.67-2.24,7.1a5.91,5.91,0,0,1,2.53-1.27s-2.5,3.12-.29,5.75c-.19,1.88-2.65,17.15-4.48,22.93s-2.52,7.71-2.52,7.71a34.06,34.06,0,0,0,4.57-10.43,186.33,186.33,0,0,1-4.57,20.48c-.94,3.41-1.86,5.73-1.86,5.73a26.41,26.41,0,0,0-5-.43c-1.25.2-3.25-1.95-3.91-2.36a2.6,2.6,0,0,1-.78-.61,4.23,4.23,0,0,0-2.42-3.5c-.7-1.07-.84-1.08-.84-1.08l-1.31-.26a4.79,4.79,0,0,0-2.32-4.22c0-2.13,0-2.73,0-2.73a3.12,3.12,0,0,1-2.42-3c-1.7-1-1.82-1.75-1.82-1.75l.82-2.18s1.19,1.19,10,.41a20.29,20.29,0,0,0,13.22-6.12s-9.86,4.31-15.41,5a40.19,40.19,0,0,1-5.33.49l.82-2.09s8.51.4,14.87-3.42a22.32,22.32,0,0,0,7.64-10.92c1.26-4.16.5-4.05.5-4.05a5.15,5.15,0,0,1-1-5.1,53.71,53.71,0,0,0-3.06-4.57c0-.09-.46-4.74,2.1-6.29A13.9,13.9,0,0,1,128.14,217.91Z" />
        <path d="M127.45,254.81s-.93,18.94,1,27.12c1.46-.68,3.13-1.43,4.64,0C128.59,264.65,127.31,259,127.45,254.81Z" />
      </g>
      <line class="BUNTAI_RED_PANDA_JEWELRY_BUNTAI_RED_PANDA_JEWELRY_19_cls-7" x1="128.31" y1="217.91" x2="128.31" y2="211.7" />
      <path class="BUNTAI_RED_PANDA_JEWELRY_BUNTAI_RED_PANDA_JEWELRY_19_cls-8" d="M128.3,211.7c-1.68,0-1.41-2.29-1.41-2.29h0a4.58,4.58,0,0,0,2.07.44,1.87,1.87,0,0,0,.92-.23C129.88,209.75,129.91,211.7,128.3,211.7Z" />
      <path class="BUNTAI_RED_PANDA_JEWELRY_BUNTAI_RED_PANDA_JEWELRY_19_cls-8" d="M131.18,202.67c.62,2.05.49,6-1.3,6.94a1.87,1.87,0,0,1-.92.23,4.58,4.58,0,0,1-2.07-.44c-1.53-.74-2.31-2.48-2.21-5.13a8.78,8.78,0,0,1,.48-2.58,5.46,5.46,0,0,1,1.5-2.32,1.88,1.88,0,0,1,1.37-.57,2.34,2.34,0,0,1,1.67,1,3.72,3.72,0,0,1-.74.14h-.05a4.31,4.31,0,0,0-1.88,2.9c-.47,2.24.32,4.77,1.45,4.77s1.28-2.93,1.21-4.49h.09A5.61,5.61,0,0,0,131.18,202.67Z" />
      <path class="BUNTAI_RED_PANDA_JEWELRY_BUNTAI_RED_PANDA_JEWELRY_19_cls-8" d="M126.19,191.72c.4,2.06.6,2.84.6,2.84s-2.05,1.78-.87,4a2.36,2.36,0,0,0,.74.83,5.46,5.46,0,0,0-1.5,2.32A6,6,0,0,1,126.19,191.72Z" />
      <path class="BUNTAI_RED_PANDA_JEWELRY_BUNTAI_RED_PANDA_JEWELRY_19_cls-8" d="M133.88,199.05a4.87,4.87,0,0,1-2.7,3.62,5.22,5.22,0,0,1-1.4.42l-.1,0a5.25,5.25,0,0,1-2.65-.28,4.31,4.31,0,0,1,1.88-2.9H129a3.12,3.12,0,0,0,.74-.14,2.18,2.18,0,0,0,1.56-1.36,1.81,1.81,0,0,0,.09-.58c0-2.38-.94-2.5-.94-2.5s0-.12-.11-.32a3.07,3.07,0,0,1,2.38-2A8.16,8.16,0,0,1,133.88,199.05Z" />
      <path class="BUNTAI_RED_PANDA_JEWELRY_BUNTAI_RED_PANDA_JEWELRY_19_cls-7" d="M125.16,201.69a6,6,0,0,1,1-10c.41,1.7.6,2.84.6,2.84s-2.05,1.78-.87,4a2.36,2.36,0,0,0,.74.83" />
      <path class="BUNTAI_RED_PANDA_JEWELRY_BUNTAI_RED_PANDA_JEWELRY_19_cls-7" d="M127,202.83a5.25,5.25,0,0,0,2.65.28l.1,0a5.22,5.22,0,0,0,1.4-.42,4.87,4.87,0,0,0,2.7-3.62,8.16,8.16,0,0,0-1.2-6" />
      <path class="BUNTAI_RED_PANDA_JEWELRY_BUNTAI_RED_PANDA_JEWELRY_19_cls-7" d="M130.3,195c.06.2.11.32.11.32s.91.12.94,2.5a1.81,1.81,0,0,1-.09.58,2.18,2.18,0,0,1-1.56,1.36,3.12,3.12,0,0,1-.74.14" />
      <path class="BUNTAI_RED_PANDA_JEWELRY_BUNTAI_RED_PANDA_JEWELRY_19_cls-7" d="M131.18,202.67c.62,2.05.49,6-1.3,6.94a1.87,1.87,0,0,1-.92.23,4.58,4.58,0,0,1-2.07-.44c-1.53-.74-2.31-2.48-2.21-5.13a8.78,8.78,0,0,1,.48-2.58,5.46,5.46,0,0,1,1.5-2.32,1.88,1.88,0,0,1,1.37-.57,2.34,2.34,0,0,1,1.67,1" />
      <path class="BUNTAI_RED_PANDA_JEWELRY_BUNTAI_RED_PANDA_JEWELRY_19_cls-7" d="M129.69,203.11c.07,1.56.06,4.49-1.21,4.49s-1.92-2.53-1.45-4.77a4.31,4.31,0,0,1,1.88-2.9H129" />
      <path class="BUNTAI_RED_PANDA_JEWELRY_BUNTAI_RED_PANDA_JEWELRY_19_cls-7" d="M126.89,209.41s-.27,2.29,1.41,2.29,1.58-1.95,1.58-2.09h0" />
      <path class="BUNTAI_RED_PANDA_JEWELRY_BUNTAI_RED_PANDA_JEWELRY_19_cls-7" d="M130.47,197.47a3.12,3.12,0,0,1-.35-1.43,2.92,2.92,0,0,1,.18-1,3.07,3.07,0,0,1,2.38-2,3,3,0,0,1,.52,0,2.08,2.08,0,0,1,2.08,1.54" />
    </g>
  </g>
</svg>