<svg xmlns="http://www.w3.org/2000/svg" viewBox="0 0 432 432">
  <defs>
    <style>.BUNTAI_RED_PANDA_JEWELRY_BUNTAI_RED_PANDA_JEWELRY_30_cls-1{isolation:isolate;}.BUNTAI_RED_PANDA_JEWELRY_BUNTAI_RED_PANDA_JEWELRY_30_cls-2,.BUNTAI_RED_PANDA_JEWELRY_BUNTAI_RED_PANDA_JEWELRY_30_cls-5,.BUNTAI_RED_PANDA_JEWELRY_BUNTAI_RED_PANDA_JEWELRY_30_cls-9{fill:none;stroke-linecap:round;stroke-linejoin:round;}.BUNTAI_RED_PANDA_JEWELRY_BUNTAI_RED_PANDA_JEWELRY_30_cls-2,.BUNTAI_RED_PANDA_JEWELRY_BUNTAI_RED_PANDA_JEWELRY_30_cls-5,.BUNTAI_RED_PANDA_JEWELRY_BUNTAI_RED_PANDA_JEWELRY_30_cls-7,.BUNTAI_RED_PANDA_JEWELRY_BUNTAI_RED_PANDA_JEWELRY_30_cls-9{stroke:#000;}.BUNTAI_RED_PANDA_JEWELRY_BUNTAI_RED_PANDA_JEWELRY_30_cls-2{stroke-width:1.06px;}.BUNTAI_RED_PANDA_JEWELRY_BUNTAI_RED_PANDA_JEWELRY_30_cls-3{fill:#c7a858;}.BUNTAI_RED_PANDA_JEWELRY_BUNTAI_RED_PANDA_JEWELRY_30_cls-4{fill:#10b3c7;}.BUNTAI_RED_PANDA_JEWELRY_BUNTAI_RED_PANDA_JEWELRY_30_cls-5{stroke-width:1.2px;}.BUNTAI_RED_PANDA_JEWELRY_BUNTAI_RED_PANDA_JEWELRY_30_cls-6{opacity:0.43;mix-blend-mode:multiply;}.BUNTAI_RED_PANDA_JEWELRY_BUNTAI_RED_PANDA_JEWELRY_30_cls-7{fill:#754c24;stroke-miterlimit:10;stroke-width:1.5px;}.BUNTAI_RED_PANDA_JEWELRY_BUNTAI_RED_PANDA_JEWELRY_30_cls-8{fill:#22b573;}.BUNTAI_RED_PANDA_JEWELRY_BUNTAI_RED_PANDA_JEWELRY_30_cls-9{stroke-width:0.8px;}</style>
  </defs>
  <g class="BUNTAI_RED_PANDA_JEWELRY_BUNTAI_RED_PANDA_JEWELRY_30_cls-1">
    <g id="jewelry">
      <line class="BUNTAI_RED_PANDA_JEWELRY_BUNTAI_RED_PANDA_JEWELRY_30_cls-2" x1="321.74" y1="211.86" x2="321.74" y2="218.07" />
      <path class="BUNTAI_RED_PANDA_JEWELRY_BUNTAI_RED_PANDA_JEWELRY_30_cls-3" d="M321.75,211.86c1.67,0,1.4-2.29,1.4-2.29h0a4.57,4.57,0,0,1-2.06.43,1.85,1.85,0,0,1-.92-.23C320.16,209.91,320.13,211.86,321.75,211.86Z" />
      <path class="BUNTAI_RED_PANDA_JEWELRY_BUNTAI_RED_PANDA_JEWELRY_30_cls-3" d="M318.86,202.83c-.61,2-.48,6,1.31,6.94a1.85,1.85,0,0,0,.92.23,4.57,4.57,0,0,0,2.06-.43c1.54-.75,2.32-2.49,2.21-5.14a8.48,8.48,0,0,0-.47-2.58,5.55,5.55,0,0,0-1.5-2.32A1.91,1.91,0,0,0,322,199a2.31,2.31,0,0,0-1.67,1,3,3,0,0,0,.74.14h0A4.27,4.27,0,0,1,323,203c.47,2.25-.32,4.77-1.45,4.77s-1.28-2.93-1.2-4.49h-.09A5.69,5.69,0,0,1,318.86,202.83Z" />
      <path class="BUNTAI_RED_PANDA_JEWELRY_BUNTAI_RED_PANDA_JEWELRY_30_cls-3" d="M323.85,191.88c-.39,2.06-.6,2.84-.6,2.84s2.05,1.78.88,4a2.37,2.37,0,0,1-.74.83,5.55,5.55,0,0,1,1.5,2.32A6,6,0,0,0,323.85,191.88Z" />
      <path class="BUNTAI_RED_PANDA_JEWELRY_BUNTAI_RED_PANDA_JEWELRY_30_cls-3" d="M316.17,199.21a4.84,4.84,0,0,0,2.69,3.62,5.74,5.74,0,0,0,1.4.43h.1A5.14,5.14,0,0,0,323,203a4.27,4.27,0,0,0-1.88-2.9h0a3.6,3.6,0,0,1-.74-.15,2.17,2.17,0,0,1-1.56-1.35,1.83,1.83,0,0,1-.09-.59c0-2.38.93-2.49.93-2.49a2.76,2.76,0,0,0,.12-.33,3.07,3.07,0,0,0-2.39-2A8.17,8.17,0,0,0,316.17,199.21Z" />
      <path class="BUNTAI_RED_PANDA_JEWELRY_BUNTAI_RED_PANDA_JEWELRY_30_cls-2" d="M324.89,201.85a6,6,0,0,0-1-10c-.41,1.71-.6,2.84-.6,2.84s2.05,1.78.88,4a2.37,2.37,0,0,1-.74.83" />
      <path class="BUNTAI_RED_PANDA_JEWELRY_BUNTAI_RED_PANDA_JEWELRY_30_cls-2" d="M317.36,193.18a8.17,8.17,0,0,0-1.19,6,4.84,4.84,0,0,0,2.69,3.62,5.74,5.74,0,0,0,1.4.43h.1A5.14,5.14,0,0,0,323,203" />
      <path class="BUNTAI_RED_PANDA_JEWELRY_BUNTAI_RED_PANDA_JEWELRY_30_cls-2" d="M321.09,200.09a3.6,3.6,0,0,1-.74-.15,2.17,2.17,0,0,1-1.56-1.35,1.83,1.83,0,0,1-.09-.59c0-2.38.93-2.49.93-2.49a2.76,2.76,0,0,0,.12-.33" />
      <path class="BUNTAI_RED_PANDA_JEWELRY_BUNTAI_RED_PANDA_JEWELRY_30_cls-2" d="M318.86,202.83c-.61,2-.48,6,1.31,6.94a1.85,1.85,0,0,0,.92.23,4.57,4.57,0,0,0,2.06-.43c1.54-.75,2.32-2.49,2.21-5.14a8.48,8.48,0,0,0-.47-2.58,5.55,5.55,0,0,0-1.5-2.32A1.91,1.91,0,0,0,322,199a2.31,2.31,0,0,0-1.67,1" />
      <path class="BUNTAI_RED_PANDA_JEWELRY_BUNTAI_RED_PANDA_JEWELRY_30_cls-2" d="M320.36,203.27c-.08,1.56-.06,4.49,1.2,4.49s1.92-2.52,1.45-4.77a4.27,4.27,0,0,0-1.88-2.9h0" />
      <path class="BUNTAI_RED_PANDA_JEWELRY_BUNTAI_RED_PANDA_JEWELRY_30_cls-2" d="M323.15,209.57s.27,2.29-1.4,2.29-1.59-2-1.58-2.09h0" />
      <path class="BUNTAI_RED_PANDA_JEWELRY_BUNTAI_RED_PANDA_JEWELRY_30_cls-2" d="M319.57,197.63a3,3,0,0,0,.35-1.43,3.16,3.16,0,0,0-.17-1,3.07,3.07,0,0,0-2.39-2,2.87,2.87,0,0,0-.52-.05,2.1,2.1,0,0,0-2.08,1.55" />
      <path class="BUNTAI_RED_PANDA_JEWELRY_BUNTAI_RED_PANDA_JEWELRY_30_cls-3" d="M329.32,228.54a7.83,7.83,0,1,0-7.83,7.83A7.84,7.84,0,0,0,329.32,228.54Zm-7.83-10.3h.12a10.3,10.3,0,0,1,10.18,10.3,10.45,10.45,0,0,1-1.4,5.2,10.42,10.42,0,0,1-5,4.35,10.13,10.13,0,0,1-3.86.75h0a10.22,10.22,0,0,1-3-.46,10.25,10.25,0,0,1-5.52-4.12,10,10,0,0,1-1.48-3.48,9.74,9.74,0,0,1-.25-2.24A10.3,10.3,0,0,1,321.49,218.24Z" />
      <path class="BUNTAI_RED_PANDA_JEWELRY_BUNTAI_RED_PANDA_JEWELRY_30_cls-4" d="M300.17,240.24a10.5,10.5,0,0,0-.79,3.36,35.94,35.94,0,0,1,7.69-9.53h0l.78-.66c-.23,0-.47.06-.69.11a10.18,10.18,0,0,0-4.79,2.32l1.91-.49A10.86,10.86,0,0,0,300.17,240.24Z" />
      <path class="BUNTAI_RED_PANDA_JEWELRY_BUNTAI_RED_PANDA_JEWELRY_30_cls-4" d="M299.38,243.6h0q0,.44,0,.87a38.94,38.94,0,0,0,3.83-3.1l.17.16a13.9,13.9,0,0,1,2.26-2h0a28,28,0,0,0,1.45-5.46A35.94,35.94,0,0,0,299.38,243.6Z" />
      <path class="BUNTAI_RED_PANDA_JEWELRY_BUNTAI_RED_PANDA_JEWELRY_30_cls-4" d="M300.57,248.65a24.27,24.27,0,0,0,.26,5.9c.26-.25.52-.49.79-.72a36.85,36.85,0,0,1,7.87-16v-.22a14.34,14.34,0,0,0-3.87,1.94h0a13.9,13.9,0,0,0-2.26,2l1.64.11a5.2,5.2,0,0,0-3.33,2.72A10.71,10.71,0,0,0,300.57,248.65Z" />
      <path class="BUNTAI_RED_PANDA_JEWELRY_BUNTAI_RED_PANDA_JEWELRY_30_cls-4" d="M309.49,237.81a36.85,36.85,0,0,0-7.87,16c.92-.79,1.92-1.5,2.86-2.28.34-.28.67-.57,1-.89,0-.59.13-1.17.23-1.75a6.43,6.43,0,0,1,3-4.39l-1.47-.05a11.58,11.58,0,0,1,2.26-2.53Z" />
      <path class="BUNTAI_RED_PANDA_JEWELRY_BUNTAI_RED_PANDA_JEWELRY_30_cls-4" d="M305.47,250.66a24,24,0,0,0,.45,7.55,46.15,46.15,0,0,1,7.21-18.36h0a12.09,12.09,0,0,0-3.6,2.11,11.58,11.58,0,0,0-2.26,2.53l1.47.05a6.43,6.43,0,0,0-3,4.39C305.6,249.49,305.52,250.07,305.47,250.66Z" />
      <path class="BUNTAI_RED_PANDA_JEWELRY_BUNTAI_RED_PANDA_JEWELRY_30_cls-4" d="M305.92,258.21h0c.17.79.38,1.57.62,2.34a27.11,27.11,0,0,1,4.38-5.88,8,8,0,0,1,1-3A22.65,22.65,0,0,1,314.4,248c-.45.07-.83.16-1.24.24-.18,0-.36.07-.55.09.23-.43.47-.86.72-1.28a23.88,23.88,0,0,0-.2-7.21A46.15,46.15,0,0,0,305.92,258.21Z" />
      <path class="BUNTAI_RED_PANDA_JEWELRY_BUNTAI_RED_PANDA_JEWELRY_30_cls-4" d="M313.33,247.06c-.25.42-.49.85-.72,1.28.19,0,.37-.06.55-.09.41-.08.79-.17,1.24-.24a22.65,22.65,0,0,0-2.51,3.64,8,8,0,0,0-1,3c-.4,3.36,1.08,7.09,3.13,10.17a71.38,71.38,0,0,1,3.12-22.72.3.3,0,0,1,0-.1A28.16,28.16,0,0,0,313.33,247.06Z" />
      <path class="BUNTAI_RED_PANDA_JEWELRY_BUNTAI_RED_PANDA_JEWELRY_30_cls-4" d="M317,257.93a35.69,35.69,0,0,0,1-10.25,2.55,2.55,0,0,1,.35.14,14.8,14.8,0,0,1,.4-2.32c-.28-.64-.6-1.25-.9-1.88a10.82,10.82,0,0,1-.61-1.49,71.38,71.38,0,0,0-3.12,22.72c.3.44.6.87.91,1.28C315.24,263.41,316.29,260.69,317,257.93Z" />
      <path class="BUNTAI_RED_PANDA_JEWELRY_BUNTAI_RED_PANDA_JEWELRY_30_cls-4" d="M318.28,247.82c-.11,1.2-.12,2.43-.11,3.63a5.2,5.2,0,0,1,2.71.06,10.41,10.41,0,0,0-2.2,2,32.11,32.11,0,0,0,3.18,13.5,14.26,14.26,0,0,0,2.93-5.71,28.79,28.79,0,0,0,.35-8.7c-.52-.62-1.14-1.32-1.67-1.93.57-.29,1-.56,1.59-.84,0-.58,0-1.17,0-1.77a6.44,6.44,0,0,0-.15-1.82,2.88,2.88,0,0,0-.33-.79,27,27,0,0,0-3-4c-.09-.1-.18-.21-.28-.31a8.27,8.27,0,0,0-1.84,2.36,9.23,9.23,0,0,0-.77,2A14.8,14.8,0,0,0,318.28,247.82Z" />
      <path class="BUNTAI_RED_PANDA_JEWELRY_BUNTAI_RED_PANDA_JEWELRY_30_cls-4" d="M329.85,264.82a71.44,71.44,0,0,0-3.12-22.69,14.08,14.08,0,0,1-.61,1.49,26.54,26.54,0,0,0-1.19,2.61,6.44,6.44,0,0,1,.15,1.82c.3-.13.6-.27.88-.37a35.35,35.35,0,0,0,1,10.25c.67,2.76,1.72,5.48,2,8.2.32-.41.63-.84.91-1.28h0Z" />
      <path class="BUNTAI_RED_PANDA_JEWELRY_BUNTAI_RED_PANDA_JEWELRY_30_cls-4" d="M326.73,242.13a71.44,71.44,0,0,1,3.12,22.69c2.06-3.08,3.53-6.79,3.13-10.14a8.13,8.13,0,0,0-1-3A24.07,24.07,0,0,0,329.5,248c.64.09,1.15.25,1.79.33-.23-.43-.47-.86-.72-1.28a28.69,28.69,0,0,0-3.81-5Z" />
      <path class="BUNTAI_RED_PANDA_JEWELRY_BUNTAI_RED_PANDA_JEWELRY_30_cls-4" d="M330.77,239.85a23.88,23.88,0,0,0-.2,7.21c.25.42.49.85.72,1.28-.64-.08-1.15-.24-1.79-.33a24.07,24.07,0,0,1,2.52,3.64,8.13,8.13,0,0,1,1,3,27,27,0,0,1,4.37,5.88,24,24,0,0,0,.63-2.35A46.3,46.3,0,0,0,330.77,239.85Z" />
      <path class="BUNTAI_RED_PANDA_JEWELRY_BUNTAI_RED_PANDA_JEWELRY_30_cls-4" d="M330.77,239.85A46.3,46.3,0,0,1,338,258.21a24.26,24.26,0,0,0,.45-7.55c-.06-.59-.13-1.17-.24-1.75a6.45,6.45,0,0,0-3-4.39l1.47-.05a11.84,11.84,0,0,0-2.26-2.53,12.14,12.14,0,0,0-3.61-2.11h0Z" />
      <path class="BUNTAI_RED_PANDA_JEWELRY_BUNTAI_RED_PANDA_JEWELRY_30_cls-4" d="M335.17,244.52a6.45,6.45,0,0,1,3,4.39c.11.58.18,1.16.24,1.75.32.32.65.61,1,.89.94.78,1.94,1.49,2.86,2.28a37,37,0,0,0-7.87-16l0,4.13a11.84,11.84,0,0,1,2.26,2.53Z" />
      <path class="BUNTAI_RED_PANDA_JEWELRY_BUNTAI_RED_PANDA_JEWELRY_30_cls-4" d="M334.41,237.81a37,37,0,0,1,7.87,16q.41.34.78.72a23.78,23.78,0,0,0,.26-5.9,10.7,10.7,0,0,0-1.08-4.28,5.22,5.22,0,0,0-3.34-2.72l1.64-.11-.05-.06a13.2,13.2,0,0,0-2.21-1.95,14.34,14.34,0,0,0-3.87-1.94Z" />
      <path class="BUNTAI_RED_PANDA_JEWELRY_BUNTAI_RED_PANDA_JEWELRY_30_cls-4" d="M336.83,234.07a27.32,27.32,0,0,0,1.45,5.46,13.2,13.2,0,0,1,2.21,1.95l.17-.16a37.6,37.6,0,0,0,3.88,3.16v-.22c0-.21,0-.43,0-.65A35.76,35.76,0,0,0,336.83,234.07Z" />
      <path class="BUNTAI_RED_PANDA_JEWELRY_BUNTAI_RED_PANDA_JEWELRY_30_cls-4" d="M336.83,234.07a35.76,35.76,0,0,1,7.68,9.54,10.55,10.55,0,0,0-.78-3.37,10.86,10.86,0,0,0-4.11-4.9l1.91.49a10.18,10.18,0,0,0-4.79-2.32c-.23,0-.46-.08-.69-.11l.78.66Z" />
      <path class="BUNTAI_RED_PANDA_JEWELRY_BUNTAI_RED_PANDA_JEWELRY_30_cls-5" d="M321.61,218.24h-.12a10.3,10.3,0,0,0-10.3,10.3,9.74,9.74,0,0,0,.25,2.24,10,10,0,0,0,1.48,3.48,10.25,10.25,0,0,0,5.52,4.12,10.22,10.22,0,0,0,3,.46h0a10.13,10.13,0,0,0,3.86-.75,10.42,10.42,0,0,0,5-4.35,10.45,10.45,0,0,0,1.4-5.2A10.3,10.3,0,0,0,321.61,218.24Z" />
      <circle class="BUNTAI_RED_PANDA_JEWELRY_BUNTAI_RED_PANDA_JEWELRY_30_cls-5" cx="321.49" cy="228.54" r="7.83" />
      <path class="BUNTAI_RED_PANDA_JEWELRY_BUNTAI_RED_PANDA_JEWELRY_30_cls-5" d="M321.48,238.84c0,.69,0,1.37.07,2,0,.18,0,.35,0,.53.23,6.93.48,13.86.71,20.78" />
      <path class="BUNTAI_RED_PANDA_JEWELRY_BUNTAI_RED_PANDA_JEWELRY_30_cls-5" d="M321.29,241.11l.26-.22" />
      <path class="BUNTAI_RED_PANDA_JEWELRY_BUNTAI_RED_PANDA_JEWELRY_30_cls-5" d="M321.57,241.42c-.09-.1-.18-.21-.28-.31a8.27,8.27,0,0,0-1.84,2.36,9.23,9.23,0,0,0-.77,2,14.8,14.8,0,0,0-.4,2.32c-.11,1.2-.12,2.43-.11,3.63a5.2,5.2,0,0,1,2.71.06,10.41,10.41,0,0,0-2.2,2,32.11,32.11,0,0,0,3.18,13.5,14.26,14.26,0,0,0,2.93-5.71,28.79,28.79,0,0,0,.35-8.7c-.52-.62-1.14-1.32-1.67-1.93.57-.29,1-.56,1.59-.84,0-.58,0-1.17,0-1.77a6.44,6.44,0,0,0-.15-1.82,2.88,2.88,0,0,0-.33-.79,27,27,0,0,0-3-4" />
      <path class="BUNTAI_RED_PANDA_JEWELRY_BUNTAI_RED_PANDA_JEWELRY_30_cls-5" d="M325.35,238.09c.47,1.26.91,2.54,1.31,3.84a1.18,1.18,0,0,1,.07.2,71.44,71.44,0,0,1,3.12,22.69v0h0" />
      <path class="BUNTAI_RED_PANDA_JEWELRY_BUNTAI_RED_PANDA_JEWELRY_30_cls-5" d="M326.66,241.93a.47.47,0,0,1,.1.1,28.69,28.69,0,0,1,3.81,5c.25.42.49.85.72,1.28-.64-.08-1.15-.24-1.79-.33a24.07,24.07,0,0,1,2.52,3.64,8.13,8.13,0,0,1,1,3c.4,3.35-1.07,7.06-3.13,10.14v0h0c-.28.44-.59.87-.91,1.28" />
      <path class="BUNTAI_RED_PANDA_JEWELRY_BUNTAI_RED_PANDA_JEWELRY_30_cls-5" d="M328.93,266.13c-.28-2.72-1.33-5.44-2-8.2a35.35,35.35,0,0,1-1-10.25c-.28.1-.58.24-.88.37" />
      <path class="BUNTAI_RED_PANDA_JEWELRY_BUNTAI_RED_PANDA_JEWELRY_30_cls-5" d="M324.93,246.23a26.54,26.54,0,0,1,1.19-2.61,14.08,14.08,0,0,0,.61-1.49l0-.1" />
      <path class="BUNTAI_RED_PANDA_JEWELRY_BUNTAI_RED_PANDA_JEWELRY_30_cls-5" d="M330.77,239.85A46.3,46.3,0,0,1,338,258.21" />
      <path class="BUNTAI_RED_PANDA_JEWELRY_BUNTAI_RED_PANDA_JEWELRY_30_cls-5" d="M328.19,236.36q1.37,1.66,2.56,3.47h0" />
      <path class="BUNTAI_RED_PANDA_JEWELRY_BUNTAI_RED_PANDA_JEWELRY_30_cls-5" d="M330.75,239.83h0a12.14,12.14,0,0,1,3.61,2.11,11.84,11.84,0,0,1,2.26,2.53l-1.47.05a6.45,6.45,0,0,1,3,4.39c.11.58.18,1.16.24,1.75a24.26,24.26,0,0,1-.45,7.55,24,24,0,0,1-.63,2.35" />
      <path class="BUNTAI_RED_PANDA_JEWELRY_BUNTAI_RED_PANDA_JEWELRY_30_cls-5" d="M330.57,247.06a23.88,23.88,0,0,1,.2-7.21h0" />
      <path class="BUNTAI_RED_PANDA_JEWELRY_BUNTAI_RED_PANDA_JEWELRY_30_cls-5" d="M333,254.68a27,27,0,0,1,4.37,5.88" />
      <path class="BUNTAI_RED_PANDA_JEWELRY_BUNTAI_RED_PANDA_JEWELRY_30_cls-5" d="M342.28,253.83a37,37,0,0,0-7.87-16,3.58,3.58,0,0,0-.26-.29,35.31,35.31,0,0,0-3.76-3.78" />
      <path class="BUNTAI_RED_PANDA_JEWELRY_BUNTAI_RED_PANDA_JEWELRY_30_cls-5" d="M343.06,254.55a23.78,23.78,0,0,0,.26-5.9,10.7,10.7,0,0,0-1.08-4.28,5.22,5.22,0,0,0-3.34-2.72l1.64-.11-.05-.06a13.2,13.2,0,0,0-2.21-1.95,14.34,14.34,0,0,0-3.87-1.94l-.26-.07" />
      <path class="BUNTAI_RED_PANDA_JEWELRY_BUNTAI_RED_PANDA_JEWELRY_30_cls-5" d="M334.41,237.59v.22l0,4.13" />
      <path class="BUNTAI_RED_PANDA_JEWELRY_BUNTAI_RED_PANDA_JEWELRY_30_cls-5" d="M336.83,234.06l-.78-.66a34.77,34.77,0,0,0-4.41-3.12" />
      <path class="BUNTAI_RED_PANDA_JEWELRY_BUNTAI_RED_PANDA_JEWELRY_30_cls-5" d="M344.51,243.61a35.76,35.76,0,0,0-7.68-9.54" />
      <path class="BUNTAI_RED_PANDA_JEWELRY_BUNTAI_RED_PANDA_JEWELRY_30_cls-5" d="M336.05,233.4c.23,0,.46.06.69.11a10.18,10.18,0,0,1,4.79,2.32l-1.91-.49a10.86,10.86,0,0,1,4.11,4.9,10.55,10.55,0,0,1,.78,3.37c0,.22,0,.44,0,.65v.22" />
      <path class="BUNTAI_RED_PANDA_JEWELRY_BUNTAI_RED_PANDA_JEWELRY_30_cls-5" d="M339.72,240a5.92,5.92,0,0,0,.94,1.33,37.6,37.6,0,0,0,3.88,3.16h0" />
      <path class="BUNTAI_RED_PANDA_JEWELRY_BUNTAI_RED_PANDA_JEWELRY_30_cls-5" d="M336.83,234.06h0a27.32,27.32,0,0,0,1.45,5.46" />
      <path class="BUNTAI_RED_PANDA_JEWELRY_BUNTAI_RED_PANDA_JEWELRY_30_cls-5" d="M338.43,250.66c.32.32.65.61,1,.89.94.78,1.94,1.49,2.86,2.28q.41.34.78.72" />
      <path class="BUNTAI_RED_PANDA_JEWELRY_BUNTAI_RED_PANDA_JEWELRY_30_cls-5" d="M314.05,264.85a71.38,71.38,0,0,1,3.12-22.72l.06-.2c.37-1.2.77-2.38,1.21-3.55" />
      <path class="BUNTAI_RED_PANDA_JEWELRY_BUNTAI_RED_PANDA_JEWELRY_30_cls-5" d="M317.23,241.93l-.1.1a28.16,28.16,0,0,0-3.8,5c-.25.42-.49.85-.72,1.28.19,0,.37-.06.55-.09.41-.08.79-.17,1.24-.24a22.65,22.65,0,0,0-2.51,3.64,8,8,0,0,0-1,3c-.4,3.36,1.08,7.09,3.13,10.17.3.44.6.87.91,1.28" />
      <path class="BUNTAI_RED_PANDA_JEWELRY_BUNTAI_RED_PANDA_JEWELRY_30_cls-5" d="M318.28,247.82a2.55,2.55,0,0,0-.35-.14,35.69,35.69,0,0,1-1,10.25c-.68,2.76-1.73,5.48-2,8.2" />
      <path class="BUNTAI_RED_PANDA_JEWELRY_BUNTAI_RED_PANDA_JEWELRY_30_cls-5" d="M318.68,245.5c-.28-.64-.6-1.25-.9-1.88a10.82,10.82,0,0,1-.61-1.49.3.3,0,0,1,0-.1" />
      <path class="BUNTAI_RED_PANDA_JEWELRY_BUNTAI_RED_PANDA_JEWELRY_30_cls-5" d="M313.13,239.84h0c.69-1,1.43-2.05,2.2-3" />
      <path class="BUNTAI_RED_PANDA_JEWELRY_BUNTAI_RED_PANDA_JEWELRY_30_cls-5" d="M305.92,258.21a46.15,46.15,0,0,1,7.21-18.36" />
      <path class="BUNTAI_RED_PANDA_JEWELRY_BUNTAI_RED_PANDA_JEWELRY_30_cls-5" d="M306.54,260.56c-.24-.77-.45-1.55-.62-2.34h0a24,24,0,0,1-.45-7.55c0-.59.13-1.17.23-1.75a6.43,6.43,0,0,1,3-4.39l-1.47-.05a11.58,11.58,0,0,1,2.26-2.53,12.09,12.09,0,0,1,3.6-2.11h0" />
      <path class="BUNTAI_RED_PANDA_JEWELRY_BUNTAI_RED_PANDA_JEWELRY_30_cls-5" d="M313.33,247.06a23.88,23.88,0,0,0-.2-7.21h0" />
      <path class="BUNTAI_RED_PANDA_JEWELRY_BUNTAI_RED_PANDA_JEWELRY_30_cls-5" d="M306.54,260.56a27.11,27.11,0,0,1,4.38-5.88" />
      <path class="BUNTAI_RED_PANDA_JEWELRY_BUNTAI_RED_PANDA_JEWELRY_30_cls-5" d="M312.92,234.26a33.77,33.77,0,0,0-3.18,3.26,3.47,3.47,0,0,0-.25.29,36.85,36.85,0,0,0-7.87,16" />
      <path class="BUNTAI_RED_PANDA_JEWELRY_BUNTAI_RED_PANDA_JEWELRY_30_cls-5" d="M305.61,239.53a13.9,13.9,0,0,0-2.26,2l1.64.11a5.2,5.2,0,0,0-3.33,2.72,10.71,10.71,0,0,0-1.09,4.28,24.27,24.27,0,0,0,.26,5.9" />
      <path class="BUNTAI_RED_PANDA_JEWELRY_BUNTAI_RED_PANDA_JEWELRY_30_cls-5" d="M309.74,237.52l-.25.07a14.34,14.34,0,0,0-3.87,1.94" />
      <path class="BUNTAI_RED_PANDA_JEWELRY_BUNTAI_RED_PANDA_JEWELRY_30_cls-5" d="M309.49,237.59v.22l0,4.13" />
      <path class="BUNTAI_RED_PANDA_JEWELRY_BUNTAI_RED_PANDA_JEWELRY_30_cls-5" d="M307.07,234.07a35.94,35.94,0,0,0-7.69,9.53" />
      <path class="BUNTAI_RED_PANDA_JEWELRY_BUNTAI_RED_PANDA_JEWELRY_30_cls-5" d="M311.44,230.78a33,33,0,0,0-3.59,2.62l-.78.66" />
      <path class="BUNTAI_RED_PANDA_JEWELRY_BUNTAI_RED_PANDA_JEWELRY_30_cls-5" d="M307.85,233.4c-.23,0-.47.06-.69.11a10.18,10.18,0,0,0-4.79,2.32l1.91-.49a10.86,10.86,0,0,0-4.11,4.9,10.5,10.5,0,0,0-.79,3.36h0q0,.44,0,.87" />
      <path class="BUNTAI_RED_PANDA_JEWELRY_BUNTAI_RED_PANDA_JEWELRY_30_cls-5" d="M304.17,240a6,6,0,0,1-1,1.39,38.94,38.94,0,0,1-3.83,3.1h0" />
      <path class="BUNTAI_RED_PANDA_JEWELRY_BUNTAI_RED_PANDA_JEWELRY_30_cls-5" d="M307.07,234.06h0a28,28,0,0,1-1.45,5.46h0" />
      <path class="BUNTAI_RED_PANDA_JEWELRY_BUNTAI_RED_PANDA_JEWELRY_30_cls-5" d="M305.47,250.66c-.32.32-.65.61-1,.89-.94.78-1.94,1.49-2.86,2.28-.27.23-.53.47-.79.72" />
      <g class="BUNTAI_RED_PANDA_JEWELRY_BUNTAI_RED_PANDA_JEWELRY_30_cls-6">
        <path d="M337,233.74s3.19.13,4.28,2.62a12.12,12.12,0,0,1,2.79,7.77c-1.85-1.39-2.72-2.1-2.72-2.1a33.72,33.72,0,0,0-2.48-5.22,28.09,28.09,0,0,0,1.39,6s4.21,5.14,2.42,11.05c-2.19-4.58-5.16-11.8-5.16-11.8a78.45,78.45,0,0,1,1,8.49c0,2.18-.1,6.55-1.54,9-2.27-2.87-3.3-4.37-3.3-4.37s-.85-.65-1.25-4.67-1.05-7.69-1.05-7.69l3.21,8.38L333,241.56l-2.23-.56s.13,6.72.21,10.26-.78,11.45-2.36,14.07c-1.67-7.4-2.58-12.45-2.75-13.11s-1.13,2.46-1.13,2.46-.47,9.15-2.84,11.45c-.57-9.76-1.53-17.72-1.75-19.09s1-4.26,1-4.26l.46-.54s.47,8.23.33,13.47c1.39-10.13,1.62-11.93,1.62-11.93l1.17,2.29,2.09-2.81s2,10.73,1.84,13.64l.35-12.24,1.63.84s-.6-5.2,0-5.51c2.79.91,3.57,1.76,3.57,1.76l.51-3.25,3.32.33Z" />
        <path d="M328.19,220.71a10.38,10.38,0,0,1,3.15,10.86c-1.95,6.9-12.26,10.51-17.82,3.49,3.23,2,10.8,4.67,15.17-1.32S328.19,220.71,328.19,220.71Z" />
      </g>
      <path class="BUNTAI_RED_PANDA_JEWELRY_BUNTAI_RED_PANDA_JEWELRY_30_cls-7" d="M240.19,394.05l-.09,0-.57.2-.48.16-.46.15h0l-.06,0-.33.11a1.55,1.55,0,0,1-.31.06h-.2a.63.63,0,0,1-.19,0l-.07,0h-.07l-.45-.11-1-.23-.59-.14-.53-.14-.11,0c-1-.26-2-.53-3-.82-31.83-9.11-48.08-30.71-56.18-47.72A107.5,107.5,0,0,1,169.8,331a.32.32,0,0,0,0-.07c-.1-.42-.81-3.44,1.4-4.29a4.5,4.5,0,0,1,4.42.9c.13.44-1,1.09-3.2,2.22a102.82,102.82,0,0,0,5.38,15c7.79,16.33,23.32,37,53.5,46.05h0c1.42.42,2.86.82,4.34,1.19l2.06.5.91-.31Z" />
      <path class="BUNTAI_RED_PANDA_JEWELRY_BUNTAI_RED_PANDA_JEWELRY_30_cls-7" d="M302.66,336.55l-.46,1.29c-.52,1.32-1.08,2.66-1.69,4-7.37,16.48-23.16,38.26-56.73,50.9l-3.59,1.3-.09,0-.57.2-1,.32-.06,0c-.26.08-.49.14-.64.17h-.2l-.26-.05h-.07c-.53-.11-1.42-.33-2-.48l-.64-.16-.1-2.42,1.07.26,2.06.5.91-.31,4-1.4c33-12.34,48.44-33.65,55.65-49.76.72-1.6,1.38-3.12,2-4.67a27,27,0,0,0-2.7-1.36c.86-1.63,4.17-1.63,5.1-.46C303.13,335.17,302.67,336.38,302.66,336.55Z" />
      <path class="BUNTAI_RED_PANDA_JEWELRY_BUNTAI_RED_PANDA_JEWELRY_30_cls-8" d="M253.48,401.76c1.53,3.9-2.06,8.68-8,10.68s-12,.47-13.52-3.42v0c-1.49-3.89,2.08-8.65,8-10.65s11.95-.48,13.5,3.38h0Z" />
      <path class="BUNTAI_RED_PANDA_JEWELRY_BUNTAI_RED_PANDA_JEWELRY_30_cls-3" d="M253.13,400.17a4.63,4.63,0,0,1,.33,1.55c-1.55-3.86-7.58-5.38-13.5-3.38s-9.5,6.76-8,10.65a5.47,5.47,0,0,1-.82-1.4c-1.1-2.8.5-6.07,3.74-8.45a16.34,16.34,0,0,1,4-2.14l.5-.17a17.36,17.36,0,0,1,2-.55,16.56,16.56,0,0,1,3.58-.37C248.86,396,252.09,397.5,253.13,400.17Z" />
      <path class="BUNTAI_RED_PANDA_JEWELRY_BUNTAI_RED_PANDA_JEWELRY_30_cls-3" d="M236.52,386.34a2.92,2.92,0,0,0-1.69,3.83,4.63,4.63,0,0,0,.28.73,52,52,0,0,0,3.76,6.1,16.34,16.34,0,0,0-4,2.14c-1-1.42-4.07-5.85-3.54-8.69A5.08,5.08,0,0,1,236.52,386.34Z" />
      <path class="BUNTAI_RED_PANDA_JEWELRY_BUNTAI_RED_PANDA_JEWELRY_30_cls-3" d="M242.56,390.72c-1.3.48-2.61.95-4,1.4a4.07,4.07,0,0,0-3.49-1.22,5,5,0,0,1-.28-.73,2.92,2.92,0,0,1,1.69-3.83,5.18,5.18,0,0,1,1.39.22l.23.09.2.08,0,0a4.43,4.43,0,0,1,.71.41h0l.24.17a13.8,13.8,0,0,1,2.84,2.87l.24.33Z" />
      <path class="BUNTAI_RED_PANDA_JEWELRY_BUNTAI_RED_PANDA_JEWELRY_30_cls-3" d="M245,395.91a16.56,16.56,0,0,0-3.58.37,15.72,15.72,0,0,0-1.2-2.23c1.22-.42,2.42-.85,3.59-1.3A14.23,14.23,0,0,1,245,395.91Z" />
      <path class="BUNTAI_RED_PANDA_JEWELRY_BUNTAI_RED_PANDA_JEWELRY_30_cls-9" d="M253.46,401.73l0,0c1.53,3.9-2.06,8.68-8,10.68s-12,.47-13.52-3.42v0c-1.49-3.89,2.08-8.65,8-10.65s11.95-.48,13.5,3.38" />
      <path class="BUNTAI_RED_PANDA_JEWELRY_BUNTAI_RED_PANDA_JEWELRY_30_cls-9" d="M253.46,401.73h0a4.63,4.63,0,0,0-.33-1.55c-1-2.67-4.27-4.21-8.16-4.26a16.56,16.56,0,0,0-3.58.37,17.36,17.36,0,0,0-2,.55l-.5.17a16.34,16.34,0,0,0-4,2.14c-3.24,2.38-4.84,5.65-3.74,8.45A5.47,5.47,0,0,0,232,409" />
      <path class="BUNTAI_RED_PANDA_JEWELRY_BUNTAI_RED_PANDA_JEWELRY_30_cls-9" d="M236.52,386.34a5.18,5.18,0,0,1,1.39.22l.23.09.2.08,0,0,.17.09a3.82,3.82,0,0,1,.54.32h0l.24.17a13.8,13.8,0,0,1,2.84,2.87l.24.33.14.19" />
      <path class="BUNTAI_RED_PANDA_JEWELRY_BUNTAI_RED_PANDA_JEWELRY_30_cls-9" d="M241.39,396.28a15.72,15.72,0,0,0-1.2-2.23l3.59-1.3a14.23,14.23,0,0,1,1.19,3.16" />
      <path class="BUNTAI_RED_PANDA_JEWELRY_BUNTAI_RED_PANDA_JEWELRY_30_cls-9" d="M234.87,399.14c-1-1.42-4.07-5.85-3.54-8.69a5.08,5.08,0,0,1,5.19-4.11" />
      <path class="BUNTAI_RED_PANDA_JEWELRY_BUNTAI_RED_PANDA_JEWELRY_30_cls-9" d="M238.87,397a52,52,0,0,1-3.76-6.1,4.63,4.63,0,0,1-.28-.73,2.92,2.92,0,0,1,1.69-3.83h0" />
      <path class="BUNTAI_RED_PANDA_JEWELRY_BUNTAI_RED_PANDA_JEWELRY_30_cls-9" d="M235.11,390.9a4.07,4.07,0,0,1,3.49,1.22" />
      <path class="BUNTAI_RED_PANDA_JEWELRY_BUNTAI_RED_PANDA_JEWELRY_30_cls-9" d="M233.92,405.26s3,1.26,7.89-.63,5.39-4.6,5.39-4.6" />
      <path class="BUNTAI_RED_PANDA_JEWELRY_BUNTAI_RED_PANDA_JEWELRY_30_cls-9" d="M244.61,399.14a8.68,8.68,0,0,1-2.29,5.29" />
      <path class="BUNTAI_RED_PANDA_JEWELRY_BUNTAI_RED_PANDA_JEWELRY_30_cls-9" d="M242.32,400.45s.71,2.22-2.55,4.83" />
      <path class="BUNTAI_RED_PANDA_JEWELRY_BUNTAI_RED_PANDA_JEWELRY_30_cls-9" d="M238.45,405.53a5.84,5.84,0,0,0,2.11-3.74" />
      <path class="BUNTAI_RED_PANDA_JEWELRY_BUNTAI_RED_PANDA_JEWELRY_30_cls-9" d="M240.84,405s-3,3.37-4.64,3.29,0-1.93.85-1.88.28.94-.06,1.07" />
      <path class="BUNTAI_RED_PANDA_JEWELRY_BUNTAI_RED_PANDA_JEWELRY_30_cls-9" d="M236.46,410.26a18.93,18.93,0,0,1,5.33-3.64,25.69,25.69,0,0,1,7.72-1.64" />
      <path class="BUNTAI_RED_PANDA_JEWELRY_BUNTAI_RED_PANDA_JEWELRY_30_cls-9" d="M242.72,409.82s-1.13-2.21-3.32-1.92" />
      <path class="BUNTAI_RED_PANDA_JEWELRY_BUNTAI_RED_PANDA_JEWELRY_30_cls-9" d="M240.84,407.06s3.11,1.13,3.73,3.31" />
      <path class="BUNTAI_RED_PANDA_JEWELRY_BUNTAI_RED_PANDA_JEWELRY_30_cls-9" d="M242.56,406.33s2.72,1.42,3.15,2.88" />
      <path class="BUNTAI_RED_PANDA_JEWELRY_BUNTAI_RED_PANDA_JEWELRY_30_cls-9" d="M245.3,405.56s3,.7,3.54,2.06" />
      <path class="BUNTAI_RED_PANDA_JEWELRY_BUNTAI_RED_PANDA_JEWELRY_30_cls-9" d="M237.45,402s-.16,1.5.84,1.67l1,.16S239.53,402.39,237.45,402Z" />
      <path class="BUNTAI_RED_PANDA_JEWELRY_BUNTAI_RED_PANDA_JEWELRY_30_cls-9" d="M241.18,399.66s-1,.76-.51,1.36l.47.6S242.11,400.93,241.18,399.66Z" />
      <path class="BUNTAI_RED_PANDA_JEWELRY_BUNTAI_RED_PANDA_JEWELRY_30_cls-9" d="M245.13,404.54a3.13,3.13,0,0,1,2.65-1.44C247.06,404.41,246.79,404.33,245.13,404.54Z" />
      <path class="BUNTAI_RED_PANDA_JEWELRY_BUNTAI_RED_PANDA_JEWELRY_30_cls-9" d="M248.78,402.91a2.06,2.06,0,0,1,2.69-1A2.62,2.62,0,0,1,248.78,402.91Z" />
      <path class="BUNTAI_RED_PANDA_JEWELRY_BUNTAI_RED_PANDA_JEWELRY_30_cls-9" d="M247.5,402.32s.14-2.16,1.36-2.63A2.17,2.17,0,0,1,247.5,402.32Z" />
      <path class="BUNTAI_RED_PANDA_JEWELRY_BUNTAI_RED_PANDA_JEWELRY_30_cls-9" d="M248.13,404.07a2.34,2.34,0,0,1,2.82,0A2.52,2.52,0,0,1,248.13,404.07Z" />
      <path class="BUNTAI_RED_PANDA_JEWELRY_BUNTAI_RED_PANDA_JEWELRY_30_cls-9" d="M248.47,406.18s.22,1.07,2.25.9C250.23,406.3,250.22,406,248.47,406.18Z" />
      <path class="BUNTAI_RED_PANDA_JEWELRY_BUNTAI_RED_PANDA_JEWELRY_30_cls-9" d="M245.49,406.73a2.26,2.26,0,0,1,1.71.68,3.45,3.45,0,0,1,.76,1.69S245.62,408.64,245.49,406.73Z" />
      <path class="BUNTAI_RED_PANDA_JEWELRY_BUNTAI_RED_PANDA_JEWELRY_30_cls-9" d="M243.25,410.37a1.08,1.08,0,0,0,.3,1.44A1.12,1.12,0,0,0,243.25,410.37Z" />
    </g>
  </g>
</svg>