<svg id="jewelry" xmlns="http://www.w3.org/2000/svg" viewBox="0 0 432 432">
  <defs>
    <style>.BUNTAI_RED_PANDA_JEWELRY_BUNTAI_RED_PANDA_JEWELRY_8_cls-1{fill:#fff;}.BUNTAI_RED_PANDA_JEWELRY_BUNTAI_RED_PANDA_JEWELRY_8_cls-2{fill:#666;}.BUNTAI_RED_PANDA_JEWELRY_BUNTAI_RED_PANDA_JEWELRY_8_cls-3{fill:#c7a858;}.BUNTAI_RED_PANDA_JEWELRY_BUNTAI_RED_PANDA_JEWELRY_8_cls-4,.BUNTAI_RED_PANDA_JEWELRY_BUNTAI_RED_PANDA_JEWELRY_8_cls-6,.BUNTAI_RED_PANDA_JEWELRY_BUNTAI_RED_PANDA_JEWELRY_8_cls-9{fill:none;stroke-linecap:round;stroke-linejoin:round;}.BUNTAI_RED_PANDA_JEWELRY_BUNTAI_RED_PANDA_JEWELRY_8_cls-10,.BUNTAI_RED_PANDA_JEWELRY_BUNTAI_RED_PANDA_JEWELRY_8_cls-4,.BUNTAI_RED_PANDA_JEWELRY_BUNTAI_RED_PANDA_JEWELRY_8_cls-5,.BUNTAI_RED_PANDA_JEWELRY_BUNTAI_RED_PANDA_JEWELRY_8_cls-6,.BUNTAI_RED_PANDA_JEWELRY_BUNTAI_RED_PANDA_JEWELRY_8_cls-9{stroke:#000;}.BUNTAI_RED_PANDA_JEWELRY_BUNTAI_RED_PANDA_JEWELRY_8_cls-4{stroke-width:0.88px;}.BUNTAI_RED_PANDA_JEWELRY_BUNTAI_RED_PANDA_JEWELRY_8_cls-5{fill:#e2d93c;stroke-width:2px;}.BUNTAI_RED_PANDA_JEWELRY_BUNTAI_RED_PANDA_JEWELRY_8_cls-10,.BUNTAI_RED_PANDA_JEWELRY_BUNTAI_RED_PANDA_JEWELRY_8_cls-5{stroke-miterlimit:10;}.BUNTAI_RED_PANDA_JEWELRY_BUNTAI_RED_PANDA_JEWELRY_8_cls-6{stroke-width:1.16px;}.BUNTAI_RED_PANDA_JEWELRY_BUNTAI_RED_PANDA_JEWELRY_8_cls-7{fill:#c0c380;}.BUNTAI_RED_PANDA_JEWELRY_BUNTAI_RED_PANDA_JEWELRY_8_cls-8{fill:#057948;}.BUNTAI_RED_PANDA_JEWELRY_BUNTAI_RED_PANDA_JEWELRY_8_cls-9{stroke-width:0.85px;}.BUNTAI_RED_PANDA_JEWELRY_BUNTAI_RED_PANDA_JEWELRY_8_cls-10{fill:#ad7d2f;stroke-width:1.43px;}</style>
  </defs>
  <path class="BUNTAI_RED_PANDA_JEWELRY_BUNTAI_RED_PANDA_JEWELRY_8_cls-1" d="M136.41,217.11a12.71,12.71,0,0,1-11.25-3.53,6.22,6.22,0,0,0,4.21-3.43A22.8,22.8,0,0,0,136.41,217.11Z" />
  <path class="BUNTAI_RED_PANDA_JEWELRY_BUNTAI_RED_PANDA_JEWELRY_8_cls-1" d="M136.57,217.22c-2.14.9-10.15,3.4-17.5-5.47a6.25,6.25,0,0,0,2.46-.36,30.28,30.28,0,0,1-3-1.24,32.66,32.66,0,0,1-.35-11.19l2.07-1.28-.35,1.86,1.44-1.14c-.51,4.35-.33,9.24,1.92,12.82a14.77,14.77,0,0,0,1.85,2.36,12.71,12.71,0,0,0,11.25,3.53Z" />
  <path class="BUNTAI_RED_PANDA_JEWELRY_BUNTAI_RED_PANDA_JEWELRY_8_cls-2" d="M123.05,193.3a19.65,19.65,0,0,0,3.49.86l-2.34,1.07,1.61.57-1.75.58s2,2.67,3.39,3.07a9.83,9.83,0,0,1-4.36-.84l-.84,2.08-.86-2.29a48.52,48.52,0,0,1,.91-5.1Z" />
  <path class="BUNTAI_RED_PANDA_JEWELRY_BUNTAI_RED_PANDA_JEWELRY_8_cls-1" d="M122.25,200.69l.84-2.08,0,1.51s1.46,4.72,3.67,5.92c-1.55,3.63-1.55,4.38-1.55,4.38l2.87-3.19a9.15,9.15,0,0,0,1.24,2.92,6.22,6.22,0,0,1-4.21,3.43,14.77,14.77,0,0,1-1.85-2.36c-2.25-3.58-2.43-8.47-1.92-12.82Z" />
  <path class="BUNTAI_RED_PANDA_JEWELRY_BUNTAI_RED_PANDA_JEWELRY_8_cls-2" d="M122.3,193.3a48.52,48.52,0,0,0-.91,5.1L120,199.54l.35-1.86L118.23,199a5.27,5.27,0,0,1-2,1.16,10.28,10.28,0,0,0,1.81-3.28l-1-.44,1.38-1.11-1.24-1.5s2.34,0,2.61-.09,1.75-.4,1.75-.4Z" />
  <path class="BUNTAI_RED_PANDA_JEWELRY_BUNTAI_RED_PANDA_JEWELRY_8_cls-3" d="M124,184.55a2.33,2.33,0,0,1-.15,4.65,2.6,2.6,0,0,1-.4,0,2.33,2.33,0,0,1,.4-4.63Z" />
  <path class="BUNTAI_RED_PANDA_JEWELRY_BUNTAI_RED_PANDA_JEWELRY_8_cls-3" d="M122.64,174.48a4.48,4.48,0,0,0,2,.43,1.88,1.88,0,0,0,.9-.23c0,.13,0,2-1.54,2s-1.37-2.23-1.37-2.23Z" />
  <path class="BUNTAI_RED_PANDA_JEWELRY_BUNTAI_RED_PANDA_JEWELRY_8_cls-3" d="M121.29,157.36a12.42,12.42,0,0,1,.37,2.88,3.38,3.38,0,0,0,0,3.62,2.35,2.35,0,0,0,.72.81,5.37,5.37,0,0,0-1.46,2.27C118.28,164.59,116.9,160.06,121.29,157.36Z" />
  <path class="BUNTAI_RED_PANDA_JEWELRY_BUNTAI_RED_PANDA_JEWELRY_8_cls-3" d="M124.62,165.22h0a4.19,4.19,0,0,0-1.84,2.83c-.46,2.2.31,4.66,1.42,4.66s1.25-2.86,1.17-4.38h.1a5.5,5.5,0,0,0,1.37-.42c.6,2,.47,5.82-1.28,6.78a1.88,1.88,0,0,1-.9.23,4.48,4.48,0,0,1-2-.43c-1.51-.73-2.27-2.43-2.16-5a8.14,8.14,0,0,1,.46-2.52,5.37,5.37,0,0,1,1.46-2.27,1.93,1.93,0,0,1,1.35-.56,2.29,2.29,0,0,1,1.62,1,3.28,3.28,0,0,1-.72.13Z" />
  <path class="BUNTAI_RED_PANDA_JEWELRY_BUNTAI_RED_PANDA_JEWELRY_8_cls-3" d="M127.85,157.8c2,1.9,2.92,8.29-1,10.1a5.5,5.5,0,0,1-1.37.42h-.1a5,5,0,0,1-2.59-.28,4.19,4.19,0,0,1,1.84-2.83h0a3.28,3.28,0,0,0,.72-.13,2,2,0,0,0,1.62-1.9,3.27,3.27,0,0,0-1.44-3S124.7,157.48,127.85,157.8Z" />
  <path class="BUNTAI_RED_PANDA_JEWELRY_BUNTAI_RED_PANDA_JEWELRY_8_cls-4" d="M120.94,166.94c-2.66-2.35-4-6.88.35-9.58.29,2,.37,2.88.37,2.88a3.38,3.38,0,0,0,0,3.62,2.35,2.35,0,0,0,.72.81" />
  <path class="BUNTAI_RED_PANDA_JEWELRY_BUNTAI_RED_PANDA_JEWELRY_8_cls-4" d="M124.65,165.21a3.28,3.28,0,0,0,.72-.13,2,2,0,0,0,1.62-1.9,3.27,3.27,0,0,0-1.44-3s-.85-2.67,2.3-2.35c2,1.9,2.92,8.29-1,10.1a5.5,5.5,0,0,1-1.37.42h-.1a5,5,0,0,1-2.59-.28" />
  <path class="BUNTAI_RED_PANDA_JEWELRY_BUNTAI_RED_PANDA_JEWELRY_8_cls-4" d="M126.83,167.9c.6,2,.47,5.82-1.28,6.78a1.88,1.88,0,0,1-.9.23,4.48,4.48,0,0,1-2-.43c-1.51-.73-2.27-2.43-2.16-5a8.14,8.14,0,0,1,.46-2.52,5.37,5.37,0,0,1,1.46-2.27,1.93,1.93,0,0,1,1.35-.56,2.29,2.29,0,0,1,1.62,1" />
  <path class="BUNTAI_RED_PANDA_JEWELRY_BUNTAI_RED_PANDA_JEWELRY_8_cls-4" d="M125.36,168.33c.08,1.52.07,4.38-1.17,4.38s-1.88-2.46-1.42-4.66a4.19,4.19,0,0,1,1.84-2.83h0" />
  <path class="BUNTAI_RED_PANDA_JEWELRY_BUNTAI_RED_PANDA_JEWELRY_8_cls-4" d="M122.64,174.49s-.27,2.23,1.37,2.23,1.55-1.91,1.54-2h0" />
  <path class="BUNTAI_RED_PANDA_JEWELRY_BUNTAI_RED_PANDA_JEWELRY_8_cls-4" d="M124,184.55a2.33,2.33,0,0,1-.15,4.65,2.6,2.6,0,0,1-.4,0,2.33,2.33,0,0,1,.4-4.63Z" />
  <path class="BUNTAI_RED_PANDA_JEWELRY_BUNTAI_RED_PANDA_JEWELRY_8_cls-4" d="M122.3,193.3h-.77s-1.49.36-1.75.4-2.61.09-2.61.09l1.24,1.5L117,196.4l1,.44a10.28,10.28,0,0,1-1.81,3.28,5.27,5.27,0,0,0,2-1.16,32.66,32.66,0,0,0,.35,11.19,30.28,30.28,0,0,0,3,1.24,6.25,6.25,0,0,1-2.46.36c7.35,8.87,15.36,6.37,17.5,5.47l-.16-.11a22.8,22.8,0,0,1-7-7,9.15,9.15,0,0,1-1.24-2.92l-2.87,3.19s0-.75,1.55-4.38c-2.21-1.2-3.67-5.92-3.67-5.92l0-1.51a9.83,9.83,0,0,0,4.36.84c-1.37-.4-3.39-3.07-3.39-3.07l1.75-.58-1.61-.57,2.34-1.07a19.65,19.65,0,0,1-3.49-.86h-.75" />
  <path class="BUNTAI_RED_PANDA_JEWELRY_BUNTAI_RED_PANDA_JEWELRY_8_cls-4" d="M123.46,189.17c-.3.9-.74,2.36-1.16,4.13a48.52,48.52,0,0,0-.91,5.1c-.51,4.35-.33,9.24,1.92,12.82a14.77,14.77,0,0,0,1.85,2.36,12.71,12.71,0,0,0,11.25,3.53" />
  <path class="BUNTAI_RED_PANDA_JEWELRY_BUNTAI_RED_PANDA_JEWELRY_8_cls-4" d="M125.16,213.58a6.22,6.22,0,0,0,4.21-3.43" />
  <polyline class="BUNTAI_RED_PANDA_JEWELRY_BUNTAI_RED_PANDA_JEWELRY_8_cls-4" points="123.09 198.61 122.25 200.69 121.39 198.4 119.95 199.54 120.3 197.68 118.23 198.96" />
  <line class="BUNTAI_RED_PANDA_JEWELRY_BUNTAI_RED_PANDA_JEWELRY_8_cls-4" x1="124.01" y1="184.55" x2="124.01" y2="176.72" />
  <path class="BUNTAI_RED_PANDA_JEWELRY_BUNTAI_RED_PANDA_JEWELRY_8_cls-4" d="M130.2,158.93s-2.22-2.3-4.31-.69.1,4.31.1,4.31" />
  <circle class="BUNTAI_RED_PANDA_JEWELRY_BUNTAI_RED_PANDA_JEWELRY_8_cls-5" cx="231.75" cy="231.95" r="2.6" />
  <circle class="BUNTAI_RED_PANDA_JEWELRY_BUNTAI_RED_PANDA_JEWELRY_8_cls-5" cx="249.86" cy="231.95" r="2.6" />
  <line class="BUNTAI_RED_PANDA_JEWELRY_BUNTAI_RED_PANDA_JEWELRY_8_cls-6" x1="241.94" y1="367.62" x2="241.94" y2="371.13" />
  <path class="BUNTAI_RED_PANDA_JEWELRY_BUNTAI_RED_PANDA_JEWELRY_8_cls-7" d="M254.54,398.06a7.68,7.68,0,0,1-1.54,4.36l-1.07.55h0c-.31.22-5.2,3.78-6.65,4.82a15.9,15.9,0,0,0-3.08,3.59,15.48,15.48,0,0,0-3.07-3.59L232.46,403l-1.06-.55a7.68,7.68,0,0,1-1.54-4.36,12.1,12.1,0,0,0,1.48,1,8.83,8.83,0,0,1-1.23-4.84,15.37,15.37,0,0,1,1.24-6.06c.82-1.54,3.45-5,3.7-6.73-1.18-1.55-1.61-3.77.68-3.77a2.59,2.59,0,0,1,2.67,2h-1.33s-.47-.61-.9-.37.18.76.56,1.75-.21,2.34-1,3.45a18.78,18.78,0,0,1,4.3-3.38v-1.89s-1.43-4.33-1.73-6,.82-2.08.82-2.08h6.15s1.12.39.82,2.08-1.72,6-1.72,6v1.89a18.62,18.62,0,0,1,4.29,3.38c-.79-1.11-1.37-2.47-1-3.45s1-1.49.55-1.75-.9.37-.9.37H246a2.59,2.59,0,0,1,2.67-2c2.3,0,1.86,2.22.69,3.77.25,1.7,2.88,5.19,3.69,6.73s2.36,7.28,0,10.9A12.1,12.1,0,0,0,254.54,398.06Z" />
  <path class="BUNTAI_RED_PANDA_JEWELRY_BUNTAI_RED_PANDA_JEWELRY_8_cls-8" d="M241.83,384.69s-6.35,2.16-7.21,7.37,2.24,10.27,7.09,10.27,7-2.63,7.23-3.51-.37,1.28.41-2.49.84-5.3-1.6-8.09A12.14,12.14,0,0,0,241.83,384.69Z" />
  <path class="BUNTAI_RED_PANDA_JEWELRY_BUNTAI_RED_PANDA_JEWELRY_8_cls-9" d="M245.5,401.92h0c2.92-1.33,4.65-4.51,4.65-8.79,0-5.72-8-8.88-8-8.88s-8,3.16-8,8.88c0,4.28,1.73,7.46,4.66,8.79h0" />
  <path class="BUNTAI_RED_PANDA_JEWELRY_BUNTAI_RED_PANDA_JEWELRY_8_cls-9" d="M238.89,401.92a8,8,0,0,0,3.31.67" />
  <path class="BUNTAI_RED_PANDA_JEWELRY_BUNTAI_RED_PANDA_JEWELRY_8_cls-9" d="M249.79,400.56c.24-.41,1.23-2.38,1.23-7.66,0-6-8.83-11.62-8.83-11.62s-8.82,5.63-8.82,11.62c0,5.28,1,7.25,1.24,7.66a11.74,11.74,0,0,1-.94-13.31,14.47,14.47,0,0,1,2.06-2.73,18.78,18.78,0,0,1,4.3-3.38v-1.89s-1.43-4.33-1.73-6,.82-2.08.82-2.08h6.15s1.12.39.82,2.08-1.72,6-1.72,6v1.89a18.62,18.62,0,0,1,4.29,3.38,14.9,14.9,0,0,1,2.06,2.73A11.72,11.72,0,0,1,249.79,400.56Z" />
  <path class="BUNTAI_RED_PANDA_JEWELRY_BUNTAI_RED_PANDA_JEWELRY_8_cls-9" d="M234.64,400.62h0a37.86,37.86,0,0,0,4.23,1.28" />
  <path class="BUNTAI_RED_PANDA_JEWELRY_BUNTAI_RED_PANDA_JEWELRY_8_cls-9" d="M235.73,384.52c.79-1.11,1.37-2.48,1-3.45s-1-1.49-.56-1.75.9.37.9.37h1.33a2.59,2.59,0,0,0-2.67-2c-2.29,0-1.86,2.22-.68,3.77-.25,1.7-2.88,5.19-3.7,6.73a15.37,15.37,0,0,0-1.24,6.06,8.83,8.83,0,0,0,1.23,4.84,6.75,6.75,0,0,0,.41.57" />
  <path class="BUNTAI_RED_PANDA_JEWELRY_BUNTAI_RED_PANDA_JEWELRY_8_cls-9" d="M238.89,401.91h0a39,39,0,0,1-4.23-1.27,22.33,22.33,0,0,1-3.31-1.54,12.1,12.1,0,0,1-1.48-1,7.68,7.68,0,0,0,1.54,4.36l1.06.55c2.16,1.07,7,3.37,9.73,3.37v-3.75" />
  <path class="BUNTAI_RED_PANDA_JEWELRY_BUNTAI_RED_PANDA_JEWELRY_8_cls-9" d="M232.46,403l6.66,4.82a15.48,15.48,0,0,1,3.07,3.59v-5" />
  <path class="BUNTAI_RED_PANDA_JEWELRY_BUNTAI_RED_PANDA_JEWELRY_8_cls-9" d="M242.2,402.59a7.94,7.94,0,0,0,3.3-.67" />
  <path class="BUNTAI_RED_PANDA_JEWELRY_BUNTAI_RED_PANDA_JEWELRY_8_cls-9" d="M249.74,400.64h0v0" />
  <path class="BUNTAI_RED_PANDA_JEWELRY_BUNTAI_RED_PANDA_JEWELRY_8_cls-9" d="M253.05,399.1h0c2.34-3.62.74-9.45,0-10.9s-3.44-5-3.69-6.73c1.17-1.55,1.61-3.77-.69-3.77a2.59,2.59,0,0,0-2.67,2h1.33s.47-.61.9-.37-.18.76-.55,1.75.2,2.34,1,3.45" />
  <path class="BUNTAI_RED_PANDA_JEWELRY_BUNTAI_RED_PANDA_JEWELRY_8_cls-9" d="M242.19,402.59v3.75a15.83,15.83,0,0,0,5.08-1.29c1.81-.7,3.56-1.54,4.65-2.08h0l1.07-.55a7.68,7.68,0,0,0,1.54-4.36,12.1,12.1,0,0,1-1.48,1h0a21.42,21.42,0,0,1-3.31,1.54h0a37.07,37.07,0,0,1-4.23,1.27" />
  <path class="BUNTAI_RED_PANDA_JEWELRY_BUNTAI_RED_PANDA_JEWELRY_8_cls-9" d="M242.19,406.34v5a15.9,15.9,0,0,1,3.08-3.59c1.45-1,6.34-4.6,6.65-4.82h0" />
  <path class="BUNTAI_RED_PANDA_JEWELRY_BUNTAI_RED_PANDA_JEWELRY_8_cls-10" d="M244.49,368.17c-47.64,0-77.07-51.65-78.13-54.05-3.8-7.53,3-8.42,5.93-5.42-.89.64-1.09,1-2.55,2.16,6.49,10.37,35.87,53.35,76,53.35l1.62,0a35.8,35.8,0,0,0,21.88-7.78c14.49-11.56,20.21-35.36,21.19-39.87a29,29,0,0,0-2.69-1.66c3.63-3.43,7.42-1.34,6.81,3.94-.13,1.06-4.94,26-22.67,40.11a42,42,0,0,1-25.65,9.22Z" />
</svg>