<svg xmlns="http://www.w3.org/2000/svg" viewBox="0 0 432 432">
  <defs>
    <style>.BUNTAI_RED_PANDA_JEWELRY_BUNTAI_RED_PANDA_JEWELRY_32_cls-1{isolation:isolate;}.BUNTAI_RED_PANDA_JEWELRY_BUNTAI_RED_PANDA_JEWELRY_32_cls-11,.BUNTAI_RED_PANDA_JEWELRY_BUNTAI_RED_PANDA_JEWELRY_32_cls-2,.BUNTAI_RED_PANDA_JEWELRY_BUNTAI_RED_PANDA_JEWELRY_32_cls-5,.BUNTAI_RED_PANDA_JEWELRY_BUNTAI_RED_PANDA_JEWELRY_32_cls-7{fill:none;stroke-linecap:round;stroke-linejoin:round;}.BUNTAI_RED_PANDA_JEWELRY_BUNTAI_RED_PANDA_JEWELRY_32_cls-11,.BUNTAI_RED_PANDA_JEWELRY_BUNTAI_RED_PANDA_JEWELRY_32_cls-2,.BUNTAI_RED_PANDA_JEWELRY_BUNTAI_RED_PANDA_JEWELRY_32_cls-5,.BUNTAI_RED_PANDA_JEWELRY_BUNTAI_RED_PANDA_JEWELRY_32_cls-6,.BUNTAI_RED_PANDA_JEWELRY_BUNTAI_RED_PANDA_JEWELRY_32_cls-7{stroke:#000;}.BUNTAI_RED_PANDA_JEWELRY_BUNTAI_RED_PANDA_JEWELRY_32_cls-2{stroke-width:1.12px;}.BUNTAI_RED_PANDA_JEWELRY_BUNTAI_RED_PANDA_JEWELRY_32_cls-3{fill:#c0c380;}.BUNTAI_RED_PANDA_JEWELRY_BUNTAI_RED_PANDA_JEWELRY_32_cls-4{fill:#057948;}.BUNTAI_RED_PANDA_JEWELRY_BUNTAI_RED_PANDA_JEWELRY_32_cls-5{stroke-width:0.82px;}.BUNTAI_RED_PANDA_JEWELRY_BUNTAI_RED_PANDA_JEWELRY_32_cls-6{fill:#ad7d2f;stroke-miterlimit:10;stroke-width:1.37px;}.BUNTAI_RED_PANDA_JEWELRY_BUNTAI_RED_PANDA_JEWELRY_32_cls-7{stroke-width:1.06px;}.BUNTAI_RED_PANDA_JEWELRY_BUNTAI_RED_PANDA_JEWELRY_32_cls-8{fill:#c7a858;}.BUNTAI_RED_PANDA_JEWELRY_BUNTAI_RED_PANDA_JEWELRY_32_cls-9{fill:#cbde8d;}.BUNTAI_RED_PANDA_JEWELRY_BUNTAI_RED_PANDA_JEWELRY_32_cls-10{fill:#91b90e;}.BUNTAI_RED_PANDA_JEWELRY_BUNTAI_RED_PANDA_JEWELRY_32_cls-11{stroke-width:1.02px;}.BUNTAI_RED_PANDA_JEWELRY_BUNTAI_RED_PANDA_JEWELRY_32_cls-12{opacity:0.43;mix-blend-mode:multiply;}</style>
  </defs>
  <g class="BUNTAI_RED_PANDA_JEWELRY_BUNTAI_RED_PANDA_JEWELRY_32_cls-1">
    <g id="jewelry">
      <line class="BUNTAI_RED_PANDA_JEWELRY_BUNTAI_RED_PANDA_JEWELRY_32_cls-2" x1="244.13" y1="385.84" x2="244.13" y2="389.26" />
      <path class="BUNTAI_RED_PANDA_JEWELRY_BUNTAI_RED_PANDA_JEWELRY_32_cls-3" d="M256.14,415.42a7.49,7.49,0,0,1-1.47,4.24s-.38.21-1,.53h0l-6.34,4.68a15.31,15.31,0,0,0-2.93,3.49,15.17,15.17,0,0,0-2.94-3.49l-6.35-4.69c-.63-.32-1-.53-1-.53a7.49,7.49,0,0,1-1.47-4.24,11.82,11.82,0,0,0,1.41,1,8.77,8.77,0,0,1-1.17-4.7,15.17,15.17,0,0,1,1.18-5.89c.78-1.5,3.29-4.89,3.53-6.54-1.13-1.51-1.54-3.66.65-3.66a2.49,2.49,0,0,1,2.55,1.93h-1.27s-.45-.59-.86-.35.17.73.53,1.69-.19,2.28-1,3.36a18.16,18.16,0,0,1,4.1-3.29v-1.84s-1.36-4.21-1.65-5.85.78-2,.78-2h5.87s1.07.38.79,2-1.65,5.85-1.65,5.85V399a17.91,17.91,0,0,1,4.1,3.29c-.76-1.08-1.31-2.41-.95-3.36s.95-1.45.53-1.69-.86.35-.86.35H248a2.5,2.5,0,0,1,2.56-1.93c2.19,0,1.77,2.15.65,3.66.24,1.65,2.75,5,3.52,6.54s2.25,7.07,0,10.59A11.82,11.82,0,0,0,256.14,415.42Z" />
      <path class="BUNTAI_RED_PANDA_JEWELRY_BUNTAI_RED_PANDA_JEWELRY_32_cls-4" d="M244,402.43s-6.06,2.1-6.88,7.16,2.14,10,6.76,10,6.68-2.56,6.9-3.4-.36,1.24.39-2.43.8-5.15-1.53-7.86A11.5,11.5,0,0,0,244,402.43Z" />
      <path class="BUNTAI_RED_PANDA_JEWELRY_BUNTAI_RED_PANDA_JEWELRY_32_cls-5" d="M247.52,419.17h0c2.79-1.29,4.44-4.38,4.44-8.54,0-5.56-7.59-8.63-7.59-8.63s-7.6,3.07-7.6,8.63c0,4.16,1.65,7.25,4.44,8.54h0" />
      <path class="BUNTAI_RED_PANDA_JEWELRY_BUNTAI_RED_PANDA_JEWELRY_32_cls-5" d="M241.22,419.17a7.42,7.42,0,0,0,3.15.66" />
      <path class="BUNTAI_RED_PANDA_JEWELRY_BUNTAI_RED_PANDA_JEWELRY_32_cls-5" d="M251.61,417.86c.23-.4,1.18-2.32,1.18-7.45,0-5.82-8.42-11.29-8.42-11.29s-8.43,5.47-8.43,11.29c0,5.13,1,7,1.19,7.45a11.62,11.62,0,0,1-.9-12.94,14.37,14.37,0,0,1,2-2.65,18.16,18.16,0,0,1,4.1-3.29v-1.84s-1.36-4.21-1.65-5.85.78-2,.78-2h5.87s1.07.38.79,2-1.65,5.85-1.65,5.85V399a17.91,17.91,0,0,1,4.1,3.29,14.34,14.34,0,0,1,2,2.65A11.58,11.58,0,0,1,251.61,417.86Z" />
      <path class="BUNTAI_RED_PANDA_JEWELRY_BUNTAI_RED_PANDA_JEWELRY_32_cls-5" d="M237.16,417.91h0a36.11,36.11,0,0,0,4,1.24" />
      <path class="BUNTAI_RED_PANDA_JEWELRY_BUNTAI_RED_PANDA_JEWELRY_32_cls-5" d="M238.2,402.27c.76-1.08,1.31-2.41,1-3.36s-1-1.45-.53-1.69.86.35.86.35h1.27a2.49,2.49,0,0,0-2.55-1.93c-2.19,0-1.78,2.15-.65,3.66-.24,1.65-2.75,5-3.53,6.54a15.17,15.17,0,0,0-1.18,5.89,8.77,8.77,0,0,0,1.17,4.7c.12.19.25.37.39.55" />
      <path class="BUNTAI_RED_PANDA_JEWELRY_BUNTAI_RED_PANDA_JEWELRY_32_cls-5" d="M241.22,419.17h0a37.56,37.56,0,0,1-4-1.24,19.56,19.56,0,0,1-3.16-1.5,11.82,11.82,0,0,1-1.41-1,7.49,7.49,0,0,0,1.47,4.24s.38.21,1,.53c2.06,1.05,6.73,3.28,9.29,3.28v-3.64" />
      <path class="BUNTAI_RED_PANDA_JEWELRY_BUNTAI_RED_PANDA_JEWELRY_32_cls-5" d="M235.08,420.19l6.35,4.69a15.17,15.17,0,0,1,2.94,3.49v-4.9" />
      <path class="BUNTAI_RED_PANDA_JEWELRY_BUNTAI_RED_PANDA_JEWELRY_32_cls-5" d="M244.37,419.83a7.42,7.42,0,0,0,3.15-.66" />
      <path class="BUNTAI_RED_PANDA_JEWELRY_BUNTAI_RED_PANDA_JEWELRY_32_cls-5" d="M251.56,417.93h0l0,0" />
      <path class="BUNTAI_RED_PANDA_JEWELRY_BUNTAI_RED_PANDA_JEWELRY_32_cls-5" d="M254.72,416.43h0c2.23-3.52.71-9.18,0-10.59s-3.28-4.89-3.52-6.54c1.12-1.51,1.54-3.66-.65-3.66a2.5,2.5,0,0,0-2.56,1.93h1.28s.45-.59.86-.35-.18.73-.53,1.69.19,2.28.95,3.36" />
      <path class="BUNTAI_RED_PANDA_JEWELRY_BUNTAI_RED_PANDA_JEWELRY_32_cls-5" d="M244.37,419.83v3.64a15,15,0,0,0,4.83-1.25c1.74-.68,3.41-1.5,4.44-2h0c.63-.32,1-.53,1-.53a7.49,7.49,0,0,0,1.47-4.24,11.82,11.82,0,0,1-1.41,1h0a19.06,19.06,0,0,1-3.15,1.5h0a36.23,36.23,0,0,1-4,1.24" />
      <path class="BUNTAI_RED_PANDA_JEWELRY_BUNTAI_RED_PANDA_JEWELRY_32_cls-5" d="M244.37,423.47v4.9a15.31,15.31,0,0,1,2.93-3.49l6.34-4.68h0" />
      <path class="BUNTAI_RED_PANDA_JEWELRY_BUNTAI_RED_PANDA_JEWELRY_32_cls-6" d="M246.56,386.37c-45.45,0-73.52-50.19-74.53-52.52-3.62-7.32,3.39-7.73,6.16-4.81-1.06.6-1.24.62-2.94,1.64,6.2,10.08,34.22,51.84,72.55,51.84l1.54,0a33.86,33.86,0,0,0,20.88-7.56c13.82-11.24,19.27-33.89,20.2-38.26a14.54,14.54,0,0,1-1.88-.86c2-3,6.3-1.62,5.71,3.51-.11,1-4.61,24.31-21.52,38.06a39.72,39.72,0,0,1-24.47,9Z" />
      <line class="BUNTAI_RED_PANDA_JEWELRY_BUNTAI_RED_PANDA_JEWELRY_32_cls-7" x1="320.08" y1="211.48" x2="320.08" y2="217.7" />
      <path class="BUNTAI_RED_PANDA_JEWELRY_BUNTAI_RED_PANDA_JEWELRY_32_cls-8" d="M320.09,211.48c1.67,0,1.4-2.29,1.4-2.29h0a4.57,4.57,0,0,1-2.06.43,1.85,1.85,0,0,1-.92-.23C318.5,209.53,318.47,211.48,320.09,211.48Z" />
      <path class="BUNTAI_RED_PANDA_JEWELRY_BUNTAI_RED_PANDA_JEWELRY_32_cls-8" d="M317.2,202.45c-.62,2.05-.49,6,1.31,6.94a1.85,1.85,0,0,0,.92.23,4.57,4.57,0,0,0,2.06-.43c1.54-.75,2.31-2.49,2.21-5.13a8.41,8.41,0,0,0-.48-2.58,5.43,5.43,0,0,0-1.49-2.33,1.92,1.92,0,0,0-1.38-.57,2.34,2.34,0,0,0-1.66,1,2.94,2.94,0,0,0,.74.14h0a4.27,4.27,0,0,1,1.88,2.9c.47,2.25-.32,4.77-1.45,4.77s-1.28-2.93-1.2-4.49h-.1A5.22,5.22,0,0,1,317.2,202.45Z" />
      <path class="BUNTAI_RED_PANDA_JEWELRY_BUNTAI_RED_PANDA_JEWELRY_32_cls-8" d="M322.19,191.51c-.39,2.05-.6,2.83-.6,2.83s2.05,1.78.88,4a2.37,2.37,0,0,1-.74.83,5.43,5.43,0,0,1,1.49,2.33A6,6,0,0,0,322.19,191.51Z" />
      <path class="BUNTAI_RED_PANDA_JEWELRY_BUNTAI_RED_PANDA_JEWELRY_32_cls-8" d="M314.51,198.83a4.82,4.82,0,0,0,2.69,3.62,5.74,5.74,0,0,0,1.4.43h.1a5.14,5.14,0,0,0,2.65-.28,4.27,4.27,0,0,0-1.88-2.9h0a3.83,3.83,0,0,1-.75-.15,2.17,2.17,0,0,1-1.55-1.35,1.81,1.81,0,0,1-.1-.58c0-2.39.94-2.5.94-2.5a2.76,2.76,0,0,0,.12-.33,3.09,3.09,0,0,0-2.39-2A8.13,8.13,0,0,0,314.51,198.83Z" />
      <path class="BUNTAI_RED_PANDA_JEWELRY_BUNTAI_RED_PANDA_JEWELRY_32_cls-7" d="M323.22,201.48a6,6,0,0,0-1-10c-.41,1.7-.6,2.83-.6,2.83s2.05,1.78.88,4a2.37,2.37,0,0,1-.74.83" />
      <path class="BUNTAI_RED_PANDA_JEWELRY_BUNTAI_RED_PANDA_JEWELRY_32_cls-7" d="M315.7,192.8a8.13,8.13,0,0,0-1.19,6,4.82,4.82,0,0,0,2.69,3.62,5.74,5.74,0,0,0,1.4.43h.1a5.14,5.14,0,0,0,2.65-.28" />
      <path class="BUNTAI_RED_PANDA_JEWELRY_BUNTAI_RED_PANDA_JEWELRY_32_cls-7" d="M319.43,199.71a3.83,3.83,0,0,1-.75-.15,2.17,2.17,0,0,1-1.55-1.35,1.81,1.81,0,0,1-.1-.58c0-2.39.94-2.5.94-2.5a2.76,2.76,0,0,0,.12-.33" />
      <path class="BUNTAI_RED_PANDA_JEWELRY_BUNTAI_RED_PANDA_JEWELRY_32_cls-7" d="M317.2,202.45c-.62,2.05-.49,6,1.31,6.94a1.85,1.85,0,0,0,.92.23,4.57,4.57,0,0,0,2.06-.43c1.54-.75,2.31-2.49,2.21-5.13a8.41,8.41,0,0,0-.48-2.58,5.43,5.43,0,0,0-1.49-2.33,1.92,1.92,0,0,0-1.38-.57,2.34,2.34,0,0,0-1.66,1" />
      <path class="BUNTAI_RED_PANDA_JEWELRY_BUNTAI_RED_PANDA_JEWELRY_32_cls-7" d="M318.7,202.89c-.08,1.56-.06,4.49,1.2,4.49s1.92-2.52,1.45-4.77a4.27,4.27,0,0,0-1.88-2.9h0" />
      <path class="BUNTAI_RED_PANDA_JEWELRY_BUNTAI_RED_PANDA_JEWELRY_32_cls-7" d="M321.49,209.19s.27,2.29-1.4,2.29-1.59-1.95-1.58-2.09h0" />
      <path class="BUNTAI_RED_PANDA_JEWELRY_BUNTAI_RED_PANDA_JEWELRY_32_cls-7" d="M317.91,197.26a3.14,3.14,0,0,0,.18-2.46,3.09,3.09,0,0,0-2.39-2,2.87,2.87,0,0,0-.52-.05,2.1,2.1,0,0,0-2.08,1.55" />
      <path class="BUNTAI_RED_PANDA_JEWELRY_BUNTAI_RED_PANDA_JEWELRY_32_cls-9" d="M320.2,270.62c-.92,5.59-1.36,7.24-.21,12.14,0,0-1.82-2-4.2-5.22A50.68,50.68,0,0,1,320.2,270.62Z" />
      <path class="BUNTAI_RED_PANDA_JEWELRY_BUNTAI_RED_PANDA_JEWELRY_32_cls-9" d="M320.44,269a10.83,10.83,0,0,1,5.89,5.6,86.78,86.78,0,0,1-6.34,8.2c-1.15-4.9-.71-6.55.21-12.14C320.28,270.1,320.36,269.53,320.44,269Z" />
      <path class="BUNTAI_RED_PANDA_JEWELRY_BUNTAI_RED_PANDA_JEWELRY_32_cls-9" d="M320.83,264.35c-.09,1.61-.22,3.18-.39,4.61-.08.57-.16,1.14-.24,1.66a50.68,50.68,0,0,0-4.41,6.92c-1-1.33-2.08-2.85-3.16-4.52C314.66,268.26,320.83,264.35,320.83,264.35Z" />
      <path class="BUNTAI_RED_PANDA_JEWELRY_BUNTAI_RED_PANDA_JEWELRY_32_cls-9" d="M321,259.49c0,1.6,0,3.25-.12,4.86,0,0-6.17,3.91-8.2,8.67-1-1.51-2-3.13-2.93-4.82.43-3.25,2.36-4.48,5.81-6.76a19.31,19.31,0,0,0,5.37-5.52C320.93,257.06,321,258.25,321,259.49Z" />
      <path class="BUNTAI_RED_PANDA_JEWELRY_BUNTAI_RED_PANDA_JEWELRY_32_cls-9" d="M321,259.49s6.93,3.14,8.68,9.86c-1.07,1.85-2.21,3.61-3.31,5.21a10.83,10.83,0,0,0-5.89-5.6c.17-1.43.3-3,.39-4.61s.12-3.26.12-4.86Z" />
      <path class="BUNTAI_RED_PANDA_JEWELRY_BUNTAI_RED_PANDA_JEWELRY_32_cls-9" d="M327.19,252.9c4.6,1.37,6.15,2.07,7.33,5a36.42,36.42,0,0,1-2.29,6.43S331.37,257.11,327.19,252.9Z" />
      <path class="BUNTAI_RED_PANDA_JEWELRY_BUNTAI_RED_PANDA_JEWELRY_32_cls-9" d="M327.19,252.9c4.18,4.21,5,11.45,5,11.45a53.7,53.7,0,0,1-2.59,5c-1.75-6.72-8.68-9.86-8.68-9.86h0c0-1.24,0-2.43-.07-3.57a39.45,39.45,0,0,0-.43-4.41c-.15-.94-.26-1.92-.34-2.9.41.66,2,2.8,6.35,4.07Z" />
      <path class="BUNTAI_RED_PANDA_JEWELRY_BUNTAI_RED_PANDA_JEWELRY_32_cls-9" d="M305.25,257a10.41,10.41,0,0,1,7.5-5,25.19,25.19,0,0,0-5.7,10.69,31.63,31.63,0,0,1-1.8-5.71Z" />
      <path class="BUNTAI_RED_PANDA_JEWELRY_BUNTAI_RED_PANDA_JEWELRY_32_cls-9" d="M320.11,248.61c.08,1,.19,2,.34,2.9a39.45,39.45,0,0,1,.43,4.41,19.31,19.31,0,0,1-5.37,5.52c-3.45,2.28-5.38,3.51-5.81,6.76a51.47,51.47,0,0,1-2.65-5.5h0a25.19,25.19,0,0,1,5.7-10.69h0c.63-.13,1.29-.24,1.95-.33A7.17,7.17,0,0,0,320,248.4S320,248.48,320.11,248.61Z" />
      <path class="BUNTAI_RED_PANDA_JEWELRY_BUNTAI_RED_PANDA_JEWELRY_32_cls-9" d="M319.9,227.56c-.77.79-6.15,6.51-2.94,11,0,0-5.65,1.67-11.36,9.09,2.93-10.22,13.14-19.15,14.29-20.12Z" />
      <path class="BUNTAI_RED_PANDA_JEWELRY_BUNTAI_RED_PANDA_JEWELRY_32_cls-9" d="M320.11,248.61c-.08-.13-.12-.21-.12-.21a7.17,7.17,0,0,1-5.29,3.27c-.66.09-1.32.2-1.95.33h0a10.41,10.41,0,0,0-7.5,5,20.07,20.07,0,0,1-.43-4,19.45,19.45,0,0,1,.78-5.28c5.71-7.42,11.36-9.09,11.36-9.09a8.35,8.35,0,0,0,3,2.5A67.49,67.49,0,0,0,320.11,248.61Z" />
      <path class="BUNTAI_RED_PANDA_JEWELRY_BUNTAI_RED_PANDA_JEWELRY_32_cls-9" d="M335.18,253a20.7,20.7,0,0,1-.66,5c-1.18-3-2.73-3.65-7.33-5l-.73-.22c-4.32-1.27-5.94-3.41-6.35-4.07a67.49,67.49,0,0,1-.12-7.52,8.49,8.49,0,0,0,3-2.5s5.33.52,10.56,6.75A20.87,20.87,0,0,1,335.18,253Z" />
      <path class="BUNTAI_RED_PANDA_JEWELRY_BUNTAI_RED_PANDA_JEWELRY_32_cls-9" d="M320.09,227.56c1.06.9,9.85,8.56,13.5,17.78-5.23-6.23-10.56-6.75-10.56-6.75,3.21-4.52-2.17-10.24-2.94-11Z" />
      <path class="BUNTAI_RED_PANDA_JEWELRY_BUNTAI_RED_PANDA_JEWELRY_32_cls-8" d="M320.09,227.56c.77.79,6.15,6.51,2.94,11a8.49,8.49,0,0,1-3,2.5,8.35,8.35,0,0,1-3-2.5c-3.21-4.52,2.17-10.24,2.94-11h.19Z" />
      <path class="BUNTAI_RED_PANDA_JEWELRY_BUNTAI_RED_PANDA_JEWELRY_32_cls-10" d="M320,220.76c1.17,0,2.12,1.53,2.12,3.41a3.92,3.92,0,0,1-1.22,3.08h0a2,2,0,0,1-.9.22,2.11,2.11,0,0,1-.88-.21h0a4,4,0,0,1-1.21-3.08C317.88,222.29,318.83,220.76,320,220.76Z" />
      <path class="BUNTAI_RED_PANDA_JEWELRY_BUNTAI_RED_PANDA_JEWELRY_32_cls-8" d="M323,222.59c0,2.19-.9,4-2.14,4.66a3.92,3.92,0,0,0,1.22-3.08c0-1.88-.95-3.41-2.12-3.41s-2.11,1.53-2.11,3.41a4,4,0,0,0,1.21,3.08c-1.23-.61-2.13-2.47-2.13-4.66,0-2.7,1.36-4.89,3-4.89S323,219.89,323,222.59Z" />
      <path class="BUNTAI_RED_PANDA_JEWELRY_BUNTAI_RED_PANDA_JEWELRY_32_cls-11" d="M307.05,262.7a51.47,51.47,0,0,0,2.65,5.5c.94,1.69,1.93,3.31,2.93,4.82,1.08,1.67,2.17,3.19,3.16,4.52,2.38,3.19,4.2,5.22,4.2,5.22a86.78,86.78,0,0,0,6.34-8.2c1.1-1.6,2.24-3.36,3.31-5.21a53.7,53.7,0,0,0,2.59-5,36.42,36.42,0,0,0,2.29-6.43,19,19,0,0,0-.93-12.58c-3.65-9.22-12.44-16.88-13.5-17.78l0-.05h0" />
      <path class="BUNTAI_RED_PANDA_JEWELRY_BUNTAI_RED_PANDA_JEWELRY_32_cls-11" d="M305.25,257a31.63,31.63,0,0,0,1.8,5.71" />
      <path class="BUNTAI_RED_PANDA_JEWELRY_BUNTAI_RED_PANDA_JEWELRY_32_cls-11" d="M320,227.5h0l-.06.05c-1.15,1-11.36,9.9-14.29,20.12a19.45,19.45,0,0,0-.78,5.28,20.07,20.07,0,0,0,.43,4" />
      <path class="BUNTAI_RED_PANDA_JEWELRY_BUNTAI_RED_PANDA_JEWELRY_32_cls-11" d="M320,227.47l0,0h0l-.05.05c-.77.79-6.15,6.51-2.94,11a8.35,8.35,0,0,0,3,2.5,8.49,8.49,0,0,0,3-2.5c3.21-4.52-2.17-10.24-2.94-11l0-.05h0Z" />
      <path class="BUNTAI_RED_PANDA_JEWELRY_BUNTAI_RED_PANDA_JEWELRY_32_cls-11" d="M320,241.09a67.49,67.49,0,0,0,.12,7.52c.08,1,.19,2,.34,2.9a39.45,39.45,0,0,1,.43,4.41c.05,1.14.07,2.33.07,3.57,0,1.6,0,3.25-.12,4.86s-.22,3.18-.39,4.61c-.08.57-.16,1.14-.24,1.66-.92,5.59-1.36,7.24-.21,12.14" />
      <path class="BUNTAI_RED_PANDA_JEWELRY_BUNTAI_RED_PANDA_JEWELRY_32_cls-11" d="M317,238.59s-5.65,1.67-11.36,9.09v0" />
      <path class="BUNTAI_RED_PANDA_JEWELRY_BUNTAI_RED_PANDA_JEWELRY_32_cls-11" d="M312.75,252c.63-.13,1.29-.24,1.95-.33A7.17,7.17,0,0,0,320,248.4s0,.08.12.21c.41.66,2,2.8,6.35,4.07l.73.22c4.6,1.37,6.15,2.07,7.33,5" />
      <path class="BUNTAI_RED_PANDA_JEWELRY_BUNTAI_RED_PANDA_JEWELRY_32_cls-11" d="M305.25,257h0a10.41,10.41,0,0,1,7.5-5" />
      <path class="BUNTAI_RED_PANDA_JEWELRY_BUNTAI_RED_PANDA_JEWELRY_32_cls-11" d="M307.05,262.7h0a25.19,25.19,0,0,1,5.7-10.69h0" />
      <path class="BUNTAI_RED_PANDA_JEWELRY_BUNTAI_RED_PANDA_JEWELRY_32_cls-11" d="M320.88,255.92a19.31,19.31,0,0,1-5.37,5.52c-3.45,2.28-5.38,3.51-5.81,6.76" />
      <path class="BUNTAI_RED_PANDA_JEWELRY_BUNTAI_RED_PANDA_JEWELRY_32_cls-11" d="M320.83,264.35s-6.17,3.91-8.2,8.67" />
      <path class="BUNTAI_RED_PANDA_JEWELRY_BUNTAI_RED_PANDA_JEWELRY_32_cls-11" d="M320.2,270.62a50.68,50.68,0,0,0-4.41,6.92" />
      <path class="BUNTAI_RED_PANDA_JEWELRY_BUNTAI_RED_PANDA_JEWELRY_32_cls-11" d="M323,238.59s5.33.52,10.56,6.75" />
      <path class="BUNTAI_RED_PANDA_JEWELRY_BUNTAI_RED_PANDA_JEWELRY_32_cls-11" d="M332.23,264.35s-.86-7.24-5-11.45" />
      <path class="BUNTAI_RED_PANDA_JEWELRY_BUNTAI_RED_PANDA_JEWELRY_32_cls-11" d="M321,259.49s6.93,3.14,8.68,9.86" />
      <path class="BUNTAI_RED_PANDA_JEWELRY_BUNTAI_RED_PANDA_JEWELRY_32_cls-11" d="M320.44,269a10.83,10.83,0,0,1,5.89,5.6" />
      <path class="BUNTAI_RED_PANDA_JEWELRY_BUNTAI_RED_PANDA_JEWELRY_32_cls-11" d="M319.09,227.25c-1.23-.61-2.13-2.47-2.13-4.66,0-2.7,1.36-4.89,3-4.89s3,2.19,3,4.89c0,2.19-.9,4-2.14,4.66" />
      <path class="BUNTAI_RED_PANDA_JEWELRY_BUNTAI_RED_PANDA_JEWELRY_32_cls-11" d="M320.89,227.25a2,2,0,0,1-.9.22,2.11,2.11,0,0,1-.88-.21" />
      <path class="BUNTAI_RED_PANDA_JEWELRY_BUNTAI_RED_PANDA_JEWELRY_32_cls-11" d="M319.09,227.25a4,4,0,0,1-1.21-3.08c0-1.88.95-3.41,2.11-3.41s2.12,1.53,2.12,3.41a3.92,3.92,0,0,1-1.22,3.08h0a1.38,1.38,0,0,1-.8.31h-.2a1.38,1.38,0,0,1-.78-.3Z" />
      <g class="BUNTAI_RED_PANDA_JEWELRY_BUNTAI_RED_PANDA_JEWELRY_32_cls-12">
        <path d="M320,217.7a3.24,3.24,0,0,1,0,3.06c.76,3.55.44,5.51-.1,6.8.92,7.76,1.18,10.5-.29,9.62a3.72,3.72,0,0,1-1.72-2.38s-1.49,3.26.3,5.1c1.81,1.19.36,4,.42,8.36s.25,10.29.21,13.68-.15,9-.15,11.71a64.66,64.66,0,0,0,1.24,8.7,48.39,48.39,0,0,0,11.87-17c4-10.09,4.9-13.23,1.43-21s-12.37-16-12.37-16l-.34-.87s1.83-.21,2.13-3.21S322.64,218.39,320,217.7Z" />
      </g>
      <line class="BUNTAI_RED_PANDA_JEWELRY_BUNTAI_RED_PANDA_JEWELRY_32_cls-7" x1="129.07" y1="220.69" x2="129.07" y2="214.48" />
      <path class="BUNTAI_RED_PANDA_JEWELRY_BUNTAI_RED_PANDA_JEWELRY_32_cls-8" d="M129.06,214.48c-1.68,0-1.4-2.29-1.4-2.29h0a4.57,4.57,0,0,0,2.06.43,1.85,1.85,0,0,0,.92-.23C130.65,212.53,130.68,214.48,129.06,214.48Z" />
      <path class="BUNTAI_RED_PANDA_JEWELRY_BUNTAI_RED_PANDA_JEWELRY_32_cls-8" d="M132,205.45c.61,2.05.48,6-1.31,6.94a1.85,1.85,0,0,1-.92.23,4.57,4.57,0,0,1-2.06-.43c-1.54-.75-2.32-2.49-2.21-5.14a8.41,8.41,0,0,1,.47-2.57,5.53,5.53,0,0,1,1.5-2.33,1.9,1.9,0,0,1,1.37-.57,2.31,2.31,0,0,1,1.67,1,3,3,0,0,1-.74.14h0a4.27,4.27,0,0,0-1.88,2.9c-.47,2.25.31,4.77,1.45,4.77s1.28-2.93,1.2-4.49h.09A5.29,5.29,0,0,0,132,205.45Z" />
      <path class="BUNTAI_RED_PANDA_JEWELRY_BUNTAI_RED_PANDA_JEWELRY_32_cls-8" d="M127,194.51c.4,2.05.61,2.83.61,2.83s-2.06,1.78-.88,4a2.37,2.37,0,0,0,.74.83,5.53,5.53,0,0,0-1.5,2.33A6,6,0,0,1,127,194.51Z" />
      <path class="BUNTAI_RED_PANDA_JEWELRY_BUNTAI_RED_PANDA_JEWELRY_32_cls-8" d="M134.64,201.83a4.84,4.84,0,0,1-2.69,3.62,5.74,5.74,0,0,1-1.4.43h-.1a5.13,5.13,0,0,1-2.65-.28,4.24,4.24,0,0,1,1.88-2.9h0a3.6,3.6,0,0,0,.74-.15,2.17,2.17,0,0,0,1.56-1.35,1.81,1.81,0,0,0,.09-.58c0-2.39-.94-2.5-.94-2.5s0-.13-.11-.33a3.07,3.07,0,0,1,2.39-2A8.17,8.17,0,0,1,134.64,201.83Z" />
      <path class="BUNTAI_RED_PANDA_JEWELRY_BUNTAI_RED_PANDA_JEWELRY_32_cls-7" d="M125.92,204.48a6,6,0,0,1,1-10c.42,1.7.61,2.83.61,2.83s-2.06,1.78-.88,4a2.37,2.37,0,0,0,.74.83" />
      <path class="BUNTAI_RED_PANDA_JEWELRY_BUNTAI_RED_PANDA_JEWELRY_32_cls-7" d="M127.8,205.61a5.13,5.13,0,0,0,2.65.28h.1a5.74,5.74,0,0,0,1.4-.43,4.84,4.84,0,0,0,2.69-3.62,8.17,8.17,0,0,0-1.19-6" />
      <path class="BUNTAI_RED_PANDA_JEWELRY_BUNTAI_RED_PANDA_JEWELRY_32_cls-7" d="M131.06,197.8c.06.2.11.33.11.33s.91.11.94,2.5a1.81,1.81,0,0,1-.09.58,2.17,2.17,0,0,1-1.56,1.35,3.6,3.6,0,0,1-.74.15" />
      <path class="BUNTAI_RED_PANDA_JEWELRY_BUNTAI_RED_PANDA_JEWELRY_32_cls-7" d="M132,205.45c.61,2.05.48,6-1.31,6.94a1.85,1.85,0,0,1-.92.23,4.57,4.57,0,0,1-2.06-.43c-1.54-.75-2.32-2.49-2.21-5.14a8.41,8.41,0,0,1,.47-2.57,5.53,5.53,0,0,1,1.5-2.33,1.9,1.9,0,0,1,1.37-.57,2.31,2.31,0,0,1,1.67,1" />
      <path class="BUNTAI_RED_PANDA_JEWELRY_BUNTAI_RED_PANDA_JEWELRY_32_cls-7" d="M130.45,205.89c.08,1.56.06,4.49-1.2,4.49s-1.92-2.52-1.45-4.77a4.27,4.27,0,0,1,1.88-2.9h0" />
      <path class="BUNTAI_RED_PANDA_JEWELRY_BUNTAI_RED_PANDA_JEWELRY_32_cls-7" d="M127.66,212.19s-.28,2.29,1.4,2.29,1.59-1.95,1.58-2.09h0" />
      <path class="BUNTAI_RED_PANDA_JEWELRY_BUNTAI_RED_PANDA_JEWELRY_32_cls-7" d="M131.24,200.25a3,3,0,0,1-.35-1.43,3.16,3.16,0,0,1,.17-1,3.07,3.07,0,0,1,2.39-2,2.87,2.87,0,0,1,.52-.05,2.1,2.1,0,0,1,2.08,1.55" />
      <path class="BUNTAI_RED_PANDA_JEWELRY_BUNTAI_RED_PANDA_JEWELRY_32_cls-9" d="M129,273.62c.92,5.59,1.35,7.24.21,12.14,0,0,1.82-2,4.2-5.22A51.74,51.74,0,0,0,129,273.62Z" />
      <path class="BUNTAI_RED_PANDA_JEWELRY_BUNTAI_RED_PANDA_JEWELRY_32_cls-9" d="M128.71,272a10.83,10.83,0,0,0-5.89,5.6,86.78,86.78,0,0,0,6.34,8.2c1.14-4.9.71-6.55-.21-12.14C128.87,273.1,128.79,272.53,128.71,272Z" />
      <path class="BUNTAI_RED_PANDA_JEWELRY_BUNTAI_RED_PANDA_JEWELRY_32_cls-9" d="M128.32,267.34c.09,1.62.22,3.19.39,4.62.08.57.16,1.14.24,1.66a51.74,51.74,0,0,1,4.41,6.92c1-1.33,2.07-2.85,3.16-4.52C134.49,271.26,128.32,267.34,128.32,267.34Z" />
      <path class="BUNTAI_RED_PANDA_JEWELRY_BUNTAI_RED_PANDA_JEWELRY_32_cls-9" d="M128.19,262.49c0,1.6.05,3.25.13,4.85,0,0,6.17,3.92,8.2,8.68,1-1.51,2-3.13,2.93-4.82-.43-3.25-2.36-4.48-5.81-6.76a19.15,19.15,0,0,1-5.37-5.52C128.22,260.05,128.19,261.25,128.19,262.49Z" />
      <path class="BUNTAI_RED_PANDA_JEWELRY_BUNTAI_RED_PANDA_JEWELRY_32_cls-9" d="M128.19,262.49s-6.93,3.14-8.68,9.86c1.07,1.85,2.21,3.61,3.31,5.21a10.83,10.83,0,0,1,5.89-5.6c-.17-1.43-.3-3-.39-4.62s-.13-3.25-.13-4.85Z" />
      <path class="BUNTAI_RED_PANDA_JEWELRY_BUNTAI_RED_PANDA_JEWELRY_32_cls-9" d="M122,255.89c-4.6,1.37-6.15,2.08-7.33,5a35.22,35.22,0,0,0,2.28,6.42S117.77,260.11,122,255.89Z" />
      <path class="BUNTAI_RED_PANDA_JEWELRY_BUNTAI_RED_PANDA_JEWELRY_32_cls-9" d="M122,255.89c-4.19,4.22-5,11.45-5,11.45.78,1.71,1.66,3.4,2.6,5,1.75-6.72,8.68-9.86,8.68-9.86h0c0-1.24,0-2.44.08-3.57a39.45,39.45,0,0,1,.43-4.41c.15-.94.26-1.92.34-2.9-.41.66-2,2.8-6.35,4.07Z" />
      <path class="BUNTAI_RED_PANDA_JEWELRY_BUNTAI_RED_PANDA_JEWELRY_32_cls-9" d="M143.9,260a10.42,10.42,0,0,0-7.51-5,25.19,25.19,0,0,1,5.71,10.68,32.35,32.35,0,0,0,1.8-5.7Z" />
      <path class="BUNTAI_RED_PANDA_JEWELRY_BUNTAI_RED_PANDA_JEWELRY_32_cls-9" d="M129,251.61c-.08,1-.19,2-.34,2.9a39.45,39.45,0,0,0-.43,4.41,19.15,19.15,0,0,0,5.37,5.52c3.45,2.28,5.38,3.51,5.81,6.76a52.41,52.41,0,0,0,2.65-5.5h0A25.19,25.19,0,0,0,136.39,255h0c-.63-.13-1.28-.24-1.94-.33a7.17,7.17,0,0,1-5.29-3.27Z" />
      <path class="BUNTAI_RED_PANDA_JEWELRY_BUNTAI_RED_PANDA_JEWELRY_32_cls-9" d="M129.25,230.56c.77.78,6.15,6.51,2.94,11,0,0,5.65,1.67,11.36,9.09-2.94-10.22-13.14-19.15-14.29-20.12Z" />
      <path class="BUNTAI_RED_PANDA_JEWELRY_BUNTAI_RED_PANDA_JEWELRY_32_cls-9" d="M129,251.61l.12-.21a7.17,7.17,0,0,0,5.29,3.27c.66.09,1.31.2,1.94.33h0a10.42,10.42,0,0,1,7.51,5,20.17,20.17,0,0,0,.43-4,19.43,19.43,0,0,0-.78-5.27c-5.71-7.42-11.36-9.09-11.36-9.09a8.44,8.44,0,0,1-3,2.5A67.49,67.49,0,0,1,129,251.61Z" />
      <path class="BUNTAI_RED_PANDA_JEWELRY_BUNTAI_RED_PANDA_JEWELRY_32_cls-9" d="M114,256a20.71,20.71,0,0,0,.66,5c1.18-2.95,2.73-3.66,7.33-5l.73-.21c4.32-1.27,5.94-3.41,6.35-4.07a67.49,67.49,0,0,0,.12-7.52,8.4,8.4,0,0,1-3-2.5s-5.34.52-10.56,6.75A20.66,20.66,0,0,0,114,256Z" />
      <path class="BUNTAI_RED_PANDA_JEWELRY_BUNTAI_RED_PANDA_JEWELRY_32_cls-9" d="M129.05,230.56c-1.05.9-9.84,8.56-13.49,17.78,5.22-6.23,10.56-6.75,10.56-6.75-3.21-4.52,2.17-10.25,2.94-11Z" />
      <path class="BUNTAI_RED_PANDA_JEWELRY_BUNTAI_RED_PANDA_JEWELRY_32_cls-8" d="M129.06,230.56c-.77.78-6.15,6.51-2.94,11a8.4,8.4,0,0,0,3,2.5,8.44,8.44,0,0,0,3-2.5c3.21-4.52-2.17-10.25-2.94-11h-.19Z" />
      <path class="BUNTAI_RED_PANDA_JEWELRY_BUNTAI_RED_PANDA_JEWELRY_32_cls-10" d="M129.16,223.76c-1.17,0-2.12,1.53-2.12,3.41a4,4,0,0,0,1.21,3.08h0a2,2,0,0,0,.9.22,2.11,2.11,0,0,0,.88-.21h0a4,4,0,0,0,1.2-3.08C131.26,225.29,130.32,223.76,129.16,223.76Z" />
      <path class="BUNTAI_RED_PANDA_JEWELRY_BUNTAI_RED_PANDA_JEWELRY_32_cls-8" d="M126.12,225.59c0,2.19.9,4,2.13,4.66a4,4,0,0,1-1.21-3.08c0-1.88.95-3.41,2.12-3.41s2.1,1.53,2.1,3.41a4,4,0,0,1-1.2,3.08c1.23-.62,2.13-2.47,2.13-4.66,0-2.7-1.36-4.9-3-4.9S126.12,222.89,126.12,225.59Z" />
      <path class="BUNTAI_RED_PANDA_JEWELRY_BUNTAI_RED_PANDA_JEWELRY_32_cls-11" d="M142.1,265.7a52.41,52.41,0,0,1-2.65,5.5c-.94,1.69-1.93,3.31-2.93,4.82-1.09,1.67-2.18,3.19-3.16,4.52-2.38,3.19-4.2,5.22-4.2,5.22a86.78,86.78,0,0,1-6.34-8.2c-1.1-1.6-2.24-3.36-3.31-5.21-.94-1.61-1.82-3.3-2.6-5a35.22,35.22,0,0,1-2.28-6.42,19,19,0,0,1,.93-12.58c3.65-9.22,12.44-16.88,13.49-17.78l.06-.05h0" />
      <path class="BUNTAI_RED_PANDA_JEWELRY_BUNTAI_RED_PANDA_JEWELRY_32_cls-11" d="M143.9,260a32.35,32.35,0,0,1-1.8,5.7" />
      <path class="BUNTAI_RED_PANDA_JEWELRY_BUNTAI_RED_PANDA_JEWELRY_32_cls-11" d="M129.19,230.5h0l.06.05c1.15,1,11.35,9.9,14.29,20.12a19.43,19.43,0,0,1,.78,5.27,20.17,20.17,0,0,1-.43,4" />
      <path class="BUNTAI_RED_PANDA_JEWELRY_BUNTAI_RED_PANDA_JEWELRY_32_cls-11" d="M129.16,230.47l0,0h0l.05.05c.77.78,6.15,6.51,2.94,11a8.44,8.44,0,0,1-3,2.5,8.4,8.4,0,0,1-3-2.5c-3.21-4.52,2.17-10.25,2.94-11l.05-.05h0Z" />
      <path class="BUNTAI_RED_PANDA_JEWELRY_BUNTAI_RED_PANDA_JEWELRY_32_cls-11" d="M129.16,244.09a67.49,67.49,0,0,1-.12,7.52c-.08,1-.19,2-.34,2.9a39.45,39.45,0,0,0-.43,4.41c-.05,1.13-.08,2.33-.08,3.57,0,1.6.05,3.25.13,4.85s.22,3.19.39,4.62c.08.57.16,1.14.24,1.66.92,5.59,1.35,7.24.21,12.14" />
      <path class="BUNTAI_RED_PANDA_JEWELRY_BUNTAI_RED_PANDA_JEWELRY_32_cls-11" d="M132.19,241.59s5.65,1.67,11.36,9.09v0" />
      <path class="BUNTAI_RED_PANDA_JEWELRY_BUNTAI_RED_PANDA_JEWELRY_32_cls-11" d="M136.39,255c-.63-.13-1.28-.24-1.94-.33a7.17,7.17,0,0,1-5.29-3.27l-.12.21c-.41.66-2,2.8-6.35,4.07l-.73.21c-4.6,1.37-6.15,2.08-7.33,5" />
      <path class="BUNTAI_RED_PANDA_JEWELRY_BUNTAI_RED_PANDA_JEWELRY_32_cls-11" d="M143.9,260h0a10.42,10.42,0,0,0-7.51-5" />
      <path class="BUNTAI_RED_PANDA_JEWELRY_BUNTAI_RED_PANDA_JEWELRY_32_cls-11" d="M142.1,265.7h0A25.19,25.19,0,0,0,136.39,255h0" />
      <path class="BUNTAI_RED_PANDA_JEWELRY_BUNTAI_RED_PANDA_JEWELRY_32_cls-11" d="M128.27,258.92a19.15,19.15,0,0,0,5.37,5.52c3.45,2.28,5.38,3.51,5.81,6.76" />
      <path class="BUNTAI_RED_PANDA_JEWELRY_BUNTAI_RED_PANDA_JEWELRY_32_cls-11" d="M128.32,267.34s6.17,3.92,8.2,8.68" />
      <path class="BUNTAI_RED_PANDA_JEWELRY_BUNTAI_RED_PANDA_JEWELRY_32_cls-11" d="M129,273.62a51.74,51.74,0,0,1,4.41,6.92" />
      <path class="BUNTAI_RED_PANDA_JEWELRY_BUNTAI_RED_PANDA_JEWELRY_32_cls-11" d="M126.12,241.59s-5.34.52-10.56,6.75" />
      <path class="BUNTAI_RED_PANDA_JEWELRY_BUNTAI_RED_PANDA_JEWELRY_32_cls-11" d="M116.91,267.34s.86-7.23,5-11.45" />
      <path class="BUNTAI_RED_PANDA_JEWELRY_BUNTAI_RED_PANDA_JEWELRY_32_cls-11" d="M128.19,262.49s-6.93,3.14-8.68,9.86" />
      <path class="BUNTAI_RED_PANDA_JEWELRY_BUNTAI_RED_PANDA_JEWELRY_32_cls-11" d="M128.71,272a10.83,10.83,0,0,0-5.89,5.6" />
      <path class="BUNTAI_RED_PANDA_JEWELRY_BUNTAI_RED_PANDA_JEWELRY_32_cls-11" d="M130.06,230.25c1.23-.62,2.13-2.47,2.13-4.66,0-2.7-1.36-4.9-3-4.9s-3,2.2-3,4.9c0,2.19.9,4,2.13,4.66" />
      <path class="BUNTAI_RED_PANDA_JEWELRY_BUNTAI_RED_PANDA_JEWELRY_32_cls-11" d="M128.26,230.25a2,2,0,0,0,.9.22,2.11,2.11,0,0,0,.88-.21" />
      <path class="BUNTAI_RED_PANDA_JEWELRY_BUNTAI_RED_PANDA_JEWELRY_32_cls-11" d="M130.06,230.25a4,4,0,0,0,1.2-3.08c0-1.88-.94-3.41-2.1-3.41s-2.12,1.53-2.12,3.41a4,4,0,0,0,1.21,3.08h0a1.45,1.45,0,0,0,.79.31h.21a1.45,1.45,0,0,0,.78-.3Z" />
      <g class="BUNTAI_RED_PANDA_JEWELRY_BUNTAI_RED_PANDA_JEWELRY_32_cls-12">
        <path d="M129.16,220.69a3.26,3.26,0,0,0,0,3.07c-.77,3.55-.44,5.51.1,6.8-.92,7.76-1.18,10.5.29,9.62a3.68,3.68,0,0,0,1.71-2.38s1.49,3.26-.29,5.09c-1.81,1.2-.36,4-.42,8.36s-.25,10.3-.21,13.69.15,9,.15,11.71a64.66,64.66,0,0,1-1.24,8.7,48.39,48.39,0,0,1-11.87-17c-4-10.09-4.9-13.23-1.43-21s12.37-16,12.37-16l.34-.87s-1.83-.21-2.13-3.21S126.51,221.39,129.16,220.69Z" />
      </g>
    </g>
  </g>
</svg>