<svg id="jewelry" xmlns="http://www.w3.org/2000/svg" viewBox="0 0 432 432">
  <defs>
    <style>.BUNTAI_RED_PANDA_JEWELRY_BUNTAI_RED_PANDA_JEWELRY_18_cls-1{fill:#e2d93c;stroke-miterlimit:10;stroke-width:2px;}.BUNTAI_RED_PANDA_JEWELRY_BUNTAI_RED_PANDA_JEWELRY_18_cls-1,.BUNTAI_RED_PANDA_JEWELRY_BUNTAI_RED_PANDA_JEWELRY_18_cls-2,.BUNTAI_RED_PANDA_JEWELRY_BUNTAI_RED_PANDA_JEWELRY_18_cls-4,.BUNTAI_RED_PANDA_JEWELRY_BUNTAI_RED_PANDA_JEWELRY_18_cls-8{stroke:#000;}.BUNTAI_RED_PANDA_JEWELRY_BUNTAI_RED_PANDA_JEWELRY_18_cls-2{fill:#754c24;}.BUNTAI_RED_PANDA_JEWELRY_BUNTAI_RED_PANDA_JEWELRY_18_cls-2,.BUNTAI_RED_PANDA_JEWELRY_BUNTAI_RED_PANDA_JEWELRY_18_cls-4,.BUNTAI_RED_PANDA_JEWELRY_BUNTAI_RED_PANDA_JEWELRY_18_cls-8{stroke-linecap:round;stroke-linejoin:round;}.BUNTAI_RED_PANDA_JEWELRY_BUNTAI_RED_PANDA_JEWELRY_18_cls-2,.BUNTAI_RED_PANDA_JEWELRY_BUNTAI_RED_PANDA_JEWELRY_18_cls-4{stroke-width:0.72px;}.BUNTAI_RED_PANDA_JEWELRY_BUNTAI_RED_PANDA_JEWELRY_18_cls-3{fill:#666;}.BUNTAI_RED_PANDA_JEWELRY_BUNTAI_RED_PANDA_JEWELRY_18_cls-4,.BUNTAI_RED_PANDA_JEWELRY_BUNTAI_RED_PANDA_JEWELRY_18_cls-8{fill:none;}.BUNTAI_RED_PANDA_JEWELRY_BUNTAI_RED_PANDA_JEWELRY_18_cls-5{fill:#333;}.BUNTAI_RED_PANDA_JEWELRY_BUNTAI_RED_PANDA_JEWELRY_18_cls-6{fill:#39b54a;}.BUNTAI_RED_PANDA_JEWELRY_BUNTAI_RED_PANDA_JEWELRY_18_cls-7{fill:#c7a858;}</style>
  </defs>
  <circle class="BUNTAI_RED_PANDA_JEWELRY_BUNTAI_RED_PANDA_JEWELRY_18_cls-1" cx="231.81" cy="235.33" r="2.6" />
  <circle class="BUNTAI_RED_PANDA_JEWELRY_BUNTAI_RED_PANDA_JEWELRY_18_cls-1" cx="249.91" cy="235.33" r="2.6" />
  <path class="BUNTAI_RED_PANDA_JEWELRY_BUNTAI_RED_PANDA_JEWELRY_18_cls-2" d="M286.74,312.86c0,.13-.79,2.71-.82,2.85a47.87,47.87,0,0,1-2.63,8c-6.25,15-19.81,35-49.05,46.12h0l-1.45.54h0l-.9.33a1.27,1.27,0,0,1-.34.05,1,1,0,0,1-.24,0c-.43-.1-.84-.21-1.25-.32h-.08l-1.09-.29h0l-.28-.07h0c-27.64-7.7-41.59-27.52-48.45-43-3.1-7-4.64-13.88-6.29-19.35-.37-1.24,0-5.48,3.63-3.67-1.16.81-1.94,1.78-1.79,2.45a101.56,101.56,0,0,0,6.36,19.8c6.8,15.33,20.7,35,48.46,42.18l1,.25.79-.28h0a.19.19,0,0,1,.08,0l1.26-.48h0c28.48-10.85,41.68-30.32,47.76-44.95a48,48,0,0,0,3.19-10.32c.14.05-.32-.38-1.16-.85C285.34,310,287.11,311.22,286.74,312.86Z" />
  <path class="BUNTAI_RED_PANDA_JEWELRY_BUNTAI_RED_PANDA_JEWELRY_18_cls-3" d="M230.58,396.27l3.45,11-2.78.33-1.77-11.07a5.93,5.93,0,0,0,.7-.11h0Z" />
  <path class="BUNTAI_RED_PANDA_JEWELRY_BUNTAI_RED_PANDA_JEWELRY_18_cls-3" d="M232.32,395.49l6.61,9.62-2.35,1L234,407.23h0l-3.45-11a6.74,6.74,0,0,0,1.4-.58A3,3,0,0,0,232.32,395.49Z" />
  <path class="BUNTAI_RED_PANDA_JEWELRY_BUNTAI_RED_PANDA_JEWELRY_18_cls-3" d="M242.59,401.92l-1.87,1.57-1.79,1.62-6.61-9.62a6.2,6.2,0,0,0,1.13-.9l.12-.13Z" />
  <path class="BUNTAI_RED_PANDA_JEWELRY_BUNTAI_RED_PANDA_JEWELRY_18_cls-3" d="M245,398l-1.26,1.95-1.1,2-9-7.46a5.85,5.85,0,0,0,.91-1.31,2.56,2.56,0,0,0,.11-.24Z" />
  <path class="BUNTAI_RED_PANDA_JEWELRY_BUNTAI_RED_PANDA_JEWELRY_18_cls-3" d="M246.44,393.46l-.74,2.08L245,398l-10.36-5.07a6.41,6.41,0,0,0,.44-1.28l.06-.3Z" />
  <path class="BUNTAI_RED_PANDA_JEWELRY_BUNTAI_RED_PANDA_JEWELRY_18_cls-3" d="M246.62,389.56l-.26,1.67.08,2.23-11.35-2.13a9.54,9.54,0,0,0,.16-1.77Z" />
  <path class="BUNTAI_RED_PANDA_JEWELRY_BUNTAI_RED_PANDA_JEWELRY_18_cls-3" d="M246.36,387.89l.26,1.67H235.25a9.73,9.73,0,0,0-.16-1.78l11.35-2.13Z" />
  <path class="BUNTAI_RED_PANDA_JEWELRY_BUNTAI_RED_PANDA_JEWELRY_18_cls-3" d="M245.7,383.58l.74,2.07-11.35,2.13-.06-.29a6.41,6.41,0,0,0-.44-1.28L245,381.14Z" />
  <path class="BUNTAI_RED_PANDA_JEWELRY_BUNTAI_RED_PANDA_JEWELRY_18_cls-3" d="M243.69,379.18l1.26,2-10.36,5.07a1.33,1.33,0,0,0-.11-.24,5.63,5.63,0,0,0-.91-1.31l9-7.47Z" />
  <path class="BUNTAI_RED_PANDA_JEWELRY_BUNTAI_RED_PANDA_JEWELRY_18_cls-3" d="M242.59,377.19l-9,7.47-.12-.13a6.27,6.27,0,0,0-1.13-.91l6.61-9.62,1.79,1.63Z" />
  <path class="BUNTAI_RED_PANDA_JEWELRY_BUNTAI_RED_PANDA_JEWELRY_18_cls-3" d="M238.93,374l-6.61,9.62-.34-.19a6.74,6.74,0,0,0-1.4-.58l3.45-11h0l2.55,1.11Z" />
  <path class="BUNTAI_RED_PANDA_JEWELRY_BUNTAI_RED_PANDA_JEWELRY_18_cls-3" d="M234,371.89l-3.45,11-.4-.11h0a5.09,5.09,0,0,0-.7-.12l1.77-11.06Z" />
  <path class="BUNTAI_RED_PANDA_JEWELRY_BUNTAI_RED_PANDA_JEWELRY_18_cls-4" d="M230.18,382.74a5.09,5.09,0,0,0-.7-.12l1.77-11.06,2.78.33h0l2.55,1.11,2.35,1,1.79,1.63,1.87,1.56,1.1,2,1.26,2,.75,2.44.74,2.07-.08,2.24.26,1.67" />
  <path class="BUNTAI_RED_PANDA_JEWELRY_BUNTAI_RED_PANDA_JEWELRY_18_cls-4" d="M235.25,389.56a9.73,9.73,0,0,0-.16-1.78l-.06-.29a6.41,6.41,0,0,0-.44-1.28,1.33,1.33,0,0,0-.11-.24,5.63,5.63,0,0,0-.91-1.31l-.12-.13a6.27,6.27,0,0,0-1.13-.91l-.34-.19a6.74,6.74,0,0,0-1.4-.58l-.4-.11" />
  <line class="BUNTAI_RED_PANDA_JEWELRY_BUNTAI_RED_PANDA_JEWELRY_18_cls-4" x1="234.59" y1="386.21" x2="244.95" y2="381.14" />
  <polyline class="BUNTAI_RED_PANDA_JEWELRY_BUNTAI_RED_PANDA_JEWELRY_18_cls-4" points="233.57 384.66 233.57 384.66 242.59 377.19" />
  <line class="BUNTAI_RED_PANDA_JEWELRY_BUNTAI_RED_PANDA_JEWELRY_18_cls-4" x1="232.32" y1="383.62" x2="238.93" y2="374" />
  <line class="BUNTAI_RED_PANDA_JEWELRY_BUNTAI_RED_PANDA_JEWELRY_18_cls-4" x1="230.58" y1="382.85" x2="234.03" y2="371.89" />
  <line class="BUNTAI_RED_PANDA_JEWELRY_BUNTAI_RED_PANDA_JEWELRY_18_cls-4" x1="235.09" y1="387.78" x2="246.44" y2="385.65" />
  <polyline class="BUNTAI_RED_PANDA_JEWELRY_BUNTAI_RED_PANDA_JEWELRY_18_cls-4" points="230.18 382.74 230.18 382.75 228.94 389.56" />
  <polyline class="BUNTAI_RED_PANDA_JEWELRY_BUNTAI_RED_PANDA_JEWELRY_18_cls-4" points="235.03 387.49 228.94 389.56 234.48 385.97" />
  <polyline class="BUNTAI_RED_PANDA_JEWELRY_BUNTAI_RED_PANDA_JEWELRY_18_cls-4" points="233.45 384.53 228.94 389.56 231.98 383.43" />
  <path class="BUNTAI_RED_PANDA_JEWELRY_BUNTAI_RED_PANDA_JEWELRY_18_cls-4" d="M230.18,396.38a5.93,5.93,0,0,1-.7.11l1.77,11.07,2.78-.33h0l2.55-1.12,2.35-1,1.79-1.62,1.87-1.57,1.1-2L245,398l.75-2.44.74-2.08-.08-2.23.26-1.67H235.25a9.54,9.54,0,0,1-.16,1.77l-.06.3a6.41,6.41,0,0,1-.44,1.28,2.56,2.56,0,0,1-.11.24,5.85,5.85,0,0,1-.91,1.31l-.12.13a6.2,6.2,0,0,1-1.13.9,3,3,0,0,1-.34.2,6.74,6.74,0,0,1-1.4.58l-.4.1" />
  <line class="BUNTAI_RED_PANDA_JEWELRY_BUNTAI_RED_PANDA_JEWELRY_18_cls-4" x1="244.95" y1="397.98" x2="234.59" y2="392.91" />
  <polyline class="BUNTAI_RED_PANDA_JEWELRY_BUNTAI_RED_PANDA_JEWELRY_18_cls-4" points="242.59 401.92 233.57 394.46 233.57 394.46" />
  <line class="BUNTAI_RED_PANDA_JEWELRY_BUNTAI_RED_PANDA_JEWELRY_18_cls-4" x1="238.93" y1="405.11" x2="232.32" y2="395.49" />
  <line class="BUNTAI_RED_PANDA_JEWELRY_BUNTAI_RED_PANDA_JEWELRY_18_cls-4" x1="234.03" y1="407.23" x2="230.58" y2="396.27" />
  <line class="BUNTAI_RED_PANDA_JEWELRY_BUNTAI_RED_PANDA_JEWELRY_18_cls-4" x1="246.44" y1="393.46" x2="235.09" y2="391.33" />
  <polyline class="BUNTAI_RED_PANDA_JEWELRY_BUNTAI_RED_PANDA_JEWELRY_18_cls-4" points="230.18 396.38 230.18 396.37 228.94 389.56 235.25 389.56" />
  <polyline class="BUNTAI_RED_PANDA_JEWELRY_BUNTAI_RED_PANDA_JEWELRY_18_cls-4" points="235.03 391.63 228.94 389.56 234.48 393.15" />
  <polyline class="BUNTAI_RED_PANDA_JEWELRY_BUNTAI_RED_PANDA_JEWELRY_18_cls-4" points="233.45 394.59 228.94 389.56 231.98 395.69" />
  <path class="BUNTAI_RED_PANDA_JEWELRY_BUNTAI_RED_PANDA_JEWELRY_18_cls-5" d="M229.12,367.94l1.4.38s1.45-.81,2,.33.32,2-.45,2.33a1.69,1.69,0,0,1-2.14-.58,2.87,2.87,0,0,0-1.34-.3s.56,2.15,2.42,2.34a2.73,2.73,0,0,0,3.18-2.5,2.64,2.64,0,0,0-1.49-2.78A2.85,2.85,0,0,0,229.12,367.94Z" />
  <path class="BUNTAI_RED_PANDA_JEWELRY_BUNTAI_RED_PANDA_JEWELRY_18_cls-4" d="M228.56,370a2.84,2.84,0,0,0,2.54,2.49h.28a2.83,2.83,0,0,0,1.9-.72,2.78,2.78,0,0,0,.94-2,.92.92,0,0,0,0-.16,2.83,2.83,0,0,0-2.85-2.85,2.83,2.83,0,0,0-2.31,1.2l1.41.38a1.53,1.53,0,0,1,.9-.29,1.5,1.5,0,0,1,.86.26,1.57,1.57,0,0,1,.7,1.3,1.51,1.51,0,0,1-.17.7,1.55,1.55,0,0,1-1.39.86,1.56,1.56,0,0,1-1.37-.82h0Z" />
  <path class="BUNTAI_RED_PANDA_JEWELRY_BUNTAI_RED_PANDA_JEWELRY_18_cls-6" d="M320.21,207.16c0,5.22,2.64,9.47,5.91,9.47s5.9-4.25,5.9-9.47-2.64-9.48-5.9-9.48S320.21,201.92,320.21,207.16Z" />
  <path class="BUNTAI_RED_PANDA_JEWELRY_BUNTAI_RED_PANDA_JEWELRY_18_cls-7" d="M318.58,207.15c0,6.68,3.37,12.08,7.53,12.08s7.54-5.4,7.54-12.08-3.38-12.08-7.54-12.08S318.58,200.47,318.58,207.15Zm1.63,0c0-5.23,2.64-9.48,5.9-9.48s5.91,4.25,5.91,9.48-2.64,9.47-5.91,9.47S320.21,212.38,320.21,207.15Z" />
  <ellipse class="BUNTAI_RED_PANDA_JEWELRY_BUNTAI_RED_PANDA_JEWELRY_18_cls-7" cx="326.12" cy="193.04" rx="3.15" ry="2.03" />
  <path class="BUNTAI_RED_PANDA_JEWELRY_BUNTAI_RED_PANDA_JEWELRY_18_cls-7" d="M326.2,180.32c2.22,0,1.86-3,1.86-3h0a6.09,6.09,0,0,1-2.72.58,2.43,2.43,0,0,1-1.22-.31C324.11,177.74,324.07,180.32,326.2,180.32Z" />
  <path class="BUNTAI_RED_PANDA_JEWELRY_BUNTAI_RED_PANDA_JEWELRY_18_cls-7" d="M322.39,168.39c-.81,2.71-.64,7.87,1.73,9.17a2.43,2.43,0,0,0,1.22.31,6.09,6.09,0,0,0,2.72-.58c2-1,3.06-3.28,2.92-6.78a11.32,11.32,0,0,0-.63-3.41,7.13,7.13,0,0,0-2-3.07,2.46,2.46,0,0,0-1.81-.75,3,3,0,0,0-2.2,1.3,5,5,0,0,0,1,.18h.05a5.62,5.62,0,0,1,2.48,3.83c.63,3-.41,6.3-1.91,6.3-1.67,0-1.69-3.87-1.59-5.92l-.12,0A7.24,7.24,0,0,1,322.39,168.39Z" />
  <path class="BUNTAI_RED_PANDA_JEWELRY_BUNTAI_RED_PANDA_JEWELRY_18_cls-7" d="M328.06,153.81a9.14,9.14,0,0,0,.14,3.86s2.71,2.35,1.15,5.26a3.06,3.06,0,0,1-1,1.1,7.13,7.13,0,0,1,2,3.07C334,163.92,334.24,156.43,328.06,153.81Z" />
  <path class="BUNTAI_RED_PANDA_JEWELRY_BUNTAI_RED_PANDA_JEWELRY_18_cls-7" d="M318.83,163.6a6.42,6.42,0,0,0,3.56,4.79,7.16,7.16,0,0,0,1.85.56l.13,0a6.87,6.87,0,0,0,3.5-.37,5.62,5.62,0,0,0-2.48-3.83h-.06a4.59,4.59,0,0,1-1-.19,2.89,2.89,0,0,1-2.06-1.79,2.39,2.39,0,0,1-.12-.77c0-3.15,1.24-3.3,1.24-3.3s.07-.17.15-.43a4.06,4.06,0,0,0-3.15-2.65A10.76,10.76,0,0,0,318.83,163.6Z" />
  <path class="BUNTAI_RED_PANDA_JEWELRY_BUNTAI_RED_PANDA_JEWELRY_18_cls-8" d="M330.35,167.1c3.6-3.18,4.1-10.61-2.29-13.29a6.59,6.59,0,0,0,.14,3.86s2.71,2.35,1.15,5.26a3.06,3.06,0,0,1-1,1.1" />
  <path class="BUNTAI_RED_PANDA_JEWELRY_BUNTAI_RED_PANDA_JEWELRY_18_cls-8" d="M320.41,155.63a10.76,10.76,0,0,0-1.58,8,6.42,6.42,0,0,0,3.56,4.79,7.16,7.16,0,0,0,1.85.56l.13,0a6.87,6.87,0,0,0,3.5-.37" />
  <path class="BUNTAI_RED_PANDA_JEWELRY_BUNTAI_RED_PANDA_JEWELRY_18_cls-8" d="M325.33,164.76a4.59,4.59,0,0,1-1-.19,2.89,2.89,0,0,1-2.06-1.79,2.39,2.39,0,0,1-.12-.77c0-3.15,1.24-3.3,1.24-3.3s.07-.17.15-.43" />
  <path class="BUNTAI_RED_PANDA_JEWELRY_BUNTAI_RED_PANDA_JEWELRY_18_cls-8" d="M322.39,168.39c-.81,2.71-.64,7.87,1.73,9.17a2.43,2.43,0,0,0,1.22.31,6.09,6.09,0,0,0,2.72-.58c2-1,3.06-3.28,2.92-6.78a11.32,11.32,0,0,0-.63-3.41,7.13,7.13,0,0,0-2-3.07,2.46,2.46,0,0,0-1.81-.75,3,3,0,0,0-2.2,1.3" />
  <path class="BUNTAI_RED_PANDA_JEWELRY_BUNTAI_RED_PANDA_JEWELRY_18_cls-8" d="M324.37,169c-.1,2.05-.08,5.92,1.59,5.92,1.5,0,2.54-3.33,1.91-6.3a5.62,5.62,0,0,0-2.48-3.83h-.05" />
  <path class="BUNTAI_RED_PANDA_JEWELRY_BUNTAI_RED_PANDA_JEWELRY_18_cls-8" d="M328.06,177.3s.36,3-1.86,3-2.09-2.58-2.08-2.76h0" />
  <ellipse class="BUNTAI_RED_PANDA_JEWELRY_BUNTAI_RED_PANDA_JEWELRY_18_cls-8" cx="326.12" cy="193.04" rx="3.15" ry="2.03" />
  <path class="BUNTAI_RED_PANDA_JEWELRY_BUNTAI_RED_PANDA_JEWELRY_18_cls-8" d="M318.58,207.16c0,6.67,3.37,12.07,7.54,12.07s7.53-5.4,7.53-12.07-3.37-12.09-7.53-12.09S318.58,200.48,318.58,207.16Z" />
  <path class="BUNTAI_RED_PANDA_JEWELRY_BUNTAI_RED_PANDA_JEWELRY_18_cls-8" d="M320.21,207.16c0,5.22,2.64,9.47,5.91,9.47s5.9-4.25,5.9-9.47-2.64-9.48-5.9-9.48S320.21,201.92,320.21,207.16Z" />
  <line class="BUNTAI_RED_PANDA_JEWELRY_BUNTAI_RED_PANDA_JEWELRY_18_cls-8" x1="326.2" y1="180.32" x2="326.2" y2="191.02" />
  <path class="BUNTAI_RED_PANDA_JEWELRY_BUNTAI_RED_PANDA_JEWELRY_18_cls-8" d="M325.6,199.69s-3.56,1.3-3.4,8" />
  <path class="BUNTAI_RED_PANDA_JEWELRY_BUNTAI_RED_PANDA_JEWELRY_18_cls-8" d="M323.33,161.52a4.1,4.1,0,0,0,.23-3.24,4.06,4.06,0,0,0-3.15-2.65,3.85,3.85,0,0,0-.69-.06,2.74,2.74,0,0,0-2.74,2.05" />
</svg>