<svg id="jewelry" xmlns="http://www.w3.org/2000/svg" viewBox="0 0 432 432">
  <defs>
    <style>.BUNTAI_RED_PANDA_JEWELRY_BUNTAI_RED_PANDA_JEWELRY_23_cls-1{fill:#fff;}.BUNTAI_RED_PANDA_JEWELRY_BUNTAI_RED_PANDA_JEWELRY_23_cls-2{fill:#666;}.BUNTAI_RED_PANDA_JEWELRY_BUNTAI_RED_PANDA_JEWELRY_23_cls-3{fill:#c7a858;}.BUNTAI_RED_PANDA_JEWELRY_BUNTAI_RED_PANDA_JEWELRY_23_cls-4{fill:none;stroke:#000;stroke-linecap:round;stroke-linejoin:round;stroke-width:0.88px;}</style>
  </defs>
  <path class="BUNTAI_RED_PANDA_JEWELRY_BUNTAI_RED_PANDA_JEWELRY_23_cls-1" d="M141,251.58a12.71,12.71,0,0,1-11.25-3.53,6.2,6.2,0,0,0,4.21-3.43A22.8,22.8,0,0,0,141,251.58Z" />
  <path class="BUNTAI_RED_PANDA_JEWELRY_BUNTAI_RED_PANDA_JEWELRY_23_cls-1" d="M141.18,251.69c-2.14.9-10.15,3.4-17.5-5.47a6.25,6.25,0,0,0,2.46-.36,30.28,30.28,0,0,1-3-1.24,32.66,32.66,0,0,1-.35-11.19l2.07-1.28-.34,1.87,1.43-1.15c-.51,4.35-.33,9.24,1.93,12.82a14.19,14.19,0,0,0,1.84,2.36A12.71,12.71,0,0,0,141,251.58Z" />
  <path class="BUNTAI_RED_PANDA_JEWELRY_BUNTAI_RED_PANDA_JEWELRY_23_cls-2" d="M127.66,227.77a20.44,20.44,0,0,0,3.49.87l-2.34,1.06,1.61.58-1.74.57s2,2.67,3.38,3.07a9.83,9.83,0,0,1-4.36-.84l-.84,2.08-.86-2.29a48.52,48.52,0,0,1,.91-5.1Z" />
  <path class="BUNTAI_RED_PANDA_JEWELRY_BUNTAI_RED_PANDA_JEWELRY_23_cls-1" d="M126.86,235.16l.84-2.08,0,1.51s1.46,4.72,3.67,5.92c-1.55,3.63-1.55,4.38-1.55,4.38l2.87-3.19a9.15,9.15,0,0,0,1.24,2.92,6.2,6.2,0,0,1-4.21,3.43,14.19,14.19,0,0,1-1.84-2.36c-2.26-3.58-2.44-8.47-1.93-12.82Z" />
  <path class="BUNTAI_RED_PANDA_JEWELRY_BUNTAI_RED_PANDA_JEWELRY_23_cls-2" d="M126.91,227.77a48.52,48.52,0,0,0-.91,5.1L124.57,234l.34-1.87-2.07,1.28a5.27,5.27,0,0,1-2,1.16,10.28,10.28,0,0,0,1.81-3.28l-1-.44,1.38-1.11-1.24-1.5s2.34,0,2.61-.09,1.75-.4,1.75-.4Z" />
  <path class="BUNTAI_RED_PANDA_JEWELRY_BUNTAI_RED_PANDA_JEWELRY_23_cls-3" d="M128.62,219a2.33,2.33,0,0,1-.15,4.65,2.6,2.6,0,0,1-.4,0,2.33,2.33,0,0,1,.4-4.63Z" />
  <path class="BUNTAI_RED_PANDA_JEWELRY_BUNTAI_RED_PANDA_JEWELRY_23_cls-3" d="M127.25,209a4.48,4.48,0,0,0,2,.43,1.77,1.77,0,0,0,.9-.23c0,.13,0,2-1.54,2s-1.37-2.23-1.37-2.23Z" />
  <path class="BUNTAI_RED_PANDA_JEWELRY_BUNTAI_RED_PANDA_JEWELRY_23_cls-3" d="M125.9,191.83a12.42,12.42,0,0,1,.37,2.88,3.38,3.38,0,0,0,0,3.62,2.35,2.35,0,0,0,.72.81,5.37,5.37,0,0,0-1.46,2.27C122.89,199.06,121.51,194.53,125.9,191.83Z" />
  <path class="BUNTAI_RED_PANDA_JEWELRY_BUNTAI_RED_PANDA_JEWELRY_23_cls-3" d="M129.23,199.69h0a4.19,4.19,0,0,0-1.84,2.83c-.46,2.2.31,4.66,1.42,4.66s1.25-2.86,1.18-4.38h.09a5.5,5.5,0,0,0,1.37-.42c.6,2,.47,5.82-1.28,6.78a1.77,1.77,0,0,1-.9.23,4.48,4.48,0,0,1-2-.43c-1.51-.73-2.26-2.43-2.16-5a8.14,8.14,0,0,1,.46-2.52,5.37,5.37,0,0,1,1.46-2.27,1.93,1.93,0,0,1,1.35-.56,2.32,2.32,0,0,1,1.63,1,3.48,3.48,0,0,1-.73.13Z" />
  <path class="BUNTAI_RED_PANDA_JEWELRY_BUNTAI_RED_PANDA_JEWELRY_23_cls-3" d="M132.46,192.27c2,1.9,2.92,8.29-1,10.1a5.5,5.5,0,0,1-1.37.42H130a5,5,0,0,1-2.6-.28,4.19,4.19,0,0,1,1.84-2.83h0a3.48,3.48,0,0,0,.73-.13,2,2,0,0,0,1.61-1.9,3.29,3.29,0,0,0-1.44-3S129.31,192,132.46,192.27Z" />
  <path class="BUNTAI_RED_PANDA_JEWELRY_BUNTAI_RED_PANDA_JEWELRY_23_cls-4" d="M125.55,201.41c-2.66-2.35-4-6.88.35-9.58.29,2,.37,2.88.37,2.88a3.38,3.38,0,0,0,0,3.62,2.35,2.35,0,0,0,.72.81" />
  <path class="BUNTAI_RED_PANDA_JEWELRY_BUNTAI_RED_PANDA_JEWELRY_23_cls-4" d="M129.26,199.68a3.48,3.48,0,0,0,.73-.13,2,2,0,0,0,1.61-1.9,3.29,3.29,0,0,0-1.44-3s-.85-2.67,2.3-2.35c2,1.9,2.92,8.29-1,10.1a5.5,5.5,0,0,1-1.37.42H130a5,5,0,0,1-2.6-.28" />
  <path class="BUNTAI_RED_PANDA_JEWELRY_BUNTAI_RED_PANDA_JEWELRY_23_cls-4" d="M131.44,202.37c.6,2,.47,5.82-1.28,6.78a1.77,1.77,0,0,1-.9.23,4.48,4.48,0,0,1-2-.43c-1.51-.73-2.26-2.43-2.16-5a8.14,8.14,0,0,1,.46-2.52,5.37,5.37,0,0,1,1.46-2.27,1.93,1.93,0,0,1,1.35-.56,2.32,2.32,0,0,1,1.63,1" />
  <path class="BUNTAI_RED_PANDA_JEWELRY_BUNTAI_RED_PANDA_JEWELRY_23_cls-4" d="M130,202.8c.07,1.52.06,4.38-1.18,4.38s-1.88-2.46-1.42-4.66a4.19,4.19,0,0,1,1.84-2.83h0" />
  <path class="BUNTAI_RED_PANDA_JEWELRY_BUNTAI_RED_PANDA_JEWELRY_23_cls-4" d="M127.25,209s-.27,2.23,1.37,2.23,1.55-1.91,1.54-2h0" />
  <path class="BUNTAI_RED_PANDA_JEWELRY_BUNTAI_RED_PANDA_JEWELRY_23_cls-4" d="M128.62,219a2.33,2.33,0,0,1-.15,4.65,2.6,2.6,0,0,1-.4,0,2.33,2.33,0,0,1,.4-4.63Z" />
  <path class="BUNTAI_RED_PANDA_JEWELRY_BUNTAI_RED_PANDA_JEWELRY_23_cls-4" d="M126.91,227.77h-.77s-1.49.36-1.75.4-2.61.09-2.61.09l1.24,1.5-1.38,1.11,1,.44a10.28,10.28,0,0,1-1.81,3.28,5.27,5.27,0,0,0,2-1.16,32.66,32.66,0,0,0,.35,11.19,30.28,30.28,0,0,0,3,1.24,6.25,6.25,0,0,1-2.46.36c7.35,8.87,15.36,6.37,17.5,5.47l-.16-.11a22.8,22.8,0,0,1-7-7,9.15,9.15,0,0,1-1.24-2.92l-2.87,3.19s0-.75,1.55-4.38c-2.21-1.2-3.67-5.92-3.67-5.92l0-1.51a9.83,9.83,0,0,0,4.36.84c-1.37-.4-3.38-3.07-3.38-3.07l1.74-.57-1.61-.58,2.34-1.06a20.44,20.44,0,0,1-3.49-.87h-.75" />
  <path class="BUNTAI_RED_PANDA_JEWELRY_BUNTAI_RED_PANDA_JEWELRY_23_cls-4" d="M128.07,223.64c-.3.91-.74,2.36-1.16,4.13a48.52,48.52,0,0,0-.91,5.1c-.51,4.35-.33,9.24,1.93,12.82a14.19,14.19,0,0,0,1.84,2.36A12.71,12.71,0,0,0,141,251.58" />
  <path class="BUNTAI_RED_PANDA_JEWELRY_BUNTAI_RED_PANDA_JEWELRY_23_cls-4" d="M129.77,248.05a6.2,6.2,0,0,0,4.21-3.43" />
  <polyline class="BUNTAI_RED_PANDA_JEWELRY_BUNTAI_RED_PANDA_JEWELRY_23_cls-4" points="127.7 233.08 126.86 235.16 126 232.87 124.56 234.02 124.91 232.15 122.84 233.43" />
  <line class="BUNTAI_RED_PANDA_JEWELRY_BUNTAI_RED_PANDA_JEWELRY_23_cls-4" x1="128.62" y1="219.02" x2="128.62" y2="211.19" />
  <path class="BUNTAI_RED_PANDA_JEWELRY_BUNTAI_RED_PANDA_JEWELRY_23_cls-4" d="M134.81,193.4s-2.22-2.3-4.31-.69.1,4.31.1,4.31" />
  <path class="BUNTAI_RED_PANDA_JEWELRY_BUNTAI_RED_PANDA_JEWELRY_23_cls-1" d="M306.8,251.58a12.71,12.71,0,0,0,11.25-3.53,6.23,6.23,0,0,1-4.22-3.43A22.62,22.62,0,0,1,306.8,251.58Z" />
  <path class="BUNTAI_RED_PANDA_JEWELRY_BUNTAI_RED_PANDA_JEWELRY_23_cls-1" d="M306.64,251.69c2.14.9,10.14,3.4,17.5-5.47a6.25,6.25,0,0,1-2.46-.36,29.33,29.33,0,0,0,2.94-1.24,32.52,32.52,0,0,0,.36-11.19l-2.08-1.28.35,1.87-1.43-1.15c.51,4.35.33,9.24-1.93,12.82a14.19,14.19,0,0,1-1.84,2.36,12.71,12.71,0,0,1-11.25,3.53Z" />
  <path class="BUNTAI_RED_PANDA_JEWELRY_BUNTAI_RED_PANDA_JEWELRY_23_cls-2" d="M320.16,227.77a20.44,20.44,0,0,1-3.49.87L319,229.7l-1.61.58,1.74.57s-2,2.67-3.38,3.07a9.8,9.8,0,0,0,4.35-.84l.85,2.08.86-2.29a46,46,0,0,0-.92-5.1Z" />
  <path class="BUNTAI_RED_PANDA_JEWELRY_BUNTAI_RED_PANDA_JEWELRY_23_cls-1" d="M321,235.16l-.85-2.08,0,1.51s-1.46,4.72-3.67,5.92c1.55,3.63,1.55,4.38,1.55,4.38l-2.88-3.19a8.85,8.85,0,0,1-1.24,2.92,6.23,6.23,0,0,0,4.22,3.43,14.19,14.19,0,0,0,1.84-2.36c2.26-3.58,2.44-8.47,1.93-12.82Z" />
  <path class="BUNTAI_RED_PANDA_JEWELRY_BUNTAI_RED_PANDA_JEWELRY_23_cls-2" d="M320.9,227.77a46,46,0,0,1,.92,5.1l1.43,1.15-.35-1.87,2.08,1.28a5.27,5.27,0,0,0,2,1.16,10,10,0,0,1-1.81-3.28l1-.44-1.37-1.11,1.24-1.5s-2.34,0-2.61-.09-1.75-.4-1.75-.4Z" />
  <path class="BUNTAI_RED_PANDA_JEWELRY_BUNTAI_RED_PANDA_JEWELRY_23_cls-3" d="M319.2,219a2.33,2.33,0,0,0,.15,4.65,2.6,2.6,0,0,0,.4,0,2.33,2.33,0,0,0-.4-4.63Z" />
  <path class="BUNTAI_RED_PANDA_JEWELRY_BUNTAI_RED_PANDA_JEWELRY_23_cls-3" d="M320.57,209a4.51,4.51,0,0,1-2,.43,1.77,1.77,0,0,1-.9-.23c0,.13,0,2,1.54,2s1.37-2.23,1.37-2.23Z" />
  <path class="BUNTAI_RED_PANDA_JEWELRY_BUNTAI_RED_PANDA_JEWELRY_23_cls-3" d="M321.92,191.83a11.72,11.72,0,0,0-.37,2.88,3.38,3.38,0,0,1,0,3.62,2.28,2.28,0,0,1-.73.81,5.29,5.29,0,0,1,1.47,2.27C324.93,199.06,326.3,194.53,321.92,191.83Z" />
  <path class="BUNTAI_RED_PANDA_JEWELRY_BUNTAI_RED_PANDA_JEWELRY_23_cls-3" d="M318.59,199.69h0a4.18,4.18,0,0,1,1.83,2.83c.46,2.2-.3,4.66-1.41,4.66s-1.25-2.86-1.18-4.38h-.09a5.37,5.37,0,0,1-1.37-.42c-.6,2-.48,5.82,1.28,6.78a1.77,1.77,0,0,0,.9.23,4.51,4.51,0,0,0,2-.43c1.5-.73,2.26-2.43,2.16-5a8.45,8.45,0,0,0-.46-2.52,5.29,5.29,0,0,0-1.47-2.27,1.89,1.89,0,0,0-1.34-.56,2.29,2.29,0,0,0-1.63,1,3.48,3.48,0,0,0,.73.13Z" />
  <path class="BUNTAI_RED_PANDA_JEWELRY_BUNTAI_RED_PANDA_JEWELRY_23_cls-3" d="M315.35,192.27c-2,1.9-2.91,8.29,1,10.1a5.37,5.37,0,0,0,1.37.42h.09a5,5,0,0,0,2.59-.28,4.18,4.18,0,0,0-1.83-2.83h0a3.48,3.48,0,0,1-.73-.13,2,2,0,0,1-1.61-1.9,3.3,3.3,0,0,1,1.43-3S318.51,192,315.35,192.27Z" />
  <path class="BUNTAI_RED_PANDA_JEWELRY_BUNTAI_RED_PANDA_JEWELRY_23_cls-4" d="M322.27,201.41c2.66-2.35,4-6.88-.35-9.58-.29,2-.37,2.88-.37,2.88a3.38,3.38,0,0,1,0,3.62,2.28,2.28,0,0,1-.73.81" />
  <path class="BUNTAI_RED_PANDA_JEWELRY_BUNTAI_RED_PANDA_JEWELRY_23_cls-4" d="M318.56,199.68a3.48,3.48,0,0,1-.73-.13,2,2,0,0,1-1.61-1.9,3.3,3.3,0,0,1,1.43-3s.86-2.67-2.3-2.35c-2,1.9-2.91,8.29,1,10.1a5.37,5.37,0,0,0,1.37.42h.09a5,5,0,0,0,2.59-.28" />
  <path class="BUNTAI_RED_PANDA_JEWELRY_BUNTAI_RED_PANDA_JEWELRY_23_cls-4" d="M316.38,202.37c-.6,2-.48,5.82,1.28,6.78a1.77,1.77,0,0,0,.9.23,4.51,4.51,0,0,0,2-.43c1.5-.73,2.26-2.43,2.16-5a8.45,8.45,0,0,0-.46-2.52,5.29,5.29,0,0,0-1.47-2.27,1.89,1.89,0,0,0-1.34-.56,2.29,2.29,0,0,0-1.63,1" />
  <path class="BUNTAI_RED_PANDA_JEWELRY_BUNTAI_RED_PANDA_JEWELRY_23_cls-4" d="M317.84,202.8c-.07,1.52-.06,4.38,1.18,4.38s1.87-2.46,1.41-4.66a4.18,4.18,0,0,0-1.83-2.83h0" />
  <path class="BUNTAI_RED_PANDA_JEWELRY_BUNTAI_RED_PANDA_JEWELRY_23_cls-4" d="M320.57,209s.27,2.23-1.37,2.23-1.55-1.91-1.54-2h0" />
  <path class="BUNTAI_RED_PANDA_JEWELRY_BUNTAI_RED_PANDA_JEWELRY_23_cls-4" d="M319.2,219a2.33,2.33,0,0,0,.15,4.65,2.6,2.6,0,0,0,.4,0,2.33,2.33,0,0,0-.4-4.63Z" />
  <path class="BUNTAI_RED_PANDA_JEWELRY_BUNTAI_RED_PANDA_JEWELRY_23_cls-4" d="M320.9,227.77h.78s1.49.36,1.75.4,2.61.09,2.61.09l-1.24,1.5,1.37,1.11-1,.44a10,10,0,0,0,1.81,3.28,5.27,5.27,0,0,1-2-1.16,32.52,32.52,0,0,1-.36,11.19,29.33,29.33,0,0,1-2.94,1.24,6.25,6.25,0,0,0,2.46.36c-7.36,8.87-15.36,6.37-17.5,5.47l.16-.11a22.62,22.62,0,0,0,7-7,8.85,8.85,0,0,0,1.24-2.92l2.88,3.19s0-.75-1.55-4.38c2.21-1.2,3.67-5.92,3.67-5.92l0-1.51a9.8,9.8,0,0,1-4.35.84c1.37-.4,3.38-3.07,3.38-3.07l-1.74-.57,1.61-.58-2.34-1.06a20.44,20.44,0,0,0,3.49-.87h.74" />
  <path class="BUNTAI_RED_PANDA_JEWELRY_BUNTAI_RED_PANDA_JEWELRY_23_cls-4" d="M319.75,223.64c.29.91.74,2.36,1.15,4.13a46,46,0,0,1,.92,5.1c.51,4.35.33,9.24-1.93,12.82a14.19,14.19,0,0,1-1.84,2.36,12.71,12.71,0,0,1-11.25,3.53" />
  <path class="BUNTAI_RED_PANDA_JEWELRY_BUNTAI_RED_PANDA_JEWELRY_23_cls-4" d="M318.05,248.05a6.23,6.23,0,0,1-4.22-3.43" />
  <polyline class="BUNTAI_RED_PANDA_JEWELRY_BUNTAI_RED_PANDA_JEWELRY_23_cls-4" points="320.12 233.08 320.95 235.16 321.82 232.87 323.25 234.02 322.9 232.15 324.98 233.43" />
  <line class="BUNTAI_RED_PANDA_JEWELRY_BUNTAI_RED_PANDA_JEWELRY_23_cls-4" x1="319.2" y1="211.19" x2="319.2" y2="219.02" />
  <path class="BUNTAI_RED_PANDA_JEWELRY_BUNTAI_RED_PANDA_JEWELRY_23_cls-4" d="M313,193.4s2.22-2.3,4.31-.69-.1,4.31-.1,4.31" />
</svg>