<svg id="jewelry" xmlns="http://www.w3.org/2000/svg" viewBox="0 0 432 432">
  <defs>
    <style>.BUNTAI_RED_PANDA_JEWELRY_BUNTAI_RED_PANDA_JEWELRY_29_cls-1{fill:#fff;}.BUNTAI_RED_PANDA_JEWELRY_BUNTAI_RED_PANDA_JEWELRY_29_cls-2{fill:#666;}.BUNTAI_RED_PANDA_JEWELRY_BUNTAI_RED_PANDA_JEWELRY_29_cls-3{fill:#c7a858;}.BUNTAI_RED_PANDA_JEWELRY_BUNTAI_RED_PANDA_JEWELRY_29_cls-4{fill:none;stroke:#000;stroke-linecap:round;stroke-linejoin:round;stroke-width:0.88px;}</style>
  </defs>
  <path class="BUNTAI_RED_PANDA_JEWELRY_BUNTAI_RED_PANDA_JEWELRY_29_cls-1" d="M142.18,253.8a12.71,12.71,0,0,1-11.25-3.53,6.22,6.22,0,0,0,4.21-3.42A22.9,22.9,0,0,0,142.18,253.8Z" />
  <path class="BUNTAI_RED_PANDA_JEWELRY_BUNTAI_RED_PANDA_JEWELRY_29_cls-1" d="M142.34,253.91c-2.14.9-10.15,3.4-17.5-5.47a6.34,6.34,0,0,0,2.46-.35,30.28,30.28,0,0,1-3-1.24,32.72,32.72,0,0,1-.35-11.2l2.07-1.28-.35,1.87,1.44-1.15c-.51,4.36-.33,9.24,1.93,12.82a14.19,14.19,0,0,0,1.84,2.36,12.71,12.71,0,0,0,11.25,3.53Z" />
  <path class="BUNTAI_RED_PANDA_JEWELRY_BUNTAI_RED_PANDA_JEWELRY_29_cls-2" d="M128.82,230a20.57,20.57,0,0,0,3.49.86L130,231.92l1.61.58-1.75.57s2,2.68,3.39,3.07a9.83,9.83,0,0,1-4.36-.84l-.84,2.08-.86-2.29a47.85,47.85,0,0,1,.91-5.09Z" />
  <path class="BUNTAI_RED_PANDA_JEWELRY_BUNTAI_RED_PANDA_JEWELRY_29_cls-1" d="M128,237.38l.84-2.08,0,1.51s1.46,4.73,3.67,5.92c-1.55,3.63-1.55,4.38-1.55,4.38l2.87-3.19a9.24,9.24,0,0,0,1.24,2.93,6.22,6.22,0,0,1-4.21,3.42,14.19,14.19,0,0,1-1.84-2.36c-2.26-3.58-2.44-8.46-1.93-12.82Z" />
  <path class="BUNTAI_RED_PANDA_JEWELRY_BUNTAI_RED_PANDA_JEWELRY_29_cls-2" d="M128.07,230a47.85,47.85,0,0,0-.91,5.09l-1.44,1.15.35-1.87L124,235.65a5.27,5.27,0,0,1-2,1.16,10.28,10.28,0,0,0,1.81-3.28l-1-.44,1.38-1.11-1.24-1.5s2.34,0,2.61-.08l1.75-.4Z" />
  <path class="BUNTAI_RED_PANDA_JEWELRY_BUNTAI_RED_PANDA_JEWELRY_29_cls-3" d="M129.78,221.24a2.33,2.33,0,0,1-.15,4.66,1.75,1.75,0,0,1-.4,0,2.33,2.33,0,0,1,.4-4.63Z" />
  <path class="BUNTAI_RED_PANDA_JEWELRY_BUNTAI_RED_PANDA_JEWELRY_29_cls-3" d="M128.41,211.17a4.35,4.35,0,0,0,2,.43,1.77,1.77,0,0,0,.9-.23c0,.14,0,2-1.54,2s-1.37-2.23-1.37-2.23Z" />
  <path class="BUNTAI_RED_PANDA_JEWELRY_BUNTAI_RED_PANDA_JEWELRY_29_cls-3" d="M127.06,194.05a12.42,12.42,0,0,1,.37,2.88,3.38,3.38,0,0,0,0,3.62,2.27,2.27,0,0,0,.72.81,5.35,5.35,0,0,0-1.46,2.28C124.05,201.28,122.67,196.76,127.06,194.05Z" />
  <path class="BUNTAI_RED_PANDA_JEWELRY_BUNTAI_RED_PANDA_JEWELRY_29_cls-3" d="M130.39,201.91h0a4.19,4.19,0,0,0-1.84,2.83c-.46,2.2.31,4.67,1.42,4.67s1.25-2.87,1.18-4.39h.09a5.5,5.5,0,0,0,1.37-.42c.6,2,.47,5.82-1.28,6.78a1.77,1.77,0,0,1-.9.23,4.35,4.35,0,0,1-2-.43c-1.51-.73-2.27-2.43-2.16-5a8,8,0,0,1,.46-2.52,5.35,5.35,0,0,1,1.46-2.28,1.87,1.87,0,0,1,1.35-.55,2.3,2.3,0,0,1,1.63,1,3.48,3.48,0,0,1-.73.13Z" />
  <path class="BUNTAI_RED_PANDA_JEWELRY_BUNTAI_RED_PANDA_JEWELRY_29_cls-3" d="M133.62,194.5c2,1.89,2.92,8.28-1,10.09a5.5,5.5,0,0,1-1.37.42h-.09a5,5,0,0,1-2.6-.28,4.19,4.19,0,0,1,1.84-2.83h0a3.48,3.48,0,0,0,.73-.13,2,2,0,0,0,1.61-1.9,3.29,3.29,0,0,0-1.44-3S130.47,194.17,133.62,194.5Z" />
  <path class="BUNTAI_RED_PANDA_JEWELRY_BUNTAI_RED_PANDA_JEWELRY_29_cls-4" d="M126.71,203.64c-2.66-2.36-4-6.88.35-9.59.29,2,.37,2.88.37,2.88a3.38,3.38,0,0,0,0,3.62,2.27,2.27,0,0,0,.72.81" />
  <path class="BUNTAI_RED_PANDA_JEWELRY_BUNTAI_RED_PANDA_JEWELRY_29_cls-4" d="M130.42,201.9a3.48,3.48,0,0,0,.73-.13,2,2,0,0,0,1.61-1.9,3.29,3.29,0,0,0-1.44-3s-.85-2.67,2.3-2.34c2,1.89,2.92,8.28-1,10.09a5.5,5.5,0,0,1-1.37.42h-.09a5,5,0,0,1-2.6-.28" />
  <path class="BUNTAI_RED_PANDA_JEWELRY_BUNTAI_RED_PANDA_JEWELRY_29_cls-4" d="M132.6,204.59c.6,2,.47,5.82-1.28,6.78a1.77,1.77,0,0,1-.9.23,4.35,4.35,0,0,1-2-.43c-1.51-.73-2.27-2.43-2.16-5a8,8,0,0,1,.46-2.52,5.35,5.35,0,0,1,1.46-2.28,1.87,1.87,0,0,1,1.35-.55,2.3,2.3,0,0,1,1.63,1" />
  <path class="BUNTAI_RED_PANDA_JEWELRY_BUNTAI_RED_PANDA_JEWELRY_29_cls-4" d="M131.14,205c.07,1.52.06,4.39-1.18,4.39s-1.88-2.47-1.42-4.67a4.19,4.19,0,0,1,1.84-2.83h0" />
  <path class="BUNTAI_RED_PANDA_JEWELRY_BUNTAI_RED_PANDA_JEWELRY_29_cls-4" d="M128.41,211.18s-.27,2.23,1.37,2.23,1.55-1.9,1.54-2h0" />
  <path class="BUNTAI_RED_PANDA_JEWELRY_BUNTAI_RED_PANDA_JEWELRY_29_cls-4" d="M129.78,221.24a2.33,2.33,0,0,1-.15,4.66,1.75,1.75,0,0,1-.4,0,2.33,2.33,0,0,1,.4-4.63Z" />
  <path class="BUNTAI_RED_PANDA_JEWELRY_BUNTAI_RED_PANDA_JEWELRY_29_cls-4" d="M128.07,230h-.77l-1.75.4c-.27,0-2.61.08-2.61.08l1.24,1.5-1.38,1.11,1,.44a10.28,10.28,0,0,1-1.81,3.28,5.27,5.27,0,0,0,2-1.16,32.72,32.72,0,0,0,.35,11.2,30.28,30.28,0,0,0,3,1.24,6.34,6.34,0,0,1-2.46.35c7.35,8.87,15.36,6.37,17.5,5.47l-.16-.11a22.9,22.9,0,0,1-7-7,9.24,9.24,0,0,1-1.24-2.93L131,247.11s0-.75,1.55-4.38c-2.21-1.19-3.67-5.92-3.67-5.92l0-1.51a9.83,9.83,0,0,0,4.36.84c-1.37-.39-3.39-3.07-3.39-3.07l1.75-.57-1.61-.58,2.34-1.06a20.57,20.57,0,0,1-3.49-.86h-.75" />
  <path class="BUNTAI_RED_PANDA_JEWELRY_BUNTAI_RED_PANDA_JEWELRY_29_cls-4" d="M129.23,225.86c-.3.91-.74,2.36-1.16,4.14a47.85,47.85,0,0,0-.91,5.09c-.51,4.36-.33,9.24,1.93,12.82a14.19,14.19,0,0,0,1.84,2.36,12.71,12.71,0,0,0,11.25,3.53" />
  <path class="BUNTAI_RED_PANDA_JEWELRY_BUNTAI_RED_PANDA_JEWELRY_29_cls-4" d="M130.93,250.27a6.22,6.22,0,0,0,4.21-3.42" />
  <polyline class="BUNTAI_RED_PANDA_JEWELRY_BUNTAI_RED_PANDA_JEWELRY_29_cls-4" points="128.86 235.3 128.02 237.38 127.16 235.09 125.72 236.24 126.07 234.37 124 235.65" />
  <line class="BUNTAI_RED_PANDA_JEWELRY_BUNTAI_RED_PANDA_JEWELRY_29_cls-4" x1="129.78" y1="221.24" x2="129.78" y2="213.42" />
  <path class="BUNTAI_RED_PANDA_JEWELRY_BUNTAI_RED_PANDA_JEWELRY_29_cls-4" d="M136,195.62s-2.22-2.3-4.31-.69.1,4.31.1,4.31" />
</svg>