<svg id="jewelry" xmlns="http://www.w3.org/2000/svg" viewBox="0 0 432 432">
  <defs>
    <style>.BUNTAI_RED_PANDA_JEWELRY_BUNTAI_RED_PANDA_JEWELRY_13_cls-1{fill:#fff;}.BUNTAI_RED_PANDA_JEWELRY_BUNTAI_RED_PANDA_JEWELRY_13_cls-1,.BUNTAI_RED_PANDA_JEWELRY_BUNTAI_RED_PANDA_JEWELRY_13_cls-2,.BUNTAI_RED_PANDA_JEWELRY_BUNTAI_RED_PANDA_JEWELRY_13_cls-4{stroke:#000;stroke-width:0.69px;}.BUNTAI_RED_PANDA_JEWELRY_BUNTAI_RED_PANDA_JEWELRY_13_cls-1,.BUNTAI_RED_PANDA_JEWELRY_BUNTAI_RED_PANDA_JEWELRY_13_cls-4{stroke-linecap:round;stroke-linejoin:round;}.BUNTAI_RED_PANDA_JEWELRY_BUNTAI_RED_PANDA_JEWELRY_13_cls-2{fill:#754c24;stroke-miterlimit:10;}.BUNTAI_RED_PANDA_JEWELRY_BUNTAI_RED_PANDA_JEWELRY_13_cls-3{fill:#333;}.BUNTAI_RED_PANDA_JEWELRY_BUNTAI_RED_PANDA_JEWELRY_13_cls-4{fill:none;}</style>
  </defs>
  <path class="BUNTAI_RED_PANDA_JEWELRY_BUNTAI_RED_PANDA_JEWELRY_13_cls-1" d="M227.39,411a22.46,22.46,0,0,1,2.71,7.3s3.57-1.86,3.87-13.75a73.84,73.84,0,0,0-.21-7.9c0-.1,0-.21,0-.32s0-.08,0-.12a2,2,0,0,0,0-.25l-.09-1a1.49,1.49,0,0,1,0-.21l0-.2,0-.28c0-.22-.05-.43-.07-.64l0-.25,0-.24c0-.1,0-.21,0-.31l0-.24c0-.1,0-.2,0-.29a.68.68,0,0,1,0-.14,1.55,1.55,0,0,1,0-.21v0c0-.08,0-.16,0-.23a1.87,1.87,0,0,0,0-.25c0-.2-.06-.37-.09-.53a.29.29,0,0,0,0-.09v0l0-.14c0-.1,0-.2-.05-.27l1.59-.12,0-.67-2.06.15-1-12.84a1,1,0,0,0-1.84-.6,1.06,1.06,0,0,0-.25.76l1,12.84-2.16.16,0,.67,1.75-.13c0,.18,0,.46.06.82v.22s0,.06,0,.09v.09l0,.24q0,.36,0,.78c0,.13,0,.27,0,.41s0,.58,0,.89,0,.57,0,.88v1.53c0,.29,0,.59,0,.89,0,.12,0,.23,0,.35l0,.54v.18c0,.09,0,.19,0,.28l0,.57q0,.6-.09,1.23l-.06.62,0,.32c0,.22-.05.45-.07.68l-.06.48c0,.3-.08.6-.13.9,0,.1,0,.21-.05.31s-.07.43-.11.65-.07.37-.11.56-.05.25-.07.38-.06.29-.1.43a.61.61,0,0,1,0,.13,2,2,0,0,1,0,.24l-.06.24-.12.46s0,.06,0,.09,0,.17-.07.25-.07.24-.1.36c-.13.42-.26.83-.41,1.22a1.42,1.42,0,0,0-.05.16l-.24.59-.07.16-.06.15a2,2,0,0,1-.1.21h0c0,.1-.09.19-.13.29l0,.06Z" />
  <path class="BUNTAI_RED_PANDA_JEWELRY_BUNTAI_RED_PANDA_JEWELRY_13_cls-1" d="M229.38,377.09l.07.9,2.09-.16-.07-.9a1,1,0,0,0-1.84-.6A1.06,1.06,0,0,0,229.38,377.09Z" />
  <rect class="BUNTAI_RED_PANDA_JEWELRY_BUNTAI_RED_PANDA_JEWELRY_13_cls-1" x="229.89" y="377.89" width="2.09" height="11.97" transform="translate(-28.06 18.35) rotate(-4.29)" />
  <rect class="BUNTAI_RED_PANDA_JEWELRY_BUNTAI_RED_PANDA_JEWELRY_13_cls-1" x="228.2" y="389.85" width="6.32" height="0.67" transform="translate(-28.53 18.39) rotate(-4.29)" />
  <rect class="BUNTAI_RED_PANDA_JEWELRY_BUNTAI_RED_PANDA_JEWELRY_13_cls-1" x="228.2" y="389.85" width="6.32" height="0.67" transform="translate(-28.53 18.39) rotate(-4.29)" />
  <path class="BUNTAI_RED_PANDA_JEWELRY_BUNTAI_RED_PANDA_JEWELRY_13_cls-1" d="M230,390.63c0,.37.09,1.16.13,2.24.17,4.23.11,12.89-2.72,18.16a22.46,22.46,0,0,1,2.71,7.3s3.57-1.86,3.87-13.75a73.26,73.26,0,0,0-.65-11.95c-.15-1.06-.29-1.82-.37-2.22" />
  <path class="BUNTAI_RED_PANDA_JEWELRY_BUNTAI_RED_PANDA_JEWELRY_13_cls-1" d="M232.43,389.77l-.05-.68-.1-1.29-.06-.88-.11-1.48-.05-.6,0-.48-.1-1.24,0-.49-.09-1.12,0-.33-.1-1.29,0-.44-.09-1.16,0-.46-.07-.9a1,1,0,0,0-1.12-1,1,1,0,0,0-.72.36,1.06,1.06,0,0,0-.25.76l.07.9h0l.08,1.1,0,.17.08,1.16,0,.57.08,1,0,.28.1,1.33,0,.36.07.89,0,.64v.07l.07.89.08,1.07.08,1.14.06.84,0,.4" />
  <line class="BUNTAI_RED_PANDA_JEWELRY_BUNTAI_RED_PANDA_JEWELRY_13_cls-1" x1="231.54" y1="377.83" x2="229.45" y2="377.99" />
  <polyline class="BUNTAI_RED_PANDA_JEWELRY_BUNTAI_RED_PANDA_JEWELRY_13_cls-1" points="230.31 389.53 232.38 389.09 230.25 388.69 232.28 387.8 230.16 387.55 232.22 386.92 230.09 386.49 232.12 385.66 230.01 385.52" />
  <line class="BUNTAI_RED_PANDA_JEWELRY_BUNTAI_RED_PANDA_JEWELRY_13_cls-1" x1="232.06" y1="384.84" x2="229.97" y2="384.88" />
  <path class="BUNTAI_RED_PANDA_JEWELRY_BUNTAI_RED_PANDA_JEWELRY_13_cls-1" d="M229.53,379.09c.59-.24,1.74-.7,2-.8" />
  <line class="BUNTAI_RED_PANDA_JEWELRY_BUNTAI_RED_PANDA_JEWELRY_13_cls-1" x1="231.69" y1="379.89" x2="229.63" y2="380.42" />
  <line class="BUNTAI_RED_PANDA_JEWELRY_BUNTAI_RED_PANDA_JEWELRY_13_cls-1" x1="231.66" y1="379.45" x2="229.55" y2="379.26" />
  <line class="BUNTAI_RED_PANDA_JEWELRY_BUNTAI_RED_PANDA_JEWELRY_13_cls-1" x1="231.81" y1="381.51" x2="229.75" y2="382.02" />
  <line class="BUNTAI_RED_PANDA_JEWELRY_BUNTAI_RED_PANDA_JEWELRY_13_cls-1" x1="231.79" y1="381.18" x2="229.67" y2="380.99" />
  <path class="BUNTAI_RED_PANDA_JEWELRY_BUNTAI_RED_PANDA_JEWELRY_13_cls-1" d="M231.9,382.63l-2.13-.33" />
  <path class="BUNTAI_RED_PANDA_JEWELRY_BUNTAI_RED_PANDA_JEWELRY_13_cls-1" d="M231.93,383.12l-2.06.51" />
  <line class="BUNTAI_RED_PANDA_JEWELRY_BUNTAI_RED_PANDA_JEWELRY_13_cls-1" x1="232.03" y1="384.36" x2="229.9" y2="383.99" />
  <path class="BUNTAI_RED_PANDA_JEWELRY_BUNTAI_RED_PANDA_JEWELRY_13_cls-2" d="M282.82,311.66a80.41,80.41,0,0,1-5.47,20.45c-5.71,13.73-18.09,32-44.77,42.11h0l-1.33.49h0l-.82.3a1.19,1.19,0,0,1-.32.05.83.83,0,0,1-.22,0l-1.15-.29h-.06l-1-.27-.26-.07c-25.23-7-38-25.12-44.23-39.28a93.83,93.83,0,0,1-7.64-30.4c0-.52.07-1.69.7-2.11,1.18-.8,2.22.5,2.39.65-.5.53-1.22,1.12-1.21,1.38a91.75,91.75,0,0,0,7.51,29.78c6.1,13.76,18.46,31.32,42.94,38.16l1.28.34h0l.89.23.72-.26.08,0,1.15-.43h0c26-9.89,38-27.67,43.59-41a78.49,78.49,0,0,0,5.43-20.9c-.68-.44-.9-.7-1.33-1C280.29,308.55,283.34,307.33,282.82,311.66Z" />
  <path class="BUNTAI_RED_PANDA_JEWELRY_BUNTAI_RED_PANDA_JEWELRY_13_cls-3" d="M227.9,372.5l1.28.35s1.32-.75,1.86.3.29,1.8-.41,2.13a1.53,1.53,0,0,1-1.95-.54,2.73,2.73,0,0,0-1.23-.27s.52,2,2.21,2.14a2.5,2.5,0,0,0,2.91-2.28,2.41,2.41,0,0,0-1.37-2.54A2.58,2.58,0,0,0,227.9,372.5Z" />
  <path class="BUNTAI_RED_PANDA_JEWELRY_BUNTAI_RED_PANDA_JEWELRY_13_cls-4" d="M227.39,374.4a2.59,2.59,0,0,0,2.32,2.27H230a2.61,2.61,0,0,0,1.74-.66,2.56,2.56,0,0,0,.86-1.8.66.66,0,0,0,0-.14,2.58,2.58,0,0,0-.59-1.65,2.61,2.61,0,0,0-2-.95,2.57,2.57,0,0,0-2.11,1.1l1.29.34a1.43,1.43,0,0,1,1.6,0,1.41,1.41,0,0,1,.65,1.19,1.34,1.34,0,0,1-.16.63,1.41,1.41,0,0,1-1.27.79,1.43,1.43,0,0,1-1.25-.74h0Z" />
</svg>