<svg xmlns="http://www.w3.org/2000/svg" viewBox="0 0 432 432">
  <defs>
    <style>.BUNTAI_MEERKAT_BODY_MEERKAT_BODY_22_cls-1{isolation:isolate;}.BUNTAI_MEERKAT_BODY_MEERKAT_BODY_22_cls-2{fill:#1a1a1a;}.BUNTAI_MEERKAT_BODY_MEERKAT_BODY_22_cls-3{fill:#d9c07e;}.BUNTAI_MEERKAT_BODY_MEERKAT_BODY_22_cls-4,.BUNTAI_MEERKAT_BODY_MEERKAT_BODY_22_cls-5{fill:#cfaf5b;}.BUNTAI_MEERKAT_BODY_MEERKAT_BODY_22_cls-14,.BUNTAI_MEERKAT_BODY_MEERKAT_BODY_22_cls-4{opacity:0.5;}.BUNTAI_MEERKAT_BODY_MEERKAT_BODY_22_cls-6{fill:#fff;}.BUNTAI_MEERKAT_BODY_MEERKAT_BODY_22_cls-10,.BUNTAI_MEERKAT_BODY_MEERKAT_BODY_22_cls-11,.BUNTAI_MEERKAT_BODY_MEERKAT_BODY_22_cls-12,.BUNTAI_MEERKAT_BODY_MEERKAT_BODY_22_cls-7,.BUNTAI_MEERKAT_BODY_MEERKAT_BODY_22_cls-9{fill:none;stroke:#000;stroke-linecap:round;}.BUNTAI_MEERKAT_BODY_MEERKAT_BODY_22_cls-11,.BUNTAI_MEERKAT_BODY_MEERKAT_BODY_22_cls-12,.BUNTAI_MEERKAT_BODY_MEERKAT_BODY_22_cls-7{stroke-linejoin:round;}.BUNTAI_MEERKAT_BODY_MEERKAT_BODY_22_cls-10,.BUNTAI_MEERKAT_BODY_MEERKAT_BODY_22_cls-7{stroke-width:2px;}.BUNTAI_MEERKAT_BODY_MEERKAT_BODY_22_cls-8{fill:#3e9cff;}.BUNTAI_MEERKAT_BODY_MEERKAT_BODY_22_cls-10,.BUNTAI_MEERKAT_BODY_MEERKAT_BODY_22_cls-9{stroke-miterlimit:10;}.BUNTAI_MEERKAT_BODY_MEERKAT_BODY_22_cls-9{stroke-width:2.58px;}.BUNTAI_MEERKAT_BODY_MEERKAT_BODY_22_cls-12{stroke-width:2.11px;}.BUNTAI_MEERKAT_BODY_MEERKAT_BODY_22_cls-13{opacity:0.43;mix-blend-mode:multiply;}</style>
  </defs>
  <g class="BUNTAI_MEERKAT_BODY_MEERKAT_BODY_22_cls-1">
    <g id="body">
      <path class="BUNTAI_MEERKAT_BODY_MEERKAT_BODY_22_cls-2" d="M232.13,274.41c-5.07-2.53-18.79-.87-20.19,0s-5.32,7-6.15,11.79a12.62,12.62,0,0,0-.14,1.32,13.61,13.61,0,0,0,2.13,6.57c2.17,3.81,5.59,7.44,8.22,8.2a92.59,92.59,0,0,0,14.55.43s4.48-1.45,7.21-7.42a22.6,22.6,0,0,0,1.83-6.76,31.09,31.09,0,0,0,.23-4.34S237.19,277,232.13,274.41Z" />
      <path class="BUNTAI_MEERKAT_BODY_MEERKAT_BODY_22_cls-2" d="M123.72,185.11c-5.94,14.91-4.31,23.18-1.52,34.25a42.88,42.88,0,0,0,10.37,18.4c2.14-3.56.47-13.39.47-13.39l2.45,1,.81-14.33,2.91,7.46s5.13-10,4.9-19.81C135.72,185.69,123.72,185.11,123.72,185.11Z" />
      <path class="BUNTAI_MEERKAT_BODY_MEERKAT_BODY_22_cls-2" d="M307.88,182.48h0s-3.93,17.3-10.45,26.16c.11,15,2.85,19.19,2.85,19.19l3.41-6-.52,7.43,1.92,2.35c4-4.37,8-16.6,8-28.14S309.37,183.27,307.88,182.48Z" />
      <path class="BUNTAI_MEERKAT_BODY_MEERKAT_BODY_22_cls-2" d="M283.59,203.81c-30.32-2.45-42.73,13.54-43.69,20.71-.89,6.64,3.25,15.76,10.06,23.33a69.6,69.6,0,0,1,8,1.14c7.78,1.66,11.36-.27,11.36-4.29s8.12-9.61,13.63-18.52S286.39,204.42,283.59,203.81Z" />
      <path class="BUNTAI_MEERKAT_BODY_MEERKAT_BODY_22_cls-2" d="M207.4,224.52c-1-7.17-13.37-23.16-43.69-20.71-2.8.61-4.89,13.46.61,22.37S178,240.68,178,244.7s3.58,6,11.36,4.29a69.6,69.6,0,0,1,8-1.14C204.15,240.28,208.29,231.16,207.4,224.52Z" />
      <path class="BUNTAI_MEERKAT_BODY_MEERKAT_BODY_22_cls-3" d="M307.88,182.48a4.79,4.79,0,0,0-1.29-.31c-.4-.07-.86-.13-1.38-.2l-1.42-.2-1-.16-.54-.09-.55-.1c-.74-.13-1.51-.3-2.28-.51-.38-.1-.77-.21-1.15-.33s-.76-.25-1.13-.39-.74-.3-1.1-.47-.61-.29-.91-.46-.48-.27-.71-.42l-.41-.28a6.17,6.17,0,0,1-.57-.44,4.15,4.15,0,0,1-.32-.27l-.22-.21a2.18,2.18,0,0,1-.21-.22l-.15-.15a.73.73,0,0,1-.14-.16,4.54,4.54,0,0,1-.39-.48l-.3-.4-.5-.7-1.38-1.84-.65-.86-.06-.07a65.88,65.88,0,0,0-8.64-9.33h0l-.89-.78c-.22-.2-.46-.39-.7-.58l-.56-.45c-.74-.61-1.52-1.19-2.33-1.76a48.84,48.84,0,0,0-6.46-3.93l-1.21-.59c-.79-.39-1.61-.75-2.45-1.09l-.22-.09-.71-.28c-1-.39-2-.75-3.06-1.07-.5-.17-1-.32-1.51-.46-.71-.2-1.42-.39-2.12-.56s-1.14-.28-1.7-.4q-1.15-.27-2.28-.48l-1.83-.32-1.91-.3c-1.26-.18-2.5-.32-3.71-.43L245,149.7l-1.27-.08-.88,0-1.93-.07h-.84c-4.34-.06-8.14.21-11.22.46l-1.8.14-1.23.1c-.91.07-1.73.13-2.44.15-.53,0-1,0-1.41,0l-.36-.09-.38-.09c-.48-.11-1.19-.26-2.1-.43l-1.17-.21c-.84-.15-1.8-.3-2.85-.44h0l-.27,0-.71-.1-.73-.08-1.09-.12-1.15-.11c-.57-.06-1.16-.1-1.76-.14l-1-.06-.32,0-1.35-.06-.64,0h-.64c-1.38,0-2.82,0-4.29,0-.86,0-1.73.08-2.62.14l-.17,0a59.51,59.51,0,0,0-6.87.93,47.69,47.69,0,0,0-6.21,1.62q-.69.22-1.38.48c-.36.13-.73.28-1.1.43-.54.21-1.07.43-1.6.68l-.3.13c-1,.46-2,.93-2.91,1.42l-.64.33-1.32.7-.14.07h0c-1,.53-1.94,1.08-2.86,1.63l-1,.59-.21.14c-3,1.88-5.77,3.83-8.31,5.76l-.86.66-1.47,1.14,0,0c-4.21,3.31-7.92,6.46-11.66,9l-1.19.79-.94.59c-.34.21-.69.41-1,.6l-.72.41-.78.41c-.22.11-.45.23-.68.33-.44.22-.9.43-1.35.62-1.77.75-3.38,1.36-4.85,1.88h0l-.43.15c-1.68.58-3.17,1-4.49,1.41l-1.15.32c-1.93.53-3.49.92-4.78,1.36-.37.14-.73.27-1.06.42a.84.84,0,0,0-.14.06,6.54,6.54,0,0,0-.59.3l-.22.12-.39.25-.3.22-.29.23c-.14.12-.27.25-.4.38h0a15,15,0,0,1,2,.3h.1a25.19,25.19,0,0,1,4.69,1.5l.28.12.29.13.64.3a26.88,26.88,0,0,1,2.71,1.51l.7.46h0c.74.49,1.48,1,2.24,1.66.39.32.79.66,1.18,1a4.73,4.73,0,0,1,.41.38c.14.12.28.26.41.39s.34.33.51.51.34.35.5.53.34.36.5.55.34.38.5.58.37.44.55.67c.41.49.8,1,1.18,1.55l.18.25c.27.38.54.78.8,1.19,0,.24,0,.48,0,.71s0,.64,0,1a35.53,35.53,0,0,1-.37,3.9c0,.15,0,.31-.08.46l-.06.38c-.1.57-.21,1.12-.33,1.67s-.24,1.08-.37,1.61-.33,1.25-.5,1.85c0,.12-.07.24-.1.35l-.17.53c-.18.59-.37,1.15-.55,1.69,0,.13-.09.25-.13.37-.14.37-.27.72-.39,1.06l-.23.58-.06.15c-.73,1.86-1.34,3.11-1.51,3.45a.41.41,0,0,1,0,.09l-1-2.61v0l-1.88-4.83-.09,1.52h0l-.72,12.8-.05,0-2.4-1s.07.43.17,1.15c0,.11,0,.23,0,.36s.07.5.1.77a1.71,1.71,0,0,1,0,.31l0,.23,0,.35c.12,1.22.22,2.68.22,4.14,0,.48,0,1,0,1.43s-.06.93-.11,1.38c0,.29-.08.58-.13.86h0v0a7,7,0,0,1-.15.69c0,.1-.05.18-.07.27a4.13,4.13,0,0,1-.14.42l0,.09a4.08,4.08,0,0,1-.17.42,3.33,3.33,0,0,1-.24.46h0c-.16.29-3,5.73-5.24,6.87h0l.43.22h0l.75.38.1.06.5.25,1,.48.25.13.08,0-.08.13a2.36,2.36,0,0,0-.13.2c-.43.69-1.49,2.36-2.49,3.9l-.37.57s0,0,0,0l-.33.5-.75,1.12v0L126,253c.39.09.78.19,1.16.3l.11,0,.73.21.38.13c.33.1.67.22,1,.34a20.64,20.64,0,0,1,2.13.91,5.4,5.4,0,0,1,.49.23c.68.33,1.36.7,2.06,1.12l.85.52.2.13c.78.49,1.58,1,2.42,1.65l.64.47.23.16.58.44.22.19,1.46,1.13.15.11.26.22h0c.14.12.28.24.43.35l.58.47.08.07h0l1.26,1h0l1.68,1.43c.51.44,1,.88,1.57,1.3,1.69,1.39,3.49,2.7,5.32,4l1.58,1.07,1.49,1c2.46,1.59,4.93,3.1,7.29,4.52l1.69,1,.19.12h0l2.19,1.33.66.41a2.61,2.61,0,0,1,.28.17l0,0c1,.62,2,1.22,2.85,1.81h0c.19.14.38.26.56.38l.12.08h0l.18.12.3.22c1.66,1.15,4.23,2.83,7.23,4.75l.91.58.46.31h0l.07,0,.37.25h0l0,0,.39.24c.17.12.35.23.53.34l1,.61,1,.64.9.57.9.58.09.06,1.12.7.09.06.53.33h0l.38.26,2,1.29.57.37.43.27.78.49,1.36.87h0l4.55,2.94,1.4.92,1,.64c.94.62,1.79,1.2,2.54,1.72l.47.33c.65.45,1.21.86,1.64,1.2l.1.08.26.2a50.37,50.37,0,0,0,6.47,4.44l.29.17.46.26.43.23.35.19h0l0,0,.07,0,0,0,0,0h.06l0,0,.21.1.08,0h0l.82.1.44.05.38,0,.43,0,.67.06.85.08.87.06c.47,0,1,.07,1.48.09s1.37.07,2.09.09c1.26,0,2.61,0,4,0,.39,0,.77,0,1.16,0L228,310c.13,0,.26,0,.38,0l.43,0,1-.1c.75-.07,1.49-.17,2.22-.29.3,0,.6-.09.89-.15l.15,0,.52-.1c.34-.07.68-.14,1-.23l1.09-.29.05,0,.72-.22c.49-.16,1-.34,1.45-.54h0c.23-.1.47-.21.7-.33l.05,0,.54-.29.1-.06L240,307l.17-.1.31-.18.45-.28.68-.44.16-.11.75-.52.72-.53c.3-.23.6-.46.89-.7l.13-.1c2.17-1.75,4.1-3.66,6.39-5.79,1.39-1.29,2.91-2.66,4.72-4.12.18-.15.36-.3.55-.44a6.26,6.26,0,0,1,.57-.45l.58-.45.61-.46c.4-.31.83-.62,1.26-.93h0l.91-.66c.94-.66,1.93-1.33,3-2l1.68-1.08.7-.45h0c.72-.47,1.42-.91,2.1-1.34l2-1.25,3.63-2.27,1.21-.76L275,281h0l.73-.47c2.89-1.82,5.22-3.32,7.09-4.67.18-.12.35-.25.52-.38.45-.34.88-.67,1.28-1l.14-.13h0l.24-.2.25-.21.26-.22.25-.22.48-.45c.67-.65,1.21-1.18,1.66-1.6l.29-.29.57-.55.12-.11.08-.09h0s0,0,0,0l.26-.25.16-.16.07-.06.18-.18.2-.19a.23.23,0,0,1,.05-.05l.06-.06s.26-.38.69-1h0c.07-.11.15-.23.24-.35.49-.74,1.14-1.72,1.89-2.87a1.22,1.22,0,0,1,.12-.19c.24-.36.49-.73.74-1.12v0c.26-.39.53-.8.79-1.22.45-.68.9-1.39,1.36-2.1l.54-.85c.72-1.13,1.45-2.28,2.14-3.41.52-.84,1-1.67,1.5-2.46,1.11-1.85,2.05-3.52,2.64-4.74s1.11-2.28,1.56-3.18l.32-.64.05-.09c.05-.12.11-.23.16-.34s.11-.22.17-.32c.21-.41.39-.78.56-1.1.05-.1.09-.19.14-.27l.08-.14,0-.07a.08.08,0,0,0,0,0,.91.91,0,0,1,.07-.14l0,0,.1-.2a3.51,3.51,0,0,1,.18-.34.36.36,0,0,0,0-.09l.16-.27a.54.54,0,0,1,.05-.11l0,0,.06-.11s0,0,0,0l0,0h0l-5-2.08h0s2.62-5.32,3.59-7.77h0l-1.92-2.35v-.17l.51-7.26-3.16,5.59-.25.44a4.38,4.38,0,0,1-.31-.62l-.13-.3c-.13-.32-.28-.72-.44-1.22,0-.11-.07-.24-.11-.37a5.38,5.38,0,0,1-.18-.64c-.05-.18-.1-.38-.15-.58s-.09-.37-.13-.56c-.14-.58-.28-1.24-.4-2,0-.16-.06-.32-.08-.49-.06-.34-.12-.69-.17-1.06h0s0-.07,0-.1,0-.05,0-.07a.34.34,0,0,0,0-.1c0-.28-.08-.56-.11-.86s-.1-.83-.15-1.27-.09-1-.14-1.52a.41.41,0,0,0,0-.11c0-.52-.08-1.07-.11-1.64,0-.3,0-.61-.05-.93s0-.56,0-.84l0-.58c0-.22,0-.44,0-.67,0-.42,0-.86,0-1.31,0-.15,0-.3,0-.46s0-.61,0-.92c6.52-8.86,10.45-26.16,10.45-26.16ZM171.6,203.58l.6,0,1.6.08.43,0,1.86.16c.66.06,1.31.13,1.95.22s1.23.17,1.82.27h.07c.55.09,1.08.19,1.61.3l.48.09,1.13.25a6.23,6.23,0,0,1,.62.15c1.11.26,2.17.57,3.19.9l1.24.41.82.31q.71.25,1.38.54c.62.26,1.21.52,1.79.8l.66.32c.24.12.48.24.71.37s.46.24.69.37c.68.37,1.33.76,1.95,1.15a32.92,32.92,0,0,1,3.55,2.6c.27.23.53.45.78.68l.06.05c.29.27.57.53.84.8s.35.34.51.51c.43.43.83.87,1.2,1.31l.61.75c.15.18.29.37.43.55l.61.86A17.42,17.42,0,0,1,207,222.9l.12.42a8.3,8.3,0,0,1,.25,1.2c.89,6.64-3.25,15.76-10.06,23.33a69.6,69.6,0,0,0-8,1.14c-7.78,1.66-11.36-.27-11.36-4.29s-8.12-9.61-13.63-18.52-3.41-21.76-.61-22.37q3.18-.26,6.11-.25Zm68,85c0,.34-.09.67-.14,1s-.11.64-.17.95-.11.55-.18.82-.11.48-.18.71-.15.55-.23.81-.15.5-.24.74l-.12.34a7.07,7.07,0,0,1-.27.69l-.06.14-.24.56c-2.73,6-7.21,7.42-7.21,7.42s-3.06.17-6.9.09l-.75,0c-1.3,0-2.66-.09-4-.2-.56,0-1.11-.09-1.66-.15l-1.22-.15c-2.63-.76-6.05-4.39-8.22-8.2a13.61,13.61,0,0,1-2.13-6.57,12.62,12.62,0,0,1,.14-1.32c0-.24.09-.48.15-.73,0-.06,0-.12,0-.17.07-.29.15-.57.24-.86s.1-.34.16-.51a.13.13,0,0,1,0-.08h0c.09-.27.19-.55.29-.82s.29-.74.45-1.11c.07-.18.15-.36.23-.53.41-.9.87-1.78,1.33-2.59.33-.59.67-1.14,1-1.64.09-.15.19-.29.28-.42a17.72,17.72,0,0,1,1.12-1.5l.24-.27a3.07,3.07,0,0,1,.6-.55l.09-.05.12-.05.07,0,.21-.07,0,0,.38-.1.77-.17.6-.11.13,0,.42-.07c.61-.1,1.31-.19,2.05-.28l.86-.09h.11l.78-.07.93-.07.53,0a45.81,45.81,0,0,1,7.61.11l1.19.17q.82.14,1.56.33a11.07,11.07,0,0,1,1.34.45l.39.18c5.06,2.54,7.69,9.79,7.69,9.79A31.09,31.09,0,0,1,239.59,288.54Zm44-84.73c2.8.61,4.89,13.46-.61,22.37s-13.63,14.5-13.63,18.52-3.58,6-11.36,4.29l-1.93-.37-1-.16c-1.59-.25-3.24-.44-4.85-.59l-.25,0a50,50,0,0,1-3.24-4l-.67-.94c-.27-.39-.54-.78-.79-1.18-.13-.2-.26-.39-.37-.59a.05.05,0,0,1,0,0c-.21-.33-.42-.67-.61-1a36.5,36.5,0,0,1-2.33-4.57c-.1-.23-.19-.46-.28-.68s-.18-.46-.27-.68-.17-.46-.25-.68c-.13-.4-.26-.8-.38-1.19-.07-.23-.14-.46-.2-.69,0-.05,0-.1,0-.15-.09-.33-.17-.66-.24-1s-.18-.86-.24-1.28-.12-.79-.15-1.17-.07-.76-.08-1.14a14.24,14.24,0,0,1,.11-2.38C240.86,217.35,253.27,201.36,283.59,203.81Zm-37.54,39.11c-.27-.39-.54-.78-.79-1.18-.13-.2-.26-.39-.37-.59a.05.05,0,0,1,0,0c-.21-.33-.42-.67-.61-1a36.5,36.5,0,0,1-2.33-4.57c-.1-.23-.19-.46-.28-.68s-.18-.46-.27-.68-.17-.46-.25-.68c-.13-.4-.26-.8-.38-1.19-.07-.23-.14-.46-.2-.69-1.38.49-3.16,2.63-4.19,7.22a9.72,9.72,0,0,0,3.66,7.73,5.11,5.11,0,0,0,3.55.72,3.59,3.59,0,0,0,2.14-2.2A4.33,4.33,0,0,0,246.05,242.92Z" />
      <path class="BUNTAI_MEERKAT_BODY_MEERKAT_BODY_22_cls-3" d="M335.23,464.2H293.51s-2.36,3.37-8.33,6.26c-.2.11-.39.19-.59.28L284,471c-.41.18-.82.34-1.23.5A44.81,44.81,0,0,1,269,474.39c-.93.05-1.87.09-2.81.11-.55,0-1.09,0-1.64,0s-.84,0-1.27,0a3.85,3.85,0,0,1-.48,0c-.81,0-1.62-.07-2.42-.13a114.58,114.58,0,0,1-27.09-5.66l-.75-.25-.72-.24-1.52-.53-1.41-.51-1.13-.42-1.28-.49-.59-.23-.88-.35c-1.93-.78-3-1.28-3-1.28h-.12c-6.72-2.84-11-5.17-11-5.17s-4.07,2.24-10.57,5l-2.25,0a77.82,77.82,0,0,1-11.07,5,90.53,90.53,0,0,1-13,3.73,72.54,72.54,0,0,1-16.65,1.59H157c-22.25-.69-29.24-10.31-29.24-10.31H71.3c.13-2.73.27-5.47.42-8.2h0c0-.93.1-1.86.16-2.79s.09-1.6.15-2.41.09-1.5.15-2.25a0,0,0,0,1,0,0,0,0,0,0,1,0,0c.06-.87.12-1.74.19-2.61l0-.47,0-.37,0-.42.09-1.12q.22-2.85.49-5.72c.1-1.07.2-2.14.32-3.22,0,0,0,0,0,0l.27-2.62c.32-2.92.68-5.84,1.09-8.74q.19-1.45.42-2.91c.14-1,.29-1.93.45-2.89l.33-2c.11-.62.21-1.23.33-1.84s.22-1.26.34-1.88c0-.18.06-.36.1-.53s.09-.43.13-.64,0-.28.08-.42c.14-.77.3-1.54.46-2.31.1-.52.21-1,.33-1.54a3,3,0,0,1,.09-.41c0-.23.09-.46.15-.68s.09-.47.15-.7c.15-.69.31-1.37.47-2.05,0-.11,0-.21.07-.31v0a170,170,0,0,1,6-20.09q1.75-4.73,3.72-9.17c0-.11.09-.22.14-.33l.09-.2c.07-.17.14-.33.22-.5.24-.53.47-1.06.73-1.58q.24-.54.51-1.08c.53-1.14,1.08-2.27,1.65-3.38.37-.73.74-1.46,1.12-2.18.62-1.17,1.26-2.33,1.92-3.47l.15-.27c.09-.17.19-.34.29-.5l.2-.34c.15-.26.3-.52.46-.78l.24-.38.29-.49.08-.13c.12-.21.24-.41.38-.61h0a6.42,6.42,0,0,1,.34-.56c.36-.57.72-1.14,1.09-1.7a101.74,101.74,0,0,1,13-16.25l.1-.11,0,0c.36-.37.72-.74,1.1-1.1s.75-.74,1.14-1.1l0-.05h0c.38-.37.76-.73,1.15-1.08.79-.74,1.6-1.45,2.42-2.16l1.2-1,.35-.29.45-.38c.87-.71,1.76-1.41,2.66-2.11l.61-.46.54-.4a.21.21,0,0,1,.08-.06h0l.6-.44c.67-.5,1.35-1,2-1.47s1.16-.81,1.76-1.21l.46-.31,1.45-1,.21-.13,1.11-.7,1.49-.92,1.17-.81,1.12-.78c.57-.39,1.12-.78,1.66-1.17l.33-.24.08-.06s0,0,0,0h0l.07-.05c.46-.33.91-.66,1.35-1l.11-.08a3.36,3.36,0,0,0,.29-.24l0,0,.05,0,.95-.77.72-.62a2.26,2.26,0,0,0,.29-.26,2.46,2.46,0,0,0,.25-.22l0,0,.29-.27c.32-.29.62-.59.92-.9s.53-.55.79-.84.56-.63.82-1a4.47,4.47,0,0,0,.29-.35l.36-.46.3-.4.42-.58c.08-.12.17-.24.25-.37.35-.52.7-1.06,1-1.63.19-.32.37-.65.55-1a37.23,37.23,0,0,0,1.72-3.57l.39-.94c-.1-.18-.19-.37-.28-.56s-.29-.62-.42-.94-.27-.66-.39-1c-.07-.17-.13-.35-.19-.53s-.15-.44-.23-.67c-.21-.68-.42-1.38-.6-2.08l-.12-.44c-.06-.22-.11-.44-.17-.66a.43.43,0,0,0,0-.11l-.15-.61c-.05-.24-.11-.48-.16-.71l-.06-.27c0-.15-.05-.29-.08-.43a0,0,0,0,1,0,0h0s0,0,0,0,0-.15,0-.22a3.58,3.58,0,0,1-.09-.45c0-.19-.08-.37-.11-.55s-.07-.35-.1-.52-.08-.46-.12-.67-.05-.29-.07-.42c-.05-.28-.1-.54-.13-.78s-.06-.38-.09-.56,0-.23,0-.33-.05-.32-.07-.45,0-.21,0-.3,0-.36,0-.36l.94.06.19,0,.71,0h.74l.92.07.35,0-.24-.69,0-.06a.07.07,0,0,0,0-.05c0-.09,0-.17-.07-.26-.08-.26-.16-.55-.25-.86l-.12-.44c0-.09,0-.18-.07-.27a.09.09,0,0,1,0,0c0-.12-.06-.24-.1-.36s-.06-.24-.09-.37-.05-.2-.08-.3a1.33,1.33,0,0,0-.05-.19c0-.11,0-.22-.08-.33v0a1,1,0,0,0,0-.17l-.12-.47a2.25,2.25,0,0,1-.05-.22c0-.15-.07-.3-.11-.46s-.07-.3-.1-.46a1.05,1.05,0,0,1-.06-.24c-.06-.23-.11-.47-.17-.72-.11-.47-.22-1-.33-1.46l-.59-2.69q-.2-.91-.39-1.86c-.07-.31-.14-.62-.2-.93-.1-.47-.19-.94-.29-1.41q-.24-1.19-.48-2.34c-.07-.32-.13-.64-.19-1h0l-.18-.86c-.42-2.09-.8-4-1.12-5.69l1.68,1.43c.51.44,1,.88,1.57,1.3,1.69,1.39,3.49,2.7,5.32,4l1.58,1.07c.49.34,1,.66,1.49,1,2.46,1.59,4.93,3.1,7.29,4.52l1.69,1,.19.12h0l2.19,1.33.66.41a2.61,2.61,0,0,1,.28.17l0,0c1,.62,2,1.22,2.85,1.81h0c.19.14.38.26.56.38l.12.08h0l.18.12.3.22c1.66,1.15,4.23,2.83,7.23,4.75l.91.58.47.3h0l.07,0,.38.25,0,0,.39.24c.17.12.35.23.53.34l1,.61,1,.64.38.25.52.32.9.58.09.06.11.06,1,.64.09.06.53.33h0l.38.26,2,1.29.57.37.43.27.78.49,1.36.87h0l4.55,2.94,1.4.92,1,.64c.94.62,1.79,1.2,2.54,1.72l.47.33c.65.45,1.21.86,1.64,1.2l.1.08.26.2a50.37,50.37,0,0,0,6.47,4.44l.29.17.46.26.43.23.35.19h0l0,0,.07,0,0,0,0,0h.06l0,0,.21.1.08,0h0l.82.1.44.05.38,0,.43,0,.67.06.85.08.87.06c.47,0,1,.07,1.48.09s1.37.07,2.09.09c1.26,0,2.61,0,4,0,.39,0,.77,0,1.16,0L228,310c.13,0,.26,0,.38,0l.43,0c.35,0,.7-.06,1-.1.75-.07,1.49-.17,2.22-.29.3,0,.59-.09.89-.15l.15,0,.52-.1c.34-.07.68-.14,1-.23l1.09-.29.05,0,.72-.22c.49-.16,1-.34,1.45-.54h0c.23-.1.47-.21.7-.33l.69-.37L240,307l.17-.1.31-.18c.38-.22.76-.46,1.13-.72l.16-.11.75-.52.72-.53c.3-.23.6-.46.89-.7l.13-.1c2.17-1.75,4.1-3.66,6.39-5.79,1.39-1.29,2.91-2.66,4.72-4.12.18-.15.36-.3.55-.44a6.26,6.26,0,0,1,.57-.45l.58-.45.61-.46c.4-.31.83-.62,1.26-.93h0l.91-.66c.94-.66,1.93-1.33,3-2l1.68-1.08.7-.45h0c.72-.47,1.42-.91,2.1-1.34l2-1.25,3.63-2.27c-.06.09-.11.19-.16.28h0c-1,1.76-1.87,3.4-2.6,4.92-.21.43-.4.86-.6,1.27a.3.3,0,0,1,0,.08h0c-.07.17-.15.33-.22.5s-.27.59-.38.88c-.37.87-.69,1.69-1,2.45q-.15.39-.27.75c-.17.49-.33,1-.47,1.4s-.21.69-.3,1c-.05.17-.09.32-.13.47s-.14.52-.19.75-.09.34-.12.49h0c-.09.37-.16.7-.21,1s-.06.3-.08.44a13.71,13.71,0,0,0-.24,2h0l.73-.24.21-.07,2.3-.74,1.71-.52-.19.45c-.13.31-.28.64-.42,1,0,0,0,0,0,0l0,.08c-.29.68-.59,1.43-.87,2.22a16.15,16.15,0,0,0-1.19,6.9c0,.31.08.63.14.93a3.45,3.45,0,0,0,.12.46,6.59,6.59,0,0,0,.32.88,3.42,3.42,0,0,0,.21.43,8.34,8.34,0,0,0,.48.79,13.08,13.08,0,0,0,.88,1.2c.11.13.22.27.34.4.34.4.72.81,1.12,1.21a50.23,50.23,0,0,0,5.62,4.72c2,1.47,4.12,2.91,6.15,4.26.52.37,1,.73,1.54,1.1,4,2.82,7.4,5.3,10.33,7.59h0a95.3,95.3,0,0,1,10,8.82c4.93,5.11,8.34,10.3,12.73,18C328,378.12,329.8,398,331.39,417.31Q333.3,440.76,335.23,464.2Z" />
      <path class="BUNTAI_MEERKAT_BODY_MEERKAT_BODY_22_cls-4" d="M168.69,311.54a11.44,11.44,0,0,0-1-2.34,1.18,1.18,0,0,0-.11-.19,7.25,7.25,0,0,0-5-3.64,3,3,0,0,0-.43-.08,10.47,10.47,0,0,0-5.15.67,8.33,8.33,0,0,0-2.15,1.39,15.34,15.34,0,0,0-5.38,11.1,28.36,28.36,0,0,0,1.66,7.33c2.59,6.58,7.23,7.54,10.23,5.67a6.12,6.12,0,0,0,2.48-3.15,70.08,70.08,0,0,1,3.33-7.14C168.71,318.06,169.76,315,168.69,311.54ZM161,326a1.77,1.77,0,0,1-.65,1.06,1.32,1.32,0,0,1-1.31.13c-1.18-.43-2.74-2.13-4-5.56a26.52,26.52,0,0,1-.78-2.57,9.8,9.8,0,0,1,3.37-8.26l.12-.06a4.71,4.71,0,0,1,3.49-.55,4.34,4.34,0,0,1,2.31,2.51,1.72,1.72,0,0,1,.11.29,6.69,6.69,0,0,1,0,4.36c-.25.94-.61,2-1,3.22A42.23,42.23,0,0,0,161,326Z" />
      <path class="BUNTAI_MEERKAT_BODY_MEERKAT_BODY_22_cls-4" d="M115.94,346c-2.33,5.62-7,10.11-5.43,15.6s6.19,6.51,11.11,4.6a15.14,15.14,0,0,0,7.9-11.8C128.53,339,118.27,340.38,115.94,346Zm5.3,15.76a5.17,5.17,0,0,1-3.55.72,3.59,3.59,0,0,1-2.14-2.2c-.86-1.94-.12-3.93,1.27-7.27a40.56,40.56,0,0,0,1.83-5.06,1.81,1.81,0,0,1,.68-1,1.38,1.38,0,0,1,1.28-.18c1.4.43,3.24,2.56,4.28,7.25A9.76,9.76,0,0,1,121.24,361.76Z" />
      <path class="BUNTAI_MEERKAT_BODY_MEERKAT_BODY_22_cls-4" d="M165.16,376.69c-1.75-5.72-5.76-7.83-10.28-7.28a13.54,13.54,0,0,0-3.25.8c-1.43.52-6.08,3.72-8,10a19.53,19.53,0,0,0-.78,4.56c2.07,19.62,14.24,18.45,16.7,11.45S167.32,383.74,165.16,376.69Zm-7,10.53a49.22,49.22,0,0,0-1.9,6.31,2,2,0,0,1-.76,1.24,1.49,1.49,0,0,1-1.51.15c-1.69-.62-4-3.43-5.53-9.45a11.35,11.35,0,0,1,3.91-9.61,5.56,5.56,0,0,1,4.2-.7,5.06,5.06,0,0,1,2.68,2.92C160.36,380.59,159.59,383.06,158.13,387.22Z" />
      <path class="BUNTAI_MEERKAT_BODY_MEERKAT_BODY_22_cls-4" d="M127.32,372.09c-5.38-1.22-9.14,3-14.22,5.26s-5.28,11.37,9.48,11.81a13.68,13.68,0,0,0,5-1.63,11.68,11.68,0,0,0,5.31-5.71C134.19,377.4,132.7,373.3,127.32,372.09Zm1.33,9.52a8.5,8.5,0,0,1-6.94,3.46c-4.58-.8-6.8-2.37-7.36-3.6a1.11,1.11,0,0,1,0-1.14,1.5,1.5,0,0,1,.87-.63,37.52,37.52,0,0,0,4.61-1.77c3-1.33,4.82-2,6.76-1.33a3.79,3.79,0,0,1,2.33,1.84A4.15,4.15,0,0,1,128.65,381.61Z" />
      <path class="BUNTAI_MEERKAT_BODY_MEERKAT_BODY_22_cls-4" d="M150.6,344c-1.78-5.06-10.58-5.92-12.08,8.27.34,6.7,5.06,10,6.33,10.5,4.16,1.55,8.22.42,9.79-4.68S152.38,349.09,150.6,344Zm-.27,13.08a3.6,3.6,0,0,1-1.93,2.11,4,4,0,0,1-3-.51,8.18,8.18,0,0,1-2.83-6.95c1.1-4.35,2.78-6.38,4-6.83a1.1,1.1,0,0,1,1.1.11,1.5,1.5,0,0,1,.55.89,34,34,0,0,0,1.37,4.57C150.61,353.51,151.16,355.3,150.33,357.11Z" />
      <path class="BUNTAI_MEERKAT_BODY_MEERKAT_BODY_22_cls-4" d="M97,356.78c0-.06,0-.13-.08-.19h0l-.29.48a1.09,1.09,0,0,1-.08.15l-.08.13-.29.49-.24.38c-.16.26-.31.52-.46.78l-.2.34c-.1.16-.2.33-.29.5l-.15.27.09.29c.2.62.4,1.21.61,1.8,1.06,3,1.62,4.8.79,6.61a3.64,3.64,0,0,1-1.94,2.11,4,4,0,0,1-3-.51,6,6,0,0,1-1-1l-.23-.31h0c-.17.36-.34.72-.5,1.09-.26.52-.49,1.05-.73,1.58-.08.17-.15.33-.22.5l-.09.2c-.06.11-.1.21-.15.32h0l.31.29a7.74,7.74,0,0,0,2.07,1.38c4.17,1.55,8.23.42,9.79-4.68C102,365.07,98.84,361.34,97,356.78Z" />
      <path class="BUNTAI_MEERKAT_BODY_MEERKAT_BODY_22_cls-4" d="M155,285.47a31.2,31.2,0,0,0-6.8-3.78l-1-.21c.06.25.11.49.17.72a1.05,1.05,0,0,0,.06.24.19.19,0,0,0,0,.08l.09.38c0,.16.08.31.11.46a2.25,2.25,0,0,0,.05.22l.15.64v0c0,.11.06.22.08.33a1.33,1.33,0,0,1,.05.19c0,.1.05.2.08.3s.07.25.09.37a1.36,1.36,0,0,1,0,.17,2.17,2.17,0,0,1,.07.24c0,.09.05.18.07.27l.12.44q.12.48.24.87c0,.09,0,.17.08.25a.07.07,0,0,1,0,.05h0c3.89,2.61,5.41,5,5.51,6.52a1.43,1.43,0,0,1-.54,1.31,1.93,1.93,0,0,1-1.3.35,33.19,33.19,0,0,0-3.42-.1c-.64,0-1.28,0-1.9.07h-.53l0,.11c.06.22.11.44.17.66l.12.44c.18.7.39,1.4.6,2.08.12.41.26.81.4,1.2h0l.29-.05,1.28-.23a37.07,37.07,0,0,1,4.39-.53l.24,0a4.1,4.1,0,0,0,.49-.06,6.36,6.36,0,0,0,3.85-2.09C160.85,294.71,160.8,289.91,155,285.47Z" />
      <path class="BUNTAI_MEERKAT_BODY_MEERKAT_BODY_22_cls-4" d="M140.9,315.15l0,0a2.46,2.46,0,0,1-.25.22,2.26,2.26,0,0,1-.29.26l-.72.62-.95.77-.05,0,0,0-.4.32c-.44.35-.89.68-1.35,1l-.07.05h0l0,0h0a10.74,10.74,0,0,1-3.16,8.3c-4.7,3.31-8,3.89-9.6,3.31a1.42,1.42,0,0,1-1-1,1.09,1.09,0,0,1,0-.26,2,2,0,0,1,.24-1.07l0,0h0l-.08.07-.54.4-.61.46c-.9.7-1.79,1.4-2.66,2.11l-.45.38a5.73,5.73,0,0,0,.16.69c1.39,4.77,8.46,7.63,18.87-2.17A16.26,16.26,0,0,0,140.9,315.15Z" />
      <path class="BUNTAI_MEERKAT_BODY_MEERKAT_BODY_22_cls-4" d="M190.25,294.69a2.49,2.49,0,0,0-.11-.29s0-.09,0-.13l-.57-.37-2-1.29-.39-.25-.53-.34-1.21-.76-.09-.06-1.42-.9-.38-.25-1-.64-1-.61c-.18-.11-.36-.22-.53-.34l-.39-.24,0,0h0l-.37-.25-.07,0h0l-.46-.31-.91-.58-.81-.51h0a9.07,9.07,0,0,0-.89.26,7.43,7.43,0,0,0-3.67,3.05,10.83,10.83,0,0,0-.62,1.12,13.4,13.4,0,0,0-.65,1.7c-1.2,3.91.27,7.24,2,10.73a50.36,50.36,0,0,1,2.77,6,6,6,0,0,0,4.07,3.83c3.88,1,9.09-2.22,10.3-13.68A16,16,0,0,0,190.25,294.69Zm-3.78,5.5c-1.31,5.18-3.31,7.6-4.76,8.13a1.3,1.3,0,0,1-1.31-.13,1.82,1.82,0,0,1-.65-1.06,40.7,40.7,0,0,0-1.63-5.43c-.18-.5-.34-1-.49-1.43-.92-2.75-1.29-4.58-.44-6.44a4.33,4.33,0,0,1,2.3-2.51,4.79,4.79,0,0,1,3.61.61,8.48,8.48,0,0,1,1.87,2.15A10.16,10.16,0,0,1,186.47,300.19Z" />
      <path class="BUNTAI_MEERKAT_BODY_MEERKAT_BODY_22_cls-4" d="M159.75,409.78c-8.34-2-14.18,2.54-15.22,3.92-3.43,4.54-3.54,9.95,2.16,13.75s11.92.54,18.79.21S176.63,416.84,159.75,409.78Zm5.58,13.86a1.93,1.93,0,0,1-1.3.35,44.47,44.47,0,0,0-6.11,0c-4.09.2-6.49.22-8.42-1.46a4.69,4.69,0,0,1-1.88-3.16,5.19,5.19,0,0,1,1.74-3.54,10.56,10.56,0,0,1,9.58-.92c4.94,2.95,6.82,5.76,6.93,7.42A1.43,1.43,0,0,1,165.33,423.64Z" />
      <path class="BUNTAI_MEERKAT_BODY_MEERKAT_BODY_22_cls-4" d="M127.27,411.35c-2.44-2.74-5.33-3.52-7.82-3a6.17,6.17,0,0,0-1.13.35,7.75,7.75,0,0,0-4.36,4.65c-.09.27-.19.53-.29.79l-.27.68c-2.89,7.11-7.91,12.88-5.66,20.23a14.68,14.68,0,0,0,1.51,3.41,9.42,9.42,0,0,0,7,4.69,9.77,9.77,0,0,0,1.44.1,14.77,14.77,0,0,0,5.16-1,7.9,7.9,0,0,0,1.5-.82,19.65,19.65,0,0,0,8.24-15.34C131.79,418.82,129.75,414.09,127.27,411.35Zm-3.12,22.32A10.24,10.24,0,0,1,122,436a6.21,6.21,0,0,1-4.68.79l-.25-.1a4.09,4.09,0,0,1-1.4-1,3.17,3.17,0,0,1-.28-.34,8.62,8.62,0,0,1-1-1.77c-1.1-2.4-.62-4.77.58-8.34l.41-1.23c.07-.2.15-.41.22-.62.35-1,.7-2,1-3v0a38.23,38.23,0,0,0,1.08-4,2.27,2.27,0,0,1,.84-1.38,1.73,1.73,0,0,1,1.7-.17c1.42.52,3.23,2.43,4.76,6.21a31,31,0,0,1,1.39,4.32A13.1,13.1,0,0,1,124.15,433.67Z" />
      <path class="BUNTAI_MEERKAT_BODY_MEERKAT_BODY_22_cls-4" d="M195.29,415.15c-4.95-1.84-9.78-.49-11.64,5.58s2.69,10.74,4.8,16.76,12.59,7,14.37-9.85C202.42,419.68,196.8,415.71,195.29,415.15Zm2.76,13.13c-1.31,5.18-3.31,7.6-4.76,8.13a1.3,1.3,0,0,1-1.31-.13,1.82,1.82,0,0,1-.65-1.06,40.7,40.7,0,0,0-1.63-5.43c-1.26-3.58-1.92-5.71-.93-7.87a4.33,4.33,0,0,1,2.3-2.51,4.79,4.79,0,0,1,3.61.61A9.77,9.77,0,0,1,198.05,428.28Z" />
      <path class="BUNTAI_MEERKAT_BODY_MEERKAT_BODY_22_cls-4" d="M98.22,432.77c-1.14-6.28.5-12.59-4.11-16.95s-9.48-3.14-12.88.91c-1,1.23-4,7.46-.37,14.58C90.75,445.1,99.35,439,98.22,432.77Zm-3.67.69a1.29,1.29,0,0,1-1.07.76c-1.53.26-4.46-.86-8.15-4.71a9.76,9.76,0,0,1-1.16-8.85A4.75,4.75,0,0,1,87,418.35a4.33,4.33,0,0,1,3.24,1c1.92,1.39,2.4,3.57,3.08,7.3a42.26,42.26,0,0,0,1.26,5.53A1.76,1.76,0,0,1,94.55,433.46Z" />
      <path class="BUNTAI_MEERKAT_BODY_MEERKAT_BODY_22_cls-4" d="M77.94,405.17h0c-.05.23-.1.46-.14.69a3,3,0,0,0-.09.41c-.12.51-.23,1-.33,1.54-.16.77-.32,1.54-.46,2.31,0,.21-.09.43-.13.64s-.06.28-.08.42-.08.36-.11.54h0A6.12,6.12,0,0,0,77.94,405.17Z" />
      <path class="BUNTAI_MEERKAT_BODY_MEERKAT_BODY_22_cls-4" d="M107.78,394.26a16.21,16.21,0,0,0-2-2.53c-4.16-4.36-9.38-4.82-10.74-4.6-5.21.84-8.74,4.41-7.36,10.6,1.34,6,7.32,7.91,12.07,11.88l.39.32a5.73,5.73,0,0,0,7.74,0,.47.47,0,0,0,.1-.1C110.4,407.48,111.35,402.42,107.78,394.26Zm-4,12.34a1.29,1.29,0,0,1-1.2.53,1.81,1.81,0,0,1-1.09-.6,30.55,30.55,0,0,0-2.34-2.35c-.59-.54-1.18-1.06-1.76-1.56-2.87-2.49-4.49-4-4.7-6.38a4.33,4.33,0,0,1,.76-3.32,4.78,4.78,0,0,1,3.44-1.26,9.78,9.78,0,0,1,7,5.52,17.47,17.47,0,0,1,.73,7.26A4.42,4.42,0,0,1,103.83,406.6Z" />
      <path class="BUNTAI_MEERKAT_BODY_MEERKAT_BODY_22_cls-4" d="M270.52,331.24a11.64,11.64,0,0,0-3.54-.75h-.29c-3.46-.05-6.45,1.86-7.82,6.33a9.57,9.57,0,0,0-.4,2.1c-.33,4.06,2,7.59,3.89,11.54a29.78,29.78,0,0,1,1.32,3.12,6.14,6.14,0,0,0,1.29,2.15,5.67,5.67,0,0,0,2.94,1.72c3.86.86,8.94-2.43,10.14-13.72C277.64,335.77,272,331.79,270.52,331.24Zm2.75,13.13c-1.31,5.17-3.3,7.59-4.75,8.13a1.32,1.32,0,0,1-1.31-.14,1.7,1.7,0,0,1-.65-1.06,42.23,42.23,0,0,0-1.63-5.43c-.28-.79-.53-1.51-.74-2.18-.73-2.35-1-4-.2-5.68a4.5,4.5,0,0,1,2.13-2.44.71.71,0,0,1,.18-.08,4.85,4.85,0,0,1,3.61.61A9.78,9.78,0,0,1,273.27,344.37Z" />
      <path class="BUNTAI_MEERKAT_BODY_MEERKAT_BODY_22_cls-4" d="M316.31,371.27c-2.33-5.62-12.6-7-13.59,8.4a15.17,15.17,0,0,0,7.91,11.81c4.91,1.9,9.57.88,11.11-4.61S318.64,376.89,316.31,371.27Zm.38,14.28a3.58,3.58,0,0,1-2.13,2.2A5.1,5.1,0,0,1,311,387a9.72,9.72,0,0,1-3.66-7.73c1-4.7,2.89-6.83,4.28-7.26a1.43,1.43,0,0,1,1.29.18,1.89,1.89,0,0,1,.68,1,38.87,38.87,0,0,0,1.83,5C316.82,381.63,317.56,383.61,316.69,385.55Z" />
      <path class="BUNTAI_MEERKAT_BODY_MEERKAT_BODY_22_cls-4" d="M332.37,429.44a10.63,10.63,0,0,1-1.11-.5,9.76,9.76,0,0,1-3.65-7.74c.86-3.88,2.27-6,3.52-6.88-.14-1.69-.29-3.37-.44-5.06-3.45.1-7.14,3.39-7.71,12.32a15.12,15.12,0,0,0,7.9,11.8,15.93,15.93,0,0,0,1.86.59C332.62,432.46,332.49,431,332.37,429.44Z" />
      <path class="BUNTAI_MEERKAT_BODY_MEERKAT_BODY_22_cls-4" d="M275.94,395.48c-4.76-1.77-9.41-1-12.11,3.29A13.24,13.24,0,0,0,262.4,402a11.33,11.33,0,0,0-.4,4.89c0,.16.05.32.08.48h0a26.69,26.69,0,0,0,2.8,7.32,56.72,56.72,0,0,1,3.11,6.78c2.46,7,14.63,8.18,16.7-11.44C284.22,400.75,277.69,396.13,275.94,395.48Zm3.2,15.26c-1.52,6-3.84,8.83-5.53,9.45a1.51,1.51,0,0,1-1.52-.15,2.1,2.1,0,0,1-.76-1.23,46.79,46.79,0,0,0-1.89-6.31c-1.46-4.17-2.23-6.64-1.09-9.15a5.06,5.06,0,0,1,2.68-2.92,5.54,5.54,0,0,1,4.2.71A11.31,11.31,0,0,1,279.14,410.74Z" />
      <path class="BUNTAI_MEERKAT_BODY_MEERKAT_BODY_22_cls-4" d="M314.47,402.62c-3.84-1.69-6.93-4.52-10.52-5.28a8.4,8.4,0,0,0-3.7,0,9.33,9.33,0,0,0-1.52.46c-4.13,1.59-5.22,5.3-4.08,9.27.37,1.27,3.16,6,9.3,7.18.33.07.68.12,1,.17C319.74,414,319.55,404.85,314.47,402.62Zm-1.25,4.13c-.56,1.22-2.79,2.79-7.36,3.59a9.42,9.42,0,0,1-2.63-.41c-.16,0-.31-.1-.46-.15a8.19,8.19,0,0,1-3.86-2.9,4.19,4.19,0,0,1-.29-3.17,3.31,3.31,0,0,1,1.72-1.57c.19-.09.39-.18.61-.26a4.91,4.91,0,0,1,3.13-.06,24.91,24.91,0,0,1,3.63,1.38,34.94,34.94,0,0,0,4.6,1.77,1.57,1.57,0,0,1,.88.63A1.17,1.17,0,0,1,313.22,406.75Z" />
      <path class="BUNTAI_MEERKAT_BODY_MEERKAT_BODY_22_cls-4" d="M277,369.3c-1.78,5.06-5.6,9-4,14.09s5.63,6.23,9.79,4.69c1.27-.47,6-3.81,6.33-10.5C287.55,363.39,278.75,364.24,277,369.3ZM282.21,384a4.06,4.06,0,0,1-3,.51,3.66,3.66,0,0,1-1.94-2.12c-.82-1.81-.27-3.6.79-6.61a33.44,33.44,0,0,0,1.37-4.56,1.52,1.52,0,0,1,.55-.9,1.12,1.12,0,0,1,1.1-.11c1.22.45,2.9,2.49,4,6.84A8.26,8.26,0,0,1,282.21,384Z" />
      <path class="BUNTAI_MEERKAT_BODY_MEERKAT_BODY_22_cls-4" d="M283.59,325.34c-2-1.35-4.15-2.79-6.15-4.26a33.16,33.16,0,0,0-3.83.09,1.93,1.93,0,0,1-1.3-.35,1.43,1.43,0,0,1-.54-1.31,4.87,4.87,0,0,1,.93-2.29c-.31-.29-.6-.57-.88-.86s-.78-.81-1.12-1.21c-.13-.14-.24-.27-.34-.4a13.08,13.08,0,0,1-.88-1.2,7.74,7.74,0,0,1-.49-.79l-.05-.1c-5.64,6-1.94,11.94,3.22,12.18,4.6.22,8.91,1.75,13,1.6C284.63,326.07,284.11,325.71,283.59,325.34Z" />
      <path class="BUNTAI_MEERKAT_BODY_MEERKAT_BODY_22_cls-4" d="M308.34,352.89c-1.32-3.37-1.82-6.92-2.85-10a95.3,95.3,0,0,0-10-8.82h0c-3.56-.23-6.49,1.94-8.4,5.4-.84,1.51-2.65,8.71,2.61,15.5C303,367.48,310.83,359.3,308.34,352.89Zm-3.74,1.49a1.42,1.42,0,0,1-1,1c-1.57.58-4.9,0-9.61-3.31a10.55,10.55,0,0,1-3-9.12,5.17,5.17,0,0,1,2.53-3,4.65,4.65,0,0,1,3.65.43c2.32,1.07,3.27,3.28,4.76,7.09a42.79,42.79,0,0,0,2.48,5.59A1.89,1.89,0,0,1,304.6,354.38Z" />
      <path class="BUNTAI_MEERKAT_BODY_MEERKAT_BODY_22_cls-4" d="M255.5,317.92c-1.86-6.07-6.69-7.42-11.64-5.58-1.51.56-7.13,4.53-7.53,12.49,1.78,16.88,12.25,15.87,14.37,9.85S257.36,324,255.5,317.92ZM249.45,327a40.7,40.7,0,0,0-1.63,5.43,1.82,1.82,0,0,1-.65,1.06,1.3,1.3,0,0,1-1.31.13c-1.45-.53-3.45-3-4.76-8.13a9.77,9.77,0,0,1,3.37-8.26,4.79,4.79,0,0,1,3.61-.61,4.33,4.33,0,0,1,2.3,2.51C251.37,321.27,250.71,323.4,249.45,327Z" />
      <path class="BUNTAI_MEERKAT_BODY_MEERKAT_BODY_22_cls-5" d="M204.2,190.78c-5-1.85-9.79-.5-11.65,5.57-1.56,5.09,1.41,9.21,3.65,14a32.92,32.92,0,0,1,3.55,2.6c.27.23.53.45.78.68l.06.05c.29.27.57.53.84.8s.35.34.51.51c.43.43.83.87,1.2,1.31l.61.75c3.4-.61,7-4.49,8-13.76C211.32,195.3,205.7,191.33,204.2,190.78ZM207,203.91c-1.31,5.17-3.3,7.59-4.75,8.13a1.32,1.32,0,0,1-1.31-.14,1.72,1.72,0,0,1-.65-1.06,42.23,42.23,0,0,0-1.63-5.43c-1.26-3.58-1.92-5.71-.94-7.86A4.33,4.33,0,0,1,200,195a4.8,4.8,0,0,1,3.61.61A9.78,9.78,0,0,1,207,203.91Z" />
      <path class="BUNTAI_MEERKAT_BODY_MEERKAT_BODY_22_cls-5" d="M250,247.85a50,50,0,0,1-3.24-4l-.67-.94a4.33,4.33,0,0,1-.35,2.17,3.59,3.59,0,0,1-2.14,2.2,5.11,5.11,0,0,1-3.55-.72,9.72,9.72,0,0,1-3.66-7.73c1-4.59,2.81-6.73,4.19-7.22,0-.05,0-.1,0-.15-.09-.33-.17-.66-.24-1s-.18-.86-.24-1.28-.12-.79-.15-1.17-.07-.76-.08-1.14c-3.55-.13-7.47,3.07-8.06,12.31a15.12,15.12,0,0,0,7.9,11.8c4.38,1.71,8.56,1.08,10.5-3l.08-.16Z" />
      <path class="BUNTAI_MEERKAT_BODY_MEERKAT_BODY_22_cls-5" d="M209.62,255c-5.76-2.14-11.37-.57-13.54,6.48S199.21,274,201.67,281a7.58,7.58,0,0,0,1.11,2,6.69,6.69,0,0,0,3.2,2.28c.07-.29.15-.57.24-.86s.1-.34.16-.51a.13.13,0,0,1,0-.08h0c.09-.27.19-.55.29-.82s.29-.74.45-1.11c.07-.18.15-.36.23-.53.41-.9.87-1.78,1.33-2.59a4.29,4.29,0,0,1-1.42.94,1.51,1.51,0,0,1-1.52-.15,2.14,2.14,0,0,1-.76-1.24,47.68,47.68,0,0,0-1.89-6.31c-1.46-4.16-2.23-6.63-1.09-9.14a5,5,0,0,1,2.68-2.92,5.54,5.54,0,0,1,4.2.71,11.31,11.31,0,0,1,3.91,9.6,27.33,27.33,0,0,1-1.72,5l.24-.27a3.07,3.07,0,0,1,.6-.55l.09-.05.12-.05.07,0,.21-.07,0,0,.38-.1.77-.17.6-.11.13,0,.42-.07c.61-.1,1.31-.19,2.05-.28l.86-.09h.11c.23-1.17.43-2.43.57-3.8C217.9,260.28,211.37,255.67,209.62,255Z" />
      <path class="BUNTAI_MEERKAT_BODY_MEERKAT_BODY_22_cls-5" d="M248.15,262.16c-5.08-2.23-8.84-6.47-14.22-5.26s-6.87,5.31-5.6,9.73c.39,1.34,3.47,6.48,10.34,7.35C253.42,273.53,253.23,264.39,248.15,262.16Zm-1.25,4.13c-.56,1.22-2.79,2.79-7.36,3.59a8.55,8.55,0,0,1-6.95-3.46,4.19,4.19,0,0,1-.29-3.17,3.79,3.79,0,0,1,2.33-1.84c1.94-.71,3.74,0,6.76,1.33a36.4,36.4,0,0,0,4.6,1.77,1.57,1.57,0,0,1,.88.63A1.17,1.17,0,0,1,246.9,266.29Z" />
      <path class="BUNTAI_MEERKAT_BODY_MEERKAT_BODY_22_cls-5" d="M210.65,228.84c-1.78,5.06-5.6,9-4,14.09s5.63,6.23,9.79,4.69c1.27-.47,6-3.81,6.33-10.5C221.23,222.92,212.43,223.78,210.65,228.84Zm5.24,14.68a4,4,0,0,1-3,.52,3.65,3.65,0,0,1-1.93-2.12c-.83-1.81-.28-3.6.78-6.61a34,34,0,0,0,1.37-4.57,1.5,1.5,0,0,1,.55-.89,1.12,1.12,0,0,1,1.1-.11c1.22.45,2.9,2.48,4,6.84A8.21,8.21,0,0,1,215.89,243.52Z" />
      <path class="BUNTAI_MEERKAT_BODY_MEERKAT_BODY_22_cls-5" d="M201.08,151.36a26.28,26.28,0,0,0-2.52-2.87h0l-.19-.19h0c-.22,0-.45,0-.67.06s-.27,0-.41,0q-.84.07-1.65.18c-.5.06-1,.12-1.46.2a5.58,5.58,0,0,0-.59.09c-.37,0-.73.11-1.09.18l-.75.15-.53.1.31.16a11.22,11.22,0,0,1,1.89,1.13,26.86,26.86,0,0,1,2,2.43c2.25,3,2.85,5.33,2.55,6.63a1.42,1.42,0,0,1-.88,1.11,1.94,1.94,0,0,1-1.34,0A44.26,44.26,0,0,0,189.9,159a24,24,0,0,1-5.34-1.68,6.21,6.21,0,0,1-3.34-4.69h0a.86.86,0,0,1,0-.16h0l-.55.25c-.86.39-1.7.8-2.51,1.22-.41.21-.81.42-1.2.64l-1.08.6a.56.56,0,0,0,0,.12h0a11.22,11.22,0,0,0,2.24,3.9,10.56,10.56,0,0,0,1,1c4.41,4,10.79,2.93,17,4.41C201.71,166,207.52,160,201.08,151.36Z" />
      <path class="BUNTAI_MEERKAT_BODY_MEERKAT_BODY_22_cls-5" d="M228.3,170.42c-1-1.38-6.88-6-15.22-3.92-16.88,7.06-12.6,17.56-5.73,17.88s13.1,3.58,18.79-.21S231.73,175,228.3,170.42Zm-5,8.83c-1.93,1.68-4.33,1.66-8.42,1.46a44.47,44.47,0,0,0-6.11,0,1.93,1.93,0,0,1-1.3-.35,1.43,1.43,0,0,1-.54-1.31c.11-1.66,2-4.47,6.93-7.42a10.56,10.56,0,0,1,9.58.92,5.19,5.19,0,0,1,1.74,3.54A4.69,4.69,0,0,1,223.33,179.25Z" />
      <path class="BUNTAI_MEERKAT_BODY_MEERKAT_BODY_22_cls-5" d="M242,212.43c-2.5-6.41-2.07-13.43-7.85-17.08S223.49,194,220.74,199c-.84,1.51-2.65,8.71,2.61,15.5C236.67,227,244.51,218.84,242,212.43Zm-3.74,1.49a1.42,1.42,0,0,1-1,1c-1.57.58-4.9,0-9.6-3.31a10.54,10.54,0,0,1-3.06-9.12,5.23,5.23,0,0,1,2.53-3,4.7,4.7,0,0,1,3.65.44c2.32,1.07,3.27,3.28,4.76,7.09a42.68,42.68,0,0,0,2.48,5.58A1.92,1.92,0,0,1,238.28,213.92Z" />
      <path class="BUNTAI_MEERKAT_BODY_MEERKAT_BODY_22_cls-5" d="M252.42,150.58l-1.91-.3c-1.26-.18-2.5-.32-3.71-.43L245,149.7a6.56,6.56,0,0,1,2.07,3.71,1.42,1.42,0,0,1-.54,1.31,1.91,1.91,0,0,1-1.3.34,44.42,44.42,0,0,0-6.11,0c-4.08.19-6.49.22-8.41-1.47a4.67,4.67,0,0,1-1.88-3.15,2,2,0,0,1,0-.49l-1.8.14-1.23.1c-.91.07-1.73.13-2.44.15-.28,2.94,1,5.85,4.51,8.17,5.68,3.79,11.91.54,18.78.22A6.16,6.16,0,0,0,252.42,150.58Z" />
      <path class="BUNTAI_MEERKAT_BODY_MEERKAT_BODY_22_cls-5" d="M157.9,188.09c-2.28-3.8-5.81-5.93-9.92-4.85a11.63,11.63,0,0,0-3.63,1.71,11,11,0,0,0-1.85,1.59,14.58,14.58,0,0,0-3.11,6.37q.26.24.51.51c.17.17.34.35.5.53s.34.36.5.55.34.38.5.58.37.44.55.67c.41.49.8,1,1.18,1.55l.22-.64c1.35-3.87,2.22-6.11,4.5-7.26a4.66,4.66,0,0,1,3.64-.56,5.18,5.18,0,0,1,2.63,2.94,10.53,10.53,0,0,1-2.73,9.22c-3.29,2.5-5.92,3.56-7.73,3.77h0l-.06.38c-.1.57-.21,1.12-.33,1.67s-.24,1.08-.37,1.61-.33,1.25-.5,1.85c0,.12-.07.24-.1.35h.05c3.33.36,8-1.37,13.5-7C160.86,196.7,158.8,189.57,157.9,188.09Z" />
      <path class="BUNTAI_MEERKAT_BODY_MEERKAT_BODY_22_cls-5" d="M178,261.09v0a9.57,9.57,0,0,0-1-3c-2.93-4.89-7.9-7-13.55-3.14a10.5,10.5,0,0,0-1.55,1.29c-3.51,3.52-3.67,8.75-5,13.93-.17.62-.35,1.25-.57,1.86a2.58,2.58,0,0,1-.08.26s0,.07,0,.11h0l1.15.77c2.17,1.47,4.41,3,6.68,4.45l.19.12h0c.91.6,1.82,1.2,2.74,1.79l.11-.05h0a27.77,27.77,0,0,0,7.83-5.83,18.89,18.89,0,0,0,1.58-2.63A16.31,16.31,0,0,0,178,261.09Zm-7.47,9.85c-4.59,3.48-7.9,4.17-9.48,3.64a1.69,1.69,0,0,1-.52-.26,1.34,1.34,0,0,1-.49-.73,2,2,0,0,1,.16-1.33c.34-.67.64-1.34.92-2,.52-1.24.95-2.47,1.37-3.67,1.35-3.86,2.22-6.1,4.5-7.25a7.54,7.54,0,0,1,1.39-.55h0a3.57,3.57,0,0,1,2.22,0,3.76,3.76,0,0,1,1.47,1.06h0a7.27,7.27,0,0,1,1.15,1.87,10.4,10.4,0,0,1-2.5,9A2.61,2.61,0,0,1,170.53,270.94Z" />
      <path class="BUNTAI_MEERKAT_BODY_MEERKAT_BODY_22_cls-5" d="M159.46,232.49c-3.83-5.66-10.83-5-17.31-7.32-4.89-1.74-10.61,2.45-7.56,10.16a18.37,18.37,0,0,0,1.83,3.43,28.46,28.46,0,0,0,2.83,3.63c.44.49.92,1,1.43,1.5a16.61,16.61,0,0,0,11,3.26,11.51,11.51,0,0,0,4.55-1.12C161.15,243.13,163.29,238.16,159.46,232.49Zm-3.92,7.12a5.21,5.21,0,0,1-3,2.62,10.54,10.54,0,0,1-9.21-2.78c-.19-.25-.37-.5-.54-.74a23.18,23.18,0,0,1-1.44-2.27c-1.73-3-2-5.27-1.62-6.48a1.43,1.43,0,0,1,1-1,1.9,1.9,0,0,1,1.33.17,43.8,43.8,0,0,0,5.66,2.31c3.85,1.37,6.09,2.26,7.23,4.55A4.67,4.67,0,0,1,155.54,239.61Z" />
      <path class="BUNTAI_MEERKAT_BODY_MEERKAT_BODY_22_cls-5" d="M292.87,177.64a2.18,2.18,0,0,1-.21-.22l-.15-.15a.73.73,0,0,1-.14-.16,3.64,3.64,0,0,1-.4-.48l-.29-.4-.5-.7-1.38-1.84-.65-.86-.06-.07c-.17.53-.37,1.08-.57,1.66a53.74,53.74,0,0,0-2.11,7,2.27,2.27,0,0,1-.84,1.37,1.7,1.7,0,0,1-1.7.17c-1.88-.69-4.46-3.82-6.16-10.52a13.06,13.06,0,0,1,2.74-9h0l-.89-.78c-.22-.2-.46-.39-.7-.58l-.56-.45c-.74-.61-1.52-1.19-2.33-1.76a20,20,0,0,0-4.43,11.79c2.3,21.85,15.86,20.54,18.6,12.74a54.51,54.51,0,0,1,2.95-6.53Z" />
      <path class="BUNTAI_MEERKAT_BODY_MEERKAT_BODY_22_cls-5" d="M299.58,243c-.05-.17-.11-.34-.17-.51-2.51-7.42-8.63-9-14.9-6.71-1.95.72-9.23,5.87-9.75,16.17a38.24,38.24,0,0,0,1.78,8.49c3.36,9.68,9.93,10.92,13.93,8.09l.19-.13h0a7.83,7.83,0,0,0,2.69-3.7l.3-.83v0s0-.07,0-.11C296.57,256.4,301.89,250.53,299.58,243Zm-9.94,18.76a2.39,2.39,0,0,1-.85,1.38,1.71,1.71,0,0,1-1.69.17c-1.53-.56-3.53-2.76-5.14-7.19a32.6,32.6,0,0,1-1-3.34,12.66,12.66,0,0,1,4.36-10.7,6.24,6.24,0,0,1,4.67-.79,5.68,5.68,0,0,1,3,3.26,7.79,7.79,0,0,1,.33,5.19,43.33,43.33,0,0,1-1.55,5A52.26,52.26,0,0,0,289.64,261.77Z" />
      <path class="BUNTAI_MEERKAT_BODY_MEERKAT_BODY_22_cls-5" d="M258.87,170.11c-2.74-7.79-16.3-9.1-18.6,12.75.52,10.3,7.8,15.45,9.74,16.16,6.42,2.39,12.67.64,15.08-7.21S261.61,177.91,258.87,170.11Zm-.41,20.15a5.58,5.58,0,0,1-3,3.25,6.21,6.21,0,0,1-4.68-.79A12.61,12.61,0,0,1,246.45,182c1.69-6.7,4.27-9.84,6.15-10.53a1.73,1.73,0,0,1,1.7.17,2.27,2.27,0,0,1,.84,1.38,53.13,53.13,0,0,0,2.11,7C258.88,184.71,259.74,187.47,258.46,190.26Z" />
      <path class="BUNTAI_MEERKAT_BODY_MEERKAT_BODY_22_cls-5" d="M189.18,177.45c-1.86-6.07-6.69-7.42-11.64-5.58-1.51.56-7.13,4.53-7.53,12.49,1.78,16.88,12.25,15.87,14.37,9.85S191,183.51,189.18,177.45Zm-6.05,9.06a40.7,40.7,0,0,0-1.63,5.43,1.82,1.82,0,0,1-.65,1.06,1.3,1.3,0,0,1-1.31.13c-1.45-.53-3.45-2.95-4.76-8.13a9.77,9.77,0,0,1,3.37-8.26,4.79,4.79,0,0,1,3.61-.61,4.33,4.33,0,0,1,2.3,2.51C185.05,180.8,184.39,182.93,183.13,186.51Z" />
      <path class="BUNTAI_MEERKAT_BODY_MEERKAT_BODY_22_cls-6" d="M258.51,464.2l8.15-4.54s-2.1,11.72-6.29,14.68l-.05,0a107.84,107.84,0,0,1-27-5.69l-1.47-.49-1.52-.53-1.41-.51-1.13-.42-1.28-.49-.59-.23c-1.42-.55-2.77-1.1-4-1.63-6.72-2.84-11-5.17-11-5.17s-4.07,2.24-10.57,5c-3.74,1.59-8.29,3.37-13.32,5a90.53,90.53,0,0,1-13,3.73l-.13-.27-4-8.46-1-10.31s7.91,9.44,10.16,10.31c-5.59-9-7.34-33.5-7.34-33.5l4.08,5.82c-2.21-9.55-4.17-33-4.17-33l4.29,4.2c-3.5-8.39-4.29-33.56-4.29-33.56l4.1,3.59s-2.66-16.13-4.09-29.12h0c-.26-2.33-.48-4.56-.63-6.58h0c-.07-.87-.13-1.69-.17-2.47a4.27,4.27,0,0,1,1.29.31,34.35,34.35,0,0,1,4,1.79s-.5-1.4-2-5.68h0c-.77-2.25-1.8-5.3-3.17-9.34-.3-2-.53-4.25-.69-6.63-.21-2.94-.32-6.09-.36-9.27h0a0,0,0,0,1,0,0h0c0-.56,0-1.12,0-1.67h0c0-.63,0-1.26,0-1.89h0c0-5.44.16-10.78.35-15.15s.4-7.71.5-9.24h0c0-.35,0-.6.05-.75s0-.15,0-.15l.13.09h0s0,0,0,0l.18.12c1.08.69,4.61,3,9,5.82h0l6.93,4.43,6.4,4.06c3.9,2.47,7.41,4.66,9.64,6,8,4.81,7.51,6.94,17.47,7.42,1.61.08,3.12.13,4.55.14h0c.9,0,1.75,0,2.58,0h0a33.91,33.91,0,0,0,6.24-.73,1.83,1.83,0,0,1,.25-.06,21.38,21.38,0,0,0,5.74-2.23l.36-.21c.38-.22.76-.46,1.13-.72s.61-.4.91-.63l.72-.53c.3-.23.6-.46.89-.7l.13-.1c3.15-2.49,6-5.07,9.66-8.13l.11-.09c1.56-1.3,3.27-2.69,5.2-4.2,1.14-.88,2.37-1.82,3.7-2.8l0,0,1.58-1.16c-.05.08-.1.16-.14.24a42.07,42.07,0,0,0-2.89,5.57c-3.11,7.55.38,9.28.17,18.1-.25,10.72-4.18,28.43-4.18,28.43l9.55-9.79c-.92,8.73-7.28,29.24-7.45,29.82.11-.08,2.1-1.58,9.38-7.45-1.14,6.29-3.74,15.46-6.7,24.91l3.69-3.24s-.79,25.17-4.28,33.56l4.28-4.2s-1.95,23.42-4.17,33l4.08-5.82S264.11,455.18,258.51,464.2Z" />
      <path class="BUNTAI_MEERKAT_BODY_MEERKAT_BODY_22_cls-6" d="M192.37,216C184,211.67,174,216,174,216s-1.66,21.93,24.82,17.91C198.84,233.87,200.76,220.24,192.37,216Z" />
      <path class="BUNTAI_MEERKAT_BODY_MEERKAT_BODY_22_cls-6" d="M274.14,216s-10-4.29-18.35,0-6.47,17.91-6.47,17.91C275.8,237.89,274.14,216,274.14,216Z" />
      <path class="BUNTAI_MEERKAT_BODY_MEERKAT_BODY_22_cls-7" d="M198.84,233.87s1.92-13.63-6.47-17.91S174,216,174,216,172.36,237.89,198.84,233.87Z" />
      <path class="BUNTAI_MEERKAT_BODY_MEERKAT_BODY_22_cls-8" d="M187.45,215.12a8,8,0,1,0,8.24,8A8.14,8.14,0,0,0,187.45,215.12Z" />
      <ellipse cx="187.45" cy="223.16" rx="3.98" ry="3.89" />
      <ellipse class="BUNTAI_MEERKAT_BODY_MEERKAT_BODY_22_cls-6" cx="189.79" cy="219.72" rx="1.81" ry="1.77" />
      <ellipse class="BUNTAI_MEERKAT_BODY_MEERKAT_BODY_22_cls-9" cx="187.45" cy="223.16" rx="8.24" ry="8.04" />
      <path class="BUNTAI_MEERKAT_BODY_MEERKAT_BODY_22_cls-7" d="M249.32,233.87s-1.92-13.63,6.47-17.91,18.35,0,18.35,0S275.8,237.89,249.32,233.87Z" />
      <path class="BUNTAI_MEERKAT_BODY_MEERKAT_BODY_22_cls-8" d="M260.71,215.12a8,8,0,1,1-8.24,8A8.14,8.14,0,0,1,260.71,215.12Z" />
      <ellipse cx="260.71" cy="223.16" rx="3.98" ry="3.89" />
      <ellipse class="BUNTAI_MEERKAT_BODY_MEERKAT_BODY_22_cls-6" cx="262.88" cy="219.72" rx="1.81" ry="1.77" />
      <ellipse class="BUNTAI_MEERKAT_BODY_MEERKAT_BODY_22_cls-9" cx="260.71" cy="223.16" rx="8.24" ry="8.04" />
      <path d="M214.91,290.24c-3.1-.3-6.6-2.31-9.12-4a12.62,12.62,0,0,0-.14,1.32,13.61,13.61,0,0,0,2.13,6.57c3,1.21,6.2,1.91,8.15,1.5C220,294.71,220.5,290.78,214.91,290.24Z" />
      <path d="M234.39,290.24c-5.6.54-5.13,4.47-1,5.35a10.9,10.9,0,0,0,4.39-.29,29.75,29.75,0,0,0,1.83-7.69C237.89,288.47,236.07,290.07,234.39,290.24Z" />
      <path class="BUNTAI_MEERKAT_BODY_MEERKAT_BODY_22_cls-10" d="M223.65,302.81s.48-5.64.57-9.09" />
      <path class="BUNTAI_MEERKAT_BODY_MEERKAT_BODY_22_cls-11" d="M199,276.8s-38.73,2.4-80.2,22.64-42.18,22.43-42.18,22.43" />
      <path class="BUNTAI_MEERKAT_BODY_MEERKAT_BODY_22_cls-11" d="M197.18,281.84s-57.67,17-98.39,55.31" />
      <path class="BUNTAI_MEERKAT_BODY_MEERKAT_BODY_22_cls-11" d="M195.08,286.2s-36.87,26.48-64,63.88" />
      <path class="BUNTAI_MEERKAT_BODY_MEERKAT_BODY_22_cls-11" d="M195.69,272.31s-56.53-5.06-98.3-.87" />
      <path class="BUNTAI_MEERKAT_BODY_MEERKAT_BODY_22_cls-11" d="M248.23,276.8s38.72,2.4,80.2,22.64,42.17,22.43,42.17,22.43" />
      <path class="BUNTAI_MEERKAT_BODY_MEERKAT_BODY_22_cls-11" d="M250.08,281.84s57.67,17,98.39,55.31" />
      <path class="BUNTAI_MEERKAT_BODY_MEERKAT_BODY_22_cls-11" d="M252.18,286.2s36.87,26.48,64,63.88" />
      <path class="BUNTAI_MEERKAT_BODY_MEERKAT_BODY_22_cls-11" d="M251.56,272.31s56.54-5.06,98.31-.87" />
      <path class="BUNTAI_MEERKAT_BODY_MEERKAT_BODY_22_cls-7" d="M132.57,237.76a42.88,42.88,0,0,1-10.37-18.4c-2.79-11.07-4.42-19.34,1.52-34.25h0c2.79-2.91,7.8-2.33,19.11-7.1s19.92-16.84,38.09-25.23S222,150.33,222,150.33c5.07.35,20-3.15,38.36,2s27.7,19,31.63,24.29,14.42,5.07,15.9,5.85,5.16,9.44,5.16,21-3.93,23.77-8,28.14" />
      <path class="BUNTAI_MEERKAT_BODY_MEERKAT_BODY_22_cls-7" d="M143.42,263.27C136.05,257,131.58,254.32,126,253c1.17-1.63,4.43-6.82,4.43-6.82s-.64-.29-3.09-1.57c2.21-1.14,5.08-6.58,5.24-6.87" />
      <path class="BUNTAI_MEERKAT_BODY_MEERKAT_BODY_22_cls-7" d="M305.09,231.6c-1,2.45-3.59,7.77-3.59,7.77l5,2.09s-1.14,2-3.85,7.61S290,269.45,290,269.45l-3.73,3.62c-2.6,2.51-6.72,5.09-13.31,9.22-2.87,1.79-6.21,3.88-10.1,6.39a83.19,83.19,0,0,0-12.21,9.53c-3.85,3.57-6.66,6.54-11.33,9.14-3.35,1.87-8.27,2.59-12.93,2.77a84.19,84.19,0,0,1-13.19-.59,50.15,50.15,0,0,1-8.57-5.59c-.94-.77-2.72-2-5-3.53-8.18-5.44-22.78-14.45-28.1-18.14-6.82-4.72-18-10.31-26.39-17.56l-1.68-1.43" />
      <path class="BUNTAI_MEERKAT_BODY_MEERKAT_BODY_22_cls-7" d="M123.72,185.11s12,.58,20.39,13.63c.23,9.79-4.9,19.81-4.9,19.81l-2.91-7.46-.81,14.33-2.45-1s1.67,9.83-.47,13.39h0" />
      <path class="BUNTAI_MEERKAT_BODY_MEERKAT_BODY_22_cls-7" d="M305.09,231.6h0l-1.92-2.35.52-7.43-3.41,6s-2.74-4.17-2.85-19.19c6.52-8.86,10.45-26.16,10.45-26.16" />
      <path class="BUNTAI_MEERKAT_BODY_MEERKAT_BODY_22_cls-7" d="M143.42,263.26h0c1.46,7.53,4.28,21.53,5.61,25.19l-3.85-.26s1.23,9.79,3.85,14.68c-4.11,10.27-9.26,13.55-16.69,18.7" />
      <path class="BUNTAI_MEERKAT_BODY_MEERKAT_BODY_22_cls-7" d="M273,282.26l0,0c-6.92,11.93-7,18.68-7,18.68s2.62-.88,5-1.58c-1.31,3.15-4.19,9.18-1.92,13.37s8.83,8.74,14.59,12.58" />
      <path class="BUNTAI_MEERKAT_BODY_MEERKAT_BODY_22_cls-7" d="M226.36,310.12s-3.67,14.27-4.19,19.34c4.19,4.19,8,3.49,8,3.49s-.7,11-4,14.16l5.94,2.53a188.5,188.5,0,0,0-9.53,27.79" />
      <path class="BUNTAI_MEERKAT_BODY_MEERKAT_BODY_22_cls-10" d="M239.82,284.2a31.09,31.09,0,0,1-.23,4.34,22.6,22.6,0,0,1-1.83,6.76c-2.73,6-7.21,7.42-7.21,7.42a92.59,92.59,0,0,1-14.55-.43c-2.63-.76-6.05-4.39-8.22-8.2a13.61,13.61,0,0,1-2.13-6.57,12.62,12.62,0,0,1,.14-1.32c.83-4.79,4.87-11,6.15-11.79s15.12-2.53,20.19,0S239.82,284.2,239.82,284.2Z" />
      <path class="BUNTAI_MEERKAT_BODY_MEERKAT_BODY_22_cls-10" d="M197.34,247.85c-.53.59-1.08,1.18-1.65,1.75-7.78,7.86-15.55,12.67-11.19,28.31,2.59,9.29,10.27,16.63,17.7,21.32,5.07,3.21,10,5.18,13.15,5.68,7.69,1.22,8.3-1.66,8.3-1.66" />
      <path class="BUNTAI_MEERKAT_BODY_MEERKAT_BODY_22_cls-10" d="M197.34,247.85a69.6,69.6,0,0,0-8,1.14c-7.78,1.66-11.36-.27-11.36-4.29s-8.12-9.61-13.63-18.52-3.41-21.76-.61-22.37c30.32-2.45,42.73,13.54,43.69,20.71C208.29,231.16,204.15,240.28,197.34,247.85Z" />
      <path class="BUNTAI_MEERKAT_BODY_MEERKAT_BODY_22_cls-10" d="M250,247.85c-6.81-7.57-11-16.69-10.06-23.33,1-7.17,13.37-23.16,43.69-20.71,2.8.61,4.89,13.46-.61,22.37s-13.63,14.5-13.63,18.52-3.58,6-11.36,4.29A69.6,69.6,0,0,0,250,247.85Z" />
      <path class="BUNTAI_MEERKAT_BODY_MEERKAT_BODY_22_cls-10" d="M223.65,303.25s.61,2.88,8.3,1.66c3.84-.62,10.46-3.46,16.67-8.1s12-11.08,14.18-18.9c4.36-15.64-3.41-20.45-11.19-28.31-.57-.57-1.12-1.16-1.65-1.75" />
      <path class="BUNTAI_MEERKAT_BODY_MEERKAT_BODY_22_cls-12" d="M294.55,464.2h40.68q-1.92-23.46-3.84-46.89c-1.59-19.3-3.35-39.19-13.17-56.44-4.39-7.72-7.8-12.91-12.73-18a95.3,95.3,0,0,0-10-8.82h0c-2.93-2.29-6.32-4.77-10.33-7.59-.5-.37-1-.73-1.54-1.1" />
      <path class="BUNTAI_MEERKAT_BODY_MEERKAT_BODY_22_cls-12" d="M132.34,321.59c-24,14.51-37.91,34.26-47.65,60.39S72.61,436.34,71.3,464.2h56" />
      <path class="BUNTAI_MEERKAT_BODY_MEERKAT_BODY_22_cls-12" d="M129.24,384.34a133.66,133.66,0,0,0-10.45,26.36,96.1,96.1,0,0,0-3,15.65h0c-.17,1.59-.28,3.18-.34,4.78a0,0,0,0,1,0,0,61.88,61.88,0,0,0,.17,7.34A45.21,45.21,0,0,0,118,449.9h0a35.62,35.62,0,0,0,4,8A35.12,35.12,0,0,0,127.1,464l.17.16c8.26,7.73,19.06,10.39,30.15,10.32a85.58,85.58,0,0,0,16.52-1.86A122.77,122.77,0,0,0,187,469.2c5-1.61,9.58-3.39,13.32-5,6.5-2.77,10.57-5,10.57-5" />
      <path class="BUNTAI_MEERKAT_BODY_MEERKAT_BODY_22_cls-12" d="M118.66,390.11s-2.16,12.79.13,20.59" />
      <path class="BUNTAI_MEERKAT_BODY_MEERKAT_BODY_22_cls-12" d="M292.59,384.34A133.75,133.75,0,0,1,303,410.69h0C307.8,428,309.52,450,294.72,464l-.17.16a35,35,0,0,1-10,6.54L284,471c-.41.18-.82.34-1.23.5A47.39,47.39,0,0,1,269,474.39c-.93.05-1.87.09-2.81.11-.55,0-1.09,0-1.64,0s-.84,0-1.27,0a3.85,3.85,0,0,1-.48,0c-.82,0-1.65-.05-2.47-.1a110,110,0,0,1-28.51-6.18l-1.52-.53-1.41-.51c-.38-.13-.76-.27-1.13-.42l-1.28-.49-.59-.23c-1.42-.55-2.77-1.1-4-1.63-6.72-2.84-11-5.17-11-5.17" />
      <path class="BUNTAI_MEERKAT_BODY_MEERKAT_BODY_22_cls-12" d="M303.16,390.11s2.16,12.79-.13,20.59" />
      <g class="BUNTAI_MEERKAT_BODY_MEERKAT_BODY_22_cls-13">
        <path class="BUNTAI_MEERKAT_BODY_MEERKAT_BODY_22_cls-14" d="M306.5,241.47s-12.15,22.89-17.53,29-16,11.84-25.64,18.07S246,304.47,238,308s-25.22,1.35-25.22,1.35-19-12.74-33.16-21.73q-4.31-2.75-8.57-5.49c-.65-2.29-3.63-2.48-3.63-2.48l-25.26-17.45h0l-1.09-.86c-10.35-8.26-14.81-8.64-14.81-8.64l3.56-6.36s0-.41-2.47-1.67c11.53-5.59,23.53-.24,28.31,6.52s19.45,9.9,28.51,10.72c4.85,16,11.45,20.15,21.49,21.67,8.88,3.49,23.39,5.7,34.18.64a31.46,31.46,0,0,0,23.7-15.56c10.72-4.66,26.91-19.92,26.91-19.92s-.58,2.68-5,7.34c9.56-5.71,16.08-16.68,16.08-16.68Z" />
        <path d="M181.1,313.73l-13.45,7.87S153.49,306.92,149,299.33,144.12,288,144.12,288a35,35,0,0,0,4.92.53c-1.66-4.29-6.89-26.3-6.89-26.3h0c8.08,6.33,18.27,13.09,28.89,19.93.91,3.26,2.18,7.62,2.94,9.54C175.29,294.92,181.1,313.73,181.1,313.73Z" />
        <path d="M143.64,198.8s-15.45-8.86-23.68-4.37c-.43,12.82-1,18.17,3.64,29.13s8.54,13.31,8.54,13.31,2.07-4.58,1-12.09l2.27.76.7-13,3.17,5.3S144.28,210.33,143.64,198.8Z" />
        <path d="M311.88,192.32s-4.32,14-14.95,17.44c.73,12.84,3.6,17.64,3.6,17.64l2.51-3.93.14,5.59,2.39,2.54s5.9-12.76,6.9-20.91S311.88,192.32,311.88,192.32Z" />
        <path class="BUNTAI_MEERKAT_BODY_MEERKAT_BODY_22_cls-14" d="M174,216l-5.5-2.89s.87,17,8.62,20.62,21.25.24,21.25.24-8,1.51-15.11-1.64S174.05,219.83,174,216Z" />
        <path class="BUNTAI_MEERKAT_BODY_MEERKAT_BODY_22_cls-14" d="M274.12,216l5.51-2.89s-.87,17-8.62,20.62-21.25.24-21.25.24,8,1.51,15.11-1.64S274.1,219.83,274.12,216Z" />
        <path d="M104.38,375.72s1.65,21.65,3.67,34.48L97.92,392.9h0s4.54,36.52,3.32,45.61H115.8S115.21,404.32,104.38,375.72Z" />
        <path d="M226.48,346.8l4,2.58-7.06.35-22.55,1.1-.46,5.77s-.47,1.17-14.1-1.44A73.5,73.5,0,0,1,159,339.31l6.4-21.17-3.85-15.33s6.88,5.68,9.09,8.82a107.48,107.48,0,0,1-4.19-31.69l19.22,12.47L217,308.14l8.45.17-3.32,21.15s4.29,3,7.69,3.53A36.87,36.87,0,0,1,226.48,346.8Z" />
        <path d="M231.6,350.08l0,.08-1-.77Z" />
        <path class="BUNTAI_MEERKAT_BODY_MEERKAT_BODY_22_cls-14" d="M215.13,149.07s-25,.86-45.86,18-28.58,21.26-34.62,22.51c-9.14-4.45-10.93-5-10.93-5s2.91-1.69,12-4.37,13.19-6.42,25.5-15S185.5,144.61,215.13,149.07Z" />
        <path class="BUNTAI_MEERKAT_BODY_MEERKAT_BODY_22_cls-14" d="M132.34,239.38a38.68,38.68,0,0,1,15.58,0,25.7,25.7,0,0,0-14.54-4Z" />
        <path d="M103.75,430.35l-2.51,8.16L99.79,464.2H118s1.48-27.22-5-51.1A79.54,79.54,0,0,1,103.75,430.35Z" />
        <path d="M182.1,319.67S169.17,347.81,159,363s-11.88,20.62-11.88,20.62L148,374s-15.51,20.56-21.28,39.08,0,50.4,0,50.4l-55.4.7s.36-39.6,7.34-62.13,14-44.77,32.79-64.11c14.47-12.17,28-20.21,32.77-26.37s4.83-8.7,4.83-8.7l-2.72-8.7,5.82,3.46Z" />
      </g>
    </g>
  </g>
</svg>