<svg xmlns="http://www.w3.org/2000/svg" viewBox="0 0 432 432">
  <defs>
    <style>.BUNTAI_MEERKAT_BODY_MEERKAT_BODY_39_cls-1{isolation:isolate;}.BUNTAI_MEERKAT_BODY_MEERKAT_BODY_39_cls-2{fill:#1a1a1a;}.BUNTAI_MEERKAT_BODY_MEERKAT_BODY_39_cls-3{fill:#d9b38e;}.BUNTAI_MEERKAT_BODY_MEERKAT_BODY_39_cls-4{fill:#eadab7;}.BUNTAI_MEERKAT_BODY_MEERKAT_BODY_39_cls-5{fill:#fff;}.BUNTAI_MEERKAT_BODY_MEERKAT_BODY_39_cls-10,.BUNTAI_MEERKAT_BODY_MEERKAT_BODY_39_cls-11,.BUNTAI_MEERKAT_BODY_MEERKAT_BODY_39_cls-6,.BUNTAI_MEERKAT_BODY_MEERKAT_BODY_39_cls-8,.BUNTAI_MEERKAT_BODY_MEERKAT_BODY_39_cls-9{fill:none;stroke:#000;stroke-linecap:round;}.BUNTAI_MEERKAT_BODY_MEERKAT_BODY_39_cls-10,.BUNTAI_MEERKAT_BODY_MEERKAT_BODY_39_cls-11,.BUNTAI_MEERKAT_BODY_MEERKAT_BODY_39_cls-6{stroke-linejoin:round;}.BUNTAI_MEERKAT_BODY_MEERKAT_BODY_39_cls-6,.BUNTAI_MEERKAT_BODY_MEERKAT_BODY_39_cls-9{stroke-width:2px;}.BUNTAI_MEERKAT_BODY_MEERKAT_BODY_39_cls-7{fill:#b91720;}.BUNTAI_MEERKAT_BODY_MEERKAT_BODY_39_cls-8,.BUNTAI_MEERKAT_BODY_MEERKAT_BODY_39_cls-9{stroke-miterlimit:10;}.BUNTAI_MEERKAT_BODY_MEERKAT_BODY_39_cls-8{stroke-width:2.58px;}.BUNTAI_MEERKAT_BODY_MEERKAT_BODY_39_cls-11{stroke-width:2.11px;}.BUNTAI_MEERKAT_BODY_MEERKAT_BODY_39_cls-12{opacity:0.43;mix-blend-mode:multiply;}.BUNTAI_MEERKAT_BODY_MEERKAT_BODY_39_cls-13{opacity:0.5;}</style>
  </defs>
  <g class="BUNTAI_MEERKAT_BODY_MEERKAT_BODY_39_cls-1">
    <g id="body">
      <path class="BUNTAI_MEERKAT_BODY_MEERKAT_BODY_39_cls-2" d="M232.13,274.41c-5.07-2.53-18.79-.87-20.19,0s-5.32,7-6.15,11.79a12.62,12.62,0,0,0-.14,1.32,13.61,13.61,0,0,0,2.13,6.57c2.17,3.81,5.59,7.44,8.22,8.2a92.59,92.59,0,0,0,14.55.43s4.48-1.45,7.21-7.42a22.6,22.6,0,0,0,1.83-6.76,31.09,31.09,0,0,0,.23-4.34S237.19,277,232.13,274.41Z" />
      <path class="BUNTAI_MEERKAT_BODY_MEERKAT_BODY_39_cls-2" d="M123.72,185.11c-5.94,14.91-4.31,23.18-1.52,34.25a42.88,42.88,0,0,0,10.37,18.4c2.14-3.56.47-13.39.47-13.39l2.45,1,.81-14.33,2.91,7.46s5.13-10,4.9-19.81C135.72,185.69,123.72,185.11,123.72,185.11Z" />
      <path class="BUNTAI_MEERKAT_BODY_MEERKAT_BODY_39_cls-2" d="M307.88,182.48h0s-3.93,17.3-10.45,26.16c.11,15,2.85,19.19,2.85,19.19l3.41-6-.52,7.43,1.92,2.35c4-4.37,8-16.6,8-28.14S309.37,183.27,307.88,182.48Z" />
      <path class="BUNTAI_MEERKAT_BODY_MEERKAT_BODY_39_cls-2" d="M283.59,203.81c-30.32-2.45-42.73,13.54-43.69,20.71-.89,6.64,3.25,15.76,10.06,23.33a69.6,69.6,0,0,1,8,1.14c7.78,1.66,11.36-.27,11.36-4.29s8.12-9.61,13.63-18.52S286.39,204.42,283.59,203.81Z" />
      <path class="BUNTAI_MEERKAT_BODY_MEERKAT_BODY_39_cls-2" d="M207.4,224.52c-1-7.17-13.37-23.16-43.69-20.71-2.8.61-4.89,13.46.61,22.37S178,240.68,178,244.7s3.58,6,11.36,4.29a69.6,69.6,0,0,1,8-1.14C204.15,240.28,208.29,231.16,207.4,224.52Z" />
      <path class="BUNTAI_MEERKAT_BODY_MEERKAT_BODY_39_cls-3" d="M296.74,464.2H71.3C72.61,436.34,75,408.1,84.69,382s23.67-45.88,47.65-60.39c7.43-5.15,12.58-8.43,16.69-18.7-2.62-4.89-3.85-14.68-3.85-14.68l3.85.26c-1.33-3.66-4.15-17.66-5.61-25.19l1.68,1.43c8.39,7.25,19.57,12.84,26.39,17.56,5.32,3.69,19.92,12.7,28.1,18.14,2.29,1.52,4.07,2.76,5,3.53a50.15,50.15,0,0,0,8.57,5.59,84.19,84.19,0,0,0,13.19.59c4.66-.18,9.58-.9,12.93-2.77,4.67-2.6,7.48-5.57,11.33-9.14a83.19,83.19,0,0,1,12.21-9.53c3.89-2.51,7.23-4.6,10.1-6.39-6.92,11.93-7,18.68-7,18.68s2.62-.88,5-1.58c-1.31,3.15-4.19,9.18-1.92,13.37s8.83,8.74,14.59,12.58c21,14.77,25.85,20.1,34.63,35.53C328,378.12,329.8,398,331.39,417.31q1.91,23.44,3.84,46.89H296.74Z" />
      <path class="BUNTAI_MEERKAT_BODY_MEERKAT_BODY_39_cls-3" d="M307.88,182.48c-1.48-.78-12-.52-15.9-5.85s-13.28-19.14-31.63-24.29-33.29-1.66-38.36-2c0,0-22.89-5.94-41.07,2.44S154.13,173.22,142.83,178s-16.32,4.19-19.11,7.1h0s12,.58,20.39,13.63c.23,9.79-4.9,19.81-4.9,19.81l-2.91-7.46-.81,14.33-2.45-1s1.67,9.83-.47,13.39h0c-.16.29-3,5.73-5.24,6.87,2.45,1.28,3.09,1.57,3.09,1.57S127.16,251.4,126,253c5.59,1.29,10.06,4,17.43,10.24h0l1.68,1.43c8.39,7.25,19.57,12.84,26.39,17.56,5.32,3.69,19.92,12.7,28.1,18.14,2.29,1.52,4.07,2.76,5,3.53a50.15,50.15,0,0,0,8.57,5.59,84.19,84.19,0,0,0,13.19.59c4.66-.18,9.58-.9,12.93-2.77,4.67-2.6,7.48-5.57,11.33-9.14a83.19,83.19,0,0,1,12.21-9.53c3.89-2.51,7.23-4.6,10.1-6.39,6.59-4.13,10.71-6.71,13.31-9.22l3.73-3.62s10-14.79,12.67-20.38,3.85-7.61,3.85-7.61l-5-2.09s2.62-5.32,3.59-7.77h0l-1.92-2.35.52-7.43-3.41,6s-2.74-4.17-2.85-19.19c6.52-8.86,10.45-26.16,10.45-26.16Zm-95.94,91.93c1.4-.87,15.12-2.53,20.19,0s7.69,9.79,7.69,9.79a31.09,31.09,0,0,1-.23,4.34,22.6,22.6,0,0,1-1.83,6.76c-2.73,6-7.21,7.42-7.21,7.42a92.59,92.59,0,0,1-14.55-.43c-2.63-.76-6.05-4.39-8.22-8.2a13.61,13.61,0,0,1-2.13-6.57,12.62,12.62,0,0,1,.14-1.32C206.62,281.41,210.66,275.21,211.94,274.41Zm-14.6-26.56a69.6,69.6,0,0,0-8,1.14c-7.78,1.66-11.36-.27-11.36-4.29s-8.12-9.61-13.63-18.52-3.41-21.76-.61-22.37c30.32-2.45,42.73,13.54,43.69,20.71C208.29,231.16,204.15,240.28,197.34,247.85ZM283,226.18c-5.51,8.91-13.63,14.5-13.63,18.52s-3.58,6-11.36,4.29a69.6,69.6,0,0,0-8-1.14c-6.81-7.57-11-16.69-10.06-23.33,1-7.17,13.37-23.16,43.69-20.71C286.39,204.42,288.48,217.27,283,226.18Z" />
      <path class="BUNTAI_MEERKAT_BODY_MEERKAT_BODY_39_cls-4" d="M265.94,374.19s-.79,25.17-4.28,33.56l4.28-4.2s-1.95,23.42-4.17,33l4.08-5.82s-1.74,24.48-7.34,33.5H179.13c-5.59-9-7.34-33.5-7.34-33.5l4.08,5.82c-2.21-9.55-4.17-33-4.17-33l4.29,4.2c-3.5-8.39-4.29-33.56-4.29-33.56l4.1,3.59s-4.2-25.49-4.89-38.19c1.28,0,5.24,2.1,5.24,2.1s-1.17-3.26-5.13-15c-2.33-15.5-.17-44.83-.17-44.83s24.37,15.72,32.36,20.54,7.51,6.94,17.47,7.42,16,0,22.27-4.79,10.9-9.67,21.56-17.4c-7.81,12.94-2.61,13.19-2.86,23.91s-4.18,28.43-4.18,28.43l9.55-9.79c-.92,8.73-7.28,29.24-7.45,29.82.11-.08,2.1-1.58,9.38-7.45-1.14,6.29-3.74,15.46-6.7,24.91Z" />
      <path class="BUNTAI_MEERKAT_BODY_MEERKAT_BODY_39_cls-5" d="M192.37,216C184,211.67,174,216,174,216s-1.66,21.93,24.82,17.91C198.84,233.87,200.76,220.24,192.37,216Z" />
      <path class="BUNTAI_MEERKAT_BODY_MEERKAT_BODY_39_cls-5" d="M274.14,216s-10-4.29-18.35,0-6.47,17.91-6.47,17.91C275.8,237.89,274.14,216,274.14,216Z" />
      <path class="BUNTAI_MEERKAT_BODY_MEERKAT_BODY_39_cls-6" d="M198.84,233.87s1.92-13.63-6.47-17.91S174,216,174,216,172.36,237.89,198.84,233.87Z" />
      <path class="BUNTAI_MEERKAT_BODY_MEERKAT_BODY_39_cls-7" d="M187.45,215.12a8,8,0,1,0,8.24,8A8.14,8.14,0,0,0,187.45,215.12Z" />
      <ellipse cx="187.45" cy="223.16" rx="3.98" ry="3.89" />
      <ellipse class="BUNTAI_MEERKAT_BODY_MEERKAT_BODY_39_cls-5" cx="189.79" cy="219.72" rx="1.81" ry="1.77" />
      <ellipse class="BUNTAI_MEERKAT_BODY_MEERKAT_BODY_39_cls-8" cx="187.45" cy="223.16" rx="8.24" ry="8.04" />
      <path class="BUNTAI_MEERKAT_BODY_MEERKAT_BODY_39_cls-6" d="M249.32,233.87s-1.92-13.63,6.47-17.91,18.35,0,18.35,0S275.8,237.89,249.32,233.87Z" />
      <path class="BUNTAI_MEERKAT_BODY_MEERKAT_BODY_39_cls-7" d="M260.71,215.12a8,8,0,1,1-8.24,8A8.14,8.14,0,0,1,260.71,215.12Z" />
      <ellipse cx="260.71" cy="223.16" rx="3.98" ry="3.89" />
      <ellipse class="BUNTAI_MEERKAT_BODY_MEERKAT_BODY_39_cls-5" cx="262.88" cy="219.72" rx="1.81" ry="1.77" />
      <ellipse class="BUNTAI_MEERKAT_BODY_MEERKAT_BODY_39_cls-8" cx="260.71" cy="223.16" rx="8.24" ry="8.04" />
      <path d="M214.91,290.24c-3.1-.3-6.6-2.31-9.12-4a12.62,12.62,0,0,0-.14,1.32,13.61,13.61,0,0,0,2.13,6.57c3,1.21,6.2,1.91,8.15,1.5C220,294.71,220.5,290.78,214.91,290.24Z" />
      <path d="M234.39,290.24c-5.6.54-5.13,4.47-1,5.35a10.9,10.9,0,0,0,4.39-.29,29.75,29.75,0,0,0,1.83-7.69C237.89,288.47,236.07,290.07,234.39,290.24Z" />
      <path class="BUNTAI_MEERKAT_BODY_MEERKAT_BODY_39_cls-9" d="M223.65,302.81s.48-5.64.57-9.09" />
      <path class="BUNTAI_MEERKAT_BODY_MEERKAT_BODY_39_cls-10" d="M199,276.8s-38.73,2.4-80.2,22.64-42.18,22.43-42.18,22.43" />
      <path class="BUNTAI_MEERKAT_BODY_MEERKAT_BODY_39_cls-10" d="M197.18,281.84s-57.67,17-98.39,55.31" />
      <path class="BUNTAI_MEERKAT_BODY_MEERKAT_BODY_39_cls-10" d="M195.08,286.2s-36.87,26.48-64,63.88" />
      <path class="BUNTAI_MEERKAT_BODY_MEERKAT_BODY_39_cls-10" d="M195.69,272.31s-56.53-5.06-98.3-.87" />
      <path class="BUNTAI_MEERKAT_BODY_MEERKAT_BODY_39_cls-10" d="M248.23,276.8s38.72,2.4,80.2,22.64,42.17,22.43,42.17,22.43" />
      <path class="BUNTAI_MEERKAT_BODY_MEERKAT_BODY_39_cls-10" d="M250.08,281.84s57.67,17,98.39,55.31" />
      <path class="BUNTAI_MEERKAT_BODY_MEERKAT_BODY_39_cls-10" d="M252.18,286.2s36.87,26.48,64,63.88" />
      <path class="BUNTAI_MEERKAT_BODY_MEERKAT_BODY_39_cls-10" d="M251.56,272.31s56.54-5.06,98.31-.87" />
      <path class="BUNTAI_MEERKAT_BODY_MEERKAT_BODY_39_cls-6" d="M132.57,237.76a42.88,42.88,0,0,1-10.37-18.4c-2.79-11.07-4.42-19.34,1.52-34.25h0c2.79-2.91,7.8-2.33,19.11-7.1s19.92-16.84,38.09-25.23S222,150.33,222,150.33c5.07.35,20-3.15,38.36,2s27.7,19,31.63,24.29,14.42,5.07,15.9,5.85,5.16,9.44,5.16,21-3.93,23.77-8,28.14" />
      <path class="BUNTAI_MEERKAT_BODY_MEERKAT_BODY_39_cls-6" d="M143.42,263.27C136.05,257,131.58,254.32,126,253c1.17-1.63,4.43-6.82,4.43-6.82s-.64-.29-3.09-1.57c2.21-1.14,5.08-6.58,5.24-6.87" />
      <path class="BUNTAI_MEERKAT_BODY_MEERKAT_BODY_39_cls-6" d="M305.09,231.6c-1,2.45-3.59,7.77-3.59,7.77l5,2.09s-1.14,2-3.85,7.61S290,269.45,290,269.45l-3.73,3.62c-2.6,2.51-6.72,5.09-13.31,9.22-2.87,1.79-6.21,3.88-10.1,6.39a83.19,83.19,0,0,0-12.21,9.53c-3.85,3.57-6.66,6.54-11.33,9.14-3.35,1.87-8.27,2.59-12.93,2.77a84.19,84.19,0,0,1-13.19-.59,50.15,50.15,0,0,1-8.57-5.59c-.94-.77-2.72-2-5-3.53-8.18-5.44-22.78-14.45-28.1-18.14-6.82-4.72-18-10.31-26.39-17.56l-1.68-1.43" />
      <path class="BUNTAI_MEERKAT_BODY_MEERKAT_BODY_39_cls-6" d="M123.72,185.11s12,.58,20.39,13.63c.23,9.79-4.9,19.81-4.9,19.81l-2.91-7.46-.81,14.33-2.45-1s1.67,9.83-.47,13.39h0" />
      <path class="BUNTAI_MEERKAT_BODY_MEERKAT_BODY_39_cls-6" d="M305.09,231.6h0l-1.92-2.35.52-7.43-3.41,6s-2.74-4.17-2.85-19.19c6.52-8.86,10.45-26.16,10.45-26.16" />
      <path class="BUNTAI_MEERKAT_BODY_MEERKAT_BODY_39_cls-6" d="M143.42,263.26h0c1.46,7.53,4.28,21.53,5.61,25.19l-3.85-.26s1.23,9.79,3.85,14.68c-4.11,10.27-9.26,13.55-16.69,18.7" />
      <path class="BUNTAI_MEERKAT_BODY_MEERKAT_BODY_39_cls-6" d="M273,282.26l0,0c-6.92,11.93-7,18.68-7,18.68s2.62-.88,5-1.58c-1.31,3.15-4.19,9.18-1.92,13.37s8.83,8.74,14.59,12.58" />
      <path class="BUNTAI_MEERKAT_BODY_MEERKAT_BODY_39_cls-6" d="M226.36,310.12s-3.67,14.27-4.19,19.34c4.19,4.19,8,3.49,8,3.49s-.7,11-4,14.16l5.94,2.53a188.5,188.5,0,0,0-9.53,27.79" />
      <path class="BUNTAI_MEERKAT_BODY_MEERKAT_BODY_39_cls-9" d="M239.82,284.2a31.09,31.09,0,0,1-.23,4.34,22.6,22.6,0,0,1-1.83,6.76c-2.73,6-7.21,7.42-7.21,7.42a92.59,92.59,0,0,1-14.55-.43c-2.63-.76-6.05-4.39-8.22-8.2a13.61,13.61,0,0,1-2.13-6.57,12.62,12.62,0,0,1,.14-1.32c.83-4.79,4.87-11,6.15-11.79s15.12-2.53,20.19,0S239.82,284.2,239.82,284.2Z" />
      <path class="BUNTAI_MEERKAT_BODY_MEERKAT_BODY_39_cls-9" d="M197.34,247.85c-.53.59-1.08,1.18-1.65,1.75-7.78,7.86-15.55,12.67-11.19,28.31,2.59,9.29,10.27,16.63,17.7,21.32,5.07,3.21,10,5.18,13.15,5.68,7.69,1.22,8.3-1.66,8.3-1.66" />
      <path class="BUNTAI_MEERKAT_BODY_MEERKAT_BODY_39_cls-9" d="M197.34,247.85a69.6,69.6,0,0,0-8,1.14c-7.78,1.66-11.36-.27-11.36-4.29s-8.12-9.61-13.63-18.52-3.41-21.76-.61-22.37c30.32-2.45,42.73,13.54,43.69,20.71C208.29,231.16,204.15,240.28,197.34,247.85Z" />
      <path class="BUNTAI_MEERKAT_BODY_MEERKAT_BODY_39_cls-9" d="M250,247.85c-6.81-7.57-11-16.69-10.06-23.33,1-7.17,13.37-23.16,43.69-20.71,2.8.61,4.89,13.46-.61,22.37s-13.63,14.5-13.63,18.52-3.58,6-11.36,4.29A69.6,69.6,0,0,0,250,247.85Z" />
      <path class="BUNTAI_MEERKAT_BODY_MEERKAT_BODY_39_cls-9" d="M223.65,303.25s.61,2.88,8.3,1.66c3.84-.62,10.46-3.46,16.67-8.1s12-11.08,14.18-18.9c4.36-15.64-3.41-20.45-11.19-28.31-.57-.57-1.12-1.16-1.65-1.75" />
      <path class="BUNTAI_MEERKAT_BODY_MEERKAT_BODY_39_cls-11" d="M132.34,321.59c-24,14.51-37.91,34.26-47.65,60.39S72.61,436.34,71.3,464.2H335.23q-1.92-23.46-3.84-46.89c-1.59-19.3-3.35-39.19-13.17-56.44-8.78-15.43-13.61-20.76-34.63-35.53" />
      <path class="BUNTAI_MEERKAT_BODY_MEERKAT_BODY_39_cls-6" d="M118,464.2a163.37,163.37,0,0,0-5-51.1" />
      <path class="BUNTAI_MEERKAT_BODY_MEERKAT_BODY_39_cls-6" d="M296.74,464.2a163.37,163.37,0,0,1,5-51.1" />
      <g class="BUNTAI_MEERKAT_BODY_MEERKAT_BODY_39_cls-12">
        <path class="BUNTAI_MEERKAT_BODY_MEERKAT_BODY_39_cls-13" d="M301.5,239.38s-6.52,11-16.07,16.68c4.43-4.66,5-7.34,5-7.34S274.25,264,263.53,268.64a31.48,31.48,0,0,1-23.71,15.56c-10.78,5.06-25.29,2.85-34.17-.64-10.05-1.52-16.64-5.71-21.5-21.67-9.05-.82-23.73-4-28.51-10.72s-16.77-12.11-28.31-6.52c2.46,1.26,2.48,1.67,2.48,1.67l-3.57,6.36s4.46.38,14.81,8.64,24.47,17.29,38.58,26.29,33.16,21.73,33.16,21.73S230,311.51,238,308s15.69-13.26,25.32-19.49,20.27-12,25.65-18.07,17.52-29,17.52-29Z" />
        <path d="M143.64,198.8s-15.45-8.86-23.68-4.37c-.43,12.82-1,18.17,3.64,29.13s8.54,13.31,8.54,13.31,2.07-4.58,1-12.09l2.27.76.7-13,3.17,5.3S144.28,210.33,143.64,198.8Z" />
        <path d="M311.88,192.32s-4.32,14-14.95,17.44c.73,12.84,3.6,17.64,3.6,17.64l2.51-3.93.14,5.59,2.39,2.54s5.9-12.76,6.9-20.91S311.88,192.32,311.88,192.32Z" />
        <path class="BUNTAI_MEERKAT_BODY_MEERKAT_BODY_39_cls-13" d="M174,216l-5.5-2.89s.87,17,8.62,20.62,21.25.24,21.25.24-8,1.51-15.11-1.64S174.05,219.83,174,216Z" />
        <path class="BUNTAI_MEERKAT_BODY_MEERKAT_BODY_39_cls-13" d="M274.12,216l5.51-2.89s-.87,17-8.62,20.62-21.25.24-21.25.24,8,1.51,15.11-1.64S274.1,219.83,274.12,216Z" />
        <path d="M104.38,375.72s1.65,21.65,3.67,34.48L97.92,392.9h0s4.54,36.52,3.32,45.61H115.8S115.21,404.32,104.38,375.72Z" />
        <path d="M226.48,346.8l4,2.58-7.06.35-22.55,1.1-.46,5.77s-.47,1.17-14.1-1.44A73.5,73.5,0,0,1,159,339.31l6.4-21.17-3.85-15.33s6.88,5.68,9.09,8.82a107.48,107.48,0,0,1-4.19-31.69l19.22,12.47L217,308.14l8.45.17-3.32,21.15s4.29,3,7.69,3.53A36.87,36.87,0,0,1,226.48,346.8Z" />
        <path d="M231.6,350.08l0,.08-1-.77Z" />
        <path d="M142.14,262.18s5.23,22,6.89,26.3a34.6,34.6,0,0,1-4.91-.53s.46,3.8,4.91,11.38,18.61,22.27,18.61,22.27l13.46-7.87s-5.81-18.81-7.1-22.07-4.06-13.58-4.06-13.58Z" />
        <path class="BUNTAI_MEERKAT_BODY_MEERKAT_BODY_39_cls-13" d="M215.13,149.07s-25,.86-45.86,18-28.58,21.26-34.62,22.51c-9.14-4.45-10.93-5-10.93-5s2.91-1.69,12-4.37,13.19-6.42,25.5-15S185.5,144.61,215.13,149.07Z" />
        <path class="BUNTAI_MEERKAT_BODY_MEERKAT_BODY_39_cls-13" d="M132.34,239.38a38.68,38.68,0,0,1,15.58,0,25.7,25.7,0,0,0-14.54-4Z" />
        <path d="M103.75,430.35l-2.51,8.16L99.79,464.2H118s1.48-27.22-5-51.1A79.54,79.54,0,0,1,103.75,430.35Z" />
        <path d="M182.1,319.67S169.17,347.81,159,363s-11.88,20.62-11.88,20.62L148,374s-10.27,21.85-16,40.37-11,49.11-11,49.11l-49.64.7s.36-39.6,7.34-62.13,14-44.77,32.79-64.11c14.47-12.17,28-20.21,32.77-26.37s4.83-8.7,4.83-8.7l-2.72-8.7,5.82,3.46Z" />
        <path d="M296.74,464.2a204.17,204.17,0,0,1,7.63-60.64c-3.49,41.47-2.6,42.52-2.6,42.52s.39-4.78,4.47-15.61c-2.22,22.72,0,33.32,0,33.32Z" />
      </g>
    </g>
  </g>
</svg>