<svg xmlns="http://www.w3.org/2000/svg" viewBox="0 0 432 432">
  <defs>
    <style>.BUNTAI_MEERKAT_BODY_MEERKAT_BODY_19_cls-1{isolation:isolate;}.BUNTAI_MEERKAT_BODY_MEERKAT_BODY_19_cls-2{fill:#1a1a1a;}.BUNTAI_MEERKAT_BODY_MEERKAT_BODY_19_cls-3{fill:#c5aa8c;}.BUNTAI_MEERKAT_BODY_MEERKAT_BODY_19_cls-4{fill:#fff;}.BUNTAI_MEERKAT_BODY_MEERKAT_BODY_19_cls-10,.BUNTAI_MEERKAT_BODY_MEERKAT_BODY_19_cls-5,.BUNTAI_MEERKAT_BODY_MEERKAT_BODY_19_cls-7,.BUNTAI_MEERKAT_BODY_MEERKAT_BODY_19_cls-8,.BUNTAI_MEERKAT_BODY_MEERKAT_BODY_19_cls-9{fill:none;stroke:#000;stroke-linecap:round;}.BUNTAI_MEERKAT_BODY_MEERKAT_BODY_19_cls-10,.BUNTAI_MEERKAT_BODY_MEERKAT_BODY_19_cls-5,.BUNTAI_MEERKAT_BODY_MEERKAT_BODY_19_cls-9{stroke-linejoin:round;}.BUNTAI_MEERKAT_BODY_MEERKAT_BODY_19_cls-5,.BUNTAI_MEERKAT_BODY_MEERKAT_BODY_19_cls-8{stroke-width:2px;}.BUNTAI_MEERKAT_BODY_MEERKAT_BODY_19_cls-6{fill:#788200;}.BUNTAI_MEERKAT_BODY_MEERKAT_BODY_19_cls-7,.BUNTAI_MEERKAT_BODY_MEERKAT_BODY_19_cls-8{stroke-miterlimit:10;}.BUNTAI_MEERKAT_BODY_MEERKAT_BODY_19_cls-7{stroke-width:2.58px;}.BUNTAI_MEERKAT_BODY_MEERKAT_BODY_19_cls-10{stroke-width:2.11px;}.BUNTAI_MEERKAT_BODY_MEERKAT_BODY_19_cls-11{opacity:0.43;mix-blend-mode:multiply;}.BUNTAI_MEERKAT_BODY_MEERKAT_BODY_19_cls-12{opacity:0.5;}</style>
  </defs>
  <g class="BUNTAI_MEERKAT_BODY_MEERKAT_BODY_19_cls-1">
    <g id="body">
      <path class="BUNTAI_MEERKAT_BODY_MEERKAT_BODY_19_cls-2" d="M232.13,274.41c-5.07-2.53-18.79-.87-20.19,0s-5.32,7-6.15,11.79a12.62,12.62,0,0,0-.14,1.32,13.61,13.61,0,0,0,2.13,6.57c2.17,3.81,5.59,7.44,8.22,8.2a92.59,92.59,0,0,0,14.55.43s4.48-1.45,7.21-7.42a22.6,22.6,0,0,0,1.83-6.76,31.09,31.09,0,0,0,.23-4.34S237.19,277,232.13,274.41Z" />
      <path class="BUNTAI_MEERKAT_BODY_MEERKAT_BODY_19_cls-2" d="M123.72,185.11c-5.94,14.91-4.31,23.18-1.52,34.25a42.88,42.88,0,0,0,10.37,18.4c2.14-3.56.47-13.39.47-13.39l2.45,1,.81-14.33,2.91,7.46s5.13-10,4.9-19.81C135.72,185.69,123.72,185.11,123.72,185.11Z" />
      <path class="BUNTAI_MEERKAT_BODY_MEERKAT_BODY_19_cls-2" d="M307.88,182.48h0s-3.93,17.3-10.45,26.16c.11,15,2.85,19.19,2.85,19.19l3.41-6-.52,7.43,1.92,2.35c4-4.37,8-16.6,8-28.14S309.37,183.27,307.88,182.48Z" />
      <path class="BUNTAI_MEERKAT_BODY_MEERKAT_BODY_19_cls-2" d="M283.59,203.81c-30.32-2.45-42.73,13.54-43.69,20.71-.89,6.64,3.25,15.76,10.06,23.33a69.6,69.6,0,0,1,8,1.14c7.78,1.66,11.36-.27,11.36-4.29s8.12-9.61,13.63-18.52S286.39,204.42,283.59,203.81Z" />
      <path class="BUNTAI_MEERKAT_BODY_MEERKAT_BODY_19_cls-2" d="M207.4,224.52c-1-7.17-13.37-23.16-43.69-20.71-2.8.61-4.89,13.46.61,22.37S178,240.68,178,244.7s3.58,6,11.36,4.29a69.6,69.6,0,0,1,8-1.14C204.15,240.28,208.29,231.16,207.4,224.52Z" />
      <path class="BUNTAI_MEERKAT_BODY_MEERKAT_BODY_19_cls-3" d="M307.88,182.48c-1.48-.78-12-.52-15.9-5.85s-13.28-19.14-31.63-24.29-33.29-1.66-38.36-2l-.36-.09-.38-.09-.69-.15-.71-.14-.7-.14-1.17-.21c-.42-.08-.87-.15-1.35-.22l-1.12-.17-.38-.05h0l-.27,0q-.69-.1-1.44-.18c-.71-.08-1.46-.16-2.24-.23-.57-.06-1.16-.1-1.76-.14l-1-.06c-.54,0-1.1-.06-1.67-.08s-.85,0-1.28,0a68.39,68.39,0,0,0-8.69.34c-.84.09-1.69.19-2.55.31-1.65.24-3.32.56-5,1-.86.2-1.72.43-2.57.69a42.65,42.65,0,0,0-5.76,2.16c-.57.26-1.13.53-1.68.8l-1.18.59-.69.36c-.45.23-.89.46-1.32.7s-1,.56-1.52.85-1,.57-1.48.86l-1,.62-.06,0c-1.13.71-2.22,1.42-3.28,2.14-.37.24-.74.49-1.1.75-2.27,1.58-4.37,3.17-6.36,4.74l0,0c-2.15,1.69-4.17,3.33-6.12,4.88l-1.95,1.52c-1.61,1.22-3.19,2.37-4.78,3.39l-.94.59c-.34.21-.69.41-1,.6a32.32,32.32,0,0,1-3.53,1.77c-1.08.46-2.11.86-3.08,1.23-.54.21-1.07.4-1.58.58l-.21.07c-.59.21-1.15.4-1.69.57l-.81.26-.77.24-1.11.33-.35.1-1.34.38-.63.17-.6.16c-1.38.37-2.55.69-3.55,1-.37.14-.73.27-1.06.42l-.14.06a6.54,6.54,0,0,0-.59.3.67.67,0,0,0-.12.06l-.49.31a5.3,5.3,0,0,0-.6.46,4.59,4.59,0,0,0-.39.37h0a15,15,0,0,1,2,.3h.06l.43.09.9.23a24.2,24.2,0,0,1,3.4,1.19l.57.25.64.3c.46.22.93.46,1.42.73s.85.5,1.29.78l.7.46a25.45,25.45,0,0,1,2.85,2.18c.2.16.39.33.58.51a28.44,28.44,0,0,1,2.83,2.94c.19.22.37.44.55.67s.53.66.78,1l.49.66c.3.42.6.86.89,1.32,0,.22,0,.45,0,.67s0,.67,0,1,0,.51,0,.76,0,.55-.05.82c-.07.72-.15,1.44-.25,2.14-.06.34-.11.68-.17,1-.2,1.13-.44,2.23-.7,3.28-.16.64-.33,1.25-.5,1.85-.27.91-.55,1.77-.82,2.57s-.54,1.49-.8,2.13c0,0,0,0,0,0-.16.41-.31.79-.46,1.14l-.28.65c-.48,1.11-.81,1.75-.81,1.75l-1-2.61h0l-1.89-4.84-.09,1.53h0l-.72,12.79-.05,0-2.4-1s0,.09,0,.25,0,.15,0,.24,0,.4.09.66c0,.11,0,.23,0,.36a.11.11,0,0,1,0,.05q0,.33.09.72l0,.26c0,.06,0,.12,0,.18a.38.38,0,0,0,0,.1l0,.35c.05.46.09.94.12,1.45,0,.11,0,.22,0,.33,0,.32,0,.66,0,1,0,.11,0,.22,0,.33,0,.34,0,.69,0,1a25.63,25.63,0,0,1-.15,2.81c0,.29-.08.58-.13.86h0v0s0,0,0,.07-.05.24-.08.36l-.06.26-.09.34-.12.35,0,.09a4.08,4.08,0,0,1-.17.42c-.08.17-.16.32-.24.46h0c-.16.29-3,5.73-5.24,6.87a0,0,0,0,1,0,0l.43.22h0l.85.44.75.38.71.35.25.13.08,0s-.54.86-1.26,2a2,2,0,0,1-.17.27l-.35.55a3.23,3.23,0,0,1-.18.28c-.08.14-.17.27-.26.41l-.11.17c-.12.19-.24.38-.37.57-.52.81-1,1.58-1.42,2.15L126,253c.39.09.78.19,1.16.3s.82.23,1.22.37.7.23,1,.36l.87.34.47.2.66.31a7.92,7.92,0,0,1,.72.35c.29.14.58.29.88.46.68.36,1.36.77,2.07,1.22l.31.2q.63.41,1.29.87c.27.19.55.38.83.59l.64.47c.34.24.69.5,1,.79l.45.35.47.36.53.42.42.33.36.29.74.61h0c.41.33.82.68,1.25,1h0l1.68,1.43c1.24,1.07,2.55,2.11,3.89,3.11.4.31.81.61,1.22.9.59.43,1.19.85,1.79,1.26,3.44,2.38,7,4.55,10.35,6.57l1.69,1,.18.11.05,0,3.13,1.91,0,0c.45.27.89.55,1.31.82l.72.46.83.53a.59.59,0,0,0,.11.08l.44.29h0l.13.09h0s0,0,0,0l.18.12.3.22.53.36.5.35c1.61,1.08,3.76,2.48,6.2,4l1.39.89.06,0,.39.25.41.26,1.49,1,1,.64,3.63,2.3h0l.39.26,2,1.29L191.3,295l1.36.87h0l1.75,1.12,2.77,1.8,1.43.94,1,.64,1.46,1,.67.46c1,.71,1.9,1.33,2.52,1.81l0,0c.11.08.22.16.31.24a50.37,50.37,0,0,0,6.47,4.44l.29.17c.55.32,1,.56,1.31.71l.12.08h0a.7.7,0,0,0,.14.08l.21.11.82.1.44.05.81.08.67.06,1.8.15.52,0,.78.05h.1c1.81.1,3.9.15,6.09.1.39,0,.77,0,1.16,0l1.29-.07c.25,0,.5,0,.75-.05.49,0,1-.08,1.47-.13H230l1.43-.17c.19,0,.37-.05.55-.09.4-.06.79-.12,1.17-.2l.52-.1c.34-.07.68-.14,1-.23l1.09-.29.12,0a18.1,18.1,0,0,0,2.77-1.05c.23-.11.44-.22.65-.34s.54-.3.8-.46l.36-.21.88-.56.25-.16.91-.63.72-.53c.3-.23.6-.46.89-.7l.13-.1c2.17-1.75,4.1-3.66,6.39-5.79,1.39-1.29,2.91-2.66,4.72-4.12.18-.15.36-.3.55-.44a6.26,6.26,0,0,1,.57-.45l.58-.45.61-.46c.41-.31.83-.62,1.27-.93q1.77-1.31,3.91-2.68l1.68-1.08.7-.45,2.11-1.34,2-1.25,1.39-.87,1.14-.71,1.1-.69L275,281c2-1.26,3.74-2.37,5.26-3.38l.84-.56c.82-.55,1.57-1.08,2.25-1.58.51-.38,1-.75,1.43-1.12.16-.13.33-.26.49-.41.35-.3.68-.59,1-.89.67-.65,1.21-1.18,1.66-1.6l.29-.29.78-.75.09-.1.18-.17.17-.17.07-.06.18-.18.31-.3s.55-.81,1.42-2.13l.56-.85a.22.22,0,0,0,.05-.08c.09-.12.17-.25.25-.38.31-.46.63-.94.95-1.44.5-.76,1-1.58,1.59-2.44l.5-.77c1.92-3,4-6.31,5.56-9,.1-.16.19-.32.27-.47.62-1.08,1.14-2,1.52-2.82.85-1.75,1.54-3.15,2.09-4.25l.46-.91.27-.51.12-.24.1-.17,0-.07.39-.74.14-.26.25-.46-5-2.08h0s2.62-5.32,3.59-7.77h0l-1.92-2.35v-.18l.51-7.25-3.16,5.59-.25.44a4.38,4.38,0,0,1-.31-.62l-.13-.3a16.59,16.59,0,0,1-.73-2.23c-.05-.18-.1-.38-.15-.58-.18-.72-.36-1.55-.53-2.52,0-.16-.06-.32-.08-.49-.06-.34-.12-.69-.17-1.06a1.13,1.13,0,0,0,0-.18c-.24-1.77-.46-3.9-.58-6.43,0-.28,0-.56,0-.84s0-.82,0-1.25,0-.86,0-1.31c0-.15,0-.3,0-.46s0-.61,0-.92c6.52-8.86,10.45-26.16,10.45-26.16ZM197.34,247.85a69.6,69.6,0,0,0-8,1.14c-7.78,1.66-11.36-.27-11.36-4.29s-8.12-9.61-13.63-18.52-3.41-21.76-.61-22.37c30.32-2.45,42.73,13.54,43.69,20.71C208.29,231.16,204.15,240.28,197.34,247.85Zm42.56-23.33c1-7.17,13.37-23.16,43.69-20.71,2.8.61,4.89,13.46-.61,22.37s-13.63,14.5-13.63,18.52-3.58,6-11.36,4.29a69.6,69.6,0,0,0-8-1.14C243.15,240.28,239,231.16,239.9,224.52Zm-7.77,49.89c5.06,2.54,7.69,9.79,7.69,9.79a31.09,31.09,0,0,1-.23,4.34,23.43,23.43,0,0,1-.9,4.29c-.07.26-.16.5-.24.74a14.13,14.13,0,0,1-.54,1.38l-.15.35c-2.73,6-7.21,7.42-7.21,7.42s-3.06.17-6.9.09l-.75,0-.71,0-1,0c-.77,0-1.55-.08-2.32-.14-.56,0-1.11-.09-1.66-.15l-1.22-.15c-2.63-.76-6.05-4.39-8.22-8.2a13.61,13.61,0,0,1-2.13-6.57,12.62,12.62,0,0,1,.14-1.32c0-.26.1-.53.17-.8s.16-.64.26-1,.1-.34.16-.51a.16.16,0,0,1,0-.09,25.47,25.47,0,0,1,1.35-3.26c.15-.3.3-.61.46-.9.31-.6.64-1.16,1-1.69l.24-.39.28-.45c.11-.17.22-.34.33-.49s.17-.25.25-.37.33-.45.49-.65a5.6,5.6,0,0,1,1.17-1.23C213.34,273.54,227.06,271.88,232.13,274.41Z" />
      <path class="BUNTAI_MEERKAT_BODY_MEERKAT_BODY_19_cls-3" d="M335.23,464.2H293.51s-2.52,3.59-8.92,6.54L284,471c-.41.18-.82.34-1.23.5A44.81,44.81,0,0,1,269,474.39c-.93.05-1.87.09-2.81.11-.55,0-1.09,0-1.64,0s-.84,0-1.27,0a3.85,3.85,0,0,1-.48,0c-.81,0-1.62-.07-2.42-.13a116.46,116.46,0,0,1-28.56-6.15l-1.52-.53-1.41-.51-1.13-.42-1.28-.49-.59-.23c-2.47-1-3.9-1.63-3.9-1.63h-.12c-6.72-2.84-11-5.17-11-5.17s-4.07,2.24-10.57,5l-2.25,0a77.82,77.82,0,0,1-11.07,5,90.53,90.53,0,0,1-13,3.73,72.54,72.54,0,0,1-16.65,1.59H157c-22.25-.69-29.24-10.31-29.24-10.31H71.3q.27-5.86.63-11.74c.08-1.3.17-2.61.26-3.91a0,0,0,0,1,0-.05c.09-1.29.18-2.58.28-3.87s.21-2.61.32-3.91c.67-7.82,1.56-15.61,2.81-23.32,0,0,0-.08,0-.13.2-1.24.41-2.47.64-3.69,0,0,0-.07,0-.1.18-1,.36-2,.56-3,.07-.4.15-.8.23-1.19.2-1,.41-2.06.64-3.08.29-1.39.6-2.77.93-4.15v0a170,170,0,0,1,6-20.09c.33-.89.67-1.77,1-2.64q.31-.82.66-1.65c.31-.81.64-1.6,1-2.39s.54-1.29.82-1.92c.46-1.08.94-2.14,1.43-3.18.3-.66.61-1.31.92-1.95.11-.24.22-.48.34-.71.3-.61.59-1.21.9-1.8.43-.86.87-1.72,1.32-2.56s.88-1.62,1.34-2.42.9-1.59,1.37-2.37.89-1.49,1.35-2.22.85-1.35,1.29-2,.86-1.31,1.3-1.95,1-1.46,1.53-2.18l.94-1.28c.62-.84,1.26-1.67,1.92-2.5.32-.41.65-.82,1-1.22q1.5-1.83,3.08-3.6c.7-.78,1.42-1.56,2.15-2.32l1.11-1.14c.74-.75,1.49-1.49,2.26-2.22,0,0,0-.05.06-.05.38-.37.76-.73,1.15-1.08.79-.74,1.6-1.46,2.42-2.16l1.2-1,1.35-1.12,1.85-1.46c.69-.53,1.38-1.05,2.09-1.57s1.35-1,2-1.47,1.16-.81,1.76-1.21,1.26-.84,1.91-1.26l1.32-.83,1.49-.92,1.17-.81,1.12-.78c.74-.51,1.45-1,2.14-1.52l0,0c1-.7,1.9-1.41,2.78-2.16.25-.2.49-.41.72-.62l.2-.17.67-.62a3.45,3.45,0,0,0,.28-.26l.64-.64c.27-.27.53-.55.79-.84l0,0c.23-.26.47-.53.7-.81l.27-.33.47-.6,0-.05.22-.29c.41-.55.81-1.14,1.2-1.76l.54-.88c.19-.32.37-.65.55-1,.4-.72.79-1.5,1.17-2.32.13-.28.26-.58.39-.88s.37-.86.55-1.31c-.1-.18-.19-.37-.28-.56a19.74,19.74,0,0,1-.81-1.95c-.07-.17-.13-.35-.19-.53-.31-.88-.58-1.82-.83-2.75-.09-.33-.18-.66-.26-1s-.13-.55-.2-.82-.11-.48-.16-.71l-.15-.74h0v0c-.29-1.37-.51-2.62-.66-3.59,0-.2-.06-.38-.09-.56-.07-.47-.13-.83-.16-1.08,0,0,0-.08,0-.11a.52.52,0,0,0,0-.14.87.87,0,0,1,0-.11l.94.06.9.07h.74l.92.07.35,0c0-.11-.08-.24-.13-.37s-.07-.21-.11-.32-.06-.24-.1-.36-.15-.5-.22-.78-.1-.34-.15-.53,0-.18-.07-.27c-.06-.25-.13-.51-.2-.78-.54-2.12-1.15-4.84-1.78-7.73q-.2-.91-.39-1.86c-.07-.31-.13-.62-.2-.93-.19-.94-.39-1.89-.58-2.82-.13-.63-.26-1.26-.38-1.88-.49-2.42-.94-4.69-1.3-6.56l1.68,1.43c1.24,1.07,2.55,2.11,3.89,3.11.4.31.81.61,1.22.9.59.43,1.19.85,1.79,1.26,3.44,2.38,7,4.55,10.35,6.57l1.69,1,.18.11.05,0,3.13,1.91,0,0c.45.27.89.55,1.31.82l.72.46.83.53a.59.59,0,0,0,.11.08l.44.29h0l.13.09h0s0,0,0,0l.18.12.3.22.53.36.5.35c1.61,1.08,3.76,2.48,6.2,4l1.39.89.06,0,.39.25.41.26,1.49,1,1,.64,3.63,2.3h0l.39.26,2,1.29L191.3,295l1.36.87h0l1.75,1.12,2.77,1.8,1.43.94,1,.64,1.46,1,.67.46c1,.71,1.9,1.33,2.52,1.81l0,0c.11.08.22.16.31.24a50.37,50.37,0,0,0,6.47,4.44l.29.17c.55.32,1,.56,1.31.71l.12.08h0a.7.7,0,0,0,.14.08l.21.11.82.1.44.05.81.08.67.06,1.8.15.52,0,.78.05h.1c1.81.1,3.9.15,6.09.1.39,0,.77,0,1.16,0l1.29-.07c.25,0,.5,0,.75-.05.5,0,1-.07,1.47-.13H230l1.43-.17c.19,0,.37-.05.55-.09.39-.05.78-.12,1.17-.2l.52-.1c.34-.07.68-.14,1-.23l1.09-.29.12,0a18.1,18.1,0,0,0,2.77-1.05l.85-.45.6-.35.36-.21c.38-.22.76-.46,1.13-.72l.91-.63.72-.53c.3-.23.6-.46.89-.7l.13-.1c2.17-1.75,4.1-3.66,6.39-5.79,1.39-1.29,2.91-2.66,4.72-4.12.18-.15.36-.3.55-.44a6.26,6.26,0,0,1,.57-.45l.58-.45.61-.46c.41-.31.83-.62,1.27-.93q1.77-1.31,3.91-2.68l1.68-1.08.7-.45,2.11-1.34,2-1.25,1.39-.87,1.14-.71,1.1-.69c-.06.1-.11.2-.17.29q-1.31,2.28-2.29,4.29c-.11.21-.21.42-.31.63l-.64,1.36c-.07.17-.15.33-.22.5-.24.52-.45,1-.65,1.51l-.09.22c-.11.28-.22.55-.32.82a43.14,43.14,0,0,0-1.46,4.41c-.07.26-.14.52-.19.75s-.09.34-.12.49c-.17.73-.28,1.35-.36,1.84,0,.12,0,.23-.05.33a9.62,9.62,0,0,0-.12,1.24l.76-.25.21-.07,1-.34,1.2-.38.06,0,1.71-.52c-.18.44-.4.93-.62,1.47a33,33,0,0,0-1.69,4.88c-.06.22-.11.44-.15.67a12.14,12.14,0,0,0-.23,1.43c0,.19,0,.39-.05.59s0,.45,0,.67a7.72,7.72,0,0,0,0,1c0,.31.08.63.14.93a3.45,3.45,0,0,0,.12.46,6.59,6.59,0,0,0,.32.88,3.42,3.42,0,0,0,.21.43c2.27,4.2,8.83,8.74,14.59,12.58,21,14.77,25.85,20.1,34.63,35.53C328,378.12,329.8,398,331.39,417.31Q333.3,440.76,335.23,464.2Z" />
      <path class="BUNTAI_MEERKAT_BODY_MEERKAT_BODY_19_cls-4" d="M258.51,464.2l8.15-4.54s-2.1,11.72-6.29,14.68l-.05,0a107.84,107.84,0,0,1-27-5.69l-1.47-.49-1.52-.53-1.41-.51-1.13-.42-1.28-.49-.59-.23c-1.42-.55-2.77-1.1-4-1.63-6.72-2.84-11-5.17-11-5.17s-4.07,2.24-10.57,5c-3.74,1.59-8.29,3.37-13.32,5a90.53,90.53,0,0,1-13,3.73l-.13-.27-4-8.46-1-10.31s7.91,9.44,10.16,10.31c-5.59-9-7.34-33.5-7.34-33.5l4.08,5.82c-2.21-9.55-4.17-33-4.17-33l4.29,4.2c-3.5-8.39-4.29-33.56-4.29-33.56l4.1,3.59s-2.66-16.13-4.09-29.12h0c-.26-2.33-.48-4.56-.63-6.58h0c-.07-.87-.13-1.69-.17-2.47a4.27,4.27,0,0,1,1.29.31,34.35,34.35,0,0,1,4,1.79s-.5-1.4-2-5.68h0c-.77-2.25-1.8-5.3-3.17-9.34-.3-2-.53-4.25-.69-6.63-.21-2.94-.32-6.09-.36-9.27h0a0,0,0,0,1,0,0h0c0-.56,0-1.12,0-1.67h0c0-.63,0-1.26,0-1.89h0c0-5.44.16-10.78.35-15.15s.4-7.71.5-9.24h0c0-.35,0-.6.05-.75s0-.15,0-.15l.13.09h0s0,0,0,0l.18.12c1.08.69,4.61,3,9,5.82h0l6.93,4.43,6.4,4.06c3.9,2.47,7.41,4.66,9.64,6,8,4.81,7.51,6.94,17.47,7.42,1.61.08,3.12.13,4.55.14h0c.9,0,1.75,0,2.58,0h0a33.91,33.91,0,0,0,6.24-.73,1.83,1.83,0,0,1,.25-.06,21.38,21.38,0,0,0,5.74-2.23l.36-.21c.38-.22.76-.46,1.13-.72s.61-.4.91-.63l.72-.53c.3-.23.6-.46.89-.7l.13-.1c3.15-2.49,6-5.07,9.66-8.13l.11-.09c1.56-1.3,3.27-2.69,5.2-4.2,1.14-.88,2.37-1.82,3.7-2.8l0,0,1.58-1.16c-.05.08-.1.16-.14.24a42.07,42.07,0,0,0-2.89,5.57c-3.11,7.55.38,9.28.17,18.1-.25,10.72-4.18,28.43-4.18,28.43l9.55-9.79c-.92,8.73-7.28,29.24-7.45,29.82.11-.08,2.1-1.58,9.38-7.45-1.14,6.29-3.74,15.46-6.7,24.91l3.69-3.24s-.79,25.17-4.28,33.56l4.28-4.2s-1.95,23.42-4.17,33l4.08-5.82S264.11,455.18,258.51,464.2Z" />
      <path class="BUNTAI_MEERKAT_BODY_MEERKAT_BODY_19_cls-4" d="M192.37,216C184,211.67,174,216,174,216s-1.66,21.93,24.82,17.91C198.84,233.87,200.76,220.24,192.37,216Z" />
      <path class="BUNTAI_MEERKAT_BODY_MEERKAT_BODY_19_cls-4" d="M274.14,216s-10-4.29-18.35,0-6.47,17.91-6.47,17.91C275.8,237.89,274.14,216,274.14,216Z" />
      <path class="BUNTAI_MEERKAT_BODY_MEERKAT_BODY_19_cls-5" d="M198.84,233.87s1.92-13.63-6.47-17.91S174,216,174,216,172.36,237.89,198.84,233.87Z" />
      <path class="BUNTAI_MEERKAT_BODY_MEERKAT_BODY_19_cls-6" d="M187.45,215.12a8,8,0,1,0,8.24,8A8.14,8.14,0,0,0,187.45,215.12Z" />
      <ellipse cx="187.45" cy="223.16" rx="3.98" ry="3.89" />
      <ellipse class="BUNTAI_MEERKAT_BODY_MEERKAT_BODY_19_cls-4" cx="189.79" cy="219.72" rx="1.81" ry="1.77" />
      <ellipse class="BUNTAI_MEERKAT_BODY_MEERKAT_BODY_19_cls-7" cx="187.45" cy="223.16" rx="8.24" ry="8.04" />
      <path class="BUNTAI_MEERKAT_BODY_MEERKAT_BODY_19_cls-5" d="M249.32,233.87s-1.92-13.63,6.47-17.91,18.35,0,18.35,0S275.8,237.89,249.32,233.87Z" />
      <path class="BUNTAI_MEERKAT_BODY_MEERKAT_BODY_19_cls-6" d="M260.71,215.12a8,8,0,1,1-8.24,8A8.14,8.14,0,0,1,260.71,215.12Z" />
      <ellipse cx="260.71" cy="223.16" rx="3.98" ry="3.89" />
      <ellipse class="BUNTAI_MEERKAT_BODY_MEERKAT_BODY_19_cls-4" cx="262.88" cy="219.72" rx="1.81" ry="1.77" />
      <ellipse class="BUNTAI_MEERKAT_BODY_MEERKAT_BODY_19_cls-7" cx="260.71" cy="223.16" rx="8.24" ry="8.04" />
      <path d="M214.91,290.24c-3.1-.3-6.6-2.31-9.12-4a12.62,12.62,0,0,0-.14,1.32,13.61,13.61,0,0,0,2.13,6.57c3,1.21,6.2,1.91,8.15,1.5C220,294.71,220.5,290.78,214.91,290.24Z" />
      <path d="M234.39,290.24c-5.6.54-5.13,4.47-1,5.35a10.9,10.9,0,0,0,4.39-.29,29.75,29.75,0,0,0,1.83-7.69C237.89,288.47,236.07,290.07,234.39,290.24Z" />
      <path class="BUNTAI_MEERKAT_BODY_MEERKAT_BODY_19_cls-8" d="M223.65,302.81s.48-5.64.57-9.09" />
      <path class="BUNTAI_MEERKAT_BODY_MEERKAT_BODY_19_cls-9" d="M199,276.8s-38.73,2.4-80.2,22.64-42.18,22.43-42.18,22.43" />
      <path class="BUNTAI_MEERKAT_BODY_MEERKAT_BODY_19_cls-9" d="M197.18,281.84s-57.67,17-98.39,55.31" />
      <path class="BUNTAI_MEERKAT_BODY_MEERKAT_BODY_19_cls-9" d="M195.08,286.2s-36.87,26.48-64,63.88" />
      <path class="BUNTAI_MEERKAT_BODY_MEERKAT_BODY_19_cls-9" d="M195.69,272.31s-56.53-5.06-98.3-.87" />
      <path class="BUNTAI_MEERKAT_BODY_MEERKAT_BODY_19_cls-9" d="M248.23,276.8s38.72,2.4,80.2,22.64,42.17,22.43,42.17,22.43" />
      <path class="BUNTAI_MEERKAT_BODY_MEERKAT_BODY_19_cls-9" d="M250.08,281.84s57.67,17,98.39,55.31" />
      <path class="BUNTAI_MEERKAT_BODY_MEERKAT_BODY_19_cls-9" d="M252.18,286.2s36.87,26.48,64,63.88" />
      <path class="BUNTAI_MEERKAT_BODY_MEERKAT_BODY_19_cls-9" d="M251.56,272.31s56.54-5.06,98.31-.87" />
      <path class="BUNTAI_MEERKAT_BODY_MEERKAT_BODY_19_cls-5" d="M132.57,237.76a42.88,42.88,0,0,1-10.37-18.4c-2.79-11.07-4.42-19.34,1.52-34.25h0c2.79-2.91,7.8-2.33,19.11-7.1s19.92-16.84,38.09-25.23S222,150.33,222,150.33c5.07.35,20-3.15,38.36,2s27.7,19,31.63,24.29,14.42,5.07,15.9,5.85,5.16,9.44,5.16,21-3.93,23.77-8,28.14" />
      <path class="BUNTAI_MEERKAT_BODY_MEERKAT_BODY_19_cls-5" d="M143.42,263.27C136.05,257,131.58,254.32,126,253c1.17-1.63,4.43-6.82,4.43-6.82s-.64-.29-3.09-1.57c2.21-1.14,5.08-6.58,5.24-6.87" />
      <path class="BUNTAI_MEERKAT_BODY_MEERKAT_BODY_19_cls-5" d="M305.09,231.6c-1,2.45-3.59,7.77-3.59,7.77l5,2.09s-1.14,2-3.85,7.61S290,269.45,290,269.45l-3.73,3.62c-2.6,2.51-6.72,5.09-13.31,9.22-2.87,1.79-6.21,3.88-10.1,6.39a83.19,83.19,0,0,0-12.21,9.53c-3.85,3.57-6.66,6.54-11.33,9.14-3.35,1.87-8.27,2.59-12.93,2.77a84.19,84.19,0,0,1-13.19-.59,50.15,50.15,0,0,1-8.57-5.59c-.94-.77-2.72-2-5-3.53-8.18-5.44-22.78-14.45-28.1-18.14-6.82-4.72-18-10.31-26.39-17.56l-1.68-1.43" />
      <path class="BUNTAI_MEERKAT_BODY_MEERKAT_BODY_19_cls-5" d="M123.72,185.11s12,.58,20.39,13.63c.23,9.79-4.9,19.81-4.9,19.81l-2.91-7.46-.81,14.33-2.45-1s1.67,9.83-.47,13.39h0" />
      <path class="BUNTAI_MEERKAT_BODY_MEERKAT_BODY_19_cls-5" d="M305.09,231.6h0l-1.92-2.35.52-7.43-3.41,6s-2.74-4.17-2.85-19.19c6.52-8.86,10.45-26.16,10.45-26.16" />
      <path class="BUNTAI_MEERKAT_BODY_MEERKAT_BODY_19_cls-5" d="M143.42,263.26h0c1.46,7.53,4.28,21.53,5.61,25.19l-3.85-.26s1.23,9.79,3.85,14.68c-4.11,10.27-9.26,13.55-16.69,18.7" />
      <path class="BUNTAI_MEERKAT_BODY_MEERKAT_BODY_19_cls-5" d="M273,282.26l0,0c-6.92,11.93-7,18.68-7,18.68s2.62-.88,5-1.58c-1.31,3.15-4.19,9.18-1.92,13.37s8.83,8.74,14.59,12.58" />
      <path class="BUNTAI_MEERKAT_BODY_MEERKAT_BODY_19_cls-5" d="M226.36,310.12s-3.67,14.27-4.19,19.34c4.19,4.19,8,3.49,8,3.49s-.7,11-4,14.16l5.94,2.53a188.5,188.5,0,0,0-9.53,27.79" />
      <path class="BUNTAI_MEERKAT_BODY_MEERKAT_BODY_19_cls-8" d="M239.82,284.2a31.09,31.09,0,0,1-.23,4.34,22.6,22.6,0,0,1-1.83,6.76c-2.73,6-7.21,7.42-7.21,7.42a92.59,92.59,0,0,1-14.55-.43c-2.63-.76-6.05-4.39-8.22-8.2a13.61,13.61,0,0,1-2.13-6.57,12.62,12.62,0,0,1,.14-1.32c.83-4.79,4.87-11,6.15-11.79s15.12-2.53,20.19,0S239.82,284.2,239.82,284.2Z" />
      <path class="BUNTAI_MEERKAT_BODY_MEERKAT_BODY_19_cls-8" d="M197.34,247.85c-.53.59-1.08,1.18-1.65,1.75-7.78,7.86-15.55,12.67-11.19,28.31,2.59,9.29,10.27,16.63,17.7,21.32,5.07,3.21,10,5.18,13.15,5.68,7.69,1.22,8.3-1.66,8.3-1.66" />
      <path class="BUNTAI_MEERKAT_BODY_MEERKAT_BODY_19_cls-8" d="M197.34,247.85a69.6,69.6,0,0,0-8,1.14c-7.78,1.66-11.36-.27-11.36-4.29s-8.12-9.61-13.63-18.52-3.41-21.76-.61-22.37c30.32-2.45,42.73,13.54,43.69,20.71C208.29,231.16,204.15,240.28,197.34,247.85Z" />
      <path class="BUNTAI_MEERKAT_BODY_MEERKAT_BODY_19_cls-8" d="M250,247.85c-6.81-7.57-11-16.69-10.06-23.33,1-7.17,13.37-23.16,43.69-20.71,2.8.61,4.89,13.46-.61,22.37s-13.63,14.5-13.63,18.52-3.58,6-11.36,4.29A69.6,69.6,0,0,0,250,247.85Z" />
      <path class="BUNTAI_MEERKAT_BODY_MEERKAT_BODY_19_cls-8" d="M223.65,303.25s.61,2.88,8.3,1.66c3.84-.62,10.46-3.46,16.67-8.1s12-11.08,14.18-18.9c4.36-15.64-3.41-20.45-11.19-28.31-.57-.57-1.12-1.16-1.65-1.75" />
      <path class="BUNTAI_MEERKAT_BODY_MEERKAT_BODY_19_cls-10" d="M283.59,325.34c21,14.77,25.85,20.1,34.63,35.53C328,378.12,329.8,398,331.39,417.31q1.91,23.44,3.84,46.89H294.55" />
      <path class="BUNTAI_MEERKAT_BODY_MEERKAT_BODY_19_cls-10" d="M132.34,321.59c-24,14.51-37.91,34.26-47.65,60.39S72.61,436.34,71.3,464.2h56" />
      <path class="BUNTAI_MEERKAT_BODY_MEERKAT_BODY_19_cls-10" d="M129.24,384.34a133.66,133.66,0,0,0-10.45,26.36,96.1,96.1,0,0,0-3,15.65h0c-.17,1.59-.28,3.18-.34,4.78a0,0,0,0,1,0,0,61.88,61.88,0,0,0,.17,7.34A45.21,45.21,0,0,0,118,449.9h0a35.62,35.62,0,0,0,4,8A35.12,35.12,0,0,0,127.1,464l.17.16c8.26,7.73,19.06,10.39,30.15,10.32a85.58,85.58,0,0,0,16.52-1.86A122.77,122.77,0,0,0,187,469.2c5-1.61,9.58-3.39,13.32-5,6.5-2.77,10.57-5,10.57-5" />
      <path class="BUNTAI_MEERKAT_BODY_MEERKAT_BODY_19_cls-10" d="M118.66,390.11s-2.16,12.79.13,20.59" />
      <path class="BUNTAI_MEERKAT_BODY_MEERKAT_BODY_19_cls-10" d="M292.59,384.34A133.75,133.75,0,0,1,303,410.69h0C307.8,428,309.52,450,294.72,464l-.17.16a35,35,0,0,1-10,6.54L284,471c-.41.18-.82.34-1.23.5A47.39,47.39,0,0,1,269,474.39c-.93.05-1.87.09-2.81.11-.55,0-1.09,0-1.64,0s-.84,0-1.27,0a3.85,3.85,0,0,1-.48,0c-.82,0-1.65-.05-2.47-.1a110,110,0,0,1-28.51-6.18l-1.52-.53-1.41-.51c-.38-.13-.76-.27-1.13-.42l-1.28-.49-.59-.23c-1.42-.55-2.77-1.1-4-1.63-6.72-2.84-11-5.17-11-5.17" />
      <path class="BUNTAI_MEERKAT_BODY_MEERKAT_BODY_19_cls-10" d="M303.16,390.11s2.16,12.79-.13,20.59" />
      <g class="BUNTAI_MEERKAT_BODY_MEERKAT_BODY_19_cls-11">
        <path class="BUNTAI_MEERKAT_BODY_MEERKAT_BODY_19_cls-12" d="M306.5,241.47s-12.15,22.89-17.53,29-16,11.84-25.64,18.07S246,304.47,238,308s-25.22,1.35-25.22,1.35-19-12.74-33.16-21.73q-4.31-2.75-8.57-5.49c-.65-2.29-3.63-2.48-3.63-2.48l-25.26-17.45h0l-1.09-.86c-10.35-8.26-14.81-8.64-14.81-8.64l3.56-6.36s0-.41-2.47-1.67c11.53-5.59,23.53-.24,28.31,6.52s19.45,9.9,28.51,10.72c4.85,16,11.45,20.15,21.49,21.67,8.88,3.49,23.39,5.7,34.18.64a31.46,31.46,0,0,0,23.7-15.56c10.72-4.66,26.91-19.92,26.91-19.92s-.58,2.68-5,7.34c9.56-5.71,16.08-16.68,16.08-16.68Z" />
        <path d="M181.1,313.73l-13.45,7.87S153.49,306.92,149,299.33,144.12,288,144.12,288a35,35,0,0,0,4.92.53c-1.66-4.29-6.89-26.3-6.89-26.3h0c8.08,6.33,18.27,13.09,28.89,19.93.91,3.26,2.18,7.62,2.94,9.54C175.29,294.92,181.1,313.73,181.1,313.73Z" />
        <path d="M143.64,198.8s-15.45-8.86-23.68-4.37c-.43,12.82-1,18.17,3.64,29.13s8.54,13.31,8.54,13.31,2.07-4.58,1-12.09l2.27.76.7-13,3.17,5.3S144.28,210.33,143.64,198.8Z" />
        <path d="M311.88,192.32s-4.32,14-14.95,17.44c.73,12.84,3.6,17.64,3.6,17.64l2.51-3.93.14,5.59,2.39,2.54s5.9-12.76,6.9-20.91S311.88,192.32,311.88,192.32Z" />
        <path class="BUNTAI_MEERKAT_BODY_MEERKAT_BODY_19_cls-12" d="M174,216l-5.5-2.89s.87,17,8.62,20.62,21.25.24,21.25.24-8,1.51-15.11-1.64S174.05,219.83,174,216Z" />
        <path class="BUNTAI_MEERKAT_BODY_MEERKAT_BODY_19_cls-12" d="M274.12,216l5.51-2.89s-.87,17-8.62,20.62-21.25.24-21.25.24,8,1.51,15.11-1.64S274.1,219.83,274.12,216Z" />
        <path d="M104.38,375.72s1.65,21.65,3.67,34.48L97.92,392.9h0s4.54,36.52,3.32,45.61H115.8S115.21,404.32,104.38,375.72Z" />
        <path d="M226.48,346.8l4,2.58-7.06.35-22.55,1.1-.46,5.77s-.47,1.17-14.1-1.44A73.5,73.5,0,0,1,159,339.31l6.4-21.17-3.85-15.33s6.88,5.68,9.09,8.82a107.48,107.48,0,0,1-4.19-31.69l19.22,12.47L217,308.14l8.45.17-3.32,21.15s4.29,3,7.69,3.53A36.87,36.87,0,0,1,226.48,346.8Z" />
        <path d="M231.6,350.08l0,.08-1-.77Z" />
        <path class="BUNTAI_MEERKAT_BODY_MEERKAT_BODY_19_cls-12" d="M215.13,149.07s-25,.86-45.86,18-28.58,21.26-34.62,22.51c-9.14-4.45-10.93-5-10.93-5s2.91-1.69,12-4.37,13.19-6.42,25.5-15S185.5,144.61,215.13,149.07Z" />
        <path class="BUNTAI_MEERKAT_BODY_MEERKAT_BODY_19_cls-12" d="M132.34,239.38a38.68,38.68,0,0,1,15.58,0,25.7,25.7,0,0,0-14.54-4Z" />
        <path d="M103.75,430.35l-2.51,8.16L99.79,464.2H118s1.48-27.22-5-51.1A79.54,79.54,0,0,1,103.75,430.35Z" />
        <path d="M182.1,319.67S169.17,347.81,159,363s-11.88,20.62-11.88,20.62L148,374s-15.51,20.56-21.28,39.08,0,50.4,0,50.4l-55.4.7s.36-39.6,7.34-62.13,14-44.77,32.79-64.11c14.47-12.17,28-20.21,32.77-26.37s4.83-8.7,4.83-8.7l-2.72-8.7,5.82,3.46Z" />
      </g>
    </g>
  </g>
</svg>