<svg xmlns="http://www.w3.org/2000/svg" xmlns:xlink="http://www.w3.org/1999/xlink" viewBox="0 0 432 432">
  <defs>
    <style>.GUNDAN_TIGER_BODY_TIGER_BODY_25_cls-1{fill:#fff;}.GUNDAN_TIGER_BODY_TIGER_BODY_25_cls-2{isolation:isolate;}.GUNDAN_TIGER_BODY_TIGER_BODY_25_cls-3{fill:#933521;}.GUNDAN_TIGER_BODY_TIGER_BODY_25_cls-4{fill:#7a3f1d;}.GUNDAN_TIGER_BODY_TIGER_BODY_25_cls-5{fill:#1a1a1a;}.GUNDAN_TIGER_BODY_TIGER_BODY_25_cls-6{clip-path:url(#GUNDAN_TIGER_BODY_TIGER_BODY_25_clip-path);}.GUNDAN_TIGER_BODY_TIGER_BODY_25_cls-7{fill:#6d7a00;}.GUNDAN_TIGER_BODY_TIGER_BODY_25_cls-10,.GUNDAN_TIGER_BODY_TIGER_BODY_25_cls-11,.GUNDAN_TIGER_BODY_TIGER_BODY_25_cls-12,.GUNDAN_TIGER_BODY_TIGER_BODY_25_cls-13,.GUNDAN_TIGER_BODY_TIGER_BODY_25_cls-16,.GUNDAN_TIGER_BODY_TIGER_BODY_25_cls-17,.GUNDAN_TIGER_BODY_TIGER_BODY_25_cls-18,.GUNDAN_TIGER_BODY_TIGER_BODY_25_cls-19,.GUNDAN_TIGER_BODY_TIGER_BODY_25_cls-8,.GUNDAN_TIGER_BODY_TIGER_BODY_25_cls-9{fill:none;}.GUNDAN_TIGER_BODY_TIGER_BODY_25_cls-10,.GUNDAN_TIGER_BODY_TIGER_BODY_25_cls-11,.GUNDAN_TIGER_BODY_TIGER_BODY_25_cls-12,.GUNDAN_TIGER_BODY_TIGER_BODY_25_cls-13,.GUNDAN_TIGER_BODY_TIGER_BODY_25_cls-14,.GUNDAN_TIGER_BODY_TIGER_BODY_25_cls-16,.GUNDAN_TIGER_BODY_TIGER_BODY_25_cls-17,.GUNDAN_TIGER_BODY_TIGER_BODY_25_cls-18,.GUNDAN_TIGER_BODY_TIGER_BODY_25_cls-19,.GUNDAN_TIGER_BODY_TIGER_BODY_25_cls-8,.GUNDAN_TIGER_BODY_TIGER_BODY_25_cls-9{stroke:#000;stroke-linecap:round;stroke-linejoin:round;}.GUNDAN_TIGER_BODY_TIGER_BODY_25_cls-8{stroke-width:1.75px;}.GUNDAN_TIGER_BODY_TIGER_BODY_25_cls-9{stroke-width:1.93px;}.GUNDAN_TIGER_BODY_TIGER_BODY_25_cls-10{stroke-width:1.51px;}.GUNDAN_TIGER_BODY_TIGER_BODY_25_cls-11{stroke-width:1.94px;}.GUNDAN_TIGER_BODY_TIGER_BODY_25_cls-12{stroke-width:1.59px;}.GUNDAN_TIGER_BODY_TIGER_BODY_25_cls-13{stroke-width:1.77px;}.GUNDAN_TIGER_BODY_TIGER_BODY_25_cls-14{fill:#2e1615;stroke-width:0.75px;}.GUNDAN_TIGER_BODY_TIGER_BODY_25_cls-15{opacity:0.22;mix-blend-mode:multiply;}.GUNDAN_TIGER_BODY_TIGER_BODY_25_cls-16{stroke-width:0.54px;}.GUNDAN_TIGER_BODY_TIGER_BODY_25_cls-17{stroke-width:0.49px;}.GUNDAN_TIGER_BODY_TIGER_BODY_25_cls-18{stroke-width:1.67px;}.GUNDAN_TIGER_BODY_TIGER_BODY_25_cls-19{stroke-width:1.66px;}</style>
    <clipPath id="clip-path">
      <path class="GUNDAN_TIGER_BODY_TIGER_BODY_25_cls-1" d="M260,179.34a21.46,21.46,0,0,1,14.75-6c2.8.18,9.4.88,9.4.88a12.38,12.38,0,0,0-6.34,2.74,8.29,8.29,0,0,1,3.15-2.74c-2.43-.43-6.65-1.21-8.63-.6,3.12,1,5.19,2.11,1.92,8.07l.42-.55c-2.85,5.7-5.87,8.69-10.45,8.26a10.25,10.25,0,0,0-2.49,0l.52-.21c-4.76,0-3.35-8-3.35-8a29.4,29.4,0,0,0-3,12.85,5,5,0,0,1,1.92-2.6,15.19,15.19,0,0,0-2.17,3.5S255.28,184.23,260,179.34Z" />
    </clipPath>
  </defs>
  <g class="GUNDAN_TIGER_BODY_TIGER_BODY_25_cls-2">
    <g id="body">
      <path class="GUNDAN_TIGER_BODY_TIGER_BODY_25_cls-3" d="M272,200.55c-.08.15-.15.31-.24.47s-.13.26-.21.4-.3.55-.48.85a23.93,23.93,0,0,1-1.78,2.56c.12-.34.33-1.12.57-2.07h0c.11-.43.22-.89.33-1.35l.15-.61c.22-.92.43-1.82.59-2.52A2,2,0,0,1,271,198a1.89,1.89,0,0,1,.05-.23c0-.14.06-.26.08-.37s.09-.39.1-.44a0,0,0,0,0,0,0s1.19-2.85,2.08-3.54,6.41-7.14,6.41-7.14a18.33,18.33,0,0,0,2.84-4.88,61.08,61.08,0,0,0,1.6-7.07s1.16,3.43,1.19,3.92-1,7.55-1,7.71a22.56,22.56,0,0,1-2.62,4c-.7.59-6,5.79-7.66,7.13a3.48,3.48,0,0,0-.3.26,6.24,6.24,0,0,0-1.24,2.06l-.2.45Zm12-26.32a5.87,5.87,0,0,0-.73.12l-.65.15-.74.22-.57.2-.45.18-.38.17-.65.32c-.23.12-.45.25-.67.39a11.68,11.68,0,0,0-1.35,1h0c-.61.76-1.3,1.71-2.18,2.9l-.95,1.27c-2.85,5.7-5.87,8.69-10.45,8.26a10.25,10.25,0,0,0-2.49,0l-.24.09c-.35.14-.67.28-1,.43a14.35,14.35,0,0,0-2.36,1.3l-.35.26a10.64,10.64,0,0,0-1,1.36l-.24.39-.3.52-.17.33c-.16.29-.31.59-.46.9a31.67,31.67,0,0,1,.12-3.42q0-.31.06-.66v0c0-.23.05-.47.08-.72s.06-.52.1-.79v0c0-.26.08-.53.13-.8s.1-.56.15-.84.13-.67.21-1l0-.13c.07-.31.15-.61.24-.92a19.33,19.33,0,0,1,1.07-3c.1-.22.2-.44.32-.65s.22-.43.34-.63a10.4,10.4,0,0,1,.87-1.29,7.77,7.77,0,0,1,.65-.75,21.46,21.46,0,0,1,14.75-6c.66,0,1.52.11,2.46.2l.57.05,1.17.11.59.05,1,.1.73.07h0l.48.05,1.52.16.2,0,.17,0,.24,0,.29,0Zm-28,59.31c2,3,2.4,3.69,2.49,3.84h0l0,0-3.2,3-.44-.16-.37-.12-.57-.16-.29-.08-.33-.08h-.07l-.21,0c-.26-.06-.54-.11-.84-.16h-.09l-.49-.06-.51,0a7.23,7.23,0,0,0-3.89.68l0,0a1.91,1.91,0,0,0-.28.15,2.2,2.2,0,0,0-.28.18,3.57,3.57,0,0,0-.37.31,8.75,8.75,0,0,0-1,1.06l-.14.18a1,1,0,0,0-.13.18c-.14.19-.28.38-.4.57a6.08,6.08,0,0,0-.39.64.42.42,0,0,0-.08.12.75.75,0,0,0-.07.12q-.21.38-.39.75c-.12.24-.23.48-.34.71-.28.63-.51,1.23-.69,1.75,0,.11-.08.22-.11.33-.14.41-.24.76-.31,1,0,.09,0,.16-.06.23a1.31,1.31,0,0,0,0,.15.31.31,0,0,0,0,.08.08.08,0,0,0,0,0l-4.21,2.18-4.75-2.18a.15.15,0,0,0,0-.06s0-.07,0-.12v0l-.07-.25c-.09-.29-.22-.7-.42-1.19a1.34,1.34,0,0,0-.07-.18c-.12-.32-.26-.68-.44-1.05a12.6,12.6,0,0,0-.64-1.27c-.12-.22-.24-.44-.38-.66s-.27-.44-.42-.66h0a.05.05,0,0,0,0,0c-.16-.24-.33-.46-.51-.69a5.32,5.32,0,0,0-.37-.46c-.14-.17-.29-.33-.45-.49a4,4,0,0,0-.29-.29c-.16-.16-.33-.31-.51-.46a4.53,4.53,0,0,0-1-.65,3.92,3.92,0,0,0-.51-.22l-.11,0a4.48,4.48,0,0,0-.52-.16l-.11,0-.5-.11a6.17,6.17,0,0,0-.62-.09l-.45,0c-.26,0-.53,0-.8,0l-.62,0c-.28,0-.56,0-.83.06s-.55.06-.8.1l-.51.08-.91.18-.3.07h-.06l-.47.12-.77.23,0,0s0,0,0,0l-.26.08-3.62-3s0-.07.31-.45l.19-.26.25-.35a.1.1,0,0,0,0-.05l.28-.39,1.76-2.38c2.62-3.51,5.36-2.7,9.41-1.17a33.55,33.55,0,0,0,7,1.54c2.25.3,4,.4,4,.4s6.18-.41,9.77-1.94c1.9-.81,3.48-1.42,4.88-1.29a2.2,2.2,0,0,1,.37,0l.18,0,.18.05a3.3,3.3,0,0,1,.37.13l.23.11.28.16a3.46,3.46,0,0,1,.57.42l.28.26a1.34,1.34,0,0,1,.2.21A7.52,7.52,0,0,1,256,233.54ZM216,195c-.39-.61-.78-1.16-1.18-1.67-.13-.17-.27-.33-.4-.49a7.57,7.57,0,0,0-.53-.6c-.12-.13-.24-.25-.37-.37l-.37-.34-.3-.16a15.28,15.28,0,0,0-1.93-.91c-.87-.35-1.88-.69-3.05-1a18.3,18.3,0,0,0-3.33,0c-6.1.43-10.12-2.56-13.92-8.27l-1.26-1.27-.57-.57c-.78-.79-1.44-1.46-2-2l-.32-.29-.51-.3-.39-.22c-.37-.2-.73-.38-1.09-.54l-.43-.19-.74-.29-.65-.23h0l0,0h-.07L182,175l-.73-.2c-.48-.13-.93-.22-1.33-.3l-.5-.09-.22,0-.4-.06-.33,0-.44,0,.52,0h.34l.48,0,.27,0,.55-.05,1.44-.1.36,0,2.05-.16.92-.06,1.19-.09.83-.06,3.58-.21c3.73-.17,13.35,1.11,19.65,6a13,13,0,0,1,3.76,4.92c.08.17.15.34.22.51.18.41.34.82.49,1.24.08.24.16.48.23.72s.14.46.2.69c.13.49.25,1,.35,1.45l.12.63c.1.54.18,1.06.24,1.55,0,.22,0,.43.07.63s0,.39.06.57,0,.38,0,.56,0,.25,0,.36C216.05,194.29,216,195,216,195ZM179.44,181.3a15.26,15.26,0,0,0,3.61,4.9s7.43,6.46,8.67,7.16,2.63,3.56,2.63,3.56,4.36,6.73,4.85,7.91c-4.58-4.36-6.78-6.46-9.15-7.81s-9.59-6.56-10.56-7.16a19.54,19.54,0,0,1-3.39-4c0-.16-.54-7.24-.43-7.74a42.69,42.69,0,0,1,2.34-3.92A38.62,38.62,0,0,0,179.44,181.3Zm119.45,4.9c.36-4.74,1.5-10.76,1.5-10.76s-.21,5.38,0,9.79a93.91,93.91,0,0,0,.79,10.49,51.2,51.2,0,0,1,.31,6.38c0,.2,0,.4,0,.6l0,.72c0,.15,0,.31,0,.45-.08,1.46-.21,2.73-.35,3.82l-.06.48c0,.18,0,.35-.07.52l0,.21,0,.17v0c-.06.41-.11.78-.16,1.11-.34,2.58-1.2,6.56-1.27,6.88a12.25,12.25,0,0,1-1.15,1.73l.06.4c0,.08,0,.17,0,.27a.78.78,0,0,1,0,.16q0,.17.06.36v0c0,.14,0,.28.06.44a.51.51,0,0,1,0,.17l.09.65c.06.35.11.73.15,1.11,0,.12,0,.25.05.37a2.51,2.51,0,0,1,0,.27c0,.21,0,.42.08.64,0,.05,0,.09,0,.14.05.44.1.87.14,1.27,0,.15,0,.3,0,.45,0,.49.06.92.06,1.25,0,2-.5,8-.5,8s-1.48.45-4.28,4.59c-.32.47-.64.91-1,1.33-.12.17-.25.33-.38.49a30.87,30.87,0,0,1-3.25,3.59l-.49.45-.46.38,0,0h0l-2.79,5.84-.16,1.11,0,.15h0c-.46.54-1,1.15-1.48,1.81-.67.83-1.36,1.75-2.06,2.74-.35.5-.71,1-1.06,1.54l.42-3.61.25-.51c.06-.14.14-.29.22-.47s.09-.18.14-.28l.15-.31c.22-.47.48-1,.76-1.64l.24-.52c.09-.18.17-.37.25-.55l.26-.57c.5-1.1,1-2.29,1.49-3.45.11-.25.21-.5.31-.75s.16-.4.23-.6.21-.54.31-.81a14.67,14.67,0,0,0,1-3.8c.06-2.47-.53-3-.23-4.76a9.37,9.37,0,0,1,.3-1.23c.85-2.79.79-.62,2.29-3.92s3.07-6.95,3.07-8.89a9.11,9.11,0,0,1,.1-1.23c0-.21.06-.43.1-.65.07-.39.16-.78.25-1.15.15-.66.31-1.25.42-1.62a.56.56,0,0,0,0-.12c0-.19.09-.3.09-.3l-.14-2.58-.93-2.58,1.73-6.25S298.53,190.94,298.89,186.2Zm-12-40.11a6.58,6.58,0,0,0,1.36,3c.82,1.19.86,1.08,2.4,3.29s3,3.77,2.71,4.79.29,6.67.54,8.94.75,14.58.46,18.08a37.84,37.84,0,0,1-1.18,6.63s-.75,6-1.57,11.79-2,8.45-2.39,9.21a69.92,69.92,0,0,0-3.44,8.88c-.82,3-1.85,4.63-2.39,4.85s-4.65-4.37-6.44-6.63l-.17-.23-.16-.21c-1.33-1.91-.57-2.58-1.23-4s-1-5.59-1.64-6.07h0a.26.26,0,0,1-.13-.27c.08-.36,1-.72.42-.86a7.08,7.08,0,0,1-1.67-.79,0,0,0,0,1,0,0h.23a4.81,4.81,0,0,1,.5,0l.5.06.28.05.11,0,.41.1.43.13.31.12.35.15.33.16a5.2,5.2,0,0,1,.69.43,6.76,6.76,0,0,1,.66.56,2.89,2.89,0,0,1,.35.35,5.19,5.19,0,0,1,.36.46,3.91,3.91,0,0,1,.34.49,4.63,4.63,0,0,1,.31.51c.1.16.19.32.28.49l0,.09a4.81,4.81,0,0,1,.22.46,4.61,4.61,0,0,1,.23.52,18.88,18.88,0,0,1,.8,2.37c0,.06,0,.12,0,.18s.05.22.07.31,0,.21.06.27a.65.65,0,0,0,0,.1l1.14.75s3.39-6,4-11,2.56-12.39,3.2-13.57,0-5.39,0-5.39a111.78,111.78,0,0,0,.43-15c-.43-6.14-.85-7.22-1.43-11.85s-1.4-9.9-2.41-12.6-.45-3.23-1.23-6-1.86-6-2.15-7.05-.87-3.28-1-3.89C281.42,130.81,286.44,144.41,286.91,146.09Zm-4.22,1.32c-1.67,6-3.2,7.67-3.6,9.53a2,2,0,0,0,0,.24c-.05.3-.1.62-.13.94l0,.49a11.09,11.09,0,0,0,.54,4.06c.51,1.3.26,3,0,3.07s-.39,1.78-1,2.43-7,1.93-7,1.93a15.85,15.85,0,0,0,4.13-6.54,17.31,17.31,0,0,0,.23-7.43,15,15,0,0,1,2.61-4.92A19.3,19.3,0,0,1,282.69,147.41ZM278.07,138s-1.54-1.37-4.39-3.39-9-3.07-12.4-4.93a23.33,23.33,0,0,1-6.71-5.16c-1.9-2-11.56-5.66-11.56-5.66l.59,8.16a35.78,35.78,0,0,0,4,3c1.13.56,3.38,2.34,6.11,7.1s3.86,5.5,7.42,8.89c.45.42.86.84,1.25,1.25.2.2.38.4.56.6a16.2,16.2,0,0,1,1.78,2.33l.18.29c.06.1.12.2.17.3s.12.2.17.3l.12.24a6.11,6.11,0,0,1,.27.58q.17.36.3.75a4.29,4.29,0,0,1,.19.54,8.84,8.84,0,0,1,.3,1.07c0,.14.07.28.1.43a3.12,3.12,0,0,1,.09.44c0,.14.06.28.08.43s.07.44.1.66.08.61.11.93c.49,5.09-.79,13.65-.79,13.65a50.33,50.33,0,0,0-.3-6.05,4.69,4.69,0,0,0-.1-.6,7.77,7.77,0,0,0-.25-.94c-.09-.28-.18-.57-.3-.87s-.24-.66-.39-1-.23-.53-.35-.8c-.28-.61-.59-1.21-.89-1.78v0l0-.05-.2-.36-.16-.29-.11-.18-.26-.44-.35-.57-.07-.11-.27-.4c-.08-.13-.17-.26-.25-.37l-.06-.08-.29-.37-.23-.27a2,2,0,0,0-.23-.21c-1.07-.8-1.9-2.26-4-5.08s-5.22-5.58-7-8.08a7.84,7.84,0,0,0-5.34-3.47c-1.66-.33-2.37-1.7-3.62-2.83a4.09,4.09,0,0,0-2.7-.91,4.17,4.17,0,0,0-.44,0,7.67,7.67,0,0,0-4.28.89c-1.7,1.13-2.67,2.5-4.93,2.83a11.66,11.66,0,0,0-7.27,3.47c-2.42,2.5-6.7,5.25-9.52,8.08s-4,4.28-5.42,5.08a3.47,3.47,0,0,0-.36.25l-.2.17-.23.2-.24.24-.35.37c-.12.12-.24.26-.37.41s-.45.51-.67.79-.27.34-.42.52c-.55.71-1.11,1.48-1.61,2.27l-.3.47a17.67,17.67,0,0,0-1,1.87c-.09.18-.17.36-.24.53l0,.07a4.22,4.22,0,0,0-.18.45,6,6,0,0,0-.3,1.09,37.86,37.86,0,0,0-.4,6.05s-1.75-8.56-1.08-13.65c0-.28.08-.56.13-.83s.05-.28.08-.42a8.81,8.81,0,0,1,.27-1.07c0-.16.09-.32.14-.47s0,0,0,0,.09-.27.14-.4a0,0,0,0,1,0,0c.06-.17.12-.33.19-.48a2.44,2.44,0,0,1,.1-.24c.05-.12.11-.24.17-.36a7.46,7.46,0,0,1,.55-1c.06-.1.12-.2.19-.3h0c.16-.24.33-.48.51-.71a11,11,0,0,1,.72-.87c.16-.17.32-.35.49-.52a22.22,22.22,0,0,1,2.46-2.14c.25-.2.5-.39.77-.58s.61-.45.93-.67c4.85-3.39,6.38-4.12,10.1-8.89s6.78-6.54,8.32-7.1a50.82,50.82,0,0,0,5.41-3l.8-8.16s-13.14,3.64-15.73,5.66a32.47,32.47,0,0,1-9.14,5.16c-4.6,1.86-13,2.91-16.88,4.93s-6,3.39-6,3.39a57.06,57.06,0,0,1,11.3-14c7.51-6.78,14.46-8.48,18.66-9a27.1,27.1,0,0,0,9-2.59c2.59-1.21,3-1.37,4.6-1.61s6.79-.89,6.79-.89l4.36-1.13,3.2,1.13s3.8.64,5,.89,1.48.4,3.38,1.61a16.28,16.28,0,0,0,6.58,2.59c3.09.56,8.19,2.26,13.71,9A58,58,0,0,1,278.07,138Zm-82.26-32.49c2.58-2.37,10.12-4.85,15.5-5.81s3.23-.11,9.91,0c.63,0,1.25,0,1.85,0l.94,0,.74,0c.79,0,1.54-.07,2.25-.13q.54,0,1.05-.09l1-.1.61-.07.86-.11.8-.11s0,0,0,0,0,0,0,0l.29,0,.44-.07h.07l.42-.07c.54-.09,1-.18,1.42-.27l.61-.12.21,0a6.06,6.06,0,0,1,3.12,0,2.27,2.27,0,0,1,1.88,0c1.16.43,4.15,2.33,8.16,2.22s2.73-1,6,0c.2.06.41.12.62.2l.9.33,1.07.45h0l.8.38.81.41c.23.13.47.25.7.39l.69.41h0c.24.14.47.29.7.45s.44.3.65.46h0l.58.46.41.35.33.3.31.31a5.46,5.46,0,0,1,.39.45,4.59,4.59,0,0,1,.33.44c1.55,2.37,7.13,7,9.66,13.08-3-4.09-5.77-6.89-8.3-7.86s-5.64-2.69-9.4-3.45-3.63-1.94-8.23-2.69a27.49,27.49,0,0,0-4.39-.33,32,32,0,0,0-4.68.33,86.63,86.63,0,0,0-15.08,0c-7.64.75-7.43,1.94-13.67,2.69s-11.41,2.48-15.61,3.45-8.83,3.77-13.79,7.86C184,113.52,193.22,107.92,195.81,105.55ZM181,151.21c.19.12.37.25.55.38l.26.19.26.2c.33.26.63.52.92.78l.53.52c.27.28.51.55.73.8a12.34,12.34,0,0,1,1.44,2,9.91,9.91,0,0,0,.4,7.43c1.86,3.72,7.4,6.54,7.4,6.54s-11.36-1.29-12.49-1.93-1.37-2.35-1.83-2.43-.91-1.77,0-3.07a3.87,3.87,0,0,0,.21-.34,3,3,0,0,0,.16-.31c0-.05.05-.1.07-.16a1.22,1.22,0,0,0,.07-.17,3,3,0,0,0,.13-.36c0-.12.07-.24.1-.37a4.18,4.18,0,0,0,.15-.72c0-.11,0-.23,0-.35a6.34,6.34,0,0,0-.32-2.95c-.73-1.86-3.47-3.55-6.46-9.53A36.48,36.48,0,0,1,181,151.21Zm-26,14.86c.38-2.26,1.29-7.92.81-8.94s1.78-2.59,4.09-4.79,2.37-2.1,3.61-3.29a6,6,0,0,0,2.05-3c.73-1.72,8.68-16,9.18-16.91-.14.36-1.19,3-1.59,4s-2.05,4.25-3.23,7.05-.33,3.34-1.86,6-2.77,8-3.64,12.6-1.5,5.71-2.15,11.85.65,15,.65,15-1,4.2,0,5.39,3.87,8.61,4.82,13.57,6,11,6,11l1.73-.75s.86,0,2.55-1.4-1.22-.76.61-1.62,1.94-.86,5.07-3.23,10.76-2.15,10.76-2.15a13.63,13.63,0,0,1-2.53.8,9.42,9.42,0,0,0-2.58,1.13,38.8,38.8,0,0,0-6.3,6.09c-1.08,1.51-1.89,2.15-4.58,4.41-1.39,1.17-1.72,3-3.76,4.38-.57.4-1.11.77-1.6,1.09l-.29.19a11.21,11.21,0,0,1-1.6.88l-.17.05-.11,0a.43.43,0,0,1-.16,0c-.81-.22-2.37-1.83-3.61-4.85a58.33,58.33,0,0,0-5.16-8.88,17.31,17.31,0,0,1-2.45-5c-.18-.51-.35-1.07-.52-1.67,0-.13-.08-.26-.11-.39-.19-.66-.36-1.38-.53-2.16-1.24-5.76-2.37-11.79-2.37-11.79a27.22,27.22,0,0,1-1.78-6.63C153.81,180.65,154.57,168.33,154.94,166.07Zm-11.38,34.26c0-.1,0-.2,0-.3,0-.28,0-.58.05-.88a2.83,2.83,0,0,1,0-.29,1.21,1.21,0,0,1,0-.19c0-.21,0-.42.06-.64s0-.29,0-.43a.62.62,0,0,1,0-.13c0-.41.11-.83.17-1.25,0-.17,0-.33.07-.5a63.42,63.42,0,0,0,1.19-10.49,88.52,88.52,0,0,0,0-9.79,81,81,0,0,1,2.26,10.76c0,.15,0,.3.07.47s.05.29.08.45c.07.39.17.82.29,1.28l.12.45.12.47a1.72,1.72,0,0,0,.07.21l.06.22c.07.25.15.5.23.76,0,.1.06.21.1.31l.15.52c0,.08.05.17.08.25l.15.43c0,.06,0,.12.05.17l.21.63.42,1.23c.51,1.47,1.06,3,1.59,4.39a.3.3,0,0,1,0,.08,1.07,1.07,0,0,0,.07.19c.18.51.37,1,.56,1.49.11.28.22.56.32.83.24.61.46,1.19.67,1.71h0v0a.93.93,0,0,1,.05.1h0l.29.74.85,2.08,2.61,6.24-1.4,2.58v.11l-.14,1.62-.07.85s1.52,3.13,1.52,5.07,2.36,5.6,4.63,8.89,2.15,1.13,3.43,3.92,0,3,.12,6c0,.09,0,.2,0,.31a4.29,4.29,0,0,0,.21.72,15.79,15.79,0,0,0,1.14,2.44c.2.37.41.75.64,1.14.4.69.83,1.4,1.29,2.11.06.1.13.2.19.31l.65,1,.28.43.56.82c.12.19.24.37.37.55l.37.54c.72,1,1.38,2,1.87,2.66l.35.49.25.34.16.21.14.2s.1.58.28,1.68a.06.06,0,0,1,0,0c-.61-.59-1.22-1.15-1.81-1.68l-.52-.46c-.12-.12-.25-.22-.37-.33l-.64-.55c-1.65-1.41-3.1-2.53-4.11-3.27v0l-.13-.18-3.47-4.82s-.33-.17-.9-.51c-.13-.07-.27-.15-.42-.25a37.28,37.28,0,0,1-3.56-2.46l-.7-.55-.73-.6-.73-.64c-.25-.21-.5-.44-.75-.68h0l-.62-.59c-4.21-4.14-6.43-4.59-6.43-4.59s-.76-5.92-.76-8a59.77,59.77,0,0,1,1.4-8,12.74,12.74,0,0,1-1.72-1.73c-.11-.31-1.4-4.3-1.93-6.88-.19-1-.5-2.25-.74-3.85-.07-.48-.14-1-.2-1.51s-.08-.81-.11-1.24-.05-.75-.06-1.14a1.34,1.34,0,0,1,0-.2v0a0,0,0,0,1,0,0C143.53,201.62,143.53,201,143.56,200.33ZM389.19,417.86q-3.33-18.3-6.65-36.6l3.83,4.35-11.88-41.44,2.94,3.16a96.9,96.9,0,0,0-6.58-10.15,161.14,161.14,0,0,0-35.78-34.45l4.47.29c-9.1-7.11-16.46-15.65-24.39-24.37h0l-1.3-1.43c-6.48-7.09-10.47-11.45-13.57-17.37a49.63,49.63,0,0,1-2.33-5.2l-2-6.77h0s0-.05,0-.08q.21-1.34.33-2.07c0-.1,0-.19,0-.27,0-.31.07-.5.08-.55h0l.73-1,.09-.11c.62-.61,1.24-1.19,1.81-1.7h0a.08.08,0,0,0,0,0L299,242l-.15-.12.07-.08c.31-.32.59-.59.85-.81a13.3,13.3,0,0,1,2.23-1.5l.21-.12c0-.11.07-.21.1-.32q.32-1,.63-2c.24-.79.47-1.58.7-2.37.46-1.6.88-3.19,1.28-4.77v0a15.54,15.54,0,0,0,.1-2,10.54,10.54,0,0,0-.2-1.33c0-.23-.1-.48-.16-.75,0-.12-.05-.25-.08-.38-.13-.61-.28-1.31-.43-2.09-.05-.25-.09-.51-.14-.78a5,5,0,0,1-.09-.56c-.05-.25-.08-.51-.12-.77s-.08-.54-.11-.82c0,0,0,0,0-.07-.05-.4-.09-.81-.13-1.24,0-.13,0-.26,0-.41s0-.62-.06-.94a.08.08,0,0,1,0-.07c-.06-.94-.09-1.95-.06-3,0-.19,0-.38,0-.58v-.12c0-.62.05-1.27.11-1.93,0-.36,0-.72.09-1.09s.05-.53.08-.8.06-.54.1-.82c.2-1.48.36-2.88.5-4.2.05-.44.09-.87.13-1.29s.1-1,.14-1.42c0-.29.05-.58.08-.86.05-.66.11-1.28.15-1.88.09-1.32.16-2.48.22-3.48h0c.12-2.5.12-4,.12-4.14,0-.4-1.77-11.31-2.36-13.77-.21-.88-.55-2-.91-3.13-.65-2-1.35-3.89-1.45-4.1s-1.12-2.5-1.12-2.5-.81-11.87-1.4-17a16.64,16.64,0,0,0-.4-2.13q-.06-.3-.15-.6c0-.12-.06-.24-.1-.37s-.13-.47-.2-.7-.09-.32-.14-.48c-.1-.32-.2-.65-.31-1-.16-.49-.33-1-.51-1.5s-.27-.77-.42-1.16c-.42-1.14-.87-2.27-1.32-3.34l-.5-1.18c-.1-.23-.2-.45-.29-.67-.26-.57-.51-1.12-.75-1.62,2.92,2.94,5.22,4.92,6,4.82a1.47,1.47,0,0,0,.61-.2l.12.33c.19.52.38,1.06.57,1.6-.1-.82-.21-1.57-.31-2.24a3.13,3.13,0,0,0,.6-1.76v0c.18-2.2-.62-5.29-.28-6.14,1.94-1.08,3.21-3.7,3.66-6.93.08-.5.14-1,.17-1.43a2.11,2.11,0,0,0,0-.25c0-.28,0-.55.05-.79,0-2.28-.06-3.88,0-5.51,0-.18,0-.35,0-.53a21,21,0,0,1,.37-3.19v0c.06-.36.14-.73.23-1.13.95-4.24,1.9-8.12.79-13.24a18.79,18.79,0,0,0-3.4-8,1.45,1.45,0,0,0-.21-.22.23.23,0,0,0-.07-.07,9.46,9.46,0,0,0-7.86-3.09h0A19.38,19.38,0,0,0,284.06,92c-.13.08-.25.17-.37.26A21.08,21.08,0,0,0,280.36,95l-.05,0v0l-.83,1.36c-2.6,1.67-4.82,3.06-6.25,4h0l-.45.28,0,0-1.22.77-.47-.14-.14,0-.32-.09c-2.23-.64-8.25-2.29-15.8-3.77l-.16,0a143.28,143.28,0,0,0-19.94-2.61L233,94.74l-1.3,0-1.49,0q-4.38,0-8.37.12l-1.78.06h-.33l-1.95.08c-3.11.13-6,.32-8.78.54l-1.68.15c-1.29.11-2.54.23-3.75.37l-.18,0-.14,0-1.08.12c-1.08.12-2.12.24-3.12.38l-.87.12-1.6.23-1.34.2-1.59.26-1.52.26-1.12.2-.11,0-1.51.29-1.51.31c-1.21.26-2.35.51-3.4.77h0a0,0,0,0,0,0,0h0c-.83.2-1.62.41-2.35.61l-.66.18-.46.13-.59.17-1.67.5-.91.3c-1.31.43-2.3.81-3,1.09l-.22.09-.43.18-.36.17-.15.06,0,0h0l-.49-.35a69.34,69.34,0,0,1-14.69-7.57h0c-.52-.2-1-.39-1.59-.58a29,29,0,0,0-8.89-4.78l-.26-.07c-4.2-1.13-8.88-1.11-12.63.84-.2.1-.4.2-.6.32a11.93,11.93,0,0,0-3.57,3.25c-.92,1.26-1.58,2.21-2.06,3h0s0,0,0,0a7,7,0,0,0-1.26,4v0c0,.63,0,1.36-.11,2.34a49.71,49.71,0,0,0-.21,5s0,0,0,0a7.91,7.91,0,0,0,1.06,4s0,0,0,0a8.62,8.62,0,0,1,1.16,2.8v.08a.36.36,0,0,1,0,.1,1.84,1.84,0,0,1,.05.25,2,2,0,0,1,0,.26,13.25,13.25,0,0,1,0,2.77v.08c0,.62-.1,1.3-.2,2.07a14.47,14.47,0,0,0,1.06,7.24s0,0,0,0a13.14,13.14,0,0,0,1.23,2.31c.08.13.16.25.25.37s0,.08,0,.12l0,.18.25.18.08,0,.05.05,2.1,1.55h0l.58.43-2,4c.1.58.16.9.16.9a41.73,41.73,0,0,0-1.81,9.21c-.35,4.9-3.61,11.72-3.61,11.72l2.56-1.57s-.65,2.54-1.52,5.61a76.18,76.18,0,0,1-3.2,9.66,32.92,32.92,0,0,0-2.33,8.39l2.1-2.85s-.22,1-.56,2.57h0c0,.17-.07.34-.11.51-.09.44-.19.93-.29,1.44l-.09.45c-.13.63-.26,1.31-.4,2-.06.28-.12.57-.17.86s0,.29-.08.44-.11.58-.17.88c-.18,1-.37,2-.54,3.07a.09.09,0,0,1,0,.05c-.06.36-.12.71-.17,1.06s-.15.94-.22,1.4c0,.23-.07.45-.1.68s-.07.46-.1.68c-.13.9-.24,1.78-.33,2.6,0,.33-.06.66-.09,1-.05.5-.08,1-.1,1.43q0,.32,0,.6c0,.43,0,.83,0,1.19.21-.45.43-.87.64-1.28l0,0s0,.55.06,1.51c0,.15,0,.3,0,.47v0q0,.24,0,.51v.07c0,.26,0,.53,0,.82s0,.61.06.94c0,.61.09,1.28.14,2,.06.86.14,1.78.22,2.75,0,.35.07.7.1,1.06.1,1,.21,2.06.33,3.14.06.54.13,1.08.19,1.62.19,1.54.41,3.12.67,4.67,0,.28.09.55.14.82.09.55.19,1.09.29,1.62s.17.9.27,1.34.19.87.29,1.3.13.57.2.86l.24.93v0c.06.2.11.4.17.6a42.22,42.22,0,0,1,1.85,12.37v0c0,.13,0,.25,0,.37s0,.25,0,.36,0,.39,0,.56c0,.35-.06.64-.09.89s0,.23,0,.32q-.06.36-.09.51a.31.31,0,0,0,0,.08v0l2.76-2.26,0,0,1-.86h0l-1.84-10.52a86.34,86.34,0,0,1,.16-9.78c.41-3.31-.32-10.9-1.05-14.53a12,12,0,0,1-.21-2.15c0-3,.86-5.81.86-7.3,0-.18,0-.41,0-.68,0,0,0,0,0,0h0q0-.15,0-.33c0-.14,0-.29,0-.44v0c-.24-2.74-.88-7.39-.88-7.39s2.42-5.65,3.55-7.67a1,1,0,0,0,.08-.15l0-.06h0l.06-.12L132,178h0c.06-.14.14-.29.22-.45s.16-.35.24-.53c.17-.38.36-.8.55-1.25h0c.49-1.12,1-2.43,1.56-3.7,0-.09.08-.17.11-.25s.14-.33.2-.5c.55-1.33,1.05-2.56,1.39-3.42a3.11,3.11,0,0,0,.12-.3,0,0,0,0,0,0,0c0-.08.05-.15.08-.22l0,0,.18-.46,0,0,0,0a.82.82,0,0,0,0-.11l1.45-8.32s.81-4,1.05-6.14,4.12-10.82,7-14.53,5.9-6.86,12.92-10.18c6.86-3.24,14.72-12.78,15.09-13.23-.15.31-2.69,5.24-3.94,7.74s-6.87,6.14-9.21,8.48-2.91,1.45-5,3.47-9.05,12.44-9.93,17.53-2.1,17-2.1,17-1.45,2.17-1.69,2.5a54.64,54.64,0,0,0-3.56,7.23c-.06.16-.12.34-.18.56s-.07.21-.11.33c-.33,1.08-.76,2.68-1.21,4.39-.61,2.36-1.24,4.92-1.64,6.61,0,.1,0,.21-.07.31-.09.39-.17.71-.22,1,0,.07,0,.13,0,.18l0,.15c0,.15-.05.25-.05.28s0,1.46.15,3.68l.06.71c.07,1,.17,2.06.31,3.29,0,.35.08.71.13,1.09l.09.74a0,0,0,0,0,0,0,.28.28,0,0,0,0,.09c.06.48.13,1,.2,1.5l.12.78a2.54,2.54,0,0,0,0,.29q.06.34.12.72c0,.22.07.45.11.69s0,.23.05.35c.18,1,.39,2.17.61,3.32,0,.17.07.34.09.51h0c.05.25.09.5.13.75s.07.49.11.73l.09.72c0,.24.05.47.07.71s0,.46.05.68,0,.45,0,.67q0,.65,0,1.26c0,6.58-2.27,10.57-2.46,12.54-.14,1.38.7,5.46,1.47,8.81l.21.92-.79,0a10.67,10.67,0,0,0-1.41.09l-.27.68h0c-.06.16-.12.31-.17.46l-.48,1.14,0,0,0,.07c-.27.65-.56,1.28-.86,1.91a6.36,6.36,0,0,1-.28.59c-.23.49-.46,1-.72,1.47h-.08l-.7,1.44-.56.87-.16-.06-.94,1.79-1.47,2.31.21.09-.33.62-.05.1-.07.11-1,1.57-.75,1.1-.73,1.57a36.58,36.58,0,0,1-4.77,8.9c-2.92,3.94-6.61,7.66-11.76,12.84-9.14,9.21-17.47,18.31-27.89,25.81l4.85-.29a169.42,169.42,0,0,0-38.85,34.45,96.78,96.78,0,0,0-7.14,10.15l3.18-3.16-12.9,41.44,4.16-4.35q-3.6,18.3-7.21,36.6l-5.34,27.08,75.06-.56h2.05l250.5-1.89h.77l3,0,9.2-.06h2.08l29.08-.22Q391.38,430,389.19,417.86Z" />
      <path class="GUNDAN_TIGER_BODY_TIGER_BODY_25_cls-1" d="M214.34,175.63c-1.56-5,1.4-9.68.42-11.24-1.26-2-4.95-6.06-5.93-6s-3,3.38-1,9.54c.09.27.2.54.31.8-3.39-4.84-4.79-10.52-2.08-18.21-23.95,3.85-29.72,10.93-29.89,15.21s1,8,3.23,8.66l1.06.29c-.24,8.88,12.42,18.49,17.89,18.49,9.56,0,11.84,1.51,17.7,5.82a27.48,27.48,0,0,0-1.79-6.64l-3.61-4.82L214.5,190S219,181.7,214.34,175.63Zm-33.22-.8c3.39.78,9.52,1.92,9.52,1.92l10.77,5.41Z" />
      <path class="GUNDAN_TIGER_BODY_TIGER_BODY_25_cls-1" d="M284.47,165.72c-.13-4.28-4.38-11.36-22-15.21,2,7.69,1,13.37-1.53,18.21.08-.26.16-.53.23-.8,1.47-6.16,0-9.5-.75-9.54s-3.44,4-4.36,6c-.72,1.57,1.46,6.25.3,11.26-3.43,6.07-.12,14.36-.12,14.36l2.86-2.49-2.66,4.82a34.64,34.64,0,0,0-1.32,6.64c4.32-4.31,6-5.82,13-5.82,4,0,13.33-9.61,13.16-18.49l.79-.29C283.7,173.7,284.59,170,284.47,165.72Zm-18.6,16.44,7.93-5.41s4.51-1.14,7-1.92Z" />
      <path class="GUNDAN_TIGER_BODY_TIGER_BODY_25_cls-1" d="M125.94,226.9c2.92,10.26,1.52,15.51,1.52,15.51l3.83-3.14h0l-1.84-10.52a86.34,86.34,0,0,1,.16-9.78c.41-3.31-.32-10.9-1.05-14.53a12,12,0,0,1-.21-2.15h-.11s-4.05-.53-5.48-3c-.11.18-.2.36-.3.54,0,0,.15,4.44.69,10.15A103,103,0,0,0,125.94,226.9Z" />
      <path class="GUNDAN_TIGER_BODY_TIGER_BODY_25_cls-1" d="M346.94,418.92c-7-3.25-9-15.26-20.06-30.53-12.05-16.58-10.4-44.58-10.4-44.58s-2.29,2.43-2.58,9.3c-4.29-14.44,5.17-43.94,5.17-43.94-11-10.56-20.56-44.89-20.56-44.89l-.18-.36c-1.23-2.56-2.67-6.14-3.74-8.48v0l-2.25-4.6L291,253c.67-1.08,3.06-4.93,5.38-8.09h0l.73-1,.09-.11a26.1,26.1,0,0,1,1.68-2c.31-.32.59-.59.85-.81a13.3,13.3,0,0,1,2.23-1.5l.21-.12c0-.11.07-.21.1-.32q.32-1,.63-2c.24-.79.47-1.58.7-2.37.46-1.6.88-3.19,1.28-4.77v0a15.54,15.54,0,0,0,.1-2,10.54,10.54,0,0,0-.2-1.33c0-.23-.1-.48-.16-.75,0-.12-.05-.25-.08-.38-.13-.61-.28-1.31-.43-2.09-.05-.25-.09-.51-.14-.78a5,5,0,0,1-.09-.56c-.05-.25-.08-.51-.12-.77s-.08-.54-.11-.82c0,0,0,0,0-.07-.05-.4-.09-.81-.13-1.24,0-.13,0-.26,0-.41s0-.62-.06-.94a.08.08,0,0,1,0-.07c-.06-.94-.09-1.95-.06-3,0-.19,0-.38,0-.58v-.12c0-.62.05-1.27.11-1.93,0-.36,0-.72.09-1.09s.05-.53.08-.8.06-.54.1-.82c.2-1.48.36-2.88.5-4.2.05-.44.09-.87.13-1.29s.1-1,.14-1.42c0-.29.05-.58.08-.86a50.36,50.36,0,0,1-3.64,7.27l0,.21,0,.21a0,0,0,0,1,0,0c0,.2-.05.39-.08.57s0,.1,0,.15,0,.24,0,.36c-.34,2.58-1.2,6.56-1.27,6.88a12.25,12.25,0,0,1-1.15,1.73l.06.4c0,.08,0,.17,0,.27a.78.78,0,0,1,0,.16q0,.17.06.36v0c0,.14,0,.28.06.44a.51.51,0,0,1,0,.17c0,.21.06.42.09.65.07.47.14,1,.21,1.48,0,.3.07.61.11.91,0,0,0,.09,0,.14.05.44.1.87.14,1.27,0,.15,0,.3,0,.45v0c0,.19,0,.36,0,.53s0,.16,0,.24,0,.3,0,.43c0,2-.5,8-.5,8s-1.48.45-4.28,4.59c-.32.47-.64.91-1,1.33l-.38.49c-.24.32-.49.62-.73.91s-.55.65-.81.93-.45.5-.67.72a19.6,19.6,0,0,1-2.05,1.91l-2.79,5.84-.16,1.11,0,.15c.46-.54.89-1,1.26-1.42l.07-.07c.42-.46.77-.83,1-1.09a23.1,23.1,0,0,1,2.54-2.36v3l-.2-2.42-6.19,6.18c-.67.83-1.36,1.75-2.06,2.74-.35.5-.71,1-1.06,1.53l.42-3.6s5.57-11.31,5.65-14.26-.79-3.19.07-6,.79-.62,2.29-3.92,3.07-6.95,3.07-8.89a13.89,13.89,0,0,1,.45-3c-5.64,6.48-11.95,17.24-18.78,22.24-.12-1.59-.26-3-.42-4.33-.79,1.24-7.86,11.57-18.73,3.32,0,0-6.07-2.43-9.08.4s-4.13,7.91-4.13,7.91l-4.21,2.18-4.75-2.18s-1.26-5.08-4.66-7.91-10.23-.4-10.23-.4c-10,9.3-24.46-3.44-24.46-3.44-.2,1.34-.38,2.81-.53,4.45-9.91-4.45-22-6.45-38.11-25.13l-.07.85s1.52,3.13,1.52,5.07,2.36,5.6,4.63,8.89,2.15,1.13,3.43,3.92,0,3,.12,6,8.5,14.26,8.5,14.26l.29,1.72h0c-.61-.59-1.22-1.15-1.81-1.68l-.52-.46c-.12-.12-.25-.22-.37-.33l-.64-.55c-1.65-1.41-3.1-2.53-4.11-3.27l-.7-.5,0,0,0,0,.7.5v0l-3.6-5a38.62,38.62,0,0,1-8.42-6.29c-4.21-4.14-6.43-4.59-6.43-4.59s-.76-5.92-.76-8a59.77,59.77,0,0,1,1.4-8,12.74,12.74,0,0,1-1.72-1.73c-.11-.31-1.4-4.3-1.93-6.88l-8.08-5.39h0c.22,1.36.48,2.82.78,4.36,2,10.26-1.61,16.07-1.85,18.58-.15,1.51.86,6.25,1.68,9.73A29.42,29.42,0,0,1,149,241c.33.19.68.43,1.06.7,0,0-.7,2.08-2,5.52-.33.9-.7,1.9-1.11,3l-3.47,9-3,7.27-.22.7c-.74,3.54-7.37,34.06-17.79,43.83,0,0,13.69,29,10.52,43.25-1.07-6.76-3.87-9.16-3.87-9.16s4.88,27.56-6.65,43.87-11.53,28.85-20.9,30.68L99,444.2l250.45-2ZM150.45,242c-.13-.11-.26-.2-.39-.29,3.86,2.81,9.88,9.51,11.37,11.21l-.78-.88A95.59,95.59,0,0,0,150.45,242Zm11.06,11,.27.31h0Zm27,10.44-.16-.11Zm-4.63-3.91c-.91-.83-1.49-1.39-1.5-1.41h0S183,258.67,183.92,259.51Zm1.24,1.12-.11-.09Zm-.68-.6-.21-.2C184.33,259.9,184.41,260,184.48,260Zm-2.46,1.6-.2-.13Zm-.48-.31-.27-.17ZM181,261l-.33-.2Zm-.59-.35-.38-.23Zm-.6-.36-.45-.25Zm-.5-.28c-.82-.46-1.68-.93-2.48-1.35C177.63,259.07,178.49,259.54,179.31,260Zm-2.52-1.37-.54-.3Zm-.63-.34-1.78-.93Zm-1.9-1-.11-.05Zm-.31-.16-.25-.12Zm8.44,4.76,0,0h0Zm-.07-1.14c0,.09,0,.16,0,.24A1.94,1.94,0,0,1,182.32,260.75Zm0,.37c0,.12,0,.26,0,.39C182.37,261.37,182.36,261.25,182.35,261.12Zm7.75,3.44.11.07-.1-.06Zm2.37-.64c1.61.77,4.18,2.05,6.38,3.33-1.11-.64-2.31-1.29-3.44-1.86S193.27,264.3,192.47,263.92Zm7.19,3.82-.49-.3Zm1.91,1.28.2.15a6.76,6.76,0,0,0,.61.44c-.21-.14-.42-.29-.61-.44Zm-1.45-1,.32.2Zm.78.51.25.17Zm9.73,4.13h0a15.84,15.84,0,0,0,6.21,7.6A15.79,15.79,0,0,1,210.63,272.67Zm56.3-4.89h0a12.67,12.67,0,0,1,.29,3.17h0A12.81,12.81,0,0,0,266.93,267.78Zm8.21-5.87h0v3.35h0Z" />
      <path class="GUNDAN_TIGER_BODY_TIGER_BODY_25_cls-4" d="M258.51,237.39l0,0-3.2,3s-6.07-2.43-9.08.4-4.13,7.91-4.13,7.91l-4.21,2.18-4.75-2.18s-1.26-5.08-4.66-7.91-10.23-.4-10.23-.4l-3.62-3s.22-.37,2.83-3.88,5.36-2.7,9.41-1.17a33.55,33.55,0,0,0,7,1.54c2.25.3,4,.4,4,.4s6.18-.41,9.77-1.94,6-2.34,8.34,1.17c2,3,2.4,3.69,2.49,3.84Z" />
      <path class="GUNDAN_TIGER_BODY_TIGER_BODY_25_cls-5" d="M212.85,325.73c-.57-1.16-6-5.82-9.17-8.15s-5.73-4.19-7.24-7.46-24.3-21.67-24.3-21.67L158,282.79c14.64,13.71,29.7,28.43,48.29,48.85h0c6,4.67,16.81,10.34,17.21,10.55L219.73,336S213.43,326.9,212.85,325.73Z" />
      <path class="GUNDAN_TIGER_BODY_TIGER_BODY_25_cls-5" d="M262.48,317.58c-2.57,2.33-7,7-7.46,8.15S249.43,336,249.43,336l-3.12,6.22s12.9-8.32,16.4-13.21c1.74-2.44,5.18-5.09,8.26-7.27h0a171,171,0,0,0,10.57-26.64c-5.46,5.63-12.46,13.07-13.19,15C267.14,313.39,265,315.25,262.48,317.58Z" />
      <path class="GUNDAN_TIGER_BODY_TIGER_BODY_25_cls-5" d="M179.13,162.67c-.91,1.3-.46,3,0,3.07s.7,1.78,1.83,2.43,12.49,1.93,12.49,1.93-5.54-2.82-7.4-6.54a9.91,9.91,0,0,1-.4-7.43,14.59,14.59,0,0,0-4.69-4.92,36.48,36.48,0,0,0-7.67-3.8c3,6,5.73,7.67,6.46,9.53A6.81,6.81,0,0,1,179.13,162.67Z" />
      <path class="GUNDAN_TIGER_BODY_TIGER_BODY_25_cls-5" d="M146.25,151.45c.88-5.09,7.83-15.51,9.93-17.53s2.66-1.13,5-3.47,7.91-5.89,9.21-8.48,3.79-7.43,3.94-7.74c-.37.45-8.23,10-15.09,13.23-7,3.32-10,6.46-12.92,10.18s-6.79,12.44-7,14.53-1.05,6.14-1.05,6.14l-1.45,8.32s-3.88,9.78-5,11.79-3.55,7.67-3.55,7.67.64,4.65.88,7.39c.06.63.09,1.16.09,1.5,0,1.85-1.38,5.81-.65,9.45S130,215.65,129.61,219a86.34,86.34,0,0,0-.16,9.78l1.84,10.52.71-.58a5.74,5.74,0,0,1,3-1.11,12.21,12.21,0,0,1,2.2-.07c-.82-3.48-1.83-8.22-1.68-9.73.24-2.51,3.87-8.32,1.85-18.58a95.92,95.92,0,0,1-2-17.28c0-.4,2.66-11.31,3.55-13.77a54.64,54.64,0,0,1,3.56-7.23c.24-.33,1.69-2.5,1.69-2.5S145.36,156.54,146.25,151.45Z" />
      <path class="GUNDAN_TIGER_BODY_TIGER_BODY_25_cls-5" d="M166.13,250.64v0a75.12,75.12,0,0,1,7.45,6.29l-.29-1.72s-8.39-11.31-8.5-14.26,1.18-3.19-.12-6-1.18-.62-3.43-3.92-4.63-6.95-4.63-8.89-1.52-5.07-1.52-5.07l.22-2.58,1.4-2.58-2.61-6.24s-6.11-14.76-6.65-19.5a81,81,0,0,0-2.26-10.76,88.52,88.52,0,0,1,0,9.79A63.42,63.42,0,0,1,144,195.72a35.6,35.6,0,0,0,.66,14.5c.53,2.58,1.82,6.57,1.93,6.88a12.74,12.74,0,0,0,1.72,1.73,59.77,59.77,0,0,0-1.4,8c0,2,.76,8,.76,8s2.22.45,6.43,4.59a38.62,38.62,0,0,0,8.42,6.29Z" />
      <path class="GUNDAN_TIGER_BODY_TIGER_BODY_25_cls-5" d="M164.36,158.85c.87-4.63,2.11-9.9,3.64-12.6s.67-3.23,1.86-6,2.8-6,3.23-7.05,1.45-3.63,1.59-4c-.5.9-8.45,15.19-9.18,16.91a6,6,0,0,1-2.05,3c-1.24,1.19-1.29,1.08-3.61,3.29s-4.57,3.77-4.09,4.79-.43,6.68-.81,8.94-1.13,14.58-.7,18.08a27.22,27.22,0,0,0,1.78,6.63s1.13,6,2.37,11.79,3,8.45,3.61,9.21a58.33,58.33,0,0,1,5.16,8.88c1.24,3,2.8,4.63,3.61,4.85s5-4.37,7.69-6.63,3.5-2.9,4.58-4.41a38.8,38.8,0,0,1,6.3-6.09,9.42,9.42,0,0,1,2.58-1.13,13.63,13.63,0,0,0,2.53-.8s-7.64-.22-10.76,2.15-3.24,2.37-5.07,3.23,1.08.22-.61,1.62-2.55,1.4-2.55,1.4l-1.73.75s-5.1-6-6-11-3.85-12.39-4.82-13.57,0-5.39,0-5.39-1.3-8.83-.65-15S163.5,163.48,164.36,158.85Z" />
      <path class="GUNDAN_TIGER_BODY_TIGER_BODY_25_cls-5" d="M179.49,189.86c1,.6,8.19,5.82,10.56,7.16s4.57,3.45,9.15,7.81c-.49-1.18-4.85-7.91-4.85-7.91s-1.4-2.86-2.63-3.56-8.67-7.16-8.67-7.16a15.26,15.26,0,0,1-3.61-4.9,38.62,38.62,0,0,1-1.43-7.08,42.69,42.69,0,0,0-2.34,3.92c-.11.5.43,7.58.43,7.74A19.54,19.54,0,0,0,179.49,189.86Z" />
      <path class="GUNDAN_TIGER_BODY_TIGER_BODY_25_cls-5" d="M278.41,151.21a15,15,0,0,0-2.61,4.92,17.31,17.31,0,0,1-.23,7.43,15.85,15.85,0,0,1-4.13,6.54s6.34-1.29,7-1.93.77-2.35,1-2.43.51-1.77,0-3.07a11.66,11.66,0,0,1-.34-5.73c.4-1.86,1.93-3.55,3.6-9.53A19.3,19.3,0,0,0,278.41,151.21Z" />
      <path class="GUNDAN_TIGER_BODY_TIGER_BODY_25_cls-5" d="M274.1,197.05c1.7-1.34,7-6.54,7.66-7.13a22.56,22.56,0,0,0,2.62-4c0-.16,1-7.21,1-7.71s-1.19-3.92-1.19-3.92a61.08,61.08,0,0,1-1.6,7.07,18.33,18.33,0,0,1-2.84,4.88s-5.53,6.44-6.41,7.14-2.08,3.54-2.08,3.54-1.51,6.7-1.94,7.88C272.75,200.49,272.4,198.39,274.1,197.05Z" />
      <path class="GUNDAN_TIGER_BODY_TIGER_BODY_25_cls-5" d="M300.39,185.23c-.21-4.41,0-9.79,0-9.79s-1.14,6-1.5,10.76-4.42,19.49-4.42,19.49l-1.73,6.25.93,2.58.14,2.58a22,22,0,0,0-1,5.07c0,1.94-1.57,5.6-3.07,8.89s-1.44,1.13-2.29,3.92,0,3-.07,6-5.65,14.26-5.65,14.26l-.42,3.61a65.94,65.94,0,0,1,4.6-6.09h0l.18-1.26,2.79-5.84a29.09,29.09,0,0,0,5.59-6.29c2.8-4.14,4.28-4.59,4.28-4.59s.5-5.92.5-8-.94-8-.94-8a12.25,12.25,0,0,0,1.15-1.73c.07-.32.93-4.3,1.27-6.88a52.24,52.24,0,0,0,.45-14.5A93.91,93.91,0,0,1,300.39,185.23Z" />
      <path class="GUNDAN_TIGER_BODY_TIGER_BODY_25_cls-5" d="M304.55,178.23l1.44,2.85a45.33,45.33,0,0,0-1.6-8.39c-1.11-3.26-3.24-15.28-3.24-15.28l1.77,1.58s-2.25-6.82-2.49-11.71c-.07-1.4-.2-2.75-.35-4h0s0,0,0,0a43.92,43.92,0,0,0-2.28-5.63,25.39,25.39,0,0,0-8.58-10.18c-4.55-3.23-13.75-12.75-14-13.23.1.31,2.79,5.24,3.62,7.74s7.56,6.14,9.11,8.48,1.94,1.45,3.33,3.47,6,12.44,6.59,17.53,1.4,17,1.4,17,1,2.17,1.12,2.5.8,2.11,1.45,4.1c.36,1.11.7,2.25.91,3.13.59,2.46,2.36,13.37,2.36,13.77,0,.18,0,1.64-.12,4.14h0a39.66,39.66,0,0,1,2,5.08C307.16,195.08,304.55,178.23,304.55,178.23Z" />
      <path class="GUNDAN_TIGER_BODY_TIGER_BODY_25_cls-5" d="M209.16,108.24c6.24-.75,6-1.94,13.67-2.69a86.63,86.63,0,0,1,15.08,0,32,32,0,0,1,4.68-.33,27.49,27.49,0,0,1,4.39.33c4.6.75,4.47,1.94,8.23,2.69s6.87,2.48,9.4,3.45,5.31,3.77,8.3,7.86c-2.53-6-8.11-10.71-9.66-13.08s-6.09-4.84-9.33-5.81-1.95-.11-6,0-7-1.79-8.16-2.22a2.27,2.27,0,0,0-1.88,0,6.06,6.06,0,0,0-3.12,0,59.27,59.27,0,0,1-13.57,1.3c-6.68-.11-4.52-1-9.91,0s-12.92,3.44-15.5,5.81-11.85,8-16.05,14c5-4.09,9.59-6.89,13.79-7.86S202.91,109,209.16,108.24Z" />
      <path class="GUNDAN_TIGER_BODY_TIGER_BODY_25_cls-5" d="M250,141.92c1.78,2.5,4.93,5.25,7,8.08s2.91,4.28,4,5.08,4.45,6.64,4.8,9.7a50.33,50.33,0,0,1,.3,6.05s1.28-8.56.79-13.65-2.21-7.75-5.77-11.14-4.69-4.12-7.42-8.89-5-6.54-6.11-7.1a35.78,35.78,0,0,1-4-3L243,118.9s9.66,3.64,11.56,5.66a23.33,23.33,0,0,0,6.71,5.16c3.39,1.86,9.56,2.91,12.4,4.93s4.39,3.39,4.39,3.39a58,58,0,0,0-8.3-14c-5.52-6.78-10.62-8.48-13.71-9a16.28,16.28,0,0,1-6.58-2.59c-1.9-1.21-2.2-1.37-3.38-1.61s-5-.89-5-.89l-3.2-1.13-4.36,1.13s-5.17.64-6.79.89-2,.4-4.6,1.61a27.1,27.1,0,0,1-9,2.59c-4.2.56-11.15,2.26-18.66,9a57.06,57.06,0,0,0-11.3,14s2.1-1.37,6-3.39,12.28-3.07,16.88-4.93a32.47,32.47,0,0,0,9.14-5.16c2.59-2,15.73-5.66,15.73-5.66l-.8,8.16a50.82,50.82,0,0,1-5.41,3c-1.54.56-4.61,2.34-8.32,7.1s-5.25,5.5-10.1,8.89-7.19,6.05-7.86,11.14,1.08,13.65,1.08,13.65a37.86,37.86,0,0,1,.4-6.05c.49-3.06,5.09-8.89,6.54-9.7s2.59-2.26,5.42-5.08,7.1-5.58,9.52-8.08a11.66,11.66,0,0,1,7.27-3.47c2.26-.33,3.23-1.7,4.93-2.83a7.67,7.67,0,0,1,4.28-.89,4.17,4.17,0,0,1,.44,0,4.09,4.09,0,0,1,2.7.91c1.25,1.13,2,2.5,3.62,2.83A7.84,7.84,0,0,1,250,141.92Z" />
      <path class="GUNDAN_TIGER_BODY_TIGER_BODY_25_cls-5" d="M134.79,240.24s15.52,12.55,20.32,16.72-2.81.51,9.7,6.8,12,7.52,13.84,8.91,13.09,7.93,13.09,7.93,4.34,6,10.8,8.5a52.33,52.33,0,0,1,11.28,6l7.06,9.74s-22.51-14.16-27.15-15.56-9.31-.34-12.44-3-11.93-9.09-13.58-11-16-8.44-16.36-8.68-17.18-16.46-18.41-17.93-2-2.47-2-2.47l3.09-6.34Z" />
      <path class="GUNDAN_TIGER_BODY_TIGER_BODY_25_cls-5" d="M249.78,304.82l4.9-9.73s4.77-.46,7.82-6c2.47-4.46,7.49-8.49,7.49-8.49s7.81-4.54,9.08-5.93.92-4.62,9.6-10.92c3.22-2.33,4.52-3.3,5.05-3.79l-4.39,13.18s-6,4.89-7.05,6.69a15.37,15.37,0,0,1-4.54,4.55c-1.46.93-6.7,6.06-9.79,9.14s-9.76,3.88-11.33,5.19S249.78,304.82,249.78,304.82Z" />
      <path class="GUNDAN_TIGER_BODY_TIGER_BODY_25_cls-5" d="M272.36,206.45a6.75,6.75,0,0,1,5.15,2.15,15.28,15.28,0,0,1,2.79,6.25l1.14.75s3.39-6,4-11,2.56-12.39,3.2-13.57,0-5.39,0-5.39a111.78,111.78,0,0,0,.43-15c-.43-6.14-.85-7.22-1.43-11.85s-1.4-9.9-2.41-12.6-.45-3.23-1.23-6-1.86-6-2.15-7.05-.87-3.28-1-3.89c.57,1.53,5.59,15.13,6.06,16.81a6.58,6.58,0,0,0,1.36,3c.82,1.19.86,1.08,2.4,3.29s3,3.77,2.71,4.79.29,6.67.54,8.94.75,14.58.46,18.08a37.84,37.84,0,0,1-1.18,6.63s-.75,6-1.57,11.79-2,8.45-2.39,9.21a69.92,69.92,0,0,0-3.44,8.88c-.82,3-1.85,4.63-2.39,4.85s-4.65-4.37-6.44-6.63-1.07-2.85-1.78-4.36-.55-4.09-1.26-5.62A6.18,6.18,0,0,0,272.36,206.45Z" />
      <path class="GUNDAN_TIGER_BODY_TIGER_BODY_25_cls-5" d="M101.56,284.73s18.11,7.45,21.61,12,13,19.8,18.52,26.68S160,340.88,160,340.88l8.25,11.54s13.28,27.61,19.1,32.74c-4.66-11.89-8.85-23.77-10.25-29.36S172,342.05,169,336.92s-21.23-20.19-25.47-24.42-6.57-10.3-6.57-11.11-1.42-8-1.42-8l-1.91-2.64s-12.87-5.52-16-6.56-12.47-3-12.47-3Z" />
      <path class="GUNDAN_TIGER_BODY_TIGER_BODY_25_cls-5" d="M40.05,354s16.83-.41,20.79,0,23.53,9.26,27.26,11.83S102,373,102.5,373.74s13.33,10,13.33,10l6.59,14.44s-13-12.81-18.28-15.37-19.07-7-20-7.25-12.12-7.9-17.48-7.9H54.08L37,363.79Z" />
      <path class="GUNDAN_TIGER_BODY_TIGER_BODY_25_cls-5" d="M30.84,399.19s23.24,9.28,24.17,10,18.64,3.49,18.64,3.49l20.51,3.5s-21,2.75-23.77,2.77-17.94-2.77-18.64-2.77H42.43l-13.89-5.32Z" />
      <path class="GUNDAN_TIGER_BODY_TIGER_BODY_25_cls-5" d="M59.86,323.37s30.18,15.47,37,19.06,23.61,18,23.61,18,24,30.05,26.8,32.15S168,401,168,401s-12.81-8.16-16.07-11.18-17.52-21.91-18.9-24.24-2.93-5.35-2.93-5.35-8.93-11.42-10.56-14S106,334.83,106,334.83s-16.53-6.3-18.63-10-10.48-6.16-10.48-6.16l-10.86-1Z" />
      <path class="GUNDAN_TIGER_BODY_TIGER_BODY_25_cls-5" d="M326.13,290.62c-2.88,2.07-5.56,4.32-6.57,6.11C317,301.27,310,316.53,306,323.41s-13.43,17.47-13.43,17.47l-6,11.54s-9.74,27.61-14,32.74c3.42-11.89,6.49-23.77,7.52-29.36a101.91,101.91,0,0,1,6-18.88c2.22-5.12,15.56-20.19,18.66-24.42a30.76,30.76,0,0,0,4.82-11.11c0-.82,1-8,1-8l1.4-2.64s5.72-3.35,9.34-5.32Q323.68,288,326.13,290.62Z" />
      <path class="GUNDAN_TIGER_BODY_TIGER_BODY_25_cls-5" d="M380.33,364.53l-10.13,3.15H361c-3.93,0-12.13,7.69-12.81,7.9s-10.76,4.68-14.66,7.25-13.4,15.37-13.4,15.37l4.83-14.44s9.39-9.32,9.77-10,7.82-5.36,10.55-7.92,17.08-11.42,20-11.83c1.95-.28,8.17-.18,12-.09Q378.81,359.23,380.33,364.53Z" />
      <path class="GUNDAN_TIGER_BODY_TIGER_BODY_25_cls-5" d="M388,411.31l-9.26,4.84h-6.83c-.52,0-11.62,2.79-13.67,2.77s-17.42-2.77-17.42-2.77l15-3.5s13-2.8,13.66-3.49,12.42-7.07,16.42-9.26Z" />
      <path class="GUNDAN_TIGER_BODY_TIGER_BODY_25_cls-5" d="M361.78,326.29c-6.66,4.67-19.31,13.53-22.95,16.14-5,3.58-17.31,18-17.31,18s-17.59,30.05-19.64,32.15-14.39,8-15.16,8.37c.67-.6,9.44-8.26,11.75-11.16s12.83-21.91,13.84-24.24,2.16-5.35,2.16-5.35,6.54-11.42,7.74-14,9.91-11.41,9.91-11.41,12.12-6.3,13.65-10,7.69-6.16,7.69-6.16l.81-.1Q358.14,322.27,361.78,326.29Z" />
      <path d="M274.89,180.69A11.27,11.27,0,0,1,277.8,177c-.81,1-1.77,2.36-3.13,4.17C274.75,181,274.82,180.84,274.89,180.69Z" />
      <path d="M281,174.21a8.29,8.29,0,0,0-3.15,2.74,0,0,0,0,1,0,0,11.27,11.27,0,0,0-2.91,3.73c-.07.15-.14.3-.22.44l-.42.55c3.27-6,1.2-7-1.92-8.07C274.31,173,278.53,173.78,281,174.21Z" />
      <path d="M257.8,191.49a5.79,5.79,0,0,1,3.93-2.08A15.88,15.88,0,0,0,257.8,191.49Z" />
      <path d="M258.9,181.24s-1.41,8,3.35,8l-.52.21a5.79,5.79,0,0,0-3.93,2.08,5,5,0,0,0-1.92,2.6A29.4,29.4,0,0,1,258.9,181.24Z" />
      <path d="M215.68,194.09a5.3,5.3,0,0,0-2.51-2.57l0,0a8.77,8.77,0,0,0-5.25-2.09l-.7-.21c6.34,0,4.46-8,4.46-8A23.91,23.91,0,0,1,215.68,194.09Z" />
      <path d="M218.27,240.37l14.89,8.31s-2.23-7.06-5.65-8.55S218.27,240.37,218.27,240.37Z" />
      <path d="M256.1,240.37l-14.37,8.31s2.15-7.06,5.45-8.55S256.1,240.37,256.1,240.37Z" />
      <path d="M213.14,191.5a24.52,24.52,0,0,0-5.25-2.09A8.77,8.77,0,0,1,213.14,191.5Z" />
      <path d="M193.77,173.61c-4.17,1-6.92,2.11-2.57,8.07l-.56-.56c-.1-.14-.2-.28-.29-.43a12.49,12.49,0,0,0-3.88-3.73h0a10.73,10.73,0,0,0-4.19-2.74C185.5,173.78,191.12,173,193.77,173.61Z" />
      <path d="M190.35,180.69c.09.15.19.29.29.43-1.8-1.81-3.09-3.14-4.17-4.16A12.49,12.49,0,0,1,190.35,180.69Z" />
      <path class="GUNDAN_TIGER_BODY_TIGER_BODY_25_cls-1" d="M193.77,173.61c-2.65-.61-8.27.17-11.51.6a10.73,10.73,0,0,1,4.19,2.74,19.92,19.92,0,0,0-8.44-2.74s8.8-.7,12.53-.88,13.35,1.11,19.65,6S216,195,216,195a16.07,16.07,0,0,0-2.85-3.47,5.3,5.3,0,0,1,2.51,2.57,23.91,23.91,0,0,0-4-12.85s1.88,8-4.46,8l.7.21a18.3,18.3,0,0,0-3.33,0c-6.1.43-10.12-2.56-13.92-8.27l.56.56C186.85,175.72,189.6,174.65,193.77,173.61Z" />
      <path class="GUNDAN_TIGER_BODY_TIGER_BODY_25_cls-1" d="M260,179.34a21.46,21.46,0,0,1,14.75-6c2.8.18,9.4.88,9.4.88a12.38,12.38,0,0,0-6.34,2.74,8.29,8.29,0,0,1,3.15-2.74c-2.43-.43-6.65-1.21-8.63-.6,3.12,1,5.19,2.11,1.92,8.07l.42-.55c-2.85,5.7-5.87,8.69-10.45,8.26a10.25,10.25,0,0,0-2.49,0l.52-.21c-4.76,0-3.35-8-3.35-8a29.4,29.4,0,0,0-3,12.85,5,5,0,0,1,1.92-2.6,15.19,15.19,0,0,0-2.17,3.5S255.28,184.23,260,179.34Z" />
      <g class="GUNDAN_TIGER_BODY_TIGER_BODY_25_cls-6">
        <path class="GUNDAN_TIGER_BODY_TIGER_BODY_25_cls-7" d="M264.74,176.31a5.68,5.68,0,1,0,5.68,5.68A5.67,5.67,0,0,0,264.74,176.31Z" />
        <circle cx="264.74" cy="181.99" r="2.74" />
        <circle class="GUNDAN_TIGER_BODY_TIGER_BODY_25_cls-1" cx="263.25" cy="179.55" r="1.25" />
        <circle class="GUNDAN_TIGER_BODY_TIGER_BODY_25_cls-8" cx="264.74" cy="181.99" r="5.68" />
      </g>
      <path class="GUNDAN_TIGER_BODY_TIGER_BODY_25_cls-7" d="M200.13,176.31a5.68,5.68,0,1,0,5.68,5.68A5.68,5.68,0,0,0,200.13,176.31Z" />
      <circle cx="200.13" cy="181.99" r="2.74" />
      <circle class="GUNDAN_TIGER_BODY_TIGER_BODY_25_cls-1" cx="198.64" cy="179.55" r="1.25" />
      <circle class="GUNDAN_TIGER_BODY_TIGER_BODY_25_cls-9" cx="200.13" cy="181.99" r="5.68" />
      <path class="GUNDAN_TIGER_BODY_TIGER_BODY_25_cls-8" d="M133.17,138.06a41.73,41.73,0,0,0-1.81,9.21c-.35,4.9-3.61,11.72-3.61,11.72l2.56-1.57s-.65,2.54-1.52,5.61a76.18,76.18,0,0,1-3.2,9.66,32.92,32.92,0,0,0-2.33,8.39l2.1-2.85s-3.79,16.85-3.56,22.91c.22-.46.44-.89.66-1.31.1-.18.19-.36.3-.54" />
      <path class="GUNDAN_TIGER_BODY_TIGER_BODY_25_cls-8" d="M305,196.06a39.66,39.66,0,0,1,2,5.08c.16-6.06-2.45-22.91-2.45-22.91l1.44,2.85a45.33,45.33,0,0,0-1.6-8.39c-1.11-3.26-3.24-15.28-3.24-15.28l1.77,1.58s-2.25-6.82-2.49-11.71c-.07-1.4-.2-2.75-.35-4" />
      <path class="GUNDAN_TIGER_BODY_TIGER_BODY_25_cls-8" d="M173.57,102.74h0l0,0c1-.46,17.14-8,56.56-8,15.77,0,34.35,5.35,39.88,7.06l1.63.52" />
      <path class="GUNDAN_TIGER_BODY_TIGER_BODY_25_cls-8" d="M190.64,181.12c3.8,5.71,7.82,8.7,13.92,8.27a18.3,18.3,0,0,1,3.33,0,25.6,25.6,0,0,1,5.28,2.11A16.07,16.07,0,0,1,216,195s.46-10.76-5.83-15.65-15.92-6.18-19.65-6-12.53.88-12.53.88a19.92,19.92,0,0,1,8.44,2.74A45.15,45.15,0,0,1,190.64,181.12Z" />
      <line class="GUNDAN_TIGER_BODY_TIGER_BODY_25_cls-8" x1="173.57" y1="102.74" x2="170.77" y2="104.62" />
      <path class="GUNDAN_TIGER_BODY_TIGER_BODY_25_cls-8" d="M132.57,110.94s-1.14-13.29,5.13-15.37c13.19-4.39,27.84,13.82,27.84,13.82l-10,4.1,1.4,1.66s-9.7,1.58-13.55.62l3.15,2.79-9.71,4.55h3.41l-2.75,6" />
      <path class="GUNDAN_TIGER_BODY_TIGER_BODY_25_cls-8" d="M133.17,138.06s1.46-3.49,2.27-4.89" />
      <path class="GUNDAN_TIGER_BODY_TIGER_BODY_25_cls-8" d="M258.51,237.38c-.09-.15-.53-.88-2.49-3.84-2.32-3.51-4.75-2.7-8.34-1.17s-9.77,1.94-9.77,1.94-1.74-.1-4-.4a33.55,33.55,0,0,1-7-1.54c-4-1.53-6.79-2.34-9.41,1.17s-2.83,3.88-2.83,3.88l3.62,3s6.83-2.43,10.23.4,4.66,7.91,4.66,7.91l4.75,2.18,4.21-2.18s1.12-5.08,4.13-7.91,9.08-.4,9.08-.4l3.2-3,0,0" />
      <path class="GUNDAN_TIGER_BODY_TIGER_BODY_25_cls-8" d="M214.65,237.42a27.3,27.3,0,0,1-.56-11.91c1.13-6.71,3.47-13.57,1.93-21.41" />
      <path class="GUNDAN_TIGER_BODY_TIGER_BODY_25_cls-8" d="M258.5,237.42v0h0a27.57,27.57,0,0,0,.55-11.87c-1.13-6.71-3.47-13.57-1.94-21.41" />
      <path class="GUNDAN_TIGER_BODY_TIGER_BODY_25_cls-8" d="M131.29,239.27l-3.83,3.14s1.4-5.25-1.52-15.51A103,103,0,0,1,123.15,210c-.54-5.71-.69-10.15-.69-10.15" />
      <path class="GUNDAN_TIGER_BODY_TIGER_BODY_25_cls-8" d="M173.59,257a75.12,75.12,0,0,0-7.45-6.29l-.7-.5a31.33,31.33,0,0,0-3.66-2.36v5.49s-7.32-8.41-11.75-11.63c-.38-.27-.73-.51-1.06-.7a29.42,29.42,0,0,0-11.78-3.46,12.21,12.21,0,0,0-2.2.07,5.74,5.74,0,0,0-3,1.11l-.71.58" />
      <path class="GUNDAN_TIGER_BODY_TIGER_BODY_25_cls-8" d="M285.91,252.74c1-1.19,1.86-2.08,2.37-2.58a23.1,23.1,0,0,1,2.54-2.36v5.49s2.84-4.69,5.56-8.4" />
      <path class="GUNDAN_TIGER_BODY_TIGER_BODY_25_cls-8" d="M281.31,258.84c1.05-1.58,2.12-3,3.12-4.28.52-.66,1-1.27,1.48-1.81" />
      <path class="GUNDAN_TIGER_BODY_TIGER_BODY_25_cls-8" d="M237.91,259.59s-6.54,7-20.27,7a26,26,0,0,1-8.24-1.35c-9.85-3.32-17.06-12.34-16.23-22.63,0-.43.07-.85.11-1.25.15-1.64.33-3.11.53-4.45,1.26-8.47,3.56-11.76,7.27-18.77,4.45-8.4,4.77-10.91,4.77-10.91" />
      <path class="GUNDAN_TIGER_BODY_TIGER_BODY_25_cls-8" d="M237.91,250.86v8.73s5.36,7,16.61,7a17.65,17.65,0,0,0,6.13-1.11c8.39-3.1,14.63-12.32,13.92-22.87,0-.43-.06-.85-.09-1.25-.12-1.59-.26-3-.42-4.33a46.87,46.87,0,0,0-1.56-7.93" />
      <path class="GUNDAN_TIGER_BODY_TIGER_BODY_25_cls-8" d="M174.7,129.14a0,0,0,0,0,0,0" />
      <path class="GUNDAN_TIGER_BODY_TIGER_BODY_25_cls-8" d="M174.69,129.17a0,0,0,0,1,0,0" />
      <path class="GUNDAN_TIGER_BODY_TIGER_BODY_25_cls-8" d="M174.68,129.18c-.5.9-8.45,15.19-9.18,16.91a6,6,0,0,1-2.05,3c-1.24,1.19-1.29,1.08-3.61,3.29s-4.57,3.77-4.09,4.79-.43,6.68-.81,8.94-1.13,14.58-.7,18.08a27.22,27.22,0,0,0,1.78,6.63s1.13,6,2.37,11.79a36.21,36.21,0,0,0,1.16,4.22,17.31,17.31,0,0,0,2.45,5,58.33,58.33,0,0,1,5.16,8.88c1.24,3,2.8,4.63,3.61,4.85.39.1,2-.91,3.93-2.25s2.37-3.21,3.76-4.38c2.69-2.26,3.5-2.9,4.58-4.41a38.8,38.8,0,0,1,6.3-6.09,9.42,9.42,0,0,1,2.58-1.13,13.63,13.63,0,0,0,2.53-.8s-7.64-.22-10.76,2.15-3.24,2.37-5.07,3.23,1.08.22-.61,1.62-2.55,1.4-2.55,1.4l-1.73.75s-5.1-6-6-11-3.85-12.39-4.82-13.57,0-5.39,0-5.39-1.3-8.83-.65-15,1.29-7.22,2.15-11.85,2.11-9.9,3.64-12.6.67-3.23,1.86-6,2.8-6,3.23-7.05S174.54,129.54,174.68,129.18Z" />
      <path class="GUNDAN_TIGER_BODY_TIGER_BODY_25_cls-8" d="M137.19,237.5c-.82-3.48-1.83-8.22-1.68-9.73.24-2.51,3.87-8.32,1.85-18.58-.3-1.54-.56-3-.78-4.36a87.5,87.5,0,0,1-1.23-12.92c0-.25,1.05-4.64,2.05-8.49.6-2.28,1.17-4.36,1.5-5.28a54.64,54.64,0,0,1,3.56-7.23c.24-.33,1.69-2.5,1.69-2.5s1.21-11.87,2.1-17,7.83-15.51,9.93-17.53,2.66-1.13,5-3.47,7.91-5.89,9.21-8.48,3.79-7.43,3.94-7.74" />
      <path class="GUNDAN_TIGER_BODY_TIGER_BODY_25_cls-8" d="M133.05,175.73c-.52,1.2-1,2.19-1.26,2.69-1.13,2-3.55,7.67-3.55,7.67s.64,4.65.88,7.39v0c.06.62.09,1.14.09,1.47,0,1.49-.89,4.34-.86,7.3a12,12,0,0,0,.21,2.15c.73,3.63,1.46,11.22,1.05,14.53a86.34,86.34,0,0,0-.16,9.78l1.84,10.52h0" />
      <path class="GUNDAN_TIGER_BODY_TIGER_BODY_25_cls-8" d="M174.35,114.21a0,0,0,0,1,0,0c-.37.45-8.23,10-15.09,13.23-7,3.32-10,6.46-12.92,10.18s-6.79,12.44-7,14.53-1.05,6.14-1.05,6.14l-1.45,8.32s-2.18,5.49-3.75,9.09" />
      <path class="GUNDAN_TIGER_BODY_TIGER_BODY_25_cls-8" d="M173.59,257h0l-.29-1.72s-8.39-11.31-8.5-14.26,1.18-3.19-.12-6-1.18-.62-3.43-3.92-4.63-6.95-4.63-8.89-1.52-5.07-1.52-5.07l.07-.85.15-1.73,1.4-2.58-2.61-6.24-.85-2.08c-1.69-4.24-5.39-13.78-5.8-17.42a81,81,0,0,0-2.26-10.76,88.52,88.52,0,0,1,0,9.79A63.42,63.42,0,0,1,144,195.72c0,.17,0,.33-.07.5a35.52,35.52,0,0,0,.73,14c.53,2.58,1.82,6.57,1.93,6.88a12.74,12.74,0,0,0,1.72,1.73,59.77,59.77,0,0,0-1.4,8c0,2,.76,8,.76,8s2.22.45,6.43,4.59a38.62,38.62,0,0,0,8.42,6.29l3.6,5v0" />
      <path class="GUNDAN_TIGER_BODY_TIGER_BODY_25_cls-8" d="M178,174.22a38.62,38.62,0,0,0,1.43,7.08,15.26,15.26,0,0,0,3.61,4.9s7.43,6.46,8.67,7.16,2.63,3.56,2.63,3.56,4.36,6.73,4.85,7.91c-4.58-4.36-6.78-6.46-9.15-7.81s-9.59-6.56-10.56-7.16a19.54,19.54,0,0,1-3.39-4c0-.16-.54-7.24-.43-7.74A42.69,42.69,0,0,1,178,174.22Z" />
      <line class="GUNDAN_TIGER_BODY_TIGER_BODY_25_cls-8" x1="178.01" y1="174.22" x2="178.01" y2="174.21" />
      <path class="GUNDAN_TIGER_BODY_TIGER_BODY_25_cls-8" d="M280.81,129.17a.08.08,0,0,1,0,0" />
      <path class="GUNDAN_TIGER_BODY_TIGER_BODY_25_cls-8" d="M280.81,129.17l0,.09" />
      <path class="GUNDAN_TIGER_BODY_TIGER_BODY_25_cls-8" d="M280.84,129.26s0,0,0,0" />
      <path class="GUNDAN_TIGER_BODY_TIGER_BODY_25_cls-8" d="M272.36,206.45a6.75,6.75,0,0,1,5.15,2.15,15.28,15.28,0,0,1,2.79,6.25l1.14.75s3.39-6,4-11,2.56-12.39,3.2-13.57,0-5.39,0-5.39a111.78,111.78,0,0,0,.43-15c-.43-6.14-.85-7.22-1.43-11.85s-1.4-9.9-2.41-12.6-.45-3.23-1.23-6-1.86-6-2.15-7.05-.87-3.28-1-3.89c.57,1.53,5.59,15.13,6.06,16.81a6.58,6.58,0,0,0,1.36,3c.82,1.19.86,1.08,2.4,3.29s3,3.77,2.71,4.79.29,6.67.54,8.94.75,14.58.46,18.08a37.84,37.84,0,0,1-1.18,6.63s-.75,6-1.57,11.79-2,8.45-2.39,9.21a69.92,69.92,0,0,0-3.44,8.88c-.82,3-1.85,4.63-2.39,4.85s-4.65-4.37-6.44-6.63-1.08-2.85-1.79-4.36-.54-4.09-1.25-5.62A6.1,6.1,0,0,0,272.36,206.45Z" />
      <path class="GUNDAN_TIGER_BODY_TIGER_BODY_25_cls-8" d="M275.2,114.27a82.83,82.83,0,0,1,3.61,7.7c.85,2.59,7.56,6.14,9.11,8.48s1.94,1.45,3.33,3.47,6,12.44,6.59,17.53,1.4,17,1.4,17,1,2.17,1.12,2.5.8,2.11,1.45,4.1c.36,1.11.7,2.25.91,3.13.59,2.46,2.36,13.37,2.36,13.77,0,.18,0,1.64-.12,4.14h0c-.06,1-.13,2.16-.22,3.48,0,.6-.1,1.22-.15,1.88" />
      <path class="GUNDAN_TIGER_BODY_TIGER_BODY_25_cls-8" d="M281.31,258.84l.42-3.61s5.57-11.31,5.65-14.26-.79-3.19.07-6,.79-.62,2.29-3.92,3.07-6.95,3.07-8.89a13.89,13.89,0,0,1,.45-3c.26-1.14.55-2,.55-2l-.14-2.58-.93-2.58,1.73-6.25s4.06-14.75,4.42-19.49,1.5-10.76,1.5-10.76-.21,5.38,0,9.79a93.91,93.91,0,0,0,.79,10.49,49.88,49.88,0,0,1-.23,13c-.08.57-.16,1.09-.22,1.53-.34,2.58-1.2,6.56-1.27,6.88a12.25,12.25,0,0,1-1.15,1.73s.94,5.93.94,8-.5,8-.5,8-1.48.45-4.28,4.59a29.09,29.09,0,0,1-5.59,6.29l-2.79,5.84-.18,1.26h0" />
      <path class="GUNDAN_TIGER_BODY_TIGER_BODY_25_cls-8" d="M284.18,174.32a61.08,61.08,0,0,1-1.6,7.07,18.33,18.33,0,0,1-2.84,4.88s-5.53,6.44-6.41,7.14-2.08,3.54-2.08,3.54-2.51,6.7-2.94,7.88c3.44-4.34,4.09-6.44,5.79-7.78s7-6.54,7.66-7.13a22.56,22.56,0,0,0,2.62-4c0-.16,1-7.21,1-7.71S284.18,174.32,284.18,174.32Z" />
      <path class="GUNDAN_TIGER_BODY_TIGER_BODY_25_cls-8" d="M261.28,129.72c3.39,1.86,9.56,2.91,12.4,4.93s4.39,3.39,4.39,3.39a58,58,0,0,0-8.3-14c-5.52-6.78-10.62-8.48-13.71-9a16.28,16.28,0,0,1-6.58-2.59c-1.9-1.21-2.2-1.37-3.38-1.61s-5-.89-5-.89l-3.2-1.13-4.36,1.13s-5.17.64-6.79.89-2,.4-4.6,1.61a27.1,27.1,0,0,1-9,2.59c-4.2.56-11.15,2.26-18.66,9a57.06,57.06,0,0,0-11.3,14s2.1-1.37,6-3.39,12.28-3.07,16.88-4.93a32.47,32.47,0,0,0,9.14-5.16c2.59-2,15.73-5.66,15.73-5.66l-.8,8.16a50.82,50.82,0,0,1-5.41,3c-1.54.56-4.61,2.34-8.32,7.1s-5.25,5.5-10.1,8.89-7.19,6.05-7.86,11.14,1.08,13.65,1.08,13.65a37.86,37.86,0,0,1,.4-6.05c.49-3.06,5.09-8.89,6.54-9.7s2.59-2.26,5.42-5.08,7.1-5.58,9.52-8.08a11.66,11.66,0,0,1,7.27-3.47c2.26-.33,3.23-1.7,4.93-2.83a7.67,7.67,0,0,1,4.28-.89,4.17,4.17,0,0,1,.44,0,4.09,4.09,0,0,1,2.7.91c1.25,1.13,2,2.5,3.62,2.83a7.84,7.84,0,0,1,5.34,3.47c1.78,2.5,4.93,5.25,7,8.08s2.91,4.28,4,5.08,4.45,6.64,4.8,9.7a50.33,50.33,0,0,1,.3,6.05s1.28-8.56.79-13.65-2.21-7.75-5.77-11.14-4.69-4.12-7.42-8.89-5-6.54-6.11-7.1a35.78,35.78,0,0,1-4-3L243,118.9s9.66,3.64,11.56,5.66A23.33,23.33,0,0,0,261.28,129.72Z" />
      <path class="GUNDAN_TIGER_BODY_TIGER_BODY_25_cls-8" d="M263.25,106.47c-1.56-2.36-6.09-4.84-9.33-5.81s-1.95-.11-6,0-7-1.79-8.16-2.22a2.27,2.27,0,0,0-1.88,0,6.06,6.06,0,0,0-3.12,0,59.27,59.27,0,0,1-13.57,1.3c-6.68-.11-4.52-1-9.91,0s-12.92,3.44-15.5,5.81-11.85,8-16.05,14c5-4.09,9.59-6.89,13.79-7.86s9.36-2.69,15.61-3.45,6-1.94,13.67-2.69a86.63,86.63,0,0,1,15.08,0,32,32,0,0,1,4.68-.33,27.49,27.49,0,0,1,4.39.33c4.6.75,4.47,1.94,8.23,2.69s6.87,2.48,9.4,3.45,5.31,3.77,8.3,7.86C270.38,113.52,264.8,108.84,263.25,106.47Z" />
      <path class="GUNDAN_TIGER_BODY_TIGER_BODY_25_cls-8" d="M210.63,272.67c2.38,6.17,9.11,12.38,27.28,12.38,15.31,0,20.47-6.8,22.13-12.38a17.74,17.74,0,0,0,.61-7.17" />
      <path class="GUNDAN_TIGER_BODY_TIGER_BODY_25_cls-8" d="M209.4,265.26a20,20,0,0,0,1.22,7.41" />
      <path class="GUNDAN_TIGER_BODY_TIGER_BODY_25_cls-8" d="M193.45,170.1s-5.54-2.82-7.4-6.54a9.91,9.91,0,0,1-.4-7.43,14.59,14.59,0,0,0-4.69-4.92,36.48,36.48,0,0,0-7.67-3.8c3,6,5.73,7.67,6.46,9.53a6.81,6.81,0,0,1-.62,5.73c-.91,1.3-.46,3,0,3.07s.7,1.78,1.83,2.43S193.45,170.1,193.45,170.1Z" />
      <path class="GUNDAN_TIGER_BODY_TIGER_BODY_25_cls-8" d="M271.44,170.1a15.85,15.85,0,0,0,4.13-6.54,17.31,17.31,0,0,0,.23-7.43,15,15,0,0,1,2.61-4.92,19.3,19.3,0,0,1,4.28-3.8c-1.67,6-3.2,7.67-3.6,9.53a11.66,11.66,0,0,0,.34,5.73c.51,1.3.26,3,0,3.07s-.39,1.78-1,2.43S271.44,170.1,271.44,170.1Z" />
      <path class="GUNDAN_TIGER_BODY_TIGER_BODY_25_cls-10" d="M257.8,191.49a15.19,15.19,0,0,0-2.17,3.5s-.35-10.76,4.37-15.65a21.46,21.46,0,0,1,14.75-6c2.8.18,9.4.88,9.4.88a12.38,12.38,0,0,0-6.34,2.74l-3.14,4.18c-2.85,5.7-5.87,8.69-10.45,8.26a10.25,10.25,0,0,0-2.49,0A14.94,14.94,0,0,0,257.8,191.49Z" />
      <path class="GUNDAN_TIGER_BODY_TIGER_BODY_25_cls-8" d="M299.86,244.09c-.41-.94-.7-1.63-.85-2h0a.93.93,0,0,0-.05-.1l-.08-.2" />
      <path class="GUNDAN_TIGER_BODY_TIGER_BODY_25_cls-8" d="M271,321.73a171,171,0,0,0,10.57-26.64" />
      <path class="GUNDAN_TIGER_BODY_TIGER_BODY_25_cls-8" d="M158,282.56c6.15,5.81,12.85,12.29,19.89,19.34l.07.07q3.85,3.86,7.81,7.91c6.67,6.84,13.57,14.12,20.52,21.76" />
      <path class="GUNDAN_TIGER_BODY_TIGER_BODY_25_cls-8" d="M281.55,295.09c-5.46,5.63-12.46,13.07-13.19,15-1.22,3.27-3.32,5.13-5.88,7.46s-7,7-7.46,8.15S249.43,336,249.43,336l-3.12,6.22s12.9-8.32,16.4-13.21c1.74-2.44,5.18-5.09,8.26-7.27h0" />
      <path class="GUNDAN_TIGER_BODY_TIGER_BODY_25_cls-11" d="M206.33,331.64h0c6,4.67,16.81,10.34,17.21,10.55" />
      <path class="GUNDAN_TIGER_BODY_TIGER_BODY_25_cls-11" d="M223.56,342.21h0L219.73,336s-6.3-9.09-6.88-10.26-6-5.82-9.17-8.15-5.73-4.19-7.24-7.46-24.3-21.67-24.3-21.67l-2.3-1.18" />
      <path class="GUNDAN_TIGER_BODY_TIGER_BODY_25_cls-8" d="M21.82,444.94l5.34-27.08q3.6-18.3,7.21-36.6l-4.16,4.35,12.9-41.44-3.18,3.16a96.78,96.78,0,0,1,7.14-10.15,169.42,169.42,0,0,1,38.85-34.45l-4.85.29c10.42-7.5,18.75-16.6,27.89-25.81,5.15-5.18,8.84-8.9,11.76-12.84a36.58,36.58,0,0,0,4.77-8.9l.73-1.57.75-1.1,1-1.57.07-.11.05-.1c.13-.19.25-.4.38-.6l.72-1.16c.2-.33.4-.66.59-1,.37-.62.73-1.26,1.09-1.91v0l.06-.1c.19-.36.4-.72.58-1.1l0-.07c.19-.35.37-.71.55-1.07,0,0,0,0,0,0,.26-.48.49-1,.72-1.47a6.36,6.36,0,0,0,.28-.59c.3-.63.59-1.26.86-1.91l0-.07" />
      <path class="GUNDAN_TIGER_BODY_TIGER_BODY_25_cls-8" d="M135,237.57c-.3.77-.6,1.54-.93,2.29" />
      <polyline class="GUNDAN_TIGER_BODY_TIGER_BODY_25_cls-12" points="169.84 287.27 169.82 287.26 169.8 287.25 169.78 287.24 169.76 287.23 169.75 287.22 158.04 282.56 158.03 282.56" />
      <path class="GUNDAN_TIGER_BODY_TIGER_BODY_25_cls-12" d="M295.92,247.86s0-.05,0-.08q.21-1.34.33-2.07c0-.1,0-.19,0-.27,0-.31.07-.5.08-.55h0l.73-1,.09-.11c.56-.73,1.11-1.4,1.61-1.93l.07-.08c.31-.32.59-.59.85-.81a13.3,13.3,0,0,1,2.23-1.5l.21-.12c0-.11.07-.21.1-.32q.32-1,.63-2c.24-.79.47-1.58.7-2.37.46-1.6.88-3.19,1.28-4.77v0a15.54,15.54,0,0,0,.1-2,10.54,10.54,0,0,0-.2-1.33c0-.23-.1-.48-.16-.75,0-.12-.05-.25-.08-.38-.13-.61-.28-1.31-.43-2.09-.05-.25-.09-.51-.14-.78a5,5,0,0,1-.09-.56c-.05-.25-.08-.51-.12-.77s-.08-.54-.11-.82c0,0,0,0,0-.07-.05-.4-.09-.81-.13-1.24,0-.13,0-.26,0-.41s0-.62-.06-.94a.08.08,0,0,1,0-.07c-.06-.94-.09-1.95-.06-3,0-.19,0-.38,0-.58v-.12c0-.62.05-1.27.11-1.93,0-.36,0-.72.09-1.09s.05-.53.08-.8.06-.54.1-.82c.2-1.48.36-2.88.5-4.2.05-.44.09-.87.13-1.29s.1-1,.14-1.42c0-.29.05-.58.08-.86a50.36,50.36,0,0,1-3.64,7.27" />
      <path class="GUNDAN_TIGER_BODY_TIGER_BODY_25_cls-12" d="M264.18,207.25s.27,2.51,3.91,10.91l.43,1,.55,1.24a70.27,70.27,0,0,1,3.35,8.44h0l.08.28" />
      <path class="GUNDAN_TIGER_BODY_TIGER_BODY_25_cls-12" d="M274.48,241.38c6.83-5,13.14-15.76,18.78-22.24" />
      <path class="GUNDAN_TIGER_BODY_TIGER_BODY_25_cls-12" d="M255.33,240.37c10.87,8.25,17.94-2.08,18.73-3.32l.08-.12" />
      <path class="GUNDAN_TIGER_BODY_TIGER_BODY_25_cls-12" d="M155.17,216.25c16.08,18.68,28.2,20.68,38.11,25.13" />
      <path class="GUNDAN_TIGER_BODY_TIGER_BODY_25_cls-12" d="M193.81,236.93s14.51,12.74,24.46,3.44" />
      <path class="GUNDAN_TIGER_BODY_TIGER_BODY_25_cls-8" d="M281.31,258.84h0l-6.17,6.41v-3.35s-2.18.45-2.19,1.41-5.73,7.63-5.73,7.63a12.88,12.88,0,0,0-.29-3.18c-1.05,1.66-6.86,4.9-6.86,4.9h0" />
      <path class="GUNDAN_TIGER_BODY_TIGER_BODY_25_cls-8" d="M173.59,257s6.81,3.46,8.83,5c-.34-3.14,0-3.81,0-3.81a63.18,63.18,0,0,0,9.16,7.44l-.7-2.37s7.81,3.56,10.89,6,8.85,3.5,8.85,3.5h0" />
      <path class="GUNDAN_TIGER_BODY_TIGER_BODY_25_cls-8" d="M143.49,259.12c4,3.89,7.68,7.39,7.85,7.49.39.23,14.7,6.76,16.36,8.68,1.38,1.6,7.73,6.37,11.61,9.42.78.61,1.45,1.15,2,1.59,3.14,2.63,7.82,1.57,12.45,3s27.15,15.55,27.15,15.55l-3-4.13-4.06-5.6a52.61,52.61,0,0,0-11.28-6,19.5,19.5,0,0,1-2.91-1.39,26.29,26.29,0,0,1-4.62-3.49,27.72,27.72,0,0,1-3.27-3.61L187.23,278c-3.35-2-7.53-4.49-8.58-5.29-1.83-1.39-1.33-2.62-13.84-8.92s-4.9-2.62-9.7-6.79c-1.73-1.5-4.86-4.1-8.15-6.8-2.75-2.26-5.61-4.59-7.87-6.43l-4.31-3.5-.1,0-.62-.32,0,0,0,.07-1.94,4-.7,1.44-.4.81.14.18c.26.35.91,1.19,1.83,2.29.66.79,5.86,5.88,10.55,10.43" />
      <path class="GUNDAN_TIGER_BODY_TIGER_BODY_25_cls-8" d="M289.33,273.14s-.5.4-1.23,1c-1.81,1.54-5.08,4.39-5.82,5.67a15.49,15.49,0,0,1-4.54,4.55c-1.46.93-6.7,6.05-9.79,9.14s-9.76,3.87-11.33,5.19-6.84,6.11-6.84,6.11l4.9-9.73s4.77-.46,7.82-6c2.46-4.47,7.49-8.49,7.49-8.49s7.81-4.54,9.08-5.93c1.09-1.2,1-3.79,6.58-8.56.86-.73,1.86-1.52,3-2.36,3.22-2.33,4.52-3.3,5.05-3.79Z" />
      <path class="GUNDAN_TIGER_BODY_TIGER_BODY_25_cls-8" d="M135.44,133.17a8.94,8.94,0,0,1-1-.43h0a7.3,7.3,0,0,1-2.1-1.55l-.05-.05c-.13-.14-.25-.27-.36-.41a9.17,9.17,0,0,1-1.5-2.8s0,0,0,0a19.31,19.31,0,0,1-.81-5.8c-.08-1.34.31-4.07-.07-6.36a2,2,0,0,0,0-.26,1.84,1.84,0,0,0-.05-.25.36.36,0,0,0,0-.1,5.5,5.5,0,0,0-.47-1.33,16.31,16.31,0,0,1-.69-1.55s0,0,0,0a17.53,17.53,0,0,1-1.06-4s0,0,0,0a20.33,20.33,0,0,1,.32-7.32v0a23.84,23.84,0,0,1,1.07-3.53c.06-.15.12-.3.19-.45s0,0,0,0h0a12.24,12.24,0,0,1,5.63-6.23c.2-.12.4-.22.6-.32a19,19,0,0,1,12.63-.84l.26.07a25.25,25.25,0,0,1,8.32,3.87c.73.52,1.45,1,2.16,1.49h0a69.34,69.34,0,0,0,14.69,7.57l.39.13" />
      <path class="GUNDAN_TIGER_BODY_TIGER_BODY_25_cls-13" d="M301.62,110.94s.93-13.29-4.17-15.37c-10.73-4.39-22.64,13.82-22.64,13.82l8.12,4.1-1.13,1.66s7.88,1.58,11,.62l-2.56,2.79,7.9,4.55h-2.77l2.23,6" />
      <path class="GUNDAN_TIGER_BODY_TIGER_BODY_25_cls-8" d="M300.08,143.31h0s0,0,0,0a43.92,43.92,0,0,0-2.28-5.63,25.39,25.39,0,0,0-8.58-10.18c-4.46-3.16-13.39-12.37-14-13.19,0,0,0,0,0,0a0,0,0,0,1,0,0" />
      <path class="GUNDAN_TIGER_BODY_TIGER_BODY_25_cls-8" d="M270.05,101.75a58.3,58.3,0,0,0,12.34-8.42c7.65-6.71,19.17-6.7,22.48,3.93a24.29,24.29,0,0,1-.31,16.51c-1,2.43-.44,6.55-.53,8.3s.22,8.92-4.74,11.1c.25,2,1.69,4.51.79,10.13" />
      <line class="GUNDAN_TIGER_BODY_TIGER_BODY_25_cls-12" x1="144.67" y1="210.22" x2="136.59" y2="204.83" />
      <path class="GUNDAN_TIGER_BODY_TIGER_BODY_25_cls-12" d="M128.24,202.28s-4.05-.53-5.48-3h0" />
      <path class="GUNDAN_TIGER_BODY_TIGER_BODY_25_cls-8" d="M130.12,360.23a87.19,87.19,0,0,0-1-15.22s2.8,2.4,3.87,9.16c3.17-14.22-10.52-43.25-10.52-43.25a31.14,31.14,0,0,0,5.45-7.37s0,0,0,0" />
      <path class="GUNDAN_TIGER_BODY_TIGER_BODY_25_cls-8" d="M133.59,290.71a190.18,190.18,0,0,0,6.66-23.62c.05-.22.07-.34.07-.34l.15-.36c1-2.32,1.92-4.56,2.79-6.69.07-.19.15-.39.23-.58h0" />
      <path class="GUNDAN_TIGER_BODY_TIGER_BODY_25_cls-8" d="M101.56,419.56c8.23-1.61,9.24-11.47,17.17-24.9" />
      <path class="GUNDAN_TIGER_BODY_TIGER_BODY_25_cls-8" d="M119.92,392.72h0c.78-1.25,1.62-2.53,2.54-3.83,3.65-5.17,5.66-11.47,6.69-17.66" />
      <path class="GUNDAN_TIGER_BODY_TIGER_BODY_25_cls-8" d="M147,250.16c1.95-5.19,3.07-8.5,3.07-8.5" />
      <path class="GUNDAN_TIGER_BODY_TIGER_BODY_25_cls-8" d="M101.56,284.73s18.11,7.45,21.61,12,13,19.8,18.52,26.68S160,340.88,160,340.88l8.25,11.54s13.28,27.61,19.1,32.74c-4.66-11.89-8.85-23.77-10.25-29.36S172,342.05,169,336.92s-21.23-20.19-25.47-24.42-6.57-10.3-6.57-11.11-1.42-8-1.42-8l-1.91-2.64s-12.87-5.52-16-6.56-12.47-3-12.47-3Z" />
      <path class="GUNDAN_TIGER_BODY_TIGER_BODY_25_cls-8" d="M40.05,354s16.83-.41,20.79,0,23.53,9.26,27.26,11.83S102,373,102.5,373.74s13.33,10,13.33,10l6.59,14.44s-13-12.81-18.28-15.37-19.07-7-20-7.25-12.12-7.9-17.48-7.9H54.08L37,363.79Z" />
      <path class="GUNDAN_TIGER_BODY_TIGER_BODY_25_cls-8" d="M30.84,399.19s23.24,9.28,24.17,10,18.64,3.49,18.64,3.49l20.51,3.5s-21,2.75-23.77,2.77-17.94-2.77-18.64-2.77H42.43l-13.89-5.32Z" />
      <path class="GUNDAN_TIGER_BODY_TIGER_BODY_25_cls-8" d="M59.86,323.37s30.18,15.47,37,19.06,23.61,18,23.61,18,24,30.05,26.8,32.15S168,401,168,401s-12.81-8.16-16.07-11.18-17.52-21.91-18.9-24.24-2.93-5.35-2.93-5.35-8.93-11.42-10.56-14S106,334.83,106,334.83s-16.53-6.3-18.63-10-10.48-6.16-10.48-6.16l-10.86-1Z" />
      <path class="GUNDAN_TIGER_BODY_TIGER_BODY_25_cls-8" d="M326.13,290.62c-2.88,2.07-5.56,4.32-6.57,6.11C317,301.27,310,316.53,306,323.41s-13.43,17.47-13.43,17.47l-6,11.54s-9.74,27.61-14,32.74c3.42-11.89,6.49-23.77,7.52-29.36a101.91,101.91,0,0,1,6-18.88c2.22-5.12,15.56-20.19,18.66-24.42a30.76,30.76,0,0,0,4.82-11.11c0-.82,1-8,1-8l1.4-2.64s5.72-3.35,9.34-5.32Q323.68,288,326.13,290.62Z" />
      <path class="GUNDAN_TIGER_BODY_TIGER_BODY_25_cls-8" d="M380.33,364.53l-10.13,3.15H361c-3.93,0-12.13,7.69-12.81,7.9s-10.76,4.68-14.66,7.25-13.4,15.37-13.4,15.37l4.83-14.44s9.39-9.32,9.77-10,7.82-5.36,10.55-7.92,17.08-11.42,20-11.83c1.95-.28,8.17-.18,12-.09Q378.81,359.23,380.33,364.53Z" />
      <path class="GUNDAN_TIGER_BODY_TIGER_BODY_25_cls-8" d="M388,411.31l-9.26,4.84h-6.83c-.52,0-11.62,2.79-13.67,2.77s-17.42-2.77-17.42-2.77l15-3.5s13-2.8,13.66-3.49,12.42-7.07,16.42-9.26Z" />
      <path class="GUNDAN_TIGER_BODY_TIGER_BODY_25_cls-8" d="M361.78,326.29c-6.66,4.67-19.31,13.53-22.95,16.14-5,3.58-17.31,18-17.31,18s-17.59,30.05-19.64,32.15-14.39,8-15.16,8.37c.67-.6,9.44-8.26,11.75-11.16s12.83-21.91,13.84-24.24,2.16-5.35,2.16-5.35,6.54-11.42,7.74-14,9.91-11.41,9.91-11.41,12.12-6.3,13.65-10,7.69-6.16,7.69-6.16l.81-.1Q358.14,322.27,361.78,326.29Z" />
      <path class="GUNDAN_TIGER_BODY_TIGER_BODY_25_cls-14" d="M206.72,249c4,.35,3.73.47,6,.63s2.93.88,5.32,1.7a15.74,15.74,0,0,0,5.65.48l-1.41-.24a12.88,12.88,0,0,1-1.45-.47c-.52-.24-5.59-1.63-6.7-2s-1.39-.41-4.71-1.27-4.08-1.65-6.29-1.94a35.6,35.6,0,0,1-5.54-1.45l-2.56-.94.44.57a24.63,24.63,0,0,0,3.58,3C200.43,247.9,202.7,248.67,206.72,249Z" />
      <path class="GUNDAN_TIGER_BODY_TIGER_BODY_25_cls-14" d="M198.15,250.3h0l-.16-.14Z" />
      <path class="GUNDAN_TIGER_BODY_TIGER_BODY_25_cls-14" d="M198,250.17l-.9-.8S197.45,249.7,198,250.17Z" />
      <path class="GUNDAN_TIGER_BODY_TIGER_BODY_25_cls-14" d="M215.75,253.54c-1.81,0-3.44-.56-4.31-.56s-7-.16-8.63-.93a16.45,16.45,0,0,0-2.27-.93l-2.37-.81a17.42,17.42,0,0,0,5.88,3.45,33.88,33.88,0,0,0,9.88,1.14c2.58-.2,6.59,0,6.59,0l3.85-.52-2.56-.58S217.55,253.57,215.75,253.54Z" />
      <path class="GUNDAN_TIGER_BODY_TIGER_BODY_25_cls-14" d="M214.93,259c-3.2-.23-6,.06-6.17,0s-3.56-.09-5-.83-4.2-1.88-4.2-1.88,4.6,2.77,6.53,3.67-.24,1.48,4.07,1,6.17-.81,7.86-.86,2.16.54,2.8-.48a11,11,0,0,1,2.86-2.3S218.13,259.22,214.93,259Z" />
      <path class="GUNDAN_TIGER_BODY_TIGER_BODY_25_cls-14" d="M271.61,244.48a27.39,27.39,0,0,1-4.77,1.45c-1.91.29-2.57,1.08-5.43,1.94s-3.11.92-4.07,1.27-5.34,1.74-5.79,2a9.63,9.63,0,0,1-1.25.47l-1.21.24a11.76,11.76,0,0,0,4.87-.48c2.07-.82,2.66-1.53,4.6-1.7s1.69-.28,5.16-.63,5.43-1.12,6.64-1.92a23,23,0,0,0,3.09-3l.38-.57Z" />
      <path class="GUNDAN_TIGER_BODY_TIGER_BODY_25_cls-14" d="M271.11,250.3l.12-.13-.13.14Z" />
      <path class="GUNDAN_TIGER_BODY_TIGER_BODY_25_cls-14" d="M272,249.37l-.79.8C271.72,249.7,272,249.37,272,249.37Z" />
      <path class="GUNDAN_TIGER_BODY_TIGER_BODY_25_cls-14" d="M267.09,252.05c-1.41.77-6.69.93-7.44.93s-2.17.52-3.72.56-5.23.26-5.23.26l-2.22.58,3.32.52a49.34,49.34,0,0,1,5.69,0,25.4,25.4,0,0,0,8.53-1.14,14.81,14.81,0,0,0,5.08-3.45l-2.05.81A13.28,13.28,0,0,0,267.09,252.05Z" />
      <path class="GUNDAN_TIGER_BODY_TIGER_BODY_25_cls-14" d="M262,259a48.17,48.17,0,0,0-5.33,0c-2.76.24-7.54-1.69-7.54-1.69a9.7,9.7,0,0,1,2.46,2.3c.55,1,1,.44,2.42.48s3.06.37,6.78.86,1.86-.09,3.52-1,5.63-3.67,5.63-3.67-2.36,1.14-3.62,1.88S262.11,258.92,262,259Z" />
      <g class="GUNDAN_TIGER_BODY_TIGER_BODY_25_cls-15">
        <path d="M161.76,112l-4.59,1.12-1.12.27L156,115s-8.86.81-9.32.81-3,.24-3,.24l-6.87-2.22s4.37,2.51,5.3,3.09a9.66,9.66,0,0,1,2.1,2.65l-7.8-1.43-2.74-.64,3.79,5.33,1.62.3-.84,4.37-3.95,8.14-.57,1.2,0,0,1.65-3.53-3.14-2.25c-.41-2.37-.86-5.23-1.21-8.28a120.32,120.32,0,0,1-.7-15.22s2.1-11.13,7.34-10.84c4.62.26,19.84,11.88,23.38,14.63Z" />
        <path d="M305.24,227.36s-.36,6.45-1.47,8.9a19,19,0,0,1-1.5,2.77l-.31.44c-.14.19-.22.28-.22.28s-1.18.93-2.69,2.29a.08.08,0,0,1,0,0h0c-.57.51-1.19,1.09-1.81,1.7s-1.2,1.2-1.76,1.82h0a20.1,20.1,0,0,0-1.94,2.48,41.37,41.37,0,0,0-2.67,4.59c-.11.24-.15.35-.15.35l-.82-3.95a19.07,19.07,0,0,0-2.61,2.16l-.07.07c-.39.37-.81.79-1.24,1.27s-1,1.09-1.47,1.73a30.74,30.74,0,0,0-2.09,3c-.41.65-.81,1.35-1.2,2.09s-.81,1.6-1.17,2.4c-2.91,6.4-4.16,12.78-6.17,16.41l-.09.15a46.77,46.77,0,0,1-6.06,7.95l.08-1.25-2.66,2.23-1.85,1.55L258,296.38l-4.89,4.92L251,302.39l-6.32,3.23s0-1.51-.29-1.32-6,2.68-6.48,2.91v0h0v0c-.52-.19-7.52-2.73-7.89-2.91s-.35,1.32-.35,1.32l-11.74-4.93-1-.42a19.34,19.34,0,0,0-1.95-.34c-.44,0-1.15-.24-7.42-5.18a100.41,100.41,0,0,1-7.89-7.05c-2.74-2.69-4.62-4.76-4.62-4.76v3.68a46.28,46.28,0,0,1-7.78-8.66,23.83,23.83,0,0,1-2-3.62c-2.91-6.54-3.91-9.36-10.51-16.29-.33-.35-.66-.68-1-1l-.06-.06a.23.23,0,0,0-.07-.07,59.46,59.46,0,0,0-7.58-6.45,36.94,36.94,0,0,0-3.51-2.26l-.05,0-.1,0-.25,4-.31-.31a108.33,108.33,0,0,0-11.33-9.8c-.14-.12-.28-.22-.42-.32s-.37-.27-.55-.38-.63-.46-.95-.67a16.27,16.27,0,0,0-10-3,15.49,15.49,0,0,0-2.43.29,14.44,14.44,0,0,0-1.41.34h0a20.35,20.35,0,0,0-4.46,1.87l0,0a23.08,23.08,0,0,0-2,1.23,7.27,7.27,0,0,1-.45-2.09v0c-.31-2.35-.74-6.57-2-13v0a169,169,0,0,1-3.19-23.85v-.07q0-.27,0-.51v0s0-.07,0-.11,0-.25,0-.37v-.19c0-.43-.06-.86-.07-1.29a63,63,0,0,1,.5-9.33.09.09,0,0,0,0-.05,72.09,72.09,0,0,1,1.85-9.67l2.08,6.85a53,53,0,0,0,2.3,6.61h0s0,0,0,0a92.36,92.36,0,0,0,8.26,15.4h0c1.39,2.1,2.94,4.27,4.67,6.49a17.34,17.34,0,0,1-.82-8.23,12.79,12.79,0,0,1,2.25-5.75v0h0v0c.08.43.77,3.18,7,13.57-1.74-3.34-1.31-14.43-1.31-14.43s1.23,7.68,6.08,13.21c.32.37.66.72,1,1.07,2.55,2.48,10.47,10,18.45,17.46,9.86,9.29,19.8,18.61,19.8,18.61v0c0-.17-.26-1-1.38-5.61l-.09-.38h.06c17.2,3.81,30.07.56,37.49-2.55h0a36,36,0,0,0,7.2-3.89v0l0,0,0,0v0a29.17,29.17,0,0,0,6.31,4.07s0,0,0,0c6.14,3,16.54,6.07,30.35,2.38l.15,0c-.1.5-.19.95-.28,1.37-.38,1.92-.61,3-.74,3.71,0,0,0,0,0,.05l-.18.9,13.63-15.56c4.05-4.63,8.31-9.51,11.72-13.43h0c1.8-2.06,3.36-3.86,4.53-5.22l.19-.22C304,221.35,305.24,227.36,305.24,227.36Z" />
        <path d="M265.26,287.27s-2.76,4.82-6,10.28c-2.94,5-6.25,10.52-8.17,13.37-4,6-7.83,10.81-7.83,10.81l-1.56,4.77v-4.77s-5.1,8.09-6.24,12.8S230,343.4,230,343.4l-6.92,7.2,0,0-.05-.05,0,0c-1.88-1.84-32-31.47-37.14-40.61v0l-.55-1c-2.7-4.83-6.5-11.81-9.65-17.62h0l-5.76-10.68s-11.6-8-18.55-14l-8-6.91-6.78-5.8-8-3.47h0l-.05,0-.21-.09,1.47-2.31,1.1-1.73.56-.87.18-.29,0-.07.7-1.09,2.39-3.77,1.45-2.27.27-.43.58-.9.55-.87s3.59-3.45,17.2,4.23h0c.78.43,1.6.91,2.45,1.43,4.76,2.9,8.3,4.91,10.92,6.31,5.9,3.15,7.14,3.17,7.17,3.17s8,6.89,12.9,11.75c.71.69,1.36,1.35,1.91,1.94l0,0a14.28,14.28,0,0,1,1.68,2c1.83,3.09,4.46,6.58,4.46,6.58l6,6.45L213,286.3s11,8.41,13.11,8.79,26.91-5.47,28.66-6.43c1.26-.69,6.17-1.11,8.79-1.29l1.52-.09Z" />
        <polygon points="193.81 317.06 185.26 308.9 178 301.97 177.93 301.9 158.04 282.56 158.03 282.56 140.25 267.09 133.17 260.93 126.22 254.64 126.49 254.13 128.07 251.12 128.12 251.02 128.45 250.4 129.71 248 130.65 246.21 130.81 246.27 130.91 246.31 130.92 246.32 131.11 246.39 140.93 250.31 172.74 273.28 179.31 284.71 183.14 291.37 187.13 300.98 187.14 300.99 193.81 317.06" />
        <path d="M165.17,109.54,161,111.37l-3.85,1.7-.89.39s.67,1.69.28,1.75-11.17.7-11.17.7l1,2.53s-3.85,2-5.51,3.15-2,4.89-2,5.15-4.54,9-5.1,10.08l0,0,1.65-3.53-3.14-2.25-.25-.18a24.83,24.83,0,0,1-2.08-7.35c-.35-3.76-.48-9.32-.48-9.32s-.79-3.3,0-9.61,9.52-14.23,16.36-11.08S165.17,109.54,165.17,109.54Z" />
        <path d="M301.27,102.74s-.52-5.26-5.07-7-12.05,3-12.05,3l-1.82.37c4.73-4,9.8-7.65,9.8-7.65-6.91,0-19.63,10.26-19.63,10.26a103.3,103.3,0,0,1-11-1.86c-7.92-1.64-23.18-2.33-46.6-1.35,25-.52,43.61,5.55,59.38,8.61l-.05.07.54,1v1.25L276,110s5.92,2.84,6.65,3.36-.49,1.19-.49,1.19l.49.76,8.46.74L291,119l5.18,3.75h0l.47.4s-.19-1.47-.51-3.9a22.77,22.77,0,0,1,.6-5.24c.88-3.12,4.93-3,4.93-3Z" />
        <path d="M267.37,102.74l7.44-2.8-4.76,1.45s-21.44-6.27-33.73-7a148,148,0,0,0-33,1.62c-12.19,1.76-20.53,2.93-20.11,3.15s18.07-.69,40.26-.58,42.35,6.47,46.9,7l4.54.58Z" />
        <path d="M122.39,261.91s12.08,13.17,18.37,22,19.14,19.86,24.73,30.82,33.8,40.59,37.39,48.63,5.45,33.9-4.22,48.23-34.73,31.61-34.73,31.61H22.51s10.75-56.07,11.61-60.67l-3.63,2.16L42.2,345.07l-1.18.54S55.81,324.8,67.64,316.3A175.36,175.36,0,0,0,85,302.5l-2.65-.42s10.52-8.67,21-19.16S122.39,261.91,122.39,261.91Z" />
        <path d="M131.29,252.05s82.32,58.54,88.1,71.82A52.57,52.57,0,0,1,223,350.51S200,370.36,191.71,389.58s-45.36,5.59-45.36,3.85-28-93.5-28-93.5l1.75-34,5.31-10.38Z" />
        <path d="M202,385.16l1.48,15.46S199,420.25,193.1,425.67l1.66-4.28a190.63,190.63,0,0,1-14.24,22.31c-34.69.31-24.38-24.78-24.38-24.78Z" />
      </g>
      <path class="GUNDAN_TIGER_BODY_TIGER_BODY_25_cls-16" d="M159.67,250.94h0l1-.25,1.11-.27.42-.1c.88-.2,1.76-.4,2.62-.58l.11,0,.46-.1c1.19-.25,2.35-.49,3.49-.71l1.14-.22a141.73,141.73,0,0,1,18.81-2.3c1.52-.08,3-.13,4.37-.15h0c.76,0,1.51,0,2.25,0l2.38,0a86.29,86.29,0,0,1,8.67.7h0c1.17.15,2.26.32,3.26.5a38.73,38.73,0,0,1,9.6,2.74" />
      <path class="GUNDAN_TIGER_BODY_TIGER_BODY_25_cls-16" d="M159.67,250.93h0c-2.85.7-5.79,1.5-8.85,2.4-1.31.39-2.64.79-4,1.22l-1.94.62" />
      <path class="GUNDAN_TIGER_BODY_TIGER_BODY_25_cls-16" d="M163.16,268.28c35.53-16.47,56.23-13.42,56.23-13.42" />
      <path class="GUNDAN_TIGER_BODY_TIGER_BODY_25_cls-16" d="M177.51,280.23A188.88,188.88,0,0,1,219.39,260" />
      <path class="GUNDAN_TIGER_BODY_TIGER_BODY_25_cls-16" d="M154.59,261.87c38.07-12.22,64.67-9.58,64.67-9.58" />
      <path class="GUNDAN_TIGER_BODY_TIGER_BODY_25_cls-17" d="M262.93,247.42q4.65-1.24,9.38-2.07c.76-.14,1.53-.26,2.3-.38q2.73-.42,5.48-.69c2.2-.22,4.39-.38,6.6-.46,1.41-.06,2.83-.09,4.24-.09,1.67,0,3.34,0,5,.11" />
      <path class="GUNDAN_TIGER_BODY_TIGER_BODY_25_cls-17" d="M263.25,251.59c1.41,0,2.81.14,4.21.26.56,0,1.11.1,1.67.16,1.35.13,2.69.3,4,.5q4.56.68,9,1.74h0l1.93.47.14,0a.31.31,0,0,0,.13,0c2.16.55,4.31,1.17,6.44,1.83" />
      <path class="GUNDAN_TIGER_BODY_TIGER_BODY_25_cls-17" d="M285.93,271.59a95.64,95.64,0,0,0-23.23-10.66" />
      <path class="GUNDAN_TIGER_BODY_TIGER_BODY_25_cls-17" d="M288.32,263.92a132.33,132.33,0,0,0-25.07-7.65" />
      <path class="GUNDAN_TIGER_BODY_TIGER_BODY_25_cls-18" d="M295.71,247.17l.21.69h0l2,6.77a49.63,49.63,0,0,0,2.33,5.2c3.1,5.92,7.09,10.28,13.57,17.37l1.3,1.43h0l6.11,6.74q2.42,2.66,4.87,5.23A124.2,124.2,0,0,0,339.54,303l-4.47-.29a156.11,156.11,0,0,1,19.2,15.82q3.87,3.72,7.51,7.74,4.73,5.22,9.07,10.89a96.9,96.9,0,0,1,6.58,10.15l-2.94-3.16,2.79,9.73q1.53,5.33,3.05,10.63,3,10.55,6,21.08l-3.83-4.35,3.39,18.64L388,411.31c.4,2.18.79,4.37,1.19,6.55q2.21,12.13,4.41,24.29" />
      <path class="GUNDAN_TIGER_BODY_TIGER_BODY_25_cls-8" d="M95.28,409.16c0,5.86.92,23.16,1.6,35.22" />
      <polyline class="GUNDAN_TIGER_BODY_TIGER_BODY_25_cls-8" points="104.14 395.17 101.56 419.56 98.93 444.37" />
      <path class="GUNDAN_TIGER_BODY_TIGER_BODY_25_cls-8" d="M353.28,409.16c0,1,0,2.44-.08,4.11" />
      <path class="GUNDAN_TIGER_BODY_TIGER_BODY_25_cls-8" d="M351.78,442.45c.43-7.72.94-17.08,1.23-24.22" />
      <polyline class="GUNDAN_TIGER_BODY_TIGER_BODY_25_cls-8" points="349.43 442.47 349.4 442.22 346.94 418.92 346.76 417.19" />
      <line class="GUNDAN_TIGER_BODY_TIGER_BODY_25_cls-8" x1="346.51" y1="414.83" x2="344.42" y2="395.17" />
      <path class="GUNDAN_TIGER_BODY_TIGER_BODY_25_cls-19" d="M315.45,304.84a29.57,29.57,0,0,0,3.62,4.33s-9.46,29.5-5.17,43.94c.29-6.87,2.58-9.3,2.58-9.3a96.88,96.88,0,0,0,.3,12.35" />
      <path class="GUNDAN_TIGER_BODY_TIGER_BODY_25_cls-19" d="M294.18,254.32l.4,1.1h0c1.07,2.34,2.51,5.92,3.74,8.48l.18.36s4.87,17.56,11.68,31.42" />
      <path class="GUNDAN_TIGER_BODY_TIGER_BODY_25_cls-19" d="M327.36,389.06c8.34,11.68,11.38,21.38,15.61,26.59" />
      <path class="GUNDAN_TIGER_BODY_TIGER_BODY_25_cls-19" d="M346.94,418.92a10,10,0,0,1-3.05-2.23" />
      <path class="GUNDAN_TIGER_BODY_TIGER_BODY_25_cls-19" d="M318.14,366.2a61,61,0,0,0,6.45,18.61" />
      <polyline class="GUNDAN_TIGER_BODY_TIGER_BODY_25_cls-19" points="294.58 255.44 294.58 255.43 294.58 255.44 294.59 255.46 294.58 255.44" />
      <line class="GUNDAN_TIGER_BODY_TIGER_BODY_25_cls-19" x1="294.18" y1="254.32" x2="292.61" y2="251.4" />
    </g>
  </g>
</svg>