<svg xmlns="http://www.w3.org/2000/svg" viewBox="0 0 432 432">
  <defs>
    <style>.BUNTAI_DEER_OUTFIT_DEER_OUTFIT_32_cls-1{isolation:isolate;}.BUNTAI_DEER_OUTFIT_DEER_OUTFIT_32_cls-2{fill:#c8d3e7;}.BUNTAI_DEER_OUTFIT_DEER_OUTFIT_32_cls-3{fill:#45349a;}.BUNTAI_DEER_OUTFIT_DEER_OUTFIT_32_cls-4{fill:#e4d2bc;}.BUNTAI_DEER_OUTFIT_DEER_OUTFIT_32_cls-5{fill:#faf9f7;}.BUNTAI_DEER_OUTFIT_DEER_OUTFIT_32_cls-6{fill:#fffbf0;}.BUNTAI_DEER_OUTFIT_DEER_OUTFIT_32_cls-7{fill:#a797b2;}.BUNTAI_DEER_OUTFIT_DEER_OUTFIT_32_cls-8{fill:#262431;}.BUNTAI_DEER_OUTFIT_DEER_OUTFIT_32_cls-11,.BUNTAI_DEER_OUTFIT_DEER_OUTFIT_32_cls-9{fill:none;stroke:#000;stroke-linecap:round;stroke-linejoin:round;}.BUNTAI_DEER_OUTFIT_DEER_OUTFIT_32_cls-9{stroke-width:2.09px;}.BUNTAI_DEER_OUTFIT_DEER_OUTFIT_32_cls-10{opacity:0.43;mix-blend-mode:multiply;}.BUNTAI_DEER_OUTFIT_DEER_OUTFIT_32_cls-11{stroke-width:1.89px;}</style>
  </defs>
  <g class="BUNTAI_DEER_OUTFIT_DEER_OUTFIT_32_cls-1">
    <g id="outfit">
      <path class="BUNTAI_DEER_OUTFIT_DEER_OUTFIT_32_cls-2" d="M353.23,461.5h-47.3l-.1-.05c0-.06.06-.12.1-.19l.05-.08a51.13,51.13,0,0,0,5.43-15.72v0l.16-1a52.75,52.75,0,0,0,.6-7c0-.4,0-.79,0-1.19s0-.62,0-.93,0-.55,0-.82c0-.54,0-1.06-.06-1.58a55.83,55.83,0,0,0-1.45-9.68l-.18-.14-.53-.44a39.82,39.82,0,0,0-12.75-6.54A51.11,51.11,0,0,0,255,421.93a63.59,63.59,0,0,0-16.39,15,41.61,41.61,0,0,1,3.33-11c2.32-5,5.57-9.26,8.09-14.11.19-.38.39-.76.58-1.15q4.68-5.06,9.72-9.59c5.72-5.14,12-9.85,18.7-12.38a47.07,47.07,0,0,1,6,.9,26.22,26.22,0,0,1,12.37,6.42,11.39,11.39,0,0,0,.17,3c.72,3.64,3.19,6.35,5.72,8.45a36.89,36.89,0,0,0,7.15,4.64q1,.48,2,.9a33,33,0,0,0,23.5.94,27.19,27.19,0,0,0,7.45-3.84A229.9,229.9,0,0,1,353.23,461.5Z" />
      <path class="BUNTAI_DEER_OUTFIT_DEER_OUTFIT_32_cls-3" d="M310.77,357.74a35.17,35.17,0,0,1,7.7,4.59c-.11.18-.22.36-.34.54a7.1,7.1,0,0,1-.85,1.05,4.17,4.17,0,0,1-.37.36l0,0a5.71,5.71,0,0,1-.47.39l-.06,0a4.32,4.32,0,0,1-.5.33h0a5.28,5.28,0,0,1-.58.3h0c-.21.09-.42.18-.64.25-6.19,2.05-17.78-8.55-17.78-8.55s-5.88,14.45-14,16.25S254.26,357.76,240.27,361c.16-.07.31-.13.48-.22l0,0a9,9,0,0,0,3.78-4.08,3.72,3.72,0,0,0,.19.34,5.58,5.58,0,0,0,3.89,2.84,4.52,4.52,0,0,0,3.87-1.32A4.38,4.38,0,0,0,253,358l.11.13a4.6,4.6,0,0,0,7.42,0,4.8,4.8,0,0,0,1.19.66l.21.07a4.74,4.74,0,0,0,.72.18,4.91,4.91,0,0,0,1.53,0h0a2.57,2.57,0,0,0,.4-.07,1.61,1.61,0,0,0,.36-.1l.36-.14a1.55,1.55,0,0,0,.29-.14,1.91,1.91,0,0,0,.28-.15,4.32,4.32,0,0,0,.48-.31A7.44,7.44,0,0,0,269,353a.09.09,0,0,0,0-.05,8.16,8.16,0,0,0,0-1.31l.17.18a2.76,2.76,0,0,0,3.88,0l.09.25a4.54,4.54,0,0,0,.3.67,3.92,3.92,0,0,0,1.34,1.45,2,2,0,0,0,.27.17,3,3,0,0,0,2.16.22,2.79,2.79,0,0,0,.72-.29,11.14,11.14,0,0,1,2.19-1.38,2.74,2.74,0,0,1,.7-.08c.47,0,1,.11,1.43.12a4.46,4.46,0,0,0,3.33-1.43,6.23,6.23,0,0,0,1.28-1.9l0,0a5.89,5.89,0,0,0,.47-1.74l.31.1c.34.09.68-.87,1-.87C289.2,347.26,302.62,354.29,310.77,357.74Z" />
      <path class="BUNTAI_DEER_OUTFIT_DEER_OUTFIT_32_cls-4" d="M235,360.88c0,.52,0,1-.08,1.54,0,.25-.05.5-.09.75a11.66,11.66,0,0,1-1.71,4.69,5,5,0,0,1-4,2.58c-2,0-3.85-1.68-4.91-4.23a12.69,12.69,0,0,1-.79-2.76h0a15.06,15.06,0,0,1-.22-2.56,12.09,12.09,0,0,1,2.48-7.77,4.6,4.6,0,0,1,3.44-1.78,4.35,4.35,0,0,1,3.09,1.42h0C233.82,354.43,235,357.44,235,360.88Z" />
      <path class="BUNTAI_DEER_OUTFIT_DEER_OUTFIT_32_cls-5" d="M312.19,436.28c0,.4,0,.79,0,1.19a52.75,52.75,0,0,1-.6,7l-.16,1v0A51.13,51.13,0,0,1,306,461.18l-.05.08c0,.07-.06.13-.1.19a42.86,42.86,0,0,1-6.16,8.55c-19.13,20.93-56.71,9.26-60.58,3.35-.72-1.1-1.41-2.23-2.06-3.35h0c-2.28-3.93-4.07-7.71-4.71-9.1-.17-.36-.25-.56-.25-.56a72.07,72.07,0,0,0-3.26-6.88,76.39,76.39,0,0,1,9.77-16.52h0a63.59,63.59,0,0,1,16.39-15,51.11,51.11,0,0,1,42.22-5.78,39.82,39.82,0,0,1,12.75,6.54l.53.44.18.14A55.83,55.83,0,0,1,312.1,433c0,.52,0,1,.06,1.58,0,.27,0,.54,0,.82S312.19,436,312.19,436.28Z" />
      <path class="BUNTAI_DEER_OUTFIT_DEER_OUTFIT_32_cls-5" d="M228.81,453.46c-1,2.23-1.86,4.53-2.64,6.88a33.41,33.41,0,0,1-6.6,9.66C210.8,479,197,482.53,179.92,481a109.42,109.42,0,0,1-38.6-11,45.24,45.24,0,0,1-14.69-25.53,42.93,42.93,0,0,1-.75-7.15c0-.39,0-.76,0-1.14s0-.72,0-1.09c0-1.18.11-2.38.23-3.55a44.89,44.89,0,0,1,1.66-8.27l.89-.58a53.58,53.58,0,0,1,15.73-6.54,76,76,0,0,1,52.12,5.78,75.07,75.07,0,0,1,20.24,15h0A74.91,74.91,0,0,1,228.81,453.46Z" />
      <path class="BUNTAI_DEER_OUTFIT_DEER_OUTFIT_32_cls-6" d="M288.78,347.08c-.35,0-.69,1-1,.87l-.31-.1a5.89,5.89,0,0,1-.47,1.74l0,0a6.23,6.23,0,0,1-1.28,1.9,4.46,4.46,0,0,1-3.33,1.43c-.47,0-1-.11-1.43-.12a2.74,2.74,0,0,0-.7.08,11.14,11.14,0,0,0-2.19,1.38,2.79,2.79,0,0,1-.72.29,3,3,0,0,1-2.16-.22,2,2,0,0,1-.27-.17,3.92,3.92,0,0,1-1.34-1.45,4.54,4.54,0,0,1-.3-.67l-.09-.25a2.76,2.76,0,0,1-3.88,0l-.17-.18a8.16,8.16,0,0,1,0,1.31.09.09,0,0,1,0,.05,7.44,7.44,0,0,1-2.62,5.1,4.32,4.32,0,0,1-.48.31,1.91,1.91,0,0,1-.28.15,1.55,1.55,0,0,1-.29.14l-.36.14a1.61,1.61,0,0,1-.36.1,2.57,2.57,0,0,1-.4.07h0a4.91,4.91,0,0,1-1.53,0,4.74,4.74,0,0,1-.72-.18l-.21-.07a4.8,4.8,0,0,1-1.19-.66,4.6,4.6,0,0,1-7.42,0L253,358a4.38,4.38,0,0,1-.51.54,4.52,4.52,0,0,1-3.87,1.32,5.58,5.58,0,0,1-3.89-2.84,3.72,3.72,0,0,1-.19-.34,9,9,0,0,1-3.78,4.08l0,0c-.17.09-.32.15-.48.22h-.05a6.82,6.82,0,0,1-3.53.47l-.1,0h-.08l-.18,0-.08,0-.26-.06-.34-.09a4,4,0,0,1-.78,1.18c0-.5.08-1,.08-1.53,0-.37,0-.74,0-1.09s-.06-.71-.11-1.06-.06-.4-.1-.59l-.12-.59-.09-.37-.12-.44s0,0,0-.06c-.07-.23-.15-.47-.23-.69a9.44,9.44,0,0,0-.51-1.16c-.09-.18-.18-.35-.28-.51a5.64,5.64,0,0,0-.46-.7,4.63,4.63,0,0,0-.32-.42,6.1,6.1,0,0,0-.41-.46,3.71,3.71,0,0,1,3.54.49,4.55,4.55,0,0,1,2.22-4.41,3.3,3.3,0,0,1,4.14,1.46,2.67,2.67,0,0,1,1.85-2.23,2.11,2.11,0,0,1,2.3,1.27,5.57,5.57,0,0,1-.5-2.43,3.53,3.53,0,0,1,.71-2.43,1.55,1.55,0,0,1,2-.44,4.54,4.54,0,0,1,.8-3.63,2.8,2.8,0,0,1,.45-.52,2.75,2.75,0,0,1,.26-.22,4.64,4.64,0,0,1,.42-.25,3.47,3.47,0,0,1,.45-.17,2.28,2.28,0,0,1,1.16,0A7.78,7.78,0,0,1,254,333a7,7,0,0,1,5.34-2.13,11.7,11.7,0,0,1,5.51,1.82.66.66,0,0,1,.23-.39,2.32,2.32,0,0,1,.54-.38l.12-.07a1.43,1.43,0,0,1,1-.11,2.92,2.92,0,0,1,2,2,7.74,7.74,0,0,1,.65-6.42,5.25,5.25,0,0,1,4-2.78v0s3.73.48,4.22,2.58,1.09,4.09,1.09,4.09,2.14-1.27,3.33,1.63a23,23,0,0,1,1.43,6.28s3,1.16,3.38,3.26a19.38,19.38,0,0,0,1.75,4.36l.14.31Z" />
      <path class="BUNTAI_DEER_OUTFIT_DEER_OUTFIT_32_cls-6" d="M225.6,353.11c-.12.14-.24.29-.35.44s-.23.32-.34.49-.17.27-.25.42a9.84,9.84,0,0,0-.5,1c0,.12-.1.23-.14.35-.11.27-.21.56-.3.86s-.12.42-.17.63a4.54,4.54,0,0,0-.12.53c0,.12-.05.24-.08.37s0,.22,0,.34c-.07.45-.12.91-.15,1.39q0,.45,0,.93V361a15.63,15.63,0,0,0,.2,2.31s0,.08,0,.12l-.14,0h0a4.45,4.45,0,0,1-.77-.28l-.2-.1a3.35,3.35,0,0,1-.45-.27l-.41-.32a3.5,3.5,0,0,1-.39-.38l-.06-.07-.07-.08a3.79,3.79,0,0,1-.46-.67l-.46.1-.48.08-.49.06a10.35,10.35,0,0,1-4.21-.48h-.06l-.59-.22a9.71,9.71,0,0,1-2.69-1.67s0,0,0,0a10.25,10.25,0,0,1-2-2.42.08.08,0,0,0,0,0,7.05,7.05,0,0,1-5,3.14A6.5,6.5,0,0,1,198.9,358a6.52,6.52,0,0,1-9.29.11,6.93,6.93,0,0,1-10.52-6.47,4,4,0,0,1-4.09.71,3.64,3.64,0,0,1-.92-.52,1,1,0,0,1-.07.15h0a4.56,4.56,0,0,1-2.41,2.38l-.18.06a4.39,4.39,0,0,1-2.61.13,3.91,3.91,0,0,1-.75-.26,15,15,0,0,0-2.71-1.38,3.08,3.08,0,0,0-.68-.07c-.64,0-1.3.1-2,.11a6.18,6.18,0,0,1-4.1-1.43,6.38,6.38,0,0,1-1.94-2.67,5.63,5.63,0,0,1-.25-1l-.26.07a6.12,6.12,0,0,1-5.53-1.47,5.56,5.56,0,0,1-1-1.21l.26-.15.23-.13c-.17-6.4,4-11.53,6.86-12-.31-.9-.56-1.72-.75-2.47-1.4-5.48.13-7.2.13-7.2s4.19-3.26,5-3.26c-1.53-2.95,2.07-1.08,3.44-.3a5.38,5.38,0,0,1-.21,2.64,3.1,3.1,0,0,1,2-1.58,4.51,4.51,0,0,1,2.57.14,6,6,0,0,1,3.53,3.63,6.66,6.66,0,0,1,5.95,2.76,6.48,6.48,0,0,1,.79,6.43,3.39,3.39,0,0,1,2.52-2,2.12,2.12,0,0,1,1.17.11l.15.07a3.71,3.71,0,0,1,.52.27.91.91,0,0,1,.16.11.64.64,0,0,1,.27.39,16.92,16.92,0,0,1,6.8-1.82,9.86,9.86,0,0,1,6.61,2.13,6.92,6.92,0,0,1,2.58,6.23,3.49,3.49,0,0,1,1.44,0c.18.05.37.1.55.17a5,5,0,0,1,.52.25,3.37,3.37,0,0,1,.61.46,2.37,2.37,0,0,1,.27.28c.81,1,1.46,2.46,1,3.63a2.23,2.23,0,0,1,2.46.44,3.09,3.09,0,0,1,.87,2.43,4.61,4.61,0,0,1-.62,2.43,2.77,2.77,0,0,1,2.84-1.27,2.9,2.9,0,0,1,2.29,2.23,4.57,4.57,0,0,1,5.11-1.46,4.37,4.37,0,0,1,2.74,4.41,5.46,5.46,0,0,1,4.9-.29A2.43,2.43,0,0,1,225.6,353.11Z" />
      <path class="BUNTAI_DEER_OUTFIT_DEER_OUTFIT_32_cls-7" d="M348.2,390a19.22,19.22,0,0,1-.82,6.16,23,23,0,0,1-9,11.93A25.59,25.59,0,0,1,322,412.84a26.73,26.73,0,0,1-15.91-6.94c-.21-.18-.41-.37-.61-.57s-.24-.22-.35-.34c-.28-.27-.54-.55-.8-.83s-.39-.43-.57-.66l-.19-.24c-.22-.27-.44-.56-.64-.85l-.37-.54,0,0q-.28-.45-.54-.93s-.05-.09-.07-.14a5.77,5.77,0,0,1-.27-.56,2.41,2.41,0,0,1-.15-.33c-.07-.15-.13-.31-.19-.46-.12-.32-.24-.65-.33-1s-.12-.42-.17-.63a14.05,14.05,0,0,1-.27-4.68c0-.2.05-.4.08-.59a.85.85,0,0,1,0-.23c0-.22.07-.43.12-.64s.1-.49.17-.73a10.75,10.75,0,0,1,.47-1.49c.07-.18.15-.36.22-.53l0-.09.27-.55c.09-.17.18-.35.28-.51h0l.12-.2h0a4.38,4.38,0,0,1,.28-.42c.09-.13.19-.26.29-.38a6.43,6.43,0,0,1,1-1.06,1.71,1.71,0,0,1,.26-.21,5.22,5.22,0,0,1,.86-.55,14.38,14.38,0,0,0-5.92,5.43c-.22.38-.43.78-.62,1.19h0c0,.05,0,.11-.08.17s-.15.35-.22.53-.22.6-.31.9-.13.43-.18.65a4.54,4.54,0,0,0-.12.53c0,.13-.06.26-.08.39a11,11,0,0,0-.16,1.27.17.17,0,0,0,0,.07h0l-.66-.62c-.46-.4-.92-.78-1.4-1.14l-.58-.42-.59-.4c-.35-.24-.7-.46-1.06-.67h0c-.36-.21-.73-.42-1.1-.61s-.75-.39-1.13-.56-.72-.33-1.08-.49l-.17-.06c-.32-.14-.64-.26-1-.38l-.12,0c-.74-.27-1.48-.5-2.22-.7-.42-.12-.85-.22-1.27-.32a45.13,45.13,0,0,0-6-.91c-.61-.06-1.23-.11-1.84-.15s-1.22-.09-1.84-.12l-1.84-.11a4.89,4.89,0,0,1-.54,0h-.06l-2.16-.11c-.93-.05-1.85-.11-2.77-.19-1.23-.09-2.46-.22-3.68-.39a49.67,49.67,0,0,1-8.33-1.91c-.39-.12-.79-.25-1.18-.39l-1.12-.4c-.76-.28-1.52-.58-2.27-.9-.4-.16-.79-.34-1.19-.52l-.68-.31a53.45,53.45,0,0,1-5.46-2.95,27.3,27.3,0,0,1-8.8-8,19.2,19.2,0,0,1-2.17-4.43l.06-.1s0,0,0,0a7.84,7.84,0,0,0,.41-.69l0-.05c.11-.22.22-.46.33-.7a.5.5,0,0,0,0-.13,6.24,6.24,0,0,0,.28-.76,9.34,9.34,0,0,0,.29-.94s0,0,0,0c.1-.42.19-.85.26-1.3a20.43,20.43,0,0,1,5.24,0,43.69,43.69,0,0,1,9.31,2.51c5.85,2.15,12,3.83,17.09,7.93a22.7,22.7,0,0,0,11.58,5,17.4,17.4,0,0,0,5.24-.18l.14,0c.16,0,.32-.06.48-.09l.61-.15c.35-.09.7-.2,1-.31l.1,0a17.4,17.4,0,0,0,3.19-1.49q.62-.36,1.2-.78a19.87,19.87,0,0,0,1.72-1.34l0,0a21.56,21.56,0,0,0,6.15-9.37c.12-.34.22-.68.32-1a20.26,20.26,0,0,0,8.67,6.94,11.72,11.72,0,0,0,8.33.06h0a10.4,10.4,0,0,0,1.83-.91,9.54,9.54,0,0,0,1.36-1l.36-.31a12.85,12.85,0,0,0,2.62-3.73l.09.08a59.19,59.19,0,0,1,7.78,8.78,14.14,14.14,0,0,0-4.12,2.21,56.64,56.64,0,0,1-8,3.89l.51,0h.2l.52,0,.64,0h0l.74.05.55,0c1.15.08,2.52.2,4,.36l.47,0c.16,0,.32,0,.49,0h.6a40.69,40.69,0,0,0,5-.21l.94-.09,1-.12,1.49-.21a47.42,47.42,0,0,0,5.68,5.33c-.2.29-.45.6-.72.93l-.43.51c-.15.18-.31.35-.47.53l-.51.54-.52.53-.59.56c-.38.37-.78.72-1.19,1.06a19.42,19.42,0,0,1-1.78,1.35l-.57.37q-.28.18-.57.33l-.5.26,0,0h0l-.24.11a5.36,5.36,0,0,1-.58.23,17.89,17.89,0,0,0,14.26-3.7l.84.42.65.29C347.36,389.65,347.78,389.82,348.2,390Z" />
      <path class="BUNTAI_DEER_OUTFIT_DEER_OUTFIT_32_cls-7" d="M224.13,366.21c-.06.2-.12.4-.2.6s-.17.5-.27.74-.18.44-.27.66a15.67,15.67,0,0,1-1.39,2.54c-.16.26-.34.51-.52.76s-.39.53-.6.78-.39.46-.59.68-.34.38-.52.56a21.87,21.87,0,0,1-2.12,2h0l-.09.07c-.26.21-.52.42-.79.62s-.6.45-.91.66-.69.48-1,.7l-.65.41a.87.87,0,0,1-.18.11c-.29.19-.58.36-.87.53-.59.34-1.19.67-1.79,1-.43.24-.87.46-1.31.68-.59.29-1.18.58-1.77.85-.22.11-.44.21-.67.3l-1.13.5-.24.11-.23.1q-1.29.56-2.61,1.05l-1.32.49c-1.3.47-2.61.91-3.94,1.29l-1,.31c-.57.17-1.15.32-1.73.47a73.52,73.52,0,0,1-10.3,1.91c-.75.09-1.51.16-2.26.22-2.67.23-5.35.35-8,.46h-.26l-3.07.14c-1.52.07-3,.15-4.55.27a68.39,68.39,0,0,0-7.39.91l-1.62.33-.93.22c-.32.08-.63.15-.94.24-.53.14-1.07.3-1.6.46l-1,.33-1,.35c-.65.24-1.3.51-1.94.79l-.35.16-.46.21-1.26.63c-.26.13-.52.27-.77.42l-.35.2-.35.2-.15.1,0,0-.65.42-.17.11-.76.52-.09.06-.57.42-.24.18,0,0h0l0,0h0a.91.91,0,0,0,0-.23h0c0-.27-.07-.54-.12-.8s-.11-.53-.18-.8a11.43,11.43,0,0,0-1-2.53l0,0c-.12-.22-.25-.44-.39-.65a5.82,5.82,0,0,0-.44-.66c-.1-.14-.2-.27-.31-.4s-.19-.24-.3-.36a2.32,2.32,0,0,0-.21-.25l-.14-.15-.11-.12-.13-.13a3.83,3.83,0,0,0-.28-.29l-.15-.15a1.49,1.49,0,0,0-.14-.12l0,0-.31-.29-.14-.12c-.2-.17-.4-.33-.61-.48a.9.9,0,0,0-.19-.15,2.48,2.48,0,0,0-.26-.19.51.51,0,0,0-.13-.09l-.31-.21a.21.21,0,0,0-.08-.06l-.2-.13-.18-.12h0l-.3-.17a3.91,3.91,0,0,0-.44-.26l-.07,0-.19-.11a2.91,2.91,0,0,0-.35-.18l-.43-.22-.26-.13c-.35-.17-.7-.32-1.05-.47l.34.16a8.36,8.36,0,0,1,.83.46l.38.26a3.47,3.47,0,0,1,.38.29l.25.21.24.22a9,9,0,0,1,1,1.13v0h0a2,2,0,0,1,.17.23l0,0a.51.51,0,0,1,.09.13,4.08,4.08,0,0,1,.28.44c.06.09.11.19.16.28a2.68,2.68,0,0,1,.18.33c.07.13.14.26.2.4a11.34,11.34,0,0,1,.85,2.5c.05.23.09.46.13.7h0c0,.15,0,.28.06.43a0,0,0,0,1,0,0,4.6,4.6,0,0,1,.06.52,2.83,2.83,0,0,1,0,.29c0,.21,0,.43,0,.64a10.7,10.7,0,0,1-.43,3.15,11.8,11.8,0,0,1-1.94,3.78h0s0,0,0,0h0c-.32.42-.67.83-1,1.22a19.52,19.52,0,0,1-2.26,2.1l-1.26,1a37,37,0,0,1-24,6.92c-.81-.05-1.62-.13-2.43-.23a37.37,37.37,0,0,1-4.69-.92c-1.15-.31-2.3-.67-3.42-1.08l-1-.4a37.38,37.38,0,0,1-4.37-2.11c-.6-.34-1.2-.71-1.78-1.09s-1.15-.78-1.71-1.2-.85-.66-1.25-1-.57-.49-.85-.75-.69-.65-1-1l-.53-.57-.51-.58-.49-.6c-.32-.41-.62-.82-.91-1.25-.15-.21-.29-.43-.42-.65s-.27-.44-.4-.66c-.24-.41-.45-.83-.65-1.26-.1-.21-.2-.43-.29-.65s-.19-.44-.27-.66a15.92,15.92,0,0,1-1-6.16c.46-.15.92-.3,1.38-.47q1-.36,2-.78h0c.07,0,.37.26.91.58a.05.05,0,0,0,0,0,24.47,24.47,0,0,0,6,2.44l.79.2.43.09a5.78,5.78,0,0,0,.57.12,25.54,25.54,0,0,0,2.8.39l1.12.07c.38,0,.78,0,1.17,0a27.66,27.66,0,0,0,3.76-.26c-3.77-1-8.75-5-10.76-7.33a55.08,55.08,0,0,0,7-5.33,80.05,80.05,0,0,0,11,.63H110c.34,0,.67,0,1-.06l.89-.08,1.7-.13.61,0,.59,0,2.67-.16h.09l.37,0c1.18-.06,1.9-.08,1.9-.08a79.26,79.26,0,0,1-9.94-3.89,18.9,18.9,0,0,0-5.07-2.21c2.17-2.4,4.23-4.91,6.22-7.47l.06-.07a31.31,31.31,0,0,1,2.67-2.54l.11-.1a12.84,12.84,0,0,0,4.75,5.65,0,0,0,0,0,0,0,12,12,0,0,0,1.25.73,14,14,0,0,0,2.13.87l.1,0a17.72,17.72,0,0,0,10.35-.05,24.94,24.94,0,0,0,10.71-6.94c0,.07,0,.15.08.22h0a21.82,21.82,0,0,0,8.33,10.47h0a24.24,24.24,0,0,0,6.37,3.09l.07,0c.7.22,1.41.41,2.12.56a20.4,20.4,0,0,0,2.19.36,25.83,25.83,0,0,0,6,.07h0a31.64,31.64,0,0,0,14.12-5c6.32-4.1,13.87-5.78,21.1-7.93A64,64,0,0,1,215,363.19a30.09,30.09,0,0,1,8.21.22h0l.14,0c0,.18.07.35.11.52l.09.4a2.88,2.88,0,0,0,.11.42c.07.25.14.5.22.73S224,366,224.13,366.21Z" />
      <path class="BUNTAI_DEER_OUTFIT_DEER_OUTFIT_32_cls-3" d="M214.67,361c-17.27-3.23-42.52,14.14-52.52,12.35s-17.28-16.25-17.28-16.25-14.31,10.6-22,8.55a7,7,0,0,1-.81-.26l-.36-.14-.35-.15-.1,0a5.42,5.42,0,0,1-.48-.26l-.31-.18-.47-.32c-.2-.15-.39-.3-.57-.46s-.34-.3-.49-.46,0,0,0,0a4.75,4.75,0,0,1-.38-.4l0-.05-.12-.15q-.2-.24-.36-.48a10.23,10.23,0,0,1-.72-1.17l-.12-.23a53.44,53.44,0,0,1,8.66-5c9.33-4.29,19.21-8,23.81-10.58a5.56,5.56,0,0,0,1,1.21,6.12,6.12,0,0,0,5.53,1.47l.26-.07a5.63,5.63,0,0,0,.25,1,6.38,6.38,0,0,0,1.94,2.67,6.18,6.18,0,0,0,4.1,1.43c.66,0,1.32-.13,2-.11a3.08,3.08,0,0,1,.68.07,15,15,0,0,1,2.71,1.38,3.91,3.91,0,0,0,.75.26,4.39,4.39,0,0,0,2.61-.13l.18-.06A4.56,4.56,0,0,0,174,352h0a1,1,0,0,0,.07-.15,3.64,3.64,0,0,0,.92.52,4,4,0,0,0,4.09-.71,6.93,6.93,0,0,0,10.52,6.47,6.52,6.52,0,0,0,9.29-.11,6.5,6.5,0,0,0,5.41,1.86,7.05,7.05,0,0,0,5-3.14.08.08,0,0,1,0,0,10.25,10.25,0,0,0,2,2.42s0,0,0,0a9.71,9.71,0,0,0,2.69,1.67Z" />
      <path class="BUNTAI_DEER_OUTFIT_DEER_OUTFIT_32_cls-2" d="M216.75,436.93a75.07,75.07,0,0,0-20.24-15,76,76,0,0,0-52.12-5.78,53.58,53.58,0,0,0-15.73,6.54l-.89.58a44.89,44.89,0,0,0-1.66,8.27c-.12,1.17-.21,2.37-.23,3.55,0,.37,0,.73,0,1.09s0,.75,0,1.14a42.93,42.93,0,0,0,.75,7.15,44.86,44.86,0,0,0,7.12,17H75.19a192.2,192.2,0,0,1,12.23-51.38A37.26,37.26,0,0,0,96.61,414a49.73,49.73,0,0,0,29-.94,48.12,48.12,0,0,0,11.29-5.54c3.12-2.1,6.17-4.81,7.05-8.45a9,9,0,0,0,.21-3s0,0,0,0h0a35.6,35.6,0,0,1,15.23-6.39,71,71,0,0,1,7.39-.9c8.29,2.53,16,7.24,23.09,12.38q6.23,4.53,12,9.59c.23.39.47.77.71,1.15,3.12,4.85,7.12,9.11,10,14.11a35.63,35.63,0,0,1,3.86,9.84h0C216.6,436.18,216.68,436.56,216.75,436.93Z" />
      <path class="BUNTAI_DEER_OUTFIT_DEER_OUTFIT_32_cls-8" d="M264.27,387.64a50.68,50.68,0,0,1-8.33-1.91,55.76,55.76,0,0,1-5.36,25q4.68-5.06,9.72-9.59c5.72-5.14,12-9.85,18.7-12.38C274.11,388.27,269.16,388.32,264.27,387.64Z" />
      <path class="BUNTAI_DEER_OUTFIT_DEER_OUTFIT_32_cls-8" d="M201.94,410.71c.23.39.47.77.71,1.15,3.12,4.85,7.12,9.11,10,14.11a36.48,36.48,0,0,1,4.1,11h0a74.91,74.91,0,0,1,12.06,16.52,76.39,76.39,0,0,1,9.77-16.52h0a41.61,41.61,0,0,1,3.33-11c2.33-5,5.57-9.26,8.09-14.11.2-.38.39-.76.58-1.15C222.79,423.74,201.94,410.71,201.94,410.71Z" />
      <path class="BUNTAI_DEER_OUTFIT_DEER_OUTFIT_32_cls-8" d="M195.32,385.73a75,75,0,0,1-10.3,1.91c-6,.68-12.13.63-18.18,1.1,8.29,2.53,16,7.24,23.09,12.38q6.23,4.54,12,9.59A46.91,46.91,0,0,1,195.32,385.73Z" />
      <path class="BUNTAI_DEER_OUTFIT_DEER_OUTFIT_32_cls-4" d="M345.46,388.74c.51-4.81-3.92-5.94-5.54-3.63s-5.67,6.31-8.72,7.33A17.89,17.89,0,0,0,345.46,388.74Z" />
      <path class="BUNTAI_DEER_OUTFIT_DEER_OUTFIT_32_cls-4" d="M352,391.16A23.69,23.69,0,0,1,348.2,390a19.26,19.26,0,0,1-.82,6.16,23,23,0,0,1-9,11.93A25.65,25.65,0,0,1,322,412.84a26.73,26.73,0,0,1-15.91-6.94,16.06,16.06,0,0,1-5.27-8.1c-1.14-4.77.53-11,4.26-12.88a14.31,14.31,0,0,0-5.92,5.43,13.2,13.2,0,0,0-1.78,5.71,11.36,11.36,0,0,0,.17,3c.72,3.64,3.19,6.35,5.72,8.45,9.44,7.79,21.68,10.22,32.63,6.48a27.16,27.16,0,0,0,7.45-3.83,22.24,22.24,0,0,0,4.3-4.11A21.11,21.11,0,0,0,352,391.16Z" />
      <path class="BUNTAI_DEER_OUTFIT_DEER_OUTFIT_32_cls-4" d="M324.27,380.33a48.24,48.24,0,0,0,10-.55h0c-.54-5.75-2.74-6.65-4.95-6.09a14.14,14.14,0,0,0-4.12,2.21,56.64,56.64,0,0,1-8,3.89S320.39,379.9,324.27,380.33Z" />
      <path class="BUNTAI_DEER_OUTFIT_DEER_OUTFIT_32_cls-4" d="M320.48,364c.32.27.63.55.94.84a12.85,12.85,0,0,1-2.62,3.73l-.36.31a9.54,9.54,0,0,1-1.36,1,10.4,10.4,0,0,1-1.83.91h0a11.72,11.72,0,0,1-8.33-.06,20.26,20.26,0,0,1-8.67-6.94c-.1.35-.2.69-.32,1a21.56,21.56,0,0,1-6.15,9.37l0,0a19.87,19.87,0,0,1-1.72,1.34q-.58.42-1.2.78a17.4,17.4,0,0,1-3.19,1.49l-.1,0c-.35.11-.7.22-1,.31l-.61.15-.3.05-.18,0-.14,0a17.4,17.4,0,0,1-5.24.18,22.7,22.7,0,0,1-11.58-5c-5.12-4.1-11.24-5.78-17.09-7.93a43.69,43.69,0,0,0-9.31-2.51,20.43,20.43,0,0,0-5.24,0l.06-.44,0-.31a4,4,0,0,0,.78-1.18l.34.09.26.06.08,0,.18,0h.08l.1,0,.17,0,.24,0a6.74,6.74,0,0,0,3.12-.51h.05c14-3.23,34.44,14.14,42.54,12.35s14-16.25,14-16.25,11.59,10.6,17.78,8.55c.22-.07.43-.16.64-.25h0a5.28,5.28,0,0,0,.58-.3h0a4.32,4.32,0,0,0,.5-.33l.06,0a5.71,5.71,0,0,0,.47-.39l0,0a4.17,4.17,0,0,0,.37-.36,7.1,7.1,0,0,0,.85-1.05c.12-.18.23-.36.34-.54Q319.51,363.13,320.48,364Z" />
      <path class="BUNTAI_DEER_OUTFIT_DEER_OUTFIT_32_cls-4" d="M223.18,363.41a30.09,30.09,0,0,0-8.21-.22,64,64,0,0,0-11.49,2.51c-7.23,2.15-14.78,3.83-21.1,7.93a31.64,31.64,0,0,1-14.12,5h0a25.83,25.83,0,0,1-6-.07,20.4,20.4,0,0,1-2.19-.36c-.71-.15-1.42-.34-2.12-.56l-.07,0a24.24,24.24,0,0,1-6.37-3.09h0A21.82,21.82,0,0,1,143.2,364h0c0-.07,0-.15-.08-.22a24.94,24.94,0,0,1-10.71,6.94,17.72,17.72,0,0,1-10.35.05l-.1,0a14,14,0,0,1-2.13-.87,12,12,0,0,1-1.25-.73,0,0,0,0,1,0,0,12.84,12.84,0,0,1-4.75-5.65c.31-.28.65-.56,1-.86.69-.56,1.48-1.17,2.36-1.8l.12.23a10.23,10.23,0,0,0,.72,1.17q.17.24.36.48l.12.15c.14.15.27.31.42.45l0,0,.22.22,0,0,.25.22a6.36,6.36,0,0,0,.57.46l.47.32.31.18a5.42,5.42,0,0,0,.48.26l.1,0c.23.1.46.2.71.29a7,7,0,0,0,.81.26c7.65,2.05,22-8.55,22-8.55s7.26,14.45,17.28,16.25S197.4,357.76,214.67,361h.06a7.32,7.32,0,0,0,.8.23,10.12,10.12,0,0,0,2.85.29h.17l.39,0,.49-.06.48-.08.46-.1.21.35,0,0a3.15,3.15,0,0,0,.22.29l.06.08h0l.06.07a3.5,3.5,0,0,0,.39.38l.41.32a3.35,3.35,0,0,0,.45.27l.2.1a2.14,2.14,0,0,0,.39.16A2.4,2.4,0,0,0,223.18,363.41Z" />
      <path class="BUNTAI_DEER_OUTFIT_DEER_OUTFIT_32_cls-4" d="M144,399c-.88,3.64-3.93,6.35-7.05,8.45A48.12,48.12,0,0,1,125.62,413a49.73,49.73,0,0,1-29,.94,37.26,37.26,0,0,1-9.19-3.84c-.45-.26-.89-.54-1.33-.84h0a25.65,25.65,0,0,1-4-3.25,18.42,18.42,0,0,1-5.41-14.86c.41-.07.81-.15,1.22-.24a32.19,32.19,0,0,0,3.5-.93,16,16,0,0,0,1,6.16c2,5.18,6.26,9.19,11.08,11.93a37,37,0,0,0,39.93-2.19,21.28,21.28,0,0,0,4.57-4.31,11.48,11.48,0,0,0,.31-13.66h0a2.48,2.48,0,0,0-.19-.26,8.26,8.26,0,0,0-3.09-2.57,19.4,19.4,0,0,1,2.75,1.43h0a15,15,0,0,1,4.22,3.84,12.18,12.18,0,0,1,.85,1.34,11.09,11.09,0,0,1,1.31,4.13,1,1,0,0,1,0,.24A9,9,0,0,1,144,399Z" />
      <path class="BUNTAI_DEER_OUTFIT_DEER_OUTFIT_32_cls-4" d="M111,380.33c4.79-.43,8.82-.55,8.82-.55a78.7,78.7,0,0,1-9.93-3.89,19.12,19.12,0,0,0-5.08-2.21c-2.73-.57-5.45.34-6.12,6.09h0A73.24,73.24,0,0,0,111,380.33Z" />
      <path class="BUNTAI_DEER_OUTFIT_DEER_OUTFIT_32_cls-4" d="M102.39,392.44c-3.77-1-8.75-5-10.76-7.33a4.05,4.05,0,0,0-6.83,3.63A25.53,25.53,0,0,0,102.39,392.44Z" />
      <path class="BUNTAI_DEER_OUTFIT_DEER_OUTFIT_32_cls-9" d="M223.21,363.42l.13,0" />
      <path class="BUNTAI_DEER_OUTFIT_DEER_OUTFIT_32_cls-9" d="M214.73,361a10.21,10.21,0,0,0,5.64.24,4.51,4.51,0,0,0,2.81,2.17" />
      <path class="BUNTAI_DEER_OUTFIT_DEER_OUTFIT_32_cls-9" d="M214.67,361l-.59-.22a9.71,9.71,0,0,1-2.69-1.67s0,0,0,0a10.25,10.25,0,0,1-2-2.42.08.08,0,0,0,0,0,7.05,7.05,0,0,1-5,3.14A6.5,6.5,0,0,1,198.9,358a6.52,6.52,0,0,1-9.29.11,6.93,6.93,0,0,1-10.52-6.47,4,4,0,0,1-4.09.71,3.64,3.64,0,0,1-.92-.52,1,1,0,0,1-.07.15h0a4.56,4.56,0,0,1-2.41,2.38l-.18.06a4.39,4.39,0,0,1-2.61.13,3.91,3.91,0,0,1-.75-.26,15,15,0,0,0-2.71-1.38,3.08,3.08,0,0,0-.68-.07c-.64,0-1.3.1-2,.11a6.18,6.18,0,0,1-4.1-1.43,6.38,6.38,0,0,1-1.94-2.67,5.63,5.63,0,0,1-.25-1l-.26.07a6.12,6.12,0,0,1-5.53-1.47,5.56,5.56,0,0,1-1-1.21" />
      <path class="BUNTAI_DEER_OUTFIT_DEER_OUTFIT_32_cls-9" d="M164.85,319.73a5.38,5.38,0,0,1-.21,2.64,3.1,3.1,0,0,1,2-1.58,4.51,4.51,0,0,1,2.57.14,6,6,0,0,1,3.53,3.63,6.66,6.66,0,0,1,5.95,2.76,6.48,6.48,0,0,1,.79,6.43,3.39,3.39,0,0,1,2.52-2,2.12,2.12,0,0,1,1.17.11l.15.07a3.71,3.71,0,0,1,.52.27.91.91,0,0,1,.16.11.64.64,0,0,1,.27.39,16.92,16.92,0,0,1,6.8-1.82,9.86,9.86,0,0,1,6.61,2.13,6.92,6.92,0,0,1,2.58,6.23,3.49,3.49,0,0,1,1.44,0,3.2,3.2,0,0,1,.55.17,5,5,0,0,1,.52.25,3.37,3.37,0,0,1,.61.46,3.63,3.63,0,0,1,.27.28c.81,1,1.46,2.46,1,3.63a2.23,2.23,0,0,1,2.46.44,3.09,3.09,0,0,1,.87,2.43,4.61,4.61,0,0,1-.62,2.43,2.77,2.77,0,0,1,2.84-1.27,2.9,2.9,0,0,1,2.29,2.23,4.57,4.57,0,0,1,5.11-1.46,4.37,4.37,0,0,1,2.74,4.41,5.46,5.46,0,0,1,4.9-.29,2.43,2.43,0,0,1,.37.16" />
      <path class="BUNTAI_DEER_OUTFIT_DEER_OUTFIT_32_cls-9" d="M113.82,363.5a12.84,12.84,0,0,0,4.75,5.65,0,0,0,0,0,0,0,12,12,0,0,0,1.25.73,14,14,0,0,0,2.13.87l.1,0a17.72,17.72,0,0,0,10.35-.05,24.94,24.94,0,0,0,10.71-6.94c0,.07,0,.15.08.22h0a21.82,21.82,0,0,0,8.33,10.47h0a24.24,24.24,0,0,0,6.37,3.09l.07,0c.7.22,1.41.41,2.12.56a20.4,20.4,0,0,0,2.19.36,25.83,25.83,0,0,0,6,.07h0a31.64,31.64,0,0,0,14.12-5c6.32-4.1,13.87-5.78,21.1-7.93A64,64,0,0,1,215,363.19a30.09,30.09,0,0,1,8.21.22h0l.14,0" />
      <path class="BUNTAI_DEER_OUTFIT_DEER_OUTFIT_32_cls-9" d="M91.63,385.11a57,57,0,0,0,7-5.33" />
      <path class="BUNTAI_DEER_OUTFIT_DEER_OUTFIT_32_cls-9" d="M104.76,373.68c2.17-2.4,4.23-4.91,6.22-7.47l.06-.07" />
      <path class="BUNTAI_DEER_OUTFIT_DEER_OUTFIT_32_cls-9" d="M84.8,388.74c-1.11.47-2.24.88-3.39,1.25" />
      <path class="BUNTAI_DEER_OUTFIT_DEER_OUTFIT_32_cls-9" d="M134.67,384.92l.34.16a8.26,8.26,0,0,1,3.09,2.57,2.48,2.48,0,0,1,.19.26h0a11.48,11.48,0,0,1-.31,13.66,21.28,21.28,0,0,1-4.57,4.31,37,37,0,0,1-39.93,2.19c-4.82-2.74-9.13-6.75-11.08-11.93a16,16,0,0,1-1-6.16,32.19,32.19,0,0,1-3.5.93c-.41.09-.81.17-1.22.24A18.42,18.42,0,0,0,82.1,406a25.65,25.65,0,0,0,4,3.25h0c.44.3.88.58,1.33.84A37.26,37.26,0,0,0,96.61,414a49.73,49.73,0,0,0,29-.94,48.12,48.12,0,0,0,11.29-5.54c3.12-2.1,6.17-4.81,7.05-8.45a9.3,9.3,0,0,0,.21-3,1,1,0,0,0,0-.24,11.09,11.09,0,0,0-1.31-4.13,12.18,12.18,0,0,0-.85-1.34,16.48,16.48,0,0,0-7-5.27" />
      <path class="BUNTAI_DEER_OUTFIT_DEER_OUTFIT_32_cls-9" d="M87.42,410.12A192.2,192.2,0,0,0,75.19,461.5h58.56" />
      <path class="BUNTAI_DEER_OUTFIT_DEER_OUTFIT_32_cls-9" d="M144.17,396.06a35.6,35.6,0,0,1,15.28-6.42,71,71,0,0,1,7.39-.9c6-.47,12.16-.42,18.18-1.1a75,75,0,0,0,10.3-1.91A74.18,74.18,0,0,0,210,380.26c4.05-2,8-4.47,10.87-8a17.45,17.45,0,0,0,3.25-6.08" />
      <path class="BUNTAI_DEER_OUTFIT_DEER_OUTFIT_32_cls-9" d="M226.17,460.34a33.41,33.41,0,0,1-6.6,9.66C210.8,479,197,482.53,179.92,481a109.42,109.42,0,0,1-38.6-11,45.24,45.24,0,0,1-14.69-25.53,42.93,42.93,0,0,1-.75-7.15c0-.39,0-.76,0-1.14s0-.72,0-1.09c0-1.18.11-2.38.23-3.55a44.89,44.89,0,0,1,1.66-8.27c.17-.57.35-1.14.55-1.7v0a45,45,0,0,1,2.66-6.18" />
      <path class="BUNTAI_DEER_OUTFIT_DEER_OUTFIT_32_cls-9" d="M126.11,431.54a27.32,27.32,0,0,1-2.22-14.4" />
      <path class="BUNTAI_DEER_OUTFIT_DEER_OUTFIT_32_cls-9" d="M127.77,423.27a52.78,52.78,0,0,1,16.62-7.12,76,76,0,0,1,52.12,5.78,74.92,74.92,0,0,1,20.24,15" />
      <path class="BUNTAI_DEER_OUTFIT_DEER_OUTFIT_32_cls-9" d="M195.32,385.73a46.91,46.91,0,0,0,6.62,25c.23.39.47.77.71,1.15,3.12,4.85,7.12,9.11,10,14.11a36.48,36.48,0,0,1,4.1,11h0" />
      <path class="BUNTAI_DEER_OUTFIT_DEER_OUTFIT_32_cls-9" d="M166.84,388.74c8.29,2.53,16,7.24,23.09,12.38q6.23,4.54,12,9.59s20.85,13,48.64,0" />
      <path class="BUNTAI_DEER_OUTFIT_DEER_OUTFIT_32_cls-9" d="M117.2,360.84l.12.23a10.23,10.23,0,0,0,.72,1.17q.17.24.36.48l.12.15c.14.15.27.31.42.45l0,0,.22.22h0l.25.22c.18.16.37.31.57.46l.47.32.31.18a5.42,5.42,0,0,0,.48.26l.1,0c.23.1.46.2.71.29a7,7,0,0,0,.81.26c7.65,2.05,22-8.55,22-8.55s7.26,14.45,17.28,16.25S197.4,357.76,214.67,361h.06" />
      <path class="BUNTAI_DEER_OUTFIT_DEER_OUTFIT_32_cls-9" d="M98.64,379.78a73.24,73.24,0,0,0,12.31.55c4.79-.43,8.82-.55,8.82-.55a78.7,78.7,0,0,1-9.93-3.89,19.12,19.12,0,0,0-5.08-2.21c-2.73-.57-5.45.34-6.12,6.09Z" />
      <path class="BUNTAI_DEER_OUTFIT_DEER_OUTFIT_32_cls-9" d="M84.8,388.74a25.53,25.53,0,0,0,17.59,3.7c-3.77-1-8.75-5-10.76-7.33A4.05,4.05,0,0,0,84.8,388.74Z" />
      <path class="BUNTAI_DEER_OUTFIT_DEER_OUTFIT_32_cls-9" d="M240.27,361c.16-.07.31-.13.48-.22l0,0a9,9,0,0,0,3.78-4.08,3.72,3.72,0,0,0,.19.34,5.58,5.58,0,0,0,3.89,2.84,4.52,4.52,0,0,0,3.87-1.32A4.38,4.38,0,0,0,253,358l.11.13a4.6,4.6,0,0,0,7.42,0,4.8,4.8,0,0,0,1.19.66l.21.07a4.74,4.74,0,0,0,.72.18,4.91,4.91,0,0,0,1.53,0h0a1.87,1.87,0,0,0,.4-.07,1.61,1.61,0,0,0,.36-.1l.36-.14a1.55,1.55,0,0,0,.29-.14,1.91,1.91,0,0,0,.28-.15,4.32,4.32,0,0,0,.48-.31A7.44,7.44,0,0,0,269,353a.09.09,0,0,0,0-.05,8.16,8.16,0,0,0,0-1.31l.17.18a2.76,2.76,0,0,0,3.88,0l.09.25a4.54,4.54,0,0,0,.3.67,3.92,3.92,0,0,0,1.34,1.45,2,2,0,0,0,.27.17,3,3,0,0,0,2.16.22,2.79,2.79,0,0,0,.72-.29,11.14,11.14,0,0,1,2.19-1.38,2.74,2.74,0,0,1,.7-.08c.47,0,1,.11,1.43.12a4.46,4.46,0,0,0,3.33-1.43,6.23,6.23,0,0,0,1.28-1.9l0,0a5.89,5.89,0,0,0,.47-1.74l.31.1c.34.09.68-.87,1-.87" />
      <path class="BUNTAI_DEER_OUTFIT_DEER_OUTFIT_32_cls-9" d="M234.87,362.42a4.18,4.18,0,0,0,.78-1.18,6.79,6.79,0,0,0,4.57-.24" />
      <path class="BUNTAI_DEER_OUTFIT_DEER_OUTFIT_32_cls-9" d="M232.14,352.75a3.71,3.71,0,0,1,3.54.49,4.55,4.55,0,0,1,2.22-4.41,3.3,3.3,0,0,1,4.14,1.46,2.67,2.67,0,0,1,1.85-2.23,2.11,2.11,0,0,1,2.3,1.27,5.57,5.57,0,0,1-.5-2.43,3.53,3.53,0,0,1,.71-2.43,1.55,1.55,0,0,1,2-.44,4.54,4.54,0,0,1,.8-3.63,2.8,2.8,0,0,1,.45-.52,2.75,2.75,0,0,1,.26-.22,4.64,4.64,0,0,1,.42-.25,2.45,2.45,0,0,1,.45-.17,2.28,2.28,0,0,1,1.16,0A7.78,7.78,0,0,1,254,333a7,7,0,0,1,5.34-2.13,11.7,11.7,0,0,1,5.51,1.82.66.66,0,0,1,.23-.39,2.66,2.66,0,0,1,.54-.38l.12-.07a1.43,1.43,0,0,1,1-.11,2.92,2.92,0,0,1,2,2,7.74,7.74,0,0,1,.65-6.42,5.25,5.25,0,0,1,4-2.78" />
      <path class="BUNTAI_DEER_OUTFIT_DEER_OUTFIT_32_cls-9" d="M234.78,363.17a20.43,20.43,0,0,1,5.24,0,43.69,43.69,0,0,1,9.31,2.51c5.85,2.15,12,3.83,17.09,7.93a22.7,22.7,0,0,0,11.58,5,17.4,17.4,0,0,0,5.24-.18l.14,0,.18,0,.3-.05.61-.15c.35-.09.7-.2,1-.31l.1,0a17.4,17.4,0,0,0,3.19-1.49q.62-.36,1.2-.78a19.87,19.87,0,0,0,1.72-1.34l0,0a21.56,21.56,0,0,0,6.15-9.37c.12-.34.22-.68.32-1a20.26,20.26,0,0,0,8.67,6.94,11.72,11.72,0,0,0,8.33.06h0a10.4,10.4,0,0,0,1.83-.91,9.54,9.54,0,0,0,1.36-1l.36-.31a12.85,12.85,0,0,0,2.62-3.73" />
      <path class="BUNTAI_DEER_OUTFIT_DEER_OUTFIT_32_cls-9" d="M334.24,379.78a49.09,49.09,0,0,0,5.68,5.33" />
      <path class="BUNTAI_DEER_OUTFIT_DEER_OUTFIT_32_cls-9" d="M348.2,390a29.25,29.25,0,0,1-2.74-1.25h0" />
      <path class="BUNTAI_DEER_OUTFIT_DEER_OUTFIT_32_cls-9" d="M343.33,410.13a27.16,27.16,0,0,1-7.45,3.83c-10.95,3.74-23.19,1.31-32.63-6.48-2.53-2.1-5-4.81-5.72-8.45a11.36,11.36,0,0,1-.17-3,13.2,13.2,0,0,1,1.78-5.71,14.31,14.31,0,0,1,5.92-5.43c-3.73,1.92-5.4,8.11-4.26,12.88a16.06,16.06,0,0,0,5.27,8.1A26.73,26.73,0,0,0,322,412.84a25.65,25.65,0,0,0,16.43-4.76,23,23,0,0,0,9-11.93,19.26,19.26,0,0,0,.82-6.16,23.69,23.69,0,0,0,3.82,1.17A21.11,21.11,0,0,1,347.63,406a22.24,22.24,0,0,1-4.3,4.11" />
      <path class="BUNTAI_DEER_OUTFIT_DEER_OUTFIT_32_cls-9" d="M343.33,410.13a229.68,229.68,0,0,1,9.9,51.38h-47.3" />
      <path class="BUNTAI_DEER_OUTFIT_DEER_OUTFIT_32_cls-9" d="M233.07,367.86a19.2,19.2,0,0,0,2.17,4.43,27.3,27.3,0,0,0,8.8,8,53.41,53.41,0,0,0,11.9,5.47,50.68,50.68,0,0,0,8.33,1.91c4.89.68,9.84.63,14.73,1.1a46.8,46.8,0,0,1,6,.9,26.22,26.22,0,0,1,12.37,6.42" />
      <path class="BUNTAI_DEER_OUTFIT_DEER_OUTFIT_32_cls-9" d="M299.67,470a42.86,42.86,0,0,0,6.16-8.55c0-.06.06-.12.1-.19l.05-.08a51.13,51.13,0,0,0,5.43-15.72v0l.16-1a52.75,52.75,0,0,0,.6-7c0-.4,0-.79,0-1.19s0-.62,0-.93,0-.55,0-.82c0-.54,0-1.06-.06-1.58a55.83,55.83,0,0,0-1.45-9.68c-.13-.55-.27-1.1-.43-1.65l0-.07h0a51.08,51.08,0,0,0-2.15-6.17" />
      <path class="BUNTAI_DEER_OUTFIT_DEER_OUTFIT_32_cls-9" d="M313.8,417.14a33.35,33.35,0,0,1-1.81,14.4" />
      <path class="BUNTAI_DEER_OUTFIT_DEER_OUTFIT_32_cls-9" d="M238.58,436.93a63.75,63.75,0,0,1,16.39-15,51.11,51.11,0,0,1,42.22-5.78,39.05,39.05,0,0,1,13.46,7.12" />
      <path class="BUNTAI_DEER_OUTFIT_DEER_OUTFIT_32_cls-9" d="M238.58,436.94h0a41.61,41.61,0,0,1,3.33-11c2.33-5,5.57-9.26,8.09-14.11.2-.38.39-.76.58-1.15a55.76,55.76,0,0,0,5.36-25" />
      <path class="BUNTAI_DEER_OUTFIT_DEER_OUTFIT_32_cls-9" d="M250.58,410.71q4.68-5.06,9.72-9.59c5.72-5.14,12-9.85,18.7-12.38" />
      <path class="BUNTAI_DEER_OUTFIT_DEER_OUTFIT_32_cls-9" d="M318.47,362.33a5.35,5.35,0,0,1-.34.54,7.1,7.1,0,0,1-.85,1.05,4.17,4.17,0,0,1-.37.36l0,0a5.71,5.71,0,0,1-.47.39l-.06,0a4.32,4.32,0,0,1-.5.33h0a5.28,5.28,0,0,1-.58.3h0c-.21.09-.42.18-.64.25-6.19,2.05-17.78-8.55-17.78-8.55s-5.88,14.45-14,16.25S254.26,357.76,240.27,361h-.05" />
      <path class="BUNTAI_DEER_OUTFIT_DEER_OUTFIT_32_cls-9" d="M334.24,379.78a48.24,48.24,0,0,1-10,.55c-3.88-.43-7.14-.55-7.14-.55a56.64,56.64,0,0,0,8-3.89,14.14,14.14,0,0,1,4.12-2.21c2.21-.56,4.41.34,4.95,6.09Z" />
      <path class="BUNTAI_DEER_OUTFIT_DEER_OUTFIT_32_cls-9" d="M345.46,388.74a17.89,17.89,0,0,1-14.26,3.7c3.05-1,7.09-5,8.72-7.33S346,383.93,345.46,388.74Z" />
      <path class="BUNTAI_DEER_OUTFIT_DEER_OUTFIT_32_cls-9" d="M232.14,352.75c1.68,1.68,2.81,4.69,2.81,8.13,0,.52,0,1-.08,1.54,0,.25-.05.5-.09.75a11.66,11.66,0,0,1-1.71,4.69,5,5,0,0,1-4,2.58c-2,0-3.85-1.68-4.91-4.23a12.69,12.69,0,0,1-.79-2.76h0a15.06,15.06,0,0,1-.22-2.56,12.09,12.09,0,0,1,2.48-7.77,4.6,4.6,0,0,1,3.44-1.78,4.35,4.35,0,0,1,3.09,1.42Z" />
      <path class="BUNTAI_DEER_OUTFIT_DEER_OUTFIT_32_cls-9" d="M164.85,319.73c-1.37-.78-5-2.65-3.44.3-.82,0-5,3.26-5,3.26s-2,2.22.62,9.67c-2.87.47-7,5.6-6.86,12l-.49.28c-4.6,2.57-14.48,6.29-23.81,10.58a53.44,53.44,0,0,0-8.66,5c-1.34,1-2.47,1.87-3.38,2.66a34.77,34.77,0,0,0-2.78,2.64l-.06.07" />
      <path class="BUNTAI_DEER_OUTFIT_DEER_OUTFIT_32_cls-9" d="M329.29,373.68a58.8,58.8,0,0,0-7.87-8.86c-.93-.86-1.92-1.7-2.95-2.49a35.17,35.17,0,0,0-7.7-4.59c-8.15-3.45-21.57-10.48-22-10.66h0a16.62,16.62,0,0,1-1.89-4.67c-.35-2.1-3.38-3.26-3.38-3.26a23,23,0,0,0-1.43-6.28c-1.19-2.9-3.33-1.63-3.33-1.63s-.59-2-1.09-4.09-4.22-2.58-4.22-2.58v0" />
      <g class="BUNTAI_DEER_OUTFIT_DEER_OUTFIT_32_cls-10">
        <path d="M226.17,460.34a43.72,43.72,0,0,1-1.71,9.66h-4.89C210.8,479,197,482.53,179.92,481a109.42,109.42,0,0,1-38.6-11,44.7,44.7,0,0,1-7.57-8.5H75.19a192.2,192.2,0,0,1,12.23-51.38c-.45-.26-.89-.54-1.33-.84.91.5,20.88,11.09,39.77,3.21l-.24.53c-.61,1.35-1.23,2.72-1.74,4.18-1.72,4.9-2.33,10.83,2,20.3a1.08,1.08,0,0,1,0-.18c0-.39,0-.76,0-1.14s0-.72,0-1.09c0-1.28.1-2.48.21-3.61a35.1,35.1,0,0,1,2.23-9.91v0s.11.4.34,1.14c1.89,6.15,12.22,35.37,39.45,43C198.59,474.21,226.17,460.34,226.17,460.34Z" />
        <path d="M82.67,389.36s9.5,13.47,25.08,16.29,33.82-9.56,30-19.15c5.09,12.41-.35,20.77-15.09,25.8S86.86,412.21,82.41,402s-4.5-11.1-4.5-11.1Z" />
        <path d="M86.87,384.41s1.34,7.44,14.49,7.69c-13.13-.18-16.56-3.36-16.56-3.36S84.64,385.44,86.87,384.41Z" />
        <path d="M98.72,379.17s2.53,1.19,9.52,1.23,9.17-.52,9.17-.52-8.6-1.48-12.65-2.5-4.86-1.85-4.86-1.85Z" />
        <path d="M216.51,435.82s-18.24-21-47.45-26.5-37.94,3.58-37.94,3.58,7.36-10.32,29.11-9.3S204.12,415,216.51,435.82Z" />
        <path d="M222.73,364s-12.85,12-26.12,15.18-28.5,3.59-41.69,8.66c12.24-6,27-9.11,27-9.11s-22.88,2.83-31.18,7-7.92,5.92-7.92,5.92l1.4,4.39s6.15-8.32,30.35-7.71,38.35-9.91,43.09-12.84a17,17,0,0,0,6.48-8.22Z" />
        <path d="M227.85,351.53s-2.67,7.64-1.2,12.41,4.43,5.9,4.43,5.9-6,2.4-7.74-6.39C222.55,357.63,223.72,352.25,227.85,351.53Z" />
        <path d="M224.13,358.06v5.35a2.75,2.75,0,0,1-.81-.09,6.71,6.71,0,0,1-2-.88,11.54,11.54,0,0,1-1.44-1.1,11.89,11.89,0,0,1-8.52-2.24s0,0,0,0a8.13,8.13,0,0,1-2-2.38,3.91,3.91,0,0,1-.31-.57c-3.38,4.31-5.95,4.29-10.13,1.85-5.07,2.29-6.75,2-9.18-.1-3.51,2.26-9.24,1.64-10.63-6.26a5.6,5.6,0,0,1-4.09.71,3.71,3.71,0,0,1-1-.37h0c0,.18-.1,1.89-2.59,2.44a7.2,7.2,0,0,1-1.52.18,7.46,7.46,0,0,1-1.09-.05c-2-.22-2.92-1.18-4.14-1.71a4.45,4.45,0,0,0-2.69-.28c-2.41.41-4.34-2.1-5.31-3.71-.22-.38-.4-.7-.51-.93l-.17-.35s-4.4,1.4-6.06-2.48l.23-.13c-.17-6.4,4-11.53,6.86-12-.31-.9-.56-1.72-.75-2.47,6.65,1.23,10.54,4.45,11.24,5.84.85,1.69,7.35,5.53,8.94,5.87s11.43-1,17.6,2.81,11.3,6.91,12,7.34,5.48,1.94,6.59,2.55.69,1.2,5.91,1.29c2.68,0,4.09.53,4.82,1h0l.19.14A1.43,1.43,0,0,1,224.13,358.06Z" />
        <path d="M168.28,378.63l-.17.58a57.7,57.7,0,0,1-5.82-.66,40.65,40.65,0,0,1-4.31-.92l-.07,0a15.13,15.13,0,0,1-6.37-3.09h0c-4.14-4.08-6.32-6-8.33-10.47-3.61,4.1-11.93,10.09-21.14,6.76l-.1,0a19.4,19.4,0,0,1-3.38-1.6,0,0,0,0,1,0,0,10.77,10.77,0,0,1-4.86-5.55l.11-.1c.31-.28.65-.56,1-.86,1.89,3.82,6,9.24,13.46,6,10.95-4.78,16.35-7.25,16.35-7.25s10.54,13.83,16,14.93a29.11,29.11,0,0,1,7.58,2.3h0Z" />
        <path d="M311.42,445.44v0A86.23,86.23,0,0,1,306,461.18l-.05.08v.24l-.1-.05a42.86,42.86,0,0,1-6.16,8.55c-19.13,20.93-56.71,9.26-60.58,3.35-.72-1.1-1.41-2.23-2.06-3.35h-4.31a53.32,53.32,0,0,1-1.37-9.66s.33.21,1,.56c4.54,2.52,24.29,12.26,45.82,4.78,21.94-7.62,30.27-36.84,31.8-43l.26-1.14,0,.07a42.74,42.74,0,0,1,1.78,9.89c0,.47.07.95.1,1.44s0,1,.06,1.58c0,.27,0,.54,0,.82v.86c0,.42,0,.85,0,1.29a0,0,0,0,0,0,0l.09-.25A30.82,30.82,0,0,1,311.42,445.44Z" />
        <path d="M328.73,415.08a22.24,22.24,0,0,1-3.3.3A31.85,31.85,0,0,0,328.73,415.08Z" />
        <path d="M347,389.36s-7.66,13.47-20.22,16.29-27.25-9.56-24.18-19.15c-4.11,12.41.28,20.77,12.16,25.8s28.86-.09,32.44-10.28,3.63-11.1,3.63-11.1Z" />
        <path d="M343.61,384.41s-1.08,7.44-11.68,7.69c10.58-.18,13.35-3.36,13.35-3.36S345.4,385.44,343.61,384.41Z" />
        <path d="M334.06,379.17s-2,1.19-7.67,1.23-7.39-.52-7.39-.52,6.93-1.48,10.19-2.5,3.91-1.85,3.91-1.85Z" />
        <path d="M239.13,435.82s14.7-21,38.24-26.51S308,412.9,308,412.9s-5.94-10.32-23.46-9.3S249.11,415,239.13,435.82Z" />
        <path d="M234.12,364s10.35,12,21,15.18,23,3.59,33.6,8.66A92.88,92.88,0,0,0,267,378.76s18.44,2.83,25.14,7,6.38,5.92,6.38,5.92L297.4,396s-5-8.32-24.46-7.71-30.91-9.91-34.72-12.84-5.23-8.22-5.23-8.22Z" />
        <path d="M230,351.53s2.15,7.64,1,12.41-3.57,5.9-3.57,5.9,6,2.4,7.34-6.39C235.36,357.63,233.32,352.25,230,351.53Z" />
        <path d="M286.88,342.4a19.38,19.38,0,0,0,1.75,4.36c-.45-.08-.73.81-.73.81s0,.14-.15.38a16.55,16.55,0,0,1-.78,1.64l0,0c-.85,1.52-2.23,3.29-3.88,2.94a3,3,0,0,0-2.16.27c-1,.57-1.82,1.6-3.61,1.75a4,4,0,0,1-.61,0,4.22,4.22,0,0,1-1.82-.41,2.58,2.58,0,0,1-1.34-1.45,2.36,2.36,0,0,1-.15-.77l-.15.1a3.11,3.11,0,0,1-1,.36,3.91,3.91,0,0,1-2.9-.8l0,.18c-.06.4-.13.77-.21,1.13a.09.09,0,0,1,0,.05c-.62,2.88-1.78,4.58-3.1,5.41a1.91,1.91,0,0,1-.28.15,1.55,1.55,0,0,1-.29.14l-.36.14a1.61,1.61,0,0,1-.36.1,2.57,2.57,0,0,1-.4.07h0a4.85,4.85,0,0,1-3.49-1.12c-2.07,1.94-3.31,2.39-7.4.1l-.18.13c-.21.15-.42.29-.62.41-2.9,1.87-5.31,1.74-7.82-2.22-.12.31.21.43.06.7a7.76,7.76,0,0,1-4,3.74l0,0a8.9,8.9,0,0,1-4.36.57l-.06.07a7.86,7.86,0,0,1-1.49,1.32,4.18,4.18,0,0,1-1.2.59,1.79,1.79,0,0,1-.65.09v-5.35a1.58,1.58,0,0,1,.62-.86,3.24,3.24,0,0,1,.76-.45,8.31,8.31,0,0,1,3.13-.56c4.21-.09,3.87-.69,4.76-1.29s4.76-2.13,5.32-2.55,4.69-3.5,9.66-7.34,12.9-2.47,14.18-2.81,6.51-4.18,7.2-5.87a9.27,9.27,0,0,1,3.45-3.47,23,23,0,0,1,1.43,6.28S286.53,340.3,286.88,342.4Z" />
        <path d="M321.42,364.82l.09.08a10.43,10.43,0,0,1-2.71,3.65l-.36.31a14.21,14.21,0,0,1-3.19,1.94h0c-7.42,3.3-14.1-2.7-17-6.78-.1.28-.2.55-.31.81-1.49,3.79-3.17,5.74-6.15,9.37l0,0-.24.29a12.16,12.16,0,0,1-5.87,3.32l-.1,0c-.66.2-1.32.37-2,.51l-.18,0-.14,0a37,37,0,0,1-5.11.75l-.13-.57h0a20.28,20.28,0,0,1,6.14-2.31c4.41-1.1,12.9-14.93,12.9-14.93s4.35,2.47,13.18,7.25c5.32,2.87,8.54-1.07,10.26-4.66C320.8,364.25,321.11,364.53,321.42,364.82Z" />
        <path d="M312.18,412.49c2.2,6,4.61,12.25.09,24.73,0-.3,0-.58-.07-.87,0-.05,0-.09,0-.14v0l-1.06-9.31-.92-5.33.24-11.43s3.28,4.87,14.27,5.25h.58A26.42,26.42,0,0,1,312.18,412.49Z" />
      </g>
      <path class="BUNTAI_DEER_OUTFIT_DEER_OUTFIT_32_cls-11" d="M228.81,416.41a20.36,20.36,0,0,0-4.65-10.29" />
      <path class="BUNTAI_DEER_OUTFIT_DEER_OUTFIT_32_cls-11" d="M230,406.12s-2.28,3.3-2.64,5.21" />
    </g>
  </g>
</svg>