<svg xmlns="http://www.w3.org/2000/svg" viewBox="0 0 432 432">
  <defs>
    <style>.BUNTAI_DEER_OUTFIT_DEER_OUTFIT_29_cls-1{isolation:isolate;}.BUNTAI_DEER_OUTFIT_DEER_OUTFIT_29_cls-2{fill:#f4b645;}.BUNTAI_DEER_OUTFIT_DEER_OUTFIT_29_cls-3{fill:#85ff43;}.BUNTAI_DEER_OUTFIT_DEER_OUTFIT_29_cls-4{fill:#fbeec1;}.BUNTAI_DEER_OUTFIT_DEER_OUTFIT_29_cls-5{fill:#fff;}.BUNTAI_DEER_OUTFIT_DEER_OUTFIT_29_cls-6{fill:#403c56;}.BUNTAI_DEER_OUTFIT_DEER_OUTFIT_29_cls-7,.BUNTAI_DEER_OUTFIT_DEER_OUTFIT_29_cls-9{fill:none;stroke:#000;stroke-linecap:round;stroke-linejoin:round;}.BUNTAI_DEER_OUTFIT_DEER_OUTFIT_29_cls-7{stroke-width:2.09px;}.BUNTAI_DEER_OUTFIT_DEER_OUTFIT_29_cls-8{opacity:0.43;mix-blend-mode:multiply;}.BUNTAI_DEER_OUTFIT_DEER_OUTFIT_29_cls-9{stroke-width:1.71px;}</style>
  </defs>
  <g class="BUNTAI_DEER_OUTFIT_DEER_OUTFIT_29_cls-1">
    <g id="outfit">
      <path class="BUNTAI_DEER_OUTFIT_DEER_OUTFIT_29_cls-2" d="M100.17,454.7l-.11,0c-.29-.11-5-.22-5.23-.33A74,74,0,0,1,78,445.12a84.42,84.42,0,0,1-6.61-5.31,19.48,19.48,0,0,1,3.21-8,23.44,23.44,0,0,1,3.49-4.06q2,3.09,4.07,6.18c1.15,1.73,2.29,3.47,3.44,5.21l5.88,8.93c1.26,1.9,6.89,3.82,8.15,5.72C99.78,454.12,100,454.41,100.17,454.7Z" />
      <path class="BUNTAI_DEER_OUTFIT_DEER_OUTFIT_29_cls-2" d="M194.67,422.08c.43-2.23,4.32-1.83,4,.65a2,2,0,0,1-2.23,1.6A2.1,2.1,0,0,1,194.67,422.08Z" />
      <path class="BUNTAI_DEER_OUTFIT_DEER_OUTFIT_29_cls-3" d="M203.17,432.36v0a11.71,11.71,0,0,1-2.53,3.71l0,.05a352.9,352.9,0,0,0-40.87-22,289.89,289.89,0,0,0-68.8-21.69c-.25-2.18-.52-4.35-.79-6.53l-.69-5.8a329.47,329.47,0,0,1,43.75,14l1,.38,2.6,1.06q8.59,3.54,17,7.57c1.35.65,2.7,1.3,4,2,9.2,4.56,18.19,9.54,26.89,14.92l2.45,1.53c1.18.75,2.37,1.5,3.54,2.27.86.55,1.72,1.11,2.57,1.68l.33.22,1.52,1c2,1.36,4,2.74,6,4.15l.25.18.92.66Z" />
      <path class="BUNTAI_DEER_OUTFIT_DEER_OUTFIT_29_cls-2" d="M174.87,408.55a2.1,2.1,0,0,0,1.8,2.25,2,2,0,0,0,2.23-1.6C179.19,406.72,175.3,406.32,174.87,408.55Z" />
      <path class="BUNTAI_DEER_OUTFIT_DEER_OUTFIT_29_cls-2" d="M160.7,389.22a8.36,8.36,0,0,0-5,1.5,7.38,7.38,0,0,0-2.31,3.47,12.77,12.77,0,0,0,.33,8.94c1.35.65,2.7,1.3,4,2a9.81,9.81,0,0,1-2.38-6.75,7.35,7.35,0,0,1,5.78-6.3,9,9,0,0,1,8.74,3.09,6.92,6.92,0,0,1,.14,8.46c2.49-2.49,2.55-6.66.46-9.66A12.05,12.05,0,0,0,160.7,389.22Z" />
      <path class="BUNTAI_DEER_OUTFIT_DEER_OUTFIT_29_cls-2" d="M176.79,399.68a15.08,15.08,0,0,1,9.86,9.95,12.18,12.18,0,0,1-2,10.4l2.45,1.52a12.54,12.54,0,0,0,2.09-12.42A15.81,15.81,0,0,0,176.79,399.68Z" />
      <path class="BUNTAI_DEER_OUTFIT_DEER_OUTFIT_29_cls-2" d="M206.34,423.84a15.78,15.78,0,0,0-12.41-9.44,15.07,15.07,0,0,1,9.87,9.93,12.09,12.09,0,0,1-.63,8l2.49,1.8A12.55,12.55,0,0,0,206.34,423.84Z" />
      <path class="BUNTAI_DEER_OUTFIT_DEER_OUTFIT_29_cls-4" d="M232.75,467.45H204l0,0A74.41,74.41,0,0,0,191.32,455a75.19,75.19,0,0,0-10.1-6.64c-8.67-4.76-18.23-7.87-26.94-12.56-8.22-4.43-16-10.78-19.07-18.92-.19-.49-.37-1-.52-1.49l-.67.05c-7.84.55-16.08-1.37-23.6-4-7.74-2.7-15.3-6-23.28-7.89A50.4,50.4,0,0,0,76,402.17l-.89-.82c.48-.79,1.27-1.55,1.75-2.34,0-.23-.11-.46-.17-.69-.66-2.75-1.3-5.49-2-8.23q8.1.9,16.15,2.34a289.89,289.89,0,0,1,68.8,21.69,352.9,352.9,0,0,1,40.87,22l2.33,1.46,2.17,1.39.83.53,1.09.71,1,.65,2.28,1.49.55.37h0q9.07,6,17.8,12.54h0A116.84,116.84,0,0,1,232.75,467.45Z" />
      <path class="BUNTAI_DEER_OUTFIT_DEER_OUTFIT_29_cls-4" d="M226.74,450.78c-.15-.33-.3-.66-.44-1-.09-.19-.18-.38-.26-.57s-.27-.57-.4-.86h0l-.4-.84c-.14-.3-.28-.59-.43-.88h0c-.11-.22-.22-.44-.34-.66-.22-.45-.44-.89-.67-1.33-.34-.67-.69-1.33-1-2s-.71-1.31-1.08-2l-.72-1.26c-.55-1-1.13-2-1.72-2.91-.33-.55-.67-1.09-1-1.64s-.81-1.27-1.22-1.9-.84-1.27-1.27-1.89c-.74-1.08-1.49-2.15-2.26-3.2l-.37-.51h0q-2.61-3.56-5.48-6.94c-1.56-1.85-3.19-3.65-4.86-5.41-.56-.59-1.12-1.17-1.69-1.74q-1.29-1.31-2.61-2.58c-.86-.83-1.73-1.65-2.62-2.46h0l0,0h0c-.91-.82-1.82-1.64-2.75-2.44s-1.87-1.6-2.82-2.38h0c-.22-.19-.45-.37-.67-.54l-.45-.36-1.32-1.05-1.44-1.11-.79-.6-.13-.09-.14-.11-.64-.47-1-.76h0c-.69-.51-1.38-1-2.08-1.48l-.27-.19c-.29-.21-.59-.41-.89-.61-.74-.51-1.48-1-2.23-1.5s-1.59-1-2.39-1.54-1.8-1.1-2.71-1.65l-1.37-.8c-.17-.1-.33-.2-.51-.29h0l-.86-.49-.28-.16c-.83-.46-1.66-.92-2.49-1.36s-1.49-.79-2.23-1.17l-.29-.16c-1.05-.53-2.11-1.06-3.18-1.57l-1.93-.91c-.58.2-1.16.4-1.74.62l-1.72.64c-.86.33-1.72.67-2.57,1s-1.69.71-2.53,1.08c-1.11.49-2.22,1-3.31,1.54-.55.26-1.1.53-1.64.81l-.23.11-.67.35s0,0,0,0a.2.2,0,0,0-.08,0,.93.93,0,0,0-.2.1l-.48.25-.37.19-.14.07-.05,0c-.4.21-.79.43-1.18.65s-.94.51-1.4.78l-.15.09c-.77.44-1.55.9-2.31,1.37l-2,1.24-.26.17h0l0,0,1.65.7c1.72.72,3.43,1.45,5.14,2.21l2.47,1.09.39.17c.91.41,1.84.82,2.74,1.25l.55.25c1.35.62,2.69,1.25,4,1.89a2.6,2.6,0,0,1-.1-.25q-.13-.35-.24-.69a12.2,12.2,0,0,1-.43-1.76,4.71,4.71,0,0,1-.09-.52l0-.2h0v-.12a0,0,0,0,1,0,0,2.43,2.43,0,0,1,0-.38s0,0,0-.05a1.23,1.23,0,0,0,0-.19c0-.15,0-.3,0-.45v-.32s0,0,0,0v-.38c0-.17,0-.34,0-.51a.43.43,0,0,1,0-.11.78.78,0,0,1,0-.16,1.1,1.1,0,0,1,0-.18.81.81,0,0,0,0-.16c0-.17,0-.34.07-.5s0-.1,0-.15l0-.14a.14.14,0,0,1,0-.07,1.18,1.18,0,0,1,0-.2,4.37,4.37,0,0,1,.12-.52,8.52,8.52,0,0,1,.26-.86,7.8,7.8,0,0,1,1.91-3.12,3.42,3.42,0,0,1,.4-.36,4.41,4.41,0,0,1,.53-.35,6.33,6.33,0,0,1,1.17-.57,6.4,6.4,0,0,1,.62-.2l.54-.13.14,0,.64-.11a11.91,11.91,0,0,1,1.35-.1,7.58,7.58,0,0,1,.83,0,4.46,4.46,0,0,1,.63.05l.17,0a3.23,3.23,0,0,1,.53.08l.14,0a6.19,6.19,0,0,1,.62.13l.69.17a11.53,11.53,0,0,1,2,.75l.62.32q.39.21.75.45a10.54,10.54,0,0,1,2,1.64c.15.16.31.34.45.52s.28.35.41.54a8.06,8.06,0,0,1,1,7.37,6.65,6.65,0,0,1-.27.61l0,.1a1,1,0,0,1-.13.23,1.56,1.56,0,0,1-.16.28l-.06.09a4.06,4.06,0,0,1-.26.36l0,.06a.44.44,0,0,1-.09.11s0,0,0,0a3.08,3.08,0,0,1-.3.33l0,0a6,6,0,0,0,.79-1.37,6.63,6.63,0,0,0,.44-1.52v0a7,7,0,0,0,0-2.15,3.18,3.18,0,0,0-.1-.52c0-.14-.07-.29-.11-.43s-.1-.32-.16-.48a3,3,0,0,0-.17-.41,3.55,3.55,0,0,0-.21-.44,6.44,6.44,0,0,0-.67-1.05l-.22-.27a2.73,2.73,0,0,0-.23-.25,5.55,5.55,0,0,0-.49-.48l-.45-.38a8.67,8.67,0,0,0-1.51-.94l-.43-.2-.44-.17a8.8,8.8,0,0,0-1.36-.4,2.2,2.2,0,0,0-.37-.07l-.49-.07-.41,0-.59,0a8,8,0,0,0-1.76.19l-.49.13a2.65,2.65,0,0,0-.37.12l-.41.16-.43.19s0,0,0,0a2.11,2.11,0,0,0-.33.18l-.05,0-.56.35-.11.07a.63.63,0,0,0-.12.1.31.31,0,0,0-.11.09h0a.81.81,0,0,0-.1.09,2.61,2.61,0,0,0-.31.27l-.12.11a6.66,6.66,0,0,0-.84.93l-.1.15-.16.21-.06.08a0,0,0,0,0,0,0,2.4,2.4,0,0,0-.16.27l-.12.21a4.59,4.59,0,0,0-.24.5c-.07.15-.12.3-.18.46a4.26,4.26,0,0,0-.15.47,5.66,5.66,0,0,0-.16.82l0,.28c0,.08,0,.16,0,.24a4.73,4.73,0,0,0,0,.65,1.41,1.41,0,0,0,0,.2.55.55,0,0,0,0,.18,1.37,1.37,0,0,0,0,.19c0,.19.05.39.09.59a1.27,1.27,0,0,0,.06.28c0,.14.05.26.09.39a.25.25,0,0,1,0,.07.75.75,0,0,1,0,.16l.16.46c.1.26.21.53.32.78l0,.08a4.11,4.11,0,0,0,.21.42c.07.15.15.29.23.43l.24.41c.18.29.37.56.56.83h0c.08.13.18.25.27.37q6.9,3.42,13.63,7.15h0l1.46.82c1.32.74,2.63,1.48,3.93,2.24l1.28.74h0l.4.23c2.08,1.22,4.14,2.47,6.18,3.73a1.3,1.3,0,0,0,.1-.15c.18-.24.34-.48.5-.74s.27-.45.39-.68a.36.36,0,0,0,0-.09,11.15,11.15,0,0,0,.67-1.55c.06-.19.13-.37.18-.56a3.58,3.58,0,0,0,.16-.56,1.42,1.42,0,0,0,.05-.22c.07-.3.13-.6.18-.91,0-.11,0-.22,0-.33v0a.71.71,0,0,0,0-.14.13.13,0,0,0,0-.06,0,0,0,0,0,0-.05h0s0,0,0,0a.34.34,0,0,0,0-.1,3.15,3.15,0,0,0,0-.44.22.22,0,0,0,0-.08c0-.11,0-.21,0-.32v-.14q0-.47,0-.93c0-.25,0-.49-.08-.73s0-.26-.05-.39,0-.26-.08-.39-.11-.52-.18-.78-.15-.52-.24-.77a1.07,1.07,0,0,0-.07-.19c0-.09-.06-.19-.1-.28s-.1-.28-.16-.42-.24-.53-.38-.79a14.23,14.23,0,0,0-.92-1.54c-.17-.24-.34-.49-.53-.73l-.06-.08a13.89,13.89,0,0,0-1.14-1.28c-.21-.22-.44-.43-.67-.63s-.42-.37-.64-.55-.46-.36-.71-.53-.47-.33-.71-.48l-.46-.28a13.61,13.61,0,0,0-2.06-1l-.3-.12-.71-.25a15.76,15.76,0,0,1,12.41,9.44c.07.18.13.36.19.54a5.52,5.52,0,0,1,.16.54c.06.19.1.37.14.55a8.92,8.92,0,0,1,.18,1q.06.41.09.81c0,.32,0,.64,0,1v.34a0,0,0,0,1,0,0s0,0,0,0,0,0,0,0a1.41,1.41,0,0,1,0,.2.77.77,0,0,1,0,.21,1.85,1.85,0,0,0,0,.23,1.66,1.66,0,0,1,0,.22c0,.13,0,.27,0,.4s0,.06,0,.1,0,.25-.07.38,0,.21-.05.31a1.74,1.74,0,0,0,0,.22c-.08.35-.17.7-.28,1.05,0,0,0,.08-.05.13a.06.06,0,0,1,0,0,8.11,8.11,0,0,1-.28.78,1.78,1.78,0,0,1-.12.29,0,0,0,0,1,0,0,11.61,11.61,0,0,1-.89,1.67c0,.08-.09.16-.14.23l-.15.21c-.18.26-.37.52-.57.76h0s0,0,0,0l-.07.08,1.78,1.12.13.1a.55.55,0,0,1,.14.09l1.5,1,.53.35q.83.52,1.65,1.08l.38.25a3.78,3.78,0,0,1,.33.22h0l.5.33.5.34c.66.43,1.31.88,2,1.33s1.49,1,2.23,1.53l.27.18.27.19c.29.19.57.39.86.6a.15.15,0,0,1,.07,0l.05,0,.09.07.22.16.51.36.25.18,0,0,.06.05.27.19a.41.41,0,0,1,.11.07h0l0,0,0,0,.12.08h0l0,0h0a1.07,1.07,0,0,1,.22.15l.45.32.45.32h0c.07-.15.14-.3.2-.45s.15-.39.21-.58a4.44,4.44,0,0,0,.15-.52c.07-.22.13-.45.18-.68s.09-.41.12-.61c0,0,0-.06,0-.08h0s0-.06,0-.08l.06-.38a2,2,0,0,0,0-.25c0-.21,0-.42.05-.63s0-.47,0-.7v-.2c0-.23,0-.46,0-.7s0-.4-.06-.6-.07-.5-.12-.75-.12-.53-.19-.8a15,15,0,0,0-9.87-9.93,15.76,15.76,0,0,1,12.41,9.44A13.11,13.11,0,0,1,207,426c0,.25.08.51.11.77s0,.27,0,.4a2.93,2.93,0,0,1,0,.41,13.84,13.84,0,0,1,0,1.44,1.28,1.28,0,0,1,0,.19h0a14.62,14.62,0,0,1-.2,1.48c-.05.25-.11.51-.17.75,0,0,0,0,0,0s0,0,0,.06h0a1.89,1.89,0,0,1-.06.18c-.1.35-.21.7-.34,1s-.18.45-.28.67-.13.28-.21.42-.1.2-.16.3h0l1.56,1.15,1.45,1.08.09.06,0,0,1,.72.15.12,1.22.93,1.71,1.32c1.1.85,2.18,1.7,3.26,2.56h0l.27.22c.81.66,1.63,1.31,2.44,2l.47.38,1.22,1,1.07.89.4.34.15.12,0,0,0,0,0,0,0,0,.05,0,.68.57,1.82,1.55,2.13,1.85C226.87,451.06,226.81,450.92,226.74,450.78Zm-49.33-43.62a.42.42,0,0,1,.16,0,2.09,2.09,0,0,1,.77.43,1.8,1.8,0,0,1,.19.2.85.85,0,0,1,.17.25,1.15,1.15,0,0,1,.12.25,1.32,1.32,0,0,1,.07.3,1.66,1.66,0,0,1,0,.32,2.18,2.18,0,0,1,0,.25.86.86,0,0,1,0,.23,1.25,1.25,0,0,1-.09.25,2,2,0,0,1-.14.25s0,0,0,.05l0,0-.06.07h0a.69.69,0,0,1-.17.17s0,0,0,0l-.14.11a1.88,1.88,0,0,1-.23.16l-.05,0a1.09,1.09,0,0,1-.25.1l-.16.05-.1,0h-.14l-.12,0h-.18l-.27,0a1.22,1.22,0,0,1-.26-.06h0l-.1,0s0,0,0,0l-.1,0a.53.53,0,0,1-.1-.06,1.1,1.1,0,0,1-.25-.15,1.42,1.42,0,0,1-.31-.25,1.67,1.67,0,0,1-.25-.28,2.39,2.39,0,0,1-.13-.21l0,0a.47.47,0,0,1-.05-.1,1,1,0,0,1,0-.1,0,0,0,0,0,0,0,1.61,1.61,0,0,1-.09-.29,1.24,1.24,0,0,1,0-.27.28.28,0,0,1,0-.09,2.11,2.11,0,0,1,0-.26,1.3,1.3,0,0,1,.11-.35,1.08,1.08,0,0,1,.16-.3,1.27,1.27,0,0,1,.21-.25,1.16,1.16,0,0,1,.24-.2,1.55,1.55,0,0,1,.36-.19,1,1,0,0,1,.23-.08,1.08,1.08,0,0,1,.31-.07A2.38,2.38,0,0,1,177.41,407.16Zm17.24,15.22c0-.06,0-.11,0-.16s0-.09,0-.15a1.23,1.23,0,0,1,.11-.34,1.08,1.08,0,0,1,.16-.3,1.16,1.16,0,0,1,.2-.25h0a.78.78,0,0,1,.24-.2,1.83,1.83,0,0,1,.58-.28l.33-.06a2.15,2.15,0,0,1,.62,0l.29.05a2.06,2.06,0,0,1,.54.2l.24.15a1.19,1.19,0,0,1,.18.15l.08.08.08.09a.58.58,0,0,1,.11.15.27.27,0,0,1,.06.1l.06.12a.61.61,0,0,1,.05.12l.06.2a.29.29,0,0,1,0,.09s0,0,0,0a1.66,1.66,0,0,1,0,.32,2.29,2.29,0,0,1,0,.25.25.25,0,0,1,0,.08.32.32,0,0,1,0,.14,1,1,0,0,1,0,.16,1.43,1.43,0,0,1-.13.28,1.19,1.19,0,0,1-.16.23,2,2,0,0,1-.62.49l-.25.11h0l-.09,0h-.05s-.05,0-.09,0h0l-.13,0h-.13l-.18,0a1.24,1.24,0,0,1-.27,0,1.18,1.18,0,0,1-.37-.09l-.15-.06a1.11,1.11,0,0,1-.19-.09,1.5,1.5,0,0,1-.23-.15l-.13-.1a3.19,3.19,0,0,1-.29-.31,1.88,1.88,0,0,1-.27-.42l-.06-.12a1.4,1.4,0,0,1-.09-.29l0-.17a.1.1,0,0,1,0,0Z" />
      <path class="BUNTAI_DEER_OUTFIT_DEER_OUTFIT_29_cls-5" d="M204,467.45H75.31L75,461.08q-.06-1,0-2v0c0-.37,0-.74,0-1.1,0-.86.14-1.7.25-2.54,0-.24.07-.49.11-.74.07-.45.16-.91.25-1.37,0-.3.12-.6.19-.9,0,0,0-.06,0-.09.08-.35.17-.71.26-1.07s.13-.53.21-.8c0-.1,0-.2.08-.29.18-.7.39-1.39.61-2.07.1-.33.21-.65.32-1s.21-.64.32-1,.23-.64.34-1a74.58,74.58,0,0,0,16.87,9.21c.28.11,4.94.22,5.24.34a.26.26,0,0,1,.1,0l-.58-.89-4.39,0-3.76-5.69s1.1-.43,2.74-1.13h0c.52-.22,5.47-.47,6.09-.75l.62-.29.48-.22.39-.18.87-.4.73-.37c.76-.37,1.52-.75,2.28-1.16l.59-.31.79-.45.64-.37.53-.31.73-.46.36-.23c.69-.46,1.33-.93,1.88-1.38l.26-.24a3,3,0,0,0,.26-.22h0a8.76,8.76,0,0,0,.74-.8l.17-.22s0-.07.07-.1l.2-.31.15-.3a2.44,2.44,0,0,0,.12-.42,1.13,1.13,0,0,0,0-.18v0a1.48,1.48,0,0,0,0-.42.06.06,0,0,0,0,0,1.42,1.42,0,0,0,0-.16,1.51,1.51,0,0,0-.18-.36,2.75,2.75,0,0,0-1.64-1l-.35-.08-.11,0a1.35,1.35,0,0,0-.29-.05,1.65,1.65,0,0,0-.31,0l-.2,0a11.1,11.1,0,0,0-1.55,0c-.32,0-.65,0-1,0a2.22,2.22,0,0,0-.37,0l-.36,0h-.11l-.25,0-.78.09-.66.09-.49.07-.4.07-.67.11h-.07l-.29.06c-.61.11-1.22.24-1.84.37l-.43.09c-.48.11-5.32.21-5.79.33h0l-.14,0-.14,0-.24.06-.4.1-.5.12-.41.11-2.11.57-.45.13-.85.24-.3.09-1.4.42-.27.08-.93.29-.47.16-.82.27L82.12,434c.06-.15.12-.32.18-.48.23-.69.46-1.38.7-2.07.59-1.67,1.2-3.34,1.75-5-2.52-2-4.85-3.87-7.38-5.92.49-.68,1-1.33,1.6-2s1.1-1.3,1.6-2c-.91-2.82,4.25-6.34,2-8.44s-4.32-3.94-6.5-5.93h0a50.32,50.32,0,0,1,11.1,1.42c8,1.88,15.54,5.2,23.27,7.89,7,2.44,14.58,4.25,21.89,4.08h.43a6.08,6.08,0,0,0,.61,0h.34l.33,0c.24,0,.46,0,.68-.05q.12.39.24.75c.09.24.19.49.27.74a.54.54,0,0,0,.05.11c.1.26.21.52.32.78a.8.8,0,0,0,.08.16c.14.36.31.7.48,1.05a2,2,0,0,0,.15.29l0,0a.76.76,0,0,0,.09.18q.18.36.39.72t.42.72l0,.06.15.24a.86.86,0,0,1,.07.1c.07.12.15.23.22.33l.2.31.11.17.38.52a1.8,1.8,0,0,0,.2.31l.12.14.1.14.06.08.52.67a1.34,1.34,0,0,0,.11.14l.07.07c.35.45.74.89,1.13,1.32l.22.24,0,0,.05.06h0l0,0,.33.37.21.2c.45.47.92.93,1.4,1.39l1.09,1,.09.07c.35.31.7.6,1.06.89l.37.3c.28.23.58.46.88.68l.65.5.93.67.26.18.39.26s0,0,0,0l.31.21a2.11,2.11,0,0,0,.31.21l.16.1.08.06.18.12.13.08.65.41c.17.12.36.23.54.34l.8.49.5.29.39.23,1.54.85c8.71,4.7,18.27,7.81,26.94,12.57l.87.49.21.12.28.17a.82.82,0,0,1,.19.09l.35.21.73.43.4.25c.39.23.77.47,1.15.71l.67.43.08,0,.6.4h0l.45.3.32.21.11.08c.47.31.92.63,1.38,1l.75.56c.25.17.49.34.72.53l.45.34.19.15a.58.58,0,0,1,.15.11l0,0,.05,0,.43.34c.31.23.61.48.91.72l.17.14.38.31.06.06h0l.44.36.4.36.37.3.22.2.14.12c.31.27.62.54.92.82.15.13.29.25.42.38a1.49,1.49,0,0,0,.18.17l.36.33.14.14.83.8.07.07a1.8,1.8,0,0,1,.2.19l.55.54.4.42c.21.2.41.41.6.62l.3.31c.13.12.24.25.37.39l.3.33c.1.11.21.22.3.33h0l0,0s0,0,0,0l0,0v0l.09.1a2.44,2.44,0,0,1,.27.3l.31.33a4.47,4.47,0,0,1,.29.35.67.67,0,0,1,.14.16,6.76,6.76,0,0,1,.56.66.93.93,0,0,1,.16.18l.08.1a.43.43,0,0,1,.09.1c.19.23.39.46.56.69a.84.84,0,0,1,.15.18,3.25,3.25,0,0,1,.23.29s0,0,0,0l0,0Z" />
      <path class="BUNTAI_DEER_OUTFIT_DEER_OUTFIT_29_cls-5" d="M318.21,437.74c.13,8.08-1.64,16.09-6.66,23h0a34.55,34.55,0,0,1-4.83,5.4A91.32,91.32,0,0,1,291,467.45H244.29l-1-.79-2-1.58.21-.22q-4.78-4.78-9.83-9.38c-1.57-1.44-3.17-2.87-4.78-4.27-.43-1-.86-1.92-1.31-2.87a126.63,126.63,0,0,0-7.42-13.48q-2.42-3.83-5.13-7.51c-1.74-2.36-3.57-4.68-5.48-6.93q-3.14-3.69-6.56-7.16a136.8,136.8,0,0,0-10.88-9.91c-2.14-1.77-4.36-3.47-6.62-5.09h0s31.88-10.65,73.07-8.28a143.71,143.71,0,0,1,17.85,1.63c3.54.54,6.83,1.18,9.86,1.87a108.86,108.86,0,0,1,22.94,7.72l.23.12.26.13h0c.87,1.73,1.78,3.61,2.67,5.62h0c.05.1.1.21.14.31l0,0c.24.55.49,1.12.73,1.69l.15.34c1.25,3,2.46,6.21,3.49,9.58.35,1.13.67,2.27,1,3.44A65.43,65.43,0,0,1,318.21,437.74Z" />
      <path class="BUNTAI_DEER_OUTFIT_DEER_OUTFIT_29_cls-2" d="M316.31,374.73v.47c0,.69,0,1.37,0,2.06v.3q0,1.14-.09,2.28c0,.82-.07,1.64-.13,2.46s-.12,1.63-.19,2.45-.15,1.63-.24,2.44c-.13,1.22-.29,2.44-.46,3.65s-.33,2.19-.52,3.28h0c0,.06,0,.11,0,.17a113.28,113.28,0,0,1-2.74,13.29c-.18.56-.35,1.08-.53,1.54l-.34-.79c-.12-.28-.25-.58-.4-.9l0,0c0-.1-.09-.2-.14-.31h0l-.08-.16c-.78-1.64-1.79-3.6-2.86-5.59h0c-1.07-2-2.2-4-3.19-5.81l0,0c-1.46-2.61-2.65-4.64-3-5.16l0-.08,0-.05-.24-.11q.71-7.56.7-15.19,0-1.5,0-3c0-1,0-2-.08-3s-.08-2-.14-3-.1-1.74-.16-2.61c-.09-1.26-.19-2.52-.31-3.78-.08-.9-.17-1.79-.27-2.69s-.19-1.63-.29-2.45c0-.34-.08-.67-.13-1-.11-.86-.22-1.73-.35-2.59,4.88,2.86,10.11,6,14.61,9.16l.84.6c0,.31.08.61.12.92.09.77.17,1.54.25,2.3,0,.39.07.77.1,1.15s.07.76.1,1.14.07,1,.1,1.53c.05.74.09,1.47.11,2.21,0,.19,0,.38,0,.58,0,.46,0,.91,0,1.38l0,.85c0,.16,0,.32,0,.48C316.3,373.59,316.31,374.16,316.31,374.73Z" />
      <path class="BUNTAI_DEER_OUTFIT_DEER_OUTFIT_29_cls-6" d="M279.64,388.18l4.69,5.29c-3-.69-6.32-1.33-9.85-1.87l0-.31q-5.16-7.57-9.91-15.36c-4.78-7.8-6.63-13.23-10.8-21.29h0q-1.43-2.73-2.79-5.49c2.47-.43,4.93-.94,7.35-1.53C264.14,362.8,269.59,374.82,279.64,388.18Z" />
      <path class="BUNTAI_DEER_OUTFIT_DEER_OUTFIT_29_cls-6" d="M193.41,346.62c-.67,1.85-1.37,3.67-2.09,5.5h0q-4.71,12.09-10.39,23.81-3.78,7.79-8,15.36-2.73-1.62-5.53-3.11a151.93,151.93,0,0,0,18.43-43.09C188.36,345.69,190.88,346.19,193.41,346.62Z" />
      <path class="BUNTAI_DEER_OUTFIT_DEER_OUTFIT_29_cls-4" d="M253.8,354.64a23,23,0,0,1-5.32,8.14c6.25,5.22,9.87,7.93,16.12,13.15C259.82,368.13,258,362.7,253.8,354.64Z" />
      <path class="BUNTAI_DEER_OUTFIT_DEER_OUTFIT_29_cls-4" d="M180.93,375.93l16.74-15.66a27.66,27.66,0,0,1-6.35-8.15Q186.61,364.21,180.93,375.93Z" />
      <path class="BUNTAI_DEER_OUTFIT_DEER_OUTFIT_29_cls-2" d="M146.31,390.08l-.23.11-.58.3-.16.08-.06,0-.18.09c-.16.07-.32.16-.48.25l-.37.19-.14.07-.09.06-.58.31c-.66.35-1.31.72-2,1.09l-.13.07,0,0c-.77.44-1.55.9-2.31,1.37s-1.31.82-2,1.24l-.26.17h0l0,0h0l-2.6-1.07-.48-.19-.48-.19a117.11,117.11,0,0,1-5-38.35c.63-.3,4.87-2.4,10-5l4.23-2.15c0,.86,0,1.72-.06,2.57s0,1.68,0,2.52A169.55,169.55,0,0,0,146.31,390.08Z" />
      <path class="BUNTAI_DEER_OUTFIT_DEER_OUTFIT_29_cls-4" d="M307.77,401.45h0l-.13-.07-.1-.05h-.05l-.06,0-.13-.06c-.26-.13-.6-.3-1-.5l-.64-.29-.1-.05-.87-.39h0l-.56-.24-1.57-.65-1.09-.43c-1.15-.45-2.45-.93-3.89-1.43l-1.34-.45-.75-.25-.26-.08a2.5,2.5,0,0,1-.25-.09l-.27-.08-.53-.16-.13-.05-.14,0-1.95-.58-1.17-.34-1.2-.33-1.24-.33-.47-.12c-1.11-.28-2.27-.57-3.47-.84l-4.69-5.3c-10.05-13.35-15.5-25.38-21.28-40.57,4.21-1,9.19-4,13.11-5.63s4.59-2.51,6.85-5.13c1.07,2.38,3.33,3.59,4.89,4.83s6.67,3.23,11.54,6c1.65,1,3.41,2,5.21,3,.13.86.24,1.73.35,2.59.05.33.09.66.13,1,.1.82.2,1.64.29,2.45s.19,1.79.27,2.69c.12,1.26.22,2.52.31,3.78.06.87.11,1.74.16,2.61s.1,2,.14,3,.06,2,.08,3,0,2,0,3q0,7.62-.7,15.19l.24.11,0,.05,0,.08.08.11c.2.3.58.87,1.09,1.69l.23.37,0,.06.74,1.21.28.47.61,1C305.4,397,306.56,399.07,307.77,401.45Z" />
      <path class="BUNTAI_DEER_OUTFIT_DEER_OUTFIT_29_cls-4" d="M185.87,345.09a151.78,151.78,0,0,1-18.42,43.09c-.74-.4-1.49-.79-2.23-1.17l-.29-.16c-1.05-.54-2.11-1.06-3.18-1.57l-1.93-.91c-.58.2-1.16.4-1.74.62l-1.72.64c-.86.33-1.72.67-2.57,1s-1.69.71-2.53,1.08c-1.11.49-2.22,1-3.31,1.54-.55.26-1.1.53-1.64.81a169.55,169.55,0,0,1-4-36.35c0-.84,0-1.68,0-2.52s0-1.71.06-2.57l2.61-1.35,1.11-.58c.81-.41,1.6-.83,2.37-1.24,4.22-2.22,7.78-4.2,9.09-5.15,2.3-1.69,5.33-3.23,5.82-4.8,3.67,2.53,5.71,4,9.71,5.62A87,87,0,0,0,185.87,345.09Z" />
      <path class="BUNTAI_DEER_OUTFIT_DEER_OUTFIT_29_cls-6" d="M241.55,464.86l-.21.22q-6.26-5-12.68-9.76h0q-8.73-6.49-17.8-12.54h0l-.55-.37c-.76-.51-1.51-1-2.28-1.49l-1-.65c-.37-.24-.72-.48-1.09-.71l-.83-.53-2.17-1.39-2.33-1.46a352.9,352.9,0,0,0-40.87-22,289.89,289.89,0,0,0-68.8-21.69c-.25-2.18-.52-4.35-.79-6.53l-.69-5.8a329.47,329.47,0,0,1,43.75,14l1,.38,2.6,1.06q8.59,3.54,17,7.57c1.35.65,2.7,1.3,4,2,9.2,4.56,18.19,9.54,26.89,14.92l2.45,1.53c1.18.75,2.37,1.5,3.54,2.27.86.55,1.72,1.11,2.57,1.68l.33.22,1.52,1c2,1.36,4,2.74,6,4.15l.25.18.92.66.91.64,2.49,1.8,3.14,2.33c.78.58,1.56,1.18,2.33,1.77q2.52,1.92,5,3.89l1.59,1.28,2.24,1.83,2.23,1.85,0,0,0,0c1.57,1.33,3.14,2.67,4.69,4s3.21,2.83,4.78,4.27Q236.76,460.07,241.55,464.86Z" />
      <path class="BUNTAI_DEER_OUTFIT_DEER_OUTFIT_29_cls-7" d="M241.55,464.86q-4.78-4.78-9.83-9.38c-1.57-1.44-3.17-2.87-4.78-4.27q-10.22-9-21.28-17l-2.49-1.8q-7.84-5.64-16.06-10.81L184.66,420c-8.7-5.39-17.69-10.37-26.89-14.93-1.34-.67-2.69-1.32-4-2q-8.39-4-17-7.56l-2.6-1.07-1-.38a329.47,329.47,0,0,0-43.75-14" />
      <path class="BUNTAI_DEER_OUTFIT_DEER_OUTFIT_29_cls-7" d="M74.77,390.09q8.1.9,16.15,2.34a289.89,289.89,0,0,1,68.8,21.69,352.9,352.9,0,0,1,40.87,22l2.33,1.46,2.17,1.39.83.53c.37.23.72.47,1.09.71l1,.65c.77.49,1.52,1,2.28,1.49l.55.37h0q9.07,6,17.8,12.54" />
      <path class="BUNTAI_DEER_OUTFIT_DEER_OUTFIT_29_cls-7" d="M89.44,380.1l.69,5.8c.27,2.18.54,4.35.79,6.53" />
      <path class="BUNTAI_DEER_OUTFIT_DEER_OUTFIT_29_cls-7" d="M74.76,390.09q1,4.11,2,8.22c0,.24.11.47.16.7-.47.79-1.26,1.55-1.74,2.34l.89.82c2.18,2,4.31,3.92,6.5,5.93s-2.87,5.62-2,8.44c-.5.67-1,1.32-1.6,2s-1.11,1.29-1.6,2c2.53,2,4.86,3.87,7.38,5.92-.55,1.66-1.16,3.33-1.75,5-.24.69-.47,1.38-.7,2.07-.06.16-.12.33-.18.48" />
      <path class="BUNTAI_DEER_OUTFIT_DEER_OUTFIT_29_cls-7" d="M100.17,454.7l-.11,0c-.29-.11-5-.22-5.23-.33A74,74,0,0,1,78,445.12a84.42,84.42,0,0,1-6.61-5.31,19.48,19.48,0,0,1,3.21-8,23.44,23.44,0,0,1,3.49-4.06q2,3.09,4.07,6.18c1.15,1.73,2.29,3.47,3.44,5.21l5.88,8.93c1.26,1.9,6.89,3.82,8.15,5.72C99.78,454.12,100,454.41,100.17,454.7Z" />
      <path class="BUNTAI_DEER_OUTFIT_DEER_OUTFIT_29_cls-7" d="M133.46,446.47c-7.77-10.56-16.12-21-27.5-28.16a87.28,87.28,0,0,0,12.26,16" />
      <path class="BUNTAI_DEER_OUTFIT_DEER_OUTFIT_29_cls-7" d="M91.85,432.38c-.24-4.85-3.77-9.6-8.65-11.66" />
      <path class="BUNTAI_DEER_OUTFIT_DEER_OUTFIT_29_cls-7" d="M76,402.17a50.32,50.32,0,0,1,11.1,1.42c8,1.88,15.54,5.2,23.28,7.89s16.24,4.65,24.27,3.94c2.7,8.86,10.88,15.71,19.59,20.41s18.27,7.8,26.94,12.56A75.94,75.94,0,0,1,204,467.45" />
      <path class="BUNTAI_DEER_OUTFIT_DEER_OUTFIT_29_cls-7" d="M159.82,384.37a106.14,106.14,0,0,0-13.52,5.71l-.22.11a97.77,97.77,0,0,0-9.33,5.38" />
      <path class="BUNTAI_DEER_OUTFIT_DEER_OUTFIT_29_cls-7" d="M159.82,384.37q3.88,1.78,7.62,3.81,2.81,1.49,5.53,3.11,5.44,3.24,10.57,7c2.26,1.63,4.48,3.32,6.62,5.1a134.8,134.8,0,0,1,10.88,9.9q3.44,3.48,6.56,7.16,2.86,3.39,5.48,6.93t5.13,7.51a126.63,126.63,0,0,1,7.42,13.48c.45,1,.88,1.91,1.31,2.87" />
      <path class="BUNTAI_DEER_OUTFIT_DEER_OUTFIT_29_cls-7" d="M142.42,348.64c0,.86,0,1.72-.06,2.57s0,1.68,0,2.52a169.55,169.55,0,0,0,4,36.35" />
      <path class="BUNTAI_DEER_OUTFIT_DEER_OUTFIT_29_cls-7" d="M133.19,394.12a117.11,117.11,0,0,1-5-38.35" />
      <path class="BUNTAI_DEER_OUTFIT_DEER_OUTFIT_29_cls-7" d="M193.41,346.63l-1.39-.25-1.25-.24-.13,0h-.17l-.3-.06-1.88-.39c-.81-.17-1.62-.35-2.42-.55a87,87,0,0,1-12.74-3.95c-4-1.61-6-3.09-9.71-5.62" />
      <path class="BUNTAI_DEER_OUTFIT_DEER_OUTFIT_29_cls-7" d="M191.32,352.12q-4.71,12.09-10.39,23.81-3.78,7.79-8,15.36" />
      <path class="BUNTAI_DEER_OUTFIT_DEER_OUTFIT_29_cls-7" d="M193.41,346.62c-.67,1.85-1.37,3.67-2.09,5.5" />
      <path class="BUNTAI_DEER_OUTFIT_DEER_OUTFIT_29_cls-7" d="M167.44,388.18a151.93,151.93,0,0,0,18.43-43.09" />
      <path class="BUNTAI_DEER_OUTFIT_DEER_OUTFIT_29_cls-7" d="M191.32,352.12h0a27.66,27.66,0,0,0,6.35,8.15l-16.74,15.66" />
      <path class="BUNTAI_DEER_OUTFIT_DEER_OUTFIT_29_cls-7" d="M134.15,394.5a74.66,74.66,0,0,1,.82-17.72,137.17,137.17,0,0,0,11.11,13.41" />
      <path class="BUNTAI_DEER_OUTFIT_DEER_OUTFIT_29_cls-7" d="M146.14,346.71a81.68,81.68,0,0,0,16.77,12.49" />
      <path class="BUNTAI_DEER_OUTFIT_DEER_OUTFIT_29_cls-7" d="M301,390.08q.71-7.56.7-15.19,0-1.5,0-3c0-1,0-2-.08-3s-.08-2-.14-3-.1-1.74-.16-2.61c-.09-1.26-.19-2.52-.31-3.78-.08-.9-.17-1.79-.27-2.69s-.18-1.64-.29-2.45c0-.34-.08-.67-.13-1-.11-.86-.22-1.73-.35-2.59" />
      <path class="BUNTAI_DEER_OUTFIT_DEER_OUTFIT_29_cls-7" d="M315.41,360.47h0c0,.31.08.61.12.92.09.77.17,1.54.25,2.3,0,.39.07.77.1,1.15s.06.76.09,1.14.08,1,.11,1.53c.05.74.09,1.47.11,2.21,0,.19,0,.38,0,.58,0,.46,0,.91,0,1.38l0,.85c0,.16,0,.32,0,.48,0,.57,0,1.14,0,1.71v.47c0,.69,0,1.37,0,2.06v.3q0,1.14-.09,2.28c0,.82-.07,1.64-.13,2.46s-.12,1.63-.19,2.45-.15,1.63-.24,2.44c-.13,1.22-.29,2.44-.46,3.65s-.33,2.19-.52,3.28l0,.17-2.74,13.29-.39,1.88" />
      <path class="BUNTAI_DEER_OUTFIT_DEER_OUTFIT_29_cls-7" d="M251,349.14c2.47-.43,4.93-.93,7.35-1.53,4.21-1,9.19-4,13.11-5.63s4.59-2.51,6.85-5.13" />
      <path class="BUNTAI_DEER_OUTFIT_DEER_OUTFIT_29_cls-7" d="M253.8,354.63q-1.43-2.73-2.79-5.49" />
      <path class="BUNTAI_DEER_OUTFIT_DEER_OUTFIT_29_cls-7" d="M274.51,391.29q-5.16-7.57-9.91-15.36c-4.78-7.8-6.63-13.23-10.8-21.29" />
      <path class="BUNTAI_DEER_OUTFIT_DEER_OUTFIT_29_cls-7" d="M258.36,347.61c5.78,15.19,11.23,27.21,21.28,40.57l4.69,5.29" />
      <path class="BUNTAI_DEER_OUTFIT_DEER_OUTFIT_29_cls-7" d="M264.6,375.93c-6.25-5.22-9.87-7.93-16.12-13.15a23,23,0,0,0,5.32-8.14h0" />
      <path class="BUNTAI_DEER_OUTFIT_DEER_OUTFIT_29_cls-7" d="M311.55,460.76c5-6.93,6.79-14.94,6.66-23A65.43,65.43,0,0,0,316,422.48c-.31-1.16-.63-2.31-1-3.44-1-3.37-2.24-6.59-3.49-9.58l-.15-.34c-.24-.57-.49-1.14-.73-1.69l0,0c0-.1-.09-.21-.14-.31h0c-.89-2-1.8-3.89-2.67-5.62" />
      <path class="BUNTAI_DEER_OUTFIT_DEER_OUTFIT_29_cls-7" d="M313.74,394.5c0-.13,0-.26,0-.38a79.32,79.32,0,0,0-3.06-17.34,114.53,114.53,0,0,1-9.4,13.41,108.09,108.09,0,0,1,6.5,11.25" />
      <path class="BUNTAI_DEER_OUTFIT_DEER_OUTFIT_29_cls-7" d="M294.75,347.71a68.39,68.39,0,0,1-14.26,11.49" />
      <path class="BUNTAI_DEER_OUTFIT_DEER_OUTFIT_29_cls-7" d="M148.47,467.45a41.9,41.9,0,0,1-9.7-9.94,40.57,40.57,0,0,1-5.31-11h0a45.85,45.85,0,0,1-1.52-6.69,59.76,59.76,0,0,1-.29-14.44" />
      <path class="BUNTAI_DEER_OUTFIT_DEER_OUTFIT_29_cls-7" d="M153.73,403.13a12.77,12.77,0,0,1-.33-8.94,7.38,7.38,0,0,1,2.31-3.47,8.36,8.36,0,0,1,5-1.5,12.05,12.05,0,0,1,9.81,4.72c2.09,3,2,7.17-.46,9.66a6.92,6.92,0,0,0-.14-8.46,9,9,0,0,0-8.74-3.09,7.35,7.35,0,0,0-5.78,6.3,9.81,9.81,0,0,0,2.38,6.75" />
      <path class="BUNTAI_DEER_OUTFIT_DEER_OUTFIT_29_cls-7" d="M184.66,420a12.18,12.18,0,0,0,2-10.4,15.08,15.08,0,0,0-9.86-9.95,15.78,15.78,0,0,1,12.4,9.45,12.51,12.51,0,0,1-2.08,12.42" />
      <path class="BUNTAI_DEER_OUTFIT_DEER_OUTFIT_29_cls-7" d="M178.9,409.2a2,2,0,0,1-2.23,1.6,2.1,2.1,0,0,1-1.8-2.25C175.3,406.32,179.19,406.72,178.9,409.2Z" />
      <path class="BUNTAI_DEER_OUTFIT_DEER_OUTFIT_29_cls-7" d="M203.17,432.36a12.09,12.09,0,0,0,.63-8,15.07,15.07,0,0,0-9.87-9.93,15.78,15.78,0,0,1,12.41,9.44,12.55,12.55,0,0,1-.68,10.32" />
      <path class="BUNTAI_DEER_OUTFIT_DEER_OUTFIT_29_cls-7" d="M198.7,422.73a2,2,0,0,1-2.23,1.6,2.1,2.1,0,0,1-1.8-2.25C195.1,419.85,199,420.25,198.7,422.73Z" />
      <path class="BUNTAI_DEER_OUTFIT_DEER_OUTFIT_29_cls-7" d="M183.55,398.25s31.88-10.65,73.07-8.28a144.06,144.06,0,0,1,17.86,1.63c3.53.54,6.82,1.18,9.85,1.87,14.56,3.34,23.12,7.81,23.43,8h0" />
      <path class="BUNTAI_DEER_OUTFIT_DEER_OUTFIT_29_cls-7" d="M190.17,403.35s76.32-15,120.28,3.73h0" />
      <path class="BUNTAI_DEER_OUTFIT_DEER_OUTFIT_29_cls-7" d="M282,410.62c4.56.7,9.17,1.57,13.79,2.66A156.9,156.9,0,0,1,315,419" />
      <path class="BUNTAI_DEER_OUTFIT_DEER_OUTFIT_29_cls-7" d="M201,413.26s38.06-9.22,81-2.64" />
      <path class="BUNTAI_DEER_OUTFIT_DEER_OUTFIT_29_cls-7" d="M213.08,427.35s48.4-10.3,69-16.73h0" />
      <path class="BUNTAI_DEER_OUTFIT_DEER_OUTFIT_29_cls-7" d="M218.21,434.86a252.51,252.51,0,0,0,53.85.54c15.54-1.68,31.6-5.4,43.9-12.92" />
      <path class="BUNTAI_DEER_OUTFIT_DEER_OUTFIT_29_cls-7" d="M295.83,413.28s-12.19,14.37-23.77,22.12" />
      <path class="BUNTAI_DEER_OUTFIT_DEER_OUTFIT_29_cls-7" d="M127.15,425.34s.86,10.66,4.79,14.44" />
      <path class="BUNTAI_DEER_OUTFIT_DEER_OUTFIT_29_cls-7" d="M128.23,355.78h0c.8-.39,7.4-3.65,14.19-7.13,1.25-.64,2.5-1.28,3.72-1.93,5.21-2.71,9.92-5.26,11.46-6.39,2.3-1.69,4.68-3.3,5.82-4.8" />
      <path class="BUNTAI_DEER_OUTFIT_DEER_OUTFIT_29_cls-7" d="M315.41,360.48h0c-4.68-3.33-10.26-6.71-15.45-9.75-1.8-1.05-3.56-2.06-5.21-3-4.87-2.8-9.91-4.74-11.54-6s-3.82-2.45-4.89-4.83" />
      <g class="BUNTAI_DEER_OUTFIT_DEER_OUTFIT_29_cls-8">
        <path d="M204,467.45H75.31L75,461.08q-.06-1,0-2c4.3,1.41,15.36,2.56,25.64,2.35a113.05,113.05,0,0,1-20.77-6.07l10.05-.39h0l9.81-.22h.4l0,0-.48-.85-4.39,0-3-5.33a16,16,0,0,0,2-1.49h0c1.45-1.27,7.55-3.23,7.59-5.4.09-3.78-2-4.93-2-4.93L95,436.46h0L83,431.4c.59-1.67,1.2-3.34,1.75-5-2.52-2-4.85-3.87-7.38-5.92,0,0,9.75,2.23,12.13,5.35l.06.07c-1.29-3.43.15-11.06.15-11.06,10,8.33,9.46,8.36,20,15.52,6.61,4.51,7.79,5.55,8,5.74l-9.84-13-.09-1.95v0l-.08-1.73,0,0,.08.05a.59.59,0,0,1,.11.08l.21.14.25.18c.6.44,1.57,1.13,2.74,2l.16.12.19.15,0,0h0l.08.06a96.71,96.71,0,0,1,10.83,9.24A62.1,62.1,0,0,1,130,441c-.89-1.51-6.4-11-6.74-15.1,2.94,5.81,5.12,8.8,6.43,10.29h0a7,7,0,0,0,1.44,1.36l.62.62h0c3,3,16.74,16.21,30.42,20.47C177.68,463.52,204,467.45,204,467.45Z" />
        <path d="M103.86,457.51c-3.47-.83-11-1.7-14-2.58a134.84,134.84,0,0,1-13.51-4.83c.18-.69.39-1.38.61-2.06.1-.33.21-.65.31-1l.33-1,.34-1a84.42,84.42,0,0,1-6.61-5.31,19.48,19.48,0,0,1,3.21-8c4.6,6,13.07,16.62,20.27,22.49.16.13,4.71.26,4.86.39A26.79,26.79,0,0,0,103.86,457.51Z" />
        <path d="M231.21,469.19,204,467.45l0,0c-.3-.33-5.82-6.16-12.61-12.4-5.84-5.36-12.61-11-17.85-13.79-10.82-5.68-27.54-11.93-38.26-24.33-.41-.47-.8-1-1.19-1.44s-.56-.71-.83-1.08c-29.12-8-40.21-15.2-50.26-15.93-2.19-.16-4.27-.19-6.21-.14-.66-2.75-1.3-5.49-2-8.23q8.1.9,16.15,2.34c-.25-2.18-.52-4.35-.79-6.53,10.53,2.5,31.35,7.75,46.88,13.78s47.31,25.91,63.62,36.41l2.31,1.5c.77.49,1.48,1,2.15,1.4l.83.53,1.09.71,1,.65,2.28,1.49.55.37,0,0h0c-1.24-.62-41.27-20.42-59.48-25.77C186,435.49,220,460.67,228.93,467.45Z" />
        <path d="M169.75,363c-13.54-6.34-21.2-12.44-24.72-15.72l1.11-.58c.81-.41,1.6-.83,2.37-1.24C154.37,351.57,162.53,359,169.75,363Z" />
        <path d="M222.41,447.31l-.16-.13h0l0,0,0,0,0,0L222,447c-4.25-3.37-9.66-7.77-16.34-12.76h0l-2.47-1.83-.9-.66a1.07,1.07,0,0,0-.22-.15h0l0,0h0l-.12-.08,0,0,0,0h0a.41.41,0,0,0-.11-.07l-.27-.19-.06-.05,0,0-.25-.18-.51-.36-.22-.16-.09-.07c-4-2.84-8.31-5.81-13.06-8.86l-2.45-1.55a296.44,296.44,0,0,0-27.26-15.15h0c-1.26-.62-2.54-1.24-3.85-1.85-5.3-2.5-10.91-5-16.83-7.33h0c-.87-.35-1.75-.7-2.64-1l-.48-.19-.48-.19a117.11,117.11,0,0,1-5-38.35c.63-.3,4.87-2.4,10-5,.3,7.67,1.7,28.56,8.12,39.29.45,1.06,2.91,2.95,6.71,5.49.8.54,1.65,1.1,2.57,1.69,5.15,3.34,12,7.51,19.39,12.2a0,0,0,0,1,0,0c.7.43,1.4.88,2.1,1.34h0c3,1.93,6.13,3.94,9.24,6l2.6,1.74q2.86,1.95,5.69,3.93h0c.85.59,1.68,1.19,2.51,1.79h0c2.36,1.69,4.65,3.41,6.86,5.12h0c.9.7,1.78,1.4,2.65,2.1h0C213.29,436.88,218.89,442.24,222.41,447.31Z" />
        <path d="M311.55,460.76h0a34.1,34.1,0,0,1-4.83,5.4c-.48.44-1,.88-1.5,1.29H243.87c-.19-.28-.37-.53-.55-.78h0l-1.81-2.55,6.75-3.19h0c.32,0,7.69-.34,18.32-7.78a66.06,66.06,0,0,0,14.62-6.55,56.24,56.24,0,0,0,16.11-15.12l1.63-1.44h0c3.31-2.95,3.9-3.91,6.89-14.06,3.11-1.87,4.75-6.83,4.75-6.83s-.27-.85-.86-2.35-1.36-3.29-2.46-5.58c-.82-1.71-1.81-3.63-3-5.7l0,0,.12-.21c2.64-4.6,4.8-11.22,6.47-17.67v0c1.86-7.18,3.1-14.1,3.69-17.7l.84.6c0,.31.08.61.12.92.09.77.17,1.54.25,2.3,0,.39.07.77.1,1.15s.07.76.1,1.14.07,1,.1,1.53c.05.74.09,1.47.11,2.21,0,.19,0,.38,0,.58,0,.46,0,.91,0,1.38l0,.85c0,.16,0,.32,0,.48,0,.57,0,1.14,0,1.71v.47c0,.69,0,1.37,0,2.06v.3q0,1.14-.09,2.28c0,.82-.07,1.64-.13,2.46s-.12,1.63-.19,2.45-.15,1.63-.24,2.44c-.13,1.22-.29,2.44-.46,3.65s-.33,2.19-.52,3.28l0,.17a113.28,113.28,0,0,1-2.74,13.29l-.39,1.88A100.12,100.12,0,0,1,315,419c.35,1.13.68,2.28,1,3.44a64.91,64.91,0,0,1,2.25,15.26C318.35,445.82,316.57,453.83,311.55,460.76Z" />
        <path d="M190.47,346.08S178,375.51,174.54,382.85l-3.46,7.34,2.09.75s8.81-17.25,14.05-28.51,6.19-15.81,6.19-15.81Z" />
      </g>
      <path class="BUNTAI_DEER_OUTFIT_DEER_OUTFIT_29_cls-9" d="M230.22,390.09a22.51,22.51,0,0,0-7.88-8.8" />
      <path class="BUNTAI_DEER_OUTFIT_DEER_OUTFIT_29_cls-9" d="M231.9,381.29a21.06,21.06,0,0,0-3.71,5.49" />
    </g>
  </g>
</svg>