<svg xmlns="http://www.w3.org/2000/svg" viewBox="0 0 432 432">
  <defs>
    <style>.BUNTAI_DEER_OUTFIT_DEER_OUTFIT_23_cls-1{isolation:isolate;}.BUNTAI_DEER_OUTFIT_DEER_OUTFIT_23_cls-2{fill:#eebe90;}.BUNTAI_DEER_OUTFIT_DEER_OUTFIT_23_cls-3{fill:#0f0f18;}.BUNTAI_DEER_OUTFIT_DEER_OUTFIT_23_cls-4{fill:#1b1b24;}.BUNTAI_DEER_OUTFIT_DEER_OUTFIT_23_cls-5{fill:#131223;}.BUNTAI_DEER_OUTFIT_DEER_OUTFIT_23_cls-6{fill:#8d1926;}.BUNTAI_DEER_OUTFIT_DEER_OUTFIT_23_cls-7{fill:#fff;}.BUNTAI_DEER_OUTFIT_DEER_OUTFIT_23_cls-8{fill:none;stroke:#000;stroke-linecap:round;stroke-linejoin:round;stroke-width:1.86px;}.BUNTAI_DEER_OUTFIT_DEER_OUTFIT_23_cls-9{opacity:0.43;mix-blend-mode:multiply;}</style>
  </defs>
  <g class="BUNTAI_DEER_OUTFIT_DEER_OUTFIT_23_cls-1">
    <g id="outfit">
      <path class="BUNTAI_DEER_OUTFIT_DEER_OUTFIT_23_cls-2" d="M250.8,433.08a13.92,13.92,0,0,1-1.66-1,10,10,0,0,1-1.06-.83l-.49.44-.25.22h0l0,0,0,0-3.35,3a8.41,8.41,0,0,0-2.47-.29c-4.93.12-11.13,4.13-15.29,7.85-5.17,4.59-9.55,10.88-6.69,14.36l-2.15,1.91a8.45,8.45,0,0,0-2.53-.31c-4.93.11-11.13,4.12-15.3,7.84-3.6,3.21-6.82,7.25-7.45,10.58,1.36-.15,2.68-.28,4-.4.83-2.27,3.13-5.41,6.44-8.37,4.26-3.8,9-6.4,11.88-6.76l0,0-1.21,1.08a1.13,1.13,0,0,0,.25,1.89h0a2.29,2.29,0,0,0,2.56-.17l1.17-1c0,2.2-2.59,6.05-6.8,9.8a40.86,40.86,0,0,1-3.22,2.58q3-.22,5.75-.39l.43-.37a30.57,30.57,0,0,0,6.54-7.78c1.7-3.2,1.28-5.22.25-6.48l2.22-2a8.25,8.25,0,0,0,2.37.26c4.91-.12,11.12-4.13,15.28-7.84a30.41,30.41,0,0,0,6.53-7.77c1.73-3.25,1.28-5.28.24-6.54l3.44-3.07ZM237,449.18c-.34.3-.67.59-1,.87s-.59.49-.89.72-.89.69-1.34,1l-.27.2c-.73.52-1.45,1-2.15,1.41-.2.12-.39.24-.58.34-.59.35-1.18.65-1.73.92l-.73.33-.7.29a2.3,2.3,0,0,1-.34.12l-.65.23-.32.08c-.1,0-.21.06-.31.09l-.59.12-.27,0-.06,0a1.16,1.16,0,0,0-.59-1.38h0a2.33,2.33,0,0,0-2.15-.08c-.06-2.18,2.54-6.3,6.8-10.12s9-6.39,11.88-6.76l-1.18,1.07a1.12,1.12,0,0,0,.23,1.89,2.32,2.32,0,0,0,2.58-.17l1.2-1.07C243.88,441.48,241.29,445.38,237,449.18Z" />
      <path class="BUNTAI_DEER_OUTFIT_DEER_OUTFIT_23_cls-3" d="M303.25,358.06h0l-1.71-1.52s3.23-2.13,6.76,1.15l-1.53,3.41a72.84,72.84,0,0,1-5.73,9.78c-4,5.9-22.82,27.76-44.35,42.36-4.58,3.29-7.19,7.35-7.12,11.13a6.25,6.25,0,0,0,2.73,5.24,12.35,12.35,0,0,0,7.87,1.79c5.48-.42,11.24-3.49,16.22-8.66,9.29-9.64,36.53-35.81,53.39-43.77.4-.19.78-.37,1.17-.53l3.1-1.27c2,1.77,3,3.77,1.9,6l-2.65-1.81c-14.92,6.47-41.81,31.58-53.14,43.33-10.43,10.83-22.36,11.83-29.34,8.38a13.56,13.56,0,0,1-1.67-1,9.51,9.51,0,0,1-1-.82c-5.42-4.8-4.05-13.78,5.41-20.53,20.41-13.82,38.92-34.89,43.41-41.42A64.46,64.46,0,0,0,303.25,358.06Z" />
      <path class="BUNTAI_DEER_OUTFIT_DEER_OUTFIT_23_cls-4" d="M333.64,376.84l-.4-.32-.36-.26c-.32-.23-.65-.46-1-.68h-.05c-.4-.26-.82-.5-1.25-.75a50.76,50.76,0,0,0-4.55-2.27q-.79-.36-1.59-.78a46.25,46.25,0,0,1-9.22-6.67,54.62,54.62,0,0,1-5.81-6.19,11.26,11.26,0,0,0-1.12-1.22l-1.53,3.42a74.78,74.78,0,0,1-5.73,9.78l-.24.34c-.07.11-.17.24-.26.36l-.29.4c-.08.11-.17.22-.25.34-.35.46-.75,1-1.2,1.54l-.43.54c-.53.66-1.11,1.37-1.74,2.12l-.39.46c-1.25,1.48-2.69,3.13-4.29,4.9l-.62.68c-.23.26-.48.52-.73.79s-.49.55-.75.82c-.51.55-1,1.1-1.58,1.67q-.33.36-.69.72c-1.93,2-4,4.15-6.26,6.31l-2.2,2.1-1.61,1.51c-1.25,1.15-2.53,2.31-3.84,3.46-.41.37-.83.74-1.26,1.1-2.4,2.09-4.9,4.16-7.46,6.16-.54.42-1.08.84-1.63,1.25l-1.64,1.23c-.5.38-1,.75-1.53,1.12-1.14.83-2.29,1.64-3.46,2.43-4.58,3.29-7.18,7.35-7.12,11.13a6.25,6.25,0,0,0,2.73,5.24,12.38,12.38,0,0,0,7.88,1.79c5.47-.41,11.23-3.49,16.22-8.66.6-.64,1.3-1.34,2.06-2.11l1-1c1.81-1.81,3.95-3.91,6.33-6.19l1.28-1.22c2.71-2.57,5.7-5.34,8.85-8.15.19-.19.39-.36.6-.55l.31-.27,1.32-1.17.06-.05s0,0,.06-.05l.06-.06h0c3.12-2.75,6.37-5.51,9.62-8.13.51-.42,1-.84,1.54-1.24l1.33-1.06,1.46-1.13,1.44-1.1c.64-.48,1.27-1,1.91-1.42.79-.59,1.58-1.16,2.37-1.7.46-.33.92-.66,1.38-1l1.77-1.2a71.26,71.26,0,0,1,8.62-5c.4-.19.78-.37,1.17-.53l3.09-1.27Zm-73.33,50.24c-2.83,0-5.13-1.7-5.13-3.79s2.3-3.79,5.13-3.79,5.14,1.69,5.14,3.79S263.14,427.08,260.31,427.08Zm9.44-11c-1.26,0-2.29-.75-2.29-1.68s1-1.7,2.29-1.7,2.29.76,2.29,1.7S271,416.05,269.75,416.05ZM289.1,394.3c2.83,0,5.13,1.69,5.13,3.79s-2.3,3.79-5.13,3.79-5.13-1.7-5.13-3.79S286.26,394.3,289.1,394.3Zm-11.82,14.33a.3.3,0,0,1-.11-.06l-.14-.07a1.88,1.88,0,0,1-.47-.41.52.52,0,0,1-.13-.17.72.72,0,0,1-.12-.23,1,1,0,0,1-.08-.25,1,1,0,0,1,0-.24,1.37,1.37,0,0,1,.12-.53.72.72,0,0,1,.11-.19.55.55,0,0,1,.09-.14,1.07,1.07,0,0,1,.18-.19l0,0A1.37,1.37,0,0,1,277,406h0l.12-.08.12-.06a2.19,2.19,0,0,1,.47-.18l.27-.06.11,0a3,3,0,0,1,.43,0c1.27,0,2.28.75,2.28,1.69s-1,1.69-2.28,1.69h-.27l-.24,0-.25-.06-.23-.07Zm21.94-18.49a2.09,2.09,0,0,1-2.35-1.64c0-.93,1-1.71,2.24-1.73s2.31.71,2.34,1.64S300.48,390.12,299.22,390.14Zm8.5-7.33c-1.27,0-2.31-.71-2.35-1.65s1-1.7,2.23-1.73a2.1,2.1,0,0,1,2.34,1.65C310,382,309,382.78,307.72,382.81ZM317.85,374l-.1.17a.68.68,0,0,1-.13.18l0,0a1.25,1.25,0,0,1-.27.24.18.18,0,0,1-.07.05.56.56,0,0,1-.15.1l-.11.06-.25.12-.29.08a2.7,2.7,0,0,1-.71.11c-1.25,0-2.31-.71-2.35-1.65v0a1.49,1.49,0,0,1,0-.21,1,1,0,0,1,0-.17s0-.08,0-.12l.06-.13a1.29,1.29,0,0,1,.22-.3.75.75,0,0,1,.12-.14l.15-.12a2.06,2.06,0,0,1,.33-.2l.18-.09.18-.07a3.21,3.21,0,0,1,.59-.13l.3,0c1.26,0,2.31.71,2.35,1.64v.12a.57.57,0,0,1,0,.18,1,1,0,0,1-.07.24h0Z" />
      <path class="BUNTAI_DEER_OUTFIT_DEER_OUTFIT_23_cls-5" d="M353.21,394.43s-6.28,18.23-27.37,30.66a9.26,9.26,0,0,1-.13.92,14.9,14.9,0,0,1-.34,1.47,3.5,3.5,0,0,1-.14.46,5.73,5.73,0,0,1-.3.82.17.17,0,0,1-.05.12,3,3,0,0,1-.19.45.37.37,0,0,1-.05.11,3.48,3.48,0,0,1-.22.43,1.23,1.23,0,0,1-.14.25c-.09.17-.19.33-.29.5l-.19.26a5.45,5.45,0,0,1-.37.51,37,37,0,0,1,.58,6.49c0,.2,0,.42,0,.65v.12c0,.29,0,.58,0,.87s0,.61-.05.92-.07.73-.11,1.09l-.06.48c0,.18-.05.36-.07.54s0,.08,0,.11c0,.23-.07.47-.1.7l-.15.79a30.94,30.94,0,0,1-3.87,10.06c-3.79,6.32-10.36,12.46-21.05,17.7-18.37,5.29-28.22,3.88-46,3a338.57,338.57,0,0,0-39.56.26l.43-.37a30.57,30.57,0,0,0,6.54-7.78c1.7-3.2,1.28-5.22.25-6.48l2.22-2a8.25,8.25,0,0,0,2.37.26c4.91-.12,11.12-4.13,15.28-7.84a30.41,30.41,0,0,0,6.53-7.77c1.73-3.25,1.28-5.28.24-6.54l3.44-3.07.6-.54a19,19,0,0,0,9.74,1.71,25.13,25.13,0,0,0,6.58-1.4l.15-.05a33.92,33.92,0,0,0,12.87-8.64c4.2-4.36,10.55-10.55,17.62-17,12-10.85,26.14-22.3,35.52-26.37l2.65,1.81h0c2.7,1.84,5.53,3.78,8.71,6A67.73,67.73,0,0,0,353.21,394.43Z" />
      <path class="BUNTAI_DEER_OUTFIT_DEER_OUTFIT_23_cls-5" d="M303.25,358.06a65.27,65.27,0,0,1-6.35,11.27c-3.07,4.47-12.7,15.74-25,26.83l-.08.07a172.06,172.06,0,0,1-18.32,14.52,25.86,25.86,0,0,0-3.94,3.41,18.84,18.84,0,0,0-1.86,2.26c-.13.18-.25.35-.37.54l0,0a15.11,15.11,0,0,0-1.42,2.68c-1.84,4.45-1,8.77,2.2,11.61l-.49.44-.25.22h0l0,0-3.38,3a8.41,8.41,0,0,0-2.47-.29c-4.93.12-11.13,4.13-15.29,7.85-5.17,4.59-9.55,10.88-6.69,14.36l-2.15,1.91a8.45,8.45,0,0,0-2.53-.31c-4.93.11-11.13,4.12-15.3,7.84-3.6,3.21-6.82,7.25-7.45,10.58-1.42.14-2.87.29-4.35.46a147.67,147.67,0,0,1-27.26.61,89.7,89.7,0,0,1-23.7-4.67l-.09,0a29.78,29.78,0,0,1-3.25-1.37c-1.66-.8-3.2-1.63-4.66-2.5l0,0s0,0,0-.06.07-.14.12-.25l.08-.17.25-.52c.06-.12.12-.24.2-.38a3.74,3.74,0,0,1,.23-.44c.07-.16.17-.33.26-.5a68.15,68.15,0,0,1,5.85-8.76c.26-.35.54-.7.83-1.06a105.93,105.93,0,0,1,7.61-8.56l.46-.46c2.39-2.42,5.12-5,8.23-7.61l.45-.38,1.26-1.06c.86-.71,1.75-1.43,2.66-2.15l.24-.19c1.27-1,2.6-2,4-3l1.4-1,1.44-1c1-.68,2-1.38,3-2.07l1.55-1.05,1.59-1.05,1.62-1c.53-.35,1.08-.69,1.62-1l1.86-1.15,1.63-1,1.5-.89,1.51-.88,2.46-1.41c11.14-6.25,27.62-13,45.21-20.73l4-1.77,2.13-.95,2.05-.93,2.07-.94,1.83-.85.29-.13c1.69-.79,3.39-1.58,5.08-2.39l.86-.41c1-.45,1.92-.92,2.87-1.39l2.54-1.24.87-.44c.68-.33,1.35-.67,2-1,3.32-1.68,6.61-3.41,9.82-5.2.71-.39,1.42-.78,2.12-1.18l2.79-1.6,2.57-1.52.49-.3c.69-.42,1.38-.83,2.06-1.26,1-.62,2-1.25,3-1.9.78-.5,1.55-1,2.33-1.53l.84-.58q.87-.57,1.71-1.17a3.09,3.09,0,0,0,.37-.26c.81-.56,1.62-1.13,2.42-1.71s1.42-1,2.11-1.58,1.37-1,2-1.56l.07-.06c.66-.52,1.31-1,1.94-1.57,2.25-1.85,4.39-3.74,6.39-5.7.48-.46.94-.92,1.4-1.39l0,0q.69-.7,1.35-1.41l.4.36.81.7c.57.52,1.14,1,1.7,1.52Z" />
      <path class="BUNTAI_DEER_OUTFIT_DEER_OUTFIT_23_cls-2" d="M315.62,371.72c-1.26,0-2.26.8-2.23,1.73a2.12,2.12,0,0,0,2.35,1.65c1.26,0,2.26-.8,2.23-1.73S316.89,371.7,315.62,371.72Z" />
      <path class="BUNTAI_DEER_OUTFIT_DEER_OUTFIT_23_cls-2" d="M299.1,386.77c-1.26,0-2.26.8-2.22,1.73s1.08,1.67,2.34,1.65,2.26-.81,2.23-1.74S300.37,386.75,299.1,386.77Z" />
      <path class="BUNTAI_DEER_OUTFIT_DEER_OUTFIT_23_cls-2" d="M260.32,419.5c-2.84,0-5.15,1.69-5.15,3.79s2.31,3.79,5.15,3.79,5.13-1.7,5.13-3.79S263.14,419.5,260.32,419.5Z" />
      <path class="BUNTAI_DEER_OUTFIT_DEER_OUTFIT_23_cls-2" d="M307.6,379.43c-1.27,0-2.26.8-2.23,1.73s1.08,1.67,2.35,1.65,2.26-.8,2.22-1.73S308.85,379.41,307.6,379.43Z" />
      <path class="BUNTAI_DEER_OUTFIT_DEER_OUTFIT_23_cls-2" d="M319.88,362c-2.16,0-3.49,1.84-4.67,3a46.36,46.36,0,0,0,9.22,6.67c1.57-.88,2-3.33,2-4.9C326.42,364.2,323.49,362,319.88,362Z" />
      <path class="BUNTAI_DEER_OUTFIT_DEER_OUTFIT_23_cls-2" d="M278.49,405.51c-1.26,0-2.29.75-2.29,1.69s1,1.69,2.29,1.69,2.29-.76,2.29-1.69S279.76,405.51,278.49,405.51Z" />
      <path class="BUNTAI_DEER_OUTFIT_DEER_OUTFIT_23_cls-2" d="M269.75,412.68c-1.26,0-2.29.75-2.29,1.69s1,1.68,2.29,1.68,2.28-.75,2.28-1.68S271,412.68,269.75,412.68Z" />
      <path class="BUNTAI_DEER_OUTFIT_DEER_OUTFIT_23_cls-2" d="M289.1,394.3c-2.84,0-5.13,1.7-5.13,3.79s2.29,3.79,5.13,3.79,5.13-1.7,5.13-3.79S291.93,394.3,289.1,394.3Z" />
      <path class="BUNTAI_DEER_OUTFIT_DEER_OUTFIT_23_cls-6" d="M371.54,399.67c-3.81,18.2-22.39,35.12-48.11,44.48h0l.15-.79c.05-.27.08-.54.12-.81a32.63,32.63,0,0,0,.32-4c0-.23,0-.45,0-.65a37,37,0,0,0-.58-6.49c.13-.17.26-.34.37-.51a8.87,8.87,0,0,0,.89-1.55,13.62,13.62,0,0,0,1.15-4.24c21.09-12.43,27.37-30.66,27.37-30.66a54.33,54.33,0,0,0,9.73,3.85A30.88,30.88,0,0,0,371.54,399.67Z" />
      <path class="BUNTAI_DEER_OUTFIT_DEER_OUTFIT_23_cls-6" d="M301.42,354.29c-.35.39-.73.78-1.1,1.18s-.89.94-1.35,1.41l0,0c-.46.47-.92.93-1.4,1.39-2,2-4.14,3.85-6.39,5.7-.63.53-1.29,1.05-1.94,1.57l-.07.06-2,1.56c-.69.53-1.4,1.06-2.11,1.58l-.25.17c-.71.52-1.43,1-2.17,1.54a3.09,3.09,0,0,1-.37.26c-.56.39-1.13.79-1.71,1.17l-.84.58L277.32,374c-1,.65-2,1.28-3,1.9l-2.06,1.26-.49.3c-.84.51-1.71,1-2.57,1.52l-2.79,1.6c-.7.4-1.41.79-2.12,1.18-3.21,1.79-6.5,3.52-9.82,5.2-.68.35-1.35.69-2,1l-.87.44L249,389.68c-1,.47-1.91.94-2.87,1.39l-.86.41c-1.5.72-3,1.43-4.5,2.11l-.58.28-.29.13-1.83.85-2.07.94-2.05.93-2.13.95c-1.34.6-2.67,1.19-4,1.77-17.59,7.77-34.07,14.48-45.21,20.73l-2.46,1.41-1.51.88-1.5.89-1.63,1-1.86,1.15c-.54.34-1.09.68-1.62,1l-1.62,1-1.59,1.05-1.55,1.05c-1,.69-2,1.39-3,2.07l-1.44,1-1.4,1c-1.37,1-2.7,2-4,3l-.24.19c-.91.72-1.8,1.44-2.66,2.15l-1.26,1.06-.45.38c-3.11,2.64-5.84,5.19-8.23,7.61l-.46.46a105.93,105.93,0,0,0-7.61,8.56c-.29.36-.57.71-.83,1.06a68.15,68.15,0,0,0-5.85,8.76c-.09.17-.19.34-.26.5a3.74,3.74,0,0,0-.23.44c-.08.14-.14.26-.2.38l-.25.52-.08.17c0,.11-.09.2-.12.25s0,0,0,.06l0,0a50,50,0,0,1-12.3-9.68h0l.06-.12c.05-.09.13-.22.22-.39l.09-.14c.21-.35.5-.85.9-1.47.1-.16.2-.32.32-.49.52-.81,1.18-1.79,2-2.92.2-.27.39-.55.61-.84.32-.44.66-.89,1-1.37.12-.16.24-.31.36-.48,1.62-2.11,3.64-4.58,6.1-7.31.35-.39.71-.79,1.09-1.19,2.28-2.48,4.92-5.16,7.95-8,.36-.35.74-.7,1.13-1q3.56-3.27,7.81-6.73L148,425.7l2-1.57c2-1.5,4-3,6.21-4.54.54-.39,1.09-.77,1.65-1.15,2.34-1.62,4.82-3.25,7.41-4.88l1.37-.85c.64-.4,1.28-.79,1.94-1.18s1.28-.77,1.93-1.15,1.31-.76,2-1.15l2-1.14c1.5-.84,3.1-1.7,4.79-2.56.91-.46,1.86-.94,2.82-1.41,4.93-2.43,10.5-4.93,16.46-7.54l2-.88,2-.89.87-.38c-25.25-11.17-52.75-24.5-70.1-41.77-.61-.6,3.06-.37,2.47-1h0l7.66-2.53,7.23-2.2c19.44,20.35,42.25,27.36,70.65,39.68,26.19-11.6,49.65-21.42,66.5-39.71l6.44,3.69Z" />
      <path class="BUNTAI_DEER_OUTFIT_DEER_OUTFIT_23_cls-6" d="M108.44,431.38h0a11,11,0,0,1-2.11-4.56h0c-26.49-12.39-34.24-32.38-34.24-32.38-12.19,5.5-20.61,5.24-20.61,5.24,4.42,18.81,26.07,40.67,57.09,44.95A34.55,34.55,0,0,1,108.44,431.38Z" />
      <path class="BUNTAI_DEER_OUTFIT_DEER_OUTFIT_23_cls-7" d="M203.49,394.43l-.87.38c-10.9,4.75-20.68,9.11-28.1,13.28a207.89,207.89,0,0,0-24.49,16c-21.92,16.78-31.33,31.69-33.23,34.94-.23.39-.35.61-.37.65a32.66,32.66,0,0,1-7.05-12,29.22,29.22,0,0,1-.82-3.08,34.55,34.55,0,0,1-.12-13.24h0a9.35,9.35,0,0,1-1.12-1.76,12,12,0,0,1-1-2.8h0c-.95-.44-1.86-.89-2.76-1.35-1.33-.68-2.62-1.38-3.85-2.1C78.52,411,72.08,394.43,72.08,394.43a79,79,0,0,0,9.64-5.2c17.08-10.79,25.63-22.13,51.33-36.32l.34-.25C150.74,369.93,178.24,383.26,203.49,394.43Z" />
      <path class="BUNTAI_DEER_OUTFIT_DEER_OUTFIT_23_cls-8" d="M301.42,354.29c-.35.39-.73.79-1.1,1.18s-.89.94-1.35,1.41l0,0c-.46.47-.92.93-1.4,1.39-2,2-4.14,3.85-6.39,5.7-.63.53-1.28,1.05-1.94,1.57l-.07.06c-.66.52-1.34,1-2,1.56s-1.4,1.06-2.11,1.58-1.61,1.15-2.42,1.71a3.09,3.09,0,0,1-.37.26q-.84.6-1.71,1.17l-.84.58c-.78.51-1.55,1-2.33,1.53-1,.65-2,1.28-3,1.9-.68.43-1.37.84-2.06,1.26l-.49.3L269.19,379l-2.79,1.6c-.7.4-1.41.79-2.12,1.18-3.21,1.79-6.5,3.52-9.82,5.2-.68.35-1.35.69-2,1l-.87.44L249,389.68c-1,.47-1.91.94-2.87,1.39l-.86.41c-1.69.81-3.39,1.6-5.08,2.39l-.29.13-1.83.85-2.07.94-2.05.93-2.13.95-4,1.77c-17.59,7.77-34.07,14.48-45.21,20.73l-2.46,1.41-1.51.88-1.5.89c-.55.32-1.09.66-1.63,1l-1.86,1.15c-.55.34-1.09.68-1.62,1l-1.62,1-1.59,1.05c-.52.34-1,.69-1.55,1.05-1,.68-2,1.38-3,2.07l-1.44,1-1.4,1c-1.38,1-2.71,2-4,3l-.24.19c-.91.72-1.8,1.44-2.66,2.15l-1.26,1.06-.45.38c-3.11,2.64-5.84,5.19-8.23,7.61l-.46.46a105.93,105.93,0,0,0-7.61,8.56c-.29.36-.57.71-.83,1.06a68.15,68.15,0,0,0-5.85,8.76c-.09.17-.19.34-.26.5a3.74,3.74,0,0,0-.23.44c-.08.14-.14.26-.2.38l-.25.52-.08.17c0,.11-.09.2-.12.25s0,0,0,.06l0,0h0" />
      <path class="BUNTAI_DEER_OUTFIT_DEER_OUTFIT_23_cls-8" d="M116.43,459.73h0c.22-.41,14.67-27.26,58.09-51.63,7.62-4.28,17.72-8.76,29-13.66,5.72-2.49,11.75-5.08,17.9-7.81,26.19-11.6,49.65-21.42,66.5-39.71" />
      <path class="BUNTAI_DEER_OUTFIT_DEER_OUTFIT_23_cls-8" d="M203.49,394.43c-25.25-11.17-52.75-24.5-70.1-41.77a26.07,26.07,0,0,1,2.47-1" />
      <path class="BUNTAI_DEER_OUTFIT_DEER_OUTFIT_23_cls-8" d="M150.75,347c19.44,20.33,42.25,27.35,70.65,39.67" />
      <polyline class="BUNTAI_DEER_OUTFIT_DEER_OUTFIT_23_cls-8" points="287.9 346.91 294.34 350.6 301.42 354.29" />
      <polyline class="BUNTAI_DEER_OUTFIT_DEER_OUTFIT_23_cls-8" points="150.75 346.94 143.52 349.14 135.86 351.68 135.86 351.68" />
      <path class="BUNTAI_DEER_OUTFIT_DEER_OUTFIT_23_cls-8" d="M133.39,352.66l-.34.25c-28.15,15.7-34.25,25.53-51.33,36.32a79,79,0,0,1-9.64,5.2,64.33,64.33,0,0,1-10.21,3.66l-.1,0a40.19,40.19,0,0,1-10.3,1.55c.13.59.29,1.18.46,1.77,3,10.22,10.84,21.14,22.41,29.53l.17.12a74.82,74.82,0,0,0,18,9.56l1.92.67h0c1,.35,2,.67,3.09,1,2,.57,4,1.08,6.12,1.49h0c1.35.28,2.72.52,4.12.72l.7.1" />
      <path class="BUNTAI_DEER_OUTFIT_DEER_OUTFIT_23_cls-8" d="M72.08,394.43s7.75,20,34.24,32.38" />
      <path class="BUNTAI_DEER_OUTFIT_DEER_OUTFIT_23_cls-8" d="M300.32,355.47l.4.36.81.7c.57.52,1.14,1,1.7,1.52h0" />
      <path class="BUNTAI_DEER_OUTFIT_DEER_OUTFIT_23_cls-8" d="M323.41,444.15h0c25.72-9.36,44.3-26.28,48.11-44.48a30.88,30.88,0,0,1-8.6-1.39,54.33,54.33,0,0,1-9.73-3.85,67.73,67.73,0,0,1-8.57-5.2c-3.18-2.26-6-4.2-8.71-6" />
      <path class="BUNTAI_DEER_OUTFIT_DEER_OUTFIT_23_cls-8" d="M333.28,381.37l2.65,1.81" />
      <path class="BUNTAI_DEER_OUTFIT_DEER_OUTFIT_23_cls-8" d="M325.84,425.09c21.09-12.43,27.37-30.66,27.37-30.66" />
      <path class="BUNTAI_DEER_OUTFIT_DEER_OUTFIT_23_cls-8" d="M108.44,431.37a52.71,52.71,0,0,1,8.85-20.62" />
      <path class="BUNTAI_DEER_OUTFIT_DEER_OUTFIT_23_cls-8" d="M108.44,431.38a34.55,34.55,0,0,0,.12,13.24c.11.51.23,1,.37,1.54,0,.23.12.45.18.67l.06.22c.06.21.13.43.21.65s.15.48.23.72a.05.05,0,0,1,0,0c.16.47.34.94.54,1.42.36.88.76,1.77,1.22,2.65.11.22.23.43.35.65s.32.57.49.85a32,32,0,0,0,2.44,3.58c.16.22.32.43.5.64.4.49.83,1,1.26,1.47h0a50,50,0,0,0,12.3,9.68c1.46.87,3,1.7,4.66,2.5a29.78,29.78,0,0,0,3.25,1.37l.09,0a69.44,69.44,0,0,0,7.08,2.12l1.2.28.07,0,1.41.31.77.15c1.37.28,2.85.55,4.42.79l2.19.32c1.89.25,3.91.47,6.06.64l.5,0c.42,0,.85.07,1.28.09.68.05,1.36.08,2.07.12l1.05.05.67,0,1,0a154.08,154.08,0,0,0,21.22-.92c1.48-.17,2.93-.32,4.35-.46s2.68-.28,4-.4q5.88-.57,11.13-.95,3-.22,5.75-.39a338.57,338.57,0,0,1,39.56-.26c17.81.87,27.66,2.28,46-3,10.69-5.24,17.26-11.38,21.05-17.7a30.94,30.94,0,0,0,3.87-10.06l.15-.79c0-.23.07-.47.1-.7,0,0,0-.07,0-.11s0-.36.07-.54l.06-.48c0-.36.07-.73.11-1.09s0-.61.05-.92l0-.87v-.12c0-.23,0-.45,0-.65a37,37,0,0,0-.58-6.49,52.84,52.84,0,0,0-8.83-20.64" />
      <path class="BUNTAI_DEER_OUTFIT_DEER_OUTFIT_23_cls-8" d="M106.55,416.36a25.46,25.46,0,0,0-.22,10.45,11,11,0,0,0,2.11,4.56h0" />
      <path class="BUNTAI_DEER_OUTFIT_DEER_OUTFIT_23_cls-8" d="M325.32,416.36a26.77,26.77,0,0,1,.52,8.73,12.25,12.25,0,0,1-2.41,6.3" />
      <path class="BUNTAI_DEER_OUTFIT_DEER_OUTFIT_23_cls-8" d="M334,377.16l-3.1,1.27c-.39.16-.77.34-1.17.53-16.86,8-44.1,34.13-53.39,43.77-5,5.17-10.74,8.24-16.22,8.66a12.35,12.35,0,0,1-7.87-1.79,6.25,6.25,0,0,1-2.73-5.24c-.07-3.78,2.54-7.84,7.12-11.13,21.53-14.6,40.3-36.46,44.35-42.36a72.84,72.84,0,0,0,5.73-9.78l1.53-3.41" />
      <path class="BUNTAI_DEER_OUTFIT_DEER_OUTFIT_23_cls-8" d="M303.25,358.06h0a64.46,64.46,0,0,1-6.35,11.27c-4.49,6.53-23,27.6-43.41,41.42-9.46,6.75-10.83,15.73-5.41,20.53a9.51,9.51,0,0,0,1,.82,13.56,13.56,0,0,0,1.67,1c7,3.45,18.91,2.45,29.34-8.38,11.33-11.75,38.22-36.86,53.14-43.33" />
      <path class="BUNTAI_DEER_OUTFIT_DEER_OUTFIT_23_cls-8" d="M301.52,356.53s3.23-2.13,6.76,1.15a12.21,12.21,0,0,1,1.12,1.21,53,53,0,0,0,5.81,6.2,46.36,46.36,0,0,0,9.22,6.67q.79.44,1.59.78a33.91,33.91,0,0,1,8,4.62c2,1.77,3,3.77,1.9,6h0" />
      <path class="BUNTAI_DEER_OUTFIT_DEER_OUTFIT_23_cls-8" d="M324.43,371.76c1.57-.88,2-3.33,2-4.9,0-2.66-2.93-4.82-6.54-4.82-2.16,0-3.49,1.84-4.67,3" />
      <path class="BUNTAI_DEER_OUTFIT_DEER_OUTFIT_23_cls-8" d="M265.45,423.29c0,2.09-2.31,3.79-5.14,3.79s-5.14-1.7-5.14-3.79,2.31-3.79,5.14-3.79S265.45,421.19,265.45,423.29Z" />
      <path class="BUNTAI_DEER_OUTFIT_DEER_OUTFIT_23_cls-8" d="M272,414.37c0,.93-1,1.68-2.28,1.68s-2.29-.75-2.29-1.68,1-1.69,2.29-1.69S272,413.43,272,414.37Z" />
      <path class="BUNTAI_DEER_OUTFIT_DEER_OUTFIT_23_cls-8" d="M280.78,407.2c0,.93-1,1.69-2.29,1.69s-2.29-.76-2.29-1.69,1-1.69,2.29-1.69S280.78,406.26,280.78,407.2Z" />
      <path class="BUNTAI_DEER_OUTFIT_DEER_OUTFIT_23_cls-8" d="M301.45,388.41c0,.93-1,1.71-2.23,1.74s-2.31-.72-2.34-1.65,1-1.71,2.22-1.73S301.42,387.48,301.45,388.41Z" />
      <path class="BUNTAI_DEER_OUTFIT_DEER_OUTFIT_23_cls-8" d="M318,373.37c0,.93-1,1.7-2.23,1.73a2.12,2.12,0,0,1-2.35-1.65c0-.93,1-1.71,2.23-1.73S317.94,372.43,318,373.37Z" />
      <path class="BUNTAI_DEER_OUTFIT_DEER_OUTFIT_23_cls-8" d="M309.94,381.08c0,.93-1,1.7-2.22,1.73s-2.32-.71-2.35-1.65,1-1.71,2.23-1.73S309.9,380.14,309.94,381.08Z" />
      <path class="BUNTAI_DEER_OUTFIT_DEER_OUTFIT_23_cls-8" d="M294.23,398.09c0,2.09-2.3,3.79-5.13,3.79s-5.13-1.7-5.13-3.79,2.29-3.79,5.13-3.79S294.23,396,294.23,398.09Z" />
      <path class="BUNTAI_DEER_OUTFIT_DEER_OUTFIT_23_cls-8" d="M248.08,431.28l-4.15,3.7-2.93,2.6-1.18,1.06a1.13,1.13,0,0,0,.24,1.9,2.29,2.29,0,0,0,2.57-.17l1.2-1.07,2.92-2.61,4.05-3.61" />
      <g class="BUNTAI_DEER_OUTFIT_DEER_OUTFIT_23_cls-9">
        <path d="M249.55,414.16s-25.46,4.4-44.37,8.52-37.63,14.9-37.63,14.9,20.68-2.39,35.95-7.54,36.51-9,36.51-9l6.58-1.59A8.57,8.57,0,0,1,249.55,414.16Z" />
        <path d="M212.16,432s16.48-.24,25-.67,9.27,0,9.27,0l.9-.19V432l-2.24,1.48s-11.12.11-21.59,0-25.48,0-24.53.05S212.16,432,212.16,432Z" />
        <path d="M112.13,397.51s-7.9,25-4.17,34.44l-8.69-12.8s1.65,12.58,0,15-4.79,7.16-4.79,7.16,9.85,3,13.38,3.2c4.27,9.36,13.85,27.46,41.66,32.4,17.8,2.51,33.68.84,42.53,0-32.66-8-39.24-36.57-39.24-36.57L150,424.14S122.75,419.7,112.13,397.51Z" />
        <path d="M61.88,398.09s8.33,17.41,22.68,25.78l18.55,10.82-5.58,7.72a89.4,89.4,0,0,1-23-11.32C62.63,423,54.07,411,51.47,399.67A99.45,99.45,0,0,0,61.88,398.09Z" />
        <path d="M213.36,390.14l-9.87,4.29-.87.38s-34-15.22-50.81-26.8a159.78,159.78,0,0,1-18.76-15.1l.34-.25a15.07,15.07,0,0,1,2.47-1h0l7.66-2.53h0s5.5,7.85,24,20.38S213.36,390.14,213.36,390.14Z" />
        <path d="M300.32,355.47l.4.36a125.93,125.93,0,0,1-11,9.41c-1.51,1.18-3.11,2.35-4.77,3.53l-.25.17c-11.14,7.86-25.69,15.95-44,24.65l-.58.28-.29.13q-14.07,6.69-31.08,13.89a260.26,260.26,0,0,0-51.35,28.94l-.24.19c-1.76,1.29-3.24,2.43-4.43,3.36-2.36,1.87-3.59,2.95-3.59,2.95l-.6-4.75s.51-1.22,3.21-3.92c2.92-2.93,8.42-7.62,18.62-14.41,19.6-13,40.53-22,74.48-37.65a206.24,206.24,0,0,0,49.4-32l7.08,3.69C301.07,354.68,300.69,355.07,300.32,355.47Z" />
        <path d="M281.29,392.87s-6.88,10.8-3.29,16.88,20.32-7.87,20.32-7.87l.84,4.06s-17.35,23.26-32,27.45-20.51-.32-22-6.31.14-9.76,10.39-17.32a166.54,166.54,0,0,0,16.4-13.6C272.33,395.76,281.29,392.87,281.29,392.87Z" />
        <path d="M331.86,375.57A143.54,143.54,0,0,1,318,371.72c-7.67-2.62-10.31-5.72-10.31-5.72s4.14,5,9.12,7.41a47.27,47.27,0,0,0,9.67,3.34l2.89,1.58,3.25-.92Z" />
        <path d="M371.54,399.67c-3.81,18.2-22.39,35.12-48.11,44.48.05-.27.09-.53.13-.79s.08-.54.12-.81.08-.72.12-1.08c.1-1,.16-2.05.2-2.94,0-.23,0-.45,0-.65.05-1.7,0-2.85,0-2.85a67.73,67.73,0,0,0,21.88-12.7c11.22-9.52,17.05-24.05,17.05-24.05A30.88,30.88,0,0,0,371.54,399.67Z" />
        <path d="M316.58,412.68s6,11.1,7.43,19.27a39,39,0,0,0-.58-24.29,63.18,63.18,0,0,1,0,15.63A21.94,21.94,0,0,0,316.58,412.68Z" />
        <path d="M319.54,454.21c-3.79,6.32-10.36,12.46-21.05,17.7-18.37,5.29-28.22,3.88-46,3h0s40.1.1,54.75-16.27c14.42-16.12,7.5-32.26,7.28-32.76A48.39,48.39,0,0,1,319.54,454.21Z" />
      </g>
    </g>
  </g>
</svg>