<svg xmlns="http://www.w3.org/2000/svg" viewBox="0 0 432 432">
  <defs>
    <style>.BUNTAI_BEAR_OUTFIT_BEAR_OUTFIT_13_cls-1{isolation:isolate;}.BUNTAI_BEAR_OUTFIT_BEAR_OUTFIT_13_cls-2{fill:#c0a600;}.BUNTAI_BEAR_OUTFIT_BEAR_OUTFIT_13_cls-3{fill:#c2b9b5;}.BUNTAI_BEAR_OUTFIT_BEAR_OUTFIT_13_cls-4{fill:#f95b00;}.BUNTAI_BEAR_OUTFIT_BEAR_OUTFIT_13_cls-5{fill:#6f1a42;}.BUNTAI_BEAR_OUTFIT_BEAR_OUTFIT_13_cls-6{fill:none;stroke:#000;stroke-linecap:round;stroke-linejoin:round;stroke-width:1.93px;}.BUNTAI_BEAR_OUTFIT_BEAR_OUTFIT_13_cls-7{opacity:0.43;mix-blend-mode:multiply;}</style>
  </defs>
  <g class="BUNTAI_BEAR_OUTFIT_BEAR_OUTFIT_13_cls-1">
    <g id="outfit">
      <path class="BUNTAI_BEAR_OUTFIT_BEAR_OUTFIT_13_cls-2" d="M374.63,318.49h0v0a0,0,0,0,1,0,0,.5.5,0,0,0,0,.12,0,0,0,0,0,0,0c0,.05,0,.1-.05.16l-.09.24h0a1,1,0,0,0,0,.1l-.05.09,0,.05-.14.26s0,0,0,.05l0,.05a1.74,1.74,0,0,1-.11.18c0,.05-.07.1-.1.16l-.26.41a.25.25,0,0,1,0,.07c-.42.63-.95,1.34-1.56,2.1l-.49.61-.08.09v0l0,0a.28.28,0,0,1-.07.09,1.55,1.55,0,0,1-.21.25l-.11.12h0l-.35.42a.41.41,0,0,1-.09.1l-.1.12,0,0c-.55.64-1.13,1.29-1.7,1.93l-.58.63-.56.62L366.49,329l-1,1.07c-.15.16-.31.32-.47.47v0c-.15.16-.3.32-.46.47a.6.6,0,0,1-.11.12l-.13.13-.43.44-.17.18-.7.72-.17.16-.1.11-.49.49,0,0-1.65.71-.26.11-.22.09-.06,0-.06,0-.2.09-.18.07,0,0-.18.08-.18.07-.23.1h0l-.19.08-.45.19-3,1.31h0c-1.4.62-3,1.3-4.69,2-.68.3-1.39.61-2.11.91l-1.09.47h0l-2.26,1-1.17.5-1.41.61-1,.41-.45.2-.75.33-5.11,2.2-3.6,1.54-1.26.54-2.49,1.06-3.21,1.37-.46.19h0l-.75.31c-.47.21-.94.4-1.41.6l-.22.09h0l-1.16.49-3.35,1.42-4.1,1.72-1.83.77h0l-.86.36-1.61.66-.73.3c-1.43.58-2.57,1-3.35,1.33-.31.12-.62.23-.94.33l-.36.13-.38.12-.16,0-.77.24-.08,0-.85.24L301,359l-.11,0-.21.06-.45.12h0c-.34.09-.7.17-1,.24-.5.12-1,.23-1.48.32l-.75.14-.75.12c-.51.09-1,.17-1.52.24l-.3.05-.1,0h0l-.27,0h-.06l-.36.05h-.1l-.29,0-.21,0-.11,0q-.52.08-1.05.12l-.34,0-.34,0-.17,0-.51,0-.36,0-.38,0-2.58.19-.57,0-.39,0-1,.06-1.3.06-1.86.08h-.42l-.73,0-.53,0h-.4l-.84,0-.44,0-1.32,0c-.82,0-1.78.07-2.78.13a0,0,0,0,0,0,0l-.09,0-.29.11-1.85.75-.87.36-.47.19-.75.31-5.37,2.23-1.15.48h0L260,367.65l-.05,0h0l-.37.16s-.05,0-.08,0a3,3,0,0,1-.36.16c-.31.14-.67.29-1.06.48l-.62.27-.68.31-1.42.65-.14.06-1.47.69-1.62.75-1.2.58c-3.5,1.66-7.75,3.77-12.52,6.27l-.48.25h0l-.22.11c-1.24.65-2.5,1.32-3.79,2s-2.77,1.51-4.2,2.31c-2.86,1.6-5.82,3.31-8.84,5.12l-2.28,1.37-2.3,1.42h0L214,392.16h0l-2.33,1.49-2.33,1.52h0l-.05,0-.14.09q-2,1.31-4,2.67l-.38.27-.13.1,2.28-.35.81-.11.73-.11.41-.06,1.12-.16c.71-.11,1.45-.19,2.19-.31l.8-.1a3.18,3.18,0,0,0,.43-.06l1.26-.17h0l.18,0,.44-.06.84-.11,1.6-.21,1.09-.14.28,0h.17l.15,0h0l.17,0s0,0,0,0h.14a.51.51,0,0,1,.17,0l.18,0,.5-.06.49-.07,1.21-.15.17,0c.33,0,.65-.07,1-.12h0l.45-.06.45-.05h0l.24,0,5.57-.66.94-.11,2.88-.34h0l.88-.09,1.65-.2,2.12-.24.71-.08.56-.07.42-.05.44-.05q.54,0,1.05-.12l1.14-.12,7.17-.79,2.07-.23,4.18-.45,1.85-.2h.24l1.49-.16.6-.06q.58-.08,1.17-.12l.37-.05.89-.1,1.35-.14.19,0h.18l.37,0h.17l.73-.08.3,0h.07l.17,0,.37,0,.38,0h0l.19,0,.51-.06.51-.05.21,0h.23l.47-.06.93-.1.64-.07h.07l2-.22h0l1-.1h.13l1-.1s0,0,0,0l1.91-.2.49-.05,1.4-.15.26,0,1-.11.63-.07.41-.05,3-.31,2.95-.31,2.15-.23h.15l.15,0,1.4-.15,1.88-.2,2.28-.25h.07l.44,0,.46-.06,1-.11h.1l.29,0,.83-.09.37,0h0l.24,0,.54-.06.11,0,.18,0h.07l.24,0,.57-.06.56-.07.93-.09,2.68-.3.18,0h.16l1-.12.59-.07.65-.07,1.24-.14.4-.05,1.55-.17.18,0h.06l.33,0h.18l.61-.08,1.81-.21.4-.05,1-.12.32,0,1.47-.17,2.23-.27,1-.12,3.22-.37,2.17-.23,4.44-.44,2.91-.27,2.95-.26,1-.08,1.17-.1,4.36-.35,1.45-.12,6.24-.48,1-.08.8-.06.6,0a0,0,0,0,0,0,0l.68-.06,2.1-.15,0,.06a.72.72,0,0,1,.07.11v0l.13.19.09.14.09.15.07.11c.32.49.76,1.22,1.29,2.15a3.79,3.79,0,0,1,.2.34l.09.18.74,1.37c0,.11.11.22.17.34l.28.53.47.93.71,1.51c.14.28.26.55.38.83s.25.55.38.84l.49,1.14c.13.28.25.58.37.88l.15.39c.25.63.5,1.28.74,2,.13.33.25.67.37,1l.36,1c.15.42.29.85.43,1.28s.31,1,.46,1.56l.23.83c.08.26.15.51.22.77s.21.77.3,1.16l.36,1.51c0,.17.08.34.11.51.11.48.21,1,.32,1.47s.23,1.24.32,1.87c0,.2.08.41.11.62s.1.63.14.95c0,.1,0,.21,0,.31s.07.44.09.67.08.61.11.92.09.77.13,1.17c0,.08,0,.14,0,.21s0,.27,0,.41c.05.6.1,1.21.13,1.82.18,3.17.33,6.67.42,10.38,0,.82.05,1.65.06,2.5,0,.42,0,.84,0,1.26,0,.85,0,1.71,0,2.57,0,1.4,0,2.81,0,4.23,0,.55,0,1.09,0,1.64,0,1.09,0,2.18-.05,3.28s0,2.19-.09,3.29c-.07,2.21-.17,4.42-.3,6.59-.16,2.68-.37,5.32-.65,7.87-.06.53-.12,1.05-.17,1.56-.11,1-.24,2-.38,3,0,0,0,0,0,0h0c-.13,1-.28,1.92-.44,2.85-.11.65-.23,1.29-.35,1.91s-.24,1.24-.37,1.84l-.21,1q-.22,1-.45,1.89c-.31,1.22-.65,2.37-1,3.46-.25.72-.51,1.42-.78,2.07s-.55,1.29-.85,1.88c-.17.33-.33.65-.51,1-.33.64-.66,1.24-1,1.83-1,1.75-1.87,3.28-2.7,4.64l-.8,1.31c-.26.42-.52.82-.75,1.21l-1,1.67h0l-.3.52c-.15.25-.3.51-.43.75s-.27.48-.39.72c-.25.48-.48.93-.67,1.39-.07.15-.13.29-.19.44h0c-.05.15-.11.29-.16.44l-.15.43v0c0,.14-.08.28-.11.43l-.12.43v0a8.1,8.1,0,0,0-.13.88v0a8.69,8.69,0,0,0-.05.89v0c0,.3,0,.6.05.91,0,.14,0,.28.05.42a.51.51,0,0,1,0,.13l0,.23c0,.19.08.4.12.59h0l0,.09c.06.25.13.52.21.79s.16.54.26.82c.16.48.34,1,.53,1.42l.05.11c.12.3.24.6.37.89s.25.58.39.87c.27.57.54,1.14.83,1.69.47.91,1,1.81,1.47,2.66l.14.22c.12.2.23.4.35.59.58,1,1.17,1.88,1.73,2.7h0l.35.51.66,1c.2.3.4.57.6.83.67.92,1.18,1.58,1.41,1.87l.07.09.07.09h0l-1.27-.31c-1.57-.38-3.07-.73-4.53-1l-1-.22-.68-.15-2-.42-.3-.07h-.39s0,0-.05,0l-.11,0c-.28-.07-.55-.12-.82-.17l-1.27-.26-1.24-.23-.87-.16-1.28-.23-.37-.07-.53-.1-.19,0-.15,0-1.35-.23-.24,0-.88-.16-1.12-.17c-2.94-.46-5.68-.84-8.29-1.2l-.87-.12-.11,0h-.13l-.37,0H331l-.09,0-.25,0h-.07l-.31-.06-.44-.06h-.1c-.33,0-.65-.07-1-.12l-.93-.12-1.84-.25-.92-.14c-1.21-.18-2.41-.34-3.6-.54s-2.17-.34-3.25-.55h-.13l-.09,0-.1,0-.89-.16-.13,0-1-.21-.87-.17-.89-.21-.28-.06-.18,0-.21-.05c-.5-.1-1-.22-1.51-.34l-.37-.09-1.16-.3h-.07l-.07,0h-.05c-1.11-.31-2.25-.63-3.41-1l-1.19-.37-1.21-.39-.83-.28c-.94-.32-1.91-.66-2.89-1-2.14-.78-4.38-1.68-6.75-2.71l-1.84-.81-.52-.24-2.64-1.21-.1-.05c-.87-.41-1.75-.83-2.62-1.26l-.6-.29-.53-.26-1.13-.57c-.56-.27-1.11-.56-1.67-.85l-.66-.34-1.84-1-.45-.25-1.88-1-.21-.11c-1.17-.64-2.35-1.29-3.54-2l-.53-.31-.72-.41a4.49,4.49,0,0,1-.47-.26l-1.91-1.1-1.32-.78-.38-.22-.81-.49-.74-.43a.25.25,0,0,1-.08-.05l-.79-.47-1-.57-.65-.39-1.22-.74c-1.12-.67-2.25-1.37-3.41-2.08h0l-.34-.22-2.24-1.38-.15-.09-1.51-.95-1-.61-.91-.57-4.78-3-1.07-.68-1-.64-.89-.58-.57-.35-.09,0-.12-.07-.27-.17-.08-.06-.24-.15-.19-.11-.14-.09-.23-.14-.2-.13h0l0,0-.07,0s0,0,0,0h0l-.43-.27-1-.62-1.6-1-1.48-.95-3.17-2-.33-.2-.4-.26-.53-.33-1.17-.73h0q-.68-.42-1.35-.87l-.69-.44L228.9,467l-.42-.26-.67-.43-.68-.43-.48-.29-.28-.18-1.72-1.08-1-.61-1-.6-1.12-.71-1.14-.71q-5.6-3.5-11.78-7.31a1.67,1.67,0,0,0-.28-.18l-.84-.51-1.72-1.06q-5.18-3.19-10.79-6.58c-1.35-.81-2.66-1.61-4-2.39l-1-.6-.39-.24-.08-.05,0,0-.37-.23h0l-3.86-2.32-1-.6-.13-.07-10-5.93-3.14-1.86-2.48-1.47-2.41-1.43h0l-.29.24-.13.11a.27.27,0,0,1-.08.07l-.07.05h0l-.7.6-.11.1a2.35,2.35,0,0,0-.26.22l0,0-.24.21-.63.52-.09.07q-.47.38-1,.84l-.4.33-.22.19-.81.67-.38.31s0,0-.05.05l-.31.26c-.08.05-.15.12-.23.18l-.26.22-.5.42-.12.09c-.13.12-.27.23-.41.34-.51.42-1,.87-1.6,1.32l-1.24,1-4,3.3-.59.47-.06.06,0,0-.27.21-.35.29-.09.07c-.18.14-.37.29-.56.46h0l-.68.55-1.74,1.4-.36.28-.84.68-.49.38-.42.34-.43.34L142.79,448l-1.19.94-.82.64-.32.26c-.52.4-1.05.81-1.58,1.24q-2.9,2.27-5.93,4.59c-.19.15-.38.3-.58.44L130,457.89l-1.18.9-1.19.9L125.88,461c-1.3,1-2.6,1.95-3.92,2.91l-.81.59c-1.35,1-2.71,2-4.06,2.94l-1.48,1.07a.71.71,0,0,1-.14.1l-1.34.94-2.46,1.74c-.31.21-.61.42-.92.65l-1,.7-.71.48-.71.49-2,1.37-.44.3-1.57,1-.13.08-1.43.94c-.92.61-1.84,1.19-2.75,1.77l-1.17.73c-.69.44-1.38.86-2.05,1.27l-1,.63-2,1.16-.71.41c-.82.47-1.62.92-2.41,1.35l-1.05.57-1.33.71-.19.1-.69.35-1.12.56-.26.13-.07,0-.07,0-.29.14h0a.2.2,0,0,0-.08,0l-.12.06-.22.11-.47.21-1.39.62c-.39.17-.78.34-1.16.49l-2,.66-.66.21c-1.77.59-3.5,1.15-5.21,1.7l-3.87,1.24c-2.83.89-5.55,1.75-8.17,2.55l-2.25.69-4.35,1.33-2.1.63-3.38,1-4.84,1.41-1.55.45-.55.15c-2.69.77-5.24,1.47-7.64,2.12l-1.66.45-.36.09c-1.78.47-3.48.92-5.11,1.33l-1.28.33-1,.23-1.52.38-2.09.5q-3,.7-5.56,1.26l-.15,0-.05,0-.12,0-1.32.28-1,.21-1,.2-1,.2-.47.09c-1.71.33-3.27.61-4.69.85l-.76.13-.66.1-.36.05-1,.14-.81.12-.16,0-.15,0-.56.08-.14,0-.48.06H2l-.28,0-1.1.13-.7.08-.66.07-.63.06h0l-.84.09-.21,0-.6.06h0l-.77,0-.74.05h0l-3.16.28-.77.07-.35,0-.45,0-1,.09h0s0,0,0,0l-.22,0-.23,0-.21,0h-.2l-.16,0h0l.06-.11a16,16,0,0,0,.63-1.56c.07-.17.13-.36.2-.56.45-1.33,1.07-3.37,1.84-6.45.14-.53.27-1.1.41-1.7.32-1.32.65-2.81,1-4.48.06-.24.11-.49.16-.75.11-.51.22-1,.33-1.58.06-.27.11-.54.17-.82.38-1.91.79-4,1.22-6.33.13-.7.26-1.42.39-2.15.2-1.11.4-2.26.61-3.46.62-3.6,1.27-7.1,1.94-10.46.34-1.68.67-3.33,1-4.94s.67-3.18,1-4.7c.08-.36-.19-.71-.63-1.06C1.05,446,2.12,436,2.21,435.13a.08.08,0,0,0,0,0v-9.52c0-.31,0-.64,0-1s0-.42,0-.64a2.93,2.93,0,0,1,0-.41c0-.12,0-.24,0-.37a1,1,0,0,0,0-.17l0-.32c0-.12,0-.24,0-.36,0-.4.09-.81.16-1.23s.12-.82.19-1.24.15-.85.23-1.28c0-.18.07-.37.11-.56.13-.68.28-1.38.44-2.09.1-.4.19-.79.28-1.2l.09-.33c.09-.38.19-.76.29-1.14l.12-.42c.14-.53.28-1.06.43-1.59,0-.14.08-.28.11-.42l.06-.2c.08-.27.16-.54.23-.81l.3-1c0-.13.07-.26.11-.38l.06-.18.06-.18v0c.31-1,.64-2.06,1-3.07.18-.53.35-1.06.53-1.58.06-.19.12-.37.19-.55l.18-.52.27-.81c.05-.16.11-.32.17-.48l.27-.77a.24.24,0,0,0,0-.08c2.54-7.13,4.91-12.64,4.91-12.64l11.45-13.53s2.13-8.36,5.44-11.65-2.3-14.16,20.61-25.12a.71.71,0,0,0,.1-.43,3.08,3.08,0,0,1,0-1c-.66-2.22,4.16-3.37,4.16-3.37l-4-1.91,11.34-8.24,0-.15a1.76,1.76,0,0,1,.06-.25l0-.15,0-.09a2.25,2.25,0,0,1,0-.22l.06-.25c0-.17.09-.36.15-.56l.09-.3c0-.14.08-.29.14-.45l.2-.57a5.17,5.17,0,0,1,.18-.51v0s0,0,0-.05l0,0h0a9.65,9.65,0,0,1,.5-1.21c.09-.21.19-.42.29-.62s.22-.4.34-.59l.17-.29.3-.44a6.09,6.09,0,0,1,.66-.75,4.51,4.51,0,0,1,.48-.42l.16-.11c.39-.27,1-.63,1.66-1h0l.14-.09c.5-.3,1.05-.63,1.65-1h0c.48-.28,1-.57,1.51-.86l1.63-.91.42-.24c.42-.22.84-.46,1.26-.69l1.3-.72.36-.19.36-.2,1.05-.57.45-.25,1.77-.95.29-.15.54-.28L83,305h0c-2.55-3.42-3.36-11.47-3.59-17.44v-.12c-.07-1.65-.08-3.13-.08-4.32h0c0-1.71,0-2.77,0-2.77l.34-.12h0l29.38-10.3,13.78,1.92a14,14,0,0,1-.78,1.8c-2,3.71-4.64,8.43-4.64,8.43s1.87.33,2,.85a54.09,54.09,0,0,1-10.93,10.48l-.12.08-1.2.75,0,.05.18.22a19.56,19.56,0,0,0,1.84,1.87c.13.12.26.25.41.37.43.38.91.77,1.44,1.19s1.06.79,1.66,1.21c.93.65,2,1.34,3.2,2.05l1.1.64,1.19.65a103,103,0,0,0,15.67,6.62c.52.2,1.07.38,1.62.56.23.16.47.32.71.5,5.71,4.08,13.33,9.64,21.4,15.59l7,5.18,4.65,3.45,4.61,3.42,3.39,2.52,4.58,3.42,2.11,1.57,2.05,1.53,3.13,2.34,2.93,2.19,2.7,2,1.25.94,3.33,2.49c.33.25.65.48.95.72l2,1.5.33.25,1.3,1,.33.24.36.27c18-5.65,23.62-6.22,63.34-22.68l36.56-5.56.15-.17.05-.05.39-.45c.11-.11.22-.24.34-.38l1.53-1.71.31-.35c1.12-1.25,2.51-2.82,4.07-4.58.15-.17.31-.34.46-.52l2.42-2.72,1.73-1.95,6.55-7.41,1.57-1.78c1.93-2.2,3.71-4.23,5.17-5.91l.38-.44a24,24,0,0,0,1.51-1.93,11.13,11.13,0,0,0,1.06-2.07,45.13,45.13,0,0,0-4.95-3.35c-5.53-4-9.57-18.34-11.92-30.66l10.83-3.26s33.62,16.07,37,26c2.23,6.65,11,11.73,9.55,20.35-.34,2.2-.67,4-.93,5.31v0c-.22,1.21-.37,1.91-.37,1.91a5.1,5.1,0,0,1,1.42-.12C373.75,316.38,374.85,316.8,374.63,318.49Z" />
      <path class="BUNTAI_BEAR_OUTFIT_BEAR_OUTFIT_13_cls-3" d="M464.75,533.67v4.44H-11.4l6.81-27.27v0l1.53-.11c8.38-.74,27.24-2.92,85.14-21.93,26.2-10.58,84.12-60,84.12-60Q178.93,436.32,195,446c51.09,30.87,73.53,47.86,98.86,58.81s35.23,7,67.6,15c4.79-.49,12.66-3.26,21.35-7.11h0a273.87,273.87,0,0,0,24.52-12.45c9.08-5.18,24.78-10.55,36.67-14.22,0,0,12.66,25.75,15.84,35.35S464.75,533.67,464.75,533.67Z" />
      <path class="BUNTAI_BEAR_OUTFIT_BEAR_OUTFIT_13_cls-4" d="M379.32,482.75c4.41-15.89,5.72-40.91,4.62-64.85s-14.8-37-14.8-37c-4.1.38-8.72.74-13.61,1.1a73.7,73.7,0,0,1,11.24,34.26c1.1,19.54,1.1,51.88-5.61,65s-11.34,15.35-8.7,23,9,15.51,9,15.51h0c4.79-.49,12.66-3.26,21.35-7.11L376,509.79C365.45,501.39,367.87,499.93,379.32,482.75Z" />
      <ellipse class="BUNTAI_BEAR_OUTFIT_BEAR_OUTFIT_13_cls-4" cx="117.03" cy="386.62" rx="26.94" ry="27.39" />
      <path class="BUNTAI_BEAR_OUTFIT_BEAR_OUTFIT_13_cls-2" d="M458.8,473.79c-.44-1.64-5.94-11.7-10.78-19.92s-17.16-37.63-20-44-16.46-23-16.46-23,.84-6-.26-7.66-6.88-7.13-6.88-7.13-8.31-8.22-7.44-12.77,0-20.11,0-20.11-5.5-6.93-11.89-8.22-10.4-12.43-10.4-12.43h0c-.4,2.95-12.43,14.86-12.43,14.86s-49,21.27-57.33,24.42-18.25,3.4-27.59,3.69c-.83,0-1.78.07-2.79.13h0c-.57.23-9.69,3.94-14.48,6a353,353,0,0,0-55.41,30.71c26.48-4.11,90.42-10.13,114.86-13.15,10.89-1.34,24.25-2.31,36.09-3.2,4.89-.36,9.51-.72,13.61-1.1,0,0,13.7,13.07,14.8,37s-.21,49-4.62,64.85c-11.45,17.18-13.87,18.64-3.29,27l6.82,2.93h0a273.87,273.87,0,0,0,24.52-12.45c9.08-5.18,24.78-10.55,36.67-14.22,9-2.78,15.84-4.59,15.84-4.59S459.25,475.44,458.8,473.79Z" />
      <path class="BUNTAI_BEAR_OUTFIT_BEAR_OUTFIT_13_cls-5" d="M195,446a502,502,0,0,1-33.6,40C140.57,471.92,130,457.89,130,457.89c19.54-14.83,36.25-29.09,36.25-29.09Q178.93,436.32,195,446Z" />
      <path class="BUNTAI_BEAR_OUTFIT_BEAR_OUTFIT_13_cls-6" d="M143.73,383.06h0l29.07-3a67.78,67.78,0,0,1,7.81-9l.07,0c.39-.39.83-.78,1.23-1.13a22.74,22.74,0,0,1,3.76-2.73h0a9.1,9.1,0,0,1,.93-.45h0c2.79-1.25,8.88-3.12,18-6,18-5.65,23.62-6.22,63.34-22.68l36.56-5.56.15-.17.05-.05.39-.45c.11-.11.22-.24.34-.38l1.53-1.71.31-.35c1.12-1.25,2.51-2.82,4.07-4.58.15-.17.31-.34.46-.52l2.42-2.72,1.73-1.95,6.55-7.41,1.57-1.78c1.93-2.2,3.71-4.23,5.17-5.91l.38-.44a24,24,0,0,0,1.51-1.93,11.13,11.13,0,0,0,1.06-2.07c3-7.45,2.09-21.9,2.09-21.9" />
      <path class="BUNTAI_BEAR_OUTFIT_BEAR_OUTFIT_13_cls-6" d="M204.58,360.75s-20.13-15.14-40-29.85c-2.35-1.73-4.68-3.47-7-5.17-8.07-6-15.69-11.51-21.4-15.59l-.71-.51c-.55-.18-1.1-.36-1.63-.55a102.85,102.85,0,0,1-15.66-6.62c-6.53-3.52-9.66-6.52-11.06-8.26a7.21,7.21,0,0,1-1-1.55s-3.47-10-.73-14.46" />
      <path class="BUNTAI_BEAR_OUTFIT_BEAR_OUTFIT_13_cls-6" d="M274.47,361.6c-10.31.68-28.36,3.26-28.36,3.26" />
      <path class="BUNTAI_BEAR_OUTFIT_BEAR_OUTFIT_13_cls-6" d="M274.5,361.59c1-.06,2-.1,2.78-.13l1.32,0,.44,0,.84,0h.84l.62,0,.62,0,1.86-.08,1.3-.06,1-.06.39,0,.57,0,2.58-.19.38,0,.36,0,.51,0,.17,0,.68-.07,1.16-.14.21,0,.29,0h.1l.36-.05H294l.27,0,.15,0,.3-.05c.51-.07,1-.15,1.52-.24l.75-.12.75-.14c.49-.09,1-.2,1.48-.32.34-.07.7-.15,1-.24h0l.45-.12.21-.06.11,0,.32-.09.85-.24.08,0,.77-.24.16,0,.74-.25c.32-.1.63-.21.94-.33.78-.29,1.92-.75,3.35-1.33l.73-.3,1.61-.66.86-.36h0l1.83-.77,4.1-1.72,3.35-1.42,1.16-.49.22-.1c.47-.2.94-.39,1.41-.6l.75-.31.46-.2,3.21-1.37,2.49-1.06,1.26-.54,3.6-1.54,5.11-2.2.75-.33,1.42-.61,1.41-.61,1.17-.5,2.26-1,1.09-.48c.72-.3,1.43-.61,2.11-.91,1.71-.73,3.29-1.41,4.69-2h0l3-1.31.45-.19.19-.08.41-.18.18-.08.21-.09.2-.09.06,0,.54-.23,1.65-.71,0,0,.49-.49.27-.27.7-.72c.19-.19.4-.4.6-.62l.13-.13a.6.6,0,0,0,.11-.12c.16-.15.31-.31.46-.47v0c.16-.15.32-.31.47-.47l1-1.07,1.16-1.25c.37-.41.76-.82,1.14-1.25.57-.64,1.15-1.29,1.7-1.93l0,0a.35.35,0,0,0,.1-.12.41.41,0,0,0,.09-.1l.35-.42h0a2.64,2.64,0,0,0,.32-.37.28.28,0,0,0,.07-.09.34.34,0,0,0,.06-.06l.07-.09c.18-.21.34-.41.49-.61.61-.76,1.14-1.47,1.56-2.1a.25.25,0,0,0,0-.07,4.81,4.81,0,0,0,.27-.41l.09-.16a1.74,1.74,0,0,0,.11-.18l0-.05s0,0,0-.05l.14-.26,0-.05.05-.09a1,1,0,0,1,0-.1h0l.09-.24c0-.06,0-.11.05-.16a0,0,0,0,1,0,0,.5.5,0,0,1,0-.12,0,0,0,0,0,0,0v0h0c.22-1.69-.88-2.11-1.87-2.15a5.1,5.1,0,0,0-1.42.12s.15-.7.37-1.91v0c.26-1.27.59-3.11.93-5.31,1.42-8.62-7.32-13.7-9.55-20.35-3.34-10-37-26-37-26l-10.83,3.26" />
      <path class="BUNTAI_BEAR_OUTFIT_BEAR_OUTFIT_13_cls-6" d="M110.38,320.05l-1.6-.76-.27-.12-.65-.32c-4-2-12.3-6.09-19.69-10.55l-.15-.09c-1.75-1.07-3.45-2.15-5-3.22h0c-2.55-3.42-3.36-11.47-3.59-17.44v-.12c-.07-1.65-.08-3.13-.08-4.32h0c0-1.71,0-2.77,0-2.77l.34-.12h0l29.38-10.3,13.78,1.92" />
      <path class="BUNTAI_BEAR_OUTFIT_BEAR_OUTFIT_13_cls-6" d="M48,362l-23.3,12.06s2.13-8.36,5.44-11.65-2.3-14.16,20.61-25.12l.76-.36a2.72,2.72,0,0,1-.66-1c-.66-2.22,4.16-3.37,4.16-3.37l-4-1.91,11.34-8.24,0-.15a1.76,1.76,0,0,1,.06-.25l0-.15c0-.09,0-.2.08-.31a1.29,1.29,0,0,1,.06-.25c0-.17.09-.36.15-.56s0-.2.09-.3.08-.29.14-.45a18.64,18.64,0,0,1,1.22-3,9.59,9.59,0,0,1,.51-.88l.3-.44a6.09,6.09,0,0,1,.66-.75,3.72,3.72,0,0,1,.48-.41l.16-.12c.39-.27,1-.63,1.66-1h0l.14-.08c.5-.3,1.05-.63,1.65-1h0c.48-.28,1-.57,1.51-.86s1.07-.61,1.63-.91l.42-.24,1.26-.69,1.3-.72.72-.39,1.05-.57.45-.25,1.77-.95C81.73,305.64,83,305,83,305h0" />
      <path class="BUNTAI_BEAR_OUTFIT_BEAR_OUTFIT_13_cls-6" d="M153.65,362.52c-3.6,1.51-10.34,3.77-16.59,5.78" />
      <path class="BUNTAI_BEAR_OUTFIT_BEAR_OUTFIT_13_cls-6" d="M185.68,367.19h0c-.27-.19-3.43-2.57-8.07-5.71-8.43-5.7-21.73-13.91-31.23-16.12-15-3.47-44.05,6.58-52.85,1.64S55,332.51,55,332.51" />
      <path class="BUNTAI_BEAR_OUTFIT_BEAR_OUTFIT_13_cls-6" d="M382.85,512.72c-8.69,3.85-16.56,6.62-21.35,7.11-32.37-8-42.28-4-67.6-15-17.89-7.73-34.35-18.48-60.48-35C222.56,463,210,455.08,195,446q-16.09-9.74-28.83-17.22c-14.65-8.62-26-15.1-33.93-19.6" />
      <path class="BUNTAI_BEAR_OUTFIT_BEAR_OUTFIT_13_cls-6" d="M374.64,318.49s4,11.16,10.4,12.43,11.89,8.22,11.89,8.22.89,15.54,0,20.11S404.37,372,404.37,372s5.76,5.49,6.88,7.13.26,7.66.26,7.66,13.62,16.63,16.46,23,15.2,35.81,20,44,10.34,18.28,10.78,19.92,1.1,7.67,1.1,7.67-6.82,1.81-15.84,4.59c-11.89,3.67-27.59,9-36.67,14.22a273.87,273.87,0,0,1-24.52,12.45" />
      <path class="BUNTAI_BEAR_OUTFIT_BEAR_OUTFIT_13_cls-6" d="M24.67,374.05,13.22,387.58s-2.37,5.51-4.91,12.64a.24.24,0,0,1,0,.08l-.27.77c-.06.16-.12.32-.17.48-.15.44-.31.88-.45,1.33-.07.18-.13.36-.19.55-.18.52-.36,1.05-.53,1.58-.33,1-.66,2-1,3.07l-.06.2-.06.18c0,.12-.08.25-.11.38-.18.59-.36,1.19-.53,1.79l-.06.2q-.34,1.21-.66,2.43c-.1.38-.2.76-.29,1.14s-.25,1-.37,1.53c-.16.71-.31,1.41-.44,2.09a46.71,46.71,0,0,0-.74,4.67c0,.29-.06.58-.08.86a2.93,2.93,0,0,0,0,.41c0,.22,0,.43,0,.64s0,.66,0,1v9.5" />
      <path class="BUNTAI_BEAR_OUTFIT_BEAR_OUTFIT_13_cls-6" d="M-4.58,510.82l1.53-.11c8.38-.74,27.24-2.92,85.14-21.93,12.13-4.9,31.05-18.11,47.87-30.89,19.54-14.83,36.25-29.09,36.25-29.09" />
      <path class="BUNTAI_BEAR_OUTFIT_BEAR_OUTFIT_13_cls-6" d="M404.37,372s-14.92,3.59-19.21,6.33c-1.6,1-7.71,1.81-16,2.55-4.1.38-8.72.74-13.61,1.1-11.84.89-25.2,1.86-36.09,3.2-11.35,1.39-31.19,3.45-51.86,5.65-23.86,2.54-48.81,5.3-63,7.5A353,353,0,0,1,260,367.64c4.79-2.1,13.91-5.81,14.48-6h0" />
      <path class="BUNTAI_BEAR_OUTFIT_BEAR_OUTFIT_13_cls-6" d="M369.14,380.9s13.7,13.07,14.8,37-.21,49-4.62,64.85c-11.45,17.18-13.87,18.64-3.29,27l6.82,2.93h0" />
      <path class="BUNTAI_BEAR_OUTFIT_BEAR_OUTFIT_13_cls-6" d="M19.53,437.27S8.67,434.8,30.79,424.74c15.3-7,45.39-18.59,62.54-25.12" />
      <line class="BUNTAI_BEAR_OUTFIT_BEAR_OUTFIT_13_cls-6" x1="90.1" y1="386.51" x2="38.4" y2="398.35" />
      <line class="BUNTAI_BEAR_OUTFIT_BEAR_OUTFIT_13_cls-6" x1="92.48" y1="375.4" x2="68.45" y2="368.98" />
      <path class="BUNTAI_BEAR_OUTFIT_BEAR_OUTFIT_13_cls-6" d="M362.2,333.35s15.49-3.93,23.63,0" />
      <path class="BUNTAI_BEAR_OUTFIT_BEAR_OUTFIT_13_cls-6" d="M355.53,382a73.7,73.7,0,0,1,11.24,34.26c1.1,19.54,1.1,51.88-5.61,65s-11.34,15.35-8.7,23,9,15.51,9,15.51" />
      <path class="BUNTAI_BEAR_OUTFIT_BEAR_OUTFIT_13_cls-6" d="M143.73,383.06a24.66,24.66,0,0,1,.24,3.56,27.47,27.47,0,0,1-11.69,22.58A26.51,26.51,0,0,1,117,414a26.85,26.85,0,0,1-23.7-14.38,27.48,27.48,0,0,1-3.23-13v-.11a27.62,27.62,0,0,1,2.38-11.11,26.69,26.69,0,0,1,44.58-7.1A27.43,27.43,0,0,1,143.73,383.06Z" />
      <g class="BUNTAI_BEAR_OUTFIT_BEAR_OUTFIT_13_cls-7">
        <path d="M135.49,309.63l.71.51-2.34-1.06C134.39,309.27,134.94,309.45,135.49,309.63Z" />
        <path d="M157.6,325.73c-.36.63-.58,1-.58,1L136.2,310.14C141.91,314.22,149.53,319.78,157.6,325.73Z" />
        <path d="M79.31,286.52s1.28,16.91,5.8,19.78,31,18.16,55.56,27.07c-33.43-19.21-46.44-29.83-49.73-33.06L109.54,311s-27.86-23.29-30.23-31.82Z" />
        <path d="M371.71,314.52c-39.68,28.17-54.16,29.93-47.18,27.81-17.78,5.4-53.82,11.43-53.82,11.43l-36.09,7.71,59.28-9.72-21.73,9L260,367.64,241.25,380s47.61-14,58.66-15.2,14.56-3.48,34.29-8.5,38.89-16.76,45.41-17,10.63,10.59,10.63,10.59-1.34-9.92-6.77-12.29c-14.7-6.39,13-1.26.84-7.91-4.44-2.43-10.29-11.16-10.29-11.16Z" />
        <path d="M219.14,396.34s74.52-.36,101.44,0,40.51,2,40.51,2l38.79,17.44,31.86,7.54L395.39,406.5,394,398.35H412l8.24-.29-7.69-10.22-1.34-8.69L404.37,372l-20.9,7.43s-34.11,2.85-84.32,8S219.14,396.34,219.14,396.34Z" />
        <path d="M143.73,389.51s114.48,57.18,116.56,57.3-112-44.08-112-44.08l-7.57-3A20.32,20.32,0,0,0,143.73,389.51Z" />
        <path d="M93.57,400.06S30.79,424.74,17,436c-3.62-4,7.12-17.54,64.76-39.28,6.62-2.63,7.41-4.27,7.41-4.27a168.57,168.57,0,0,0-56.34,8.67,238.45,238.45,0,0,1-27.2,7.36s36.49-16.95,53.78-21.95S83,378.37,83,378.37l5.65-3,3.63.46S86.57,389.51,93.57,400.06Z" />
        <path d="M180.69,371.05l-.07,0s-12.45-6.36-19.36-11.85-32.28-6.06-34.19-6-30.37,6.1-41.41-.43S42.79,341.9,42.79,341.9l5-2.38s2.4-1.25,2.94-2.24a.71.71,0,0,0,.1-.43,3.08,3.08,0,0,1,0-1c.49-2.63,4.83-3.13,4.83-3.13s19.48,8.11,35.71,13.12c2,.62,3.9,1.18,5.74,1.68,14.33,2.41,19.2-4.93,38.8-3.69a37.18,37.18,0,0,1,5.59.82c11.62,2.53,25.19,10.07,34.4,15.63l.08.06c5.92,3.56,10,6.3,10.64,6.35h0C188.19,366.89,181.46,370.63,180.69,371.05Z" />
        <path d="M71.59,312.21s-1.12,7.26,3.58,10.15,41.74,12.52,49.9,14.67C88.75,334.8,53,329.25,53,329.25l9.58-6.16.85-4.3,5.49-6.58Z" />
        <path d="M164.71,428.8l19.61,10.77s-50,43.78-68.52,58.35-46.68,21.91-46.68,21.91-44,15.26-48,15.76-25.71,3.77-25.71,3.77-6.81-1.3-6.59-2.18S-3,510.71-3,510.71s65.34-8.31,95.31-27.25S164.71,428.8,164.71,428.8Z" />
        <path d="M206.05,400.56s-.33.21,45.78,8.64,62.91,10.68,62.41,10.89-45.94-15.85-51.87-17.86-13.51-8.37-13.51-8.37l-34.2,3.06-10.08,2.13Z" />
      </g>
      <path class="BUNTAI_BEAR_OUTFIT_BEAR_OUTFIT_13_cls-6" d="M330.8,271.41s14.74,9.85,16.91,14.83-11.45,19.87-11.45,19.87-26.72,24.51-30.18,26.4S286,343.78,272.73,347.13,213,371.08,213,371.08" />
      <line class="BUNTAI_BEAR_OUTFIT_BEAR_OUTFIT_13_cls-6" x1="109.8" y1="292.56" x2="107.36" y2="294.48" />
      <path class="BUNTAI_BEAR_OUTFIT_BEAR_OUTFIT_13_cls-6" d="M315.3,266.09c2.35,12.32,6.39,26.64,11.92,30.66l4.95,3.35" />
      <path class="BUNTAI_BEAR_OUTFIT_BEAR_OUTFIT_13_cls-6" d="M107.18,294.26c.37-.25.76-.51,1.16-.8l.12-.08a54.09,54.09,0,0,0,10.93-10.48c-.08-.52-2-.85-2-.85s2.62-4.72,4.64-8.43a14,14,0,0,0,.78-1.8" />
    </g>
  </g>
</svg>