<svg xmlns="http://www.w3.org/2000/svg" viewBox="0 0 432 432">
  <defs>
    <style>.BUNTAI_BEAR_OUTFIT_BEAR_OUTFIT_34_cls-1{isolation:isolate;}.BUNTAI_BEAR_OUTFIT_BEAR_OUTFIT_34_cls-2{fill:#9cafcf;}.BUNTAI_BEAR_OUTFIT_BEAR_OUTFIT_34_cls-3{fill:#80268c;}.BUNTAI_BEAR_OUTFIT_BEAR_OUTFIT_34_cls-4{fill:#77459d;}.BUNTAI_BEAR_OUTFIT_BEAR_OUTFIT_34_cls-5{fill:#e3d348;}.BUNTAI_BEAR_OUTFIT_BEAR_OUTFIT_34_cls-6,.BUNTAI_BEAR_OUTFIT_BEAR_OUTFIT_34_cls-7,.BUNTAI_BEAR_OUTFIT_BEAR_OUTFIT_34_cls-8,.BUNTAI_BEAR_OUTFIT_BEAR_OUTFIT_34_cls-9{fill:none;}.BUNTAI_BEAR_OUTFIT_BEAR_OUTFIT_34_cls-7,.BUNTAI_BEAR_OUTFIT_BEAR_OUTFIT_34_cls-8,.BUNTAI_BEAR_OUTFIT_BEAR_OUTFIT_34_cls-9{stroke:#000;stroke-linecap:round;stroke-linejoin:round;}.BUNTAI_BEAR_OUTFIT_BEAR_OUTFIT_34_cls-7{stroke-width:1.97px;}.BUNTAI_BEAR_OUTFIT_BEAR_OUTFIT_34_cls-8{stroke-width:1.93px;}.BUNTAI_BEAR_OUTFIT_BEAR_OUTFIT_34_cls-9{stroke-width:2.14px;}.BUNTAI_BEAR_OUTFIT_BEAR_OUTFIT_34_cls-10{opacity:0.43;mix-blend-mode:multiply;}</style>
  </defs>
  <g class="BUNTAI_BEAR_OUTFIT_BEAR_OUTFIT_34_cls-1">
    <g id="outfit">
      <path class="BUNTAI_BEAR_OUTFIT_BEAR_OUTFIT_34_cls-2" d="M89.12,461.11H-15.51c3-4.76,6.44-10.15,9.27-14.31C.22,437.26,6.23,408.19,9.4,396.57c1.13-4.13,4.39-9.14,6-15l.94.58c1.59,1,5.1,2.24,6.86,3.2,1.27.69,2.72,1.53,4.31,2.51l1.4.87c.72.45,1.46.92,2.22,1.42l1.55,1,1.6,1.08c.81.55,1.64,1.12,2.47,1.71l1.7,1.2.86.62q1.72,1.24,3.48,2.57l.89.67,1.37,1.05h0a181.24,181.24,0,0,1,15.2,13.05l1.38,1.35c.51.52,1,1,1.52,1.55.74.77,1.47,1.55,2.16,2.32.46.51.92,1,1.36,1.54s.87,1,1.29,1.53l.61.77q1.42,1.79,2.6,3.53v0c.22.31.42.62.62.93v0h0q.12.92.27,1.83c.1.62.21,1.23.33,1.84s.24,1.17.38,1.75c0,0,0,.05,0,.08.06.3.14.59.21.89.13.5.26,1,.4,1.49.08.26.15.51.22.76l0,.1c.09.3.18.59.28.89s.17.53.26.79l0,.09c0,.16.1.32.16.48.12.34.24.69.37,1,.32.85.65,1.69,1,2.53l.21.5.45,1,.12.26c.12.25.23.49.35.73s.25.52.38.77a1.47,1.47,0,0,1,.1.22l.09.17c.49,1,1,1.93,1.56,2.87.17.31.34.61.53.91a.05.05,0,0,1,0,0c.35.6.72,1.19,1.1,1.77s.66,1,1,1.52a.09.09,0,0,0,0,.05,3,3,0,0,0,.2.29l.1.15c.28.4.56.8.85,1.19s.5.69.77,1,.43.57.66.86l0,.05a.47.47,0,0,0,.09.12l.17.21.08.1a2.09,2.09,0,0,0,.23.29c.36.46.73.91,1.12,1.36s.68.81,1,1.2l0,.05,0,0,0,0q.39.45.81.9a.27.27,0,0,0,.07.08l.15.16c.19.21.38.42.58.62h0a2.4,2.4,0,0,0,.22.24Z" />
      <path class="BUNTAI_BEAR_OUTFIT_BEAR_OUTFIT_34_cls-2" d="M449,461.11h-83.1A65.2,65.2,0,0,0,380.47,421l.91-1c3.76-4.09,18.41-19.79,26.23-25.28a24.49,24.49,0,0,1,2.24-1.42h0a71.91,71.91,0,0,1,7.86-3.86c.9,4.34,1.79,8.74,2.37,12C421.69,410.28,428.67,441.2,449,461.11Z" />
      <path class="BUNTAI_BEAR_OUTFIT_BEAR_OUTFIT_34_cls-3" d="M72.92,406.34h0c-.06.28-.12.55-.17.83-.18.81-.34,1.63-.47,2.44L72,411.15l0,.19a0,0,0,0,1,0,0,3.62,3.62,0,0,0-.06.46,4.63,4.63,0,0,0-.07.52c0,.37-.1.74-.13,1.11s-.07.63-.09,1,0,.39,0,.58h0a0,0,0,0,0,0,0h0v.09a0,0,0,0,0,0,0,0,0,0,0,0,0,0s0,0,0,0v0c0,.27,0,.53-.06.8a1.48,1.48,0,0,1,0,.21.45.45,0,0,0,0,.11c0,.39,0,.77-.05,1.16l0,.52v.41c0,.7,0,1.39,0,2.08,0,.23,0,.46,0,.69v0a0,0,0,0,0,0,0,0,0,0,0,0,0,0,0,0,0,0,0,0,0,.21.21,0,0,0,0,.11,1,1,0,0,0,0,.24s0,0,0,0a0,0,0,0,0,0,0c0,.49,0,1,.07,1.46a0,0,0,0,0,0,0c0,.45,0,.9.1,1.35l0,.36a1.64,1.64,0,0,0,0,.23c0,.51.11,1,.17,1.52v0c-.2-.31-.4-.62-.62-.93v0Q70,424,68.61,422.2l-.61-.77q-.63-.76-1.29-1.53c-.44-.51-.9-1-1.36-1.54-.69-.77-1.42-1.55-2.16-2.32-.5-.52-1-1-1.52-1.55l-1.38-1.35a181.24,181.24,0,0,0-15.2-13.05h0L43.71,399l-.89-.67q-1.76-1.32-3.48-2.57l-.86-.62-1.7-1.2c-.83-.59-1.66-1.16-2.47-1.71l-1.6-1.08-1.55-1c-.76-.5-1.5-1-2.22-1.42l-1.4-.87c-1.59-1-3-1.82-4.31-2.51-1.76-1-5.27-2.23-6.86-3.2l-.94-.58h0c.63-2.23,3.07-4.16,3.67-6.29.72-2.54,1.41-4.94,2-7,.79.48,1.58,1,2.38,1.42l.12.07.14.09c1,.59,2,1.16,3,1.73,3,1.66,6,3.28,9,4.92l3.35,1.82c.66.36,1.32.72,2,1.09h0l.47.27c1.64.91,3.26,1.83,4.87,2.78l2.38,1.43h0c.78.49,1.57,1,2.34,1.47h0l2.09,1.37c.9.6,1.78,1.21,2.65,1.83.68.49,1.36,1,2,1.49h0c.73.55,1.44,1.11,2.14,1.68.52.41,1,.83,1.52,1.27s.73.63,1.09.95.64.56.95.87l.52.48,1.27,1.24a50.39,50.39,0,0,1,5.65,6.85c.65,1,1.27,1.94,1.84,2.94Z" />
      <path class="BUNTAI_BEAR_OUTFIT_BEAR_OUTFIT_34_cls-3" d="M417.73,389.46a71.91,71.91,0,0,0-7.86,3.86h0a24.49,24.49,0,0,0-2.24,1.42c-7.82,5.49-22.47,21.19-26.23,25.28l-.91,1c0-.53,0-1.07,0-1.6v0c0-.32,0-.63,0-.94,0-.87,0-1.74-.1-2.6v0c0-.24,0-.49,0-.73,0-.7-.09-1.39-.16-2.08,0-.33-.06-.66-.11-1s0-.43-.07-.65a.39.39,0,0,0,0-.15c-.12-1.08-.27-2.15-.45-3.22-.09-.55-.19-1.11-.29-1.66h0c.11-.22.21-.46.33-.68h0a48.41,48.41,0,0,1,6.92-10.38c.54-.61,1.09-1.22,1.65-1.81.28-.3.57-.59.86-.88s.58-.58.87-.86c.57-.57,1.16-1.14,1.76-1.69,6.88-6.3,14.89-11.25,22.68-16.42l.12.32s.6,2.74,1.44,6.63l.12.59C416.51,383.64,417.13,386.53,417.73,389.46Z" />
      <path class="BUNTAI_BEAR_OUTFIT_BEAR_OUTFIT_34_cls-4" d="M386.51,345.51c-.1.2-.2.41-.29.61s-.25.54-.37.81c-.22.48-.43,1-.64,1.44s-.42,1-.62,1.44c-1,2.41-2,4.86-2.8,7.35-.28.83-.56,1.68-.83,2.52q-.87,2.77-1.6,5.59c-.12.46-.24.91-.35,1.37-.23,1-.47,2-.68,3-.14.62-.27,1.22-.38,1.83s-.3,1.52-.43,2.29c-.07.4-.14.79-.2,1.19-.51,3-.88,6-1.14,9-.06.7-.11,1.38-.16,2.06s-.08,1.38-.13,2.07c-.07,1.38-.11,2.76-.13,4.14h0c0,.37,0,.73,0,1.1v.19c.19.52.37,1.05.55,1.58,0,.16.11.31.16.47l.06.17c.1.31.2.63.29.94.34,1.06.65,2.13.94,3.19,0,.1.06.21.09.31a1.6,1.6,0,0,1,.05.21q.18.66.33,1.32t.36,1.5c.24,1,.46,2.09.65,3.14h0c.1.55.2,1.11.29,1.66l.24,1.59c.08.54.15,1.09.21,1.63,0,0,0,.1,0,.15.07.55.13,1.09.18,1.64,0,.23,0,.47.06.7s0,.52.06.78a2.11,2.11,0,0,1,0,.26c0,.11,0,.22,0,.34a3.4,3.4,0,0,1,0,.45c0,.15,0,.3,0,.45,0,.46.05.93.06,1.39s0,.72,0,1.07,0,.62,0,.94c0,0,0,0,0,0,0,.54,0,1.07,0,1.61a65.2,65.2,0,0,1-14.62,40.09l-.13.16c-.29.37-.59.73-.88,1.08-.11.14-.22.28-.34.41s-.14.17-.22.25c-.63.74-1.27,1.47-1.93,2.17-.11.14-.23.26-.35.39l-.37.38c-.85.89-1.72,1.76-2.62,2.6-.34.33-.69.66-1.05,1s-1,.89-1.5,1.32-1.13.95-1.7,1.41-1.15.91-1.74,1.35-1,.75-1.53,1.11c-1,.71-2,1.39-3,2l-.84.52-.85.51c-.59.35-1.19.68-1.79,1l-.27.14-.52.28c-.6.32-1.2.63-1.81.93-.28.14-.57.28-.85.4-.46.22-.91.44-1.37.64l-.15.07c-.24.11-.49.23-.74.33l-.29.12-.05,0-.91.39-.06,0c-.59.24-1.18.48-1.77.7s-1.35.5-2,.74l-1.07.35-.54.17,0,0-.15.05-1.08.33-.11,0-.81.24-.81.23-.11,0-.23.07-1.32.33c-.68.18-1.36.34-2.05.48l-1,.22-1.51.29-.89.16c-.43.08-.86.15-1.3.21l-.72.11-.7.1-1.08.14-.58.07-.51.06-1.86.19c-.55,0-1.12.09-1.68.12l-.31,0-1.55.06-1,0c-1.4,0-2.79,0-4.19,0l-1,0c-.49,0-1,0-1.46-.06-2.18-.12-4.33-.34-6.49-.62l-1.57-.22-.7-.1-.59-.1-.82-.13-.95-.18c-.73-.14-1.45-.3-2.18-.45-18.71-4.08-36-14.25-50.33-27.63h-.36l0,0-.07.06-1.55,1.16c-1.1.82-2.21,1.63-3.34,2.44q-1.42,1-2.88,2c-.92.62-1.85,1.23-2.78,1.83l-1.5.95-1.82,1.12c-.64.39-1.28.78-1.93,1.15s-1.18.69-1.77,1-1.47.83-2.21,1.23l-1.54.83c-.64.34-1.28.68-1.93,1l-1.93,1c-.84.41-1.68.82-2.53,1.21-.6.29-1.2.56-1.8.82-1.95.9-3.94,1.74-5.95,2.54-.54.23-1.1.44-1.65.65l-.54.2-.27.1-.27.11-1,.36c-1,.36-2,.72-3,1.06l-1.7.57-1.58.49-1.35.41c-.74.23-1.5.45-2.26.65l-.5.13-1.14.31-.47.13-.22.06-1,.26h0l-1,.25-1.07.25c-.66.16-1.31.3-2,.44-1.45.32-2.91.61-4.37.87s-3.2.55-4.82.77l-.79.11-.32,0-.23,0-1.8.21c-.61.06-1.21.13-1.83.18l-1.32.11-.88.08-.91.07c-1.15.08-2.31.14-3.49.19s-2.32.08-3.49.1c-1.33,0-2.67,0-4,0l-1.07,0-2.09-.06c-.39,0-.78,0-1.16-.06l-.73,0c-1.23-.08-2.46-.19-3.69-.3l-.77-.07-1.48-.16-1.56-.2-2.06-.28c-.87-.13-1.74-.27-2.6-.42s-1.73-.31-2.59-.48l-.34-.06-.47-.1-.12,0-1.53-.33-.92-.21c-.78-.18-1.56-.37-2.33-.57h-.05l-2.26-.61-.83-.24c-.86-.25-1.72-.51-2.57-.78l-.11,0c-.89-.29-1.78-.59-2.66-.9q-2.42-.85-4.78-1.84c-.39-.16-.77-.32-1.16-.5s-.57-.23-.84-.36l-.33-.15c-.77-.35-1.54-.7-2.31-1.07-1.1-.53-2.18-1.08-3.24-1.66-.44-.24-.88-.48-1.31-.73s-.74-.41-1.1-.63l-1.55-.92q-.78-.46-1.53-1c-.58-.37-1.15-.75-1.72-1.14l-1.23-.85c-.46-.32-.91-.65-1.36-1l-1.34-1c-.88-.67-1.75-1.37-2.6-2.09L94,465.73c-.62-.55-1.24-1.1-1.84-1.66s-1.2-1.14-1.79-1.72c-.42-.41-.83-.82-1.23-1.24l0-.05-.12-.14-.11-.1a1.8,1.8,0,0,1-.19-.2l-.39-.42a1.8,1.8,0,0,1-.19-.21c-.29-.3-.56-.62-.84-.93l0,0,0,0a.08.08,0,0,1,0-.05c-.35-.39-.7-.79-1-1.2s-.76-.9-1.12-1.36c-.08-.1-.16-.19-.23-.29l-.08-.1a1.15,1.15,0,0,1-.14-.17l0,0a.47.47,0,0,1-.09-.12h0s0,0,0-.05a.9.9,0,0,1-.15-.19c-.16-.2-.31-.38-.45-.57a.37.37,0,0,1-.06-.1c-.15-.18-.28-.36-.42-.55l-.35-.48c-.29-.39-.57-.79-.85-1.19l-.1-.15h0l-.19-.29,0-.05a.1.1,0,0,1,0,0c-.33-.49-.66-1-1-1.47s-.66-1-1-1.55a.75.75,0,0,0-.07-.12h0c-.2-.34-.4-.69-.59-1-.55-.94-1.07-1.9-1.56-2.87a1.3,1.3,0,0,1-.08-.17h0a1.47,1.47,0,0,0-.1-.22l0-.06a1.15,1.15,0,0,1-.12-.25c-.08-.15-.16-.3-.23-.46s-.15-.31-.23-.46l-.12-.27-.12-.26-.45-1-.21-.5c-.36-.84-.69-1.68-1-2.53-.13-.34-.25-.69-.37-1-.06-.16-.11-.32-.16-.48a.11.11,0,0,1,0-.05.05.05,0,0,1,0,0c-.09-.26-.18-.52-.26-.79s-.19-.59-.28-.89l0-.1a1.27,1.27,0,0,1-.06-.18c-.06-.19-.11-.38-.16-.58-.12-.43-.24-.86-.35-1.3s-.18-.72-.26-1.08c0,0,0,0,0-.08-.14-.58-.26-1.16-.38-1.75s-.23-1.22-.33-1.84-.19-1.22-.28-1.84v0s0-.09,0-.13c0-.46-.1-.91-.14-1.37a1.64,1.64,0,0,1,0-.23l0-.36c-.05-.45-.08-.9-.1-1.35s-.06-1-.07-1.49a0,0,0,0,1,0,0s0,0,0,0a.89.89,0,0,1,0-.23.33.33,0,0,1,0-.14,0,0,0,0,1,0,0,0,0,0,0,1,0,0s0,0,0,0v0h0c0-.23,0-.46,0-.68,0-.69,0-1.38,0-2.08,0-.15,0-.31,0-.46s0-.31,0-.47c0-.42,0-.85.06-1.27a1.48,1.48,0,0,0,0-.21c0-.27,0-.53.06-.8v0a.09.09,0,0,1,0,0v0a0,0,0,0,1,0-.05v0h0a0,0,0,0,1,0-.05c0-.1,0-.2,0-.3l0-.28c0-.32,0-.63.09-1,0-.14,0-.27,0-.41s0-.47.08-.7l0-.2c0-.11,0-.22,0-.32a2.51,2.51,0,0,1,0-.27c0-.12,0-.25.05-.37s0-.07,0-.1c.07-.49.15-1,.23-1.47s.19-1.07.3-1.6c0-.28.11-.56.17-.84l.18-.83h0c.09-.38.17-.77.27-1.15l.12-.47c.08-.33.16-.66.25-1s.18-.69.28-1,.23-.82.36-1.23.27-.88.41-1.32c0-.13.08-.26.13-.39s.17-.51.26-.77l.06-.17h0c.09-.26.18-.53.28-.8s.13-.35.19-.53.08-.22.13-.33a.42.42,0,0,1,0-.1c.21-.56.42-1.11.65-1.67s.51-1.25.78-1.87c0,0,0,0,0,0a96.46,96.46,0,0,0-6.31-33.81,102.41,102.41,0,0,0-13.9-25.09c9.88-9.49,28.79-27.25,46.9-42.87l.94-.82.09-.08c.9.6,1.79,1.22,2.68,1.83.32.2.63.42.94.63l.29.19a3.28,3.28,0,0,0,.38.27l.31.22.22.16.3.2,2.84,2,1.41,1,2.55,1.78c1.78,1.26,3.55,2.51,5.31,3.78.61.42,1.22.86,1.82,1.3.3.21.6.42.88.64s.55.39.81.58.63.46,1,.69c.47.33.94.67,1.41,1s1.15.81,1.71,1.24a4.34,4.34,0,0,1,.39.29c.66.47,1.33,1,2,1.45l1.58,1.18.39.28.11.08q1.86,1.37,3.71,2.76l3.2,2.42h0s0,0,0,0a3.63,3.63,0,0,1,.46.34,10.4,10.4,0,0,1,.93.71q2.76,2.09,5.49,4.2a2.39,2.39,0,0,1,.22.16c.28.21.56.42.83.65.46.34.92.69,1.38,1.07a3,3,0,0,1,.46.36s0,0,0,0c1.78,1.36,3.56,2.75,5.32,4.16a1.16,1.16,0,0,1,.25.2c.3.23.61.46.9.71.57.43,1.12.86,1.67,1.32l.29.23q.19.15.39.33c.47.35.93.73,1.4,1.11l1.79,1.44a.21.21,0,0,1,.08.06c.36.28.71.57,1.06.86a.45.45,0,0,1,.14.11c.62.49,1.24,1,1.86,1.51.91.72,1.82,1.47,2.72,2.2,1.67,1.38,3.34,2.75,5,4.15l.61.51a3.75,3.75,0,0,1,.44.37,1.24,1.24,0,0,1,.22.19l0,0a.53.53,0,0,1,.15.11l.54.45c.15.13.32.26.48.41.62.51,1.25,1,1.87,1.58s1.18,1,1.76,1.48l1.38,1.18c.8.67,1.61,1.36,2.41,2.05,1.57,1.34,3.14,2.69,4.69,4.06l.45.39c.13.11.27.22.4.35l1.54,1.36c.22.17.43.36.65.56q1.62,1.41,3.23,2.86l.07.06c1.15,1,2.31,2,3.45,3.08.18.15.37.31.55.49q2.52,2.25,5,4.52l.77.71c2,1.86,4.06,3.74,6.08,5.62a1.07,1.07,0,0,1,.19.18h0c.29.26.56.52.84.79.77.71,1.51,1.41,2.27,2.13h0l.07.06c.17.15.35.32.5.48h0q3.38,3.16,6.7,6.38t6.42,6.26q3.56,3.51,7.07,7.06c.73.74,1.46,1.47,2.18,2.22,1.12,1.14,2.22,2.26,3.31,3.4l.22.22.27.27.1.1c1.58-2,3.17-4,4.79-5.92l.29-.36.08-.09,1.38-1.69c.18-.22.36-.45.55-.67l1.17-1.41c.3-.38.62-.75.94-1.13l2.32-2.78c.46-.56.94-1.13,1.42-1.69l.3-.35c.5-.59,1-1.2,1.52-1.79l.27-.31.19-.24,1.42-1.67c1.67-1.94,3.35-3.88,5-5.8h0c.79-.91,1.58-1.8,2.37-2.69.29-.33.58-.65.86-1q4.56-5.14,9.18-10.21l.63-.68.37-.4c.05-.06.11-.11.16-.18s.34-.35.51-.54l.92-1,1.31-1.42.17-.17h0l0,0c.1-.12.19-.22.29-.32h0l2.52-2.69h0l.38-.4q2.84-3,5.7-6l.13-.14.1-.09c.14-.16.28-.3.42-.44s.31-.33.47-.48l.51-.52c.08-.07.14-.16.21-.23q3.08-3.18,6.2-6.32c.3-.31.61-.63.91-.92q1.66-1.68,3.33-3.33l.34-.33.72-.71c.37-.38.75-.75,1.13-1.12l1.1-1.09.33-.32a4.67,4.67,0,0,1,.4-.38l.85-.84.86-.84c.44-.44.89-.87,1.33-1.29l2.64-2.56c.87-.85,1.75-1.68,2.61-2.48l.68-.65,1.46-1.37c.44-.43.89-.84,1.33-1.26l.58-.54,0,0,0,0,0,0h0l0,0,.44-.42,2.73-2.54c.94-.88,1.88-1.75,2.83-2.61l2.59-2.37,1.8-1.62q3.45-3.12,6.93-6.17c.38-.34.76-.68,1.15-1,1.16-1,2.32-2,3.49-3.06h0l.06.06C352.28,314.28,373.66,331.77,386.51,345.51Z" />
      <path class="BUNTAI_BEAR_OUTFIT_BEAR_OUTFIT_34_cls-5" d="M149.17,301.28c-3.74,0-6.78,2.63-6.78,5.89s3,5.9,6.78,5.9,6.78-2.64,6.78-5.9S152.91,301.28,149.17,301.28Z" />
      <path class="BUNTAI_BEAR_OUTFIT_BEAR_OUTFIT_34_cls-5" d="M317.44,301.28c-3.74,0-6.78,2.63-6.78,5.89s3,5.9,6.78,5.9,6.78-2.64,6.78-5.9S321.18,301.28,317.44,301.28Z" />
      <path class="BUNTAI_BEAR_OUTFIT_BEAR_OUTFIT_34_cls-6" d="M335.37,300.27l-2.31-1.93-.71-.6L331,296.61l-1.21-1a30.34,30.34,0,0,1-5.22-6.05l-.37.22-.63.38-.85.52-.58.34-.6.37c-1.17.71-2.32,1.43-3.47,2.15-.29.19-.59.37-.88.57l-2.39,1.53v0l-.34.2a.2.2,0,0,1-.07.06c-1.33.85-2.64,1.73-3.95,2.63L308,300.18q-3.18,2.19-6.3,4.46c-18.44,13.43-35.56,28.69-52.29,44.41q-4.38,4.11-8.73,8.26c-2.88-2.27-5.77-4.52-8.67-6.78-20.87-16.24-42.2-32-65.22-45.89-2.16-1.3-4.33-2.57-6.53-3.83L157,299l-.53-.3-2.07-1.15,0,0-.67-.37-.91-.49-2.42-1.31c-1.11-.6-2.23-1.19-3.35-1.77l-3.16-1.63a6.77,6.77,0,0,0-.66-.33c-.49-.26-1-.51-1.49-.76s-1.29-.65-1.95-1l-2.34-1.15-.89-.43-2.3-1.09-1.36-.64-2-.94-1-.45-1.67-.75c-.57-.26-1.13-.51-1.7-.75-.75-.33-1.5-.66-2.25-1q-2.12-.91-4.25-1.79l-1.1-.45-.15-.06c-.87-.36-1.74-.71-2.62-1-.25-.11-.49-.21-.74-.3h0c-.71,1-1.46,2-2.25,3-.38.48-.77,1-1.18,1.44-.19.24-.4.49-.61.73s-.43.49-.66.74l-.66.74c-.22.25-.45.49-.68.74l-1,1.09c-.62.63-1.25,1.25-1.91,1.87-.49.47-1,.93-1.5,1.39.9.6,1.79,1.22,2.68,1.83.32.2.63.42.94.63l.29.19a3.28,3.28,0,0,0,.38.27l.21.14.1.08.22.16.3.2,2.84,2,1.41,1,2.55,1.78c1.78,1.26,3.55,2.51,5.31,3.78.61.42,1.22.86,1.82,1.3.3.21.6.42.88.64s.55.39.81.58.63.46,1,.69c.47.33.94.67,1.41,1s1.15.81,1.71,1.24a4.34,4.34,0,0,1,.39.29c.66.47,1.33,1,2,1.45s1.06.77,1.58,1.18l.39.28.11.08q1.86,1.37,3.71,2.76c1.08.79,2.14,1.6,3.2,2.42h0s0,0,0,0a3.63,3.63,0,0,1,.46.34,10.4,10.4,0,0,1,.93.71c1.12.83,2.23,1.67,3.35,2.53l2.14,1.67a2.39,2.39,0,0,1,.22.16c.28.21.56.42.83.65.46.34.92.69,1.38,1.07a3,3,0,0,1,.46.36s0,0,0,0c1.78,1.36,3.56,2.75,5.32,4.16a1.16,1.16,0,0,1,.25.2c.3.23.61.46.9.71.57.43,1.12.86,1.67,1.32l.29.23q.19.15.39.33c.47.35.93.73,1.4,1.11l1.79,1.44a.21.21,0,0,1,.08.06c.36.28.71.57,1.06.86a.45.45,0,0,1,.14.11c.62.49,1.24,1,1.86,1.51.91.72,1.82,1.47,2.72,2.2,1.67,1.38,3.34,2.75,5,4.15l.61.51a3.75,3.75,0,0,1,.44.37,1.24,1.24,0,0,1,.22.19s0,0,0,0a.53.53,0,0,1,.15.11l.54.45c.15.13.32.26.48.41.62.51,1.25,1,1.87,1.58s1.18,1,1.76,1.48l1.38,1.18c.8.67,1.61,1.36,2.41,2.05,1.57,1.34,3.14,2.69,4.69,4.06l.45.39c.13.11.27.22.4.35.52.44,1,.89,1.54,1.36.22.17.43.36.65.56q1.62,1.41,3.23,2.86l.07.06c1.15,1,2.31,2,3.45,3.08.18.15.37.31.55.49q2.52,2.25,5,4.52l.77.71c2,1.86,4.06,3.74,6.08,5.62a1.07,1.07,0,0,1,.19.18h0c.29.26.56.52.84.79.77.71,1.51,1.41,2.27,2.13h0l.07.06c.17.15.35.32.5.48h0q3.38,3.16,6.7,6.38t6.42,6.26q3.56,3.51,7.07,7.06c.73.74,1.46,1.47,2.18,2.22,1.12,1.14,2.22,2.26,3.31,3.4l.22.22.27.27.1.1c1.58-2,3.17-4,4.79-5.92l.29-.36.08-.09a1,1,0,0,1,.15-.2l1.23-1.49c.18-.22.36-.45.55-.67l1.17-1.41c.3-.38.62-.75.94-1.13.76-.93,1.54-1.86,2.32-2.78.46-.56.94-1.13,1.42-1.69l.3-.35c.5-.59,1-1.2,1.52-1.79l.27-.31.19-.24,1.42-1.67c1.67-1.94,3.35-3.88,5-5.8h0c.79-.91,1.58-1.8,2.37-2.69.29-.33.58-.65.86-1q4.56-5.14,9.18-10.21l.63-.68.37-.4c.05-.06.11-.11.16-.18s.34-.35.51-.54l.92-1,1.31-1.42.17-.17h0l0,0c.1-.12.19-.22.29-.32h0l2.52-2.69h0l.38-.4q2.84-3,5.7-6l.23-.23c.14-.16.28-.3.42-.44s.31-.33.47-.48l.51-.52c.08-.07.14-.16.21-.23q3.08-3.18,6.2-6.32c.3-.31.61-.63.91-.92q1.66-1.68,3.33-3.33l.34-.33c.62-.62,1.23-1.23,1.85-1.83l1.1-1.09.33-.32a4.67,4.67,0,0,1,.4-.38l.85-.84.86-.84c.44-.44.89-.87,1.33-1.29.88-.87,1.76-1.72,2.64-2.56s1.75-1.68,2.61-2.48l.68-.65,1.46-1.37c.3-.26.59-.54.87-.8l1-1,0,0a.19.19,0,0,1,.07-.06h0l0,0a.3.3,0,0,1,.09-.1l.35-.32,2.73-2.54,2.83-2.61,2.59-2.37,1.8-1.62q3.45-3.12,6.93-6.17c.38-.34.76-.68,1.15-1,1.16-1,2.32-2,3.49-3.06Zm-191.16,2.9s0,0,0,0l.11-.1.29-.23a.63.63,0,0,1,.13-.11,6.09,6.09,0,0,1,1.1-.67l.28-.13a1.48,1.48,0,0,1,.29-.12l.19-.07.21-.07a6.4,6.4,0,0,1,1-.25,4,4,0,0,1,.59-.08h.18a5.88,5.88,0,0,1,.6,0,5.68,5.68,0,0,1,.59,0,1.55,1.55,0,0,1,.31,0h0a1.45,1.45,0,0,1,.3,0l.14,0s0,0,0,0h.08l.54.13a.83.83,0,0,1,.21.06h0a.7.7,0,0,1,.19.06l.06,0a.16.16,0,0,1,.09,0l.43.17a3.55,3.55,0,0,1,.44.21,1.19,1.19,0,0,1,.22.12l.38.23a5.81,5.81,0,0,1,1.18,1q.21.22.39.45l.21.3,0,.05.11.16.18.32.15.3,0,0c0,.12.11.25.15.38s.1.3.14.45a0,0,0,0,0,0,0v0a.52.52,0,0,1,0,.11.31.31,0,0,1,0,.08l0,.13v0a1.54,1.54,0,0,1,.06.43c0,.15,0,.3,0,.45a2.44,2.44,0,0,1,0,.27,2.28,2.28,0,0,1,0,.27.13.13,0,0,1,0,.06s0,.07,0,.11v0c0,.11,0,.22-.06.33a.36.36,0,0,0,0,.1s0,.06,0,.08l0,.11h0a3.57,3.57,0,0,1-.12.4l-.11.27-.11.27h0a0,0,0,0,0,0,0,2.69,2.69,0,0,1-.16.29l0,.06,0,0-.06.11h0l-.33.47h0l-.22.27,0,0a4.89,4.89,0,0,1-.39.4,4.14,4.14,0,0,1-.5.44,0,0,0,0,1,0,0l-.16.14a2.92,2.92,0,0,1-.32.21h0l-.17.12a4.59,4.59,0,0,1-.49.26l-.07,0,0,0-.41.17,0,0-.1,0h0l-.08,0h0c-.15.06-.3.1-.46.15h0l-.17,0a.58.58,0,0,1-.18,0h0a2.54,2.54,0,0,1-.55.1,1.15,1.15,0,0,1-.26,0h-.25a5.68,5.68,0,0,1-.59,0,6.08,6.08,0,0,1-.61,0h-.08a.58.58,0,0,1-.19,0,3.86,3.86,0,0,1-.49-.06h0l-.12,0-.51-.12c-.21-.05-.41-.12-.62-.19h0l-.11,0c-.17-.06-.33-.13-.48-.2h0l-.07,0a1.59,1.59,0,0,1-.29-.15l-.06,0a5.65,5.65,0,0,1-.58-.36l-.08,0a5.52,5.52,0,0,1-.53-.43,5.66,5.66,0,0,1-.43-.42,3.44,3.44,0,0,1-.35-.41c-.12-.16-.24-.32-.34-.48a5.44,5.44,0,0,1-.51-1.06,4.11,4.11,0,0,1-.17-.57,5.17,5.17,0,0,1-.14-1.19,3.94,3.94,0,0,1,0-.6,3.85,3.85,0,0,1,.08-.49,1.16,1.16,0,0,1,0-.18,3.82,3.82,0,0,1,.15-.48,2.63,2.63,0,0,1,.17-.42.09.09,0,0,1,0-.06,1,1,0,0,1,.12-.23,4.32,4.32,0,0,1,.48-.75,1.09,1.09,0,0,1,.13-.17s0,0,0-.05a1.35,1.35,0,0,1,.16-.19.11.11,0,0,1,0,0,1,1,0,0,1,.14-.15s0,0,0,0a.81.81,0,0,1,.16-.16Zm179.42,6.39a2.32,2.32,0,0,1-.21.38.41.41,0,0,1-.07.11,4,4,0,0,1-.3.42,2.15,2.15,0,0,1-.23.28s0,0,0,0a2.16,2.16,0,0,1-.25.27c-.1.11-.21.21-.32.31l-.33.25-.14.12a2.92,2.92,0,0,1-.32.21,2.61,2.61,0,0,1-.28.17,3.24,3.24,0,0,1-.36.2,2.08,2.08,0,0,1-.3.13,2.08,2.08,0,0,1-.3.13h0l-.19.07-.13,0-.18.06a.2.2,0,0,1-.11,0h0l-.11,0a.47.47,0,0,1-.17,0s0,0,0,0h0s0,0,0,0l-.15,0h0a2,2,0,0,1-.34.06h-.09l-.17,0-.21,0H318a5.49,5.49,0,0,1-.58,0,6.08,6.08,0,0,1-.61,0h-.21a3,3,0,0,1-.43-.06H316a5.63,5.63,0,0,1-.59-.14,4,4,0,0,1-.49-.15l-.14,0h0c-.19-.07-.39-.15-.58-.24h0l-.08,0a3.88,3.88,0,0,1-.45-.24,6.25,6.25,0,0,1-.6-.4,4.31,4.31,0,0,1-.4-.32l-.08-.07a3.38,3.38,0,0,1-.27-.26,5.11,5.11,0,0,1-.48-.55c-.12-.16-.24-.32-.34-.48a5.44,5.44,0,0,1-.51-1.06,3.74,3.74,0,0,1-.17-.57,3.11,3.11,0,0,1-.08-.44.77.77,0,0,1,0-.15,4,4,0,0,1,0-.6c0-3.25,3-5.89,6.78-5.89s6.77,2.64,6.77,5.89a4.24,4.24,0,0,1,0,.51.37.37,0,0,1,0,.11v0c0,.15,0,.29-.07.42a.53.53,0,0,1,0,.12.36.36,0,0,1,0,.1s0,0,0,.05a2.79,2.79,0,0,1-.11.35s0,.08,0,.12A6,6,0,0,1,323.63,309.56Z" />
      <path class="BUNTAI_BEAR_OUTFIT_BEAR_OUTFIT_34_cls-2" d="M319.72,280.14a53.8,53.8,0,0,0,4.87,9.38l-.37.22-.63.38-.85.52-.58.34-.6.37c-1.17.71-2.32,1.43-3.47,2.15-.29.19-.59.37-.88.57l-2.39,1.53c-.11.08-.23.15-.35.22a.2.2,0,0,1-.07.06c-1.33.85-2.64,1.73-3.95,2.63L308,300.18q-3.18,2.19-6.3,4.46c-18.44,13.43-35.56,28.69-52.29,44.41q-4.38,4.11-8.73,8.26c-2.88-2.27-5.77-4.52-8.67-6.78-20.87-16.24-42.2-32-65.22-45.89-2.16-1.3-4.33-2.57-6.53-3.83-1.08-.62-2.16-1.24-3.24-1.84l-.53-.3-2.07-1.15,0,0-.67-.37-.91-.49-2.42-1.31c-1.11-.6-2.23-1.19-3.35-1.77l-3.16-1.63a6.77,6.77,0,0,0-.66-.33c-.49-.26-1-.51-1.49-.76s-1.29-.65-1.95-1l-2.34-1.15-.89-.43-2.3-1.09-1.36-.64-2-.94-1-.45-1.67-.75c-.57-.26-1.13-.51-1.7-.75-.75-.33-1.5-.66-2.25-1q-2.12-.91-4.25-1.79l-1.1-.45-.15-.06c-.87-.36-1.74-.71-2.62-1l-.75-.3a67.69,67.69,0,0,0,5.73-9.67l.27-.56c1.61.72,3.21,1.44,4.8,2.18l3.83,1.8.57.26.58.28,1.15.54,2.54,1.21q4.09,2,8.15,4,6.09,3,12.08,6.24c1.94,1,3.86,2.06,5.77,3.12q12.36,6.75,24.29,14.11l4.37,2.72,3.33,2.11,2,1.3,1.47.95q3.47,2.24,6.88,4.55l.92.61,1,.67c.39.26.78.52,1.17.8q2.29,1.54,4.57,3.14c1.69,1.17,3.37,2.36,5,3.55l.46.33c1.62,1.16,3.23,2.32,4.83,3.51l.65.47.69.51.11.08c1.63,1.2,3.26,2.41,4.87,3.64l.93.7,3.42,2.62,1.49,1.16.17.13.14.1.11.09.13.1q3.44,2.65,6.79,5.39,3.53-3.43,7.12-6.8c1.31-1.23,2.63-2.44,3.94-3.65,2.56-2.34,5.13-4.64,7.74-6.91l2.22-1.94c1.17-1,2.36-2,3.54-3l.64-.53c1.36-1.14,2.73-2.28,4.1-3.4.16-.14.32-.28.49-.41q2.27-1.86,4.54-3.67c1.18-.93,2.34-1.86,3.52-2.77l1-.81.2-.15.59-.46,4.12-3.14q4.77-3.6,9.63-7.06c2-1.45,4.05-2.87,6.11-4.28q4.59-3.16,9.28-6.22c.69-.45,1.37-.9,2.06-1.33l2.07-1.32,1.63-1a3.54,3.54,0,0,1,.41-.26c.3-.2.61-.39.92-.58l2.34-1.46Z" />
      <path class="BUNTAI_BEAR_OUTFIT_BEAR_OUTFIT_34_cls-2" d="M252.11,368.64l-2.21-2.19-9.22-9.14c-2.88-2.27-5.77-4.52-8.67-6.78-20.87-16.24-42.2-32-65.22-45.89-2.16-1.3-4.33-2.57-6.53-3.83L157,299l-.53-.3-2.07-1.15,0,0-.67-.37-.91-.49-2.42-1.31c-1.11-.6-2.23-1.19-3.35-1.77l-3.16-1.63a6.77,6.77,0,0,0-.66-.33c-.49-.26-1-.51-1.49-.76s-1.29-.65-1.95-1l-2.34-1.15-.89-.43-2.3-1.09-1.36-.64-2-.94-1-.45-1.67-.75c-.57-.26-1.13-.51-1.7-.75-.75-.33-1.5-.66-2.25-1q-2.12-.91-4.25-1.79l-1.1-.45-.15-.06c-.87-.36-1.74-.71-2.62-1-.25-.11-.49-.21-.74-.3h0c-.71,1-1.46,2-2.25,3-.38.48-.77,1-1.18,1.44-.19.24-.4.49-.61.73s-.43.49-.66.74l-.66.74c-.22.25-.45.49-.68.74l-1,1.09c-.62.63-1.25,1.25-1.91,1.87-.49.47-1,.93-1.5,1.39.9.6,1.79,1.22,2.68,1.83.32.2.63.42.94.63l.29.19a3.28,3.28,0,0,0,.38.27l.21.14.1.08.22.16.3.2,2.84,2,1.41,1,2.55,1.78c1.78,1.26,3.55,2.51,5.31,3.78.61.42,1.22.86,1.82,1.3.3.21.6.42.88.64s.55.39.81.58.63.46,1,.69c.47.33.94.67,1.41,1s1.15.81,1.71,1.24a4.34,4.34,0,0,1,.39.29c.66.47,1.33,1,2,1.45s1.06.77,1.58,1.18l.39.28.11.08q1.86,1.37,3.71,2.76c1.08.79,2.14,1.6,3.2,2.42h0s0,0,0,0a3.63,3.63,0,0,1,.46.34,10.4,10.4,0,0,1,.93.71c1.12.83,2.23,1.67,3.35,2.53l2.14,1.67a2.39,2.39,0,0,1,.22.16c.28.21.56.42.83.65.46.34.92.69,1.38,1.07a3,3,0,0,1,.46.36s0,0,0,0c1.78,1.36,3.56,2.75,5.32,4.16a1.16,1.16,0,0,1,.25.2c.3.23.61.46.9.71.57.43,1.12.86,1.67,1.32l.29.23q.19.15.39.33c.47.35.93.73,1.4,1.11l1.79,1.44a.21.21,0,0,1,.08.06c.36.27.71.55,1.06.86a.45.45,0,0,1,.14.11c.62.49,1.24,1,1.86,1.51.91.72,1.82,1.47,2.72,2.2,1.67,1.38,3.34,2.75,5,4.15l.61.51a3.75,3.75,0,0,1,.44.37,1.24,1.24,0,0,1,.22.19s0,0,0,0a.53.53,0,0,1,.15.11l.54.45c.15.13.32.26.48.41.62.51,1.25,1,1.87,1.58s1.18,1,1.76,1.48.92.77,1.38,1.18c.8.67,1.61,1.36,2.41,2.05,1.57,1.34,3.14,2.69,4.69,4.06l.45.39c.13.11.27.22.4.35.52.44,1,.89,1.54,1.36.22.17.43.36.65.56q1.62,1.41,3.23,2.86l.07.06c1.15,1,2.31,2,3.45,3.08.18.15.37.31.55.49q2.52,2.25,5,4.52l.77.71c2,1.86,4.06,3.74,6.08,5.62a1.07,1.07,0,0,1,.19.18h0c.29.26.56.52.84.79.77.71,1.51,1.41,2.27,2.13h0l.07.06c.17.15.35.32.5.48h0q3.38,3.16,6.7,6.38t6.42,6.26q3.56,3.51,7.07,7.06c.73.74,1.46,1.47,2.18,2.22,1.12,1.14,2.22,2.26,3.31,3.4l.22.22.27.27.1.1c1.58-2,3.17-4,4.79-5.92l.29-.36.08-.09a1,1,0,0,1,.15-.2l1.23-1.49c.18-.22.36-.45.55-.67l1.17-1.41c.3-.38.62-.75.94-1.13.76-.93,1.54-1.86,2.32-2.78.46-.56.94-1.13,1.42-1.69l.3-.35c.5-.59,1-1.2,1.52-1.79l.27-.31.19-.24,1.42-1.67c1.67-1.94,3.35-3.88,5-5.8h0Zm-107.9-65.47s0,0,0,0l.11-.1.29-.23a.63.63,0,0,1,.13-.11,6.09,6.09,0,0,1,1.1-.67l.28-.13a1.48,1.48,0,0,1,.29-.12l.19-.07.21-.07a6.4,6.4,0,0,1,1-.25,4,4,0,0,1,.59-.08h.18a5.88,5.88,0,0,1,.6,0,5.68,5.68,0,0,1,.59,0,1.55,1.55,0,0,1,.31,0h0a1.45,1.45,0,0,1,.3,0l.14,0s0,0,0,0h.08l.54.13a.83.83,0,0,1,.21.06h0a.7.7,0,0,1,.19.06l.06,0a.16.16,0,0,1,.09,0l.43.17a3.55,3.55,0,0,1,.44.21,1.19,1.19,0,0,1,.22.12l.38.23a5.81,5.81,0,0,1,1.18,1q.21.22.39.45l.21.3,0,.05.11.16.18.32.15.3,0,0c0,.12.11.25.15.38s.1.3.14.45a0,0,0,0,0,0,0v0a.52.52,0,0,1,0,.11.31.31,0,0,1,0,.08l0,.13v0a1.54,1.54,0,0,1,.06.43c0,.15,0,.3,0,.45a2.44,2.44,0,0,1,0,.27,2.28,2.28,0,0,1,0,.27.13.13,0,0,1,0,.06s0,.07,0,.11v0c0,.11,0,.22-.06.33a.36.36,0,0,0,0,.1s0,.06,0,.08l0,.11h0a3.57,3.57,0,0,1-.12.4l-.11.27-.11.27h0a0,0,0,0,0,0,0,2.69,2.69,0,0,1-.16.29l0,.06,0,0-.06.11h0l-.33.47h0l-.22.27,0,0a4.89,4.89,0,0,1-.39.4,4.14,4.14,0,0,1-.5.44,0,0,0,0,1,0,0l-.16.14a2.92,2.92,0,0,1-.32.21h0l-.17.12a4.59,4.59,0,0,1-.49.26l-.07,0h0l-.41.17,0,0-.1,0h0l-.08,0h0c-.15.06-.3.1-.46.15h0l-.17,0a.58.58,0,0,1-.18,0h0a2.54,2.54,0,0,1-.55.1,1.15,1.15,0,0,1-.26,0h-.25a5.68,5.68,0,0,1-.59,0,6.08,6.08,0,0,1-.61,0h-.08a.58.58,0,0,1-.19,0,3.86,3.86,0,0,1-.49-.06h0l-.12,0-.51-.12c-.21-.05-.41-.12-.62-.19h0l-.11,0c-.17-.06-.33-.13-.48-.2h0l-.07,0a1.59,1.59,0,0,1-.29-.15l-.06,0a5.65,5.65,0,0,1-.58-.36l-.08,0a5.52,5.52,0,0,1-.53-.43,5.66,5.66,0,0,1-.43-.42,3.44,3.44,0,0,1-.35-.41c-.12-.16-.24-.32-.34-.48a5.44,5.44,0,0,1-.51-1.06,4.11,4.11,0,0,1-.17-.57,5.17,5.17,0,0,1-.14-1.19,3.94,3.94,0,0,1,0-.6,3.85,3.85,0,0,1,.08-.49,1.16,1.16,0,0,1,0-.18,3.82,3.82,0,0,1,.15-.48,2.63,2.63,0,0,1,.17-.42.09.09,0,0,1,0-.06,1,1,0,0,1,.12-.23,4.32,4.32,0,0,1,.48-.75,1.09,1.09,0,0,1,.13-.17s0,0,0-.05a1.35,1.35,0,0,1,.16-.19.11.11,0,0,1,0,0,1,1,0,0,1,.14-.15s0,0,0,0a.81.81,0,0,1,.16-.16Z" />
      <path class="BUNTAI_BEAR_OUTFIT_BEAR_OUTFIT_34_cls-2" d="M335.37,300.27l-2.31-1.93-.71-.6L331,296.61l-1.21-1a30.34,30.34,0,0,1-5.22-6.05l-.37.22-.63.38-.85.52-.58.34-.6.37c-1.17.71-2.32,1.43-3.47,2.15-.29.19-.59.37-.88.57l-2.39,1.53v0l-.34.2a.2.2,0,0,1-.07.06c-1.33.85-2.64,1.73-3.95,2.63L308,300.18q-3.18,2.19-6.3,4.46c-18.44,13.43-35.56,28.69-52.29,44.41q-4.38,4.11-8.73,8.26l9.22,9.14,2.21,2.19,10.24,10.15c.79-.91,1.58-1.8,2.37-2.69.29-.33.58-.65.86-1q4.56-5.14,9.18-10.21l.63-.68.37-.4c.05-.06.11-.11.16-.18s.34-.35.51-.54l.92-1,1.31-1.42.17-.17h0l0,0c.1-.12.19-.22.29-.32h0l2.52-2.69h0l.38-.4q2.84-3,5.7-6l.13-.14.1-.09c.14-.16.28-.3.42-.44s.31-.33.47-.48.47-.5.72-.75q3.08-3.18,6.2-6.32c.3-.31.61-.63.91-.92q1.66-1.68,3.33-3.33l.34-.33c.62-.62,1.23-1.23,1.85-1.83l1.1-1.09.33-.32a4.67,4.67,0,0,1,.4-.38l.85-.84.86-.84c.44-.44.89-.87,1.33-1.29.88-.87,1.76-1.72,2.64-2.56s1.75-1.68,2.61-2.48l.68-.65c.93-.89,1.86-1.76,2.79-2.63l.58-.54,0,0a.19.19,0,0,1,.07-.06h0l0,0a.3.3,0,0,1,.09-.1l.35-.32,2.73-2.54,2.83-2.61,2.59-2.37,1.8-1.62q3.45-3.12,6.93-6.17c.38-.34.76-.68,1.15-1,1.16-1,2.32-2,3.49-3.06Zm-11.74,9.29a2.32,2.32,0,0,1-.21.38.41.41,0,0,1-.07.11,4,4,0,0,1-.3.42,2.15,2.15,0,0,1-.23.28s0,0,0,0a2.16,2.16,0,0,1-.25.27c-.1.11-.21.21-.32.31l-.33.25-.14.12a2.92,2.92,0,0,1-.32.21,2.61,2.61,0,0,1-.28.17,3.24,3.24,0,0,1-.36.2,2.08,2.08,0,0,1-.3.13,2.08,2.08,0,0,1-.3.13h0l-.19.07-.13,0-.18.06a.2.2,0,0,1-.11,0h0l-.11,0a.47.47,0,0,1-.17,0s0,0,0,0h0s0,0,0,0l-.15,0h0a2,2,0,0,1-.34.06h-.09l-.17,0-.21,0H318a5.49,5.49,0,0,1-.58,0,6.08,6.08,0,0,1-.61,0h-.21a3,3,0,0,1-.43-.06H316a5.63,5.63,0,0,1-.59-.14,4,4,0,0,1-.49-.15l-.14,0h0c-.19-.07-.39-.15-.58-.24h0l-.08,0a3.88,3.88,0,0,1-.45-.24,6.25,6.25,0,0,1-.6-.4,4.31,4.31,0,0,1-.4-.32l-.08-.07a3.38,3.38,0,0,1-.27-.26,5.11,5.11,0,0,1-.48-.55c-.12-.16-.24-.32-.34-.48a5.44,5.44,0,0,1-.51-1.06,3.74,3.74,0,0,1-.17-.57,3.11,3.11,0,0,1-.08-.44.77.77,0,0,1,0-.15,4,4,0,0,1,0-.6c0-3.25,3-5.89,6.78-5.89s6.77,2.64,6.77,5.89a4.24,4.24,0,0,1,0,.51.37.37,0,0,1,0,.11v0c0,.15,0,.29-.07.42a.53.53,0,0,1,0,.12.36.36,0,0,1,0,.1s0,0,0,.05a2.79,2.79,0,0,1-.11.35s0,.08,0,.12A6,6,0,0,1,323.63,309.56Z" />
      <path class="BUNTAI_BEAR_OUTFIT_BEAR_OUTFIT_34_cls-3" d="M319.72,280.13h0l-.81.49-2.34,1.46c-.31.19-.62.38-.92.58a3.54,3.54,0,0,0-.41.26l-1.63,1-2.07,1.32c-.69.43-1.37.88-2.06,1.33q-4.68,3-9.28,6.22c-2.06,1.41-4.09,2.83-6.11,4.28q-4.86,3.47-9.63,7.06l-4.12,3.14-.59.46-.2.15-1,.81c-1.18.91-2.34,1.84-3.52,2.77q-2.28,1.81-4.54,3.67c-.17.13-.33.27-.49.41-1.37,1.12-2.74,2.26-4.1,3.4l-.64.53c-1.18,1-2.37,2-3.54,3l-2.22,1.94c-2.61,2.27-5.18,4.57-7.74,6.91-1.31,1.21-2.63,2.42-3.94,3.65q-3.6,3.38-7.12,6.8-3.36-2.73-6.79-5.39l-.13-.1-.11-.09-.14-.1-.17-.13-1.49-1.16-3.42-2.62-.93-.7c-1.61-1.23-3.24-2.44-4.87-3.64l-.11-.08-.69-.51-.65-.47c-1.6-1.19-3.21-2.35-4.83-3.51l-.46-.33c-1.67-1.19-3.35-2.38-5-3.55-1.51-1.06-3-2.11-4.57-3.14-.39-.28-.78-.54-1.17-.8l-1-.67-.92-.61q-3.42-2.31-6.88-4.55l-1.47-.95-2-1.3-2.7-1.72-.63-.39-4.37-2.72q-11.93-7.34-24.29-14.11c-1.91-1.06-3.83-2.09-5.77-3.12q-6-3.19-12.08-6.24-4-2-8.15-4l-2.54-1.21-1.15-.54-1.15-.54-3.83-1.8c-1.59-.74-3.19-1.46-4.8-2.18A66.68,66.68,0,0,0,125.65,257a48,48,0,0,0,1.57-9.42c44.86,17.83,83.42,45,113.46,79.06q1.51-2.08,3.07-4.13c.46-.61.93-1.23,1.4-1.83s1.08-1.39,1.63-2.08c.68-.86,1.37-1.73,2.07-2.59q2.18-2.69,4.43-5.31c.47-.56.95-1.11,1.43-1.66q4.09-4.69,8.41-9.18c.62-.66,1.27-1.33,1.91-2l.2-.21c.91-.93,1.83-1.85,2.76-2.74.68-.69,1.36-1.36,2.06-2,.51-.51,1-1,1.53-1.48l2.43-2.28c.82-.76,1.64-1.51,2.47-2.25s1.56-1.4,2.35-2.08q.94-.85,1.92-1.68c.58-.51,1.16-1,1.75-1.49l1.52-1.28c1.79-1.49,3.6-3,5.43-4.39.67-.54,1.35-1.08,2-1.59.17-.15.36-.29.54-.42.69-.53,1.37-1.05,2.07-1.57l.88-.66,2.13-1.57c.89-.66,1.79-1.31,2.69-1.93s1.62-1.15,2.44-1.71l.35-.23c.89-.61,1.78-1.22,2.67-1.81s1.83-1.23,2.75-1.83,1.51-1,2.07-1.3l1.26-.73,1.8-1,1-.56A94.11,94.11,0,0,0,319.72,280.13Z" />
      <path class="BUNTAI_BEAR_OUTFIT_BEAR_OUTFIT_34_cls-7" d="M240.68,326.63c-30-34.08-68.6-61.23-113.46-79.06h0" />
      <path class="BUNTAI_BEAR_OUTFIT_BEAR_OUTFIT_34_cls-7" d="M121.36,268.84c1.61.72,3.21,1.44,4.8,2.18,2.05.94,4.1,1.9,6.13,2.88l2.54,1.21q4.09,2,8.15,4,6.09,3,12.08,6.24c1.94,1,3.86,2.06,5.77,3.12q12.36,6.75,24.29,14.11l4.37,2.72q10.89,6.82,21.35,14.13c1.69,1.17,3.37,2.36,5,3.55l.46.33c1.62,1.16,3.23,2.32,4.83,3.51.49.34,1,.7,1.45,1.06,1.63,1.2,3.26,2.41,4.87,3.64l.93.7c1.7,1.29,3.4,2.59,5.08,3.91l.14.1h0l.11.08.13.1q3.44,2.65,6.79,5.39" />
      <path class="BUNTAI_BEAR_OUTFIT_BEAR_OUTFIT_34_cls-7" d="M115.36,279.07l.75.3c.88.33,1.75.68,2.62,1l.15.06,1.1.45q2.13.87,4.25,1.79c.75.31,1.5.64,2.25,1,.57.24,1.13.49,1.7.75l1.67.75,1,.45,2,.94,1.36.64,2.3,1.09.89.43,2.34,1.15q1,.47,1.95,1c.5.25,1,.5,1.49.76a6.77,6.77,0,0,1,.66.33l3.16,1.63c1.12.58,2.24,1.17,3.35,1.77l2.42,1.31.91.49.67.37,0,0,2.07,1.15.53.3,3.24,1.84c2.2,1.26,4.37,2.53,6.53,3.83,23,13.84,44.35,29.65,65.22,45.89,2.9,2.26,5.79,4.51,8.67,6.78" />
      <path class="BUNTAI_BEAR_OUTFIT_BEAR_OUTFIT_34_cls-7" d="M56.93,334.59a102.41,102.41,0,0,1,13.9,25.09,96.46,96.46,0,0,1,6.31,33.81" />
      <path class="BUNTAI_BEAR_OUTFIT_BEAR_OUTFIT_34_cls-7" d="M21.1,368.24h0l2.38,1.42.12.07,1.53.89.12.07,1.51.85L29,372.79c2.24,1.24,4.5,2.46,6.75,3.69l3.35,1.82L41,379.37l.05,0h0l.47.27c1.64.91,3.26,1.83,4.87,2.78l2.38,1.43h0c.78.49,1.57,1,2.34,1.47h0l2.09,1.37c.9.6,1.78,1.21,2.65,1.83.68.49,1.36,1,2,1.49h0c.73.55,1.44,1.11,2.14,1.68.52.41,1,.83,1.52,1.27s.73.63,1.09.95.64.56.95.87l.52.47c.43.41.86.83,1.27,1.25a50.39,50.39,0,0,1,5.65,6.85c.33.48.65,1,1,1.45s.59.95.86,1.42l.06.1" />
      <path class="BUNTAI_BEAR_OUTFIT_BEAR_OUTFIT_34_cls-7" d="M240.68,404.7l-.1-.1-.27-.27-.22-.22c-1.09-1.14-2.19-2.26-3.31-3.4-.72-.75-1.45-1.48-2.18-2.22q-3.51-3.54-7.07-7.06-3.19-3.14-6.42-6.26t-6.7-6.38h0c-.15-.16-.33-.33-.5-.48l-.07-.06h0c-.76-.72-1.5-1.42-2.27-2.13-.28-.27-.55-.53-.84-.79h0a1.07,1.07,0,0,0-.19-.18c-2-1.88-4.05-3.76-6.08-5.62l-.77-.71q-2.49-2.27-5-4.52c-.18-.18-.37-.34-.55-.49-1.14-1-2.3-2.08-3.45-3.08l-.07-.06q-1.6-1.45-3.23-2.86c-.22-.2-.43-.39-.65-.56-.51-.47-1-.92-1.54-1.36-.13-.13-.27-.24-.4-.35l-.45-.39c-1.55-1.37-3.12-2.72-4.69-4.06-.8-.69-1.61-1.38-2.41-2.05-.46-.41-.92-.8-1.38-1.18s-1.17-1-1.76-1.48-1.25-1.07-1.87-1.58c-.16-.15-.33-.28-.48-.41l-.54-.45a.53.53,0,0,0-.15-.11s0,0,0,0a1.24,1.24,0,0,0-.22-.19,3.75,3.75,0,0,0-.44-.37l-.61-.51c-1.66-1.4-3.33-2.77-5-4.15-.9-.73-1.81-1.48-2.72-2.2-.62-.51-1.24-1-1.86-1.51a.45.45,0,0,0-.14-.11c-.35-.31-.7-.59-1.06-.86a.21.21,0,0,0-.08-.06l-1.79-1.44c-.47-.38-.93-.76-1.4-1.11q-.19-.18-.39-.33l-.29-.23c-.55-.46-1.1-.89-1.67-1.32-.29-.25-.6-.48-.9-.71a1.16,1.16,0,0,0-.25-.2c-1.76-1.41-3.54-2.8-5.32-4.16,0,0,0,0,0,0a3,3,0,0,0-.46-.36c-.46-.38-.92-.73-1.38-1.07-.27-.23-.55-.44-.83-.65a2.39,2.39,0,0,0-.22-.16l-2.14-1.67c-1.12-.86-2.23-1.7-3.35-2.53a10.4,10.4,0,0,0-.93-.71,3.63,3.63,0,0,0-.46-.34s0,0,0,0" />
      <path class="BUNTAI_BEAR_OUTFIT_BEAR_OUTFIT_34_cls-7" d="M141,316.76h0c-1.06-.82-2.12-1.63-3.2-2.42q-1.85-1.39-3.71-2.76l-.11-.08-.39-.28c-.52-.41-1.05-.8-1.58-1.18s-1.32-1-2-1.45l-.39-.29c-.56-.43-1.14-.84-1.71-1.24s-.94-.7-1.41-1c-.32-.23-.63-.47-1-.69s-.53-.39-.81-.58-.58-.43-.88-.64c-.6-.44-1.21-.88-1.82-1.3-1.76-1.27-3.53-2.52-5.31-3.78l-2.55-1.78-1.41-1-2.84-2-.3-.2-.22-.16-.1-.08-.21-.14a3.28,3.28,0,0,1-.38-.27l-.29-.19c-.31-.21-.62-.43-.94-.63-.89-.61-1.78-1.23-2.68-1.83" />
      <path class="BUNTAI_BEAR_OUTFIT_BEAR_OUTFIT_34_cls-7" d="M95.82,365.69a96.4,96.4,0,0,0-18.68,27.79s0,0,0,0a70.11,70.11,0,0,0-4.21,12.84h0a59.29,59.29,0,0,0-1.09,20.35c.16,1.22.36,2.46.6,3.67,2.24,11.35,8.23,21.93,16.68,30.74a81.41,81.41,0,0,0,23.11,16.66c20.24,9.81,44.66,12.11,67.3,8s43.57-14.25,60.95-27.64" />
      <path class="BUNTAI_BEAR_OUTFIT_BEAR_OUTFIT_34_cls-7" d="M233.88,336.44c1.3-2,2.62-3.94,4-5.88l.21-.31q1.28-1.83,2.6-3.62,1.51-2.08,3.07-4.13c.46-.61.93-1.23,1.4-1.83s1.08-1.39,1.63-2.08c.68-.86,1.37-1.73,2.07-2.59,1.45-1.79,2.92-3.56,4.43-5.31.47-.56.95-1.11,1.43-1.66q4.09-4.69,8.41-9.18c.62-.66,1.27-1.33,1.91-2l.2-.21c.91-.93,1.83-1.85,2.76-2.74.68-.69,1.36-1.36,2.06-2,.51-.51,1-1,1.53-1.48l2.43-2.28c.82-.76,1.64-1.51,2.47-2.25s1.56-1.4,2.35-2.08q.94-.85,1.92-1.68c.58-.51,1.16-1,1.75-1.49l1.52-1.28c1.79-1.49,3.6-3,5.43-4.39.67-.54,1.35-1.08,2-1.59.17-.15.36-.29.54-.42.69-.54,1.37-1.06,2.07-1.57l.88-.66c.71-.53,1.41-1.06,2.13-1.57.89-.66,1.79-1.31,2.69-1.93s1.62-1.15,2.44-1.71l.35-.23c.88-.62,1.78-1.23,2.67-1.81s1.82-1.24,2.75-1.83,1.51-1,2.07-1.3.84-.5,1.26-.73l1.8-1,1-.56" />
      <path class="BUNTAI_BEAR_OUTFIT_BEAR_OUTFIT_34_cls-7" d="M319.72,280.13h0l-.81.49-2.34,1.46c-.31.19-.62.38-.92.58a3.54,3.54,0,0,0-.41.26c-.55.33-1.09.67-1.63,1l-2.07,1.32c-.69.43-1.37.88-2.06,1.33q-4.68,3-9.28,6.22c-2.06,1.41-4.09,2.83-6.11,4.28q-4.86,3.45-9.63,7.06c-1.38,1-2.75,2.08-4.12,3.14l-.59.46-.2.16-1,.8c-1.18.91-2.34,1.84-3.52,2.77q-2.28,1.81-4.54,3.67c-.17.13-.33.27-.49.41-1.37,1.12-2.74,2.26-4.1,3.4l-.64.53c-1.18,1-2.37,2-3.54,3l-2.22,1.94c-2.61,2.27-5.18,4.57-7.74,6.91-1.31,1.21-2.63,2.42-3.94,3.65q-3.6,3.38-7.12,6.8c-2.92,2.86-5.81,5.77-8.66,8.7" />
      <path class="BUNTAI_BEAR_OUTFIT_BEAR_OUTFIT_34_cls-7" d="M324.59,289.52l-.37.22-.63.38-.85.52-.58.34-.6.37c-1.17.71-2.32,1.43-3.47,2.15-.29.19-.59.37-.88.57l-2.39,1.53v0l-.34.2a.2.2,0,0,1-.07.06c-1.33.85-2.64,1.73-3.95,2.63L308,300.18q-3.18,2.19-6.3,4.46c-18.44,13.43-35.56,28.69-52.29,44.41q-4.38,4.11-8.73,8.26l9.22,9.14,2.21,2.19,10.24,10.15" />
      <path class="BUNTAI_BEAR_OUTFIT_BEAR_OUTFIT_34_cls-7" d="M386.51,345.51c-.1.2-.2.41-.29.61s-.25.54-.37.81c-.22.48-.44,1-.64,1.44s-.42,1-.62,1.44c-1,2.41-2,4.86-2.8,7.35-.28.83-.56,1.68-.83,2.52q-.87,2.77-1.6,5.59c-.12.46-.24.91-.35,1.37-.23,1-.47,2-.68,3-.14.62-.27,1.22-.38,1.83s-.3,1.52-.43,2.29c-.08.39-.14.79-.2,1.19-.51,3-.88,6-1.14,9-.07.68-.12,1.38-.16,2.06s-.09,1.38-.13,2.07c-.07,1.38-.12,2.76-.13,4.14h0c0,.37,0,.73,0,1.1v.18" />
      <path class="BUNTAI_BEAR_OUTFIT_BEAR_OUTFIT_34_cls-7" d="M379.22,406.34c.11-.22.21-.46.33-.68h0a48.41,48.41,0,0,1,6.92-10.38c.54-.61,1.09-1.22,1.65-1.81.28-.3.57-.59.86-.88s.58-.58.87-.86c.57-.57,1.16-1.14,1.76-1.69,6.88-6.3,14.89-11.25,22.68-16.42" />
      <path class="BUNTAI_BEAR_OUTFIT_BEAR_OUTFIT_34_cls-7" d="M240.68,404.7c1.58-2,3.17-4,4.79-5.92l.29-.36c.08-.1.15-.2.23-.29l1.23-1.49c.18-.22.36-.45.55-.67l1.17-1.41c.3-.38.62-.75.94-1.13.76-.93,1.54-1.86,2.32-2.78.46-.56.94-1.13,1.42-1.69l.3-.35c.5-.59,1-1.2,1.52-1.79l.27-.31.19-.24,1.42-1.67c1.67-1.94,3.35-3.88,5-5.8h0c.79-.91,1.58-1.8,2.37-2.69.29-.33.58-.65.86-1q4.56-5.14,9.18-10.21l.63-.68.37-.4c.05-.06.11-.11.16-.18s.34-.35.51-.54l.92-1,1.31-1.42.17-.17h0l0,0c.1-.12.19-.22.29-.32h0l2.52-2.69h0l.38-.4q2.84-3,5.7-6l.13-.14.1-.09c.14-.16.28-.3.42-.44s.31-.33.47-.48.47-.5.72-.75q3.08-3.18,6.2-6.32c.3-.31.61-.63.91-.92q1.66-1.68,3.33-3.33l.34-.33c.62-.62,1.23-1.23,1.85-1.83l1.1-1.09.33-.32a4.67,4.67,0,0,1,.4-.38l.85-.84.86-.84c.44-.44.89-.87,1.33-1.29l2.64-2.56c.87-.85,1.75-1.68,2.61-2.48l.68-.65c.93-.89,1.86-1.76,2.79-2.63l.58-.54,0,0a.19.19,0,0,1,.07-.06h0l.12-.12.35-.32c.91-.86,1.82-1.71,2.73-2.54l2.83-2.61,2.59-2.37,1.8-1.62q3.45-3.12,6.93-6.17c.38-.35.77-.69,1.15-1,1.16-1,2.32-2,3.49-3.06h0" />
      <path class="BUNTAI_BEAR_OUTFIT_BEAR_OUTFIT_34_cls-7" d="M240.84,458.16c14.36,13.39,31.62,23.56,50.33,27.64a82.79,82.79,0,0,0,20,1.89,74.39,74.39,0,0,0,35.63-9.92,69.34,69.34,0,0,0,19.08-16.66,67.22,67.22,0,0,0,13.79-30.74,68.67,68.67,0,0,0,.84-9.36,72.91,72.91,0,0,0-1.26-14.66h0a81,81,0,0,0-3.48-12.84h0l-.63-1.76a100.36,100.36,0,0,0-14.8-26" />
      <path class="BUNTAI_BEAR_OUTFIT_BEAR_OUTFIT_34_cls-7" d="M77.14,393.48s0-17.76,9-27.91" />
      <path class="BUNTAI_BEAR_OUTFIT_BEAR_OUTFIT_34_cls-7" d="M375.11,391.76v0c0-.75-.11-17.74-5.46-26" />
      <path class="BUNTAI_BEAR_OUTFIT_BEAR_OUTFIT_34_cls-7" d="M15.43,381.57l.94.59c1.59,1,5.1,2.24,6.86,3.2,1.27.69,2.72,1.53,4.31,2.51l1.4.87c.72.45,1.46.92,2.22,1.42l1.55,1,1.6,1.08c.81.55,1.64,1.12,2.47,1.71l1.7,1.2.86.62q1.72,1.24,3.48,2.57l.89.67,1.37,1.05h0a181.24,181.24,0,0,1,15.2,13.05l.06.06,1.32,1.29c.51.52,1,1,1.52,1.55.74.77,1.46,1.55,2.16,2.32.46.51.92,1,1.36,1.54s.87,1,1.29,1.53l.61.77c.71.89,1.38,1.78,2,2.67.2.29.41.59.6.88s.42.63.62.95h0" />
      <path class="BUNTAI_BEAR_OUTFIT_BEAR_OUTFIT_34_cls-7" d="M417.73,389.46a71.91,71.91,0,0,0-7.86,3.86h0a24.49,24.49,0,0,0-2.24,1.42c-7.82,5.49-22.47,21.19-26.23,25.28l-.91,1" />
      <path class="BUNTAI_BEAR_OUTFIT_BEAR_OUTFIT_34_cls-7" d="M156,307.16c0,3.27-3,5.91-6.78,5.91s-6.78-2.64-6.78-5.91,3-5.88,6.78-5.88S156,303.91,156,307.16Z" />
      <path class="BUNTAI_BEAR_OUTFIT_BEAR_OUTFIT_34_cls-7" d="M324.22,307.16c0,3.27-3,5.91-6.78,5.91s-6.78-2.64-6.78-5.91,3-5.88,6.78-5.88S324.22,303.91,324.22,307.16Z" />
      <path class="BUNTAI_BEAR_OUTFIT_BEAR_OUTFIT_34_cls-7" d="M56.93,334.59c9.88-9.49,28.79-27.25,46.9-42.87l1-.9a70.08,70.08,0,0,0,10.5-11.75h0a67.28,67.28,0,0,0,6-10.23c5.49-11.61,5.85-20.91,5.86-21.27h0" />
      <path class="BUNTAI_BEAR_OUTFIT_BEAR_OUTFIT_34_cls-7" d="M386.51,345.52h0c-12.87-13.76-34.29-31.28-48-42.62h0c-3.5-2.9-6.5-5.4-8.71-7.32a30.34,30.34,0,0,1-5.22-6.05,53.8,53.8,0,0,1-4.87-9.38h0a94.11,94.11,0,0,1-5.62-21.08" />
      <path class="BUNTAI_BEAR_OUTFIT_BEAR_OUTFIT_34_cls-8" d="M-15.51,461.11c3-4.76,6.44-10.15,9.27-14.31C.22,437.26,6.23,408.19,9.4,396.57c1.13-4.13,4.39-9.15,6-15,3.23-4.7,4.58-9.49,5.67-13.32h0" />
      <path class="BUNTAI_BEAR_OUTFIT_BEAR_OUTFIT_34_cls-8" d="M449,461.11c-20.28-19.91-27.26-50.83-28.85-59.67-.58-3.24-1.47-7.64-2.37-12-1.63-7.88-3.32-15.53-3.32-15.53l-.12-.32" />
      <path class="BUNTAI_BEAR_OUTFIT_BEAR_OUTFIT_34_cls-5" d="M282.38,359.15a2.74,2.74,0,0,0-.09-.39c0-.12-.07-.24-.11-.36h0a2.85,2.85,0,0,0-.26-.56.24.24,0,0,0-.06-.11h0a3,3,0,0,0-.15-.26.21.21,0,0,1,0-.06l-.19-.24a2.75,2.75,0,0,0-.44-.46,3.17,3.17,0,0,0-.39-.34h0l-.32-.2-.07,0,0,0L280,356s0,0,0,0l-.4-.17a1.75,1.75,0,0,0-.51-.14l-.19,0-.24,0a2.6,2.6,0,0,0-.4,0,3.71,3.71,0,0,0-.81.08,4.42,4.42,0,0,0-3.32,5.19s0,.07,0,.11h0a1.82,1.82,0,0,0,.07.25,3.13,3.13,0,0,0,.19.54,1.59,1.59,0,0,0,.12.27.85.85,0,0,0,.13.25l.18.29.13.18.13.17a3.87,3.87,0,0,0,.4.41,3,3,0,0,0,.4.32l.2.14.09.06.2.11.07,0,.32.14a1.69,1.69,0,0,0,.27.1l.3.08a1.55,1.55,0,0,0,.31.06,3.92,3.92,0,0,0,2.47-.42A4.48,4.48,0,0,0,282.38,359.15Zm-3.57,1.37,0,0a.86.86,0,0,1-.14.13h0a.85.85,0,0,1-.22.09.72.72,0,0,1-.85-.51,1.32,1.32,0,0,1,.49-.06l.26.05a1.36,1.36,0,0,1,.33.14Z" />
      <path class="BUNTAI_BEAR_OUTFIT_BEAR_OUTFIT_34_cls-5" d="M282.73,427.16c-.88-8.31-2.25-36.29-2.75-46.7-.12-2.46-.19-3.94-.19-3.94l-2.66-.33-2.6-.31s-.3,1.3-.76,3.77c-.62,3.35-1.53,8.84-2.37,16.13a334.25,334.25,0,0,0-2.1,38.45,17.69,17.69,0,0,0,6.18,3.57,12.67,12.67,0,0,0,4.32.59,9.83,9.83,0,0,0,4-1Z" />
      <path class="BUNTAI_BEAR_OUTFIT_BEAR_OUTFIT_34_cls-5" d="M210.41,355.66a4.2,4.2,0,0,0-4.91,3.49,5.1,5.1,0,0,0-.08.86c0,.12,0,.24,0,.36a2.21,2.21,0,0,0,0,.37l.06.3a4.88,4.88,0,0,0,.2.65,3.47,3.47,0,0,0,.26.55,2.5,2.5,0,0,0,.21.35l.13.18a2.09,2.09,0,0,0,.14.17l.3.32a2.09,2.09,0,0,0,.22.2l.1.08h0c.11.09.23.17.35.25h0l.25.14h0a4,4,0,0,0,3,.31,4.65,4.65,0,0,0,.7-.28,3.67,3.67,0,0,0,.93-.64l.12-.12.12-.13a2.73,2.73,0,0,0,.23-.25,3.39,3.39,0,0,0,.37-.56,2.11,2.11,0,0,0,.16-.3,1.69,1.69,0,0,0,.13-.31,2.55,2.55,0,0,0,.11-.33c0-.1.06-.2.08-.3a.5.5,0,0,0,0-.13s0,0,0-.06A4.42,4.42,0,0,0,210.41,355.66Zm-.31,4.94-.07,0s0,0,0,0a.28.28,0,0,1-.13.07l-.07,0-.18,0-.16,0h0l-.2-.08a.85.85,0,0,1-.17-.16,1.09,1.09,0,0,1,.17-.13,1.36,1.36,0,0,1,.33-.14l.26-.05a1.27,1.27,0,0,1,.48.06.67.67,0,0,1-.09.21A.77.77,0,0,1,210.1,360.6Z" />
      <path class="BUNTAI_BEAR_OUTFIT_BEAR_OUTFIT_34_cls-5" d="M214.11,379.65c-.46-2.47-.76-3.77-.76-3.77l-2.59.31-2.67.33s-.06,1.48-.19,3.94c-.49,10.41-1.86,38.39-2.74,46.7l-1.1,10.27a9.83,9.83,0,0,0,4,1,12.64,12.64,0,0,0,4.32-.59,17.72,17.72,0,0,0,6.19-3.57,336.22,336.22,0,0,0-2.11-38.45C215.64,388.49,214.74,383,214.11,379.65Z" />
      <path class="BUNTAI_BEAR_OUTFIT_BEAR_OUTFIT_34_cls-9" d="M278.82,360.51a.78.78,0,0,0,.18-.67.75.75,0,0,0-.88-.62.79.79,0,0,0-.59.93.42.42,0,0,0,0,.1.72.72,0,0,0,.84.52A.75.75,0,0,0,278.82,360.51Z" />
      <path class="BUNTAI_BEAR_OUTFIT_BEAR_OUTFIT_34_cls-9" d="M280.15,364a4.49,4.49,0,0,0,2.23-4.8,4.19,4.19,0,0,0-4.91-3.49,4.5,4.5,0,0,0-2,7.67,4,4,0,0,0,3.55,1A4.08,4.08,0,0,0,280.15,364Z" />
      <path class="BUNTAI_BEAR_OUTFIT_BEAR_OUTFIT_34_cls-9" d="M277.57,360.25a1.86,1.86,0,0,1,.48-.06,1.42,1.42,0,0,1,.77.32h0a4.65,4.65,0,0,1,1.32,3.43,7.79,7.79,0,0,1,0,.83c-.16,2.43-1.35,4.33-2.67,4.24h0c-1.29-.15-2.2-2.18-2-4.58a5.51,5.51,0,0,1,.14-1.1" />
      <polyline class="BUNTAI_BEAR_OUTFIT_BEAR_OUTFIT_34_cls-9" points="277.13 376.2 277.13 376.19 277.41 369.01 277.47 367.34" />
      <path class="BUNTAI_BEAR_OUTFIT_BEAR_OUTFIT_34_cls-9" d="M273.77,379.65c.46-2.47.77-3.77.77-3.77l2.59.31,2.66.33s.07,1.48.19,3.94c.5,10.41,1.87,38.39,2.75,46.7l1.09,10.27a9.83,9.83,0,0,1-4,1,12.67,12.67,0,0,1-4.32-.59,17.69,17.69,0,0,1-6.18-3.57,334.25,334.25,0,0,1,2.1-38.45C272.24,388.49,273.15,383,273.77,379.65Z" />
      <line class="BUNTAI_BEAR_OUTFIT_BEAR_OUTFIT_34_cls-9" x1="273.77" y1="379.65" x2="279.98" y2="380.46" />
      <path class="BUNTAI_BEAR_OUTFIT_BEAR_OUTFIT_34_cls-9" d="M277.29,403.63s.54,24,2.51,34.76" />
      <path class="BUNTAI_BEAR_OUTFIT_BEAR_OUTFIT_34_cls-9" d="M274.5,395.72s0,.16,0,.45c-.29,3.31-1.95,24.72,1,41.62" />
      <path class="BUNTAI_BEAR_OUTFIT_BEAR_OUTFIT_34_cls-9" d="M209.06,360.51a.81.81,0,0,1-.18-.67.75.75,0,0,1,.88-.62.78.78,0,0,1,.59.93.38.38,0,0,1,0,.1.73.73,0,0,1-.85.52A.75.75,0,0,1,209.06,360.51Z" />
      <path class="BUNTAI_BEAR_OUTFIT_BEAR_OUTFIT_34_cls-9" d="M207.74,364a4.48,4.48,0,0,1-2.24-4.8,4.19,4.19,0,0,1,4.91-3.49,4.5,4.5,0,0,1,2,7.67,4,4,0,0,1-3.55,1A3.89,3.89,0,0,1,207.74,364Z" />
      <path class="BUNTAI_BEAR_OUTFIT_BEAR_OUTFIT_34_cls-9" d="M210.32,360.25a1.91,1.91,0,0,0-.48-.06,1.45,1.45,0,0,0-.78.32h0a4.65,4.65,0,0,0-1.31,3.43,7.72,7.72,0,0,0,0,.83c.16,2.43,1.36,4.33,2.67,4.24h.06c1.29-.15,2.19-2.18,2-4.58a6.34,6.34,0,0,0-.15-1.1" />
      <polyline class="BUNTAI_BEAR_OUTFIT_BEAR_OUTFIT_34_cls-9" points="210.75 376.2 210.76 376.19 210.47 369.01 210.41 367.34" />
      <path class="BUNTAI_BEAR_OUTFIT_BEAR_OUTFIT_34_cls-9" d="M214.11,379.65c-.46-2.47-.76-3.77-.76-3.77l-2.59.31-2.67.33s-.06,1.48-.19,3.94c-.49,10.41-1.86,38.39-2.74,46.7l-1.1,10.27a9.83,9.83,0,0,0,4,1,12.64,12.64,0,0,0,4.32-.59,17.72,17.72,0,0,0,6.19-3.57,336.22,336.22,0,0,0-2.11-38.45C215.64,388.49,214.74,383,214.11,379.65Z" />
      <line class="BUNTAI_BEAR_OUTFIT_BEAR_OUTFIT_34_cls-9" x1="214.11" y1="379.65" x2="207.9" y2="380.46" />
      <path class="BUNTAI_BEAR_OUTFIT_BEAR_OUTFIT_34_cls-9" d="M210.6,403.63s-.55,24-2.52,34.76" />
      <path class="BUNTAI_BEAR_OUTFIT_BEAR_OUTFIT_34_cls-9" d="M213.38,395.72s0,.16.05.45c.28,3.31,1.95,24.72-1,41.62" />
      <path class="BUNTAI_BEAR_OUTFIT_BEAR_OUTFIT_34_cls-9" d="M209.76,359.22s33.29,16.61,68.36,0" />
      <g class="BUNTAI_BEAR_OUTFIT_BEAR_OUTFIT_34_cls-10">
        <path d="M72.9,406.31c-9.88-10.45-40.9-26.75-53.8-31,.72-2.54,1.41-4.94,2-7h0a.29.29,0,0,0,0-.09c.76.5,1.55,1,2.36,1.52l.12.07.14.09A148.26,148.26,0,0,0,41,379.37l.05,0h0c13.79,6.15,27.54,17.05,31.8,26.85Z" />
        <path d="M71.41,426.69c-.16-.8-16-21.28-26.33-26.61,15,19.4,22.15,32.59,22.15,32.59a51.58,51.58,0,0,0-33.08-13.95c-20.25-.64-10.91,13.19-10.91,13.19a111.83,111.83,0,0,0,10-6.85c3.93-3.17,23.46,8.12,32.05,17.88a250.61,250.61,0,0,0,17.93,18.17h5.86S75,444.56,71.41,426.69Z" />
        <path d="M98.63,359.49s-18.69,20.89-21,34C81.58,374.8,87.59,364.91,98.63,359.49Z" />
        <path d="M75.07,398.81S87.15,459.18,156,459.18s84.53-6.85,84.53-6.85v5.84s-34.39,31.57-88,29.42-72.13-37.54-72.13-37.54S71.2,433.84,71,423.34,75.07,398.81,75.07,398.81Z" />
        <path d="M378.1,398.81s-10.05,60.37-67.29,60.37-70.33-6.85-70.33-6.85v5.84s28.61,31.57,73.22,29.42,60-37.54,60-37.54,7.61-16.21,7.75-26.71S378.1,398.81,378.1,398.81Z" />
        <path d="M255.9,386.27l-.19.24-.27.31-4.88,5.94-.14.17-.23.27-.09.1-.11.14,0,.05-9.27,11.21-.1-.1-.27-.27-.22-.22C237.51,401.61,227,391.36,214,379h0L211,376.16l-.3-.28c-5.17-4.92-10.64-10.09-16.08-15.18l-.07-.06c-4.21-3.93-8.4-7.81-12.42-11.5-11.62-10.63-30.6-25-48-37.55l-.11-.08-.39-.28c-11-8-21.41-15.2-28.85-20.33l.09-.08a72.35,72.35,0,0,0,6.46-6.57c8.41,4.67,20.3,11.4,32.88,18.92h0c3.63,2.17,7.32,4.41,11,6.67a0,0,0,0,0,0,0c12.78,7.87,25.45,16.15,35.22,23.57,13.94,10.6,28.55,22.33,40.44,32h0c5,4.13,9.56,7.86,13.34,11C251.43,382.47,255.9,386.27,255.9,386.27Z" />
        <path d="M238.08,330.25l-.21.31-4,5.88-.13-.1-.11-.08-.14-.11c-3.38-2.47-27.9-20.31-48.38-33.55-7-4.51-13.48-8.48-18.52-11.13-1.82-1-3.76-2-5.77-3-12.94-6.56-29.14-14.17-39.74-19.09l.27-.56A66.68,66.68,0,0,0,125.65,257c14.94,6.26,43.52,19.17,64.85,34C220.23,311.68,238.08,330.25,238.08,330.25Z" />
        <path d="M416.87,432.74c-6.32,15.42-17.57,26.89-19.07,28.37l-.17.17H365.72l-1.53-.16,8.19-17a121.76,121.76,0,0,1,6.84-22.07c.36-.86.78-1.74,1.26-2.66v0c.24-.47.5-.94.77-1.43,6.46-11.54,19.95-25.64,20.53-26.2l14.07-11.21.12.59-3.91,4.07a68.22,68.22,0,0,0-2.21,8.11c-1.25,5.21-2.84,12.35-4.31,19.62-2.8,13.89-17.09,40.53-17.09,40.53S399.6,450.05,416.87,432.74Z" />
        <path d="M353.7,355.57s19.82,28.58,22.81,40.15C372.06,375.21,371.33,362.32,353.7,355.57Z" />
        <path d="M338.59,303c-6.83,5.91-14.74,13-23.21,20.86-.28.26-.57.54-.87.8L313.05,326l-.68.65c-.86.8-1.74,1.63-2.61,2.48s-1.76,1.69-2.64,2.56c-.44.42-.89.85-1.33,1.29l-.86.84-.85.84C296.63,342,289,350,281.85,357.71h0l-2.79,3c-1,1-1.91,2.08-2.85,3.1h0l-.85.93c-12.47,13.65-22.3,25.07-24.8,28l-.46.54-.11.14,0,.05-.07-.06-11.8-10.27a84.41,84.41,0,0,1,6.16-6.67c2-2,4.54-4.59,7.87-7.85l2.74-2.65c2.62-2.53,5.62-5.41,9.09-8.68C274.76,347.08,297.72,329,318.61,313l0,0h0l5.25-4c4-3,7.85-6,11.48-8.71l3.15,2.62h0Z" />
        <path d="M155.76,438.4s36.44-12.25,50.31-16.66l.17-9.62s-25.65,15.22-38,18.39-32.79,13.83-32.79,13.83Z" />
        <path d="M217.68,408.58l.91,9.76s30.27-3.55,50.71-5.58l1.36-9.77L243,407.81C236.4,409,217.68,408.58,217.68,408.58Z" />
        <path d="M281,400.2l.58,10.34s16.24-3.87,29.12-7.55,25.69-6.34,23.51-6.34-31.33,5.46-37.6,6.34S281,400.2,281,400.2Z" />
        <path d="M232.76,425.31s13.55-3.67,16.9-4.82,14.57-3.73,14.57-3.73-15.88,8.17-21.56,9.95-24.08,12.81-24.08,12.81,8.7-7.61,10.71-10S232.76,425.31,232.76,425.31Z" />
      </g>
    </g>
  </g>
</svg>