<svg xmlns="http://www.w3.org/2000/svg" viewBox="0 0 432 432">
  <defs>
    <style>.BUNTAI_BEAR_OUTFIT_BEAR_OUTFIT_29_cls-1{isolation:isolate;}.BUNTAI_BEAR_OUTFIT_BEAR_OUTFIT_29_cls-2{fill:#fff;}.BUNTAI_BEAR_OUTFIT_BEAR_OUTFIT_29_cls-3{fill:#2d3447;}.BUNTAI_BEAR_OUTFIT_BEAR_OUTFIT_29_cls-4{fill:#639a9f;}.BUNTAI_BEAR_OUTFIT_BEAR_OUTFIT_29_cls-5{fill:#e97d7a;}.BUNTAI_BEAR_OUTFIT_BEAR_OUTFIT_29_cls-6{fill:#f4b645;}.BUNTAI_BEAR_OUTFIT_BEAR_OUTFIT_29_cls-7,.BUNTAI_BEAR_OUTFIT_BEAR_OUTFIT_29_cls-9{fill:none;stroke:#000;stroke-linecap:round;stroke-linejoin:round;}.BUNTAI_BEAR_OUTFIT_BEAR_OUTFIT_29_cls-7{stroke-width:1.93px;}.BUNTAI_BEAR_OUTFIT_BEAR_OUTFIT_29_cls-8{opacity:0.43;mix-blend-mode:multiply;}.BUNTAI_BEAR_OUTFIT_BEAR_OUTFIT_29_cls-9{stroke-width:2.12px;}</style>
  </defs>
  <g class="BUNTAI_BEAR_OUTFIT_BEAR_OUTFIT_29_cls-1">
    <g id="outfit">
      <path class="BUNTAI_BEAR_OUTFIT_BEAR_OUTFIT_29_cls-2" d="M101.87,369.43c4.94,0,8.95,3.6,8.95,8s-4,8-8.95,8-8.94-3.6-8.94-8S96.93,369.43,101.87,369.43Z" />
      <path class="BUNTAI_BEAR_OUTFIT_BEAR_OUTFIT_29_cls-3" d="M7,380.27l5.86,1.05-.77-.09-.22,0-2.47-.28q-1-.12-2-.21l-.52-.06C7,380.41,7,380.27,7,380.27Z" />
      <path class="BUNTAI_BEAR_OUTFIT_BEAR_OUTFIT_29_cls-3" d="M75.8,388.13h0a.14.14,0,0,1,0,.06v0h0v0h0q-.16.53-.3,1.05a.94.94,0,0,0,0,.16v0a0,0,0,0,0,0,0c-.08.27-.15.55-.23.82-.11.43-.23.86-.33,1.29-.21.82-.41,1.64-.59,2.46l-.09.38c0,.07,0,.15-.05.22l-.09.46,0,.11-.18.92a1.36,1.36,0,0,0-.06.29l-.15.76-2.76-1.13-.27-.1-.44-.18c-.19-.09-.39-.16-.58-.24l-1.45-.55-.65-.25-.82-.3h0l0,0h-.08c-.68-.27-1.36-.52-2-.77s-1.24-.45-1.86-.66a4.43,4.43,0,0,0-.47-.17l-.9-.32-1.4-.48-2.13-.71a3.73,3.73,0,0,0-.44-.14l-.93-.32-1.17-.37-.24-.08-.8-.24L53.2,390l-2-.62-.22-.06-.31-.1-1.16-.33c-1-.3-2-.58-3-.86h-.09l-.69-.19-1.45-.4c-.72-.19-1.45-.38-2.17-.55l-.14,0h0l-2-.49-2-.47L37,385.6l-2-.46h0l-2.27-.49c-.78-.17-1.55-.33-2.33-.48h-.12l-.17,0H30c-.66-.14-1.31-.27-2-.39-.28-.05-.55-.11-.83-.15l-1.45-.26-1.07-.2-4-.66h0l-.49-.08-2.71-.4-.61-.1-.25,0-2.34-.31-.87-.12-.56-.07c1.87-3.75,5-9.11,8.18-14.43,2.21-3.67,4.47-7.32,6.41-10.41A126.32,126.32,0,0,1,75.8,388.13Z" />
      <path class="BUNTAI_BEAR_OUTFIT_BEAR_OUTFIT_29_cls-3" d="M424.1,381.93h0c-5.42.72-7,1.66-13.43,3.12l-.06,0c-7.19,1.64-9.28,2.71-16.23,5.22l-.07,0q-6.56,2.37-12.9,5.21c-.59.26-1.19.54-1.81.83-.11-.56-.23-1.13-.35-1.69s-.21-.95-.32-1.42c-.05-.24-.11-.48-.17-.72s-.11-.48-.18-.72c-.13-.55-.27-1.09-.42-1.64s-.38-1.36-.58-2l-.08-.26v0a1.24,1.24,0,0,0,0-.16c0-.15-.09-.3-.14-.45l0-.09a.14.14,0,0,1,0-.06h0v0s0-.07,0-.11a.43.43,0,0,0,0-.05h0l0-.08h0s0,0,0,0a0,0,0,0,1,0,0l0-.11,0,0a0,0,0,0,0,0,0,.14.14,0,0,0,0-.07v-.05a110.93,110.93,0,0,1,27.29-23.16l.33-.2.73-.44.1-.06.42-.24,1.43-.87,0,.09c3.36,6.71,7.9,15.78,10.59,21.19l.68-.1c1-.16,2-.3,3.06-.43l.35-.05.5-.07.42-.05,1.06-.16Z" />
      <path class="BUNTAI_BEAR_OUTFIT_BEAR_OUTFIT_29_cls-4" d="M90.67,461.45H-20c.53-4.94,1.28-11.22,2.26-17.84h0c2.41-16.32,6.18-34.66,11.43-39.77A43.17,43.17,0,0,0-2.06,399a57.08,57.08,0,0,0,8.91-18.24l0-.11.52.05q1,.09,2,.21l2.47.28,2.42.3c.53.06,1.07.13,1.6.21l.17,0,1.43.2c1.07.15,2.14.31,3.2.48h0L24,383l1.72.31,1.45.26.27.05c.84.15,1.69.32,2.53.49h.13l.13,0h.16c.78.15,1.55.31,2.33.48l2.27.49h0l2,.46.91.21,2,.47,2,.49h0l.14,0,1.81.46,1.81.49.76.2h0c1,.28,2,.56,3,.86l1.47.43.22.06,2,.62,1.69.52.24.08.31.1c.6.19,1.19.38,1.79.59l.12,0,.32.11,2.13.71,1.4.48.9.32a4.43,4.43,0,0,1,.47.17l1.95.7,2,.73h.09l0,0h0l1.44.54h0l1.41.55.62.24.44.18q1.53.6,3,1.23h0c-.09.49-.18,1-.26,1.46Q73,401,72.7,403.17c0,.11,0,.23,0,.35-.06.43-.11.87-.14,1.31,0,.22,0,.43-.07.66,0,.44-.08.88-.11,1.33a2.46,2.46,0,0,0,0,.28c0,.66-.09,1.32-.12,2,0,.14,0,.28,0,.42q0,.92-.06,1.83c0,1.18,0,2.37,0,3.56,0,.31,0,.61,0,.92,0,.51,0,1,.07,1.54a0,0,0,0,0,0,0c0,.47,0,.95.09,1.43,0,.33,0,.66.07,1,0,0,0,.09,0,.14,0,.42.08.86.13,1.29,0,.28.06.56.09.84a2.89,2.89,0,0,0,0,.29c0,.24,0,.48.08.72s.09.65.14,1a3.41,3.41,0,0,0,.06.43,4.71,4.71,0,0,0,.08.5c0,.11,0,.22,0,.34s.07.49.12.74c.09.53.18,1.06.29,1.6q.24,1.26.54,2.52c.1.44.2.88.32,1.32,0,.21.1.43.16.64s.11.42.17.63c.25.94.52,1.87.81,2.8s.69,2.07,1.07,3.1c.19.52.39,1,.59,1.54s.42,1,.64,1.54l.72,1.61c.22.47.44.95.67,1.41.12.24.23.48.35.71l.09.17.18.34c.1.2.2.4.31.6.72,1.38,1.5,2.73,2.32,4.06.24.39.49.78.74,1.16s.65,1,1,1.47.48.7.73,1c.39.55.79,1.1,1.2,1.64.16.21.32.43.49.64s.5.65.76,1l.76.93.33.39c.24.28.48.58.74.86l0,.05.34.38C89.9,460.61,90.28,461,90.67,461.45Z" />
      <path class="BUNTAI_BEAR_OUTFIT_BEAR_OUTFIT_29_cls-4" d="M461.7,462.38l-97.11-.9-1.86,0h0c.45-.49.9-1,1.33-1.48.1-.1.19-.21.28-.32s.45-.51.66-.76c.69-.82,1.37-1.66,2-2.5.16-.2.31-.39.45-.59s.33-.43.48-.65l.46-.63c.16-.21.31-.42.45-.64s.32-.46.49-.7c.57-.84,1.12-1.68,1.65-2.54.2-.31.39-.63.57-.94a.93.93,0,0,0,.11-.19c.18-.29.34-.57.5-.86.43-.73.83-1.46,1.21-2.2l.25-.47c.41-.8.8-1.6,1.18-2.41l.33-.72c.33-.72.64-1.44.93-2.17.1-.24.2-.48.29-.72.17-.43.34-.87.5-1.3s.37-1,.54-1.54.32-.95.47-1.43h0a3.37,3.37,0,0,0,.1-.34l.12-.38a2.76,2.76,0,0,0,.08-.27l.06-.19a.75.75,0,0,0,0-.16,0,0,0,0,1,0,0l.24-.84s0-.05,0-.08c.06-.2.12-.41.17-.61l.05-.17c0-.14.08-.29.11-.44v0a1.33,1.33,0,0,1,.05-.19l.12-.49a1.6,1.6,0,0,0,.05-.21.8.8,0,0,0,0-.21.14.14,0,0,1,0-.06h0a0,0,0,0,0,0,0h0s0,0,0,0,.06-.19.08-.29.09-.42.14-.63h0c.06-.23.11-.45.15-.67s.13-.61.2-.91v0h0a.08.08,0,0,1,0,0l0-.19a.36.36,0,0,1,0-.11s0-.07,0-.1,0-.07,0-.1.05-.27.08-.4,0,0,0-.07a.22.22,0,0,0,0-.08c0-.1,0-.19.06-.29a90667303548.37,90667303548.37,0,0,0,0-.14.53.53,0,0,0,0-.12l.06-.37c0-.08,0-.17.05-.26a2.17,2.17,0,0,0,0-.25c0-.2.07-.4.1-.6.06-.36.11-.72.16-1.06,0,0,0-.05,0-.07l.12-.85h0v0a.2.2,0,0,0,0-.07,0,0,0,0,0,0,0q.11-.72.18-1.44a.08.08,0,0,1,0,0s0-.08,0-.12c0-.28.06-.57.08-.85a.49.49,0,0,0,0-.12l0-.31a.49.49,0,0,0,0-.12h0v-.11c0-.38.07-.76.1-1.14v0s0,0,0,0c0-.48.07-1,.09-1.43v0c0-.48,0-1,.07-1.44,0-.94,0-1.89,0-2.84,0-.32,0-.64,0-1,0-.18,0-.36,0-.55,0-.35,0-.71,0-1.06,0-.12,0-.23,0-.34v0c0-.21,0-.41,0-.61s0-.3,0-.45a1.09,1.09,0,0,0,0-.18c0-.16,0-.31,0-.47s0-.11,0-.16,0-.22,0-.32,0-.21,0-.31l0-.42a.49.49,0,0,0,0-.12V407c0-.29-.05-.59-.07-.88l0-.3s0,0,0-.05v-.08c0-.05,0-.11,0-.16v0a1,1,0,0,0,0-.17.66.66,0,0,0,0-.14c0-.17,0-.34,0-.5-.05-.54-.11-1.08-.17-1.61v0a.34.34,0,0,1,0-.1.36.36,0,0,1,0-.11c0-.26-.06-.53-.1-.79s-.07-.53-.11-.79-.09-.64-.14-1a2.33,2.33,0,0,0-.05-.28c-.06-.42-.12-.83-.2-1.24s-.17-1-.27-1.53c0-.14,0-.28-.08-.42s-.07-.34-.1-.51c.62-.29,1.22-.57,1.81-.83,11.61-5.39,19.27-8.94,29-11.27,2.36-.57,4.86-1.07,7.56-1.5l.68-.1c1-.16,2-.3,3.06-.43l.35-.05.5-.07.42-.05,1.09-.13h0c.38.56,4.34,6.33,10.44,17.1,3.91,6.91,8.71,15.87,14,26.84a175.58,175.58,0,0,1,11.61,29.91h0C460.85,458.39,461.34,460.57,461.7,462.38Z" />
      <path class="BUNTAI_BEAR_OUTFIT_BEAR_OUTFIT_29_cls-2" d="M351.49,369.43c4.94,0,8.95,3.6,8.95,8s-4,8-8.95,8-8.94-3.6-8.94-8S346.55,369.43,351.49,369.43Z" />
      <path class="BUNTAI_BEAR_OUTFIT_BEAR_OUTFIT_29_cls-5" d="M332.42,428.71c0,.56,0,1.11,0,1.67,0,1.37-.12,2.76-.27,4.16-.05.49-.1,1-.17,1.48-.13,1-.28,2-.45,3,0,0,0,0,0,.06-.09.5-.19,1-.3,1.52s-.16.79-.26,1.18-.19.84-.3,1.25c-.27,1.12-.59,2.25-.94,3.38-.1.33-.21.66-.32,1a66.53,66.53,0,0,1-3.74,9.1c-.23.48-.47,1-.73,1.44q-1,2-2.3,4.11c-.24.39-.47.79-.72,1.18-.48.78-1,1.57-1.52,2.36-.26.4-.53.79-.81,1.19-.39.58-.8,1.17-1.23,1.75s-.72,1-1.09,1.48c-.73,1-1.51,2-2.33,3-.56.69-1.13,1.38-1.72,2.07-1.44,1.68-3,3.39-4.6,5.09a32.77,32.77,0,0,1-7.47,5.22c-20.52,1.1-46.74-.08-75.17-3.35-19.61,4-39.79,4.63-57.2,3.93a90.54,90.54,0,0,1-9.88-5.8c-.6-.54-1.21-1.07-1.79-1.6s-1.17-1.08-1.72-1.63-1.09-1.06-1.61-1.59a77.71,77.71,0,0,1-8.51-10.16l-1-1.5c-.3-.45-.6-.9-.87-1.35a65.82,65.82,0,0,1-5.87-11.72c-.16-.4-.31-.81-.46-1.21,0-.09-.06-.18-.08-.27-.15-.41-.3-.82-.42-1.22a64.31,64.31,0,0,1-2.66-11.34c0-.23-.07-.48-.09-.71s-.08-.49-.1-.74,0-.37-.06-.55c-.06-.52-.11-1-.16-1.56-.09-1-.15-2-.2-3v-.11c-.05-1.05-.08-2.1-.08-3.13,0-.81,0-1.61,0-2.41a.14.14,0,0,0,0-.09c0-.79.08-1.6.13-2.37s.11-1.61.19-2.4.16-1.58.26-2.36.21-1.54.33-2.31.24-1.52.38-2.28.26-1.37.41-2.05a93.71,93.71,0,0,1,2.87-10.6q.32-1,.66-1.92c.22-.63.44-1.24.68-1.86s.45-1.2.69-1.79.47-1.15.71-1.71.47-1.11.7-1.65a105.71,105.71,0,0,1,6.25-12.08l.45-.7c.54-.87.94-1.46,1.14-1.76l.15-.21,1.1-14.48q3.76.85,7.46,1.59c5.78,1.15,11.45,2.09,17.14,2.87,6.46.87,13,1.53,19.63,2q4.14.3,8.41.52l.36,0c4.63.23,9.39.4,14.34.51a1.69,1.69,0,0,1-.29.17l-.06,0h1.15c2.76,0,5.46,0,8.09-.05h.28l6.74-.1c23-.47,41.83-1.95,62-6q3.69-.74,7.46-1.59l1.64,12.14.07.07.21.17a.58.58,0,0,1,.15.13l.17.15c.14.1.29.24.45.38l.26.23c.52.46,1.17,1,1.93,1.77l.47.46.53.53.47.47.77.78,1.44,1.53.4.44c1.64,1.8,3.45,3.94,5.28,6.37.32.42.63.84.95,1.29,1.29,1.75,2.56,3.65,3.8,5.67.32.51.62,1,.93,1.55a77,77,0,0,1,4.25,8.42c.15.35.29.69.43,1.05a.67.67,0,0,1,.06.15c.15.34.29.67.41,1,.27.69.53,1.38.77,2.09.06.15.11.31.16.47.23.65.44,1.32.64,2a1,1,0,0,1,.08.23c.24.77.45,1.55.67,2.34s.4,1.66.59,2.5c.11.45.2.89.28,1.34.05.24.1.49.14.74.26,1.36.46,2.73.61,4.13.06.56.12,1.11.16,1.68,0,.2,0,.41,0,.61.05.62.08,1.24.1,1.87S332.42,428,332.42,428.71Z" />
      <path class="BUNTAI_BEAR_OUTFIT_BEAR_OUTFIT_29_cls-3" d="M381.27,412.15c0-.18,0-.36,0-.55,0-.35,0-.71,0-1.06,0-.12,0-.23,0-.34v0c0-.21,0-.41,0-.61s0-.42,0-.63l0-.47c0-.06,0-.11,0-.16,0-.21,0-.42,0-.63l0-.42a.49.49,0,0,0,0-.12V407a1.21,1.21,0,0,1,0-.19,2,2,0,0,0,0-.25v0a.76.76,0,0,1,0-.15.77.77,0,0,1,0-.15c0-.13,0-.26,0-.39s0,0,0-.05a.25.25,0,0,0,0-.08s0-.07,0-.11v-.05h0s0-.08,0-.11,0,0,0,0v0a.66.66,0,0,0,0-.14c0-.17,0-.34,0-.5-.05-.54-.11-1.08-.17-1.61v0a.34.34,0,0,1,0-.1.34.34,0,0,0,0-.1c0-.27-.07-.53-.11-.8s-.07-.53-.11-.79-.1-.74-.16-1.1-.09-.63-.14-.94c-.12-.65-.23-1.31-.35-2l-.09-.42c0-.17-.07-.34-.1-.51-.11-.56-.23-1.13-.35-1.69s-.21-.95-.32-1.42c-.05-.24-.11-.48-.17-.72s-.11-.48-.18-.72c-.13-.55-.27-1.09-.42-1.64s-.38-1.36-.58-2l-.08-.26v0a0,0,0,0,1,0,0c-.07-.22-.12-.42-.17-.6l0-.09a.14.14,0,0,1,0-.06h0v0s0-.07,0-.11a.43.43,0,0,0,0-.05s0,0,0,0a.64.64,0,0,0,0-.07h0a0,0,0,0,1,0,0v0a.49.49,0,0,1,0-.11l0,0a0,0,0,0,0,0,0h0s0,0,0-.06h0v-.05c-.24-.76-.48-1.52-.74-2.27q-.27-.81-.57-1.62c-.21-.61-.44-1.22-.67-1.82s-.55-1.42-.84-2.13c-.14-.33-.27-.67-.41-1s-.17-.39-.25-.58l-.21-.5a1.59,1.59,0,0,0-.12-.27c-.37-.86-.75-1.71-1.16-2.56l-.38-.81c-.41-.87-.84-1.75-1.29-2.62-.31-.61-.64-1.23-1-1.84s-.72-1.33-1.09-2-.75-1.33-1.14-2h0c-.43-.72-.87-1.44-1.31-2.16-.17-.28-.34-.56-.53-.85s-.35-.56-.54-.84c-.39-.63-.81-1.25-1.23-1.87l-.56-.84-.2-.28c-.59-.86-1.2-1.71-1.82-2.55-.36-.5-.73-1-1.11-1.49l-.7-.91c.27-.92.53-1.85.79-2.78.12-.41.23-.83.33-1.24a5.62,5.62,0,0,0,.15-.55c.21-.79.42-1.58.61-2.37.3-1.16.57-2.33.84-3.5s.53-2.33.78-3.5c.47-2.28.91-4.57,1.3-6.85.06-.32.11-.64.16-1s.14-.8.2-1.2.17-1.05.24-1.57c0-.17.05-.35.08-.52L362,325.26l-1.63-1.4c-1.14-1-2.37-2-3.66-3.14-.49-.41-1-.84-1.48-1.27l-1.54-1.33-2.1-1.82-1.06-.93h0l-.06,1.17c-.06,1.16-.14,2.34-.22,3.51,0,.4-.05.8-.09,1.21s-.06.8-.1,1.2,0,.54-.07.81c-.07.87-.14,1.74-.23,2.6s-.18,1.81-.28,2.71c0,.16,0,.32-.05.47-.09.86-.19,1.71-.31,2.56,0,.38-.09.75-.14,1.13s-.1.65-.14,1a.09.09,0,0,0,0,.05c-.07.49-.13,1-.2,1.46,0,0,0,0,0,.06l-.3,1.91c0,.16,0,.32-.08.48a.68.68,0,0,0,0,.14c-.06.38-.13.76-.2,1.14,0,.2-.06.4-.1.6s-.06.35-.1.52c-.07.4-.15.8-.22,1.19-.23,1.19-.47,2.35-.73,3.49-.35,1.52-.72,3-1.12,4.45l-3,1-2.28.77-2.57.86-1.28.42-1.25.4h0l-1.1.36-1.09.35h0l-2.06.65-.1,0h0l-.69.21-1.45.45h0l-2.12.64-1.81.55-.31.09h0l-.93.27-1.17.34c-1.39.41-2.76.8-4.14,1.19-2.63.73-5.21,1.41-7.75,2.06s-5,1.25-7.52,1.82h0l.55,4,.28,2,.82,6.07h0l.12.09.19.16h0l.17.15a.3.3,0,0,0,.08.08l.07.05.07.06a.81.81,0,0,0,.13.11l0,0,.14.13.08.07h0l0,0,.06.05,0,0h0a0,0,0,0,0,0,0h0l0,0,.31.28.07.06h0l.14.13.13.13.37.34h0l.14.13s0,0,.05.05l.21.2s0,0,0,0a.12.12,0,0,1,.05.05l.09.08.51.48.24.24.32.31.21.22,0,0a2,2,0,0,1,.21.2l.22.23h0l.32.33a.1.1,0,0,0,0,0h0l.1.1.29.29h0c.1.1.2.2.29.31l1,1.13.11.12c.1.11.21.22.31.34a.6.6,0,0,0,.08.08h0a.46.46,0,0,1,.07.07h0l.13.15c.13.15.27.29.41.44h0l.08.09,0,.05h0l.31.36.83,1,.05.05.11.13.1.12.75.91c.13.15.26.31.38.47l.09.1c.36.44.72.9,1.08,1.36a1.83,1.83,0,0,0,.13.16c.12.14.23.29.34.44l.35.46.47.63.25.35c.08.1.15.21.22.31h0l.25.35c.09.12.18.24.26.37.25.34.5.69.74,1.05s.67,1,1,1.47l.26.39.36.55h0a.41.41,0,0,0,.05.09l.2.32.21.33.38.61c.08.13.16.26.23.39s.13.21.19.31a1.79,1.79,0,0,1,.13.22.8.8,0,0,1,.09.14l.15.24c.08.12.16.26.23.39l.09.16c.17.3.34.59.5.89l.3.55.18.32a4.67,4.67,0,0,1,.27.49l.29.55.3.57c.09.17.18.33.26.5,0,0,0,0,0,0h0c.11.22.22.44.32.66s.31.61.45.92a5.77,5.77,0,0,1,.27.56.37.37,0,0,1,0,.11c.19.4.37.8.55,1.21l.39.89c.09.19.16.38.24.57l0,0c0,.08.07.17.1.26a.62.62,0,0,1,.07.19l.06.15h0c.11.25.21.51.31.76a2.6,2.6,0,0,0,.1.25l.16.43c.08.2.16.4.23.61a.42.42,0,0,1,0,.1l.11.32c.08.21.15.42.22.63s.11.31.16.47l.06.15c.08.22.15.44.22.66s.14.42.2.63.07.22.11.34l.06.22s0,0,0,0,0,0,0,0a.14.14,0,0,1,0,.06v0a.24.24,0,0,1,0,.08c.06.17.11.34.16.51a.29.29,0,0,1,0,.09c.06.18.12.37.17.55.11.39.22.78.32,1.18a1,1,0,0,1,.05.16c0,.14.07.28.1.41s0,.14.05.22a1.16,1.16,0,0,1,0,.18.14.14,0,0,1,0,.07.19.19,0,0,1,0,.08.2.2,0,0,0,0,.07v.06c0,.11.06.21.08.32a1.68,1.68,0,0,1,.06.24v0s0,.05,0,.08l0,.13c0,.16.07.32.1.47h0c0,.11,0,.22.07.33a.35.35,0,0,1,0,.14.25.25,0,0,0,0,.08.19.19,0,0,1,0,.07c0,.11.05.22.07.33a.22.22,0,0,1,0,.08,1.16,1.16,0,0,1,0,.18s0,0,0,0q.07.31.12.63c.08.39.15.78.21,1.18,0,.23.08.45.11.68l0,.18.06.44.06.44v.1c.07.55.14,1.11.19,1.67,0,.16,0,.32,0,.49s0,.37.05.57a1.11,1.11,0,0,1,0,.19,0,0,0,0,1,0,0s0,0,0,0,0,0,0,0a.77.77,0,0,1,0,.15c0,.24,0,.48.05.73,0,0,0,0,0,0s0,0,0,0,0,0,0,0,0,0,0,0,0,0,0,0h0a1.93,1.93,0,0,1,0,.24.13.13,0,0,1,0,.06,3.19,3.19,0,0,1,0,.45c0,.39,0,.78.05,1.18v.31c0,.18,0,.36,0,.54,0,.59,0,1.18,0,1.78,0,.13,0,.27,0,.41s0,0,0,0,0,0,0,0a0,0,0,0,1,0,.05s0,0,0,0,0,.19,0,.3a5,5,0,0,1,0,.54c0,.2,0,.41,0,.62,0,.43-.05.88-.08,1.33l0,.41c0,.07,0,.14,0,.22l-.09,1-.09.74c0,.15,0,.3-.05.46s0,.18,0,.28l-.06.47v0c0,.11,0,.22-.05.33a0,0,0,0,1,0,0,2.08,2.08,0,0,1,0,.23c0,.15,0,.29-.07.44a.78.78,0,0,0,0,.16c0,.15-.05.3-.08.46-.05.34-.11.67-.17,1s-.1.6-.16.9c0,0,0,0,0,0s-.05.22-.07.33,0,0,0,0,0,0,0,0a.43.43,0,0,0,0,.05c0,.17-.07.36-.11.53a5.23,5.23,0,0,1-.12.54h0s0,.07,0,.1-.05.24-.08.36l-.12.46c0,.11-.05.24-.08.35s0,0,0,0c-.06.27-.13.55-.21.83a.22.22,0,0,1,0,.1s0,0,0,0h0l0,.1a.15.15,0,0,1,0,.06,1.05,1.05,0,0,1-.06.24l-.06.23-.05.17h0s0,.05,0,.08l0,0a1.94,1.94,0,0,1,0,.2,1.17,1.17,0,0,1-.05.2c-.05.17-.11.34-.16.51s-.07.25-.11.37-.06.23-.1.35l0,.05c-.06.2-.12.39-.19.58s-.06.18-.08.26l0,0c-.11.35-.22.69-.35,1l0,.07,0,.1a.07.07,0,0,1,0,.05c-.07.21-.15.41-.22.62v0s0,0,0,0a1.66,1.66,0,0,1-.12.31c-.07.21-.15.42-.23.63s-.17.45-.26.67-.17.44-.26.66l-.13.31s0,0,0,0l-.06.15c0,.12-.09.23-.14.35s0,0,0,.05l-.16.36a1.42,1.42,0,0,1-.08.18,0,0,0,0,1,0,0l0,0c-.15.36-.31.72-.47,1.08,0,0,0,0,0,0a1.63,1.63,0,0,0-.11.23c-.22.48-.45,1-.68,1.44l-.25.51,0,.07-.16.33c-.19.39-.39.78-.6,1.16s-.35.68-.54,1-.22.43-.35.64l0,0-.06.11-.06.12c-.26.48-.53.95-.81,1.43l-.07.11-.31.52-.08.14s0,0,0,0l-.2.33a.05.05,0,0,1,0,0,1,1,0,0,1-.08.14l-.39.63-.42.68a.42.42,0,0,1-.08.12c-.45.72-.93,1.44-1.42,2.16l-.15.22c-.13.19-.26.39-.4.58l-.14.21h0l-.17.25-.13.2-.12.17,0,0-.17.24c-.27.39-.56.78-.85,1.17q-.16.24-.36.48c-.05.07-.1.15-.16.22l-.78,1c-.12.17-.25.33-.38.5h0l0,0L314.9,473l-.11.13,0,0q-.4.51-.84,1l-.16.18,0,.05-.06.06a3.15,3.15,0,0,1-.24.3l0,0-.12.14-.12.14q-.17.21-.36.42l-.3.35-.42.49a.6.6,0,0,0-.08.08l-.36.42c-.54.61-1.1,1.23-1.68,1.85l-.6.64c-.25.28-.51.55-.78.83a32.6,32.6,0,0,1-7.48,5.22l2.39-.14c1.56-.1,3.09-.21,4.58-.34l1.11-.1,1.1-.1.89-.09.87-.09c.54,0,1.08-.11,1.61-.18l1.65-.2,2.14-.29c.81-.11,1.6-.23,2.38-.36l1.16-.2,1.14-.2,1.3-.25c.71-.14,1.4-.28,2.06-.43l1.13-.26,1.29-.32c.5-.12,1-.25,1.46-.39l.6-.17c.81-.23,1.58-.47,2.31-.73l1.09-.38c.72-.23,1.44-.46,2.14-.71s1.19-.42,1.79-.65,1.15-.45,1.72-.69l.91-.39.91-.41c1.51-.68,3-1.41,4.43-2.21l.61-.33q2-1.09,3.85-2.32c.62-.41,1.25-.83,1.86-1.25s1.2-.86,1.8-1.3c.42-.31.85-.63,1.25-1s.9-.71,1.35-1.09.84-.69,1.24-1.06l.71-.59c.23-.21.47-.41.69-.63l.22-.2c.41-.38.83-.77,1.22-1.16h0l0,0c.51-.49,1-1,1.49-1.49s.74-.75,1.1-1.14h0q.58-.63,1.14-1.26h0A2.09,2.09,0,0,0,364,460l.31-.36c.33-.37.65-.75,1-1.13s.57-.68.84-1v0l0,0,.05-.06c.42-.53.84-1.06,1.24-1.6a.76.76,0,0,0,.08-.11c.45-.6.89-1.2,1.31-1.81.17-.23.32-.46.49-.7.57-.84,1.12-1.68,1.65-2.54,0-.09.1-.19.16-.28l.41-.66.11-.19c.17-.28.34-.57.5-.86.43-.73.83-1.46,1.21-2.2l.25-.47c.41-.8.8-1.6,1.18-2.41l.33-.72c.33-.72.64-1.44.93-2.17.1-.24.2-.48.29-.72.17-.43.34-.87.5-1.3s.37-1,.54-1.54.32-.95.47-1.43h0a2,2,0,0,0,.07-.23l0-.1.12-.38a.19.19,0,0,1,0-.08l.06-.19a3.58,3.58,0,0,0,.11-.35,0,0,0,0,1,0,0l.24-.84s0-.05,0-.08c.06-.2.12-.41.17-.61s0-.11,0-.17,0-.13.05-.19a2.33,2.33,0,0,0,.07-.25v0a1.33,1.33,0,0,1,.05-.19l.12-.49a1.6,1.6,0,0,0,.05-.21s0,0,0,0v0l0-.09v0a.45.45,0,0,1,0-.11h0a0,0,0,0,0,0,0h0s0,0,0,0,.06-.19.08-.29.09-.42.14-.63h0c0-.16.07-.31.1-.46s0-.14.05-.21,0-.17.05-.25l.15-.68h0a.08.08,0,0,1,0,0l0-.19a.36.36,0,0,1,0-.11s0-.07,0-.1,0-.07,0-.1a.45.45,0,0,0,0-.11,2.21,2.21,0,0,0,.05-.25l0,0s0,0,0-.07a.22.22,0,0,0,0-.08.13.13,0,0,0,0-.06h0l0-.24a0,0,0,0,0,0,0h0a.17.17,0,0,0,0-.07.53.53,0,0,0,0-.13c0-.12.05-.24.08-.36l.06-.36,0-.15c0-.2.07-.4.1-.6.06-.36.11-.72.16-1.06,0,0,0-.05,0-.07l.12-.79v-.06h0v-.06a0,0,0,0,0,0,0c0-.2.06-.4.08-.6s.07-.56.1-.84a.08.08,0,0,1,0,0s0-.08,0-.12c0-.28.06-.57.08-.85a.49.49,0,0,0,0-.12c0-.1,0-.2,0-.31a.74.74,0,0,0,0-.12h0V420c0-.36.07-.73.09-1.09,0,0,0,0,0,0h0s0,0,0,0c0-.37.06-.73.08-1.1,0-.11,0-.22,0-.33v0c0-.48,0-1,.07-1.44,0-.94,0-1.89,0-2.84C381.28,412.8,381.28,412.48,381.27,412.15ZM346.15,371l.27-.16.22-.14.28-.16a1.37,1.37,0,0,1,.32-.16l.44-.21a2,2,0,0,1,.34-.13,9.74,9.74,0,0,1,2.57-.59,6.75,6.75,0,0,1,.91-.05,6.94,6.94,0,0,1,.91.05,7.84,7.84,0,0,1,1.75.32c.28.08.55.17.82.27a2.78,2.78,0,0,1,.4.16,9,9,0,0,1,1.81,1l.4.32a5.89,5.89,0,0,1,.53.48l.29.29h0l.25.3.2.24.17.24a4.7,4.7,0,0,1,.46.73c.05.08.1.15.14.23s.16.33.23.49.13.32.19.48.09.29.13.44a2.37,2.37,0,0,1,.09.36l.06.27a2.7,2.7,0,0,1,0,.28,5,5,0,0,1,.06.56c0,.16,0,.32,0,.48s0,.34,0,.51a3.79,3.79,0,0,1-.07.6c0,.14,0,.28-.07.41l-.12.49c-.05.16-.1.32-.16.47s-.13.35-.2.51l-.2.41a4.63,4.63,0,0,1-.24.43c-.14.23-.29.45-.45.67s-.16.21-.25.31a7.82,7.82,0,0,1-.55.6c-.11.11-.21.21-.32.3l-.33.28-.61.46c-.27.17-.54.34-.82.48a6.77,6.77,0,0,1-.66.33h0c-.22.09-.45.18-.69.26l-.5.16c-.21.06-.42.11-.64.15a3.86,3.86,0,0,1-.49.09l-.38.05a5.25,5.25,0,0,1-.57.05,5.62,5.62,0,0,1-.58,0c-4.94,0-8.94-3.61-8.94-8a5.63,5.63,0,0,1,0-.58,2.2,2.2,0,0,1,0-.36c0-.12,0-.24.05-.36s.06-.32.1-.47l.06-.24a2.09,2.09,0,0,0,.08-.23l.12-.35c0-.12.09-.23.14-.35s.22-.45.34-.67l.21-.36.24-.35a6.6,6.6,0,0,1,.72-.88l.34-.34c.16-.15.32-.3.5-.44S345.94,371.18,346.15,371Z" />
      <path class="BUNTAI_BEAR_OUTFIT_BEAR_OUTFIT_29_cls-3" d="M168.17,485.61l-.25-.13c-.42-.21-.85-.42-1.27-.65l-.08,0c-.45-.23-.9-.48-1.32-.73-1.29-.72-2.51-1.46-3.53-2.1l-.33-.21-.33-.2c-.41-.26-.77-.49-1.08-.71l-.28-.19-.25-.16-.21-.15-.24-.15-.07-.05-.06,0h0c-.45-.39-.89-.78-1.33-1.19l-.46-.41h0l-.22-.2c-.36-.33-.73-.67-1.08-1l-.62-.59-.62-.61-.38-.36-.07-.08s0,0,0,0,0,0,0,0l0,0s0,0,0,0l0,0,0,0,0,0a1.7,1.7,0,0,1-.19-.19l-.26-.26-.77-.81-.31-.33h0l0,0a0,0,0,0,1,0,0h0s0,0,0,0h0l-.05-.06,0-.06s0,0,0,0l0,0h0l-.51-.55a3.58,3.58,0,0,1-.26-.29c-.24-.25-.46-.5-.68-.75l-.05,0v0h0c-.44-.49-.86-1-1.27-1.47l-.19-.23L149,470l0,0c-.27-.32-.53-.62-.77-.95l-.15-.19v0l0,0,0,0,0-.05,0-.05-.12-.16-.15-.19-.66-.86-.23-.31-.11-.15s0,0,0,0h0l-.41-.55c-.21-.27-.41-.55-.6-.82l-.19-.27v0l-.11-.16,0,0c-.28-.42-.58-.83-.85-1.25-.06-.08-.11-.17-.16-.25l-.11-.16-.27-.41,0,0s0,0,0-.06a2.39,2.39,0,0,1-.13-.21c0-.05-.07-.11-.11-.17a1.75,1.75,0,0,1-.18-.29c-.08-.11-.15-.23-.22-.35a.16.16,0,0,1,0-.07l-.06-.09a1.74,1.74,0,0,1-.11-.18h0c-.15-.26-.32-.51-.46-.77s-.47-.8-.7-1.2a2.43,2.43,0,0,1-.15-.26l-.16-.29c-.09-.14-.16-.28-.23-.41s-.12-.21-.17-.32a4.77,4.77,0,0,1-.24-.44l-.19-.37a.2.2,0,0,1,0-.08,2.19,2.19,0,0,1-.16-.3l-.08-.16-.15-.3c-.21-.4-.4-.8-.59-1.2,0,0,0,0,0,0l-.12-.24a1.89,1.89,0,0,1-.11-.25h0a1.38,1.38,0,0,1-.1-.22,0,0,0,0,0,0,0h0l0-.06s0,0,0-.05a.17.17,0,0,1,0-.05l-.06-.13a2.11,2.11,0,0,1-.17-.38s0,0,0,0a2,2,0,0,1-.12-.26l-.11-.26s0,0,0,0l-.23-.56h0s0,0,0,0a.31.31,0,0,1-.05-.1.31.31,0,0,1,0-.1,1.19,1.19,0,0,1-.08-.2c-.06-.14-.12-.28-.17-.42s0,0,0,0c-.11-.25-.21-.49-.3-.73l-.12-.29c-.06-.14-.12-.29-.17-.44h0l-.09-.24a1.12,1.12,0,0,1,0-.13c0-.1-.07-.19-.1-.29l-.06-.15c0-.09-.07-.18-.1-.27a.38.38,0,0,1-.05-.12h0c-.08-.22-.15-.43-.22-.64a2.25,2.25,0,0,1-.08-.24.3.3,0,0,1,0-.1c-.13-.37-.25-.73-.36-1.1a5.84,5.84,0,0,1-.2-.59c0-.08,0-.16-.07-.24l-.1-.34c0-.1-.06-.22-.09-.33a2.07,2.07,0,0,1-.1-.33c-.05-.15-.09-.3-.13-.44h0q-.13-.45-.24-.9a2,2,0,0,1-.07-.23.74.74,0,0,1,0-.14.65.65,0,0,0,0-.13l0-.15a.7.7,0,0,1,0-.14c-.07-.28-.14-.57-.2-.85a1.43,1.43,0,0,1-.07-.28q-.16-.68-.3-1.35c0-.07,0-.15-.05-.23h0s0,0,0,0,0-.06,0-.09a.17.17,0,0,1,0-.07c0-.07,0-.14-.05-.22a0,0,0,0,0,0,0s0,0,0-.07l-.12-.61v0a.06.06,0,0,1,0,0s0-.05,0-.08,0-.15,0-.22a.59.59,0,0,1,0-.13c-.06-.32-.11-.64-.17-1a.36.36,0,0,0,0-.1h0c-.06-.33-.11-.66-.15-1l0-.21a.62.62,0,0,0,0-.13l0-.16a.17.17,0,0,1,0-.07l0-.23a1.11,1.11,0,0,1,0-.17.25.25,0,0,1,0-.08v-.06a.13.13,0,0,1,0-.06.58.58,0,0,1,0-.19.76.76,0,0,1,0-.21c0-.18-.05-.37-.07-.55l0-.28c0-.26-.06-.52-.08-.78s-.05-.47-.07-.71l0-.29v-.07c0-.29-.05-.58-.07-.87s0-.4,0-.6h0c0-.2,0-.4,0-.6s0-.4,0-.6v-.14c0-.47,0-.94,0-1.4,0-1,0-2,0-2.94a0,0,0,0,1,0,0s0,0,0,0,0,0,0,0a.34.34,0,0,1,0-.1h0s0,0,0,0,0,0,0,0h0s0,0,0,0,0,0,0,0v-.06a.11.11,0,0,1,0-.08v-.24a.57.57,0,0,0,0-.13c0-.13,0-.25,0-.37v-.13c0-.18,0-.37,0-.55s0-.26,0-.39v-.07h0a.38.38,0,0,1,0-.1v0c0-.26,0-.53,0-.79s0-.51.05-.77,0-.5.06-.76,0-.22,0-.33l0-.33h0a.41.41,0,0,1,0-.11v-.08c0-.08,0-.16,0-.25s0-.09,0-.13,0-.1,0-.15a1,1,0,0,0,0-.16l.06-.6c.05-.48.11-1,.17-1.45,0-.18,0-.37.08-.56a.34.34,0,0,0,0-.1c0-.11,0-.21,0-.32a.5.5,0,0,1,0-.12.57.57,0,0,1,0-.12v0a.25.25,0,0,1,0-.08l0-.24,0-.17c0-.3.08-.59.13-.89a2.51,2.51,0,0,0,0-.27v0l.09-.54c.06-.38.13-.76.19-1.13h0c0-.11.05-.22.07-.33s0-.22.07-.34,0-.06,0-.09l.06-.35h0c.15-.75.31-1.48.47-2.21a1.16,1.16,0,0,1,0-.18.31.31,0,0,1,0-.08c0-.1,0-.21.07-.32a.43.43,0,0,0,0-.05l0-.14c0-.06,0-.11,0-.17a.83.83,0,0,1,0-.15c0-.13.06-.27.1-.4.1-.44.21-.88.33-1.31a.14.14,0,0,0,0-.06,2,2,0,0,0,.05-.24.14.14,0,0,0,0-.06l.09-.36.09-.34q0-.15.09-.33v0s0,0,0,0v0h0v0s0,0,0-.06.07-.27.11-.4.09-.35.14-.52.09-.32.14-.47,0,0,0,0,.08-.29.12-.44.05-.18.08-.28a.13.13,0,0,1,0-.06l.12-.41a.05.05,0,0,0,0,0s0-.05,0-.07,0-.15.07-.23a1.21,1.21,0,0,1,0-.14l.18-.58a2.76,2.76,0,0,1,.08-.27c.32-1,.65-2,1-2.93v0h0s0-.08,0-.13c.39-1.08.78-2.14,1.19-3.16.11-.29.22-.57.34-.85.28-.7.57-1.39.86-2.06l0-.08c.09-.21.18-.43.28-.64v0c.14-.33.29-.65.44-1,.25-.57.51-1.12.76-1.66,0-.09.08-.17.11-.25l.1-.19c0-.07.07-.15.11-.22l.1-.22c.05-.09.09-.19.13-.28h0c.11-.24.23-.47.34-.7l.08-.17a2.26,2.26,0,0,0,.11-.22h0l.14-.28c.05-.11.11-.22.17-.33l.17-.34.28-.53,0-.08c.11-.22.22-.43.34-.64s.21-.41.32-.61l.09-.18.22-.39.53-1,0-.06.27-.48.26-.46a.75.75,0,0,0,.07-.12,2.39,2.39,0,0,1,.13-.21c.14-.24.27-.47.41-.69l0-.08.09-.16,0-.07h0a.61.61,0,0,0,.07-.1l.07-.12.16-.26h0a.43.43,0,0,1,0-.07l.11-.19.12-.19.15-.23s0,0,0,0h0A.75.75,0,0,1,148,378l.07-.12,0-.08h0l.18-.28h0a.43.43,0,0,0,0-.07c.12-.2.24-.38.35-.54a.41.41,0,0,1,.05-.09h0v0l0,0v0s0,0,0,0l.06-.09.06-.09a.25.25,0,0,1,0-.07l.07-.12a.36.36,0,0,1,.08-.09.58.58,0,0,0,.07-.11h0l1.1-14.47-1.74-.41-1.76-.41-3.28-.81-2.05-.52-.56-.15-2.15-.57L136,358.1c-1.54-.42-3.07-.86-4.64-1.31L129,356.1l-2.39-.72-2.12-.64c-1.41-.44-2.85-.89-4.3-1.36l-1.09-.35-1.1-.36h0l-2.53-.82-1.92-.64-.64-.22-2.34-.79-2.91-1c-.18-.66-.36-1.33-.53-2-.07-.25-.13-.49-.19-.74-.14-.56-.28-1.13-.4-1.7-.36-1.56-.67-3.17-1-4.8-.13-.75-.27-1.51-.4-2.28-.27-1.63-.51-3.27-.73-4.93l-.24-1.91c0-.19,0-.39-.07-.59s0-.43-.08-.65c-.07-.59-.13-1.17-.2-1.76,0,0,0-.09,0-.13,0-.42-.09-.84-.13-1.27s-.08-.75-.11-1.12c0-.05,0-.1,0-.15s0-.32,0-.49,0-.33,0-.49c0-.32-.06-.64-.08-1,0-.11,0-.22,0-.32a5.29,5.29,0,0,1,0-.56,2.64,2.64,0,0,1,0-.28c0-.17,0-.35,0-.53a1.36,1.36,0,0,0,0-.2l-.09-1.27c-.09-1.28-.17-2.57-.24-3.84,0-.43,0-.86-.07-1.28,0-.21,0-.42,0-.63l-.09-1.9c0-.85-.07-1.69-.1-2.53s0-1.53-.07-2.29,0-1.53,0-2.28v-.09c0-.49,0-1,0-1.45s0-1,0-1.49,0-1,0-1.48c0-1,0-1.94,0-2.89V297c-.91.6-1.8,1.2-2.65,1.79-.57.39-1.13.78-1.67,1.17s-1.12.8-1.65,1.19l-.71.51-.37.28-1,.73-.59.45-.47.36-1,.75-.76.59-1.11.89-.62.51-.68.56-.09.07-.21.17-.32.28-.08.06-.36.31-.53.45-.91.79h0c0,.75.09,1.49.14,2.24.09,1.26.19,2.5.29,3.75.06.71.12,1.42.19,2.13h0l.18,1.75c0,.44.09.87.14,1.31l.15,1.31c.1.87.21,1.73.32,2.6q.45,3.48,1,6.95h0c.57,3.46,1.25,6.92,2,10.34.19.86.39,1.72.6,2.57.15.64.31,1.28.47,1.93q.72,2.88,1.54,5.75v0a1,1,0,0,1,.05.16c0,.07,0,.13.06.19s.06.22.09.33l.06.2a.38.38,0,0,0,0,.1l0,.11q-.19.27-.42.54c-.28.36-.56.73-.83,1.1-.13.19-.26.37-.4.55l0,.06s0,0,0,0v0l-.15.2-.06.06-.06.09v0h0s0,0,0,0l0,0a.13.13,0,0,1,0,.06h0v0l0,.06-.75,1c-.55.76-1.08,1.53-1.59,2.3l-.24.37c-.51.77-1,1.55-1.51,2.33s-.83,1.33-1.23,2a1.74,1.74,0,0,1-.11.18l-.66,1.11c-.22.37-.43.74-.64,1.11l-.35.64-.45.8-.43.81c-.19.33-.36.67-.54,1s-.27.52-.41.78c-.34.67-.68,1.34-1,2-.13.26-.25.51-.37.77l-.49,1.05-.48,1c-.33.71-.64,1.42-.94,2.14s-.52,1.23-.77,1.85-.49,1.24-.73,1.86q-1.4,3.66-2.49,7.39h0a.14.14,0,0,1,0,.06v.06h0v0h0a.49.49,0,0,1,0,.11h0c-.08.31-.17.62-.25.93l-.06.21,0,0v0a2.17,2.17,0,0,0-.07.24c0,.17-.09.35-.14.53h0c-.11.39-.21.79-.31,1.18a.36.36,0,0,0,0,.1c-.06.26-.12.52-.19.78q-.21.84-.39,1.68l-.12.53a.19.19,0,0,0,0,.07h0c0,.17-.07.34-.1.52a1.84,1.84,0,0,0,0,.25,0,0,0,0,0,0,0s0,0,0,0a0,0,0,0,0,0,0c-.12.57-.23,1.14-.34,1.71h0c-.09.49-.18,1-.26,1.46Q73,401,72.7,403.17c0,.2,0,.4-.07.6s0,.28,0,.43c0,.43-.09.86-.13,1.29a.17.17,0,0,1,0,.07l-.09,1.13,0,.41c0,.66-.09,1.32-.12,2,0,.14,0,.28,0,.42q0,.92-.06,1.83c0,1.18,0,2.37,0,3.56,0,.31,0,.61,0,.92a1.93,1.93,0,0,0,0,.24c0,.11,0,.22,0,.32v.19s0,.07,0,.1c0,.23,0,.46,0,.69a0,0,0,0,0,0,0c0,.47,0,.95.09,1.43,0,.33,0,.66.07,1l0,.34c0,.15,0,.29,0,.44s0,.44.07.65.06.56.09.84a2.89,2.89,0,0,0,0,.29c0,.16,0,.32,0,.49s0,.11,0,.17c0,.34.09.69.15,1l.06.43.06.39a.52.52,0,0,0,0,.11c0,.1,0,.2,0,.31a0,0,0,0,0,0,0c0,.18,0,.35.08.53a1.55,1.55,0,0,0,0,.21c.09.53.18,1.06.29,1.6q.24,1.26.54,2.52c.1.44.21.88.32,1.32,0,.21.1.43.16.64s.12.42.17.63c.25.94.52,1.87.81,2.8s.68,2.07,1.06,3.1c.19.52.39,1,.6,1.54s.42,1,.64,1.54l.72,1.61c.22.47.44.95.67,1.41l.09.2c.09.17.18.34.26.51l.09.17.18.34c.1.2.2.4.31.6.2.39.41.77.62,1.15s.55,1,.83,1.46.57,1,.87,1.45l.45.72c.09.15.19.29.29.44.32.5.65,1,1,1.47s.48.7.73,1c.39.55.79,1.1,1.2,1.64s.82,1.08,1.25,1.61l.43.54.33.39.33.39c.24.29.49.58.74.86l0,.05.34.38c.37.43.75.85,1.14,1.27v0c.46.5.93,1,1.42,1.48l.37.37c.2.21.41.41.62.61s.33.33.51.49a.52.52,0,0,0,.11.1c.13.14.27.26.4.38s.41.38.62.56l.57.53h0l.46.39a.46.46,0,0,0,.07.07l0,0,.56.49.12.09c.29.26.6.52.91.76l.18.16.41.33.17.13.43.34a2.86,2.86,0,0,0,.35.28.21.21,0,0,0,.08.06,1.46,1.46,0,0,0,.21.16l.89.68.2.14.16.12.37.27.18.13.65.46.26.18c.35.25.71.49,1.07.72s.76.51,1.15.75a1.14,1.14,0,0,0,.23.15c.46.29.92.58,1.39.86l.44.25,1,.6.43.24h0l.08.05.14.08,1.67.89.05,0,1.66.81.33.15.31.15,1.06.47.4.18c.27.12.52.23.79.33l.1,0,.13.05c.36.16.72.31,1.1.45l.07,0,.17.07.08,0h0l.06,0,.06,0c.46.18.93.35,1.41.52h0l.19.07.54.19.11,0,.42.15,1.31.43h0l.08,0h0l.07,0,.1,0h.07l.34.08.23,0,.52.11.71.14.58.11.08,0,.41.08.71.13.18,0h0l.2,0,.27.05h0l.34.06.15,0h0l.21.05,1.51.27.43.07h0l.09,0,.14,0,.15,0,.08,0,.4.07.42.07,2.19.36,1.5.24.78.12.81.12,1.68.24.75.11.77.11.22,0,.91.12,1.87.25.83.11,1,.13,1.09.13,2,.24,3.18.35,3.33.33,2.3.21,2.35.2,1.19.09,2.73.2,2.81.18,3.19.18,1.3.06,1.27.05Zm-66.3-100.09-.6,0-.37,0c-.24,0-.47-.05-.7-.09l-.13,0-.57-.13a4.58,4.58,0,0,1-.66-.19,6,6,0,0,1-.64-.23l-.41-.18-.22-.1-.33-.18a1.38,1.38,0,0,1-.24-.14l-.38-.23a6.16,6.16,0,0,1-.71-.52l-.17-.14a7.28,7.28,0,0,1-.7-.66,2,2,0,0,1-.19-.22,7.13,7.13,0,0,1-.68-.88,6,6,0,0,1-.36-.6,7.89,7.89,0,0,1-.33-.72,3.41,3.41,0,0,1-.18-.48c0-.14-.09-.29-.13-.44s-.07-.3-.1-.45-.06-.34-.08-.52a.13.13,0,0,1,0-.06,7.37,7.37,0,0,1,0-.82c0-.16,0-.32,0-.48a.28.28,0,0,1,0-.09,4.36,4.36,0,0,1,.05-.52s0,0,0,0,0-.25.07-.37,0-.21.07-.31.11-.39.17-.58.15-.4.24-.6.15-.33.24-.49.25-.41.39-.62l.11-.16a4.61,4.61,0,0,1,.28-.38l.21-.27c.12-.14.24-.27.37-.4a4.17,4.17,0,0,1,.37-.36,9.07,9.07,0,0,1,.9-.71l.34-.22a8.36,8.36,0,0,1,.83-.46l.39-.19a7.47,7.47,0,0,1,.79-.29l.11,0,.55-.16.31-.07.37-.08a1.45,1.45,0,0,1,.3,0h.08l.52,0a4.19,4.19,0,0,1,.5,0h.34a6.75,6.75,0,0,1,.91.05,7.73,7.73,0,0,1,1.75.32,5.62,5.62,0,0,1,.82.27,2.09,2.09,0,0,1,.4.16,9.15,9.15,0,0,1,1.94,1.14l.27.22c.14.11.27.23.4.35l.38.38,0,0c.1.12.21.24.31.37a4.63,4.63,0,0,1,.32.42,5.58,5.58,0,0,1,.46.73l.18.33a2.87,2.87,0,0,1,.18.4,2,2,0,0,1,.11.26,7.24,7.24,0,0,1,.25.79c0,.14.07.29.1.44s0,.22,0,.33a5,5,0,0,1,.06.56c0,.16,0,.32,0,.48C110.82,381.91,106.81,385.52,101.87,385.52Z" />
      <path class="BUNTAI_BEAR_OUTFIT_BEAR_OUTFIT_29_cls-6" d="M301.21,341c2.37,15,16.23,14.07,16.23,14.07s-13.88-6.82-11.06-16.3,20.9-11.42,24.35.16a16.07,16.07,0,0,1-4,16.41q4.21-1.28,8.64-2.71a24.71,24.71,0,0,0,3.07-15.26C335.82,318.94,298.83,326,301.21,341Z" />
      <path class="BUNTAI_BEAR_OUTFIT_BEAR_OUTFIT_29_cls-6" d="M347,312.36c-.93.57-1.91,1.11-2.9,1.63s-2,1-3.07,1.48l-1.18.52c-1.6.68-3.23,1.32-4.87,1.92-.72.26-1.45.52-2.18.76l-.28.1-2.16.7c-.67.22-1.34.42-2,.62l-1.93.57-1.19.34c-.95.27-1.89.53-2.8.77l-.94.25c-2.5.67-4.81,1.25-6.81,1.78-.65.17-1.31.36-2,.56l-1.16.37-1.05.35c-.52.18-1,.37-1.55.57s-1.1.43-1.64.67a39.35,39.35,0,0,0-3.86,1.88c-.32.17-.64.35-.95.54-.5.29-1,.6-1.46.92s-.77.52-1.14.79-.67.5-1,.76l-.44.36L298,332a6.17,6.17,0,0,0-.54.48,19.77,19.77,0,0,0-2.6,2.91c-.2.27-.4.55-.59.84s-.37.57-.53.87c-.08.14-.16.27-.23.41l-.21.41c-.09.18-.17.36-.25.54a10,10,0,0,0-.54,1.35,2.65,2.65,0,0,0-.12.37,5.83,5.83,0,0,0-.22.71c-.09.31-.16.63-.22.95a.4.4,0,0,0,0,.15c-.06.27-.1.55-.14.84s-.07.57-.09.86l0,.39a16.94,16.94,0,0,0,.11,3.16c.05.35.1.7.16,1s.11.56.17.84.15.61.23.91.14.49.22.72.21.71.34,1.05a17.24,17.24,0,0,0,1.06,2.25c.2.35.41.7.63,1s.45.66.68,1,.35.43.53.64.3.36.47.53l.34.36c.25.26.51.5.77.73s.48.42.73.62a3.59,3.59,0,0,0,.33.25,4.29,4.29,0,0,0,.5.37l.25.17c.2.14.41.27.62.4a2.26,2.26,0,0,0,.26.16,9.84,9.84,0,0,0,.9.5c.33.18.67.34,1,.49s.68.3,1,.43h0c-2.52.56-5,1.1-7.46,1.58h0c-13-8.65-13.49-24.37-1.52-35.14.64-.58,1.31-1.14,2-1.68.35-.27.71-.54,1.08-.79l0,0,.08-.06.27-.19c.25-.18.51-.35.77-.52l1.2-.76c.41-.25.82-.49,1.25-.73.85-.47,1.74-.93,2.67-1.36s1.87-.84,2.86-1.23,2-.75,3.08-1.09c.6-.19,1.2-.37,1.82-.54l.73-.2.75-.2,1.95-.52,1.88-.54.47-.15,1.37-.42,1.79-.58c1.17-.4,2.31-.81,3.41-1.23l1.29-.5.31-.12.1-.05.16-.06,1.29-.54.95-.41.56-.25c.49-.21,1-.44,1.46-.67s.77-.35,1.14-.54l1.1-.55c.22-.1.43-.21.65-.33q2.15-1.11,4.07-2.25l.36-.21.49-.3.27-.17c.53-.32,1-.64,1.53-1,.22-.13.42-.27.63-.41l.63-.42C342.65,308.49,344.85,310.44,347,312.36Z" />
      <path class="BUNTAI_BEAR_OUTFIT_BEAR_OUTFIT_29_cls-6" d="M115,337.41A24.71,24.71,0,0,0,118,352.67c3,1,5.81,1.86,8.62,2.71a16.11,16.11,0,0,1-4-16.41c3.46-11.58,21.53-9.65,24.36-.16s-11.05,16.3-11.05,16.3.39,0,1.07,0c3.28-.13,13.17-1.58,15.16-14.07C154.54,326,117.55,318.94,115,337.41Z" />
      <path class="BUNTAI_BEAR_OUTFIT_BEAR_OUTFIT_29_cls-6" d="M140.69,318.77c-21-5.34-32.88-15.25-38.24-20.89,0,3.82,0,7.86.2,12,9.94,7.66,26.5,11.42,36,13.93,11.8,3.11,24.57,10.4,22.94,23.43a17.15,17.15,0,0,1-11.26,14.47q3.76.85,7.46,1.59C175.7,351.42,169.88,326.19,140.69,318.77Z" />
      <path class="BUNTAI_BEAR_OUTFIT_BEAR_OUTFIT_29_cls-2" d="M350.49,315.37c0,.39,0,.78-.07,1.17-.06,1.16-.14,2.34-.22,3.51,0,.4-.05.8-.09,1.21-.18,2.45-.4,4.9-.68,7.32,0,.16,0,.32-.05.47-.09.86-.19,1.71-.31,2.56,0,.38-.09.75-.14,1.13s-.1.65-.14,1a.09.09,0,0,0,0,.05c-.07.49-.13,1-.2,1.46,0,0,0,0,0,.06l-.3,1.91c0,.16,0,.32-.08.48a.68.68,0,0,0,0,.14c-.06.38-.13.76-.2,1.14,0,.2-.06.4-.1.6s-.06.35-.1.52c-.07.4-.15.8-.22,1.19-.23,1.19-.47,2.35-.73,3.49-.35,1.52-.72,3-1.12,4.45l-3,1-2.28.77-2.57.86-1.28.42-1.26.41h0a26.5,26.5,0,0,0,1.16-2.4c.19-.42.36-.85.52-1.27a23.68,23.68,0,0,0,1.38-11.59c-2.6-18.47-39.59-11.4-37.21,3.63s16.23,14.08,16.23,14.08-13.88-6.83-11.06-16.31,20.9-11.41,24.36.16a16.09,16.09,0,0,1-4,16.41l-1.81.55-.31.09-.94.28-1.17.34c-1.39.41-2.76.8-4.14,1.19-2.63.73-5.21,1.41-7.75,2.06s-5,1.25-7.52,1.81h0l-1-.43c-.34-.15-.68-.32-1-.49s-.61-.32-.9-.5a2.26,2.26,0,0,1-.26-.16c-.21-.13-.42-.26-.62-.4l-.25-.17c-.17-.12-.34-.24-.5-.37l-.33-.25c-.25-.2-.49-.41-.73-.62s-.52-.47-.77-.73l-.34-.36c-.17-.17-.32-.35-.47-.53s-.36-.42-.53-.64-.46-.63-.68-1-.43-.67-.63-1a17.24,17.24,0,0,1-1.06-2.25q-.1-.27-.18-.54a2.19,2.19,0,0,1-.12-.33c-.09-.29-.18-.59-.26-.9l0-.1c0-.13-.07-.27-.1-.4s-.07-.27-.1-.41-.12-.56-.17-.84-.11-.69-.16-1a16.94,16.94,0,0,1-.11-3.16,2.56,2.56,0,0,1,0-.39c0-.29,0-.58.09-.86s.08-.56.14-.84a.4.4,0,0,1,0-.15c.06-.32.13-.63.22-.95a5.83,5.83,0,0,1,.22-.71,2.29,2.29,0,0,1,.12-.37,10,10,0,0,1,.54-1.35,5.29,5.29,0,0,1,.25-.54l.21-.41c.07-.14.15-.28.23-.41.17-.3.34-.59.53-.87s.39-.57.59-.84a19.77,19.77,0,0,1,2.6-2.91L298,332l.49-.43.44-.36c.32-.26.65-.52,1-.76s.75-.53,1.14-.79,1-.63,1.46-.92c.31-.19.63-.37.95-.54a39.35,39.35,0,0,1,3.86-1.88c.54-.24,1.09-.46,1.64-.67s1-.39,1.55-.57l1.05-.35,1.16-.37c.66-.2,1.32-.39,2-.56,2-.53,4.31-1.11,6.81-1.78l.94-.25c.91-.24,1.85-.5,2.8-.77l1.19-.34,1.93-.57c.66-.2,1.33-.4,2-.62s1.44-.46,2.16-.7l.28-.1c.73-.24,1.46-.5,2.18-.76,1.64-.59,3.27-1.23,4.87-1.92l1.18-.52c1.05-.47,2.07-1,3.07-1.48s2-1.06,2.91-1.62l3.43,3Z" />
      <path class="BUNTAI_BEAR_OUTFIT_BEAR_OUTFIT_29_cls-2" d="M340.53,306.59l-.63.42-.63.41c-.49.33-1,.65-1.53,1l-.27.17-.49.3-.36.21q-1.92,1.14-4.07,2.25c-.22.12-.43.23-.65.33l-1.1.55-1.14.54-1.46.67-.56.25-.95.41-1.29.54-.26.11-.31.12-1.29.5c-1.1.42-2.24.83-3.41,1.23l-1.79.58-1.37.42c-1.39.42-2.83.82-4.3,1.2l-1.48.41c-.62.17-1.22.35-1.82.54-1.06.34-2.08.7-3.08,1.09s-1.94.79-2.86,1.23-1.82.89-2.67,1.36c-.43.24-.84.48-1.25.73l-1.2.76-.57.38c-.13.09-.27.18-.4.29a.65.65,0,0,0-.15.1l0,0c-.37.25-.73.52-1.08.79-.71.54-1.38,1.1-2,1.68-12,10.77-11.51,26.49,1.52,35.14l-.65.13-2.34.45-.65.12-.48.09c-1,.19-2.07.38-3.09.55l-.54.09c-.88.16-1.76.3-2.64.44l-1.11.18-.58.09-.94.14-.75.11-.87.13-.79.11-.57.08-.87.12-.38.05-.88.12-1.05.14-2.47.31-.78.09-1.68.19h-.1l-.39,0-.69.08-.89.1-.74.07-.14,0-.91.09-.39,0-.92.09-3.61.32-.88.08-.38,0-1.54.12-1.12.08-.74.05-.58,0-.27,0-.23,0-.93.06-1.14.07-3.13.18-.81,0-.81,0h-.25l-1.77.08h-.64l-1.38.06-.62,0-.85,0h-.06l-1.34.05-2.26.08h-.53l-.51,0h0l-3.55.09-2.79.07h-1l-2.39,0-3.4.05h-.28l-2.25,0-4.4-.08h-.27l-1.13,0-.83,0h0c.85-.49,1.71-1,2.58-1.54l1.3-.8,1.34-.83h0l1.79-1.12,3.66-2.34,3.74-2.48,2.55-1.71c1.5-1,3-2.05,4.52-3.1a0,0,0,0,1,0,0c1.51-1.06,3-2.13,4.58-3.24h0l2.32-1.66,2.34-1.7h0l4.71-3.47q4.08-3,8.18-6.14c1.83-1.38,3.65-2.78,5.48-4.2s3.66-2.83,5.47-4.25l4.24-3.34c.81-.64,1.62-1.28,2.42-1.93,1.41-1.11,2.81-2.24,4.19-3.35,10.75-8.62,21.09-17.22,30.26-25,.77-.64,1.51-1.28,2.26-1.92,1.13-.94,2.23-1.89,3.31-2.82l2.13-1.82h0l2-1.73a23.21,23.21,0,0,0,1.92,2.93,67.19,67.19,0,0,0,5.45,5.67C333.27,300,336.78,303.23,340.53,306.59Z" />
      <path class="BUNTAI_BEAR_OUTFIT_BEAR_OUTFIT_29_cls-2" d="M138.63,323.8c-9.48-2.51-26-6.27-36-13.93.45,13.39,1.82,27.79,5,39.32,3.56,1.24,7,2.39,10.35,3.48A24.71,24.71,0,0,1,115,337.41c2.6-18.47,39.59-11.41,37.22,3.63-2,12.49-11.88,13.94-15.16,14.07-.68,0-1.07,0-1.07,0s13.87-6.82,11.05-16.3-20.9-11.42-24.36.16a16.11,16.11,0,0,0,4,16.41q4.8,1.46,9.38,2.71c4.9,1.36,9.66,2.55,14.29,3.61a17.15,17.15,0,0,0,11.26-14.47C163.2,334.2,150.43,326.91,138.63,323.8Z" />
      <path class="BUNTAI_BEAR_OUTFIT_BEAR_OUTFIT_29_cls-2" d="M207.35,341.82l-.87.67h0l-31.56,23.67c-5.69-.78-11.35-1.72-17.13-2.87.43-.28.84-.57,1.23-.86s.78-.6,1.15-.91h0c.37-.31.72-.63,1.07-.95s.67-.65,1-1a22.32,22.32,0,0,0,1.75-2.07,20.31,20.31,0,0,0,2.54-4.48c.16-.39.3-.79.44-1.18a19.84,19.84,0,0,0,.63-2.41c.06-.3.11-.6.15-.91a.78.78,0,0,0,0-.22,2.17,2.17,0,0,0,0-.25v0c0-.25.06-.5.07-.75a.25.25,0,0,0,0-.12,2.11,2.11,0,0,0,0-.25.57.57,0,0,0,0-.13c0-.35,0-.68,0-1s0-.68,0-1,0-.46,0-.69a20.33,20.33,0,0,0-.79-4.1c0-.15-.09-.31-.14-.47s-.11-.34-.18-.51c-.12-.38-.27-.75-.42-1.12l0-.07c-.16-.4-.33-.79-.52-1.18s-.38-.75-.58-1.12-.41-.72-.63-1.08l0-.06c-.21-.34-.43-.67-.66-1a1.6,1.6,0,0,0-.16-.23c-.14-.22-.29-.42-.45-.63-.32-.44-.67-.87-1-1.3-.21-.26-.43-.51-.66-.76a31.56,31.56,0,0,0-4-3.74l-.8-.6-.83-.6a36,36,0,0,0-3.32-2.07c-.85-.47-1.74-.92-2.65-1.35l-.22-.11-1.2-.53c-1-.41-1.95-.79-3-1.16-.41-.15-.83-.3-1.26-.43l-1.12-.35-1.23-.36-1.26-.33-1.94-.52a93.83,93.83,0,0,1-14.83-5.41l-.33-.15-.21-.1c-.89-.43-1.76-.86-2.6-1.29-2.36-1.22-4.51-2.48-6.45-3.73l-1.15-.76L112,306c-.38-.26-.75-.53-1.12-.8-.67-.49-1.31-1-1.92-1.45-.4-.31-.79-.62-1.17-.94l-.56-.46c-1.43-1.19-2.65-2.33-3.69-3.36l-1.08-1.1V297c2.06-1.37,4.27-2.78,6.64-4.2a40.6,40.6,0,0,0,4.09-6.1c1.35-2.39,2.65-5.06,3.88-7.82l1.72,1.64c1.27,1.2,2.61,2.47,4,3.77,2.06,1.9,4.26,3.91,6.59,6,.9.8,1.82,1.6,2.75,2.41,3.93,3.44,8.2,7,12.77,10.67.62.51,1.26,1,1.89,1.5a.81.81,0,0,0,.14.12c1.73,1.38,3.5,2.74,5.31,4.11q4.52,3.42,9.29,6.82,2.4,1.68,4.84,3.36c1.1.75,2.21,1.49,3.33,2.23,1,.63,1.92,1.26,2.89,1.88s1.95,1.25,2.93,1.86l.34.21c1,.65,2.07,1.28,3.11,1.91q2.74,1.67,5.53,3.24c.77.45,1.55.88,2.33,1.31l2.16,1.19c1.05.57,2.11,1.13,3.17,1.68l1.39.71c2,1.05,4.06,2,6.09,3,.67.32,1.34.62,2,.92,1.85.85,3.72,1.66,5.59,2.43Z" />
      <path class="BUNTAI_BEAR_OUTFIT_BEAR_OUTFIT_29_cls-3" d="M320.7,283.6a43.77,43.77,0,0,0,2.41,5.13c-.66.56-1.34,1.14-2,1.73h0L319,292.28c-1.08.93-2.18,1.88-3.31,2.82-.75.64-1.49,1.28-2.26,1.92-9.17,7.76-19.51,16.36-30.26,25-1.38,1.11-2.78,2.24-4.19,3.35-.8.65-1.61,1.29-2.42,1.93l-4.24,3.34c-1.81,1.42-3.65,2.84-5.47,4.25s-3.65,2.82-5.48,4.2q-4.09,3.12-8.18,6.14c-1.57,1.17-3.14,2.32-4.71,3.47h0l-2.34,1.7L243.77,352h0c-1.54,1.11-3.07,2.18-4.58,3.24a0,0,0,0,0,0,0c-1.53,1-3,2.09-4.52,3.1l-2.55,1.71-3.74,2.48-3.66,2.34L222.91,366h0l-1.34.83-1.3.8c-.87.53-1.73,1.05-2.58,1.54h0l-1.5,0h-2.67l-.76,0h-.51l-.51,0h-.54l-.57,0h-.22l-1.18,0-.7,0-2.65-.11-2.52-.12H203q-2.14-.1-4.23-.24h0l-1.39-.09-.69-.05-.7,0-.83-.06-.38,0h-.17c.83-.53,2-1.32,3.34-2.29l1.48-1.08.58-.42,1.15-.85c7.25-5.39,17.53-13.43,22.56-17.38l.44-.36,2.58-2q5.76-3.88,11.45-7.83l2-1.38,3.81-2.67c.39-.26.78-.53,1.15-.81l1.11-.78c1.93-1.38,3.86-2.75,5.77-4.13h0l1.6-1.15q6.06-4.38,12-8.84h0l1.4-1,1.39-1,1.42-1.07,4-3c3.44-2.61,6.85-5.27,10.25-7.94,1-.76,2-1.52,2.92-2.31,1.44-1.14,2.9-2.29,4.33-3.45.6-.47,1.18-.94,1.77-1.42q6.17-5,12.24-10t12.34-10.49A87.91,87.91,0,0,0,320.7,283.6Z" />
      <path class="BUNTAI_BEAR_OUTFIT_BEAR_OUTFIT_29_cls-3" d="M215.23,335.93l-7.88,5.89-.1,0c-1.87-.77-3.74-1.58-5.59-2.43-.66-.3-1.33-.6-2-.92-2-.95-4.07-1.94-6.09-3l-1.39-.71c-1.06-.55-2.12-1.11-3.17-1.68l-2.16-1.19c-.78-.43-1.56-.86-2.33-1.31q-2.79-1.57-5.53-3.24l-3.11-1.91-.34-.21c-1-.62-2-1.23-2.93-1.86s-1.93-1.25-2.89-1.88c-1.12-.74-2.23-1.48-3.33-2.23q-2.44-1.68-4.84-3.36-4.77-3.39-9.29-6.82-2.72-2.06-5.31-4.11a.81.81,0,0,1-.14-.12l-1.89-1.5c-4.57-3.65-8.84-7.23-12.77-10.67-.93-.81-1.85-1.61-2.75-2.41-2.33-2.06-4.53-4.07-6.59-6-1.41-1.3-2.75-2.57-4-3.77l-1.72-1.64c1.42-3.19,2.73-6.51,3.91-9.68.77-2.08,1.48-4.1,2.12-6A950,950,0,0,0,215.23,335.93Z" />
      <path class="BUNTAI_BEAR_OUTFIT_BEAR_OUTFIT_29_cls-5" d="M317.63,274.31q-6.12,5.31-12.34,10.49t-12.24,10c-.59.48-1.17.95-1.77,1.42-1.43,1.16-2.89,2.31-4.33,3.45-1,.78-1.94,1.55-2.92,2.31-3.4,2.67-6.81,5.33-10.25,7.94l-4,3L268.4,314l-1.39,1-1.4,1h0q-6,4.47-12,8.84l-1.6,1.15h0c-1.91,1.38-3.84,2.75-5.77,4.13l-1.11.78c-.37.28-.76.55-1.15.81l-3.81,2.67-2,1.38q-5.69,4-11.45,7.83l-2.58,2-.44.36c-5,4-15.31,12-22.56,17.38l-1.15.85-.58.42-1.48,1.08c-1.36,1-2.51,1.76-3.34,2.29h0c-1.67-.12-3.32-.25-5-.39h0c-3.24-.28-6.44-.61-9.63-1l-3.33-.42-1.69-.22,31.56-23.67h0l.05-.05.82-.62,7.88-5.89a950,950,0,0,1-92.13-72.75,91,91,0,0,0,3.15-11.61v0c10.92,10.26,23.69,19.49,35.93,28.5l64.5,47.46,64.5-47.46c2.11-1.55,4.22-3.1,6.32-4.67s4.21-3.12,6.29-4.71c1-.76,2-1.54,3-2.31q2-1.5,3.89-3c.07-.05-.07,0,0-.07q2-1.56,3.91-3.14C315.3,265.7,316.43,270,317.63,274.31Z" />
      <path class="BUNTAI_BEAR_OUTFIT_BEAR_OUTFIT_29_cls-7" d="M126.25,251.55c10.92,10.26,23.69,19.49,35.93,28.5l64.5,47.46" />
      <path class="BUNTAI_BEAR_OUTFIT_BEAR_OUTFIT_29_cls-7" d="M123.1,263.18a950,950,0,0,0,92.13,72.75" />
      <path class="BUNTAI_BEAR_OUTFIT_BEAR_OUTFIT_29_cls-7" d="M94.13,352.64a.36.36,0,0,1,0-.1.38.38,0,0,1,0-.1l-.06-.2c0-.11-.07-.22-.09-.33s0-.12-.06-.19a.83.83,0,0,0,0-.15h0v0c-.55-1.91-1.06-3.83-1.55-5.75-.16-.65-.32-1.29-.47-1.93-.21-.85-.41-1.71-.6-2.57-.77-3.42-1.45-6.88-2-10.34h0q-.59-3.46-1-6.95c-.12-.87-.22-1.73-.32-2.6l-.15-1.31c0-.44-.1-.87-.14-1.31L87.35,317h0c-.07-.71-.13-1.42-.19-2.13-.1-1.25-.2-2.49-.29-3.75-.05-.75-.09-1.5-.13-2.25" />
      <path class="BUNTAI_BEAR_OUTFIT_BEAR_OUTFIT_29_cls-7" d="M75.79,388.13q1.09-3.74,2.49-7.39a110.05,110.05,0,0,1,15.85-28.1" />
      <path class="BUNTAI_BEAR_OUTFIT_BEAR_OUTFIT_29_cls-7" d="M73.59,397.29a89.56,89.56,0,0,1,2.2-9.15" />
      <path class="BUNTAI_BEAR_OUTFIT_BEAR_OUTFIT_29_cls-7" d="M73.59,397.3c-2.59,13.83-2,28.11,3,41.37A69.06,69.06,0,0,0,120,480.1a306.58,306.58,0,0,0,48.74,5.8c17.41.7,37.59.05,57.2-3.93,28.43,3.27,54.65,4.45,75.17,3.35,13.62-.73,24.71-2.44,32.26-5.22.72-.22,1.44-.46,2.14-.71l1.78-.65c.59-.22,1.15-.46,1.72-.7s1.22-.51,1.82-.79c1.51-.68,3-1.41,4.44-2.21l.6-.33a67.7,67.7,0,0,0,7.52-4.88c.42-.31.84-.63,1.25-1s.9-.71,1.35-1.09.84-.69,1.25-1.06.94-.8,1.38-1.22l.23-.2c.42-.39.84-.78,1.23-1.18l0,0c.89-.86,1.75-1.74,2.59-2.64a68.26,68.26,0,0,0,14.12-22.79c.19-.51.38-1,.55-1.55.51-1.48,1-3,1.37-4.48.15-.56.3-1.11.42-1.67a0,0,0,0,0,0-.05c.08-.31.15-.61.22-.92s.14-.61.2-.92.2-.89.27-1.34c.17-.82.32-1.64.45-2.47.06-.35.11-.71.16-1.06.32-2.14.53-4.3.65-6.46,0-.6.06-1.19.09-1.79,0-.95,0-1.89,0-2.84s0-1.72,0-2.58c0-.12,0-.23,0-.35,0-.84-.06-1.69-.13-2.52,0-.44,0-.86-.08-1.28,0-.22-.05-.45-.07-.67-.08-1-.18-1.9-.29-2.85-.06-.52-.14-1.06-.21-1.58-.19-1.33-.41-2.67-.66-4l-.18-.94q-.83-4.16-2-8.22l-.27-.89c-.15-.51-.24-.79-.24-.79-.61-1.93-1.26-3.83-2-5.71a110,110,0,0,0-15.85-28.09" />
      <path class="BUNTAI_BEAR_OUTFIT_BEAR_OUTFIT_29_cls-7" d="M75.8,388.14h0a126.32,126.32,0,0,0-48.37-31.65s-12,18.93-14.59,24.84" />
      <path class="BUNTAI_BEAR_OUTFIT_BEAR_OUTFIT_29_cls-7" d="M6.84,380.66h0l.52.06q1,.09,2,.21c.83.08,1.65.17,2.47.28l.22,0,.77.09.56.07.87.12c.53.06,1.07.13,1.6.21h0c.24,0,.46.06.7.09l.25,0c1.11.16,2.21.32,3.32.5l.49.08h0L24,383l.12,0c.18,0,.35.06.53.09.84.14,1.68.3,2.52.46l.27.05.56.1.7.14c.43.07.85.16,1.27.25h.42c.78.15,1.55.31,2.33.48s1.51.32,2.27.49h0l2,.46.91.21,2,.47,2,.49h0l.14,0,1.81.46,1.81.49.69.19h.09c1,.28,2,.56,3,.86l1.16.33.31.1.22.06,2,.62,1.69.52.24.08.31.1.86.27,1.05.35.32.11,2.13.71,1.4.48.9.32a4.43,4.43,0,0,1,.47.17q.93.31,1.86.66l.09,0c.48.16,1,.34,1.42.52l.53.21h.15l.82.31.62.24h0l1.41.55.62.24.44.18.27.1,2.76,1.13h0" />
      <path class="BUNTAI_BEAR_OUTFIT_BEAR_OUTFIT_29_cls-7" d="M110.82,377.47c0,4.44-4,8-8.95,8s-8.94-3.6-8.94-8,4-8,8.94-8S110.82,373,110.82,377.47Z" />
      <path class="BUNTAI_BEAR_OUTFIT_BEAR_OUTFIT_29_cls-7" d="M102.46,297v.91h0c0,1,0,1.9,0,2.89,0,.49,0,1,0,1.48s0,1,0,1.49,0,1,0,1.45v.09c0,.75,0,1.52,0,2.28l0,.75c0,.51,0,1,.05,1.54l.09,2.53.09,1.9c0,.21,0,.42,0,.63,0,.42,0,.85.07,1.28.07,1.27.15,2.56.24,3.84l.09,1.27a1.36,1.36,0,0,1,0,.2c0,.18,0,.36,0,.53a2.64,2.64,0,0,0,0,.28,5.29,5.29,0,0,0,0,.56c0,.1,0,.21,0,.32,0,.33,0,.65.08,1,0,.16,0,.33,0,.49s0,.33,0,.49,0,.1,0,.15c0,.37.07.75.11,1.12s.09.85.13,1.27c0,0,0,.09,0,.13.07.59.13,1.17.2,1.76,0,.22,0,.43.08.65s0,.4.07.59l.24,1.91c.22,1.66.46,3.3.73,4.93.13.77.27,1.53.4,2.28.31,1.63.62,3.24,1,4.8.12.57.26,1.14.4,1.7.06.25.12.49.19.74.17.68.35,1.35.53,2l2.91,1,2.34.79.64.22,1.92.64,2.53.82h0l1.1.35,1.09.35c1.45.47,2.89.92,4.3,1.36l2.12.65,2.39.71,2.36.69c1.57.45,3.1.89,4.64,1.31l2.74.74,2.15.57.56.15,2.05.52,3.28.81,1.76.41,1.74.41c2.51.56,5,1.1,7.47,1.58,5.78,1.15,11.44,2.09,17.13,2.87l1.69.22,3.33.42c3.19.37,6.39.7,9.63,1h0c1.65.14,3.3.27,5,.39h.18l.38,0,.83.06,1.39.09,1.39.09h0l4.25.23.34,0,2.52.12,2.65.11.7,0,1.18,0h.22l.57,0,2.48.08H214l.65,0h1.51l1.51,0h0l1.94.05h.27l4.4.08,2.25,0h.25" />
      <path class="BUNTAI_BEAR_OUTFIT_BEAR_OUTFIT_29_cls-7" d="M241.08,369.43q-7.43,0-14.26-.06" />
      <path class="BUNTAI_BEAR_OUTFIT_BEAR_OUTFIT_29_cls-7" d="M102.45,297.88c5.36,5.64,17.23,15.55,38.24,20.89,29.19,7.42,35,32.65,17.08,44.52" />
      <path class="BUNTAI_BEAR_OUTFIT_BEAR_OUTFIT_29_cls-7" d="M102.65,309.87c9.94,7.66,26.5,11.42,36,13.93,11.8,3.11,24.57,10.4,22.94,23.43a17.15,17.15,0,0,1-11.26,14.47l-1.1,14.48-.15.21c-2.65,3.89-39.89,60.49,9.8,103.71a90.54,90.54,0,0,0,9.88,5.8c.18.07.35.15.51.23" />
      <path class="BUNTAI_BEAR_OUTFIT_BEAR_OUTFIT_29_cls-7" d="M118,352.67A24.71,24.71,0,0,1,115,337.41c2.6-18.47,39.59-11.41,37.22,3.63-2,12.49-11.88,13.94-15.16,14.07-.68,0-1.07,0-1.07,0s13.87-6.82,11.05-16.3-20.9-11.42-24.36.16a16.11,16.11,0,0,0,4,16.41" />
      <path class="BUNTAI_BEAR_OUTFIT_BEAR_OUTFIT_29_cls-7" d="M72.09,420.25S61.07,400.8,52.42,402s12.12,28.79,12.12,28.79" />
      <path class="BUNTAI_BEAR_OUTFIT_BEAR_OUTFIT_29_cls-7" d="M3.76,397.71c-1.92.5-3.87.93-5.82,1.31" />
      <path class="BUNTAI_BEAR_OUTFIT_BEAR_OUTFIT_29_cls-7" d="M18.68,447.1s1.3-22.57-3.89-30.76C11.37,411-6.12,430-17.73,443.61h0" />
      <path class="BUNTAI_BEAR_OUTFIT_BEAR_OUTFIT_29_cls-7" d="M174.91,366.16l31.56-23.67h0l.05-.05.82-.62,7.88-5.89,11.45-8.42,64.5-47.46c2.11-1.55,4.22-3.1,6.32-4.67s4.21-3.13,6.29-4.71c1-.76,2-1.54,3-2.31,1.31-1,2.6-2,3.89-3,.07-.05-.07,0,0-.07,1.31-1,2.62-2.08,3.91-3.14" />
      <path class="BUNTAI_BEAR_OUTFIT_BEAR_OUTFIT_29_cls-7" d="M317.63,274.31q-6.12,5.31-12.34,10.49t-12.24,10c-.59.48-1.17.95-1.77,1.42-1.43,1.16-2.89,2.31-4.33,3.45-1,.78-1.94,1.55-2.92,2.31-3.4,2.67-6.81,5.33-10.25,7.94l-4,3L268.4,314l-1.39,1-1.4,1.05h0q-6,4.47-12,8.84c-.53.39-1.06.78-1.6,1.16h0c-1.91,1.38-3.84,2.75-5.77,4.13l-1.11.78c-.37.28-.76.55-1.15.81l-3.81,2.67-2,1.38q-5.69,4-11.45,7.83l-2.58,2-.44.36c-5,4-15.31,12-22.56,17.38l-1.15.85-.58.42-1.48,1.08c-1.36,1-2.51,1.76-3.34,2.29h0" />
      <path class="BUNTAI_BEAR_OUTFIT_BEAR_OUTFIT_29_cls-7" d="M359.24,352.66c.27-.92.53-1.85.79-2.78.12-.41.23-.83.33-1.24a5.62,5.62,0,0,0,.15-.55c.21-.79.42-1.58.61-2.37.3-1.16.57-2.33.84-3.5s.53-2.33.78-3.5c.47-2.28.91-4.57,1.3-6.85.06-.32.11-.64.16-1s.14-.8.2-1.2.17-1.05.24-1.57c0-.17.05-.35.08-.52" />
      <path class="BUNTAI_BEAR_OUTFIT_BEAR_OUTFIT_29_cls-7" d="M377.07,386.45a110.93,110.93,0,0,1,27.29-23.16l.33-.2.73-.44.1-.06c.54-.31,1.16-.65,1.89-1,0,0,5,9,10.59,21.19" />
      <path class="BUNTAI_BEAR_OUTFIT_BEAR_OUTFIT_29_cls-7" d="M379.6,396.36c.62-.29,1.22-.57,1.81-.83,11.61-5.39,19.27-8.94,29-11.27,2.36-.57,4.86-1.07,7.56-1.5l.68-.1c1-.16,2-.3,3.06-.43l.35-.05.5-.07.42-.05,1.09-.13s32.58,50.48,37.6,80.45l-97.11-.9-1.86,0h0" />
      <path class="BUNTAI_BEAR_OUTFIT_BEAR_OUTFIT_29_cls-7" d="M342.55,377.47c0,4.44,4,8,8.94,8s8.95-3.6,8.95-8-4-8-8.95-8S342.55,373,342.55,377.47Z" />
      <path class="BUNTAI_BEAR_OUTFIT_BEAR_OUTFIT_29_cls-7" d="M303.05,361.7q-3.76.85-7.46,1.59c-22.14,4.42-42.68,5.76-68.77,6.08h-.28c-3,0-6.09,0-9.24.05h-5" />
      <path class="BUNTAI_BEAR_OUTFIT_BEAR_OUTFIT_29_cls-7" d="M303.07,361.71c2.48-.57,5-1.17,7.52-1.82s5.12-1.33,7.75-2.06c1.38-.39,2.75-.78,4.14-1.19l1.17-.34.93-.27.32-.1,1.81-.54,2.12-.65h0l1.45-.45.7-.22.1,0,2.07-.66,1.09-.35,1.1-.35h0l1.25-.4,1.28-.42,2.57-.86,2.28-.77,3-1c.4-1.45.77-2.93,1.12-4.45.26-1.14.5-2.3.73-3.49.07-.39.15-.79.22-1.19s.14-.75.2-1.12.14-.76.2-1.14a.68.68,0,0,1,0-.14c0-.16.05-.32.08-.48l.3-1.91s0,0,0-.06c.07-.49.13-1,.2-1.46a.09.09,0,0,1,0-.05c0-.32.1-.65.14-1s.1-.75.14-1.13c.11-.84.22-1.7.31-2.56,0-.15,0-.31.05-.47.1-.9.19-1.8.28-2.71s.16-1.73.23-2.6c0-.27.05-.54.07-.81s.07-.8.1-1.2.06-.81.09-1.21c.08-1.17.16-2.35.22-3.51l.06-1.17" />
      <path class="BUNTAI_BEAR_OUTFIT_BEAR_OUTFIT_29_cls-7" d="M303.07,361.7h0l-1-.43c-.34-.15-.68-.32-1-.49s-.61-.32-.9-.5a2.26,2.26,0,0,1-.26-.16c-.21-.13-.42-.26-.62-.4l-.25-.17c-.17-.12-.34-.24-.5-.37l-.33-.25c-.25-.2-.49-.4-.73-.62s-.52-.47-.77-.73l-.34-.36c-.17-.17-.32-.35-.47-.53s-.36-.42-.53-.64-.46-.63-.68-1-.43-.67-.63-1a17.24,17.24,0,0,1-1.06-2.25q-.17-.42-.3-.87a16.52,16.52,0,0,1-.49-1.81c-.07-.27-.12-.55-.17-.84s-.12-.69-.16-1a16.94,16.94,0,0,1-.11-3.16,2.56,2.56,0,0,1,0-.39c0-.29,0-.58.09-.86s.08-.56.14-.84a.4.4,0,0,1,0-.15c.06-.32.13-.63.22-.95a5.83,5.83,0,0,1,.22-.71,2.29,2.29,0,0,1,.12-.37,10,10,0,0,1,.54-1.35,5.29,5.29,0,0,1,.25-.54l.21-.41c.07-.14.15-.28.23-.41.17-.3.34-.59.53-.87s.38-.57.59-.84a19.77,19.77,0,0,1,2.6-2.91L298,332l.49-.43.44-.36c.32-.26.65-.52,1-.76s.75-.53,1.14-.79,1-.63,1.46-.92c.31-.19.63-.37.95-.54a39.35,39.35,0,0,1,3.86-1.88c.54-.24,1.09-.46,1.64-.67s1-.39,1.55-.57l1.05-.35,1.16-.37c.66-.2,1.32-.39,2-.56,2-.53,4.31-1.11,6.81-1.78l.94-.25c.91-.24,1.85-.5,2.8-.77l1.19-.34,1.93-.57c.66-.2,1.33-.4,2-.62s1.44-.46,2.16-.7l.28-.1c.73-.24,1.46-.5,2.18-.76,1.64-.59,3.27-1.23,4.87-1.92l1.18-.52c1.05-.47,2.07-1,3.07-1.48s2-1.06,2.91-1.62" />
      <path class="BUNTAI_BEAR_OUTFIT_BEAR_OUTFIT_29_cls-7" d="M295.59,363.29h0c-13-8.65-13.49-24.37-1.52-35.14.64-.58,1.31-1.14,2-1.68.35-.27.71-.54,1.08-.79l0,0,.08-.06.07,0,.2-.15c.25-.18.51-.35.77-.52l1.2-.76c.41-.25.82-.49,1.25-.73.85-.47,1.74-.93,2.67-1.36s1.87-.84,2.86-1.23,2-.75,3.08-1.09c.6-.19,1.2-.37,1.82-.54l.73-.2.75-.2,1.95-.52,1.88-.54,1.84-.57,1.79-.58c1.17-.4,2.31-.81,3.41-1.23l1.29-.5.41-.17.16-.06,1.29-.54.95-.41.56-.25c.49-.21,1-.44,1.46-.67s.77-.35,1.14-.54l1.1-.55c.22-.1.43-.21.65-.33q2.15-1.11,4.07-2.25l.36-.21.49-.3.27-.17c.53-.32,1-.64,1.53-1,.22-.13.42-.27.63-.41l.63-.42" />
      <path class="BUNTAI_BEAR_OUTFIT_BEAR_OUTFIT_29_cls-7" d="M326.71,355.38a16.07,16.07,0,0,0,4-16.41c-3.45-11.58-21.53-9.65-24.35-.16s11.06,16.3,11.06,16.3-13.86,1-16.23-14.07,34.61-22.1,37.21-3.63a24.71,24.71,0,0,1-3.07,15.26" />
      <path class="BUNTAI_BEAR_OUTFIT_BEAR_OUTFIT_29_cls-7" d="M381.23,416c3.32-5.65,9.54-14.8,14.78-14,7.54,1.17-10.56,28.79-10.56,28.79" />
      <path class="BUNTAI_BEAR_OUTFIT_BEAR_OUTFIT_29_cls-7" d="M461.28,457.43s-33-48.28-37.48-40.09-3.39,30.75-3.39,30.75" />
      <path class="BUNTAI_BEAR_OUTFIT_BEAR_OUTFIT_29_cls-7" d="M303.05,361.7l1.64,12.14a61.36,61.36,0,0,1,4.71,4.36c12.91,13.05,45,53.93-.82,101.9a32.77,32.77,0,0,1-7.47,5.22" />
      <path class="BUNTAI_BEAR_OUTFIT_BEAR_OUTFIT_29_cls-7" d="M105.64,361.7s15.06,8,43.42,14.69c20.68,4.88,48.47,9.12,82.65,9.12,33.85,0,59.41-3.38,77.69-7.31,25.48-5.47,36.82-12,36.82-12" />
      <path class="BUNTAI_BEAR_OUTFIT_BEAR_OUTFIT_29_cls-7" d="M117.07,278.85l1.72,1.64c1.27,1.2,2.61,2.47,4,3.77,2.06,1.9,4.26,3.91,6.59,6,.9.8,1.82,1.6,2.75,2.41,3.93,3.44,8.2,7,12.77,10.67.62.51,1.26,1,1.89,1.5a.81.81,0,0,0,.14.12c1.73,1.38,3.5,2.74,5.31,4.11q4.52,3.42,9.29,6.82,2.4,1.69,4.84,3.36c1.1.75,2.21,1.49,3.33,2.23,1,.63,1.92,1.26,2.89,1.88s1.95,1.25,2.93,1.86l.34.21c1,.65,2.07,1.28,3.11,1.91q2.74,1.67,5.53,3.24c.77.45,1.55.88,2.33,1.31l2.16,1.19c1.05.57,2.11,1.13,3.17,1.68l1.39.71c2,1.05,4.06,2,6.09,3,.67.32,1.34.62,2,.92,1.85.85,3.72,1.66,5.59,2.43l.1,0" />
      <path class="BUNTAI_BEAR_OUTFIT_BEAR_OUTFIT_29_cls-7" d="M323.11,288.73l-2,1.73h0L319,292.28c-1.08.93-2.18,1.88-3.31,2.82-.75.64-1.49,1.28-2.26,1.92-9.17,7.76-19.51,16.36-30.26,25-1.38,1.11-2.78,2.24-4.19,3.35-.8.65-1.61,1.29-2.42,1.93l-4.24,3.34c-1.81,1.42-3.65,2.84-5.47,4.25s-3.65,2.82-5.48,4.2q-4.09,3.12-8.18,6.14c-1.57,1.17-3.14,2.32-4.71,3.47h0l-2.34,1.7L243.77,352h0" />
      <path class="BUNTAI_BEAR_OUTFIT_BEAR_OUTFIT_29_cls-7" d="M243.76,352h0l-4.58,3.24a0,0,0,0,0,0,0c-1.53,1-3,2.09-4.52,3.1l-2.55,1.71-1.88,1.26-1.86,1.22-3.66,2.34L222.91,366h0l-1.34.83q-2,1.22-3.9,2.34h0l0,0,0,0-.15.08h0l0,0h0l-.06,0h0" />
      <path class="BUNTAI_BEAR_OUTFIT_BEAR_OUTFIT_29_cls-7" d="M86.74,308.88A146.15,146.15,0,0,1,102.46,297c2.06-1.37,4.27-2.78,6.64-4.2,2.81-3.35,5.54-8.44,8-13.92,2.34-5.28,4.42-10.91,6-15.67a91,91,0,0,0,3.15-11.61v0" />
      <path class="BUNTAI_BEAR_OUTFIT_BEAR_OUTFIT_29_cls-7" d="M364.72,327.61c-3.19-2.71-8.5-7.25-14.24-12.24l-3.43-3c-2.19-1.93-4.4-3.88-6.52-5.78-7.08-6.34-13.33-12.2-15.5-14.93a23.21,23.21,0,0,1-1.92-2.93,66.89,66.89,0,0,1-5.48-14.42c-1.2-4.36-2.33-8.61-3-12.19" />
      <path class="BUNTAI_BEAR_OUTFIT_BEAR_OUTFIT_29_cls-7" d="M6.88,380.66s-3,12.25-10.09,19.81-8.5,12.35-12.15,29.13A244.62,244.62,0,0,0-20,461.46H90.65" />
      <g class="BUNTAI_BEAR_OUTFIT_BEAR_OUTFIT_29_cls-8">
        <path d="M225.94,482l-2.86.56-2.87.51-2.87.46-1,.16h0l-.59.09-.76.11h-.09l-.13,0-.21,0-3.21.42-1.61.19-.91.11-.7.07-2.54.26-.7.07-1.76.17h0s0,0,0,0l-2.52.2-1.05.08-1,.07h-.12l-.29,0-3.39.2-.4,0-.54,0-1.9.08-1,0h-.83c-.83,0-1.65.06-2.47.08h-.12l-3.3.06-3.3,0c-2,0-4,0-5.9-.06h-.47l-2.84-.07-2.8-.11h0l-1.27-.05-1.3-.06L163,485.6l-2.81-.18-2.73-.2-1.19-.09-2.35-.2-2.3-.21-3.33-.33-3.18-.35-2-.24-1.09-.13-1-.13-.83-.11-1.87-.25-.91-.12-.22,0-.77-.11-.75-.11-1.68-.24-.81-.12-.78-.12-1.5-.24-2.19-.36-.42-.07-.13,0-.27,0-.08,0-.15,0-.13,0h-.14l-.43-.07-1.51-.27-.21-.05h0l-.15,0-.35-.07-.27-.05-.21,0-.18,0-.71-.13-.41-.08-.08,0-.58-.11-.71-.14-.52-.11-.23,0-.34-.08h-.07l-.1,0-.07,0h0l-.08,0h0l-1.31-.43-.42-.15-.11,0-.54-.19-.19-.07h0c-.48-.17-1-.34-1.41-.52l-.06,0-.06,0h0l-.08,0-.17-.07-.07,0c-.38-.14-.74-.29-1.1-.45l-.13-.05-.1,0c-.27-.1-.52-.21-.79-.33l-.4-.18L112,477l-.31-.15-.33-.15-1.66-.81h0l-.05,0L108,475l-.14-.08-.08-.05h0l-.43-.25-1-.6-.44-.25c-.47-.28-.93-.57-1.39-.86a1.14,1.14,0,0,1-.23-.15c-.39-.24-.77-.49-1.15-.75s-.72-.47-1.07-.72l-.26-.18-.65-.46-.18-.13-.37-.27-.16-.12-.2-.14-.89-.68a1.46,1.46,0,0,1-.21-.16.21.21,0,0,1-.08-.06,2.86,2.86,0,0,1-.35-.28l-.43-.34-.17-.13-.41-.33-.18-.16c-.31-.24-.62-.5-.91-.76L96.4,467l-.56-.49,0,0-.53-.46h0l-.57-.53c-.21-.18-.41-.36-.62-.56s-.27-.24-.4-.38a.52.52,0,0,1-.11-.1c-.18-.16-.35-.32-.51-.49s-.42-.4-.62-.61l-.37-.37c-.49-.49-1-1-1.42-1.48h-27l-6.78-8S18,408,26.62,416.34,65,446.19,66.13,445.41s-1.71-14.59-3-16.53c0,0,0,0,0-.05h0a.21.21,0,0,0,0-.06l0-.08-.08-.1h0a1,1,0,0,0-.1-.15.1.1,0,0,0,0-.05.25.25,0,0,0,0-.07l-.18-.26c-.9-1.28-2.67-3.9-4.75-7a.21.21,0,0,0,0-.06l0-.06c-5.86-8.87-13.93-21.61-9.79-19,.8.51,1.63,1.09,2.47,1.71h0c5.5,4.05,11.45,10.24,14,14.28a28.18,28.18,0,0,0,7.71,7.78s-.82-4.07-1.65-8.13h0c-.78-3.79-1.58-7.55-1.72-7.93-.29-.76-2-14.64-2.11-15.09h-.15L30.38,384.17H30L6.85,380.78l0-.11h0c.07-.25.1-.39.1-.39l5.86,1.05c1.87-3.75,5-9.11,8.18-14.43,14.85,5,38.76,13.93,53.67,24.33.34-.93.66-1.86,1-2.78h0a.49.49,0,0,0,0-.11h0v0h0v-.06a.14.14,0,0,0,0-.06h0A225.16,225.16,0,0,1,92,355.54l0-.06v0h0a.13.13,0,0,0,0-.06l0,0s0,0,0,0h0v0l.06-.09c.93-1.55,1.57-2.57,1.82-3l.12-.18s-.11-.16-.3-.49h0v0q-.82-2.87-1.54-5.75c-.16-.65-.32-1.29-.47-1.93-.21-.85-.41-1.71-.6-2.57-.77-3.42-1.45-6.88-2-10.34h0q-.59-3.46-1-6.95c-.11-.87-.22-1.73-.32-2.6l-.15-1.31c0-.44-.1-.87-.14-1.31L87.35,317h0c-.07-.71-.13-1.42-.19-2.13-.1-1.25-.2-2.49-.29-3.75-.05-.75-.1-1.49-.14-2.24h0l.91-.79.53-.45.36-.31.08-.06.32-.28.21-.17.09-.07.68-.56.62-.51,1.11-.89.76-.59,1-.75.47-.36.59-.45,1-.73.37-.28h0c.83,17.75,3.5,39.38,10.35,60.3v0a156.83,156.83,0,0,0,6,15.62c10.06,22.66,17,40.9,21.07,52.26v0h0v0c3,8.29,4.43,12.91,4.43,12.91S149.5,477.31,225.94,482Z" />
        <path d="M212.29,337.23l-5,4.55-.72.66-.05.05h0c-.83-.35-35.79-14.44-64.36-33.08a190.44,190.44,0,0,1-28.92-22.74c1.35-2.39,2.65-5.06,3.88-7.82,1.42-3.19,2.73-6.51,3.91-9.68,15.36,14.43,35.55,32.31,52.38,43.55C205.39,334.11,212.29,337.23,212.29,337.23Z" />
        <path d="M330.48,297.33c-14,9.18-54.57,44.78-96.91,71.94a2.07,2.07,0,0,0-.25.15s-.06,0-.09.06c-4,.21-9.49.12-14.72-.05h-.41l-.74,0h0c-7-.24-13.17-.63-14.25-.69H203c1.06-.63,35-20.58,63.35-41,14.27-10.26,36-28.39,54.38-44.09a43.77,43.77,0,0,0,2.41,5.13,23.21,23.21,0,0,0,1.92,2.93A67.19,67.19,0,0,0,330.48,297.33Z" />
        <path d="M345,366.79s-42.66,20-69.2,26.24-82.79,8.23-82.79,8.23,30.34-7.21,48-11.86,44.57-7.13,46.15-7.52S334.91,374,345,366.79Z" />
        <path d="M394.38,390.3l-.08,0s.26,4.28-1.89,12.44c-.48,1.81-1.08,3.83-1.83,6-4,11.8-9.08,30.67-9.29,31.48.2-.4,2.91-5.9,6.32-12.93l0-.07c3.28-6.75,7.18-14.91,10.09-21.32,1.48-3.22,2.69-6,3.44-7.94,3.89-9.92,3-2.25,5.2,22.67s-7.57,40.79-7.57,40.79H364.62l-4.5,2.64,0,0s-23.26,7.68-46.9,10.89a137.76,137.76,0,0,1-18.45,1.39c4.11-.65,11.58-1.79,20.17-3.46,14.93-2.9,33.28-7.44,43.44-14a51.23,51.23,0,0,0,20.78-27.81.37.37,0,0,0,0-.14.06.06,0,0,0,0,0,0,0,0,0,0,0-.05,50.87,50.87,0,0,0,2.37-15.52,87.2,87.2,0,0,0-.55-9c0-.22-.05-.45-.07-.67a121.86,121.86,0,0,0-3.46-17.88,4.69,4.69,0,0,1-.17-.6,1.42,1.42,0,0,1-.05-.16v0l0-.11c0-.06,0-.1,0-.15a.06.06,0,0,1,0,0,.66.66,0,0,0,0-.11l-.06-.2a110.72,110.72,0,0,1,27.29-23.16l6.31,21.77-.07,0Z" />
      </g>
      <line class="BUNTAI_BEAR_OUTFIT_BEAR_OUTFIT_29_cls-9" x1="86.74" y1="308.88" x2="86.73" y2="308.89" />
      <path class="BUNTAI_BEAR_OUTFIT_BEAR_OUTFIT_29_cls-7" d="M418,382.76c1.31-.21,2.67-.4,4.09-.58Z" />
    </g>
  </g>
</svg>