<svg xmlns="http://www.w3.org/2000/svg" viewBox="0 0 432 432">
  <defs>
    <style>.BUNTAI_BEAR_OUTFIT_BEAR_OUTFIT_19_cls-1{isolation:isolate;}.BUNTAI_BEAR_OUTFIT_BEAR_OUTFIT_19_cls-2{fill:#fff;}.BUNTAI_BEAR_OUTFIT_BEAR_OUTFIT_19_cls-3{fill:#f0b25a;}.BUNTAI_BEAR_OUTFIT_BEAR_OUTFIT_19_cls-4{fill:#ee7142;}.BUNTAI_BEAR_OUTFIT_BEAR_OUTFIT_19_cls-5{fill:#a23105;}.BUNTAI_BEAR_OUTFIT_BEAR_OUTFIT_19_cls-6{fill:none;stroke:#000;stroke-linecap:round;stroke-linejoin:round;stroke-width:2.34px;}.BUNTAI_BEAR_OUTFIT_BEAR_OUTFIT_19_cls-7{opacity:0.43;mix-blend-mode:multiply;}</style>
  </defs>
  <g class="BUNTAI_BEAR_OUTFIT_BEAR_OUTFIT_19_cls-1">
    <g id="outfit">
      <path class="BUNTAI_BEAR_OUTFIT_BEAR_OUTFIT_19_cls-2" d="M206.35,406.38a12.57,12.57,0,0,1-4,9.39,20.11,20.11,0,0,1-9.44,4.89,31.89,31.89,0,0,1-4.58.73h0a18.31,18.31,0,0,0-2-1.14,15,15,0,0,0,2.67-4.54,13.84,13.84,0,0,0-.77-11.28,15.32,15.32,0,0,0-10-7.3,19,19,0,0,0-12.46,1.49,29.86,29.86,0,0,0-8.53-7.16,19.2,19.2,0,0,0-10.92-2.35,13.6,13.6,0,0,0-9.59,5.23,10.19,10.19,0,0,0-1.65,8.43c-.7,0-1.4,0-2.11,0s-1.56.09-2.35.21a15.31,15.31,0,0,1-3.26-4.21l-.19-.39-.18-.4a4.87,4.87,0,0,1-.21-.53.94.94,0,0,1-.06-.15v0c-.06-.16-.12-.33-.17-.5a.93.93,0,0,0,0-.13l-.09-.28c0-.09-.05-.19-.08-.28s0,0,0-.05a2.17,2.17,0,0,1-.07-.24c0-.14-.07-.29-.1-.43s0-.23-.07-.35a2.33,2.33,0,0,1-.06-.35.3.3,0,0,1,0-.1.19.19,0,0,1,0-.08,2.83,2.83,0,0,1-.06-.42c0-.1,0-.19,0-.28s0-.26,0-.38,0-.14,0-.2,0-.22,0-.33v0c0-.11,0-.23,0-.34s0-.31,0-.47,0-.59,0-.89,0-.6.09-.91.06-.51.11-.76.1-.55.16-.82.18-.75.29-1.11c.06-.18.12-.36.19-.54a14.51,14.51,0,0,1,.76-1.77l.18-.34a4.49,4.49,0,0,1,.24-.42,5.84,5.84,0,0,1,.33-.53c.11-.18.23-.35.35-.52a17.63,17.63,0,0,0-6.81,11.72,17.22,17.22,0,0,0,1.81,10,27.43,27.43,0,0,0-7.36,4.95c-3.79,3.51-6.7,8.48-5.83,13.49a10.93,10.93,0,0,0,5.89,7.76l.6.27.61.23a6.4,6.4,0,0,0,.62.2c.21.07.43.11.64.17s.43.09.64.12l.7.09.6.05h0l.6,0h.7l.32,0,.31,0,.16,0a.91.91,0,0,0,.23,0l.38-.06h.07l.39-.08h.06l.11,0,.11,0,.26-.07.27-.08.09,0,.11,0,.2-.07.11,0a2.74,2.74,0,0,0,.4-.15,5.93,5.93,0,0,0,.69-.29,6.85,6.85,0,0,1-1.43,0h0l-.16,0-.06,0h-.27a.31.31,0,0,1-.13,0l-.1,0-.09,0h0l-.14,0-.3-.09a4,4,0,0,1-.58-.21l0,0-.37-.16,0,0a2.82,2.82,0,0,1-.38-.21l-.14-.08-.12-.07-.11-.08-.16-.1a3.79,3.79,0,0,1-.4-.3,3.31,3.31,0,0,1-.3-.25,7.24,7.24,0,0,1-.69-.67l0,0c-.1-.11-.2-.23-.29-.35l-.06-.08a7,7,0,0,1-.7-1.09h0l-.09-.19s0,0,0-.05,0,0,0-.05l0,0a30906320515.56,30906320515.56,0,0,0,0-.06.47.47,0,0,0,0-.1,2.49,2.49,0,0,1-.11-.29,0,0,0,0,1,0,0,1.07,1.07,0,0,1-.07-.19s0-.08,0-.13-.09-.32-.13-.49a5.26,5.26,0,0,1-.12-.78,4.9,4.9,0,0,1,0-.77c0-.14,0-.28,0-.43a.11.11,0,0,1,0-.07h0s0,0,0,0h0a1.21,1.21,0,0,1,0-.19l0-.27c0-.08,0-.17,0-.26a2.21,2.21,0,0,1,0-.25,7.36,7.36,0,0,1,.26-1,3.43,3.43,0,0,1,.13-.38l0-.1a1.09,1.09,0,0,1,.09-.23.14.14,0,0,0,0-.06l.09-.19a.36.36,0,0,1,0-.09.42.42,0,0,1,0-.1.26.26,0,0,1,0-.09,3.24,3.24,0,0,1,.17-.32.83.83,0,0,1,.07-.13,1.06,1.06,0,0,1,.12-.2l.2-.34.07-.11.07-.1,0,0a.07.07,0,0,1,0-.06l.13-.18a.47.47,0,0,1,.09-.12.16.16,0,0,1,.06-.08,1.84,1.84,0,0,1,.17-.22,9.08,9.08,0,0,1,.95-1l.06-.06a4.69,4.69,0,0,1,.54-.46l.36-.28a10.71,10.71,0,0,1,.9-.59l.72-.38c.24-.12.48-.24.73-.34l.51-.2.3-.11.72-.23h0a15.48,15.48,0,0,1,2.13-.44.06.06,0,0,0,.06,0c.33,0,.67-.07,1-.09h.07c.36,0,.71,0,1.07,0a17.92,17.92,0,0,1,1.95.11c5.21.59,10.44,3.79,11.74,8.67.91,3.44-.18,7-1.39,10.39-.2.55-.39,1.09-.6,1.64-.12.34-.24.67-.38,1-.53,1.43-1.08,2.85-1.66,4.27,0,.09-.07.17-.1.26l-.14.33c-.21.51-.42,1-.64,1.52-.1.26-.21.51-.33.77a2.75,2.75,0,0,1-.15.36c0,.11-.09.21-.14.32a.06.06,0,0,1,0,0s0,.08-.05.13a2.56,2.56,0,0,1-.11.24l-.14.31c-.27.63-.56,1.27-.85,1.9s-.54,1.19-.82,1.78a2.41,2.41,0,0,1-.15.33,1.66,1.66,0,0,1-.16.33.94.94,0,0,1-.06.15c-.11.23-.22.47-.34.71l-.22.46c-.07.15-.15.31-.23.46h0c0,.06-.06.13-.09.2l-.52,1c-.29.61-.6,1.22-.91,1.83-.23.45-.46.9-.71,1.36a3.6,3.6,0,0,1-.2.39c-.21.42-.43.83-.66,1.25a1.51,1.51,0,0,1-.15.28s0,0,0,.07-.09.17-.15.26-.18.35-.28.53l-.32.59c-.23.42-.45.83-.69,1.24s-.56,1-.86,1.52-.41.73-.63,1.09a6.88,6.88,0,0,1-.37.63,5.05,5.05,0,0,1-.25.45.61.61,0,0,1-.07.1c-.12.21-.24.43-.38.64a.6.6,0,0,1-.09.15l-.38.64c-.17.29-.34.57-.52.85l-.82,1.34c-.23.37-.47.74-.71,1.11-.33.54-.67,1.07-1,1.6l-.26.4-.39.6-.83,1.24-.23.33a.24.24,0,0,1-.06.09l-.29.44L122,474l-.34.48q-.51.75-1.05,1.5c-.1.14-.21.28-.31.43l-.24.35-.85,1.17c-.21.29-.42.58-.64.86l-.36.49q-.21.3-.45.6l-.08.12-.09.12-.17.21c-.14.19-.28.39-.43.58l-1,1.23-.19.24c-.34.44-.68.88-1,1.31l-1.1,1.38h0a171.42,171.42,0,0,0,28.83,8.47l1.07-6c.42-1.7.84-3.4,1.28-5.1.09-.39.2-.76.29-1.14s.16-.58.23-.87q.51-2,1.05-3.93c.08-.32.17-.64.26-1,.3-1.12.61-2.23.91-3.34q.68-2.37,1.36-4.74c.48-1.66,1-3.33,1.48-5,.11-.35.21-.7.32-1.05.15-.52.31-1,.47-1.54q.36-1.2.75-2.4a4.42,4.42,0,0,1,.15-.48q1.55-4.95,3.22-9.86c1.79-5.26,4-10.89,8.8-13.92a13.71,13.71,0,0,1,12.18-1.09c3.46,1.38,6.37,4.65,6.06,8.23a6.77,6.77,0,0,1-5.46,5.83,7,7,0,0,1-7.29-3.52c1.52,5.61,7.73,9.5,13.72,9a15.27,15.27,0,0,0,13-10.51,16.39,16.39,0,0,0-.7-11.14,23.81,23.81,0,0,0,7-6.56A22,22,0,0,0,206.35,406.38ZM152.48,427c3.06-5.3.92-12.43-2.95-17.2a18.82,18.82,0,0,0-7.61-5.49c0-.16,0-.34,0-.53a5,5,0,0,1,.43-1.95,6.45,6.45,0,0,1,.49-.89,3.91,3.91,0,0,1,.3-.41,6.41,6.41,0,0,1,.7-.78l.38-.34.33-.26.09-.06,0,0c.19-.14.38-.26.57-.38l.32-.19h0c.15-.09.31-.16.46-.24a8.53,8.53,0,0,1,1-.4,11,11,0,0,1,10.79,2.33,10,10,0,0,1,2.53,10.35c1.61-3.7,6-5.75,10.16-5.24a9.73,9.73,0,0,1,8.28,7.86,8.68,8.68,0,0,1-.58,4.56C168.73,416.33,158.48,419.83,152.48,427Z" />
      <path class="BUNTAI_BEAR_OUTFIT_BEAR_OUTFIT_19_cls-2" d="M344,421.24a1.22,1.22,0,0,0,0-.27.15.15,0,0,0,0-.07.13.13,0,0,1,0-.06v0s0,0,0,0a1.1,1.1,0,0,0,0-.18l0-.27a.06.06,0,0,0,0,0s0,0,0,0v0a3,3,0,0,0-.06-.43,3.89,3.89,0,0,0-.09-.47.51.51,0,0,0,0-.17.29.29,0,0,1,0-.09c0-.12-.06-.23-.08-.35a2.17,2.17,0,0,1-.07-.24v0a2,2,0,0,0-.07-.23,2.29,2.29,0,0,0-.09-.28l-.06-.19,0-.09a1.81,1.81,0,0,0-.13-.34,0,0,0,0,0,0,0,1.88,1.88,0,0,0-.12-.3c0-.1-.08-.2-.13-.3a1.48,1.48,0,0,0-.14-.32s0,0,0,0h0l0,0a.3.3,0,0,0,0-.1.61.61,0,0,1-.05-.12,1.34,1.34,0,0,0-.12-.24l-.18-.35a13.24,13.24,0,0,0-.67-1.15l-.18-.28a1,1,0,0,0-.11-.17l-.08-.11c-.2-.28-.39-.56-.6-.83a.31.31,0,0,0-.1-.13.83.83,0,0,0-.08-.12l-.11-.14-.05-.06a3.92,3.92,0,0,0-.27-.33l-.28-.33c-.14-.17-.29-.34-.44-.5q-.66-.7-1.35-1.35a27.43,27.43,0,0,0-7.36-4.95,17.14,17.14,0,0,0,1.81-10,17.59,17.59,0,0,0-6.81-11.72A14.68,14.68,0,0,1,323.6,403a23.56,23.56,0,0,0-2.35-.21c-.7,0-1.41,0-2.11,0a10.16,10.16,0,0,0-1.65-8.43,13.6,13.6,0,0,0-9.59-5.23A19.2,19.2,0,0,0,297,391.46a29.86,29.86,0,0,0-8.53,7.16A19,19,0,0,0,276,397.13a15.32,15.32,0,0,0-10,7.3,13.84,13.84,0,0,0-.77,11.28,15.21,15.21,0,0,0,2.67,4.54,18.31,18.31,0,0,0-2,1.14h0a31.89,31.89,0,0,1-4.58-.73,20.11,20.11,0,0,1-9.44-4.89,12.61,12.61,0,0,1-4-9.39,22,22,0,0,0,3.67,17.06,23.65,23.65,0,0,0,6.95,6.56,16.45,16.45,0,0,0-.7,11.14,15.29,15.29,0,0,0,13,10.51c6,.47,12.19-3.42,13.72-9a7,7,0,0,1-7.29,3.52,6.77,6.77,0,0,1-5.47-5.83c-.31-3.58,2.6-6.85,6.06-8.23A13.73,13.73,0,0,1,290,433.17c4.82,3,7,8.66,8.79,13.92.15.43.29.86.43,1.3a.49.49,0,0,1,.06.17c.26.74.5,1.49.74,2.23a3.38,3.38,0,0,1,.11.34,2.58,2.58,0,0,1,.08.26c.13.38.26.76.38,1.14.08.22.15.45.22.67s.1.3.14.44a.49.49,0,0,1,.05.16c.14.4.27.8.39,1.21.19.57.37,1.14.55,1.72l.09.28c0,.11.07.22.1.33.13.38.25.76.36,1.15.08.22.14.44.21.67a1.71,1.71,0,0,1,.09.3q.54,1.71,1.05,3.42.78,2.55,1.51,5.12c.17.55.33,1.11.48,1.66l.48,1.66c0,.17.09.34.14.51s.07.26.11.4c.14.49.27,1,.41,1.48.29,1,.57,2.06.85,3.1,0,.06,0,.13,0,.19a.64.64,0,0,1,0,.07l.06.23c.05.18.1.36.14.54s.07.24.1.36c.82,3.08,1.62,6.18,2.38,9.28l1.71,5.91h0a171.64,171.64,0,0,0,28.19-8.34h0c-.66-.8-1.29-1.6-1.94-2.42l-.1-.14-.51-.65c-.16-.22-.33-.43-.5-.65s-.33-.43-.49-.65l-.65-.87a2.55,2.55,0,0,1-.21-.28,1.83,1.83,0,0,1-.13-.16c-.49-.65-1-1.32-1.44-2a5.93,5.93,0,0,1-.38-.54c-.31-.41-.6-.82-.88-1.23a1.43,1.43,0,0,1-.14-.2l-.42-.58a1,1,0,0,1-.08-.11,192328479939.41,192328479939.41,0,0,1-.1-.16l-.22-.31c-.23-.34-.47-.68-.7-1-.13-.18-.26-.37-.38-.56s-.29-.43-.43-.64-.24-.34-.34-.51l-.14-.21c-.23-.34-.46-.68-.68-1l-.21-.34a.42.42,0,0,1-.09-.14l-.09-.12v0c-.08-.12-.16-.24-.23-.36-.47-.72-.91-1.42-1.36-2.14l-.06-.1c-.07-.1-.13-.21-.19-.31s-.09-.14-.14-.21c-.4-.66-.81-1.32-1.2-2a.11.11,0,0,1,0-.07,2.14,2.14,0,0,1-.23-.38c-.06-.11-.12-.22-.19-.33l0,0L324,460.93l-.4-.71c-.09-.15-.18-.3-.26-.45-.21-.37-.42-.75-.62-1.14a.34.34,0,0,1-.06-.12,1.82,1.82,0,0,1-.15-.27c-.08-.14-.16-.28-.23-.42s-.18-.32-.26-.48a1.74,1.74,0,0,1-.1-.19,2,2,0,0,1-.11-.2c-.27-.48-.51-1-.76-1.44l-.23-.45c-.07-.13-.14-.25-.19-.37s-.29-.55-.42-.82a2,2,0,0,0-.14-.25l-.23-.46-.36-.72-.12-.26c-.2-.39-.39-.78-.57-1.16s-.33-.65-.47-1-.4-.83-.59-1.24l-.55-1.18c-.14-.29-.27-.59-.4-.88s-.15-.31-.21-.46l-.15-.31c-.14-.32-.28-.63-.41-1q-.37-.82-.72-1.65a.53.53,0,0,1-.06-.14c-.34-.78-.66-1.56-1-2.34l-.24-.58c-.07-.17-.13-.34-.21-.51s-.18-.46-.26-.68-.1-.23-.14-.35-.21-.53-.31-.79-.28-.7-.41-1.05v0l0-.08-.05-.12c-.4-1.07-.81-2.16-1.19-3.24-1.2-3.36-2.3-7-1.38-10.39,1.3-4.88,6.52-8.08,11.74-8.67a18.21,18.21,0,0,1,1.95-.11c.36,0,.71,0,1.06,0h.07c.34,0,.67.05,1,.09a.07.07,0,0,0,.06,0,15.18,15.18,0,0,1,2.13.44l.73.23.3.11.51.2c.25.1.49.22.73.34l.72.38a10.71,10.71,0,0,1,.9.59c.15.1.29.22.43.33h0l.17.14.26.23h0l.16.15.17.17.15.15.15.17.18.19.15.18.12.14.06.07c.1.13.22.28.32.44l0,0,.13.18c0,.05.07.1.1.16l.12.2a3.35,3.35,0,0,1,.21.36l0,0c.07.12.13.24.19.37l0,.07c.05.09.09.18.13.27v0a2.87,2.87,0,0,1,.15.37,1.21,1.21,0,0,1,.05.14q.1.27.18.54a.93.93,0,0,1,0,.13.27.27,0,0,1,0,.12.32.32,0,0,1,0,.09.29.29,0,0,1,0,.09,1.36,1.36,0,0,1,0,.17v0s0,.07,0,.11a.13.13,0,0,0,0,.06s0,0,0,.06a.61.61,0,0,1,0,.13s0,.08,0,.13a1.41,1.41,0,0,1,0,.18.19.19,0,0,1,0,.07v.08a2.09,2.09,0,0,1,0,.35,7.09,7.09,0,0,1-3.15,6.45,6.75,6.75,0,0,1-4.76,1.25,11.7,11.7,0,0,0,10-.07,11,11,0,0,0,5.9-7.76c0-.27.08-.54.1-.8a4.53,4.53,0,0,0,0-.73,2.91,2.91,0,0,0,0-.59A1.09,1.09,0,0,0,344,421.24Zm-39.39-11.45c-3.86,4.77-6,11.9-2.95,17.2-6-7.16-16.25-10.66-25.68-9.29a8.59,8.59,0,0,1-.59-4.56,9.73,9.73,0,0,1,8.28-7.86c4.13-.51,8.56,1.54,10.17,5.24a9.92,9.92,0,0,1,2.53-10.35,11,11,0,0,1,10.78-2.33c2.69.9,5.07,3.2,5.1,5.93a4.33,4.33,0,0,1,0,.53A18.82,18.82,0,0,0,304.64,409.79Z" />
      <path class="BUNTAI_BEAR_OUTFIT_BEAR_OUTFIT_19_cls-3" d="M157.78,400.17A11,11,0,0,0,147,397.84c-2.68.9-5.07,3.2-5.09,5.93,0,.19,0,.37,0,.53a18.82,18.82,0,0,1,7.61,5.49c3.87,4.77,6,11.9,2.95,17.2,6-7.16,16.25-10.66,25.69-9.29a8.69,8.69,0,0,0,.58-4.56,9.72,9.72,0,0,0-8.28-7.86c-4.12-.51-8.55,1.54-10.16,5.24A9.94,9.94,0,0,0,157.78,400.17Z" />
      <path class="BUNTAI_BEAR_OUTFIT_BEAR_OUTFIT_19_cls-3" d="M312.26,404.3c0-.16,0-.34,0-.53,0-2.73-2.41-5-5.09-5.93a11,11,0,0,0-10.79,2.33,9.92,9.92,0,0,0-2.53,10.35c-1.61-3.7-6-5.75-10.17-5.24a9.74,9.74,0,0,0-8.28,7.86,8.6,8.6,0,0,0,.59,4.56c9.44-1.37,19.69,2.13,25.69,9.29-3.07-5.3-.92-12.43,2.94-17.2A18.85,18.85,0,0,1,312.26,404.3Z" />
      <path class="BUNTAI_BEAR_OUTFIT_BEAR_OUTFIT_19_cls-3" d="M381.06,430.55h0A94,94,0,0,1,374.7,446c-7.53,14.48-13.88,27.06-27.71,36.27,0,0-2.39,1.14-6.55,2.77h0A176.57,176.57,0,0,1,314,440.32q-1.38-3.39-2.62-6.85c-1.2-3.36-2.3-7-1.38-10.39,1.3-4.88,6.53-8.08,11.74-8.67a14.77,14.77,0,0,1,10.17,2.32,10.22,10.22,0,0,1,2.49,2.59,8.47,8.47,0,0,1,1.4,6.44,7.34,7.34,0,0,1-7.77,5.61,11.7,11.7,0,0,0,10-.07,10.94,10.94,0,0,0,5.9-7.76c.7-4-1.06-8.06-3.77-11.31a20.35,20.35,0,0,0-2.07-2.18,27.43,27.43,0,0,0-7.36-4.95,17.15,17.15,0,0,0,1.82-10,17.6,17.6,0,0,0-6.82-11.72A14.68,14.68,0,0,1,323.6,403a23.3,23.3,0,0,0-2.35-.21c-.7,0-1.41,0-2.11,0a10.16,10.16,0,0,0-1.65-8.43,13.6,13.6,0,0,0-9.59-5.23A19.2,19.2,0,0,0,297,391.46a30,30,0,0,0-8.53,7.16A18.93,18.93,0,0,0,276,397.13a15.3,15.3,0,0,0-10,7.3,13.8,13.8,0,0,0-.78,11.28,15.43,15.43,0,0,0,2.67,4.54,17.31,17.31,0,0,0-2,1.14h0a32.11,32.11,0,0,1-4.58-.73,20.16,20.16,0,0,1-9.44-4.89,12.56,12.56,0,0,1-4-9.39,22,22,0,0,0,3.66,17.06,23.65,23.65,0,0,0,6.95,6.56,16.51,16.51,0,0,0-.7,11.14,15.3,15.3,0,0,0,13,10.51c6,.47,12.19-3.42,13.72-9a7,7,0,0,1-7.29,3.52,6.78,6.78,0,0,1-5.47-5.83c-.31-3.58,2.61-6.85,6.07-8.23A13.71,13.71,0,0,1,290,433.17c4.82,3,7,8.66,8.79,13.92.14.44.29.86.43,1.3q6.49,19.31,11.35,39.09l1.72,5.91h0c-25.84,5.25-60.71,5.66-85.17-20-24.26,25.42-58.74,25.25-84.51,20.11l1.06-6q3.78-15.39,8.55-30.53,1.56-4.95,3.23-9.86c1.79-5.26,4-10.89,8.79-13.92a13.71,13.71,0,0,1,12.18-1.09c3.46,1.38,6.37,4.65,6.06,8.23a6.77,6.77,0,0,1-5.46,5.83,7,7,0,0,1-7.29-3.52c1.53,5.61,7.73,9.5,13.72,9a15.3,15.3,0,0,0,13-10.51,16.45,16.45,0,0,0-.71-11.14,23.69,23.69,0,0,0,7-6.56,22,22,0,0,0,3.66-17.06,12.57,12.57,0,0,1-4,9.39,20.11,20.11,0,0,1-9.44,4.89,31.89,31.89,0,0,1-4.58.73h0a16.65,16.65,0,0,0-2-1.14,15.24,15.24,0,0,0,2.68-4.54,13.84,13.84,0,0,0-.78-11.28,15.3,15.3,0,0,0-10-7.3,19,19,0,0,0-12.46,1.49,29.86,29.86,0,0,0-8.53-7.16,19.17,19.17,0,0,0-10.91-2.35,13.62,13.62,0,0,0-9.6,5.23,10.19,10.19,0,0,0-1.64,8.43c-.71,0-1.41,0-2.11,0s-1.57.09-2.36.21a15.09,15.09,0,0,1-3.25-4.21,11,11,0,0,1-.65-1.49,15.09,15.09,0,0,1,1.8-13.86,17.63,17.63,0,0,0-6.81,11.72,17.15,17.15,0,0,0,1.82,10,27.48,27.48,0,0,0-7.37,4.95c-3.79,3.51-6.7,8.48-5.83,13.49a11,11,0,0,0,5.89,7.76,11.75,11.75,0,0,0,7.13,1,11.47,11.47,0,0,0,2.86-.9,6.35,6.35,0,0,1-3.39-.49,7.48,7.48,0,0,1-4.38-5.12,9.12,9.12,0,0,1,3.53-8.75l.36-.28a14.76,14.76,0,0,1,10.17-2.32c5.21.59,10.44,3.79,11.74,8.67.92,3.44-.18,7-1.39,10.39q-2.7,7.57-6.12,14.88a176.29,176.29,0,0,1-22.94,36.7h0c-4.17-1.63-6.55-2.77-6.55-2.77A98.44,98.44,0,0,1,74.47,446c-2.57-5-2.71-10.14-4.36-15.46h0c7.9-17,25.16-51,58.52-66.54a7.92,7.92,0,0,0,6.68,1.34,7.59,7.59,0,0,0,5.73-6c1.2-.35,2.41-.67,3.65-1a82.08,82.08,0,0,1,9.78-1.79c33.36,11.77,72.62,57.06,72.62,57.06s39.25-45.29,72.61-57.06a84.94,84.94,0,0,1,11.82,2.3,7.53,7.53,0,0,0,5.78,6.47,8.05,8.05,0,0,0,1.94.24,7.87,7.87,0,0,0,5.31-2c13,5.86,21.87,14.52,30.79,23.94C369.79,402.71,376.13,419.92,381.06,430.55Z" />
      <path class="BUNTAI_BEAR_OUTFIT_BEAR_OUTFIT_19_cls-4" d="M382.57,414.33c-.68,5.49.14,10.91-1.51,16.22-4.93-10.63-11.27-27.84-25.72-43.06-8.92-9.42-17.8-18.08-30.79-23.94a7.25,7.25,0,0,0,2.19-3.57q1.11-4.17,2.28-8c.51.2,1,.42,1.52.64,12,5.19,21,12.41,30.39,21.31C372.84,385.19,377,399.16,382.57,414.33Z" />
      <path class="BUNTAI_BEAR_OUTFIT_BEAR_OUTFIT_19_cls-4" d="M311.71,356.28a7,7,0,0,0-.19,2.6,84.94,84.94,0,0,0-11.82-2.3c-33.36,11.77-72.61,57.06-72.61,57.06s-39.26-45.29-72.62-57.06c-.8.1-1.6.2-2.38.33l-.24,0c-.79.12-1.58.26-2.35.39l-.2,0-2.19.43-.09,0c-.79.17-1.57.34-2.33.54s-1.23.3-1.84.47l-1.81.5a7.07,7.07,0,0,0-.13-3.06q-1.24-4.63-2.53-8.93a112.25,112.25,0,0,1,15.34-3.18s31-1.42,73.37,51.44c42.34-52.86,73.37-51.44,73.37-51.44a111.76,111.76,0,0,1,13.9,2.79C313.45,350,312.57,353.05,311.71,356.28Z" />
      <path class="BUNTAI_BEAR_OUTFIT_BEAR_OUTFIT_19_cls-4" d="M128.63,364C95.27,379.55,78,413.53,70.11,430.55a94.18,94.18,0,0,1-3.5-16.22c5.59-15.17,12.73-29.14,24.64-40.43a111,111,0,0,1,32.39-21.31.52.52,0,0,0,.13-.06q1.08,3.6,2.1,7.45A7.4,7.4,0,0,0,128.63,364Z" />
      <path class="BUNTAI_BEAR_OUTFIT_BEAR_OUTFIT_19_cls-2" d="M372.93,327.66c6.67,8.4,22.34,16.79,29,25.18-.48,4-2.67,8.05-2.52,12.09-.71-.9-1.42-1.78-2.13-2.65-5.38-6.52-18-12.88-23.77-19.09Q373.22,335.42,372.93,327.66Z" />
      <path class="BUNTAI_BEAR_OUTFIT_BEAR_OUTFIT_19_cls-2" d="M175.4,303.44,232,308.18c10.32.86,20.91,1.69,31.19.92a59.44,59.44,0,0,0,7.59-3.86c8.33-5,15.44-11.57,22.61-18,6.1-5.47,13-11.14,21.27-11.6,4.86-.27,9.61,1.31,14.21,2.87l24.79,8.41a19,19,0,0,0,0,6.65,35.66,35.66,0,0,0,8.12.69,25.43,25.43,0,0,1,4.86,15.59,13.39,13.39,0,0,1,4.19,3.9c1.63,2.57,1.79,5.72,1.91,8.73.07,1.73.13,3.46.2,5.18q.3,7.77.59,15.53-4.38-4.69-8.92-9.27c-6.4-6.44-13.33-12.81-21-17.82a63.62,63.62,0,0,0-13.73-6.92,49.13,49.13,0,0,0-9.38-2.33c-16.94-2.46-33.61,4.49-50.21,8.65a157.52,157.52,0,0,1-86.65-3.08c-11.2-3.67-22-8.61-33.35-11.61-9.23-2.41-19.15-3.48-28.39-1.5a8,8,0,0,0-4.23-2.64,50.78,50.78,0,0,1,23.43-3.06c7.27.78,14.26,3.12,21.15,5.46C166.61,300.56,171,302,175.4,303.44Z" />
      <path class="BUNTAI_BEAR_OUTFIT_BEAR_OUTFIT_19_cls-4" d="M121.77,307.46a16.15,16.15,0,0,1-5.94,5.5,16.74,16.74,0,0,1-1.84.94,19.85,19.85,0,0,1-5.36,1.54c-.33.05-.67.08-1,.11a13.36,13.36,0,0,1-6.17-.82,7,7,0,0,1-3.71-3.32c-1.34-2.79-.29-6.25,2.42-9.17l.13-.12h0a18,18,0,0,1,5.26-3.83l.77-.37a19.17,19.17,0,0,1,8.34-1.7c.46,0,.89.06,1.32.13a11,11,0,0,1,1.67.33,8,8,0,0,1,4.23,2.64,6.51,6.51,0,0,1,.68,1.1C123.62,302.55,123.24,305.08,121.77,307.46Z" />
      <path class="BUNTAI_BEAR_OUTFIT_BEAR_OUTFIT_19_cls-5" d="M329.89,309.18A199.84,199.84,0,0,0,314.36,347c-.91,3-1.79,6.09-2.65,9.32a7,7,0,0,0-.19,2.6,7.53,7.53,0,0,0,5.78,6.47,8.05,8.05,0,0,0,1.94.24,7.87,7.87,0,0,0,5.31-2,7.25,7.25,0,0,0,2.19-3.57q1.11-4.17,2.28-8a187.06,187.06,0,0,1,14.6-35.85A63.62,63.62,0,0,0,329.89,309.18Z" />
      <path class="BUNTAI_BEAR_OUTFIT_BEAR_OUTFIT_19_cls-5" d="M141,359.34a7.59,7.59,0,0,1-5.73,6,7.92,7.92,0,0,1-6.68-1.34,7.4,7.4,0,0,1-2.76-4q-1-3.86-2.1-7.45a185.41,185.41,0,0,0-15.14-37.09A19.85,19.85,0,0,0,114,313.9a16.74,16.74,0,0,0,1.84-.94,16.15,16.15,0,0,0,5.94-5.5,198.59,198.59,0,0,1,16.61,39.89q1.29,4.29,2.53,8.93A7.07,7.07,0,0,1,141,359.34Z" />
      <path class="BUNTAI_BEAR_OUTFIT_BEAR_OUTFIT_19_cls-5" d="M114.69,296.21a19.17,19.17,0,0,0-8.34,1.7l-.77.37h0l-.75.39-.69.39,0,0a16.75,16.75,0,0,0-1.8,1.23l-.41.33c-.15.12-.31.25-.45.38a11.07,11.07,0,0,0-1,1l0,.05h0l-.13.12-.42-.56-.41-.54c-.19-.25-.38-.49-.58-.73l-.55-.69c-.36-.46-.73-.9-1.08-1.32s-.69-.82-1-1.2l-.91-1-.07-.07c-.31-.34-.62-.68-.92-1-.57-.6-1.1-1.14-1.6-1.63l.07,0c3.57.95,6.29,1.88,7.86,1.48.63-.16,1.39-.39,2.21-.65,3.58-1.16,8.3-3,8.3-3Q112.81,293.55,114.69,296.21Z" />
      <path class="BUNTAI_BEAR_OUTFIT_BEAR_OUTFIT_19_cls-2" d="M101,315.6a138.62,138.62,0,0,1-10.65,16.15,193,193,0,0,1-21.1,11.7c-1.46.69-2.91,1.36-4.37,2a121.38,121.38,0,0,0-12.58,6.4c-1.88,1.13-3.7,2.39-5.64,3.71-6.63,4.52-13.49,9.2-22.08,9.52h-.87c-9,0-17-5-22.86-8.68l-13.2-8.25A42.34,42.34,0,0,1-7.74,348a29.76,29.76,0,0,0,6.48-1l6,3.72c6.86,4.28,13.06,7.83,19.56,7.57s12.17-4.14,18.22-8.26c1.92-1.31,3.92-2.67,5.93-3.91a128.72,128.72,0,0,1,13.34-6.78q2.16-1,4.29-2A183.38,183.38,0,0,0,101,315.6Z" />
      <path class="BUNTAI_BEAR_OUTFIT_BEAR_OUTFIT_19_cls-3" d="M101.46,314.73l-.5.87A183.15,183.15,0,0,1,66,337.27l-4.28,2a128.72,128.72,0,0,0-13.34,6.78c-2,1.24-4,2.6-5.93,3.91-6,4.12-11.75,8-18.22,8.26s-12.71-3.29-19.57-7.57l-5.95-3.72c1.06-.27,2.11-.58,3.16-.91h0c1.61-.5,3.21-1,4.81-1.54l.89-.28q1.13-.35,2.25-.63l1.17-.3c.44-.1.88-.2,1.32-.28h0l.29-.07.33-.06a9.19,9.19,0,0,0,5.6-3.72c.17-.21.31-.42.45-.63s.34-.54.49-.81.3-.55.44-.83.21-.43.3-.65l.18-.4.27-.68c.17-.44.33-.89.48-1.34s.25-.75.36-1.12.24-.75.35-1.12c2.88-9.43,7.07-18.26,10-27.69a59.31,59.31,0,0,0,17.32-1.59,78.15,78.15,0,0,1,13.17-21.78A64.11,64.11,0,0,0,77,292.57h0l.41-.34h0a36.68,36.68,0,0,1,15.15,1.25c.5.49,1,1,1.6,1.63.3.31.61.65.92,1l.07.07c.3.32.6.67.91,1s.68.78,1,1.2l1.08,1.32.55.69c.2.24.39.48.58.73l.41.54.42.56c-2.71,2.92-3.76,6.38-2.42,9.17A7,7,0,0,0,101.46,314.73Z" />
      <path class="BUNTAI_BEAR_OUTFIT_BEAR_OUTFIT_19_cls-3" d="M64.84,345.48a121.38,121.38,0,0,0-12.58,6.4c-1.88,1.13-3.7,2.39-5.64,3.71-6.63,4.52-13.49,9.2-22.08,9.52h-.87c-9,0-17-5-22.86-8.68l-13.2-8.25a10.33,10.33,0,0,0-2,.45c-2.11.7-4.06,2.4-4.19,4.54,4.57-.34,7.2,3.53,10.42,6.68,3.94,3.87,9,6.42,14,8.91,4.71,2.36,9.6,4.76,14.9,5,6,.3,11.76-2.19,16.77-5.36s9.5-7,14.61-10.06c6.16-3.66,13.08-6,19.27-9.56a66.11,66.11,0,0,0,18.89-17.06,193,193,0,0,1-21.1,11.7C67.75,344.14,66.3,344.81,64.84,345.48Z" />
      <path class="BUNTAI_BEAR_OUTFIT_BEAR_OUTFIT_19_cls-6" d="M77,292.57a67,67,0,0,0,22.3,8.57" />
      <path class="BUNTAI_BEAR_OUTFIT_BEAR_OUTFIT_19_cls-6" d="M49.23,302.27A77.91,77.91,0,0,1,62.4,280.49,63.9,63.9,0,0,0,77,292.57" />
      <path class="BUNTAI_BEAR_OUTFIT_BEAR_OUTFIT_19_cls-6" d="M101,315.6c.17-.28.33-.58.5-.87" />
      <path class="BUNTAI_BEAR_OUTFIT_BEAR_OUTFIT_19_cls-6" d="M-12.39,348.19a10.33,10.33,0,0,0-2,.45c-2.11.7-4.06,2.4-4.19,4.54,4.57-.34,7.2,3.53,10.42,6.68,3.94,3.87,9,6.42,14,8.91,4.71,2.36,9.6,4.76,14.9,5,6,.3,11.76-2.19,16.77-5.36s9.5-7,14.61-10.06c6.16-3.66,13.08-6,19.27-9.56a66.11,66.11,0,0,0,18.89-17.06" />
      <path class="BUNTAI_BEAR_OUTFIT_BEAR_OUTFIT_19_cls-6" d="M65.29,295.79a59.66,59.66,0,0,1-33.39,8.07c-2.89,9.43-7.07,18.26-10,27.69a26.42,26.42,0,0,1-2.87,6.95c-.14.21-.28.42-.45.63a9.17,9.17,0,0,1-5.6,3.72c-4.82.85-9.5,2.86-14.28,4.08" />
      <path class="BUNTAI_BEAR_OUTFIT_BEAR_OUTFIT_19_cls-6" d="M18.62,339.13c27.54,1.32,55.6-8.19,75.93-26.18" />
      <path class="BUNTAI_BEAR_OUTFIT_BEAR_OUTFIT_19_cls-6" d="M101,315.6a138.62,138.62,0,0,1-10.65,16.15,193,193,0,0,1-21.1,11.7c-1.46.69-2.91,1.36-4.37,2a121.38,121.38,0,0,0-12.58,6.4c-1.88,1.13-3.7,2.39-5.64,3.71-6.63,4.52-13.49,9.2-22.08,9.52h-.87c-9,0-17-5-22.86-8.68l-13.2-8.25A42.34,42.34,0,0,1-7.74,348a29.76,29.76,0,0,0,6.48-1l6,3.72c6.86,4.28,13.06,7.83,19.56,7.57s12.17-4.14,18.22-8.26c1.92-1.31,3.92-2.67,5.93-3.91a128.72,128.72,0,0,1,13.34-6.78q2.16-1,4.29-2A183.38,183.38,0,0,0,101,315.6Z" />
      <path class="BUNTAI_BEAR_OUTFIT_BEAR_OUTFIT_19_cls-6" d="M121.77,307.46a16.15,16.15,0,0,1-5.94,5.5,16.74,16.74,0,0,1-1.84.94,19.85,19.85,0,0,1-5.36,1.54c-.33.05-.67.08-1,.11a13.36,13.36,0,0,1-6.17-.82,7,7,0,0,1-3.71-3.32c-1.34-2.79-.29-6.25,2.42-9.17l.13-.12h0a18,18,0,0,1,5.26-3.83l.77-.37a19.17,19.17,0,0,1,8.34-1.7c.46,0,.89.06,1.32.13a11,11,0,0,1,1.67.33,8,8,0,0,1,4.23,2.64,6.51,6.51,0,0,1,.68,1.1C123.62,302.55,123.24,305.08,121.77,307.46Z" />
      <path class="BUNTAI_BEAR_OUTFIT_BEAR_OUTFIT_19_cls-6" d="M108.63,315.44a185.41,185.41,0,0,1,15.14,37.09q1.08,3.6,2.1,7.45a7.4,7.4,0,0,0,2.76,4,7.92,7.92,0,0,0,6.68,1.34,7.59,7.59,0,0,0,5.73-6,7.07,7.07,0,0,0-.13-3.06q-1.24-4.63-2.53-8.93a198.59,198.59,0,0,0-16.61-39.89" />
      <path class="BUNTAI_BEAR_OUTFIT_BEAR_OUTFIT_19_cls-6" d="M114.69,296.21q-1.87-2.67-3.65-4.9" />
      <path class="BUNTAI_BEAR_OUTFIT_BEAR_OUTFIT_19_cls-6" d="M100.17,302.24l-.42-.56-.42-.54-.57-.73-.55-.69-1.08-1.32c-.35-.42-.69-.82-1-1.2l-.91-1-.07-.07-.92-1c-.57-.6-1.1-1.14-1.6-1.63" />
      <path class="BUNTAI_BEAR_OUTFIT_BEAR_OUTFIT_19_cls-6" d="M329.89,309.18A199.84,199.84,0,0,0,314.36,347c-.91,3-1.79,6.09-2.65,9.32a7,7,0,0,0-.19,2.6,7.53,7.53,0,0,0,5.78,6.47,8.05,8.05,0,0,0,1.94.24,7.87,7.87,0,0,0,5.31-2,7.25,7.25,0,0,0,2.19-3.57q1.11-4.17,2.28-8a187.06,187.06,0,0,1,14.6-35.85" />
      <path class="BUNTAI_BEAR_OUTFIT_BEAR_OUTFIT_19_cls-6" d="M77.45,292.23h0l-.41.34h0" />
      <path class="BUNTAI_BEAR_OUTFIT_BEAR_OUTFIT_19_cls-6" d="M121.91,299.31c9.24-2,19.16-.91,28.39,1.5,11.4,3,22.15,7.94,33.35,11.61a157.52,157.52,0,0,0,86.65,3.08c16.6-4.16,33.27-11.11,50.21-8.65a49.13,49.13,0,0,1,9.38,2.33,63.62,63.62,0,0,1,13.73,6.92c7.65,5,14.58,11.38,21,17.82q4.54,4.57,8.92,9.27c5.8,6.21,18.39,12.57,23.77,19.09.71.87,1.42,1.75,2.13,2.65" />
      <path class="BUNTAI_BEAR_OUTFIT_BEAR_OUTFIT_19_cls-6" d="M222.34,311.36c-16,.85-31.64-3-46.94-7.92-4.41-1.4-8.79-2.88-13.14-4.37-6.89-2.34-13.88-4.68-21.15-5.46a50.78,50.78,0,0,0-23.43,3.06" />
      <path class="BUNTAI_BEAR_OUTFIT_BEAR_OUTFIT_19_cls-6" d="M332.18,295.31c-6.79-5.14-16.59-4.58-24.68-1.68s-15.24,7.8-23.22,10.95a72.14,72.14,0,0,1-21.1,4.52c-10.28.77-20.87-.06-31.19-.92l-56.59-4.74" />
      <path class="BUNTAI_BEAR_OUTFIT_BEAR_OUTFIT_19_cls-6" d="M263.18,309.1a59.44,59.44,0,0,0,7.59-3.86c8.33-5,15.44-11.57,22.61-18,6.1-5.47,13-11.14,21.27-11.6,4.86-.27,9.61,1.31,14.21,2.87l24.79,8.41a19,19,0,0,0,0,6.65" />
      <path class="BUNTAI_BEAR_OUTFIT_BEAR_OUTFIT_19_cls-6" d="M372.93,327.66c6.67,8.4,22.34,16.79,29,25.18-.48,4-2.67,8.05-2.52,12.09" />
      <path class="BUNTAI_BEAR_OUTFIT_BEAR_OUTFIT_19_cls-6" d="M343.83,299.13a124.53,124.53,0,0,1,20.77,9.49c.68.39,1.37.79,2,1.23a13.39,13.39,0,0,1,4.19,3.9c1.63,2.57,1.79,5.72,1.91,8.73.07,1.73.13,3.46.2,5.18q.3,7.77.59,15.53" />
      <path class="BUNTAI_BEAR_OUTFIT_BEAR_OUTFIT_19_cls-6" d="M366.63,309.85a25.43,25.43,0,0,0-4.86-15.59,35.66,35.66,0,0,1-8.12-.69,70.83,70.83,0,0,1-8.74-2.35c-5.44-1.8-10.8-3.91-16.42-5.05s-11.66-1.24-16.95.92" />
      <path class="BUNTAI_BEAR_OUTFIT_BEAR_OUTFIT_19_cls-6" d="M227.09,473.42c-24.26,25.42-58.74,25.25-84.51,20.11a171.29,171.29,0,0,1-28.84-8.47c-4.17-1.63-6.55-2.77-6.55-2.77A98.44,98.44,0,0,1,74.47,446c-2.57-5-2.71-10.14-4.36-15.46" />
      <path class="BUNTAI_BEAR_OUTFIT_BEAR_OUTFIT_19_cls-6" d="M70.11,430.55a94.18,94.18,0,0,1-3.5-16.22" />
      <path class="BUNTAI_BEAR_OUTFIT_BEAR_OUTFIT_19_cls-6" d="M66.61,414.33c5.59-15.17,12.73-29.14,24.64-40.43a111,111,0,0,1,32.39-21.31.52.52,0,0,0,.13-.06" />
      <path class="BUNTAI_BEAR_OUTFIT_BEAR_OUTFIT_19_cls-6" d="M227.09,395.61c-42.35-52.86-73.37-51.44-73.37-51.44a112.25,112.25,0,0,0-15.34,3.18" />
      <path class="BUNTAI_BEAR_OUTFIT_BEAR_OUTFIT_19_cls-6" d="M128.63,364C95.27,379.55,78,413.53,70.11,430.55h0" />
      <path class="BUNTAI_BEAR_OUTFIT_BEAR_OUTFIT_19_cls-6" d="M141,359.34a84.05,84.05,0,0,1,13.43-2.76c33.36,11.77,72.62,57.06,72.62,57.06" />
      <path class="BUNTAI_BEAR_OUTFIT_BEAR_OUTFIT_19_cls-6" d="M188.32,421.39a20.92,20.92,0,0,1,4.19,3.53,17.85,17.85,0,0,1,3.22,5.08,16.45,16.45,0,0,1,.71,11.14,15.3,15.3,0,0,1-13,10.51c-6,.47-12.19-3.42-13.72-9a7,7,0,0,0,7.29,3.52,6.77,6.77,0,0,0,5.46-5.83c.31-3.58-2.6-6.85-6.06-8.23a13.71,13.71,0,0,0-12.18,1.09c-4.82,3-7,8.66-8.79,13.92q-6.76,19.95-11.78,40.39l-1.06,6" />
      <path class="BUNTAI_BEAR_OUTFIT_BEAR_OUTFIT_19_cls-6" d="M113.74,485.05a176.19,176.19,0,0,0,29.06-51.58c1.21-3.36,2.31-7,1.39-10.39-1.3-4.88-6.53-8.08-11.74-8.67a14.81,14.81,0,0,0-10.17,2.32c-2.85,2.06-4.62,5.65-3.89,9a7.34,7.34,0,0,0,7.77,5.61,11.72,11.72,0,0,1-10-.07,11,11,0,0,1-5.89-7.76c-.87-5,2-10,5.83-13.49a27.48,27.48,0,0,1,7.37-4.95,24.93,24.93,0,0,1,7.09-2.14c.79-.12,1.58-.17,2.36-.21s1.4,0,2.11,0a21.56,21.56,0,0,1,6.88,1.53,18.82,18.82,0,0,1,7.61,5.49c3.87,4.77,6,11.9,2.95,17.2,6-7.16,16.25-10.66,25.69-9.29.46.06.93.13,1.4.23a26.37,26.37,0,0,1,6.72,2.32,16.65,16.65,0,0,1,2,1.14" />
      <path class="BUNTAI_BEAR_OUTFIT_BEAR_OUTFIT_19_cls-6" d="M123.48,405.1a17.15,17.15,0,0,1-1.82-10,17.63,17.63,0,0,1,6.81-11.72,14.71,14.71,0,0,0,2.1,19.56" />
      <path class="BUNTAI_BEAR_OUTFIT_BEAR_OUTFIT_19_cls-6" d="M195.73,430a23.69,23.69,0,0,0,7-6.56,22,22,0,0,0,3.66-17.06,12.57,12.57,0,0,1-4,9.39,20.11,20.11,0,0,1-9.44,4.89,31.89,31.89,0,0,1-4.58.73h0" />
      <path class="BUNTAI_BEAR_OUTFIT_BEAR_OUTFIT_19_cls-6" d="M141.92,404.3c0-.16,0-.34,0-.53,0-2.73,2.41-5,5.09-5.93a11,11,0,0,1,10.79,2.33,9.94,9.94,0,0,1,2.53,10.35c1.61-3.7,6-5.75,10.16-5.24a9.72,9.72,0,0,1,8.28,7.86,8.68,8.68,0,0,1-.58,4.56" />
      <path class="BUNTAI_BEAR_OUTFIT_BEAR_OUTFIT_19_cls-6" d="M135,402.77a10.19,10.19,0,0,1,1.64-8.43,13.62,13.62,0,0,1,9.6-5.23,19.17,19.17,0,0,1,10.91,2.35,29.86,29.86,0,0,1,8.53,7.16,19,19,0,0,1,12.46-1.49,15.3,15.3,0,0,1,10,7.3,13.84,13.84,0,0,1,.78,11.28,15.24,15.24,0,0,1-2.68,4.54" />
      <path class="BUNTAI_BEAR_OUTFIT_BEAR_OUTFIT_19_cls-6" d="M382.57,414.33c-.68,5.49.14,10.91-1.51,16.22" />
      <path class="BUNTAI_BEAR_OUTFIT_BEAR_OUTFIT_19_cls-6" d="M381.06,430.56A94,94,0,0,1,374.7,446c-7.53,14.48-13.88,27.06-27.71,36.27,0,0-2.39,1.14-6.55,2.77a171.47,171.47,0,0,1-28.18,8.34c-25.84,5.25-60.71,5.66-85.17-20" />
      <path class="BUNTAI_BEAR_OUTFIT_BEAR_OUTFIT_19_cls-6" d="M227.09,395.61c42.34-52.86,73.37-51.44,73.37-51.44a111.76,111.76,0,0,1,13.9,2.79" />
      <path class="BUNTAI_BEAR_OUTFIT_BEAR_OUTFIT_19_cls-6" d="M382.57,414.33c-5.6-15.17-9.73-29.14-21.64-40.43-9.36-8.9-18.4-16.12-30.39-21.31-.51-.22-1-.44-1.52-.64" />
      <path class="BUNTAI_BEAR_OUTFIT_BEAR_OUTFIT_19_cls-6" d="M227.09,413.64s39.25-45.29,72.61-57.06a84.94,84.94,0,0,1,11.82,2.3" />
      <path class="BUNTAI_BEAR_OUTFIT_BEAR_OUTFIT_19_cls-6" d="M381.06,430.56h0c-4.93-10.63-11.27-27.84-25.72-43.06-8.92-9.42-17.8-18.08-30.79-23.94" />
      <path class="BUNTAI_BEAR_OUTFIT_BEAR_OUTFIT_19_cls-6" d="M265.85,421.39a20.59,20.59,0,0,0-4.18,3.53,18.11,18.11,0,0,0-3.23,5.08,16.51,16.51,0,0,0-.7,11.14,15.3,15.3,0,0,0,13,10.51c6,.47,12.19-3.42,13.72-9a7,7,0,0,1-7.29,3.52,6.78,6.78,0,0,1-5.47-5.83c-.31-3.58,2.61-6.85,6.07-8.23A13.71,13.71,0,0,1,290,433.17c4.82,3,7,8.66,8.79,13.92q6.76,19.95,11.78,40.39l1.72,5.91" />
      <path class="BUNTAI_BEAR_OUTFIT_BEAR_OUTFIT_19_cls-6" d="M340.44,485.05a176.22,176.22,0,0,1-29.07-51.58c-1.2-3.36-2.3-7-1.38-10.39,1.3-4.88,6.53-8.08,11.74-8.67a14.82,14.82,0,0,1,10.17,2.32c2.85,2.06,4.61,5.65,3.89,9a7.34,7.34,0,0,1-7.77,5.61,11.7,11.7,0,0,0,10-.07,10.94,10.94,0,0,0,5.9-7.76c.87-5-2-10-5.84-13.49a27.43,27.43,0,0,0-7.36-4.95,24.9,24.9,0,0,0-7.1-2.14,23.3,23.3,0,0,0-2.35-.21c-.7,0-1.41,0-2.11,0a21.56,21.56,0,0,0-6.88,1.53,18.85,18.85,0,0,0-7.62,5.49c-3.86,4.77-6,11.9-2.94,17.2-6-7.16-16.25-10.66-25.69-9.29-.47.06-.93.13-1.4.23a26.57,26.57,0,0,0-6.73,2.32,17.31,17.31,0,0,0-2,1.14" />
      <path class="BUNTAI_BEAR_OUTFIT_BEAR_OUTFIT_19_cls-6" d="M323.6,403a14.68,14.68,0,0,0,2.1-19.56,17.6,17.6,0,0,1,6.82,11.72,17.15,17.15,0,0,1-1.82,10" />
      <path class="BUNTAI_BEAR_OUTFIT_BEAR_OUTFIT_19_cls-6" d="M265.87,421.39h0a32.11,32.11,0,0,1-4.58-.73,20.16,20.16,0,0,1-9.44-4.89,12.56,12.56,0,0,1-4-9.39,22,22,0,0,0,3.66,17.06,23.65,23.65,0,0,0,6.95,6.56" />
      <path class="BUNTAI_BEAR_OUTFIT_BEAR_OUTFIT_19_cls-6" d="M276,417.7a8.59,8.59,0,0,1-.59-4.56,9.74,9.74,0,0,1,8.28-7.86c4.13-.51,8.56,1.54,10.17,5.24a9.92,9.92,0,0,1,2.53-10.35,11,11,0,0,1,10.79-2.33c2.68.9,5.07,3.2,5.09,5.93,0,.19,0,.37,0,.53" />
      <path class="BUNTAI_BEAR_OUTFIT_BEAR_OUTFIT_19_cls-6" d="M267.88,420.25a15.43,15.43,0,0,1-2.67-4.54,13.8,13.8,0,0,1,.78-11.28,15.3,15.3,0,0,1,10-7.3,18.93,18.93,0,0,1,12.45,1.49,30,30,0,0,1,8.53-7.16,19.2,19.2,0,0,1,10.92-2.35,13.6,13.6,0,0,1,9.59,5.23,10.16,10.16,0,0,1,1.65,8.43" />
      <path class="BUNTAI_BEAR_OUTFIT_BEAR_OUTFIT_19_cls-6" d="M116,296.34s9.14,7.42-6.39,15.92" />
      <path class="BUNTAI_BEAR_OUTFIT_BEAR_OUTFIT_19_cls-6" d="M77.44,292.23h0a36.68,36.68,0,0,1,15.15,1.25c3.6,1,6.35,1.91,7.93,1.5,3.38-.87,10.51-3.67,10.51-3.67" />
      <g class="BUNTAI_BEAR_OUTFIT_BEAR_OUTFIT_19_cls-7">
        <path d="M382.57,414.33c-.68,5.49.14,10.91-1.51,16.22h0A94,94,0,0,1,374.7,446c-7.53,14.48-13.88,27.06-27.71,36.27,0,0-2.39,1.14-6.55,2.77a171.47,171.47,0,0,1-28.18,8.34c-25.84,5.25-60.71,5.66-85.17-20-24.26,25.42-58.74,25.25-84.51,20.11a171.29,171.29,0,0,1-28.84-8.47c-4.17-1.63-6.55-2.77-6.55-2.77A98.44,98.44,0,0,1,74.47,446c-2.57-5-2.71-10.14-4.36-15.46h0a94.18,94.18,0,0,1-3.5-16.22c5.59-15.17,12.73-29.14,24.64-40.43a111,111,0,0,1,32.39-21.31.52.52,0,0,0,.13-.06,185.41,185.41,0,0,0-15.14-37.09c-.33.05-.67.08-1,.11l8.2-2.59h0s13.85,31.39,14.7,36.75,8.5.66,8.5.66l-.69-3a112.25,112.25,0,0,1,15.34-3.18s-3.91,5.47-9,14.2c-5.79,9.85-13.09,23.87-18,38.89h0c-.81,2.45-1.55,4.91-2.2,7.39A104.18,104.18,0,0,0,121.92,417q-.23,1.62-.39,3.24a24.45,24.45,0,0,0,1.24,10.63,14.68,14.68,0,0,0,.53,1.39c2.44,6.06,7.18,11.49,13.38,16.08a74.12,74.12,0,0,0,15.51,8.6c24,9.93,56.12,10.89,74.18-2.74,8.21,3.91,43.09,6.88,72.82-5.82a83.44,83.44,0,0,0,14.8-8.07,67.87,67.87,0,0,0,18.66-18.93l1.74-2.07q3.09-3.74,5.74-7.09c8.54-10.79,11.87-18.86,15.21-24.74,5.56-9.79,5.59-13.52,5.59-13.59C372.84,385.19,377,399.16,382.57,414.33Z" />
        <path d="M64.32,296.34S50.25,308.87,35.1,314.09c17.65-.4,52.13-11.82,52.13-11.82-19.74,3.26-36.15,5.93-36.15,5.93S61.16,303.88,64.32,296.34Z" />
        <path d="M24.25,327.61s15.85.4,28.92-2.14c-8.9,3.34-25,7.76-25,7.76s36.69.94,63.81-18.06c-20.58,14.05-35.84,19.4-47.67,22.48s-25.67,1.48-25.67,1.48Z" />
        <path d="M1.9,346s18.74,1.36,27.08.91a45.89,45.89,0,0,0,15.31-3.74s-20.07,4.17-25.67,1.92-8-2.51-8-2.51Z" />
        <path d="M105.58,298.28h0l0,0a43.78,43.78,0,0,0-5.08,3.68l-.07.06,0,.05h0a100.13,100.13,0,0,0-7.63-8.61c3.57.95,6.29,1.88,7.86,1.48.63-.16,1.39-.39,2.21-.65A39.31,39.31,0,0,1,105.58,298.28Z" />
        <path d="M268.66,308.53c-2.1-.56,12.48-2.2,25.27-11.83s25.16-9.57,39.06-5.26S366.63,303,366.63,303l-.35,6.11s-20-9.43-27.19-11.49-11.54-3.52-11.54-3.52-6-4.55-16.52-1.14c18.14,3.28,47.14,13.76,54.49,23.48l7.35,9.73.65,3.42,13.53,10.72s8.49,5,8.55,4.84,6.34,7.7,6.34,7.7l-.52,4.55L373.23,335.1a111.43,111.43,0,0,0-19.58-20.37c-12.21-9.84-33.27-19-45.78-15.6S280.85,311.76,268.66,308.53Z" />
        <path d="M211,311.22s7,0,25.64.9,23.77,1.5,23.77,1.5-4.38,1.81-17.93,1.51S211,311.22,211,311.22Z" />
      </g>
    </g>
  </g>
</svg>