<svg xmlns="http://www.w3.org/2000/svg" viewBox="0 0 432 432">
  <defs>
    <style>.BUNTAI_BEAR_OUTFIT_BEAR_OUTFIT_26_cls-1{isolation:isolate;}.BUNTAI_BEAR_OUTFIT_BEAR_OUTFIT_26_cls-2{fill:#3c7d6e;}.BUNTAI_BEAR_OUTFIT_BEAR_OUTFIT_26_cls-3{fill:#fff;}.BUNTAI_BEAR_OUTFIT_BEAR_OUTFIT_26_cls-4{fill:#40260c;}.BUNTAI_BEAR_OUTFIT_BEAR_OUTFIT_26_cls-5{fill:#fadb4c;}.BUNTAI_BEAR_OUTFIT_BEAR_OUTFIT_26_cls-6,.BUNTAI_BEAR_OUTFIT_BEAR_OUTFIT_26_cls-8{fill:none;stroke-linecap:round;stroke-linejoin:round;}.BUNTAI_BEAR_OUTFIT_BEAR_OUTFIT_26_cls-6,.BUNTAI_BEAR_OUTFIT_BEAR_OUTFIT_26_cls-7,.BUNTAI_BEAR_OUTFIT_BEAR_OUTFIT_26_cls-8{stroke:#000;}.BUNTAI_BEAR_OUTFIT_BEAR_OUTFIT_26_cls-6{stroke-width:1.94px;}.BUNTAI_BEAR_OUTFIT_BEAR_OUTFIT_26_cls-7{fill:#c9a976;stroke-miterlimit:10;stroke-width:1.36px;}.BUNTAI_BEAR_OUTFIT_BEAR_OUTFIT_26_cls-8{stroke-width:2.74px;}.BUNTAI_BEAR_OUTFIT_BEAR_OUTFIT_26_cls-9{opacity:0.43;mix-blend-mode:multiply;}</style>
  </defs>
  <g class="BUNTAI_BEAR_OUTFIT_BEAR_OUTFIT_26_cls-1">
    <g id="outfit">
      <path class="BUNTAI_BEAR_OUTFIT_BEAR_OUTFIT_26_cls-2" d="M381.91,430.48c-2.67,14.33-15.23,29.27-38.39,41.14-31.45,9.42-45.32,4.47-82.46,3.84-1.28,0-2.59,0-3.93,0h-1.2c-9.63-.06-20.77.2-34,1-2.63.18-5.35.36-8.17.58q-7.46.57-15.82,1.41l-5.63.58-6.21.69c-.4-.94-.84-1.87-1.29-2.81q-.84-1.72-1.77-3.48c-.37-.71-.77-1.41-1.16-2.12s-.81-1.42-1.23-2.13-.76-1.3-1.16-2q-2.37-3.93-5-7.93L172.91,457c-3.08-4.66-6.3-9.37-9.36-14.13h0c-.22-.33-.43-.67-.65-1L161.74,440c-.32-.5-.63-1-1-1.52s-.54-.89-.82-1.33c-1.16-1.92-2.27-3.83-3.32-5.75a82.5,82.5,0,0,1-8-19.21q-.15-.56-.27-1.08c-.1-.39-.18-.77-.26-1.16s-.16-.77-.23-1.15c-4.59-24.66,14.24-59.88,14.24-59.88s46.25,15.94,84.07,49.2A217.15,217.15,0,0,1,291.23,361a185,185,0,0,1,22.32-12.13c24.38,10.1,47,25.53,57.81,35.09a82.92,82.92,0,0,1,4.44,8.28A75.6,75.6,0,0,1,382,411.55,54,54,0,0,1,381.91,430.48Z" />
      <path class="BUNTAI_BEAR_OUTFIT_BEAR_OUTFIT_26_cls-3" d="M264.81,362.66a40.05,40.05,0,0,1-1.16,9.71,213.73,213.73,0,0,0-18.14,16.24c-6.34-5.16-12.81-9.85-19.19-14.09a40,40,0,0,1-1.76-11.86c0-12.54,5.54-23.2,13.31-27.22a14.77,14.77,0,0,1,6.41-1.69h.41a14.6,14.6,0,0,1,6.3,1.44C259,339,264.81,349.84,264.81,362.66Z" />
      <path class="BUNTAI_BEAR_OUTFIT_BEAR_OUTFIT_26_cls-3" d="M181.41,480.18c-48.44,4.6-72.49-8.57-72.49-8.57-2.35-1.2-4.55-2.42-6.61-3.69-7.42-4.49-16.14-9.33-20.48-14.38a48.7,48.7,0,0,1-11.19-22.36,53.89,53.89,0,0,1-.16-19.64h0c0-.32.11-.65.18-1,.15-.9.34-1.81.55-2.68.15-.67.31-1.35.49-2s.34-1.29.52-1.93c0-.16.09-.32.14-.48.5-1.68,1-3.3,1.62-4.85.24-.65.49-1.28.73-1.9s.5-1.23.75-1.82c.68-1.6,1.36-3.1,2-4.45v0a.12.12,0,0,1,0,0l.12-.07,0-.05,0,0,.08-.07.12-.08.38-.27h0l.21-.16c.63-.46,1.55-1.11,2.73-1.92l.59-.4c.4-.29.83-.58,1.3-.88l.23-.17,1.22-.82,1.61-1.05s0,0,0,0L88,383.25c.29-.2.59-.38.9-.57l1-.62c.5-.31,4-.63,4.53-1q2.86-1.78,6.25-3.8l1.23-.74h0l2-1.19c2.38-1.37,4.92-2.81,7.6-4.27l.18-.1c4.84-2.63,10.15-5.38,15.85-8.1l1.75-.83c1.08-.52,2.18-1,3.3-1.53l2.09-1c2-.91,4.11-1.81,6.23-2.72l2.2-.92,1-.4,2-.8,1-.39c2.94-1.16,6-2.31,9-3.41-.21.43-.45.92-.71,1.47-.14.27-.27.57-.42.87-.78,1.66-1.73,3.75-2.75,6.16-.18.43-.37.88-.55,1.33l-.58,1.41c-.1.23-.2.48-.29.73-.19.49-.39,1-.58,1.49s-.4,1-.59,1.54-.3.79-.44,1.19c0,.14-.09.27-.14.4l-.3.81c-.58,1.64-1.16,3.34-1.71,5.09-.13.43-.27.87-.41,1.32s-.26.88-.4,1.33c-.46,1.53-.89,3.1-1.28,4.69-.07.27-.14.53-.2.79-.23.94-.45,1.87-.65,2.81-.08.4-.17.81-.25,1.21-.17.8-.32,1.61-.46,2.42l0,.15c-.06.35-.12.71-.17,1.06l-.18,1.12h0c-.06.38-.11.74-.16,1.12s-.09.65-.13,1-.09.78-.13,1.18a2.11,2.11,0,0,0,0,.25c-.06.51-.11,1-.15,1.54l0,.32a58.82,58.82,0,0,0-.15,6.34c0,.42,0,.84.06,1.26v.11a42,42,0,0,0,.63,5.33c.14.77.31,1.54.49,2.31.09.39.17.77.28,1.16l.15.57c0,.2.1.39.16.58l.21.74c0,.13.08.28.13.41.11.38.23.77.36,1.15s.32,1,.49,1.45c.71,2,1.53,4.07,2.44,6.11.39.88.8,1.75,1.23,2.63.06.13.12.26.19.39.14.3.28.58.43.86q.57,1.14,1.17,2.28c.4.76.81,1.51,1.23,2.27.32.57.63,1.14,1,1.7s.65,1.13,1,1.69l.67,1.13.68,1.12c.34.57.69,1.13,1,1.69.11.19.23.38.35.56.46.75.93,1.5,1.41,2.24,1.43,2.24,2.89,4.46,4.37,6.68l1.43,2.17a.1.1,0,0,1,0,0l2.14,3.2c.79,1.17,1.57,2.35,2.34,3.51l1.15,1.76c.55.82,1.09,1.65,1.61,2.47,1,1.5,1.9,3,2.81,4.46.35.56.68,1.11,1,1.65l.78,1.31a.47.47,0,0,1,.06.09c.74,1.28,1.45,2.54,2.13,3.81.26.45.49.91.73,1.38l.14.25.12.24c.22.43.44.86.65,1.29.1.2.2.39.29.59s.21.42.31.63c.25.5.48,1,.7,1.5l.37.85Z" />
      <path class="BUNTAI_BEAR_OUTFIT_BEAR_OUTFIT_26_cls-4" d="M366.73,327.46h0c-.31.16-.64.34-1,.54l-.8.46-1.07.64-1,.6-1,.64a4.4,4.4,0,0,0-.39.26l-.92.6c-.62.42-1.25.85-1.9,1.31l-1.38,1c-.46.34-.91.68-1.37,1.05s-.67.51-1,.79c-1.05.84-2.11,1.73-3.17,2.68-.46.4-.93.83-1.39,1.28s-.84.78-1.25,1.21-1,1-1.51,1.54l-.51.54c-.27.29-.55.59-.82.9s-.8.91-1.19,1.37l-.59.72c-.34.41-.67.82-1,1.24s-.6.77-.88,1.16-.77,1.07-1.14,1.61l-.44.65c-.44.67-.87,1.35-1.28,2-.28.45-.55.92-.81,1.4-.11.17-.2.34-.3.52-1.14-.66-2.3-1.31-3.48-2l-2-1.08-1.49-.8-.09,0h0l-1.72-.88c-.58-.3-1.16-.6-1.75-.88s-1.17-.59-1.76-.87c-3-1.43-6-2.81-9.13-4.1L313.49,342l-2.63,1.13-1.11.48-.3.13-.34.15a4.23,4.23,0,0,0-.45.21l-.55.25-.95.44c-.15.06-.3.15-.47.23-.4.18-.85.4-1.32.63l-.48.24c-.54.26-1.11.54-1.71.86-.34.16-.69.35-1.05.54-1.21.61-2.55,1.32-4,2.1l-.13.07c-1.07.59-2.19,1.22-3.37,1.89l-1.13.64c-.13.09-.27.16-.41.24l-.54.31-.35.21c-.12.06-.24.14-.37.22h0l-1.29.77-.57.33-.48.28-.22.15c-1.07.63-2.17,1.31-3.3,2-.77.48-1.56,1-2.36,1.5-.32.2-.65.4-1,.62l-2,1.3c-1.34.88-2.7,1.81-4.08,2.77l-1.36.95c-.24.16-.49.33-.73.52-.71.49-1.41,1-2.12,1.52s-1.43,1-2.15,1.58c-1.44,1.06-2.9,2.17-4.36,3.32-.74.56-1.47,1.15-2.21,1.74a40.05,40.05,0,0,0,1.16-9.71c0-12.82-5.79-23.68-13.82-27.48l4.77-21.52s15.83-3,42.46-12.19a130.75,130.75,0,0,0,25.17-11.54h0c5.91,6.41,21.54,18.35,27.66,23.47,2.67,2.25,6.1,5.3,9.11,8S365.69,326.5,366.73,327.46Z" />
      <path class="BUNTAI_BEAR_OUTFIT_BEAR_OUTFIT_26_cls-4" d="M237.86,335.45l-.71.39c-.24.13-.48.29-.71.44-.47.3-.93.63-1.37,1l-.1.08c-.19.14-.38.31-.57.47s-.64.56-1,.88l-.47.46a25.3,25.3,0,0,0-3.24,4.17,6.82,6.82,0,0,0-.42.7,23.75,23.75,0,0,0-1.17,2.18c-.17.35-.34.7-.49,1.07s-.35.82-.52,1.24a.61.61,0,0,0,0,.12c-.16.43-.31.85-.46,1.29-.33,1-.62,1.94-.87,3h0a.06.06,0,0,1,0,0s0,0,0,.06,0,.09,0,.15c-.08.31-.16.63-.23.94s-.16.78-.23,1.18c-.15.8-.28,1.62-.37,2.45-.05.37-.09.75-.12,1.12a.17.17,0,0,0,0,.07c0,.42-.07.82-.09,1.23s0,.53,0,.8,0,.31,0,.47c0,.42,0,.84,0,1.27s0,1.14,0,1.71c0,.13,0,.26,0,.38,0,.35,0,.69.06,1,0,.51.08,1,.14,1.54s.12,1,.2,1.5.15,1,.25,1.46.19,1,.3,1.45.28,1.12.45,1.66l0,.1q0,.13.06.24c0,.12.06.24.1.36s.07.29.12.43h0l-.21-.13a.38.38,0,0,1-.11-.08l-.07,0-1-.69c-1.29-.84-2.57-1.68-3.84-2.48l-.81-.51c-.8-.51-1.6-1-2.39-1.49S216,368,215.07,367.4s-2-1.21-3-1.79l-.43-.25-2.55-1.47-.81-.45-.18-.11-.35-.2L204,361l-2.23-1.2-.35-.19-2.19-1.14c-.62-.34-1.24-.65-1.85-1-.17-.1-.35-.18-.52-.27l-.1-.06h0l-2.21-1.11c-1.56-.79-3.09-1.53-4.56-2.24l-2.71-1.29-1.3-.6-.69-.33-.3-.13-.42-.19-.23-.11-1-.46-.52-.23c-.32-.15-.64-.3-1-.43h0l-.3-.14-1-.44-1.27-.55c-.6-.27-1.19-.52-1.76-.76l-1.23-.52-1-.43-.15-.06-1.88-.77-.3-.12-1.26-.51-.86-.34-.24-.09,0,0-.21-.08-.46-.18-.54-.2-.46-.19-.23-.08-.21-.08-.47-.17-.43-.16L167,344h0l-.13-.05c-.35-.14-.66-.25-.9-.33l-.13-.05-.12,0-.07,0-.13-.05h0l-.12,0-.1,0-3.1-1.06,0,0h0L159,343.38c-7,2.32-13.73,4.87-20.12,7.52-1.6.66-3.17,1.33-4.73,2s-3.08,1.35-4.59,2-3,1.37-4.45,2.06-2.89,1.37-4.3,2h0c-1.54.75-3.05,1.51-4.52,2.26l-2.61,1.34L113,363h0l-.64.34-2.52,1.32-4,2.19-1.94,1.07A46.6,46.6,0,0,0,102,350.6h0a51,51,0,0,0-4.88-11c-.29-.49-.59-1-.88-1.45s-.53-.81-.79-1.2q-1.44-2.16-3-4.1c-.41-.52-.83-1-1.25-1.52h0c-1-1.25-2.12-2.41-3.19-3.52a67.07,67.07,0,0,0-12.22-10l.86-.76c5.55-4.75,15.64-13.26,25-20.45,6.35-4.88,12-9.45,14.72-12.59l.32-.37q1.17.63,2.49,1.29c1.18.58,2.45,1.19,3.84,1.82,1.64.75,3.42,1.51,5.36,2.3l1.1.44,1.13.45c.77.31,1.56.61,2.37.92,7.73,2.93,17.58,6.17,30.18,9.73A413.88,413.88,0,0,0,233,313.67Z" />
      <path class="BUNTAI_BEAR_OUTFIT_BEAR_OUTFIT_26_cls-5" d="M379.36,384.61c-.09-.38-.2-.76-.32-1.12a9.61,9.61,0,0,0-.41-1q-.12-.27-.24-.51l0-.06-.27-.51c-.17-.31-.34-.58-.48-.8h0c-.17-.26-.29-.43-.34-.49l0,0c-7.49-6.67-20.76-14.86-33.16-22.58.34-.66.68-1.33,1-2s.72-1.28,1.09-1.9.75-1.22,1.14-1.82.78-1.17,1.18-1.73.81-1.12,1.22-1.66.83-1.07,1.25-1.59.85-1,1.28-1.51.67-.76,1-1.12l.94-1,.84-.85.85-.83.85-.8.84-.77.85-.74c.26-.23.51-.44.77-.65a3.22,3.22,0,0,1,.28-.24l1.19-1a68.78,68.78,0,0,1,6.83-4.72l1.1-.65c.8-.45,1.55.08,2.25-.28-.89-3.25-3.27-3.83-3.61-3.76h0l-.49-.45c-.31.16-.64.34-1,.55l-.8.45-1.07.64c-.32.19-.65.39-1,.61l-1,.63-.39.26c-.3.19-.61.39-.92.61-.62.41-1.25.85-1.9,1.3l-1.38,1c-.46.34-.91.68-1.37,1.05s-.67.51-1,.79c-1.05.84-2.11,1.73-3.17,2.68-.46.41-.93.83-1.39,1.28s-.84.8-1.25,1.21-1,1-1.51,1.54l-.51.54-.82.9c-.4.44-.8.91-1.19,1.38-.2.23-.4.47-.59.72-.34.4-.67.82-1,1.23s-.59.77-.88,1.17-.77,1.06-1.14,1.61l-.44.64-.43.68c-.29.45-.57.9-.85,1.36s-.55.92-.81,1.4c-.11.17-.2.34-.3.52-1.14-.65-2.3-1.31-3.48-2l-2.77-1.5-.6-.33h0l-.07,0-.09-.05h0l-1.72-.88-1.75-.88-1.76-.87q-4.44-2.15-9.13-4.1L313.49,342l-2.63,1.12-1.11.48-.3.13-.34.15-.45.21-.55.25c-.35.15-.74.33-1.18.55l-.24.12-.85.4-.71.35-.24.12c-.54.26-1.11.55-1.71.86-.34.16-.69.35-1.05.54-.61.31-1.25.63-1.91,1l-.16.08c-.28.15-.57.3-.86.47l-.34.18c-.36.19-.72.38-1.08.59l-1.11.61-1.15.64-.54.31c-.83.46-1.68.95-2.56,1.46l-.54.32c-.63.36-1.26.74-1.91,1.13l-.32.19-1.06.65c-.61.37-1.23.74-1.86,1.14l-1.68,1.05-.25.16-1.19.76-.67.44c-.75.48-1.51,1-2.28,1.49q-2,1.32-4.08,2.76l-1.36.95c-.24.16-.48.34-.73.52-.71.49-1.41,1-2.12,1.52s-1.43,1-2.15,1.58c-1.44,1.06-2.9,2.17-4.36,3.32l-2.21,1.75-2.26,1.81c-.75.62-1.51,1.25-2.26,1.89s-1.2,1-1.79,1.53q-.58.5-1.17,1c-.53.45-1.06.92-1.59,1.4l-.57.5-1.7,1.55c-.67.62-1.35,1.24-2,1.88l-.9.86c-1.3,1.23-2.59,2.5-3.88,3.79l-2.38-1.91q-2.4-1.89-4.8-3.7c-1.6-1.2-3.2-2.38-4.81-3.52s-3.2-2.27-4.8-3.35l-2.39-1.61h0l-.21-.13a.38.38,0,0,1-.11-.08l-.07,0-1-.69c-1.29-.84-2.57-1.68-3.84-2.48l-.81-.51c-.8-.51-1.6-1-2.39-1.49l-2.78-1.69c-1-.61-2-1.21-3-1.79l-.43-.25-2.55-1.47-.81-.45-.18-.11-.35-.2L204,361l-2.23-1.2-.35-.19-2.19-1.14c-.62-.34-1.24-.65-1.85-1-.17-.1-.35-.18-.52-.27l-.1-.06h0l-2.21-1.11c-1.56-.79-3.09-1.53-4.56-2.24l-2.71-1.29-1.3-.6-.69-.33-.3-.13-.42-.19-.23-.11-1-.46-.52-.23c-.32-.15-.64-.3-1-.43h0l-.66-.29-.64-.29-1.27-.55c-.6-.27-1.19-.52-1.76-.76l-1.23-.52-1-.43-.15-.06-1.88-.77-.3-.12-.6-.25-.66-.26-.86-.34-.24-.09,0,0-.21-.08-.46-.18-.54-.2-.46-.19h-.05l-.18-.07-.21-.08-.47-.17-.43-.16L167,344h0l-.13-.05c-.35-.14-.66-.25-.9-.33l-.13-.05-.12,0-.07,0h0l-.13,0h0l-.12,0-.1,0-3.1-1.06,0,0h0L159,343.38c-7,2.32-13.73,4.87-20.12,7.52-1.6.66-3.17,1.33-4.73,2s-3.08,1.35-4.59,2-3,1.37-4.45,2.06-2.89,1.37-4.3,2h0c-1.54.75-3.05,1.51-4.52,2.26l-2.61,1.34L113,363l-.64.35-2.52,1.32-4,2.19-1.94,1.07A46.6,46.6,0,0,0,102,350.6h0a51,51,0,0,0-4.88-11c-.29-.49-.59-1-.88-1.45s-.53-.81-.79-1.2q-1.44-2.16-3-4.1c-.41-.52-.83-1-1.25-1.52h0c-1-1.25-2.12-2.41-3.19-3.52a67.07,67.07,0,0,0-12.22-10,7.59,7.59,0,0,0-3.3,3.78c8.24,5.24,26.79,20.12,25.35,49.61,0,.08,0,.14,0,.22-13.71,8-25,14.21-25.75,14.73a4.51,4.51,0,0,0-.61,1.12.69.69,0,0,0,0,.13,4.69,4.69,0,0,0-.28,2.08,2.28,2.28,0,0,0,0,.27c0,.11,0,.22,0,.33s0,.19.08.3.06.19.1.29l0,.11a2.29,2.29,0,0,0,.1.23,3.11,3.11,0,0,0,.15.33,5.71,5.71,0,0,0,.73,1.11l.28.32a4,4,0,0,0,.35.36c.15.15.3.3.47.44a9.32,9.32,0,0,0,.75.59c.2.14.4.29.62.43l.57.35c.68-1.6,1.36-3.1,2-4.45v0l0,0,.12-.07.09-.08.11-.07.09-.08.38-.27h0l.21-.16c.23-.17.51-.38.83-.59a2.75,2.75,0,0,1,.33-.23q.9-.64,2.16-1.5c.4-.29.83-.58,1.3-.88l.23-.16c.38-.27.79-.54,1.22-.83l.19-.12c.46-.3.94-.61,1.44-1L88,383.25c.29-.2.59-.38.9-.57.56-.35,4.13-.72,4.73-1.09l.25-.17.52-.32c.86-.54,1.77-1.09,2.71-1.67l.28-.17,1.6-1c.26-.17.54-.33.82-.49s.55-.34.84-.5l.48-.29.49-.29.26-.16h0l1-.59.5-.3.47-.26.6-.36c1.17-.66,2.37-1.35,3.62-2l1.45-.81c.63-.36,1.27-.71,1.92-1.06l.06,0,.18-.1c1.4-.76,2.83-1.53,4.31-2.31l1.23-.64c.11-.06.23-.11.34-.18q3.17-1.64,6.54-3.31l.31-.15q2.39-1.17,4.87-2.34l1.46-.68.76-.35,1.08-.5,2.09-1,1.53-.68,1.55-.68c1-.45,2.09-.91,3.15-1.35.72-.32,1.45-.62,2.2-.92.33-.15.66-.28,1-.41l2-.8.25-.09.21-.09.17-.07.35-.13c2.94-1.17,6-2.31,9-3.42-.21.43-.45.92-.71,1.47-.13.27-.27.57-.42.87-.78,1.66-1.73,3.75-2.75,6.16-.18.43-.37.88-.55,1.34q-.44,1-.87,2.13c-.18.49-.38,1-.58,1.49s-.4,1-.59,1.54-.3.79-.44,1.2c0,.13-.09.26-.14.39l-.3.81c-.58,1.64-1.16,3.34-1.71,5.09-.13.43-.27.88-.41,1.32s-.26.88-.4,1.33-.35,1.2-.52,1.81l-.25.91-.24.91-.27,1.07c-.07.26-.14.52-.2.79-.15.61-.3,1.24-.44,1.86l-.21.94c-.08.41-.17.81-.25,1.22l-.24,1.2,0,.18c-.07.35-.13.69-.19,1l0,.14c-.06.35-.12.71-.17,1.06l-.18,1.13h0c-.06.37-.11.74-.16,1.11s-.07.52-.1.78,0,.44-.08.65-.06.47-.08.72a2.11,2.11,0,0,0,0,.25c-.06.52-.11,1-.15,1.54a3.16,3.16,0,0,1,0,.32l-.06.95c0,.62-.07,1.25-.09,1.87,0,.31,0,.63,0,.93s0,.63,0,.93c0,.56,0,1.12,0,1.66,0,.22,0,.42,0,.63s0,.42,0,.63v.11a.91.91,0,0,0,0,.17c0,.8.11,1.59.2,2.37a1,1,0,0,1,0,.16.28.28,0,0,1,0,.09s0,.09,0,.13c0,.26.06.52.11.78a6.17,6.17,0,0,0,.09.62c0,.35.11.68.17,1,.14.77.31,1.54.49,2.31.09.38.18.77.28,1.15s.27,1,.41,1.5c0,.13.07.26.11.39s.08.28.13.41c.19.63.39,1.25.6,1.88.08.24.16.48.25.72s.19.57.3.85c0,.12.09.26.14.38s.07.2.11.3l.18.47c.29.77.6,1.53.92,2.3l.18.42c.11.24.21.48.31.72l.3.67c.39.88.8,1.75,1.23,2.63l.19.4c.14.28.28.57.43.86l.82,1.6c.11.23.23.45.35.68.55,1,1.12,2.07,1.71,3.11l.48.85c.32.57.65,1.13,1,1.7l.67,1.12.68,1.12.53.88.16.26.35.56.35.55c.35.57.7,1.13,1.06,1.68.11.2.23.38.35.56l.27.42,0,0a.16.16,0,0,1,0,.07s0,0,0,0l.13.21c.08.11.15.23.23.35.48.74,1,1.49,1.45,2.23.24.38.49.74.73,1.12l1.47,2.21,1.43,2.17a.1.1,0,0,1,0,0c.71,1.08,1.43,2.14,2.14,3.2s1.57,2.35,2.34,3.52c.38.57.77,1.16,1.15,1.75.15.21.29.43.43.65s.32.48.48.74.47.71.7,1.08l1.38,2.16a.08.08,0,0,1,0,0l0,0c.09.15.19.29.29.44s.19.31.28.46.38.59.56.89c.06.09.12.18.17.27l.09.16.36.58.15.26.06.08.06.11c.08.12.15.24.21.35l.94,1.58c.44.75.87,1.49,1.28,2.23l.91,1.67c.26.46.49.91.73,1.38l.14.25.12.24.14.28.49,1c.16.32.32.64.47,1s.19.39.28.58.11.22.16.33.14.3.2.44l.21.46.37.85.25.48c1.53-.13,3.08-.29,4.66-.48-.1-.23-.2-.46-.31-.69s-.21-.47-.32-.7c-.22-.47-.44-.94-.67-1.41s-.44-.92-.67-1.38l-.19-.35c-.11-.23-.23-.47-.35-.7s-.08-.16-.13-.24l-.13-.26-.29-.55-.33-.6-.2-.37c-.07-.13-.14-.26-.22-.39-.35-.65-.71-1.29-1.08-1.93l-.56-1c-.41-.71-.83-1.42-1.27-2.14s-.73-1.19-1.1-1.79c-.07-.12-.14-.24-.22-.36l-1-1.62c-.84-1.32-1.7-2.64-2.57-4-.51-.77-1-1.55-1.54-2.32l-1.22-1.85c-.28-.43-.56-.84-.85-1.27l-2.09-3.13-1.47-2.22c-.25-.36-.49-.74-.74-1.1l-1.46-2.23c-.51-.77-1-1.55-1.52-2.33h0l-.36-.55-.29-.46c-.48-.75-1-1.49-1.41-2.24-.3-.47-.6-1-.9-1.45a1,1,0,0,1-.08-.14,5.08,5.08,0,0,1-.27-.43l-.27-.43c-.41-.68-.82-1.37-1.21-2-.31-.52-.61-1-.89-1.54-.14-.24-.28-.48-.41-.72h0l-.79-1.43,0,0c-.21-.4-.43-.79-.64-1.18s-.43-.8-.63-1.19-.42-.8-.62-1.2-.41-.8-.6-1.19l-.48-1c-.18-.37-.36-.74-.53-1.12s-.47-1-.69-1.5l-.09-.19c-.67-1.54-1.3-3.08-1.86-4.62-.15-.39-.29-.8-.43-1.2a1.21,1.21,0,0,1,0-.14c-.12-.35-.23-.7-.34-1.06s-.23-.69-.33-1-.21-.7-.31-1.05-.2-.7-.29-1.05c0,0,0,0,0,0-.07-.24-.14-.47-.2-.71a1.8,1.8,0,0,1,0-.19l0-.11-.12-.51c-.06-.25-.12-.5-.17-.74l-.06-.3-.15-.71-.12-.57a45.82,45.82,0,0,1-.72-8.37c0-.18,0-.36,0-.55s0-.44,0-.66V399c0-.13,0-.27,0-.41v0a1,1,0,0,0,0-.18,1.21,1.21,0,0,0,0-.19c0-.1,0-.2,0-.3,0-.26,0-.53,0-.79,0-.82.1-1.65.18-2.48l0-.23c0-.24,0-.47.07-.7,0,0,0-.06,0-.1.05-.48.11-1,.17-1.44l.09-.71c0-.38.11-.76.16-1.13l.18-1.14c.1-.6.2-1.19.31-1.79l.21-1.11c0-.13.05-.25.08-.38s.09-.48.15-.72.06-.31.1-.48v0c0-.17.08-.33.11-.5.21-1,.44-2,.69-2.94v0a.08.08,0,0,0,0,0l.06-.24c0-.1,0-.21.08-.31h0l.09-.33c.06-.26.13-.53.2-.79a2,2,0,0,0,.09-.33c0-.2.1-.39.16-.58s.09-.35.14-.51c.09-.35.19-.71.3-1.06a2.12,2.12,0,0,1,.09-.31c.17-.6.35-1.22.54-1.82,0-.05,0-.09,0-.13.2-.67.41-1.33.62-2,0,0,0-.08,0-.12.07-.2.13-.4.2-.61l.09-.28c.09-.29.19-.59.29-.87s.11-.33.18-.49.14-.44.22-.65v0l0-.07c.1-.31.21-.6.32-.9h0a.56.56,0,0,1,0-.12h0c0-.07.05-.13.08-.19a.14.14,0,0,1,0-.06c.09-.28.19-.57.3-.85.2-.56.4-1.09.6-1.63l.36-.93c.23-.61.46-1.21.69-1.79.11-.29.23-.58.35-.88l1-2.46c.22-.53.44-1,.66-1.55l.63-1.43c.07-.19.15-.36.23-.53s.05-.11.07-.16h0l.15-.34c0-.11.1-.21.14-.32h0l.28-.63c.09-.2.18-.41.28-.61.28-.58.53-1.13.77-1.64l.4-.83,0-.11h0a2.1,2.1,0,0,1,.13-.26,1,1,0,0,1,.07-.15h0a.36.36,0,0,1,0-.11,2.59,2.59,0,0,1,.14-.29h0v0l0,0a.2.2,0,0,1,0-.08h0l.26-.52h0v0l.24-.47v0h0l.08-.17s0,0,0-.05h0l0-.08.06-.1A.87.87,0,0,1,162,349l.07-.14h0l.06,0h0l.16.05h0l.22.08.12,0h0l.06,0,.09,0,.17.06.08,0,.1,0,.42.15.32.13.14.05.2.07.18.07.09,0h0c1.4.52,3.34,1.27,5.73,2.26l.5.2h0l.31.13.67.27a2.78,2.78,0,0,0,.44.19l.6.26h0l1.08.46,1.12.48.42.18,2,.86,2.54,1.15,2.67,1.22,2.82,1.34,1.45.7h0l.14.06,1.35.66h0l.28.13c.24.11.48.23.73.37l.5.24h0l.43.21,1.11.56h0l.13.06c.42.2.84.41,1.27.65l.17.08h0l.74.37.85.44h0l.32.16.33.17,1,.51h0c1,.5,1.91,1,2.88,1.54l.42.22h0l1.42.77.26.14h0l1.34.74.76.43.1.06,1.21.68h0l.06,0,1.68,1h0l.22.12,1.91,1.11c.46.27.92.54,1.38.83h0c.19.1.37.21.55.32l1.1.66.78.48,0,0a1,1,0,0,1,.13.09l0,0a.27.27,0,0,1,.1.06l.81.49h0c.3.17.6.36.9.55l.9.56h0l.27.16.27.17.53.33,2,1.28.57.37h0l1.29.84.53.34h0l1.41.93.42.29,1,.67.54.38.07.05.06,0,.76.53.31.21h0l.09.06,0,0,.79.54h0l.12.08,1.71,1.2h0c.1.07.19.15.29.21.52.36,1,.74,1.55,1.11h0l.23.16,1.09.8,1.57,1.17c.26.18.51.37.77.57h0c.14.12.29.22.43.33a4,4,0,0,1,.35.26l.26.2,1.42,1.1.24.18,0,0,.07.06,2,1.56c.19.14.38.29.57.46l.11.08h0l.42.33c.3.23.59.48.88.72l1,.84.95.79.33.27h0q1.8,1.51,3.57,3.07h0l1.43-1.54.24-.26,0,0,.44-.48q1.06-1.14,2.16-2.25l1.45-1.47,1.46-1.45c.44-.45.89-.88,1.34-1.31l.12-.11h0l1.1-1a1.54,1.54,0,0,0,.19-.17l.18-.17.47-.45c.33-.32.66-.62,1-.92q1.47-1.37,2.94-2.67c.49-.43,1-.87,1.47-1.29,1-.86,2-1.69,2.93-2.51.45-.39.9-.75,1.35-1.13l.06-.05.06,0h0c.12-.1.24-.2.37-.29l.18-.16.18-.15.73-.58h0l1.45-1.17c1.7-1.36,3.38-2.65,5-3.9.23-.18.47-.35.71-.52l1.41-1.06c.93-.69,1.87-1.36,2.79-2,.46-.34.92-.66,1.38-1,.91-.63,1.82-1.26,2.71-1.86l.66-.45.67-.45,1-.66.33-.21h0c.43-.28.86-.57,1.29-.84h0c.43-.29.85-.56,1.27-.82h0l.45-.29c.69-.44,1.37-.87,2-1.28a185.08,185.08,0,0,1,22.34-12.13c24.37,10.1,47,25.54,57.79,35.09h0a82.92,82.92,0,0,1,4.44,8.28l.52-.3c.33-.22.63-.43.9-.65a7.22,7.22,0,0,0,1.32-1.41A6.48,6.48,0,0,0,379.36,384.61Z" />
      <path class="BUNTAI_BEAR_OUTFIT_BEAR_OUTFIT_26_cls-5" d="M323.39,289.93a130.75,130.75,0,0,1-25.17,11.54c-26.63,9.15-42.46,12.19-42.46,12.19L251,335.18a14.6,14.6,0,0,0-6.3-1.44h-.17L250,309a277.9,277.9,0,0,0,44.22-11.32,116.92,116.92,0,0,0,26.21-12.48C320.68,285.29,324.93,286.6,323.39,289.93Z" />
      <path class="BUNTAI_BEAR_OUTFIT_BEAR_OUTFIT_26_cls-5" d="M244.27,333.76a14.5,14.5,0,0,0-6.4,1.69L233,313.66a413.23,413.23,0,0,1-69.86-13.12c-24.09-6.81-38.15-12.46-46.47-17-2.22-3.46,2.13-4.93,2.39-5h0c7.38,4.09,21.5,10.11,46.38,17.15a409.41,409.41,0,0,0,68.26,12.83l5,.41Z" />
      <path class="BUNTAI_BEAR_OUTFIT_BEAR_OUTFIT_26_cls-6" d="M77.51,390.42v0c-.68,1.35-1.36,2.85-2,4.45-.25.59-.5,1.2-.75,1.82s-.49,1.25-.73,1.9c-.57,1.55-1.12,3.17-1.62,4.85,0,.16-.1.32-.14.48-.19.64-.36,1.28-.52,1.93s-.35,1.34-.49,2c-.21.87-.4,1.78-.55,2.68-.08.32-.13.64-.19,1h0" />
      <path class="BUNTAI_BEAR_OUTFIT_BEAR_OUTFIT_26_cls-6" d="M70.48,411.54a53.89,53.89,0,0,0,.16,19.64,48.7,48.7,0,0,0,11.19,22.36c4.34,5,13.06,9.89,20.48,14.37,2.07,1.28,4.27,2.5,6.62,3.71,0,0,24,13.15,72.48,8.56,1.54-.13,3.08-.29,4.66-.47l6.21-.69,5.63-.58q8.35-.84,15.82-1.41c2.82-.22,5.54-.4,8.17-.58,13.26-.85,24.4-1.1,34-1h1.2c1.34,0,2.65,0,3.93,0,37.14.63,51,5.58,82.46-3.84,23.16-11.87,35.72-26.81,38.39-41.14a54,54,0,0,0,0-18.93,75.6,75.6,0,0,0-6.15-19.29,82.92,82.92,0,0,0-4.44-8.28" />
      <path class="BUNTAI_BEAR_OUTFIT_BEAR_OUTFIT_26_cls-6" d="M75.46,394.89l-.57-.35-.62-.43a7.58,7.58,0,0,1-.75-.6,4.79,4.79,0,0,1-.47-.43,2,2,0,0,1-.35-.37,2.61,2.61,0,0,1-.28-.31,5.71,5.71,0,0,1-.73-1.11q-.09-.18-.15-.33a2.29,2.29,0,0,1-.1-.23,2.8,2.8,0,0,1-.13-.41c0-.1-.06-.19-.08-.29a4.82,4.82,0,0,1,0-1.64,4.94,4.94,0,0,1,.26-1,1.21,1.21,0,0,1,0-.14,4.56,4.56,0,0,1,.61-1.11c.7-.53,12-6.7,25.75-14.73l1.58-.93,0,0q2.11-1.23,4.4-2.51l1.94-1.07,4-2.19c2.07-1.1,4.22-2.22,6.43-3.34q2.22-1.12,4.53-2.25c1.41-.69,2.84-1.37,4.3-2.06s3-1.37,4.45-2.06,3-1.36,4.59-2l4.73-2c6.39-2.65,13.11-5.21,20.12-7.52l3.14-1.05h0l0,0,3.1,1.06a294.91,294.91,0,0,1,59.62,30.15l1.3.87.13.09h0l2.39,1.61c1.6,1.09,3.2,2.2,4.8,3.35s3.21,2.32,4.81,3.52,3.2,2.43,4.8,3.7c.79.63,1.59,1.26,2.38,1.91,4.51-4.53,9.08-8.71,13.62-12.53q2.26-1.92,4.52-3.71c.74-.59,1.47-1.18,2.21-1.74,1.46-1.15,2.92-2.26,4.36-3.32q3.24-2.42,6.36-4.57c1.38-1,2.74-1.89,4.08-2.77a201.39,201.39,0,0,1,29.09-16.33l1.11-.48,2.63-1.13,3.76,1.57c3.13,1.29,6.17,2.67,9.13,4.1,1.77.86,3.52,1.74,5.23,2.63h0l.07,0c1.18.62,2.35,1.26,3.49,1.89s2.34,1.3,3.48,2q2.77,1.62,5.41,3.25h0c12.4,7.72,25.67,15.91,33.16,22.58h0l0,0c.05.06.17.23.34.49,0,0,0,0,0,0a13.66,13.66,0,0,1,1,1.88,8.84,8.84,0,0,1,.41,1,8.45,8.45,0,0,1,.32,1.12,6.48,6.48,0,0,1-.82,5.29,7.51,7.51,0,0,1-1.32,1.41,9.47,9.47,0,0,1-.9.64l-.52.31h0" />
      <path class="BUNTAI_BEAR_OUTFIT_BEAR_OUTFIT_26_cls-6" d="M77.51,390.41s34.89-23.78,78.6-39.46q3-1.06,6-2.07s46.25,15.95,84.07,49.2A217.15,217.15,0,0,1,291.23,361a184.59,184.59,0,0,1,22.33-12.13c24.37,10.11,47,25.54,57.8,35.1" />
      <path class="BUNTAI_BEAR_OUTFIT_BEAR_OUTFIT_26_cls-6" d="M162.09,348.88s-18.84,35.23-14.24,59.89,28.57,48.74,38.22,70.94" />
      <path class="BUNTAI_BEAR_OUTFIT_BEAR_OUTFIT_26_cls-6" d="M181.42,480.18l-.25-.47c-9.66-22.2-33.63-46.27-38.23-70.94-3.93-21.11,9.29-50,13.17-57.82" />
      <path class="BUNTAI_BEAR_OUTFIT_BEAR_OUTFIT_26_cls-6" d="M97.85,371.37c0-.08,0-.15,0-.23,1.44-29.49-17.11-44.36-25.35-49.61" />
      <path class="BUNTAI_BEAR_OUTFIT_BEAR_OUTFIT_26_cls-6" d="M75.81,317.75a67.65,67.65,0,0,1,12.22,10c1.07,1.1,2.14,2.27,3.19,3.51h0c.42.5.84,1,1.25,1.52q1.56,1.95,3,4.11c.26.39.52.8.79,1.2s.59,1,.88,1.45a51,51,0,0,1,4.88,11h0a46.58,46.58,0,0,1,1.84,17.31" />
      <path class="BUNTAI_BEAR_OUTFIT_BEAR_OUTFIT_26_cls-6" d="M338.66,354.22c.1-.18.19-.35.3-.52.26-.48.53-.95.81-1.4.41-.69.84-1.37,1.28-2l.44-.65c.37-.54.75-1.08,1.14-1.61s.57-.78.88-1.16.64-.83,1-1.24l.59-.72c.39-.46.79-.93,1.19-1.37s.55-.61.82-.9l.51-.54c.5-.53,1-1,1.51-1.54s.83-.83,1.25-1.21.93-.88,1.39-1.28c1.06-1,2.12-1.84,3.17-2.68.34-.28.68-.54,1-.79s.91-.71,1.37-1.05l1.38-1c.65-.46,1.28-.89,1.9-1.31l.92-.6a4.4,4.4,0,0,1,.39-.26l1-.64,1-.6,1.07-.64.8-.46c.33-.2.66-.38,1-.54h0" />
      <path class="BUNTAI_BEAR_OUTFIT_BEAR_OUTFIT_26_cls-6" d="M344.07,357.47c.34-.67.68-1.33,1-2s.71-1.28,1.09-1.91.75-1.21,1.14-1.81.78-1.17,1.18-1.73.81-1.12,1.22-1.66.83-1.07,1.25-1.59.85-1,1.28-1.51.67-.75,1-1.12l.94-1,.84-.85.85-.83c.28-.27.56-.54.85-.8l.84-.77.85-.74c.26-.23.51-.44.77-.65a2.09,2.09,0,0,1,.28-.24c.4-.33.8-.66,1.19-1a68.78,68.78,0,0,1,6.83-4.72l1.1-.65c.8-.45,1.55.09,2.25-.28" />
      <path class="BUNTAI_BEAR_OUTFIT_BEAR_OUTFIT_26_cls-6" d="M237.87,335.45,233,313.66a413.23,413.23,0,0,1-69.86-13.12c-24.09-6.81-38.15-12.46-46.47-17" />
      <path class="BUNTAI_BEAR_OUTFIT_BEAR_OUTFIT_26_cls-6" d="M119.1,278.57h0c7.38,4.09,21.5,10.11,46.38,17.15a409.41,409.41,0,0,0,68.26,12.83l5,.41,5.49,24.8" />
      <path class="BUNTAI_BEAR_OUTFIT_BEAR_OUTFIT_26_cls-6" d="M244.52,333.74,250,309a277.9,277.9,0,0,0,44.22-11.32,116.92,116.92,0,0,0,26.21-12.48" />
      <path class="BUNTAI_BEAR_OUTFIT_BEAR_OUTFIT_26_cls-6" d="M251,335.18l4.77-21.52s15.83-3,42.46-12.19a130.75,130.75,0,0,0,25.17-11.54" />
      <path class="BUNTAI_BEAR_OUTFIT_BEAR_OUTFIT_26_cls-6" d="M263.65,372.37a40.05,40.05,0,0,0,1.16-9.71c0-12.82-5.79-23.68-13.82-27.48a14.6,14.6,0,0,0-6.3-1.44h-.41a14.77,14.77,0,0,0-6.41,1.69c-7.77,4-13.31,14.68-13.31,27.22a40,40,0,0,0,1.76,11.86" />
      <polyline class="BUNTAI_BEAR_OUTFIT_BEAR_OUTFIT_26_cls-6" points="102.03 350.59 115.18 342.84 122.98 338.26 122.05 347.14 120.8 359.06" />
      <polygon class="BUNTAI_BEAR_OUTFIT_BEAR_OUTFIT_26_cls-6" points="122.05 347.14 115.18 351.64 115.18 342.84 115.18 335.18 131.41 325.77 131.41 341.02 122.05 347.14" />
      <polyline class="BUNTAI_BEAR_OUTFIT_BEAR_OUTFIT_26_cls-6" points="346.27 343.51 336.01 337.58 329.92 334.05 330.61 340.7 331.62 350.34" />
      <polygon class="BUNTAI_BEAR_OUTFIT_BEAR_OUTFIT_26_cls-6" points="330.61 340.7 336.24 344.19 336.01 337.58 335.8 331.56 323.11 324.59 323.51 336.29 330.61 340.7" />
      <path class="BUNTAI_BEAR_OUTFIT_BEAR_OUTFIT_26_cls-6" d="M230.56,399.16s12.28,2.76,16.75,9c5.24-7.19,8.31-7.49,14.95-9.45" />
      <path class="BUNTAI_BEAR_OUTFIT_BEAR_OUTFIT_26_cls-6" d="M72.51,321.54a7.59,7.59,0,0,1,3.3-3.78l.86-.76c5.55-4.75,15.64-13.26,25-20.45,6.35-4.88,12-9.45,14.72-12.59l.32-.37c-2.22-3.46,2.13-4.93,2.39-5h0" />
      <path class="BUNTAI_BEAR_OUTFIT_BEAR_OUTFIT_26_cls-6" d="M370.87,331.67c-1-3.5-3.65-3.75-3.65-3.75l-.49-.45h0c-2.09-1.93-10.37-9.59-15.68-14-6.12-5.12-21.75-17.06-27.66-23.47h0c1.54-3.33-2.71-4.64-2.95-4.77h0" />
      <path class="BUNTAI_BEAR_OUTFIT_BEAR_OUTFIT_26_cls-7" d="M136.63,396.11a5.79,5.79,0,0,0-4.7-5.32,5.53,5.53,0,0,0-5.45,2.3,7.07,7.07,0,0,0-.2,7.5,11.28,11.28,0,0,0,2.64,3.24,3,3,0,0,0,.38.33c.16.14.35.29.53.43a1.84,1.84,0,0,0,1.2.34,1.51,1.51,0,0,0,.53-.1l.68-.27a6.65,6.65,0,0,0,1.11-.63,5.6,5.6,0,0,0,.49-.36A8.29,8.29,0,0,0,136.63,396.11Zm-7.41-1.87a2.5,2.5,0,0,1,1.71-1.12,1.67,1.67,0,0,1,.31,0c1.16.2,2,1.47,2.29,3.21a6.14,6.14,0,0,1-2.34,5.84C127.8,399.14,128.1,395.83,129.22,394.24Z" />
      <path class="BUNTAI_BEAR_OUTFIT_BEAR_OUTFIT_26_cls-7" d="M138,410.65a9.07,9.07,0,0,0-3.68-6.77,4.76,4.76,0,0,0-.47-.31,7.87,7.87,0,0,0-2.49-1,1.72,1.72,0,0,0-.39,0,1.8,1.8,0,0,0-1.28.46c-.27.28-.53.56-.76.83l-.3.37a10.36,10.36,0,0,0-1.13,1.75,9.4,9.4,0,0,0-.76,2.06,7.22,7.22,0,0,0,1.77,6.74,6,6,0,0,0,4.61,1.88,5,5,0,0,0,1.2-.21,4.94,4.94,0,0,0,2.23-1.33A5.75,5.75,0,0,0,138,410.65Zm-4.8,3.53a2.39,2.39,0,0,1-2.2-.87,5.32,5.32,0,0,1-1.2-4.77h0a7.5,7.5,0,0,1,1.47-3,1.86,1.86,0,0,1,.21-.28l.08,0a6.72,6.72,0,0,1,3.31,5.49,4.71,4.71,0,0,1-.45,2.42A2.15,2.15,0,0,1,133.19,414.18Z" />
      <path class="BUNTAI_BEAR_OUTFIT_BEAR_OUTFIT_26_cls-7" d="M131.82,403l-.86-.47a30.56,30.56,0,0,0-4.68-2,26.4,26.4,0,0,0-3.68-.92h0c-5.32-1-10.24-.34-13.38,1.27-2.56,1.29-3.74,3.18-3.15,5s2.88,3.35,6.34,3.85a25.14,25.14,0,0,0,4.75.16,33.47,33.47,0,0,0,9.58-2c.65-.25,1.27-.53,1.85-.81a13.83,13.83,0,0,0,2.68-1.69,3.47,3.47,0,0,0,.29-.25,6,6,0,0,0,.62-.61s.06-.06.07-.09a.87.87,0,0,0,.21-.58A1.11,1.11,0,0,0,131.82,403ZM113,407.45c-1.55-.22-3.47-.77-3.88-2.06s1.16-2.1,1.83-2.46a14.55,14.55,0,0,1,5.62-1.31,23.44,23.44,0,0,1,8.3,1.09,26.13,26.13,0,0,1,3.71,1.49,11.48,11.48,0,0,1-1.71,1A27,27,0,0,1,113,407.45Z" />
      <line class="BUNTAI_BEAR_OUTFIT_BEAR_OUTFIT_26_cls-8" x1="125.68" y1="404.36" x2="142.33" y2="403.44" />
      <path class="BUNTAI_BEAR_OUTFIT_BEAR_OUTFIT_26_cls-7" d="M161,391.18a5.84,5.84,0,0,0-5.81-1.67c-2.47.72-3.84,2.88-3.68,5.78a9,9,0,0,0,4.14,7.07,5.21,5.21,0,0,0,.56.31h0a8.42,8.42,0,0,0,1.19.47,4.68,4.68,0,0,0,.73.21,2,2,0,0,0,.54,0,1.72,1.72,0,0,0,1.14-.47l.46-.48.31-.36a10.26,10.26,0,0,0,2-3.51A7.27,7.27,0,0,0,161,391.18Zm-6.37,4c-.1-1.75.56-3.1,1.67-3.43l.31-.05a2.67,2.67,0,0,1,1.89.93c1.41,1.44,2.31,4.69-.47,8.07A6.62,6.62,0,0,1,154.67,395.18Z" />
      <path class="BUNTAI_BEAR_OUTFIT_BEAR_OUTFIT_26_cls-7" d="M163.56,406a11,11,0,0,0-2.58-3.55h0l-.34-.32c-.29-.25-.6-.49-.92-.75a1.9,1.9,0,0,0-1.33-.32,2,2,0,0,0-.41.09,7.7,7.7,0,0,0-2.28,1.25c-.13.12-.28.24-.4.36h0a8.4,8.4,0,0,0-2.38,7.1,5.76,5.76,0,0,0,4.71,5.3,4.33,4.33,0,0,0,1.24.09,5.59,5.59,0,0,0,4.2-2.37A7,7,0,0,0,163.56,406Zm-3.24,5.72a2.22,2.22,0,0,1-2,1.11c-1.16-.21-2.06-1.47-2.28-3.21a6.12,6.12,0,0,1,2.26-5.8l.07-.05a3.89,3.89,0,0,1,.36.34h0C161.72,407,161.41,410.16,160.32,411.69Z" />
      <path class="BUNTAI_BEAR_OUTFIT_BEAR_OUTFIT_26_cls-7" d="M179.59,397.05c-4.19-1.53-10.78-1.31-17,1.53a27.07,27.07,0,0,0-4.25,2.44l-.78.56a1,1,0,0,0-.45,1h0a.9.9,0,0,0,.3.52,1,1,0,0,0,.1.11,5.69,5.69,0,0,0,.73.53c.13.1.28.18.43.29h0a18.23,18.23,0,0,0,4.84,1.88,33.93,33.93,0,0,0,9.85.89,24.28,24.28,0,0,0,4.66-.67c3.34-.88,5.32-2.48,5.57-4.51S182.36,398.06,179.59,397.05Zm-2.52,6.85c-4.86,1.28-12.27.5-16-1.48h0a22.94,22.94,0,0,1,11.41-3.86,15.3,15.3,0,0,1,5.81.67c.73.27,2.42,1,2.27,2.23S178.55,403.52,177.07,403.9Z" />
      <line class="BUNTAI_BEAR_OUTFIT_BEAR_OUTFIT_26_cls-8" x1="163.92" y1="402.25" x2="147.27" y2="403.17" />
      <path class="BUNTAI_BEAR_OUTFIT_BEAR_OUTFIT_26_cls-7" d="M175.87,434.46a8.71,8.71,0,0,0-4.79-6.51,6.26,6.26,0,0,0-6.21-.05c-2,1.33-2.31,3.73-.87,6.39a11.56,11.56,0,0,0,7.08,5.56c.21,0,.43.11.65.14a6.9,6.9,0,0,0,1.3.13,4.37,4.37,0,0,0,.81,0,2,2,0,0,0,.54-.11,1.42,1.42,0,0,0,.84-.74c.07-.21.15-.39.22-.58s.09-.27.12-.42A8.77,8.77,0,0,0,175.87,434.46Zm-9-1.08c-.87-1.63-.86-3.06,0-3.66a1.26,1.26,0,0,1,.26-.13,3.16,3.16,0,0,1,2.19.36,6.54,6.54,0,0,1,3.18,7.72A8.63,8.63,0,0,1,166.88,433.38Z" />
      <path class="BUNTAI_BEAR_OUTFIT_BEAR_OUTFIT_26_cls-7" d="M197,431.78c-.63-1.82-2.82-3-5.87-3.27-4.63-.32-10.7,1.64-15.25,5.95a21,21,0,0,0-2.9,3.42c-.16.23-.32.49-.47.73a.93.93,0,0,0,.05,1.09,1.33,1.33,0,0,0,.48.42l.17.07a7.21,7.21,0,0,0,.93.3,2.77,2.77,0,0,0,.41.12h0a19.51,19.51,0,0,0,5.48.51,33,33,0,0,0,9.67-1.75,21.34,21.34,0,0,0,4.06-1.89C196.52,435.78,197.66,433.77,197,431.78Zm-5.18,3.84c-4,2.48-11.29,3.73-15.71,2.85h0a18.67,18.67,0,0,1,9-6.67,15.06,15.06,0,0,1,5.75-.89c.81,0,2.73.32,3.13,1.49S193,434.86,191.81,435.62Z" />
      <g class="BUNTAI_BEAR_OUTFIT_BEAR_OUTFIT_26_cls-9">
        <path d="M290,475.83l-29-.37-3.94,0-1.18,0h0c-9.64-.06-20.78.19-34,1l-8.17.58q-7.46.57-15.83,1.41l-5.62.58-6.21.68c-1.58.19-3.13.35-4.66.48-48.44,4.6-72.49-8.57-72.49-8.57-2.35-1.2-4.55-2.42-6.61-3.69-7.42-4.49-16.14-9.33-20.48-14.38a48.7,48.7,0,0,1-11.19-22.36,53.89,53.89,0,0,1-.16-19.64h0c.06-.32.11-.64.19-1,.15-.9.34-1.81.55-2.68.15-.67.31-1.35.49-2s.34-1.29.52-1.93c0-.16.09-.32.14-.48.5-1.68,1-3.3,1.62-4.85.24-.65.49-1.28.73-1.9s.5-1.23.75-1.82l-.57-.35c1.51-2.42,2.47-3.9,2.61-4.1v0a.12.12,0,0,1,0,0l.12-.07.09-.07.11-.07c2.28-1.51,18.12-10,33.68-19.07l.18-.1c.51,10.45,5,20.29,10.86,28.67h0c.73,1,1.48,2.06,2.25,3,.42.55.85,1.09,1.28,1.62h0l.72.85c.21.25.42.52.64.76.36.41.72.84,1.09,1.25l1.21,1.33h0c1.52,1.63,3.07,3.19,4.62,4.63.71.66,1.42,1.31,2.13,1.92a71.35,71.35,0,0,0,11.11,8.16c.58.33,1.13.62,1.67.9,3.35,5,5.34,5.35,5.34,5.35a20.07,20.07,0,0,0,2,1.86l0,0a78.27,78.27,0,0,0,13.9,9,.68.68,0,0,0,.21.1c.87.47,1.79.95,2.77,1.43q2.53,1.29,5.51,2.65c1.17.53,2.4,1.09,3.68,1.63a292.48,292.48,0,0,0,35.18,12.26C268.89,473,290,475.83,290,475.83Z" />
        <path d="M226.32,374.52h0l-.13-.07-.08-.06a.38.38,0,0,1-.11-.08l-.07,0c-16.07-9.82-62.31-31.24-63.76-31.91l0,0h0l-62.66,28.1,0,0-1.57.7c1.44-29.49-17.11-44.37-25.35-49.61a7.59,7.59,0,0,1,3.3-3.78l.86-.76c5.55-4.75,15.64-13.26,25-20.45,11.79,6.42,29.37,15.86,46,24.25h0c2.82,1.43,5.62,2.83,8.34,4.16,0,0,0,0,0,0,4.22,2.08,8.29,4,12.09,5.8a453.76,453.76,0,0,0,57.67,22.1h0a.06.06,0,0,1,0,0s0,0,0,.06,0,.09,0,.15a57,57,0,0,0-.82,8.17c0,1.06,0,2.2,0,3.37a40.19,40.19,0,0,0,1.15,8.72l0,.1q0,.13.06.24c0,.12.06.24.1.36s.07.29.12.43Z" />
        <path d="M290,405.23l-78.46,10.33-38.12,3.6s40.87,4,58.29,1.33,44.65-8.94,44.65-8.94l29.6-6.32Z" />
        <path d="M280.07,416.05s-24,4.11-28.09,5.36-37.38,5.69-37.38,5.69,22.69-.05,26.14,0,31-8.05,40-9.71S299,414.2,298,414.3Z" />
        <path d="M367.22,327.92h0c-2.33,1.32-5.52,3.27-9.75,6.14-11.48,7.79-17.59,20.08-17.59,20.08l-1-.43-7.15-3.28h0l-.07,0-.09,0h0c.1-.24,1.41-3.49,3.1-7.09.45-.92.91-1.87,1.39-2.8.38-.74.76-1.47,1.15-2.15.47-.84.94-1.63,1.4-2.31,2.25-3.35,14.45-10.55,21.5-14.54,3,2.68,5.53,5.06,6.57,6h0Z" />
      </g>
    </g>
  </g>
</svg>