<svg xmlns="http://www.w3.org/2000/svg" xmlns:xlink="http://www.w3.org/1999/xlink" viewBox="0 0 432 432">
  <defs>
    <style>.BUNTAI_TURTLE_BODY_TURTLE_BODY_45_cls-1,.BUNTAI_TURTLE_BODY_TURTLE_BODY_45_cls-10,.BUNTAI_TURTLE_BODY_TURTLE_BODY_45_cls-9{fill:none;stroke:#000;stroke-linecap:round;stroke-linejoin:round;}.BUNTAI_TURTLE_BODY_TURTLE_BODY_45_cls-1{stroke-width:2px;}.BUNTAI_TURTLE_BODY_TURTLE_BODY_45_cls-2{isolation:isolate;}.BUNTAI_TURTLE_BODY_TURTLE_BODY_45_cls-3{fill:#3b234d;}.BUNTAI_TURTLE_BODY_TURTLE_BODY_45_cls-4{fill:#635377;}.BUNTAI_TURTLE_BODY_TURTLE_BODY_45_cls-5{fill:#1c0031;}.BUNTAI_TURTLE_BODY_TURTLE_BODY_45_cls-6{fill:#fff;}.BUNTAI_TURTLE_BODY_TURTLE_BODY_45_cls-7{clip-path:url(#BUNTAI_TURTLE_BODY_TURTLE_BODY_45_clip-path);}.BUNTAI_TURTLE_BODY_TURTLE_BODY_45_cls-8{opacity:0.22;mix-blend-mode:multiply;}.BUNTAI_TURTLE_BODY_TURTLE_BODY_45_cls-9{stroke-width:0.5px;}.BUNTAI_TURTLE_BODY_TURTLE_BODY_45_cls-10{stroke-width:0.4px;}</style>
    <clipPath id="clip-path">
      <path class="BUNTAI_TURTLE_BODY_TURTLE_BODY_45_cls-1" d="M280,141.13a5.28,5.28,0,0,1-4.49,2.25c-3-.08-5.68,2.16-7.86,5s-6.21,2.33-6.21,2.33a17.09,17.09,0,0,0,4.89,3.18c2.45.87,7-1,9.23-3.41A20.15,20.15,0,0,0,280,141.13Z" />
    </clipPath>
  </defs>
  <g class="BUNTAI_TURTLE_BODY_TURTLE_BODY_45_cls-2">
    <g id="body">
      <path class="BUNTAI_TURTLE_BODY_TURTLE_BODY_45_cls-3" d="M152.78,188.41a45.79,45.79,0,0,0-8,4.73c-.75.53-1.53,1.12-2.34,1.76-7.52,5.94-31.43,22.48-33.64,27.61-2,4.51-9.65,26.81-14.09,40.61-.62,1.91-1.17,3.66-1.64,5.18-3.85,12.46-3.67,14.06-7,19.66-1.29,2.15-3.47,5.18-5.77,8.34-3.69,5.1-7.67,10.53-8.64,13.15-1.58,4.24-4.9,8.91-5.77,11.49-.2.6-.58,1.85-1,3.48-1.55,5.42-4.05,14.89-4.11,17.41-.09,3.27-1.67,6-3.06,9.17a79.94,79.94,0,0,0-2.89,8.69,13.93,13.93,0,0,0-2,4.24c-1.35,5.59-.83,5.2-1.39,10.14a13.19,13.19,0,0,0,.24,4.49l1.65,4.79A100.89,100.89,0,0,1,73.37,354,107.93,107.93,0,0,1,88.26,341.9c3.38-2.32,6.86-4.5,10.39-6.62q3.76-2.26,7.6-4.43l-.16-1.77c0-.89.11-1.87.16-2.88.21-3.78.42-8.07.42-10.37a54.59,54.59,0,0,1,4.65-20.53,33.57,33.57,0,0,1,5.92-9c8.92-9.44,11.27-11.45,11.19-19.49s.17-21.49,3.75-25.78c1.85-2.21,8.81-6.35,15.12-9.86,3.37-1.87,6.56-3.56,8.69-4.67-.87-8.43-1.68-16.72-2.29-24.09C153.24,196.88,153,192.26,152.78,188.41Z" />
      <path class="BUNTAI_TURTLE_BODY_TURTLE_BODY_45_cls-3" d="M376,356.38c-.4-5.46-5-19.79-10.68-34-4.18-10.33-9-20.57-13.26-27.21-9.28-14.38-29.52-30.82-36-40.74a16.84,16.84,0,0,1-1.43-2.6c-3.93-9.22-22.67-30.72-23.49-31.66l0,0c-5.55-9.53-13.68-15.84-19.37-19.39-1.82-1.14-3.39-2-4.54-2.57-2.08,4.45-4,9-5.05,11.53-1.48,3.44-5.48,7-10,9.54h0c0,.15-.9,3.45-2.06,8.33-.45,1.91-.95,4.05-1.46,6.34,7.7.81,19.2,7,21.63,13.18,1.42,3.63,3.46,8.89,5.44,14s3.91,10.29,5.05,13.5c2.27,6.41,7.92,6.35,15,9.79.52.25,1,.52,1.52.8,6.24,3.48,10.73,8.89,16.13,16.5,1.58,2.22,2.95,4.38,4.1,6.34a81,81,0,0,1,4.72,9.16s.15.29-.43,2.91-.52,19-.52,19.48l-.3,4.24h0c1.31.94,2.59,1.91,3.86,2.92A95.08,95.08,0,0,1,333,354a94.09,94.09,0,0,1,13.94,17.73A132,132,0,0,1,360.27,402c4.07,13.2,6.51,26.83,8.51,40.52,5.07-6.19,4.64-34,4.64-34s.1-12.46.45-14.21c.17-.86.86-7.8,1.42-15.74C375.87,370.4,376.32,361.17,376,356.38Z" />
      <path class="BUNTAI_TURTLE_BODY_TURTLE_BODY_45_cls-4" d="M370.75,456.62c-.64-4.71-1.28-9.44-2-14.15a302.29,302.29,0,0,0-6.32-32.8q-1-3.89-2.19-7.72c-.57-1.86-1.18-3.72-1.82-5.56l0-.07a132.14,132.14,0,0,0-8.28-19c-.21-.39-.41-.78-.63-1.16-.09-.17-.18-.35-.28-.52a0,0,0,0,1,0,0,1.13,1.13,0,0,0-.12-.21c-.69-1.25-1.42-2.48-2.17-3.7a96.3,96.3,0,0,0-7.59-10.7,84.27,84.27,0,0,0-6.35-7,95.08,95.08,0,0,0-8.15-7.16c-1.27-1-2.55-2-3.86-2.92l-.81-.58-4.28-2.94c-3-2-6.15-3.93-9.3-5.79-8.57-5.09-17.43-9.81-25.85-15.08-.87-.54-1.74-1.09-2.59-1.64l-2.52-1.65c-.81-.53-1.61-1.07-2.39-1.61-4.06-2.78-7.81-5.58-11.15-8.38l-.15-.13c-1-.81-1.89-1.62-2.78-2.42l-.1-.09c-.8-.73-1.57-1.45-2.31-2.18-.31-.3-.62-.6-.91-.9-.62-.62-1.21-1.25-1.77-1.87-.22-.23-.44-.47-.63-.7s-.53-.59-.78-.89c-.75-.88-1.45-1.77-2.1-2.65-.21-.28-.41-.56-.59-.84s-.3-.42-.43-.63c-.35-.52-.68-1-1-1.56-.11-.18-.22-.37-.32-.56a3.9,3.9,0,0,1-.19-.35,6.63,6.63,0,0,1-.31-.59c-.25-.49-.49-1-.7-1.48h0c-.14-.33-.27-.66-.39-1s-.31-.87-.44-1.3l-.3-1.36,0-.13-.42-1.9s0,0,0-.05c-.1-.48-.19-1-.28-1.46l-.24-1.33c-.19-1.08-.36-2.2-.51-3.35-.08-.58-.15-1.17-.21-1.76,0-.35-.08-.71-.11-1.07s-.07-.72-.1-1.08-.06-.72-.09-1.09v-.11c0-.7-.09-1.4-.12-2.11s-.06-1.49-.07-2.25c0-.56,0-1.13,0-1.7,0-.83,0-1.73.11-2.67,0-.13,0-.27,0-.4s0-.06,0-.08c.06-.85.14-1.73.24-2.65,0-.37.08-.75.13-1.13.26-2.2.6-4.57,1-7,.16-1,.33-1.93.5-2.91a.09.09,0,0,0,0,0c.18-1,.37-2,.56-3,.13-.69.26-1.38.4-2.06.08-.43.17-.86.26-1.29.17-.87.35-1.73.53-2.59a.09.09,0,0,1,0-.05c.4-1.91.8-3.77,1.2-5.54.51-2.29,1-4.43,1.46-6.34.07-.31.14-.6.21-.9l.21-.85c.1-.43.21-.85.3-1.24.15-.63.3-1.22.43-1.75.27-1.09.49-2,.65-2.57.06-.25.12-.45.16-.61s0-.17,0-.23l0,0c0-.08,0-.12,0-.14h0l.28-.17h0a31,31,0,0,0,6.08-4.53,15.75,15.75,0,0,0,3.57-4.83c.1-.23.2-.47.3-.73.59-1.36,1.33-3.12,2.17-5.06a0,0,0,0,0,0,0c.79-1.81,1.66-3.77,2.57-5.71a67.28,67.28,0,0,1,5.68-10.31l.1-.14h.22c1.36,0,2.7-1.22,4-3.09l.47-.75c2.45-4,4.56-10.37,5.88-14.56l.06-.18c.28-.88.56-1.68.84-2.44.09-.25.19-.49.28-.73h0c.92-2.38,1.82-4.3,2.42-6.4a19.21,19.21,0,0,0,.69-6.66c-.4-6.86-8.26-14-8.26-14a.42.42,0,0,1,0-.07c.08-1,1-12.29-1.59-18.36a8.92,8.92,0,0,0-.91-1.71c-3.85-5.55-18.47.31-18.47.31a54.28,54.28,0,0,0-20.37-9.41,58.67,58.67,0,0,0-13.59-1.56,81.61,81.61,0,0,0-10.54.69H214a79.92,79.92,0,0,0-27,8.54l-.63.34a16.76,16.76,0,0,0-10.08.06,9.17,9.17,0,0,0-3.78,2.55,11.39,11.39,0,0,0-2.64,5.9.13.13,0,0,1,0,.06,18,18,0,0,0-.1,4.41h0l-.22.23a50,50,0,0,0-4.5,6,37.68,37.68,0,0,0-2.17,3.79c-.48,1-.92,1.93-1.31,2.94h0a19.55,19.55,0,0,0-2.55,1.77,12.22,12.22,0,0,0-1.44,1.34h0a12,12,0,0,0-3.07,5.87l0,.1c-.09.45-.16.91-.21,1.39a.09.09,0,0,0,0,.07,16.7,16.7,0,0,0-.09,2.27,24.75,24.75,0,0,0,.42,3.81,10.12,10.12,0,0,0-.69,2.62,22.79,22.79,0,0,0,.12,6.2s-.28.22-.58,1.43c-.44,1.75-.93,5.57-.75,13.79,0,1.27.07,2.64.13,4.13s.15,3,.25,4.73c.06.94.12,1.92.19,2.94q.19,2.94.48,6.33c.49,5.93,1.11,12.46,1.79,19.18v0c.16,1.62.33,3.25.5,4.88,1.3,12.73,2.74,25.78,3.85,36.47.19,1.85.37,3.63.53,5.33a.13.13,0,0,1,0,.06l0,.3c.3,2.94.55,5.63.76,8,.13,1.53.24,2.92.32,4.14l0,.42,0,2.19.05,2.56v.36c-.1.24-.21.48-.32.72s-.21.48-.32.72c-.24.51-.48,1-.72,1.51a48.88,48.88,0,0,1-3.53,6.05,45.55,45.55,0,0,1-7.83,8.72l-.33.28c-.53.46-1.09.9-1.63,1.35-1.47,1.17-3,2.3-4.66,3.42-4.77,3.27-10.27,6.47-16.67,10.47-5.16,3.23-10.49,6.25-15.81,9.28l-3.56,2c-1.56.89-3.11,1.78-4.66,2.69l0,0-2.89,1.72h0c-3.53,2.12-7,4.3-10.39,6.62a118.54,118.54,0,0,0-9.73,7.39c-1.15,1-2.28,2-3.39,3-.6.56-1.19,1.12-1.77,1.7l-.14.14c-.48.48-1,1-1.43,1.45a94.8,94.8,0,0,0-12,15.51l-.16.25a1.19,1.19,0,0,1-.09.15l-.3.51a116,116,0,0,0-6.06,11.33q-1.83,3.9-3.39,7.91a.36.36,0,0,0,0,.11Q48.3,395.15,47,399c-.33,1-.65,2-.95,3-.21.68-.42,1.37-.61,2.06a2.91,2.91,0,0,0-.12.39c-5,17-7.36,34.66-9.75,52.22H77.06s-.1-.21-.27-.62H344.52c-.06.41-.1.62-.1.62Z" />
      <path class="BUNTAI_TURTLE_BODY_TURTLE_BODY_45_cls-5" d="M248.63,228.56c.51,3.95-3.9,18.33-3.9,18.33a4,4,0,0,1-1.61-1.66c-.35-1-2.09-5.41-2.27-5.76s1.31-3.15,4.28-6.12S248.63,228.56,248.63,228.56Z" />
      <path class="BUNTAI_TURTLE_BODY_TURTLE_BODY_45_cls-5" d="M241.41,263.64l-.94,17.55-2,6.33a7.77,7.77,0,0,1-1.1-1.39c-.35-.64-.82-4.37.29-7.81s1.74-4.49,1.69-7.51S241.41,263.82,241.41,263.64Z" />
      <path class="BUNTAI_TURTLE_BODY_TURTLE_BODY_45_cls-5" d="M247.57,289.62c.74,1.31,1.87,5.38,2.49,10S247,314.7,247,314.92a10.37,10.37,0,0,1-4-.18c-.48-.3-2-3.67-.53-6s1.45-6.81.53-9.08-1-3.94.3-6.21,2.48-9.16,2.48-9.16A35.25,35.25,0,0,0,247.57,289.62Z" />
      <path class="BUNTAI_TURTLE_BODY_TURTLE_BODY_45_cls-5" d="M239.48,320.47c.57-.44,4.59-1.14,4.59-1.14a17.79,17.79,0,0,1-3.67,7.6,15,15,0,0,1-1.18-2.79c0-.62-1.14-1.49-1.48-2S238.92,320.9,239.48,320.47Z" />
      <path class="BUNTAI_TURTLE_BODY_TURTLE_BODY_45_cls-5" d="M163.41,310.07a19.25,19.25,0,0,1-1.89,7c-1.86,4.11-2.77,6.2-2.77,6.2-1.58-1.83-1.69-12.84-1.69-12.84s2.38-1.49,3.17-1.92S163.41,310.07,163.41,310.07Z" />
      <path class="BUNTAI_TURTLE_BODY_TURTLE_BODY_45_cls-5" d="M168.57,291.39c1.26,1.42,1.88,3.74,0,6.44s-2.31,3.06-5.37,5a42.79,42.79,0,0,0-6.14,5s1.42-11.55,2.51-14.93,2.93-10.06,2.93-10.06l.91.68c.91.68,3.64,1.85,3.37,4.56S167.31,290,168.57,291.39Z" />
      <path class="BUNTAI_TURTLE_BODY_TURTLE_BODY_45_cls-5" d="M170.65,273.43a35.78,35.78,0,0,1,1.67,4.36c.52,1.93-.12,2.63-1,3.09s-1.58,2.68-2.27,2.1-1.52-3.9-1.11-5.94a17.21,17.21,0,0,0,.29-4C168.59,272.2,170.22,272.32,170.65,273.43Z" />
      <path class="BUNTAI_TURTLE_BODY_TURTLE_BODY_45_cls-5" d="M171.5,263.12a10.36,10.36,0,0,1,3.09,1.63c1.11,1,.52,3.2.17,3.61s-1.8.52-3.14-.87-1.22-4.37-1.22-4.37Z" />
      <path class="BUNTAI_TURTLE_BODY_TURTLE_BODY_45_cls-5" d="M162.42,250.24c.21-1.11.38-1.88.49-2.42a3.74,3.74,0,0,0,1.06.33,11.44,11.44,0,0,0,3.13.44,25.38,25.38,0,0,0,1.08,3.11c.88,1.92,0,5.59,0,5.59a12.29,12.29,0,0,1-5.07-1.4C160.38,254.5,162,252.63,162.42,250.24Z" />
      <path class="BUNTAI_TURTLE_BODY_TURTLE_BODY_45_cls-5" d="M168.38,228.35c.09.64.23,1.47.44,2.49.53,2.51,1.17,2.39,1.17,3.38s-.29,2.22-.35,4.08.76,4.2,1,6-1.46,1.69-2.39,3.32a1.74,1.74,0,0,1-1.14,1,11.44,11.44,0,0,1-3.13-.44,3.74,3.74,0,0,1-1.06-.33c-1.64-.76-2.72-2.65-3-5-.4-2.79,1.22-7.34,1.22-9.14s-3-3.38-3.21-4.72.7-2.5,1.28-3.85a6.52,6.52,0,0,0,.36-1.08,3.52,3.52,0,0,0,1.19.36,18.13,18.13,0,0,0,3.46-.38,11.12,11.12,0,0,0,1.92,4.31c.65.35.82.06,1.87,0A2.1,2.1,0,0,1,168.38,228.35Z" />
      <path class="BUNTAI_TURTLE_BODY_TURTLE_BODY_45_cls-5" d="M168,228.34c-1,.06-1.22.35-1.87,0a11.12,11.12,0,0,1-1.92-4.31,9.1,9.1,0,0,1-.11-.93c-.18-2.86-.06-6.35.4-6.7a1.47,1.47,0,0,1,.7-.19,4.85,4.85,0,0,1,3.15.77,52.31,52.31,0,0,1,5.88,6.93c.58,1-1.28,3.91-2.21,4.43s-2.49.06-3.59,0A2.1,2.1,0,0,0,168,228.34Z" />
      <path class="BUNTAI_TURTLE_BODY_TURTLE_BODY_45_cls-5" d="M160.7,224.41a3.52,3.52,0,0,1-1.19-.36,29,29,0,0,1-4-2.43L152.61,196a14.73,14.73,0,0,1,3,.88c1.08.52,2.45.08,3,.43a39.56,39.56,0,0,1,6.55,8c2.07,3.53,2.3,5.16,1.52,6.91s-1.55,3.88-1.55,3.88v.21a1.47,1.47,0,0,0-.7.19c-.46.35-.58,3.84-.4,6.7a9.1,9.1,0,0,0,.11.93A18.13,18.13,0,0,1,160.7,224.41Z" />
      <path class="BUNTAI_TURTLE_BODY_TURTLE_BODY_45_cls-5" d="M210.18,146.79c2,.23,4,1,3.29,1.85s-2.8,1-5.61,1.58-4.87.73-5.05-.11c0,0-.32-2,1.28-2.61A14.93,14.93,0,0,1,210.18,146.79Z" />
      <path class="BUNTAI_TURTLE_BODY_TURTLE_BODY_45_cls-5" d="M208.16,137.32c.46,1,.67,3.1-2.25,3s-4.87-.83-6.34-.39-2.84-1.73-2.23-2.12a4.32,4.32,0,0,1,3.15-1.07,20.31,20.31,0,0,0,4,0C206.74,136.49,207.7,136.36,208.16,137.32Z" />
      <path class="BUNTAI_TURTLE_BODY_TURTLE_BODY_45_cls-5" d="M197.47,132c1.21,1,1.43,2.63.57,2.93s-2-.2-4.28-.79-2.75,1-3.95.85-.94-1.66-.59-2.6a3.49,3.49,0,0,1,1.9-2.41,4.81,4.81,0,0,1,2.13-.17c.58.07,1,.17,1,.17a24.23,24.23,0,0,0,2.58,1.58A3.54,3.54,0,0,1,197.47,132Z" />
      <path class="BUNTAI_TURTLE_BODY_TURTLE_BODY_45_cls-5" d="M206.29,128.51c1.55.28,2.65,1,2.39,1.46a4.18,4.18,0,0,1-2.3,1.5,19.07,19.07,0,0,1-2.87.27,4.53,4.53,0,0,1-1.16-.14c-.93-.31-1.69-2.32-.82-2.64l.45-.29a3.4,3.4,0,0,1,1.26-.48A12,12,0,0,1,206.29,128.51Z" />
      <path class="BUNTAI_TURTLE_BODY_TURTLE_BODY_45_cls-5" d="M202.35,131.6a4.53,4.53,0,0,0,1.16.14,1.62,1.62,0,0,1-.09.86c-.29.47-1.95,0-4.45-.38l-1.5-.25a3.54,3.54,0,0,0-.63-.44,24.23,24.23,0,0,1-2.58-1.58s-.43-.1-1-.17a3.73,3.73,0,0,1-.69-2.11l.18-.6a5.22,5.22,0,0,1,1.94-.6c.93,0,1.4.39,3.91,1.06s2.08.42,3.39,1.14l-.45.29C200.66,129.28,201.42,131.29,202.35,131.6Z" />
      <path class="BUNTAI_TURTLE_BODY_TURTLE_BODY_45_cls-5" d="M190.49,122.47c.93,1.31,3.73,3,4.15,3.88a.56.56,0,0,1,0,.12,5.22,5.22,0,0,0-1.94.6l-.18.6h-.15a8.55,8.55,0,0,1-4.31-.79,11,11,0,0,1-2.66-1.84,7.9,7.9,0,0,1-2.25-1.15c-.81-.7-2.34-1.6-1.79-2.76s1.53-1.42,3.38-1.42A8.78,8.78,0,0,1,190.49,122.47Z" />
      <path class="BUNTAI_TURTLE_BODY_TURTLE_BODY_45_cls-5" d="M256.7,133.91c-1,.05-2.23,1-4,1.23s-2.31-.66-2-1.4,4.5-1.71,4.5-1.71C258.17,132,257.75,133.87,256.7,133.91Z" />
      <path class="BUNTAI_TURTLE_BODY_TURTLE_BODY_45_cls-5" d="M264.84,139.25a1.78,1.78,0,0,1-.06.87c-.44,1.48-1.53,4.37-2.58,3.88s-1.63-1.48-3.61-1.26-3.29-3.06-1.1-3.8c0,0,1.1-.28,2.32-.55a18.85,18.85,0,0,1,2.78-.46C263.65,137.9,264.66,138.34,264.84,139.25Z" />
      <path class="BUNTAI_TURTLE_BODY_TURTLE_BODY_45_cls-5" d="M264.87,135.18a8.39,8.39,0,0,1,.65,3.19c0,.06-.13.19-.25.34l-.43.54c-.18-.91-1.19-1.35-2.25-1.32a18.85,18.85,0,0,0-2.78.46,1.61,1.61,0,0,1-.36-1.94,3.35,3.35,0,0,1,3.06-1.93c.63,0,1.12-.16,1.51-.12S264.65,134.6,264.87,135.18Z" />
      <path class="BUNTAI_TURTLE_BODY_TURTLE_BODY_45_cls-5" d="M269.83,134.61c-.29.39-1.34,2.75-2,3.63a1.87,1.87,0,0,1-2.57.47c.12-.15.21-.28.25-.34a8.39,8.39,0,0,0-.65-3.19c-.22-.58-.5-.76-.85-.78a2.77,2.77,0,0,1,1.2-1.36,10.77,10.77,0,0,1,4.61-.87C270.33,132.34,270.13,134.22,269.83,134.61Z" />
      <path class="BUNTAI_TURTLE_BODY_TURTLE_BODY_45_cls-5" d="M258.92,124.91a14.2,14.2,0,0,1-2.27,0c-2.31,0-1.44-1.61.27-1.92s4.45-.44,4.76.52S258.92,124.91,258.92,124.91Z" />
      <path class="BUNTAI_TURTLE_BODY_TURTLE_BODY_45_cls-5" d="M267.66,127.8a8.85,8.85,0,0,0,2,.72,1.91,1.91,0,0,1-1,1.33,25.42,25.42,0,0,1-6.29,1.4c-1.44,0-4.28-.35-4.37-1.4a5,5,0,0,1,2-3.19,12.42,12.42,0,0,1,6.29-1.44,12.07,12.07,0,0,1,2.21.34A1.89,1.89,0,0,0,267.66,127.8Z" />
      <path class="BUNTAI_TURTLE_BODY_TURTLE_BODY_45_cls-5" d="M277.49,125.61c.09,1.44.22,3.5-1.4,4.63s-2.56.66-3.16-.3c-.38-.62-1.92-1-3.31-1.42a8.85,8.85,0,0,1-2-.72,1.89,1.89,0,0,1,.77-2.24,3.39,3.39,0,0,1,1.07-.39c2.62-.52,3.23-.52,4.32-1S277.41,124.17,277.49,125.61Z" />
      <path class="BUNTAI_TURTLE_BODY_TURTLE_BODY_45_cls-5" d="M276,118.4c1.4.86,2.76,4.55,2.67,6a4.45,4.45,0,0,0-3.63-1.84c-2.62-.13-5.94.44-6.59,0a1.67,1.67,0,0,1,0-2.84c1.39-1,3.5-2.66,4.57-2.49A6.69,6.69,0,0,1,276,118.4Z" />
      <path class="BUNTAI_TURTLE_BODY_TURTLE_BODY_45_cls-6" d="M266.73,149.28a6.47,6.47,0,0,1-3.38,1.75,8,8,0,0,0,10.72.73c3.45-2.64,5-9.19,5-9.19a53,53,0,0,1-5.9,1.19C271.26,143.94,266.73,149.28,266.73,149.28Z" />
      <path class="BUNTAI_TURTLE_BODY_TURTLE_BODY_45_cls-6" d="M174.53,142.92a44.7,44.7,0,0,0,8.19,1.16c4.95.29,6.37,1.69,9.32,3.82a23,23,0,0,0,7.77,3.35c-4.5,2.56-8.88,3.32-15,1.13S175.32,145.6,174.53,142.92Z" />
      <path d="M239.05,163.83a24.4,24.4,0,0,0,3.29-5.33c1-2.48,2.5-4.11,3.11-3.38s.94,7-.58,9.26S238.29,165.26,239.05,163.83Z" />
      <path d="M260.83,163.83a25.33,25.33,0,0,1-2.75-5.33c-.8-2.48-2.09-4.11-2.6-3.38s-.78,7,.49,9.26S261.46,165.26,260.83,163.83Z" />
      <path class="BUNTAI_TURTLE_BODY_TURTLE_BODY_45_cls-1" d="M173.12,141.13s4.85-1.71,8.13-2.84,9.08.48,12.88,5,6.12,6.68,8.79,7.42c-3.24,2.67-3.11,8.39-13,8.65s-13.88-5.76-15.09-9.26A48,48,0,0,1,173.12,141.13Z" />
      <path class="BUNTAI_TURTLE_BODY_TURTLE_BODY_45_cls-1" d="M173.12,141.13s2.34,2.34,7.21,2.25,9.11,2.16,12.61,5,10,2.33,10,2.33a31.91,31.91,0,0,1-7.85,3.18c-3.94.87-11.25-1-14.83-3.41S173.77,143.91,173.12,141.13Z" />
      <circle cx="186.58" cy="147.18" r="2.75" />
      <path class="BUNTAI_TURTLE_BODY_TURTLE_BODY_45_cls-1" d="M280,141.13s-3-1.71-5.06-2.84-5.66.48-8,5-3.81,6.68-5.47,7.42c2,2.67,1.93,8.39,8.08,8.65s8.65-5.76,9.4-9.26A73.55,73.55,0,0,0,280,141.13Z" />
      <g class="BUNTAI_TURTLE_BODY_TURTLE_BODY_45_cls-7">
        <circle cx="268.66" cy="147.34" r="2.75" />
      </g>
      <path class="BUNTAI_TURTLE_BODY_TURTLE_BODY_45_cls-1" d="M280,141.13a5.28,5.28,0,0,1-4.49,2.25c-3-.08-5.68,2.16-7.86,5s-6.21,2.33-6.21,2.33a17.09,17.09,0,0,0,4.89,3.18c2.45.87,7-1,9.23-3.41A20.15,20.15,0,0,0,280,141.13Z" />
      <g class="BUNTAI_TURTLE_BODY_TURTLE_BODY_45_cls-8">
        <path d="M235.17,223.11s-9,29.06-16,43.07-12.61,23.91-14.7,40.92c-2.34,17.59-2.8,19.84-2.8,19.84s8-33.35,12-42.79,14.61-32.32,17.53-41.59,3.62-14.46,3.57-14.92S235.17,223.11,235.17,223.11Z" />
        <path d="M216,290.57s-13.57,45.08-14.85,46.36-.81,8.73-2.56,12.23-11.65,6.64-17.59,0c13.75,12.7,18.39,12.26,20.62,10.27s5-3.83,4.22-11.87-1-12.63-1-12.63l6.82-27.3Z" />
        <path d="M228.68,222s-17.48-.1-25.76-2.7-20.29-3.94-23.32-2.87-6.81,28.75-5.82,40.34-10,13.28-11.22,28.2c-4-33.93-7.78-70.14-8.87-86.92s-3.37-33.66,0-27,4.16,8.79,4.16,8.79,2.44,9.35,8.53,12.47c12,11.51,27.93,20.25,36.14,23.13S228.68,222,228.68,222Z" />
        <path d="M157.54,146.72s-2.12,13.06,3.48,21.19l-3.59-2s5.16,13,14.07,21c16.6,11.45,50.16,24.56,60.82,27.7s22.83-.75,25-9,14.4-17.71,14.4-17.71-5.52,10.54-7.12,16.05-6.73,12.89-11.51,15.05-11.5,7.69-38.28-.4-32.77-11.16-41.06-19l-8.28-7.84a17,17,0,0,1-6.18-8.2l-1.83-5.41s-2.73-2.53-3.15-9.11-.75-8.33-.64-8.55a39.06,39.06,0,0,0,.53-6.43C154.25,151.09,157.54,146.72,157.54,146.72Z" />
        <path d="M172.49,120.32s6.61.27,11.51,4.27a56.26,56.26,0,0,1,12.67,14.59c3.32,5.57,6.06,11.52,6.06,11.52a40.76,40.76,0,0,1-7.3-5.92c-3.36-3.53-5.16-5.89-8.85-6.35s-11.73,1.87-11.73,1.87h-1.73l-1.53-.66S166.32,128.49,172.49,120.32Z" />
        <path d="M278.88,120.32a9.06,9.06,0,0,0-6.27,4.27,59.89,59.89,0,0,0-6.9,14.59c-1.81,5.57-3.3,11.52-3.3,11.52a31.37,31.37,0,0,0,4-5.92c1.83-3.53,2.82-5.89,4.83-6.35s6.39,1.87,6.39,1.87h.94l.83-.66S282.24,128.49,278.88,120.32Z" />
        <path d="M203.52,150.63s16.91,7.12,30.28,3.46c13.58-7,16.86-6.91,16.86-6.91s5.51,13.74,4.64,26.23-3.91,18.72-3.91,18.72-15.68-1.2-18-6.24A11.67,11.67,0,0,1,226,186s-4.93,6.39-12.34,4.91-10.17-3-10.17-3a31.85,31.85,0,0,1-13.22-6.29c-6.65-5.25-10.32-5.77-10.32-5.77l-3.85-10.29s-2.44-2.07-6.64,0c-3.67,3.56-3.11,4.09-3.11,4.09s-4.44-20.79,10.17-16.3c7.53,6.25,14.09,9,20,4.67S203.52,150.63,203.52,150.63Z" />
        <path d="M153,193.14s-12.64,14.18-22,21.08-17.64,16-18.47,17.83c-7.48,29.79-13.77,45.69-20.06,59.85s-22.72,39-23.68,46-2.36,7.57-2.36,7.57,7.88-8.75,22.35-36.7,19.6-36.23,19.6-36.23-20.86,44.15-24.3,52.43-6.06,20.5-6.06,20.5l27.33-15.84s6.7-4.87,7.81-8.2-.12-5.55,8.21-7.41c13.68-5.83,21.44-11.23,26.24-17.88s7.24-11.25,10.53-13.29l3.3-2-7.1-76.69Z" />
        <path d="M264.14,205.4s5.48,7.07,11.6,15.81S293.48,246,293.48,246s2.41,14.28,15.19,22.84c12.34,19.83,24.29,26.82,27.8,32.46,4.63,24.51,8.49,34.92,8.49,34.92v19l-1.3,3.48s-3.06-7.05-5-8.52-5.92-7.6-5.92-7.6-7.63-.2-9.74-1.72-6.34-4.68-6.34-4.68l-28.79-20.62s-3.71-9.12-6.84-10.19-11.29-2.58-11.29-2.58l-24.27-20.07s-3.65-8.1-1.18-23.89,6.66-39.22,6.66-39.22S260.39,217.55,264.14,205.4Z" />
        <path d="M304.32,244.89s3.49,14.76,13.72,22.54,29.79,25.87,39,52.08S365.83,372,365.83,372s1.52,18.43,1.41,18.12-1.74-12.61-8.31-15.8c0,0-8.57-5.12-11.33-9.25a84.86,84.86,0,0,1-4.88-8.4l-11.4-54.06s-6.47-22.8-17-35.12c-7.07-9.12-7.65-10.44-8.29-13.27S304.32,244.89,304.32,244.89Z" />
        <path d="M238.24,109.7s-36,.21-44.5,11.72c-6.61-3.48-7.16-4.45-7.16-4.45a107.66,107.66,0,0,1,21.28-7.27C219.33,107.18,238.24,109.7,238.24,109.7Z" />
        <polygon points="169.5 131.74 171.74 139.28 162.35 143.16 163.17 138.99 169.5 131.74" />
        <path d="M270.7,180.35s11.27-9.61,16.15-20.74c-5.37,14.56-5.33,20.78-8.92,24.34s-5.05,4-5.05,4S268.71,186.54,270.7,180.35Z" />
        <path d="M148.92,304S137,318.56,126.85,326.29s-14.33,10.64-14.33,10.64-2.84-4.87-13.9-.94c9.94-6.46,27.42-16.42,27.42-16.42A139.37,139.37,0,0,0,148.92,304Z" />
        <path d="M326.32,356s3.87,11.26,4.15,17.05c4.27,8.81,15,37.83,15.57,66l2.3-3.15s-1.13-39.49-10.6-62.85c.81,9.9,0,11.13,0,11.13l-2.53-8.28S330.68,361.26,326.32,356Z" />
        <path d="M213.81,456.62a150.93,150.93,0,0,1-14.67,10.32h-95.3a67.5,67.5,0,0,1-7.1-10.32h-19a63,63,0,0,1-3.28-7.76.88.88,0,0,1,0-.15c-.63-1.78-1.14-3.45-1.6-5l0-.11C67.1,419.17,68,393,70.13,383.35c.53,13.22,1.18,14.79,1.18,14.79A185.45,185.45,0,0,1,75.87,379c0-.09,0-.18.08-.28A42.73,42.73,0,0,1,80,368.9a.29.29,0,0,1,0,.1,50.39,50.39,0,0,0-1.27,5.09c0,.13-.06.27-.08.4a46.18,46.18,0,0,0-.67,5c0,.09,0,.18,0,.27a37.61,37.61,0,0,0,0,4.59.34.34,0,0,0,0,.1,22.38,22.38,0,0,0,.66,4.45c.49-1.14,1.06-2.46,1.72-3.93a.61.61,0,0,0,0-.12c.49-1.1,1-2.28,1.61-3.53a1,1,0,0,1,.07-.15c.88-1.93,1.87-4,2.94-6.22h0c4.67-9.6,10.88-21.23,17.38-30.45,0,0,0,0,0,0a75.76,75.76,0,0,1,7.36-9.12l.25-.26h0a37.68,37.68,0,0,1,3.09-2.84l.88-.69-.17.61-1.16,4.27h0l-.13.46h0s-14.42,20.83-21.26,45.75h0c-.16.59-.32,1.17-.47,1.76l0,.13c-2.83,11-4.1,22.7-2,33.7.25,1.27.54,2.54.88,3.79h0a48.6,48.6,0,0,0,2.58,7.19c6.41,14.17,21.59,22.67,39.36,27.36.86.23,1.73.45,2.61.65a169.33,169.33,0,0,0,37.62,4.23C189.53,461.63,205.39,459.44,213.81,456.62Z" />
        <path d="M113.81,332.18l-3.14,4.28s-23.41,20.83-28,35.65L84.34,357S53.76,380.13,47,399c7.48-18.37,12.17-31.25,26.74-45.39s27.81-20.08,27.81-20.08Z" />
        <path d="M344.49,456.62H321a63,63,0,0,1-7.19,10.32H241l-.62-.9a98.08,98.08,0,0,1-5.68-9.42A47.33,47.33,0,0,0,247.56,463c9.94,3.27,21.11,3.7,32,2.18a96.61,96.61,0,0,0,28.4-8.6,68.48,68.48,0,0,0,14.4-9.17,41.93,41.93,0,0,0,3.94-3.78l.47-.52a23.13,23.13,0,0,0,5-8.66c5.7-20.05,2.56-47.46,1.92-52.41-.05-.39-.09-.64-.1-.74h0c.13.22.24.44.35.66s.13.25.19.38.27.52.4.78.22.45.32.68l.06.13h0c3.6,7.65,6,16.58,7.55,25.31a.37.37,0,0,1,0,.12l0,.18a.09.09,0,0,1,0,.05c.36,2,.68,3.93,1,5.86h0a.13.13,0,0,0,0,.06c0,.12,0,.25.05.37.81,5.58,1.35,10.91,1.74,15.59,0,.06,0,.11,0,.17a.71.71,0,0,0,0,.14c.3,3.58.51,6.76.7,9.36,0,0,0,.08,0,.12A51.89,51.89,0,0,1,344.49,456.62Z" />
      </g>
      <path class="BUNTAI_TURTLE_BODY_TURTLE_BODY_45_cls-5" d="M156,226.5c-2.13,1.11-5.32,2.8-8.69,4.67C141,234.68,134,238.82,132.18,241c-3.58,4.29-3.84,17.74-3.75,25.78s-2.27,10.05-11.19,19.49a33.57,33.57,0,0,0-5.92,9,54.59,54.59,0,0,0-4.65,20.53c0,2.3-.21,6.59-.42,10.37,0,1-.11,2-.16,2.88l.16,1.77c6.5-3.72,13.06-7.36,19.37-11.31,17.74-11.09,28.61-16.05,36-33.24l-.11-5.11C160.84,271,158.22,248.26,156,226.5Z" />
      <path class="BUNTAI_TURTLE_BODY_TURTLE_BODY_45_cls-5" d="M322.23,317.29a81,81,0,0,0-4.72-9.16c-1.15-2-2.52-4.12-4.1-6.34-5.4-7.61-9.89-13-16.13-16.5-.49-.28-1-.55-1.52-.8-7.05-3.44-12.7-3.38-15-9.79-1.14-3.21-3.06-8.31-5.05-13.5s-4-10.42-5.44-14c-2.43-6.21-13.93-12.37-21.63-13.18-2.31,10.34-4.92,23.66-5,31.41a85.26,85.26,0,0,0,1.76,17.36l.76,3.39c3.16,10.6,16.81,22.32,34.54,33.41,11.52,7.21,23.85,13.39,35.15,20.87a9.82,9.82,0,0,1,1.88.9,10.68,10.68,0,0,1,2.4,2l.81.58h0l.3-4.24c0-.52-.06-16.9.52-19.48S322.23,317.29,322.23,317.29Z" />
      <path class="BUNTAI_TURTLE_BODY_TURTLE_BODY_45_cls-1" d="M261.33,121.41a27.86,27.86,0,0,0-2.74-2.31,56.15,56.15,0,0,0-34-11,80.71,80.71,0,0,0-38.27,9.58" />
      <path class="BUNTAI_TURTLE_BODY_TURTLE_BODY_45_cls-1" d="M252.19,219.29c4.48-2.53,8.48-6.1,10-9.54,1.09-2.57,3-7.08,5.05-11.53A66.56,66.56,0,0,1,273,187.77" />
      <path class="BUNTAI_TURTLE_BODY_TURTLE_BODY_45_cls-1" d="M161.53,143.61c-5.24,3.09-8.65,7.64-7,16.63-1,2.18-1.05,5.54-.57,8.82.59,4.08,2.06,8,3.84,9.41,1.63,8.27,5.65,13.22,8.33,13.57,6.17,7.17,19.16,17.5,41.47,24.36,13,4,21.16,5.92,27.06,6.5a28.77,28.77,0,0,0,10.16-.56,30.15,30.15,0,0,0,7.35-3" />
      <path class="BUNTAI_TURTLE_BODY_TURTLE_BODY_45_cls-1" d="M194.63,121.41a30.32,30.32,0,0,0-8.27-3.7,16.76,16.76,0,0,0-10.08.06c-5.4,2-7,7.56-6.53,12.92a19.21,19.21,0,0,0,2.63,8.23,76.52,76.52,0,0,0-10.84,4.68" />
      <path class="BUNTAI_TURTLE_BODY_TURTLE_BODY_45_cls-1" d="M234.68,179.83c0,11.49,16.71,12.29,16.71,12.29,8.18,0,12-11.39,12.29-12.24" />
      <path class="BUNTAI_TURTLE_BODY_TURTLE_BODY_45_cls-1" d="M258.59,119.1s14.62-5.86,18.47-.31,2.49,20.14,2.49,20.14,7.86,7.17,8.26,14-2.14,9.59-4.24,16.24-6.23,19-10.59,18.57c-2.82-.21-1.73-7.94-1.73-7.94s-3.13,3.18-4.88,2.4c-1.56-.71-2.74-2.07-2.69-2.35v0" />
      <path class="BUNTAI_TURTLE_BODY_TURTLE_BODY_45_cls-1" d="M176.84,164.93h0c-1.54,7.05,3.44,11.38,8.12,13,5,1.74,6,3.14,11.62,6.81s11.28-.7,11.28-.7,2.18,3.5,9.26,3.5,8.78-7.73,8.78-7.73,1.83,2.92,4,3.18,4.76-3.18,4.76-3.18" />
      <path class="BUNTAI_TURTLE_BODY_TURTLE_BODY_45_cls-1" d="M166.38,170.44s.82-8.52,10.46-5.5a30.17,30.17,0,0,1,6.49,3.11" />
      <path class="BUNTAI_TURTLE_BODY_TURTLE_BODY_45_cls-1" d="M252.19,219.29h0a1.37,1.37,0,0,1-.05.18c-.19.75-1,3.83-2,8.15-.45,1.91-.95,4.05-1.46,6.34-.4,1.77-.8,3.63-1.2,5.54a.09.09,0,0,0,0,.05,188.18,188.18,0,0,0-3.64,22.67s0,0,0,.08c-.08,1.09-.12,2.12-.13,3.07,0,2.05.06,4.08.2,6.06v.11c.12,1.71.3,3.38.51,5,.29,2.16.64,4.23,1,6.14,0,0,0,0,0,.05l.42,1.9,0,.13.3,1.36a21.94,21.94,0,0,0,.84,2.29,31,31,0,0,0,3.52,6c.86,1.17,1.82,2.36,2.88,3.54a69.41,69.41,0,0,0,5.62,5.65q1.45,1.31,3,2.64a168.52,168.52,0,0,0,18.65,13.28c11.52,7.21,23.85,13.39,35.15,20.87q2.16,1.43,4.28,2.94l.81.58c1.31.94,2.59,1.91,3.86,2.92A95.08,95.08,0,0,1,333,354a94.09,94.09,0,0,1,13.94,17.73c.75,1.22,1.48,2.45,2.17,3.7a1.13,1.13,0,0,1,.12.21,0,0,0,0,0,0,0c.1.17.19.35.28.52.22.39.43.77.63,1.16a132.14,132.14,0,0,1,8.28,19l0,.07c.64,1.84,1.25,3.7,1.82,5.56q1.19,3.84,2.19,7.72a302.29,302.29,0,0,1,6.32,32.8c.69,4.71,1.33,9.44,2,14.15H336.49" />
      <path class="BUNTAI_TURTLE_BODY_TURTLE_BODY_45_cls-1" d="M154,169.06s-.28.22-.58,1.43c-.44,1.75-.93,5.57-.75,13.79v0c0,1.26.07,2.62.13,4.09.06,1.21.12,2.48.2,3.84,0,.29,0,.59.05.89.06.94.12,1.92.19,2.94,0,.25,0,.51.05.77,0,.52.08,1,.12,1.58.05.75.11,1.52.17,2.31.05.55.09,1.1.14,1.67.08.92.16,1.86.24,2.81s.15,1.72.23,2.6c0,.49.09,1,.13,1.49.22,2.37.45,4.81.69,7.28.16,1.65.33,3.32.5,5v0c.16,1.62.33,3.25.5,4.88s.33,3.19.49,4.78l.36,3.4q.45,4.29.9,8.49c.08.78.17,1.56.25,2.33.66,6.18,1.29,12.11,1.85,17.45v0s0,.06,0,.09c.19,1.82.36,3.57.52,5.24a.13.13,0,0,1,0,.06l0,.38c.29,2.91.54,5.57.75,7.89.13,1.53.24,2.92.32,4.14l0,.42,0,2.19.05,2.56v.36c-.1.24-.21.48-.32.72s-.21.48-.32.72c-.24.51-.48,1-.72,1.51-.55,1.11-1.12,2.17-1.7,3.17-.23.38-.45.75-.68,1.11s-.53.86-.81,1.27c-.11.16-.22.33-.34.49h0c-.05.07-.09.14-.14.2q-.3.44-.6.84c-.38.52-.76,1-1.17,1.53-.21.27-.42.54-.65.8a43.69,43.69,0,0,1-3.2,3.45l-1,.93c-.28.26-.57.53-.87.78l-.21.19-.33.28-.81.68-.49.4-.33.27c-.37.29-.74.59-1.12.87l-.28.21s0,0-.06,0l-.81.61c-.77.57-1.57,1.13-2.39,1.69l-1.82,1.22-2,1.29-1.87,1.18-2.16,1.35-2,1.22c-2.16,1.32-4.43,2.71-6.83,4.21-6.31,3.95-12.87,7.59-19.37,11.31l-2.33,1.34-2.33,1.35,0,0c-1,.57-1.94,1.14-2.9,1.72-3.53,2.12-7,4.3-10.39,6.62-3.08,2.12-6.07,4.34-8.94,6.73l-.9.75c-.52.44-1,.89-1.53,1.34s-1.17,1-1.75,1.59l0,0-1.33,1.27-.41.4-.14.14-.06.06c-.46.46-.92.92-1.37,1.39-1,1.08-2,2.2-3,3.33-.36.39-.69.79-1,1.19-.2.22-.39.45-.58.68s-.58.71-.85,1.07-.41.5-.6.75-.45.57-.66.86-.64.84-1,1.27c-.6.82-1.2,1.65-1.77,2.49-.25.35-.49.71-.72,1.07s-.58.86-.87,1.3-.64,1-1,1.5l-.16.25,0,.07s0,0,0,0l0,0h0l-.3.51-.83,1.38-.66,1.13-.56,1c-.27.48-.54,1-.8,1.45q-.63,1.15-1.23,2.34c-.3.58-.59,1.16-.88,1.74-.37.76-.74,1.52-1.1,2.29-1.05,2.25-2,4.52-3,6.82q-.24.58-.48,1.2c-1,2.5-1.88,5-2.72,7.55a.19.19,0,0,1,0,.07c-.33,1-.65,2-.95,3-.21.68-.42,1.37-.61,2.06a2.91,2.91,0,0,0-.12.39c-5,17-7.36,34.66-9.75,52.22h45" />
      <path class="BUNTAI_TURTLE_BODY_TURTLE_BODY_45_cls-1" d="M192.88,357.67s7.6,5.12,11-.24.67-19.23,1.32-22.49,7.64-36.7,15.33-58.6,14.89-37.75,14.19-53.44" />
      <path class="BUNTAI_TURTLE_BODY_TURTLE_BODY_45_cls-1" d="M263.69,179.83s4.63-12.28.52-22.06-14.15-13.9-23.42-8.39-18.7,12.67-18.7,12.67" />
      <path class="BUNTAI_TURTLE_BODY_TURTLE_BODY_45_cls-1" d="M152.78,188.41a45.79,45.79,0,0,0-8,4.73c-.75.53-1.53,1.12-2.34,1.76-7.52,5.94-31.43,22.48-33.64,27.61-2,4.51-9.65,26.81-14.09,40.61-.62,1.91-1.17,3.66-1.64,5.18-3.85,12.46-3.67,14.06-7,19.66-1.29,2.15-3.47,5.18-5.77,8.34-3.69,5.1-7.67,10.53-8.64,13.15-1.58,4.24-4.9,8.91-5.77,11.49-.2.6-.58,1.85-1,3.48-1.55,5.42-4.05,14.89-4.11,17.41-.09,3.27-1.67,6-3.06,9.17a79.94,79.94,0,0,0-2.89,8.69,13.93,13.93,0,0,0-2,4.24c-1.35,5.59-.83,5.2-1.39,10.14a13.19,13.19,0,0,0,.24,4.49l1.65,4.79" />
      <path class="BUNTAI_TURTLE_BODY_TURTLE_BODY_45_cls-1" d="M156,226.5c-2.13,1.11-5.32,2.8-8.69,4.67C141,234.68,134,238.82,132.18,241c-3.58,4.29-3.84,17.74-3.75,25.78s-2.27,10.05-11.19,19.49a33.57,33.57,0,0,0-5.92,9,54.59,54.59,0,0,0-4.65,20.53c0,2.3-.21,6.59-.42,10.37,0,1-.11,2-.16,2.88l.16,1.77" />
      <path class="BUNTAI_TURTLE_BODY_TURTLE_BODY_45_cls-1" d="M267.2,198.22c1.15.58,2.72,1.43,4.54,2.57,5.69,3.55,13.82,9.86,19.37,19.39,0,0,0,0,0,0,.35.59.68,1.21,1,1.83q2.48,4.74,4.46,8.72c6,12,8.85,19.32,9.52,24.37a14.27,14.27,0,0,0,2.86,6.14c.59.83,1.28,1.71,2,2.62,4.14,4.92,10.63,11,18.63,18.85a54.47,54.47,0,0,1,7.82,10c.76,1.23,1.48,2.49,2.17,3.76,6.77,12.42,10.17,26.25,10.75,30.39.1.69.18,1.68.23,2.9.14,2.84.18,6.91.1,11.37-.07,4.63-.26,9.67-.58,14.15a69.32,69.32,0,0,1-1.46,11.27c0,.05,0,.1,0,.15l-1.72,5" />
      <path class="BUNTAI_TURTLE_BODY_TURTLE_BODY_45_cls-1" d="M248.67,234c7.7.81,19.2,7,21.63,13.18,1.42,3.63,3.46,8.89,5.44,14s3.91,10.29,5.05,13.5c2.27,6.41,7.92,6.35,15,9.79.52.25,1,.52,1.52.8,6.24,3.48,10.73,8.89,16.13,16.5,1.58,2.22,2.95,4.38,4.1,6.34a81,81,0,0,1,4.72,9.16s.15.29-.43,2.91-.52,19-.52,19.48l-.3,4.24" />
      <path class="BUNTAI_TURTLE_BODY_TURTLE_BODY_45_cls-1" d="M291.11,220.18l0,0c.82.94,19.56,22.44,23.49,31.66a16.84,16.84,0,0,0,1.43,2.6c6.45,9.92,26.69,26.36,36,40.74,4.27,6.64,9.08,16.88,13.26,27.21,5.72,14.17,10.28,28.5,10.68,34,.35,4.79-.1,14-.68,22.18-.56,7.94-1.25,14.88-1.42,15.74-.35,1.75-.45,14.21-.45,14.21s.43,27.77-4.64,34" />
      <path class="BUNTAI_TURTLE_BODY_TURTLE_BODY_45_cls-1" d="M144.75,193.14s-6.36,8.75-4.27,19.85a53.46,53.46,0,0,0,6.82,18.18h0" />
      <path class="BUNTAI_TURTLE_BODY_TURTLE_BODY_45_cls-1" d="M94.68,263.12s5,15,4.47,19.36a10.72,10.72,0,0,0,4.55,10.11c3,2.1,7.62,2.71,7.62,2.71" />
      <path class="BUNTAI_TURTLE_BODY_TURTLE_BODY_45_cls-1" d="M80.23,296.3s2,8.58,5.23,14.06,11.65,11.94,14.22,12.9,6.57,2.94,6.57,2.94" />
      <path class="BUNTAI_TURTLE_BODY_TURTLE_BODY_45_cls-1" d="M64.78,324.42s1.46,8,3.91,9.71,4,1.63,8.73,2.91a67.55,67.55,0,0,1,8.69,3,20.08,20.08,0,0,1,2.15,1.86" />
      <path class="BUNTAI_TURTLE_BODY_TURTLE_BODY_45_cls-1" d="M250.13,227.63a21.61,21.61,0,0,0,11.37-6.4c5.48-5.59,8.39-9.55,9-10.72s1.27-9.71,1.27-9.71" />
      <path class="BUNTAI_TURTLE_BODY_TURTLE_BODY_45_cls-1" d="M296.61,230.76s-.86,10.28-2.6,14.12a100.84,100.84,0,0,1-5.48,9.67s-7.76,6.54-12.79,6.65" />
      <path class="BUNTAI_TURTLE_BODY_TURTLE_BODY_45_cls-1" d="M309,261.27s-.76,8.08,0,9.94,1.37,5.25-.34,7.69-8,4-11.37,6.39h0" />
      <path class="BUNTAI_TURTLE_BODY_TURTLE_BODY_45_cls-1" d="M317.51,308.13s4.46-2.11,8.42,0,8.62-1.68,9.9-5.32a19.65,19.65,0,0,1,3.82-6.3" />
      <path class="BUNTAI_TURTLE_BODY_TURTLE_BODY_45_cls-1" d="M350.63,329.8s-7.57,10.15-12.82,11-6.49,1.84-6.49,1.84l-6.47,4.23" />
      <path class="BUNTAI_TURTLE_BODY_TURTLE_BODY_45_cls-1" d="M132.18,241a20,20,0,0,1-10.72-5.92c-4.89-5.14-9.78,3.48-12.69-12.6" />
      <line class="BUNTAI_TURTLE_BODY_TURTLE_BODY_45_cls-1" x1="316.06" y1="254.47" x2="311.32" y2="263.64" />
      <line class="BUNTAI_TURTLE_BODY_TURTLE_BODY_45_cls-1" x1="337.48" y1="292.75" x2="352.03" y2="295.21" />
      <line class="BUNTAI_TURTLE_BODY_TURTLE_BODY_45_cls-1" x1="365.28" y1="322.42" x2="350.77" y2="341.17" />
      <path class="BUNTAI_TURTLE_BODY_TURTLE_BODY_45_cls-1" d="M350.15,355.32s15,5.06,25.14,23.24" />
      <path class="BUNTAI_TURTLE_BODY_TURTLE_BODY_45_cls-1" d="M161.53,143.61h0a45.13,45.13,0,0,1,8.2-12.91h0" />
      <path class="BUNTAI_TURTLE_BODY_TURTLE_BODY_45_cls-9" d="M167.1,248.59a25.38,25.38,0,0,0,1.08,3.11c.88,1.92,0,5.59,0,5.59a12.29,12.29,0,0,1-5.07-1.4c-2.73-1.39-1.16-3.26-.69-5.65.21-1.11.38-1.88.49-2.42" />
      <path class="BUNTAI_TURTLE_BODY_TURTLE_BODY_45_cls-9" d="M159.51,224.05a6.52,6.52,0,0,1-.36,1.08c-.58,1.35-1.45,2.51-1.28,3.85s3.21,2.91,3.21,4.72-1.62,6.35-1.22,9.14c.33,2.33,1.41,4.22,3,5a3.74,3.74,0,0,0,1.06.33,11.44,11.44,0,0,0,3.13.44,1.74,1.74,0,0,0,1.14-1c.93-1.63,2.62-1.51,2.39-3.32s-1-4.13-1-6,.35-3.09.35-4.08-.64-.87-1.17-3.38c-.21-1-.35-1.85-.44-2.49" />
      <path class="BUNTAI_TURTLE_BODY_TURTLE_BODY_45_cls-9" d="M165.15,216.21V216s.76-2.14,1.55-3.88.55-3.38-1.52-6.91a39.56,39.56,0,0,0-6.55-8c-.55-.35-1.92.09-3-.43a14.73,14.73,0,0,0-3-.88l2.88,25.67a29,29,0,0,0,4,2.43,3.52,3.52,0,0,0,1.19.36,18.13,18.13,0,0,0,3.46-.38" />
      <path class="BUNTAI_TURTLE_BODY_TURTLE_BODY_45_cls-9" d="M269.62,128.52a1.91,1.91,0,0,1-1,1.33,25.42,25.42,0,0,1-6.29,1.4c-1.44,0-4.28-.35-4.37-1.4a5,5,0,0,1,2-3.19,12.42,12.42,0,0,1,6.29-1.44,12.07,12.07,0,0,1,2.21.34" />
      <path class="BUNTAI_TURTLE_BODY_TURTLE_BODY_45_cls-9" d="M194.68,126.47a.56.56,0,0,0,0-.12c-.42-.93-3.22-2.57-4.15-3.88a8.78,8.78,0,0,0-5.71-2.76c-1.85,0-2.84.26-3.38,1.42s1,2.06,1.79,2.76a7.9,7.9,0,0,0,2.25,1.15,11,11,0,0,0,2.66,1.84,8.55,8.55,0,0,0,4.31.79h.15" />
      <path class="BUNTAI_TURTLE_BODY_TURTLE_BODY_45_cls-9" d="M203.51,131.74a1.62,1.62,0,0,1-.09.86c-.29.47-1.95,0-4.45-.38l-1.5-.25" />
      <path class="BUNTAI_TURTLE_BODY_TURTLE_BODY_45_cls-9" d="M193.25,129.78a3.73,3.73,0,0,1-.69-2.11l.18-.6a5.22,5.22,0,0,1,1.94-.6c.93,0,1.4.39,3.91,1.06s2.08.42,3.39,1.14" />
      <path class="BUNTAI_TURTLE_BODY_TURTLE_BODY_45_cls-9" d="M203.51,131.74a4.53,4.53,0,0,1-1.16-.14c-.93-.31-1.69-2.32-.82-2.64l.45-.29a3.4,3.4,0,0,1,1.26-.48,12,12,0,0,1,3,.32c1.55.28,2.65,1,2.39,1.46a4.18,4.18,0,0,1-2.3,1.5A19.07,19.07,0,0,1,203.51,131.74Z" />
      <path class="BUNTAI_TURTLE_BODY_TURTLE_BODY_45_cls-9" d="M197.47,132a3.54,3.54,0,0,0-.63-.44,24.23,24.23,0,0,1-2.58-1.58s-.43-.1-1-.17a4.81,4.81,0,0,0-2.13.17,3.49,3.49,0,0,0-1.9,2.41c-.35.94-.61,2.45.59,2.6s1.7-1.44,3.95-.85,3.3,1.14,4.28.79S198.68,133,197.47,132Z" />
      <path class="BUNTAI_TURTLE_BODY_TURTLE_BODY_45_cls-9" d="M200.49,136.71a20.31,20.31,0,0,0,4,0c2.23-.22,3.19-.35,3.65.61s.67,3.1-2.25,3-4.87-.83-6.34-.39-2.84-1.73-2.23-2.12A4.32,4.32,0,0,1,200.49,136.71Z" />
      <path class="BUNTAI_TURTLE_BODY_TURTLE_BODY_45_cls-9" d="M269.62,128.52a8.85,8.85,0,0,1-2-.72,1.89,1.89,0,0,1,.77-2.24,3.39,3.39,0,0,1,1.07-.39c2.62-.52,3.23-.52,4.32-1s3.59,0,3.67,1.48.22,3.5-1.4,4.63-2.56.66-3.16-.3C272.55,129.32,271,128.93,269.62,128.52Z" />
      <path class="BUNTAI_TURTLE_BODY_TURTLE_BODY_45_cls-9" d="M278.63,124.39a4.45,4.45,0,0,0-3.63-1.84c-2.62-.13-5.94.44-6.59,0a1.67,1.67,0,0,1,0-2.84c1.39-1,3.5-2.66,4.57-2.49a6.69,6.69,0,0,1,3,1.18C277.36,119.26,278.72,123,278.63,124.39Z" />
      <path class="BUNTAI_TURTLE_BODY_TURTLE_BODY_45_cls-9" d="M258.92,124.91a14.2,14.2,0,0,1-2.27,0c-2.31,0-1.44-1.61.27-1.92s4.45-.44,4.76.52S258.92,124.91,258.92,124.91Z" />
      <path class="BUNTAI_TURTLE_BODY_TURTLE_BODY_45_cls-9" d="M264,134.4a2.77,2.77,0,0,1,1.2-1.36,10.77,10.77,0,0,1,4.61-.87c.5.17.3,2.05,0,2.44s-1.34,2.75-2,3.63a1.87,1.87,0,0,1-2.57.47" />
      <path class="BUNTAI_TURTLE_BODY_TURTLE_BODY_45_cls-9" d="M255.25,132s-4.15,1-4.5,1.71.22,1.66,2,1.4,2.93-1.18,4-1.23S258.17,132,255.25,132Z" />
      <path class="BUNTAI_TURTLE_BODY_TURTLE_BODY_45_cls-9" d="M264.84,139.25l.43-.54c.12-.15.21-.28.25-.34a8.39,8.39,0,0,0-.65-3.19c-.22-.58-.5-.76-.85-.78s-.88.12-1.51.12a3.35,3.35,0,0,0-3.06,1.93,1.61,1.61,0,0,0,.36,1.94" />
      <path class="BUNTAI_TURTLE_BODY_TURTLE_BODY_45_cls-9" d="M264.84,139.25a1.78,1.78,0,0,1-.06.87c-.44,1.48-1.53,4.37-2.58,3.88s-1.63-1.48-3.61-1.26-3.29-3.06-1.1-3.8c0,0,1.1-.28,2.32-.55a18.85,18.85,0,0,1,2.78-.46C263.65,137.9,264.66,138.34,264.84,139.25Z" />
      <path class="BUNTAI_TURTLE_BODY_TURTLE_BODY_45_cls-9" d="M202.81,150.11s-.32-2,1.28-2.61a14.93,14.93,0,0,1,6.09-.71c2,.23,4,1,3.29,1.85s-2.8,1-5.61,1.58S203,151,202.81,150.11Z" />
      <path class="BUNTAI_TURTLE_BODY_TURTLE_BODY_45_cls-9" d="M168.38,228.35a2.1,2.1,0,0,0-.43,0c-1,.06-1.22.35-1.87,0a11.12,11.12,0,0,1-1.92-4.31,9.1,9.1,0,0,1-.11-.93c-.18-2.86-.06-6.35.4-6.7a1.47,1.47,0,0,1,.7-.19,4.85,4.85,0,0,1,3.15.77,52.31,52.31,0,0,1,5.88,6.93c.58,1-1.28,3.91-2.21,4.43S169.48,228.4,168.38,228.35Z" />
      <path class="BUNTAI_TURTLE_BODY_TURTLE_BODY_45_cls-9" d="M170.4,263.12s-.12,3,1.22,4.37,2.8,1.28,3.14.87.94-2.62-.17-3.61a10.36,10.36,0,0,0-3.09-1.63Z" />
      <path class="BUNTAI_TURTLE_BODY_TURTLE_BODY_45_cls-9" d="M168.24,273.08a17.21,17.21,0,0,1-.29,4c-.41,2,.41,5.36,1.11,5.94s1.39-1.63,2.27-2.1,1.51-1.16,1-3.09a35.78,35.78,0,0,0-1.67-4.36C170.22,272.32,168.59,272.2,168.24,273.08Z" />
      <path class="BUNTAI_TURTLE_BODY_TURTLE_BODY_45_cls-9" d="M157.06,307.8a42.79,42.79,0,0,1,6.14-5c3.06-1.92,3.49-2.27,5.37-5s1.26-5,0-6.44-2-.63-1.79-3.34-2.46-3.88-3.37-4.56l-.91-.68s-1.84,6.67-2.93,10.06S157.06,307.8,157.06,307.8Z" />
      <path class="BUNTAI_TURTLE_BODY_TURTLE_BODY_45_cls-9" d="M158.75,323.26s.91-2.09,2.77-6.2a19.25,19.25,0,0,0,1.89-7s-2.39-2-3.18-1.57-3.17,1.92-3.17,1.92S157.17,321.43,158.75,323.26Z" />
      <path class="BUNTAI_TURTLE_BODY_TURTLE_BODY_45_cls-9" d="M245.76,284.26s-1.12,6.89-2.48,9.16-1.22,3.93-.3,6.21.92,6.72-.53,9.08.05,5.73.53,6a10.37,10.37,0,0,0,4,.18c0-.22,3.72-10.62,3.11-15.27s-1.75-8.72-2.49-10A35.25,35.25,0,0,1,245.76,284.26Z" />
      <path class="BUNTAI_TURTLE_BODY_TURTLE_BODY_45_cls-9" d="M244.07,319.33s-4,.7-4.59,1.14-2.09,1.22-1.74,1.7,1.44,1.35,1.48,2a15,15,0,0,0,1.18,2.79A17.79,17.79,0,0,0,244.07,319.33Z" />
      <path class="BUNTAI_TURTLE_BODY_TURTLE_BODY_45_cls-9" d="M241.41,263.64c0,.18-2.1,4.14-2,7.17s-.59,4.07-1.69,7.51-.64,7.17-.29,7.81a7.77,7.77,0,0,0,1.1,1.39l2-6.33Z" />
      <path class="BUNTAI_TURTLE_BODY_TURTLE_BODY_45_cls-9" d="M248.63,228.56s-.52,1.82-3.5,4.79-4.45,5.77-4.28,6.12,1.92,4.8,2.27,5.76a4,4,0,0,0,1.61,1.66S249.14,232.51,248.63,228.56Z" />
      <path class="BUNTAI_TURTLE_BODY_TURTLE_BODY_45_cls-9" d="M166.15,192.05s1.68-8,7.39-11.06c-2.91-7.75.44-14.66-3.07-16.24s-9.91-1.3-12.65,13.73" />
      <path class="BUNTAI_TURTLE_BODY_TURTLE_BODY_45_cls-9" d="M159,145.39s-1.91,3.85.53,6.82c-2.56,3.78-4.95,8-4.95,8s1.25,6.17,7.59,6.81" />
      <path class="BUNTAI_TURTLE_BODY_TURTLE_BODY_45_cls-9" d="M179.51,156.4s-7-4.31-12.47-2.08a8,8,0,0,0-2.51,10.62" />
      <path class="BUNTAI_TURTLE_BODY_TURTLE_BODY_45_cls-9" d="M175.73,164.64s.14-5.75,5.08-7.38" />
      <path class="BUNTAI_TURTLE_BODY_TURTLE_BODY_45_cls-9" d="M159.5,152.21a10.07,10.07,0,0,0,7.54,2.11" />
      <path class="BUNTAI_TURTLE_BODY_TURTLE_BODY_45_cls-10" d="M277.63,184a9.76,9.76,0,0,0-2.21-3c1.82-7.75-.28-14.66,1.93-16.24a2.73,2.73,0,0,1,3.72.19,7.2,7.2,0,0,1,1.51,2.12,18.18,18.18,0,0,1,.93,2.33" />
      <path class="BUNTAI_TURTLE_BODY_TURTLE_BODY_45_cls-10" d="M284.56,145.39s1.2,3.85-.33,6.82c1.61,3.78,3.11,8,3.11,8s-.79,6.17-4.77,6.81" />
      <path class="BUNTAI_TURTLE_BODY_TURTLE_BODY_45_cls-10" d="M281.07,164.94c1.44-4.45.29-8.83-1.57-10.62a3.85,3.85,0,0,0-1.81-.62" />
      <path class="BUNTAI_TURTLE_BODY_TURTLE_BODY_45_cls-10" d="M272.54,158.9a13,13,0,0,1,1.5,5.74s-.24,3.62,2.28,2.66" />
      <path class="BUNTAI_TURTLE_BODY_TURTLE_BODY_45_cls-10" d="M284.23,152.21s-1.92,2.71-4.74,2.11" />
      <path class="BUNTAI_TURTLE_BODY_TURTLE_BODY_45_cls-1" d="M102.71,375.65S79,416.18,95.49,451.25s55.79,36.12,55.79,36.12" />
      <path class="BUNTAI_TURTLE_BODY_TURTLE_BODY_45_cls-1" d="M93.12,399.58s-2-4.78-1.84-19" />
      <path class="BUNTAI_TURTLE_BODY_TURTLE_BODY_45_cls-1" d="M313.52,375.65s23.69,40.53,7.22,75.6S265,487.37,265,487.37" />
      <path class="BUNTAI_TURTLE_BODY_TURTLE_BODY_45_cls-1" d="M323.11,399.58s2-4.78,1.84-19" />
    </g>
  </g>
</svg>