<svg xmlns="http://www.w3.org/2000/svg" viewBox="0 0 432 432">
  <defs>
    <style>.BUNTAI_TURTLE_JEWELRY_TURTLE_JEWELRY_30_cls-1{isolation:isolate;}.BUNTAI_TURTLE_JEWELRY_TURTLE_JEWELRY_30_cls-2,.BUNTAI_TURTLE_JEWELRY_TURTLE_JEWELRY_30_cls-6{fill:none;stroke:#000;stroke-linecap:round;stroke-linejoin:round;}.BUNTAI_TURTLE_JEWELRY_TURTLE_JEWELRY_30_cls-2{stroke-width:1.06px;}.BUNTAI_TURTLE_JEWELRY_TURTLE_JEWELRY_30_cls-3{fill:#c7a858;}.BUNTAI_TURTLE_JEWELRY_TURTLE_JEWELRY_30_cls-4{fill:#cbde8d;}.BUNTAI_TURTLE_JEWELRY_TURTLE_JEWELRY_30_cls-5{fill:#91b90e;}.BUNTAI_TURTLE_JEWELRY_TURTLE_JEWELRY_30_cls-6{stroke-width:1.02px;}.BUNTAI_TURTLE_JEWELRY_TURTLE_JEWELRY_30_cls-7{opacity:0.43;mix-blend-mode:multiply;}</style>
  </defs>
  <g class="BUNTAI_TURTLE_JEWELRY_TURTLE_JEWELRY_30_cls-1">
    <g id="jewelries">
      <line class="BUNTAI_TURTLE_JEWELRY_TURTLE_JEWELRY_30_cls-2" x1="155.99" y1="178.95" x2="155.99" y2="172.73" />
      <path class="BUNTAI_TURTLE_JEWELRY_TURTLE_JEWELRY_30_cls-3" d="M156,172.73c-1.68,0-1.4-2.29-1.4-2.29h0a4.57,4.57,0,0,0,2.06.43,1.85,1.85,0,0,0,.92-.23C157.57,170.78,157.6,172.73,156,172.73Z" />
      <path class="BUNTAI_TURTLE_JEWELRY_TURTLE_JEWELRY_30_cls-3" d="M158.87,163.7c.61,2.05.48,6-1.31,6.94a1.85,1.85,0,0,1-.92.23,4.57,4.57,0,0,1-2.06-.43c-1.54-.75-2.32-2.49-2.21-5.13a8.42,8.42,0,0,1,.47-2.58,5.53,5.53,0,0,1,1.5-2.33,1.91,1.91,0,0,1,1.37-.57,2.34,2.34,0,0,1,1.67,1,3,3,0,0,1-.74.14h0a4.23,4.23,0,0,0-1.88,2.89c-.47,2.25.32,4.77,1.45,4.77s1.28-2.93,1.2-4.49h.09A5.29,5.29,0,0,0,158.87,163.7Z" />
      <path class="BUNTAI_TURTLE_JEWELRY_TURTLE_JEWELRY_30_cls-3" d="M153.88,152.76c.39,2.05.6,2.83.6,2.83s-2.06,1.78-.88,4a2.37,2.37,0,0,0,.74.83,5.53,5.53,0,0,0-1.5,2.33A6,6,0,0,1,153.88,152.76Z" />
      <path class="BUNTAI_TURTLE_JEWELRY_TURTLE_JEWELRY_30_cls-3" d="M161.56,160.08a4.82,4.82,0,0,1-2.69,3.62,5.74,5.74,0,0,1-1.4.43h-.1a5.13,5.13,0,0,1-2.65-.28,4.24,4.24,0,0,1,1.88-2.9h0a3.6,3.6,0,0,0,.74-.15,2.17,2.17,0,0,0,1.56-1.35,1.81,1.81,0,0,0,.09-.58c0-2.39-.93-2.5-.93-2.5a2.76,2.76,0,0,1-.12-.33,3.07,3.07,0,0,1,2.39-2A8.17,8.17,0,0,1,161.56,160.08Z" />
      <path class="BUNTAI_TURTLE_JEWELRY_TURTLE_JEWELRY_30_cls-2" d="M152.84,162.73a6,6,0,0,1,1-10c.41,1.7.6,2.83.6,2.83s-2.06,1.78-.88,4a2.37,2.37,0,0,0,.74.83" />
      <path class="BUNTAI_TURTLE_JEWELRY_TURTLE_JEWELRY_30_cls-2" d="M154.72,163.86a5.13,5.13,0,0,0,2.65.28h.1a5.74,5.74,0,0,0,1.4-.43,4.82,4.82,0,0,0,2.69-3.62,8.17,8.17,0,0,0-1.19-6" />
      <path class="BUNTAI_TURTLE_JEWELRY_TURTLE_JEWELRY_30_cls-2" d="M158,156.05a2.76,2.76,0,0,0,.12.33s.9.11.93,2.5a1.81,1.81,0,0,1-.09.58,2.17,2.17,0,0,1-1.56,1.35,3.6,3.6,0,0,1-.74.15" />
      <path class="BUNTAI_TURTLE_JEWELRY_TURTLE_JEWELRY_30_cls-2" d="M158.87,163.7c.61,2.05.48,6-1.31,6.94a1.85,1.85,0,0,1-.92.23,4.57,4.57,0,0,1-2.06-.43c-1.54-.75-2.32-2.49-2.21-5.13a8.42,8.42,0,0,1,.47-2.58,5.53,5.53,0,0,1,1.5-2.33,1.91,1.91,0,0,1,1.37-.57,2.34,2.34,0,0,1,1.67,1" />
      <path class="BUNTAI_TURTLE_JEWELRY_TURTLE_JEWELRY_30_cls-2" d="M157.37,164.14c.08,1.56.06,4.49-1.2,4.49s-1.92-2.52-1.45-4.77A4.23,4.23,0,0,1,156.6,161h0" />
      <path class="BUNTAI_TURTLE_JEWELRY_TURTLE_JEWELRY_30_cls-2" d="M154.58,170.44s-.28,2.29,1.4,2.29,1.59-1.95,1.58-2.09h0" />
      <path class="BUNTAI_TURTLE_JEWELRY_TURTLE_JEWELRY_30_cls-2" d="M158.16,158.51a3,3,0,0,1-.35-1.44,3.16,3.16,0,0,1,.17-1,3.07,3.07,0,0,1,2.39-2,2.87,2.87,0,0,1,.52-.05,2.1,2.1,0,0,1,2.08,1.55" />
      <path class="BUNTAI_TURTLE_JEWELRY_TURTLE_JEWELRY_30_cls-4" d="M155.87,231.87c.92,5.59,1.35,7.24.21,12.14,0,0,1.82-2,4.2-5.22A51.74,51.74,0,0,0,155.87,231.87Z" />
      <path class="BUNTAI_TURTLE_JEWELRY_TURTLE_JEWELRY_30_cls-4" d="M155.63,230.21a10.83,10.83,0,0,0-5.89,5.6,86.78,86.78,0,0,0,6.34,8.2c1.14-4.9.71-6.55-.21-12.14C155.79,231.35,155.71,230.78,155.63,230.21Z" />
      <path class="BUNTAI_TURTLE_JEWELRY_TURTLE_JEWELRY_30_cls-4" d="M155.24,225.6c.09,1.61.22,3.18.39,4.61.08.57.16,1.14.24,1.66a51.74,51.74,0,0,1,4.41,6.92c1-1.33,2.07-2.85,3.16-4.52C161.41,229.51,155.24,225.6,155.24,225.6Z" />
      <path class="BUNTAI_TURTLE_JEWELRY_TURTLE_JEWELRY_30_cls-4" d="M155.11,220.74c0,1.6,0,3.25.13,4.86,0,0,6.17,3.91,8.2,8.67,1-1.51,2-3.13,2.93-4.82-.43-3.25-2.36-4.48-5.81-6.76a19.15,19.15,0,0,1-5.37-5.52C155.14,218.31,155.11,219.5,155.11,220.74Z" />
      <path class="BUNTAI_TURTLE_JEWELRY_TURTLE_JEWELRY_30_cls-4" d="M155.11,220.74s-6.93,3.14-8.68,9.86c1.07,1.85,2.21,3.61,3.31,5.21a10.83,10.83,0,0,1,5.89-5.6c-.17-1.43-.3-3-.39-4.61s-.13-3.26-.13-4.86Z" />
      <path class="BUNTAI_TURTLE_JEWELRY_TURTLE_JEWELRY_30_cls-4" d="M148.88,214.15c-4.6,1.37-6.15,2.07-7.33,5a36.37,36.37,0,0,0,2.28,6.43S144.69,218.36,148.88,214.15Z" />
      <path class="BUNTAI_TURTLE_JEWELRY_TURTLE_JEWELRY_30_cls-4" d="M148.88,214.15c-4.19,4.21-5,11.45-5,11.45a56.32,56.32,0,0,0,2.6,5c1.75-6.72,8.68-9.86,8.68-9.86h0c0-1.24,0-2.43.08-3.57a39.45,39.45,0,0,1,.43-4.41c.15-.94.26-1.92.34-2.9-.41.66-2,2.8-6.35,4.07Z" />
      <path class="BUNTAI_TURTLE_JEWELRY_TURTLE_JEWELRY_30_cls-4" d="M170.82,218.23a10.41,10.41,0,0,0-7.51-5A25.14,25.14,0,0,1,169,224a31.63,31.63,0,0,0,1.8-5.71Z" />
      <path class="BUNTAI_TURTLE_JEWELRY_TURTLE_JEWELRY_30_cls-4" d="M156,209.86c-.08,1-.19,2-.34,2.9a39.45,39.45,0,0,0-.43,4.41,19.15,19.15,0,0,0,5.37,5.52c3.45,2.28,5.38,3.51,5.81,6.76A51.47,51.47,0,0,0,169,224h0a25.14,25.14,0,0,0-5.71-10.69h0c-.62-.13-1.28-.24-1.94-.33a7.17,7.17,0,0,1-5.29-3.27Z" />
      <path class="BUNTAI_TURTLE_JEWELRY_TURTLE_JEWELRY_30_cls-4" d="M156.17,188.81c.77.79,6.15,6.51,2.94,11,0,0,5.65,1.67,11.36,9.09-2.94-10.22-13.14-19.15-14.29-20.12Z" />
      <path class="BUNTAI_TURTLE_JEWELRY_TURTLE_JEWELRY_30_cls-4" d="M156,209.86l.12-.21a7.17,7.17,0,0,0,5.29,3.27c.66.09,1.32.2,1.94.33h0a10.41,10.41,0,0,1,7.51,5,20.07,20.07,0,0,0,.43-4,19.45,19.45,0,0,0-.78-5.28c-5.71-7.42-11.36-9.09-11.36-9.09a8.44,8.44,0,0,1-3,2.5A67.49,67.49,0,0,1,156,209.86Z" />
      <path class="BUNTAI_TURTLE_JEWELRY_TURTLE_JEWELRY_30_cls-4" d="M140.89,214.21a20.7,20.7,0,0,0,.66,5c1.18-2.95,2.73-3.65,7.33-5l.73-.22c4.32-1.27,5.94-3.41,6.35-4.07a67.49,67.49,0,0,0,.12-7.52,8.4,8.4,0,0,1-3-2.5s-5.33.52-10.56,6.75A20.67,20.67,0,0,0,140.89,214.21Z" />
      <path class="BUNTAI_TURTLE_JEWELRY_TURTLE_JEWELRY_30_cls-4" d="M156,188.81c-1.05.9-9.84,8.56-13.49,17.78,5.23-6.23,10.56-6.75,10.56-6.75-3.21-4.52,2.17-10.24,2.94-11Z" />
      <path class="BUNTAI_TURTLE_JEWELRY_TURTLE_JEWELRY_30_cls-3" d="M156,188.81c-.77.79-6.15,6.51-2.94,11a8.4,8.4,0,0,0,3,2.5,8.44,8.44,0,0,0,3-2.5c3.21-4.52-2.17-10.24-2.94-11H156Z" />
      <path class="BUNTAI_TURTLE_JEWELRY_TURTLE_JEWELRY_30_cls-5" d="M156.08,182c-1.17,0-2.12,1.53-2.12,3.41a4,4,0,0,0,1.21,3.08h0a2,2,0,0,0,.9.22,2.11,2.11,0,0,0,.88-.21h0a4,4,0,0,0,1.21-3.08C158.19,183.54,157.24,182,156.08,182Z" />
      <path class="BUNTAI_TURTLE_JEWELRY_TURTLE_JEWELRY_30_cls-3" d="M153,183.84c0,2.19.9,4,2.13,4.66a4,4,0,0,1-1.21-3.08c0-1.88.95-3.41,2.12-3.41s2.11,1.53,2.11,3.41A4,4,0,0,1,157,188.5c1.23-.61,2.13-2.47,2.13-4.66,0-2.7-1.36-4.89-3-4.89S153,181.14,153,183.84Z" />
      <path class="BUNTAI_TURTLE_JEWELRY_TURTLE_JEWELRY_30_cls-6" d="M169,224a51.47,51.47,0,0,1-2.65,5.5c-.94,1.69-1.93,3.31-2.93,4.82-1.09,1.67-2.18,3.19-3.16,4.52-2.38,3.19-4.2,5.22-4.2,5.22a86.78,86.78,0,0,1-6.34-8.2c-1.1-1.6-2.24-3.36-3.31-5.21a56.32,56.32,0,0,1-2.6-5,36.37,36.37,0,0,1-2.28-6.43,19,19,0,0,1,.93-12.58c3.65-9.22,12.44-16.88,13.49-17.78l.06-.05h0" />
      <path class="BUNTAI_TURTLE_JEWELRY_TURTLE_JEWELRY_30_cls-6" d="M170.82,218.24A31.63,31.63,0,0,1,169,224" />
      <path class="BUNTAI_TURTLE_JEWELRY_TURTLE_JEWELRY_30_cls-6" d="M156.11,188.75h0l.06.05c1.15,1,11.35,9.9,14.29,20.12a19.45,19.45,0,0,1,.78,5.28,20.07,20.07,0,0,1-.43,4" />
      <path class="BUNTAI_TURTLE_JEWELRY_TURTLE_JEWELRY_30_cls-6" d="M156.08,188.72l0,0h0l0,.05c.77.79,6.15,6.51,2.94,11a8.44,8.44,0,0,1-3,2.5,8.4,8.4,0,0,1-3-2.5c-3.21-4.52,2.17-10.24,2.94-11l.05-.05h0Z" />
      <path class="BUNTAI_TURTLE_JEWELRY_TURTLE_JEWELRY_30_cls-6" d="M156.08,202.34a67.49,67.49,0,0,1-.12,7.52c-.08,1-.19,2-.34,2.9a39.45,39.45,0,0,0-.43,4.41c-.05,1.14-.08,2.33-.08,3.57,0,1.6,0,3.25.13,4.86s.22,3.18.39,4.61c.08.57.16,1.14.24,1.66.92,5.59,1.35,7.24.21,12.14" />
      <path class="BUNTAI_TURTLE_JEWELRY_TURTLE_JEWELRY_30_cls-6" d="M159.11,199.84s5.65,1.67,11.36,9.09v0" />
      <path class="BUNTAI_TURTLE_JEWELRY_TURTLE_JEWELRY_30_cls-6" d="M163.31,213.25c-.62-.13-1.28-.24-1.94-.33a7.17,7.17,0,0,1-5.29-3.27l-.12.21c-.41.66-2,2.8-6.35,4.07l-.73.22c-4.6,1.37-6.15,2.07-7.33,5" />
      <path class="BUNTAI_TURTLE_JEWELRY_TURTLE_JEWELRY_30_cls-6" d="M170.82,218.24h0a10.41,10.41,0,0,0-7.51-5" />
      <path class="BUNTAI_TURTLE_JEWELRY_TURTLE_JEWELRY_30_cls-6" d="M169,224h0a25.14,25.14,0,0,0-5.71-10.69h0" />
      <path class="BUNTAI_TURTLE_JEWELRY_TURTLE_JEWELRY_30_cls-6" d="M155.19,217.17a19.15,19.15,0,0,0,5.37,5.52c3.45,2.28,5.38,3.51,5.81,6.76" />
      <path class="BUNTAI_TURTLE_JEWELRY_TURTLE_JEWELRY_30_cls-6" d="M155.24,225.6s6.17,3.91,8.2,8.67" />
      <path class="BUNTAI_TURTLE_JEWELRY_TURTLE_JEWELRY_30_cls-6" d="M155.87,231.87a51.74,51.74,0,0,1,4.41,6.92" />
      <path class="BUNTAI_TURTLE_JEWELRY_TURTLE_JEWELRY_30_cls-6" d="M153,199.84s-5.33.52-10.56,6.75" />
      <path class="BUNTAI_TURTLE_JEWELRY_TURTLE_JEWELRY_30_cls-6" d="M143.83,225.6s.86-7.24,5-11.45" />
      <path class="BUNTAI_TURTLE_JEWELRY_TURTLE_JEWELRY_30_cls-6" d="M155.11,220.74s-6.93,3.14-8.68,9.86" />
      <path class="BUNTAI_TURTLE_JEWELRY_TURTLE_JEWELRY_30_cls-6" d="M155.63,230.21a10.83,10.83,0,0,0-5.89,5.6" />
      <path class="BUNTAI_TURTLE_JEWELRY_TURTLE_JEWELRY_30_cls-6" d="M157,188.5c1.23-.61,2.13-2.47,2.13-4.66,0-2.7-1.36-4.89-3-4.89s-3,2.19-3,4.89c0,2.19.9,4,2.13,4.66" />
      <path class="BUNTAI_TURTLE_JEWELRY_TURTLE_JEWELRY_30_cls-6" d="M155.18,188.5a2,2,0,0,0,.9.22,2.11,2.11,0,0,0,.88-.21" />
      <path class="BUNTAI_TURTLE_JEWELRY_TURTLE_JEWELRY_30_cls-6" d="M157,188.5a4,4,0,0,0,1.21-3.08c0-1.88-.95-3.41-2.11-3.41s-2.12,1.53-2.12,3.41a4,4,0,0,0,1.21,3.08h0a1.38,1.38,0,0,0,.79.31h.21a1.38,1.38,0,0,0,.78-.3Z" />
      <g class="BUNTAI_TURTLE_JEWELRY_TURTLE_JEWELRY_30_cls-7">
        <path d="M156.08,179a3.24,3.24,0,0,0,0,3.06c-.76,3.55-.44,5.51.1,6.8-.92,7.76-1.18,10.5.29,9.62a3.72,3.72,0,0,0,1.72-2.38s1.48,3.26-.3,5.1c-1.81,1.19-.36,4-.42,8.36s-.25,10.29-.21,13.68.15,9,.15,11.71a64.66,64.66,0,0,1-1.24,8.7,48.39,48.39,0,0,1-11.87-17c-4-10.09-4.9-13.23-1.43-21s12.37-16,12.37-16l.34-.87s-1.83-.21-2.13-3.21S153.43,179.64,156.08,179Z" />
      </g>
    </g>
  </g>
</svg>