<svg id="jewelries" xmlns="http://www.w3.org/2000/svg" viewBox="0 0 432 432">
  <defs>
    <style>.BUNTAI_TURTLE_JEWELRY_TURTLE_JEWELRY_2_cls-1{fill:#39b54a;}.BUNTAI_TURTLE_JEWELRY_TURTLE_JEWELRY_2_cls-2{fill:#c7a858;}.BUNTAI_TURTLE_JEWELRY_TURTLE_JEWELRY_2_cls-3{fill:none;stroke:#000;stroke-linecap:round;stroke-linejoin:round;}</style>
  </defs>
  <path class="BUNTAI_TURTLE_JEWELRY_TURTLE_JEWELRY_2_cls-1" d="M177.81,176.86c0,5.23-2.64,9.47-5.9,9.47s-5.91-4.24-5.91-9.47,2.64-9.48,5.91-9.48S177.81,171.62,177.81,176.86Z" />
  <path class="BUNTAI_TURTLE_JEWELRY_TURTLE_JEWELRY_2_cls-2" d="M171.91,164.78c-4.16,0-7.54,5.4-7.54,12.08s3.38,12.08,7.54,12.08,7.53-5.4,7.53-12.08S176.07,164.78,171.91,164.78Zm0,21.55c-3.27,0-5.91-4.24-5.91-9.47s2.64-9.48,5.91-9.48,5.9,4.25,5.9,9.48S175.17,186.33,171.91,186.33Z" />
  <ellipse class="BUNTAI_TURTLE_JEWELRY_TURTLE_JEWELRY_2_cls-2" cx="171.91" cy="162.75" rx="3.15" ry="2.03" />
  <path class="BUNTAI_TURTLE_JEWELRY_TURTLE_JEWELRY_2_cls-2" d="M171.82,150c-2.22,0-1.86-3-1.86-3h0a6,6,0,0,0,2.73.58,2.56,2.56,0,0,0,1.22-.3C173.91,147.45,174,150,171.82,150Z" />
  <path class="BUNTAI_TURTLE_JEWELRY_TURTLE_JEWELRY_2_cls-2" d="M175.63,138.1c.82,2.7.64,7.87-1.72,9.17a2.56,2.56,0,0,1-1.22.3A6,6,0,0,1,170,147c-2-1-3.05-3.28-2.92-6.78a11.32,11.32,0,0,1,.63-3.41,7.26,7.26,0,0,1,2-3.07,2.54,2.54,0,0,1,1.81-.75,3.09,3.09,0,0,1,2.21,1.3,4,4,0,0,1-1,.18h-.06a5.63,5.63,0,0,0-2.48,3.82c-.62,3,.42,6.31,1.92,6.31,1.67,0,1.69-3.88,1.58-5.93l.13,0A7.57,7.57,0,0,0,175.63,138.1Z" />
  <path class="BUNTAI_TURTLE_JEWELRY_TURTLE_JEWELRY_2_cls-2" d="M170,123.51a9.1,9.1,0,0,1-.14,3.86s-2.71,2.36-1.16,5.27a3.12,3.12,0,0,0,1,1.09,7.26,7.26,0,0,0-2,3.07C164.07,133.62,163.78,126.13,170,123.51Z" />
  <path class="BUNTAI_TURTLE_JEWELRY_TURTLE_JEWELRY_2_cls-2" d="M179.19,133.31a6.42,6.42,0,0,1-3.56,4.79,7.16,7.16,0,0,1-1.85.56l-.13,0a6.87,6.87,0,0,1-3.5-.37,5.62,5.62,0,0,1,2.48-3.83h.06a4.59,4.59,0,0,0,1-.19,2.89,2.89,0,0,0,2.06-1.79,2.39,2.39,0,0,0,.12-.77c0-3.15-1.24-3.3-1.24-3.3s-.07-.17-.15-.43a4.06,4.06,0,0,1,3.15-2.65A10.76,10.76,0,0,1,179.19,133.31Z" />
  <path class="BUNTAI_TURTLE_JEWELRY_TURTLE_JEWELRY_2_cls-3" d="M167.67,136.8c-3.6-3.18-4.09-10.61,2.3-13.29a6.68,6.68,0,0,1-.14,3.86s-2.71,2.36-1.16,5.27a3.12,3.12,0,0,0,1,1.09" />
  <path class="BUNTAI_TURTLE_JEWELRY_TURTLE_JEWELRY_2_cls-3" d="M170.15,138.31a6.87,6.87,0,0,0,3.5.37l.13,0a7.16,7.16,0,0,0,1.85-.56,6.42,6.42,0,0,0,3.56-4.79,10.76,10.76,0,0,0-1.58-8" />
  <path class="BUNTAI_TURTLE_JEWELRY_TURTLE_JEWELRY_2_cls-3" d="M174.46,128c.08.26.15.43.15.43s1.2.15,1.24,3.3a2.39,2.39,0,0,1-.12.77,2.89,2.89,0,0,1-2.06,1.79,4.59,4.59,0,0,1-1,.19" />
  <path class="BUNTAI_TURTLE_JEWELRY_TURTLE_JEWELRY_2_cls-3" d="M175.63,138.1c.82,2.7.64,7.87-1.72,9.17a2.56,2.56,0,0,1-1.22.3A6,6,0,0,1,170,147c-2-1-3.05-3.28-2.92-6.78a11.32,11.32,0,0,1,.63-3.41,7.26,7.26,0,0,1,2-3.07,2.54,2.54,0,0,1,1.81-.75,3.09,3.09,0,0,1,2.21,1.3" />
  <path class="BUNTAI_TURTLE_JEWELRY_TURTLE_JEWELRY_2_cls-3" d="M173.65,138.68c.11,2,.09,5.93-1.58,5.93-1.5,0-2.54-3.34-1.92-6.31a5.63,5.63,0,0,1,2.48-3.82h.06" />
  <path class="BUNTAI_TURTLE_JEWELRY_TURTLE_JEWELRY_2_cls-3" d="M170,147s-.36,3,1.86,3,2.09-2.58,2.09-2.76h0" />
  <ellipse class="BUNTAI_TURTLE_JEWELRY_TURTLE_JEWELRY_2_cls-3" cx="171.91" cy="162.75" rx="3.15" ry="2.03" />
  <path class="BUNTAI_TURTLE_JEWELRY_TURTLE_JEWELRY_2_cls-3" d="M179.44,176.86c0,6.67-3.37,12.08-7.53,12.08s-7.54-5.41-7.54-12.08,3.38-12.09,7.54-12.09S179.44,170.18,179.44,176.86Z" />
  <path class="BUNTAI_TURTLE_JEWELRY_TURTLE_JEWELRY_2_cls-3" d="M177.81,176.86c0,5.23-2.64,9.47-5.9,9.47s-5.91-4.24-5.91-9.47,2.64-9.48,5.91-9.48S177.81,171.62,177.81,176.86Z" />
  <line class="BUNTAI_TURTLE_JEWELRY_TURTLE_JEWELRY_2_cls-3" x1="171.82" y1="150.03" x2="171.82" y2="160.72" />
  <path class="BUNTAI_TURTLE_JEWELRY_TURTLE_JEWELRY_2_cls-3" d="M172.43,169.39s3.55,1.3,3.39,8.05" />
  <path class="BUNTAI_TURTLE_JEWELRY_TURTLE_JEWELRY_2_cls-3" d="M174.69,131.23a4.15,4.15,0,0,1-.46-1.89,4.05,4.05,0,0,1,3.38-4,3.85,3.85,0,0,1,.69-.06,2.77,2.77,0,0,1,2.75,2" />
</svg>