<svg id="jewelries" xmlns="http://www.w3.org/2000/svg" viewBox="0 0 432 432">
  <defs>
    <style>.BUNTAI_TURTLE_JEWELRY_TURTLE_JEWELRY_20_cls-1{fill:#754c24;}.BUNTAI_TURTLE_JEWELRY_TURTLE_JEWELRY_20_cls-1,.BUNTAI_TURTLE_JEWELRY_TURTLE_JEWELRY_20_cls-3{stroke:#000;stroke-linecap:round;stroke-linejoin:round;stroke-width:0.63px;}.BUNTAI_TURTLE_JEWELRY_TURTLE_JEWELRY_20_cls-2{fill:#666;}.BUNTAI_TURTLE_JEWELRY_TURTLE_JEWELRY_20_cls-3{fill:none;}.BUNTAI_TURTLE_JEWELRY_TURTLE_JEWELRY_20_cls-4{fill:#333;}</style>
  </defs>
  <path class="BUNTAI_TURTLE_JEWELRY_TURTLE_JEWELRY_20_cls-1" d="M255.46,297.76c0,.11-.69,2.37-.72,2.49a42.23,42.23,0,0,1-2.31,7c-5.47,13.16-17.34,30.67-43,40.38h0l-1.27.47h0l-.79.28a1,1,0,0,1-.3.05l-.21,0-1.1-.28h-.07l-1-.25h0l-.24-.07h0c-24.21-6.75-36.42-24.1-42.43-37.68-2.71-6.13-4.06-12.16-5.5-16.95-.33-1.08,0-4.8,3.17-3.21-1,.71-1.69,1.56-1.57,2.14a89.19,89.19,0,0,0,5.58,17.35c6,13.41,18.12,30.62,42.43,36.93l.85.22.69-.25h0l.07,0,1.1-.41h0c24.94-9.49,36.5-26.54,41.82-39.36a42.39,42.39,0,0,0,2.8-9c.12,0-.28-.34-1-.74C254.23,295.23,255.78,296.31,255.46,297.76Z" />
  <path class="BUNTAI_TURTLE_JEWELRY_TURTLE_JEWELRY_20_cls-2" d="M206.28,370.79l3,9.6-2.44.29L205.31,371a5.6,5.6,0,0,0,.62-.1h0Z" />
  <path class="BUNTAI_TURTLE_JEWELRY_TURTLE_JEWELRY_20_cls-2" d="M207.8,370.11l5.79,8.43-2.06.87-2.23,1h0l-3-9.6a6.12,6.12,0,0,0,1.23-.5Z" />
  <path class="BUNTAI_TURTLE_JEWELRY_TURTLE_JEWELRY_20_cls-2" d="M216.8,375.74l-1.64,1.37-1.57,1.43-5.79-8.43a5.12,5.12,0,0,0,1-.79,1.14,1.14,0,0,0,.11-.11Z" />
  <path class="BUNTAI_TURTLE_JEWELRY_TURTLE_JEWELRY_20_cls-2" d="M218.86,372.29l-1.1,1.71-1,1.74-7.9-6.53a5.29,5.29,0,0,0,.79-1.15,2,2,0,0,0,.1-.21Z" />
  <path class="BUNTAI_TURTLE_JEWELRY_TURTLE_JEWELRY_20_cls-2" d="M220.16,368.34l-.64,1.81-.66,2.14-9.07-4.44a6.39,6.39,0,0,0,.38-1.12l.06-.26Z" />
  <path class="BUNTAI_TURTLE_JEWELRY_TURTLE_JEWELRY_20_cls-2" d="M220.32,364.92l-.23,1.46.07,2-9.93-1.87a8.19,8.19,0,0,0,.14-1.55Z" />
  <path class="BUNTAI_TURTLE_JEWELRY_TURTLE_JEWELRY_20_cls-2" d="M220.09,363.46l.23,1.46h-9.95a8.3,8.3,0,0,0-.14-1.56l9.93-1.86Z" />
  <path class="BUNTAI_TURTLE_JEWELRY_TURTLE_JEWELRY_20_cls-2" d="M219.52,359.68l.64,1.82-9.93,1.86-.06-.26a6.68,6.68,0,0,0-.38-1.12l9.07-4.44Z" />
  <path class="BUNTAI_TURTLE_JEWELRY_TURTLE_JEWELRY_20_cls-2" d="M217.76,355.83l1.1,1.71L209.79,362a2,2,0,0,0-.1-.21,5.54,5.54,0,0,0-.79-1.15l7.9-6.53Z" />
  <path class="BUNTAI_TURTLE_JEWELRY_TURTLE_JEWELRY_20_cls-2" d="M216.8,354.09l-7.9,6.53-.11-.11a5.12,5.12,0,0,0-1-.79l5.79-8.43,1.57,1.43Z" />
  <path class="BUNTAI_TURTLE_JEWELRY_TURTLE_JEWELRY_20_cls-2" d="M213.59,351.29l-5.79,8.43-.29-.17a6.88,6.88,0,0,0-1.23-.51l3-9.6h0l2.23,1Z" />
  <path class="BUNTAI_TURTLE_JEWELRY_TURTLE_JEWELRY_20_cls-2" d="M209.3,349.44l-3,9.6-.35-.09h0a4.67,4.67,0,0,0-.62-.11l1.55-9.68Z" />
  <path class="BUNTAI_TURTLE_JEWELRY_TURTLE_JEWELRY_20_cls-3" d="M205.93,359a4.67,4.67,0,0,0-.62-.11l1.55-9.68,2.44.28h0l2.23,1,2.06.87,1.57,1.43,1.64,1.37,1,1.74,1.1,1.71.66,2.14.64,1.82-.07,2,.23,1.46" />
  <path class="BUNTAI_TURTLE_JEWELRY_TURTLE_JEWELRY_20_cls-3" d="M210.37,364.92a8.3,8.3,0,0,0-.14-1.56l-.06-.26a6.68,6.68,0,0,0-.38-1.12,2,2,0,0,0-.1-.21,5.54,5.54,0,0,0-.79-1.15l-.11-.11a5.12,5.12,0,0,0-1-.79l-.29-.17a6.88,6.88,0,0,0-1.23-.51l-.35-.09" />
  <line class="BUNTAI_TURTLE_JEWELRY_TURTLE_JEWELRY_20_cls-3" x1="209.79" y1="361.98" x2="218.86" y2="357.54" />
  <polyline class="BUNTAI_TURTLE_JEWELRY_TURTLE_JEWELRY_20_cls-3" points="208.9 360.63 208.9 360.62 216.8 354.09" />
  <line class="BUNTAI_TURTLE_JEWELRY_TURTLE_JEWELRY_20_cls-3" x1="207.8" y1="359.72" x2="213.59" y2="351.29" />
  <line class="BUNTAI_TURTLE_JEWELRY_TURTLE_JEWELRY_20_cls-3" x1="206.28" y1="359.04" x2="209.3" y2="349.44" />
  <line class="BUNTAI_TURTLE_JEWELRY_TURTLE_JEWELRY_20_cls-3" x1="210.23" y1="363.36" x2="220.16" y2="361.5" />
  <polyline class="BUNTAI_TURTLE_JEWELRY_TURTLE_JEWELRY_20_cls-3" points="205.93 358.95 205.93 358.95 204.84 364.92" />
  <polyline class="BUNTAI_TURTLE_JEWELRY_TURTLE_JEWELRY_20_cls-3" points="210.17 363.1 204.84 364.92 209.69 361.77" />
  <polyline class="BUNTAI_TURTLE_JEWELRY_TURTLE_JEWELRY_20_cls-3" points="208.79 360.51 204.84 364.92 207.5 359.55" />
  <path class="BUNTAI_TURTLE_JEWELRY_TURTLE_JEWELRY_20_cls-3" d="M205.93,370.89a5.6,5.6,0,0,1-.62.1l1.55,9.69,2.44-.29h0l2.23-1,2.06-.87,1.57-1.43,1.64-1.37,1-1.74,1.1-1.71.66-2.14.64-1.81-.07-2,.23-1.46h-9.95a8.19,8.19,0,0,1-.14,1.55l-.06.26a6.39,6.39,0,0,1-.38,1.12,2,2,0,0,1-.1.21,5.29,5.29,0,0,1-.79,1.15,1.14,1.14,0,0,1-.11.11,5.12,5.12,0,0,1-1,.79l-.29.18a6.12,6.12,0,0,1-1.23.5l-.35.09" />
  <line class="BUNTAI_TURTLE_JEWELRY_TURTLE_JEWELRY_20_cls-3" x1="218.86" y1="372.29" x2="209.79" y2="367.85" />
  <polyline class="BUNTAI_TURTLE_JEWELRY_TURTLE_JEWELRY_20_cls-3" points="216.8 375.74 208.9 369.21 208.9 369.21" />
  <line class="BUNTAI_TURTLE_JEWELRY_TURTLE_JEWELRY_20_cls-3" x1="213.59" y1="378.54" x2="207.8" y2="370.11" />
  <line class="BUNTAI_TURTLE_JEWELRY_TURTLE_JEWELRY_20_cls-3" x1="209.3" y1="380.39" x2="206.28" y2="370.79" />
  <line class="BUNTAI_TURTLE_JEWELRY_TURTLE_JEWELRY_20_cls-3" x1="220.16" y1="368.34" x2="210.23" y2="366.47" />
  <polyline class="BUNTAI_TURTLE_JEWELRY_TURTLE_JEWELRY_20_cls-3" points="205.93 370.88 205.93 370.88 204.84 364.92 210.37 364.92" />
  <polyline class="BUNTAI_TURTLE_JEWELRY_TURTLE_JEWELRY_20_cls-3" points="210.17 366.73 204.84 364.92 209.69 368.06" />
  <polyline class="BUNTAI_TURTLE_JEWELRY_TURTLE_JEWELRY_20_cls-3" points="208.79 369.32 204.84 364.92 207.5 370.29" />
  <path class="BUNTAI_TURTLE_JEWELRY_TURTLE_JEWELRY_20_cls-4" d="M205,346l1.22.33s1.27-.71,1.8.29.27,1.73-.4,2a1.47,1.47,0,0,1-1.87-.51,2.58,2.58,0,0,0-1.18-.26s.49,1.88,2.12,2.05a2.4,2.4,0,0,0,2.79-2.19,2.32,2.32,0,0,0-1.31-2.43A2.48,2.48,0,0,0,205,346Z" />
  <path class="BUNTAI_TURTLE_JEWELRY_TURTLE_JEWELRY_20_cls-3" d="M204.51,347.81a2.5,2.5,0,0,0,2.22,2.18H207a2.45,2.45,0,0,0,1.66-.64,2.4,2.4,0,0,0,.83-1.72.66.66,0,0,0,0-.14,2.45,2.45,0,0,0-.57-1.58,2.49,2.49,0,0,0-4,.14l1.24.33a1.33,1.33,0,0,1,.79-.25,1.36,1.36,0,0,1,1.37,1.36,1.37,1.37,0,0,1-2.57.65h0Z" />
</svg>