<svg id="jewelries" xmlns="http://www.w3.org/2000/svg" viewBox="0 0 432 432">
  <defs>
    <style>.BUNTAI_TURTLE_JEWELRY_TURTLE_JEWELRY_3_cls-1{fill:#e2cb6e;}.BUNTAI_TURTLE_JEWELRY_TURTLE_JEWELRY_3_cls-1,.BUNTAI_TURTLE_JEWELRY_TURTLE_JEWELRY_3_cls-2{stroke:#000;stroke-linecap:round;stroke-linejoin:round;stroke-width:1.38px;}.BUNTAI_TURTLE_JEWELRY_TURTLE_JEWELRY_3_cls-2{fill:none;}</style>
  </defs>
  <path class="BUNTAI_TURTLE_JEWELRY_TURTLE_JEWELRY_3_cls-1" d="M178.48,136.69a7,7,0,0,1-4,3.71c-6,2.32-12.91-.31-11.49-7.11,1.72-8.26,8.13-10.45,8.13-10.45s-.73.8-1.6,4c-1.34.57-2.93,2-3.77,6.79s7,5.16,8.85,2c.07-.12.14-.24.2-.37a6.87,6.87,0,0,0-.9-7.19,5.58,5.58,0,0,1,1.95-1.82C179.09,129.74,179.8,133.74,178.48,136.69Z" />
  <path class="BUNTAI_TURTLE_JEWELRY_TURTLE_JEWELRY_3_cls-2" d="M173.31,133a5.6,5.6,0,0,1,2.54-6.77,3.57,3.57,0,0,1,4.82,1.86" />
</svg>