<svg id="jewelries" xmlns="http://www.w3.org/2000/svg" viewBox="0 0 432 432">
  <defs>
    <style>.BUNTAI_TURTLE_JEWELRY_TURTLE_JEWELRY_18_cls-1{fill:#754c24;stroke-width:0.65px;}.BUNTAI_TURTLE_JEWELRY_TURTLE_JEWELRY_18_cls-1,.BUNTAI_TURTLE_JEWELRY_TURTLE_JEWELRY_18_cls-6,.BUNTAI_TURTLE_JEWELRY_TURTLE_JEWELRY_18_cls-7{stroke:#000;}.BUNTAI_TURTLE_JEWELRY_TURTLE_JEWELRY_18_cls-1,.BUNTAI_TURTLE_JEWELRY_TURTLE_JEWELRY_18_cls-7{stroke-miterlimit:10;}.BUNTAI_TURTLE_JEWELRY_TURTLE_JEWELRY_18_cls-2{fill:#4d4d4d;}.BUNTAI_TURTLE_JEWELRY_TURTLE_JEWELRY_18_cls-3{fill:#333;}.BUNTAI_TURTLE_JEWELRY_TURTLE_JEWELRY_18_cls-4{fill:#8c6239;}.BUNTAI_TURTLE_JEWELRY_TURTLE_JEWELRY_18_cls-5{fill:#006837;}.BUNTAI_TURTLE_JEWELRY_TURTLE_JEWELRY_18_cls-6,.BUNTAI_TURTLE_JEWELRY_TURTLE_JEWELRY_18_cls-7{fill:none;stroke-width:0.49px;}.BUNTAI_TURTLE_JEWELRY_TURTLE_JEWELRY_18_cls-6{stroke-linecap:round;stroke-linejoin:round;}</style>
  </defs>
  <path class="BUNTAI_TURTLE_JEWELRY_TURTLE_JEWELRY_18_cls-1" d="M262.08,305h0c-6.59,15.36-22.91,40.43-53.27,51.12a1,1,0,0,1-.34.06.93.93,0,0,1-.24,0C178.71,349,164.07,328.42,157,312.37a103,103,0,0,1-5-14c-.61-1.69-.22-4.25,3.28-2.35a8.72,8.72,0,0,0-1.44,1.25,99.63,99.63,0,0,0,5,14.3c6.88,15.54,21.06,35.5,49.51,42.51,29.4-10.45,45.32-34.9,51.74-49.81,0,0-1.62-1.34-2-1.55.36-.46,1.53-1.69,3.66-.1C262.49,303.15,262.21,304.65,262.08,305Z" />
  <path class="BUNTAI_TURTLE_JEWELRY_TURTLE_JEWELRY_18_cls-2" d="M213.44,371.36c1.37,1.21,2.41,7.18-3,7.94s-8.16-5-5-9.9c3.05-4.74,8.95-2.6,9.31-2.46a7.22,7.22,0,0,0-8.39,3.16c-3.52,5.35,3.28,8.91,5.21,6.16s-.47-5.55-3.59-5.92C209.59,369.36,212.07,370.14,213.44,371.36Z" />
  <path class="BUNTAI_TURTLE_JEWELRY_TURTLE_JEWELRY_18_cls-3" d="M219.56,373.18c-.38-4.16-6.47-8.46-11.55-2.84,1.58-1,4.06-.2,5.43,1s2.41,7.18-3,7.94-8.16-5-5-9.9c3.05-4.74,8.95-2.6,9.31-2.46h0a9.25,9.25,0,0,1,2.49,1.05s-.61-5-8.06-5.47c-.41,0-.84,0-1.29,0h-.45c-8.33.32-11.48,9.57-9.09,15.39s9.38,8.05,14.42,6.43S219.93,377.35,219.56,373.18Z" />
  <path class="BUNTAI_TURTLE_JEWELRY_TURTLE_JEWELRY_18_cls-4" d="M209.23,357.53v5c-.41,0-.84,0-1.29,0h-.45v-5a.88.88,0,0,1,0-.16,2.38,2.38,0,0,0,.85.16,2.48,2.48,0,0,0,.86-.16A.86.86,0,0,1,209.23,357.53Z" />
  <path class="BUNTAI_TURTLE_JEWELRY_TURTLE_JEWELRY_18_cls-5" d="M208.36,352.6a2.47,2.47,0,0,1,0,4.93,2.38,2.38,0,0,1-.85-.16,2.46,2.46,0,0,1,.85-4.77Z" />
  <path class="BUNTAI_TURTLE_JEWELRY_TURTLE_JEWELRY_18_cls-6" d="M214.8,367a9.25,9.25,0,0,1,2.49,1.05s-.61-5-8.06-5.47c-.41,0-.84,0-1.29,0h-.45c-8.33.32-11.48,9.57-9.09,15.39s9.38,8.05,14.42,6.43,7.11-7,6.74-11.14-6.47-8.46-11.55-2.84c3.12.37,5.52,3.18,3.59,5.92s-8.73-.81-5.21-6.16a7.22,7.22,0,0,1,8.39-3.16" />
  <path class="BUNTAI_TURTLE_JEWELRY_TURTLE_JEWELRY_18_cls-6" d="M215.65,366.23h0" />
  <path class="BUNTAI_TURTLE_JEWELRY_TURTLE_JEWELRY_18_cls-6" d="M210.48,363.5a6.8,6.8,0,0,1,.1,2.13,15.86,15.86,0,0,1,5.06.6A7.21,7.21,0,0,0,210.48,363.5Z" />
  <path class="BUNTAI_TURTLE_JEWELRY_TURTLE_JEWELRY_18_cls-6" d="M206.34,363.77s-3.74,1.71-4.66,3.83a11,11,0,0,1,2.9,1.59L206,367.4a14.53,14.53,0,0,0-2-1.37l-.72.88a5,5,0,0,1,1.34.76" />
  <path class="BUNTAI_TURTLE_JEWELRY_TURTLE_JEWELRY_18_cls-6" d="M201.07,372.62l1.12.13v2.51H200a22.59,22.59,0,0,1,.39-4.14,21.41,21.41,0,0,1,3,.42,35.59,35.59,0,0,0,0,5.21c-3.05,1-4.14.34-4.14.34s-.88-4.87.93-7.9a13,13,0,0,1,4,1.38" />
  <path class="BUNTAI_TURTLE_JEWELRY_TURTLE_JEWELRY_18_cls-6" d="M214.8,367h0c-.36-.14-6.26-2.28-9.31,2.46-3.15,4.9-.36,10.66,5,9.9s4.33-6.73,3-7.94-3.85-2-5.43-1" />
  <path class="BUNTAI_TURTLE_JEWELRY_TURTLE_JEWELRY_18_cls-6" d="M203.66,377.31a9,9,0,0,1-3.47,1.62c4,3.75,7.33,4.28,7.33,4.28l1.4-2.64s-3.33-1.12-4.37-2.33c-1.27.83-1.45,1.19-1.45,1.19a17.86,17.86,0,0,0,3.05,2.08c.63-.69.63-.86.63-.86" />
  <path class="BUNTAI_TURTLE_JEWELRY_TURTLE_JEWELRY_18_cls-6" d="M209.86,380.26a30.76,30.76,0,0,1-.48,3.06,6.27,6.27,0,0,0,4.69-1.53,8.33,8.33,0,0,0-.81-1.89A33.08,33.08,0,0,1,209.86,380.26Z" />
  <path class="BUNTAI_TURTLE_JEWELRY_TURTLE_JEWELRY_18_cls-6" d="M215.31,371.93a6.64,6.64,0,0,0-3.51-2.28,5.43,5.43,0,0,1,4.52.3A9.48,9.48,0,0,0,215.31,371.93Z" />
  <path class="BUNTAI_TURTLE_JEWELRY_TURTLE_JEWELRY_18_cls-6" d="M217.57,371.12a6.78,6.78,0,0,0-2.23,2.64,9.31,9.31,0,0,1-.55,3.77,5.44,5.44,0,0,1-.73,1.16,10.37,10.37,0,0,1,1.76,2.21s3.4-2.42,2.41-7.77a3.53,3.53,0,0,0-2,.63,14.24,14.24,0,0,1-.72,3.94.56.56,0,0,0-.05.08,6.56,6.56,0,0,0,1.06.68" />
  <path class="BUNTAI_TURTLE_JEWELRY_TURTLE_JEWELRY_18_cls-6" d="M207.51,357.37a2.36,2.36,0,1,1,.85.16A2.38,2.38,0,0,1,207.51,357.37Z" />
  <path class="BUNTAI_TURTLE_JEWELRY_TURTLE_JEWELRY_18_cls-7" d="M207.49,362.5h0v-5a.88.88,0,0,1,0-.16" />
  <path class="BUNTAI_TURTLE_JEWELRY_TURTLE_JEWELRY_18_cls-7" d="M209.22,357.37a.86.86,0,0,1,0,.16v5" />
</svg>