<svg id="jewelries" xmlns="http://www.w3.org/2000/svg" viewBox="0 0 432 432">
  <defs>
    <style>.BUNTAI_TURTLE_JEWELRY_TURTLE_JEWELRY_14_cls-1{fill:#754c24;stroke-miterlimit:10;stroke-width:1.42px;}.BUNTAI_TURTLE_JEWELRY_TURTLE_JEWELRY_14_cls-1,.BUNTAI_TURTLE_JEWELRY_TURTLE_JEWELRY_14_cls-4{stroke:#000;}.BUNTAI_TURTLE_JEWELRY_TURTLE_JEWELRY_14_cls-2{fill:#22b573;}.BUNTAI_TURTLE_JEWELRY_TURTLE_JEWELRY_14_cls-3{fill:#c7a858;}.BUNTAI_TURTLE_JEWELRY_TURTLE_JEWELRY_14_cls-4{fill:none;stroke-linecap:round;stroke-linejoin:round;stroke-width:0.76px;}</style>
  </defs>
  <path class="BUNTAI_TURTLE_JEWELRY_TURTLE_JEWELRY_14_cls-1" d="M206,362.54l-.08,0-.54.19-.45.16-.43.14h-.08l-.31.11a1,1,0,0,1-.3.05h-.19a.55.55,0,0,1-.18,0h-.06l-.07,0-.43-.1-.93-.22-.55-.14-.5-.13-.1,0c-1-.24-1.91-.5-2.84-.78-30-8.65-45.29-29.17-52.92-45.33a101.37,101.37,0,0,1-5.35-13.87.28.28,0,0,0,0-.06c-.09-.4-.76-3.27,1.32-4.08a4.22,4.22,0,0,1,4.16.86c.12.42-1,1-3,2.11a97.13,97.13,0,0,0,5.07,14.23c7.34,15.51,22,35.16,50.4,43.74h0c1.34.4,2.69.78,4.09,1.13l1.94.47.86-.29Z" />
  <path class="BUNTAI_TURTLE_JEWELRY_TURTLE_JEWELRY_14_cls-1" d="M269.38,300.31l-.43,1.23q-.74,1.88-1.59,3.81c-6.95,15.65-26.35,43.95-58,56L206,362.54l-.08,0c-.11,0-.3.12-.54.19l-.91.31h-.05a4.31,4.31,0,0,1-.61.16h-.19l-.24,0-.07,0c-.5-.11-1.34-.31-1.91-.46l-.6-.15-.1-2.29,1,.24,1.94.47.86-.29,3.72-1.33c31.07-11.72,50.17-39.58,57-54.87.68-1.53,1.3-3,1.85-4.45a27.33,27.33,0,0,0-2.53-1.28c.81-1.55,3.92-1.55,4.8-.45C269.82,299,269.4,300.15,269.38,300.31Z" />
  <path class="BUNTAI_TURTLE_JEWELRY_TURTLE_JEWELRY_14_cls-2" d="M218.52,369.87c1.43,3.7-1.94,8.24-7.54,10.15s-11.3.44-12.74-3.26v0c-1.41-3.7,2-8.22,7.55-10.12s11.26-.46,12.72,3.21h0Z" />
  <path class="BUNTAI_TURTLE_JEWELRY_TURTLE_JEWELRY_14_cls-3" d="M218.19,368.36a4.71,4.71,0,0,1,.31,1.47c-1.46-3.67-7.14-5.11-12.72-3.21s-9,6.42-7.55,10.12a5.36,5.36,0,0,1-.77-1.33c-1-2.66.47-5.77,3.52-8a15.38,15.38,0,0,1,3.77-2l.47-.17a17.37,17.37,0,0,1,1.9-.52,14.8,14.8,0,0,1,3.38-.34C214.16,364.36,217.2,365.82,218.19,368.36Z" />
  <path class="BUNTAI_TURTLE_JEWELRY_TURTLE_JEWELRY_14_cls-3" d="M202.54,355.22a2.77,2.77,0,0,0-1.59,3.64,4.07,4.07,0,0,0,.26.69,48.5,48.5,0,0,0,3.54,5.8,15.38,15.38,0,0,0-3.77,2c-1-1.35-3.83-5.56-3.33-8.26A4.79,4.79,0,0,1,202.54,355.22Z" />
  <path class="BUNTAI_TURTLE_JEWELRY_TURTLE_JEWELRY_14_cls-3" d="M208.22,359.38c-1.21.46-2.45.9-3.72,1.34a3.78,3.78,0,0,0-3.29-1.16,4.88,4.88,0,0,1-.26-.7,2.76,2.76,0,0,1,1.59-3.63,4.33,4.33,0,0,1,1.31.2l.21.08.19.08,0,0a4.79,4.79,0,0,1,.67.39h0l.23.16a13.29,13.29,0,0,1,2.67,2.72l.23.32Z" />
  <path class="BUNTAI_TURTLE_JEWELRY_TURTLE_JEWELRY_14_cls-3" d="M210.5,364.31a15.26,15.26,0,0,0-3.37.35,16.62,16.62,0,0,0-1.13-2.12c1.14-.39,2.27-.81,3.38-1.23A14,14,0,0,1,210.5,364.31Z" />
  <path class="BUNTAI_TURTLE_JEWELRY_TURTLE_JEWELRY_14_cls-4" d="M218.5,369.84l0,0c1.43,3.7-1.94,8.24-7.54,10.15s-11.3.44-12.74-3.26v0c-1.41-3.7,2-8.22,7.55-10.12s11.26-.46,12.72,3.21" />
  <path class="BUNTAI_TURTLE_JEWELRY_TURTLE_JEWELRY_14_cls-4" d="M218.5,369.84h0a4.71,4.71,0,0,0-.31-1.47c-1-2.54-4-4-7.69-4a14.8,14.8,0,0,0-3.38.34,17.37,17.37,0,0,0-1.9.52l-.47.17a15.38,15.38,0,0,0-3.77,2c-3,2.26-4.55,5.37-3.52,8a5.36,5.36,0,0,0,.77,1.33" />
  <path class="BUNTAI_TURTLE_JEWELRY_TURTLE_JEWELRY_14_cls-4" d="M202.54,355.23a4.33,4.33,0,0,1,1.31.2l.21.08.19.08,0,0,.16.08a4.63,4.63,0,0,1,.51.31h0l.23.16a13.29,13.29,0,0,1,2.67,2.72l.23.32.12.18" />
  <path class="BUNTAI_TURTLE_JEWELRY_TURTLE_JEWELRY_14_cls-4" d="M207.13,364.66a16.62,16.62,0,0,0-1.13-2.12l3.38-1.23a14,14,0,0,1,1.12,3" />
  <path class="BUNTAI_TURTLE_JEWELRY_TURTLE_JEWELRY_14_cls-4" d="M201,367.38c-1-1.35-3.83-5.56-3.33-8.26a4.79,4.79,0,0,1,4.89-3.9" />
  <path class="BUNTAI_TURTLE_JEWELRY_TURTLE_JEWELRY_14_cls-4" d="M204.75,365.35a48.5,48.5,0,0,1-3.54-5.8,4.07,4.07,0,0,1-.26-.69,2.77,2.77,0,0,1,1.59-3.64h0" />
  <path class="BUNTAI_TURTLE_JEWELRY_TURTLE_JEWELRY_14_cls-4" d="M201.21,359.56a3.78,3.78,0,0,1,3.29,1.16" />
  <path class="BUNTAI_TURTLE_JEWELRY_TURTLE_JEWELRY_14_cls-4" d="M200.09,373.2s2.81,1.19,7.44-.6,5.07-4.38,5.07-4.38" />
  <path class="BUNTAI_TURTLE_JEWELRY_TURTLE_JEWELRY_14_cls-4" d="M210.16,367.38a8.31,8.31,0,0,1-2.15,5" />
  <path class="BUNTAI_TURTLE_JEWELRY_TURTLE_JEWELRY_14_cls-4" d="M208,368.62s.66,2.12-2.41,4.59" />
  <path class="BUNTAI_TURTLE_JEWELRY_TURTLE_JEWELRY_14_cls-4" d="M204.35,373.45a5.54,5.54,0,0,0,2-3.56" />
  <path class="BUNTAI_TURTLE_JEWELRY_TURTLE_JEWELRY_14_cls-4" d="M206.61,372.92s-2.83,3.21-4.37,3.14,0-1.84.8-1.79.26.89-.06,1" />
  <path class="BUNTAI_TURTLE_JEWELRY_TURTLE_JEWELRY_14_cls-4" d="M202.48,378a17.85,17.85,0,0,1,5-3.46,24.3,24.3,0,0,1,7.28-1.57" />
  <path class="BUNTAI_TURTLE_JEWELRY_TURTLE_JEWELRY_14_cls-4" d="M208.38,377.52s-1.07-2.09-3.12-1.82" />
  <path class="BUNTAI_TURTLE_JEWELRY_TURTLE_JEWELRY_14_cls-4" d="M206.61,374.91s2.92,1.07,3.51,3.13" />
  <path class="BUNTAI_TURTLE_JEWELRY_TURTLE_JEWELRY_14_cls-4" d="M208.23,374.21s2.56,1.35,3,2.74" />
  <path class="BUNTAI_TURTLE_JEWELRY_TURTLE_JEWELRY_14_cls-4" d="M210.81,373.48s2.8.66,3.33,2" />
  <path class="BUNTAI_TURTLE_JEWELRY_TURTLE_JEWELRY_14_cls-4" d="M203.42,370.09s-.16,1.42.78,1.58l.94.16S205.37,370.47,203.42,370.09Z" />
  <path class="BUNTAI_TURTLE_JEWELRY_TURTLE_JEWELRY_14_cls-4" d="M206.92,367.87s-.91.73-.47,1.29l.44.57S207.8,369.08,206.92,367.87Z" />
  <path class="BUNTAI_TURTLE_JEWELRY_TURTLE_JEWELRY_14_cls-4" d="M210.65,372.51a2.92,2.92,0,0,1,2.49-1.37C212.47,372.39,212.21,372.31,210.65,372.51Z" />
  <path class="BUNTAI_TURTLE_JEWELRY_TURTLE_JEWELRY_14_cls-4" d="M214.09,371a1.93,1.93,0,0,1,2.53-1A2.45,2.45,0,0,1,214.09,371Z" />
  <path class="BUNTAI_TURTLE_JEWELRY_TURTLE_JEWELRY_14_cls-4" d="M212.88,370.4s.13-2,1.29-2.5A2.08,2.08,0,0,1,212.88,370.4Z" />
  <path class="BUNTAI_TURTLE_JEWELRY_TURTLE_JEWELRY_14_cls-4" d="M213.48,372.06a2.18,2.18,0,0,1,2.65,0A2.32,2.32,0,0,1,213.48,372.06Z" />
  <path class="BUNTAI_TURTLE_JEWELRY_TURTLE_JEWELRY_14_cls-4" d="M213.79,374.07s.22,1,2.12.85C215.46,374.18,215.44,373.9,213.79,374.07Z" />
  <path class="BUNTAI_TURTLE_JEWELRY_TURTLE_JEWELRY_14_cls-4" d="M211,374.59a2.15,2.15,0,0,1,1.61.64,3.38,3.38,0,0,1,.72,1.61S211.11,376.4,211,374.59Z" />
  <path class="BUNTAI_TURTLE_JEWELRY_TURTLE_JEWELRY_14_cls-4" d="M208.88,378a1,1,0,0,0,.28,1.37A1.08,1.08,0,0,0,208.88,378Z" />
</svg>