<svg id="jewelries" xmlns="http://www.w3.org/2000/svg" viewBox="0 0 432 432">
  <defs>
    <style>.BUNTAI_TURTLE_JEWELRY_TURTLE_JEWELRY_21_cls-1{fill:#39b54a;}.BUNTAI_TURTLE_JEWELRY_TURTLE_JEWELRY_21_cls-2{fill:#c7a858;}.BUNTAI_TURTLE_JEWELRY_TURTLE_JEWELRY_21_cls-3,.BUNTAI_TURTLE_JEWELRY_TURTLE_JEWELRY_21_cls-4{fill:none;stroke:#000;stroke-linecap:round;stroke-linejoin:round;}.BUNTAI_TURTLE_JEWELRY_TURTLE_JEWELRY_21_cls-3{stroke-width:0.65px;}</style>
  </defs>
  <path class="BUNTAI_TURTLE_JEWELRY_TURTLE_JEWELRY_21_cls-1" d="M175.8,166.54c0,4-2,7.29-4.55,7.29s-4.55-3.26-4.55-7.29,2-7.29,4.55-7.29S175.8,162.51,175.8,166.54Z" />
  <path class="BUNTAI_TURTLE_JEWELRY_TURTLE_JEWELRY_21_cls-2" d="M175.8,166.54c0-4-2-7.29-4.55-7.29s-4.55,3.26-4.55,7.29,2,7.29,4.55,7.29S175.8,170.57,175.8,166.54Zm1.25,0c0,5.14-2.6,9.3-5.8,9.3s-5.8-4.16-5.8-9.3,2.6-9.3,5.8-9.3S177.05,161.4,177.05,166.54Z" />
  <ellipse class="BUNTAI_TURTLE_JEWELRY_TURTLE_JEWELRY_21_cls-2" cx="171.25" cy="155.68" rx="2.42" ry="1.56" />
  <path class="BUNTAI_TURTLE_JEWELRY_TURTLE_JEWELRY_21_cls-2" d="M171.18,145.89c-1.71,0-1.43-2.33-1.43-2.33h0a4.58,4.58,0,0,0,2.1.45,2,2,0,0,0,.94-.24C172.79,143.9,172.83,145.89,171.18,145.89Z" />
  <path class="BUNTAI_TURTLE_JEWELRY_TURTLE_JEWELRY_21_cls-2" d="M174.12,136.71c.62,2.08.49,6-1.33,7a2,2,0,0,1-.94.24,4.58,4.58,0,0,1-2.1-.45c-1.56-.75-2.35-2.52-2.25-5.22a8.67,8.67,0,0,1,.49-2.62,5.58,5.58,0,0,1,1.52-2.36,1.93,1.93,0,0,1,1.4-.58,2.34,2.34,0,0,1,1.69,1,3.56,3.56,0,0,1-.75.14h0a4.3,4.3,0,0,0-1.91,2.94c-.48,2.29.32,4.86,1.47,4.86s1.3-3,1.22-4.57h.1A6,6,0,0,0,174.12,136.71Z" />
  <path class="BUNTAI_TURTLE_JEWELRY_TURTLE_JEWELRY_21_cls-2" d="M169,125.57a7.92,7.92,0,0,0,.61,2.88s-2.09,1.81-.89,4.05a2.37,2.37,0,0,0,.75.85,5.58,5.58,0,0,0-1.52,2.36A6.12,6.12,0,0,1,169,125.57Z" />
  <path class="BUNTAI_TURTLE_JEWELRY_TURTLE_JEWELRY_21_cls-2" d="M175.26,126.46c2.06,2,3,8.37-1.14,10.25a6,6,0,0,1-1.43.43h-.1a5.18,5.18,0,0,1-2.69-.29,4.3,4.3,0,0,1,1.91-2.94h0a3.56,3.56,0,0,0,.75-.14,2.09,2.09,0,0,0,1.68-2c0-2.43-.95-2.55-.95-2.55S172,126.12,175.26,126.46Z" />
  <path class="BUNTAI_TURTLE_JEWELRY_TURTLE_JEWELRY_21_cls-3" d="M168,135.71a6.12,6.12,0,0,1,1-10.14,7.92,7.92,0,0,0,.61,2.88s-2.09,1.81-.89,4.05a2.37,2.37,0,0,0,.75.85" />
  <path class="BUNTAI_TURTLE_JEWELRY_TURTLE_JEWELRY_21_cls-3" d="M171.85,133.91a3.56,3.56,0,0,0,.75-.14,2.09,2.09,0,0,0,1.68-2c0-2.43-.95-2.55-.95-2.55s-1.35-3.13,1.93-2.79c2.06,2,3,8.37-1.14,10.25a6,6,0,0,1-1.43.43h-.1a5.18,5.18,0,0,1-2.69-.29" />
  <path class="BUNTAI_TURTLE_JEWELRY_TURTLE_JEWELRY_21_cls-3" d="M174.12,136.71c.62,2.08.49,6-1.33,7a2,2,0,0,1-.94.24,4.58,4.58,0,0,1-2.1-.45c-1.56-.75-2.35-2.52-2.25-5.22a8.67,8.67,0,0,1,.49-2.62,5.58,5.58,0,0,1,1.52-2.36,1.93,1.93,0,0,1,1.4-.58,2.34,2.34,0,0,1,1.69,1" />
  <path class="BUNTAI_TURTLE_JEWELRY_TURTLE_JEWELRY_21_cls-3" d="M172.59,137.15c.08,1.58.07,4.57-1.22,4.57s-2-2.57-1.47-4.86a4.3,4.3,0,0,1,1.91-2.94h0" />
  <path class="BUNTAI_TURTLE_JEWELRY_TURTLE_JEWELRY_21_cls-3" d="M169.75,143.56s-.28,2.33,1.43,2.33,1.61-2,1.61-2.13h0" />
  <ellipse class="BUNTAI_TURTLE_JEWELRY_TURTLE_JEWELRY_21_cls-3" cx="171.25" cy="155.68" rx="2.42" ry="1.56" />
  <path class="BUNTAI_TURTLE_JEWELRY_TURTLE_JEWELRY_21_cls-3" d="M177.05,166.54c0,5.14-2.6,9.3-5.8,9.3s-5.8-4.16-5.8-9.3,2.6-9.3,5.8-9.3S177.05,161.4,177.05,166.54Z" />
  <path class="BUNTAI_TURTLE_JEWELRY_TURTLE_JEWELRY_21_cls-3" d="M175.8,166.54c0,4-2,7.29-4.55,7.29s-4.55-3.26-4.55-7.29,2-7.29,4.55-7.29S175.8,162.51,175.8,166.54Z" />
  <line class="BUNTAI_TURTLE_JEWELRY_TURTLE_JEWELRY_21_cls-3" x1="171.18" y1="145.89" x2="171.18" y2="154.12" />
  <path class="BUNTAI_TURTLE_JEWELRY_TURTLE_JEWELRY_21_cls-3" d="M171.65,160.79s2.73,1,2.61,6.19" />
  <path class="BUNTAI_TURTLE_JEWELRY_TURTLE_JEWELRY_21_cls-1" d="M161.77,206.62c0,5.22-2.65,9.47-5.91,9.47s-5.91-4.25-5.91-9.47,2.65-9.48,5.91-9.48S161.77,201.38,161.77,206.62Z" />
  <path class="BUNTAI_TURTLE_JEWELRY_TURTLE_JEWELRY_21_cls-2" d="M155.86,194.53c-4.16,0-7.54,5.4-7.54,12.08s3.38,12.08,7.54,12.08,7.53-5.4,7.53-12.08S160,194.53,155.86,194.53Zm0,21.55c-3.27,0-5.91-4.24-5.91-9.47s2.64-9.48,5.91-9.48,5.9,4.25,5.9,9.48S159.12,216.08,155.86,216.08Z" />
  <ellipse class="BUNTAI_TURTLE_JEWELRY_TURTLE_JEWELRY_21_cls-2" cx="155.86" cy="192.5" rx="3.15" ry="2.03" />
  <path class="BUNTAI_TURTLE_JEWELRY_TURTLE_JEWELRY_21_cls-2" d="M155.77,179.78c-2.22,0-1.85-3-1.85-3h0a6,6,0,0,0,2.72.57,2.45,2.45,0,0,0,1.22-.3C157.87,177.2,157.91,179.78,155.77,179.78Z" />
  <path class="BUNTAI_TURTLE_JEWELRY_TURTLE_JEWELRY_21_cls-2" d="M159.58,167.85c.82,2.71.65,7.87-1.72,9.17a2.45,2.45,0,0,1-1.22.3,6,6,0,0,1-2.72-.57c-2-1-3.06-3.29-2.93-6.78a11.58,11.58,0,0,1,.63-3.41,7.22,7.22,0,0,1,2-3.07,2.54,2.54,0,0,1,1.82-.76,3.09,3.09,0,0,1,2.2,1.3,4.48,4.48,0,0,1-1,.19h0a5.64,5.64,0,0,0-2.49,3.83c-.62,3,.42,6.3,1.92,6.3,1.67,0,1.69-3.87,1.59-5.93l.12,0A6.68,6.68,0,0,0,159.58,167.85Z" />
  <path class="BUNTAI_TURTLE_JEWELRY_TURTLE_JEWELRY_21_cls-2" d="M153.92,153.26a9.17,9.17,0,0,1-.14,3.87s-2.71,2.35-1.16,5.26a3.15,3.15,0,0,0,1,1.1,7.22,7.22,0,0,0-2,3.07C148,163.38,147.73,155.89,153.92,153.26Z" />
  <path class="BUNTAI_TURTLE_JEWELRY_TURTLE_JEWELRY_21_cls-2" d="M163.14,163.06a6.42,6.42,0,0,1-3.56,4.79,7.16,7.16,0,0,1-1.85.56l-.13,0a6.87,6.87,0,0,1-3.5-.37,5.62,5.62,0,0,1,2.48-3.83h.06a4.59,4.59,0,0,0,1-.19,2.89,2.89,0,0,0,2.06-1.79,2.39,2.39,0,0,0,.12-.77c0-3.15-1.24-3.3-1.24-3.3s-.07-.17-.15-.43a4.06,4.06,0,0,1,3.15-2.65A10.76,10.76,0,0,1,163.14,163.06Z" />
  <path class="BUNTAI_TURTLE_JEWELRY_TURTLE_JEWELRY_21_cls-4" d="M151.62,166.56c-3.6-3.18-4.09-10.62,2.3-13.3a6.62,6.62,0,0,1-.14,3.87s-2.71,2.35-1.16,5.26a3.15,3.15,0,0,0,1,1.1" />
  <path class="BUNTAI_TURTLE_JEWELRY_TURTLE_JEWELRY_21_cls-4" d="M154.1,168.06a6.87,6.87,0,0,0,3.5.37l.13,0a7.16,7.16,0,0,0,1.85-.56,6.42,6.42,0,0,0,3.56-4.79,10.76,10.76,0,0,0-1.58-8" />
  <path class="BUNTAI_TURTLE_JEWELRY_TURTLE_JEWELRY_21_cls-4" d="M158.41,157.74c.08.26.15.43.15.43s1.2.15,1.24,3.3a2.39,2.39,0,0,1-.12.77,2.89,2.89,0,0,1-2.06,1.79,4.59,4.59,0,0,1-1,.19" />
  <path class="BUNTAI_TURTLE_JEWELRY_TURTLE_JEWELRY_21_cls-4" d="M159.58,167.85c.82,2.71.65,7.87-1.72,9.17a2.45,2.45,0,0,1-1.22.3,6,6,0,0,1-2.72-.57c-2-1-3.06-3.29-2.93-6.78a11.58,11.58,0,0,1,.63-3.41,7.22,7.22,0,0,1,2-3.07,2.54,2.54,0,0,1,1.82-.76,3.09,3.09,0,0,1,2.2,1.3" />
  <path class="BUNTAI_TURTLE_JEWELRY_TURTLE_JEWELRY_21_cls-4" d="M157.61,168.43c.1,2.06.08,5.93-1.59,5.93-1.5,0-2.54-3.33-1.92-6.3a5.64,5.64,0,0,1,2.49-3.83h0" />
  <path class="BUNTAI_TURTLE_JEWELRY_TURTLE_JEWELRY_21_cls-4" d="M153.92,176.76s-.37,3,1.85,3,2.1-2.58,2.09-2.76h0" />
  <ellipse class="BUNTAI_TURTLE_JEWELRY_TURTLE_JEWELRY_21_cls-4" cx="155.86" cy="192.5" rx="3.15" ry="2.03" />
  <path class="BUNTAI_TURTLE_JEWELRY_TURTLE_JEWELRY_21_cls-4" d="M163.4,206.62c0,6.67-3.38,12.07-7.54,12.07s-7.53-5.4-7.53-12.07,3.37-12.09,7.53-12.09S163.4,199.94,163.4,206.62Z" />
  <path class="BUNTAI_TURTLE_JEWELRY_TURTLE_JEWELRY_21_cls-4" d="M161.77,206.62c0,5.22-2.65,9.47-5.91,9.47s-5.91-4.25-5.91-9.47,2.65-9.48,5.91-9.48S161.77,201.38,161.77,206.62Z" />
  <line class="BUNTAI_TURTLE_JEWELRY_TURTLE_JEWELRY_21_cls-4" x1="155.77" y1="179.78" x2="155.77" y2="190.48" />
  <path class="BUNTAI_TURTLE_JEWELRY_TURTLE_JEWELRY_21_cls-4" d="M156.38,199.15s3.55,1.3,3.39,8" />
  <path class="BUNTAI_TURTLE_JEWELRY_TURTLE_JEWELRY_21_cls-4" d="M158.65,161a4.05,4.05,0,0,1-.24-3.24,4.06,4.06,0,0,1,3.15-2.65,3.85,3.85,0,0,1,.69-.06,2.76,2.76,0,0,1,2.75,2.05" />
</svg>