<svg id="jewelries" xmlns="http://www.w3.org/2000/svg" viewBox="0 0 432 432">
  <defs>
    <style>.BUNTAI_TURTLE_JEWELRY_TURTLE_JEWELRY_19_cls-1{fill:#c7a858;}.BUNTAI_TURTLE_JEWELRY_TURTLE_JEWELRY_19_cls-2{fill:#fff;}.BUNTAI_TURTLE_JEWELRY_TURTLE_JEWELRY_19_cls-3{fill:none;stroke-linecap:round;stroke-linejoin:round;}.BUNTAI_TURTLE_JEWELRY_TURTLE_JEWELRY_19_cls-3,.BUNTAI_TURTLE_JEWELRY_TURTLE_JEWELRY_19_cls-4{stroke:#000;stroke-width:0.74px;}.BUNTAI_TURTLE_JEWELRY_TURTLE_JEWELRY_19_cls-4{fill:#754c24;stroke-miterlimit:10;}.BUNTAI_TURTLE_JEWELRY_TURTLE_JEWELRY_19_cls-5{fill:#333;}</style>
  </defs>
  <path class="BUNTAI_TURTLE_JEWELRY_TURTLE_JEWELRY_19_cls-1" d="M224.61,378.31A12.68,12.68,0,1,0,212,391,12.68,12.68,0,0,0,224.61,378.31ZM212,364.16a14.15,14.15,0,1,1-14.16,14.15A14.15,14.15,0,0,1,212,364.16Z" />
  <path class="BUNTAI_TURTLE_JEWELRY_TURTLE_JEWELRY_19_cls-2" d="M216.68,366.56a12.67,12.67,0,0,1-8.51,23.85c-4.54-6.5,2.62-10.26,7.61-13.6S216.68,366.56,216.68,366.56Zm-2.46,19.22a2.28,2.28,0,1,0-2.27,2.28A2.27,2.27,0,0,0,214.22,385.78Z" />
  <path d="M216.68,366.56s4.1,6.92-.9,10.25-12.15,7.1-7.61,13.6a12.67,12.67,0,1,1,8.51-23.85Zm-2.46,5.89a2.28,2.28,0,1,0-2.27,2.27A2.27,2.27,0,0,0,214.22,372.45Z" />
  <path class="BUNTAI_TURTLE_JEWELRY_TURTLE_JEWELRY_19_cls-3" d="M216.68,366.56a12.66,12.66,0,1,1-4.73-.92A12.68,12.68,0,0,1,216.68,366.56Z" />
  <path class="BUNTAI_TURTLE_JEWELRY_TURTLE_JEWELRY_19_cls-3" d="M214.22,372.45a2.28,2.28,0,1,1-2.27-2.27A2.27,2.27,0,0,1,214.22,372.45Z" />
  <path class="BUNTAI_TURTLE_JEWELRY_TURTLE_JEWELRY_19_cls-3" d="M214.22,385.78a2.28,2.28,0,1,1-2.27-2.27A2.28,2.28,0,0,1,214.22,385.78Z" />
  <path class="BUNTAI_TURTLE_JEWELRY_TURTLE_JEWELRY_19_cls-3" d="M226.09,378.31A14.15,14.15,0,1,1,212,364.16,14.14,14.14,0,0,1,226.09,378.31Z" />
  <path class="BUNTAI_TURTLE_JEWELRY_TURTLE_JEWELRY_19_cls-3" d="M216.68,366.56s4.1,6.92-.9,10.25-12.15,7.1-7.61,13.6" />
  <path class="BUNTAI_TURTLE_JEWELRY_TURTLE_JEWELRY_19_cls-4" d="M266.4,306a2.72,2.72,0,0,0-.65-.51,2.84,2.84,0,0,0-2.82-.06l-.55.34,2.55,1.64c-7.19,16.49-20.27,40.26-49.81,51.51h-.05c-.46.19-.92.37-1.4.54,0,0,0,0,0,0l-.09,0h0l-.88.31-1.1-.28-1.58-.43c-30.08-8.42-45.29-30-52.76-46.89a106.42,106.42,0,0,1-4.52-12.14c.69-.51,1-.71,1.58-1.19-4.3-1.69-4,1.48-3.6,2.51a112.06,112.06,0,0,0,4.39,11.68c7.7,17.41,23.33,39.62,54.34,48.27l.29.09h0l1.21.32h.11l1.4.35a1.45,1.45,0,0,0,.28,0,1.22,1.22,0,0,0,.38-.07c.34-.12.69-.24,1-.37h0l1.62-.61h0c29.67-11.25,43.4-35.29,50.92-52.25.06-.12.1-.24.16-.36A3.07,3.07,0,0,0,266.4,306Z" />
  <path class="BUNTAI_TURTLE_JEWELRY_TURTLE_JEWELRY_19_cls-5" d="M210.06,359l1.57.43s1.62-.92,2.29.37.36,2.21-.51,2.61a1.9,1.9,0,0,1-2.4-.65,3.17,3.17,0,0,0-1.5-.34s.63,2.41,2.72,2.62a3.06,3.06,0,0,0,3.57-2.8,3,3,0,0,0-1.69-3.11A3.16,3.16,0,0,0,210.06,359Z" />
  <path class="BUNTAI_TURTLE_JEWELRY_TURTLE_JEWELRY_19_cls-3" d="M209.43,361.35a3.17,3.17,0,0,0,2.85,2.79l.32,0a3.19,3.19,0,0,0,3.18-3,.5.5,0,0,0,0-.17,3.21,3.21,0,0,0-3.2-3.2,3.18,3.18,0,0,0-2.6,1.35l1.58.43a1.68,1.68,0,0,1,1-.33,1.64,1.64,0,0,1,1,.29,1.75,1.75,0,1,1-2.49,2.29h0Z" />
</svg>