<svg xmlns="http://www.w3.org/2000/svg" viewBox="0 0 432 432">
  <defs>
    <style>.BUNTAI_TURTLE_JEWELRY_TURTLE_JEWELRY_26_cls-1{isolation:isolate;}.BUNTAI_TURTLE_JEWELRY_TURTLE_JEWELRY_26_cls-2,.BUNTAI_TURTLE_JEWELRY_TURTLE_JEWELRY_26_cls-5{fill:none;stroke:#000;stroke-linecap:round;stroke-linejoin:round;}.BUNTAI_TURTLE_JEWELRY_TURTLE_JEWELRY_26_cls-2{stroke-width:1.06px;}.BUNTAI_TURTLE_JEWELRY_TURTLE_JEWELRY_26_cls-3{fill:#c7a858;}.BUNTAI_TURTLE_JEWELRY_TURTLE_JEWELRY_26_cls-4{fill:#10b3c7;}.BUNTAI_TURTLE_JEWELRY_TURTLE_JEWELRY_26_cls-5{stroke-width:1.2px;}.BUNTAI_TURTLE_JEWELRY_TURTLE_JEWELRY_26_cls-6{opacity:0.43;mix-blend-mode:multiply;}</style>
  </defs>
  <g class="BUNTAI_TURTLE_JEWELRY_TURTLE_JEWELRY_26_cls-1">
    <g id="jewelries">
      <line class="BUNTAI_TURTLE_JEWELRY_TURTLE_JEWELRY_26_cls-2" x1="155.94" y1="178.54" x2="155.94" y2="172.33" />
      <path class="BUNTAI_TURTLE_JEWELRY_TURTLE_JEWELRY_26_cls-3" d="M155.93,172.33c-1.68,0-1.4-2.29-1.4-2.29h0a4.57,4.57,0,0,0,2.06.44,2,2,0,0,0,.92-.23C157.52,170.37,157.55,172.33,155.93,172.33Z" />
      <path class="BUNTAI_TURTLE_JEWELRY_TURTLE_JEWELRY_26_cls-3" d="M158.82,163.3c.61,2,.48,5.95-1.31,6.94a2,2,0,0,1-.92.23,4.57,4.57,0,0,1-2.06-.44c-1.54-.74-2.32-2.48-2.21-5.13a8.42,8.42,0,0,1,.47-2.58,5.5,5.5,0,0,1,1.5-2.33,1.94,1.94,0,0,1,1.37-.57,2.33,2.33,0,0,1,1.67,1,3.59,3.59,0,0,1-.74.14h0a4.25,4.25,0,0,0-1.88,2.89c-.47,2.25.31,4.77,1.45,4.77s1.28-2.93,1.2-4.48l.09,0A5.82,5.82,0,0,0,158.82,163.3Z" />
      <path class="BUNTAI_TURTLE_JEWELRY_TURTLE_JEWELRY_26_cls-3" d="M153.82,152.35c.4,2.06.6,2.83.6,2.83s-2,1.78-.87,4a2.25,2.25,0,0,0,.74.82,5.5,5.5,0,0,0-1.5,2.33A6,6,0,0,1,153.82,152.35Z" />
      <path class="BUNTAI_TURTLE_JEWELRY_TURTLE_JEWELRY_26_cls-3" d="M161.51,159.67a4.87,4.87,0,0,1-2.7,3.63,5.11,5.11,0,0,1-1.4.42l-.09,0a5.24,5.24,0,0,1-2.65-.28,4.24,4.24,0,0,1,1.87-2.9h.05a3.59,3.59,0,0,0,.74-.14,2.18,2.18,0,0,0,1.56-1.36,1.81,1.81,0,0,0,.09-.58c0-2.38-.94-2.5-.94-2.5s0-.13-.11-.32a3.07,3.07,0,0,1,2.38-2A8.14,8.14,0,0,1,161.51,159.67Z" />
      <path class="BUNTAI_TURTLE_JEWELRY_TURTLE_JEWELRY_26_cls-2" d="M152.79,162.32a6,6,0,0,1,1-10c.42,1.7.6,2.83.6,2.83s-2,1.78-.87,4a2.25,2.25,0,0,0,.74.82" />
      <path class="BUNTAI_TURTLE_JEWELRY_TURTLE_JEWELRY_26_cls-2" d="M154.67,163.46a5.24,5.24,0,0,0,2.65.28l.09,0a5.11,5.11,0,0,0,1.4-.42,4.87,4.87,0,0,0,2.7-3.63,8.14,8.14,0,0,0-1.2-6" />
      <path class="BUNTAI_TURTLE_JEWELRY_TURTLE_JEWELRY_26_cls-2" d="M157.93,155.65c.06.19.11.32.11.32s.91.12.94,2.5a1.81,1.81,0,0,1-.09.58,2.18,2.18,0,0,1-1.56,1.36,3.59,3.59,0,0,1-.74.14" />
      <path class="BUNTAI_TURTLE_JEWELRY_TURTLE_JEWELRY_26_cls-2" d="M158.82,163.3c.61,2,.48,5.95-1.31,6.94a2,2,0,0,1-.92.23,4.57,4.57,0,0,1-2.06-.44c-1.54-.74-2.32-2.48-2.21-5.13a8.42,8.42,0,0,1,.47-2.58,5.5,5.5,0,0,1,1.5-2.33,1.94,1.94,0,0,1,1.37-.57,2.33,2.33,0,0,1,1.67,1" />
      <path class="BUNTAI_TURTLE_JEWELRY_TURTLE_JEWELRY_26_cls-2" d="M157.32,163.74c.08,1.55.06,4.48-1.2,4.48s-1.92-2.52-1.45-4.77a4.25,4.25,0,0,1,1.88-2.89h0" />
      <path class="BUNTAI_TURTLE_JEWELRY_TURTLE_JEWELRY_26_cls-2" d="M154.53,170s-.28,2.29,1.4,2.29,1.59-2,1.58-2.09h0" />
      <path class="BUNTAI_TURTLE_JEWELRY_TURTLE_JEWELRY_26_cls-2" d="M158.11,158.1a3,3,0,0,1-.35-1.43,3.06,3.06,0,0,1,2.55-3,3,3,0,0,1,.53,0,2.09,2.09,0,0,1,2.08,1.54" />
      <path class="BUNTAI_TURTLE_JEWELRY_TURTLE_JEWELRY_26_cls-3" d="M156.18,196.83a7.83,7.83,0,1,0-7.83-7.83A7.83,7.83,0,0,0,156.18,196.83Zm10.3-7.83a9.74,9.74,0,0,1-.25,2.24,10,10,0,0,1-1.48,3.48,10.25,10.25,0,0,1-5.52,4.12,10.22,10.22,0,0,1-3,.46h0a10.13,10.13,0,0,1-3.86-.75,10.42,10.42,0,0,1-5-4.35,10.45,10.45,0,0,1-1.4-5.2,10.3,10.3,0,0,1,10.18-10.3h.12A10.3,10.3,0,0,1,166.48,189Z" />
      <path class="BUNTAI_TURTLE_JEWELRY_TURTLE_JEWELRY_26_cls-4" d="M177.5,200.7a10.5,10.5,0,0,1,.79,3.36,35.94,35.94,0,0,0-7.69-9.53h0l-.78-.66c.23,0,.47.06.69.11a10.18,10.18,0,0,1,4.79,2.32l-1.91-.49A10.86,10.86,0,0,1,177.5,200.7Z" />
      <path class="BUNTAI_TURTLE_JEWELRY_TURTLE_JEWELRY_26_cls-4" d="M178.29,204.06h0q0,.44,0,.87a38.94,38.94,0,0,1-3.83-3.1l-.17.16a13.9,13.9,0,0,0-2.26-2h0a28,28,0,0,1-1.45-5.46A35.94,35.94,0,0,1,178.29,204.06Z" />
      <path class="BUNTAI_TURTLE_JEWELRY_TURTLE_JEWELRY_26_cls-4" d="M177.1,209.11a24.27,24.27,0,0,1-.26,5.9c-.26-.25-.52-.49-.79-.72a36.85,36.85,0,0,0-7.87-16v-.22a14.34,14.34,0,0,1,3.87,1.94h0a13.9,13.9,0,0,1,2.26,2l-1.64.11a5.2,5.2,0,0,1,3.33,2.72A10.71,10.71,0,0,1,177.1,209.11Z" />
      <path class="BUNTAI_TURTLE_JEWELRY_TURTLE_JEWELRY_26_cls-4" d="M168.18,198.27a36.85,36.85,0,0,1,7.87,16c-.92-.79-1.92-1.5-2.86-2.28-.34-.28-.67-.57-1-.89,0-.59-.13-1.17-.23-1.75a6.43,6.43,0,0,0-3-4.39l1.47,0a11.58,11.58,0,0,0-2.26-2.53Z" />
      <path class="BUNTAI_TURTLE_JEWELRY_TURTLE_JEWELRY_26_cls-4" d="M172.2,211.12a24,24,0,0,1-.45,7.55,46.15,46.15,0,0,0-7.21-18.36h0a12.09,12.09,0,0,1,3.6,2.11,11.58,11.58,0,0,1,2.26,2.53l-1.47,0a6.43,6.43,0,0,1,3,4.39C172.07,210,172.15,210.53,172.2,211.12Z" />
      <path class="BUNTAI_TURTLE_JEWELRY_TURTLE_JEWELRY_26_cls-4" d="M171.75,218.67h0c-.17.79-.38,1.57-.62,2.34a27.11,27.11,0,0,0-4.38-5.88,8,8,0,0,0-1-3,22.65,22.65,0,0,0-2.51-3.64c.45.07.83.16,1.24.24.18,0,.36.07.55.09-.23-.43-.47-.86-.72-1.28a23.88,23.88,0,0,1,.2-7.21A46.15,46.15,0,0,1,171.75,218.67Z" />
      <path class="BUNTAI_TURTLE_JEWELRY_TURTLE_JEWELRY_26_cls-4" d="M164.34,207.52c.25.42.49.85.72,1.28-.19,0-.37-.06-.55-.09-.41-.08-.79-.17-1.24-.24a22.65,22.65,0,0,1,2.51,3.64,8,8,0,0,1,1,3c.4,3.36-1.08,7.09-3.13,10.17a71.38,71.38,0,0,0-3.12-22.72.3.3,0,0,0,0-.1A28.16,28.16,0,0,1,164.34,207.52Z" />
      <path class="BUNTAI_TURTLE_JEWELRY_TURTLE_JEWELRY_26_cls-4" d="M160.7,218.39a35.69,35.69,0,0,1-1-10.25,2.55,2.55,0,0,0-.35.14A14.8,14.8,0,0,0,159,206c.28-.64.6-1.25.9-1.88a10.82,10.82,0,0,0,.61-1.49,71.38,71.38,0,0,1,3.12,22.72c-.3.44-.6.87-.91,1.28C162.43,223.87,161.38,221.15,160.7,218.39Z" />
      <path class="BUNTAI_TURTLE_JEWELRY_TURTLE_JEWELRY_26_cls-4" d="M159.39,208.28c.11,1.2.12,2.43.11,3.63a5.2,5.2,0,0,0-2.71.06,10.41,10.41,0,0,1,2.2,2,32.11,32.11,0,0,1-3.18,13.5,14.26,14.26,0,0,1-2.93-5.71,28.79,28.79,0,0,1-.35-8.7c.52-.62,1.14-1.32,1.67-1.93-.57-.29-1-.56-1.59-.84,0-.58,0-1.17,0-1.77a6.44,6.44,0,0,1,.15-1.82,2.88,2.88,0,0,1,.33-.79,27,27,0,0,1,3-4c.09-.1.18-.21.28-.31a8.27,8.27,0,0,1,1.84,2.36,9.23,9.23,0,0,1,.77,2A14.8,14.8,0,0,1,159.39,208.28Z" />
      <path class="BUNTAI_TURTLE_JEWELRY_TURTLE_JEWELRY_26_cls-4" d="M147.82,225.28a71.44,71.44,0,0,1,3.12-22.69,14.08,14.08,0,0,0,.61,1.49,26.54,26.54,0,0,1,1.19,2.61,6.44,6.44,0,0,0-.15,1.82c-.3-.13-.6-.27-.88-.37a35.35,35.35,0,0,1-1,10.25c-.67,2.76-1.72,5.48-2,8.2-.32-.41-.63-.84-.91-1.28h0S147.82,225.29,147.82,225.28Z" />
      <path class="BUNTAI_TURTLE_JEWELRY_TURTLE_JEWELRY_26_cls-4" d="M150.94,202.59a71.44,71.44,0,0,0-3.12,22.69c-2.06-3.08-3.53-6.79-3.13-10.14a8.13,8.13,0,0,1,1-3,24.07,24.07,0,0,1,2.52-3.64c-.64.09-1.15.25-1.79.33.23-.43.47-.86.72-1.28a28.69,28.69,0,0,1,3.81-5Z" />
      <path class="BUNTAI_TURTLE_JEWELRY_TURTLE_JEWELRY_26_cls-4" d="M146.9,200.31a23.88,23.88,0,0,1,.2,7.21c-.25.42-.49.85-.72,1.28.64-.08,1.15-.24,1.79-.33a24.07,24.07,0,0,0-2.52,3.64,8.13,8.13,0,0,0-1,3,27,27,0,0,0-4.37,5.88,24,24,0,0,1-.63-2.35A46.3,46.3,0,0,1,146.9,200.31Z" />
      <path class="BUNTAI_TURTLE_JEWELRY_TURTLE_JEWELRY_26_cls-4" d="M146.9,200.31a46.3,46.3,0,0,0-7.21,18.36,24.26,24.26,0,0,1-.45-7.55c.06-.59.13-1.17.24-1.75a6.45,6.45,0,0,1,3-4.39l-1.47,0a11.84,11.84,0,0,1,2.26-2.53,12.14,12.14,0,0,1,3.61-2.11,0,0,0,0,0,0,0Z" />
      <path class="BUNTAI_TURTLE_JEWELRY_TURTLE_JEWELRY_26_cls-4" d="M142.5,205a6.45,6.45,0,0,0-3,4.39c-.11.58-.18,1.16-.24,1.75-.32.32-.65.61-1,.89-.94.78-1.94,1.49-2.86,2.28a37,37,0,0,1,7.87-16l0,4.13a11.84,11.84,0,0,0-2.26,2.53Z" />
      <path class="BUNTAI_TURTLE_JEWELRY_TURTLE_JEWELRY_26_cls-4" d="M143.26,198.27a37,37,0,0,0-7.87,16q-.4.35-.78.72a23.78,23.78,0,0,1-.26-5.9,10.7,10.7,0,0,1,1.08-4.28,5.22,5.22,0,0,1,3.34-2.72l-1.64-.11.05-.06a13.2,13.2,0,0,1,2.21-1.95,14.34,14.34,0,0,1,3.87-1.94Z" />
      <path class="BUNTAI_TURTLE_JEWELRY_TURTLE_JEWELRY_26_cls-4" d="M140.84,194.53a27.32,27.32,0,0,1-1.45,5.46,13.2,13.2,0,0,0-2.21,1.95l-.17-.16a37.6,37.6,0,0,1-3.88,3.16v-.22c0-.21,0-.43,0-.65A35.76,35.76,0,0,1,140.84,194.53Z" />
      <path class="BUNTAI_TURTLE_JEWELRY_TURTLE_JEWELRY_26_cls-4" d="M140.84,194.53a35.76,35.76,0,0,0-7.68,9.54,10.55,10.55,0,0,1,.78-3.37,10.86,10.86,0,0,1,4.11-4.9l-1.91.49a10.18,10.18,0,0,1,4.79-2.32c.23-.05.46-.08.69-.11l-.78.66Z" />
      <path class="BUNTAI_TURTLE_JEWELRY_TURTLE_JEWELRY_26_cls-5" d="M156.06,178.7h.12a10.3,10.3,0,0,1,10.3,10.3,9.74,9.74,0,0,1-.25,2.24,10,10,0,0,1-1.48,3.48,10.25,10.25,0,0,1-5.52,4.12,10.22,10.22,0,0,1-3,.46h0a10.13,10.13,0,0,1-3.86-.75,10.42,10.42,0,0,1-5-4.35,10.45,10.45,0,0,1-1.4-5.2A10.3,10.3,0,0,1,156.06,178.7Z" />
      <circle class="BUNTAI_TURTLE_JEWELRY_TURTLE_JEWELRY_26_cls-5" cx="156.18" cy="189" r="7.83" />
      <path class="BUNTAI_TURTLE_JEWELRY_TURTLE_JEWELRY_26_cls-5" d="M156.19,199.3c0,.69-.05,1.37-.07,2,0,.18,0,.35,0,.53-.23,6.93-.48,13.86-.71,20.78" />
      <path class="BUNTAI_TURTLE_JEWELRY_TURTLE_JEWELRY_26_cls-5" d="M156.38,201.57l-.26-.22" />
      <path class="BUNTAI_TURTLE_JEWELRY_TURTLE_JEWELRY_26_cls-5" d="M156.1,201.88c.09-.1.18-.21.28-.31a8.27,8.27,0,0,1,1.84,2.36,9.23,9.23,0,0,1,.77,2,14.8,14.8,0,0,1,.4,2.32c.11,1.2.12,2.43.11,3.63a5.2,5.2,0,0,0-2.71.06,10.41,10.41,0,0,1,2.2,2,32.11,32.11,0,0,1-3.18,13.5,14.26,14.26,0,0,1-2.93-5.71,28.79,28.79,0,0,1-.35-8.7c.52-.62,1.14-1.32,1.67-1.93-.57-.29-1-.56-1.59-.84,0-.58,0-1.17,0-1.77a6.44,6.44,0,0,1,.15-1.82,2.88,2.88,0,0,1,.33-.79,27,27,0,0,1,3-4" />
      <path class="BUNTAI_TURTLE_JEWELRY_TURTLE_JEWELRY_26_cls-5" d="M152.32,198.55c-.47,1.26-.91,2.54-1.31,3.84a1.18,1.18,0,0,0-.07.2,71.44,71.44,0,0,0-3.12,22.69v0h0" />
      <path class="BUNTAI_TURTLE_JEWELRY_TURTLE_JEWELRY_26_cls-5" d="M151,202.39a.47.47,0,0,0-.1.1,28.69,28.69,0,0,0-3.81,5c-.25.42-.49.85-.72,1.28.64-.08,1.15-.24,1.79-.33a24.07,24.07,0,0,0-2.52,3.64,8.13,8.13,0,0,0-1,3c-.4,3.35,1.07,7.06,3.13,10.14,0,0,0,0,0,0h0c.28.44.59.87.91,1.28" />
      <path class="BUNTAI_TURTLE_JEWELRY_TURTLE_JEWELRY_26_cls-5" d="M148.74,226.59c.28-2.72,1.33-5.44,2-8.2a35.35,35.35,0,0,0,1-10.25c.28.1.58.24.88.37" />
      <path class="BUNTAI_TURTLE_JEWELRY_TURTLE_JEWELRY_26_cls-5" d="M152.74,206.69a26.54,26.54,0,0,0-1.19-2.61,14.08,14.08,0,0,1-.61-1.49l0-.1" />
      <path class="BUNTAI_TURTLE_JEWELRY_TURTLE_JEWELRY_26_cls-5" d="M146.9,200.31a46.3,46.3,0,0,0-7.21,18.36" />
      <path class="BUNTAI_TURTLE_JEWELRY_TURTLE_JEWELRY_26_cls-5" d="M149.48,196.82q-1.36,1.67-2.56,3.47a0,0,0,0,0,0,0" />
      <path class="BUNTAI_TURTLE_JEWELRY_TURTLE_JEWELRY_26_cls-5" d="M146.92,200.29h0a12.14,12.14,0,0,0-3.61,2.11,11.84,11.84,0,0,0-2.26,2.53l1.47,0a6.45,6.45,0,0,0-3,4.39c-.11.58-.18,1.16-.24,1.75a24.26,24.26,0,0,0,.45,7.55,24,24,0,0,0,.63,2.35" />
      <path class="BUNTAI_TURTLE_JEWELRY_TURTLE_JEWELRY_26_cls-5" d="M147.1,207.52a23.88,23.88,0,0,0-.2-7.21h0a0,0,0,0,1,0,0" />
      <path class="BUNTAI_TURTLE_JEWELRY_TURTLE_JEWELRY_26_cls-5" d="M144.69,215.14a27,27,0,0,0-4.37,5.88" />
      <path class="BUNTAI_TURTLE_JEWELRY_TURTLE_JEWELRY_26_cls-5" d="M135.39,214.29a37,37,0,0,1,7.87-16,3.58,3.58,0,0,1,.26-.29,35.31,35.31,0,0,1,3.76-3.78" />
      <path class="BUNTAI_TURTLE_JEWELRY_TURTLE_JEWELRY_26_cls-5" d="M134.61,215a23.78,23.78,0,0,1-.26-5.9,10.7,10.7,0,0,1,1.08-4.28,5.22,5.22,0,0,1,3.34-2.72l-1.64-.11.05-.06a13.2,13.2,0,0,1,2.21-1.95,14.34,14.34,0,0,1,3.87-1.94l.26-.07" />
      <path class="BUNTAI_TURTLE_JEWELRY_TURTLE_JEWELRY_26_cls-5" d="M143.26,198.05v.22l0,4.13" />
      <path class="BUNTAI_TURTLE_JEWELRY_TURTLE_JEWELRY_26_cls-5" d="M140.84,194.52l.78-.66a34.77,34.77,0,0,1,4.41-3.12" />
      <path class="BUNTAI_TURTLE_JEWELRY_TURTLE_JEWELRY_26_cls-5" d="M133.16,204.07a35.76,35.76,0,0,1,7.68-9.54" />
      <path class="BUNTAI_TURTLE_JEWELRY_TURTLE_JEWELRY_26_cls-5" d="M141.62,193.86c-.23,0-.46.06-.69.11a10.18,10.18,0,0,0-4.79,2.32l1.91-.49a10.86,10.86,0,0,0-4.11,4.9,10.55,10.55,0,0,0-.78,3.37c0,.22,0,.44,0,.65v.22" />
      <path class="BUNTAI_TURTLE_JEWELRY_TURTLE_JEWELRY_26_cls-5" d="M138,200.45a5.92,5.92,0,0,1-.94,1.33,37.6,37.6,0,0,1-3.88,3.16h0" />
      <path class="BUNTAI_TURTLE_JEWELRY_TURTLE_JEWELRY_26_cls-5" d="M140.84,194.52h0a27.32,27.32,0,0,1-1.45,5.46" />
      <path class="BUNTAI_TURTLE_JEWELRY_TURTLE_JEWELRY_26_cls-5" d="M139.24,211.12c-.32.32-.65.61-1,.89-.94.78-1.94,1.49-2.86,2.28q-.4.35-.78.72" />
      <path class="BUNTAI_TURTLE_JEWELRY_TURTLE_JEWELRY_26_cls-5" d="M163.62,225.31a71.38,71.38,0,0,0-3.12-22.72l-.06-.2c-.37-1.2-.77-2.38-1.21-3.55" />
      <path class="BUNTAI_TURTLE_JEWELRY_TURTLE_JEWELRY_26_cls-5" d="M160.44,202.39l.1.1a28.16,28.16,0,0,1,3.8,5c.25.42.49.85.72,1.28-.19,0-.37-.06-.55-.09-.41-.08-.79-.17-1.24-.24a22.65,22.65,0,0,1,2.51,3.64,8,8,0,0,1,1,3c.4,3.36-1.08,7.09-3.13,10.17-.3.44-.6.87-.91,1.28" />
      <path class="BUNTAI_TURTLE_JEWELRY_TURTLE_JEWELRY_26_cls-5" d="M159.39,208.28a2.55,2.55,0,0,1,.35-.14,35.69,35.69,0,0,0,1,10.25c.68,2.76,1.73,5.48,2,8.2" />
      <path class="BUNTAI_TURTLE_JEWELRY_TURTLE_JEWELRY_26_cls-5" d="M159,206c.28-.64.6-1.25.9-1.88a10.82,10.82,0,0,0,.61-1.49.3.3,0,0,0,0-.1" />
      <path class="BUNTAI_TURTLE_JEWELRY_TURTLE_JEWELRY_26_cls-5" d="M164.54,200.3h0c-.69-1-1.43-2-2.2-3" />
      <path class="BUNTAI_TURTLE_JEWELRY_TURTLE_JEWELRY_26_cls-5" d="M171.75,218.67a46.15,46.15,0,0,0-7.21-18.36" />
      <path class="BUNTAI_TURTLE_JEWELRY_TURTLE_JEWELRY_26_cls-5" d="M171.13,221c.24-.77.45-1.55.62-2.34h0a24,24,0,0,0,.45-7.55c0-.59-.13-1.17-.23-1.75a6.43,6.43,0,0,0-3-4.39l1.47,0a11.58,11.58,0,0,0-2.26-2.53,12.09,12.09,0,0,0-3.6-2.11h0" />
      <path class="BUNTAI_TURTLE_JEWELRY_TURTLE_JEWELRY_26_cls-5" d="M164.34,207.52a23.88,23.88,0,0,1,.2-7.21h0" />
      <path class="BUNTAI_TURTLE_JEWELRY_TURTLE_JEWELRY_26_cls-5" d="M171.13,221a27.11,27.11,0,0,0-4.38-5.88" />
      <path class="BUNTAI_TURTLE_JEWELRY_TURTLE_JEWELRY_26_cls-5" d="M164.75,194.72a33.77,33.77,0,0,1,3.18,3.26,3.47,3.47,0,0,1,.25.29,36.85,36.85,0,0,1,7.87,16" />
      <path class="BUNTAI_TURTLE_JEWELRY_TURTLE_JEWELRY_26_cls-5" d="M172.06,200a13.9,13.9,0,0,1,2.26,2l-1.64.11a5.2,5.2,0,0,1,3.33,2.72,10.71,10.71,0,0,1,1.09,4.28,24.27,24.27,0,0,1-.26,5.9" />
      <path class="BUNTAI_TURTLE_JEWELRY_TURTLE_JEWELRY_26_cls-5" d="M167.93,198l.25.07a14.34,14.34,0,0,1,3.87,1.94" />
      <path class="BUNTAI_TURTLE_JEWELRY_TURTLE_JEWELRY_26_cls-5" d="M168.18,198.05v.22l0,4.13" />
      <path class="BUNTAI_TURTLE_JEWELRY_TURTLE_JEWELRY_26_cls-5" d="M170.6,194.53a35.94,35.94,0,0,1,7.69,9.53" />
      <path class="BUNTAI_TURTLE_JEWELRY_TURTLE_JEWELRY_26_cls-5" d="M166.23,191.24a33,33,0,0,1,3.59,2.62l.78.66" />
      <path class="BUNTAI_TURTLE_JEWELRY_TURTLE_JEWELRY_26_cls-5" d="M169.82,193.86c.23,0,.47.06.69.11a10.18,10.18,0,0,1,4.79,2.32l-1.91-.49a10.86,10.86,0,0,1,4.11,4.9,10.5,10.5,0,0,1,.79,3.36h0q0,.44,0,.87" />
      <path class="BUNTAI_TURTLE_JEWELRY_TURTLE_JEWELRY_26_cls-5" d="M173.5,200.45a6,6,0,0,0,1,1.39,38.94,38.94,0,0,0,3.83,3.1h0" />
      <path class="BUNTAI_TURTLE_JEWELRY_TURTLE_JEWELRY_26_cls-5" d="M170.6,194.52h0a28,28,0,0,0,1.45,5.46h0" />
      <path class="BUNTAI_TURTLE_JEWELRY_TURTLE_JEWELRY_26_cls-5" d="M172.2,211.12c.32.32.65.61,1,.89.94.78,1.94,1.49,2.86,2.28.27.23.53.47.79.72" />
      <g class="BUNTAI_TURTLE_JEWELRY_TURTLE_JEWELRY_26_cls-6">
        <path d="M140.64,194.2s-3.19.13-4.28,2.62a12.12,12.12,0,0,0-2.8,7.77c1.86-1.38,2.73-2.1,2.73-2.1a33.72,33.72,0,0,1,2.48-5.22,28.3,28.3,0,0,1-1.39,6s-4.21,5.14-2.42,11c2.19-4.58,5.16-11.8,5.16-11.8a80.46,80.46,0,0,0-1,8.49c0,2.18.11,6.55,1.55,9,2.27-2.86,3.29-4.36,3.29-4.36s.86-.65,1.25-4.68,1-7.69,1-7.69l-3.2,8.39,1.66-9.66,2.23-.56s-.12,6.72-.21,10.26.79,11.45,2.36,14.07c1.67-7.4,2.59-12.45,2.76-13.11s1.13,2.46,1.13,2.46.47,9.16,2.83,11.45c.58-9.75,1.54-17.71,1.76-19.09s-1-4.25-1-4.25l-.47-.55s-.47,8.24-.33,13.48c-1.39-10.14-1.61-11.93-1.61-11.93L153,206.53l-2.1-2.8s-2,10.72-1.84,13.64l-.35-12.24-1.63.83s.6-5.2,0-5.51a9.3,9.3,0,0,0-3.57,1.76L143,199l-3.33.34Z" />
        <path d="M149.49,181.17A10.35,10.35,0,0,0,146.34,192c1.95,6.91,12.26,10.51,17.82,3.5-3.23,1.95-10.81,4.66-15.17-1.33S149.49,181.17,149.49,181.17Z" />
      </g>
    </g>
  </g>
</svg>