<svg id="jewelries" xmlns="http://www.w3.org/2000/svg" viewBox="0 0 432 432">
  <defs>
    <style>.BUNTAI_TURTLE_JEWELRY_TURTLE_JEWELRY_23_cls-1{fill:#fff;}.BUNTAI_TURTLE_JEWELRY_TURTLE_JEWELRY_23_cls-2{fill:#666;}.BUNTAI_TURTLE_JEWELRY_TURTLE_JEWELRY_23_cls-3{fill:#c7a858;}.BUNTAI_TURTLE_JEWELRY_TURTLE_JEWELRY_23_cls-4,.BUNTAI_TURTLE_JEWELRY_TURTLE_JEWELRY_23_cls-7{fill:none;stroke-linecap:round;stroke-linejoin:round;}.BUNTAI_TURTLE_JEWELRY_TURTLE_JEWELRY_23_cls-4,.BUNTAI_TURTLE_JEWELRY_TURTLE_JEWELRY_23_cls-5,.BUNTAI_TURTLE_JEWELRY_TURTLE_JEWELRY_23_cls-7{stroke:#000;}.BUNTAI_TURTLE_JEWELRY_TURTLE_JEWELRY_23_cls-4{stroke-width:0.88px;}.BUNTAI_TURTLE_JEWELRY_TURTLE_JEWELRY_23_cls-5{fill:#754c24;stroke-miterlimit:10;stroke-width:1.31px;}.BUNTAI_TURTLE_JEWELRY_TURTLE_JEWELRY_23_cls-6{fill:#22b573;}.BUNTAI_TURTLE_JEWELRY_TURTLE_JEWELRY_23_cls-7{stroke-width:0.7px;}</style>
  </defs>
  <path class="BUNTAI_TURTLE_JEWELRY_TURTLE_JEWELRY_23_cls-1" d="M169.51,212.67a12.69,12.69,0,0,1-11.25-3.54,6.19,6.19,0,0,0,4.21-3.42A22.91,22.91,0,0,0,169.51,212.67Z" />
  <path class="BUNTAI_TURTLE_JEWELRY_TURTLE_JEWELRY_23_cls-1" d="M169.67,212.78c-2.14.89-10.15,3.4-17.5-5.47a6.25,6.25,0,0,0,2.46-.36,30.28,30.28,0,0,1-2.95-1.24,32.65,32.65,0,0,1-.35-11.19l2.07-1.28-.35,1.86,1.44-1.14c-.51,4.35-.33,9.24,1.92,12.81a13.93,13.93,0,0,0,1.85,2.36,12.69,12.69,0,0,0,11.25,3.54Z" />
  <path class="BUNTAI_TURTLE_JEWELRY_TURTLE_JEWELRY_23_cls-2" d="M156.15,188.86a19.65,19.65,0,0,0,3.49.86l-2.34,1.07,1.61.57-1.75.57s2,2.68,3.39,3.08a9.83,9.83,0,0,1-4.36-.84l-.84,2.08-.86-2.29a48.52,48.52,0,0,1,.91-5.1Z" />
  <path class="BUNTAI_TURTLE_JEWELRY_TURTLE_JEWELRY_23_cls-1" d="M155.35,196.25l.84-2.08.05,1.51s1.46,4.72,3.67,5.92c-1.55,3.63-1.55,4.38-1.55,4.38l2.87-3.19a9.15,9.15,0,0,0,1.24,2.92,6.19,6.19,0,0,1-4.21,3.42,13.93,13.93,0,0,1-1.85-2.36c-2.25-3.57-2.43-8.46-1.92-12.81Z" />
  <path class="BUNTAI_TURTLE_JEWELRY_TURTLE_JEWELRY_23_cls-2" d="M155.4,188.86a48.52,48.52,0,0,0-.91,5.1l-1.44,1.14.35-1.86-2.07,1.28a5.27,5.27,0,0,1-2,1.16,10.28,10.28,0,0,0,1.81-3.28l-1-.44,1.38-1.11-1.24-1.5s2.34,0,2.61-.09,1.75-.4,1.75-.4Z" />
  <path class="BUNTAI_TURTLE_JEWELRY_TURTLE_JEWELRY_23_cls-3" d="M157.11,180.11a2.33,2.33,0,0,1-.15,4.65,2.6,2.6,0,0,1-.4,0,2.33,2.33,0,0,1,.4-4.63Z" />
  <path class="BUNTAI_TURTLE_JEWELRY_TURTLE_JEWELRY_23_cls-3" d="M155.74,170a4.48,4.48,0,0,0,2,.42,1.87,1.87,0,0,0,.9-.22c0,.13,0,2-1.54,2s-1.37-2.24-1.37-2.24Z" />
  <path class="BUNTAI_TURTLE_JEWELRY_TURTLE_JEWELRY_23_cls-3" d="M154.39,152.92a12.42,12.42,0,0,1,.37,2.88,3.38,3.38,0,0,0,0,3.62,2.45,2.45,0,0,0,.72.81A5.37,5.37,0,0,0,154,162.5C151.38,160.15,150,155.62,154.39,152.92Z" />
  <path class="BUNTAI_TURTLE_JEWELRY_TURTLE_JEWELRY_23_cls-3" d="M157.72,160.78h0a4.17,4.17,0,0,0-1.84,2.83c-.46,2.2.31,4.66,1.42,4.66s1.25-2.86,1.17-4.38l.1,0a5.1,5.1,0,0,0,1.37-.41c.6,2,.47,5.82-1.28,6.78a1.87,1.87,0,0,1-.9.22,4.48,4.48,0,0,1-2-.42c-1.51-.73-2.27-2.43-2.16-5a8.14,8.14,0,0,1,.46-2.52,5.37,5.37,0,0,1,1.46-2.27,1.93,1.93,0,0,1,1.35-.56,2.26,2.26,0,0,1,1.62,1,2.79,2.79,0,0,1-.72.14Z" />
  <path class="BUNTAI_TURTLE_JEWELRY_TURTLE_JEWELRY_23_cls-3" d="M161,153.36c2,1.9,2.92,8.29-1,10.1a5.1,5.1,0,0,1-1.37.41l-.1,0a5.13,5.13,0,0,1-2.59-.28,4.17,4.17,0,0,1,1.84-2.83h0a2.79,2.79,0,0,0,.72-.14,2,2,0,0,0,1.62-1.89,3.27,3.27,0,0,0-1.44-3S157.8,153,161,153.36Z" />
  <path class="BUNTAI_TURTLE_JEWELRY_TURTLE_JEWELRY_23_cls-4" d="M154,162.5c-2.66-2.35-4-6.88.35-9.58.29,2,.37,2.88.37,2.88a3.38,3.38,0,0,0,0,3.62,2.45,2.45,0,0,0,.72.81" />
  <path class="BUNTAI_TURTLE_JEWELRY_TURTLE_JEWELRY_23_cls-4" d="M157.75,160.77a2.79,2.79,0,0,0,.72-.14,2,2,0,0,0,1.62-1.89,3.27,3.27,0,0,0-1.44-3s-.85-2.67,2.3-2.35c2,1.9,2.92,8.29-1,10.1a5.1,5.1,0,0,1-1.37.41l-.1,0a5.13,5.13,0,0,1-2.59-.28" />
  <path class="BUNTAI_TURTLE_JEWELRY_TURTLE_JEWELRY_23_cls-4" d="M159.93,163.46c.6,2,.47,5.82-1.28,6.78a1.87,1.87,0,0,1-.9.22,4.48,4.48,0,0,1-2-.42c-1.51-.73-2.27-2.43-2.16-5a8.14,8.14,0,0,1,.46-2.52,5.37,5.37,0,0,1,1.46-2.27,1.93,1.93,0,0,1,1.35-.56,2.26,2.26,0,0,1,1.62,1" />
  <path class="BUNTAI_TURTLE_JEWELRY_TURTLE_JEWELRY_23_cls-4" d="M158.46,163.89c.08,1.52.07,4.38-1.17,4.38s-1.88-2.46-1.42-4.66a4.17,4.17,0,0,1,1.84-2.83h0" />
  <path class="BUNTAI_TURTLE_JEWELRY_TURTLE_JEWELRY_23_cls-4" d="M155.74,170s-.27,2.24,1.37,2.24,1.55-1.91,1.54-2h0" />
  <path class="BUNTAI_TURTLE_JEWELRY_TURTLE_JEWELRY_23_cls-4" d="M157.11,180.11a2.33,2.33,0,0,1-.15,4.65,2.6,2.6,0,0,1-.4,0,2.33,2.33,0,0,1,.4-4.63Z" />
  <path class="BUNTAI_TURTLE_JEWELRY_TURTLE_JEWELRY_23_cls-4" d="M155.4,188.86h-.77s-1.49.36-1.75.4-2.61.09-2.61.09l1.24,1.5L150.13,192l1,.44a10.28,10.28,0,0,1-1.81,3.28,5.27,5.27,0,0,0,2-1.16,32.65,32.65,0,0,0,.35,11.19,30.28,30.28,0,0,0,2.95,1.24,6.25,6.25,0,0,1-2.46.36c7.35,8.87,15.36,6.36,17.5,5.47l-.16-.11a22.91,22.91,0,0,1-7-7,9.15,9.15,0,0,1-1.24-2.92L158.36,206s0-.75,1.55-4.38c-2.21-1.2-3.67-5.92-3.67-5.92l-.05-1.51a9.83,9.83,0,0,0,4.36.84c-1.37-.4-3.39-3.08-3.39-3.08l1.75-.57-1.61-.57,2.34-1.07a19.65,19.65,0,0,1-3.49-.86h-.75" />
  <path class="BUNTAI_TURTLE_JEWELRY_TURTLE_JEWELRY_23_cls-4" d="M156.56,184.73c-.3.9-.74,2.36-1.16,4.13a48.52,48.52,0,0,0-.91,5.1c-.51,4.35-.33,9.24,1.92,12.81a13.93,13.93,0,0,0,1.85,2.36,12.69,12.69,0,0,0,11.25,3.54" />
  <path class="BUNTAI_TURTLE_JEWELRY_TURTLE_JEWELRY_23_cls-4" d="M158.26,209.13a6.19,6.19,0,0,0,4.21-3.42" />
  <polyline class="BUNTAI_TURTLE_JEWELRY_TURTLE_JEWELRY_23_cls-4" points="156.19 194.17 155.35 196.25 154.49 193.96 153.05 195.1 153.4 193.24 151.33 194.52" />
  <line class="BUNTAI_TURTLE_JEWELRY_TURTLE_JEWELRY_23_cls-4" x1="157.11" y1="180.11" x2="157.11" y2="172.28" />
  <path class="BUNTAI_TURTLE_JEWELRY_TURTLE_JEWELRY_23_cls-4" d="M163.3,154.48s-2.22-2.29-4.31-.68.1,4.31.1,4.31" />
  <path class="BUNTAI_TURTLE_JEWELRY_TURTLE_JEWELRY_23_cls-5" d="M210.08,356.62l-.08,0-.5.17a4.13,4.13,0,0,1-.42.14l-.4.14h0l0,0-.29.1-.28,0h-.17a.51.51,0,0,1-.17,0h-.12a2.88,2.88,0,0,0-.4-.09l-.86-.21-.52-.13-.47-.11-.09,0c-.89-.22-1.77-.46-2.63-.71-27.88-8-42.1-26.89-49.2-41.79a93,93,0,0,1-5-12.79.12.12,0,0,1,0-.05c-.09-.37-.56-2.78,1.38-3.52a3.79,3.79,0,0,1,3.71.55c.11.39-1,1.29-2.27,2.6,1.23,4.06,2,7.92,4.18,12.46,6.82,14.3,20.43,32.41,46.85,40.33h0c1.25.36,2.5.71,3.8,1l1.81.43.79-.27Z" />
  <path class="BUNTAI_TURTLE_JEWELRY_TURTLE_JEWELRY_23_cls-5" d="M264.78,306.27l-.4,1.13c-.46,1.16-.94,2.33-1.47,3.52-6.47,14.42-20.29,33.49-49.68,44.56l-3.15,1.14-.08,0-.5.17c-.26.09-.57.2-.85.28l0,0-.57.15h-.17l-.23,0h-.06c-.47-.1-1.25-.29-1.78-.43l-.56-.14-.09-2.11.94.23,1.81.43.79-.27,3.46-1.23c28.88-10.8,42.42-29.46,48.73-43.56.63-1.41,1.2-2.74,1.72-4.1a25.25,25.25,0,0,0-2.36-1.18c.76-1.43,3.65-1.43,4.47-.41C265.2,305.06,264.8,306.12,264.78,306.27Z" />
  <path class="BUNTAI_TURTLE_JEWELRY_TURTLE_JEWELRY_23_cls-6" d="M221.72,363.37c1.34,3.42-1.8,7.6-7,9.36s-10.5.41-11.83-3v0c-1.31-3.4,1.82-7.57,7-9.32s10.47-.42,11.83,3h0S221.72,363.36,221.72,363.37Z" />
  <path class="BUNTAI_TURTLE_JEWELRY_TURTLE_JEWELRY_23_cls-3" d="M221.41,362a4.32,4.32,0,0,1,.3,1.36c-1.36-3.38-6.64-4.71-11.83-3s-8.32,5.92-7,9.32a4.56,4.56,0,0,1-.72-1.22c-1-2.45.44-5.32,3.27-7.4a14.26,14.26,0,0,1,3.51-1.87l.44-.16a14.89,14.89,0,0,1,1.76-.48,14.37,14.37,0,0,1,3.14-.32C217.67,358.29,220.5,359.64,221.41,362Z" />
  <path class="BUNTAI_TURTLE_JEWELRY_TURTLE_JEWELRY_23_cls-3" d="M206.87,349.87a2.55,2.55,0,0,0-1.48,3.36,4.89,4.89,0,0,0,.24.64,45.42,45.42,0,0,0,3.3,5.34,14.26,14.26,0,0,0-3.51,1.87c-.91-1.24-3.56-5.12-3.09-7.61A4.44,4.44,0,0,1,206.87,349.87Z" />
  <path class="BUNTAI_TURTLE_JEWELRY_TURTLE_JEWELRY_23_cls-3" d="M212.15,353.7c-1.13.42-2.28.84-3.46,1.24a3.51,3.51,0,0,0-3.06-1.07,5.49,5.49,0,0,1-.24-.64,2.55,2.55,0,0,1,1.48-3.36,4.39,4.39,0,0,1,1.22.2l.2.07.17.07,0,0a5,5,0,0,1,.62.35h0l.21.15a11.81,11.81,0,0,1,2.48,2.51l.21.29Z" />
  <path class="BUNTAI_TURTLE_JEWELRY_TURTLE_JEWELRY_23_cls-3" d="M214.27,358.25a14.31,14.31,0,0,0-3.14.32,12.74,12.74,0,0,0-1-1.95q1.6-.56,3.15-1.14A12.89,12.89,0,0,1,214.27,358.25Z" />
  <path class="BUNTAI_TURTLE_JEWELRY_TURTLE_JEWELRY_23_cls-7" d="M221.71,363.34s0,0,0,0c1.34,3.42-1.8,7.6-7,9.36s-10.5.41-11.83-3v0c-1.31-3.4,1.82-7.57,7-9.32s10.47-.42,11.83,3" />
  <path class="BUNTAI_TURTLE_JEWELRY_TURTLE_JEWELRY_23_cls-7" d="M221.71,363.34h0a4.32,4.32,0,0,0-.3-1.36c-.91-2.34-3.74-3.69-7.14-3.73a14.37,14.37,0,0,0-3.14.32,14.89,14.89,0,0,0-1.76.48l-.44.16a14.26,14.26,0,0,0-3.51,1.87c-2.83,2.08-4.23,4.95-3.27,7.4a4.56,4.56,0,0,0,.72,1.22" />
  <path class="BUNTAI_TURTLE_JEWELRY_TURTLE_JEWELRY_23_cls-7" d="M206.87,349.87a4.39,4.39,0,0,1,1.22.2l.2.07.17.07,0,0,.15.08.47.27h0l.21.15a11.81,11.81,0,0,1,2.48,2.51l.21.29.12.16" />
  <path class="BUNTAI_TURTLE_JEWELRY_TURTLE_JEWELRY_23_cls-7" d="M211.13,358.57a12.74,12.74,0,0,0-1-1.95l3.15-1.14a12.89,12.89,0,0,1,1,2.77" />
  <path class="BUNTAI_TURTLE_JEWELRY_TURTLE_JEWELRY_23_cls-7" d="M205.42,361.08c-.91-1.24-3.56-5.12-3.09-7.61a4.44,4.44,0,0,1,4.54-3.6" />
  <path class="BUNTAI_TURTLE_JEWELRY_TURTLE_JEWELRY_23_cls-7" d="M208.93,359.21a45.42,45.42,0,0,1-3.3-5.34,4.89,4.89,0,0,1-.24-.64,2.55,2.55,0,0,1,1.48-3.36h0" />
  <path class="BUNTAI_TURTLE_JEWELRY_TURTLE_JEWELRY_23_cls-7" d="M205.63,353.87a3.51,3.51,0,0,1,3.06,1.07" />
  <path class="BUNTAI_TURTLE_JEWELRY_TURTLE_JEWELRY_23_cls-7" d="M204.59,366.44s2.62,1.1,6.91-.55,4.72-4,4.72-4" />
  <path class="BUNTAI_TURTLE_JEWELRY_TURTLE_JEWELRY_23_cls-7" d="M214,361.08a7.59,7.59,0,0,1-2,4.63" />
  <path class="BUNTAI_TURTLE_JEWELRY_TURTLE_JEWELRY_23_cls-7" d="M212,362.22s.62,1.95-2.23,4.23" />
  <path class="BUNTAI_TURTLE_JEWELRY_TURTLE_JEWELRY_23_cls-7" d="M208.56,366.68a5.13,5.13,0,0,0,1.85-3.28" />
  <path class="BUNTAI_TURTLE_JEWELRY_TURTLE_JEWELRY_23_cls-7" d="M210.65,366.19s-2.63,2.95-4.06,2.89,0-1.7.74-1.65.25.82-.05.93" />
  <path class="BUNTAI_TURTLE_JEWELRY_TURTLE_JEWELRY_23_cls-7" d="M206.81,370.82a16.56,16.56,0,0,1,4.67-3.19,22.67,22.67,0,0,1,6.77-1.44" />
  <path class="BUNTAI_TURTLE_JEWELRY_TURTLE_JEWELRY_23_cls-7" d="M212.3,370.43a3.1,3.1,0,0,0-2.91-1.68" />
  <path class="BUNTAI_TURTLE_JEWELRY_TURTLE_JEWELRY_23_cls-7" d="M210.65,368s2.72,1,3.27,2.89" />
  <path class="BUNTAI_TURTLE_JEWELRY_TURTLE_JEWELRY_23_cls-7" d="M212.16,367.38s2.38,1.24,2.75,2.52" />
  <path class="BUNTAI_TURTLE_JEWELRY_TURTLE_JEWELRY_23_cls-7" d="M214.56,366.7s2.6.61,3.09,1.8" />
  <path class="BUNTAI_TURTLE_JEWELRY_TURTLE_JEWELRY_23_cls-7" d="M207.69,363.57s-.15,1.32.73,1.46l.87.15S209.5,363.93,207.69,363.57Z" />
  <path class="BUNTAI_TURTLE_JEWELRY_TURTLE_JEWELRY_23_cls-7" d="M211,361.53s-.85.67-.45,1.19l.41.53S211.76,362.65,211,361.53Z" />
  <path class="BUNTAI_TURTLE_JEWELRY_TURTLE_JEWELRY_23_cls-7" d="M214.41,365.81a2.71,2.71,0,0,1,2.32-1.26C216.1,365.69,215.86,365.63,214.41,365.81Z" />
  <path class="BUNTAI_TURTLE_JEWELRY_TURTLE_JEWELRY_23_cls-7" d="M217.6,364.38a1.82,1.82,0,0,1,2.36-.9A2.3,2.3,0,0,1,217.6,364.38Z" />
  <path class="BUNTAI_TURTLE_JEWELRY_TURTLE_JEWELRY_23_cls-7" d="M216.48,363.87s.12-1.9,1.2-2.31A1.93,1.93,0,0,1,216.48,363.87Z" />
  <path class="BUNTAI_TURTLE_JEWELRY_TURTLE_JEWELRY_23_cls-7" d="M217,365.4a2,2,0,0,1,2.46,0A2.2,2.2,0,0,1,217,365.4Z" />
  <path class="BUNTAI_TURTLE_JEWELRY_TURTLE_JEWELRY_23_cls-7" d="M217.33,367.24s.2.94,2,.79C218.88,367.34,218.86,367.09,217.33,367.24Z" />
  <path class="BUNTAI_TURTLE_JEWELRY_TURTLE_JEWELRY_23_cls-7" d="M214.73,367.72a2,2,0,0,1,1.49.6,3.05,3.05,0,0,1,.67,1.48S214.84,369.4,214.73,367.72Z" />
  <path class="BUNTAI_TURTLE_JEWELRY_TURTLE_JEWELRY_23_cls-7" d="M212.76,370.91a1,1,0,0,0,.26,1.26A1,1,0,0,0,212.76,370.91Z" />
</svg>