<svg xmlns="http://www.w3.org/2000/svg" viewBox="0 0 432 432">
  <defs>
    <style>.BUNTAI_RED_PANDA_OUTFIT_BUNTAI_RED_PANDA_OUTFIT_36_cls-1{isolation:isolate;}.BUNTAI_RED_PANDA_OUTFIT_BUNTAI_RED_PANDA_OUTFIT_36_cls-2{fill:#5883dd;}.BUNTAI_RED_PANDA_OUTFIT_BUNTAI_RED_PANDA_OUTFIT_36_cls-3{fill:#eebe90;}.BUNTAI_RED_PANDA_OUTFIT_BUNTAI_RED_PANDA_OUTFIT_36_cls-4{fill:#0f0f18;}.BUNTAI_RED_PANDA_OUTFIT_BUNTAI_RED_PANDA_OUTFIT_36_cls-5{fill:#1b1b24;}.BUNTAI_RED_PANDA_OUTFIT_BUNTAI_RED_PANDA_OUTFIT_36_cls-6{fill:#200b3e;}.BUNTAI_RED_PANDA_OUTFIT_BUNTAI_RED_PANDA_OUTFIT_36_cls-7{fill:#fff;}.BUNTAI_RED_PANDA_OUTFIT_BUNTAI_RED_PANDA_OUTFIT_36_cls-8{fill:none;stroke:#000;stroke-linecap:round;stroke-linejoin:round;stroke-width:2px;}.BUNTAI_RED_PANDA_OUTFIT_BUNTAI_RED_PANDA_OUTFIT_36_cls-9{opacity:0.43;mix-blend-mode:multiply;}</style>
  </defs>
  <g class="BUNTAI_RED_PANDA_OUTFIT_BUNTAI_RED_PANDA_OUTFIT_36_cls-1">
    <g id="outfit">
      <path class="BUNTAI_RED_PANDA_OUTFIT_BUNTAI_RED_PANDA_OUTFIT_36_cls-2" d="M246.85,422.61a1.83,1.83,0,0,0,2.33-.18l1.09-1.14c0,2.33-2.3,6.47-6.17,10.52s-8.14,6.8-10.78,7.19l-.06,0a1.3,1.3,0,0,0-.53-1.46l0,0a1.87,1.87,0,0,0-2-.08c0-2.32,2.31-6.7,6.18-10.76s8.13-6.8,10.78-7.19l-1.07,1.13A1.29,1.29,0,0,0,246.85,422.61Z" />
      <path class="BUNTAI_RED_PANDA_OUTFIT_BUNTAI_RED_PANDA_OUTFIT_36_cls-3" d="M256.6,414.68a11.84,11.84,0,0,1-1.51-1,9,9,0,0,1-1-.88l-.45.46-.22.25h0l0,0,0,0-3,3.18a6.47,6.47,0,0,0-2.25-.31c-4.47.13-10.09,4.39-13.87,8.35-4.69,4.88-8.67,11.58-6.07,15.28l-1.95,2a7,7,0,0,0-2.3-.34c-4.47.12-10.1,4.39-13.88,8.34-3.26,3.42-6.19,7.72-6.76,11.26,1.23-.15,2.43-.3,3.61-.42a25.53,25.53,0,0,1,5.84-8.91c3.87-4,8.14-6.81,10.78-7.19l.05,0-1.1,1.15a1.31,1.31,0,0,0,.23,2v0a1.84,1.84,0,0,0,2.32-.19l1.06-1.1c0,2.33-2.35,6.43-6.17,10.42a38.9,38.9,0,0,1-2.92,2.75q2.7-.24,5.22-.42c.14-.13.26-.26.39-.4a31.64,31.64,0,0,0,5.93-8.27c1.54-3.41,1.16-5.56.23-6.89l2-2.1a6.52,6.52,0,0,0,2.15.28c4.46-.13,10.09-4.39,13.87-8.34a31.5,31.5,0,0,0,5.93-8.27c1.57-3.45,1.16-5.61.21-7l3.12-3.27Zm-12.5,17.13-.92.92c-.26.26-.53.52-.8.76s-.8.74-1.22,1.08l-.24.21c-.66.56-1.32,1.05-1.95,1.5l-.53.37c-.54.37-1.07.69-1.57,1l-.66.36-.64.3a2,2,0,0,1-.31.13c-.2.09-.39.17-.59.24a1.4,1.4,0,0,1-.29.09l-.27.09c-.19.05-.37.1-.54.13l-.25,0,0,0a1.31,1.31,0,0,0-.54-1.46h0a1.83,1.83,0,0,0-2-.09c-.06-2.32,2.3-6.7,6.16-10.76s8.14-6.8,10.79-7.19l-1.07,1.13a1.3,1.3,0,0,0,.21,2,1.84,1.84,0,0,0,2.34-.18l1.08-1.13C250.32,423.61,248,427.76,244.1,431.81Z" />
      <path class="BUNTAI_RED_PANDA_OUTFIT_BUNTAI_RED_PANDA_OUTFIT_36_cls-4" d="M304.19,334.88h0l-1.54-1.61s2.92-2.27,6.13,1.22l-1.39,3.63a82,82,0,0,1-5.2,10.41c-3.67,6.27-20.7,29.52-40.24,45.05-4.16,3.5-6.52,7.81-6.47,11.84a7,7,0,0,0,2.48,5.57,9.87,9.87,0,0,0,7.15,1.9c5-.43,10.19-3.71,14.71-9.21,8.43-10.25,33.15-38.09,48.45-46.56l1.06-.56,2.81-1.35c1.85,1.89,2.73,4,1.73,6.4-.82-.64-1.61-1.28-2.41-1.92-13.53,6.88-37.94,33.6-48.21,46.1-9.47,11.51-20.3,12.57-26.63,8.9a10.84,10.84,0,0,1-1.51-1,9,9,0,0,1-1-.88c-4.92-5.1-3.67-14.66,4.91-21.84,18.52-14.7,35.32-37.11,39.39-44.05A72.22,72.22,0,0,0,304.19,334.88Z" />
      <path class="BUNTAI_RED_PANDA_OUTFIT_BUNTAI_RED_PANDA_OUTFIT_36_cls-5" d="M331.77,354.85c-.12-.11-.24-.23-.37-.33l-.32-.29c-.29-.24-.59-.48-.92-.72h0c-.36-.28-.74-.53-1.13-.8a44.7,44.7,0,0,0-4.13-2.41c-.48-.25-1-.53-1.45-.83a42.52,42.52,0,0,1-8.36-7.1,54.21,54.21,0,0,1-5.27-6.58,14.08,14.08,0,0,0-1-1.3l-1.39,3.63a83.43,83.43,0,0,1-5.2,10.41q-.1.17-.21.36l-.24.39-.27.42-.22.36c-.32.5-.69,1-1.09,1.65l-.39.57c-.48.7-1,1.45-1.58,2.26-.12.15-.24.32-.35.48-1.14,1.57-2.44,3.33-3.9,5.21l-.56.72-.66.85-.68.87-1.43,1.77-.63.77c-1.76,2.16-3.66,4.41-5.69,6.71-.65.74-1.31,1.49-2,2.24l-1.46,1.6q-1.71,1.85-3.49,3.69-.56.58-1.14,1.17c-2.18,2.22-4.44,4.42-6.77,6.55l-1.48,1.33-1.48,1.3c-.46.41-.93.8-1.39,1.2-1,.88-2.08,1.74-3.14,2.58-4.16,3.5-6.52,7.82-6.47,11.84A7,7,0,0,0,258,411a9.89,9.89,0,0,0,7.14,1.91c5-.44,10.2-3.71,14.72-9.22.55-.68,1.18-1.42,1.87-2.24l.91-1.08c1.64-1.93,3.59-4.16,5.74-6.58l1.16-1.3c2.46-2.74,5.17-5.69,8-8.68l.55-.58a3.7,3.7,0,0,1,.28-.28l1.2-1.25.05-.06s0,0,.06-.05a.16.16,0,0,1,0-.06h0c2.83-2.93,5.78-5.86,8.73-8.66l1.4-1.31c.4-.39.8-.75,1.21-1.12l1.32-1.21,1.3-1.17,1.73-1.51c.73-.62,1.44-1.23,2.16-1.81.42-.35.83-.7,1.25-1s1.08-.86,1.6-1.27a64.16,64.16,0,0,1,7.83-5.3c.36-.2.71-.39,1.06-.56l2.81-1.35Zm-66.54,53.44c-2.57,0-4.66-1.8-4.66-4s2.09-4,4.66-4,4.66,1.8,4.66,4S267.8,408.29,265.23,408.29Zm8.57-11.73a1.81,1.81,0,1,1,2.07-1.79A1.94,1.94,0,0,1,273.8,396.56Zm17.56-23.14c2.56,0,4.65,1.81,4.65,4s-2.09,4-4.65,4-4.66-1.81-4.66-4S288.78,373.42,291.36,373.42Zm-10.73,15.25-.1-.06a.36.36,0,0,1-.12-.08,1.64,1.64,0,0,1-.44-.43,1.22,1.22,0,0,1-.12-.19,1,1,0,0,1-.1-.24.83.83,0,0,1-.07-.27,1.09,1.09,0,0,1,0-.26,1.55,1.55,0,0,1,.11-.56,1.21,1.21,0,0,1,.09-.2.67.67,0,0,1,.09-.14,1.16,1.16,0,0,1,.16-.21l0,0a1.29,1.29,0,0,1,.21-.19h0l.12-.09a.39.39,0,0,1,.11-.06,1.62,1.62,0,0,1,.42-.19l.25-.07.1,0a2.38,2.38,0,0,1,.39,0,1.81,1.81,0,1,1,0,3.59h-.24l-.23,0-.23-.06-.21-.08ZM300.53,369a2,2,0,0,1-2.12-1.74,1.92,1.92,0,0,1,2-1.84,2,2,0,0,1,2.13,1.74A1.93,1.93,0,0,1,300.53,369Zm7.72-7.8a2,2,0,0,1-2.13-1.75,1.93,1.93,0,0,1,2-1.84,2,2,0,0,1,2.13,1.75A1.93,1.93,0,0,1,308.25,361.2Zm9.19-9.43a1.42,1.42,0,0,1-.08.18,1.13,1.13,0,0,1-.13.2l0,0a2,2,0,0,1-.25.26l-.06.06-.13.1-.11.06-.23.12-.25.1a2.33,2.33,0,0,1-.65.11,2,2,0,0,1-2.13-1.75v0a1.55,1.55,0,0,1,0-.22,1.16,1.16,0,0,1,0-.18.65.65,0,0,1,0-.13,1.21,1.21,0,0,1,.05-.14,2.14,2.14,0,0,1,.2-.32,1.34,1.34,0,0,1,.11-.14L314,350a1.69,1.69,0,0,1,.29-.22l.17-.09.16-.07a1.86,1.86,0,0,1,.54-.14,1.23,1.23,0,0,1,.27,0,2,2,0,0,1,2.13,1.74v.13a1,1,0,0,1,0,.18,1.76,1.76,0,0,1-.07.27h0Z" />
      <path class="BUNTAI_RED_PANDA_OUTFIT_BUNTAI_RED_PANDA_OUTFIT_36_cls-2" d="M349.53,373.57a66.8,66.8,0,0,1-24.84,32.61c0,.32-.07.65-.12,1q-.12.78-.3,1.56c0,.17-.08.33-.13.49a8.94,8.94,0,0,1-.27.88.56.56,0,0,1,0,.12,3.41,3.41,0,0,1-.18.48.61.61,0,0,1,0,.12,4.32,4.32,0,0,1-.19.45,2.24,2.24,0,0,1-.13.27c-.08.18-.18.35-.27.53a3,3,0,0,1-.17.28,5.35,5.35,0,0,1-.34.54,45.4,45.4,0,0,1,.53,6.9c0,.22,0,.45,0,.69v.13c0,.31,0,.62,0,.93s0,.65,0,1-.06.77-.1,1.16c0,.17,0,.33-.06.51l-.06.57s0,.08,0,.12c0,.24-.06.49-.09.74s-.08.57-.13.85A36.6,36.6,0,0,1,319,437.15c-3.44,6.73-9.41,13.26-19.11,18.84-16.67,5.62-25.61,4.12-41.76,3.19a263.86,263.86,0,0,0-35.9.28c.14-.13.26-.26.39-.4a31.64,31.64,0,0,0,5.93-8.27c1.54-3.41,1.16-5.56.23-6.89l2-2.1a6.52,6.52,0,0,0,2.15.28c4.46-.13,10.09-4.39,13.87-8.34a31.5,31.5,0,0,0,5.93-8.27c1.57-3.45,1.16-5.61.21-7l3.12-3.27.55-.57a15.13,15.13,0,0,0,8.84,1.82,20,20,0,0,0,6-1.49l.14-.06a30.83,30.83,0,0,0,11.68-9.18c3.82-4.64,9.57-11.23,16-18,10.9-11.54,23.72-23.72,32.23-28.05l2.41,1.92v0c2.45,1.95,5,4,7.91,6.42A60.12,60.12,0,0,0,349.53,373.57Z" />
      <path class="BUNTAI_RED_PANDA_OUTFIT_BUNTAI_RED_PANDA_OUTFIT_36_cls-2" d="M304.19,334.88a73.22,73.22,0,0,1-5.76,12c-2.79,4.75-11.52,16.73-22.69,28.53l-.07.08A161.66,161.66,0,0,1,259,390.92a26,26,0,0,0-3.58,3.63,20.93,20.93,0,0,0-1.68,2.4c-.12.19-.23.38-.34.58l0,0a16.57,16.57,0,0,0-1.28,2.84c-1.67,4.73-.93,9.33,2,12.35l-.45.46-.22.25h0l0,0-3.07,3.21a6.47,6.47,0,0,0-2.25-.31c-4.47.13-10.09,4.39-13.87,8.35-4.69,4.88-8.67,11.58-6.07,15.28l-1.95,2a7,7,0,0,0-2.3-.34c-4.47.12-10.1,4.39-13.88,8.34-3.26,3.42-6.19,7.72-6.76,11.26-1.29.15-2.61.31-3.95.49a114.51,114.51,0,0,1-24.74.65,71.12,71.12,0,0,1-21.5-5l-.08,0a26.75,26.75,0,0,1-3-1.45c-1.49-.86-2.9-1.74-4.22-2.66,0,0,0,0,0,0a.14.14,0,0,1,0-.06c0-.06.06-.15.11-.27a.89.89,0,0,1,.07-.19c.06-.15.13-.33.22-.54l.18-.41.21-.47c.07-.17.16-.34.24-.53a76.29,76.29,0,0,1,5.31-9.32c.24-.37.49-.74.75-1.12a113.17,113.17,0,0,1,6.9-9.11l.42-.49c2.18-2.57,4.66-5.28,7.47-8.09.14-.14.28-.27.41-.41l1.15-1.12c.77-.76,1.58-1.52,2.41-2.29l.22-.2q1.73-1.6,3.61-3.24l1.27-1.09c.42-.37.86-.73,1.3-1.09.88-.74,1.78-1.48,2.71-2.22l1.4-1.1,1.44-1.12,1.47-1.12,1.47-1.08,1.69-1.23,1.48-1.05c.45-.33.9-.63,1.36-.95s.91-.63,1.37-.94c.73-.5,1.48-1,2.23-1.49,10.11-6.66,25.06-13.79,41-22.05l3.63-1.89,1.94-1,1.86-1,1.87-1,1.66-.89L247,373l4.61-2.54.78-.44c.87-.48,1.74-1,2.61-1.48s1.54-.88,2.3-1.32l.79-.46,1.84-1.09c3-1.79,6-3.63,8.91-5.53.65-.41,1.29-.83,1.92-1.25.85-.57,1.7-1.13,2.53-1.71s1.57-1.08,2.34-1.62l.44-.32c.63-.44,1.25-.88,1.88-1.34.91-.66,1.82-1.33,2.72-2,.72-.53,1.42-1.08,2.11-1.62l.77-.62c.52-.4,1-.82,1.56-1.25l.33-.27q1.11-.9,2.19-1.83c.65-.55,1.29-1.11,1.92-1.67s1.24-1.11,1.84-1.67l.07-.06c.6-.55,1.18-1.11,1.75-1.66q3.07-3,5.81-6.07c.43-.49.85-1,1.26-1.48l0,0c.42-.49.82-1,1.23-1.49l.36.38c.24.25.48.5.73.74.52.56,1,1.09,1.55,1.62Z" />
      <path class="BUNTAI_RED_PANDA_OUTFIT_BUNTAI_RED_PANDA_OUTFIT_36_cls-3" d="M315.42,349.41a1.93,1.93,0,0,0-2,1.84,2,2,0,0,0,2.13,1.75,1.94,1.94,0,0,0,2-1.84A2,2,0,0,0,315.42,349.41Z" />
      <path class="BUNTAI_RED_PANDA_OUTFIT_BUNTAI_RED_PANDA_OUTFIT_36_cls-3" d="M300.43,365.41a1.93,1.93,0,0,0-2,1.85,2,2,0,0,0,2.13,1.75,1.94,1.94,0,0,0,2-1.85A2,2,0,0,0,300.43,365.41Z" />
      <path class="BUNTAI_RED_PANDA_OUTFIT_BUNTAI_RED_PANDA_OUTFIT_36_cls-3" d="M265.23,400.23c-2.57,0-4.66,1.8-4.66,4s2.09,4,4.66,4,4.66-1.8,4.66-4S267.8,400.23,265.23,400.23Z" />
      <path class="BUNTAI_RED_PANDA_OUTFIT_BUNTAI_RED_PANDA_OUTFIT_36_cls-3" d="M308.14,357.61a1.93,1.93,0,0,0-2,1.84,2,2,0,0,0,2.13,1.75,1.94,1.94,0,0,0,2-1.84A2,2,0,0,0,308.14,357.61Z" />
      <path class="BUNTAI_RED_PANDA_OUTFIT_BUNTAI_RED_PANDA_OUTFIT_36_cls-3" d="M319.82,340.24a6.2,6.2,0,0,0-4.77,2.11,42.86,42.86,0,0,0,8.36,7.1,4.91,4.91,0,0,0,2.34-4.08C325.75,342.54,323.1,340.24,319.82,340.24Z" />
      <path class="BUNTAI_RED_PANDA_OUTFIT_BUNTAI_RED_PANDA_OUTFIT_36_cls-3" d="M281.73,385.35a1.81,1.81,0,1,0,2.07,1.79A1.95,1.95,0,0,0,281.73,385.35Z" />
      <path class="BUNTAI_RED_PANDA_OUTFIT_BUNTAI_RED_PANDA_OUTFIT_36_cls-3" d="M273.8,393a1.81,1.81,0,1,0,2.07,1.8A2,2,0,0,0,273.8,393Z" />
      <path class="BUNTAI_RED_PANDA_OUTFIT_BUNTAI_RED_PANDA_OUTFIT_36_cls-3" d="M291.35,373.42c-2.57,0-4.65,1.81-4.65,4s2.08,4,4.65,4,4.66-1.81,4.66-4S293.92,373.42,291.35,373.42Z" />
      <path class="BUNTAI_RED_PANDA_OUTFIT_BUNTAI_RED_PANDA_OUTFIT_36_cls-6" d="M366.17,379.14c-3.46,19.35-20.33,37.36-43.67,47.31h0c.05-.28.09-.57.13-.85s.08-.57.11-.86a41.62,41.62,0,0,0,.3-4.28c0-.24,0-.47,0-.69a45.4,45.4,0,0,0-.53-6.9c.12-.18.24-.36.34-.54a10.51,10.51,0,0,0,.81-1.65,16.45,16.45,0,0,0,1-4.51,66.8,66.8,0,0,0,24.84-32.61,45.37,45.37,0,0,0,8.83,4.09A24.5,24.5,0,0,0,366.17,379.14Z" />
      <path class="BUNTAI_RED_PANDA_OUTFIT_BUNTAI_RED_PANDA_OUTFIT_36_cls-6" d="M295.06,333.5c-.31.42,6.81-1.8,6.48-1.38s-.81,1-1.23,1.49l0,0c-.41.5-.83,1-1.26,1.48q-2.73,3.12-5.81,6.07l-1.75,1.66-.07.06c-.61.56-1.22,1.12-1.84,1.67s-1.27,1.12-1.92,1.67a2.11,2.11,0,0,1-.23.19c-.64.55-1.29,1.1-2,1.64l-.33.27-1.56,1.25-.77.62c-.69.54-1.39,1.08-2.11,1.62-.9.69-1.81,1.36-2.72,2l-1.88,1.34-.44.32-2.34,1.62c-.83.58-1.68,1.14-2.53,1.71-.63.42-1.27.84-1.92,1.25-2.92,1.9-5.9,3.74-8.91,5.53l-1.84,1.09-.79.46c-.76.45-1.53.89-2.3,1.32s-1.74,1-2.61,1.48l-.78.44q-2,1.14-4.08,2.24l-.53.3-.27.14-1.66.89-1.87,1-1.86,1-1.94,1-3.63,1.89c-16,8.26-30.92,15.39-41,22.05-.75.49-1.5,1-2.23,1.49-.46.31-.92.62-1.37.94s-.91.62-1.36.95l-1.48,1.05-1.69,1.23-1.47,1.08-1.47,1.12-1.44,1.12-1.4,1.1c-.93.74-1.83,1.48-2.71,2.22-.44.36-.88.72-1.3,1.09l-1.27,1.09q-1.87,1.63-3.61,3.24l-.22.2c-.83.77-1.64,1.53-2.41,2.29l-1.15,1.12c-.13.14-.27.27-.41.41-2.81,2.81-5.29,5.52-7.47,8.09l-.42.49a113.17,113.17,0,0,0-6.9,9.11c-.26.38-.51.75-.75,1.12a76.29,76.29,0,0,0-5.31,9.32c-.08.19-.17.36-.24.53l-.21.47-.18.41c-.09.21-.16.39-.22.54a.89.89,0,0,0-.07.19c-.05.12-.09.21-.11.27a.14.14,0,0,0,0,.06s0,0,0,0A47.34,47.34,0,0,1,134.67,443h0l.05-.13.21-.42a1.07,1.07,0,0,0,.07-.15c.19-.37.46-.9.82-1.56l.29-.53q.7-1.29,1.8-3.09c.18-.29.36-.6.55-.9l.92-1.46.34-.51c1.47-2.25,3.3-4.88,5.53-7.77.32-.42.64-.84,1-1.27,2.08-2.64,4.48-5.49,7.22-8.48q.5-.56,1-1.11,3.22-3.48,7.09-7.16l1.77-1.65c.59-.55,1.21-1.11,1.83-1.67,1.79-1.6,3.66-3.22,5.63-4.84.49-.41,1-.81,1.5-1.22,2.13-1.72,4.37-3.46,6.72-5.18.41-.31.83-.61,1.25-.91l1.76-1.26c.57-.41,1.16-.82,1.75-1.22l1.79-1.22c.6-.41,1.21-.82,1.83-1.22,1.35-.89,2.81-1.8,4.34-2.71.83-.5,1.68-1,2.56-1.51,4.47-2.58,9.52-5.24,14.93-8l1.82-.94,1.84-.94.79-.4c-22.91-11.88-41.84-18.89-57.59-37.27,1.33-.16,4.6-.72,5.92-1.07h0l7.91-2.27,7.08-2.88c17.64,21.64,27.16,22.07,52.93,35.17,23.76-12.33,35.67-14.76,51-34.21l9.58,1.69Z" />
      <path class="BUNTAI_RED_PANDA_OUTFIT_BUNTAI_RED_PANDA_OUTFIT_36_cls-6" d="M127.42,412.87h0A12.73,12.73,0,0,1,125.5,408h0c-24-13.18-31.07-34.44-31.07-34.44-11.06,5.84-18.7,5.57-18.7,5.57,4,20,23.66,43.26,51.8,47.82A43.05,43.05,0,0,1,127.42,412.87Z" />
      <path class="BUNTAI_RED_PANDA_OUTFIT_BUNTAI_RED_PANDA_OUTFIT_36_cls-7" d="M213.67,373.57l-.79.4c-9.89,5-18.76,9.69-25.49,14.12a186.79,186.79,0,0,0-22.23,17.07C145.27,423,136.73,438.86,135,442.32c-.21.42-.31.66-.33.7a36.51,36.51,0,0,1-6.4-12.79c-.3-1.1-.55-2.19-.74-3.28a43,43,0,0,1-.11-14.08h0a10,10,0,0,1-1-1.87,14.27,14.27,0,0,1-.9-3h0c-.85-.47-1.68-.95-2.5-1.44-1.21-.72-2.38-1.47-3.49-2.23-19.23-13.11-25.07-30.77-25.07-30.77,2.71-1.44,11.79-14.12,14.87-16.4,15.5-11.48,20.78-13.25,46.22-20.85.1-.08.46.08.56,0C171.83,354.68,190.76,361.69,213.67,373.57Z" />
      <path class="BUNTAI_RED_PANDA_OUTFIT_BUNTAI_RED_PANDA_OUTFIT_36_cls-8" d="M295.06,333.5c1.72.19,6.81-1.8,6.48-1.38s-.81,1-1.23,1.49l0,0c-.41.5-.83,1-1.26,1.48q-2.73,3.12-5.81,6.07c-.57.55-1.15,1.11-1.75,1.66l-.07.06c-.6.56-1.21,1.12-1.84,1.67s-1.27,1.12-1.92,1.67-1.45,1.23-2.19,1.83l-.33.27c-.52.43-1,.85-1.56,1.25l-.77.62c-.69.54-1.39,1.09-2.11,1.62-.9.69-1.81,1.36-2.72,2-.63.46-1.25.9-1.88,1.34l-.44.32c-.77.54-1.55,1.09-2.34,1.62s-1.68,1.14-2.53,1.71c-.63.42-1.27.84-1.92,1.25-2.92,1.9-5.9,3.74-8.91,5.53l-1.84,1.09-.79.46c-.76.44-1.53.89-2.3,1.32s-1.74,1-2.61,1.48l-.78.44L247,373l-.27.14-1.66.89-1.87,1-1.86,1-1.94,1-3.63,1.89c-16,8.26-30.92,15.39-41,22.05-.75.49-1.5,1-2.23,1.49-.46.31-.92.62-1.37.94s-.91.62-1.36.95-1,.7-1.48,1.05l-1.69,1.23q-.75.52-1.47,1.08l-1.47,1.12c-.49.37-1,.74-1.44,1.12s-.95.73-1.4,1.1c-.93.74-1.83,1.48-2.71,2.22-.44.36-.88.72-1.3,1.09s-.86.73-1.27,1.09q-1.89,1.63-3.61,3.24l-.22.2c-.83.77-1.64,1.53-2.41,2.28l-1.15,1.13c-.13.14-.27.27-.41.41-2.81,2.81-5.29,5.52-7.47,8.09l-.42.49a113.17,113.17,0,0,0-6.9,9.11c-.26.38-.51.75-.75,1.12a76.29,76.29,0,0,0-5.31,9.32c-.08.19-.17.36-.24.53l-.21.47-.18.41c-.09.21-.16.39-.22.54a.89.89,0,0,0-.07.19c-.05.12-.09.21-.11.27a.14.14,0,0,0,0,.06s0,0,0,0h0" />
      <path class="BUNTAI_RED_PANDA_OUTFIT_BUNTAI_RED_PANDA_OUTFIT_36_cls-8" d="M134.67,443h0c.2-.43,13.31-29,52.71-54.92,6.91-4.55,16.08-9.32,26.3-14.53,5.19-2.64,10.66-5.4,16.24-8.31,23.77-12.34,35.67-14.75,51-34.21" />
      <path class="BUNTAI_RED_PANDA_OUTFIT_BUNTAI_RED_PANDA_OUTFIT_36_cls-8" d="M213.67,373.57c-22.91-11.88-41.84-18.89-57.59-37.27a49.14,49.14,0,0,0,5.92-1.07" />
      <path class="BUNTAI_RED_PANDA_OUTFIT_BUNTAI_RED_PANDA_OUTFIT_36_cls-8" d="M177,330.08c17.65,21.64,27.16,22.07,52.93,35.17" />
      <polyline class="BUNTAI_RED_PANDA_OUTFIT_BUNTAI_RED_PANDA_OUTFIT_36_cls-8" points="280.88 331.04 290.46 332.73 295.06 333.5" />
      <polyline class="BUNTAI_RED_PANDA_OUTFIT_BUNTAI_RED_PANDA_OUTFIT_36_cls-8" points="176.99 330.08 169.91 332.96 162 335.23 162 335.23" />
      <path class="BUNTAI_RED_PANDA_OUTFIT_BUNTAI_RED_PANDA_OUTFIT_36_cls-8" d="M156.08,336.3c-.1.1-.46-.06-.56,0-24.09,6.76-30.72,9.37-46.22,20.85-3.08,2.28-12.16,15-14.87,16.4a54.73,54.73,0,0,1-9.27,3.89l-.09,0a31.39,31.39,0,0,1-9.35,1.65c.12.62.26,1.26.42,1.88,2.68,10.87,9.84,22.49,20.34,31.41l.15.13A65.43,65.43,0,0,0,113,422.73c.58.25,1.15.48,1.74.71h0c.93.37,1.87.71,2.81,1,1.81.61,3.66,1.15,5.56,1.59h0c1.23.3,2.47.55,3.74.77l.64.1" />
      <path class="BUNTAI_RED_PANDA_OUTFIT_BUNTAI_RED_PANDA_OUTFIT_36_cls-8" d="M94.42,373.56s7,21.27,31.07,34.45" />
      <path class="BUNTAI_RED_PANDA_OUTFIT_BUNTAI_RED_PANDA_OUTFIT_36_cls-8" d="M301.54,332.12l.36.38c.24.25.48.5.73.74.52.56,1,1.09,1.55,1.62h0" />
      <path class="BUNTAI_RED_PANDA_OUTFIT_BUNTAI_RED_PANDA_OUTFIT_36_cls-8" d="M322.49,426.46h0c23.34-9.95,40.21-28,43.67-47.31a24.5,24.5,0,0,1-7.81-1.48,45.37,45.37,0,0,1-8.83-4.09,60.12,60.12,0,0,1-7.77-5.54c-2.89-2.4-5.46-4.47-7.91-6.42" />
      <path class="BUNTAI_RED_PANDA_OUTFIT_BUNTAI_RED_PANDA_OUTFIT_36_cls-8" d="M331.44,359.67c.8.64,1.59,1.28,2.41,1.92" />
      <path class="BUNTAI_RED_PANDA_OUTFIT_BUNTAI_RED_PANDA_OUTFIT_36_cls-8" d="M324.69,406.18a66.84,66.84,0,0,0,24.84-32.62" />
      <path class="BUNTAI_RED_PANDA_OUTFIT_BUNTAI_RED_PANDA_OUTFIT_36_cls-8" d="M127.42,412.86a61,61,0,0,1,8-21.94" />
      <path class="BUNTAI_RED_PANDA_OUTFIT_BUNTAI_RED_PANDA_OUTFIT_36_cls-8" d="M127.42,412.87a43,43,0,0,0,.11,14.08c.1.55.2,1.09.33,1.64,0,.24.11.47.17.72,0,.07,0,.15.05.23s.12.45.19.69.14.51.21.76l0,0c.14.51.31,1,.49,1.52.32.94.69,1.88,1.11,2.81.1.24.21.47.31.69s.29.61.45.91a33.76,33.76,0,0,0,2.21,3.81c.15.23.3.46.46.68.36.52.74,1.05,1.14,1.57h0a47.34,47.34,0,0,0,11.16,10.31c1.32.92,2.73,1.8,4.22,2.66a26.75,26.75,0,0,0,3,1.45l.08,0a56.48,56.48,0,0,0,6.42,2.26l1.09.29.06,0c.42.12.85.22,1.28.33l.7.17q1.88.45,4,.84l2,.34c1.71.27,3.55.5,5.5.68l.45,0,1.17.1,1.87.12,1,.05.61,0,.88,0a119.1,119.1,0,0,0,19.25-1c1.34-.18,2.66-.34,3.95-.49s2.43-.3,3.61-.42c3.56-.41,6.92-.74,10.1-1q2.7-.24,5.22-.42a263.86,263.86,0,0,1,35.9-.28c16.15.93,25.09,2.43,41.76-3.19,9.7-5.58,15.67-12.11,19.11-18.84a36.6,36.6,0,0,0,3.51-10.69c.05-.28.09-.57.13-.85s.07-.5.09-.74c0,0,0-.08,0-.12l.06-.57c0-.18,0-.34.06-.51,0-.39.07-.78.1-1.16s0-.66,0-1,0-.62,0-.93v-.13c0-.24,0-.47,0-.69a45.4,45.4,0,0,0-.53-6.9,60.92,60.92,0,0,0-8-22" />
      <path class="BUNTAI_RED_PANDA_OUTFIT_BUNTAI_RED_PANDA_OUTFIT_36_cls-8" d="M125.7,396.89a31.72,31.72,0,0,0-.2,11.12,12.73,12.73,0,0,0,1.92,4.85h0" />
      <path class="BUNTAI_RED_PANDA_OUTFIT_BUNTAI_RED_PANDA_OUTFIT_36_cls-8" d="M324.22,396.89a33.2,33.2,0,0,1,.47,9.29,14.37,14.37,0,0,1-2.18,6.69" />
      <path class="BUNTAI_RED_PANDA_OUTFIT_BUNTAI_RED_PANDA_OUTFIT_36_cls-8" d="M332.12,355.19l-2.81,1.35-1.06.56c-15.3,8.47-40,36.31-48.45,46.56-4.52,5.5-9.75,8.78-14.71,9.21a9.87,9.87,0,0,1-7.15-1.9,7,7,0,0,1-2.48-5.57c-.05-4,2.31-8.34,6.47-11.84,19.54-15.53,36.57-38.78,40.24-45.05a82,82,0,0,0,5.2-10.41l1.39-3.63" />
      <path class="BUNTAI_RED_PANDA_OUTFIT_BUNTAI_RED_PANDA_OUTFIT_36_cls-8" d="M304.19,334.87h0a72.22,72.22,0,0,1-5.76,12c-4.07,6.94-20.87,29.35-39.39,44.05-8.58,7.18-9.83,16.74-4.91,21.84a9,9,0,0,0,1,.88,10.84,10.84,0,0,0,1.51,1c6.33,3.67,17.16,2.61,26.63-8.9,10.27-12.5,34.68-39.22,48.21-46.1" />
      <path class="BUNTAI_RED_PANDA_OUTFIT_BUNTAI_RED_PANDA_OUTFIT_36_cls-8" d="M302.63,333.25s2.92-2.27,6.13,1.22a13.52,13.52,0,0,1,1,1.29,53.64,53.64,0,0,0,5.28,6.59,42.86,42.86,0,0,0,8.36,7.1c.49.3,1,.58,1.45.83a30.12,30.12,0,0,1,7.26,4.91c1.85,1.89,2.73,4,1.73,6.4h0" />
      <path class="BUNTAI_RED_PANDA_OUTFIT_BUNTAI_RED_PANDA_OUTFIT_36_cls-8" d="M323.41,349.45a4.91,4.91,0,0,0,2.34-4.08c0-2.83-2.65-5.13-5.93-5.13a6.2,6.2,0,0,0-4.77,2.11" />
      <path class="BUNTAI_RED_PANDA_OUTFIT_BUNTAI_RED_PANDA_OUTFIT_36_cls-8" d="M269.89,404.26c0,2.23-2.09,4-4.66,4s-4.66-1.8-4.66-4,2.09-4,4.66-4S269.89,402,269.89,404.26Z" />
      <path class="BUNTAI_RED_PANDA_OUTFIT_BUNTAI_RED_PANDA_OUTFIT_36_cls-8" d="M275.87,394.77a2.1,2.1,0,1,1-2.07-1.8A1.95,1.95,0,0,1,275.87,394.77Z" />
      <path class="BUNTAI_RED_PANDA_OUTFIT_BUNTAI_RED_PANDA_OUTFIT_36_cls-8" d="M283.8,387.14a2.1,2.1,0,1,1-2.07-1.79A1.95,1.95,0,0,1,283.8,387.14Z" />
      <path class="BUNTAI_RED_PANDA_OUTFIT_BUNTAI_RED_PANDA_OUTFIT_36_cls-8" d="M302.56,367.16a1.94,1.94,0,0,1-2,1.85,2,2,0,0,1-2.13-1.75,1.93,1.93,0,0,1,2-1.85A2,2,0,0,1,302.56,367.16Z" />
      <path class="BUNTAI_RED_PANDA_OUTFIT_BUNTAI_RED_PANDA_OUTFIT_36_cls-8" d="M317.55,351.16a1.94,1.94,0,0,1-2,1.84,2,2,0,0,1-2.13-1.75,1.93,1.93,0,0,1,2-1.84A2,2,0,0,1,317.55,351.16Z" />
      <path class="BUNTAI_RED_PANDA_OUTFIT_BUNTAI_RED_PANDA_OUTFIT_36_cls-8" d="M310.27,359.36a1.94,1.94,0,0,1-2,1.84,2,2,0,0,1-2.13-1.75,1.93,1.93,0,0,1,2-1.84A2,2,0,0,1,310.27,359.36Z" />
      <path class="BUNTAI_RED_PANDA_OUTFIT_BUNTAI_RED_PANDA_OUTFIT_36_cls-8" d="M296,377.46c0,2.22-2.09,4-4.66,4s-4.65-1.81-4.65-4,2.08-4,4.65-4S296,375.23,296,377.46Z" />
      <path class="BUNTAI_RED_PANDA_OUTFIT_BUNTAI_RED_PANDA_OUTFIT_36_cls-8" d="M250.36,416.7a6.45,6.45,0,0,0-2.24-.31c-4.48.13-10.1,4.39-13.89,8.34-4.68,4.89-8.66,11.59-6.06,15.29l0,0" />
      <path class="BUNTAI_RED_PANDA_OUTFIT_BUNTAI_RED_PANDA_OUTFIT_36_cls-8" d="M252.93,418.52c.95,1.34,1.36,3.5-.21,7a31.5,31.5,0,0,1-5.93,8.27c-3.78,3.95-9.41,8.21-13.87,8.34a6.3,6.3,0,0,1-2.15-.28" />
      <path class="BUNTAI_RED_PANDA_OUTFIT_BUNTAI_RED_PANDA_OUTFIT_36_cls-8" d="M247.71,419.47c-2.65.39-6.91,3.14-10.78,7.19s-6.22,8.44-6.18,10.76" />
      <path class="BUNTAI_RED_PANDA_OUTFIT_BUNTAI_RED_PANDA_OUTFIT_36_cls-8" d="M250.27,421.29c0,2.33-2.3,6.47-6.17,10.52s-8.14,6.8-10.78,7.19" />
      <path class="BUNTAI_RED_PANDA_OUTFIT_BUNTAI_RED_PANDA_OUTFIT_36_cls-8" d="M254.13,412.76l-3.77,3.94-2.65,2.77-1.07,1.13a1.29,1.29,0,0,0,.21,2,1.83,1.83,0,0,0,2.33-.18l1.09-1.14,2.66-2.77,3.67-3.85" />
      <g class="BUNTAI_RED_PANDA_OUTFIT_BUNTAI_RED_PANDA_OUTFIT_36_cls-9">
        <path d="M255.46,394.55s-23.09,4.68-40.26,9.06-34.15,15.86-34.15,15.86,18.77-2.55,32.63-8,33.13-9.52,33.13-9.52l6-1.69A9.85,9.85,0,0,1,255.46,394.55Z" />
        <path d="M221.53,413.48s15-.26,22.7-.72,8.41,0,8.41,0l.82-.2v.91l-2,1.57s-10.1.12-19.6,0-23.12,0-22.26.06S221.53,413.48,221.53,413.48Z" />
        <path d="M130.77,376.84s-7.17,26.64-3.79,36.63l-7.88-13.61s1.49,13.38,0,16-4.35,7.61-4.35,7.61,8.94,3.15,12.14,3.41c3.88,9.95,12.56,29.2,37.81,34.46,16.15,2.67,30.56.9,38.58,0-29.62-8.49-35.6-38.91-35.6-38.91l-2.52-17.24S140.4,400.44,130.77,376.84Z" />
        <path d="M85.16,377.46s7.56,18.51,20.59,27.42l16.83,11.51-5.07,8.21a76.62,76.62,0,0,1-20.88-12c-10.78-8.63-18.55-21.4-20.91-33.42A79.36,79.36,0,0,0,85.16,377.46Z" />
        <path d="M222.63,369l-9,4.57-.79.4S182,357.78,166.77,345.46c-7.37-6-7.32-4.79-11.25-9.14.1-.08.46.08.56,0,1.6-.09,4-.76,5.92-1.07h0l7.91-2.27h0s-5.67.78,11.14,14.1S222.63,369,222.63,369Z" />
        <path d="M301.54,332.12l.36.38a120.7,120.7,0,0,1-9.95,10c-1.37,1.25-2.82,2.5-4.33,3.75a2.11,2.11,0,0,1-.23.19c-10.1,8.35-23.31,17-39.87,26.22l-.53.3-.27.14q-12.76,7.11-28.19,14.77a229.53,229.53,0,0,0-46.6,30.79l-.22.2c-1.6,1.37-2.94,2.58-4,3.58-2.14,2-3.26,3.13-3.26,3.13l-.54-5.06a16.53,16.53,0,0,1,2.91-4.16c2.65-3.12,7.64-8.11,16.9-15.33,17.78-13.87,36.78-23.37,67.58-40,22.82-12.35,31.74-20.77,39.18-28.25l4.6.77C296.58,333.67,301.87,331.7,301.54,332.12Z" />
        <path d="M284.27,371.9s-6.25,11.49-3,18,18.44-8.37,18.44-8.37l.77,4.31S284.74,410.55,271.41,415s-18.61-.34-20-6.72.13-10.37,9.42-18.42a160.19,160.19,0,0,0,14.89-14.47C276.14,375,284.27,371.9,284.27,371.9Z" />
        <path d="M330.16,353.51a118,118,0,0,1-12.61-4.1c-7-2.8-9.36-6.08-9.36-6.08s3.76,5.34,8.28,7.87a38.44,38.44,0,0,0,8.78,3.56l2.62,1.68,2.94-1Z" />
        <path d="M366.17,379.14c-3.46,19.35-20.33,37.36-43.67,47.31q.08-.42.12-.84c.05-.29.08-.57.11-.86s.07-.76.11-1.15c.09-1.11.15-2.18.19-3.13,0-.24,0-.47,0-.69.05-1.8,0-3,0-3s9.69-3.39,19.86-13.51,15.47-25.58,15.47-25.58A24.5,24.5,0,0,0,366.17,379.14Z" />
        <path d="M316.29,393s5.43,11.82,6.74,20.51a48.26,48.26,0,0,0-.52-25.84,79,79,0,0,1,0,16.62S321,397.36,316.29,393Z" />
        <path d="M319,437.15c-3.44,6.73-9.41,13.26-19.11,18.84-16.67,5.62-25.61,4.12-41.76,3.19h0s36.38.11,49.68-17.31c13.08-17.14,6.8-34.31,6.61-34.84A59,59,0,0,1,319,437.15Z" />
      </g>
    </g>
  </g>
</svg>