<svg xmlns="http://www.w3.org/2000/svg" viewBox="0 0 432 432">
  <defs>
    <style>.BUNTAI_RED_PANDA_OUTFIT_BUNTAI_RED_PANDA_OUTFIT_40_cls-1{isolation:isolate;}.BUNTAI_RED_PANDA_OUTFIT_BUNTAI_RED_PANDA_OUTFIT_40_cls-2{fill:#eefdff;}.BUNTAI_RED_PANDA_OUTFIT_BUNTAI_RED_PANDA_OUTFIT_40_cls-3{fill:#4934ff;}.BUNTAI_RED_PANDA_OUTFIT_BUNTAI_RED_PANDA_OUTFIT_40_cls-4{fill:#34ebff;}.BUNTAI_RED_PANDA_OUTFIT_BUNTAI_RED_PANDA_OUTFIT_40_cls-5{fill:#ed323d;}.BUNTAI_RED_PANDA_OUTFIT_BUNTAI_RED_PANDA_OUTFIT_40_cls-6,.BUNTAI_RED_PANDA_OUTFIT_BUNTAI_RED_PANDA_OUTFIT_40_cls-7{fill:none;}.BUNTAI_RED_PANDA_OUTFIT_BUNTAI_RED_PANDA_OUTFIT_40_cls-7{stroke:#000;stroke-linecap:round;stroke-linejoin:round;stroke-width:2px;}.BUNTAI_RED_PANDA_OUTFIT_BUNTAI_RED_PANDA_OUTFIT_40_cls-8{opacity:0.43;mix-blend-mode:multiply;}</style>
  </defs>
  <g class="BUNTAI_RED_PANDA_OUTFIT_BUNTAI_RED_PANDA_OUTFIT_40_cls-1">
    <g id="outfit">
      <path class="BUNTAI_RED_PANDA_OUTFIT_BUNTAI_RED_PANDA_OUTFIT_40_cls-2" d="M125.35,448.75H77.14c1.39-5.64,3.72-15,5.83-22.89.56-2.11,1.11-4.12,1.62-5.94s.92-3.21,1.31-4.49c1-3.34,2-7.48,3-11.6h0l1.19.82,2.44,1.71h0l1.22.88v0s0,0,0,0c1.14.82,2.3,1.69,3.43,2.58.85.66,1.69,1.33,2.52,2,1.24,1,2.46,2.05,3.64,3.09l1.16,1a.34.34,0,0,1,.09.08l1,1,1.09,1.06a50.42,50.42,0,0,1,5.75,6.6,0,0,0,0,1,0,0l.44.63h0c.06.41.13.83.2,1.25s.15.84.24,1.25.15.71.24,1.07a.06.06,0,0,0,0,0v0h0v0l.06.26.06.23.24.87s0,0,0,.05v0a.11.11,0,0,0,0,.06,1.8,1.8,0,0,1,0,.19.14.14,0,0,1,0,.06l0,.1c0,.18.11.35.17.51l0,.13a1.46,1.46,0,0,1,0,.2l0,0,.06.17c0,.16.11.33.17.49v0a.24.24,0,0,1,0,.07c.24.68.5,1.35.79,2a2.52,2.52,0,0,0,.14.33.19.19,0,0,0,0,.09l.18.41c.1.23.2.45.31.66a2.39,2.39,0,0,0,.13.28.21.21,0,0,0,0,.07l0,.07v0c.1.21.21.42.32.62l.09.18c.15.3.31.6.47.88s.22.41.34.6.14.26.22.38a.6.6,0,0,0,.06.11c.13.23.26.45.4.67l.07.12h0l.21.34.08.12h0c.21.34.42.65.64,1l.06.08c.19.28.39.57.6.85a.9.9,0,0,0,.14.2l.18.26c.12.17.25.33.38.5a2.55,2.55,0,0,0,.21.28l.42.55,0,.06c.16.21.33.41.5.61,0,0,0,0,0,0s0,0,0,0a4.12,4.12,0,0,0,.33.4c.11.14.23.29.36.43l0,0,.06.06q.21.25.45.51a2.8,2.8,0,0,0,.29.32.24.24,0,0,0,.06.08.23.23,0,0,0,.07.07l.58.63.17.18c.26.28.51.53.78.8a2.61,2.61,0,0,0,.24.23Z" />
      <path class="BUNTAI_RED_PANDA_OUTFIT_BUNTAI_RED_PANDA_OUTFIT_40_cls-2" d="M369.23,448.76H324c.31-.37.62-.75.92-1.14l.75-1c.21-.29.43-.58.63-.88s.37-.52.54-.78a2.27,2.27,0,0,0,.18-.25c.13-.2.27-.4.4-.61a.22.22,0,0,0,.05-.08l.3-.46c.13-.21.27-.42.4-.64.31-.52.62-1.05.91-1.58l.43-.78s0-.07.05-.1c.14-.28.29-.56.43-.85s.21-.43.32-.64a44,44,0,0,0,1.75-4.19.3.3,0,0,0,0-.1c.06-.18.13-.36.18-.54a6.45,6.45,0,0,0,.21-.62l.27-.86.1-.34.15-.54c.09-.31.17-.61.25-.93a.3.3,0,0,0,0-.1s0,0,0,0c.08-.34.17-.69.24-1a.06.06,0,0,1,0,0c.09-.41.18-.81.25-1.22,0-.2.08-.41.11-.61l.12-.75c0-.24.07-.49.1-.74,0,0,0,0,0-.06v0c0-.19.05-.39.07-.58a.34.34,0,0,0,0-.14c0-.15,0-.31.05-.47s0-.38.05-.56.06-.67.08-1,0-.55.05-.83,0-.79.05-1.19l.65-.67c2.61-2.68,12.47-12.7,18.2-16.76l.3-.21.29-.19c.25.85.51,1.71.76,2.57,1.67,5.57,3.27,11,4.3,14.33C361,427.25,366.27,441.06,369.23,448.76Z" />
      <path class="BUNTAI_RED_PANDA_OUTFIT_BUNTAI_RED_PANDA_OUTFIT_40_cls-3" d="M113.74,411.51h0c-.13.56-.25,1.11-.36,1.67s-.2,1.07-.28,1.61c0,.23-.07.47-.1.7s0,.18,0,.27c-.07.54-.13,1.08-.17,1.63,0,.05,0,.1,0,.16v0c0,.28,0,.57-.06.85s0,.61,0,.91c0,.12,0,.25,0,.38,0,1,0,2,0,3,0,.54.07,1.08.13,1.61,0,.32.07.64.11,1l-.44-.63a0,0,0,0,0,0,0,50.42,50.42,0,0,0-5.75-6.6l-1.09-1.06-1-1a.34.34,0,0,0-.09-.08l-1.16-1c-1.18-1-2.4-2.07-3.64-3.09-.83-.68-1.67-1.35-2.52-2-1.14-.9-2.3-1.77-3.45-2.6v0c-1.65-1.2-3.28-2.35-4.86-3.42.54-2.38,1-4.74,1.51-6.94.26-1.26.5-2.46.72-3.57,3,1.56,5.88,3.17,8.64,4.93,1.64,1.05,3.23,2.14,4.75,3.31,1,.78,2,1.59,2.92,2.43.62.56,1.22,1.13,1.8,1.73a33.12,33.12,0,0,1,4.49,5.76Z" />
      <path class="BUNTAI_RED_PANDA_OUTFIT_BUNTAI_RED_PANDA_OUTFIT_40_cls-3" d="M353.92,403.66l-.29.19-.3.21c-5.73,4.06-15.59,14.08-18.2,16.76l-.65.67c0-.37,0-.73,0-1.1h0c0-.16,0-.33,0-.5s0-.49,0-.74a.41.41,0,0,0,0-.11c0-.11,0-.23,0-.34l0-.61c0-.37-.05-.72-.08-1.08a1.62,1.62,0,0,1,0-.22,1.5,1.5,0,0,0,0-.22l0-.29c0-.06,0-.13,0-.19,0-.26-.05-.52-.09-.77a3.93,3.93,0,0,0-.06-.48c0-.19,0-.37-.07-.55s-.05-.37-.08-.55,0-.1,0-.15,0-.29-.07-.44-.05-.33-.08-.49c-.06-.38-.13-.75-.21-1.13h0c.08-.15.15-.3.24-.45a27.11,27.11,0,0,1,1.47-2.55c.41-.64.85-1.28,1.31-1.89s.93-1.21,1.43-1.79l.76-.84c.39-.42.78-.83,1.18-1.24l.25-.25c.32-.32.65-.64,1-.94h0c.63-.59,1.27-1.15,1.92-1.7s1.31-1.09,2-1.61c1.92-1.47,3.92-2.85,6-4.17.49,1.66,1,3.47,1.58,5.34l1.25,4.23A0,0,0,0,1,353.92,403.66Z" />
      <path class="BUNTAI_RED_PANDA_OUTFIT_BUNTAI_RED_PANDA_OUTFIT_40_cls-4" d="M338.21,371.37c-.2.43-.41.86-.6,1.29s-.32.71-.47,1.07-.21.49-.31.73c-.27.64-.53,1.27-.77,1.9s-.43,1.13-.64,1.7l-.59,1.71c-.42,1.26-.8,2.53-1.16,3.81l-.24.93c-.17.68-.34,1.36-.5,2-.09.42-.18.83-.26,1.25s-.22,1-.31,1.55q-.09.4-.15.81-.54,3-.81,6.12c0,.46-.09.93-.12,1.4s-.06.94-.09,1.4c-.05.94-.08,1.86-.09,2.81v0c0,.26,0,.49,0,.74v.13c.18.48.36,1,.52,1.44l0,.07h0c.05.11.08.24.13.36v0c.3.87.57,1.74.82,2.61h0c.07.24.13.47.19.71s.06.22.08.32c.08.32.17.63.25.95.17.74.33,1.47.48,2.21h0q.12.57.21,1.14c.06.36.12.71.17,1.07,0,.18.06.37.08.55s0,.36.07.55c.05.38.09.76.13,1.15,0,.19,0,.38.06.58a1.5,1.5,0,0,1,0,.22,1.62,1.62,0,0,0,0,.22c0,.36.06.71.08,1.08s0,.63,0,.95,0,.48,0,.72a.62.62,0,0,1,0,.13c0,.17,0,.34,0,.5h0c0,.37,0,.73,0,1.1a45.24,45.24,0,0,1-.37,4.78c-.06.53-.14,1.06-.23,1.59,0,.2-.07.41-.12.61l-.12.61c0,.14-.06.29-.09.44s-.07.34-.11.51-.13.57-.2.85-.19.75-.31,1.13a2.68,2.68,0,0,1-.07.27c-.12.42-.25.84-.38,1.25s-.26.79-.4,1.18a.3.3,0,0,1,0,.1,44.07,44.07,0,0,1-2.43,5.54l-.12.24-.43.78c-.29.53-.6,1.06-.91,1.58-.13.22-.27.43-.4.64l-.3.46a.22.22,0,0,1-.05.08.59.59,0,0,1,0,.08l-.36.53a49,49,0,0,1-3,4l-.08.1h0c-.4.47-.8.92-1.21,1.37-.18.2-.36.4-.56.59a1.6,1.6,0,0,1-.22.24c-.22.24-.46.48-.69.72l-.26.26-.21.21c-.33.32-.67.65-1,.95s-.4.38-.61.57c-.48.43-1,.85-1.48,1.27s-.93.76-1.41,1.13l-1,.73c-.6.45-1.22.88-1.84,1.29-.39.26-.78.51-1.19.76l-.95.58-1,.56c-.49.27-1,.53-1.48.78l-.75.37-.75.37c-.45.21-.89.42-1.34.61l-.18.07-.89.38-.4.16c-1,.39-2,.76-3,1.09h0l-1.27.41q-1.93.6-3.9,1c-.54.12-1.08.24-1.63.34l-.92.17c-.52.1-1,.19-1.56.26l-.37.06-.22,0-.22,0-.26,0-1.4.17h0c-.53.06-1.08.11-1.62.15H288l-1.42.09h-.17l-1.25,0h-.42c-.25,0-.5,0-.75,0-.65,0-1.3,0-2,0h-.86l-.62,0-.61,0-1.17-.07c-.74-.06-1.47-.12-2.21-.21s-1.63-.18-2.42-.29l-.64-.09-.2,0h0l-.24,0-.09,0h-.08l-.16,0h-.07a3.22,3.22,0,0,1-.54-.1c-.57-.09-1.14-.2-1.7-.32-13.43-2.77-25.82-9.69-36.12-18.79H234l0,0,0,0-1.11.8-1.12.78c-1.67,1.16-3.39,2.28-5.15,3.34l-.5.31-.57.33c-.54.34-1.09.66-1.64,1s-.78.46-1.18.68l-.89.49-.45.24c-.44.24-.89.48-1.35.71l-.62.31a6.89,6.89,0,0,1-.66.34c-.64.33-1.28.65-1.93.95-.83.4-1.67.79-2.51,1.16l-.84.37-.22.1-.84.36-1.38.57-.67.27-1.07.42-.75.28c-.43.17-.86.33-1.3.48-1.17.43-2.35.83-3.54,1.21l-1.22.39-1,.31-1,.28-1,.27-1,.28-1.34.34c-.49.12-1,.24-1.47.34s-.81.19-1.22.27-1,.22-1.48.31l-.93.19-1.68.3c-1,.17-2,.33-3.05.46l-.55.08-.14,0-.21,0-.23,0h0l-.17,0-.25,0-.22,0h0l-.57.06-.32,0c-1.13.11-2.28.21-3.45.28-.85.07-1.7.11-2.57.14h-.18l-.42,0c-1.69.06-3.41.08-5.16,0l-1.83-.06h-.28c-.33,0-.65,0-1-.06-.47,0-.93-.05-1.4-.09l-.35,0-1.15-.1-.82-.08c-.91-.09-1.82-.19-2.72-.32l-1.34-.19-.18,0-.64-.09-.23,0-1-.17-.3-.05-.33-.07-.09,0-.35-.05-.38-.08-.38-.08h0l-.37-.07-1-.22-.65-.15h0l-1.26-.3-.39-.1-.13,0-.78-.2-.37-.1-1.14-.31-1-.3-.44-.14-.55-.17c-.33-.1-.67-.21-1-.33l-.53-.19a.64.64,0,0,1-.18-.06l-.82-.29,0,0-1.13-.41-.39-.15-.33-.13-.84-.34-.38-.16c-.71-.29-1.41-.6-2.11-.92l-.67-.31-.37-.19a.34.34,0,0,1-.12-.06l-1.17-.57-.09,0-1.22-.64-.67-.36-.54-.32a54.4,54.4,0,0,1-5.09-3.26l-.66-.47-.36-.27a55.74,55.74,0,0,1-5.62-4.83h0l0,0,0-.05c-.36-.35-.71-.71-1.06-1.07l-.26-.27c-.2-.21-.4-.43-.58-.65-.54-.59-1.06-1.18-1.55-1.79,0,0,0,0,0,0l-.08-.08-.08-.1c-.28-.33-.54-.67-.8-1t0,0a0,0,0,0,1,0,0c-.13-.16-.27-.33-.39-.5l-.37-.51c-.28-.37-.54-.75-.8-1.13s-.43-.64-.64-1h0s0,0,0,0a.05.05,0,0,1,0,0l0,0c-.08-.12-.16-.24-.23-.36h0l-.07-.12c-.57-.92-1.1-1.86-1.58-2.82-.07-.15-.15-.29-.23-.43l-.09-.19s0,0,0,0-.16-.33-.23-.49a2.64,2.64,0,0,1-.18-.38,3.68,3.68,0,0,1-.15-.35,1.42,1.42,0,0,1-.12-.25,2.6,2.6,0,0,1-.1-.25l-.1-.22c-.28-.64-.54-1.3-.77-2a.24.24,0,0,0,0-.07v0l-.12-.35-.06-.15c0-.16-.1-.33-.16-.49a.25.25,0,0,0,0-.07l0-.15c0-.11-.07-.22-.1-.33l0-.1s0,0,0-.06h0a1.21,1.21,0,0,0,0-.18.15.15,0,0,1,0-.07v0s0,0,0-.05c-.08-.27-.15-.54-.23-.81,0,0,0,0,0-.06l-.06-.23-.06-.23v0a.45.45,0,0,1,0-.11c-.09-.36-.17-.71-.24-1.07s-.17-.83-.24-1.25-.13-.83-.19-1.25h0c0-.31-.09-.63-.12-1v0a1,1,0,0,1,0-.17c0-.2,0-.4-.06-.6s0-.39,0-.58,0-.15,0-.22,0-.34,0-.51,0-.24,0-.35v-.11c0-.69,0-1.38,0-2.07,0-.13,0-.25,0-.38,0-.3,0-.61,0-.91s0-.59.07-.88h0a.13.13,0,0,1,0-.06v-.09c0-.06,0-.12,0-.18a1.1,1.1,0,0,0,0-.18c0-.12,0-.24,0-.36l.09-.84a.17.17,0,0,0,0-.07s0-.07,0-.1a.17.17,0,0,1,0-.07.44.44,0,0,0,0-.1c0-.23.06-.47.1-.7s.11-.68.16-1c0-.19.08-.38.12-.59s.07-.36.11-.54c.08-.37.16-.75.25-1.13h0c.07-.31.14-.61.22-.91,0-.05,0-.1.05-.15.07-.27.14-.55.22-.82s.16-.56.25-.84.23-.75.36-1.13v0l0-.1c0-.12.08-.24.13-.36s.1-.3.16-.46a.36.36,0,0,1,0-.09l0-.12h0l0-.07h0v0c.07-.22.16-.44.24-.66s.11-.28.17-.42c.15-.4.31-.79.48-1.18l.25-.58c.11-.26.22-.51.34-.77,0,0,0,0,0,0a62.4,62.4,0,0,0-4.53-23c-1.32-3.32-4.49-7-7.15-10.33,6.6-15.69,25.82-23.42,42.53-29.16h0l.11,0,1.29.87,1.32.89c.21.14.42.28.62.43l.59.4.68.47,1,.69c.41.27.82.56,1.23.85l.27.19,1.42,1q.59.39,1.14.81l.28.19.08.05,2.67,1.88,2.29,1.64s0,0,0,0l.33.24a5.91,5.91,0,0,1,.67.48l3.19,2.3.22.17.53.38.07.06.08.06a6.61,6.61,0,0,1,.6.44c.34.23.66.47,1,.72a3.49,3.49,0,0,1,.32.25s0,0,0,0c1.27.93,2.55,1.87,3.81,2.83a.85.85,0,0,1,.19.14c.21.15.43.31.64.48.41.29.8.59,1.19.91a1,1,0,0,1,.22.14l.28.23,1,.75,1.29,1s0,0,.06,0l.76.58.09.08c.45.33.89.67,1.34,1,.66.49,1.31,1,2,1.5,1.2.94,2.4,1.87,3.59,2.82.15.1.29.23.44.35a3.49,3.49,0,0,1,.32.25l.15.13,0,0,.11.08.38.31.35.28c.45.34.89.7,1.34,1.07s.85.66,1.26,1,.66.52,1,.8c.58.45,1.16.92,1.73,1.4,1.13.91,2.26,1.83,3.37,2.75l.33.27.28.24c.37.3.74.6,1.11.92l.46.38c.78.64,1.55,1.29,2.32,1.95l0,0,2.48,2.09.4.33,3.6,3.08c.18.17.36.32.55.48,1.45,1.27,2.92,2.54,4.36,3.83a.75.75,0,0,1,.14.12h0l.6.53,1.63,1.45h0l.05.05c.13.1.25.22.36.32h0c1.61,1.44,3.21,2.88,4.81,4.34l4.61,4.26c1.69,1.59,3.39,3.2,5.07,4.8l1.57,1.51,2.37,2.31.16.15.19.19.07.06q1.7-2,3.44-4l.08-.1h0a.17.17,0,0,1,.06-.06v0a2.52,2.52,0,0,1,.21-.25l.87-1,.4-.45.84-1c.22-.25.45-.5.67-.76l1.67-1.89,1-1.16.21-.23c.35-.4.71-.82,1.09-1.22l.19-.21.14-.16c.33-.38.68-.76,1-1.13,1.19-1.32,2.39-2.65,3.61-4h0c.56-.62,1.13-1.22,1.7-1.83l.61-.66q3.27-3.51,6.6-6.95l.44-.45h0a3.31,3.31,0,0,1,.26-.27c0-.05.08-.08.11-.13s.25-.23.37-.36l.66-.67.94-1,.12-.12h0s0,0,0,0a2.18,2.18,0,0,1,.21-.22l1.81-1.83s0,0,0,0l.28-.27c1.35-1.36,2.71-2.73,4.09-4.07l.05-.05a.1.1,0,0,1,0-.05h0a.34.34,0,0,1,.06-.06,2.76,2.76,0,0,1,.3-.29c.1-.12.22-.22.33-.33l.51-.5c1.48-1.46,3-2.89,4.46-4.31l.65-.62c.8-.76,1.59-1.52,2.4-2.27l.75-.71.82-.76.78-.73.24-.23.15-.13.13-.12c.42-.39.82-.78,1.23-1.15s.64-.58.95-.88c.65-.58,1.27-1.16,1.91-1.74s1.25-1.13,1.87-1.68c.16-.15.33-.29.48-.44l1.05-.93c.32-.3.64-.58,1-.86l.51-.45.57-.5.57-.5,1.14-1,2-1.76q.93-.82,1.86-1.62l1.3-1.1c1.44-1.23,2.87-2.46,4.33-3.66,1-.84,2-1.67,3-2.48l0,0C316.5,349.47,329.56,358.2,338.21,371.37Z" />
      <path class="BUNTAI_RED_PANDA_OUTFIT_BUNTAI_RED_PANDA_OUTFIT_40_cls-5" d="M168.46,340.06c-2.69,0-4.87,1.8-4.87,4s2.18,4,4.87,4,4.86-1.79,4.86-4S171.14,340.06,168.46,340.06Z" />
      <path class="BUNTAI_RED_PANDA_OUTFIT_BUNTAI_RED_PANDA_OUTFIT_40_cls-5" d="M289.23,340.06c-2.68,0-4.87,1.8-4.87,4s2.19,4,4.87,4,4.87-1.79,4.87-4S291.91,340.06,289.23,340.06Z" />
      <path class="BUNTAI_RED_PANDA_OUTFIT_BUNTAI_RED_PANDA_OUTFIT_40_cls-6" d="M300.64,340.43c-3-1.7-6-3.34-9-5l-1.61-.9-.34.2c-.21.12-.42.25-.62.39-.58.34-1.15.68-1.72,1h0l-.24.14-.05,0c-1,.59-1.9,1.19-2.85,1.8-.58.37-1.17.74-1.74,1.13q-2.3,1.5-4.53,3c-13.24,9.13-25.52,19.51-37.53,30.2-2.1,1.86-4.19,3.74-6.27,5.61-2.06-1.54-4.13-3.07-6.22-4.61-15-11-30.29-21.8-46.81-31.2-1.93-1.1-3.87-2.17-5.84-3.24l-1.84-1c-.57-.3-1.14-.61-1.71-.9-.78-.42-1.58-.83-2.38-1.23-1.32-.67-2.63-1.32-4-2h0c-2.43,1-5.18,2-8.15,3s-6.18,2.07-9.48,3.19l1.29.87,1.32.89c.21.14.42.28.62.43l.59.4.68.47,1,.69c.41.27.82.56,1.23.85l.27.19,1.42,1q.59.39,1.14.81l.28.19.08.05,2.67,1.88,2.29,1.64s0,0,0,0l.33.24a5.91,5.91,0,0,1,.67.48L166,353l.79.58.22.17.53.38.07.06.08.06a6.61,6.61,0,0,1,.6.44c.34.23.66.47,1,.72a3.49,3.49,0,0,1,.32.25s0,0,0,0c1.27.93,2.55,1.87,3.81,2.83a.85.85,0,0,1,.19.14c.21.15.43.31.64.48.41.29.8.59,1.19.91a1,1,0,0,1,.22.14l.28.23,1,.75,1.29,1s0,0,.06,0l.76.58.09.08c.45.33.89.67,1.34,1,.66.49,1.31,1,2,1.5,1.2.94,2.4,1.87,3.59,2.82.15.1.29.23.44.35a3.49,3.49,0,0,1,.32.25l.15.13,0,0,.11.08.38.31.35.28c.45.34.89.7,1.34,1.07s.85.66,1.26,1,.66.52,1,.8c.58.45,1.16.92,1.73,1.4,1.13.91,2.26,1.83,3.37,2.75l.33.27.28.24c.37.3.74.6,1.11.92l.46.38c.78.64,1.55,1.29,2.32,1.95l0,0,2.48,2.09.4.33,3.6,3.08c.18.17.36.32.55.48,1.45,1.27,2.92,2.54,4.36,3.83a.75.75,0,0,1,.14.12h0l.6.53,1.63,1.45h0l.05.05c.13.1.25.22.36.32h0c1.61,1.44,3.21,2.88,4.81,4.34l4.61,4.26c1.69,1.59,3.39,3.2,5.07,4.8l1.57,1.51,2.37,2.31.16.15.19.19.07.06q1.7-2,3.44-4l.08-.1h0s0,0,0,0l0,0h0v0a2.52,2.52,0,0,1,.21-.25l.87-1,.4-.45.84-1c.22-.25.45-.5.67-.76l1.67-1.89,1-1.16.21-.23c.35-.4.71-.82,1.09-1.22l.19-.21.14-.16c.33-.38.68-.76,1-1.13,1.19-1.32,2.39-2.65,3.61-4h0c.56-.62,1.13-1.22,1.7-1.83l.61-.66q3.27-3.51,6.6-6.95l.44-.45h0a3.31,3.31,0,0,1,.26-.27c0-.05.08-.08.11-.13s.25-.23.37-.36l.66-.67.94-1,.12-.12h0s0,0,0,0a2.18,2.18,0,0,1,.21-.22l1.81-1.83s0,0,0,0l.28-.27c1.35-1.36,2.71-2.73,4.09-4.07l.05-.05.06-.06a.34.34,0,0,1,.06-.06,2.76,2.76,0,0,1,.3-.29c.1-.12.22-.22.33-.33l.51-.5c1.48-1.46,3-2.89,4.46-4.31l.65-.62c.8-.76,1.59-1.52,2.4-2.27l.75-.71.82-.76.78-.73.24-.23.15-.13.13-.12c.42-.39.82-.78,1.23-1.15s.64-.58.95-.88c.65-.58,1.27-1.16,1.91-1.74s1.25-1.13,1.87-1.68c.16-.15.33-.29.48-.44l1.05-.93c.22-.18.42-.37.63-.55l.42-.38a5.14,5.14,0,0,0,.42-.38l.57-.5.57-.5,1.14-1,2-1.76q.93-.82,1.86-1.62c.43-.38.86-.74,1.3-1.1,1.44-1.23,2.87-2.46,4.33-3.66,1-.84,2-1.67,3-2.48ZM165,341.3l.17-.14a4.77,4.77,0,0,1,.64-.43h0a4.53,4.53,0,0,1,.71-.32l.12,0,.06,0,.35-.11.08,0,.36-.07.38,0,.18,0a3,3,0,0,1,.42,0l.43,0,.43.05.19,0a4.69,4.69,0,0,1,.76.19l.3.1.2.09.11,0,.27.14.26.16.17.11a.88.88,0,0,1,.17.12,3.88,3.88,0,0,1,.31.26l.05.05a.28.28,0,0,1,.1.09,1.93,1.93,0,0,1,.27.3h0a1.3,1.3,0,0,1,.18.23l0,.05a2.61,2.61,0,0,1,.17.28,1.62,1.62,0,0,1,.1.18,1.64,1.64,0,0,1,.14.3,2.47,2.47,0,0,1,.11.36v0h0a.13.13,0,0,1,0,.06.17.17,0,0,1,0,.07.66.66,0,0,1,0,.15v.07s0,.06,0,.09,0,.05,0,.08a2.28,2.28,0,0,1,0,.27c0,.1,0,.21,0,.31a.45.45,0,0,0,0,.11.17.17,0,0,0,0,.07,2,2,0,0,1,0,.26.14.14,0,0,1,0,.06h0l0,.11a1.21,1.21,0,0,1-.08.25v0a0,0,0,0,1,0,0l-.06.15c0,.06-.05.12-.08.17l-.15.27c-.09.14-.19.28-.29.41v0h0a.8.8,0,0,1-.15.17l-.05,0a3.34,3.34,0,0,1-.33.32l-.17.14-.39.27a4.49,4.49,0,0,1-.42.24l-.21.09-.27.12-.29.1a3.41,3.41,0,0,1-.55.14l-.11,0h0l-.07,0-.25,0-.24,0h-.06l-.43,0a5.72,5.72,0,0,1-1.78-.28l-.33-.12-.31-.13a4.61,4.61,0,0,1-.58-.33,6.81,6.81,0,0,1-.49-.36,2,2,0,0,1-.26-.24,2.7,2.7,0,0,1-.28-.31,1.84,1.84,0,0,1-.17-.22l-.13-.2a4,4,0,0,1-.24-.46l-.09-.22,0-.09,0-.12a1.66,1.66,0,0,1-.06-.21l-.06-.32c0-.13,0-.27,0-.41s0-.24,0-.35v0a.09.09,0,0,1,0-.05.13.13,0,0,1,0-.06.59.59,0,0,1,0-.13l0-.18h0v0a2.81,2.81,0,0,1,.1-.31.08.08,0,0,1,0-.05.14.14,0,0,1,0-.06l0-.05a1.17,1.17,0,0,1,0-.11l.07-.14a.25.25,0,0,1,0-.07,1.13,1.13,0,0,1,.12-.21h0a0,0,0,0,0,0,0,.05.05,0,0,0,0,0h0l.24-.32a1.12,1.12,0,0,1,.18-.2h0s0-.05,0-.06l0,0,0,0a.85.85,0,0,1,.17-.16Zm128.91,4c0,.09-.07.17-.11.26a2,2,0,0,1-.14.25l-.05.07a.86.86,0,0,1-.1.16.66.66,0,0,1-.12.17l0,.06-.06.08a1,1,0,0,1-.14.15,1,1,0,0,1-.14.15,3,3,0,0,1-.47.4l0,0a4.93,4.93,0,0,1-.54.34l-.05,0-.05,0-.13.07-.14.06-.09,0,0,0-.2.08,0,0h-.05l-.25.08h-.06a2.22,2.22,0,0,1-.37.09h-.05s0,0,0,0h-.17l-.09,0h-.07l-.18,0h-.19l-.45,0c-2.68,0-4.86-1.79-4.86-4a3,3,0,0,1,0-.42,2.25,2.25,0,0,1,.06-.36v0a0,0,0,0,1,0,0s0,0,0,0h0a2.07,2.07,0,0,1,.1-.33,1.41,1.41,0,0,1,.14-.31.09.09,0,0,1,0-.06,2,2,0,0,1,.16-.28l0-.07.07-.08a1.37,1.37,0,0,1,.15-.21l0,0a1.2,1.2,0,0,1,.19-.21l.09-.09.1-.1,0,0s0,0,0,0a1,1,0,0,1,.22-.18,2,2,0,0,1,.33-.24,4.23,4.23,0,0,1,.42-.25l.12-.06.44-.19.19-.07a3.77,3.77,0,0,1,.6-.16,1.36,1.36,0,0,1,.29-.06l.3,0,.26,0a2.55,2.55,0,0,1,.39,0,5.84,5.84,0,0,1,.73.05l.34.05.51.12.39.12.15.06.36.16a3.62,3.62,0,0,1,.43.24,2.71,2.71,0,0,1,.35.24,3.47,3.47,0,0,1,.42.34l.08.08.09.09.19.21h0c.07.08.13.17.19.25s0,0,0,0a.23.23,0,0,1,.05.07.87.87,0,0,1,.11.18,2.58,2.58,0,0,1,.22.44.06.06,0,0,1,0,0,.09.09,0,0,1,0,.06.49.49,0,0,1,0,.11.57.57,0,0,1,0,.14s0,0,0,0v0a2.57,2.57,0,0,1,.08.38,1.23,1.23,0,0,1,0,.19h0a2.81,2.81,0,0,1,0,.29,1.09,1.09,0,0,1,0,.18,1.11,1.11,0,0,1,0,.17v.1c0,.13,0,.25-.07.37a0,0,0,0,1,0,0,2.4,2.4,0,0,1-.12.38Z" />
      <path class="BUNTAI_RED_PANDA_OUTFIT_BUNTAI_RED_PANDA_OUTFIT_40_cls-2" d="M290,334.57l-.34.2c-.21.12-.42.25-.62.39-.58.34-1.15.68-1.72,1h0l-.24.14-.05,0c-1,.59-1.9,1.19-2.85,1.8-.58.37-1.17.74-1.74,1.13q-2.3,1.5-4.53,3c-13.24,9.13-25.52,19.51-37.53,30.2-2.1,1.86-4.19,3.74-6.27,5.61-2.06-1.54-4.13-3.07-6.22-4.61-15-11-30.29-21.8-46.81-31.2-1.93-1.1-3.87-2.17-5.84-3.24l-1.84-1c-.57-.3-1.14-.61-1.71-.9-.78-.42-1.58-.83-2.38-1.23-1.32-.67-2.63-1.32-4-2l1-.44c2.88-1.24,5.39-2.46,7.56-3.62l.1-.05,2.76,1.41Q185.7,336,194.27,341q4.56,2.66,9,5.42c1.35.83,2.68,1.67,4,2.52s2.66,1.71,4,2.58,2.62,1.72,3.92,2.59l.6.4c1.08.73,2.16,1.46,3.24,2.21.4.28.81.55,1.2.83s1,.71,1.55,1.08l1.93,1.36.08.06.84.6c1.1.78,2.19,1.58,3.27,2.38.21.16.43.31.64.48l.09.06.08.05.14.1.12.09.19.13.09.07c1.65,1.2,3.27,2.42,4.88,3.67q2.52-2.34,5.1-4.63l2.84-2.48q2.74-2.38,5.55-4.7l1.59-1.32c.84-.68,1.69-1.37,2.55-2.05l.45-.37c1-.77,1.95-1.54,2.94-2.3a3.17,3.17,0,0,1,.36-.28c1.08-.84,2.17-1.68,3.26-2.5s2.17-1.63,3.26-2.43l.57-.42c1-.72,2-1.43,2.95-2.13s2.29-1.63,3.44-2.43,2.31-1.59,3.47-2.37q2.17-1.49,4.39-2.92c.8-.52,1.61-1.05,2.43-1.56a2.56,2.56,0,0,1,.47-.29l.06,0,.27-.15.11-.07c.62-.4,1.24-.79,1.87-1.17C284.14,332.42,287.51,333.12,290,334.57Z" />
      <path class="BUNTAI_RED_PANDA_OUTFIT_BUNTAI_RED_PANDA_OUTFIT_40_cls-2" d="M242.35,385.87l-1.59-1.49-6.62-6.22c-2.06-1.54-4.13-3.07-6.22-4.61-15-11-30.29-21.8-46.81-31.2-1.93-1.1-3.87-2.17-5.84-3.24l-1.84-1c-.57-.3-1.14-.61-1.71-.9-.78-.42-1.58-.83-2.38-1.23-1.32-.67-2.63-1.32-4-2h0c-2.43,1-5.18,2-8.15,3s-6.18,2.07-9.48,3.19l1.29.87,1.32.89c.21.14.42.28.62.43l.59.4.68.47,1,.69c.41.27.82.56,1.23.85l.27.19,1.42,1q.59.39,1.14.81l.28.19.08.05,2.67,1.88c.76.53,1.53,1.08,2.29,1.64,0,0,0,0,0,0l.33.24a5.91,5.91,0,0,1,.67.48L166,353l.79.58.22.17.53.39.07.05.08.06a6.61,6.61,0,0,1,.6.44c.34.23.66.47,1,.72a3.49,3.49,0,0,1,.32.25s0,0,0,0c1.27.93,2.55,1.87,3.81,2.83a.85.85,0,0,1,.19.14c.21.15.43.31.64.48.41.29.8.59,1.19.91a1,1,0,0,1,.22.14l.28.23,1,.75,1.29,1s0,0,.06,0c.25.18.5.37.76.58l.09.08c.45.33.89.67,1.34,1,.66.49,1.31,1,2,1.5,1.2.94,2.4,1.87,3.59,2.82.15.1.29.23.44.35a3.49,3.49,0,0,1,.32.25l.15.13,0,0,.11.08.38.31.35.28c.45.34.89.7,1.34,1.07s.85.66,1.26,1,.66.52,1,.8c.58.45,1.16.92,1.73,1.4,1.13.91,2.26,1.83,3.37,2.75l.33.27.28.24c.37.3.74.6,1.11.92l.46.38c.78.64,1.55,1.29,2.32,1.95l0,0c.83.68,1.66,1.38,2.48,2.09l.4.33,3.6,3.08c.18.17.36.32.55.48,1.45,1.27,2.92,2.54,4.36,3.83a.75.75,0,0,1,.14.12h0l.6.53,1.63,1.45h0l.05.05c.13.1.25.22.36.32h0c1.61,1.44,3.21,2.88,4.81,4.34l4.61,4.26c1.69,1.59,3.39,3.2,5.07,4.8l1.57,1.51,2.37,2.31.16.15.19.19.07.06q1.7-2,3.44-4l.08-.1h0s0,0,0,0l0,0,0,0a2.52,2.52,0,0,1,.21-.25l.87-1,.4-.45.84-1c.22-.25.45-.5.67-.76l1.67-1.89,1-1.16.21-.23c.35-.4.71-.82,1.09-1.22l.19-.21.14-.16c.33-.38.68-.76,1-1.13,1.19-1.32,2.39-2.65,3.61-4h0ZM165,341.3l.17-.14a4.77,4.77,0,0,1,.64-.43h0a4.53,4.53,0,0,1,.71-.32l.12,0,.06,0,.35-.11.08,0,.36-.07.38,0,.18,0a3,3,0,0,1,.42,0l.43,0,.43.05.19,0a4.69,4.69,0,0,1,.76.19l.3.1.2.09.11,0,.27.14.26.16.17.11a.88.88,0,0,1,.17.12,3.88,3.88,0,0,1,.31.26l.05.05a.28.28,0,0,1,.1.09,1.93,1.93,0,0,1,.27.3h0a1.3,1.3,0,0,1,.18.23l0,.05a2.61,2.61,0,0,1,.17.28,1.62,1.62,0,0,1,.1.18,1.64,1.64,0,0,1,.14.3,2.47,2.47,0,0,1,.11.36v0h0a.13.13,0,0,1,0,.06.17.17,0,0,1,0,.07.66.66,0,0,1,0,.15v.07s0,.06,0,.09,0,.05,0,.08a2.28,2.28,0,0,1,0,.27c0,.1,0,.21,0,.31a.45.45,0,0,0,0,.11.17.17,0,0,0,0,.07,2,2,0,0,1,0,.26.14.14,0,0,1,0,.06h0l0,.11a1.21,1.21,0,0,1-.08.25v0h0a0,0,0,0,1,0,0l-.06.15c0,.06-.05.12-.08.17l-.15.27c-.09.14-.19.28-.29.41v0h0a.8.8,0,0,1-.15.17l-.05,0a3.34,3.34,0,0,1-.33.32l-.17.14-.39.27a4.49,4.49,0,0,1-.42.24l-.21.09-.27.12-.29.1a3.41,3.41,0,0,1-.55.14l-.11,0h-.11l-.25,0-.24,0a3.91,3.91,0,0,1-.49,0,5.72,5.72,0,0,1-1.78-.28l-.33-.12-.31-.13a4.61,4.61,0,0,1-.58-.33,6.81,6.81,0,0,1-.49-.36,2,2,0,0,1-.26-.24,2.7,2.7,0,0,1-.28-.31,1.84,1.84,0,0,1-.17-.22l-.13-.2a4,4,0,0,1-.24-.46l-.09-.22,0-.09,0-.12a1.66,1.66,0,0,1-.06-.21l-.06-.32c0-.13,0-.27,0-.41s0-.24,0-.35v0a.09.09,0,0,1,0-.05.13.13,0,0,1,0-.06.59.59,0,0,1,0-.13l0-.18h0v0a2.81,2.81,0,0,1,.1-.31.08.08,0,0,1,0-.05.14.14,0,0,1,0-.06l0-.05a1.17,1.17,0,0,1,0-.11l.07-.14a.25.25,0,0,1,0-.07,1.13,1.13,0,0,1,.12-.21h0a0,0,0,0,0,0,0,.05.05,0,0,0,0,0h0l.24-.32a1.12,1.12,0,0,1,.18-.2l0-.05h0l0,0,0,0a.85.85,0,0,1,.17-.16Z" />
      <path class="BUNTAI_RED_PANDA_OUTFIT_BUNTAI_RED_PANDA_OUTFIT_40_cls-2" d="M300.64,340.43c-3-1.7-6-3.34-9-5l-1.61-.9-.34.2c-.21.12-.42.25-.62.39-.58.34-1.15.68-1.72,1h0l-.24.14-.05,0c-1,.59-1.9,1.19-2.85,1.8-.58.37-1.17.74-1.74,1.13q-2.3,1.5-4.53,3c-13.24,9.13-25.52,19.51-37.53,30.2-2.1,1.86-4.19,3.74-6.27,5.61l6.62,6.22,1.59,1.49,7.35,6.9c.56-.62,1.13-1.22,1.7-1.83l.61-.66q3.27-3.51,6.6-6.95l.44-.45h0a3.31,3.31,0,0,1,.26-.27c0-.05.08-.08.11-.13s.25-.23.37-.36l.66-.67.94-1,.12-.12h0s0,0,0,0a2.18,2.18,0,0,1,.21-.22l1.81-1.83s0,0,0,0l.28-.27c1.35-1.36,2.71-2.73,4.09-4.07l.05-.05a.1.1,0,0,1,0-.05h0a.34.34,0,0,1,.06-.06,2.76,2.76,0,0,1,.3-.29c.1-.12.22-.22.33-.33l.51-.5c1.48-1.46,3-2.89,4.46-4.31l.65-.62c.8-.76,1.59-1.52,2.4-2.27l.75-.71.82-.76.78-.73.24-.23.15-.13.13-.12c.42-.39.82-.78,1.23-1.15s.64-.58.95-.88c.65-.58,1.27-1.16,1.91-1.74s1.25-1.13,1.87-1.68c.16-.15.33-.29.48-.44l1.05-.93c.32-.3.64-.58,1-.86l.51-.45.57-.5c.56-.51,1.14-1,1.71-1.52l2-1.76q.93-.82,1.86-1.62c.43-.38.86-.74,1.3-1.1,1.44-1.23,2.87-2.46,4.33-3.66,1-.84,2-1.67,3-2.48Zm-6.78,4.87c0,.09-.07.17-.11.26a2,2,0,0,1-.14.25l-.05.07a.86.86,0,0,1-.1.16.66.66,0,0,1-.12.17l0,.06,0,0,0,0a1,1,0,0,1-.14.15,1,1,0,0,1-.14.15,3,3,0,0,1-.47.4l0,0a4.93,4.93,0,0,1-.54.34l-.05,0-.05,0-.13.07-.14.06-.09,0,0,0-.2.08,0,0h-.05l-.25.08h-.06a2.22,2.22,0,0,1-.37.09h-.05s0,0,0,0h0l-.08,0h-.08l-.09,0h-.07l-.18,0h-.19l-.45,0c-2.68,0-4.86-1.79-4.86-4a3,3,0,0,1,0-.42,2.25,2.25,0,0,1,.06-.36v0a0,0,0,0,1,0,0s0,0,0,0h0a2.07,2.07,0,0,1,.1-.33,1.41,1.41,0,0,1,.14-.31.09.09,0,0,1,0-.06,2,2,0,0,1,.16-.28l0-.07.07-.08a1.37,1.37,0,0,1,.15-.21l0,0a1.2,1.2,0,0,1,.19-.21l.09-.09.1-.1,0,0s0,0,0,0a1,1,0,0,1,.22-.18,2,2,0,0,1,.33-.24,4.23,4.23,0,0,1,.42-.25l.12-.06.44-.19.19-.07a3.77,3.77,0,0,1,.6-.16,1.36,1.36,0,0,1,.29-.06l.3,0,.26,0a2.55,2.55,0,0,1,.39,0,5.84,5.84,0,0,1,.73.05l.34.05.51.12.39.12.15.06.36.16a3.62,3.62,0,0,1,.43.24,2.71,2.71,0,0,1,.35.24,3.47,3.47,0,0,1,.42.34l.08.08.09.09.19.21h0c.07.08.13.17.19.25s0,0,0,0a.23.23,0,0,1,.05.07.87.87,0,0,1,.11.18,2.58,2.58,0,0,1,.22.44.06.06,0,0,1,0,0,.09.09,0,0,1,0,.06.49.49,0,0,1,0,.11.57.57,0,0,1,0,.14s0,0,0,0v0a2.57,2.57,0,0,1,.08.38,1.23,1.23,0,0,1,0,.19h0a2.81,2.81,0,0,1,0,.29,1.09,1.09,0,0,1,0,.18,1.11,1.11,0,0,1,0,.17v.1c0,.13,0,.25-.07.37a0,0,0,0,1,0,0,2.4,2.4,0,0,1-.12.38Z" />
      <path class="BUNTAI_RED_PANDA_OUTFIT_BUNTAI_RED_PANDA_OUTFIT_40_cls-3" d="M282.07,331c-.63.38-1.26.77-1.87,1.17l-.11.07-.27.15-.06,0a2.56,2.56,0,0,0-.47.29c-.82.51-1.63,1-2.43,1.56q-2.22,1.44-4.39,2.92c-1.16.78-2.32,1.57-3.47,2.37s-2.3,1.61-3.44,2.43-2,1.41-2.95,2.13l-.57.42c-1.09.8-2.18,1.61-3.26,2.43s-2.18,1.66-3.26,2.5a3.17,3.17,0,0,0-.36.28c-1,.76-2,1.53-2.94,2.3l-.45.37c-.86.68-1.71,1.37-2.55,2.05l-1.59,1.32q-2.81,2.31-5.55,4.7L239.24,363q-2.58,2.3-5.1,4.63c-1.61-1.25-3.23-2.47-4.88-3.67l-.09-.07-.19-.13-.12-.09-.14-.1-.08-.05c-.24-.19-.49-.37-.73-.54-1.08-.8-2.17-1.6-3.27-2.38l-.84-.6-.08-.06-1.93-1.36c-.51-.37-1-.73-1.55-1.08s-.8-.55-1.2-.83c-1.08-.75-2.16-1.48-3.24-2.21l-.6-.4c-1.3-.87-2.6-1.73-3.92-2.59s-2.64-1.73-4-2.58-2.67-1.69-4-2.52q-4.46-2.76-9-5.42-8.57-5-17.44-9.61l-2.76-1.41a58.18,58.18,0,0,0,8.84-5.68,20.35,20.35,0,0,0,4.2-4.18c1.11.64,2.21,1.3,3.3,2,2.31,1.38,4.57,2.82,6.81,4.29,1,.64,1.93,1.29,2.88,1.94s1.79,1.22,2.67,1.85c.33.21.65.44,1,.68.7.5,1.4,1,2.1,1.52.39.27.79.56,1.18.87.78.56,1.55,1.14,2.31,1.73,1,.76,2,1.53,3,2.31s2,1.56,2.93,2.36l.07.05c.94.78,1.88,1.56,2.8,2.35s1.63,1.4,2.43,2.1l1.35,1.21q1.62,1.44,3.18,2.92c.53.49,1,1,1.56,1.48s1.13,1.08,1.68,1.63.92.9,1.37,1.36c.73.73,1.46,1.46,2.17,2.21s1.53,1.59,2.28,2.4c.73-.95,1.46-1.88,2.21-2.81.33-.42.66-.83,1-1.24s.77-.95,1.17-1.42,1-1.18,1.49-1.76c1-1.22,2.09-2.42,3.17-3.61l1-1.13q2.94-3.19,6-6.24c.45-.45.91-.91,1.37-1.35a1,1,0,0,1,.15-.14c.65-.63,1.31-1.26,2-1.87.49-.47,1-.92,1.48-1.36s.74-.68,1.1-1c.58-.52,1.16-1,1.75-1.55s1.17-1,1.76-1.53l1.69-1.42,1.38-1.14,1.26-1,1.09-.87c1.13-.89,2.28-1.79,3.44-2.65l.22-.17c5,4.69,11.81,7.34,13.06,8Z" />
      <path class="BUNTAI_RED_PANDA_OUTFIT_BUNTAI_RED_PANDA_OUTFIT_40_cls-7" d="M187.11,320.08c1.11.64,2.21,1.29,3.3,2,2.31,1.38,4.57,2.82,6.81,4.29,1,.64,1.93,1.28,2.88,1.94s1.79,1.21,2.67,1.85c.33.21.65.44,1,.68.7.5,1.4,1,2.1,1.52.39.27.79.56,1.18.87.77.56,1.54,1.13,2.31,1.73,1,.75,2,1.52,3,2.31s2,1.56,2.93,2.36l.07.05c.94.78,1.88,1.56,2.8,2.35s1.63,1.4,2.43,2.1l1.35,1.21q1.62,1.44,3.18,2.92c.53.49,1,1,1.56,1.48s1.13,1.08,1.68,1.63.92.9,1.37,1.36c.73.73,1.46,1.46,2.17,2.21s1.53,1.59,2.28,2.4" />
      <path class="BUNTAI_RED_PANDA_OUTFIT_BUNTAI_RED_PANDA_OUTFIT_40_cls-7" d="M174.07,329.94l2.76,1.41Q185.7,336,194.27,341q4.56,2.66,9,5.42c1.35.83,2.68,1.67,4,2.52s2.66,1.71,4,2.58,2.62,1.72,3.92,2.59l.6.4c1.08.73,2.16,1.46,3.24,2.21l1.2.83c.52.35,1,.71,1.55,1.08l1.93,1.36.08.06.84.6c1.1.78,2.19,1.58,3.27,2.38l.81.59.14.1.12.09.19.13.09.07c1.65,1.2,3.27,2.42,4.88,3.67" />
      <path class="BUNTAI_RED_PANDA_OUTFIT_BUNTAI_RED_PANDA_OUTFIT_40_cls-7" d="M234.14,378.16c-2.06-1.54-4.13-3.07-6.22-4.61-15-11-30.29-21.8-46.81-31.2-1.93-1.1-3.87-2.17-5.84-3.24l-1.84-1c-.57-.3-1.14-.61-1.71-.9-.78-.42-1.58-.83-2.38-1.23-1.32-.67-2.63-1.32-4-2h0" />
      <path class="BUNTAI_RED_PANDA_OUTFIT_BUNTAI_RED_PANDA_OUTFIT_40_cls-7" d="M105.08,369.44c2.66,3.34,5.83,7,7.15,10.33a62.4,62.4,0,0,1,4.53,23" />
      <path class="BUNTAI_RED_PANDA_OUTFIT_BUNTAI_RED_PANDA_OUTFIT_40_cls-7" d="M91.12,393.32c3,1.56,5.88,3.17,8.64,4.93,1.64,1.05,3.23,2.14,4.75,3.31,1,.77,2,1.58,2.92,2.42.62.56,1.23,1.14,1.8,1.74a33.12,33.12,0,0,1,4.49,5.76l0,0" />
      <path class="BUNTAI_RED_PANDA_OUTFIT_BUNTAI_RED_PANDA_OUTFIT_40_cls-7" d="M234.14,410.39l-.07-.06-.19-.19-.16-.15-2.37-2.31-1.57-1.51c-1.68-1.6-3.38-3.21-5.07-4.8l-4.61-4.26c-1.6-1.46-3.2-2.9-4.81-4.34h0c-.11-.1-.23-.22-.36-.32l-.05-.05h0l-1.63-1.45-.6-.53h0a.75.75,0,0,0-.14-.12c-1.44-1.29-2.91-2.56-4.36-3.83-.19-.16-.37-.31-.55-.48l-3.6-3.08-.4-.33c-.82-.71-1.65-1.41-2.48-2.09l0,0c-.77-.66-1.54-1.31-2.32-1.95l-.46-.38c-.37-.32-.74-.62-1.11-.92l-.28-.24-.33-.27c-1.11-.92-2.24-1.84-3.37-2.75-.57-.48-1.15-.95-1.73-1.4-.33-.28-.66-.54-1-.8s-.84-.69-1.26-1-.89-.73-1.34-1.07l-.35-.28-.38-.31L187,369l0,0-.15-.13a3.49,3.49,0,0,0-.32-.25c-.15-.12-.29-.25-.44-.35-1.19-1-2.39-1.88-3.59-2.82-.64-.5-1.29-1-2-1.5-.45-.35-.89-.69-1.34-1l-.09-.08c-.26-.21-.51-.4-.76-.58,0,0,0,0-.06,0l-1.29-1-1-.75-.28-.23a1,1,0,0,0-.22-.14c-.39-.32-.78-.62-1.19-.91-.21-.17-.43-.33-.64-.48a.85.85,0,0,0-.19-.14c-1.26-1-2.54-1.9-3.81-2.83,0,0,0,0,0,0a3.49,3.49,0,0,0-.32-.25c-.34-.25-.66-.49-1-.72a6.61,6.61,0,0,0-.6-.44l-.08-.06-.07-.05-.53-.39-.22-.17L166,353l-2.4-1.72a5.91,5.91,0,0,0-.67-.48l-.33-.24s0,0,0,0c-.76-.56-1.53-1.11-2.29-1.64l-2.67-1.88-.08-.05-.28-.19q-.56-.42-1.14-.81l-1.42-1-.27-.19c-.41-.29-.82-.58-1.23-.85l-1-.69-.68-.47-.59-.4c-.2-.15-.41-.29-.62-.43l-1.32-.89-1.29-.87" />
      <path class="BUNTAI_RED_PANDA_OUTFIT_BUNTAI_RED_PANDA_OUTFIT_40_cls-7" d="M130.17,383.87a65.39,65.39,0,0,0-13.41,18.9s0,0,0,0a45.17,45.17,0,0,0-3,8.73h0a38.19,38.19,0,0,0-.79,13.84c.12.83.26,1.67.43,2.5,1.61,7.72,5.91,14.91,12,20.9a58.49,58.49,0,0,0,16.59,11.34c14.53,6.66,32.05,8.23,48.31,5.45A104.76,104.76,0,0,0,234,446.76" />
      <path class="BUNTAI_RED_PANDA_OUTFIT_BUNTAI_RED_PANDA_OUTFIT_40_cls-7" d="M229.25,364c.94-1.34,1.88-2.67,2.87-4l.15-.22c.61-.83,1.24-1.64,1.86-2.46s1.47-1.88,2.21-2.81l1-1.24,1.16-1.41c.5-.59,1-1.19,1.49-1.77,1-1.22,2.1-2.41,3.18-3.6.33-.39.68-.76,1-1.14,1.95-2.12,4-4.21,6-6.24.44-.45.91-.9,1.37-1.35l.15-.14c.65-.63,1.3-1.25,2-1.87.49-.46,1-.92,1.48-1.36s.73-.68,1.1-1c.58-.53,1.16-1.05,1.75-1.56l1.76-1.53,9.08-7.25" />
      <path class="BUNTAI_RED_PANDA_OUTFIT_BUNTAI_RED_PANDA_OUTFIT_40_cls-7" d="M227.91,373.56q3.08-3,6.22-5.92c1.69-1.56,3.38-3.1,5.11-4.63.94-.83,1.88-1.66,2.84-2.48,1.82-1.59,3.68-3.16,5.55-4.69l1.59-1.32c.84-.69,1.69-1.38,2.55-2.06l.45-.36c1-.77,1.95-1.55,2.94-2.31l.35-.28c1.08-.84,2.17-1.68,3.26-2.49s2.17-1.64,3.27-2.44l.56-.41c1-.73,2-1.43,3-2.14,2.28-1.64,4.59-3.24,6.91-4.8q2.17-1.49,4.38-2.91l2.43-1.57c.67-.43.25-.12.92-.54s1.24-.79,1.87-1.17" />
      <path class="BUNTAI_RED_PANDA_OUTFIT_BUNTAI_RED_PANDA_OUTFIT_40_cls-7" d="M290,334.57l-.34.2-.63.39-1.71,1v0a1.49,1.49,0,0,0-.24.14.05.05,0,0,0-.05,0c-1,.58-1.91,1.18-2.85,1.79l-1.75,1.13c-1.53,1-3,2-4.53,3-13.23,9.13-25.51,19.51-37.52,30.2-2.1,1.86-4.19,3.74-6.28,5.62l6.63,6.22,1.58,1.49,7.35,6.89" />
      <path class="BUNTAI_RED_PANDA_OUTFIT_BUNTAI_RED_PANDA_OUTFIT_40_cls-7" d="M338.21,371.38c-.21.42-.41.86-.6,1.29s-.32.7-.48,1.06-.21.49-.3.74c-.27.63-.53,1.26-.78,1.9s-.43,1.13-.63,1.7-.4,1.14-.59,1.7c-.42,1.26-.8,2.53-1.16,3.81l-.24.93c-.17.68-.34,1.37-.5,2.05-.09.41-.19.82-.27,1.24s-.21,1-.31,1.55c-.05.27-.1.54-.14.81-.36,2-.64,4.07-.81,6.12,0,.47-.09.94-.13,1.4s-.06.94-.08,1.41c-.06.93-.09,1.85-.1,2.8h0c0,.26,0,.5,0,.75h0v.12" />
      <path class="BUNTAI_RED_PANDA_OUTFIT_BUNTAI_RED_PANDA_OUTFIT_40_cls-7" d="M351.08,394.08c-2,1.32-4,2.7-6,4.17-1.35,1-2.66,2.14-3.91,3.31h0c-.84.77-1.64,1.58-2.42,2.42-.26.28-.51.56-.75.85-.5.58-1,1.18-1.43,1.79s-.9,1.25-1.31,1.89a27.11,27.11,0,0,0-1.47,2.55c-.09.15-.16.3-.24.45" />
      <path class="BUNTAI_RED_PANDA_OUTFIT_BUNTAI_RED_PANDA_OUTFIT_40_cls-7" d="M234.13,410.39c1.14-1.35,2.29-2.68,3.45-4l.08-.1h0v0l0,0s0,0,0,0l.2-.25c.3-.33.59-.67.88-1,.13-.16.26-.31.4-.46.28-.32.55-.64.84-1l.67-.77c.55-.62,1.11-1.26,1.67-1.88.33-.39.67-.78,1-1.16l.21-.23c.36-.41.72-.82,1.09-1.22l.2-.22.14-.15c.33-.39.68-.76,1-1.14q1.8-2,3.61-4h0c.57-.61,1.13-1.22,1.71-1.83l.61-.66q3.27-3.5,6.59-6.94l.45-.46h0l.26-.27.11-.12.37-.36.66-.68c.32-.33.62-.65.94-1l.12-.12h0s0,0,0,0l.22-.21h0l1.81-1.84a2.29,2.29,0,0,0,.27-.27c1.36-1.36,2.72-2.73,4.09-4.07l.1-.1.07-.06.31-.3.33-.33.51-.5c1.48-1.45,3-2.88,4.46-4.3.21-.21.43-.43.65-.63.79-.76,1.59-1.52,2.39-2.26l.76-.71c.27-.27.54-.52.81-.77l.79-.73.24-.23a.86.86,0,0,0,.14-.13.75.75,0,0,0,.14-.12l1.23-1.14.95-.88,1.9-1.74c.63-.58,1.26-1.14,1.87-1.69.17-.14.34-.29.49-.44l1.05-.93,1-.86.51-.45q1.13-1,2.28-2c.67-.59,1.35-1.19,2-1.77l1.86-1.62c.42-.37.85-.74,1.29-1.1,1.44-1.23,2.88-2.46,4.34-3.66,1-.84,2-1.66,3-2.48" />
      <path class="BUNTAI_RED_PANDA_OUTFIT_BUNTAI_RED_PANDA_OUTFIT_40_cls-7" d="M234.25,446.76c10.31,9.1,22.7,16,36.13,18.79a62.07,62.07,0,0,0,14.33,1.29,55.64,55.64,0,0,0,25.57-6.74A49.18,49.18,0,0,0,324,448.76a44.49,44.49,0,0,0,9.89-20.9,42.89,42.89,0,0,0,.6-6.37,46.43,46.43,0,0,0-.9-10h0a52.86,52.86,0,0,0-2.49-8.73h0c-.16-.41-.3-.8-.46-1.2A67.35,67.35,0,0,0,320,383.87" />
      <path class="BUNTAI_RED_PANDA_OUTFIT_BUNTAI_RED_PANDA_OUTFIT_40_cls-7" d="M116.76,402.77s0-12.08,6.48-19" />
      <path class="BUNTAI_RED_PANDA_OUTFIT_BUNTAI_RED_PANDA_OUTFIT_40_cls-7" d="M330.62,401.6v0c0-.51-.08-12.06-3.91-17.71" />
      <path class="BUNTAI_RED_PANDA_OUTFIT_BUNTAI_RED_PANDA_OUTFIT_40_cls-7" d="M113,425.36h0l-.44-.63a0,0,0,0,0,0,0,50.42,50.42,0,0,0-5.75-6.6l-1.09-1.06-1-.88L103.37,415c-1.18-1-2.4-2.07-3.64-3.09-.83-.67-1.67-1.34-2.52-2-1.14-.88-2.29-1.75-3.43-2.58,0,0,0,0,0,0l-1.23-.9h0l-2.44-1.71-1.19-.81" />
      <path class="BUNTAI_RED_PANDA_OUTFIT_BUNTAI_RED_PANDA_OUTFIT_40_cls-7" d="M353.91,403.65l-.28.2-.3.21c-5.73,4.06-15.59,14.08-18.2,16.76l-.65.67" />
      <path class="BUNTAI_RED_PANDA_OUTFIT_BUNTAI_RED_PANDA_OUTFIT_40_cls-7" d="M173.32,344.07c0,2.22-2.18,4-4.86,4s-4.87-1.79-4.87-4,2.18-4,4.87-4S173.32,341.86,173.32,344.07Z" />
      <path class="BUNTAI_RED_PANDA_OUTFIT_BUNTAI_RED_PANDA_OUTFIT_40_cls-7" d="M294.09,344.07c0,2.22-2.17,4-4.86,4s-4.86-1.79-4.86-4,2.18-4,4.86-4S294.09,341.86,294.09,344.07Z" />
      <path class="BUNTAI_RED_PANDA_OUTFIT_BUNTAI_RED_PANDA_OUTFIT_40_cls-5" d="M264.08,379.42a2,2,0,0,0-.07-.26,2.72,2.72,0,0,0-.19-.5c0-.08-.09-.15-.13-.22h0l-.05-.08a.42.42,0,0,0-.06-.08s0,0,0,0l0,0h0a2.12,2.12,0,0,0-.2-.24l-.25-.25-.28-.22-.09-.06-.06,0a.65.65,0,0,0-.16-.09l-.23-.11-.21-.08-.25-.07-.25-.05h-.14a2.89,2.89,0,0,0-.88,0l-.36.1-.29.11a.31.31,0,0,0-.13.06l-.15.07,0,0,0,0,0,0-.13.08-.25.19a4.17,4.17,0,0,0-.36.37h0c-.1.14-.2.28-.28.42s-.12.24-.17.37-.07.19-.1.28a.29.29,0,0,0,0,.09s0,0,0,.05v0s0,.05,0,.07a3.21,3.21,0,0,0-.05.88,2.54,2.54,0,0,0,0,.29.25.25,0,0,1,0,.08.42.42,0,0,0,0,.1,2.53,2.53,0,0,0,.29.72l.08.13.1.14c.06.09.13.17.2.26a3.38,3.38,0,0,0,.27.26h0l.11.08,0,0a.71.71,0,0,0,.14.1,1.64,1.64,0,0,0,.22.14l.3.15.31.11.22.05.07,0h.15l.14,0h.58l.27,0,.15,0,.14,0,.18-.06a1.69,1.69,0,0,0,.31-.13,2.83,2.83,0,0,0,.92-.72,2.56,2.56,0,0,0,.2-.26,1.75,1.75,0,0,0,.18-.29.2.2,0,0,0,0-.08s0,0,0-.05a.52.52,0,0,0,.06-.13.36.36,0,0,0,0-.09s0,0,0,0a.29.29,0,0,0,.05-.13,1,1,0,0,0,0-.14,1.05,1.05,0,0,0,.05-.19s0,0,0,0,0,0,0,0l0-.17a3,3,0,0,0,0-.67A2.7,2.7,0,0,0,264.08,379.42Zm-3.47.75a1.34,1.34,0,0,1,.35,0,1.16,1.16,0,0,1,.56.21.58.58,0,0,1-.3.18A.53.53,0,0,1,260.61,380.17Z" />
      <path class="BUNTAI_RED_PANDA_OUTFIT_BUNTAI_RED_PANDA_OUTFIT_40_cls-5" d="M264.32,425.67c-.64-5.65-1.62-24.68-2-31.75-.09-1.68-.14-2.68-.14-2.68L260.3,391l-1.86-.21s-.22.88-.55,2.57c-.45,2.27-1.1,6-1.7,11a216.58,216.58,0,0,0-1.51,26.15,12.67,12.67,0,0,0,4.44,2.43,9.52,9.52,0,0,0,3.1.4,7.29,7.29,0,0,0,2.88-.65Z" />
      <path class="BUNTAI_RED_PANDA_OUTFIT_BUNTAI_RED_PANDA_OUTFIT_40_cls-5" d="M214.84,379.74a3.86,3.86,0,0,0-.09-.51,2.18,2.18,0,0,0-.16-.45v0a3.28,3.28,0,0,0-.41-.65,1,1,0,0,0-.17-.19l-.09-.09a2.51,2.51,0,0,0-.44-.35,2.14,2.14,0,0,0-.3-.17,2.39,2.39,0,0,0-.37-.15l-.19-.06-.2,0a3.06,3.06,0,0,0-1.27,0l-.17,0a3.12,3.12,0,0,0-.39.15l-.15.08-.12.06c-.13.08-.25.17-.37.26a3.07,3.07,0,0,0-.26.25,1.21,1.21,0,0,0-.21.24,2.11,2.11,0,0,0-.21.31,2.31,2.31,0,0,0-.18.35c0,.1-.08.2-.11.3a2.81,2.81,0,0,0-.08.31,3,3,0,0,0,0,.95l0,.18a2.28,2.28,0,0,0,.17.58c0,.06.05.11.07.16a1.3,1.3,0,0,0,.14.26l.1.15a2.56,2.56,0,0,0,.2.26,1,1,0,0,0,.2.21.53.53,0,0,0,.14.12,2.46,2.46,0,0,0,.58.39,1.78,1.78,0,0,0,.29.12l.14.05.15,0,.2.06.16,0h.1l.32,0h.27l.2,0,.22,0,.19-.05.23-.08a3.59,3.59,0,0,0,.34-.17,2.19,2.19,0,0,0,.41-.26l.1-.08.18-.17.1-.11.06-.07.08-.1.08-.1.06-.1s0,0,0-.05a.64.64,0,0,0,.08-.14,2.53,2.53,0,0,0,.31-.82v0A2.91,2.91,0,0,0,214.84,379.74Zm-3.1.78a.52.52,0,0,1-.29-.18,1.09,1.09,0,0,1,.55-.21,1.34,1.34,0,0,1,.35,0A.53.53,0,0,1,211.74,380.52Z" />
      <path class="BUNTAI_RED_PANDA_OUTFIT_BUNTAI_RED_PANDA_OUTFIT_40_cls-5" d="M215.07,393.37c-.33-1.69-.55-2.57-.55-2.57l-1.86.21-1.91.23s-.05,1-.14,2.68c-.35,7.07-1.34,26.1-2,31.75l-.79,7a7.31,7.31,0,0,0,2.89.65,9.56,9.56,0,0,0,3.1-.4,12.84,12.84,0,0,0,4.44-2.43,216.58,216.58,0,0,0-1.51-26.15C216.17,399.37,215.52,395.64,215.07,393.37Z" />
      <path class="BUNTAI_RED_PANDA_OUTFIT_BUNTAI_RED_PANDA_OUTFIT_40_cls-7" d="M261.51,380.35a.53.53,0,1,0-.92-.25.19.19,0,0,0,0,.07.52.52,0,0,0,.61.35A.5.5,0,0,0,261.51,380.35Z" />
      <path class="BUNTAI_RED_PANDA_OUTFIT_BUNTAI_RED_PANDA_OUTFIT_40_cls-7" d="M262.47,382.69a3,3,0,1,0-4.31-2.12,2.94,2.94,0,0,0,1,1.69,3,3,0,0,0,2.54.69A3.57,3.57,0,0,0,262.47,382.69Z" />
      <path class="BUNTAI_RED_PANDA_OUTFIT_BUNTAI_RED_PANDA_OUTFIT_40_cls-7" d="M260.61,380.17a1.34,1.34,0,0,1,.35,0,1,1,0,0,1,.55.22h0a3.13,3.13,0,0,1,1,2.34,5.43,5.43,0,0,1,0,.56c-.11,1.65-1,2.95-1.91,2.88h0c-.93-.11-1.58-1.49-1.46-3.12a3.67,3.67,0,0,1,.11-.75" />
      <polyline class="BUNTAI_RED_PANDA_OUTFIT_BUNTAI_RED_PANDA_OUTFIT_40_cls-7" points="260.3 391.02 260.3 391.01 260.5 386.13 260.55 384.99" />
      <path class="BUNTAI_RED_PANDA_OUTFIT_BUNTAI_RED_PANDA_OUTFIT_40_cls-7" d="M257.89,393.37c.33-1.69.55-2.57.55-2.57l1.86.21,1.91.23s.05,1,.14,2.68c.35,7.07,1.33,26.1,2,31.75l.78,7a7.29,7.29,0,0,1-2.88.65,9.52,9.52,0,0,1-3.1-.4,12.67,12.67,0,0,1-4.44-2.43,216.58,216.58,0,0,1,1.51-26.15C256.79,399.37,257.44,395.64,257.89,393.37Z" />
      <line class="BUNTAI_RED_PANDA_OUTFIT_BUNTAI_RED_PANDA_OUTFIT_40_cls-7" x1="257.89" y1="393.37" x2="262.35" y2="393.92" />
      <path class="BUNTAI_RED_PANDA_OUTFIT_BUNTAI_RED_PANDA_OUTFIT_40_cls-7" d="M260.41,409.67s.39,16.35,1.81,23.64" />
      <path class="BUNTAI_RED_PANDA_OUTFIT_BUNTAI_RED_PANDA_OUTFIT_40_cls-7" d="M258.41,404.3l0,.3c-.2,2.25-1.4,16.81.73,28.3" />
      <path class="BUNTAI_RED_PANDA_OUTFIT_BUNTAI_RED_PANDA_OUTFIT_40_cls-7" d="M211.44,380.35a.54.54,0,1,1,.93-.25.19.19,0,0,1,0,.07.52.52,0,0,1-.61.35A.56.56,0,0,1,211.44,380.35Z" />
      <path class="BUNTAI_RED_PANDA_OUTFIT_BUNTAI_RED_PANDA_OUTFIT_40_cls-7" d="M210.49,382.69a3,3,0,1,1,4.3-2.12,2.88,2.88,0,0,1-1,1.69,3,3,0,0,1-2.55.69A3.33,3.33,0,0,1,210.49,382.69Z" />
      <path class="BUNTAI_RED_PANDA_OUTFIT_BUNTAI_RED_PANDA_OUTFIT_40_cls-7" d="M212.35,380.17a1.34,1.34,0,0,0-.35,0,1.09,1.09,0,0,0-.56.22h0a3.13,3.13,0,0,0-.94,2.34c0,.17,0,.37,0,.56.12,1.65,1,2.95,1.92,2.88h0c.92-.11,1.57-1.49,1.46-3.12a4.52,4.52,0,0,0-.11-.75" />
      <polyline class="BUNTAI_RED_PANDA_OUTFIT_BUNTAI_RED_PANDA_OUTFIT_40_cls-7" points="212.66 391.02 212.66 391.01 212.46 386.13 212.41 384.99" />
      <path class="BUNTAI_RED_PANDA_OUTFIT_BUNTAI_RED_PANDA_OUTFIT_40_cls-7" d="M215.07,393.37c-.33-1.69-.55-2.57-.55-2.57l-1.86.21-1.91.23s-.05,1-.14,2.68c-.35,7.07-1.34,26.1-2,31.75l-.79,7a7.31,7.31,0,0,0,2.89.65,9.56,9.56,0,0,0,3.1-.4,12.84,12.84,0,0,0,4.44-2.43,216.58,216.58,0,0,0-1.51-26.15C216.17,399.37,215.52,395.64,215.07,393.37Z" />
      <line class="BUNTAI_RED_PANDA_OUTFIT_BUNTAI_RED_PANDA_OUTFIT_40_cls-7" x1="215.07" y1="393.37" x2="210.61" y2="393.92" />
      <path class="BUNTAI_RED_PANDA_OUTFIT_BUNTAI_RED_PANDA_OUTFIT_40_cls-7" d="M212.55,409.67s-.4,16.35-1.81,23.64" />
      <path class="BUNTAI_RED_PANDA_OUTFIT_BUNTAI_RED_PANDA_OUTFIT_40_cls-7" d="M214.55,404.3l0,.3c.2,2.25,1.4,16.81-.74,28.3" />
      <path class="BUNTAI_RED_PANDA_OUTFIT_BUNTAI_RED_PANDA_OUTFIT_40_cls-7" d="M211.94,379.47s23.9,11.3,49.07,0" />
      <g class="BUNTAI_RED_PANDA_OUTFIT_BUNTAI_RED_PANDA_OUTFIT_40_cls-8">
        <path d="M113.74,411.51h0c-4.27-4.31-14.16-10.09-23.34-14.63.26-1.26.5-2.46.72-3.57v0c9.84,4.2,19.57,11.56,22.59,18.18Z" />
        <path d="M125.35,448.75h-4.2a175.91,175.91,0,0,1-12.86-12.35c-6.17-6.65-20.19-14.32-23-12.17-.71.54-1.51,1.1-2.31,1.63.56-2.11,1.11-4.12,1.62-5.94.41,0,.86,0,1.32,0a37.91,37.91,0,0,1,23.74,9.49s-5.12-8.95-15.87-22.13c0,0,0,0,0,0v0c3.26,1.6,7.3,5.19,10.78,8.75a.34.34,0,0,1,.09.08l.08.09a90.56,90.56,0,0,1,7.87,9,.8.8,0,0,1,.08.14,34.47,34.47,0,0,0,1,3.58s0,0,0,.06l0,0v0c3.29,9.91,10.59,18.45,11.59,19.59l0,.05Z" />
        <path d="M132.18,379.65s-13.41,14.21-15.06,23.12C120,390.07,124.26,383.34,132.18,379.65Z" />
        <path d="M115.27,406.39s8.67,41.06,58.05,41.06S234,442.79,234,442.79v4s-24.69,21.47-63.17,20-51.77-25.53-51.77-25.53-6.57-11-6.68-18.16S115.27,406.39,115.27,406.39Z" />
        <path d="M332.77,406.39s-7.21,41.06-48.3,41.06S234,442.79,234,442.79v4s20.53,21.47,52.55,20,43.07-25.53,43.07-25.53,5.46-11,5.56-18.16S332.77,406.39,332.77,406.39Z" />
        <path d="M245.07,397.86l-.14.16-.19.21-3.33,3.84-.18.2c-.28.33-.44.5-.44.5l-6.65,7.62-.07-.06-.19-.19-.16-.15c-1.85-1.69-9.41-8.66-18.74-17.1h0l-2.1-1.89-.21-.2h0c-3.72-3.34-7.63-6.85-11.55-10.31l0,0c-3-2.67-6-5.31-8.91-7.82-8.34-7.23-22-17-34.49-25.54l-.08-.05-.28-.19c-3.35-2.29-6.62-4.5-9.68-6.55l.11,0c3.3-1.12,6.5-2.17,9.48-3.19,2.49,1.37,5.06,2.81,7.69,4.29s5.26,3,7.9,4.54c9.17,5.36,18.26,11,25.27,16,10,7.21,20.5,15.19,29,21.79h0c3.61,2.79,6.87,5.34,9.59,7.49C241.86,395.27,245.07,397.86,245.07,397.86Z" />
        <path d="M232.27,359.76l-.15.21-2.86,4-.09-.07-.19-.13-.12-.09-.14-.1-.08-.05-.09-.06c-3.63-2.5-20.27-13.93-34.28-22.51-5-3.07-9.68-5.77-13.29-7.57l-4.15-2L174,330l.1-.05a58.18,58.18,0,0,0,8.84-5.68,169.53,169.53,0,0,1,15.21,8.81C219.46,347.13,232.27,359.76,232.27,359.76Z" />
        <path d="M360.6,429.46a64.06,64.06,0,0,1-13.69,19.3l-.12.11h-22.9l-1.1-.1,5.88-11.53a79.87,79.87,0,0,1,4.91-15c.26-.59.56-1.2.91-1.83h0c.17-.32.35-.63.55-.95h0c4.63-7.86,14.31-17.44,14.73-17.82l2.89-2.18,1.25,4.23a0,0,0,0,1,0,0c.25.85.51,1.71.76,2.57-.7,2.94-1.47,6.34-2.21,9.78-2,9.29-12,27-12.26,27.55C340.45,443.49,348.39,441.06,360.6,429.46Z" />
        <path d="M315.26,377s14.22,19.43,16.37,27.31C328.44,390.35,327.91,381.58,315.26,377Z" />
        <path d="M303.42,342c-4.54,3.76-9.72,8.14-15.24,13l-.42.38c-.21.19-.41.37-.63.55l-1.05.93c-.15.15-.32.3-.49.44-.61.55-1.24,1.11-1.87,1.69l-1.9,1.74-.95.88-1.23,1.14-.14.12c-5.3,5-10.74,10.39-15.81,15.57h0l-2,2.05-2,2.12-.61.62c-8.95,9.3-16,17.06-17.8,19l-.44.49,0,0-8.47-7a62.27,62.27,0,0,1,4.42-4.54c1.42-1.37,3.26-3.12,5.65-5.33.62-.57,1.27-1.18,2-1.8h0c1.87-1.73,4-3.68,6.49-5.89,7.77-7,24.27-19.27,39.27-30.16l3.76-2.71h0c2.32-1.68,4.59-3.31,6.76-4.86l2.74,1.55Z" />
        <path d="M173.18,433.32S199.34,425,209.29,422l.13-6.54S191,425.8,182.12,428s-23.53,9.4-23.53,9.4Z" />
        <path d="M217.63,413l.65,6.63s21.73-2.41,36.4-3.79l1-6.64-19.89,3.28C231.07,413.29,217.63,413,217.63,413Z" />
        <path d="M263.06,407.34l.41,7s11.66-2.63,20.9-5.13,18.44-4.32,16.87-4.32-22.48,3.72-27,4.32S263.06,407.34,263.06,407.34Z" />
        <path d="M228.45,424.42s9.73-2.5,12.13-3.28S251,418.6,251,418.6s-11.4,5.56-15.48,6.77-17.28,8.71-17.28,8.71,6.25-5.18,7.69-6.81S228.45,424.42,228.45,424.42Z" />
      </g>
      <path class="BUNTAI_RED_PANDA_OUTFIT_BUNTAI_RED_PANDA_OUTFIT_40_cls-7" d="M268.91,323c5,4.69,11.81,7.34,13.06,8l.1.06c2.06,1.38,5.44,2.08,8,3.53l1.61.9c3,1.62,6,3.26,9,5l2.74,1.55,0,0,.3.17,1.74,1c2.7,1.58,5.39,3.21,8,4.93l1.08.72c.56.36,1.13.74,1.68,1.13l.53.36,1,.73.09.07c.78.55,1.55,1.11,2.31,1.69s1.32,1,2,1.51l1.41,1.14.51.42.25.22q.61.51,1.23,1.05c.16.13.33.28.49.43.4.35.8.71,1.19,1.08l.48.44.54.51c.31.29.62.58.92.88l.76.76c.37.37.73.75,1.1,1.14l.19.21c.16.16.31.33.46.5l.52.56c.17.19.35.38.51.57.37.42.73.84,1.09,1.27.16.18.32.38.47.57l.48.6.37.45q.62.78,1.2,1.59l.19.26c.16.21.31.42.45.64s.39.54.58.82.32.47.47.71a.44.44,0,0,1,.08.11l.09.13h0" />
      <path class="BUNTAI_RED_PANDA_OUTFIT_BUNTAI_RED_PANDA_OUTFIT_40_cls-7" d="M105.08,369.44c6.6-15.69,25.82-23.42,42.53-29.16h0l.11,0c3.3-1.12,6.5-2.17,9.48-3.19s5.72-2,8.15-3h0l1-.44c2.88-1.24,5.39-2.46,7.56-3.62l.1-.05a58.18,58.18,0,0,0,8.84-5.68,20.35,20.35,0,0,0,4.2-4.18" />
      <path class="BUNTAI_RED_PANDA_OUTFIT_BUNTAI_RED_PANDA_OUTFIT_40_cls-7" d="M91.13,393.3v0c-.22,1.11-.46,2.31-.72,3.57-.46,2.2-1,4.56-1.51,6.94h0c-.94,4.12-2,8.26-3,11.6-.39,1.28-.84,2.8-1.31,4.49s-1.06,3.83-1.62,5.94c-2.11,7.93-4.44,17.25-5.83,22.89" />
      <path class="BUNTAI_RED_PANDA_OUTFIT_BUNTAI_RED_PANDA_OUTFIT_40_cls-7" d="M369.23,448.76c-3-7.7-8.21-21.51-10.25-28.2-1-3.37-2.63-8.76-4.3-14.33-.25-.86-.51-1.72-.76-2.57a0,0,0,0,0,0,0l-1.25-4.23c-.56-1.87-1.09-3.68-1.58-5.34" />
    </g>
  </g>
</svg>