<svg xmlns="http://www.w3.org/2000/svg" viewBox="0 0 432 432">
  <defs>
    <style>.BUNTAI_RED_PANDA_OUTFIT_BUNTAI_RED_PANDA_OUTFIT_42_cls-1{isolation:isolate;}.BUNTAI_RED_PANDA_OUTFIT_BUNTAI_RED_PANDA_OUTFIT_42_cls-2{fill:#d0c6fd;}.BUNTAI_RED_PANDA_OUTFIT_BUNTAI_RED_PANDA_OUTFIT_42_cls-3{fill:#6b57de;}.BUNTAI_RED_PANDA_OUTFIT_BUNTAI_RED_PANDA_OUTFIT_42_cls-4{fill:#d8c04f;}.BUNTAI_RED_PANDA_OUTFIT_BUNTAI_RED_PANDA_OUTFIT_42_cls-5{fill:#fffbf0;}.BUNTAI_RED_PANDA_OUTFIT_BUNTAI_RED_PANDA_OUTFIT_42_cls-6{fill:#ffeca0;}.BUNTAI_RED_PANDA_OUTFIT_BUNTAI_RED_PANDA_OUTFIT_42_cls-7{fill:#1e1e1e;}.BUNTAI_RED_PANDA_OUTFIT_BUNTAI_RED_PANDA_OUTFIT_42_cls-10,.BUNTAI_RED_PANDA_OUTFIT_BUNTAI_RED_PANDA_OUTFIT_42_cls-8{fill:none;stroke:#000;stroke-linecap:round;stroke-linejoin:round;}.BUNTAI_RED_PANDA_OUTFIT_BUNTAI_RED_PANDA_OUTFIT_42_cls-8{stroke-width:2px;}.BUNTAI_RED_PANDA_OUTFIT_BUNTAI_RED_PANDA_OUTFIT_42_cls-9{opacity:0.43;mix-blend-mode:multiply;}.BUNTAI_RED_PANDA_OUTFIT_BUNTAI_RED_PANDA_OUTFIT_42_cls-10{stroke-width:1.82px;}</style>
  </defs>
  <g class="BUNTAI_RED_PANDA_OUTFIT_BUNTAI_RED_PANDA_OUTFIT_42_cls-1">
    <g id="outfit">
      <path class="BUNTAI_RED_PANDA_OUTFIT_BUNTAI_RED_PANDA_OUTFIT_42_cls-2" d="M366.29,442.22H315.63l-.11-.05.11-.16.05-.08a39.24,39.24,0,0,0,5.82-13.68v0l.17-.84a37.79,37.79,0,0,0,.64-6.09c0-.35,0-.7,0-1s0-.54,0-.81,0-.48,0-.71c0-.47,0-.93-.07-1.38a39.53,39.53,0,0,0-1.55-8.42.76.76,0,0,0-.19-.12c-.18-.14-.37-.26-.57-.39a46.41,46.41,0,0,0-13.65-5.69,64.76,64.76,0,0,0-62.77,18.09,31.67,31.67,0,0,1,3.57-9.55c2.49-4.35,6-8.06,8.66-12.28.21-.33.42-.66.62-1q5-4.39,10.41-8.34c6.13-4.48,12.85-8.58,20-10.79a62.67,62.67,0,0,1,6.41.79,30.91,30.91,0,0,1,13.26,5.59,7.72,7.72,0,0,0,.18,2.58c.77,3.18,3.41,5.53,6.12,7.36a41.5,41.5,0,0,0,7.66,4c.7.28,1.4.54,2.12.78a43,43,0,0,0,25.17.82,31.9,31.9,0,0,0,8-3.34A167.9,167.9,0,0,1,366.29,442.22Z" />
      <path class="BUNTAI_RED_PANDA_OUTFIT_BUNTAI_RED_PANDA_OUTFIT_42_cls-3" d="M330.3,353.54a6.56,6.56,0,0,1-.39.91,4.93,4.93,0,0,1-.23.46c-.08.16-.17.31-.26.46a8.6,8.6,0,0,1-1,1.29l-.34.33a.15.15,0,0,1-.08.08,1.54,1.54,0,0,1-.34.28.35.35,0,0,1-.12.1,3.91,3.91,0,0,1-.41.3,4.19,4.19,0,0,1-.5.31,5.81,5.81,0,0,1-.75.37,3.35,3.35,0,0,1-.38.14,5.8,5.8,0,0,1-.63.2c-6.62,1.78-19-7.43-19-7.43s-6.29,12.57-15,14.13-30.58-13.55-45.56-10.75a5.34,5.34,0,0,0,.52-.18l.1-.05a8.71,8.71,0,0,0,4-3.53,2,2,0,0,0,.21.3,6,6,0,0,0,4.16,2.47,5.53,5.53,0,0,0,4.14-1.14,5,5,0,0,0,.55-.48l.12.12a5.64,5.64,0,0,0,7.95,0A6.06,6.06,0,0,0,271,353l.12,0a6.51,6.51,0,0,0,.88-.17l.42-.14h0l.14-.06.27-.12h0l.26-.15a1.34,1.34,0,0,0,.24-.12,6.19,6.19,0,0,0,2.8-4.37h0a5.73,5.73,0,0,0,.06-1.24,1.25,1.25,0,0,0,.19.15,3.5,3.5,0,0,0,3.13.54,3,3,0,0,0,1-.53,1,1,0,0,0,.09.21,3.55,3.55,0,0,0,.3.54,4,4,0,0,0,1.37,1.28h0a2.92,2.92,0,0,0,.36.17,3.91,3.91,0,0,0,2.39.18,4.3,4.3,0,0,0,.69-.23,12.46,12.46,0,0,1,2.35-1.21,2.8,2.8,0,0,1,.76-.07c.51,0,1,.09,1.52.11a5.39,5.39,0,0,0,3.57-1.25,5.61,5.61,0,0,0,1.37-1.66l0,0a4.35,4.35,0,0,0,.51-1.51l.34.08a5.23,5.23,0,0,0,3.54-.49.06.06,0,0,0,.06,0,4,4,0,0,0,.65-.42l.2-.16.23-.19a5.16,5.16,0,0,0,1.47-4.7h0C302.87,337.84,318.54,351.55,330.3,353.54Z" />
      <path class="BUNTAI_RED_PANDA_OUTFIT_BUNTAI_RED_PANDA_OUTFIT_42_cls-4" d="M239.61,354.63c0,.45,0,.9-.07,1.34,0,.21-.07.43-.11.65a9.15,9.15,0,0,1-1.82,4.08,5.61,5.61,0,0,1-4.32,2.24,6.08,6.08,0,0,1-5.26-3.67,9.68,9.68,0,0,1-.85-2.41h0a10.64,10.64,0,0,1-.23-2.22,9.34,9.34,0,0,1,2.65-6.77,5.41,5.41,0,0,1,3.69-1.55,5.22,5.22,0,0,1,3.31,1.24h0A9.11,9.11,0,0,1,239.61,354.63Z" />
      <path class="BUNTAI_RED_PANDA_OUTFIT_BUNTAI_RED_PANDA_OUTFIT_42_cls-3" d="M322.34,420.26c0,.34,0,.69,0,1a37.79,37.79,0,0,1-.64,6.09l-.17.84v0a39.24,39.24,0,0,1-5.82,13.68l-.05.08-.11.16a38.25,38.25,0,0,1-6.59,7.44c-20.5,18.22-60.73,8.06-64.88,2.92-.77-1-1.51-1.95-2.2-2.92h0c-2.44-3.42-4.35-6.71-5-7.91l-.27-.49a57.26,57.26,0,0,0-3.49-6,65.41,65.41,0,0,1,10.46-14.39h0a64.76,64.76,0,0,1,62.77-18.09,46.41,46.41,0,0,1,13.65,5.69c.2.13.39.25.57.39a.76.76,0,0,1,.19.12,39.53,39.53,0,0,1,1.55,8.42c0,.45.06.91.07,1.38,0,.23,0,.47,0,.71S322.34,420,322.34,420.26Z" />
      <path class="BUNTAI_RED_PANDA_OUTFIT_BUNTAI_RED_PANDA_OUTFIT_42_cls-3" d="M233,435.22a61.73,61.73,0,0,0-2.82,6,29.86,29.86,0,0,1-7.07,8.4c-9.4,7.79-24.16,10.91-42.46,9.55a137.3,137.3,0,0,1-41.34-9.55,42.89,42.89,0,0,1-8.11-7.39,35.74,35.74,0,0,1-7.63-14.83,30.55,30.55,0,0,1-.8-6.23c0-.33,0-.66,0-1s0-.63,0-.95c0-1,.12-2.07.25-3.1a33,33,0,0,1,1.78-7.19c.31-.18.63-.35,1-.51a64.8,64.8,0,0,1,16.84-5.69,98.45,98.45,0,0,1,55.82,5,81.24,81.24,0,0,1,21.68,13.06h0A68.27,68.27,0,0,1,233,435.22Z" />
      <path class="BUNTAI_RED_PANDA_OUTFIT_BUNTAI_RED_PANDA_OUTFIT_42_cls-5" d="M300.86,342.07l-.23.19-.2.16a4,4,0,0,1-.65.42.06.06,0,0,1-.06,0,5.23,5.23,0,0,1-3.54.49l-.34-.08a4.35,4.35,0,0,1-.51,1.51l0,0a5.61,5.61,0,0,1-1.37,1.66,5.39,5.39,0,0,1-3.57,1.25c-.5,0-1-.1-1.52-.11a2.8,2.8,0,0,0-.76.07,12.46,12.46,0,0,0-2.35,1.21,4.3,4.3,0,0,1-.69.23,3.91,3.91,0,0,1-2.39-.18,2.92,2.92,0,0,1-.36-.17h0a4,4,0,0,1-1.37-1.28,3.55,3.55,0,0,1-.3-.54,1,1,0,0,1-.09-.21,3,3,0,0,1-1,.53,3.5,3.5,0,0,1-3.13-.54,1.25,1.25,0,0,1-.19-.15,5.73,5.73,0,0,1-.06,1.24h0a6.19,6.19,0,0,1-2.8,4.37,1.34,1.34,0,0,1-.24.12l-.26.15h0l-.27.12-.14.06h0l-.42.14a6.51,6.51,0,0,1-.88.17l-.12,0a6.06,6.06,0,0,1-3.91-.79,5.64,5.64,0,0,1-7.95,0l-.12-.12a5,5,0,0,1-.55.48,5.53,5.53,0,0,1-4.14,1.14,6,6,0,0,1-4.16-2.47,2,2,0,0,1-.21-.3,8.71,8.71,0,0,1-4,3.53l-.1.05a5.34,5.34,0,0,1-.52.18h-.05a8.39,8.39,0,0,1-1.38.33l-.2,0-.35,0h-.17c-.22,0-.45,0-.67,0a5.62,5.62,0,0,1-.58,0h-.42a1.08,1.08,0,0,1-.19,0,.69.69,0,0,1-.2,0,.83.83,0,0,1-.22,0,1.4,1.4,0,0,1-.28-.06l-.23-.05h0a3.69,3.69,0,0,1-.83,1,11.76,11.76,0,0,0,.08-1.34c0-.16,0-.32,0-.48s0-.32,0-.47a.81.81,0,0,0,0-.16s0-.09,0-.13,0-.27-.05-.4-.06-.36-.1-.53l-.09-.4c-.05-.2-.11-.4-.17-.6l0-.1c0-.11-.07-.21-.1-.31a0,0,0,0,1,0,0,8.9,8.9,0,0,0-1-2l-.08-.1-.13-.19a5.76,5.76,0,0,0-.5-.59.46.46,0,0,0-.07-.07,4.71,4.71,0,0,0-.57-.53,4.68,4.68,0,0,1,3.78.42,3.81,3.81,0,0,1,2.38-3.84,4,4,0,0,1,4.43,1.26,2.53,2.53,0,0,1,2-1.93,2.39,2.39,0,0,1,2.47,1.11,4.18,4.18,0,0,1-.54-2.12,2.73,2.73,0,0,1,.76-2.12A1.94,1.94,0,0,1,254,340a3.44,3.44,0,0,1,.86-3.16,3.1,3.1,0,0,1,2.93-1,6.11,6.11,0,0,1,2.26-5.43,8.56,8.56,0,0,1,5.72-1.85,14.7,14.7,0,0,1,5.89,1.59c.06-.34.64-.59,1-.73a1.74,1.74,0,0,1,1-.09,2.94,2.94,0,0,1,2.2,1.74,4.83,4.83,0,0,1-.36-3.11,19.75,19.75,0,0,0,7.78,1.05c2.44-2.71,4.68-2.43,4.68-2.43a6.77,6.77,0,0,1,2.92,3.33,3.86,3.86,0,0,1,.17.91c2.54-.77,6.38.89,5.94,4,2.62-1.4,5.36,2.57,5.36,2.57A5.16,5.16,0,0,1,300.86,342.07Z" />
      <path class="BUNTAI_RED_PANDA_OUTFIT_BUNTAI_RED_PANDA_OUTFIT_42_cls-5" d="M229.61,347.87l-.19.19-.2.21c-.11.11-.2.23-.3.35a2.78,2.78,0,0,0-.21.27,8.22,8.22,0,0,0-1.07,2l-.12.33c0,.1-.07.21-.11.32s-.11.39-.16.6-.08.38-.11.57a8.47,8.47,0,0,0-.13.9s0,0,0,0c0,.22,0,.44,0,.67a1.23,1.23,0,0,0,0,.2v.14a.38.38,0,0,0,0,.1v.12l0,.92.15,1s0,.07,0,.11l-.14,0h0l-.36-.09h0l-.22-.07h0l-.17-.06-.09,0-.05,0H226l-.16-.07-.12-.06-.24-.12-.18-.11-.2-.14,0,0h0l0,0H225l-.14-.11-.1-.09-.16-.13a.12.12,0,0,1,0-.05l-.05-.06a1.75,1.75,0,0,1-.23-.24,1.15,1.15,0,0,1-.14-.17.66.66,0,0,1-.12-.17,4.85,4.85,0,0,1-.55.09h0c-.31.05-.62.08-.92.11a3.4,3.4,0,0,1-.45,0h-.79l-.57,0h-.34a.28.28,0,0,1-.13,0l-.22,0-.16,0h0s0,0,0,0l-.16,0-.14,0h-.11l-.15,0h-.08l-.28-.05h0l-.19,0a.31.31,0,0,1-.13,0c-.19,0-.38-.08-.57-.13h-.06c-.22-.05-.43-.12-.64-.18a10.51,10.51,0,0,1-2.68-1.34,9.39,9.39,0,0,1-2.37-2.24l0,0A8.3,8.3,0,0,1,201,352.11a7.86,7.86,0,0,1-4.94,1.75,7.94,7.94,0,0,1-5-1.65,9.25,9.25,0,0,1-7.75,0,6,6,0,0,1-3.53-5.62,5.11,5.11,0,0,1-4.31.63h0a4.51,4.51,0,0,1-1-.47.35.35,0,0,1-.08.13v0a4.54,4.54,0,0,1-2.58,2.06,1.17,1.17,0,0,1-.2.06,5.89,5.89,0,0,1-2.83.1,4.73,4.73,0,0,1-.76-.21,17.43,17.43,0,0,0-2.9-1.21,4.62,4.62,0,0,0-.74-.06c-.69,0-1.39.08-2.09.1a7.61,7.61,0,0,1-4.39-1.25,5.5,5.5,0,0,1-2.07-2.32,3.47,3.47,0,0,1-.28-.88,2.47,2.47,0,0,1-.29.06,7.6,7.6,0,0,1-5.91-1.27,5.2,5.2,0,0,1-.44-.38,1,1,0,0,1-.2-.22,2,2,0,0,1-.33-.39,2.73,2.73,0,0,1-.37-.54,4.51,4.51,0,0,1-.59-2.55c0-.1,0-.19,0-.28s0-.2,0-.3l.43-.13C147.76,335.19,150,334,150,334s.12-1.31,3.34-2.88,6.14,2,6.14,2a10.41,10.41,0,0,1,2.24-3.33,8.48,8.48,0,0,1,2.64-1.8c3.52-1.48,7.37,1.9,7.37,1.9s.06-1,2.22-1.05c2.67.58,6.77-.82,6.77-.82a4.06,4.06,0,0,1-.47,3,3.52,3.52,0,0,1,2.69-1.75,2.68,2.68,0,0,1,1.26.09c.39.14,1.12.39,1.18.73a21.58,21.58,0,0,1,7.28-1.59,12.37,12.37,0,0,1,7.08,1.85c1.92,1.34,3.19,3.42,2.76,5.43a4.38,4.38,0,0,1,3.63,1c.87.84,1.56,2.15,1.06,3.16a2.84,2.84,0,0,1,2.64.38,2.44,2.44,0,0,1,.93,2.12,3.43,3.43,0,0,1-.67,2.12,3.26,3.26,0,0,1,3.05-1.11,2.91,2.91,0,0,1,2.45,1.93,5.64,5.64,0,0,1,5.47-1.26A3.82,3.82,0,0,1,224,348a7.09,7.09,0,0,1,5.26-.26A3.12,3.12,0,0,1,229.61,347.87Z" />
      <path class="BUNTAI_RED_PANDA_OUTFIT_BUNTAI_RED_PANDA_OUTFIT_42_cls-6" d="M358,378.87a22.13,22.13,0,0,1-15.27,3.23c3.27-.89,7.6-4.38,9.34-6.39a48,48,0,0,1-6.08-4.63,63.25,63.25,0,0,1-10.68.47c-4.16-.37-7.64-.47-7.64-.47a67.37,67.37,0,0,0,8.6-3.39,16.67,16.67,0,0,1,4.41-1.92c-2.71-3-5.2-6.2-7.63-9.43a11.23,11.23,0,0,1-5.44,6.13,14.81,14.81,0,0,1-10.91.74,21.47,21.47,0,0,1-9.29-6c-2.2,6.38-8.12,11.11-14.72,12.52a26,26,0,0,1-19.33-4c-5.49-3.57-12-5-18.31-6.9a54.27,54.27,0,0,0-10-2.18,26.3,26.3,0,0,0-5.61,0,9.15,9.15,0,0,1-1.82,4.08,15.3,15.3,0,0,0,2.32,3.86,28.15,28.15,0,0,0,9.43,6.94A65.41,65.41,0,0,0,271,377.92c5.23.59,10.53.55,15.77.95a62.67,62.67,0,0,1,6.41.79,30.91,30.91,0,0,1,13.26,5.59,10,10,0,0,1,1.9-5,14.64,14.64,0,0,1,6.34-4.73c-4,1.67-5.78,7.06-4.57,11.21.86,2.95,3.17,5.25,5.65,7.05a32,32,0,0,0,34.63,1.9c4.18-2.38,7.92-5.88,9.61-10.38a14,14,0,0,0,.88-5.37A30.46,30.46,0,0,1,358,378.87Z" />
      <path class="BUNTAI_RED_PANDA_OUTFIT_BUNTAI_RED_PANDA_OUTFIT_42_cls-6" d="M227,356.83h0a38.47,38.47,0,0,0-8.78-.19,80.7,80.7,0,0,0-12.31,2.18c-7.75,1.87-15.83,3.33-22.6,6.9a38.27,38.27,0,0,1-23.86,4c-8.16-1.41-15.47-6.14-18.19-12.52a27.7,27.7,0,0,1-11.46,6,22.28,22.28,0,0,1-13.48-.74,12.43,12.43,0,0,1-6.71-6.13c-3,3.23-6.08,6.43-9.43,9.43a23.2,23.2,0,0,1,5.44,1.92,97.86,97.86,0,0,0,10.64,3.39s-4.31.1-9.44.47a96.07,96.07,0,0,1-13.18-.47,60.44,60.44,0,0,1-7.51,4.63c2.15,2,7.48,5.5,11.52,6.39-11.37,1.26-18.84-3.23-18.84-3.23-1.19.41-2.4.78-3.63,1.09a11.67,11.67,0,0,0,1.07,5.37c2.1,4.5,6.71,8,11.87,10.38a47.34,47.34,0,0,0,21.73,4.15,45.89,45.89,0,0,0,21-6.05c3.07-1.8,5.92-4.1,7-7.05a8.92,8.92,0,0,0-5.63-11.21,18.24,18.24,0,0,1,7.82,4.73,8.88,8.88,0,0,1,2.35,5c4.62-2.92,10.53-4.71,16.36-5.59,2.63-.38,5.27-.63,7.92-.79,6.48-.4,13-.36,19.47-.95a99.1,99.1,0,0,0,11-1.66,92.94,92.94,0,0,0,15.73-4.76c4.34-1.76,8.57-3.9,11.63-6.94a14.44,14.44,0,0,0,3.49-5.29,9.68,9.68,0,0,1-.85-2.41Z" />
      <path class="BUNTAI_RED_PANDA_OUTFIT_BUNTAI_RED_PANDA_OUTFIT_42_cls-3" d="M217.91,354.72c-18.51-2.8-45.54,12.32-56.26,10.75s-18.5-14.13-18.5-14.13-15.33,9.21-23.51,7.43c-.25-.06-.49-.11-.74-.19a6.37,6.37,0,0,1-.66-.21c-.22-.08-.44-.16-.64-.25l-.51-.24-.53-.29-.32-.2c-.2-.13-.4-.27-.58-.41a2,2,0,0,1-.28-.23,5.49,5.49,0,0,1-.5-.45c-.16-.16-.31-.31-.46-.48a8.63,8.63,0,0,1-1-1.46,1.41,1.41,0,0,1-.13-.24c12.36-2.67,28-11,34.17-16.41a2.36,2.36,0,0,0,0,.28,4.51,4.51,0,0,0,.59,2.55,2.73,2.73,0,0,0,.37.54,2,2,0,0,0,.33.39,1.37,1.37,0,0,0,.2.22,5.2,5.2,0,0,0,.44.38,7.6,7.6,0,0,0,5.91,1.27,2.47,2.47,0,0,0,.29-.06,3.47,3.47,0,0,0,.28.88,5.5,5.5,0,0,0,2.07,2.32,7.61,7.61,0,0,0,4.39,1.25c.7,0,1.4-.12,2.09-.1a4.62,4.62,0,0,1,.74.06,17.43,17.43,0,0,1,2.9,1.21,4.73,4.73,0,0,0,.76.21,5.89,5.89,0,0,0,2.83-.1,1.17,1.17,0,0,0,.2-.06,4.54,4.54,0,0,0,2.58-2.06v0a.35.35,0,0,0,.08-.13,4.51,4.51,0,0,0,1,.47h0a5.11,5.11,0,0,0,4.31-.63,6,6,0,0,0,3.53,5.62,9.25,9.25,0,0,0,7.75,0,7.94,7.94,0,0,0,5,1.65,7.86,7.86,0,0,0,4.94-1.75A8.3,8.3,0,0,0,212.19,351l0,0a9.39,9.39,0,0,0,2.37,2.24,10.51,10.51,0,0,0,2.68,1.34C217.48,354.6,217.69,354.67,217.91,354.72Z" />
      <path class="BUNTAI_RED_PANDA_OUTFIT_BUNTAI_RED_PANDA_OUTFIT_42_cls-2" d="M220.13,420.83a81.24,81.24,0,0,0-21.68-13.06,98.45,98.45,0,0,0-55.82-5,64.8,64.8,0,0,0-16.84,5.69c-.32.16-.64.33-1,.51a33,33,0,0,0-1.78,7.19c-.13,1-.22,2.07-.25,3.1,0,.32,0,.63,0,.95s0,.65,0,1a30.55,30.55,0,0,0,.8,6.23,35.74,35.74,0,0,0,7.63,14.83H68.53a141.81,141.81,0,0,1,13.1-44.73,44.74,44.74,0,0,0,9.84,3.34,65,65,0,0,0,31.06-.81,57.16,57.16,0,0,0,12.09-4.83c3.35-1.83,6.61-4.18,7.56-7.36a6.44,6.44,0,0,0,.22-2.58l0,0h0c4.6-2.91,10.49-4.68,16.31-5.56,2.62-.38,5.27-.63,7.92-.79,8.88,2.21,17.16,6.31,24.73,10.79q6.65,3.94,12.85,8.34l.77,1c3.33,4.22,7.62,7.93,10.7,12.28a28.24,28.24,0,0,1,4.13,8.57h0C220,420.18,220.05,420.5,220.13,420.83Z" />
      <path class="BUNTAI_RED_PANDA_OUTFIT_BUNTAI_RED_PANDA_OUTFIT_42_cls-7" d="M271,377.92a65.48,65.48,0,0,1-8.92-1.66A41,41,0,0,1,256.35,398q5-4.39,10.41-8.34c6.13-4.48,12.85-8.58,20-10.79C281.55,378.47,276.25,378.51,271,377.92Z" />
      <path class="BUNTAI_RED_PANDA_OUTFIT_BUNTAI_RED_PANDA_OUTFIT_42_cls-7" d="M204.27,398c.25.34.5.67.76,1,3.34,4.22,7.62,7.93,10.7,12.28a28.52,28.52,0,0,1,4.4,9.55h0A68.27,68.27,0,0,1,233,435.22a65.73,65.73,0,0,1,10.46-14.39h0a31.77,31.77,0,0,1,3.57-9.55c2.49-4.35,6-8.06,8.66-12.28.21-.33.42-.66.62-1C226.59,409.35,204.27,398,204.27,398Z" />
      <path class="BUNTAI_RED_PANDA_OUTFIT_BUNTAI_RED_PANDA_OUTFIT_42_cls-7" d="M197.18,376.26a99.1,99.1,0,0,1-11,1.66c-6.45.59-13,.55-19.47.95,8.88,2.21,17.16,6.31,24.73,10.79q6.66,3.94,12.86,8.34A35.18,35.18,0,0,1,197.18,376.26Z" />
      <path class="BUNTAI_RED_PANDA_OUTFIT_BUNTAI_RED_PANDA_OUTFIT_42_cls-4" d="M358,378.87a3.52,3.52,0,0,0-5.93-3.16c-1.74,2-6.07,5.5-9.34,6.39A22.13,22.13,0,0,0,358,378.87Z" />
      <path class="BUNTAI_RED_PANDA_OUTFIT_BUNTAI_RED_PANDA_OUTFIT_42_cls-4" d="M365,381a28.44,28.44,0,0,1-4.09-1,14,14,0,0,1-.88,5.37c-1.69,4.5-5.43,8-9.61,10.38a32,32,0,0,1-34.63-1.9c-2.48-1.8-4.79-4.1-5.65-7.05-1.21-4.15.58-9.54,4.57-11.21a14.64,14.64,0,0,0-6.34,4.73,10,10,0,0,0-1.9,5,7.72,7.72,0,0,0,.18,2.58c.77,3.18,3.41,5.53,6.12,7.36a43,43,0,0,0,34.95,5.64,31.75,31.75,0,0,0,8-3.34,22.49,22.49,0,0,0,4.61-3.57A16.13,16.13,0,0,0,365,381Z" />
      <path class="BUNTAI_RED_PANDA_OUTFIT_BUNTAI_RED_PANDA_OUTFIT_42_cls-4" d="M335.27,371.55a63.25,63.25,0,0,0,10.68-.47h0c-.58-5-2.94-5.79-5.31-5.3a16.67,16.67,0,0,0-4.41,1.92,67.37,67.37,0,0,1-8.6,3.39S331.11,371.18,335.27,371.55Z" />
      <path class="BUNTAI_RED_PANDA_OUTFIT_BUNTAI_RED_PANDA_OUTFIT_42_cls-4" d="M333.6,353.75a9.9,9.9,0,0,1-.56,2.49l0,.1c-.07.19-.14.37-.22.55s-.11.27-.17.4l-.15.29a1.74,1.74,0,0,1-.1.19l-.16.29a2.91,2.91,0,0,1-.25.42,10.29,10.29,0,0,1-.61.86l-.15.19-.1.11v0l0,.06h0c-.08.1-.16.18-.24.27l-.25.27-.11.1-.06.06,0,0-.57.54h0s0,0-.05,0l-.47.38,0,0,0,0s0,0,0,0h0l-.05,0h0l0,0-.16.11-.17.12c-.1.08-.23.14-.34.22l-.78.44-.73.34-.19.08-.3.12-.24.09-.5.16-.3.1a14.78,14.78,0,0,1-1.63.36l-.22,0-.15,0h-.11l-.27,0c-.27,0-.54.06-.81.07l-.81,0-.93,0c-.28,0-.56,0-.84-.07s-.77-.1-1.16-.17a17.24,17.24,0,0,1-1.72-.42,18.08,18.08,0,0,1-3.45-1.47.1.1,0,0,1-.07,0l-.46-.25a23.15,23.15,0,0,1-2.19-1.46l-.08-.07a.44.44,0,0,1-.11-.09,3.52,3.52,0,0,1-.39-.31c-.53-.42-1.05-.88-1.54-1.35l-1-1h0c-.08.19-.15.39-.23.58a2,2,0,0,1-.08.22h0c0,.05,0,.09,0,.13v0s0,.06,0,.07h0a.5.5,0,0,1,0,.13,5.79,5.79,0,0,1-.25.57l-.05.1c-.07.16-.15.31-.23.46s-.29.55-.45.81a.08.08,0,0,0,0,.05l0,0a1.76,1.76,0,0,1-.14.23c-.1.17-.21.33-.31.49l0,0-.22.32-.33.46c-.18.24-.36.47-.55.7a.21.21,0,0,1,0,.06.52.52,0,0,1-.1.11l-.07.09L304,363l-.13.15c-.07.09-.16.18-.24.27-.22.25-.44.48-.68.71-.46.46-.95.9-1.46,1.32l-.51.39-.52.38h0l0,0h0l0,0c-.25.17-.5.35-.75.51h0c-.27.17-.54.34-.81.49,0,0,0,0-.07.05l0,0-.25.14-.48.26-.34.17-.52.25c-.31.15-.63.29-.95.42l-.08,0-.09,0-.31.11-.23.08-.37.14c-.21.08-.43.15-.65.21l-.17.06-.11,0-.09,0-.13,0-.07,0-.17,0a1,1,0,0,1-.23.06l-.6.14h-.11l-.11,0-.63.12-.11,0h0l-.48.09h-.09l-.19,0-.2,0-.27,0h-.22l-.35,0-.75.06h-.29l-.41,0h-.89a5.82,5.82,0,0,1-.59,0h-.35l-1.08-.07-.5-.05-.33,0-.73-.1-.65-.11-.12,0-1-.2-.1,0-.65-.16-.13,0-.67-.19c-.37-.1-.73-.21-1.09-.34l-.5-.17c-.52-.19-1-.38-1.55-.6l-1-.46-.44-.22c-.27-.12-.53-.26-.79-.4l-.48-.26-.24-.13-.6-.36-.4-.25-.42-.27a31.12,31.12,0,0,0-4.29-2.31q-.48-.23-1-.42l-.16-.06h0l-.77-.31-.37-.14c-.32-.13-.65-.25-1-.36l-1-.36-.32-.11-2.34-.75-2.36-.7-2.38-.68-1.18-.34-1.18-.34a54.66,54.66,0,0,0-10-2.19,27,27,0,0,0-5.61,0h0c0-.11,0-.22.06-.33a.09.09,0,0,0,0-.05,2.51,2.51,0,0,0,0-.27,3.69,3.69,0,0,0,.83-1h0l.23.05.12,0a.45.45,0,0,0,.16,0,.83.83,0,0,0,.22,0,.09.09,0,0,0,.07,0l.2,0,.22,0h.32c.21,0,.43,0,.64,0h0c.22,0,.43,0,.65,0h.12l.25,0h.08l.2,0H244a3.43,3.43,0,0,0,.44-.09,3.89,3.89,0,0,0,.43-.11,3,3,0,0,0,.43-.12h.05c15-2.8,36.88,12.32,45.56,10.75s15-14.13,15-14.13,12.42,9.21,19,7.43a5.8,5.8,0,0,0,.63-.2,3.35,3.35,0,0,0,.38-.14,5.81,5.81,0,0,0,.75-.37,4.19,4.19,0,0,0,.5-.31,2.26,2.26,0,0,0,.41-.3.35.35,0,0,0,.12-.1,1.54,1.54,0,0,0,.34-.28.15.15,0,0,0,.08-.08l.34-.33a8.6,8.6,0,0,0,1-1.29c.09-.15.18-.3.26-.46a4.93,4.93,0,0,0,.23-.46,6.56,6.56,0,0,0,.39-.91,17.1,17.1,0,0,0,2.52.23h.28Z" />
      <path class="BUNTAI_RED_PANDA_OUTFIT_BUNTAI_RED_PANDA_OUTFIT_42_cls-4" d="M227,356.83a39.64,39.64,0,0,0-8.78-.19,80.94,80.94,0,0,0-12.31,2.19l-1.45.34-1.46.34h0l-1.47.33-.16,0-2.11.49c-.71.17-1.41.33-2.11.51-1,.24-1.94.49-2.9.75s-1.91.54-2.85.83l-1.41.45h0q-.69.22-1.38.48a42.45,42.45,0,0,0-5.3,2.31l-1,.52h0l-.89.42-.33.15-.33.15-.68.28-.92.37c-.57.22-1.15.42-1.73.61s-1.17.37-1.76.54l-.46.12-.47.12-.21.06-.44.1-.9.2-1,.2h0c-.59.11-1.18.2-1.77.28l-.21,0-.58.07L169,370l-.75.06H168l-.32,0-.91,0-.49,0h-1.74l-.52,0h-.3l-.49,0-.49,0-.21,0-.67-.06-.25,0h-.07l-.46-.05-.44-.05h-.07l-1.12-.17-1.17-.23h0l-.09,0-.14,0-.36-.09-.43-.11-.14,0H157l-.23-.07-.19-.05-.42-.12-.22-.07-.13,0-.27-.08-.31-.1c-.24-.07-.47-.15-.7-.24l-.18-.06-.64-.24-.21-.08-.83-.35-.62-.27-.59-.28s-.06,0-.09,0a2,2,0,0,1-.32-.18l-.06,0a.12.12,0,0,1-.08,0l-.33-.17-.09-.05-.24-.12,0,0s0,0-.07,0l-.2-.12-.15-.09-.42-.24-.62-.39-.25-.16-.37-.25-.43-.3c-.35-.25-.68-.5-1-.76l-.14-.11-.49-.42-.32-.28-.33-.3-.05,0c-.17-.15-.33-.32-.49-.48s-.38-.38-.55-.58a7.31,7.31,0,0,1-.52-.59c-.16-.19-.33-.4-.48-.6l-.48-.64-.44-.66-.4-.67c-.11-.19-.21-.39-.32-.59l0-.07a1.3,1.3,0,0,1-.08-.17,1.09,1.09,0,0,0-.08-.15v0l0,0-.13-.3h0s0,0,0,0l-.09-.2a27.93,27.93,0,0,1-11.46,6q-1,.25-2.13.42c-.47.07-1,.13-1.44.17l-.91.07h-.09l-1.18,0-1,0-1-.07a6.2,6.2,0,0,1-.62-.06h-.12c-.15,0-.3,0-.44-.06h-.1l-.27-.05-.24,0-.25,0-.66-.13-.4-.09-.15,0-.09,0,0,0h0l-.21-.05-.39-.11-.88-.28-.83-.32-.74-.33-.08,0-.38-.2-.1,0-.22-.12a1.29,1.29,0,0,1-.16-.09l-.38-.23a2.85,2.85,0,0,1-.37-.23c-.22-.14-.43-.29-.64-.45h0c-.13-.09-.25-.19-.37-.29l-.36-.29-.13-.12-.58-.54c-.21-.21-.41-.43-.6-.65s-.18-.22-.27-.33-.17-.23-.26-.35-.19-.26-.28-.4a.83.83,0,0,1-.08-.12l-.07-.11c-.05-.08-.1-.16-.14-.24a8.74,8.74,0,0,1-.5-1,4.71,4.71,0,0,1-.21-.52,6.41,6.41,0,0,1-.3-.94l.19-.09h0l.88-.12c1-.13,2-.32,3.07-.55a1.41,1.41,0,0,0,.13.24,8.63,8.63,0,0,0,1,1.46c.15.17.3.32.46.48a5.49,5.49,0,0,0,.5.45,2,2,0,0,0,.28.23c.18.14.38.28.58.41l.32.2.53.29.51.24c.2.09.42.17.64.25a6.37,6.37,0,0,0,.66.21c.25.08.49.13.74.19,8.18,1.78,23.51-7.43,23.51-7.43s7.78,12.57,18.5,14.13,37.75-13.55,56.26-10.75H218l.29.07.08,0,.33.07.24.05a6.17,6.17,0,0,0,.62.1l.14,0h.16s0,0,0,0h0l.16,0a1.66,1.66,0,0,0,.32,0l.17,0,.49,0h1.07a3.4,3.4,0,0,0,.45,0c.3,0,.61-.06.92-.11h0a4.85,4.85,0,0,0,.55-.09.66.66,0,0,0,.12.17,1.88,1.88,0,0,0,.27.3l0,0,.05.06a2,2,0,0,0,.26.24,3.15,3.15,0,0,0,.29.22l0,0h0l0,0,.12.08a.57.57,0,0,0,.13.08l.1.06.13.08.14.07a1.75,1.75,0,0,0,.28.13h.09l.29.1.22.07Z" />
      <path class="BUNTAI_RED_PANDA_OUTFIT_BUNTAI_RED_PANDA_OUTFIT_42_cls-4" d="M142.18,387.83c-1,3.18-4.21,5.53-7.56,7.36A57.16,57.16,0,0,1,122.53,400a65,65,0,0,1-31.06.81,44.74,44.74,0,0,1-9.84-3.34c-.49-.23-1-.47-1.43-.73h0a27.21,27.21,0,0,1-4.24-2.83c-4.19-3.45-6.41-8.12-5.8-12.94.44-.06.88-.12,1.31-.2,1.27-.22,2.52-.49,3.75-.82a11.42,11.42,0,0,0,1.07,5.37c2.1,4.5,6.71,8,11.87,10.38a47.47,47.47,0,0,0,21.73,4.15,45.89,45.89,0,0,0,21-6.05,21.52,21.52,0,0,0,4.9-3.76,9.66,9.66,0,0,0,2.07-3.29,8.81,8.81,0,0,0-1.74-8.59s0,0,0,0l-.21-.22a8.71,8.71,0,0,0-3.31-2.24,22.7,22.7,0,0,1,2.95,1.25h0a15.27,15.27,0,0,1,4.51,3.34,8.54,8.54,0,0,1,.91,1.17,8.37,8.37,0,0,1,1.41,3.59.76.76,0,0,1,0,.21A6.44,6.44,0,0,1,142.18,387.83Z" />
      <path class="BUNTAI_RED_PANDA_OUTFIT_BUNTAI_RED_PANDA_OUTFIT_42_cls-4" d="M106.83,371.55c5.13-.37,9.44-.47,9.44-.47a97.86,97.86,0,0,1-10.64-3.39,23.2,23.2,0,0,0-5.44-1.92c-2.92-.5-5.84.29-6.54,5.3h0A96.07,96.07,0,0,0,106.83,371.55Z" />
      <path class="BUNTAI_RED_PANDA_OUTFIT_BUNTAI_RED_PANDA_OUTFIT_42_cls-4" d="M97.66,382.1c-4-.89-9.37-4.38-11.52-6.39s-8-1-7.32,3.16C78.82,378.87,86.29,383.36,97.66,382.1Z" />
      <path class="BUNTAI_RED_PANDA_OUTFIT_BUNTAI_RED_PANDA_OUTFIT_42_cls-8" d="M227,356.83l.14,0" />
      <path class="BUNTAI_RED_PANDA_OUTFIT_BUNTAI_RED_PANDA_OUTFIT_42_cls-8" d="M218,354.73a13.35,13.35,0,0,0,6,.21,4.86,4.86,0,0,0,3,1.89" />
      <path class="BUNTAI_RED_PANDA_OUTFIT_BUNTAI_RED_PANDA_OUTFIT_42_cls-8" d="M217.91,354.72c-.22-.05-.43-.12-.64-.18a10.51,10.51,0,0,1-2.68-1.34,9.39,9.39,0,0,1-2.37-2.24l0,0A8.3,8.3,0,0,1,201,352.11a7.86,7.86,0,0,1-4.94,1.75,7.94,7.94,0,0,1-5-1.65,9.25,9.25,0,0,1-7.75,0,6,6,0,0,1-3.53-5.62,5.11,5.11,0,0,1-4.31.63h0a4.51,4.51,0,0,1-1-.47.35.35,0,0,1-.08.13v0a4.54,4.54,0,0,1-2.58,2.06,1.17,1.17,0,0,1-.2.06,5.89,5.89,0,0,1-2.83.1,4.73,4.73,0,0,1-.76-.21,17.43,17.43,0,0,0-2.9-1.21,4.62,4.62,0,0,0-.74-.06c-.69,0-1.39.08-2.09.1a7.61,7.61,0,0,1-4.39-1.25,5.5,5.5,0,0,1-2.07-2.32,3.47,3.47,0,0,1-.28-.88,2.47,2.47,0,0,1-.29.06,7.6,7.6,0,0,1-5.91-1.27,5.2,5.2,0,0,1-.44-.38,1.37,1.37,0,0,1-.2-.22,2,2,0,0,1-.33-.39,2.73,2.73,0,0,1-.37-.54,4.51,4.51,0,0,1-.59-2.55,2.36,2.36,0,0,1,0-.28c0-.1,0-.2,0-.3" />
      <path class="BUNTAI_RED_PANDA_OUTFIT_BUNTAI_RED_PANDA_OUTFIT_42_cls-8" d="M229.61,347.87a3.12,3.12,0,0,0-.39-.15A7.09,7.09,0,0,0,224,348a3.82,3.82,0,0,0-2.93-3.84,5.64,5.64,0,0,0-5.47,1.26,2.91,2.91,0,0,0-2.45-1.93,3.26,3.26,0,0,0-3.05,1.11,3.43,3.43,0,0,0,.67-2.12,2.44,2.44,0,0,0-.93-2.12,2.84,2.84,0,0,0-2.64-.38c.5-1-.19-2.32-1.06-3.16a4.38,4.38,0,0,0-3.63-1c.43-2-.84-4.09-2.76-5.43a12.37,12.37,0,0,0-7.08-1.85,21.58,21.58,0,0,0-7.28,1.59c-.06-.34-.79-.59-1.18-.73a2.68,2.68,0,0,0-1.26-.09,3.52,3.52,0,0,0-2.69,1.75,4.06,4.06,0,0,0,.47-3" />
      <path class="BUNTAI_RED_PANDA_OUTFIT_BUNTAI_RED_PANDA_OUTFIT_42_cls-8" d="M227.18,356.86l-.14,0h0a39.64,39.64,0,0,0-8.78-.18,80.92,80.92,0,0,0-12.31,2.18c-7.75,1.87-15.83,3.33-22.61,6.9-.33.18-.67.35-1,.51l-.89.43-1.34.58c-.31.13-.61.25-.93.36-1.13.44-2.3.82-3.48,1.15l-.93.25-.65.15c-.3.08-.61.14-.9.21l-1,.19h0c-.59.11-1.18.21-1.78.28a.76.76,0,0,1-.21,0l-.57.08L169,370l-.75.07H168c-.41,0-.82.05-1.23.07l-.63,0h-.84c-.43,0-.85,0-1.28,0h-.31l-1-.06h-.21l-.93-.09h-.07l-.45-.05-.45-.06h-.07c-.36,0-.75-.1-1.12-.17s-.77-.14-1.16-.23h-.11l-1.07-.26-.07,0-.84-.24-.22-.06-.71-.22c-.3-.09-.59-.2-.88-.3l-.85-.32-.84-.35c-.41-.18-.81-.36-1.2-.56l-.09,0c-.3-.15-.6-.3-.89-.46l-.23-.13,0,0a0,0,0,0,1,0,0l-.06,0-.78-.45-.62-.39-1-.71h0c-.34-.26-.67-.5-1-.76l-.63-.53-.65-.58-.05,0c-.17-.16-.34-.32-.49-.48s-.38-.39-.55-.58-.35-.39-.52-.59-.33-.4-.48-.6-.32-.43-.48-.65-.3-.44-.44-.66-.27-.44-.4-.66-.25-.44-.36-.67-.22-.44-.32-.66l0-.05a1.21,1.21,0,0,1-.09-.2,27.74,27.74,0,0,1-11.47,6,23.93,23.93,0,0,1-5.74.7c-.33,0-.67,0-1,0l-1-.06-.62-.07h-.11l-.45-.06h-.09a2.16,2.16,0,0,1-.27-.05l-.49-.08c-.44-.08-.88-.17-1.31-.29l-.08,0-.59-.16c-.3-.09-.6-.18-.88-.29s-.56-.2-.84-.32l-.73-.32-.08,0-.38-.2-.1,0-.23-.11-.53-.32c-.13-.08-.25-.15-.37-.24a4.89,4.89,0,0,1-.64-.45h0a3.58,3.58,0,0,1-.37-.28l-.36-.3-.13-.11c-.19-.17-.39-.35-.58-.54a11,11,0,0,1-1.14-1.33l-.28-.41a4.34,4.34,0,0,1-.28-.46,7.42,7.42,0,0,1-.5-1,4.71,4.71,0,0,1-.21-.52,6.05,6.05,0,0,1-.3-.94" />
      <path class="BUNTAI_RED_PANDA_OUTFIT_BUNTAI_RED_PANDA_OUTFIT_42_cls-8" d="M86.14,375.71a60.44,60.44,0,0,0,7.51-4.63" />
      <path class="BUNTAI_RED_PANDA_OUTFIT_BUNTAI_RED_PANDA_OUTFIT_42_cls-8" d="M109.62,356.34c-3,3.23-6.08,6.43-9.43,9.43" />
      <path class="BUNTAI_RED_PANDA_OUTFIT_BUNTAI_RED_PANDA_OUTFIT_42_cls-8" d="M78.82,378.87c-1.19.41-2.4.78-3.63,1.09" />
      <path class="BUNTAI_RED_PANDA_OUTFIT_BUNTAI_RED_PANDA_OUTFIT_42_cls-8" d="M132.23,375.55l.36.14a8.71,8.71,0,0,1,3.31,2.24l.21.22s0,0,0,0a8.81,8.81,0,0,1,1.74,8.59,9.66,9.66,0,0,1-2.07,3.29,21.52,21.52,0,0,1-4.9,3.76,45.89,45.89,0,0,1-21,6.05,47.44,47.44,0,0,1-21.73-4.15c-5.16-2.38-9.78-5.88-11.87-10.38A11.42,11.42,0,0,1,75.19,380c-1.23.33-2.48.6-3.75.82-.43.08-.87.14-1.31.2-.61,4.82,1.61,9.49,5.8,12.94a27.21,27.21,0,0,0,4.24,2.83h0c.47.26.94.5,1.43.73a44.74,44.74,0,0,0,9.84,3.34,65,65,0,0,0,31.06-.81,57.16,57.16,0,0,0,12.09-4.83c3.35-1.83,6.61-4.18,7.56-7.36a6.44,6.44,0,0,0,.22-2.58.76.76,0,0,0,0-.21,8.37,8.37,0,0,0-1.41-3.59,9.19,9.19,0,0,0-.91-1.17,17.66,17.66,0,0,0-7.46-4.59" />
      <path class="BUNTAI_RED_PANDA_OUTFIT_BUNTAI_RED_PANDA_OUTFIT_42_cls-8" d="M81.63,397.49a141.81,141.81,0,0,0-13.1,44.73h62.71" />
      <path class="BUNTAI_RED_PANDA_OUTFIT_BUNTAI_RED_PANDA_OUTFIT_42_cls-8" d="M142.4,385.25c4.62-2.92,10.53-4.71,16.36-5.59,2.63-.38,5.27-.63,7.92-.79,6.48-.4,13-.36,19.47-.95a99.1,99.1,0,0,0,11-1.66,92.94,92.94,0,0,0,15.73-4.76c4.34-1.76,8.57-3.9,11.63-6.94a14.44,14.44,0,0,0,3.49-5.29" />
      <path class="BUNTAI_RED_PANDA_OUTFIT_BUNTAI_RED_PANDA_OUTFIT_42_cls-8" d="M230.22,441.21a29.86,29.86,0,0,1-7.07,8.4c-9.4,7.79-24.16,10.91-42.46,9.55a137.3,137.3,0,0,1-41.34-9.55,42.89,42.89,0,0,1-8.11-7.39,35.74,35.74,0,0,1-7.63-14.83,30.55,30.55,0,0,1-.8-6.23c0-.33,0-.66,0-1s0-.63,0-.95c0-1,.12-2.07.25-3.1a33,33,0,0,1,1.78-7.19c.18-.5.38-1,.58-1.49h0a34.71,34.71,0,0,1,2.85-5.38" />
      <path class="BUNTAI_RED_PANDA_OUTFIT_BUNTAI_RED_PANDA_OUTFIT_42_cls-8" d="M123.06,416.13a19.86,19.86,0,0,1-2.38-12.53" />
      <path class="BUNTAI_RED_PANDA_OUTFIT_BUNTAI_RED_PANDA_OUTFIT_42_cls-8" d="M220.13,420.83A68.27,68.27,0,0,1,233,435.22a57.26,57.26,0,0,1,3.49,6,94.88,94.88,0,0,0,5.31,8.4" />
      <path class="BUNTAI_RED_PANDA_OUTFIT_BUNTAI_RED_PANDA_OUTFIT_42_cls-8" d="M124.84,408.94a63.8,63.8,0,0,1,17.79-6.2,98.45,98.45,0,0,1,55.82,5,81.24,81.24,0,0,1,21.68,13.06" />
      <path class="BUNTAI_RED_PANDA_OUTFIT_BUNTAI_RED_PANDA_OUTFIT_42_cls-8" d="M197.18,376.26A35.18,35.18,0,0,0,204.27,398c.25.34.5.67.76,1,3.34,4.22,7.62,7.93,10.7,12.28a28.52,28.52,0,0,1,4.4,9.55h0" />
      <path class="BUNTAI_RED_PANDA_OUTFIT_BUNTAI_RED_PANDA_OUTFIT_42_cls-8" d="M166.68,378.87c8.88,2.21,17.16,6.31,24.73,10.79q6.66,3.94,12.86,8.34s22.32,11.35,52.08,0" />
      <path class="BUNTAI_RED_PANDA_OUTFIT_BUNTAI_RED_PANDA_OUTFIT_42_cls-8" d="M218,354.74h-.06c-18.51-2.8-45.54,12.32-56.26,10.75s-18.5-14.13-18.5-14.13-15.33,9.21-23.51,7.43c-.25-.06-.49-.11-.74-.19a6.37,6.37,0,0,1-.66-.21c-.22-.08-.44-.16-.64-.25l-.51-.24-.53-.29-.32-.2c-.2-.13-.4-.27-.58-.41a2,2,0,0,1-.28-.23,5.49,5.49,0,0,1-.5-.45c-.16-.16-.32-.32-.46-.48a8.63,8.63,0,0,1-1-1.46,1.41,1.41,0,0,1-.13-.24" />
      <path class="BUNTAI_RED_PANDA_OUTFIT_BUNTAI_RED_PANDA_OUTFIT_42_cls-8" d="M93.65,371.08a96.07,96.07,0,0,0,13.18.47c5.13-.37,9.44-.47,9.44-.47a97.86,97.86,0,0,1-10.64-3.39,23.2,23.2,0,0,0-5.44-1.92c-2.92-.5-5.84.29-6.54,5.3Z" />
      <path class="BUNTAI_RED_PANDA_OUTFIT_BUNTAI_RED_PANDA_OUTFIT_42_cls-8" d="M78.82,378.87s7.47,4.49,18.84,3.23c-4-.89-9.37-4.38-11.52-6.39S78.13,374.69,78.82,378.87Z" />
      <path class="BUNTAI_RED_PANDA_OUTFIT_BUNTAI_RED_PANDA_OUTFIT_42_cls-8" d="M245.31,354.72a5.34,5.34,0,0,0,.52-.18l.1-.05a8.71,8.71,0,0,0,4-3.53,2,2,0,0,0,.21.3,6,6,0,0,0,4.16,2.47,5.53,5.53,0,0,0,4.14-1.14,5,5,0,0,0,.55-.48l.12.12a5.64,5.64,0,0,0,7.95,0A6.06,6.06,0,0,0,271,353l.12,0a6.51,6.51,0,0,0,.88-.17l.42-.14h0l.14-.07a1.31,1.31,0,0,0,.27-.12h0l.26-.15a1.34,1.34,0,0,0,.24-.12,6.19,6.19,0,0,0,2.8-4.37h0a5.73,5.73,0,0,0,.06-1.24,1.25,1.25,0,0,0,.19.15,3.5,3.5,0,0,0,3.13.54,3,3,0,0,0,1-.53,1,1,0,0,0,.09.21,3.55,3.55,0,0,0,.3.54,4,4,0,0,0,1.37,1.28h0a2.92,2.92,0,0,0,.36.17,3.91,3.91,0,0,0,2.39.18,4.3,4.3,0,0,0,.69-.23,12.46,12.46,0,0,1,2.35-1.21,2.8,2.8,0,0,1,.76-.07c.51,0,1,.09,1.52.11a5.39,5.39,0,0,0,3.57-1.25,5.61,5.61,0,0,0,1.37-1.66l0,0a4.35,4.35,0,0,0,.51-1.51l.34.08a5.23,5.23,0,0,0,3.54-.49.06.06,0,0,0,.06,0,4,4,0,0,0,.65-.42l.2-.16.23-.19a5.16,5.16,0,0,0,1.47-4.7" />
      <path class="BUNTAI_RED_PANDA_OUTFIT_BUNTAI_RED_PANDA_OUTFIT_42_cls-8" d="M239.54,356a3.92,3.92,0,0,0,.83-1,8.85,8.85,0,0,0,4.89-.21" />
      <path class="BUNTAI_RED_PANDA_OUTFIT_BUNTAI_RED_PANDA_OUTFIT_42_cls-8" d="M236.61,347.56h0a4.68,4.68,0,0,1,3.78.42,3.81,3.81,0,0,1,2.38-3.84,4,4,0,0,1,4.43,1.26,2.53,2.53,0,0,1,2-1.93,2.39,2.39,0,0,1,2.47,1.11,4.18,4.18,0,0,1-.54-2.12,2.73,2.73,0,0,1,.76-2.12A1.94,1.94,0,0,1,254,340a3.44,3.44,0,0,1,.86-3.16,3.1,3.1,0,0,1,2.93-1,6.11,6.11,0,0,1,2.26-5.43,8.56,8.56,0,0,1,5.72-1.85,14.7,14.7,0,0,1,5.89,1.59c.06-.34.64-.59,1-.73a1.74,1.74,0,0,1,1-.09,2.94,2.94,0,0,1,2.2,1.74,4.83,4.83,0,0,1-.36-3.11v0" />
      <path class="BUNTAI_RED_PANDA_OUTFIT_BUNTAI_RED_PANDA_OUTFIT_42_cls-8" d="M239.43,356.62a27.07,27.07,0,0,1,5.62,0,54.64,54.64,0,0,1,10,2.18c6.27,1.87,12.81,3.33,18.29,6.9.47.3.95.59,1.43.87l.72.39c.26.14.51.28.78.4a3.11,3.11,0,0,0,.45.22c.34.17.68.31,1,.46.52.22,1,.42,1.56.61s1.05.35,1.58.5c.27.08.54.16.81.22l.65.16.1,0c.33.06.67.14,1,.19l.12,0q.69.13,1.38.21c.27,0,.55.07.82.09s.73.06,1.09.08l1.07,0h0c.39,0,.77,0,1.16,0h0l1-.07.35,0h.09l.78-.1.1,0,.48-.09.74-.14.22-.05.61-.14.22-.06c.26-.06.5-.14.75-.22l.64-.21.38-.14c.21-.07.42-.16.63-.24l.08,0,.95-.42.86-.43.73-.4,0,0,.07-.05c.27-.16.54-.32.8-.49a0,0,0,0,1,0,0c.26-.17.53-.35.79-.54h0c.35-.26.69-.51,1-.78.51-.41,1-.86,1.46-1.31.23-.24.46-.47.68-.71l.55-.63a1.09,1.09,0,0,0,.1-.11c.2-.25.39-.5.58-.76s.38-.52.55-.79l0,0c.17-.25.33-.51.48-.77l0,0c.16-.27.31-.54.45-.82l.22-.45.06-.11c.11-.23.21-.46.31-.7a.25.25,0,0,1,0-.07v0l.06-.15c.1-.27.21-.54.3-.81a21.47,21.47,0,0,0,9.29,6,15.88,15.88,0,0,0,4.65.7l.81,0c.27,0,.53,0,.8-.06l.76-.1a12.82,12.82,0,0,0,1.63-.37,1.76,1.76,0,0,0,.3-.1,4.83,4.83,0,0,0,.5-.16,2.18,2.18,0,0,0,.23-.09c.17-.06.34-.12.49-.19s.5-.22.74-.35.52-.28.78-.44l.34-.22a2.44,2.44,0,0,0,.33-.23l0,0c.22-.16.44-.34.65-.52l0,0,.61-.55.06-.06c.2-.21.4-.42.59-.64h0l0,0c.11-.12.2-.25.31-.38a10.45,10.45,0,0,0,.61-.87,3.38,3.38,0,0,0,.24-.41c.06-.1.12-.2.17-.3a4.3,4.3,0,0,0,.24-.48,2.32,2.32,0,0,0,.18-.39c.08-.18.15-.37.22-.56l0-.09a9.18,9.18,0,0,0,.56-2.49" />
      <path class="BUNTAI_RED_PANDA_OUTFIT_BUNTAI_RED_PANDA_OUTFIT_42_cls-8" d="M346,371.08a48,48,0,0,0,6.08,4.63" />
      <path class="BUNTAI_RED_PANDA_OUTFIT_BUNTAI_RED_PANDA_OUTFIT_42_cls-8" d="M340.64,365.77c-2.71-3-5.2-6.2-7.63-9.43" />
      <path class="BUNTAI_RED_PANDA_OUTFIT_BUNTAI_RED_PANDA_OUTFIT_42_cls-8" d="M109.11,354.88l.19-.09h0" />
      <path class="BUNTAI_RED_PANDA_OUTFIT_BUNTAI_RED_PANDA_OUTFIT_42_cls-8" d="M360.9,380a30.46,30.46,0,0,1-2.94-1.09h0" />
      <path class="BUNTAI_RED_PANDA_OUTFIT_BUNTAI_RED_PANDA_OUTFIT_42_cls-8" d="M355.68,397.49a31.75,31.75,0,0,1-8,3.34,43,43,0,0,1-34.95-5.64c-2.71-1.83-5.35-4.18-6.12-7.36a7.72,7.72,0,0,1-.18-2.58,10,10,0,0,1,1.9-5,14.64,14.64,0,0,1,6.34-4.73c-4,1.67-5.78,7.06-4.57,11.21.86,2.95,3.17,5.25,5.65,7.05a32,32,0,0,0,34.63,1.9c4.18-2.38,7.92-5.88,9.61-10.38a14,14,0,0,0,.88-5.37,28.44,28.44,0,0,0,4.09,1,16.13,16.13,0,0,1-4.7,12.94,22.49,22.49,0,0,1-4.61,3.57" />
      <path class="BUNTAI_RED_PANDA_OUTFIT_BUNTAI_RED_PANDA_OUTFIT_42_cls-8" d="M355.68,397.49a167.9,167.9,0,0,1,10.61,44.73H315.63" />
      <path class="BUNTAI_RED_PANDA_OUTFIT_BUNTAI_RED_PANDA_OUTFIT_42_cls-8" d="M237.61,360.7a15.3,15.3,0,0,0,2.32,3.86,28.15,28.15,0,0,0,9.43,6.94A65.41,65.41,0,0,0,271,377.92c5.23.59,10.53.55,15.77.95a62.67,62.67,0,0,1,6.41.79,30.91,30.91,0,0,1,13.26,5.59" />
      <path class="BUNTAI_RED_PANDA_OUTFIT_BUNTAI_RED_PANDA_OUTFIT_42_cls-8" d="M308.93,449.61a38.25,38.25,0,0,0,6.59-7.44l.11-.16.05-.08a39.24,39.24,0,0,0,5.82-13.68v0l.16-.84a36.7,36.7,0,0,0,.65-6.09c0-.35,0-.7,0-1s0-.54,0-.81,0-.48,0-.71c0-.47,0-.93-.07-1.38a39.53,39.53,0,0,0-1.55-8.42q-.21-.74-.45-1.44l0-.06h0a39.08,39.08,0,0,0-2.3-5.37" />
      <path class="BUNTAI_RED_PANDA_OUTFIT_BUNTAI_RED_PANDA_OUTFIT_42_cls-8" d="M324.05,403.6a23.87,23.87,0,0,1-1.93,12.53" />
      <path class="BUNTAI_RED_PANDA_OUTFIT_BUNTAI_RED_PANDA_OUTFIT_42_cls-8" d="M243.5,420.83a64.76,64.76,0,0,1,62.77-18.09,45.51,45.51,0,0,1,14.41,6.2" />
      <path class="BUNTAI_RED_PANDA_OUTFIT_BUNTAI_RED_PANDA_OUTFIT_42_cls-8" d="M230.22,441.21a61.73,61.73,0,0,1,2.82-6,65.73,65.73,0,0,1,10.46-14.39" />
      <path class="BUNTAI_RED_PANDA_OUTFIT_BUNTAI_RED_PANDA_OUTFIT_42_cls-8" d="M243.5,420.83h0a31.77,31.77,0,0,1,3.57-9.55c2.49-4.35,6-8.06,8.66-12.28.21-.33.42-.66.62-1a41,41,0,0,0,5.75-21.74" />
      <path class="BUNTAI_RED_PANDA_OUTFIT_BUNTAI_RED_PANDA_OUTFIT_42_cls-8" d="M256.35,398q5-4.39,10.41-8.34c6.13-4.48,12.85-8.58,20-10.79" />
      <path class="BUNTAI_RED_PANDA_OUTFIT_BUNTAI_RED_PANDA_OUTFIT_42_cls-8" d="M330.3,353.54a6.56,6.56,0,0,1-.39.91,4.93,4.93,0,0,1-.23.46c-.08.16-.17.31-.26.46a7.84,7.84,0,0,1-1,1.29,2.67,2.67,0,0,1-.34.33.15.15,0,0,1-.08.08,1.54,1.54,0,0,1-.34.28.35.35,0,0,1-.12.1,2.26,2.26,0,0,1-.41.3,4.19,4.19,0,0,1-.5.31,5.81,5.81,0,0,1-.75.37,3.35,3.35,0,0,1-.38.14,5.8,5.8,0,0,1-.63.2c-6.62,1.78-19-7.43-19-7.43s-6.29,12.57-15,14.13-30.58-13.55-45.56-10.75h-.05" />
      <path class="BUNTAI_RED_PANDA_OUTFIT_BUNTAI_RED_PANDA_OUTFIT_42_cls-8" d="M346,371.08a63.25,63.25,0,0,1-10.68.47c-4.16-.37-7.64-.47-7.64-.47a67.37,67.37,0,0,0,8.6-3.39,16.67,16.67,0,0,1,4.41-1.92c2.37-.49,4.73.29,5.31,5.3Z" />
      <path class="BUNTAI_RED_PANDA_OUTFIT_BUNTAI_RED_PANDA_OUTFIT_42_cls-8" d="M358,378.87a22.13,22.13,0,0,1-15.27,3.23c3.27-.89,7.6-4.38,9.34-6.39A3.52,3.52,0,0,1,358,378.87Z" />
      <path class="BUNTAI_RED_PANDA_OUTFIT_BUNTAI_RED_PANDA_OUTFIT_42_cls-8" d="M236.61,347.55a9.11,9.11,0,0,1,3,7.08c0,.45,0,.9-.07,1.34,0,.21-.07.43-.11.65a9.15,9.15,0,0,1-1.82,4.08,5.61,5.61,0,0,1-4.32,2.24,6.08,6.08,0,0,1-5.26-3.67,9.68,9.68,0,0,1-.85-2.41h0a10.64,10.64,0,0,1-.23-2.22,9.34,9.34,0,0,1,2.65-6.77,5.41,5.41,0,0,1,3.69-1.55,5.22,5.22,0,0,1,3.31,1.24Z" />
      <g class="BUNTAI_RED_PANDA_OUTFIT_BUNTAI_RED_PANDA_OUTFIT_42_cls-9">
        <path d="M230.22,441.21a31.45,31.45,0,0,1-1.84,8.4h-5.23c-9.4,7.79-24.16,10.91-42.46,9.55a137.3,137.3,0,0,1-41.34-9.55,42.89,42.89,0,0,1-8.11-7.39H68.53a141.81,141.81,0,0,1,13.1-44.73c-.49-.23-1-.47-1.43-.73,1,.43,22.36,9.65,42.59,2.79l-.26.47c-.65,1.17-1.31,2.36-1.86,3.63-1.84,4.27-2.49,9.43,2.14,17.67a.85.85,0,0,1,0-.16c0-.33,0-.66,0-1s0-.63,0-.95a30.24,30.24,0,0,1,.23-3.15,26.43,26.43,0,0,1,2.38-8.63h0s.11.35.36,1c2,5.36,13.09,30.79,42.24,37.43C200.68,453.28,230.22,441.21,230.22,441.21Z" />
        <path d="M76.54,379.42A47.67,47.67,0,0,0,103.4,393.6c16.68,2.45,36.21-8.32,32.13-16.67,5.46,10.8-.37,18.08-16.16,22.46s-38.34-.08-43.11-8.95-4.82-9.66-4.82-9.66Z" />
        <path d="M81,375.11s1.45,6.48,15.53,6.69c-14.07-.16-17.74-2.93-17.74-2.93S78.65,376,81,375.11Z" />
        <path d="M93.73,370.55s2.71,1,10.19,1.07,9.82-.46,9.82-.46-9.21-1.28-13.55-2.17S95,367.38,95,367.38Z" />
        <path d="M219.87,419.86s-19.54-18.25-50.81-23.07-40.63,3.12-40.63,3.12,7.88-9,31.17-8.1S206.61,401.72,219.87,419.86Z" />
        <path d="M226.53,357.37s-13.76,10.46-28,13.21-30.53,3.13-44.65,7.54c13.12-5.24,28.91-7.93,28.91-7.93s-24.5,2.46-33.4,6.07-8.48,5.15-8.48,5.15l1.5,3.82s6.59-7.24,32.5-6.71,41.07-8.62,46.15-11.18a15.36,15.36,0,0,0,6.94-7.15Z" />
        <path d="M232,346.49s-2.86,6.65-1.28,10.8a8.29,8.29,0,0,0,4.75,5.13s-6.45,2.1-8.3-5.56C226.34,351.8,227.59,347.12,232,346.49Z" />
        <path d="M228,352.18v4.65a4.11,4.11,0,0,1-.88-.08,7.64,7.64,0,0,1-2-.73l0,0h0l0,0h0a9.25,9.25,0,0,1-1.48-.93h-.07a15.19,15.19,0,0,1-8.86-1.83,7.78,7.78,0,0,1-2.4-2.2,3.61,3.61,0,0,1-.33-.5c-3.62,3.76-6.37,3.73-10.84,1.61-5.43,2-7,2.08-9.83-.08-3.76,2-9.9,1.43-11.4-5.45a7.26,7.26,0,0,1-4.31.63h0a4.24,4.24,0,0,1-1.1-.34v0c0,.19-.16,1.64-2.78,2.12a10.41,10.41,0,0,1-1.62.15,9.17,9.17,0,0,1-1.21-.05,7.94,7.94,0,0,1-2.5-.65c-.67-.28-1.25-.6-1.9-.83a5.67,5.67,0,0,0-2.87-.24c-2.58.36-4.65-1.83-5.68-3.23-.24-.33-.44-.62-.57-.82l-.16-.3s-7.43,1.92-7.16-5.76C147.76,335.19,150,334,150,334s.12-1.31,3.34-2.88,6.14,2,6.14,2a10.41,10.41,0,0,1,2.24-3.33c3.28,1.22,5.22,2.69,5.71,3.47.91,1.48,7.87,4.82,9.57,5.12s12.24-.89,18.85,2.45,12.1,6,12.84,6.38,5.86,1.7,7.05,2.22.74,1.05,6.33,1.12a12.06,12.06,0,0,1,5.16.88h0l.2.11C228,351.87,228,352.18,228,352.18Z" />
        <path d="M168.22,370.08l-.17.51s-2.49-.1-5.67-.51l-.51-.06-.25,0h-.07c-1.38-.18-2.85-.43-4.3-.76l-.14,0H157a17.75,17.75,0,0,1-6.75-2.68l0,0h0c-2.2-1.75-3.87-3-5.27-4.39a19,19,0,0,1-3.59-4.65h0s0,0,0,0c-3.81,3.5-12.53,8.64-22.24,6l-.15,0-.15,0-.09,0,0,0h0a22.52,22.52,0,0,1-3.51-1.33l-.1,0-.22-.12a1.29,1.29,0,0,1-.16-.09c-3.17-1.64-4.58-3.6-5.1-5.25-.06-.2-.11-.4-.15-.58a4.78,4.78,0,0,1-.1-1l.88-.12c1.46,3.05,5.93,10,15.22,6.71,11.73-4.16,17.51-6.31,17.51-6.31s11.29,12,17.15,13a35.72,35.72,0,0,1,8.13,2h0Z" />
        <path d="M321.51,428.23v0a65.75,65.75,0,0,1-5.82,13.68l-.05.08v.21l-.11-.05a38.25,38.25,0,0,1-6.59,7.44c-20.5,18.22-60.73,8.06-64.88,2.92-.77-1-1.51-1.95-2.2-2.92h-4.62a38.36,38.36,0,0,1-1.47-8.4s.36.18,1,.49c4.86,2.18,26,10.66,49.07,4.16,23.5-6.64,32.41-32.07,34.05-37.43.19-.64.28-1,.28-1l0,.06a31.29,31.29,0,0,1,1.9,8.61c0,.4.08.82.1,1.25s.06.91.07,1.38c0,.23,0,.47,0,.71s0,.49,0,.73v0c0,.37,0,.74,0,1.12,0,0,0,0,0,0l.1-.22A21.85,21.85,0,0,1,321.51,428.23Z" />
        <path d="M340.05,401.81a28.8,28.8,0,0,1-3.54.26C337.72,402,338.9,401.94,340.05,401.81Z" />
        <path d="M359.61,379.42s-8.2,11.73-21.65,14.18-29.19-8.32-25.9-16.67c-4.39,10.8.3,18.08,13,22.46s30.9-.08,34.74-8.95,3.88-9.66,3.88-9.66Z" />
        <path d="M356,375.11s-1.16,6.48-12.51,6.69c11.33-.16,14.3-2.93,14.3-2.93S357.9,376,356,375.11Z" />
        <path d="M345.75,370.55s-2.18,1-8.21,1.07-7.92-.46-7.92-.46,7.43-1.28,10.92-2.17,4.19-1.61,4.19-1.61Z" />
        <path d="M244.1,419.86s15.74-18.25,41-23.07,32.74,3.12,32.74,3.12-6.36-9-25.12-8.1S254.79,401.72,244.1,419.86Z" />
        <path d="M238.73,357.37s11.08,10.46,22.54,13.21,24.6,3.13,36,7.54c-10.57-5.24-23.29-7.93-23.29-7.93s19.74,2.46,26.91,6.07,6.83,5.15,6.83,5.15l-1.21,3.82s-5.3-7.24-26.19-6.71-33.1-8.62-37.19-11.18a14.78,14.78,0,0,1-5.59-7.15Z" />
        <path d="M234.31,346.49s2.3,6.65,1,10.8-3.83,5.13-3.83,5.13,5.86,2.1,7.34-5.56C239.54,351.8,237.87,347.12,234.31,346.49Z" />
        <path d="M302.33,337.37a1.17,1.17,0,0,1-.24-.09c.08,2.63-.57,4.14-1.46,5l-.2.16a2.67,2.67,0,0,1-.65.42.06.06,0,0,1-.06,0,5.16,5.16,0,0,1-3.39.17,3.34,3.34,0,0,1-.15.32,12.9,12.9,0,0,1-.85,1.43l0,0c-.91,1.33-2.38,2.87-4.15,2.57a3.79,3.79,0,0,0-2.31.23c-1.1.49-1.93,1.37-3.8,1.51a4.32,4.32,0,0,1-.73,0,5.49,5.49,0,0,1-2-.38h0a2.43,2.43,0,0,1-1.37-1.28,1.65,1.65,0,0,1-.14-.62l-.16.08a3.58,3.58,0,0,1-1.11.32,4.92,4.92,0,0,1-3.1-.69l0,.15c-.07.39-.16.75-.25,1.09h0a7,7,0,0,1-3,4.49l-.26.15h0l-.27.12-.14.06h0l-.42.14a4.41,4.41,0,0,1-.88.17l-.12,0a6,6,0,0,1-3.74-1c-2.2,1.74-3.55,2.07-7.92.08l-.2.12-.67.36c-3.1,1.62-5.19,1.36-7.87-2.09a5.56,5.56,0,0,1-.43.76,7.83,7.83,0,0,1-4.2,3.23,11.29,11.29,0,0,1-4.77.53l-.06.06a8.73,8.73,0,0,1-1.6,1.16,5.2,5.2,0,0,1-1.27.51h0a2.63,2.63,0,0,1-.7.08v-4.65a1.41,1.41,0,0,1,.66-.75h0A5.16,5.16,0,0,1,239,351a10.59,10.59,0,0,1,3.36-.49c4.5-.07,4.13-.59,5.09-1.12s5.1-1.85,5.69-2.22,5-3.05,10.35-6.38,13.82-2.16,15.18-2.45,7-3.64,7.72-5.12c.38-.77,1.91-2.19,4.47-3.4a3.86,3.86,0,0,1,.17.91c2.54-.77,6.38.89,5.94,4C299.59,333.4,302.33,337.37,302.33,337.37Z" />
        <path d="M333,356.24l0,.1a8.75,8.75,0,0,1-3.65,5,1,1,0,0,1-.16.12l0,0s0,0,0,0h0l-.05,0h0l0,0-.16.11a17.3,17.3,0,0,1-3.25,1.57l-.3.1c-7.83,2.67-14.86-2.47-17.94-6l-.35.75v0s0,.06,0,.07h0v0c-1.58,3.19-3.37,4.87-6.5,8h0l0,0h0l0,0a2.39,2.39,0,0,1-.22.23,13.52,13.52,0,0,1-6,2.82l-.09,0-.13,0-.07,0-.17,0a1,1,0,0,1-.23.06l-.6.14h-.11c-.25.05-.5.09-.74.15l-.11,0h0l-.48.09h-.09l-.19,0-.2,0a50.49,50.49,0,0,1-5.07.59l-.13-.49v0a24.65,24.65,0,0,1,6.57-2c4.72-1,13.82-13,13.82-13s4.65,2.15,14.11,6.31c8.38,3.68,11.89-5.48,12.59-7.61h.28A5.79,5.79,0,0,1,333,356.24Z" />
        <path d="M322.33,399.55c2.35,5.2,4.93,10.67.09,21.53a6.31,6.31,0,0,0-.08-.76.49.49,0,0,0,0-.12v0l-1.14-8.1-1-4.64.26-9.95s3.51,4.24,15.29,4.57h.62A33.74,33.74,0,0,1,322.33,399.55Z" />
      </g>
      <path class="BUNTAI_RED_PANDA_OUTFIT_BUNTAI_RED_PANDA_OUTFIT_42_cls-10" d="M233,403a16.08,16.08,0,0,0-5-8.95" />
      <path class="BUNTAI_RED_PANDA_OUTFIT_BUNTAI_RED_PANDA_OUTFIT_42_cls-10" d="M234.36,394s-2.45,2.87-2.83,4.54" />
      <path class="BUNTAI_RED_PANDA_OUTFIT_BUNTAI_RED_PANDA_OUTFIT_42_cls-8" d="M109.3,354.79h0l.88-.12c1-.13,2-.32,3.07-.55,12.36-2.67,28-11,34.17-16.41.17-.14.33-.29.48-.43C147.76,335.19,150,334,150,334s.12-1.31,3.34-2.88,6.14,2,6.14,2a10.41,10.41,0,0,1,2.24-3.33,8.48,8.48,0,0,1,2.64-1.8c3.52-1.48,7.37,1.9,7.37,1.9s.06-1,2.22-1.05c2.67.58,6.77-.82,6.77-.82" />
      <path class="BUNTAI_RED_PANDA_OUTFIT_BUNTAI_RED_PANDA_OUTFIT_42_cls-8" d="M275.48,327.88v0a19.75,19.75,0,0,0,7.78,1.05c2.44-2.71,4.68-2.43,4.68-2.43a6.77,6.77,0,0,1,2.92,3.33,3.86,3.86,0,0,1,.17.91c2.54-.77,6.38.89,5.94,4,2.62-1.4,5.36,2.57,5.36,2.57h0c.53.46,16.2,14.17,28,16.16a17.1,17.1,0,0,0,2.52.23h.28l.5,0" />
    </g>
  </g>
</svg>