<svg xmlns="http://www.w3.org/2000/svg" viewBox="0 0 432 432">
  <defs>
    <style>.BUNTAI_RED_PANDA_OUTFIT_BUNTAI_RED_PANDA_OUTFIT_41_cls-1{isolation:isolate;}.BUNTAI_RED_PANDA_OUTFIT_BUNTAI_RED_PANDA_OUTFIT_41_cls-2{fill:#fff;}.BUNTAI_RED_PANDA_OUTFIT_BUNTAI_RED_PANDA_OUTFIT_41_cls-3{fill:#39607f;}.BUNTAI_RED_PANDA_OUTFIT_BUNTAI_RED_PANDA_OUTFIT_41_cls-4{fill:#ffca36;}.BUNTAI_RED_PANDA_OUTFIT_BUNTAI_RED_PANDA_OUTFIT_41_cls-5{fill:#f76f7d;}.BUNTAI_RED_PANDA_OUTFIT_BUNTAI_RED_PANDA_OUTFIT_41_cls-6,.BUNTAI_RED_PANDA_OUTFIT_BUNTAI_RED_PANDA_OUTFIT_41_cls-8{fill:none;stroke:#000;stroke-linecap:round;stroke-linejoin:round;}.BUNTAI_RED_PANDA_OUTFIT_BUNTAI_RED_PANDA_OUTFIT_41_cls-6{stroke-width:2px;}.BUNTAI_RED_PANDA_OUTFIT_BUNTAI_RED_PANDA_OUTFIT_41_cls-7{opacity:0.43;mix-blend-mode:multiply;}.BUNTAI_RED_PANDA_OUTFIT_BUNTAI_RED_PANDA_OUTFIT_41_cls-8{stroke-width:1.81px;}</style>
  </defs>
  <g class="BUNTAI_RED_PANDA_OUTFIT_BUNTAI_RED_PANDA_OUTFIT_41_cls-1">
    <g id="outfit">
      <path class="BUNTAI_RED_PANDA_OUTFIT_BUNTAI_RED_PANDA_OUTFIT_41_cls-2" d="M264.56,396.33a.49.49,0,0,0,0-.12c0-.14,0-.26,0-.39a.09.09,0,0,0,0-.05.88.88,0,0,0,0-.16c0-.16-.05-.31-.08-.46a1.1,1.1,0,0,0-.06-.26,5.86,5.86,0,0,0-.21-.67.49.49,0,0,0-.06-.17l0,0a4.65,4.65,0,0,0-.3-.59,1.37,1.37,0,0,0-.13-.2,3.28,3.28,0,0,0-.27-.38c-.05-.06-.1-.13-.16-.19a.43.43,0,0,0-.11-.12,2.28,2.28,0,0,0-.22-.22,2,2,0,0,0-.22-.2l-.23-.17,0,0-.07-.05-.12-.07-.11-.08-.11-.06-.5-.26-.06,0-.09,0-.15-.05a6,6,0,0,0-.85-.27l-.24-.05h-.2a1.08,1.08,0,0,0-.19,0l-.46-.07a3.15,3.15,0,0,0-.44,0c-.24,0-.49,0-.74,0h-.64l-.22,0c-.2,0-.39,0-.58.06l-.26,0h-.05l-.21,0c-.2,0-.4.06-.6.1l-.28.05-.7.14-.12,0h0l-.08,0h0l-.06,0c-.5.12-1,.25-1.49.4l-.31.08h0l-.12,0-.35.11h0l-.48.15-.91.33h0c.17-.4.34-.8.49-1.21s.27-.81.38-1.22a9.58,9.58,0,0,0,.35-2.44q0-.32,0-.63a4.93,4.93,0,0,0-.26-1.21h0a5.55,5.55,0,0,0-.24-.56c0-.1-.11-.19-.17-.29l-.2-.3a.1.1,0,0,0,0-.05l-.19-.24,0-.06h0l-.07-.08-.15-.15-.23-.22h0l-.08-.06-.34-.24-.06,0-.06,0-.29-.17h0l-.08,0-.37-.16-.2-.08-.2-.07-.09,0-.1,0-.06,0-.06,0-.18-.05-.16,0-.2,0h0l-.23,0a.64.64,0,0,0-.2,0l-.12,0-.08,0h-.17l-.33,0h-.69l-.62,0-.5,0-.5.07-.31.06-.47.11,0,0-.23.07h0l-.28.1-.25.1-.24.11-.11.06a4.78,4.78,0,0,0-.83.55,2.73,2.73,0,0,0-.25.23,2.18,2.18,0,0,0-.21.22l-.2.24,0,.05a3.89,3.89,0,0,0-.43.66,2.55,2.55,0,0,0-.13.29.36.36,0,0,1,0,.09h0s0,0,0,0,0,.11-.07.17-.05.15-.07.22,0,0,0,.06h0a.09.09,0,0,0,0,.05.29.29,0,0,0,0,.09.1.1,0,0,0,0,.07.24.24,0,0,0,0,.08,1,1,0,0,0,0,.24h0a0,0,0,0,0,0,0,.4.4,0,0,0,0,.15,6.47,6.47,0,0,0-.05,1.17c0,.11,0,.21,0,.32l0,.31c0,.11,0,.22,0,.33h0l.06.35c0,.21.09.43.14.64s.12.45.19.67a1.42,1.42,0,0,0,.07.22c.11.35.23.7.37,1,0,.14.11.27.17.41l.18.41c.07.16.14.33.22.49l.24.48.44.84c.08.13.15.26.22.39H208.35l.11-.19a23,23,0,0,0,1.1-2.22,1,1,0,0,0,.09-.21l0-.06.07-.16c.06-.15.12-.29.17-.44a3,3,0,0,0,.17-.47c0-.07,0-.14.07-.2a.1.1,0,0,0,0-.07.57.57,0,0,0,0-.14.36.36,0,0,0,0-.11,6.44,6.44,0,0,0,.2-.72.11.11,0,0,0,0,0l0-.11a1.84,1.84,0,0,0,.08-.38.14.14,0,0,0,0-.06.09.09,0,0,1,0-.05.69.69,0,0,1,0-.13h0v0a.08.08,0,0,0,0,0,.22.22,0,0,0,0-.08l.06-.43c0-.13,0-.25,0-.38a6.72,6.72,0,0,0,0-1.1,1.27,1.27,0,0,0,0-.28.13.13,0,0,0,0-.06,3.58,3.58,0,0,0-.09-.45c0-.15-.08-.3-.13-.44a3.23,3.23,0,0,0-.24-.58,5.12,5.12,0,0,0-.45-.7h0a2.11,2.11,0,0,0-.19-.23l-.23-.23a2.73,2.73,0,0,0-.25-.23,3.72,3.72,0,0,0-.48-.35l-.28-.16c-.12-.07-.25-.13-.38-.19l-.13-.06-.37-.14-.41-.12-.19,0-.21-.05-.37-.07h-.11a10.65,10.65,0,0,0-1.45-.1,8.45,8.45,0,0,0-.89,0h-.06l-.24,0a3,3,0,0,0-.42.06H203l-.19,0-.23,0-.41.11h0l-.12,0h0a4.7,4.7,0,0,0-.45.17l-.1.05-.16.07,0,0h0l-.26.14,0,0h0l-.08.05a1.51,1.51,0,0,0-.26.18l-.08,0a0,0,0,0,0,0,0,3.7,3.7,0,0,0-.29.24h0a1,1,0,0,0-.23.22.3.3,0,0,0-.08.08l0,0-.16.18-.14.18a3,3,0,0,0-.2.29c-.06.1-.12.19-.17.29a1.11,1.11,0,0,0-.07.16,3.05,3.05,0,0,0-.13.32,1.18,1.18,0,0,0-.1.3,4.7,4.7,0,0,0-.17.83.29.29,0,0,0,0,.09.49.49,0,0,0,0,.12q0,.3,0,.6a6.79,6.79,0,0,0,0,.78s0,.08,0,.12,0,.2,0,.3l0,.15A8.32,8.32,0,0,0,199,390a6.13,6.13,0,0,0,.18.61c.06.2.13.41.2.61s.15.41.23.61l.26.6h0l-.92-.33-.17-.05h0l-.17-.06-.11,0-.32-.09-.14-.05h0l-.77-.22c-.27-.08-.55-.15-.82-.21s-.52-.13-.78-.18-.73-.15-1.09-.2l-.56-.08-.52-.05-.44,0a10.89,10.89,0,0,0-1.81,0,3.4,3.4,0,0,0-.46.06l-.29.05a6.5,6.5,0,0,0-1.34.4l-.12.05-.24.12-.29.16-.23.13a3.25,3.25,0,0,0-.34.25l-.25.21-.09.08a2.28,2.28,0,0,0-.22.22,2.62,2.62,0,0,0-.22.25l-.1.12-.1.14a5.25,5.25,0,0,0-.74,1.48,1.82,1.82,0,0,0-.07.25,6.76,6.76,0,0,0-.17.83.77.77,0,0,0,0,.15.17.17,0,0,0,0,.07,2.45,2.45,0,0,0,0,.27.41.41,0,0,0,0,.11c0,.17,0,.35,0,.53a8.37,8.37,0,0,0,0,.89l0,.26a2,2,0,0,0,0,.24l0,.16.06.25a3,3,0,0,0,.08.32s0,.05,0,.07.08.23.13.35h0v0c0,.1.09.2.13.29l.1.21a4.25,4.25,0,0,0,.27.46.61.61,0,0,0,.07.1,1.33,1.33,0,0,0,.14.19,2.11,2.11,0,0,0,.19.23l.13.15a4.32,4.32,0,0,0,.45.42l.13.1.05,0a4.44,4.44,0,0,0,.5.34,4.06,4.06,0,0,0,.51.26,4.33,4.33,0,0,0,.54.21h0l.23.08.09,0,.28.07h0l.12,0,.42.08c.32.05.65.08,1,.1h1l.46,0h0l.68-.07H194l.12,0h.05l.17,0h.07l.28,0,.28-.05.24,0c.61-.12,1.22-.27,1.83-.43s1-.28,1.47-.44l0,0c.44-.14.88-.29,1.31-.45h0l-.18.42c-.13.31-.25.62-.36.94a4.11,4.11,0,0,0-.15.46c-.07.21-.13.41-.18.61a8.32,8.32,0,0,0-.23,1.08c0,.1,0,.2,0,.3s0,.11,0,.16,0,.07,0,.11a.49.49,0,0,0,0,.12.66.66,0,0,0,0,.14v.05a.66.66,0,0,0,0,.14v0a1.77,1.77,0,0,0,0,.23,2.53,2.53,0,0,0,0,.28s0,0,0,0a0,0,0,0,0,0,0h0a.66.66,0,0,0,0,.14,1,1,0,0,0,0,.24,5.54,5.54,0,0,0,.2,1,.83.83,0,0,0,.06.21l0,.08a1.72,1.72,0,0,0,.07.21l0,0a1.89,1.89,0,0,0,.11.25,4.57,4.57,0,0,0,.61.89l.13.15a4.44,4.44,0,0,0,.55.49l.1.07.26.17.11.07a3.9,3.9,0,0,0,.35.19l.3.14h0a3.4,3.4,0,0,0,.34.12l.25.08a4,4,0,0,0,.64.16l.23.05.42.05.09,0,.21,0h.89c3.4,0,4.87-1.47,5.51-2.71,1.41-2.78-.26-6.8-1.87-9.64h33.73c-1.61,2.84-3.28,6.86-1.87,9.64.64,1.24,2.11,2.71,5.51,2.71h.87l.26,0c.15,0,.29,0,.43-.06l.37-.07h0a5.93,5.93,0,0,0,1.44-.48l.23-.12s0,0,0,0l.15-.08a1.37,1.37,0,0,0,.2-.13l.11-.08h0a3.87,3.87,0,0,0,.53-.44h0l.1-.12h0s0,0,0,0v0l.07-.07h0l.16-.2,0,0h0a.35.35,0,0,0,.05-.08,1.07,1.07,0,0,0,.15-.22s0,0,0,0a2.57,2.57,0,0,0,.23-.38,5.55,5.55,0,0,0,.24-.56h0a4.93,4.93,0,0,0,.26-1.21q0-.31,0-.63a9.58,9.58,0,0,0-.35-2.44c-.11-.41-.24-.82-.38-1.22s-.32-.82-.49-1.21h0l.68.24.51.17c.46.16.93.3,1.4.43l.61.16.65.16.32.08a.3.3,0,0,1,.13,0h0l.42.08h.06l.49.07.17,0,.31,0,.72.08.24,0h1.34l.63,0,.38,0,.08,0,.29-.05.46-.1.1,0,.07,0,.46-.15.06,0h0a2.65,2.65,0,0,0,.42-.18h0a3,3,0,0,0,.4-.21l.16-.1.17-.12.1-.08h0a.39.39,0,0,0,.1-.08l.07-.06h0a.75.75,0,0,0,.14-.12l.05,0a1.29,1.29,0,0,0,.17-.16l.12-.11a4.42,4.42,0,0,0,.52-.67,1.63,1.63,0,0,0,.11-.17.83.83,0,0,0,.09-.16l0-.08a.75.75,0,0,0,.07-.12l.13-.27h0l.1-.27s0,0,0-.05a.11.11,0,0,1,0-.05l0-.07a3.37,3.37,0,0,0,.1-.34.38.38,0,0,0,0-.1,1.6,1.6,0,0,0,.07-.33.61.61,0,0,0,0-.13v-.05s0,0,0,0h0c0-.05,0-.1,0-.15a1,1,0,0,0,0-.18.09.09,0,0,1,0,0,.53.53,0,0,0,0-.13.61.61,0,0,0,0-.14c0-.21,0-.42,0-.65S264.57,396.47,264.56,396.33Zm-74.06,2.13-.12-.09a1.2,1.2,0,0,1-.45-.81,3.15,3.15,0,0,1-.09-.82,3,3,0,0,1,.09-.81,1.15,1.15,0,0,1,.08-.28l.05-.12a.31.31,0,0,1,.05-.1.69.69,0,0,1,.19-.24l.08-.07.12-.09.34-.16a4,4,0,0,1,.41-.11l.29,0a4.68,4.68,0,0,1,.66,0h.3l.31,0,.46,0c.42.05.87.13,1.34.23l.43.1.44.11.38.1.84.24c1.11.34,2.25.76,3.35,1.21C196.33,398.27,192.13,399.43,190.5,398.46Zm12.26-11.54a1,1,0,0,1,.65-.41h0l.19,0h.07a3.66,3.66,0,0,1,.61-.07h1l.18,0h.05l.25,0,.13,0,.12,0a1.36,1.36,0,0,1,.4.18.48.48,0,0,1,.11.09l.1.12a.58.58,0,0,1,.05.14h0a.42.42,0,0,1,0,.16.77.77,0,0,1,0,.15.28.28,0,0,1,0,.09,3.55,3.55,0,0,1-.12,1.1c0,.08,0,.17-.06.27s-.05.19-.08.28-.12.39-.19.59c-.15.4-.33.83-.53,1.28a2.39,2.39,0,0,1-.13.28c-.12.26-.26.54-.4.81,0,.09-.08.17-.13.26s-.15.26-.22.39-.14.26-.22.39c-.23-.39-.44-.78-.64-1.17s-.26-.52-.38-.77c-.24-.53-.45-1-.62-1.51-.06-.16-.11-.32-.16-.47s-.09-.33-.13-.48-.06-.26-.08-.38a.57.57,0,0,1,0-.18.88.88,0,0,1,0-.16,2.79,2.79,0,0,1,0-.77A.94.94,0,0,1,202.76,386.92Zm4,19.18a.76.76,0,0,1,0,.16.85.85,0,0,1,0,.17,1.21,1.21,0,0,1-.05.14l0,.06-.05.06h0l-.14.1-.14.07-.14.06-.2.06a4.71,4.71,0,0,1-1.24.14h-.43l-.29,0-.27,0-.08,0-.28-.07a1.34,1.34,0,0,1-.3-.12.21.21,0,0,1-.1-.06.4.4,0,0,1-.12-.1.35.35,0,0,1-.08-.1c-.51-1,.48-3.67,2-6.21.16.28.32.56.46.84s.25.48.37.72a.54.54,0,0,1,.05.11c.09.17.17.35.25.52.16.36.31.71.43,1l.18.53.11.32c0,.11.06.22.08.32a3.67,3.67,0,0,1,.09.43c0,.13,0,.26.05.38a.38.38,0,0,1,0,.1A2.93,2.93,0,0,1,206.79,406.1Zm40.89.48a.4.4,0,0,1-.14.15,1.07,1.07,0,0,1-.21.13,2.09,2.09,0,0,1-.3.11l-.28.07a5.19,5.19,0,0,1-1,.09,5,5,0,0,1-1.1-.11l-.31-.08-.17-.07-.14-.07a.71.71,0,0,1-.14-.1h0a.47.47,0,0,1-.09-.12,1.25,1.25,0,0,1-.1-.31,2.13,2.13,0,0,1,0-.37,7.75,7.75,0,0,1,.74-2.82q.15-.37.33-.75l.18-.39c.13-.26.26-.52.4-.78s.29-.51.44-.77l.21.38.32.59.1.19c.13.26.26.52.38.78s.23.5.33.75a1.3,1.3,0,0,1,.08.17l.07.19c.06.15.11.3.16.45s.1.29.14.43.06.17.08.25a1.74,1.74,0,0,1,.05.22,3.56,3.56,0,0,1,.14.79.92.92,0,0,1,0,.16A1.57,1.57,0,0,1,247.68,406.58Zm-.16-17.39c-.05.15-.1.31-.16.47a15.1,15.1,0,0,1-.62,1.51c-.12.26-.25.52-.38.78l-.28.52-.35.64c-.15-.26-.3-.51-.44-.77s-.27-.52-.4-.78l-.18-.39q-.18-.37-.33-.75c-.08-.19-.15-.38-.22-.56a8,8,0,0,1-.48-1.75,2.25,2.25,0,0,1,0-.44v-.07a2.13,2.13,0,0,1,0-.37,1.25,1.25,0,0,1,.1-.31.47.47,0,0,1,.09-.12,1.61,1.61,0,0,1,.83-.35,1.46,1.46,0,0,1,.31,0c.11,0,.23,0,.35,0h.75a4.24,4.24,0,0,1,.54.06.57.57,0,0,1,.18,0l.25.06.14.05a.31.31,0,0,1,.13.06.6.6,0,0,1,.24.16.53.53,0,0,1,.1.12.94.94,0,0,1,.1.31,2.25,2.25,0,0,1,0,.38A5.55,5.55,0,0,1,247.52,389.19ZM260.35,398a.57.57,0,0,1-.08.13.84.84,0,0,1-.26.27l-.08,0c-.86.51-2.42.44-4.25,0-.24-.05-.49-.11-.73-.18l-.74-.2c-.74-.21-1.5-.47-2.25-.74L250.9,397l-.52-.21c.35-.14.69-.28,1.05-.41s.59-.23.89-.33l.3-.1,1.18-.39c.27-.08.53-.16.78-.22.51-.14,1-.26,1.48-.36l.7-.12.66-.09h.18l.33,0h.31a3.45,3.45,0,0,1,1.69.35c.18.11.66.39.66,1.71A2.76,2.76,0,0,1,260.35,398Z" />
      <path class="BUNTAI_RED_PANDA_OUTFIT_BUNTAI_RED_PANDA_OUTFIT_41_cls-3" d="M367.32,446.81H295.26c.34-.14.68-.28,1-.44l.43-.19c.23-.1.46-.2.69-.32s.68-.31,1-.49l1-.51.75-.42c.35-.18.69-.38,1-.59s.58-.34.86-.52.37-.23.55-.35a43.28,43.28,0,0,0,5.41-4.11c.28-.25.55-.49.82-.75s.67-.63,1-1a.47.47,0,0,0,.1-.1c.37-.36.74-.74,1.09-1.13.19-.19.37-.4.55-.6s.42-.46.61-.7a6.55,6.55,0,0,0,.49-.58l0,0c.22-.26.44-.53.65-.8s.62-.8.92-1.21.62-.86.91-1.3l.22-.33c.21-.31.41-.63.61-1l0,0,.18-.29.08-.13c.25-.42.5-.84.74-1.27.48-.86.92-1.73,1.34-2.62.25-.54.49-1.09.72-1.64q.71-1.68,1.26-3.42c.08-.24.16-.48.23-.73.22-.7.41-1.41.58-2.12.07-.27.14-.54.19-.81.17-.69.31-1.39.43-2.09l.09-.51q.08-.4.12-.81c0-.28.09-.57.12-.85.1-.73.17-1.47.22-2.21,0-.25,0-.5.05-.75a2.28,2.28,0,0,0,0-.26.21.21,0,0,0,0-.11h0c0-.3,0-.59,0-.88,0-1.1,0-2.21,0-3.31,0-.34,0-.69-.06-1s0-.68-.09-1-.05-.59-.09-.88c0-.11,0-.22,0-.33,0-.28-.07-.56-.11-.83s-.1-.68-.16-1-.12-.68-.18-1-.15-.76-.24-1.14-.13-.57-.2-.85c0-.07,0-.14-.05-.21-.07-.28-.14-.55-.22-.82s-.09-.33-.14-.49-.06-.23-.1-.35-.15-.51-.23-.77-.1-.32-.16-.49c-.13-.43-.27-.85-.42-1.28s-.3-.85-.46-1.27-.27-.72-.41-1.07c-.4-1-.82-2.06-1.26-3.09l-.6-1.37h0c2.6,1.08,6.7,2.49,9.52,2,4.38-.81,3.08-3.37,6.21-2.75s5.37,3.38,7.87,1,3.06-.18,5.78.22l.37,0,.81,6.24.56,4.28,0,.21.31.83,1.25,3.31h0l0,0,2.34,6.2Z" />
      <path class="BUNTAI_RED_PANDA_OUTFIT_BUNTAI_RED_PANDA_OUTFIT_41_cls-3" d="M155.17,446.81H77.65c5.16-15.36,13.62-47.13,14.5-50.47l.06-.23a.32.32,0,0,1,0-.06l.24-7.12.27-3.7a5,5,0,0,1,.62.2c3.55,1.38,2.79.7,5.5.3s6.27-2.57,8.78-.22,4.74-.41,7.87-1,3.83,1.94,8.22,2.75c2.81.52,6.91-.89,9.51-2h0l-.6,1.37c-.08.19-.15.37-.23.55-.18.43-.36.86-.53,1.29s-.39,1-.57,1.45l0,.12a1.34,1.34,0,0,0-.07.18c-.11.29-.22.57-.32.86l-.15.4,0,.08q-.28.78-.54,1.56c-.06.18-.12.36-.17.53s-.11.35-.16.52l-.15.49c0,.12-.07.25-.1.37s-.07.24-.1.36c-.11.36-.2.72-.29,1.08s-.13.57-.2.85h0c-.17.76-.32,1.52-.44,2.29s-.24,1.53-.32,2.31-.15,1.5-.18,2.25q0,.39,0,.78c0,.15,0,.3,0,.45a.33.33,0,0,0,0,.14c0,.29,0,.59,0,.88s0,.57,0,.86,0,.57,0,.86a1.09,1.09,0,0,0,0,.18c0,.39,0,.79.06,1.18v0c0,.26,0,.52.06.77,0,0,0,0,0,0,0,.26,0,.52.07.78s.05.52.09.78.06.52.1.78.07.52.12.77a2.54,2.54,0,0,0,0,.29,2.5,2.5,0,0,0,.05.29,1.84,1.84,0,0,0,0,.25c0,.23.07.46.12.68a2.61,2.61,0,0,0,.06.27c0,.08,0,.15,0,.23a0,0,0,0,0,0,0c0,.12,0,.25.08.38s.08.39.13.58a.13.13,0,0,0,0,.06c0,.19.09.38.14.56s.1.43.16.64a5.12,5.12,0,0,0,.15.56l.09.33a.65.65,0,0,0,0,.13.36.36,0,0,0,0,.11h0s0,0,0,0v0c.05.23.12.46.19.68l.12.38c.09.29.19.57.29.85a1.09,1.09,0,0,0,0,.17h0c0,.08.05.15.07.22s.15.41.23.61.06.18.1.27.12.33.19.49.21.55.33.82a3.79,3.79,0,0,0,.18.42l0,.08,0,.12c.12.28.25.56.38.84l.18.39.1.21.24.49c.26.53.53,1.05.82,1.56l.09.18a1.49,1.49,0,0,0,.14.24s0,0,0,.06a4.25,4.25,0,0,0,.27.46.75.75,0,0,0,.07.12.36.36,0,0,0,0,.09l.18.3h0v0c.15.24.3.48.46.71s.29.47.44.7a2.43,2.43,0,0,0,.2.28c.17.27.35.54.55.8l.23.33.15.21c.06.09.13.17.2.26l.06.08c.26.33.5.67.76,1a.53.53,0,0,0,.1.12,2.61,2.61,0,0,0,.22.27l.18.22.08.08a1.46,1.46,0,0,0,.16.21c.13.17.27.33.41.49l.31.36.08.08a.27.27,0,0,0,.07.08l.43.48.16.17c.4.43.81.85,1.22,1.26l.77.74.5.47.13.12.95.84.07,0q.38.33.75.63s0,0,0,0l.44.35.06.05.55.43.79.59c.19.14.37.28.57.41s.49.35.74.51.42.3.64.44l.07,0,.89.56.53.32c.39.24.78.47,1.18.69l.12.07.11.06.42.22,1.08.57.23.12.16.08c.38.18.75.36,1.14.53s.82.37,1.24.54l.09,0Z" />
      <path class="BUNTAI_RED_PANDA_OUTFIT_BUNTAI_RED_PANDA_OUTFIT_41_cls-4" d="M231.63,411.22a60.12,60.12,0,0,1,.77-12.5h-5.48C223.81,417.2,225.32,437,242,449a88.36,88.36,0,0,0,22.58,3.61L251,445.84C240.69,441.84,232.61,428,231.63,411.22Z" />
      <path class="BUNTAI_RED_PANDA_OUTFIT_BUNTAI_RED_PANDA_OUTFIT_41_cls-4" d="M218,398.72a60.09,60.09,0,0,1,.76,12.5c-1,16.82-9.05,30.62-19.36,34.62l-13.56,5.09A151,151,0,0,0,208.45,449c16.67-12,18.18-31.81,15.06-50.29Z" />
      <path class="BUNTAI_RED_PANDA_OUTFIT_BUNTAI_RED_PANDA_OUTFIT_41_cls-4" d="M135.61,378.8h0l-.32-.23h0l-.08-.07-.14-.11-.09-.07-1-.76q-2-1.53-3.93-3.24c-.62-.55-1.22-1.12-1.81-1.7l0,0c-.59-.58-1.17-1.18-1.74-1.79s-1.31-1.45-1.93-2.2c-.47-.55-.92-1.12-1.35-1.69-.77-1-1.51-2-2.2-3.11-.4-.61-.78-1.22-1.15-1.85a41.42,41.42,0,0,1-2.17-4.25q-.37-.85-.72-1.74c-.12-.3-.24-.6-.34-.91a55.83,55.83,0,0,1,6.59-3.72,78.82,78.82,0,0,0,11.37,25c.34.5.69,1,1,1.47h0c0,.24,0,.48,0,.72a2.32,2.32,0,0,0,0,.24Z" />
      <path class="BUNTAI_RED_PANDA_OUTFIT_BUNTAI_RED_PANDA_OUTFIT_41_cls-4" d="M330.39,362.34l-.08.13c-.22.36-.44.72-.67,1.08a50.68,50.68,0,0,1-6,7.62c-.32.35-.66.69-1,1-.68.68-1.37,1.34-2.08,2a61.87,61.87,0,0,1-5.72,4.6h0c0-.32,0-.64,0-1v0h0a78.2,78.2,0,0,0,10.58-20.45A62.9,62.9,0,0,1,330.39,362.34Z" />
      <path class="BUNTAI_RED_PANDA_OUTFIT_BUNTAI_RED_PANDA_OUTFIT_41_cls-4" d="M271.1,324.76l-1.8.6c-.77.25-1.55.51-2.34.75l-.56.18-2.11.64-2.13.62c-1,.29-2,.56-3,.83l-2.6.69C248.8,331,240.93,333,233,333.41l.13.08.08.06,0,0,.11.08.13.08v0l0,0,.22.16c.17.11.36.25.58.42l.09.07c.25.18.52.4.82.64l.22.19.23.19a6.2,6.2,0,0,1,.48.43c.33.29.67.6,1,.94l.14.13.13.13.26.26h0c.45.45.91.93,1.36,1.46l.28.32.33.4a1.13,1.13,0,0,0,.1.13l.11.13.26.34.16.2.11.16c.17.21.32.43.47.65s.2.29.3.45l.08.13c.23.34.44.69.65,1.05s.27.47.4.72l.06.1.1.2c.11.21.22.43.32.65s.11.22.15.33a2.65,2.65,0,0,1,.18.42,2.44,2.44,0,0,1,.1.24,1.48,1.48,0,0,1,.12.29l.11.27,0,.09.21.61a2.25,2.25,0,0,1,.08.24,2,2,0,0,1,.07.23h0l0,.11c.08.26.15.52.21.79a.13.13,0,0,1,0,.06l0,.12a.14.14,0,0,1,0,.06l0,.1a1.55,1.55,0,0,0,0,.21.17.17,0,0,0,0,.07.58.58,0,0,1,0,.14.11.11,0,0,1,0,.08,2,2,0,0,1,.08.43,0,0,0,0,1,0,0,2,2,0,0,1,0,.26.58.58,0,0,1,0,.19,1,1,0,0,1,0,.18s0,.08,0,.12h0s0,0,0,0c0,.21,0,.43.06.65s0,.47,0,.71a14,14,0,0,1,0,1.45v0c0,.13,0,.25,0,.38a.53.53,0,0,0,0,.13l-.06.62c0,.27-.06.53-.1.79s-.09.53-.14.79-.08.4-.13.6-.17.68-.27,1c0,.16-.09.32-.13.48s-.09.32-.14.48l-.06.2c-.17.58-.36,1.17-.54,1.78s-.42,1.37-.64,2.07L241,366.67l-.36,1.13c-.13.37-.25.75-.37,1.14-.25.77-.5,1.54-.75,2.33l-.36,1.12c-.37,1.16-.74,2.35-1.11,3.55-.1.31-.2.62-.29.93l-.12.41c-.25.82-.5,1.64-.74,2.47-.11.34-.21.69-.31,1.05s-.22.73-.32,1.1l-.09.33h0c0,.18-.09.35-.14.52-.13.45-.26.91-.38,1.37a1.33,1.33,0,0,0,0,.19c-.1.33-.18.66-.27,1-.05.17-.09.34-.13.51s-.09.32-.13.49a.47.47,0,0,0,0,.17l0,.12,0,.13a.19.19,0,0,0,0,.08.27.27,0,0,0,0,.12c-.19.74-.38,1.48-.55,2.22-.27,1.07-.52,2.15-.75,3.22-.18.8-.34,1.61-.5,2.41h-5.44c2.55-12.57,6.94-24.19,9.7-31.94.16-.44.3-.87.43-1.3s.26-.85.37-1.27c.16-.59.3-1.17.41-1.74.05-.24.1-.47.14-.71.07-.41.13-.79.18-1.18s.1-.77.13-1.15.06-.75.08-1.11a23.51,23.51,0,0,0-.07-3.16l-.09-.81-.06-.45c0-.12,0-.25-.05-.37a20.39,20.39,0,0,0-.55-2.45.28.28,0,0,0,0-.12h0c-.06-.19-.11-.39-.17-.57s-.12-.38-.19-.56-.19-.55-.3-.81a1.09,1.09,0,0,0-.09-.23c-.13-.34-.28-.68-.43-1s-.33-.71-.51-1.05-.35-.64-.53-.95-.38-.62-.57-.92c-.07-.12-.15-.24-.23-.36l-.11-.15a25.44,25.44,0,0,0-3.08-3.69c-.15-.16-.31-.31-.47-.46-.33-.32-.66-.61-1-.87l-.43-.36a16.73,16.73,0,0,0-1.53-1.15l-.19-.13-.4-.26h-.22c-.59,0-1.2-.06-1.79-.1l-.8-.09-.8.09c-.6,0-1.21.08-1.8.1h-.23l-.09.06a2,2,0,0,0-.3.19l-.17.12-.07,0-.07.05-.13.1h0c-.29.2-.66.47-1.07.81a3.15,3.15,0,0,0-.3.24c-.39.32-.82.7-1.27,1.12l-.49.49-.51.51-.14.15c-.22.23-.44.48-.66.73s-.66.77-1,1.19c-.16.2-.31.4-.46.62s-.3.42-.44.64-.32.48-.47.72-.37.63-.55,1-.42.78-.62,1.19l-.12.25,0,.08c-.24.52-.46,1.08-.68,1.64l-.1.27-.05.12c-.08.22-.15.45-.22.68-.16.49-.3,1-.43,1.49s-.23,1-.32,1.53c0,.3-.1.6-.13.91s-.05.43-.07.64l-.06.76,0,.73c0,.51,0,1,0,1.57,0,.26,0,.53,0,.8s0,.4,0,.59l.06.58c0,.18,0,.37.07.56,0,.35.1.7.17,1.05s.08.45.13.68c.11.63.26,1.26.44,1.91.11.42.23.84.37,1.27.06.22.13.43.2.65s.16.43.23.65c.18.48.35,1,.54,1.5.09.26.18.52.28.78.19.52.38,1.07.58,1.62l.15.43.14.42c.12.32.24.65.35,1s.18.51.28.77c.21.59.42,1.19.63,1.81,1.48,4.23,3,9,4.44,14.09,0,.12.07.23.1.35.2.74.4,1.49.59,2.25l.57,2.28c.37,1.54.72,3.09,1,4.66h-5.42c-.16-.83-.34-1.66-.52-2.49a1.46,1.46,0,0,0-.05-.2c0-.1-.05-.22-.08-.32a1.5,1.5,0,0,0-.06-.29s0,0,0-.05a.36.36,0,0,0,0-.11.08.08,0,0,0,0-.05.43.43,0,0,0,0-.11s0,0,0,0c-.08-.39-.17-.78-.27-1.16l-.12-.52,0-.13c-.37-1.53-.76-3.06-1.18-4.58h0l-.69-2.5c-.21-.73-.42-1.45-.64-2.18,0-.19-.11-.37-.16-.55l-.12-.44a5.76,5.76,0,0,1-.18-.59c-.12-.4-.24-.79-.37-1.19-.33-1.09-.66-2.17-1-3.23l-.18-.57-.06-.18c-.18-.59-.37-1.17-.55-1.74-.28-.89-.56-1.76-.84-2.62q-.56-1.72-1.08-3.39l-.7-2.17c-.14-.45-.29-.9-.43-1.35,0-.08-.05-.16-.07-.24l-.21-.66c-.09-.29-.19-.59-.27-.88l-.52-1.75c-.12-.4-.24-.8-.35-1.19s-.19-.69-.27-1c0-.1,0-.21-.07-.31-.09-.43-.17-.84-.22-1.26,0-.12,0-.23-.05-.35l0-.26a16.77,16.77,0,0,1-.1-1.85c0-.31,0-.63,0-.93a2.26,2.26,0,0,1,0-.27c0-.31.05-.61.09-.91s.1-.68.16-1,.13-.67.21-1,.18-.71.28-1,.16-.5.25-.75a2.09,2.09,0,0,1,.11-.3q.28-.78.63-1.5a.75.75,0,0,1,.08-.18q.19-.41.39-.78c.29-.56.61-1.1.94-1.61l.4-.62.1-.14c.12-.18.25-.36.38-.53a29.06,29.06,0,0,1,3.89-4.36c.34-.32.67-.61,1-.87l.46-.38.42-.34c.41-.33.77-.59,1.06-.8l.47-.33.22-.14.07,0c-7.94-.44-15.8-2.4-23.54-4.34q-5.16-1.31-10.14-2.87l.12-.08c.43-.28.85-.56,1.26-.85a3.34,3.34,0,0,0,1-1.07,11.33,11.33,0,0,0,1.31-3.92,138.5,138.5,0,0,0,34.94,8,6.41,6.41,0,0,0,1.31-.05l.23,0h0c.4-.05.81-.11,1.21-.14h.17c.39,0,.81.08,1.21.14h0l.3,0a6.07,6.07,0,0,0,.85.06l.41,0c2.66-.25,5.3-.58,7.94-1l1.13-.17c.47-.08.94-.15,1.4-.24l1.33-.23.32-.06,1.39-.27,1.09-.22c.91-.18,1.81-.38,2.7-.58l1.76-.41q3.33-.79,6.6-1.74l1.08-.33c.31-.1.62-.18.94-.29l1.92-.6c1.28-.41,2.56-.85,3.82-1.3l1.58-.57,2.46-.94.22-.08a3.87,3.87,0,0,0,.43,1.43C267.65,322,269.3,323.39,271.1,324.76Z" />
      <path class="BUNTAI_RED_PANDA_OUTFIT_BUNTAI_RED_PANDA_OUTFIT_41_cls-5" d="M206.67,386.91c-.18-.34-.91-.55-1.95-.55s-1.78.21-2,.55c-.51,1,.48,3.67,2,6.21C206.18,390.58,207.18,387.92,206.67,386.91Z" />
      <path class="BUNTAI_RED_PANDA_OUTFIT_BUNTAI_RED_PANDA_OUTFIT_41_cls-5" d="M190.5,395c-.17.11-.65.39-.65,1.71s.48,1.61.65,1.72c1.64,1,5.85-.19,9.56-1.72a23.89,23.89,0,0,0-7.86-2.06A3.38,3.38,0,0,0,190.5,395Z" />
      <path class="BUNTAI_RED_PANDA_OUTFIT_BUNTAI_RED_PANDA_OUTFIT_41_cls-5" d="M202.76,406.57c.18.34.91.55,2,.55s1.77-.21,1.95-.56c.51-1-.49-3.65-1.95-6.19C203.25,402.91,202.25,405.57,202.76,406.57Z" />
      <path class="BUNTAI_RED_PANDA_OUTFIT_BUNTAI_RED_PANDA_OUTFIT_41_cls-5" d="M243.77,406.56c.19.35.91.56,2,.56s1.77-.21,2-.55c.51-1-.49-3.66-2-6.2C244.26,402.91,243.26,405.56,243.77,406.56Z" />
      <path class="BUNTAI_RED_PANDA_OUTFIT_BUNTAI_RED_PANDA_OUTFIT_41_cls-5" d="M247.68,386.91c-.18-.34-.91-.55-2-.55s-1.77.21-2,.55c-.51,1,.49,3.67,2,6.21C247.19,390.58,248.19,387.92,247.68,386.91Z" />
      <path class="BUNTAI_RED_PANDA_OUTFIT_BUNTAI_RED_PANDA_OUTFIT_41_cls-5" d="M259.93,398.45c.18-.1.66-.39.66-1.71s-.48-1.6-.66-1.71a3.32,3.32,0,0,0-1.69-.35,23.89,23.89,0,0,0-7.86,2.06C254.1,398.27,258.31,399.42,259.93,398.45Z" />
      <path class="BUNTAI_RED_PANDA_OUTFIT_BUNTAI_RED_PANDA_OUTFIT_41_cls-5" d="M218.87,408.62c0,.88,0,1.75-.07,2.6-1,16.83-9.05,30.62-19.37,34.62l-2.85,1.07-10.7,4h0c-2,0-4.07,0-6.19-.05l-1.33-.05-.62,0-.69,0-1.7-.1-1.35-.1h-.06l-1.65-.13-.37,0h0l-.23,0h-.06l-.57-.06c-.4,0-.81-.08-1.22-.14l-.45-.05-.92-.11c-.13,0-.26,0-.39-.06l-1.55-.22c-.89-.14-1.77-.28-2.66-.44l-.5-.1-1.17-.23-1.46-.31-1.41-.39c-.47-.14-.94-.28-1.4-.44s-.71-.23-1.06-.37l-.32-.11-1.08-.42-.28-.11-.37-.15-.44-.18-.8-.36-1.3-.61-.23-.12-1.08-.57c-.44-.23-.86-.47-1.29-.72a1.35,1.35,0,0,1-.26-.15l-.81-.49-.89-.56-.06,0-.09-.07c-.37-.24-.75-.49-1.11-.75a1.07,1.07,0,0,1-.19-.13c-.39-.27-.76-.55-1.14-.83l-.22-.17c-.37-.29-.73-.57-1.09-.87-1.1-.89-2.16-1.85-3.17-2.85-.32-.31-.63-.63-.94-1l-.28-.3-.16-.17-.43-.48a.27.27,0,0,1-.07-.08l-.08-.08-.31-.36-.33-.4c-.12-.13-.23-.27-.34-.4s-.26-.31-.38-.47L137,433l-.33-.43c-.11-.15-.23-.3-.33-.45-.59-.8-1.15-1.61-1.67-2.45-.16-.23-.31-.47-.46-.71v0h0c-.08-.13-.16-.26-.23-.39a.75.75,0,0,1-.07-.12,4.25,4.25,0,0,1-.27-.46l-.36-.65c-.6-1.08-1.14-2.19-1.63-3.32l0-.12,0-.08a3.79,3.79,0,0,1-.18-.42c-.12-.27-.23-.55-.33-.82s-.13-.33-.19-.49c-.14-.36-.27-.73-.4-1.1l-.14-.38c-.05-.17-.11-.34-.17-.52s-.07-.22-.1-.34l-.06-.16c-.07-.23-.14-.46-.2-.7,0,0,0,0,0,0h0c-.12-.38-.22-.75-.32-1.13,0-.12-.07-.24-.1-.36l-.09-.41c-.09-.32-.16-.65-.23-1,0-.06,0-.13-.05-.19l-.06-.31c-.1-.47-.19-.95-.27-1.43a5.4,5.4,0,0,1-.09-.58c-.17-1-.3-2.06-.38-3.11,0-.27-.05-.54-.07-.82,0-.45-.06-.91-.07-1.37s0-1,0-1.47a41.87,41.87,0,0,1,.25-4.75c.09-.77.2-1.54.32-2.31s.28-1.53.45-2.29h0c.07-.28.13-.57.2-.85s.18-.72.29-1.08c0-.12.06-.24.1-.36.13-.46.27-.92.41-1.38a.5.5,0,0,1,.05-.13l.12-.4c.08-.26.17-.53.26-.79s.19-.53.29-.8v0c.13-.38.27-.75.41-1.12l.18-.44c.18-.49.37-1,.57-1.45s.35-.86.53-1.29c.08-.18.15-.36.23-.55.2-.46.4-.91.59-1.37h0c.78-1.8,1.6-3.57,2.39-5.36.13-.27.25-.53.37-.8h0c.06-.13.12-.27.17-.4h0c-.2-.27-.41-.54-.6-.83h0c-.35-.48-.7-1-1-1.47a78.82,78.82,0,0,1-11.37-25c7.41-3.62,16.62-6.67,26.12-9.95,12.05-4.15,24.56-8.68,34.48-15.17q5,1.57,10.14,2.87c7.74,1.94,15.6,3.9,23.54,4.34l-.29.19-.47.33c-.48.34-1.16.85-1.94,1.52-.31.26-.64.55-1,.87l-.52.49-.53.53c-3.38,3.42-7.27,8.92-6.87,15.9,0,.13,0,.27,0,.4a.71.71,0,0,0,0,.14s0,.07,0,.11c0,.26.06.54.1.81h0a11,11,0,0,0,.23,1.25l.06.32c.08.34.17.68.27,1s.23.78.35,1.18l.52,1.76L208,362l.42,1.35.7,2.17c.56,1.77,1.15,3.59,1.75,5.47.15.47.31,1,.46,1.43.25.78.49,1.56.74,2.36s.41,1.33.62,2c.05.15.09.31.14.46.13.4.25.79.37,1.19l.3,1c.27.91.54,1.82.8,2.73l.69,2.5c.42,1.52.81,3.06,1.18,4.59l.15.65.12.49.15.67c.08.32.15.64.22,1a1.16,1.16,0,0,1,0,.18c.18.83.36,1.66.52,2.49h-9l.11-.19c0-.06.07-.13.11-.2s.15-.27.22-.41c.27-.51.53-1.05.77-1.61,0-.09.08-.18.11-.27l.07-.16c.06-.15.12-.29.17-.44h0a.49.49,0,0,0,0-.11,2,2,0,0,0,.11-.32,1.18,1.18,0,0,0,.1-.3,1.43,1.43,0,0,0,.09-.27c.07-.2.12-.4.17-.6a.29.29,0,0,0,0-.09l0-.06,0-.16s0,0,0,0a.83.83,0,0,0,0-.15.5.5,0,0,0,0-.12c0-.15.06-.3.08-.44l.06-.43a6.21,6.21,0,0,0,0-1.36c0-.15,0-.3,0-.45h0c0-.15-.05-.3-.09-.45s-.08-.3-.13-.44,0,0,0,0a1.8,1.8,0,0,0-.08-.21,2.41,2.41,0,0,0-.15-.33,4.42,4.42,0,0,0-.65-.94l-.23-.23a1.79,1.79,0,0,0-.25-.23,6.64,6.64,0,0,0-4.38-1.31h-1l-.24,0h0l-.36.05-.22,0-.41.09-.14,0-.13,0h-.09l-.07,0-.07,0-.15.05,0,0-.07,0-.32.14-.13.06-.11.06-.09.05-.11.06a.05.05,0,0,0,0,0h0l0,0,0,0a1.51,1.51,0,0,0-.26.18l-.15.11,0,0a.1.1,0,0,0-.05,0l-.27.24-.21.22a3.25,3.25,0,0,0-.3.37,3,3,0,0,0-.2.29c-.06.1-.12.19-.17.29a.84.84,0,0,0-.06.14,0,0,0,0,0,0,0,3.05,3.05,0,0,0-.13.32.36.36,0,0,0,0,.09.83.83,0,0,0-.06.21,4.7,4.7,0,0,0-.17.83,1,1,0,0,0,0,.17h0v0q0,.3,0,.6c0,.13,0,.27,0,.4s0,.08,0,.12v.07a.2.2,0,0,1,0,.07l0,.24a3.47,3.47,0,0,0,.06.45c0,.15.05.31.08.46s.09.41.15.62a10.74,10.74,0,0,0,.38,1.22c.07.21.15.41.23.61l.26.6h0l-.92-.33-.11,0-.1,0-.15-.05-.43-.13-.12,0H198l-.77-.22c-.27-.08-.55-.15-.82-.21s-.52-.13-.78-.18l-.53-.11c-.37-.08-.74-.12-1.12-.17l-.52-.06a11.66,11.66,0,0,0-1.18-.06c-.37,0-.72,0-1.07.05a6.62,6.62,0,0,0-2.74.84,4.92,4.92,0,0,0-.46.29,5.62,5.62,0,0,0-2.15,4.8c0,.2,0,.39,0,.58a2,2,0,0,0,0,.25c0,.2,0,.38.08.56l0,.16,0,.15c0,.06,0,.12,0,.17a.64.64,0,0,0,0,.07c0,.06,0,.12.05.18s.09.29.14.42h0s0,.08,0,.11l0,.07.11.24.06.11,0,0,0,.05a4.41,4.41,0,0,0,.43.66.57.57,0,0,0,.1.13.27.27,0,0,0,.07.08s0,0,0,0a1,1,0,0,0,.13.16h0a4,4,0,0,0,.37.35l.08.07.13.1.1.08.11.08.07.05.05,0,.22.14a3,3,0,0,0,.4.21h0a6.08,6.08,0,0,0,.64.25h0a5.26,5.26,0,0,0,.6.18h0l.05,0h.07l.17,0h.09l.16,0a6.39,6.39,0,0,0,1,.1h0l.52,0c.32,0,.64,0,1,0a5.41,5.41,0,0,0,.68-.07H194l.12,0s0,0,.05,0l.17,0h.07l.28,0,.28-.05.24,0c.61-.11,1.22-.26,1.83-.43s1-.29,1.5-.45l1.33-.46h0l-.18.42c-.13.31-.25.62-.36.94a10.16,10.16,0,0,0-.33,1.07c-.06.21-.11.41-.15.62s-.06.31-.08.46a3.47,3.47,0,0,0-.06.45l0,.24s0,.09,0,.14,0,.08,0,.12,0,.27,0,.4a2.68,2.68,0,0,0,0,.4,1,1,0,0,0,0,.24,5.54,5.54,0,0,0,.2,1,1.09,1.09,0,0,0,0,.17s0,0,0,0l0,.08a3.26,3.26,0,0,0,.2.48h0a3.35,3.35,0,0,0,.21.36l.16.23a5.51,5.51,0,0,0,.51.59,2,2,0,0,0,.21.19l0,0,.06.05.1.08a3.22,3.22,0,0,0,.36.24.41.41,0,0,0,.11.07,3.9,3.9,0,0,0,.35.19l.32.14.09,0,.51.17.13,0,.26.07.14,0,.11,0,.26.05.36.05h0l.36,0h.83c3.4,0,4.87-1.47,5.51-2.71,1.41-2.78-.26-6.8-1.87-9.64h9.7v0c.06.42.12.83.17,1.25,0,.27.08.55.11.83.08.57.14,1.13.2,1.69l.06.61v0c0,.45.08.9.11,1.34.07.75.11,1.49.13,2.23,0,.24,0,.48,0,.71C218.86,407.83,218.87,408.22,218.87,408.62Z" />
      <path class="BUNTAI_RED_PANDA_OUTFIT_BUNTAI_RED_PANDA_OUTFIT_41_cls-5" d="M322.43,405.43c0,.39,0,.77,0,1.16v0c0,.42,0,.84,0,1.26s0,.58,0,.88a.24.24,0,0,1,0,.12c0,.34,0,.67-.07,1-.05.74-.12,1.48-.22,2.21,0,.35-.09.69-.14,1a.36.36,0,0,1,0,.1c-.05.34-.1.69-.17,1a42.74,42.74,0,0,1-2.08,7.62c-.18.5-.38,1-.58,1.48l0,.07c-.23.55-.47,1.1-.72,1.64s-.43.88-.65,1.32-.45.87-.69,1.3-.48.85-.73,1.27l-.09.13-.18.29,0,0-.39.63-.22.33-.22.33q-.21.33-.45.66c-.15.21-.3.43-.46.64-.3.41-.6.81-.92,1.21l-.15.2-.5.6,0,0c-.16.19-.32.39-.49.58-.37.44-.76.88-1.16,1.3s-.71.76-1.09,1.13a.47.47,0,0,1-.1.1c-.29.3-.58.58-.88.86l-.67.61-.27.25a43.55,43.55,0,0,1-4.43,3.46l-.52.34-.46.31-.46.3-.09.05c-.28.18-.57.36-.86.52,0,0,0,0-.05,0-.27.17-.56.33-.84.48s-.59.35-.89.5l-.14.08-.85.43-.08,0-.93.45-.27.12-.42.2-.43.19-1,.43-.28.11-1.08.42q-.69.26-1.38.48c-.46.16-.93.3-1.4.44s-.93.27-1.4.39h0c-.94.38-1.89.73-2.84,1l-1,.32-.34.1c-.81.25-1.62.47-2.43.67-.53.14-1.06.26-1.59.38-1.12.25-2.23.46-3.34.64-.48.08-1,.15-1.45.21l-.52.08-.89.11c-.77.09-1.53.16-2.29.23l-1.55.11-1.4.07-.39,0c-.92,0-1.83.05-2.73.05s-1.61,0-2.4,0l-3.44-1.72h0l-8-4L251,445.84a19.69,19.69,0,0,1-2.92-1.43c-.28-.16-.56-.34-.83-.52a.41.41,0,0,1-.11-.07l-.79-.55c-.3-.21-.59-.43-.88-.67l-.75-.62-.28-.25c-.18-.15-.35-.31-.53-.49-.62-.58-1.23-1.21-1.82-1.87-.25-.28-.49-.56-.73-.85-.51-.62-1-1.27-1.49-1.95q-.45-.63-.87-1.29-.11-.15-.21-.33c-.28-.43-.54-.88-.8-1.33s-.59-1-.87-1.58-.48-.94-.71-1.43c-.08-.16-.16-.32-.23-.49-.22-.47-.43-1-.63-1.45s-.48-1.17-.7-1.78-.44-1.21-.64-1.83-.4-1.25-.58-1.89c-.24-.84-.45-1.7-.65-2.57-.14-.57-.26-1.15-.38-1.74-.19-1-.36-2-.5-3-.07-.51-.14-1-.19-1.53-.11-1-.2-2.07-.26-3.11l-.06-1.28c0-.46,0-.93,0-1.41s0-1,0-1.51c0-.26,0-.52,0-.79s0-.53,0-.79v-.09c0-.11,0-.22,0-.33,0-.43.06-.85.09-1.28a.76.76,0,0,0,0-.15c0-.31.06-.62.1-.93s0-.33.05-.5v-.06a.52.52,0,0,1,0-.11c.09-.84.2-1.68.33-2.54l0-.22h0c0-.17.05-.33.07-.51h9.69c-1.61,2.84-3.28,6.86-1.87,9.64.64,1.24,2.11,2.71,5.51,2.71h.87l.55-.07h.07a3.11,3.11,0,0,0,.44-.08h.06a2.11,2.11,0,0,0,.36-.09l.18,0a5.6,5.6,0,0,0,1.1-.46l.1,0,.06,0,.16-.1,0,0,.11-.08h0l.28-.21h0l0,0,0,0c.05-.05.11-.09.16-.15l.11-.12h0l0,0v0l.07-.07h0l.16-.2,0,0,.06-.08a1.07,1.07,0,0,0,.15-.22s0,0,0,0l.1-.15a1.71,1.71,0,0,0,.13-.23,3,3,0,0,0,.24-.56h0a4.93,4.93,0,0,0,.26-1.21,8.89,8.89,0,0,0-.32-3.07,10.74,10.74,0,0,0-.38-1.22c-.15-.41-.32-.82-.49-1.21h0l.68.24.51.17.2.07,1.2.36.61.16.65.16.32.08.13,0,.42.08h.06a6.45,6.45,0,0,0,.73.11l.24,0c.24,0,.48.06.72.08l.24,0h.1l.25,0h.84l.59,0a1.63,1.63,0,0,0,.31,0,7.35,7.35,0,0,0,.86-.14l.41-.1.45-.15.06,0h0a5.73,5.73,0,0,0,.83-.39,2.1,2.1,0,0,0,.33-.22l.1-.08.05,0a.16.16,0,0,0,.08-.06l.07-.06h0a.75.75,0,0,0,.14-.12l.05,0a1.29,1.29,0,0,0,.17-.16l.12-.11.24-.28a1.88,1.88,0,0,0,.18-.24l.1-.15a1.63,1.63,0,0,0,.11-.17.83.83,0,0,0,.09-.16l0-.08a.75.75,0,0,0,.07-.12l.13-.27s0,0,0-.05l.09-.24,0-.1,0-.07a3.37,3.37,0,0,0,.1-.34c0-.14.07-.28.1-.43a.61.61,0,0,0,0-.13v-.05s0,0,0,0h0s0-.09,0-.13v0a1,1,0,0,0,0-.18.09.09,0,0,1,0,0l0-.34c0-.19,0-.38,0-.58s0-.27,0-.41a.49.49,0,0,0,0-.12c0-.14,0-.26,0-.39a.09.09,0,0,0,0-.05.88.88,0,0,0,0-.16c0-.15,0-.29-.07-.43a2.82,2.82,0,0,0-.07-.31l-.12-.4,0-.08-.06-.17a.49.49,0,0,0-.06-.17l0,0-.06-.13a1.22,1.22,0,0,0-.07-.17.13.13,0,0,1,0-.05l0-.05,0-.05s0,0,0,0a.75.75,0,0,0-.07-.12,1.37,1.37,0,0,0-.13-.2,1,1,0,0,0-.11-.17h0l-.06-.08,0,0-.07-.08c-.05-.06-.1-.13-.16-.19a.43.43,0,0,0-.11-.12,2.28,2.28,0,0,0-.22-.22,2,2,0,0,0-.22-.2l-.23-.17,0,0-.07-.05-.12-.07-.11-.08-.11-.06-.5-.26-.3-.12a6,6,0,0,0-.85-.27l-.24-.05h0l-.16,0a4.43,4.43,0,0,0-.65-.09,3.15,3.15,0,0,0-.44,0c-.24,0-.49,0-.74,0a6.26,6.26,0,0,0-.86,0l-.58.05-.52.07-.13,0-.24,0-.23,0-.45.08-.53.11a1.55,1.55,0,0,0-.23.06h0l-.27.06-.31.08q-.5.12-1,.27l-.31.09-.47.15-.48.15c-.31.1-.61.22-.91.33h0c.17-.4.34-.8.49-1.21a10.74,10.74,0,0,0,.38-1.22,8.89,8.89,0,0,0,.32-3.07,4.93,4.93,0,0,0-.26-1.21h0a3,3,0,0,0-.24-.56,4.36,4.36,0,0,0-.37-.59.1.1,0,0,0,0-.05l-.19-.24,0-.06h0l-.07-.08-.15-.15-.23-.22h0a.46.46,0,0,0-.07-.07l-.12-.09-.1-.07-.12-.08-.06,0-.12-.09h0l-.19-.11-.1-.05,0,0a6.17,6.17,0,0,0-.77-.31l0,0-.13,0h-.06a2.24,2.24,0,0,0-.37-.1,5.11,5.11,0,0,0-.83-.15h-.08a.39.39,0,0,0-.15,0h0l-.33,0h-.69a9.84,9.84,0,0,0-1.62.13l-.31.06a5.42,5.42,0,0,0-.72.19h0a5.38,5.38,0,0,0-.77.31l-.18.1-.28.16a3.72,3.72,0,0,0-.48.35,1.79,1.79,0,0,0-.25.23,2.5,2.5,0,0,0-.23.23l-.09.1a4.9,4.9,0,0,0-.56.84,2.55,2.55,0,0,0-.13.29.36.36,0,0,1,0,.09s0,0,0,0,0,0,0,0,0,.11-.07.17-.05.15-.07.22,0,0,0,.06h0a.09.09,0,0,0,0,.05s0,0,0,0a.08.08,0,0,0,0,.07l0,.08a2.93,2.93,0,0,0,0,.29h0c0,.05,0,.11,0,.16a.77.77,0,0,0,0,.15.17.17,0,0,1,0,.07V387a.31.31,0,0,0,0,.1c0,.15,0,.31,0,.48s0,.21,0,.31,0,.21,0,.32l0,.31,0,.23s0,.06,0,.09,0,0,0,.06l.06.31a13.94,13.94,0,0,0,.77,2.57c.17.44.37.88.57,1.31l.24.48.44.84c.08.13.15.26.22.39h-9c.16-.8.32-1.61.5-2.41.23-1.07.48-2.15.75-3.22.17-.74.36-1.48.55-2.22a.27.27,0,0,1,0-.12l0-.08,0-.13,0-.12a.47.47,0,0,1,0-.17c0-.17.08-.33.13-.49s.08-.34.13-.51c.09-.33.17-.66.27-1a1.33,1.33,0,0,1,0-.19c.12-.46.25-.92.38-1.37l.15-.52.09-.33.32-1.1c.1-.36.2-.71.31-1.05.24-.83.49-1.65.74-2.47l.12-.41c.09-.31.19-.62.29-.93.37-1.2.74-2.39,1.11-3.55l.36-1.12c.25-.79.5-1.56.75-2.33.12-.39.24-.77.37-1.14l.36-1.13,1.39-4.35c.22-.7.44-1.39.64-2.07s.37-1.2.54-1.78l.06-.2c.09-.33.18-.64.27-1s.19-.69.27-1,.09-.4.13-.6.1-.53.14-.79.07-.52.1-.79,0-.42.06-.62a.53.53,0,0,1,0-.13c0-.13,0-.25,0-.38v0a14,14,0,0,0,0-1.45c0-.24,0-.47,0-.71s0-.44-.06-.65v0h0s0-.08,0-.12a1,1,0,0,0,0-.18.58.58,0,0,0,0-.19,2.5,2.5,0,0,0,0-.29,2,2,0,0,0-.08-.43.11.11,0,0,0,0-.08.58.58,0,0,0,0-.14.17.17,0,0,1,0-.07l-.06-.25a.13.13,0,0,0,0-.06.14.14,0,0,0,0-.06l0-.12a.13.13,0,0,0,0-.06c-.06-.27-.13-.53-.21-.79l0-.12a2,2,0,0,0-.07-.23,2.25,2.25,0,0,0-.08-.24l-.21-.61,0-.09-.11-.27a1.48,1.48,0,0,0-.12-.29,1.22,1.22,0,0,0-.1-.24,2.65,2.65,0,0,0-.18-.42c0-.11-.1-.22-.15-.33s-.21-.44-.32-.65l-.1-.2-.06-.1a6.3,6.3,0,0,0-.4-.72c-.21-.36-.42-.71-.65-1.05,0,0-.05-.08-.07-.13h0q-.15-.24-.3-.45c-.15-.22-.3-.44-.47-.65l-.11-.16-.16-.2-.26-.34-.11-.13a1.13,1.13,0,0,1-.1-.13l-.33-.4-.28-.32c-.45-.53-.91-1-1.36-1.46h0l-.26-.26-.13-.13-.14-.13c-.35-.34-.69-.65-1-.94a6.2,6.2,0,0,0-.48-.43l-.23-.19-.22-.19c-.3-.24-.57-.46-.82-.64l-.09-.07c-.22-.17-.41-.31-.58-.42l-.22-.16-.05,0-.13-.08-.11-.08-.08-.06,0,0-.13-.08c8-.43,15.82-2.4,23.56-4.34l2.6-.69c1-.27,2-.54,3-.83l2.13-.62,2.11-.64.56-.18c.79-.24,1.57-.5,2.34-.75l1.8-.6c14.66,11.14,38.8,22,38.8,22a69.53,69.53,0,0,1,15.55,10.64,78.2,78.2,0,0,1-10.58,20.45h0v0c-.2.29-.4.56-.61.83h0c.06.13.11.27.17.4h0c.13.27.24.54.37.8.79,1.79,1.61,3.56,2.39,5.36h0l.59,1.37c.77,1.8,1.49,3.6,2.13,5.43l.42,1.28c.18.54.34,1.07.49,1.61.08.26.15.52.22.78s.09.35.14.53l.06.21c.07.28.12.57.2.85s.16.76.23,1.14.13.67.18,1,.11.68.16,1,.08.56.11.83c0,.11,0,.22,0,.33,0,.29.07.59.09.88s.07.68.09,1,.05.69.06,1S322.43,405.14,322.43,405.43Z" />
      <path class="BUNTAI_RED_PANDA_OUTFIT_BUNTAI_RED_PANDA_OUTFIT_41_cls-6" d="M222.42,333.48h0c-1.66,0-3.31,0-5-.07-7.94-.44-15.8-2.4-23.54-4.34q-5.16-1.31-10.14-2.87" />
      <path class="BUNTAI_RED_PANDA_OUTFIT_BUNTAI_RED_PANDA_OUTFIT_41_cls-6" d="M265.77,319.24l-.22.08-2.46.94-1.58.57c-1.26.45-2.54.89-3.82,1.3l-1.92.6c-.32.11-.63.19-.94.29l-1.08.33q-3.27.94-6.6,1.74l-1.76.41c-.89.2-1.79.4-2.7.58l-1.09.22-1.39.27-.32.06-1.33.23c-.46.09-.93.16-1.4.24l-1.13.17c-2.64.39-5.28.63-7.94.88l-1.26.07c-1.17,0-2.33,0-3.17,0l-1.31-.06a139.14,139.14,0,0,1-34.93-7.89" />
      <path class="BUNTAI_RED_PANDA_OUTFIT_BUNTAI_RED_PANDA_OUTFIT_41_cls-6" d="M136,379.09c-.14-.1-.27-.19-.39-.29h0l-.32-.23h0l-.08-.07-.14-.11-.09-.07-1-.76q-2-1.53-3.93-3.24c-.62-.55-1.22-1.12-1.81-1.7l0,0c-.59-.58-1.17-1.18-1.74-1.79s-1.31-1.45-1.93-2.2c-.47-.55-.92-1.12-1.35-1.69-.77-1-1.51-2-2.2-3.11-.4-.61-.78-1.22-1.15-1.85a41.42,41.42,0,0,1-2.17-4.25q-.39-.85-.72-1.74c-.12-.3-.24-.6-.34-.91" />
      <path class="BUNTAI_RED_PANDA_OUTFIT_BUNTAI_RED_PANDA_OUTFIT_41_cls-6" d="M136.18,378.67c-.2-.27-.41-.54-.6-.83h0c-.35-.48-.7-1-1-1.47a78.82,78.82,0,0,1-11.37-25" />
      <path class="BUNTAI_RED_PANDA_OUTFIT_BUNTAI_RED_PANDA_OUTFIT_41_cls-6" d="M135.65,379.88c0-.36,0-.72,0-1.09s0-.64,0-1v0q-.32-9.36-.64-18.71" />
      <path class="BUNTAI_RED_PANDA_OUTFIT_BUNTAI_RED_PANDA_OUTFIT_41_cls-6" d="M133.25,385.25h0c-2.6,1.08-6.7,2.49-9.51,2-4.39-.81-5.09-3.37-8.22-2.75s-5.37,3.38-7.87,1-6.06-.18-8.78.22-2,1.08-5.5-.3a5,5,0,0,0-.62-.2h0" />
      <path class="BUNTAI_RED_PANDA_OUTFIT_BUNTAI_RED_PANDA_OUTFIT_41_cls-6" d="M129,397.31h-.13l-.38,0h-.07l-.82,0h-.28l-.72,0h-.4l-1.74.06h-.2l-1.71,0-.85,0c-.61,0-1.25,0-1.91,0H119a184.64,184.64,0,0,1-26.78-1.48" />
      <path class="BUNTAI_RED_PANDA_OUTFIT_BUNTAI_RED_PANDA_OUTFIT_41_cls-6" d="M140.74,365.69a66.78,66.78,0,0,1-4.55,13c-.06.13-.11.26-.18.4l-.36.8h0c-.79,1.78-1.61,3.56-2.39,5.35a69.23,69.23,0,0,0-4,11.21c-.08.29-.14.57-.2.86h0A43.42,43.42,0,0,0,134.16,429a44.2,44.2,0,0,0,26.56,19.69,111,111,0,0,0,25.16,2.29A151,151,0,0,0,208.45,449c16.67-12,18.18-31.81,15.06-50.29" />
      <path class="BUNTAI_RED_PANDA_OUTFIT_BUNTAI_RED_PANDA_OUTFIT_41_cls-6" d="M222.78,394.77c-2.54-12.56-6.93-24.19-9.69-31.94-7.05-19.8,9.34-29.36,9.34-29.36H228s16.38,9.56,9.33,29.36c-2.76,7.75-7.14,19.38-9.69,31.94" />
      <path class="BUNTAI_RED_PANDA_OUTFIT_BUNTAI_RED_PANDA_OUTFIT_41_cls-6" d="M185.86,450.94h0l13.56-5.09c10.31-4,18.39-17.8,19.36-34.62a60.09,60.09,0,0,0-.76-12.5" />
      <path class="BUNTAI_RED_PANDA_OUTFIT_BUNTAI_RED_PANDA_OUTFIT_41_cls-6" d="M217.45,333.4s-15.09,9.42-10.9,23.91c2.91,10.1,8.2,24.17,10.8,37.46" />
      <path class="BUNTAI_RED_PANDA_OUTFIT_BUNTAI_RED_PANDA_OUTFIT_41_cls-6" d="M202.76,386.91c.18-.34.91-.55,2-.55s1.77.21,1.95.55c.51,1-.49,3.67-1.95,6.21C203.24,390.58,202.25,387.92,202.76,386.91Z" />
      <path class="BUNTAI_RED_PANDA_OUTFIT_BUNTAI_RED_PANDA_OUTFIT_41_cls-6" d="M190.5,398.46c-.17-.11-.65-.4-.65-1.72s.48-1.6.65-1.71a3.38,3.38,0,0,1,1.7-.35,23.89,23.89,0,0,1,7.86,2.06C196.35,398.27,192.14,399.42,190.5,398.46Z" />
      <path class="BUNTAI_RED_PANDA_OUTFIT_BUNTAI_RED_PANDA_OUTFIT_41_cls-6" d="M206.67,406.56c-.18.35-.91.56-1.95.56s-1.78-.21-2-.55c-.51-1,.49-3.66,2-6.2C206.18,402.91,207.18,405.56,206.67,406.56Z" />
      <path class="BUNTAI_RED_PANDA_OUTFIT_BUNTAI_RED_PANDA_OUTFIT_41_cls-6" d="M208.36,398.72c1.61,2.84,3.27,6.86,1.86,9.63-.63,1.24-2.11,2.72-5.5,2.72s-4.87-1.48-5.51-2.72c-1.06-2.06-.39-4.83.68-7.28a23.4,23.4,0,0,1-7.65,1.65,7.33,7.33,0,0,1-3.77-.88,6.29,6.29,0,0,1,0-10.2c2.9-1.71,7.61-.63,11.42.77-1.07-2.45-1.74-5.21-.68-7.28.64-1.24,2.1-2.71,5.51-2.71s4.87,1.47,5.5,2.71c1.42,2.78-.26,6.81-1.86,9.64" />
      <path class="BUNTAI_RED_PANDA_OUTFIT_BUNTAI_RED_PANDA_OUTFIT_41_cls-6" d="M271.1,324.76l-1.8.6c-.77.25-1.55.51-2.34.75l-.56.18-2.11.64-2.13.62c-1,.29-2,.56-3,.83l-2.6.69C248.8,331,240.93,333,233,333.41c-1.65.09-3.29.11-4.95.07h0" />
      <path class="BUNTAI_RED_PANDA_OUTFIT_BUNTAI_RED_PANDA_OUTFIT_41_cls-6" d="M314.42,379.09l.4-.29h0a61.87,61.87,0,0,0,5.72-4.6c.71-.64,1.4-1.3,2.08-2,.34-.34.68-.69,1-1a50.68,50.68,0,0,0,6-7.62c.23-.36.45-.71.67-1.08l.08-.13" />
      <path class="BUNTAI_RED_PANDA_OUTFIT_BUNTAI_RED_PANDA_OUTFIT_41_cls-6" d="M325.45,357.36a78.2,78.2,0,0,1-10.58,20.45h0v0c-.2.29-.4.56-.61.83" />
      <path class="BUNTAI_RED_PANDA_OUTFIT_BUNTAI_RED_PANDA_OUTFIT_41_cls-6" d="M315.51,359.1q-.33,9.34-.64,18.71v0l0,1c0,.37,0,.73,0,1.09" />
      <path class="BUNTAI_RED_PANDA_OUTFIT_BUNTAI_RED_PANDA_OUTFIT_41_cls-6" d="M346.94,385.76l-.37,0c-2.72-.4-3.27-2.57-5.78-.22s-4.73-.41-7.87-1-1.83,1.94-6.21,2.75c-2.82.52-6.92-.89-9.52-2h0" />
      <path class="BUNTAI_RED_PANDA_OUTFIT_BUNTAI_RED_PANDA_OUTFIT_41_cls-6" d="M348.31,396.28a128.33,128.33,0,0,1-26.39,1.07l-.48,0h0" />
      <path class="BUNTAI_RED_PANDA_OUTFIT_BUNTAI_RED_PANDA_OUTFIT_41_cls-6" d="M264.58,452.62c7.83.23,16.76-.62,25.14-4A44.17,44.17,0,0,0,314.25,432c.73-1,1.41-2,2-3.05a43.45,43.45,0,0,0,5.15-31.64c-.07-.29-.13-.57-.2-.86a70.19,70.19,0,0,0-4.05-11.21c-.78-1.79-1.6-3.57-2.39-5.35h0c-.13-.27-.25-.53-.37-.8l-.18-.4a66.78,66.78,0,0,1-4.55-13" />
      <path class="BUNTAI_RED_PANDA_OUTFIT_BUNTAI_RED_PANDA_OUTFIT_41_cls-6" d="M226.92,398.72C223.81,417.2,225.32,437,242,449a88.36,88.36,0,0,0,22.58,3.61" />
      <path class="BUNTAI_RED_PANDA_OUTFIT_BUNTAI_RED_PANDA_OUTFIT_41_cls-6" d="M264.58,452.62h0L251,445.84c-10.31-4-18.39-17.8-19.37-34.62a60.12,60.12,0,0,1,.77-12.5" />
      <path class="BUNTAI_RED_PANDA_OUTFIT_BUNTAI_RED_PANDA_OUTFIT_41_cls-6" d="M233,333.4s15.08,9.42,10.9,23.91c-2.91,10.1-8.21,24.17-10.8,37.46" />
      <path class="BUNTAI_RED_PANDA_OUTFIT_BUNTAI_RED_PANDA_OUTFIT_41_cls-6" d="M245.73,393.12c-1.47-2.54-2.47-5.2-2-6.21.19-.34.91-.55,2-.55s1.77.21,2,.55C248.19,387.92,247.19,390.58,245.73,393.12Z" />
      <path class="BUNTAI_RED_PANDA_OUTFIT_BUNTAI_RED_PANDA_OUTFIT_41_cls-6" d="M250.38,396.74a23.89,23.89,0,0,1,7.86-2.06,3.32,3.32,0,0,1,1.69.35c.18.11.66.39.66,1.71s-.48,1.61-.66,1.71C258.31,399.42,254.1,398.27,250.38,396.74Z" />
      <path class="BUNTAI_RED_PANDA_OUTFIT_BUNTAI_RED_PANDA_OUTFIT_41_cls-6" d="M245.73,400.37c1.46,2.54,2.46,5.2,2,6.2-.18.34-.91.55-2,.55s-1.77-.21-2-.56C243.26,405.56,244.26,402.91,245.73,400.37Z" />
      <path class="BUNTAI_RED_PANDA_OUTFIT_BUNTAI_RED_PANDA_OUTFIT_41_cls-6" d="M242.09,394.77c-1.61-2.83-3.29-6.86-1.87-9.64.64-1.24,2.1-2.71,5.51-2.71s4.87,1.47,5.5,2.71c1.06,2.07.4,4.83-.68,7.28,3.81-1.4,8.52-2.48,11.42-.77a6.29,6.29,0,0,1,0,10.2,7.34,7.34,0,0,1-3.78.88,23.45,23.45,0,0,1-7.64-1.65c1.08,2.45,1.74,5.22.68,7.28-.63,1.24-2.1,2.72-5.5,2.72s-4.87-1.48-5.51-2.72c-1.41-2.77.25-6.79,1.86-9.63" />
      <path class="BUNTAI_RED_PANDA_OUTFIT_BUNTAI_RED_PANDA_OUTFIT_41_cls-6" d="M87.86,424s14.16-26.31,18.25-26.39-4.64,26.95-10.77,36.32" />
      <path class="BUNTAI_RED_PANDA_OUTFIT_BUNTAI_RED_PANDA_OUTFIT_41_cls-6" d="M129,397.31h0c-.34.81-11,26.65-13,36.61" />
      <line class="BUNTAI_RED_PANDA_OUTFIT_BUNTAI_RED_PANDA_OUTFIT_41_cls-6" x1="314.25" y1="432" x2="318.13" y2="442.11" />
      <path class="BUNTAI_RED_PANDA_OUTFIT_BUNTAI_RED_PANDA_OUTFIT_41_cls-6" d="M326.48,432s-3.55-34,3.25-31.52,14.53,36.58,14.53,36.58" />
      <path class="BUNTAI_RED_PANDA_OUTFIT_BUNTAI_RED_PANDA_OUTFIT_41_cls-6" d="M349.92,400.62l0,0a1.58,1.58,0,0,0-.22.29v0c-1.47,2.4.12,10.12.12,10.12" />
      <path class="BUNTAI_RED_PANDA_OUTFIT_BUNTAI_RED_PANDA_OUTFIT_41_cls-6" d="M242.09,394.77h3.64a2,2,0,1,1,0,4H204.27a2,2,0,1,1,0-4h37.82Z" />
      <g class="BUNTAI_RED_PANDA_OUTFIT_BUNTAI_RED_PANDA_OUTFIT_41_cls-7">
        <path d="M225.22,333.28c-17.64-1-29.89-3.55-41.34-7.16.43-.28.85-.56,1.26-.85a3.34,3.34,0,0,0,1-1.07C195.73,328.05,208.48,331.61,225.22,333.28Z" />
        <path d="M149.28,341.37c-2.34,11.41-8.45,24.53-8.71,25.09v.05h0l-2.21,6.18v-2.58l-1.11-11-1.6,9.28s-.16-.29-.39-.8v0a68.61,68.61,0,0,1-5.15-14.71c.07,8.91,3,19.09,4.46,23.49.43,1.32.72,2.12.75,2.22l-.08-.07-.14-.11-.09-.07a170.79,170.79,0,0,1-12.43-12.43c-.56-.69-1.1-1.39-1.59-2.09a34.19,34.19,0,0,1-4.43-8.72l0,0a55.83,55.83,0,0,1,6.59-3.72C130.57,347.7,139.78,344.65,149.28,341.37Z" />
        <path d="M130.73,391.47l0,.08-1.53,5.76h-.31l-.38,0h-.07l-.82,0h-.28l-.72,0h-.4l-1.33,0h-.11l-2.21.07-.85,0c-.61,0-1.25,0-1.91,0H119c-3.93.07-8.54.09-12.92,0-1.56,0-3.09-.1-4.56-.18a71.65,71.65,0,0,1-9.36-1l.06-.23a.32.32,0,0,1,0-.06l.24-7.12.73.77c3.16,3.39,6.5,0,6.5,0s2.23,0,2.69.66,2,1.74,6.41,1.45,5.48-2.28,5.48-2.1a6.51,6.51,0,0,0,3.71,1.93C120.22,392.1,130.73,391.47,130.73,391.47Z" />
        <path d="M94.43,412.52s7.78-6.15,8.69-4.21,1.57,3.47,1.57,3.47,3.79-13.74,1.49-14.22S94.43,412.52,94.43,412.52Z" />
        <path d="M122.48,397.65s-3.73,17-4.34,28.45c5.53-15.37,10.35-27.55,10.35-27.55v-1.39Z" />
        <path d="M129.93,434.32s-5.23,9.38-6,12.48h29.67s-15.67-8.69-21.69-22c-3.66-9.11-3.94-13.18-3.94-13.18s.14,12.21,5,19.24l6.68,9.79s-5-2.37-6-4.29S131.32,432.94,129.93,434.32Z" />
        <path d="M130,395.91a70,70,0,0,0,29.23,32.5c21.36,12,58.41-6.83,59.06-17.34.2-9,.59-10.7.59-10.7l-.84-1.65,4.74.09s4.39,11.06.83,27.14S208.45,449,208.45,449s-22.3,3.71-38.36,1.12-29.34-9.86-36-21.26c12.45,12.05,29.35,16.37,29.35,16.37s-22.94-14.62-28.23-28.87S130,395.91,130,395.91Z" />
        <path d="M320.62,395.91a70,70,0,0,1-29.23,32.5c-21.36,12-58.41-6.83-59.06-17.34-.19-9-.58-10.7-.58-10.7l.83-1.65-4.73.09s-4.4,11.06-.84,27.14S242.18,449,242.18,449s22.29,3.71,38.35,1.12,29.34-9.86,36-21.26c-12.44,12.05-29.35,16.37-29.35,16.37s22.94-14.62,28.24-28.87S320.62,395.91,320.62,395.91Z" />
        <path d="M314.25,376.74s-.45-10.41-1.11-17.58l-.66-7.17s4.86,7.45,4.7,13.86A23.78,23.78,0,0,1,314.25,376.74Z" />
        <path d="M348.34,396.49l.31.83c-1,.1-2.26.19-3.84.29-8.72.53-22.83,0-22.83,0l-.06-.26-1.3-5.16,2.24-.15,6.54.89s4.36-.64,5.94-.89,2.14-.49,4.18-1,.44-.37,6.38.65c.77.13,1.37.22,1.85.26l.56,4.28Z" />
        <path d="M325.56,428.32s.59-12.41,4.49-11.12S343,432.84,343,432.84s-8.07-32.58-14.1-32.48C326.67,400.92,324.81,416,325.56,428.32Z" />
        <path d="M351.74,408.84a93.91,93.91,0,0,0-.56,13.79s-2.44-18.93-1.51-21.68v0c.05-.18.13-.28.22-.3h0l0,0,2.34,6.2A8,8,0,0,0,351.74,408.84Z" />
      </g>
      <path class="BUNTAI_RED_PANDA_OUTFIT_BUNTAI_RED_PANDA_OUTFIT_41_cls-8" d="M225,394.68s.68-13.25-3.14-20.44" />
      <path class="BUNTAI_RED_PANDA_OUTFIT_BUNTAI_RED_PANDA_OUTFIT_41_cls-8" d="M227.66,373.56a25.81,25.81,0,0,0-3.28,9.21" />
      <path class="BUNTAI_RED_PANDA_OUTFIT_BUNTAI_RED_PANDA_OUTFIT_41_cls-6" d="M330.39,362.34a62.9,62.9,0,0,0-4.94-5,69.53,69.53,0,0,0-15.55-10.64s-24.14-10.82-38.8-22c-1.8-1.37-3.45-2.74-4.9-4.09a3.87,3.87,0,0,1-.43-1.43" />
      <path class="BUNTAI_RED_PANDA_OUTFIT_BUNTAI_RED_PANDA_OUTFIT_41_cls-6" d="M116.52,355.07l0,0a55.83,55.83,0,0,1,6.59-3.72c7.41-3.62,16.62-6.67,26.12-9.95,12.05-4.15,24.56-8.68,34.48-15.17l.12-.08c.43-.28.85-.56,1.26-.85a3.34,3.34,0,0,0,1-1.07,11.33,11.33,0,0,0,1.31-3.92v0" />
      <path class="BUNTAI_RED_PANDA_OUTFIT_BUNTAI_RED_PANDA_OUTFIT_41_cls-6" d="M77.65,446.81c5.16-15.36,13.62-47.13,14.5-50.47l.06-.23a.32.32,0,0,1,0-.06l.24-7.12.27-3.7h0" />
      <polyline class="BUNTAI_RED_PANDA_OUTFIT_BUNTAI_RED_PANDA_OUTFIT_41_cls-6" points="346.94 385.76 347.75 392 348.31 396.28 348.34 396.49 348.65 397.32 349.9 400.63 349.9 400.64 352.24 406.84 367.32 446.81" />
    </g>
  </g>
</svg>