<svg xmlns="http://www.w3.org/2000/svg" viewBox="0 0 432 432">
  <defs>
    <style>.GUNDAN_OWL_BODY_GUNDAN_OWL_BODY_4_cls-1{isolation:isolate;}.GUNDAN_OWL_BODY_GUNDAN_OWL_BODY_4_cls-2{fill:#83cc42;}.GUNDAN_OWL_BODY_GUNDAN_OWL_BODY_4_cls-3{fill:#fff;}.GUNDAN_OWL_BODY_GUNDAN_OWL_BODY_4_cls-4{fill:#1f1b1a;}.GUNDAN_OWL_BODY_GUNDAN_OWL_BODY_4_cls-5{fill:#48585b;}.GUNDAN_OWL_BODY_GUNDAN_OWL_BODY_4_cls-6{fill:#c7dbe5;}.GUNDAN_OWL_BODY_GUNDAN_OWL_BODY_4_cls-10,.GUNDAN_OWL_BODY_GUNDAN_OWL_BODY_4_cls-7,.GUNDAN_OWL_BODY_GUNDAN_OWL_BODY_4_cls-8,.GUNDAN_OWL_BODY_GUNDAN_OWL_BODY_4_cls-9{fill:none;stroke:#000;stroke-linecap:round;stroke-linejoin:round;}.GUNDAN_OWL_BODY_GUNDAN_OWL_BODY_4_cls-7{stroke-width:1.86px;}.GUNDAN_OWL_BODY_GUNDAN_OWL_BODY_4_cls-8{stroke-width:2.31px;}.GUNDAN_OWL_BODY_GUNDAN_OWL_BODY_4_cls-9{stroke-width:1.64px;}.GUNDAN_OWL_BODY_GUNDAN_OWL_BODY_4_cls-10{stroke-width:1.57px;}.GUNDAN_OWL_BODY_GUNDAN_OWL_BODY_4_cls-11{opacity:0.22;mix-blend-mode:multiply;}</style>
  </defs>
  <g class="GUNDAN_OWL_BODY_GUNDAN_OWL_BODY_4_cls-1">
    <g id="body">
      <path class="GUNDAN_OWL_BODY_GUNDAN_OWL_BODY_4_cls-2" d="M208.26,196.54c-.8-.81-1.66-1.63-2.59-2.47h0a10.68,10.68,0,0,0-4.38,1.54h0a11.09,11.09,0,0,0-5,7A11.35,11.35,0,0,0,196,205a11,11,0,0,0,22,.84h0C215.46,203.54,212,200.37,208.26,196.54Z" />
      <path class="GUNDAN_OWL_BODY_GUNDAN_OWL_BODY_4_cls-2" d="M276.14,203.2c-.83-4.58-4-8.12-7.93-8.71-.79.85-1.52,1.69-2.19,2.51-3.2,3.89-6.08,7.1-8.26,9.42.35,5.78,4.38,10.34,9.28,10.34,5.14,0,9.31-5,9.31-11.18A13.25,13.25,0,0,0,276.14,203.2Z" />
      <circle cx="206.5" cy="205.62" r="5.68" />
      <circle class="GUNDAN_OWL_BODY_GUNDAN_OWL_BODY_4_cls-3" cx="211.05" cy="202.42" r="1.15" />
      <circle cx="265.83" cy="205.62" r="5.68" />
      <circle class="GUNDAN_OWL_BODY_GUNDAN_OWL_BODY_4_cls-3" cx="270.38" cy="202.42" r="1.15" />
      <path class="GUNDAN_OWL_BODY_GUNDAN_OWL_BODY_4_cls-4" d="M251.69,234.78c1.14,2.24,1,3.82-1.08,12.21A74.38,74.38,0,0,1,244,263.41s0-1.45-1.57-4.48-10.66-15.15-10-21.5c.48-4.4,5.82-6.89,9.06-8a6.72,6.72,0,0,1,6.36,1A14.85,14.85,0,0,1,251.69,234.78Z" />
      <path class="GUNDAN_OWL_BODY_GUNDAN_OWL_BODY_4_cls-5" d="M353.9,420l2.49,1.87-7.92-24.17c-.5-1.54-1-3.08-1.51-4.62l1.62.35c-1.89-3.48-3.76-7-5.64-10.43l2.74,2.51c-1.84-6.63-3.72-13.33-5.9-19.77-2.85-8.38-6.22-16.32-10.74-23.09a75.88,75.88,0,0,0-6.17-7.94c-2.06-2.34-4.2-4.56-6.34-6.77a2.86,2.86,0,0,0,1.68-1.33,11.7,11.7,0,0,1-3.86-.92h0c-1-1-2.12-2.18-3.31-3.51-.94-1.06-1.91-2.21-2.87-3.46a44.4,44.4,0,0,1-7.8-14.22q-.12-.37-.21-.75c-.36-.62-.71-1.24-1.06-1.87a108.59,108.59,0,0,1-5.71-11.61,63,63,0,0,1-2.59-7.6h0a45.24,45.24,0,0,1-1.67-14c.38-7.8,3.12-15.25,5.16-22.79s3.12-15.77.67-23.18c.93,1.28,1.87,2.23,2.8,3.52a99.11,99.11,0,0,0-5.4-31.87c1.6,1.2,3.18,2.18,4.78,3.38a66.77,66.77,0,0,0-5.56-12.2c-1.4.6-2.12,1-2.12,1s-.89,1.49-2.31,3.63a35.57,35.57,0,0,1,7.55,22.14,5,5,0,0,0-2.91-3,25.21,25.21,0,0,1,.68,11.11,58.15,58.15,0,0,1-2.84,10.72c-1.51,4.35-3.53,8.34-5.36,12.51a113.64,113.64,0,0,0-18.42-17.54,26.57,26.57,0,0,1,1.86,6,45.15,45.15,0,0,1-7.38-8,28.77,28.77,0,0,1-4.66-15.58h0c.59-.6,1.3-1.34,2.1-2.2,0,0,0,0,0,0h0c2.18-2.31,5-5.51,8.22-9.37.67-.82,1.4-1.66,2.19-2.51A70.15,70.15,0,0,1,288,180.05a119.57,119.57,0,0,1,20.79-8.12,129.49,129.49,0,0,0-15.51,2.91c1-.39,7-2.82,17.06-10.48l1-.78c2.52-2,5.29-4.25,8.27-6.91,6.15-5.48,12.05-10.91,17.32-16.17a190.55,190.55,0,0,0,6.85-18v0c6.26-9.88,11.1-21.64,14.92-33.88-9.94,21.29-22.55,31.58-30.52,39.15s-20,18.65-20.38,19a25.16,25.16,0,0,0,1.77-4.61c-8,9.45-18.73,18.7-25.35,24.09a10.41,10.41,0,0,1-.81-.68c-1.44-1.3-2.67-2.82-4-4.22a34.08,34.08,0,0,0-8.6-6.64l2.66-.43a101,101,0,0,0-13.95-8.73c-.94-.47-1-1-.35-1.92-5.77.54-9.29-1.81-15.09-1.81,0,0-7.11-.46-10.25-.7a18,18,0,0,1-4.66-.81l1.28,1.51a74.15,74.15,0,0,0-15.38,0c-7.34.93-19.57,2.21-19.57,2.21l3.61,1.29s-12.35,4.19-14.91,5.71l2.09.46a51.89,51.89,0,0,0-9.13,8,190.59,190.59,0,0,1-20.34-16.92,23.81,23.81,0,0,0,2.08,4.53c-.45-.34-14.82-11.41-24.1-18.74-9.44-7.46-24.35-17.6-36.12-38.57,4.51,12.06,10.25,23.64,17.65,33.38a0,0,0,0,0,0,0,166.4,166.4,0,0,0,8.1,17.78c6.23,5.18,13.21,10.53,20.5,15.93,18.87,14,30.23,17.61,31.25,17.92a180,180,0,0,0-18.44-2.89c25.18,6.19,39.49,14.65,48,22.23h0c.93.84,1.79,1.66,2.59,2.47,3.78,3.83,7.2,7,9.77,9.28h0l2.49,2.16h0A25.17,25.17,0,0,1,215,223.35a49.41,49.41,0,0,1-8.73,7.84,22.83,22.83,0,0,1,2.2-6,127.24,127.24,0,0,0-21.8,17.28c-2.16-4.11-4.55-8-6.34-12.33A49.92,49.92,0,0,1,177,219.62a20.85,20.85,0,0,1,.81-10.94,5.51,5.51,0,0,0-3.45,3,31.53,31.53,0,0,1,8.94-21.81c-1.69-2.1-2.74-3.57-2.74-3.57s-5.75-2.65-16.11-4.51a66.67,66.67,0,0,0-8,16c1.6-1.2,3.18-2.18,4.77-3.38a99.38,99.38,0,0,0-5.4,31.87c.93-1.29,1.87-2.24,2.81-3.52-2.46,7.41-1.37,15.64.67,23.18s4.78,15,5.15,22.79a42.32,42.32,0,0,1-.27,7,57.33,57.33,0,0,1-4,14.55,99,99,0,0,1-4.86,10.06c-.5.92-1,1.83-1.53,2.74a34.66,34.66,0,0,1-7.47,11.75,83.87,83.87,0,0,1-12.53,10.87h0a21.73,21.73,0,0,1-5.37.92,4,4,0,0,0,2.33,1.33c-1.38,1-2.77,2-4.14,3.1a101.82,101.82,0,0,0-13.26,11.61,76.21,76.21,0,0,0-9.15,12.24c-5.8,9.52-10,20.16-14,30.62L94,383,91.83,386l-5.65,7.51,2.25-.35q-6.56,14.38-13.12,28.79L78.78,420,63.66,447H135c.31-1.32.59-2.64.86-4,0,1.32,0,2.64,0,4h46.93c-.18-.73-.36-1.48-.51-2.36.78.8,1.58,1.59,2.39,2.36H289.52c.5-.77,1-1.56,1.47-2.36-.1.88-.2,1.63-.32,2.36h74.09ZM232.5,237.43c.48-4.4,5.82-6.89,9.06-8a6.72,6.72,0,0,1,6.36,1,14.85,14.85,0,0,1,3.77,4.35c1.14,2.24,1,3.82-1.08,12.21A74.38,74.38,0,0,1,244,263.41s0-1.45-1.57-4.48S231.8,243.78,232.5,237.43Z" />
      <path class="GUNDAN_OWL_BODY_GUNDAN_OWL_BODY_4_cls-6" d="M341.11,136.18h0c-1.35,1.42-2.76,2.86-4.21,4.31-5.27,5.26-11.17,10.69-17.32,16.17-3,2.66-5.75,4.94-8.27,6.91l-1,.78c-10,7.66-16.06,10.09-17.06,10.48a129.49,129.49,0,0,1,15.51-2.91A119.57,119.57,0,0,0,288,180.05a70.15,70.15,0,0,0-19.75,14.44c3.93.59,7.1,4.13,7.93,8.71a13.25,13.25,0,0,1,.21,2.38c0,6.17-4.17,11.18-9.31,11.18a9,9,0,0,1-7.68-4.85l0-.07,0,0a12.58,12.58,0,0,1-1.55-5.39c-.8.86-1.51,1.6-2.1,2.2h0a28.77,28.77,0,0,0,4.66,15.58,45.15,45.15,0,0,0,7.38,8,26.57,26.57,0,0,0-1.86-6,113.64,113.64,0,0,1,18.42,17.54c1.83-4.17,3.85-8.16,5.36-12.51a58.15,58.15,0,0,0,2.84-10.72,25.21,25.21,0,0,0-.68-11.11,5,5,0,0,1,2.91,3,35.57,35.57,0,0,0-7.55-22.14c1.42-2.14,2.31-3.63,2.31-3.63s.72-.4,2.12-1A62.11,62.11,0,0,1,303.24,182c8.72-1.86,22.31-9.91,22.73-10.16-.41.12-9.28,2.94-15,2.94h0C329,168,338.9,153.92,347.24,136.62h0c3.2-6.64,6.17-13.75,9.25-21.1C353.68,121.73,348.17,128.74,341.11,136.18ZM265.8,226.11s0,0,0,0l0,0Z" />
      <path class="GUNDAN_OWL_BODY_GUNDAN_OWL_BODY_4_cls-6" d="M218,206a11,11,0,0,1-22-1,11.67,11.67,0,0,1,.24-2.31.06.06,0,0,1,0,0,11.09,11.09,0,0,1,5-7h0a10.68,10.68,0,0,1,4.38-1.54c-8.47-7.58-22.78-16-48-22.23a180,180,0,0,1,18.44,2.89c-1-.31-12.38-3.93-31.25-17.92-7.29-5.4-14.27-10.75-20.5-15.93-1.72-1.43-3.39-2.85-5-4.25-8.35-7.33-14.88-14.24-18.22-20.36,3.66,7.23,7.16,14.24,11,20.78C122,154.09,133.8,168,155,174.64c-6.61,0-16.89-2.7-17.66-2.9,1,.48,16.71,8.2,26.86,10l.2,0c10.36,1.86,16.11,4.51,16.11,4.51s1.05,1.47,2.74,3.57a31.53,31.53,0,0,0-8.94,21.81,5.51,5.51,0,0,1,3.45-3,20.85,20.85,0,0,0-.81,10.94,49.92,49.92,0,0,0,3.36,10.56c1.79,4.29,4.18,8.22,6.34,12.33a127.24,127.24,0,0,1,21.8-17.28,22.83,22.83,0,0,0-2.2,6,49.41,49.41,0,0,0,8.73-7.84A25.17,25.17,0,0,0,220.52,208h0L218,205.83S218,205.88,218,206Z" />
      <path class="GUNDAN_OWL_BODY_GUNDAN_OWL_BODY_4_cls-7" d="M177.11,159.4a51.89,51.89,0,0,1,9.13-8l-2.09-.46c2.56-1.52,14.91-5.71,14.91-5.71L195.45,144s12.23-1.28,19.57-2.21a74.15,74.15,0,0,1,15.38,0l-1.28-1.51a18,18,0,0,0,4.66.81c3.14.24,10.25.7,10.25.7,5.8,0,9.32,2.35,15.09,1.81-.63.95-.59,1.45.35,1.92a101,101,0,0,1,13.95,8.73l-2.66.43a34.08,34.08,0,0,1,8.6,6.64c1.35,1.4,2.58,2.92,4,4.22a10.41,10.41,0,0,0,.81.68" />
      <path class="GUNDAN_OWL_BODY_GUNDAN_OWL_BODY_4_cls-7" d="M153.82,303.11c.52-.91,1-1.82,1.53-2.74a99,99,0,0,0,4.86-10.06,57.33,57.33,0,0,0,4-14.55,42.32,42.32,0,0,0,.27-7c-.37-7.8-3.12-15.25-5.15-22.79s-3.13-15.77-.67-23.18c-.94,1.28-1.88,2.23-2.81,3.52a99.38,99.38,0,0,1,5.4-31.87c-1.59,1.2-3.17,2.18-4.77,3.38a66.67,66.67,0,0,1,8-16" />
      <path class="GUNDAN_OWL_BODY_GUNDAN_OWL_BODY_4_cls-7" d="M290.79,282.7a45.24,45.24,0,0,1-1.67-14c.38-7.8,3.12-15.25,5.16-22.79s3.12-15.77.67-23.18c.93,1.28,1.87,2.23,2.8,3.52a99.11,99.11,0,0,0-5.4-31.87c1.6,1.2,3.18,2.18,4.78,3.38a66.77,66.77,0,0,0-5.56-12.2" />
      <path class="GUNDAN_OWL_BODY_GUNDAN_OWL_BODY_4_cls-7" d="M300.15,303.79c-.36-.62-.71-1.24-1.06-1.87a108.59,108.59,0,0,1-5.71-11.61,63,63,0,0,1-2.59-7.6" />
      <path class="GUNDAN_OWL_BODY_GUNDAN_OWL_BODY_4_cls-7" d="M116.29,123.1a79.4,79.4,0,0,0,10.21,11.17C139.09,145.54,143.28,148,143.28,148" />
      <path class="GUNDAN_OWL_BODY_GUNDAN_OWL_BODY_4_cls-7" d="M158.86,147h0c-.45-.34-14.82-11.41-24.1-18.74-9.44-7.46-24.35-17.6-36.12-38.57,4.51,12.06,10.25,23.64,17.65,33.38" />
      <path class="GUNDAN_OWL_BODY_GUNDAN_OWL_BODY_4_cls-7" d="M193.93,170.91s-7.58-4.72-16.82-11.51a190.59,190.59,0,0,1-20.34-16.92,23.81,23.81,0,0,0,2.08,4.53" />
      <path class="GUNDAN_OWL_BODY_GUNDAN_OWL_BODY_4_cls-7" d="M116.28,123.08a0,0,0,0,0,0,0,166.4,166.4,0,0,0,8.1,17.78" />
      <path class="GUNDAN_OWL_BODY_GUNDAN_OWL_BODY_4_cls-7" d="M196.28,202.64c-4.78-3-9.95-9-13-12.78-1.69-2.1-2.74-3.57-2.74-3.57s-5.75-2.65-16.11-4.51l-.2,0c-10.15-1.8-25.89-9.52-26.86-10" />
      <path class="GUNDAN_OWL_BODY_GUNDAN_OWL_BODY_4_cls-7" d="M137.31,171.72h.05c.77.2,11,2.9,17.66,2.9-21.22-6.66-33-20.55-42.88-37.59-3.79-6.54-7.29-13.55-11-20.78,3.34,6.12,9.87,13,18.22,20.36,1.59,1.4,3.26,2.82,5,4.25,6.23,5.18,13.21,10.53,20.5,15.93,18.87,14,30.23,17.61,31.25,17.92" />
      <path class="GUNDAN_OWL_BODY_GUNDAN_OWL_BODY_4_cls-7" d="M220.52,208c1.39,1.18,2.19,1.82,2.19,1.82l4,4.42" />
      <path class="GUNDAN_OWL_BODY_GUNDAN_OWL_BODY_4_cls-7" d="M218,205.83l2.49,2.16" />
      <path class="GUNDAN_OWL_BODY_GUNDAN_OWL_BODY_4_cls-7" d="M205.67,194.07c.93.84,1.79,1.66,2.59,2.47,3.78,3.83,7.2,7,9.77,9.28" />
      <path class="GUNDAN_OWL_BODY_GUNDAN_OWL_BODY_4_cls-7" d="M176.22,174.75h-.08a180,180,0,0,0-18.44-2.89c25.18,6.19,39.49,14.65,48,22.23" />
      <path class="GUNDAN_OWL_BODY_GUNDAN_OWL_BODY_4_cls-7" d="M127.1,149.26c-4.48-3.41-9.49-7.45-14.95-12.21" />
      <path class="GUNDAN_OWL_BODY_GUNDAN_OWL_BODY_4_cls-7" d="M128,150a2.07,2.07,0,0,1-.25-.19" />
      <path class="GUNDAN_OWL_BODY_GUNDAN_OWL_BODY_4_cls-7" d="M128.91,150.62l-.69-.51" />
      <path class="GUNDAN_OWL_BODY_GUNDAN_OWL_BODY_4_cls-7" d="M129.85,151.32c-.22-.15-.44-.32-.66-.49" />
      <path class="GUNDAN_OWL_BODY_GUNDAN_OWL_BODY_4_cls-7" d="M153,165.9S146,162.84,133.49,154h0l-2.58-1.85" />
      <path class="GUNDAN_OWL_BODY_GUNDAN_OWL_BODY_4_cls-7" d="M208.47,225.23a127.24,127.24,0,0,0-21.8,17.28c-2.16-4.11-4.55-8-6.34-12.33A49.92,49.92,0,0,1,177,219.62a20.85,20.85,0,0,1,.81-10.94,5.51,5.51,0,0,0-3.45,3,31.53,31.53,0,0,1,8.94-21.81" />
      <path class="GUNDAN_OWL_BODY_GUNDAN_OWL_BODY_4_cls-7" d="M208.49,225.21h0" />
      <path class="GUNDAN_OWL_BODY_GUNDAN_OWL_BODY_4_cls-7" d="M208.51,225.21s0,0,0,0S208.53,225.22,208.51,225.21Z" />
      <path class="GUNDAN_OWL_BODY_GUNDAN_OWL_BODY_4_cls-7" d="M208.51,225.21h0" />
      <path class="GUNDAN_OWL_BODY_GUNDAN_OWL_BODY_4_cls-7" d="M208.47,225.22s0,0,0,0" />
      <line class="GUNDAN_OWL_BODY_GUNDAN_OWL_BODY_4_cls-7" x1="208.47" y1="225.22" x2="208.47" y2="225.23" />
      <path class="GUNDAN_OWL_BODY_GUNDAN_OWL_BODY_4_cls-7" d="M220.52,208h0A25.17,25.17,0,0,1,215,223.35a49.41,49.41,0,0,1-8.73,7.84,22.83,22.83,0,0,1,2.2-6" />
      <line class="GUNDAN_OWL_BODY_GUNDAN_OWL_BODY_4_cls-7" x1="218.03" y1="205.83" x2="218.03" y2="205.82" />
      <path class="GUNDAN_OWL_BODY_GUNDAN_OWL_BODY_4_cls-7" d="M196.27,202.68A11.67,11.67,0,0,0,196,205a11,11,0,0,0,22,1" />
      <path class="GUNDAN_OWL_BODY_GUNDAN_OWL_BODY_4_cls-7" d="M201.27,195.61a11.09,11.09,0,0,0-5,7" />
      <path class="GUNDAN_OWL_BODY_GUNDAN_OWL_BODY_4_cls-7" d="M205.67,194.07h0a10.68,10.68,0,0,0-4.38,1.54" />
      <path class="GUNDAN_OWL_BODY_GUNDAN_OWL_BODY_4_cls-7" d="M155,174.64s-18.18-13-24.12-22.53c0,0,0,0,0,0l-.67-.49-.37-.28-.66-.49-.28-.21-.69-.51L128,150l-.25-.19-.67-.5,0,0c-.46-.4-7.75-6.92-7.69-12.63" />
      <path class="GUNDAN_OWL_BODY_GUNDAN_OWL_BODY_4_cls-7" d="M185,186.78s7.9,7.68,16.31,8.83h0" />
      <path class="GUNDAN_OWL_BODY_GUNDAN_OWL_BODY_4_cls-7" d="M307.76,146.74h0c.41-.38,12.54-11.6,20.38-19s20.58-17.86,30.52-39.15c-3.82,12.24-8.66,24-14.92,33.88a77.14,77.14,0,0,1-8.64,11.36c-10.63,11.44-14.18,13.92-14.18,13.92" />
      <path class="GUNDAN_OWL_BODY_GUNDAN_OWL_BODY_4_cls-7" d="M278.13,171s2.4-1.8,6.06-4.77c6.62-5.39,17.35-14.64,25.35-24.09a25.16,25.16,0,0,1-1.77,4.61" />
      <path class="GUNDAN_OWL_BODY_GUNDAN_OWL_BODY_4_cls-7" d="M336.9,140.5a190.55,190.55,0,0,0,6.85-18v0" />
      <path class="GUNDAN_OWL_BODY_GUNDAN_OWL_BODY_4_cls-7" d="M329.22,153.78h0" />
      <path class="GUNDAN_OWL_BODY_GUNDAN_OWL_BODY_4_cls-7" d="M276.14,203.2l.15-.12c4-3.13,8.28-9,10.85-12.86,1.42-2.14,2.31-3.63,2.31-3.63s.72-.4,2.12-1A62.11,62.11,0,0,1,303.24,182c8.72-1.86,22.31-9.91,22.73-10.16" />
      <path class="GUNDAN_OWL_BODY_GUNDAN_OWL_BODY_4_cls-7" d="M341.11,136.19c-1.35,1.42-2.76,2.86-4.21,4.31-5.27,5.26-11.17,10.69-17.32,16.17-3,2.66-5.75,4.94-8.27,6.91l-1,.78c-10,7.66-16.06,10.09-17.06,10.48" />
      <path class="GUNDAN_OWL_BODY_GUNDAN_OWL_BODY_4_cls-7" d="M347.25,136.61c3.2-6.64,6.17-13.75,9.25-21.1-2.82,6.22-8.33,13.23-15.39,20.67" />
      <path class="GUNDAN_OWL_BODY_GUNDAN_OWL_BODY_4_cls-7" d="M311,174.75C329,168,338.9,153.92,347.24,136.62" />
      <path class="GUNDAN_OWL_BODY_GUNDAN_OWL_BODY_4_cls-7" d="M326,171.81h0c-.41.12-9.28,2.94-15,2.94" />
      <path class="GUNDAN_OWL_BODY_GUNDAN_OWL_BODY_4_cls-7" d="M255.66,208.63c-1.18,1.2-1.85,1.85-1.85,1.85l-2.68,3.76" />
      <path class="GUNDAN_OWL_BODY_GUNDAN_OWL_BODY_4_cls-7" d="M257.8,206.38s0,0,0,0c-.8.86-1.51,1.6-2.1,2.2" />
      <path class="GUNDAN_OWL_BODY_GUNDAN_OWL_BODY_4_cls-7" d="M293.09,174.88h.07l.08,0a129.49,129.49,0,0,1,15.51-2.91A119.57,119.57,0,0,0,288,180.05a70.15,70.15,0,0,0-19.75,14.44c-.79.85-1.52,1.69-2.19,2.51-3.18,3.86-6,7.06-8.22,9.37" />
      <path class="GUNDAN_OWL_BODY_GUNDAN_OWL_BODY_4_cls-7" d="M334.61,149c3.79-3.46,8-7.56,12.63-12.38h0" />
      <path class="GUNDAN_OWL_BODY_GUNDAN_OWL_BODY_4_cls-7" d="M312.69,165.89l.6-.33c1.9-1.1,8.25-5,18.12-13.68" />
      <path class="GUNDAN_OWL_BODY_GUNDAN_OWL_BODY_4_cls-7" d="M265.84,226.12a26.57,26.57,0,0,1,1.86,6,45.15,45.15,0,0,1-7.38-8,28.77,28.77,0,0,1-4.66-15.58h0" />
      <path class="GUNDAN_OWL_BODY_GUNDAN_OWL_BODY_4_cls-7" d="M265.82,226.1s0,0,0,0" />
      <path class="GUNDAN_OWL_BODY_GUNDAN_OWL_BODY_4_cls-7" d="M265.82,226.1h0s0,0,0,0Z" />
      <path class="GUNDAN_OWL_BODY_GUNDAN_OWL_BODY_4_cls-7" d="M265.84,226.11h0" />
      <line class="GUNDAN_OWL_BODY_GUNDAN_OWL_BODY_4_cls-7" x1="265.84" y1="226.11" x2="265.84" y2="226.12" />
      <path class="GUNDAN_OWL_BODY_GUNDAN_OWL_BODY_4_cls-7" d="M287.14,190.22a35.57,35.57,0,0,1,7.55,22.14,5,5,0,0,0-2.91-3,25.21,25.21,0,0,1,.68,11.11,58.15,58.15,0,0,1-2.84,10.72c-1.51,4.35-3.53,8.34-5.36,12.51a113.64,113.64,0,0,0-18.42-17.54" />
      <path class="GUNDAN_OWL_BODY_GUNDAN_OWL_BODY_4_cls-7" d="M259.31,211.81a12.58,12.58,0,0,1-1.55-5.39" />
      <path class="GUNDAN_OWL_BODY_GUNDAN_OWL_BODY_4_cls-7" d="M268.21,194.49c3.93.59,7.1,4.13,7.93,8.71a13.25,13.25,0,0,1,.21,2.38c0,6.17-4.17,11.18-9.31,11.18a9,9,0,0,1-7.68-4.85" />
      <path class="GUNDAN_OWL_BODY_GUNDAN_OWL_BODY_4_cls-7" d="M311,174.76h0c.47-.4,15.46-13.38,20.39-22.87l.5-.45.55-.49c.3-.28.57-.51.79-.71l1.34-1.21,0,0c.38-.41,6.54-7,6.5-12.81h0" />
      <path class="GUNDAN_OWL_BODY_GUNDAN_OWL_BODY_4_cls-7" d="M285.71,187.09s-6.69,7.81-13.79,9" />
      <path class="GUNDAN_OWL_BODY_GUNDAN_OWL_BODY_4_cls-7" d="M247.92,230.43a6.72,6.72,0,0,0-6.36-1c-3.24,1.12-8.58,3.61-9.06,8-.7,6.35,8.38,18.47,10,21.5s1.57,4.48,1.57,4.48A74.38,74.38,0,0,0,250.61,247c2-8.39,2.22-10,1.08-12.21A14.85,14.85,0,0,0,247.92,230.43Z" />
      <path class="GUNDAN_OWL_BODY_GUNDAN_OWL_BODY_4_cls-7" d="M244.09,280.57l0-.05a39.1,39.1,0,0,0-12.89-11.88c-2.47-1.4-5.16-2.59-7-4.72a8.68,8.68,0,0,0,4,5.88c-5.09-.69-9.94-3.1-14.6-5.25s-9.74-4-14.83-3.34a9.54,9.54,0,0,0,5.11,4.29c-7.37.67-14.8-2.07-21.25-5.68a172.51,172.51,0,0,1-17.15-11.48" />
      <path class="GUNDAN_OWL_BODY_GUNDAN_OWL_BODY_4_cls-7" d="M244,280.57l0-.05a34.65,34.65,0,0,1,7.17-11.88c1.37-1.4,2.87-2.59,3.92-4.72a10.44,10.44,0,0,1-2.24,5.88c2.83-.69,5.52-3.1,8.11-5.26s5.42-4,8.25-3.33a7.8,7.8,0,0,1-2.84,4.29c4.1.67,8.23-2.07,11.82-5.68a117.29,117.29,0,0,0,9.53-11.48" />
      <path class="GUNDAN_OWL_BODY_GUNDAN_OWL_BODY_4_cls-7" d="M164.19,275.76a28.16,28.16,0,0,0,9.6,12.23c0-1.72,0-3,0-4.71A38,38,0,0,0,199,300.78c-.24-1.35-.54-2.24-.77-3.59a60.54,60.54,0,0,0,26.81,16.35c-.37-2.39-.52-4.27-.89-6.66A30.68,30.68,0,0,0,244,321.66" />
      <path class="GUNDAN_OWL_BODY_GUNDAN_OWL_BODY_4_cls-7" d="M244.09,321.66c5-1.77,9.59-7.27,12.23-14.78-.24,2.39-.32,4.27-.56,6.66,6.22-2.91,12-8.61,16.53-16.35-.14,1.35-.33,2.24-.48,3.59,6.32-1.83,12.11-8.35,15.57-17.5,0,1.71,0,3,0,4.71a24.39,24.39,0,0,0,3.42-5.28h0" />
      <path class="GUNDAN_OWL_BODY_GUNDAN_OWL_BODY_4_cls-7" d="M155.35,300.37a31.22,31.22,0,0,0,7.1,6.86c0-2,0-3.44,0-5.41a44.55,44.55,0,0,0,29.6,20.1c-.27-1.55-.63-2.57-.9-4.13a71,71,0,0,0,31.41,18.78c-.44-2.74-.61-4.9-1.05-7.65a35.91,35.91,0,0,0,23.24,17" />
      <path class="GUNDAN_OWL_BODY_GUNDAN_OWL_BODY_4_cls-7" d="M244.79,345.9c5.91-2,11.24-8.35,14.33-17-.28,2.75-.38,4.91-.65,7.65,7.28-3.34,14-9.88,19.36-18.78-.17,1.56-.39,2.58-.56,4.13,7.4-2.11,14.19-9.59,18.24-20.1,0,2,0,3.44,0,5.41a26.56,26.56,0,0,0,3.6-5.31" />
      <path class="GUNDAN_OWL_BODY_GUNDAN_OWL_BODY_4_cls-7" d="M126.63,331.08c8.11,14.9,28.72,26.17,28.72,26.17v-3.93a31.22,31.22,0,0,0,7.1,6.86c0-2,0-3.44,0-5.41a44.55,44.55,0,0,0,29.6,20.1c-.27-1.55-.63-2.57-.9-4.13a71,71,0,0,0,31.41,18.78c-.44-2.74-.61-4.9-1.05-7.65a35.91,35.91,0,0,0,23.24,17" />
      <path class="GUNDAN_OWL_BODY_GUNDAN_OWL_BODY_4_cls-7" d="M244.79,398.85c5.91-2,11.24-8.35,14.33-17-.28,2.75-.38,4.91-.65,7.65,7.28-3.34,14-9.88,19.36-18.78-.17,1.56-.39,2.58-.56,4.13,7.4-2.11,14.19-9.59,18.24-20.1,0,2,0,3.44,0,5.41a26.56,26.56,0,0,0,3.6-5.31l1.06,3.25s14.37-9.06,22.72-23.37" />
      <path class="GUNDAN_OWL_BODY_GUNDAN_OWL_BODY_4_cls-7" d="M104.22,354.93c11.44,16.39,33.19,28.28,33.19,28.28v-4.93a38.83,38.83,0,0,0,8.9,8.6c-.06-2.47,0-4.31,0-6.78a55.91,55.91,0,0,0,37.12,25.21c-.34-1.95-.79-3.23-1.13-5.18a89.1,89.1,0,0,0,39.39,23.55c-.55-3.44-.77-6.15-1.32-9.6a45,45,0,0,0,29.14,21.29" />
      <path class="GUNDAN_OWL_BODY_GUNDAN_OWL_BODY_4_cls-7" d="M249.56,435.37c7.41-2.54,14.1-10.47,18-21.29-.35,3.45-.48,6.16-.81,9.6,9.12-4.19,17.58-12.39,24.27-23.55-.21,1.95-.49,3.23-.7,5.18,9.28-2.65,17.79-12,22.87-25.21,0,2.47,0,4.31,0,6.78a33.26,33.26,0,0,0,4.51-6.65L319,384.3a101.63,101.63,0,0,0,20.8-18.52" />
      <path class="GUNDAN_OWL_BODY_GUNDAN_OWL_BODY_4_cls-7" d="M91.83,386c.32,3.76,5.38,8.17,5.38,8.17l1.06-6.93c4.83,18.25,27.85,33.7,36.15,38.77" />
      <path class="GUNDAN_OWL_BODY_GUNDAN_OWL_BODY_4_cls-7" d="M138.68,424.39a38.38,38.38,0,0,0,7.63,7c-.06-2.47,0-4.31,0-6.78A56.36,56.36,0,0,0,173.35,447" />
      <path class="GUNDAN_OWL_BODY_GUNDAN_OWL_BODY_4_cls-7" d="M296.47,447c6.79-4.29,12.77-12.21,16.69-22.39,0,2.47,0,4.31,0,6.78a33.26,33.26,0,0,0,4.51-6.65l1.33,4.07s1.86-1.17,4.73-3.36" />
      <path class="GUNDAN_OWL_BODY_GUNDAN_OWL_BODY_4_cls-7" d="M329.72,420.52c6.12-5.41,13.57-13.23,18.75-22.78" />
      <path class="GUNDAN_OWL_BODY_GUNDAN_OWL_BODY_4_cls-7" d="M146.35,314.86c13.77,18.05,45.75,29.05,45.75,29.05l-.81-6.29c2.91,6.64,26.5,18.13,26.5,18.13q2.34.86,4.74,1.53c-.44-2.74-.61-4.9-1.05-7.65a36,36,0,0,0,23.24,17" />
      <path class="GUNDAN_OWL_BODY_GUNDAN_OWL_BODY_4_cls-7" d="M244.79,366.62c5.91-2,11.24-8.36,14.33-17-.28,2.75-.38,4.91-.65,7.65a35.62,35.62,0,0,0,8.49-5.56s12.7-10.24,15-16.34v6.32s14.15-6.94,26.23-22.94" />
      <path class="GUNDAN_OWL_BODY_GUNDAN_OWL_BODY_4_cls-7" d="M196.28,202.64a.06.06,0,0,0,0,0,23.29,23.29,0,0,0-.74,12.41" />
      <path class="GUNDAN_OWL_BODY_GUNDAN_OWL_BODY_4_cls-7" d="M218,205.83s0,0,0,.15c-.11,1.5-1.37,13.48-14.59,14.41" />
      <path class="GUNDAN_OWL_BODY_GUNDAN_OWL_BODY_4_cls-7" d="M276.14,202.64s.06.15.15.44a23.2,23.2,0,0,1,.59,12" />
      <path class="GUNDAN_OWL_BODY_GUNDAN_OWL_BODY_4_cls-7" d="M272.36,220.4c-7.61-.54-11.25-4.74-13-8.49l0-.07,0,0a18.11,18.11,0,0,1-1.51-5.43h0" />
      <line class="GUNDAN_OWL_BODY_GUNDAN_OWL_BODY_4_cls-8" x1="239.49" y1="236.5" x2="241.16" y2="239.73" />
      <line class="GUNDAN_OWL_BODY_GUNDAN_OWL_BODY_4_cls-8" x1="247.15" y1="236.5" x2="246.48" y2="239.73" />
      <path class="GUNDAN_OWL_BODY_GUNDAN_OWL_BODY_4_cls-7" d="M364.76,447H63.66l15.12-27-3.47,1.87q6.56-14.4,13.12-28.79l-2.25.35L91.83,386,94,383l-3.81,2.51c4.05-10.46,8.21-21.1,14-30.62a76.21,76.21,0,0,1,9.15-12.24,101.82,101.82,0,0,1,13.26-11.61c1.37-1.05,2.76-2.07,4.14-3.1" />
      <path class="GUNDAN_OWL_BODY_GUNDAN_OWL_BODY_4_cls-7" d="M133.82,325.73a83.87,83.87,0,0,0,12.53-10.87,34.66,34.66,0,0,0,7.47-11.75" />
      <path class="GUNDAN_OWL_BODY_GUNDAN_OWL_BODY_4_cls-7" d="M132,328a3.78,3.78,0,0,1-1.21,0,4,4,0,0,1-2.33-1.33,21.73,21.73,0,0,0,5.37-.92h0" />
      <path class="GUNDAN_OWL_BODY_GUNDAN_OWL_BODY_4_cls-7" d="M322.52,447v0a164.94,164.94,0,0,0-.57-43.94" />
      <path class="GUNDAN_OWL_BODY_GUNDAN_OWL_BODY_4_cls-7" d="M322.52,447v0a128.37,128.37,0,0,0,7.18-26.48h0a126.15,126.15,0,0,0,1.6-19.21" />
      <path class="GUNDAN_OWL_BODY_GUNDAN_OWL_BODY_4_cls-9" d="M135,447c.31-1.32.59-2.64.86-4a175.14,175.14,0,0,0,2.8-18.65,177,177,0,0,0-.49-38.43" />
      <path class="GUNDAN_OWL_BODY_GUNDAN_OWL_BODY_4_cls-9" d="M135.84,447c0-1.32,0-2.64,0-4A109.87,109.87,0,0,0,134.42,426a110.7,110.7,0,0,0-6.75-24" />
      <path class="GUNDAN_OWL_BODY_GUNDAN_OWL_BODY_4_cls-10" d="M316.53,328c2.14,2.21,4.28,4.43,6.34,6.77a75.88,75.88,0,0,1,6.17,7.94c4.52,6.77,7.89,14.71,10.74,23.09,2.18,6.44,4.06,13.14,5.9,19.77L342.94,383c1.88,3.48,3.75,6.95,5.64,10.43l-1.62-.35c.5,1.54,1,3.08,1.51,4.62l7.92,24.17L353.9,420l10.86,27" />
      <path class="GUNDAN_OWL_BODY_GUNDAN_OWL_BODY_4_cls-10" d="M314.34,325.73c-1-1-2.12-2.18-3.31-3.51-.94-1.06-1.91-2.21-2.87-3.46a44.4,44.4,0,0,1-7.8-14.22q-.12-.37-.21-.75" />
      <path class="GUNDAN_OWL_BODY_GUNDAN_OWL_BODY_4_cls-10" d="M314.34,325.73h0a11.7,11.7,0,0,0,3.86.92,2.86,2.86,0,0,1-1.68,1.33,2,2,0,0,1-.87,0" />
      <g class="GUNDAN_OWL_BODY_GUNDAN_OWL_BODY_4_cls-11">
        <path d="M129.3,447.4A37.84,37.84,0,0,0,132.53,425c-2.09-12.67-7.42-30.38-7.42-30.38l8.74,20.78s-2.8-13.12-4.37-26.14S127.67,364,127.67,364s2.77,19.66,6,29.45,5.47,17.92,5.47,17.92S141,395.79,141,392.12c.26,22.45-.87,32.41-2.18,40.71S136.28,448,136.28,448Z" />
        <path d="M313,447.4s6.17-16.63,7.34-32.36c1.4,11.18,2.72,19.54,2.72,19.54s1.32-35,0-51.93c2.52,17.24,3.59,31.5,3.11,39.73l-.49,8.23s5.44-22,5.64-23.15c-.73,15.27-6.06,39.94-6.06,39.94Z" />
        <path d="M218.66,206.91s-1.28,16.25-19.7,17.88c2.89-.94,9.51-5.2,9.51-5.2s-6.32,1.82-9.06,1.82c8.27-2.1,10.77-5.41,10.77-5.41a12.67,12.67,0,0,1-15.6-5.08,27.43,27.43,0,0,0,2.09,6.41,13.59,13.59,0,0,1-3.61-8.53c-.47-5.63.41-8.23.41-8.23s-10.29-9.18-12.94-14.28c-5.53-4.41-14.74-9-21.67-12.71A98.24,98.24,0,0,1,144.77,164s8.56,4.63,12.93,6c-13.2-10.49-30.08-19.45-35.92-26.85,8.48,6.75,26.66,17.24,26.66,17.24L173,173.58l-6.22.73a158.8,158.8,0,0,1,19.28,7.29c8.82,4.17,17.5,10.34,19.91,12.72-4.4,1-7.11,2-8.86,5.87s-.61,10.24,2.49,13,9.66,3.26,13,1a14.56,14.56,0,0,0,4.37-4l1-3.66Z" />
        <path d="M257,206.91s1.1,16.25,17,17.88c-2.5-.94-8.19-5.2-8.19-5.2s5.44,1.82,7.8,1.82c-7.12-2.1-9.28-5.41-9.28-5.41s8,4.18,13.43-5.08a29.88,29.88,0,0,1-1.8,6.41A14.57,14.57,0,0,0,279,208.8c.4-5.63-.35-8.23-.35-8.23s8.86-9.18,11.13-14.28c4.76-4.41,12.69-9,18.65-12.71A86,86,0,0,0,320.54,164s-7.37,4.63-11.13,6c11.36-10.49,25.88-19.45,30.91-26.85-7.3,6.75-22.94,17.24-22.94,17.24l-21.17,13.19,5.35.73A125.15,125.15,0,0,0,285,181.6c-7.59,4.17-15.06,10.34-17.14,12.72,3.79,1,6.13,2,7.63,5.87s.53,10.24-2.14,13-8.31,3.26-11.17,1a13.6,13.6,0,0,1-3.76-4l-.83-3.66Z" />
        <path d="M268.23,265.57a13.21,13.21,0,0,1-4.72,3.08l1.05-3.06s-4.63,7.25-9.78,10.58l1.66-3.59s-9.7,7.25-12.76,11.89c-9.09-8.92-16.17-10.4-27.26-10.4a35.51,35.51,0,0,1-19-5.65l2.61,4.19s-24.17-14-29.81-20.8c18.78,11.11,19.87,14.16,33,13.64a11.23,11.23,0,0,1-4.54-4.24s4.72-.71,13.34,2.72,13.63,5.36,15.38,5.48a22.25,22.25,0,0,1-2.84-3.88s7.38,3.18,10.35,5.33S243.8,280,243.8,280a21.14,21.14,0,0,1,5.48-9.38c4.43-4.48,5.23-4.89,5.23-4.89a3.73,3.73,0,0,1-.87,3.58c5-2.07,7.79-5.94,11-7.26s4.24-1.12,4.24-1.12l-1.16,3.57Z" />
        <path d="M252.07,237.66s-3.55-4.14-7.57-4-10.75,3-12,5.59c3.16,10.2,11.32,21.26,11.55,23.48A88.08,88.08,0,0,0,251,245.21,43.33,43.33,0,0,0,252.07,237.66Z" />
        <path d="M172.47,184s-5.07,8.26-6.3,15.45c-1.48,8-2.18,12.52-2.18,12.52l3.15-6.11s-2.45,12.67-2.71,21.84,9.46,21.41,14.36,26.18,13.51,9.56,13.51,9.56-14.89-6.73-19.7-10l-4.81-3.31s4.47,14.51,5.52,19.17,4.87,16.57,5.35,20.4l-2.5-2.91a121.19,121.19,0,0,0,.88,16.39c1.05,7.25,1.75,11.79,1.75,11.79l.64,2.67,7.8,10.67s-12.16-12.11-18.95-15.52a88.72,88.72,0,0,1-13.89-9.26s5.46-11.39,7.5-17.51,4-16.26,1.24-26.2-6.86-27-4.86-35.77l-2.44,2.3a96.73,96.73,0,0,1,1.29-17.42c1.57-9.47,3.14-13.25,3.14-13.25l-4.19,2.26s3.94-8.19,5.64-11.75,3.27-4.24,3.27-4.24Z" />
        <path d="M239.54,142.13s-8.44,1.57-13.45,1.45L230,145s-14.5,2-21.55,2.1a60.78,60.78,0,0,0-13.81,2h4.25s-17.18,6.7-21.26,11.18l.7-2.74,7.13-6.29-.33-.78,12.66-5-.64-2s18.94-1.73,23.59-2.09a54.74,54.74,0,0,1,8.44,0l.94-.1.54-.06,2.13-.23Z" />
        <path d="M179.29,290.28S191.83,303,202,305.93l-.23-2.44s18.46,12.58,24.7,14.68c1.16-.76,2.21-4.67,2.21-4.67s9.44,9,11.88,10.36a6.19,6.19,0,0,0,5.16,0l3.27-5.2s-4.06,2.77-5.46,2.77-11.61-4.33-12.75-6.54-5.56-6.39-5.56-6.39l-.3,4.89s-15.33-5.46-25.8-15.36l-.32,2.25s-8.49-1.53-14-5.77Z" />
        <path d="M246.65,344.5s-2.18,4.1-4.46,4.89c-13.54-5-16-14.12-16-14.12l-4.34-3.75.5,5,1.15,3.93s-14.6-6.44-20.45-10.2-9.88-6.39-9.88-6.39l1.32,3.8L179.72,320l-.29-2.46s11.89,5.32,12.08,4.09c.07-1.78.27-3.21.27-3.21s9.52,9.27,16,12.06,13.86,5.66,13.86,5.66l-.26-6.3,6,5.86s6.09,6.11,10.75,8,6.26,1.89,6.26,1.89Z" />
        <path d="M244.79,366.62s-16.68-3-22.8-17.23a74.17,74.17,0,0,0,.54,7.89s-24.77-9.56-31-19.21l.54,5.48s-36.29-32.69-35.81-44.84c-5.91,12.06-18.09,26.35-21.73,27a40.1,40.1,0,0,0-5.06,1.16l2.36,1.35S116.41,336.63,107,351s-16.07,34.12-16.07,34.12l2.19-.39-6,8.63.76,1L76,420.44l2.36.39L63.86,446.65h67.92s23.39-23.59,26.89-46c10,8.08,23.65,11.92,27.5,12.62-.24-4.19,0-9.08,0-9.08s25.28,6.17,32.27,5.7C212.84,393,212.8,386,212.8,386l9.73,3.56-1.3-7.28s3.5,7.06,14.45,12.91C243.83,380,236.08,377.56,244.79,366.62Z" />
        <path d="M171.72,294.28s1.44,15.42,5.13,21.55,10.38,12.41,10.38,12.41,30.86,26.79,44.84,35.33c-74.33-21.06-77.74-37.84-77.74-37.84L158.05,305l12.17-9Z" />
      </g>
    </g>
  </g>
</svg>