<svg id="Jewelry" xmlns="http://www.w3.org/2000/svg" viewBox="0 0 432 432">
  <defs>
    <style>.GUNDAN_ARMADILLO_JEWELRY_ARMADILLO_JEWELLERY_3_cls-1{fill:#e3a92b;}.GUNDAN_ARMADILLO_JEWELRY_ARMADILLO_JEWELLERY_3_cls-2,.GUNDAN_ARMADILLO_JEWELRY_ARMADILLO_JEWELLERY_3_cls-3{fill:none;stroke:#000;stroke-linecap:round;}.GUNDAN_ARMADILLO_JEWELRY_ARMADILLO_JEWELLERY_3_cls-2{stroke-linejoin:round;stroke-width:1.41px;}.GUNDAN_ARMADILLO_JEWELRY_ARMADILLO_JEWELLERY_3_cls-3{stroke-miterlimit:10;stroke-width:1.21px;}</style>
  </defs>
  <path class="GUNDAN_ARMADILLO_JEWELRY_ARMADILLO_JEWELLERY_3_cls-1" d="M132.77,182.59a12.1,12.1,0,1,0,6.6-4.15,4.12,4.12,0,0,0,.66,2.88,9.14,9.14,0,1,1-5,3.2A4.09,4.09,0,0,0,132.77,182.59Z" />
  <path class="GUNDAN_ARMADILLO_JEWELRY_ARMADILLO_JEWELLERY_3_cls-2" d="M131.87,196.56a12.1,12.1,0,1,0,7.5-18.12,4.12,4.12,0,0,0,.66,2.88,9.14,9.14,0,1,1-5,3.2c-1.09-.91-1.77-1.19-2.24-1.93A12.1,12.1,0,0,0,131.87,196.56Z" />
  <path class="GUNDAN_ARMADILLO_JEWELRY_ARMADILLO_JEWELLERY_3_cls-3" d="M140.67,183.44s-1.92-3.9-1.72-6.88" />
</svg>