<svg id="Jewelry" xmlns="http://www.w3.org/2000/svg" viewBox="0 0 432 432">
  <defs>
    <style>.GUNDAN_ARMADILLO_JEWELRY_ARMADILLO_JEWELLERY_20_cls-1{fill:#84442d;}.GUNDAN_ARMADILLO_JEWELRY_ARMADILLO_JEWELLERY_20_cls-2{fill:#009d61;stroke-miterlimit:10;stroke-width:2px;}.GUNDAN_ARMADILLO_JEWELRY_ARMADILLO_JEWELLERY_20_cls-2,.GUNDAN_ARMADILLO_JEWELRY_ARMADILLO_JEWELLERY_20_cls-3{stroke:#000;}.GUNDAN_ARMADILLO_JEWELRY_ARMADILLO_JEWELLERY_20_cls-3{fill:none;stroke-linecap:round;stroke-linejoin:round;stroke-width:1.84px;}</style>
  </defs>
  <path class="GUNDAN_ARMADILLO_JEWELRY_ARMADILLO_JEWELLERY_20_cls-1" d="M313,233.86a.92.92,0,0,1-.88-.67L312,233l-.57-2.26c-.3,0-.61,0-.91,0H310c-.28,0-.59,0-.88-.07h0l-.7,2.45a.92.92,0,0,1-.88.67.73.73,0,0,1-.25,0l-3.16-.89a.91.91,0,0,1-.63-1.13l.68-2.44a15.37,15.37,0,0,1-2.08-1.23l-1.8,1.77a.92.92,0,0,1-.65.26h0a.91.91,0,0,1-.64-.27l-2.3-2.36a.9.9,0,0,1-.26-.66.88.88,0,0,1,.28-.64l1.81-1.77a14.56,14.56,0,0,1-1.18-2.11l-2.45.63a.92.92,0,0,1-1.12-.66l-.82-3.18a.88.88,0,0,1,.1-.69.9.9,0,0,1,.56-.43l2.47-.63a13.87,13.87,0,0,1,0-2.41l-2.44-.69a.91.91,0,0,1-.63-1.13l.88-3.16a.94.94,0,0,1,.43-.56.92.92,0,0,1,.45-.12,1.17,1.17,0,0,1,.26,0l2.44.69a14.35,14.35,0,0,1,1.24-2.07l-1.78-1.82a.93.93,0,0,1,0-1.3l2.35-2.29a.9.9,0,0,1,.64-.26h0a.88.88,0,0,1,.64.28l1.77,1.82a13.67,13.67,0,0,1,2.11-1.18l-.63-2.47a.93.93,0,0,1,.67-1.12l2.2-.56,1-.24a.78.78,0,0,1,.22,0,.92.92,0,0,1,.89.69l.61,2.45,1,0a14.08,14.08,0,0,1,1.45.07l.7-2.45a.91.91,0,0,1,.43-.55.89.89,0,0,1,.45-.12.73.73,0,0,1,.25,0l3.16.89a.92.92,0,0,1,.63,1.13l-.68,2.45c.38.19.76.39,1.14.61s.63.4.93.61l1.81-1.76a.9.9,0,0,1,.64-.27.94.94,0,0,1,.66.28l2.3,2.35a.89.89,0,0,1,.27.65,1,1,0,0,1-.28.65l-1.83,1.78a14.34,14.34,0,0,1,1.18,2.1l2.46-.63.23,0a.92.92,0,0,1,.89.69l.81,3.18a.88.88,0,0,1-.1.69.94.94,0,0,1-.56.43l-2.47.63a13.72,13.72,0,0,1,0,2.4l2.45.69a.93.93,0,0,1,.63,1.14l-.89,3.16a.92.92,0,0,1-.44.56,1,1,0,0,1-.45.11,1,1,0,0,1-.24,0l-2.45-.69c-.22.44-.45.87-.7,1.27s-.35.54-.53.8l1.77,1.82a.92.92,0,0,1,0,1.3L322.73,229l-1.16,1.11a.93.93,0,0,1-.64.26.9.9,0,0,1-.65-.28l-1.77-1.82a15.46,15.46,0,0,1-2.1,1.18l.62,2.46a.92.92,0,0,1-.66,1.12l-3,.77-.2,0A.55.55,0,0,1,313,233.86Zm-2.54-28a10.47,10.47,0,0,0-10,7.61,10.72,10.72,0,0,0-.39,2.62,10.44,10.44,0,1,0,19.54-4.91,10.33,10.33,0,0,0-6.27-4.93A10.52,10.52,0,0,0,310.41,205.87Z" />
  <path d="M307.89,199.66l.81,3.22a13.09,13.09,0,0,1,1.66-.1,13.85,13.85,0,0,1,2.12.16l.91-3.21,3.16.89-.9,3.21a16.27,16.27,0,0,1,1.77.89,13.51,13.51,0,0,1,1.48,1l2.37-2.32,2.31,2.35-2.39,2.33A13.8,13.8,0,0,1,323,211.4l3.23-.82.81,3.19-3.23.82a13.24,13.24,0,0,1,0,3.77l3.21.91-.9,3.17-3.21-.91a13.42,13.42,0,0,1-1,1.89,12.7,12.7,0,0,1-1,1.35l2.33,2.39-1.21,1.18-1.15,1.11-2.32-2.38a14.06,14.06,0,0,1-3.3,1.84l.82,3.23-3,.77-.15,0-.06-.21-.76-3a12.06,12.06,0,0,1-1.6.1H310c-.28,0-.55,0-.82-.06s-.54,0-.8-.09l-.91,3.2L304.3,232l.9-3.21a13.2,13.2,0,0,1-3.25-1.92l-2.38,2.32-2.29-2.35,2.38-2.32a13.56,13.56,0,0,1-1.85-3.3l-3.22.82-.82-3.18L297,218a12.82,12.82,0,0,1,0-3.76l-3.2-.91.88-3.17,1.07.31,2.15.6a12.7,12.7,0,0,1,1.93-3.24l-2.33-2.39,2.35-2.29,2.32,2.38a13.71,13.71,0,0,1,3.3-1.84l-.82-3.24,2.2-.56,1-.24m2.54,28a11.36,11.36,0,1,0-10.94-14.43,12.14,12.14,0,0,0-.43,2.84,11.39,11.39,0,0,0,11.37,11.59m-2.53-29.83a1.58,1.58,0,0,0-.43,0l-1,.24-2.23.56a1.84,1.84,0,0,0-1.33,2.23l.45,1.75a9.84,9.84,0,0,0-.9.5l-1.25-1.28a1.84,1.84,0,0,0-1.29-.56h0a1.88,1.88,0,0,0-1.28.52l-2.35,2.29a1.83,1.83,0,0,0,0,2.6l1.25,1.28c-.19.29-.36.58-.53.88l-.67-.18-1.05-.3a1.79,1.79,0,0,0-.51-.07,1.84,1.84,0,0,0-.89.23,1.82,1.82,0,0,0-.87,1.11l-.89,3.17a1.84,1.84,0,0,0,1.27,2.26l1.72.48c0,.35,0,.69,0,1l-1.75.44A1.85,1.85,0,0,0,292,219.3l.82,3.18a1.84,1.84,0,0,0,1.78,1.38,1.82,1.82,0,0,0,.46-.06l1.72-.44c.16.3.33.6.51.89L296,225.5a1.83,1.83,0,0,0,0,2.6l2.3,2.36a1.79,1.79,0,0,0,1.29.55h0a1.87,1.87,0,0,0,1.29-.52l1.27-1.25c.29.18.58.36.88.52l-.48,1.72a1.84,1.84,0,0,0,1.27,2.26l3.16.9a2.15,2.15,0,0,0,.5.07,1.82,1.82,0,0,0,1.76-1.34l.49-1.72H310l.58,0h.2l.38,1.52v0l.07.21a1.82,1.82,0,0,0,1.76,1.34,1.47,1.47,0,0,0,.36,0l.15,0,.09,0,3.05-.77a1.84,1.84,0,0,0,1.32-2.24l-.44-1.73.89-.5,1.25,1.28a1.84,1.84,0,0,0,1.32.56,1.82,1.82,0,0,0,1.27-.52l1.15-1.11,1.22-1.18a1.84,1.84,0,0,0,0-2.6l-1.25-1.29.13-.21.39-.66,1.73.48a1.66,1.66,0,0,0,.49.07,1.85,1.85,0,0,0,.9-.23,1.82,1.82,0,0,0,.87-1.11l.89-3.16a1.84,1.84,0,0,0-1.26-2.27l-1.73-.49c0-.33,0-.68,0-1l1.75-.45a1.83,1.83,0,0,0,1.32-2.23l-.82-3.18a1.82,1.82,0,0,0-1.77-1.38,2.49,2.49,0,0,0-.46.05l-1.73.45c-.16-.31-.33-.61-.5-.9l1.29-1.25a1.82,1.82,0,0,0,0-2.6l-2.31-2.35a1.84,1.84,0,0,0-2.59,0l-1.28,1.25c-.11-.08-.23-.15-.35-.22a5.54,5.54,0,0,0-.53-.3l.49-1.73a1.84,1.84,0,0,0-1.27-2.26l-3.16-.9a2.15,2.15,0,0,0-.5-.07,1.81,1.81,0,0,0-.9.24,1.84,1.84,0,0,0-.87,1.1l-.49,1.73-.77,0h-.25l-.43-1.72a1.83,1.83,0,0,0-1.78-1.39Zm2.53,28a9.54,9.54,0,0,1-9.53-9.71,10,10,0,0,1,.36-2.4,9.55,9.55,0,0,1,9.15-6.93,9.87,9.87,0,0,1,2.59.36,9.52,9.52,0,0,1-2.57,18.68Z" />
  <circle class="GUNDAN_ARMADILLO_JEWELRY_ARMADILLO_JEWELLERY_20_cls-2" cx="310.42" cy="217.79" r="5.56" />
  <line class="GUNDAN_ARMADILLO_JEWELRY_ARMADILLO_JEWELLERY_20_cls-3" x1="310.42" y1="212.23" x2="310.42" y2="206.51" />
  <path class="GUNDAN_ARMADILLO_JEWELRY_ARMADILLO_JEWELLERY_20_cls-3" d="M320.56,183.33a6.94,6.94,0,0,1,1.11,3" />
  <path class="GUNDAN_ARMADILLO_JEWELRY_ARMADILLO_JEWELLERY_20_cls-3" d="M310.42,201.77v-17a6.32,6.32,0,0,1,1.19-3.79" />
  <path class="GUNDAN_ARMADILLO_JEWELRY_ARMADILLO_JEWELLERY_20_cls-3" d="M310.16,179.53s2.38.46,2.56,4" />
</svg>