<svg id="Jewelry" xmlns="http://www.w3.org/2000/svg" viewBox="0 0 432 432">
  <defs>
    <style>.GUNDAN_ARMADILLO_JEWELRY_ARMADILLO_JEWELLERY_16_cls-1{fill:#afafaf;}.GUNDAN_ARMADILLO_JEWELRY_ARMADILLO_JEWELLERY_16_cls-2{fill:#494949;}.GUNDAN_ARMADILLO_JEWELRY_ARMADILLO_JEWELLERY_16_cls-11,.GUNDAN_ARMADILLO_JEWELRY_ARMADILLO_JEWELLERY_16_cls-3{fill:#8c8c8c;}.GUNDAN_ARMADILLO_JEWELRY_ARMADILLO_JEWELLERY_16_cls-4,.GUNDAN_ARMADILLO_JEWELRY_ARMADILLO_JEWELLERY_16_cls-5{fill:none;}.GUNDAN_ARMADILLO_JEWELRY_ARMADILLO_JEWELLERY_16_cls-11,.GUNDAN_ARMADILLO_JEWELRY_ARMADILLO_JEWELLERY_16_cls-4,.GUNDAN_ARMADILLO_JEWELRY_ARMADILLO_JEWELLERY_16_cls-5{stroke:#000;stroke-linecap:round;stroke-linejoin:round;}.GUNDAN_ARMADILLO_JEWELRY_ARMADILLO_JEWELLERY_16_cls-4{stroke-width:0.85px;}.GUNDAN_ARMADILLO_JEWELRY_ARMADILLO_JEWELLERY_16_cls-5{stroke-width:0.81px;}.GUNDAN_ARMADILLO_JEWELRY_ARMADILLO_JEWELLERY_16_cls-6{fill:#214919;}.GUNDAN_ARMADILLO_JEWELRY_ARMADILLO_JEWELLERY_16_cls-7{fill:#45793b;}.GUNDAN_ARMADILLO_JEWELRY_ARMADILLO_JEWELLERY_16_cls-8{fill:#8cdd7d;}.GUNDAN_ARMADILLO_JEWELRY_ARMADILLO_JEWELLERY_16_cls-9{fill:#c1c1c1;}.GUNDAN_ARMADILLO_JEWELRY_ARMADILLO_JEWELLERY_16_cls-10{fill:#888d85;}.GUNDAN_ARMADILLO_JEWELRY_ARMADILLO_JEWELLERY_16_cls-11{stroke-width:0.68px;}</style>
  </defs>
  <ellipse cx="246.84" cy="358.37" rx="3.27" ry="3.43" transform="translate(-2.97 2.07) rotate(-0.48)" />
  <path d="M138.31,285.28l.88-4.36a5.39,5.39,0,0,0-4.65,1.66" />
  <path class="GUNDAN_ARMADILLO_JEWELRY_ARMADILLO_JEWELLERY_16_cls-1" d="M196.55,341s-2.77-2.22-5.19-3.76c0,0,0,0,0,0a4,4,0,0,0,1.17-1,3.57,3.57,0,0,0,.62-1.19,18.27,18.27,0,0,1,3.7,2.36c.43.41.79.76,1.06,1.07A4,4,0,0,0,196.55,341Z" />
  <path class="GUNDAN_ARMADILLO_JEWELRY_ARMADILLO_JEWELLERY_16_cls-1" d="M181,332.06c.52,1,4.82,3.75,7.49,3.55h0a2,2,0,0,0,1.57-.69,1.7,1.7,0,0,0,.47-1.08h.12s1.12.49,2.48,1.16a3.57,3.57,0,0,1-.62,1.19,4,4,0,0,1-1.17,1s0,0,0,0c-1.72,1-4.38.91-7-.31-3.32-1.56-5.75-3.43-5.68-5.45a4.07,4.07,0,0,1,1.37-2.58,6.77,6.77,0,0,1,1.05,1.29,1.69,1.69,0,0,0-.3,1.14A1.55,1.55,0,0,0,181,332.06Z" />
  <path class="GUNDAN_ARMADILLO_JEWELRY_ARMADILLO_JEWELLERY_16_cls-1" d="M140.39,291.49a1.74,1.74,0,0,1-.66.87,3.27,3.27,0,0,1-3.07.55,2.12,2.12,0,0,1,.19-.75,2.23,2.23,0,0,1,.88-.91h0a5.82,5.82,0,0,0-.26-1.56,5,5,0,0,0-2.56,1.79s-.52-1.18-1.24-2.63v0c-.87-2.17-.34-6,2.4-6.87h0c2.78-.94,2,3,2.1,3.13,1.21,2,1.41,1.88,2.1,4.17A3.61,3.61,0,0,1,140.39,291.49Z" />
  <path class="GUNDAN_ARMADILLO_JEWELRY_ARMADILLO_JEWELLERY_16_cls-2" d="M140.38,291.49a3.53,3.53,0,0,0-.11-2.25,12.24,12.24,0,0,1,5.77,4.68,7,7,0,0,1,1,3.6c-.11-.08-.19-.17-.28-.22a5.78,5.78,0,0,0-2.46-1.28A9.3,9.3,0,0,0,140.38,291.49Z" />
  <path class="GUNDAN_ARMADILLO_JEWELRY_ARMADILLO_JEWELLERY_16_cls-1" d="M134.9,291.47a4.87,4.87,0,0,1,2.56-1.78,5.69,5.69,0,0,1,.26,1.55h0a2.1,2.1,0,0,0-.87.91,1.69,1.69,0,0,0-.2.75c0,1,1.83,4.34,4,5.68a2.71,2.71,0,0,0,2.6.4,3.15,3.15,0,0,0,.78-.54c.21.14,1.11.75,2.12,1.53a4.39,4.39,0,0,1-1.4,1.09,4.85,4.85,0,0,1-1.3.43,7,7,0,0,1-6.34-2.94C135,295.88,133.8,293.26,134.9,291.47Z" />
  <path class="GUNDAN_ARMADILLO_JEWELRY_ARMADILLO_JEWELLERY_16_cls-1" d="M143.47,301.5a4.85,4.85,0,0,0,1.3-.43,4.39,4.39,0,0,0,1.4-1.09h0a16.21,16.21,0,0,1,3.11,2.89c.34.48.61.88.83,1.22a4.25,4.25,0,0,0-1.93,2.3h0A55,55,0,0,0,143.47,301.5Z" />
  <path class="GUNDAN_ARMADILLO_JEWELRY_ARMADILLO_JEWELLERY_16_cls-3" d="M143.27,299a2.71,2.71,0,0,1-2.6-.4,1.32,1.32,0,0,1,.17-1.35,3.44,3.44,0,0,1,3.47-1.22,5.78,5.78,0,0,1,2.46,1.28c.09.05.17.14.28.22h0c1.75,1.45,4.36,3.58,5.64,5.51a3.84,3.84,0,0,1,.82,2.1,1.67,1.67,0,0,1-.38,1,3.12,3.12,0,0,1-2.81,1.23,1.76,1.76,0,0,1,0-.75,1.86,1.86,0,0,1,.55-1.08h0a5.88,5.88,0,0,0-.73-1.43c-.22-.34-.49-.74-.83-1.22a16.21,16.21,0,0,0-3.11-2.89h0c-1-.78-1.91-1.39-2.12-1.53A3.15,3.15,0,0,1,143.27,299Z" />
  <path class="GUNDAN_ARMADILLO_JEWELRY_ARMADILLO_JEWELLERY_16_cls-2" d="M167.7,318.16a3.58,3.58,0,0,0-.61-2.16h0a13.15,13.15,0,0,1,6.72,3.61,7.45,7.45,0,0,1,1.8,3.37,2.28,2.28,0,0,1-.32-.18,6.1,6.1,0,0,0-2.71-.83A10.3,10.3,0,0,0,167.7,318.16Z" />
  <path class="GUNDAN_ARMADILLO_JEWELRY_ARMADILLO_JEWELLERY_16_cls-2" d="M158.47,308.31a10.69,10.69,0,0,0-4.95-3.17,3.84,3.84,0,0,0-.82-2.1,13.43,13.43,0,0,1,7,3.13,6.71,6.71,0,0,1,2.22,3.95c-.08-.09-.17-.16-.23-.22A5.08,5.08,0,0,0,158.47,308.31Z" />
  <path class="GUNDAN_ARMADILLO_JEWELRY_ARMADILLO_JEWELLERY_16_cls-1" d="M158.52,314.35a8.17,8.17,0,0,1-6-1.65c-2.89-2.09-4.85-4.33-4.34-6.31a4.25,4.25,0,0,1,1.93-2.3,5.88,5.88,0,0,1,.73,1.43h0a1.86,1.86,0,0,0-.55,1.08,1.76,1.76,0,0,0,0,.75c.28,1,3.31,3.93,5.88,4.64h0a2.57,2.57,0,0,0,2.38-.32,1.69,1.69,0,0,0,.54-.61c.42.33,1.22,1,2.06,1.75v0a5.66,5.66,0,0,1-.49.49A4.36,4.36,0,0,1,158.52,314.35Z" />
  <path class="GUNDAN_ARMADILLO_JEWELRY_ARMADILLO_JEWELLERY_16_cls-3" d="M156.23,312h0c-.78-.93-1.07-1.79-.41-2.55a3.44,3.44,0,0,1,2.67-1.14,5.08,5.08,0,0,1,3.24,1.59c.06.06.15.13.23.22h0a29.38,29.38,0,0,1,5.14,5.86h0a3.58,3.58,0,0,1,.61,2.16h0a1.6,1.6,0,0,1-.45.95,3.19,3.19,0,0,1-2.9,1.05,1.6,1.6,0,0,1,0-.76,2.05,2.05,0,0,1,.64-1,6.15,6.15,0,0,0-.61-1.49c-.17-.36-.41-.78-.7-1.27a13.93,13.93,0,0,0-2.5-2.79c-.84-.76-1.64-1.42-2.06-1.75a1.69,1.69,0,0,1-.54.61A2.57,2.57,0,0,1,156.23,312Z" />
  <path class="GUNDAN_ARMADILLO_JEWELRY_ARMADILLO_JEWELLERY_16_cls-1" d="M161.21,312.82a13.93,13.93,0,0,1,2.5,2.79c.29.49.53.91.7,1.27a4.69,4.69,0,0,0-2.12,2.18s-1.92-2.67-3.77-4.71a4.36,4.36,0,0,0,2.2-1,5.66,5.66,0,0,0,.49-.49Z" />
  <path class="GUNDAN_ARMADILLO_JEWELRY_ARMADILLO_JEWELLERY_16_cls-1" d="M164.35,320.17c.18,1,2.77,3.95,5.21,4.92a2.72,2.72,0,0,0,2.65-.07,2.16,2.16,0,0,0,.64-.64c.23.1,1.25.53,2.43,1.13a4.26,4.26,0,0,1-1.13,1.32,4.12,4.12,0,0,1-1.2.61c-2,.71-4.66.07-6.88-1.8-2.71-2.28-4.46-4.64-3.78-6.58a4.69,4.69,0,0,1,2.12-2.18,6.15,6.15,0,0,1,.61,1.49,2.05,2.05,0,0,0-.64,1A1.6,1.6,0,0,0,164.35,320.17Z" />
  <path class="GUNDAN_ARMADILLO_JEWELRY_ARMADILLO_JEWELLERY_16_cls-1" d="M179,327.82c.43.42.79.75,1.07,1.06h0a4.07,4.07,0,0,0-1.37,2.58h0a60,60,0,0,0-5.73-4v0a4.12,4.12,0,0,0,1.2-.61,4.26,4.26,0,0,0,1.13-1.32A18.22,18.22,0,0,1,179,327.82Z" />
  <path class="GUNDAN_ARMADILLO_JEWELRY_ARMADILLO_JEWELLERY_16_cls-3" d="M180.07,328.88c-.28-.31-.64-.64-1.07-1.06a18.22,18.22,0,0,0-3.72-2.31c-1.18-.6-2.2-1-2.43-1.13a2.16,2.16,0,0,1-.64.64,2.72,2.72,0,0,1-2.65.07,1.28,1.28,0,0,1-.12-1.36,3.21,3.21,0,0,1,3.13-1.77,6.1,6.1,0,0,1,2.71.83,2.28,2.28,0,0,0,.32.18,52.1,52.1,0,0,1,6.79,4.45l1.16,1.59c0,.11.08.24.11.35a1.67,1.67,0,0,1-.15,1,2.94,2.94,0,0,1-2.48,1.67,1.55,1.55,0,0,1-.21-.74,1.69,1.69,0,0,1,.3-1.14,6.77,6.77,0,0,0-1.05-1.29Z" />
  <path class="GUNDAN_ARMADILLO_JEWELRY_ARMADILLO_JEWELLERY_16_cls-2" d="M189.22,331.61a11.62,11.62,0,0,0-5.56-2.25c0-.11-.07-.24-.11-.35l-1.16-1.59a14.23,14.23,0,0,1,7.59,1.92,8.31,8.31,0,0,1,2.72,2.7,5,5,0,0,0-3.09-.53Z" />
  <path class="GUNDAN_ARMADILLO_JEWELRY_ARMADILLO_JEWELLERY_16_cls-3" d="M188.52,335.56c-1-.72-1.57-1.48-1.15-2.36a3.11,3.11,0,0,1,1.85-1.59l.39-.1a5,5,0,0,1,3.09.53,4,4,0,0,1,.5.26,1.49,1.49,0,0,1,.3.18h0a34.4,34.4,0,0,1,6.77,4.48v0a4.15,4.15,0,0,1,1.26,1.95,1.71,1.71,0,0,1-.15,1,3,3,0,0,1-2.51,1.66,1.68,1.68,0,0,1-.2-.74,1.77,1.77,0,0,1,.32-1.14h0a7,7,0,0,0-1-1.28c-.27-.31-.63-.66-1.06-1.07a18.27,18.27,0,0,0-3.7-2.36c-1.36-.67-2.48-1.16-2.48-1.16h-.12a1.7,1.7,0,0,1-.47,1.08,2,2,0,0,1-1.57.69v0Z" />
  <path class="GUNDAN_ARMADILLO_JEWELRY_ARMADILLO_JEWELLERY_16_cls-2" d="M207.86,338.94a8.19,8.19,0,0,1,2.75,2.82c-.12,0-.25-.07-.35-.09a6.45,6.45,0,0,0-2.88-.2,11.39,11.39,0,0,0-5.84-2.55,4.15,4.15,0,0,0-1.26-1.95A14,14,0,0,1,207.86,338.94Z" />
  <path class="GUNDAN_ARMADILLO_JEWELRY_ARMADILLO_JEWELLERY_16_cls-1" d="M209.42,346.67c-1.74,1.13-4.52,1.11-7.23-.19-3.3-1.58-5.71-3.47-5.63-5.48h0a4,4,0,0,1,1.4-2.56,7,7,0,0,1,1,1.28h0a1.77,1.77,0,0,0-.32,1.14,1.68,1.68,0,0,0,.2.74c.48.88,3.88,3.18,6.54,3.55a2.64,2.64,0,0,0,2.54-.64,2.19,2.19,0,0,0,.43-.76c.27,0,1.39.23,2.7.54a3.49,3.49,0,0,1-.7,1.5,4,4,0,0,1-.95.88Z" />
  <path class="GUNDAN_ARMADILLO_JEWELRY_ARMADILLO_JEWELLERY_16_cls-1" d="M216.19,349.25a69.35,69.35,0,0,0-6.75-2.58,4,4,0,0,0,.95-.88,3.49,3.49,0,0,0,.7-1.5,20.49,20.49,0,0,1,4.3,1.39c.55.3,1,.55,1.36.77A3.85,3.85,0,0,0,216.19,349.25Z" />
  <path class="GUNDAN_ARMADILLO_JEWELRY_ARMADILLO_JEWELLERY_16_cls-3" d="M205.42,345.15a1.32,1.32,0,0,1-.54-1.26,2.94,2.94,0,0,1,2.5-2.42,6.45,6.45,0,0,1,2.88.2c.1,0,.23.07.35.09h0a37.08,37.08,0,0,1,7.9,2.76,4.45,4.45,0,0,1,1.81,1.59,1.4,1.4,0,0,1,.19,1,2.68,2.68,0,0,1-1.9,2.17,1.67,1.67,0,0,1-.42-.66,1.62,1.62,0,0,1-.05-1.17h0a8.35,8.35,0,0,0-1.41-1c-.36-.22-.81-.47-1.36-.77a20.49,20.49,0,0,0-4.3-1.39c-1.31-.31-2.43-.5-2.7-.54a2.19,2.19,0,0,1-.43.76A2.64,2.64,0,0,1,205.42,345.15Z" />
  <path class="GUNDAN_ARMADILLO_JEWELRY_ARMADILLO_JEWELLERY_16_cls-3" d="M216.75,346.45a8.35,8.35,0,0,1,1.41,1h0a1.62,1.62,0,0,0,.05,1.17,1.67,1.67,0,0,0,.42.66c1,1,8.47,3.4,9.68.7,1.35-3-5.71-4.37-8-3.88a4.45,4.45,0,0,0-1.81-1.59,14.54,14.54,0,0,1,8,.15c3.85,1.34,5.43,3.78,4.56,6s-4,3.29-7.7,2.54-6.61-2-7.16-4h0A3.85,3.85,0,0,1,216.75,346.45Z" />
  <path class="GUNDAN_ARMADILLO_JEWELRY_ARMADILLO_JEWELLERY_16_cls-4" d="M137.72,291.24a5.69,5.69,0,0,0-.26-1.55c-.1-.38-.23-.84-.4-1.38a12.73,12.73,0,0,0-1.67-2.93" />
  <path class="GUNDAN_ARMADILLO_JEWELRY_ARMADILLO_JEWELLERY_16_cls-4" d="M134.9,291.47s-.52-1.18-1.24-2.63v0" />
  <path class="GUNDAN_ARMADILLO_JEWELRY_ARMADILLO_JEWELLERY_16_cls-4" d="M136.05,281.94l2.55-.62c.09.13-.62,3.72-.53,3.86,1.22,1.79,1.51,1.77,2.2,4.06a3.61,3.61,0,0,1,.12,2.25,1.74,1.74,0,0,1-.66.87,3.27,3.27,0,0,1-3.07.55" />
  <path class="GUNDAN_ARMADILLO_JEWELRY_ARMADILLO_JEWELLERY_16_cls-4" d="M137.73,291.25a2.1,2.1,0,0,0-.87.91,1.69,1.69,0,0,0-.2.75c0,1,1.83,4.34,4,5.68a2.71,2.71,0,0,0,2.6.4,3.15,3.15,0,0,0,.78-.54" />
  <path class="GUNDAN_ARMADILLO_JEWELRY_ARMADILLO_JEWELLERY_16_cls-4" d="M144.31,296a9.3,9.3,0,0,0-3.93-4.53" />
  <path class="GUNDAN_ARMADILLO_JEWELRY_ARMADILLO_JEWELLERY_16_cls-4" d="M146.17,300a4.39,4.39,0,0,1-1.4,1.09,4.85,4.85,0,0,1-1.3.43,7,7,0,0,1-6.34-2.94c-2.15-2.68-3.33-5.3-2.23-7.09a4.87,4.87,0,0,1,2.56-1.78h0" />
  <path class="GUNDAN_ARMADILLO_JEWELRY_ARMADILLO_JEWELLERY_16_cls-4" d="M147.05,297.52a7,7,0,0,0-1-3.6,12.24,12.24,0,0,0-5.77-4.68" />
  <path class="GUNDAN_ARMADILLO_JEWELRY_ARMADILLO_JEWELLERY_16_cls-4" d="M150.85,305.52a5.88,5.88,0,0,0-.73-1.43c-.22-.34-.49-.74-.83-1.22a16.21,16.21,0,0,0-3.11-2.89h0c-1-.78-1.91-1.39-2.12-1.53l-.07,0" />
  <path class="GUNDAN_ARMADILLO_JEWELRY_ARMADILLO_JEWELLERY_16_cls-4" d="M148.17,306.4a55,55,0,0,0-4.7-4.9" />
  <path class="GUNDAN_ARMADILLO_JEWELRY_ARMADILLO_JEWELLERY_16_cls-4" d="M140.67,298.59a1.32,1.32,0,0,1,.17-1.35,3.44,3.44,0,0,1,3.47-1.22,5.78,5.78,0,0,1,2.46,1.28c.09.05.17.14.28.22h0c1.75,1.45,4.36,3.58,5.64,5.51a3.84,3.84,0,0,1,.82,2.1,1.67,1.67,0,0,1-.38,1,3.12,3.12,0,0,1-2.81,1.23" />
  <path class="GUNDAN_ARMADILLO_JEWELRY_ARMADILLO_JEWELLERY_16_cls-4" d="M156.23,312a2.57,2.57,0,0,0,2.38-.32,1.69,1.69,0,0,0,.54-.61" />
  <path class="GUNDAN_ARMADILLO_JEWELRY_ARMADILLO_JEWELLERY_16_cls-4" d="M150.85,305.53a1.86,1.86,0,0,0-.55,1.08,1.76,1.76,0,0,0,0,.75c.28,1,3.31,3.93,5.88,4.64" />
  <path class="GUNDAN_ARMADILLO_JEWELRY_ARMADILLO_JEWELLERY_16_cls-4" d="M158.47,308.31a10.69,10.69,0,0,0-4.95-3.17h0" />
  <path class="GUNDAN_ARMADILLO_JEWELRY_ARMADILLO_JEWELLERY_16_cls-4" d="M150.12,304.08h0a4.25,4.25,0,0,0-1.93,2.3c-.51,2,1.45,4.22,4.34,6.31a8.17,8.17,0,0,0,6,1.65,4.36,4.36,0,0,0,2.2-1,5.66,5.66,0,0,0,.49-.49" />
  <path class="GUNDAN_ARMADILLO_JEWELRY_ARMADILLO_JEWELLERY_16_cls-4" d="M161.94,310.12a6.71,6.71,0,0,0-2.22-3.95,13.43,13.43,0,0,0-7-3.13s0,0,0,0" />
  <path class="GUNDAN_ARMADILLO_JEWELRY_ARMADILLO_JEWELLERY_16_cls-4" d="M165,318.37a6.15,6.15,0,0,0-.61-1.49c-.17-.36-.41-.78-.7-1.27a13.93,13.93,0,0,0-2.5-2.79c-.84-.76-1.64-1.42-2.06-1.75l-.32-.25" />
  <path class="GUNDAN_ARMADILLO_JEWELRY_ARMADILLO_JEWELLERY_16_cls-4" d="M162.29,319.06s-1.92-2.67-3.77-4.71" />
  <path class="GUNDAN_ARMADILLO_JEWELRY_ARMADILLO_JEWELLERY_16_cls-4" d="M156.23,312h0c-.78-.93-1.07-1.79-.41-2.55a3.44,3.44,0,0,1,2.67-1.14,5.08,5.08,0,0,1,3.24,1.59c.06.06.15.13.23.22h0a29.38,29.38,0,0,1,5.14,5.86h0a3.58,3.58,0,0,1,.61,2.16h0a1.6,1.6,0,0,1-.45.95,3.19,3.19,0,0,1-2.9,1.05h0" />
  <path class="GUNDAN_ARMADILLO_JEWELRY_ARMADILLO_JEWELLERY_16_cls-4" d="M165,318.37a2.05,2.05,0,0,0-.64,1,1.6,1.6,0,0,0,0,.76c.18,1,2.77,3.95,5.21,4.92a2.72,2.72,0,0,0,2.65-.07,2.16,2.16,0,0,0,.64-.64" />
  <path class="GUNDAN_ARMADILLO_JEWELRY_ARMADILLO_JEWELLERY_16_cls-4" d="M172.57,322a10.3,10.3,0,0,0-4.87-3.8" />
  <path class="GUNDAN_ARMADILLO_JEWELRY_ARMADILLO_JEWELLERY_16_cls-4" d="M175.28,325.51a4.26,4.26,0,0,1-1.13,1.32,4.12,4.12,0,0,1-1.2.61c-2,.71-4.66.07-6.88-1.8-2.71-2.28-4.46-4.64-3.78-6.58a4.69,4.69,0,0,1,2.12-2.18h0" />
  <path class="GUNDAN_ARMADILLO_JEWELRY_ARMADILLO_JEWELLERY_16_cls-4" d="M175.6,323a7.45,7.45,0,0,0-1.8-3.37,13.15,13.15,0,0,0-6.72-3.61" />
  <path class="GUNDAN_ARMADILLO_JEWELRY_ARMADILLO_JEWELLERY_16_cls-4" d="M180.07,328.88c-.28-.31-.64-.64-1.07-1.06a18.22,18.22,0,0,0-3.72-2.31c-1.18-.6-2.2-1-2.43-1.13l-.06,0" />
  <path class="GUNDAN_ARMADILLO_JEWELRY_ARMADILLO_JEWELLERY_16_cls-4" d="M181.12,330.18a6.77,6.77,0,0,0-1.05-1.29" />
  <path class="GUNDAN_ARMADILLO_JEWELRY_ARMADILLO_JEWELLERY_16_cls-4" d="M178.69,331.47a60,60,0,0,0-5.73-4" />
  <path class="GUNDAN_ARMADILLO_JEWELRY_ARMADILLO_JEWELLERY_16_cls-4" d="M169.56,325.09a1.28,1.28,0,0,1-.12-1.36,3.21,3.21,0,0,1,3.13-1.77,6.1,6.1,0,0,1,2.71.83,2.28,2.28,0,0,0,.32.18,52.1,52.1,0,0,1,6.79,4.45l1.16,1.59c0,.11.08.24.11.35a1.67,1.67,0,0,1-.15,1,2.94,2.94,0,0,1-2.48,1.67" />
  <path class="GUNDAN_ARMADILLO_JEWELRY_ARMADILLO_JEWELLERY_16_cls-4" d="M183.64,329.37h0a11.62,11.62,0,0,1,5.56,2.25" />
  <path class="GUNDAN_ARMADILLO_JEWELRY_ARMADILLO_JEWELLERY_16_cls-4" d="M190.59,333.83a1.7,1.7,0,0,1-.47,1.08,2,2,0,0,1-1.57.69h0c-2.67.2-7-2.57-7.49-3.55a1.55,1.55,0,0,1-.21-.74,1.69,1.69,0,0,1,.3-1.14" />
  <path class="GUNDAN_ARMADILLO_JEWELRY_ARMADILLO_JEWELLERY_16_cls-4" d="M182.37,327.42h0a14.23,14.23,0,0,1,7.59,1.92,8.31,8.31,0,0,1,2.72,2.7" />
  <path class="GUNDAN_ARMADILLO_JEWELRY_ARMADILLO_JEWELLERY_16_cls-4" d="M193.19,335a3.57,3.57,0,0,1-.62,1.19,4,4,0,0,1-1.17,1s0,0,0,0c-1.72,1-4.38.91-7-.31-3.32-1.56-5.75-3.43-5.68-5.45a4.07,4.07,0,0,1,1.37-2.58h0" />
  <path class="GUNDAN_ARMADILLO_JEWELRY_ARMADILLO_JEWELLERY_16_cls-4" d="M190.71,333.84s1.12.49,2.48,1.16a18.27,18.27,0,0,1,3.7,2.36c.43.41.79.76,1.06,1.07a7,7,0,0,1,1,1.28" />
  <path class="GUNDAN_ARMADILLO_JEWELRY_ARMADILLO_JEWELLERY_16_cls-4" d="M196.55,341s-2.77-2.22-5.19-3.76" />
  <path class="GUNDAN_ARMADILLO_JEWELRY_ARMADILLO_JEWELLERY_16_cls-4" d="M198.87,341.6h0a3,3,0,0,0,2.51-1.66,1.71,1.71,0,0,0,.15-1,4.15,4.15,0,0,0-1.26-1.95v0a34.4,34.4,0,0,0-6.77-4.48h0a1.49,1.49,0,0,0-.3-.18,4,4,0,0,0-.5-.26,5,5,0,0,0-3.09-.53l-.39.1a3.11,3.11,0,0,0-1.85,1.59c-.42.88.11,1.64,1.15,2.36h0" />
  <path class="GUNDAN_ARMADILLO_JEWELRY_ARMADILLO_JEWELLERY_16_cls-4" d="M199,339.72a1.77,1.77,0,0,0-.32,1.14,1.68,1.68,0,0,0,.2.74c.48.88,3.88,3.18,6.54,3.55a2.64,2.64,0,0,0,2.54-.64,2.19,2.19,0,0,0,.43-.76" />
  <path class="GUNDAN_ARMADILLO_JEWELRY_ARMADILLO_JEWELLERY_16_cls-4" d="M207.38,341.47a11.39,11.39,0,0,0-5.84-2.55h0" />
  <path class="GUNDAN_ARMADILLO_JEWELRY_ARMADILLO_JEWELLERY_16_cls-4" d="M209.42,346.67c-1.74,1.13-4.52,1.11-7.23-.19-3.3-1.58-5.71-3.47-5.63-5.48h0a4,4,0,0,1,1.4-2.56v0" />
  <path class="GUNDAN_ARMADILLO_JEWELRY_ARMADILLO_JEWELLERY_16_cls-4" d="M211.09,344.29a3.49,3.49,0,0,1-.7,1.5,4,4,0,0,1-.95.88" />
  <path class="GUNDAN_ARMADILLO_JEWELRY_ARMADILLO_JEWELLERY_16_cls-4" d="M210.61,341.76a8.19,8.19,0,0,0-2.75-2.82,14,14,0,0,0-7.58-2h0" />
  <path class="GUNDAN_ARMADILLO_JEWELRY_ARMADILLO_JEWELLERY_16_cls-4" d="M218.16,347.46a8.35,8.35,0,0,0-1.41-1c-.36-.22-.81-.47-1.36-.77a20.49,20.49,0,0,0-4.3-1.39c-1.31-.31-2.43-.5-2.7-.54l-.08,0" />
  <path class="GUNDAN_ARMADILLO_JEWELRY_ARMADILLO_JEWELLERY_16_cls-4" d="M216.19,349.25a69.35,69.35,0,0,0-6.75-2.58h0" />
  <path class="GUNDAN_ARMADILLO_JEWELRY_ARMADILLO_JEWELLERY_16_cls-4" d="M205.42,345.15a1.32,1.32,0,0,1-.54-1.26,2.94,2.94,0,0,1,2.5-2.42,6.45,6.45,0,0,1,2.88.2c.1,0,.23.07.35.09h0a37.08,37.08,0,0,1,7.9,2.76,4.45,4.45,0,0,1,1.81,1.59,1.4,1.4,0,0,1,.19,1,2.68,2.68,0,0,1-1.9,2.17" />
  <path class="GUNDAN_ARMADILLO_JEWELRY_ARMADILLO_JEWELLERY_16_cls-4" d="M220.34,346.12c2.26-.49,9.32.85,8,3.88-1.21,2.7-8.67.33-9.68-.7a1.67,1.67,0,0,1-.42-.66,1.62,1.62,0,0,1-.05-1.17" />
  <path class="GUNDAN_ARMADILLO_JEWELRY_ARMADILLO_JEWELLERY_16_cls-4" d="M218.52,344.53h0a14.54,14.54,0,0,1,8,.15c3.85,1.34,5.43,3.78,4.56,6s-4,3.29-7.7,2.54-6.61-2-7.16-4h0a3.85,3.85,0,0,1,.56-2.8" />
  <path class="GUNDAN_ARMADILLO_JEWELRY_ARMADILLO_JEWELLERY_16_cls-4" d="M136.07,281.94h0c-2.74.88-3.27,4.7-2.4,6.87v0" />
  <path d="M311.38,299.9c-.37-1.74-1.05-2.63-1.44-4.37a5.83,5.83,0,0,1,4.83,1.68" />
  <path class="GUNDAN_ARMADILLO_JEWELRY_ARMADILLO_JEWELLERY_16_cls-1" d="M251.3,348.5s3.13-1.55,5.75-2.56c0,0,0,0,0,0a3.73,3.73,0,0,1-.95-1.22,3.66,3.66,0,0,1-.38-1.29,18.34,18.34,0,0,0-4,1.52,14.5,14.5,0,0,0-1.22.8A4.09,4.09,0,0,1,251.3,348.5Z" />
  <path class="GUNDAN_ARMADILLO_JEWELRY_ARMADILLO_JEWELLERY_16_cls-1" d="M268,342.77c-.66.87-5.29,2.85-7.86,2.14l0,0a2,2,0,0,1-1.4-1,1.82,1.82,0,0,1-.26-1.15h-.12s-1.16.25-2.59.63a3.66,3.66,0,0,0,.38,1.29,3.73,3.73,0,0,0,.95,1.22s0,0,0,0c1.5,1.29,4.12,1.76,6.86,1,3.5-.93,6.16-2.41,6.39-4.41a4.15,4.15,0,0,0-1-2.75,6.42,6.42,0,0,0-1.2,1.1,1.77,1.77,0,0,1,.12,1.17A1.59,1.59,0,0,1,268,342.77Z" />
  <path class="GUNDAN_ARMADILLO_JEWELRY_ARMADILLO_JEWELLERY_16_cls-1" d="M309.58,306.07a1.81,1.81,0,0,0,.62.88,2.92,2.92,0,0,0,2.9.57,2.12,2.12,0,0,0-.19-.75,2.19,2.19,0,0,0-.85-.91h0a7.16,7.16,0,0,1,.22-1.55,4.83,4.83,0,0,1,2.44,1.78s.47-1.18,1.09-2.63c0,0,0,0,0,0,.75-2.18.08-6-2.48-6.84l-.84-.21c-2.6-.94-.92,3.17-1,3.32a13,13,0,0,0-1.85,4.14A4,4,0,0,0,309.58,306.07Z" />
  <path class="GUNDAN_ARMADILLO_JEWELRY_ARMADILLO_JEWELLERY_16_cls-2" d="M309.58,306.07a3.77,3.77,0,0,1,.08-2.24,11.48,11.48,0,0,0-5.37,4.53,7.27,7.27,0,0,0-1,3.55c.1-.07.18-.16.26-.21a5.27,5.27,0,0,1,2.33-1.19A9,9,0,0,1,309.58,306.07Z" />
  <path class="GUNDAN_ARMADILLO_JEWELRY_ARMADILLO_JEWELLERY_16_cls-1" d="M314.73,306.08a4.76,4.76,0,0,0-2.44-1.78,6.32,6.32,0,0,0-.22,1.55h0a2.07,2.07,0,0,1,.83.91,1.84,1.84,0,0,1,.2.75c0,1-1.67,4.34-3.75,5.64a2.42,2.42,0,0,1-2.47.34,2.66,2.66,0,0,1-.73-.56c-.21.14-1.06.72-2,1.46a4.28,4.28,0,0,0,1.31,1.14,4.45,4.45,0,0,0,1.23.46c2,.41,4.4-.64,6.06-2.83C314.75,310.5,315.81,307.86,314.73,306.08Z" />
  <path class="GUNDAN_ARMADILLO_JEWELRY_ARMADILLO_JEWELLERY_16_cls-1" d="M306.66,316a4.45,4.45,0,0,1-1.23-.46,4.28,4.28,0,0,1-1.31-1.14h0a15.66,15.66,0,0,0-3,2.77c-.35.46-.61.85-.83,1.17a4.35,4.35,0,0,1,1.77,2.39h0A63.62,63.62,0,0,1,306.66,316Z" />
  <path class="GUNDAN_ARMADILLO_JEWELRY_ARMADILLO_JEWELLERY_16_cls-3" d="M306.88,313.5a2.42,2.42,0,0,0,2.47-.34,1.36,1.36,0,0,0-.16-1.35,3.25,3.25,0,0,0-3.28-1.3,5.27,5.27,0,0,0-2.33,1.19c-.08.05-.16.14-.26.21h0a31.69,31.69,0,0,0-5.46,5.22,3.81,3.81,0,0,0-.85,2.05,1.69,1.69,0,0,0,.31,1,3,3,0,0,0,2.64,1.39,1.74,1.74,0,0,0,.06-.74,1.93,1.93,0,0,0-.49-1.11h0a5.8,5.8,0,0,1,.74-1.39c.22-.32.48-.71.83-1.17a15.66,15.66,0,0,1,3-2.77h0c1-.74,1.82-1.32,2-1.46A2.66,2.66,0,0,0,306.88,313.5Z" />
  <path class="GUNDAN_ARMADILLO_JEWELRY_ARMADILLO_JEWELLERY_16_cls-2" d="M282.55,330.89a3.5,3.5,0,0,1,.79-2.07v0a12.81,12.81,0,0,0-6.79,2.76,7.45,7.45,0,0,0-2.12,3.07l.34-.13a5.78,5.78,0,0,1,2.7-.45A9.88,9.88,0,0,1,282.55,330.89Z" />
  <path class="GUNDAN_ARMADILLO_JEWELRY_ARMADILLO_JEWELLERY_16_cls-2" d="M292.13,322a10,10,0,0,1,4.87-2.8,3.81,3.81,0,0,1,.85-2.05,12.58,12.58,0,0,0-6.78,2.62,6.63,6.63,0,0,0-2.35,3.73c.08-.08.17-.14.23-.2A4.66,4.66,0,0,1,292.13,322Z" />
  <path class="GUNDAN_ARMADILLO_JEWELRY_ARMADILLO_JEWELLERY_16_cls-1" d="M291.7,328a7.47,7.47,0,0,0,5.89-1.21c2.9-1.9,4.87-4.07,4.45-6.07a4.35,4.35,0,0,0-1.77-2.39,5.8,5.8,0,0,0-.74,1.39h0a1.93,1.93,0,0,1,.49,1.11,1.74,1.74,0,0,1-.06.74c-.31,1-3.36,3.74-5.87,4.26,0,0,0,0,0,0a2.4,2.4,0,0,1-2.27-.5,1.84,1.84,0,0,1-.47-.66c-.43.3-1.24.89-2.1,1.57h0c.13.18.28.37.43.54A4.18,4.18,0,0,0,291.7,328Z" />
  <path class="GUNDAN_ARMADILLO_JEWELRY_ARMADILLO_JEWELLERY_16_cls-3" d="M294.06,325.84s0,0,0,0c.81-.87,1.12-1.71.54-2.51a3.34,3.34,0,0,0-2.49-1.34,4.66,4.66,0,0,0-3.18,1.3c-.06.06-.15.12-.23.2h0a31.29,31.29,0,0,0-5.37,5.3v0a3.5,3.5,0,0,0-.79,2.07h0a1.59,1.59,0,0,0,.34,1,3.09,3.09,0,0,0,2.7,1.36,1.67,1.67,0,0,0,.05-.76,2.14,2.14,0,0,0-.53-1.1,6.45,6.45,0,0,1,.72-1.42c.2-.34.46-.73.78-1.19a13.74,13.74,0,0,1,2.61-2.53c.86-.68,1.67-1.27,2.1-1.57a1.84,1.84,0,0,0,.47.66A2.4,2.4,0,0,0,294.06,325.84Z" />
  <path class="GUNDAN_ARMADILLO_JEWELRY_ARMADILLO_JEWELLERY_16_cls-1" d="M289.22,326.25a13.74,13.74,0,0,0-2.61,2.53c-.32.46-.58.85-.78,1.19a4.72,4.72,0,0,1,1.86,2.38s2.08-2.47,4-4.35a4.18,4.18,0,0,1-2-1.2c-.15-.17-.3-.36-.43-.54Z" />
  <path class="GUNDAN_ARMADILLO_JEWELRY_ARMADILLO_JEWELLERY_16_cls-1" d="M285.59,333.25c-.26.94-3.08,3.63-5.56,4.29a2.63,2.63,0,0,1-2.57-.41,2.34,2.34,0,0,1-.54-.72c-.23.06-1.27.35-2.49.78a4.26,4.26,0,0,0,.93,1.46,4.13,4.13,0,0,0,1.08.78c1.86,1,4.56.68,6.93-.93,2.89-2,4.81-4.15,4.32-6.15a4.72,4.72,0,0,0-1.86-2.38,6.45,6.45,0,0,0-.72,1.42,2.14,2.14,0,0,1,.53,1.1A1.67,1.67,0,0,1,285.59,333.25Z" />
  <path class="GUNDAN_ARMADILLO_JEWELRY_ARMADILLO_JEWELLERY_16_cls-1" d="M270.53,338.92c-.48.33-.87.61-1.18.86v0a4.07,4.07,0,0,1,1,2.75h0s3.44-2,6.13-3.12h0a4.13,4.13,0,0,1-1.08-.78,4.26,4.26,0,0,1-.93-1.46A17.61,17.61,0,0,0,270.53,338.92Z" />
  <path class="GUNDAN_ARMADILLO_JEWELRY_ARMADILLO_JEWELLERY_16_cls-3" d="M269.35,339.78c.31-.25.7-.53,1.18-.86a17.61,17.61,0,0,1,3.9-1.73c1.22-.43,2.26-.72,2.49-.78a2.34,2.34,0,0,0,.54.72,2.63,2.63,0,0,0,2.57.41,1.33,1.33,0,0,0,.27-1.34,3.23,3.23,0,0,0-2.83-2.15,5.78,5.78,0,0,0-2.7.45l-.34.13a63.22,63.22,0,0,0-7.11,3.34L266,339.34a3.31,3.31,0,0,0-.15.33,1.58,1.58,0,0,0,0,1,2.94,2.94,0,0,0,2.15,2.07,1.59,1.59,0,0,0,.31-.7,1.77,1.77,0,0,0-.12-1.17,6.42,6.42,0,0,1,1.2-1.1Z" />
  <path class="GUNDAN_ARMADILLO_JEWELRY_ARMADILLO_JEWELLERY_16_cls-2" d="M260.1,340.87a11.26,11.26,0,0,1,5.71-1.2,3.31,3.31,0,0,1,.15-.33l1.36-1.37a14.17,14.17,0,0,0-7.58.53,8.19,8.19,0,0,0-3.06,2.1,4.87,4.87,0,0,1,3.05.09A3.18,3.18,0,0,1,260.1,340.87Z" />
  <path class="GUNDAN_ARMADILLO_JEWELRY_ARMADILLO_JEWELLERY_16_cls-3" d="M260.1,344.86c1.13-.51,1.78-1.15,1.52-2.09a3.13,3.13,0,0,0-1.52-1.9,3.18,3.18,0,0,0-.37-.18,4.87,4.87,0,0,0-3.05-.09l-.53.15a2,2,0,0,0-.31.12h0a35.06,35.06,0,0,0-7.32,2.89h0a3.94,3.94,0,0,0-1.6,1.6,1.65,1.65,0,0,0-.07,1,3,3,0,0,0,2.07,2.18,1.58,1.58,0,0,0,.36-.67,1.8,1.8,0,0,0-.08-1.17h0a6.69,6.69,0,0,1,1.27-1,14.5,14.5,0,0,1,1.22-.8,17.84,17.84,0,0,1,4-1.52c1.42-.39,2.59-.63,2.59-.63h.12a1.82,1.82,0,0,0,.26,1.15,2,2,0,0,0,1.4,1v0Z" />
  <path class="GUNDAN_ARMADILLO_JEWELRY_ARMADILLO_JEWELLERY_16_cls-2" d="M240.86,343.85a7.76,7.76,0,0,0-3.24,2H238a6.48,6.48,0,0,1,2.79.55,11.24,11.24,0,0,1,6.14-1.05,3.94,3.94,0,0,1,1.6-1.6A14.21,14.21,0,0,0,240.86,343.85Z" />
  <path class="GUNDAN_ARMADILLO_JEWELRY_ARMADILLO_JEWELLERY_16_cls-1" d="M237.61,350.88c1.41,1.54,4.12,2.24,7,1.64,3.56-.73,6.3-2,6.63-4h0a4.09,4.09,0,0,0-.84-2.79,6.69,6.69,0,0,0-1.27,1h0a1.8,1.8,0,0,1,.08,1.17,1.58,1.58,0,0,1-.36.67c-.63.75-4.43,2.18-7.08,1.87a2.63,2.63,0,0,1-2.3-1.26,2.19,2.19,0,0,1-.24-.84c-.27,0-1.39-.14-2.72-.2a3.81,3.81,0,0,0,.32,1.64,4.35,4.35,0,0,0,.71,1.09Z" />
  <path class="GUNDAN_ARMADILLO_JEWELRY_ARMADILLO_JEWELLERY_16_cls-1" d="M230.48,351.48s4.06-.53,7.12-.61a4.35,4.35,0,0,1-.71-1.09,3.81,3.81,0,0,1-.32-1.64,21.7,21.7,0,0,0-4.43.16c-.6.13-1.09.24-1.49.36A3.75,3.75,0,0,1,230.48,351.48Z" />
  <path class="GUNDAN_ARMADILLO_JEWELRY_ARMADILLO_JEWELLERY_16_cls-3" d="M241.83,350.44a1.26,1.26,0,0,0,.8-1.08,3,3,0,0,0-1.86-2.95,6.48,6.48,0,0,0-2.79-.55h-.38a40.69,40.69,0,0,0-8.16.46,4.2,4.2,0,0,0-2.12,1,1.29,1.29,0,0,0-.43.9,2.78,2.78,0,0,0,1.25,2.62,1.78,1.78,0,0,0,.57-.51,1.61,1.61,0,0,0,.34-1.09h0a7.65,7.65,0,0,1,1.59-.55c.4-.12.89-.23,1.49-.36a21.7,21.7,0,0,1,4.43-.16c1.33.06,2.45.17,2.72.2a2.19,2.19,0,0,0,.24.84A2.63,2.63,0,0,0,241.83,350.44Z" />
  <path class="GUNDAN_ARMADILLO_JEWELRY_ARMADILLO_JEWELLERY_16_cls-5" d="M312.07,305.85a6.32,6.32,0,0,1,.22-1.55c.08-.37.19-.83.34-1.37a13.08,13.08,0,0,1,1.46-2.93" />
  <path class="GUNDAN_ARMADILLO_JEWELRY_ARMADILLO_JEWELLERY_16_cls-5" d="M314.73,306.08s.47-1.18,1.09-2.63c0,0,0,0,0,0" />
  <path class="GUNDAN_ARMADILLO_JEWELRY_ARMADILLO_JEWELLERY_16_cls-5" d="M313.35,296.58c-1-.24-1.42-.36-2.36-.62-.08.13.69,3.7.61,3.85-1.08,1.77-1.34,1.75-2,4a3.93,3.93,0,0,0-.07,2.24,1.7,1.7,0,0,0,.62.88,2.92,2.92,0,0,0,2.9.57" />
  <path class="GUNDAN_ARMADILLO_JEWELRY_ARMADILLO_JEWELLERY_16_cls-5" d="M312.07,305.86a2.07,2.07,0,0,1,.83.91,1.84,1.84,0,0,1,.2.75c0,1-1.67,4.34-3.75,5.64a2.42,2.42,0,0,1-2.47.34,2.66,2.66,0,0,1-.73-.56" />
  <path class="GUNDAN_ARMADILLO_JEWELRY_ARMADILLO_JEWELLERY_16_cls-5" d="M305.91,310.51a9,9,0,0,1,3.67-4.44" />
  <path class="GUNDAN_ARMADILLO_JEWELRY_ARMADILLO_JEWELLERY_16_cls-5" d="M304.12,314.4a4.28,4.28,0,0,0,1.31,1.14,4.45,4.45,0,0,0,1.23.46c2,.41,4.4-.64,6.06-2.83,2-2.67,3.09-5.31,2-7.09a4.76,4.76,0,0,0-2.44-1.78h0" />
  <path class="GUNDAN_ARMADILLO_JEWELRY_ARMADILLO_JEWELLERY_16_cls-5" d="M303.32,311.91a7.27,7.27,0,0,1,1-3.55,11.48,11.48,0,0,1,5.37-4.53" />
  <path class="GUNDAN_ARMADILLO_JEWELRY_ARMADILLO_JEWELLERY_16_cls-5" d="M299.53,319.72a5.8,5.8,0,0,1,.74-1.39c.22-.32.48-.71.83-1.17a15.66,15.66,0,0,1,3-2.77h0c1-.74,1.82-1.32,2-1.46l.06,0" />
  <path class="GUNDAN_ARMADILLO_JEWELRY_ARMADILLO_JEWELLERY_16_cls-5" d="M302.05,320.73a63.62,63.62,0,0,1,4.61-4.73" />
  <path class="GUNDAN_ARMADILLO_JEWELRY_ARMADILLO_JEWELLERY_16_cls-5" d="M309.35,313.16a1.36,1.36,0,0,0-.16-1.35,3.25,3.25,0,0,0-3.28-1.3,5.27,5.27,0,0,0-2.33,1.19c-.08.05-.16.14-.26.21h0a31.69,31.69,0,0,0-5.46,5.22,3.81,3.81,0,0,0-.85,2.05,1.69,1.69,0,0,0,.31,1,3,3,0,0,0,2.64,1.39" />
  <path class="GUNDAN_ARMADILLO_JEWELRY_ARMADILLO_JEWELLERY_16_cls-5" d="M294.06,325.84a2.4,2.4,0,0,1-2.27-.5,1.84,1.84,0,0,1-.47-.66" />
  <path class="GUNDAN_ARMADILLO_JEWELRY_ARMADILLO_JEWELLERY_16_cls-5" d="M299.52,319.73a1.93,1.93,0,0,1,.49,1.11,1.74,1.74,0,0,1-.06.74c-.31,1-3.36,3.74-5.87,4.26" />
  <path class="GUNDAN_ARMADILLO_JEWELRY_ARMADILLO_JEWELLERY_16_cls-5" d="M292.13,322a10,10,0,0,1,4.87-2.8h0" />
  <path class="GUNDAN_ARMADILLO_JEWELRY_ARMADILLO_JEWELLERY_16_cls-5" d="M300.26,318.32h0a4.35,4.35,0,0,1,1.77,2.39c.42,2-1.55,4.17-4.45,6.07A7.47,7.47,0,0,1,291.7,328a4.18,4.18,0,0,1-2-1.2c-.15-.17-.3-.36-.43-.54" />
  <path class="GUNDAN_ARMADILLO_JEWELRY_ARMADILLO_JEWELLERY_16_cls-5" d="M288.72,323.49a6.63,6.63,0,0,1,2.35-3.73,12.58,12.58,0,0,1,6.78-2.62h0" />
  <path class="GUNDAN_ARMADILLO_JEWELRY_ARMADILLO_JEWELLERY_16_cls-5" d="M285.11,331.39a6.45,6.45,0,0,1,.72-1.42c.2-.34.46-.73.78-1.19a13.74,13.74,0,0,1,2.61-2.53c.86-.68,1.67-1.27,2.1-1.57l.32-.22" />
  <path class="GUNDAN_ARMADILLO_JEWELRY_ARMADILLO_JEWELLERY_16_cls-5" d="M287.69,332.35s2.08-2.47,4-4.35" />
  <path class="GUNDAN_ARMADILLO_JEWELRY_ARMADILLO_JEWELLERY_16_cls-5" d="M294.06,325.84s0,0,0,0c.81-.87,1.12-1.71.54-2.51a3.34,3.34,0,0,0-2.49-1.34,4.66,4.66,0,0,0-3.18,1.3c-.06.06-.15.12-.23.2h0a31.29,31.29,0,0,0-5.37,5.3v0a3.5,3.5,0,0,0-.79,2.07h0a1.59,1.59,0,0,0,.34,1,3.09,3.09,0,0,0,2.7,1.36h0" />
  <path class="GUNDAN_ARMADILLO_JEWELRY_ARMADILLO_JEWELLERY_16_cls-5" d="M285.11,331.39a2.14,2.14,0,0,1,.53,1.1,1.67,1.67,0,0,1-.05.76c-.26.94-3.08,3.63-5.56,4.29a2.63,2.63,0,0,1-2.57-.41,2.34,2.34,0,0,1-.54-.72" />
  <path class="GUNDAN_ARMADILLO_JEWELRY_ARMADILLO_JEWELLERY_16_cls-5" d="M277.47,334.05a9.88,9.88,0,0,1,5.08-3.16" />
  <path class="GUNDAN_ARMADILLO_JEWELRY_ARMADILLO_JEWELLERY_16_cls-5" d="M274.43,337.19a4.26,4.26,0,0,0,.93,1.46,4.13,4.13,0,0,0,1.08.78c1.86,1,4.56.68,6.93-.93,2.89-2,4.81-4.15,4.32-6.15a4.72,4.72,0,0,0-1.86-2.38h0" />
  <path class="GUNDAN_ARMADILLO_JEWELRY_ARMADILLO_JEWELLERY_16_cls-5" d="M274.43,334.63a7.45,7.45,0,0,1,2.12-3.07,12.81,12.81,0,0,1,6.79-2.76" />
  <path class="GUNDAN_ARMADILLO_JEWELRY_ARMADILLO_JEWELLERY_16_cls-5" d="M269.35,339.78c.31-.25.7-.53,1.18-.86a17.61,17.61,0,0,1,3.9-1.73c1.22-.43,2.26-.72,2.49-.78l.06,0" />
  <path class="GUNDAN_ARMADILLO_JEWELRY_ARMADILLO_JEWELLERY_16_cls-5" d="M268.14,340.9a6.42,6.42,0,0,1,1.2-1.1" />
  <path class="GUNDAN_ARMADILLO_JEWELRY_ARMADILLO_JEWELLERY_16_cls-5" d="M270.31,342.56s3.44-2,6.13-3.12" />
  <path class="GUNDAN_ARMADILLO_JEWELRY_ARMADILLO_JEWELLERY_16_cls-5" d="M280,337.54a1.33,1.33,0,0,0,.27-1.34,3.23,3.23,0,0,0-2.83-2.15,5.78,5.78,0,0,0-2.7.45l-.34.13a63.22,63.22,0,0,0-7.11,3.34L266,339.34a3.31,3.31,0,0,0-.15.33,1.58,1.58,0,0,0,0,1,2.94,2.94,0,0,0,2.15,2.07" />
  <path class="GUNDAN_ARMADILLO_JEWELRY_ARMADILLO_JEWELLERY_16_cls-5" d="M265.82,339.67h0a11.26,11.26,0,0,0-5.71,1.2" />
  <path class="GUNDAN_ARMADILLO_JEWELRY_ARMADILLO_JEWELLERY_16_cls-5" d="M258.4,342.77a1.82,1.82,0,0,0,.26,1.15,2,2,0,0,0,1.4,1l0,0c2.57.71,7.2-1.27,7.86-2.14a1.59,1.59,0,0,0,.31-.7,1.77,1.77,0,0,0-.12-1.17" />
  <path class="GUNDAN_ARMADILLO_JEWELRY_ARMADILLO_JEWELLERY_16_cls-5" d="M267.33,338h0a14.17,14.17,0,0,0-7.58.53,8.19,8.19,0,0,0-3.06,2.1" />
  <path class="GUNDAN_ARMADILLO_JEWELRY_ARMADILLO_JEWELLERY_16_cls-5" d="M255.69,343.39a3.66,3.66,0,0,0,.38,1.29,3.73,3.73,0,0,0,.95,1.22s0,0,0,0c1.5,1.29,4.12,1.76,6.86,1,3.5-.93,6.17-2.4,6.39-4.41a4.07,4.07,0,0,0-1-2.75v0" />
  <path class="GUNDAN_ARMADILLO_JEWELRY_ARMADILLO_JEWELLERY_16_cls-5" d="M258.28,342.76s-1.16.25-2.59.63a18.34,18.34,0,0,0-4,1.52,14.5,14.5,0,0,0-1.22.8,6.69,6.69,0,0,0-1.27,1" />
  <path class="GUNDAN_ARMADILLO_JEWELRY_ARMADILLO_JEWELLERY_16_cls-5" d="M251.3,348.5s3.13-1.55,5.75-2.56" />
  <path class="GUNDAN_ARMADILLO_JEWELRY_ARMADILLO_JEWELLERY_16_cls-5" d="M248.93,348.58h0a3,3,0,0,1-2.07-2.18,1.65,1.65,0,0,1,.07-1,3.94,3.94,0,0,1,1.6-1.6h0a35.06,35.06,0,0,1,7.32-2.89h0a2,2,0,0,1,.31-.12l.53-.15a4.87,4.87,0,0,1,3.05.09,3.18,3.18,0,0,1,.37.18,3.13,3.13,0,0,1,1.52,1.9c.26.94-.39,1.58-1.52,2.09h0" />
  <path class="GUNDAN_ARMADILLO_JEWELRY_ARMADILLO_JEWELLERY_16_cls-5" d="M249.19,346.73a1.8,1.8,0,0,1,.08,1.17,1.58,1.58,0,0,1-.36.67c-.63.75-4.43,2.18-7.08,1.87a2.63,2.63,0,0,1-2.3-1.26,2.19,2.19,0,0,1-.24-.84" />
  <path class="GUNDAN_ARMADILLO_JEWELRY_ARMADILLO_JEWELLERY_16_cls-5" d="M240.77,346.41a11.24,11.24,0,0,1,6.14-1.05h0" />
  <path class="GUNDAN_ARMADILLO_JEWELRY_ARMADILLO_JEWELLERY_16_cls-5" d="M237.61,350.88c1.41,1.54,4.12,2.24,7,1.64,3.56-.73,6.3-2,6.63-4h0a4.09,4.09,0,0,0-.84-2.79v0" />
  <path class="GUNDAN_ARMADILLO_JEWELRY_ARMADILLO_JEWELLERY_16_cls-5" d="M236.57,348.14a3.81,3.81,0,0,0,.32,1.64,4.35,4.35,0,0,0,.71,1.09" />
  <path class="GUNDAN_ARMADILLO_JEWELRY_ARMADILLO_JEWELLERY_16_cls-5" d="M237.62,345.85a7.76,7.76,0,0,1,3.24-2,14.21,14.21,0,0,1,7.65-.09h0" />
  <path class="GUNDAN_ARMADILLO_JEWELRY_ARMADILLO_JEWELLERY_16_cls-5" d="M237.61,350.88h0a61.59,61.59,0,0,0-7.12.77s.89-.64.66-3.11" />
  <path class="GUNDAN_ARMADILLO_JEWELRY_ARMADILLO_JEWELLERY_16_cls-5" d="M241.83,350.44a1.26,1.26,0,0,0,.8-1.08,3,3,0,0,0-1.86-2.95,6.48,6.48,0,0,0-2.79-.55h-.38a40.69,40.69,0,0,0-8.16.46,4.2,4.2,0,0,0-2.12,1,1.29,1.29,0,0,0-.43.9,2.55,2.55,0,0,0,.88,2.46,6,6,0,0,0,1.29-1.45,7.65,7.65,0,0,1,1.59-.55c.4-.12.89-.23,1.49-.36a21.7,21.7,0,0,1,4.43-.16c1.33.06,2.45.17,2.72.2h.08" />
  <path class="GUNDAN_ARMADILLO_JEWELRY_ARMADILLO_JEWELLERY_16_cls-5" d="M313.34,296.58h0c2.56.87,3.23,4.66,2.48,6.84,0,0,0,0,0,0" />
  <ellipse cx="249.77" cy="374.72" rx="16.38" ry="17.1" transform="translate(-127.54 620.57) rotate(-89.4)" />
  <polygon class="GUNDAN_ARMADILLO_JEWELRY_ARMADILLO_JEWELLERY_16_cls-6" points="246.63 384.82 248.89 384.07 245.04 382.16 246.63 384.82" />
  <polygon class="GUNDAN_ARMADILLO_JEWELRY_ARMADILLO_JEWELLERY_16_cls-7" points="250.82 384.05 254.64 382.09 253.1 384.77 250.82 384.05" />
  <polygon class="GUNDAN_ARMADILLO_JEWELRY_ARMADILLO_JEWELLERY_16_cls-7" points="240.91 376.01 242.98 380.4 239.62 379.03 240.91 376.01" />
  <path class="GUNDAN_ARMADILLO_JEWELRY_ARMADILLO_JEWELLERY_16_cls-6" d="M237.72,383.73a14.58,14.58,0,0,1-1.89-3.06l2.56-.89Z" />
  <path class="GUNDAN_ARMADILLO_JEWELRY_ARMADILLO_JEWELLERY_16_cls-7" d="M234.56,373.77a14.23,14.23,0,0,1,.89-4.12l2.71.9Z" />
  <polygon class="GUNDAN_ARMADILLO_JEWELRY_ARMADILLO_JEWELLERY_16_cls-6" points="242.87 369.15 240.89 373.58 239.54 370.57 242.87 369.15" />
  <path class="GUNDAN_ARMADILLO_JEWELRY_ARMADILLO_JEWELLERY_16_cls-6" d="M235.72,369a14.42,14.42,0,0,1,1.84-3.09l.74,4Z" />
  <path class="GUNDAN_ARMADILLO_JEWELRY_ARMADILLO_JEWELLERY_16_cls-7" d="M235.54,380a14.43,14.43,0,0,1-1-4.1l3.66,3.16Z" />
  <polygon class="GUNDAN_ARMADILLO_JEWELRY_ARMADILLO_JEWELLERY_16_cls-8" points="240.35 374.8 238.8 378.43 234.65 374.84 238.73 371.19 240.35 374.8" />
  <polygon class="GUNDAN_ARMADILLO_JEWELRY_ARMADILLO_JEWELLERY_16_cls-7" points="246.44 364.68 248.72 365.4 244.9 367.36 246.44 364.68" />
  <path class="GUNDAN_ARMADILLO_JEWELRY_ARMADILLO_JEWELLERY_16_cls-7" d="M249.05,389.44a15.44,15.44,0,0,1-5.14-1.12l2.38-2.36Z" />
  <polygon class="GUNDAN_ARMADILLO_JEWELRY_ARMADILLO_JEWELLERY_16_cls-9" points="249.85 383.7 244.34 380.97 241.44 374.79 244.22 368.56 249.69 365.75 255.21 368.48 258.11 374.66 255.32 380.89 249.85 383.7" />
  <polygon class="GUNDAN_ARMADILLO_JEWELRY_ARMADILLO_JEWELLERY_16_cls-8" points="243.45 381.39 245.56 384.9 238.64 384.5 239.44 379.75 243.45 381.39" />
  <polygon class="GUNDAN_ARMADILLO_JEWELRY_ARMADILLO_JEWELLERY_16_cls-6" points="254.5 367.29 250.65 365.38 252.92 364.63 254.5 367.29" />
  <polygon class="GUNDAN_ARMADILLO_JEWELRY_ARMADILLO_JEWELLERY_16_cls-6" points="256.67 380.3 258.65 375.87 260 378.88 256.67 380.3" />
  <polygon class="GUNDAN_ARMADILLO_JEWELRY_ARMADILLO_JEWELLERY_16_cls-7" points="258.63 373.44 256.56 369.05 259.92 370.42 258.63 373.44" />
  <path class="GUNDAN_ARMADILLO_JEWELRY_ARMADILLO_JEWELLERY_16_cls-7" d="M243.06,387.94a15.36,15.36,0,0,1-4-2.74l6.38.37Z" />
  <polygon class="GUNDAN_ARMADILLO_JEWELRY_ARMADILLO_JEWELLERY_16_cls-8" points="249.9 389.04 247.04 385.43 249.86 384.5 252.69 385.38 249.9 389.04" />
  <polygon class="GUNDAN_ARMADILLO_JEWELRY_ARMADILLO_JEWELLERY_16_cls-8" points="260.19 379.6 261.08 384.33 254.17 384.84 256.21 381.3 260.19 379.6" />
  <path class="GUNDAN_ARMADILLO_JEWELRY_ARMADILLO_JEWELLERY_16_cls-7" d="M263.82,380.46a14.42,14.42,0,0,1-1.84,3.09l-.74-3.95Z" />
  <polygon class="GUNDAN_ARMADILLO_JEWELRY_ARMADILLO_JEWELLERY_16_cls-8" points="259.2 374.65 260.75 371.02 264.89 374.61 260.81 378.26 259.2 374.65" />
  <path class="GUNDAN_ARMADILLO_JEWELRY_ARMADILLO_JEWELLERY_16_cls-7" d="M265,375.68a14.23,14.23,0,0,1-.89,4.12l-2.71-.9Z" />
  <path class="GUNDAN_ARMADILLO_JEWELRY_ARMADILLO_JEWELLERY_16_cls-6" d="M260.67,385a15.36,15.36,0,0,1-3.94,2.81l-2.43-2.34Z" />
  <path class="GUNDAN_ARMADILLO_JEWELRY_ARMADILLO_JEWELLERY_16_cls-7" d="M255.88,388.23a15.53,15.53,0,0,1-5.12,1.2l2.7-3.53Z" />
  <polygon class="GUNDAN_ARMADILLO_JEWELRY_ARMADILLO_JEWELLERY_16_cls-8" points="256.09 368.06 253.99 364.55 260.9 364.94 260.1 369.7 256.09 368.06" />
  <path class="GUNDAN_ARMADILLO_JEWELRY_ARMADILLO_JEWELLERY_16_cls-7" d="M264,369.44a14.43,14.43,0,0,1,1,4.1l-3.66-3.16Z" />
  <path class="GUNDAN_ARMADILLO_JEWELRY_ARMADILLO_JEWELLERY_16_cls-7" d="M250.49,360a15.34,15.34,0,0,1,5.14,1.12l-2.38,2.36Z" />
  <path class="GUNDAN_ARMADILLO_JEWELRY_ARMADILLO_JEWELLERY_16_cls-7" d="M256.49,361.51a15.3,15.3,0,0,1,4,2.74l-6.38-.37Z" />
  <path class="GUNDAN_ARMADILLO_JEWELRY_ARMADILLO_JEWELLERY_16_cls-7" d="M238.87,364.42a15.53,15.53,0,0,1,3.94-2.81l2.43,2.34Z" />
  <path class="GUNDAN_ARMADILLO_JEWELRY_ARMADILLO_JEWELLERY_16_cls-10" d="M243.66,361.22a15.59,15.59,0,0,1,5.12-1.2l-2.7,3.53Z" />
  <polygon class="GUNDAN_ARMADILLO_JEWELRY_ARMADILLO_JEWELLERY_16_cls-8" points="239.35 369.85 238.46 365.11 245.37 364.61 243.33 368.15 239.35 369.85" />
  <polygon class="GUNDAN_ARMADILLO_JEWELRY_ARMADILLO_JEWELLERY_16_cls-8" points="246.85 364.07 249.64 360.41 252.5 364.02 249.68 364.95 246.85 364.07" />
  <path class="GUNDAN_ARMADILLO_JEWELRY_ARMADILLO_JEWELLERY_16_cls-6" d="M261.82,365.72a14.58,14.58,0,0,1,1.89,3.06l-2.56.89Z" />
  <path class="GUNDAN_ARMADILLO_JEWELRY_ARMADILLO_JEWELLERY_16_cls-11" d="M247,360h0a1.46,1.46,0,0,1-1.69-1.23l-1.41-8.06a1.53,1.53,0,0,1,1.17-1.78h0a1.46,1.46,0,0,1,1.69,1.23l1.41,8.07A1.53,1.53,0,0,1,247,360Z" />
</svg>