<svg id="Jewelry" xmlns="http://www.w3.org/2000/svg" viewBox="0 0 432 432">
  <defs>
    <style>.GUNDAN_ARMADILLO_JEWELRY_ARMADILLO_JEWELLERY_2_cls-1{fill:#f4d862;}.GUNDAN_ARMADILLO_JEWELRY_ARMADILLO_JEWELLERY_2_cls-1,.GUNDAN_ARMADILLO_JEWELRY_ARMADILLO_JEWELLERY_2_cls-2,.GUNDAN_ARMADILLO_JEWELRY_ARMADILLO_JEWELLERY_2_cls-4{stroke:#000;stroke-width:1.17px;}.GUNDAN_ARMADILLO_JEWELRY_ARMADILLO_JEWELLERY_2_cls-1,.GUNDAN_ARMADILLO_JEWELRY_ARMADILLO_JEWELLERY_2_cls-2{stroke-miterlimit:10;}.GUNDAN_ARMADILLO_JEWELRY_ARMADILLO_JEWELLERY_2_cls-2{fill:#e0001b;}.GUNDAN_ARMADILLO_JEWELRY_ARMADILLO_JEWELLERY_2_cls-3{fill:#fff;}.GUNDAN_ARMADILLO_JEWELRY_ARMADILLO_JEWELLERY_2_cls-4{fill:none;stroke-linecap:round;stroke-linejoin:round;}</style>
  </defs>
  <path class="GUNDAN_ARMADILLO_JEWELRY_ARMADILLO_JEWELLERY_2_cls-1" d="M298.13,186.22h0l.07,0a2.84,2.84,0,0,1-1.08,2.3c-1.19.9.54,5.09,2,4.54s2-3.65,1.8-3.79l2.36-.08a4.43,4.43,0,0,1-1.76,5.44c-3.21,2.11-7.71.59-8.83-2.57s.81-5.54,2.22-5.73l.44-.08h.05" />
  <path class="GUNDAN_ARMADILLO_JEWELRY_ARMADILLO_JEWELLERY_2_cls-2" d="M297.57,195.54a3.2,3.2,0,0,0-1.25-2.92,4.09,4.09,0,0,0-3.48-.32,2.43,2.43,0,0,0-.43,3.88C294.44,198.53,296.78,197.14,297.57,195.54Z" />
  <path class="GUNDAN_ARMADILLO_JEWELRY_ARMADILLO_JEWELLERY_2_cls-3" d="M295.82,194.1s-1.41-.62-2.16.1a2.33,2.33,0,0,0-.79,1.36s-.41-2,.93-2.46S295.82,194.1,295.82,194.1Z" />
  <path class="GUNDAN_ARMADILLO_JEWELRY_ARMADILLO_JEWELLERY_2_cls-4" d="M291.86,187.15a14.41,14.41,0,0,1,7.8-.74" />
  <path class="GUNDAN_ARMADILLO_JEWELRY_ARMADILLO_JEWELLERY_2_cls-1" d="M308.67,185.13h.1a2.82,2.82,0,0,1-.64,2.46c-1,1.11,1.47,4.91,2.84,4.09s1.27-3.95,1.07-4.05l2.31-.52a4.43,4.43,0,0,1-.73,5.67c-2.77,2.67-7.47,2-9.15-.9s-.23-5.59,1.13-6l.41-.16.05,0" />
  <path class="GUNDAN_ARMADILLO_JEWELRY_ARMADILLO_JEWELLERY_2_cls-2" d="M309.83,194.39a3.2,3.2,0,0,0-1.76-2.63,4.13,4.13,0,0,0-3.49.32,2.44,2.44,0,0,0,.3,3.9C307.3,197.91,309.34,196.12,309.83,194.39Z" />
  <path class="GUNDAN_ARMADILLO_JEWELRY_ARMADILLO_JEWELLERY_2_cls-3" d="M307.85,193.3s-1.51-.34-2.11.5a2.31,2.31,0,0,0-.53,1.49s-.77-1.89.47-2.6A1.71,1.71,0,0,1,307.85,193.3Z" />
  <path class="GUNDAN_ARMADILLO_JEWELRY_ARMADILLO_JEWELLERY_2_cls-4" d="M302.67,187.2a14.47,14.47,0,0,1,7.54-2.16" />
</svg>