<svg id="Jewelry" xmlns="http://www.w3.org/2000/svg" viewBox="0 0 432 432">
  <defs>
    <style>.GUNDAN_ARMADILLO_JEWELRY_ARMADILLO_JEWELLERY_13_cls-1,.GUNDAN_ARMADILLO_JEWELRY_ARMADILLO_JEWELLERY_13_cls-4{fill:#85432d;}.GUNDAN_ARMADILLO_JEWELRY_ARMADILLO_JEWELLERY_13_cls-1,.GUNDAN_ARMADILLO_JEWELRY_ARMADILLO_JEWELLERY_13_cls-3{stroke:#000;}.GUNDAN_ARMADILLO_JEWELRY_ARMADILLO_JEWELLERY_13_cls-1{stroke-miterlimit:10;stroke-width:2px;}.GUNDAN_ARMADILLO_JEWELRY_ARMADILLO_JEWELLERY_13_cls-2{fill:#dfca6d;}.GUNDAN_ARMADILLO_JEWELRY_ARMADILLO_JEWELLERY_13_cls-3{fill:none;stroke-linecap:round;stroke-linejoin:round;stroke-width:1.39px;}</style>
  </defs>
  <path class="GUNDAN_ARMADILLO_JEWELRY_ARMADILLO_JEWELLERY_13_cls-1" d="M235.21,359.09a1.73,1.73,0,0,1-.5-.07A198.54,198.54,0,0,1,191.42,341c-29.58-16.8-49.29-40.38-54.77-65-.93-4.21,2.07-5.95,3.15-6.19a28.33,28.33,0,0,0,.59,5.1c12.12,54.49,87.78,78.2,94.79,80.14,5.24-1.63,43.86-30.62,65.11-77.09.46-1,.24-1.94.14-5.65,2.95.56,4.35,5.06,3.5,7.32-22.6,53.47-67.68,79.29-68.19,79.43A2.33,2.33,0,0,1,235.21,359.09Z" />
  <path class="GUNDAN_ARMADILLO_JEWELRY_ARMADILLO_JEWELLERY_13_cls-2" d="M240.34,384.5a2,2,0,0,1-2,2H237v36.63h-3.94v-4.8H230v-1.9h-1.12v1.9h-5.36v-1.91h1.43v-1.9h1.62v-2.76h-1.62v-1.9h-1.43V408h5.36v1.9H230V408h3.08V386.53h-1.45a2,2,0,0,1-2-2,2,2,0,0,1,2-2h6.69A2,2,0,0,1,240.34,384.5Z" />
  <path class="GUNDAN_ARMADILLO_JEWELRY_ARMADILLO_JEWELLERY_13_cls-2" d="M242.41,362.78a8.72,8.72,0,0,0-1.77.19,5.73,5.73,0,0,0-11.35,0,8.63,8.63,0,1,0,.41,16.8,2,2,0,0,0,1.92,2.69h6.69a2,2,0,0,0,2-2,2,2,0,0,0-.11-.65,8.74,8.74,0,0,0,2.18.28,8.64,8.64,0,1,0,0-17.27ZM235,361.09a3.27,3.27,0,0,1,3.24,2.8,8.46,8.46,0,0,0-3.24,3.18,8.63,8.63,0,0,0-3.25-3.18A3.27,3.27,0,0,1,235,361.09Zm-7.45,16.59a6.26,6.26,0,0,1,0-12.52,6.4,6.4,0,0,1,2,.31h0a6.26,6.26,0,0,1-2,12.2Zm5.08.71a8.87,8.87,0,0,0,2.37-2.62,8.61,8.61,0,0,0,2.37,2.62Zm9.81-.71a6.26,6.26,0,1,1,6.26-6.26A6.27,6.27,0,0,1,242.41,377.68Z" />
  <path class="GUNDAN_ARMADILLO_JEWELRY_ARMADILLO_JEWELLERY_13_cls-3" d="M242.41,362.78a8.72,8.72,0,0,0-1.77.19,8.3,8.3,0,0,0-2.43.92,8.46,8.46,0,0,0-3.24,3.18,8.63,8.63,0,0,0-3.25-3.18,8.3,8.3,0,0,0-2.43-.92,8.63,8.63,0,1,0,.41,16.8,8.63,8.63,0,0,0,2.9-1.38,8.87,8.87,0,0,0,2.37-2.62,8.61,8.61,0,0,0,2.37,2.62,8.49,8.49,0,0,0,2.89,1.38,8.74,8.74,0,0,0,2.18.28,8.64,8.64,0,1,0,0-17.27Zm-14.89,14.9a6.26,6.26,0,0,1,0-12.52,6.4,6.4,0,0,1,2,.31h0a6.26,6.26,0,0,1-2,12.2Zm14.89,0a6.26,6.26,0,1,1,6.26-6.26A6.27,6.27,0,0,1,242.41,377.68Z" />
  <line class="GUNDAN_ARMADILLO_JEWELRY_ARMADILLO_JEWELLERY_13_cls-3" x1="237.34" y1="378.39" x2="232.6" y2="378.39" />
  <path class="GUNDAN_ARMADILLO_JEWELRY_ARMADILLO_JEWELLERY_13_cls-3" d="M240.23,379.77a2,2,0,0,1,.11.65,2,2,0,0,1-2,2h-6.69a2,2,0,0,1-1.92-2.69" />
  <path class="GUNDAN_ARMADILLO_JEWELRY_ARMADILLO_JEWELLERY_13_cls-3" d="M240.34,384.5a2,2,0,0,1-2,2h-6.69a2,2,0,0,1-2-2,2,2,0,0,1,2-2h6.69A2,2,0,0,1,240.34,384.5Z" />
  <rect class="GUNDAN_ARMADILLO_JEWELRY_ARMADILLO_JEWELLERY_13_cls-3" x="233.07" y="386.53" width="3.93" height="36.63" />
  <polygon class="GUNDAN_ARMADILLO_JEWELRY_ARMADILLO_JEWELLERY_13_cls-3" points="233.07 407.98 233.07 418.36 229.99 418.36 229.99 416.46 228.87 416.46 228.87 418.36 223.51 418.36 223.51 416.45 224.94 416.45 224.94 414.55 226.56 414.55 226.56 411.79 224.94 411.79 224.94 409.89 223.51 409.89 223.51 407.98 228.87 407.98 228.87 409.88 229.99 409.88 229.99 407.98 233.07 407.98" />
  <path class="GUNDAN_ARMADILLO_JEWELRY_ARMADILLO_JEWELLERY_13_cls-3" d="M229.29,363a5.73,5.73,0,0,1,11.35,0" />
  <path class="GUNDAN_ARMADILLO_JEWELRY_ARMADILLO_JEWELLERY_13_cls-3" d="M238.21,363.92v0a3.28,3.28,0,0,0-6.49,0v0" />
  <line class="GUNDAN_ARMADILLO_JEWELRY_ARMADILLO_JEWELLERY_13_cls-3" x1="229.49" y1="365.48" x2="229.49" y2="365.47" />
  <path class="GUNDAN_ARMADILLO_JEWELRY_ARMADILLO_JEWELLERY_13_cls-4" d="M264.77,350.36l-1.62-.5a8.51,8.51,0,0,0,.06-1.6l1.65-.38a.6.6,0,0,0,.38-.28.55.55,0,0,0,.08-.45l-.5-2.13a.62.62,0,0,0-.58-.48h-.14l-1.65.39a11.26,11.26,0,0,0-.75-1.42l1.24-1.16a.62.62,0,0,0,.2-.42.64.64,0,0,0-.17-.44l-1.5-1.6a.64.64,0,0,0-.43-.2.63.63,0,0,0-.43.17L259.38,341l-.48-.33-.47.42c-.38.34-.76.68-1.16,1-.17.15-.34.28-.51.42a6.83,6.83,0,0,1,3,2.92,7,7,0,0,1-6.29,10.21,6.65,6.65,0,0,1-1.88-.3,7,7,0,0,1-4.91-6.94,7.47,7.47,0,0,1,.3-1.74,7,7,0,0,1,6.8-4.91l.22,0,.54-.56c1-1,2-2.08,2.83-3l.45-.5-1.78-.55-.17,0a.6.6,0,0,0-.3.07.66.66,0,0,0-.3.36l-.5,1.62c-.32,0-.64-.06-1-.07h-.64l-.38-1.64a.59.59,0,0,0-.58-.47.33.33,0,0,0-.14,0l-.68.14-1.47.34a.61.61,0,0,0-.45.74l.38,1.65a10.27,10.27,0,0,0-1.43.75l-1.15-1.24a.57.57,0,0,0-.42-.19h0a.58.58,0,0,0-.43.16l-1.6,1.49a.61.61,0,0,0,0,.86l1.15,1.24a9.11,9.11,0,0,0-.85,1.36l-1.62-.5a1,1,0,0,0-.17,0,.54.54,0,0,0-.3.08.56.56,0,0,0-.29.36l-.65,2.09a.62.62,0,0,0,.41.76l1.62.5a8.6,8.6,0,0,0-.06,1.6l-1.65.38a.6.6,0,0,0-.38.28.58.58,0,0,0-.08.46l.5,2.13a.6.6,0,0,0,.58.47.39.39,0,0,0,.15,0l1.64-.38a10.33,10.33,0,0,0,.76,1.43l-1.24,1.15a.57.57,0,0,0-.19.42.6.6,0,0,0,.16.44l1.49,1.61a.68.68,0,0,0,.43.19h0a.61.61,0,0,0,.43-.17l1.24-1.15a8.91,8.91,0,0,0,1.36.85l-.5,1.62a.63.63,0,0,0,.41.76l2.09.64a.47.47,0,0,0,.17,0,.61.61,0,0,0,.59-.43l.5-1.62h0l.59.06h1l.35,1.51,0,.15a.61.61,0,0,0,.58.45h.12l.13,0,2-.47a.62.62,0,0,0,.46-.74l-.38-1.64a11.41,11.41,0,0,0,1.42-.76L260,358a.55.55,0,0,0,.42.2.62.62,0,0,0,.43-.16l.79-.72.82-.77a.61.61,0,0,0,0-.87l-1.15-1.23c.13-.18.25-.35.36-.53a9.54,9.54,0,0,0,.49-.83l1.62.49.16,0a.73.73,0,0,0,.3-.07.67.67,0,0,0,.31-.37l.64-2.08A.62.62,0,0,0,264.77,350.36Z" />
  <path d="M265,349.77l-1.14-.35c0-.22,0-.45,0-.68l1.17-.27a1.21,1.21,0,0,0,.76-.54,1.25,1.25,0,0,0,.16-.92l-.5-2.13a1.23,1.23,0,0,0-1.16-.95l-.3,0-1.16.27c-.1-.21-.21-.41-.32-.6l.88-.82a1.24,1.24,0,0,0,.38-.85,1.2,1.2,0,0,0-.32-.88l-1.51-1.6a1.2,1.2,0,0,0-.86-.38,1.25,1.25,0,0,0-.86.32l-.31.29-.06.07-.92.91-.47.42h0a8.22,8.22,0,0,1,1,.7l1.61-1.5,1.5,1.6-1.63,1.51a8.93,8.93,0,0,1,1.18,2.22l2.16-.5.49,2.14-2.16.49a8.82,8.82,0,0,1-.09,2.51l2.12.66L264,353l-2.13-.65a8.74,8.74,0,0,1-.67,1.24,6.88,6.88,0,0,1-.65.88l1.5,1.63-.81.77-.79.72L258.9,356a9.31,9.31,0,0,1-2.23,1.17l.5,2.16-2,.47-.1,0,0-.14-.46-2a7.66,7.66,0,0,1-1.07,0h-.36c-.18,0-.36,0-.54-.06a5,5,0,0,1-.54-.07l-.65,2.12-2.09-.64.65-2.13a8.56,8.56,0,0,1-2.13-1.32l-1.62,1.5-1.5-1.6,1.63-1.5a9,9,0,0,1-1.18-2.23l-2.16.5-.49-2.13,2.16-.5a8.76,8.76,0,0,1,.09-2.5l-2.12-.66.64-2.09.7.22,1.42.43a8.81,8.81,0,0,1,1.34-2.13l-1.51-1.62,1.6-1.49,1.5,1.62a9.53,9.53,0,0,1,2.23-1.18l-.5-2.16,1.47-.34.67-.15.49,2.16a8,8,0,0,1,1.1,0,8.42,8.42,0,0,1,1.41.14l.66-2.13,1.51.47.45-.5.45-.5-2.05-.64a1.4,1.4,0,0,0-.34-.05,1.18,1.18,0,0,0-.6.14,1.24,1.24,0,0,0-.59.72l-.36,1.15-.51,0h-.17l-.26-1.15a1.22,1.22,0,0,0-1.17-1l-.28,0-.66.15-1.49.33a1.23,1.23,0,0,0-.92,1.47l.27,1.17a5.07,5.07,0,0,0-.61.32l-.81-.87a1.26,1.26,0,0,0-.85-.4h0a1.3,1.3,0,0,0-.86.33l-1.6,1.49a1.23,1.23,0,0,0-.06,1.73l.81.87c-.12.19-.25.38-.36.58l-.44-.13-.7-.22a1.26,1.26,0,0,0-.33-.05,1.19,1.19,0,0,0-.61.14,1.21,1.21,0,0,0-.59.72l-.64,2.09a1.24,1.24,0,0,0,.81,1.53l1.14.35c0,.23,0,.46,0,.68l-1.17.27a1.2,1.2,0,0,0-.77.55,1.28,1.28,0,0,0-.15.92l.5,2.13a1.22,1.22,0,0,0,1.16.94,1.12,1.12,0,0,0,.31,0l1.15-.27c.11.21.21.41.33.6l-.88.82a1.14,1.14,0,0,0-.38.85,1.2,1.2,0,0,0,.32.88l1.5,1.6a1.19,1.19,0,0,0,.85.39h0A1.23,1.23,0,0,0,247,358l.86-.81c.19.12.38.25.58.36l-.35,1.14a1.22,1.22,0,0,0,.81,1.52l2.09.65a1.26,1.26,0,0,0,.33.05,1.23,1.23,0,0,0,1.2-.86l.35-1.14h.16l.38,0h.14l.23,1v0l0,.14a1.21,1.21,0,0,0,1.16.92,1,1,0,0,0,.24,0l.1,0h.06l2-.47a1.22,1.22,0,0,0,.91-1.46l-.27-1.16c.21-.1.41-.21.6-.32l.82.87a1.22,1.22,0,0,0,1.72.07l.78-.73.83-.76a1.23,1.23,0,0,0,.06-1.73l-.81-.88.09-.14.27-.43,1.14.34a1,1,0,0,0,.33.06,1.29,1.29,0,0,0,.6-.14,1.22,1.22,0,0,0,.6-.73l.64-2.09A1.23,1.23,0,0,0,265,349.77Zm-11.58-7.39.61-.59.54-.56a6.34,6.34,0,0,0-.75-.07,7.55,7.55,0,0,0-7.39,5.34,7.81,7.81,0,0,0-.33,1.89,7.58,7.58,0,0,0,5.34,7.55,7.3,7.3,0,0,0,2,.33,7.55,7.55,0,0,0,3.84-14.16c-.17.15-.34.28-.51.42l-.54.41a6.34,6.34,0,1,1-9,5.5,6.9,6.9,0,0,1,.28-1.59A6.37,6.37,0,0,1,253.37,342.38Zm3.9-.27c-.17.15-.34.28-.51.42l-.54.41a6.34,6.34,0,1,1-9,5.5,6.9,6.9,0,0,1,.28-1.59,6.37,6.37,0,0,1,5.82-4.47l.61-.59.54-.56a6.34,6.34,0,0,0-.75-.07,7.55,7.55,0,0,0-7.39,5.34,7.81,7.81,0,0,0-.33,1.89,7.58,7.58,0,0,0,5.34,7.55,7.3,7.3,0,0,0,2,.33,7.55,7.55,0,0,0,3.84-14.16Zm0,0c-.17.15-.34.28-.51.42l-.54.41a6.34,6.34,0,1,1-9,5.5,6.9,6.9,0,0,1,.28-1.59,6.37,6.37,0,0,1,5.82-4.47l.61-.59.54-.56a6.34,6.34,0,0,0-.75-.07,7.55,7.55,0,0,0-7.39,5.34,7.81,7.81,0,0,0-.33,1.89,7.58,7.58,0,0,0,5.34,7.55,7.3,7.3,0,0,0,2,.33,7.55,7.55,0,0,0,3.84-14.16Z" />
</svg>