<svg xmlns="http://www.w3.org/2000/svg" viewBox="0 0 432 432">
  <defs>
    <style>.BUNTAI_PUMA_OUTFIT_PUMA_OUTFIT_26_cls-1{isolation:isolate;}.BUNTAI_PUMA_OUTFIT_PUMA_OUTFIT_26_cls-2{fill:#fff;}.BUNTAI_PUMA_OUTFIT_PUMA_OUTFIT_26_cls-3{fill:#7a6cb5;}.BUNTAI_PUMA_OUTFIT_PUMA_OUTFIT_26_cls-4{fill:#41377c;}.BUNTAI_PUMA_OUTFIT_PUMA_OUTFIT_26_cls-5{fill:#bdb6cb;}.BUNTAI_PUMA_OUTFIT_PUMA_OUTFIT_26_cls-6{fill:#d9ae5f;}.BUNTAI_PUMA_OUTFIT_PUMA_OUTFIT_26_cls-7,.BUNTAI_PUMA_OUTFIT_PUMA_OUTFIT_26_cls-8{fill:none;stroke:#000;stroke-linecap:round;stroke-linejoin:round;}.BUNTAI_PUMA_OUTFIT_PUMA_OUTFIT_26_cls-7{stroke-width:1.74px;}.BUNTAI_PUMA_OUTFIT_PUMA_OUTFIT_26_cls-8{stroke-width:1.63px;}.BUNTAI_PUMA_OUTFIT_PUMA_OUTFIT_26_cls-9{opacity:0.43;mix-blend-mode:multiply;}</style>
  </defs>
  <g class="BUNTAI_PUMA_OUTFIT_PUMA_OUTFIT_26_cls-1">
    <g id="outfit">
      <path class="BUNTAI_PUMA_OUTFIT_PUMA_OUTFIT_26_cls-2" d="M122.51,386.1c4,0,7.26,3,7.26,6.67s-3.26,6.68-7.26,6.68a6.7,6.7,0,1,1,0-13.35Z" />
      <path class="BUNTAI_PUMA_OUTFIT_PUMA_OUTFIT_26_cls-3" d="M101.37,401.62h0c0,.05,0,.1-.05.15-.16.58-.32,1.16-.47,1.74-.3,1.13-.57,2.27-.82,3.41-.16.77-.31,1.53-.45,2.3-1.1-.47-2.19-.92-3.29-1.37l-2.36-.92h0l-.06,0c-1.18-.47-2.38-.92-3.58-1.34s-2.4-.85-3.6-1.25-2.17-.74-3.27-1.07c-1.33-.44-2.67-.84-4-1.23s-2.42-.7-3.62-1-2.51-.66-3.76-1c-2.48-.62-5-1.19-7.49-1.69H64.4c-1.2-.26-2.41-.49-3.61-.7-.66-.13-1.33-.25-2-.36s-1.42-.25-2.13-.36c-2.12-.34-4.23-.65-6.36-.92l-2.81-.33-.4-.05c-1.15-.12-2.31-.24-3.46-.34,1.78-4.64,2.74-9.35,5.4-13.65,1.81-2.93,3.8-5.76,5.88-8.49C72.39,378.51,89.49,388.67,101.37,401.62Z" />
      <path class="BUNTAI_PUMA_OUTFIT_PUMA_OUTFIT_26_cls-3" d="M390.61,396.25c-6,.62-7.75.62-13.63,2l-.05,0a144.17,144.17,0,0,0-17.21,5.16l-.06,0q-6.07,2.24-11.93,5c-.44-2.3-1-4.57-1.64-6.83,0-.05,0-.11,0-.16s-.11-.38-.17-.58l0-.13v0l0-.09,0-.12a0,0,0,0,1,0,0l0-.1a1.66,1.66,0,0,0-.05-.16A90.47,90.47,0,0,1,367.81,381c5.06-3.12,6.23-4.69,11.79-6.67A92.68,92.68,0,0,1,390.61,396.25Z" />
      <path class="BUNTAI_PUMA_OUTFIT_PUMA_OUTFIT_26_cls-4" d="M113.42,462.51H8.56c-2.23-16.88,1.47-34.25,8.43-50a43.89,43.89,0,0,0,19.8-17.75q3.43.17,6.85.48A185.78,185.78,0,0,1,64.4,398.3h.13a183,183,0,0,1,29.29,8.58h0l.1,0c1.89.72,3.78,1.48,5.65,2.28h0A66,66,0,0,0,102,443.6,57.09,57.09,0,0,0,113.42,462.51Z" />
      <path class="BUNTAI_PUMA_OUTFIT_PUMA_OUTFIT_26_cls-4" d="M414.46,413.1a40.66,40.66,0,0,1-17.25-17.75c-2,.11-4.61.7-6.6.9-16.23,1.69-28,5.15-42.88,12.2l.15.78a72.13,72.13,0,0,1,1.17,15.5,61.68,61.68,0,0,1-3.56,18.87A57,57,0,0,1,334,462.52l87.76.59C423.75,446.22,420.53,428.86,414.46,413.1Z" />
      <path class="BUNTAI_PUMA_OUTFIT_PUMA_OUTFIT_26_cls-2" d="M324.94,386.1c4,0,7.26,3,7.26,6.67s-3.25,6.68-7.26,6.68a6.7,6.7,0,1,1,0-13.35Z" />
      <path class="BUNTAI_PUMA_OUTFIT_PUMA_OUTFIT_26_cls-5" d="M309.47,435.32c0,.47,0,.93,0,1.39,0,1.14-.1,2.29-.22,3.46,0,.4-.08.81-.14,1.23-.1.81-.22,1.63-.36,2.45,0,0,0,0,0,0-.07.42-.15.84-.24,1.27s-.13.65-.21,1-.16.69-.25,1c-.22.93-.48,1.87-.76,2.81-.08.28-.17.55-.26.81a56.23,56.23,0,0,1-3,7.56c-.19.4-.38.8-.59,1.2-.58,1.12-1.2,2.27-1.87,3.41-.19.33-.38.66-.58,1-.4.65-.81,1.31-1.24,2-.21.34-.43.66-.65,1-.32.48-.65,1-1,1.45s-.59.83-.89,1.23c-.59.82-1.22,1.65-1.89,2.48-.45.57-.91,1.14-1.39,1.72-1.17,1.39-2.4,2.81-3.73,4.22a26.56,26.56,0,0,1-6.06,4.33c-16.63.92-37.9-.06-61-2.78-15.9,3.31-32.26,3.85-46.38,3.27a71.53,71.53,0,0,1-8-4.82c-.49-.44-1-.89-1.46-1.33s-.94-.9-1.39-1.35-.89-.88-1.31-1.32a64.55,64.55,0,0,1-6.9-8.44c-.28-.41-.55-.83-.82-1.25s-.48-.74-.7-1.11a54.88,54.88,0,0,1-4.76-9.73c-.13-.34-.25-.68-.37-1,0-.08-.05-.15-.07-.22-.12-.35-.24-.69-.34-1a54.37,54.37,0,0,1-2.16-9.42c0-.19,0-.39-.07-.59s-.06-.41-.08-.61,0-.31-.05-.46c-.05-.43-.09-.86-.13-1.29-.07-.84-.12-1.66-.16-2.48v-.09c0-.87-.06-1.74-.06-2.6q0-1,0-2a.09.09,0,0,0,0-.07c0-.66.06-1.32.1-2s.09-1.33.16-2,.13-1.32.21-2,.17-1.29.26-1.93.2-1.26.31-1.89.21-1.14.33-1.7a80,80,0,0,1,2.33-8.81c.17-.53.35-1.07.53-1.59s.36-1,.56-1.54.37-1,.56-1.49.38-1,.57-1.42.38-.93.57-1.37a87.85,87.85,0,0,1,5.07-10l.36-.59c.45-.72.77-1.21.93-1.46l.12-.17.89-12q3.06.72,6.05,1.33c4.69.95,9.29,1.73,13.9,2.38,5.24.72,10.5,1.27,15.92,1.66q3.36.25,6.82.43l.29,0c3.75.19,7.62.33,11.64.42l-.25.14,0,0h.94c2.24,0,4.43,0,6.56,0a.6.6,0,0,1,.19,0,0,0,0,0,1,0,0l5.48-.08c18.62-.39,33.92-1.62,50.29-5q3-.62,6.06-1.33L287,389.76l.06.05.17.15a.53.53,0,0,1,.12.1l.14.13a3.2,3.2,0,0,1,.36.32,1.3,1.3,0,0,1,.22.19c.42.38.95.87,1.56,1.47l.38.38.44.44.38.39.62.65c.37.39.75.81,1.16,1.26l.33.37c1.33,1.5,2.8,3.27,4.28,5.29.26.35.51.7.77,1.07q1.57,2.19,3.09,4.71c.26.43.5.85.75,1.29a64,64,0,0,1,3.44,7c.12.29.24.58.35.87a.29.29,0,0,1,0,.13c.13.28.24.56.34.84.22.57.43,1.15.62,1.74.05.13.09.26.13.39.19.54.36,1.1.52,1.66a.82.82,0,0,1,.06.19c.2.64.37,1.29.54,1.95s.33,1.37.49,2.07c.09.37.16.74.23,1.11,0,.21.08.41.11.62.21,1.13.37,2.27.49,3.43.05.46.1.93.13,1.4,0,.16,0,.34,0,.5,0,.51.07,1,.08,1.56S309.47,434.7,309.47,435.32Z" />
      <path class="BUNTAI_PUMA_OUTFIT_PUMA_OUTFIT_26_cls-3" d="M349.09,421.57c0-.15,0-.3,0-.46s0-.59,0-.88a2.81,2.81,0,0,0,0-.29c0-.7-.05-1.4-.1-2.09h0c0-.21,0-.41,0-.62a.57.57,0,0,0,0-.13.15.15,0,0,0,0-.07c0-.08,0-.16,0-.24s0-.37-.05-.55,0-.09,0-.13a0,0,0,0,0,0,0v0c0-.14,0-.28,0-.42s0-.52-.08-.78c0-.06,0-.11,0-.17l-.09-.82c0-.43-.11-.87-.17-1.31,0-.12,0-.24-.05-.36-.06-.43-.13-.87-.2-1.31v0c0-.1,0-.21-.05-.31-.07-.44-.15-.88-.23-1.32-.06-.25-.11-.51-.16-.77q-.66-3.45-1.63-6.83l-.06-.2,0,0c-.06-.19-.1-.35-.14-.5s0-.09,0-.13v0a.36.36,0,0,1,0-.09s0,0,0-.06a.13.13,0,0,0,0-.06.06.06,0,0,1,0,0l0-.09a1.66,1.66,0,0,0-.05-.16h0l-.06-.21c-.23-.73-.46-1.45-.71-2.17s-.46-1.34-.7-2l-.13-.36c-.23-.62-.47-1.25-.72-1.87s-.51-1.25-.77-1.86-.49-1.14-.74-1.7c-.33-.74-.67-1.47-1-2.2q-.72-1.5-1.5-3c-.39-.74-.79-1.47-1.2-2.2s-.83-1.45-1.26-2.17-.81-1.33-1.23-2c-.08-.14-.17-.27-.26-.41-.4-.62-.8-1.23-1.21-1.84-.95-1.39-1.93-2.77-2.95-4.11.27-.94.53-1.87.78-2.8q.74-2.79,1.38-5.53c.42-1.83.8-3.64,1.15-5.45.11-.56.22-1.12.31-1.68.18-.94.34-1.88.48-2.81.07-.37.12-.73.17-1.09s.08-.49.11-.73c.1-.6.18-1.2.26-1.79.13-.9.24-1.8.34-2.69.09-.73.17-1.45.24-2.18s.12-1.19.17-1.79c.12-1.25.22-2.51.3-3.76,0-.42.06-.83.08-1.24.08-1.34.14-2.69.19-4,0-.48,0-1,0-1.45,0-1.49.06-3,.06-4.49,0-1,0-2.05,0-3.08,0-.29,0-.58,0-.88,0-1-.05-2-.09-3-1.93-.89-4-1.78-6.55-2.73-.84-.32-1.74-.65-2.69-1q-1.65-.59-3.57-1.23c0,.11,0,.22,0,.33v.22c0,.71,0,1.45,0,2.21,0,1.11.05,2.28.06,3.48,0,.33,0,.65,0,1v.23c0,.29,0,.59,0,.89v1.59c0,2.38,0,4.86-.08,7.4,0,.85,0,1.7-.07,2.56-.06,1.73-.14,3.49-.24,5.26s-.21,3.54-.35,5.31c-.12,1.42-.24,2.83-.39,4.24s-.3,2.8-.49,4.18c-.08.65-.16,1.29-.26,1.93a2.23,2.23,0,0,1,0,.23c-.06.42-.12.83-.19,1.25l-.06.39c0,.15,0,.3-.07.45s-.09.56-.14.84c-.11.67-.23,1.34-.36,2q-.23,1.21-.48,2.4c-.1.47-.21.94-.32,1.4-.21.94-.44,1.87-.69,2.77h0l-.8.28L316,370.78l-4.13,1.39h0l-1.78.59c-.89.29-1.76.58-2.63.85l-2.59.81q-3.47,1.08-6.79,2c-1.07.3-2.12.6-3.17.88-2.1.56-4.16,1.1-6.19,1.6-1,.25-2,.5-3,.73h0L287,389.75h0a.11.11,0,0,0,.05,0,1.47,1.47,0,0,0,.17.15l0,0,.07.07.26.22,0,.05.19.17.11.09.06.06.06.06.24.21,0,0,.19.18a.6.6,0,0,0,.08.08l.06.05c.29.27.6.58.95.92h0l.38.37.39.41,0,0,.38.39.62.64h0l.56.62.34.37.26.28.07.09.14.16h0l0,.05.05.05h0l.49.57,0,0c.19.22.39.44.58.67l.14.16h0c.11.11.21.23.31.35l.38.46c.22.28.46.56.69.86a1.71,1.71,0,0,1,.11.14l0,.05h0l.07.08.18.24,0,0,.12.16.42.54a1.15,1.15,0,0,0,.14.17l.16.22v0l0,0,.11.15a3.81,3.81,0,0,1,.24.32l.16.22a3.46,3.46,0,0,1,.22.31c.26.36.53.74.79,1.12s.49.71.73,1.07c.15.2.28.41.42.63s.22.32.31.48a.61.61,0,0,1,.07.1l.3.47c.29.45.57.91.85,1.39l.09.14c.1.16.2.32.29.49l.15.27c.08.12.15.25.22.38h0l.49.88.23.43h0c.19.34.37.69.55,1l.3.57c.11.24.23.48.35.72l.18.37a.21.21,0,0,1,0,.06l0,.08c.08.17.17.35.25.53s.25.55.38.83c.22.49.43,1,.64,1.47l.33.82c.12.29.23.58.34.87s.11.28.16.43.17.44.25.67l0,.09c.41,1.14.79,2.31,1.13,3.52a2.38,2.38,0,0,1,.11.38c.09.32.18.65.26,1l0,.14h0l0,.09c.05.19.1.37.14.57a.85.85,0,0,1,0,.22,1.1,1.1,0,0,1,.06.26,2.46,2.46,0,0,1,.09.39.75.75,0,0,1,0,.16,1.44,1.44,0,0,1,.05.24v0c.08.36.15.72.22,1.09l.12.62c.07.42.14.84.2,1.26l0,.2h0s0,0,0,0a.52.52,0,0,1,0,.11c0,.12,0,.24.05.36s0,.08,0,.12l.06.45c0,.16,0,.32.05.48s0,.28.05.42a.36.36,0,0,1,0,.1,3.57,3.57,0,0,1,0,.47v.05a1.79,1.79,0,0,1,0,.23c0,.21.05.43.06.64,0,.05,0,.1,0,.16v.06a6,6,0,0,1,0,.61v.1a1.06,1.06,0,0,1,0,.25c0,.06,0,.12,0,.18,0,.4,0,.81,0,1.22h0c0,.2,0,.41,0,.61s0,.41,0,.62,0,.4,0,.6,0,.4,0,.6v.19c0,.1,0,.21,0,.31a1.41,1.41,0,0,1,0,.2c0,.25,0,.5,0,.76s0,.32,0,.48,0,.32,0,.48,0,.53-.07.79a.28.28,0,0,1,0,.09.38.38,0,0,1,0,.1,0,0,0,0,1,0,0,0,0,0,0,1,0,0h0v0a.62.62,0,0,1,0,.13.71.71,0,0,1,0,.14c0,.05,0,.1,0,.16a.13.13,0,0,1,0,.06,2.28,2.28,0,0,1,0,.26c0,.18,0,.36-.07.54s0,.21,0,.31-.06.5-.1.76c0,.09,0,.17,0,.26,0,.26-.07.52-.12.79s-.1.59-.16.89l-.06.32c-.06.33-.13.66-.2,1a2.21,2.21,0,0,1-.08.35c0,.14-.06.29-.1.45l-.09.38a3.59,3.59,0,0,1-.08.35,0,0,0,0,1,0,0c0,.12-.06.25-.09.38s0,.09,0,.14a2.68,2.68,0,0,1-.07.27.11.11,0,0,1,0,.05,0,0,0,0,0,0,0,.19.19,0,0,1,0,.07h0a.22.22,0,0,1,0,.1,0,0,0,0,1,0,0,.36.36,0,0,1,0,.11,1.21,1.21,0,0,1-.05.18.14.14,0,0,1,0,.06v0a.19.19,0,0,1,0,.08,1.8,1.8,0,0,1-.06.22.13.13,0,0,1,0,.06c0,.08-.05.15-.07.23s-.05.15-.07.23-.11.37-.16.56a.64.64,0,0,1-.06.18,1.21,1.21,0,0,1-.05.18h0l0,.1a.89.89,0,0,1-.06.2.19.19,0,0,1,0,.08l0,0q-.08.27-.18.54t-.27.81l-.09.25c-.22.62-.45,1.24-.7,1.87-.08.21-.16.41-.26.63a.13.13,0,0,1,0,.07c0,.06-.05.13-.07.2l-.21.49c-.07.17-.14.34-.23.52a.16.16,0,0,1,0,.08l-.05.12a.06.06,0,0,0,0,0l-.06.12,0,0a.08.08,0,0,1,0,0,.14.14,0,0,1,0,.06l0,0,0,.08q-.1.27-.24.54l-.18.38c-.27.6-.57,1.2-.88,1.81h0l-.06.14-.31.58c-.13.26-.27.52-.41.78a1.74,1.74,0,0,0-.11.18l-.42.76c-.07.14-.15.29-.24.44l-.16.28-.18.31-.44.74c-.26.43-.52.86-.8,1.29l-.05.07-.16.26c-.13.21-.26.42-.4.63s-.36.55-.56.83c-.47.71-1,1.42-1.48,2.13l-.44.61c-.6.83-1.23,1.65-1.89,2.48l-.39.49-.34.42-.06.07-.06.06-.07.09h0c-.09.11-.18.23-.28.34l-.2.23-.48.58-.4.47-.1.11-.43.5c-.73.85-1.51,1.71-2.31,2.57a26.56,26.56,0,0,1-6.06,4.33q1.68-.09,3.3-.21l2.69-.22c1.92-.17,3.76-.36,5.52-.6L298,481l1.74-.28,1.68-.31c.73-.14,1.44-.29,2.14-.44l1-.24c1.07-.26,2.1-.53,3.06-.82l.51-.16.9-.29c.4-.13.8-.28,1.18-.42.58-.19,1.16-.38,1.73-.59l1.45-.54c.47-.18.93-.38,1.4-.58l1.47-.66c1.23-.56,2.42-1.17,3.6-1.84.16-.08.33-.17.49-.27.53-.3,1.06-.62,1.58-.94,1-.63,2-1.31,3-2,.5-.36,1-.72,1.47-1.09s.68-.52,1-.8l.54-.45.55-.46.51-.42.5-.45c.23-.19.46-.39.68-.6l.07-.06.38-.35.18-.17c.34-.33.67-.64,1-1h0l0,0c.37-.35.72-.71,1.07-1.08l.52-.55c.18-.18.35-.37.52-.56q.48-.52.93-1c1.23-1.42,2.38-2.9,3.46-4.42.27-.38.53-.76.79-1.15s.52-.77.77-1.17l.42-.67c.17-.27.33-.54.49-.81.26-.43.51-.86.75-1.3s.43-.76.63-1.15q.45-.82.84-1.65c.16-.32.31-.64.46-.95s.3-.64.44-1c.3-.67.58-1.34.85-2q.17-.39.3-.78c.11-.28.22-.57.32-.85l.22-.64c0-.11.08-.22.11-.33s.07-.22.1-.32.15-.45.22-.67a.11.11,0,0,0,0-.08,0,0,0,0,0,0,0h0l0-.13c.08-.24.15-.48.22-.72l.06-.21a.14.14,0,0,0,0-.07v0c0-.12.07-.24.11-.36s.09-.3.13-.44.07-.28.11-.41h0s0,0,0-.05.1-.34.14-.51l.18-.69a.24.24,0,0,1,0-.08s0,0,0-.06a1.89,1.89,0,0,0,.05-.23.29.29,0,0,0,0-.09.24.24,0,0,1,0-.08l0-.05h0v0s0,0,0,0a0,0,0,0,0,0,0,.06.06,0,0,0,0,0c0-.06,0-.12,0-.17a.29.29,0,0,0,0-.09l.06-.27a2,2,0,0,1,.05-.24l.09-.39.06-.3s0-.05,0-.07h0c0-.18.08-.35.11-.53h0a.11.11,0,0,0,0-.05.94.94,0,0,0,0-.16.28.28,0,0,0,0-.09l0-.16a.38.38,0,0,1,0-.1,1.6,1.6,0,0,1,.05-.21s0,0,0,0l0-.19,0-.2a.64.64,0,0,0,0-.2l.06-.29c0-.1,0-.2.05-.3l0-.16a.09.09,0,0,0,0-.05c0-.14.05-.28.07-.42s.05-.3.07-.45,0-.07,0-.11,0-.22,0-.32.07-.51.1-.76h0a.34.34,0,0,0,0-.1c0-.32.09-.64.12-1l0-.24,0-.31s0-.07,0-.1V429c0-.06,0-.12,0-.19s0-.18,0-.27,0-.11,0-.17a1.36,1.36,0,0,0,0-.2c.06-.63.1-1.27.14-1.91s.05-1,.07-1.49c0-.78,0-1.57,0-2.36C349.1,422.1,349.1,421.84,349.09,421.57ZM325,386.09a7,7,0,0,1,7.25,6.68c0,3.68-3.25,6.68-7.25,6.68a6.7,6.7,0,1,1,0-13.36Z" />
      <path class="BUNTAI_PUMA_OUTFIT_PUMA_OUTFIT_26_cls-3" d="M122.51,386.09c-.22,0-.43,0-.64,0h-.15a7,7,0,0,0-1.23.23l-.24.07a3.69,3.69,0,0,0-.56.19,6,6,0,0,0-.63.28,5.35,5.35,0,0,0-1,.61l-.2.15a5.89,5.89,0,0,0-.94.86,7.51,7.51,0,0,0-.78,1.07,5.21,5.21,0,0,0-.28.52,5.11,5.11,0,0,0-.36,1c0,.13-.07.27-.1.4s0,0,0,0a2,2,0,0,0-.06.35,0,0,0,0,0,0,0,1,1,0,0,0,0,.24,1.22,1.22,0,0,0,0,.33,2.62,2.62,0,0,0,0,.28c0,.17,0,.34,0,.51l0,.26a0,0,0,0,0,0,0,0,0,0,0,0,0,0,3.55,3.55,0,0,0,.08.47.79.79,0,0,0,.06.22c0,.16.09.32.14.48a6.39,6.39,0,0,0,.54,1.19,7.51,7.51,0,0,0,.78,1.07,7.11,7.11,0,0,0,2.25,1.67,3.62,3.62,0,0,0,.45.2,4.26,4.26,0,0,0,.63.22l.24.07h0a3.39,3.39,0,0,0,.55.13,4.5,4.5,0,0,0,.51.08h0a1,1,0,0,0,.25,0l.66,0c4,0,7.26-3,7.26-6.68S126.52,386.09,122.51,386.09ZM168.73,478c-.38-.34-.75-.67-1.11-1l-.34-.32-.24-.22c-.78-.73-1.52-1.46-2.23-2.2h0l-.05-.06,0-.05h0l-.1-.1,0,0,0-.06-.23-.24,0,0c-.2-.2-.38-.4-.56-.6l-.22-.24h0l0,0,0,0,0-.05c-.21-.23-.43-.47-.63-.71l-.08-.08-.53-.61-.05-.06c-.24-.27-.48-.54-.7-.82a1.13,1.13,0,0,1-.1-.13c-.13-.14-.25-.29-.36-.43l0-.05s0,0,0,0l0,0,0,0-.08-.1c-.21-.25-.41-.51-.6-.76l-.1-.12-.09-.12s0,0,0-.06l-.24-.31,0-.05c-.14-.17-.27-.35-.39-.52s-.42-.56-.62-.84l-.06-.07a1.3,1.3,0,0,1-.1-.15l-.39-.55-.26-.37a2.14,2.14,0,0,0-.13-.19c-.28-.41-.55-.8-.8-1.21-.06-.1-.13-.2-.19-.31-.53-.82-1-1.65-1.5-2.48l-.11-.2a1,1,0,0,1-.09-.17.47.47,0,0,0-.05-.1s0,0,0,0-.1-.16-.14-.24a1.19,1.19,0,0,1-.08-.16.65.65,0,0,1-.09-.16l0-.06,0-.06c-.08-.14-.15-.29-.22-.43s-.26-.49-.38-.74c0,0,0-.07-.05-.1-.12-.22-.23-.44-.34-.67s-.25-.52-.37-.78-.16-.33-.23-.49a.42.42,0,0,1,0-.1.61.61,0,0,1-.05-.12l0,0a1.42,1.42,0,0,1-.08-.18.11.11,0,0,1,0-.07c-.11-.23-.21-.47-.31-.7l-.17-.41,0-.1h0c-.07-.17-.14-.33-.2-.49a1.8,1.8,0,0,1-.08-.21l-.1-.22c-.13-.33-.26-.66-.37-1-.06-.14-.11-.28-.16-.42s-.2-.55-.29-.82c0-.1-.07-.2-.1-.3s-.07-.2-.1-.29-.09-.27-.13-.4a0,0,0,0,1,0,0c-.11-.33-.22-.66-.32-1s-.16-.53-.23-.8l-.06-.23c-.08-.25-.15-.49-.21-.74,0-.09-.05-.19-.08-.28s-.05-.2-.07-.29l0-.16h0s0,0,0-.05a.71.71,0,0,1,0-.2c-.09-.36-.17-.72-.25-1.08a.13.13,0,0,0,0-.06h0a0,0,0,0,0,0,0v0c0-.2-.09-.4-.13-.61a.4.4,0,0,1,0-.15h0a.29.29,0,0,1,0-.09c0-.11-.05-.22-.07-.33a.22.22,0,0,1,0-.08,1.57,1.57,0,0,1,0-.23c0-.17-.07-.34-.1-.51l-.06-.32a.06.06,0,0,1,0,0,.9.9,0,0,1,0-.16l-.12-.72c0-.31-.1-.61-.14-.92l0-.25c0-.08,0-.16,0-.24a.44.44,0,0,0,0-.1c0-.13,0-.26,0-.4-.06-.48-.11-1-.16-1.45,0-.06,0-.11,0-.16s0-.24,0-.37l0-.36,0-.35c0-.3-.05-.61-.07-.91l-.06-1.22v0c-.05-1.07-.06-2.15-.05-3.21,0-.22,0-.42,0-.64s0-.48,0-.73t0-.06c0-.53,0-1.05.07-1.58,0-.27,0-.55.05-.82s.05-.72.09-1.07c0,0,0,0,0,0,0-.24,0-.49.07-.73s0-.48.07-.73c0-.05,0-.1,0-.16a.5.5,0,0,1,0-.12l.06-.58c0-.19.05-.38.08-.58s0-.27.05-.4,0-.19,0-.29c0-.33.09-.66.14-1,0-.12,0-.23.05-.34l.06-.39c0-.15.06-.29.08-.43.08-.46.16-.91.25-1.37,0-.14.05-.28.08-.43l.09-.41c.05-.26.1-.51.16-.77s.17-.8.26-1.2c0-.12.05-.23.08-.34s.05-.21.08-.31h0s0,0,0-.06a1.6,1.6,0,0,0,0-.21c0-.09,0-.18.07-.28l0-.13a.5.5,0,0,1,0-.13h0l.06-.25.18-.7a.25.25,0,0,0,0-.07s0-.05,0-.07,0-.05,0-.07l.24-.87c0-.14.07-.27.11-.4s0-.06,0-.08l0-.12v0l.18-.62a1.09,1.09,0,0,1,.05-.17.75.75,0,0,0,.05-.16c0-.12.07-.23.11-.34l.12-.38h0c0-.08.05-.16.08-.24l0-.12,0,0c0-.12.07-.24.11-.36l.08-.26h0c.05-.17.1-.34.16-.5a2.83,2.83,0,0,1,.11-.31c0-.08.05-.16.07-.23s.12-.36.19-.55l0-.08c.13-.38.27-.76.4-1.13s.27-.74.41-1.1.25-.66.38-1c.36-.94.74-1.84,1.11-2.7.07-.18.15-.35.22-.51a1.11,1.11,0,0,0,.07-.16c.05-.11.09-.21.14-.31s.14-.33.22-.48.23-.53.35-.78l.18-.38q.23-.5.45-1c.14-.3.28-.58.42-.85l.13-.27.54-1.05a3.59,3.59,0,0,1,.17-.34l0-.05.06-.1h0l.08-.15c.24-.47.48-.91.71-1.31l.19-.34.09-.17c.12-.22.24-.42.35-.61l.13-.23c.2-.34.38-.66.55-.94l.1-.17h0c.06-.09.11-.18.16-.27h0l.12-.2,0-.06h0a.83.83,0,0,1,.08-.12l.2-.33c.09-.14.17-.26.23-.37l.25-.38c.05-.06.07-.11.09-.13l0-.05.9-12c-3.76-.88-7.61-1.87-11.59-3-1.24-.35-2.49-.71-3.76-1.09l-3.85-1.17-2.58-.81c-.87-.27-1.74-.56-2.63-.85l-1.78-.59h0c-2-.67-4.11-1.38-6.24-2.13l-2.14-.75h0c-2.6-9.57-3.7-21.53-4.08-32.65-.12-3.44-.15-6.78-.15-9.95v-1.57c0-.22,0-.44,0-.67,0-.51,0-1,0-1.52,0-.25,0-.5,0-.75s0-.49,0-.73l0-1.45a.19.19,0,0,1,0-.08.61.61,0,0,1,0-.14l0-1.18c0-.3,0-.59,0-.89s0-.58,0-.87,0-.39,0-.59c0-.52,0-1,0-1.52,0,0,0,0,0,0q0-.74.06-1.44,0-.48,0-.93c0-.3,0-.6,0-.89q.06-1.32.12-2.46c0-.25,0-.5,0-.74s0-.23,0-.34v0c0-.11,0-.22,0-.32v-.23c0-.11,0-.22,0-.33a.17.17,0,0,0,0-.07,1.93,1.93,0,0,0,0-.24,1.11,1.11,0,0,1,0-.17c0-.08,0-.15,0-.22,0-.37,0-.7.06-1v-.12l0-.34c0-.26,0-.5,0-.71l-.47.16-1.45.48-.58.19-.79.24c-.62.18-1.21.34-1.76.45l-.51.1h0l-.53.26-1.81.87c-1.81.88-3.61,1.77-5.3,2.64q-.3,3.88-.45,7.78c-.18,4.56-.2,9.14-.06,13.7q.07,2.91.26,5.82t.45,5.8c.18,1.94.39,3.86.64,5.79s.52,3.84.84,5.74v0c.31,1.92.66,3.82,1,5.72h0c.21,1,.43,2.08.66,3.11s.43,1.88.65,2.82c.06.27.13.55.2.82l.09.37c0,.11,0,.22.08.32s0,.2.08.3c.06.26.13.53.2.79.24.94.5,1.88.76,2.82.06.19.11.39.16.58a3.37,3.37,0,0,1,.1.34c-.23.3-.45.61-.67.91l-.66.91-.09.11-.24.33v0l0,.05,0,0c-.23.31-.44.62-.65.93s-.43.62-.64.94l-.42.63c-.14.21-.28.41-.41.62l-.93,1.45c-.56.9-1.1,1.8-1.63,2.72a1.09,1.09,0,0,1-.08.15h0c-.28.47-.55,1-.83,1.45-.52.95-1,1.9-1.5,2.86s-1.08,2.18-1.59,3.29c-.13.28-.26.56-.38.84s-.14.31-.2.47c-.17.38-.34.77-.5,1.16s-.24.57-.35.86l-.27.65c-.09.21-.17.42-.25.64-.17.43-.34.87-.5,1.3-.76,2-1.43,4.07-2,6.14h0l0,.11v0s0,0,0,0l0,.06h0c-.15.54-.3,1.09-.44,1.63s-.29,1.14-.42,1.71c-.07.28-.14.57-.2.86s-.14.56-.19.85-.14.64-.2.95-.18.89-.26,1.34h0A66.09,66.09,0,0,0,102,443.59c.18.49.36,1,.55,1.46.11.28.23.56.35.84s.32.78.49,1.16l.39.87.22.48c.24.5.49,1,.74,1.5.15.29.3.59.46.88l.48.88c.32.58.65,1.16,1,1.73.13.22.26.44.4.66.27.45.55.88.84,1.32s.42.63.64.94.53.78.81,1.16.72,1,1.1,1.47c.19.24.37.48.57.72s.38.48.58.72c.46.56.92,1.1,1.4,1.64h0q.19.24.42.48h0c.76.84,1.55,1.65,2.37,2.45l.09.09c.11.1.22.2.32.31s.24.23.36.33q.42.41.84.78c.35.32.69.63,1,.92l1.06.89.72.58c.66.53,1.33,1,2,1.52.48.35,1,.69,1.46,1l.89.59c.43.28.87.56,1.32.83l.12.07,1.24.73c.45.25.9.5,1.36.74s.92.48,1.38.7l.87.42c.34.17.68.32,1,.47l.65.28c.25.11.49.22.74.31s.49.21.74.3.73.29,1.1.42l.49.18.17.06,1.44.49a243.21,243.21,0,0,0,39.52,4.81A73.29,73.29,0,0,1,168.73,478Z" />
      <path class="BUNTAI_PUMA_OUTFIT_PUMA_OUTFIT_26_cls-6" d="M284.16,362.51c1.93,12.5,13.16,11.69,13.16,11.69s-11.25-5.66-9-13.53,16.94-9.49,19.74.12a13.59,13.59,0,0,1-3.26,13.64q3.42-1.06,7-2.25a21,21,0,0,0,2.49-12.68C312.23,344.16,282.23,350,284.16,362.51Z" />
      <path class="BUNTAI_PUMA_OUTFIT_PUMA_OUTFIT_26_cls-6" d="M293.46,344c-23.67,6.17-28.38,27.12-13.86,37q3-.62,6.06-1.33a14.16,14.16,0,0,1-9.13-12c-1.31-10.82,9-16.87,18.59-19.46,7.69-2.08,21.14-5.21,29.2-11.57.12-3.43.16-6.78.16-9.95C320.13,331.36,310.49,339.59,293.46,344Z" />
      <path class="BUNTAI_PUMA_OUTFIT_PUMA_OUTFIT_26_cls-6" d="M133.12,359.5a21,21,0,0,0,2.49,12.68c2.39.79,4.71,1.54,7,2.25a13.64,13.64,0,0,1-3.26-13.64c2.81-9.61,17.46-8,19.76-.12s-9,13.53-9,13.53.32,0,.87,0c2.66-.11,10.68-1.31,12.29-11.69C165.22,350,135.23,344.16,133.12,359.5Z" />
      <path class="BUNTAI_PUMA_OUTFIT_PUMA_OUTFIT_26_cls-6" d="M154,344c-17-4.43-26.66-12.66-31-17.34,0,3.17,0,6.52.16,9.95,8.06,6.37,21.49,9.49,29.18,11.57,9.57,2.59,19.92,8.64,18.61,19.46a14.17,14.17,0,0,1-9.14,12q3.06.72,6.05,1.33C182.38,371.14,177.66,350.19,154,344Z" />
      <path class="BUNTAI_PUMA_OUTFIT_PUMA_OUTFIT_26_cls-2" d="M276.53,367.66a14.16,14.16,0,0,0,9.13,12h0c4-.94,8.12-2,12.39-3.21,2.21-.64,4.47-1.31,6.78-2a13.59,13.59,0,0,0,3.26-13.64c-2.8-9.61-17.45-8-19.74-.12s9,13.53,9,13.53-11.23.81-13.16-11.69,28.07-18.35,30.18-3a21,21,0,0,1-2.49,12.68c2.72-.91,5.51-1.87,8.39-2.89,2.6-9.58,3.71-21.53,4.08-32.66-8.06,6.36-21.51,9.49-29.2,11.57C285.57,350.79,275.22,356.84,276.53,367.66Z" />
      <path class="BUNTAI_PUMA_OUTFIT_PUMA_OUTFIT_26_cls-2" d="M324.48,326.67c-4.34,4.69-14,12.91-31,17.35-23.66,6.16-28.38,27.11-13.85,37l-3.06.6-.3.06-.3.06-2.44.44-1,.17-2,.34c-1,.17-2,.32-3,.46l-.44.07-.16,0-1.05.15-.95.13-.81.11-.28,0-.79.1-.21,0h-.07l-.18,0c-.55.07-1.1.14-1.66.19l-.82.1-1,.11-.33,0-.2,0c-.82.09-1.65.18-2.48.25-.52.06-1,.11-1.57.15l-1.57.14-1,.09-1.81.14-1.81.13-2.23.14c-.48,0-1,.07-1.45.09l-1.86.1-1,0-.26,0-.6,0h-.13l-1.8.08h-.11l-2.7.1-1.68.06-.91,0-4.24.1-1,0-4.51.07a0,0,0,0,0,0,0,.6.6,0,0,0-.19,0h0c-2.46,0-4.85-.08-7.2-.13,29.53-17.72,72.93-57,92.72-75.48a98,98,0,0,0,9.27,4.27c1,.37,1.89.71,2.79,1l2.59.85.55.18c0,.18,0,.37,0,.56,0,.72,0,1.45,0,2.21,0,1.11.05,2.28.06,3.48,0,.33,0,.65,0,1v.23c0,.41,0,.82,0,1.23S324.48,326.25,324.48,326.67Z" />
      <path class="BUNTAI_PUMA_OUTFIT_PUMA_OUTFIT_26_cls-2" d="M152.32,348.2c-7.69-2.08-21.12-5.2-29.18-11.57.37,11.13,1.48,23.08,4.08,32.66,2.88,1,5.67,2,8.39,2.89a21,21,0,0,1-2.49-12.68c2.11-15.34,32.1-9.47,30.18,3-1.61,10.38-9.63,11.58-12.29,11.69-.55,0-.87,0-.87,0s11.25-5.66,9-13.53-16.95-9.49-19.76.12a13.64,13.64,0,0,0,3.26,13.64c2.6.8,5.13,1.55,7.61,2.25q6,1.69,11.58,3a14.17,14.17,0,0,0,9.14-12C172.24,356.84,161.89,350.79,152.32,348.2Z" />
      <path class="BUNTAI_PUMA_OUTFIT_PUMA_OUTFIT_26_cls-2" d="M208.06,363.17l-.72.54-25.6,19.67c-4.6-.65-9.2-1.44-13.89-2.39,14.54-9.86,9.82-30.81-13.85-37q-2.59-.67-5-1.46l-1.09-.37-1.4-.5c-.93-.34-1.82-.69-2.69-1.05l-.73-.3-1.35-.6c-1.2-.54-2.34-1.09-3.43-1.66l-.8-.42a64,64,0,0,1-5.68-3.44c-.28-.19-.56-.38-.83-.58-1.15-.81-2.2-1.61-3.15-2.39l-1-.8-.73-.64a44.49,44.49,0,0,1-3.21-3.13h0c0-.52,0-1,0-1.56,0-.72,0-1.43,0-2.13a.13.13,0,0,1,0-.06c0-.38,0-.75,0-1.12,0-.12,0-.24,0-.36s0-.54,0-.81,0-.43,0-.64a.19.19,0,0,1,0-.08.61.61,0,0,1,0-.14c0-.85,0-1.68,0-2.47,0-.16,0-.31,0-.47s0-.39,0-.59c0-.52,0-1,0-1.52,0-.17,0-.34,0-.51,0-.49,0-1,.06-1.43,0-.16,0-.31,0-.46s0-.6,0-.89q.06-1.32.12-2.46c0-.26,0-.5,0-.74s0-.23,0-.34v0c0-.11,0-.22,0-.32s0-.43,0-.63a0,0,0,0,0,0,0c0-.07,0-.14,0-.2a1.09,1.09,0,0,0,0-.18c0-.08,0-.15,0-.22,0-.37,0-.7.06-1l0-.46c0-.26,0-.5,0-.71,1-.38,2.15-.79,3.27-1.23.81.86,1.82,1.93,3,3.17l.17.18h0l.1.11c.13.14.28.3.43.44l1.67,1.7.89.89.93.92,2,1.94c1.73,1.68,3.62,3.49,5.67,5.39.81.75,1.64,1.52,2.5,2.3l1.34,1.22c.88.8,1.79,1.6,2.71,2.42,4.69,4.13,9.93,8.52,15.59,12.9.84.65,1.68,1.3,2.54,1.94s1.72,1.29,2.59,1.93c4.55,3.37,9.34,6.67,14.3,9.8l1.93,1.2,2.43,1.47q2,1.18,3.93,2.29,3.51,2,7.1,3.81c.82.41,1.64.82,2.46,1.21.55.27,1.11.54,1.66.79s1.11.52,1.66.77c1.11.51,2.22,1,3.34,1.47Z" />
      <path class="BUNTAI_PUMA_OUTFIT_PUMA_OUTFIT_26_cls-3" d="M305,308.19c1.36.75,2.76,1.51,4.18,2.24-19.79,18.47-63.19,57.76-92.72,75.48l-2.45-.07-2.42-.07-2.38-.09H209l-2.16-.09h-.3l-1.74-.09h-.28l-3.49-.2-3.33-.23c1.07-.69,2.79-1.94,4.83-3.49l1-.74,1.53-1.17,1.9-1.47.24-.19,1.1-.86,1.11-.87c.74-.58,1.49-1.16,2.23-1.76l.55-.43,1.1-.87c2.36-1.87,4.59-3.66,6.38-5.1l2-1.65.12-.1.54-.43,0,0,.25-.2.43-.35.18-.15.08-.06.08-.07.12-.09h0l0,0,.18-.15,0,0q4.67-3.21,9.28-6.49c1-.67,1.89-1.34,2.82-2l2-1.47.76-.55,1.37-1c4.6-3.37,9.09-6.77,13.51-10.21l2.52-2,.78-.61.65-.52q4.59-3.63,9.07-7.32l3.19-2.64q2.87-2.38,5.7-4.8l3.77-3.23q5-4.31,9.89-8.69c1-.88,2-1.77,3-2.67q3.31-3,6.61-6h0C300.58,305.7,302.71,306.94,305,308.19Z" />
      <path class="BUNTAI_PUMA_OUTFIT_PUMA_OUTFIT_26_cls-3" d="M214.44,358.27l-6.38,4.9-.09,0c-1.12-.47-2.23-1-3.34-1.47l-1.66-.77-1.66-.79-2.46-1.21q-3.58-1.81-7.1-3.81-2-1.12-3.93-2.29l-2.43-1.47-1.93-1.2c-5-3.13-9.75-6.43-14.3-9.8l-2.59-1.93L164,336.45c-5.66-4.38-10.9-8.77-15.59-12.9l-2.71-2.42-1.34-1.22c-.86-.78-1.69-1.55-2.5-2.3-2-1.9-3.94-3.71-5.67-5.39l-2-1.94-.93-.92-.89-.89-1.67-1.7-.54-.55-.17-.18c-1.21-1.24-2.22-2.31-3-3.17,2.49-1,5.11-2.09,7.66-3.24,1.59-.7,3.16-1.43,4.66-2.13A772.47,772.47,0,0,0,214.44,358.27Z" />
      <path class="BUNTAI_PUMA_OUTFIT_PUMA_OUTFIT_26_cls-5" d="M291.07,299.78c1.27.83,4,2.63,7.59,4.77q-3.3,3-6.61,6c-1,.9-2,1.79-3,2.67q-4.92,4.39-9.89,8.69l-3.77,3.23q-2.84,2.41-5.7,4.8l-3.19,2.64q-4.49,3.69-9.07,7.32l-.65.52-.78.61c-.83.66-1.67,1.31-2.52,2-4.42,3.44-8.91,6.84-13.51,10.21l-1.37,1-.76.55-2,1.47c-.93.68-1.87,1.35-2.82,2q-4.6,3.28-9.28,6.5h0l-.18.15,0,0h0l-.12.09h0l-.08.06-.08.06h0l-.18.14-.43.35-.25.2h0l0,0-.38.31-.16.12h0l-.12.09-2,1.65c-1.79,1.44-4,3.23-6.38,5.1l-1.1.87-.55.43c-.74.6-1.49,1.18-2.23,1.76l-1.11.87-1.1.86-.24.19-1.9,1.47-1.53,1.17-1,.74c-2,1.55-3.76,2.8-4.83,3.49-5.42-.4-10.69-.94-15.93-1.66l26.32-20.21,6.38-4.9a772.47,772.47,0,0,1-75.1-60.77c3.43-1.61,6.51-3.13,8.7-4.23,7.42,6.55,15.43,12.59,23.38,18.59l52.31,39.41L276,311.86c4.06-3.05,7.86-6,11.48-9.05.6-.5,1.2-1,1.79-1.51S290.49,300.29,291.07,299.78Z" />
      <path class="BUNTAI_PUMA_OUTFIT_PUMA_OUTFIT_26_cls-7" d="M148,293.27c7.42,6.55,15.43,12.59,23.38,18.59l52.31,39.41" />
      <path class="BUNTAI_PUMA_OUTFIT_PUMA_OUTFIT_26_cls-7" d="M139.34,297.5a772.47,772.47,0,0,0,75.1,60.77" />
      <path class="BUNTAI_PUMA_OUTFIT_PUMA_OUTFIT_26_cls-7" d="M116.24,372.15l-.09-.33v0a5.26,5.26,0,0,1-.15-.53h0v0l-.51-1.86c-.09-.32-.18-.64-.26-1l-.09-.35c0-.14-.07-.27-.1-.41s-.12-.43-.16-.65-.15-.6-.23-.9c-.5-2.07-1-4.14-1.38-6.23-.38-1.9-.72-3.81-1-5.72v0q-.47-2.86-.84-5.74c-.25-1.93-.46-3.85-.64-5.79s-.33-3.86-.45-5.8-.21-3.88-.26-5.82c-.14-4.56-.12-9.14.06-13.7.1-2.6.24-5.19.44-7.78h0c1.69-.87,3.49-1.76,5.3-2.64l1.81-.88.51-.25" />
      <path class="BUNTAI_PUMA_OUTFIT_PUMA_OUTFIT_26_cls-7" d="M101.36,401.62q.9-3.11,2-6.13a92,92,0,0,1,12.85-23.34" />
      <path class="BUNTAI_PUMA_OUTFIT_PUMA_OUTFIT_26_cls-7" d="M99.58,409.23a76.82,76.82,0,0,1,1.78-7.6" />
      <path class="BUNTAI_PUMA_OUTFIT_PUMA_OUTFIT_26_cls-7" d="M99.58,409.24A66,66,0,0,0,102,443.6a57.09,57.09,0,0,0,11.45,18.91A54.8,54.8,0,0,0,137.21,478a243.84,243.84,0,0,0,39.53,4.82c14.11.58,30.48,0,46.38-3.27,23.06,2.72,44.33,3.7,61,2.78,11-.6,20-2,26.16-4.33.59-.18,1.17-.38,1.74-.59l1.45-.54c.47-.18.93-.38,1.39-.58s1-.42,1.48-.66c1.22-.56,2.42-1.17,3.59-1.83l.49-.27a54.75,54.75,0,0,0,6.1-4.06c.34-.26.68-.52,1-.79l1.09-.91c.35-.28.69-.57,1-.88s.76-.66,1.12-1l.18-.17c.35-.32.69-.65,1-1l0,0c.72-.71,1.41-1.44,2.1-2.19a57,57,0,0,0,11.45-18.92c.15-.43.3-.86.44-1.29.41-1.23.79-2.48,1.12-3.72.12-.47.24-.93.34-1.39,0,0,0,0,0,0,.07-.26.12-.5.18-.76s.11-.51.16-.77.16-.74.22-1.11c.14-.68.26-1.37.36-2,.05-.3.09-.59.13-.88.26-1.78.43-3.58.53-5.37,0-.5,0-1,.08-1.49,0-.78,0-1.57,0-2.35s0-1.43,0-2.15a1.27,1.27,0,0,0,0-.28c0-.7-.05-1.41-.1-2.1,0-.36,0-.71-.07-1.06,0-.19,0-.37-.05-.56-.07-.79-.15-1.58-.24-2.36-.05-.44-.11-.88-.17-1.32-.15-1.1-.33-2.21-.53-3.32l-.15-.78c-.44-2.3-1-4.57-1.64-6.83-.07-.24-.14-.49-.22-.74l-.19-.65q-.74-2.4-1.6-4.74a92.29,92.29,0,0,0-12.85-23.33" />
      <path class="BUNTAI_PUMA_OUTFIT_PUMA_OUTFIT_26_cls-7" d="M43.64,395.25c1.78-4.64,2.74-9.35,5.4-13.65,1.81-2.93,3.8-5.76,5.88-8.49,17.47,5.4,34.57,15.56,46.45,28.51h0" />
      <path class="BUNTAI_PUMA_OUTFIT_PUMA_OUTFIT_26_cls-7" d="M99.58,409.24h0a185.82,185.82,0,0,0-55.94-14q-3.42-.31-6.85-.48" />
      <path class="BUNTAI_PUMA_OUTFIT_PUMA_OUTFIT_26_cls-7" d="M36.79,394.77A43.89,43.89,0,0,1,17,412.52c-7,15.75-10.66,33.12-8.43,50H113.41" />
      <path class="BUNTAI_PUMA_OUTFIT_PUMA_OUTFIT_26_cls-7" d="M129.77,392.77c0,3.69-3.26,6.68-7.26,6.68a6.7,6.7,0,1,1,0-13.35C126.51,386.1,129.77,389.08,129.77,392.77Z" />
      <path class="BUNTAI_PUMA_OUTFIT_PUMA_OUTFIT_26_cls-7" d="M223.81,386a.6.6,0,0,0-.19,0h0c-2.46,0-4.85-.08-7.2-.13l-2.45-.07-2.42-.07-2.38-.09H209l-2.16-.09h-.3l-1.69-.08h-.33l-3.49-.2-3.33-.23c-5.42-.4-10.69-.94-15.93-1.66-4.6-.65-9.2-1.44-13.89-2.39-2-.4-4-.85-6-1.32-3.76-.88-7.61-1.87-11.59-3l-3.76-1.09-3.85-1.17-2.58-.81c-.87-.27-1.74-.56-2.63-.85l-1.78-.58h0c-2-.67-4.11-1.38-6.24-2.13l-2.14-.76c-2.6-9.57-3.7-21.53-4.08-32.65-.12-3.43-.16-6.79-.16-10,0-.52,0-1,0-1.56,0-.72,0-1.43,0-2.13,0-.4,0-.79,0-1.18,0-.12,0-.24,0-.36s0-.54,0-.81,0-.48,0-.72a.61.61,0,0,1,0-.14c0-.85,0-1.68,0-2.47l0-1.06c0-.52,0-1,0-1.52,0,0,0,0,0,0,0-.16,0-.32,0-.48,0-.49,0-1,.06-1.43,0-.16,0-.31,0-.46s0-.6,0-.89q.06-1.32.12-2.46c0-.25,0-.5,0-.74s0-.23,0-.34v0c0-.11,0-.22,0-.32s0-.45,0-.66,0-.14,0-.2l0-.4c0-.37,0-.7.06-1,0-.16,0-.32,0-.46s0-.5,0-.71" />
      <path class="BUNTAI_PUMA_OUTFIT_PUMA_OUTFIT_26_cls-7" d="M235.4,386.1c-4,0-7.86,0-11.57-.06" />
      <path class="BUNTAI_PUMA_OUTFIT_PUMA_OUTFIT_26_cls-7" d="M123,326.68c4.35,4.68,14,12.91,31,17.34,23.67,6.17,28.39,27.12,13.85,37" />
      <path class="BUNTAI_PUMA_OUTFIT_PUMA_OUTFIT_26_cls-7" d="M123.14,336.63c8.06,6.37,21.49,9.49,29.18,11.57,9.57,2.59,19.92,8.64,18.61,19.46a14.17,14.17,0,0,1-9.14,12l-.89,12-.12.17c-2.15,3.24-32.35,50.24,7.95,86.13a71.53,71.53,0,0,0,8,4.82l.41.19" />
      <path class="BUNTAI_PUMA_OUTFIT_PUMA_OUTFIT_26_cls-7" d="M135.61,372.18a21,21,0,0,1-2.49-12.68c2.11-15.34,32.1-9.47,30.18,3-1.61,10.38-9.63,11.58-12.29,11.69-.55,0-.87,0-.87,0s11.25-5.66,9-13.53-16.95-9.49-19.76.12a13.64,13.64,0,0,0,3.26,13.64" />
      <path class="BUNTAI_PUMA_OUTFIT_PUMA_OUTFIT_26_cls-7" d="M98.36,428.3s-8.93-16.15-16-15.18S92.24,437,92.24,437" />
      <path class="BUNTAI_PUMA_OUTFIT_PUMA_OUTFIT_26_cls-7" d="M17,412.52s13.86.3,26-2.94" />
      <path class="BUNTAI_PUMA_OUTFIT_PUMA_OUTFIT_26_cls-7" d="M17,458.34s30.68-40.09,34.9-33.29S55,450.59,55,450.59" />
      <path class="BUNTAI_PUMA_OUTFIT_PUMA_OUTFIT_26_cls-7" d="M291.07,299.78c-.58.52-1.17,1-1.77,1.52s-1.19,1-1.79,1.51c-3.62,3-7.42,6-11.48,9.05l-52.3,39.41c-3.09,2.33-6.2,4.66-9.29,7l-6.38,4.9-26.32,20.21" />
      <path class="BUNTAI_PUMA_OUTFIT_PUMA_OUTFIT_26_cls-7" d="M197.67,385c1.07-.69,2.79-1.94,4.83-3.49l1-.74,1.53-1.17,1.9-1.47.24-.19,1.1-.86,1.11-.87,2.23-1.76.55-.43,1.1-.87c2.36-1.87,4.59-3.66,6.38-5.1l2-1.65.12-.09.16-.13.38-.31,0,0,.25-.21c.16-.12.3-.24.43-.35l.1-.08.08-.06.08-.07.08-.06.12-.1h0l0,0,.18-.15h0q4.67-3.22,9.28-6.5c1-.67,1.89-1.34,2.82-2l2-1.47.76-.55,1.37-1c4.6-3.37,9.09-6.77,13.51-10.21l2.52-2,.78-.61.65-.52q4.59-3.63,9.07-7.32l3.19-2.64q2.87-2.38,5.7-4.8l3.77-3.23q5-4.31,9.89-8.69c1-.88,2-1.77,3-2.67q3.31-3,6.61-6h0" />
      <path class="BUNTAI_PUMA_OUTFIT_PUMA_OUTFIT_26_cls-7" d="M331.23,372.16c.27-.94.53-1.87.77-2.8q.75-2.79,1.38-5.53c.42-1.83.81-3.64,1.15-5.45.11-.56.22-1.12.31-1.68.18-.94.34-1.88.48-2.81.07-.37.12-.73.17-1.09s.08-.49.11-.73c.1-.6.18-1.2.26-1.79.13-.9.24-1.8.34-2.69.09-.73.17-1.45.24-2.18s.12-1.19.17-1.79c.12-1.25.22-2.51.3-3.76,0-.42.06-.83.08-1.24.08-1.34.14-2.69.19-4,0-.48,0-1,0-1.45,0-1.49.06-3,.06-4.49,0-1,0-2.05,0-3.08,0-.29,0-.58,0-.88,0-1-.05-2-.09-3" />
      <path class="BUNTAI_PUMA_OUTFIT_PUMA_OUTFIT_26_cls-8" d="M390.61,396.25a92.68,92.68,0,0,0-11-21.92c-5.56,2-6.73,3.55-11.79,6.67a90.47,90.47,0,0,0-22.13,19.23" />
      <path class="BUNTAI_PUMA_OUTFIT_PUMA_OUTFIT_26_cls-8" d="M397.21,395.35c-2,.11-4.61.7-6.6.9-16.23,1.69-28,5.15-42.88,12.2" />
      <path class="BUNTAI_PUMA_OUTFIT_PUMA_OUTFIT_26_cls-8" d="M334,462.52l87.76.59c1.95-16.89-1.27-34.25-7.34-50a40.66,40.66,0,0,1-17.25-17.75" />
      <path class="BUNTAI_PUMA_OUTFIT_PUMA_OUTFIT_26_cls-7" d="M317.69,392.77a7,7,0,0,0,7.25,6.68c4,0,7.26-3,7.26-6.68s-3.25-6.67-7.26-6.67A7,7,0,0,0,317.69,392.77Z" />
      <path class="BUNTAI_PUMA_OUTFIT_PUMA_OUTFIT_26_cls-7" d="M285.66,379.67q-3.06.72-6.06,1.33c-18,3.66-34.6,4.78-55.77,5a0,0,0,0,0,0,0,.6.6,0,0,0-.19,0c-2.44,0-4.94,0-7.5,0h-4.06" />
      <path class="BUNTAI_PUMA_OUTFIT_PUMA_OUTFIT_26_cls-7" d="M323.78,316.55a76.14,76.14,0,0,1,.69,8.87c0,.41,0,.83,0,1.25,0,2.38,0,4.86-.08,7.4,0,.85,0,1.7-.08,2.56-.06,1.74-.14,3.5-.23,5.26s-.21,3.54-.35,5.31c-.12,1.42-.24,2.83-.39,4.24s-.3,2.8-.49,4.18c-.08.65-.17,1.29-.26,1.93a2.23,2.23,0,0,1,0,.23c-.06.42-.12.83-.19,1.25l-.06.39c0,.15,0,.3-.07.45s-.09.56-.14.84c-.11.67-.23,1.34-.36,2q-.23,1.21-.48,2.4c-.1.47-.21.94-.32,1.4-.21.94-.44,1.87-.69,2.77l-.8.29L316,370.78l-4.13,1.39h0l-1.78.58c-.89.29-1.76.58-2.63.85l-2.59.81q-3.47,1.08-6.79,2c-1.07.3-2.12.6-3.17.88q-3.15.86-6.19,1.6c-1,.25-2,.5-3,.73" />
      <path class="BUNTAI_PUMA_OUTFIT_PUMA_OUTFIT_26_cls-7" d="M285.67,379.67h0a14.16,14.16,0,0,1-9.13-12c-1.31-10.82,9-16.87,18.59-19.46,7.69-2.08,21.14-5.21,29.2-11.57" />
      <path class="BUNTAI_PUMA_OUTFIT_PUMA_OUTFIT_26_cls-7" d="M279.6,381c-14.52-9.86-9.81-30.81,13.86-37,17-4.43,26.67-12.66,31-17.34" />
      <path class="BUNTAI_PUMA_OUTFIT_PUMA_OUTFIT_26_cls-7" d="M304.84,374.43a13.59,13.59,0,0,0,3.26-13.64c-2.8-9.61-17.45-8-19.74-.12s9,13.53,9,13.53-11.23.81-13.16-11.69,28.07-18.35,30.18-3a21,21,0,0,1-2.49,12.68" />
      <path class="BUNTAI_PUMA_OUTFIT_PUMA_OUTFIT_26_cls-8" d="M349.06,424.73c2.69-4.69,7.74-12.29,12-11.61,6.12,1-8.56,23.91-8.56,23.91" />
      <path class="BUNTAI_PUMA_OUTFIT_PUMA_OUTFIT_26_cls-8" d="M414.46,413.1a81,81,0,0,1-19-3.52" />
      <path class="BUNTAI_PUMA_OUTFIT_PUMA_OUTFIT_26_cls-8" d="M414.46,458.93s-23.16-40.68-26.82-33.88-2.75,25.54-2.75,25.54" />
      <path class="BUNTAI_PUMA_OUTFIT_PUMA_OUTFIT_26_cls-7" d="M285.66,379.67,287,389.76a48.66,48.66,0,0,1,3.83,3.62c10.47,10.84,36.52,44.78-.67,84.62a26.56,26.56,0,0,1-6.06,4.33" />
      <path class="BUNTAI_PUMA_OUTFIT_PUMA_OUTFIT_26_cls-7" d="M125.57,379.67s12.21,6.62,35.21,12.2a285.16,285.16,0,0,0,67,7.58c27.46,0,48.18-2.81,63-6.07,20.66-4.55,29.85-10,29.85-10" />
      <path class="BUNTAI_PUMA_OUTFIT_PUMA_OUTFIT_26_cls-8" d="M208.06,363.17l-.09,0c-1.12-.47-2.23-1-3.34-1.47-.55-.25-1.11-.5-1.66-.77s-1.11-.52-1.66-.79c-.82-.39-1.64-.8-2.46-1.21q-3.58-1.81-7.1-3.81-2-1.11-3.93-2.29l-2.43-1.47-1.93-1.2c-5-3.13-9.75-6.43-14.3-9.8-.87-.64-1.74-1.28-2.59-1.93s-1.7-1.29-2.54-1.94c-5.66-4.38-10.9-8.77-15.59-12.9-.92-.82-1.83-1.62-2.71-2.42l-1.34-1.22c-.86-.78-1.69-1.55-2.5-2.3-2-1.9-3.94-3.71-5.67-5.39l-2-1.94-.93-.92-.89-.89-1.67-1.7c-.15-.14-.3-.3-.43-.44l-.1-.11h0l-.17-.18c-1.21-1.24-2.22-2.31-3-3.17" />
      <path class="BUNTAI_PUMA_OUTFIT_PUMA_OUTFIT_26_cls-8" d="M216.11,386.09h0l0,0h0c.09,0,.16-.09.25-.14,29.53-17.72,72.93-57,92.72-75.48" />
      <path class="BUNTAI_PUMA_OUTFIT_PUMA_OUTFIT_26_cls-8" d="M148,293.27c-2.19,1.1-5.27,2.62-8.7,4.23-1.16.54-2.35,1.1-3.57,1.64l-1.08.5-1.93.84-1.1.48-.35.15-1.21.51-1.19.49-1.89.76c-1.12.44-2.22.85-3.27,1.23l-.47.16-1.45.48-.58.19-.79.24c-.62.18-1.21.34-1.76.45l-.51.1h0" />
      <path class="BUNTAI_PUMA_OUTFIT_PUMA_OUTFIT_26_cls-8" d="M337.15,321.69a125.47,125.47,0,0,0-13.37-5.14l-2.59-.85a83.09,83.09,0,0,1-12.06-5.27c-3.75-1.94-7.39-4-10.46-5.88h0c-3.55-2.14-6.32-3.94-7.59-4.77" />
      <g class="BUNTAI_PUMA_OUTFIT_PUMA_OUTFIT_26_cls-9">
        <path d="M223.12,479.55c-15.9,3.31-32.27,3.84-46.38,3.26A241.91,241.91,0,0,1,137.21,478a54.94,54.94,0,0,1-23.79-15.47H91.55L86,455.87S54.46,418.13,61.48,425s31.11,24.79,32,24.15-1.38-12.12-2.4-13.73l0,0h0L91,435.3c-.05-.07-.12-.19-.22-.32s-.1-.14-.15-.22c-.72-1.06-2.16-3.24-3.84-5.81a.58.58,0,0,0-.08-.1c-4.76-7.36-11.3-17.94-7.94-15.78.65.43,1.33.9,2,1.42h0c4.46,3.36,9.29,8.51,11.31,11.86a23.14,23.14,0,0,0,6.25,6.46s-.66-3.38-1.33-6.75h0c-.63-3.14-1.28-6.27-1.4-6.59-.23-.63-1.65-12.15-1.7-12.53h0l-.06,0h0l-29.3-8.57H64.4l-20.76-3.06c1.78-4.64,2.74-9.35,5.4-13.65h0c10,3.19,36.76,12.12,51.42,22.59.27-.77.54-1.54.82-2.31h0l0-.09a187.3,187.3,0,0,1,13.21-27.3l0-.05v0c.8-1.36,1.35-2.25,1.56-2.59l.1-.15a4.85,4.85,0,0,1-.26-.43c-5.62-20.06-7-41.05-5.45-61.74,2.27-1.15,4.7-2.34,7.12-3.51-.78,14.6-.91,45.07,8.32,73.88h0a130.25,130.25,0,0,0,4.89,13c8.16,18.82,13.78,34,17.09,43.41v0c2.42,6.9,3.59,10.74,3.59,10.74S161.13,475.68,223.12,479.55Z" />
        <path d="M212.05,359.34,208,363.13l-.63.58s-28.75-11.8-52.19-27.46-31.64-28.36-31.64-28.36v0l-.23-3.6.47-.16c1-.38,2.15-.79,3.27-1.23l1.89-.76,1.19-.49,1.21-.51.35-.15,1.1-.48,1.92-.85h0c12.75,12.41,30.89,29.15,45.8,39.35C206.46,356.75,212.05,359.34,212.05,359.34Z" />
        <path d="M309.13,310.43a98,98,0,0,0,9.27,4.27,22.68,22.68,0,0,1-8.92,10.51c-9.6,5.59-44.07,37-80.17,60.74h0l-.18.12-.07.05c-3.3.17-7.87.1-12.17-.05h-.15l-.56,0h0c-5.12-.18-9.73-.46-11.2-.55h-.46c.86-.52,28.36-17.08,51.37-34,13.6-10,33.9-29.05,49.08-43.24C306.31,308.94,307.71,309.7,309.13,310.43Z" />
        <path d="M319.71,383.9s-34.6,16.62-56.12,21.79-67.14,6.84-67.14,6.84,24.61-6,39-9.85,36.14-5.92,37.43-6.25S311.49,389.88,319.71,383.9Z" />
        <path d="M359.72,403.42l-.06,0s.21,3.56-1.54,10.33c-.39,1.51-.87,3.18-1.49,5-3.26,9.8-7.35,25.47-7.52,26.15.16-.34,2.35-4.9,5.12-10.74l0-.06c2.66-5.61,5.82-12.38,8.18-17.7,1.19-2.68,2.18-5,2.79-6.6,3.15-8.23,2.46-1.87,4.21,18.82s-6.14,33.88-6.14,33.88H335.58l-3.64,2.19,0,0a239.69,239.69,0,0,1-38,9,109.66,109.66,0,0,1-15,1.15c3.33-.54,9.39-1.49,16.35-2.87,12.11-2.41,27-6.18,35.23-11.62a42.39,42.39,0,0,0,16.86-23.09.61.61,0,0,0,0-.11.06.06,0,0,0,0,0s0,0,0,0a43.23,43.23,0,0,0,1.93-12.89,72,72,0,0,0-.46-7.48c0-.19,0-.37-.05-.56A102.07,102.07,0,0,0,346,401.38c-.06-.18-.1-.35-.14-.5l0-.13v0l0-.09,0-.12a0,0,0,0,1,0,0l0-.1a1.66,1.66,0,0,0-.05-.16A90.47,90.47,0,0,1,367.81,381L377,398.24l-.05,0Z" />
      </g>
      <path class="BUNTAI_PUMA_OUTFIT_PUMA_OUTFIT_26_cls-7" d="M118.18,305.73l.52-.11c.55-.11,1.14-.27,1.76-.45l.79-.24.58-.19,1.45-.48.47-.16" />
      <path class="BUNTAI_PUMA_OUTFIT_PUMA_OUTFIT_26_cls-7" d="M118.16,305.73h0" />
    </g>
  </g>
</svg>