<svg xmlns="http://www.w3.org/2000/svg" viewBox="0 0 432 432">
  <defs>
    <style>.BUNTAI_PUMA_OUTFIT_PUMA_OUTFIT_5_cls-1{isolation:isolate;}.BUNTAI_PUMA_OUTFIT_PUMA_OUTFIT_5_cls-2{fill:#7aa2b2;}.BUNTAI_PUMA_OUTFIT_PUMA_OUTFIT_5_cls-3,.BUNTAI_PUMA_OUTFIT_PUMA_OUTFIT_5_cls-7{fill:#fff;}.BUNTAI_PUMA_OUTFIT_PUMA_OUTFIT_5_cls-4{fill:#0681b2;}.BUNTAI_PUMA_OUTFIT_PUMA_OUTFIT_5_cls-5{fill:none;stroke-width:1.67px;}.BUNTAI_PUMA_OUTFIT_PUMA_OUTFIT_5_cls-5,.BUNTAI_PUMA_OUTFIT_PUMA_OUTFIT_5_cls-7{stroke:#000;stroke-linecap:round;stroke-linejoin:round;}.BUNTAI_PUMA_OUTFIT_PUMA_OUTFIT_5_cls-6{opacity:0.43;mix-blend-mode:multiply;}.BUNTAI_PUMA_OUTFIT_PUMA_OUTFIT_5_cls-7{stroke-width:1.77px;}</style>
  </defs>
  <g class="BUNTAI_PUMA_OUTFIT_PUMA_OUTFIT_5_cls-1">
    <g id="outfit">
      <path class="BUNTAI_PUMA_OUTFIT_PUMA_OUTFIT_5_cls-2" d="M200.53,323q-4.75-.22-9.25-.75l-.19,0a160.4,160.4,0,0,1-39.43-10.75,152.44,152.44,0,0,1-16.49-8.17l0,0c-1.34-.81-2.57-1.58-3.68-2.31,5.52-1.71,21.47-10.4,21.47-10.4l.21-3.95L125.29,288h0c-5,.25-8.52.8-8.52.8a18.86,18.86,0,0,1-8.49,6.67c-6,2.57-11.25,3.08-15.63,11.46-2.74.34-3.84,7.35-3.84,7.35h.28l.72.05H90l.62,0,1.52.08a29.42,29.42,0,0,1,3.62.62l1.17.25,3.37.73.67.13,3.06.62,1.44.28q2.79.54,6,1l.32,0c.91.15,1.85.28,2.81.41.37,0,.74.11,1.12.15l1.22.15c.61.08,1.22.15,1.84.21l1.79.19,1.14.1c1.71.16,3.47.28,5.26.37,4.24.21,9.35.76,14.86,1.48,1.16.16,2.34.31,3.53.49.37,0,.73.09,1.1.15l1.2.17,3.58.52,2.6.39,1.68.26.93.14.5.08,2.82.44,4.62.73,3.78.6c3.95.62,7.75,1.2,11.24,1.7l1.62.23.45.06c.62.09,1.24.18,1.84.25,1.49.2,2.89.37,4.2.52l1.32.13c.8.09,1.57.16,2.29.2l1.64.12q2.53-.54,5-1.19c7-1.8,13.14-3.84,16.73-3.84-4.15,0-8.53-.13-13.11-.34Z" />
      <path class="BUNTAI_PUMA_OUTFIT_PUMA_OUTFIT_5_cls-2" d="M337.09,306.43s-1.1-1.26-4.76-2.4a63,63,0,0,1-9.13-4.21s1.72-6.3.48-7.72c0-.09-.06-.16-.1-.18a.56.56,0,0,0-.3-.06.81.81,0,0,0-.35,0l-.91.1c-1.21.09-3.4.26-7.56.42a11,11,0,0,1-5-1c-1.63-1.32-.49-3.45-.49-3.45h0l-21.54,1.48,2.64,9.76,10,6.05c-3.78,1.83-8.26,3.86-13.2,5.82-2.9,1.15-6.21,2.4-10,3.68a155.44,155.44,0,0,1-18.8,5l-.59.11c-2.43.46-4.78.86-7,1.21l-.94.15c-4.26.63-8.88,1.16-13.87,1.54h0q-3.79.3-7.91.49c9.21,1.43,9.56,2.78,16.75,6,6.24.24,8.63.22,26.05-.91,6.22-.26,13.07-.56,19.83-.93l1.93-.12,1.74-.11.8-.06.72-.06.68-.06.78-.07.24,0,.35,0,1-.12.66-.08.45-.06h.11l1.06-.14.73-.11.69-.1.84-.15,2.07-.38.52-.09.38-.07.51-.1.69-.12c.69-.13,1.42-.26,2.25-.38l.51-.08.37-.06.7-.1,1.94-.32.5-.1.69-.13.33-.07L315,324c.18,0,.36-.08.53-.12.39-.08.78-.18,1.16-.28s.65-.16,1-.25l.17-.05c.47-.12.93-.26,1.38-.39s1.09-.34,1.62-.53,1-.35,1.55-.55l.39-.15c.42-.16.84-.32,1.24-.5l.24-.09,1.3-.57.14-.06h0l1.27-.6,1.2-.6.76-.4c.19-.1.39-.2.57-.31l.55-.31.36-.2.7-.42.68-.41c.66-.41,1.28-.81,1.87-1.21l.09-.06c.14-.1.28-.18.4-.28l.36-.25c.14-.09.26-.19.39-.28s.25-.2.38-.28l.5-.37a2,2,0,0,1,.23-.17l.31-.25c1.08-.85,1.93-1.58,2.51-2.13a.28.28,0,0,0,.09-.07l.06-.05.16-.16.1-.09a1.84,1.84,0,0,0,.14-.14l0,0,.06-.06h0a0,0,0,0,0,0,0h0l.05,0,.12-.12.09-.09h0s0,0,0,0h0l0,0v0Z" />
      <path class="BUNTAI_PUMA_OUTFIT_PUMA_OUTFIT_5_cls-2" d="M93.08,473.25H53.41C48.93,405.6,63.17,386.69,86.67,346,86.37,347.55,70.42,431.33,93.08,473.25Z" />
      <path class="BUNTAI_PUMA_OUTFIT_PUMA_OUTFIT_5_cls-3" d="M280.09,421.35c2.54,10.41,6.18,18.83,12.14,26.53,11.24,14.54,21.38,25.37,21.38,25.37H130A338.37,338.37,0,0,1,140.91,435V435c3.89-11.32,8.93-24.48,15.42-39.28q1.71-3.88,3.39-7.52c2.58,1.12,5.23,2.19,8,3.16s5.6,1.92,8.52,2.74a158.78,158.78,0,0,0,43.51,5.9,162.43,162.43,0,0,0,35.22-3.79A138.67,138.67,0,0,0,275.32,390C276.61,402.38,278,412.57,280.09,421.35Z" />
      <path class="BUNTAI_PUMA_OUTFIT_PUMA_OUTFIT_5_cls-4" d="M275.33,390c-3.58,1.4-7.3,2.68-11.16,3.8-1.41.43-2.84.82-4.29,1.19-1.62.43-3.28.82-4.95,1.2-3.4.76-6.86,1.4-10.41,1.94h0c-2.64.39-5.33.73-8,1a168.93,168.93,0,0,1-33.85,0c-1.46-.15-2.91-.32-4.34-.51-2.9-.37-5.74-.82-8.54-1.35h-.05c-4.64-.87-9.16-1.92-13.51-3.17-1.68-.47-3.35-1-5-1.53l-.07,0c-1.17-.38-2.32-.78-3.46-1.19-2.73-1-5.39-2-8-3.16,3.75-8.1,7.32-15.16,10.68-21.29,1.32-2.4,2.62-4.63,3.85-6.75h0c2.61-4.45,5.06-8.29,7.32-11.62l0,0c2.85-4.15,5.37-7.49,7.58-10.16a77.67,77.67,0,0,1,5.91-6.51,33.32,33.32,0,0,1,3.31-2.88l-.69-1.7c7-1.8,13.14-3.84,16.73-3.84h0q.34.11.69.18l.53.15,2.38-.09,4.25-.15.91,0,4-.15h0l.23-.08.2-.07c9.21,1.43,9.56,2.78,16.75,6h0a221.36,221.36,0,0,1,14.2,19.45c7.69,11.91,15.15,26.43,16.47,39.38C275.18,388.69,275.26,389.35,275.33,390Z" />
      <path class="BUNTAI_PUMA_OUTFIT_PUMA_OUTFIT_5_cls-2" d="M151.18,322.57c15.08,2.26,31.13,5.11,39.88,5.75l1.66.11c1.68-.36,3.35-.76,5-1.18l4.06-.85c-.52.38-5,3.82-6.67,5.42a77.27,77.27,0,0,0-5.93,6.51c-2.21,2.67-4.73,6-7.57,10.16l0,0c-2.26,3.32-4.71,7.17-7.32,11.62h0c-1.24,2.12-2.53,4.35-3.85,6.75-3.36,6.13-6.92,13.19-10.68,21.29q-1.68,3.63-3.39,7.52c-6.49,14.8-11.53,28-15.42,39.28V435A338.37,338.37,0,0,0,130,473.25H93.08C70.42,431.33,86.37,347.55,86.67,346c-23.5,40.68-37.74,59.59-33.26,127.24H17.08s-1.84-2.73-2.2-18.48,8-46.48,8-46.48-1-14.17,9-21S52,363.33,52,363.33s-.72-5.7,9.86-21,27-28.05,27-28.05l3.28.17c3.3.17,17.28,4.44,34.82,5.3,4.23.21,9.35.76,14.86,1.48C144.8,321.64,148,322.1,151.18,322.57Z" />
      <path class="BUNTAI_PUMA_OUTFIT_PUMA_OUTFIT_5_cls-2" d="M228.12,319.2a16,16,0,0,0-.63,4l-.45,0c-1.25,0-2.51.09-3.8.12l-.91,0c-1.39,0-2.81.06-4.25.07h-2.46c1.14-.52,2-.87,2.5-1.08a1.32,1.32,0,0,1,0-1.1,1.28,1.28,0,0,1,.3-.43c.08-.4.17-.81.29-1.22a2.16,2.16,0,0,1,2.52-1.31,1.74,1.74,0,0,1,1.61,2c-.05.19-.1.38-.14.56h0l.68.28a17.55,17.55,0,0,1,.58-2.71,2.18,2.18,0,0,1,2.54-1.29A1.74,1.74,0,0,1,228.12,319.2Z" />
      <path class="BUNTAI_PUMA_OUTFIT_PUMA_OUTFIT_5_cls-2" d="M408.39,473.25H313.61s-10.14-10.83-21.38-25.37c-6-7.7-9.6-16.12-12.14-26.53-2.14-8.78-3.48-19-4.77-31.34-.06-.66-.14-1.32-.2-2-1.32-12.95-8.78-27.47-16.47-39.38a220.07,220.07,0,0,0-14.19-19.45h0c6.23.24,8.61.22,26-.92,6.22-.25,13.06-.56,19.83-.93,12.41-.67,13.05-1.55,20.82-2.67,18.37-2.63,28.69-13.78,28.69-13.78h0s15.53,12.77,23.19,23.71,6.06,18.48,15.57,29,6.66,30.09,10.7,42.86,13.88,23.27,15,25.09S412,458.66,412,458.66l-1.83,14.59Z" />
      <path class="BUNTAI_PUMA_OUTFIT_PUMA_OUTFIT_5_cls-5" d="M123.9,295.48s.32.29.95.79l.15.11a98.11,98.11,0,0,0,10.13,6.92l0,0a139.9,139.9,0,0,0,52.37,18.47" />
      <path class="BUNTAI_PUMA_OUTFIT_PUMA_OUTFIT_5_cls-5" d="M214.47,323.4h3.61c1.44,0,2.86,0,4.25-.07l.91,0c1.29,0,2.56-.07,3.8-.12l.45,0h.2" />
      <path class="BUNTAI_PUMA_OUTFIT_PUMA_OUTFIT_5_cls-5" d="M314.65,296.84l-2.77,2.07s-.86.51-2.41,1.38l-.24.13h0l0,0A199.27,199.27,0,0,1,286.84,311c-2.9,1.15-6.21,2.4-10,3.68" />
      <path class="BUNTAI_PUMA_OUTFIT_PUMA_OUTFIT_5_cls-5" d="M187.54,321.79c1.17.17,2.35.32,3.55.45l.19,0q4.5.53,9.25.75l.79,0c4.58.21,9,.32,13.11.34" />
      <path class="BUNTAI_PUMA_OUTFIT_PUMA_OUTFIT_5_cls-5" d="M227.69,323.16q4.11-.2,7.91-.49h0c5-.38,9.61-.92,13.87-1.54l.94-.15c2.44-.37,4.77-.78,7-1.21l.59-.11a155.44,155.44,0,0,0,18.8-5" />
      <path class="BUNTAI_PUMA_OUTFIT_PUMA_OUTFIT_5_cls-5" d="M214.47,323.4h0c-3.59,0-9.76,2-16.73,3.84q-2.46.64-5,1.19l-1.64-.12c-7.66-.56-20.9-2.8-34.18-4.86l-.5-.08-5.21-.79c-1.59-.24-3.17-.47-4.73-.68h0c-.37-.06-.73-.11-1.1-.15-1.19-.18-2.37-.33-3.53-.49-5.51-.72-10.62-1.27-14.86-1.48a150.76,150.76,0,0,1-15.5-1.62q-3.19-.51-6-1l-1.44-.28c-6-1.17-10.25-2.26-11.89-2.35L90,314.35h-.13l-1-.06s1.1-7,3.84-7.35c4.38-8.38,9.58-8.89,15.63-11.46a18.86,18.86,0,0,0,8.49-6.67s3.5-.55,8.52-.8l27.84-1.37-.21,3.95S137.08,299,131.39,301" />
      <path class="BUNTAI_PUMA_OUTFIT_PUMA_OUTFIT_5_cls-5" d="M227.69,323.16c9.21,1.43,9.56,2.78,16.75,6,6.24.24,8.63.22,26.05-.91,6.22-.26,13.07-.56,19.83-.93l1.93-.12,1.74-.11.8-.06.72-.06.68-.06.78-.07.59,0,1-.12.66-.08.45-.06h.11l1.06-.14.73-.11.69-.1.84-.15,2.07-.38.52-.09.38-.07.51-.1.69-.12c.69-.13,1.42-.26,2.25-.38l.51-.08.37-.06.7-.1,1.94-.32.5-.1.69-.13.33-.07L315,324c.18,0,.36-.08.53-.12.39-.08.78-.18,1.16-.28s.65-.16,1-.25l.17-.05c.47-.12.93-.26,1.38-.39s1.09-.34,1.62-.53,1-.35,1.55-.55l.39-.15c.42-.16.84-.32,1.24-.5l.24-.09,1.3-.57.14-.06h0l1.27-.6,1.2-.6.76-.4c.19-.1.39-.2.57-.31l.55-.31.36-.2.7-.42.68-.41c.66-.41,1.28-.81,1.87-1.21l.09-.06c.14-.1.28-.18.4-.28l.36-.25c.14-.09.26-.19.39-.28s.25-.2.38-.28l.5-.37a2,2,0,0,1,.23-.17l.31-.25c1.08-.85,1.93-1.58,2.51-2.13a.28.28,0,0,0,.09-.07l.06-.05.16-.16.1-.09a1.84,1.84,0,0,0,.14-.14l0,0h0l.07-.07a0,0,0,0,0,0,0h0l.05,0,.12-.12.09-.09h0l0,0h0l0,0v0l-2.73-4.45s-1.1-1.26-4.76-2.4a63,63,0,0,1-9.13-4.21s2.27-8.3-.27-8c-11.19,1.39-14.08-.17-14.54-1.72a2,2,0,0,1-.06-.73,3.25,3.25,0,0,1,.66-1.49l-5.14.39-16.41,1.09,2.64,9.76,10,6.05" />
      <path class="BUNTAI_PUMA_OUTFIT_PUMA_OUTFIT_5_cls-5" d="M214.47,323.4q.34.11.69.18l.53.15,2.38-.09,4.25-.15.91,0,4-.15h0l.23-.07.2-.08" />
      <path class="BUNTAI_PUMA_OUTFIT_PUMA_OUTFIT_5_cls-5" d="M140.91,435c3.89-11.32,8.93-24.48,15.42-39.28q1.71-3.88,3.39-7.52c3.76-8.1,7.32-15.16,10.68-21.29,1.32-2.4,2.61-4.63,3.85-6.75h0c2.61-4.45,5.06-8.3,7.32-11.62l0,0c2.84-4.15,5.36-7.49,7.57-10.16a77.27,77.27,0,0,1,5.93-6.51,32,32,0,0,1,3.29-2.87s4-2.26,6.92-3.77" />
      <path class="BUNTAI_PUMA_OUTFIT_PUMA_OUTFIT_5_cls-5" d="M93.08,473.25h-76s-1.84-2.73-2.2-18.48,8-46.48,8-46.48-1-14.17,9-21S52,363.33,52,363.33s-.72-5.7,9.86-21,27-28.05,27-28.05" />
      <path class="BUNTAI_PUMA_OUTFIT_PUMA_OUTFIT_5_cls-5" d="M339.84,310.88s15.53,12.77,23.19,23.71,6.06,18.48,15.57,29,6.66,30.09,10.7,42.86,13.88,23.27,15,25.09S412,458.66,412,458.66l-1.83,14.59H94.73" />
      <path class="BUNTAI_PUMA_OUTFIT_PUMA_OUTFIT_5_cls-5" d="M244.45,329.18h0a220.07,220.07,0,0,1,14.19,19.45c7.69,11.91,15.15,26.43,16.47,39.38.06.67.14,1.33.2,2,1.29,12.37,2.63,22.56,4.77,31.34,2.54,10.41,6.18,18.83,12.14,26.53,11.24,14.54,21.38,25.37,21.38,25.37" />
      <path class="BUNTAI_PUMA_OUTFIT_PUMA_OUTFIT_5_cls-5" d="M151.18,322.57s-8,6.71-23,35.48-15.27,50.24-15.27,50.24" />
      <path class="BUNTAI_PUMA_OUTFIT_PUMA_OUTFIT_5_cls-5" d="M141.77,321.25s-19.52,24.86-27.19,42" />
      <path class="BUNTAI_PUMA_OUTFIT_PUMA_OUTFIT_5_cls-5" d="M86.68,346a208.89,208.89,0,0,1,14.2-21.8" />
      <path class="BUNTAI_PUMA_OUTFIT_PUMA_OUTFIT_5_cls-5" d="M31.93,473.25c-3.53-29.75,6.17-68.53,6.17-68.53" />
      <path class="BUNTAI_PUMA_OUTFIT_PUMA_OUTFIT_5_cls-5" d="M290.31,327.32h0c.31.35,10.73,11.72,31.24,44.41" />
      <path class="BUNTAI_PUMA_OUTFIT_PUMA_OUTFIT_5_cls-5" d="M276.92,337.47s43,59,44.64,135.78" />
      <path class="BUNTAI_PUMA_OUTFIT_PUMA_OUTFIT_5_cls-5" d="M159.72,388.19c2.58,1.12,5.23,2.19,8,3.16s5.6,1.92,8.52,2.74a158.78,158.78,0,0,0,43.51,5.9,162.43,162.43,0,0,0,35.22-3.79A138.67,138.67,0,0,0,275.32,390" />
      <path class="BUNTAI_PUMA_OUTFIT_PUMA_OUTFIT_5_cls-5" d="M176.2,394.09a242.44,242.44,0,0,0,1.16,45.42" />
      <path class="BUNTAI_PUMA_OUTFIT_PUMA_OUTFIT_5_cls-5" d="M167.68,391.35s-2.17,46.27,6.22,69.19" />
      <path class="BUNTAI_PUMA_OUTFIT_PUMA_OUTFIT_5_cls-5" d="M254.93,396.2s3,36.38-10.41,58.57" />
      <path class="BUNTAI_PUMA_OUTFIT_PUMA_OUTFIT_5_cls-5" d="M280.09,421.35a60.36,60.36,0,0,1-12.54,36.45" />
      <path class="BUNTAI_PUMA_OUTFIT_PUMA_OUTFIT_5_cls-5" d="M86.68,346v0c-.3,1.54-16.25,85.32,6.41,127.24h1.65" />
      <path class="BUNTAI_PUMA_OUTFIT_PUMA_OUTFIT_5_cls-5" d="M384.28,473.25c-.64-42.18-38-81.9-38-81.9" />
      <g class="BUNTAI_PUMA_OUTFIT_PUMA_OUTFIT_5_cls-6">
        <path d="M125,296.38a98.11,98.11,0,0,0,10.13,6.92A73.79,73.79,0,0,1,125,296.38Z" />
        <path d="M201.32,323.06a10.41,10.41,0,0,0-1.19.1,77.38,77.38,0,0,1-8.85-.89q4.5.53,9.25.75Z" />
        <path d="M235.63,322.66c5-.38,9.61-.92,13.87-1.54-9,1.39-15.45,1.91-15.45,1.91.52-.11,1-.23,1.55-.36Z" />
        <path d="M309.19,300.45c-.41.32-4.31,3.08-23.32,11.28-8.37,3.61-18.66,6.16-27.86,7.92a155.44,155.44,0,0,0,18.8-5c3.82-1.28,7.13-2.53,10-3.68A199.27,199.27,0,0,0,309.19,300.45Z" />
        <path d="M156.89,323.45s-25.65,41-29.64,76.54c-.19-22.44.93-33.33.93-33.33S113.56,396,117,433.09s4.94,40.16,4.94,40.16H110s-8-54.2,3.42-89.29,31.93-62.23,31.93-62.23Z" />
        <path d="M112,317.1s-21.32,34.21-20.73,59.52,1.54,65.32,5.53,78.15,6.65,19.13,6.65,19.13H68c.92-88,.51-87,16-123a229.36,229.36,0,0,1,21.45-33.76Z" />
        <path d="M90,314.3s-26.14,34.92-29.43,49.85S45,400.6,44.26,430.65s2,42.6,2,42.6H17.08s-3-15.92-.44-37.71S23.45,394,32.19,387s18.37-21.63,19.26-24.19C57.66,345.43,83.28,316.09,90,314.3Z" />
        <path d="M281.76,344.79S284,361.68,293,393.55,304.75,446,304.75,446s-13.67-24.54-21.48-39.58c1.9,25.93,8.9,39.52,11.77,45.08s18.57,21.78,18.57,21.78h7.94s-.84-29-5.59-66.36a250.89,250.89,0,0,0-18.26-66.47s7.71,28.81,8.23,42.87c-19.05-42.56-29-45.82-29-45.82Z" />
        <path d="M290.31,327.32s37.12,48,42.63,70.46c1.08-24.68-19-73.34-19-73.34Z" />
        <path d="M347.37,391.35c25.54,31.77,26.07,32,35.92,51.92,9.31,18.82,12.16,30,11.59,30h-10.6S359.34,423.72,347.37,391.35Z" />
        <path d="M159.23,389.26s-27.79,62.24-29.44,84.95h68.9s-6.95-33.51-7.71-55.83c-2.79,32.51-3.44,44.78-3.44,44.78s-7.63-33.79,2.21-65.89C177.74,394.52,159.23,389.26,159.23,389.26Z" />
        <path d="M236.48,399.15a168.63,168.63,0,0,1-11.35,51.12c16.78-26.18,19.39-52.13,19.39-52.13Z" />
      </g>
      <polyline class="BUNTAI_PUMA_OUTFIT_PUMA_OUTFIT_5_cls-5" points="119.87 291.51 122.34 293.95 123.38 294.97 123.9 295.49" />
      <path class="BUNTAI_PUMA_OUTFIT_PUMA_OUTFIT_5_cls-7" d="M265.57,428.3a2.29,2.29,0,0,1-1.75-.75c-5.63-6.66-5-15.8-4.32-26.39.73-10.82,1.55-23.09-3.6-36.45-10-26-27.57-35.69-27.75-35.78a1.54,1.54,0,0,1-.59-2.38,2.46,2.46,0,0,1,2.94-.47c.77.41,19,10.43,29.44,37.61,5.38,13.95,4.54,26.54,3.8,37.66-.7,10.37-1.24,18.57,3.58,24.27a1.52,1.52,0,0,1-.55,2.38A2.51,2.51,0,0,1,265.57,428.3Z" />
      <path class="BUNTAI_PUMA_OUTFIT_PUMA_OUTFIT_5_cls-7" d="M206.81,424.84a2.14,2.14,0,0,1-2-1.14c-.4-.93-9.76-22.95-6-41.31,1.58-7.73,5-15.74,8.26-23.49,4.5-10.6,8.74-20.61,7.87-28.63a1.85,1.85,0,0,1,1.92-1.86,2,2,0,0,1,2.3,1.56c1,8.74-3.43,19.09-8.08,30-3.23,7.61-6.56,15.49-8.08,22.94-3.57,17.49,5.74,39.4,5.83,39.62a1.65,1.65,0,0,1-1.3,2.18A2.8,2.8,0,0,1,206.81,424.84Z" />
      <path class="BUNTAI_PUMA_OUTFIT_PUMA_OUTFIT_5_cls-7" d="M241.2,340.17l0-.06c-.7-1.21-1.23-2.08-1.52-2.54a58.12,58.12,0,0,0-8.83-11.32h0a1.54,1.54,0,0,0-.19-.17,29.77,29.77,0,0,0-3.13-2.59l-.25-.17a.62.62,0,0,0-.19-.12,22,22,0,0,0-3.63-2.05l-.68-.28h0a17.59,17.59,0,0,0-1.85-.64c-.9-.27-.4.66-1,1.25a1.32,1.32,0,0,0-.3.44c-.17.35-1.65.08-1.5.42-.53.21-1.36.56-2.5,1.08h-.06l-.4.17c-1.21.55-2.71,1.27-4.43,2.17a114.26,114.26,0,0,0-17,10.85c-.92.68-1.84,1.42-2.78,2.17-10.72,8.74-17.39,22.56-14.55,30.18a8.79,8.79,0,0,0,.43.93,7.77,7.77,0,0,0,5.81,4.07c9.53,1.62,14.28-8.12,19.3-18.45,1.32-2.74,2.7-5.59,4.19-8.23,3.29-5.88,6-10.33,8.82-13.28h0a14.53,14.53,0,0,1,4.12-3.23h0a.12.12,0,0,1,.08,0c.22-.1.43-.21.63-.29a9.83,9.83,0,0,1,3.34-.67h.13c.11,0,.22,0,.4.21a5.08,5.08,0,0,1,1,2.81h0a17.41,17.41,0,0,1,.08,2.12h0c-.11,7.54-3.94,21.42-9.54,33-5,10.37.89,20.22,9.32,24.61A21.14,21.14,0,0,0,234.3,395a19.13,19.13,0,0,0,12.22-4.39C261.42,378.25,246.58,349.46,241.2,340.17Zm-18-13.87-.76.05h0a14.67,14.67,0,0,0-4.15.89h0l-.26.11c-5.8,2.31-9.84,8-15.69,18.51-1.53,2.74-2.93,5.62-4.27,8.41-4.34,8.93-8.42,17.36-14.47,16.33a3.73,3.73,0,0,1-3.06-2.63,11.23,11.23,0,0,1-.19-5.93v0h0a33.63,33.63,0,0,1,6.61-13.54s0,0,0,0a45.38,45.38,0,0,1,7.06-7.24,109.28,109.28,0,0,1,24.14-15l.55-.25c1.08-.46,1.69-.68,1.71-.69a1.94,1.94,0,0,0,1.14-1,7.69,7.69,0,0,1,.76.38,10,10,0,0,1,1,.55c.44.27.88.55,1.34.87s.72.53,1.08.82a5,5,0,0,0-2.29-.54h-.26Zm20.33,61.88c-4.71,3.89-11,4.43-16.68,1.44-7-3.63-11.84-11.83-7.65-20.48,4.9-10.14,9.87-25.6,9.73-34.8h0a11.1,11.1,0,0,0-1.39-5.93l.25.24c.28.27.57.57.84.86l0,0h0a58.94,58.94,0,0,1,7.23,9.59C243.78,351.73,255.54,378.21,243.49,388.18Z" />
      <path class="BUNTAI_PUMA_OUTFIT_PUMA_OUTFIT_5_cls-7" d="M224.74,334.88h0a1.91,1.91,0,0,1-.58.45,2.47,2.47,0,0,1-1.13.26,2.25,2.25,0,0,1-1.78-.78,14.91,14.91,0,0,1-2-3.74,2.55,2.55,0,0,1-.11-.33,15.33,15.33,0,0,1-.55-1.8c-.13-.54-.25-1.1-.34-1.7,0-.34-.08-.7-.11-1.05a17.85,17.85,0,0,1-.05-2.55,1.85,1.85,0,0,0,0-.24,21,21,0,0,1,.36-2.6c.08-.4.17-.81.29-1.22a2.16,2.16,0,0,1,2.52-1.31,1.74,1.74,0,0,1,1.61,2c-.05.19-.1.38-.14.56a15.55,15.55,0,0,0-.39,2.47c0,.06,0,.11,0,.16,0,.37,0,.75,0,1.12a13.76,13.76,0,0,0,.11,1.74,15.87,15.87,0,0,0,.78,3.39,13.24,13.24,0,0,0,1.49,3h0c.09.13.15.2.15.21A1.46,1.46,0,0,1,224.74,334.88Z" />
      <path class="BUNTAI_PUMA_OUTFIT_PUMA_OUTFIT_5_cls-7" d="M229.17,334.23a1,1,0,0,1-.28.1h0a1.69,1.69,0,0,1-.44.12,2.37,2.37,0,0,1-2.19-.78,16.77,16.77,0,0,1-2.85-7.37c-.06-.37-.09-.75-.12-1.15a15.63,15.63,0,0,1-.06-1.7.76.76,0,0,1,0-.15,18.58,18.58,0,0,1,.17-2.17,17.55,17.55,0,0,1,.58-2.71,2.18,2.18,0,0,1,2.54-1.29,1.74,1.74,0,0,1,1.59,2.06,16,16,0,0,0-.63,4v.06a2.18,2.18,0,0,0,0,.25,14.78,14.78,0,0,0,.24,2.91,15.08,15.08,0,0,0,.73,2.71c.05.14.11.29.17.42h0a12.26,12.26,0,0,0,1.23,2.35A1.53,1.53,0,0,1,229.17,334.23Z" />
    </g>
  </g>
</svg>