<svg id="jewelry" xmlns="http://www.w3.org/2000/svg" viewBox="0 0 432 432">
  <defs>
    <style>.GUNDAN_OWL_JEWELRY_GUNDAN_OWL_JEWELRY_9_cls-1{fill:#ed9547;}.GUNDAN_OWL_JEWELRY_GUNDAN_OWL_JEWELRY_9_cls-2{fill:#facf56;}.GUNDAN_OWL_JEWELRY_GUNDAN_OWL_JEWELRY_9_cls-3,.GUNDAN_OWL_JEWELRY_GUNDAN_OWL_JEWELRY_9_cls-4{fill:none;stroke:#000;stroke-linecap:round;}.GUNDAN_OWL_JEWELRY_GUNDAN_OWL_JEWELRY_9_cls-3{stroke-miterlimit:10;stroke-width:0.9px;}.GUNDAN_OWL_JEWELRY_GUNDAN_OWL_JEWELRY_9_cls-4{stroke-linejoin:round;stroke-width:0.81px;}</style>
  </defs>
  <path class="GUNDAN_OWL_JEWELRY_GUNDAN_OWL_JEWELRY_9_cls-1" d="M127.1,169.68a3.93,3.93,0,0,1,3.92,3.93,4.21,4.21,0,0,1-.09.87,3.91,3.91,0,0,1-1.12,2,3.85,3.85,0,0,1-.86.64,3.93,3.93,0,0,1-1.85.46,4,4,0,0,1-1.84-.45,4.15,4.15,0,0,1-.87-.64,3.89,3.89,0,0,1-1.11-2,4.21,4.21,0,0,1-.09-.87A3.91,3.91,0,0,1,127.1,169.68Z" />
  <path class="GUNDAN_OWL_JEWELRY_GUNDAN_OWL_JEWELRY_9_cls-2" d="M127.1,169.68a3.06,3.06,0,0,1,3.05,3,3.82,3.82,0,0,1-.07.68,3,3,0,0,1-.88,1.51,2.45,2.45,0,0,1-.66.5,3,3,0,0,1-1.44.36,3.12,3.12,0,0,1-1.43-.35,2.93,2.93,0,0,1-.67-.5,3,3,0,0,1-.86-1.52,3.08,3.08,0,0,1-.08-.68A3,3,0,0,1,127.1,169.68Z" />
  <path class="GUNDAN_OWL_JEWELRY_GUNDAN_OWL_JEWELRY_9_cls-1" d="M129.82,176.44c2.37,4.57,5.94,11.51,5.25,18.64s-4.44,9.78-8,9.78-7.29-2.6-8-9.78S122,181,124.39,176.44a4.15,4.15,0,0,0,.87.64c-1.6,3.74-4,8.82-3.57,14.62s3,8,5.41,8,5-2.11,5.42-8-2-10.9-3.57-14.63a3.85,3.85,0,0,0,.86-.64Z" />
  <path class="GUNDAN_OWL_JEWELRY_GUNDAN_OWL_JEWELRY_9_cls-2" d="M129.56,176.44c2.15,4.13,5.37,10.41,4.75,16.86s-4,9.54-7.21,9.54-6.59-3-7.21-9.54,2.62-12.73,4.76-16.86a3.74,3.74,0,0,0,.79.58c-1.45,3.38-4.3,9.07-3.91,14.36s3.4,8.31,5.57,8.31,5.15-3.37,5.12-9.06c0-5.28-2-10.24-3.44-13.62a3.31,3.31,0,0,0,.77-.58Z" />
  <path class="GUNDAN_OWL_JEWELRY_GUNDAN_OWL_JEWELRY_9_cls-1" d="M127.09,222c-9.45,0-19.52-10.06-16.38-25.2,2.76-13.31,12.57-22.34,12.57-22.34a.82.82,0,0,0,.06.19,3.79,3.79,0,0,0,1,1.77C109.9,194.65,119.2,209,127.09,209s17.2-14.39,2.73-32.59l0,0a3.6,3.6,0,0,0,1.06-1.75.82.82,0,0,0,.06-.19s9.82,9,12.57,22.34C146.64,212,136.55,222,127.09,222Z" />
  <path class="GUNDAN_OWL_JEWELRY_GUNDAN_OWL_JEWELRY_9_cls-2" d="M127.09,218.7c-8.78,0-18.15-9.36-15.23-23.44C114.2,184,122,176,123.34,174.68a3.79,3.79,0,0,0,1,1.77C109.9,194.65,119.2,209,127.09,209s17.2-14.39,2.73-32.59l0,0a3.6,3.6,0,0,0,1.06-1.75c1.36,1.32,9.16,9.29,11.49,20.58C145.27,209.34,135.89,218.7,127.09,218.7Z" />
  <path class="GUNDAN_OWL_JEWELRY_GUNDAN_OWL_JEWELRY_9_cls-3" d="M123.28,174.48a4.21,4.21,0,0,1-.09-.87,3.92,3.92,0,1,1,7.83,0,4.21,4.21,0,0,1-.09.87,3.91,3.91,0,0,1-1.12,2,3.85,3.85,0,0,1-.86.64,3.93,3.93,0,0,1-1.85.46,4,4,0,0,1-1.84-.45,4.15,4.15,0,0,1-.87-.64A3.89,3.89,0,0,1,123.28,174.48Z" />
  <path class="GUNDAN_OWL_JEWELRY_GUNDAN_OWL_JEWELRY_9_cls-3" d="M127.1,222c-9.45,0-19.53-10.06-16.38-25.19,2.75-13.32,12.56-22.35,12.56-22.35" />
  <path class="GUNDAN_OWL_JEWELRY_GUNDAN_OWL_JEWELRY_9_cls-3" d="M127.1,209c-7.9,0-17.19-14.39-2.71-32.6" />
  <path class="GUNDAN_OWL_JEWELRY_GUNDAN_OWL_JEWELRY_9_cls-3" d="M124.39,176.44C122,181,118.46,188,119.13,195.08s4.43,9.78,8,9.78" />
  <path class="GUNDAN_OWL_JEWELRY_GUNDAN_OWL_JEWELRY_9_cls-3" d="M125.26,177.07h0c-1.6,3.74-4,8.82-3.57,14.62s3,8,5.41,8" />
  <path class="GUNDAN_OWL_JEWELRY_GUNDAN_OWL_JEWELRY_9_cls-3" d="M127.1,222c9.45,0,19.54-10.06,16.4-25.19-2.76-13.32-12.57-22.35-12.57-22.35" />
  <path class="GUNDAN_OWL_JEWELRY_GUNDAN_OWL_JEWELRY_9_cls-3" d="M127.1,209c7.91,0,17.19-14.39,2.72-32.6" />
  <path class="GUNDAN_OWL_JEWELRY_GUNDAN_OWL_JEWELRY_9_cls-3" d="M129.82,176.44c2.37,4.57,5.94,11.51,5.25,18.64s-4.44,9.78-8,9.78" />
  <path class="GUNDAN_OWL_JEWELRY_GUNDAN_OWL_JEWELRY_9_cls-3" d="M129,177.07c1.61,3.73,4,8.81,3.57,14.63s-3,8-5.42,8" />
  <path class="GUNDAN_OWL_JEWELRY_GUNDAN_OWL_JEWELRY_9_cls-3" d="M127.1,177.53c3.41,3.83,4.79,15.56.84,16.34s-5.2-4.5-2.54-5.89a2,2,0,0,1,2.8,1.12" />
  <path class="GUNDAN_OWL_JEWELRY_GUNDAN_OWL_JEWELRY_9_cls-3" d="M130.57,156.1a5,5,0,0,1,1.61,2.78c1,4.41-5.14,4.65-5.14,10.68" />
  <path class="GUNDAN_OWL_JEWELRY_GUNDAN_OWL_JEWELRY_9_cls-3" d="M121.9,160a6.69,6.69,0,0,1,2.94-4.11" />
  <path class="GUNDAN_OWL_JEWELRY_GUNDAN_OWL_JEWELRY_9_cls-4" d="M129.66,157.57a2.78,2.78,0,0,1,2.07-2.65" />
</svg>