<svg id="jewelry" xmlns="http://www.w3.org/2000/svg" viewBox="0 0 432 432">
  <defs>
    <style>.GUNDAN_OWL_JEWELRY_GUNDAN_OWL_JEWELRY_7_cls-1{fill:#fff;}.GUNDAN_OWL_JEWELRY_GUNDAN_OWL_JEWELRY_7_cls-2,.GUNDAN_OWL_JEWELRY_GUNDAN_OWL_JEWELRY_7_cls-7{fill:#dfca6d;}.GUNDAN_OWL_JEWELRY_GUNDAN_OWL_JEWELRY_7_cls-3{fill:#776328;}.GUNDAN_OWL_JEWELRY_GUNDAN_OWL_JEWELRY_7_cls-10,.GUNDAN_OWL_JEWELRY_GUNDAN_OWL_JEWELRY_7_cls-4,.GUNDAN_OWL_JEWELRY_GUNDAN_OWL_JEWELRY_7_cls-5,.GUNDAN_OWL_JEWELRY_GUNDAN_OWL_JEWELRY_7_cls-9{fill:none;}.GUNDAN_OWL_JEWELRY_GUNDAN_OWL_JEWELRY_7_cls-10,.GUNDAN_OWL_JEWELRY_GUNDAN_OWL_JEWELRY_7_cls-11,.GUNDAN_OWL_JEWELRY_GUNDAN_OWL_JEWELRY_7_cls-4,.GUNDAN_OWL_JEWELRY_GUNDAN_OWL_JEWELRY_7_cls-5,.GUNDAN_OWL_JEWELRY_GUNDAN_OWL_JEWELRY_7_cls-6,.GUNDAN_OWL_JEWELRY_GUNDAN_OWL_JEWELRY_7_cls-7,.GUNDAN_OWL_JEWELRY_GUNDAN_OWL_JEWELRY_7_cls-8,.GUNDAN_OWL_JEWELRY_GUNDAN_OWL_JEWELRY_7_cls-9{stroke:#000;}.GUNDAN_OWL_JEWELRY_GUNDAN_OWL_JEWELRY_7_cls-10,.GUNDAN_OWL_JEWELRY_GUNDAN_OWL_JEWELRY_7_cls-11,.GUNDAN_OWL_JEWELRY_GUNDAN_OWL_JEWELRY_7_cls-4,.GUNDAN_OWL_JEWELRY_GUNDAN_OWL_JEWELRY_7_cls-5{stroke-linecap:round;}.GUNDAN_OWL_JEWELRY_GUNDAN_OWL_JEWELRY_7_cls-4,.GUNDAN_OWL_JEWELRY_GUNDAN_OWL_JEWELRY_7_cls-5{stroke-linejoin:round;}.GUNDAN_OWL_JEWELRY_GUNDAN_OWL_JEWELRY_7_cls-4{stroke-width:1.66px;}.GUNDAN_OWL_JEWELRY_GUNDAN_OWL_JEWELRY_7_cls-5{stroke-width:0.6px;}.GUNDAN_OWL_JEWELRY_GUNDAN_OWL_JEWELRY_7_cls-6{fill:#85432d;stroke-width:1.56px;}.GUNDAN_OWL_JEWELRY_GUNDAN_OWL_JEWELRY_7_cls-10,.GUNDAN_OWL_JEWELRY_GUNDAN_OWL_JEWELRY_7_cls-11,.GUNDAN_OWL_JEWELRY_GUNDAN_OWL_JEWELRY_7_cls-6,.GUNDAN_OWL_JEWELRY_GUNDAN_OWL_JEWELRY_7_cls-7,.GUNDAN_OWL_JEWELRY_GUNDAN_OWL_JEWELRY_7_cls-8,.GUNDAN_OWL_JEWELRY_GUNDAN_OWL_JEWELRY_7_cls-9{stroke-miterlimit:10;}.GUNDAN_OWL_JEWELRY_GUNDAN_OWL_JEWELRY_7_cls-7,.GUNDAN_OWL_JEWELRY_GUNDAN_OWL_JEWELRY_7_cls-8,.GUNDAN_OWL_JEWELRY_GUNDAN_OWL_JEWELRY_7_cls-9{stroke-width:0.97px;}.GUNDAN_OWL_JEWELRY_GUNDAN_OWL_JEWELRY_7_cls-8{fill:#c03d00;}.GUNDAN_OWL_JEWELRY_GUNDAN_OWL_JEWELRY_7_cls-10{stroke-width:0.5px;}.GUNDAN_OWL_JEWELRY_GUNDAN_OWL_JEWELRY_7_cls-11{fill:#6d2316;}</style>
  </defs>
  <path class="GUNDAN_OWL_JEWELRY_GUNDAN_OWL_JEWELRY_7_cls-1" d="M235.54,363.23a12.12,12.12,0,0,0-8.36,3.63h0a12.3,12.3,0,0,0-3.54,8.95v.06a12.25,12.25,0,0,0,12.49,11.92,11.28,11.28,0,0,0,1.75-.17l-.92-2.88s.31-2.05-.47-2.26l-.79-.2a3.49,3.49,0,0,0,.59-1.68,10.46,10.46,0,0,0-.51-2.25,2.83,2.83,0,0,1-2.78-2.78,2.77,2.77,0,0,1,.59-1.8,3.62,3.62,0,0,0-.82-.75,2.52,2.52,0,0,0-1.41-.06l.33-.7c.31-.71-1.16-1.11-1.16-1.11l-3.34-4.28,4.4,3.15s.47,1.46,1.15,1.11l.69-.35a2.52,2.52,0,0,0,.12,1.4,3.71,3.71,0,0,0,.87.85,2.84,2.84,0,1,1,2.54,5.08,10,10,0,0,0,.45,2.25,3.38,3.38,0,0,0,1.22,1.29l-.64.51c-.63.51.48,2.25.48,2.25l.33,3A12.3,12.3,0,0,0,248,375.27v-.06A12.25,12.25,0,0,0,235.54,363.23Z" />
  <path class="GUNDAN_OWL_JEWELRY_GUNDAN_OWL_JEWELRY_7_cls-2" d="M235.38,357a18.49,18.49,0,0,0-17.93,19,1.09,1.09,0,0,0,0,.18,18.47,18.47,0,0,0,18.84,17.91,17.53,17.53,0,0,0,3.34-.4,18.49,18.49,0,0,0,14.6-18.43v-.18A18.49,18.49,0,0,0,235.38,357Zm3.44,30.47.52,4.71-1.44-4.52a11.28,11.28,0,0,1-1.75.17,12.25,12.25,0,0,1-12.49-11.92v-.06a12.3,12.3,0,0,1,3.54-8.95h0a12.12,12.12,0,0,1,8.36-3.63,12.25,12.25,0,0,1,12.5,12v.06A12.3,12.3,0,0,1,238.82,387.44Z" />
  <path class="GUNDAN_OWL_JEWELRY_GUNDAN_OWL_JEWELRY_7_cls-3" d="M239.13,353.11a22.49,22.49,0,1,1-7.69.2,20.16,20.16,0,0,1,3.84-.44A20.43,20.43,0,0,1,239.13,353.11Zm15.11,22.12v-.18a18.4,18.4,0,1,0-36.79.92,1.09,1.09,0,0,0,0,.18,18.47,18.47,0,0,0,18.84,17.91,17.53,17.53,0,0,0,3.34-.4A18.49,18.49,0,0,0,254.24,375.23Z" />
  <path d="M238.82,387.44l.52,4.71-1.44-4.52C238.21,387.58,238.52,387.51,238.82,387.44Z" />
  <path d="M238,382.17c-.63.51.48,2.25.48,2.25l.33,3c-.3.07-.61.14-.92.19l-.92-2.88s.31-2.05-.47-2.26l-.79-.2a3.49,3.49,0,0,0,.59-1.68,10.46,10.46,0,0,0-.51-2.25h.11a2.59,2.59,0,0,0,1.07-.25,10,10,0,0,0,.45,2.25,3.38,3.38,0,0,0,1.22,1.29Z" />
  <path d="M236.79,374.65a2,2,0,0,1-1.35-1.16c.42-.07,1.16-.15,1.46.14S236.94,374.21,236.79,374.65Z" />
  <path d="M234.14,375.63c.3-.52,1.24-.93,1.21-2.12l.08,0h0a2,2,0,0,0,1.35,1.16,1.39,1.39,0,0,0,.21,1.62c-1-.95-2.17.47-2.62,0A1.09,1.09,0,0,1,234.14,375.63Z" />
  <path d="M235.35,373.51a4.49,4.49,0,0,0-.06-.48,2.5,2.5,0,0,0,.14.46Z" />
  <path d="M235.43,373.49a2.5,2.5,0,0,1-.14-.46,4.49,4.49,0,0,1,.06.48l-.2.05s-.34-.23-.71-.52a2.84,2.84,0,1,1,2.54,5.08c0-.41-.07-.71-.07-.71s.92-1.25.73-2.12c-.07-.37-.44-.48-.85-.64.15-.44.32-.82.11-1s-1-.21-1.46-.14Z" />
  <path d="M235.35,373.51c0,1.19-.91,1.6-1.21,2.12a4.44,4.44,0,0,1,.08-1.08s-.28-.39-.62-.77a2.7,2.7,0,0,1,.84-.74c.37.29.71.52.71.52Z" />
  <path d="M237,378.12a2.59,2.59,0,0,1-1.07.25h-.11l-.21-.67s-1.34-.75-1.53-1.63a.53.53,0,0,1,.08-.43,1.09,1.09,0,0,0,.24.68c.45.43,1.63-1,2.62,0a1.39,1.39,0,0,1-.21-1.62c.41.16.78.27.85.64.19.87-.73,2.12-.73,2.12S236.93,377.71,237,378.12Z" />
  <path d="M234.06,376.06c.19.88,1.53,1.63,1.53,1.63l.21.67a2.85,2.85,0,0,1-2.2-4.58c.34.38.62.77.62.77a4.44,4.44,0,0,0-.08,1.08A.53.53,0,0,0,234.06,376.06Z" />
  <path d="M233.6,373.78a3.4,3.4,0,0,0-.81-.75,2.52,2.52,0,0,0-1.41-.06l.33-.7c.31-.71-1.16-1.11-1.16-1.11l-3.34-4.28,4.4,3.15s.47,1.46,1.15,1.11l.69-.35a2.52,2.52,0,0,0,.12,1.4,3.71,3.71,0,0,0,.87.85A2.7,2.7,0,0,0,233.6,373.78Z" />
  <path class="GUNDAN_OWL_JEWELRY_GUNDAN_OWL_JEWELRY_7_cls-4" d="M239.13,353.11a22.49,22.49,0,1,1-7.69.2,20.16,20.16,0,0,1,3.84-.44A20.43,20.43,0,0,1,239.13,353.11Z" />
  <path class="GUNDAN_OWL_JEWELRY_GUNDAN_OWL_JEWELRY_7_cls-4" d="M217.46,376.15a1.09,1.09,0,0,1,0-.18,18.4,18.4,0,1,1,36.79-.92v.18a18.49,18.49,0,0,1-14.6,18.43,17.53,17.53,0,0,1-3.34.4A18.47,18.47,0,0,1,217.46,376.15Z" />
  <path class="GUNDAN_OWL_JEWELRY_GUNDAN_OWL_JEWELRY_7_cls-5" d="M237.9,387.63a11.28,11.28,0,0,1-1.75.17,12.25,12.25,0,0,1-12.49-11.92v-.06a12.3,12.3,0,0,1,3.54-8.95h0a12.12,12.12,0,0,1,8.36-3.63,12.25,12.25,0,0,1,12.5,12v.06a12.3,12.3,0,0,1-9.22,12.17" />
  <line class="GUNDAN_OWL_JEWELRY_GUNDAN_OWL_JEWELRY_7_cls-5" x1="235.44" y1="359.46" x2="235.48" y2="361" />
  <line class="GUNDAN_OWL_JEWELRY_GUNDAN_OWL_JEWELRY_7_cls-5" x1="236.21" y1="390.27" x2="236.25" y2="391.81" />
  <line class="GUNDAN_OWL_JEWELRY_GUNDAN_OWL_JEWELRY_7_cls-5" x1="251.89" y1="375.23" x2="250.37" y2="375.27" />
  <line class="GUNDAN_OWL_JEWELRY_GUNDAN_OWL_JEWELRY_7_cls-5" x1="221.33" y1="375.99" x2="219.8" y2="376.03" />
  <line class="GUNDAN_OWL_JEWELRY_GUNDAN_OWL_JEWELRY_7_cls-5" x1="247.48" y1="386.79" x2="246.37" y2="385.72" />
  <line class="GUNDAN_OWL_JEWELRY_GUNDAN_OWL_JEWELRY_7_cls-5" x1="225.32" y1="365.54" x2="224.22" y2="364.48" />
  <line class="GUNDAN_OWL_JEWELRY_GUNDAN_OWL_JEWELRY_7_cls-5" x1="224.79" y1="387.35" x2="225.84" y2="386.23" />
  <line class="GUNDAN_OWL_JEWELRY_GUNDAN_OWL_JEWELRY_7_cls-5" x1="245.86" y1="365.03" x2="246.91" y2="363.91" />
  <polyline class="GUNDAN_OWL_JEWELRY_GUNDAN_OWL_JEWELRY_7_cls-4" points="231.44 353.31 231.35 349.58 239.04 349.39 239.13 353.11" />
  <path class="GUNDAN_OWL_JEWELRY_GUNDAN_OWL_JEWELRY_7_cls-6" d="M235.3,350.62a1.74,1.74,0,0,1-.39-.05,155.18,155.18,0,0,1-33.72-14.08c-23-13.08-37.47-30.13-41.73-49.3-.19-.84-.68-5.29,3.34-6a20.32,20.32,0,0,0-.3,5.34c9.44,42.44,67.31,59.41,72.78,60.92,4.07-1.27,42.29-17.94,58.84-54.13.36-.78-.13-1.83-.85-3.83A4.28,4.28,0,0,1,297,294.6c-18.14,39.67-60.86,55.85-61.25,56A1.4,1.4,0,0,1,235.3,350.62Z" />
  <path class="GUNDAN_OWL_JEWELRY_GUNDAN_OWL_JEWELRY_7_cls-7" d="M127.56,189.42a9.7,9.7,0,0,1-7.32-18,6.49,6.49,0,0,0,3.85-6v-.38h-.44a.52.52,0,0,0-.52.52v1.73a12,12,0,0,0-1.48.19l-.45-1.67a.51.51,0,0,0-.63-.36l-.86.23a.52.52,0,0,0-.37.63l.45,1.66q-.71.25-1.38.57l-.86-1.49a.51.51,0,0,0-.7-.18l-.78.44a.53.53,0,0,0-.19.71l.86,1.49a12.66,12.66,0,0,0-1.17.91l-1.22-1.22a.51.51,0,0,0-.74,0l-.62.62a.51.51,0,0,0,0,.74l1.21,1.22a13.11,13.11,0,0,0-.9,1.18l-1.49-.86a.52.52,0,0,0-.71.19l-.45.77a.53.53,0,0,0,.19.71l1.49.86a12.68,12.68,0,0,0-.56,1.37l-1.67-.45a.54.54,0,0,0-.64.37l-.22.86a.5.5,0,0,0,.37.63l1.66.45a14.24,14.24,0,0,0-.19,1.48h-1.73a.52.52,0,0,0-.52.51v.89a.53.53,0,0,0,.52.53h1.73a14.05,14.05,0,0,0,.19,1.47l-1.66.44a.51.51,0,0,0-.37.64l.22.86a.51.51,0,0,0,.64.36l1.67-.44a13.74,13.74,0,0,0,.56,1.38l-1.49.86a.52.52,0,0,0-.19.7l.45.78a.52.52,0,0,0,.71.18l1.49-.86a14.69,14.69,0,0,0,.9,1.18L113,190.1a.5.5,0,0,0,0,.73l.62.63a.53.53,0,0,0,.74,0l1.22-1.22a14.66,14.66,0,0,0,1.17.91l-.86,1.49a.53.53,0,0,0,.19.71l.78.45a.52.52,0,0,0,.7-.19l.86-1.49a13.74,13.74,0,0,0,1.38.56l-.45,1.67a.52.52,0,0,0,.37.63l.86.23a.51.51,0,0,0,.63-.36l.45-1.67a12,12,0,0,0,1.48.19v1.73a.52.52,0,0,0,.52.52h.88a.52.52,0,0,0,.52-.52v-1.73a12.22,12.22,0,0,0,1.48-.19l.44,1.67a.52.52,0,0,0,.64.36l.86-.23a.51.51,0,0,0,.36-.63l-.44-1.67a12.68,12.68,0,0,0,1.37-.56l.86,1.49a.53.53,0,0,0,.71.19l.78-.45a.52.52,0,0,0,.18-.71l-.86-1.49a14.81,14.81,0,0,0,1.18-.91l1.22,1.22a.52.52,0,0,0,.73,0l.17-.16h0A6.26,6.26,0,0,0,127.56,189.42Z" />
  <path class="GUNDAN_OWL_JEWELRY_GUNDAN_OWL_JEWELRY_7_cls-8" d="M124.82,174.35a1.49,1.49,0,0,0-2,0c-1.06.9-2.58,2.55-2.58,4.57,0,1.86,1.31,4.93,2.34,7.05a1.36,1.36,0,0,0,2.44,0c1-2.12,2.34-5.19,2.34-7.05C127.4,176.9,125.87,175.25,124.82,174.35Z" />
  <line class="GUNDAN_OWL_JEWELRY_GUNDAN_OWL_JEWELRY_7_cls-8" x1="123.84" y1="186.74" x2="123.84" y2="190.05" />
  <line class="GUNDAN_OWL_JEWELRY_GUNDAN_OWL_JEWELRY_7_cls-8" x1="123.84" y1="195.62" x2="123.84" y2="201.35" />
  <circle class="GUNDAN_OWL_JEWELRY_GUNDAN_OWL_JEWELRY_7_cls-8" cx="123.84" cy="203.9" r="2.74" />
  <line class="GUNDAN_OWL_JEWELRY_GUNDAN_OWL_JEWELRY_7_cls-9" x1="123.84" y1="173.98" x2="123.84" y2="150.11" />
  <path class="GUNDAN_OWL_JEWELRY_GUNDAN_OWL_JEWELRY_7_cls-1" d="M123.84,176.25a5.15,5.15,0,0,0-1.79,4.49c-.93-2.54-.33-3.86.39-4.83S124.24,174.85,123.84,176.25Z" />
  <path class="GUNDAN_OWL_JEWELRY_GUNDAN_OWL_JEWELRY_7_cls-10" d="M122.45,149.9a2.56,2.56,0,0,1,2.62,1.39" />
  <path class="GUNDAN_OWL_JEWELRY_GUNDAN_OWL_JEWELRY_7_cls-11" d="M118.4,154.54a8,8,0,0,1,1.4-5.28" />
  <path class="GUNDAN_OWL_JEWELRY_GUNDAN_OWL_JEWELRY_7_cls-7" d="M331.15,191.51a9.62,9.62,0,0,0,3.77.64,9.7,9.7,0,0,0,3.55-18.6,6.49,6.49,0,0,1-3.84-6v-.38h.44a.52.52,0,0,1,.52.52v1.73a11.81,11.81,0,0,1,1.47.18l.45-1.66a.52.52,0,0,1,.63-.37l.87.23a.53.53,0,0,1,.36.64l-.45,1.66a12.9,12.9,0,0,1,1.38.57l.86-1.49a.52.52,0,0,1,.71-.19l.77.44a.53.53,0,0,1,.19.71l-.86,1.49c.41.29.8.59,1.17.91l1.22-1.22a.53.53,0,0,1,.74,0l.63.63a.52.52,0,0,1,0,.73l-1.22,1.23c.32.37.62.77.91,1.17l1.49-.86a.53.53,0,0,1,.71.19l.44.78a.51.51,0,0,1-.19.7l-1.49.86q.31.67.57,1.38l1.66-.45a.52.52,0,0,1,.64.37l.23.86a.51.51,0,0,1-.37.63l-1.67.45a14.05,14.05,0,0,1,.2,1.47h1.72a.52.52,0,0,1,.52.52v.89a.52.52,0,0,1-.52.52h-1.72a14.05,14.05,0,0,1-.2,1.47l1.67.45a.52.52,0,0,1,.37.64l-.23.86a.52.52,0,0,1-.64.36l-1.66-.45a14.23,14.23,0,0,1-.57,1.38l1.49.86a.52.52,0,0,1,.19.71l-.44.77a.53.53,0,0,1-.71.19l-1.49-.86c-.29.41-.59.8-.91,1.18l1.22,1.22a.52.52,0,0,1,0,.73l-.63.63a.53.53,0,0,1-.74,0l-1.22-1.22a13.06,13.06,0,0,1-1.17.91l.86,1.49a.52.52,0,0,1-.19.71l-.77.44a.52.52,0,0,1-.71-.19l-.86-1.49a11.12,11.12,0,0,1-1.38.57l.45,1.66a.52.52,0,0,1-.36.64l-.87.23a.52.52,0,0,1-.63-.37l-.45-1.66a14.05,14.05,0,0,1-1.47.19v1.73a.53.53,0,0,1-.52.52h-.89a.52.52,0,0,1-.52-.52v-1.73a14.6,14.6,0,0,1-1.48-.19l-.44,1.66a.53.53,0,0,1-.64.37l-.86-.23a.52.52,0,0,1-.36-.64l.44-1.66a11.65,11.65,0,0,1-1.37-.57l-.86,1.49a.52.52,0,0,1-.71.19l-.77-.44a.52.52,0,0,1-.19-.71l.86-1.49a14.81,14.81,0,0,1-1.18-.91l-1.22,1.22a.52.52,0,0,1-.73,0l-.17-.17h0A6.29,6.29,0,0,1,331.15,191.51Z" />
  <path class="GUNDAN_OWL_JEWELRY_GUNDAN_OWL_JEWELRY_7_cls-8" d="M333.89,176.45a1.49,1.49,0,0,1,2,0c1.06.9,2.58,2.55,2.58,4.56s-1.31,4.94-2.34,7.06a1.35,1.35,0,0,1-2.43,0c-1-2.12-2.35-5.19-2.35-7.06S332.84,177.35,333.89,176.45Z" />
  <line class="GUNDAN_OWL_JEWELRY_GUNDAN_OWL_JEWELRY_7_cls-8" x1="334.87" y1="188.83" x2="334.87" y2="192.15" />
  <line class="GUNDAN_OWL_JEWELRY_GUNDAN_OWL_JEWELRY_7_cls-8" x1="334.87" y1="197.72" x2="334.87" y2="203.44" />
  <circle class="GUNDAN_OWL_JEWELRY_GUNDAN_OWL_JEWELRY_7_cls-8" cx="334.87" cy="206" r="2.74" />
  <line class="GUNDAN_OWL_JEWELRY_GUNDAN_OWL_JEWELRY_7_cls-9" x1="334.87" y1="176.08" x2="334.87" y2="152.21" />
  <path class="GUNDAN_OWL_JEWELRY_GUNDAN_OWL_JEWELRY_7_cls-1" d="M334.87,178.34a5.15,5.15,0,0,1,1.79,4.5c.93-2.54.34-3.86-.38-4.84S334.47,176.94,334.87,178.34Z" />
  <path class="GUNDAN_OWL_JEWELRY_GUNDAN_OWL_JEWELRY_7_cls-10" d="M336.26,152a2.54,2.54,0,0,0-2.62,1.39" />
  <path class="GUNDAN_OWL_JEWELRY_GUNDAN_OWL_JEWELRY_7_cls-9" d="M339.66,150.4s2.52.19,2.35,4.81" />
</svg>