<svg id="jewelry" xmlns="http://www.w3.org/2000/svg" viewBox="0 0 432 432">
  <defs>
    <style>.GUNDAN_OWL_JEWELRY_GUNDAN_OWL_JEWELRY_5_cls-1{fill:#afafaf;}.GUNDAN_OWL_JEWELRY_GUNDAN_OWL_JEWELRY_5_cls-2{fill:#494949;}.GUNDAN_OWL_JEWELRY_GUNDAN_OWL_JEWELRY_5_cls-3{fill:#8c8c8c;}.GUNDAN_OWL_JEWELRY_GUNDAN_OWL_JEWELRY_5_cls-12,.GUNDAN_OWL_JEWELRY_GUNDAN_OWL_JEWELRY_5_cls-4,.GUNDAN_OWL_JEWELRY_GUNDAN_OWL_JEWELRY_5_cls-7{fill:none;}.GUNDAN_OWL_JEWELRY_GUNDAN_OWL_JEWELRY_5_cls-11,.GUNDAN_OWL_JEWELRY_GUNDAN_OWL_JEWELRY_5_cls-12,.GUNDAN_OWL_JEWELRY_GUNDAN_OWL_JEWELRY_5_cls-4,.GUNDAN_OWL_JEWELRY_GUNDAN_OWL_JEWELRY_5_cls-7{stroke:#000;stroke-linecap:round;}.GUNDAN_OWL_JEWELRY_GUNDAN_OWL_JEWELRY_5_cls-4,.GUNDAN_OWL_JEWELRY_GUNDAN_OWL_JEWELRY_5_cls-7{stroke-linejoin:round;}.GUNDAN_OWL_JEWELRY_GUNDAN_OWL_JEWELRY_5_cls-4{stroke-width:0.59px;}.GUNDAN_OWL_JEWELRY_GUNDAN_OWL_JEWELRY_5_cls-5{fill:#686868;}.GUNDAN_OWL_JEWELRY_GUNDAN_OWL_JEWELRY_5_cls-6{fill:#a3a3a3;}.GUNDAN_OWL_JEWELRY_GUNDAN_OWL_JEWELRY_5_cls-7{stroke-width:1.07px;}.GUNDAN_OWL_JEWELRY_GUNDAN_OWL_JEWELRY_5_cls-8{fill:#24133f;}.GUNDAN_OWL_JEWELRY_GUNDAN_OWL_JEWELRY_5_cls-9{fill:#583c82;}.GUNDAN_OWL_JEWELRY_GUNDAN_OWL_JEWELRY_5_cls-10{fill:#9568dd;}.GUNDAN_OWL_JEWELRY_GUNDAN_OWL_JEWELRY_5_cls-11{fill:#f7cf28;}.GUNDAN_OWL_JEWELRY_GUNDAN_OWL_JEWELRY_5_cls-11,.GUNDAN_OWL_JEWELRY_GUNDAN_OWL_JEWELRY_5_cls-12{stroke-miterlimit:10;stroke-width:0.84px;}</style>
  </defs>
  <path d="M162.33,283.28l.67-3.35a3.23,3.23,0,0,0-3.12,1.17" />
  <path class="GUNDAN_OWL_JEWELRY_GUNDAN_OWL_JEWELRY_5_cls-1" d="M200,327.82s-1.81-1.79-3.39-3l0,0a2.6,2.6,0,0,0,.8-.75,2.82,2.82,0,0,0,.43-.91,12.11,12.11,0,0,1,2.42,1.92c.28.33.52.61.69.86A3.1,3.1,0,0,0,200,327.82Z" />
  <path class="GUNDAN_OWL_JEWELRY_GUNDAN_OWL_JEWELRY_5_cls-1" d="M189.86,320.53c.33.77,3.14,3,4.93,2.93h0a1.28,1.28,0,0,0,1.06-.49,1.51,1.51,0,0,0,.33-.82h.08s.73.4,1.62,1a2.82,2.82,0,0,1-.43.91,2.6,2.6,0,0,1-.8.75l0,0a4.61,4.61,0,0,1-4.64-.41c-2.18-1.29-3.76-2.79-3.68-4.36a3.26,3.26,0,0,1,1-2,5.44,5.44,0,0,1,.67,1,1.46,1.46,0,0,0-.22.87A1.44,1.44,0,0,0,189.86,320.53Z" />
  <path class="GUNDAN_OWL_JEWELRY_GUNDAN_OWL_JEWELRY_5_cls-1" d="M163.59,288.13a1.21,1.21,0,0,1-.45.66,1.94,1.94,0,0,1-2.06.35,1.7,1.7,0,0,1,.15-.58,1.47,1.47,0,0,1,.6-.67h0a5.17,5.17,0,0,0-.14-1.22,3.28,3.28,0,0,0-1.74,1.32s-.33-.92-.78-2.06v0c-.54-1.7-.11-4.64,1.74-5.25h0c1.87-.66,1.28,2.35,1.34,2.47a10.21,10.21,0,0,1,1.31,3.28A3.13,3.13,0,0,1,163.59,288.13Z" />
  <path class="GUNDAN_OWL_JEWELRY_GUNDAN_OWL_JEWELRY_5_cls-2" d="M163.59,288.13a3.22,3.22,0,0,0,0-1.74,8.62,8.62,0,0,1,3.75,3.76,6,6,0,0,1,.6,2.81l-.18-.18a3.67,3.67,0,0,0-1.61-1A7.14,7.14,0,0,0,163.59,288.13Z" />
  <path class="GUNDAN_OWL_JEWELRY_GUNDAN_OWL_JEWELRY_5_cls-1" d="M159.94,288a3.21,3.21,0,0,1,1.74-1.31,5,5,0,0,1,.14,1.2h0a1.53,1.53,0,0,0-.6.68,1.65,1.65,0,0,0-.15.58,8.22,8.22,0,0,0,2.56,4.5,1.62,1.62,0,0,0,1.73.36,1.77,1.77,0,0,0,.52-.39c.14.12.73.61,1.39,1.23a2.9,2.9,0,0,1-1,.81,2.73,2.73,0,0,1-.87.3c-1.42.22-3-.68-4.17-2.42C159.9,291.4,159.17,289.34,159.94,288Z" />
  <path class="GUNDAN_OWL_JEWELRY_GUNDAN_OWL_JEWELRY_5_cls-1" d="M165.45,296a2.73,2.73,0,0,0,.87-.3,2.9,2.9,0,0,0,1-.81h0a12.08,12.08,0,0,1,2,2.32c.22.38.39.7.52,1a3.25,3.25,0,0,0-1.33,1.74h0A42.94,42.94,0,0,0,165.45,296Z" />
  <path class="GUNDAN_OWL_JEWELRY_GUNDAN_OWL_JEWELRY_5_cls-3" d="M165.37,294a1.62,1.62,0,0,1-1.73-.36,1.14,1.14,0,0,1,.14-1,2.11,2.11,0,0,1,2.34-.86,3.67,3.67,0,0,1,1.61,1l.18.18h0a23,23,0,0,1,3.65,4.4,3.33,3.33,0,0,1,.5,1.65,1.34,1.34,0,0,1-.27.75,1.92,1.92,0,0,1-1.9.89,1.61,1.61,0,0,1,0-.58,1.42,1.42,0,0,1,.39-.82h0a5.06,5.06,0,0,0-.46-1.13c-.13-.26-.3-.58-.52-1a12.08,12.08,0,0,0-2-2.32h0c-.66-.62-1.25-1.11-1.39-1.23A1.77,1.77,0,0,1,165.37,294Z" />
  <path class="GUNDAN_OWL_JEWELRY_GUNDAN_OWL_JEWELRY_5_cls-2" d="M181.26,309.44a3.09,3.09,0,0,0-.37-1.68h0a8.53,8.53,0,0,1,4.4,3,6.32,6.32,0,0,1,1.14,2.65l-.22-.15a3.82,3.82,0,0,0-1.78-.71A7.28,7.28,0,0,0,181.26,309.44Z" />
  <path class="GUNDAN_OWL_JEWELRY_GUNDAN_OWL_JEWELRY_5_cls-2" d="M175.31,301.59a7.21,7.21,0,0,0-3.24-2.57,3.33,3.33,0,0,0-.5-1.65,8.48,8.48,0,0,1,4.61,2.6,5.5,5.5,0,0,1,1.4,3.11l-.15-.18A3.22,3.22,0,0,0,175.31,301.59Z" />
  <path class="GUNDAN_OWL_JEWELRY_GUNDAN_OWL_JEWELRY_5_cls-1" d="M175.22,306.27a5,5,0,0,1-4-1.43c-1.88-1.69-3.14-3.47-2.77-5a3.25,3.25,0,0,1,1.33-1.74,5.06,5.06,0,0,1,.46,1.13h0a1.42,1.42,0,0,0-.39.82,1.61,1.61,0,0,0,0,.58,8.24,8.24,0,0,0,3.82,3.73h0a1.56,1.56,0,0,0,1.6-.19,1.21,1.21,0,0,0,.36-.47c.28.27.8.8,1.35,1.41h0a3,3,0,0,1-.34.37A2.65,2.65,0,0,1,175.22,306.27Z" />
  <path class="GUNDAN_OWL_JEWELRY_GUNDAN_OWL_JEWELRY_5_cls-3" d="M173.74,304.4h0c-.5-.74-.67-1.41-.22-2a2.17,2.17,0,0,1,1.81-.82,3.22,3.22,0,0,1,2.12,1.31l.15.18h0a22.14,22.14,0,0,1,3.31,4.66h0a3.09,3.09,0,0,1,.37,1.68h0a1.31,1.31,0,0,1-.32.73,2,2,0,0,1-1.95.74,1.42,1.42,0,0,1,0-.59,1.58,1.58,0,0,1,.45-.79,5.51,5.51,0,0,0-.37-1.17c-.11-.28-.26-.61-.45-1a10.53,10.53,0,0,0-1.6-2.22c-.55-.61-1.07-1.14-1.35-1.41a1.21,1.21,0,0,1-.36.47A1.56,1.56,0,0,1,173.74,304.4Z" />
  <path class="GUNDAN_OWL_JEWELRY_GUNDAN_OWL_JEWELRY_5_cls-1" d="M177.05,305.15a10.53,10.53,0,0,1,1.6,2.22c.19.39.34.72.45,1a3.31,3.31,0,0,0-1.46,1.63s-1.23-2.11-2.42-3.73a2.65,2.65,0,0,0,1.48-.74,3,3,0,0,0,.34-.37Z" />
  <path class="GUNDAN_OWL_JEWELRY_GUNDAN_OWL_JEWELRY_5_cls-1" d="M179,310.92a8.21,8.21,0,0,0,3.37,3.93,1.6,1.6,0,0,0,1.77,0,1.49,1.49,0,0,0,.43-.48c.16.08.83.44,1.6.94a3.08,3.08,0,0,1-.78,1,2.65,2.65,0,0,1-.8.45c-1.35.49-3.11-.07-4.56-1.57-1.75-1.83-2.87-3.7-2.38-5.19a3.31,3.31,0,0,1,1.46-1.63,5.51,5.51,0,0,1,.37,1.17,1.58,1.58,0,0,0-.45.79A1.42,1.42,0,0,0,179,310.92Z" />
  <path class="GUNDAN_OWL_JEWELRY_GUNDAN_OWL_JEWELRY_5_cls-1" d="M188.59,317.2c.29.33.52.6.7.84h0a3.26,3.26,0,0,0-1,2h0a42.38,42.38,0,0,0-3.73-3.24h0a2.65,2.65,0,0,0,.8-.45,3.08,3.08,0,0,0,.78-1A11.73,11.73,0,0,1,188.59,317.2Z" />
  <path class="GUNDAN_OWL_JEWELRY_GUNDAN_OWL_JEWELRY_5_cls-3" d="M189.29,318c-.18-.24-.41-.51-.7-.84a11.73,11.73,0,0,0-2.43-1.88c-.77-.5-1.44-.86-1.6-.94a1.49,1.49,0,0,1-.43.48,1.6,1.6,0,0,1-1.77,0,1.11,1.11,0,0,1-.05-1.06,2.08,2.08,0,0,1,2.12-1.29,3.82,3.82,0,0,1,1.78.71l.22.15a35.77,35.77,0,0,1,4.43,3.61l.74,1.26a2.29,2.29,0,0,1,.07.28,1.44,1.44,0,0,1-.12.79,1.91,1.91,0,0,1-1.69,1.23,1.44,1.44,0,0,1-.12-.58,1.46,1.46,0,0,1,.22-.87,5.44,5.44,0,0,0-.67-1Z" />
  <path class="GUNDAN_OWL_JEWELRY_GUNDAN_OWL_JEWELRY_5_cls-2" d="M195.33,320.39a7.29,7.29,0,0,0-3.66-1.88,2.29,2.29,0,0,0-.07-.28l-.74-1.26a8.49,8.49,0,0,1,5,1.68,6.31,6.31,0,0,1,1.76,2.15,2.9,2.9,0,0,0-2-.48A1,1,0,0,0,195.33,320.39Z" />
  <path class="GUNDAN_OWL_JEWELRY_GUNDAN_OWL_JEWELRY_5_cls-3" d="M194.78,323.42c-.67-.58-1-1.18-.72-1.85a2.13,2.13,0,0,1,1.27-1.18,1,1,0,0,1,.26-.07,2.9,2.9,0,0,1,2,.48l.33.21a1.39,1.39,0,0,1,.19.15h0a23.7,23.7,0,0,1,4.42,3.64h0a3.37,3.37,0,0,1,.8,1.54,1.52,1.52,0,0,1-.12.79,1.94,1.94,0,0,1-1.7,1.22,1.29,1.29,0,0,1-.12-.58,1.51,1.51,0,0,1,.23-.87h0a5.48,5.48,0,0,0-.67-1c-.17-.25-.41-.53-.69-.86a12.11,12.11,0,0,0-2.42-1.92c-.89-.55-1.62-1-1.62-1h-.08a1.51,1.51,0,0,1-.33.82,1.28,1.28,0,0,1-1.06.49v0Z" />
  <path class="GUNDAN_OWL_JEWELRY_GUNDAN_OWL_JEWELRY_5_cls-2" d="M207.6,326.51a6.17,6.17,0,0,1,1.78,2.25,1.68,1.68,0,0,1-.24-.07,3.68,3.68,0,0,0-1.91-.23,7.21,7.21,0,0,0-3.84-2.12,3.37,3.37,0,0,0-.8-1.54A8.43,8.43,0,0,1,207.6,326.51Z" />
  <path class="GUNDAN_OWL_JEWELRY_GUNDAN_OWL_JEWELRY_5_cls-1" d="M208.49,332.54c-1.18.82-3,.74-4.81-.33-2.17-1.31-3.74-2.83-3.65-4.38h0a3.1,3.1,0,0,1,1-1.94,5.48,5.48,0,0,1,.67,1h0a1.51,1.51,0,0,0-.23.87,1.29,1.29,0,0,0,.12.58,8.2,8.2,0,0,0,4.28,2.91,1.58,1.58,0,0,0,1.71-.43,1.89,1.89,0,0,0,.3-.58c.18,0,.92.21,1.79.48a2.89,2.89,0,0,1-.5,1.15,3.08,3.08,0,0,1-.65.65Z" />
  <path class="GUNDAN_OWL_JEWELRY_GUNDAN_OWL_JEWELRY_5_cls-1" d="M213,334.7a45.25,45.25,0,0,0-4.45-2.17,3.08,3.08,0,0,0,.65-.65,2.89,2.89,0,0,0,.5-1.15,13,13,0,0,1,2.83,1.19q.54.36.9.63A3.28,3.28,0,0,0,213,334.7Z" />
  <path class="GUNDAN_OWL_JEWELRY_GUNDAN_OWL_JEWELRY_5_cls-3" d="M205.85,331.26a1.11,1.11,0,0,1-.33-1,2.1,2.1,0,0,1,1.71-1.81,3.68,3.68,0,0,1,1.91.23,1.68,1.68,0,0,0,.24.07h0a23.65,23.65,0,0,1,5.21,2.33,3.34,3.34,0,0,1,1.18,1.28,1.34,1.34,0,0,1,.1.79,1.92,1.92,0,0,1-1.31,1.63,1.57,1.57,0,0,1-.27-.53,1.48,1.48,0,0,1,0-.9h0a5.64,5.64,0,0,0-.91-.81q-.36-.27-.9-.63a13,13,0,0,0-2.83-1.19c-.87-.27-1.61-.44-1.79-.48a1.89,1.89,0,0,1-.3.58A1.58,1.58,0,0,1,205.85,331.26Z" />
  <path class="GUNDAN_OWL_JEWELRY_GUNDAN_OWL_JEWELRY_5_cls-3" d="M213.38,332.55a5.64,5.64,0,0,1,.91.81h0a1.48,1.48,0,0,0,0,.9,1.57,1.57,0,0,0,.27.53c.65.82,5.57,2.83,6.43.78,1-2.31-3.71-3.52-5.22-3.2a3.34,3.34,0,0,0-1.18-1.28,8.48,8.48,0,0,1,5.3.31c2.54,1.14,3.54,3.07,2.92,4.76s-2.75,2.45-5.18,1.78-4.37-1.72-4.69-3.24h0A3.28,3.28,0,0,1,213.38,332.55Z" />
  <path class="GUNDAN_OWL_JEWELRY_GUNDAN_OWL_JEWELRY_5_cls-4" d="M161.82,287.87a5,5,0,0,0-.14-1.2c-.06-.3-.13-.65-.24-1.08a10.76,10.76,0,0,0-1.05-2.31" />
  <path class="GUNDAN_OWL_JEWELRY_GUNDAN_OWL_JEWELRY_5_cls-4" d="M159.94,288s-.33-.92-.78-2.06v0" />
  <path class="GUNDAN_OWL_JEWELRY_GUNDAN_OWL_JEWELRY_5_cls-4" d="M160.9,280.64l1.7-.42c.06.1-.48,2.86-.42,3a8.44,8.44,0,0,1,1.38,3.19,3.13,3.13,0,0,1,0,1.74,1.21,1.21,0,0,1-.45.66,1.94,1.94,0,0,1-2.06.35" />
  <path class="GUNDAN_OWL_JEWELRY_GUNDAN_OWL_JEWELRY_5_cls-4" d="M161.83,287.88a1.53,1.53,0,0,0-.6.68,1.65,1.65,0,0,0-.15.58,8.22,8.22,0,0,0,2.56,4.5,1.62,1.62,0,0,0,1.73.36,1.77,1.77,0,0,0,.52-.39" />
  <path class="GUNDAN_OWL_JEWELRY_GUNDAN_OWL_JEWELRY_5_cls-4" d="M166.12,291.74a7.14,7.14,0,0,0-2.53-3.61" />
  <path class="GUNDAN_OWL_JEWELRY_GUNDAN_OWL_JEWELRY_5_cls-4" d="M167.28,294.84a2.9,2.9,0,0,1-1,.81,2.73,2.73,0,0,1-.87.3c-1.42.22-3-.68-4.17-2.42-1.38-2.13-2.11-4.19-1.34-5.55a3.21,3.21,0,0,1,1.74-1.31h0" />
  <path class="GUNDAN_OWL_JEWELRY_GUNDAN_OWL_JEWELRY_5_cls-4" d="M167.91,293a6,6,0,0,0-.6-2.81,8.62,8.62,0,0,0-3.75-3.76" />
  <path class="GUNDAN_OWL_JEWELRY_GUNDAN_OWL_JEWELRY_5_cls-4" d="M170.28,299.25a5.06,5.06,0,0,0-.46-1.13c-.13-.26-.3-.58-.52-1a12.08,12.08,0,0,0-2-2.32h0c-.66-.62-1.25-1.11-1.39-1.23l0,0" />
  <path class="GUNDAN_OWL_JEWELRY_GUNDAN_OWL_JEWELRY_5_cls-4" d="M168.48,299.86a42.94,42.94,0,0,0-3-3.91" />
  <path class="GUNDAN_OWL_JEWELRY_GUNDAN_OWL_JEWELRY_5_cls-4" d="M163.64,293.64a1.14,1.14,0,0,1,.14-1,2.11,2.11,0,0,1,2.34-.86,3.67,3.67,0,0,1,1.61,1l.18.18h0a23,23,0,0,1,3.65,4.4,3.33,3.33,0,0,1,.5,1.65,1.34,1.34,0,0,1-.27.75,1.92,1.92,0,0,1-1.9.89" />
  <path class="GUNDAN_OWL_JEWELRY_GUNDAN_OWL_JEWELRY_5_cls-4" d="M173.74,304.4a1.56,1.56,0,0,0,1.6-.19,1.21,1.21,0,0,0,.36-.47" />
  <path class="GUNDAN_OWL_JEWELRY_GUNDAN_OWL_JEWELRY_5_cls-4" d="M170.29,299.26a1.42,1.42,0,0,0-.39.82,1.61,1.61,0,0,0,0,.58,8.24,8.24,0,0,0,3.82,3.73" />
  <path class="GUNDAN_OWL_JEWELRY_GUNDAN_OWL_JEWELRY_5_cls-4" d="M175.31,301.59a7.21,7.21,0,0,0-3.24-2.57h0" />
  <path class="GUNDAN_OWL_JEWELRY_GUNDAN_OWL_JEWELRY_5_cls-4" d="M169.83,298.11h0a3.25,3.25,0,0,0-1.33,1.74c-.37,1.51.89,3.29,2.77,5a5,5,0,0,0,4,1.43,2.65,2.65,0,0,0,1.48-.74,3,3,0,0,0,.34-.37" />
  <path class="GUNDAN_OWL_JEWELRY_GUNDAN_OWL_JEWELRY_5_cls-4" d="M177.58,303.08a5.5,5.5,0,0,0-1.4-3.11,8.48,8.48,0,0,0-4.61-2.6h0" />
  <path class="GUNDAN_OWL_JEWELRY_GUNDAN_OWL_JEWELRY_5_cls-4" d="M179.47,309.54a5.51,5.51,0,0,0-.37-1.17c-.11-.28-.26-.61-.45-1a10.53,10.53,0,0,0-1.6-2.22c-.55-.61-1.07-1.14-1.35-1.41l-.21-.2" />
  <path class="GUNDAN_OWL_JEWELRY_GUNDAN_OWL_JEWELRY_5_cls-4" d="M177.64,310s-1.23-2.11-2.42-3.73" />
  <path class="GUNDAN_OWL_JEWELRY_GUNDAN_OWL_JEWELRY_5_cls-4" d="M173.74,304.4h0c-.5-.74-.67-1.41-.22-2a2.17,2.17,0,0,1,1.81-.82,3.22,3.22,0,0,1,2.12,1.31l.15.18h0a22.14,22.14,0,0,1,3.31,4.66h0a3.09,3.09,0,0,1,.37,1.68h0a1.31,1.31,0,0,1-.32.73,2,2,0,0,1-1.95.74h0" />
  <path class="GUNDAN_OWL_JEWELRY_GUNDAN_OWL_JEWELRY_5_cls-4" d="M179.47,309.54a1.58,1.58,0,0,0-.45.79,1.42,1.42,0,0,0,0,.59,8.21,8.21,0,0,0,3.37,3.93,1.6,1.6,0,0,0,1.77,0,1.49,1.49,0,0,0,.43-.48" />
  <path class="GUNDAN_OWL_JEWELRY_GUNDAN_OWL_JEWELRY_5_cls-4" d="M184.43,312.5a7.28,7.28,0,0,0-3.17-3.06" />
  <path class="GUNDAN_OWL_JEWELRY_GUNDAN_OWL_JEWELRY_5_cls-4" d="M186.16,315.32a3.08,3.08,0,0,1-.78,1,2.65,2.65,0,0,1-.8.45c-1.35.49-3.11-.07-4.56-1.57-1.75-1.83-2.87-3.7-2.38-5.19a3.31,3.31,0,0,1,1.46-1.63h0" />
  <path class="GUNDAN_OWL_JEWELRY_GUNDAN_OWL_JEWELRY_5_cls-4" d="M186.43,313.36a6.32,6.32,0,0,0-1.14-2.65,8.53,8.53,0,0,0-4.4-3" />
  <path class="GUNDAN_OWL_JEWELRY_GUNDAN_OWL_JEWELRY_5_cls-4" d="M189.29,318c-.18-.24-.41-.51-.7-.84a11.73,11.73,0,0,0-2.43-1.88c-.77-.5-1.44-.86-1.6-.94l0,0" />
  <path class="GUNDAN_OWL_JEWELRY_GUNDAN_OWL_JEWELRY_5_cls-4" d="M190,319.08a5.44,5.44,0,0,0-.67-1" />
  <path class="GUNDAN_OWL_JEWELRY_GUNDAN_OWL_JEWELRY_5_cls-4" d="M188.31,320a42.38,42.38,0,0,0-3.73-3.24" />
  <path class="GUNDAN_OWL_JEWELRY_GUNDAN_OWL_JEWELRY_5_cls-4" d="M182.36,314.85a1.11,1.11,0,0,1-.05-1.06,2.08,2.08,0,0,1,2.12-1.29,3.82,3.82,0,0,1,1.78.71l.22.15a35.77,35.77,0,0,1,4.43,3.61l.74,1.26a2.29,2.29,0,0,1,.07.28,1.44,1.44,0,0,1-.12.79,1.91,1.91,0,0,1-1.69,1.23" />
  <path class="GUNDAN_OWL_JEWELRY_GUNDAN_OWL_JEWELRY_5_cls-4" d="M191.66,318.51h0a7.29,7.29,0,0,1,3.66,1.88" />
  <path class="GUNDAN_OWL_JEWELRY_GUNDAN_OWL_JEWELRY_5_cls-4" d="M196.2,322.14a1.51,1.51,0,0,1-.33.82,1.28,1.28,0,0,1-1.06.49h0c-1.79.09-4.6-2.16-4.93-2.93a1.44,1.44,0,0,1-.12-.58,1.46,1.46,0,0,1,.22-.87" />
  <path class="GUNDAN_OWL_JEWELRY_GUNDAN_OWL_JEWELRY_5_cls-4" d="M190.85,317h0a8.49,8.49,0,0,1,5,1.68,6.31,6.31,0,0,1,1.76,2.15" />
  <path class="GUNDAN_OWL_JEWELRY_GUNDAN_OWL_JEWELRY_5_cls-4" d="M197.9,323.1a2.82,2.82,0,0,1-.43.91,2.6,2.6,0,0,1-.8.75l0,0a4.61,4.61,0,0,1-4.64-.41c-2.18-1.29-3.76-2.79-3.68-4.36a3.26,3.26,0,0,1,1-2h0" />
  <path class="GUNDAN_OWL_JEWELRY_GUNDAN_OWL_JEWELRY_5_cls-4" d="M196.28,322.15s.73.4,1.62,1a12.11,12.11,0,0,1,2.42,1.92c.28.33.52.61.69.86a5.48,5.48,0,0,1,.67,1" />
  <path class="GUNDAN_OWL_JEWELRY_GUNDAN_OWL_JEWELRY_5_cls-4" d="M200,327.82s-1.81-1.79-3.39-3" />
  <path class="GUNDAN_OWL_JEWELRY_GUNDAN_OWL_JEWELRY_5_cls-4" d="M201.56,328.35h0a1.94,1.94,0,0,0,1.7-1.22,1.52,1.52,0,0,0,.12-.79,3.37,3.37,0,0,0-.8-1.54h0a23.7,23.7,0,0,0-4.42-3.64h0A1.39,1.39,0,0,0,198,321l-.33-.21a2.9,2.9,0,0,0-2-.48,1,1,0,0,0-.26.07,2.13,2.13,0,0,0-1.27,1.18c-.29.67.05,1.27.72,1.85h0" />
  <path class="GUNDAN_OWL_JEWELRY_GUNDAN_OWL_JEWELRY_5_cls-4" d="M201.68,326.9a1.51,1.51,0,0,0-.23.87,1.29,1.29,0,0,0,.12.58,8.2,8.2,0,0,0,4.28,2.91,1.58,1.58,0,0,0,1.71-.43,1.89,1.89,0,0,0,.3-.58" />
  <path class="GUNDAN_OWL_JEWELRY_GUNDAN_OWL_JEWELRY_5_cls-4" d="M207.23,328.46a7.21,7.21,0,0,0-3.84-2.12h0" />
  <path class="GUNDAN_OWL_JEWELRY_GUNDAN_OWL_JEWELRY_5_cls-4" d="M208.49,332.54c-1.18.82-3,.74-4.81-.33-2.17-1.31-3.74-2.83-3.65-4.38h0a3.1,3.1,0,0,1,1-1.94v0" />
  <path class="GUNDAN_OWL_JEWELRY_GUNDAN_OWL_JEWELRY_5_cls-4" d="M209.65,330.73a2.89,2.89,0,0,1-.5,1.15,3.08,3.08,0,0,1-.65.65" />
  <path class="GUNDAN_OWL_JEWELRY_GUNDAN_OWL_JEWELRY_5_cls-4" d="M209.38,328.76a6.17,6.17,0,0,0-1.78-2.25,8.43,8.43,0,0,0-5-1.71h0" />
  <path class="GUNDAN_OWL_JEWELRY_GUNDAN_OWL_JEWELRY_5_cls-4" d="M214.29,333.36a5.64,5.64,0,0,0-.91-.81q-.36-.27-.9-.63a13,13,0,0,0-2.83-1.19c-.87-.27-1.61-.44-1.79-.48l-.05,0" />
  <path class="GUNDAN_OWL_JEWELRY_GUNDAN_OWL_JEWELRY_5_cls-4" d="M213,334.7a45.25,45.25,0,0,0-4.45-2.17h0" />
  <path class="GUNDAN_OWL_JEWELRY_GUNDAN_OWL_JEWELRY_5_cls-4" d="M205.85,331.26a1.11,1.11,0,0,1-.33-1,2.1,2.1,0,0,1,1.71-1.81,3.68,3.68,0,0,1,1.91.23,1.68,1.68,0,0,0,.24.07h0a23.65,23.65,0,0,1,5.21,2.33,3.34,3.34,0,0,1,1.18,1.28,1.34,1.34,0,0,1,.1.79,1.92,1.92,0,0,1-1.31,1.63" />
  <path class="GUNDAN_OWL_JEWELRY_GUNDAN_OWL_JEWELRY_5_cls-4" d="M215.78,332.38c1.51-.32,6.19.89,5.22,3.2-.86,2.05-5.78,0-6.43-.78a1.57,1.57,0,0,1-.27-.53,1.48,1.48,0,0,1,0-.9" />
  <path class="GUNDAN_OWL_JEWELRY_GUNDAN_OWL_JEWELRY_5_cls-4" d="M214.59,331.11h0a8.48,8.48,0,0,1,5.3.31c2.54,1.14,3.54,3.07,2.92,4.76s-2.75,2.45-5.18,1.78-4.37-1.72-4.69-3.24h0a3.28,3.28,0,0,1,.43-2.15" />
  <path class="GUNDAN_OWL_JEWELRY_GUNDAN_OWL_JEWELRY_5_cls-4" d="M160.91,280.64h0c-1.85.61-2.28,3.55-1.74,5.25v0" />
  <path d="M295.91,298.38l-1-3.26a3.23,3.23,0,0,1,3.23.83" />
  <path class="GUNDAN_OWL_JEWELRY_GUNDAN_OWL_JEWELRY_5_cls-1" d="M295.17,303.34a1.24,1.24,0,0,0,.52.61,1.91,1.91,0,0,0,2.08.13,1.76,1.76,0,0,0-.2-.56,1.53,1.53,0,0,0-.68-.61h0a5.33,5.33,0,0,1,0-1.22,3.28,3.28,0,0,1,1.87,1.13s.22-1,.55-2.14v0c.36-1.75-.38-4.63-2.28-5h0c-1.93-.46-1,2.47-1.07,2.59a10.36,10.36,0,0,0-1,3.4A3.21,3.21,0,0,0,295.17,303.34Z" />
  <path class="GUNDAN_OWL_JEWELRY_GUNDAN_OWL_JEWELRY_5_cls-2" d="M295.17,303.34a3.22,3.22,0,0,1-.15-1.74,8.58,8.58,0,0,0-3.34,4.14,6.13,6.13,0,0,0-.3,2.86c.06-.07.11-.15.16-.2a3.89,3.89,0,0,1,1.49-1.21A7.13,7.13,0,0,1,295.17,303.34Z" />
  <path class="GUNDAN_OWL_JEWELRY_GUNDAN_OWL_JEWELRY_5_cls-1" d="M298.79,302.8a3.26,3.26,0,0,0-1.88-1.12,5.61,5.61,0,0,0,0,1.22h0a1.49,1.49,0,0,1,.66.61,1.42,1.42,0,0,1,.21.56,8.16,8.16,0,0,1-2.07,4.74,1.63,1.63,0,0,1-1.68.55,2,2,0,0,1-.56-.34c-.13.13-.66.68-1.25,1.37a3,3,0,0,0,1,.71,2.86,2.86,0,0,0,.91.2c1.43.07,3-1,3.88-2.85C299.18,306.2,299.69,304.07,298.79,302.8Z" />
  <path class="GUNDAN_OWL_JEWELRY_GUNDAN_OWL_JEWELRY_5_cls-1" d="M294.15,311.31a2.86,2.86,0,0,1-.91-.2,3,3,0,0,1-1-.71h0a11.71,11.71,0,0,0-1.75,2.52c-.18.4-.32.73-.43,1a3.18,3.18,0,0,1,1.51,1.58h0A41.59,41.59,0,0,1,294.15,311.31Z" />
  <path class="GUNDAN_OWL_JEWELRY_GUNDAN_OWL_JEWELRY_5_cls-3" d="M294,309.37a1.63,1.63,0,0,0,1.68-.55,1.14,1.14,0,0,0-.25-1,2.13,2.13,0,0,0-2.42-.61,3.89,3.89,0,0,0-1.49,1.21c-.05.05-.1.13-.16.2h0a22.68,22.68,0,0,0-3.17,4.76,3.27,3.27,0,0,0-.33,1.69,1.36,1.36,0,0,0,.35.72,1.91,1.91,0,0,0,2,.68,1.55,1.55,0,0,0,0-.58,1.47,1.47,0,0,0-.48-.77h0a4.77,4.77,0,0,1,.33-1.17c.11-.28.25-.61.43-1a11.71,11.71,0,0,1,1.75-2.52h0c.59-.69,1.12-1.24,1.25-1.37A2,2,0,0,0,294,309.37Z" />
  <path class="GUNDAN_OWL_JEWELRY_GUNDAN_OWL_JEWELRY_5_cls-2" d="M279.85,326.39a3,3,0,0,1,.18-1.71h0a8.57,8.57,0,0,0-4.06,3.41,6.24,6.24,0,0,0-.85,2.75l.2-.17a3.69,3.69,0,0,1,1.7-.89A7.2,7.2,0,0,1,279.85,326.39Z" />
  <path class="GUNDAN_OWL_JEWELRY_GUNDAN_OWL_JEWELRY_5_cls-2" d="M284.94,318a7.2,7.2,0,0,1,2.94-2.9,3.27,3.27,0,0,1,.33-1.69,8.42,8.42,0,0,0-4.31,3.07,5.53,5.53,0,0,0-1.07,3.24l.13-.19A3.22,3.22,0,0,1,284.94,318Z" />
  <path class="GUNDAN_OWL_JEWELRY_GUNDAN_OWL_JEWELRY_5_cls-1" d="M285.52,322.6a5,5,0,0,0,3.78-1.84c1.7-1.87,2.77-3.78,2.23-5.25a3.18,3.18,0,0,0-1.51-1.58,4.77,4.77,0,0,0-.33,1.17h0a1.47,1.47,0,0,1,.48.77,1.55,1.55,0,0,1,0,.58,8.16,8.16,0,0,1-3.4,4.11h0a1.53,1.53,0,0,1-1.61,0,1.26,1.26,0,0,1-.41-.42c-.24.3-.71.88-1.19,1.54h0a2.83,2.83,0,0,0,.37.33A2.67,2.67,0,0,0,285.52,322.6Z" />
  <path class="GUNDAN_OWL_JEWELRY_GUNDAN_OWL_JEWELRY_5_cls-3" d="M286.79,320.58h0c.42-.78.52-1.47,0-2a2.18,2.18,0,0,0-1.88-.62,3.22,3.22,0,0,0-2,1.53l-.13.19h0a22.78,22.78,0,0,0-2.8,5h0a3,3,0,0,0-.18,1.71h0a1.29,1.29,0,0,0,.39.69,1.94,1.94,0,0,0,2,.53,1.31,1.31,0,0,0-.1-.58,1.6,1.6,0,0,0-.53-.74,5.93,5.93,0,0,1,.25-1.2c.08-.3.2-.64.34-1a10.64,10.64,0,0,1,1.36-2.38c.48-.66.95-1.24,1.19-1.54a1.26,1.26,0,0,0,.41.42A1.53,1.53,0,0,0,286.79,320.58Z" />
  <path class="GUNDAN_OWL_JEWELRY_GUNDAN_OWL_JEWELRY_5_cls-1" d="M283.58,321.68a10.64,10.64,0,0,0-1.36,2.38c-.14.4-.26.74-.34,1a3.24,3.24,0,0,1,1.62,1.47s1-2.23,2-4A2.67,2.67,0,0,1,284,322a2.83,2.83,0,0,1-.37-.33Z" />
  <path class="GUNDAN_OWL_JEWELRY_GUNDAN_OWL_JEWELRY_5_cls-1" d="M282.26,327.62a8.16,8.16,0,0,1-2.94,4.27,1.61,1.61,0,0,1-1.75.2,1.5,1.5,0,0,1-.49-.44c-.14.1-.77.53-1.49,1.1a3,3,0,0,0,.88.91,2.66,2.66,0,0,0,.85.36c1.39.35,3.08-.39,4.36-2,1.55-2,2.47-4,1.82-5.41a3.24,3.24,0,0,0-1.62-1.47,5.93,5.93,0,0,0-.25,1.2,1.6,1.6,0,0,1,.53.74A1.31,1.31,0,0,1,282.26,327.62Z" />
  <path class="GUNDAN_OWL_JEWELRY_GUNDAN_OWL_JEWELRY_5_cls-4" d="M296.9,302.9a5.61,5.61,0,0,1,0-1.22c0-.3.07-.66.13-1.09a10.62,10.62,0,0,1,.8-2.41" />
  <path class="GUNDAN_OWL_JEWELRY_GUNDAN_OWL_JEWELRY_5_cls-4" d="M298.79,302.81s.22-1,.55-2.14v0" />
  <path class="GUNDAN_OWL_JEWELRY_GUNDAN_OWL_JEWELRY_5_cls-4" d="M297.06,295.61l-1.74-.24c-.05.11.78,2.79.74,2.91A8.48,8.48,0,0,0,295,301.6a3.21,3.21,0,0,0,.16,1.74,1.24,1.24,0,0,0,.52.61,1.91,1.91,0,0,0,2.08.13" />
  <path class="GUNDAN_OWL_JEWELRY_GUNDAN_OWL_JEWELRY_5_cls-4" d="M296.9,302.91a1.49,1.49,0,0,1,.66.61,1.42,1.42,0,0,1,.21.56,8.16,8.16,0,0,1-2.07,4.74,1.63,1.63,0,0,1-1.68.55,2,2,0,0,1-.56-.34" />
  <path class="GUNDAN_OWL_JEWELRY_GUNDAN_OWL_JEWELRY_5_cls-4" d="M293,307.19a7.13,7.13,0,0,1,2.14-3.85" />
  <path class="GUNDAN_OWL_JEWELRY_GUNDAN_OWL_JEWELRY_5_cls-4" d="M292.21,310.4a3,3,0,0,0,1,.71,2.86,2.86,0,0,0,.91.2c1.43.07,3-1,3.88-2.85,1.15-2.26,1.66-4.39.76-5.66a3.26,3.26,0,0,0-1.88-1.12h0" />
  <path class="GUNDAN_OWL_JEWELRY_GUNDAN_OWL_JEWELRY_5_cls-4" d="M291.38,308.6a6.13,6.13,0,0,1,.3-2.86A8.58,8.58,0,0,1,295,301.6" />
  <path class="GUNDAN_OWL_JEWELRY_GUNDAN_OWL_JEWELRY_5_cls-4" d="M289.69,315.1a4.77,4.77,0,0,1,.33-1.17c.11-.28.25-.61.43-1a11.71,11.71,0,0,1,1.75-2.52h0c.59-.69,1.12-1.24,1.25-1.37l0,0" />
  <path class="GUNDAN_OWL_JEWELRY_GUNDAN_OWL_JEWELRY_5_cls-4" d="M291.54,315.52a41.59,41.59,0,0,1,2.61-4.21" />
  <path class="GUNDAN_OWL_JEWELRY_GUNDAN_OWL_JEWELRY_5_cls-4" d="M295.7,308.82a1.14,1.14,0,0,0-.25-1,2.13,2.13,0,0,0-2.42-.61,3.89,3.89,0,0,0-1.49,1.21c-.05.05-.1.13-.16.2h0a22.68,22.68,0,0,0-3.17,4.76,3.27,3.27,0,0,0-.33,1.69,1.36,1.36,0,0,0,.35.72,1.91,1.91,0,0,0,2,.68" />
  <path class="GUNDAN_OWL_JEWELRY_GUNDAN_OWL_JEWELRY_5_cls-4" d="M286.79,320.58a1.53,1.53,0,0,1-1.61,0,1.26,1.26,0,0,1-.41-.42" />
  <path class="GUNDAN_OWL_JEWELRY_GUNDAN_OWL_JEWELRY_5_cls-4" d="M289.68,315.11a1.47,1.47,0,0,1,.48.77,1.55,1.55,0,0,1,0,.58,8.16,8.16,0,0,1-3.4,4.11" />
  <path class="GUNDAN_OWL_JEWELRY_GUNDAN_OWL_JEWELRY_5_cls-4" d="M284.94,318a7.2,7.2,0,0,1,2.94-2.9h0" />
  <path class="GUNDAN_OWL_JEWELRY_GUNDAN_OWL_JEWELRY_5_cls-4" d="M290,313.92h0a3.18,3.18,0,0,1,1.51,1.58c.54,1.47-.53,3.38-2.23,5.25a5,5,0,0,1-3.78,1.84A2.67,2.67,0,0,1,284,322a2.83,2.83,0,0,1-.37-.33" />
  <path class="GUNDAN_OWL_JEWELRY_GUNDAN_OWL_JEWELRY_5_cls-4" d="M282.83,319.68a5.53,5.53,0,0,1,1.07-3.24,8.42,8.42,0,0,1,4.31-3.07h0" />
  <path class="GUNDAN_OWL_JEWELRY_GUNDAN_OWL_JEWELRY_5_cls-4" d="M281.63,326.3a5.93,5.93,0,0,1,.25-1.2c.08-.3.2-.64.34-1a10.64,10.64,0,0,1,1.36-2.38c.48-.66.95-1.24,1.19-1.54l.19-.22" />
  <path class="GUNDAN_OWL_JEWELRY_GUNDAN_OWL_JEWELRY_5_cls-4" d="M283.5,326.57s1-2.23,2-4" />
  <path class="GUNDAN_OWL_JEWELRY_GUNDAN_OWL_JEWELRY_5_cls-4" d="M286.79,320.58h0c.42-.78.52-1.47,0-2a2.18,2.18,0,0,0-1.88-.62,3.22,3.22,0,0,0-2,1.53l-.13.19h0a22.78,22.78,0,0,0-2.8,5h0a3,3,0,0,0-.18,1.71h0a1.29,1.29,0,0,0,.39.69,1.94,1.94,0,0,0,2,.53h0" />
  <path class="GUNDAN_OWL_JEWELRY_GUNDAN_OWL_JEWELRY_5_cls-4" d="M281.63,326.3a1.6,1.6,0,0,1,.53.74,1.31,1.31,0,0,1,.1.58,8.16,8.16,0,0,1-2.94,4.27,1.61,1.61,0,0,1-1.75.2,1.5,1.5,0,0,1-.49-.44" />
  <path class="GUNDAN_OWL_JEWELRY_GUNDAN_OWL_JEWELRY_5_cls-4" d="M277,329.77a7.2,7.2,0,0,1,2.83-3.38" />
  <path class="GUNDAN_OWL_JEWELRY_GUNDAN_OWL_JEWELRY_5_cls-4" d="M275.59,332.75a3,3,0,0,0,.88.91,2.66,2.66,0,0,0,.85.36c1.39.35,3.08-.39,4.36-2,1.55-2,2.47-4,1.82-5.41a3.24,3.24,0,0,0-1.62-1.47h0" />
  <path class="GUNDAN_OWL_JEWELRY_GUNDAN_OWL_JEWELRY_5_cls-4" d="M275.12,330.83a6.24,6.24,0,0,1,.85-2.75,8.57,8.57,0,0,1,4.06-3.41" />
  <path class="GUNDAN_OWL_JEWELRY_GUNDAN_OWL_JEWELRY_5_cls-4" d="M297.05,295.61h0c1.9.41,2.64,3.29,2.28,5v0" />
  <polygon points="252.94 362.66 247.16 362.96 246.73 362.99 240.96 363.29 233.78 370.9 234.9 392.08 242.34 399.41 250 399 251.99 398.9 255.37 398.72 262 390.64 260.88 369.47 252.94 362.66" />
  <path class="GUNDAN_OWL_JEWELRY_GUNDAN_OWL_JEWELRY_5_cls-5" d="M280.19,335.85a4.64,4.64,0,0,0,.49,1.34s-2.49-.59-3.74,1.29c-.18-2.28-4.32-6.67-11.28-9.62C276.62,328.18,279.61,333.44,280.19,335.85Z" />
  <path class="GUNDAN_OWL_JEWELRY_GUNDAN_OWL_JEWELRY_5_cls-5" d="M251,336.88s3.63,2.2,5,.67,6.65-7.63,6.65-7.63,7.33,2.57,10,6.5a12.59,12.59,0,0,0,2.69,3.05s-9.35.81-11.64,7c-7.15-.44-9.73,2.34-11.4,4.84a4.44,4.44,0,0,0-.7-2.07C247.24,341.4,251,336.88,251,336.88Z" />
  <path class="GUNDAN_OWL_JEWELRY_GUNDAN_OWL_JEWELRY_5_cls-2" d="M247.3,357.11a4.25,4.25,0,0,0,2.44-4.31,5.05,5.05,0,0,0-.33-1.58,2.76,2.76,0,0,0,.84.79,2.66,2.66,0,0,0,1.1.35c0,.12,0,.23,0,.35.16,3.1-1.55,5.78-4,6.43h0l-.1-2v0Z" />
  <path class="GUNDAN_OWL_JEWELRY_GUNDAN_OWL_JEWELRY_5_cls-3" d="M247.28,357.11v0l.1,2,.26,4.81a.91.91,0,0,1-1.81.1l-.26-4.82-.1-2v0a.91.91,0,0,1,.86-.93A.92.92,0,0,1,247.28,357.11Z" />
  <path class="GUNDAN_OWL_JEWELRY_GUNDAN_OWL_JEWELRY_5_cls-2" d="M247,346.79c.42,1,.89,2,1.39,2.89a3.23,3.23,0,0,0-2.48-1h0a3.17,3.17,0,0,0-2.35,1.27c.39-.94.76-2,1.08-3a4.12,4.12,0,0,1,1.17-.23h0a4.75,4.75,0,0,1,1.19.1Z" />
  <path class="GUNDAN_OWL_JEWELRY_GUNDAN_OWL_JEWELRY_5_cls-5" d="M248.85,330a2.91,2.91,0,0,1-1.31,2.54,4.8,4.8,0,0,1-2.41.68h0a4.86,4.86,0,0,1-2.47-.42,2.91,2.91,0,0,1-1.57-2.39s-1.32-2.18-.6-3.2a1,1,0,0,1,.27-.27c1.52-1,2.55,2,2.55,2l1.58-.24h0l1.6.07s.71-3,2.32-2.24C250.17,327.23,248.85,330,248.85,330Z" />
  <path class="GUNDAN_OWL_JEWELRY_GUNDAN_OWL_JEWELRY_5_cls-2" d="M240.94,352.91a2.6,2.6,0,0,0,1.06-.46,3.11,3.11,0,0,0,.75-.88,5,5,0,0,0-.17,1.61,4.27,4.27,0,0,0,2.88,4v0l.1,2c-2.47-.39-4.46-2.87-4.62-6C240.94,353.15,240.94,353,240.94,352.91Z" />
  <path class="GUNDAN_OWL_JEWELRY_GUNDAN_OWL_JEWELRY_5_cls-5" d="M240.34,349.86a4.35,4.35,0,0,0-.47,2.13c-1.93-2.31-4.77-4.78-11.79-3.62H228a8.06,8.06,0,0,0-.87-1.38,9.52,9.52,0,0,0-3-2.43,16.79,16.79,0,0,0-5-1.63,20.52,20.52,0,0,0-3.49-.31,12.58,12.58,0,0,0,2.36-3.33c2.26-4.18,9.27-7.52,9.27-7.52l.64.61,3.3,3.08,1.34,1.24,1.76,1.62.39.35c1.55,1.36,4.93-1.2,4.93-1.2S243.87,341.58,240.34,349.86Z" />
  <path class="GUNDAN_OWL_JEWELRY_GUNDAN_OWL_JEWELRY_5_cls-3" d="M228,332.39a17.08,17.08,0,0,0-8.78,10.55,20.52,20.52,0,0,0-3.49-.31,12.58,12.58,0,0,0,2.36-3.33c2.26-4.18,9.27-7.52,9.27-7.52Z" />
  <path class="GUNDAN_OWL_JEWELRY_GUNDAN_OWL_JEWELRY_5_cls-3" d="M240.34,349.86a4.35,4.35,0,0,0-.47,2.13,13.15,13.15,0,0,0-1.52-1.58c-1.94-1.68-4.86-2.94-10.27-2a23.4,23.4,0,0,0,6.29-10l.39.35c.86.75,2.27.3,3.37-.25a11.4,11.4,0,0,0,1.56-.95S243.87,341.58,240.34,349.86Z" />
  <path class="GUNDAN_OWL_JEWELRY_GUNDAN_OWL_JEWELRY_5_cls-5" d="M224.23,331.05c-6.61,3.67-10.26,8.47-10.2,10.76a3.06,3.06,0,0,0-2-1.07,4.69,4.69,0,0,0-1.89.17,5,5,0,0,0,.34-1.37C210.84,337.07,213.26,331.53,224.23,331.05Z" />
  <path class="GUNDAN_OWL_JEWELRY_GUNDAN_OWL_JEWELRY_5_cls-2" d="M224.23,331.05c-9.63,2.41-11.72,7.34-12.16,9.69a4.69,4.69,0,0,0-1.89.17,5,5,0,0,0,.34-1.37C210.84,337.07,213.26,331.53,224.23,331.05Z" />
  <path class="GUNDAN_OWL_JEWELRY_GUNDAN_OWL_JEWELRY_5_cls-2" d="M232.61,336.71A27.29,27.29,0,0,1,227.14,347a9.52,9.52,0,0,0-3-2.43,37.55,37.55,0,0,0,7.11-9.1Z" />
  <path class="GUNDAN_OWL_JEWELRY_GUNDAN_OWL_JEWELRY_5_cls-5" d="M282.21,336.91c-.36.78-1,1.16-1.53.28a4.64,4.64,0,0,1-.49-1.34c-.58-2.41-3.57-7.67-14.53-7,7,2.95,11.1,7.34,11.28,9.62.11,1.38-.49,1.77-1.58,1a12.59,12.59,0,0,1-2.69-3.05c-2.69-3.93-10-6.5-10-6.5S257.4,336,256,337.55s-5-.67-5-.67-3.72,4.52.66,12.38a4.44,4.44,0,0,1,.7,2.07c0,.68-.36,1.05-1,1a2.66,2.66,0,0,1-1.1-.35,2.76,2.76,0,0,1-.84-.79,11.45,11.45,0,0,1-1-1.54c-.5-.89-1-1.92-1.39-2.89-.8-1.86-1.37-3.5-1.37-3.5h0s-.4,1.69-1,3.63c-.32,1-.69,2.08-1.08,3a12.32,12.32,0,0,1-.82,1.63,3.11,3.11,0,0,1-.75.88,2.6,2.6,0,0,1-1.06.46,1.06,1.06,0,0,1-.48,0,1,1,0,0,1-.59-.89,4.35,4.35,0,0,1,.47-2.13c3.53-8.28-.65-12.38-.65-12.38a11.4,11.4,0,0,1-1.56.95c-1.1.55-2.51,1-3.37.25-1.56-1.37-7.43-6.9-7.43-6.9s-7,3.34-9.27,7.52a12.58,12.58,0,0,1-2.36,3.33h0c-1,.88-1.63.55-1.66-.82-.06-2.29,3.59-7.09,10.2-10.76-11,.48-13.39,6-13.71,8.49a5,5,0,0,1-.34,1.37h0c-.25.52-.57.65-.88.55a1.52,1.52,0,0,1-.68-.66,10.64,10.64,0,0,1,3.09-8.13c4.65-4.55,13-4.9,14.9-4.23s7.19,5.88,9.51,7.2a3.9,3.9,0,0,0,.42.2,2,2,0,0,0,1,.08c2.12-.34,5.07-3.08,5.07-3.08h0a4.86,4.86,0,0,0,2.47.42h0a4.8,4.8,0,0,0,2.41-.68h0s4.47,3.35,6.38,2.34,7.25-7.54,9.1-8.41,10.16-1.39,15.26,2.64A10.66,10.66,0,0,1,282.21,336.91Z" />
  <path class="GUNDAN_OWL_JEWELRY_GUNDAN_OWL_JEWELRY_5_cls-2" d="M245.09,332.58l0,.68.14,2.62c-2.07.11-3.07-1.47-3.34.18s.29,1.09,1.21,6.33-2.49,10.23-2.49,10.23l-.19.26a1,1,0,0,1-.59-.89,4.35,4.35,0,0,1,.47-2.13c3.53-8.28-.65-12.38-.65-12.38a11.4,11.4,0,0,1-1.56.95,7.45,7.45,0,0,0-.36-.72l-.2-1.79c2.12-.34,5.07-3.08,5.07-3.08h0a2.91,2.91,0,0,1-1.57-2.39s-1.32-2.18-.6-3.2h.74s-.71,1.25.76,2.69C242.24,332.61,245.09,332.58,245.09,332.58Z" />
  <path class="GUNDAN_OWL_JEWELRY_GUNDAN_OWL_JEWELRY_5_cls-2" d="M245,332.59l0,.68.14,2.61c2.07-.11,2.89-1.78,3.34-.17s-.18,1.12-.54,6.43,3.55,9.9,3.55,9.9l.23.24a.93.93,0,0,0,.48-.94,4.36,4.36,0,0,0-.69-2.08c-4.38-7.85-.66-12.37-.66-12.37a11.93,11.93,0,0,0,1.66.78,5.93,5.93,0,0,1,.28-.76v-1.8c-2.14-.11-5.36-2.52-5.36-2.52h0a2.91,2.91,0,0,0,1.31-2.54s1.09-2.31.26-3.24l-.74.08s.84,1.17-.47,2.75C247.84,332.31,245,332.59,245,332.59Z" />
  <path class="GUNDAN_OWL_JEWELRY_GUNDAN_OWL_JEWELRY_5_cls-6" d="M236.43,336.19a41.94,41.94,0,0,1-7.75-5c-2.56-2.26-3.7-1.77-3.7-1.77-3.86-.25-10.46,1.57-13.1,4.76a11.42,11.42,0,0,0-2.37,7.27l-.21,0a1.52,1.52,0,0,1-.68-.66,10.64,10.64,0,0,1,3.09-8.13c4.65-4.55,13-4.9,14.9-4.23s7.19,5.88,9.51,7.2C236.37,336,236.49,336.2,236.43,336.19Z" />
  <path class="GUNDAN_OWL_JEWELRY_GUNDAN_OWL_JEWELRY_5_cls-3" d="M262.08,330.59a17.08,17.08,0,0,1,9.84,9.57,19.89,19.89,0,0,1,3.44-.69,12.78,12.78,0,0,1-2.7-3.05c-2.69-3.93-10-6.5-10-6.5Z" />
  <path class="GUNDAN_OWL_JEWELRY_GUNDAN_OWL_JEWELRY_5_cls-3" d="M251.61,349.26a4.36,4.36,0,0,1,.7,2.07c1.67-2.49,4.24-5.26,11.34-4.84a23.38,23.38,0,0,1-7.31-9.32l-.35.39c-1.4,1.52-5-.68-5-.68S247.23,341.4,251.61,349.26Z" />
  <path class="GUNDAN_OWL_JEWELRY_GUNDAN_OWL_JEWELRY_5_cls-2" d="M265.66,328.86c9.82,1.39,12.42,6.06,13.11,8.36a4.64,4.64,0,0,1,1.89,0,4.78,4.78,0,0,1-.48-1.33C279.6,333.44,276.61,328.18,265.66,328.86Z" />
  <path class="GUNDAN_OWL_JEWELRY_GUNDAN_OWL_JEWELRY_5_cls-2" d="M257.92,335.37a27.29,27.29,0,0,0,6.52,9.66,9.53,9.53,0,0,1,2.71-2.73,37.57,37.57,0,0,1-8-8.31C258.71,334.47,258.31,334.94,257.92,335.37Z" />
  <path class="GUNDAN_OWL_JEWELRY_GUNDAN_OWL_JEWELRY_5_cls-6" d="M254.06,335.26a41.76,41.76,0,0,0,7.18-5.83c2.31-2.51,3.49-2.14,3.49-2.14,3.81-.66,10.57.46,13.53,3.35a11.42,11.42,0,0,1,3.12,7l.22,0a1.51,1.51,0,0,0,.6-.73,10.64,10.64,0,0,0-3.92-7.75c-5.11-4-13.41-3.52-15.27-2.65s-6.53,6.61-8.7,8.16C254.11,335.05,254,335.27,254.06,335.26Z" />
  <path class="GUNDAN_OWL_JEWELRY_GUNDAN_OWL_JEWELRY_5_cls-7" d="M210.18,340.91c-.45.94-1.12.63-1.56-.11a10.64,10.64,0,0,1,3.09-8.13c4.65-4.55,13-4.9,14.9-4.23s7.92,6.61,9.93,7.4,6.1-3,6.1-3" />
  <path class="GUNDAN_OWL_JEWELRY_GUNDAN_OWL_JEWELRY_5_cls-7" d="M215.69,342.63c-1,.88-1.63.55-1.66-.82-.06-2.29,3.59-7.09,10.2-10.76-11,.48-13.39,6-13.71,8.49a5,5,0,0,1-.34,1.37" />
  <path class="GUNDAN_OWL_JEWELRY_GUNDAN_OWL_JEWELRY_5_cls-7" d="M245.64,343.29s-.4,1.69-1,3.63c-.32,1-.69,2.08-1.08,3a12.32,12.32,0,0,1-.82,1.63,3.11,3.11,0,0,1-.75.88,2.6,2.6,0,0,1-1.06.46c-.61.09-1-.25-1.07-.92a4.35,4.35,0,0,1,.47-2.13c3.53-8.28-.65-12.38-.65-12.38s-3.38,2.56-4.93,1.2-7.43-6.9-7.43-6.9-7,3.34-9.27,7.52a12.58,12.58,0,0,1-2.36,3.33" />
  <path class="GUNDAN_OWL_JEWELRY_GUNDAN_OWL_JEWELRY_5_cls-7" d="M244.87,328.72l-1.58.24s-1-2.95-2.55-2c-1.28.82.33,3.47.33,3.47a2.91,2.91,0,0,0,1.57,2.39,4.86,4.86,0,0,0,2.47.42" />
  <path class="GUNDAN_OWL_JEWELRY_GUNDAN_OWL_JEWELRY_5_cls-7" d="M210.17,340.91h0c.2-.06,2.47-.76,3.85.9" />
  <path class="GUNDAN_OWL_JEWELRY_GUNDAN_OWL_JEWELRY_5_cls-7" d="M215.69,342.63h0c.29,0,9.43-.09,12.31,5.75,7.07-1.19,9.93,1.3,11.86,3.61l0,0" />
  <path class="GUNDAN_OWL_JEWELRY_GUNDAN_OWL_JEWELRY_5_cls-7" d="M245.82,346.69a4.12,4.12,0,0,0-1.17.23" />
  <path class="GUNDAN_OWL_JEWELRY_GUNDAN_OWL_JEWELRY_5_cls-7" d="M245.57,359.23c-2.47-.39-4.46-2.87-4.62-6,0-.11,0-.23,0-.35" />
  <path class="GUNDAN_OWL_JEWELRY_GUNDAN_OWL_JEWELRY_5_cls-7" d="M245.92,348.67a3.17,3.17,0,0,0-2.35,1.27" />
  <path class="GUNDAN_OWL_JEWELRY_GUNDAN_OWL_JEWELRY_5_cls-7" d="M242.75,351.57a5,5,0,0,0-.17,1.61,4.27,4.27,0,0,0,2.88,4" />
  <path class="GUNDAN_OWL_JEWELRY_GUNDAN_OWL_JEWELRY_5_cls-7" d="M245.66,343.29s.57,1.64,1.37,3.5c.42,1,.89,2,1.39,2.89a11.45,11.45,0,0,0,1,1.54,2.76,2.76,0,0,0,.84.79,2.66,2.66,0,0,0,1.1.35c.61,0,1-.35,1-1a4.44,4.44,0,0,0-.7-2.07c-4.38-7.86-.66-12.38-.66-12.38s3.63,2.2,5,.67,6.65-7.63,6.65-7.63,7.33,2.57,10,6.5a12.59,12.59,0,0,0,2.69,3.05c1.09.78,1.69.39,1.58-1-.18-2.28-4.32-6.67-11.28-9.62,11-.68,13.95,4.58,14.53,7a4.64,4.64,0,0,0,.49,1.34c.54.88,1.17.5,1.53-.28a10.66,10.66,0,0,0-3.93-7.76c-5.1-4-13.4-3.51-15.26-2.64s-7.18,7.41-9.1,8.41-6.38-2.34-6.38-2.34" />
  <path class="GUNDAN_OWL_JEWELRY_GUNDAN_OWL_JEWELRY_5_cls-7" d="M244.89,328.72l1.6.07s.71-3,2.32-2.24c1.36.68,0,3.49,0,3.49a2.91,2.91,0,0,1-1.31,2.54,4.8,4.8,0,0,1-2.41.68" />
  <path class="GUNDAN_OWL_JEWELRY_GUNDAN_OWL_JEWELRY_5_cls-7" d="M280.68,337.19s-2.49-.59-3.74,1.29" />
  <path class="GUNDAN_OWL_JEWELRY_GUNDAN_OWL_JEWELRY_5_cls-7" d="M275.36,339.47s-9.35.81-11.64,7c-7.15-.44-9.73,2.34-11.4,4.84l0,0" />
  <path class="GUNDAN_OWL_JEWELRY_GUNDAN_OWL_JEWELRY_5_cls-7" d="M245.84,346.69a4.75,4.75,0,0,1,1.19.1" />
  <path class="GUNDAN_OWL_JEWELRY_GUNDAN_OWL_JEWELRY_5_cls-7" d="M247.41,359.14c2.41-.65,4.12-3.33,4-6.43,0-.12,0-.23,0-.35" />
  <path class="GUNDAN_OWL_JEWELRY_GUNDAN_OWL_JEWELRY_5_cls-7" d="M245.94,348.66a3.23,3.23,0,0,1,2.48,1" />
  <path class="GUNDAN_OWL_JEWELRY_GUNDAN_OWL_JEWELRY_5_cls-7" d="M247.3,357.11a4.25,4.25,0,0,0,2.44-4.31,5.05,5.05,0,0,0-.33-1.58" />
  <path class="GUNDAN_OWL_JEWELRY_GUNDAN_OWL_JEWELRY_5_cls-7" d="M247.38,359.14l.26,4.81a.91.91,0,0,1-1.81.1l-.26-4.82-.1-2v0a.91.91,0,0,1,.86-.93.92.92,0,0,1,1,.83v0Z" />
  <polygon class="GUNDAN_OWL_JEWELRY_GUNDAN_OWL_JEWELRY_5_cls-8" points="253.27 370.9 256.46 371.53 255.95 373.55 255 377.28 253.54 371.88 253.27 370.9" />
  <polygon class="GUNDAN_OWL_JEWELRY_GUNDAN_OWL_JEWELRY_5_cls-8" points="254.24 396.33 254.24 396.36 259.55 390.15 258.16 390.22 253.84 394.7 254.24 396.33" />
  <polygon class="GUNDAN_OWL_JEWELRY_GUNDAN_OWL_JEWELRY_5_cls-9" points="253.01 393.99 253.27 391.8 250.6 393.03 253.01 393.99" />
  <polygon class="GUNDAN_OWL_JEWELRY_GUNDAN_OWL_JEWELRY_5_cls-8" points="255.02 386.06 254.31 390.51 255.82 390.05 257.42 389.56 256.67 387.54 255.35 383.99 255.02 386.06" />
  <polygon class="GUNDAN_OWL_JEWELRY_GUNDAN_OWL_JEWELRY_5_cls-10" points="253.94 387.44 254.76 382.3 254.59 379.02 253.24 374.05 252.33 370.69 248.21 369.29 246.36 369.39 242.41 371.21 241.04 379.74 241.22 383.02 243.47 391.35 247.6 392.75 249.44 392.65 253.4 390.83 253.94 387.44" />
  <polygon class="GUNDAN_OWL_JEWELRY_GUNDAN_OWL_JEWELRY_5_cls-9" points="240.19 379.8 238.41 375 239.1 388.01 240.37 383.04 240.19 379.8" />
  <polygon class="GUNDAN_OWL_JEWELRY_GUNDAN_OWL_JEWELRY_5_cls-10" points="255.61 382.24 257.39 387.04 256.7 374.03 255.44 379 255.61 382.24" />
  <polygon class="GUNDAN_OWL_JEWELRY_GUNDAN_OWL_JEWELRY_5_cls-9" points="241.86 368.65 239.26 371.35 241.63 370.62 241.86 368.65" />
  <polygon class="GUNDAN_OWL_JEWELRY_GUNDAN_OWL_JEWELRY_5_cls-9" points="251.62 367.58 249.32 368.79 252.1 369.73 251.62 367.58" />
  <polygon class="GUNDAN_OWL_JEWELRY_GUNDAN_OWL_JEWELRY_5_cls-9" points="242.53 370.24 245.21 369.01 242.79 368.05 242.53 370.24" />
  <polygon class="GUNDAN_OWL_JEWELRY_GUNDAN_OWL_JEWELRY_5_cls-10" points="251.79 364.66 242.31 365.17 242.48 365.83 242.77 367.03 251.53 366.56 251.79 364.66" />
  <polygon class="GUNDAN_OWL_JEWELRY_GUNDAN_OWL_JEWELRY_5_cls-10" points="241.56 365.67 236.11 371.9 237.65 371.82 241.97 367.34 241.56 365.67" />
  <polygon class="GUNDAN_OWL_JEWELRY_GUNDAN_OWL_JEWELRY_5_cls-9" points="257.13 370.79 258.67 370.71 252.59 365.09 252.4 366.55 252.36 366.79 257.13 370.79" />
  <rect class="GUNDAN_OWL_JEWELRY_GUNDAN_OWL_JEWELRY_5_cls-10" x="236.38" y="372.68" width="1.52" height="17.81" transform="translate(-19.81 13.05) rotate(-3.03)" />
  <rect class="GUNDAN_OWL_JEWELRY_GUNDAN_OWL_JEWELRY_5_cls-10" x="257.9" y="371.55" width="1.52" height="17.81" transform="translate(-19.72 14.19) rotate(-3.03)" />
  <polygon class="GUNDAN_OWL_JEWELRY_GUNDAN_OWL_JEWELRY_5_cls-8" points="238.39 372.49 240.45 378.05 241.5 371.53 238.39 372.49" />
  <polygon class="GUNDAN_OWL_JEWELRY_GUNDAN_OWL_JEWELRY_5_cls-8" points="248.15 368.47 250.05 367.47 244.34 367.77 246.33 368.57 248.15 368.47" />
  <polygon class="GUNDAN_OWL_JEWELRY_GUNDAN_OWL_JEWELRY_5_cls-9" points="256.54 390.69 254.18 391.42 254.01 392.78 253.94 393.39 256.54 390.69" />
  <polygon class="GUNDAN_OWL_JEWELRY_GUNDAN_OWL_JEWELRY_5_cls-8" points="239.34 390.51 240.88 390.81 242.53 391.13 240.81 384.76 239.34 390.51" />
  <polygon class="GUNDAN_OWL_JEWELRY_GUNDAN_OWL_JEWELRY_5_cls-8" points="252.8 368.92 253.04 370.02 255.48 370.49 255.03 370.12 252.6 368.09 252.8 368.92" />
  <polygon class="GUNDAN_OWL_JEWELRY_GUNDAN_OWL_JEWELRY_5_cls-9" points="244.19 394.46 246.49 393.25 243.7 392.31 244.19 394.46" />
  <polygon class="GUNDAN_OWL_JEWELRY_GUNDAN_OWL_JEWELRY_5_cls-8" points="244.27 395.48 244.11 396.7 244.02 397.38 253.49 396.88 253.04 395.01 244.27 395.48" />
  <polygon class="GUNDAN_OWL_JEWELRY_GUNDAN_OWL_JEWELRY_5_cls-9" points="243.43 395.35 243.44 395.25 238.67 391.25 237.28 391.32 243.22 396.94 243.43 395.35" />
  <polygon class="GUNDAN_OWL_JEWELRY_GUNDAN_OWL_JEWELRY_5_cls-8" points="247.65 393.57 245.75 394.57 251.47 394.27 249.47 393.48 247.65 393.57" />
  <polygon class="GUNDAN_OWL_JEWELRY_GUNDAN_OWL_JEWELRY_5_cls-9" points="243.01 393.12 242.76 392.02 240.33 391.55 240.69 391.85 243.2 393.95 243.01 393.12" />
  <path class="GUNDAN_OWL_JEWELRY_GUNDAN_OWL_JEWELRY_5_cls-11" d="M318,190.76a12.92,12.92,0,0,1-25.2-5.72,12.73,12.73,0,0,1,11.1-9.74,3.67,3.67,0,0,1,.33,2.18,11.33,11.33,0,0,0-8.77,8.21c-1.19,5.15,2.42,11.25,7.67,12.45s11.48-2.79,12.36-8c.62-3.7-.14-8.22-3.51-10.35,0,0,0-.07,0-.1l0-.12,2.17-.9a1.79,1.79,0,0,1,.15.14A12.53,12.53,0,0,1,318,190.76Z" />
  <path class="GUNDAN_OWL_JEWELRY_GUNDAN_OWL_JEWELRY_5_cls-12" d="M304,178.46a5.77,5.77,0,0,0,.21-1,3.67,3.67,0,0,0-.33-2.18,2.16,2.16,0,0,0-.77-.87" />
</svg>