<svg xmlns="http://www.w3.org/2000/svg" viewBox="0 0 432 432">
  <defs>
    <style>.GUNDAN_OTTER_BODY_GUNDAN_OTTER_BODY_20_cls-1{isolation:isolate;}.GUNDAN_OTTER_BODY_GUNDAN_OTTER_BODY_20_cls-2{fill:#443225;}.GUNDAN_OTTER_BODY_GUNDAN_OTTER_BODY_20_cls-3{fill:#373135;}.GUNDAN_OTTER_BODY_GUNDAN_OTTER_BODY_20_cls-4{fill:#c9a289;}.GUNDAN_OTTER_BODY_GUNDAN_OTTER_BODY_20_cls-5{fill:#975a0b;}.GUNDAN_OTTER_BODY_GUNDAN_OTTER_BODY_20_cls-6{fill:#fff;}.GUNDAN_OTTER_BODY_GUNDAN_OTTER_BODY_20_cls-10,.GUNDAN_OTTER_BODY_GUNDAN_OTTER_BODY_20_cls-11,.GUNDAN_OTTER_BODY_GUNDAN_OTTER_BODY_20_cls-7,.GUNDAN_OTTER_BODY_GUNDAN_OTTER_BODY_20_cls-9{fill:none;stroke:#000;stroke-linecap:round;stroke-linejoin:round;}.GUNDAN_OTTER_BODY_GUNDAN_OTTER_BODY_20_cls-7{stroke-width:1.64px;}.GUNDAN_OTTER_BODY_GUNDAN_OTTER_BODY_20_cls-8{fill:#bdffe4;}.GUNDAN_OTTER_BODY_GUNDAN_OTTER_BODY_20_cls-9{stroke-width:1.61px;}.GUNDAN_OTTER_BODY_GUNDAN_OTTER_BODY_20_cls-10{stroke-width:0.54px;}.GUNDAN_OTTER_BODY_GUNDAN_OTTER_BODY_20_cls-11{stroke-width:0.5px;}.GUNDAN_OTTER_BODY_GUNDAN_OTTER_BODY_20_cls-12{opacity:0.22;mix-blend-mode:multiply;}</style>
  </defs>
  <g class="GUNDAN_OTTER_BODY_GUNDAN_OTTER_BODY_20_cls-1">
    <g id="body">
      <path class="GUNDAN_OTTER_BODY_GUNDAN_OTTER_BODY_20_cls-2" d="M284.3,217.28c-1.57,28.83,3.73,49.51,10.72,78.64,8.06,16.66,19.47,22.25,29.08,31.57,14.7,14.25,16.93,37.34,23.81,57.67s12,41.25,16.51,62.41H304.59c-.83-19.39-2.59-49.51-5.88-66.14-5.13-25.87-12-68.51-12-68.51l-2.24,5.59-2.79-17c-2.78-17-.51-69-.51-69l-2.54,1.64,4.2-12.57Z" />
      <path d="M258.46,169.26a8.19,8.19,0,0,0,1.73,3.23c2.13-1.15,3.36-5.63,3.36-5.63S257.92,167.3,258.46,169.26Z" />
      <path d="M237.8,166.86s1.19,4.25,5,5.63a8.21,8.21,0,0,0,2.57-3.23C246.17,167.3,237.8,166.86,237.8,166.86Z" />
      <path class="GUNDAN_OTTER_BODY_GUNDAN_OTTER_BODY_20_cls-3" d="M263.73,163.33a5.9,5.9,0,0,1-.18,3.53s-5.63.44-5.09,2.4a8.19,8.19,0,0,0,1.73,3.23c0,.13-.07,3.5-7,3.5-10.29,0-10.39-3.37-10.39-3.5a8.21,8.21,0,0,0,2.57-3.23c.8-2-7.57-2.4-7.57-2.4a4.19,4.19,0,0,1-.24-3.57,6.38,6.38,0,0,1,.43-1.06c1.81-3.19,10.08-4.31,13.6-4.65a12.87,12.87,0,0,1,3.45.12c2.63.45,7.29,1.65,8.39,4.53A9.15,9.15,0,0,1,263.73,163.33Z" />
      <path class="GUNDAN_OTTER_BODY_GUNDAN_OTTER_BODY_20_cls-4" d="M272.9,171.58c-6-1.58-9-8.29-9-8.29l-.17,0a5.9,5.9,0,0,1-.18,3.53s-1.23,4.48-3.36,5.63c0,.13-.07,3.5-7,3.5-10.29,0-10.39-3.37-10.39-3.5-3.81-1.38-5-5.63-5-5.63a4.19,4.19,0,0,1-.24-3.57h0a25.19,25.19,0,0,1-15.46,8.29c-10.31,1.57-21.76,3-23.77,8.56l1,3.23c3.59,10.65,14.4,15,24.22,14.15,1.65,10.19,10.35,15.1,27.83,15.1s18.17-15.48,18.17-15.48c6.33,2,13.94-2.12,16.31-13.77l.93-3.23C285.57,174.55,278.9,173.15,272.9,171.58Z" />
      <path class="GUNDAN_OTTER_BODY_GUNDAN_OTTER_BODY_20_cls-4" d="M296.4,155.39a31.46,31.46,0,0,1,3.91,3.71l0,0a19.34,19.34,0,0,1,1.35,3.41l1.15,2.62a36.68,36.68,0,0,1,1,3.61h0a24.91,24.91,0,0,1,.5,4.19,29.09,29.09,0,0,1-.51,6.61A48.12,48.12,0,0,1,300.9,189c-1.22,11.7-7.86,21.67-16.6,28.31l-1.44,4.32-4.2,12.57,2.54-1.64s-2.27,52,.51,69l2.79,17,2.24-5.59s6.84,42.64,12,68.51c3.29,16.63,5.05,46.75,5.88,66.14H149.4c0-15.51,1.62-35.45,1.73-46.34.15-14.91,1.63-85.92,1.63-85.92l4.07,5.89s-2-30.64-1.73-45.32c0-2.85.23-6.39.5-10.25,1.12-16,3.69-37.52,3.69-37.52l2.1,5.71s-.06-5.69.33-14.56c.22-5.13.59-11.32,1.21-18.1.38-4.27.87-8.76,1.48-13.36,3.25-24.58,17.31-32.41,17.31-32.41s-1,2.91-1.92,7.27c6.55-13,18.46-12,22.75-10.73h0a9.28,9.28,0,0,0,6.27,3.37l.19,0,.2,0h.05c.5,2.7-1.44,4.43-6.24,7.05s-7.69,8.13-7.69,8.13l3-1.57c-1.75,2.44-2.18,5.76,0,11.18l1,3.23c3.59,10.65,14.4,15,24.22,14.15,1.65,10.19,10.35,15.1,27.83,15.1s18.17-15.48,18.17-15.48c6.33,2,13.94-2.12,16.31-13.77l.93-3.23c1.27-5.42,1-8.74,0-11.18l1.72,1.56c-.08-.29-1.75-5.57-4.47-8.12s-3.93-4.35-3.63-7.05a4.51,4.51,0,0,0,2.72-1.73,9.62,9.62,0,0,0,1.41-1.79c2.67-1.19,9.33-1.82,13,10.83C297,158.3,296.4,155.39,296.4,155.39Z" />
      <path class="GUNDAN_OTTER_BODY_GUNDAN_OTTER_BODY_20_cls-4" d="M291.61,140.56c-1.69-4.9-14.51-10.23-16.26-4.63a107.89,107.89,0,0,1-4.85,12c.26-.27,4.42-4.57,6.37-6.67s7.05.67,10.34,4.93h0S293.29,145.45,291.61,140.56Z" />
      <path class="GUNDAN_OTTER_BODY_GUNDAN_OTTER_BODY_20_cls-4" d="M192.9,140.56c-2.27,4.89,5.89,5.68,5.89,5.68,4.46-4.26,11.28-7.11,14-4.93S221.4,148,221.4,148a93.25,93.25,0,0,1-6.57-12.06C212.48,130.33,195.17,135.66,192.9,140.56Z" />
      <path class="GUNDAN_OTTER_BODY_GUNDAN_OTTER_BODY_20_cls-5" d="M304,139.38c-1.17-7.82-5.07-6.56-7.64-2.4.91,1.09,1.07,4.93,1.07,4.93l1.1-1.15-.25,10.33,1.38-2.54L299.4,157l2.28-.27-1.37,2.38,0,0a19.34,19.34,0,0,1,1.35,3.41C303.43,155.62,305,146,304,139.38Z" />
      <path class="GUNDAN_OTTER_BODY_GUNDAN_OTTER_BODY_20_cls-5" d="M149.13,139.38c-2.06,6.57,1.12,16.24,4.84,23.16a16.33,16.33,0,0,1,2.8-3.41l-2.88-2.41,4.72.27-.48-8.44,2.88,2.54-.52-10.33,2.27,1.15s.35-3.84,2.23-4.93C159.66,132.82,151.57,131.56,149.13,139.38Z" />
      <path class="GUNDAN_OTTER_BODY_GUNDAN_OTTER_BODY_20_cls-6" d="M198.79,146.24a34.42,34.42,0,0,0,3.76,5.69h0a11.17,11.17,0,0,0,6.46,3.39l.2,0h.05c.33,0,.67,0,1,0,6,0,6.92-5.52,11.09-7.4,0,0-5.91-4.51-8.62-6.68S203.25,142,198.79,146.24Z" />
      <path class="GUNDAN_OTTER_BODY_GUNDAN_OTTER_BODY_20_cls-6" d="M276.87,141.31c-1.95,2.1-6.11,6.4-6.37,6.67h0c3.08,1.88,3.76,7.4,8.2,7.4a5.9,5.9,0,0,0,4.39-1.77,9.49,9.49,0,0,0,1.19-1.69l.22-.1a37,37,0,0,0,2.72-5.59C283.92,142,278.87,139.13,276.87,141.31Z" />
      <path class="GUNDAN_OTTER_BODY_GUNDAN_OTTER_BODY_20_cls-2" d="M154,162.54a16.33,16.33,0,0,1,2.8-3.41l-2.88-2.41,4.72.27-.48-8.44,2.88,2.54-.52-10.33,2.27,1.15s.35-3.84,2.23-4.93c-5.33-4.16-13.42-5.42-15.86,2.4C147.07,146,150.25,155.62,154,162.54Zm-1.21,33.09c-.07.1-.48.78-3.14,5.1,1.52-9.67,5.59-28.77,5.59-28.77a83.7,83.7,0,0,1-9.08-18c-3.15-9.32-5-16.13,3.61-21.14s14.09-5.07,19.92-10.31,9.84-9.15,12.64-10.49l-4.66.35s18.58-8.27,24.12-9.09a107.72,107.72,0,0,1,12.87-.81s20.48-.38,23.45,0c7.77-.58,21,2.13,25.86,3.09l4.63.78-2.62.7s13.11,6.64,18.35,10.49,7.08,5.07,7.34,5.24a15.86,15.86,0,0,0,6.82,3.67c4.45,1.22,11.44,9.35,10.48,17.91,0,0-2.39,18.27-5.19,24.37a36.68,36.68,0,0,0-1-3.61l-1.15-2.62c1.79-6.92,3.32-16.59,2.33-23.16-1.17-7.82-5.07-6.56-7.64-2.4.91,1.09,1.07,4.93,1.07,4.93l1.1-1.15-.25,10.33,1.38-2.54L299.4,157l2.28-.27-1.37,2.38a31.46,31.46,0,0,0-3.91-3.71s.56,2.91,1.12,7.27c-3.7-12.65-10.36-12-13-10.83a37,37,0,0,0,2.72-5.59h0s6.05-.79,4.37-5.68-14.51-10.23-16.26-4.63a107.89,107.89,0,0,1-4.85,12h0c3.08,1.88,3.76,7.4,8.2,7.4a5.9,5.9,0,0,0,4.39-1.77,4.51,4.51,0,0,1-2.72,1.73c-.3,2.7.83,4.43,3.63,7.05s4.39,7.83,4.47,8.12L286.74,169c1,2.44,1.27,5.76,0,11.18-1.17-5.59-7.84-7-13.84-8.56s-9-8.29-9-8.29l-.17,0a9.15,9.15,0,0,0-.3-1.1c-1.1-2.88-5.76-4.08-8.39-4.53a12.87,12.87,0,0,0-3.45-.12c-3.52.34-11.79,1.46-13.6,4.65a6.38,6.38,0,0,0-.43,1.06h0a25.19,25.19,0,0,1-15.46,8.29c-10.31,1.57-21.76,3-23.77,8.56-2.18-5.42-1.75-8.74,0-11.18l-3,1.57s2.88-5.51,7.69-8.13,6.74-4.35,6.24-7.05c.33,0,.67,0,1,0,6,0,6.92-5.52,11.09-7.4a93.25,93.25,0,0,1-6.57-12.06c-2.35-5.6-19.66-.27-21.93,4.63s5.89,5.68,5.89,5.68a34.42,34.42,0,0,0,3.76,5.69c-4.29-1.24-16.2-2.28-22.75,10.73,1-4.36,1.92-7.27,1.92-7.27s-14.06,7.83-17.31,32.41c-.61,4.6-1.1,9.09-1.48,13.36-.62,6.78-1,13-1.21,18.1-.39,8.87-.33,14.56-.33,14.56l-2.1-5.71s-2.57,21.49-3.69,37.52c-.27,3.86-.46,7.4-.5,10.25-.24,14.68,1.73,45.32,1.73,45.32l-4.07-5.89s-1.48,71-1.63,85.92c-.11,10.89-1.75,30.83-1.73,46.34H56.73c5-21.16,10.73-42.09,18.41-62.41s10.16-43.42,26.56-57.67c10.72-9.32,23.44-14.91,32.43-31.57,2.79-10.26,6.87-40.78,9.9-59.3C147,218.38,152.59,196.31,152.76,195.63Z" />
      <path class="GUNDAN_OTTER_BODY_GUNDAN_OTTER_BODY_20_cls-7" d="M303.75,168.77c2.8-6.1,5.19-24.37,5.19-24.37,1-8.56-6-16.69-10.48-17.91a15.86,15.86,0,0,1-6.82-3.67c-.26-.17-2.1-1.4-7.34-5.24S266,107.09,266,107.09l2.62-.7-4.63-.78c-4.89-1-18.09-3.67-25.86-3.09-3-.38-23.45,0-23.45,0a107.72,107.72,0,0,0-12.87.81c-5.54.82-24.12,9.09-24.12,9.09l4.66-.35c-2.8,1.34-6.81,5.25-12.64,10.49s-11.36,5.3-19.92,10.31S143,144.69,146.13,154a83.7,83.7,0,0,0,9.08,18" />
      <path class="GUNDAN_OTTER_BODY_GUNDAN_OTTER_BODY_20_cls-7" d="M301.64,162.54s1.15,2.74,1.15,2.68" />
      <path class="GUNDAN_OTTER_BODY_GUNDAN_OTTER_BODY_20_cls-7" d="M134.13,295.92c2.79-10.26,6.87-40.78,9.9-59.3,3-18.24,8.56-40.31,8.73-41" />
      <path class="GUNDAN_OTTER_BODY_GUNDAN_OTTER_BODY_20_cls-7" d="M152.77,195.61h0c-.07.1-.48.78-3.14,5.1,1.52-9.67,5.59-28.77,5.59-28.77" />
      <path class="GUNDAN_OTTER_BODY_GUNDAN_OTTER_BODY_20_cls-7" d="M302.79,165.16a36.68,36.68,0,0,1,1,3.61h0a24.91,24.91,0,0,1,.5,4.19,29.09,29.09,0,0,1-.51,6.61A48.12,48.12,0,0,1,300.9,189c-1.22,11.7-7.86,21.67-16.6,28.31-1.57,28.83,3.73,49.51,10.72,78.64" />
      <path class="GUNDAN_OTTER_BODY_GUNDAN_OTTER_BODY_20_cls-7" d="M209.28,155.35c.33,0,.67,0,1,0,6,0,6.92-5.52,11.09-7.4,0,0-5.91-4.51-8.62-6.68s-9.53.67-14,4.93a34.42,34.42,0,0,0,3.76,5.69" />
      <path class="GUNDAN_OTTER_BODY_GUNDAN_OTTER_BODY_20_cls-7" d="M202.57,151.94a9.28,9.28,0,0,0,6.27,3.37" />
      <path class="GUNDAN_OTTER_BODY_GUNDAN_OTTER_BODY_20_cls-7" d="M270.5,148c.26-.27,4.42-4.57,6.37-6.67s7.05.67,10.34,4.93a37,37,0,0,1-2.72,5.59,9.62,9.62,0,0,1-1.41,1.79,5.9,5.9,0,0,1-4.39,1.77c-4.44,0-5.12-5.52-8.2-7.4" />
      <path class="GUNDAN_OTTER_BODY_GUNDAN_OTTER_BODY_20_cls-7" d="M263.55,166.86a5.9,5.9,0,0,0,.18-3.53,9.15,9.15,0,0,0-.3-1.1c-1.1-2.88-5.76-4.08-8.39-4.53a12.87,12.87,0,0,0-3.45-.12c-3.52.34-11.79,1.46-13.6,4.65a6.38,6.38,0,0,0-.43,1.06,4.19,4.19,0,0,0,.24,3.57s8.37.44,7.57,2.4a8.21,8.21,0,0,1-2.57,3.23c0,.13.1,3.5,10.39,3.5,6.93,0,7-3.37,7-3.5a8.19,8.19,0,0,1-1.73-3.23C257.92,167.3,263.55,166.86,263.55,166.86Z" />
      <path class="GUNDAN_OTTER_BODY_GUNDAN_OTTER_BODY_20_cls-7" d="M253.19,187.79s-8.38-.22-19.22,6.42a24.08,24.08,0,0,1-10.47,3.31c-9.82.88-20.63-3.5-24.22-14.15l-1-3.23" />
      <path class="GUNDAN_OTTER_BODY_GUNDAN_OTTER_BODY_20_cls-7" d="M253.19,176a32.7,32.7,0,0,1,0,11.8s5.08-.22,11.63,6.42a11.53,11.53,0,0,0,4.68,2.93c6.33,2,13.94-2.12,16.31-13.77l.93-3.23" />
      <path class="GUNDAN_OTTER_BODY_GUNDAN_OTTER_BODY_20_cls-7" d="M269.5,197.14s-.69,15.48-18.17,15.48-26.18-4.91-27.83-15.1" />
      <path class="GUNDAN_OTTER_BODY_GUNDAN_OTTER_BODY_20_cls-7" d="M221.4,148a93.25,93.25,0,0,1-6.57-12.06c-2.35-5.6-19.66-.27-21.93,4.63s5.89,5.68,5.89,5.68" />
      <path class="GUNDAN_OTTER_BODY_GUNDAN_OTTER_BODY_20_cls-7" d="M270.49,148h0a107.89,107.89,0,0,0,4.85-12c1.75-5.6,14.57-.27,16.26,4.63s-4.37,5.68-4.37,5.68" />
      <path class="GUNDAN_OTTER_BODY_GUNDAN_OTTER_BODY_20_cls-7" d="M154,162.54a16.33,16.33,0,0,1,2.8-3.41l-2.88-2.41,4.72.27-.48-8.44,2.88,2.54-.52-10.33,2.27,1.15s.35-3.84,2.23-4.93c-5.33-4.16-13.42-5.42-15.86,2.4C147.07,146,150.25,155.62,154,162.54Z" />
      <path class="GUNDAN_OTTER_BODY_GUNDAN_OTTER_BODY_20_cls-7" d="M156.47,163.49l-1.79.33-1.75.33s.44-.71,1-1.61" />
      <path class="GUNDAN_OTTER_BODY_GUNDAN_OTTER_BODY_20_cls-7" d="M301.64,162.54a19.34,19.34,0,0,0-1.35-3.41l0,0,1.37-2.38-2.28.27.23-8.44-1.38,2.54.25-10.33-1.1,1.15s-.16-3.84-1.07-4.93c2.57-4.16,6.47-5.42,7.64,2.4C305,146,303.43,155.62,301.64,162.54Z" />
      <path class="GUNDAN_OTTER_BODY_GUNDAN_OTTER_BODY_20_cls-7" d="M237.8,166.86s1.19,4.25,5,5.63" />
      <path class="GUNDAN_OTTER_BODY_GUNDAN_OTTER_BODY_20_cls-7" d="M263.55,166.86s-1.23,4.48-3.36,5.63" />
      <path class="GUNDAN_OTTER_BODY_GUNDAN_OTTER_BODY_20_cls-7" d="M149.4,447.57c0-15.51,1.62-35.45,1.73-46.34.15-14.91,1.63-85.92,1.63-85.92l4.07,5.89s-2-30.64-1.73-45.32c0-2.85.23-6.39.5-10.25,1.12-16,3.69-37.52,3.69-37.52l2.1,5.71s-.06-5.69.33-14.56c.22-5.13.59-11.32,1.21-18.1.38-4.27.87-8.76,1.48-13.36,3.25-24.58,17.31-32.41,17.31-32.41s-1,2.91-1.92,7.27c6.55-13,18.46-12,22.75-10.73h0a10.85,10.85,0,0,0,1,.87c.16.14.32.26.47.38.32.24.63.45.94.64l.45.26.39.21a11.4,11.4,0,0,0,1.55.64,8.28,8.28,0,0,0,.93.25,4.75,4.75,0,0,0,.59.12l.19,0,.2,0h.05c.5,2.7-1.44,4.43-6.24,7.05s-7.69,8.13-7.69,8.13l3-1.57c-1.75,2.44-2.18,5.76,0,11.18,2-5.59,13.46-7,23.77-8.56a25.19,25.19,0,0,0,15.46-8.29" />
      <path class="GUNDAN_OTTER_BODY_GUNDAN_OTTER_BODY_20_cls-7" d="M288.46,170.52c-.08-.29-1.75-5.57-4.47-8.12s-3.93-4.35-3.63-7.05a4.51,4.51,0,0,0,2.72-1.73,9.49,9.49,0,0,0,1.19-1.69l.22-.1c2.67-1.19,9.33-1.82,13,10.83-.56-4.36-1.12-7.27-1.12-7.27a31.46,31.46,0,0,1,3.91,3.71" />
      <path class="GUNDAN_OTTER_BODY_GUNDAN_OTTER_BODY_20_cls-7" d="M288.47,170.53h0L286.74,169c1,2.44,1.27,5.76,0,11.18-1.17-5.59-7.84-7-13.84-8.56s-9-8.29-9-8.29" />
      <path class="GUNDAN_OTTER_BODY_GUNDAN_OTTER_BODY_20_cls-7" d="M295,295.92c8.06,16.66,19.47,22.25,29.08,31.57,14.7,14.25,16.93,37.34,23.81,57.67s12,41.25,16.51,62.41H56.73c5-21.16,10.73-42.09,18.41-62.41s10.16-43.42,26.56-57.67c10.72-9.32,23.44-14.91,32.43-31.57" />
      <path class="GUNDAN_OTTER_BODY_GUNDAN_OTTER_BODY_20_cls-7" d="M125.85,389q-1.91,12.54-3.8,25.07-1.06,7.05-2.14,14.1a145.71,145.71,0,0,0-2,19.39" />
      <path class="GUNDAN_OTTER_BODY_GUNDAN_OTTER_BODY_20_cls-7" d="M118.48,447.57a253,253,0,0,1,13.67-46.46" />
      <path class="GUNDAN_OTTER_BODY_GUNDAN_OTTER_BODY_20_cls-7" d="M326.08,447.57q-.15-29.86-.28-59.73" />
      <path class="GUNDAN_OTTER_BODY_GUNDAN_OTTER_BODY_20_cls-7" d="M334.2,409.48q-3.63,19-7.28,38.09" />
      <path class="GUNDAN_OTTER_BODY_GUNDAN_OTTER_BODY_20_cls-7" d="M304.59,447.57c-.83-19.39-2.59-49.51-5.88-66.14-5.13-25.87-12-68.51-12-68.51l-2.24,5.59-2.79-17c-2.78-17-.51-69-.51-69l-2.54,1.64,4.2-12.57,1.44-4.32" />
      <path class="GUNDAN_OTTER_BODY_GUNDAN_OTTER_BODY_20_cls-8" d="M208.73,143.23a4.74,4.74,0,1,0,4.74,4.74A4.74,4.74,0,0,0,208.73,143.23Z" />
      <circle cx="208.73" cy="147.97" r="2.29" />
      <circle class="GUNDAN_OTTER_BODY_GUNDAN_OTTER_BODY_20_cls-6" cx="207.48" cy="145.94" r="1.04" />
      <circle class="GUNDAN_OTTER_BODY_GUNDAN_OTTER_BODY_20_cls-9" cx="208.73" cy="147.97" r="4.74" />
      <path class="GUNDAN_OTTER_BODY_GUNDAN_OTTER_BODY_20_cls-8" d="M277.76,143.23a4.74,4.74,0,1,0,4.73,4.74A4.74,4.74,0,0,0,277.76,143.23Z" />
      <circle cx="277.76" cy="147.97" r="2.29" />
      <circle class="GUNDAN_OTTER_BODY_GUNDAN_OTTER_BODY_20_cls-6" cx="276.51" cy="145.94" r="1.04" />
      <circle class="GUNDAN_OTTER_BODY_GUNDAN_OTTER_BODY_20_cls-9" cx="277.76" cy="147.97" r="4.74" />
      <path class="GUNDAN_OTTER_BODY_GUNDAN_OTTER_BODY_20_cls-10" d="M227,183.54S194,226,197.1,271.27" />
      <path class="GUNDAN_OTTER_BODY_GUNDAN_OTTER_BODY_20_cls-10" d="M220.51,180.14S187,225,185.91,274.94" />
      <path class="GUNDAN_OTTER_BODY_GUNDAN_OTTER_BODY_20_cls-10" d="M210.9,177.08S193,177.6,155.21,207" />
      <path class="GUNDAN_OTTER_BODY_GUNDAN_OTTER_BODY_20_cls-10" d="M208.24,181.45s-31.48,14.29-59.76,54.77" />
      <path class="GUNDAN_OTTER_BODY_GUNDAN_OTTER_BODY_20_cls-10" d="M214.22,180.14S168,227.41,149.62,280.71" />
      <path class="GUNDAN_OTTER_BODY_GUNDAN_OTTER_BODY_20_cls-11" d="M265,183.54s28,42.47,25.35,87.73" />
      <path class="GUNDAN_OTTER_BODY_GUNDAN_OTTER_BODY_20_cls-11" d="M270.51,180.14S299,225,299.85,274.94" />
      <path class="GUNDAN_OTTER_BODY_GUNDAN_OTTER_BODY_20_cls-11" d="M278.66,177.08s15.17.52,47.23,29.88" />
      <path class="GUNDAN_OTTER_BODY_GUNDAN_OTTER_BODY_20_cls-11" d="M280.92,181.45s26.7,14.29,50.68,54.77" />
      <path class="GUNDAN_OTTER_BODY_GUNDAN_OTTER_BODY_20_cls-11" d="M275.84,180.14s39.18,47.27,54.8,100.57" />
      <g class="GUNDAN_OTTER_BODY_GUNDAN_OTTER_BODY_20_cls-12">
        <path d="M164.11,136.34s-5.68-4.08-10.77-2.08-8.1,2.19-9.39,5.24,1.79,15.31,5.67,23,5.59,9.42,5.59,9.42,2.55-6.53-.13-8.22l-1.41-.51,3.1-4.1-1.56-2.06,3.36-.74-.14-7.43,2.55,1.66-.28-9.39,2.49.61Z" />
        <path d="M155.21,167.64a76.9,76.9,0,0,1,2,11c.35,4.66,0,13.43,0,13.43l1.87-3.14s-2.56,12.55-4.78,26.88.59,36.88.8,45.9,10.21,39.5,17.55,55.92,58.58,62,58.58,62S191.12,353.29,164.14,328c-26.89-27.55-30-31.81-30-31.81s5-30.46,7.92-47,9.78-52.05,9.78-52.05l-2.21,2,5.59-26.61-1.15-4.63Z" />
        <path d="M267.39,204.15s-5.85,11.1-17.32,13.25-28.62-4.85-34.07-7.47c11.59,3.76,17.95,3.87,25.69,2.07,7.22,1.08,15.74,1,18.3-1S266.15,207,267.39,204.15Z" />
        <path d="M253.68,180.46s-9,3-24.39,3.23-21.26-16.1-32.4-14c-8,1.31-11.5,4-11.5,4l4.43-1.21s-14.54,7.55-20.28,13.85-5.43,9.29-5.43,9.29-2.14,26.88-2.72,38.19l-1.45-4s-4.27,21.08-5.43,52.77c1.17,26.56,3,38.57,3,38.57s38.64,34.07,52,43.65,23.08,15.57,23.08,15.57-9.53-94.29-2.07-125.75,19.59-37.27,19.59-37.27l11.8-7.81s6.63-3,7.63-12c-3-2-6.4-5.2-8.51-6.72s-7.29-3.13-7.29-3.13l-.16-2.66Z" />
        <path d="M303.74,179.58A48.12,48.12,0,0,1,300.9,189a38.45,38.45,0,0,1-5.2,15.58C282.38,220.73,261,210.5,261,210.5l-9,2.1c-2,0-4.22-.23-6.21-.44L243,209.6s-4.8-3-5.52-12c2.2-2,4.63-5.2,6.16-6.71a16,16,0,0,1,3.56-2.32c1-.49,1.71-.81,1.71-.81l.11-2.67-.07-3.46,4.69-1.2s7.39,3.13,12.91,3.24c6.5.12,10.65-5.38,14.57-9.56,1.93-2,3.8-3.78,5.87-4.38a3.45,3.45,0,0,1,.46-.12c.21,0,.42-.07.64-.09a5.61,5.61,0,0,1,1.89.17c5.78,1.3,8.31,4,8.31,4l-3.19-1.2A98.31,98.31,0,0,1,303.74,179.58Z" />
        <path d="M252.41,212.61l-1.31.21.94-.22Z" />
        <path d="M296.33,136s2.79-3.43,5.87-1.49,3.65,5.8,4.06,8.71-2.52,20.06-2.52,20.06l-.59,3.06s-1.47-3.41-2.84-6a15.27,15.27,0,0,0-2.52-3.74l-1.39-1.17,2.84,1.77s.61-5.86-.08-7.34-.83-1.85-.83-1.85l.13-6.19-1.58-1.23Z" />
        <path d="M195.06,145.26c.37.15,3.52-1.56,7.8-4.71s7.59-6.54,18.3,6.69c-3.72-2.29-8.73-6.68-11.06-6.69s-8.4,4.58-9.86,5.13l-1.45.56Z" />
        <path d="M290.31,145.26c-.28.15-2.66-1.56-5.89-4.71s-5.71-6.54-13.79,6.69c2.8-2.29,6.58-6.68,8.34-6.69s6.34,4.58,7.43,5.13l1.1.56Z" />
        <path d="M216.92,351.14l15.63,29.28s-3.05,53.84-14.46,67.15H56.73s7.45-32.26,15.38-52.46c7-21.93,9-29.67,13.19-41.48s7.55-21.19,25.28-33.07,20.71-19.78,23.55-24.36a14.71,14.71,0,0,1,6.86-6Z" />
      </g>
    </g>
  </g>
</svg>