<svg id="jewelry" xmlns="http://www.w3.org/2000/svg" viewBox="0 0 432 432">
  <defs>
    <style>.GUNDAN_FROG_JEWELRY_FROG_JEWELRY_7_cls-1{fill:#84442d;}.GUNDAN_FROG_JEWELRY_FROG_JEWELRY_7_cls-2{fill:#009d61;stroke-miterlimit:10;stroke-width:1.14px;}.GUNDAN_FROG_JEWELRY_FROG_JEWELRY_7_cls-2,.GUNDAN_FROG_JEWELRY_FROG_JEWELRY_7_cls-3{stroke:#000;}.GUNDAN_FROG_JEWELRY_FROG_JEWELRY_7_cls-3{fill:none;stroke-linecap:round;stroke-linejoin:round;stroke-width:1.04px;}</style>
  </defs>
  <path class="GUNDAN_FROG_JEWELRY_FROG_JEWELRY_7_cls-1" d="M145.16,181.17l-.11,0a.51.51,0,0,1-.45-.54l.11-1.45a7.46,7.46,0,0,1-.8-.26c-.15-.05-.31-.12-.47-.19h0l-.82,1.19a.51.51,0,0,1-.43.22.55.55,0,0,1-.3-.09L140.35,179a.53.53,0,0,1-.14-.73l.82-1.18a8.6,8.6,0,0,1-.89-1l-1.3.62a.59.59,0,0,1-.23.05l-.17,0a.53.53,0,0,1-.3-.27l-.8-1.68a.51.51,0,0,1,0-.4.5.5,0,0,1,.27-.3l1.3-.62a7.67,7.67,0,0,1-.26-1.35l-1.43-.11a.51.51,0,0,1-.48-.55l.14-1.86a.5.5,0,0,1,.18-.36.51.51,0,0,1,.34-.13l1.48.12a8.24,8.24,0,0,1,.46-1.29l-1.19-.82a.51.51,0,0,1-.13-.72l1.05-1.55a.52.52,0,0,1,.33-.21h.1a.55.55,0,0,1,.3.09l1.19.82a7.3,7.3,0,0,1,1-.89l-.62-1.3a.56.56,0,0,1,0-.4.57.57,0,0,1,.27-.3l1.68-.8a.64.64,0,0,1,.23-.05.47.47,0,0,1,.17,0,.53.53,0,0,1,.3.27l.62,1.3a7.65,7.65,0,0,1,1.35-.25l.11-1.44a.52.52,0,0,1,.52-.48l1.33.1.58.05a.52.52,0,0,1,.47.56l-.11,1.43a9.49,9.49,0,0,1,1.29.46l.81-1.19a.51.51,0,0,1,.34-.21h.09a.53.53,0,0,1,.3.09l1.53,1a.53.53,0,0,1,.14.73l-.82,1.19a6.39,6.39,0,0,1,.5.54,5.84,5.84,0,0,1,.4.5l1.29-.62a.48.48,0,0,1,.23,0,.53.53,0,0,1,.47.29l.81,1.69a.51.51,0,0,1,0,.4.51.51,0,0,1-.27.29l-1.3.62a7.63,7.63,0,0,1,.24,1.35l1.44.11a.52.52,0,0,1,.48.56l-.14,1.86a.52.52,0,0,1-.52.48l-1.48-.11a7.89,7.89,0,0,1-.46,1.29l1.19.82a.52.52,0,0,1,.14.72l-1.06,1.54a.53.53,0,0,1-.34.22h-.09a.53.53,0,0,1-.3-.09l-1.19-.82a8.09,8.09,0,0,1-.61.56l-.43.33.63,1.3a.53.53,0,0,1-.25.7l-1.69.8a.59.59,0,0,1-.22.05.51.51,0,0,1-.47-.3l-.62-1.3a8.68,8.68,0,0,1-1.35.25l-.11,1.44a.52.52,0,0,1-.52.48Zm1.64-15.87a5.92,5.92,0,0,0-4.89,2.57,6.31,6.31,0,0,0-.69,1.34,5.92,5.92,0,1,0,11.4.93,5.95,5.95,0,0,0-5.82-4.84Z" />
  <path d="M146.61,161.67l1.29.1.57,0-.15,1.88a7.63,7.63,0,0,1,2,.72l1.07-1.56,1.54,1-1.07,1.56a8.62,8.62,0,0,1,.79.81,8.3,8.3,0,0,1,.61.82l1.7-.81.81,1.68-1.71.82a7.94,7.94,0,0,1,.39,2.1l1.88.15-.14,1.86-1.89-.14a7.12,7.12,0,0,1-.72,2l1.57,1.08-1.06,1.54-1.56-1.08a6.88,6.88,0,0,1-.87.84,5.88,5.88,0,0,1-.76.55l.82,1.71-.87.42-.82.39-.81-1.71a7.63,7.63,0,0,1-2.11.39l-.15,1.88-1.78-.13h-.08v-.13l.14-1.75a6.84,6.84,0,0,1-1.17-.35,3.25,3.25,0,0,1-.43-.18l-.42-.19-1.07,1.55-1.54-1.05,1.07-1.56a7.16,7.16,0,0,1-1.39-1.63l-1.71.82-.8-1.69,1.7-.81a7.94,7.94,0,0,1-.39-2.11l-1.88-.15.14-1.86,1.89.15a8,8,0,0,1,.71-2l-1.55-1.07,1-1.54.51.36,1,.71a7.42,7.42,0,0,1,1.63-1.39l-.81-1.71,1.68-.8.81,1.71a7.63,7.63,0,0,1,2.11-.39l.15-1.89m.18,16a6.45,6.45,0,1,0-5.31-10.09,6.66,6.66,0,0,0-.75,1.45,6.47,6.47,0,0,0,2.42,7.51,6.35,6.35,0,0,0,3.64,1.13m-.18-17a1,1,0,0,0-1,1l-.08,1-.57.11-.44-.92a1,1,0,0,0-.59-.53,1.07,1.07,0,0,0-.35-.06,1,1,0,0,0-.45.1l-1.68.8a1.05,1.05,0,0,0-.5,1.39l.44.92-.44.38-.33-.22-.51-.36a1,1,0,0,0-.59-.18h-.19a1,1,0,0,0-.67.44L137.56,166a1.05,1.05,0,0,0,.27,1.45l.84.58c-.07.18-.13.36-.19.54l-1-.08h-.08a1,1,0,0,0-1,1l-.14,1.86a1,1,0,0,0,1,1.11l1,.08c0,.19.07.38.11.57l-.92.44a1,1,0,0,0-.53.59,1,1,0,0,0,0,.8l.8,1.69a1,1,0,0,0,.6.53,1,1,0,0,0,.34.06,1.06,1.06,0,0,0,.46-.1l.91-.44a5.2,5.2,0,0,0,.38.44l-.58.84a1.05,1.05,0,0,0,.27,1.45l1.54,1a1,1,0,0,0,.59.19,1,1,0,0,0,.86-.46l.57-.83.13.05.42.14-.07.89v.15a1,1,0,0,0,.9,1.09h.14l1.78.13H147a1,1,0,0,0,1-1l.08-1,.57-.1.44.91a1,1,0,0,0,.94.6,1,1,0,0,0,.44-.1l.83-.39.86-.41a1.05,1.05,0,0,0,.5-1.39l-.44-.93.11-.09.33-.28.84.58a1,1,0,0,0,.59.18l.19,0A1.08,1.08,0,0,0,155,178l1.06-1.54a1.05,1.05,0,0,0-.27-1.45l-.84-.58c.07-.18.13-.36.19-.55l1,.08h.08a1,1,0,0,0,.68-.25,1,1,0,0,0,.36-.71l.14-1.86a1,1,0,0,0-1-1.12l-1-.08a5.72,5.72,0,0,0-.11-.57l.93-.44a1,1,0,0,0,.53-.59,1.06,1.06,0,0,0,0-.8l-.81-1.68a1,1,0,0,0-1.39-.49l-.92.43c-.05-.06-.09-.12-.15-.18l-.23-.26.58-.84a1,1,0,0,0-.27-1.44L152,162a1.08,1.08,0,0,0-.6-.18h-.19a1.06,1.06,0,0,0-.67.44l-.57.84-.55-.2.08-1a1,1,0,0,0-.94-1.12l-.58-.05-1.3-.1Zm.18,16a5.41,5.41,0,0,1-5.08-7.24,5.73,5.73,0,0,1,.63-1.23,5.4,5.4,0,1,1,4.45,8.47Z" />
  <circle class="GUNDAN_FROG_JEWELRY_FROG_JEWELRY_7_cls-2" cx="146.52" cy="172.03" r="3.16" />
  <line class="GUNDAN_FROG_JEWELRY_FROG_JEWELRY_7_cls-3" x1="147.54" y1="169.04" x2="148.58" y2="165.96" />
  <path class="GUNDAN_FROG_JEWELRY_FROG_JEWELRY_7_cls-3" d="M149.45,163.41l3.36-9.91s.77-2.94.13-9.72a6.05,6.05,0,0,1,3-5.77s2.29-.93,1.91-3.16" />
</svg>