<svg id="jewelry" xmlns="http://www.w3.org/2000/svg" viewBox="0 0 432 432">
  <defs>
    <style>.GUNDAN_FROG_JEWELRY_FROG_JEWELRY_11_cls-1{fill:#ee3742;}.GUNDAN_FROG_JEWELRY_FROG_JEWELRY_11_cls-2{fill:#f493a2;}.GUNDAN_FROG_JEWELRY_FROG_JEWELRY_11_cls-3{fill:#b32126;}.GUNDAN_FROG_JEWELRY_FROG_JEWELRY_11_cls-4{fill:#ed9547;}.GUNDAN_FROG_JEWELRY_FROG_JEWELRY_11_cls-5{fill:#facf56;}.GUNDAN_FROG_JEWELRY_FROG_JEWELRY_11_cls-6,.GUNDAN_FROG_JEWELRY_FROG_JEWELRY_11_cls-7{fill:none;stroke:#000;stroke-miterlimit:10;stroke-width:0.9px;}.GUNDAN_FROG_JEWELRY_FROG_JEWELRY_11_cls-7{stroke-linecap:round;}</style>
  </defs>
  <path class="GUNDAN_FROG_JEWELRY_FROG_JEWELRY_11_cls-1" d="M147.63,173.08a19.17,19.17,0,0,0,6.68,6.49l.46-.27a19.44,19.44,0,0,0,5.78-5.54,6.07,6.07,0,0,0,.44-.68,73.68,73.68,0,0,0-6.68-14c-.64,1.07-1.35,2.3-2.1,3.67-.62,1.14-1.25,2.38-1.86,3.69A58.3,58.3,0,0,0,147.63,173.08Z" />
  <path class="GUNDAN_FROG_JEWELRY_FROG_JEWELRY_11_cls-2" d="M152.21,163.38c4.31,3.54,7.62,9.61,8.34,11a7.15,7.15,0,0,0,.44-.68,73.09,73.09,0,0,0-6.68-14C153.67,160.78,153,162,152.21,163.38Z" />
  <path class="GUNDAN_FROG_JEWELRY_FROG_JEWELRY_11_cls-3" d="M147.63,173.08a19.17,19.17,0,0,0,6.68,6.49l.46-.27c-3-4.3-4.44-8.18-4.42-12.84A58.3,58.3,0,0,0,147.63,173.08Z" />
  <path class="GUNDAN_FROG_JEWELRY_FROG_JEWELRY_11_cls-4" d="M152.49,155.67v0a3,3,0,0,0-.33-2.68,2.47,2.47,0,0,1,1.38-3.84,3.69,3.69,0,0,1,.76-.08,2.46,2.46,0,0,1,2.14,3.92,3.1,3.1,0,0,0-.34,2.67l0,0a77.29,77.29,0,0,1,8.48,17.73,22.2,22.2,0,0,1-10.3,9.94s-.39-.17-1-.51A22.07,22.07,0,0,1,144,173.4,77.67,77.67,0,0,1,152.49,155.67Zm.92,5a72.06,72.06,0,0,0-5.78,12.44,18.59,18.59,0,0,0,5.67,5.85c.37.25.71.47,1,.64a19.17,19.17,0,0,0,6.68-6.49,73.68,73.68,0,0,0-6.68-14C154,159.58,153.72,160.09,153.41,160.64Z" />
  <path class="GUNDAN_FROG_JEWELRY_FROG_JEWELRY_11_cls-5" d="M152.89,155.67l0,0a3.06,3.06,0,0,0-.33-2.68,2.46,2.46,0,0,1,1.38-3.84,2.5,2.5,0,0,1,1,3.73,3.11,3.11,0,0,0-.35,2.67l0,0a77.19,77.19,0,0,1,8.48,17.72,22,22,0,0,1-9.47,9.54,22.11,22.11,0,0,1-9.27-9.43A78.14,78.14,0,0,1,152.89,155.67ZM154,179.13c.27-.15-.61,0-.29-.2.37.25.71.47,1,.64a19.15,19.15,0,0,0,6.67-6.49,73.72,73.72,0,0,0-6.67-14c-.29.48-.59,1-.91,1.54-.33-.59.65.11.35-.4A62.37,62.37,0,0,0,148,173.08,16.5,16.5,0,0,0,154,179.13Z" />
  <path class="GUNDAN_FROG_JEWELRY_FROG_JEWELRY_11_cls-6" d="M154.32,179.57a19.15,19.15,0,0,0,6.67-6.49,74.33,74.33,0,0,0-6.67-14,74.27,74.27,0,0,0-6.69,14A19.18,19.18,0,0,0,154.32,179.57Z" />
  <path class="GUNDAN_FROG_JEWELRY_FROG_JEWELRY_11_cls-6" d="M154.32,149.05a2.47,2.47,0,0,1,2.14,3.92,3.15,3.15,0,0,0-.35,2.67l0,0a76.88,76.88,0,0,1,8.48,17.73,22.2,22.2,0,0,1-10.29,9.94A22.24,22.24,0,0,1,144,173.4a78.1,78.1,0,0,1,8.49-17.73v0a3,3,0,0,0-.33-2.68,2.46,2.46,0,0,1,2.15-3.92" />
  <circle class="GUNDAN_FROG_JEWELRY_FROG_JEWELRY_11_cls-6" cx="154.32" cy="145.84" r="1.83" />
  <polyline class="GUNDAN_FROG_JEWELRY_FROG_JEWELRY_11_cls-7" points="154.31 146.85 154.31 147.66 154.31 149.05 154.31 149.91" />
  <polyline class="GUNDAN_FROG_JEWELRY_FROG_JEWELRY_11_cls-7" points="154.31 137.5 154.31 144.01 154.31 144.94" />
  <path class="GUNDAN_FROG_JEWELRY_FROG_JEWELRY_11_cls-7" d="M154.31,137.39s2.48-.4,2.23-2.6" />
</svg>