<svg id="jewelry" xmlns="http://www.w3.org/2000/svg" viewBox="0 0 432 432">
  <defs>
    <style>.GUNDAN_FROG_JEWELRY_FROG_JEWELRY_4_cls-1,.GUNDAN_FROG_JEWELRY_FROG_JEWELRY_4_cls-4{fill:#85432d;}.GUNDAN_FROG_JEWELRY_FROG_JEWELRY_4_cls-1,.GUNDAN_FROG_JEWELRY_FROG_JEWELRY_4_cls-3{stroke:#000;}.GUNDAN_FROG_JEWELRY_FROG_JEWELRY_4_cls-1{stroke-miterlimit:10;stroke-width:2.19px;}.GUNDAN_FROG_JEWELRY_FROG_JEWELRY_4_cls-2{fill:#1a3787;}.GUNDAN_FROG_JEWELRY_FROG_JEWELRY_4_cls-3{fill:none;stroke-linecap:round;stroke-linejoin:round;stroke-width:1.53px;}</style>
  </defs>
  <path class="GUNDAN_FROG_JEWELRY_FROG_JEWELRY_4_cls-1" d="M241.93,351.75a2,2,0,0,1-.54-.07,218.28,218.28,0,0,1-47.52-19.84c-32.45-18.43-52.79-42.45-58.79-69.45-.27-1.19-.3-5.88,4-6.55a12.37,12.37,0,0,0,.24,5.59c13.3,59.8,94.84,83.71,102.54,85.84,5.75-1.78,54.64-19.36,78-70.35a10.11,10.11,0,0,0-1.4-5.2c3.05-.35,6.46,3.09,5.39,7-25.56,55.89-80.78,72.78-81.33,72.93A2.39,2.39,0,0,1,241.93,351.75Z" />
  <path class="GUNDAN_FROG_JEWELRY_FROG_JEWELRY_4_cls-2" d="M247.25,379.39a2.24,2.24,0,0,1-2.24,2.23h-1.42v40.2h-4.32v-5.27h-3.38v-2.09h-1.24v2.09h-5.88v-2.09h1.57v-2.09h1.79v-3h-1.79v-2.09h-1.57v-2.09h5.88v2.09h1.24v-2.09h3.38V381.62h-1.59a2.23,2.23,0,0,1-1.58-3.81,2.19,2.19,0,0,1,1.58-.65H245A2.23,2.23,0,0,1,247.25,379.39Z" />
  <path class="GUNDAN_FROG_JEWELRY_FROG_JEWELRY_4_cls-2" d="M249.52,355.56a8.87,8.87,0,0,0-1.94.21,6.3,6.3,0,0,0-12.47,0,8.81,8.81,0,0,0-1.94-.21,9.48,9.48,0,1,0,2.4,18.64,2.14,2.14,0,0,0-.13.72,2.23,2.23,0,0,0,2.24,2.23H245a2.24,2.24,0,0,0,2.24-2.23,2.14,2.14,0,0,0-.13-.72,9.48,9.48,0,1,0,2.4-18.64Zm-8.17-1.85a3.58,3.58,0,0,1,3.55,3.06,9.39,9.39,0,0,0-3.55,3.5,9.49,9.49,0,0,0-3.56-3.5A3.58,3.58,0,0,1,241.35,353.71Zm-8.18,18.19a6.87,6.87,0,1,1,0-13.73,7,7,0,0,1,2.16.34h0a6.86,6.86,0,0,1-2.16,13.38Zm5.57.79a9.59,9.59,0,0,0,2.61-2.88,9.43,9.43,0,0,0,2.6,2.88Zm10.78-.79a6.87,6.87,0,1,1,6.87-6.86A6.87,6.87,0,0,1,249.52,371.9Z" />
  <path class="GUNDAN_FROG_JEWELRY_FROG_JEWELRY_4_cls-3" d="M249.52,355.56a8.87,8.87,0,0,0-1.94.21,9.4,9.4,0,0,0-6.23,4.5,9.49,9.49,0,0,0-3.56-3.5,9.3,9.3,0,0,0-2.68-1,8.81,8.81,0,0,0-1.94-.21,9.48,9.48,0,1,0,2.4,18.64,9.28,9.28,0,0,0,3.17-1.51,9.59,9.59,0,0,0,2.61-2.88,9.43,9.43,0,0,0,2.6,2.88,9.2,9.2,0,0,0,3.17,1.51,9.48,9.48,0,1,0,2.4-18.64ZM233.17,371.9a6.87,6.87,0,1,1,0-13.73,7,7,0,0,1,2.16.34h0a6.86,6.86,0,0,1-2.16,13.38Zm16.35,0a6.87,6.87,0,1,1,6.87-6.86A6.87,6.87,0,0,1,249.52,371.9Z" />
  <line class="GUNDAN_FROG_JEWELRY_FROG_JEWELRY_4_cls-3" x1="243.95" y1="372.69" x2="238.74" y2="372.69" />
  <path class="GUNDAN_FROG_JEWELRY_FROG_JEWELRY_4_cls-3" d="M247.12,374.2a2.14,2.14,0,0,1,.13.72,2.24,2.24,0,0,1-2.24,2.23h-7.33a2.23,2.23,0,0,1-2.24-2.23,2.14,2.14,0,0,1,.13-.72" />
  <path class="GUNDAN_FROG_JEWELRY_FROG_JEWELRY_4_cls-3" d="M247.25,379.39a2.24,2.24,0,0,1-2.24,2.23h-7.33a2.23,2.23,0,0,1-1.58-3.81,2.19,2.19,0,0,1,1.58-.65H245A2.23,2.23,0,0,1,247.25,379.39Z" />
  <rect class="GUNDAN_FROG_JEWELRY_FROG_JEWELRY_4_cls-3" x="239.27" y="381.62" width="4.32" height="40.2" />
  <polygon class="GUNDAN_FROG_JEWELRY_FROG_JEWELRY_4_cls-3" points="239.27 405.16 239.27 416.55 235.89 416.55 235.89 414.46 234.65 414.46 234.65 416.55 228.77 416.55 228.77 414.46 230.34 414.46 230.34 412.37 232.13 412.37 232.13 409.34 230.34 409.34 230.34 407.25 228.77 407.25 228.77 405.16 234.65 405.16 234.65 407.25 235.89 407.25 235.89 405.16 239.27 405.16" />
  <path class="GUNDAN_FROG_JEWELRY_FROG_JEWELRY_4_cls-3" d="M235.11,355.77a6.3,6.3,0,0,1,12.47,0" />
  <path class="GUNDAN_FROG_JEWELRY_FROG_JEWELRY_4_cls-3" d="M244.91,356.8a0,0,0,0,0,0,0,3.6,3.6,0,0,0-7.11,0,0,0,0,0,0,0,0" />
  <line class="GUNDAN_FROG_JEWELRY_FROG_JEWELRY_4_cls-3" x1="235.33" y1="358.52" x2="235.33" y2="358.51" />
  <path class="GUNDAN_FROG_JEWELRY_FROG_JEWELRY_4_cls-4" d="M275.14,348.78l-1.57-1a9.24,9.24,0,0,0,.51-1.67l1.86.06a.66.66,0,0,0,.48-.19.64.64,0,0,0,.21-.46l.08-2.4a.67.67,0,0,0-.49-.66.37.37,0,0,0-.15,0l-1.86-.07a10.9,10.9,0,0,0-.4-1.71l1.65-.87a.77.77,0,0,0,.33-.4.65.65,0,0,0-.06-.51l-1.13-2.12a.68.68,0,0,0-.4-.33.7.7,0,0,0-.51.05l-1.63.87-.41-.49-.61.32c-.5.26-1,.51-1.52.74l-.66.29a7.63,7.63,0,0,1,1.37,9.71,7.62,7.62,0,1,1-4.34-11.36l.23.08.74-.44c1.32-.79,2.68-1.65,3.85-2.41l.62-.41-1.74-1.08a.6.6,0,0,0-.16-.08.83.83,0,0,0-.35,0,.71.71,0,0,0-.42.3l-1,1.58a9.92,9.92,0,0,0-1-.35l-.68-.18.06-1.84a.66.66,0,0,0-.48-.67l-.15,0-.76,0-1.66-.06a.68.68,0,0,0-.69.65l-.06,1.86a9.33,9.33,0,0,0-1.72.4l-.87-1.64a.66.66,0,0,0-.4-.33h0a.67.67,0,0,0-.5.05l-2.12,1.13a.67.67,0,0,0-.28.9l.88,1.64a9.76,9.76,0,0,0-1.29,1.2l-1.58-1a.67.67,0,0,0-.17-.08.65.65,0,0,0-.34,0,.64.64,0,0,0-.41.31l-1.27,2a.67.67,0,0,0,.21.92l1.58,1a9.31,9.31,0,0,0-.52,1.68l-1.86-.06a.66.66,0,0,0-.48.18.64.64,0,0,0-.21.47l-.08,2.4a.67.67,0,0,0,.49.66.76.76,0,0,0,.16,0l1.85.06a10.22,10.22,0,0,0,.4,1.72l-1.64.87a.66.66,0,0,0-.32.39.63.63,0,0,0,.05.52l1.12,2.12a.68.68,0,0,0,.4.32h0a.62.62,0,0,0,.5-.05l1.63-.87a9.79,9.79,0,0,0,1.21,1.29l-1,1.57a.68.68,0,0,0,.21.92l2,1.27a.45.45,0,0,0,.17.08.67.67,0,0,0,.75-.29l1-1.58h0a4.49,4.49,0,0,0,.61.23l.4.13.64.16-.06,1.7v.17a.65.65,0,0,0,.48.64.31.31,0,0,0,.13,0h.15l2.29.08a.67.67,0,0,0,.69-.65l.07-1.85a11.17,11.17,0,0,0,1.71-.4l.87,1.64a.63.63,0,0,0,.4.33.73.73,0,0,0,.5,0l1-.55,1.09-.58a.67.67,0,0,0,.28-.91l-.87-1.63c.18-.15.36-.3.53-.46a8.84,8.84,0,0,0,.75-.75l1.57,1,.17.07a.65.65,0,0,0,.34,0,.64.64,0,0,0,.42-.3l1.27-2A.68.68,0,0,0,275.14,348.78Z" />
  <path d="M275.49,348.21l-1.1-.69c.07-.24.15-.48.21-.72l1.32,0a1.27,1.27,0,0,0,1-.36,1.32,1.32,0,0,0,.42-.93l.08-2.4a1.35,1.35,0,0,0-1-1.33l-.33-.06-1.31,0c0-.25-.11-.5-.17-.74l1.16-.61a1.34,1.34,0,0,0,.66-.8,1.4,1.4,0,0,0-.1-1l-1.14-2.12a1.34,1.34,0,0,0-.81-.65,1.3,1.3,0,0,0-1,.1l-.42.22-.08.05c-.4.24-.82.47-1.23.7l-.61.32h0a9,9,0,0,1,.83,1l2.14-1.14,1.14,2.12L273,340.34a9.86,9.86,0,0,1,.62,2.68l2.43.08-.08,2.41-2.43-.09a9.6,9.6,0,0,1-.81,2.64l2.07,1.29-1.28,2-2.07-1.29a8.63,8.63,0,0,1-1.06,1.12,7.72,7.72,0,0,1-.95.76l1.14,2.15-1.08.58-1,.54-1.13-2.14a10.84,10.84,0,0,1-2.69.62l-.09,2.43-2.29-.08h-.11v-.16l.08-2.26a9,9,0,0,1-1.14-.26,3.43,3.43,0,0,1-.39-.12c-.18-.06-.37-.13-.55-.21a5.25,5.25,0,0,1-.55-.22l-1.29,2.06-2-1.27,1.29-2.07a9.44,9.44,0,0,1-1.89-2l-2.14,1.14-1.13-2.13,2.14-1.13a10,10,0,0,1-.62-2.69l-2.43-.08.08-2.4,2.44.08a9.19,9.19,0,0,1,.8-2.63l-2.06-1.29,1.27-2.05.68.44,1.38.86a9.45,9.45,0,0,1,2-1.88L257,333.64l2.11-1.13,1.15,2.15a9.93,9.93,0,0,1,2.69-.62l.08-2.44,1.66.06.74,0-.09,2.43a8.18,8.18,0,0,1,1.19.27,9.75,9.75,0,0,1,1.45.54l1.3-2.06,1.47.92.62-.41.61-.4-2-1.25a1.14,1.14,0,0,0-.34-.15,1.21,1.21,0,0,0-.68,0,1.32,1.32,0,0,0-.83.59l-.7,1.12-.54-.18-.17,0,0-1.29a1.33,1.33,0,0,0-1-1.34,1.06,1.06,0,0,0-.31-.05l-.75,0-1.67-.06a1.35,1.35,0,0,0-1.39,1.29l0,1.32a7,7,0,0,0-.73.17l-.61-1.15a1.32,1.32,0,0,0-.79-.66h0a1.33,1.33,0,0,0-1,.11l-2.12,1.12a1.35,1.35,0,0,0-.56,1.82l.62,1.15c-.19.17-.38.33-.55.51l-.43-.26-.68-.43a1.14,1.14,0,0,0-.34-.15,1.42,1.42,0,0,0-.68,0,1.35,1.35,0,0,0-.84.6l-1.26,2a1.36,1.36,0,0,0,.43,1.86l1.11.68a7.33,7.33,0,0,0-.22.72l-1.32,0a1.32,1.32,0,0,0-1.38,1.3l-.08,2.39a1.36,1.36,0,0,0,1,1.34,1.63,1.63,0,0,0,.33.05l1.3,0c.05.24.11.49.18.73l-1.16.61a1.3,1.3,0,0,0-.65.8,1.34,1.34,0,0,0,.09,1l1.13,2.13a1.37,1.37,0,0,0,.8.65h0a1.36,1.36,0,0,0,1-.1l1.15-.62c.16.19.33.37.51.55l-.69,1.1a1.34,1.34,0,0,0,.43,1.85l2,1.28a1.75,1.75,0,0,0,.34.15,1.35,1.35,0,0,0,1.51-.58l.69-1.11.17.05.4.13.14,0,0,1.14v.2a1.34,1.34,0,0,0,1,1.3,1.17,1.17,0,0,0,.26,0h.18l2.3.07a1.32,1.32,0,0,0,1.38-1.29l.05-1.3.72-.17.62,1.15a1.36,1.36,0,0,0,.8.66,1.33,1.33,0,0,0,1-.1l1-.54,1.1-.58a1.35,1.35,0,0,0,.55-1.82l-.61-1.16.13-.12.41-.38,1.11.68a1.66,1.66,0,0,0,.33.16,1.42,1.42,0,0,0,.68,0,1.36,1.36,0,0,0,.84-.6l1.27-2A1.34,1.34,0,0,0,275.49,348.21ZM265.31,337.1l.81-.46.74-.44a4.87,4.87,0,0,0-.78-.28,8.28,8.28,0,0,0-9.35,3.57,8,8,0,0,0-.88,1.91,8.32,8.32,0,0,0,3.52,9.52,8.85,8.85,0,0,0,2.07.93,8.29,8.29,0,0,0,8.08-13.93l-.66.29-.69.29a7,7,0,0,1,1.49,9.06,7,7,0,0,1-7.84,3,7.31,7.31,0,0,1-1.74-.78,7,7,0,0,1-2.95-8,6.95,6.95,0,0,1,8.18-4.7Zm4.21.82-.66.29-.69.29a7,7,0,0,1,1.49,9.06,7,7,0,0,1-7.84,3,7.31,7.31,0,0,1-1.74-.78,7,7,0,0,1-2.95-8,6.95,6.95,0,0,1,8.18-4.7l.81-.46.74-.44a4.87,4.87,0,0,0-.78-.28,8.28,8.28,0,0,0-9.35,3.57,8,8,0,0,0-.88,1.91,8.32,8.32,0,0,0,3.52,9.52,8.85,8.85,0,0,0,2.07.93,8.29,8.29,0,0,0,8.08-13.93Zm0,0-.66.29-.69.29a7,7,0,0,1,1.49,9.06,7,7,0,0,1-7.84,3,7.31,7.31,0,0,1-1.74-.78,7,7,0,0,1-2.95-8,6.95,6.95,0,0,1,8.18-4.7l.81-.46.74-.44a4.87,4.87,0,0,0-.78-.28,8.28,8.28,0,0,0-9.35,3.57,8,8,0,0,0-.88,1.91,8.32,8.32,0,0,0,3.52,9.52,8.85,8.85,0,0,0,2.07.93,8.29,8.29,0,0,0,8.08-13.93Z" />
</svg>