<svg id="jewelry" xmlns="http://www.w3.org/2000/svg" viewBox="0 0 432 432">
  <defs>
    <style>.GUNDAN_FROG_JEWELRY_FROG_JEWELRY_12_cls-1{fill:#6d2316;}.GUNDAN_FROG_JEWELRY_FROG_JEWELRY_12_cls-2{fill:#b9876e;}.GUNDAN_FROG_JEWELRY_FROG_JEWELRY_12_cls-3{fill:#645433;}.GUNDAN_FROG_JEWELRY_FROG_JEWELRY_12_cls-4{fill:#766e4a;}.GUNDAN_FROG_JEWELRY_FROG_JEWELRY_12_cls-5{fill:#dfca6d;}</style>
  </defs>
  <path class="GUNDAN_FROG_JEWELRY_FROG_JEWELRY_12_cls-1" d="M158.63,316.22a.43.43,0,0,1-.38-.23c-.1-.2-11.11-23-19.65-59.15-1.95-7.91-.64-11.07-.08-12.41.06-.16.11-.29.14-.39a.43.43,0,0,1,.41-.3h0a.41.41,0,0,1,.39.34c8.18,41.26,22,68.81,22.54,70a.43.43,0,0,1-.18.58l-3,1.55A.34.34,0,0,1,158.63,316.22Z" />
  <path d="M139.07,244.17c8.36,42.16,22.43,69.78,22.58,70.08l-3,1.55c-.14-.27-11.12-23-19.62-59.05-2.17-8.81-.24-11.61.06-12.58m0-.85a.85.85,0,0,0-.81.6c0,.09-.08.2-.14.34-.57,1.39-1.92,4.64.07,12.69,8.52,36.09,19.58,59,19.69,59.24a.83.83,0,0,0,.75.45.92.92,0,0,0,.39-.09l3-1.55a.85.85,0,0,0,.37-1.13c-.59-1.18-14.35-28.73-22.51-69.87a.85.85,0,0,0-.79-.68Z" />
  <path class="GUNDAN_FROG_JEWELRY_FROG_JEWELRY_12_cls-1" d="M285.81,313.48a.4.4,0,0,1-.15,0l-3.17-1.18a.42.42,0,0,1-.25-.54c.05-.12.05-.12.69-.68,8.95-7.82,30-28.33,31.82-49.88.07-.86.54-1.17.95-1.17.69,0,1.53.89,1.74,2.85a1.88,1.88,0,0,1,.12.81c-1.84,22.71-22.25,42-30.94,49.26-.26.21-.42.35-.48.41a.83.83,0,0,1-.15.11A.39.39,0,0,1,285.81,313.48Z" />
  <path d="M315.7,260.42c.49,0,1.15.84,1.32,2.52,0,0,0,0,0,.05a1.39,1.39,0,0,1,.1.64c-2.2,27.12-31.23,49.16-31.33,49.43l-3.17-1.18c.09-.27,30.29-24.55,32.53-50.67.05-.53.26-.79.53-.79m0-.84h0c-.57,0-1.27.4-1.37,1.56-1.83,21.39-22.77,41.81-31.68,49.59-.71.62-.73.63-.81.86a.85.85,0,0,0,.5,1.08l3.17,1.18a.79.79,0,0,0,.3,0,.84.84,0,0,0,.35-.07.83.83,0,0,0,.28-.21l.45-.38c8.73-7.27,29.24-26.67,31.09-49.54a2.28,2.28,0,0,0-.13-1c-.22-1.9-1.08-3.16-2.15-3.16Z" />
  <path class="GUNDAN_FROG_JEWELRY_FROG_JEWELRY_12_cls-2" d="M169,330.05a5,5,0,0,1-.21-9.91H169a5,5,0,0,1,.2,9.9Z" />
  <path d="M169,320.56a4.53,4.53,0,0,1,.19,9.06H169a4.53,4.53,0,0,1-.19-9.05H169m0-.84h-.22a5.38,5.38,0,0,0,.22,10.75h.22a5.38,5.38,0,0,0-.22-10.75Z" />
  <path class="GUNDAN_FROG_JEWELRY_FROG_JEWELRY_12_cls-2" d="M168.59,340.07c-.34,0-.69,0-1-.06a.4.4,0,0,1-.29-.15.45.45,0,0,1-.1-.31l.09-.93a13.59,13.59,0,0,1-1.9-.38l-.28.9a.51.51,0,0,1-.21.25.45.45,0,0,1-.2,0h-.12l-1-.34a.42.42,0,0,1-.24-.55l.33-.87a14.16,14.16,0,0,1-1.73-.89l-.51.79a.42.42,0,0,1-.26.19h-.09a.48.48,0,0,1-.23-.07c-.29-.19-.57-.38-.84-.59a.42.42,0,0,1-.09-.59l.56-.75a12.69,12.69,0,0,1-1.43-1.31l-.7.62a.42.42,0,0,1-.28.1h0a.38.38,0,0,1-.29-.14c-.22-.25-.44-.52-.65-.79a.42.42,0,0,1,.08-.59l.74-.57a15.07,15.07,0,0,1-1-1.65l-.84.41a.39.39,0,0,1-.18,0,.42.42,0,0,1-.38-.24c-.15-.3-.29-.62-.42-.93a.42.42,0,0,1,.24-.55l.87-.36a12,12,0,0,1-.54-1.86l-.93.16h-.07a.43.43,0,0,1-.42-.35c-.06-.33-.11-.67-.15-1a.44.44,0,0,1,.38-.47l.93-.1a4.55,4.55,0,0,1,0-.52,13.74,13.74,0,0,1,0-1.42l-.93-.09a.41.41,0,0,1-.38-.46c0-.34.07-.68.13-1a.42.42,0,0,1,.41-.36h.07l.92.14a12.65,12.65,0,0,1,.51-1.87l-.87-.34a.42.42,0,0,1-.24-.55c.12-.31.26-.63.4-.94a.43.43,0,0,1,.24-.22l.14,0a.37.37,0,0,1,.18,0l.85.39a14.75,14.75,0,0,1,1-1.67l-.75-.56a.42.42,0,0,1-.09-.59c.21-.27.42-.54.64-.8a.46.46,0,0,1,.29-.15h0a.43.43,0,0,1,.28.11l.71.61a13.72,13.72,0,0,1,1.41-1.34l-.58-.74a.51.51,0,0,1-.08-.32.4.4,0,0,1,.16-.28c.27-.21.55-.41.83-.59a.41.41,0,0,1,.24-.08H161a.45.45,0,0,1,.27.18l.52.78a13.94,13.94,0,0,1,1.71-.9l-.35-.88a.43.43,0,0,1,.23-.55c.32-.13.64-.24,1-.35l.13,0a.42.42,0,0,1,.4.29l.29.89a13.68,13.68,0,0,1,1.9-.41l-.1-.93a.39.39,0,0,1,.09-.31.4.4,0,0,1,.28-.16c.34,0,.68-.06,1-.08h0a.41.41,0,0,1,.28.11.41.41,0,0,1,.14.3l0,.92H169a14.85,14.85,0,0,1,1.76.11l.15-.91a.41.41,0,0,1,.17-.27.38.38,0,0,1,.25-.08h.07c.33.06.67.12,1,.2a.43.43,0,0,1,.32.51l-.22.91a13.77,13.77,0,0,1,1.84.64l.4-.85a.4.4,0,0,1,.24-.22.32.32,0,0,1,.14,0,.53.53,0,0,1,.18,0c.31.14.62.3.91.46a.45.45,0,0,1,.21.26.45.45,0,0,1,0,.32l-.46.83a13.72,13.72,0,0,1,1.6,1.1l.61-.71a.43.43,0,0,1,.29-.15h0a.38.38,0,0,1,.27.1c.26.22.51.45.76.69a.43.43,0,0,1,0,.6l-.66.67a13.71,13.71,0,0,1,1.24,1.5l.78-.53a.44.44,0,0,1,.24-.07.42.42,0,0,1,.35.19q.28.42.54.87a.41.41,0,0,1-.15.57l-.82.47a12.73,12.73,0,0,1,.79,1.77l.9-.29.13,0a.45.45,0,0,1,.19.05.41.41,0,0,1,.21.24c.11.33.2.66.28,1a.4.4,0,0,1,0,.32.46.46,0,0,1-.26.19l-.9.23a13.88,13.88,0,0,1,.28,1.92l.94,0a.43.43,0,0,1,.43.4c0,.38,0,.73,0,1.07a.41.41,0,0,1-.13.29.42.42,0,0,1-.3.12l-.95,0a13.57,13.57,0,0,1-.24,1.93l.91.22a.42.42,0,0,1,.32.5q-.12.51-.27,1a.44.44,0,0,1-.41.3l-.12,0-.9-.28a12.87,12.87,0,0,1-.77,1.79l.83.46a.42.42,0,0,1,.16.58c-.16.29-.34.59-.52.87a.42.42,0,0,1-.36.2.48.48,0,0,1-.23-.07l-.79-.51a13.22,13.22,0,0,1-1.22,1.51l.68.66a.43.43,0,0,1,0,.6l-.74.71a.48.48,0,0,1-.28.1h0a.44.44,0,0,1-.29-.14l-.62-.7a12.9,12.9,0,0,1-1.58,1.13l.47.81a.47.47,0,0,1,0,.33.41.41,0,0,1-.2.25c-.29.17-.6.33-.9.48a.41.41,0,0,1-.19,0l-.14,0a.47.47,0,0,1-.24-.22l-.41-.84a12.05,12.05,0,0,1-1.82.67l.23.9a.44.44,0,0,1,0,.32.43.43,0,0,1-.26.2c-.33.08-.67.15-1,.21h-.08a.43.43,0,0,1-.24-.08.41.41,0,0,1-.17-.27l-.17-.92a13.06,13.06,0,0,1-1.44.15H169l0,.93a.42.42,0,0,1-.42.41Zm.39-25.5h-.44a10.52,10.52,0,0,0,.43,21h.44a10.52,10.52,0,0,0-.43-21Z" />
  <path d="M168.35,310.55l.06,1.34h0l.56,0a13.35,13.35,0,0,1,2.11.17l.22-1.32c.33,0,.65.12,1,.19l-.3,1.32a14,14,0,0,1,2.55.88l.57-1.22c.3.13.6.29.89.45l-.66,1.19a13.12,13.12,0,0,1,2.22,1.54l.89-1,.73.67-1,1a14.29,14.29,0,0,1,1.72,2.08l1.13-.76c.18.28.36.56.52.85l-1.17.67a13.37,13.37,0,0,1,1.1,2.47l1.29-.42c.1.31.19.63.27.95l-1.3.33a13,13,0,0,1,.39,2.67l1.34-.06v0c0,.33,0,.67,0,1l-1.35,0a13.2,13.2,0,0,1-.35,2.68l1.32.31c-.07.32-.16.64-.26,1l-1.3-.4a12.68,12.68,0,0,1-1.06,2.48l1.19.66c-.16.29-.33.58-.51.85l-1.14-.73a13.64,13.64,0,0,1-1.69,2.1l1,.95c-.23.24-.48.47-.72.69l-.9-1a13.64,13.64,0,0,1-2.19,1.57l.67,1.17c-.29.17-.58.32-.88.47l-.59-1.22a13,13,0,0,1-2.53.93l.32,1.31c-.32.08-.64.15-1,.2l-.24-1.33a11.66,11.66,0,0,1-1.8.21h-.26l-.63,0,0,1.36c-.33,0-.67,0-1-.06l.13-1.35a13,13,0,0,1-2.65-.53l-.4,1.3c-.31-.1-.63-.21-.94-.33l.49-1.26a12.72,12.72,0,0,1-2.41-1.23l-.73,1.14c-.28-.18-.56-.37-.82-.57l.81-1.08a13.26,13.26,0,0,1-2-1.83l-1,.9c-.22-.25-.43-.5-.63-.76l1.07-.83a13.52,13.52,0,0,1-1.43-2.29l-1.21.59c-.15-.3-.28-.61-.41-.91l1.26-.51a14,14,0,0,1-.75-2.59l-1.33.24c-.06-.33-.11-.66-.14-1l1.34-.14c0-.31-.07-.61-.08-.92a11.68,11.68,0,0,1,.06-1.78l-1.35-.13c0-.33.07-.66.13-1l1.32.22a13.6,13.6,0,0,1,.71-2.61l-1.26-.48c.12-.31.25-.62.39-.92l1.23.57a14.2,14.2,0,0,1,1.38-2.32l-1.08-.81c.2-.26.41-.52.62-.77l1,.88a13.2,13.2,0,0,1,1.95-1.86l-.83-1.07c.26-.2.53-.4.81-.58l.75,1.13a13.25,13.25,0,0,1,2.38-1.27l-.51-1.26c.31-.12.62-.24.94-.34l.42,1.29a12.78,12.78,0,0,1,2.64-.57l-.15-1.35c.33,0,.66-.06,1-.07M169,336h.46a10.94,10.94,0,0,0-.45-21.88h-.45A10.94,10.94,0,0,0,169,336m-.62-26.34h0c-.35,0-.7,0-1,.08a.88.88,0,0,0-.57.31.84.84,0,0,0-.18.63l.06.53a10.84,10.84,0,0,0-1.16.25l-.17-.51a.83.83,0,0,0-.8-.59.75.75,0,0,0-.26.05c-.34.1-.67.23-1,.36a.83.83,0,0,0-.47,1.1l.2.5c-.35.17-.7.35-1,.55l-.3-.44a.83.83,0,0,0-.71-.38.92.92,0,0,0-.47.14c-.29.2-.57.4-.85.62a.84.84,0,0,0-.15,1.19l.33.42c-.3.26-.58.53-.86.81l-.41-.35a.87.87,0,0,0-.55-.2.83.83,0,0,0-.64.3c-.23.26-.45.54-.66.82a.85.85,0,0,0,.17,1.18l.43.32c-.21.33-.42.67-.61,1l-.48-.23a.9.9,0,0,0-.36-.08.83.83,0,0,0-.76.49c-.15.32-.29.64-.42,1a.86.86,0,0,0,0,.65.83.83,0,0,0,.47.45l.49.19c-.12.38-.23.76-.31,1.14l-.52-.08h-.13a.83.83,0,0,0-.5.16.87.87,0,0,0-.34.55c-.06.34-.1.69-.13,1a.84.84,0,0,0,.76.92l.53.05c0,.37,0,.72,0,1.06,0,0,0,.08,0,.12l-.52.06a.85.85,0,0,0-.75.94c0,.34.09.69.15,1a.86.86,0,0,0,.84.7l.15,0,.53-.09c.09.38.2.76.32,1.13l-.49.2a.85.85,0,0,0-.47,1.11c.13.32.27.64.43,1a.85.85,0,0,0,.48.43.86.86,0,0,0,.28,0,.83.83,0,0,0,.37-.08l.48-.23c.19.34.4.67.62,1l-.42.32a.86.86,0,0,0-.16,1.19c.22.28.44.55.68.81a.83.83,0,0,0,.63.29.81.81,0,0,0,.56-.22l.4-.35c.28.28.57.55.87.8l-.32.43a.85.85,0,0,0,.17,1.18q.42.31.87.6a.78.78,0,0,0,.46.14.85.85,0,0,0,.71-.39l.29-.45a11.58,11.58,0,0,0,1,.54l-.19.5a.84.84,0,0,0,.49,1.09c.32.13.66.25,1,.35a.77.77,0,0,0,.25,0,.85.85,0,0,0,.81-.6l.16-.51c.38.09.77.17,1.16.23l-.05.53a.84.84,0,0,0,.77.92c.34,0,.69.06,1,.07h0a.86.86,0,0,0,.58-.24.81.81,0,0,0,.26-.59l0-.52h.1c.34,0,.7,0,1.08-.1l.09.52a.84.84,0,0,0,.83.7h.15c.35-.06.69-.14,1-.22a.86.86,0,0,0,.62-1l-.13-.51c.37-.12.74-.25,1.11-.41l.23.48a.86.86,0,0,0,.76.48.81.81,0,0,0,.37-.09c.32-.15.63-.32.93-.49a.85.85,0,0,0,.32-1.16l-.27-.46q.49-.33,1-.69l.35.4a.85.85,0,0,0,.64.29.81.81,0,0,0,.56-.22c.26-.23.51-.47.76-.72a.86.86,0,0,0,.25-.6.89.89,0,0,0-.26-.6l-.38-.38a11,11,0,0,0,.74-.92l.45.29a.78.78,0,0,0,.46.14.84.84,0,0,0,.71-.39q.29-.43.54-.9a.84.84,0,0,0-.33-1.15l-.47-.26c.17-.36.33-.72.47-1.09l.51.16a1.09,1.09,0,0,0,.25,0,.86.86,0,0,0,.81-.6c.11-.34.2-.68.28-1a.85.85,0,0,0-.63-1l-.52-.12q.09-.58.15-1.17h.55a.86.86,0,0,0,.59-.23.84.84,0,0,0,.26-.59c0-.35,0-.7,0-1.05a.91.91,0,0,0-.27-.61.86.86,0,0,0-.58-.24h0l-.52,0a11.82,11.82,0,0,0-.18-1.17l.51-.13a.85.85,0,0,0,.62-1c-.09-.34-.19-.68-.3-1a.86.86,0,0,0-1.07-.54l-.5.17q-.23-.56-.48-1.08l.46-.27a.86.86,0,0,0,.31-1.16c-.18-.3-.36-.6-.56-.89a.84.84,0,0,0-.7-.37.81.81,0,0,0-.47.14l-.45.3c-.24-.31-.49-.62-.75-.91l.37-.38a.84.84,0,0,0,0-1.2l-.77-.71a.83.83,0,0,0-.55-.2.87.87,0,0,0-.65.29l-.35.41c-.31-.24-.64-.46-1-.67l.26-.47a.85.85,0,0,0-.33-1.16c-.31-.17-.62-.33-.94-.47a.73.73,0,0,0-.36-.08,1,1,0,0,0-.29,0,.86.86,0,0,0-.48.44l-.22.48c-.37-.14-.74-.27-1.12-.38l.12-.52a.84.84,0,0,0-.63-1c-.34-.08-.69-.15-1-.21h-.13a.86.86,0,0,0-.84.71l-.08.52a11.67,11.67,0,0,0-1.18-.07l0-.52a.85.85,0,0,0-.28-.59.87.87,0,0,0-.57-.22Zm.62,25.49a10.1,10.1,0,0,1-.41-20.19H169a10.09,10.09,0,0,1,.42,20.18Z" />
  <path class="GUNDAN_FROG_JEWELRY_FROG_JEWELRY_12_cls-2" d="M276.23,326.75a5,5,0,0,1-.2-9.9h.21a5,5,0,0,1,.2,9.9Z" />
  <path d="M276.24,317.27a4.53,4.53,0,0,1,.18,9.06h-.19a4.53,4.53,0,0,1-.18-9.05h.19m0-.85H276a5.38,5.38,0,0,0,.22,10.75h.23a5.38,5.38,0,0,0-.22-10.75Z" />
  <path class="GUNDAN_FROG_JEWELRY_FROG_JEWELRY_12_cls-2" d="M275.84,336.78l-1-.06a.41.41,0,0,1-.38-.46l.09-.94a13.73,13.73,0,0,1-1.91-.38l-.28.9a.42.42,0,0,1-.4.3.25.25,0,0,1-.12,0c-.33-.1-.66-.21-1-.33a.42.42,0,0,1-.24-.23.44.44,0,0,1,0-.32l.34-.87a13.47,13.47,0,0,1-1.73-.89l-.51.79a.42.42,0,0,1-.27.18h-.09a.39.39,0,0,1-.23-.07c-.28-.18-.57-.38-.84-.58a.42.42,0,0,1-.08-.59l.56-.75a12.8,12.8,0,0,1-1.44-1.32l-.69.62a.44.44,0,0,1-.29.11h0a.44.44,0,0,1-.29-.14c-.23-.26-.45-.52-.65-.79a.42.42,0,0,1,.07-.59l.75-.58a13.58,13.58,0,0,1-1-1.64l-.84.4a.41.41,0,0,1-.19,0l-.14,0a.41.41,0,0,1-.24-.21c-.15-.31-.29-.62-.41-.93a.42.42,0,0,1,0-.33.47.47,0,0,1,.23-.23l.87-.35a15.19,15.19,0,0,1-.54-1.86l-.92.16h-.08a.41.41,0,0,1-.41-.35c-.06-.33-.11-.67-.15-1a.43.43,0,0,1,.37-.47l.93-.1c0-.18,0-.35,0-.53a11.6,11.6,0,0,1,0-1.42l-.93-.08a.43.43,0,0,1-.29-.15.45.45,0,0,1-.1-.31c0-.34.08-.68.13-1a.41.41,0,0,1,.17-.27.39.39,0,0,1,.25-.08h.07l.91.15a14.2,14.2,0,0,1,.52-1.88l-.87-.33a.42.42,0,0,1-.24-.55c.12-.32.25-.63.4-.94a.41.41,0,0,1,.23-.22l.15,0a.58.58,0,0,1,.18,0l.85.4a13.12,13.12,0,0,1,1-1.67l-.75-.56a.43.43,0,0,1-.08-.59c.2-.27.42-.54.64-.8a.4.4,0,0,1,.29-.15h0a.43.43,0,0,1,.27.1l.72.62a13.72,13.72,0,0,1,1.41-1.34l-.58-.75a.38.38,0,0,1-.08-.31.4.4,0,0,1,.16-.28c.27-.21.54-.41.83-.6a.39.39,0,0,1,.23-.07.42.42,0,0,1,.35.19l.53.78a15.54,15.54,0,0,1,1.71-.91l-.35-.87a.4.4,0,0,1,0-.32.4.4,0,0,1,.23-.23c.32-.13.64-.25,1-.35a.32.32,0,0,1,.13,0,.45.45,0,0,1,.2,0,.44.44,0,0,1,.21.25l.29.89a13.08,13.08,0,0,1,1.9-.41l-.11-.93a.45.45,0,0,1,.09-.32.46.46,0,0,1,.29-.15c.33,0,.68-.06,1-.08h0a.44.44,0,0,1,.29.11.47.47,0,0,1,.14.29l0,.93h.17a15,15,0,0,1,1.77.11l.15-.91a.42.42,0,0,1,.41-.36h.07c.34.05.68.12,1,.2a.41.41,0,0,1,.31.51l-.21.91a14.24,14.24,0,0,1,1.84.63l.39-.85a.47.47,0,0,1,.24-.22l.15,0a.39.39,0,0,1,.18,0c.31.14.61.3.91.46a.44.44,0,0,1,.2.25.47.47,0,0,1,0,.33l-.46.82a16.26,16.26,0,0,1,1.6,1.11l.61-.72a.47.47,0,0,1,.29-.14h0a.42.42,0,0,1,.28.1q.39.33.75.69a.43.43,0,0,1,0,.6l-.66.67a16.05,16.05,0,0,1,1.24,1.49l.78-.52a.4.4,0,0,1,.24-.07.42.42,0,0,1,.35.18q.29.44.54.87a.43.43,0,0,1-.16.58l-.81.47a14,14,0,0,1,.79,1.77l.89-.29.13,0a.41.41,0,0,1,.4.29c.11.32.21.65.29,1a.4.4,0,0,1-.05.32.41.41,0,0,1-.26.2l-.9.23a13.68,13.68,0,0,1,.29,1.92l.94,0a.42.42,0,0,1,.42.4c0,.38,0,.72,0,1.06a.43.43,0,0,1-.13.3.45.45,0,0,1-.29.12l-1,0a13.77,13.77,0,0,1-.25,1.93l.92.21a.46.46,0,0,1,.26.19.4.4,0,0,1,.05.32q-.12.5-.27,1a.42.42,0,0,1-.4.3l-.13,0-.9-.28a13.35,13.35,0,0,1-.76,1.79l.82.46a.42.42,0,0,1,.17.57c-.17.3-.34.59-.53.88a.4.4,0,0,1-.35.19.46.46,0,0,1-.23-.06l-.79-.51a15.8,15.8,0,0,1-1.22,1.51l.67.66a.43.43,0,0,1,0,.6c-.24.24-.49.48-.74.7a.44.44,0,0,1-.29.11h0a.44.44,0,0,1-.29-.14l-.62-.7a15.47,15.47,0,0,1-1.58,1.13l.46.81a.42.42,0,0,1-.15.58c-.3.17-.6.33-.91.48a.53.53,0,0,1-.18,0l-.14,0a.43.43,0,0,1-.24-.22l-.41-.84a14.28,14.28,0,0,1-1.82.67l.22.9a.41.41,0,0,1-.31.51c-.33.09-.66.16-1,.22h-.07a.41.41,0,0,1-.24-.08.39.39,0,0,1-.18-.27l-.16-.93a11.2,11.2,0,0,1-1.44.15h-.5l0,.93a.43.43,0,0,1-.43.41Zm.4-25.5h-.44a10.52,10.52,0,0,0,.43,21h.44a10.52,10.52,0,0,0-.43-21Z" />
  <path d="M275.6,307.25l.06,1.34h.58a13.48,13.48,0,0,1,2.12.17l.22-1.32c.32.05.65.11,1,.19l-.31,1.32a13.11,13.11,0,0,1,2.56.88l.57-1.23c.3.14.6.29.89.45l-.66,1.19a14.18,14.18,0,0,1,2.22,1.54l.88-1c.25.21.5.44.74.67l-1,1a13.84,13.84,0,0,1,1.73,2.08l1.13-.76c.18.27.36.56.52.84l-1.17.68a13.24,13.24,0,0,1,1.09,2.46l1.29-.42c.11.32.2.64.28,1l-1.3.33a13.75,13.75,0,0,1,.39,2.67l1.34-.06v0c0,.33,0,.66,0,1l-1.36,0a13.1,13.1,0,0,1-.34,2.67l1.32.31c-.08.33-.16.65-.26,1l-1.3-.4a13.71,13.71,0,0,1-1.06,2.49l1.19.66c-.16.29-.33.57-.51.85l-1.14-.74a13.21,13.21,0,0,1-1.7,2.11l1,.95q-.35.36-.72.69l-.89-1a12.78,12.78,0,0,1-2.2,1.58l.68,1.17c-.29.17-.59.32-.88.47l-.59-1.22a12.83,12.83,0,0,1-2.54.93l.33,1.3c-.32.08-.65.15-1,.21l-.24-1.33a15.25,15.25,0,0,1-1.8.21h-.89l0,1.36-1-.06L275,335a13.67,13.67,0,0,1-2.65-.53l-.4,1.3c-.32-.1-.63-.21-.94-.33l.48-1.26a13.25,13.25,0,0,1-2.4-1.23l-.74,1.14c-.27-.18-.55-.37-.81-.57l.8-1.08a12.72,12.72,0,0,1-2-1.83l-1,.9c-.22-.25-.44-.51-.64-.77l1.08-.83a13.13,13.13,0,0,1-1.43-2.29l-1.22.59c-.14-.29-.28-.6-.4-.9l1.26-.51a13.19,13.19,0,0,1-.75-2.6l-1.34.24c0-.32-.1-.65-.14-1l1.35-.15c0-.3-.07-.6-.08-.91a11.82,11.82,0,0,1,.06-1.79l-1.35-.12q0-.49.12-1l1.33.22a12.56,12.56,0,0,1,.71-2.61l-1.26-.49c.12-.3.25-.61.39-.91l1.23.57a12.91,12.91,0,0,1,1.38-2.32l-1.08-.81c.2-.26.4-.52.62-.78l1,.89a13.28,13.28,0,0,1,2-1.86l-.83-1.08c.26-.2.53-.39.8-.58l.76,1.13a13.51,13.51,0,0,1,2.38-1.26l-.51-1.26c.31-.12.62-.24.93-.34l.43,1.29a12.69,12.69,0,0,1,2.63-.57l-.15-1.35c.33,0,.66-.06,1-.08m.63,25.5h.46a10.94,10.94,0,0,0-.45-21.88h-.46a10.94,10.94,0,0,0,.45,21.88m-.63-26.34h0c-.35,0-.7,0-1.05.08a.85.85,0,0,0-.75.93l.06.53c-.39.07-.77.15-1.15.25l-.17-.5a.84.84,0,0,0-.42-.5.86.86,0,0,0-.39-.09,1.27,1.27,0,0,0-.26,0l-1,.36a.87.87,0,0,0-.47,1.11l.21.5a11.39,11.39,0,0,0-1,.55l-.3-.45a.87.87,0,0,0-.71-.37.81.81,0,0,0-.47.14c-.29.19-.58.4-.85.61a.86.86,0,0,0-.16,1.19l.33.43c-.29.26-.58.53-.85.81l-.41-.35a.85.85,0,0,0-1.19.09c-.23.27-.45.54-.66.82a.84.84,0,0,0-.16.63.82.82,0,0,0,.33.56l.43.32a11.27,11.27,0,0,0-.61,1l-.48-.22a.86.86,0,0,0-.65,0,.9.9,0,0,0-.48.44c-.15.32-.29.64-.41,1a.84.84,0,0,0,.49,1.09l.49.19c-.12.38-.23.76-.32,1.15l-.51-.09h-.14a.87.87,0,0,0-.84.71c0,.35-.1.7-.13,1.05a.85.85,0,0,0,.77.92l.52.05c0,.37,0,.72,0,1.05a.53.53,0,0,0,0,.13l-.52.06a.86.86,0,0,0-.57.31.83.83,0,0,0-.18.62c0,.35.09.7.15,1a.85.85,0,0,0,.83.7h.15l.53-.1a10.68,10.68,0,0,0,.33,1.14l-.5.2a.86.86,0,0,0-.47,1.1c.14.33.28.65.43,1a.84.84,0,0,0,.76.48,1,1,0,0,0,.37-.08l.48-.24a10.47,10.47,0,0,0,.63,1l-.43.33a.85.85,0,0,0-.15,1.19c.21.28.44.55.67.81a.86.86,0,0,0,1.2.07l.39-.35c.28.28.57.55.87.8l-.31.42a.84.84,0,0,0-.16.63.82.82,0,0,0,.33.56c.28.21.57.41.86.6a.86.86,0,0,0,.46.14l.18,0a.84.84,0,0,0,.53-.37l.29-.45a11.75,11.75,0,0,0,1.06.54l-.19.5a.85.85,0,0,0,.48,1.09c.33.13.66.24,1,.35a1.09,1.09,0,0,0,.25,0,.87.87,0,0,0,.39-.1.9.9,0,0,0,.42-.5l.16-.51c.38.09.77.17,1.16.23l-.05.53a.84.84,0,0,0,.76.92c.35,0,.7.06,1.05.06h0a.84.84,0,0,0,.85-.82v-.52h.11c.34,0,.69-.05,1.07-.1l.09.52a.86.86,0,0,0,.84.7H279l1-.22a.85.85,0,0,0,.61-1l-.13-.51c.38-.12.75-.26,1.12-.41l.23.48a.86.86,0,0,0,1.13.39c.31-.15.63-.32.93-.49a.86.86,0,0,0,.31-1.16l-.26-.46q.49-.33,1-.69l.35.4a.84.84,0,0,0,.63.28.89.89,0,0,0,.57-.21c.26-.23.51-.48.76-.72a.85.85,0,0,0,0-1.2l-.38-.38c.26-.3.5-.6.74-.92l.45.29a.84.84,0,0,0,1.17-.25c.19-.29.37-.6.54-.9a.86.86,0,0,0,.07-.65.8.8,0,0,0-.4-.5l-.47-.27c.17-.35.32-.72.46-1.08l.52.15a.69.69,0,0,0,.25,0,.78.78,0,0,0,.39-.1.84.84,0,0,0,.42-.5c.1-.33.19-.67.27-1a.8.8,0,0,0-.1-.64.86.86,0,0,0-.53-.38l-.52-.12a11.7,11.7,0,0,0,.15-1.17h.56a.85.85,0,0,0,.85-.83c0-.35,0-.7,0-1a.87.87,0,0,0-.28-.6.83.83,0,0,0-.58-.25h0l-.52,0c0-.39-.1-.79-.17-1.17l.51-.13a.85.85,0,0,0,.61-1c-.08-.34-.18-.68-.29-1a.82.82,0,0,0-1.07-.54l-.51.16a11.47,11.47,0,0,0-.48-1.08l.46-.26a.85.85,0,0,0,.32-1.16c-.18-.3-.37-.6-.56-.89a.84.84,0,0,0-1.18-.23l-.44.3a11.1,11.1,0,0,0-.76-.91L287,312a.83.83,0,0,0,.24-.6.82.82,0,0,0-.25-.59,10.41,10.41,0,0,0-.78-.71.83.83,0,0,0-1.19.09l-.35.41c-.32-.24-.64-.46-1-.68l.26-.47a.85.85,0,0,0-.34-1.15c-.3-.17-.62-.33-.93-.48a.94.94,0,0,0-.36-.08.85.85,0,0,0-.77.5l-.23.48c-.36-.14-.74-.27-1.12-.39l.13-.52a.85.85,0,0,0-.11-.64.9.9,0,0,0-.53-.38c-.34-.08-.69-.14-1-.2h-.14a.85.85,0,0,0-.83.71l-.08.51c-.4,0-.79-.06-1.19-.06l0-.52a.84.84,0,0,0-.85-.81Zm.63,25.49a10.1,10.1,0,0,1-.41-20.19h.42a10.1,10.1,0,0,1,.41,20.19Z" />
  <path class="GUNDAN_FROG_JEWELRY_FROG_JEWELRY_12_cls-3" d="M186.11,367l-.79,0a.43.43,0,0,1-.41-.45l.05-1-.1,1a.43.43,0,0,1-.16.29.41.41,0,0,1-.26.09h-.05c-.34,0-.69-.08-1-.14a.42.42,0,0,1-.35-.48l.16-1-.21,1a.42.42,0,0,1-.18.27.46.46,0,0,1-.23.06h-.09c-.34-.07-.68-.15-1-.25a.41.41,0,0,1-.29-.52l.27-1-.33,1a.4.4,0,0,1-.21.25.58.58,0,0,1-.19,0l-.14,0-1-.37a.43.43,0,0,1-.23-.23.44.44,0,0,1,0-.32l.39-.94-.44.91a.41.41,0,0,1-.38.25.37.37,0,0,1-.18-.05,10.12,10.12,0,0,1-.93-.47.43.43,0,0,1-.16-.58l.49-.88-.54.86a.44.44,0,0,1-.36.19.46.46,0,0,1-.23-.06c-.29-.18-.58-.38-.86-.58a.41.41,0,0,1-.17-.27.45.45,0,0,1,.07-.32l.58-.81-.62.78a.44.44,0,0,1-.29.16h0a.44.44,0,0,1-.27-.09l-.79-.67a.43.43,0,0,1,0-.6l.66-.74-.7.7a.41.41,0,0,1-.6,0c-.24-.24-.48-.5-.71-.75a.45.45,0,0,1-.1-.31.37.37,0,0,1,.14-.29L174,360l-.77.61a.39.39,0,0,1-.26.09h-.05a.45.45,0,0,1-.28-.16c-.22-.27-.42-.55-.62-.83a.43.43,0,0,1,.1-.59l.8-.56-.83.51a.36.36,0,0,1-.22.07.42.42,0,0,1-.36-.2c-.18-.3-.36-.6-.52-.9a.43.43,0,0,1,.17-.58L172,357l-.87.41a.37.37,0,0,1-.18,0,.43.43,0,0,1-.38-.24c-.15-.31-.29-.63-.41-.95a.38.38,0,0,1,0-.33.41.41,0,0,1,.23-.22l.92-.37-.94.32-.13,0a.41.41,0,0,1-.19-.05.43.43,0,0,1-.22-.24q-.16-.5-.3-1a.42.42,0,0,1,.3-.52l1-.26-1,.2h-.09a.42.42,0,0,1-.41-.33c-.07-.34-.14-.68-.19-1a.41.41,0,0,1,.08-.32.4.4,0,0,1,.28-.16l1-.15-1,.1a.42.42,0,0,1-.42-.39c0-.33-.06-.66-.07-1a.43.43,0,0,1,.11-.33.43.43,0,0,1,.29-.15l1,0h-1a.48.48,0,0,1-.3-.13.42.42,0,0,1-.12-.3c0-.35,0-.7.05-1a.42.42,0,0,1,.42-.39l1,.07-1-.12a.46.46,0,0,1-.28-.17.42.42,0,0,1-.09-.31c0-.34.1-.69.17-1a.46.46,0,0,1,.17-.28.51.51,0,0,1,.24-.07h.08l1,.19-1-.24a.44.44,0,0,1-.31-.52c.09-.33.18-.67.28-1a.51.51,0,0,1,.21-.25.45.45,0,0,1,.2,0h.12l1,.31-1-.36a.47.47,0,0,1-.24-.22.44.44,0,0,1,0-.32c.12-.33.26-.65.4-1a.43.43,0,0,1,.38-.25.39.39,0,0,1,.18,0l.92.41-.9-.46a.4.4,0,0,1-.21-.25.4.4,0,0,1,0-.32c.16-.31.33-.62.51-.91a.41.41,0,0,1,.36-.21.46.46,0,0,1,.22.06l.86.51-.83-.56a.41.41,0,0,1-.12-.58c.19-.29.39-.58.6-.85a.46.46,0,0,1,.28-.17h.06a.38.38,0,0,1,.25.09l.79.59-.76-.64a.43.43,0,0,1-.15-.28.46.46,0,0,1,.1-.31c.23-.27.46-.53.7-.78a.39.39,0,0,1,.29-.13h0a.38.38,0,0,1,.29.12l.72.67-.68-.71a.41.41,0,0,1-.11-.3.43.43,0,0,1,.13-.3c.25-.23.51-.47.77-.69a.48.48,0,0,1,.28-.1.42.42,0,0,1,.32.16l.63.75-.59-.79a.42.42,0,0,1,.09-.59c.27-.21.56-.41.85-.6a.48.48,0,0,1,.23-.07H177a.4.4,0,0,1,.26.18l.54.81-.49-.83a.48.48,0,0,1-.05-.33.39.39,0,0,1,.2-.25c.3-.18.6-.34.91-.5a.45.45,0,0,1,.19,0,.42.42,0,0,1,.38.24l.43.85-.38-.88a.4.4,0,0,1,0-.32.37.37,0,0,1,.23-.23q.47-.21,1-.39l.14,0a.34.34,0,0,1,.18,0,.43.43,0,0,1,.22.24l.34.92-.29-.94a.44.44,0,0,1,0-.32.46.46,0,0,1,.25-.21c.33-.1.67-.2,1-.28h.11a.42.42,0,0,1,.41.33l.23,1-.18-1A.42.42,0,0,1,183,333c.34-.06.68-.12,1-.16H184a.42.42,0,0,1,.42.37l.12,1-.07-1a.42.42,0,0,1,.39-.45c.34,0,.69,0,1,0h0a.43.43,0,0,1,.43.42v1l0-1a.39.39,0,0,1,.14-.3.41.41,0,0,1,.28-.11h0c.35,0,.69,0,1,.08a.41.41,0,0,1,.37.46l-.1,1,.16-1a.42.42,0,0,1,.42-.36h.06c.34.06.69.12,1,.2a.42.42,0,0,1,.27.18.45.45,0,0,1,.06.32l-.22,1,.27-1a.39.39,0,0,1,.2-.25.37.37,0,0,1,.21-.06l.11,0c.33.09.67.19,1,.31a.43.43,0,0,1,.27.54l-.34,1,.39-.94a.41.41,0,0,1,.39-.27.45.45,0,0,1,.16,0c.32.13.64.27.95.42a.43.43,0,0,1,.2.57l-.44.91.49-.89a.42.42,0,0,1,.37-.22.46.46,0,0,1,.2,0c.31.17.61.35.9.53a.42.42,0,0,1,.13.59l-.53.84.58-.82a.41.41,0,0,1,.27-.17h.07a.44.44,0,0,1,.25.08c.28.2.56.41.83.63a.45.45,0,0,1,.16.28.44.44,0,0,1-.09.31l-.63.78.67-.74a.39.39,0,0,1,.31-.14.42.42,0,0,1,.28.1c.26.23.51.47.76.72a.43.43,0,0,1,0,.6l-.7.69.73-.66a.42.42,0,0,1,.28-.1h0a.37.37,0,0,1,.29.14c.23.26.46.52.67.79a.44.44,0,0,1-.07.6l-.77.6.8-.56a.43.43,0,0,1,.24-.08.41.41,0,0,1,.35.18q.3.42.57.87a.41.41,0,0,1-.13.58l-.82.51.84-.47a.54.54,0,0,1,.21-.05l.12,0a.44.44,0,0,1,.25.2c.16.31.32.62.47.93a.4.4,0,0,1,0,.32.39.39,0,0,1-.21.24l-.87.41.89-.36a.41.41,0,0,1,.16,0,.43.43,0,0,1,.39.26c.13.32.25.65.36,1a.42.42,0,0,1-.26.54l-.95.32,1-.27h.11a.46.46,0,0,1,.21.05.43.43,0,0,1,.2.26c.1.33.18.67.25,1a.45.45,0,0,1-.06.32.42.42,0,0,1-.27.18l-1,.21,1-.16h.07a.44.44,0,0,1,.25.08.41.41,0,0,1,.17.28c0,.34.1.68.13,1a.45.45,0,0,1-.09.32.48.48,0,0,1-.29.15l-1,.09,1,0a.44.44,0,0,1,.29.11.42.42,0,0,1,.13.3c0,.38,0,.73,0,1.07a.44.44,0,0,1-.43.42l-1,0,1,.07a.4.4,0,0,1,.29.15.38.38,0,0,1,.11.3c0,.35-.06.7-.11,1a.43.43,0,0,1-.42.37h0l-1-.13,1,.19a.41.41,0,0,1,.27.17.45.45,0,0,1,.07.32c-.07.34-.14.68-.23,1a.42.42,0,0,1-.41.32h-.1l-1-.24.94.29a.42.42,0,0,1,.28.53c-.1.33-.21.66-.34,1a.41.41,0,0,1-.39.27l-.15,0-1-.35.93.4a.43.43,0,0,1,.22.24.4.4,0,0,1,0,.32c-.14.32-.29.63-.45.94a.4.4,0,0,1-.37.23.46.46,0,0,1-.2,0l-.89-.46.86.51a.43.43,0,0,1,.2.26.45.45,0,0,1,0,.32c-.18.3-.36.59-.56.88a.42.42,0,0,1-.35.19.48.48,0,0,1-.23-.07L199,359l.8.6a.42.42,0,0,1,.09.59c-.21.28-.43.55-.65.81a.41.41,0,0,1-.32.15.42.42,0,0,1-.28-.1l-.75-.64.72.68a.43.43,0,0,1,0,.6c-.23.25-.48.5-.73.73a.44.44,0,0,1-.29.12.41.41,0,0,1-.31-.14l-.67-.71.63.75a.41.41,0,0,1-.05.59c-.27.23-.54.44-.82.65a.44.44,0,0,1-.25.08.42.42,0,0,1-.34-.17l-.58-.78.54.81a.43.43,0,0,1-.12.59c-.29.19-.59.37-.88.54a.43.43,0,0,1-.22.06h-.11a.41.41,0,0,1-.25-.2l-.49-.84.44.86a.43.43,0,0,1-.18.58l-.94.44-.17,0a.41.41,0,0,1-.39-.25l-.4-.91.35.93a.42.42,0,0,1-.25.54c-.32.12-.65.23-1,.33a.3.3,0,0,1-.13,0,.35.35,0,0,1-.2-.05.39.39,0,0,1-.2-.25l-.29-.95.23,1a.45.45,0,0,1,0,.32.48.48,0,0,1-.27.19l-1,.22h-.08a.41.41,0,0,1-.41-.35l-.18-1,.12,1a.41.41,0,0,1-.08.32.5.5,0,0,1-.28.16l-1,.1h0a.43.43,0,0,1-.42-.4l-.06-1v1a.42.42,0,0,1-.42.43Zm-12.6-11.64a13.72,13.72,0,0,0,12.61,8.25h.57a13.81,13.81,0,0,0,8.5-3.41l-3.65-3.65a8.66,8.66,0,0,1-5.06,1.91h-.36a8.65,8.65,0,0,1-7.75-4.85Zm23.61,2.75a13.76,13.76,0,0,0-6.58-21.35l-1.35,5a8.67,8.67,0,0,1,5.56,7.71,8.58,8.58,0,0,1-1.57,5.32Zm-17-5.15a6.77,6.77,0,0,0,6,3.6h.28a6.66,6.66,0,0,0,3.79-1.37l-2.55-2.56a3.22,3.22,0,0,1-1.39.39h-.13a3.18,3.18,0,0,1-2.54-1.28Zm11.57.59a6.72,6.72,0,0,0,1.13-4,6.8,6.8,0,0,0-4.16-5.95l-.94,3.5a3.15,3.15,0,0,1,1.55,2.59,3.19,3.19,0,0,1-.33,1.55Zm-5.63-17.53h-.55a13.82,13.82,0,0,0-13.21,14.36,14.54,14.54,0,0,0,.28,2.26l5-1.33a7.64,7.64,0,0,1-.13-1.15,8.66,8.66,0,0,1,8.27-9h.31l.77,0,.91-5.09A15.53,15.53,0,0,0,186.1,336.06Zm-.26,7.06a6.67,6.67,0,0,0-6.38,7.75l3.47-.93a3.2,3.2,0,0,1,2.93-3.27l.64-3.54-.43,0Z" />
  <path d="M185.93,333.1l0,1.5h.82l.06-1.5c.34,0,.68,0,1,.08l-.15,1.5a7.17,7.17,0,0,1,.81.09l.24-1.48c.33.05.66.12,1,.19l-.32,1.47.8.19.4-1.44c.32.09.65.19,1,.3l-.49,1.42.76.29.57-1.4q.47.19.93.42l-.65,1.35c.25.12.49.25.73.38l.72-1.32q.45.24.87.51l-.79,1.27c.23.14.45.31.67.46l.87-1.23c.28.19.55.4.81.61l-.94,1.18c.22.17.43.34.63.52l1-1.12c.25.22.5.46.74.7l-1.08,1.06c.2.2.4.38.58.59l1.11-1c.23.25.45.51.66.77l-1.19.94c.17.22.34.43.5.65l1.22-.86a9.43,9.43,0,0,1,.56.84l-1.27.79c.14.23.27.47.4.71l1.33-.72c.16.29.31.59.46.9l-1.35.63c.11.25.21.51.31.76l1.4-.57c.12.31.24.63.35.95l-1.42.48c.08.26.16.52.23.79l1.45-.41c.09.33.18.66.25,1l-1.48.31c.06.27.12.53.16.81l1.48-.24c.05.33.1.67.13,1l-1.5.14c0,.27.06.54.07.82l1.49-.07v0c0,.34,0,.68,0,1l-1.5,0c0,.27,0,.55,0,.82l1.49.1c0,.34-.05.68-.1,1l-1.49-.2c0,.28-.08.54-.13.81l1.48.28c-.06.33-.14.66-.22,1l-1.45-.37c-.07.27-.15.53-.23.79l1.44.45q-.15.48-.33,1l-1.4-.53c-.1.25-.22.5-.33.75l1.38.61c-.13.31-.28.62-.43.92l-1.34-.69c-.13.24-.26.48-.4.71l1.3.77c-.17.29-.35.57-.54.85l-1.25-.84c-.16.23-.3.46-.47.68l1.2.9c-.2.27-.42.53-.63.79l-1.15-1c-.18.21-.36.42-.55.62l1.1,1-.72.71-1-1.1c-.2.19-.41.37-.62.54l1,1.16c-.25.22-.52.43-.79.63l-.89-1.2c-.22.16-.45.3-.68.45l.83,1.26c-.28.19-.57.37-.86.54l-.75-1.3-.72.38.68,1.35-.91.43-.6-1.38-.76.31.52,1.4c-.31.12-.64.23-1,.33l-.44-1.44-.78.23.35,1.45c-.32.08-.66.15-1,.21l-.27-1.48-.81.13.19,1.49c-.33,0-.67.07-1,.09l-.1-1.5-.4,0h-.42l0,1.5h-.24c-.26,0-.52,0-.78,0l.07-1.49c-.27,0-.54,0-.81-.07l-.15,1.5-1-.13.24-1.47-.8-.17-.32,1.47c-.33-.07-.66-.15-1-.25l.41-1.44c-.26-.07-.52-.16-.78-.25l-.49,1.43c-.32-.11-.64-.23-.95-.36l.58-1.4-.76-.32-.64,1.35c-.31-.14-.61-.3-.9-.46l.73-1.32c-.24-.14-.48-.26-.72-.41l-.79,1.27c-.29-.18-.57-.37-.84-.56l.87-1.23c-.22-.16-.44-.32-.65-.49l-.94,1.18q-.41-.32-.78-.66l1-1.12c-.2-.18-.4-.37-.59-.57l-1.07,1.07c-.24-.24-.47-.48-.69-.74l1.12-1c-.18-.2-.35-.42-.52-.63l-1.18.93c-.21-.26-.41-.53-.61-.81l1.24-.86c-.16-.22-.31-.45-.45-.68l-1.28.79c-.18-.28-.35-.58-.51-.87l1.33-.72c-.13-.24-.27-.48-.39-.72L171,357c-.14-.31-.28-.62-.4-.93l1.4-.56c-.1-.26-.21-.51-.29-.77l-1.42.48c-.11-.31-.21-.64-.3-1l1.45-.4c-.07-.26-.14-.53-.19-.8l-1.48.32c-.07-.33-.13-.66-.18-1l1.48-.22c0-.27-.06-.54-.09-.82l-1.5.15c0-.32-.06-.65-.07-1v0l1.49-.06c0-.27,0-.54,0-.82l-1.5,0c0-.33,0-.67,0-1l1.5.11q0-.4.09-.81l-1.5-.19c0-.34.1-.68.16-1l1.48.29c.05-.27.11-.54.17-.81l-1.46-.36c.08-.32.18-.65.28-1l1.44.45c.08-.26.15-.53.25-.78l-1.4-.53c.12-.31.25-.63.38-.93l1.38.61c.12-.25.23-.5.35-.74l-1.34-.69c.16-.3.32-.6.49-.89l1.3.77c.14-.24.29-.47.44-.69l-1.26-.84c.19-.28.38-.56.59-.83l1.19.9c.16-.21.35-.42.52-.63l-1.15-1c.21-.26.44-.51.67-.75l1.09,1c.19-.2.39-.39.59-.57l-1-1.1c.24-.23.5-.46.76-.67l1,1.16c.21-.18.41-.36.63-.52l-.9-1.2c.27-.2.55-.4.83-.58l.83,1.26c.23-.15.45-.31.69-.44l-.76-1.3c.29-.17.59-.33.89-.48l.68,1.34.74-.35-.6-1.38.93-.38.52,1.41c.26-.1.52-.17.78-.25l-.44-1.45c.32-.09.65-.19,1-.26l.35,1.45c.26-.07.53-.11.8-.16l-.27-1.48c.33-.07.66-.12,1-.16l.18,1.49c.27,0,.54-.06.82-.08l-.11-1.5c.33,0,.67,0,1,0m-13.62,20.11,5.8-1.55a8.7,8.7,0,0,1-.2-1.46,8.23,8.23,0,0,1,7.87-8.55h.29a8.05,8.05,0,0,1,1.11.08l1.07-5.92a15.36,15.36,0,0,0-2.16-.16h-.56a14.22,14.22,0,0,0-13.61,14.79,13.31,13.31,0,0,0,.39,2.77m24.87,5.55a14.17,14.17,0,0,0-6.94-22.5l-1.56,5.8a8.2,8.2,0,0,1,3.93,12.83l4.57,3.87m-18.05-7.37,4.27-1.13a2.93,2.93,0,0,1-.05-.29,2.77,2.77,0,0,1,2.66-2.88h.21l.78-4.35a7,7,0,0,0-.92-.06h-.25a7.12,7.12,0,0,0-6.7,8.7m12.68,2.82a7.16,7.16,0,0,0-3.4-11.14l-1.15,4.27a2.78,2.78,0,0,1,1.63,2.4,2.84,2.84,0,0,1-.45,1.63l3.37,2.84M186.12,357h.3a7.13,7.13,0,0,0,4.4-1.76l-3.12-3.14a2.67,2.67,0,0,1-1.46.5h-.12a2.73,2.73,0,0,1-2.37-1.36l-4.17,1.5a7.16,7.16,0,0,0,6.54,4.26m0,7.05h.59a14.16,14.16,0,0,0,9.09-3.81L191.57,356a8.21,8.21,0,0,1-5.11,2.06h-.34a8.23,8.23,0,0,1-7.53-4.95l-5.65,2a14.24,14.24,0,0,0,13.18,8.92m-.19-31.82h0c-.35,0-.71,0-1.06.05a.83.83,0,0,0-.46.17.78.78,0,0,0-.37-.09h-.11c-.35,0-.7.1-1,.16a1,1,0,0,0-.44.23.87.87,0,0,0-.28,0l-.2,0-1,.28a.89.89,0,0,0-.41.28.65.65,0,0,0-.2,0,.77.77,0,0,0-.29,0c-.33.12-.66.26-1,.4a.88.88,0,0,0-.37.32h-.1a.85.85,0,0,0-.38.09c-.31.16-.63.33-.93.51a.84.84,0,0,0-.34.36h0a.83.83,0,0,0-.47.14c-.29.19-.58.4-.87.61a.93.93,0,0,0-.29.39.87.87,0,0,0-.45.2c-.27.22-.53.46-.79.7a.94.94,0,0,0-.25.43.86.86,0,0,0-.42.24c-.24.26-.48.52-.71.79a.81.81,0,0,0-.19.45.9.9,0,0,0-.4.29c-.21.28-.42.58-.62.87a.92.92,0,0,0-.14.47.87.87,0,0,0-.36.33c-.18.31-.35.62-.51.94a.81.81,0,0,0-.09.48.88.88,0,0,0-.32.37c-.14.32-.28.66-.4,1a.82.82,0,0,0,0,.49.8.8,0,0,0-.28.41c-.11.33-.2.68-.29,1a.92.92,0,0,1-.2.93c-.07.34-.12.7-.17,1.05a.86.86,0,0,0,.08.48.83.83,0,0,0-.17.46c0,.35,0,.71,0,1.06a.85.85,0,0,0,.13.47.94.94,0,0,0-.12.47c0,.38,0,.73.08,1.07a.81.81,0,0,0,.18.45.88.88,0,0,0-.07.48c.06.35.12.7.2,1a1,1,0,0,1,.22.92c.09.34.2.68.31,1a.9.9,0,0,0,.29.4.93.93,0,0,0,0,.49c.13.32.28.65.43,1a.77.77,0,0,0,.33.36.74.74,0,0,0,.1.48c.16.31.34.62.53.92a.76.76,0,0,0,.37.32.8.8,0,0,0,.15.47c.2.29.42.58.64.85a.8.8,0,0,0,.4.28.84.84,0,0,0,.2.45c.24.26.48.52.73.77a.86.86,0,0,0,.43.23.81.81,0,0,0,.26.42q.39.36.81.69a.8.8,0,0,0,.45.18.88.88,0,0,0,.3.39l.89.59a.9.9,0,0,0,.45.13h0a.84.84,0,0,0,.35.35l.94.49a1,1,0,0,0,.37.08h.12a.77.77,0,0,0,.38.31c.33.14.66.26,1,.38a.84.84,0,0,0,.27,0,.78.78,0,0,0,.22,0,.82.82,0,0,0,.41.27c.34.1.69.18,1,.26l.18,0a.81.81,0,0,0,.31-.06.79.79,0,0,0,.44.21c.35.06.7.11,1,.14h.09a.87.87,0,0,0,.39-.1.88.88,0,0,0,.47.16l.81,0h.25a.9.9,0,0,0,.46-.15.88.88,0,0,0,.42.11h.06c.35,0,.71-.06,1.06-.1a1,1,0,0,0,.45-.2.93.93,0,0,0,.33.07l.15,0c.35-.06.7-.14,1.05-.22a.86.86,0,0,0,.42-.25,1,1,0,0,0,.24,0,1.09,1.09,0,0,0,.25,0c.34-.1.68-.22,1-.34a.83.83,0,0,0,.39-.3l.15,0a1,1,0,0,0,.34-.07l1-.46a.88.88,0,0,0,.35-.34h.05a.82.82,0,0,0,.43-.12c.3-.18.61-.36.9-.56a.76.76,0,0,0,.31-.38.81.81,0,0,0,.47-.16c.28-.21.56-.43.83-.66a.95.95,0,0,1,.71-.63c.25-.24.51-.49.75-.75a.84.84,0,0,0,.22-.44.78.78,0,0,0,.41-.26c.23-.27.45-.55.67-.83a.89.89,0,0,0,.17-.46.86.86,0,0,0,.37-.31q.3-.45.57-.9a.84.84,0,0,0,.12-.48.88.88,0,0,0,.34-.35c.16-.32.32-.64.46-1a.8.8,0,0,0,.06-.48.89.89,0,0,0,.3-.39c.12-.33.24-.67.35-1a.92.92,0,0,1,.25-.91c.09-.34.17-.69.23-1a.9.9,0,0,0,0-.49.78.78,0,0,0,.2-.45c.05-.35.08-.7.11-1.06a.86.86,0,0,0-.11-.47.87.87,0,0,0,.15-.47c0-.35,0-.71,0-1.06a1,1,0,0,0-.17-.49.85.85,0,0,0,.1-.5c0-.35-.08-.7-.13-1.05a.8.8,0,0,0-.22-.44.81.81,0,0,0,0-.49c-.07-.35-.15-.69-.25-1a.84.84,0,0,0-.26-.42.82.82,0,0,0,0-.49c-.11-.33-.24-.67-.37-1a.77.77,0,0,0-.31-.38.8.8,0,0,0-.07-.48c-.15-.32-.31-.64-.48-.95a.82.82,0,0,0-.35-.34.83.83,0,0,0-.13-.48c-.18-.3-.38-.6-.58-.88a.76.76,0,0,0-.39-.3.8.8,0,0,0-.18-.46c-.22-.28-.45-.55-.68-.81a.85.85,0,0,0-.42-.26.83.83,0,0,0-.23-.43c-.25-.25-.51-.5-.77-.73a.81.81,0,0,0-.45-.21.76.76,0,0,0-.28-.4c-.27-.22-.56-.44-.85-.64a.94.94,0,0,1-.78-.53c-.3-.19-.61-.37-.92-.54a.86.86,0,0,0-.41-.1h-.07a.85.85,0,0,0-.37-.33c-.31-.15-.64-.3-1-.43a.87.87,0,0,0-.32-.06h-.17a.81.81,0,0,0-.4-.28c-.33-.12-.68-.23-1-.32a.83.83,0,0,0-.22,0,.8.8,0,0,0-.27,0,.83.83,0,0,0-.43-.24l-1-.2h-.14a.85.85,0,0,0-.35.08.87.87,0,0,0-.45-.19c-.35,0-.71-.06-1.06-.07h0a.83.83,0,0,0-.44.12.81.81,0,0,0-.46-.14Zm-13,19.91a14.85,14.85,0,0,1-.19-1.75,13.38,13.38,0,0,1,12.81-13.91h.52a11.25,11.25,0,0,1,1.16.05l-.76,4.26h-.74a9.07,9.07,0,0,0-8.68,9.43,7.78,7.78,0,0,0,.07.82L173,352.16Zm16.75-10.62,1.13-4.18a13.33,13.33,0,0,1,6.22,20.17l-3.3-2.79a9,9,0,0,0-4.05-13.2Zm-9.88,8.79c0-.07,0-.14,0-.21a6.33,6.33,0,0,1,6.05-6.58H186l-.5,2.75a3.64,3.64,0,0,0-3,3.32l-2.69.72Zm8.43-3.39.73-2.71a6.36,6.36,0,0,1,3.46,5.36,6.43,6.43,0,0,1-.81,3.36l-2.13-1.8a3.73,3.73,0,0,0,.24-1.44,3.62,3.62,0,0,0-1.49-2.77Zm-7.47,6.29,2.66-1a3.64,3.64,0,0,0,2.68,1.2h.15a3.57,3.57,0,0,0,1.28-.3l2,2a6.27,6.27,0,0,1-3.16,1h-.26a6.34,6.34,0,0,1-5.34-2.94Zm-6.7,2.41,4.08-1.47a9.06,9.06,0,0,0,8,4.75h.38a9,9,0,0,0,5-1.77l3.06,3.07a13.38,13.38,0,0,1-7.89,3h-.55a13.31,13.31,0,0,1-12-7.59Z" />
  <path class="GUNDAN_FROG_JEWELRY_FROG_JEWELRY_12_cls-2" d="M213.33,359.1h-.5a.47.47,0,0,1-.29-.14.39.39,0,0,1-.26.09h0l-.66-.08a.33.33,0,0,0-.49-.1H211l-.65-.17a.43.43,0,0,1-.25-.19.34.34,0,0,1-.18,0l-.13,0q-.31-.11-.63-.24a.4.4,0,0,1-.22-.22.34.34,0,0,1-.14,0,.39.39,0,0,1-.18,0,6.54,6.54,0,0,1-.59-.3.39.39,0,0,1-.2-.25h-.09a.43.43,0,0,1-.22-.06l-.55-.37a.41.41,0,0,1-.17-.27h0a.39.39,0,0,1-.27-.1c-.17-.13-.34-.28-.5-.43a.35.35,0,0,1-.14-.28.4.4,0,0,1-.29-.12c-.16-.16-.31-.32-.46-.49a.4.4,0,0,1-.1-.29.45.45,0,0,1-.28-.16l-.4-.53a.51.51,0,0,1-.07-.31.43.43,0,0,1-.25-.19,6.48,6.48,0,0,1-.33-.57.38.38,0,0,1,0-.31.45.45,0,0,1-.23-.22,6.65,6.65,0,0,1-.27-.61.42.42,0,0,1,0-.31.4.4,0,0,1-.2-.24c-.08-.21-.14-.43-.2-.64a.41.41,0,0,1,0-.31.4.4,0,0,1-.18-.26q-.08-.33-.12-.66a.39.39,0,0,1,.07-.3.44.44,0,0,1-.14-.28c0-.21,0-.43-.05-.64a.54.54,0,0,1,.11-.32.41.41,0,0,1-.12-.3l0-.66a.42.42,0,0,1,.14-.28.48.48,0,0,1-.08-.31c0-.22.06-.44.11-.66a.41.41,0,0,1,.17-.26.45.45,0,0,1-.05-.32l.18-.64a.48.48,0,0,1,.2-.24.5.5,0,0,1,0-.32c.08-.2.17-.41.26-.61a.4.4,0,0,1,.22-.22.45.45,0,0,1,0-.32l.32-.58a.43.43,0,0,1,.25-.19.38.38,0,0,1,.07-.31c.12-.19.25-.37.38-.54a.44.44,0,0,1,.27-.17.42.42,0,0,1,.1-.3c.14-.17.29-.33.44-.49a.41.41,0,0,1,.29-.13.46.46,0,0,1,.13-.29l.5-.44a.38.38,0,0,1,.27-.1h0a.47.47,0,0,1,.16-.27c.18-.13.36-.26.55-.38a.39.39,0,0,1,.23-.07h.07a.41.41,0,0,1,.2-.25l.58-.32a.45.45,0,0,1,.19,0l.13,0a.4.4,0,0,1,.22-.22c.2-.09.41-.18.61-.25l.15,0a.33.33,0,0,1,.17,0,.4.4,0,0,1,.24-.2c.22-.07.43-.13.65-.18h.1a.42.42,0,0,1,.21.06.41.41,0,0,1,.26-.17l.66-.11H212a.41.41,0,0,0,.54-.05l.66,0h0a.46.46,0,0,1,.29.11.38.38,0,0,1,.27-.1h0l.67,0a.48.48,0,0,1,.28.15.4.4,0,0,1,.24-.07h.06l.66.12a.44.44,0,0,1,.26.18.46.46,0,0,1,.2,0l.11,0,.64.19a.45.45,0,0,1,.24.21l.15,0a.41.41,0,0,1,.16,0l.61.27a.45.45,0,0,1,.22.23h.11a.46.46,0,0,1,.2.05c.19.11.39.22.57.34a.43.43,0,0,1,.19.25h.06a.46.46,0,0,1,.25.08l.53.4a.41.41,0,0,1,.15.27h0a.43.43,0,0,1,.28.11c.16.14.33.3.48.46a.43.43,0,0,1,.13.29.37.37,0,0,1,.28.14c.15.16.29.33.42.5a.44.44,0,0,1,.09.31.4.4,0,0,1,.27.17c.13.18.25.36.37.55a.45.45,0,0,0,.29.51c.11.2.21.4.3.59a.4.4,0,0,1,0,.32.39.39,0,0,1,.22.23c.08.2.16.41.23.62a.44.44,0,0,1,0,.32.41.41,0,0,1,.19.25c.06.21.11.42.16.64a.42.42,0,0,1-.06.31.38.38,0,0,1,.16.27q.06.33.09.66a.39.39,0,0,1-.09.3.46.46,0,0,1,.13.28c0,.26,0,.48,0,.7a.43.43,0,0,1-.12.29.45.45,0,0,1,.09.3c0,.22,0,.45-.07.67a.41.41,0,0,1-.15.27.42.42,0,0,1,.06.31c0,.22-.09.43-.14.65a.41.41,0,0,1-.19.25.44.44,0,0,1,0,.32c-.07.21-.14.42-.22.63a.4.4,0,0,1-.21.23.5.5,0,0,1,0,.32c-.09.2-.19.4-.29.6a.4.4,0,0,1-.24.2.45.45,0,0,1,0,.32c-.11.19-.23.38-.35.56a.48.48,0,0,1-.26.18.4.4,0,0,1-.09.3c-.13.18-.27.35-.41.52a.43.43,0,0,1-.28.15.4.4,0,0,1-.12.29l-.47.47a.44.44,0,0,1-.29.11h0a.39.39,0,0,1-.15.28c-.17.14-.34.28-.52.41a.38.38,0,0,1-.25.09h-.06a.39.39,0,0,1-.17.25c-.19.13-.38.24-.57.35a.42.42,0,0,1-.21.06h-.1a.45.45,0,0,1-.21.24c-.19.1-.4.19-.6.28a.47.47,0,0,1-.17,0,.32.32,0,0,1-.14,0,.45.45,0,0,1-.24.21c-.2.08-.42.15-.63.21a.25.25,0,0,1-.12,0,.38.38,0,0,1-.19,0,.49.49,0,0,1-.26.18l-.65.14h-.08a.48.48,0,0,1-.23-.07.43.43,0,0,1-.28.15q-.31,0-.66.06h0a.47.47,0,0,1-.28-.09.48.48,0,0,1-.29.12Zm-7.74-7.42a8.52,8.52,0,0,0,7.75,5h.36a8.56,8.56,0,0,0,5.14-2l-2.1-2.11a5.5,5.5,0,0,1-3.16,1.17h-.23a5.6,5.6,0,0,1-5-3Zm14.67,1.42a8.46,8.46,0,0,0,1.63-5.36,8.57,8.57,0,0,0-5.65-7.69l-.77,2.87a5.61,5.61,0,0,1,3.48,4.94,5.51,5.51,0,0,1-.95,3.33Zm-10.45-2.94a4.12,4.12,0,0,0,3.54,2h.17a4,4,0,0,0,2.15-.74l-1.4-1.39a2.15,2.15,0,0,1-.83.2h0a2.23,2.23,0,0,1-1.74-.78Zm7,0a4,4,0,0,0,.6-2.29,4.1,4.1,0,0,0-2.36-3.53l-.52,1.91a2.16,2.16,0,0,1,1,1.7,2.13,2.13,0,0,1-.18.94ZM213,339.55a8.56,8.56,0,0,0-8.19,8.9,8.88,8.88,0,0,0,.14,1.24l2.86-.76c0-.21-.05-.41-.06-.61a5.62,5.62,0,0,1,5.37-5.84h.17l.39,0,.52-2.92a8.38,8.38,0,0,0-.86,0Zm.19,4.44a4.11,4.11,0,0,0-3.93,4.27,2.45,2.45,0,0,0,0,.27l1.9-.5a2.18,2.18,0,0,1,1.88-2.09l.35-1.95h-.22Z" />
  <path d="M213.23,337.51v.95h.52l0-1,.63.05-.09.94.51.06.15-.93.63.12-.21.93c.17,0,.34.07.5.12l.26-.91c.2.05.41.12.61.19l-.31.9a4.84,4.84,0,0,1,.49.18l.35-.88.59.25-.41.86c.16.07.31.16.46.24l.46-.84.55.33-.51.8c.15.09.29.19.43.29l.55-.78.51.39-.59.74.39.33.64-.7a6.33,6.33,0,0,1,.46.44l-.68.67c.13.12.25.24.37.37l.7-.63c.14.16.28.32.41.49l-.75.59c.11.13.22.27.32.41L222,342l.36.54-.81.5c.09.14.17.29.26.44l.83-.45c.1.18.2.37.29.57l-.85.4c.07.15.13.32.2.47l.88-.35c.08.19.15.39.22.6l-.9.3a4.58,4.58,0,0,1,.15.49l.92-.25a6.23,6.23,0,0,1,.15.62l-.93.2c0,.17.07.34.1.51l.94-.15c0,.21.06.42.08.63l-.95.1c0,.17,0,.34,0,.51l.94,0v0q0,.31,0,.63H223c0,.17,0,.34,0,.51l.94.07c0,.21,0,.43-.07.64l-.94-.13c0,.18,0,.35-.08.51l.93.18c0,.21-.08.42-.13.62l-.92-.23c0,.17-.1.34-.15.5l.91.28a6.26,6.26,0,0,1-.21.61l-.88-.34c-.06.17-.13.32-.2.48l.87.39c-.09.19-.18.38-.28.57l-.84-.43-.25.45.82.48-.34.54-.8-.53c-.09.15-.19.29-.29.43l.76.57-.4.5-.73-.62-.34.39.69.65c-.15.15-.3.31-.46.45l-.65-.69c-.12.11-.25.23-.39.34l.62.73c-.16.13-.33.27-.5.39l-.57-.75a4.55,4.55,0,0,1-.43.28l.53.8-.54.34-.48-.82-.45.24.43.85c-.19.09-.38.19-.58.27l-.38-.87-.48.2.33.88a6.08,6.08,0,0,1-.6.21l-.28-.91-.5.14.23.92-.63.13-.17-.93-.51.08.12.94-.63.06-.07-.95-.25,0h-.27l0,.95h-.64l0-.94-.51-.05-.1.95-.63-.08.15-.93-.51-.11-.2.93c-.21,0-.42-.1-.62-.15l.26-.91-.5-.16-.31.9-.6-.23.37-.88-.48-.2-.41.85-.57-.29.47-.84a4.79,4.79,0,0,1-.45-.25l-.51.8a6.18,6.18,0,0,1-.53-.36l.55-.77-.41-.31-.59.74c-.17-.13-.33-.27-.49-.41l.63-.71-.37-.36-.67.68c-.15-.15-.3-.31-.44-.47l.71-.63c-.12-.13-.22-.26-.33-.4l-.75.6c-.13-.17-.26-.34-.38-.52l.78-.54c-.1-.14-.19-.29-.28-.43l-.81.5-.32-.55.84-.46c-.09-.15-.17-.3-.25-.45l-.85.4c-.09-.19-.18-.39-.26-.58l.89-.36c-.07-.16-.13-.32-.19-.48l-.89.3c-.07-.2-.13-.4-.19-.61l.92-.25c-.05-.17-.09-.33-.13-.5l-.93.2c0-.21-.08-.42-.11-.63l.93-.14-.06-.52-.94.09c0-.2,0-.4,0-.61v0l.94,0c0-.17,0-.34,0-.52h-.95c0-.21,0-.43,0-.64l1,.07c0-.17,0-.34,0-.51l-.94-.12c0-.22.06-.43.1-.64l.94.18c0-.17.06-.34.1-.5l-.92-.23a6.32,6.32,0,0,1,.18-.62l.91.29c.05-.17.09-.34.15-.5l-.88-.33.24-.59.87.39c.08-.16.15-.32.22-.47l-.84-.43c.1-.19.2-.38.31-.57l.82.49c.08-.15.18-.3.27-.44l-.79-.53c.12-.17.24-.35.37-.52l.75.57.33-.4-.73-.61c.14-.17.28-.33.43-.48l.69.65.37-.36-.66-.69.48-.43.61.74.4-.33-.56-.76.52-.37.52.8.44-.28L208,339c.18-.1.37-.21.56-.3l.43.85.47-.22-.38-.88.59-.23.33.88.49-.16-.28-.91.62-.17.22.92.51-.1-.18-.94.63-.1.12.94.52,0-.07-.95c.21,0,.42,0,.64,0m-8.61,12.7,3.67-1a6.79,6.79,0,0,1-.13-.92,5.19,5.19,0,0,1,5-5.4h.15a6.13,6.13,0,0,1,.74,0l.67-3.74a8.81,8.81,0,0,0-1.36-.11H213a9,9,0,0,0-8.6,9.34,9.11,9.11,0,0,0,.24,1.75m15.71,3.5a8.94,8.94,0,0,0-4.38-14.2l-1,3.67a5.14,5.14,0,0,1,2.47,8.08l2.9,2.45m-11.39-4.65,2.68-.71c0-.06,0-.12,0-.19a1.74,1.74,0,0,1,1.67-1.81h.14l.49-2.73a4.32,4.32,0,0,0-.62-.05h-.12a4.54,4.54,0,0,0-4.34,4.71,4.88,4.88,0,0,0,.12.78m8,1.77a4.47,4.47,0,0,0-2.13-7l-.72,2.69a1.71,1.71,0,0,1,1,1.51,1.74,1.74,0,0,1-.28,1l2.11,1.78m-3.58,1.79h.19a4.47,4.47,0,0,0,2.77-1.12l-2-2a1.72,1.72,0,0,1-.92.31h-.07a1.74,1.74,0,0,1-1.5-.86l-2.63.95a4.53,4.53,0,0,0,4.12,2.69m0,4.45h.38a8.91,8.91,0,0,0,5.74-2.41L216.77,352a5.16,5.16,0,0,1-3.21,1.32h-.22a5.17,5.17,0,0,1-4.74-3.13L205,351.44a9,9,0,0,0,8.32,5.63m-.11-20.4h0l-.69,0a1,1,0,0,0-.3.08l-.21,0h-.1l-.69.11a.86.86,0,0,0-.28.11h-.11a.65.65,0,0,0-.2,0c-.23.05-.45.12-.67.18a.94.94,0,0,0-.28.15h0a.93.93,0,0,0-.29.05l-.65.26a.85.85,0,0,0-.25.17.8.8,0,0,0-.3.09l-.61.33a.74.74,0,0,0-.23.2,1.08,1.08,0,0,0-.29.13c-.19.12-.38.26-.56.39a.76.76,0,0,0-.21.23.72.72,0,0,0-.27.15l-.52.46a.88.88,0,0,0-.18.25.92.92,0,0,0-.25.19,5.57,5.57,0,0,0-.46.51.92.92,0,0,0-.16.27.9.9,0,0,0-.23.21l-.4.56a1,1,0,0,0-.12.29.74.74,0,0,0-.2.23c-.12.2-.23.41-.34.61a1.11,1.11,0,0,0-.08.3.72.72,0,0,0-.18.25c-.09.21-.18.43-.26.64a.85.85,0,0,0-.06.31.92.92,0,0,0-.14.28c-.07.22-.13.44-.19.66a1.1,1.1,0,0,0,0,.31,1,1,0,0,0-.11.29c0,.23-.08.46-.11.69a.81.81,0,0,0,0,.31.74.74,0,0,0-.08.3q0,.35,0,.69a1,1,0,0,0,.05.3.8.8,0,0,0,0,.31c0,.25,0,.47,0,.69a.86.86,0,0,0,.09.3.8.8,0,0,0,0,.31c0,.22.08.45.13.68a.7.7,0,0,0,.12.28.81.81,0,0,0,0,.31c.06.23.13.45.21.67a.72.72,0,0,0,.15.27.8.8,0,0,0,.06.3c.08.21.18.43.27.63a1,1,0,0,0,.19.26.75.75,0,0,0,.09.29c.11.2.23.4.35.6a.93.93,0,0,0,.21.23.79.79,0,0,0,.13.28c.13.19.27.37.41.55a.9.9,0,0,0,.23.21,1,1,0,0,0,.16.26l.48.51a.85.85,0,0,0,.25.17.92.92,0,0,0,.19.25l.53.44a.81.81,0,0,0,.27.15.77.77,0,0,0,.22.22q.28.21.57.39a1,1,0,0,0,.29.11.91.91,0,0,0,.24.2l.62.32a1,1,0,0,0,.3.08.76.76,0,0,0,.26.16l.65.25a.86.86,0,0,0,.27,0h0a.74.74,0,0,0,.28.14c.22.07.44.12.67.17l.18,0h.13a.77.77,0,0,0,.29.1q.35.06.69.09h.08a.91.91,0,0,0,.23,0,.94.94,0,0,0,.3.07h.69a.73.73,0,0,0,.3-.06,1.09,1.09,0,0,0,.25,0h.06l.69-.07a.77.77,0,0,0,.29-.1l.16,0,.16,0c.22,0,.45-.08.67-.14a.72.72,0,0,0,.28-.13h.07a1,1,0,0,0,.24,0l.66-.22a.92.92,0,0,0,.27-.16,1.09,1.09,0,0,0,.3-.07c.21-.09.42-.19.62-.3a.79.79,0,0,0,.25-.19.77.77,0,0,0,.29-.1c.2-.11.4-.24.59-.36a.92.92,0,0,0,.22-.22.74.74,0,0,0,.28-.14c.19-.13.37-.28.54-.42a.91.91,0,0,0,.2-.24.78.78,0,0,0,.26-.17l.49-.49a.78.78,0,0,0,.17-.26.88.88,0,0,0,.24-.19c.15-.18.3-.36.43-.54a.82.82,0,0,0,.14-.28.77.77,0,0,0,.22-.22c.13-.19.25-.39.37-.59a.77.77,0,0,0,.1-.29.67.67,0,0,0,.19-.25c.11-.2.21-.41.3-.62a.67.67,0,0,0,.07-.31.78.78,0,0,0,.17-.26c.08-.22.15-.44.22-.66a.8.8,0,0,0,0-.31.9.9,0,0,0,.13-.28l.15-.67a.81.81,0,0,0,0-.31.75.75,0,0,0,.09-.3c0-.23.06-.46.07-.69a.82.82,0,0,0,0-.31.73.73,0,0,0,.06-.3c0-.23,0-.46,0-.69a.88.88,0,0,0-.07-.32.85.85,0,0,0,0-.32c0-.23-.05-.46-.09-.68a.76.76,0,0,0-.1-.3.82.82,0,0,0,0-.31c-.05-.22-.1-.45-.16-.67a.92.92,0,0,0-.14-.28,1.1,1.1,0,0,0,0-.31c-.08-.21-.16-.43-.25-.64a.92.92,0,0,0-.16-.27,1.11,1.11,0,0,0-.08-.3c-.1-.2-.2-.41-.31-.61a1.16,1.16,0,0,0-.2-.24,1,1,0,0,0-.11-.29l-.38-.58a.91.91,0,0,0-.23-.21,1,1,0,0,0-.14-.28c-.14-.18-.29-.36-.45-.53a.88.88,0,0,0-.24-.19.72.72,0,0,0-.18-.25l-.5-.48a1,1,0,0,0-.26-.16.77.77,0,0,0-.21-.23c-.18-.15-.36-.29-.55-.42a1,1,0,0,0-.28-.13.93.93,0,0,0-.23-.21l-.6-.35a1,1,0,0,0-.29-.1,1.14,1.14,0,0,0-.25-.18l-.64-.28a.8.8,0,0,0-.3-.06.92.92,0,0,0-.27-.16l-.67-.2a.83.83,0,0,0-.22,0h-.09a.88.88,0,0,0-.28-.12l-.68-.13H215l-.18,0a.8.8,0,0,0-.3-.09l-.69-.05h0a.86.86,0,0,0-.27.05.71.71,0,0,0-.29-.05Zm-7.94,12.49a6.21,6.21,0,0,1-.07-.73A8.15,8.15,0,0,1,213,340h.68l-.37,2.09h-.22a6,6,0,0,0-4.19,1.95,5.92,5.92,0,0,0-1.59,4.33c0,.09,0,.18,0,.27l-2,.55ZM216,342.68l.56-2.06a8.1,8.1,0,0,1,3.65,11.86l-1.63-1.38a5.93,5.93,0,0,0,.83-3.26,6.07,6.07,0,0,0-3.41-5.16Zm-6.3,5.31a3.62,3.62,0,0,1,1-2.39,3.73,3.73,0,0,1,2.25-1.16l-.21,1.14a2.61,2.61,0,0,0-1.9,2.11l-1.11.3Zm5.37-1.86.3-1.11a3.61,3.61,0,0,1,1.68,2.92,3.5,3.5,0,0,1-.31,1.6l-.87-.73a2.53,2.53,0,0,0,.1-.82,2.59,2.59,0,0,0-.9-1.86Zm-4.57,4.24,1.1-.39a2.6,2.6,0,0,0,1.78.71h.1a2.49,2.49,0,0,0,.72-.14l.82.82a3.56,3.56,0,0,1-1.49.4h-.16a3.67,3.67,0,0,1-2.87-1.4Zm-4.29,1.55,2-.72a6,6,0,0,0,5.15,2.93h.26a5.88,5.88,0,0,0,3.1-1l1.51,1.51a8.15,8.15,0,0,1-4.53,1.62h-.34a8.09,8.09,0,0,1-7.16-4.3Z" />
  <path class="GUNDAN_FROG_JEWELRY_FROG_JEWELRY_12_cls-3" d="M258.06,360.9h-.77a.44.44,0,0,1-.29-.14.4.4,0,0,1-.11-.31v0a.42.42,0,0,1-.42.38h0c-.32,0-.65-.07-1-.13a.41.41,0,0,1-.35-.48v-.07l0,.07a.42.42,0,0,1-.41.33h-.09l-1-.23a.45.45,0,0,1-.26-.21.44.44,0,0,1,0-.32l0-.09,0,.09a.43.43,0,0,1-.22.24.37.37,0,0,1-.18.05.32.32,0,0,1-.14,0c-.31-.1-.62-.22-.92-.34a.43.43,0,0,1-.23-.56l0-.05,0,.05a.45.45,0,0,1-.25.22.32.32,0,0,1-.14,0,.39.39,0,0,1-.18,0c-.29-.14-.59-.29-.87-.45a.44.44,0,0,1-.21-.25.45.45,0,0,1,0-.32l0-.06,0,.06a.42.42,0,0,1-.27.18l-.09,0a.48.48,0,0,1-.23-.07c-.27-.17-.55-.36-.81-.55a.42.42,0,0,1-.1-.59l0,0,0,0a.43.43,0,0,1-.34.16.43.43,0,0,1-.26-.09c-.26-.2-.51-.42-.75-.63a.47.47,0,0,1-.14-.3.38.38,0,0,1,.11-.3l0,0,0,0a.43.43,0,0,1-.6,0c-.23-.24-.46-.48-.67-.72a.39.39,0,0,1-.11-.31.47.47,0,0,1,.14-.29h0a.43.43,0,0,1-.26.09.39.39,0,0,1-.33-.16c-.21-.25-.4-.52-.59-.78a.41.41,0,0,1-.07-.32.46.46,0,0,1,.17-.28h0a.36.36,0,0,1-.22.07.42.42,0,0,1-.36-.2c-.17-.28-.34-.56-.49-.85a.4.4,0,0,1,0-.32.45.45,0,0,1,.21-.26h0a.41.41,0,0,1-.19,0,.41.41,0,0,1-.38-.24c-.14-.29-.27-.59-.39-.89a.47.47,0,0,1,0-.33.51.51,0,0,1,.23-.23l.06,0-.06,0a.3.3,0,0,1-.13,0,.41.41,0,0,1-.19,0,.45.45,0,0,1-.22-.25c-.1-.3-.2-.62-.28-.93a.42.42,0,0,1,0-.33.5.5,0,0,1,.25-.2h-.09a.42.42,0,0,1-.41-.33c-.07-.32-.13-.65-.18-1a.42.42,0,0,1,.36-.48h-.05a.43.43,0,0,1-.42-.38c0-.31,0-.63-.06-.95a.42.42,0,0,1,.11-.32.41.41,0,0,1,.29-.15.44.44,0,0,1-.42-.43c0-.33,0-.66.05-1a.42.42,0,0,1,.14-.29.43.43,0,0,1,.28-.11h0a.42.42,0,0,1-.36-.47c0-.32.09-.65.15-1a.39.39,0,0,1,.18-.27.41.41,0,0,1,.24-.08l.12,0h0a.42.42,0,0,1-.31-.51c.07-.32.16-.64.26-.95a.4.4,0,0,1,.21-.25.46.46,0,0,1,.2-.05l.12,0,.08,0-.08,0a.41.41,0,0,1-.23-.22.42.42,0,0,1,0-.33c.12-.3.24-.61.38-.91a.41.41,0,0,1,.38-.25.39.39,0,0,1,.18,0l.07,0-.07,0a.43.43,0,0,1-.19-.57c.15-.29.31-.58.48-.86a.43.43,0,0,1,.26-.19l.1,0a.43.43,0,0,1,.22.06l.06,0-.06,0a.42.42,0,0,1-.18-.27.44.44,0,0,1,.06-.32c.18-.27.37-.54.57-.8a.4.4,0,0,1,.28-.16h.06a.38.38,0,0,1,.25.09l0,0,0,0a.45.45,0,0,1-.05-.6c.21-.25.43-.5.66-.73a.39.39,0,0,1,.3-.13.48.48,0,0,1,.3.11l0,0,0,0a.42.42,0,0,1-.12-.3.44.44,0,0,1,.14-.3c.23-.22.48-.44.73-.65a.41.41,0,0,1,.27-.1.44.44,0,0,1,.33.15v0a.39.39,0,0,1-.08-.31.4.4,0,0,1,.16-.28q.39-.3.81-.57a.48.48,0,0,1,.23-.07.41.41,0,0,1,.35.2l0,0,0,0a.41.41,0,0,1,.16-.57c.28-.17.57-.33.86-.48a.41.41,0,0,1,.19,0,.43.43,0,0,1,.38.23v0a.4.4,0,0,1,0-.32.42.42,0,0,1,.23-.24c.29-.13.6-.25.9-.37l.15,0a.39.39,0,0,1,.18,0,.4.4,0,0,1,.22.24l0,.05,0-.06a.45.45,0,0,1,0-.32.44.44,0,0,1,.25-.21l.95-.26h.1a.43.43,0,0,1,.22.06.45.45,0,0,1,.19.26v0a.42.42,0,0,1,.34-.49c.32-.06.65-.11,1-.15h.06a.44.44,0,0,1,.25.08.48.48,0,0,1,.17.29v0a.43.43,0,0,1,.39-.46l1,0h0a.45.45,0,0,1,.29.12.43.43,0,0,1,.13.3v0a.42.42,0,0,1,.42-.4h0c.33,0,.66,0,1,.07a.42.42,0,0,1,.38.46v0a.42.42,0,0,1,.42-.36h.07l1,.18a.44.44,0,0,1,.33.51l0,.05,0-.05a.42.42,0,0,1,.41-.31h.11l.94.29a.43.43,0,0,1,.24.22.4.4,0,0,1,0,.32l0,.09,0-.09a.45.45,0,0,1,.22-.23.51.51,0,0,1,.17,0,.45.45,0,0,1,.16,0c.3.12.6.26.9.4a.42.42,0,0,1,.2.56l0,.06,0-.06a.45.45,0,0,1,.25-.2l.12,0a.36.36,0,0,1,.2.06c.29.15.58.32.85.49a.44.44,0,0,1,.14.59l0,.05,0-.05a.41.41,0,0,1,.35-.18.46.46,0,0,1,.24.08c.26.18.53.38.78.59a.4.4,0,0,1,.16.28.42.42,0,0,1-.09.31l0,0,0,0a.47.47,0,0,1,.29-.14h0a.43.43,0,0,1,.28.11c.24.22.48.44.71.68a.4.4,0,0,1,.13.3.39.39,0,0,1-.13.29l0,0,0,0a.44.44,0,0,1,.29-.11h0a.44.44,0,0,1,.29.14c.22.24.43.5.63.75a.44.44,0,0,1,.09.31.43.43,0,0,1-.16.29l0,0,0,0a.46.46,0,0,1,.25-.08h.07a.46.46,0,0,1,.28.17l.54.82a.42.42,0,0,1-.14.58l0,0,0,0a.46.46,0,0,1,.2-.05l.12,0a.43.43,0,0,1,.26.2c.15.29.3.58.44.87a.42.42,0,0,1-.2.57h0a.41.41,0,0,1,.16,0,.45.45,0,0,1,.16,0,.43.43,0,0,1,.23.23c.12.31.24.61.34.92a.42.42,0,0,1,0,.33.45.45,0,0,1-.24.21l-.06,0,.06,0h.11a.5.5,0,0,1,.21.05.43.43,0,0,1,.2.26c.09.31.17.63.23.95a.41.41,0,0,1-.32.5l-.06,0,.12,0a.42.42,0,0,1,.42.36c.05.32.1.65.13,1a.44.44,0,0,1-.38.47h0a.44.44,0,0,1,.29.11.41.41,0,0,1,.14.3c0,.36,0,.69,0,1a.43.43,0,0,1-.13.3.4.4,0,0,1-.29.12h0a.41.41,0,0,1,.29.15.41.41,0,0,1,.1.3c0,.33-.06.66-.1,1a.43.43,0,0,1-.42.37h-.06a.41.41,0,0,1,.34.49q-.09.48-.21,1a.38.38,0,0,1-.19.26.43.43,0,0,1-.22.06h-.1l-.06,0,.06,0a.46.46,0,0,1,.25.21.44.44,0,0,1,0,.32c-.1.31-.21.63-.32.93a.44.44,0,0,1-.4.28l-.15,0-.08,0,.08,0a.43.43,0,0,1,.22.24.4.4,0,0,1,0,.32c-.13.3-.27.6-.42.89a.42.42,0,0,1-.57.18l-.07,0,.07,0a.43.43,0,0,1,.15.58c-.17.28-.34.56-.53.83a.39.39,0,0,1-.27.18h-.08a.39.39,0,0,1-.23-.07l0,0,0,0a.44.44,0,0,1,.08.6c-.2.26-.4.51-.62.76a.39.39,0,0,1-.28.15h0a.39.39,0,0,1-.27-.1l0,0,0,0a.43.43,0,0,1,.13.3.42.42,0,0,1-.12.3c-.22.24-.46.47-.69.69a.42.42,0,0,1-.29.12.41.41,0,0,1-.31-.14l0,0,0,0a.4.4,0,0,1,.09.3.4.4,0,0,1-.15.29c-.25.21-.5.42-.77.61a.38.38,0,0,1-.25.08h-.06a.46.46,0,0,1-.28-.17l0,0,0,0a.42.42,0,0,1-.12.59c-.27.18-.55.35-.83.52a.43.43,0,0,1-.22.06l-.1,0a.41.41,0,0,1-.26-.2l0,0,0,0a.42.42,0,0,1,0,.33.39.39,0,0,1-.21.24c-.29.15-.59.29-.89.42a.32.32,0,0,1-.16,0,.42.42,0,0,1-.39-.26l0-.06,0,.06a.42.42,0,0,1,0,.33.43.43,0,0,1-.24.22c-.3.11-.61.22-.93.31a.25.25,0,0,1-.12,0,.46.46,0,0,1-.2-.05.44.44,0,0,1-.21-.25v0a.41.41,0,0,1-.31.51l-1,.21h-.08a.43.43,0,0,1-.24-.08.41.41,0,0,1-.17-.27v0a.42.42,0,0,1-.36.47l-1,.1h0a.39.39,0,0,1-.27-.11.41.41,0,0,1-.15-.29v0a.42.42,0,0,1-.12.3.43.43,0,0,1-.3.13Zm-11.88-11a12.93,12.93,0,0,0,11.87,7.75h.54a13,13,0,0,0,8-3.19L263.17,351a8.26,8.26,0,0,1-4.78,1.8h-.34a8.18,8.18,0,0,1-7.33-4.57Zm22.25,2.55a13,13,0,0,0-6.19-20.09L261,337a8.15,8.15,0,0,1,3.77,12.31Zm-16-4.82a6.35,6.35,0,0,0,5.59,3.36h.27a6.3,6.3,0,0,0,3.54-1.27l-2.38-2.39a3,3,0,0,1-1.3.36h-.13a3,3,0,0,1-2.4-1.2Zm10.88.51a6.32,6.32,0,0,0-2.84-9.33l-.87,3.26a3,3,0,0,1,1.46,2.46,3,3,0,0,1-.31,1.45ZM258,331.67h-.5a13,13,0,0,0-12.45,13.52,12.67,12.67,0,0,0,.26,2.11l4.67-1.25a7.82,7.82,0,0,1-.12-1.06,8.19,8.19,0,0,1,7.83-8.51h.3a5.58,5.58,0,0,1,.7,0l.85-4.76A13.38,13.38,0,0,0,258,331.67Zm-.23,6.66a6.34,6.34,0,0,0-6.07,6.59c0,.22,0,.44.06.67l3.24-.86a3,3,0,0,1,2.77-3.09l.59-3.31h-.59Z" />
  <path d="M257.87,328.85l0,1.42h.78l.05-1.41c.32,0,.64,0,1,.07l-.15,1.41c.26,0,.52.05.77.09l.22-1.39.94.17-.31,1.39c.26.06.51.11.76.18l.38-1.36c.3.08.61.18.91.28l-.46,1.35.72.27L264,330c.29.12.59.25.87.39l-.61,1.28c.24.11.46.24.69.36l.68-1.25c.28.15.56.31.83.48l-.76,1.2c.22.14.43.29.64.44l.82-1.17c.26.19.52.38.77.58l-.89,1.11.59.5.95-1.06c.24.21.47.43.69.65l-1,1c.18.18.37.36.54.55l1.06-.94c.21.24.41.49.61.73l-1.12.89c.16.2.32.4.47.61l1.16-.82c.18.26.36.53.53.8l-1.21.75c.14.22.26.44.38.67l1.25-.69c.16.28.3.57.44.85l-1.28.61c.11.23.2.47.3.71l1.32-.54q.18.45.33.9l-1.34.45c.08.25.15.49.22.74l1.37-.38c.09.31.16.62.23.93l-1.39.3c.05.25.11.5.15.76l1.39-.22c.05.31.09.63.12.94l-1.41.14c0,.26.06.51.07.77l1.4-.06v0c0,.32,0,.64,0,.95l-1.43,0c0,.26,0,.52,0,.77l1.41.1c0,.32-.06.64-.1.95l-1.41-.18c0,.25-.07.51-.12.76l1.4.26c-.06.32-.13.63-.21.94l-1.37-.35c-.06.25-.14.5-.22.74l1.36.43c-.09.3-.2.6-.31.9l-1.32-.5c-.09.24-.2.48-.31.71l1.31.58c-.13.29-.27.58-.42.86l-1.26-.65c-.12.23-.24.46-.37.68l1.22.72q-.24.4-.51.81l-1.18-.8c-.15.22-.28.44-.44.64l1.13.85c-.19.25-.39.51-.6.75L269,354c-.17.2-.34.4-.52.58l1,1c-.21.23-.44.46-.67.67l-1-1c-.18.17-.38.34-.58.51l.92,1.09c-.24.2-.49.4-.75.59l-.84-1.13-.64.43.79,1.19c-.27.17-.54.34-.82.5l-.71-1.23c-.22.13-.45.25-.68.37l.65,1.27c-.28.14-.57.28-.86.4l-.57-1.3c-.24.1-.47.2-.72.29l.5,1.33-.91.31-.41-1.37-.75.23.34,1.36c-.31.08-.62.14-.94.2l-.25-1.4c-.25.05-.51.1-.76.13l.17,1.4c-.31,0-.63.07-.95.09L259,359l-.37,0h-.4l0,1.42H258l-.73,0,.07-1.41-.78-.06-.14,1.41-.95-.12.23-1.39c-.26,0-.51-.11-.76-.16l-.3,1.39-.93-.23.39-1.37-.74-.23-.46,1.34c-.3-.1-.61-.21-.9-.33l.54-1.32-.71-.31-.61,1.28c-.28-.14-.57-.28-.85-.44l.69-1.25c-.22-.12-.45-.24-.67-.38l-.75,1.2-.8-.53.83-1.16c-.21-.15-.42-.3-.62-.47L248.2,357l-.73-.62.95-1.05-.55-.54-1,1c-.23-.23-.45-.46-.66-.7l1.06-.94c-.17-.19-.32-.4-.49-.6l-1.11.89c-.2-.25-.39-.51-.57-.77l1.16-.81c-.15-.21-.29-.43-.43-.65l-1.2.75c-.17-.27-.33-.54-.48-.82l1.25-.68c-.12-.23-.25-.45-.36-.68l-1.28.6c-.13-.29-.26-.58-.38-.87l1.32-.53c-.09-.24-.19-.48-.27-.73l-1.34.46c-.11-.3-.2-.61-.28-.92l1.36-.37-.18-.75-1.39.3c-.06-.31-.12-.63-.17-.94l1.4-.22c0-.25-.06-.51-.09-.76l-1.42.14c0-.31-.05-.62-.06-.92v0l1.4,0c0-.26,0-.52,0-.78l-1.42,0c0-.31,0-.64,0-.95l1.41.1c0-.26.05-.51.08-.77l-1.4-.18c0-.31.09-.63.15-.94l1.39.26c.05-.25.1-.5.16-.75l-1.37-.34c.07-.31.16-.62.26-.92l1.35.42c.08-.24.15-.5.24-.74l-1.32-.49c.11-.3.23-.6.36-.89l1.31.58c.1-.23.21-.47.32-.7l-1.26-.64c.15-.29.3-.57.46-.84l1.23.72c.13-.22.27-.44.41-.65l-1.19-.79c.18-.27.37-.53.56-.78l1.12.85c.16-.21.33-.4.5-.6l-1.09-.92c.2-.24.42-.48.64-.71l1,1c.18-.19.37-.37.55-.54l-1-1c.23-.22.47-.43.71-.63l.92,1.09c.19-.17.39-.33.6-.49l-.85-1.13c.25-.19.51-.38.78-.55l.78,1.19c.22-.14.43-.29.65-.42l-.71-1.22c.27-.16.55-.31.84-.46l.64,1.27.7-.33-.57-1.3c.29-.13.58-.25.88-.36l.49,1.33c.24-.09.49-.16.74-.24l-.42-1.36c.3-.09.61-.18.92-.25l.33,1.36c.25-.06.51-.1.76-.14l-.26-1.4c.31-.06.63-.11.95-.15l.17,1.4.77-.07-.1-1.41c.31,0,.64,0,.95,0m-12.86,19,5.48-1.46a7.89,7.89,0,0,1-.19-1.39,7.78,7.78,0,0,1,7.43-8.07H258a7.41,7.41,0,0,1,1.05.07l1-5.58a13.56,13.56,0,0,0-2-.16h-.53a13.44,13.44,0,0,0-12.86,14,13.91,13.91,0,0,0,.37,2.61m23.49,5.23A13.39,13.39,0,0,0,262,331.83l-1.48,5.47a7.78,7.78,0,0,1,5.33,7,7.66,7.66,0,0,1-1.63,5.07l4.33,3.65m-17.05-6.95,4-1.07a2.51,2.51,0,0,1,0-.27,2.62,2.62,0,0,1,2.51-2.72h.19l.74-4.1a6.36,6.36,0,0,0-.87-.06h-.24a6.79,6.79,0,0,0-6.48,7,7.49,7.49,0,0,0,.16,1.17m12,2.66a6.75,6.75,0,0,0-3.21-10.51l-1.08,4a2.59,2.59,0,0,1,1.11,3.8l3.18,2.68m-5.37,2.66h.28a6.67,6.67,0,0,0,4.16-1.66l-2.95-3a2.51,2.51,0,0,1-1.38.47h-.11a2.61,2.61,0,0,1-2.24-1.29l-3.94,1.41a6.79,6.79,0,0,0,6.18,4m0,6.65h.56a13.35,13.35,0,0,0,8.58-3.6l-4-4a7.7,7.7,0,0,1-4.82,2h-.32a7.77,7.77,0,0,1-7.11-4.68l-5.33,1.92a13.44,13.44,0,0,0,12.44,8.42M257.87,328h0c-.33,0-.67,0-1,0a.81.81,0,0,0-.43.16.85.85,0,0,0-.35-.08H256c-.33,0-.67.09-1,.15a.84.84,0,0,0-.42.21.75.75,0,0,0-.26,0l-.2,0c-.33.08-.65.17-1,.27a.85.85,0,0,0-.39.25l-.17,0a.72.72,0,0,0-.29.06c-.32.11-.63.24-.94.37a.92.92,0,0,0-.35.3h-.07a.82.82,0,0,0-.38.09c-.3.15-.6.31-.89.48a.84.84,0,0,0-.32.33.91.91,0,0,0-.44.14c-.28.18-.55.38-.82.58a.8.8,0,0,0-.28.37.77.77,0,0,0-.42.19c-.26.21-.51.43-.76.66a1,1,0,0,0-.23.4.83.83,0,0,0-.4.24c-.23.24-.46.49-.67.75a.77.77,0,0,0-.19.42.78.78,0,0,0-.37.28c-.2.26-.4.54-.58.82a.79.79,0,0,0-.14.44.87.87,0,0,0-.34.32c-.17.28-.33.58-.48.88a.72.72,0,0,0-.09.45.88.88,0,0,0-.3.36c-.14.31-.26.62-.38.93a.84.84,0,0,0,0,.47.75.75,0,0,0-.25.38c-.1.32-.19.65-.28,1a.93.93,0,0,0,0,.47.85.85,0,0,0-.21.41c-.06.33-.11.66-.16,1a.94.94,0,0,1-.09.9c0,.33,0,.67,0,1a.89.89,0,0,0,.12.45.85.85,0,0,0-.11.44c0,.36,0,.69.07,1a.91.91,0,0,0,.17.43.89.89,0,0,0-.06.46c0,.33.12.66.19,1a1,1,0,0,0,.21.41.9.9,0,0,0,0,.46c.09.32.19.65.29,1a.86.86,0,0,0,.27.38.8.8,0,0,0,.05.46c.12.31.26.62.4.92a.79.79,0,0,0,.3.35.9.9,0,0,0,.1.45q.24.45.51.87a.78.78,0,0,0,.34.31.93.93,0,0,0,.15.44c.19.27.4.54.6.81a1,1,0,0,0,.38.26.78.78,0,0,0,.2.42c.22.25.45.5.69.73a.81.81,0,0,0,.4.23.82.82,0,0,0,.25.39c.25.22.5.44.77.65a.83.83,0,0,0,.42.18.85.85,0,0,0,.29.36l.84.56a.8.8,0,0,0,.44.13.85.85,0,0,0,.33.32c.29.17.6.32.9.47a.94.94,0,0,0,.36.08h.09a.87.87,0,0,0,.37.29c.31.13.63.25.94.35a.66.66,0,0,0,.28.05l.19,0a.83.83,0,0,0,.39.24c.32.09.65.18,1,.25l.18,0a.92.92,0,0,0,.28-.05.81.81,0,0,0,.42.19c.33.06.67.1,1,.13h.08a.78.78,0,0,0,.37-.09.86.86,0,0,0,.44.15l.77,0h.24a.85.85,0,0,0,.44-.14.78.78,0,0,0,.39.1h.06c.33,0,.67-.06,1-.1a.83.83,0,0,0,.43-.18.77.77,0,0,0,.3.06h.16c.33-.06.66-.14,1-.21a.84.84,0,0,0,.4-.23.82.82,0,0,0,.22,0,1.07,1.07,0,0,0,.25,0l.95-.32a.8.8,0,0,0,.37-.28h.13a.75.75,0,0,0,.33-.07c.31-.13.62-.28.91-.43a.79.79,0,0,0,.34-.31h0a.91.91,0,0,0,.42-.11c.29-.17.58-.35.85-.54a.76.76,0,0,0,.31-.35.79.79,0,0,0,.43-.16c.27-.2.53-.41.79-.62A.87.87,0,0,0,269,357a.85.85,0,0,0,.41-.21c.24-.23.48-.46.71-.71a.77.77,0,0,0,.21-.41.82.82,0,0,0,.39-.25c.21-.26.43-.52.63-.79a.87.87,0,0,0,.16-.43.81.81,0,0,0,.36-.3c.18-.28.36-.56.53-.85a.89.89,0,0,0,.12-.45,1,1,0,0,0,.32-.34c.15-.3.3-.6.43-.91a.83.83,0,0,0,.07-.46.78.78,0,0,0,.27-.37c.12-.31.23-.63.33-.95a.8.8,0,0,0,0-.46.88.88,0,0,0,.23-.41c.08-.32.16-.65.22-1a.94.94,0,0,1,.14-.88c.05-.34.08-.67.1-1a.79.79,0,0,0-.09-.45.84.84,0,0,0,.13-.44c0-.33,0-.67,0-1a.87.87,0,0,0-.15-.46.92.92,0,0,0,.09-.47c0-.33-.08-.67-.13-1a.85.85,0,0,0-.19-.42.89.89,0,0,0,0-.46c-.07-.32-.15-.65-.24-1a.92.92,0,0,0-.24-.39.9.9,0,0,0,0-.46c-.1-.32-.22-.64-.35-.95a1,1,0,0,1-.36-.82c-.14-.3-.29-.6-.45-.89a.75.75,0,0,0-.33-.33.89.89,0,0,0-.12-.45c-.18-.28-.37-.56-.56-.83a1,1,0,0,0-.36-.3.78.78,0,0,0-.18-.42c-.2-.26-.42-.52-.64-.77a.87.87,0,0,0-.39-.25.81.81,0,0,0-.23-.4c-.23-.24-.48-.47-.73-.7a.93.93,0,0,0-.41-.2.81.81,0,0,0-.27-.37c-.26-.21-.53-.42-.81-.61a.86.86,0,0,0-.43-.15.78.78,0,0,0-.31-.34L266,330a1,1,0,0,0-.41-.1h0a.79.79,0,0,0-.35-.3c-.3-.15-.61-.29-.92-.41a.74.74,0,0,0-.32-.07l-.14,0a.86.86,0,0,0-.38-.27c-.32-.11-.64-.21-1-.3a.83.83,0,0,0-.22,0,.67.67,0,0,0-.24,0,.78.78,0,0,0-.41-.22c-.32-.08-.66-.14-1-.19h-.13a.78.78,0,0,0-.33.07.74.74,0,0,0-.43-.17c-.33,0-.67-.06-1-.08h0a.81.81,0,0,0-.41.11.83.83,0,0,0-.44-.12Zm-12.21,18.78a12.41,12.41,0,0,1-.17-1.6,12.59,12.59,0,0,1,12-13.08h.5c.34,0,.69,0,1,0l-.71,3.94h-.66a8.6,8.6,0,0,0-8.24,8.95c0,.24,0,.48.06.73l-3.86,1Zm15.83-10,1-3.86a12.53,12.53,0,0,1,5.83,18.91l-3.05-2.57a8.57,8.57,0,0,0-3.82-12.48Zm-9.34,8.26c0-.05,0-.09,0-.14a5.93,5.93,0,0,1,5.67-6.16h.07l-.45,2.51a3.47,3.47,0,0,0-2.83,3.14l-2.45.65Zm8-3.16.67-2.47a5.89,5.89,0,0,1,2.46,8.09l-1.95-1.64a3.28,3.28,0,0,0,.22-1.35,3.41,3.41,0,0,0-1.4-2.63Zm-7,6,2.42-.87a3.48,3.48,0,0,0,2.54,1.12h.15a3.49,3.49,0,0,0,1.19-.27l1.81,1.82a5.93,5.93,0,0,1-2.9.91h-.25a5.92,5.92,0,0,1-5-2.71Zm-6.33,2.28,3.76-1.36a8.6,8.6,0,0,0,7.53,4.48h.36a8.56,8.56,0,0,0,4.72-1.66l2.82,2.83a12.61,12.61,0,0,1-7.38,2.8h-.52a12.51,12.51,0,0,1-11.29-7.09Z" />
  <path class="GUNDAN_FROG_JEWELRY_FROG_JEWELRY_12_cls-4" d="M235.55,379.84a.44.44,0,0,1-.43-.42v-.94h-.4l-.06.93a.43.43,0,0,1-.15.29.4.4,0,0,1-.28.1h0l-.9-.09a.46.46,0,0,1-.28-.17.44.44,0,0,1-.09-.31l.13-.93-.39-.07-.21.91a.41.41,0,0,1-.41.33h-.1c-.29-.07-.59-.14-.88-.23a.41.41,0,0,1-.25-.2.4.4,0,0,1,0-.32l.26-.9-.37-.13-.35.87a.41.41,0,0,1-.22.23.51.51,0,0,1-.17,0,.45.45,0,0,1-.16,0c-.28-.11-.56-.23-.83-.36a.42.42,0,0,1-.21-.56l.4-.85-.34-.19-.48.81a.43.43,0,0,1-.26.2h-.11a.39.39,0,0,1-.21-.06c-.26-.15-.52-.32-.77-.49a.43.43,0,0,1-.11-.59l.52-.77-.31-.24-.6.73a.39.39,0,0,1-.28.15h-.05a.41.41,0,0,1-.26-.09q-.36-.28-.69-.6a.47.47,0,0,1-.14-.29.43.43,0,0,1,.12-.31l.63-.68-.28-.28-.69.62a.43.43,0,0,1-.28.11h0a.47.47,0,0,1-.29-.14c-.2-.23-.4-.46-.59-.7a.44.44,0,0,1-.09-.31.45.45,0,0,1,.16-.28l.74-.59a3.71,3.71,0,0,1-.23-.32l-.79.52a.48.48,0,0,1-.23.07h-.09a.43.43,0,0,1-.27-.19c-.16-.25-.32-.51-.47-.77a.4.4,0,0,1,0-.32.43.43,0,0,1,.2-.26l.81-.46-.18-.35-.85.38a.33.33,0,0,1-.17,0,.37.37,0,0,1-.15,0,.4.4,0,0,1-.24-.22c-.12-.27-.24-.55-.35-.84a.42.42,0,0,1,.24-.54l.88-.34-.12-.37-.91.25h-.11a.44.44,0,0,1-.41-.3c-.08-.3-.15-.59-.21-.89a.4.4,0,0,1,.05-.32.45.45,0,0,1,.27-.18l.92-.2-.06-.39-1,.12a.43.43,0,0,1-.26-.09.47.47,0,0,1-.16-.29c0-.3-.06-.6-.08-.9a.43.43,0,0,1,.4-.45l.93-.05v-.4l-.93,0a.42.42,0,0,1-.3-.13.38.38,0,0,1-.11-.3c0-.31,0-.61.06-.92a.42.42,0,0,1,.42-.38l1,.09.06-.39-.93-.17a.45.45,0,0,1-.27-.18.4.4,0,0,1-.06-.32c0-.29.12-.59.19-.89a.43.43,0,0,1,.41-.32l.11,0,.9.23.12-.38-.88-.31a.4.4,0,0,1-.24-.22.4.4,0,0,1,0-.32c.1-.29.21-.57.33-.85a.43.43,0,0,1,.39-.26.51.51,0,0,1,.17,0l.86.37c.06-.12.11-.24.17-.35l-.83-.45a.42.42,0,0,1-.2-.25.44.44,0,0,1,0-.32c.15-.27.3-.54.46-.79a.42.42,0,0,1,.36-.2.43.43,0,0,1,.22.06l.79.49.22-.32-.74-.56a.44.44,0,0,1-.08-.6c.18-.24.38-.48.57-.71a.47.47,0,0,1,.33-.14.41.41,0,0,1,.27.1l.71.61.28-.29-.66-.67a.43.43,0,0,1,0-.6c.21-.21.44-.42.67-.61a.43.43,0,0,1,.28-.11.42.42,0,0,1,.32.15l.61.71.31-.24-.54-.76a.42.42,0,0,1,.09-.59c.25-.18.51-.35.76-.51a.46.46,0,0,1,.23-.06h.09a.4.4,0,0,1,.27.19l.49.79.34-.19-.42-.84a.43.43,0,0,1,.19-.57l.83-.38a.45.45,0,0,1,.16,0,.4.4,0,0,1,.39.25l.37.87.37-.14-.29-.89a.43.43,0,0,1,.28-.54l.87-.25h.11a.43.43,0,0,1,.41.32l.23.9.38-.08-.14-.92a.42.42,0,0,1,.07-.31.38.38,0,0,1,.28-.17l.9-.12h0a.43.43,0,0,1,.43.38l.09.93.32,0h.07v-.93a.44.44,0,0,1,.42-.43h0c.36,0,.63,0,.9,0a.41.41,0,0,1,.39.44l0,.93.39,0,.14-.92a.42.42,0,0,1,.42-.36h.06l.9.16a.44.44,0,0,1,.27.19.44.44,0,0,1,.06.32l-.2.92.38.1.28-.9a.43.43,0,0,1,.41-.3l.12,0c.29.09.58.19.86.3a.43.43,0,0,1,.25.55l-.33.86.36.16.41-.83a.42.42,0,0,1,.38-.24.43.43,0,0,1,.19,0c.27.14.54.28.8.43a.41.41,0,0,1,.16.58l-.46.81.33.21.54-.77a.41.41,0,0,1,.27-.17h.07a.44.44,0,0,1,.25.08c.24.17.49.35.73.54a.44.44,0,0,1,.07.6l-.59.73.3.26.65-.68a.39.39,0,0,1,.3-.13.44.44,0,0,1,.3.12c.22.2.43.42.64.65a.41.41,0,0,1,0,.59l-.68.64.25.3.74-.57a.42.42,0,0,1,.6.08c.18.23.36.48.53.73a.41.41,0,0,1,.07.32.42.42,0,0,1-.18.27l-.78.53.21.33.82-.45a.35.35,0,0,1,.2,0,.42.42,0,0,1,.37.21c.15.27.29.54.42.82a.44.44,0,0,1,0,.32.43.43,0,0,1-.22.24l-.84.4.15.36.87-.32a.39.39,0,0,1,.15,0,.43.43,0,0,1,.4.27c.1.29.2.58.28.87a.42.42,0,0,1-.28.53l-.91.27c0,.12.07.25.1.38l.92-.19h.08a.4.4,0,0,1,.24.07.42.42,0,0,1,.18.27c.06.29.11.6.15.9a.42.42,0,0,1-.37.47l-.92.13c0,.13,0,.26,0,.39l.95,0a.41.41,0,0,1,.28.11.39.39,0,0,1,.14.3c0,.33,0,.64,0,.94a.41.41,0,0,1-.42.41l-1,0,0,.4.94.1a.41.41,0,0,1,.37.47q0,.45-.12.9a.42.42,0,0,1-.18.27.43.43,0,0,1-.24.08h-.08l-.91-.16-.09.39.9.24a.43.43,0,0,1,.3.52c-.08.3-.17.59-.27.88a.42.42,0,0,1-.4.28.3.3,0,0,1-.13,0l-.9-.3c0,.12-.09.24-.14.37l.86.38a.42.42,0,0,1,.21.56c-.12.27-.25.55-.39.82a.44.44,0,0,1-.25.21l-.13,0a.45.45,0,0,1-.19-.05l-.83-.43-.2.34.79.5a.42.42,0,0,1,.18.27.45.45,0,0,1-.06.32c-.16.25-.34.5-.51.75a.46.46,0,0,1-.28.17h-.07a.46.46,0,0,1-.25-.08l-.75-.55-.25.3.7.62a.43.43,0,0,1,0,.6q-.3.35-.63.66a.39.39,0,0,1-.3.13.43.43,0,0,1-.3-.13l-.66-.66-.29.26.6.73a.42.42,0,0,1,.1.31.43.43,0,0,1-.15.28c-.24.2-.48.38-.72.56a.38.38,0,0,1-.25.09h-.07a.41.41,0,0,1-.27-.17l-.55-.75-.33.22.48.8a.44.44,0,0,1,0,.32.38.38,0,0,1-.19.26c-.26.15-.52.3-.79.44a.46.46,0,0,1-.2.05.4.4,0,0,1-.37-.23l-.44-.83-.35.16.35.87a.43.43,0,0,1-.23.56c-.28.11-.57.22-.86.31a.3.3,0,0,1-.13,0,.42.42,0,0,1-.4-.28l-.3-.89-.38.11.22.91a.45.45,0,0,1-.06.32.43.43,0,0,1-.26.19c-.29.07-.59.13-.89.18h-.07a.43.43,0,0,1-.42-.36l-.16-.92-.39,0,.07.93a.38.38,0,0,1-.1.31.4.4,0,0,1-.29.15l-.57,0Zm-6.22-7.09a9.85,9.85,0,0,0,5.46,2l-.07-1.93a7.71,7.71,0,0,1-4.08-1.49Zm7.23,1.92a9.74,9.74,0,0,0,5.28-2.44l-1.42-1.31a7.76,7.76,0,0,1-3.94,1.83Zm-11-8.4a9.82,9.82,0,0,0,2.45,5.28l1.3-1.42a7.74,7.74,0,0,1-1.82-3.94Zm6.21,3.81a6.13,6.13,0,0,0,2.86,1.05l-.17-4Zm4.62,1a6.14,6.14,0,0,0,2.77-1.29l-2.93-2.69Zm6.63-.13a9.73,9.73,0,0,0,2-5.47l-1.92.08a7.76,7.76,0,0,1-1.5,4.08Zm-13.84-4.81a6.15,6.15,0,0,0,1.28,2.76l2.7-2.93Zm11.17,2.35a6,6,0,0,0,1-2.86l-4,.17ZM227.51,359a9.82,9.82,0,0,0-2,5.46l1.92-.08a7.84,7.84,0,0,1,1.5-4.08Zm2.67,2.45a6.06,6.06,0,0,0-1.05,2.86l4-.17Zm7.19,2.52,4-.17a6.2,6.2,0,0,0-1.28-2.76Zm3.85-4.18a7.83,7.83,0,0,1,1.83,3.94l1.92-.08a9.82,9.82,0,0,0-2.45-5.28Zm-6.92,3.05-.16-4a6,6,0,0,0-2.76,1.28Zm1.77-.07,2.7-2.93a6.28,6.28,0,0,0-2.86-1.05ZM230.13,359a7.76,7.76,0,0,1,3.94-1.83l-.08-1.92a9.8,9.8,0,0,0-5.28,2.44Zm5.71-1.9a7.77,7.77,0,0,1,4.08,1.49l1.3-1.41a9.76,9.76,0,0,0-5.46-2Z" />
  <path d="M235.29,350.55c.27,0,.54,0,.8,0l-.07,1.34c.4,0,.8.07,1.19.13l.2-1.34.87.16-.28,1.33a11.61,11.61,0,0,1,1.16.3l.41-1.29c.28.08.56.18.83.28l-.48,1.26c.38.15.75.3,1.11.48l.59-1.21c.26.13.53.27.78.42l-.67,1.18c.35.2.69.41,1,.64l.77-1.11c.24.16.48.34.71.52l-.84,1.06c.32.25.62.52.91.79l.93-1,.63.63-1,.92a11.17,11.17,0,0,1,.78.92l1.07-.83c.18.24.36.48.52.72l-1.12.76a11.71,11.71,0,0,1,.62,1l1.19-.66c.15.26.28.52.41.79l-1.22.57c.17.36.32.73.46,1.11l1.27-.46c.1.28.19.56.28.84l-1.31.39a11.57,11.57,0,0,1,.29,1.16l1.33-.26q.09.43.15.87l-1.34.18c.06.4.09.8.11,1.2l1.35-.06v0c0,.3,0,.6,0,.89l-1.36,0c0,.41,0,.81-.08,1.2l1.35.15c0,.29-.07.59-.12.88l-1.33-.23c-.07.39-.16.78-.26,1.17l1.3.35c-.08.29-.16.57-.26.85l-1.28-.44c-.13.39-.28.76-.44,1.12l1.24.56c-.12.26-.25.53-.39.79l-1.2-.62c-.18.35-.38.7-.6,1l1.14.73c-.16.25-.33.49-.51.73l-1.08-.8c-.24.32-.5.63-.76.93l1,.9c-.19.22-.4.44-.6.64l-1-1a9.59,9.59,0,0,1-.88.81l.87,1c-.23.18-.46.37-.7.54l-.8-1.08a11.52,11.52,0,0,1-1,.66l.69,1.16c-.25.15-.51.29-.77.43l-.62-1.21a11.84,11.84,0,0,1-1.09.5l.51,1.26c-.27.11-.55.22-.83.31l-.43-1.28a11,11,0,0,1-1.16.33l.31,1.32-.86.17-.23-1.33c-.4.06-.79.11-1.2.14l.11,1.36-.56,0h-.32l0-1.35h-.31c-.3,0-.6,0-.89,0l-.1,1.35c-.29,0-.59-.05-.88-.09l.18-1.35a11.65,11.65,0,0,1-1.18-.21l-.3,1.32-.86-.22.39-1.31a10.93,10.93,0,0,1-1.14-.39l-.5,1.26-.81-.35.57-1.22c-.36-.18-.71-.37-1.06-.57l-.69,1.17c-.25-.15-.5-.31-.74-.48l.76-1.12c-.33-.23-.66-.47-1-.72l-.86,1c-.22-.19-.45-.38-.66-.58l.91-1c-.29-.27-.58-.56-.84-.85l-1,.89c-.2-.21-.39-.44-.57-.67l1.06-.85a11.4,11.4,0,0,1-.7-1l-1.14.74c-.16-.24-.32-.5-.46-.75l1.18-.67a10.8,10.8,0,0,1-.55-1.07l-1.23.56a8.33,8.33,0,0,1-.34-.82l1.26-.48c-.14-.37-.26-.75-.37-1.14l-1.31.36c-.08-.28-.15-.57-.21-.86l1.33-.28c-.08-.39-.15-.78-.2-1.19l-1.35.16c0-.29-.06-.58-.07-.88l1.35-.07a1.8,1.8,0,0,1,0-.22c0-.33,0-.66,0-1l-1.36,0c0-.3,0-.59.06-.88l1.35.12c0-.4.09-.8.16-1.19l-1.33-.25c.06-.29.12-.58.19-.86l1.31.33c.1-.39.22-.77.35-1.15l-1.27-.45c.1-.28.21-.56.32-.83l1.25.54c.16-.37.33-.74.52-1.09l-1.19-.64c.14-.26.28-.52.44-.77l1.14.71c.21-.34.44-.67.68-1l-1.07-.81c.18-.24.36-.47.56-.69l1,.88c.26-.3.53-.59.82-.87l-.95-1c.21-.2.43-.4.66-.59l.88,1c.3-.26.62-.5.94-.74l-.78-1.1c.24-.17.49-.33.74-.49l.71,1.15c.34-.21.69-.41,1-.59l-.61-1.21.8-.37.54,1.25a10.73,10.73,0,0,1,1.12-.42l-.41-1.29c.28-.09.56-.18.85-.25l.33,1.31a11.74,11.74,0,0,1,1.18-.24l-.21-1.33q.44-.08.87-.12L234,352c.24,0,.48-.06.73-.07h.47v-1.36h.08m4.67,8.66,1.88-2a10.16,10.16,0,0,0-6.52-2.39l.11,2.76a7.38,7.38,0,0,1,4.53,1.67m-9.83.4a7.45,7.45,0,0,1,4.38-2l-.12-2.76a10.14,10.14,0,0,0-6.3,2.92l2,1.87m12.55,4.6,2.76-.11a10.17,10.17,0,0,0-2.92-6.31l-1.88,2a7.41,7.41,0,0,1,2,4.38m-7-.36,3.71-4a6.59,6.59,0,0,0-3.94-1.44l.23,5.47m-10.62,1.09,2.77-.11a7.42,7.42,0,0,1,1.66-4.54l-2-1.87a10.16,10.16,0,0,0-2.39,6.52m9.7-1.05-.23-5.47a6.56,6.56,0,0,0-3.8,1.76l4,3.71m1.6.58,5.47-.22a6.6,6.6,0,0,0-1.77-3.8l-3.7,4m-7.69.32,5.47-.22-4-3.71a6.56,6.56,0,0,0-1.44,3.93m14.41,6.76a10.21,10.21,0,0,0,2.39-6.53l-2.77.11a7.42,7.42,0,0,1-1.66,4.54l2,1.88m-2.66-2.45a6.64,6.64,0,0,0,1.45-3.93l-5.47.23,4,3.7m-10,.41,3.7-4-5.47.22a6.6,6.6,0,0,0,1.77,3.8M228,372.17l1.88-2a7.39,7.39,0,0,1-2-4.38l-2.77.11a10.17,10.17,0,0,0,2.92,6.31m8-.63a6.53,6.53,0,0,0,3.8-1.76l-4-3.71.23,5.47m-.92,0-.23-5.47-3.7,4a6.54,6.54,0,0,0,3.93,1.44m1.07,3.56a10.09,10.09,0,0,0,6.3-2.92l-2-1.87a7.51,7.51,0,0,1-4.39,2l.12,2.76m-.92,0-.12-2.76a7.4,7.4,0,0,1-4.53-1.67l-1.88,2a10.17,10.17,0,0,0,6.53,2.39m0-25.48h-.09a.84.84,0,0,0-.68.35.88.88,0,0,0-.64-.28h-.08c-.31,0-.62.07-.92.12a.83.83,0,0,0-.56.34l-.07.11-.11-.08a.93.93,0,0,0-.43-.12.76.76,0,0,0-.21,0c-.3.08-.61.16-.9.26a.87.87,0,0,0-.5.42l0,.12-.12-.06a.87.87,0,0,0-.32-.06,1,1,0,0,0-.33.07c-.28.12-.57.25-.85.39a.86.86,0,0,0-.45.63l-.13-.05-.19,0a.87.87,0,0,0-.45.13c-.27.16-.53.34-.78.52a.88.88,0,0,0-.35.55s0,.09,0,.13l-.19,0a.89.89,0,0,0-.56.2l-.69.64a.87.87,0,0,0-.25.73h-.13a.84.84,0,0,0-.58.29c-.2.23-.4.48-.59.73a.87.87,0,0,0-.16.63l0,.13a.84.84,0,0,0-.66.39c-.16.27-.32.54-.47.82a.83.83,0,0,0-.07.64s0,.09.05.13l-.13,0a.84.84,0,0,0-.46.45c-.12.29-.24.58-.34.88a.84.84,0,0,0,0,.64l.07.12a.87.87,0,0,0-.51.58c-.07.3-.14.61-.2.92a.88.88,0,0,0,.13.63l.09.11a.83.83,0,0,0-.42.65q0,.47-.06.93a.84.84,0,0,0,.33.7.83.83,0,0,0-.31.7c0,.31,0,.63.08.93a.85.85,0,0,0,.32.57.41.41,0,0,0,.11.07.87.87,0,0,0-.2.75c.07.3.14.61.22.91a.88.88,0,0,0,.4.51l.13.06a.82.82,0,0,0-.09.76c.11.29.24.59.36.87a.85.85,0,0,0,.61.48.5.5,0,0,0-.05.13.85.85,0,0,0,.08.64c.16.27.32.54.49.8a.81.81,0,0,0,.54.36l.13,0a.88.88,0,0,0,.15.76c.19.24.4.48.61.71a.82.82,0,0,0,.58.28h.14a.57.57,0,0,0,0,.13.86.86,0,0,0,.27.59l.71.62a.86.86,0,0,0,.53.19.78.78,0,0,0,.22,0s0,.09,0,.13a.89.89,0,0,0,.36.54c.26.18.53.35.79.5a.82.82,0,0,0,.43.12l.22,0,.12-.05a.5.5,0,0,0,0,.13.83.83,0,0,0,.44.48c.28.14.57.26.85.38a.91.91,0,0,0,.32.06.75.75,0,0,0,.33-.07l.12-.06a.87.87,0,0,0,.56.53c.3.09.61.17.91.24l.19,0a.9.9,0,0,0,.45-.13l.11-.08.07.11a.86.86,0,0,0,.56.33l.93.09h.06a.82.82,0,0,0,.65-.3l.09.1a.87.87,0,0,0,.59.24h.36l.59,0a.88.88,0,0,0,.58-.29l.07-.11.11.09a.84.84,0,0,0,.49.15h.14l.92-.19a.81.81,0,0,0,.52-.38.75.75,0,0,0,.07-.12.41.41,0,0,0,.11.07.81.81,0,0,0,.65,0l.88-.32a.86.86,0,0,0,.46-.46.5.5,0,0,0,0-.13l.13.05a.73.73,0,0,0,.25,0,.86.86,0,0,0,.39-.09c.28-.14.55-.3.82-.46a.86.86,0,0,0,.39-.52s0-.09,0-.13l.13,0h.13a.84.84,0,0,0,.5-.17c.25-.18.5-.37.74-.57a.86.86,0,0,0,.3-.71h.13a.82.82,0,0,0,.6-.25c.22-.22.44-.45.65-.68a.91.91,0,0,0,.21-.61c0-.05,0-.09,0-.13h0a.86.86,0,0,0,.69-.35c.18-.25.36-.51.53-.77a.88.88,0,0,0,.08-.77l.13,0a.85.85,0,0,0,.49-.42,9.3,9.3,0,0,0,.41-.84.84.84,0,0,0,0-.77.85.85,0,0,0,.55-.54c.1-.29.2-.6.28-.9a.81.81,0,0,0-.09-.64.41.41,0,0,0-.07-.11.87.87,0,0,0,.46-.62c.06-.3.1-.62.13-.93a.83.83,0,0,0-.27-.72.81.81,0,0,0,.36-.68c0-.31,0-.62,0-.93a.86.86,0,0,0-.27-.61l-.11-.09.09-.11a.81.81,0,0,0,.17-.62c0-.31-.1-.62-.16-.93a.83.83,0,0,0-.47-.6l.07-.11a.86.86,0,0,0,.07-.65c-.09-.3-.19-.6-.3-.89a.85.85,0,0,0-.43-.48l-.13,0a.5.5,0,0,0,.05-.13.82.82,0,0,0,0-.65c-.13-.28-.27-.56-.42-.83a.82.82,0,0,0-.51-.4.31.31,0,0,0-.13,0l0-.13a.81.81,0,0,0-.13-.64c-.17-.25-.36-.51-.55-.75a.84.84,0,0,0-.56-.33h-.13a.66.66,0,0,0,0-.14.83.83,0,0,0-.22-.6c-.21-.23-.44-.46-.66-.67a.83.83,0,0,0-.59-.23h-.15v-.13a.85.85,0,0,0-.32-.57c-.24-.19-.5-.38-.75-.56a.88.88,0,0,0-.49-.15.9.9,0,0,0-.28,0,.69.69,0,0,0,0-.13.85.85,0,0,0-.4-.51l-.83-.44a.77.77,0,0,0-.37-.08.8.8,0,0,0-.27,0,.52.52,0,0,0-.13.06s0-.09,0-.13a.88.88,0,0,0-.48-.45c-.29-.11-.59-.21-.88-.3a.73.73,0,0,0-.25,0,.9.9,0,0,0-.4.09l-.11.08a.75.75,0,0,0-.07-.12.84.84,0,0,0-.53-.37c-.31-.06-.62-.12-.92-.16h-.13a.81.81,0,0,0-.5.16l-.11.09a.76.76,0,0,0-.08-.11.91.91,0,0,0-.58-.28l-.85,0Zm1,7.05-.05-1.08a9.4,9.4,0,0,1,4.39,1.61l-.74.8a8.08,8.08,0,0,0-3.6-1.33Zm-6.9,1a9.28,9.28,0,0,1,4.24-2l0,1.08a8,8,0,0,0-3.49,1.62l-.79-.74Zm12.43,2.11.73-.8a9.45,9.45,0,0,1,2,4.24l-1.08,0a8.23,8.23,0,0,0-1.62-3.49Zm-5.33,1.92-.1-2.44a5.56,5.56,0,0,1,1.76.64l-1.66,1.8ZM232,360.22a5.86,5.86,0,0,1,1.7-.79l.1,2.45-1.8-1.66ZM226,364.06a9.35,9.35,0,0,1,1.6-4.39l.8.73a8.27,8.27,0,0,0-1.32,3.61l-1.08.05Zm12.41-.52,1.65-1.8a5.38,5.38,0,0,1,.79,1.7l-2.44.1Zm-8.76.37a5.49,5.49,0,0,1,.65-1.76l1.8,1.65-2.45.11Zm13.89,2,1.08-.05a9.36,9.36,0,0,1-1.61,4.39l-.8-.73a8.11,8.11,0,0,0,1.33-3.61Zm-5,.21,2.44-.1a5.75,5.75,0,0,1-.64,1.75l-1.8-1.65Zm-8.76.36,2.44-.1-1.65,1.8a5.61,5.61,0,0,1-.79-1.7Zm-3.66.15,1.08,0a8.19,8.19,0,0,0,1.62,3.48l-.73.8a9.4,9.4,0,0,1-2-4.24Zm10.75,3.86-.11-2.45,1.8,1.66a5.67,5.67,0,0,1-1.69.79Zm-4.38-.54,1.66-1.8.1,2.45a5.83,5.83,0,0,1-1.76-.65Zm4.48,3.11a8,8,0,0,0,3.49-1.62l.8.74a9.38,9.38,0,0,1-4.24,2l-.05-1.08Zm-7-.42.74-.79a8.18,8.18,0,0,0,3.61,1.32l0,1.08a9.44,9.44,0,0,1-4.39-1.61Z" />
  <path class="GUNDAN_FROG_JEWELRY_FROG_JEWELRY_12_cls-2" d="M208.47,376.14a5.52,5.52,0,0,1-.22-11h.23a5.52,5.52,0,0,1,.22,11Zm-.13-8.78a3.27,3.27,0,0,0,.13,6.53h.14a3.27,3.27,0,0,0-.13-6.53Z" />
  <path d="M208.48,365.53a5.09,5.09,0,0,1,.21,10.18h-.22a5.09,5.09,0,0,1-.2-10.18h.21m0,8.79h.16a3.69,3.69,0,0,0-.15-7.37h-.16a3.69,3.69,0,0,0,.15,7.38m0-9.63h-.25a5.94,5.94,0,0,0,.24,11.88h.25a5.94,5.94,0,0,0-.24-11.87Zm0,8.78a2.83,2.83,0,0,1-2.83-2.73,2.84,2.84,0,0,1,2.72-2.95h.12a2.84,2.84,0,0,1,2.09,4.77,2.88,2.88,0,0,1-2,.92Z" />
  <path class="GUNDAN_FROG_JEWELRY_FROG_JEWELRY_12_cls-2" d="M208.47,378.24a7.62,7.62,0,0,1-.31-15.23h.32a7.62,7.62,0,0,1,.31,15.23Zm-.26-14.05a6.44,6.44,0,0,0,.26,12.88h.27a6.44,6.44,0,0,0-.26-12.88Z" />
  <path d="M208.48,363.43a7.19,7.19,0,0,1,.29,14.38h-.3a7.19,7.19,0,0,1-.29-14.38h.3m0,14.06h.29a6.86,6.86,0,0,0-.28-13.72h-.29a6.86,6.86,0,0,0,.28,13.72m0-14.91h-.34a8,8,0,0,0,.33,16.08h.34a8,8,0,0,0-.33-16.08Zm0,14.06a6,6,0,0,1-.24-12h.25a6,6,0,0,1,.24,12Z" />
  <path class="GUNDAN_FROG_JEWELRY_FROG_JEWELRY_12_cls-2" d="M208.47,384.82a15,15,0,0,1-2-.14.41.41,0,0,1-.28-.17.39.39,0,0,1-.08-.31l.11-.79a13,13,0,0,1-3.36-1.09l-.37.71a.42.42,0,0,1-.37.23.46.46,0,0,1-.2-.05,14.64,14.64,0,0,1-2.21-1.43.44.44,0,0,1-.07-.6l.5-.63a13.05,13.05,0,0,1-2.37-2.61l-.67.43a.48.48,0,0,1-.23.07h-.09a.48.48,0,0,1-.27-.19,14.76,14.76,0,0,1-1.2-2.34.47.47,0,0,1,0-.33.43.43,0,0,1,.24-.22l.74-.3a12.73,12.73,0,0,1-.74-3.45l-.81,0a.44.44,0,0,1-.29-.11.43.43,0,0,1-.14-.3,15.24,15.24,0,0,1,.13-2.62.41.41,0,0,1,.17-.27.38.38,0,0,1,.25-.09h.06l.79.12a12.83,12.83,0,0,1,1.09-3.36l-.71-.37a.4.4,0,0,1-.21-.25.44.44,0,0,1,0-.32,13.91,13.91,0,0,1,1.43-2.21.41.41,0,0,1,.33-.16.43.43,0,0,1,.26.09l.63.49a13.06,13.06,0,0,1,2.62-2.36l-.43-.68a.44.44,0,0,1-.06-.32.38.38,0,0,1,.19-.26,14,14,0,0,1,2.34-1.21l.15,0a.45.45,0,0,1,.4.27l.29.74a13.21,13.21,0,0,1,3.45-.74l0-.8a.42.42,0,0,1,.41-.44h.61a14.86,14.86,0,0,1,2,.14.46.46,0,0,1,.28.17.43.43,0,0,1,.08.31l-.11.79a12.76,12.76,0,0,1,3.35,1.09l.38-.72a.41.41,0,0,1,.37-.22.48.48,0,0,1,.2,0,15.72,15.72,0,0,1,2.21,1.43.43.43,0,0,1,.15.28.4.4,0,0,1-.08.32l-.5.63a13.05,13.05,0,0,1,2.37,2.61l.68-.43a.38.38,0,0,1,.22-.07.42.42,0,0,1,.36.2,13.59,13.59,0,0,1,1.2,2.34.42.42,0,0,1-.23.55l-.74.3a13,13,0,0,1,.74,3.44l.82,0a.43.43,0,0,1,.28.11.39.39,0,0,1,.14.3,14.49,14.49,0,0,1-.13,2.65.43.43,0,0,1-.42.37h-.06l-.79-.11a13.34,13.34,0,0,1-1.09,3.36l.71.37a.42.42,0,0,1,.17.57,13.24,13.24,0,0,1-1.43,2.21.42.42,0,0,1-.33.16.43.43,0,0,1-.26-.09l-.63-.5a12.79,12.79,0,0,1-2.62,2.36l.43.68a.41.41,0,0,1-.13.58,13.59,13.59,0,0,1-2.34,1.2.41.41,0,0,1-.16,0,.45.45,0,0,1-.16,0,.4.4,0,0,1-.23-.23l-.3-.74a13.12,13.12,0,0,1-3.45.74l0,.79a.45.45,0,0,1-.12.31.44.44,0,0,1-.31.13Zm-.41-24.25a10.06,10.06,0,0,0,.41,20.12h.42a10.06,10.06,0,0,0-.41-20.12Z" />
  <path d="M208.48,356.85a14.1,14.1,0,0,1,2,.14l-.17,1.2a12.56,12.56,0,0,1,4,1.3l.56-1.08A13.51,13.51,0,0,1,217,359.8l-.75.95a12.84,12.84,0,0,1,2.84,3.13l1-.65a13.52,13.52,0,0,1,1.17,2.27l-1.13.45a12.29,12.29,0,0,1,.89,4.13l1.21-.06v0a14.39,14.39,0,0,1-.13,2.55l-1.2-.17a12.58,12.58,0,0,1-1.31,4l1.08.56a13.07,13.07,0,0,1-1.39,2.14l-1-.75a12.43,12.43,0,0,1-3.13,2.83l.65,1a13.48,13.48,0,0,1-2.27,1.16l-.45-1.13a12.54,12.54,0,0,1-4.13.89l.05,1.21h-.58a14.13,14.13,0,0,1-2-.14l.17-1.2a12.58,12.58,0,0,1-4-1.31l-.56,1.08a13.8,13.8,0,0,1-2.15-1.38l.76-1a12.6,12.6,0,0,1-2.83-3.13l-1,.65a13.92,13.92,0,0,1-1.17-2.27l1.13-.45a12.53,12.53,0,0,1-.88-4.13l-1.21,0h0a13.48,13.48,0,0,1,.12-2.54l1.2.18a12.73,12.73,0,0,1,1.3-4l-1.08-.57a14.25,14.25,0,0,1,1.39-2.14l1,.76a12.66,12.66,0,0,1,3.13-2.84l-.66-1a13.87,13.87,0,0,1,2.27-1.16l.46,1.13a12.29,12.29,0,0,1,4.12-.89l-.05-1.21h0l.57,0m0,24.27h.44a10.49,10.49,0,0,0-.43-21H208a10.49,10.49,0,0,0,.43,21m0-25.11h-.61a.86.86,0,0,0-.83.88v.39a13.08,13.08,0,0,0-2.76.6l-.15-.37a.85.85,0,0,0-.45-.46.8.8,0,0,0-.34-.07.85.85,0,0,0-.31.06,14.44,14.44,0,0,0-2.41,1.24.84.84,0,0,0-.26,1.17l.21.33a14,14,0,0,0-2.09,1.9l-.32-.24a.83.83,0,0,0-.52-.19h-.1a.87.87,0,0,0-.57.32,15.46,15.46,0,0,0-1.47,2.27.85.85,0,0,0,.36,1.14l.35.19a14.08,14.08,0,0,0-.87,2.69l-.39-.05h-.12a.87.87,0,0,0-.51.17.82.82,0,0,0-.33.55,15.11,15.11,0,0,0-.13,2.69.86.86,0,0,0,.85.83h0l.39,0a13.17,13.17,0,0,0,.6,2.77l-.37.14a.83.83,0,0,0-.46.46.82.82,0,0,0,0,.65,15.2,15.2,0,0,0,1.23,2.41.87.87,0,0,0,.72.39.81.81,0,0,0,.45-.13l.34-.22a13.07,13.07,0,0,0,1.9,2.1l-.25.31a.89.89,0,0,0-.18.63.85.85,0,0,0,.32.56,14,14,0,0,0,2.27,1.47.82.82,0,0,0,.4.1.73.73,0,0,0,.25,0,.84.84,0,0,0,.5-.41l.18-.36a13.65,13.65,0,0,0,2.69.88l-.05.39a.85.85,0,0,0,.72,1,14.35,14.35,0,0,0,2.08.15l.61,0a.82.82,0,0,0,.59-.27.83.83,0,0,0,.23-.61l0-.39a13.81,13.81,0,0,0,2.77-.59l.15.36a.84.84,0,0,0,.78.54.91.91,0,0,0,.32-.06,14.83,14.83,0,0,0,2.41-1.24.85.85,0,0,0,.26-1.17l-.21-.33a13.44,13.44,0,0,0,2.09-1.9l.32.25a.84.84,0,0,0,.52.18.86.86,0,0,0,.67-.32,14.68,14.68,0,0,0,1.47-2.27.86.86,0,0,0,.06-.65.9.9,0,0,0-.42-.5l-.35-.18a13.65,13.65,0,0,0,.88-2.69l.39.05h.12a.85.85,0,0,0,.84-.73,15.18,15.18,0,0,0,.13-2.7.87.87,0,0,0-.85-.85h-.42a13.08,13.08,0,0,0-.6-2.76l.37-.15a.85.85,0,0,0,.47-1.1,15.23,15.23,0,0,0-1.24-2.41.86.86,0,0,0-.72-.39.84.84,0,0,0-.45.13l-.34.22a13.07,13.07,0,0,0-1.9-2.1l.25-.31a.84.84,0,0,0-.14-1.19,14.77,14.77,0,0,0-2.28-1.47.78.78,0,0,0-.39-.1.85.85,0,0,0-.75.46l-.18.35a13.5,13.5,0,0,0-2.7-.87l.06-.39a.88.88,0,0,0-.16-.63.86.86,0,0,0-.56-.33,14.3,14.3,0,0,0-2.07-.14Zm0,24.26a9.64,9.64,0,0,1-.39-19.28h.4a9.64,9.64,0,0,1,.39,19.28Z" />
  <path class="GUNDAN_FROG_JEWELRY_FROG_JEWELRY_12_cls-5" d="M224.35,399.65a.82.82,0,0,1-.81-.79l0-.92-.39,0-.2.9a.81.81,0,0,1-.79.64l-.19,0-.65-.15a.82.82,0,0,1-.62-1l.2-.89-.36-.14-.43.82a.81.81,0,0,1-.73.43.85.85,0,0,1-.38-.09l-.59-.31A.82.82,0,0,1,218,397l.43-.82-.32-.23-.62.68a.8.8,0,0,1-.6.27.84.84,0,0,1-.56-.22l-.49-.45a.82.82,0,0,1,0-1.16l.62-.68a3.61,3.61,0,0,1-.25-.3l-.78.5a.84.84,0,0,1-1.13-.25l-.36-.57a.82.82,0,0,1,.25-1.13l.78-.49c-.06-.12-.11-.24-.16-.36l-.88.28a1,1,0,0,1-.25,0,.82.82,0,0,1-.78-.57l-.2-.64a.82.82,0,0,1,.54-1l.88-.28c0-.13,0-.25-.07-.38l-.92,0a.83.83,0,0,1-.85-.79l0-.67a.81.81,0,0,1,.22-.59A.82.82,0,0,1,213,387l.92,0,0-.39-.9-.2a.82.82,0,0,1-.62-1l.15-.66a.82.82,0,0,1,.8-.64l.18,0,.9.2c0-.12.08-.24.13-.36l-.82-.43a.81.81,0,0,1-.34-1.1l.31-.6a.82.82,0,0,1,.73-.44.69.69,0,0,1,.37.1l.82.42.22-.31-.67-.63a.79.79,0,0,1-.27-.56.81.81,0,0,1,.22-.59l.45-.5a.83.83,0,0,1,.61-.26.81.81,0,0,1,.55.21l.68.63.29-.25-.49-.78a.85.85,0,0,1-.1-.62.78.78,0,0,1,.36-.51l.56-.36a.86.86,0,0,1,.44-.12.82.82,0,0,1,.69.37l.49.78.36-.16-.28-.88a.82.82,0,0,1,.53-1l.65-.21a1,1,0,0,1,.25,0,.8.8,0,0,1,.77.57l.28.88.38-.07,0-.92a.84.84,0,0,1,.79-.85l.67,0a.83.83,0,0,1,.85.79l0,.92.39,0,.2-.9a.8.8,0,0,1,.79-.63l.19,0,.65.14a.83.83,0,0,1,.62,1l-.2.9.36.13.43-.82a.81.81,0,0,1,.72-.43.82.82,0,0,1,.38.09l.6.31a.8.8,0,0,1,.4.48.75.75,0,0,1-.06.62l-.42.82.32.23.62-.68a.8.8,0,0,1,1.15,0l.5.45a.83.83,0,0,1,.05,1.16l-.63.68.25.3.78-.5a.84.84,0,0,1,1.13.25l.36.58a.82.82,0,0,1,.11.61.78.78,0,0,1-.37.51l-.77.49.16.36.88-.28.24,0a.81.81,0,0,1,.78.57l.2.64a.81.81,0,0,1-.05.63.83.83,0,0,1-.48.4l-.88.27c0,.13,0,.25.07.38l.92,0a.83.83,0,0,1,.85.79l0,.67a.83.83,0,0,1-.79.85l-.92,0,0,.39.9.2a.81.81,0,0,1,.61,1l-.14.66a.82.82,0,0,1-.8.64h0l-.18,0-.9-.2c0,.12-.08.25-.13.37l.81.42a.82.82,0,0,1,.35,1.1l-.31.6a.82.82,0,0,1-.73.44.78.78,0,0,1-.37-.09l-.82-.43-.23.32.68.62a.82.82,0,0,1,.05,1.15l-.46.5a.79.79,0,0,1-.6.26.81.81,0,0,1-.55-.21l-.68-.63-.3.25.5.78a.83.83,0,0,1-.25,1.13l-.57.36a.9.9,0,0,1-.44.13.81.81,0,0,1-.69-.38l-.49-.78-.36.16.28.88a.82.82,0,0,1-.54,1l-.64.21a1,1,0,0,1-.25,0,.81.81,0,0,1-.78-.57l-.27-.88-.39.07,0,.92a.82.82,0,0,1-.78.85Zm-.41-18.92a6.93,6.93,0,0,0,.28,13.85h.29a6.93,6.93,0,0,0-.28-13.85Z" />
  <path d="M224.1,376.08a.4.4,0,0,1,.4.37l.05,1.31a10.54,10.54,0,0,1,1.13.1l.28-1.27a.38.38,0,0,1,.38-.31h.09l.66.15a.39.39,0,0,1,.3.47l-.29,1.27a9.58,9.58,0,0,1,1.06.39l.6-1.16a.42.42,0,0,1,.35-.21.32.32,0,0,1,.19.05l.59.31a.39.39,0,0,1,.17.53l-.61,1.16a7.28,7.28,0,0,1,.92.65l.89-1a.4.4,0,0,1,.29-.12.41.41,0,0,1,.27.1l.49.46a.39.39,0,0,1,0,.55l-.89,1a9.93,9.93,0,0,1,.72.86l1.11-.7a.39.39,0,0,1,.21-.06.38.38,0,0,1,.33.18l.36.57a.4.4,0,0,1-.12.55L233,383c.17.33.33.68.47,1l1.25-.39a.22.22,0,0,1,.11,0,.4.4,0,0,1,.38.28l.2.64a.39.39,0,0,1-.26.49l-1.24.39c.08.36.14.74.19,1.11l1.31-.05h0a.38.38,0,0,1,.39.37l0,.68a.39.39,0,0,1-.37.41l-1.31.05a10.54,10.54,0,0,1-.1,1.13l1.27.28a.4.4,0,0,1,.3.47l-.15.66a.39.39,0,0,1-.38.31H235l-1.27-.29a9.58,9.58,0,0,1-.39,1.06l1.16.61a.39.39,0,0,1,.17.53l-.32.59a.37.37,0,0,1-.35.21.39.39,0,0,1-.18,0l-1.16-.61a9.71,9.71,0,0,1-.65.93l1,.88a.42.42,0,0,1,0,.56l-.46.49a.37.37,0,0,1-.29.13.37.37,0,0,1-.26-.1l-1-.89a8.41,8.41,0,0,1-.86.72l.7,1.11a.39.39,0,0,1-.12.54l-.57.36a.42.42,0,0,1-.21.06.38.38,0,0,1-.33-.18l-.7-1.1c-.33.17-.68.33-1,.47l.39,1.25a.39.39,0,0,1-.26.49l-.64.2-.12,0a.39.39,0,0,1-.37-.28l-.39-1.24c-.37.08-.73.14-1.11.19l0,1.31a.38.38,0,0,1-.38.4l-.67,0h0a.39.39,0,0,1-.39-.37l-.05-1.31a10.54,10.54,0,0,1-1.13-.1l-.28,1.28a.39.39,0,0,1-.38.3H222l-.66-.14a.41.41,0,0,1-.3-.48l.29-1.27a9.58,9.58,0,0,1-1.06-.39l-.61,1.16a.4.4,0,0,1-.53.17l-.59-.32a.39.39,0,0,1-.17-.53l.6-1.16a9.44,9.44,0,0,1-.91-.65l-.89,1a.42.42,0,0,1-.29.12.39.39,0,0,1-.27-.1l-.49-.46a.39.39,0,0,1,0-.55l.89-1a10,10,0,0,1-.73-.86l-1.1.7a.39.39,0,0,1-.21.06.38.38,0,0,1-.33-.18l-.36-.57a.39.39,0,0,1,.12-.54l1.1-.7a10.76,10.76,0,0,1-.47-1l-1.25.39-.12,0a.4.4,0,0,1-.37-.27l-.2-.65a.38.38,0,0,1,.26-.49l1.24-.39c-.08-.36-.14-.73-.19-1.11l-1.31,0h0a.4.4,0,0,1-.4-.38l0-.67a.39.39,0,0,1,.37-.41l1.31-.05a10.13,10.13,0,0,1,.1-1.12l-1.27-.29a.39.39,0,0,1-.3-.47l.14-.66a.41.41,0,0,1,.39-.31h.08l1.28.29a9.58,9.58,0,0,1,.39-1.06l-1.16-.6a.41.41,0,0,1-.17-.54l.32-.59a.37.37,0,0,1,.35-.21.39.39,0,0,1,.18,0l1.15.61a8.56,8.56,0,0,1,.66-.92l-1-.89a.4.4,0,0,1,0-.56l.46-.49a.36.36,0,0,1,.29-.13.37.37,0,0,1,.26.1l1,.89a8.41,8.41,0,0,1,.86-.72l-.7-1.11a.39.39,0,0,1,.12-.54l.57-.36a.42.42,0,0,1,.21-.06.38.38,0,0,1,.33.18l.7,1.1a10.76,10.76,0,0,1,1-.47l-.39-1.25a.39.39,0,0,1,.25-.49l.65-.2.12,0a.39.39,0,0,1,.37.28L222,378c.36-.08.73-.14,1.11-.19l-.05-1.3a.39.39,0,0,1,.37-.41l.68,0h0m.12,18.92h.31a7.36,7.36,0,0,0-.3-14.71h-.31a7.35,7.35,0,0,0,.3,14.7m-.12-19.77h0l-.67,0a1.25,1.25,0,0,0-1.15.91,1.24,1.24,0,0,0-1-.53,1.21,1.21,0,0,0-.38.06l-.64.2a1.25,1.25,0,0,0-.87,1.18,1.27,1.27,0,0,0-.8-.29,1.24,1.24,0,0,0-.66.19l-.57.36a1.25,1.25,0,0,0-.55.78,1.3,1.3,0,0,0,0,.59,1.17,1.17,0,0,0-.52-.12,1.28,1.28,0,0,0-.92.4l-.45.5a1.19,1.19,0,0,0-.33.9,1.34,1.34,0,0,0,.16.56l-.21,0a1.22,1.22,0,0,0-1.1.66l-.32.6a1.53,1.53,0,0,1-.88,2.42l-.15.65a1.23,1.23,0,0,0,.59,1.35,1.24,1.24,0,0,0-.82,1.22l0,.67a1.53,1.53,0,0,1,.44,2.53l.2.65a1.23,1.23,0,0,0,1.18.87h0a1.25,1.25,0,0,0-.1,1.46l.36.57a1.25,1.25,0,0,0,1.05.58,1.65,1.65,0,0,0,.32,0,1.35,1.35,0,0,0-.12.57,1.31,1.31,0,0,0,.4.87l.5.45a1.2,1.2,0,0,0,.84.33,1.33,1.33,0,0,0,.62-.16,1.21,1.21,0,0,0,.65,1.31l.59.32a1.25,1.25,0,0,0,1.45-.22,1.24,1.24,0,0,0,1,1.1l.67.15a1.12,1.12,0,0,0,.27,0,1.26,1.26,0,0,0,1.07-.62,1.23,1.23,0,0,0,1.16.82h.05l.68,0a1.19,1.19,0,0,0,.86-.4,1.3,1.3,0,0,0,.29-.51,1.24,1.24,0,0,0,1,.53,1.21,1.21,0,0,0,.38-.06l.64-.2a1.25,1.25,0,0,0,.87-1.18,1.21,1.21,0,0,0,.8.29,1.3,1.3,0,0,0,.66-.19l.57-.36a1.26,1.26,0,0,0,.54-1.37,1.17,1.17,0,0,0,.52.12,1.23,1.23,0,0,0,.92-.41l.45-.49a1.24,1.24,0,0,0,.16-1.46.86.86,0,0,0,.22,0,1.22,1.22,0,0,0,1.1-.66l.32-.6a1.26,1.26,0,0,0,.08-.95,1.22,1.22,0,0,0-.3-.5,1.23,1.23,0,0,0,1.1-1l.15-.65a1.27,1.27,0,0,0-.59-1.35,1.24,1.24,0,0,0,.82-1.22l0-.67a1.53,1.53,0,0,1-.44-2.53l-.2-.65a1.23,1.23,0,0,0-1.18-.87,1.25,1.25,0,0,0,.1-1.46l-.36-.57a1.25,1.25,0,0,0-1-.58,1.65,1.65,0,0,0-.32,0,1.25,1.25,0,0,0-.28-1.43l-.5-.46a1.25,1.25,0,0,0-.84-.33,1.33,1.33,0,0,0-.62.16,1.23,1.23,0,0,0-.64-1.31l-.6-.32a1.3,1.3,0,0,0-.58-.14,1.27,1.27,0,0,0-.87.36,1.25,1.25,0,0,0-.19-.55,1.23,1.23,0,0,0-.77-.55l-.67-.15a1.12,1.12,0,0,0-.27,0,1.24,1.24,0,0,1-2.24-.2Zm.12,18.93a6.51,6.51,0,0,1-.26-13h.27a6.51,6.51,0,0,1,.27,13Z" />
  <path class="GUNDAN_FROG_JEWELRY_FROG_JEWELRY_12_cls-5" d="M224.22,393.9a6.25,6.25,0,0,1-.25-12.5h.26a6.25,6.25,0,0,1,.26,12.5h-.27Zm.13-3.25a.78.78,0,0,0-.55.26.82.82,0,0,0-.22.58.8.8,0,0,0,.8.77.82.82,0,0,0,.81-.84.8.8,0,0,0-.8-.77v-.42Zm-4-3.64a.8.8,0,0,0,0,1.6.84.84,0,0,0,.6-.26.81.81,0,0,0,.21-.57.8.8,0,0,0-.8-.77v-.43Zm7.61-.32a.81.81,0,0,0-.77.84.8.8,0,1,0,.8-.84v-.42Zm-4-3.64a.79.79,0,0,0-.56.25.83.83,0,0,0-.21.58.8.8,0,1,0,1.6-.07.79.79,0,0,0-.8-.76v-.43Z" />
  <path d="M224.23,381.82a5.83,5.83,0,0,1,.24,11.66h-.25a5.83,5.83,0,0,1-.23-11.65h.24m-.16,3.25h.05a1.23,1.23,0,0,0-.05-2.45h0a1.23,1.23,0,0,0,0,2.45m4,3.65h.05a1.23,1.23,0,0,0-.05-2.45H228a1.23,1.23,0,0,0,.05,2.45m-7.6.32h0a1.23,1.23,0,0,0,0-2.45h-.05a1.23,1.23,0,0,0,.05,2.46m3.95,3.64h.06a1.23,1.23,0,0,0-.05-2.45h0a1.23,1.23,0,0,0,0,2.45M224.23,381H224a6.68,6.68,0,0,0,.27,13.35h.28a6.68,6.68,0,0,0-.27-13.35Zm-.16,3.26a.38.38,0,0,1-.38-.37.38.38,0,0,1,.37-.39h0a.38.38,0,0,1,.39.36.34.34,0,0,1-.1.27.38.38,0,0,1-.26.13Zm4,3.64a.38.38,0,1,1,0-.75h0a.38.38,0,0,1,.39.36.37.37,0,0,1-.36.39Zm-7.6.32a.38.38,0,0,1-.38-.37.37.37,0,0,1,.36-.39h0a.37.37,0,0,1,.39.36.38.38,0,0,1-.36.4Zm3.95,3.64a.37.37,0,0,1-.37-.36.37.37,0,0,1,.36-.39h0a.37.37,0,0,1,.39.36.34.34,0,0,1-.1.27.33.33,0,0,1-.26.12Z" />
</svg>