<svg xmlns="http://www.w3.org/2000/svg" viewBox="0 0 432 432">
  <defs>
    <style>.GUNDAN_FROG_JEWELRY_FROG_JEWELRY_1_cls-1{isolation:isolate;}.GUNDAN_FROG_JEWELRY_FROG_JEWELRY_1_cls-2{fill:#ffb715;}.GUNDAN_FROG_JEWELRY_FROG_JEWELRY_1_cls-3{fill:#292929;opacity:0.8;mix-blend-mode:multiply;}.GUNDAN_FROG_JEWELRY_FROG_JEWELRY_1_cls-4{fill:#ffebc2;}.GUNDAN_FROG_JEWELRY_FROG_JEWELRY_1_cls-5{fill:none;stroke:#000;stroke-linecap:round;stroke-linejoin:round;stroke-width:0.77px;}</style>
  </defs>
  <g class="GUNDAN_FROG_JEWELRY_FROG_JEWELRY_1_cls-1">
    <g id="jewelry">
      <path class="GUNDAN_FROG_JEWELRY_FROG_JEWELRY_1_cls-2" d="M238.11,199.09a2.26,2.26,0,0,0-.29.23l-.15.13a4.58,4.58,0,0,0-1,1.34,2.74,2.74,0,0,0-.15.4l0,.09a2,2,0,0,0-.08.26,1.77,1.77,0,0,0-.08.33s0,.07,0,.1a3.93,3.93,0,0,0-.06.48c0,.07,0,.14,0,.22a.57.57,0,0,1,0,.13s0,.07,0,.09a4.16,4.16,0,0,0,.15,1,1.32,1.32,0,0,1,.22-.18,4.44,4.44,0,0,1,3.62-.75,13.57,13.57,0,0,1,1.63-2.78,13,13,0,0,1,1-1.25,8.6,8.6,0,0,0-1.34-.63A4.48,4.48,0,0,0,238.11,199.09Z" />
      <path class="GUNDAN_FROG_JEWELRY_FROG_JEWELRY_1_cls-3" d="M237.83,200.73a4.52,4.52,0,0,0-1.55,2.06h0s0,.07,0,.09a4.16,4.16,0,0,0,.15,1,1.32,1.32,0,0,1,.22-.18,4.44,4.44,0,0,1,3.62-.75,13.57,13.57,0,0,1,1.63-2.78l-.57-.23A4.55,4.55,0,0,0,237.83,200.73Z" />
      <path class="GUNDAN_FROG_JEWELRY_FROG_JEWELRY_1_cls-2" d="M234.82,199.09A6.55,6.55,0,0,0,236,210.35h0a6.58,6.58,0,0,0,5.24.1,4.37,4.37,0,0,0,1.54-2,3.52,3.52,0,0,0,.07-2.13c-1.87.81-4.42.79-5.68-.93a4.22,4.22,0,0,1-.71-1.5,4.5,4.5,0,0,1,5.17-5.59,8.09,8.09,0,0,0-2-.49A6.72,6.72,0,0,0,234.82,199.09Z" />
      <path class="GUNDAN_FROG_JEWELRY_FROG_JEWELRY_1_cls-4" d="M233.69,200.13A6.56,6.56,0,0,0,236,210.35h0a6.58,6.58,0,0,0,5.24.1,4.37,4.37,0,0,0,1.54-2c-2.32,1.06-7.48,1.54-9.18-3.11C232.62,203.74,233,201.75,233.69,200.13Z" />
      <path class="GUNDAN_FROG_JEWELRY_FROG_JEWELRY_1_cls-5" d="M236.43,203.88a3.87,3.87,0,0,1-.15-1,.16.16,0,0,1,0-.07.53.53,0,0,1,0-.12,4.9,4.9,0,0,1,.16-1.14,2,2,0,0,1,.07-.23,3.6,3.6,0,0,1,.22-.54,3.07,3.07,0,0,1,.17-.31,3.37,3.37,0,0,1,.49-.68,3.85,3.85,0,0,1,.27-.3l0,0,.15-.12a1.68,1.68,0,0,1,.29-.24,4.41,4.41,0,0,1,4.92-.25" />
      <path class="GUNDAN_FROG_JEWELRY_FROG_JEWELRY_1_cls-5" d="M236,210.36a6.58,6.58,0,0,0,5.24.1" />
      <path class="GUNDAN_FROG_JEWELRY_FROG_JEWELRY_1_cls-5" d="M242.94,198.92a8.6,8.6,0,0,0-1.34-.63,8.43,8.43,0,0,0-2-.49,6.81,6.81,0,0,0-4.74,1.28c-.13.1-.27.21-.4.33l-.13.11-.14.14a5.4,5.4,0,0,0-.56.61,3,3,0,0,0-.26.34,4.33,4.33,0,0,0-.39.62c-.06.13-.14.27-.19.4a.31.31,0,0,0-.05.1l-.09.21-.15.41c-.05.16-.1.34-.14.51a4.94,4.94,0,0,0-.1.53c0,.13-.05.28-.06.44a.22.22,0,0,0,0,.08,2.68,2.68,0,0,0,0,.4c0,.21,0,.43,0,.64h0c0,.15,0,.28.05.43a6.75,6.75,0,0,0,1.19,2.88,6.56,6.56,0,0,0,2.56,2.08" />
      <path class="GUNDAN_FROG_JEWELRY_FROG_JEWELRY_1_cls-5" d="M242.82,206.31c-1.87.81-4.42.79-5.68-.93a4.22,4.22,0,0,1-.71-1.5" />
      <path class="GUNDAN_FROG_JEWELRY_FROG_JEWELRY_1_cls-5" d="M242.82,206.31a3.94,3.94,0,0,1-1.61,4.15" />
      <path class="GUNDAN_FROG_JEWELRY_FROG_JEWELRY_1_cls-5" d="M236,210.35h0" />
      <path class="GUNDAN_FROG_JEWELRY_FROG_JEWELRY_1_cls-5" d="M240.27,203a4.44,4.44,0,0,0-3.62.75,1.32,1.32,0,0,0-.22.18" />
      <path class="GUNDAN_FROG_JEWELRY_FROG_JEWELRY_1_cls-5" d="M240.27,203a13.57,13.57,0,0,1,1.63-2.78,13,13,0,0,1,1-1.25s.06-.07.09-.08" />
      <path class="GUNDAN_FROG_JEWELRY_FROG_JEWELRY_1_cls-5" d="M242.61,204.86s2.2,3.53-3,7.54" />
    </g>
  </g>
</svg>