<svg xmlns="http://www.w3.org/2000/svg" viewBox="0 0 432 432">
  <defs>
    <style>.GUNDAN_FROG_JEWELRY_FROG_JEWELRY_8_cls-1{isolation:isolate;}.GUNDAN_FROG_JEWELRY_FROG_JEWELRY_8_cls-2{fill:#776c3e;}.GUNDAN_FROG_JEWELRY_FROG_JEWELRY_8_cls-3{fill:#292929;opacity:0.8;mix-blend-mode:multiply;}.GUNDAN_FROG_JEWELRY_FROG_JEWELRY_8_cls-4{fill:#ad9f63;}.GUNDAN_FROG_JEWELRY_FROG_JEWELRY_8_cls-5{fill:none;stroke:#000;stroke-linecap:round;stroke-linejoin:round;stroke-width:1.1px;}</style>
  </defs>
  <g class="GUNDAN_FROG_JEWELRY_FROG_JEWELRY_8_cls-1">
    <g id="jewelry">
      <path class="GUNDAN_FROG_JEWELRY_FROG_JEWELRY_8_cls-2" d="M189.6,222.47a4.38,4.38,0,0,0-.52,0,1.27,1.27,0,0,0-.27,0,6.54,6.54,0,0,0-2.32.4,3.76,3.76,0,0,0-.54.25l-.13.05-.33.2a2.36,2.36,0,0,0-.41.25c-.05,0-.08.07-.11.08-.19.15-.37.29-.54.44s-.14.15-.22.22-.09.08-.13.13-.07.06-.08.1a5.91,5.91,0,0,0-.83,1.15,1.87,1.87,0,0,1,.4,0,6.31,6.31,0,0,1,4.42,2.8,19.84,19.84,0,0,1,4.4-1.2,16.52,16.52,0,0,1,2.3-.25,12.77,12.77,0,0,0-.74-2A6.36,6.36,0,0,0,189.6,222.47Z" />
      <path class="GUNDAN_FROG_JEWELRY_FROG_JEWELRY_8_cls-3" d="M187.71,223.87a6.38,6.38,0,0,0-3.61.56h0s-.07.06-.08.1a5.91,5.91,0,0,0-.83,1.15,1.87,1.87,0,0,1,.4,0,6.31,6.31,0,0,1,4.42,2.8,19.84,19.84,0,0,1,4.4-1.2,8.08,8.08,0,0,0-.35-.8A6.4,6.4,0,0,0,187.71,223.87Z" />
      <path class="GUNDAN_FROG_JEWELRY_FROG_JEWELRY_8_cls-2" d="M186.27,219.22a10,10,0,0,0-2.18-.05,9.31,9.31,0,0,0-8.33,8,9.19,9.19,0,0,0,.54,4.65h0a9.3,9.3,0,0,0,5.23,5.28,6.18,6.18,0,0,0,3.57-.53,5,5,0,0,0,2.17-2.09c-2.71-1-5.28-3.57-4.86-6.56a5.91,5.91,0,0,1,.76-2.22,6.37,6.37,0,0,1,10.78-.58,11.61,11.61,0,0,0-1.59-2.51A9.63,9.63,0,0,0,186.27,219.22Z" />
      <path class="GUNDAN_FROG_JEWELRY_FROG_JEWELRY_8_cls-4" d="M184.09,219.17a9.31,9.31,0,0,0-8.33,8,9.19,9.19,0,0,0,.54,4.65h0a9.3,9.3,0,0,0,5.23,5.28,6.18,6.18,0,0,0,3.57-.53c-3.41-1.21-9.14-5.82-6.27-12.23C179.43,221.79,181.81,220.15,184.09,219.17Z" />
      <path class="GUNDAN_FROG_JEWELRY_FROG_JEWELRY_8_cls-5" d="M183.17,225.68a6.21,6.21,0,0,1,.85-1.18.92.92,0,0,0,.19-.2,6.36,6.36,0,0,1,1.29-1,2,2,0,0,1,.29-.17,4,4,0,0,1,.76-.33,3.82,3.82,0,0,1,.48-.15,7.06,7.06,0,0,1,1.73-.24h.05a1.27,1.27,0,0,1,.27,0,4.38,4.38,0,0,1,.52,0,6.36,6.36,0,0,1,4.35,2.64,6.22,6.22,0,0,1,.91,2" />
      <path class="GUNDAN_FROG_JEWELRY_FROG_JEWELRY_8_cls-5" d="M176.3,231.81a9.3,9.3,0,0,0,5.23,5.28" />
      <path class="GUNDAN_FROG_JEWELRY_FROG_JEWELRY_8_cls-5" d="M194.69,227.07a12.77,12.77,0,0,0-.74-2,11.47,11.47,0,0,0-1.59-2.51,9.67,9.67,0,0,0-6.08-3.38,4.52,4.52,0,0,0-.74-.06l-.24,0H185a7.64,7.64,0,0,0-1.18.07l-.6.08a8.76,8.76,0,0,0-1,.25c-.19.07-.4.14-.58.22a.52.52,0,0,0-.15.06l-.31.12-.55.27c-.21.12-.44.24-.65.38a5.73,5.73,0,0,0-.62.44,5.28,5.28,0,0,0-.5.39s-.06,0-.08.07-.28.26-.42.4a7.45,7.45,0,0,0-.6.66v0a3.41,3.41,0,0,0-.37.48,9.4,9.4,0,0,0-1.64,4.11,9.28,9.28,0,0,0,.54,4.64" />
      <path class="GUNDAN_FROG_JEWELRY_FROG_JEWELRY_8_cls-5" d="M187.27,234.47c-2.71-1-5.28-3.57-4.86-6.56a5.91,5.91,0,0,1,.76-2.22" />
      <path class="GUNDAN_FROG_JEWELRY_FROG_JEWELRY_8_cls-5" d="M187.27,234.47a5.59,5.59,0,0,1-5.74,2.62" />
      <path class="GUNDAN_FROG_JEWELRY_FROG_JEWELRY_8_cls-5" d="M176.3,231.8h0" />
      <path class="GUNDAN_FROG_JEWELRY_FROG_JEWELRY_8_cls-5" d="M188,228.52a6.31,6.31,0,0,0-4.42-2.8,1.87,1.87,0,0,0-.4,0" />
      <path class="GUNDAN_FROG_JEWELRY_FROG_JEWELRY_8_cls-5" d="M188,228.52a19.84,19.84,0,0,1,4.4-1.2,16.52,16.52,0,0,1,2.3-.25.49.49,0,0,1,.17,0" />
    </g>
  </g>
</svg>