<svg id="Jewellry" xmlns="http://www.w3.org/2000/svg" viewBox="0 0 432 432">
  <defs>
    <style>.GUNDAN_CAT_JEWELRY_CAT_JEWELLERY_7_cls-1{fill:#fff;}.GUNDAN_CAT_JEWELRY_CAT_JEWELLERY_7_cls-2{fill:#dfca6d;}.GUNDAN_CAT_JEWELRY_CAT_JEWELLERY_7_cls-3{fill:#776328;}.GUNDAN_CAT_JEWELRY_CAT_JEWELLERY_7_cls-4,.GUNDAN_CAT_JEWELRY_CAT_JEWELLERY_7_cls-5{fill:none;stroke-linecap:round;stroke-linejoin:round;}.GUNDAN_CAT_JEWELRY_CAT_JEWELLERY_7_cls-4,.GUNDAN_CAT_JEWELRY_CAT_JEWELLERY_7_cls-5,.GUNDAN_CAT_JEWELRY_CAT_JEWELLERY_7_cls-6{stroke:#000;}.GUNDAN_CAT_JEWELRY_CAT_JEWELLERY_7_cls-4{stroke-width:1.9px;}.GUNDAN_CAT_JEWELRY_CAT_JEWELLERY_7_cls-5{stroke-width:0.68px;}.GUNDAN_CAT_JEWELRY_CAT_JEWELLERY_7_cls-6{fill:#85432d;stroke-miterlimit:10;stroke-width:1.82px;}</style>
  </defs>
  <path class="GUNDAN_CAT_JEWELRY_CAT_JEWELLERY_7_cls-1" d="M228.68,394.3a12.34,12.34,0,0,0-8.57,3.45h0a12.38,12.38,0,0,0-3.81,8.93v.06a12.39,12.39,0,0,0,12.38,12.33,11.79,11.79,0,0,0,1.79-.13l-.86-2.93s.36-2.05-.43-2.28l-.79-.22a3.55,3.55,0,0,0,.64-1.69,10.38,10.38,0,0,0-.46-2.27,2.86,2.86,0,0,1-2.11-4.67,3.84,3.84,0,0,0-.81-.78,2.61,2.61,0,0,0-1.43-.09l.35-.7c.34-.71-1.15-1.15-1.15-1.15l-3.28-4.39,4.39,3.28s.44,1.49,1.14,1.15l.71-.34a2.47,2.47,0,0,0,.09,1.42,3.48,3.48,0,0,0,.86.87,2.79,2.79,0,0,1,1.35-.34,2.87,2.87,0,0,1,1.1,5.53,10.08,10.08,0,0,0,.39,2.28,3.42,3.42,0,0,0,1.21,1.32l-.66.5c-.65.5.42,2.28.42,2.28l.26,3a12.42,12.42,0,0,0,9.68-12v-.06A12.39,12.39,0,0,0,228.68,394.3Z" />
  <path class="GUNDAN_CAT_JEWELRY_CAT_JEWELLERY_7_cls-2" d="M228.68,388A18.69,18.69,0,0,0,210,406.68a1.15,1.15,0,0,0,0,.18,18.66,18.66,0,0,0,18.67,18.51,18.15,18.15,0,0,0,3.4-.31,18.68,18.68,0,0,0,15.29-18.2,1.15,1.15,0,0,0,0-.18A18.69,18.69,0,0,0,228.68,388Zm2.72,30.78.41,4.75-1.34-4.58a11.79,11.79,0,0,1-1.79.13,12.39,12.39,0,0,1-12.38-12.33v-.06a12.38,12.38,0,0,1,3.81-8.93h0a12.39,12.39,0,0,1,21,8.93v.06A12.42,12.42,0,0,1,231.4,418.77Z" />
  <path class="GUNDAN_CAT_JEWELRY_CAT_JEWELLERY_7_cls-3" d="M232.59,384.2a22.83,22.83,0,1,1-7.81,0,22,22,0,0,1,7.81,0Zm14.78,22.66a1.15,1.15,0,0,0,0-.18,18.69,18.69,0,1,0-37.38,0,1.15,1.15,0,0,0,0,.18,18.66,18.66,0,0,0,18.67,18.51,18.15,18.15,0,0,0,3.4-.31A18.68,18.68,0,0,0,247.37,406.86Z" />
  <path d="M231.4,418.77l.41,4.75-1.34-4.58C230.78,418.9,231.1,418.84,231.4,418.77Z" />
  <path d="M230.72,413.44c-.65.5.42,2.28.42,2.28l.26,3c-.3.07-.62.13-.93.17l-.86-2.93s.36-2.05-.43-2.28l-.79-.22a3.55,3.55,0,0,0,.64-1.69,10.38,10.38,0,0,0-.46-2.27h.11a2.88,2.88,0,0,0,1.1-.22,10.08,10.08,0,0,0,.39,2.28,3.42,3.42,0,0,0,1.21,1.32Z" />
  <path d="M229.67,405.83a2,2,0,0,1-1.34-1.19c.43-.07,1.17-.13,1.48.17S229.83,405.39,229.67,405.83Z" />
  <path d="M227,406.75c.31-.51,1.27-.9,1.27-2.1h.1a2,2,0,0,0,1.34,1.19,1.38,1.38,0,0,0,.17,1.64c-1-1-2.22.42-2.66,0A1,1,0,0,1,227,406.75Z" />
  <path d="M228.23,404.65a2.93,2.93,0,0,0,0-.49,2.77,2.77,0,0,0,.13.48Z" />
  <path d="M228.32,404.64a2.77,2.77,0,0,1-.13-.48,2.93,2.93,0,0,1,0,.49l-.2,0s-.33-.23-.7-.54a2.79,2.79,0,0,1,1.35-.34,2.87,2.87,0,0,1,1.1,5.53c0-.42-.06-.72-.06-.72s1-1.23.8-2.12c-.07-.38-.44-.5-.85-.67.16-.44.35-.82.14-1s-1.05-.24-1.48-.17Z" />
  <path d="M228.23,404.65c0,1.2-1,1.59-1.27,2.1a4,4,0,0,1,.1-1.08s-.27-.4-.6-.79a2.67,2.67,0,0,1,.87-.73c.37.31.7.54.7.54Z" />
  <path d="M229.78,409.34a2.88,2.88,0,0,1-1.1.22h-.11c-.11-.4-.2-.68-.2-.68s-1.34-.79-1.51-1.68a.56.56,0,0,1,.1-.44,1,1,0,0,0,.22.69c.44.45,1.68-.95,2.66,0a1.38,1.38,0,0,1-.17-1.64c.41.17.78.29.85.67.17.89-.8,2.12-.8,2.12S229.74,408.92,229.78,409.34Z" />
  <path d="M226.86,407.19c.17.89,1.51,1.68,1.51,1.68s.09.28.2.68a2.86,2.86,0,0,1-2.11-4.67c.33.39.6.79.6.79a4,4,0,0,0-.1,1.08A.56.56,0,0,0,226.86,407.19Z" />
  <path d="M226.46,404.88a3.84,3.84,0,0,0-.81-.78,2.61,2.61,0,0,0-1.43-.09l.35-.7c.34-.71-1.15-1.15-1.15-1.15l-3.28-4.39,4.39,3.28s.44,1.49,1.14,1.15l.71-.34a2.47,2.47,0,0,0,.09,1.42,3.48,3.48,0,0,0,.86.87A2.67,2.67,0,0,0,226.46,404.88Z" />
  <path class="GUNDAN_CAT_JEWELRY_CAT_JEWELLERY_7_cls-4" d="M232.59,384.2a22.83,22.83,0,1,1-7.81,0,22,22,0,0,1,7.81,0Z" />
  <path class="GUNDAN_CAT_JEWELRY_CAT_JEWELLERY_7_cls-4" d="M210,406.86a1.15,1.15,0,0,1,0-.18,18.69,18.69,0,1,1,37.38,0,1.15,1.15,0,0,1,0,.18,18.68,18.68,0,0,1-15.29,18.2,18.15,18.15,0,0,1-3.4.31A18.66,18.66,0,0,1,210,406.86Z" />
  <path class="GUNDAN_CAT_JEWELRY_CAT_JEWELLERY_7_cls-5" d="M230.47,418.94a11.79,11.79,0,0,1-1.79.13,12.39,12.39,0,0,1-12.38-12.33v-.06a12.38,12.38,0,0,1,3.81-8.93h0a12.39,12.39,0,0,1,21,8.93v.06a12.42,12.42,0,0,1-9.68,12" />
  <line class="GUNDAN_CAT_JEWELRY_CAT_JEWELLERY_7_cls-5" x1="228.68" y1="390.5" x2="228.68" y2="392.05" />
  <line class="GUNDAN_CAT_JEWELRY_CAT_JEWELLERY_7_cls-5" x1="228.68" y1="421.55" x2="228.68" y2="423.11" />
  <line class="GUNDAN_CAT_JEWELRY_CAT_JEWELLERY_7_cls-5" x1="244.99" y1="406.8" x2="243.44" y2="406.8" />
  <line class="GUNDAN_CAT_JEWELRY_CAT_JEWELLERY_7_cls-5" x1="213.94" y1="406.8" x2="212.39" y2="406.8" />
  <line class="GUNDAN_CAT_JEWELRY_CAT_JEWELLERY_7_cls-5" x1="240.21" y1="418.33" x2="239.12" y2="417.23" />
  <line class="GUNDAN_CAT_JEWELRY_CAT_JEWELLERY_7_cls-5" x1="218.26" y1="396.37" x2="217.16" y2="395.27" />
  <line class="GUNDAN_CAT_JEWELRY_CAT_JEWELLERY_7_cls-5" x1="217.16" y1="418.33" x2="218.26" y2="417.23" />
  <line class="GUNDAN_CAT_JEWELRY_CAT_JEWELLERY_7_cls-5" x1="239.12" y1="396.37" x2="240.21" y2="395.27" />
  <polyline class="GUNDAN_CAT_JEWELRY_CAT_JEWELLERY_7_cls-4" points="224.78 384.2 224.78 376.85 232.59 376.85 232.59 384.2" />
  <path class="GUNDAN_CAT_JEWELRY_CAT_JEWELLERY_7_cls-6" d="M228.59,379.68a1.54,1.54,0,0,1-.43-.06,169.72,169.72,0,0,1-37.09-15.49c-25.34-14.38-41.22-33.13-45.91-54.22-.2-.92-.84-6.16,4.13-6.46,0,0-.07.4-.37,1.42a13.25,13.25,0,0,0,.05,7.54c13.18,43.64,73.77,62.16,79.59,63.77,4.49-1.39,42.47-14.24,60.67-54.05.4-.86-.09-4.61-.32-6.42a5.77,5.77,0,0,1,3.44,7.85c-20,43.63-62.88,55.94-63.31,56.06A1.74,1.74,0,0,1,228.59,379.68Z" />
</svg>