<svg id="Jewellry" xmlns="http://www.w3.org/2000/svg" viewBox="0 0 432 432">
  <defs>
    <style>.GUNDAN_CAT_JEWELRY_CAT_JEWELLERY_9_cls-1,.GUNDAN_CAT_JEWELRY_CAT_JEWELLERY_9_cls-6{fill:none;stroke:#000;stroke-linecap:round;stroke-linejoin:round;}.GUNDAN_CAT_JEWELRY_CAT_JEWELLERY_9_cls-1{stroke-width:0.95px;}.GUNDAN_CAT_JEWELRY_CAT_JEWELLERY_9_cls-2{fill:#b7866d;}.GUNDAN_CAT_JEWELRY_CAT_JEWELLERY_9_cls-3{fill:#f49092;}.GUNDAN_CAT_JEWELRY_CAT_JEWELLERY_9_cls-4{fill:#e12d2b;}.GUNDAN_CAT_JEWELRY_CAT_JEWELLERY_9_cls-5{fill:#9e1d20;}.GUNDAN_CAT_JEWELRY_CAT_JEWELLERY_9_cls-6{stroke-width:0.76px;}</style>
  </defs>
  <path class="GUNDAN_CAT_JEWELRY_CAT_JEWELLERY_9_cls-1" d="M309,167.44V145.13a3.88,3.88,0,0,1,1.64-3.18" />
  <path class="GUNDAN_CAT_JEWELRY_CAT_JEWELLERY_9_cls-2" d="M310.06,179.13a.35.35,0,0,1-.34-.31l-.07-.76c-.21,0-.41,0-.62,0s-.63,0-.94,0l-.09.75a.33.33,0,0,1-.12.23.36.36,0,0,1-.22.07h0q-.4,0-.81-.12a.37.37,0,0,1-.22-.14.34.34,0,0,1,0-.26l.14-.74a9.94,9.94,0,0,1-1.5-.45l-.29.7a.37.37,0,0,1-.18.19l-.14,0-.13,0-.75-.34a.35.35,0,0,1-.15-.46l.33-.67a12.75,12.75,0,0,1-1.32-.83l-.46.59a.41.41,0,0,1-.23.13h0a.38.38,0,0,1-.21-.07c-.22-.17-.43-.35-.63-.53a.34.34,0,0,1,0-.48l.51-.57a10.39,10.39,0,0,1-1.06-1.15l-.6.45a.37.37,0,0,1-.21.06h0a.32.32,0,0,1-.22-.13c-.16-.22-.32-.45-.46-.68a.34.34,0,0,1-.05-.26.3.3,0,0,1,.15-.21l.64-.41a10.16,10.16,0,0,1-.7-1.4l-.71.27-.12,0a.32.32,0,0,1-.14,0,.37.37,0,0,1-.18-.19c-.09-.26-.18-.52-.26-.78a.33.33,0,0,1,.23-.42l.72-.22c0-.13-.08-.27-.11-.41a10.41,10.41,0,0,1-.19-1.12l-.78.06a.34.34,0,0,1-.34-.3c0-.28,0-.55,0-.83a.37.37,0,0,1,.1-.24.36.36,0,0,1,.24-.11h.74a10.28,10.28,0,0,1,.14-1.56l-.74-.14a.33.33,0,0,1-.27-.4c.05-.27.11-.54.18-.8a.32.32,0,0,1,.15-.21.41.41,0,0,1,.18,0h.08l.73.19a10.68,10.68,0,0,1,.55-1.46l-.68-.34a.32.32,0,0,1-.15-.45c.12-.25.25-.49.38-.73a.37.37,0,0,1,.21-.16h.09a.34.34,0,0,1,.17.05l.66.38a11.68,11.68,0,0,1,.91-1.27l-.56-.5a.35.35,0,0,1,0-.48c.18-.21.38-.4.57-.59a.31.31,0,0,1,.24-.1h0a.35.35,0,0,1,.24.1l.53.54a11.3,11.3,0,0,1,1.23-1l-.41-.64a.34.34,0,0,1-.05-.26.38.38,0,0,1,.15-.22l.71-.41a.32.32,0,0,1,.46.13l.37.67a10.2,10.2,0,0,1,1.44-.61l-.22-.72a.3.3,0,0,1,0-.26.29.29,0,0,1,.2-.16c.26-.08.52-.15.79-.21h.08a.31.31,0,0,1,.18,0,.32.32,0,0,1,.15.21l.17.73a10.44,10.44,0,0,1,1.55-.2l0-.74a.31.31,0,0,1,.1-.24.32.32,0,0,1,.24-.11h.82a.34.34,0,0,1,.32.36l0,.75a10.19,10.19,0,0,1,1.55.24l.19-.74a.33.33,0,0,1,.33-.25H312l.79.23a.34.34,0,0,1,.2.17.39.39,0,0,1,0,.26l-.24.72a12.14,12.14,0,0,1,1.42.65l.38-.66a.34.34,0,0,1,.21-.16h.09a.34.34,0,0,1,.17.05c.23.13.47.28.69.43a.35.35,0,0,1,.1.48l-.43.63a10.26,10.26,0,0,1,1.2,1l.54-.53a.34.34,0,0,1,.24-.1.35.35,0,0,1,.25.1c.19.2.37.4.55.61a.33.33,0,0,1,.08.25.35.35,0,0,1-.12.23l-.57.49a10.83,10.83,0,0,1,.88,1.29l.66-.37a.53.53,0,0,1,.17,0,.36.36,0,0,1,.3.18c.13.24.25.49.36.74a.34.34,0,0,1-.16.45l-.68.31a11.2,11.2,0,0,1,.5,1.48l.73-.17h.08a.34.34,0,0,1,.33.26c.07.3.12.57.16.84a.35.35,0,0,1-.28.39l-.75.11a10.35,10.35,0,0,1,.09,1.56l.75,0a.34.34,0,0,1,.32.36c0,.27,0,.55-.06.82a.34.34,0,0,1-.34.3l-.8-.09a9.83,9.83,0,0,1-.34,1.52l.72.25a.34.34,0,0,1,.2.17.39.39,0,0,1,0,.26c-.09.26-.19.52-.29.77a.35.35,0,0,1-.32.21.31.31,0,0,1-.13,0l-.7-.28a10.67,10.67,0,0,1-.74,1.37l.63.43a.34.34,0,0,1,.09.47c-.15.23-.32.45-.48.66a.32.32,0,0,1-.23.13h0a.32.32,0,0,1-.21-.08l-.59-.46a11.5,11.5,0,0,1-1.09,1.12l.49.58a.35.35,0,0,1,0,.48c-.21.18-.43.35-.65.51a.35.35,0,0,1-.2.07h-.05a.32.32,0,0,1-.22-.13l-.45-.61a10.77,10.77,0,0,1-1.34.8l.31.68a.34.34,0,0,1-.17.45l-.76.32-.12,0a.32.32,0,0,1-.14,0,.37.37,0,0,1-.18-.19l-.27-.71a10.32,10.32,0,0,1-1.11.33l-.4.07.12.74a.34.34,0,0,1-.28.39c-.27,0-.55.08-.82.11Zm-1-20.48a8.53,8.53,0,0,0-1.88.21A8.47,8.47,0,0,0,300.78,169a8.47,8.47,0,0,0,10.13,6.38,8.47,8.47,0,0,0,6.37-10.13A8.52,8.52,0,0,0,309,158.65Z" />
  <path d="M309,155.4h.54l-.05,1.09a10.25,10.25,0,0,1,2.15.33l.28-1.06c.25.07.51.14.76.23l-.34,1a10.34,10.34,0,0,1,2,.89l.55-1c.23.13.45.28.67.43l-.61.9a11.1,11.1,0,0,1,1.67,1.39l.78-.76c.19.19.37.39.54.59l-.83.71a9.78,9.78,0,0,1,1.23,1.79l1-.53.36.72-1,.45a10.2,10.2,0,0,1,.7,2.06l1.06-.24v0c.06.25.11.52.15.78l-1.07.17a10.57,10.57,0,0,1,.11,2.17l1.09.05c0,.27,0,.53-.06.8l-1.09-.13a10,10,0,0,1-.48,2.12l1,.35c-.08.25-.18.5-.28.75l-1-.42a10.06,10.06,0,0,1-1,1.91l.91.62c-.15.22-.31.44-.47.64l-.86-.66a10.12,10.12,0,0,1-1.51,1.56l.71.83c-.2.17-.41.34-.63.5l-.64-.88a10.6,10.6,0,0,1-1.87,1.11l.45,1-.74.31-.39-1a10.67,10.67,0,0,1-1.39.43c-.23,0-.47.08-.71.12l.17,1.08-.79.1-.1-1.09c-.31,0-.62,0-.93,0a10.19,10.19,0,0,1-1.24-.07l-.13,1.08c-.26,0-.53-.07-.79-.12l.2-1.06a10.63,10.63,0,0,1-2.08-.63l-.42,1c-.24-.1-.49-.21-.72-.33l.48-1a11,11,0,0,1-1.84-1.16l-.67.86c-.21-.17-.42-.34-.62-.52l.73-.81a10.59,10.59,0,0,1-1.46-1.6l-.88.64-.45-.66.93-.58a10.7,10.7,0,0,1-1-1.94l-1,.38c-.09-.25-.18-.5-.25-.76l1-.31c-.07-.24-.14-.47-.2-.71a10.14,10.14,0,0,1-.21-1.42l-1.09.09c0-.26,0-.53,0-.79l1.08,0a10.33,10.33,0,0,1,.18-2.16l-1.07-.2c.05-.27.11-.53.18-.79l1.05.28a11.09,11.09,0,0,1,.76-2l-1-.48c.12-.24.25-.48.38-.71l1,.55a11.38,11.38,0,0,1,1.27-1.76l-.81-.72a7.54,7.54,0,0,1,.55-.58l.76.78a11.72,11.72,0,0,1,1.7-1.35l-.58-.92a7.76,7.76,0,0,1,.69-.4l.52.95a10.14,10.14,0,0,1,2-.83l-.31-1,.77-.2.24,1.05h0a11.27,11.27,0,0,1,2.14-.26l0-1.08H309m0,20.52a8.81,8.81,0,1,0,0-17.61,8.7,8.7,0,0,0-1.95.22A8.8,8.8,0,0,0,309,175.92m0-21.2h-.27a.68.68,0,0,0-.48.21.73.73,0,0,0-.19.49v.41c-.31,0-.63.07-.94.12l-.1-.4a.7.7,0,0,0-.3-.43.68.68,0,0,0-.36-.1h-.15l-.82.22a.68.68,0,0,0-.46.85l.13.41c-.3.11-.59.23-.88.37l-.21-.38a.66.66,0,0,0-.4-.33l-.19,0a.63.63,0,0,0-.33.09c-.25.13-.49.28-.73.43a.68.68,0,0,0-.21.94l.23.36-.74.59-.3-.31a.67.67,0,0,0-.48-.2h0a.71.71,0,0,0-.48.19c-.2.2-.39.4-.58.61a.69.69,0,0,0-.17.49.69.69,0,0,0,.22.47l.32.29c-.19.25-.38.51-.55.77l-.38-.22a.68.68,0,0,0-.93.25c-.14.24-.28.49-.4.75a.67.67,0,0,0,0,.52.65.65,0,0,0,.34.39l.38.19c-.12.29-.23.59-.33.89l-.41-.11-.17,0a.69.69,0,0,0-.66.51c-.07.27-.14.55-.19.83a.69.69,0,0,0,.55.8l.41.07c0,.32-.06.64-.08.95h-.42a.68.68,0,0,0-.67.7c0,.28,0,.56.05.84a.69.69,0,0,0,.68.63h.06l.42,0c.05.3.09.57.15.84l0,.1-.4.12a.68.68,0,0,0-.46.85c.08.27.17.54.27.8a.7.7,0,0,0,.64.44.67.67,0,0,0,.24,0l.41-.15c.13.29.27.57.42.85l-.36.23a.68.68,0,0,0-.21.94c.15.24.31.47.48.7a.68.68,0,0,0,.44.27h.1a.67.67,0,0,0,.41-.13l.34-.25c.2.24.42.47.64.7l-.28.32a.68.68,0,0,0-.18.49.66.66,0,0,0,.23.47c.21.19.43.37.65.54a.66.66,0,0,0,.42.15h.08a.71.71,0,0,0,.46-.25l.26-.34c.26.18.53.35.8.51l-.19.38a.67.67,0,0,0,0,.52.69.69,0,0,0,.34.39c.26.13.51.24.77.35a.63.63,0,0,0,.26,0,.67.67,0,0,0,.63-.42l.17-.4c.3.11.61.2.91.28l-.08.42a.68.68,0,0,0,.55.79c.27,0,.56.1.83.13h.08a.72.72,0,0,0,.43-.15.68.68,0,0,0,.25-.46l.05-.43c.22,0,.43,0,.64,0h.31l0,.43a.68.68,0,0,0,.68.62h.06c.28,0,.56-.06.84-.11a.69.69,0,0,0,.45-.27.71.71,0,0,0,.12-.51l-.07-.41.08,0c.27-.06.55-.14.84-.23l.15.4a.68.68,0,0,0,.64.44,1,1,0,0,0,.24,0q.39-.15.78-.33a.69.69,0,0,0,.34-.9l-.18-.39c.28-.15.55-.31.82-.48l.25.34a.7.7,0,0,0,.55.28.79.79,0,0,0,.41-.13c.22-.17.45-.35.66-.53a.68.68,0,0,0,.08-1l-.28-.33c.23-.22.45-.45.66-.68l.34.26a.66.66,0,0,0,1-.12,7.9,7.9,0,0,0,.5-.68.69.69,0,0,0-.18-.95l-.36-.24a8.44,8.44,0,0,0,.45-.84l.4.17a.8.8,0,0,0,.26,0,.75.75,0,0,0,.26,0,.67.67,0,0,0,.37-.37c.11-.26.21-.53.3-.79a.69.69,0,0,0-.43-.87l-.41-.13q.12-.47.21-.93l.43,0h.08a.66.66,0,0,0,.42-.15.66.66,0,0,0,.25-.45,8.12,8.12,0,0,0,.07-.85.69.69,0,0,0-.17-.49.69.69,0,0,0-.47-.22l-.43,0c0-.32,0-.63,0-1l.42-.07a.69.69,0,0,0,.45-.27.71.71,0,0,0,.12-.51c0-.27-.1-.55-.16-.83a.71.71,0,0,0-.69-.55h-.14l-.4.1c-.09-.31-.2-.61-.31-.91l.38-.17a.69.69,0,0,0,.35-.38.65.65,0,0,0,0-.53c-.11-.25-.24-.51-.37-.75a.69.69,0,0,0-.6-.36.66.66,0,0,0-.33.09l-.38.2c-.17-.27-.34-.53-.53-.78l.32-.28a.68.68,0,0,0,.08-1q-.27-.33-.57-.63a.7.7,0,0,0-.49-.2.66.66,0,0,0-.47.19l-.31.3c-.24-.21-.48-.41-.73-.6l.24-.36a.69.69,0,0,0-.18-.95l-.72-.45a.72.72,0,0,0-.34-.09.66.66,0,0,0-.59.34l-.22.37q-.42-.21-.87-.39l.14-.41a.67.67,0,0,0,0-.52.69.69,0,0,0-.39-.34q-.4-.14-.81-.24a.55.55,0,0,0-.18,0,.68.68,0,0,0-.66.51l-.1.41c-.31-.06-.63-.1-.95-.14l0-.43a.68.68,0,0,0-.64-.71Zm0,20.52a8.13,8.13,0,0,1-1.8-16.05,8.41,8.41,0,0,1,1.8-.2,8.18,8.18,0,0,1,7.92,6.32,8.14,8.14,0,0,1-6.12,9.73,8.41,8.41,0,0,1-1.8.2Z" />
  <ellipse cx="309.04" cy="167.1" rx="6.61" ry="6.65" />
  <polygon class="GUNDAN_CAT_JEWELRY_CAT_JEWELLERY_9_cls-3" points="307.79 171.19 308.67 170.89 307.18 170.11 307.79 171.19" />
  <polygon class="GUNDAN_CAT_JEWELRY_CAT_JEWELLERY_9_cls-4" points="309.41 170.89 310.9 170.11 310.29 171.19 309.41 170.89" />
  <polygon class="GUNDAN_CAT_JEWELRY_CAT_JEWELLERY_9_cls-4" points="305.61 167.59 306.39 169.39 305.1 168.82 305.61 167.59" />
  <path class="GUNDAN_CAT_JEWELRY_CAT_JEWELLERY_9_cls-3" d="M304.35,170.72a5.73,5.73,0,0,1-.72-1.25l1-.35Z" />
  <path class="GUNDAN_CAT_JEWELRY_CAT_JEWELLERY_9_cls-4" d="M303.16,166.67a5.71,5.71,0,0,1,.36-1.67l1.05.37Z" />
  <polygon class="GUNDAN_CAT_JEWELRY_CAT_JEWELLERY_9_cls-3" points="306.39 164.81 305.61 166.61 305.1 165.38 306.39 164.81" />
  <path class="GUNDAN_CAT_JEWELRY_CAT_JEWELLERY_9_cls-3" d="M303.63,164.73a5.73,5.73,0,0,1,.72-1.25l.27,1.6Z" />
  <path class="GUNDAN_CAT_JEWELRY_CAT_JEWELLERY_9_cls-4" d="M303.52,169.2a5.71,5.71,0,0,1-.36-1.67l1.41,1.3Z" />
  <polygon class="GUNDAN_CAT_JEWELRY_CAT_JEWELLERY_9_cls-5" points="305.39 167.1 304.78 168.57 303.19 167.1 304.78 165.63 305.39 167.1" />
  <polygon class="GUNDAN_CAT_JEWELRY_CAT_JEWELLERY_9_cls-4" points="307.79 163.01 308.67 163.31 307.18 164.09 307.79 163.01" />
  <path class="GUNDAN_CAT_JEWELRY_CAT_JEWELLERY_9_cls-4" d="M308.71,173.08a5.7,5.7,0,0,1-2-.48l.92-.95Z" />
  <polygon class="GUNDAN_CAT_JEWELRY_CAT_JEWELLERY_9_cls-3" points="309.04 170.75 306.92 169.62 305.82 167.1 306.92 164.58 309.04 163.46 311.17 164.58 312.27 167.1 311.17 169.62 309.04 170.75" />
  <polygon class="GUNDAN_CAT_JEWELRY_CAT_JEWELLERY_9_cls-5" points="306.57 169.79 307.38 171.22 304.7 171.04 305.03 169.11 306.57 169.79" />
  <polygon class="GUNDAN_CAT_JEWELRY_CAT_JEWELLERY_9_cls-3" points="310.9 164.09 309.41 163.31 310.29 163.01 310.9 164.09" />
  <polygon class="GUNDAN_CAT_JEWELRY_CAT_JEWELLERY_9_cls-3" points="311.69 169.39 312.47 167.59 312.98 168.82 311.69 169.39" />
  <polygon class="GUNDAN_CAT_JEWELRY_CAT_JEWELLERY_9_cls-4" points="312.47 166.61 311.69 164.81 312.98 165.38 312.47 166.61" />
  <path class="GUNDAN_CAT_JEWELRY_CAT_JEWELLERY_9_cls-4" d="M306.4,172.45a6.12,6.12,0,0,1-1.54-1.13l2.47.17Z" />
  <polygon class="GUNDAN_CAT_JEWELRY_CAT_JEWELLERY_9_cls-5" points="309.04 172.91 307.95 171.44 309.04 171.07 310.13 171.44 309.04 172.91" />
  <polygon class="GUNDAN_CAT_JEWELRY_CAT_JEWELLERY_9_cls-5" points="313.05 169.11 313.38 171.04 310.71 171.22 311.51 169.79 313.05 169.11" />
  <path class="GUNDAN_CAT_JEWELRY_CAT_JEWELLERY_9_cls-4" d="M314.46,169.47a6.2,6.2,0,0,1-.73,1.25l-.27-1.6Z" />
  <polygon class="GUNDAN_CAT_JEWELRY_CAT_JEWELLERY_9_cls-5" points="312.69 167.1 313.3 165.63 314.89 167.1 313.3 168.57 312.69 167.1" />
  <path class="GUNDAN_CAT_JEWELRY_CAT_JEWELLERY_9_cls-4" d="M314.92,167.53a5.71,5.71,0,0,1-.36,1.67l-1-.37Z" />
  <path class="GUNDAN_CAT_JEWELRY_CAT_JEWELLERY_9_cls-3" d="M313.22,171.32a5.84,5.84,0,0,1-1.53,1.13l-.94-1Z" />
  <path class="GUNDAN_CAT_JEWELRY_CAT_JEWELLERY_9_cls-4" d="M311.36,172.61a6,6,0,0,1-2,.47l1.06-1.43Z" />
  <polygon class="GUNDAN_CAT_JEWELRY_CAT_JEWELLERY_9_cls-5" points="311.51 164.41 310.71 162.98 313.38 163.16 313.05 165.09 311.51 164.41" />
  <path class="GUNDAN_CAT_JEWELRY_CAT_JEWELLERY_9_cls-4" d="M314.56,165a5.71,5.71,0,0,1,.36,1.67l-1.4-1.3Z" />
  <path class="GUNDAN_CAT_JEWELRY_CAT_JEWELLERY_9_cls-4" d="M309.37,161.12a6,6,0,0,1,2,.47l-.93,1Z" />
  <path class="GUNDAN_CAT_JEWELRY_CAT_JEWELLERY_9_cls-4" d="M311.69,161.75a5.84,5.84,0,0,1,1.53,1.13l-2.47-.17Z" />
  <path class="GUNDAN_CAT_JEWELRY_CAT_JEWELLERY_9_cls-4" d="M304.86,162.88a5.88,5.88,0,0,1,1.54-1.13l.93,1Z" />
  <path class="GUNDAN_CAT_JEWELRY_CAT_JEWELLERY_9_cls-3" d="M306.73,161.59a5.92,5.92,0,0,1,2-.47l-1.06,1.43Z" />
  <polygon class="GUNDAN_CAT_JEWELRY_CAT_JEWELLERY_9_cls-5" points="305.03 165.09 304.7 163.16 307.38 162.98 306.57 164.41 305.03 165.09" />
  <polygon class="GUNDAN_CAT_JEWELRY_CAT_JEWELLERY_9_cls-5" points="307.95 162.76 309.04 161.28 310.13 162.76 309.04 163.13 307.95 162.76" />
  <path class="GUNDAN_CAT_JEWELRY_CAT_JEWELLERY_9_cls-3" d="M313.73,163.48a6.2,6.2,0,0,1,.73,1.25l-1,.35Z" />
  <path class="GUNDAN_CAT_JEWELRY_CAT_JEWELLERY_9_cls-6" d="M309.31,140.55a3.23,3.23,0,0,1,2,3.47" />
  <path class="GUNDAN_CAT_JEWELRY_CAT_JEWELLERY_9_cls-1" d="M315.45,141.68s2,1,1.9,5.63" />
</svg>