<svg id="Jewellry" xmlns="http://www.w3.org/2000/svg" viewBox="0 0 432 432">
  <defs>
    <style>.GUNDAN_CAT_JEWELRY_CAT_JEWELLERY_12_cls-1{fill:#85432d;stroke:#000;stroke-miterlimit:10;stroke-width:1.81px;}.GUNDAN_CAT_JEWELRY_CAT_JEWELLERY_12_cls-2{fill:#b9876e;}.GUNDAN_CAT_JEWELRY_CAT_JEWELLERY_12_cls-3{fill:#645433;}.GUNDAN_CAT_JEWELRY_CAT_JEWELLERY_12_cls-4{fill:#766e4a;}.GUNDAN_CAT_JEWELRY_CAT_JEWELLERY_12_cls-5{fill:#dfca6d;}</style>
  </defs>
  <path class="GUNDAN_CAT_JEWELRY_CAT_JEWELLERY_12_cls-1" d="M178.12,335.06a9.25,9.25,0,0,0-2.34,2.72c-15.53-12.09-25.41-26.45-28.87-42.16-.2-.88-.8-5.91,3.93-6.19,0,0-.07.38-.36,1.35a13,13,0,0,0,.05,7.25C155.18,313.54,166,325.76,178.12,335.06Z" />
  <path class="GUNDAN_CAT_JEWELRY_CAT_JEWELLERY_12_cls-1" d="M285.06,298.84c-4.7,10.36-10.27,25.27-15.19,35.72a8.53,8.53,0,0,0-2.08-2.56c3.72-9.89,9.84-24.69,14.31-34.53.37-.83-.09-4.43-.31-6.16A5.54,5.54,0,0,1,285.06,298.84Z" />
  <path class="GUNDAN_CAT_JEWELRY_CAT_JEWELLERY_12_cls-2" d="M183.76,345.83a3.72,3.72,0,0,1-.15-7.44h.16a3.72,3.72,0,0,1,.15,7.44Z" />
  <path d="M183.77,338.78a3.34,3.34,0,0,1,.13,6.67h-.14a3.34,3.34,0,0,1-.13-6.67h.14m0-.77h-.17a4.11,4.11,0,0,0,.16,8.21h.17a4.11,4.11,0,0,0-.16-8.21Z" />
  <path class="GUNDAN_CAT_JEWELRY_CAT_JEWELLERY_12_cls-2" d="M183.48,353.22c-.25,0-.51,0-.76,0a.38.38,0,0,1-.34-.42l.06-.62a10.4,10.4,0,0,1-1.26-.25l-.18.59a.37.37,0,0,1-.37.27l-.12,0a6,6,0,0,1-.71-.25.37.37,0,0,1-.22-.49l.22-.58a10.26,10.26,0,0,1-1.14-.59l-.34.52a.43.43,0,0,1-.24.17H178a.39.39,0,0,1-.21-.06c-.21-.13-.42-.28-.62-.43a.39.39,0,0,1-.08-.54l.37-.49c-.33-.28-.65-.57-1-.88l-.45.4a.37.37,0,0,1-.26.1h0a.37.37,0,0,1-.27-.13c-.16-.19-.33-.38-.48-.58a.38.38,0,0,1,.07-.54l.49-.38a10.52,10.52,0,0,1-.68-1.1l-.55.27a.47.47,0,0,1-.17,0l-.12,0a.35.35,0,0,1-.22-.19c-.11-.23-.22-.46-.31-.69a.39.39,0,0,1,.21-.5l.57-.24a10,10,0,0,1-.35-1.25l-.61.11h-.07a.38.38,0,0,1-.22-.07.42.42,0,0,1-.16-.25c0-.25-.08-.5-.1-.75a.38.38,0,0,1,.34-.42l.6-.07c0-.11,0-.21,0-.32,0-.31,0-.63,0-1l-.61-.06a.38.38,0,0,1-.34-.42q0-.37.09-.75a.38.38,0,0,1,.16-.25.34.34,0,0,1,.22-.07h.06l.6.1a11.77,11.77,0,0,1,.34-1.26l-.57-.22a.39.39,0,0,1-.22-.5c.09-.23.19-.47.3-.69a.34.34,0,0,1,.21-.2.35.35,0,0,1,.14,0,.32.32,0,0,1,.16,0l.55.26a11.35,11.35,0,0,1,.66-1.12L175,336a.39.39,0,0,1-.08-.54c.15-.2.31-.4.47-.59a.39.39,0,0,1,.27-.13h0a.38.38,0,0,1,.25.09l.47.4a8.67,8.67,0,0,1,.93-.89l-.38-.49a.38.38,0,0,1,.07-.54,6.85,6.85,0,0,1,.61-.45.39.39,0,0,1,.21-.06h.08a.34.34,0,0,1,.24.16l.35.52a9.45,9.45,0,0,1,1.13-.61l-.24-.58a.39.39,0,0,1,.22-.5c.23-.1.47-.18.71-.26l.12,0a.33.33,0,0,1,.17,0,.39.39,0,0,1,.19.23l.19.58a12.79,12.79,0,0,1,1.26-.27l-.07-.62a.38.38,0,0,1,.34-.42l.75-.06h0a.44.44,0,0,1,.26.1.4.4,0,0,1,.12.27l0,.61h.06a9.87,9.87,0,0,1,1.22.07l.1-.6a.37.37,0,0,1,.15-.25.39.39,0,0,1,.23-.07h.06c.25,0,.49.09.74.15a.39.39,0,0,1,.28.46l-.14.61a9.74,9.74,0,0,1,1.22.42l.26-.56a.4.4,0,0,1,.22-.2.27.27,0,0,1,.13,0,.41.41,0,0,1,.16,0,7.06,7.06,0,0,1,.67.35.37.37,0,0,1,.15.52l-.3.55a8.73,8.73,0,0,1,1.06.74l.4-.48a.43.43,0,0,1,.27-.13h0a.38.38,0,0,1,.25.09c.19.16.37.34.55.51a.4.4,0,0,1,0,.55l-.44.44a11.17,11.17,0,0,1,.82,1l.51-.34a.36.36,0,0,1,.22-.07h.07a.42.42,0,0,1,.25.16c.14.21.27.43.4.65a.39.39,0,0,1-.14.52l-.54.31a9.78,9.78,0,0,1,.53,1.19l.58-.2.12,0a.34.34,0,0,1,.17.05.4.4,0,0,1,.2.22c.07.24.14.49.2.73a.39.39,0,0,1-.27.47l-.59.15a11,11,0,0,1,.19,1.28l.62,0a.37.37,0,0,1,.26.1.4.4,0,0,1,.12.27c0,.28,0,.53,0,.78a.4.4,0,0,1-.12.27.39.39,0,0,1-.27.11l-.62,0a10.82,10.82,0,0,1-.16,1.29l.59.14a.38.38,0,0,1,.29.46c-.06.25-.12.5-.2.74a.38.38,0,0,1-.19.22.35.35,0,0,1-.18.05l-.11,0-.59-.18a8.36,8.36,0,0,1-.51,1.19l.55.31a.39.39,0,0,1,.15.52c-.12.22-.25.44-.39.65a.37.37,0,0,1-.24.17h-.08a.31.31,0,0,1-.21-.07l-.52-.33a8.53,8.53,0,0,1-.81,1l.45.44a.38.38,0,0,1,0,.54c-.18.18-.36.36-.55.52a.35.35,0,0,1-.25.1h0a.35.35,0,0,1-.26-.13l-.41-.46a10.3,10.3,0,0,1-1,.76l.31.54a.38.38,0,0,1-.15.52l-.66.35a.33.33,0,0,1-.17,0,.3.3,0,0,1-.13,0,.41.41,0,0,1-.22-.19l-.26-.56a9.31,9.31,0,0,1-1.21.45l.15.59a.39.39,0,0,1-.28.47c-.24.06-.49.12-.74.16h-.07a.47.47,0,0,1-.22-.07.37.37,0,0,1-.15-.25l-.11-.61a9.48,9.48,0,0,1-1,.1h-.29l0,.62a.38.38,0,0,1-.38.37Zm0-18.78a7.68,7.68,0,0,0,.31,15.35h.32a7.68,7.68,0,0,0-.31-15.35Z" />
  <path d="M183.31,331.4l0,1h.42a9.92,9.92,0,0,1,1.55.13l.16-1,.71.14-.23,1a9.2,9.2,0,0,1,1.87.65l.42-.91c.22.1.44.22.65.33l-.48.88a9.59,9.59,0,0,1,1.62,1.13l.65-.76.53.5-.7.71a10.25,10.25,0,0,1,1.26,1.53l.83-.55c.13.2.26.41.38.62l-.85.49a10.25,10.25,0,0,1,.8,1.82l.94-.31c.07.23.14.47.2.7l-1,.25a9.75,9.75,0,0,1,.29,2l1-.05v0c0,.24,0,.49,0,.73l-1,0a9.93,9.93,0,0,1-.25,2l1,.23a6.06,6.06,0,0,1-.19.7L193,345a9.88,9.88,0,0,1-.78,1.83l.87.48c-.12.22-.24.43-.37.63l-.84-.54a9.74,9.74,0,0,1-1.23,1.55l.7.7a6.26,6.26,0,0,1-.52.51l-.66-.75a9.6,9.6,0,0,1-1.6,1.16l.49.87-.64.34-.43-.9a10,10,0,0,1-1.85.69l.23,1c-.23.06-.47.11-.71.15l-.17-1a8.21,8.21,0,0,1-1.31.15h-.66l0,1c-.24,0-.49,0-.73,0l.09-1a9.57,9.57,0,0,1-1.93-.39l-.29,1-.69-.24.35-.93a9.69,9.69,0,0,1-1.75-.91l-.54.84q-.3-.19-.6-.42l.59-.8a9.19,9.19,0,0,1-1.45-1.34l-.74.66a6.36,6.36,0,0,1-.46-.57l.78-.61a9.62,9.62,0,0,1-1-1.68l-.89.43c-.1-.22-.2-.44-.29-.67l.92-.37a9.52,9.52,0,0,1-.55-1.91l-1,.17c0-.23-.07-.48-.1-.72l1-.11c0-.22,0-.45-.06-.67a9.59,9.59,0,0,1,0-1.32l-1-.09c0-.24.05-.49.09-.73l1,.16a10.26,10.26,0,0,1,.52-1.92l-.92-.36c.09-.23.18-.45.29-.67l.89.42a9.74,9.74,0,0,1,1-1.71l-.79-.6.46-.57.75.65a10.3,10.3,0,0,1,1.43-1.37l-.61-.79c.19-.15.39-.29.59-.43l.56.84a9.7,9.7,0,0,1,1.74-.94l-.38-.92c.23-.1.46-.18.69-.26l.3.95a10.19,10.19,0,0,1,1.93-.42l-.11-1c.24,0,.48,0,.73-.05m.45,18.78h.34a8.07,8.07,0,0,0-.33-16.12h-.33a8.06,8.06,0,0,0,.32,16.12m-.45-19.55h0c-.26,0-.52,0-.77.06a.75.75,0,0,0-.68.85l0,.25-.57.13-.08-.24a.76.76,0,0,0-.39-.45.69.69,0,0,0-.34-.09,1,1,0,0,0-.25,0l-.73.27a.77.77,0,0,0-.42,1l.1.25c-.18.09-.36.18-.53.28l-.14-.21a.77.77,0,0,0-.49-.33l-.15,0a.83.83,0,0,0-.43.13c-.21.15-.43.3-.63.46a.78.78,0,0,0-.14,1.08l.16.21c-.15.13-.29.27-.43.41l-.19-.16a.78.78,0,0,0-.5-.19h-.06a.8.8,0,0,0-.53.27c-.17.2-.33.41-.49.61a.78.78,0,0,0,.16,1.08l.2.15-.31.52-.22-.1a.71.71,0,0,0-.32-.07.84.84,0,0,0-.27,0,.77.77,0,0,0-.43.4c-.11.24-.22.48-.31.73a.77.77,0,0,0,.44,1l.23.09c-.06.2-.11.39-.16.59l-.23,0h-.13a.74.74,0,0,0-.45.15.78.78,0,0,0-.31.5c0,.26-.07.52-.1.78a.77.77,0,0,0,.7.83l.24,0c0,.21,0,.41,0,.61l-.24,0a.78.78,0,0,0-.68.85q0,.39.12.78a.74.74,0,0,0,.75.63h.14l.25,0c0,.19.1.39.16.58l-.23.1a.77.77,0,0,0-.43,1c.1.24.21.48.32.72a.8.8,0,0,0,.44.39.73.73,0,0,0,.25,0,.81.81,0,0,0,.34-.08l.22-.11c.1.18.21.35.32.52l-.21.16a.76.76,0,0,0-.13,1.07c.15.21.32.41.49.61a.84.84,0,0,0,.53.26h.05a.74.74,0,0,0,.51-.2l.19-.16.44.41-.16.2a.78.78,0,0,0,.16,1.08l.64.45a.76.76,0,0,0,.42.12l.16,0a.74.74,0,0,0,.49-.34l.13-.2.53.27-.09.24a.77.77,0,0,0,.44,1c.24.1.49.18.74.26a.85.85,0,0,0,.23,0,.8.8,0,0,0,.36-.09.77.77,0,0,0,.37-.46l.08-.24.58.11,0,.26a.77.77,0,0,0,.69.84c.26,0,.52,0,.78.05h0a.82.82,0,0,0,.53-.21.81.81,0,0,0,.24-.54v-.25c.19,0,.39,0,.59-.05l.05.25a.74.74,0,0,0,.31.49.79.79,0,0,0,.44.14h.14c.26-.05.51-.1.76-.17a.77.77,0,0,0,.56-.93l-.06-.24.56-.21.11.22a.73.73,0,0,0,.44.4,1,1,0,0,0,.25,0,.81.81,0,0,0,.34-.08c.23-.11.46-.24.69-.37a.77.77,0,0,0,.28-1l-.13-.23c.17-.11.33-.23.49-.35l.16.19a.81.81,0,0,0,.53.26h0a.74.74,0,0,0,.51-.2c.19-.17.38-.35.56-.54a.76.76,0,0,0,0-1.08l-.19-.19c.13-.15.26-.31.38-.47l.2.14a.82.82,0,0,0,.43.12h.16a.8.8,0,0,0,.48-.34c.14-.22.28-.45.4-.67a.77.77,0,0,0-.3-1.05l-.22-.12.24-.57.23.08.23,0a.78.78,0,0,0,.74-.54,7.1,7.1,0,0,0,.2-.76.76.76,0,0,0-.57-.92l-.24-.06c0-.2.05-.4.07-.61h.27a.74.74,0,0,0,.53-.21.75.75,0,0,0,.24-.54q0-.39,0-.78a.8.8,0,0,0-.78-.77h-.27c0-.2-.05-.4-.08-.6l.23-.06a.77.77,0,0,0,.56-.93c-.06-.26-.14-.51-.22-.76a.77.77,0,0,0-.38-.45.85.85,0,0,0-.35-.08.67.67,0,0,0-.24,0l-.24.08a5.55,5.55,0,0,0-.24-.56l.22-.13a.77.77,0,0,0,.28-1.05c-.13-.22-.27-.45-.41-.66a.77.77,0,0,0-.49-.33h-.15a.75.75,0,0,0-.43.13l-.21.14c-.12-.16-.25-.32-.38-.47l.18-.18a.77.77,0,0,0,0-1.09c-.18-.18-.38-.36-.57-.53a.78.78,0,0,0-.5-.19h-.06a.75.75,0,0,0-.53.26l-.16.2c-.16-.12-.33-.24-.49-.34l.12-.24a.76.76,0,0,0-.3-1l-.69-.36a1,1,0,0,0-.33-.07.86.86,0,0,0-.27.05.77.77,0,0,0-.43.4l-.11.23-.56-.2.06-.25a.76.76,0,0,0-.57-.92c-.26-.06-.51-.12-.77-.16h-.12a.74.74,0,0,0-.45.15.75.75,0,0,0-.31.5l0,.24-.59,0,0-.25a.73.73,0,0,0-.24-.53.79.79,0,0,0-.52-.2Zm.45,18.78a7.29,7.29,0,0,1-.29-14.58h.3a7.29,7.29,0,0,1,.29,14.58Z" />
  <path class="GUNDAN_CAT_JEWELRY_CAT_JEWELLERY_12_cls-2" d="M262.15,343.41A3.72,3.72,0,0,1,262,336h.15a3.73,3.73,0,0,1,.15,7.45Z" />
  <path d="M262.15,336.35a3.34,3.34,0,0,1,.14,6.67h-.14a3.34,3.34,0,0,1-.14-6.67h.14m0-.77H262a4.11,4.11,0,0,0,.17,8.21h.17a4.11,4.11,0,0,0-.17-8.21Z" />
  <path class="GUNDAN_CAT_JEWELRY_CAT_JEWELLERY_12_cls-2" d="M261.86,350.8l-.75-.05a.39.39,0,0,1-.35-.42l.06-.62a8.78,8.78,0,0,1-1.26-.25l-.18.59a.39.39,0,0,1-.19.23.41.41,0,0,1-.18.05l-.11,0-.72-.25a.4.4,0,0,1-.22-.5l.22-.58a8.8,8.8,0,0,1-1.14-.59l-.33.52a.39.39,0,0,1-.25.17h-.08a.39.39,0,0,1-.21-.06l-.62-.44a.37.37,0,0,1-.07-.53l.36-.5a9.79,9.79,0,0,1-.94-.88l-.46.41a.4.4,0,0,1-.26.1h0a.46.46,0,0,1-.27-.13l-.48-.59a.4.4,0,0,1,.07-.54l.49-.38a9.57,9.57,0,0,1-.68-1.1l-.55.27a.33.33,0,0,1-.17,0l-.12,0a.4.4,0,0,1-.22-.2c-.11-.22-.21-.46-.31-.69a.39.39,0,0,1,.21-.5l.58-.23a9.35,9.35,0,0,1-.36-1.25l-.6.11h-.07a.39.39,0,0,1-.38-.32c-.05-.24-.08-.49-.11-.74a.39.39,0,0,1,.34-.43l.6-.07c0-.1,0-.21,0-.31a8.38,8.38,0,0,1,0-1l-.61-.05a.4.4,0,0,1-.35-.42c0-.25.06-.51.1-.76a.37.37,0,0,1,.15-.25.39.39,0,0,1,.23-.07h.06l.59.09a11,11,0,0,1,.34-1.25l-.56-.22a.4.4,0,0,1-.23-.5c.09-.24.19-.47.3-.7a.36.36,0,0,1,.22-.2.27.27,0,0,1,.13,0,.41.41,0,0,1,.16,0l.56.26a9.67,9.67,0,0,1,.66-1.12l-.5-.37a.38.38,0,0,1-.07-.53c.15-.2.3-.4.47-.59a.38.38,0,0,1,.26-.14h0a.38.38,0,0,1,.25.09l.47.41a9.88,9.88,0,0,1,.93-.9l-.38-.49a.38.38,0,0,1,.07-.54c.2-.15.4-.3.61-.44a.33.33,0,0,1,.21-.07h.08a.42.42,0,0,1,.25.16l.34.52a9.45,9.45,0,0,1,1.13-.61l-.23-.58a.38.38,0,0,1,.21-.5l.71-.26.12,0a.34.34,0,0,1,.17,0,.35.35,0,0,1,.19.22l.19.59a9.12,9.12,0,0,1,1.26-.27l-.07-.62a.4.4,0,0,1,.34-.43l.75-.06h0a.38.38,0,0,1,.38.37l0,.61h0a10,10,0,0,1,1.23.08l.1-.6a.4.4,0,0,1,.15-.26.48.48,0,0,1,.23-.07h.06l.74.14a.39.39,0,0,1,.29.47l-.14.6a12.34,12.34,0,0,1,1.21.42l.26-.56a.43.43,0,0,1,.22-.2l.13,0a.35.35,0,0,1,.17,0c.22.1.45.22.67.34a.39.39,0,0,1,.15.52l-.3.55a8.62,8.62,0,0,1,1.05.74l.41-.47a.38.38,0,0,1,.26-.14h0a.39.39,0,0,1,.25.1,6.64,6.64,0,0,1,.55.51.38.38,0,0,1,0,.54l-.44.45a9.88,9.88,0,0,1,.83,1l.51-.34a.4.4,0,0,1,.21-.07h.08a.35.35,0,0,1,.24.17c.14.21.28.42.4.64a.38.38,0,0,1-.14.52L271,335a11.56,11.56,0,0,1,.52,1.19l.58-.19a.25.25,0,0,1,.12,0,.39.39,0,0,1,.18,0,.41.41,0,0,1,.19.22c.08.24.15.49.21.73a.38.38,0,0,1-.28.47l-.59.15a11.14,11.14,0,0,1,.19,1.29l.62,0a.4.4,0,0,1,.26.1.36.36,0,0,1,.12.27,6.85,6.85,0,0,1,0,.78.34.34,0,0,1-.12.27.36.36,0,0,1-.26.11l-.63,0a9.09,9.09,0,0,1-.16,1.29l.6.15a.38.38,0,0,1,.28.46c-.05.24-.12.49-.19.73a.37.37,0,0,1-.37.27.25.25,0,0,1-.12,0l-.58-.18a12.7,12.7,0,0,1-.51,1.2l.54.3a.39.39,0,0,1,.15.52c-.12.22-.25.44-.39.65a.35.35,0,0,1-.24.17h-.08a.37.37,0,0,1-.21-.06l-.52-.34a8.65,8.65,0,0,1-.8,1l.44.44a.39.39,0,0,1,0,.55c-.17.18-.36.35-.54.52a.42.42,0,0,1-.26.1h0a.46.46,0,0,1-.27-.13l-.4-.46a10,10,0,0,1-1.05.75l.31.54a.39.39,0,0,1-.14.52c-.22.13-.44.25-.67.36a.47.47,0,0,1-.17,0,.27.27,0,0,1-.12,0,.35.35,0,0,1-.22-.19l-.27-.55a11,11,0,0,1-1.21.44l.15.6a.38.38,0,0,1-.28.46,6.36,6.36,0,0,1-.73.16H264a.34.34,0,0,1-.22-.07.38.38,0,0,1-.16-.25l-.11-.61a7.38,7.38,0,0,1-1,.1h-.29l0,.61a.38.38,0,0,1-.38.38Zm0-18.79a7.69,7.69,0,0,0,.31,15.36h.32a7.68,7.68,0,0,0-.31-15.35Z" />
  <path d="M261.69,329l0,1h.42a9.83,9.83,0,0,1,1.55.12l.16-1c.24,0,.48.08.71.14l-.22,1a9.75,9.75,0,0,1,1.86.65l.42-.9c.22.1.44.21.65.33l-.48.88a9.59,9.59,0,0,1,1.62,1.13l.65-.76c.18.16.36.32.53.49l-.69.72a9.33,9.33,0,0,1,1.26,1.53l.82-.56c.14.2.27.41.39.62l-.86.5a9.77,9.77,0,0,1,.8,1.81l.94-.31a5.75,5.75,0,0,1,.2.71l-.95.24a9.75,9.75,0,0,1,.29,2l1,0v0c0,.25,0,.49,0,.73l-1,0a9.84,9.84,0,0,1-.26,2l1,.23c-.06.24-.12.47-.19.71l-.95-.3a9.88,9.88,0,0,1-.78,1.83l.87.49c-.11.21-.24.42-.37.63l-.83-.55a9.8,9.8,0,0,1-1.24,1.55l.71.71-.53.5-.65-.74a9.62,9.62,0,0,1-1.61,1.15l.49.87a6.48,6.48,0,0,1-.64.34l-.43-.89a9.74,9.74,0,0,1-1.85.68l.24,1-.71.16-.18-1a9.38,9.38,0,0,1-1.31.16h-.66l0,1c-.24,0-.49,0-.72,0l.09-1a8.9,8.9,0,0,1-1.94-.39l-.29,1q-.35-.1-.69-.24l.36-.93a9.46,9.46,0,0,1-1.76-.91l-.54.84-.59-.41.59-.8a9.82,9.82,0,0,1-1.46-1.35l-.74.66c-.16-.18-.31-.37-.46-.56l.79-.61a9.53,9.53,0,0,1-1-1.69l-.89.43c-.1-.21-.2-.44-.29-.66l.92-.38a10.22,10.22,0,0,1-.55-1.91l-1,.18c-.05-.24-.08-.48-.11-.73l1-.11c0-.22-.05-.44-.06-.67a9.66,9.66,0,0,1,0-1.32l-1-.09c0-.24.06-.49.1-.72l1,.15a10.47,10.47,0,0,1,.52-1.92l-.92-.35c.09-.23.19-.46.29-.68l.9.42a9.49,9.49,0,0,1,1-1.71l-.79-.59a6.26,6.26,0,0,1,.45-.57l.75.65a9.25,9.25,0,0,1,1.43-1.37l-.6-.8c.19-.14.38-.29.58-.42l.56.83a9.07,9.07,0,0,1,1.74-.93l-.37-.93c.22-.09.45-.18.68-.25l.31.95a8.76,8.76,0,0,1,1.92-.42l-.1-1c.23,0,.48,0,.72-.06m.45,18.78h.34a8.07,8.07,0,0,0-.33-16.12h-.33a8.07,8.07,0,0,0,.32,16.12m-.45-19.55h0l-.78.06a.77.77,0,0,0-.68.85l0,.26a5.41,5.41,0,0,0-.58.12l-.08-.24a.77.77,0,0,0-.38-.45.85.85,0,0,0-.35-.08.67.67,0,0,0-.24,0c-.25.08-.5.17-.74.27a.77.77,0,0,0-.42,1l.1.24-.52.28-.14-.21a.79.79,0,0,0-.5-.33h-.15a.75.75,0,0,0-.43.13c-.21.14-.42.3-.63.46a.77.77,0,0,0-.14,1.07l.16.21c-.14.13-.29.27-.43.42l-.19-.17a.77.77,0,0,0-.5-.18H254a.76.76,0,0,0-.53.27,7.16,7.16,0,0,0-.48.61.76.76,0,0,0,.15,1.07l.21.16c-.11.17-.21.34-.31.52l-.22-.11a1,1,0,0,0-.33-.07.8.8,0,0,0-.7.45c-.11.23-.21.48-.31.72a.77.77,0,0,0,.45,1l.23.09c-.06.2-.12.4-.16.59l-.24,0h-.12a.77.77,0,0,0-.45.14.8.8,0,0,0-.32.5q-.06.39-.09.78a.77.77,0,0,0,.69.84l.24,0v.61l-.23,0a.77.77,0,0,0-.68.85c0,.26.06.52.11.77a.78.78,0,0,0,.76.64h.13l.25-.05c.05.2.11.39.17.59L252,343a.77.77,0,0,0-.42,1c.09.24.2.48.31.72a.77.77,0,0,0,.44.39.73.73,0,0,0,.25,0,.77.77,0,0,0,.34-.07l.22-.11c.1.17.21.34.32.51l-.2.16a.77.77,0,0,0-.14,1.08c.16.2.32.41.5.6a.75.75,0,0,0,.53.26h0a.81.81,0,0,0,.52-.19l.18-.17.44.41-.15.21a.76.76,0,0,0,.15,1.07c.21.16.42.31.64.45a.79.79,0,0,0,.42.12h.16a.82.82,0,0,0,.49-.34l.13-.21.54.27-.1.24a.78.78,0,0,0,.44,1l.74.26a.91.91,0,0,0,.23,0,.78.78,0,0,0,.74-.54l.07-.25c.19.05.39.08.58.12l0,.26a.76.76,0,0,0,.69.83c.26,0,.52,0,.78.05h0a.74.74,0,0,0,.53-.21.77.77,0,0,0,.24-.54v-.25c.19,0,.38,0,.59,0l0,.24a.8.8,0,0,0,.32.5.77.77,0,0,0,.44.14l.13,0c.26,0,.52-.1.77-.16a.77.77,0,0,0,.56-.93l-.07-.25a5.37,5.37,0,0,0,.56-.21l.11.23a.8.8,0,0,0,.44.39.73.73,0,0,0,.25,0,.68.68,0,0,0,.34-.08c.23-.11.47-.23.69-.36a.77.77,0,0,0,.28-1.05l-.12-.23.48-.34.16.18a.79.79,0,0,0,.53.26h.05a.78.78,0,0,0,.51-.19l.57-.54a.78.78,0,0,0,0-1.09l-.19-.18c.13-.16.26-.31.38-.47l.21.13a.77.77,0,0,0,.42.13l.16,0a.74.74,0,0,0,.49-.34c.14-.22.27-.44.4-.67a.77.77,0,0,0-.3-1l-.23-.13c.09-.19.17-.37.24-.56l.24.07a.59.59,0,0,0,.23,0,.8.8,0,0,0,.36-.09.77.77,0,0,0,.37-.46q.12-.37.21-.75a.78.78,0,0,0-.57-.93l-.25-.06c0-.2.06-.4.08-.6h.27a.77.77,0,0,0,.53-.21.82.82,0,0,0,.24-.54c0-.25,0-.52,0-.78a.83.83,0,0,0-.25-.55.78.78,0,0,0-.53-.21h-.26l-.09-.61.23-.06a.76.76,0,0,0,.56-.93,6.45,6.45,0,0,0-.22-.75.74.74,0,0,0-.38-.45.73.73,0,0,0-.35-.09,1,1,0,0,0-.24,0l-.23.08c-.08-.19-.16-.37-.25-.56l.22-.12a.78.78,0,0,0,.29-1.05c-.13-.23-.27-.45-.42-.67a.77.77,0,0,0-.49-.33H271a.75.75,0,0,0-.43.13l-.21.14c-.12-.16-.25-.31-.38-.46l.19-.19a.78.78,0,0,0,0-1.09c-.19-.18-.38-.36-.58-.53a.77.77,0,0,0-.5-.18H269a.76.76,0,0,0-.53.27l-.16.19-.49-.34.13-.23a.79.79,0,0,0-.31-1.05l-.69-.35a.75.75,0,0,0-.33-.07.75.75,0,0,0-.26,0,.82.82,0,0,0-.44.4l-.1.23-.57-.19.06-.26a.77.77,0,0,0-.57-.92c-.25-.06-.51-.11-.77-.15h-.12a.8.8,0,0,0-.45.14.75.75,0,0,0-.31.5l0,.25-.59,0v-.24a.78.78,0,0,0-.25-.54.77.77,0,0,0-.52-.2Zm.45,18.78a7.29,7.29,0,0,1-.29-14.58h.3a7.29,7.29,0,0,1,.3,14.58Z" />
  <path class="GUNDAN_CAT_JEWELRY_CAT_JEWELLERY_12_cls-3" d="M196.3,373.09l-.6,0a.37.37,0,0,1-.32-.21l-.07.08a.45.45,0,0,1-.25.09h0c-.25,0-.5-.06-.75-.1a.39.39,0,0,1-.3-.24.24.24,0,0,1-.08.06.38.38,0,0,1-.21.07h-.08l-.74-.19a.38.38,0,0,1-.27-.28l-.09.06a.47.47,0,0,1-.17,0l-.12,0-.72-.28a.36.36,0,0,1-.23-.31l-.09.05a.32.32,0,0,1-.13,0,.47.47,0,0,1-.17,0c-.23-.11-.46-.23-.68-.36a.38.38,0,0,1-.2-.33l-.09,0h-.09a.41.41,0,0,1-.21,0l-.63-.43a.39.39,0,0,1-.16-.36.17.17,0,0,1-.1,0h0a.41.41,0,0,1-.24-.08c-.2-.16-.4-.33-.58-.5a.38.38,0,0,1-.12-.37h-.1a.41.41,0,0,1-.28-.11c-.18-.18-.35-.37-.52-.56a.38.38,0,0,1-.07-.38h-.11a.41.41,0,0,1-.26-.15c-.15-.2-.31-.4-.45-.61a.39.39,0,0,1,0-.39h-.1a.38.38,0,0,1-.24-.17c-.14-.22-.27-.44-.39-.67a.37.37,0,0,1,0-.39l-.11,0a.34.34,0,0,1-.21-.2c-.11-.23-.22-.46-.31-.7a.39.39,0,0,1,.06-.39.19.19,0,0,1-.1,0,.47.47,0,0,1-.2-.22c-.08-.24-.15-.49-.22-.74a.4.4,0,0,1,.1-.38l-.09,0a.37.37,0,0,1-.17-.24c0-.25-.1-.51-.14-.76a.38.38,0,0,1,.15-.36l-.09-.06a.38.38,0,0,1-.14-.26c0-.24,0-.49-.06-.74a.46.46,0,0,1,.11-.29.22.22,0,0,1,.09-.07.37.37,0,0,1-.2-.35c0-.25,0-.51,0-.77a.38.38,0,0,1,.13-.26l.09-.06a.37.37,0,0,1-.15-.36c0-.25.07-.51.12-.76a.34.34,0,0,1,.16-.24l.09-.05a.39.39,0,0,1-.11-.38c.06-.24.13-.49.21-.74a.38.38,0,0,1,.19-.22l.1,0a.37.37,0,0,1-.07-.38c.09-.24.18-.49.29-.72a.37.37,0,0,1,.21-.2l.11,0a.39.39,0,0,1,0-.39c.12-.22.24-.45.37-.67a.41.41,0,0,1,.23-.18h.11a.39.39,0,0,1,0-.39c.14-.21.29-.43.44-.63a.37.37,0,0,1,.26-.15h.1a.38.38,0,0,1,.06-.38l.51-.58a.4.4,0,0,1,.27-.12h.11a.37.37,0,0,1,.1-.37l.57-.51a.38.38,0,0,1,.25-.09h0l.1,0a.39.39,0,0,1,.14-.36l.63-.44a.39.39,0,0,1,.21-.06h.08a.19.19,0,0,1,.1,0,.35.35,0,0,1,.19-.34c.21-.13.44-.25.66-.37a.39.39,0,0,1,.18,0l.12,0,.09,0a.39.39,0,0,1,.23-.31l.71-.29.13,0a.41.41,0,0,1,.16,0l.09.06a.4.4,0,0,1,.26-.29l.74-.2h.09a.46.46,0,0,1,.2,0l.08.07a.38.38,0,0,1,.29-.26l.76-.11h0a.41.41,0,0,1,.24.08l.07.08a.4.4,0,0,1,.32-.22c.25,0,.51,0,.76,0h0a.37.37,0,0,1,.33.19.38.38,0,0,1,.32-.18h0l.76.05a.38.38,0,0,1,.26.14.41.41,0,0,1,.05.09l.08-.07a.34.34,0,0,1,.22-.07h.07l.75.14a.38.38,0,0,1,.28.27.27.27,0,0,1,.08-.07.45.45,0,0,1,.19-.05l.11,0c.24.07.49.14.73.23a.39.39,0,0,1,.25.29l.09-.05.15,0a.32.32,0,0,1,.14,0c.24.09.47.2.7.31a.39.39,0,0,1,.22.32l.09,0,.11,0a.41.41,0,0,1,.19.05l.66.39a.41.41,0,0,1,.18.35.16.16,0,0,1,.09,0h.07a.41.41,0,0,1,.22.07l.61.46a.4.4,0,0,1,.14.37l.1,0h0a.35.35,0,0,1,.26.1,6.88,6.88,0,0,1,.55.53.35.35,0,0,1,.1.37h.1a.43.43,0,0,1,.27.13c.17.19.33.39.49.59a.39.39,0,0,1,0,.39h.11a.38.38,0,0,1,.25.16l.42.64a.41.41,0,0,1,0,.39h.1a.39.39,0,0,1,.23.19c.12.22.24.45.34.68a.37.37,0,0,1,0,.39l.1,0a.39.39,0,0,1,.21.21c.09.24.18.48.26.72a.37.37,0,0,1-.08.38l.1,0a.36.36,0,0,1,.18.24c.07.24.13.49.18.74a.37.37,0,0,1-.12.37l.1.05a.43.43,0,0,1,.15.26c0,.25.07.5.1.76a.39.39,0,0,1-.17.35l.09.06a.36.36,0,0,1,.12.27c0,.28,0,.54,0,.8a.36.36,0,0,1-.12.27l-.08.06a.4.4,0,0,1,.17.35c0,.26,0,.51-.08.77a.35.35,0,0,1-.14.25.33.33,0,0,1-.1.06.37.37,0,0,1,.14.36c-.05.25-.11.51-.17.75a.38.38,0,0,1-.17.24l-.1,0a.4.4,0,0,1,.09.38c-.08.25-.16.49-.25.73a.4.4,0,0,1-.2.22l-.1,0a.39.39,0,0,1,0,.39q-.15.35-.33.69a.41.41,0,0,1-.22.19l-.11,0a.37.37,0,0,1,0,.39c-.12.22-.26.44-.4.65a.39.39,0,0,1-.25.17h-.1a.39.39,0,0,1-.05.39c-.15.2-.31.41-.47.6a.4.4,0,0,1-.27.14h-.1a.39.39,0,0,1-.09.38,6.88,6.88,0,0,1-.54.54.36.36,0,0,1-.26.11h0l-.1,0a.41.41,0,0,1-.13.37l-.6.47a.4.4,0,0,1-.23.08h-.06l-.1,0a.39.39,0,0,1-.17.35c-.21.14-.43.27-.65.4a.32.32,0,0,1-.19.05h-.1l-.09,0a.39.39,0,0,1-.21.33l-.69.32a.29.29,0,0,1-.16,0l-.14,0-.09-.05a.39.39,0,0,1-.24.3l-.73.25h-.11a.39.39,0,0,1-.18,0l-.08-.06a.4.4,0,0,1-.28.27l-.75.16h-.07a.44.44,0,0,1-.22-.07.23.23,0,0,1-.07-.07l-.05.09a.4.4,0,0,1-.26.14c-.25,0-.51.06-.76.08h0a.35.35,0,0,1-.26-.1s-.05,0-.06-.07a.27.27,0,0,1-.07.08.42.42,0,0,1-.27.12Zm-9.12-8.61a9.94,9.94,0,0,0,9.11,6h.42a10,10,0,0,0,6.1-2.44l-2.56-2.59a6.44,6.44,0,0,1-3.69,1.38h-.27a6.38,6.38,0,0,1-5.7-3.56Zm17.14,1.88a10.1,10.1,0,0,0-4.75-15.52l-.94,3.53a6.49,6.49,0,0,1,4.05,5.72,6.4,6.4,0,0,1-1.13,3.91Zm-12.27-3.65a4.82,4.82,0,0,0,4.24,2.54h.2a4.76,4.76,0,0,0,2.67-.95l-1.77-1.79a2.33,2.33,0,0,1-1,.27h-.1a2.4,2.4,0,0,1-1.88-.93Zm8.33.29a5,5,0,0,0,.76-2.85,4.93,4.93,0,0,0-2.91-4.28l-.65,2.44a2.4,2.4,0,0,1,1.12,1.95,2.28,2.28,0,0,1-.23,1.12Zm-4.5-12.73a10.07,10.07,0,0,0-9.58,10.5,9.34,9.34,0,0,0,.19,1.58l3.5-.94a7.29,7.29,0,0,1-.08-.79,6.43,6.43,0,0,1,6.12-6.7h.23l.5,0,.64-3.61a10.84,10.84,0,0,0-1.13-.06Zm.21,5.2a4.87,4.87,0,0,0-4.64,5.09,3.42,3.42,0,0,0,0,.45l2.4-.65A2.39,2.39,0,0,1,196,358l.44-2.48h-.39Z" />
  <path d="M196.16,348v1.11h.6l0-1.11c.25,0,.5,0,.74.06l-.11,1.1.6.07.16-1.09.73.14-.23,1.08.58.14.29-1.06c.24.06.48.14.71.22l-.36,1.05.56.21.42-1,.68.31-.48,1,.53.29.53-1c.22.12.43.25.64.38l-.58.93.49.34.64-.9.59.44-.69.87.46.39.73-.83c.19.17.37.34.54.52l-.78.78.42.43.81-.73a6.57,6.57,0,0,1,.48.57l-.87.69a5.46,5.46,0,0,1,.36.48l.9-.64c.14.2.28.41.41.62l-.93.58c.1.18.2.35.29.53l1-.54c.12.22.23.44.34.67l-1,.47c.08.18.15.37.23.55l1-.42c.09.23.18.47.26.7l-1,.36c.06.19.12.38.17.58l1.06-.3q.1.36.18.72l-1.08.24c0,.19.09.39.12.59l1.08-.17c0,.24.07.49.09.74l-1.09.1c0,.2,0,.4.05.61l1.09-.05v0c0,.24,0,.49,0,.74l-1.1,0c0,.2,0,.41,0,.61l1.09.07c0,.25,0,.5-.08.75l-1.09-.15q0,.3-.09.6l1.08.2c-.05.25-.1.49-.16.73l-1.06-.27c-.05.2-.11.39-.17.58L208,364c-.07.24-.15.47-.24.71l-1-.39c-.07.19-.16.37-.24.55l1,.45c-.1.23-.21.46-.32.68l-1-.51c-.09.18-.19.35-.29.53l1,.56c-.12.21-.26.42-.39.63l-.92-.62c-.11.17-.22.34-.34.5l.88.66c-.15.2-.31.39-.47.58l-.84-.72-.39.46.79.76-.52.52-.75-.81-.45.4.71.85-.58.47-.66-.89-.49.34.61.93-.63.39-.55-1-.53.29.5,1-.67.31-.44-1-.55.24.38,1c-.23.09-.46.17-.7.24l-.32-1.06-.57.17.26,1.06c-.24.06-.49.12-.73.16l-.2-1.09-.59.1.14,1.09c-.24,0-.49.06-.73.07l-.08-1.1-.28,0h-.32l0,1.11h-.74l.05-1.1-.6,0-.11,1.1c-.24,0-.49-.06-.73-.1l.17-1.08a5.43,5.43,0,0,1-.58-.13l-.24,1.09-.72-.18.3-1.06-.57-.19-.36,1.05-.69-.26.42-1c-.19-.08-.37-.15-.55-.24l-.47,1c-.23-.11-.45-.22-.66-.34l.53-1c-.17-.1-.35-.19-.52-.3l-.58.94-.62-.41.64-.91-.47-.36-.69.87-.57-.49.74-.82c-.15-.13-.29-.28-.43-.42l-.78.79c-.18-.18-.35-.36-.51-.55l.82-.73c-.13-.15-.25-.31-.38-.47l-.86.7c-.16-.2-.3-.4-.44-.6l.9-.64a5.39,5.39,0,0,1-.33-.5l-.94.59-.37-.65,1-.53-.28-.53-1,.47c-.1-.22-.2-.45-.29-.68l1-.42c-.07-.18-.15-.37-.21-.56l-1,.35c-.08-.23-.15-.47-.22-.71l1.06-.29c0-.19-.1-.39-.14-.59l-1.07.24c-.06-.25-.1-.49-.14-.74l1.08-.16c0-.2,0-.4-.06-.61l-1.1.11c0-.23,0-.47-.05-.71v0l1.09,0c0-.21,0-.41,0-.61h-1.1q0-.37,0-.75l1.09.08c0-.2,0-.4.07-.6l-1.09-.14c0-.24.07-.49.12-.74l1.08.21c0-.2.07-.39.12-.59l-1.06-.26a5.9,5.9,0,0,1,.2-.72l1,.33c.06-.19.11-.39.18-.58l-1-.38c.09-.23.18-.47.28-.69l1,.45c.08-.19.16-.37.25-.55l-1-.5.36-.66.95.57c.1-.18.21-.35.32-.51l-.92-.62c.14-.21.28-.41.43-.61l.87.67c.12-.17.26-.32.38-.47l-.84-.72c.16-.19.32-.37.49-.55l.8.76.43-.42-.76-.81c.18-.17.36-.34.55-.5l.71.86c.15-.13.3-.26.46-.38l-.65-.89c.19-.15.4-.29.6-.43l.61.93.5-.32-.55-1,.65-.35.5,1c.17-.09.35-.18.54-.26l-.45-1,.69-.28.38,1,.57-.19-.33-1.06.72-.2.26,1.07c.19-.05.39-.08.58-.12l-.2-1.09.73-.11.14,1.09.6-.05-.08-1.11.74,0m-10,14.82,4.24-1.14a5.5,5.5,0,0,1-.14-1.08,6,6,0,0,1,5.75-6.3h.21a7.36,7.36,0,0,1,.81.06l.78-4.36a10.28,10.28,0,0,0-1.57-.12h-.42a10.47,10.47,0,0,0-9.66,12.94m18.18,4.08a10.48,10.48,0,0,0-5.07-16.57l-1.14,4.27a6.06,6.06,0,0,1,2.86,9.45l3.35,2.85m-13.2-5.42,3.12-.84,0-.21a2,2,0,0,1,1.94-2.12h.15l.58-3.21a5.17,5.17,0,0,0-.68,0h-.18a5.27,5.27,0,0,0-5,5.49,5.51,5.51,0,0,0,.12.92m9.27,2.08a5.29,5.29,0,0,0-2.48-8.21l-.84,3.15a2,2,0,0,1,1.19,1.76,2.13,2.13,0,0,1-.33,1.2l2.46,2.1m-4.16,2.07h.22a5.18,5.18,0,0,0,3.22-1.29L197.45,362a2.08,2.08,0,0,1-1.07.37h-.09a2,2,0,0,1-1.73-1l-3.05,1.11a5.26,5.26,0,0,0,4.78,3.14m0,5.19h.43a10.25,10.25,0,0,0,6.65-2.81l-3.1-3.13a5.9,5.9,0,0,1-3.73,1.52h-.25a6,6,0,0,1-5.5-3.65l-4.13,1.5a10.4,10.4,0,0,0,9.63,6.57m-.13-23.59h0l-.79,0a.8.8,0,0,0-.34.11.75.75,0,0,0-.26,0h-.09l-.78.13a.81.81,0,0,0-.33.14l-.17,0-.19,0-.75.22a.69.69,0,0,0-.31.18h-.09a.86.86,0,0,0-.27.05c-.24.09-.49.19-.73.3a.76.76,0,0,0-.28.22.72.72,0,0,0-.35.08l-.69.38a.78.78,0,0,0-.26.25.66.66,0,0,0-.33.12c-.22.15-.44.3-.65.46a.71.71,0,0,0-.22.27.88.88,0,0,0-.32.16l-.59.53a.92.92,0,0,1-.5.5c-.18.19-.35.39-.52.59a.88.88,0,0,0-.16.32.77.77,0,0,0-.28.23c-.15.21-.31.43-.45.65a.7.7,0,0,0-.12.33.77.77,0,0,0-.25.26c-.14.23-.26.46-.38.7a.73.73,0,0,0-.09.35.78.78,0,0,0-.21.29c-.11.24-.21.48-.3.73a.75.75,0,0,0,0,.36.87.87,0,0,0-.18.31c-.08.25-.15.51-.21.76a.73.73,0,0,0,0,.36.71.71,0,0,0-.15.33c0,.26-.09.52-.13.79a.82.82,0,0,0,0,.35.85.85,0,0,0-.11.35c0,.26,0,.52,0,.79a.85.85,0,0,0,.08.35.71.71,0,0,0-.07.35c0,.28,0,.54.05.79a1,1,0,0,0,.12.34.72.72,0,0,0,0,.36c0,.26.09.52.14.78a.74.74,0,0,0,.16.32.73.73,0,0,0,0,.36c.07.26.15.51.23.76a.77.77,0,0,0,.19.31.87.87,0,0,0,.05.35c.1.25.21.49.32.73a.85.85,0,0,0,.22.28.69.69,0,0,0,.09.34c.13.24.26.47.4.69a.75.75,0,0,0,.25.25.89.89,0,0,0,.13.34c.15.21.31.43.47.63a.83.83,0,0,0,.28.22.76.76,0,0,0,.17.32c.17.2.36.39.54.58a.8.8,0,0,0,.3.19.75.75,0,0,0,.21.29c.19.18.39.35.6.52a.86.86,0,0,0,.32.15.68.68,0,0,0,.24.27l.65.44a.7.7,0,0,0,.34.12.76.76,0,0,0,.26.24c.23.13.47.25.7.36a.81.81,0,0,0,.34.08h0a.86.86,0,0,0,.29.21l.74.28a.73.73,0,0,0,.25,0h.11a.75.75,0,0,0,.31.18c.25.07.51.14.77.19l.16,0,.19,0a1,1,0,0,0,.33.13c.26.05.53.08.79.11h.07a.87.87,0,0,0,.28-.05.79.79,0,0,0,.34.1h.79a.75.75,0,0,1,.65,0h0l.78-.07a.88.88,0,0,0,.33-.13.83.83,0,0,0,.22,0h.14c.26-.05.52-.1.77-.17a.88.88,0,0,0,.32-.16h.13a.91.91,0,0,0,.23,0l.74-.26a.69.69,0,0,0,.3-.2h0a.81.81,0,0,0,.31-.06l.71-.34a.81.81,0,0,0,.28-.23.76.76,0,0,0,.34-.11l.67-.41a.78.78,0,0,0,.24-.27.81.81,0,0,0,.33-.14l.61-.49a.77.77,0,0,0,.22-.29.7.7,0,0,0,.31-.18,7.27,7.27,0,0,0,.55-.56.65.65,0,0,0,.18-.31.75.75,0,0,0,.29-.21c.17-.2.34-.41.49-.62a.69.69,0,0,0,.14-.33.78.78,0,0,0,.27-.24l.42-.68a.79.79,0,0,0,.1-.34.67.67,0,0,0,.23-.27c.12-.24.24-.48.34-.72a.63.63,0,0,0,.07-.35.75.75,0,0,0,.2-.3c.09-.25.18-.5.26-.75a.89.89,0,0,0,0-.36.76.76,0,0,0,.17-.32c.06-.26.12-.52.17-.78a.88.88,0,0,0,0-.36.79.79,0,0,0,.13-.33c0-.26.06-.53.08-.79a.85.85,0,0,0-.06-.36.78.78,0,0,0,.09-.34c0-.27,0-.53,0-.8a.79.79,0,0,0-.11-.36.76.76,0,0,0,.06-.37c0-.26-.06-.52-.1-.78A.85.85,0,0,0,209,358a.72.72,0,0,0,0-.36c-.05-.25-.12-.51-.19-.77a.79.79,0,0,0-.17-.31.74.74,0,0,0,0-.36c-.09-.25-.18-.5-.28-.74a.69.69,0,0,0-.2-.3.77.77,0,0,0-.08-.35c-.11-.24-.23-.47-.35-.7a.78.78,0,0,0-.24-.27.8.8,0,0,0-.11-.34c-.14-.23-.29-.45-.44-.66a.78.78,0,0,0-.27-.24.71.71,0,0,0-.15-.33c-.16-.2-.33-.41-.5-.6a.81.81,0,0,0-.3-.21.7.7,0,0,0-.18-.31l-.57-.54a.76.76,0,0,0-.32-.17.68.68,0,0,0-.22-.29l-.62-.47a.85.85,0,0,0-.34-.14.67.67,0,0,0-.25-.25l-.68-.41a.78.78,0,0,0-.34-.09.91.91,0,0,0-.28-.23l-.72-.32a.72.72,0,0,0-.29-.06h-.07a.69.69,0,0,0-.3-.2l-.75-.23a.76.76,0,0,0-.21,0h-.15a.73.73,0,0,0-.32-.15l-.78-.15h-.12a.59.59,0,0,0-.23,0,.66.66,0,0,0-.34-.12q-.39,0-.78-.06h0a.78.78,0,0,0-.31.07.81.81,0,0,0-.34-.08Zm-9.37,14.63a10.43,10.43,0,0,1-.11-1.11,9.69,9.69,0,0,1,9.22-10.1h.38l.67,0-.51,2.86H196a6.8,6.8,0,0,0-6.48,7.1c0,.16,0,.32,0,.49l-2.77.74Zm12.3-7.72.75-2.8a9.7,9.7,0,0,1,4.41,14.44l-2.19-1.86a6.84,6.84,0,0,0-3-9.78Zm-7.26,6.37a4.5,4.5,0,0,1,4.19-4.67l-.31,1.77a2.79,2.79,0,0,0-2.19,2.45l-1.69.45Zm6.19-2.37.46-1.72a4.57,4.57,0,0,1,2.28,3.74,4.5,4.5,0,0,1-.49,2.23l-1.33-1.13a3,3,0,0,0,.15-1,2.81,2.81,0,0,0-1.07-2.09Zm-5.4,4.76,1.67-.6a2.8,2.8,0,0,0,2,.86h.12a2.66,2.66,0,0,0,.89-.18l1.26,1.26a4.35,4.35,0,0,1-2.08.62h-.19a4.46,4.46,0,0,1-3.67-2Zm-4.92,1.79,2.71-1a6.75,6.75,0,0,0,5.88,3.46h.28a6.7,6.7,0,0,0,3.64-1.25l2,2.05a9.47,9.47,0,0,1-5.55,2.08h-.4a9.57,9.57,0,0,1-8.59-5.36Z" />
  <path class="GUNDAN_CAT_JEWELRY_CAT_JEWELLERY_12_cls-2" d="M215.81,367.23a.32.32,0,0,1-.21-.08.41.41,0,0,1-.19.05h0l-.48-.07a.41.41,0,0,1-.21-.1.32.32,0,0,1-.14,0h-.08l-.48-.12a.35.35,0,0,1-.19-.12h-.1l-.13,0-.46-.17a.5.5,0,0,1-.17-.15h-.06a.51.51,0,0,1-.17,0l-.43-.23a.41.41,0,0,1-.16-.16h0a.37.37,0,0,1-.21-.06l-.41-.28a.42.42,0,0,1-.14-.18.46.46,0,0,1-.21-.08l-.37-.32a.47.47,0,0,1-.12-.2.42.42,0,0,1-.2-.1l-.33-.36a.41.41,0,0,1-.1-.21.46.46,0,0,1-.18-.13l-.3-.4a.39.39,0,0,1-.06-.21.65.65,0,0,1-.18-.15l-.24-.43a.44.44,0,0,1-.05-.22.41.41,0,0,1-.15-.17c-.07-.15-.13-.3-.19-.45a.31.31,0,0,1,0-.23.45.45,0,0,1-.14-.19c-.05-.15-.1-.31-.14-.47a.36.36,0,0,1,0-.23.31.31,0,0,1-.11-.2,4,4,0,0,1-.09-.48.45.45,0,0,1,0-.23.4.4,0,0,1-.09-.21l0-.48a.49.49,0,0,1,.06-.23.41.41,0,0,1-.07-.22c0-.17,0-.33,0-.49a.35.35,0,0,1,.08-.22.33.33,0,0,1,0-.22c0-.16.05-.33.08-.49a.35.35,0,0,1,.1-.2.44.44,0,0,1,0-.23c0-.16.08-.32.13-.48a.34.34,0,0,1,.13-.18.44.44,0,0,1,0-.23c.06-.16.12-.31.19-.46a.35.35,0,0,1,.15-.17.37.37,0,0,1,0-.23l.23-.43a.44.44,0,0,1,.17-.16.38.38,0,0,1,.07-.22c.09-.13.18-.27.28-.4a.38.38,0,0,1,.18-.13.4.4,0,0,1,.09-.21l.33-.37a.36.36,0,0,1,.2-.11.33.33,0,0,1,.11-.2l.36-.33a.43.43,0,0,1,.21-.09.4.4,0,0,1,.14-.18,4.1,4.1,0,0,1,.4-.29.37.37,0,0,1,.21-.06h0a.44.44,0,0,1,.16-.17c.14-.08.28-.16.43-.23a.34.34,0,0,1,.17-.05h.05a.35.35,0,0,1,.17-.15l.46-.19.13,0h.09a.43.43,0,0,1,.19-.13l.48-.13h.09l.13,0a.35.35,0,0,1,.2-.1l.48-.08h.05a.39.39,0,0,1,.18,0,.32.32,0,0,1,.21-.08l.49,0h0a.43.43,0,0,1,.22.06.39.39,0,0,1,.2-.06h0l.49,0a.4.4,0,0,1,.21.09.33.33,0,0,1,.17,0h.06a4,4,0,0,1,.48.09.43.43,0,0,1,.2.11l.12,0h.1l.47.15a.45.45,0,0,1,.19.14h.08a.32.32,0,0,1,.14,0l.45.2a.36.36,0,0,1,.17.15h0a.41.41,0,0,1,.18.05c.14.08.29.16.42.25a.35.35,0,0,1,.15.17.41.41,0,0,1,.22.07l.39.3a.41.41,0,0,1,.13.19.37.37,0,0,1,.2.09c.13.11.24.23.36.34a.35.35,0,0,1,.1.2.37.37,0,0,1,.2.12c.11.12.21.25.31.38a.34.34,0,0,1,.08.21.45.45,0,0,1,.19.14l.26.41a.31.31,0,0,1,.06.22.41.41,0,0,1,.16.16l.23.44a.47.47,0,0,1,0,.23.37.37,0,0,1,.14.18c.06.15.12.3.17.46a.37.37,0,0,1,0,.23.35.35,0,0,1,.12.19l.12.48a.44.44,0,0,1,0,.23.38.38,0,0,1,.1.2l.06.49a.37.37,0,0,1-.05.23.3.3,0,0,1,.08.21c0,.18,0,.35,0,.51a.42.42,0,0,1-.08.22.4.4,0,0,1,.06.22c0,.17,0,.33,0,.49a.41.41,0,0,1-.1.21.45.45,0,0,1,0,.23c0,.16-.07.32-.11.48a.41.41,0,0,1-.12.2.28.28,0,0,1,0,.22,3.71,3.71,0,0,1-.16.47.28.28,0,0,1-.14.18.36.36,0,0,1,0,.23l-.21.45a.49.49,0,0,1-.16.16.42.42,0,0,1-.05.22c-.09.14-.18.29-.27.42a.35.35,0,0,1-.17.15.42.42,0,0,1-.08.21l-.31.39a.42.42,0,0,0-.29.32c-.11.12-.22.24-.34.35a.41.41,0,0,1-.21.1.39.39,0,0,1-.12.19c-.12.11-.25.21-.38.31a.45.45,0,0,1-.22.08.33.33,0,0,1-.14.17l-.42.26a.32.32,0,0,1-.19.05h0a.31.31,0,0,1-.16.16,4.39,4.39,0,0,1-.44.21.45.45,0,0,1-.16,0h-.07a.37.37,0,0,1-.18.14l-.46.16h-.12a.22.22,0,0,1-.11,0,.37.37,0,0,1-.2.12l-.48.11h-.07a.32.32,0,0,0-.36.06l-.48.05h0a.46.46,0,0,1-.2-.05.38.38,0,0,1-.21.07h-.49Zm-5.19-5.49a6.15,6.15,0,0,0,5.57,3.55h.26a6.09,6.09,0,0,0,3.65-1.41l-1.44-1.44a4,4,0,0,1-2.3.83h-.17a4.17,4.17,0,0,1-3.67-2.22Zm10.61.9a6.24,6.24,0,0,0-2.87-9.41l-.53,2a4.21,4.21,0,0,1,2.53,3.68,4.11,4.11,0,0,1-.67,2.45Zm-7.51-2a2.93,2.93,0,0,0,2.47,1.39h.12a2.76,2.76,0,0,0,1.46-.48l-.92-.93a1.75,1.75,0,0,1-.59.14h0a1.71,1.71,0,0,1-1.3-.56Zm5-.12a2.86,2.86,0,0,0,.39-1.56,3,3,0,0,0-1.61-2.51l-.34,1.28a1.64,1.64,0,0,1,.69,1.28,1.69,1.69,0,0,1-.11.67Zm-2.78-7.67a6.22,6.22,0,0,0-5.92,6.49,5.71,5.71,0,0,0,.09.82l1.94-.52a2.66,2.66,0,0,1,0-.39,4.2,4.2,0,0,1,4-4.38h.34l.36-2-.54,0Zm.13,3.28a3,3,0,0,0-2.8,3.07.41.41,0,0,0,0,.11l1.25-.34a1.67,1.67,0,0,1,1.38-1.54l.23-1.31v-.38Z" />
  <path d="M216.1,351.26v.7h.38l0-.7.46,0-.07.7.38,0,.11-.68.46.08-.15.69.36.09.19-.68.45.14-.23.67.36.13.26-.65.43.19-.3.63.33.18.34-.62.4.24-.37.59.31.22.4-.57c.13.09.26.18.38.28l-.44.55.29.24.47-.52.34.32-.5.5.26.27.52-.46.3.36-.55.43a3.55,3.55,0,0,1,.23.31l.57-.41c.09.13.18.26.26.4l-.59.36.18.34.62-.34c.07.13.14.28.21.42l-.63.29c.06.12.1.24.15.35l.64-.26c.06.15.12.29.17.44l-.66.23c0,.12.08.24.11.36l.67-.19c0,.15.08.31.11.46l-.68.15c0,.12.05.24.07.37l.69-.11.06.47-.7.07c0,.12,0,.25,0,.38l.68,0v.49l-.69,0c0,.13,0,.26,0,.38l.69.05c0,.16,0,.32,0,.47l-.69-.09-.06.38.68.13c0,.15-.06.31-.1.46l-.67-.17c0,.12-.07.24-.11.36l.67.21c-.05.15-.1.3-.16.45l-.64-.25-.15.35.64.29-.21.42-.61-.32c-.06.11-.12.22-.19.33l.6.36c-.08.13-.16.27-.25.4L222,363c-.07.1-.13.21-.21.31l.55.42-.29.37-.53-.46a3.47,3.47,0,0,1-.25.29l.5.48-.33.33-.47-.51-.29.25.45.54c-.12.1-.24.2-.37.29l-.41-.56-.31.22.38.58c-.12.09-.26.17-.39.25l-.35-.61-.33.18.31.63-.42.2-.28-.64-.35.14.25.66-.45.15-.2-.67-.36.1.16.68-.46.1-.12-.69-.37.06.08.69-.46,0-.05-.7h-.38v.7h-.46l0-.7-.38,0-.07.69a3.62,3.62,0,0,1-.46-.06l.11-.68-.37-.08-.15.69-.45-.12.19-.67-.37-.12-.22.67-.44-.17.27-.65-.35-.15-.3.63-.42-.22.34-.61-.33-.19-.36.59a3.77,3.77,0,0,1-.39-.26l.4-.57-.3-.23-.44.55c-.12-.1-.24-.2-.35-.31l.46-.52-.27-.26-.49.49c-.11-.11-.22-.22-.32-.34l.52-.46a3.15,3.15,0,0,1-.24-.3l-.55.44c-.1-.12-.19-.25-.28-.38l.57-.4-.21-.32-.59.37-.23-.4.61-.34-.18-.33-.62.29c-.07-.14-.13-.28-.19-.43l.65-.26c0-.12-.1-.23-.14-.35l-.65.22c-.05-.15-.1-.3-.14-.45l.67-.19-.09-.37-.68.15c0-.15-.06-.31-.08-.46l.68-.11c0-.12,0-.25,0-.38l-.69.07c0-.15,0-.3,0-.45v0l.69,0V359h-.69c0-.15,0-.31,0-.47l.69.06c0-.13,0-.26,0-.38l-.69-.09c0-.16,0-.31.07-.47l.69.13c0-.12.05-.25.08-.37l-.68-.17c0-.15.08-.3.13-.45l.66.21.12-.37-.65-.24.18-.44.64.29c.05-.12.1-.23.16-.35l-.62-.31c.07-.14.15-.28.23-.42l.59.36.21-.32-.58-.39a4.56,4.56,0,0,1,.27-.39l.55.42c.07-.1.16-.19.24-.29l-.53-.45.31-.36.5.49.27-.27-.48-.51.35-.31.45.53.29-.24-.41-.55c.12-.1.25-.19.38-.28l.38.59.32-.2-.35-.61.41-.22.32.62.34-.16-.28-.64.43-.18.24.66.36-.12-.21-.67.46-.13.16.68.37-.07-.13-.69.46-.08.09.7.38,0-.05-.7.46,0m-6.28,9.36,2.68-.72a3.78,3.78,0,0,1,3.53-4.66h.11a3.19,3.19,0,0,1,.54,0l.49-2.76a6.5,6.5,0,0,0-1-.08h-.26a6.6,6.6,0,0,0-6.29,6.88,6.92,6.92,0,0,0,.19,1.29m11.48,2.58a6.69,6.69,0,0,0,1.45-4.42,6.62,6.62,0,0,0-4.66-6l-.72,2.71a3.79,3.79,0,0,1,1.8,5.95l2.13,1.81M213,359.77l2-.53a.69.69,0,0,0,0-.13,1.29,1.29,0,0,1,1.23-1.34h.09l.36-2a3.42,3.42,0,0,0-.45,0h-.09a3.31,3.31,0,0,0-3.16,3.47,2.8,2.8,0,0,0,.08.57m5.83,1.31a3.27,3.27,0,0,0,.69-2.16,3.31,3.31,0,0,0-2.24-3l-.53,2a1.28,1.28,0,0,1,.75,1.11,1.32,1.32,0,0,1-.21.76l1.54,1.32m-2.61,1.31h.14a3.25,3.25,0,0,0,2-.83l-1.43-1.45a1.33,1.33,0,0,1-.68.24h-.05a1.29,1.29,0,0,1-1.1-.64l-1.92.7a3.31,3.31,0,0,0,3,2m0,3.28h.27a6.53,6.53,0,0,0,4.2-1.78l-2-2a3.77,3.77,0,0,1-2.34,1h-.16a3.8,3.8,0,0,1-3.47-2.31l-2.61.95a6.57,6.57,0,0,0,6.08,4.15m-.09-15.18h0l-.51,0a.79.79,0,0,0-.22.06l-.14,0h-.09l-.51.08a.58.58,0,0,0-.22.08h0a.58.58,0,0,0-.19,0l-.49.13a1,1,0,0,0-.21.1,1,1,0,0,0-.23,0l-.47.2a.67.67,0,0,0-.2.12.81.81,0,0,0-.22.07l-.45.25a.65.65,0,0,0-.18.15l-.21.09-.42.3a1.29,1.29,0,0,0-.16.17.62.62,0,0,0-.19.12c-.14.11-.26.22-.39.34a1.1,1.1,0,0,0-.14.18.65.65,0,0,0-.18.15c-.12.12-.23.25-.34.38a.47.47,0,0,0-.12.2.65.65,0,0,0-.17.16l-.3.42a1,1,0,0,0-.09.21,1.19,1.19,0,0,0-.15.18c-.09.15-.17.3-.25.46a.81.81,0,0,0-.07.22.76.76,0,0,0-.12.19c-.07.16-.14.32-.2.48a.66.66,0,0,0,0,.23.84.84,0,0,0-.11.21c0,.16-.09.33-.13.5a.91.91,0,0,0,0,.23.81.81,0,0,0-.07.22c0,.17-.06.34-.08.51a.88.88,0,0,0,0,.23.86.86,0,0,0,0,.23c0,.17,0,.34,0,.51a.85.85,0,0,0,0,.23,1,1,0,0,0,0,.23c0,.19,0,.35,0,.52a.79.79,0,0,0,.06.22.59.59,0,0,0,0,.23,4.17,4.17,0,0,0,.09.51.83.83,0,0,0,.08.22.91.91,0,0,0,0,.23,4.74,4.74,0,0,0,.15.5.75.75,0,0,0,.1.2,1,1,0,0,0,.06.23c.06.16.13.32.2.47a.91.91,0,0,0,.13.19.83.83,0,0,0,.08.22c.08.15.17.3.26.45a.61.61,0,0,0,.15.17.51.51,0,0,0,.1.21l.31.42a.57.57,0,0,0,.16.15.86.86,0,0,0,.13.2c.11.13.23.25.35.38a.75.75,0,0,0,.18.13.65.65,0,0,0,.15.18l.39.34a.56.56,0,0,0,.2.11.65.65,0,0,0,.17.16l.42.29a.88.88,0,0,0,.22.1.86.86,0,0,0,.18.14l.46.23a.57.57,0,0,0,.22.07.67.67,0,0,0,.2.12,3.94,3.94,0,0,0,.48.18.87.87,0,0,0,.22,0,.85.85,0,0,0,.22.09l.5.13.16,0h.07a.52.52,0,0,0,.22.07l.51.07h.22a.62.62,0,0,0,.23,0h.51a.85.85,0,0,0,.23,0l.18,0h0a4.4,4.4,0,0,0,.51-.05.79.79,0,0,0,.22-.06h.09l.14,0,.51-.1a.78.78,0,0,0,.21-.09h0a.62.62,0,0,0,.23,0l.49-.16a.82.82,0,0,0,.2-.12.59.59,0,0,0,.22-.05l.46-.23a.53.53,0,0,0,.19-.13.85.85,0,0,0,.22-.09,5.08,5.08,0,0,0,.43-.27.5.5,0,0,0,.17-.15,1.39,1.39,0,0,0,.21-.11l.4-.32a.65.65,0,0,0,.15-.18.8.8,0,0,0,.19-.13l.36-.36a1.15,1.15,0,0,0,.14-.19,1.29,1.29,0,0,0,.17-.16c.11-.13.22-.26.32-.4a.78.78,0,0,0,.11-.2.93.93,0,0,0,.16-.18l.27-.43a.65.65,0,0,0,.08-.22.67.67,0,0,0,.14-.19c.08-.15.15-.31.22-.47a.79.79,0,0,0,.06-.22.56.56,0,0,0,.11-.2c.06-.16.12-.33.17-.49a.66.66,0,0,0,0-.23.85.85,0,0,0,.09-.22c0-.16.07-.33.11-.5a.88.88,0,0,0,0-.23.62.62,0,0,0,.07-.23c0-.17,0-.34,0-.51a.9.9,0,0,1,0-.46v-.52a.86.86,0,0,0-.05-.23.65.65,0,0,0,0-.24c0-.18,0-.35-.06-.52a1,1,0,0,1-.09-.45,4.05,4.05,0,0,0-.12-.5.67.67,0,0,0-.09-.21.85.85,0,0,0,0-.23l-.18-.49a.82.82,0,0,0-.12-.2.9.9,0,0,0-.06-.22l-.24-.46a.49.49,0,0,0-.14-.18.85.85,0,0,0-.09-.22c-.09-.14-.18-.29-.28-.43A1.29,1.29,0,0,0,223,354a1,1,0,0,0-.11-.2l-.33-.39-.18-.15a.85.85,0,0,0-.14-.19c-.12-.12-.24-.24-.37-.35a.59.59,0,0,0-.19-.13.85.85,0,0,0-.16-.17c-.13-.11-.27-.21-.41-.31a.78.78,0,0,0-.2-.11l-.18-.15-.44-.26a.83.83,0,0,0-.22-.08.64.64,0,0,0-.19-.13c-.15-.07-.31-.15-.47-.21a.59.59,0,0,0-.23-.05.56.56,0,0,0-.2-.11l-.49-.16a.76.76,0,0,0-.21,0h0l-.22-.08a4,4,0,0,0-.5-.09h-.23a.59.59,0,0,0-.23,0l-.51,0h0l-.2,0a.78.78,0,0,0-.22,0Zm-5.67,9.17,0-.36a5.83,5.83,0,0,1,5.55-6.08h.32l-.23,1.26h0a4.59,4.59,0,0,0-4.37,4.78s0,.05,0,.08l-1.21.33Zm7.86-4.67.33-1.23a5.85,5.85,0,0,1,3.36,5.06,5.92,5.92,0,0,1-.83,3.24l-1-.82a4.55,4.55,0,0,0-1.89-6.25Zm-4.62,3.8a2.54,2.54,0,0,1,2-2.24l-.1.55a2.08,2.08,0,0,0-1.39,1.55l-.51.14Zm3.93-1.22.14-.53a2.55,2.55,0,0,1,1,1.91,2.67,2.67,0,0,1-.14.93l-.41-.34a2.21,2.21,0,0,0,.06-.57,2.08,2.08,0,0,0-.64-1.4Zm-3.26,3.23.52-.19a2,2,0,0,0,1.33.51h.09a1.91,1.91,0,0,0,.47-.07l.39.39a2.45,2.45,0,0,1-.85.19h-.1a2.49,2.49,0,0,1-1.85-.82ZM211.17,362l1.18-.44a4.53,4.53,0,0,0,3.84,2.13h.19a4.5,4.5,0,0,0,2.24-.72l.9.9a5.75,5.75,0,0,1-3.09,1.07h-.24a5.75,5.75,0,0,1-5-2.94Z" />
  <path class="GUNDAN_CAT_JEWELRY_CAT_JEWELLERY_12_cls-3" d="M248.84,368.57h-.54a.42.42,0,0,1-.31-.18l-.05,0a.36.36,0,0,1-.24.09h0l-.71-.1a.38.38,0,0,1-.29-.21l-.06,0a.36.36,0,0,1-.2.06h-.09l-.7-.17a.4.4,0,0,1-.26-.25l-.06,0a.47.47,0,0,1-.17,0l-.12,0c-.23-.07-.46-.16-.68-.25a.41.41,0,0,1-.23-.28l-.06,0a.3.3,0,0,1-.13,0,.35.35,0,0,1-.17,0c-.21-.1-.43-.21-.64-.33a.39.39,0,0,1-.2-.3l-.06,0h-.09a.36.36,0,0,1-.2-.06l-.61-.4a.38.38,0,0,1-.15-.32h-.12a.43.43,0,0,1-.24-.08l-.55-.47a.37.37,0,0,1-.12-.34h-.07a.36.36,0,0,1-.27-.12c-.17-.17-.34-.35-.5-.53a.41.41,0,0,1-.08-.35h-.07a.38.38,0,0,1-.26-.14c-.15-.19-.29-.39-.43-.58a.36.36,0,0,1,0-.36H239a.43.43,0,0,1-.24-.17c-.13-.21-.25-.42-.37-.63a.38.38,0,0,1,0-.36l-.07,0a.43.43,0,0,1-.22-.2c-.1-.22-.2-.44-.28-.66a.41.41,0,0,1,0-.36l-.06,0a.39.39,0,0,1-.2-.22c-.07-.23-.15-.46-.21-.7a.39.39,0,0,1,.08-.35l-.06,0a.39.39,0,0,1-.17-.25c-.05-.23-.1-.47-.13-.71a.38.38,0,0,1,.12-.34.38.38,0,0,1-.2-.3c0-.23,0-.47,0-.7a.38.38,0,0,1,.1-.29l.06-.06a.4.4,0,0,1-.17-.32c0-.25,0-.49,0-.73a.41.41,0,0,1,.13-.26l.06-.05A.36.36,0,0,1,237,355c0-.24.06-.49.11-.72a.42.42,0,0,1,.16-.25l.06,0a.38.38,0,0,1-.08-.35c0-.24.12-.48.19-.71a.38.38,0,0,1,.19-.22l.07,0a.38.38,0,0,1-.05-.36c.08-.23.18-.45.27-.67a.38.38,0,0,1,.22-.21l.07,0a.38.38,0,0,1,0-.36l.35-.64a.4.4,0,0,1,.24-.18h.06a.42.42,0,0,1,0-.36c.13-.2.27-.4.42-.59a.37.37,0,0,1,.25-.15h.07a.38.38,0,0,1,.08-.35c.15-.19.31-.37.48-.55a.45.45,0,0,1,.27-.12h.07a.4.4,0,0,1,.11-.34l.54-.49a.45.45,0,0,1,.25-.09h0l.07,0a.41.41,0,0,1,.15-.33l.59-.42a.43.43,0,0,1,.22-.06h.07l.07,0a.42.42,0,0,1,.19-.31l.63-.35a.58.58,0,0,1,.18,0l.12,0,.06,0a.37.37,0,0,1,.22-.28c.22-.1.45-.19.67-.27a.35.35,0,0,1,.14,0,.32.32,0,0,1,.16,0l.06,0a.37.37,0,0,1,.25-.25l.7-.2h.09a.36.36,0,0,1,.2.06l.05,0a.39.39,0,0,1,.29-.22c.23-.05.47-.08.71-.11h0a.38.38,0,0,1,.23.08l0,0a.43.43,0,0,1,.31-.19l.72,0h0a.4.4,0,0,1,.32.17.21.21,0,0,1,0-.06.42.42,0,0,1,.26-.1h0q.36,0,.72.06a.39.39,0,0,1,.3.19l.05,0a.36.36,0,0,1,.23-.08h.06l.7.13a.41.41,0,0,1,.28.23l.06,0a.38.38,0,0,1,.19,0l.1,0c.23.06.46.14.69.22a.38.38,0,0,1,.25.26l.06,0,.15,0a.32.32,0,0,1,.14,0,6.62,6.62,0,0,1,.66.3.37.37,0,0,1,.22.29l.06,0h.11a.41.41,0,0,1,.19,0c.21.12.42.24.62.37a.4.4,0,0,1,.18.31l.07,0h.06a.34.34,0,0,1,.22.07c.2.14.4.29.58.44a.39.39,0,0,1,.14.33h.09a.35.35,0,0,1,.26.1c.18.16.36.32.53.5a.39.39,0,0,1,.1.34h.07a.37.37,0,0,1,.27.13c.15.18.31.36.46.55a.39.39,0,0,1,.06.36h.07a.42.42,0,0,1,.25.16c.14.2.27.4.4.61a.38.38,0,0,1,0,.36h.06a.37.37,0,0,1,.23.19c.12.21.23.43.33.64a.36.36,0,0,1,0,.36l.07,0a.39.39,0,0,1,.21.21c.09.23.17.46.25.69a.36.36,0,0,1-.06.35l.07,0a.4.4,0,0,1,.18.24c.06.23.12.47.17.7a.37.37,0,0,1-.1.35l.06,0a.38.38,0,0,1,.16.25q.06.36.09.72a.38.38,0,0,1-.14.33.37.37,0,0,1,.18.31,6.53,6.53,0,0,1,0,.76.4.4,0,0,1-.17.32.39.39,0,0,1,.15.33c0,.24,0,.48-.08.72a.33.33,0,0,1-.15.25l-.06,0a.41.41,0,0,1,.11.35c0,.24-.1.47-.15.71a.43.43,0,0,1-.18.24l-.07,0a.37.37,0,0,1,.07.35c-.07.23-.15.47-.23.69a.38.38,0,0,1-.21.22l-.07,0a.38.38,0,0,1,0,.36c-.1.22-.2.44-.31.66a.39.39,0,0,1-.23.19h-.07a.38.38,0,0,1,0,.37c-.12.2-.25.41-.39.61a.35.35,0,0,1-.24.17h-.07a.39.39,0,0,1-.06.36q-.21.28-.45.57a.36.36,0,0,1-.26.13h-.07a.39.39,0,0,1-.1.35c-.16.17-.33.35-.51.51a.36.36,0,0,1-.26.11h-.08a.39.39,0,0,1-.14.33c-.18.16-.37.31-.56.45a.4.4,0,0,1-.23.08h-.13a.37.37,0,0,1-.17.31c-.2.14-.41.26-.61.39a.46.46,0,0,1-.2.05h-.1l-.06,0a.4.4,0,0,1-.2.29c-.22.11-.44.22-.66.31a.28.28,0,0,1-.15,0,.32.32,0,0,1-.14,0l-.07,0a.37.37,0,0,1-.23.27l-.69.23-.11,0a.37.37,0,0,1-.18-.05l-.06,0a.37.37,0,0,1-.27.24c-.23.06-.47.11-.7.15H251a.34.34,0,0,1-.22-.07l-.06,0a.39.39,0,0,1-.29.2c-.24,0-.48.06-.72.07h0a.39.39,0,0,1-.26-.09l0-.05a.4.4,0,0,1-.32.17Zm-8.56-8.13a9.39,9.39,0,0,0,8.58,5.59h.39a9.35,9.35,0,0,0,5.73-2.29l-2.39-2.41a6,6,0,0,1-3.48,1.29h-.25a6,6,0,0,1-5.39-3.35Zm16.15,1.72A9.5,9.5,0,0,0,252,347.57l-.88,3.3a6.11,6.11,0,0,1,2.77,9.1Zm-11.55-3.39a4.57,4.57,0,0,0,4,2.36h.19a4.42,4.42,0,0,0,2.48-.88l-1.64-1.66a2.19,2.19,0,0,1-.93.25h0a2.36,2.36,0,0,1-1.87-.87Zm7.83.22a4.58,4.58,0,0,0,.71-2.65,4.63,4.63,0,0,0-2.72-4l-.6,2.26a2.32,2.32,0,0,1,1.06,1.85,2.38,2.38,0,0,1-.21,1.05Zm-4.24-12a9.48,9.48,0,0,0-9,9.89,10.51,10.51,0,0,0,.17,1.47l3.27-.88a6.26,6.26,0,0,1-.08-.73,6.09,6.09,0,0,1,5.8-6.34h.22l.45,0,.6-3.36a9.2,9.2,0,0,0-1-.06Zm.2,4.91a4.57,4.57,0,0,0-4.36,4.78,2.8,2.8,0,0,0,0,.4l2.23-.6a2.3,2.3,0,0,1,2-2.29l.41-2.29h-.34Z" />
  <path d="M248.73,344.88v1h.57l0-1c.23,0,.47,0,.7.05l-.11,1c.19,0,.38,0,.57.06l.16-1c.22,0,.46.08.68.13l-.22,1,.55.13.28-1,.66.21-.33,1,.53.2.39-1,.64.28-.45.95.5.26.5-.92c.2.11.41.23.6.36l-.55.88.47.32.6-.86c.19.14.38.28.56.43l-.65.82.43.36.69-.78c.18.16.35.32.51.49l-.74.74c.13.13.27.26.4.41l.77-.7.45.54-.82.65c.12.15.23.3.34.46l.85-.61c.13.19.26.39.38.59l-.88.55c.1.16.19.33.28.49l.92-.5c.11.2.21.42.31.63l-.93.44c.08.17.15.35.22.52l1-.39c.09.22.17.44.25.66l-1,.33c.06.18.12.37.17.55l1-.28c.06.22.12.45.16.68l-1,.22c0,.19.08.37.11.56l1-.16.09.7-1,.1c0,.19,0,.37.05.57l1-.05v0c0,.23,0,.47,0,.7l-1,0c0,.19,0,.39,0,.57l1,.08c0,.23,0,.47-.07.7l-1-.14a5,5,0,0,1-.09.56l1,.2q-.06.35-.15.69l-1-.26c-.05.19-.1.37-.16.55l1,.31c-.07.22-.14.45-.22.67l-1-.37c-.07.18-.15.35-.22.52l.95.43c-.09.21-.2.42-.3.63l-.93-.48a4.82,4.82,0,0,1-.27.5l.9.53c-.12.2-.25.4-.38.6l-.86-.59c-.11.16-.21.32-.32.47l.82.63c-.13.19-.28.37-.43.55l-.8-.68c-.12.14-.24.29-.37.43l.75.71c-.16.17-.32.34-.49.5l-.71-.76-.43.37.67.81c-.17.15-.36.29-.54.43l-.62-.83-.47.32.58.87c-.2.13-.4.26-.6.37l-.51-.9-.5.27.47.93-.63.3-.42-1-.52.22.36,1-.66.22-.3-1-.55.16.25,1L251,368l-.19-1-.56.1.13,1-.69.07-.07-1.05-.27,0H249l0,1h-.7l.05-1-.57-.05-.1,1.05L247,368l.16-1c-.19,0-.37-.08-.55-.12l-.22,1-.68-.17.28-1-.54-.17-.34,1-.65-.25.39-1-.52-.22-.44.94c-.21-.1-.42-.21-.62-.33l.5-.91-.49-.29-.55.89-.58-.39.6-.86-.45-.34-.65.82c-.18-.15-.36-.3-.53-.46l.69-.77-.4-.4-.74.74-.48-.51.78-.69c-.13-.14-.24-.29-.36-.44l-.82.65c-.14-.18-.28-.37-.41-.56l.85-.61c-.11-.15-.22-.31-.32-.47l-.88.55c-.12-.19-.24-.4-.35-.6l.92-.51c-.09-.16-.19-.33-.27-.5l-.93.45c-.1-.21-.19-.43-.28-.65l1-.39c-.07-.17-.14-.35-.2-.53l-1,.34c-.08-.23-.15-.45-.21-.68l1-.27c-.05-.19-.09-.37-.13-.56l-1,.22c0-.23-.09-.46-.12-.69l1-.16a5,5,0,0,1-.06-.56l-1,.1c0-.22,0-.45-.05-.68v0l1,0c0-.2,0-.38,0-.57l-1,0,0-.7,1,.07a5.32,5.32,0,0,1,.06-.56l-1-.13c0-.24.06-.47.11-.7l1,.2a5.05,5.05,0,0,1,.12-.56l-1-.25c.06-.23.12-.46.19-.68l1,.31c.06-.18.11-.36.18-.54l-1-.37c.08-.21.17-.43.27-.65l.95.43a4.9,4.9,0,0,1,.24-.52l-.93-.47c.11-.21.22-.42.34-.62l.9.53q.13-.24.3-.48l-.87-.58c.13-.2.27-.39.4-.58l.83.63c.11-.15.24-.29.36-.44L240,349c.15-.18.31-.35.47-.52l.75.72c.13-.14.27-.27.4-.4l-.71-.76c.17-.16.34-.32.52-.47l.67.8.44-.36-.62-.83c.18-.14.37-.28.57-.41l.57.88.48-.31-.53-.9c.2-.11.41-.23.62-.33l.47.93.51-.24-.42-1,.65-.26.35,1,.54-.17-.3-1c.22-.07.44-.14.67-.19l.24,1a5,5,0,0,1,.56-.11l-.19-1c.22-.05.46-.08.69-.11l.13,1,.56-.05-.08-1c.23,0,.47,0,.7,0m-9.4,14,4-1.07a4.92,4.92,0,0,1-.14-1,5.71,5.71,0,0,1,5.43-5.95h.2a6.64,6.64,0,0,1,.77.05l.73-4.11a9.17,9.17,0,0,0-1.49-.12h-.38a9.87,9.87,0,0,0-9.4,10.29,10.1,10.1,0,0,0,.27,1.92m17.16,3.86a9.89,9.89,0,0,0-4.78-15.64l-1.08,4a5.72,5.72,0,0,1,3.9,5.18,5.78,5.78,0,0,1-1.19,3.74l3.15,2.69M244,357.6l2.94-.79,0-.2a1.92,1.92,0,0,1,1.83-2h.15l.54-3a4.49,4.49,0,0,0-.64,0h-.17A4.94,4.94,0,0,0,244,357.6m8.74,2a5,5,0,0,0-2.34-7.75l-.79,3a1.94,1.94,0,0,1,1.12,1.67,1.89,1.89,0,0,1-.31,1.13l2.32,2m-3.92,1.95h.21a4.87,4.87,0,0,0,3-1.22L250,358.11a1.85,1.85,0,0,1-1,.34h-.08a1.94,1.94,0,0,1-1.64-.95l-2.87,1a4.94,4.94,0,0,0,4.51,3m0,4.91h.41a9.73,9.73,0,0,0,6.27-2.65l-2.92-3a5.6,5.6,0,0,1-3.52,1.44h-.24a5.66,5.66,0,0,1-5.19-3.44l-3.9,1.41a9.83,9.83,0,0,0,9.09,6.21m-.13-22.31h0c-.25,0-.5,0-.74,0a.62.62,0,0,1-.56.06h-.1l-.74.12a.85.85,0,0,0-.31.13h-.15l-.18,0-.72.2a.74.74,0,0,0-.3.17h-.06a.62.62,0,0,0-.27.05,7.1,7.1,0,0,0-.69.28.69.69,0,0,0-.28.2.72.72,0,0,0-.32.08l-.66.36a.76.76,0,0,0-.24.23,1,1,0,0,0-.32.12l-.61.44a.94.94,0,0,1-.52.41c-.19.16-.37.33-.55.5a.73.73,0,0,0-.19.28.77.77,0,0,0-.28.19c-.17.18-.34.37-.5.56a.71.71,0,0,0-.15.3.78.78,0,0,0-.26.22c-.15.2-.3.41-.43.61a.66.66,0,0,0-.12.32.61.61,0,0,0-.23.25c-.13.21-.25.44-.36.66a.78.78,0,0,0-.09.33.79.79,0,0,0-.2.27c-.1.23-.19.46-.28.7a.76.76,0,0,0-.05.33,1.11,1.11,0,0,0-.17.3c-.07.24-.14.48-.2.72a.65.65,0,0,0,0,.34.77.77,0,0,0-.14.32c-.05.24-.08.49-.12.74a.78.78,0,0,0,0,.34.75.75,0,0,0-.1.32c0,.25,0,.5,0,.75a.88.88,0,0,0,.07.33,1,1,0,0,0-.06.34c0,.26,0,.51.05.74a.92.92,0,0,0,.11.33.77.77,0,0,0,0,.34c0,.24.08.49.13.73a1,1,0,0,0,.14.31.78.78,0,0,0,0,.34c.06.24.14.49.22.72a.77.77,0,0,0,.17.29.82.82,0,0,0,.06.34q.14.34.3.69a.73.73,0,0,0,.2.26,1,1,0,0,0,.09.33c.12.22.25.44.38.65a.81.81,0,0,1,.36.55c.14.21.29.41.45.61a.75.75,0,0,0,.26.21.87.87,0,0,0,.16.3l.51.54a.7.7,0,0,0,.29.19.83.83,0,0,0,.19.27l.57.49a.89.89,0,0,0,.31.15.75.75,0,0,0,.22.25c.2.15.41.29.62.42a.76.76,0,0,0,.32.11.79.79,0,0,0,.25.23l.67.34a.73.73,0,0,0,.33.08.66.66,0,0,0,.27.19c.23.1.47.19.7.27a.73.73,0,0,0,.25,0h.09a.72.72,0,0,0,.3.16l.72.18.17,0,.17,0a.69.69,0,0,0,.31.12c.25,0,.5.08.74.1h.08a.75.75,0,0,0,.26,0,.73.73,0,0,0,.32.09H249a.8.8,0,0,0,.33-.08.67.67,0,0,0,.28.06h.05l.74-.08a.72.72,0,0,0,.32-.11.65.65,0,0,0,.2,0h.13c.25,0,.49-.1.74-.16a.71.71,0,0,0,.3-.15h.11a.83.83,0,0,0,.22,0c.24-.07.48-.16.71-.24a.7.7,0,0,0,.28-.19h0a.85.85,0,0,0,.31-.06l.67-.32a.8.8,0,0,0,.26-.22.75.75,0,0,0,.32-.1l.64-.4a.88.88,0,0,0,.23-.24.79.79,0,0,0,.31-.14c.2-.15.39-.31.58-.47a.9.9,0,0,1,.5-.44c.18-.17.35-.35.52-.53a.68.68,0,0,0,.18-.29,1.05,1.05,0,0,0,.27-.2c.16-.19.31-.39.46-.59a.79.79,0,0,0,.14-.31.92.92,0,0,0,.25-.23c.13-.21.27-.43.39-.64a.64.64,0,0,0,.1-.33.63.63,0,0,0,.22-.26c.12-.22.22-.45.32-.67a.83.83,0,0,0,.07-.34.77.77,0,0,0,.19-.28c.08-.24.17-.48.24-.71a1,1,0,0,0,0-.34.89.89,0,0,0,.15-.31c.06-.24.11-.49.16-.73a1,1,0,0,0,0-.34.76.76,0,0,0,.11-.32c0-.25.06-.5.08-.75a.72.72,0,0,0-.05-.33.8.8,0,0,0,.08-.33c0-.25,0-.5,0-.75a.86.86,0,0,0-.09-.35.81.81,0,0,0,0-.35c0-.24-.05-.49-.09-.74a.8.8,0,0,0-.13-.32.77.77,0,0,0,0-.34c-.05-.24-.11-.49-.18-.73a.87.87,0,0,0-.16-.3,1,1,0,0,0,0-.34c-.08-.23-.17-.47-.26-.7a.8.8,0,0,0-.2-.28.78.78,0,0,0-.07-.33c-.11-.22-.22-.45-.34-.67a.67.67,0,0,0-.22-.25.76.76,0,0,0-.11-.32c-.13-.22-.27-.43-.41-.63a.92.92,0,0,0-.25-.23.71.71,0,0,0-.15-.3c-.15-.2-.31-.39-.48-.58a.9.9,0,0,0-.27-.2.84.84,0,0,0-.18-.28c-.17-.18-.36-.35-.54-.52a.9.9,0,0,0-.3-.17.58.58,0,0,0-.21-.26c-.19-.16-.39-.31-.59-.45a.76.76,0,0,0-.31-.13.69.69,0,0,0-.24-.24c-.21-.14-.43-.26-.65-.38a.75.75,0,0,0-.32-.1.82.82,0,0,0-.27-.21c-.22-.11-.45-.21-.68-.3a.72.72,0,0,0-.29-.06h0a.79.79,0,0,0-.29-.18l-.72-.22a.64.64,0,0,0-.2,0h-.13a.73.73,0,0,0-.31-.14c-.24-.06-.49-.1-.73-.14h-.12a.78.78,0,0,0-.22,0,.72.72,0,0,0-.32-.11l-.75-.05h0a.8.8,0,0,0-.3.06.71.71,0,0,0-.32-.07Zm-8.8,13.8c-.05-.34-.08-.67-.1-1a9.1,9.1,0,0,1,8.66-9.49h.35l.59,0-.47,2.62h-.36a6.48,6.48,0,0,0-6.17,6.75l0,.43-2.53.68Zm11.62-7.26.69-2.57a9.14,9.14,0,0,1,4.12,13.52l-2-1.71a6.43,6.43,0,0,0,.93-3.63,6.51,6.51,0,0,0-3.74-5.61Zm-6.86,6a4.2,4.2,0,0,1,3.86-4.3l-.28,1.57a2.69,2.69,0,0,0-2.07,2.32l-1.51.41Zm5.85-2.2.41-1.54a4.24,4.24,0,0,1,2.08,3.47,4.18,4.18,0,0,1-.43,2l-1.19-1a2.82,2.82,0,0,0,.13-1,2.67,2.67,0,0,0-1-2ZM245.46,359l1.5-.55a2.66,2.66,0,0,0,1.9.81H249a2.56,2.56,0,0,0,.83-.17l1.13,1.14a4.19,4.19,0,0,1-1.9.55h-.17a4.17,4.17,0,0,1-3.4-1.77Zm-4.65,1.68,2.47-.89a6.42,6.42,0,0,0,5.58,3.25h.27a6.42,6.42,0,0,0,3.43-1.17l1.85,1.87a9,9,0,0,1-5.17,1.93h-.38a9,9,0,0,1-8.05-5Z" />
  <path class="GUNDAN_CAT_JEWELRY_CAT_JEWELLERY_12_cls-4" d="M232.42,382.52a.39.39,0,0,1-.27-.11.4.4,0,0,1-.12-.27v-.62h-.14l0,.61a.37.37,0,0,1-.38.36h0c-.22,0-.45,0-.67-.07a.38.38,0,0,1-.33-.43l.09-.62-.15,0-.13.6a.43.43,0,0,1-.17.24.42.42,0,0,1-.21.06h-.09l-.64-.17a.38.38,0,0,1-.26-.48l.17-.6-.14,0-.22.57a.36.36,0,0,1-.21.21.28.28,0,0,1-.15,0l-.15,0-.61-.27a.38.38,0,0,1-.18-.51l.26-.56-.13-.07-.31.53a.35.35,0,0,1-.24.17l-.09,0a.36.36,0,0,1-.2-.06,6.65,6.65,0,0,1-.56-.36.38.38,0,0,1-.11-.53l.35-.52-.12-.09-.39.48a.36.36,0,0,1-.26.14h0a.44.44,0,0,1-.25-.08c-.17-.15-.34-.29-.5-.45a.38.38,0,0,1,0-.54l.42-.45-.1-.11-.45.41a.42.42,0,0,1-.26.1h0a.41.41,0,0,1-.27-.13l-.43-.51a.39.39,0,0,1,.06-.54l.49-.39-.09-.12-.51.34a.43.43,0,0,1-.22.06h-.07a.39.39,0,0,1-.25-.16l-.35-.58a.38.38,0,0,1,.15-.52l.53-.31-.07-.13-.55.25a.45.45,0,0,1-.16,0,.32.32,0,0,1-.14,0,.43.43,0,0,1-.22-.2c-.09-.21-.17-.42-.25-.63a.37.37,0,0,1,.22-.49l.57-.22,0-.14-.59.16h-.11a.29.29,0,0,1-.18-.05.39.39,0,0,1-.19-.23c-.06-.21-.11-.44-.16-.65a.39.39,0,0,1,.3-.46l.6-.13c0-.05,0-.1,0-.15l-.66.08a.43.43,0,0,1-.24-.08.4.4,0,0,1-.14-.26c0-.23-.05-.45-.06-.68a.38.38,0,0,1,.36-.4l.61,0v-.15l-.61,0a.37.37,0,0,1-.37-.39c0-.23,0-.46,0-.68a.4.4,0,0,1,.14-.26.38.38,0,0,1,.25-.09l.64.06a.77.77,0,0,0,0-.15l-.6-.11a.39.39,0,0,1-.31-.45q.06-.33.15-.66a.38.38,0,0,1,.17-.24.46.46,0,0,1,.2-.05h.1l.59.15a.57.57,0,0,1,0-.14l-.58-.21a.38.38,0,0,1-.23-.49c.07-.21.16-.42.24-.63a.43.43,0,0,1,.21-.21.4.4,0,0,1,.15,0,.28.28,0,0,1,.15,0l.56.24c0-.05.05-.09.07-.14l-.55-.29a.39.39,0,0,1-.15-.52c.1-.2.22-.4.34-.59a.35.35,0,0,1,.24-.17h.08a.42.42,0,0,1,.21.06l.51.32.08-.12-.48-.38a.38.38,0,0,1-.08-.53l.42-.53a.39.39,0,0,1,.27-.13h0a.38.38,0,0,1,.25.09l.46.4a.52.52,0,0,0,.1-.11l-.43-.44a.39.39,0,0,1,0-.54c.16-.16.33-.32.5-.46a.37.37,0,0,1,.25-.09h0a.35.35,0,0,1,.26.13l.4.47.11-.09-.35-.51a.38.38,0,0,1,.09-.54l.55-.37a.42.42,0,0,1,.21-.06h.09a.46.46,0,0,1,.24.17l.32.53.12-.07-.27-.56a.37.37,0,0,1,.17-.51c.2-.11.4-.2.61-.29a.37.37,0,0,1,.15,0,.32.32,0,0,1,.14,0,.36.36,0,0,1,.21.21l.24.57.14-.05-.19-.6a.39.39,0,0,1,.25-.48l.64-.19h.1a.46.46,0,0,1,.2.05.38.38,0,0,1,.17.24l.15.6.14,0-.09-.61a.39.39,0,0,1,.32-.44l.66-.09h0a.36.36,0,0,1,.24.09.38.38,0,0,1,.14.26l.06.61h.14v-.61a.39.39,0,0,1,.11-.27.36.36,0,0,1,.27-.12h0l.66,0a.35.35,0,0,1,.27.13.38.38,0,0,1,.1.27l0,.62h.15l.09-.61a.37.37,0,0,1,.38-.32h.05q.33,0,.66.12a.39.39,0,0,1,.3.46l-.13.61.14,0,.18-.59a.37.37,0,0,1,.37-.27.25.25,0,0,1,.12,0c.21.06.42.14.63.22a.37.37,0,0,1,.22.49l-.21.58.13.06.27-.55a.4.4,0,0,1,.22-.2l.12,0a.47.47,0,0,1,.17,0l.6.32a.39.39,0,0,1,.14.52l-.31.54.13.08.35-.51a.42.42,0,0,1,.25-.16h.06a.39.39,0,0,1,.23.07c.18.13.36.26.53.4a.38.38,0,0,1,.07.54l-.39.49.11.09.42-.44a.38.38,0,0,1,.28-.12h0a.39.39,0,0,1,.27.11c.16.15.32.31.47.48a.38.38,0,0,1,0,.54l-.45.42.1.11.48-.37a.4.4,0,0,1,.23-.08h.05a.37.37,0,0,1,.26.15c.14.17.27.36.39.54a.39.39,0,0,1-.1.54l-.51.35.08.12.53-.29a.32.32,0,0,1,.19-.05h.11a.39.39,0,0,1,.23.19c.11.19.21.4.3.6a.38.38,0,0,1-.18.51l-.55.26.06.14.57-.21.13,0a.45.45,0,0,1,.16,0,.47.47,0,0,1,.2.22c.08.21.15.43.21.64a.39.39,0,0,1-.26.48l-.59.18,0,.14.61-.12h.07a.43.43,0,0,1,.22.06.42.42,0,0,1,.16.25c0,.22.08.44.11.66a.39.39,0,0,1-.33.44l-.6.08c0,.05,0,.1,0,.15l.62,0a.45.45,0,0,1,.27.1.4.4,0,0,1,.12.27c0,.25,0,.47,0,.7a.4.4,0,0,1-.12.27.39.39,0,0,1-.27.11l-.62,0c0,.05,0,.11,0,.16l.61.06a.39.39,0,0,1,.34.43c0,.22-.05.45-.09.67a.42.42,0,0,1-.16.25.41.41,0,0,1-.22.07h-.07l-.6-.1,0,.14.59.16a.39.39,0,0,1,.27.48c-.06.21-.12.43-.19.64a.45.45,0,0,1-.2.23.47.47,0,0,1-.17,0l-.12,0-.58-.2-.06.14.57.25a.39.39,0,0,1,.19.51c-.09.2-.19.41-.29.61a.39.39,0,0,1-.23.19h-.11a.34.34,0,0,1-.18,0l-.54-.29-.08.13.52.34a.38.38,0,0,1,.11.53c-.12.19-.25.38-.38.56a.37.37,0,0,1-.25.15h-.06a.4.4,0,0,1-.23-.08l-.49-.36-.09.11.46.41a.38.38,0,0,1,0,.54c-.15.17-.3.34-.46.5a.39.39,0,0,1-.27.11h0a.39.39,0,0,1-.27-.11l-.44-.44-.11.1.4.48a.38.38,0,0,1-.05.54l-.53.41a.36.36,0,0,1-.23.08h-.05a.37.37,0,0,1-.26-.15l-.35-.49-.13.08.32.53a.38.38,0,0,1-.13.52c-.19.12-.39.23-.59.33a.35.35,0,0,1-.18.05l-.11,0a.39.39,0,0,1-.23-.19l-.28-.55-.13.06.23.58a.38.38,0,0,1-.21.5l-.63.23a.25.25,0,0,1-.12,0,.33.33,0,0,1-.17,0,.36.36,0,0,1-.2-.22l-.19-.58-.14,0,.14.6a.37.37,0,0,1-.05.29.35.35,0,0,1-.24.17l-.65.14H234a.36.36,0,0,1-.22-.07.42.42,0,0,1-.16-.25l-.1-.61-.14,0,0,.62a.37.37,0,0,1-.35.41l-.42,0ZM228,377.21a7.1,7.1,0,0,0,3.81,1.41l-.06-1.27a5.71,5.71,0,0,1-2.89-1.08Zm5.25,1.35a7.13,7.13,0,0,0,3.68-1.72L236,376a5.8,5.8,0,0,1-2.8,1.31Zm-8-6a7.16,7.16,0,0,0,1.7,3.71l.86-.94a5.86,5.86,0,0,1-1.31-2.83Zm4.56,2.72a4.48,4.48,0,0,0,1.9.71l-.11-2.67Zm3.34.65A4.35,4.35,0,0,0,235,375L233,373.22Zm4.76-.12a7.09,7.09,0,0,0,1.39-3.84L238,372a5.87,5.87,0,0,1-1.07,2.93Zm-10-3.36a4.46,4.46,0,0,0,.85,1.85l1.79-2Zm8.06,1.55a4.4,4.4,0,0,0,.69-1.92l-2.64.11Zm-9.38-6.73a7.18,7.18,0,0,0-1.39,3.84l1.25-.05a5.87,5.87,0,0,1,1.07-2.93Zm2,1.81a4.42,4.42,0,0,0-.7,1.92l2.64-.11Zm5.41,1.66,2.65-.11a4.48,4.48,0,0,0-.86-1.85Zm2.74-3a5.85,5.85,0,0,1,1.3,2.82l1.26,0a7.17,7.17,0,0,0-1.71-3.71Zm-5.24,2.07-.11-2.67a4.35,4.35,0,0,0-1.83.86Zm1.45-.06,1.79-2a4.4,4.4,0,0,0-1.9-.71Zm-4.41-2.7a5.76,5.76,0,0,1,2.8-1.31l-.06-1.27a7.06,7.06,0,0,0-3.67,1.72Zm4.24-1.36a5.67,5.67,0,0,1,2.9,1.07l.85-.94a7.1,7.1,0,0,0-3.8-1.41Z" />
  <path d="M232.23,360.87h.58l-.05,1a8.58,8.58,0,0,1,.87.1l.15-1q.32,0,.63.12l-.2,1c.28.06.57.13.85.22l.29-1,.61.22-.35.92q.42.16.81.36l.43-.89a5.12,5.12,0,0,1,.57.3l-.49.87c.26.15.51.3.75.47l.56-.82.52.39-.61.78c.23.19.45.38.66.58l.68-.72c.16.15.31.31.46.47l-.73.67c.2.22.39.45.57.68l.78-.61a6.42,6.42,0,0,1,.38.53l-.82.56a7.31,7.31,0,0,1,.46.76l.87-.49.29.58-.88.43q.18.39.33.81l.93-.34c.07.21.14.41.2.62l-1,.29c.08.28.15.56.21.86l1-.2c0,.21.08.43.11.64l-1,.14a8.46,8.46,0,0,1,.08.88l1,0v0c0,.22,0,.44,0,.65l-1,0c0,.3,0,.59-.06.89l1,.11c0,.21,0,.43-.09.64l-1-.17c0,.29-.11.58-.19.87l1,.26c-.06.21-.12.42-.19.62l-.94-.32a7.34,7.34,0,0,1-.32.82l.91.41c-.09.2-.18.4-.28.59l-.88-.46c-.14.26-.28.52-.44.76l.83.54c-.12.19-.24.37-.37.54l-.79-.59c-.18.24-.36.47-.56.69l.74.66c-.14.16-.29.32-.44.47l-.7-.7c-.21.21-.42.4-.65.59l.63.77a5,5,0,0,1-.51.4l-.58-.8c-.23.18-.48.34-.73.5l.51.84c-.19.12-.38.22-.57.32l-.45-.89a8.25,8.25,0,0,1-.8.37l.37.93-.6.23-.32-.95a7.44,7.44,0,0,1-.84.25l.23,1L234,382l-.17-1a8,8,0,0,1-.87.11l.08,1-.41,0h-.23l0-1h-.23c-.22,0-.44,0-.65,0l-.07,1-.65-.07.14-1a8.34,8.34,0,0,1-.87-.16l-.22,1-.62-.17.28-1a7.39,7.39,0,0,1-.83-.29l-.37.93-.59-.26.42-.9q-.4-.2-.78-.42l-.5.86c-.19-.11-.37-.23-.55-.35l.56-.83c-.24-.16-.48-.34-.71-.52l-.62.77-.49-.43.67-.73a7.36,7.36,0,0,1-.62-.63l-.73.67c-.15-.17-.29-.33-.42-.5l.78-.62c-.18-.24-.35-.47-.52-.72l-.83.55c-.11-.19-.23-.37-.33-.56l.86-.49a8.36,8.36,0,0,1-.4-.79l-.9.41c-.09-.2-.18-.4-.25-.6l.92-.36q-.15-.4-.27-.84l-1,.27-.15-.63,1-.21a8.49,8.49,0,0,1-.14-.88l-1,.12c0-.21,0-.43-.05-.65l1-.05c0-.06,0-.11,0-.16,0-.25,0-.49,0-.73l-1,0c0-.22,0-.44.05-.65l1,.09c0-.29.07-.59.12-.88l-1-.18c0-.21.09-.43.14-.64l1,.25c.07-.29.16-.57.25-.85l-.93-.33a6.44,6.44,0,0,1,.24-.61l.91.39c.12-.27.24-.54.38-.8l-.87-.47c.1-.19.21-.38.32-.57l.84.53c.15-.25.32-.5.49-.73l-.78-.6.41-.51.75.65c.19-.22.39-.44.6-.64l-.69-.72c.15-.15.31-.3.48-.44l.64.76a7.23,7.23,0,0,1,.69-.55l-.57-.81a6.33,6.33,0,0,1,.54-.36l.52.84c.25-.15.5-.3.77-.43l-.45-.89a6.28,6.28,0,0,1,.59-.27l.39.92a8.11,8.11,0,0,1,.82-.31l-.3-1,.62-.18.24,1a8.2,8.2,0,0,1,.86-.18l-.15-1c.21,0,.43-.06.64-.08l.09,1,.53-.05h.35v-1h.06m3.41,6.38,1.37-1.51a7.44,7.44,0,0,0-4.76-1.76l.08,2a5.39,5.39,0,0,1,3.31,1.23m-7.19.3a5.42,5.42,0,0,1,3.21-1.5l-.09-2a7.46,7.46,0,0,0-4.61,2.15l1.49,1.39m9.17,3.38,2-.08a7.52,7.52,0,0,0-2.13-4.65l-1.37,1.51a5.42,5.42,0,0,1,1.48,3.22m-5.1-.26,2.71-3a4.82,4.82,0,0,0-2.88-1.06l.17,4m-7.76.8,2-.08a5.52,5.52,0,0,1,1.22-3.34l-1.49-1.39a7.56,7.56,0,0,0-1.75,4.81m7.09-.77-.17-4A4.86,4.86,0,0,0,228.9,368l2.95,2.74m1.17.43,4-.17a4.89,4.89,0,0,0-1.29-2.8l-2.7,3m-5.63.23,4-.17-2.94-2.73a4.87,4.87,0,0,0-1.06,2.9m10.54,5a7.5,7.5,0,0,0,1.74-4.81l-2,.08a5.45,5.45,0,0,1-1.21,3.34l1.49,1.39m-1.94-1.8a4.93,4.93,0,0,0,1-2.9l-4,.17,3,2.73m-7.28.3,2.71-3-4,.17a4.89,4.89,0,0,0,1.29,2.8m-1.79,2,1.38-1.51a5.43,5.43,0,0,1-1.49-3.22l-2,.08a7.52,7.52,0,0,0,2.13,4.65m5.83-.47a4.8,4.8,0,0,0,2.78-1.29l-2.94-2.73.16,4m-.67,0-.17-4-2.7,3a4.76,4.76,0,0,0,2.87,1.06m.78,2.63a7.43,7.43,0,0,0,4.61-2.15L236,375.45a5.36,5.36,0,0,1-3.2,1.5l.08,2m-.67,0-.09-2a5.41,5.41,0,0,1-3.31-1.23l-1.37,1.51a7.46,7.46,0,0,0,4.77,1.76m0-18.92h-.07a.78.78,0,0,0-.51.19.8.8,0,0,0-.45-.14h-.07c-.23,0-.47.05-.69.09a.77.77,0,0,0-.48.27.73.73,0,0,0-.35-.09.63.63,0,0,0-.19,0l-.67.19a.79.79,0,0,0-.43.35.67.67,0,0,0-.24,0,.77.77,0,0,0-.3.06c-.22.09-.43.19-.63.29a.74.74,0,0,0-.37.41h-.13a.81.81,0,0,0-.41.11l-.58.39a.78.78,0,0,0-.3.46h0a.78.78,0,0,0-.51.19l-.51.47a.77.77,0,0,0-.23.5.74.74,0,0,0-.48.26c-.15.18-.3.36-.44.55a.82.82,0,0,0-.15.53.75.75,0,0,0-.43.33c-.12.2-.24.4-.35.61a.78.78,0,0,0-.07.54.74.74,0,0,0-.38.4c-.09.21-.18.43-.25.65a.74.74,0,0,0,0,.55.8.8,0,0,0-.32.46l-.15.68a.84.84,0,0,0,.1.54.79.79,0,0,0-.24.5c0,.23,0,.46,0,.69a.84.84,0,0,0,.18.52.81.81,0,0,0-.16.53q0,.34.06.69a.75.75,0,0,0,.25.49.77.77,0,0,0-.08.54c0,.23.1.46.16.68a.76.76,0,0,0,.33.45.75.75,0,0,0,0,.55c.08.22.17.43.26.65a.74.74,0,0,0,.4.38.76.76,0,0,0,.08.55c.11.2.23.4.36.59a.77.77,0,0,0,.44.33.73.73,0,0,0,.17.52c.14.19.29.37.44.54a.78.78,0,0,0,.49.25.79.79,0,0,0,.24.49c.17.16.35.32.53.46a.72.72,0,0,0,.49.18h0a.74.74,0,0,0,.31.45l.58.37a.8.8,0,0,0,.4.11H227a.8.8,0,0,0,.37.4l.64.27a.72.72,0,0,0,.29.06.58.58,0,0,0,.26,0,.81.81,0,0,0,.43.34l.68.18.17,0a.79.79,0,0,0,.37-.1.74.74,0,0,0,.48.26l.69.08h.06a.81.81,0,0,0,.47-.16.78.78,0,0,0,.5.18h.26l.44,0a.82.82,0,0,0,.5-.24.72.72,0,0,0,.4.12h.13l.68-.14a.79.79,0,0,0,.46-.31.79.79,0,0,0,.55,0l.65-.25a.76.76,0,0,0,.4-.37l.18,0a.74.74,0,0,0,.36-.09c.2-.1.41-.22.61-.34a.75.75,0,0,0,.33-.43h.07a.75.75,0,0,0,.46-.15c.19-.13.37-.28.55-.43a.78.78,0,0,0,.27-.48.81.81,0,0,0,.5-.22l.47-.51a.78.78,0,0,0,.19-.52.72.72,0,0,0,.46-.3c.14-.18.27-.38.4-.57a.81.81,0,0,0,.11-.54.78.78,0,0,0,.41-.37c.11-.2.21-.42.3-.63a.75.75,0,0,0,0-.55.77.77,0,0,0,.35-.42c.07-.22.14-.45.2-.67a.79.79,0,0,0,0-.55.81.81,0,0,0,.28-.48c0-.23.07-.46.1-.69a.8.8,0,0,0-.14-.53.74.74,0,0,0,.2-.51c0-.23,0-.47,0-.7a.83.83,0,0,0-.23-.53.72.72,0,0,0,.13-.54c0-.23-.07-.46-.11-.69a.84.84,0,0,1-.25-1c-.07-.23-.14-.45-.22-.67a.74.74,0,0,0-.36-.42.76.76,0,0,0,0-.55c-.1-.2-.2-.41-.31-.62a.84.84,0,0,0-.42-.35.8.8,0,0,0-.13-.54l-.4-.57a.77.77,0,0,0-.47-.28.75.75,0,0,0-.21-.52c-.15-.17-.32-.33-.48-.49a.82.82,0,0,0-.51-.22.73.73,0,0,0-.28-.47l-.55-.42a.8.8,0,0,0-.45-.14h-.08a.78.78,0,0,0-.35-.43l-.62-.32a.66.66,0,0,0-.34-.08l-.2,0a.81.81,0,0,0-.41-.36c-.22-.09-.44-.16-.66-.23a.85.85,0,0,0-.23,0,.88.88,0,0,0-.32.07.71.71,0,0,0-.46-.3c-.22,0-.45-.09-.68-.12h-.11a.7.7,0,0,0-.42.13.78.78,0,0,0-.5-.23Zm.84,5.21,0-.5a6.52,6.52,0,0,1,2.82,1l-.33.37a6.11,6.11,0,0,0-2.47-.91Zm-5,.87a6.6,6.6,0,0,1,2.73-1.28l0,.5a6.09,6.09,0,0,0-2.39,1.11l-.36-.33Zm9,1.55.34-.37a6.81,6.81,0,0,1,1.26,2.76l-.49,0a6,6,0,0,0-1.11-2.41Zm-3.95,1-.05-1.25a3.53,3.53,0,0,1,.89.33l-.84.92Zm-3.12-.76a4,4,0,0,1,.86-.4l.05,1.25-.91-.85Zm-4.51,2.66a6.81,6.81,0,0,1,1-2.86l.36.34a6.18,6.18,0,0,0-.91,2.5l-.49,0Zm9.25-.39.84-.92a3.82,3.82,0,0,1,.4.87l-1.24,0Zm-6.56.27a3.75,3.75,0,0,1,.33-.9l.91.85-1.24.05Zm10.1,1.8.48,0a6.8,6.8,0,0,1-1,2.86l-.36-.34a6.18,6.18,0,0,0,.91-2.5Zm-3.45.15,1.24-.05a4.2,4.2,0,0,1-.32.9l-.92-.85Zm-6.56.27,1.24,0-.84.92a3.82,3.82,0,0,1-.4-.87Zm-2.69.11.49,0a6.11,6.11,0,0,0,1.11,2.41l-.33.37a6.7,6.7,0,0,1-1.27-2.76Zm7.81,2.51,0-1.25.91.85a3.75,3.75,0,0,1-.86.4Zm-3.1-.24.84-.92.05,1.25a3.68,3.68,0,0,1-.89-.33Zm3.19,2.45a6.09,6.09,0,0,0,2.39-1.11l.36.33a6.62,6.62,0,0,1-2.72,1.28l0-.5Zm-5-.45.34-.37a6.06,6.06,0,0,0,2.46.91l0,.5a6.57,6.57,0,0,1-2.82-1Z" />
  <path class="GUNDAN_CAT_JEWELRY_CAT_JEWELLERY_12_cls-2" d="M212.63,379.8a4.14,4.14,0,0,1-.17-8.27h.17a4.14,4.14,0,0,1,.17,8.27Zm-.09-6.47a2.36,2.36,0,1,0,.09,0Z" />
  <path d="M212.63,371.91a3.75,3.75,0,0,1,.15,7.5h-.15a3.75,3.75,0,0,1-.15-7.5h.15m0,6.47h.11a2.72,2.72,0,0,0-.11-5.44h-.11a2.72,2.72,0,0,0,.11,5.44m0-7.24h-.18a4.52,4.52,0,0,0,.18,9h.19a4.52,4.52,0,0,0-.19-9Zm0,6.47a2,2,0,0,1-.08-3.9h.08a2,2,0,0,1,.08,3.9Z" />
  <path class="GUNDAN_CAT_JEWELRY_CAT_JEWELLERY_12_cls-2" d="M212.63,381.35A5.69,5.69,0,0,1,212.4,370h.23a5.69,5.69,0,0,1,.23,11.37ZM212.44,371a4.67,4.67,0,0,0,.19,9.34h.19a4.67,4.67,0,0,0-.19-9.34Z" />
  <path d="M212.63,370.36a5.3,5.3,0,0,1,.22,10.6h-.22a5.3,5.3,0,0,1-.22-10.6h.22m0,10.36h.21a5.06,5.06,0,0,0-.21-10.11h-.21a5.06,5.06,0,0,0,.21,10.11m0-11.13h-.25a6.07,6.07,0,0,0,.25,12.14h.25a6.07,6.07,0,0,0-.25-12.13Zm0,10.36a4.29,4.29,0,0,1-.17-8.57h.17a4.29,4.29,0,0,1,.18,8.57Z" />
  <path class="GUNDAN_CAT_JEWELRY_CAT_JEWELLERY_12_cls-2" d="M212.62,386.19a9.22,9.22,0,0,1-1.48-.11.38.38,0,0,1-.33-.43l.07-.51a9.66,9.66,0,0,1-2.33-.77l-.24.46a.39.39,0,0,1-.23.19l-.11,0a.37.37,0,0,1-.18-.05,10.83,10.83,0,0,1-1.63-1.06.39.39,0,0,1-.06-.54l.32-.41a9.56,9.56,0,0,1-1.65-1.83l-.43.28a.37.37,0,0,1-.21.06h-.08a.43.43,0,0,1-.24-.17,9.8,9.8,0,0,1-.88-1.74.38.38,0,0,1,.21-.5l.48-.19a9.67,9.67,0,0,1-.52-2.43l-.53,0a.38.38,0,0,1-.38-.36,10.54,10.54,0,0,1,.1-1.95.33.33,0,0,1,.15-.25.36.36,0,0,1,.23-.08h.05l.51.08a9.69,9.69,0,0,1,.75-2.36l-.45-.24a.39.39,0,0,1-.17-.52,10.44,10.44,0,0,1,1.06-1.64.41.41,0,0,1,.25-.15h.05a.41.41,0,0,1,.24.08l.4.32a10.23,10.23,0,0,1,1.82-1.66l-.28-.44a.39.39,0,0,1,.12-.53,10.79,10.79,0,0,1,1.72-.89l.15,0,.15,0a.41.41,0,0,1,.21.22l.19.47a9.7,9.7,0,0,1,2.4-.52l0-.51a.44.44,0,0,1,.11-.29.39.39,0,0,1,.28-.11h.44a10.27,10.27,0,0,1,1.47.1.39.39,0,0,1,.33.44l-.07.51a9.49,9.49,0,0,1,2.33.76l.24-.46a.39.39,0,0,1,.23-.19h.11a.37.37,0,0,1,.18,0,10.83,10.83,0,0,1,1.63,1.06.39.39,0,0,1,.06.54l-.32.41a9.56,9.56,0,0,1,1.65,1.83l.43-.28a.42.42,0,0,1,.21-.06h.08a.39.39,0,0,1,.25.17,11.36,11.36,0,0,1,.88,1.74.39.39,0,0,1-.21.5l-.48.19a9.5,9.5,0,0,1,.52,2.42l.53,0a.44.44,0,0,1,.26.1.4.4,0,0,1,.12.27,9.86,9.86,0,0,1-.1,2,.33.33,0,0,1-.15.25.36.36,0,0,1-.23.08h-.05l-.51-.08a9.3,9.3,0,0,1-.76,2.36l.46.24a.38.38,0,0,1,.16.52,10.39,10.39,0,0,1-1,1.64.46.46,0,0,1-.26.15h-.05a.38.38,0,0,1-.24-.09l-.4-.32a9.26,9.26,0,0,1-1.82,1.66l.28.44a.39.39,0,0,1-.12.53,10,10,0,0,1-1.72.89l-.15,0-.15,0a.37.37,0,0,1-.2-.21l-.19-.48a9.52,9.52,0,0,1-2.41.52l0,.51a.39.39,0,0,1-.11.28.36.36,0,0,1-.28.12Zm-.29-17.87a7.34,7.34,0,0,0,.3,14.68h.3a7.35,7.35,0,0,0-.29-14.69Z" />
  <path d="M212.63,365.51a11.32,11.32,0,0,1,1.43.1l-.13.89a8.92,8.92,0,0,1,2.94,1l.41-.8a10,10,0,0,1,1.57,1l-.55.71a9.28,9.28,0,0,1,2.07,2.3l.75-.48a9.72,9.72,0,0,1,.85,1.67l-.82.33a9.08,9.08,0,0,1,.65,3.05l.89-.05v0a10.72,10.72,0,0,1-.1,1.88l-.88-.13a9.09,9.09,0,0,1-1,3l.79.42a10,10,0,0,1-1,1.57l-.7-.55a9.23,9.23,0,0,1-2.28,2.08l.47.76a10,10,0,0,1-1.66.86l-.33-.84a9.16,9.16,0,0,1-3,.66l0,.89h-.42a9.87,9.87,0,0,1-1.44-.11l.13-.88a8.92,8.92,0,0,1-2.94-1l-.41.79a10,10,0,0,1-1.57-1l.56-.7a9.11,9.11,0,0,1-2.07-2.31l-.76.48a10.49,10.49,0,0,1-.85-1.67l.83-.33a9.08,9.08,0,0,1-.65-3.05l-.89,0h0a10.61,10.61,0,0,1,.1-1.87l.88.13a9.09,9.09,0,0,1,.95-3l-.79-.42a10,10,0,0,1,1-1.57l.7.55a9.31,9.31,0,0,1,2.29-2.09l-.48-.75a9.32,9.32,0,0,1,1.66-.86l.33.83a9.16,9.16,0,0,1,3-.66l0-.89h.43m0,17.88H213a7.73,7.73,0,0,0-.32-15.45h-.32a7.73,7.73,0,0,0,.32,15.45m0-18.65h-.45a.79.79,0,0,0-.75.8v.16a9.72,9.72,0,0,0-1.78.38l-.06-.14a.74.74,0,0,0-.41-.42.8.8,0,0,0-.3-.06.93.93,0,0,0-.29,0,11.26,11.26,0,0,0-1.79.93.77.77,0,0,0-.23,1.06l.08.13a10.5,10.5,0,0,0-1.35,1.24l-.11-.1a.77.77,0,0,0-.48-.16h-.09a.8.8,0,0,0-.52.29,11.17,11.17,0,0,0-1.09,1.7.78.78,0,0,0,.33,1l.14.07a9.67,9.67,0,0,0-.57,1.75l-.14,0h-.11a.81.81,0,0,0-.47.16.77.77,0,0,0-.3.51,11.13,11.13,0,0,0-.09,2,.75.75,0,0,0,.24.54.8.8,0,0,0,.53.21h.17a9.27,9.27,0,0,0,.39,1.81l-.14,0a.77.77,0,0,0-.43,1,10.85,10.85,0,0,0,.91,1.8.74.74,0,0,0,.49.34.44.44,0,0,0,.16,0,.79.79,0,0,0,.42-.12l.12-.08A10.57,10.57,0,0,0,205.9,383l-.1.13a.76.76,0,0,0,.12,1.07,10.87,10.87,0,0,0,1.69,1.1.74.74,0,0,0,.36.09.91.91,0,0,0,.23,0,.77.77,0,0,0,.45-.38l.07-.13a9.7,9.7,0,0,0,1.73.56l0,.16a.77.77,0,0,0,.65.87,11.42,11.42,0,0,0,1.55.11h.45a.8.8,0,0,0,.54-.25.76.76,0,0,0,.2-.56v-.15a9.72,9.72,0,0,0,1.78-.38l.06.14a.74.74,0,0,0,.41.42.66.66,0,0,0,.3.07.72.72,0,0,0,.29-.06,11.21,11.21,0,0,0,1.79-.92.76.76,0,0,0,.23-1.06l-.08-.14a9.86,9.86,0,0,0,1.35-1.23l.12.09a.73.73,0,0,0,.47.17h.09a.8.8,0,0,0,.52-.29,10.45,10.45,0,0,0,1.09-1.7.78.78,0,0,0-.32-1l-.14-.07a10.84,10.84,0,0,0,.57-1.75l.14,0h.11a.76.76,0,0,0,.46-.16.75.75,0,0,0,.31-.5,12.43,12.43,0,0,0,.1-2,.8.8,0,0,0-.78-.77h-.17a10.14,10.14,0,0,0-.39-1.8l.14-.06a.76.76,0,0,0,.43-1,10.52,10.52,0,0,0-.92-1.8.72.72,0,0,0-.48-.34.5.5,0,0,0-.17,0,.79.79,0,0,0-.42.12l-.12.08a10.49,10.49,0,0,0-1.22-1.36l.1-.13a.76.76,0,0,0-.13-1.07,10.87,10.87,0,0,0-1.69-1.1.74.74,0,0,0-.36-.09l-.23,0a.79.79,0,0,0-.45.39l-.07.13a9.7,9.7,0,0,0-1.73-.56l0-.16a.77.77,0,0,0-.65-.87,11.28,11.28,0,0,0-1.54-.11Zm0,17.88a7,7,0,0,1-.28-13.91h.28a7,7,0,0,1,.29,13.91Z" />
  <path class="GUNDAN_CAT_JEWELRY_CAT_JEWELLERY_12_cls-5" d="M224.23,397.11a.67.67,0,0,1-.67-.64l0-.62h-.15l-.14.6a.67.67,0,0,1-.65.53l-.15,0-.48-.11a.67.67,0,0,1-.51-.8l.13-.6-.14-.06-.28.54a.68.68,0,0,1-.6.37.71.71,0,0,1-.31-.08l-.43-.23a.68.68,0,0,1-.29-.91l.28-.55-.12-.09-.41.45a.68.68,0,0,1-.5.22.63.63,0,0,1-.45-.18l-.37-.33a.7.7,0,0,1-.21-.47.68.68,0,0,1,.18-.49l.41-.45-.1-.12-.51.33a.69.69,0,0,1-.93-.21l-.26-.42a.68.68,0,0,1,.2-.93l.52-.33-.07-.14-.58.18-.2,0a.67.67,0,0,1-.64-.47l-.15-.48a.68.68,0,0,1,.44-.84l.59-.18,0-.16-.61,0a.69.69,0,0,1-.7-.65l0-.5a.69.69,0,0,1,.65-.7l.6,0s0-.1,0-.15l-.6-.14a.67.67,0,0,1-.51-.8l.11-.49a.68.68,0,0,1,.66-.53l.15,0,.59.13a.58.58,0,0,1,.05-.14l-.54-.29a.67.67,0,0,1-.28-.91l.23-.44a.66.66,0,0,1,.59-.36.72.72,0,0,1,.32.08l.53.28.09-.13-.45-.42a.68.68,0,0,1,0-.95l.34-.36a.64.64,0,0,1,.49-.22.67.67,0,0,1,.46.18l.44.41.12-.1-.32-.52a.68.68,0,0,1,.2-.93l.42-.26a.66.66,0,0,1,.36-.11.69.69,0,0,1,.57.31l.32.52.14-.06-.18-.59a.68.68,0,0,1,.43-.84l.48-.15.2,0a.66.66,0,0,1,.64.47l.18.59.15,0,0-.62a.67.67,0,0,1,.64-.7l.49,0a.68.68,0,0,1,.7.65l0,.61.15,0,.13-.6a.67.67,0,0,1,.66-.53l.15,0,.48.1a.67.67,0,0,1,.5.81l-.13.6.15,0,.28-.54a.66.66,0,0,1,.59-.36.64.64,0,0,1,.31.07l.44.24a.67.67,0,0,1,.29.9l-.29.55.13.09.41-.45a.64.64,0,0,1,.49-.22.7.7,0,0,1,.46.18l.36.34a.68.68,0,0,1,0,.95l-.41.45.1.12.51-.32a.66.66,0,0,1,.36-.11.69.69,0,0,1,.57.31l.26.42a.67.67,0,0,1-.21.93l-.51.33c0,.05,0,.1.07.14l.57-.18.2,0a.67.67,0,0,1,.65.48l.14.47a.67.67,0,0,1-.44.84l-.58.19,0,.15.61,0a.68.68,0,0,1,.7.64l0,.5a.68.68,0,0,1-.65.7l-.6,0c0,.05,0,.11,0,.16l.59.13a.69.69,0,0,1,.51.81l-.11.48a.66.66,0,0,1-.65.53h0l-.15,0-.59-.13,0,.15.54.28a.68.68,0,0,1,.28.91l-.23.44a.67.67,0,0,1-.6.37.71.71,0,0,1-.31-.08l-.53-.28-.09.12.45.42a.7.7,0,0,1,0,.95l-.34.37a.68.68,0,0,1-.49.22.64.64,0,0,1-.46-.19l-.45-.41-.11.1.32.52a.67.67,0,0,1-.2.93l-.42.27a.69.69,0,0,1-.93-.21l-.32-.52-.14.07.18.58a.68.68,0,0,1-.44.85l-.47.15-.2,0a.68.68,0,0,1-.65-.47l-.18-.59-.15,0,0,.61a.68.68,0,0,1-.64.7Zm-.29-13.94a5,5,0,0,0,.2,10.07h.21a5,5,0,0,0-.2-10.06Z" />
  <path d="M224.05,379.68a.29.29,0,0,1,.29.27l0,1a7.35,7.35,0,0,1,.82.07l.21-.94a.3.3,0,0,1,.28-.23h.06l.48.11a.29.29,0,0,1,.22.35l-.21.93c.27.09.53.18.78.29l.44-.85a.28.28,0,0,1,.25-.16.25.25,0,0,1,.14,0l.43.23a.28.28,0,0,1,.12.39L228,382a6.72,6.72,0,0,1,.67.48l.65-.71a.3.3,0,0,1,.41,0l.36.34a.3.3,0,0,1,0,.41l-.65.71a6.67,6.67,0,0,1,.53.64l.81-.52a.26.26,0,0,1,.15,0,.27.27,0,0,1,.24.13l.27.42a.3.3,0,0,1-.09.4l-.81.51c.13.25.24.5.35.76l.91-.29h.08a.29.29,0,0,1,.28.2l.15.48a.3.3,0,0,1-.19.36l-.91.29c.06.26.1.54.14.81l.95,0h0a.3.3,0,0,1,.29.28l0,.5a.29.29,0,0,1-.27.3l-1,0a7.74,7.74,0,0,1-.07.83l.93.21a.29.29,0,0,1,.22.34l-.11.49a.29.29,0,0,1-.28.22H232l-.94-.21a7.25,7.25,0,0,1-.28.78l.85.44a.3.3,0,0,1,.12.4l-.23.44a.3.3,0,0,1-.26.15.31.31,0,0,1-.13,0l-.84-.45a8.29,8.29,0,0,1-.48.68l.7.65a.29.29,0,0,1,0,.41l-.33.37a.3.3,0,0,1-.21.09.27.27,0,0,1-.2-.08l-.7-.65a6.31,6.31,0,0,1-.63.53l.51.82a.3.3,0,0,1-.09.4l-.42.26a.3.3,0,0,1-.15.05.31.31,0,0,1-.25-.13l-.5-.82c-.25.13-.5.25-.75.35l.28.92a.29.29,0,0,1-.19.36l-.47.15h-.08a.28.28,0,0,1-.28-.2l-.28-.92a7.39,7.39,0,0,1-.82.14l0,1a.28.28,0,0,1-.27.3l-.49,0h0a.28.28,0,0,1-.28-.28l0-1a7.34,7.34,0,0,1-.82-.08l-.21.94a.29.29,0,0,1-.28.23h-.06l-.49-.1a.29.29,0,0,1-.21-.35l.21-.94a6.58,6.58,0,0,1-.78-.29l-.44.86a.28.28,0,0,1-.26.15.31.31,0,0,1-.13,0l-.44-.23a.3.3,0,0,1-.12-.39l.45-.86a5.23,5.23,0,0,1-.68-.48l-.64.71a.28.28,0,0,1-.22.1.27.27,0,0,1-.19-.08l-.36-.33a.29.29,0,0,1,0-.41l.65-.71a7.81,7.81,0,0,1-.53-.64l-.81.51a.23.23,0,0,1-.15.05.28.28,0,0,1-.24-.13l-.27-.42a.3.3,0,0,1,.09-.4l.8-.52c-.12-.24-.24-.49-.34-.75l-.91.28-.09,0a.29.29,0,0,1-.27-.21l-.15-.47a.28.28,0,0,1,.19-.36l.91-.29A7.39,7.39,0,0,1,217,389l-1,0h0a.28.28,0,0,1-.28-.28l0-.49A.29.29,0,0,1,216,388l1,0a7.56,7.56,0,0,1,.07-.82l-.93-.21a.3.3,0,0,1-.22-.35l.11-.48a.29.29,0,0,1,.28-.23h.06l.93.21c.08-.27.18-.53.28-.78l-.84-.45a.29.29,0,0,1-.12-.39l.23-.44a.28.28,0,0,1,.25-.16.37.37,0,0,1,.14,0l.84.44a8.12,8.12,0,0,1,.48-.67l-.71-.66a.3.3,0,0,1,0-.41l.33-.36a.3.3,0,0,1,.21-.1.32.32,0,0,1,.2.08l.7.65a6.31,6.31,0,0,1,.63-.53l-.51-.81a.29.29,0,0,1,.09-.4l.42-.27a.26.26,0,0,1,.15,0,.27.27,0,0,1,.24.13l.51.81c.24-.13.49-.24.75-.35l-.28-.91a.29.29,0,0,1,.18-.37l.48-.15h.08a.28.28,0,0,1,.27.2l.29.92a7.62,7.62,0,0,1,.81-.14l0-1a.29.29,0,0,1,.28-.3l.49,0h0m.09,13.94h.23a5.42,5.42,0,0,0-.22-10.84h-.23a5.42,5.42,0,0,0,.22,10.83m-.09-14.71h0l-.49,0a1,1,0,0,0-.88.54,1.08,1.08,0,0,0-.7-.26,1.13,1.13,0,0,0-.32.05l-.47.15a1.05,1.05,0,0,0-.7.75,1.1,1.1,0,0,0-.47-.1,1,1,0,0,0-.57.16l-.41.27a1,1,0,0,0-.49.91l-.21,0a1.07,1.07,0,0,0-.78.35l-.33.36a1.07,1.07,0,0,0-.24,1,1,1,0,0,0-.86.56l-.23.44a1.09,1.09,0,0,0,0,1.05,1,1,0,0,0-.69.77l-.11.48a1.07,1.07,0,0,0,.3,1,1,1,0,0,0-.47.93l0,.49a1,1,0,0,0,.55.89,1.07,1.07,0,0,0-.23,1l.15.47a1.39,1.39,0,0,1,.81,1.75l.26.43a1.06,1.06,0,0,0,.9.49h0a1.07,1.07,0,0,0,.32,1l.37.34a1,1,0,0,0,.71.28,1.35,1.35,0,0,0,.29,0,1.07,1.07,0,0,0,.57.87l.43.23a1,1,0,0,0,.49.12.84.84,0,0,1,1.31.54l.49.11a.85.85,0,0,0,.23,0,1.07,1.07,0,0,0,.76-.32,1,1,0,0,0,.87.47l.54,0a1.07,1.07,0,0,0,.88-.55,1,1,0,0,0,.7.26.89.89,0,0,0,.32-.05l.46-.14a.78.78,0,0,1,1.18-.65,1,1,0,0,0,.56-.17l.42-.26a1.07,1.07,0,0,0,.49-.92l.21,0a1.07,1.07,0,0,0,.78-.35l.33-.36a1.39,1.39,0,0,1,1.1-1.58l.23-.44a1.42,1.42,0,0,1,.66-1.82l.11-.48a1.4,1.4,0,0,1,.17-1.92l0-.5a1.07,1.07,0,0,0-.55-.89,1,1,0,0,0,.22-1l-.15-.48a1.05,1.05,0,0,0-.75-.71,1.07,1.07,0,0,0-.05-1l-.27-.42a1,1,0,0,0-.89-.49h0a1.09,1.09,0,0,0-.31-1l-.37-.34a1,1,0,0,0-.72-.28,1,1,0,0,0-.29,0,1,1,0,0,0-.56-.87l-.43-.23a1,1,0,0,0-1,0,1.06,1.06,0,0,0-.76-.69l-.49-.11a.85.85,0,0,0-.23,0,1,1,0,0,0-.76.32,1.05,1.05,0,0,0-.88-.46Zm.09,13.94a4.65,4.65,0,0,1-.19-9.29h.2a4.65,4.65,0,0,1,.18,9.3Z" />
  <path class="GUNDAN_CAT_JEWELRY_CAT_JEWELLERY_12_cls-5" d="M224.14,392.88a4.68,4.68,0,0,1-.19-9.35h.2a4.68,4.68,0,0,1,.19,9.36Zm.1-2.39a.52.52,0,0,0-.49.54.51.51,0,0,0,.51.49.52.52,0,0,0,.51-.54.51.51,0,0,0-.51-.49v-.39Zm-2.9-2.69a.52.52,0,0,0-.49.54.52.52,0,0,0,.51.5.52.52,0,0,0,0-1v-.38Zm5.56-.23a.52.52,0,1,0,.53.5.51.51,0,0,0-.51-.5v-.39ZM224,384.88a.52.52,0,0,0-.49.54.51.51,0,0,0,.51.5.52.52,0,0,0,.51-.54.52.52,0,0,0-.51-.5v-.38Z" />
  <path d="M224.15,383.91a4.29,4.29,0,0,1,.17,8.58h-.18a4.3,4.3,0,0,1-.17-8.59h.18M224,386.3h0a.9.9,0,0,0,0-1.8h0a.9.9,0,0,0,0,1.8m2.89,2.69h0a.91.91,0,0,0,0-1.81h0a.91.91,0,0,0-.86.94.89.89,0,0,0,.89.87m-5.56.23h0a.9.9,0,0,0,0-1.8h0a.9.9,0,0,0,0,1.8m2.9,2.69h0a.91.91,0,0,0,0-1.81h0a.91.91,0,0,0,0,1.81m-.11-8.77h-.22a5.07,5.07,0,0,0,.21,10.13h.21a5.06,5.06,0,0,0-.2-10.12Z" />
</svg>