<svg id="Jewellry" xmlns="http://www.w3.org/2000/svg" viewBox="0 0 432 432">
  <defs>
    <style>.GUNDAN_CAT_JEWELRY_CAT_JEWELLERY_8_cls-1{fill:#facf56;}.GUNDAN_CAT_JEWELRY_CAT_JEWELLERY_8_cls-2{fill:none;stroke:#000;stroke-linecap:round;stroke-linejoin:round;}</style>
  </defs>
  <path class="GUNDAN_CAT_JEWELRY_CAT_JEWELLERY_8_cls-1" d="M321.41,145.9l0,.12a12,12,0,0,1-5.2,4.19l-.13,0c-.14.07-.3.12-.45.18l-.44.16-.29.09-.43.13a12.21,12.21,0,0,1-15-8.58,12,12,0,0,1-.44-3.23,12.16,12.16,0,0,1,.83-4.41,12.48,12.48,0,0,1,7.35-7.1,12.1,12.1,0,0,1,4.55-.74,6.94,6.94,0,0,1,.3,3.13L312,130a9,9,0,0,0-9.41,7.74,8.72,8.72,0,0,0,.45,4.35,9,9,0,0,0,11.55,5.35l.14,0,.44-.2a.34.34,0,0,0,.17-.08,8.6,8.6,0,0,0,1.93-1.3,9,9,0,0,0,2.74-9.12,8.84,8.84,0,0,0-1.31-2.83s0,0,0-.11v0l1.1-3.52a12.2,12.2,0,0,1,3.35,5.62,12.73,12.73,0,0,1,.32,1.61c0,.27.06.53.08.8A12.27,12.27,0,0,1,321.41,145.9Z" />
  <path class="GUNDAN_CAT_JEWELRY_CAT_JEWELLERY_8_cls-2" d="M321.45,146a12,12,0,0,1-5.2,4.19l-.13,0c-.14.07-.3.12-.45.18l-.44.16-.29.09-.43.13a12.21,12.21,0,0,1-15-8.58,12,12,0,0,1-.44-3.23,12.16,12.16,0,0,1,.83-4.41,12.48,12.48,0,0,1,7.35-7.1,12.1,12.1,0,0,1,4.55-.74,6.94,6.94,0,0,1,.3,3.13L312,130a9,9,0,0,0-9.41,7.74,8.72,8.72,0,0,0,.45,4.35,9,9,0,0,0,11.55,5.35l.14,0,.44-.2a.34.34,0,0,0,.17-.08,8.6,8.6,0,0,0,1.93-1.3,9,9,0,0,0,2.74-9.12,8.84,8.84,0,0,0-1.31-2.83s0,0,0-.11v0l1.1-3.52a12.2,12.2,0,0,1,3.35,5.62,12.73,12.73,0,0,1,.32,1.61c0,.27.06.53.08.8A12.42,12.42,0,0,1,321.45,146Z" />
  <polyline class="GUNDAN_CAT_JEWELRY_CAT_JEWELLERY_8_cls-2" points="319.75 130.19 318.65 133.71 318.65 133.73" />
  <path class="GUNDAN_CAT_JEWELRY_CAT_JEWELLERY_8_cls-2" d="M311.49,132.16a8.93,8.93,0,0,0,.62-2.27,6.94,6.94,0,0,0-.3-3.13,5.08,5.08,0,0,0-.9-1.65" />
</svg>