<svg id="Jewellry" xmlns="http://www.w3.org/2000/svg" viewBox="0 0 432 432">
  <defs>
    <style>.GUNDAN_CAT_JEWELRY_CAT_JEWELLERY_1_cls-1{fill:#6d2316;stroke-width:2.91px;}.GUNDAN_CAT_JEWELRY_CAT_JEWELLERY_1_cls-1,.GUNDAN_CAT_JEWELRY_CAT_JEWELLERY_1_cls-3,.GUNDAN_CAT_JEWELRY_CAT_JEWELLERY_1_cls-4,.GUNDAN_CAT_JEWELRY_CAT_JEWELLERY_1_cls-6{stroke:#000;}.GUNDAN_CAT_JEWELRY_CAT_JEWELLERY_1_cls-1,.GUNDAN_CAT_JEWELRY_CAT_JEWELLERY_1_cls-3,.GUNDAN_CAT_JEWELRY_CAT_JEWELLERY_1_cls-4{stroke-linecap:round;stroke-linejoin:round;}.GUNDAN_CAT_JEWELRY_CAT_JEWELLERY_1_cls-2{fill:#e3a92b;}.GUNDAN_CAT_JEWELRY_CAT_JEWELLERY_1_cls-3,.GUNDAN_CAT_JEWELRY_CAT_JEWELLERY_1_cls-4{fill:none;}.GUNDAN_CAT_JEWELRY_CAT_JEWELLERY_1_cls-3{stroke-width:1.18px;}.GUNDAN_CAT_JEWELRY_CAT_JEWELLERY_1_cls-4{stroke-width:0.96px;}.GUNDAN_CAT_JEWELRY_CAT_JEWELLERY_1_cls-5{fill:#b9876e;}.GUNDAN_CAT_JEWELRY_CAT_JEWELLERY_1_cls-6{fill:#85432d;stroke-miterlimit:10;stroke-width:1.82px;}</style>
  </defs>
  <line class="GUNDAN_CAT_JEWELRY_CAT_JEWELLERY_1_cls-1" x1="226.05" y1="357.19" x2="226.15" y2="366.23" />
  <path class="GUNDAN_CAT_JEWELRY_CAT_JEWELLERY_1_cls-2" d="M209.1,386.49c7.69,2.76,11.47-2.05,11.47-2.05l-3,9.18S216.36,393,209.1,386.49Z" />
  <path class="GUNDAN_CAT_JEWELRY_CAT_JEWELLERY_1_cls-2" d="M227.28,403.92c17.19-10.81,25-25,24.94-34,0-4.2-1.65-7.25-4.85-9.05A13.05,13.05,0,0,0,241,359c-7.32,0-12,7.89-12,8l-.08.15-1.71,2.29-1,1.33-2.7-3.62-.09-.15c-.05-.08-4.64-8-12-8a13.09,13.09,0,0,0-6.41,1.86c-3.19,1.8-4.82,4.85-4.85,9.05,0,9.16,8.1,23.78,26.08,34.69C226.52,404.39,226.9,404.17,227.28,403.92Zm21.33-45.52c13.49,7.62,4.8,33.61-22.46,49.45C198.9,392,190.19,366,203.68,358.4s21.93,7.12,21.93,7.12l.54.71.53-.71S235.13,350.79,248.61,358.4Z" />
  <path class="GUNDAN_CAT_JEWELRY_CAT_JEWELLERY_1_cls-3" d="M248.61,358.4c-13.48-7.61-21.93,7.12-21.93,7.12l-.53.71-.54-.71s-8.43-14.73-21.93-7.12S198.9,392,226.15,407.85C253.41,392,262.1,366,248.61,358.4Z" />
  <path class="GUNDAN_CAT_JEWELRY_CAT_JEWELLERY_1_cls-3" d="M227.28,403.92c-.38.25-.76.47-1.13.71-18-10.91-26.13-25.53-26.08-34.69,0-4.2,1.66-7.25,4.85-9.05a13.09,13.09,0,0,1,6.41-1.86c7.39,0,12,7.88,12,8l.09.15,2.7,3.62,1-1.33,1.71-2.29.08-.15c0-.07,4.71-8,12-8a13.05,13.05,0,0,1,6.4,1.86c3.2,1.8,4.83,4.85,4.85,9.05C252.28,378.91,244.47,393.11,227.28,403.92Z" />
  <polyline class="GUNDAN_CAT_JEWELRY_CAT_JEWELLERY_1_cls-3" points="227.15 369.43 228.71 374.43 224.75 379.67 226.72 383.88 220.57 395.14 228.17 400.84 227.28 403.92" />
  <path class="GUNDAN_CAT_JEWELRY_CAT_JEWELLERY_1_cls-4" d="M220.57,384.44s-3.78,4.81-11.47,2.05c7.26,6.53,8.42,7.13,8.42,7.13Z" />
  <path class="GUNDAN_CAT_JEWELRY_CAT_JEWELLERY_1_cls-2" d="M212.69,377.27a3.59,3.59,0,1,1,3.39-3.59A3.5,3.5,0,0,1,212.69,377.27Z" />
  <path d="M212.68,370.46a3.23,3.23,0,1,1-3,3.22,3.12,3.12,0,0,1,3-3.22m0-.73a4,4,0,1,0,3.76,3.95,3.86,3.86,0,0,0-3.76-3.95Z" />
  <path class="GUNDAN_CAT_JEWELRY_CAT_JEWELLERY_1_cls-2" d="M212.69,377a3.36,3.36,0,1,1,3.17-3.36A3.27,3.27,0,0,1,212.69,377Z" />
  <path d="M212.68,370.69a3,3,0,1,1-2.81,3,2.91,2.91,0,0,1,2.81-3m0-.72a3.72,3.72,0,1,0,3.54,3.71,3.62,3.62,0,0,0-3.54-3.71Z" />
  <path class="GUNDAN_CAT_JEWELRY_CAT_JEWELLERY_1_cls-2" d="M211.82,384.81a8.48,8.48,0,0,1-1.11-.16.36.36,0,0,1-.28-.42l.22-1.22a8.55,8.55,0,0,1-1.24-.4l-.46,1.11a.38.38,0,0,1-.21.2l-.13,0-.15,0a9.64,9.64,0,0,1-1-.54.37.37,0,0,1-.13-.48l.58-1.08a10.35,10.35,0,0,1-1.06-.82l-.76.88a.38.38,0,0,1-.26.13h0a.36.36,0,0,1-.25-.11c-.27-.26-.53-.55-.78-.84a.37.37,0,0,1,0-.5l.88-.82a8.8,8.8,0,0,1-.76-1.15l-1,.57a.37.37,0,0,1-.18.05l-.1,0a.33.33,0,0,1-.22-.18,11.3,11.3,0,0,1-.48-1.07.35.35,0,0,1,.19-.46l1.07-.47a8.92,8.92,0,0,1-.37-1.37l-1.11.2h-.07a.39.39,0,0,1-.21-.06.41.41,0,0,1-.15-.24,11.5,11.5,0,0,1-.12-1.18.37.37,0,0,1,.34-.38l1.13-.07v-.22a9.93,9.93,0,0,1,.07-1.21l-1.12-.19a.37.37,0,0,1-.3-.42c.06-.38.14-.77.24-1.15a.36.36,0,0,1,.17-.23.39.39,0,0,1,.18,0h.1l1.09.32a9.17,9.17,0,0,1,.5-1.32l-1-.58a.36.36,0,0,1-.14-.48,9.12,9.12,0,0,1,.58-1,.34.34,0,0,1,.24-.16h.06a.44.44,0,0,1,.22.07l.92.68a10,10,0,0,1,.87-1.06l-.79-.91a.36.36,0,0,1,0-.5,10.24,10.24,0,0,1,.85-.76.4.4,0,0,1,.23-.08h.05a.33.33,0,0,1,.25.15l.67,1a8.75,8.75,0,0,1,1.13-.69l-.47-1.14a.36.36,0,0,1,.18-.47,10.28,10.28,0,0,1,1-.42.25.25,0,0,1,.12,0,.35.35,0,0,1,.17,0,.37.37,0,0,1,.18.22l.34,1.16a9.09,9.09,0,0,1,1.28-.27l-.1-1.23a.36.36,0,0,1,.33-.39,8.64,8.64,0,0,1,.88,0h.23a.37.37,0,0,1,.36.37l0,1.23a7.87,7.87,0,0,1,1.29.19l.28-1.19a.36.36,0,0,1,.16-.22.33.33,0,0,1,.19-.06l.09,0a8.35,8.35,0,0,1,1.07.35.35.35,0,0,1,.21.45l-.4,1.17a7.61,7.61,0,0,1,1.16.62l.62-1a.37.37,0,0,1,.24-.16h.07a.37.37,0,0,1,.21.06c.31.22.61.45.9.7a.36.36,0,0,1,0,.5l-.74,1a8.72,8.72,0,0,1,.92,1l.89-.74a.4.4,0,0,1,.23-.08h0a.37.37,0,0,1,.25.15,10.75,10.75,0,0,1,.63,1,.35.35,0,0,1-.11.48l-1,.66a9.22,9.22,0,0,1,.57,1.28l1.07-.4.12,0a.29.29,0,0,1,.16,0,.36.36,0,0,1,.19.21q.18.57.3,1.14a.37.37,0,0,1-.27.43l-1.11.27a11.4,11.4,0,0,1,.15,1.42h1.14a.36.36,0,0,1,.36.36,11.61,11.61,0,0,1-.06,1.2.38.38,0,0,1-.13.25.4.4,0,0,1-.23.08l-1.16-.13a10.73,10.73,0,0,1-.3,1.39l1.09.4a.36.36,0,0,1,.22.45c-.12.37-.26.74-.41,1.1a.36.36,0,0,1-.21.19.28.28,0,0,1-.13,0,.47.47,0,0,1-.16,0l-1-.51a8.89,8.89,0,0,1-.69,1.2l.92.77a.36.36,0,0,1,.06.49c-.23.31-.47.61-.73.9a.36.36,0,0,1-.26.11h0a.35.35,0,0,1-.26-.1l-.81-.84a10.54,10.54,0,0,1-1,.89l.64,1a.36.36,0,0,1-.1.49,9.74,9.74,0,0,1-1,.6.33.33,0,0,1-.17,0h-.11a.38.38,0,0,1-.22-.19l-.52-1.08a7.86,7.86,0,0,1-1.21.49l.28,1.2a.37.37,0,0,1-.26.44c-.36.09-.72.17-1.09.23h-.06a.47.47,0,0,1-.22-.07.44.44,0,0,1-.14-.25l-.16-1.21a7.13,7.13,0,0,1-.91.05h-.38l-.09,1.23a.44.44,0,0,1-.13.25.41.41,0,0,1-.24.08Zm.87-18.65a7.54,7.54,0,1,0,7,7.52A7.31,7.31,0,0,0,212.69,366.16Z" />
  <path d="M212.68,362.88h.23l0,1.58a8.25,8.25,0,0,1,1.93.28l.36-1.54a9.49,9.49,0,0,1,1,.33l-.52,1.49a8.54,8.54,0,0,1,1.74.93l.81-1.33c.3.21.59.44.87.68l-.94,1.23a9.05,9.05,0,0,1,1.36,1.47l1.17-1c.22.3.43.62.62.94l-1.27.84a9.45,9.45,0,0,1,.84,1.86l1.41-.51a10.52,10.52,0,0,1,.3,1.1l-1.46.35a9.9,9.9,0,0,1,.23,2.05h1.49v0a11.07,11.07,0,0,1-.06,1.15l-1.48-.17a10.35,10.35,0,0,1-.42,2l1.41.51a9.68,9.68,0,0,1-.41,1.06l-1.35-.67a9.25,9.25,0,0,1-1,1.76l1.18,1a9.82,9.82,0,0,1-.71.86l-1.08-1.1a8.43,8.43,0,0,1-1.49,1.31l.82,1.33a9,9,0,0,1-.93.58l-.68-1.41a8.25,8.25,0,0,1-1.82.73l.37,1.53a9.52,9.52,0,0,1-1.06.23l-.21-1.57a8.28,8.28,0,0,1-1.23.09l-.71,0-.12,1.58a9.65,9.65,0,0,1-1.06-.15l.27-1.56a8.06,8.06,0,0,1-1.85-.62l-.6,1.46a8.9,8.9,0,0,1-1-.52l.74-1.38a8.31,8.31,0,0,1-1.56-1.22l-1,1.17c-.26-.25-.51-.53-.75-.81l1.12-1.05a10.06,10.06,0,0,1-1.11-1.69l-1.31.75a9.5,9.5,0,0,1-.46-1l1.38-.61a9.33,9.33,0,0,1-.54-2l-1.47.26a10.74,10.74,0,0,1-.12-1.14l1.49-.09c0-.18,0-.37,0-.56a9.29,9.29,0,0,1,.12-1.5l-1.47-.26a10.59,10.59,0,0,1,.23-1.12l1.44.42a9.52,9.52,0,0,1,.72-1.91l-1.31-.76c.17-.33.36-.66.56-1l1.23.9a9.69,9.69,0,0,1,1.27-1.57l-1-1.16a8.18,8.18,0,0,1,.83-.73l.89,1.27a8.78,8.78,0,0,1,1.67-1l-.6-1.45a9.71,9.71,0,0,1,1-.41l.45,1.51a8.65,8.65,0,0,1,1.91-.4l-.13-1.58c.28,0,.57,0,.85,0m0,18.69a7.9,7.9,0,1,0-7.41-7.89,7.68,7.68,0,0,0,7.41,7.89m0-19.41c-.3,0-.61,0-.91,0a.72.72,0,0,0-.66.78l.07.89-.64.13-.24-.82a.72.72,0,0,0-.37-.43.66.66,0,0,0-.33-.09.85.85,0,0,0-.23,0,11.29,11.29,0,0,0-1.09.44.73.73,0,0,0-.36.94l.35.83c-.2.11-.39.23-.58.36l-.47-.67a.73.73,0,0,0-.49-.3h-.1a.67.67,0,0,0-.45.16,9.37,9.37,0,0,0-.89.78.73.73,0,0,0,0,1l.58.67c-.16.18-.31.37-.46.56l-.63-.46a.71.71,0,0,0-.43-.14h-.13a.73.73,0,0,0-.48.32c-.21.34-.42.69-.6,1a.73.73,0,0,0,.29,1l.73.43c-.1.23-.19.47-.27.71l-.74-.22a.76.76,0,0,0-.21,0,.68.68,0,0,0-.36.1.71.71,0,0,0-.34.45,9.68,9.68,0,0,0-.25,1.19.73.73,0,0,0,.59.83l.8.13a7.09,7.09,0,0,0,0,.79l-.79.05a.72.72,0,0,0-.68.76,11.8,11.8,0,0,0,.12,1.21.75.75,0,0,0,.72.62h.13l.77-.14a6.93,6.93,0,0,0,.2.75l-.76.33a.73.73,0,0,0-.39.93,9.92,9.92,0,0,0,.49,1.1.73.73,0,0,0,.44.37.76.76,0,0,0,.21,0,.65.65,0,0,0,.36-.1l.68-.39c.13.21.26.42.41.62l-.64.6a.73.73,0,0,0-.07,1,9.48,9.48,0,0,0,.81.87.67.67,0,0,0,.5.21h0a.72.72,0,0,0,.52-.25l.53-.61c.18.15.36.29.55.42l-.43.8a.72.72,0,0,0,.26,1,11.48,11.48,0,0,0,1,.56.87.87,0,0,0,.31.07.86.86,0,0,0,.27-.05.75.75,0,0,0,.4-.4l.33-.78.62.2-.16.89a.73.73,0,0,0,.57.84,11.35,11.35,0,0,0,1.15.16h.06a.74.74,0,0,0,.47-.18.72.72,0,0,0,.26-.5l.06-.87h0l.61,0,.11.86a.72.72,0,0,0,.72.63h.11a11,11,0,0,0,1.14-.24.73.73,0,0,0,.52-.87l-.21-.88.61-.25.36.76a.77.77,0,0,0,.44.37.54.54,0,0,0,.22,0,.73.73,0,0,0,.35-.09c.34-.19.67-.4,1-.62a.74.74,0,0,0,.2-1l-.47-.76.52-.46.56.57a.73.73,0,0,0,.52.22h0a.77.77,0,0,0,.53-.24,11.13,11.13,0,0,0,.75-.92.72.72,0,0,0-.12-1l-.67-.56c.13-.21.26-.42.37-.64l.7.34a.72.72,0,0,0,.32.08.69.69,0,0,0,.25,0,.73.73,0,0,0,.42-.39,11.13,11.13,0,0,0,.43-1.14.72.72,0,0,0-.44-.9l-.78-.29c.06-.25.12-.5.16-.76l.78.09h.08a.71.71,0,0,0,.72-.65c0-.4.06-.81.06-1.22a.73.73,0,0,0-.72-.74h-.79q0-.39-.09-.78l.79-.2a.73.73,0,0,0,.54-.86,11.91,11.91,0,0,0-.32-1.17.71.71,0,0,0-.69-.5.73.73,0,0,0-.25,0l-.73.27c-.09-.23-.2-.46-.31-.69l.71-.47a.75.75,0,0,0,.23-1c-.2-.34-.43-.68-.66-1a.76.76,0,0,0-.5-.29h-.09a.7.7,0,0,0-.46.16l-.61.51c-.15-.18-.32-.36-.48-.52l.54-.71a.73.73,0,0,0-.1-1c-.3-.26-.61-.5-.93-.73a.8.8,0,0,0-.42-.13l-.15,0a.75.75,0,0,0-.47.33l-.43.7a6.63,6.63,0,0,0-.59-.31l.3-.86a.73.73,0,0,0-.43-.91,10.93,10.93,0,0,0-1.1-.37l-.19,0a.69.69,0,0,0-.37.1.76.76,0,0,0-.34.46l-.2.84c-.21,0-.42-.07-.64-.09l0-.89a.73.73,0,0,0-.71-.74Zm0,18.68a7.17,7.17,0,1,1,6.69-7.16,6.94,6.94,0,0,1-6.69,7.16Z" />
  <path class="GUNDAN_CAT_JEWELRY_CAT_JEWELLERY_1_cls-5" d="M242.65,371.17a2.23,2.23,0,1,1,2.11-2.23A2.17,2.17,0,0,1,242.65,371.17Z" />
  <path d="M242.66,366.9a2,2,0,1,1-1.92,2,2,2,0,0,1,1.92-2m0-.38a2.42,2.42,0,1,0,2.29,2.42,2.36,2.36,0,0,0-2.29-2.42Z" />
  <path class="GUNDAN_CAT_JEWELRY_CAT_JEWELLERY_1_cls-5" d="M242.22,375.67l-.43,0a.2.2,0,0,1-.16-.21l.06-.43a5.38,5.38,0,0,1-.79-.2l-.13.39a.17.17,0,0,1-.09.11.15.15,0,0,1-.09,0h-.06l-.41-.17a.18.18,0,0,1-.09-.24l.16-.4a5.09,5.09,0,0,1-.71-.42l-.22.34a.22.22,0,0,1-.13.08h0a.15.15,0,0,1-.11,0c-.12-.09-.24-.18-.35-.28a.2.2,0,0,1,0-.26l.25-.33a5.58,5.58,0,0,1-.58-.61l-.29.26a.28.28,0,0,1-.13,0h0a.17.17,0,0,1-.13-.07c-.09-.12-.18-.24-.26-.37a.2.2,0,0,1,0-.26l.32-.24a6.15,6.15,0,0,1-.4-.76l-.35.16-.08,0-.07,0a.18.18,0,0,1-.11-.1c0-.14-.11-.28-.15-.43a.18.18,0,0,1,.11-.24l.37-.14a8.08,8.08,0,0,1-.2-.85l-.4.06a.21.21,0,0,1-.12,0,.17.17,0,0,1-.07-.13c0-.15,0-.3-.05-.45a.21.21,0,0,1,.18-.21l.38,0v-.24c0-.22,0-.43,0-.65l-.38-.05a.19.19,0,0,1-.17-.21c0-.15.05-.3.08-.45a.22.22,0,0,1,.08-.13.19.19,0,0,1,.1,0h0l.37.08a5.85,5.85,0,0,1,.26-.84l-.37-.17a.18.18,0,0,1-.09-.24l.18-.42a.29.29,0,0,1,.12-.1h0a.16.16,0,0,1,.1,0l.33.19a7.66,7.66,0,0,1,.45-.74l-.31-.26a.2.2,0,0,1,0-.26c.09-.12.18-.24.28-.35a.21.21,0,0,1,.14-.07h0a.2.2,0,0,1,.14.06l.28.28a4.68,4.68,0,0,1,.61-.57l-.24-.35a.2.2,0,0,1,0-.26l.36-.25a.19.19,0,0,1,.1,0h.05a.22.22,0,0,1,.12.09l.2.35a6.24,6.24,0,0,1,.73-.37l-.14-.4a.2.2,0,0,1,.11-.24l.42-.14h0a.14.14,0,0,1,.09,0,.14.14,0,0,1,.09.11l.11.4a6.86,6.86,0,0,1,.79-.14l0-.43a.2.2,0,0,1,.18-.2h.43a.18.18,0,0,1,.19.19v.41a5.29,5.29,0,0,1,.8.09l.08-.41a.2.2,0,0,1,.08-.12.2.2,0,0,1,.11,0h0l.42.11a.19.19,0,0,1,.13.23l-.11.42a4.93,4.93,0,0,1,.75.31l.18-.37a.18.18,0,0,1,.11-.1h.06l.09,0c.13.07.26.14.38.22a.21.21,0,0,1,.07.26l-.22.37a5.49,5.49,0,0,1,.65.52l.26-.3a.27.27,0,0,1,.14-.07h0a.18.18,0,0,1,.13.06c.11.1.21.21.31.32a.2.2,0,0,1,0,.26l-.3.3a5.78,5.78,0,0,1,.5.69l.32-.21a.23.23,0,0,1,.11,0h0a.19.19,0,0,1,.12.09c.08.13.15.27.22.4a.19.19,0,0,1-.08.25l-.36.2a7.14,7.14,0,0,1,.31.81l.37-.11h.05a.14.14,0,0,1,.09,0,.14.14,0,0,1,.09.11c0,.15.08.3.11.45a.19.19,0,0,1-.15.22l-.38.09a6.25,6.25,0,0,1,.09.87h.38a.2.2,0,0,1,.14.06.19.19,0,0,1,0,.13c0,.17,0,.32,0,.48a.24.24,0,0,1-.07.13.17.17,0,0,1-.12,0l-.4,0a7.9,7.9,0,0,1-.14.87l.38.12a.18.18,0,0,1,.13.23c0,.14-.08.29-.13.43a.18.18,0,0,1-.1.11.12.12,0,0,1-.08,0h-.07l-.36-.14a5.63,5.63,0,0,1-.36.79l.35.23a.19.19,0,0,1,.06.25l-.24.39a.2.2,0,0,1-.12.08h0a.15.15,0,0,1-.11,0l-.31-.23a6.65,6.65,0,0,1-.54.65l.28.32a.2.2,0,0,1,0,.26l-.33.3a.18.18,0,0,1-.12.05h0a.17.17,0,0,1-.13-.07l-.24-.31a6.32,6.32,0,0,1-.68.47l.18.38a.19.19,0,0,1-.07.25l-.4.2-.08,0-.06,0a.18.18,0,0,1-.11-.1l-.16-.38a5.69,5.69,0,0,1-.76.26l.08.42a.19.19,0,0,1-.15.22l-.43.07h0a.28.28,0,0,1-.12,0,.21.21,0,0,1-.07-.13l-.05-.42a4.08,4.08,0,0,1-.61,0h-.2l0,.42a.24.24,0,0,1-.07.13.17.17,0,0,1-.12,0Zm.43-11.48a4.75,4.75,0,1,0,4.45,4.75A4.61,4.61,0,0,0,242.65,364.19Z" />
  <path d="M242.64,362.38v.6h0a5.19,5.19,0,0,1,1.12.12l.12-.59.41.1-.16.59a5,5,0,0,1,1.07.45l.26-.55.37.22-.3.53a5.82,5.82,0,0,1,.91.73l.4-.45c.1.1.2.21.29.32l-.42.42a5.71,5.71,0,0,1,.7,1l.49-.32.21.38-.51.29a6.59,6.59,0,0,1,.42,1.13l.55-.17c0,.14.07.29.1.44l-.56.12a6.06,6.06,0,0,1,.12,1.21h.57v0c0,.15,0,.3,0,.44l-.58,0a5.78,5.78,0,0,1-.19,1.2l.56.17c0,.14-.09.28-.13.42l-.54-.2a6.08,6.08,0,0,1-.5,1.1l.49.32-.23.37-.47-.35a5.5,5.5,0,0,1-.75.91l.39.45-.31.3-.36-.48a5.7,5.7,0,0,1-1,.67l.26.54-.38.2-.22-.56a5.19,5.19,0,0,1-1.09.37l.11.59-.41.08-.08-.61a4.77,4.77,0,0,1-.76.06l-.38,0,0,.61-.42,0,.08-.61a5,5,0,0,1-1.11-.28l-.2.57-.39-.16.23-.56a5.64,5.64,0,0,1-1-.6l-.33.5-.33-.27.36-.47a6,6,0,0,1-.81-.86l-.45.38-.25-.35.47-.36a6.32,6.32,0,0,1-.57-1.06l-.52.25c-.06-.14-.11-.28-.16-.42l.55-.2a6.65,6.65,0,0,1-.28-1.19l-.56.09c0-.15,0-.3-.05-.45l.58,0c0-.14,0-.27,0-.41a7.19,7.19,0,0,1,.05-.81l-.57-.08c0-.15.05-.29.07-.44l.56.12a6.48,6.48,0,0,1,.35-1.16l-.53-.24.18-.41.51.29a5.82,5.82,0,0,1,.63-1l-.44-.39.27-.34.42.42a6.52,6.52,0,0,1,.86-.8l-.33-.5.35-.25.3.53a5.9,5.9,0,0,1,1-.53l-.19-.57.4-.14.16.59a5.16,5.16,0,0,1,1.12-.21l0-.61h.42m0,11.49a4.94,4.94,0,1,0-4.64-4.93,4.79,4.79,0,0,0,4.64,4.93m0-11.87h-.44a.4.4,0,0,0-.36.41l0,.24a3.58,3.58,0,0,0-.45.09l-.06-.23a.38.38,0,0,0-.18-.23.45.45,0,0,0-.19-.05l-.11,0-.43.14a.38.38,0,0,0-.22.48l.08.24-.42.21-.11-.18a.36.36,0,0,0-.24-.18h-.09a.36.36,0,0,0-.2.06l-.38.26a.37.37,0,0,0-.08.51l.14.21-.37.34-.14-.14a.35.35,0,0,0-.27-.11h0a.38.38,0,0,0-.27.12l-.29.36a.38.38,0,0,0,.05.52l.18.16c-.09.14-.19.29-.27.44l-.17-.1a.41.41,0,0,0-.19,0h-.11a.45.45,0,0,0-.23.2c-.06.14-.13.28-.19.43a.38.38,0,0,0,.2.48l.2.1c-.06.17-.11.34-.16.51l-.19,0h-.08a.36.36,0,0,0-.2.06.39.39,0,0,0-.17.25c0,.15-.05.31-.07.47a.38.38,0,0,0,.32.42l.21,0a3.93,3.93,0,0,0,0,.48V369h-.21a.4.4,0,0,0-.35.41c0,.15,0,.31,0,.47a.37.37,0,0,0,.15.25.36.36,0,0,0,.23.08h0l.2,0a4.54,4.54,0,0,0,.12.53l-.21.08a.37.37,0,0,0-.22.47c0,.15.1.3.16.44a.36.36,0,0,0,.21.21.35.35,0,0,0,.14,0,.32.32,0,0,0,.16,0l.18-.08a4,4,0,0,0,.24.46l-.19.14a.39.39,0,0,0-.09.52l.27.37a.37.37,0,0,0,.27.15h0a.38.38,0,0,0,.25-.09l.15-.13c.11.12.23.25.35.36l-.16.2a.39.39,0,0,0,.06.52c.11.1.23.19.35.28a.4.4,0,0,0,.23.08h.07a.35.35,0,0,0,.25-.16l.11-.18a4.64,4.64,0,0,0,.42.25l-.1.24a.37.37,0,0,0,.19.48l.42.18.13,0a.47.47,0,0,0,.17,0,.39.39,0,0,0,.19-.23L241,375l.45.11,0,.25a.38.38,0,0,0,.33.42,3.12,3.12,0,0,0,.44.05h0a.38.38,0,0,0,.25-.09.43.43,0,0,0,.13-.26v-.24h0a3.17,3.17,0,0,0,.43,0l0,.24a.41.41,0,0,0,.15.25.4.4,0,0,0,.23.08h.05l.44-.08a.37.37,0,0,0,.29-.44l0-.24.44-.15.08.2a.38.38,0,0,0,.22.21.3.3,0,0,0,.13,0,.41.41,0,0,0,.16,0,3.17,3.17,0,0,0,.41-.21.38.38,0,0,0,.16-.49l-.12-.23.4-.28.13.17a.38.38,0,0,0,.26.14h0a.39.39,0,0,0,.25-.1l.33-.31a.38.38,0,0,0,0-.52l-.17-.19a4.24,4.24,0,0,0,.33-.39l.16.12a.35.35,0,0,0,.22.08h.07a.35.35,0,0,0,.25-.16c.08-.13.17-.26.24-.39a.38.38,0,0,0-.12-.51l-.2-.13c.08-.16.15-.32.22-.48l.18.07.14,0a.36.36,0,0,0,.36-.26c0-.14.09-.3.13-.45a.38.38,0,0,0-.26-.46l-.21-.06a4.89,4.89,0,0,0,.09-.53h.23a.38.38,0,0,0,.25-.09.43.43,0,0,0,.13-.26c0-.16,0-.32,0-.47a.41.41,0,0,0-.11-.28.4.4,0,0,0-.27-.12h-.2c0-.18,0-.36-.05-.54l.2,0a.39.39,0,0,0,.29-.45c0-.15-.06-.3-.1-.46a.38.38,0,0,0-.18-.23.45.45,0,0,0-.19-.05l-.11,0-.19,0a4.84,4.84,0,0,0-.18-.49l.2-.11a.39.39,0,0,0,.16-.5l-.22-.41a.39.39,0,0,0-.24-.18h-.09a.39.39,0,0,0-.21.06l-.17.11c-.09-.15-.19-.28-.29-.42l.17-.17a.38.38,0,0,0,0-.52c-.1-.12-.21-.23-.32-.34a.36.36,0,0,0-.26-.11h0a.41.41,0,0,0-.27.13l-.14.16c-.12-.11-.25-.21-.38-.31l.13-.22a.39.39,0,0,0-.12-.51c-.13-.08-.26-.16-.4-.23a.35.35,0,0,0-.18,0l-.11,0a.38.38,0,0,0-.23.2l-.09.19-.44-.18.06-.24a.37.37,0,0,0-.26-.46l-.43-.11h-.08a.37.37,0,0,0-.21.06.35.35,0,0,0-.16.25l-.05.22-.46-.05v-.24a.36.36,0,0,0-.11-.26.39.39,0,0,0-.27-.11Zm0,11.49a4.57,4.57,0,1,1,4.25-4.55,4.42,4.42,0,0,1-4.25,4.55Z" />
  <path class="GUNDAN_CAT_JEWELRY_CAT_JEWELLERY_1_cls-5" d="M235.19,381.75a2.23,2.23,0,1,1,2.11-2.23A2.17,2.17,0,0,1,235.19,381.75Z" />
  <path d="M235.19,377.48a2,2,0,1,1-1.91,2,2,2,0,0,1,1.91-2m0-.38a2.42,2.42,0,1,0,2.3,2.42,2.36,2.36,0,0,0-2.3-2.42Z" />
  <path class="GUNDAN_CAT_JEWELRY_CAT_JEWELLERY_1_cls-5" d="M234.76,386.26l-.43-.05a.19.19,0,0,1-.16-.21l.06-.42a7,7,0,0,1-.79-.2l-.13.39a.16.16,0,0,1-.1.11l-.08,0h-.06l-.41-.17a.21.21,0,0,1-.1-.25l.17-.39a5.75,5.75,0,0,1-.71-.42l-.22.33a.22.22,0,0,1-.13.08h0a.2.2,0,0,1-.11,0l-.35-.28a.19.19,0,0,1,0-.26l.26-.33a5.67,5.67,0,0,1-.58-.62l-.29.26a.21.21,0,0,1-.13.05h0a.22.22,0,0,1-.13-.08l-.26-.36a.2.2,0,0,1,0-.26l.33-.25a5.51,5.51,0,0,1-.4-.76l-.35.16a.12.12,0,0,1-.08,0h-.07a.2.2,0,0,1-.11-.11l-.16-.42a.19.19,0,0,1,.12-.24l.37-.14a8.26,8.26,0,0,1-.2-.86l-.41.06a.15.15,0,0,1-.11,0,.15.15,0,0,1-.07-.12c0-.16,0-.31-.05-.46a.2.2,0,0,1,.18-.2l.38,0v-.24c0-.22,0-.43,0-.64l-.38-.05a.2.2,0,0,1-.17-.22c0-.15.05-.3.08-.45a.2.2,0,0,1,.08-.12.19.19,0,0,1,.1,0h0l.37.08a6.75,6.75,0,0,1,.26-.84l-.37-.16a.2.2,0,0,1-.09-.25c0-.14.12-.28.18-.41a.17.17,0,0,1,.12-.1h.05l.09,0,.34.19a7.49,7.49,0,0,1,.45-.73l-.31-.27a.19.19,0,0,1,0-.26l.28-.35a.16.16,0,0,1,.13-.06h0a.19.19,0,0,1,.13.05l.29.28a6.63,6.63,0,0,1,.61-.57l-.24-.35a.2.2,0,0,1,.05-.26l.36-.25a.17.17,0,0,1,.1,0h0a.18.18,0,0,1,.13.09l.2.35a5,5,0,0,1,.73-.37l-.14-.41a.2.2,0,0,1,.11-.24l.42-.14h.05a.15.15,0,0,1,.09,0,.18.18,0,0,1,.09.12l.11.4a5.24,5.24,0,0,1,.79-.15l0-.42a.19.19,0,0,1,.18-.2l.43,0a.19.19,0,0,1,.19.19v.42a6.77,6.77,0,0,1,.8.08l.08-.4a.22.22,0,0,1,.08-.13.2.2,0,0,1,.11,0h0l.42.11a.19.19,0,0,1,.13.23l-.11.41a6.21,6.21,0,0,1,.75.31l.18-.36a.16.16,0,0,1,.11-.1H238l.09,0,.38.23a.18.18,0,0,1,.06.25l-.21.37a6.73,6.73,0,0,1,.65.52l.26-.3a.2.2,0,0,1,.14-.06h0a.24.24,0,0,1,.13.05c.1.11.21.22.3.33a.19.19,0,0,1,0,.26l-.3.29a6.72,6.72,0,0,1,.5.69l.32-.21a.23.23,0,0,1,.11,0h0a.16.16,0,0,1,.12.09,3,3,0,0,1,.21.4.19.19,0,0,1-.07.25l-.36.19a6.63,6.63,0,0,1,.31.82l.37-.12h0a.15.15,0,0,1,.09,0,.18.18,0,0,1,.09.12c0,.14.08.3.11.44a.2.2,0,0,1-.15.23l-.38.08a6.4,6.4,0,0,1,.09.88h.38a.15.15,0,0,1,.13.05.18.18,0,0,1,.06.13c0,.17,0,.33,0,.48a.21.21,0,0,1-.07.13.18.18,0,0,1-.12.05l-.4,0a7.9,7.9,0,0,1-.14.87l.38.11a.19.19,0,0,1,.13.23c0,.15-.09.29-.13.44a.18.18,0,0,1-.1.11l-.08,0h-.07l-.36-.14a6.2,6.2,0,0,1-.36.79l.35.22a.2.2,0,0,1,.06.26l-.24.38a.2.2,0,0,1-.12.08h0a.21.21,0,0,1-.11,0l-.31-.24q-.26.34-.54.66l.28.31a.2.2,0,0,1,0,.26q-.16.17-.33.3a.18.18,0,0,1-.12.05h0a.21.21,0,0,1-.13-.07l-.25-.32a5.35,5.35,0,0,1-.67.47l.18.38a.19.19,0,0,1-.07.25l-.4.2-.08,0h-.07a.22.22,0,0,1-.1-.11l-.16-.38a5.29,5.29,0,0,1-.76.27l.08.41a.19.19,0,0,1-.15.22l-.43.08h0a.17.17,0,0,1-.12,0,.15.15,0,0,1-.07-.12l0-.42a6,6,0,0,1-.61,0H235l0,.42a.21.21,0,0,1-.07.13.18.18,0,0,1-.12.05Zm.43-11.48a4.75,4.75,0,1,0,4.45,4.74A4.6,4.6,0,0,0,235.19,374.78Z" />
  <path d="M235.18,373v.6h0a5.22,5.22,0,0,1,1.13.13l.12-.6.41.11-.16.59a5.87,5.87,0,0,1,1.07.44l.26-.54.37.22-.3.52a5.36,5.36,0,0,1,.91.74l.39-.45c.11.1.21.21.3.31l-.42.42a6.14,6.14,0,0,1,.7,1l.49-.32c.07.13.14.26.2.39l-.5.28a7.28,7.28,0,0,1,.42,1.13l.55-.16c0,.14.07.29.1.43l-.56.13a6,6,0,0,1,.12,1.21h.57v0c0,.15,0,.3,0,.45l-.58,0a6,6,0,0,1-.19,1.2l.55.16c0,.14-.08.29-.12.43l-.55-.21a5.19,5.19,0,0,1-.49,1.1l.49.32c-.07.13-.15.25-.23.38l-.47-.36a5.58,5.58,0,0,1-.75.92l.39.45-.31.29-.36-.47a5.7,5.7,0,0,1-1,.67l.26.54-.38.19-.22-.56a5.19,5.19,0,0,1-1.09.37l.11.6L236,386l-.08-.6a6.48,6.48,0,0,1-.77.06l-.37,0,0,.61-.42-.05.08-.6a5,5,0,0,1-1.11-.29l-.2.58-.39-.17L233,385a6.31,6.31,0,0,1-1-.6l-.33.5-.34-.28.37-.47a5.09,5.09,0,0,1-.81-.86l-.45.39-.25-.36.47-.35a6.74,6.74,0,0,1-.57-1.06l-.52.24c-.06-.13-.11-.27-.16-.41l.55-.21a6.55,6.55,0,0,1-.28-1.18l-.57.08c0-.14,0-.29,0-.44l.57,0c0-.14,0-.28,0-.42a7,7,0,0,1,.06-.8l-.57-.08c0-.15,0-.3.07-.44l.56.12a6.24,6.24,0,0,1,.35-1.16l-.53-.25.18-.4.51.28a6.66,6.66,0,0,1,.63-1l-.44-.38c.08-.12.18-.23.27-.34l.42.42a6,6,0,0,1,.86-.81l-.33-.49c.11-.09.23-.17.35-.25l.3.52a5.85,5.85,0,0,1,1-.52l-.19-.58.4-.14.16.59a4.61,4.61,0,0,1,1.12-.2l0-.61.42,0m0,11.49a4.94,4.94,0,1,0-4.63-4.93,4.8,4.8,0,0,0,4.63,4.93m0-11.87h0l-.45,0a.38.38,0,0,0-.35.4l0,.25-.46.08-.05-.22a.41.41,0,0,0-.19-.24.37.37,0,0,0-.18,0h-.11a3.66,3.66,0,0,0-.43.15.37.37,0,0,0-.22.47l.08.24-.42.22-.11-.19a.4.4,0,0,0-.24-.18H232a.42.42,0,0,0-.21.06l-.37.26a.39.39,0,0,0-.09.52l.15.21c-.13.1-.25.22-.37.33l-.14-.14a.39.39,0,0,0-.27-.11h0a.35.35,0,0,0-.27.13q-.15.17-.3.36a.37.37,0,0,0,.06.51l.18.16a4,4,0,0,0-.27.44l-.17-.09a.41.41,0,0,0-.19-.05l-.11,0a.39.39,0,0,0-.23.19l-.19.43a.39.39,0,0,0,.19.49l.21.09c-.06.17-.11.34-.16.52l-.19,0h-.08a.42.42,0,0,0-.21.06.4.4,0,0,0-.16.24c0,.16-.05.31-.07.47a.37.37,0,0,0,.32.42l.21,0a4,4,0,0,0,0,.48v.06l-.21,0a.38.38,0,0,0-.35.4c0,.16,0,.32.05.47a.33.33,0,0,0,.15.25.35.35,0,0,0,.22.08h.06l.2,0a4.87,4.87,0,0,0,.12.52l-.21.08a.39.39,0,0,0-.23.48c0,.14.11.29.17.44a.39.39,0,0,0,.21.21l.14,0a.45.45,0,0,0,.16,0l.17-.09c.08.16.16.31.25.46l-.19.15a.38.38,0,0,0-.09.51l.27.38a.4.4,0,0,0,.26.14h0a.39.39,0,0,0,.25-.1l.15-.13c.11.13.23.25.34.37l-.15.19a.39.39,0,0,0,.06.52l.35.29a.39.39,0,0,0,.23.07h.06a.39.39,0,0,0,.26-.17l.11-.17.42.25-.1.23a.38.38,0,0,0,.19.49l.42.17a.31.31,0,0,0,.13,0,.53.53,0,0,0,.17,0,.35.35,0,0,0,.19-.22l.07-.22.45.12,0,.25a.39.39,0,0,0,.32.42l.45.05h0a.39.39,0,0,0,.25-.1.41.41,0,0,0,.13-.26v-.23h0l.44,0,0,.23a.37.37,0,0,0,.15.25.36.36,0,0,0,.23.08h.05l.44-.08a.39.39,0,0,0,.29-.45l0-.24a3.81,3.81,0,0,0,.44-.15l.08.2a.35.35,0,0,0,.22.21.31.31,0,0,0,.13,0,.29.29,0,0,0,.16,0l.41-.2a.38.38,0,0,0,.15-.5l-.11-.23a3.51,3.51,0,0,0,.4-.27l.13.16a.37.37,0,0,0,.26.15h0a.34.34,0,0,0,.24-.09l.34-.31a.39.39,0,0,0,0-.52l-.17-.19c.12-.13.22-.26.33-.39l.15.12a.4.4,0,0,0,.23.08h.07a.42.42,0,0,0,.25-.16c.08-.13.17-.27.24-.4a.38.38,0,0,0-.12-.51l-.2-.13c.08-.15.15-.31.22-.48l.18.07a.35.35,0,0,0,.14,0,.32.32,0,0,0,.16,0,.4.4,0,0,0,.2-.22c0-.15.09-.3.13-.45a.38.38,0,0,0-.26-.46l-.21-.06a5.07,5.07,0,0,0,.09-.54l.2,0h0a.39.39,0,0,0,.25-.1.41.41,0,0,0,.13-.26c0-.15,0-.31,0-.47a.43.43,0,0,0-.11-.28.39.39,0,0,0-.27-.11h-.2c0-.18,0-.36,0-.54l.2,0a.38.38,0,0,0,.29-.44c0-.16-.06-.31-.1-.46a.39.39,0,0,0-.19-.23.29.29,0,0,0-.18-.05H241l-.19.06c-.05-.17-.12-.34-.18-.5l.2-.11a.38.38,0,0,0,.15-.5c-.06-.14-.14-.28-.21-.41a.43.43,0,0,0-.24-.18h-.09a.37.37,0,0,0-.21.06l-.17.11c-.09-.14-.19-.28-.29-.41l.17-.18a.38.38,0,0,0,0-.52l-.32-.33a.39.39,0,0,0-.27-.11h0a.37.37,0,0,0-.27.13l-.14.15c-.12-.1-.25-.21-.38-.3l.13-.22a.38.38,0,0,0-.13-.51,3.64,3.64,0,0,0-.39-.23.37.37,0,0,0-.18-.05l-.11,0a.39.39,0,0,0-.23.19l-.09.2a4.07,4.07,0,0,0-.44-.18l.06-.25a.38.38,0,0,0-.26-.46l-.43-.11h-.08a.38.38,0,0,0-.21.07.35.35,0,0,0-.17.24l0,.23a3.41,3.41,0,0,0-.46-.05V373a.38.38,0,0,0-.38-.38Zm0,11.5a4.57,4.57,0,1,1,4.26-4.56,4.42,4.42,0,0,1-4.26,4.56Z" />
  <ellipse class="GUNDAN_CAT_JEWELRY_CAT_JEWELLERY_1_cls-5" cx="237.11" cy="390.26" rx="1.21" ry="1.28" />
  <path d="M237.11,389.09a1.18,1.18,0,1,1-1.11,1.17,1.14,1.14,0,0,1,1.11-1.17m0-.22a1.4,1.4,0,1,0,1.32,1.39,1.36,1.36,0,0,0-1.32-1.39Z" />
  <path class="GUNDAN_CAT_JEWELRY_CAT_JEWELLERY_1_cls-5" d="M236.86,394.14l-.25,0a.1.1,0,0,1-.09-.12l0-.24a3.74,3.74,0,0,1-.45-.12l-.07.23a.09.09,0,0,1-.06.06h-.09l-.23-.09a.11.11,0,0,1-.05-.14l.09-.23a3.38,3.38,0,0,1-.41-.24l-.13.19a.13.13,0,0,1-.07,0h0l-.06,0-.2-.16a.12.12,0,0,1,0-.15l.15-.19a2.82,2.82,0,0,1-.33-.36l-.17.15a.11.11,0,0,1-.07,0h0l-.08,0-.15-.21a.11.11,0,0,1,0-.15l.19-.15a3.62,3.62,0,0,1-.24-.43l-.2.09h-.08a.09.09,0,0,1-.06-.06,2.44,2.44,0,0,1-.1-.24.11.11,0,0,1,.07-.14l.21-.08c0-.16-.08-.32-.11-.49l-.24,0-.06,0a.1.1,0,0,1,0-.07l0-.27a.1.1,0,0,1,.1-.11l.22,0v-.14c0-.12,0-.24,0-.36l-.22,0a.11.11,0,0,1-.1-.12c0-.08,0-.17.05-.26a.1.1,0,0,1,0-.07l.06,0,.24.05A4.42,4.42,0,0,1,234,389l-.21-.1a.1.1,0,0,1-.06-.14,2.56,2.56,0,0,1,.11-.24.15.15,0,0,1,.06-.05h0l0,0,.19.1c.08-.14.17-.28.26-.42l-.18-.15a.11.11,0,0,1,0-.15,1.56,1.56,0,0,1,.16-.2.12.12,0,0,1,.08,0h0a.09.09,0,0,1,.08,0l.16.15.35-.32-.13-.2a.12.12,0,0,1,0-.15l.21-.15.06,0h0a.07.07,0,0,1,.06.05l.12.2.42-.21-.08-.24a.1.1,0,0,1,.07-.13l.23-.08h0l0,0a.15.15,0,0,1,.05.06l.06.23.46-.08,0-.24a.12.12,0,0,1,.1-.12h.25a.11.11,0,0,1,.11.11v.24a3.41,3.41,0,0,1,.46,0l.05-.23a.08.08,0,0,1,0-.07.07.07,0,0,1,.06,0h0l.24.06a.11.11,0,0,1,.07.14l-.06.23a2.77,2.77,0,0,1,.43.18l.11-.21a.1.1,0,0,1,.06-.05h.09l.22.13a.12.12,0,0,1,0,.15l-.12.21a3.72,3.72,0,0,1,.37.3l.15-.17a.12.12,0,0,1,.08,0h0a.11.11,0,0,1,.08,0l.18.19a.11.11,0,0,1,0,.15l-.17.17a3.69,3.69,0,0,1,.29.4l.19-.12s0,0,.06,0h0a.13.13,0,0,1,.07.05l.12.23a.11.11,0,0,1,0,.15l-.21.11a3.8,3.8,0,0,1,.18.47l.21-.07h.08a.13.13,0,0,1,.06.07l.06.26a.1.1,0,0,1-.09.12l-.21.05c0,.17,0,.34.05.51h.22a.09.09,0,0,1,.07,0,.13.13,0,0,1,0,.07c0,.1,0,.19,0,.28s0,.06,0,.07a.11.11,0,0,1-.07,0h-.23c0,.17,0,.33-.08.49l.22.07a.11.11,0,0,1,.07.13c0,.09,0,.17-.07.25s0,.05-.06.07h-.09l-.2-.08a3.82,3.82,0,0,1-.21.46l.2.12a.11.11,0,0,1,0,.15c0,.08-.09.15-.13.22a.14.14,0,0,1-.08.05h0l-.07,0-.18-.14a3.68,3.68,0,0,1-.31.38l.16.18a.11.11,0,0,1,0,.15l-.19.18-.07,0h0a.12.12,0,0,1-.08,0l-.14-.18a2.7,2.7,0,0,1-.39.27l.11.22a.11.11,0,0,1-.05.14l-.22.12h-.09a.17.17,0,0,1-.06-.06l-.09-.22a3.26,3.26,0,0,1-.44.15l.05.24a.11.11,0,0,1-.09.13l-.24,0h0a.07.07,0,0,1-.06,0,.12.12,0,0,1-.05-.07l0-.24-.34,0H237V394a.1.1,0,0,1,0,.07.09.09,0,0,1-.07,0Zm.25-6.6a2.73,2.73,0,1,0,2.56,2.72A2.65,2.65,0,0,0,237.11,387.54Z" />
  <path d="M237.1,386.49v.35h0a2.81,2.81,0,0,1,.65.07l.06-.34.24.06L238,387a3.26,3.26,0,0,1,.61.25l.15-.31.22.13-.18.3a3.06,3.06,0,0,1,.53.42l.22-.26.18.18-.25.24a3.17,3.17,0,0,1,.4.56l.29-.18a2.26,2.26,0,0,1,.11.22l-.29.16a3.91,3.91,0,0,1,.24.65l.32-.09.06.25-.32.07a4,4,0,0,1,.07.7h.33c0,.09,0,.18,0,.26l-.33,0a3.82,3.82,0,0,1-.11.69l.31.09a1.82,1.82,0,0,1-.07.25l-.31-.12a3.55,3.55,0,0,1-.28.63l.28.19-.13.21-.27-.2a3.75,3.75,0,0,1-.44.53l.23.25-.18.17-.21-.27a2.57,2.57,0,0,1-.55.38l.15.32-.22.11-.13-.32a3.48,3.48,0,0,1-.62.21l.06.34-.24,0,0-.34a3.25,3.25,0,0,1-.44,0h-.22l0,.35-.24,0,0-.34a3.55,3.55,0,0,1-.64-.17l-.11.33-.22-.09.13-.32a3.44,3.44,0,0,1-.58-.35l-.19.29-.19-.16.21-.27a3.63,3.63,0,0,1-.47-.49l-.25.22-.15-.21.27-.2a3.91,3.91,0,0,1-.32-.61l-.3.14a1.17,1.17,0,0,1-.09-.24l.31-.12a3.64,3.64,0,0,1-.16-.67l-.33,0c0-.08,0-.17,0-.25l.33,0a1.85,1.85,0,0,1,0-.24,3.55,3.55,0,0,1,0-.46l-.33,0c0-.09,0-.17,0-.26l.32.07a5.16,5.16,0,0,1,.2-.67l-.3-.13a2.56,2.56,0,0,1,.11-.24l.29.16a3.5,3.5,0,0,1,.36-.58l-.26-.22.16-.2.25.24a3.56,3.56,0,0,1,.49-.46l-.19-.29.2-.14.17.3a3.36,3.36,0,0,1,.6-.3l-.12-.33.24-.08.08.34a3.55,3.55,0,0,1,.65-.12l0-.35h.24m0,6.61a2.84,2.84,0,1,0-2.67-2.84,2.75,2.75,0,0,0,2.67,2.84m0-6.83h-.26a.21.21,0,0,0-.2.23v.15l-.26,0,0-.12a.26.26,0,0,0-.11-.14.19.19,0,0,0-.1,0h-.07l-.24.09a.21.21,0,0,0-.13.27l0,.14-.24.12-.06-.11a.21.21,0,0,0-.14-.1h-.05a.28.28,0,0,0-.12,0l-.21.15a.21.21,0,0,0-.05.3l.08.12-.21.19-.08-.08a.24.24,0,0,0-.16-.07h0a.25.25,0,0,0-.16.08,1.63,1.63,0,0,0-.17.2.22.22,0,0,0,0,.3l.11.09a2.26,2.26,0,0,0-.16.26l-.1-.06a.19.19,0,0,0-.1,0h-.07a.22.22,0,0,0-.13.12,2.56,2.56,0,0,0-.11.24.23.23,0,0,0,.11.28l.12.06a1.61,1.61,0,0,0-.09.29l-.11,0h-.05a.28.28,0,0,0-.12,0,.19.19,0,0,0-.09.14,2.51,2.51,0,0,0,0,.27.2.2,0,0,0,.18.24l.12,0a2.44,2.44,0,0,0,0,.27v0h-.12a.21.21,0,0,0-.2.23l0,.27a.28.28,0,0,0,.08.15.22.22,0,0,0,.13,0h0l.11,0c0,.1,0,.2.07.3l-.12.05a.21.21,0,0,0-.13.27l.09.25a.27.27,0,0,0,.13.13h.08l.09,0,.1-.05c0,.09.09.18.14.27l-.11.08a.22.22,0,0,0-.05.29,1.77,1.77,0,0,0,.16.22.21.21,0,0,0,.15.09h0a.2.2,0,0,0,.14-.06l.09-.07.19.21-.08.11a.22.22,0,0,0,0,.3,1.56,1.56,0,0,0,.2.16.24.24,0,0,0,.13.05h0a.24.24,0,0,0,.15-.09l.06-.1.24.14-.05.14a.21.21,0,0,0,.11.28l.24.1h.07l.1,0a.24.24,0,0,0,.11-.13l0-.12a2.44,2.44,0,0,0,.26.06l0,.15a.22.22,0,0,0,.19.24l.25,0h0a.2.2,0,0,0,.14-.06.2.2,0,0,0,.08-.15v-.13h.27l0,.13a.19.19,0,0,0,.08.15.22.22,0,0,0,.13,0h0l.26-.05a.22.22,0,0,0,.17-.25l0-.14a2.5,2.5,0,0,0,.25-.09l0,.12a.23.23,0,0,0,.12.12h.08a.13.13,0,0,0,.09,0l.24-.11a.23.23,0,0,0,.09-.29l-.07-.13a1.88,1.88,0,0,0,.23-.16l.07.09a.26.26,0,0,0,.16.09h0a.24.24,0,0,0,.14-.05l.19-.18a.22.22,0,0,0,0-.3l-.09-.11.18-.22.1.07a.25.25,0,0,0,.13,0h0a.25.25,0,0,0,.15-.1c.05-.07.09-.15.14-.23a.21.21,0,0,0-.07-.29l-.12-.07a2.39,2.39,0,0,0,.13-.28l.1,0,.08,0,.1,0a.28.28,0,0,0,.11-.13c0-.09.05-.18.08-.26a.23.23,0,0,0-.15-.27l-.12,0c0-.1,0-.21.05-.31h.13a.24.24,0,0,0,.14-.05.23.23,0,0,0,.07-.15,2.53,2.53,0,0,0,0-.28.22.22,0,0,0-.06-.15.19.19,0,0,0-.15-.07h-.12l0-.31.12,0a.21.21,0,0,0,.16-.25,1.31,1.31,0,0,0-.06-.27.19.19,0,0,0-.1-.13.2.2,0,0,0-.11,0h-.06l-.11,0a2.33,2.33,0,0,0-.11-.28l.12-.07a.22.22,0,0,0,.09-.29l-.13-.23a.28.28,0,0,0-.13-.11h-.05a.21.21,0,0,0-.12,0l-.1.07a2.07,2.07,0,0,0-.17-.24l.1-.1a.22.22,0,0,0,0-.3l-.18-.19a.24.24,0,0,0-.16-.07h0a.25.25,0,0,0-.16.08l-.08.09-.22-.18.08-.13a.23.23,0,0,0-.08-.29l-.22-.13a.2.2,0,0,0-.11,0h-.06a.21.21,0,0,0-.13.11l-.06.12-.25-.11,0-.14a.22.22,0,0,0-.15-.26l-.25-.07h-.05a.19.19,0,0,0-.12,0,.19.19,0,0,0-.09.14l0,.13a1.09,1.09,0,0,0-.26,0v-.14a.2.2,0,0,0-.06-.15.26.26,0,0,0-.16-.07Zm0,6.61a2.62,2.62,0,1,1,2.45-2.62,2.54,2.54,0,0,1-2.45,2.62Z" />
  <path class="GUNDAN_CAT_JEWELRY_CAT_JEWELLERY_1_cls-6" d="M226.05,357.19a1.37,1.37,0,0,1-.4-.05,161.6,161.6,0,0,1-35.2-14.69c-24-13.66-39.1-31.45-43.55-51.45-.2-.88-.81-5.85,3.91-6.13,0,0-.07.37-.35,1.34a12.47,12.47,0,0,0,0,7.16c12.5,41.41,70,59,75.52,60.51,4.26-1.33,40.29-13.51,57.57-51.29.37-.82-.1-4.37-.31-6.09a5.48,5.48,0,0,1,3.27,7.44c-18.94,41.4-59.67,53.08-60.07,53.19A1.67,1.67,0,0,1,226.05,357.19Z" />
</svg>