<svg id="Jewellry" xmlns="http://www.w3.org/2000/svg" xmlns:xlink="http://www.w3.org/1999/xlink" viewBox="0 0 432 432">
  <defs>
    <style>.GUNDAN_CAT_JEWELRY_CAT_JEWELLERY_13_cls-1{fill:none;}.GUNDAN_CAT_JEWELRY_CAT_JEWELLERY_13_cls-2{clip-path:url(#GUNDAN_CAT_JEWELRY_CAT_JEWELLERY_13_clip-path);}.GUNDAN_CAT_JEWELRY_CAT_JEWELLERY_13_cls-3{fill:#70451d;}.GUNDAN_CAT_JEWELRY_CAT_JEWELLERY_13_cls-4{fill:#9e6f3c;}.GUNDAN_CAT_JEWELRY_CAT_JEWELLERY_13_cls-5{fill:#8c5926;}.GUNDAN_CAT_JEWELRY_CAT_JEWELLERY_13_cls-6{fill:#ffe1e4;}.GUNDAN_CAT_JEWELRY_CAT_JEWELLERY_13_cls-7{fill:#8e5f20;}</style>
    <clipPath id="clip-path">
      <path class="GUNDAN_CAT_JEWELRY_CAT_JEWELLERY_13_cls-1" d="M161.89,277.11s-10.48-7.5-17.2-10.83c-.62-7.73-16.55,33.21-7.74,72.84s52.14,138.22,52.14,138.22l109.1,38.15s8.39-167.72,7.13-192.25-7.14-29.37-7.14-29.37l-7-19.83-8.88,9.25a21.28,21.28,0,0,0-3.33,16.61c1.8,8.78-56.3,45.46-56.3,45.46Z" />
    </clipPath>
  </defs>
  <g class="GUNDAN_CAT_JEWELRY_CAT_JEWELLERY_13_cls-2">
    <path class="GUNDAN_CAT_JEWELRY_CAT_JEWELLERY_13_cls-3" d="M244.28,363.47a6.92,6.92,0,1,1,6.92-6.92A6.93,6.93,0,0,1,244.28,363.47Zm0-8.51a1.59,1.59,0,1,0,1.59,1.59A1.59,1.59,0,0,0,244.28,355Z" />
    <path d="M244.28,350.63a5.92,5.92,0,1,1-5.92,5.92,5.92,5.92,0,0,1,5.92-5.92m0,8.51a2.59,2.59,0,1,0-2.59-2.59,2.59,2.59,0,0,0,2.59,2.59m0-10.51a7.92,7.92,0,1,0,7.92,7.92,7.93,7.93,0,0,0-7.92-7.92Zm0,8.51a.59.59,0,0,1-.59-.59.6.6,0,0,1,.59-.59.59.59,0,0,1,.59.59.58.58,0,0,1-.59.59Z" />
    <path class="GUNDAN_CAT_JEWELRY_CAT_JEWELLERY_13_cls-4" d="M264.81,372.58,259,366.72l-3.78,3.78-10.71-10.72L234,370.25,244.67,381l-8.27,8.25-8.29,8.28L217.4,386.78l-1.69,1.68-6.82,6.82-2,2L217.61,408l-3.8,3.78,5.86,5.87,3.79-3.78,6.35,6.36a25.57,25.57,0,0,0,36.15,0l1.11-1.1.26-.28a25.55,25.55,0,0,0,0-36.14L261,376.36Zm-7.32,37.58-.23.23a11.53,11.53,0,0,1-16.31,0l-7-7,16.56-16.53,7,7A11.53,11.53,0,0,1,257.49,410.16Z" />
    <polygon class="GUNDAN_CAT_JEWELRY_CAT_JEWELLERY_13_cls-3" points="236.4 389.23 238.02 390.85 227.65 401.16 217.69 391.15 215.71 388.46 217.4 386.78 228.11 397.5 236.4 389.23" />
    <path class="GUNDAN_CAT_JEWELRY_CAT_JEWELLERY_13_cls-5" d="M264.15,417.12l2.46,2.48-.65.65a25.57,25.57,0,0,1-36.15,0l-6.35-6.36-3.79,3.78-5.86-5.87,3.8-3.78-10.7-10.73,2-2,2.87,1.77,10,10-4.82,4.8,2.71,2.73,4.82-4.8,8,8.08a21.82,21.82,0,0,0,30.86.08Z" />
    <polygon class="GUNDAN_CAT_JEWELRY_CAT_JEWELLERY_13_cls-3" points="211.76 397.05 221.72 407.06 217.61 407.98 206.91 397.25 208.89 395.27 211.76 397.05" />
    <polyline class="GUNDAN_CAT_JEWELRY_CAT_JEWELLERY_13_cls-5" points="206.91 397.25 211.76 397.05 217.69 391.15 217.4 386.78" />
    <polygon class="GUNDAN_CAT_JEWELRY_CAT_JEWELLERY_13_cls-5" points="236.4 389.23 238.02 390.85 227.65 401.16 228.11 397.5 236.4 389.23" />
    <polyline class="GUNDAN_CAT_JEWELRY_CAT_JEWELLERY_13_cls-3" points="213.81 411.76 216.9 411.86 219.61 414.59 219.67 417.63" />
    <path class="GUNDAN_CAT_JEWELRY_CAT_JEWELLERY_13_cls-3" d="M264.15,417.12l2.46,2.48-.65.65a25.57,25.57,0,0,1-36.15,0l-6.35-6.36,1-4.06,8,8.08a21.82,21.82,0,0,0,30.86.08Z" />
    <polygon class="GUNDAN_CAT_JEWELRY_CAT_JEWELLERY_13_cls-3" points="240.57 393.43 242.24 395.11 233.96 403.37 230.21 403.73 240.57 393.43" />
    <path class="GUNDAN_CAT_JEWELRY_CAT_JEWELLERY_13_cls-5" d="M257.45,410.2l2,2.22s-10.36,10.31-21.31-.7l-7.95-8,3.75-.36,7,7a11.53,11.53,0,0,0,16.31,0Z" />
    <polygon class="GUNDAN_CAT_JEWELRY_CAT_JEWELLERY_13_cls-3" points="236.38 389.25 237.99 390.87 248.36 380.56 238.4 370.55 235.73 368.55 234.04 370.23 244.7 381 236.38 389.25" />
    <path class="GUNDAN_CAT_JEWELRY_CAT_JEWELLERY_13_cls-5" d="M264.13,417.14l2.46,2.48.65-.65a25.56,25.56,0,0,0,.16-36.15l-6.33-6.39,3.8-3.76L259,366.78l-3.8,3.78L244.56,359.8l-2,2,1.76,2.88,9.95,10,4.83-4.8,2.71,2.73-4.82,4.8,8,8.07a21.82,21.82,0,0,1-.08,30.86Z" />
    <polygon class="GUNDAN_CAT_JEWELRY_CAT_JEWELLERY_13_cls-3" points="244.34 364.64 254.29 374.66 255.24 370.56 244.56 359.8 242.58 361.77 244.34 364.64" />
    <polyline class="GUNDAN_CAT_JEWELRY_CAT_JEWELLERY_13_cls-5" points="244.57 359.79 244.33 364.65 238.4 370.55 234.04 370.23" />
    <polygon class="GUNDAN_CAT_JEWELRY_CAT_JEWELLERY_13_cls-5" points="236.38 389.25 237.99 390.87 248.36 380.56 244.7 381 236.38 389.25" />
    <polyline class="GUNDAN_CAT_JEWELRY_CAT_JEWELLERY_13_cls-3" points="259.04 366.78 259.12 369.86 261.83 372.59 264.87 372.67" />
    <path class="GUNDAN_CAT_JEWELRY_CAT_JEWELLERY_13_cls-3" d="M264.13,417.14l2.46,2.48.65-.65a25.56,25.56,0,0,0,.16-36.15l-6.33-6.39-4.06,1,8,8.07a21.82,21.82,0,0,1-.08,30.86Z" />
    <polygon class="GUNDAN_CAT_JEWELRY_CAT_JEWELLERY_13_cls-3" points="240.56 393.44 242.23 395.12 250.54 386.88 250.92 383.13 240.56 393.44" />
    <path class="GUNDAN_CAT_JEWELRY_CAT_JEWELLERY_13_cls-5" d="M257.25,410.41l2.2,2s10.37-10.31-.58-21.32l-8-8-.38,3.75,7,7a11.53,11.53,0,0,1-.06,16.31Z" />
    <path d="M244.46,359.78l10.71,10.72,3.78-3.78,5.86,5.86-3.8,3.78,6.35,6.37a25.55,25.55,0,0,1,0,36.14l-.26.28-1.11,1.1a25.58,25.58,0,0,1-36.15,0l-6.35-6.36-3.79,3.78-5.86-5.87,3.8-3.78-10.7-10.73,2-2,6.82-6.82,1.69-1.68,10.71,10.72,8.29-8.28,8.27-8.25L234,370.25l10.49-10.47m4.66,54a11.48,11.48,0,0,0,8.14-3.37l.23-.23a11.53,11.53,0,0,0,0-16.32l-7-7L234,403.37l7,7a11.49,11.49,0,0,0,8.17,3.39m-4.66-56.07a2.05,2.05,0,0,0-1.47.61l-10.5,10.47a2.09,2.09,0,0,0,0,3l9.22,9.25-6.79,6.78-6.81,6.8-9.23-9.24a2.08,2.08,0,0,0-2.95,0L214.24,387l-6.82,6.82-2,2a2.09,2.09,0,0,0-.61,1.48,2.12,2.12,0,0,0,.61,1.48l9.22,9.25-2.31,2.3a2.09,2.09,0,0,0,0,3l5.86,5.86a2.09,2.09,0,0,0,3,0l2.31-2.31,4.87,4.88a27.67,27.67,0,0,0,39.11.05l1.1-1.1,0,0,.24-.26a27.64,27.64,0,0,0,0-39.08L264,376.37l2.32-2.3a2.12,2.12,0,0,0,.61-1.48,2.09,2.09,0,0,0-.61-1.48l-5.86-5.87a2.07,2.07,0,0,0-1.48-.61,2.05,2.05,0,0,0-1.47.61l-2.31,2.31-9.23-9.25a2.12,2.12,0,0,0-1.48-.61Zm-7.54,45.69,13.6-13.58,5.51,5.52a9.45,9.45,0,0,1,0,13.36l-.23.23a9.45,9.45,0,0,1-13.36,0l-5.51-5.52Z" />
    <path class="GUNDAN_CAT_JEWELRY_CAT_JEWELLERY_13_cls-6" d="M65.37,404.52a2.19,2.19,0,0,1-1.49-.59c-21-19.34-89.76-85.35-95.64-122.88-2.13-13.61,1-25.63,9.27-35.72,13.27-16.18,38.78-25.84,71.83-27.2,1.06,0,2.09-.07,3.09-.07,25,0,34.78,12.82,43.4,27.1a79.35,79.35,0,0,1,11,43.67c-.6,18.33-15.6,33-27.65,44.82C73,339.75,67.58,345,65.92,349.22a2.27,2.27,0,0,1-3.76.72,2.29,2.29,0,0,1-.47-2.39c1.08-2.76,5-6.53,10.46-11.76,11.62-11.15,29.17-28,29.78-47.12a74.37,74.37,0,0,0-10.29-41C83.47,234.16,74.88,223,52.4,223c-.93,0-1.88,0-2.86.06-31.64,1.31-55.87,10.33-68.25,25.41-7.35,9-10.12,19.69-8.21,31.86,5.72,36.49,73,101.21,93.54,120.18l.25.23a2.21,2.21,0,0,1-1.5,3.82Z" />
    <path d="M52.43,219.06c25.22,0,34.72,13.65,42.55,26.62a78.26,78.26,0,0,1,10.85,43.11C104.94,316.38,70,336.25,65,348.85a1.27,1.27,0,0,1-2.37-.93c3.29-8.39,39.41-31.13,40.31-59.22A75.36,75.36,0,0,0,92.5,247.17C85.06,234.85,76.29,222,52.4,222c-.94,0-1.91,0-2.9.06-31.93,1.32-56.42,10.47-69,25.78C-27,257-29.86,268-27.91,280.44c6.28,40.05,85.82,113.33,94.1,121a1.2,1.2,0,0,1,.22,1.48h0a1.19,1.19,0,0,1-1.85.29c-10.28-9.49-89.08-82.39-95.33-122.31-2.09-13.31,1-25.06,9.05-34.93,13.09-16,38.34-25.48,71.1-26.83,1,0,2.06-.07,3-.07m0-2v0c-1,0-2.07,0-3.13.07C16,218.51-9.81,228.3-23.26,244.69-31.73,255-34.92,267.3-32.74,281.2c5.92,37.85,74.93,104.07,95.94,123.47a3.17,3.17,0,0,0,2.17.85A3.21,3.21,0,0,0,67.55,400l-.26-.24C46.86,380.82-20.27,316.3-25.93,280.14c-1.86-11.88.83-22.33,8-31.07,12.19-14.86,36.16-23.76,67.52-25,.95,0,1.9-.06,2.81-.06,22,0,30.38,11,38.39,24.25a73.3,73.3,0,0,1,10.14,40.43c-.6,18.71-18,35.39-29.47,46.43-5.54,5.31-9.54,9.15-10.7,12.11a3.29,3.29,0,0,0,.67,3.45,3.27,3.27,0,0,0,5.42-1.05c1.59-4,6.89-9.2,13-15.21,12.18-11.93,27.34-26.77,28-45.51a80.33,80.33,0,0,0-11.14-44.22c-4-6.58-8.42-13.44-15.24-18.72-7.71-6-17.2-8.86-29-8.86Z" />
    <path class="GUNDAN_CAT_JEWELRY_CAT_JEWELLERY_13_cls-7" d="M242.46,357.84a2,2,0,0,1-.49-.06c-22.94-5.74-46.59-19.41-64.9-37.51-19.29-19.06-30.21-39.48-27.83-52a2,2,0,0,1,1.67-1.6c36.2-5.52,99.24-11.08,111.41-11.08,1.77,0,2.11.12,2.39.27,2.61,1.45,20.68,23.44,20.85,23.66A2.68,2.68,0,0,1,286,281c.06.63,5,57-39.26,76.63a1.91,1.91,0,0,1-.81.18,2,2,0,0,1-1.71-1A2,2,0,0,1,242.46,357.84ZM153,270.39c-2.59,24.27,43.67,71.92,90,83.51a2,2,0,0,1,1.23.91,2,2,0,0,1,.92-.83c39.21-17.36,37.41-65.11,37-72-8-9.9-17-20.65-19.08-22.5h-.18C255.3,259.53,192.73,264.4,153,270.39Z" />
    <path d="M262.32,256.58a6.79,6.79,0,0,1,1.9.14c2.11,1.17,17.51,19.63,20.57,23.42a3.36,3.36,0,0,1,.19,1c0,.56,5,56.23-38.67,75.56a1,1,0,0,1-.41.09,1,1,0,0,1-.4-1.92c40.74-18,37.84-68.91,37.51-73.25-6.81-8.41-17.84-21.72-19.67-23.1h-.56c-7.7,0-70.52,4.87-110.71,11-3.64,24.19,42.55,73.31,90.63,85.35a1,1,0,0,1-.49,1.94c-22.79-5.7-46.27-19.29-64.44-37.25-19.1-18.87-29.88-38.83-27.55-51.11a1,1,0,0,1,.84-.8c36.69-5.59,99.46-11.07,111.26-11.07m0-2c-12.19,0-75.32,5.57-111.56,11.09a3,3,0,0,0-2.5,2.4c-2.48,13.05,8.28,33.33,28.1,52.91,18.44,18.22,42.26,32,65.37,37.77a3,3,0,0,0,2.47-.47,3,3,0,0,0,2.91.27c44.94-19.9,39.91-77,39.86-77.59v0a3.56,3.56,0,0,0-.62-2c-.18-.22-18.29-22.32-21.15-23.9a5.65,5.65,0,0,0-2.87-.4ZM153.9,271.26c39.4-5.88,100.36-10.65,108.67-10.73,2.17,2.14,10,11.4,18.49,21.88a98.49,98.49,0,0,1-3.33,30.18c-5.46,19.57-16.57,33.18-33,40.47a3.6,3.6,0,0,0-.54.31,3,3,0,0,0-1-.44c-21.77-5.45-45-19.16-63.79-37.6-16.3-16-26.11-33.07-25.49-44.07Z" />
  </g>
</svg>