<svg id="Jewellry" xmlns="http://www.w3.org/2000/svg" viewBox="0 0 432 432">
  <defs>
    <style>.GUNDAN_CAT_JEWELRY_CAT_JEWELLERY_5_cls-1{fill:#ed9547;}.GUNDAN_CAT_JEWELRY_CAT_JEWELLERY_5_cls-2{fill:#facf56;}.GUNDAN_CAT_JEWELRY_CAT_JEWELLERY_5_cls-3{fill:#b32126;}.GUNDAN_CAT_JEWELRY_CAT_JEWELLERY_5_cls-4{fill:#ee3742;}.GUNDAN_CAT_JEWELRY_CAT_JEWELLERY_5_cls-5,.GUNDAN_CAT_JEWELRY_CAT_JEWELLERY_5_cls-6{fill:none;stroke:#000;stroke-linecap:round;}.GUNDAN_CAT_JEWELRY_CAT_JEWELLERY_5_cls-5{stroke-miterlimit:10;stroke-width:0.9px;}.GUNDAN_CAT_JEWELRY_CAT_JEWELLERY_5_cls-6{stroke-linejoin:round;stroke-width:0.65px;}</style>
  </defs>
  <path class="GUNDAN_CAT_JEWELRY_CAT_JEWELLERY_5_cls-1" d="M121.6,180.26c1.44-16.15,15-11.4,11.39,1.61C125.92,185.87,121.6,180.26,121.6,180.26Z" />
  <path class="GUNDAN_CAT_JEWELRY_CAT_JEWELLERY_5_cls-2" d="M123.46,179.33c1.24-13.83,12.81-9.77,9.76,1.38C127.16,184.14,123.46,179.33,123.46,179.33Z" />
  <path class="GUNDAN_CAT_JEWELRY_CAT_JEWELLERY_5_cls-3" d="M132.18,202.6a2.69,2.69,0,0,1-3.9,1.4,2.68,2.68,0,0,1-4.21.29,2.67,2.67,0,0,1-4-1.45,2.68,2.68,0,0,1-3.35-2.42s-3.22-.07-3-2.7,7.8-17.46,7.8-17.46,4.32,5.61,11.39,1.61h.11s3.15,16.34,2.67,18.94S132.18,202.6,132.18,202.6Z" />
  <path class="GUNDAN_CAT_JEWELRY_CAT_JEWELLERY_5_cls-4" d="M131.86,200.36a2.46,2.46,0,0,1-3.57,1.24,2.51,2.51,0,0,1-3.87.25,2.5,2.5,0,0,1-3.64-1.31,2.46,2.46,0,0,1-3.09-2.18s-3-.08-2.73-2.43,7.11-15.6,7.11-15.6,4,5,10.47,1.47l.1,0s2.94,14.63,2.51,17S131.86,200.36,131.86,200.36Z" />
  <path class="GUNDAN_CAT_JEWELRY_CAT_JEWELLERY_5_cls-5" d="M121.6,180.26s4.32,5.61,11.39,1.61C136.55,168.86,123,164.11,121.6,180.26Z" />
  <path class="GUNDAN_CAT_JEWELRY_CAT_JEWELLERY_5_cls-5" d="M133.1,181.88s3.15,16.34,2.67,18.94-3.59,1.78-3.59,1.78a2.69,2.69,0,0,1-3.9,1.4,2.68,2.68,0,0,1-4.21.29,2.67,2.67,0,0,1-4-1.45,2.68,2.68,0,0,1-3.35-2.42s-3.22-.07-3-2.7,7.8-17.46,7.8-17.46" />
  <path class="GUNDAN_CAT_JEWELRY_CAT_JEWELLERY_5_cls-5" d="M128.73,155.69a6.09,6.09,0,0,1-.21-3.8,4.4,4.4,0,0,1,1.63-2.3" />
  <path class="GUNDAN_CAT_JEWELRY_CAT_JEWELLERY_5_cls-5" d="M133.92,150.28a3.53,3.53,0,0,1,1.05,3.05,5.88,5.88,0,0,1-4.51,4.95l-.54,3.78" />
  <line class="GUNDAN_CAT_JEWELRY_CAT_JEWELLERY_5_cls-5" x1="128.9" y1="170.07" x2="129.27" y2="167.45" />
  <path class="GUNDAN_CAT_JEWELRY_CAT_JEWELLERY_5_cls-5" d="M130,162.07a2.72,2.72,0,1,1-3.06,2.3A2.72,2.72,0,0,1,130,162.07Z" />
  <line class="GUNDAN_CAT_JEWELRY_CAT_JEWELLERY_5_cls-5" x1="122.06" y1="186.49" x2="116.76" y2="200.42" />
  <line class="GUNDAN_CAT_JEWELRY_CAT_JEWELLERY_5_cls-5" x1="123.59" y1="190.99" x2="120.11" y2="202.84" />
  <line class="GUNDAN_CAT_JEWELRY_CAT_JEWELLERY_5_cls-5" x1="126.64" y1="187.14" x2="124.07" y2="204.29" />
  <line class="GUNDAN_CAT_JEWELRY_CAT_JEWELLERY_5_cls-5" x1="128.36" y1="193.37" x2="128.28" y2="204" />
  <line class="GUNDAN_CAT_JEWELRY_CAT_JEWELLERY_5_cls-5" x1="130.23" y1="186.48" x2="132.18" y2="202.6" />
  <path class="GUNDAN_CAT_JEWELRY_CAT_JEWELLERY_5_cls-6" d="M134.89,149.46a2.21,2.21,0,0,0-1.83,2" />
</svg>