<svg xmlns="http://www.w3.org/2000/svg" viewBox="0 0 432 432">
  <defs>
    <style>.GUNDAN_RAT_OUTFIT_RAT_OUTFIT_1_cls-1{isolation:isolate;}.GUNDAN_RAT_OUTFIT_RAT_OUTFIT_1_cls-2{fill:#7aba70;}.GUNDAN_RAT_OUTFIT_RAT_OUTFIT_1_cls-3{fill:#d86e40;}.GUNDAN_RAT_OUTFIT_RAT_OUTFIT_1_cls-4{fill:#2d403b;}.GUNDAN_RAT_OUTFIT_RAT_OUTFIT_1_cls-5{fill:#823e2a;}.GUNDAN_RAT_OUTFIT_RAT_OUTFIT_1_cls-6{fill:#ac5533;}.GUNDAN_RAT_OUTFIT_RAT_OUTFIT_1_cls-7{fill:#772230;}.GUNDAN_RAT_OUTFIT_RAT_OUTFIT_1_cls-8{fill:none;stroke:#000;stroke-linecap:round;stroke-linejoin:round;stroke-width:2px;}.GUNDAN_RAT_OUTFIT_RAT_OUTFIT_1_cls-9{opacity:0.22;mix-blend-mode:multiply;}</style>
  </defs>
  <g class="GUNDAN_RAT_OUTFIT_RAT_OUTFIT_1_cls-1">
    <g id="Outfit">
      <path class="GUNDAN_RAT_OUTFIT_RAT_OUTFIT_1_cls-2" d="M182.24,350.28a11.46,11.46,0,0,1-.18,3v0a2.36,2.36,0,0,1-.65,1.1l-.44.43-.09.1a10.65,10.65,0,0,0-.9,1.3h0v0a28.41,28.41,0,0,0-1.91,3.81.94.94,0,0,0-.1.23l-.08.18,0,.12c-.42,1-.81,2.08-1.17,3.24a33.39,33.39,0,0,0-1.36,6.53c-.1,1-.24,2-.4,3.13-.31,2-.7,4.15-1.12,6.32a.19.19,0,0,1,0,.08c-.17.9-.35,1.79-.52,2.67-.59,3.05-1.15,6-1.48,8.35,0,0,0,.06,0,.08a18.54,18.54,0,0,0-.25,4.18,54.34,54.34,0,0,1,.47,5.58l-.11,0c-.29,0-1.15.12-2.41.34l-.22,0-1.16.22h0a58.81,58.81,0,0,0-9.2,2.61c-1.4.53-2.6,1-3.66,1.48l-.23.1-1,.42h0c-1.91.79-10.15,1.33-11.81,1.43h0a12.42,12.42,0,0,1-4.81-.77c-4.47-1.49-12.72-6.76-19.56-9.43l-.15-.06a20.78,20.78,0,0,0-5.81-1.5c3.37-9.11,3.45-12.8,7.3-22.86s7.3-21,9.66-24.89a70.23,70.23,0,0,1,4.63-6.67l2.75-4.32s13.95-1,16.46-2.51,2.28-1.81,3.46-2a1.23,1.23,0,0,1,.35-.05h0c.12-.07.66-.3,2.77-1.05,2.29-.81,2.56-1.65,2.28-2.26a2.55,2.55,0,0,0-1-1c1-1.6,1.77-3.21,2.82-4.75l.23-.33a1.43,1.43,0,0,1,.14-.2l.34-.45c.13-.16.25-.32.39-.47s.24-.27.36-.41l.09-.09.29-.3a14.17,14.17,0,0,1,2.16-1.79l.31-.2a19.59,19.59,0,0,1,2.11-1.18l.37-.17.4-.18c.51-.22,1.05-.44,1.64-.64l.68-.24c.53-.18,1.08-.35,1.67-.52.44-.12.91-.25,1.39-.36.85-.21,1.75-.41,2.71-.6l.94-.17.46-.08c0,.18-.05.36-.08.54s-.07.37-.1.56v0c-.08.43-.16.87-.25,1.3h0l-.21,1c-.87.18-1.7.37-2.48.59l-.91.26-.43.14a15.33,15.33,0,0,0-2.29.95c-.2.1-.39.21-.57.32a7.29,7.29,0,0,0-.91.64c-.07.07-.14.12-.2.19a3.92,3.92,0,0,0-.72.88l-.28.5c-3.5,6.63.21,13.26.41,15.2a1.73,1.73,0,0,0,1.18,1.28,12.27,12.27,0,0,0,4.11.71s.21.58.45,1.29a18.78,18.78,0,0,1,.71,2.38.27.27,0,0,0,0,.12l.07.13a3.42,3.42,0,0,0,.23.34c.06.09.13.19.21.29l.42.56.51.63c.84,1,1.89,2.24,2.7,3.1l.63.64c0,.25,0,.48,0,.69A.28.28,0,0,0,182.24,350.28Z" />
      <path class="GUNDAN_RAT_OUTFIT_RAT_OUTFIT_1_cls-2" d="M300.46,394.93a92.81,92.81,0,0,0-9,3.41c-4.51,2-7.35,3.63-9,4.13-2.57.79-6-.1-6.39,0s-3.54,2.35-6.5,3.14a6.72,6.72,0,0,1-1.88.27,11.78,11.78,0,0,0-3.79.9,72.56,72.56,0,0,0-8.37,3.86l-.1.05s0-2.82-2.55-12.89c-.43-1.74-1-3.7-1.55-5.9s-1.16-4.2-1.7-6.13l0,0c-3.13-11.09-5.46-18.36-6.82-22.44v0l-1.65-4.95L239.42,357l-.95-.75-1.16-.92v0c0-.09.13-.44.3-.94l.16-.47c0-.11.07-.22.11-.34a1.59,1.59,0,0,0,.07-.2l.25-.71h0v0c.05-.16.11-.31.17-.47s.15-.43.23-.64l.18-.48c.07-.16.13-.32.19-.48l.12-.32.25-.6c.21-.48.4-.91.59-1.27,0-.07.07-.14.11-.2v0h0a3.37,3.37,0,0,1,.21-.34c1.1-1.57.79-1.65,1.88-4.56-2.16-9.88,1.8-13.42,2.7-15.55a1.63,1.63,0,0,0,.16-.94.92.92,0,0,0-.27-.45.83.83,0,0,0-.13-.14c-.09-.09-.2-.18-.32-.28a3.82,3.82,0,0,0-.42-.31,24,24,0,0,0-3.82-2.06l-.43-.19-.49-.21-1-.42-.52-.21-.55-.21c-.82-.31-1.7-.63-2.62-.94l-.32-1.32,1.51.7-.93-3.61c0-.14-.07-.29-.1-.45l.34.11.87.3,1.14.42,1.09.43c.71.28,1.38.58,2,.88l1,.45c.62.3,1.21.6,1.79.9l.85.45.83.45,1.77.95.75.4.56.29c.57.3,1.14.59,1.73.86,6.41,3,11,6.65,13.2,12h0s-.66.45-.54,1.05a.88.88,0,0,0,.05.15,1.09,1.09,0,0,0,.08.15,1.07,1.07,0,0,0,.23.26l.14.11.21.15a5.53,5.53,0,0,0,.55.28,37.28,37.28,0,0,0,6.75,1.89c2.59.62,4.36,3.1,7.46,2.55S282,346.3,282,346.3s6.38,18.27,6.54,18.8l.16.52s-1.73,4.66,1.31,10.47,5.7,11.93,7.22,13.76S300.46,393.62,300.46,394.93Z" />
      <path class="GUNDAN_RAT_OUTFIT_RAT_OUTFIT_1_cls-3" d="M176.85,319c.78-.22,1.61-.41,2.48-.59l-.06.3c-.43,2-.91,4-1.26,5.34v0c-.09.36-.18.69-.25,1v0c-.12.4-.26.89-.42,1.44a67,67,0,0,1-6.5-4.12,3.92,3.92,0,0,1,.72-.88l.2-.19a7.29,7.29,0,0,1,.91-.64c.18-.11.37-.22.57-.32a15.33,15.33,0,0,1,2.29-.95l.43-.14Z" />
      <path class="GUNDAN_RAT_OUTFIT_RAT_OUTFIT_1_cls-3" d="M222.84,340.59a14.87,14.87,0,0,1,1.54,4.61h0s0,0,0,0A35.67,35.67,0,0,0,222.84,340.59Z" />
      <path class="GUNDAN_RAT_OUTFIT_RAT_OUTFIT_1_cls-3" d="M224.09,345.15l0,.27-3.26,2.6Z" />
      <path class="GUNDAN_RAT_OUTFIT_RAT_OUTFIT_1_cls-3" d="M245,326.72s-2.77,1.18-8.14,3.13c-.51-1.32-.8-2.35-.8-2.35-.33-1.15-.64-2.3-.91-3.34s-.54-2.12-.73-2.86c.92.31,1.8.63,2.62.94l.55.21.52.21,1,.42.49.21.43.19a24,24,0,0,1,3.82,2.06,3.82,3.82,0,0,1,.42.31c.12.1.23.19.32.28l.13.14A.92.92,0,0,1,245,326.72Z" />
      <path class="GUNDAN_RAT_OUTFIT_RAT_OUTFIT_1_cls-4" d="M214.83,429.06a2.67,2.67,0,1,1-2.67,2.67A2.67,2.67,0,0,1,214.83,429.06Z" />
      <circle class="GUNDAN_RAT_OUTFIT_RAT_OUTFIT_1_cls-4" cx="213.44" cy="395.15" r="2.67" />
      <path class="GUNDAN_RAT_OUTFIT_RAT_OUTFIT_1_cls-4" d="M212.16,409a2.67,2.67,0,1,1-2.67,2.66A2.67,2.67,0,0,1,212.16,409Z" />
      <path class="GUNDAN_RAT_OUTFIT_RAT_OUTFIT_1_cls-4" d="M225.65,377.78a34.4,34.4,0,0,0-1.11,4.24,18.68,18.68,0,0,0-.44,4.36c2.06,1.57,9.72,4.74,14.1,3.76,1.43-.32,1.83-.95,2-1.58a3.29,3.29,0,0,1,1.31-1.72c.47,2.79,1,5.66,1.46,8.53a11.84,11.84,0,0,1-6.31,1.69h-.27c-6.54,0-17.14-4.05-18.61-8a11.57,11.57,0,0,1-.36-4.32,34.91,34.91,0,0,1,1-6.11,32.85,32.85,0,0,1,1.84-5.47,14.23,14.23,0,0,1,3.71-5.34c3.74-3,10.08-1.64,14.51-.07.33,2.17.75,4.81,1.22,7.77-4.63-2.18-10.33-3.4-11.51-2.45C227.23,373.88,226.35,375.69,225.65,377.78Z" />
      <path class="GUNDAN_RAT_OUTFIT_RAT_OUTFIT_1_cls-4" d="M194.21,363.26a7.51,7.51,0,0,1,1.91-1.94c3-2,8.49.39,12.21,2.58h0a23.85,23.85,0,0,1,3.83,2.67,6,6,0,0,1,1.28,4.29l-4.18-1.43a.26.26,0,0,0,0-.09,25.92,25.92,0,0,0-5.48-3.3c-3.56-1.64-5.13-1.51-5.41-1.33a3,3,0,0,0-.74.73,18,18,0,0,0-2.31,4.75,27.16,27.16,0,0,0-1.42,5.68,4.6,4.6,0,0,0,0,.63c.74,1,4.86,3.4,8.59,3.85a6.54,6.54,0,0,0,1.88,0c1.45.57,3,1.15,4.62,1.73a1.92,1.92,0,0,1-.38.53,6.84,6.84,0,0,1-5.07,1.85,16,16,0,0,1-4.37-.69c-3.23-.94-8.58-3.46-9.2-6.26a4.19,4.19,0,0,1-.09-.93A28,28,0,0,1,194.21,363.26Z" />
      <path class="GUNDAN_RAT_OUTFIT_RAT_OUTFIT_1_cls-3" d="M244.87,327.66c-.9,2.13-4.86,5.67-2.7,15.55-1.09,2.91-.78,3-1.88,4.56-1.2.89-2.43,1.74-3.65,2.54l-.45.29a66.21,66.21,0,0,1-9.05,5c-1.41.6-2.28.8-2.32.5V356l0-.33v0c0-.71,0-1.86,0-3.33,0-1.2-.05-2.61-.13-4.15-.06-1-.09-1.89-.2-2.72,0,0,0,0,0,0a.88.88,0,0,0,0-.16h0a14.87,14.87,0,0,0-1.54-4.61c-.64-1.32-1.55-2.94-2.81-5.07l.5-.16c6.86-2.15,12.34-4,16.36-5.51,5.37-2,8.14-3.13,8.14-3.13A1.63,1.63,0,0,1,244.87,327.66Z" />
      <path class="GUNDAN_RAT_OUTFIT_RAT_OUTFIT_1_cls-3" d="M197.89,335.2a49.63,49.63,0,0,1-4.47,9c-.51.89-1,1.76-1.5,2.69a13.33,13.33,0,0,0-1.2,5.49,22.15,22.15,0,0,0,.1,3.07s-5.61-.34-8.44-2a2.07,2.07,0,0,1-.32-.19,11.46,11.46,0,0,0,.18-3,.28.28,0,0,1,0-.09c0-.21,0-.44,0-.69l-.63-.64c-.81-.86-1.86-2.06-2.7-3.1l-.51-.63-.42-.56c-.08-.1-.15-.2-.21-.29a3.42,3.42,0,0,1-.23-.34l-.07-.13a.27.27,0,0,1,0-.12,18.78,18.78,0,0,0-.71-2.38c-.24-.71-.45-1.29-.45-1.29a12.27,12.27,0,0,1-4.11-.71A1.73,1.73,0,0,1,171,338c-.2-1.94-3.91-8.57-.41-15.2l.28-.5a67,67,0,0,0,6.5,4.12A99.54,99.54,0,0,0,197.89,335.2Z" />
      <path class="GUNDAN_RAT_OUTFIT_RAT_OUTFIT_1_cls-5" d="M253.3,440.28a2.81,2.81,0,0,1-.1-.31c-.08-.25-.17-.51-.25-.79-.14-.43-.28-.89-.43-1.4l-.32-1.08a1.54,1.54,0,0,0,0-.17c-.09-.33-.19-.66-.29-1-.45-1.55-1-3.37-1.5-5.49l-.06-.22c-1.06-4.08-2.3-9.22-3.65-15.5-1-4.73-2.07-10.24-3.09-15.87-.1-.51-.19-1-.27-1.48s-.16-.87-.23-1.29c0-.1,0-.2-.05-.29a1.56,1.56,0,0,1-.28.16,9.79,9.79,0,0,1-3,1.18h0a14.61,14.61,0,0,1-3,.34h-.27a23.87,23.87,0,0,1-4.61-.51l-.13,0a31.9,31.9,0,0,1-3.45-.9l-.18-.05a31.13,31.13,0,0,1-6.25-2.7c-2-1.17-3.5-2.48-4-3.78a11.57,11.57,0,0,1-.36-4.32c-.57-.15-1.16-.32-1.76-.5l-.69-.2-.09,0-1.09-.34-1.4-.44-.23.32,0,.06a.05.05,0,0,1,0,0c-.67.94-2.49,3.41-5.27,6.77-1.23,1.49-2.66,3.16-4.25,4.95l-.07.07h0l-.21.24,0,0A154.91,154.91,0,0,1,175.21,420h0c-1.56,1.07-3.15,2.11-4.78,3.1l-.18.75a124.86,124.86,0,0,1-4.64,15.25c-.29.78-.46,1.21-.46,1.21h88.18Zm-39.86-47.8a2.67,2.67,0,1,1-2.67,2.67A2.66,2.66,0,0,1,213.44,392.48Zm-3.95,19.2a2.67,2.67,0,1,1,2.67,2.67A2.66,2.66,0,0,1,209.49,411.68Zm5.34,22.72a2.67,2.67,0,1,1,2.66-2.67A2.66,2.66,0,0,1,214.83,434.4Z" />
      <path class="GUNDAN_RAT_OUTFIT_RAT_OUTFIT_1_cls-5" d="M224.54,382a18.68,18.68,0,0,0-.44,4.36c2.06,1.57,9.72,4.74,14.1,3.76,1.43-.32,1.83-.95,2-1.58a3.29,3.29,0,0,1,1.31-1.72c-.68-4-1.3-7.87-1.85-11.29-4.63-2.18-10.33-3.4-11.51-2.45-1,.78-1.84,2.59-2.54,4.68.21,0,5.81,1.45,5.14,3.78S224.54,382,224.54,382Z" />
      <path class="GUNDAN_RAT_OUTFIT_RAT_OUTFIT_1_cls-5" d="M209.21,369.34a25.92,25.92,0,0,0-5.48-3.3c-3.56-1.64-5.13-1.51-5.41-1.33a3,3,0,0,0-.74.73l11.68,4A.26.26,0,0,0,209.21,369.34Z" />
      <path class="GUNDAN_RAT_OUTFIT_RAT_OUTFIT_1_cls-5" d="M240.29,347.77a3.37,3.37,0,0,0-.21.34h0v0c0,.06-.07.13-.11.2-.19.36-.38.79-.59,1.27-.09.19-.17.39-.25.6l-.12.32c-.07.16-.13.32-.19.48l-.18.48c-.08.21-.16.43-.23.64s-.12.31-.17.47v0h0l-.25.71c0,.07-.05.14-.07.2s-.08.23-.11.34l-.16.47c-.17.5-.28.85-.3.94v0l1.16.92-.13.75-.8,4.61,0,.27c.11.72.43,2.85.9,5.92-4.43-1.57-10.77-2.94-14.51.07a6.87,6.87,0,0,0-.74.69s0,0,0,0v0a15.65,15.65,0,0,0-2.91,4.58l-6.82-2.33a6,6,0,0,0-1.28-4.29,23.85,23.85,0,0,0-3.83-2.67c-3.72-2.19-9.17-4.56-12.21-2.58a7.51,7.51,0,0,0-1.91,1.94c-2.11-1.62-3.1,0-3.1,0A108.34,108.34,0,0,0,179.55,359c.2-1.3.34-2.22.4-2.57v0c0-.05,0-.09,0-.11v0h0a10.65,10.65,0,0,1,.9-1.3l.09-.1.44-.43a2.36,2.36,0,0,0,.65-1.1v0a2.07,2.07,0,0,0,.32.19c2.83,1.66,8.44,2,8.44,2a22.15,22.15,0,0,1-.1-3.07,13.33,13.33,0,0,1,1.2-5.49c.49-.93,1-1.8,1.5-2.69.87,1,2.27,2.43,4.08,4.19a95.77,95.77,0,0,0,11.15,9.34l12.15-9.68,0,0,3.26-2.6.25-.2s0,0,0,0a.88.88,0,0,1,0,.16s0,0,0,0c.11.83.14,1.69.2,2.72.08,1.54.12,2.95.13,4.15,0,1.47,0,2.62,0,3.33v0c0,.12,0,.23,0,.33v.12c0,.3.91.1,2.32-.5a66.21,66.21,0,0,0,9.05-5l.45-.29C237.86,349.51,239.09,348.66,240.29,347.77Z" />
      <path class="GUNDAN_RAT_OUTFIT_RAT_OUTFIT_1_cls-5" d="M193.84,376.5c.74,1,4.86,3.4,8.59,3.85a6.54,6.54,0,0,0,1.88,0c-6.13-2.38-10.46-4.48-10.46-4.48A4.6,4.6,0,0,0,193.84,376.5Z" />
      <path class="GUNDAN_RAT_OUTFIT_RAT_OUTFIT_1_cls-5" d="M199.11,383.77c-3.23-.94-8.58-3.46-9.2-6.26a4.19,4.19,0,0,1-.09-.93s-2.52-.23-2.27-2.12c0,0-4.7-2-9.78-3.63-.88,5.94-1.76,12.13-2.1,15.26-.55,4.89-1.24,12.19-2.45,20.76C186.92,397.29,199.11,383.77,199.11,383.77Z" />
      <path class="GUNDAN_RAT_OUTFIT_RAT_OUTFIT_1_cls-6" d="M225.65,377.78a34.4,34.4,0,0,0-1.11,4.24s5.57,1.92,6.25-.46S225.86,377.82,225.65,377.78Z" />
      <path class="GUNDAN_RAT_OUTFIT_RAT_OUTFIT_1_cls-6" d="M213.44,370.86l-4.18-1.43-11.68-4a18,18,0,0,0-2.31,4.75,27.16,27.16,0,0,0-1.42,5.68s4.33,2.1,10.46,4.48c1.45.57,3,1.15,4.62,1.73a1.92,1.92,0,0,1-.38.53,6.84,6.84,0,0,1-5.07,1.85,16,16,0,0,1-4.37-.69s-12.19,13.52-25.89,23.08c-.54,3.8-1.17,7.86-1.95,12.06-.26,1.43-.55,2.83-.86,4.2,16.27-9.92,29.41-24.17,36.44-32.66,3.59-4.34,5.58-7.19,5.58-7.19,1.64.54,3.33,1,5,1.51a34.91,34.91,0,0,1,1-6.11,32.85,32.85,0,0,1,1.84-5.47l-6.82-2.33Z" />
      <path class="GUNDAN_RAT_OUTFIT_RAT_OUTFIT_1_cls-6" d="M189.82,376.58a28,28,0,0,1,4.39-13.32c-2.11-1.62-3.1,0-3.1,0A108.34,108.34,0,0,0,179.55,359c-.42,2.75-1.1,7.23-1.78,11.86,5.08,1.64,9.78,3.63,9.78,3.63C187.3,376.35,189.82,376.58,189.82,376.58Z" />
      <path class="GUNDAN_RAT_OUTFIT_RAT_OUTFIT_1_cls-7" d="M273.51,440.32h-20.2c-1.17-3.62-3.63-12-6.66-26-1.2-5.59-2.45-12.25-3.64-18.93-.5-2.87-1-5.74-1.46-8.53-.68-4-1.3-7.87-1.85-11.29-.47-3-.89-5.6-1.22-7.77-.59-3.83-.94-6.19-.94-6.19l.93-5.36h0l2.61,2.06,1.57,4.71c1.57,4.71,4.55,14,8.63,28.9s4.1,18.79,4.1,18.79,9-4.87,12.26-4.81,8-3.3,8.38-3.41,3.82.79,6.39,0c1.65-.5,7.58-3.45,12.09-5.41l1.71,7s4.71,2.1,5.66,2.72,0,1.16-1.36,3.25,1.25,8.17,1.25,8.17,2.09,4.29,2.3,4.81a22.24,22.24,0,0,1,2.31,5.13c.62,2.52.83,12.15.83,12.15Z" />
      <path class="GUNDAN_RAT_OUTFIT_RAT_OUTFIT_1_cls-7" d="M136.43,440.32h-32.2l3.3-6.6,2.41-9.84s3-8.69,3.56-13.19,1.26-7.75,1.26-7.75l2.82-5.77c6.88,2.65,15.22,8,19.72,9.49,5.88,2,14.5,0,21.56-2.67A55.62,55.62,0,0,1,172,400.77a54.34,54.34,0,0,0-.47-5.58c-.47-3.92,3-17.06,3.79-24.81A36.59,36.59,0,0,1,180,356.24c0,.07-.17,1.1-.42,2.73-.42,2.75-1.1,7.23-1.78,11.86-.88,5.94-1.76,12.13-2.1,15.26-.55,4.89-1.24,12.19-2.45,20.76-.54,3.8-1.17,7.86-1.95,12.06-.26,1.43-.55,2.83-.86,4.2a125.83,125.83,0,0,1-5.28,17.21Z" />
      <path class="GUNDAN_RAT_OUTFIT_RAT_OUTFIT_1_cls-8" d="M240.45,353.5c5-1.65,15.62,2.43,21,11.23.63-4.64-3.69-16.1-4.79-24.27-.19-1.4,3.76-2.7,5.26-3.92.45-.36.69-.71.54-1.06-2.23-5.32-6.79-9-13.2-12-4.33-2-8.09-4.75-14.69-6.89" />
      <path class="GUNDAN_RAT_OUTFIT_RAT_OUTFIT_1_cls-8" d="M180.38,350.12s-13.51,2.83-22.22,14.29c1.18-5.34,1.65-18,3.53-22.45s-1.55-2.83,3.55-10.92c.62-1-5.4-2-4.77-3,3.22-5.2,4.16-10.5,19.5-13.13" />
      <path class="GUNDAN_RAT_OUTFIT_RAT_OUTFIT_1_cls-8" d="M262.5,335.48s-.66.46-.54,1.06c.07.34.39.72,1.26,1.1a37.28,37.28,0,0,0,6.75,1.89c2.59.62,4.36,3.1,7.46,2.55S282,346.3,282,346.3s6.38,18.27,6.54,18.8l.16.52s-1.73,4.66,1.31,10.47,5.7,11.93,7.22,13.76,3.19,3.77,3.19,5.08a92.81,92.81,0,0,0-9,3.41c-4.51,2-7.35,3.63-9,4.13-2.57.79-6-.1-6.39,0s-5.08,3.45-8.38,3.41-12.26,4.81-12.26,4.81,0-3.88-4.1-18.79-7.06-24.19-8.63-28.9l-1.57-4.71-2.61-2.06-1.16-.92s.26-.84.65-2a31.06,31.06,0,0,1,2.33-5.57c1.1-1.57.79-1.65,1.88-4.56-2.51-11.46,3.23-14.39,2.86-16.49-.18-1-4.26-3.29-10.58-5.42" />
      <path class="GUNDAN_RAT_OUTFIT_RAT_OUTFIT_1_cls-8" d="M179.33,318.36c-4.16.84-7.42,2.1-8.51,4-4,6.8-.08,13.71.13,15.7s5.29,2,5.29,2,1.16,3.25,1.16,3.67,2.56,3.45,4.18,5.17l.63.64a14.1,14.1,0,0,1-.15,3.77,3.12,3.12,0,0,1-1.1,1.56,9.16,9.16,0,0,0-1,1.4" />
      <path class="GUNDAN_RAT_OUTFIT_RAT_OUTFIT_1_cls-8" d="M160.47,328.06s3.12,1.65-1.3,3.22-2,.86-3.13,1.1-.94.55-3.46,2-16.47,2.51-16.47,2.51l-2.74,4.32a70.23,70.23,0,0,0-4.63,6.67c-2.36,3.85-5.82,14.84-9.66,24.89s-3.93,13.75-7.31,22.86a20.78,20.78,0,0,1,5.81,1.5c6.88,2.65,15.22,8,19.72,9.49,5.88,2,14.5,0,21.56-2.67A55.62,55.62,0,0,1,172,400.77a54.34,54.34,0,0,0-.47-5.58c-.47-3.92,3-17.06,3.79-24.81A36.59,36.59,0,0,1,180,356.24" />
      <path class="GUNDAN_RAT_OUTFIT_RAT_OUTFIT_1_cls-8" d="M240.29,347.77c-1.2.89-2.43,1.74-3.65,2.54l-.45.29a66.21,66.21,0,0,1-9.05,5c-1.41.6-2.28.8-2.32.5V356c0-.1,0-.21,0-.33v0c0-.71,0-1.86,0-3.33,0-1.2-.05-2.61-.13-4.15-.06-1-.09-1.89-.2-2.72,0,0,0,0,0,0a.88.88,0,0,0,0-.16h0a14.87,14.87,0,0,0-1.54-4.61c-.64-1.32-1.55-2.94-2.81-5.07l.5-.16c6.86-2.15,12.34-4,16.36-5.51,5.37-2,8.14-3.13,8.14-3.13" />
      <path class="GUNDAN_RAT_OUTFIT_RAT_OUTFIT_1_cls-8" d="M182.06,353.27a2.07,2.07,0,0,0,.32.19c2.83,1.66,8.44,2,8.44,2a22.15,22.15,0,0,1-.1-3.07,13.33,13.33,0,0,1,1.2-5.49c.49-.93,1-1.8,1.5-2.69a49.63,49.63,0,0,0,4.47-9,99.54,99.54,0,0,1-20.57-8.75,67,67,0,0,1-6.5-4.12" />
      <path class="GUNDAN_RAT_OUTFIT_RAT_OUTFIT_1_cls-8" d="M224.38,345.2h0s0,0,0,0l-.25.2-3.26,2.6,0,0-12.15,9.68a95.77,95.77,0,0,1-11.15-9.34c-1.81-1.76-3.21-3.24-4.08-4.19" />
      <path class="GUNDAN_RAT_OUTFIT_RAT_OUTFIT_1_cls-8" d="M177.77,370.83c5.08,1.64,9.78,3.63,9.78,3.63a72.54,72.54,0,0,1,3.56-11.2A108.34,108.34,0,0,0,179.55,359" />
      <path class="GUNDAN_RAT_OUTFIT_RAT_OUTFIT_1_cls-8" d="M165.13,440.32a125.83,125.83,0,0,0,5.28-17.21c.31-1.37.6-2.77.86-4.2.78-4.2,1.41-8.26,1.95-12.06,1.21-8.57,1.9-15.87,2.45-20.76.34-3.13,1.22-9.32,2.1-15.26.68-4.63,1.36-9.11,1.78-11.86.25-1.63.4-2.66.42-2.73h0" />
      <path class="GUNDAN_RAT_OUTFIT_RAT_OUTFIT_1_cls-8" d="M238.47,356.23l-.93,5.36s.35,2.36.94,6.19c.33,2.17.75,4.81,1.22,7.77.55,3.42,1.17,7.28,1.85,11.29.47,2.79,1,5.66,1.46,8.53,1.19,6.68,2.44,13.34,3.64,18.93,3,14.06,5.49,22.4,6.66,26" />
      <path class="GUNDAN_RAT_OUTFIT_RAT_OUTFIT_1_cls-8" d="M294.5,397.06l1.71,7s4.71,2.1,5.66,2.72,0,1.16-1.36,3.25,1.25,8.17,1.25,8.17,2.09,4.29,2.3,4.81a22.24,22.24,0,0,1,2.31,5.13c.62,2.52.83,12.15.83,12.15h-203l3.3-6.6,2.41-9.84s3-8.69,3.56-13.19,1.26-7.75,1.26-7.75l2.82-5.77" />
      <path class="GUNDAN_RAT_OUTFIT_RAT_OUTFIT_1_cls-8" d="M208.33,363.9a23.85,23.85,0,0,1,3.83,2.67,6,6,0,0,1,1.28,4.29" />
      <path class="GUNDAN_RAT_OUTFIT_RAT_OUTFIT_1_cls-8" d="M208.93,382.08a1.92,1.92,0,0,1-.38.53,6.84,6.84,0,0,1-5.07,1.85,16,16,0,0,1-4.37-.69c-3.23-.94-8.58-3.46-9.2-6.26a4.19,4.19,0,0,1-.09-.93,28,28,0,0,1,4.39-13.32,7.51,7.51,0,0,1,1.91-1.94c3-2,8.49.39,12.21,2.58" />
      <path class="GUNDAN_RAT_OUTFIT_RAT_OUTFIT_1_cls-8" d="M209.26,369.43a.26.26,0,0,0,0-.09,25.92,25.92,0,0,0-5.48-3.3c-3.56-1.64-5.13-1.51-5.41-1.33a3,3,0,0,0-.74.73,18,18,0,0,0-2.31,4.75,27.16,27.16,0,0,0-1.42,5.68,4.6,4.6,0,0,0,0,.63c.74,1,4.86,3.4,8.59,3.85a6.54,6.54,0,0,0,1.88,0" />
      <path class="GUNDAN_RAT_OUTFIT_RAT_OUTFIT_1_cls-8" d="M243,395.37a11.84,11.84,0,0,1-6.31,1.69h-.27c-6.54,0-17.14-4.05-18.61-8a11.57,11.57,0,0,1-.36-4.32,34.91,34.91,0,0,1,1-6.11,32.85,32.85,0,0,1,1.84-5.47,14.23,14.23,0,0,1,3.71-5.34c3.74-3,10.08-1.64,14.51-.07" />
      <path class="GUNDAN_RAT_OUTFIT_RAT_OUTFIT_1_cls-8" d="M239.7,375.55c-4.63-2.18-10.33-3.4-11.51-2.45-1,.78-1.84,2.59-2.54,4.68a34.4,34.4,0,0,0-1.11,4.24,18.68,18.68,0,0,0-.44,4.36c2.06,1.57,9.72,4.74,14.1,3.76,1.43-.32,1.83-.95,2-1.58a3.29,3.29,0,0,1,1.31-1.72" />
      <path class="GUNDAN_RAT_OUTFIT_RAT_OUTFIT_1_cls-8" d="M189.82,376.58s-2.52-.23-2.27-2.12" />
      <path class="GUNDAN_RAT_OUTFIT_RAT_OUTFIT_1_cls-8" d="M191.11,363.26s1-1.62,3.1,0h0" />
      <polyline class="GUNDAN_RAT_OUTFIT_RAT_OUTFIT_1_cls-8" points="220.26 373.19 213.44 370.86 213.44 370.86 209.26 369.43 197.58 365.44" />
      <path class="GUNDAN_RAT_OUTFIT_RAT_OUTFIT_1_cls-8" d="M193.85,375.87s4.33,2.1,10.46,4.48c1.45.57,3,1.15,4.62,1.73,1.14.4,2.31.79,3.5,1.18,1.64.54,3.33,1,5,1.51" />
      <path class="GUNDAN_RAT_OUTFIT_RAT_OUTFIT_1_cls-8" d="M195.27,370.19s12.75,5.28,23.15,8.47" />
      <path class="GUNDAN_RAT_OUTFIT_RAT_OUTFIT_1_cls-8" d="M208.33,363.9h0c-.05-.18-.78-3-.83-3.78s1.15-2.38,1.15-2.38" />
      <path class="GUNDAN_RAT_OUTFIT_RAT_OUTFIT_1_cls-8" d="M170.41,423.11c16.27-9.92,29.41-24.17,36.44-32.66,3.59-4.34,5.58-7.19,5.58-7.19" />
      <path class="GUNDAN_RAT_OUTFIT_RAT_OUTFIT_1_cls-8" d="M173.22,406.85c13.7-9.56,25.89-23.08,25.89-23.08" />
      <path class="GUNDAN_RAT_OUTFIT_RAT_OUTFIT_1_cls-8" d="M206.85,390.45s1.43,3.7,1.8,4.22-.26,2.52-.49,3.92-.4,4.45-.67,6-2.14,5.07-1.83,5.6-.21,2.3,1.19,7.64.18,4.6,0,6.7-.17,4.81-.17,4.81,1.18,5.66,1.39,8a28.59,28.59,0,0,1,.09,3" />
      <path class="GUNDAN_RAT_OUTFIT_RAT_OUTFIT_1_cls-8" d="M131.3,421.05c.83,3.71,3.14,13.91,4.36,19.27" />
      <path class="GUNDAN_RAT_OUTFIT_RAT_OUTFIT_1_cls-8" d="M136.43,410.06s-1.15,10.89-1.15,14a38.81,38.81,0,0,0,1.15,7.64v8.59" />
      <path class="GUNDAN_RAT_OUTFIT_RAT_OUTFIT_1_cls-8" d="M276.65,428.49c-.23,2.38-1.68,7.3-3.14,11.83" />
      <path class="GUNDAN_RAT_OUTFIT_RAT_OUTFIT_1_cls-8" d="M269.74,411.68s-.16,4.87,0,7.85,1.1,9.9,1.1,9.9l-.59,8.95v1.94" />
      <circle class="GUNDAN_RAT_OUTFIT_RAT_OUTFIT_1_cls-8" cx="213.44" cy="395.15" r="2.67" />
      <path class="GUNDAN_RAT_OUTFIT_RAT_OUTFIT_1_cls-8" d="M209.49,411.68a2.67,2.67,0,1,0,2.67-2.66A2.66,2.66,0,0,0,209.49,411.68Z" />
      <path class="GUNDAN_RAT_OUTFIT_RAT_OUTFIT_1_cls-8" d="M212.16,431.73a2.67,2.67,0,1,0,2.67-2.67A2.66,2.66,0,0,0,212.16,431.73Z" />
      <path class="GUNDAN_RAT_OUTFIT_RAT_OUTFIT_1_cls-8" d="M225.65,377.78h0c.21,0,5.81,1.45,5.14,3.78s-6.25.46-6.25.46" />
      <path class="GUNDAN_RAT_OUTFIT_RAT_OUTFIT_1_cls-8" d="M234.61,316.62c0,.16.07.31.1.45l.93,3.61-1.51-.7.32,1.32c.19.74.44,1.74.73,2.86s.58,2.19.91,3.34c0,0,.29,1,.8,2.35" />
      <path class="GUNDAN_RAT_OUTFIT_RAT_OUTFIT_1_cls-8" d="M177.32,326.45c.16-.55.3-1,.42-1.44v0c.07-.28.16-.61.25-1v0c.35-1.38.83-3.3,1.26-5.34l.06-.3.21-1h0c.09-.43.17-.87.25-1.3h0c0-.19.07-.38.1-.56s.06-.36.08-.54" />
      <g class="GUNDAN_RAT_OUTFIT_RAT_OUTFIT_1_cls-9">
        <path d="M158.16,364.41S170,359,173.08,359.57l3.06.53s-2.83,9.13-4.76,16-3.93,12.25-3.93,12.25L166.19,374s-3.5,15.84-4.45,18.83-4.18,10.1-5.49,11.67-2.32,1.54-2.32,1.54,6.78-3.56,11.2-4.23,6.85-1,6.85-1a22.6,22.6,0,0,1-.24-9.69c1.1-4.84,2-11.29,3.13-17.43s2.89-12.9,3-13.16a41.39,41.39,0,0,1,3.09-5.66,6.56,6.56,0,0,0,1.1-1.56l.18-3.06s-.12-.73-5.49,1S163.37,357.29,158.16,364.41Z" />
        <path d="M116.44,399.49a28.53,28.53,0,0,1,8,5.75c3.69,3.85,9.06,8.33,9.06,8.33s1.51,19.71,1.8,21.28l-.74-17,.74-2.51,2.33,24.94h27.52a130.6,130.6,0,0,0,6.64-24.19c1.81-11.91,2.35-16.15,2.35-16.15l-.9-18-4,15.81.24,3.51a28.81,28.81,0,0,0-10.64,2.24c-5.07,2.27-13.57,4.67-17.45,3.73s-11.82-3.93-15.94-6.83a17.5,17.5,0,0,0-7.7-3.23Z" />
        <path d="M239.67,396.72s.07,29.76,4.63,43.6h9s-7.79-30.12-10.3-44.95A23.58,23.58,0,0,1,239.67,396.72Z" />
        <path d="M239.42,357s1.89,9.32,3.15,14.76,2.66,14.92,5.23,22.74,7.28,24.58,8.59,28,1.62,4.24,1.62,4.24l1.15-4.19,4.45,10.1,7,7.49H253.31s-5.72-18.85-8.18-30.52a128.16,128.16,0,0,1-2.77-18l-4.82-30,.8-4.61Z" />
        <path d="M197.5,348.4s-2,8.53-1.63,11.62a32.24,32.24,0,0,1-15.49-2.52l.2-1.53.82-1.57,1.11-1.06a64.93,64.93,0,0,0,7.92,2c.31-6.17,2.33-9.94,3-10.8A32.33,32.33,0,0,0,197.5,348.4Z" />
        <path d="M202.53,395.47s.72,9.23,0,14.49-2,11.06-2,13.15-.31,6.87-.31,6.87l1,10.34h6.89l-1.31-10.66s.11-6.29.56-7.19a4.91,4.91,0,0,0,.37-2.15l-.59-2.12s-1.65-7.24-1.45-8.78,1.59-2.46,2.27-9.6l.75-4.51-1.7-4.32Z" />
        <path d="M255,357.74s7.71,10.85,9.91,18.13c-12-7.48-13.71-1.45-13.71-1.45s2.3,14.67,6.85,22.75,5.9,9.56,5.9,9.56l-8.58,4s-2.76-16.33-5.8-24.92-6.85-22.53-6.85-22.53l-1.65-4.95-3.77-3s.88-1.61,4.35-2.08,7.88,1,9.6,2A31.43,31.43,0,0,1,255,357.74Z" />
        <path d="M269.52,405.61s-.15,12.43,1.05,18.72.27,9,.27,9l-.87,7h5.66s4.86-12.9,4.94-17.35c-5.18,13.29-7.77,15.65-7.77,15.65s3-15.71,3.14-20.77a42.19,42.19,0,0,0-.86-9.54s-.87,6.75-.87,7.3-.7,1-.7,1Z" />
        <path d="M301.42,406.55a44.11,44.11,0,0,0-5.91,6c-2.2,2.9-5.82,12.85-6,13.45s-1.81,5-1.81,5,8.32-10.05,9.74-11.7a7.48,7.48,0,0,1,2.8-2.15l.55-.47s-.94-4.16-.26-6,1.74-2.91,1.66-3.46S301.42,406.55,301.42,406.55Z" />
        <path d="M114.37,407.45s-.44,2.58,3.07,12.32a172.63,172.63,0,0,1,5.33,17.51,99.41,99.41,0,0,1-5.33-9.81,66.9,66.9,0,0,0-4.25-8l-.92-3.06s1.43-7.3,1.46-7.5A15.58,15.58,0,0,1,114.37,407.45Z" />
        <path d="M174.88,327s-.47,9.37-5,16.91c-4.18,6.92-10.21,17.95-11.18,19.71-.08.16-.13.24-.13.24s11.62-15.82,15.08-17a8,8,0,0,1,5.92.16,11,11,0,0,1-2.94-6.81c0-3.82-.11-5.6-.11-5.6l2.85-6.62L170.83,323Z" />
        <path d="M246.44,347.56c-.63-2-4.27-4.35-4.27-4.35l-1.38,4.45-.71.45h0l-.63.4-.4.26a0,0,0,0,1,0,0l-2.39,1.52-.45.29A74.85,74.85,0,0,1,225.42,356l-.07,0a1.64,1.64,0,0,1-.53.12c-.23,0-.21-.93-.15-2.27,0-.46,0-1,.07-1.54a28.13,28.13,0,0,0-.33-6.87s0,0,0,0a.83.83,0,0,0,0-.15,35.67,35.67,0,0,0-1.52-4.63c-1.11-2.82-2.31-5.23-2.31-5.23s11.78-.89,18.06-4.24c4.18-2.23,5.72-3.12,6.28-3.46a2.51,2.51,0,0,0,.32-.21S245.45,337.19,246.44,347.56Z" />
        <path d="M178.68,364.69l-.57,6.25,9.44,3.52a2,2,0,0,0,2.43,2.12c.18,2.56,2.3,4.84,7.75,6.68s9.63,1.68,11.49-1.08c-5.45-2-5.8-1.92-5.8-1.92s-7.24-.49-9.21-3.95a32,32,0,0,1,1.06-6.12s.81-2.64-.36-3.17a4.07,4.07,0,0,0-2.25-.3s.05-1.92-2.19-1.76c-2.79-1.33-11.24-3.9-11.24-3.9Z" />
        <path d="M217.87,381.3s-20.25-6.95-23.32-9.58l-.32,4.34s14.11,6.3,23.23,8.71C217.52,381.92,217.87,381.3,217.87,381.3Z" />
        <path d="M242.38,391.89s-5.58,1.81-13.55-1.13-7.66-7.52-6.64-13a57.59,57.59,0,0,0,1-9.26s-5.87,8.11-5.55,16,5.13,9.92,14.14,12.07,11.53-1.18,11.53-1.18Z" />
        <path d="M202.76,384.48S186.23,406.16,180,411.16s-9,5.63-9,5.63l-1.34,6.32a96.84,96.84,0,0,0,29.77-23.81l12.81-15.72-3-1.4-4.26-1.3S206.89,382.69,202.76,384.48Z" />
        <path d="M240.07,348.12v0l-1.47,4.2-.37.28h0l-3.76,2.83-12.24,4.66s-.21-.21-.53-3.51-.88-8.55-.88-8.55l0,0,3.24-2.87,0,.27.56,8.4.12,1.79v0c0,.12,0,.23,0,.33v.12l.53-.12.07,0c.47-.1,1.14-.25,1.72-.36.37-.06.71-.11.93-.13.68,0,8.18-4.86,11-6.67a0,0,0,0,0,0,0,4.64,4.64,0,0,0,.4-.26Z" />
      </g>
    </g>
  </g>
</svg>