<svg xmlns="http://www.w3.org/2000/svg" viewBox="0 0 432 432">
  <defs>
    <style>.GUNDAN_RAT_OUTFIT_RAT_OUTFIT_10_cls-1{isolation:isolate;}.GUNDAN_RAT_OUTFIT_RAT_OUTFIT_10_cls-2{fill:#111e45;}.GUNDAN_RAT_OUTFIT_RAT_OUTFIT_10_cls-3{fill:#a48636;}.GUNDAN_RAT_OUTFIT_RAT_OUTFIT_10_cls-4{fill:#c79445;}.GUNDAN_RAT_OUTFIT_RAT_OUTFIT_10_cls-5{fill:#8c5710;}.GUNDAN_RAT_OUTFIT_RAT_OUTFIT_10_cls-13,.GUNDAN_RAT_OUTFIT_RAT_OUTFIT_10_cls-6{opacity:0.22;mix-blend-mode:multiply;}.GUNDAN_RAT_OUTFIT_RAT_OUTFIT_10_cls-12,.GUNDAN_RAT_OUTFIT_RAT_OUTFIT_10_cls-7{fill:none;}.GUNDAN_RAT_OUTFIT_RAT_OUTFIT_10_cls-12,.GUNDAN_RAT_OUTFIT_RAT_OUTFIT_10_cls-14,.GUNDAN_RAT_OUTFIT_RAT_OUTFIT_10_cls-7{stroke:#000;stroke-linecap:round;stroke-linejoin:round;}.GUNDAN_RAT_OUTFIT_RAT_OUTFIT_10_cls-7{stroke-width:2px;}.GUNDAN_RAT_OUTFIT_RAT_OUTFIT_10_cls-8{fill:#b99321;}.GUNDAN_RAT_OUTFIT_RAT_OUTFIT_10_cls-9{fill:#ffffe5;}.GUNDAN_RAT_OUTFIT_RAT_OUTFIT_10_cls-10{fill:#4a5863;}.GUNDAN_RAT_OUTFIT_RAT_OUTFIT_10_cls-11{fill:#fdfeff;}.GUNDAN_RAT_OUTFIT_RAT_OUTFIT_10_cls-12,.GUNDAN_RAT_OUTFIT_RAT_OUTFIT_10_cls-14{stroke-width:1.63px;}.GUNDAN_RAT_OUTFIT_RAT_OUTFIT_10_cls-14{fill:#e0e1e2;}</style>
  </defs>
  <g class="GUNDAN_RAT_OUTFIT_RAT_OUTFIT_10_cls-1">
    <g id="Outfit">
      <path class="GUNDAN_RAT_OUTFIT_RAT_OUTFIT_10_cls-2" d="M209.39,424.14a1.45,1.45,0,0,0,.34-2.86c.65.08,2.18.26,4.11.4a58.33,58.33,0,0,0,6.68.1,27.09,27.09,0,0,0,3.65-.42,1.45,1.45,0,0,0,.57,2.78,26,26,0,0,1-4.8.69,40.53,40.53,0,0,1-5.06,0,44.14,44.14,0,0,1-5.64-.68Z" />
      <path class="GUNDAN_RAT_OUTFIT_RAT_OUTFIT_10_cls-3" d="M229.11,402.4a1.46,1.46,0,1,1-1.45,1.46A1.46,1.46,0,0,1,229.11,402.4Z" />
      <path class="GUNDAN_RAT_OUTFIT_RAT_OUTFIT_10_cls-2" d="M222.53,433.69a1.44,1.44,0,0,1-1.45-1.45,1.46,1.46,0,0,1,1-1.37h0l.48-.08a1.45,1.45,0,1,1,0,2.9Z" />
      <path class="GUNDAN_RAT_OUTFIT_RAT_OUTFIT_10_cls-3" d="M232,392.91a1.46,1.46,0,1,1-1.45,1.46A1.45,1.45,0,0,1,232,392.91Z" />
      <path class="GUNDAN_RAT_OUTFIT_RAT_OUTFIT_10_cls-2" d="M227.13,411.78a1.56,1.56,0,0,1,.53-.1,1.46,1.46,0,1,1-.53.1Z" />
      <path class="GUNDAN_RAT_OUTFIT_RAT_OUTFIT_10_cls-2" d="M221.08,432.24a1.44,1.44,0,0,0,1.45,1.45,27.17,27.17,0,0,1-4.14.34q-.6,0-1.17,0a34,34,0,0,1-4.4-.34,1.45,1.45,0,0,0,.35-2.86c.6.06,1.89.19,3.43.26.71,0,1.48,0,2.25,0a21.74,21.74,0,0,0,3.19-.24A1.46,1.46,0,0,0,221.08,432.24Z" />
      <path class="GUNDAN_RAT_OUTFIT_RAT_OUTFIT_10_cls-2" d="M224.74,421.23a1.46,1.46,0,1,1-1.45,1.46,1.44,1.44,0,0,1,.88-1.33h0A4.61,4.61,0,0,0,224.74,421.23Z" />
      <path class="GUNDAN_RAT_OUTFIT_RAT_OUTFIT_10_cls-2" d="M214.27,432.24a1.46,1.46,0,0,1-2.91,0,1.46,1.46,0,0,1,1.46-1.45l.33,0h0A1.46,1.46,0,0,1,214.27,432.24Z" />
      <path class="GUNDAN_RAT_OUTFIT_RAT_OUTFIT_10_cls-2" d="M209.73,421.28a1.45,1.45,0,0,1-.34,2.86h-.16a1.46,1.46,0,0,1,.16-2.91l.33,0Z" />
      <path class="GUNDAN_RAT_OUTFIT_RAT_OUTFIT_10_cls-2" d="M204.86,414.6a1.46,1.46,0,0,0,1.45-1.46,1.48,1.48,0,0,0-1.1-1.42c.55.07,2.4.31,4.89.51a83.48,83.48,0,0,0,12.39.22,28.27,28.27,0,0,0,4.64-.67,1.46,1.46,0,0,0,.53,2.82,36.35,36.35,0,0,1-5.86.94,61.82,61.82,0,0,1-10.33-.08c-3.54-.29-6.16-.76-6.75-.87Z" />
      <path class="GUNDAN_RAT_OUTFIT_RAT_OUTFIT_10_cls-2" d="M205.21,411.72a1.48,1.48,0,0,1,1.1,1.42,1.46,1.46,0,0,1-1.45,1.46h-.16l-.1,0h0a1.46,1.46,0,0,1,.27-2.89l.18,0,.14,0Z" />
      <path class="GUNDAN_RAT_OUTFIT_RAT_OUTFIT_10_cls-3" d="M200.47,402.4a1.46,1.46,0,1,1-1.45,1.46A1.46,1.46,0,0,1,200.47,402.4Z" />
      <path class="GUNDAN_RAT_OUTFIT_RAT_OUTFIT_10_cls-3" d="M194.26,392.91a1.46,1.46,0,1,1-1.45,1.46A1.46,1.46,0,0,1,194.26,392.91Z" />
      <path class="GUNDAN_RAT_OUTFIT_RAT_OUTFIT_10_cls-4" d="M304.12,460.43c-.9-7.66-5-12.56-4.57-26.66s1.61-28.53.51-43.08-8.82-30.26-14.29-33.41c-4.71-2.72-22.6-7.45-31.54-14.48-2.95-5.79-4.11-2.34-10.27-9.78h0c.43,4.78-3.05,22.22-8.94,37.9a310.36,310.36,0,0,0-12.5,41.53,28.27,28.27,0,0,0,4.64-.67,1.56,1.56,0,0,1,.53-.1,1.46,1.46,0,0,1,0,2.92,36.35,36.35,0,0,1-5.86.94c-.13.63-.27,1.27-.4,1.9-.3,1.43-.59,2.88-.88,4.34a27.09,27.09,0,0,0,3.65-.42h0a1.56,1.56,0,0,1,.56-.12,1.46,1.46,0,1,1,0,2.91,26,26,0,0,1-4.8.69q-.56,3.09-1.09,6.28a21.74,21.74,0,0,0,3.19-.24h0a1.51,1.51,0,0,1,.48-.08,1.45,1.45,0,1,1,0,2.9,27.17,27.17,0,0,1-4.14.34q-.31,2-.6,4c-.12-1.26-.32-2.61-.57-4a34,34,0,0,1-4.4-.34,1.45,1.45,0,1,1,0-2.9,1.24,1.24,0,0,1,.33,0h0c.6.06,1.89.19,3.43.26-.45-2-1-4.09-1.72-6.27a44.14,44.14,0,0,1-5.64-.68h0a1.46,1.46,0,0,1,.16-2.91,1.14,1.14,0,0,1,.33,0h0c.65.08,2.18.26,4.11.4q-.75-2.13-1.62-4.35c-.24-.62-.5-1.24-.75-1.87-3.54-.29-6.16-.76-6.75-.87h0l-.1,0h0a1.46,1.46,0,0,1,.27-2.89l.18,0,.14,0h0c.55.07,2.4.31,4.89.51a161,161,0,0,0-22.73-36.77c-5.16-6.23-8.24-14.78-11.47-19.88h0c-10.24-16.16-10.77-20.76-9.36-25.46-3,5.05-3.66,12-5.6,16.31,0,0-11.68,3.55-28,9.15-8.64,3-12.43,3.93-15.78,9.79S106.48,393.72,107,415s-.13,34.65-3.09,44.3c-.51,3.48-2.83,5.93,4.12,16.62h41.09a16,16,0,0,0,.19-12.43c-.42-1-.86-2.34-1.3-3.81a126.48,126.48,0,0,1-4.63-25.79q-.08-1.46-.06-2.73c6.25,10.5,8.83,19.9,7.73,22.93-.59,1.64-1.2,2.85-.87,4.42a5.32,5.32,0,0,0,.23.79,14.9,14.9,0,0,0,3.22,4.51c1.89,1.7,22.35,6.57,49.72,7.16a228.87,228.87,0,0,0,44.89-3.32c4.17-.74,8.37-1.63,12.55-2.68,3.48-5.79,4.44-6.41,2.37-10.51a13,13,0,0,1-1.31-5.75,18.56,18.56,0,0,1,.3-3.61.19.19,0,0,1,0-.08,33.58,33.58,0,0,1,3.17-9.11c.24-.49.51-1,.81-1.52a79.48,79.48,0,0,0,1.41,15.45,30.55,30.55,0,0,1-2.12,19.25c-2.26,5.41-1.35,6.83-1.35,6.83h36.25S305,468.1,304.12,460.43ZM194.26,395.82a1.46,1.46,0,1,1,1.46-1.45A1.45,1.45,0,0,1,194.26,395.82Zm6.21,9.49a1.46,1.46,0,1,1,1.46-1.45A1.45,1.45,0,0,1,200.47,405.31Zm28.64,0a1.46,1.46,0,1,1,1.46-1.45A1.45,1.45,0,0,1,229.11,405.31Zm2.91-9.49a1.46,1.46,0,1,1,1.45-1.45A1.44,1.44,0,0,1,232,395.82Z" />
      <path class="GUNDAN_RAT_OUTFIT_RAT_OUTFIT_10_cls-5" d="M243.7,337.5c-2-1.08-5.92-3.73-6.69-8.44a31.18,31.18,0,0,1,6.94,4.38A27.76,27.76,0,0,1,243.7,337.5Z" />
      <path class="GUNDAN_RAT_OUTFIT_RAT_OUTFIT_10_cls-6" d="M294.69,475.89H264.07s-.91-1.42,1.35-6.83a30.55,30.55,0,0,0,2.12-19.25,79.48,79.48,0,0,1-1.41-15.45c4.69-8.43,15.26-22.16,9.72-43.67,0,0,9,14.93,2.13,35.69C274.4,438.64,276,448,279,458s7.64,14.11,11,15.75c-.58-9.17,4.82-9.37,2.22-16.7.17.24,3.16,4.68,2.33,7.69S292.28,472.43,294.69,475.89Z" />
      <path class="GUNDAN_RAT_OUTFIT_RAT_OUTFIT_10_cls-6" d="M276.2,392.16c1.51,27.51-22.47,35.27-40.23,28.8a61.41,61.41,0,0,0-14.57-3.52,48.74,48.74,0,0,0-9.18-.11c-7.18.6-14,2.74-21.44,5.76-14.94,6.07-34.34,3.79-38.91-5.61-5.59-11.53-1.52-20.37,1.23-24.57s15.72-10.35,23.64-11a18.54,18.54,0,0,1,13,3.93,25.14,25.14,0,0,0-6.88-6.84c-8-4.11-19.7,4.07-21.07,4.87s-6.65,4-8.89,1.85-.87-16.8-.87-16.8c1.89-6.67,8.55-16.42,23.85-13.36-10.24-16.16-10.77-20.76-9.36-25.46-3,5.05-3.66,12-5.6,16.31,0,0-11.68,3.55-28,9.15-8.64,3-12.43,3.93-15.78,9.79S106.48,393.72,107,415s-.13,34.65-3.09,44.3c-.51,3.48-2.83,5.93,4.12,16.62H137.4c2.36-8.13-3.66-20.83-7.74-23.7,2.71,18.79-2.37,21.12-5,21.12a4.51,4.51,0,0,1-1.52-.25s-4.37-7.22-1.93-19.84,1.93-18.93-2.57-33.49,3.87-47.15,8.12-46.67,8,9.19,9.71,17.63c-3.93,13.07-3.79,20,2.94,33.28a34.79,34.79,0,0,1,3.95,7.16c6.25,10.5,8.83,19.9,7.73,22.93-.59,1.64-1.2,2.85-.87,4.42.28,1.34,1.23,2.94,3.45,5.3,1.89,1.7,22.35,6.57,49.72,7.16l1.38-.72c-45.83-3.67-40.44-19.37-40.44-19.37a56.94,56.94,0,0,0,24.86-2.17c13.57-4.25,28.26-7.92,35.21-6.08,21.53,13.14,36,6.82,37.49,6.08l.13-.06a16.16,16.16,0,0,1,.17-3.55.19.19,0,0,1,0-.08,30.3,30.3,0,0,1,5.2-12.75C273.92,427.78,281.35,403.67,276.2,392.16Z" />
      <path class="GUNDAN_RAT_OUTFIT_RAT_OUTFIT_10_cls-7" d="M222.48,412.45A311.84,311.84,0,0,1,235,370.92c4.67-12.43,7.83-26,8.72-33.42a27.76,27.76,0,0,0,.25-4.06c0-.15,0-.28,0-.41s0-.16,0-.23" />
      <path class="GUNDAN_RAT_OUTFIT_RAT_OUTFIT_10_cls-7" d="M219.94,424.83q-.56,3.09-1.09,6.28" />
      <path class="GUNDAN_RAT_OUTFIT_RAT_OUTFIT_10_cls-7" d="M221.8,415.54c-.44,2-.86,4.12-1.28,6.24" />
      <path class="GUNDAN_RAT_OUTFIT_RAT_OUTFIT_10_cls-7" d="M213.84,421.68c-.71-2-1.5-4.09-2.37-6.22" />
      <path class="GUNDAN_RAT_OUTFIT_RAT_OUTFIT_10_cls-7" d="M216.6,431.09c-.45-2-1-4.09-1.72-6.27" />
      <path class="GUNDAN_RAT_OUTFIT_RAT_OUTFIT_10_cls-7" d="M166.53,330.12c-1.7,5.67.48,20.72,20.84,45.34a161,161,0,0,1,22.73,36.77" />
      <path class="GUNDAN_RAT_OUTFIT_RAT_OUTFIT_10_cls-7" d="M189.75,385.86c-6.31-9.92-13.93-10.5-26.58-2.77-9.6,5.86-11.16,2.12-11.22,1-.08-1.39-1.94-13.6,9-37.62,1.94-4.27,2.56-11.26,5.6-16.31" />
      <path class="GUNDAN_RAT_OUTFIT_RAT_OUTFIT_10_cls-7" d="M233.87,385.11c3.09-9.31,9.13-11.33,20.94-7.65,9,2.79,9.47-.55,9.28-1.51s-3-19.6-9.86-33.15c-2.95-5.79-4-2.56-10.15-10l-7.84-4.21s2.08,7.1,7.4,9.4" />
      <path class="GUNDAN_RAT_OUTFIT_RAT_OUTFIT_10_cls-7" d="M160.93,346.43s-11.68,3.55-28,9.15c-8.64,3-12.43,3.93-15.78,9.79S106.48,393.72,107,415s-.13,34.65-3.09,44.3c-.51,3.48-2.83,5.93,4.12,16.62h41.09a16,16,0,0,0,.19-12.43c-2.7-6.76-6.12-23.38-6-32.33" />
      <path class="GUNDAN_RAT_OUTFIT_RAT_OUTFIT_10_cls-7" d="M275.85,390.69c5.54,21.51-5,35.24-9.72,43.67-.3.53-.57,1-.81,1.52s-.61,1.26-.88,1.87c-.12.27-.24.55-.35.82q-.36.89-.66,1.71c-.11.28-.2.56-.29.83s-.16.48-.23.71a.38.38,0,0,1,0,.1c-.08.27-.15.53-.22.79-.12.43-.22.85-.31,1.26l-.09.42c-.05.23-.09.45-.12.68a8.32,8.32,0,0,0-.13.85.22.22,0,0,0,0,.08q-.06.39-.09.78v0a16.79,16.79,0,0,0-.07,1.85.28.28,0,0,0,0,.13c0,.21,0,.42,0,.61s0,.24,0,.36,0,.37.05.55.07.51.11.76a12,12,0,0,0,.34,1.43,9,9,0,0,0,.41,1.17,6.71,6.71,0,0,0,.35.77c2.07,4.1,1.11,4.72-2.37,10.51-1.79.45-3.59.87-5.38,1.26l-1.22.26-1.25.26-1.57.32-1.56.3-1.57.28c-47.09,8.43-91.77-1.3-94.61-3.84-4.83-5.15-3.67-6.69-2.58-9.72s-1.48-12.43-7.73-22.93c-12.49-20.61-9.78-30.78-6.89-40.44" />
      <path class="GUNDAN_RAT_OUTFIT_RAT_OUTFIT_10_cls-7" d="M254.23,342.8c8.93,7,26.83,11.76,31.54,14.48,5.47,3.15,13.2,18.85,14.29,33.41s-.12,29-.51,43.08,3.67,19,4.57,26.66-3.8,15.46-3.8,15.46H264.07s-.91-1.42,1.35-6.83a30.55,30.55,0,0,0,2.12-19.25,79.48,79.48,0,0,1-1.41-15.45" />
      <path class="GUNDAN_RAT_OUTFIT_RAT_OUTFIT_10_cls-7" d="M195.72,394.37a1.46,1.46,0,1,1-1.46-1.46A1.46,1.46,0,0,1,195.72,394.37Z" />
      <path class="GUNDAN_RAT_OUTFIT_RAT_OUTFIT_10_cls-7" d="M233.47,394.37a1.45,1.45,0,1,1-1.45-1.46A1.45,1.45,0,0,1,233.47,394.37Z" />
      <path class="GUNDAN_RAT_OUTFIT_RAT_OUTFIT_10_cls-7" d="M201.93,403.86a1.46,1.46,0,1,1-1.46-1.46A1.45,1.45,0,0,1,201.93,403.86Z" />
      <path class="GUNDAN_RAT_OUTFIT_RAT_OUTFIT_10_cls-7" d="M230.57,403.86a1.46,1.46,0,1,1-1.46-1.46A1.45,1.45,0,0,1,230.57,403.86Z" />
      <path class="GUNDAN_RAT_OUTFIT_RAT_OUTFIT_10_cls-7" d="M204.59,414.57a1.46,1.46,0,0,1,.27-2.89l.18,0" />
      <path class="GUNDAN_RAT_OUTFIT_RAT_OUTFIT_10_cls-7" d="M205.21,411.72a1.48,1.48,0,0,1,1.1,1.42,1.46,1.46,0,0,1-1.45,1.46h-.14" />
      <path class="GUNDAN_RAT_OUTFIT_RAT_OUTFIT_10_cls-7" d="M227.13,411.78a1.56,1.56,0,0,1,.53-.1,1.46,1.46,0,1,1-.53.1Z" />
      <path class="GUNDAN_RAT_OUTFIT_RAT_OUTFIT_10_cls-7" d="M209.23,424.14a1.46,1.46,0,0,1,.16-2.91,1.14,1.14,0,0,1,.33,0" />
      <path class="GUNDAN_RAT_OUTFIT_RAT_OUTFIT_10_cls-7" d="M209.73,421.28a1.45,1.45,0,0,1-.34,2.86h-.15" />
      <path class="GUNDAN_RAT_OUTFIT_RAT_OUTFIT_10_cls-7" d="M224.18,421.35a1.56,1.56,0,0,1,.56-.12,1.46,1.46,0,1,1-1.45,1.46,1.44,1.44,0,0,1,.88-1.33" />
      <path class="GUNDAN_RAT_OUTFIT_RAT_OUTFIT_10_cls-7" d="M213.17,430.83a1.47,1.47,0,1,1-.35,0,1.24,1.24,0,0,1,.33,0" />
      <path class="GUNDAN_RAT_OUTFIT_RAT_OUTFIT_10_cls-7" d="M222.05,430.87a1.51,1.51,0,0,1,.48-.08,1.43,1.43,0,1,1-.49.08" />
      <path class="GUNDAN_RAT_OUTFIT_RAT_OUTFIT_10_cls-7" d="M227.47,411.7l-.34.08a28.27,28.27,0,0,1-4.64.67,83.48,83.48,0,0,1-12.39-.22c-2.49-.2-4.34-.44-4.89-.51h0l-.14,0" />
      <path class="GUNDAN_RAT_OUTFIT_RAT_OUTFIT_10_cls-7" d="M227.66,414.6a36.35,36.35,0,0,1-5.86.94,61.82,61.82,0,0,1-10.33-.08c-3.54-.29-6.16-.76-6.75-.87h0l-.1,0h0" />
      <path class="GUNDAN_RAT_OUTFIT_RAT_OUTFIT_10_cls-7" d="M224.74,421.23a4.61,4.61,0,0,1-.56.12h0a27.09,27.09,0,0,1-3.65.42,58.33,58.33,0,0,1-6.68-.1c-1.93-.14-3.46-.32-4.11-.4h0l-.33,0" />
      <path class="GUNDAN_RAT_OUTFIT_RAT_OUTFIT_10_cls-7" d="M224.74,424.14a26,26,0,0,1-4.8.69,40.53,40.53,0,0,1-5.06,0,44.14,44.14,0,0,1-5.64-.68h0" />
      <path class="GUNDAN_RAT_OUTFIT_RAT_OUTFIT_10_cls-7" d="M222.53,430.79l-.48.08h0a21.74,21.74,0,0,1-3.19.24c-.77,0-1.54,0-2.25,0-1.54-.07-2.83-.2-3.43-.26h0l-.33,0" />
      <path class="GUNDAN_RAT_OUTFIT_RAT_OUTFIT_10_cls-7" d="M123.17,363.7A59.56,59.56,0,0,1,134,385.28" />
      <path class="GUNDAN_RAT_OUTFIT_RAT_OUTFIT_10_cls-8" d="M225,428.32a3.78,3.78,0,0,1-1.1,2.66,18.92,18.92,0,0,1-1.48-3.13,1.76,1.76,0,0,0-2.16-1.07,1.6,1.6,0,0,0-1.16,2,21,21,0,0,0,1.6,3.49,4,4,0,1,1,4.3-4Z" />
      <path class="GUNDAN_RAT_OUTFIT_RAT_OUTFIT_10_cls-8" d="M251.27,421.61a4,4,0,1,1,0,7.9,4.35,4.35,0,0,1-3.19-1.36,25.72,25.72,0,0,0,3.82-1.09,1.58,1.58,0,0,0,1-2.09,1.78,1.78,0,0,0-2.24-.92,21.82,21.82,0,0,1-3.57,1A4.14,4.14,0,0,1,251.27,421.61Z" />
      <path class="GUNDAN_RAT_OUTFIT_RAT_OUTFIT_10_cls-9" d="M245.73,438.83a1.57,1.57,0,0,1-1,2.09,27.85,27.85,0,0,1-3.81,1.09,21,21,0,0,1-4.17.44,17,17,0,0,1-7-1.48,20.33,20.33,0,0,1-9-8.69,21,21,0,0,1-1.6-3.49,1.6,1.6,0,0,1,1.16-2,1.76,1.76,0,0,1,2.16,1.07,18.92,18.92,0,0,0,1.48,3.13,16.86,16.86,0,0,0,7.36,7.09,14.27,14.27,0,0,0,8.64.83,21.92,21.92,0,0,0,3.58-1A1.76,1.76,0,0,1,245.73,438.83Z" />
      <path class="GUNDAN_RAT_OUTFIT_RAT_OUTFIT_10_cls-9" d="M252.88,425a1.58,1.58,0,0,1-1,2.09,25.72,25.72,0,0,1-3.82,1.09,21,21,0,0,1-4.17.44,17,17,0,0,1-7-1.48,20.39,20.39,0,0,1-9-8.69,21,21,0,0,1-1.59-3.48,1.6,1.6,0,0,1,1.15-2,1.77,1.77,0,0,1,2.16,1.07,20,20,0,0,0,1.48,3.13,16.83,16.83,0,0,0,7.37,7.09,14.27,14.27,0,0,0,8.64.83,21.82,21.82,0,0,0,3.57-1A1.78,1.78,0,0,1,252.88,425Z" />
      <path class="GUNDAN_RAT_OUTFIT_RAT_OUTFIT_10_cls-9" d="M267.19,397.26a1.58,1.58,0,0,1-1,2.09,26.42,26.42,0,0,1-3.81,1.08,20.26,20.26,0,0,1-4.17.44,16.81,16.81,0,0,1-7-1.48,20.23,20.23,0,0,1-9-8.69,21.14,21.14,0,0,1-1.6-3.48,1.59,1.59,0,0,1,1.16-2,1.76,1.76,0,0,1,2.16,1.07,18.92,18.92,0,0,0,1.48,3.13,16.84,16.84,0,0,0,7.36,7.08,14.27,14.27,0,0,0,8.64.84,22.57,22.57,0,0,0,3.57-1A1.78,1.78,0,0,1,267.19,397.26Z" />
      <path class="GUNDAN_RAT_OUTFIT_RAT_OUTFIT_10_cls-9" d="M238.22,403.26a16.75,16.75,0,0,0,7.36,7.09,14.26,14.26,0,0,0,8.64.84,24,24,0,0,0,3.57-1,1.76,1.76,0,0,1,2.24.91,1.58,1.58,0,0,1-1,2.1,26.91,26.91,0,0,1-3.82,1.08,20.88,20.88,0,0,1-4.16.44,16.81,16.81,0,0,1-7-1.48,20.23,20.23,0,0,1-9-8.69,21.57,21.57,0,0,1-1.6-3.48,1.61,1.61,0,0,1,1.15-2,1.78,1.78,0,0,1,2.17,1.07A18,18,0,0,0,238.22,403.26Z" />
      <path class="GUNDAN_RAT_OUTFIT_RAT_OUTFIT_10_cls-8" d="M232.17,414.46a3.79,3.79,0,0,1-1.11,2.66,20,20,0,0,1-1.48-3.13,1.77,1.77,0,0,0-2.16-1.07,1.6,1.6,0,0,0-1.15,2,21,21,0,0,0,1.59,3.48,4,4,0,1,1,4.31-4Z" />
      <path class="GUNDAN_RAT_OUTFIT_RAT_OUTFIT_10_cls-8" d="M239.32,400.61a3.8,3.8,0,0,1-1.1,2.65,18,18,0,0,1-1.48-3.13,1.78,1.78,0,0,0-2.17-1.07,1.61,1.61,0,0,0-1.15,2,21.57,21.57,0,0,0,1.6,3.48h0a4,4,0,1,1,4.31-3.95Z" />
      <path class="GUNDAN_RAT_OUTFIT_RAT_OUTFIT_10_cls-8" d="M258.42,407.75a4,4,0,1,1,0,7.9,4.32,4.32,0,0,1-3.19-1.36,26.91,26.91,0,0,0,3.82-1.08,1.58,1.58,0,0,0,1-2.1,1.76,1.76,0,0,0-2.24-.91,24,24,0,0,1-3.57,1A4.15,4.15,0,0,1,258.42,407.75Z" />
      <path class="GUNDAN_RAT_OUTFIT_RAT_OUTFIT_10_cls-8" d="M265.58,393.89a4,4,0,1,1,0,7.9,4.3,4.3,0,0,1-3.19-1.36,26.42,26.42,0,0,0,3.81-1.08,1.58,1.58,0,0,0,1-2.09,1.78,1.78,0,0,0-2.25-.92,22.57,22.57,0,0,1-3.57,1A4.15,4.15,0,0,1,265.58,393.89Z" />
      <path class="GUNDAN_RAT_OUTFIT_RAT_OUTFIT_10_cls-8" d="M246.47,386.75a3.78,3.78,0,0,1-1.1,2.66,18.92,18.92,0,0,1-1.48-3.13,1.76,1.76,0,0,0-2.16-1.07,1.59,1.59,0,0,0-1.16,2,21.14,21.14,0,0,0,1.6,3.48,4,4,0,1,1,4.3-3.95Z" />
      <path class="GUNDAN_RAT_OUTFIT_RAT_OUTFIT_10_cls-10" d="M277.31,399.6h0a2.09,2.09,0,0,1-.08-1q-.09-.9-.21-1.83a47.59,47.59,0,0,0-1.17-6.05s-.76-6.61.76-8.94a1,1,0,0,0,.18-.1l-.49-.24-.35-.16-.44-.21c-.63-.29-1.31-.62-2-.94l-.34-.16-.51-.24-.21-.09-.27-.12-1-.45a.42.42,0,0,1-.14-.06h0l-.3-.13-.25-.11-.32-.15-.23-.1-.57-.25-.35-.16h0l-.32-.14-.28-.13-.61-.26-.11-.05-.25-.11-.26-.11-.14-.06-.2-.09-.28-.12-.08,0a.06.06,0,0,1-.05,0l-.49-.21-1.28-.54h0l-.15-.06-2.19-.91-.77-.31-.31-.12,0,0-.1,0-.49-.19-.33-.12s0,0,0,0l-.08,0h0l0,0-.55-.21-.77-.3-.55-.2-.48-.18-.29-.12-.66-.24-.06,0-.26-.09-.31-.11-.11,0-.58-.21-.65-.23-.64-.22-2.56-.84-.15,0-.32-.1-.33-.1-.44-.14-.29-.08-.58-.16-.33-.1-.61-.16h0l-.26-.07-.11,0-.29-.07-.28-.07-.09,0-.08,0h-.07l-.44-.1-.12,0-.07,0-.49-.11-.19,0h0l-.2,0-.7-.14-.33-.06a1.08,1.08,0,0,0-.19,0c-1,1.29-2.19,2.75-3.58,4.36L241,374l0,0v0l0,.05-.57.66h0l-.07.07c-.11.14-.23.27-.35.41l-.14.15-.13.15-.35.39q-1.48,1.67-3.17,3.47l-.23.25h0l0,0,0,0c-.24.27-.49.53-.75.8L233.69,382a.6.6,0,0,1-.08.08l-.21.22-.29.31-.28.29L231.78,384l-.21.21-.21.22-.55.57-.68.69-.26.27q-.18.19-.39.39l-.61.63-.66.66-3.28,3.28-.23.23-4.16,4.07-.12.13-.47.44-.15.15L215.5,400l0,.05-.05,0-.59.56-.28.26-.66.63-.66.61-.29.27c-.34.33-.69.65-1,1l-.25.24c-.2.18-.38.36-.58.53l-.92.85-1.66,1.53L206,408.82l-.06.05-.08.07-.07.06h0l0,0-.34.31-.49.44-1.16,1c-.09.08-.18.15-.27.24l-.57.51-.52.46-.58.51-.18.15-.08.07-.62.55-1.06.92-.31.27-1.42,1.24-.21.18,0,0a.47.47,0,0,1-.12.09l-.25.23-.49.41q-1.85,1.57-3.54,3c-.2.16-.39.33-.59.48l-.08.06-.12.1a.44.44,0,0,1-.11.09l-.25.2-1.26,1-.1.07-.22.18-.17.14c-.21.16-.41.31-.6.47l-.31.24-.41.32-.23.17a1.1,1.1,0,0,0-.18.14h0a1.33,1.33,0,0,0-.19.14l-.21.16-.13.1,0,0L188,424c-.12.1-.25.18-.37.27a4,4,0,0,1-.35.26l-.1.08-1.16.83-.11.07-.63.43c0,.38.06.78.09,1.19v0h0s0,.07,0,.12v0c.19,2.58.45,6.1.74,10.15.68,9.63,1.54,22.3,2.23,32.66.11,0,.23,0,.34,0h.19a237.19,237.19,0,0,0,59.39-2.59c.52-.08,1.05-.18,1.57-.28l1.56-.3,1.57-.32,1.25-.25,1.22-.27c1.79-.39,3.59-.81,5.38-1.26,3.48-5.79,4.44-6.41,2.37-10.51a6.71,6.71,0,0,1-.35-.77,8.84,8.84,0,0,1-.41-1.16,10.81,10.81,0,0,1-.34-1.44l-.05-.31-.06-.45c0-.18,0-.36-.05-.55s0-.23,0-.35,0-.41,0-.62a.28.28,0,0,1,0-.13,16.79,16.79,0,0,1,.07-1.85v0c0-.26,0-.52.08-.78a.24.24,0,0,1,0-.08c0-.28.07-.57.12-.85s.08-.45.13-.68l.09-.42c.09-.41.19-.83.31-1.25s.14-.53.22-.8a.29.29,0,0,0,0-.1c.07-.23.15-.47.23-.71s.18-.55.29-.83q.3-.82.66-1.71c.11-.26.23-.55.35-.82l.25-.55q.29-.65.63-1.32c.24-.49.51-1,.81-1.52,1.39-2.49,3.29-5.45,5.14-8.94a60.65,60.65,0,0,0,3.13-6.85A43.94,43.94,0,0,0,277.31,399.6Zm-35.08-16.8a4.1,4.1,0,0,1,4.24,3.95,3.74,3.74,0,0,1-1.11,2.65,17,17,0,0,0,7.37,7.1,13.12,13.12,0,0,0,4.75,1.12,16,16,0,0,0,2.29-.06c.53-.06,1.06-.13,1.6-.23a4.27,4.27,0,0,1,8.45.51,4.11,4.11,0,0,1-4.25,4,4.29,4.29,0,0,1-3.18-1.36,21.52,21.52,0,0,1-2.33.35h0q-.93.09-1.83.09c-.28,0-.55,0-.82,0a16.52,16.52,0,0,1-6.2-1.46,20.28,20.28,0,0,1-9-8.69,4,4,0,1,1,.06-7.9Zm-7.15,13.86a4.11,4.11,0,0,1,4.24,3.95,3.8,3.8,0,0,1-1.1,2.65,16.78,16.78,0,0,0,7.35,7.09,12.92,12.92,0,0,0,3.06.94l.45.07c.41.05.83.09,1.25.11a16.3,16.3,0,0,0,3.89-.28,4.14,4.14,0,0,1,4.2-3.44,4,4,0,1,1,0,7.9,4.32,4.32,0,0,1-3.19-1.36,20.88,20.88,0,0,1-4.16.44c-.28,0-.55,0-.82,0-.52,0-1-.07-1.54-.14l-.55-.08a16.27,16.27,0,0,1-4.11-1.24,20.18,20.18,0,0,1-9-8.69h0a4,4,0,1,1,.07-7.91Zm-7.15,13.85a4.11,4.11,0,0,1,4.24,4,3.72,3.72,0,0,1-.3,1.45,3.91,3.91,0,0,1-.81,1.2,16.83,16.83,0,0,0,7.37,7.09,14.26,14.26,0,0,0,8.64.83,3.88,3.88,0,0,1,1.7-2.67,4.44,4.44,0,0,1,5.8.7,3.76,3.76,0,0,1,.94,2.48,4.11,4.11,0,0,1-4.24,4,4.3,4.3,0,0,1-3.19-1.37,20.29,20.29,0,0,1-4.17.45,16.88,16.88,0,0,1-7-1.49,20.29,20.29,0,0,1-9-8.68,4.1,4.1,0,0,1-4.18-3.95,2.53,2.53,0,0,1,0-.28A4.14,4.14,0,0,1,227.93,410.51Zm19.18,31.7a4.77,4.77,0,0,1-.63.48,3.5,3.5,0,0,1-.61.31,3.92,3.92,0,0,1-.9.28,4.12,4.12,0,0,1-.86.09,4.37,4.37,0,0,1-3.19-1.36l-.7.13c-.3.06-.59.1-.89.14l-.78.09h0l-.75.05-1,0a16.83,16.83,0,0,1-7-1.48,17.3,17.3,0,0,1-3.14-1.85,15.5,15.5,0,0,1-1.32-1.08l-.52-.47c-.46-.45-.89-.9-1.29-1.36l-.42-.49a23.63,23.63,0,0,1-2.34-3.44h0a4.35,4.35,0,0,1-2.9-1.12,3.8,3.8,0,0,1-1.27-2.82,4.25,4.25,0,0,1,8.48,0,3.81,3.81,0,0,1-1.1,2.65,2.54,2.54,0,0,0,.16.28c.15.25.31.5.48.76s.23.35.36.53l.34.48a.64.64,0,0,0,.1.13,5.71,5.71,0,0,0,.38.48l.45.55h0l.32.36c.37.4.77.79,1.19,1.17a14.16,14.16,0,0,0,2.26,1.66c.21.12.42.24.64.35s.44.23.67.33a5,5,0,0,0,.64.26,12,12,0,0,0,1.32.43,12.83,12.83,0,0,0,1.37.29l.66.08a5.09,5.09,0,0,0,.56,0l.34,0a16.23,16.23,0,0,0,3.75-.29,4,4,0,0,1,2.52-3.1,4.49,4.49,0,0,1,1.68-.33,3.31,3.31,0,0,1,.45,0,2.7,2.7,0,0,1,.41.06,4.22,4.22,0,0,1,.79.23,3.27,3.27,0,0,1,.72.37,2.37,2.37,0,0,1,.33.22l.22.19.07.05,0,0,.2.21.08.09a3.85,3.85,0,0,1,.38.52,1.41,1.41,0,0,1,.13.24c0,.09.09.17.13.26a3.12,3.12,0,0,1,.19.59.51.51,0,0,1,0,.17l0,.16a1.66,1.66,0,0,1,0,.22h0c0,.1,0,.2,0,.3A3.84,3.84,0,0,1,247.11,442.21Z" />
      <path class="GUNDAN_RAT_OUTFIT_RAT_OUTFIT_10_cls-11" d="M279.19,376.73h0c0,.17-.14,3.65-2.39,4.92l-.5-.24-.35-.16-.43-.21-2-.94-.34-.16-.51-.24-.21-.09-.27-.12-1-.45a.42.42,0,0,1-.14-.06h0l-.29-.13-.26-.11-.32-.15-.23-.1-.56-.25-.35-.16h0l-.33-.14-.28-.13-.6-.26-.12-.05h0l-.23-.1-.37-.16h0l-.2-.09-.28-.12h0l-.09,0a0,0,0,0,1,0,0c-.17-.06-.34-.14-.5-.21l-1.28-.54-.15-.06-2.2-.91-.77-.31-.31-.12-.14-.06-.49-.19-.38-.15-.08,0,0,0-.55-.21-.77-.3-.54-.2-.49-.18-.29-.12-.66-.24-.06,0-.25-.09-.31-.11-.11,0-.58-.21-.65-.23-.65-.22-2.56-.84-.47-.14-.32-.1-1.06-.31-.26-.07-.33-.1-.61-.16h0l-.26-.07-.11,0-.28-.07-.29-.07-.09,0-.13,0h0L247,370l-.11,0-.08,0-.45-.1h0l-.18,0h0l-.19,0-.71-.14-.32-.06a1.38,1.38,0,0,0-.2,0c-1,1.29-2.19,2.75-3.58,4.36L241,374l0,.05,0,0,0,0c-.18.22-.38.43-.57.66l-.06.07c-.17.18-.33.37-.5.56l-.13.15-.35.39c-1,1.11-2,2.27-3.17,3.47l-.26.28,0,0c-.11.13-.23.24-.34.37l-.42.45L233.69,382l-.29.3-.29.31-.28.29c-.34.36-.69.73-1.05,1.09l-.21.21-.76.79-.68.69-.26.27-.38.39-.62.63-.65.66c-1.07,1.08-2.17,2.18-3.29,3.28l-.22.23-4.17,4.07-.59.57-.15.15c-1.42,1.37-2.86,2.73-4.3,4.09a.1.1,0,0,1,0,.05l0,0-.6.57-.28.26-.66.63-.66.61-.28.27-1,1-.26.24c-.19.18-.38.36-.58.53l-.92.85-1.65,1.53L206,408.82l-.06.05-.07.07-.07.06h0l0,0-.34.31-.49.44-1.16,1c-.09.08-.18.15-.27.24l-.26.23-.83.74-.58.51-.26.22-.62.55-1.06.92-.3.27-1.43,1.24-.21.18,0,0-.11.09-.26.23-.49.41c-1.22,1-2.41,2-3.54,3l-.52.42a.57.57,0,0,1-.15.12h0l-.11.09-.12.09a2.19,2.19,0,0,1-.25.2l-1.25,1a.39.39,0,0,0-.1.08l-.23.17-.17.14c-.21.16-.41.31-.6.47l-.3.24-.42.32-.21.16-.17.14h0c-.07.06-.14.1-.2.16l-.21.15-.08.06-.09.07L188,424l0,0-.57.42,0,0-.07,0h0l-.1.07-1.16.83-.11.07-.63.43c0,.38.06.78.1,1.19v0c0,.41.07.84.1,1.29a.08.08,0,0,0,0,0c.93,11.62,2.7,32.74,3.4,41.67h-.18c-.12,0-.23,0-.34,0-1.75-.14-3.44-.29-5.08-.46l-.66-.07h-.13l-4.08-44.15h0s0,0,0-.05a.46.46,0,0,0,0-.09c0-.09.06-.25.13-.5,0-.07,0-.16.05-.25s.1-.37.16-.6.05-.21.08-.32c.24-.94,1-1.8,3.86-4.07l.54-.43.58-.46.31-.24.66-.52.71-.55.76-.59.82-.64.88-.68.93-.72,1.79-1.39,1-.75,1-.79,4.63-3.6.73-.59.75-.6.07-.05.69-.56,1.42-1.17c.8-.67,1.61-1.36,2.42-2.06l1.19-1q2.53-2.22,5.11-4.62l2.08-2c.45-.41.89-.83,1.33-1.26h0l1.33-1.28c.45-.42.89-.85,1.33-1.28l1.33-1.3.43-.42.52-.51h0l.59-.6,1.54-1.53.67-.67.44-.44.42-.43.93-.94.93-.94.57-.58.57-.58h0c7.09-7.26,13.71-14.39,19-20q3.36.7,6.56,1.62l1.18.33c3,.86,5.78,1.82,8.44,2.83.79.29,1.55.59,2.31.89l.08,0c.92.37,1.81.74,2.69,1.12,1.05.44,2.07.89,3.05,1.34l.1,0c.81.37,1.59.74,2.34,1.1l1.12.55c.73.35,1.42.7,2.1,1s1.31.68,1.91,1l.79.43.94.52.69.38.11.06.63.36.36.21Z" />
      <path class="GUNDAN_RAT_OUTFIT_RAT_OUTFIT_10_cls-11" d="M224.68,382.83q-1.47,1.51-3,3l-.3-.24-.18-.15c-.3-.22-.67-.52-1.11-.86l-.47-.38c-1.3-1-3-2.43-5.07-4.06l-1-.82h0c-1.05-.85-2.16-1.75-3.3-2.69l-1.15-1c-.2-.15-.39-.31-.59-.48-1.1-.91-2.22-1.83-3.34-2.78-4.7-4-9.42-8.08-12.66-11.31a32.43,32.43,0,0,1-3.37-3.74c-.63-.86-.12-4.6-.58-5.53q-.39-.78-.72-1.56c-1-2.47-1.71-5.08-2.54-7.58-.05-.16-.1-.31-.16-.46s-.18-.56-.28-.83q-.24-.68-.51-1.32c-.08-.19-.15-.37-.24-.56s-.15-.34-.23-.51a19.43,19.43,0,0,0-1.08-2l-.45-.68-.23-.31c-.23-.32-.48-.62-.74-.92a12.83,12.83,0,0,0-1.44-1.41l-.28-.23-.37-.29c-.11-.09-.23-.17-.35-.25s-.48-.33-.74-.48l-.45-.28a123.25,123.25,0,0,1-11.08-8.14h0l0,0h0c-1.08-2.51-.41-4,.38-4.75a1.77,1.77,0,0,0,1.25-.81h0a105.09,105.09,0,0,0,10.05,9.05c1,.78,8.06,1.57,9.29,2.32,8.14,4.94-.2,17.84,5,24.94,2.31,3.15,9.1,9.2,15.9,14.93l3.34,2.78C217.55,377.19,222.76,381.31,224.68,382.83Z" />
      <path class="GUNDAN_RAT_OUTFIT_RAT_OUTFIT_10_cls-10" d="M221.69,385.87,218,389.54h0l-.52.52c-.18.17-.35.33-.52.51l-1.24,1.2-1.32,1.29-1.33,1.27c-.09.1-.19.18-.29.28-.35.32-.69.66-1,1-.7.66-1.4,1.31-2.09,1.94-1.71,1.6-3.42,3.14-5.1,4.62l-.61.54-.59.51c-.81.7-1.61,1.38-2.41,2.05l-1.42,1.17-.7.56a.18.18,0,0,1-.07.05h0l-.74.6-.74.58c-1.69,1.33-3.24,2.52-4.63,3.6l-.52.41-1.47,1.14-1.79,1.38-.93.72-.89.69-.82.63-.76.59-.71.56c-.23.17-.44.34-.65.51l-.31.24-.59.46-.54.43c-2.83,2.27-3.62,3.13-3.86,4.07,0,.11-.06.22-.08.32l-.15.6a1.49,1.49,0,0,0-.06.25c-.07.25-.11.41-.13.5a.81.81,0,0,0,0,.09.13.13,0,0,0,0,.05v0l1.24,13,3,31.17h-.12c-.48,0-.94-.1-1.41-.15l-2.39-.28-.56-.07-1.43-.18-.76-.11-.63-.08-1.36-.19c-1.34-.19-2.63-.39-3.86-.6l-1.21-.2a104.73,104.73,0,0,1-12.21-2.72l-.71-.23-.3-.1-.42-.15h0l-.38-.15h0l-.18-.08a3.83,3.83,0,0,1-1-.53c-4.84-5.15-3.68-6.7-2.58-9.73s-1.48-12.43-7.73-22.92c-1.4-2.31-2.61-4.49-3.65-6.55a1.5,1.5,0,0,0-.53-1.08c-7.43-15.31-5.33-24-2.88-32.26l.22-.1c0-.14,0-.29-.06-.43s-.08-.55-.13-.83a2.75,2.75,0,0,1,.48-1.38h0c.37-.65.78-1.32.7-1.76l-.24-1.14a.5.5,0,0,0,0-.12c-.09-.43-.18-.84-.29-1.25a3.84,3.84,0,0,0-.11-.46c-.16-.73-.35-1.45-.55-2.18l-.23-.9c-.07-.29-.15-.58-.24-.86s-.19-.67-.29-1-.15-.51-.23-.76c-.14-.44-.28-.87-.43-1.29s-.2-.6-.31-.9l-.12-.32q-.42-1.15-.87-2.22c0-.11-.09-.21-.13-.31l-.21-.49c-.08-.19-.17-.37-.25-.55s-.21-.46-.32-.68a.24.24,0,0,0-.06-.11c-.14-.31-.29-.62-.45-.92s-.42-.83-.65-1.24q-.18-.35-.39-.69c-.16-.3-.34-.6-.52-.89h0l-.53-.85a.75.75,0,0,1-.07-.12l-.46-.69c-.14-.22-.28-.42-.43-.63a.08.08,0,0,0,0,0L129,365c-.28-.4-.57-.8-.87-1.19l-.24-.33-.2-.25-.1-.12-.29-.36c-.09-.12-.19-.24-.29-.35-.27-.33-.55-.65-.85-1a11,11,0,0,0-.81-.87,6.14,6.14,0,0,0-.51-.51l-.25-.25c-.32-.3-.64-.6-1-.88l1.43-.51.19-.1a9.48,9.48,0,0,0,1.15,1.63,11.64,11.64,0,0,0,3.58,2.75h0s10-2.92,22.8-7.65c2.51-.92,5.09-1.95,7.68-3.1a10.44,10.44,0,0,0,.49-3.8,2.44,2.44,0,0,0,0-.27,20.81,20.81,0,0,0-.23-2.41h0s0,0,0-.07c0-.21-.07-.4-.1-.57v-.05a1.88,1.88,0,0,0-.11-.62v0a1.22,1.22,0,0,0-.22-.34,5,5,0,0,0-.51-.47h0l-.12-.1h0c-.22-.16-.47-.32-.76-.5a20.94,20.94,0,0,0-2.07-1.09l-.1-.06,0,0,.43-.21,5.82-2.81,3.68-14.05s0-.17.1-.47l0,0h0a3.05,3.05,0,0,0,.29.36q.17.19.36.39a21.52,21.52,0,0,0,2.45,2.12l.3.22c.27.21.55.42.84.62l.62.44.69.47c1.73,1.18,3.66,2.39,5.52,3.52l.46.28c.25.15.49.32.73.48s.24.17.35.25.25.19.37.29l.29.23a13.74,13.74,0,0,1,1.44,1.41c.26.3.51.61.73.92.08.11.16.21.23.32s.31.44.45.67a18.53,18.53,0,0,1,1.09,2c.07.18.15.35.23.52s.16.37.23.55c.18.44.35.87.51,1.32.1.27.2.55.29.83s.1.3.16.46a67.18,67.18,0,0,0,3.25,9.14c.23.45.47.89.73,1.33s-.47,3.76-.14,4.2a34.93,34.93,0,0,0,3.36,3.75c3.25,3.22,8,7.34,12.66,11.3l3.35,2.79.59.48c.38.33.76.64,1.14.95l3.3,2.69h0l1,.83c2,1.62,3.77,3,5.07,4.06l.48.37,1.1.87.18.14Z" />
      <path class="GUNDAN_RAT_OUTFIT_RAT_OUTFIT_10_cls-11" d="M286.12,347.43c-2.71-1.83-20.94-9.3-29.42-11.4,0,0-1.49.57-3.17,1.34-2,.91-4.25,2.09-4.56,2.91a.08.08,0,0,1,0,0c0,.06-.06.29-.12.61-.26,1.41-.74,4.81.13,7.18a152.59,152.59,0,0,0,31.41,9.76s4.79-2.13,5.66-7l-.27-.11a5.46,5.46,0,0,0,.36-.48h0C286.87,349.18,287.11,348.1,286.12,347.43Z" />
      <path class="GUNDAN_RAT_OUTFIT_RAT_OUTFIT_10_cls-11" d="M160.44,344.16v0c-.27-.72-2.06-1.72-3.84-2.57-2-.93-3.89-1.68-3.89-1.68-8.48,2.1-25.78,10.57-28.5,12.4-1,.66-.75,1.75,0,2.87h0c.57,5.25,5.75,7.56,5.75,7.56A216.92,216.92,0,0,0,160.43,352c.87-2.37.39-5.77.13-7.17C160.5,344.45,160.45,344.23,160.44,344.16Z" />
      <path class="GUNDAN_RAT_OUTFIT_RAT_OUTFIT_10_cls-12" d="M224.68,382.83c-1.92-1.52-7.13-5.64-12.85-10.37l-3.34-2.78c-6.8-5.73-13.59-11.78-15.9-14.93-5.19-7.1,3.15-20-5-24.94-1.23-.75-8.29-1.54-9.29-2.32a105.09,105.09,0,0,1-10.05-9.05h0a3.68,3.68,0,0,0-1.25.81c-.79.79-1.46,2.24-.38,4.75h0c0,.15,0,.31-.07.49-.54,3.71-3.19,12.5-3.43,13.83l0,.16L157,341.35l-.44.21h0" />
      <path class="GUNDAN_RAT_OUTFIT_RAT_OUTFIT_10_cls-12" d="M221.69,385.87l-.3-.24-.18-.15c-.3-.22-.67-.52-1.11-.86l-.47-.38c-1.3-1-3-2.43-5.07-4.06l-1-.82h0c-1.05-.85-2.16-1.75-3.3-2.69l-1.15-1c-.2-.15-.39-.31-.59-.48-1.1-.91-2.22-1.83-3.34-2.78-4.7-4-9.42-8.08-12.66-11.31a32.43,32.43,0,0,1-3.37-3.74c-.63-.86-.12-4.6-.58-5.53q-.39-.78-.72-1.56c-1.39-3.34-2.15-6.94-3.49-10.19l-.24-.56-.23-.51a19.43,19.43,0,0,0-1.08-2l-.45-.68-.23-.31c-.23-.32-.48-.62-.74-.92a12.83,12.83,0,0,0-1.44-1.41l-.28-.23-.37-.29c-.11-.09-.23-.17-.35-.25s-.48-.33-.74-.48l-.45-.28c-1.86-1.14-3.79-2.34-5.53-3.53l-.68-.46c-.52-.36-1-.71-1.47-1.06l-.29-.22a21.71,21.71,0,0,1-2.46-2.12,4.1,4.1,0,0,1-.35-.39l-.3-.36h0l0,0h0" />
      <path class="GUNDAN_RAT_OUTFIT_RAT_OUTFIT_10_cls-12" d="M125,358.43l-1.43.51c.33.28.65.58,1,.88l.25.25a6.14,6.14,0,0,1,.51.51,11,11,0,0,1,.81.87c.3.32.58.64.85,1,.1.11.2.23.29.35l.29.36.1.12c.15.19.3.38.44.58.3.39.59.79.87,1.19l.1.14c.52.75,1,1.52,1.49,2.29h0c.18.29.36.59.52.89s.27.46.39.69c.23.41.45.82.65,1.24s.31.61.45.92a.24.24,0,0,1,.06.11c.11.22.22.45.32.68s.31.69.46,1c0,.1.09.2.13.31q.47,1.1.87,2.22c.15.41.29.81.43,1.22.23.68.45,1.36.66,2.05.1.33.2.66.29,1s.17.57.24.86c.29,1,.55,2.05.78,3.08a3.84,3.84,0,0,1,.11.46c.11.46.21.91.31,1.37l.24,1.14a7.42,7.42,0,0,0-.7,1.76h0c-.7,2.71.16,5.57.42,8.54" />
      <path class="GUNDAN_RAT_OUTFIT_RAT_OUTFIT_10_cls-12" d="M182.58,469.64l-4.21-44.16,0-.15c0-.09.06-.25.13-.5,0-.07,0-.16.05-.25s.1-.37.16-.6c0-.05,0-.11,0-.16s0-.1,0-.16c.24-.94,1-1.8,3.86-4.07l.54-.43.58-.46.31-.24.66-.52.71-.55.76-.59.82-.64.88-.68.93-.72,1.79-1.39,1-.75c.34-.26.68-.51,1-.79l4.63-3.6.73-.59.75-.59.07-.06.69-.56,1.42-1.17c.8-.67,1.61-1.36,2.42-2.06l1.19-1q2.53-2.22,5.11-4.62l2.08-2c.89-.83,1.77-1.68,2.66-2.54.45-.42.89-.85,1.33-1.28l1.33-1.3,1.54-1.53,1.54-1.53.66-.66h0l.86-.87,1.86-1.88.57-.58.56-.58h0c7.09-7.26,13.71-14.39,19-20q3.36.72,6.56,1.63c.4.1.79.22,1.18.33,3,.86,5.78,1.82,8.44,2.83.79.29,1.55.59,2.31.89l.08,0c.92.37,1.81.74,2.69,1.12,1.05.44,2.07.89,3.05,1.34l.1,0,2.34,1.1,1.12.55c.73.35,1.42.7,2.1,1s1.31.68,1.91,1l.79.43.94.52.69.38.11.06.63.36.36.21.1.06" />
      <path class="GUNDAN_RAT_OUTFIT_RAT_OUTFIT_10_cls-12" d="M188.66,470.2c-.35-4.76-2.17-28.29-3.22-41.66,0-.25,0-.51-.07-.76l0-.42v0c0-.05,0-.09,0-.13v0c0-.41-.07-.81-.1-1.19l.63-.43.11-.07,1.16-.83.1-.07.07-.05,0,0,.24-.19.33-.23,0,0,.38-.28,0,0,.13-.1.21-.15a.61.61,0,0,1,.16-.12s0,0,0,0,0,0,.07-.05,0,0,0,0l.08-.07h0l.21-.16.42-.32.3-.24c.19-.16.39-.31.6-.47l.17-.14.23-.17h0l.1-.07,1.25-1,.25-.2.12-.09.11-.09a.93.93,0,0,0,.15-.13l.52-.42c1.13-.93,2.32-1.92,3.54-3l.49-.41.26-.23.11-.09,0,0,.21-.18,1.43-1.24.3-.27,1.06-.92.71-.62.17-.15.58-.51.53-.46.3-.28.26-.23c.09-.09.18-.16.27-.24l1.16-1,.49-.44.34-.31,0,0h0l.07-.06.07-.07.06-.05,2.48-2.25,1.65-1.53.92-.85c.2-.17.39-.35.58-.53l.26-.24,1-1,.28-.27.66-.61.66-.63.28-.26.6-.56h0l0,0a.1.1,0,0,0,0-.05c1.44-1.36,2.88-2.72,4.3-4.09l.15-.15.59-.57,4.17-4.07.22-.23c1.12-1.1,2.22-2.2,3.29-3.28l.65-.66.62-.63.38-.39.26-.27.68-.69.76-.79.21-.21c.36-.36.71-.73,1.05-1.09l.28-.29.29-.31.29-.3,1.42-1.49.42-.45.33-.35s0,0,0,0h0l0,0h0l.23-.25c1.12-1.2,2.19-2.36,3.17-3.47l.35-.39.13-.15.14-.15.36-.41.07-.07.56-.66,0-.05,0,0a.27.27,0,0,0,.07-.08c1.39-1.61,2.6-3.07,3.58-4.36l.52.09.71.14.19,0,.2,0,.49.11.08,0,.11,0h0l.45.1h0l.13,0,.09,0,.29.07.28.07.11,0,.26.07h0l.94.26.26.07,1.06.31.32.1.47.14,2.56.84.65.22.65.23.58.21.11,0,.31.11h0l.25.09.06,0,.66.24.29.12.49.18.54.2.77.3.55.21,0,0,.08,0,.38.15.49.19.14.06.31.12.77.31,2.2.91.15.06,1.28.54c.16.07.33.15.5.21a0,0,0,0,0,0,0l.09,0,.28.12.2.09.14.06.25.11.23.1h0l.12.05.6.26.28.13.33.14h0l.35.16.56.25.23.1.32.15.26.11.29.13h0a.42.42,0,0,0,.14.06l1,.45.27.12.21.09.51.24.34.16,2,.94.43.21.35.16.5.24" />
      <path class="GUNDAN_RAT_OUTFIT_RAT_OUTFIT_10_cls-12" d="M245.37,389.41a3.78,3.78,0,0,0,1.1-2.66,4.25,4.25,0,1,0-4.3,3.95" />
      <path class="GUNDAN_RAT_OUTFIT_RAT_OUTFIT_10_cls-12" d="M261.37,397.33a4.15,4.15,0,0,1,4.21-3.44,4,4,0,1,1,0,7.9,4.3,4.3,0,0,1-3.19-1.36" />
      <path class="GUNDAN_RAT_OUTFIT_RAT_OUTFIT_10_cls-12" d="M262.39,400.43a20.26,20.26,0,0,1-4.17.44,16.81,16.81,0,0,1-7-1.48,20.23,20.23,0,0,1-9-8.69,21.14,21.14,0,0,1-1.6-3.48,1.59,1.59,0,0,1,1.16-2,1.76,1.76,0,0,1,2.16,1.07,18.92,18.92,0,0,0,1.48,3.13,16.84,16.84,0,0,0,7.36,7.08,14.27,14.27,0,0,0,8.64.84,22.57,22.57,0,0,0,3.57-1,1.78,1.78,0,0,1,2.25.92,1.58,1.58,0,0,1-1,2.09A26.42,26.42,0,0,1,262.39,400.43Z" />
      <path class="GUNDAN_RAT_OUTFIT_RAT_OUTFIT_10_cls-12" d="M238.21,403.27h0a3.8,3.8,0,0,0,1.1-2.65,4.26,4.26,0,1,0-4.31,3.95" />
      <path class="GUNDAN_RAT_OUTFIT_RAT_OUTFIT_10_cls-12" d="M254.22,411.19a4.15,4.15,0,0,1,4.2-3.44,4,4,0,1,1,0,7.9,4.32,4.32,0,0,1-3.19-1.36" />
      <path class="GUNDAN_RAT_OUTFIT_RAT_OUTFIT_10_cls-12" d="M255.23,414.29a20.88,20.88,0,0,1-4.16.44,16.81,16.81,0,0,1-7-1.48,20.23,20.23,0,0,1-9-8.69,21.57,21.57,0,0,1-1.6-3.48,1.61,1.61,0,0,1,1.15-2,1.78,1.78,0,0,1,2.17,1.07,18,18,0,0,0,1.48,3.13,16.75,16.75,0,0,0,7.36,7.09,14.26,14.26,0,0,0,8.64.84,24,24,0,0,0,3.57-1,1.76,1.76,0,0,1,2.24.91,1.58,1.58,0,0,1-1,2.1A26.91,26.91,0,0,1,255.23,414.29Z" />
      <path class="GUNDAN_RAT_OUTFIT_RAT_OUTFIT_10_cls-12" d="M231.06,417.12a3.79,3.79,0,0,0,1.11-2.66,4.26,4.26,0,1,0-4.31,4" />
      <path class="GUNDAN_RAT_OUTFIT_RAT_OUTFIT_10_cls-12" d="M247.07,425a4.14,4.14,0,0,1,4.2-3.43,4,4,0,1,1,0,7.9,4.35,4.35,0,0,1-3.19-1.36" />
      <path class="GUNDAN_RAT_OUTFIT_RAT_OUTFIT_10_cls-12" d="M248.08,428.15a21,21,0,0,1-4.17.44,17,17,0,0,1-7-1.48,20.39,20.39,0,0,1-9-8.69,21,21,0,0,1-1.59-3.48,1.6,1.6,0,0,1,1.15-2,1.77,1.77,0,0,1,2.16,1.07,20,20,0,0,0,1.48,3.13,16.83,16.83,0,0,0,7.37,7.09,14.27,14.27,0,0,0,8.64.83,21.82,21.82,0,0,0,3.57-1,1.78,1.78,0,0,1,2.24.92,1.58,1.58,0,0,1-1,2.09A25.72,25.72,0,0,1,248.08,428.15Z" />
      <path class="GUNDAN_RAT_OUTFIT_RAT_OUTFIT_10_cls-12" d="M223.91,431a3.78,3.78,0,0,0,1.1-2.66,4.25,4.25,0,1,0-4.3,4" />
      <path class="GUNDAN_RAT_OUTFIT_RAT_OUTFIT_10_cls-12" d="M240.93,442a21,21,0,0,1-4.17.44,17,17,0,0,1-7-1.48,20.33,20.33,0,0,1-9-8.69,21,21,0,0,1-1.6-3.49,1.6,1.6,0,0,1,1.16-2,1.76,1.76,0,0,1,2.16,1.07,18.92,18.92,0,0,0,1.48,3.13,16.86,16.86,0,0,0,7.36,7.09,14.27,14.27,0,0,0,8.64.83,21.92,21.92,0,0,0,3.58-1,1.76,1.76,0,0,1,2.24.92,1.57,1.57,0,0,1-1,2.09A27.85,27.85,0,0,1,240.93,442Z" />
      <path class="GUNDAN_RAT_OUTFIT_RAT_OUTFIT_10_cls-12" d="M160.44,344.16a1.59,1.59,0,0,1,.12.62,5.91,5.91,0,0,1-1,3S130,359.37,129,359.21a13,13,0,0,1-4.79-4.06" />
      <path class="GUNDAN_RAT_OUTFIT_RAT_OUTFIT_10_cls-12" d="M124.2,355.15c-.75-1.12-1-2.21,0-2.87,2.72-1.83,20-10.3,28.5-12.4,0,0,1.94.75,3.89,1.68,1.78.85,3.57,1.85,3.84,2.57" />
      <path class="GUNDAN_RAT_OUTFIT_RAT_OUTFIT_10_cls-12" d="M160.43,344.13v0c0,.07.06.29.12.62.26,1.4.74,4.8-.13,7.17A216.92,216.92,0,0,1,130,362.71s-5.18-2.31-5.75-7.56h0" />
      <path class="GUNDAN_RAT_OUTFIT_RAT_OUTFIT_10_cls-12" d="M249,340.31a1.79,1.79,0,0,0-.12.61,6,6,0,0,0,1,3s30.45,10.59,31.49,10.42a12.75,12.75,0,0,0,4.44-3.58,5.46,5.46,0,0,0,.36-.48" />
      <path class="GUNDAN_RAT_OUTFIT_RAT_OUTFIT_10_cls-12" d="M286.13,350.3c.74-1.12,1-2.2,0-2.87-2.71-1.83-20.94-9.3-29.42-11.4,0,0-1.49.57-3.17,1.34-2,.91-4.25,2.09-4.56,2.91" />
      <path class="GUNDAN_RAT_OUTFIT_RAT_OUTFIT_10_cls-12" d="M249,340.28a.08.08,0,0,1,0,0c0,.06-.06.29-.12.61-.26,1.41-.74,4.81.13,7.18a152.59,152.59,0,0,0,31.41,9.76s4.79-2.13,5.66-7a5.21,5.21,0,0,0,.09-.59h0" />
      <g class="GUNDAN_RAT_OUTFIT_RAT_OUTFIT_10_cls-13">
        <path d="M169.79,327.65l-.49,12.72a147.73,147.73,0,0,1,15.41,11c-5.44-1.7-19.58-10-19.58-10l-4.45,4.17s-.35-1.75-1.11-2.25-3-1.67-3-1.67l6.51-3.06,3.43-14Z" />
        <path d="M170.9,327.76v15.65a30.91,30.91,0,0,0-10,4.75,2.26,2.26,0,0,0,0-.27,20.81,20.81,0,0,0-.23-2.41h0s0,0,0-.07a5.49,5.49,0,0,0-.1-.57v0h0a1.59,1.59,0,0,0-.12-.62v0a1,1,0,0,0-.22-.34,3.41,3.41,0,0,0-.51-.47h0l-.13-.1h0c-.22-.16-.47-.33-.75-.5h0a21.9,21.9,0,0,0-2.06-1.1h0l-.09-.05,0,0h0l.43-.2,5.82-2.81,3.69-14.05s0-.18.09-.47v0l0,0h0l.3.37a4.1,4.1,0,0,0,.35.39,21.84,21.84,0,0,0,2.46,2.12l.29.22Z" />
        <path d="M274.4,418.57a60.65,60.65,0,0,1-3.13,6.85c-1.85,3.49-3.75,6.45-5.14,8.94-.3.53-.57,1-.81,1.52s-.44.89-.63,1.32c-4.56,1.1-10.26,1.13-17.27-.25q-2.38-.46-5-1.15c-1.34-.36-2.72-.77-4.15-1.22a50.77,50.77,0,0,0-14.21-3.32,47.16,47.16,0,0,0-6.27-.11c-11.05.46-20.9,4.31-31.72,6.36-.29-4.05-.55-7.57-.74-10.15v0c0-.05,0-.08,0-.12h0v0c0-.41-.06-.81-.09-1.19l.63-.43.11-.07,1.16-.83.1-.08a4,4,0,0,0,.35-.26c.12-.09.25-.17.37-.27l.38-.28,0,0,.13-.1.21-.16a1.33,1.33,0,0,1,.19-.14h0a1.1,1.1,0,0,1,.18-.14l.23-.17.41-.32.31-.24c.19-.16.39-.31.6-.47l.17-.14.22-.18.1-.07,1.26-1,.25-.2a.44.44,0,0,0,.11-.09l.12-.1.08-.06c10.09-3.26,19.65-7.08,30.75-5.92a40.51,40.51,0,0,1,8.17,1.73,49.47,49.47,0,0,1,6.41,2.59,49.28,49.28,0,0,0,10.49,3.86,26.23,26.23,0,0,0,5.8.7c11.92,0,18.16-10,22.45-26.33q.12.93.21,1.83a2.09,2.09,0,0,0,.08,1h0A43.94,43.94,0,0,1,274.4,418.57Z" />
        <path d="M157.65,342.42s2.84,2.09-.33,3.16-16.79,7-20.65,8.34-9.93,3.44-9.93,3.44l-1.06-.5-.93-.1s1.48,4.92,5.2,5.95c9-1.9,25-8,30-10.82,1.17-1.73,1-5.46,1-5.46s-.49-2.92-1.21-3.32A9,9,0,0,0,157.65,342.42Z" />
        <path d="M235.08,380.55s-20.37,24.3-29.14,32.3a185,185,0,0,1-17.19,13.86l3.37,43.74-5.6-.43s-5.84-40.88-2.09-46.69,45.71-40.74,61.42-58.27c1.28,1.83.43,2.14.43,2.14l-1.73,2.9Z" />
        <path d="M188.06,338.19a93.46,93.46,0,0,1,2.2,11c1,6.65,33.29,34.78,33.29,34.78l-2.73,2.76L218,389.54s-25.7-22.65-30.37-30.82-7.5-16.66-8.19-20.81a13.26,13.26,0,0,0-2.59-6.27s11.69,2.09,12,3.84A3,3,0,0,1,188.06,338.19Z" />
        <path d="M248.54,343.17s-.51,3.82.24,4.82c8,3.26,18,6.76,23.62,8.08s8,1.79,8,1.79a18.52,18.52,0,0,0,3.47-2.62,7.45,7.45,0,0,0,2-3.59c0-.06-.53-.36-.53-.36s-13-5.47-17-7.14-10.38-4.35-10.84-4.51-4.85-1.58-4.85-1.58-3.74,1.21-3.8,2.25S248.54,343.17,248.54,343.17Z" />
      </g>
      <path class="GUNDAN_RAT_OUTFIT_RAT_OUTFIT_10_cls-12" d="M136.42,390.69v0h0l-.16.53c-2.45,8.22-4.55,16.95,2.88,32.26.17.35.34.72.53,1.08,1,2.06,2.25,4.23,3.65,6.54,6.24,10.5,8.82,19.9,7.72,22.93s-2.25,4.57,2.58,9.73a3.94,3.94,0,0,0,1,.53l.18.07,0,0,.38.14h0l.43.16.3.1.7.22a101.4,101.4,0,0,0,12.22,2.72l1.21.21,3.85.6,1.36.19,1.4.19,1.43.18.56.07,2.39.28,1.4.15h.13l.66.07c1.64.17,3.33.32,5.08.46.11,0,.22,0,.34,0h.18a237.18,237.18,0,0,0,59.39-2.59c.52-.08,1.05-.18,1.57-.28l1.56-.3,1.57-.32,1.25-.25c.41-.09.82-.17,1.22-.27,1.79-.39,3.59-.81,5.38-1.26,3.48-5.79,4.45-6.41,2.37-10.51a6.71,6.71,0,0,1-.35-.77,10.58,10.58,0,0,1-.41-1.16,10.8,10.8,0,0,1-.33-1.44l-.06-.31-.06-.45c0-.18,0-.36-.05-.55s0-.23,0-.35,0-.41,0-.62a.19.19,0,0,1,0-.13,16.79,16.79,0,0,1,.07-1.85v0q0-.39.09-.78a.22.22,0,0,1,0-.08,8.32,8.32,0,0,1,.13-.85,5.79,5.79,0,0,1,.13-.68c0-.14.05-.28.08-.42.09-.41.19-.83.31-1.25s.14-.53.23-.8a.54.54,0,0,1,0-.1c.07-.23.14-.47.22-.71s.19-.55.29-.83q.3-.82.66-1.71c.11-.26.23-.55.35-.82.27-.61.56-1.23.88-1.87s.51-1,.81-1.52c1.39-2.49,3.29-5.45,5.14-8.94a60.65,60.65,0,0,0,3.13-6.85,43.94,43.94,0,0,0,2.91-19h0c0-.34-.05-.68-.08-1a48.76,48.76,0,0,0-1.38-7.88s-.76-6.61.76-8.94l.19-.1c2.25-1.27,2.39-4.75,2.39-4.92h0" />
      <path class="GUNDAN_RAT_OUTFIT_RAT_OUTFIT_10_cls-14" d="M168.26,318.44a28.9,28.9,0,0,1,10.91.22c-1.52,6.33-2.29,7.69-2.29,7.69Z" />
    </g>
  </g>
</svg>