<svg xmlns="http://www.w3.org/2000/svg" viewBox="0 0 432 432">
  <defs>
    <style>.GUNDAN_RAT_OUTFIT_RAT_OUTFIT_28_cls-1{isolation:isolate;}.GUNDAN_RAT_OUTFIT_RAT_OUTFIT_28_cls-2{fill:#b9fedb;}.GUNDAN_RAT_OUTFIT_RAT_OUTFIT_28_cls-3{fill:#b3b3b3;}.GUNDAN_RAT_OUTFIT_RAT_OUTFIT_28_cls-4{fill:#331c16;}.GUNDAN_RAT_OUTFIT_RAT_OUTFIT_28_cls-5{fill:#d3b498;}.GUNDAN_RAT_OUTFIT_RAT_OUTFIT_28_cls-6{fill:#933704;}.GUNDAN_RAT_OUTFIT_RAT_OUTFIT_28_cls-7,.GUNDAN_RAT_OUTFIT_RAT_OUTFIT_28_cls-8{fill:none;stroke:#000;stroke-linecap:round;stroke-linejoin:round;}.GUNDAN_RAT_OUTFIT_RAT_OUTFIT_28_cls-7{stroke-width:1.5px;}.GUNDAN_RAT_OUTFIT_RAT_OUTFIT_28_cls-8{stroke-width:2px;}.GUNDAN_RAT_OUTFIT_RAT_OUTFIT_28_cls-9{opacity:0.22;mix-blend-mode:multiply;}</style>
  </defs>
  <g class="GUNDAN_RAT_OUTFIT_RAT_OUTFIT_28_cls-1">
    <g id="Outfit">
      <path class="GUNDAN_RAT_OUTFIT_RAT_OUTFIT_28_cls-2" d="M196.08,350.16a10.16,10.16,0,0,0-18.66,0,8.17,8.17,0,0,0-.5,2.8,2.09,2.09,0,0,0,0,.25c.14,4.82,4.48,8.69,9.82,8.69s9.82-4,9.82-8.94a1.27,1.27,0,0,0,0-.2A8,8,0,0,0,196.08,350.16Z" />
      <path class="GUNDAN_RAT_OUTFIT_RAT_OUTFIT_28_cls-2" d="M231.34,350.16A9.78,9.78,0,0,0,222,344a10.44,10.44,0,0,0-5.88,1.78,9,9,0,0,0-3.45,4.36,8.16,8.16,0,0,0-.49,2.8c0,4.93,4.4,8.94,9.82,8.94s9.67-3.87,9.81-8.69a2.09,2.09,0,0,0,0-.25A8.16,8.16,0,0,0,231.34,350.16Z" />
      <path class="GUNDAN_RAT_OUTFIT_RAT_OUTFIT_28_cls-3" d="M222,340.67a15.49,15.49,0,0,0-2.06.14h0a13.68,13.68,0,0,0-1.8.37c-1.48.55-2.54,1-2.79,1.1l-.05,0c-.24.13-.48.26-.71.4a13.45,13.45,0,0,0-3.42,2.94,8.67,8.67,0,0,0-.76,1.07l0,0a11.32,11.32,0,0,0-1.87,6.22,11.17,11.17,0,0,0,.27,2.46c1.25,5.6,6.71,9.83,13.23,9.83h.87c4.24-.09,7.17-.88,9.19-2.16,3.39-2.16,4.15-5.75,4.19-9.83V353C236.26,346.18,238.15,340.67,222,340.67Zm9.51,3.33a.94.94,0,1,1-1,.93A1,1,0,0,1,231.52,344Zm-15.38.52a1,1,0,0,1-.85.41,1,1,0,0,1-1-.93.94.94,0,0,1,.5-.81l.13-.06a1.34,1.34,0,0,1,.4-.07,1,1,0,0,1,1,.94A.82.82,0,0,1,216.14,344.52Zm-6.32,9.15a.94.94,0,1,1,1-.94A1,1,0,0,1,209.82,353.67Zm6.25,9.89a.94.94,0,1,1,1-.94A1,1,0,0,1,216.07,363.56ZM222,361.9a10.31,10.31,0,0,1-5.85-1.77,5.49,5.49,0,0,1-.67-.49,9,9,0,0,1-1.58-1.63.21.21,0,0,1,0-.06,8.33,8.33,0,0,1-1.68-5,8.06,8.06,0,0,1,.49-2.79,9.07,9.07,0,0,1,3.45-4.37c.19-.13.39-.26.59-.37A10.42,10.42,0,0,1,222,344a10.64,10.64,0,0,1,2.05.2h0a10,10,0,0,1,3.75,1.53,9,9,0,0,1,3.52,4.41,8.06,8.06,0,0,1,.49,2.79,2.09,2.09,0,0,1,0,.25C231.68,358,227.35,361.9,222,361.9Zm8.79,0a.94.94,0,1,1,1-.94A1,1,0,0,1,230.8,361.9Zm3.25-7.72a.94.94,0,1,1,1-.94A1,1,0,0,1,234.05,354.18Z" />
      <path class="GUNDAN_RAT_OUTFIT_RAT_OUTFIT_28_cls-3" d="M198.47,346.88l-.09-.13a10.53,10.53,0,0,0-.79-1.1,13.39,13.39,0,0,0-4.13-3.34l-.11-.05-1-.41s0,0,0,0l-.74-.3-.48-.18-.41-.15a11.25,11.25,0,0,0-1.18-.27h0a14,14,0,0,0-2.69-.25c-16.14,0-14.24,5.51-14.24,12.29v.29c0,4.06.78,7.65,4.16,9.81l0,0a11.9,11.9,0,0,0,3.29,1.41h0c.38.1.79.2,1.21.28h0a29.4,29.4,0,0,0,5.53.47c.32,0,.63,0,.94,0h0c6.09-.39,11.08-4.48,12.27-9.8h0a11.8,11.8,0,0,0,.26-2.46v-.23A11.32,11.32,0,0,0,198.47,346.88Zm-4-2.88a1,1,0,1,1-1-.94A1,1,0,0,1,194.5,344Zm-19.8,10.18a.94.94,0,1,1,1-.94A1,1,0,0,1,174.7,354.18Zm1.49-9.25a1,1,0,1,1,1,.95A1,1,0,0,1,176.19,344.93Zm1.77,17a.94.94,0,1,1,1-.94A1,1,0,0,1,178,361.9Zm14.72,1.66a.94.94,0,1,1,1-.94A1,1,0,0,1,192.68,363.56Zm-5.94-1.66a10.4,10.4,0,0,1-5.21-1.37,9,9,0,0,1-2-1.47,8.48,8.48,0,0,1-2.64-5.85,2.09,2.09,0,0,1,0-.25,8.31,8.31,0,0,1,.49-2.79,9.8,9.8,0,0,1,9.33-6.15,10.54,10.54,0,0,1,3.4.56,9.38,9.38,0,0,1,5.93,5.59,8,8,0,0,1,.49,2.59,1.41,1.41,0,0,1,0,.2C196.57,357.9,192.17,361.9,186.74,361.9Zm12.2-8.23a.94.94,0,1,1,1-.94A1,1,0,0,1,198.94,353.67Z" />
      <path class="GUNDAN_RAT_OUTFIT_RAT_OUTFIT_28_cls-4" d="M260.43,329.34a4.27,4.27,0,0,0-.08-.55,2.91,2.91,0,0,0-2.29-2.17,32.55,32.55,0,0,1-5.3,5.77c-2.79,2.21-10.36,2.32-10.36,2.32-1.53.74-7.6,4.55-7.6,4.55-2.09-.94-5.31-1.13-9.21-.32a54.62,54.62,0,0,0-7.46,2.25,14.54,14.54,0,0,1,3.88-.52c16.14,0,14.25,5.51,14.25,12.29v.29c0,4.07-.8,7.66-4.19,9.83a16.91,16.91,0,0,0,7.74-8.45s4.71-2.55,6-4.79c0,0,1.31-.68,3.08-1.72,2.84-1.66,6.87-4.2,8.66-6.23a34.56,34.56,0,0,0,4.06-6c.52-.94.81-1.56.81-1.56A12.16,12.16,0,0,1,260.43,329.34Z" />
      <path class="GUNDAN_RAT_OUTFIT_RAT_OUTFIT_28_cls-4" d="M204.38,347.42s-4.73.24-6.79-1.77a11.49,11.49,0,0,1,2.65,7.08,1.69,1.69,0,0,1,0,.23,11.81,11.81,0,0,1-.27,2.46,15.44,15.44,0,0,0,8.8,0,11.81,11.81,0,0,1-.27-2.46,11.49,11.49,0,0,1,2.66-7.31C209.11,347.66,204.38,347.42,204.38,347.42Z" />
      <path class="GUNDAN_RAT_OUTFIT_RAT_OUTFIT_28_cls-4" d="M174,339.26c-.26-.16-6.09-3.83-7.59-4.55,0,0-7.57-.11-10.36-2.32a32.55,32.55,0,0,1-5.3-5.77,2.88,2.88,0,0,0-2.37,2.72,12.11,12.11,0,0,1-2,5,36.08,36.08,0,0,0,1.86,3.35,30.34,30.34,0,0,0,3,4.17,20.14,20.14,0,0,0,3.26,2.78h0c1.76,1.26,3.77,2.49,5.38,3.44,1.78,1,3.08,1.72,3.08,1.72,1.34,2.24,6,4.79,6,4.79a16.88,16.88,0,0,0,7.71,8.43c-3.38-2.16-4.13-5.75-4.16-9.81V353c0-6.78-1.9-12.29,14.25-12.29a14.61,14.61,0,0,1,3.89.52,54.19,54.19,0,0,0-7.46-2.25C179.26,338.13,176.05,338.32,174,339.26Z" />
      <path class="GUNDAN_RAT_OUTFIT_RAT_OUTFIT_28_cls-3" d="M156.81,418.39a37,37,0,0,1,.81,4.32s-9.31,4.45-17.73,5.44a26,26,0,0,1-4,.18c-.59-1.56-.74-19.5-.67-20s2.49-1.54,4-2.27c0,1.24,0,2.46,0,3.58,2.85-.71,10.85-2.73,12.3-3.34a21.77,21.77,0,0,1,1.28,1.9A36.44,36.44,0,0,1,156.81,418.39Z" />
      <path class="GUNDAN_RAT_OUTFIT_RAT_OUTFIT_28_cls-4" d="M166,404.73c3.36,2.86,7,5.81,10.62,8.61-6.14,2-15.6,4.13-19.77,5.05a36.44,36.44,0,0,0-4-10.17C155.59,407.6,160.74,406.37,166,404.73Z" />
      <path class="GUNDAN_RAT_OUTFIT_RAT_OUTFIT_28_cls-5" d="M271.88,427.55l1.21,10.51H221.53a90.65,90.65,0,0,0,12.27-.72C245.25,435.7,266.23,429.31,271.88,427.55Z" />
      <path class="GUNDAN_RAT_OUTFIT_RAT_OUTFIT_28_cls-3" d="M260,395.75l-1.27-1.59a3.51,3.51,0,0,1,2.3.14c1.39.71,5.46,5.94,4.52,8.74-.13.37-.28.8-.46,1.25-1.05,2.64-2.95,6.17-5.7,7a3.45,3.45,0,0,1-.71.15c-3.63.46-7.09-4.62-7.76-6a3.11,3.11,0,0,1,.3-2.53c.46.62.91,1.25,1.34,1.89a8.61,8.61,0,0,0,1.88-1.09c1,1.2,2.45,2.89,3,2.95.89.1,4.07-4.06,4.07-6,0-1.15-1.2-2.44-2.21-3.31C259.76,396.39,260,395.75,260,395.75Z" />
      <path class="GUNDAN_RAT_OUTFIT_RAT_OUTFIT_28_cls-4" d="M274.76,421a7,7,0,0,0-.46-1.9c-.17-.38-.61-1.16-1.21-2.17-2-3.42-6-9.59-8-12.67-1.05,2.64-2.95,6.17-5.7,7,1.92,3,5.75,8.92,8.07,12.31.76,1.11,1.34,1.94,1.66,2.32a2.62,2.62,0,0,0,2.91.49,10.39,10.39,0,0,0,2.65-1.3A17.9,17.9,0,0,0,274.76,421Z" />
      <path class="GUNDAN_RAT_OUTFIT_RAT_OUTFIT_28_cls-4" d="M259.31,397.34c.45-.95.68-1.59.68-1.59l-1.27-1.59L256.2,391l8.18-25.23s-3.57-9.11-7.82-14.05c-1.31.79-2.54,1.47-4.13,2.44,4.25,4.49,6.89,12.66,6.89,12.66s-5.36,18.69-9,26.41A108.84,108.84,0,0,0,229,376.93c-1.3,1-2.62,2-3.92,2.86,4.81,3,17.5,11.53,26.09,23.15.46.62.91,1.25,1.34,1.89a8.61,8.61,0,0,0,1.88-1.09c1,1.2,2.45,2.89,3,2.95.89.1,4.07-4.06,4.07-6C261.52,399.5,260.32,398.21,259.31,397.34Z" />
      <path class="GUNDAN_RAT_OUTFIT_RAT_OUTFIT_28_cls-4" d="M271.88,427.55c-5.65,1.76-26.63,8.15-38.08,9.79a90.65,90.65,0,0,1-12.27.72c-11.23,0-22.54-1.35-23.51-1.74-1.34-.54-2.08-6.57-3.23-8.53-.62-1.08-9.06-7.28-18.21-14.45-3.57-2.8-7.26-5.75-10.62-8.61a110,110,0,0,1-9.57-8.91c12.72-16.56,12-28.4,12-28.4a15.36,15.36,0,0,1,4.08,3.68c1.06,1.47,2.58,3.46,4.24,5.6-1.74,4.84-6.65,18.07-9.68,22.93,10.1,9,28.35,21.28,30.92,23.26s2.84,8.18,4,9.45,21.2,1.37,32.47.51c7.09-.55,22.55-5.57,33-9.23.76,1.11,1.34,1.94,1.66,2.32a2.62,2.62,0,0,0,2.91.49C272,426.85,271.92,427.22,271.88,427.55Z" />
      <path class="GUNDAN_RAT_OUTFIT_RAT_OUTFIT_28_cls-5" d="M273.94,347.06a34.91,34.91,0,0,1,5.47-.8,7.94,7.94,0,0,1,7.44,6.53c1.23,5.28,1,15.64,1.15,17.37,4.1,4,3.24,6.09,2.2,9.1,1.79,5.25,5.73,13.86,7,17.51a19.57,19.57,0,0,1,1.27,4.53s3.12,4.34,4.17,4.75.88,3,.88,3-1.55,4.41-1.41,6,2.76,12,2.76,12l3,10.95H273.09l-1.21-10.51c0-.33.09-.7.14-1.12a10.39,10.39,0,0,0,2.65-1.3,17.9,17.9,0,0,0,.09-4.1,7,7,0,0,0-.46-1.9c-.17-.38-.61-1.16-1.21-2.17-2-3.42-6-9.59-8-12.67.18-.45.33-.88.46-1.25.94-2.8-3.13-8-4.52-8.74a3.51,3.51,0,0,0-2.3-.14L256.2,391l8.18-25.23s-3.57-9.11-7.82-14.05c2.55-1.54,5.37-3.49,11.54-8.82A23.41,23.41,0,0,0,273.94,347.06Z" />
      <path class="GUNDAN_RAT_OUTFIT_RAT_OUTFIT_28_cls-3" d="M243.11,360.24c1.74-1.08,3.72-2.35,6-3.93,1.27-.86,2.34-1.54,3.28-2.13h0c4.25,4.49,6.89,12.66,6.89,12.66s-5.36,18.69-9,26.41A108.84,108.84,0,0,0,229,376.93a42.61,42.61,0,0,0,9.53-10.09c1.29-2.11,2.94-4.44,4.53-6.6Z" />
      <path class="GUNDAN_RAT_OUTFIT_RAT_OUTFIT_28_cls-5" d="M259.38,411.31a3.45,3.45,0,0,1-.71.15c-3.63.46-7.09-4.62-7.76-6a3.11,3.11,0,0,1,.3-2.53c-8.59-11.62-21.28-20.15-26.09-23.15a50.45,50.45,0,0,1-4.56,2.76c-6,3.18-10,6.3-14,7.92s-13.92,3.39-13.92,3.39-6.77-5-10.12-9.48c-1.8-2.41-3.94-5.16-5.87-7.68-1.74,4.84-6.65,18.07-9.68,22.93,10.1,9,28.35,21.28,30.92,23.26s2.84,8.18,4,9.45,21.2,1.37,32.47.51c7.09-.55,22.55-5.57,33-9.23C265.13,420.23,261.3,414.3,259.38,411.31Z" />
      <path class="GUNDAN_RAT_OUTFIT_RAT_OUTFIT_28_cls-5" d="M194.79,427.79c-.62-1.08-9.06-7.28-18.21-14.45-6.14,2-15.6,4.13-19.77,5.05a37,37,0,0,1,.81,4.32s-9.31,4.45-17.73,5.44a26,26,0,0,1-4,.18c-.59-1.56-.74-19.5-.67-20s2.49-1.54,4-2.27c0,1.24,0,2.46,0,3.58,2.85-.71,10.85-2.73,12.3-3.34a21.77,21.77,0,0,1,1.28,1.9c2.8-.62,8-1.85,13.17-3.49a110,110,0,0,1-9.57-8.91c12.72-16.56,12-28.4,12-28.4h0a82.73,82.73,0,0,1-7.86-6.12c-7.19-6.3-15-10.74-17.3-11.13A28.35,28.35,0,0,1,140.8,344c-.26.15-8.16,4.61-11.3,4.94s-13.1-5.62-15.93,2.1c-2.45,6.5,1.42,9.15.3,10.23a35.83,35.83,0,0,0-3.05,4l1.41,2.54s-11.16,34.8-12.35,44-2.38,12.74-2.38,12.74-1,3.79-.59,4.06a30.26,30.26,0,0,1,2.38,4.06l-5.51,5.4H221.53c-11.23,0-22.54-1.35-23.51-1.74C196.68,435.78,195.94,429.75,194.79,427.79Z" />
      <path class="GUNDAN_RAT_OUTFIT_RAT_OUTFIT_28_cls-6" d="M261.65,335.94h0a34.56,34.56,0,0,1-4.06,6c-1.79,2-5.82,4.57-8.66,6.23-1.77,1-3.08,1.72-3.08,1.72-1.33,2.24-6,4.79-6,4.79a16.91,16.91,0,0,1-7.74,8.45c-2.15,1.36-5.34,2.17-10.06,2.17-6.51,0-12-4.23-13.23-9.83h0a15.45,15.45,0,0,1-8.8,0h0c-1.25,5.6-6.7,9.83-13.22,9.83a25.93,25.93,0,0,1-6.76-.76h0a11.89,11.89,0,0,1-3.29-1.4l0,0a16.88,16.88,0,0,1-7.71-8.43s-4.71-2.55-6-4.79c0,0-1.3-.68-3.08-1.72-1.61-.95-3.62-2.18-5.38-3.44h0a20.14,20.14,0,0,1-3.26-2.78,30.34,30.34,0,0,1-3-4.17h0s-6.59,2.57-7.45,3.15c-.4.27-.29,1.53.11,3.15a28.35,28.35,0,0,0,2.39,6.14c2.3.39,10.11,4.83,17.3,11.13a82.73,82.73,0,0,0,7.86,6.12h0a15.36,15.36,0,0,1,4.08,3.68c1.06,1.47,2.58,3.46,4.24,5.6,1.93,2.52,4.07,5.27,5.87,7.68,3.35,4.47,10.12,9.48,10.12,9.48s10-1.76,13.92-3.39,7.95-4.74,14-7.92a50.45,50.45,0,0,0,4.56-2.76c1.3-.87,2.62-1.83,3.92-2.86a42.61,42.61,0,0,0,9.53-10.09c1.29-2.11,2.94-4.44,4.53-6.6h0c1.74-1.08,3.72-2.35,6-3.93,1.27-.86,2.34-1.54,3.28-2.13h0c1.59-1,2.82-1.65,4.13-2.44,2.55-1.54,5.37-3.49,11.54-8.82C266.54,339.18,261.65,335.94,261.65,335.94Z" />
      <path class="GUNDAN_RAT_OUTFIT_RAT_OUTFIT_28_cls-6" d="M264.75,323.1c-.65,2.13-4.21,5.51-4.4,5.69a2.89,2.89,0,0,0-2.29-2.16,32.65,32.65,0,0,1-5.3,5.76c-2.79,2.21-10.36,2.32-10.36,2.32-1.53.74-7.6,4.56-7.6,4.56-1.89-.85-4.7-1.09-8.11-.53-.36.05-.73.12-1.11.2a54.89,54.89,0,0,0-7.45,2.25,13.85,13.85,0,0,0-2.79,1.1l-.05,0c-.24.13-.48.26-.71.4a13.45,13.45,0,0,0-3.42,2.94,8.15,8.15,0,0,1-4.66,1.71h-.05a16.68,16.68,0,0,1-2.07.07,15.51,15.51,0,0,1-2.19-.08h-.06a8.11,8.11,0,0,1-4.54-1.7,13.39,13.39,0,0,0-4.13-3.34l-.11-.05a13,13,0,0,0-2.71-1.06,60.94,60.94,0,0,0-5.82-1.87h0c-.54-.14-1.08-.27-1.61-.38a24.59,24.59,0,0,0-3.85-.49h0a14.12,14.12,0,0,0-3.13.18l-.17,0a9.34,9.34,0,0,0-2.05.61l-.28-.18-1-.64-.52-.32-.57-.35L170.3,337l0,0-.91-.56-.69-.42c-1-.57-1.82-1.06-2.28-1.29h0a35.53,35.53,0,0,1-6.63-.79l-.09,0a9.52,9.52,0,0,1-3.64-1.51c-.29-.23-.58-.47-.86-.73l-.18-.15c-.41-.39-.82-.79-1.2-1.19s-.9-1-1.29-1.43l0,0c-1.06-1.25-1.75-2.23-1.75-2.23a20.6,20.6,0,0,1-.84-2.61h0c-.44-1.75-.7-3.94.27-5.05v0c.08-.1.18-.2.29-.32l.12-.12.13-.13a13.27,13.27,0,0,1,3.35-2.29l.38-.19.82-.38a37.32,37.32,0,0,1,4.93-1.73l.69-.19c1.94-.53,4.25-1,7-1.51l1-.17c2.42-.39,5.15-.75,8.24-1.06l1.35-.13,2.13-.19c-.14,1.11-.28,2.26-.44,3.39-.07.51-.15,1-.24,1.55,0,.18-.07.37-.1.56v0c-.08.43-.16.87-.25,1.3h0l-.27,1.3c-.43,2-.91,4-1.26,5.34v0c-.09.36-.18.69-.25,1v0c-.25.87-.64,2.17-1.07,3.53,1.63.47,3.32.9,5.06,1.27,13.31,2.84,18.52,6.16,24.62,5.82s17.86-4.73,29.87-7.7c-.09-.27-.13-.43-.13-.43-.33-1.15-.64-2.3-.91-3.34-.62-2.37-1.05-4.18-1.05-4.18l1.51.7-.93-3.61c-.11-.48-.21-1-.3-1.6-.21-1.38-.32-3-.39-4.38l1.2.12,1.43.15,1.44.16C255,313.45,264,321.57,264.75,323.1Z" />
      <path class="GUNDAN_RAT_OUTFIT_RAT_OUTFIT_28_cls-7" d="M257.24,323.37c-4-.95-8.56,1.49-20.68,4.47l-.34.09c-12,3-23.83,7.36-29.87,7.7s-11.31-3-24.62-5.82c-1.74-.37-3.43-.8-5.06-1.27a84.49,84.49,0,0,1-13.61-5.18c-3.42-1.66-5.5-3-5.6-3.38-.18-.71,1.75-1.74,2.22-2l.1-.05" />
      <path class="GUNDAN_RAT_OUTFIT_RAT_OUTFIT_28_cls-8" d="M140.9,400.82a121.38,121.38,0,0,1,4.37,33.95" />
      <path class="GUNDAN_RAT_OUTFIT_RAT_OUTFIT_28_cls-8" d="M272,405.89s-2.22,18.64-1.44,28.88" />
      <path class="GUNDAN_RAT_OUTFIT_RAT_OUTFIT_28_cls-7" d="M236.22,327.93c-.09-.27-.13-.43-.13-.43-.33-1.15-.64-2.3-.91-3.34-.62-2.37-1.05-4.18-1.05-4.18l1.51.7-.93-3.61c-.11-.48-.21-1-.3-1.6-.21-1.38-.32-3-.39-4.38" />
      <path class="GUNDAN_RAT_OUTFIT_RAT_OUTFIT_28_cls-7" d="M180.57,310.53c-.14,1.11-.28,2.26-.44,3.39-.07.51-.15,1-.24,1.55,0,.18-.07.37-.1.56h0c-.08.43-.16.87-.25,1.3h0l-.27,1.3c-.43,2-.91,4-1.26,5.34v0c-.09.36-.18.69-.25,1v0c-.25.87-.64,2.17-1.07,3.53" />
      <path class="GUNDAN_RAT_OUTFIT_RAT_OUTFIT_28_cls-7" d="M176.66,363.06c-3.38-2.16-4.13-5.75-4.16-9.81V353c0-6.78-1.9-12.29,14.25-12.29a14.61,14.61,0,0,1,3.89.52,13.93,13.93,0,0,1,2.82,1.12,13.11,13.11,0,0,1,4.13,3.34,11.49,11.49,0,0,1,2.65,7.08,1.69,1.69,0,0,1,0,.23,11.81,11.81,0,0,1-.27,2.46" />
      <path class="GUNDAN_RAT_OUTFIT_RAT_OUTFIT_28_cls-7" d="M180,364.48a11.89,11.89,0,0,1-3.29-1.4" />
      <path class="GUNDAN_RAT_OUTFIT_RAT_OUTFIT_28_cls-7" d="M200,355.42c-1.25,5.6-6.7,9.83-13.22,9.83a25.93,25.93,0,0,1-6.76-.76" />
      <path class="GUNDAN_RAT_OUTFIT_RAT_OUTFIT_28_cls-7" d="M196.56,352.76a1.27,1.27,0,0,1,0,.2c0,4.93-4.4,8.94-9.82,8.94s-9.68-3.87-9.82-8.69a2.09,2.09,0,0,1,0-.25,8.17,8.17,0,0,1,.5-2.8,10.16,10.16,0,0,1,18.66,0A8,8,0,0,1,196.56,352.76Z" />
      <path class="GUNDAN_RAT_OUTFIT_RAT_OUTFIT_28_cls-7" d="M177.42,350.16a10.15,10.15,0,0,0,18.66,0" />
      <path class="GUNDAN_RAT_OUTFIT_RAT_OUTFIT_28_cls-7" d="M193.46,342.31s-1.13-.49-2.82-1.12a54.19,54.19,0,0,0-7.46-2.25c-3.92-.81-7.13-.62-9.23.32a5.88,5.88,0,0,0-1.1.64,8.63,8.63,0,0,0-2.19,2.44A13.22,13.22,0,0,0,169,349.4v5.23a16.88,16.88,0,0,0,7.71,8.43l0,0" />
      <path class="GUNDAN_RAT_OUTFIT_RAT_OUTFIT_28_cls-7" d="M174,339.26h0c-.26-.16-6.09-3.83-7.59-4.55-.63.27-5.73,7.25-3.46,15.13,1.34,2.24,6,4.79,6,4.79" />
      <path class="GUNDAN_RAT_OUTFIT_RAT_OUTFIT_28_cls-7" d="M154.44,344.67a20.14,20.14,0,0,1-3.26-2.78,30.34,30.34,0,0,1-3-4.17,36.08,36.08,0,0,1-1.86-3.35,12.11,12.11,0,0,0,2-5,2.88,2.88,0,0,1,2.37-2.72,32.55,32.55,0,0,0,5.3,5.77c2.79,2.21,10.36,2.32,10.36,2.32l.13.94a13.1,13.1,0,0,0,4.17,6.69" />
      <path class="GUNDAN_RAT_OUTFIT_RAT_OUTFIT_28_cls-7" d="M162.9,349.84s-1.3-.68-3.08-1.72c-1.61-.95-3.62-2.18-5.38-3.44" />
      <path class="GUNDAN_RAT_OUTFIT_RAT_OUTFIT_28_cls-7" d="M161.36,337.72s-2.46,2.92-1.54,10.4" />
      <path class="GUNDAN_RAT_OUTFIT_RAT_OUTFIT_28_cls-7" d="M204.38,347.42s-4.73.24-6.79-1.77" />
      <path class="GUNDAN_RAT_OUTFIT_RAT_OUTFIT_28_cls-7" d="M204.38,356.06a8.67,8.67,0,0,1-4.4-.64h0" />
      <path class="GUNDAN_RAT_OUTFIT_RAT_OUTFIT_28_cls-7" d="M208.78,355.42c1.26,5.6,6.72,9.83,13.23,9.83,4.72,0,7.91-.81,10.06-2.17,3.39-2.17,4.15-5.76,4.19-9.83V353c0-6.78,1.89-12.29-14.25-12.29a14.54,14.54,0,0,0-3.88.52,13.76,13.76,0,0,0-2.84,1.12c-.24.12-.48.26-.71.4a13.24,13.24,0,0,0-3.41,2.94,11.49,11.49,0,0,0-2.66,7.31,11.81,11.81,0,0,0,.27,2.46" />
      <path class="GUNDAN_RAT_OUTFIT_RAT_OUTFIT_28_cls-7" d="M212.68,350.16a8.16,8.16,0,0,0-.49,2.8c0,4.93,4.4,8.94,9.82,8.94s9.67-3.87,9.81-8.69a2.09,2.09,0,0,0,0-.25,8.16,8.16,0,0,0-.49-2.8A9.78,9.78,0,0,0,222,344a10.44,10.44,0,0,0-5.88,1.78A9,9,0,0,0,212.68,350.16Z" />
      <path class="GUNDAN_RAT_OUTFIT_RAT_OUTFIT_28_cls-7" d="M212.68,350.16a10.15,10.15,0,0,0,18.66,0" />
      <path class="GUNDAN_RAT_OUTFIT_RAT_OUTFIT_28_cls-7" d="M215.29,342.31s1.15-.49,2.84-1.12a54.62,54.62,0,0,1,7.46-2.25c3.9-.81,7.12-.62,9.21.32a5.66,5.66,0,0,1,1.11.64,8.78,8.78,0,0,1,2.19,2.44,13.22,13.22,0,0,1,1.71,7.06v5.23a16.91,16.91,0,0,1-7.74,8.45" />
      <path class="GUNDAN_RAT_OUTFIT_RAT_OUTFIT_28_cls-7" d="M234.8,339.26s6.07-3.81,7.6-4.55c.63.27,5.73,7.25,3.45,15.13-1.33,2.24-6,4.79-6,4.79" />
      <path class="GUNDAN_RAT_OUTFIT_RAT_OUTFIT_28_cls-7" d="M245.85,349.84s1.31-.68,3.08-1.72c2.84-1.66,6.87-4.2,8.66-6.23a34.56,34.56,0,0,0,4.06-6c.52-.94.81-1.56.81-1.56a12.16,12.16,0,0,1-2-5,4.27,4.27,0,0,0-.08-.55,2.91,2.91,0,0,0-2.29-2.17,32.55,32.55,0,0,1-5.3,5.77c-2.79,2.21-10.36,2.32-10.36,2.32l-.13.94a13.1,13.1,0,0,1-4.17,6.69" />
      <path d="M234.05,352.3a.94.94,0,1,1-1,.94A1,1,0,0,1,234.05,352.3Z" />
      <path d="M231.52,344a.94.94,0,1,1-1,.93A1,1,0,0,1,231.52,344Z" />
      <path d="M231.83,361a1,1,0,1,1-1-.94A1,1,0,0,1,231.83,361Z" />
      <path d="M216.07,361.68a.94.94,0,1,1-1,.93A1,1,0,0,1,216.07,361.68Z" />
      <path d="M216.33,344a1,1,0,0,1-2.07,0,1,1,0,0,1,.63-.87,1.1,1.1,0,0,1,.4-.08A1,1,0,0,1,216.33,344Z" />
      <path d="M209.82,353.67a.94.94,0,1,1,1-.94A1,1,0,0,1,209.82,353.67Z" />
      <path d="M200,352.73a1,1,0,1,1-1-.94A1,1,0,0,1,200,352.73Z" />
      <path d="M194.5,344a1,1,0,1,1-1-.95A1,1,0,0,1,194.5,344Z" />
      <path d="M193.71,362.61a1,1,0,1,1-1-.93A1,1,0,0,1,193.71,362.61Z" />
      <path d="M178,360a.94.94,0,1,1-1,.94A1,1,0,0,1,178,360Z" />
      <path d="M177.23,344a.94.94,0,1,1-1,.93A1,1,0,0,1,177.23,344Z" />
      <ellipse cx="174.7" cy="353.24" rx="1.03" ry="0.94" />
      <path class="GUNDAN_RAT_OUTFIT_RAT_OUTFIT_28_cls-7" d="M247.4,337.72s2.46,2.92,1.53,10.4" />
      <path class="GUNDAN_RAT_OUTFIT_RAT_OUTFIT_28_cls-7" d="M204.38,347.42s4.73.24,6.79-1.77" />
      <path class="GUNDAN_RAT_OUTFIT_RAT_OUTFIT_28_cls-7" d="M204.38,356.06a8.67,8.67,0,0,0,4.4-.64h0" />
      <path class="GUNDAN_RAT_OUTFIT_RAT_OUTFIT_28_cls-7" d="M234,311.09c1.35.13,2.71.27,4.07.43C255,313.45,264,321.57,264.75,323.1c-.65,2.13-4.21,5.51-4.4,5.69" />
      <path class="GUNDAN_RAT_OUTFIT_RAT_OUTFIT_28_cls-7" d="M180.57,310.53c-15.1,1.23-22.65,3.57-26.54,5.55a12,12,0,0,0-3.89,2.86c-1.79,2,.56,7.69.56,7.69" />
      <path class="GUNDAN_RAT_OUTFIT_RAT_OUTFIT_28_cls-7" d="M252.42,354.18c-.94.59-2,1.27-3.28,2.13-2.31,1.58-4.29,2.85-6,3.93" />
      <path class="GUNDAN_RAT_OUTFIT_RAT_OUTFIT_28_cls-7" d="M261.65,335.93h0s4.89,3.24,6.45,7c-6.17,5.33-9,7.28-11.54,8.82-1.31.79-2.54,1.47-4.13,2.44" />
      <path class="GUNDAN_RAT_OUTFIT_RAT_OUTFIT_28_cls-7" d="M168.35,367.42a15.36,15.36,0,0,1,4.08,3.68c1.06,1.47,2.58,3.46,4.24,5.6,1.93,2.52,4.07,5.27,5.87,7.68,3.35,4.47,10.12,9.48,10.12,9.48s10-1.76,13.92-3.39,7.95-4.74,14-7.92a50.45,50.45,0,0,0,4.56-2.76c1.3-.87,2.62-1.83,3.92-2.86a42.61,42.61,0,0,0,9.53-10.09c1.29-2.11,2.94-4.44,4.53-6.6h0c3.09-4.16,6-7.69,6-7.69" />
      <path class="GUNDAN_RAT_OUTFIT_RAT_OUTFIT_28_cls-7" d="M148.14,337.72s-6.59,2.57-7.45,3.15c-.4.27-.29,1.53.11,3.15a28.35,28.35,0,0,0,2.39,6.14c2.3.39,10.11,4.83,17.3,11.13a82.73,82.73,0,0,0,7.86,6.12" />
      <path class="GUNDAN_RAT_OUTFIT_RAT_OUTFIT_28_cls-7" d="M180,364.48h0c.38.26,12.54,8.7,18,11.83,11.75-6.16,20.16-8.67,25.44-8.67" />
      <path class="GUNDAN_RAT_OUTFIT_RAT_OUTFIT_28_cls-7" d="M179.34,375.85s6,10.15,17.78,13.2" />
      <path class="GUNDAN_RAT_OUTFIT_RAT_OUTFIT_28_cls-7" d="M165.58,361.9s-10.75-8.24-11.14-17.22h0" />
      <path class="GUNDAN_RAT_OUTFIT_RAT_OUTFIT_28_cls-7" d="M278.11,349.23a24.41,24.41,0,0,0-4.17-2.17,23.41,23.41,0,0,1-5.84-4.14" />
      <path class="GUNDAN_RAT_OUTFIT_RAT_OUTFIT_28_cls-7" d="M273.94,347.06a34.91,34.91,0,0,1,5.47-.8,7.94,7.94,0,0,1,7.44,6.53c1.23,5.28,1,15.64,1.15,17.37,4.1,4,3.24,6.09,2.2,9.1,1.79,5.25,5.73,13.86,7,17.51a19.57,19.57,0,0,1,1.27,4.53s3.12,4.34,4.17,4.75.88,3,.88,3-1.55,4.41-1.41,6,2.76,12,2.76,12l3,10.95h-214l5.51-5.4a30.26,30.26,0,0,0-2.38-4.06c-.45-.27.59-4.06.59-4.06s1.2-3.53,2.38-12.74,12.35-44,12.35-44l-1.41-2.54a35.83,35.83,0,0,1,3.05-4c1.12-1.08-2.75-3.73-.3-10.23,2.83-7.72,12.73-1.76,15.93-2.1s11-4.79,11.3-4.94" />
      <path class="GUNDAN_RAT_OUTFIT_RAT_OUTFIT_28_cls-7" d="M144.9,373.88l-5.58,18.69s-.34,1.53,0-6.8l.33-8.33-.49-9.65" />
      <path class="GUNDAN_RAT_OUTFIT_RAT_OUTFIT_28_cls-7" d="M273.9,406.42l-.11,1.39c-.1,2.6-.37,5.92-.7,9.15" />
      <path class="GUNDAN_RAT_OUTFIT_RAT_OUTFIT_28_cls-7" d="M274.65,364.62c1.23,12.76-.32,35.9-.75,41.79" />
      <path class="GUNDAN_RAT_OUTFIT_RAT_OUTFIT_28_cls-7" d="M272,426.43c0,.42-.1.79-.14,1.12" />
      <path class="GUNDAN_RAT_OUTFIT_RAT_OUTFIT_28_cls-7" d="M273.09,438.06l-1.21-10.51c-5.65,1.76-26.63,8.15-38.08,9.79a90.65,90.65,0,0,1-12.27.72c-11.23,0-22.54-1.35-23.51-1.74-1.34-.54-2.08-6.57-3.23-8.53-.62-1.08-9.06-7.28-18.21-14.45-3.57-2.8-7.26-5.75-10.62-8.61a110,110,0,0,1-9.57-8.91c12.72-16.56,12-28.4,12-28.4h0" />
      <path class="GUNDAN_RAT_OUTFIT_RAT_OUTFIT_28_cls-7" d="M176.67,376.7c-1.74,4.84-6.65,18.07-9.68,22.93,10.1,9,28.35,21.28,30.92,23.26s2.84,8.18,4,9.45,21.2,1.37,32.47.51c7.09-.55,22.55-5.57,33-9.23" />
      <path class="GUNDAN_RAT_OUTFIT_RAT_OUTFIT_28_cls-7" d="M140.44,438.06v-2.83s-.26-3.14-.55-7.08" />
      <path class="GUNDAN_RAT_OUTFIT_RAT_OUTFIT_28_cls-7" d="M139.21,409.66c0-1.12,0-2.34,0-3.58.05-6.35.09-13.51.09-13.51" />
      <path class="GUNDAN_RAT_OUTFIT_RAT_OUTFIT_28_cls-7" d="M139.23,406.08c-1.52.73-4,1.94-4,2.27s.08,18.42.67,20a26,26,0,0,0,4-.18c8.42-1,17.73-5.44,17.73-5.44a37,37,0,0,0-.81-4.32,36.44,36.44,0,0,0-4-10.17,21.77,21.77,0,0,0-1.28-1.9c-1.45.61-9.45,2.63-12.3,3.34" />
      <path class="GUNDAN_RAT_OUTFIT_RAT_OUTFIT_28_cls-7" d="M152.79,408.22c2.8-.62,8-1.85,13.17-3.49" />
      <path class="GUNDAN_RAT_OUTFIT_RAT_OUTFIT_28_cls-7" d="M156.81,418.39c4.17-.92,13.63-3.08,19.77-5.05" />
      <path class="GUNDAN_RAT_OUTFIT_RAT_OUTFIT_28_cls-7" d="M225.12,379.79c4.81,3,17.5,11.53,26.09,23.15.46.62.91,1.25,1.34,1.89a8.61,8.61,0,0,0,1.88-1.09,17.7,17.7,0,0,0,4.88-6.4c.45-.95.68-1.59.68-1.59l-1.27-1.59L256.2,391l8.18-25.23s-3.57-9.11-7.82-14.05" />
      <path class="GUNDAN_RAT_OUTFIT_RAT_OUTFIT_28_cls-7" d="M229,376.93a108.84,108.84,0,0,1,21.24,16.32c3.68-7.72,9-26.41,9-26.41s-2.64-8.17-6.89-12.66h0" />
      <path class="GUNDAN_RAT_OUTFIT_RAT_OUTFIT_28_cls-7" d="M259.31,397.34c1,.87,2.21,2.16,2.21,3.31,0,2-3.18,6.14-4.07,6-.57-.06-2-1.75-3-2.95" />
      <path class="GUNDAN_RAT_OUTFIT_RAT_OUTFIT_28_cls-7" d="M258.72,394.16a3.51,3.51,0,0,1,2.3.14c1.39.71,5.46,5.94,4.52,8.74-.13.37-.28.8-.46,1.25-1.05,2.64-2.95,6.17-5.7,7a3.45,3.45,0,0,1-.71.15c-3.63.46-7.09-4.62-7.76-6a3.11,3.11,0,0,1,.3-2.53" />
      <path class="GUNDAN_RAT_OUTFIT_RAT_OUTFIT_28_cls-7" d="M265.08,404.29c2,3.08,6,9.25,8,12.67.6,1,1,1.79,1.21,2.17a7,7,0,0,1,.46,1.9,17.9,17.9,0,0,1-.09,4.1,10.39,10.39,0,0,1-2.65,1.3,2.62,2.62,0,0,1-2.91-.49c-.32-.38-.9-1.21-1.66-2.32-2.32-3.39-6.15-9.32-8.07-12.31" />
      <path class="GUNDAN_RAT_OUTFIT_RAT_OUTFIT_28_cls-7" d="M278.11,371.85s.77,24.17-4.21,34.56h0" />
      <ellipse class="GUNDAN_RAT_OUTFIT_RAT_OUTFIT_28_cls-7" cx="251.18" cy="359.83" rx="2.27" ry="2.07" />
      <line class="GUNDAN_RAT_OUTFIT_RAT_OUTFIT_28_cls-7" x1="248.91" y1="359.83" x2="253.45" y2="359.83" />
      <ellipse class="GUNDAN_RAT_OUTFIT_RAT_OUTFIT_28_cls-7" cx="254.23" cy="368.19" rx="2.27" ry="2.07" />
      <line class="GUNDAN_RAT_OUTFIT_RAT_OUTFIT_28_cls-7" x1="255.06" y1="366.27" x2="253.39" y2="370.12" />
      <ellipse class="GUNDAN_RAT_OUTFIT_RAT_OUTFIT_28_cls-7" cx="247.76" cy="384.75" rx="2.27" ry="2.07" />
      <line class="GUNDAN_RAT_OUTFIT_RAT_OUTFIT_28_cls-7" x1="246.7" y1="382.92" x2="248.83" y2="386.57" />
      <ellipse class="GUNDAN_RAT_OUTFIT_RAT_OUTFIT_28_cls-7" cx="236.78" cy="376.51" rx="2.27" ry="2.07" />
      <line class="GUNDAN_RAT_OUTFIT_RAT_OUTFIT_28_cls-7" x1="234.56" y1="376.1" x2="239.01" y2="376.91" />
      <ellipse class="GUNDAN_RAT_OUTFIT_RAT_OUTFIT_28_cls-7" cx="148.93" cy="411.56" rx="2.27" ry="2.07" />
      <line class="GUNDAN_RAT_OUTFIT_RAT_OUTFIT_28_cls-7" x1="149.76" y1="409.64" x2="148.1" y2="413.48" />
      <ellipse class="GUNDAN_RAT_OUTFIT_RAT_OUTFIT_28_cls-7" cx="151.73" cy="420.19" rx="2.27" ry="2.07" />
      <line class="GUNDAN_RAT_OUTFIT_RAT_OUTFIT_28_cls-7" x1="153.82" y1="421.01" x2="149.65" y2="419.37" />
      <g class="GUNDAN_RAT_OUTFIT_RAT_OUTFIT_28_cls-9">
        <path d="M150.14,318.93s5.8,10.46,16.52,13.31c-4.63-3.25-6.18-5.44-6.18-5.44s13.1,7,23.36,9.8,15,5.64,19.48,5.13,10-1.37,10-1.37,8.48-2.49,11.32-3.15a73.35,73.35,0,0,1,9.94-1.56l-10.22,4c-.39.15-6.29,1.37-9.31,3a14.51,14.51,0,0,0-4.74,4.19,13.29,13.29,0,0,1-4,.53c-2.78.06-7.51,0-7.82-.5s-3.49-4.63-8.22-5.75-6.18-2.81-10.93-2.67-5.65.63-5.65.63l-7.12-4.37s-8.61.59-12.79-4.39l-3.27-3.65S148.77,321.19,150.14,318.93Z" />
        <path d="M164.66,337s-3.94-.15-4.65-.19-8.72-2.67-9.2-3.52A12.5,12.5,0,0,0,148,331l-1.64,3.51a25.5,25.5,0,0,0,5.41,8,43.28,43.28,0,0,0,9.4,6.4l2.48,1.27s-1.52-5.67-.63-8.65A29.79,29.79,0,0,1,164.66,337Z" />
        <path d="M187.7,365.21a39.17,39.17,0,0,0,8.38,3,83.68,83.68,0,0,0,8.3,1.43s10-2.23,10.91-2.2,5.42.37,5.42.37-13.27,3.33-17.05,5.73-5.23,2.58-5.23,2.58-8.09-4.38-10.73-6a52.49,52.49,0,0,1-6.49-5.32Z" />
        <path d="M156.39,350.16s10.35,7.57,14.27,11.74a77.23,77.23,0,0,0,8.33,7.51l12.66,7.5-6.47-6.79s9.64,8.24,16.54,10.11a68.75,68.75,0,0,0,12.49,2.22l19.57-9.74a99.76,99.76,0,0,1-12.79,9.5c-6.15,3.62-6.78,4.36-6.78,4.36a31.71,31.71,0,0,1-11.59,5.15c-7.08,1.59-9.94,2.14-9.94,2.14s-7.89-5.33-12.27-12.3a105.81,105.81,0,0,0-10.13-13.11c-.05-.15-7.84-5.95-12.45-9.39s-13.18-8.43-13.18-8.43l-1.46-.47-2.14-5.24s3.34,1.79,3.62,1.89l4,1.31,6.53,2Z" />
        <path d="M140.16,376.32l.89-13.26,2.06,11.38,5.47-10-4.21,23.42-.93,12.29,2.79,7.67,5.28-1.54s6.93,4.33,9,6.06,12,.3,12,.3l3-.23s7.15,7,9,7.74,10,6.63,10.55,8.16,3.88,9.71,3.88,9.71H94.45l5.47-5s-3.68-4.51-3.12-5,10.37-15.47,12.94-17.29,17.86-15.65,17.86-15.65l-21.1,10.87s9.71-20.92,9.71-24.78-.11-7.93,0-9.25-.78-11.72-.78-11.72l-2-4s3.34-9.29,5.47-9.2a28,28,0,0,1,5.25,1,20.41,20.41,0,0,0,4.54.82,20.62,20.62,0,0,0,3.76-.82l8.61-3.2,2.84,6-7.36,8.17A43,43,0,0,1,140.16,376.32Z" />
        <path d="M169.55,394.64s31.52,20.46,35.68,23.48,14.59,7,14.59,7l41.7-10.46,5.93,9s-20.33,6.78-30,8.82-33.15,2-35.49-.19c-1.9-5.58-2.57-7.94-4.91-9.89S167,399.83,167,399.83Z" />
        <path d="M272,373.21c0,.06-.57,14.88-.87,25.55l-.3,10.67-2.75-16.79,1.27,15.57,1.36,4.92,3.17,4.77,1.21,3-.44,4.25L271.61,427l1.88,11.07h6.37s.74-16,1.86-31.37.89-20.48.89-20.48l-5.21,21.33s.08-17.21,0-24.86-2.9-24.17-2.9-24.17.56,22.05.61,27C273.38,373.34,272,373.21,272,373.21Z" />
        <path d="M237.24,368.19s16.66,7.27,19,11a45.22,45.22,0,0,0,2.54,4l-.24-.22-2.3,8.69,3.79,4.09-2.45,4.65s8.94,14.77,11.9,19.6a62.88,62.88,0,0,1,3.65,6.43s-2.82.2-3,.12-1.67-1.47-5.68-7.59-4.81-7.36-4.81-7.36-5.81-1.3-7.37-4.91-1.23-5.08-1.23-5.08l-1.83-1.67s-15.28-16.22-24-20.15C233.84,373,237.24,368.19,237.24,368.19Z" />
        <path d="M261.49,336.23a43.6,43.6,0,0,1-5.22,7.81c-2.62,2.82-7.69,9.2-7.69,9.2s10.71-9,13.33-11.2,4-2.38,4-2.38-1.3-1.33-1.55-1.55S261.49,336.23,261.49,336.23Z" />
        <path d="M260.87,331.28s-3,4.21-4.67,5.17-8.19,4.22-8.19,4.22l-1.89,1.88s-2.78,4.42-3,4.62-3.3,1.52-3.3,1.52l.22,5.82s2.59-4.9,6.41-5.82,10-4.42,11.73-7,4.29-7.29,4.29-7.29Z" />
        <polygon points="224.06 344.22 213.87 357.95 216.07 360.24 227.82 345.75 224.06 344.22" />
        <polygon points="190.14 344.57 179.57 359.06 181.53 360.53 193.71 346.93 190.14 344.57" />
      </g>
    </g>
  </g>
</svg>