<svg xmlns="http://www.w3.org/2000/svg" viewBox="0 0 432 432">
  <defs>
    <style>.GUNDAN_RAT_OUTFIT_RAT_OUTFIT_30_cls-1{isolation:isolate;}.GUNDAN_RAT_OUTFIT_RAT_OUTFIT_30_cls-2{fill:#8efff9;}.GUNDAN_RAT_OUTFIT_RAT_OUTFIT_30_cls-3{fill:#ddc822;}.GUNDAN_RAT_OUTFIT_RAT_OUTFIT_30_cls-4{fill:#9b4018;}.GUNDAN_RAT_OUTFIT_RAT_OUTFIT_30_cls-5{fill:#25315e;}.GUNDAN_RAT_OUTFIT_RAT_OUTFIT_30_cls-6{fill:#c3891f;}.GUNDAN_RAT_OUTFIT_RAT_OUTFIT_30_cls-7{fill:none;stroke:#000;stroke-linecap:round;stroke-linejoin:round;stroke-width:1.5px;}.GUNDAN_RAT_OUTFIT_RAT_OUTFIT_30_cls-8{opacity:0.22;mix-blend-mode:multiply;}</style>
  </defs>
  <g class="GUNDAN_RAT_OUTFIT_RAT_OUTFIT_30_cls-1">
    <g id="Outfit">
      <path class="GUNDAN_RAT_OUTFIT_RAT_OUTFIT_30_cls-2" d="M199.61,350.16a10.16,10.16,0,0,0-18.66,0,8.16,8.16,0,0,0-.49,2.8,2.09,2.09,0,0,0,0,.25c.14,4.82,4.48,8.69,9.81,8.69s9.82-4,9.82-8.94v-.2A8,8,0,0,0,199.61,350.16Z" />
      <path class="GUNDAN_RAT_OUTFIT_RAT_OUTFIT_30_cls-2" d="M234.88,350.16a9.78,9.78,0,0,0-9.33-6.14,10.39,10.39,0,0,0-5.88,1.78,9,9,0,0,0-3.45,4.36,8.17,8.17,0,0,0-.5,2.8c0,4.93,4.4,8.94,9.83,8.94s9.67-3.87,9.81-8.69a2.09,2.09,0,0,0,0-.25A8.16,8.16,0,0,0,234.88,350.16Z" />
      <path class="GUNDAN_RAT_OUTFIT_RAT_OUTFIT_30_cls-3" d="M225.55,340.67a14.12,14.12,0,0,0-2.17.16,16.21,16.21,0,0,0-1.71.36c-1.48.55-2.54,1-2.79,1.1l0,0c-.24.12-.48.26-.71.4a13.45,13.45,0,0,0-3.42,2.94,8.6,8.6,0,0,0-.68.94s0,0,0,.05a11.28,11.28,0,0,0-1.67,8.78c1.25,5.6,6.71,9.83,13.23,9.83h.87c4.24-.09,7.17-.88,9.19-2.16,3.39-2.16,4.15-5.76,4.18-9.83V353C239.79,346.18,241.69,340.67,225.55,340.67Zm9.51,3.33a.94.94,0,1,1-1,.93A1,1,0,0,1,235.06,344Zm-15.38.52a1,1,0,0,1-.85.41,1,1,0,0,1-1-.93,1,1,0,0,1,.51-.81l.13-.06a1.06,1.06,0,0,1,.4-.08,1,1,0,0,1,1,.95A.82.82,0,0,1,219.68,344.52Zm-6.32,9.15a.94.94,0,1,1,1-.94A1,1,0,0,1,213.36,353.67Zm6.25,9.88a.94.94,0,1,1,1-.94A1,1,0,0,1,219.61,363.55Zm5.94-1.65a10.39,10.39,0,0,1-5.85-1.77,6.79,6.79,0,0,1-.67-.49,9,9,0,0,1-1.58-1.63l0-.06a8.35,8.35,0,0,1-1.68-5,8.16,8.16,0,0,1,.49-2.8,9,9,0,0,1,3.45-4.36c.19-.13.39-.26.59-.37a10.4,10.4,0,0,1,5.29-1.41,10.64,10.64,0,0,1,2,.2h0a10.21,10.21,0,0,1,3.75,1.53,9.09,9.09,0,0,1,3.52,4.41,8.16,8.16,0,0,1,.49,2.8,2.09,2.09,0,0,1,0,.25C235.22,358,230.89,361.9,225.55,361.9Zm8.78,0a.94.94,0,1,1,1-.94A1,1,0,0,1,234.33,361.9Zm3.26-7.72a.94.94,0,1,1,1-.94A1,1,0,0,1,237.59,354.18Z" />
      <path class="GUNDAN_RAT_OUTFIT_RAT_OUTFIT_30_cls-3" d="M202,346.82a.24.24,0,0,0-.06-.09,10.19,10.19,0,0,0-.78-1.08,13.11,13.11,0,0,0-4.13-3.34l-.11-.05-1-.4a.21.21,0,0,0-.1,0l-1.26-.49-.37-.14a9.56,9.56,0,0,0-1.06-.24,13.89,13.89,0,0,0-2.84-.28c-16.14,0-14.24,5.51-14.24,12.29v.29c0,4.06.78,7.65,4.16,9.81l0,0a11.89,11.89,0,0,0,3.29,1.4h0c.38.1.79.2,1.21.28h0a29.4,29.4,0,0,0,5.53.47c.33,0,.65,0,1,0,6.09-.4,11.07-4.48,12.26-9.8h0a11.8,11.8,0,0,0,.26-2.46v-.23A11.26,11.26,0,0,0,202,346.82ZM198,344a1,1,0,1,1-1-.95A1,1,0,0,1,198,344Zm-19.8,10.18a.94.94,0,1,1,1-.94A1,1,0,0,1,178.24,354.18Zm1.49-9.25a1,1,0,1,1,1,.94A1,1,0,0,1,179.73,344.93Zm1.77,17a.94.94,0,1,1,0-1.88.94.94,0,1,1,0,1.88Zm14.72,1.65a.94.94,0,1,1,1-.94A1,1,0,0,1,196.22,363.55Zm-5.94-1.65a10.4,10.4,0,0,1-5.21-1.37,9,9,0,0,1-2-1.47,8.48,8.48,0,0,1-2.64-5.85,2.09,2.09,0,0,1,0-.25,8.16,8.16,0,0,1,.49-2.8,9.79,9.79,0,0,1,9.33-6.14,10.27,10.27,0,0,1,3.4.56h0a9.38,9.38,0,0,1,5.91,5.58,8,8,0,0,1,.49,2.6,1.27,1.27,0,0,1,0,.2C200.11,357.89,195.71,361.9,190.28,361.9Zm12.2-8.23a.94.94,0,1,1,1-.94A1,1,0,0,1,202.48,353.67Z" />
      <path class="GUNDAN_RAT_OUTFIT_RAT_OUTFIT_30_cls-4" d="M264,329.34a3.06,3.06,0,0,0-.07-.55,2.91,2.91,0,0,0-2.29-2.17,32.55,32.55,0,0,1-5.3,5.77c-2.8,2.21-10.36,2.32-10.36,2.32-1.53.74-7.6,4.55-7.6,4.55-2.09-.94-5.31-1.13-9.22-.32a54.46,54.46,0,0,0-7.45,2.25,14.54,14.54,0,0,1,3.88-.52c16.14,0,14.24,5.51,14.24,12.29v.29c0,4.07-.79,7.66-4.19,9.83a16.91,16.91,0,0,0,7.75-8.45s4.71-2.55,6-4.79c0,0,1.3-.68,3.08-1.72,2.84-1.66,6.86-4.2,8.65-6.23a34.69,34.69,0,0,0,4.07-6c.52-.94.81-1.56.81-1.56A12.26,12.26,0,0,1,264,329.34Z" />
      <path class="GUNDAN_RAT_OUTFIT_RAT_OUTFIT_30_cls-4" d="M207.91,347.42s-4.73.24-6.78-1.77a11.49,11.49,0,0,1,2.65,7.08V353a11.17,11.17,0,0,1-.27,2.46,15.44,15.44,0,0,0,8.8,0,11.8,11.8,0,0,1-.26-2.46,11.54,11.54,0,0,1,2.65-7.31C212.65,347.66,207.91,347.42,207.91,347.42Z" />
      <path class="GUNDAN_RAT_OUTFIT_RAT_OUTFIT_30_cls-4" d="M177.49,339.26c-.26-.16-6.1-3.83-7.59-4.55,0,0-7.58-.11-10.37-2.32a32.55,32.55,0,0,1-5.3-5.77,2.89,2.89,0,0,0-2.37,2.72,12,12,0,0,1-2,5,36.08,36.08,0,0,0,1.86,3.35,31.09,31.09,0,0,0,3,4.17,20.26,20.26,0,0,0,3.27,2.78h0c1.75,1.26,3.76,2.49,5.38,3.44s3.08,1.72,3.08,1.72c1.34,2.24,6.05,4.79,6.05,4.79a16.82,16.82,0,0,0,7.71,8.43c-3.38-2.16-4.13-5.75-4.16-9.81V353c0-6.78-1.9-12.29,14.24-12.29a14.63,14.63,0,0,1,3.9.52,54.35,54.35,0,0,0-7.47-2.25C182.8,338.13,179.59,338.32,177.49,339.26Z" />
      <path class="GUNDAN_RAT_OUTFIT_RAT_OUTFIT_30_cls-3" d="M160.35,418.39a39.8,39.8,0,0,1,.81,4.32s-9.31,4.45-17.74,5.44a25.82,25.82,0,0,1-4,.18c-.59-1.56-.75-19.5-.67-20s2.48-1.54,4-2.27c0,1.24,0,2.46,0,3.58,2.85-.71,10.85-2.73,12.3-3.34.46.61.88,1.25,1.28,1.9A36.44,36.44,0,0,1,160.35,418.39Z" />
      <path class="GUNDAN_RAT_OUTFIT_RAT_OUTFIT_30_cls-4" d="M169.5,404.73c3.36,2.86,7.05,5.81,10.62,8.61-6.14,2-15.6,4.13-19.77,5.05a36.44,36.44,0,0,0-4-10.17C159.13,407.6,164.27,406.37,169.5,404.73Z" />
      <path class="GUNDAN_RAT_OUTFIT_RAT_OUTFIT_30_cls-5" d="M275.41,427.55l1.22,10.51H225.07a90.65,90.65,0,0,0,12.27-.72C248.79,435.7,269.77,429.31,275.41,427.55Z" />
      <path class="GUNDAN_RAT_OUTFIT_RAT_OUTFIT_30_cls-3" d="M263.53,395.75l-1.28-1.59a3.5,3.5,0,0,1,2.3.14c1.39.71,5.47,5.94,4.52,8.74-.12.37-.28.8-.46,1.25-1,2.64-2.94,6.17-5.69,7a3.45,3.45,0,0,1-.71.15c-3.63.46-7.09-4.62-7.76-6a3.1,3.1,0,0,1,.29-2.53q.7.93,1.35,1.89a8.61,8.61,0,0,0,1.88-1.09c1,1.2,2.44,2.89,3,2.95.9.1,4.08-4.06,4.08-6,0-1.15-1.2-2.44-2.21-3.31C263.3,396.39,263.53,395.75,263.53,395.75Z" />
      <path class="GUNDAN_RAT_OUTFIT_RAT_OUTFIT_30_cls-4" d="M278.29,421a6.61,6.61,0,0,0-.45-1.9c-.18-.38-.61-1.16-1.21-2.17-2.05-3.42-6-9.59-8-12.67-1,2.64-2.94,6.17-5.69,7,1.92,3,5.75,8.92,8.07,12.31.75,1.11,1.34,1.94,1.65,2.32a2.63,2.63,0,0,0,2.92.49,10.39,10.39,0,0,0,2.65-1.3A18.21,18.21,0,0,0,278.29,421Z" />
      <path class="GUNDAN_RAT_OUTFIT_RAT_OUTFIT_30_cls-4" d="M262.85,397.34c.45-.95.68-1.59.68-1.59l-1.28-1.59L259.74,391l8.18-25.23s-3.57-9.11-7.82-14.05c-1.31.79-2.55,1.47-4.14,2.44,4.26,4.49,6.9,12.66,6.9,12.66s-5.36,18.69-9,26.41a109.15,109.15,0,0,0-21.24-16.32c-1.3,1-2.62,2-3.92,2.86,4.81,3,17.49,11.53,26.08,23.15q.7.93,1.35,1.89a8.61,8.61,0,0,0,1.88-1.09c1,1.2,2.44,2.89,3,2.95.9.1,4.08-4.06,4.08-6C265.06,399.5,263.86,398.21,262.85,397.34Z" />
      <path class="GUNDAN_RAT_OUTFIT_RAT_OUTFIT_30_cls-4" d="M275.41,427.55c-5.64,1.76-26.62,8.15-38.07,9.79a90.65,90.65,0,0,1-12.27.72c-11.23,0-22.55-1.35-23.52-1.74-1.34-.54-2.08-6.57-3.22-8.53-.62-1.08-9.06-7.28-18.21-14.45-3.57-2.8-7.26-5.75-10.62-8.61a110,110,0,0,1-9.57-8.91c12.72-16.56,12-28.4,12-28.4A15.68,15.68,0,0,1,176,371.1c1.06,1.47,2.58,3.46,4.24,5.6-1.75,4.84-6.65,18.07-9.68,22.93,10.1,9,28.35,21.28,30.92,23.26s2.84,8.18,4,9.45,21.2,1.37,32.48.51c7.08-.55,22.55-5.57,33.05-9.23.75,1.11,1.34,1.94,1.65,2.32a2.63,2.63,0,0,0,2.92.49C275.5,426.85,275.46,427.22,275.41,427.55Z" />
      <path class="GUNDAN_RAT_OUTFIT_RAT_OUTFIT_30_cls-5" d="M277.48,347.06a34.7,34.7,0,0,1,5.47-.8,7.94,7.94,0,0,1,7.44,6.53c1.23,5.28,1,15.64,1.15,17.37,4.09,4,3.24,6.09,2.2,9.1,1.78,5.25,5.72,13.86,7,17.51A19.7,19.7,0,0,1,302,401.3s3.13,4.34,4.17,4.75.89,3,.89,3-1.56,4.41-1.41,6,2.75,12,2.75,12l3,10.95H276.63l-1.22-10.51c0-.33.09-.7.15-1.12a10.39,10.39,0,0,0,2.65-1.3,18.21,18.21,0,0,0,.08-4.1,6.61,6.61,0,0,0-.45-1.9c-.18-.38-.61-1.16-1.21-2.17-2.05-3.42-6-9.59-8-12.67.18-.45.34-.88.46-1.25.95-2.8-3.13-8-4.52-8.74a3.5,3.5,0,0,0-2.3-.14L259.74,391l8.18-25.23s-3.57-9.11-7.82-14.05c2.55-1.54,5.37-3.49,11.54-8.82A23.41,23.41,0,0,0,277.48,347.06Z" />
      <path class="GUNDAN_RAT_OUTFIT_RAT_OUTFIT_30_cls-3" d="M246.65,360.24c1.73-1.08,3.71-2.35,6-3.93,1.27-.86,2.34-1.54,3.28-2.13h0c4.26,4.49,6.9,12.66,6.9,12.66s-5.36,18.69-9,26.41a109.15,109.15,0,0,0-21.24-16.32,42.61,42.61,0,0,0,9.53-10.09c1.29-2.11,2.93-4.44,4.53-6.6Z" />
      <path class="GUNDAN_RAT_OUTFIT_RAT_OUTFIT_30_cls-5" d="M262.92,411.31a3.45,3.45,0,0,1-.71.15c-3.63.46-7.09-4.62-7.76-6a3.1,3.1,0,0,1,.29-2.53c-8.59-11.62-21.27-20.15-26.08-23.15a51.88,51.88,0,0,1-4.56,2.76c-6,3.18-10,6.3-14,7.92s-13.92,3.39-13.92,3.39-6.77-5-10.12-9.48c-1.81-2.41-3.94-5.16-5.87-7.68-1.75,4.84-6.65,18.07-9.68,22.93,10.1,9,28.35,21.28,30.92,23.26s2.84,8.18,4,9.45,21.2,1.37,32.48.51c7.08-.55,22.55-5.57,33.05-9.23C268.67,420.23,264.84,414.3,262.92,411.31Z" />
      <path class="GUNDAN_RAT_OUTFIT_RAT_OUTFIT_30_cls-5" d="M198.33,427.79c-.62-1.08-9.06-7.28-18.21-14.45-6.14,2-15.6,4.13-19.77,5.05a39.8,39.8,0,0,1,.81,4.32s-9.31,4.45-17.74,5.44a25.82,25.82,0,0,1-4,.18c-.59-1.56-.75-19.5-.67-20s2.48-1.54,4-2.27c0,1.24,0,2.46,0,3.58,2.85-.71,10.85-2.73,12.3-3.34.46.61.88,1.25,1.28,1.9,2.8-.62,7.94-1.85,13.17-3.49a110,110,0,0,1-9.57-8.91c12.72-16.56,12-28.4,12-28.4h0a81.25,81.25,0,0,1-7.87-6.12c-7.18-6.3-15-10.74-17.3-11.13a28.31,28.31,0,0,1-2.38-6.14c-.26.15-8.16,4.61-11.31,4.94s-13.1-5.62-15.92,2.1c-2.46,6.5,1.41,9.15.3,10.23a34.58,34.58,0,0,0-3,4l1.41,2.54s-11.16,34.8-12.35,44S101,424.54,101,424.54s-1,3.79-.6,4.06,2.39,4.06,2.39,4.06l-5.51,5.4H225.07c-11.23,0-22.55-1.35-23.52-1.74C200.21,435.78,199.47,429.75,198.33,427.79Z" />
      <path class="GUNDAN_RAT_OUTFIT_RAT_OUTFIT_30_cls-6" d="M265.19,335.94h0a34.69,34.69,0,0,1-4.07,6c-1.79,2-5.81,4.57-8.65,6.23-1.78,1-3.08,1.72-3.08,1.72-1.33,2.24-6,4.79-6,4.79a16.91,16.91,0,0,1-7.75,8.45c-2.14,1.36-5.33,2.17-10,2.17-6.52,0-12-4.23-13.23-9.83h0a15.45,15.45,0,0,1-8.8,0h0c-1.25,5.6-6.71,9.83-13.23,9.83a25.9,25.9,0,0,1-6.75-.76h0a11.89,11.89,0,0,1-3.29-1.4l0,0a16.82,16.82,0,0,1-7.71-8.43s-4.71-2.55-6.05-4.79c0,0-1.31-.68-3.08-1.72s-3.63-2.18-5.38-3.44h0a20.26,20.26,0,0,1-3.27-2.78,31.09,31.09,0,0,1-3-4.17h0s-6.6,2.57-7.45,3.15c-.4.27-.3,1.53.11,3.15a28.31,28.31,0,0,0,2.38,6.14c2.31.39,10.12,4.83,17.3,11.13a81.25,81.25,0,0,0,7.87,6.12h0A15.68,15.68,0,0,1,176,371.1c1.06,1.47,2.58,3.46,4.24,5.6,1.93,2.52,4.06,5.27,5.87,7.68,3.35,4.47,10.12,9.48,10.12,9.48s10-1.76,13.92-3.39,7.95-4.74,14-7.92a51.88,51.88,0,0,0,4.56-2.76c1.3-.87,2.62-1.83,3.92-2.86a42.61,42.61,0,0,0,9.53-10.09c1.29-2.11,2.93-4.44,4.53-6.6h0c1.73-1.08,3.71-2.35,6-3.93,1.27-.86,2.34-1.54,3.28-2.13h0c1.59-1,2.83-1.65,4.14-2.44,2.55-1.54,5.37-3.49,11.54-8.82C270.08,339.18,265.19,335.94,265.19,335.94Z" />
      <path class="GUNDAN_RAT_OUTFIT_RAT_OUTFIT_30_cls-6" d="M268.29,323.09c-.65,2.13-4.22,5.52-4.4,5.7a2.91,2.91,0,0,0-2.29-2.17,32.55,32.55,0,0,1-5.3,5.77c-2.79,2.21-10.36,2.32-10.36,2.32-1.53.74-7.6,4.55-7.6,4.55-1.88-.85-4.68-1.08-8.07-.53l-1.15.21a54.46,54.46,0,0,0-7.45,2.25,13.85,13.85,0,0,0-2.79,1.1l0,0c-.24.12-.48.26-.71.4a13.45,13.45,0,0,0-3.42,2.94c-1.22,1.2-3.39,1.6-4.95,1.72a14.86,14.86,0,0,1-1.83.05,16.76,16.76,0,0,1-2-.06c-1.54-.14-3.6-.56-4.78-1.71a13.11,13.11,0,0,0-4.13-3.34l-.11-.05a13.65,13.65,0,0,0-2.71-1.07,57.75,57.75,0,0,0-5.79-1.85c-.57-.15-1.13-.29-1.68-.4a22.54,22.54,0,0,0-3.85-.49h0a14.78,14.78,0,0,0-3.36.21h0a8.59,8.59,0,0,0-1.95.6h0l-.28-.18-1.3-.8c-.6-.38-1.33-.83-2.07-1.27-.31-.2-.63-.39-1-.58l-.69-.42c-1-.58-1.82-1.07-2.28-1.29h0a36.53,36.53,0,0,1-6.51-.75,10.18,10.18,0,0,1-3.85-1.57c-.28-.22-.57-.46-.84-.71h0l-.19-.16c-.42-.39-.82-.79-1.2-1.19L157,330c-.43-.45-.82-.9-1.17-1.31l-.05-.06c-.94-1.14-1.55-2-1.55-2a19.84,19.84,0,0,1-.82-2.58s0,0,0,0c-.44-1.76-.7-3.94.27-5.06v0c1.34-1.52,5.74-5.94,26.85-8.07-.12,1-.25,2-.4,3.06-.07.51-.15,1-.24,1.55,0,.18-.07.37-.1.56v0c-.08.43-.16.87-.25,1.3h0l-.27,1.3c-.43,2-.91,4-1.26,5.34v0c-.09.36-.18.69-.25,1v0c-.19.66-.45,1.55-.76,2.54a79.57,79.57,0,0,0,8.28,2.25c13.32,2.84,18.53,6.16,24.63,5.83,5.49-.32,15.76-4,26.6-6.87-.26-.76-.4-1.26-.4-1.26-.33-1.15-.64-2.3-.91-3.34-.62-2.37-1.05-4.18-1.05-4.18l1.51.7-.93-3.61c-.11-.48-.21-1-.3-1.6a45.63,45.63,0,0,1-.4-4.69c2.5.2,5.06.45,7.62.74C258.58,313.45,267.57,321.57,268.29,323.09Z" />
      <path class="GUNDAN_RAT_OUTFIT_RAT_OUTFIT_30_cls-7" d="M163.32,318s-2.53,1.22-2.32,2c.1.35,2.23,1.74,5.71,3.43A83.91,83.91,0,0,0,177,327.55a79.57,79.57,0,0,0,8.28,2.25c13.32,2.84,18.53,6.16,24.63,5.83,5.49-.32,15.76-4,26.6-6.87,1.2-.32,2.4-.63,3.6-.92,12.13-3,16.67-5.42,20.69-4.47" />
      <path class="GUNDAN_RAT_OUTFIT_RAT_OUTFIT_30_cls-7" d="M236.49,328.76c-.26-.76-.4-1.26-.4-1.26-.33-1.15-.64-2.3-.91-3.34-.62-2.37-1.05-4.18-1.05-4.18l1.51.7-.93-3.61c-.11-.48-.21-1-.3-1.6a45.63,45.63,0,0,1-.4-4.69" />
      <path class="GUNDAN_RAT_OUTFIT_RAT_OUTFIT_30_cls-7" d="M180.53,310.86c-.12,1-.25,2-.4,3.06-.07.51-.15,1-.24,1.55,0,.18-.07.37-.1.56h0c-.08.43-.16.87-.25,1.3h0l-.27,1.3c-.43,2-.91,4-1.26,5.34v0c-.09.36-.18.69-.25,1v0c-.19.66-.45,1.55-.76,2.54" />
      <path class="GUNDAN_RAT_OUTFIT_RAT_OUTFIT_30_cls-7" d="M180.2,363.06c-3.38-2.16-4.13-5.75-4.16-9.81V353c0-6.78-1.9-12.29,14.24-12.29a14.63,14.63,0,0,1,3.9.52,14.17,14.17,0,0,1,2.82,1.12,13.11,13.11,0,0,1,4.13,3.34,11.49,11.49,0,0,1,2.65,7.08V353a11.17,11.17,0,0,1-.27,2.46" />
      <path class="GUNDAN_RAT_OUTFIT_RAT_OUTFIT_30_cls-7" d="M183.52,364.48a11.89,11.89,0,0,1-3.29-1.4" />
      <path class="GUNDAN_RAT_OUTFIT_RAT_OUTFIT_30_cls-7" d="M203.51,355.42c-1.25,5.6-6.71,9.83-13.23,9.83a25.9,25.9,0,0,1-6.75-.76" />
      <path class="GUNDAN_RAT_OUTFIT_RAT_OUTFIT_30_cls-7" d="M200.1,352.76v.2c0,4.93-4.4,8.94-9.82,8.94s-9.67-3.87-9.81-8.69a2.09,2.09,0,0,1,0-.25,8.16,8.16,0,0,1,.49-2.8,10.16,10.16,0,0,1,18.66,0A8,8,0,0,1,200.1,352.76Z" />
      <path class="GUNDAN_RAT_OUTFIT_RAT_OUTFIT_30_cls-7" d="M181,350.16a10.15,10.15,0,0,0,18.66,0" />
      <path class="GUNDAN_RAT_OUTFIT_RAT_OUTFIT_30_cls-7" d="M197,342.31s-1.14-.49-2.82-1.12a54.35,54.35,0,0,0-7.47-2.25c-3.91-.81-7.12-.62-9.22.32a5.57,5.57,0,0,0-1.1.64,8.48,8.48,0,0,0-2.19,2.44,13.22,13.22,0,0,0-1.71,7.06v5.23a16.82,16.82,0,0,0,7.71,8.43l0,0" />
      <path class="GUNDAN_RAT_OUTFIT_RAT_OUTFIT_30_cls-7" d="M177.5,339.26h0c-.26-.16-6.1-3.83-7.59-4.55-.63.27-5.73,7.25-3.46,15.13,1.34,2.24,6.05,4.79,6.05,4.79" />
      <path class="GUNDAN_RAT_OUTFIT_RAT_OUTFIT_30_cls-7" d="M158,344.67a20.26,20.26,0,0,1-3.27-2.78,31.09,31.09,0,0,1-3-4.17,36.08,36.08,0,0,1-1.86-3.35,12,12,0,0,0,2-5,2.89,2.89,0,0,1,2.37-2.72,32.55,32.55,0,0,0,5.3,5.77c2.79,2.21,10.37,2.32,10.37,2.32l.13.94a13,13,0,0,0,4.17,6.69" />
      <path class="GUNDAN_RAT_OUTFIT_RAT_OUTFIT_30_cls-7" d="M166.44,349.84s-1.31-.68-3.08-1.72-3.63-2.18-5.38-3.44" />
      <path class="GUNDAN_RAT_OUTFIT_RAT_OUTFIT_30_cls-7" d="M164.89,337.72s-2.46,2.92-1.53,10.4" />
      <path class="GUNDAN_RAT_OUTFIT_RAT_OUTFIT_30_cls-7" d="M207.91,347.42s-4.73.24-6.78-1.77" />
      <path class="GUNDAN_RAT_OUTFIT_RAT_OUTFIT_30_cls-7" d="M207.91,356.06a8.67,8.67,0,0,1-4.4-.64h0" />
      <path class="GUNDAN_RAT_OUTFIT_RAT_OUTFIT_30_cls-7" d="M212.32,355.42c1.25,5.6,6.71,9.83,13.23,9.83,4.72,0,7.91-.81,10-2.17,3.4-2.17,4.16-5.76,4.19-9.83V353c0-6.78,1.9-12.29-14.24-12.29a14.54,14.54,0,0,0-3.88.52,13.76,13.76,0,0,0-2.84,1.12c-.24.12-.48.26-.71.4a13.28,13.28,0,0,0-3.42,2.94,11.54,11.54,0,0,0-2.65,7.31,11.8,11.8,0,0,0,.26,2.46" />
      <path class="GUNDAN_RAT_OUTFIT_RAT_OUTFIT_30_cls-7" d="M216.22,350.16a8.17,8.17,0,0,0-.5,2.8c0,4.93,4.4,8.94,9.83,8.94s9.67-3.87,9.81-8.69a2.09,2.09,0,0,0,0-.25,8.16,8.16,0,0,0-.49-2.8,9.78,9.78,0,0,0-9.33-6.14,10.39,10.39,0,0,0-5.88,1.78A9,9,0,0,0,216.22,350.16Z" />
      <path class="GUNDAN_RAT_OUTFIT_RAT_OUTFIT_30_cls-7" d="M216.22,350.16a10.15,10.15,0,0,0,18.66,0" />
      <path class="GUNDAN_RAT_OUTFIT_RAT_OUTFIT_30_cls-7" d="M218.83,342.31s1.15-.49,2.84-1.12a54.46,54.46,0,0,1,7.45-2.25c3.91-.81,7.13-.62,9.22.32a5.57,5.57,0,0,1,1.1.64,8.48,8.48,0,0,1,2.19,2.44,13.12,13.12,0,0,1,1.72,7.06v5.23a16.91,16.91,0,0,1-7.75,8.45" />
      <path class="GUNDAN_RAT_OUTFIT_RAT_OUTFIT_30_cls-7" d="M238.34,339.26s6.07-3.81,7.6-4.55c.63.27,5.73,7.25,3.45,15.13-1.33,2.24-6,4.79-6,4.79" />
      <path class="GUNDAN_RAT_OUTFIT_RAT_OUTFIT_30_cls-7" d="M249.39,349.84s1.3-.68,3.08-1.72c2.84-1.66,6.86-4.2,8.65-6.23a34.69,34.69,0,0,0,4.07-6c.52-.94.81-1.56.81-1.56a12.26,12.26,0,0,1-2-5,3.06,3.06,0,0,0-.07-.55,2.91,2.91,0,0,0-2.29-2.17,32.55,32.55,0,0,1-5.3,5.77c-2.8,2.21-10.36,2.32-10.36,2.32l-.14.94a13,13,0,0,1-4.17,6.69" />
      <path d="M237.59,352.3a.94.94,0,1,1-1,.94A1,1,0,0,1,237.59,352.3Z" />
      <path d="M235.06,344a.94.94,0,1,1-1,.93A1,1,0,0,1,235.06,344Z" />
      <path d="M235.37,361a1,1,0,1,1-1-.94A1,1,0,0,1,235.37,361Z" />
      <path d="M219.61,361.68a.94.94,0,1,1-1,.93A1,1,0,0,1,219.61,361.68Z" />
      <path d="M219.86,344a1,1,0,0,1-2.07,0,1,1,0,0,1,.64-.87,1.06,1.06,0,0,1,.4-.08A1,1,0,0,1,219.86,344Z" />
      <path d="M213.36,353.67a.94.94,0,1,1,1-.94A1,1,0,0,1,213.36,353.67Z" />
      <path d="M203.51,352.73a1,1,0,1,1-1-.94A1,1,0,0,1,203.51,352.73Z" />
      <path d="M198,344a1,1,0,1,1-1-.95A1,1,0,0,1,198,344Z" />
      <path d="M197.25,362.61a1,1,0,1,1-1-.93A1,1,0,0,1,197.25,362.61Z" />
      <path d="M181.5,360a.94.94,0,1,1-1,.94A1,1,0,0,1,181.5,360Z" />
      <path d="M180.77,344a.94.94,0,1,1,0,1.87.94.94,0,1,1,0-1.87Z" />
      <ellipse cx="178.24" cy="353.24" rx="1.03" ry="0.94" />
      <path class="GUNDAN_RAT_OUTFIT_RAT_OUTFIT_30_cls-7" d="M250.94,337.72s2.46,2.92,1.53,10.4" />
      <path class="GUNDAN_RAT_OUTFIT_RAT_OUTFIT_30_cls-7" d="M207.91,347.42s4.74.24,6.79-1.77" />
      <path class="GUNDAN_RAT_OUTFIT_RAT_OUTFIT_30_cls-7" d="M207.91,356.06a8.67,8.67,0,0,0,4.4-.64h0" />
      <path class="GUNDAN_RAT_OUTFIT_RAT_OUTFIT_30_cls-7" d="M263.89,328.79c.18-.18,3.75-3.57,4.4-5.7-.72-1.52-9.71-9.64-26.66-11.57-2.56-.29-5.12-.54-7.62-.74" />
      <path class="GUNDAN_RAT_OUTFIT_RAT_OUTFIT_30_cls-7" d="M180.53,310.86c-21.11,2.13-25.51,6.55-26.85,8.07v0c-1,1.12-.71,3.3-.27,5.06,0,0,0,0,0,0a19.84,19.84,0,0,0,.82,2.58" />
      <path class="GUNDAN_RAT_OUTFIT_RAT_OUTFIT_30_cls-7" d="M256,354.18c-.94.59-2,1.27-3.28,2.13-2.32,1.58-4.3,2.85-6,3.93" />
      <path class="GUNDAN_RAT_OUTFIT_RAT_OUTFIT_30_cls-7" d="M265.19,335.93h0s4.89,3.24,6.45,7c-6.17,5.33-9,7.28-11.54,8.82-1.31.79-2.55,1.47-4.14,2.44" />
      <path class="GUNDAN_RAT_OUTFIT_RAT_OUTFIT_30_cls-7" d="M171.89,367.42A15.68,15.68,0,0,1,176,371.1c1.06,1.47,2.58,3.46,4.24,5.6,1.93,2.52,4.06,5.27,5.87,7.68,3.35,4.47,10.12,9.48,10.12,9.48s10-1.76,13.92-3.39,7.95-4.74,14-7.92a51.88,51.88,0,0,0,4.56-2.76c1.3-.87,2.62-1.83,3.92-2.86a42.61,42.61,0,0,0,9.53-10.09c1.29-2.11,2.93-4.44,4.53-6.6h0c3.09-4.16,6-7.69,6-7.69" />
      <path class="GUNDAN_RAT_OUTFIT_RAT_OUTFIT_30_cls-7" d="M151.68,337.72s-6.6,2.57-7.45,3.15c-.4.27-.3,1.53.11,3.15a28.31,28.31,0,0,0,2.38,6.14c2.31.39,10.12,4.83,17.3,11.13a81.25,81.25,0,0,0,7.87,6.12" />
      <path class="GUNDAN_RAT_OUTFIT_RAT_OUTFIT_30_cls-7" d="M183.52,364.48h0c.38.26,12.53,8.7,18,11.83,11.76-6.16,20.16-8.67,25.45-8.67" />
      <path class="GUNDAN_RAT_OUTFIT_RAT_OUTFIT_30_cls-7" d="M182.88,375.85s6,10.15,17.78,13.2" />
      <path class="GUNDAN_RAT_OUTFIT_RAT_OUTFIT_30_cls-7" d="M169.11,361.9s-10.74-8.24-11.13-17.22h0" />
      <path class="GUNDAN_RAT_OUTFIT_RAT_OUTFIT_30_cls-7" d="M281.65,349.23a25,25,0,0,0-4.17-2.17,23.41,23.41,0,0,1-5.84-4.14" />
      <path class="GUNDAN_RAT_OUTFIT_RAT_OUTFIT_30_cls-7" d="M277.48,347.06a34.7,34.7,0,0,1,5.47-.8,7.94,7.94,0,0,1,7.44,6.53c1.23,5.28,1,15.64,1.15,17.37,4.09,4,3.24,6.09,2.2,9.1,1.78,5.25,5.72,13.86,7,17.51A19.7,19.7,0,0,1,302,401.3s3.13,4.34,4.17,4.75.89,3,.89,3-1.56,4.41-1.41,6,2.75,12,2.75,12l3,10.95h-214l5.51-5.4s-1.94-3.79-2.39-4.06.6-4.06.6-4.06,1.19-3.53,2.38-12.74,12.35-44,12.35-44l-1.41-2.54a34.58,34.58,0,0,1,3-4c1.11-1.08-2.76-3.73-.3-10.23,2.82-7.72,12.72-1.76,15.92-2.1s11.05-4.79,11.31-4.94" />
      <path class="GUNDAN_RAT_OUTFIT_RAT_OUTFIT_30_cls-7" d="M148.44,373.88l-5.59,18.69s-.33,1.53,0-6.8l.34-8.33-.49-9.65" />
      <path class="GUNDAN_RAT_OUTFIT_RAT_OUTFIT_30_cls-7" d="M277.43,406.42c-.06.89-.1,1.39-.1,1.39-.1,2.6-.38,5.92-.7,9.15" />
      <path class="GUNDAN_RAT_OUTFIT_RAT_OUTFIT_30_cls-7" d="M278.19,364.62c1.22,12.76-.32,35.9-.76,41.79" />
      <path class="GUNDAN_RAT_OUTFIT_RAT_OUTFIT_30_cls-7" d="M275.56,426.43c-.06.42-.1.79-.15,1.12" />
      <path class="GUNDAN_RAT_OUTFIT_RAT_OUTFIT_30_cls-7" d="M276.63,438.06l-1.22-10.51c-5.64,1.76-26.62,8.15-38.07,9.79a90.65,90.65,0,0,1-12.27.72c-11.23,0-22.55-1.35-23.52-1.74-1.34-.54-2.08-6.57-3.22-8.53-.62-1.08-9.06-7.28-18.21-14.45-3.57-2.8-7.26-5.75-10.62-8.61a110,110,0,0,1-9.57-8.91c12.72-16.56,12-28.4,12-28.4h0" />
      <path class="GUNDAN_RAT_OUTFIT_RAT_OUTFIT_30_cls-7" d="M180.21,376.7c-1.75,4.84-6.65,18.07-9.68,22.93,10.1,9,28.35,21.28,30.92,23.26s2.84,8.18,4,9.45,21.2,1.37,32.48.51c7.08-.55,22.55-5.57,33.05-9.23" />
      <path class="GUNDAN_RAT_OUTFIT_RAT_OUTFIT_30_cls-7" d="M144,438.06v-2.83s-.26-3.14-.56-7.08" />
      <path class="GUNDAN_RAT_OUTFIT_RAT_OUTFIT_30_cls-7" d="M142.75,409.66c0-1.12,0-2.34,0-3.58,0-6.35.08-13.51.08-13.51" />
      <path class="GUNDAN_RAT_OUTFIT_RAT_OUTFIT_30_cls-7" d="M142.77,406.08c-1.53.73-4,1.94-4,2.27s.08,18.42.67,20a25.82,25.82,0,0,0,4-.18c8.43-1,17.74-5.44,17.74-5.44a39.8,39.8,0,0,0-.81-4.32,36.44,36.44,0,0,0-4-10.17c-.4-.65-.82-1.29-1.28-1.9-1.45.61-9.45,2.63-12.3,3.34" />
      <path class="GUNDAN_RAT_OUTFIT_RAT_OUTFIT_30_cls-7" d="M156.33,408.22c2.8-.62,7.94-1.85,13.17-3.49" />
      <path class="GUNDAN_RAT_OUTFIT_RAT_OUTFIT_30_cls-7" d="M160.35,418.39c4.17-.92,13.63-3.08,19.77-5.05" />
      <path class="GUNDAN_RAT_OUTFIT_RAT_OUTFIT_30_cls-7" d="M228.66,379.79c4.81,3,17.49,11.53,26.08,23.15q.7.93,1.35,1.89a8.61,8.61,0,0,0,1.88-1.09,17.81,17.81,0,0,0,4.88-6.4c.45-.95.68-1.59.68-1.59l-1.28-1.59L259.74,391l8.18-25.23s-3.57-9.11-7.82-14.05" />
      <path class="GUNDAN_RAT_OUTFIT_RAT_OUTFIT_30_cls-7" d="M232.58,376.93a109.15,109.15,0,0,1,21.24,16.32c3.68-7.72,9-26.41,9-26.41s-2.64-8.17-6.9-12.66h0" />
      <path class="GUNDAN_RAT_OUTFIT_RAT_OUTFIT_30_cls-7" d="M262.85,397.34c1,.87,2.21,2.16,2.21,3.31,0,2-3.18,6.14-4.08,6-.57-.06-2-1.75-3-2.95" />
      <path class="GUNDAN_RAT_OUTFIT_RAT_OUTFIT_30_cls-7" d="M262.25,394.16a3.5,3.5,0,0,1,2.3.14c1.39.71,5.47,5.94,4.52,8.74-.12.37-.28.8-.46,1.25-1,2.64-2.94,6.17-5.69,7a3.45,3.45,0,0,1-.71.15c-3.63.46-7.09-4.62-7.76-6a3.1,3.1,0,0,1,.29-2.53" />
      <path class="GUNDAN_RAT_OUTFIT_RAT_OUTFIT_30_cls-7" d="M268.61,404.29c2,3.08,6,9.25,8,12.67.6,1,1,1.79,1.21,2.17a6.61,6.61,0,0,1,.45,1.9,18.21,18.21,0,0,1-.08,4.1,10.39,10.39,0,0,1-2.65,1.3,2.63,2.63,0,0,1-2.92-.49c-.31-.38-.9-1.21-1.65-2.32-2.32-3.39-6.15-9.32-8.07-12.31" />
      <path class="GUNDAN_RAT_OUTFIT_RAT_OUTFIT_30_cls-7" d="M281.65,371.85s.76,24.17-4.22,34.56h0" />
      <ellipse class="GUNDAN_RAT_OUTFIT_RAT_OUTFIT_30_cls-7" cx="254.71" cy="359.83" rx="2.27" ry="2.07" />
      <line class="GUNDAN_RAT_OUTFIT_RAT_OUTFIT_30_cls-7" x1="252.44" y1="359.83" x2="256.98" y2="359.83" />
      <ellipse class="GUNDAN_RAT_OUTFIT_RAT_OUTFIT_30_cls-7" cx="257.76" cy="368.19" rx="2.27" ry="2.07" />
      <line class="GUNDAN_RAT_OUTFIT_RAT_OUTFIT_30_cls-7" x1="258.6" y1="366.27" x2="256.93" y2="370.12" />
      <ellipse class="GUNDAN_RAT_OUTFIT_RAT_OUTFIT_30_cls-7" cx="251.3" cy="384.75" rx="2.27" ry="2.07" />
      <line class="GUNDAN_RAT_OUTFIT_RAT_OUTFIT_30_cls-7" x1="250.24" y1="382.92" x2="252.36" y2="386.57" />
      <ellipse class="GUNDAN_RAT_OUTFIT_RAT_OUTFIT_30_cls-7" cx="240.32" cy="376.51" rx="2.27" ry="2.07" />
      <line class="GUNDAN_RAT_OUTFIT_RAT_OUTFIT_30_cls-7" x1="238.09" y1="376.1" x2="242.54" y2="376.91" />
      <ellipse class="GUNDAN_RAT_OUTFIT_RAT_OUTFIT_30_cls-7" cx="152.47" cy="411.56" rx="2.27" ry="2.07" />
      <line class="GUNDAN_RAT_OUTFIT_RAT_OUTFIT_30_cls-7" x1="153.3" y1="409.64" x2="151.64" y2="413.48" />
      <ellipse class="GUNDAN_RAT_OUTFIT_RAT_OUTFIT_30_cls-7" cx="155.27" cy="420.19" rx="2.27" ry="2.07" />
      <line class="GUNDAN_RAT_OUTFIT_RAT_OUTFIT_30_cls-7" x1="157.36" y1="421.01" x2="153.19" y2="419.37" />
      <g class="GUNDAN_RAT_OUTFIT_RAT_OUTFIT_30_cls-8">
        <path d="M153.68,318.93s5.8,10.46,16.51,13.31C165.56,329,164,326.8,164,326.8s13.09,7,23.36,9.8,15,5.64,19.48,5.13,10-1.37,10-1.37,8.49-2.49,11.33-3.15a73.12,73.12,0,0,1,9.93-1.56l-10.21,4c-.39.15-6.29,1.37-9.31,3a14.51,14.51,0,0,0-4.74,4.19,13.29,13.29,0,0,1-4,.53c-2.78.06-7.51,0-7.82-.5s-3.49-4.63-8.22-5.75-6.19-2.81-10.93-2.67-5.66.63-5.66.63l-7.12-4.37s-8.6.59-12.78-4.39L154,326.67S152.31,321.19,153.68,318.93Z" />
        <path d="M168.2,337s-3.94-.15-4.66-.19-8.71-2.67-9.19-3.52a12.72,12.72,0,0,0-2.82-2.34l-1.65,3.51a25.71,25.71,0,0,0,5.41,8,43.49,43.49,0,0,0,9.41,6.4l2.48,1.27s-1.52-5.67-.63-8.65A29.79,29.79,0,0,1,168.2,337Z" />
        <path d="M191.24,365.21a39.21,39.21,0,0,0,8.37,3,84.21,84.21,0,0,0,8.3,1.43s10-2.23,10.92-2.2,5.42.37,5.42.37-13.28,3.33-17.06,5.73S202,376.1,202,376.1s-8.1-4.38-10.73-6a52.89,52.89,0,0,1-6.5-5.32Z" />
        <path d="M159.93,350.16s10.34,7.57,14.27,11.74a77.67,77.67,0,0,0,8.32,7.51l12.67,7.5-6.47-6.79s9.64,8.24,16.54,10.11a68.73,68.73,0,0,0,12.48,2.22l19.58-9.74a99.76,99.76,0,0,1-12.79,9.5c-6.15,3.62-6.79,4.36-6.79,4.36a31.6,31.6,0,0,1-11.58,5.15c-7.08,1.59-9.94,2.14-9.94,2.14s-7.9-5.33-12.27-12.3a105.81,105.81,0,0,0-10.13-13.11c0-.15-7.85-5.95-12.45-9.39s-13.19-8.43-13.19-8.43l-1.46-.47-2.13-5.24s3.34,1.79,3.62,1.89l4,1.31,6.53,2Z" />
        <path d="M143.7,376.32l.89-13.26,2.06,11.38,5.47-10-4.21,23.42L147,400.19l2.78,7.67,5.29-1.54s6.93,4.33,9,6.06,11.95.3,11.95.3l3-.23s7.15,7,9.06,7.74,10,6.63,10.55,8.16,3.88,9.71,3.88,9.71H98l5.47-5s-3.68-4.51-3.13-5,10.38-15.47,13-17.29,17.85-15.65,17.85-15.65L110,406.08s9.71-20.92,9.71-24.78-.11-7.93,0-9.25-.78-11.72-.78-11.72l-2-4s3.34-9.29,5.46-9.2a27.76,27.76,0,0,1,5.25,1,20.41,20.41,0,0,0,4.54.82,20.4,20.4,0,0,0,3.76-.82l8.62-3.2,2.84,6-7.37,8.17A42.87,42.87,0,0,1,143.7,376.32Z" />
        <path d="M173.09,394.64s31.51,20.46,35.68,23.48,14.58,7,14.58,7l41.71-10.46,5.93,9s-20.33,6.78-30,8.82-33.14,2-35.48-.19c-1.91-5.58-2.57-7.94-4.91-9.89s-30.08-22.53-30.08-22.53Z" />
        <path d="M275.56,373.21c-.05.06-.57,14.88-.87,25.55l-.3,10.67-2.75-16.79,1.26,15.57,1.37,4.92,3.16,4.77,1.22,3-.44,4.25L275.15,427,277,438.06h6.36s.75-16,1.86-31.37.9-20.48.9-20.48l-5.21,21.33s.07-17.21,0-24.86-2.9-24.17-2.9-24.17.55,22.05.61,27C276.92,373.34,275.56,373.21,275.56,373.21Z" />
        <path d="M240.78,368.19s16.65,7.27,19,11,2.53,4,2.53,4L262,383l-2.3,8.69,3.79,4.09-2.45,4.65S270,415.17,273,420a62.88,62.88,0,0,1,3.65,6.43s-2.82.2-3,.12-1.66-1.47-5.67-7.59l-4.82-7.36s-5.8-1.3-7.36-4.91-1.23-5.08-1.23-5.08l-1.83-1.67s-15.28-16.22-24-20.15C237.38,373,240.78,368.19,240.78,368.19Z" />
        <path d="M265,336.23a44.21,44.21,0,0,1-5.22,7.81c-2.62,2.82-7.69,9.2-7.69,9.2s10.7-9,13.33-11.2,4-2.38,4-2.38-1.29-1.33-1.54-1.55S265,336.23,265,336.23Z" />
        <path d="M264.41,331.28s-3,4.21-4.67,5.17-8.19,4.22-8.19,4.22l-1.89,1.88s-2.79,4.42-3,4.62-3.3,1.52-3.3,1.52l.22,5.82s2.59-4.9,6.4-5.82,10-4.42,11.73-7,4.3-7.29,4.3-7.29Z" />
        <polygon points="227.59 344.22 217.4 357.95 219.61 360.24 231.36 345.75 227.59 344.22" />
        <polygon points="193.68 344.57 183.1 359.06 185.07 360.53 197.25 346.93 193.68 344.57" />
      </g>
    </g>
  </g>
</svg>