<svg xmlns="http://www.w3.org/2000/svg" viewBox="0 0 432 432">
  <defs>
    <style>.GUNDAN_RAT_OUTFIT_RAT_OUTFIT_18_cls-1{isolation:isolate;}.GUNDAN_RAT_OUTFIT_RAT_OUTFIT_18_cls-13,.GUNDAN_RAT_OUTFIT_RAT_OUTFIT_18_cls-2{fill:none;}.GUNDAN_RAT_OUTFIT_RAT_OUTFIT_18_cls-13,.GUNDAN_RAT_OUTFIT_RAT_OUTFIT_18_cls-2,.GUNDAN_RAT_OUTFIT_RAT_OUTFIT_18_cls-8{stroke:#000;stroke-linecap:round;stroke-linejoin:round;}.GUNDAN_RAT_OUTFIT_RAT_OUTFIT_18_cls-2,.GUNDAN_RAT_OUTFIT_RAT_OUTFIT_18_cls-8{stroke-width:2px;}.GUNDAN_RAT_OUTFIT_RAT_OUTFIT_18_cls-3{fill:#603229;}.GUNDAN_RAT_OUTFIT_RAT_OUTFIT_18_cls-4{fill:#331c16;}.GUNDAN_RAT_OUTFIT_RAT_OUTFIT_18_cls-5{opacity:0.22;mix-blend-mode:multiply;}.GUNDAN_RAT_OUTFIT_RAT_OUTFIT_18_cls-6{fill:#442a13;}.GUNDAN_RAT_OUTFIT_RAT_OUTFIT_18_cls-7{fill:#351d0b;}.GUNDAN_RAT_OUTFIT_RAT_OUTFIT_18_cls-12,.GUNDAN_RAT_OUTFIT_RAT_OUTFIT_18_cls-8{fill:#b27422;}.GUNDAN_RAT_OUTFIT_RAT_OUTFIT_18_cls-9{fill:#80492a;}.GUNDAN_RAT_OUTFIT_RAT_OUTFIT_18_cls-10{fill:#d2d2d4;}.GUNDAN_RAT_OUTFIT_RAT_OUTFIT_18_cls-11{fill:#0c0605;}.GUNDAN_RAT_OUTFIT_RAT_OUTFIT_18_cls-13{stroke-width:1.59px;}</style>
  </defs>
  <g class="GUNDAN_RAT_OUTFIT_RAT_OUTFIT_18_cls-1">
    <g id="Outfit">
      <path class="GUNDAN_RAT_OUTFIT_RAT_OUTFIT_18_cls-2" d="M214.68,388.8S227,397.23,226.4,407" />
      <path class="GUNDAN_RAT_OUTFIT_RAT_OUTFIT_18_cls-2" d="M225.78,401.67c.24-5.21,4.94-11.61,10.12-12.12" />
      <path class="GUNDAN_RAT_OUTFIT_RAT_OUTFIT_18_cls-3" d="M278.69,393.15c-.29,1.68,1.25,3.09.82,4.74-13.67-6.08-25.26-.73-36,7.88-4.89,3.91-9.4,7-14.42,8.1a18,18,0,0,1-2.46.38,17.51,17.51,0,0,1-2.62.06c-5-.23-10.73-2.45-17.76-7.51-17.09-12.3-37-14.1-54.17-4.24,0,0-10.32,6-16.63,11.08a31.29,31.29,0,0,1-1-6.51s6.48-5.84,10.86-8.36c0,0,0,0,0,0h0l.29-.06.11,0,.4-.11a5.52,5.52,0,0,0,.54-.16,1.29,1.29,0,0,0,.28-.08l.57-.17.84-.29c.27-.09.54-.2.81-.31s.37-.13.55-.21a2.52,2.52,0,0,1,.33-.13l.36-.16.17-.08a6.65,6.65,0,0,0,.61-.27l.87-.41c.92-.46,1.86-1,2.81-1.5h0c16.54-8.13,35.19-5.88,51.35,5.74,17.09,12.3,26.25,7.8,37.26-1S264.45,386.31,278.69,393.15Z" />
      <path class="GUNDAN_RAT_OUTFIT_RAT_OUTFIT_18_cls-3" d="M226.65,414.26v60.55H224v-60.5A19.15,19.15,0,0,0,226.65,414.26Z" />
      <path class="GUNDAN_RAT_OUTFIT_RAT_OUTFIT_18_cls-4" d="M280.89,408.75a39.44,39.44,0,0,1-3,15.22s0,0,0,0c-2.89,6.79-7,10.33-8,10.84a1.08,1.08,0,0,0-.41.35c-3.46-.77-3.7,9.57-4.27,12.05-2,11.57-4.28,17.22-3.88,24.17v.09c.11,2,.21,3.18.22,3.32H229.16V414.25l-.06-.37c5-1.13,9.54-4.2,14.42-8.11h0l.69-.56h0l.62-.49.06-.05h0a4.7,4.7,0,0,1,.44-.34l.22-.17,0,0c.21-.17.43-.33.65-.49l.7-.51c1.24-.9,2.47-1.72,3.72-2.46l.74-.44c.5-.29,1-.56,1.49-.83l.57-.28.28-.14c7.57-3.71,15.78-4.47,26.29.41A14.63,14.63,0,0,0,280.89,408.75Z" />
      <path class="GUNDAN_RAT_OUTFIT_RAT_OUTFIT_18_cls-5" d="M280.89,408.75a39.44,39.44,0,0,1-3,15.22s0,0,0,0c-16.52,12.35-42.81,6.83-48.71,4V414.25l-.06-.37c5-1.13,9.54-4.2,14.42-8.11h0l.7-.56.38-.3.32-.24.19-.15.16-.12a3.49,3.49,0,0,1,.32-.25c5.87-4.49,11.51-7.75,17.8-8.49h.06c.49,0,1-.1,1.5-.12h.13a27.61,27.61,0,0,1,12.52,2.65,7.86,7.86,0,0,1,2.4.71l.09.5A52.17,52.17,0,0,1,280.89,408.75Z" />
      <path class="GUNDAN_RAT_OUTFIT_RAT_OUTFIT_18_cls-3" d="M229.16,414.25v60.56h-2.51V414.26a19.85,19.85,0,0,0,2.45-.39Z" />
      <path class="GUNDAN_RAT_OUTFIT_RAT_OUTFIT_18_cls-4" d="M224,414.31v60.5H147.07c1-13.43.2-29.18-6.38-46.13-.47-1.21-.91-2.33-1.31-3.38h0a111.44,111.44,0,0,1-3.92-11.65c6.31-5.11,16.63-11.08,16.63-11.08,17.21-9.86,37.08-8.06,54.17,4.24C213.29,411.86,219,414.08,224,414.31Z" />
      <path class="GUNDAN_RAT_OUTFIT_RAT_OUTFIT_18_cls-5" d="M206.26,406.8c7,5.06,12.72,7.28,17.75,7.51v13.9c-8.14,4.54-33.86,16-57.71-4.29,3.85,17.62-.58,50.89-.58,50.89H147.07c1-13.43.2-29.18-6.38-46.13-.47-1.21-.91-2.33-1.31-3.38h0a111.44,111.44,0,0,1-3.92-11.65c6.31-5.11,16.63-11.08,16.63-11.08C169.3,392.7,189.17,394.5,206.26,406.8Z" />
      <path class="GUNDAN_RAT_OUTFIT_RAT_OUTFIT_18_cls-2" d="M278.69,393.15c.52,1.86.93,3.65,1.26,5.38l.06.35.09.5a52.17,52.17,0,0,1,.79,9.37,39.44,39.44,0,0,1-3,15.22s0,0,0,0c-2.89,6.79-7,10.33-8,10.84a1.08,1.08,0,0,0-.41.35.41.41,0,0,0-.1.13c-.12.23-.27.52-.45.89-6.38,8-7.64,27.32-7.6,35.2v.09a14.18,14.18,0,0,0,.22,3.32H147.07v-.05a2.45,2.45,0,0,0,0-.27,98.19,98.19,0,0,0,.32-11.93c0-.45,0-.91,0-1.37l-.06-1.25a107,107,0,0,0-3.66-22.43c0-.1,0-.2-.08-.3a94.15,94.15,0,0,0-4.1-11.71h0c0-.06-.05-.13-.08-.19" />
      <path class="GUNDAN_RAT_OUTFIT_RAT_OUTFIT_18_cls-2" d="M139.38,425.29a115.58,115.58,0,0,1-3.92-11.65,31.29,31.29,0,0,1-1-6.51" />
      <path class="GUNDAN_RAT_OUTFIT_RAT_OUTFIT_18_cls-2" d="M139.38,425.3h0" />
      <path class="GUNDAN_RAT_OUTFIT_RAT_OUTFIT_18_cls-2" d="M152.09,396.29c.92-.54,1.87-1,2.81-1.5h0c16.54-8.12,35.19-5.88,51.35,5.74,17.08,12.31,26.25,7.8,37.26-1s20.93-13.18,35.17-6.34" />
      <path class="GUNDAN_RAT_OUTFIT_RAT_OUTFIT_18_cls-2" d="M280,398.52c-13.7-6.94-25.69-1.35-36.43,7.25-4.89,3.91-9.41,7-14.42,8.1a19.85,19.85,0,0,1-2.45.39,19.15,19.15,0,0,1-2.63.05c-5-.23-10.73-2.45-17.76-7.51-17.09-12.3-37-14.1-54.17-4.24a161.63,161.63,0,0,0-16.63,11.08" />
      <path class="GUNDAN_RAT_OUTFIT_RAT_OUTFIT_18_cls-2" d="M152.09,396.29c-7.82,3.41-17.61,10.84-17.61,10.84" />
      <polyline class="GUNDAN_RAT_OUTFIT_RAT_OUTFIT_18_cls-2" points="226.65 414.25 226.65 414.25 226.65 474.81" />
      <polyline class="GUNDAN_RAT_OUTFIT_RAT_OUTFIT_18_cls-2" points="224.02 414.25 224.02 414.31 224.02 474.81" />
      <line class="GUNDAN_RAT_OUTFIT_RAT_OUTFIT_18_cls-2" x1="229.16" y1="414.25" x2="229.16" y2="474.81" />
      <path class="GUNDAN_RAT_OUTFIT_RAT_OUTFIT_18_cls-6" d="M136.63,407.62s-1.45,1.3-5.08,1.91c-3.29.55-8.36.54-15.77-1.52l-1.45-.42-.53-.16-1.28-.39-.42-.14-.7-.22-.29-.1-.65-.23-.15-.05-.66-.23-.13-.05-.62-.23-.28-.11h0l-.3-.11-.14-.06-.2-.08-.2-.08-.09,0-.21-.09-.19-.08-.49-.21-.18-.08-.46-.2-.14-.06-.06,0-.31-.14-.58-.27-.13-.06-.05,0c-.17-.09-.35-.17-.52-.27l-.24-.12-.23-.12-.07,0-.52-.28-.48-.27h0l-.33-.19-.49-.31q-.48-.3-.9-.6l-.43-.31a.43.43,0,0,0-.1-.09l-.12-.09-.17-.14-.17-.14L100,401c-.15-.13-.3-.26-.43-.39l-.11-.1-.14-.13-.15-.15-.07-.08-.2-.2-.22-.26-.09-.1q-.21-.25-.39-.51a5.55,5.55,0,0,1-1.15-4c.37-3.21,3.23-12.11,7.35-19.2a41.5,41.5,0,0,1,2.36-3.64l.21-.39c1.37,1.14,3.23,3.29,5.49,7.36,1.54,2.79,3.12,6.15,5,9.59L118,390l.59,1c.16.28.32.56.49.84l.35.58c.29.48.59.95.89,1.43s.66,1,1,1.51c.14.2.27.4.42.59.75,1.07,1.56,2.1,2.41,3.1.26.3.52.59.79.88s.31.33.46.49l.13.13.45.46c.7.7,1.44,1.36,2.2,2l.54.42c.47.36.94.71,1.43,1,.23.16.47.31.71.46l.85.52.21.11c.27.17.56.32.84.46l.32.17c.33.17.66.32,1,.47l.53.23c.38.17.77.32,1.17.46l.67.23Z" />
      <path class="GUNDAN_RAT_OUTFIT_RAT_OUTFIT_18_cls-7" d="M117.42,388.82c-2.61,0-8.81,1.28-10.94,11.8a7.48,7.48,0,0,1-1.6,3.45h0c-.17-.09-.35-.17-.52-.27l-.24-.12-.23-.12-.07,0-.52-.28-.48-.27h0l-.33-.19-.49-.31q-.48-.3-.9-.6l-.43-.31a.43.43,0,0,0-.1-.09l-.12-.09-.17-.14-.17-.14L100,401c-.15-.13-.3-.26-.43-.39l-.11-.1-.14-.13-.15-.15-.07-.08-.2-.2-.22-.26-.09-.1q-.21-.25-.39-.51a5.55,5.55,0,0,1-1.15-4c.37-3.21,3.23-12.11,7.35-19.2a41.5,41.5,0,0,1,2.36-3.64l.21-.39c1.37,1.14,3.23,3.29,5.49,7.36C114,382,115.56,385.38,117.42,388.82Z" />
      <path class="GUNDAN_RAT_OUTFIT_RAT_OUTFIT_18_cls-6" d="M179.74,377.05l-7,6.69,5.71,3.89s1.19.77,3.33,2c-7,7.82-18.89,14.64-29.62,17.45h0c-1,.19-1.93.41-2.89.66a34,34,0,0,1-3.73.56,28.41,28.41,0,0,1-3,.16,19.49,19.49,0,0,1-5.91-.84c-13.85-4.51-19.21-19.36-24.19-28.39-2.26-4.07-4.12-6.22-5.49-7.36l-.21.39a41.5,41.5,0,0,0-2.36,3.64s-4.87-2-.07-9.53c1.54-2.42,2.5-3.83,3.1-4.64.84-1.15,1-1.13,1-1.13s4.12,5.26,15.13,12.89c7.82,5.42,19.63,6.25,29.87,4.84a58.45,58.45,0,0,0,11.37-2.68c11.34-4,19.88-13.85,20.76-24.65,1.19,2.74,7.53,15.7,1.55,30.36C182.87,379.1,179.74,377.05,179.74,377.05Z" />
      <path class="GUNDAN_RAT_OUTFIT_RAT_OUTFIT_18_cls-6" d="M164.73,375.65a57.77,57.77,0,0,1-9.4,2.38c-.65.11-1.3.21-2,.3-10.24,1.41-22.05.58-29.87-4.84-11-7.63-15.13-12.89-15.13-12.89s-.11,0-1,1.13c-1.81-2.15-.94-5.54,4.64-9.57,8.45-6.09,15.45-7.17,27.77-7.61l1-.05c1-.06,2.07-.14,3.15-.27h0a92.9,92.9,0,0,0,25.44-6.77,17.15,17.15,0,0,0,4.11-2.44l.27.17.72.45c7.59,4.83,10.89,10,11,15.34h0C184.61,361.8,176.07,371.64,164.73,375.65Z" />
      <path class="GUNDAN_RAT_OUTFIT_RAT_OUTFIT_18_cls-7" d="M147.18,407.69c-.51.22-1.05.42-1.63.61a28.41,28.41,0,0,1-3,.16,19.49,19.49,0,0,1-5.91-.84c-13.85-4.51-19.21-19.36-24.19-28.39-2.26-4.07-4.12-6.22-5.49-7.36l-.21.39a41.5,41.5,0,0,0-2.36,3.64s-4.87-2-.07-9.53c1.54-2.42,2.5-3.83,3.1-4.64-1.81-2.15-.94-5.54,4.64-9.57,8.45-6.09,15.45-7.17,27.77-7.61l1-.05c-6.52,1.55-13.73,9-8.63,18,6,10.51,15.65,15.19,23.24,15.08a17.26,17.26,0,0,0-2,.73C143.16,382.71,127.49,398.35,147.18,407.69Z" />
      <ellipse class="GUNDAN_RAT_OUTFIT_RAT_OUTFIT_18_cls-8" cx="180.32" cy="383.2" rx="1.86" ry="1.89" transform="translate(-230.36 486.61) rotate(-78.93)" />
      <path class="GUNDAN_RAT_OUTFIT_RAT_OUTFIT_18_cls-9" d="M281.43,419.14c-.43-.4-2.4-1.7-2.82-2.07-14.76-12.84-24.29-5.39-49-12.28-13.25-3.69-35.74-19.73-42.54-23.43-4.17-2.26-7.3-4.31-7.3-4.31l-7,6.69,5.71,3.89s1.19.77,3.33,2c5.91,3.42,30.12,20.88,45.81,25.26,24.7,6.89,34.22-.57,49,12.21-.19.6-.39,1.21-.62,1.83l.06,0s.55.26,1.69-.37C279.14,425,281.43,419.14,281.43,419.14ZM180,385a1.86,1.86,0,1,1,2.2-1.46A1.87,1.87,0,0,1,180,385Z" />
      <path class="GUNDAN_RAT_OUTFIT_RAT_OUTFIT_18_cls-10" d="M101.09,401.87q.42.3.9.6Q101.51,402.17,101.09,401.87Z" />
      <path class="GUNDAN_RAT_OUTFIT_RAT_OUTFIT_18_cls-10" d="M104.93,404.1l-.05,0c-.17-.09-.35-.17-.52-.27l.52.26Z" />
      <path class="GUNDAN_RAT_OUTFIT_RAT_OUTFIT_18_cls-10" d="M106,404.57l.06,0-.37-.17Z" />
      <path class="GUNDAN_RAT_OUTFIT_RAT_OUTFIT_18_cls-10" d="M106,404.6l.6.26-.46-.2Z" />
      <path class="GUNDAN_RAT_OUTFIT_RAT_OUTFIT_18_cls-10" d="M107.28,405.15l-.49-.21-.18-.08Z" />
      <path class="GUNDAN_RAT_OUTFIT_RAT_OUTFIT_18_cls-10" d="M108,405.43l-.2-.08-.09,0-.21-.09c.1,0,.2.08.3.12Z" />
      <path class="GUNDAN_RAT_OUTFIT_RAT_OUTFIT_18_cls-10" d="M108.61,405.68l-.3-.11-.14-.06Z" />
      <path class="GUNDAN_RAT_OUTFIT_RAT_OUTFIT_18_cls-5" d="M101.09,401.87q.42.3.9.6Q101.51,402.17,101.09,401.87Z" />
      <path class="GUNDAN_RAT_OUTFIT_RAT_OUTFIT_18_cls-5" d="M104.93,404.1l-.05,0c-.17-.09-.35-.17-.52-.27l.52.26Z" />
      <path class="GUNDAN_RAT_OUTFIT_RAT_OUTFIT_18_cls-5" d="M106,404.57l.06,0-.37-.17Z" />
      <path class="GUNDAN_RAT_OUTFIT_RAT_OUTFIT_18_cls-5" d="M106,404.6l.6.26-.46-.2Z" />
      <path class="GUNDAN_RAT_OUTFIT_RAT_OUTFIT_18_cls-5" d="M107.28,405.15l-.49-.21-.18-.08Z" />
      <path class="GUNDAN_RAT_OUTFIT_RAT_OUTFIT_18_cls-5" d="M107.77,405.35h0l-.09,0-.21-.09C107.57,405.26,107.67,405.31,107.77,405.35Z" />
      <path class="GUNDAN_RAT_OUTFIT_RAT_OUTFIT_18_cls-2" d="M106.74,372.26a41.5,41.5,0,0,0-2.36,3.64c-4.12,7.09-7,16-7.35,19.2a5.55,5.55,0,0,0,1.15,4q.18.26.39.51l.09.1.22.26.2.2.07.08.15.15.14.13.11.1c.13.13.28.26.43.39l.12.09.17.14.17.14.12.09a.43.43,0,0,1,.1.09l.43.31q.42.3.9.6l.49.31.33.19h0l.48.27.52.28.07,0,.23.12.24.12.52.26h0l.05,0,.13.06.58.27.31.14.06,0,.14.06.46.2.18.08.49.21.19.08.21.09a.16.16,0,0,1,.09,0l.2.08.2.08a.84.84,0,0,1,.14.06l.3.11h0l.28.11.62.23.13.05.66.23.15.05.65.23.29.1.7.22.42.14,1.28.39.53.16,1.45.42c7.41,2.06,12.48,2.07,15.77,1.52,3.63-.61,5.08-1.91,5.08-1.91" />
      <path class="GUNDAN_RAT_OUTFIT_RAT_OUTFIT_18_cls-2" d="M152.18,407.08c10.73-2.81,22.65-9.63,29.62-17.45" />
      <path class="GUNDAN_RAT_OUTFIT_RAT_OUTFIT_18_cls-2" d="M104.34,370.6s.94-.12,2.61,1.27c1.37,1.14,3.23,3.29,5.49,7.36,5,9,10.35,23.88,24.19,28.39a19.49,19.49,0,0,0,5.91.84,34.79,34.79,0,0,0,6.74-.72c.95-.18,1.91-.4,2.89-.66" />
      <path class="GUNDAN_RAT_OUTFIT_RAT_OUTFIT_18_cls-2" d="M185.49,351c1.19,2.74,7.53,15.7,1.55,30.36" />
      <path class="GUNDAN_RAT_OUTFIT_RAT_OUTFIT_18_cls-2" d="M104.37,375.9s-4.86-2-.06-9.53c1.54-2.42,2.5-3.83,3.1-4.64.83-1.15,1-1.13,1-1.13s4.11,5.26,15.13,12.89,29.9,6.17,41.24,2.16S184.61,361.8,185.49,351h0c-.13-5.33-3.43-10.51-11-15.34l-1-.62c-3.84,3.5-21.34,9.08-33.66,9.52s-19.32,1.52-27.77,7.61c-5.58,4-6.45,7.42-4.64,9.57" />
      <path class="GUNDAN_RAT_OUTFIT_RAT_OUTFIT_18_cls-2" d="M276.57,427.1c-14.73-12.78-24.26-5.32-49-12.21-15.7-4.38-39.9-21.84-45.81-25.26-2.14-1.23-3.33-2-3.33-2l-5.72-3.89,7-6.69s3.13,2.05,7.3,4.31c6.8,3.7,29.29,19.74,42.54,23.43,24.74,6.89,34.27-.56,49,12.28.43.37,2.39,1.67,2.82,2.07" />
      <path class="GUNDAN_RAT_OUTFIT_RAT_OUTFIT_18_cls-2" d="M281.43,419.14s-2.29,5.9-3.74,9.45c-1.13.63-1.68.37-1.68.37" />
      <ellipse class="GUNDAN_RAT_OUTFIT_RAT_OUTFIT_18_cls-2" cx="180.32" cy="383.2" rx="1.86" ry="1.89" transform="translate(-230.36 486.61) rotate(-78.93)" />
      <path class="GUNDAN_RAT_OUTFIT_RAT_OUTFIT_18_cls-11" d="M144.06,389.37a5.37,5.37,0,0,0-7.53,1,5.53,5.53,0,0,0-.69,1.17h0a5.36,5.36,0,1,0,8.21-2.17Zm-5.65,2.54a2.92,2.92,0,0,1,3.66-.92h0a2.76,2.76,0,0,1,.58.38,2.93,2.93,0,1,1-4.24.55Z" />
      <path class="GUNDAN_RAT_OUTFIT_RAT_OUTFIT_18_cls-12" d="M142.91,385.54h0l.27-2-.62-.08-1.4-.18-.26,2a9.07,9.07,0,0,0-2.32.31l-.41-1-.37-.89-1.88.78.79,1.9a8.08,8.08,0,0,0-1.85,1.42l-1.1-.84-.53-.42L132,388.13l1.64,1.25a8,8,0,0,0-.9,2.16l-2-.28-.27,2,2,.27a10.71,10.71,0,0,0,.07,1.13,9.49,9.49,0,0,0,.24,1.18l-1.9.79.78,1.87,1.89-.78a8.6,8.6,0,0,0,1.43,1.84l-1.26,1.64,1.62,1.23,1.25-1.63a9.51,9.51,0,0,0,.9.46,7.4,7.4,0,0,0,1.25.43l-.25,1.9v.14l.08,0,1.93.25.27-2a8.57,8.57,0,0,0,2.31-.3l.79,1.89,1.87-.77-.78-1.9c.29-.17.58-.36.86-.56a8.87,8.87,0,0,0,1-.86l1.64,1.25,1.24-1.61L148,397.87a8.08,8.08,0,0,0,.89-2.16l2,.27.27-2-2.05-.27a8.19,8.19,0,0,0-.3-2.31l1.91-.79-.78-1.88-1.9.79a8.42,8.42,0,0,0-1.43-1.85L147.9,386l-1.61-1.24L145,386.42A8.34,8.34,0,0,0,142.91,385.54Zm-6.38,4.82a5.39,5.39,0,1,1-.68,1.18h0A5.53,5.53,0,0,1,136.53,390.36Z" />
      <path class="GUNDAN_RAT_OUTFIT_RAT_OUTFIT_18_cls-13" d="M135.85,391.54a5.35,5.35,0,1,0,.68-1.18,5.53,5.53,0,0,0-.69,1.17" />
      <path class="GUNDAN_RAT_OUTFIT_RAT_OUTFIT_18_cls-13" d="M142.91,385.54a8.34,8.34,0,0,1,2.12.88l1.26-1.63L147.9,386l-1.26,1.63a8.42,8.42,0,0,1,1.43,1.85l1.9-.79.78,1.88-1.91.79a8.19,8.19,0,0,1,.3,2.31l2.05.27-.27,2-2-.27a8.08,8.08,0,0,1-.89,2.16l1.64,1.25-1.24,1.61-1.64-1.25a8.87,8.87,0,0,1-1,.86c-.28.2-.57.39-.86.56l.78,1.9-1.87.77-.79-1.89a8.57,8.57,0,0,1-2.31.3l-.27,2-1.93-.25-.08,0v-.14l.25-1.9a7.4,7.4,0,0,1-1.25-.43,9.51,9.51,0,0,1-.9-.46l-1.25,1.63-1.62-1.23,1.26-1.64a8.6,8.6,0,0,1-1.43-1.84l-1.89.78-.78-1.87,1.9-.79a9.49,9.49,0,0,1-.24-1.18,10.71,10.71,0,0,1-.07-1.13l-2-.27.27-2,2,.28a8,8,0,0,1,.9-2.16L132,388.13l1.24-1.62.53.42,1.1.84a8.08,8.08,0,0,1,1.85-1.42l-.79-1.9,1.88-.78.37.89.41,1a9.07,9.07,0,0,1,2.32-.31l.26-2,1.4.18.62.08-.27,2Z" />
      <path class="GUNDAN_RAT_OUTFIT_RAT_OUTFIT_18_cls-13" d="M142.07,391a2.93,2.93,0,1,0,.58.37,2.76,2.76,0,0,0-.58-.38" />
      <circle class="GUNDAN_RAT_OUTFIT_RAT_OUTFIT_18_cls-8" cx="118.94" cy="362.32" r="1.46" />
      <circle class="GUNDAN_RAT_OUTFIT_RAT_OUTFIT_18_cls-8" cx="113.7" cy="357.42" r="1.46" />
      <circle class="GUNDAN_RAT_OUTFIT_RAT_OUTFIT_18_cls-8" cx="125.07" cy="368.06" r="1.46" />
      <circle class="GUNDAN_RAT_OUTFIT_RAT_OUTFIT_18_cls-8" cx="131.77" cy="372.06" r="1.46" />
      <circle class="GUNDAN_RAT_OUTFIT_RAT_OUTFIT_18_cls-8" cx="139.29" cy="374.75" r="1.46" />
      <circle class="GUNDAN_RAT_OUTFIT_RAT_OUTFIT_18_cls-8" cx="147.84" cy="375.38" r="1.46" />
      <circle class="GUNDAN_RAT_OUTFIT_RAT_OUTFIT_18_cls-8" cx="155.92" cy="374.49" r="1.46" />
      <circle class="GUNDAN_RAT_OUTFIT_RAT_OUTFIT_18_cls-8" cx="163.24" cy="372.54" r="1.46" />
      <circle class="GUNDAN_RAT_OUTFIT_RAT_OUTFIT_18_cls-8" cx="170.11" cy="368.87" r="1.46" />
      <circle class="GUNDAN_RAT_OUTFIT_RAT_OUTFIT_18_cls-8" cx="176.71" cy="363.79" r="1.46" />
      <circle class="GUNDAN_RAT_OUTFIT_RAT_OUTFIT_18_cls-8" cx="180.79" cy="358.13" r="1.46" />
      <circle class="GUNDAN_RAT_OUTFIT_RAT_OUTFIT_18_cls-8" cx="182.51" cy="350.89" r="1.46" />
      <circle class="GUNDAN_RAT_OUTFIT_RAT_OUTFIT_18_cls-8" cx="179.73" cy="344.75" r="1.46" />
      <circle class="GUNDAN_RAT_OUTFIT_RAT_OUTFIT_18_cls-8" cx="174.47" cy="339.65" r="1.46" />
    </g>
  </g>
</svg>