<svg id="Necklace" xmlns="http://www.w3.org/2000/svg" viewBox="0 0 432 432">
  <defs>
    <style>.GUNDAN_RAT_JEWELRY_RAT_JEWELRY_12_cls-1{fill:#6d2316;stroke-width:1.22px;}.GUNDAN_RAT_JEWELRY_RAT_JEWELRY_12_cls-1,.GUNDAN_RAT_JEWELRY_RAT_JEWELRY_12_cls-3,.GUNDAN_RAT_JEWELRY_RAT_JEWELRY_12_cls-4,.GUNDAN_RAT_JEWELRY_RAT_JEWELRY_12_cls-6{stroke:#000;}.GUNDAN_RAT_JEWELRY_RAT_JEWELRY_12_cls-1,.GUNDAN_RAT_JEWELRY_RAT_JEWELRY_12_cls-3,.GUNDAN_RAT_JEWELRY_RAT_JEWELRY_12_cls-4{stroke-linecap:round;stroke-linejoin:round;}.GUNDAN_RAT_JEWELRY_RAT_JEWELRY_12_cls-2{fill:#e3a92b;}.GUNDAN_RAT_JEWELRY_RAT_JEWELRY_12_cls-3,.GUNDAN_RAT_JEWELRY_RAT_JEWELRY_12_cls-4{fill:none;}.GUNDAN_RAT_JEWELRY_RAT_JEWELRY_12_cls-3{stroke-width:0.49px;}.GUNDAN_RAT_JEWELRY_RAT_JEWELRY_12_cls-4{stroke-width:0.4px;}.GUNDAN_RAT_JEWELRY_RAT_JEWELRY_12_cls-5{fill:#b9876e;}.GUNDAN_RAT_JEWELRY_RAT_JEWELRY_12_cls-6{fill:#85432d;stroke-miterlimit:10;stroke-width:0.76px;}</style>
  </defs>
  <line class="GUNDAN_RAT_JEWELRY_RAT_JEWELRY_12_cls-1" x1="211.69" y1="348.27" x2="211.73" y2="352.1" />
  <path class="GUNDAN_RAT_JEWELRY_RAT_JEWELRY_12_cls-2" d="M204.5,360.68c3.26,1.17,4.86-.86,4.86-.86l-1.29,3.88A32.5,32.5,0,0,1,204.5,360.68Z" />
  <path class="GUNDAN_RAT_JEWELRY_RAT_JEWELRY_12_cls-2" d="M212.2,368.07c7.29-4.58,10.6-10.6,10.58-14.4a4.08,4.08,0,0,0-2.06-3.83,5.45,5.45,0,0,0-2.71-.79c-3.11,0-5.08,3.34-5.1,3.37l0,.07-.72,1-.42.57-1.15-1.53,0-.07s-2-3.37-5.09-3.37a5.48,5.48,0,0,0-2.72.79,4.09,4.09,0,0,0-2,3.83c0,3.88,3.43,10.08,11,14.7Zm9.05-19.29c5.71,3.23,2,14.24-9.52,21-11.55-6.72-15.24-17.73-9.53-21s9.3,3,9.3,3l.23.3.22-.3S215.53,345.55,221.25,348.78Z" />
  <path class="GUNDAN_RAT_JEWELRY_RAT_JEWELRY_12_cls-3" d="M221.25,348.78c-5.72-3.23-9.3,3-9.3,3l-.22.3-.23-.3s-3.58-6.25-9.3-3-2,14.24,9.53,21C223.28,363,227,352,221.25,348.78Z" />
  <path class="GUNDAN_RAT_JEWELRY_RAT_JEWELRY_12_cls-3" d="M212.2,368.07l-.47.3c-7.62-4.62-11.08-10.82-11-14.7a4.09,4.09,0,0,1,2-3.83,5.48,5.48,0,0,1,2.72-.79c3.13,0,5.07,3.34,5.09,3.37l0,.07,1.15,1.53.42-.57.72-1,0-.07s2-3.37,5.1-3.37a5.45,5.45,0,0,1,2.71.79,4.08,4.08,0,0,1,2.06,3.83C222.8,357.47,219.49,363.49,212.2,368.07Z" />
  <polyline class="GUNDAN_RAT_JEWELRY_RAT_JEWELRY_12_cls-3" points="212.15 353.45 212.81 355.57 211.13 357.79 211.97 359.58 209.36 364.35 212.58 366.76 212.2 368.07" />
  <path class="GUNDAN_RAT_JEWELRY_RAT_JEWELRY_12_cls-4" d="M209.36,359.82s-1.6,2-4.86.86a32.5,32.5,0,0,0,3.57,3Z" />
  <ellipse class="GUNDAN_RAT_JEWELRY_RAT_JEWELRY_12_cls-2" cx="206.02" cy="355.26" rx="1.44" ry="1.52" />
  <path d="M206,353.89a1.37,1.37,0,1,1-1.28,1.37,1.32,1.32,0,0,1,1.28-1.37m0-.3a1.67,1.67,0,1,0,1.59,1.67,1.63,1.63,0,0,0-1.59-1.67Z" />
  <ellipse class="GUNDAN_RAT_JEWELRY_RAT_JEWELRY_12_cls-2" cx="206.02" cy="355.26" rx="1.34" ry="1.42" />
  <path d="M206,354a1.27,1.27,0,1,1-1.19,1.27A1.23,1.23,0,0,1,206,354m0-.31a1.58,1.58,0,1,0,1.5,1.58,1.55,1.55,0,0,0-1.5-1.58Z" />
  <path class="GUNDAN_RAT_JEWELRY_RAT_JEWELRY_12_cls-2" d="M205.65,360a3.65,3.65,0,0,1-.46-.07.14.14,0,0,1-.12-.17l.09-.52a3.27,3.27,0,0,1-.53-.17l-.19.47a.14.14,0,0,1-.09.08h-.12a3.42,3.42,0,0,1-.42-.23.15.15,0,0,1-.06-.2l.25-.46a3.87,3.87,0,0,1-.45-.35l-.33.38a.12.12,0,0,1-.1,0h0a.21.21,0,0,1-.11,0l-.33-.36a.15.15,0,0,1,0-.21l.37-.35a5.25,5.25,0,0,1-.33-.49l-.42.24-.07,0h-.05a.18.18,0,0,1-.09-.08c-.07-.15-.14-.3-.2-.45a.16.16,0,0,1,.08-.2l.45-.2a5.47,5.47,0,0,1-.15-.58l-.5.09a.14.14,0,0,1-.09,0,.11.11,0,0,1-.06-.1,4.26,4.26,0,0,1-.06-.5.16.16,0,0,1,.15-.16l.48,0v-.09a4.41,4.41,0,0,1,0-.52l-.48-.08a.15.15,0,0,1-.12-.17,2.66,2.66,0,0,1,.1-.49.14.14,0,0,1,.07-.1l.07,0h0l.46.13a5.37,5.37,0,0,1,.21-.56l-.43-.25a.15.15,0,0,1-.06-.2c.07-.14.16-.29.24-.42a.17.17,0,0,1,.1-.07h0a.14.14,0,0,1,.09,0l.4.28a3.94,3.94,0,0,1,.36-.45L203,352a.14.14,0,0,1,0-.2,2.82,2.82,0,0,1,.36-.33l.09,0h0a.17.17,0,0,1,.1.07l.29.41a3,3,0,0,1,.48-.3l-.2-.48a.15.15,0,0,1,.07-.2,3.38,3.38,0,0,1,.44-.18h.05l.07,0a.14.14,0,0,1,.08.09l.15.49a3,3,0,0,1,.54-.11l0-.52a.15.15,0,0,1,.14-.17H206a.26.26,0,0,1,.15,0s.09.07.09.11v.53a5,5,0,0,1,.54.07l.12-.5a.16.16,0,0,1,.07-.09.11.11,0,0,1,.08,0h0a4,4,0,0,1,.45.15.14.14,0,0,1,.09.19l-.17.49a4.67,4.67,0,0,1,.49.27l.27-.43a.14.14,0,0,1,.1-.07h0l.09,0,.38.3a.15.15,0,0,1,0,.21l-.32.41a5.33,5.33,0,0,1,.4.42l.37-.31a.17.17,0,0,1,.1,0h0a.11.11,0,0,1,.1.06,3.62,3.62,0,0,1,.27.41.15.15,0,0,1,0,.2l-.42.28a5.38,5.38,0,0,1,.24.55l.45-.17h.12a.17.17,0,0,1,.08.09,3.92,3.92,0,0,1,.13.49.15.15,0,0,1-.11.18l-.48.11a4.07,4.07,0,0,1,.07.61h.48a.14.14,0,0,1,.15.15,4.1,4.1,0,0,1,0,.5.13.13,0,0,1-.06.11.14.14,0,0,1-.09,0l-.5-.05a3.86,3.86,0,0,1-.12.59l.46.17a.14.14,0,0,1,.09.19c0,.16-.11.31-.17.46a.2.2,0,0,1-.09.09h-.05l-.07,0-.43-.22a5.39,5.39,0,0,1-.3.52l.39.32a.16.16,0,0,1,0,.21c-.1.13-.2.26-.31.38a.16.16,0,0,1-.11,0h0a.16.16,0,0,1-.11,0l-.35-.35a5.3,5.3,0,0,1-.43.38l.27.44a.14.14,0,0,1,0,.2l-.41.26h-.12a.18.18,0,0,1-.09-.08l-.22-.46a4.55,4.55,0,0,1-.51.21l.12.51a.16.16,0,0,1-.11.18,3.56,3.56,0,0,1-.47.1h0l-.09,0a.13.13,0,0,1-.06-.1l-.07-.52-.39,0h-.16l0,.52a.12.12,0,0,1,0,.1.14.14,0,0,1-.1,0Zm.37-7.9a3.2,3.2,0,1,0,3,3.19A3.1,3.1,0,0,0,206,352.07Z" />
  <path d="M206,350.68h.09v.67a3.78,3.78,0,0,1,.82.12l.15-.65a3.73,3.73,0,0,1,.44.14l-.22.63a3.93,3.93,0,0,1,.73.39l.35-.56a4.68,4.68,0,0,1,.37.29l-.4.52a3.75,3.75,0,0,1,.57.62l.5-.41c.09.13.18.26.26.4l-.54.35a3.76,3.76,0,0,1,.36.79l.6-.22a3.59,3.59,0,0,1,.12.47l-.61.15a4.14,4.14,0,0,1,.09.87h.63c0,.17,0,.33,0,.49l-.63-.07a3.89,3.89,0,0,1-.18.85l.6.22a4.7,4.7,0,0,1-.17.45l-.57-.28a4.93,4.93,0,0,1-.43.74l.5.42-.3.36-.46-.46a3.66,3.66,0,0,1-.63.55l.34.57a2.55,2.55,0,0,1-.39.24l-.29-.6a3.45,3.45,0,0,1-.77.31l.16.65a3.63,3.63,0,0,1-.45.1l-.09-.67a3,3,0,0,1-.52,0h-.3l-.05.67a3.25,3.25,0,0,1-.45-.07l.11-.66a3.11,3.11,0,0,1-.78-.26l-.26.62a4,4,0,0,1-.4-.22l.31-.58a3.69,3.69,0,0,1-.66-.52l-.43.5c-.11-.11-.22-.23-.32-.35l.48-.45a3.54,3.54,0,0,1-.48-.71l-.55.32c-.07-.14-.14-.29-.2-.44l.59-.26a3.71,3.71,0,0,1-.23-.84l-.62.11a3.71,3.71,0,0,1-.05-.48l.63,0a1.77,1.77,0,0,1,0-.23,4.48,4.48,0,0,1,.05-.64l-.62-.11a4,4,0,0,1,.09-.48l.61.18a4.67,4.67,0,0,1,.31-.81l-.56-.32.24-.41.52.38a4.32,4.32,0,0,1,.54-.66l-.43-.5c.11-.11.23-.21.35-.31l.38.54a4,4,0,0,1,.71-.44l-.25-.61a2.17,2.17,0,0,1,.42-.17l.19.64a3.16,3.16,0,0,1,.81-.17l-.05-.67.36,0m0,7.92a3.35,3.35,0,1,0-3.14-3.34A3.25,3.25,0,0,0,206,358.6m0-8.23-.39,0a.32.32,0,0,0-.28.33l0,.38-.27.06-.1-.35a.33.33,0,0,0-.16-.19.32.32,0,0,0-.14,0l-.1,0-.45.18a.31.31,0,0,0-.16.39l.15.36-.25.15-.2-.28a.28.28,0,0,0-.2-.13h-.05a.35.35,0,0,0-.19.06l-.37.34a.3.3,0,0,0,0,.41l.25.29-.2.24-.27-.2a.28.28,0,0,0-.18-.06h-.05a.26.26,0,0,0-.2.13,3.91,3.91,0,0,0-.26.44.32.32,0,0,0,.12.41l.32.18a1.66,1.66,0,0,0-.12.31l-.32-.1h-.09a.28.28,0,0,0-.15,0,.3.3,0,0,0-.14.19c0,.16-.08.33-.11.5a.31.31,0,0,0,.25.35l.34.06c0,.11,0,.22,0,.34l-.33,0a.3.3,0,0,0-.29.32,4.43,4.43,0,0,0,.06.51.28.28,0,0,0,.12.2.28.28,0,0,0,.18.06h.05l.33-.05a1.92,1.92,0,0,0,.09.32l-.33.14a.31.31,0,0,0-.16.39,4,4,0,0,0,.21.47.27.27,0,0,0,.18.15h.09a.28.28,0,0,0,.15,0l.29-.16a2.33,2.33,0,0,0,.17.26l-.27.26a.29.29,0,0,0,0,.41,3,3,0,0,0,.34.37.27.27,0,0,0,.21.09h0a.3.3,0,0,0,.22-.1l.22-.26.24.18-.18.34a.29.29,0,0,0,.11.4,4.63,4.63,0,0,0,.43.24l.13,0a.2.2,0,0,0,.11,0,.35.35,0,0,0,.18-.16l.13-.34.27.09-.06.38a.3.3,0,0,0,.24.35,2.65,2.65,0,0,0,.48.07h0a.31.31,0,0,0,.2-.07.28.28,0,0,0,.1-.21l0-.37h.28l.05.37a.28.28,0,0,0,.12.2.28.28,0,0,0,.18.06h.05a4.1,4.1,0,0,0,.48-.1.3.3,0,0,0,.21-.37l-.08-.37.26-.11.16.32a.26.26,0,0,0,.18.16l.09,0a.42.42,0,0,0,.15,0l.42-.26a.3.3,0,0,0,.08-.41l-.2-.33.23-.2.24.25a.29.29,0,0,0,.22.09h0a.29.29,0,0,0,.22-.1c.11-.12.22-.26.32-.39a.31.31,0,0,0,0-.42l-.29-.23.17-.28.29.15a.35.35,0,0,0,.14,0l.1,0a.35.35,0,0,0,.18-.16,4.68,4.68,0,0,0,.18-.48.3.3,0,0,0-.19-.38l-.33-.12c0-.11,0-.22.07-.33l.33,0h0a.32.32,0,0,0,.19-.07.33.33,0,0,0,.11-.21,4.41,4.41,0,0,0,0-.52.32.32,0,0,0-.31-.31H210c0-.11,0-.22,0-.33l.34-.09a.29.29,0,0,0,.22-.36c0-.16-.08-.33-.13-.49a.32.32,0,0,0-.16-.18.31.31,0,0,0-.13,0,.22.22,0,0,0-.11,0l-.31.11-.13-.3.3-.2a.29.29,0,0,0,.09-.41,3.74,3.74,0,0,0-.27-.42.3.3,0,0,0-.21-.12h0a.37.37,0,0,0-.2.07l-.25.22-.21-.23.23-.3a.3.3,0,0,0,0-.41,3.9,3.9,0,0,0-.4-.31.26.26,0,0,0-.17-.05h-.07a.3.3,0,0,0-.19.14l-.19.3-.25-.14.12-.36a.29.29,0,0,0-.17-.38,4.34,4.34,0,0,0-.47-.16h-.08a.32.32,0,0,0-.3.24l-.08.36-.28,0v-.38a.3.3,0,0,0-.3-.31Zm0,7.92a3,3,0,1,1,2.84-3,2.95,2.95,0,0,1-2.84,3Z" />
  <path class="GUNDAN_RAT_JEWELRY_RAT_JEWELRY_12_cls-5" d="M218.72,354.19a.95.95,0,1,1,.89-.94A.92.92,0,0,1,218.72,354.19Z" />
  <path d="M218.72,352.38a.87.87,0,1,1-.81.87.84.84,0,0,1,.81-.87m0-.16a1,1,0,1,0,1,1,1,1,0,0,0-1-1Z" />
  <path class="GUNDAN_RAT_JEWELRY_RAT_JEWELRY_12_cls-5" d="M218.36,356.08a.08.08,0,0,1-.07-.09l0-.18-.33-.09-.06.17a.07.07,0,0,1,0,.05h-.06l-.17-.07a.07.07,0,0,1,0-.1l.07-.17a1.49,1.49,0,0,1-.3-.18l-.1.14a.1.1,0,0,1-.05,0h0l-.05,0-.15-.12a.07.07,0,0,1,0-.1l.11-.15a2.06,2.06,0,0,1-.25-.26l-.12.11-.06,0h0a.07.07,0,0,1-.06,0l-.11-.16a.08.08,0,0,1,0-.1l.14-.11a2,2,0,0,1-.17-.32l-.15.07h-.06a.07.07,0,0,1-.05,0c0-.06-.05-.12-.07-.19a.07.07,0,0,1,0-.09l.16-.07a1.9,1.9,0,0,1-.08-.36l-.18,0,0,0,0-.05,0-.2a.08.08,0,0,1,0-.05l.06,0h.16v-.1a2.53,2.53,0,0,1,0-.28l-.16,0a.1.1,0,0,1-.07-.09l0-.19a.1.1,0,0,1,0-.05l0,0,.18,0a2.42,2.42,0,0,1,.1-.36l-.15-.07a.07.07,0,0,1,0-.1,1.42,1.42,0,0,1,.08-.18.07.07,0,0,1,0,0h.06l.14.08a3.21,3.21,0,0,1,.19-.31l-.13-.12a.07.07,0,0,1,0-.1,1,1,0,0,1,.12-.15.06.06,0,0,1,.06,0h0l.05,0,.12.12a3.08,3.08,0,0,1,.27-.24l-.1-.15a.08.08,0,0,1,0-.11l.16-.11h.06a.1.1,0,0,1,.05,0l.09.15.3-.16,0-.17a.07.07,0,0,1,0-.1l.18-.06h.06a.1.1,0,0,1,0,.05l0,.17.34-.06v-.18a.08.08,0,0,1,.07-.09h.19a.08.08,0,0,1,.08.07v.18l.34,0,0-.17s0,0,0-.06h.05l.19.05a.08.08,0,0,1,.06.1l-.05.17.32.13.08-.15s0,0,.05,0H220l.16.1a.09.09,0,0,1,0,.11l-.1.15.28.22.11-.12a.09.09,0,0,1,.06,0h0l.06,0,.13.14a.08.08,0,0,1,0,.11l-.12.13a3.06,3.06,0,0,1,.21.29l.14-.09H221a.09.09,0,0,1,.05,0l.09.17a.09.09,0,0,1,0,.11l-.15.08a3.62,3.62,0,0,1,.13.35l.15,0h.06a.07.07,0,0,1,0,.05c0,.06,0,.12.05.19a.08.08,0,0,1-.06.09l-.16,0a2.22,2.22,0,0,1,0,.37h.17l0,0a.07.07,0,0,1,0,.06v.2a.05.05,0,0,1,0,.05s0,0,0,0h-.17a2.2,2.2,0,0,1-.06.37l.16.05a.08.08,0,0,1,.06.09l-.06.19a.1.1,0,0,1,0,.05h-.06l-.16-.06a2.07,2.07,0,0,1-.15.34l.15.09a.09.09,0,0,1,0,.11.86.86,0,0,1-.1.16.1.1,0,0,1,0,0h0l-.05,0-.13-.1a3.11,3.11,0,0,1-.23.28l.12.13a.09.09,0,0,1,0,.11.86.86,0,0,1-.14.13l0,0h0a.05.05,0,0,1-.05,0l-.1-.13-.29.2.08.16a.09.09,0,0,1,0,.11l-.16.08h-.06a.1.1,0,0,1-.05,0l-.07-.16-.32.11,0,.17a.07.07,0,0,1-.06.09l-.18,0h0l-.05,0a.05.05,0,0,1,0-.05l0-.18-.26,0h-.14l0,.18a.08.08,0,0,1,0,.06l0,0Zm.36-4.85a2,2,0,1,0,1.89,2A2,2,0,0,0,218.72,351.23Z" />
  <path d="M218.72,350.46v.26h0a2.44,2.44,0,0,1,.48,0l.05-.25.17.05-.06.25a1.92,1.92,0,0,1,.45.18l.11-.23.16.1-.13.22a2.31,2.31,0,0,1,.39.31l.16-.19.13.13-.18.18a2.34,2.34,0,0,1,.29.41l.21-.13.09.16-.22.12a2,2,0,0,1,.18.48l.24-.07c0,.06,0,.12,0,.18l-.24.06a2.1,2.1,0,0,1,.05.51h.25c0,.06,0,.12,0,.18h-.24a2.28,2.28,0,0,1-.09.51l.24.07a1.21,1.21,0,0,0-.05.18l-.23-.09a4,4,0,0,1-.21.47l.2.13-.09.16-.2-.15a3,3,0,0,1-.32.39l.17.19-.14.12-.15-.2a2.29,2.29,0,0,1-.41.28l.11.23-.16.09-.09-.24a2.51,2.51,0,0,1-.46.16l0,.25-.17,0,0-.26-.33,0h-.16V356l-.18,0,0-.26a1.91,1.91,0,0,1-.47-.12l-.08.25-.17-.07.1-.24a2.22,2.22,0,0,1-.42-.25l-.14.21-.15-.12.16-.2a3,3,0,0,1-.35-.36l-.18.16-.11-.15.2-.15a2,2,0,0,1-.24-.45l-.23.11-.06-.18.23-.09a4.05,4.05,0,0,1-.12-.5l-.24,0c0-.07,0-.13,0-.19l.25,0a1,1,0,0,1,0-.17c0-.12,0-.23,0-.34l-.24,0,0-.19.24.05a2.75,2.75,0,0,1,.14-.49l-.22-.1c0-.06.05-.12.08-.17l.22.12a2.05,2.05,0,0,1,.26-.43l-.19-.17.12-.14.18.18a2.31,2.31,0,0,1,.36-.34l-.14-.21.15-.11.13.22a2.18,2.18,0,0,1,.43-.22l-.08-.24.17-.06.07.25a1.86,1.86,0,0,1,.48-.09l0-.26h.18m0,4.88a2.1,2.1,0,1,0-2-2.09,2,2,0,0,0,2,2.09m0-5h-.19a.16.16,0,0,0-.15.17v.11l-.2,0,0-.09a.2.2,0,0,0-.08-.1l-.08,0h0a.55.55,0,0,0-.18.06.16.16,0,0,0-.1.2l0,.1-.19.09,0-.08a.14.14,0,0,0-.1-.07h0l-.09,0-.15.11a.15.15,0,0,0,0,.21l.06.09-.16.15-.06-.06a.16.16,0,0,0-.11-.05h0a.14.14,0,0,0-.11.06l-.12.15a.14.14,0,0,0,0,.21l.08.07-.12.19-.07,0-.08,0h-.05a.14.14,0,0,0-.09.08,1.42,1.42,0,0,0-.08.18.14.14,0,0,0,.08.2l.08.05-.06.22-.08,0h0a.16.16,0,0,0-.09,0,.13.13,0,0,0-.06.1,1.42,1.42,0,0,0,0,.2.16.16,0,0,0,.14.18h.09a1.48,1.48,0,0,0,0,.21v0h-.09a.16.16,0,0,0-.14.17c0,.06,0,.13,0,.2a.14.14,0,0,0,.07.1.15.15,0,0,0,.09,0h.11c0,.08,0,.15,0,.23l-.09,0a.16.16,0,0,0-.09.2,1.46,1.46,0,0,0,.07.19.12.12,0,0,0,.09.08h.12l.08,0,.1.2-.08.06a.16.16,0,0,0,0,.22l.11.16a.17.17,0,0,0,.11.06h0a.14.14,0,0,0,.1,0l.06-.05.15.15-.06.09a.16.16,0,0,0,0,.21l.15.13a.17.17,0,0,0,.1,0h0a.21.21,0,0,0,.11-.07l.05-.08.18.11-.05.1a.16.16,0,0,0,.09.2l.17.08h.06l.07,0a.14.14,0,0,0,.08-.09l0-.1.19.05V356a.16.16,0,0,0,.14.18l.18,0h0a.14.14,0,0,0,.1,0,.16.16,0,0,0,0-.11v-.1h.2v.1a.24.24,0,0,0,.06.11.17.17,0,0,0,.1,0h0l.19,0a.16.16,0,0,0,.12-.18l0-.11.19-.06,0,.09a.12.12,0,0,0,.09.08h.12l.17-.09a.16.16,0,0,0,.07-.21l0-.09.17-.12.05.07a.17.17,0,0,0,.11.06h0a.15.15,0,0,0,.11,0l.14-.13a.16.16,0,0,0,0-.22l-.07-.08a1.15,1.15,0,0,0,.14-.17l.07.06a.17.17,0,0,0,.1,0h0a.18.18,0,0,0,.11-.07l.1-.17a.16.16,0,0,0-.05-.21l-.08-.06.09-.21.08,0,.06,0,.06,0a.2.2,0,0,0,.09-.09,1.8,1.8,0,0,0,0-.19.16.16,0,0,0-.11-.2l-.09,0a2.23,2.23,0,0,0,0-.23h.1a.13.13,0,0,0,.1,0s0-.06.06-.11v-.19a.15.15,0,0,0-.15-.17h-.09c0-.08,0-.16,0-.23l.08,0a.17.17,0,0,0,.13-.19c0-.06,0-.13-.05-.19a.16.16,0,0,0-.08-.1l-.07,0h-.05l-.08,0a1.8,1.8,0,0,0-.08-.21l.09,0a.16.16,0,0,0,.06-.21l-.09-.17a.16.16,0,0,0-.1-.08h0a.11.11,0,0,0-.08,0l-.08,0-.12-.18.07-.07a.17.17,0,0,0,0-.22l-.14-.14a.16.16,0,0,0-.11-.05h0a.17.17,0,0,0-.12.05l-.06.07-.16-.13.05-.1a.15.15,0,0,0-.05-.21l-.16-.1-.08,0h0a.14.14,0,0,0-.09.08l0,.09-.19-.08,0-.1a.17.17,0,0,0-.11-.2l-.19,0h0l-.09,0a.14.14,0,0,0-.07.1l0,.1-.19,0v-.11a.16.16,0,0,0,0-.11.15.15,0,0,0-.11,0Zm0,4.87a1.94,1.94,0,1,1,1.81-1.93,1.87,1.87,0,0,1-1.81,1.93Z" />
  <path class="GUNDAN_RAT_JEWELRY_RAT_JEWELRY_12_cls-5" d="M215.56,358.67a.94.94,0,1,1,.89-.94A.92.92,0,0,1,215.56,358.67Z" />
  <path d="M215.56,356.87a.83.83,0,0,1,.81.86.81.81,0,1,1-1.62,0,.83.83,0,0,1,.81-.86m0-.16a1,1,0,1,0,1,1,1,1,0,0,0-1-1Z" />
  <path class="GUNDAN_RAT_JEWELRY_RAT_JEWELRY_12_cls-5" d="M215.19,360.56a.06.06,0,0,1-.06-.08l0-.18-.33-.09-.06.17s0,0,0,0h-.06l-.17-.07a.08.08,0,0,1,0-.11l.07-.16-.31-.18-.09.14a.05.05,0,0,1-.05,0H214l-.15-.12a.08.08,0,0,1,0-.11l.11-.14a3.07,3.07,0,0,1-.25-.26l-.12.11-.06,0h0l-.06,0-.11-.16a.08.08,0,0,1,0-.11l.14-.1a2.57,2.57,0,0,1-.18-.33l-.14.07h-.07a.1.1,0,0,1,0-.05l-.07-.18a.09.09,0,0,1,0-.1l.16-.06a2.37,2.37,0,0,1-.09-.36l-.17,0h-.05a.09.09,0,0,1,0-.06c0-.06,0-.13,0-.19a.09.09,0,0,1,.08-.09h.16v-.1a2.44,2.44,0,0,1,0-.27l-.16,0a.1.1,0,0,1-.07-.09l0-.2a.1.1,0,0,1,0,0h0l.17,0a3.07,3.07,0,0,1,.11-.36l-.15-.07a.07.07,0,0,1,0-.1,1.42,1.42,0,0,1,.08-.18,0,0,0,0,1,0,0h.06l.15.08a3.21,3.21,0,0,1,.19-.31l-.13-.11a.08.08,0,0,1,0-.11l.12-.15,0,0h0s0,0,0,0l.12.12a2,2,0,0,1,.26-.24l-.1-.16a.08.08,0,0,1,0-.1l.15-.11h.07a.07.07,0,0,1,.05,0l.08.15.31-.16,0-.17a.07.07,0,0,1,0-.1l.18-.06h.06l0,0,0,.17.34-.06V355a.07.07,0,0,1,.07-.08h.18a.08.08,0,0,1,.08.08v.18a2.07,2.07,0,0,1,.35,0l0-.17a.05.05,0,0,1,0-.05h.05l.19,0a.1.1,0,0,1,.06.1l-.05.18a1.79,1.79,0,0,1,.32.13l.08-.16s0,0,0,0h.07l.16.09a.09.09,0,0,1,0,.11l-.09.16.28.22.11-.13.06,0h0a.07.07,0,0,1,.06,0l.13.14a.09.09,0,0,1,0,.11l-.12.12.21.3.14-.1h.06a.1.1,0,0,1,.05,0l.09.17a.09.09,0,0,1,0,.11l-.15.08a3.62,3.62,0,0,1,.13.35l.15-.05h.06s0,0,0,0,0,.13,0,.19a.09.09,0,0,1-.06.1l-.17,0a2.33,2.33,0,0,1,0,.37h.16a.09.09,0,0,1,.06,0,.08.08,0,0,1,0,.05v.21a.05.05,0,0,1,0,.05l-.05,0H218a2.38,2.38,0,0,1-.06.37l.16.05a.07.07,0,0,1,.05.09,1.33,1.33,0,0,1-.05.19.08.08,0,0,1,0,0H218l-.15-.06a2,2,0,0,1-.15.33l.15.1a.08.08,0,0,1,0,.1,1,1,0,0,1-.1.17.05.05,0,0,1,0,0h-.06l-.14-.1a3,3,0,0,1-.22.28l.11.13a.08.08,0,0,1,0,.11l-.14.13,0,0h0l0,0-.11-.14a2.83,2.83,0,0,1-.28.2l.07.17a.07.07,0,0,1,0,.1l-.16.08h-.07a.1.1,0,0,1,0-.05l-.07-.16a2.44,2.44,0,0,1-.32.11l0,.18a.08.08,0,0,1-.06.09l-.19,0,0,0a.05.05,0,0,1,0-.05l0-.18h-.4l0,.18a.14.14,0,0,1,0,.06h-.06Zm.37-4.84a2,2,0,1,0,1.88,2A2,2,0,0,0,215.56,355.72Z" />
  <path d="M215.55,355v.26h0a2,2,0,0,1,.48.05l.05-.25.17,0-.07.25a2.62,2.62,0,0,1,.46.19l.11-.23.15.09-.12.22a2,2,0,0,1,.38.32l.17-.19.13.13-.18.18a2,2,0,0,1,.29.41l.21-.14.09.17-.22.12a2.07,2.07,0,0,1,.18.47l.24-.07c0,.06,0,.13,0,.19l-.24,0a2.94,2.94,0,0,1,.05.51h.24v.19l-.25,0a2.09,2.09,0,0,1-.08.51l.24.07-.06.18-.23-.08a2.11,2.11,0,0,1-.21.46l.21.14-.1.15-.19-.14a2.38,2.38,0,0,1-.32.38l.16.19a.8.8,0,0,1-.13.13l-.15-.2a2.29,2.29,0,0,1-.41.28l.11.23-.16.08-.09-.23a2.57,2.57,0,0,1-.47.15l.05.25-.17,0,0-.26a3.16,3.16,0,0,1-.32,0h-.16l0,.26-.17,0,0-.26a1.91,1.91,0,0,1-.47-.12l-.08.24-.17-.07.1-.23a2.73,2.73,0,0,1-.43-.26l-.14.21-.14-.11.15-.2a2.41,2.41,0,0,1-.34-.37l-.19.17-.1-.15.19-.15a2.38,2.38,0,0,1-.23-.45l-.23.1-.06-.17.23-.09a2.15,2.15,0,0,1-.12-.5l-.24,0c0-.06,0-.12,0-.19h.25a1.09,1.09,0,0,1,0-.18c0-.11,0-.23,0-.34l-.24,0,0-.19.24.05a2.75,2.75,0,0,1,.14-.49l-.22-.1a1.42,1.42,0,0,1,.08-.18l.21.12a3.12,3.12,0,0,1,.27-.43l-.19-.16.12-.14.18.17a2.9,2.9,0,0,1,.36-.34l-.14-.21.15-.1.13.22a1.75,1.75,0,0,1,.43-.22l-.08-.25.17-.06.07.25a2.43,2.43,0,0,1,.47-.08V355h.17m0,4.87a2.09,2.09,0,1,0-2-2.09,2,2,0,0,0,2,2.09m0-5h-.19a.15.15,0,0,0-.14.17v.1l-.19,0,0-.1a.13.13,0,0,0-.07-.09.13.13,0,0,0-.08,0h0l-.18.06a.16.16,0,0,0-.09.2l0,.11-.18.09,0-.08a.19.19,0,0,0-.1-.08h0l-.09,0-.16.11a.17.17,0,0,0,0,.22l.06.09-.16.14-.06-.06a.15.15,0,0,0-.11,0h0a.16.16,0,0,0-.11.05l-.13.15a.16.16,0,0,0,0,.22l.07.07a1.18,1.18,0,0,0-.11.19l-.08,0a.1.1,0,0,0-.07,0h-.05a.22.22,0,0,0-.1.09l-.08.18a.17.17,0,0,0,.08.2l.09,0a1.8,1.8,0,0,0-.06.22l-.09,0h0a.16.16,0,0,0-.09,0,.18.18,0,0,0-.07.1l0,.2a.16.16,0,0,0,.14.17l.09,0a1.27,1.27,0,0,0,0,.2v0h-.09a.16.16,0,0,0-.15.16c0,.07,0,.14,0,.2a.2.2,0,0,0,.06.11.19.19,0,0,0,.1,0h.11a1.74,1.74,0,0,0,0,.22l-.09,0a.15.15,0,0,0-.09.2,1.34,1.34,0,0,0,.07.18.13.13,0,0,0,.09.09h.12l.08,0,.1.2-.08.06a.16.16,0,0,0,0,.21l.12.16a.14.14,0,0,0,.11.07h0a.21.21,0,0,0,.11,0l.06-.06.15.16-.06.08a.15.15,0,0,0,0,.22l.15.12.09,0h0a.19.19,0,0,0,.11-.07l.05-.07.17.1,0,.1a.18.18,0,0,0,.08.21l.18.07h.12a.22.22,0,0,0,.09-.1l0-.09.19.05v.11a.16.16,0,0,0,.13.17l.19,0h0a.2.2,0,0,0,.11,0,.16.16,0,0,0,0-.11v-.11h.2v.1a.13.13,0,0,0,.06.1.17.17,0,0,0,.1,0h0l.19,0a.16.16,0,0,0,.12-.19l0-.1.19-.07,0,.09a.14.14,0,0,0,.08.09h.13l.17-.09a.17.17,0,0,0,.07-.21l0-.1a.88.88,0,0,0,.17-.12l.05.07a.19.19,0,0,0,.11.07h0a.18.18,0,0,0,.1,0l.15-.13a.16.16,0,0,0,0-.22l-.07-.08a2.09,2.09,0,0,0,.14-.17l.07,0a.16.16,0,0,0,.09,0h0a.19.19,0,0,0,.11-.07l.1-.16a.17.17,0,0,0-.05-.22l-.09-.05a2,2,0,0,0,.1-.21l.08,0h.12a.16.16,0,0,0,.08-.1l.06-.19a.16.16,0,0,0-.11-.19l-.09,0a1.57,1.57,0,0,0,0-.23h.1a.13.13,0,0,0,.1,0,.24.24,0,0,0,.06-.11v-.2a.17.17,0,0,0,0-.12.22.22,0,0,0-.12-.05h-.08l0-.24.09,0a.14.14,0,0,0,.12-.18,1.42,1.42,0,0,0,0-.2.14.14,0,0,0-.08-.09.1.1,0,0,0-.07,0H218l-.08,0c0-.08,0-.15-.08-.22l.09-.05a.15.15,0,0,0,.06-.2l-.09-.18a.14.14,0,0,0-.1-.07h0l-.09,0-.07,0a1.09,1.09,0,0,0-.13-.17l.08-.08a.17.17,0,0,0,0-.22l-.14-.14a.15.15,0,0,0-.11,0h0a.16.16,0,0,0-.11,0l-.06.07-.16-.13.05-.1a.16.16,0,0,0-.05-.21,1,1,0,0,0-.17-.1l-.07,0h0a.16.16,0,0,0-.1.08l0,.08-.18-.07,0-.11a.15.15,0,0,0-.11-.19l-.18,0h0l-.09,0a.16.16,0,0,0-.07.11l0,.09-.2,0V355a.15.15,0,0,0,0-.11.17.17,0,0,0-.12,0Zm0,4.87a1.93,1.93,0,1,1,1.81-1.93,1.87,1.87,0,0,1-1.81,1.93Z" />
  <path class="GUNDAN_RAT_JEWELRY_RAT_JEWELRY_12_cls-5" d="M216.37,362.83a.53.53,0,0,1-.51-.55.51.51,0,1,1,1,0A.53.53,0,0,1,216.37,362.83Z" />
  <path d="M216.37,361.79a.5.5,0,1,1-.47.49.48.48,0,0,1,.47-.49m0-.1a.58.58,0,0,0-.56.59.56.56,0,1,0,1.12,0,.58.58,0,0,0-.56-.59Z" />
  <path class="GUNDAN_RAT_JEWELRY_RAT_JEWELRY_12_cls-5" d="M216.16,363.91l0-.2a.08.08,0,0,1-.07,0,.38.38,0,0,1-.17,0v.12l-.16,0,0-.19h0a.39.39,0,0,1-.2-.09l0,.11-.15-.06.09-.18c-.07,0-.14-.07-.2-.15l0,.1c-.09,0-.12-.07-.13-.1l.12-.15c-.07,0-.11-.11-.15-.2L215,363l-.1-.12.16-.11a.33.33,0,0,1-.09-.24l-.09.06-.06-.15.18-.06,0-.06a1.5,1.5,0,0,1,0-.2l-.11,0,0-.16H215a.36.36,0,0,1,0-.26H215l0-.16.19.05c0-.07,0-.16.1-.24l-.11,0,.07-.15.17.1c0-.07.07-.14.15-.2l-.1-.06s.07-.1.09-.11l.15.13c0-.07.11-.11.2-.15l-.08-.08.13-.09.09.18a.32.32,0,0,1,.23-.09l-.05-.1.15-.05,0,.19a.21.21,0,0,1,.12,0l.13,0,0-.11s.19,0,.19,0l0,.15h.05a.52.52,0,0,1,.19.06v-.11l.15,0,0,.19h0c.06,0,.13.06.2.13l0-.11.14.08-.1.16a.4.4,0,0,1,.17.19l.06-.1.12.11-.15.13c.07,0,.1.13.13.23l.08-.08.08.15-.17.08c.05,0,.06.15.06.25l.09,0,0,.17-.19,0a.38.38,0,0,1,0,.26l.1,0v.16l-.19,0c0,.07,0,.16-.06.25l.1,0,0,.15-.18-.07c0,.07-.06.15-.13.22l.1,0-.08.14-.15-.12c0,.07-.09.13-.18.17l.08.07-.11.11-.12-.16c0,.07-.12.1-.21.12l.06.09-.14.07-.07-.18s-.07,0-.14,0l-.05.1s0,0,0,0h0Zm.21-2.78a1.16,1.16,0,1,0,1.08,1.15A1.12,1.12,0,0,0,216.37,361.13Z" />
  <path d="M216.37,360.68v.15h0a1.27,1.27,0,0,1,.28,0l0-.14.1,0,0,.15a1.39,1.39,0,0,1,.26.1l.06-.13.09.06-.07.12a1.24,1.24,0,0,1,.22.18l.09-.11.08.08-.1.1a1,1,0,0,1,.16.24l.12-.08a.41.41,0,0,1,0,.09l-.12.07a1.33,1.33,0,0,1,.1.28l.14,0a.36.36,0,0,1,0,.1l-.13,0a1.53,1.53,0,0,1,0,.3h.13v.11h-.14a1.57,1.57,0,0,1,0,.3l.14,0,0,.1-.13-.05-.12.27.12.08-.06.09-.12-.09a1,1,0,0,1-.18.22l.1.11-.08.07-.09-.11a1.19,1.19,0,0,1-.23.16l.06.13-.09.05-.06-.14a1.17,1.17,0,0,1-.26.1l0,.14-.1,0,0-.15-.19,0h-.09v.15h-.1l0-.15a1.07,1.07,0,0,1-.27-.07l0,.14-.1,0,.06-.13a1,1,0,0,1-.24-.15l-.09.12-.08-.06.09-.12a1.34,1.34,0,0,1-.2-.21l-.1.09a.27.27,0,0,1-.07-.08l.12-.09a1.3,1.3,0,0,1-.14-.26l-.13.06,0-.1.14-.05a1.37,1.37,0,0,1-.07-.29l-.14,0s0-.07,0-.11H215v-.1a1.21,1.21,0,0,1,0-.19l-.14,0s0-.07,0-.11l.13,0a1.31,1.31,0,0,1,.09-.28l-.13-.06,0-.1.12.07a1.28,1.28,0,0,1,.15-.25l-.11-.09.07-.09.1.11a1.94,1.94,0,0,1,.21-.2l-.08-.12.09-.06.07.13a.85.85,0,0,1,.25-.13l0-.14.1,0,0,.15a.87.87,0,0,1,.28-.05v-.15h.1m0,2.81a1.21,1.21,0,1,0-1.13-1.21,1.17,1.17,0,0,0,1.13,1.21m0-2.9h-.11a.09.09,0,0,0-.09.09v.07l-.11,0,0-.06a.21.21,0,0,0,0-.06h-.07l-.11,0a.1.1,0,0,0-.05.12l0,.06-.11.05,0-.05-.06,0h-.07l-.09.07a.08.08,0,0,0,0,.12l0,.05-.09.08,0,0a.11.11,0,0,0-.07,0h0a.09.09,0,0,0-.07,0l-.07.09a.11.11,0,0,0,0,.13l.05,0-.07.11,0,0H215a.1.1,0,0,0-.06.05l0,.1a.09.09,0,0,0,0,.12l.05,0a.5.5,0,0,1,0,.13h-.11s0,0,0,.06,0,.08,0,.12a.09.09,0,0,0,.08.1h0s0,.07,0,.11v0h0a.1.1,0,0,0-.08.1s0,.08,0,.11a.1.1,0,0,0,0,.07h.11l0,.13-.05,0a.08.08,0,0,0,0,.11.49.49,0,0,0,0,.11.12.12,0,0,0,.05.05H215l0,0,.07.11,0,0a.09.09,0,0,0,0,.13l.06.09.07,0h0l.06,0,0,0,.09.09,0,.05a.09.09,0,0,0,0,.12l.09.07a.06.06,0,0,0,.05,0h0a.08.08,0,0,0,.06,0l0,0,.1.06,0,.06a.08.08,0,0,0,0,.11l.11.05h.07l.05-.05v-.05l.11,0v.06a.08.08,0,0,0,.07.1h.12l.06,0a.09.09,0,0,0,0-.06v-.06h.12v.06a.07.07,0,0,0,0,.06l.06,0h0l.11,0a.09.09,0,0,0,.07-.11v-.06l.11,0,0,.05a.08.08,0,0,0,.05,0H217l.1-.05a.09.09,0,0,0,0-.12l0-.05.1-.07,0,0s0,0,.06,0h0a.09.09,0,0,0,.06,0l.08-.07a.09.09,0,0,0,0-.13l-.05,0,.08-.1,0,0,.06,0h0l.07,0,0-.1a.08.08,0,0,0,0-.12l-.05,0,.05-.12h.12a.07.07,0,0,0,0,0,.49.49,0,0,0,0-.11.09.09,0,0,0-.07-.11l-.05,0a.59.59,0,0,0,0-.13h.06a.07.07,0,0,0,.06,0,.07.07,0,0,0,0-.06s0-.08,0-.12a.07.07,0,0,0,0-.06.09.09,0,0,0-.07,0h-.05a.53.53,0,0,0,0-.13l.05,0a.08.08,0,0,0,.07-.1s0-.08,0-.11a.1.1,0,0,0,0-.06h-.07l0,0a.5.5,0,0,0,0-.13l.05,0a.09.09,0,0,0,0-.12l-.06-.1a.1.1,0,0,0,0,0h-.08l0,0a.86.86,0,0,0-.07-.1l0-.05a.08.08,0,0,0,0-.12.6.6,0,0,0-.08-.08.09.09,0,0,0-.07,0h0a.07.07,0,0,0-.06,0l0,0-.09-.07,0-.06a.09.09,0,0,0,0-.12l-.1-.06H217l-.05.05,0,.05-.1,0v-.06a.1.1,0,0,0-.06-.12l-.11,0h-.07s0,0,0,.06v.06l-.11,0v-.06a.09.09,0,0,0-.09-.09Zm0,2.8a1.11,1.11,0,1,1,1-1.11,1.08,1.08,0,0,1-1,1.11Z" />
  <path class="GUNDAN_RAT_JEWELRY_RAT_JEWELRY_12_cls-6" d="M211.69,348.27l-.18,0A68.67,68.67,0,0,1,196.6,342c-10.19-5.79-16.57-13.33-18.46-21.81-.08-.37-.34-2.47,1.66-2.59,0,0,0,.16-.15.57a5.3,5.3,0,0,0,0,3c5.3,17.55,29.66,25,32,25.64,1.8-.56,17.07-5.72,24.39-21.73a9.57,9.57,0,0,0-.13-2.58,2.32,2.32,0,0,1,1.39,3.15c-8,17.55-25.29,22.5-25.46,22.54Z" />
</svg>