<?xml version="1.0" encoding="utf-8"?>
<!-- Generator: Adobe Illustrator 25.2.0, SVG Export Plug-In . SVG Version: 6.00 Build 0)  -->
<svg version="1.1" id="Layer_1" xmlns="http://www.w3.org/2000/svg" xmlns:xlink="http://www.w3.org/1999/xlink" x="0px" y="0px" viewBox="0 0 432 432" style="enable-background:new 0 0 432 432;" xml:space="preserve">
<style type="text/css">
	.st0{fill:#AEAEAF;}
	.st1{fill:#4A4A4A;}
	.st2{fill:#8B8B8B;}
	.st3{fill:none;stroke:#000000;stroke-width:0.34;stroke-linecap:round;stroke-linejoin:round;}
	.st4{fill:none;stroke:#000000;stroke-width:0.32;stroke-linecap:round;stroke-linejoin:round;}
	.st5{fill:#254922;}
	.st6{fill:#45793B;}
	.st7{fill:#92CB7B;}
	.st8{fill:#C0C0C0;}
	.st9{fill:#878C84;}
	.st10{fill:#8B8B8B;stroke:#000000;stroke-width:0.27;stroke-linecap:round;stroke-linejoin:round;}
	.st11{fill:#FFC33E;stroke:#000000;stroke-width:1.62;stroke-linecap:round;stroke-linejoin:round;}
</style>
<g id="Necklace">
	<circle cx="215.55" cy="346.84" r="1.13" />
	<path d="M177.27,324.34l0.24-1.44c-0.59-0.05-1.18,0.17-1.58,0.61" />
	<path class="st0" d="M198,341.83c0,0-1-0.69-1.83-1.17l0,0c0.15-0.09,0.28-0.21,0.39-0.35c0.09-0.12,0.16-0.25,0.2-0.4&#xD;&#xA;		c0.46,0.19,0.9,0.43,1.3,0.72c0.13,0.11,0.26,0.22,0.38,0.34C198.19,341.19,198.03,341.5,198,341.83z" />
	<path class="st0" d="M192.57,339.11c0.72,0.65,1.65,1.03,2.62,1.06l0,0c0.2,0,0.4-0.09,0.53-0.25c0.09-0.1,0.15-0.23,0.15-0.36l0,0&#xD;&#xA;		l0.87,0.35c-0.04,0.15-0.11,0.28-0.2,0.4c-0.11,0.14-0.24,0.26-0.39,0.35l0,0c-0.76,0.36-1.65,0.36-2.41,0&#xD;&#xA;		c-1.16-0.47-2-1.05-2-1.71c0.03-0.34,0.19-0.65,0.44-0.87c0.14,0.12,0.27,0.26,0.37,0.41c-0.07,0.11-0.11,0.25-0.09,0.38&#xD;&#xA;		C192.47,338.96,192.51,339.04,192.57,339.11z" />
	<path class="st0" d="M178.06,326.35c-0.03,0.12-0.11,0.23-0.21,0.3c-0.28,0.22-0.65,0.3-1,0.22c-0.02-0.08-0.02-0.17,0-0.25&#xD;&#xA;		c0.06-0.13,0.17-0.24,0.29-0.31l0,0c-0.01-0.17-0.05-0.35-0.11-0.51c-0.34,0.11-0.64,0.33-0.86,0.62c0,0-0.19-0.38-0.46-0.85l0,0&#xD;&#xA;		c-0.42-0.83-0.09-1.85,0.74-2.28l0,0c1-0.35,0.73,1,0.77,1c0.34,0.39,0.61,0.85,0.77,1.34&#xD;&#xA;		C178.09,325.86,178.12,326.11,178.06,326.35z" />
	<path class="st1" d="M178.06,326.35c0.06-0.25,0.03-0.51-0.07-0.74c0.8,0.28,1.49,0.78,2,1.46c0.24,0.34,0.38,0.75,0.39,1.17&#xD;&#xA;		l-0.1-0.07c-0.25-0.19-0.55-0.33-0.86-0.39C179.13,327.17,178.66,326.67,178.06,326.35z" />
	<path class="st0" d="M176.17,326.42c0.22-0.29,0.52-0.51,0.86-0.62c0.06,0.16,0.09,0.33,0.11,0.5l0,0&#xD;&#xA;		c-0.12,0.07-0.23,0.18-0.29,0.31c-0.02,0.08-0.02,0.17,0,0.25c0.25,0.76,0.77,1.4,1.45,1.81c0.27,0.17,0.6,0.21,0.9,0.09&#xD;&#xA;		c0.1-0.05,0.18-0.11,0.26-0.18c0.08,0,0.39,0.23,0.75,0.47c-0.23,0.28-0.55,0.47-0.91,0.53c-0.84,0.12-1.68-0.21-2.22-0.87&#xD;&#xA;		C176.26,327.87,175.82,327,176.17,326.42z" />
	<path class="st0" d="M179.25,329.59c0.36-0.06,0.68-0.25,0.91-0.53l0,0c0.41,0.25,0.78,0.55,1.11,0.9l0.3,0.39&#xD;&#xA;		c-0.3,0.18-0.52,0.45-0.63,0.78l0,0C180.41,330.58,179.84,330.07,179.25,329.59z" />
	<path class="st2" d="M179.15,328.77c-0.3,0.12-0.63,0.08-0.9-0.09c-0.09-0.14-0.09-0.31,0-0.45c0.28-0.36,0.73-0.53,1.18-0.45&#xD;&#xA;		c0.31,0.06,0.61,0.2,0.86,0.39l0.1,0.07l0,0c0.74,0.49,1.41,1.07,2,1.73c0.17,0.19,0.28,0.43,0.3,0.68c0,0.12-0.04,0.24-0.11,0.33&#xD;&#xA;		c-0.22,0.3-0.58,0.46-0.95,0.44c-0.02-0.08-0.02-0.16,0-0.24c0.01-0.14,0.07-0.26,0.17-0.36l0,0c-0.07-0.17-0.16-0.32-0.27-0.46&#xD;&#xA;		l-0.3-0.39c-0.33-0.35-0.7-0.65-1.11-0.9l0,0c-0.36-0.24-0.67-0.43-0.75-0.47C179.3,328.67,179.23,328.72,179.15,328.77z" />
	<path class="st1" d="M187.8,334.73c0-0.25-0.08-0.5-0.24-0.7l0,0c0.88,0.13,1.7,0.51,2.36,1.09c0.31,0.29,0.54,0.67,0.66,1.08&#xD;&#xA;		l-0.11-0.05c-0.29-0.15-0.61-0.23-0.94-0.24C189.09,335.35,188.48,334.94,187.8,334.73z" />
	<path class="st1" d="M184.5,331.62c-0.48-0.49-1.09-0.84-1.75-1c-0.02-0.25-0.13-0.49-0.3-0.68c0.89,0.08,1.74,0.4,2.45,0.93&#xD;&#xA;		c0.42,0.31,0.71,0.76,0.82,1.27l-0.09-0.07C185.32,331.79,184.92,331.64,184.5,331.62z" />
	<path class="st0" d="M184.59,333.61c-0.73,0.11-1.47-0.06-2.08-0.47c-1-0.64-1.72-1.35-1.57-2c0.11-0.33,0.33-0.6,0.63-0.78&#xD;&#xA;		c0.11,0.14,0.2,0.29,0.27,0.46l0,0c-0.1,0.1-0.16,0.22-0.17,0.36c-0.02,0.08-0.02,0.16,0,0.24c0.51,0.7,1.24,1.21,2.08,1.44l0,0&#xD;&#xA;		c0.28,0.07,0.58,0.02,0.82-0.14c0.07-0.06,0.14-0.13,0.18-0.21c0.15,0.1,0.43,0.31,0.73,0.55l0,0l-0.16,0.17&#xD;&#xA;		C185.11,333.42,184.86,333.55,184.59,333.61z" />
	<path class="st2" d="M183.77,332.87L183.77,332.87c-0.28-0.29-0.39-0.57-0.18-0.83c0.24-0.25,0.56-0.4,0.91-0.41&#xD;&#xA;		c0.42,0.02,0.82,0.19,1.13,0.48l0.09,0.07l0,0c0.69,0.54,1.31,1.16,1.84,1.86l0,0c0.16,0.2,0.24,0.45,0.24,0.7l0,0&#xD;&#xA;		c-0.01,0.12-0.06,0.23-0.14,0.32c-0.25,0.29-0.62,0.43-1,0.39c-0.02-0.09-0.02-0.17,0-0.26c0.03-0.13,0.11-0.25,0.21-0.34&#xD;&#xA;		c-0.05-0.17-0.13-0.34-0.23-0.49c-0.06-0.11-0.15-0.24-0.25-0.4c-0.26-0.33-0.56-0.63-0.9-0.88c-0.3-0.24-0.58-0.45-0.73-0.55&#xD;&#xA;		c-0.04,0.08-0.11,0.15-0.18,0.21C184.34,332.9,184.05,332.94,183.77,332.87z" />
	<path class="st0" d="M185.5,333.07c0.34,0.25,0.64,0.55,0.9,0.88c0.1,0.16,0.19,0.29,0.25,0.4c-0.31,0.17-0.55,0.43-0.7,0.75&#xD;&#xA;		c-0.43-0.52-0.88-1.02-1.36-1.49c0.28-0.06,0.54-0.18,0.75-0.37L185.5,333.07z" />
	<path class="st0" d="M186.67,335.44c0.44,0.7,1.09,1.24,1.86,1.54c0.3,0.13,0.63,0.11,0.91-0.06c0.08-0.06,0.15-0.13,0.21-0.22&#xD;&#xA;		c0.08,0,0.44,0.16,0.85,0.34c-0.09,0.17-0.22,0.33-0.37,0.45c-0.12,0.09-0.26,0.16-0.4,0.21c-0.83,0.24-1.73,0.06-2.4-0.49&#xD;&#xA;		c-1-0.72-1.59-1.46-1.38-2.11c0.15-0.32,0.39-0.58,0.7-0.75c0.1,0.15,0.18,0.32,0.23,0.49c-0.1,0.09-0.18,0.21-0.21,0.34&#xD;&#xA;		C186.66,335.27,186.66,335.35,186.67,335.44z" />
	<path class="st0" d="M191.81,337.75c0.13,0.1,0.26,0.21,0.38,0.33l0,0c-0.25,0.22-0.41,0.53-0.44,0.87l0,0&#xD;&#xA;		c-0.64-0.45-1.31-0.86-2-1.24l0,0c0.14-0.05,0.28-0.12,0.4-0.21c0.15-0.12,0.28-0.28,0.37-0.45&#xD;&#xA;		C190.98,337.23,191.41,337.46,191.81,337.75z" />
	<path class="st2" d="M192.19,338.08c-0.12-0.12-0.25-0.23-0.38-0.33c-0.4-0.29-0.84-0.53-1.31-0.71c-0.41-0.18-0.77-0.31-0.85-0.34&#xD;&#xA;		c-0.06,0.09-0.13,0.16-0.21,0.22c-0.28,0.17-0.61,0.19-0.91,0.06c-0.11-0.12-0.13-0.3-0.06-0.45c0.2-0.4,0.61-0.64,1.06-0.62&#xD;&#xA;		c0.33,0.01,0.65,0.09,0.94,0.24l0.11,0.05c0.83,0.39,1.63,0.85,2.39,1.37l0.42,0.5l0.05,0.12c0.03,0.11,0.03,0.23,0,0.34&#xD;&#xA;		c-0.15,0.33-0.47,0.55-0.83,0.58c-0.05-0.07-0.08-0.15-0.09-0.24c-0.02-0.13,0.02-0.27,0.09-0.38c-0.1-0.15-0.23-0.29-0.37-0.41&#xD;&#xA;		L192.19,338.08z" />
	<path class="st1" d="M195.38,338.85c-0.58-0.38-1.25-0.61-1.94-0.66l-0.05-0.12l-0.42-0.5c0.91-0.07,1.82,0.12,2.64,0.53&#xD;&#xA;		c0.4,0.2,0.74,0.48,1,0.84c-0.34-0.15-0.71-0.19-1.07-0.13L195.38,338.85z" />
	<path class="st2" d="M195.19,340.15c-0.37-0.22-0.56-0.46-0.43-0.75c0.12-0.26,0.34-0.46,0.62-0.55h0.13&#xD;&#xA;		c0.36-0.06,0.73-0.02,1.07,0.13l0.18,0.08c0.04,0.02,0.07,0.04,0.1,0.06l0,0c0.84,0.37,1.64,0.83,2.38,1.38l0,0&#xD;&#xA;		c0.21,0.15,0.37,0.37,0.46,0.62c0.04,0.11,0.04,0.23,0,0.34c-0.16,0.33-0.48,0.54-0.84,0.58c-0.04-0.08-0.07-0.16-0.08-0.25&#xD;&#xA;		c-0.01-0.13,0.03-0.26,0.1-0.37l0,0c-0.11-0.15-0.24-0.29-0.38-0.41c-0.12-0.12-0.25-0.23-0.38-0.34c-0.4-0.29-0.84-0.53-1.3-0.72&#xD;&#xA;		l-0.87-0.35l0,0c0,0.13-0.06,0.26-0.15,0.36c-0.13,0.16-0.33,0.25-0.53,0.25l0,0L195.19,340.15z" />
	<path class="st1" d="M201.89,341c0.4,0.21,0.74,0.52,1,0.89h-0.12c-0.33-0.07-0.67-0.07-1,0c-0.58-0.43-1.28-0.7-2-0.76&#xD;&#xA;		c-0.09-0.25-0.25-0.47-0.46-0.62C200.2,340.44,201.09,340.61,201.89,341z" />
	<path class="st0" d="M202.52,343.52c-0.78,0.4-1.71,0.4-2.49,0c-1.15-0.47-2-1.06-2-1.72l0,0c0.03-0.33,0.19-0.64,0.45-0.86&#xD;&#xA;		c0.14,0.12,0.27,0.26,0.38,0.41l0,0c-0.07,0.11-0.11,0.24-0.1,0.37c0.01,0.09,0.04,0.17,0.08,0.25c0.64,0.58,1.44,0.95,2.3,1.07&#xD;&#xA;		c0.31,0.07,0.63-0.02,0.86-0.24c0.07-0.07,0.12-0.16,0.14-0.26c0.1,0,0.48,0.06,0.94,0.14c-0.04,0.18-0.11,0.36-0.22,0.51&#xD;&#xA;		c-0.09,0.11-0.2,0.21-0.32,0.3L202.52,343.52z" />
	<path class="st0" d="M204.89,344.27c0,0-1.33-0.5-2.36-0.75c0.12-0.09,0.23-0.19,0.32-0.3c0.11-0.15,0.18-0.33,0.22-0.51&#xD;&#xA;		c0.51,0.08,1.01,0.21,1.49,0.4c0.16,0.07,0.32,0.15,0.48,0.24C204.87,343.62,204.81,343.96,204.89,344.27z" />
	<path class="st2" d="M201.13,343.07c-0.14-0.08-0.23-0.24-0.21-0.41c0.07-0.42,0.41-0.75,0.83-0.82c0.33-0.07,0.67-0.07,1,0h0.12&#xD;&#xA;		l0,0c0.94,0.17,1.86,0.44,2.75,0.8c0.26,0.11,0.48,0.28,0.65,0.5c0.06,0.1,0.09,0.22,0.07,0.33c-0.05,0.34-0.29,0.63-0.62,0.73&#xD;&#xA;		c-0.07-0.06-0.12-0.13-0.16-0.21c-0.05-0.12-0.05-0.26,0-0.38l0,0c-0.15-0.12-0.32-0.23-0.5-0.31c-0.16-0.09-0.32-0.17-0.48-0.24&#xD;&#xA;		c-0.48-0.19-0.98-0.32-1.49-0.4c-0.46-0.08-0.84-0.13-0.94-0.14c-0.02,0.1-0.07,0.19-0.14,0.26&#xD;&#xA;		C201.79,343.02,201.45,343.13,201.13,343.07z" />
	<path class="st2" d="M205,343.35c0.18,0.08,0.35,0.19,0.5,0.31l0,0c-0.05,0.12-0.05,0.26,0,0.38c0.04,0.08,0.09,0.15,0.16,0.21&#xD;&#xA;		c0.36,0.33,3,1,3.34,0.1s-2-1.35-2.79-1.16c-0.17-0.22-0.39-0.39-0.65-0.5c0.89-0.26,1.84-0.28,2.74-0.06&#xD;&#xA;		c1.35,0.39,1.92,1.17,1.65,1.91s-1.34,1.13-2.62,0.94s-2.3-0.57-2.51-1.21l0,0C204.75,343.95,204.82,343.62,205,343.35z" />
	<path class="st3" d="M177.14,326.3c-0.02-0.17-0.05-0.34-0.11-0.5c0-0.12-0.09-0.27-0.16-0.45c-0.16-0.34-0.36-0.66-0.61-0.94" />
	<path class="st3" d="M176.17,326.42c0,0-0.19-0.38-0.46-0.85l0,0" />
	<path class="st3" d="M176.45,323.28l0.87-0.24c0,0-0.17,1.23-0.14,1.27c0.37,0.36,0.65,0.81,0.81,1.3&#xD;&#xA;		c0.11,0.23,0.13,0.49,0.07,0.74c-0.03,0.12-0.11,0.23-0.21,0.3c-0.28,0.22-0.65,0.3-1,0.22" />
	<path class="st3" d="M177.14,326.31c-0.12,0.07-0.23,0.18-0.29,0.31c-0.02,0.08-0.02,0.17,0,0.25c0.25,0.76,0.77,1.4,1.45,1.81&#xD;&#xA;		c0.27,0.17,0.6,0.21,0.9,0.09c0.1-0.05,0.18-0.11,0.26-0.18" />
	<path class="st3" d="M179.47,327.78c-0.3-0.62-0.79-1.12-1.41-1.43" />
	<path class="st3" d="M180.16,329.06c-0.23,0.28-0.55,0.47-0.91,0.53c-0.84,0.12-1.68-0.21-2.22-0.87c-0.77-0.85-1.21-1.7-0.86-2.3&#xD;&#xA;		c0.22-0.29,0.52-0.51,0.86-0.62l0,0" />
	<path class="st3" d="M180.43,328.24c-0.01-0.42-0.15-0.83-0.39-1.17c-0.51-0.68-1.2-1.18-2-1.46" />
	<path class="st3" d="M181.84,330.81c-0.07-0.17-0.16-0.32-0.27-0.46l-0.3-0.39c-0.33-0.35-0.7-0.65-1.11-0.9l0,0&#xD;&#xA;		c-0.36-0.24-0.67-0.43-0.75-0.47l0,0" />
	<path class="st3" d="M180.93,331.14c-0.53-0.55-1.09-1.07-1.68-1.55" />
	<path class="st3" d="M178.25,328.68c-0.09-0.14-0.09-0.31,0-0.45c0.28-0.36,0.73-0.53,1.18-0.45c0.31,0.06,0.61,0.2,0.86,0.39&#xD;&#xA;		l0.1,0.07l0,0c0.74,0.49,1.41,1.07,2,1.73c0.17,0.19,0.28,0.43,0.3,0.68c0,0.12-0.04,0.24-0.11,0.33c-0.22,0.3-0.58,0.46-0.95,0.44&#xD;&#xA;		" />
	<path class="st3" d="M183.77,332.87c0.28,0.07,0.58,0.02,0.82-0.14c0.07-0.06,0.14-0.13,0.18-0.21" />
	<path class="st3" d="M181.84,330.82c-0.1,0.1-0.16,0.22-0.17,0.36c-0.02,0.08-0.02,0.16,0,0.24c0.51,0.7,1.24,1.21,2.08,1.44" />
	<path class="st3" d="M184.5,331.62c-0.48-0.49-1.09-0.84-1.75-1l0,0" />
	<path class="st3" d="M181.57,330.35L181.57,330.35c-0.3,0.18-0.52,0.45-0.63,0.78c-0.15,0.66,0.55,1.37,1.57,2&#xD;&#xA;		c0.61,0.41,1.35,0.58,2.08,0.47c0.28-0.06,0.54-0.18,0.75-0.37l0.16-0.17" />
	<path class="st3" d="M185.72,332.17c-0.11-0.51-0.4-0.96-0.82-1.27c-0.71-0.53-1.56-0.85-2.45-0.93l0,0" />
	<path class="st3" d="M186.88,334.84c-0.05-0.17-0.13-0.34-0.23-0.49c-0.06-0.11-0.15-0.24-0.25-0.4c-0.26-0.33-0.56-0.63-0.9-0.88&#xD;&#xA;		c-0.3-0.24-0.58-0.45-0.73-0.55l-0.12-0.08" />
	<path class="st3" d="M186,335.1c-0.43-0.52-0.88-1.02-1.36-1.49" />
	<path class="st3" d="M183.77,332.87L183.77,332.87c-0.28-0.29-0.39-0.57-0.18-0.83c0.24-0.25,0.56-0.4,0.91-0.41&#xD;&#xA;		c0.42,0.02,0.82,0.19,1.13,0.48l0.09,0.07l0,0c0.69,0.54,1.31,1.16,1.84,1.86l0,0c0.16,0.2,0.24,0.45,0.24,0.7l0,0&#xD;&#xA;		c-0.01,0.12-0.06,0.23-0.14,0.32c-0.25,0.29-0.62,0.43-1,0.39l0,0" />
	<path class="st3" d="M186.88,334.84c-0.1,0.09-0.18,0.21-0.21,0.34c-0.02,0.09-0.02,0.17,0,0.26c0.44,0.7,1.09,1.24,1.86,1.54&#xD;&#xA;		c0.3,0.13,0.63,0.11,0.91-0.06c0.08-0.06,0.15-0.13,0.21-0.22" />
	<path class="st3" d="M189.53,335.91c-0.44-0.56-1.05-0.97-1.73-1.18" />
	<path class="st3" d="M190.5,337c-0.09,0.17-0.22,0.33-0.37,0.45c-0.12,0.09-0.26,0.16-0.4,0.21c-0.83,0.24-1.73,0.06-2.4-0.49&#xD;&#xA;		c-1-0.72-1.59-1.46-1.38-2.11c0.15-0.32,0.39-0.58,0.7-0.75l0,0" />
	<path class="st3" d="M190.58,336.2c-0.12-0.41-0.35-0.79-0.66-1.08c-0.66-0.58-1.48-0.96-2.36-1.09" />
	<path class="st3" d="M192.19,338.08c-0.12-0.12-0.25-0.23-0.38-0.33c-0.4-0.29-0.84-0.53-1.31-0.71c-0.41-0.18-0.77-0.31-0.85-0.34&#xD;&#xA;		l0,0" />
	<path class="st3" d="M192.57,338.49c-0.1-0.15-0.23-0.29-0.37-0.41" />
	<path class="st3" d="M191.75,339c-0.64-0.45-1.31-0.86-2-1.24" />
	<path class="st3" d="M188.53,337c-0.11-0.12-0.13-0.3-0.06-0.45c0.2-0.4,0.61-0.64,1.06-0.62c0.33,0.01,0.65,0.09,0.94,0.24&#xD;&#xA;		l0.11,0.05c0.83,0.39,1.63,0.85,2.39,1.37l0.42,0.5l0.05,0.12c0.03,0.11,0.03,0.23,0,0.34c-0.15,0.33-0.47,0.55-0.83,0.58" />
	<path class="st3" d="M193.43,338.19L193.43,338.19c0.69,0.05,1.36,0.28,1.94,0.66" />
	<path class="st3" d="M195.88,339.56c0,0.13-0.06,0.26-0.15,0.36c-0.13,0.16-0.33,0.25-0.53,0.25l0,0c-0.97-0.03-1.9-0.41-2.62-1.06&#xD;&#xA;		c-0.05-0.07-0.08-0.15-0.09-0.24c-0.02-0.13,0.02-0.27,0.09-0.38" />
	<path class="st3" d="M193,337.57L193,337.57c0.91-0.07,1.82,0.12,2.64,0.53c0.4,0.2,0.74,0.48,1,0.84" />
	<path class="st3" d="M196.79,339.91c-0.04,0.15-0.11,0.28-0.2,0.4c-0.11,0.14-0.24,0.26-0.39,0.35l0,0c-0.76,0.36-1.65,0.36-2.41,0&#xD;&#xA;		c-1.16-0.47-2-1.05-2-1.71c0.03-0.34,0.19-0.65,0.44-0.87l0,0" />
	<path class="st3" d="M195.92,339.56l0.87,0.35c0.46,0.19,0.9,0.43,1.3,0.72c0.13,0.11,0.26,0.22,0.38,0.34&#xD;&#xA;		c0.14,0.12,0.27,0.26,0.38,0.41" />
	<path class="st3" d="M198,341.83c0,0-1-0.69-1.83-1.17" />
	<path class="st3" d="M198.83,342L198.83,342c0.36-0.04,0.68-0.25,0.84-0.58c0.04-0.11,0.04-0.23,0-0.34&#xD;&#xA;		c-0.09-0.25-0.25-0.47-0.46-0.62l0,0c-0.74-0.55-1.54-1.01-2.38-1.38l0,0c-0.03-0.02-0.06-0.04-0.1-0.06l-0.18-0.08&#xD;&#xA;		c-0.34-0.15-0.71-0.19-1.07-0.13h-0.13c-0.28,0.09-0.5,0.29-0.62,0.55c-0.13,0.29,0.06,0.53,0.43,0.75l0,0" />
	<path class="st3" d="M198.85,341.38c-0.07,0.11-0.11,0.24-0.1,0.37c0.01,0.09,0.04,0.17,0.08,0.25c0.64,0.58,1.44,0.95,2.3,1.07&#xD;&#xA;		c0.31,0.07,0.63-0.02,0.86-0.24c0.07-0.07,0.12-0.16,0.14-0.26" />
	<path class="st3" d="M201.75,341.84c-0.58-0.43-1.28-0.7-2-0.76l0,0" />
	<path class="st3" d="M202.52,343.52c-0.78,0.4-1.71,0.4-2.49,0c-1.15-0.47-2-1.06-2-1.72l0,0c0.03-0.33,0.19-0.64,0.45-0.86l0,0" />
	<path class="st3" d="M203.07,342.71c-0.04,0.18-0.11,0.36-0.22,0.51c-0.09,0.11-0.2,0.21-0.32,0.3" />
	<path class="st3" d="M202.87,341.89c-0.26-0.37-0.6-0.68-1-0.89c-0.81-0.42-1.73-0.61-2.64-0.54l0,0" />
	<path class="st3" d="M205.54,343.66c-0.15-0.12-0.32-0.23-0.5-0.31c-0.16-0.09-0.32-0.17-0.48-0.24c-0.48-0.19-0.98-0.32-1.49-0.4&#xD;&#xA;		c-0.46-0.08-0.84-0.13-0.94-0.14l0,0" />
	<path class="st3" d="M204.89,344.27c0,0-1.33-0.5-2.36-0.75l0,0" />
	<path class="st3" d="M201.13,343.07c-0.14-0.08-0.23-0.24-0.21-0.41c0.07-0.42,0.41-0.75,0.83-0.82c0.33-0.07,0.67-0.07,1,0h0.12&#xD;&#xA;		l0,0c0.94,0.17,1.86,0.44,2.75,0.8c0.26,0.11,0.48,0.28,0.65,0.5c0.06,0.1,0.09,0.22,0.07,0.33c-0.05,0.34-0.29,0.63-0.62,0.73" />
	<path class="st3" d="M206.28,343.19c0.77-0.19,3.21,0.15,2.79,1.16s-3,0.23-3.34-0.1c-0.07-0.06-0.12-0.13-0.16-0.21&#xD;&#xA;		c-0.05-0.12-0.05-0.26,0-0.38" />
	<path class="st3" d="M205.63,342.69L205.63,342.69c0.89-0.26,1.84-0.28,2.74-0.06c1.35,0.39,1.92,1.17,1.65,1.91&#xD;&#xA;		s-1.34,1.13-2.62,0.94s-2.3-0.57-2.51-1.21l0,0c-0.08-0.31-0.02-0.65,0.15-0.92" />
	<path class="st3" d="M176.45,323.28L176.45,323.28c-0.83,0.43-1.16,1.45-0.74,2.28l0,0" />
	<path d="M237,326.78c-0.15-0.57-0.23-0.85-0.38-1.41c0.55-0.1,1.11,0.08,1.51,0.48" />
	<path class="st0" d="M217,343.55c0,0,1.06-0.56,1.95-0.92l0,0c-0.14-0.1-0.26-0.24-0.35-0.39c-0.07-0.13-0.12-0.27-0.14-0.42&#xD;&#xA;		c-0.47,0.13-0.93,0.32-1.36,0.55l-0.42,0.28C216.9,342.9,217.02,343.22,217,343.55z" />
	<path class="st0" d="M222.62,341.44c-0.77,0.58-1.72,0.87-2.68,0.81l0,0c-0.2-0.02-0.38-0.13-0.49-0.3&#xD;&#xA;		c-0.08-0.11-0.12-0.24-0.11-0.37l0,0c0,0-0.4,0.09-0.88,0.24c0.02,0.15,0.07,0.29,0.14,0.42c0.09,0.15,0.21,0.29,0.35,0.39l0,0&#xD;&#xA;		c0.71,0.44,1.58,0.52,2.37,0.24c1.19-0.36,2.09-0.88,2.14-1.54c-0.01-0.33-0.13-0.65-0.36-0.89c-0.15,0.11-0.28,0.24-0.4,0.38&#xD;&#xA;		c0.06,0.12,0.08,0.25,0.06,0.38C222.73,341.29,222.68,341.37,222.62,341.44z" />
	<path class="st0" d="M236.48,328.83c0.04,0.11,0.12,0.21,0.22,0.28c0.29,0.22,0.66,0.27,1,0.15c-0.01-0.09-0.04-0.17-0.08-0.25&#xD;&#xA;		c-0.07-0.12-0.17-0.22-0.3-0.28l0,0c0-0.17,0.02-0.34,0.06-0.51c0.34,0.09,0.64,0.28,0.86,0.55l0.34-0.88l0,0&#xD;&#xA;		c0.28-0.87-0.12-1.82-0.95-2.21l0,0c-0.91-0.27-0.57,1-0.59,1c-0.27,0.42-0.47,0.89-0.59,1.38&#xD;&#xA;		C236.38,328.31,236.39,328.58,236.48,328.83z" />
	<path class="st1" d="M236.48,328.83c-0.08-0.24-0.08-0.5,0-0.74c-0.74,0.33-1.36,0.87-1.78,1.56c-0.2,0.36-0.3,0.77-0.29,1.18&#xD;&#xA;		l0.09-0.07c0.22-0.2,0.49-0.35,0.78-0.43C235.5,329.71,235.93,329.18,236.48,328.83z" />
	<path class="st0" d="M238.25,328.76c-0.22-0.27-0.52-0.46-0.86-0.55c-0.04,0.17-0.06,0.34-0.06,0.51l0,0&#xD;&#xA;		c0.13,0.07,0.23,0.17,0.3,0.29c0.04,0.07,0.07,0.16,0.08,0.24c-0.16,0.76-0.6,1.44-1.22,1.91c-0.24,0.19-0.56,0.24-0.85,0.14&#xD;&#xA;		c-0.09-0.05-0.18-0.1-0.26-0.17l-0.68,0.5c0.23,0.26,0.55,0.44,0.9,0.5c0.81,0.06,1.6-0.32,2.05-1&#xD;&#xA;		C238.31,330.21,238.64,329.33,238.25,328.76z" />
	<path class="st0" d="M235.6,332.13c-0.35-0.06-0.67-0.24-0.9-0.5l0,0c-0.37,0.28-0.71,0.59-1,0.95l-0.27,0.4&#xD;&#xA;		c0.3,0.17,0.53,0.44,0.64,0.76l0,0C234.55,333.18,235.06,332.64,235.6,332.13z" />
	<path class="st2" d="M235.64,331.3c0.29,0.1,0.61,0.05,0.85-0.14c0.06-0.15,0.04-0.32-0.07-0.44c-0.28-0.33-0.72-0.48-1.15-0.39&#xD;&#xA;		c-0.29,0.08-0.56,0.23-0.78,0.43l-0.09,0.07l0,0c-0.67,0.52-1.28,1.12-1.82,1.79c-0.16,0.19-0.25,0.43-0.27,0.68&#xD;&#xA;		c0.01,0.12,0.05,0.24,0.13,0.33c0.21,0.3,0.56,0.46,0.92,0.42c0.02-0.08,0.02-0.17,0-0.25c-0.02-0.13-0.08-0.26-0.18-0.35l0,0&#xD;&#xA;		c0.06-0.16,0.14-0.32,0.24-0.46l0.27-0.4c0.29-0.36,0.63-0.67,1-0.95l0,0l0.68-0.5C235.45,331.2,235.54,331.26,235.64,331.3z" />
	<path class="st1" d="M227.49,337.34c0-0.25,0.09-0.49,0.25-0.69l0,0c-0.85,0.11-1.65,0.45-2.31,1c-0.31,0.27-0.55,0.62-0.69,1&#xD;&#xA;		l0.12-0.05c0.29-0.13,0.6-0.19,0.92-0.18C226.23,337.9,226.82,337.52,227.49,337.34z" />
	<path class="st1" d="M230.68,334.29c0.44-0.48,1-0.83,1.63-1c0.02-0.25,0.11-0.49,0.27-0.68c-0.84,0.09-1.64,0.42-2.3,0.95&#xD;&#xA;		c-0.39,0.32-0.66,0.76-0.76,1.26l0.08-0.07C229.89,334.47,230.28,334.31,230.68,334.29z" />
	<path class="st0" d="M230.6,336.27c0.7,0.11,1.42-0.06,2-0.48c1-0.66,1.63-1.4,1.46-2.05c-0.11-0.32-0.34-0.59-0.64-0.76&#xD;&#xA;		c-0.1,0.14-0.18,0.3-0.24,0.46l0,0c0.1,0.09,0.16,0.22,0.18,0.35c0.02,0.08,0.02,0.17,0,0.25c-0.48,0.71-1.18,1.23-2,1.48l0,0&#xD;&#xA;		c-0.27,0.09-0.57,0.03-0.79-0.14c-0.08-0.05-0.13-0.13-0.17-0.21c-0.14,0.11-0.41,0.31-0.7,0.55l0,0c0.05,0.06,0.1,0.12,0.16,0.17&#xD;&#xA;		C230.06,336.09,230.32,336.22,230.6,336.27z" />
	<path class="st2" d="M231.39,335.53L231.39,335.53c0.26-0.3,0.36-0.58,0.15-0.84c-0.22-0.25-0.54-0.39-0.87-0.4&#xD;&#xA;		c-0.41,0.02-0.79,0.19-1.08,0.47l-0.08,0.07l0,0c-0.67,0.53-1.27,1.14-1.78,1.82l0,0c-0.16,0.2-0.25,0.44-0.25,0.69l0,0&#xD;&#xA;		c0.01,0.12,0.05,0.23,0.13,0.32c0.23,0.29,0.58,0.44,0.95,0.41c0.02-0.08,0.02-0.17,0-0.25c-0.03-0.13-0.09-0.26-0.19-0.35&#xD;&#xA;		c0.05-0.17,0.13-0.33,0.23-0.48c0.06-0.11,0.15-0.24,0.25-0.4c0.25-0.32,0.55-0.61,0.87-0.86c0.29-0.24,0.56-0.44,0.7-0.55&#xD;&#xA;		c0.04,0.08,0.09,0.16,0.17,0.21C230.82,335.57,231.12,335.62,231.39,335.53z" />
	<path class="st0" d="M229.73,335.73c-0.32,0.25-0.62,0.54-0.87,0.86c-0.1,0.16-0.19,0.29-0.25,0.4c0.3,0.17,0.53,0.44,0.67,0.76&#xD;&#xA;		c0,0,0.68-0.84,1.32-1.48c-0.27-0.05-0.51-0.18-0.71-0.37C229.83,335.85,229.78,335.79,229.73,335.73L229.73,335.73z" />
	<path class="st0" d="M228.57,338.07c-0.43,0.69-1.09,1.22-1.86,1.49c-0.3,0.11-0.63,0.07-0.89-0.1c-0.08-0.06-0.15-0.14-0.2-0.23&#xD;&#xA;		c-0.08,0-0.43,0.13-0.84,0.29c0.07,0.18,0.19,0.34,0.33,0.47c0.12,0.1,0.25,0.18,0.39,0.23c0.8,0.29,1.7,0.14,2.37-0.39&#xD;&#xA;		c1-0.69,1.6-1.43,1.41-2.08c-0.14-0.32-0.37-0.59-0.67-0.76c-0.1,0.15-0.18,0.31-0.23,0.48c0.1,0.09,0.16,0.22,0.19,0.35&#xD;&#xA;		C228.59,337.9,228.59,337.99,228.57,338.07z" />
	<path class="st0" d="M223.46,340.14c-0.16,0.12-0.3,0.21-0.4,0.3l0,0c0.23,0.24,0.36,0.56,0.36,0.89l0,0c0,0,1.16-0.7,2.07-1.11&#xD;&#xA;		l0,0c-0.14-0.05-0.27-0.13-0.39-0.23c-0.14-0.13-0.26-0.29-0.33-0.47C224.31,339.67,223.87,339.88,223.46,340.14z" />
	<path class="st2" d="M223.06,340.44c0.1-0.09,0.24-0.18,0.4-0.3c0.41-0.26,0.86-0.47,1.32-0.62c0.41-0.16,0.76-0.27,0.84-0.29&#xD;&#xA;		c0.05,0.09,0.12,0.17,0.2,0.23c0.26,0.17,0.59,0.21,0.89,0.1c0.11-0.12,0.14-0.3,0.07-0.45c-0.17-0.4-0.56-0.66-1-0.66&#xD;&#xA;		c-0.32-0.01-0.63,0.05-0.92,0.18l-0.12,0.05c-0.82,0.35-1.62,0.75-2.4,1.19l-0.45,0.47c0,0.04,0,0.07,0,0.11&#xD;&#xA;		c-0.04,0.11-0.04,0.23,0,0.34c0.12,0.34,0.41,0.59,0.77,0.65c0.05-0.07,0.08-0.15,0.1-0.24c0.02-0.13,0-0.26-0.06-0.38&#xD;&#xA;		c0.12-0.14,0.25-0.27,0.4-0.38L223.06,340.44z" />
	<path class="st1" d="M219.89,340.92c0.61-0.33,1.3-0.49,2-0.47c0-0.04,0-0.07,0-0.11l0.45-0.47c-0.88-0.13-1.77-0.04-2.6,0.28&#xD;&#xA;		c-0.38,0.17-0.72,0.42-1,0.73c0.33-0.1,0.67-0.1,1,0L219.89,340.92z" />
	<path class="st2" d="M219.94,342.23c0.39-0.18,0.6-0.4,0.5-0.71c-0.1-0.27-0.29-0.48-0.55-0.6l-0.13-0.05c-0.33-0.1-0.67-0.1-1,0&#xD;&#xA;		l-0.18,0.06h-0.1l0,0c-0.86,0.24-1.69,0.58-2.48,1l0,0c-0.23,0.12-0.42,0.32-0.53,0.55c-0.04,0.11-0.04,0.22,0,0.33&#xD;&#xA;		c0.1,0.35,0.39,0.61,0.74,0.69c0.06-0.06,0.1-0.14,0.11-0.22c0.05-0.13,0.05-0.26,0-0.39l0,0c0.13-0.13,0.27-0.25,0.42-0.35&#xD;&#xA;		l0.42-0.28c0.43-0.24,0.89-0.42,1.36-0.55c0.48-0.15,0.88-0.24,0.88-0.24l0,0c-0.01,0.13,0.03,0.26,0.11,0.37&#xD;&#xA;		c0.11,0.17,0.29,0.28,0.49,0.3l0,0L219.94,342.23z" />
	<path class="st1" d="M213.31,342.16c-0.41,0.14-0.79,0.38-1.09,0.7h0.12c0.34-0.03,0.68,0.02,1,0.14c0.65-0.33,1.37-0.47,2.1-0.42&#xD;&#xA;		c0.11-0.23,0.3-0.43,0.53-0.55C215.09,341.84,214.17,341.89,213.31,342.16z" />
	<path class="st0" d="M212.28,344.51c0.7,0.54,1.61,0.7,2.45,0.45c1.21-0.29,2.14-0.76,2.23-1.41l0,0c0.02-0.34-0.1-0.66-0.33-0.91&#xD;&#xA;		c-0.15,0.1-0.29,0.22-0.42,0.35l0,0c0.05,0.13,0.05,0.26,0,0.39c-0.01,0.08-0.05,0.16-0.11,0.22c-0.71,0.48-1.55,0.73-2.41,0.71&#xD;&#xA;		c-0.32,0.03-0.63-0.12-0.81-0.38c-0.05-0.08-0.08-0.17-0.09-0.27c-0.1,0-0.49,0-0.94,0c0,0.18,0.04,0.37,0.13,0.53&#xD;&#xA;		c0.06,0.13,0.15,0.25,0.26,0.35L212.28,344.51z" />
	<path class="st0" d="M209.83,344.81c0,0,1.39-0.23,2.45-0.3c-0.11-0.1-0.2-0.22-0.26-0.35c-0.09-0.16-0.13-0.35-0.13-0.53&#xD;&#xA;		c-0.51-0.01-1.02,0.02-1.53,0.11l-0.51,0.14C209.97,344.18,209.97,344.52,209.83,344.81z" />
	<path class="st2" d="M213.73,344.31c0.14-0.05,0.24-0.17,0.27-0.31c0-0.43-0.27-0.81-0.68-0.95c-0.32-0.12-0.66-0.17-1-0.14h-0.13&#xD;&#xA;		c-0.94,0-1.88,0.09-2.8,0.26c-0.27,0.05-0.52,0.18-0.72,0.36c-0.08,0.08-0.13,0.19-0.13,0.3c-0.02,0.35,0.16,0.67,0.46,0.84&#xD;&#xA;		c0.07-0.05,0.14-0.1,0.19-0.17c0.08-0.1,0.11-0.23,0.1-0.36l0,0c0.17-0.08,0.35-0.15,0.54-0.2l0.51-0.14&#xD;&#xA;		c0.51-0.09,1.02-0.12,1.53-0.11c0.45,0,0.84,0,0.94,0c0.01,0.1,0.04,0.19,0.09,0.27C213.09,344.22,213.41,344.35,213.73,344.31z" />
	<path class="st4" d="M237.33,328.72c0-0.17,0.02-0.34,0.06-0.51c0.03-0.15,0.06-0.31,0.1-0.46c0.11-0.35,0.26-0.69,0.46-1" />
	<path class="st4" d="M238.25,328.76l0.34-0.88l0,0" />
	<path class="st4" d="M237.65,325.66l-0.82-0.17c0,0,0.29,1.21,0.26,1.25c-0.3,0.4-0.51,0.86-0.62,1.35c-0.08,0.24-0.08,0.5,0,0.74&#xD;&#xA;		c0.04,0.11,0.12,0.21,0.22,0.28c0.29,0.22,0.66,0.27,1,0.15" />
	<path class="st4" d="M237.33,328.72c0.13,0.07,0.23,0.17,0.3,0.29c0.04,0.07,0.07,0.16,0.08,0.24c-0.16,0.76-0.6,1.44-1.22,1.91&#xD;&#xA;		c-0.24,0.19-0.56,0.24-0.85,0.14c-0.09-0.05-0.18-0.1-0.26-0.17" />
	<path class="st4" d="M235.27,330.33c0.23-0.62,0.65-1.15,1.21-1.5" />
	<path class="st4" d="M234.7,331.63c0.23,0.26,0.55,0.44,0.9,0.5c0.81,0.06,1.6-0.32,2.05-1c0.66-0.91,1-1.79,0.6-2.36&#xD;&#xA;		c-0.22-0.27-0.52-0.46-0.86-0.55l0,0" />
	<path class="st4" d="M234.4,330.83c-0.01-0.41,0.09-0.82,0.29-1.18c0.42-0.69,1.04-1.23,1.78-1.56" />
	<path class="st4" d="M233.19,333.44c0.06-0.16,0.14-0.32,0.24-0.46l0.27-0.4c0.29-0.36,0.63-0.67,1-0.95l0,0l0.68-0.5l0,0" />
	<path class="st4" d="M234.07,333.74c0.48-0.56,0.99-1.1,1.53-1.61" />
	<path class="st4" d="M236.49,331.16c0.06-0.15,0.04-0.32-0.07-0.44c-0.28-0.33-0.72-0.48-1.15-0.39c-0.29,0.08-0.56,0.23-0.78,0.43&#xD;&#xA;		l-0.09,0.07l0,0c-0.67,0.52-1.28,1.12-1.82,1.79c-0.16,0.19-0.25,0.43-0.27,0.68c0.01,0.12,0.05,0.24,0.13,0.33&#xD;&#xA;		c0.21,0.3,0.56,0.46,0.92,0.42" />
	<path class="st4" d="M231.39,335.53c-0.27,0.09-0.57,0.03-0.79-0.14c-0.08-0.05-0.13-0.13-0.17-0.21" />
	<path class="st4" d="M233.19,333.45c0.1,0.09,0.16,0.22,0.18,0.35c0.02,0.08,0.02,0.17,0,0.25c-0.48,0.71-1.18,1.23-2,1.48" />
	<path class="st4" d="M230.68,334.29c0.44-0.48,1-0.83,1.63-1l0,0" />
	<path class="st4" d="M233.43,333L233.43,333c0.3,0.17,0.53,0.44,0.64,0.76c0.17,0.65-0.48,1.39-1.46,2.05&#xD;&#xA;		c-0.58,0.42-1.3,0.59-2,0.48c-0.27-0.05-0.51-0.18-0.71-0.37c-0.06-0.05-0.11-0.11-0.16-0.17" />
	<path class="st4" d="M229.52,334.83c0.1-0.5,0.37-0.94,0.76-1.26c0.66-0.53,1.46-0.86,2.3-0.95l0,0" />
	<path class="st4" d="M228.38,337.47c0.05-0.17,0.13-0.33,0.23-0.48c0.06-0.11,0.15-0.24,0.25-0.4c0.25-0.32,0.55-0.61,0.87-0.86&#xD;&#xA;		c0.29-0.24,0.56-0.44,0.7-0.55l0.11-0.07" />
	<path class="st4" d="M229.28,337.75c0,0,0.68-0.84,1.32-1.48" />
	<path class="st4" d="M231.39,335.53L231.39,335.53c0.26-0.3,0.36-0.58,0.15-0.84c-0.22-0.25-0.54-0.39-0.87-0.4&#xD;&#xA;		c-0.41,0.02-0.79,0.19-1.08,0.47l-0.08,0.07l0,0c-0.67,0.53-1.27,1.14-1.78,1.82l0,0c-0.16,0.2-0.25,0.44-0.25,0.69l0,0&#xD;&#xA;		c0.01,0.12,0.05,0.23,0.13,0.32c0.23,0.29,0.58,0.44,0.95,0.41l0,0" />
	<path class="st4" d="M228.38,337.47c0.1,0.09,0.16,0.22,0.19,0.35c0.02,0.08,0.02,0.17,0,0.25c-0.43,0.69-1.09,1.22-1.86,1.49&#xD;&#xA;		c-0.3,0.11-0.63,0.07-0.89-0.1c-0.08-0.06-0.15-0.14-0.2-0.23" />
	<path class="st4" d="M225.78,338.45c0.45-0.53,1.04-0.92,1.71-1.11" />
	<path class="st4" d="M224.78,339.52c0.07,0.18,0.19,0.34,0.33,0.47c0.12,0.1,0.25,0.18,0.39,0.23c0.8,0.29,1.7,0.14,2.37-0.39&#xD;&#xA;		c1-0.69,1.6-1.43,1.41-2.08c-0.14-0.32-0.37-0.59-0.67-0.76l0,0" />
	<path class="st4" d="M224.74,338.68c0.14-0.38,0.38-0.73,0.69-1c0.66-0.55,1.46-0.89,2.31-1" />
	<path class="st4" d="M223.06,340.44c0.1-0.09,0.24-0.18,0.4-0.3c0.41-0.26,0.86-0.47,1.32-0.62c0.41-0.16,0.76-0.27,0.84-0.29l0,0" />
	<path class="st4" d="M222.66,340.82c0.12-0.14,0.25-0.27,0.4-0.38" />
	<path class="st4" d="M223.43,341.34c0,0,1.16-0.7,2.07-1.11" />
	<path class="st4" d="M226.71,339.56c0.11-0.12,0.14-0.3,0.07-0.45c-0.17-0.4-0.56-0.66-1-0.66c-0.32-0.01-0.63,0.05-0.92,0.18&#xD;&#xA;		l-0.12,0.05c-0.82,0.35-1.62,0.75-2.4,1.19l-0.45,0.47c0,0.04,0,0.07,0,0.11c-0.04,0.11-0.04,0.23,0,0.34&#xD;&#xA;		c0.12,0.34,0.41,0.59,0.77,0.65" />
	<path class="st4" d="M221.85,340.45L221.85,340.45c-0.7-0.02-1.39,0.14-2,0.47" />
	<path class="st4" d="M219.33,341.57c-0.01,0.13,0.03,0.26,0.11,0.37c0.11,0.17,0.29,0.28,0.49,0.3l0,0&#xD;&#xA;		c0.96,0.06,1.91-0.23,2.68-0.81c0.05-0.07,0.08-0.15,0.1-0.24c0.02-0.13,0-0.26-0.06-0.38" />
	<path class="st4" d="M222.34,339.87L222.34,339.87c-0.88-0.13-1.77-0.04-2.6,0.28c-0.38,0.17-0.72,0.42-1,0.73" />
	<path class="st4" d="M218.41,341.81c0.02,0.15,0.07,0.29,0.14,0.42c0.09,0.15,0.21,0.29,0.35,0.39l0,0&#xD;&#xA;		c0.71,0.44,1.58,0.52,2.37,0.24c1.19-0.36,2.09-0.87,2.14-1.54c0-0.33-0.13-0.65-0.36-0.89l0,0" />
	<path class="st4" d="M219.29,341.57c0,0-0.4,0.09-0.88,0.24c-0.47,0.13-0.93,0.32-1.36,0.55l-0.42,0.28&#xD;&#xA;		c-0.15,0.1-0.29,0.22-0.42,0.35" />
	<path class="st4" d="M217,343.55c0,0,1.06-0.56,1.95-0.92" />
	<path class="st4" d="M216.14,343.6L216.14,343.6c-0.35-0.08-0.64-0.34-0.74-0.69c-0.04-0.11-0.04-0.22,0-0.33&#xD;&#xA;		c0.11-0.23,0.3-0.43,0.53-0.55l0,0c0.79-0.42,1.62-0.76,2.48-1l0,0h0.1l0.18-0.06c0.33-0.1,0.67-0.1,1,0l0.13,0.05&#xD;&#xA;		c0.26,0.12,0.45,0.33,0.55,0.6c0.1,0.31-0.11,0.53-0.5,0.71l0,0" />
	<path class="st4" d="M216.21,343c0.05,0.13,0.05,0.26,0,0.39c-0.01,0.08-0.05,0.16-0.11,0.22c-0.71,0.48-1.55,0.73-2.41,0.71&#xD;&#xA;		c-0.32,0.03-0.63-0.12-0.81-0.38c-0.05-0.08-0.08-0.17-0.09-0.27" />
	<path class="st4" d="M213.31,343c0.65-0.33,1.37-0.47,2.1-0.42l0,0" />
	<path class="st4" d="M212.28,344.51c0.7,0.54,1.61,0.7,2.45,0.45c1.21-0.29,2.14-0.76,2.23-1.41l0,0c0.02-0.34-0.1-0.66-0.33-0.91&#xD;&#xA;		l0,0" />
	<path class="st4" d="M211.89,343.63c0,0.18,0.04,0.37,0.13,0.53c0.06,0.13,0.15,0.25,0.26,0.35" />
	<path class="st4" d="M212.22,342.86c0.3-0.32,0.68-0.56,1.09-0.7c0.85-0.27,1.76-0.31,2.63-0.13l0,0" />
	<path class="st4" d="M212.28,344.51L212.28,344.51c-0.82,0.07-1.63,0.19-2.44,0.35c0,0,0.29-0.22,0.18-1" />
	<path class="st4" d="M213.73,344.31c0.14-0.05,0.24-0.17,0.27-0.31c0-0.43-0.27-0.81-0.68-0.95c-0.32-0.12-0.66-0.17-1-0.14h-0.13&#xD;&#xA;		c-0.94,0-1.88,0.09-2.8,0.26c-0.27,0.05-0.52,0.18-0.72,0.36c-0.08,0.08-0.13,0.19-0.13,0.3c-0.05,0.31,0.08,0.61,0.33,0.8&#xD;&#xA;		c0.17-0.14,0.31-0.31,0.42-0.5c0.17-0.08,0.35-0.15,0.54-0.2l0.51-0.14c0.51-0.09,1.02-0.12,1.53-0.11c0.45,0,0.84,0,0.94,0l0,0" />
	<path class="st4" d="M237.65,325.66L237.65,325.66c0.83,0.39,1.24,1.34,0.95,2.21l0,0" />
	<ellipse transform="matrix(0.9988 -0.0499 0.0499 0.9988 -17.3139 11.2598)" cx="216.68" cy="352.12" rx="5.36" ry="5.39" />
	<polygon class="st5" points="215.91,355.52 216.61,355.25 215.38,354.67 	" />
	<polygon class="st6" points="217.22,355.22 218.38,354.53 217.94,355.43 	" />
	<polygon class="st6" points="214.02,352.7 214.72,354.12 213.65,353.71 	" />
	<path class="st5" d="M213.12,355.28c-0.25-0.3-0.46-0.64-0.63-1l0.79-0.32L213.12,355.28z" />
	<path class="st6" d="M212,352.05c0.01-0.46,0.09-0.92,0.23-1.36l0.86,0.26L212,352.05z" />
	<polygon class="st5" points="214.54,350.43 213.98,351.91 213.52,350.94 	" />
	<path class="st5" d="M212.3,350.47c0.14-0.35,0.32-0.69,0.54-1l0.28,1.28L212.3,350.47z" />
	<path class="st6" d="M212.39,354.08c-0.18-0.42-0.3-0.87-0.36-1.33l1.19,1L212.39,354.08z" />
	<polygon class="st7" points="213.82,352.31 213.38,353.52 212.04,352.4 213.27,351.15 	" />
	<polygon class="st6" points="215.6,348.92 216.32,349.12 215.15,349.81 	" />
	<path class="st6" d="M216.73,357c-0.55,0-1.1-0.1-1.62-0.3l0.71-0.81L216.73,357z" />
	<polygon class="st8" points="216.91,355.12 215.15,354.29 214.16,352.3 214.96,350.22 216.63,349.23 218.39,350.05 219.37,352.05 &#xD;&#xA;		218.58,354.13 	" />
	<polygon class="st7" points="214.88,354.44 215.58,355.56 213.41,355.52 213.6,353.95 	" />
	<polygon class="st5" points="218.15,349.67 216.92,349.1 217.62,348.82 	" />
	<polygon class="st5" points="219,353.92 219.56,352.44 220.02,353.41 	" />
	<polygon class="st6" points="219.52,351.64 218.82,350.22 219.88,350.63 	" />
	<path class="st6" d="M214.84,356.59c-0.47-0.21-0.9-0.5-1.28-0.85h2L214.84,356.59z" />
	<polygon class="st7" points="216.99,356.87 216.05,355.72 216.92,355.38 217.82,355.63 	" />
	<polygon class="st7" points="220.09,353.64 220.42,355.19 218.27,355.44 218.86,354.25 	" />
	<path class="st6" d="M221.23,353.88c-0.14,0.35-0.32,0.69-0.53,1l-0.29-1.29L221.23,353.88z" />
	<polygon class="st7" points="219.71,352.03 220.15,350.82 221.49,351.95 220.26,353.2 	" />
	<path class="st6" d="M221.53,352.3c-0.01,0.46-0.08,0.92-0.22,1.36l-0.86-0.26L221.53,352.3z" />
	<path class="st5" d="M220.3,355.42c-0.34,0.4-0.74,0.73-1.19,1l-0.79-0.74L220.3,355.42z" />
	<path class="st6" d="M218.85,356.53c-0.5,0.24-1.03,0.4-1.58,0.46l0.79-1.2L218.85,356.53z" />
	<polygon class="st7" points="218.66,349.91 217.96,348.78 220.12,348.82 219.93,350.39 	" />
	<path class="st6" d="M221.15,350.26c0.18,0.43,0.3,0.88,0.35,1.34l-1.18-1L221.15,350.26z" />
	<path class="st6" d="M216.81,347.33c0.55,0.01,1.1,0.11,1.62,0.31l-0.72,0.8L216.81,347.33z" />
	<path class="st6" d="M218.7,347.75c0.47,0.21,0.9,0.5,1.28,0.85h-2L218.7,347.75z" />
	<path class="st6" d="M213.23,348.92c0.34-0.4,0.75-0.73,1.2-1l0.79,0.74L213.23,348.92z" />
	<path class="st9" d="M214.69,347.81c0.5-0.24,1.03-0.39,1.58-0.45l-0.8,1.19L214.69,347.81z" />
	<polygon class="st7" points="213.45,350.7 213.11,349.16 215.26,348.91 214.67,350.1 	" />
	<polygon class="st7" points="215.72,348.71 216.54,347.48 217.48,348.63 216.62,348.97 	" />
	<path class="st5" d="M220.42,349.07c0.25,0.3,0.46,0.64,0.63,1l-0.79,0.32L220.42,349.07z" />
	<path class="st10" d="M214.79,343.79L214.79,343.79c0.27-0.06,0.54,0.11,0.6,0.38l0.59,2.63c0.06,0.27-0.11,0.54-0.38,0.6l0,0&#xD;&#xA;		c-0.27,0.06-0.54-0.11-0.6-0.38l-0.59-2.63C214.35,344.12,214.52,343.85,214.79,343.79z" />
</g>
<g id="Jewellery">
	<circle class="st11" cx="138.98" cy="209.8" r="2.56" />
	<path class="st11" d="M139,212.35c0,0-3.37,33.36-3.37,41.79c0,8.43,3.37,10.45,3.37,10.45s3.38-2,3.38-10.45&#xD;&#xA;		S139,212.35,139,212.35z" />
</g>
</svg>