<svg xmlns="http://www.w3.org/2000/svg" viewBox="0 0 432 432">
  <defs>
    <style>.GUNDAN_RAT_JEWELRY_RAT_JEWELRY_2_cls-1{fill:#ed9547;}.GUNDAN_RAT_JEWELRY_RAT_JEWELRY_2_cls-2{fill:#facf56;}.GUNDAN_RAT_JEWELRY_RAT_JEWELRY_2_cls-3{fill:#b32126;}.GUNDAN_RAT_JEWELRY_RAT_JEWELRY_2_cls-4{fill:#ee3742;}.GUNDAN_RAT_JEWELRY_RAT_JEWELRY_2_cls-5,.GUNDAN_RAT_JEWELRY_RAT_JEWELRY_2_cls-6{fill:none;stroke:#000;stroke-linecap:round;}.GUNDAN_RAT_JEWELRY_RAT_JEWELRY_2_cls-5{stroke-miterlimit:10;stroke-width:0.9px;}.GUNDAN_RAT_JEWELRY_RAT_JEWELRY_2_cls-6{stroke-linejoin:round;stroke-width:0.65px;}</style>
  </defs>
  <g id="Jewellery">
    <path class="GUNDAN_RAT_JEWELRY_RAT_JEWELRY_2_cls-1" d="M122.92,238.55c1.44-16.14,15-11.4,11.38,1.61C127.24,244.16,122.92,238.55,122.92,238.55Z" />
    <path class="GUNDAN_RAT_JEWELRY_RAT_JEWELRY_2_cls-2" d="M124.77,237.62c1.24-13.83,12.81-9.77,9.76,1.38C128.47,242.43,124.77,237.62,124.77,237.62Z" />
    <path class="GUNDAN_RAT_JEWELRY_RAT_JEWELRY_2_cls-3" d="M133.49,260.89a2.68,2.68,0,0,1-3.89,1.4,2.69,2.69,0,0,1-4.22.29,2.66,2.66,0,0,1-3.95-1.44,2.7,2.7,0,0,1-3.36-2.43s-3.22-.07-3-2.7,7.81-17.46,7.81-17.46,4.32,5.61,11.38,1.61l.11,0s3.15,16.34,2.67,18.93S133.49,260.89,133.49,260.89Z" />
    <path class="GUNDAN_RAT_JEWELRY_RAT_JEWELRY_2_cls-4" d="M133.17,258.65a2.46,2.46,0,0,1-3.57,1.24,2.51,2.51,0,0,1-3.87.25,2.5,2.5,0,0,1-3.64-1.31,2.46,2.46,0,0,1-3.09-2.18s-3-.07-2.73-2.43,7.11-15.6,7.11-15.6,4,5,10.47,1.48h.1s3,14.64,2.52,17S133.17,258.65,133.17,258.65Z" />
    <path class="GUNDAN_RAT_JEWELRY_RAT_JEWELRY_2_cls-5" d="M122.92,238.55s4.32,5.61,11.38,1.61C137.87,227.15,124.36,222.41,122.92,238.55Z" />
    <path class="GUNDAN_RAT_JEWELRY_RAT_JEWELRY_2_cls-5" d="M134.41,240.18s3.15,16.34,2.67,18.93-3.59,1.78-3.59,1.78a2.68,2.68,0,0,1-3.89,1.4,2.69,2.69,0,0,1-4.22.29,2.66,2.66,0,0,1-3.95-1.44,2.7,2.7,0,0,1-3.36-2.43s-3.22-.07-3-2.7,7.81-17.46,7.81-17.46" />
    <path class="GUNDAN_RAT_JEWELRY_RAT_JEWELRY_2_cls-5" d="M130,214a6.12,6.12,0,0,1-.21-3.81,4.43,4.43,0,0,1,1.63-2.3" />
    <path class="GUNDAN_RAT_JEWELRY_RAT_JEWELRY_2_cls-5" d="M135.23,208.57a3.54,3.54,0,0,1,1.05,3.06,5.86,5.86,0,0,1-4.51,4.94l-.54,3.78" />
    <line class="GUNDAN_RAT_JEWELRY_RAT_JEWELRY_2_cls-5" x1="130.21" y1="228.36" x2="130.58" y2="225.74" />
    <path class="GUNDAN_RAT_JEWELRY_RAT_JEWELRY_2_cls-5" d="M131.34,220.36a2.72,2.72,0,1,1-3.06,2.31A2.73,2.73,0,0,1,131.34,220.36Z" />
    <line class="GUNDAN_RAT_JEWELRY_RAT_JEWELRY_2_cls-5" x1="123.37" y1="244.79" x2="118.07" y2="258.71" />
    <line class="GUNDAN_RAT_JEWELRY_RAT_JEWELRY_2_cls-5" x1="124.91" y1="249.29" x2="121.43" y2="261.14" />
    <line class="GUNDAN_RAT_JEWELRY_RAT_JEWELRY_2_cls-5" x1="127.95" y1="245.43" x2="125.38" y2="262.58" />
    <line class="GUNDAN_RAT_JEWELRY_RAT_JEWELRY_2_cls-5" x1="129.67" y1="251.67" x2="129.6" y2="262.29" />
    <line class="GUNDAN_RAT_JEWELRY_RAT_JEWELRY_2_cls-5" x1="131.54" y1="244.77" x2="133.49" y2="260.89" />
    <path class="GUNDAN_RAT_JEWELRY_RAT_JEWELRY_2_cls-6" d="M136.2,207.75a2.21,2.21,0,0,0-1.83,2" />
  </g>
</svg>