<svg xmlns="http://www.w3.org/2000/svg" viewBox="0 0 432 432">
  <defs>
    <style>.GUNDAN_RAT_JEWELRY_RAT_JEWELRY_6_cls-1{fill:#85432d;stroke-miterlimit:10;stroke-width:0.76px;}.GUNDAN_RAT_JEWELRY_RAT_JEWELRY_6_cls-1,.GUNDAN_RAT_JEWELRY_RAT_JEWELRY_6_cls-11,.GUNDAN_RAT_JEWELRY_RAT_JEWELRY_6_cls-6{stroke:#000;}.GUNDAN_RAT_JEWELRY_RAT_JEWELRY_6_cls-2{fill:#b9876e;}.GUNDAN_RAT_JEWELRY_RAT_JEWELRY_6_cls-3{fill:#645433;}.GUNDAN_RAT_JEWELRY_RAT_JEWELRY_6_cls-4{fill:#766e4a;}.GUNDAN_RAT_JEWELRY_RAT_JEWELRY_6_cls-5{fill:#dfca6d;}.GUNDAN_RAT_JEWELRY_RAT_JEWELRY_6_cls-11,.GUNDAN_RAT_JEWELRY_RAT_JEWELRY_6_cls-6{fill:none;stroke-linecap:round;stroke-linejoin:round;}.GUNDAN_RAT_JEWELRY_RAT_JEWELRY_6_cls-6{stroke-width:0.78px;}.GUNDAN_RAT_JEWELRY_RAT_JEWELRY_6_cls-7{fill:#b7866d;}.GUNDAN_RAT_JEWELRY_RAT_JEWELRY_6_cls-8{fill:#f49092;}.GUNDAN_RAT_JEWELRY_RAT_JEWELRY_6_cls-9{fill:#e12d2b;}.GUNDAN_RAT_JEWELRY_RAT_JEWELRY_6_cls-10{fill:#9e1d20;}.GUNDAN_RAT_JEWELRY_RAT_JEWELRY_6_cls-11{stroke-width:0.61px;}</style>
  </defs>
  <g id="Necklace">
    <path class="GUNDAN_RAT_JEWELRY_RAT_JEWELRY_6_cls-1" d="M191.15,332.68a4,4,0,0,0-1,1.14c-6.56-5.07-10.74-11.09-12.2-17.67-.09-.37-.34-2.48,1.66-2.6,0,0,0,.16-.15.57a5.33,5.33,0,0,0,0,3C181.45,323.66,186,328.78,191.15,332.68Z" />
    <path class="GUNDAN_RAT_JEWELRY_RAT_JEWELRY_6_cls-1" d="M237.19,321.64a40.74,40.74,0,0,1-7.26,10.83,3.68,3.68,0,0,0-.88-1.07,39.32,39.32,0,0,0,6.88-10.33,9.64,9.64,0,0,0-.13-2.59A2.33,2.33,0,0,1,237.19,321.64Z" />
    <path class="GUNDAN_RAT_JEWELRY_RAT_JEWELRY_6_cls-2" d="M193.53,337.2a1.55,1.55,0,0,1-1.55-1.5,1.55,1.55,0,0,1,1.49-1.62h0a1.56,1.56,0,0,1,.13,3.12Z" />
    <path d="M193.54,334.24a1.4,1.4,0,0,1,1.39,1.34,1.41,1.41,0,0,1-1.34,1.46h-.06a1.4,1.4,0,0,1-.05-2.8h.06m0-.33h-.08a1.69,1.69,0,0,0-1.19.55,1.72,1.72,0,0,0,1.26,2.89h.08a1.73,1.73,0,0,0-.07-3.45Z" />
    <path class="GUNDAN_RAT_JEWELRY_RAT_JEWELRY_6_cls-2" d="M193.41,340.3l-.31,0a.17.17,0,0,1-.15-.18l0-.26a4.94,4.94,0,0,1-.53-.1l-.08.24a.16.16,0,0,1-.08.1l-.07,0h-.05l-.3-.1a.16.16,0,0,1-.09-.21l.09-.24-.49-.25-.14.22a.17.17,0,0,1-.13.07l-.09,0a1.51,1.51,0,0,1-.26-.18.11.11,0,0,1-.06-.1.12.12,0,0,1,0-.12l.15-.21a4.73,4.73,0,0,1-.4-.37l-.19.17a.15.15,0,0,1-.11,0h0a.16.16,0,0,1-.11,0l-.21-.25a.16.16,0,0,1,0-.22l.21-.16c-.11-.15-.2-.31-.29-.46l-.23.11h-.13a.2.2,0,0,1-.09-.09c0-.09-.09-.19-.13-.29a.17.17,0,0,1,.09-.21l.24-.1a4.44,4.44,0,0,1-.15-.52l-.28.05a.15.15,0,0,1-.16-.13c0-.11,0-.21,0-.32a.17.17,0,0,1,.15-.18l.25,0c0-.05,0-.09,0-.14s0-.27,0-.41l-.26,0a.24.24,0,0,1-.11-.06.13.13,0,0,1,0-.12c0-.1,0-.21,0-.31a.16.16,0,0,1,.16-.14l.27,0a5.08,5.08,0,0,1,.15-.52l-.24-.1a.12.12,0,0,1-.09-.08.2.2,0,0,1,0-.13c0-.09.09-.19.13-.29a.16.16,0,0,1,.15-.09h.07l.23.11a3.52,3.52,0,0,1,.28-.46l-.21-.16a.16.16,0,0,1,0-.23l.2-.24a.14.14,0,0,1,.12-.06.15.15,0,0,1,.11,0l.19.17a4.75,4.75,0,0,1,.4-.38l-.16-.2a.19.19,0,0,1,0-.12.14.14,0,0,1,.07-.11l.25-.19.09,0h0a.14.14,0,0,1,.1.07l.15.21c.15-.09.31-.17.47-.25l-.09-.24a.15.15,0,0,1,.09-.21l.3-.11h0a.16.16,0,0,1,.15.11l.08.25a4.54,4.54,0,0,1,.53-.12l0-.25A.17.17,0,0,1,193,331l.31,0h0a.16.16,0,0,1,.16.16v.25h0a4.53,4.53,0,0,1,.52,0l0-.25a.13.13,0,0,1,.06-.1.17.17,0,0,1,.1,0l.34.06a.17.17,0,0,1,.1.07.17.17,0,0,1,0,.12l-.06.26.51.17.11-.23a.16.16,0,0,1,.15-.09h.07c.09,0,.19.09.28.15a.16.16,0,0,1,.07.22l-.13.22.45.31.17-.19a.13.13,0,0,1,.11-.06h0a.15.15,0,0,1,.11,0l.23.21a.17.17,0,0,1,0,.23l-.18.19a4.87,4.87,0,0,1,.35.42l.21-.15.09,0a.16.16,0,0,1,.14.08c.06.08.11.17.17.26a.2.2,0,0,1,0,.13.23.23,0,0,1-.07.1l-.23.13a3.64,3.64,0,0,1,.22.49l.25-.08h.05l.07,0a.14.14,0,0,1,.08.1,1.71,1.71,0,0,1,.09.3.13.13,0,0,1,0,.12.14.14,0,0,1-.09.08l-.25.06c0,.18.06.36.08.54H198a.15.15,0,0,1,.11,0,.18.18,0,0,1,.05.12,1.71,1.71,0,0,1,0,.32.18.18,0,0,1-.05.12.21.21,0,0,1-.11,0h-.26c0,.19,0,.37-.07.54l.25.06a.16.16,0,0,1,.1.08.16.16,0,0,1,0,.12c0,.1,0,.2-.08.3a.17.17,0,0,1-.16.12h-.05l-.25-.07a3.55,3.55,0,0,1-.21.5l.23.12a.16.16,0,0,1,.08.1.17.17,0,0,1,0,.12,2.54,2.54,0,0,1-.16.28.17.17,0,0,1-.14.07.11.11,0,0,1-.08,0l-.22-.14c-.11.15-.22.29-.34.43l.18.18a.16.16,0,0,1,0,.23l-.23.22a.18.18,0,0,1-.1,0h0a.14.14,0,0,1-.12-.06l-.17-.19a5,5,0,0,1-.44.32l.13.22a.17.17,0,0,1,0,.12.16.16,0,0,1-.08.1,1.91,1.91,0,0,1-.28.15l-.07,0a.19.19,0,0,1-.15-.09l-.11-.24a3.52,3.52,0,0,1-.51.19l.06.25a.17.17,0,0,1-.12.2,2.84,2.84,0,0,1-.31.06h0a.18.18,0,0,1-.16-.14l0-.25-.42,0h-.12v.26a.17.17,0,0,1-.16.16Zm0-7.88a3.22,3.22,0,0,0,.13,6.44h.14a3.21,3.21,0,0,0,3.08-3.34,3.2,3.2,0,0,0-3.21-3.09Z" />
    <path d="M193.34,331.14l0,.42h.18a3.49,3.49,0,0,1,.65.06l.07-.41.3.06-.1.41a3.51,3.51,0,0,1,.79.27l.18-.38.27.14-.2.37a4,4,0,0,1,.69.47l.27-.32.23.21-.3.3a3.61,3.61,0,0,1,.53.64l.35-.23a2.26,2.26,0,0,1,.16.26l-.36.2a4.09,4.09,0,0,1,.34.77l.4-.13a2.45,2.45,0,0,1,.08.29l-.4.1a3.78,3.78,0,0,1,.12.83l.42,0h0v.31h-.42a4.38,4.38,0,0,1-.1.82l.4.1c0,.1,0,.2-.08.3l-.4-.13a3.51,3.51,0,0,1-.33.77l.37.2c-.05.09-.1.18-.16.27l-.35-.23a4.63,4.63,0,0,1-.52.65l.3.29-.22.22-.28-.32a4,4,0,0,1-.68.49l.21.36-.27.15-.18-.38a4.13,4.13,0,0,1-.79.29l.1.4-.3.06-.07-.41a5,5,0,0,1-.56.07h-.27v.42h-.31l0-.42a4.57,4.57,0,0,1-.82-.16l-.12.4-.29-.1.15-.39a4.4,4.4,0,0,1-.75-.38l-.22.35-.25-.18.25-.33a4.19,4.19,0,0,1-.62-.57l-.31.28-.2-.24.33-.25a5.64,5.64,0,0,1-.44-.71l-.37.18a2.39,2.39,0,0,1-.13-.28l.39-.15a4.42,4.42,0,0,1-.23-.81l-.41.08c0-.1,0-.2-.05-.3l.42-.05a2.64,2.64,0,0,1,0-.28,5,5,0,0,1,0-.55l-.41,0a2.91,2.91,0,0,1,0-.31l.4.07a4.42,4.42,0,0,1,.23-.81l-.39-.15a1.69,1.69,0,0,1,.12-.28l.38.18a3.67,3.67,0,0,1,.42-.72l-.33-.25.19-.24.32.27a4,4,0,0,1,.6-.57l-.25-.33a2.27,2.27,0,0,1,.25-.18l.23.35a3.42,3.42,0,0,1,.73-.39l-.15-.39.29-.11.13.4a4.33,4.33,0,0,1,.81-.18l-.05-.41.31,0m.19,7.88h.14a3.38,3.38,0,0,0-.13-6.76h-.14a3.38,3.38,0,0,0,.13,6.76m-.19-8.2h0c-.11,0-.22,0-.33,0a.32.32,0,0,0-.22.12.32.32,0,0,0-.07.23v.11l-.24.05,0-.1a.31.31,0,0,0-.3-.22H192l-.31.12a.3.3,0,0,0-.18.17.31.31,0,0,0,0,.25l0,.1-.23.12-.06-.09a.32.32,0,0,0-.2-.14H191a.33.33,0,0,0-.19.06,2.48,2.48,0,0,0-.26.19.32.32,0,0,0-.06.46l.07.08-.19.17-.08-.07a.31.31,0,0,0-.21-.07h0a.3.3,0,0,0-.23.11,2.56,2.56,0,0,0-.2.26.34.34,0,0,0-.06.24.35.35,0,0,0,.12.21l.09.06a2.53,2.53,0,0,0-.13.22l-.1,0a.31.31,0,0,0-.13,0,.34.34,0,0,0-.3.18c0,.1-.09.2-.13.31a.33.33,0,0,0,0,.24.35.35,0,0,0,.18.18l.1,0a2.33,2.33,0,0,0-.07.25l-.1,0h-.05a.31.31,0,0,0-.19.06.3.3,0,0,0-.13.21c0,.11,0,.22-.05.33a.32.32,0,0,0,.08.23.3.3,0,0,0,.22.12h.1v.25H189a.33.33,0,0,0-.29.36c0,.11,0,.22,0,.33a.32.32,0,0,0,.32.26h.06l.1,0c0,.08,0,.16.07.24l-.1,0a.34.34,0,0,0-.18.42,2.09,2.09,0,0,0,.14.3.31.31,0,0,0,.29.19.25.25,0,0,0,.14,0l.1,0a2.39,2.39,0,0,0,.13.21l-.09.07a.32.32,0,0,0-.05.45,2.39,2.39,0,0,0,.21.26.31.31,0,0,0,.24.1.28.28,0,0,0,.21-.08l.08-.07a1.54,1.54,0,0,0,.19.17l-.06.09a.3.3,0,0,0-.07.24.36.36,0,0,0,.13.21l.27.19a.37.37,0,0,0,.18.05h.07a.28.28,0,0,0,.2-.14l.06-.09a2.39,2.39,0,0,0,.22.12l0,.1a.31.31,0,0,0,0,.25.33.33,0,0,0,.18.17l.31.11h.1a.32.32,0,0,0,.31-.23l0-.1.25.05v.11a.32.32,0,0,0,.29.35l.33,0h0a.31.31,0,0,0,.22-.09.33.33,0,0,0,.1-.23V340l.26,0v.1a.34.34,0,0,0,.14.21.3.3,0,0,0,.18.06h.06l.32-.07a.3.3,0,0,0,.2-.14.32.32,0,0,0,0-.25l0-.1.24-.09.05.1a.32.32,0,0,0,.29.18.35.35,0,0,0,.14,0,2.69,2.69,0,0,0,.29-.16.32.32,0,0,0,.15-.19.36.36,0,0,0,0-.25l-.05-.09.2-.15.07.08a.36.36,0,0,0,.25.11.34.34,0,0,0,.21-.08L197,339a.32.32,0,0,0,.09-.23.33.33,0,0,0-.09-.23l-.08-.07.16-.2.09.06a.33.33,0,0,0,.45-.1c0-.09.11-.18.16-.28a.32.32,0,0,0-.12-.44l-.1,0a2.44,2.44,0,0,0,.1-.24l.11,0h.09a.26.26,0,0,0,.15,0,.3.3,0,0,0,.16-.19l.09-.32a.33.33,0,0,0-.24-.39l-.11,0a2.17,2.17,0,0,0,0-.25H198a.31.31,0,0,0,.22-.09.28.28,0,0,0,.1-.22,1.82,1.82,0,0,0,0-.33.33.33,0,0,0-.1-.23.31.31,0,0,0-.22-.09h-.12a2.17,2.17,0,0,0,0-.25l.1,0a.33.33,0,0,0,.24-.4l-.09-.31A.34.34,0,0,0,198,334a.28.28,0,0,0-.15,0l-.1,0-.1,0a2.4,2.4,0,0,0-.11-.23l.1-.05a.34.34,0,0,0,.12-.45l-.18-.27a.31.31,0,0,0-.27-.15.32.32,0,0,0-.18.06l-.09.06-.16-.2.08-.07a.33.33,0,0,0,0-.46l-.24-.22a.28.28,0,0,0-.21-.08h0a.33.33,0,0,0-.22.11l-.07.08-.2-.14.05-.1a.33.33,0,0,0-.13-.44l-.29-.15a.35.35,0,0,0-.14,0,.31.31,0,0,0-.29.19l0,.1-.24-.08,0-.11a.34.34,0,0,0,0-.24.28.28,0,0,0-.2-.15l-.32-.06h-.05a.32.32,0,0,0-.19.07.3.3,0,0,0-.13.21l0,.1-.25,0v-.1a.29.29,0,0,0-.1-.22.31.31,0,0,0-.22-.09Zm.19,7.87a3.06,3.06,0,0,1-.12-6.11h.13a3.06,3.06,0,0,1,2.24,5.13,3,3,0,0,1-2.12,1Z" />
    <path class="GUNDAN_RAT_JEWELRY_RAT_JEWELRY_6_cls-2" d="M226.66,336.18a1.56,1.56,0,0,1-.06-3.12h0a1.57,1.57,0,0,1,1.62,1.5,1.55,1.55,0,0,1-1.49,1.62Z" />
    <path d="M226.66,333.22a1.4,1.4,0,0,1,.06,2.8h-.06a1.4,1.4,0,0,1,0-2.8h0m0-.32h-.07a1.73,1.73,0,0,0-1.19.55,1.68,1.68,0,0,0-.46,1.24,1.72,1.72,0,0,0,1.72,1.65h.07a1.72,1.72,0,0,0-.07-3.44Z" />
    <path class="GUNDAN_RAT_JEWELRY_RAT_JEWELRY_6_cls-2" d="M226.54,339.28l-.32,0a.16.16,0,0,1-.14-.18l0-.26a4.51,4.51,0,0,1-.53-.1l-.08.25a.14.14,0,0,1-.08.09.1.1,0,0,1-.07,0h-.05l-.3-.1a.18.18,0,0,1-.09-.08.2.2,0,0,1,0-.13l.1-.24a4.52,4.52,0,0,1-.49-.25l-.14.22a.18.18,0,0,1-.1.07h0l-.09,0a2.48,2.48,0,0,1-.26-.19.15.15,0,0,1,0-.22l.16-.21a3.51,3.51,0,0,1-.4-.37l-.2.17a.14.14,0,0,1-.1,0,.13.13,0,0,1-.12-.05l-.21-.24a.27.27,0,0,1,0-.12.17.17,0,0,1,.06-.11l.21-.16a4.43,4.43,0,0,1-.29-.46l-.23.11-.07,0a.16.16,0,0,1-.15-.09c-.05-.1-.09-.2-.13-.29a.29.29,0,0,1,0-.13.14.14,0,0,1,.09-.08l.24-.1a5.08,5.08,0,0,1-.15-.52l-.28,0a.17.17,0,0,1-.1,0,.13.13,0,0,1-.06-.1c0-.1,0-.21-.05-.31a.17.17,0,0,1,.14-.18l.26,0c0-.05,0-.09,0-.13s0-.28,0-.42l-.26,0a.17.17,0,0,1-.15-.17c0-.11,0-.22,0-.32a.19.19,0,0,1,.07-.11l.09,0,.28,0a4.61,4.61,0,0,1,.15-.53l-.24-.09a.16.16,0,0,1-.1-.21c0-.1.08-.2.13-.3a.24.24,0,0,1,.09-.08h.05l.07,0,.24.11a3.64,3.64,0,0,1,.28-.47l-.21-.16a.11.11,0,0,1-.06-.1.12.12,0,0,1,0-.12,2.43,2.43,0,0,1,.2-.25.14.14,0,0,1,.12-.06.13.13,0,0,1,.1,0l.2.17a4.61,4.61,0,0,1,.4-.37l-.16-.21a.15.15,0,0,1,0-.23l.25-.18.09,0a.15.15,0,0,1,.14.07l.14.22c.16-.1.32-.18.48-.26l-.09-.24a.13.13,0,0,1,0-.12.14.14,0,0,1,.08-.09l.3-.11h0l.08,0a.14.14,0,0,1,.08.1l.08.24a3.12,3.12,0,0,1,.53-.11l0-.26a.17.17,0,0,1,0-.12.14.14,0,0,1,.11-.06l.31,0h0a.15.15,0,0,1,.11,0,.16.16,0,0,1,0,.11v.26h0a4.71,4.71,0,0,1,.53,0l0-.26a.13.13,0,0,1,.06-.1.17.17,0,0,1,.1,0h0l.31.06a.17.17,0,0,1,.13.2l-.06.25.51.18.11-.24a.16.16,0,0,1,.15-.09h.07l.28.15a.14.14,0,0,1,.08.1.17.17,0,0,1,0,.12l-.12.23a3.19,3.19,0,0,1,.44.31l.17-.2a.23.23,0,0,1,.12-.06h0a.18.18,0,0,1,.1,0l.24.22a.15.15,0,0,1,0,.22l-.18.19a3.47,3.47,0,0,1,.34.42l.22-.15.09,0h0a.16.16,0,0,1,.11.07l.16.27a.13.13,0,0,1,0,.12.16.16,0,0,1-.08.1l-.22.13a3.78,3.78,0,0,1,.22.5l.25-.09h.05a.15.15,0,0,1,.15.11l.09.3a.2.2,0,0,1,0,.13.18.18,0,0,1-.1.07l-.25.06a3.35,3.35,0,0,1,.08.54h.27a.17.17,0,0,1,.16.15v.34a.16.16,0,0,1-.16.15h-.26c0,.18,0,.36-.07.54l.25.06a.14.14,0,0,1,.1.07.16.16,0,0,1,0,.12c0,.1,0,.21-.08.31a.17.17,0,0,1-.16.11h-.05l-.25-.07a4.4,4.4,0,0,1-.21.5l.23.13a.18.18,0,0,1,.08.09.2.2,0,0,1,0,.13l-.16.27a.16.16,0,0,1-.14.07l-.09,0-.21-.14c-.11.14-.22.28-.35.42l.19.18a.17.17,0,0,1,0,.23,2.39,2.39,0,0,1-.23.22.15.15,0,0,1-.11,0h0a.16.16,0,0,1-.11,0l-.17-.2a4.48,4.48,0,0,1-.44.32l.13.22a.15.15,0,0,1,0,.13.17.17,0,0,1-.07.1l-.28.14-.07,0h-.06a.14.14,0,0,1-.09-.08l-.11-.23-.51.18.06.25a.19.19,0,0,1,0,.13.18.18,0,0,1-.1.07l-.31.07h0l-.09,0a.14.14,0,0,1-.07-.1l0-.26a3,3,0,0,1-.42,0h-.13v.26a.17.17,0,0,1-.16.16Zm0-7.88a3.22,3.22,0,0,0,.13,6.44h.14a3.22,3.22,0,0,0-.14-6.44Z" />
    <path d="M226.47,330.13l0,.41h.18a4.62,4.62,0,0,1,.65,0l.07-.41.3.06-.1.41a3.51,3.51,0,0,1,.79.27l.18-.38.27.14-.2.37a3.93,3.93,0,0,1,.68.47l.28-.32.22.21-.29.3a4,4,0,0,1,.53.64l.35-.23a2.26,2.26,0,0,1,.16.26l-.36.21a4,4,0,0,1,.34.76l.4-.13c0,.1.06.19.08.29l-.4.11a3.69,3.69,0,0,1,.12.82l.42,0h0v.31h-.42a3.85,3.85,0,0,1-.11.83l.41.09c0,.1,0,.2-.08.3l-.4-.12a3.64,3.64,0,0,1-.33.76l.37.21-.16.26-.35-.23a4.12,4.12,0,0,1-.52.65l.3.3-.23.21-.27-.31a4.63,4.63,0,0,1-.68.48l.21.36-.27.15-.19-.38a4,4,0,0,1-.78.29l.1.4-.3.07-.07-.42a3.43,3.43,0,0,1-.56.07h-.27v.42l-.31,0,0-.42a4.41,4.41,0,0,1-.82-.16l-.12.4-.29-.1.15-.39a4.06,4.06,0,0,1-.75-.38l-.22.35-.26-.17.25-.34a4.05,4.05,0,0,1-.61-.56l-.31.27a2.2,2.2,0,0,1-.2-.23l.33-.26a3.67,3.67,0,0,1-.44-.71l-.37.19-.13-.28.39-.16a4.32,4.32,0,0,1-.23-.8l-.41.07c0-.1,0-.2-.05-.3l.42-.05,0-.28c0-.19,0-.37,0-.55l-.41,0c0-.1,0-.2,0-.31l.41.07a4.1,4.1,0,0,1,.22-.8l-.39-.15.12-.29.38.18a4.42,4.42,0,0,1,.43-.72l-.33-.25.19-.24.32.28a4.11,4.11,0,0,1,.6-.58l-.26-.33.25-.18.24.35a4.63,4.63,0,0,1,.73-.39l-.15-.39.28-.1.13.39a4.42,4.42,0,0,1,.82-.17l-.05-.42.31,0m.19,7.87h.14a3.38,3.38,0,0,0-.14-6.76h-.14a3.38,3.38,0,0,0,.14,6.76m-.19-8.2h0l-.32,0a.33.33,0,0,0-.29.36v.1l-.24.06,0-.11a.34.34,0,0,0-.31-.22l-.1,0-.31.11a.31.31,0,0,0-.17.17.28.28,0,0,0,0,.25l0,.1-.23.12-.06-.09a.32.32,0,0,0-.2-.14h-.07a.41.41,0,0,0-.18.05l-.26.19a.34.34,0,0,0-.13.22.36.36,0,0,0,.07.24l.06.08-.18.18-.08-.07a.32.32,0,0,0-.21-.08h0a.39.39,0,0,0-.22.11c-.07.09-.14.17-.2.26a.29.29,0,0,0-.06.24.28.28,0,0,0,.12.21l.09.07a2.39,2.39,0,0,0-.13.21l-.1,0a.32.32,0,0,0-.14,0l-.11,0a.33.33,0,0,0-.18.17c0,.1-.09.2-.13.3a.31.31,0,0,0,0,.25.3.3,0,0,0,.18.17l.1,0a2.17,2.17,0,0,0-.07.24l-.1,0h-.06a.33.33,0,0,0-.32.27c0,.11,0,.22,0,.33a.33.33,0,0,0,.3.35h.1v.25l-.1,0a.3.3,0,0,0-.22.12.32.32,0,0,0-.07.23c0,.11,0,.22,0,.33a.32.32,0,0,0,.32.27h0l.11,0a2.17,2.17,0,0,0,.07.24l-.1.05a.31.31,0,0,0-.18.42c0,.1.09.2.14.3a.32.32,0,0,0,.18.16l.11,0a.35.35,0,0,0,.14,0l.09-.05.14.22-.09.06a.33.33,0,0,0-.06.45l.21.26a.38.38,0,0,0,.23.11h0a.32.32,0,0,0,.21-.08l.08-.07.19.17-.07.08a.35.35,0,0,0-.06.24.38.38,0,0,0,.13.22l.27.18a.29.29,0,0,0,.18.05.33.33,0,0,0,.27-.14l.06-.09.22.11,0,.1a.33.33,0,0,0,.19.42l.31.11h.1a.4.4,0,0,0,.15,0,.36.36,0,0,0,.16-.2l0-.1.25,0v.11a.32.32,0,0,0,.29.35l.33,0h0a.33.33,0,0,0,.32-.32V339l.25,0,0,.1a.34.34,0,0,0,.14.21.3.3,0,0,0,.18.06h.06l.32-.07a.34.34,0,0,0,.24-.4l0-.1.24-.08,0,.09a.33.33,0,0,0,.3.18l.14,0,.29-.15a.37.37,0,0,0,.15-.2.37.37,0,0,0,0-.25l-.05-.09.2-.15.07.08a.29.29,0,0,0,.24.11.3.3,0,0,0,.22-.08l.24-.22a.33.33,0,0,0,0-.46l-.07-.08.16-.2.09.06a.26.26,0,0,0,.17.05h.07a.32.32,0,0,0,.2-.14c.06-.1.12-.19.17-.29a.33.33,0,0,0,0-.24.34.34,0,0,0-.15-.2l-.1-.05a2.29,2.29,0,0,0,.1-.23l.1,0h.1a.32.32,0,0,0,.31-.22l.09-.32a.36.36,0,0,0,0-.25.35.35,0,0,0-.2-.14l-.11,0a1.9,1.9,0,0,0,0-.25h.12a.36.36,0,0,0,.22-.09.33.33,0,0,0,.1-.23,1.82,1.82,0,0,0,0-.33.34.34,0,0,0-.1-.23.32.32,0,0,0-.23-.09H231c0-.08,0-.16,0-.25l.1,0a.34.34,0,0,0,.24-.4l-.09-.31a.34.34,0,0,0-.31-.23l-.1,0-.1,0c0-.07-.07-.15-.11-.23l.09,0a.32.32,0,0,0,.12-.44,2.61,2.61,0,0,0-.17-.28.31.31,0,0,0-.27-.15.32.32,0,0,0-.18.06l-.09.06a1.46,1.46,0,0,0-.16-.19l.08-.08a.33.33,0,0,0,.09-.23.33.33,0,0,0-.1-.23l-.24-.22a.34.34,0,0,0-.21-.08.36.36,0,0,0-.25.11l-.07.09-.21-.15.06-.09a.31.31,0,0,0,0-.25.32.32,0,0,0-.15-.19l-.3-.15a.31.31,0,0,0-.13,0,.35.35,0,0,0-.3.18l0,.1-.24-.08,0-.11a.29.29,0,0,0,0-.24.34.34,0,0,0-.2-.15l-.32-.06h-.05a.31.31,0,0,0-.32.27l0,.1h-.25v-.11a.32.32,0,0,0-.1-.22.31.31,0,0,0-.22-.09Zm.19,7.88a3.06,3.06,0,0,1-.12-6.11h.12a3.06,3.06,0,0,1,2.25,5.13,3,3,0,0,1-2.12,1Z" />
    <path class="GUNDAN_RAT_JEWELRY_RAT_JEWELRY_6_cls-3" d="M198.58,348.62a.19.19,0,0,1-.14-.09l0,0a.13.13,0,0,1-.1,0h0l-.32,0a.17.17,0,0,1-.12-.11.2.2,0,0,1-.12.06h0l-.31-.08a.14.14,0,0,1-.1-.07l0-.05a.12.12,0,0,1-.1.05h-.06l-.3-.12a.15.15,0,0,1-.1-.13.05.05,0,0,1,0,0h-.12l-.29-.15a.16.16,0,0,1-.08-.14l0,0h0l-.09,0-.26-.17a.19.19,0,0,1-.07-.11v0h-.06a.13.13,0,0,1-.1,0,1.64,1.64,0,0,1-.25-.21.17.17,0,0,1,0-.15h0a.17.17,0,0,1-.12,0l-.22-.24a.15.15,0,0,1,0-.16h0a.11.11,0,0,1-.11-.06c-.07-.08-.13-.17-.2-.26a.16.16,0,0,1,0-.12.06.06,0,0,1,0,0h0a.16.16,0,0,1-.13-.08l-.17-.27a.2.2,0,0,1,0-.17h0a.16.16,0,0,1-.1-.08c0-.1-.09-.2-.12-.3a.16.16,0,0,1,0-.16h0a.14.14,0,0,1-.08-.09c0-.11-.07-.21-.1-.31a.16.16,0,0,1,0-.16.19.19,0,0,1-.11-.12l-.06-.32a.27.27,0,0,1,0-.12l0,0,0,0a.14.14,0,0,1-.06-.11c0-.11,0-.21,0-.31a.15.15,0,0,1,0-.13l0,0s0,0,0,0a.16.16,0,0,1,0-.11c0-.11,0-.22,0-.32a.17.17,0,0,1,.09-.14.16.16,0,0,1-.06-.15c0-.1,0-.21.05-.32a.15.15,0,0,1,.11-.12s0,0,0,0a.13.13,0,0,1,0-.12c0-.1,0-.21.08-.31a.24.24,0,0,1,.08-.09l.05,0a.15.15,0,0,1,0-.16l.12-.3A.2.2,0,0,1,194,341h0l0,0a.13.13,0,0,1,0-.12,2.49,2.49,0,0,1,.15-.28.16.16,0,0,1,.1-.08h0a.2.2,0,0,1,0-.17l.19-.26a.16.16,0,0,1,.13-.06h0a.08.08,0,0,1,0,0,.16.16,0,0,1,0-.12,2.57,2.57,0,0,1,.21-.24.17.17,0,0,1,.12-.05h0a.17.17,0,0,1,0-.16l.24-.21a.21.21,0,0,1,.1,0h.06a.16.16,0,0,1,.06-.15l.27-.18a.12.12,0,0,1,.09,0l.07,0a.16.16,0,0,1,.08-.14l.28-.16.07,0h0l.05,0a.14.14,0,0,1,.09-.13l.3-.12h.12l0,0,0-.05a.24.24,0,0,1,.09-.08l.31-.08h0a.13.13,0,0,1,.12,0l0,0a.14.14,0,0,1,.1-.07l.34-.05a.14.14,0,0,1,.13.07l0,0a.14.14,0,0,1,.11-.06h.32a.16.16,0,0,1,.14.08l0,0a.16.16,0,0,1,.11-.05l.33,0a.14.14,0,0,1,.13.09.16.16,0,0,1,.13-.06h0l.32.06a.19.19,0,0,1,.12.11.16.16,0,0,1,.12,0h0l.31.1a.17.17,0,0,1,.1.12.2.2,0,0,1,.11,0h.06l.29.13a.15.15,0,0,1,.09.13l.09,0,.08,0,.28.16a.23.23,0,0,1,.07.1v.05l0,0h0a.19.19,0,0,1,.1,0l.25.2a.11.11,0,0,1,.06.1v0h.05a.21.21,0,0,1,.11,0l.24.22a.2.2,0,0,1,0,.16h0a.16.16,0,0,1,.11.05l.21.25a.13.13,0,0,1,0,.12.06.06,0,0,1,0,0h.05a.14.14,0,0,1,.1.07l.18.27a.15.15,0,0,1,0,.16.15.15,0,0,1,.14.08,2.7,2.7,0,0,1,.15.29.15.15,0,0,1,0,.16.17.17,0,0,1,.12.1c0,.1.08.21.12.31a.17.17,0,0,1,0,.12.08.08,0,0,0,0,0h0a.23.23,0,0,1,.07.1c0,.11.06.21.08.32a.17.17,0,0,1-.05.15.17.17,0,0,1,.1.13,3.11,3.11,0,0,1,0,.32.14.14,0,0,1-.06.14l0,0a.17.17,0,0,1,0,.12c0,.11,0,.22,0,.33a.17.17,0,0,1-.09.14.13.13,0,0,1,.07.14,1.66,1.66,0,0,1,0,.32.16.16,0,0,1-.1.13.19.19,0,0,1,.06.16c0,.1-.05.21-.07.31a.16.16,0,0,1-.12.12.16.16,0,0,1,0,.16c0,.1-.07.2-.11.31a.14.14,0,0,1-.08.09h0a.15.15,0,0,1,0,.16,2.59,2.59,0,0,1-.14.29.14.14,0,0,1-.09.08h0a.18.18,0,0,1,0,.16l-.18.28a.17.17,0,0,1-.13.07h0v0a.17.17,0,0,1,0,.12l-.2.25a.16.16,0,0,1-.13.06h0a.06.06,0,0,1,0,0,.18.18,0,0,1-.05.12l-.22.22a.16.16,0,0,1-.11.05h-.05a.14.14,0,0,1-.06.15l-.25.2a.13.13,0,0,1-.1,0l-.06,0a.17.17,0,0,1-.08.15l-.27.17-.08,0-.08,0a.22.22,0,0,1-.09.14l-.29.13-.07,0h-.06l0,0a.15.15,0,0,1-.1.13l-.31.1h0a.16.16,0,0,1-.11,0l0,0a.18.18,0,0,1-.1.07l-.32.07h0a.14.14,0,0,1-.12-.06.17.17,0,0,1-.13.1l-.32,0h0a.17.17,0,0,1-.14-.07l0,0a.15.15,0,0,1-.12.05h-.32ZM195,345a4.2,4.2,0,0,0,3.85,2.5H199a4.23,4.23,0,0,0,2.58-1l-1.08-1.09a2.6,2.6,0,0,1-1.56.58h-.11a2.7,2.7,0,0,1-2.41-1.49Zm7.24.78a4.2,4.2,0,0,0,.84-2.69,4.26,4.26,0,0,0-2.84-3.82l-.4,1.49a2.68,2.68,0,0,1,1.23,4ZM197,344.27a2.05,2.05,0,0,0,1.8,1.07,2.13,2.13,0,0,0,1.21-.4l-.75-.75a.88.88,0,0,1-.42.11h0a1,1,0,0,1-.84-.39Zm3.53.12a2,2,0,0,0-.91-3l-.28,1a1,1,0,0,1,.48.81,1,1,0,0,1-.1.47Zm-1.9-5.33a4.25,4.25,0,0,0-4.06,4.4,3.74,3.74,0,0,0,.09.66l1.48-.39c0-.11,0-.22,0-.33a2.7,2.7,0,0,1,2.59-2.81H199l.27-1.52-.48,0Zm.09,2.18a2,2,0,0,0-1.43.66,2,2,0,0,0-.54,1.47,1.23,1.23,0,0,0,0,.19l1-.27a1,1,0,0,1,.91-1l.19-1h-.09v-.16Z" />
    <path d="M198.77,338.11v.47H199l0-.47.31,0-.05.46.26,0,.07-.46.31.06-.1.46.24.05.13-.44.29.09-.15.44.24.09.18-.43.28.13-.2.41.23.12.22-.41.27.16-.25.39.21.15.27-.38.25.18-.29.37.19.16.31-.35a2.39,2.39,0,0,1,.23.22l-.33.33.18.18.34-.31.2.24-.36.29.15.2.38-.27c.06.09.12.17.17.26l-.39.25.12.22.41-.23.14.28-.41.2.09.23.44-.17c0,.09.07.19.1.29l-.43.15c0,.08,0,.16.07.24l.45-.13c0,.11.05.21.07.31l-.45.1c0,.08,0,.16,0,.24l.46-.07c0,.1,0,.21,0,.31l-.46.05a2,2,0,0,1,0,.25l.46,0h0a1.6,1.6,0,0,1,0,.31h-.46a2.09,2.09,0,0,1,0,.25l.46,0,0,.31-.46-.06a1.87,1.87,0,0,1,0,.25l.46.09c0,.1,0,.2-.07.3l-.45-.11c0,.08-.05.16-.07.24l.44.14c0,.1-.06.2-.1.3l-.43-.17-.1.24.43.19-.14.28-.41-.22-.13.23.41.23-.17.27-.39-.26-.14.21.37.27a2.43,2.43,0,0,1-.2.25l-.35-.3-.17.19.34.32-.22.22-.32-.34-.19.16.3.36-.25.19-.27-.37-.21.14.25.39-.26.17-.23-.4-.23.12.21.41-.28.13-.18-.42-.24.09.16.44-.29.1-.14-.45-.24.07.11.45-.31.07-.08-.46-.25,0,.06.46-.31,0,0-.46h-.26v.46h-.31l0-.47-.25,0-.05.47-.31,0,.07-.46-.24-.05-.1.45-.31-.07.13-.45-.24-.08-.15.44-.3-.11.18-.43-.23-.1-.2.42a2.44,2.44,0,0,1-.28-.14l.23-.41-.22-.13-.25.4-.26-.18.27-.38-.2-.15-.29.37-.24-.21.31-.34-.18-.18-.33.33a2.39,2.39,0,0,1-.22-.23l.35-.3-.16-.2-.37.29-.18-.25L195,346l-.14-.21-.4.25-.15-.27.41-.22a2.53,2.53,0,0,1-.12-.23l-.42.2a2.52,2.52,0,0,1-.12-.29l.43-.17-.09-.24-.44.15c0-.09-.06-.2-.09-.3l.45-.12a1.05,1.05,0,0,1-.06-.24l-.46.09c0-.1,0-.2-.05-.3l.45-.07,0-.26-.46.05c0-.1,0-.2,0-.3h0l.46,0v-.25h-.46c0-.1,0-.21,0-.31l.46,0,0-.25-.46-.06c0-.1,0-.21.05-.31l.45.09.06-.25-.45-.11c0-.1.05-.2.08-.3l.44.14c0-.08,0-.16.08-.24l-.43-.16.12-.29.43.19a1.6,1.6,0,0,1,.1-.23l-.41-.22.15-.27.4.24a1.64,1.64,0,0,1,.14-.22l-.39-.26.18-.25.37.28.16-.2-.36-.3.21-.23.34.32.18-.18-.32-.34.23-.21.3.36.2-.16-.28-.37L196,339l.26.39.21-.13-.23-.4a1.51,1.51,0,0,1,.28-.15l.21.41.22-.11-.18-.42.29-.12.16.43.24-.07-.14-.45.3-.08.11.45.25,0-.09-.46.31-.05.06.46.25,0,0-.47h.31m-4.21,6.21,1.8-.48a2.12,2.12,0,0,1-.07-.45,2.55,2.55,0,0,1,2.44-2.64h.09l.34,0,.33-1.82a3.71,3.71,0,0,0-.67-.06h-.17a4.4,4.4,0,0,0-4.21,4.57,4.71,4.71,0,0,0,.12.85m7.69,1.71a4.37,4.37,0,0,0-2.15-6.94l-.48,1.79a2.52,2.52,0,0,1,1.21,4l1.42,1.19m-5.58-2.27,1.32-.35a.28.28,0,0,1,0-.09.85.85,0,0,1,.81-.89h.07l.24-1.35-.28,0h-.08a2.22,2.22,0,0,0-2.12,2.31,1.58,1.58,0,0,0,0,.38m3.92.87a2.25,2.25,0,0,0,.45-1.44,2.22,2.22,0,0,0-1.5-2l-.36,1.32a.84.84,0,0,1,.5.74.77.77,0,0,1-.14.5l1.05.88m-1.76.87h.09a2.18,2.18,0,0,0,1.36-.55l-1-1a.89.89,0,0,1-.45.15h0a.85.85,0,0,1-.73-.42l-1.29.46a2.21,2.21,0,0,0,2,1.32m0,2.18H199a4.34,4.34,0,0,0,2.81-1.17l-1.31-1.32a2.46,2.46,0,0,1-1.57.64h-.11a2.55,2.55,0,0,1-2.33-1.53l-1.74.63a4.4,4.4,0,0,0,4.07,2.76m-.06-9.89h-.33a.25.25,0,0,0-.15.05.2.2,0,0,0-.11,0h0l-.33.05a.31.31,0,0,0-.13.06h-.15l-.33.09a.46.46,0,0,0-.13.08h0a.25.25,0,0,0-.12,0l-.3.12a.27.27,0,0,0-.12.09h0a.24.24,0,0,0-.15,0,2.69,2.69,0,0,0-.29.16.27.27,0,0,0-.11.1.34.34,0,0,0-.14.05l-.28.19a.27.27,0,0,0-.09.12.27.27,0,0,0-.14.07l-.24.22a.34.34,0,0,0-.09.12.5.5,0,0,0-.12.08l-.23.25a.35.35,0,0,0-.06.14.27.27,0,0,0-.12.09l-.19.27a.3.3,0,0,0-.05.15.27.27,0,0,0-.11.1c-.06.1-.11.2-.16.3a.33.33,0,0,0,0,.14.94.94,0,0,0-.09.12l-.12.31a.26.26,0,0,0,0,.15.35.35,0,0,0-.08.13l-.09.32a.38.38,0,0,0,0,.15.35.35,0,0,0-.06.14c0,.11,0,.22-.05.33a.26.26,0,0,0,0,.15.33.33,0,0,0,0,.14c0,.11,0,.23,0,.34a.32.32,0,0,0,0,.14.4.4,0,0,0,0,.15q0,.18,0,.33a.27.27,0,0,0,0,.15.34.34,0,0,0,0,.15l.06.32a.61.61,0,0,0,.07.14.26.26,0,0,0,0,.15c0,.11.06.21.09.32a.57.57,0,0,0,.08.13.4.4,0,0,0,0,.15c0,.1.08.2.13.3a.27.27,0,0,0,.09.12.33.33,0,0,0,0,.14,2.75,2.75,0,0,0,.17.29.38.38,0,0,0,.11.11.3.3,0,0,0,0,.14,2.56,2.56,0,0,0,.2.26.4.4,0,0,0,.12.1.42.42,0,0,0,.07.13l.23.24a.29.29,0,0,0,.13.08.2.2,0,0,0,.08.12,2.75,2.75,0,0,0,.26.22.31.31,0,0,0,.13.06.4.4,0,0,0,.1.12l.28.18a.24.24,0,0,0,.14.05.35.35,0,0,0,.11.1l.3.15a.23.23,0,0,0,.14,0h0a.36.36,0,0,0,.12.08,2,2,0,0,0,.31.12l.11,0h0l.13.07.33.08h.15a.24.24,0,0,0,.14,0l.33.05h0l.12,0a.33.33,0,0,0,.14,0h.33a.33.33,0,0,0,.15,0l.13,0h0l.33,0a.34.34,0,0,0,.14-.05h.15l.33-.07.13-.07h.15l.32-.11a.36.36,0,0,0,.12-.08h0a.28.28,0,0,0,.13,0l.3-.14a.29.29,0,0,0,.12-.1.23.23,0,0,0,.14,0l.28-.18a.29.29,0,0,0,.11-.11.22.22,0,0,0,.14-.06l.26-.2a.34.34,0,0,0,.09-.12.46.46,0,0,0,.13-.08l.23-.23a.46.46,0,0,0,.08-.13.34.34,0,0,0,.12-.09l.21-.26a.35.35,0,0,0,.06-.14.35.35,0,0,0,.11-.1l.18-.28a.42.42,0,0,0,0-.15.52.52,0,0,0,.1-.11c.05-.1.1-.2.14-.3a.4.4,0,0,0,0-.15.26.26,0,0,0,.08-.13c0-.1.08-.21.11-.31a.26.26,0,0,0,0-.15.27.27,0,0,0,.07-.14,3,3,0,0,0,.07-.32.38.38,0,0,0,0-.15.34.34,0,0,0,.05-.14c0-.11,0-.22,0-.33a.33.33,0,0,0,0-.15.42.42,0,0,0,0-.15c0-.11,0-.22,0-.33a.32.32,0,0,0,0-.16.25.25,0,0,0,0-.15c0-.11,0-.22,0-.33a.35.35,0,0,0-.06-.14.26.26,0,0,0,0-.15c0-.11-.05-.22-.08-.32a.4.4,0,0,0-.07-.13.39.39,0,0,0,0-.15c0-.11-.07-.21-.11-.32a.27.27,0,0,0-.09-.12.4.4,0,0,0,0-.15l-.15-.29a.27.27,0,0,0-.1-.11.66.66,0,0,0-.05-.15c-.06-.09-.12-.19-.19-.28a.31.31,0,0,0-.11-.09.35.35,0,0,0-.06-.14l-.22-.26a.36.36,0,0,0-.12-.08.35.35,0,0,0-.08-.13l-.24-.23a.42.42,0,0,0-.13-.07.29.29,0,0,0-.1-.12l-.26-.2a.35.35,0,0,0-.14-.06.27.27,0,0,0-.11-.1l-.28-.17a.28.28,0,0,0-.15,0,.4.4,0,0,0-.12-.1l-.3-.13-.12,0h0a.38.38,0,0,0-.13-.09l-.32-.09-.08,0h-.07a.46.46,0,0,0-.14-.07l-.32-.06h-.15l-.15-.05-.33,0h0a.28.28,0,0,0-.13,0l-.15,0Zm-4,6.13a3.57,3.57,0,0,1,0-.47,4.06,4.06,0,0,1,3.89-4.23h.45l-.22,1.2h-.18a2.87,2.87,0,0,0-2.74,3,1.49,1.49,0,0,0,0,.21l-1.18.31Zm5.2-3.24.32-1.17a4.06,4.06,0,0,1,2.56,3.61,4,4,0,0,1-.7,2.44l-.92-.78a2.86,2.86,0,0,0-1.26-4.1Zm-3.07,2.67a1.9,1.9,0,0,1,1.78-2l-.14.74a1.17,1.17,0,0,0-.92,1l-.72.19Zm2.62-1,.19-.72a1.9,1.9,0,0,1,1,1.57,1.87,1.87,0,0,1-.21.93l-.56-.47a1.59,1.59,0,0,0,.06-.43,1.19,1.19,0,0,0-.45-.88Zm-2.28,2,.71-.26a1.17,1.17,0,0,0,.84.37,1.43,1.43,0,0,0,.43-.09l.53.54a1.94,1.94,0,0,1-.88.25h-.08a1.9,1.9,0,0,1-1.55-.82Zm-2.08.75,1.14-.41a2.87,2.87,0,0,0,2.49,1.45H199a2.94,2.94,0,0,0,1.54-.53l.85.86a4.08,4.08,0,0,1-2.34.87h-.17a4.05,4.05,0,0,1-3.63-2.24Z" />
    <path class="GUNDAN_RAT_JEWELRY_RAT_JEWELRY_6_cls-2" d="M207.08,346.17a.19.19,0,0,1-.09,0l-.08,0-.22,0-.09,0h-.09l-.2,0a.16.16,0,0,1-.08-.05h-.1l-.2-.08a.13.13,0,0,1-.07-.06h0l-.07,0-.19-.1a.12.12,0,0,1-.06-.06h0a.16.16,0,0,1-.09,0l-.17-.11a.16.16,0,0,1-.06-.08l-.09,0-.15-.14a.1.1,0,0,1,0-.08.13.13,0,0,1-.09,0l-.14-.15a.12.12,0,0,1,0-.08.16.16,0,0,1-.08-.06l-.12-.16a.16.16,0,0,1,0-.09.16.16,0,0,1-.07-.07,1.74,1.74,0,0,1-.11-.18.29.29,0,0,1,0-.09.13.13,0,0,1-.06-.07l-.08-.19a.11.11,0,0,1,0-.1.11.11,0,0,1-.06-.07l-.06-.2a.17.17,0,0,1,0-.1.12.12,0,0,1,0-.08l0-.2a.16.16,0,0,1,0-.1.14.14,0,0,1,0-.09l0-.2a.19.19,0,0,1,0-.1.14.14,0,0,1,0-.09,1.48,1.48,0,0,1,0-.21.11.11,0,0,1,0-.08.16.16,0,0,1,0-.1l0-.2a.15.15,0,0,1,0-.09.14.14,0,0,1,0-.09c0-.07,0-.14.05-.2a.12.12,0,0,1,.06-.08.11.11,0,0,1,0-.1c0-.07.05-.13.07-.19a.16.16,0,0,1,.07-.07.17.17,0,0,1,0-.1l.1-.18a.13.13,0,0,1,.07-.06.17.17,0,0,1,0-.1l.12-.16a.16.16,0,0,1,.08-.06.12.12,0,0,1,0-.09l.13-.15a.2.2,0,0,1,.09-.05.12.12,0,0,1,0-.08l.16-.14.09,0a.22.22,0,0,1,.05-.08l.17-.11.09,0h0a.13.13,0,0,1,.06-.07l.18-.1.07,0h0a.14.14,0,0,1,.07-.06l.19-.08h.1a.13.13,0,0,1,.07-.06l.21,0h.09a.2.2,0,0,1,.08,0l.23,0h.07l.09,0h.21a.12.12,0,0,1,.09,0l.09,0,.21,0a.13.13,0,0,1,.09,0l.07,0,.23,0a.14.14,0,0,1,.08.05h.1l.2.06a.18.18,0,0,1,.07.05h.1l.19.09a.13.13,0,0,1,.07.06h0l.08,0,.18.11a.11.11,0,0,1,.06.07.17.17,0,0,1,.1,0l.16.12a.14.14,0,0,1,.05.08.19.19,0,0,1,.09,0l.15.14a.2.2,0,0,1,.05.09.14.14,0,0,1,.08,0c0,.05.09.1.13.16a.19.19,0,0,1,0,.09.18.18,0,0,1,.07.05l.12.18a.29.29,0,0,1,0,.09.16.16,0,0,1,.07.07l.09.18a.15.15,0,0,1,0,.09.24.24,0,0,1,.06.08l.07.19a.17.17,0,0,1,0,.1.14.14,0,0,1,0,.08,1.46,1.46,0,0,1,.05.2.12.12,0,0,1,0,.1.14.14,0,0,1,0,.08l0,.21a.1.1,0,0,1,0,.09.18.18,0,0,1,0,.1v.21a.16.16,0,0,1,0,.09.15.15,0,0,1,0,.09,1.49,1.49,0,0,1,0,.21.2.2,0,0,1,0,.08.17.17,0,0,1,0,.1c0,.07,0,.14,0,.2a.16.16,0,0,1,0,.08.34.34,0,0,1,0,.1c0,.06-.05.13-.07.2s0,.05-.06.07a.34.34,0,0,1,0,.1l-.09.18a.16.16,0,0,1-.07.07.18.18,0,0,1,0,.1s-.07.11-.11.17a.16.16,0,0,1-.08.06.14.14,0,0,1,0,.09l-.13.16a.1.1,0,0,1-.08.05.13.13,0,0,1,0,.09l-.15.15-.08,0a.16.16,0,0,1-.06.08l-.16.13-.09,0a.11.11,0,0,1-.06.07l-.18.11a.11.11,0,0,1-.08,0h0a.12.12,0,0,1-.07.07l-.18.09h-.1l-.07.06-.2.06h-.1a.14.14,0,0,1-.08.05l-.23.05-.07,0a.09.09,0,0,1-.08,0l-.22,0a.11.11,0,0,1-.08,0,.17.17,0,0,1-.1,0h-.2Zm-2.19-2.3a2.6,2.6,0,0,0,2.35,1.48h.11a2.58,2.58,0,0,0,1.54-.59l-.61-.61a1.64,1.64,0,0,1-1,.35h0a1.81,1.81,0,0,1-1.62-.92Zm4.48.37a2.59,2.59,0,0,0-1.22-3.94l-.22.82a1.78,1.78,0,0,1,1.07,1.55,1.7,1.7,0,0,1-.28,1Zm-3.18-.84a1.27,1.27,0,0,0,1.05.58,1.24,1.24,0,0,0,.67-.21l-.39-.38a.74.74,0,0,1-.25.05h0a.74.74,0,0,1-.55-.23Zm2.12,0a1.2,1.2,0,0,0,.16-.66,1.23,1.23,0,0,0-.68-1.05l-.14.53a.73.73,0,0,1,.29.54.64.64,0,0,1-.05.28Zm-1.18-3.22a2.61,2.61,0,0,0-2.5,2.72c0,.12,0,.23,0,.35l.82-.22a.92.92,0,0,1,0-.16,1.76,1.76,0,0,1,1.69-1.84h.14l.15-.84h-.33Zm.06,1.38a1.21,1.21,0,0,0-.86.39,1.28,1.28,0,0,0-.33.89s0,0,0,0l.54-.15a.69.69,0,0,1,.57-.64l.1-.57v-.14Z" />
    <path d="M207.2,339.47v.3h.16v-.29h.19l0,.29.16,0,.05-.29.19,0-.06.29.16,0,.07-.28.19.06-.09.28.15.05.11-.27.18.08-.13.27.14.07.14-.26.18.1-.16.25.13.09.17-.24.16.12-.18.23.12.1.19-.22.15.14-.21.21.11.11.22-.19.12.15-.23.18a.64.64,0,0,1,.1.13l.24-.17.11.16-.25.16.08.13.26-.14.09.18-.27.12a.94.94,0,0,1,.06.15l.28-.11c0,.06,0,.12.07.19l-.28.09a.83.83,0,0,1,0,.15l.29-.08c0,.07,0,.13,0,.2l-.28.06,0,.15.29,0a1.23,1.23,0,0,1,0,.19l-.29,0c0,.05,0,.11,0,.16h.29a1.21,1.21,0,0,1,0,.19h-.3V343l.29,0c0,.06,0,.13,0,.2l-.29,0,0,.15.29.06c0,.06,0,.13,0,.19l-.29-.07a.83.83,0,0,1,0,.15l.28.09-.06.19-.28-.1-.06.14.27.12-.09.18-.26-.14-.07.14.25.15a1,1,0,0,1-.11.17l-.24-.16-.09.13.23.17-.12.16-.23-.19-.1.12.21.2-.14.14-.2-.22-.12.11.19.22-.15.13-.18-.24-.13.09.16.25-.17.1-.14-.25-.14.07.13.27-.18.08-.12-.27-.14.06.1.28-.19.06-.08-.28-.16,0,.07.28-.19,0-.05-.29-.16,0,0,.29-.19,0,0-.29h-.16V346h-.19v-.3h-.16l0,.29-.2,0,0-.29-.16,0-.06.28-.19,0,.08-.28-.15-.05-.1.27-.18-.07.11-.27-.15-.06-.12.26-.18-.09.14-.25-.14-.08-.15.24-.17-.11.17-.24-.12-.09-.19.23-.15-.13.2-.22-.12-.11-.2.21-.14-.14.22-.2-.1-.12-.23.18-.12-.16.24-.17-.09-.13-.25.16a1,1,0,0,0-.1-.17l.26-.14-.07-.14-.27.12-.07-.18.27-.11-.06-.15-.28.09a1.21,1.21,0,0,1,0-.18l.28-.08s0-.1,0-.16l-.29.06,0-.19.29,0a1,1,0,0,1,0-.16l-.29,0c0-.07,0-.13,0-.19h.29a.81.81,0,0,1,0-.16H204c0-.06,0-.13,0-.19l.29,0c0-.06,0-.11,0-.16l-.29,0,0-.19.29.05,0-.15-.28-.07a1.46,1.46,0,0,1,.05-.2l.28.09,0-.15-.27-.1a1.34,1.34,0,0,1,.07-.18l.27.11.07-.14-.26-.13.09-.18.26.15.08-.13-.24-.17.11-.16.23.18.11-.12-.23-.19.13-.15.21.2.12-.11-.2-.22.14-.13.19.23.13-.1-.18-.24.16-.11.16.25.14-.09-.15-.25.17-.1.14.27L206,340l-.12-.27.19-.07.1.27.15-.05-.09-.28.19-.05.07.28.16,0-.05-.29.19,0,0,.29.16,0,0-.29h.2m-2.66,3.93,1.14-.31a1.26,1.26,0,0,1,0-.28,1.6,1.6,0,0,1,1.53-1.67h.05l.23,0,.2-1.16a2.77,2.77,0,0,0-.42,0h-.11a2.78,2.78,0,0,0-2.65,2.89,3.33,3.33,0,0,0,.07.54m4.86,1.08a2.81,2.81,0,0,0,.61-1.85,2.77,2.77,0,0,0-2-2.54l-.3,1.13a1.62,1.62,0,0,1,1.1,1.46,1.59,1.59,0,0,1-.34,1l.9.76M205.88,343l.83-.22a.13.13,0,0,1,0-.06.54.54,0,0,1,.52-.56h0l.15-.84-.19,0h0a1.41,1.41,0,0,0-1.34,1.46,2,2,0,0,0,0,.24m2.46.55a1.39,1.39,0,0,0,.3-.91,1.41,1.41,0,0,0-.95-1.26l-.23.83a.54.54,0,0,1,.32.47.59.59,0,0,1-.09.32l.65.55m-1.1.55h.06a1.42,1.42,0,0,0,.85-.35l-.6-.61a.48.48,0,0,1-.29.1h0a.53.53,0,0,1-.46-.27l-.82.3a1.4,1.4,0,0,0,1.28.83m0,1.37h.11a2.81,2.81,0,0,0,1.78-.74l-.83-.83a1.6,1.6,0,0,1-1,.4h-.07a1.61,1.61,0,0,1-1.47-1l-1.1.39a2.76,2.76,0,0,0,2.57,1.74m0-6.36H207l-.09,0h-.1l-.21,0-.1,0h-.09l-.21.06-.09,0-.1,0-.2.08-.08.05-.09,0-.19.11-.08.06-.09,0a1.09,1.09,0,0,0-.17.13s-.05,0-.07.06l-.08.05-.17.15-.06.08a.19.19,0,0,0-.07.06l-.15.16a.22.22,0,0,0-.05.08l-.07.07-.12.17a.41.41,0,0,0-.05.09l-.06.08c0,.06-.07.12-.1.19a.16.16,0,0,0,0,.09.35.35,0,0,0,0,.08l-.09.2a.44.44,0,0,0,0,.1.36.36,0,0,0,0,.09l-.06.21a.28.28,0,0,0,0,.09l0,.1,0,.21a.17.17,0,0,0,0,.1.29.29,0,0,0,0,.09,1.62,1.62,0,0,0,0,.22.38.38,0,0,0,0,.1.28.28,0,0,0,0,.09c0,.08,0,.15,0,.22l0,.09a.17.17,0,0,0,0,.1,1.55,1.55,0,0,0,0,.21l0,.09s0,.07,0,.1a1.72,1.72,0,0,0,.07.21.36.36,0,0,0,0,.09.29.29,0,0,0,0,.09l.09.2a.24.24,0,0,0,.06.08.16.16,0,0,0,0,.09l.11.19.06.07,0,.09.13.17a.27.27,0,0,0,.08.07.22.22,0,0,0,.05.08l.15.16.07.06.07.07.16.14.09.05.07.07.18.12a.19.19,0,0,0,.09,0l.07.06.2.1.09,0,.08.05.21.08.09,0,.09,0,.21.05h.1l.09,0,.22,0h.1l.09,0h.41l.22,0,.09,0h.1l.21,0,.09,0h.1l.2-.07.09-.05.09,0,.2-.1.08-.05.09,0,.18-.11.07-.07.09,0,.17-.14s0,0,.06-.07a.16.16,0,0,0,.08-.06,1.14,1.14,0,0,0,.16-.15.22.22,0,0,0,.05-.08s0,0,.08-.06l.13-.17a.41.41,0,0,0,0-.09l.06-.07.12-.18a.16.16,0,0,0,0-.09.21.21,0,0,0,.06-.08l.1-.2a.29.29,0,0,0,0-.09.41.41,0,0,0,0-.09c0-.06.05-.13.07-.2a.34.34,0,0,0,0-.1.36.36,0,0,0,0-.09,1.6,1.6,0,0,0,.05-.21.17.17,0,0,0,0-.1.16.16,0,0,0,0-.09,1.64,1.64,0,0,0,0-.22.28.28,0,0,0,0-.09.36.36,0,0,0,0-.1v-.22a.36.36,0,0,0,0-.1.17.17,0,0,0,0-.1,1.49,1.49,0,0,0,0-.21l0-.1a.28.28,0,0,0,0-.09,1.6,1.6,0,0,0-.05-.21.19.19,0,0,0,0-.09.36.36,0,0,0,0-.1c0-.07,0-.14-.07-.2l0-.09,0-.09a1.74,1.74,0,0,0-.1-.19.16.16,0,0,0-.06-.08.36.36,0,0,0,0-.09.94.94,0,0,0-.12-.18s0-.05-.06-.07a.22.22,0,0,0-.05-.08c-.05-.06-.09-.12-.14-.17a.24.24,0,0,0-.08-.06.22.22,0,0,0-.05-.08l-.16-.15-.08-.05-.07-.07a1.09,1.09,0,0,0-.17-.13l-.09-.05-.07-.06-.19-.11-.09,0-.08-.05-.2-.09-.1,0-.08-.05-.21-.06h-.1a.19.19,0,0,0-.09,0l-.21,0h-.1l-.09,0-.22,0h-.19ZM204.8,343c0-.05,0-.1,0-.15a2.46,2.46,0,0,1,2.35-2.55h.13l-.09.53h0a1.93,1.93,0,0,0-1.85,2v0l-.52.14Zm3.32-1.95.14-.52a2.46,2.46,0,0,1,1.43,2.12,2.49,2.49,0,0,1-.35,1.36l-.41-.34a1.84,1.84,0,0,0,.23-1,1.89,1.89,0,0,0-1-1.62Zm-2,1.59a1.14,1.14,0,0,1,.28-.62,1.05,1.05,0,0,1,.57-.32l0,.23a.82.82,0,0,0-.38.24.81.81,0,0,0-.21.41l-.22.06Zm1.66-.51.06-.23a1.05,1.05,0,0,1,.42.81,1,1,0,0,1-.06.39l-.17-.15a.6.6,0,0,0,0-.23.86.86,0,0,0-.27-.59Zm-1.37,1.35.22-.08a.82.82,0,0,0,.56.22l.23,0,.17.16a.86.86,0,0,1-.36.08h0a1.05,1.05,0,0,1-.78-.35Zm-1.34.49.5-.18a1.92,1.92,0,0,0,1.62.89h.08a1.91,1.91,0,0,0,1-.31l.37.38a2.42,2.42,0,0,1-1.3.45h-.1a2.42,2.42,0,0,1-2.12-1.23Z" />
    <path class="GUNDAN_RAT_JEWELRY_RAT_JEWELRY_6_cls-3" d="M220.81,346.72a.16.16,0,0,1-.13-.07.17.17,0,0,1-.12.06h0l-.3,0a.17.17,0,0,1-.11-.06s0,0,0,0a.16.16,0,0,1-.11.05h0l-.3-.07a.14.14,0,0,1-.09-.08v0h0l-.07,0h-.06l-.28-.11a.16.16,0,0,1-.09-.09v0l0,0H219l-.07,0-.27-.14a.14.14,0,0,1-.08-.09v0l-.07,0a.16.16,0,0,1-.09,0l-.25-.17a.18.18,0,0,1-.07-.1v0h0a.18.18,0,0,1-.1,0l-.24-.2a.13.13,0,0,1,0-.11v0h0a.16.16,0,0,1-.11-.05,1.51,1.51,0,0,1-.21-.23.15.15,0,0,1,0-.14h0a.16.16,0,0,1-.13-.06l-.18-.25a.16.16,0,0,1,0-.15.17.17,0,0,1-.13-.07l-.15-.27a.16.16,0,0,1,0-.12l0,0h0a.22.22,0,0,1-.1-.09l-.12-.28a.24.24,0,0,1,0-.12l0,0h0a.14.14,0,0,1-.08-.09l-.09-.29a.2.2,0,0,1,0-.13l0,0a.14.14,0,0,1-.09-.12c0-.1,0-.2-.06-.3a.16.16,0,0,1,.05-.14l0,0a.16.16,0,0,1-.05-.11l0-.29a.18.18,0,0,1,.05-.12l0,0a.17.17,0,0,1-.07-.14c0-.1,0-.2,0-.31a.24.24,0,0,1,.06-.11h0l0,0a.21.21,0,0,1,0-.12c0-.1,0-.2.05-.3a.22.22,0,0,1,.09-.12.14.14,0,0,1,0-.14c0-.1,0-.2.08-.3a.14.14,0,0,1,.08-.09h0a.16.16,0,0,1,0-.15c0-.1.07-.19.11-.29a.18.18,0,0,1,.12-.09s0,0,0,0a.17.17,0,0,1,0-.12l.15-.27a.18.18,0,0,1,.13-.08.16.16,0,0,1,0-.15l.18-.25a.16.16,0,0,1,.13-.06h0a0,0,0,0,1,0,0,.17.17,0,0,1,0-.12c.06-.08.13-.15.2-.23a.18.18,0,0,1,.12-.05h0v0a.16.16,0,0,1,.05-.11l.23-.2a.14.14,0,0,1,.1,0H218a.17.17,0,0,1,.06-.14l.25-.17a.16.16,0,0,1,.09,0h.06a.18.18,0,0,1,.08-.13l.27-.14a.1.1,0,0,1,.07,0h.08s0,0,0,0a.2.2,0,0,1,.09-.09l.28-.11h.12l0,0a.15.15,0,0,1,.11-.11l.29-.08h0a.16.16,0,0,1,.11.05v0a.16.16,0,0,1,.11-.07l.32-.05a.11.11,0,0,1,.09,0l0,0,0,0a.13.13,0,0,1,.11-.05h.3a.14.14,0,0,1,.13.06.18.18,0,0,1,.13-.06h0l.31,0a.17.17,0,0,1,.11.06v0a.17.17,0,0,1,.12-.05h0l.31.05a.16.16,0,0,1,.11.1.21.21,0,0,1,.11,0h0l.29.09a.16.16,0,0,1,.1.11l.09,0h.06l.29.13a.16.16,0,0,1,.09.12h.07l.08,0,.26.16a.18.18,0,0,1,.08.13h.05a.17.17,0,0,1,.1,0l.24.18a.24.24,0,0,1,.06.11v0h0a.21.21,0,0,1,.11,0l.22.21a.17.17,0,0,1,0,.15h0a.16.16,0,0,1,.11.05l.2.24a.17.17,0,0,1,0,.14h0a.17.17,0,0,1,.13.07,2.33,2.33,0,0,1,.17.26.16.16,0,0,1,0,.15h0a.16.16,0,0,1,.1.08l.14.27a.19.19,0,0,1,0,.13v0a.16.16,0,0,1,.11.1,2.49,2.49,0,0,1,.11.29.16.16,0,0,1,0,.15h0a.14.14,0,0,1,.08.09c0,.1.05.2.07.3a.16.16,0,0,1,0,.12l0,0h0a.17.17,0,0,1,.06.11c0,.1,0,.2,0,.3a.14.14,0,0,1,0,.12l0,0,0,0a.17.17,0,0,1,.05.12c0,.1,0,.21,0,.31a.15.15,0,0,1,0,.11l0,0,0,0a.14.14,0,0,1,0,.12l0,.3a.17.17,0,0,1-.06.11l0,0a.14.14,0,0,1,0,.14c0,.1,0,.2-.07.3a.16.16,0,0,1-.1.11.2.2,0,0,1,0,.15c0,.09-.06.19-.1.29a.24.24,0,0,1-.08.09h0a.19.19,0,0,1,0,.15c0,.09-.09.19-.14.28a.13.13,0,0,1-.12.08.16.16,0,0,1,0,.15,2.26,2.26,0,0,1-.16.26.15.15,0,0,1-.13.07.16.16,0,0,1,0,.15l-.19.24a.14.14,0,0,1-.12.06h0s0,0,0,0a.16.16,0,0,1,0,.11l-.21.22a.16.16,0,0,1-.12,0h0v0a.14.14,0,0,1-.06.11l-.24.19-.09,0h-.06v0a.14.14,0,0,1-.07.1,2.26,2.26,0,0,1-.26.16.11.11,0,0,1-.08,0l-.07,0v0a.14.14,0,0,1-.08.09l-.27.13-.07,0-.06,0h0a.16.16,0,0,1-.1.11l-.29.1h-.05l-.08,0,0,0v0a.17.17,0,0,1-.1.07l-.3.07h0a.17.17,0,0,1-.12,0,.16.16,0,0,1-.12.09l-.32,0a.21.21,0,0,1-.1,0l0,0,0,0a.16.16,0,0,1-.11.05h-.31Zm-3.39-3.4a4,4,0,0,0,3.63,2.35h.16a3.94,3.94,0,0,0,2.42-1l-1-1a2.53,2.53,0,0,1-1.47.55h-.1a2.55,2.55,0,0,1-2.28-1.41Zm6.83.72a4,4,0,0,0-1.89-6.11l-.37,1.38a2.56,2.56,0,0,1,1.61,2.27,2.48,2.48,0,0,1-.44,1.54Zm-4.88-1.42a1.91,1.91,0,0,0,1.68,1,2,2,0,0,0,1.13-.37l-.7-.69a1.07,1.07,0,0,1-.39.1h0a1,1,0,0,1-.79-.36Zm3.3.09a1.88,1.88,0,0,0,.3-1.11,1.94,1.94,0,0,0-1.14-1.68l-.26.95a1,1,0,0,1,.45.77,1,1,0,0,1-.09.44Zm-1.79-5a4,4,0,0,0-3.81,4.15,4.22,4.22,0,0,0,.07.61l1.38-.37,0-.3a2.56,2.56,0,0,1,2.45-2.66h.28l.26-1.41-.44,0Zm.09,2.06a1.93,1.93,0,0,0-1.85,2,1,1,0,0,0,0,.17l.94-.25a1,1,0,0,1,.86-1l.17-1H221v-.16Z" />
    <path d="M221,336.8v.44h.24v-.44l.3,0-.05.44a2,2,0,0,1,.24,0l.07-.43.29.05-.09.43.23.05.12-.42.28.09-.15.42.23.08.16-.41.27.12-.18.4.21.11.21-.39.25.15-.23.37.2.14.25-.36.24.18-.28.34.19.15.29-.32.21.2-.31.31.17.17.32-.29a2.11,2.11,0,0,1,.19.23l-.34.27a1.33,1.33,0,0,1,.14.19l.36-.25c.06.08.11.16.16.24l-.37.23.12.21.38-.21a2.15,2.15,0,0,1,.14.26l-.39.19.09.22.4-.17a2.33,2.33,0,0,1,.11.28l-.42.14a1.55,1.55,0,0,1,.07.23l.42-.12a2.46,2.46,0,0,1,.07.29l-.42.09c0,.08,0,.15,0,.23l.43-.07c0,.1,0,.2,0,.3l-.44,0a1.94,1.94,0,0,1,0,.24l.44,0h0v.29h-.44V342l.43,0,0,.29-.43-.06a2,2,0,0,0,0,.24l.43.08-.06.29-.43-.11a1.55,1.55,0,0,1-.07.23l.42.13-.09.28-.41-.15-.09.22.4.17c0,.09-.08.18-.13.27l-.39-.2-.12.21.38.22-.15.25-.37-.24-.14.19.35.27-.18.23-.34-.29-.15.18.31.3-.21.21-.3-.32-.17.16.28.33-.23.19-.26-.35-.2.13.24.37-.25.15-.22-.38-.21.12.2.39-.27.12-.17-.4-.22.09.15.41-.28.1-.13-.42-.23.06.11.43-.29.06-.08-.43-.24,0,.06.44-.29,0,0-.44h-.24v.44h-.29l0-.43-.24,0,0,.43-.3,0,.07-.42-.23-.05-.09.43-.29-.08.12-.42-.23-.07-.14.42-.28-.11.17-.41-.22-.09-.19.39-.26-.13.21-.39-.21-.11-.23.37-.24-.17.25-.36-.19-.14-.27.34a2.11,2.11,0,0,1-.23-.19l.29-.32-.17-.17-.31.31-.2-.21.32-.29-.15-.19-.34.28-.18-.24.36-.25-.13-.2-.37.23-.15-.25.39-.21-.12-.21-.39.18-.12-.27.41-.16c0-.08-.06-.15-.08-.22l-.42.14c0-.1-.06-.19-.08-.29l.42-.11-.06-.23-.43.09c0-.1,0-.2-.05-.29l.43-.07,0-.24-.43.05a2.83,2.83,0,0,1,0-.29h.43v-.24h-.44a2.64,2.64,0,0,1,0-.29l.43,0,0-.24-.44-.05c0-.1,0-.2.05-.3l.43.09a2,2,0,0,1,0-.24l-.43-.1c0-.1.06-.19.08-.29l.42.13c0-.07,0-.15.08-.22l-.41-.16c0-.09.07-.18.11-.27l.4.18c0-.07.07-.15.11-.22l-.4-.2.15-.26.38.23.12-.21L217,339l.17-.24.35.26c0-.06.1-.12.15-.18l-.34-.29.2-.22.32.31.17-.17-.31-.32.22-.2.29.34.18-.15-.26-.35.24-.17.24.37.21-.13-.23-.38.26-.14.2.39.22-.1-.18-.4.27-.11.16.41.22-.08-.13-.42.29-.07.1.42.24-.05-.09-.43.3-.05.05.44.24,0,0-.44H221m-4,5.86,1.69-.45a3,3,0,0,1-.06-.43,2.4,2.4,0,0,1,2.3-2.49H221l.33,0,.31-1.73a4.44,4.44,0,0,0-.63,0h-.16a4.14,4.14,0,0,0-4,4.31,4.27,4.27,0,0,0,.11.81m7.25,1.62a4.13,4.13,0,0,0-2-6.56l-.46,1.69a2.39,2.39,0,0,1,1.15,3.74l1.33,1.13M219,342.13l1.24-.33s0-.06,0-.08a.8.8,0,0,1,.77-.84h.07l.22-1.27-.27,0H221a2.1,2.1,0,0,0-2,2.18,2.23,2.23,0,0,0,0,.36m3.69.82a2.07,2.07,0,0,0,.44-1.35,2.11,2.11,0,0,0-1.42-1.9l-.34,1.25a.79.79,0,0,1,.47.7.76.76,0,0,1-.13.47l1,.83m-1.65.82h.08a2.09,2.09,0,0,0,1.29-.51l-.91-.92a.8.8,0,0,1-.43.15h0a.79.79,0,0,1-.69-.4l-1.22.44a2.1,2.1,0,0,0,1.91,1.24m0,2.06h.17a4.12,4.12,0,0,0,2.65-1.11l-1.24-1.24a2.36,2.36,0,0,1-1.48.61h-.1a2.39,2.39,0,0,1-2.2-1.45l-1.64.6a4.14,4.14,0,0,0,3.84,2.6m-.06-9.36h0l-.32,0a.22.22,0,0,0-.13,0l-.1,0h0l-.31.05a.35.35,0,0,0-.14.06h-.14l-.3.08a.35.35,0,0,0-.13.08h0l-.11,0-.29.12a.24.24,0,0,0-.11.09.32.32,0,0,0-.14,0l-.28.15a.32.32,0,0,0-.1.1.39.39,0,0,0-.14.05l-.25.18a.52.52,0,0,0-.1.11.34.34,0,0,0-.12.06l-.24.21-.08.12-.12.08-.21.24a.27.27,0,0,0-.06.12.48.48,0,0,0-.11.09c-.06.09-.13.17-.18.26a.24.24,0,0,0-.05.13.35.35,0,0,0-.1.11c-.05.09-.11.18-.15.27a.27.27,0,0,0,0,.14.36.36,0,0,0-.08.12,1.48,1.48,0,0,0-.12.29.23.23,0,0,0,0,.14.35.35,0,0,0-.08.13c0,.1,0,.2-.08.3a.33.33,0,0,0,0,.14.31.31,0,0,0-.06.13c0,.11,0,.21-.05.31a.38.38,0,0,0,0,.15.5.5,0,0,0,0,.13c0,.11,0,.21,0,.32a.39.39,0,0,0,0,.14.31.31,0,0,0,0,.13c0,.12,0,.22,0,.32a.25.25,0,0,0,0,.13.38.38,0,0,0,0,.15,1.88,1.88,0,0,0,.06.31.38.38,0,0,0,.06.13.33.33,0,0,0,0,.14l.09.3a.36.36,0,0,0,.08.12.32.32,0,0,0,0,.14,2.55,2.55,0,0,0,.13.29.24.24,0,0,0,.09.11.32.32,0,0,0,0,.14l.16.27a.32.32,0,0,0,.1.1.35.35,0,0,0,.06.14c.06.08.12.17.19.25a.24.24,0,0,0,.11.09.27.27,0,0,0,.06.12l.22.23a.32.32,0,0,0,.12.08.44.44,0,0,0,.08.11l.24.21a.38.38,0,0,0,.13.06.52.52,0,0,0,.1.11l.26.17a.35.35,0,0,0,.13,0,.31.31,0,0,0,.11.09l.28.15a.35.35,0,0,0,.14,0h0a.36.36,0,0,0,.12.08l.29.11.11,0h0l.13.07.31.07h.14a.21.21,0,0,0,.13.05l.31.05h0l.11,0,.13,0h.32a.35.35,0,0,0,.14,0l.12,0h0l.31,0a.29.29,0,0,0,.13-.05H222l.3-.07a.26.26,0,0,0,.13-.06h.14l.3-.1a.36.36,0,0,0,.12-.08h0a.28.28,0,0,0,.13,0l.29-.13.11-.09a.35.35,0,0,0,.13-.05l.27-.16a.35.35,0,0,0,.1-.11.21.21,0,0,0,.13-.05l.25-.2a.44.44,0,0,0,.08-.11l.13-.07.22-.23a.24.24,0,0,0,.07-.12l.12-.08.19-.25a.31.31,0,0,0,.06-.13.35.35,0,0,0,.11-.1l.16-.26a.39.39,0,0,0,.05-.14.48.48,0,0,0,.09-.11c0-.09.09-.19.13-.28a.39.39,0,0,0,0-.14.42.42,0,0,0,.08-.12c0-.1.07-.2.1-.3a.23.23,0,0,0,0-.14.33.33,0,0,0,.07-.13c0-.1.05-.21.07-.31a.32.32,0,0,0,0-.14.34.34,0,0,0,.05-.14,1.63,1.63,0,0,0,0-.31.22.22,0,0,0,0-.14.33.33,0,0,0,0-.14c0-.1,0-.21,0-.31a.28.28,0,0,0,0-.15.22.22,0,0,0,0-.14c0-.11,0-.21,0-.32a.24.24,0,0,0-.05-.13.33.33,0,0,0,0-.14c0-.1,0-.21-.07-.31a.47.47,0,0,0-.07-.12.39.39,0,0,0,0-.15c0-.09-.07-.19-.11-.29a.2.2,0,0,0-.08-.12.35.35,0,0,0,0-.14l-.14-.28a.24.24,0,0,0-.1-.1.33.33,0,0,0,0-.14l-.18-.26a.32.32,0,0,0-.1-.1.38.38,0,0,0-.06-.13l-.21-.24-.11-.08a.42.42,0,0,0-.08-.12l-.23-.22a.35.35,0,0,0-.12-.07.31.31,0,0,0-.09-.11l-.25-.19-.13-.05a.32.32,0,0,0-.1-.1l-.28-.16a.33.33,0,0,0-.13,0,.27.27,0,0,0-.12-.09l-.28-.13-.13,0h0a.36.36,0,0,0-.12-.08l-.3-.09h-.14a.52.52,0,0,0-.13-.06l-.31,0h-.14a.33.33,0,0,0-.14,0l-.31,0h0l-.12,0a.32.32,0,0,0-.14,0Zm-3.72,5.79c0-.14,0-.28,0-.42a3.82,3.82,0,0,1,3.66-4h.4l-.2,1.09h-.15a2.73,2.73,0,0,0-2.61,2.83c0,.06,0,.12,0,.18l-1.07.29Zm4.91-3.05.29-1.07a3.84,3.84,0,0,1,2.4,3.38,3.89,3.89,0,0,1-.65,2.29l-.85-.72a2.64,2.64,0,0,0,.39-1.52,2.74,2.74,0,0,0-1.58-2.36Zm-2.9,2.51a1.76,1.76,0,0,1,.47-1.23,1.72,1.72,0,0,1,1.17-.57l-.12.66a1.17,1.17,0,0,0-.88,1l-.64.17Zm2.48-.92.17-.64a1.76,1.76,0,0,1,.7,2.3l-.51-.42a1.39,1.39,0,0,0,.06-.4,1.15,1.15,0,0,0-.42-.84Zm-2.15,1.9.64-.23a1.09,1.09,0,0,0,.8.34,1.13,1.13,0,0,0,.39-.07l.48.48a1.81,1.81,0,0,1-.8.23h-.07a1.78,1.78,0,0,1-1.44-.75Zm-2,.71,1-.38a2.72,2.72,0,0,0,2.36,1.37h.11a2.8,2.8,0,0,0,1.45-.49l.78.78a3.77,3.77,0,0,1-2.18.81h-.16a3.79,3.79,0,0,1-3.4-2.09Z" />
    <path class="GUNDAN_RAT_JEWELRY_RAT_JEWELRY_6_cls-4" d="M214.1,352.58a.13.13,0,0,1-.11-.05.17.17,0,0,1-.06-.11v-.26h-.06l0,.26a.14.14,0,0,1-.06.11.18.18,0,0,1-.1,0l-.29,0a.14.14,0,0,1-.11-.07.12.12,0,0,1,0-.12l0-.25h-.06l-.06.25a.18.18,0,0,1-.07.1l-.09,0h0l-.28-.07a.14.14,0,0,1-.09-.08.13.13,0,0,1,0-.12l.08-.25-.06,0-.1.24a.16.16,0,0,1-.09.09h-.12l-.26-.11a.14.14,0,0,1-.08-.09.19.19,0,0,1,0-.13l.11-.23,0,0-.13.22a.17.17,0,0,1-.14.08l-.08,0-.24-.15a.19.19,0,0,1-.07-.11.17.17,0,0,1,0-.12l.15-.21-.05,0-.17.2a.17.17,0,0,1-.11.06h0a.15.15,0,0,1-.11,0l-.21-.18a.17.17,0,0,1,0-.23l.18-.19,0,0-.19.17a.18.18,0,0,1-.1,0h0a.11.11,0,0,1-.11-.06l-.19-.21a.17.17,0,0,1,0-.23l.2-.16,0-.05-.22.14a.16.16,0,0,1-.09,0h0a.14.14,0,0,1-.11-.07,1.88,1.88,0,0,1-.14-.24.15.15,0,0,1,.06-.22l.22-.13,0-.05-.23.1-.07,0a.19.19,0,0,1-.15-.09l-.11-.27a.17.17,0,0,1,.1-.21l.24-.09s0,0,0-.06l-.25.07h0a.17.17,0,0,1-.16-.12c0-.09-.05-.18-.07-.27a.15.15,0,0,1,0-.13.18.18,0,0,1,.1-.07l.25-.05a.13.13,0,0,0,0-.06l-.27,0a.16.16,0,0,1-.17-.14c0-.1,0-.19,0-.29a.17.17,0,0,1,.15-.17h.26V348h-.26a.17.17,0,0,1-.16-.17c0-.09,0-.19,0-.28a.16.16,0,0,1,.16-.15l.28,0v-.07l-.26,0a.17.17,0,0,1-.13-.19l.06-.28a.17.17,0,0,1,.16-.12h0l.25.07,0-.06-.24-.09a.16.16,0,0,1-.1-.21,2.77,2.77,0,0,1,.1-.26.18.18,0,0,1,.15-.1H210l.24.11,0-.06L210,346a.17.17,0,0,1-.07-.22l.15-.25a.15.15,0,0,1,.13-.07.15.15,0,0,1,.09,0l.22.13,0-.05-.2-.15a.17.17,0,0,1,0-.23l.17-.22a.16.16,0,0,1,.11-.05h0a.18.18,0,0,1,.1,0l.2.17,0,0-.18-.19a.16.16,0,0,1,0-.11.22.22,0,0,1,0-.12l.21-.19a.21.21,0,0,1,.11,0,.14.14,0,0,1,.12.06l.17.2,0,0-.15-.21a.15.15,0,0,1,0-.13.14.14,0,0,1,.07-.1l.23-.16.09,0a.19.19,0,0,1,.14.07l.13.23.06,0-.12-.23a.17.17,0,0,1,0-.12.27.27,0,0,1,.08-.1l.26-.11.06,0a.15.15,0,0,1,.15.1l.11.24,0,0-.08-.25a.17.17,0,0,1,0-.12.16.16,0,0,1,.1-.08l.27-.08h0a.11.11,0,0,1,.08,0,.16.16,0,0,1,.08.1l.06.25h.06l0-.26a.18.18,0,0,1,.13-.19l.29,0h0a.2.2,0,0,1,.11,0,.16.16,0,0,1,.05.11l0,.26h.06v-.26a.16.16,0,0,1,0-.11.13.13,0,0,1,.11-.05h.28a.23.23,0,0,1,.12.06.21.21,0,0,1,0,.11l0,.26h.06l0-.26a.15.15,0,0,1,.16-.13h0l.28.05a.15.15,0,0,1,.13.19l-.06.26h.07l.07-.25a.18.18,0,0,1,.08-.09.12.12,0,0,1,.08,0h0a1.14,1.14,0,0,1,.26.09.12.12,0,0,1,.09.08.2.2,0,0,1,0,.13l-.09.24.05,0,.12-.23a.14.14,0,0,1,.14-.09l.07,0,.25.13a.16.16,0,0,1,.08.1.13.13,0,0,1,0,.12l-.12.23.05,0,.15-.21a.15.15,0,0,1,.13-.07.16.16,0,0,1,.09,0l.23.17a.16.16,0,0,1,0,.22l-.16.2,0,.05.18-.19a.16.16,0,0,1,.11-.05h0a.15.15,0,0,1,.11,0l.2.2a.16.16,0,0,1,0,.23l-.19.18,0,0,.21-.16a.16.16,0,0,1,.22,0,2,2,0,0,1,.17.23.16.16,0,0,1,0,.22l-.22.15,0,.05.23-.12a.12.12,0,0,1,.08,0,.16.16,0,0,1,.14.08c.05.08.09.17.13.25a.19.19,0,0,1,0,.13.2.2,0,0,1-.09.09l-.23.11,0,.05.25-.08h0a.15.15,0,0,1,.15.1,1.43,1.43,0,0,1,.09.27.15.15,0,0,1-.11.2l-.25.08,0,.06.29-.06a.16.16,0,0,1,.15.14,2.56,2.56,0,0,1,.05.27.12.12,0,0,1,0,.12.19.19,0,0,1-.11.07l-.25,0v.06h.27a.17.17,0,0,1,.16.16v.29a.16.16,0,0,1-.16.16h-.26a.13.13,0,0,0,0,.06l.26,0a.16.16,0,0,1,.14.18,2.36,2.36,0,0,1,0,.28.16.16,0,0,1-.15.14l-.29-.05a.13.13,0,0,1,0,.06l.25.07a.16.16,0,0,1,.1.08.16.16,0,0,1,0,.12,2.76,2.76,0,0,1-.08.27.16.16,0,0,1-.15.11h-.06l-.24-.08,0,.05.24.11a.15.15,0,0,1,.08.22,1.42,1.42,0,0,1-.12.25.15.15,0,0,1-.14.09l-.08,0-.23-.12,0,0,.22.14a.16.16,0,0,1,.07.11.17.17,0,0,1,0,.12l-.16.23a.19.19,0,0,1-.11.07h0a.17.17,0,0,1-.1,0l-.21-.16,0,.05.2.17a.17.17,0,0,1,0,.23l-.19.21a.16.16,0,0,1-.12,0h0a.15.15,0,0,1-.11,0l-.19-.19,0,0,.16.2a.15.15,0,0,1,0,.12.13.13,0,0,1-.06.11l-.22.18a.17.17,0,0,1-.1,0h0a.19.19,0,0,1-.11-.07l-.15-.21a.1.1,0,0,1-.05,0l.13.22a.17.17,0,0,1,0,.12.18.18,0,0,1-.07.1l-.25.14-.07,0h0a.16.16,0,0,1-.1-.08l-.12-.23-.06,0,.1.24a.15.15,0,0,1-.09.21l-.26.1h-.05l-.07,0a.18.18,0,0,1-.09-.1l-.08-.24-.06,0,.06.25a.15.15,0,0,1-.12.19l-.28.06h0a.15.15,0,0,1-.16-.13l-.05-.26h-.06l0,.26a.19.19,0,0,1,0,.12.16.16,0,0,1-.11.05Zm-1.88-2.23a3,3,0,0,0,1.61.59l0-.53a2.49,2.49,0,0,1-1.23-.45Zm2.22.57a3,3,0,0,0,1.55-.72l-.39-.37a2.38,2.38,0,0,1-1.18.55Zm-3.39-2.54a3.12,3.12,0,0,0,.72,1.56l.37-.39a2.42,2.42,0,0,1-.55-1.19Zm1.93,1.15a1.8,1.8,0,0,0,.8.29l0-1.12Zm1.41.27a1.86,1.86,0,0,0,.78-.36l-.82-.76Zm2-.05a3,3,0,0,0,.59-1.61l-.54,0a2.43,2.43,0,0,1-.45,1.23Zm-4.24-1.41a1.82,1.82,0,0,0,.36.77l.76-.82Zm3.41.65a1.94,1.94,0,0,0,.3-.81l-1.12.05Zm-4-2.82a2.9,2.9,0,0,0-.59,1.61l.53,0a2.45,2.45,0,0,1,.45-1.22Zm.82.76a1.76,1.76,0,0,0-.29.8l1.12-.05Zm2.3.69,1.11,0a1.86,1.86,0,0,0-.36-.78Zm1.15-1.25a2.38,2.38,0,0,1,.55,1.18l.53,0a2.89,2.89,0,0,0-.72-1.55Zm-2.21.87-.05-1.12a1.82,1.82,0,0,0-.77.36Zm.61,0,.75-.82a1.9,1.9,0,0,0-.8-.3Zm-1.87-1.13a2.42,2.42,0,0,1,1.19-.55l0-.53a3,3,0,0,0-1.56.72Zm1.8-.57a2.36,2.36,0,0,1,1.22.45l.36-.4a3.06,3.06,0,0,0-1.61-.59Z" />
    <path d="M214,343.5h.24l0,.41.37,0,.06-.41.27.05-.09.41a2.11,2.11,0,0,1,.36.09l.13-.4.26.09-.15.39.34.14L216,344l.24.13-.2.36.31.2.24-.34.22.16-.26.33.28.24.29-.3.19.19-.31.29a2.09,2.09,0,0,1,.24.28l.33-.25.17.22-.35.23.19.32.37-.2.12.24-.37.18a3.45,3.45,0,0,1,.14.34l.39-.14.09.26-.41.12a2.37,2.37,0,0,1,.09.36l.42-.08c0,.08,0,.18,0,.27l-.41.05c0,.12,0,.25,0,.37l.42,0h0v.28h-.42c0,.12,0,.25,0,.37l.41,0a2.36,2.36,0,0,1,0,.28l-.41-.08a2.21,2.21,0,0,1-.08.37l.41.11c0,.08,0,.17-.08.26l-.4-.14a3.65,3.65,0,0,1-.14.35l.39.17L218,350l-.37-.2a3.37,3.37,0,0,1-.19.32l.35.23-.15.22-.34-.24c-.07.1-.15.19-.23.29l.31.27a1.8,1.8,0,0,1-.19.2l-.29-.29-.28.25.27.32-.22.17-.24-.34-.31.21.21.35-.23.14-.2-.38-.33.16.15.39-.25.09-.14-.39-.35.1.09.41-.26.05-.08-.41-.36,0,0,.42h-.27V352h-.37l0,.41-.27,0,.05-.42-.36-.07-.1.41-.26-.07.12-.4a2.06,2.06,0,0,1-.35-.12l-.16.39-.25-.11.18-.38-.33-.17-.21.36-.23-.15.23-.35a2.86,2.86,0,0,1-.3-.22l-.26.33-.21-.18.29-.31a3.31,3.31,0,0,1-.27-.26l-.3.28c-.07-.07-.12-.14-.18-.21l.33-.26-.22-.3-.35.23c-.05-.08-.1-.16-.14-.24l.36-.2c-.06-.11-.12-.22-.17-.33l-.38.17a2.6,2.6,0,0,1-.1-.25l.39-.15a2.53,2.53,0,0,1-.12-.36l-.4.12a2.68,2.68,0,0,1-.07-.27l.41-.09-.06-.36-.41.05,0-.28.42,0s0,0,0-.07,0-.2,0-.3h-.42c0-.1,0-.19,0-.28l.42,0c0-.12,0-.24,0-.37l-.41-.07.06-.27.4.1c0-.12.07-.24.11-.35l-.39-.14a2.77,2.77,0,0,1,.1-.26l.38.17a3.59,3.59,0,0,1,.17-.34l-.37-.2.13-.23.36.22a2.11,2.11,0,0,1,.21-.31l-.33-.25.17-.21.32.27.25-.27-.29-.3.2-.19.27.32.29-.23-.24-.34.23-.15.22.36a3.37,3.37,0,0,1,.32-.19L212,344l.24-.11.17.38.35-.13-.13-.4.26-.07.1.4.37-.07-.07-.42.27,0,0,.42.23,0H214v-.42h0m1.44,2.67.58-.63a3.12,3.12,0,0,0-2-.73l0,.85a2.31,2.31,0,0,1,1.4.51m-3,.13a2.36,2.36,0,0,1,1.36-.63l0-.85a3.14,3.14,0,0,0-2,.9l.63.58m3.88,1.42.85,0a3.12,3.12,0,0,0-.9-1.95l-.58.63a2.36,2.36,0,0,1,.63,1.35m-2.16-.11,1.15-1.25a2.08,2.08,0,0,0-1.22-.44l.07,1.69m-3.28.34.86,0a2.31,2.31,0,0,1,.51-1.4l-.63-.58a3.13,3.13,0,0,0-.74,2m3-.33-.07-1.69a2,2,0,0,0-1.18.55l1.25,1.14m.49.18,1.69-.07a2,2,0,0,0-.55-1.17l-1.14,1.24m-2.38.1,1.69-.07-1.24-1.15a2.09,2.09,0,0,0-.45,1.22m4.46,2.09a3.15,3.15,0,0,0,.73-2l-.85,0a2.33,2.33,0,0,1-.51,1.4l.63.58m-.82-.76a2.08,2.08,0,0,0,.44-1.21l-1.69.07,1.25,1.14m-3.08.13,1.15-1.25-1.69.07a2,2,0,0,0,.54,1.18m-.75.82.58-.63a2.24,2.24,0,0,1-.63-1.36l-.86,0a3.15,3.15,0,0,0,.91,1.95m2.46-.2a2,2,0,0,0,1.17-.54l-1.24-1.14.07,1.68m-.29,0-.07-1.69-1.14,1.24A2.09,2.09,0,0,0,214,350m.33,1.1a3.13,3.13,0,0,0,1.95-.91l-.63-.58a2.24,2.24,0,0,1-1.35.63l0,.86m-.28,0,0-.86a2.33,2.33,0,0,1-1.41-.51l-.58.63a3.15,3.15,0,0,0,2,.74m0-7.93h0a.35.35,0,0,0-.22.08.31.31,0,0,0-.19-.06h0l-.29,0a.37.37,0,0,0-.2.12.42.42,0,0,0-.15,0h-.08l-.28.08a.34.34,0,0,0-.18.15l-.11,0-.12,0-.27.12a.37.37,0,0,0-.16.17h-.05a.26.26,0,0,0-.17,0l-.25.16a.28.28,0,0,0-.12.19h0a.32.32,0,0,0-.21.08,2.09,2.09,0,0,0-.22.2.32.32,0,0,0-.1.21.33.33,0,0,0-.2.11l-.18.22a.39.39,0,0,0-.07.23.31.31,0,0,0-.18.14l-.15.25a.31.31,0,0,0,0,.23.3.3,0,0,0-.16.17l-.11.27a.36.36,0,0,0,0,.23.33.33,0,0,0-.13.19,2.46,2.46,0,0,0-.07.29.33.33,0,0,0,0,.22.41.41,0,0,0-.1.21c0,.1,0,.2,0,.29a.33.33,0,0,0,.08.22.29.29,0,0,0-.07.22,2.64,2.64,0,0,0,0,.29.33.33,0,0,0,.11.21.31.31,0,0,0,0,.23,2.86,2.86,0,0,0,.07.28.33.33,0,0,0,.13.19.36.36,0,0,0,0,.23l.12.27a.28.28,0,0,0,.16.16.27.27,0,0,0,0,.23,1.28,1.28,0,0,0,.15.25.3.3,0,0,0,.19.14.29.29,0,0,0,.07.22l.18.22a.36.36,0,0,0,.21.11.35.35,0,0,0,.1.21l.22.19a.33.33,0,0,0,.21.07h0a.33.33,0,0,0,.14.19l.24.16a.33.33,0,0,0,.17,0h.06a.31.31,0,0,0,.16.16l.27.12a.25.25,0,0,0,.12,0,.2.2,0,0,0,.11,0,.3.3,0,0,0,.19.14l.28.08H213a.42.42,0,0,0,.16,0,.31.31,0,0,0,.2.11l.29,0h0a.37.37,0,0,0,.2-.07.3.3,0,0,0,.21.08h.11l.19,0a.29.29,0,0,0,.2-.09.34.34,0,0,0,.18,0h.05l.29-.06a.31.31,0,0,0,.19-.13.28.28,0,0,0,.13,0l.1,0,.28-.1a.31.31,0,0,0,.16-.16h.09a.23.23,0,0,0,.14,0l.26-.14a.31.31,0,0,0,.14-.18h0a.35.35,0,0,0,.19-.06l.23-.18a.37.37,0,0,0,.11-.2.32.32,0,0,0,.21-.1l.2-.21a.3.3,0,0,0,.08-.22.32.32,0,0,0,.2-.12l.16-.24a.32.32,0,0,0,.05-.23.34.34,0,0,0,.18-.15l.12-.27a.3.3,0,0,0,0-.23.32.32,0,0,0,.14-.18l.09-.28a.36.36,0,0,0,0-.23.31.31,0,0,0,.11-.2c0-.09,0-.19.05-.29a.4.4,0,0,0-.06-.22.35.35,0,0,0,.08-.22,2.8,2.8,0,0,0,0-.29.36.36,0,0,0-.09-.22.37.37,0,0,0,.05-.23c0-.09,0-.19-.05-.29a.28.28,0,0,0-.12-.19.36.36,0,0,0,0-.23l-.09-.28a.35.35,0,0,0-.16-.18.31.31,0,0,0,0-.23l-.14-.26a.35.35,0,0,0-.17-.15.31.31,0,0,0-.06-.22l-.17-.24a.32.32,0,0,0-.2-.12.37.37,0,0,0-.08-.22l-.21-.2a.29.29,0,0,0-.21-.09.32.32,0,0,0-.12-.2l-.23-.18a.35.35,0,0,0-.19-.06h0a.3.3,0,0,0-.15-.18l-.26-.14a.32.32,0,0,0-.14,0h-.09a.26.26,0,0,0-.17-.15l-.28-.1h-.09l-.14,0a.31.31,0,0,0-.19-.12l-.29,0h-.05a.32.32,0,0,0-.18.06.3.3,0,0,0-.21-.1Zm.35,2.18v-.21a3,3,0,0,1,1.2.44l-.14.15a2.6,2.6,0,0,0-1-.38Zm-2.09.37a2.77,2.77,0,0,1,1.15-.54v.21a2.53,2.53,0,0,0-1,.47l-.15-.14Zm3.82.65.14-.16a2.81,2.81,0,0,1,.54,1.16h-.21a2.55,2.55,0,0,0-.47-1Zm-1.67.43,0-.52a1.74,1.74,0,0,1,.38.14l-.36.38Zm-1.32-.31a1.76,1.76,0,0,1,.37-.17l0,.52-.39-.35Zm-1.9,1.11a2.84,2.84,0,0,1,.43-1.2l.16.14a2.6,2.6,0,0,0-.38,1.05Zm3.91-.17.35-.38a1.69,1.69,0,0,1,.17.36l-.52,0Zm-2.78.12a1.74,1.74,0,0,1,.14-.38l.39.36-.53,0Zm4.27.76h.21a3,3,0,0,1-.44,1.19l-.15-.14a2.62,2.62,0,0,0,.38-1Zm-1.45.06.52,0a1.66,1.66,0,0,1-.14.37l-.38-.35Zm-2.78.11.53,0-.36.39a1.76,1.76,0,0,1-.17-.37Zm-1.13.05h.2a2.67,2.67,0,0,0,.47,1l-.14.15a2.75,2.75,0,0,1-.53-1.15Zm3.3,1,0-.53.38.36a1.69,1.69,0,0,1-.36.17Zm-1.31-.1.35-.39,0,.53a1.66,1.66,0,0,1-.37-.14Zm1.35,1a2.55,2.55,0,0,0,1-.47l.16.14a2.79,2.79,0,0,1-1.16.53v-.2Zm-2.12-.19.14-.16a2.79,2.79,0,0,0,1,.39v.2a2.85,2.85,0,0,1-1.19-.43Z" />
    <path class="GUNDAN_RAT_JEWELRY_RAT_JEWELRY_6_cls-2" d="M205.74,351.44a1.73,1.73,0,0,1-1.28-2.91,1.68,1.68,0,0,1,1.2-.56h0a1.73,1.73,0,0,1,.14,3.46Zm-.05-2.72a1,1,0,0,0-.93,1,1,1,0,0,0,1,.94,1,1,0,0,0,0-2v-.16Z" />
    <path d="M205.74,348.13a1.57,1.57,0,0,1,.06,3.14h-.07a1.57,1.57,0,0,1-.06-3.14h.07m0,2.71h.05a1.14,1.14,0,0,0,0-2.28h-.05a1.14,1.14,0,0,0,0,2.28m0-3h-.08a1.85,1.85,0,0,0-1.32.61,1.9,1.9,0,0,0,1.39,3.18h.08a1.88,1.88,0,0,0,1.32-.61,1.92,1.92,0,0,0,.5-1.37,1.89,1.89,0,0,0-1.89-1.82Zm0,3v-.32a.82.82,0,0,1-.81-.79.83.83,0,0,1,.21-.58.82.82,0,0,1,.57-.26h0a.82.82,0,1,1,.07,1.63l0,.32Z" />
    <path class="GUNDAN_RAT_JEWELRY_RAT_JEWELRY_6_cls-2" d="M205.73,352.09a2.39,2.39,0,0,1-.09-4.77h0a2.4,2.4,0,0,1,2.48,2.28,2.38,2.38,0,0,1-.63,1.71,2.34,2.34,0,0,1-1.66.77Zm-.08-4.35a2,2,0,1,0,.09,0v-.16Z" />
    <path d="M205.74,347.48a2.22,2.22,0,0,1,.09,4.44h-.1a2.22,2.22,0,0,1-.09-4.44h.1m0,4.34h.09a2.12,2.12,0,0,0-.08-4.24h-.09a2.12,2.12,0,0,0,.08,4.24m0-4.67h-.11a2.55,2.55,0,0,0,.1,5.09h.11a2.55,2.55,0,0,0-.1-5.1Zm0,4.35a1.8,1.8,0,0,1-.07-3.59h.08a1.78,1.78,0,0,1,1.79,1.72,1.8,1.8,0,0,1-1.72,1.87Z" />
    <path class="GUNDAN_RAT_JEWELRY_RAT_JEWELRY_6_cls-2" d="M205.73,354.12a4.46,4.46,0,0,1-.63-.05.15.15,0,0,1-.13-.18l0-.22a3.7,3.7,0,0,1-1-.32l-.1.2a.2.2,0,0,1-.1.08h-.12a4.54,4.54,0,0,1-.69-.45.24.24,0,0,1-.06-.11.19.19,0,0,1,0-.12l.13-.17a4,4,0,0,1-.7-.77l-.18.12a.15.15,0,0,1-.09,0h0a.14.14,0,0,1-.1-.07,5.06,5.06,0,0,1-.38-.73.17.17,0,0,1,0-.12.14.14,0,0,1,.08-.09l.2-.08a4.4,4.4,0,0,1-.21-1h-.23a.15.15,0,0,1-.11,0,.17.17,0,0,1-.05-.12,5.56,5.56,0,0,1,0-.81.14.14,0,0,1,.07-.1.11.11,0,0,1,.09,0l.24,0a3.7,3.7,0,0,1,.32-1l-.19-.1a.16.16,0,0,1-.08-.1.13.13,0,0,1,0-.12,4.78,4.78,0,0,1,.44-.69.18.18,0,0,1,.13-.06.17.17,0,0,1,.1,0l.17.14a4.24,4.24,0,0,1,.77-.7l-.12-.18a.18.18,0,0,1,.05-.23,5,5,0,0,1,.73-.37h.13a.14.14,0,0,1,.08.09l.08.2a4.42,4.42,0,0,1,1-.22v-.21a.17.17,0,0,1,.14-.17h.2a4.46,4.46,0,0,1,.63.05.24.24,0,0,1,.11.06.27.27,0,0,1,0,.12l0,.22a4,4,0,0,1,1,.32l.1-.2a.18.18,0,0,1,.09-.08h.13a4.45,4.45,0,0,1,.68.45.17.17,0,0,1,0,.23l-.13.17a3.92,3.92,0,0,1,.69.77l.19-.12a.11.11,0,0,1,.08,0h0a.14.14,0,0,1,.1.07,3.85,3.85,0,0,1,.37.73.13.13,0,0,1,0,.12.16.16,0,0,1-.09.09l-.2.08a3.79,3.79,0,0,1,.22,1H210a.16.16,0,0,1,.17.15,5.77,5.77,0,0,1,0,.84.14.14,0,0,1-.07.1l-.09,0-.24,0a4.4,4.4,0,0,1-.32,1l.19.1a.16.16,0,0,1,.07.22,5.1,5.1,0,0,1-.45.69.17.17,0,0,1-.11.06h0a.15.15,0,0,1-.11,0l-.17-.13a3.62,3.62,0,0,1-.77.69l.12.19a.15.15,0,0,1-.05.22,4.17,4.17,0,0,1-.73.37h-.06a.16.16,0,0,1-.15-.1l-.08-.2a4,4,0,0,1-1,.22v.21a.17.17,0,0,1-.05.12.16.16,0,0,1-.11.05Zm-.12-7.49a3.08,3.08,0,0,0-3,3.2,3.07,3.07,0,0,0,3.07,2.95h.13a3.08,3.08,0,0,0,2.95-3.21,3.07,3.07,0,0,0-3.07-2.95Z" />
    <path d="M205.74,345.45a4,4,0,0,1,.6,0l-.05.37a3.84,3.84,0,0,1,1.24.4l.17-.33a3.56,3.56,0,0,1,.66.43l-.23.29a4.07,4.07,0,0,1,.88,1l.31-.2a3.56,3.56,0,0,1,.36.7l-.34.14a4,4,0,0,1,.27,1.27l.37,0h0a4.15,4.15,0,0,1,0,.79l-.38-.05a3.76,3.76,0,0,1-.4,1.24l.33.17a4.19,4.19,0,0,1-.42.67l-.3-.24a4.07,4.07,0,0,1-1,.88l.2.31a3.56,3.56,0,0,1-.7.36l-.14-.35a3.79,3.79,0,0,1-1.27.28V354h-.18a4,4,0,0,1-.6,0l.05-.37a3.76,3.76,0,0,1-1.24-.4l-.18.33a3.93,3.93,0,0,1-.66-.43l.24-.29a3.87,3.87,0,0,1-.88-1l-.32.2a4.63,4.63,0,0,1-.36-.7l.35-.14a3.79,3.79,0,0,1-.27-1.27h-.38a5,5,0,0,1,0-.78l.38,0a3.76,3.76,0,0,1,.4-1.24l-.34-.18a4.66,4.66,0,0,1,.43-.66l.3.23a3.79,3.79,0,0,1,1-.87l-.2-.32a4.63,4.63,0,0,1,.7-.36l.14.35a3.66,3.66,0,0,1,1.28-.27l0-.38h.19m0,7.49h.14a3.24,3.24,0,0,0-.13-6.48h-.14a3.24,3.24,0,0,0,.13,6.48m0-7.82h-.19a.32.32,0,0,0-.32.33v.07a3.7,3.7,0,0,0-.75.16l0-.06a.33.33,0,0,0-.17-.18l-.13,0a.25.25,0,0,0-.12,0,5.34,5.34,0,0,0-.75.39.32.32,0,0,0-.1.45l0,0a4.62,4.62,0,0,0-.57.52l0,0a.31.31,0,0,0-.2-.07.32.32,0,0,0-.25.12,4.1,4.1,0,0,0-.46.71.37.37,0,0,0,0,.25.38.38,0,0,0,.16.19l.06,0a4.79,4.79,0,0,0-.24.73h-.11a.33.33,0,0,0-.32.28,4.73,4.73,0,0,0,0,.84.33.33,0,0,0,.1.23.39.39,0,0,0,.23.09h.07a4.89,4.89,0,0,0,.16.76l-.06,0a.29.29,0,0,0-.17.17.31.31,0,0,0,0,.25,5.45,5.45,0,0,0,.39.76.35.35,0,0,0,.2.14h.07a.37.37,0,0,0,.18-.05l.05,0a4,4,0,0,0,.52.57l0,0a.33.33,0,0,0,.05.46,4.79,4.79,0,0,0,.71.46.42.42,0,0,0,.15,0l.1,0a.3.3,0,0,0,.19-.16l0-.05a3.86,3.86,0,0,0,.73.23v.07a.31.31,0,0,0,.27.36,4.62,4.62,0,0,0,.65,0h.19a.38.38,0,0,0,.23-.11.33.33,0,0,0,.09-.23v-.06a4,4,0,0,0,.76-.17l0,.06a.32.32,0,0,0,.3.21.27.27,0,0,0,.12,0,4.49,4.49,0,0,0,.76-.38.33.33,0,0,0,.1-.45l0-.05a4,4,0,0,0,.57-.52l.05,0a.31.31,0,0,0,.2.07.32.32,0,0,0,.26-.12,5.48,5.48,0,0,0,.46-.72.29.29,0,0,0,0-.24.3.3,0,0,0-.16-.19l-.05,0a4.57,4.57,0,0,0,.24-.74H210a.37.37,0,0,0,.19-.07.36.36,0,0,0,.13-.21,4.84,4.84,0,0,0,0-.85.3.3,0,0,0-.11-.23.36.36,0,0,0-.22-.09h-.07a5,5,0,0,0-.16-.75l.05,0A.32.32,0,0,0,210,348a4.15,4.15,0,0,0-.38-.76.33.33,0,0,0-.45-.1l-.06,0a3.46,3.46,0,0,0-.51-.57l0-.05a.33.33,0,0,0-.06-.46,4.79,4.79,0,0,0-.71-.46.42.42,0,0,0-.15,0,.33.33,0,0,0-.29.18l0,.06a3.12,3.12,0,0,0-.73-.24v-.06a.36.36,0,0,0-.06-.25.34.34,0,0,0-.22-.12,4.6,4.6,0,0,0-.64-.05Zm0,7.5a2.92,2.92,0,0,1-.12-5.83h.13a2.92,2.92,0,0,1,2.14,4.9,3,3,0,0,1-2,.94Z" />
    <path class="GUNDAN_RAT_JEWELRY_RAT_JEWELRY_6_cls-5" d="M210.64,358.7a.28.28,0,0,1-.28-.28l0-.25h-.06l-.06.25a.27.27,0,0,1-.27.22l-.27-.05a.28.28,0,0,1-.21-.34l.05-.25-.06,0-.12.23a.28.28,0,0,1-.25.15l-.13,0-.18-.1a.43.43,0,0,1-.14-.16.28.28,0,0,1,0-.22l.12-.23-.06,0-.17.19a.43.43,0,0,1-.21.09.26.26,0,0,1-.19-.07l-.16-.14a.72.72,0,0,1-.09-.2.5.5,0,0,1,.08-.2l.17-.19,0-.05-.22.14-.15,0a.28.28,0,0,1-.24-.13l-.11-.18a.29.29,0,0,1,.09-.39l.21-.14,0-.06-.25.08h0a.28.28,0,0,1-.31-.19L207,356a.29.29,0,0,1,.19-.36l.25-.08,0-.06h-.25a.29.29,0,0,1-.3-.27V355a.3.3,0,0,1,.28-.3h.25s0,0,0-.06l-.25-.06a.44.44,0,0,1-.18-.12.34.34,0,0,1,0-.22l0-.2a.28.28,0,0,1,.27-.22l.32.06a.14.14,0,0,1,0-.06l-.23-.12a.61.61,0,0,1-.14-.17.31.31,0,0,1,0-.21l.1-.18a.26.26,0,0,1,.38-.12l.23.11,0-.05-.19-.17a.52.52,0,0,1-.09-.2.37.37,0,0,1,.07-.2l.14-.16a.56.56,0,0,1,.21-.09.27.27,0,0,1,.19.08l.19.17.05,0-.13-.22a.38.38,0,0,1,0-.21.28.28,0,0,1,.12-.18l.18-.11a.38.38,0,0,1,.15-.05.27.27,0,0,1,.24.14l.14.21.06,0-.08-.25a.28.28,0,0,1,.18-.35l.21-.07h0a.28.28,0,0,1,.31.19l.08.25.06,0v-.25a.49.49,0,0,1,.08-.21.42.42,0,0,1,.19-.09h.21a.28.28,0,0,1,.29.28l0,.25h.06l.06-.25a.28.28,0,0,1,.27-.22l.27,0a.71.71,0,0,1,.18.12.56.56,0,0,1,0,.22l0,.25.06,0,.12-.23a.28.28,0,0,1,.25-.15l.13,0,.19.1a.28.28,0,0,1,.11.38l-.11.23,0,0,.17-.19a.43.43,0,0,1,.21-.09.26.26,0,0,1,.19.07l.16.14a.28.28,0,0,1,0,.4l-.17.19,0,.05.22-.14.15,0a.28.28,0,0,1,.24.13l.11.18a.28.28,0,0,1-.09.39l-.21.14a.14.14,0,0,1,0,.06l.25-.08h0c.18,0,.28.07.31.19l.07.19a.29.29,0,0,1-.19.36l-.24.08a.13.13,0,0,0,0,.06H214a.29.29,0,0,1,.3.27v.21a.29.29,0,0,1-.27.29l-.26,0v.06l.25.06a.28.28,0,0,1,.22.33l-.05.21a.28.28,0,0,1-.27.22l-.32-.07,0,.07.23.12a.54.54,0,0,1,.14.16.33.33,0,0,1,0,.22l-.1.18a.26.26,0,0,1-.38.12l-.23-.12,0,.06.19.17a.28.28,0,0,1,0,.4l-.14.16a.56.56,0,0,1-.21.09.27.27,0,0,1-.19-.08l-.19-.17-.05,0,.14.22a.49.49,0,0,1,0,.21.26.26,0,0,1-.12.18l-.18.11a.37.37,0,0,1-.15,0,.26.26,0,0,1-.24-.13l-.14-.21-.06,0,.08.25a.5.5,0,0,1,0,.21.25.25,0,0,1-.16.14l-.2.07h-.05a.29.29,0,0,1-.31-.19l-.08-.25-.06,0v.25a.29.29,0,0,1-.27.3Zm-.13-5.85a2.12,2.12,0,0,0-2,2.2,2.11,2.11,0,0,0,2.11,2,2.17,2.17,0,0,0,1.55-.68,2.14,2.14,0,0,0,.56-1.52,2.11,2.11,0,0,0-2.11-2v-.16Z" />
    <path d="M210.56,351.39a.11.11,0,0,1,.12.11l0,.41a2.07,2.07,0,0,1,.35,0l.08-.4a.14.14,0,0,1,.12-.09h0l.2.05a.12.12,0,0,1,.1.14l-.09.39.32.12.19-.35a.14.14,0,0,1,.11-.07l.06,0,.18.09a.13.13,0,0,1,.05.17l-.19.35a1.94,1.94,0,0,1,.29.21l.27-.3a.12.12,0,0,1,.09,0,.11.11,0,0,1,.08,0l.16.14a.12.12,0,0,1,0,.17l-.27.3a2,2,0,0,1,.22.27l.34-.22.07,0a.11.11,0,0,1,.1.06l.11.17a.12.12,0,0,1,0,.17l-.34.22c0,.1.1.21.14.31l.39-.12h0a.12.12,0,0,1,.12.08l.06.2a.11.11,0,0,1-.08.15l-.38.13.06.34.4,0h0a.13.13,0,0,1,.12.12v.21a.11.11,0,0,1-.11.12l-.41,0a2.07,2.07,0,0,1,0,.35l.4.08a.13.13,0,0,1,.09.15l-.05.2a.12.12,0,0,1-.11.1h0l-.39-.08-.12.32.35.19a.11.11,0,0,1,.05.16l-.09.19a.13.13,0,0,1-.11.06h-.06l-.35-.19c-.07.1-.13.2-.2.29l.29.27a.12.12,0,0,1,0,.17l-.14.16a.18.18,0,0,1-.09,0,.12.12,0,0,1-.08,0l-.3-.27a2.88,2.88,0,0,1-.27.22l.22.34a.13.13,0,0,1,0,.17l-.17.11a.1.1,0,0,1-.07,0,.12.12,0,0,1-.1-.05l-.22-.34-.31.14.12.39a.12.12,0,0,1-.08.15l-.2.06h0a.12.12,0,0,1-.11-.09l-.12-.38L211,358l0,.41a.13.13,0,0,1-.12.13h-.21a.11.11,0,0,1-.12-.11l0-.41a2.07,2.07,0,0,1-.35,0l-.08.4a.14.14,0,0,1-.12.09h0l-.2-.05a.11.11,0,0,1-.09-.14l.08-.4a1.75,1.75,0,0,1-.32-.12l-.19.36a.12.12,0,0,1-.11.07l-.05,0-.19-.09a.13.13,0,0,1,0-.17l.19-.35a3.06,3.06,0,0,1-.29-.21l-.27.3a.12.12,0,0,1-.09,0,.11.11,0,0,1-.08,0l-.16-.14a.12.12,0,0,1,0-.17l.27-.3a2.88,2.88,0,0,1-.22-.27l-.34.22-.07,0a.11.11,0,0,1-.1-.06l-.11-.18a.11.11,0,0,1,0-.16l.34-.22a3.09,3.09,0,0,1-.14-.32l-.39.12h0a.13.13,0,0,1-.12-.08l-.06-.2a.12.12,0,0,1,.08-.16l.38-.12c0-.11,0-.22-.05-.34l-.41,0h0a.13.13,0,0,1-.13-.12V355a.11.11,0,0,1,.11-.12l.41,0a2.07,2.07,0,0,1,0-.35l-.4-.09a.12.12,0,0,1-.09-.14l0-.2a.12.12,0,0,1,.12-.1h0l.4.09a3,3,0,0,1,.11-.32l-.35-.19a.13.13,0,0,1-.05-.17l.09-.18a.14.14,0,0,1,.11-.06h.06l.35.19a3.06,3.06,0,0,1,.21-.29l-.3-.27a.12.12,0,0,1,0-.17l.14-.16a.18.18,0,0,1,.09,0,.09.09,0,0,1,.08,0l.3.27a2.88,2.88,0,0,1,.27-.22l-.22-.35a.12.12,0,0,1,0-.16l.18-.11a.07.07,0,0,1,.06,0,.12.12,0,0,1,.1.05l.22.34.32-.14-.13-.39a.12.12,0,0,1,.08-.15l.2-.06h0a.14.14,0,0,1,.12.09l.12.38.34-.06,0-.4a.13.13,0,0,1,.12-.13h.21m0,5.84h.09a2.27,2.27,0,0,0-.09-4.54h-.09a2.27,2.27,0,0,0,.09,4.54m0-6.17h-.22a.5.5,0,0,0-.31.14l-.07.09a.42.42,0,0,0-.29-.11l-.14,0-.19.06a.44.44,0,0,0-.3.32.46.46,0,0,0-.2,0,.51.51,0,0,0-.24.07l-.17.11a.51.51,0,0,0-.2.28.41.41,0,0,0,0,.11h-.09a.47.47,0,0,0-.33.14l-.14.16a.41.41,0,0,0-.11.32.34.34,0,0,0,0,.1.44.44,0,0,0-.36.24l-.1.18a.46.46,0,0,0,0,.44.44.44,0,0,0-.29.33l0,.2a.46.46,0,0,0,.13.42.27.27,0,0,0-.08.07.45.45,0,0,0-.12.32v.2a.47.47,0,0,0,.23.38.43.43,0,0,0-.09.42l.06.2a.44.44,0,0,0,.32.3.46.46,0,0,0,0,.44l.11.17a.47.47,0,0,0,.38.21h0a.37.37,0,0,0,0,.11.52.52,0,0,0,.14.31l.16.14a.47.47,0,0,0,.3.12l.12,0a.44.44,0,0,0,.24.36l.19.1a.46.46,0,0,0,.2.05.36.36,0,0,1,.55.23l.21.05h.1a.47.47,0,0,0,.32-.14.44.44,0,0,0,.37.2h.23a.49.49,0,0,0,.3-.14l.07-.09a.44.44,0,0,0,.29.11l.14,0,.19-.06a.42.42,0,0,0,.3-.32.46.46,0,0,0,.2.05.51.51,0,0,0,.24-.07l.18-.11a.47.47,0,0,0,.2-.39h.09a.44.44,0,0,0,.33-.15l.14-.15a.59.59,0,0,1,.46-.66l.1-.19a.4.4,0,0,0,0-.34.36.36,0,0,0,0-.09.44.44,0,0,0,.29-.33l.05-.2a.46.46,0,0,0-.13-.42.43.43,0,0,0,.2-.39v-.21a.47.47,0,0,0-.23-.37.43.43,0,0,0,.09-.42l-.06-.2a.44.44,0,0,0-.32-.3.42.42,0,0,0,0-.1A.5.5,0,0,0,214,353l-.11-.17a.47.47,0,0,0-.38-.21h0a.44.44,0,0,0-.13-.42l-.16-.14a.47.47,0,0,0-.3-.12l-.12,0a.36.36,0,0,0,0-.1.41.41,0,0,0-.22-.26l-.18-.1a.54.54,0,0,0-.21,0,.36.36,0,0,1-.55-.23l-.21-.05h-.1a.43.43,0,0,0-.32.14.44.44,0,0,0-.37-.2Zm0,5.85a2,2,0,0,1-.08-3.9h.08a2,2,0,0,1,.08,3.9Z" />
    <path class="GUNDAN_RAT_JEWELRY_RAT_JEWELRY_6_cls-5" d="M210.6,356.92a2,2,0,0,1-1.44-3.29,1.92,1.92,0,0,1,1.36-.63h0a2,2,0,1,1,.16,3.92Zm0-1a.21.21,0,0,0-.15.07.22.22,0,1,0,.16-.07v0Zm-1.22-1.13a.22.22,0,0,0-.21.23.22.22,0,1,0,.22-.23v0Zm2.35-.1a.22.22,0,0,0-.21.23.21.21,0,0,0,.21.21.24.24,0,0,0,.17-.07.28.28,0,0,0,.05-.16.22.22,0,0,0-.22-.21v0Zm-1.23-1.12a.23.23,0,0,0-.15.07.17.17,0,0,0,0,.15.21.21,0,0,0,.21.21.22.22,0,0,0,.22-.23.22.22,0,0,0-.22-.2v0Z" />
    <path d="M210.6,353.16a1.8,1.8,0,0,1,.07,3.6h-.07a1.8,1.8,0,0,1-.07-3.6h.07m0,1h0a.37.37,0,0,0,.36-.39.38.38,0,0,0-.38-.36h0a.38.38,0,1,0,0,.75m1.23,1.13h0a.38.38,0,0,0,.36-.39.37.37,0,0,0-.37-.37h0a.38.38,0,0,0-.36.4.38.38,0,0,0,.38.36m-2.35.1h0a.38.38,0,0,0,.36-.4.37.37,0,0,0-.37-.36h0a.37.37,0,0,0-.36.39.38.38,0,0,0,.38.37m1.22,1.12h0a.38.38,0,1,0,0-.75h0a.37.37,0,0,0-.36.39.38.38,0,0,0,.38.36m-.05-3.68h-.09a2.12,2.12,0,0,0-2,2.21,2.12,2.12,0,0,0,2.12,2h.09a2.13,2.13,0,0,0-.09-4.25Z" />
  </g>
  <g id="Jewellery">
    <path class="GUNDAN_RAT_JEWELRY_RAT_JEWELRY_6_cls-6" d="M261.9,238.76l-1.93-18A3.13,3.13,0,0,1,261,218" />
    <path class="GUNDAN_RAT_JEWELRY_RAT_JEWELRY_6_cls-7" d="M261.78,248.31c-.23,0-.45,0-.68,0a.27.27,0,0,1-.25-.3l0-.6a8.89,8.89,0,0,1-1.25-.24l-.17.59a.33.33,0,0,1-.14.17.31.31,0,0,1-.13,0h-.08c-.21-.06-.43-.13-.63-.21a.28.28,0,0,1-.17-.36l.21-.57a8.59,8.59,0,0,1-1.14-.56l-.32.52a.27.27,0,0,1-.18.13h-.06a.28.28,0,0,1-.15,0l-.55-.37a.28.28,0,0,1-.06-.39l.36-.5a9.62,9.62,0,0,1-1-.84l-.45.41a.27.27,0,0,1-.18.08.29.29,0,0,1-.21-.09c-.15-.17-.3-.34-.43-.51a.27.27,0,0,1,0-.39l.48-.38a9.2,9.2,0,0,1-.68-1.07l-.55.27a.31.31,0,0,1-.13,0h-.09a.27.27,0,0,1-.16-.14c-.1-.2-.19-.4-.28-.61A.28.28,0,0,1,253,242l.56-.24c-.05-.11-.08-.21-.12-.32-.09-.27-.17-.56-.25-.89l-.6.12h-.05a.29.29,0,0,1-.16,0,.36.36,0,0,1-.12-.18c0-.22-.08-.44-.1-.66a.27.27,0,0,1,.24-.31l.6-.08a8.94,8.94,0,0,1,0-1.27l-.61-.05a.3.3,0,0,1-.19-.1.24.24,0,0,1-.06-.2c0-.22,0-.44.07-.66a.29.29,0,0,1,.11-.19.34.34,0,0,1,.17,0l.64.09a8.54,8.54,0,0,1,.32-1.23l-.58-.21a.28.28,0,0,1-.15-.15.26.26,0,0,1,0-.21c.07-.21.16-.42.25-.62a.23.23,0,0,1,.15-.14.2.2,0,0,1,.1,0,.25.25,0,0,1,.12,0l.56.25a9.2,9.2,0,0,1,.63-1.1l-.5-.36a.28.28,0,0,1-.06-.39c.13-.18.26-.35.41-.53a.28.28,0,0,1,.21-.1.27.27,0,0,1,.18.07l.47.39a8.51,8.51,0,0,1,.91-.89l-.39-.48a.3.3,0,0,1-.06-.2.29.29,0,0,1,.11-.19c.17-.14.35-.27.53-.4a.33.33,0,0,1,.16-.05h.05a.27.27,0,0,1,.18.11l.35.51a8.54,8.54,0,0,1,1.11-.62l-.24-.56a.28.28,0,0,1,.15-.36,5.87,5.87,0,0,1,.63-.24l.09,0a.28.28,0,0,1,.26.19l.19.57a7.94,7.94,0,0,1,1.24-.29l-.07-.6a.3.3,0,0,1,.05-.21.27.27,0,0,1,.19-.1q.33,0,.66-.06h0a.27.27,0,0,1,.27.26l0,.62h.26a8.43,8.43,0,0,1,1,.06l.09-.6a.28.28,0,0,1,.28-.24h0l.66.12a.3.3,0,0,1,.17.12.31.31,0,0,1,0,.21l-.13.61a8,8,0,0,1,1.2.39l.26-.56a.28.28,0,0,1,.15-.15l.1,0a.2.2,0,0,1,.11,0c.21.09.41.19.6.29a.25.25,0,0,1,.14.16.3.3,0,0,1,0,.21l-.29.55a8.17,8.17,0,0,1,1.06.71l.39-.48a.25.25,0,0,1,.21-.1.28.28,0,0,1,.18.06c.17.14.34.29.5.45a.27.27,0,0,1,0,.39l-.42.44a7.64,7.64,0,0,1,.82,1l.51-.35a.24.24,0,0,1,.16,0,.28.28,0,0,1,.23.12l.36.56a.26.26,0,0,1,0,.21.27.27,0,0,1-.13.17l-.52.31a8.15,8.15,0,0,1,.54,1.16l.57-.2.09,0,.12,0a.25.25,0,0,1,.14.16q.12.34.21.66a.26.26,0,0,1,0,.21.27.27,0,0,1-.17.13l-.59.16a11,11,0,0,1,.2,1.26l.63,0a.28.28,0,0,1,.28.26c0,.22,0,.45,0,.67a.32.32,0,0,1-.08.2.27.27,0,0,1-.19.08h-.62a8.84,8.84,0,0,1-.15,1.26l.6.14a.26.26,0,0,1,.18.12.25.25,0,0,1,0,.21c0,.21-.1.43-.16.64a.28.28,0,0,1-.27.2h-.08l-.59-.17a9.13,9.13,0,0,1-.48,1.18l.55.29a.26.26,0,0,1,.13.16.26.26,0,0,1,0,.21,6.65,6.65,0,0,1-.33.58.26.26,0,0,1-.17.12H270a.23.23,0,0,1-.14,0l-.52-.32a10.37,10.37,0,0,1-.78,1l.44.42a.27.27,0,0,1,0,.39c-.15.16-.31.32-.48.47a.27.27,0,0,1-.18.08.29.29,0,0,1-.21-.09l-.41-.45a9.31,9.31,0,0,1-1,.76l.31.52a.26.26,0,0,1,0,.21.27.27,0,0,1-.13.17l-.59.32a.24.24,0,0,1-.12,0,.29.29,0,0,1-.25-.15l-.27-.55c-.32.15-.6.26-.88.36l-.31.1.16.58a.28.28,0,0,1-.2.34l-.65.16h0a.27.27,0,0,1-.27-.22l-.12-.6a10.7,10.7,0,0,1-1.27.11V248a.28.28,0,0,1-.28.27Zm.09-16.69a6.78,6.78,0,0,0-2.23.37,6.89,6.89,0,0,0,2.24,13.4,7,7,0,0,0,2.23-.37,6.89,6.89,0,0,0-2.24-13.4Z" />
    <path d="M261.31,229l.05.89.52,0a8.66,8.66,0,0,1,1.25.09l.13-.87.64.11-.19.87a8.93,8.93,0,0,1,1.68.55l.36-.81.58.28-.41.79a9.64,9.64,0,0,1,1.47,1l.56-.68c.17.13.33.28.49.43l-.61.64a8.21,8.21,0,0,1,1.15,1.34l.73-.5c.12.17.24.36.35.54l-.76.45a8.77,8.77,0,0,1,.75,1.61l.83-.29v0c.07.21.13.42.19.62l-.86.23a8.18,8.18,0,0,1,.28,1.75l.89,0c0,.21,0,.43,0,.65h-.89a8.54,8.54,0,0,1-.21,1.75l.87.2c0,.21-.1.42-.16.63l-.85-.25a8.87,8.87,0,0,1-.67,1.63l.79.42a6.32,6.32,0,0,1-.33.56l-.75-.46a8.49,8.49,0,0,1-1.08,1.39l.64.61c-.15.16-.3.31-.46.46l-.6-.65a8.28,8.28,0,0,1-1.42,1.05l.45.76c-.18.11-.38.21-.57.31l-.4-.79a9.67,9.67,0,0,1-1.09.47l-.56.16.23.86-.63.14-.17-.87a8.68,8.68,0,0,1-1.67.17h-.09V248l-.65,0,.07-.88a8.36,8.36,0,0,1-1.74-.33l-.25.85-.62-.2.31-.83a8.34,8.34,0,0,1-1.59-.77l-.47.75-.54-.37.52-.72a8.13,8.13,0,0,1-1.32-1.17l-.65.6c-.15-.16-.29-.32-.43-.49l.7-.56a8.16,8.16,0,0,1-1-1.48l-.79.4c-.1-.2-.19-.39-.27-.59l.82-.35c-.08-.18-.16-.37-.23-.56a7.5,7.5,0,0,1-.29-1.13l-.87.17c-.05-.21-.08-.42-.11-.64l.87-.11a9.52,9.52,0,0,1,0-1.77l-.88-.07c0-.21,0-.43.08-.64l.87.13a8.35,8.35,0,0,1,.44-1.72l-.83-.3a6.44,6.44,0,0,1,.24-.61l.82.37a9,9,0,0,1,.87-1.54l-.72-.51c.13-.18.26-.35.4-.52l.69.57a8.62,8.62,0,0,1,1.25-1.24l-.55-.69a6.41,6.41,0,0,1,.52-.39l.51.73a8.19,8.19,0,0,1,1.54-.85l-.34-.82.61-.23.28.83h0a9.32,9.32,0,0,1,1.7-.4l-.11-.87c.22,0,.43-.05.65-.06m.57,16.68a7.24,7.24,0,0,0,2.32-.39,7.16,7.16,0,0,0-2.33-13.94,7.24,7.24,0,0,0-2.32.39,7.16,7.16,0,0,0,2.33,13.94m-.57-17.23h0q-.34,0-.69.06a.58.58,0,0,0-.37.21.56.56,0,0,0-.11.41l0,.34q-.37.07-.75.18l-.11-.32A.55.55,0,0,0,259,229a.53.53,0,0,0-.24-.06.58.58,0,0,0-.19,0l-.64.25a.62.62,0,0,0-.3.3.58.58,0,0,0,0,.43l.13.32c-.23.11-.45.24-.67.37l-.2-.29a.61.61,0,0,0-.36-.23h-.1a.57.57,0,0,0-.31.1l-.56.41a.56.56,0,0,0-.09.78l.22.28c-.19.17-.37.35-.55.54l-.27-.23a.57.57,0,0,0-.78.08l-.42.54a.56.56,0,0,0,.13.78l.28.2c-.13.22-.26.44-.38.67l-.32-.14a.59.59,0,0,0-.23-.05.51.51,0,0,0-.2,0,.53.53,0,0,0-.3.29c-.1.21-.18.42-.26.64a.56.56,0,0,0,0,.42.6.6,0,0,0,.32.29l.32.12c-.07.24-.13.49-.19.75l-.34-.05h-.08a.55.55,0,0,0-.33.11.55.55,0,0,0-.22.37c0,.22-.06.45-.08.68a.56.56,0,0,0,.51.6l.34,0c0,.26,0,.52,0,.78l-.34,0a.58.58,0,0,0-.37.21.56.56,0,0,0-.11.41c0,.23.07.46.11.68a.56.56,0,0,0,.55.45h.1l.34-.07c.06.24.13.45.2.66l0,.08-.32.13a.61.61,0,0,0-.3.31.56.56,0,0,0,0,.42c.09.21.18.42.29.63a.51.51,0,0,0,.32.27.47.47,0,0,0,.17,0,.54.54,0,0,0,.25-.06l.31-.16a7.22,7.22,0,0,0,.42.65l-.27.22a.55.55,0,0,0-.09.78c.14.18.29.36.45.53a.54.54,0,0,0,.38.17h0a.58.58,0,0,0,.37-.15l.26-.24c.18.18.37.35.57.52l-.2.28a.55.55,0,0,0,.13.77,5.72,5.72,0,0,0,.57.39.6.6,0,0,0,.29.08H257a.61.61,0,0,0,.34-.25l.18-.3a6.44,6.44,0,0,0,.7.34l-.12.33a.55.55,0,0,0,0,.42.52.52,0,0,0,.31.29l.65.22.16,0a.54.54,0,0,0,.27-.07.57.57,0,0,0,.26-.33l.1-.34c.25.06.51.11.76.15l0,.34a.57.57,0,0,0,.14.41.54.54,0,0,0,.37.19q.35,0,.69,0h0a.55.55,0,0,0,.55-.55v-.35c.25,0,.51,0,.77-.07l.06.34a.56.56,0,0,0,.55.45h.11l.67-.16a.54.54,0,0,0,.33-.26.52.52,0,0,0,.06-.42l-.09-.33.06,0a6.92,6.92,0,0,0,.66-.26l.16.31a.55.55,0,0,0,.32.28.47.47,0,0,0,.17,0,.54.54,0,0,0,.25-.06l.6-.33a.56.56,0,0,0,.2-.76l-.18-.3a7.11,7.11,0,0,0,.62-.46l.24.25a.55.55,0,0,0,.41.18.54.54,0,0,0,.37-.14l.49-.48a.56.56,0,0,0,0-.79l-.25-.24c.17-.2.33-.4.48-.61l.29.18a.52.52,0,0,0,.29.09l.13,0a.53.53,0,0,0,.34-.24c.12-.2.24-.4.35-.6a.56.56,0,0,0-.23-.75l-.31-.16c.1-.24.2-.48.29-.72l.34.1.15,0a.56.56,0,0,0,.53-.4q.1-.33.18-.66a.58.58,0,0,0-.43-.67l-.34-.07c0-.26.07-.51.09-.77h.36a.51.51,0,0,0,.38-.16.52.52,0,0,0,.17-.39c0-.23,0-.46,0-.68a.53.53,0,0,0-.18-.39.55.55,0,0,0-.37-.14h0l-.35,0a6.71,6.71,0,0,0-.13-.76l.34-.09a.59.59,0,0,0,.34-.26.56.56,0,0,0,.05-.42c-.06-.22-.12-.44-.2-.66a.61.61,0,0,0-.28-.33.66.66,0,0,0-.27-.06.41.41,0,0,0-.16,0l-.32.11c-.1-.24-.21-.48-.33-.71l.29-.17a.59.59,0,0,0,.26-.34.62.62,0,0,0-.06-.42c-.12-.2-.25-.39-.38-.58a.53.53,0,0,0-.45-.24.55.55,0,0,0-.32.1l-.28.2c-.16-.2-.33-.4-.51-.59l.24-.25a.56.56,0,0,0,0-.79c-.16-.15-.34-.31-.51-.45a.55.55,0,0,0-.36-.13.55.55,0,0,0-.42.2l-.23.27c-.21-.15-.42-.29-.64-.42l.16-.32a.55.55,0,0,0-.23-.75l-.61-.3a.62.62,0,0,0-.23,0,.57.57,0,0,0-.51.32l-.14.33c-.24-.09-.49-.17-.74-.24l.08-.35a.57.57,0,0,0-.08-.42.53.53,0,0,0-.34-.24l-.68-.12h-.08a.56.56,0,0,0-.55.47l0,.35q-.39,0-.78,0l0-.35a.55.55,0,0,0-.55-.52Zm.57,16.67a6.61,6.61,0,0,1-2.15-12.86,6.76,6.76,0,0,1,2.14-.35A6.61,6.61,0,0,1,264,244.76a6.76,6.76,0,0,1-2.14.35Z" />
    <ellipse cx="261.88" cy="238.49" rx="5.38" ry="5.41" transform="translate(-23.9 29.24) rotate(-6.11)" />
    <polygon class="GUNDAN_RAT_JEWELRY_RAT_JEWELRY_6_cls-8" points="261.22 241.91 261.91 241.59 260.64 241.08 261.22 241.91" />
    <polygon class="GUNDAN_RAT_JEWELRY_RAT_JEWELRY_6_cls-9" points="262.51 241.53 263.64 240.76 263.25 241.69 262.51 241.53" />
    <polygon class="GUNDAN_RAT_JEWELRY_RAT_JEWELRY_6_cls-9" points="259.15 239.19 259.94 240.57 258.84 240.22 259.15 239.19" />
    <path class="GUNDAN_RAT_JEWELRY_RAT_JEWELRY_6_cls-8" d="M258.4,241.83a4.9,4.9,0,0,1-.69-1l.77-.37Z" />
    <path class="GUNDAN_RAT_JEWELRY_RAT_JEWELRY_6_cls-9" d="M257.09,238.65a4.83,4.83,0,0,1,.14-1.38l.88.21Z" />
    <polygon class="GUNDAN_RAT_JEWELRY_RAT_JEWELRY_6_cls-8" points="259.54 236.87 259.06 238.39 258.55 237.44 259.54 236.87" />
    <path class="GUNDAN_RAT_JEWELRY_RAT_JEWELRY_6_cls-8" d="M257.3,237a4.46,4.46,0,0,1,.47-1.07l.36,1.27Z" />
    <path class="GUNDAN_RAT_JEWELRY_RAT_JEWELRY_6_cls-9" d="M257.6,240.67a5.26,5.26,0,0,1-.44-1.32l1.25.93Z" />
    <polygon class="GUNDAN_RAT_JEWELRY_RAT_JEWELRY_6_cls-10" points="258.93 238.81 258.57 240.05 257.15 239 258.31 237.67 258.93 238.81" />
    <polygon class="GUNDAN_RAT_JEWELRY_RAT_JEWELRY_6_cls-9" points="260.51 235.29 261.25 235.46 260.12 236.22 260.51 235.29" />
    <path class="GUNDAN_RAT_JEWELRY_RAT_JEWELRY_6_cls-9" d="M262.13,243.35a4.49,4.49,0,0,1-1.64-.21l.66-.85Z" />
    <polygon class="GUNDAN_RAT_JEWELRY_RAT_JEWELRY_6_cls-8" points="262.2 241.44 260.38 240.71 259.27 238.77 259.95 236.64 261.57 235.54 263.38 236.27 264.49 238.21 263.82 240.35 262.2 241.44" />
    <polygon class="GUNDAN_RAT_JEWELRY_RAT_JEWELRY_6_cls-10" points="260.12 240.88 260.89 241.97 258.71 242.05 258.81 240.47 260.12 240.88" />
    <polygon class="GUNDAN_RAT_JEWELRY_RAT_JEWELRY_6_cls-8" points="263.12 235.9 261.86 235.39 262.54 235.08 263.12 235.9" />
    <polygon class="GUNDAN_RAT_JEWELRY_RAT_JEWELRY_6_cls-8" points="264.22 240.11 264.7 238.59 265.22 239.54 264.22 240.11" />
    <polygon class="GUNDAN_RAT_JEWELRY_RAT_JEWELRY_6_cls-9" points="264.61 237.79 263.83 236.41 264.92 236.76 264.61 237.79" />
    <path class="GUNDAN_RAT_JEWELRY_RAT_JEWELRY_6_cls-9" d="M260.21,243.05a4.85,4.85,0,0,1-1.34-.78l2-.08Z" />
    <polygon class="GUNDAN_RAT_JEWELRY_RAT_JEWELRY_6_cls-10" points="262.39 243.19 261.37 242.09 262.23 241.7 263.14 241.91 262.39 243.19" />
    <polygon class="GUNDAN_RAT_JEWELRY_RAT_JEWELRY_6_cls-10" points="265.3 239.77 265.73 241.3 263.59 241.68 264.11 240.45 265.3 239.77" />
    <path class="GUNDAN_RAT_JEWELRY_RAT_JEWELRY_6_cls-9" d="M266.47,239.94A4.92,4.92,0,0,1,266,241l-.36-1.27Z" />
    <polygon class="GUNDAN_RAT_JEWELRY_RAT_JEWELRY_6_cls-10" points="264.83 238.18 265.2 236.93 266.61 237.99 265.45 239.31 264.83 238.18" />
    <path class="GUNDAN_RAT_JEWELRY_RAT_JEWELRY_6_cls-9" d="M266.68,238.33a5.22,5.22,0,0,1-.15,1.38l-.88-.21Z" />
    <path class="GUNDAN_RAT_JEWELRY_RAT_JEWELRY_6_cls-8" d="M265.63,241.54a4.8,4.8,0,0,1-1.15,1.05l-.83-.7Z" />
    <path class="GUNDAN_RAT_JEWELRY_RAT_JEWELRY_6_cls-9" d="M264.23,242.74a4.84,4.84,0,0,1-1.56.56l.73-1.25Z" />
    <polygon class="GUNDAN_RAT_JEWELRY_RAT_JEWELRY_6_cls-10" points="263.64 236.1 262.87 235.01 265.05 234.93 264.95 236.52 263.64 236.1" />
    <path class="GUNDAN_RAT_JEWELRY_RAT_JEWELRY_6_cls-9" d="M266.17,236.31a4.87,4.87,0,0,1,.43,1.32l-1.25-.93Z" />
    <path class="GUNDAN_RAT_JEWELRY_RAT_JEWELRY_6_cls-9" d="M261.63,233.63a4.77,4.77,0,0,1,1.65.21l-.67.85Z" />
    <path class="GUNDAN_RAT_JEWELRY_RAT_JEWELRY_6_cls-9" d="M263.56,233.94a4.75,4.75,0,0,1,1.34.78l-2,.07Z" />
    <path class="GUNDAN_RAT_JEWELRY_RAT_JEWELRY_6_cls-9" d="M258.14,235.44a4.75,4.75,0,0,1,1.14-1.05l.84.7Z" />
    <path class="GUNDAN_RAT_JEWELRY_RAT_JEWELRY_6_cls-8" d="M259.53,234.24a4.66,4.66,0,0,1,1.57-.55l-.73,1.24Z" />
    <polygon class="GUNDAN_RAT_JEWELRY_RAT_JEWELRY_6_cls-10" points="258.46 237.21 258.03 235.68 260.18 235.3 259.65 236.53 258.46 237.21" />
    <polygon class="GUNDAN_RAT_JEWELRY_RAT_JEWELRY_6_cls-10" points="260.62 235.08 261.38 233.79 262.39 234.89 261.54 235.28 260.62 235.08" />
    <path class="GUNDAN_RAT_JEWELRY_RAT_JEWELRY_6_cls-8" d="M265.36,235.16a5,5,0,0,1,.7.94l-.78.38Z" />
    <path class="GUNDAN_RAT_JEWELRY_RAT_JEWELRY_6_cls-11" d="M259.8,217a2.63,2.63,0,0,1,1.91,2.63" />
    <path class="GUNDAN_RAT_JEWELRY_RAT_JEWELRY_6_cls-6" d="M265.9,218.38a7.5,7.5,0,0,1,1,3.39" />
  </g>
</svg>