<svg xmlns="http://www.w3.org/2000/svg" viewBox="0 0 432 432">
  <defs>
    <style>.GUNDAN_RAT_JEWELRY_RAT_JEWELRY_4_cls-1{fill:#776c3e;}.GUNDAN_RAT_JEWELRY_RAT_JEWELRY_4_cls-2{fill:#3d3617;}.GUNDAN_RAT_JEWELRY_RAT_JEWELRY_4_cls-3,.GUNDAN_RAT_JEWELRY_RAT_JEWELRY_4_cls-6{fill:#5e552d;}.GUNDAN_RAT_JEWELRY_RAT_JEWELRY_4_cls-11,.GUNDAN_RAT_JEWELRY_RAT_JEWELRY_4_cls-14,.GUNDAN_RAT_JEWELRY_RAT_JEWELRY_4_cls-4,.GUNDAN_RAT_JEWELRY_RAT_JEWELRY_4_cls-5{fill:none;}.GUNDAN_RAT_JEWELRY_RAT_JEWELRY_4_cls-11,.GUNDAN_RAT_JEWELRY_RAT_JEWELRY_4_cls-12,.GUNDAN_RAT_JEWELRY_RAT_JEWELRY_4_cls-13,.GUNDAN_RAT_JEWELRY_RAT_JEWELRY_4_cls-14,.GUNDAN_RAT_JEWELRY_RAT_JEWELRY_4_cls-4,.GUNDAN_RAT_JEWELRY_RAT_JEWELRY_4_cls-5,.GUNDAN_RAT_JEWELRY_RAT_JEWELRY_4_cls-6,.GUNDAN_RAT_JEWELRY_RAT_JEWELRY_4_cls-8,.GUNDAN_RAT_JEWELRY_RAT_JEWELRY_4_cls-9{stroke:#000;stroke-linecap:round;stroke-linejoin:round;}.GUNDAN_RAT_JEWELRY_RAT_JEWELRY_4_cls-4{stroke-width:0.54px;}.GUNDAN_RAT_JEWELRY_RAT_JEWELRY_4_cls-5{stroke-width:0.52px;}.GUNDAN_RAT_JEWELRY_RAT_JEWELRY_4_cls-6{stroke-width:0.44px;}.GUNDAN_RAT_JEWELRY_RAT_JEWELRY_4_cls-7{fill:#766e4a;}.GUNDAN_RAT_JEWELRY_RAT_JEWELRY_4_cls-12,.GUNDAN_RAT_JEWELRY_RAT_JEWELRY_4_cls-8{fill:#dfca6d;}.GUNDAN_RAT_JEWELRY_RAT_JEWELRY_4_cls-11,.GUNDAN_RAT_JEWELRY_RAT_JEWELRY_4_cls-8,.GUNDAN_RAT_JEWELRY_RAT_JEWELRY_4_cls-9{stroke-width:0.85px;}.GUNDAN_RAT_JEWELRY_RAT_JEWELRY_4_cls-13,.GUNDAN_RAT_JEWELRY_RAT_JEWELRY_4_cls-9{fill:#c03d00;}.GUNDAN_RAT_JEWELRY_RAT_JEWELRY_4_cls-10{fill:#fff;}.GUNDAN_RAT_JEWELRY_RAT_JEWELRY_4_cls-12,.GUNDAN_RAT_JEWELRY_RAT_JEWELRY_4_cls-13,.GUNDAN_RAT_JEWELRY_RAT_JEWELRY_4_cls-14{stroke-width:0.82px;}</style>
  </defs>
  <g id="Necklace">
    <circle cx="214.91" cy="350.67" r="1.16" />
    <path d="M176.55,325.59l.33-1.47a2,2,0,0,0-1.66.55" />
    <path class="GUNDAN_RAT_JEWELRY_RAT_JEWELRY_4_cls-1" d="M197.09,344.64s-1-.76-1.83-1.29c0,0,0,0,0,0a1.4,1.4,0,0,0,.42-.34,1.13,1.13,0,0,0,.22-.4,6,6,0,0,1,1.31.81c.15.14.28.26.37.36A1.38,1.38,0,0,0,197.09,344.64Z" />
    <path class="GUNDAN_RAT_JEWELRY_RAT_JEWELRY_4_cls-1" d="M191.6,341.57a4.25,4.25,0,0,0,2.65,1.22h0a.76.76,0,0,0,.56-.23.55.55,0,0,0,.17-.36h0s.4.17.88.4a1.13,1.13,0,0,1-.22.4,1.4,1.4,0,0,1-.42.34s0,0,0,0a2.94,2.94,0,0,1-2.49-.13c-1.17-.53-2-1.17-2-1.86a1.38,1.38,0,0,1,.5-.87,2.11,2.11,0,0,1,.37.44.58.58,0,0,0-.11.39A.5.5,0,0,0,191.6,341.57Z" />
    <path class="GUNDAN_RAT_JEWELRY_RAT_JEWELRY_4_cls-1" d="M177.27,327.71a.54.54,0,0,1-.23.29,1.22,1.22,0,0,1-1.09.18.56.56,0,0,1,.07-.26.72.72,0,0,1,.31-.3h0a1.91,1.91,0,0,0-.09-.52,1.7,1.7,0,0,0-.92.59s-.18-.4-.43-.89h0a1.75,1.75,0,0,1,.87-2.32h0c1-.31.7,1,.74,1.06a4.26,4.26,0,0,1,.73,1.42A1.21,1.21,0,0,1,177.27,327.71Z" />
    <path class="GUNDAN_RAT_JEWELRY_RAT_JEWELRY_4_cls-2" d="M177.27,327.71a1.21,1.21,0,0,0,0-.77,4.34,4.34,0,0,1,2,1.6,2.39,2.39,0,0,1,.35,1.23l-.1-.08a2.16,2.16,0,0,0-.87-.44A3.26,3.26,0,0,0,177.27,327.71Z" />
    <path class="GUNDAN_RAT_JEWELRY_RAT_JEWELRY_4_cls-1" d="M175.32,327.68a1.7,1.7,0,0,1,.92-.59,1.91,1.91,0,0,1,.09.52h0a.72.72,0,0,0-.31.3.53.53,0,0,0-.07.26,3.4,3.4,0,0,0,1.4,1.93,1,1,0,0,0,.93.14.91.91,0,0,0,.27-.18c.08.05.4.26.75.53a1.46,1.46,0,0,1-.5.36,1.77,1.77,0,0,1-.46.15,2.55,2.55,0,0,1-2.25-1C175.34,329.18,174.93,328.29,175.32,327.68Z" />
    <path class="GUNDAN_RAT_JEWELRY_RAT_JEWELRY_4_cls-1" d="M178.34,331.11a1.77,1.77,0,0,0,.46-.15,1.46,1.46,0,0,0,.5-.36h0a5.3,5.3,0,0,1,1.09,1,4.13,4.13,0,0,1,.29.41,1.59,1.59,0,0,0-.69.78h0A18.9,18.9,0,0,0,178.34,331.11Z" />
    <path class="GUNDAN_RAT_JEWELRY_RAT_JEWELRY_4_cls-3" d="M178.28,330.25a1,1,0,0,1-.93-.14.42.42,0,0,1,.07-.45,1.26,1.26,0,0,1,1.24-.41,2.16,2.16,0,0,1,.87.44l.1.08h0a11.11,11.11,0,0,1,2,1.88,1.27,1.27,0,0,1,.28.72.54.54,0,0,1-.14.33,1.11,1.11,0,0,1-1,.41.71.71,0,0,1,0-.25.69.69,0,0,1,.2-.37h0a1.8,1.8,0,0,0-.26-.49,4.13,4.13,0,0,0-.29-.41,5.3,5.3,0,0,0-1.09-1h0c-.35-.27-.67-.48-.75-.53A.91.91,0,0,1,178.28,330.25Z" />
    <path class="GUNDAN_RAT_JEWELRY_RAT_JEWELRY_4_cls-2" d="M186.9,336.82a1.12,1.12,0,0,0-.21-.73h0a4.75,4.75,0,0,1,2.38,1.25,2.57,2.57,0,0,1,.63,1.14l-.12-.06a2.12,2.12,0,0,0-1-.29A3.62,3.62,0,0,0,186.9,336.82Z" />
    <path class="GUNDAN_RAT_JEWELRY_RAT_JEWELRY_4_cls-2" d="M183.65,333.46a3.79,3.79,0,0,0-1.75-1.09,1.27,1.27,0,0,0-.28-.72,4.86,4.86,0,0,1,2.48,1.09,2.23,2.23,0,0,1,.78,1.34l-.08-.08A1.79,1.79,0,0,0,183.65,333.46Z" />
    <path class="GUNDAN_RAT_JEWELRY_RAT_JEWELRY_4_cls-1" d="M183.65,335.5a3,3,0,0,1-2.12-.57c-1-.72-1.71-1.48-1.53-2.15a1.59,1.59,0,0,1,.69-.78,1.8,1.8,0,0,1,.26.49h0a.69.69,0,0,0-.2.37.71.71,0,0,0,0,.25,4.1,4.1,0,0,0,2.08,1.59h0a1,1,0,0,0,.85-.1.62.62,0,0,0,.19-.21c.15.12.44.34.73.6h0l-.17.16A1.57,1.57,0,0,1,183.65,335.5Z" />
    <path class="GUNDAN_RAT_JEWELRY_RAT_JEWELRY_4_cls-3" d="M182.84,334.7h0c-.28-.32-.38-.61-.14-.87a1.24,1.24,0,0,1,1-.37,1.79,1.79,0,0,1,1.15.54l.08.08h0a10.4,10.4,0,0,1,1.81,2h0a1.12,1.12,0,0,1,.21.73h0a.54.54,0,0,1-.16.33,1.16,1.16,0,0,1-1,.34.57.57,0,0,1,0-.26.72.72,0,0,1,.23-.35,1.89,1.89,0,0,0-.21-.5c-.06-.13-.15-.27-.25-.44a5.05,5.05,0,0,0-.88-.95c-.29-.26-.58-.48-.73-.6a.62.62,0,0,1-.19.21A1,1,0,0,1,182.84,334.7Z" />
    <path class="GUNDAN_RAT_JEWELRY_RAT_JEWELRY_4_cls-1" d="M184.61,335a5.05,5.05,0,0,1,.88.95c.1.17.19.31.25.44a1.62,1.62,0,0,0-.76.73s-.68-.91-1.33-1.61a1.57,1.57,0,0,0,.79-.34l.17-.16Z" />
    <path class="GUNDAN_RAT_JEWELRY_RAT_JEWELRY_4_cls-1" d="M185.71,337.49a3.79,3.79,0,0,0,1.83,1.68,1,1,0,0,0,1,0,.77.77,0,0,0,.22-.22c.09,0,.45.18.87.39a1.58,1.58,0,0,1-.41.45,1.54,1.54,0,0,1-.43.2,2.71,2.71,0,0,1-2.44-.63c-1-.78-1.57-1.58-1.32-2.24a1.62,1.62,0,0,1,.76-.73,1.89,1.89,0,0,1,.21.5.72.72,0,0,0-.23.35A.57.57,0,0,0,185.71,337.49Z" />
    <path class="GUNDAN_RAT_JEWELRY_RAT_JEWELRY_4_cls-1" d="M190.89,340.13c.15.14.28.25.38.36h0a1.38,1.38,0,0,0-.5.87h0a20.83,20.83,0,0,0-2-1.37h0a1.54,1.54,0,0,0,.43-.2,1.58,1.58,0,0,0,.41-.45A6.51,6.51,0,0,1,190.89,340.13Z" />
    <path class="GUNDAN_RAT_JEWELRY_RAT_JEWELRY_4_cls-3" d="M191.27,340.49c-.1-.11-.23-.22-.38-.36a6.51,6.51,0,0,0-1.31-.8c-.42-.21-.78-.35-.87-.39a.77.77,0,0,1-.22.22,1,1,0,0,1-1,0,.42.42,0,0,1,0-.46,1.16,1.16,0,0,1,1.12-.59,2.12,2.12,0,0,1,1,.29l.12.06a20,20,0,0,1,2.4,1.53l.4.54a.56.56,0,0,1,0,.12.48.48,0,0,1-.06.35,1.05,1.05,0,0,1-.88.56.5.5,0,0,1-.07-.25.58.58,0,0,1,.11-.39,2.11,2.11,0,0,0-.37-.44Z" />
    <path class="GUNDAN_RAT_JEWELRY_RAT_JEWELRY_4_cls-2" d="M194.51,341.44a4.27,4.27,0,0,0-2-.78.56.56,0,0,0,0-.12l-.4-.54a5.32,5.32,0,0,1,2.69.67,3,3,0,0,1,1,.92,1.8,1.8,0,0,0-1.1-.18Z" />
    <path class="GUNDAN_RAT_JEWELRY_RAT_JEWELRY_4_cls-3" d="M194.25,342.77c-.36-.24-.55-.5-.4-.8a1.1,1.1,0,0,1,.66-.53l.14,0a1.8,1.8,0,0,1,1.1.18l.18.09.1.06h0a12.82,12.82,0,0,1,2.39,1.54h0a1.46,1.46,0,0,1,.44.67.54.54,0,0,1-.06.35,1.07,1.07,0,0,1-.89.55.5.5,0,0,1-.07-.25.54.54,0,0,1,.11-.38h0a2.52,2.52,0,0,0-.37-.44c-.09-.1-.22-.22-.37-.36a6,6,0,0,0-1.31-.81c-.48-.23-.88-.4-.88-.4h0a.55.55,0,0,1-.17.36.76.76,0,0,1-.56.23h0Z" />
    <path class="GUNDAN_RAT_JEWELRY_RAT_JEWELRY_4_cls-2" d="M201.12,344a3.07,3.07,0,0,1,1,1l-.13,0a2.52,2.52,0,0,0-1-.08,4.23,4.23,0,0,0-2.07-.88,1.46,1.46,0,0,0-.44-.67A5.38,5.38,0,0,1,201.12,344Z" />
    <path class="GUNDAN_RAT_JEWELRY_RAT_JEWELRY_4_cls-1" d="M201.65,346.6a2.82,2.82,0,0,1-2.57-.09c-1.17-.54-2-1.19-2-1.87h0a1.38,1.38,0,0,1,.5-.87,2.52,2.52,0,0,1,.37.44h0a.54.54,0,0,0-.11.38.5.5,0,0,0,.07.25,4.39,4.39,0,0,0,2.31,1.22.94.94,0,0,0,.9-.21.7.7,0,0,0,.16-.25c.1,0,.49.08,1,.19a1.3,1.3,0,0,1-.26.51,1.37,1.37,0,0,1-.34.29Z" />
    <path class="GUNDAN_RAT_JEWELRY_RAT_JEWELRY_4_cls-1" d="M204.05,347.49s-1.35-.58-2.4-.89a1.37,1.37,0,0,0,.34-.29,1.3,1.3,0,0,0,.26-.51,7.56,7.56,0,0,1,1.52.48,4.59,4.59,0,0,1,.48.27A1.2,1.2,0,0,0,204.05,347.49Z" />
    <path class="GUNDAN_RAT_JEWELRY_RAT_JEWELRY_4_cls-3" d="M200.23,346.07a.44.44,0,0,1-.19-.43,1,1,0,0,1,.9-.81,2.52,2.52,0,0,1,1,.08l.13,0h0a14,14,0,0,1,2.8,1,1.54,1.54,0,0,1,.64.54.44.44,0,0,1,.06.35.93.93,0,0,1-.68.73,1,1,0,0,1-.15-.23.51.51,0,0,1,0-.39h0a2.72,2.72,0,0,0-.5-.34,4.59,4.59,0,0,0-.48-.27,7.56,7.56,0,0,0-1.52-.48c-.47-.11-.86-.18-1-.19a.7.7,0,0,1-.16.25A.94.94,0,0,1,200.23,346.07Z" />
    <path class="GUNDAN_RAT_JEWELRY_RAT_JEWELRY_4_cls-3" d="M204.25,346.55a2.72,2.72,0,0,1,.5.34h0a.51.51,0,0,0,0,.39,1,1,0,0,0,.15.23c.36.35,3,1.17,3.44.26s-2-1.5-2.82-1.34a1.54,1.54,0,0,0-.64-.54,5.38,5.38,0,0,1,2.83.07c1.37.47,1.92,1.3,1.6,2s-1.44,1.1-2.74.84-2.34-.7-2.53-1.36h0A1.2,1.2,0,0,1,204.25,346.55Z" />
    <path class="GUNDAN_RAT_JEWELRY_RAT_JEWELRY_4_cls-4" d="M176.33,327.61a1.91,1.91,0,0,0-.09-.52c0-.13-.08-.29-.14-.47a4.2,4.2,0,0,0-.58-1" />
    <path class="GUNDAN_RAT_JEWELRY_RAT_JEWELRY_4_cls-4" d="M175.32,327.68s-.18-.4-.43-.89h0" />
    <path class="GUNDAN_RAT_JEWELRY_RAT_JEWELRY_4_cls-4" d="M175.76,324.46l.91-.21c0,.05-.23,1.26-.2,1.31a3.46,3.46,0,0,1,.77,1.38,1.21,1.21,0,0,1,0,.77.54.54,0,0,1-.23.29,1.22,1.22,0,0,1-1.09.18" />
    <path class="GUNDAN_RAT_JEWELRY_RAT_JEWELRY_4_cls-4" d="M176.33,327.62a.72.72,0,0,0-.31.3.53.53,0,0,0-.07.26,3.4,3.4,0,0,0,1.4,1.93,1,1,0,0,0,.93.14.91.91,0,0,0,.27-.18" />
    <path class="GUNDAN_RAT_JEWELRY_RAT_JEWELRY_4_cls-4" d="M178.66,329.25a3.26,3.26,0,0,0-1.39-1.54" />
    <path class="GUNDAN_RAT_JEWELRY_RAT_JEWELRY_4_cls-4" d="M179.3,330.6a1.46,1.46,0,0,1-.5.36,1.77,1.77,0,0,1-.46.15,2.55,2.55,0,0,1-2.25-1c-.75-.91-1.16-1.8-.77-2.41a1.7,1.7,0,0,1,.92-.59h0" />
    <path class="GUNDAN_RAT_JEWELRY_RAT_JEWELRY_4_cls-4" d="M179.63,329.77a2.39,2.39,0,0,0-.35-1.23,4.34,4.34,0,0,0-2-1.6" />
    <path class="GUNDAN_RAT_JEWELRY_RAT_JEWELRY_4_cls-4" d="M181,332.49a1.8,1.8,0,0,0-.26-.49,4.13,4.13,0,0,0-.29-.41,5.3,5.3,0,0,0-1.09-1h0c-.35-.27-.67-.48-.75-.53h0" />
    <path class="GUNDAN_RAT_JEWELRY_RAT_JEWELRY_4_cls-4" d="M180,332.78a18.9,18.9,0,0,0-1.66-1.67" />
    <path class="GUNDAN_RAT_JEWELRY_RAT_JEWELRY_4_cls-4" d="M177.35,330.11a.42.42,0,0,1,.07-.45,1.26,1.26,0,0,1,1.24-.41,2.16,2.16,0,0,1,.87.44l.1.08h0a11.11,11.11,0,0,1,2,1.88,1.27,1.27,0,0,1,.28.72.54.54,0,0,1-.14.33,1.11,1.11,0,0,1-1,.41" />
    <path class="GUNDAN_RAT_JEWELRY_RAT_JEWELRY_4_cls-4" d="M182.84,334.7a1,1,0,0,0,.85-.1.62.62,0,0,0,.19-.21" />
    <path class="GUNDAN_RAT_JEWELRY_RAT_JEWELRY_4_cls-4" d="M181,332.49a.69.69,0,0,0-.2.37.71.71,0,0,0,0,.25,4.1,4.1,0,0,0,2.08,1.59" />
    <path class="GUNDAN_RAT_JEWELRY_RAT_JEWELRY_4_cls-4" d="M183.65,333.46a3.79,3.79,0,0,0-1.75-1.09h0" />
    <path class="GUNDAN_RAT_JEWELRY_RAT_JEWELRY_4_cls-4" d="M180.7,332h0a1.59,1.59,0,0,0-.69.78c-.18.67.51,1.43,1.53,2.15a3,3,0,0,0,2.12.57,1.57,1.57,0,0,0,.79-.34l.17-.16" />
    <path class="GUNDAN_RAT_JEWELRY_RAT_JEWELRY_4_cls-4" d="M184.88,334.08a2.23,2.23,0,0,0-.78-1.34,4.86,4.86,0,0,0-2.48-1.09h0" />
    <path class="GUNDAN_RAT_JEWELRY_RAT_JEWELRY_4_cls-4" d="M186,336.88a1.89,1.89,0,0,0-.21-.5c-.06-.13-.15-.27-.25-.44a5.05,5.05,0,0,0-.88-.95c-.29-.26-.58-.48-.73-.6l-.11-.08" />
    <path class="GUNDAN_RAT_JEWELRY_RAT_JEWELRY_4_cls-4" d="M185,337.11s-.68-.91-1.33-1.61" />
    <path class="GUNDAN_RAT_JEWELRY_RAT_JEWELRY_4_cls-4" d="M182.84,334.7h0c-.28-.32-.38-.61-.14-.87a1.24,1.24,0,0,1,1-.37,1.79,1.79,0,0,1,1.15.54l.08.08h0a10.4,10.4,0,0,1,1.81,2h0a1.12,1.12,0,0,1,.21.73h0a.54.54,0,0,1-.16.33,1.16,1.16,0,0,1-1,.34h0" />
    <path class="GUNDAN_RAT_JEWELRY_RAT_JEWELRY_4_cls-4" d="M186,336.88a.72.72,0,0,0-.23.35.57.57,0,0,0,0,.26,3.79,3.79,0,0,0,1.83,1.68,1,1,0,0,0,1,0,.77.77,0,0,0,.22-.22" />
    <path class="GUNDAN_RAT_JEWELRY_RAT_JEWELRY_4_cls-4" d="M188.62,338.12a3.62,3.62,0,0,0-1.72-1.3" />
    <path class="GUNDAN_RAT_JEWELRY_RAT_JEWELRY_4_cls-4" d="M189.58,339.33a1.58,1.58,0,0,1-.41.45,1.54,1.54,0,0,1-.43.2,2.71,2.71,0,0,1-2.44-.63c-1-.78-1.57-1.58-1.32-2.24a1.62,1.62,0,0,1,.76-.73h0" />
    <path class="GUNDAN_RAT_JEWELRY_RAT_JEWELRY_4_cls-4" d="M189.7,338.47a2.57,2.57,0,0,0-.63-1.14,4.75,4.75,0,0,0-2.38-1.25" />
    <path class="GUNDAN_RAT_JEWELRY_RAT_JEWELRY_4_cls-4" d="M191.27,340.49c-.1-.11-.23-.22-.38-.36a6.51,6.51,0,0,0-1.31-.8c-.42-.21-.78-.35-.87-.39h0" />
    <path class="GUNDAN_RAT_JEWELRY_RAT_JEWELRY_4_cls-4" d="M191.64,340.93a2.11,2.11,0,0,0-.37-.44" />
    <path class="GUNDAN_RAT_JEWELRY_RAT_JEWELRY_4_cls-4" d="M190.77,341.36a20.83,20.83,0,0,0-2-1.37" />
    <path class="GUNDAN_RAT_JEWELRY_RAT_JEWELRY_4_cls-4" d="M187.54,339.17a.42.42,0,0,1,0-.46,1.16,1.16,0,0,1,1.12-.59,2.12,2.12,0,0,1,1,.29l.12.06a20,20,0,0,1,2.4,1.53l.4.54a.56.56,0,0,1,0,.12.48.48,0,0,1-.06.35,1.05,1.05,0,0,1-.88.56" />
    <path class="GUNDAN_RAT_JEWELRY_RAT_JEWELRY_4_cls-4" d="M192.54,340.66h0a4.27,4.27,0,0,1,2,.78" />
    <path class="GUNDAN_RAT_JEWELRY_RAT_JEWELRY_4_cls-4" d="M195,342.2a.55.55,0,0,1-.17.36.76.76,0,0,1-.56.23h0a4.25,4.25,0,0,1-2.65-1.22.5.5,0,0,1-.07-.25.58.58,0,0,1,.11-.39" />
    <path class="GUNDAN_RAT_JEWELRY_RAT_JEWELRY_4_cls-4" d="M192.09,340h0a5.32,5.32,0,0,1,2.69.67,3,3,0,0,1,1,.92" />
    <path class="GUNDAN_RAT_JEWELRY_RAT_JEWELRY_4_cls-4" d="M195.91,342.6a1.13,1.13,0,0,1-.22.4,1.4,1.4,0,0,1-.42.34s0,0,0,0a2.94,2.94,0,0,1-2.49-.13c-1.17-.53-2-1.17-2-1.86a1.38,1.38,0,0,1,.5-.87h0" />
    <path class="GUNDAN_RAT_JEWELRY_RAT_JEWELRY_4_cls-4" d="M195,342.2s.4.17.88.4a6,6,0,0,1,1.31.81c.15.14.28.26.37.36a2.52,2.52,0,0,1,.37.44" />
    <path class="GUNDAN_RAT_JEWELRY_RAT_JEWELRY_4_cls-4" d="M197.09,344.64s-1-.76-1.83-1.29" />
    <path class="GUNDAN_RAT_JEWELRY_RAT_JEWELRY_4_cls-4" d="M197.91,344.85h0a1.07,1.07,0,0,0,.89-.55.54.54,0,0,0,.06-.35,1.46,1.46,0,0,0-.44-.67h0a12.82,12.82,0,0,0-2.39-1.54h0l-.1-.06-.18-.09a1.8,1.8,0,0,0-1.1-.18l-.14,0a1.1,1.1,0,0,0-.66.53c-.15.3,0,.56.4.8h0" />
    <path class="GUNDAN_RAT_JEWELRY_RAT_JEWELRY_4_cls-4" d="M198,344.22a.54.54,0,0,0-.11.38.5.5,0,0,0,.07.25,4.39,4.39,0,0,0,2.31,1.22.94.94,0,0,0,.9-.21.7.7,0,0,0,.16-.25" />
    <path class="GUNDAN_RAT_JEWELRY_RAT_JEWELRY_4_cls-4" d="M200.94,344.83a4.23,4.23,0,0,0-2.07-.88h0" />
    <path class="GUNDAN_RAT_JEWELRY_RAT_JEWELRY_4_cls-4" d="M201.65,346.6a2.82,2.82,0,0,1-2.57-.09c-1.17-.54-2-1.19-2-1.87h0a1.38,1.38,0,0,1,.5-.87h0" />
    <path class="GUNDAN_RAT_JEWELRY_RAT_JEWELRY_4_cls-4" d="M202.25,345.8a1.3,1.3,0,0,1-.26.51,1.37,1.37,0,0,1-.34.29" />
    <path class="GUNDAN_RAT_JEWELRY_RAT_JEWELRY_4_cls-4" d="M202.09,344.94a3.07,3.07,0,0,0-1-1,5.38,5.38,0,0,0-2.69-.69h0" />
    <path class="GUNDAN_RAT_JEWELRY_RAT_JEWELRY_4_cls-4" d="M204.75,346.89a2.72,2.72,0,0,0-.5-.34,4.59,4.59,0,0,0-.48-.27,7.56,7.56,0,0,0-1.52-.48c-.47-.11-.86-.18-1-.19h0" />
    <path class="GUNDAN_RAT_JEWELRY_RAT_JEWELRY_4_cls-4" d="M204.05,347.49s-1.35-.58-2.4-.89h0" />
    <path class="GUNDAN_RAT_JEWELRY_RAT_JEWELRY_4_cls-4" d="M200.23,346.07a.44.44,0,0,1-.19-.43,1,1,0,0,1,.9-.81,2.52,2.52,0,0,1,1,.08l.13,0h0a14,14,0,0,1,2.8,1,1.54,1.54,0,0,1,.64.54.44.44,0,0,1,.06.35.93.93,0,0,1-.68.73" />
    <path class="GUNDAN_RAT_JEWELRY_RAT_JEWELRY_4_cls-4" d="M205.53,346.44c.81-.16,3.31.32,2.82,1.34s-3.08.09-3.44-.26a1,1,0,0,1-.15-.23.51.51,0,0,1,0-.39" />
    <path class="GUNDAN_RAT_JEWELRY_RAT_JEWELRY_4_cls-4" d="M204.89,345.9h0a5.38,5.38,0,0,1,2.83.07c1.37.47,1.92,1.3,1.6,2s-1.44,1.1-2.74.84-2.34-.7-2.53-1.36h0a1.2,1.2,0,0,1,.2-.94" />
    <path class="GUNDAN_RAT_JEWELRY_RAT_JEWELRY_4_cls-4" d="M175.77,324.46h0a1.75,1.75,0,0,0-.87,2.32h0" />
    <path d="M238,331l-.33-1.48a1.8,1.8,0,0,1,1.54.58" />
    <path class="GUNDAN_RAT_JEWELRY_RAT_JEWELRY_4_cls-1" d="M216.53,347.34s1.11-.52,2.05-.85v0a1.23,1.23,0,0,1-.47-.85,7,7,0,0,0-1.43.5c-.17.1-.32.19-.43.27A1.37,1.37,0,0,1,216.53,347.34Z" />
    <path class="GUNDAN_RAT_JEWELRY_RAT_JEWELRY_4_cls-1" d="M222.46,345.44a4.09,4.09,0,0,1-2.8.71h0a.75.75,0,0,1-.49-.33.54.54,0,0,1-.09-.39h0s-.42.08-.93.21a1.23,1.23,0,0,0,.47.85v0a2.84,2.84,0,0,0,2.43.36c1.25-.31,2.2-.8,2.29-1.47a1.38,1.38,0,0,0-.34-.94,2.93,2.93,0,0,0-.43.37.58.58,0,0,1,0,.4A.44.44,0,0,1,222.46,345.44Z" />
    <path class="GUNDAN_RAT_JEWELRY_RAT_JEWELRY_4_cls-1" d="M237.37,333.12a.59.59,0,0,0,.22.3,1.07,1.07,0,0,0,1,.21.66.66,0,0,0-.06-.26.8.8,0,0,0-.3-.31h0a2.71,2.71,0,0,1,.09-.53,1.78,1.78,0,0,1,.86.61s.17-.4.39-.89h0a1.87,1.87,0,0,0-.86-2.32h0c-.92-.32-.63,1-.66,1.05a4.27,4.27,0,0,0-.67,1.39A1.25,1.25,0,0,0,237.37,333.12Z" />
    <path class="GUNDAN_RAT_JEWELRY_RAT_JEWELRY_4_cls-2" d="M237.37,333.12a1.18,1.18,0,0,1,0-.76,4.12,4.12,0,0,0-1.92,1.52,2.52,2.52,0,0,0-.36,1.21l.1-.08a1.87,1.87,0,0,1,.83-.39A3.09,3.09,0,0,1,237.37,333.12Z" />
    <path class="GUNDAN_RAT_JEWELRY_RAT_JEWELRY_4_cls-1" d="M239.2,333.14a1.75,1.75,0,0,0-.87-.61,2.06,2.06,0,0,0-.08.52h0a.8.8,0,0,1,.3.31.61.61,0,0,1,.06.25,3.26,3.26,0,0,1-1.34,1.91.91.91,0,0,1-.88.1.88.88,0,0,1-.26-.19c-.08.05-.38.24-.73.49a1.47,1.47,0,0,0,.46.39,1.79,1.79,0,0,0,.44.16,2.29,2.29,0,0,0,2.16-.94C239.19,334.64,239.58,333.75,239.2,333.14Z" />
    <path class="GUNDAN_RAT_JEWELRY_RAT_JEWELRY_4_cls-1" d="M236.3,336.48a1.79,1.79,0,0,1-.44-.16,1.47,1.47,0,0,1-.46-.39h0a5.29,5.29,0,0,0-1.08.93l-.3.39a1.44,1.44,0,0,1,.62.82h0A21.29,21.29,0,0,1,236.3,336.48Z" />
    <path class="GUNDAN_RAT_JEWELRY_RAT_JEWELRY_4_cls-3" d="M236.39,335.63a.91.91,0,0,0,.88-.1.45.45,0,0,0-.06-.46,1.16,1.16,0,0,0-1.16-.45,1.87,1.87,0,0,0-.83.39l-.1.08h0a11.15,11.15,0,0,0-2,1.75,1.23,1.23,0,0,0-.31.69.51.51,0,0,0,.11.34,1.05,1.05,0,0,0,.93.48.54.54,0,0,0,0-.25.62.62,0,0,0-.17-.37h0a2.61,2.61,0,0,1,.27-.47l.3-.39a5.29,5.29,0,0,1,1.08-.93h0c.35-.25.65-.44.73-.49A.88.88,0,0,0,236.39,335.63Z" />
    <path class="GUNDAN_RAT_JEWELRY_RAT_JEWELRY_4_cls-2" d="M227.69,341.46a1.17,1.17,0,0,1,.28-.7h0a4.67,4.67,0,0,0-2.42.92,2.47,2.47,0,0,0-.76,1l.12,0a2.25,2.25,0,0,1,1-.15A3.55,3.55,0,0,1,227.69,341.46Z" />
    <path class="GUNDAN_RAT_JEWELRY_RAT_JEWELRY_4_cls-2" d="M231.12,338.47a3.62,3.62,0,0,1,1.74-.94,1.23,1.23,0,0,1,.31-.69,4.66,4.66,0,0,0-2.42.87,2.27,2.27,0,0,0-.85,1.26l.08-.07A1.76,1.76,0,0,1,231.12,338.47Z" />
    <path class="GUNDAN_RAT_JEWELRY_RAT_JEWELRY_4_cls-1" d="M231,340.51a2.78,2.78,0,0,0,2.09-.4c1-.63,1.75-1.36,1.6-2a1.44,1.44,0,0,0-.62-.82,2.61,2.61,0,0,0-.27.47h0a.62.62,0,0,1,.17.37.54.54,0,0,1,0,.25,3.78,3.78,0,0,1-2.1,1.43h0a.86.86,0,0,1-.8-.18.65.65,0,0,1-.17-.22l-.75.52h0a1.37,1.37,0,0,0,.16.18A1.48,1.48,0,0,0,231,340.51Z" />
    <path class="GUNDAN_RAT_JEWELRY_RAT_JEWELRY_4_cls-3" d="M231.79,339.78h0c.29-.29.4-.58.2-.85a1.21,1.21,0,0,0-.88-.46,1.76,1.76,0,0,0-1.14.43l-.08.07h0a11.21,11.21,0,0,0-1.93,1.78h0a1.17,1.17,0,0,0-.28.7h0a.49.49,0,0,0,.12.34,1.14,1.14,0,0,0,.95.47.6.6,0,0,0,0-.26.69.69,0,0,0-.19-.38,2.05,2.05,0,0,1,.26-.47l.29-.41a5.23,5.23,0,0,1,.93-.85l.75-.52a.65.65,0,0,0,.17.22A.86.86,0,0,0,231.79,339.78Z" />
    <path class="GUNDAN_RAT_JEWELRY_RAT_JEWELRY_4_cls-1" d="M230.07,339.9a5.23,5.23,0,0,0-.93.85l-.29.41a1.55,1.55,0,0,1,.66.81s.75-.83,1.44-1.46a1.48,1.48,0,0,1-.72-.42,1.37,1.37,0,0,1-.16-.18Z" />
    <path class="GUNDAN_RAT_JEWELRY_RAT_JEWELRY_4_cls-1" d="M228.76,342.27a3.68,3.68,0,0,1-2,1.43,1,1,0,0,1-.91-.14.72.72,0,0,1-.19-.25c-.08,0-.45.12-.89.26a1.45,1.45,0,0,0,.33.5,1.22,1.22,0,0,0,.38.26A2.56,2.56,0,0,0,228,344c1-.66,1.72-1.39,1.55-2.07a1.55,1.55,0,0,0-.66-.81,2.05,2.05,0,0,0-.26.47.69.69,0,0,1,.19.38A.6.6,0,0,1,228.76,342.27Z" />
    <path class="GUNDAN_RAT_JEWELRY_RAT_JEWELRY_4_cls-1" d="M223.39,344.14l-.42.29h0a1.33,1.33,0,0,1,.34.94h0s1.23-.66,2.19-1h0a1.22,1.22,0,0,1-.38-.26,1.45,1.45,0,0,1-.33-.5A6.39,6.39,0,0,0,223.39,344.14Z" />
    <path class="GUNDAN_RAT_JEWELRY_RAT_JEWELRY_4_cls-3" d="M223,344.43l.42-.29a6.39,6.39,0,0,1,1.39-.57c.44-.14.81-.24.89-.26a.72.72,0,0,0,.19.25,1,1,0,0,0,.91.14.41.41,0,0,0,.1-.45,1.16,1.16,0,0,0-1-.74,2.25,2.25,0,0,0-1,.15l-.12,0a23.83,23.83,0,0,0-2.54,1.11l-.48.46-.06.12a.52.52,0,0,0,0,.35,1,1,0,0,0,.76.7.44.44,0,0,0,.11-.23.58.58,0,0,0,0-.4,2.93,2.93,0,0,1,.43-.37Z" />
    <path class="GUNDAN_RAT_JEWELRY_RAT_JEWELRY_4_cls-2" d="M219.68,344.78a4.09,4.09,0,0,1,2-.39l.06-.12.48-.46a5.28,5.28,0,0,0-2.69.16,2.94,2.94,0,0,0-1.1.7,1.83,1.83,0,0,1,1.09.05Z" />
    <path class="GUNDAN_RAT_JEWELRY_RAT_JEWELRY_4_cls-3" d="M219.67,346.13c.4-.17.63-.39.54-.71a1,1,0,0,0-.53-.64l-.13-.06a1.83,1.83,0,0,0-1.09-.05,1.89,1.89,0,0,0-.18.06l-.12,0h0a13.63,13.63,0,0,0-2.61,1h0a1.42,1.42,0,0,0-.57.54.53.53,0,0,0,0,.35,1.07,1.07,0,0,0,.73.75.57.57,0,0,0,.1-.63h0a2.06,2.06,0,0,1,.46-.34c.11-.08.26-.17.43-.27a6.47,6.47,0,0,1,1.43-.5c.51-.13.93-.21.93-.21h0a.54.54,0,0,0,.09.39.75.75,0,0,0,.49.33h0Z" />
    <path class="GUNDAN_RAT_JEWELRY_RAT_JEWELRY_4_cls-2" d="M212.83,345.73a2.84,2.84,0,0,0-1.16.67.57.57,0,0,0,.13,0,2.4,2.4,0,0,1,1,.2,4.14,4.14,0,0,1,2.19-.34,1.42,1.42,0,0,1,.57-.54A5.35,5.35,0,0,0,212.83,345.73Z" />
    <path class="GUNDAN_RAT_JEWELRY_RAT_JEWELRY_4_cls-1" d="M211.66,348.11a2.76,2.76,0,0,0,2.49.57c1.27-.24,2.25-.67,2.37-1.34h0a1.37,1.37,0,0,0-.29-.95,2.06,2.06,0,0,0-.46.34h0a.57.57,0,0,1-.1.63,4.3,4.3,0,0,1-2.52.61,1,1,0,0,1-.82-.43.71.71,0,0,1-.08-.29c-.1,0-.5-.05-1-.07a1.2,1.2,0,0,0,.11.55,1.6,1.6,0,0,0,.25.37Z" />
    <path class="GUNDAN_RAT_JEWELRY_RAT_JEWELRY_4_cls-1" d="M209.12,348.29s1.44-.17,2.53-.19a1.6,1.6,0,0,1-.25-.37,1.2,1.2,0,0,1-.11-.55,7.29,7.29,0,0,0-1.57,0l-.53.11A1.25,1.25,0,0,1,209.12,348.29Z" />
    <path class="GUNDAN_RAT_JEWELRY_RAT_JEWELRY_4_cls-3" d="M213.16,348a.44.44,0,0,0,.28-.37,1,1,0,0,0-.65-1,2.4,2.4,0,0,0-1-.2.57.57,0,0,1-.13,0h0a15.73,15.73,0,0,0-2.9.13,1.59,1.59,0,0,0-.75.33.47.47,0,0,0-.16.31.93.93,0,0,0,.44.89.69.69,0,0,0,.2-.17.54.54,0,0,0,.13-.37h0a2.65,2.65,0,0,1,.57-.19l.53-.11a7.29,7.29,0,0,1,1.57,0c.47,0,.87.06,1,.07a.71.71,0,0,0,.08.29A1,1,0,0,0,213.16,348Z" />
    <path class="GUNDAN_RAT_JEWELRY_RAT_JEWELRY_4_cls-5" d="M238.25,333.05a2.06,2.06,0,0,1,.08-.52c0-.13.08-.28.13-.46a4.19,4.19,0,0,1,.53-1" />
    <path class="GUNDAN_RAT_JEWELRY_RAT_JEWELRY_4_cls-5" d="M239.2,333.14s.17-.4.39-.89h0" />
    <path class="GUNDAN_RAT_JEWELRY_RAT_JEWELRY_4_cls-5" d="M238.74,329.92l-.84-.22s.23,1.26.2,1.31a3.61,3.61,0,0,0-.7,1.35,1.18,1.18,0,0,0,0,.76.59.59,0,0,0,.22.3,1.07,1.07,0,0,0,1,.21" />
    <path class="GUNDAN_RAT_JEWELRY_RAT_JEWELRY_4_cls-5" d="M238.25,333.06a.8.8,0,0,1,.3.31.61.61,0,0,1,.06.25,3.26,3.26,0,0,1-1.34,1.91.91.91,0,0,1-.88.1.88.88,0,0,1-.26-.19" />
    <path class="GUNDAN_RAT_JEWELRY_RAT_JEWELRY_4_cls-5" d="M236.05,334.62a3.09,3.09,0,0,1,1.32-1.5" />
    <path class="GUNDAN_RAT_JEWELRY_RAT_JEWELRY_4_cls-5" d="M235.4,335.93a1.47,1.47,0,0,0,.46.39,1.79,1.79,0,0,0,.44.16,2.29,2.29,0,0,0,2.16-.94c.73-.9,1.12-1.79.74-2.4a1.75,1.75,0,0,0-.87-.61h0" />
    <path class="GUNDAN_RAT_JEWELRY_RAT_JEWELRY_4_cls-5" d="M235.12,335.09a2.52,2.52,0,0,1,.36-1.21,4.12,4.12,0,0,1,1.92-1.52" />
    <path class="GUNDAN_RAT_JEWELRY_RAT_JEWELRY_4_cls-5" d="M233.75,337.72a2.61,2.61,0,0,1,.27-.47l.3-.39a5.29,5.29,0,0,1,1.08-.93h0c.35-.25.65-.44.73-.49h0" />
    <path class="GUNDAN_RAT_JEWELRY_RAT_JEWELRY_4_cls-5" d="M234.65,338.07a21.29,21.29,0,0,1,1.65-1.59" />
    <path class="GUNDAN_RAT_JEWELRY_RAT_JEWELRY_4_cls-5" d="M237.27,335.53a.45.45,0,0,0-.06-.46,1.16,1.16,0,0,0-1.16-.45,1.87,1.87,0,0,0-.83.39l-.1.08h0a11.15,11.15,0,0,0-2,1.75,1.23,1.23,0,0,0-.31.69.51.51,0,0,0,.11.34,1.05,1.05,0,0,0,.93.48" />
    <path class="GUNDAN_RAT_JEWELRY_RAT_JEWELRY_4_cls-5" d="M231.79,339.78a.86.86,0,0,1-.8-.18.65.65,0,0,1-.17-.22" />
    <path class="GUNDAN_RAT_JEWELRY_RAT_JEWELRY_4_cls-5" d="M233.75,337.73a.62.62,0,0,1,.17.37.54.54,0,0,1,0,.25,3.78,3.78,0,0,1-2.1,1.43" />
    <path class="GUNDAN_RAT_JEWELRY_RAT_JEWELRY_4_cls-5" d="M231.12,338.47a3.62,3.62,0,0,1,1.74-.94h0" />
    <path class="GUNDAN_RAT_JEWELRY_RAT_JEWELRY_4_cls-5" d="M234,337.25h0a1.44,1.44,0,0,1,.62.82c.15.68-.56,1.41-1.6,2a2.78,2.78,0,0,1-2.09.4,1.48,1.48,0,0,1-.72-.42,1.37,1.37,0,0,1-.16-.18" />
    <path class="GUNDAN_RAT_JEWELRY_RAT_JEWELRY_4_cls-5" d="M229.9,339a2.27,2.27,0,0,1,.85-1.26,4.66,4.66,0,0,1,2.42-.87h0" />
    <path class="GUNDAN_RAT_JEWELRY_RAT_JEWELRY_4_cls-5" d="M228.59,341.63a2.05,2.05,0,0,1,.26-.47l.29-.41a5.23,5.23,0,0,1,.93-.85l.75-.52.12-.08" />
    <path class="GUNDAN_RAT_JEWELRY_RAT_JEWELRY_4_cls-5" d="M229.51,342s.75-.83,1.44-1.46" />
    <path class="GUNDAN_RAT_JEWELRY_RAT_JEWELRY_4_cls-5" d="M231.79,339.78h0c.29-.29.4-.58.2-.85a1.21,1.21,0,0,0-.88-.46,1.76,1.76,0,0,0-1.14.43l-.08.07h0a11.21,11.21,0,0,0-1.93,1.78h0a1.17,1.17,0,0,0-.28.7h0a.49.49,0,0,0,.12.34,1.14,1.14,0,0,0,.95.47h0" />
    <path class="GUNDAN_RAT_JEWELRY_RAT_JEWELRY_4_cls-5" d="M228.59,341.63a.69.69,0,0,1,.19.38.6.6,0,0,1,0,.26,3.68,3.68,0,0,1-2,1.43,1,1,0,0,1-.91-.14.72.72,0,0,1-.19-.25" />
    <path class="GUNDAN_RAT_JEWELRY_RAT_JEWELRY_4_cls-5" d="M225.87,342.51a3.55,3.55,0,0,1,1.82-1.05" />
    <path class="GUNDAN_RAT_JEWELRY_RAT_JEWELRY_4_cls-5" d="M224.78,343.57a1.45,1.45,0,0,0,.33.5,1.22,1.22,0,0,0,.38.26A2.56,2.56,0,0,0,228,344c1-.66,1.72-1.39,1.55-2.07a1.55,1.55,0,0,0-.66-.81h0" />
    <path class="GUNDAN_RAT_JEWELRY_RAT_JEWELRY_4_cls-5" d="M224.79,342.7a2.47,2.47,0,0,1,.76-1,4.67,4.67,0,0,1,2.42-.92" />
    <path class="GUNDAN_RAT_JEWELRY_RAT_JEWELRY_4_cls-5" d="M223,344.43l.42-.29a6.39,6.39,0,0,1,1.39-.57c.44-.14.81-.24.89-.26h0" />
    <path class="GUNDAN_RAT_JEWELRY_RAT_JEWELRY_4_cls-5" d="M222.53,344.81a2.93,2.93,0,0,1,.43-.37" />
    <path class="GUNDAN_RAT_JEWELRY_RAT_JEWELRY_4_cls-5" d="M223.3,345.38s1.23-.66,2.19-1" />
    <path class="GUNDAN_RAT_JEWELRY_RAT_JEWELRY_4_cls-5" d="M226.77,343.7a.41.41,0,0,0,.1-.45,1.16,1.16,0,0,0-1-.74,2.25,2.25,0,0,0-1,.15l-.12,0a23.83,23.83,0,0,0-2.54,1.11l-.48.46-.06.12a.52.52,0,0,0,0,.35,1,1,0,0,0,.76.7" />
    <path class="GUNDAN_RAT_JEWELRY_RAT_JEWELRY_4_cls-5" d="M221.71,344.39h0a4.09,4.09,0,0,0-2,.39" />
    <path class="GUNDAN_RAT_JEWELRY_RAT_JEWELRY_4_cls-5" d="M219.07,345.42a.54.54,0,0,0,.09.39.75.75,0,0,0,.49.33h0a4.09,4.09,0,0,0,2.8-.71.44.44,0,0,0,.11-.23.58.58,0,0,0,0-.4" />
    <path class="GUNDAN_RAT_JEWELRY_RAT_JEWELRY_4_cls-5" d="M222.26,343.82h0a5.28,5.28,0,0,0-2.69.16,2.94,2.94,0,0,0-1.1.7" />
    <path class="GUNDAN_RAT_JEWELRY_RAT_JEWELRY_4_cls-5" d="M218.1,345.62a1.23,1.23,0,0,0,.47.85v0a2.84,2.84,0,0,0,2.43.36c1.25-.31,2.2-.79,2.29-1.47a1.33,1.33,0,0,0-.34-.94h0" />
    <path class="GUNDAN_RAT_JEWELRY_RAT_JEWELRY_4_cls-5" d="M219,345.41s-.42.08-.93.21a7,7,0,0,0-1.43.5c-.17.1-.32.19-.43.27a2.06,2.06,0,0,0-.46.34" />
    <path class="GUNDAN_RAT_JEWELRY_RAT_JEWELRY_4_cls-5" d="M216.53,347.34s1.11-.52,2.05-.85" />
    <path class="GUNDAN_RAT_JEWELRY_RAT_JEWELRY_4_cls-5" d="M215.68,347.36h0a1.07,1.07,0,0,1-.73-.75.53.53,0,0,1,0-.35,1.42,1.42,0,0,1,.57-.54h0a13.63,13.63,0,0,1,2.61-1h0l.12,0a1.89,1.89,0,0,1,.18-.06,1.83,1.83,0,0,1,1.09.05l.13.06a1,1,0,0,1,.53.64c.09.32-.14.54-.54.71h0" />
    <path class="GUNDAN_RAT_JEWELRY_RAT_JEWELRY_4_cls-5" d="M215.78,346.73a.57.57,0,0,1-.1.63,4.3,4.3,0,0,1-2.52.61,1,1,0,0,1-.82-.43.71.71,0,0,1-.08-.29" />
    <path class="GUNDAN_RAT_JEWELRY_RAT_JEWELRY_4_cls-5" d="M212.79,346.6a4.14,4.14,0,0,1,2.19-.34h0" />
    <path class="GUNDAN_RAT_JEWELRY_RAT_JEWELRY_4_cls-5" d="M211.66,348.11a2.76,2.76,0,0,0,2.49.57c1.27-.24,2.25-.67,2.37-1.34h0a1.37,1.37,0,0,0-.29-.95h0" />
    <path class="GUNDAN_RAT_JEWELRY_RAT_JEWELRY_4_cls-5" d="M211.29,347.18a1.2,1.2,0,0,0,.11.55,1.6,1.6,0,0,0,.25.37" />
    <path class="GUNDAN_RAT_JEWELRY_RAT_JEWELRY_4_cls-5" d="M211.67,346.4a2.84,2.84,0,0,1,1.16-.67,5.35,5.35,0,0,1,2.72,0h0" />
    <path class="GUNDAN_RAT_JEWELRY_RAT_JEWELRY_4_cls-5" d="M211.66,348.11h0a23.28,23.28,0,0,0-2.53.24s.32-.21.24-1" />
    <path class="GUNDAN_RAT_JEWELRY_RAT_JEWELRY_4_cls-5" d="M213.16,348a.44.44,0,0,0,.28-.37,1,1,0,0,0-.65-1,2.4,2.4,0,0,0-1-.2.57.57,0,0,1-.13,0h0a15.73,15.73,0,0,0-2.9.13,1.59,1.59,0,0,0-.75.33.47.47,0,0,0-.16.31.83.83,0,0,0,.31.83,2.12,2.12,0,0,0,.46-.48,2.65,2.65,0,0,1,.57-.19l.53-.11a7.29,7.29,0,0,1,1.57,0c.47,0,.87.06,1,.07h0" />
    <path class="GUNDAN_RAT_JEWELRY_RAT_JEWELRY_4_cls-5" d="M238.73,329.92h0a1.87,1.87,0,0,1,.86,2.32h0" />
    <rect class="GUNDAN_RAT_JEWELRY_RAT_JEWELRY_4_cls-6" x="214.11" y="347.43" width="1.03" height="3.81" rx="0.52" transform="translate(-56.71 41.96) rotate(-9.87)" />
    <path class="GUNDAN_RAT_JEWELRY_RAT_JEWELRY_4_cls-7" d="M215.71,362.9l-.36,0a.25.25,0,0,0-.49-.07h0l-.35-.07a.28.28,0,0,1-.21-.27.25.25,0,0,1-.22.13H214l-.33-.13a.29.29,0,0,1-.15-.14.39.39,0,0,1,0-.15.2.2,0,0,1-.12.08h-.08l-.12,0a3.07,3.07,0,0,1-.31-.17.27.27,0,0,1-.12-.16.26.26,0,0,1,0-.15.27.27,0,0,1-.17.06.24.24,0,0,1-.16-.05l-.28-.22a.29.29,0,0,1-.1-.18.32.32,0,0,1,0-.14.33.33,0,0,1-.14,0h0a.27.27,0,0,1-.19-.08l-.24-.26a.26.26,0,0,1-.07-.19.34.34,0,0,1,.05-.14l-.1,0a.28.28,0,0,1-.22-.11c-.07-.1-.14-.2-.2-.3a.28.28,0,0,1,0-.2.33.33,0,0,1,.07-.13h-.14a.26.26,0,0,1-.16-.13l-.15-.32a.3.3,0,0,1,0-.21.27.27,0,0,1,.09-.12h0a.2.2,0,0,1-.11,0,.28.28,0,0,1-.14-.16,3.37,3.37,0,0,1-.1-.34.24.24,0,0,1,0-.2.24.24,0,0,1,.1-.1.34.34,0,0,1-.14,0,.28.28,0,0,1-.11-.17c0-.12,0-.24,0-.36a.26.26,0,0,1,.17-.28.24.24,0,0,1-.13-.07.23.23,0,0,1-.08-.18v-.36a.31.31,0,0,1,.09-.18.24.24,0,0,1,.13-.07l-.12-.09a.28.28,0,0,1-.05-.2l.06-.35a.27.27,0,0,1,.26-.21.28.28,0,0,1-.13-.31c0-.11.07-.23.11-.34a.26.26,0,0,1,.25-.17h0a.27.27,0,0,1-.09-.12.3.3,0,0,1,0-.21l.17-.32a.26.26,0,0,1,.23-.13H211a.26.26,0,0,1,0-.33,1.94,1.94,0,0,1,.21-.29.25.25,0,0,1,.21-.1.23.23,0,0,1,.11,0,.24.24,0,0,1-.05-.14.26.26,0,0,1,.07-.19l.25-.25a.27.27,0,0,1,.19-.08h0a.24.24,0,0,1,.14.05.26.26,0,0,1,0-.15.25.25,0,0,1,.1-.18l.29-.21a.25.25,0,0,1,.15-.05.31.31,0,0,1,.18.07A.27.27,0,0,1,213,352l.32-.16a.2.2,0,0,1,.11,0h.09a.18.18,0,1,0,.29-.2l.34-.11.08,0,.12,0a.38.38,0,0,1,.11.11.23.23,0,0,1,0-.14.3.3,0,0,1,.17-.12l.35-.06h0a.27.27,0,0,1,.25.17.27.27,0,0,1,.24-.22h.32a.28.28,0,0,1,.2.08.45.45,0,0,1,.1.14.26.26,0,0,1,.25-.19h0l.35.05a.25.25,0,0,1,.22.24.38.38,0,0,1,.11-.11.28.28,0,0,1,.13,0h.07l.34.1a.26.26,0,0,1,.18.28.27.27,0,0,1,.12-.09l.1,0,.1,0,.33.15a.26.26,0,0,1,.13.16.23.23,0,0,1,0,.14.27.27,0,0,1,.13-.07h.06a.24.24,0,0,1,.14.05l.3.19a.29.29,0,0,1,.1.18.23.23,0,0,1,0,.14.24.24,0,0,1,.14-.05h0a.27.27,0,0,1,.17.06,3.07,3.07,0,0,1,.26.25.25.25,0,0,1,0,.32.28.28,0,0,1,.13,0h0a.27.27,0,0,1,.18.1,3,3,0,0,1,.22.28.27.27,0,0,1,0,.33l.08,0a.28.28,0,0,1,.23.13l.18.31a.27.27,0,0,1,0,.2.25.25,0,0,1-.08.12H221l.1,0a.32.32,0,0,1,.14.14,3.42,3.42,0,0,1,.13.34.27.27,0,0,1-.11.31h0a.26.26,0,0,1,.25.2,3.59,3.59,0,0,1,.08.35.27.27,0,0,1-.15.29.26.26,0,0,1,.13.06.27.27,0,0,1,.1.19c0,.12,0,.24,0,.36a.26.26,0,0,1-.07.19.24.24,0,0,1-.13.07.57.57,0,0,1,.13.08.3.3,0,0,1,.06.2,2.16,2.16,0,0,1,0,.35.25.25,0,0,1-.1.18.38.38,0,0,1-.13.06.31.31,0,0,1,.11.09.28.28,0,0,1,0,.2,2,2,0,0,1-.09.35.25.25,0,0,1-.25.19h0a.27.27,0,0,1,.11.32l-.14.33a.26.26,0,0,1-.24.15h-.06a.29.29,0,0,1,.08.13.24.24,0,0,1,0,.2c-.06.1-.12.2-.19.3a.25.25,0,0,1-.22.12.15.15,0,0,1-.09,0,.29.29,0,0,1,0,.34l-.23.27a.31.31,0,0,1-.19.09h0a.2.2,0,0,1-.13,0,.42.42,0,0,1,0,.15.31.31,0,0,1-.09.18l-.27.24a.35.35,0,0,1-.17.06h0a.22.22,0,0,1-.14-.05.26.26,0,0,1,0,.15.27.27,0,0,1-.11.17l-.31.19a.28.28,0,0,1-.13,0,.27.27,0,0,1-.19-.08.26.26,0,0,1,0,.15.34.34,0,0,1-.14.15l-.33.14-.1,0a.29.29,0,0,1-.22-.12.21.21,0,0,1,0,.15.25.25,0,0,1-.16.12,2.14,2.14,0,0,1-.34.09h-.06a.27.27,0,0,1-.24-.15.25.25,0,0,1-.06.14.27.27,0,0,1-.17.1l-.37,0a.28.28,0,0,1-.18-.06.29.29,0,0,1-.08-.13.27.27,0,0,1-.26.21Zm-1.87-2.75a3.71,3.71,0,0,0,1.89.58l0-.54a3.15,3.15,0,0,1-1.49-.46Zm2.77.5a3.66,3.66,0,0,0,1.75-.92l-.42-.35a3,3,0,0,1-1.38.73Zm-4.37-2.81a3.63,3.63,0,0,0,.92,1.74l.35-.42a3,3,0,0,1-.73-1.37Zm2.5,1.22a2.22,2.22,0,0,0,.86.27l-.11-1.17Zm1.74.19a2.31,2.31,0,0,0,.79-.42l-.9-.75Zm2.44-.21a3.6,3.6,0,0,0,.59-1.88l-.54,0a3.17,3.17,0,0,1-.46,1.49Zm-5.28-1.33a2.41,2.41,0,0,0,.42.79l.75-.9Zm4.2.43a2.29,2.29,0,0,0,.27-.85l-1.17.11Zm-5.1-3.07a3.68,3.68,0,0,0-.58,1.88l.54-.05a3.06,3.06,0,0,1,.46-1.49Zm1.08.9a2.27,2.27,0,0,0-.26.85l1.16-.11Zm3,.54,1.16-.1a2.13,2.13,0,0,0-.42-.8Zm1.3-1.56a3.13,3.13,0,0,1,.72,1.37l.54-.05a3.68,3.68,0,0,0-.92-1.74ZM215.29,356l-.11-1.17a2.31,2.31,0,0,0-.79.42Zm.88-.08.75-.9a2.12,2.12,0,0,0-.85-.27Zm-2.45-1.22a3.29,3.29,0,0,1,1.38-.73l0-.54a3.63,3.63,0,0,0-1.74.92Zm2.26-.81a3,3,0,0,1,1.49.46l.35-.42a3.68,3.68,0,0,0-1.89-.58Z" />
    <path d="M215.84,351.48h0V352l.46,0,.05-.52.34.05-.08.52a3.58,3.58,0,0,1,.45.09l.13-.51.33.1-.16.49.44.16.2-.47.31.14-.24.47a3.3,3.3,0,0,1,.41.23l.28-.45.28.19-.3.43c.12.09.25.18.36.28l.35-.39.25.23-.37.37c.11.11.22.22.32.34l.4-.34.21.27-.42.31c.1.13.18.25.27.38l.44-.27a2.75,2.75,0,0,1,.17.29l-.45.25c.07.13.14.28.2.42l.48-.21.12.32-.5.18c0,.14.1.29.14.44l.51-.13c0,.11,0,.23.07.34l-.51.09c0,.16,0,.31.07.46l.51-.05v0c0,.11,0,.22,0,.34l-.52,0c0,.15,0,.31,0,.46l.53,0,0,.34-.52-.06a3.69,3.69,0,0,1-.08.46l.51.11c0,.11-.05.22-.08.33l-.5-.14-.15.44.49.18c0,.11-.09.22-.13.32l-.48-.22-.21.42.45.26-.18.29-.43-.29-.28.38.41.32a2.75,2.75,0,0,1-.22.26l-.39-.35a2.57,2.57,0,0,1-.33.33l.36.39-.26.22L219,361c-.12.09-.24.19-.37.27l.29.44-.29.18-.26-.46-.41.22.22.48-.32.13-.19-.49-.44.16.15.5-.33.08L217,362a3.54,3.54,0,0,1-.45.08l.06.52-.21,0h-.12l0-.52h-.47v.52l-.34,0,0-.52L215,362l-.09.52-.33-.07.12-.51-.44-.13-.17.5-.32-.12.19-.49-.42-.19-.24.46-.3-.17.27-.45a3.19,3.19,0,0,1-.38-.26l-.31.43-.27-.21.33-.4c-.12-.1-.23-.21-.34-.32l-.37.37a2.73,2.73,0,0,1-.23-.25l.39-.35a3.51,3.51,0,0,1-.29-.36l-.42.31a2.83,2.83,0,0,1-.2-.28l.44-.28-.23-.4-.46.24-.15-.31.48-.21c-.06-.14-.12-.29-.17-.44l-.5.17-.09-.33.5-.13c0-.15-.07-.3-.1-.46l-.51.09c0-.11,0-.22-.05-.34l.52-.05s0-.06,0-.08a2.55,2.55,0,0,1,0-.39h-.52c0-.11,0-.23,0-.34l.52,0a3.59,3.59,0,0,1,.05-.46l-.52-.07c0-.11,0-.22.05-.34l.51.11a3,3,0,0,1,.12-.45l-.5-.15c0-.11.06-.22.1-.33l.5.18a3.93,3.93,0,0,1,.18-.43l-.48-.22c.05-.1.1-.21.16-.31l.45.26c.08-.14.16-.27.25-.4l-.43-.29a2.83,2.83,0,0,1,.2-.28l.41.32.3-.35-.38-.36L212,353l.36.38c.11-.11.23-.21.35-.31l-.33-.41a2.83,2.83,0,0,1,.28-.2l.3.43a3.73,3.73,0,0,1,.39-.25l-.26-.46.3-.16.23.48.43-.19-.19-.49.33-.11.15.5a3.74,3.74,0,0,1,.45-.12l-.11-.51.34-.06.08.52.27,0h.19l0-.52h.32m-.1,2.7h.09a2.88,2.88,0,0,1,1.7.55l.68-.82a4,4,0,0,0-2.37-.8h-.2l.1,1.06m-2,.91a2.8,2.8,0,0,1,1.65-.87l-.1-1.07a4,4,0,0,0-2.38,1.25l.83.69m4.93,1.52,1.07-.1a3.94,3.94,0,0,0-1.26-2.37l-.68.82a2.89,2.89,0,0,1,.87,1.65m-2.7,0,1.35-1.63a2.57,2.57,0,0,0-1.49-.48h-.06l.2,2.1m-.36,0-.19-2.1a2.49,2.49,0,0,0-1.43.75l1.62,1.35m-3.72.6,1.07-.1a2.83,2.83,0,0,1,.55-1.78l-.82-.68a4,4,0,0,0-.8,2.56m4.35-.4,2.11-.2a2.53,2.53,0,0,0-.76-1.43l-1.35,1.63m-3,.27,2.11-.19-1.63-1.35a2.58,2.58,0,0,0-.48,1.54m5.7,2.32a3.94,3.94,0,0,0,.79-2.56l-1.07.1a2.83,2.83,0,0,1-.55,1.78l.83.68m-1.08-.89a2.46,2.46,0,0,0,.48-1.54l-2.1.19,1.62,1.35m-3.83.36,1.35-1.63-2.1.2a2.52,2.52,0,0,0,.75,1.43m2.18.67a2.55,2.55,0,0,0,1.43-.75l-1.63-1.35.2,2.1m-3.07.4.68-.82a2.89,2.89,0,0,1-.87-1.65l-1.06.1a3.9,3.9,0,0,0,1.25,2.37m2.65-.36h.06l-.2-2.11-1.34,1.63a2.54,2.54,0,0,0,1.48.48m.54,1.35a3.93,3.93,0,0,0,2.38-1.25l-.82-.69a2.83,2.83,0,0,1-1.65.87l.09,1.07m-.54,0H216l-.1-1.06h-.09a2.85,2.85,0,0,1-1.69-.55l-.68.82a3.93,3.93,0,0,0,2.37.8m0-10.05h-.35a.48.48,0,0,0-.27.09.52.52,0,0,0-.21,0h-.08l-.37.06a.52.52,0,0,0-.25.14.32.32,0,0,0-.13,0l-.16,0-.36.12a.58.58,0,0,0-.23.18h-.05a.46.46,0,0,0-.23.06l-.33.17a.45.45,0,0,0-.2.21.49.49,0,0,0-.28.09l-.3.22a.66.66,0,0,0-.17.24.5.5,0,0,0-.25.13l-.26.27a.5.5,0,0,0-.13.26.48.48,0,0,0-.23.17l-.22.3a.56.56,0,0,0-.1.27.58.58,0,0,0-.2.21c-.06.11-.12.22-.17.33a.58.58,0,0,0-.05.29.51.51,0,0,0-.17.23c0,.12-.08.24-.11.36a.53.53,0,0,0,0,.28.58.58,0,0,0-.13.26l-.06.37a.57.57,0,0,0,0,.29.48.48,0,0,0-.09.27,2.29,2.29,0,0,0,0,.37.54.54,0,0,0,.08.28.52.52,0,0,0-.05.28c0,.13,0,.25.05.37a.5.5,0,0,0,.13.26.57.57,0,0,0,0,.29c0,.12.07.24.11.36a.56.56,0,0,0,.16.24.55.55,0,0,0,0,.28,3.59,3.59,0,0,0,.17.34.48.48,0,0,0,.19.21.49.49,0,0,0,.09.28,2.73,2.73,0,0,0,.21.3.48.48,0,0,0,.22.18.5.5,0,0,0,.13.26l.25.27a.61.61,0,0,0,.26.15.46.46,0,0,0,.16.23l.29.23a.57.57,0,0,0,.27.11.66.66,0,0,0,.2.21l.33.18a.5.5,0,0,0,.24.06h0a.49.49,0,0,0,.22.18l.36.13a.47.47,0,0,0,.17,0l.11,0a.51.51,0,0,0,.26.14l.36.08h.09a.45.45,0,0,0,.2,0,.52.52,0,0,0,.27.1l.37,0h0a.5.5,0,0,0,.27-.07.54.54,0,0,0,.25.06h.17l.23,0a.54.54,0,0,0,.27-.11l.17,0h.12l.36-.09a.49.49,0,0,0,.24-.16h.09a.45.45,0,0,0,.2,0l.34-.14a.59.59,0,0,0,.22-.19h0a.53.53,0,0,0,.27-.08l.32-.19a.63.63,0,0,0,.18-.22.66.66,0,0,0,.27-.12l.28-.24a.54.54,0,0,0,.15-.25.64.64,0,0,0,.25-.15l.24-.29a.5.5,0,0,0,.11-.26.66.66,0,0,0,.22-.19l.19-.32a.55.55,0,0,0,.07-.28.51.51,0,0,0,.19-.22c.05-.11.1-.23.14-.34a.49.49,0,0,0,0-.29.58.58,0,0,0,.15-.25c0-.12.07-.24.09-.36a.64.64,0,0,1,.09-.56c0-.12,0-.24,0-.37a.67.67,0,0,0-.06-.28.64.64,0,0,0,.07-.28l0-.37a.56.56,0,0,0-.1-.28.57.57,0,0,0,0-.29c0-.12-.05-.25-.08-.37a.52.52,0,0,0-.14-.25.54.54,0,0,0,0-.28,3.65,3.65,0,0,0-.14-.35.5.5,0,0,0-.18-.23.48.48,0,0,0-.06-.28,3.37,3.37,0,0,0-.19-.32.51.51,0,0,0-.21-.2.6.6,0,0,0-.1-.27l-.24-.29a.63.63,0,0,0-.24-.16.52.52,0,0,0-.14-.25l-.28-.25a.68.68,0,0,0-.26-.12.49.49,0,0,0-.18-.22l-.31-.21a.57.57,0,0,0-.28-.08.48.48,0,0,0-.21-.19l-.34-.16a.54.54,0,0,0-.21-.05h-.08a.51.51,0,0,0-.24-.16l-.36-.1-.13,0-.16,0a.57.57,0,0,0-.26-.12l-.37,0h0a.46.46,0,0,0-.23.06.54.54,0,0,0-.28-.08Zm.39,2.72h0a3.29,3.29,0,0,1,1.19.36h0a3.32,3.32,0,0,0-1.18-.37Zm-2.51.71a3.23,3.23,0,0,1,1.1-.58h0a3.52,3.52,0,0,0-1.1.58Zm4.78.56h0a3.52,3.52,0,0,1,.58,1.1h0a3.32,3.32,0,0,0-.58-1.1Zm-2.12.34,0-.17.13,0-.11.13Zm-1.55,0,.12-.06,0,.18-.14-.12Zm-2.39,1.36a3.51,3.51,0,0,1,.37-1.19h0a3.19,3.19,0,0,0-.37,1.18Zm5-.47.12-.14.06.12-.18,0Zm-3.59.33s0-.08,0-.13l.14.12Zm5.33.93h0a3.3,3.3,0,0,1-.37,1.19h0a3.29,3.29,0,0,0,.36-1.19Zm-1.61.15h.18a.93.93,0,0,1,0,.13l-.14-.12Zm-3.59.34.18,0-.11.14-.07-.12Zm-1.43.13h0a3.32,3.32,0,0,0,.58,1.1h0a3.32,3.32,0,0,1-.58-1.1Zm4.13.8v-.18l.14.12-.13.06Zm-1.54.09.11-.13,0,.17-.13,0Zm1.68,1.35a3.36,3.36,0,0,0,1.09-.58h0a3.32,3.32,0,0,1-1.1.58Zm-2.6-.23h0a3.3,3.3,0,0,0,1.19.37h0a3.29,3.29,0,0,1-1.19-.36Z" />
  </g>
  <g id="Jewellery">
    <path class="GUNDAN_RAT_JEWELRY_RAT_JEWELRY_4_cls-8" d="M142.53,217.05a6,6,0,0,1-3.56,5.36c-3.39,1.57-7.73-.64-8.56-4.82s2.4-4.88,2.4-4.88a5.49,5.49,0,0,1,1.69,1.57c-.24,0-2.06,2.21-1.33,3.82s4.82-.29,5.17-1.9a11.51,11.51,0,0,1,1-2.69A24.2,24.2,0,0,1,142.53,217.05Z" />
    <path class="GUNDAN_RAT_JEWELRY_RAT_JEWELRY_4_cls-9" d="M132.49,221.28a3.54,3.54,0,0,1,3.27-1.28,4.56,4.56,0,0,1,3,2.51,2.69,2.69,0,0,1-2.74,3.35C132.55,226.08,131.84,223.16,132.49,221.28Z" />
    <path class="GUNDAN_RAT_JEWELRY_RAT_JEWELRY_4_cls-10" d="M135,221.54s1.59.64,1.6,1.8a2.52,2.52,0,0,1-.46,1.68s1.9-1.23,1.22-2.66S135,221.54,135,221.54Z" />
    <path class="GUNDAN_RAT_JEWELRY_RAT_JEWELRY_4_cls-11" d="M144,219.26c-.47-.8-1-1.54-1.45-2.21a24.2,24.2,0,0,0-3.16-3.54c-.49-.46-.91-.81-1.21-1" />
    <path class="GUNDAN_RAT_JEWELRY_RAT_JEWELRY_4_cls-12" d="M136.81,208.34a5.77,5.77,0,0,1-4.44,4.29c-3.49.79-7.1-2.17-7-6.25s3.24-4.08,3.24-4.08a11.78,11.78,0,0,0,.71,2.27,2.69,2.69,0,0,0-1.47,2.85c.35,1.66,4.57.71,5.23-.73a11.12,11.12,0,0,1,1.52-2.31A24.29,24.29,0,0,1,136.81,208.34Z" />
    <path class="GUNDAN_RAT_JEWELRY_RAT_JEWELRY_4_cls-13" d="M126.54,210.26a3.42,3.42,0,0,1,3.33-.54,4.4,4.4,0,0,1,2.26,3,2.58,2.58,0,0,1-3.25,2.58C125.62,214.77,125.54,211.88,126.54,210.26Z" />
    <path class="GUNDAN_RAT_JEWELRY_RAT_JEWELRY_4_cls-10" d="M128.82,211s1.36.92,1.13,2a2.45,2.45,0,0,1-.77,1.48s2-.77,1.68-2.24S128.82,211,128.82,211Z" />
    <path class="GUNDAN_RAT_JEWELRY_RAT_JEWELRY_4_cls-14" d="M137.71,210.71c-.28-.85-.59-1.64-.91-2.37a23.62,23.62,0,0,0-2.23-4c-.37-.53-.69-.94-.93-1.23" />
  </g>
</svg>