<svg xmlns="http://www.w3.org/2000/svg" viewBox="0 0 432 432">
  <defs>
    <style>.GUNDAN_RAT_JEWELRY_RAT_JEWELRY_1_cls-1{fill:#6d2316;stroke-width:1.22px;}.GUNDAN_RAT_JEWELRY_RAT_JEWELRY_1_cls-1,.GUNDAN_RAT_JEWELRY_RAT_JEWELRY_1_cls-3,.GUNDAN_RAT_JEWELRY_RAT_JEWELRY_1_cls-4,.GUNDAN_RAT_JEWELRY_RAT_JEWELRY_1_cls-6,.GUNDAN_RAT_JEWELRY_RAT_JEWELRY_1_cls-7{stroke:#000;}.GUNDAN_RAT_JEWELRY_RAT_JEWELRY_1_cls-1,.GUNDAN_RAT_JEWELRY_RAT_JEWELRY_1_cls-3,.GUNDAN_RAT_JEWELRY_RAT_JEWELRY_1_cls-4,.GUNDAN_RAT_JEWELRY_RAT_JEWELRY_1_cls-7{stroke-linecap:round;stroke-linejoin:round;}.GUNDAN_RAT_JEWELRY_RAT_JEWELRY_1_cls-2{fill:#e3a92b;}.GUNDAN_RAT_JEWELRY_RAT_JEWELRY_1_cls-3,.GUNDAN_RAT_JEWELRY_RAT_JEWELRY_1_cls-4{fill:none;}.GUNDAN_RAT_JEWELRY_RAT_JEWELRY_1_cls-3{stroke-width:0.49px;}.GUNDAN_RAT_JEWELRY_RAT_JEWELRY_1_cls-4{stroke-width:0.4px;}.GUNDAN_RAT_JEWELRY_RAT_JEWELRY_1_cls-5{fill:#b9876e;}.GUNDAN_RAT_JEWELRY_RAT_JEWELRY_1_cls-6{fill:#85432d;stroke-miterlimit:10;stroke-width:0.76px;}.GUNDAN_RAT_JEWELRY_RAT_JEWELRY_1_cls-7{fill:#ffc33e;stroke-width:1.62px;}</style>
  </defs>
  <g id="Necklace">
    <line class="GUNDAN_RAT_JEWELRY_RAT_JEWELRY_1_cls-1" x1="211.03" y1="347.21" x2="211.07" y2="351.03" />
    <path class="GUNDAN_RAT_JEWELRY_RAT_JEWELRY_1_cls-2" d="M203.87,359.58c3.25,1.17,4.84-.86,4.84-.86l-1.29,3.87A32.07,32.07,0,0,1,203.87,359.58Z" />
    <path class="GUNDAN_RAT_JEWELRY_RAT_JEWELRY_1_cls-2" d="M211.54,366.94c7.26-4.57,10.56-10.56,10.54-14.35a4.08,4.08,0,0,0-2.05-3.82,5.5,5.5,0,0,0-2.7-.78c-3.1,0-5.07,3.33-5.08,3.35l0,.07-.72,1-.42.56-1.14-1.53,0-.07s-2-3.35-5.08-3.35a5.56,5.56,0,0,0-2.71.78,4.09,4.09,0,0,0-2,3.82c0,3.87,3.42,10,11,14.65Zm9-19.22c5.7,3.22,2,14.19-9.48,20.88-11.51-6.69-15.19-17.66-9.49-20.88s9.26,3,9.26,3l.23.3.22-.3S214.86,344.51,220.55,347.72Z" />
    <path class="GUNDAN_RAT_JEWELRY_RAT_JEWELRY_1_cls-3" d="M220.55,347.72c-5.69-3.21-9.26,3-9.26,3l-.22.3-.23-.3s-3.56-6.22-9.26-3-2,14.19,9.49,20.88C222.58,361.91,226.25,350.94,220.55,347.72Z" />
    <path class="GUNDAN_RAT_JEWELRY_RAT_JEWELRY_1_cls-3" d="M211.54,366.94l-.47.3c-7.59-4.61-11-10.78-11-14.65a4.09,4.09,0,0,1,2-3.82,5.56,5.56,0,0,1,2.71-.78c3.12,0,5.06,3.32,5.08,3.35l0,.07,1.14,1.53.42-.56.72-1,0-.07s2-3.35,5.08-3.35a5.5,5.5,0,0,1,2.7.78,4.08,4.08,0,0,1,2.05,3.82C222.1,356.38,218.8,362.37,211.54,366.94Z" />
    <polyline class="GUNDAN_RAT_JEWELRY_RAT_JEWELRY_1_cls-3" points="211.49 352.38 212.15 354.49 210.48 356.7 211.31 358.48 208.71 363.23 211.92 365.64 211.54 366.94" />
    <path class="GUNDAN_RAT_JEWELRY_RAT_JEWELRY_1_cls-4" d="M208.71,358.72s-1.59,2-4.84.86a32.07,32.07,0,0,0,3.55,3Z" />
    <path class="GUNDAN_RAT_JEWELRY_RAT_JEWELRY_1_cls-2" d="M205.38,355.68a1.51,1.51,0,1,1,1.43-1.51A1.47,1.47,0,0,1,205.38,355.68Z" />
    <path d="M205.38,352.81a1.36,1.36,0,1,1-1.28,1.36,1.32,1.32,0,0,1,1.28-1.36m0-.3a1.67,1.67,0,1,0,1.58,1.66,1.62,1.62,0,0,0-1.58-1.66Z" />
    <path class="GUNDAN_RAT_JEWELRY_RAT_JEWELRY_1_cls-2" d="M205.38,355.59a1.42,1.42,0,1,1,1.34-1.42A1.38,1.38,0,0,1,205.38,355.59Z" />
    <path d="M205.38,352.91a1.27,1.27,0,1,1-1.18,1.26,1.22,1.22,0,0,1,1.18-1.26m0-.3a1.57,1.57,0,1,0,1.49,1.56,1.53,1.53,0,0,0-1.49-1.56Z" />
    <path class="GUNDAN_RAT_JEWELRY_RAT_JEWELRY_1_cls-2" d="M205,358.87l-.47-.07a.15.15,0,0,1-.12-.17l.09-.52a3.16,3.16,0,0,1-.52-.17l-.2.47a.11.11,0,0,1-.08.08h-.12a2.82,2.82,0,0,1-.42-.23.15.15,0,0,1-.06-.2l.25-.46a3,3,0,0,1-.45-.35l-.32.38a.16.16,0,0,1-.11.05h0a.12.12,0,0,1-.1,0,2.82,2.82,0,0,1-.33-.36.15.15,0,0,1,0-.21l.37-.34a3.74,3.74,0,0,1-.32-.49l-.42.24-.08,0h0a.16.16,0,0,1-.09-.07,4.43,4.43,0,0,1-.2-.45.15.15,0,0,1,.08-.2l.45-.2a3.83,3.83,0,0,1-.16-.58l-.5.09a.11.11,0,0,1-.08,0,.14.14,0,0,1-.07-.1c0-.16,0-.33-.05-.49a.15.15,0,0,1,.14-.16l.48,0v-.09a4.36,4.36,0,0,1,0-.51l-.47-.08a.17.17,0,0,1-.13-.18c0-.16.06-.32.1-.48a.16.16,0,0,1,.08-.1l.07,0h0l.46.13a4.48,4.48,0,0,1,.21-.55l-.43-.25a.16.16,0,0,1-.06-.2c.08-.15.16-.29.25-.43a.18.18,0,0,1,.1-.07h0a.16.16,0,0,1,.09,0l.39.29a3.16,3.16,0,0,1,.37-.45l-.34-.39a.15.15,0,0,1,0-.21c.11-.11.24-.22.36-.32l.09,0h0a.14.14,0,0,1,.1.07l.28.4a4.09,4.09,0,0,1,.48-.29l-.2-.48a.16.16,0,0,1,.08-.2,3.38,3.38,0,0,1,.44-.18h.05l.07,0a.13.13,0,0,1,.07.09l.15.49a3.45,3.45,0,0,1,.54-.11l0-.52a.15.15,0,0,1,.14-.16l.38,0a.27.27,0,0,1,.15.05s.09.06.09.11v.52a5,5,0,0,1,.54.07l.12-.5a.13.13,0,0,1,.07-.09.11.11,0,0,1,.08,0h0a4,4,0,0,1,.45.15.16.16,0,0,1,.09.19l-.18.49a4.82,4.82,0,0,1,.5.27l.26-.43a.14.14,0,0,1,.1-.07h0l.09,0,.38.3a.15.15,0,0,1,0,.21l-.31.41a5.23,5.23,0,0,1,.39.42l.37-.31a.13.13,0,0,1,.1,0h0a.17.17,0,0,1,.1.06,3.62,3.62,0,0,1,.27.41.16.16,0,0,1-.05.21l-.41.27a5.38,5.38,0,0,1,.24.55l.45-.17h.05l.07,0a.12.12,0,0,1,.08.09c0,.15.09.31.13.48a.15.15,0,0,1-.11.18l-.48.11a4.09,4.09,0,0,1,.07.6h.48a.15.15,0,0,1,.15.15c0,.18,0,.35,0,.51a.17.17,0,0,1-.06.1.18.18,0,0,1-.1,0l-.49-.06a3.86,3.86,0,0,1-.12.59l.46.17a.14.14,0,0,1,.09.19c-.05.16-.11.31-.17.46a.14.14,0,0,1-.09.08h-.12l-.43-.22a4.27,4.27,0,0,1-.3.51l.39.33a.15.15,0,0,1,0,.2c-.1.13-.2.26-.31.38a.16.16,0,0,1-.11.05h0a.16.16,0,0,1-.11-.05l-.35-.35a3.79,3.79,0,0,1-.42.38l.27.44a.15.15,0,0,1,0,.2,4.65,4.65,0,0,1-.41.26h-.12a.18.18,0,0,1-.09-.08l-.22-.46a3.33,3.33,0,0,1-.52.21l.12.51a.15.15,0,0,1-.1.18l-.47.1h0a.14.14,0,0,1-.09,0,.15.15,0,0,1-.06-.1l-.07-.52-.39,0h-.16l0,.52a.12.12,0,0,1-.05.1.13.13,0,0,1-.1,0Zm.36-7.87a3.18,3.18,0,1,0,3,3.17A3.08,3.08,0,0,0,205.38,351Z" />
    <path d="M205.38,349.61h.1l0,.67a3.6,3.6,0,0,1,.81.12l.16-.65.43.14-.22.63a3.49,3.49,0,0,1,.74.39l.34-.56.37.28-.4.52a4.27,4.27,0,0,1,.57.63l.5-.42c.09.13.18.26.26.4l-.53.36a3.94,3.94,0,0,1,.35.78l.59-.22a3.62,3.62,0,0,1,.13.47l-.61.15a4.12,4.12,0,0,1,.09.86h.63a3.75,3.75,0,0,1,0,.48l-.62-.07a4.11,4.11,0,0,1-.18.86l.6.21a4.7,4.7,0,0,1-.17.45l-.57-.28a4.93,4.93,0,0,1-.43.74l.49.41c-.09.13-.19.25-.29.37l-.46-.47a3.72,3.72,0,0,1-.63.56l.35.56-.39.24-.29-.59a3.42,3.42,0,0,1-.77.3l.16.65-.45.1-.09-.67a3,3,0,0,1-.52,0h-.3l-.05.67-.45-.07.12-.66a3.39,3.39,0,0,1-.78-.25l-.26.61a3.11,3.11,0,0,1-.4-.22l.31-.58a4.14,4.14,0,0,1-.66-.51l-.43.49c-.11-.11-.22-.23-.32-.35l.48-.44a4.16,4.16,0,0,1-.47-.71l-.56.32c-.07-.14-.13-.29-.19-.44l.58-.26a3.75,3.75,0,0,1-.22-.83l-.63.11c0-.16,0-.32-.05-.48l.63,0c0-.08,0-.16,0-.24a4.34,4.34,0,0,1,.05-.63l-.62-.11c0-.16.06-.32.1-.48l.61.18a4,4,0,0,1,.3-.81l-.55-.31a3.5,3.5,0,0,1,.24-.42l.52.38a3.74,3.74,0,0,1,.53-.66l-.42-.49.34-.31.38.54a4,4,0,0,1,.71-.44l-.26-.61a3.83,3.83,0,0,1,.43-.17l.19.63a3.66,3.66,0,0,1,.8-.16l0-.67.36,0m0,7.89a3.34,3.34,0,1,0-3.13-3.33,3.23,3.23,0,0,0,3.13,3.33m0-8.19H205a.32.32,0,0,0-.28.33l0,.38-.27.06-.11-.35a.27.27,0,0,0-.15-.18.23.23,0,0,0-.14,0l-.1,0a3.52,3.52,0,0,0-.45.18.31.31,0,0,0-.16.39l.15.36-.25.15-.2-.28a.28.28,0,0,0-.2-.13h-.05a.3.3,0,0,0-.18.06l-.38.33a.31.31,0,0,0,0,.42l.24.29a1.55,1.55,0,0,0-.19.24l-.27-.2a.32.32,0,0,0-.18-.06h-.06a.35.35,0,0,0-.2.14c-.09.14-.17.29-.25.44a.31.31,0,0,0,.12.4l.31.18-.12.31-.31-.1h-.09a.28.28,0,0,0-.15,0,.3.3,0,0,0-.14.19,4,4,0,0,0-.11.5.32.32,0,0,0,.25.35l.34.06c0,.11,0,.22,0,.33l-.34,0a.31.31,0,0,0-.28.32c0,.17,0,.35,0,.51a.31.31,0,0,0,.13.2.27.27,0,0,0,.17.06h.06l.32-.06.09.32-.32.14a.31.31,0,0,0-.16.39c.06.16.13.31.2.46a.33.33,0,0,0,.19.16h.08a.29.29,0,0,0,.16,0l.28-.17.18.27L202,357a.31.31,0,0,0,0,.42c.11.13.22.25.34.37a.32.32,0,0,0,.21.08h0a.29.29,0,0,0,.22-.1l.23-.26.23.18L203,358a.29.29,0,0,0,.11.4,4.63,4.63,0,0,0,.43.24l.13,0a.2.2,0,0,0,.11,0,.3.3,0,0,0,.17-.16l.14-.34.27.09-.07.38a.3.3,0,0,0,.24.35,4,4,0,0,0,.48.07h0a.31.31,0,0,0,.2-.07.28.28,0,0,0,.1-.21l0-.37h.28l.05.37a.28.28,0,0,0,.12.2.28.28,0,0,0,.18.06h0l.47-.1a.31.31,0,0,0,.22-.37l-.09-.37.27-.11.15.32a.28.28,0,0,0,.18.16l.1,0a.33.33,0,0,0,.14,0l.42-.26a.31.31,0,0,0,.09-.41l-.2-.33.22-.19.24.24a.31.31,0,0,0,.22.09h0a.29.29,0,0,0,.22-.1,4.16,4.16,0,0,0,.32-.39.31.31,0,0,0,0-.41l-.29-.24c.06-.09.11-.18.16-.27l.3.14a.33.33,0,0,0,.14,0l.1,0a.29.29,0,0,0,.17-.17c.07-.15.13-.31.19-.47a.31.31,0,0,0-.19-.38l-.33-.12c0-.11,0-.22.07-.33l.33,0h0a.37.37,0,0,0,.2-.07.31.31,0,0,0,.11-.21c0-.16,0-.34,0-.51a.3.3,0,0,0-.3-.31h-.34l0-.34.33-.08a.31.31,0,0,0,.23-.36,4.5,4.5,0,0,0-.14-.49.3.3,0,0,0-.15-.18.32.32,0,0,0-.14,0,.18.18,0,0,0-.1,0l-.31.11c0-.1-.09-.2-.14-.3l.31-.2a.3.3,0,0,0,.09-.4,4,4,0,0,0-.28-.43.32.32,0,0,0-.2-.12h0a.26.26,0,0,0-.19.07l-.26.22-.21-.23.23-.3a.3.3,0,0,0,0-.41,3.9,3.9,0,0,0-.4-.31.26.26,0,0,0-.17-.05h-.06a.35.35,0,0,0-.2.14l-.18.3-.26-.14.13-.36a.31.31,0,0,0-.18-.38l-.46-.16h-.08a.32.32,0,0,0-.3.24l-.08.36-.28,0v-.38a.3.3,0,0,0-.3-.31Zm0,7.89a3,3,0,1,1,2.83-3,2.93,2.93,0,0,1-2.83,3Z" />
    <path class="GUNDAN_RAT_JEWELRY_RAT_JEWELRY_1_cls-5" d="M218,353.11a.94.94,0,1,1,.89-.94A.92.92,0,0,1,218,353.11Z" />
    <path d="M218,351.31a.86.86,0,1,1-.81.86.84.84,0,0,1,.81-.86m0-.16a1,1,0,1,0,1,1,1,1,0,0,0-1-1Z" />
    <path class="GUNDAN_RAT_JEWELRY_RAT_JEWELRY_1_cls-5" d="M217.67,355a.07.07,0,0,1-.06-.09l0-.18a2,2,0,0,1-.33-.08l-.06.17s0,0,0,0h-.06l-.17-.07a.07.07,0,0,1,0-.1l.07-.17a1.49,1.49,0,0,1-.3-.18l-.1.15a.09.09,0,0,1,0,0h-.06l-.15-.12a.09.09,0,0,1,0-.11l.11-.14a3.07,3.07,0,0,1-.25-.26l-.12.11,0,0h0l0,0-.12-.16a.09.09,0,0,1,0-.11l.14-.1a3.24,3.24,0,0,1-.17-.32l-.15.07h-.06a.07.07,0,0,1,0-.05,1,1,0,0,1-.07-.18.09.09,0,0,1,.05-.1l.15,0c0-.12-.06-.24-.08-.37l-.17,0-.05,0a.05.05,0,0,1,0-.05,1.23,1.23,0,0,1,0-.19.08.08,0,0,1,.07-.09h.17a.38.38,0,0,1,0-.1,2.45,2.45,0,0,1,0-.27l-.16,0a.07.07,0,0,1-.07-.09l0-.19a.05.05,0,0,1,0,0h.05l.17,0a2,2,0,0,1,.11-.35l-.16-.07a.1.1,0,0,1,0-.1l.08-.18a.1.1,0,0,1,0,0h.06l.14.08a2.36,2.36,0,0,1,.2-.31l-.14-.12a.09.09,0,0,1,0-.11l.12-.14a.09.09,0,0,1,.06,0h0l.06,0,.12.12a2,2,0,0,1,.26-.24l-.1-.15a.08.08,0,0,1,0-.11l.16-.1,0,0h0a.1.1,0,0,1,.05,0l.09.15.3-.15,0-.18a.07.07,0,0,1,0-.1l.18-.05h.06a.1.1,0,0,1,0,.05l0,.17a2,2,0,0,1,.34-.06v-.18s0,0,0-.06l0,0H218a.07.07,0,0,1,.08.08v.17l.34,0,0-.17a.1.1,0,0,1,0-.05l0,0,.2.05a.08.08,0,0,1,.05.1l0,.17a1.73,1.73,0,0,1,.31.14l.08-.16a.1.1,0,0,1,.05,0h.06l.16.09a.09.09,0,0,1,0,.11l-.09.15a2.76,2.76,0,0,1,.27.23l.11-.13.06,0h0l.06,0,.13.14a.09.09,0,0,1,0,.11l-.12.12.21.3.14-.09,0,0h0a.05.05,0,0,1,.05,0l.09.17a.09.09,0,0,1,0,.11l-.15.08a2.3,2.3,0,0,1,.12.34l.16,0h.06l0,.05a1.62,1.62,0,0,1,0,.19.08.08,0,0,1-.06.1l-.16,0a2.33,2.33,0,0,1,0,.37h.16l.06,0a.14.14,0,0,1,0,.06,1.27,1.27,0,0,1,0,.2.14.14,0,0,1,0,.06l-.05,0-.17,0-.06.37.16,0a.08.08,0,0,1,.05.1,1.21,1.21,0,0,1-.05.18.1.1,0,0,1,0,.05h-.07l-.15-.06a2.07,2.07,0,0,1-.15.34l.15.09a.09.09,0,0,1,0,.11,1.4,1.4,0,0,1-.1.16.05.05,0,0,1,0,0h-.06l-.14-.1a1.93,1.93,0,0,1-.22.28l.11.13a.08.08,0,0,1,0,.11l-.14.13,0,0h0a.1.1,0,0,1,0,0l-.1-.13-.29.2.08.16a.09.09,0,0,1,0,.11l-.17.08h-.06a.1.1,0,0,1-.05,0l-.06-.16-.33.11,0,.18a.09.09,0,0,1-.06.09l-.2,0h0l0-.06,0-.17h-.39l0,.18a.05.05,0,0,1,0,.05s0,0,0,0Zm.37-4.83a2,2,0,1,0,1.88,2A1.95,1.95,0,0,0,218,350.16Z" />
    <path d="M218,349.4v.25h0a2.42,2.42,0,0,1,.47.05l.05-.25.17.05-.06.25a2.23,2.23,0,0,1,.45.18l.11-.23.16.1-.13.22a2.31,2.31,0,0,1,.39.31l.16-.19.13.13-.18.18a2,2,0,0,1,.29.41l.21-.14.09.17-.22.12a2.07,2.07,0,0,1,.18.47l.23-.07c0,.06,0,.13.05.19l-.24,0a2.94,2.94,0,0,1,.05.51h.24v.19l-.25,0a3,3,0,0,1-.08.51l.24.07-.06.18-.23-.09a1.92,1.92,0,0,1-.21.46l.21.14-.1.16-.19-.15a2.38,2.38,0,0,1-.32.38l.16.19-.13.13-.15-.2a2.29,2.29,0,0,1-.41.28l.12.23-.16.08-.1-.24a1.93,1.93,0,0,1-.46.16l0,.25-.18,0,0-.25-.32,0h-.16l0,.26-.18,0,0-.25a3.23,3.23,0,0,1-.47-.12l-.08.24-.17-.07.1-.23a2.26,2.26,0,0,1-.42-.26l-.14.21-.14-.11.15-.2a2.31,2.31,0,0,1-.34-.36l-.19.16-.11-.15.2-.15a3.21,3.21,0,0,1-.24-.45l-.22.1s-.05-.11-.07-.17l.23-.09a2.61,2.61,0,0,1-.11-.5l-.24,0a1.23,1.23,0,0,1,0-.19l.24,0c0-.06,0-.11,0-.17a1.87,1.87,0,0,1,0-.34l-.24,0a.57.57,0,0,1,0-.18l.23.05a2.13,2.13,0,0,1,.15-.49l-.22-.1c0-.06,0-.12.07-.17l.22.11a2.73,2.73,0,0,1,.26-.43l-.18-.16a1.34,1.34,0,0,1,.11-.14l.18.18a2.31,2.31,0,0,1,.36-.34l-.14-.21.15-.11.13.22a2.18,2.18,0,0,1,.43-.22l-.08-.24.17-.06.07.25a1.86,1.86,0,0,1,.47-.09l0-.26H218m0,4.85a2.08,2.08,0,1,0-2-2.08,2,2,0,0,0,2,2.08m0-5h-.19a.15.15,0,0,0-.14.16v.11l-.19,0,0-.1a.18.18,0,0,0-.07-.1l-.08,0h-.05l-.18.06a.16.16,0,0,0-.09.2l0,.1-.19.09,0-.08a.18.18,0,0,0-.1-.07h0a.16.16,0,0,0-.09,0l-.15.11a.15.15,0,0,0,0,.21l.06.09-.15.15-.07-.06a.16.16,0,0,0-.11-.05h0a.17.17,0,0,0-.12.05l-.12.16a.16.16,0,0,0,0,.21l.08.07-.12.19-.07,0a.11.11,0,0,0-.08,0h0a.14.14,0,0,0-.1.08,1.42,1.42,0,0,0-.08.18.15.15,0,0,0,.08.2l.09,0a1.87,1.87,0,0,0-.07.22l-.08,0h0a.16.16,0,0,0-.09,0,.14.14,0,0,0-.07.1l0,.19a.16.16,0,0,0,.13.18h.09c0,.07,0,.14,0,.21v0h-.08a.16.16,0,0,0-.15.17c0,.07,0,.13,0,.2a.17.17,0,0,0,.06.1.13.13,0,0,0,.1,0h0l.09,0a1.89,1.89,0,0,0,.05.23l-.09,0a.17.17,0,0,0-.1.2l.07.18a.16.16,0,0,0,.09.09h.13l.07,0a1.28,1.28,0,0,0,.11.2l-.08.06a.16.16,0,0,0,0,.22l.11.15a.19.19,0,0,0,.11.07h0a.18.18,0,0,0,.1,0l.07-.06a1.07,1.07,0,0,0,.14.16l-.06.08a.17.17,0,0,0,0,.22l.15.12a.17.17,0,0,0,.1,0h0a.16.16,0,0,0,.11-.07l.05-.08.18.11-.05.1a.16.16,0,0,0,.08.2l.18.08h.06l.07,0a.24.24,0,0,0,.08-.09l0-.09.19.05v.1a.16.16,0,0,0,.13.18l.19,0h0a.15.15,0,0,0,.11,0,.16.16,0,0,0,.05-.11v-.1h.19l0,.1a.13.13,0,0,0,.06.11l.09,0h0l.18,0a.15.15,0,0,0,.12-.19l0-.1.19-.07,0,.09a.2.2,0,0,0,.09.09h.06l.06,0,.17-.08a.16.16,0,0,0,.07-.21l0-.1.17-.12.06.07a.11.11,0,0,0,.1.06h0a.15.15,0,0,0,.1,0l.15-.13a.16.16,0,0,0,0-.22l-.07-.08a2.09,2.09,0,0,0,.14-.17l.07.05a.16.16,0,0,0,.09,0h0a.19.19,0,0,0,.11-.07l.1-.16a.17.17,0,0,0-.05-.22l-.09-.05a2,2,0,0,0,.1-.21l.08,0h.12a.14.14,0,0,0,.08-.09l.06-.19a.17.17,0,0,0-.11-.2l-.09,0a1.85,1.85,0,0,0,0-.23h.1a.21.21,0,0,0,.1,0,.16.16,0,0,0,0-.11,1.41,1.41,0,0,0,0-.2.18.18,0,0,0-.05-.12.16.16,0,0,0-.11-.05h-.09a2,2,0,0,0,0-.23l.09,0a.16.16,0,0,0,.12-.18c0-.07,0-.13,0-.2a.14.14,0,0,0-.08-.09.11.11,0,0,0-.08,0h0l-.08,0c0-.08,0-.15-.08-.22l.08,0a.16.16,0,0,0,.07-.21l-.09-.18a.18.18,0,0,0-.1-.07h0l-.09,0-.07.05-.13-.18.08-.08a.15.15,0,0,0,0-.21l-.14-.14a.16.16,0,0,0-.11,0h0a.14.14,0,0,0-.12.06l-.06.06-.16-.13.05-.09a.16.16,0,0,0-.05-.22l-.16-.09a.12.12,0,0,0-.08,0h0a.2.2,0,0,0-.09.09l0,.08-.19-.08,0-.1a.15.15,0,0,0-.11-.19l-.18-.05h0a.15.15,0,0,0-.09,0,.13.13,0,0,0-.06.1l0,.1-.2,0v-.1a.17.17,0,0,0-.05-.12.21.21,0,0,0-.11,0Zm0,4.85a1.93,1.93,0,1,1,1.8-1.92,1.87,1.87,0,0,1-1.8,1.92Z" />
    <path class="GUNDAN_RAT_JEWELRY_RAT_JEWELRY_1_cls-5" d="M214.89,357.58a.94.94,0,1,1,.89-.94A.92.92,0,0,1,214.89,357.58Z" />
    <path d="M214.89,355.78a.86.86,0,1,1-.81.86.84.84,0,0,1,.81-.86m0-.16a1,1,0,0,0,0,2,1,1,0,0,0,0-2Z" />
    <path class="GUNDAN_RAT_JEWELRY_RAT_JEWELRY_1_cls-5" d="M214.52,359.46a.07.07,0,0,1-.06-.09l0-.18-.33-.08-.06.16a.07.07,0,0,1,0,.05H214l-.17-.07a.07.07,0,0,1,0-.1l.07-.17a1.49,1.49,0,0,1-.3-.18l-.1.15a.05.05,0,0,1,0,0h-.06l-.15-.12a.09.09,0,0,1,0-.11l.11-.14a3.07,3.07,0,0,1-.25-.26l-.12.11,0,0h0a.09.09,0,0,1-.05,0l-.12-.16a.09.09,0,0,1,0-.11l.14-.1a3.24,3.24,0,0,1-.17-.32l-.15.07h-.06a.07.07,0,0,1,0-.05,1,1,0,0,1-.07-.18.09.09,0,0,1,0-.1l.15-.06a3.21,3.21,0,0,1-.08-.36l-.17,0-.05,0a.05.05,0,0,1,0-.05,1.36,1.36,0,0,1,0-.2.08.08,0,0,1,.07-.08h.17a.38.38,0,0,1,0-.1,2.45,2.45,0,0,1,0-.27l-.16,0a.07.07,0,0,1-.07-.09l0-.19a.05.05,0,0,1,0-.05h.05l.17,0a2,2,0,0,1,.11-.35l-.16-.07a.08.08,0,0,1,0-.1l.08-.18a.1.1,0,0,1,.05,0h.06l.14.08a2.32,2.32,0,0,1,.19-.31l-.13-.12a.09.09,0,0,1,0-.11l.12-.14.06,0h0l.06,0,.12.12a1.48,1.48,0,0,1,.26-.24l-.1-.15a.08.08,0,0,1,0-.11l.16-.1,0,0h0a.1.1,0,0,1,0,0l.09.15a2.85,2.85,0,0,1,.3-.16l-.05-.17a.07.07,0,0,1,0-.1l.18-.06h.06a.1.1,0,0,1,0,.05l0,.17a1.86,1.86,0,0,1,.34-.06v-.18a.07.07,0,0,1,0-.06l.06,0h.18a.07.07,0,0,1,.08.08V354l.34,0,0-.17a.1.1,0,0,1,0-.05l0,0,.2.05a.08.08,0,0,1,0,.1l0,.17a1.73,1.73,0,0,1,.31.14l.08-.16a.07.07,0,0,1,.05,0h.06l.16.1a.08.08,0,0,1,0,.11l-.09.15.28.22.11-.12.06,0h0l.06,0,.13.14a.09.09,0,0,1,0,.11l-.12.12c.07.1.14.19.21.3l.14-.09,0,0h0a.05.05,0,0,1,.05,0l.09.17a.09.09,0,0,1,0,.11l-.15.08a2.3,2.3,0,0,1,.12.34l.16,0h.06a.1.1,0,0,1,0,.05,1.62,1.62,0,0,1,0,.19.07.07,0,0,1-.06.09l-.16,0c0,.12,0,.25,0,.37h.16l.06,0a.14.14,0,0,1,0,.06,1.27,1.27,0,0,1,0,.2.14.14,0,0,1,0,.06l-.06,0-.16,0-.06.37.16.05a.08.08,0,0,1,.05.1,1.21,1.21,0,0,1-.05.18.1.1,0,0,1,0,.05h-.07l-.15-.06a2.07,2.07,0,0,1-.15.34l.14.09a.08.08,0,0,1,0,.11,1.4,1.4,0,0,1-.1.16.05.05,0,0,1-.05,0H217l-.14-.1a1.93,1.93,0,0,1-.22.28l.11.13a.08.08,0,0,1,0,.11l-.14.13-.05,0h0a.1.1,0,0,1-.05,0l-.1-.13-.29.2.08.16a.08.08,0,0,1,0,.11l-.16.08h-.06a.1.1,0,0,1-.05,0l-.06-.16-.33.11,0,.18a.09.09,0,0,1-.06.09l-.2,0a.06.06,0,0,1-.05,0l0-.05,0-.17h-.37l0,.18a.05.05,0,0,1,0,0l0,0Zm.37-4.83a2,2,0,1,0,1.88,2A1.95,1.95,0,0,0,214.89,354.63Z" />
    <path d="M214.88,353.87v.25h0a2.42,2.42,0,0,1,.47.05l0-.25.17.05-.06.25a2.23,2.23,0,0,1,.45.18l.11-.23.16.1-.13.22a1.91,1.91,0,0,1,.38.31l.17-.19.13.13-.18.18a2,2,0,0,1,.29.41l.21-.14.09.17-.22.12a2.07,2.07,0,0,1,.18.47l.23-.07c0,.06,0,.13.05.19l-.24.05a2.84,2.84,0,0,1,.05.51h.24a1.28,1.28,0,0,1,0,.19l-.24,0a3,3,0,0,1-.08.51l.24.06-.06.18-.23-.08a1.92,1.92,0,0,1-.21.46l.21.14-.1.16-.19-.15a2.38,2.38,0,0,1-.32.38l.16.19-.13.13-.15-.2a2.29,2.29,0,0,1-.41.28l.12.23-.16.08-.1-.24a2.51,2.51,0,0,1-.46.16l0,.25-.18,0,0-.25-.32,0h-.16l0,.26-.18,0,0-.25a3.23,3.23,0,0,1-.47-.12l-.08.24-.17-.07.1-.24a1.79,1.79,0,0,1-.42-.25l-.14.21-.15-.11.16-.2a2.31,2.31,0,0,1-.34-.36l-.19.16-.11-.15.2-.15a3.21,3.21,0,0,1-.24-.45l-.22.1c0-.05-.05-.11-.07-.17l.23-.09a2.61,2.61,0,0,1-.11-.5l-.24,0a1.23,1.23,0,0,1,0-.19l.24,0c0-.06,0-.11,0-.17a1.87,1.87,0,0,1,0-.34l-.24,0a.57.57,0,0,1,0-.18l.23.05a2,2,0,0,1,.15-.49l-.22-.1c0-.06.05-.12.07-.17l.22.11a2.73,2.73,0,0,1,.26-.43l-.19-.16.12-.14.18.18a2.31,2.31,0,0,1,.36-.34l-.14-.21.15-.11.13.22a2.18,2.18,0,0,1,.43-.22L214,354l.17-.06.07.25a1.86,1.86,0,0,1,.47-.09l0-.26h.18m0,4.85a2.09,2.09,0,1,0-2-2.08,2,2,0,0,0,2,2.08m0-5h-.19a.15.15,0,0,0-.14.16V354l-.19,0,0-.1a.18.18,0,0,0-.07-.1l-.08,0h-.05l-.18.06a.16.16,0,0,0-.09.2l0,.1-.19.09,0-.08a.18.18,0,0,0-.1-.07h0l-.09,0-.15.11a.15.15,0,0,0,0,.21l.06.09-.15.15-.07-.06a.16.16,0,0,0-.11-.05h0a.17.17,0,0,0-.12.05l-.12.16a.16.16,0,0,0,0,.21l.08.07-.12.19-.07,0a.11.11,0,0,0-.08,0h0a.2.2,0,0,0-.09.09,1.42,1.42,0,0,0-.08.18.15.15,0,0,0,.08.2l.09,0a1.87,1.87,0,0,0-.07.22l-.08,0h0a.14.14,0,0,0-.09,0,.14.14,0,0,0-.07.1l0,.19a.16.16,0,0,0,.13.18h.09c0,.07,0,.14,0,.21v0h-.08a.16.16,0,0,0-.15.17c0,.07,0,.13,0,.2a.17.17,0,0,0,.06.1.18.18,0,0,0,.1,0h.11a1.89,1.89,0,0,0,.05.23l-.09,0a.17.17,0,0,0-.1.2l.07.18a.16.16,0,0,0,.09.09h.13l.07,0a2,2,0,0,0,.11.2l-.08.06a.15.15,0,0,0,0,.21.91.91,0,0,0,.11.16.19.19,0,0,0,.11.07h0a.18.18,0,0,0,.1,0l.07-.06a1.07,1.07,0,0,0,.14.16l-.06.08a.17.17,0,0,0,0,.22l.15.12a.17.17,0,0,0,.1,0h0a.16.16,0,0,0,.11-.07l0-.08.18.11-.05.1a.16.16,0,0,0,.08.2l.18.08H214l.06,0a.2.2,0,0,0,.09-.09l0-.09.19.05v.1a.16.16,0,0,0,.13.18l.19,0h0a.15.15,0,0,0,.11,0,.16.16,0,0,0,.05-.11v-.1h.19l0,.1a.14.14,0,0,0,.06.11.14.14,0,0,0,.09,0h0l.18,0a.16.16,0,0,0,.12-.19l0-.1.19-.07,0,.09a.2.2,0,0,0,.09.09h.06l.06,0,.17-.08a.16.16,0,0,0,.07-.21l0-.1.17-.12.05.07a.14.14,0,0,0,.11.06h0a.15.15,0,0,0,.1,0l.15-.14a.14.14,0,0,0,0-.21l-.07-.08a2.09,2.09,0,0,0,.14-.17l.07.05.09,0h0a.19.19,0,0,0,.11-.07l.1-.16a.17.17,0,0,0-.05-.22l-.09-.05a2,2,0,0,0,.1-.21l.08,0h.12a.14.14,0,0,0,.08-.09l.06-.2a.16.16,0,0,0-.11-.19l-.09,0c0-.08,0-.16,0-.23h.09a.2.2,0,0,0,.11,0,.16.16,0,0,0,0-.11,1.41,1.41,0,0,0,0-.2.18.18,0,0,0-.05-.12.16.16,0,0,0-.11,0h-.09a1.79,1.79,0,0,0,0-.23l.09,0a.16.16,0,0,0,.12-.18c0-.07,0-.13,0-.2a.14.14,0,0,0-.08-.09.11.11,0,0,0-.08,0h0l-.08,0c0-.08-.05-.15-.08-.22l.08,0a.16.16,0,0,0,.07-.21l-.09-.18a.23.23,0,0,0-.1-.07h0l-.09,0-.07.05-.13-.18.08-.08a.15.15,0,0,0,0-.21l-.14-.14a.16.16,0,0,0-.11-.05h0a.16.16,0,0,0-.11.05l-.06.07-.16-.13.05-.09a.16.16,0,0,0-.05-.22l-.16-.09a.12.12,0,0,0-.08,0H216a.2.2,0,0,0-.09.09l0,.08-.19-.08,0-.1a.15.15,0,0,0-.11-.19l-.18-.05h0a.16.16,0,0,0-.09,0,.13.13,0,0,0-.06.1l0,.1-.2,0v-.1a.17.17,0,0,0,0-.12.15.15,0,0,0-.11,0Zm0,4.85a1.93,1.93,0,1,1,1.8-1.92,1.86,1.86,0,0,1-1.8,1.92Z" />
    <path class="GUNDAN_RAT_JEWELRY_RAT_JEWELRY_1_cls-5" d="M215.69,361.72a.55.55,0,1,1,.52-.55A.53.53,0,0,1,215.69,361.72Z" />
    <path d="M215.7,360.68a.5.5,0,1,1-.47.49.48.48,0,0,1,.47-.49m0-.09a.59.59,0,1,0,.55.58.57.57,0,0,0-.55-.58Z" />
    <path class="GUNDAN_RAT_JEWELRY_RAT_JEWELRY_1_cls-5" d="M215.59,362.81v0h-.1l0-.2-.08,0a.47.47,0,0,1-.16,0v.11h-.16l0-.2h0a.39.39,0,0,1-.19-.1l0,.11-.15-.06.08-.17c-.07,0-.13-.08-.19-.16l-.05.1-.13-.09.13-.15c-.07,0-.11-.11-.15-.2l-.07.08-.1-.13.16-.1c-.06,0-.08-.14-.1-.24l-.08.06-.06-.15.18-.06a.55.55,0,0,1,0-.26l-.1,0,0-.16h.19a.36.36,0,0,1,0-.26h-.11l0-.16.19.05a.28.28,0,0,1,.09-.23l-.1,0,.07-.14.16.1c0-.08.08-.14.15-.2l-.09-.06.1-.13.14.15a.27.27,0,0,1,.19-.15l-.07-.08.13-.09.09.17a.27.27,0,0,1,.23-.08l0-.1.14-.06.05.2a.15.15,0,0,1,.11,0l.13,0,0-.11h.16v.2h.05a.37.37,0,0,1,.19.07v-.11l.16,0-.06.19h0a.36.36,0,0,1,.2.12l0-.1.14.07-.1.17c.07,0,.12.09.17.18l.06-.1.11.12-.14.13a.36.36,0,0,1,.13.22l.07-.07.09.14-.17.08a.37.37,0,0,1,.06.25l.09-.05,0,.17-.18,0a.38.38,0,0,1,0,.26l.1,0v.16l-.19,0c0,.07,0,.16-.06.25h.1l0,.16-.18-.08c0,.07-.05.15-.13.22l.1.05-.08.13-.15-.12c0,.07-.09.13-.18.18l.09.07-.12.11-.12-.16c0,.06-.11.09-.21.11l.07.1-.14.07-.07-.19c0,.05-.08.06-.15.06l-.05.1,0,0Zm.1-2.79a1.16,1.16,0,1,0,1.09,1.15A1.12,1.12,0,0,0,215.69,360Z" />
    <path d="M215.69,359.58v.15h0l.27,0,0-.15.1,0,0,.14a1.19,1.19,0,0,1,.26.11l.06-.13.09.05-.07.13a1.24,1.24,0,0,1,.22.18l.1-.11a.46.46,0,0,0,.07.07l-.1.11a1.19,1.19,0,0,1,.16.23l.12-.08.05.1-.12.07a1.08,1.08,0,0,1,.1.27l.14,0s0,.07,0,.11l-.13,0a2.64,2.64,0,0,1,0,.29h.14v.11h-.14a1.35,1.35,0,0,1-.05.29l.14,0,0,.11-.13,0-.12.26.11.08a.41.41,0,0,1-.05.09l-.12-.08a1.24,1.24,0,0,1-.18.22l.1.11-.08.07-.09-.11a1.88,1.88,0,0,1-.23.16l.06.13-.09.05,0-.14a1.43,1.43,0,0,1-.27.09l0,.14-.1,0,0-.14h-.28v.14h-.1l0-.14-.27-.07-.05.14-.09,0,.05-.14-.24-.14-.08.12-.08-.07.09-.11-.2-.21-.11.09-.06-.09.12-.08a1.3,1.3,0,0,1-.14-.26l-.13.06a.42.42,0,0,0,0-.1l.14,0a1,1,0,0,1-.07-.29l-.14,0s0-.07,0-.11h.14v-.1a1.21,1.21,0,0,1,0-.19l-.14,0s0-.07,0-.11l.13,0a1.31,1.31,0,0,1,.09-.28l-.13-.06,0-.1.13.07a1.28,1.28,0,0,1,.15-.25l-.11-.09.07-.08.1.1a1.34,1.34,0,0,1,.21-.2l-.08-.12.08-.06.08.13.25-.13-.05-.14.1,0,0,.14.27,0v-.15h.1m0,2.79a1.2,1.2,0,1,0-1.13-1.2,1.16,1.16,0,0,0,1.13,1.2m0-2.88h-.11a.1.1,0,0,0-.08.1v.06l-.11,0v-.05a.1.1,0,0,0,0-.06h-.07l-.1,0a.09.09,0,0,0-.06.11l0,.06-.1.05,0,0-.05,0h0l0,0-.1.06a.11.11,0,0,0,0,.12l0,.06-.09.08,0,0-.06,0h0a.09.09,0,0,0-.07,0l-.07.08a.1.1,0,0,0,0,.13l.05,0a.41.41,0,0,0-.07.11l0,0h-.07a.07.07,0,0,0-.06,0s0,.07,0,.11a.08.08,0,0,0,0,.11l.05,0a.56.56,0,0,1,0,.12h-.06l0,0a.07.07,0,0,0,0,.05s0,.08,0,.12a.09.09,0,0,0,.08.1h.05s0,.07,0,.11v0h-.05a.1.1,0,0,0-.08.1s0,.08,0,.11a.1.1,0,0,0,0,.07h.11l0,.12-.05,0a.1.1,0,0,0-.05.12.42.42,0,0,0,0,.1.1.1,0,0,0,0,.06h.07l0,0,.06.12,0,0a.08.08,0,0,0,0,.12l.06.1.06,0h0l.06,0,0,0,.09.09,0,.05a.08.08,0,0,0,0,.12l.09.07.05,0h0l.06,0,0,0a.21.21,0,0,0,.1.06l0,.06a.11.11,0,0,0,.05.12l.1,0h.07s0,0,.05-.06l0-.05.11,0v.06a.09.09,0,0,0,.08.1h.11s0,0,.06,0a.07.07,0,0,0,0-.06v-.06h.11v.05a.15.15,0,0,0,0,.07h.07l.11,0a.08.08,0,0,0,.07-.1v-.06l.11,0,0,.05,0,.05h.07l.1-.05a.1.1,0,0,0,0-.12l0-.06.1-.07,0,.05a.07.07,0,0,0,.06,0h0l.06,0,.08-.08a.08.08,0,0,0,0-.12l0,0,.07-.09,0,0h.07a.07.07,0,0,0,.06,0,.24.24,0,0,0,.06-.09.08.08,0,0,0,0-.12l0,0a.54.54,0,0,1,.05-.11h.12a.07.07,0,0,0,0-.05.76.76,0,0,0,0-.11.09.09,0,0,0-.07-.11l0,0a.59.59,0,0,0,0-.13h.06a.07.07,0,0,0,.06,0,.09.09,0,0,0,0-.06v-.12a.11.11,0,0,0,0-.06.09.09,0,0,0-.07,0h-.05a.53.53,0,0,0,0-.13l.05,0a.08.08,0,0,0,.07-.1l0-.11a.07.07,0,0,0,0-.06h-.07l-.05,0,0-.13,0,0a.1.1,0,0,0,0-.12l-.06-.1a.1.1,0,0,0-.06-.05h0l-.05,0,0,0-.07-.1,0,0a.09.09,0,0,0,0-.13l-.08-.08-.06,0h0a.07.07,0,0,0-.06,0l0,0-.09-.08,0-.05a.11.11,0,0,0,0-.13l-.09-.05h-.08a.08.08,0,0,0,0,.05l0,0-.11,0v-.06a.08.08,0,0,0-.06-.11l-.1,0h0l-.05,0a.07.07,0,0,0,0,.06v0h-.12v-.06a.11.11,0,0,0,0-.06.09.09,0,0,0-.07,0Zm0,2.79a1.11,1.11,0,1,1,1-1.11,1.07,1.07,0,0,1-1,1.11Z" />
    <path class="GUNDAN_RAT_JEWELRY_RAT_JEWELRY_1_cls-6" d="M211,347.21l-.17,0A68.07,68.07,0,0,1,196,341c-10.15-5.76-16.51-13.27-18.39-21.72-.08-.37-.34-2.47,1.66-2.59,0,0,0,.16-.15.57a5.26,5.26,0,0,0,0,3c5.28,17.48,29.55,24.9,31.89,25.55,1.79-.56,17-5.71,24.3-21.66a9.44,9.44,0,0,0-.12-2.57,2.3,2.3,0,0,1,1.37,3.14c-8,17.49-25.19,22.42-25.36,22.46Z" />
  </g>
  <g id="Jewellery">
    <circle class="GUNDAN_RAT_JEWELRY_RAT_JEWELRY_1_cls-7" cx="138.98" cy="209.8" r="2.56" />
    <path class="GUNDAN_RAT_JEWELRY_RAT_JEWELRY_1_cls-7" d="M139,212.35s-3.37,33.36-3.37,41.79S139,264.59,139,264.59s3.38-2,3.38-10.45S139,212.35,139,212.35Z" />
  </g>
</svg>