<svg xmlns="http://www.w3.org/2000/svg" viewBox="0 0 432 432">
  <defs>
    <style>.GUNDAN_RAT_JEWELRY_RAT_JEWELRY_11_cls-1{fill:#0c0c0c;}.GUNDAN_RAT_JEWELRY_RAT_JEWELRY_11_cls-2,.GUNDAN_RAT_JEWELRY_RAT_JEWELRY_11_cls-7{fill:none;stroke:#000;stroke-linecap:round;stroke-linejoin:round;}.GUNDAN_RAT_JEWELRY_RAT_JEWELRY_11_cls-2{stroke-width:0.58px;}.GUNDAN_RAT_JEWELRY_RAT_JEWELRY_11_cls-3{fill:#ff9292;}.GUNDAN_RAT_JEWELRY_RAT_JEWELRY_11_cls-4{fill:#e22b2b;}.GUNDAN_RAT_JEWELRY_RAT_JEWELRY_11_cls-5{fill:#a00808;}.GUNDAN_RAT_JEWELRY_RAT_JEWELRY_11_cls-6{fill:#facf56;}.GUNDAN_RAT_JEWELRY_RAT_JEWELRY_11_cls-7{stroke-width:0.88px;}</style>
  </defs>
  <g id="Necklace">
    <path class="GUNDAN_RAT_JEWELRY_RAT_JEWELRY_11_cls-1" d="M237.71,319.94c.36,2-2.59,17.37-20,19.59-19.76,2.53-41.11-15.26-40.22-22.7,0,0,1.65-6.91,2.82-8.9l-.28,1.7c-.83,7,19.18,23.45,37.3,21.33,17-2,18.16-16.51,17.83-18.42l-.17-1.67A15.41,15.41,0,0,1,237.71,319.94Z" />
    <path class="GUNDAN_RAT_JEWELRY_RAT_JEWELRY_11_cls-2" d="M237.71,319.94c.36,2-2.59,17.37-20,19.59-19.76,2.53-41.11-15.26-40.22-22.7,0,0,1.65-6.91,2.82-8.9l-.28,1.7c-.83,7,19.18,23.45,37.3,21.33,17-2,18.16-16.51,17.83-18.42l-.17-1.67A15.41,15.41,0,0,1,237.71,319.94Z" />
    <ellipse cx="216.15" cy="335.57" rx="3.04" ry="4.74" />
    <polygon class="GUNDAN_RAT_JEWELRY_RAT_JEWELRY_11_cls-3" points="216.72 338.48 216.32 338.27 217 337.71 216.72 338.48" />
    <polygon class="GUNDAN_RAT_JEWELRY_RAT_JEWELRY_11_cls-4" points="215.98 338.27 215.3 337.71 215.57 338.48 215.98 338.27" />
    <polygon class="GUNDAN_RAT_JEWELRY_RAT_JEWELRY_11_cls-4" points="217.72 335.92 217.36 337.19 217.96 336.79 217.72 335.92" />
    <path class="GUNDAN_RAT_JEWELRY_RAT_JEWELRY_11_cls-3" d="M218.3,338.15a5.25,5.25,0,0,0,.33-.89l-.45-.26Z" />
    <path class="GUNDAN_RAT_JEWELRY_RAT_JEWELRY_11_cls-4" d="M218.85,335.26a6.32,6.32,0,0,0-.17-1.19l-.48.27Z" />
    <polygon class="GUNDAN_RAT_JEWELRY_RAT_JEWELRY_11_cls-3" points="217.36 333.94 217.72 335.22 217.96 334.35 217.36 333.94" />
    <path class="GUNDAN_RAT_JEWELRY_RAT_JEWELRY_11_cls-3" d="M218.63,333.88a4.68,4.68,0,0,0-.33-.89l-.12,1.14Z" />
    <path class="GUNDAN_RAT_JEWELRY_RAT_JEWELRY_11_cls-4" d="M218.68,337.07a6.56,6.56,0,0,0,.17-1.19l-.65.92Z" />
    <polygon class="GUNDAN_RAT_JEWELRY_RAT_JEWELRY_11_cls-5" points="217.82 335.57 218.1 336.62 218.83 335.57 218.1 334.52 217.82 335.57" />
    <polygon class="GUNDAN_RAT_JEWELRY_RAT_JEWELRY_11_cls-4" points="216.72 332.66 216.32 332.87 217 333.43 216.72 332.66" />
    <path class="GUNDAN_RAT_JEWELRY_RAT_JEWELRY_11_cls-4" d="M216.3,339.82a1.93,1.93,0,0,0,.91-.33l-.43-.68Z" />
    <polygon class="GUNDAN_RAT_JEWELRY_RAT_JEWELRY_11_cls-3" points="216.15 338.16 217.12 337.36 217.63 335.57 217.12 333.77 216.15 332.97 215.17 333.77 214.67 335.57 215.17 337.36 216.15 338.16" />
    <polygon class="GUNDAN_RAT_JEWELRY_RAT_JEWELRY_11_cls-5" points="217.28 337.48 216.91 338.5 218.14 338.37 217.99 337 217.28 337.48" />
    <polygon class="GUNDAN_RAT_JEWELRY_RAT_JEWELRY_11_cls-3" points="215.3 333.43 215.98 332.87 215.57 332.66 215.3 333.43" />
    <polygon class="GUNDAN_RAT_JEWELRY_RAT_JEWELRY_11_cls-3" points="214.93 337.19 214.57 335.92 214.34 336.79 214.93 337.19" />
    <polygon class="GUNDAN_RAT_JEWELRY_RAT_JEWELRY_11_cls-4" points="214.57 335.22 214.93 333.94 214.34 334.35 214.57 335.22" />
    <path class="GUNDAN_RAT_JEWELRY_RAT_JEWELRY_11_cls-4" d="M217.36,339.38a3.33,3.33,0,0,0,.71-.81l-1.14.12Z" />
    <polygon class="GUNDAN_RAT_JEWELRY_RAT_JEWELRY_11_cls-5" points="216.15 339.71 216.65 338.66 216.15 338.39 215.65 338.66 216.15 339.71" />
    <polygon class="GUNDAN_RAT_JEWELRY_RAT_JEWELRY_11_cls-5" points="214.31 337 214.16 338.37 215.38 338.5 215.02 337.48 214.31 337" />
    <path class="GUNDAN_RAT_JEWELRY_RAT_JEWELRY_11_cls-4" d="M213.66,337.26a6.27,6.27,0,0,0,.33.89l.13-1.15Z" />
    <polygon class="GUNDAN_RAT_JEWELRY_RAT_JEWELRY_11_cls-5" points="214.47 335.57 214.19 334.52 213.46 335.57 214.19 336.62 214.47 335.57" />
    <path class="GUNDAN_RAT_JEWELRY_RAT_JEWELRY_11_cls-4" d="M213.45,335.88a6.56,6.56,0,0,0,.16,1.19l.48-.27Z" />
    <path class="GUNDAN_RAT_JEWELRY_RAT_JEWELRY_11_cls-3" d="M214.23,338.57a3.3,3.3,0,0,0,.7.81l.43-.69Z" />
    <path class="GUNDAN_RAT_JEWELRY_RAT_JEWELRY_11_cls-4" d="M215.09,339.49a1.9,1.9,0,0,0,.91.33l-.49-1Z" />
    <polygon class="GUNDAN_RAT_JEWELRY_RAT_JEWELRY_11_cls-5" points="215.02 333.65 215.38 332.63 214.16 332.76 214.31 334.14 215.02 333.65" />
    <path class="GUNDAN_RAT_JEWELRY_RAT_JEWELRY_11_cls-4" d="M213.61,334.07a6.44,6.44,0,0,0-.16,1.19l.64-.92Z" />
    <path class="GUNDAN_RAT_JEWELRY_RAT_JEWELRY_11_cls-4" d="M216,331.31a1.91,1.91,0,0,0-.91.34l.42.68Z" />
    <path class="GUNDAN_RAT_JEWELRY_RAT_JEWELRY_11_cls-4" d="M214.93,331.76a3.44,3.44,0,0,0-.7.8l1.13-.12Z" />
    <path class="GUNDAN_RAT_JEWELRY_RAT_JEWELRY_11_cls-4" d="M218.07,332.56a3.47,3.47,0,0,0-.71-.8l-.43.68Z" />
    <path class="GUNDAN_RAT_JEWELRY_RAT_JEWELRY_11_cls-3" d="M217.21,331.65a2,2,0,0,0-.91-.34l.48,1Z" />
    <polygon class="GUNDAN_RAT_JEWELRY_RAT_JEWELRY_11_cls-5" points="217.99 334.14 218.14 332.76 216.91 332.63 217.28 333.65 217.99 334.14" />
    <polygon class="GUNDAN_RAT_JEWELRY_RAT_JEWELRY_11_cls-5" points="216.65 332.48 216.15 331.43 215.65 332.48 216.15 332.74 216.65 332.48" />
    <path class="GUNDAN_RAT_JEWELRY_RAT_JEWELRY_11_cls-3" d="M214,333a5.48,5.48,0,0,0-.33.89l.46.25Z" />
    <ellipse cx="188.1" cy="325.71" rx="3.91" ry="2.51" transform="translate(-185.45 281.76) rotate(-53.28)" />
    <polygon class="GUNDAN_RAT_JEWELRY_RAT_JEWELRY_11_cls-3" points="187.04 327.92 186.88 327.58 187.61 327.55 187.04 327.92" />
    <polygon class="GUNDAN_RAT_JEWELRY_RAT_JEWELRY_11_cls-4" points="186.66 327.41 186.48 326.7 186.28 327.35 186.66 327.41" />
    <polygon class="GUNDAN_RAT_JEWELRY_RAT_JEWELRY_11_cls-4" points="188.97 326.72 188.1 327.39 188.69 327.41 188.97 326.72" />
    <path class="GUNDAN_RAT_JEWELRY_RAT_JEWELRY_11_cls-3" d="M188.25,328.48a3.93,3.93,0,0,0,.66-.43l-.18-.39Z" />
    <path class="GUNDAN_RAT_JEWELRY_RAT_JEWELRY_11_cls-4" d="M190,326.84a6.27,6.27,0,0,0,.48-.87l-.45-.06Z" />
    <polygon class="GUNDAN_RAT_JEWELRY_RAT_JEWELRY_11_cls-3" points="189.71 325.23 189.32 326.25 189.9 325.79 189.71 325.23" />
    <path class="GUNDAN_RAT_JEWELRY_RAT_JEWELRY_11_cls-3" d="M190.58,325.82a4.51,4.51,0,0,0,.22-.75l-.65.69Z" />
    <path class="GUNDAN_RAT_JEWELRY_RAT_JEWELRY_11_cls-4" d="M189,328a5.08,5.08,0,0,0,.69-.7l-.88.29Z" />
    <polygon class="GUNDAN_RAT_JEWELRY_RAT_JEWELRY_11_cls-5" points="189.21 326.54 188.88 327.37 189.88 327.04 189.91 325.98 189.21 326.54" />
    <polygon class="GUNDAN_RAT_JEWELRY_RAT_JEWELRY_11_cls-4" points="189.92 324.07 189.55 324.01 189.72 324.71 189.92 324.07" />
    <path class="GUNDAN_RAT_JEWELRY_RAT_JEWELRY_11_cls-4" d="M186.1,328.6a1.69,1.69,0,0,0,.77.23l0-.66Z" />
    <polygon class="GUNDAN_RAT_JEWELRY_RAT_JEWELRY_11_cls-3" points="186.82 327.43 187.86 327.38 189.08 326.44 189.63 325 189.38 323.99 188.34 324.04 187.12 324.98 186.57 326.42 186.82 327.43" />
    <polygon class="GUNDAN_RAT_JEWELRY_RAT_JEWELRY_11_cls-5" points="187.91 327.53 187.16 328.03 188.03 328.55 188.61 327.56 187.91 327.53" />
    <polygon class="GUNDAN_RAT_JEWELRY_RAT_JEWELRY_11_cls-3" points="188.59 323.87 189.32 323.84 189.16 323.5 188.59 323.87" />
    <polygon class="GUNDAN_RAT_JEWELRY_RAT_JEWELRY_11_cls-3" points="186.49 326.19 186.89 325.17 186.3 325.63 186.49 326.19" />
    <polygon class="GUNDAN_RAT_JEWELRY_RAT_JEWELRY_11_cls-4" points="187.23 324.7 188.1 324.03 187.51 324.01 187.23 324.7" />
    <path class="GUNDAN_RAT_JEWELRY_RAT_JEWELRY_11_cls-4" d="M187,328.83a2.58,2.58,0,0,0,.86-.19l-.81-.48Z" />
    <polygon class="GUNDAN_RAT_JEWELRY_RAT_JEWELRY_11_cls-5" points="186.06 328.45 186.91 328 186.71 327.58 186.25 327.5 186.06 328.45" />
    <polygon class="GUNDAN_RAT_JEWELRY_RAT_JEWELRY_11_cls-5" points="186.18 325.75 185.4 326.58 186.15 327.27 186.41 326.42 186.18 325.75" />
    <path class="GUNDAN_RAT_JEWELRY_RAT_JEWELRY_11_cls-4" d="M185.62,325.6a5.73,5.73,0,0,0-.22.75l.65-.69Z" />
    <polygon class="GUNDAN_RAT_JEWELRY_RAT_JEWELRY_11_cls-5" points="186.99 324.88 187.32 324.05 186.32 324.38 186.29 325.44 186.99 324.88" />
    <path class="GUNDAN_RAT_JEWELRY_RAT_JEWELRY_11_cls-4" d="M186.16,324.58a5.3,5.3,0,0,0-.47.87l.44.06Z" />
    <path class="GUNDAN_RAT_JEWELRY_RAT_JEWELRY_11_cls-3" d="M185.35,326.75a2.79,2.79,0,0,0,.07.88l.62-.24Z" />
    <path class="GUNDAN_RAT_JEWELRY_RAT_JEWELRY_11_cls-4" d="M185.46,327.78a1.7,1.7,0,0,0,.44.67l.18-.91Z" />
    <polygon class="GUNDAN_RAT_JEWELRY_RAT_JEWELRY_11_cls-5" points="188.3 323.88 189.04 323.39 188.17 322.87 187.59 323.85 188.3 323.88" />
    <path class="GUNDAN_RAT_JEWELRY_RAT_JEWELRY_11_cls-4" d="M187.16,323.47a5.72,5.72,0,0,0-.69.7l.88-.29Z" />
    <path class="GUNDAN_RAT_JEWELRY_RAT_JEWELRY_11_cls-4" d="M190.1,322.82a1.69,1.69,0,0,0-.77-.23l-.05.66Z" />
    <path class="GUNDAN_RAT_JEWELRY_RAT_JEWELRY_11_cls-4" d="M189.18,322.59a2.47,2.47,0,0,0-.86.19l.8.47Z" />
    <path class="GUNDAN_RAT_JEWELRY_RAT_JEWELRY_11_cls-4" d="M190.85,324.67a2.52,2.52,0,0,0-.07-.88l-.62.24Z" />
    <path class="GUNDAN_RAT_JEWELRY_RAT_JEWELRY_11_cls-3" d="M190.74,323.64a1.6,1.6,0,0,0-.44-.67l-.18.91Z" />
    <polygon class="GUNDAN_RAT_JEWELRY_RAT_JEWELRY_11_cls-5" points="190.03 325.67 190.8 324.84 190.06 324.15 189.79 325 190.03 325.67" />
    <polygon class="GUNDAN_RAT_JEWELRY_RAT_JEWELRY_11_cls-5" points="189.96 323.91 190.14 322.97 189.29 323.42 189.5 323.84 189.96 323.91" />
    <path class="GUNDAN_RAT_JEWELRY_RAT_JEWELRY_11_cls-3" d="M188,322.94a4.94,4.94,0,0,0-.66.43l.18.39Z" />
    <ellipse cx="235.71" cy="320.73" rx="1.39" ry="2.17" transform="translate(-161.18 290.65) rotate(-49.35)" />
    <polygon class="GUNDAN_RAT_JEWELRY_RAT_JEWELRY_11_cls-3" points="236.89 321.4 236.7 321.48 236.71 321.07 236.89 321.4" />
    <polygon class="GUNDAN_RAT_JEWELRY_RAT_JEWELRY_11_cls-4" points="236.6 321.6 236.2 321.67 236.55 321.8 236.6 321.6" />
    <polygon class="GUNDAN_RAT_JEWELRY_RAT_JEWELRY_11_cls-4" points="236.3 320.29 236.64 320.79 236.67 320.47 236.3 320.29" />
    <path class="GUNDAN_RAT_JEWELRY_RAT_JEWELRY_11_cls-3" d="M237.25,320.75a3.59,3.59,0,0,0-.21-.38l-.23.08Z" />
    <path class="GUNDAN_RAT_JEWELRY_RAT_JEWELRY_11_cls-4" d="M236.41,319.7a2.66,2.66,0,0,0-.47-.3l-.05.25Z" />
    <polygon class="GUNDAN_RAT_JEWELRY_RAT_JEWELRY_11_cls-3" points="235.5 319.82 236.06 320.08 235.82 319.74 235.5 319.82" />
    <path class="GUNDAN_RAT_JEWELRY_RAT_JEWELRY_11_cls-3" d="M235.86,319.36a2.86,2.86,0,0,0-.41-.15l.36.38Z" />
    <path class="GUNDAN_RAT_JEWELRY_RAT_JEWELRY_11_cls-4" d="M237,320.3a2.93,2.93,0,0,0-.37-.42l.13.5Z" />
    <polygon class="GUNDAN_RAT_JEWELRY_RAT_JEWELRY_11_cls-5" points="236.21 320.15 236.66 320.36 236.51 319.8 235.93 319.74 236.21 320.15" />
    <polygon class="GUNDAN_RAT_JEWELRY_RAT_JEWELRY_11_cls-4" points="234.87 319.66 234.82 319.86 235.22 319.79 234.87 319.66" />
    <path class="GUNDAN_RAT_JEWELRY_RAT_JEWELRY_11_cls-4" d="M237.23,322a.86.86,0,0,0,.16-.42l-.36,0Z" />
    <polygon class="GUNDAN_RAT_JEWELRY_RAT_JEWELRY_11_cls-3" points="236.61 321.5 236.62 320.93 236.15 320.21 235.38 319.86 234.81 319.95 234.79 320.53 235.27 321.25 236.04 321.61 236.61 321.5" />
    <polygon class="GUNDAN_RAT_JEWELRY_RAT_JEWELRY_11_cls-5" points="236.71 320.91 236.96 321.34 237.28 320.88 236.76 320.52 236.71 320.91" />
    <polygon class="GUNDAN_RAT_JEWELRY_RAT_JEWELRY_11_cls-3" points="234.71 320.39 234.72 319.98 234.52 320.06 234.71 320.39" />
    <polygon class="GUNDAN_RAT_JEWELRY_RAT_JEWELRY_11_cls-3" points="235.91 321.64 235.36 321.38 235.59 321.73 235.91 321.64" />
    <polygon class="GUNDAN_RAT_JEWELRY_RAT_JEWELRY_11_cls-4" points="235.12 321.17 234.78 320.67 234.74 320.99 235.12 321.17" />
    <path class="GUNDAN_RAT_JEWELRY_RAT_JEWELRY_11_cls-4" d="M237.4,321.45a1.71,1.71,0,0,0-.07-.49l-.3.43Z" />
    <polygon class="GUNDAN_RAT_JEWELRY_RAT_JEWELRY_11_cls-5" points="237.15 321.97 236.93 321.48 236.69 321.57 236.63 321.83 237.15 321.97" />
    <polygon class="GUNDAN_RAT_JEWELRY_RAT_JEWELRY_11_cls-5" points="235.66 321.8 236.09 322.26 236.5 321.87 236.04 321.7 235.66 321.8" />
    <path class="GUNDAN_RAT_JEWELRY_RAT_JEWELRY_11_cls-4" d="M235.55,322.1l.41.15-.36-.39Z" />
    <polygon class="GUNDAN_RAT_JEWELRY_RAT_JEWELRY_11_cls-5" points="235.21 321.31 234.76 321.1 234.91 321.66 235.49 321.72 235.21 321.31" />
    <path class="GUNDAN_RAT_JEWELRY_RAT_JEWELRY_11_cls-4" d="M235,321.76a2.59,2.59,0,0,0,.46.3l.05-.25Z" />
    <path class="GUNDAN_RAT_JEWELRY_RAT_JEWELRY_11_cls-3" d="M236.18,322.3a1.6,1.6,0,0,0,.49,0l-.11-.35Z" />
    <path class="GUNDAN_RAT_JEWELRY_RAT_JEWELRY_11_cls-4" d="M236.75,322.27a.76.76,0,0,0,.39-.22l-.49-.13Z" />
    <polygon class="GUNDAN_RAT_JEWELRY_RAT_JEWELRY_11_cls-5" points="234.7 320.55 234.46 320.12 234.14 320.58 234.66 320.94 234.7 320.55" />
    <path class="GUNDAN_RAT_JEWELRY_RAT_JEWELRY_11_cls-4" d="M234.43,321.16a2.86,2.86,0,0,0,.36.42l-.12-.5Z" />
    <path class="GUNDAN_RAT_JEWELRY_RAT_JEWELRY_11_cls-4" d="M234.18,319.51a.85.85,0,0,0-.15.42l.36.05Z" />
    <path class="GUNDAN_RAT_JEWELRY_RAT_JEWELRY_11_cls-4" d="M234,320a1.42,1.42,0,0,0,.07.49l.3-.43Z" />
    <path class="GUNDAN_RAT_JEWELRY_RAT_JEWELRY_11_cls-4" d="M235.24,319.16a1.59,1.59,0,0,0-.49,0l.11.35Z" />
    <path class="GUNDAN_RAT_JEWELRY_RAT_JEWELRY_11_cls-3" d="M234.66,319.19a.84.84,0,0,0-.39.22l.5.13Z" />
    <polygon class="GUNDAN_RAT_JEWELRY_RAT_JEWELRY_11_cls-5" points="235.76 319.66 235.33 319.2 234.91 319.59 235.38 319.76 235.76 319.66" />
    <polygon class="GUNDAN_RAT_JEWELRY_RAT_JEWELRY_11_cls-5" points="234.78 319.63 234.27 319.49 234.48 319.98 234.72 319.89 234.78 319.63" />
    <path class="GUNDAN_RAT_JEWELRY_RAT_JEWELRY_11_cls-3" d="M234.17,320.71a1.8,1.8,0,0,0,.21.38l.22-.08Z" />
    <ellipse cx="205.42" cy="334.58" rx="1.68" ry="1.69" />
    <polygon class="GUNDAN_RAT_JEWELRY_RAT_JEWELRY_11_cls-3" points="205.74 335.62 205.51 335.54 205.89 335.34 205.74 335.62" />
    <polygon class="GUNDAN_RAT_JEWELRY_RAT_JEWELRY_11_cls-4" points="205.32 335.54 204.94 335.34 205.1 335.62 205.32 335.54" />
    <polygon class="GUNDAN_RAT_JEWELRY_RAT_JEWELRY_11_cls-4" points="206.29 334.7 206.09 335.16 206.42 335.02 206.29 334.7" />
    <path class="GUNDAN_RAT_JEWELRY_RAT_JEWELRY_11_cls-3" d="M206.61,335.5a1.65,1.65,0,0,0,.18-.32l-.25-.09Z" />
    <path class="GUNDAN_RAT_JEWELRY_RAT_JEWELRY_11_cls-4" d="M206.91,334.47a1.57,1.57,0,0,0-.09-.43l-.27.1Z" />
    <polygon class="GUNDAN_RAT_JEWELRY_RAT_JEWELRY_11_cls-3" points="206.09 334 206.29 334.45 206.42 334.14 206.09 334" />
    <path class="GUNDAN_RAT_JEWELRY_RAT_JEWELRY_11_cls-3" d="M206.79,334a1.65,1.65,0,0,0-.18-.32l-.07.41Z" />
    <path class="GUNDAN_RAT_JEWELRY_RAT_JEWELRY_11_cls-4" d="M206.82,335.11a1.43,1.43,0,0,0,.09-.42l-.36.33Z" />
    <polygon class="GUNDAN_RAT_JEWELRY_RAT_JEWELRY_11_cls-5" points="206.34 334.58 206.5 334.95 206.9 334.58 206.5 334.2 206.34 334.58" />
    <polygon class="GUNDAN_RAT_JEWELRY_RAT_JEWELRY_11_cls-4" points="205.74 333.54 205.51 333.62 205.89 333.81 205.74 333.54" />
    <path class="GUNDAN_RAT_JEWELRY_RAT_JEWELRY_11_cls-4" d="M205.5,336.1a1.36,1.36,0,0,0,.5-.12l-.23-.24Z" />
    <polygon class="GUNDAN_RAT_JEWELRY_RAT_JEWELRY_11_cls-3" points="205.42 335.51 205.96 335.22 206.24 334.58 205.96 333.94 205.42 333.65 204.88 333.94 204.6 334.58 204.88 335.22 205.42 335.51" />
    <polygon class="GUNDAN_RAT_JEWELRY_RAT_JEWELRY_11_cls-5" points="206.04 335.26 205.84 335.63 206.52 335.58 206.44 335.09 206.04 335.26" />
    <polygon class="GUNDAN_RAT_JEWELRY_RAT_JEWELRY_11_cls-3" points="204.94 333.81 205.32 333.62 205.1 333.54 204.94 333.81" />
    <polygon class="GUNDAN_RAT_JEWELRY_RAT_JEWELRY_11_cls-3" points="204.74 335.16 204.54 334.7 204.41 335.02 204.74 335.16" />
    <polygon class="GUNDAN_RAT_JEWELRY_RAT_JEWELRY_11_cls-4" points="204.54 334.45 204.74 334 204.41 334.14 204.54 334.45" />
    <path class="GUNDAN_RAT_JEWELRY_RAT_JEWELRY_11_cls-4" d="M206.09,335.94a1.58,1.58,0,0,0,.39-.29l-.63.05Z" />
    <polygon class="GUNDAN_RAT_JEWELRY_RAT_JEWELRY_11_cls-5" points="205.42 336.06 205.69 335.68 205.42 335.59 205.14 335.68 205.42 336.06" />
    <polygon class="GUNDAN_RAT_JEWELRY_RAT_JEWELRY_11_cls-5" points="204.4 335.09 204.31 335.58 204.99 335.63 204.79 335.26 204.4 335.09" />
    <path class="GUNDAN_RAT_JEWELRY_RAT_JEWELRY_11_cls-4" d="M204,335.18a1.65,1.65,0,0,0,.18.32l.07-.41Z" />
    <polygon class="GUNDAN_RAT_JEWELRY_RAT_JEWELRY_11_cls-5" points="204.49 334.58 204.33 334.2 203.93 334.58 204.33 334.95 204.49 334.58" />
    <path class="GUNDAN_RAT_JEWELRY_RAT_JEWELRY_11_cls-4" d="M203.92,334.69a1.43,1.43,0,0,0,.09.42l.27-.09Z" />
    <path class="GUNDAN_RAT_JEWELRY_RAT_JEWELRY_11_cls-3" d="M204.35,335.65a1.8,1.8,0,0,0,.39.29l.24-.24Z" />
    <path class="GUNDAN_RAT_JEWELRY_RAT_JEWELRY_11_cls-4" d="M204.83,336a1.36,1.36,0,0,0,.5.12l-.27-.36Z" />
    <polygon class="GUNDAN_RAT_JEWELRY_RAT_JEWELRY_11_cls-5" points="204.79 333.9 204.99 333.53 204.31 333.58 204.4 334.07 204.79 333.9" />
    <path class="GUNDAN_RAT_JEWELRY_RAT_JEWELRY_11_cls-4" d="M204,334a1.57,1.57,0,0,0-.09.43l.36-.33Z" />
    <path class="GUNDAN_RAT_JEWELRY_RAT_JEWELRY_11_cls-4" d="M205.33,333.06a1.36,1.36,0,0,0-.5.12l.23.24Z" />
    <path class="GUNDAN_RAT_JEWELRY_RAT_JEWELRY_11_cls-4" d="M204.74,333.22a1.52,1.52,0,0,0-.39.29l.63-.05Z" />
    <path class="GUNDAN_RAT_JEWELRY_RAT_JEWELRY_11_cls-4" d="M206.48,333.51a1.37,1.37,0,0,0-.39-.29l-.24.24Z" />
    <path class="GUNDAN_RAT_JEWELRY_RAT_JEWELRY_11_cls-3" d="M206,333.18a1.36,1.36,0,0,0-.5-.12l.27.36Z" />
    <polygon class="GUNDAN_RAT_JEWELRY_RAT_JEWELRY_11_cls-5" points="206.44 334.07 206.52 333.58 205.84 333.53 206.04 333.9 206.44 334.07" />
    <polygon class="GUNDAN_RAT_JEWELRY_RAT_JEWELRY_11_cls-5" points="205.69 333.48 205.42 333.1 205.14 333.48 205.42 333.57 205.69 333.48" />
    <path class="GUNDAN_RAT_JEWELRY_RAT_JEWELRY_11_cls-3" d="M204.22,333.66a1.65,1.65,0,0,0-.18.32l.25.09Z" />
    <ellipse cx="196.54" cy="331.09" rx="1.68" ry="1.69" />
    <polygon class="GUNDAN_RAT_JEWELRY_RAT_JEWELRY_11_cls-3" points="196.85 332.13 196.63 332.05 197.01 331.85 196.85 332.13" />
    <polygon class="GUNDAN_RAT_JEWELRY_RAT_JEWELRY_11_cls-4" points="196.44 332.05 196.06 331.85 196.22 332.13 196.44 332.05" />
    <polygon class="GUNDAN_RAT_JEWELRY_RAT_JEWELRY_11_cls-4" points="197.41 331.21 197.21 331.67 197.54 331.52 197.41 331.21" />
    <path class="GUNDAN_RAT_JEWELRY_RAT_JEWELRY_11_cls-3" d="M197.73,332a2,2,0,0,0,.18-.32l-.25-.09Z" />
    <path class="GUNDAN_RAT_JEWELRY_RAT_JEWELRY_11_cls-4" d="M198,331a1.57,1.57,0,0,0-.09-.43l-.27.1Z" />
    <polygon class="GUNDAN_RAT_JEWELRY_RAT_JEWELRY_11_cls-3" points="197.21 330.5 197.41 330.96 197.54 330.65 197.21 330.5" />
    <path class="GUNDAN_RAT_JEWELRY_RAT_JEWELRY_11_cls-3" d="M197.91,330.48a1.57,1.57,0,0,0-.18-.31l-.07.4Z" />
    <path class="GUNDAN_RAT_JEWELRY_RAT_JEWELRY_11_cls-4" d="M197.94,331.62a1.5,1.5,0,0,0,.09-.42l-.36.33Z" />
    <polygon class="GUNDAN_RAT_JEWELRY_RAT_JEWELRY_11_cls-5" points="197.46 331.09 197.62 331.46 198.02 331.09 197.62 330.71 197.46 331.09" />
    <polygon class="GUNDAN_RAT_JEWELRY_RAT_JEWELRY_11_cls-4" points="196.85 330.05 196.63 330.12 197.01 330.32 196.85 330.05" />
    <path class="GUNDAN_RAT_JEWELRY_RAT_JEWELRY_11_cls-4" d="M196.62,332.61a1.59,1.59,0,0,0,.5-.12l-.23-.25Z" />
    <polygon class="GUNDAN_RAT_JEWELRY_RAT_JEWELRY_11_cls-3" points="196.54 332.01 197.08 331.73 197.36 331.09 197.08 330.44 196.54 330.16 196 330.44 195.72 331.09 196 331.73 196.54 332.01" />
    <polygon class="GUNDAN_RAT_JEWELRY_RAT_JEWELRY_11_cls-5" points="197.16 331.77 196.96 332.13 197.64 332.09 197.56 331.6 197.16 331.77" />
    <polygon class="GUNDAN_RAT_JEWELRY_RAT_JEWELRY_11_cls-3" points="196.06 330.32 196.44 330.12 196.22 330.05 196.06 330.32" />
    <polygon class="GUNDAN_RAT_JEWELRY_RAT_JEWELRY_11_cls-3" points="195.86 331.67 195.66 331.21 195.53 331.52 195.86 331.67" />
    <polygon class="GUNDAN_RAT_JEWELRY_RAT_JEWELRY_11_cls-4" points="195.66 330.96 195.86 330.5 195.53 330.65 195.66 330.96" />
    <path class="GUNDAN_RAT_JEWELRY_RAT_JEWELRY_11_cls-4" d="M197.21,332.45a2.19,2.19,0,0,0,.39-.29l-.63,0Z" />
    <polygon class="GUNDAN_RAT_JEWELRY_RAT_JEWELRY_11_cls-5" points="196.54 332.56 196.81 332.19 196.54 332.1 196.26 332.19 196.54 332.56" />
    <polygon class="GUNDAN_RAT_JEWELRY_RAT_JEWELRY_11_cls-5" points="195.52 331.6 195.43 332.09 196.11 332.13 195.91 331.77 195.52 331.6" />
    <path class="GUNDAN_RAT_JEWELRY_RAT_JEWELRY_11_cls-4" d="M195.16,331.69a2,2,0,0,0,.18.32l.07-.41Z" />
    <polygon class="GUNDAN_RAT_JEWELRY_RAT_JEWELRY_11_cls-5" points="195.61 331.09 195.45 330.71 195.05 331.09 195.45 331.46 195.61 331.09" />
    <path class="GUNDAN_RAT_JEWELRY_RAT_JEWELRY_11_cls-4" d="M195,331.2a1.5,1.5,0,0,0,.09.42l.27-.09Z" />
    <path class="GUNDAN_RAT_JEWELRY_RAT_JEWELRY_11_cls-3" d="M195.47,332.16a1.8,1.8,0,0,0,.39.29l.24-.25Z" />
    <path class="GUNDAN_RAT_JEWELRY_RAT_JEWELRY_11_cls-4" d="M196,332.49a1.59,1.59,0,0,0,.5.12l-.27-.37Z" />
    <polygon class="GUNDAN_RAT_JEWELRY_RAT_JEWELRY_11_cls-5" points="195.91 330.4 196.11 330.04 195.43 330.08 195.52 330.57 195.91 330.4" />
    <path class="GUNDAN_RAT_JEWELRY_RAT_JEWELRY_11_cls-4" d="M195.13,330.55a1.57,1.57,0,0,0-.09.43l.36-.33Z" />
    <path class="GUNDAN_RAT_JEWELRY_RAT_JEWELRY_11_cls-4" d="M196.45,329.57a1.36,1.36,0,0,0-.5.12l.23.24Z" />
    <path class="GUNDAN_RAT_JEWELRY_RAT_JEWELRY_11_cls-4" d="M195.86,329.73a1.75,1.75,0,0,0-.39.28l.63,0Z" />
    <path class="GUNDAN_RAT_JEWELRY_RAT_JEWELRY_11_cls-4" d="M197.6,330a1.75,1.75,0,0,0-.39-.28L197,330Z" />
    <path class="GUNDAN_RAT_JEWELRY_RAT_JEWELRY_11_cls-3" d="M197.12,329.69a1.36,1.36,0,0,0-.5-.12l.27.36Z" />
    <polygon class="GUNDAN_RAT_JEWELRY_RAT_JEWELRY_11_cls-5" points="197.56 330.57 197.64 330.08 196.96 330.04 197.16 330.4 197.56 330.57" />
    <polygon class="GUNDAN_RAT_JEWELRY_RAT_JEWELRY_11_cls-5" points="196.81 329.98 196.54 329.61 196.26 329.98 196.54 330.08 196.81 329.98" />
    <path class="GUNDAN_RAT_JEWELRY_RAT_JEWELRY_11_cls-3" d="M195.34,330.17a1.57,1.57,0,0,0-.18.31l.25.09Z" />
    <ellipse cx="225.55" cy="332.96" rx="1.68" ry="1.69" />
    <polygon class="GUNDAN_RAT_JEWELRY_RAT_JEWELRY_11_cls-3" points="225.23 334 225.46 333.92 225.08 333.72 225.23 334" />
    <polygon class="GUNDAN_RAT_JEWELRY_RAT_JEWELRY_11_cls-4" points="225.65 333.92 226.02 333.72 225.87 334 225.65 333.92" />
    <polygon class="GUNDAN_RAT_JEWELRY_RAT_JEWELRY_11_cls-4" points="224.68 333.08 224.88 333.54 224.55 333.39 224.68 333.08" />
    <path class="GUNDAN_RAT_JEWELRY_RAT_JEWELRY_11_cls-3" d="M224.36,333.88a1.5,1.5,0,0,1-.19-.32l.26-.09Z" />
    <path class="GUNDAN_RAT_JEWELRY_RAT_JEWELRY_11_cls-4" d="M224.06,332.85a1.57,1.57,0,0,1,.09-.43l.26.1Z" />
    <polygon class="GUNDAN_RAT_JEWELRY_RAT_JEWELRY_11_cls-3" points="224.88 332.38 224.68 332.83 224.55 332.52 224.88 332.38" />
    <path class="GUNDAN_RAT_JEWELRY_RAT_JEWELRY_11_cls-3" d="M224.17,332.36a1.13,1.13,0,0,1,.19-.32l.07.41Z" />
    <path class="GUNDAN_RAT_JEWELRY_RAT_JEWELRY_11_cls-4" d="M224.15,333.49a1.43,1.43,0,0,1-.09-.42l.35.33Z" />
    <polygon class="GUNDAN_RAT_JEWELRY_RAT_JEWELRY_11_cls-5" points="224.62 332.96 224.47 333.33 224.06 332.96 224.47 332.58 224.62 332.96" />
    <polygon class="GUNDAN_RAT_JEWELRY_RAT_JEWELRY_11_cls-4" points="225.23 331.92 225.46 331.99 225.08 332.19 225.23 331.92" />
    <path class="GUNDAN_RAT_JEWELRY_RAT_JEWELRY_11_cls-4" d="M225.47,334.48a1.46,1.46,0,0,1-.51-.12l.24-.24Z" />
    <polygon class="GUNDAN_RAT_JEWELRY_RAT_JEWELRY_11_cls-3" points="225.55 333.88 225.01 333.6 224.73 332.96 225.01 332.32 225.55 332.03 226.09 332.32 226.37 332.96 226.09 333.6 225.55 333.88" />
    <polygon class="GUNDAN_RAT_JEWELRY_RAT_JEWELRY_11_cls-5" points="224.92 333.64 225.13 334.01 224.45 333.96 224.53 333.47 224.92 333.64" />
    <polygon class="GUNDAN_RAT_JEWELRY_RAT_JEWELRY_11_cls-3" points="226.02 332.19 225.65 331.99 225.87 331.92 226.02 332.19" />
    <polygon class="GUNDAN_RAT_JEWELRY_RAT_JEWELRY_11_cls-3" points="226.22 333.54 226.42 333.08 226.55 333.39 226.22 333.54" />
    <polygon class="GUNDAN_RAT_JEWELRY_RAT_JEWELRY_11_cls-4" points="226.42 332.83 226.22 332.38 226.55 332.52 226.42 332.83" />
    <path class="GUNDAN_RAT_JEWELRY_RAT_JEWELRY_11_cls-4" d="M224.88,334.32a1.42,1.42,0,0,1-.39-.29l.63,0Z" />
    <polygon class="GUNDAN_RAT_JEWELRY_RAT_JEWELRY_11_cls-5" points="225.55 334.44 225.27 334.06 225.55 333.97 225.83 334.06 225.55 334.44" />
    <polygon class="GUNDAN_RAT_JEWELRY_RAT_JEWELRY_11_cls-5" points="226.57 333.47 226.66 333.96 225.97 334.01 226.18 333.64 226.57 333.47" />
    <path class="GUNDAN_RAT_JEWELRY_RAT_JEWELRY_11_cls-4" d="M226.93,333.56a1.5,1.5,0,0,1-.19.32l-.06-.41Z" />
    <polygon class="GUNDAN_RAT_JEWELRY_RAT_JEWELRY_11_cls-5" points="226.48 332.96 226.63 332.58 227.04 332.96 226.63 333.33 226.48 332.96" />
    <path class="GUNDAN_RAT_JEWELRY_RAT_JEWELRY_11_cls-4" d="M227.05,333.07a1.84,1.84,0,0,1-.09.42l-.27-.09Z" />
    <path class="GUNDAN_RAT_JEWELRY_RAT_JEWELRY_11_cls-3" d="M226.61,334a1.42,1.42,0,0,1-.39.29l-.23-.25Z" />
    <path class="GUNDAN_RAT_JEWELRY_RAT_JEWELRY_11_cls-4" d="M226.14,334.36a1.46,1.46,0,0,1-.5.12l.26-.36Z" />
    <polygon class="GUNDAN_RAT_JEWELRY_RAT_JEWELRY_11_cls-5" points="226.18 332.27 225.97 331.91 226.66 331.96 226.57 332.45 226.18 332.27" />
    <path class="GUNDAN_RAT_JEWELRY_RAT_JEWELRY_11_cls-4" d="M227,332.42a2.05,2.05,0,0,1,.09.43l-.36-.33Z" />
    <path class="GUNDAN_RAT_JEWELRY_RAT_JEWELRY_11_cls-4" d="M225.64,331.44a1.46,1.46,0,0,1,.5.12l-.24.24Z" />
    <path class="GUNDAN_RAT_JEWELRY_RAT_JEWELRY_11_cls-4" d="M226.22,331.6a1.24,1.24,0,0,1,.39.29l-.62-.05Z" />
    <path class="GUNDAN_RAT_JEWELRY_RAT_JEWELRY_11_cls-4" d="M224.49,331.89a1.24,1.24,0,0,1,.39-.29l.24.24Z" />
    <path class="GUNDAN_RAT_JEWELRY_RAT_JEWELRY_11_cls-3" d="M225,331.56a1.46,1.46,0,0,1,.51-.12l-.27.36Z" />
    <polygon class="GUNDAN_RAT_JEWELRY_RAT_JEWELRY_11_cls-5" points="224.53 332.45 224.45 331.96 225.13 331.91 224.92 332.27 224.53 332.45" />
    <polygon class="GUNDAN_RAT_JEWELRY_RAT_JEWELRY_11_cls-5" points="225.27 331.86 225.55 331.48 225.83 331.86 225.55 331.95 225.27 331.86" />
    <path class="GUNDAN_RAT_JEWELRY_RAT_JEWELRY_11_cls-3" d="M226.74,332a1.13,1.13,0,0,1,.19.32l-.25.09Z" />
    <ellipse cx="232.25" cy="327.44" rx="1.25" ry="1.26" />
    <polygon class="GUNDAN_RAT_JEWELRY_RAT_JEWELRY_11_cls-3" points="232.01 328.22 232.18 328.16 231.9 328.01 232.01 328.22" />
    <polygon class="GUNDAN_RAT_JEWELRY_RAT_JEWELRY_11_cls-4" points="232.32 328.16 232.6 328.01 232.49 328.22 232.32 328.16" />
    <polygon class="GUNDAN_RAT_JEWELRY_RAT_JEWELRY_11_cls-4" points="231.6 327.54 231.75 327.88 231.5 327.77 231.6 327.54" />
    <path class="GUNDAN_RAT_JEWELRY_RAT_JEWELRY_11_cls-3" d="M231.36,328.13a1.38,1.38,0,0,1-.14-.24l.19-.06Z" />
    <path class="GUNDAN_RAT_JEWELRY_RAT_JEWELRY_11_cls-4" d="M231.14,327.36a1.07,1.07,0,0,1,.06-.31l.2.07Z" />
    <polygon class="GUNDAN_RAT_JEWELRY_RAT_JEWELRY_11_cls-3" points="231.75 327.01 231.6 327.35 231.5 327.12 231.75 327.01" />
    <path class="GUNDAN_RAT_JEWELRY_RAT_JEWELRY_11_cls-3" d="M231.22,327a1.38,1.38,0,0,1,.14-.24l0,.3Z" />
    <path class="GUNDAN_RAT_JEWELRY_RAT_JEWELRY_11_cls-4" d="M231.2,327.84a1.07,1.07,0,0,1-.06-.31l.26.24Z" />
    <polygon class="GUNDAN_RAT_JEWELRY_RAT_JEWELRY_11_cls-5" points="231.56 327.44 231.44 327.72 231.14 327.44 231.44 327.17 231.56 327.44" />
    <polygon class="GUNDAN_RAT_JEWELRY_RAT_JEWELRY_11_cls-4" points="232.01 326.67 232.18 326.73 231.9 326.88 232.01 326.67" />
    <path class="GUNDAN_RAT_JEWELRY_RAT_JEWELRY_11_cls-4" d="M232.19,328.57a.82.82,0,0,1-.38-.09l.18-.18Z" />
    <polygon class="GUNDAN_RAT_JEWELRY_RAT_JEWELRY_11_cls-3" points="232.25 328.13 231.85 327.92 231.64 327.44 231.85 326.97 232.25 326.75 232.65 326.97 232.86 327.44 232.65 327.92 232.25 328.13" />
    <polygon class="GUNDAN_RAT_JEWELRY_RAT_JEWELRY_11_cls-5" points="231.78 327.95 231.93 328.22 231.43 328.19 231.49 327.82 231.78 327.95" />
    <polygon class="GUNDAN_RAT_JEWELRY_RAT_JEWELRY_11_cls-3" points="232.6 326.88 232.32 326.73 232.49 326.67 232.6 326.88" />
    <polygon class="GUNDAN_RAT_JEWELRY_RAT_JEWELRY_11_cls-3" points="232.75 327.88 232.9 327.54 232.99 327.77 232.75 327.88" />
    <polygon class="GUNDAN_RAT_JEWELRY_RAT_JEWELRY_11_cls-4" points="232.9 327.35 232.75 327.01 232.99 327.12 232.9 327.35" />
    <path class="GUNDAN_RAT_JEWELRY_RAT_JEWELRY_11_cls-4" d="M231.75,328.45a.86.86,0,0,1-.29-.21l.46,0Z" />
    <polygon class="GUNDAN_RAT_JEWELRY_RAT_JEWELRY_11_cls-5" points="232.25 328.54 232.04 328.26 232.25 328.19 232.46 328.26 232.25 328.54" />
    <polygon class="GUNDAN_RAT_JEWELRY_RAT_JEWELRY_11_cls-5" points="233.01 327.82 233.07 328.19 232.56 328.22 232.72 327.95 233.01 327.82" />
    <path class="GUNDAN_RAT_JEWELRY_RAT_JEWELRY_11_cls-4" d="M233.27,327.89a.92.92,0,0,1-.13.24l-.06-.3Z" />
    <polygon class="GUNDAN_RAT_JEWELRY_RAT_JEWELRY_11_cls-5" points="232.94 327.44 233.05 327.17 233.35 327.44 233.05 327.72 232.94 327.44" />
    <path class="GUNDAN_RAT_JEWELRY_RAT_JEWELRY_11_cls-4" d="M233.36,327.53a1.08,1.08,0,0,1-.07.31l-.2-.07Z" />
    <path class="GUNDAN_RAT_JEWELRY_RAT_JEWELRY_11_cls-3" d="M233,328.24a1,1,0,0,1-.29.21l-.18-.18Z" />
    <path class="GUNDAN_RAT_JEWELRY_RAT_JEWELRY_11_cls-4" d="M232.69,328.48a.85.85,0,0,1-.38.09l.2-.27Z" />
    <polygon class="GUNDAN_RAT_JEWELRY_RAT_JEWELRY_11_cls-5" points="232.72 326.94 232.56 326.67 233.07 326.7 233.01 327.06 232.72 326.94" />
    <path class="GUNDAN_RAT_JEWELRY_RAT_JEWELRY_11_cls-4" d="M233.29,327.05a1.08,1.08,0,0,1,.07.31l-.27-.24Z" />
    <path class="GUNDAN_RAT_JEWELRY_RAT_JEWELRY_11_cls-4" d="M232.31,326.31a1.24,1.24,0,0,1,.38.09l-.18.18Z" />
    <path class="GUNDAN_RAT_JEWELRY_RAT_JEWELRY_11_cls-4" d="M232.75,326.43a1.23,1.23,0,0,1,.29.22l-.47,0Z" />
    <path class="GUNDAN_RAT_JEWELRY_RAT_JEWELRY_11_cls-4" d="M231.46,326.65a1.06,1.06,0,0,1,.29-.22l.17.18Z" />
    <path class="GUNDAN_RAT_JEWELRY_RAT_JEWELRY_11_cls-3" d="M231.81,326.4a1.18,1.18,0,0,1,.38-.09l-.2.27Z" />
    <polygon class="GUNDAN_RAT_JEWELRY_RAT_JEWELRY_11_cls-5" points="231.49 327.06 231.43 326.7 231.93 326.67 231.78 326.94 231.49 327.06" />
    <polygon class="GUNDAN_RAT_JEWELRY_RAT_JEWELRY_11_cls-5" points="232.04 326.62 232.25 326.35 232.46 326.62 232.25 326.69 232.04 326.62" />
    <path class="GUNDAN_RAT_JEWELRY_RAT_JEWELRY_11_cls-3" d="M233.14,326.76a.92.92,0,0,1,.13.24l-.19.06Z" />
    <ellipse cx="180.97" cy="318.53" rx="1.47" ry="1.48" />
    <polygon class="GUNDAN_RAT_JEWELRY_RAT_JEWELRY_11_cls-3" points="181.25 319.44 181.05 319.37 181.38 319.19 181.25 319.44" />
    <polygon class="GUNDAN_RAT_JEWELRY_RAT_JEWELRY_11_cls-4" points="180.89 319.37 180.56 319.19 180.69 319.44 180.89 319.37" />
    <polygon class="GUNDAN_RAT_JEWELRY_RAT_JEWELRY_11_cls-4" points="181.73 318.64 181.56 319.03 181.85 318.91 181.73 318.64" />
    <path class="GUNDAN_RAT_JEWELRY_RAT_JEWELRY_11_cls-3" d="M182,319.33a1,1,0,0,0,.16-.28L182,319Z" />
    <path class="GUNDAN_RAT_JEWELRY_RAT_JEWELRY_11_cls-4" d="M182.28,318.43a1.53,1.53,0,0,0-.08-.37l-.23.08Z" />
    <polygon class="GUNDAN_RAT_JEWELRY_RAT_JEWELRY_11_cls-3" points="181.56 318.02 181.73 318.42 181.85 318.14 181.56 318.02" />
    <path class="GUNDAN_RAT_JEWELRY_RAT_JEWELRY_11_cls-3" d="M182.17,318a1.12,1.12,0,0,0-.16-.28l-.06.36Z" />
    <path class="GUNDAN_RAT_JEWELRY_RAT_JEWELRY_11_cls-4" d="M182.2,319a1.43,1.43,0,0,0,.08-.37l-.31.29Z" />
    <polygon class="GUNDAN_RAT_JEWELRY_RAT_JEWELRY_11_cls-5" points="181.78 318.53 181.92 318.85 182.27 318.53 181.92 318.2 181.78 318.53" />
    <polygon class="GUNDAN_RAT_JEWELRY_RAT_JEWELRY_11_cls-4" points="181.25 317.62 181.05 317.68 181.38 317.86 181.25 317.62" />
    <path class="GUNDAN_RAT_JEWELRY_RAT_JEWELRY_11_cls-4" d="M181.05,319.85a1.13,1.13,0,0,0,.44-.1l-.21-.21Z" />
    <polygon class="GUNDAN_RAT_JEWELRY_RAT_JEWELRY_11_cls-3" points="180.97 319.34 181.44 319.09 181.69 318.53 181.44 317.97 180.97 317.72 180.5 317.97 180.25 318.53 180.5 319.09 180.97 319.34" />
    <polygon class="GUNDAN_RAT_JEWELRY_RAT_JEWELRY_11_cls-5" points="181.52 319.12 181.34 319.44 181.94 319.4 181.86 318.97 181.52 319.12" />
    <polygon class="GUNDAN_RAT_JEWELRY_RAT_JEWELRY_11_cls-3" points="180.56 317.86 180.89 317.68 180.69 317.62 180.56 317.86" />
    <polygon class="GUNDAN_RAT_JEWELRY_RAT_JEWELRY_11_cls-3" points="180.38 319.03 180.21 318.64 180.1 318.91 180.38 319.03" />
    <polygon class="GUNDAN_RAT_JEWELRY_RAT_JEWELRY_11_cls-4" points="180.21 318.42 180.38 318.02 180.1 318.14 180.21 318.42" />
    <path class="GUNDAN_RAT_JEWELRY_RAT_JEWELRY_11_cls-4" d="M181.56,319.71a1,1,0,0,0,.34-.25l-.55,0Z" />
    <polygon class="GUNDAN_RAT_JEWELRY_RAT_JEWELRY_11_cls-5" points="180.97 319.82 181.21 319.49 180.97 319.41 180.73 319.49 180.97 319.82" />
    <polygon class="GUNDAN_RAT_JEWELRY_RAT_JEWELRY_11_cls-5" points="180.08 318.97 180.01 319.4 180.6 319.44 180.42 319.12 180.08 318.97" />
    <path class="GUNDAN_RAT_JEWELRY_RAT_JEWELRY_11_cls-4" d="M179.77,319.05a1,1,0,0,0,.16.28L180,319Z" />
    <polygon class="GUNDAN_RAT_JEWELRY_RAT_JEWELRY_11_cls-5" points="180.16 318.53 180.03 318.2 179.67 318.53 180.03 318.85 180.16 318.53" />
    <path class="GUNDAN_RAT_JEWELRY_RAT_JEWELRY_11_cls-4" d="M179.66,318.62a1.43,1.43,0,0,0,.08.37l.24-.08Z" />
    <path class="GUNDAN_RAT_JEWELRY_RAT_JEWELRY_11_cls-3" d="M180,319.46a1.4,1.4,0,0,0,.34.26l.21-.22Z" />
    <path class="GUNDAN_RAT_JEWELRY_RAT_JEWELRY_11_cls-4" d="M180.46,319.75a1.05,1.05,0,0,0,.44.1l-.24-.31Z" />
    <polygon class="GUNDAN_RAT_JEWELRY_RAT_JEWELRY_11_cls-5" points="180.42 317.93 180.6 317.61 180.01 317.65 180.08 318.08 180.42 317.93" />
    <path class="GUNDAN_RAT_JEWELRY_RAT_JEWELRY_11_cls-4" d="M179.74,318.06a1.53,1.53,0,0,0-.08.37l.32-.29Z" />
    <path class="GUNDAN_RAT_JEWELRY_RAT_JEWELRY_11_cls-4" d="M180.9,317.2a1.23,1.23,0,0,0-.44.1l.2.22Z" />
    <path class="GUNDAN_RAT_JEWELRY_RAT_JEWELRY_11_cls-4" d="M180.38,317.34a1.36,1.36,0,0,0-.34.25l.55,0Z" />
    <path class="GUNDAN_RAT_JEWELRY_RAT_JEWELRY_11_cls-4" d="M181.9,317.59a1.2,1.2,0,0,0-.34-.25l-.21.21Z" />
    <path class="GUNDAN_RAT_JEWELRY_RAT_JEWELRY_11_cls-3" d="M181.49,317.3a1.34,1.34,0,0,0-.44-.1l.23.32Z" />
    <polygon class="GUNDAN_RAT_JEWELRY_RAT_JEWELRY_11_cls-5" points="181.86 318.08 181.94 317.65 181.34 317.61 181.52 317.93 181.86 318.08" />
    <polygon class="GUNDAN_RAT_JEWELRY_RAT_JEWELRY_11_cls-5" points="181.21 317.56 180.97 317.23 180.73 317.56 180.97 317.64 181.21 317.56" />
    <path class="GUNDAN_RAT_JEWELRY_RAT_JEWELRY_11_cls-3" d="M179.93,317.72a1.12,1.12,0,0,0-.16.28l.22.08Z" />
  </g>
  <g id="Jewellery">
    <path class="GUNDAN_RAT_JEWELRY_RAT_JEWELRY_11_cls-6" d="M271.94,226.67l0,.11a10.5,10.5,0,0,1-4.36,3.89l-.11.05-.38.17-.38.16-.25.09-.37.14a10.7,10.7,0,0,1-13.48-13.54,10.93,10.93,0,0,1,6.12-6.53,10.66,10.66,0,0,1,3.94-.85,6.15,6.15,0,0,1,.4,2.73l-.12.08a7.91,7.91,0,0,0-6.51,3.38,8,8,0,0,0-.79,7.58A7.88,7.88,0,0,0,266,228.3a.33.33,0,0,0,.12-.05l.38-.19a.25.25,0,0,0,.14-.08,7.39,7.39,0,0,0,1.63-1.22,7.94,7.94,0,0,0,.73-10.51.66.66,0,0,1,0-.09v-.06l0-.11,1.63-2.15,0,0a10.58,10.58,0,0,1,2.3,3.91,13.46,13.46,0,0,1,.35,1.39c0,.24.07.46.1.7a4.32,4.32,0,0,1,.05.62,4.47,4.47,0,0,1,0,.63A10.63,10.63,0,0,1,271.94,226.67Z" />
    <path class="GUNDAN_RAT_JEWELRY_RAT_JEWELRY_11_cls-7" d="M273.5,221.12a10.66,10.66,0,0,1-1.52,5.66,10.5,10.5,0,0,1-4.36,3.89l-.11.05-.38.17-.38.16-.25.09-.37.14a10.7,10.7,0,0,1-13.48-13.54,10.93,10.93,0,0,1,6.12-6.53,10.66,10.66,0,0,1,3.94-.85,6.15,6.15,0,0,1,.4,2.73l-.12.08a7.91,7.91,0,0,0-6.51,3.38,8,8,0,0,0-.79,7.58A7.88,7.88,0,0,0,266,228.3a.33.33,0,0,0,.12-.05l.38-.19a.25.25,0,0,0,.14-.08,7.39,7.39,0,0,0,1.63-1.22,7.94,7.94,0,0,0,.73-10.51.66.66,0,0,1,0-.09v-.06l0-.11,1.63-2.15,0,0a10.58,10.58,0,0,1,2.3,3.91,13.46,13.46,0,0,1,.35,1.39c0,.24.07.46.1.7a4.32,4.32,0,0,1,.05.62A4.47,4.47,0,0,1,273.5,221.12Z" />
    <polyline class="GUNDAN_RAT_JEWELRY_RAT_JEWELRY_11_cls-7" points="269.03 215.99 269 216.1 268.99 216.14 269 216.16" />
    <path class="GUNDAN_RAT_JEWELRY_RAT_JEWELRY_11_cls-7" d="M261.85,209a4.54,4.54,0,0,1,.86,1.4,6.15,6.15,0,0,1,.4,2.73,8,8,0,0,1-.44,2" />
  </g>
</svg>