<svg xmlns="http://www.w3.org/2000/svg" viewBox="0 0 432 432">
  <defs>
    <style>.GUNDAN_RAT_JEWELRY_RAT_JEWELRY_14_cls-1{fill:#6d2316;stroke-width:1.39px;}.GUNDAN_RAT_JEWELRY_RAT_JEWELRY_14_cls-1,.GUNDAN_RAT_JEWELRY_RAT_JEWELRY_14_cls-10,.GUNDAN_RAT_JEWELRY_RAT_JEWELRY_14_cls-11,.GUNDAN_RAT_JEWELRY_RAT_JEWELRY_14_cls-12,.GUNDAN_RAT_JEWELRY_RAT_JEWELRY_14_cls-13,.GUNDAN_RAT_JEWELRY_RAT_JEWELRY_14_cls-3,.GUNDAN_RAT_JEWELRY_RAT_JEWELRY_14_cls-4,.GUNDAN_RAT_JEWELRY_RAT_JEWELRY_14_cls-6,.GUNDAN_RAT_JEWELRY_RAT_JEWELRY_14_cls-7,.GUNDAN_RAT_JEWELRY_RAT_JEWELRY_14_cls-8{stroke:#000;}.GUNDAN_RAT_JEWELRY_RAT_JEWELRY_14_cls-1,.GUNDAN_RAT_JEWELRY_RAT_JEWELRY_14_cls-10,.GUNDAN_RAT_JEWELRY_RAT_JEWELRY_14_cls-11,.GUNDAN_RAT_JEWELRY_RAT_JEWELRY_14_cls-12,.GUNDAN_RAT_JEWELRY_RAT_JEWELRY_14_cls-13,.GUNDAN_RAT_JEWELRY_RAT_JEWELRY_14_cls-3,.GUNDAN_RAT_JEWELRY_RAT_JEWELRY_14_cls-4,.GUNDAN_RAT_JEWELRY_RAT_JEWELRY_14_cls-7,.GUNDAN_RAT_JEWELRY_RAT_JEWELRY_14_cls-8{stroke-linecap:round;stroke-linejoin:round;}.GUNDAN_RAT_JEWELRY_RAT_JEWELRY_14_cls-2{fill:#e3a92b;}.GUNDAN_RAT_JEWELRY_RAT_JEWELRY_14_cls-10,.GUNDAN_RAT_JEWELRY_RAT_JEWELRY_14_cls-13,.GUNDAN_RAT_JEWELRY_RAT_JEWELRY_14_cls-3,.GUNDAN_RAT_JEWELRY_RAT_JEWELRY_14_cls-4{fill:none;}.GUNDAN_RAT_JEWELRY_RAT_JEWELRY_14_cls-3{stroke-width:0.56px;}.GUNDAN_RAT_JEWELRY_RAT_JEWELRY_14_cls-4{stroke-width:0.46px;}.GUNDAN_RAT_JEWELRY_RAT_JEWELRY_14_cls-5{fill:#b9876e;}.GUNDAN_RAT_JEWELRY_RAT_JEWELRY_14_cls-6{fill:#85432d;stroke-miterlimit:10;stroke-width:0.87px;}.GUNDAN_RAT_JEWELRY_RAT_JEWELRY_14_cls-11,.GUNDAN_RAT_JEWELRY_RAT_JEWELRY_14_cls-7{fill:#dfca6d;}.GUNDAN_RAT_JEWELRY_RAT_JEWELRY_14_cls-10,.GUNDAN_RAT_JEWELRY_RAT_JEWELRY_14_cls-7,.GUNDAN_RAT_JEWELRY_RAT_JEWELRY_14_cls-8{stroke-width:0.85px;}.GUNDAN_RAT_JEWELRY_RAT_JEWELRY_14_cls-12,.GUNDAN_RAT_JEWELRY_RAT_JEWELRY_14_cls-8{fill:#c03d00;}.GUNDAN_RAT_JEWELRY_RAT_JEWELRY_14_cls-9{fill:#fff;}.GUNDAN_RAT_JEWELRY_RAT_JEWELRY_14_cls-11,.GUNDAN_RAT_JEWELRY_RAT_JEWELRY_14_cls-12,.GUNDAN_RAT_JEWELRY_RAT_JEWELRY_14_cls-13{stroke-width:0.82px;}</style>
  </defs>
  <g id="Necklace">
    <line class="GUNDAN_RAT_JEWELRY_RAT_JEWELRY_14_cls-1" x1="212.12" y1="362.57" x2="212.17" y2="366.94" />
    <path class="GUNDAN_RAT_JEWELRY_RAT_JEWELRY_14_cls-2" d="M203.93,376.72c3.72,1.34,5.54-1,5.54-1L208,380.17A37.76,37.76,0,0,1,203.93,376.72Z" />
    <path class="GUNDAN_RAT_JEWELRY_RAT_JEWELRY_14_cls-2" d="M212.71,385.15c8.31-5.23,12.08-12.09,12.06-16.42a4.67,4.67,0,0,0-2.35-4.38,6.32,6.32,0,0,0-3.09-.89c-3.54,0-5.79,3.81-5.82,3.84l0,.07-.82,1.11-.48.64-1.31-1.75,0-.07s-2.24-3.84-5.81-3.84a6.36,6.36,0,0,0-3.1.89,4.68,4.68,0,0,0-2.34,4.38c0,4.42,3.91,11.49,12.6,16.76Zm10.31-22c6.52,3.68,2.32,16.24-10.85,23.9-13.17-7.66-17.38-20.22-10.86-23.9s10.6,3.44,10.6,3.44l.26.35.25-.35S216.5,359.47,223,363.15Z" />
    <path class="GUNDAN_RAT_JEWELRY_RAT_JEWELRY_14_cls-3" d="M223,363.15c-6.52-3.68-10.6,3.44-10.6,3.44l-.25.35-.26-.35s-4.08-7.12-10.6-3.44-2.31,16.24,10.86,23.9C225.34,379.39,229.54,366.83,223,363.15Z" />
    <path class="GUNDAN_RAT_JEWELRY_RAT_JEWELRY_14_cls-3" d="M212.71,385.15l-.54.34c-8.69-5.27-12.63-12.34-12.6-16.76a4.68,4.68,0,0,1,2.34-4.38,6.36,6.36,0,0,1,3.1-.89c3.57,0,5.78,3.8,5.81,3.84l0,.07,1.31,1.75.48-.64.82-1.11,0-.07s2.28-3.84,5.82-3.84a6.32,6.32,0,0,1,3.09.89,4.67,4.67,0,0,1,2.35,4.38C224.79,373.06,221,379.92,212.71,385.15Z" />
    <polyline class="GUNDAN_RAT_JEWELRY_RAT_JEWELRY_14_cls-3" points="212.65 368.48 213.4 370.9 211.49 373.43 212.44 375.46 209.47 380.9 213.14 383.66 212.71 385.15" />
    <path class="GUNDAN_RAT_JEWELRY_RAT_JEWELRY_14_cls-4" d="M209.47,375.73s-1.82,2.33-5.54,1a37.76,37.76,0,0,0,4.07,3.45Z" />
    <ellipse class="GUNDAN_RAT_JEWELRY_RAT_JEWELRY_14_cls-2" cx="205.66" cy="370.54" rx="1.64" ry="1.73" />
    <path d="M205.66,369a1.56,1.56,0,1,1-1.46,1.56,1.51,1.51,0,0,1,1.46-1.56m0-.35a1.91,1.91,0,1,0,1.81,1.91,1.86,1.86,0,0,0-1.81-1.91Z" />
    <ellipse class="GUNDAN_RAT_JEWELRY_RAT_JEWELRY_14_cls-2" cx="205.66" cy="370.54" rx="1.53" ry="1.62" />
    <path d="M205.66,369.09a1.45,1.45,0,1,1-1.36,1.45,1.41,1.41,0,0,1,1.36-1.45m0-.35a1.8,1.8,0,1,0,1.71,1.8,1.76,1.76,0,0,0-1.71-1.8Z" />
    <path class="GUNDAN_RAT_JEWELRY_RAT_JEWELRY_14_cls-2" d="M205.24,375.91a4.85,4.85,0,0,1-.53-.08.18.18,0,0,1-.14-.2l.11-.59a3,3,0,0,1-.6-.2l-.23.54a.18.18,0,0,1-.09.1h-.07a.1.1,0,0,1-.07,0,3.62,3.62,0,0,1-.48-.25.17.17,0,0,1-.06-.23l.28-.53a4,4,0,0,1-.52-.4l-.37.43a.14.14,0,0,1-.12.06h0a.18.18,0,0,1-.12-.05,5,5,0,0,1-.38-.41.17.17,0,0,1,0-.24l.42-.39c-.13-.18-.26-.37-.37-.56l-.47.27-.09,0h0a.19.19,0,0,1-.11-.09c-.08-.16-.16-.34-.23-.51a.17.17,0,0,1,.09-.22l.52-.23c-.07-.22-.13-.44-.18-.67l-.57.1a.19.19,0,0,1-.1,0,.19.19,0,0,1-.07-.11,5.51,5.51,0,0,1-.06-.57.17.17,0,0,1,.16-.18l.55,0v-.1a3.81,3.81,0,0,1,0-.59l-.55-.1a.16.16,0,0,1-.14-.19c0-.19.07-.38.11-.56a.2.2,0,0,1,.09-.11l.08,0h0l.53.16a6.05,6.05,0,0,1,.24-.64l-.49-.28a.18.18,0,0,1-.07-.23,4.76,4.76,0,0,1,.28-.49.18.18,0,0,1,.11-.08h0a.19.19,0,0,1,.1,0l.45.33a4.06,4.06,0,0,1,.42-.51l-.39-.45a.17.17,0,0,1,0-.23,3.7,3.7,0,0,1,.42-.37.21.21,0,0,1,.1,0h0a.15.15,0,0,1,.12.07l.32.47a4.53,4.53,0,0,1,.55-.34l-.23-.56a.18.18,0,0,1,.09-.22,3.07,3.07,0,0,1,.5-.2h.06a.12.12,0,0,1,.08,0,.22.22,0,0,1,.09.1l.16.56a4.56,4.56,0,0,1,.62-.13l0-.59a.17.17,0,0,1,.15-.19l.43,0h.11a.18.18,0,0,1,.17.18v.6a3.2,3.2,0,0,1,.62.09l.14-.58a.21.21,0,0,1,.08-.11l.09,0h0a4.48,4.48,0,0,1,.52.16.18.18,0,0,1,.1.22l-.2.57a3.1,3.1,0,0,1,.57.3l.3-.49a.15.15,0,0,1,.11-.08h0a.19.19,0,0,1,.1,0c.14.1.29.22.43.34a.16.16,0,0,1,0,.23l-.35.47a4.22,4.22,0,0,1,.45.49l.42-.36a.19.19,0,0,1,.12,0h0a.17.17,0,0,1,.12.07,4.66,4.66,0,0,1,.3.47.16.16,0,0,1-.05.23l-.48.32a4.34,4.34,0,0,1,.28.62l.52-.19h.13a.14.14,0,0,1,.09.11,4.94,4.94,0,0,1,.15.55.17.17,0,0,1-.13.2l-.54.13a5.4,5.4,0,0,1,.08.69h.55a.18.18,0,0,1,.17.15,5.47,5.47,0,0,1,0,.6.17.17,0,0,1-.06.12.15.15,0,0,1-.11,0l-.56-.06a5,5,0,0,1-.15.67l.53.2a.16.16,0,0,1,.11.21c-.06.18-.13.36-.2.53a.19.19,0,0,1-.1.1h-.06l-.08,0-.5-.25a4.24,4.24,0,0,1-.33.59l.44.37a.16.16,0,0,1,0,.23,5,5,0,0,1-.35.43.16.16,0,0,1-.13.06h0a.17.17,0,0,1-.12-.05l-.4-.4a4.07,4.07,0,0,1-.49.43l.31.5a.18.18,0,0,1-.05.24,4.34,4.34,0,0,1-.46.28l-.08,0h-.06a.22.22,0,0,1-.1-.09l-.25-.52a4.24,4.24,0,0,1-.59.23l.14.59a.17.17,0,0,1-.13.2,3.12,3.12,0,0,1-.53.11h0a.21.21,0,0,1-.11,0,.19.19,0,0,1-.07-.11l-.07-.59-.45,0h-.18l0,.59a.14.14,0,0,1-.06.12.15.15,0,0,1-.11,0Zm.42-9a3.64,3.64,0,1,0,3.41,3.64A3.53,3.53,0,0,0,205.66,366.9Z" />
    <path d="M205.66,365.32h.11l0,.76a4.1,4.1,0,0,1,.93.14l.18-.75a4.75,4.75,0,0,1,.49.17l-.24.72a3.89,3.89,0,0,1,.83.44l.4-.64q.21.15.42.33l-.46.59a4.55,4.55,0,0,1,.66.72l.57-.48c.1.15.2.3.29.45l-.61.41a4.59,4.59,0,0,1,.41.9l.68-.25c0,.17.1.35.14.53l-.7.17a4.64,4.64,0,0,1,.11,1h.72a5.25,5.25,0,0,1,0,.56l-.72-.08a4.52,4.52,0,0,1-.2,1l.68.25a4.45,4.45,0,0,1-.19.51l-.66-.32a4.47,4.47,0,0,1-.49.85l.57.47a3.47,3.47,0,0,1-.34.42l-.52-.54a4.34,4.34,0,0,1-.72.64l.4.64c-.15.1-.3.2-.45.28l-.33-.68a3.94,3.94,0,0,1-.88.35l.18.75a4.59,4.59,0,0,1-.51.1l-.1-.76a4,4,0,0,1-.6.05l-.34,0-.06.77a4.67,4.67,0,0,1-.52-.08l.14-.75a3.66,3.66,0,0,1-.9-.3l-.29.71-.46-.25.36-.67a4,4,0,0,1-.76-.59l-.49.57a4.48,4.48,0,0,1-.36-.4l.54-.51a4.39,4.39,0,0,1-.54-.81l-.63.36c-.08-.16-.16-.33-.23-.5l.67-.29a4.83,4.83,0,0,1-.26-1l-.71.13c0-.18,0-.37-.06-.55l.72-.05v-.26a5.71,5.71,0,0,1,.05-.73l-.71-.13c0-.18.07-.36.11-.54l.7.21a4.15,4.15,0,0,1,.35-.93l-.64-.36c.09-.17.18-.32.28-.48l.59.44a4.52,4.52,0,0,1,.61-.76l-.49-.56.4-.35.43.61a4.53,4.53,0,0,1,.81-.5l-.29-.7a5,5,0,0,1,.49-.2l.22.73a4,4,0,0,1,.92-.19l-.06-.77h.41m0,9a3.82,3.82,0,1,0-3.58-3.81,3.7,3.7,0,0,0,3.58,3.81m0-9.38-.44,0a.35.35,0,0,0-.32.37l0,.44c-.11,0-.21,0-.32.06l-.12-.4a.35.35,0,0,0-.17-.21.47.47,0,0,0-.16,0l-.11,0a4.71,4.71,0,0,0-.52.21.35.35,0,0,0-.18.45l.17.41a2.61,2.61,0,0,0-.28.17l-.23-.32a.38.38,0,0,0-.24-.15h-.05a.4.4,0,0,0-.21.07c-.15.12-.29.25-.43.38a.35.35,0,0,0,0,.48l.28.32c-.07.09-.15.18-.22.28l-.31-.23a.36.36,0,0,0-.2-.06h-.07a.38.38,0,0,0-.23.16c-.1.16-.2.33-.29.5a.36.36,0,0,0,.14.46l.36.2c-.05.12-.1.24-.14.36l-.36-.11-.1,0a.35.35,0,0,0-.33.26c0,.19-.09.39-.12.58a.35.35,0,0,0,.28.4l.39.06c0,.13,0,.26,0,.39l-.39,0a.35.35,0,0,0-.32.37,5.7,5.7,0,0,0,.06.58.31.31,0,0,0,.14.23.37.37,0,0,0,.2.07h.06l.38-.07c0,.13.06.25.1.37l-.37.17a.33.33,0,0,0-.19.44,5.05,5.05,0,0,0,.24.53.34.34,0,0,0,.21.18h.1a.26.26,0,0,0,.17-.05l.33-.19a3.28,3.28,0,0,0,.2.31l-.31.29a.34.34,0,0,0,0,.47,5.22,5.22,0,0,0,.39.43.35.35,0,0,0,.24.1h0a.3.3,0,0,0,.24-.12l.26-.29.27.21-.21.38a.34.34,0,0,0,.13.46,4.82,4.82,0,0,0,.5.27.32.32,0,0,0,.14,0,.27.27,0,0,0,.13,0,.3.3,0,0,0,.19-.19l.16-.38.31.1-.08.43a.34.34,0,0,0,.28.4,3.31,3.31,0,0,0,.55.08h0a.3.3,0,0,0,.22-.08.36.36,0,0,0,.13-.24l0-.42H206l0,.42a.33.33,0,0,0,.14.23.31.31,0,0,0,.21.07h0a5.41,5.41,0,0,0,.55-.12.34.34,0,0,0,.24-.42l-.1-.42.31-.12.17.36a.34.34,0,0,0,.21.18l.11,0a.32.32,0,0,0,.16,0,3.88,3.88,0,0,0,.48-.3.34.34,0,0,0,.1-.47l-.23-.37.26-.23.27.28a.36.36,0,0,0,.25.11h0a.42.42,0,0,0,.25-.12,4.94,4.94,0,0,0,.36-.44.35.35,0,0,0-.06-.48l-.32-.27.18-.31.34.16a.29.29,0,0,0,.16,0l.11,0a.31.31,0,0,0,.2-.19,5,5,0,0,0,.21-.54.35.35,0,0,0-.21-.44l-.38-.13c0-.13.06-.25.08-.38l.38,0h0a.34.34,0,0,0,.22-.07.33.33,0,0,0,.12-.24,5.68,5.68,0,0,0,0-.59.35.35,0,0,0-.34-.35h-.39c0-.13,0-.26,0-.39l.38-.09a.34.34,0,0,0,.26-.41q-.06-.29-.15-.57a.35.35,0,0,0-.18-.2.28.28,0,0,0-.15,0l-.12,0-.36.13c0-.11-.1-.22-.15-.33l.35-.24a.34.34,0,0,0,.1-.46,3.94,3.94,0,0,0-.31-.48.35.35,0,0,0-.24-.14h0a.38.38,0,0,0-.23.08l-.29.25-.24-.26.26-.34a.36.36,0,0,0-.05-.48,4.7,4.7,0,0,0-.44-.34.31.31,0,0,0-.2-.07h-.07a.35.35,0,0,0-.23.16l-.21.34c-.1-.05-.19-.11-.29-.15l.14-.42a.35.35,0,0,0-.2-.44,3.27,3.27,0,0,0-.53-.17h-.09a.34.34,0,0,0-.18,0,.36.36,0,0,0-.16.22l-.1.41-.31,0v-.44a.35.35,0,0,0-.34-.35Zm0,9a3.47,3.47,0,1,1,3.23-3.46,3.36,3.36,0,0,1-3.23,3.46Z" />
    <path class="GUNDAN_RAT_JEWELRY_RAT_JEWELRY_14_cls-5" d="M220.14,369.32a1.08,1.08,0,1,1,1-1.08A1.05,1.05,0,0,1,220.14,369.32Z" />
    <path d="M220.14,367.26a1,1,0,1,1-.92,1,1,1,0,0,1,.92-1m0-.19a1.17,1.17,0,1,0,1.11,1.17,1.15,1.15,0,0,0-1.11-1.17Z" />
    <path class="GUNDAN_RAT_JEWELRY_RAT_JEWELRY_14_cls-5" d="M219.73,371.47a.08.08,0,0,1-.08-.1l0-.2-.38-.1-.07.19a.07.07,0,0,1,0,.05h-.07l-.2-.09a.08.08,0,0,1,0-.11l.08-.19a2.39,2.39,0,0,1-.34-.21l-.11.16a.07.07,0,0,1-.06,0h-.07l-.17-.14a.09.09,0,0,1,0-.12l.13-.16a4.11,4.11,0,0,1-.29-.3l-.14.12a.07.07,0,0,1-.06,0h0l-.06,0-.13-.18a.1.1,0,0,1,0-.12l.15-.12a2.58,2.58,0,0,1-.19-.37l-.17.08h-.07a.06.06,0,0,1,0,0,1.19,1.19,0,0,1-.08-.2.1.1,0,0,1,.05-.12l.19-.07a1.89,1.89,0,0,1-.1-.41l-.2,0-.05,0s0,0,0-.06a1.64,1.64,0,0,1,0-.22.1.1,0,0,1,.08-.1h.19v-.12c0-.1,0-.21,0-.31l-.18,0a.08.08,0,0,1-.08-.1l0-.22,0-.06h.05l.2,0a2.67,2.67,0,0,1,.13-.4l-.18-.09a.09.09,0,0,1-.05-.11l.09-.2s0,0,.06-.05h.07l.16.09c.07-.13.14-.24.22-.36l-.15-.13a.08.08,0,0,1,0-.12,1.15,1.15,0,0,1,.14-.17.07.07,0,0,1,.06,0h0a.09.09,0,0,1,.07,0l.13.13a2.52,2.52,0,0,1,.3-.27l-.11-.18a.08.08,0,0,1,0-.12l.17-.12.05,0h0a.07.07,0,0,1,.06,0l.1.17a2.31,2.31,0,0,1,.35-.18l-.07-.2a.1.1,0,0,1,.06-.11l.2-.07h.07a.09.09,0,0,1,0,.06l.05.19.39-.07,0-.21a.09.09,0,0,1,.09-.09h.21l.06,0a.07.07,0,0,1,0,.06v.2l.39,0,0-.19a.09.09,0,0,1,0-.06l.05,0,.23.06a.09.09,0,0,1,.06.11l-.05.2a2.75,2.75,0,0,1,.36.15l.09-.18a.07.07,0,0,1,0,0h.07l.19.11a.1.1,0,0,1,0,.12l-.11.18.32.26.12-.15a.09.09,0,0,1,.07,0h0a.09.09,0,0,1,.07,0l.14.15a.09.09,0,0,1,0,.13l-.14.14c.08.1.16.22.24.34l.16-.11h.07l.06,0,.1.2a.1.1,0,0,1,0,.12l-.17.09a2.74,2.74,0,0,1,.15.4l.17-.06h.07s0,0,0,.06,0,.14.05.21a.09.09,0,0,1-.07.11l-.19,0a3,3,0,0,1,.05.42h.18a.09.09,0,0,1,.07,0,.14.14,0,0,1,0,.06v.23l0,.07-.06,0-.2,0a1.84,1.84,0,0,1-.07.42l.19.06a.09.09,0,0,1,.06.11l-.06.21,0,.06h-.07l-.18-.07a2.2,2.2,0,0,1-.17.39l.17.1a.1.1,0,0,1,0,.12l-.12.19a.07.07,0,0,1-.06,0h0l-.06,0-.15-.11a2.6,2.6,0,0,1-.26.32l.13.15a.08.08,0,0,1,0,.12l-.16.15-.06,0h0l-.06,0-.12-.16a2.35,2.35,0,0,1-.32.23l.09.19a.1.1,0,0,1,0,.12l-.19.09h-.07a.06.06,0,0,1-.05-.05l-.08-.18a2.32,2.32,0,0,1-.37.13l0,.2a.08.08,0,0,1-.07.1l-.22,0h-.06a.15.15,0,0,1,0-.07l0-.2-.29,0H220v.2a.06.06,0,0,1,0,.06l-.06,0Zm.41-5.52a2.29,2.29,0,1,0,2.15,2.29A2.23,2.23,0,0,0,220.14,366Z" />
    <path d="M220.14,365.07v.29h0a2.51,2.51,0,0,1,.55.06l.05-.28.2.05-.07.28a2.31,2.31,0,0,1,.51.22l.13-.27.18.11-.15.25a2.17,2.17,0,0,1,.44.36l.19-.22.15.15-.21.21a3,3,0,0,1,.34.46l.24-.15.1.19-.25.13a2.79,2.79,0,0,1,.2.55l.27-.08a1.6,1.6,0,0,1,.05.21l-.27.06a2.78,2.78,0,0,1,.06.58h.27v.22l-.28,0a3.69,3.69,0,0,1-.09.58l.26.08-.06.2-.26-.1a2.61,2.61,0,0,1-.24.54l.24.15-.11.18-.23-.17a3.13,3.13,0,0,1-.36.44l.19.22a1.07,1.07,0,0,1-.16.14l-.17-.23a3,3,0,0,1-.46.33l.12.26-.18.09-.11-.27a2.37,2.37,0,0,1-.53.18l.06.29-.2,0,0-.29a2.22,2.22,0,0,1-.37,0H220l0,.3-.2,0,0-.29a2.38,2.38,0,0,1-.54-.14l-.09.28-.19-.08.11-.27a2.36,2.36,0,0,1-.48-.29l-.16.24-.17-.13.18-.23a2.16,2.16,0,0,1-.39-.41l-.22.18-.12-.17.23-.17a3.15,3.15,0,0,1-.28-.51l-.25.12c0-.07,0-.14-.07-.2l.26-.1a2.93,2.93,0,0,1-.13-.57l-.28,0a1.64,1.64,0,0,1,0-.22l.28,0a1.27,1.27,0,0,1,0-.2c0-.13,0-.26,0-.39l-.27,0,0-.21.27.06a3.31,3.31,0,0,1,.17-.56l-.25-.12a1.54,1.54,0,0,1,.08-.19l.25.13a4,4,0,0,1,.3-.49l-.21-.19.13-.16.21.2a3,3,0,0,1,.41-.39l-.16-.24.17-.12.15.26a2.87,2.87,0,0,1,.49-.26l-.09-.27.19-.07.08.28a3.22,3.22,0,0,1,.54-.1l0-.29h.21m0,5.56a2.39,2.39,0,1,0-2.24-2.39,2.32,2.32,0,0,0,2.24,2.39m0-5.74h-.22a.19.19,0,0,0-.17.19v.12l-.22,0,0-.11a.19.19,0,0,0-.09-.11l-.09,0h-.05l-.2.07a.17.17,0,0,0-.11.22l0,.12-.21.11-.05-.1a.2.2,0,0,0-.12-.08h0a.19.19,0,0,0-.1,0l-.18.13a.17.17,0,0,0,0,.24l.07.11-.18.16-.07-.07a.19.19,0,0,0-.13-.05h0a.16.16,0,0,0-.13.06l-.15.17a.2.2,0,0,0,0,.25l.09.08a2.39,2.39,0,0,0-.13.21l-.09,0a.15.15,0,0,0-.09,0h-.05a.18.18,0,0,0-.11.1l-.09.2a.18.18,0,0,0,.09.24l.1,0c0,.09-.05.17-.07.25l-.1,0h0a.19.19,0,0,0-.1,0,.15.15,0,0,0-.07.12,1.7,1.7,0,0,0,0,.22.18.18,0,0,0,.15.2l.11,0a1.77,1.77,0,0,0,0,.23v0h-.1a.18.18,0,0,0-.17.19,1.64,1.64,0,0,0,0,.23.19.19,0,0,0,.07.12.15.15,0,0,0,.11,0h0l.09,0,.06.26-.1,0a.18.18,0,0,0-.11.22c0,.08.05.15.08.22a.24.24,0,0,0,.1.1h.07l.08,0,.08,0,.12.23-.09.07a.17.17,0,0,0,0,.24,1.18,1.18,0,0,0,.13.18.15.15,0,0,0,.12.07h0a.17.17,0,0,0,.12-.05l.07-.06.17.18-.07.09a.18.18,0,0,0,0,.25l.18.14a.2.2,0,0,0,.11,0h0a.16.16,0,0,0,.12-.08l0-.08.21.12-.05.11a.18.18,0,0,0,.09.24l.2.08h.07a.1.1,0,0,0,.07,0,.17.17,0,0,0,.1-.1l0-.11.22.06v.12a.18.18,0,0,0,.15.2l.22,0h0a.17.17,0,0,0,.12,0,.16.16,0,0,0,.06-.12v-.12h.23v.12a.21.21,0,0,0,.07.12.2.2,0,0,0,.11,0h0l.21,0a.17.17,0,0,0,.14-.21l0-.12.21-.07,0,.1a.24.24,0,0,0,.1.1h.07a.12.12,0,0,0,.08,0l.19-.09a.19.19,0,0,0,.08-.24l-.06-.11.2-.14.06.08a.17.17,0,0,0,.13.07h0a.16.16,0,0,0,.12,0l.16-.15a.18.18,0,0,0,0-.25l-.08-.09c.06-.06.11-.13.16-.19l.08.06a.2.2,0,0,0,.11,0h0a.2.2,0,0,0,.12-.08l.12-.19a.19.19,0,0,0-.06-.24l-.1-.07c0-.07.07-.15.11-.23l.09,0H223a.17.17,0,0,0,.09-.11,1.42,1.42,0,0,0,.07-.22.19.19,0,0,0-.13-.22l-.1,0a2,2,0,0,0,0-.26h.12a.21.21,0,0,0,.12-.05.23.23,0,0,0,.06-.12v-.23a.19.19,0,0,0-.05-.13.2.2,0,0,0-.13-.06H223a2.28,2.28,0,0,0,0-.26l.1,0a.2.2,0,0,0,.14-.22c0-.07,0-.14-.05-.22a.2.2,0,0,0-.09-.11l-.09,0h0l-.09,0a2.44,2.44,0,0,0-.1-.24l.1-.05a.19.19,0,0,0,.08-.24,1.28,1.28,0,0,0-.11-.2.14.14,0,0,0-.11-.09h0a.17.17,0,0,0-.1,0l-.09.05a1.43,1.43,0,0,0-.14-.2l.08-.09a.18.18,0,0,0,0-.25l-.15-.16a.19.19,0,0,0-.13-.05h0a.16.16,0,0,0-.13.06l-.07.08-.19-.15.06-.11a.17.17,0,0,0-.06-.24l-.18-.12-.09,0h-.06a.22.22,0,0,0-.1.09l0,.1-.22-.09,0-.12A.19.19,0,0,0,221,365l-.21-.05h0a.19.19,0,0,0-.1,0,.15.15,0,0,0-.07.12l0,.11-.22,0v-.12a.17.17,0,0,0-.18-.18Zm0,5.55a2.2,2.2,0,1,1,2.06-2.2,2.14,2.14,0,0,1-2.06,2.2Z" />
    <path class="GUNDAN_RAT_JEWELRY_RAT_JEWELRY_14_cls-5" d="M216.54,374.43a1.08,1.08,0,1,1,1-1.07A1,1,0,0,1,216.54,374.43Z" />
    <path d="M216.54,372.37a1,1,0,1,1-.93,1,1,1,0,0,1,.93-1m0-.18a1.17,1.17,0,1,0,1.11,1.17,1.14,1.14,0,0,0-1.11-1.17Z" />
    <path class="GUNDAN_RAT_JEWELRY_RAT_JEWELRY_14_cls-5" d="M216.12,376.59a.1.1,0,0,1-.08-.1l0-.21a1.78,1.78,0,0,1-.38-.1l-.06.19a.1.1,0,0,1,0,.06h-.07l-.2-.08a.09.09,0,0,1,0-.12l.08-.19-.35-.2-.1.16-.06,0h0l0,0-.17-.13a.09.09,0,0,1,0-.13l.12-.16a2.68,2.68,0,0,1-.28-.3l-.14.13-.06,0h0a.07.07,0,0,1-.06,0,1.09,1.09,0,0,1-.13-.17.09.09,0,0,1,0-.13l.16-.12c-.07-.11-.14-.24-.2-.36l-.17.07h-.07l-.05,0-.08-.21a.09.09,0,0,1,.06-.11l.18-.07c0-.14-.07-.27-.1-.42l-.19,0a.07.07,0,0,1-.06,0,.06.06,0,0,1,0-.06l0-.22a.09.09,0,0,1,.09-.09l.19,0a.45.45,0,0,1,0-.11,3,3,0,0,1,0-.31l-.19,0a.1.1,0,0,1-.08-.1c0-.07,0-.15,0-.22a.07.07,0,0,1,0-.06l.05,0,.2.05a2.77,2.77,0,0,1,.12-.41l-.18-.08a.09.09,0,0,1,0-.12l.09-.2a.12.12,0,0,1,.05-.05h.07l.17.09a2.56,2.56,0,0,1,.22-.35l-.16-.13a.1.1,0,0,1,0-.13l.14-.16s0,0,.06,0h0l.06,0,.14.14a2.54,2.54,0,0,1,.29-.28l-.11-.17a.08.08,0,0,1,0-.12l.18-.13H215a.1.1,0,0,1,.05,0l.1.18a2.91,2.91,0,0,1,.35-.18l-.06-.2a.1.1,0,0,1,.05-.12l.2-.06h.07l0,.06.05.2a1.59,1.59,0,0,1,.38-.07v-.21a.1.1,0,0,1,.08-.1h.21a.09.09,0,0,1,.09.09v.2a2.34,2.34,0,0,1,.39,0l0-.2a.07.07,0,0,1,0-.05l0,0,.22,0a.09.09,0,0,1,.06.11l0,.2.37.16.08-.18s0,0,.06-.05H218l.18.11a.09.09,0,0,1,0,.12l-.1.18a2.42,2.42,0,0,1,.31.25l.13-.15.06,0h0a.09.09,0,0,1,.06,0l.15.16a.09.09,0,0,1,0,.12l-.15.14a2.62,2.62,0,0,1,.24.34l.16-.1.05,0h0a.1.1,0,0,1,.06.05,1.74,1.74,0,0,1,.1.19.09.09,0,0,1,0,.12l-.17.1a2.26,2.26,0,0,1,.15.39l.18,0h.07s0,0,0,.06a1.42,1.42,0,0,1,0,.22.09.09,0,0,1-.07.1l-.18,0a3,3,0,0,1,0,.43h.19l.06,0a.09.09,0,0,1,0,.07,1.69,1.69,0,0,1,0,.23.07.07,0,0,1,0,.06.07.07,0,0,1-.06,0h-.19c0,.14,0,.28-.07.42l.18.05a.1.1,0,0,1,.07.11,1.42,1.42,0,0,1-.07.22.1.1,0,0,1,0,.05h-.08l-.17-.06c0,.13-.11.26-.17.38l.16.11a.08.08,0,0,1,0,.12,1.08,1.08,0,0,1-.11.18.07.07,0,0,1-.06,0h0l-.05,0-.15-.12a2.08,2.08,0,0,1-.27.32l.14.15a.11.11,0,0,1,0,.13l-.16.14-.06,0h0a.09.09,0,0,1-.06,0l-.12-.15a2.75,2.75,0,0,1-.33.23l.09.18a.08.08,0,0,1,0,.12l-.18.1h-.08l-.05-.05-.07-.18-.37.12,0,.2a.09.09,0,0,1-.07.11l-.21,0-.06,0a.07.07,0,0,1,0-.06l0-.2-.29,0h-.1v.21s0,0,0,.06l-.06,0Zm.42-5.53a2.3,2.3,0,1,0,2.15,2.3A2.23,2.23,0,0,0,216.54,371.06Z" />
    <path d="M216.53,370.19v.29h0a2.42,2.42,0,0,1,.54.06l.06-.29.2.05-.08.29a2.57,2.57,0,0,1,.52.21l.12-.26.18.1-.14.26a2.94,2.94,0,0,1,.44.35l.19-.22.14.16-.2.2a2.64,2.64,0,0,1,.33.47l.24-.16a1.74,1.74,0,0,1,.1.19l-.24.14a3.16,3.16,0,0,1,.2.54l.27-.08c0,.07,0,.14,0,.21l-.27.06a2.88,2.88,0,0,1,.06.59h.28a1.48,1.48,0,0,1,0,.21l-.28,0a2.7,2.7,0,0,1-.09.58l.27.08-.06.21-.27-.1a3.14,3.14,0,0,1-.23.53l.23.15a1.18,1.18,0,0,1-.11.19l-.22-.18a2.69,2.69,0,0,1-.37.45l.19.21-.15.15-.18-.23a2.51,2.51,0,0,1-.46.32l.13.26-.18.09-.11-.26a3.27,3.27,0,0,1-.53.17l.06.29-.21,0,0-.29-.37,0h-.19v.29l-.21,0,0-.29a3.58,3.58,0,0,1-.54-.14l-.09.28-.19-.08.11-.27a2.92,2.92,0,0,1-.48-.29l-.16.24-.16-.13.17-.23a3.13,3.13,0,0,1-.39-.42l-.21.19-.13-.17.23-.17a2.49,2.49,0,0,1-.27-.51l-.26.11c0-.06-.05-.13-.07-.2l.26-.1a3.39,3.39,0,0,1-.13-.57l-.27,0,0-.21.28,0c0-.07,0-.14,0-.2a2.47,2.47,0,0,1,0-.39l-.28,0a1.55,1.55,0,0,1,0-.21l.27,0a2.78,2.78,0,0,1,.17-.56l-.26-.11.09-.2.25.14a2.55,2.55,0,0,1,.3-.5l-.22-.18.14-.16.2.2A2.56,2.56,0,0,1,215,371l-.16-.24.17-.12.14.25a2.92,2.92,0,0,1,.5-.25l-.1-.28.2-.07.07.29a2.54,2.54,0,0,1,.55-.1l0-.3h.2m0,5.55a2.39,2.39,0,1,0-2.24-2.38,2.32,2.32,0,0,0,2.24,2.38m0-5.74h-.21a.19.19,0,0,0-.17.2v.12l-.23,0,0-.11a.15.15,0,0,0-.08-.11l-.09,0h0l-.21.07a.19.19,0,0,0-.11.23l0,.12-.2.1-.06-.09a.17.17,0,0,0-.11-.09h0a.17.17,0,0,0-.1,0l-.18.12a.19.19,0,0,0-.05.25l.07.1a1.37,1.37,0,0,0-.17.17l-.08-.07a.16.16,0,0,0-.12-.06h0a.21.21,0,0,0-.13.07,1.15,1.15,0,0,0-.14.17.18.18,0,0,0,0,.25l.08.07c0,.07-.09.14-.13.22l-.08-.05-.09,0h-.06a.18.18,0,0,0-.1.09,2,2,0,0,0-.1.21.19.19,0,0,0,.1.23l.1.05a1.83,1.83,0,0,0-.08.25l-.09,0h0a.17.17,0,0,0-.1,0,.2.2,0,0,0-.08.12c0,.08,0,.15,0,.23a.19.19,0,0,0,.16.2h.1a1.93,1.93,0,0,0,0,.24v0h-.1a.18.18,0,0,0-.17.19l0,.23a.17.17,0,0,0,.07.12.2.2,0,0,0,.11,0h.12l.06.25-.1,0a.18.18,0,0,0-.11.23,1.8,1.8,0,0,0,.08.21.17.17,0,0,0,.1.1h.14l.09,0,.12.22L214,375a.19.19,0,0,0-.05.25l.13.18a.21.21,0,0,0,.13.07h0a.28.28,0,0,0,.12,0l.07-.07.17.18-.08.1a.18.18,0,0,0,0,.24l.17.14a.15.15,0,0,0,.11,0h0a.2.2,0,0,0,.12-.08L215,376a1.06,1.06,0,0,0,.2.12l0,.12a.19.19,0,0,0,.1.23l.2.09h.06l.08,0a.17.17,0,0,0,.09-.11l0-.1.22.05,0,.13a.19.19,0,0,0,.16.2l.21,0h0a.19.19,0,0,0,.12,0,.31.31,0,0,0,.06-.13v-.11h.23l0,.11a.15.15,0,0,0,.07.12.14.14,0,0,0,.1,0h0l.21,0a.18.18,0,0,0,.14-.21l0-.12.22-.08,0,.1a.14.14,0,0,0,.1.1l.07,0,.07,0,.2-.1a.19.19,0,0,0,.07-.24l0-.11.19-.13.06.08a.21.21,0,0,0,.13.07h0a.21.21,0,0,0,.12-.05l.16-.15a.18.18,0,0,0,0-.25l-.08-.09c.05-.06.11-.12.16-.19l.07.06a.21.21,0,0,0,.11,0h0a.14.14,0,0,0,.12-.07l.12-.2a.18.18,0,0,0-.06-.24l-.1-.06a2.56,2.56,0,0,0,.11-.24l.09,0h.07l.07,0a.19.19,0,0,0,.1-.1l.06-.22a.18.18,0,0,0-.12-.22l-.1,0c0-.09,0-.18,0-.26h.11a.17.17,0,0,0,.12,0,.16.16,0,0,0,.06-.13,1.62,1.62,0,0,0,0-.22.24.24,0,0,0,0-.14.21.21,0,0,0-.13-.05h-.1l0-.27.1,0a.17.17,0,0,0,.14-.21,1.42,1.42,0,0,0,0-.22.14.14,0,0,0-.09-.11.11.11,0,0,0-.08,0h-.06l-.09,0-.09-.25.1-.05a.18.18,0,0,0,.07-.24l-.1-.2a.2.2,0,0,0-.12-.08h0a.19.19,0,0,0-.1,0l-.08.05-.15-.2.09-.08a.18.18,0,0,0,0-.25,1.21,1.21,0,0,0-.16-.16.14.14,0,0,0-.12-.06h0a.21.21,0,0,0-.13.07l-.07.07-.18-.15.06-.11a.18.18,0,0,0-.06-.24l-.19-.11a.15.15,0,0,0-.09,0h-.05a.14.14,0,0,0-.11.09l-.05.1a1,1,0,0,0-.21-.09l0-.12a.17.17,0,0,0-.12-.22l-.21-.06h0a.17.17,0,0,0-.1,0,.2.2,0,0,0-.08.12l0,.11-.23,0v-.11a.19.19,0,0,0-.05-.13.16.16,0,0,0-.13-.06Zm0,5.56a2.21,2.21,0,1,1,2.06-2.2,2.14,2.14,0,0,1-2.06,2.2Z" />
    <ellipse class="GUNDAN_RAT_JEWELRY_RAT_JEWELRY_14_cls-5" cx="217.46" cy="378.55" rx="0.58" ry="0.62" />
    <path d="M217.46,378a.57.57,0,1,1-.53.57.55.55,0,0,1,.53-.57m0-.1a.67.67,0,0,0,0,1.34.67.67,0,0,0,0-1.34Z" />
    <path class="GUNDAN_RAT_JEWELRY_RAT_JEWELRY_14_cls-5" d="M217.22,380.41l0-.23-.08,0a.79.79,0,0,1-.2,0l0,.12h-.18l0-.22h0a.41.41,0,0,1-.22-.11l0,.13-.17-.07.09-.2c-.08,0-.15-.08-.22-.17l-.05.11-.15-.11.14-.17c-.07,0-.13-.12-.17-.23l-.08.09-.11-.14.18-.13c-.07,0-.09-.15-.11-.27l-.1.07-.07-.17.21-.07-.06-.06a1.64,1.64,0,0,1,0-.23l-.11,0,0-.18H216a.35.35,0,0,1,0-.29h-.12l0-.18.22.05a.4.4,0,0,1,.1-.27l-.11,0a.27.27,0,0,1,.07-.17l.19.11c0-.08.09-.16.17-.22l-.1-.07.11-.14.16.16c0-.08.12-.13.22-.17l-.08-.09.14-.11.11.2c0-.07.15-.09.26-.09l-.06-.12.17-.06,0,.22a.18.18,0,0,1,.13,0l.15,0,0-.12a.26.26,0,0,1,.11,0h.07V377h0a.47.47,0,0,1,.22.07v-.13l.18,0-.07.22h0a.39.39,0,0,1,.23.14l0-.12.16.09-.12.18a.38.38,0,0,1,.2.21l.07-.11.13.13-.16.15c.07,0,.11.14.14.25l.09-.08.09.16-.19.1a.38.38,0,0,1,.07.28l.11-.05,0,.19-.21,0a.39.39,0,0,1,0,.3l.12,0v.19l-.22,0a.35.35,0,0,1-.08.28l.13,0-.05.18-.21-.09c0,.09-.06.17-.14.25l.11.06-.09.15-.18-.14c0,.08-.1.15-.2.2l.1.08-.13.13-.14-.18c0,.07-.13.11-.24.13l.07.1-.16.09-.08-.22c0,.06-.08.07-.16.07h-.1l0,.12a.05.05,0,0,1,0,0h-.16Zm.24-3.18a1.32,1.32,0,0,0,0,2.64,1.32,1.32,0,0,0,0-2.64Z" />
    <path d="M217.46,376.72v.17h0a1.17,1.17,0,0,1,.32,0l0-.17.11,0,0,.16a1.94,1.94,0,0,1,.3.13l.07-.15.1.06-.08.14a1.64,1.64,0,0,1,.25.21l.11-.13.08.09-.11.12a1.85,1.85,0,0,1,.19.27l.14-.09,0,.1-.14.08a1.75,1.75,0,0,1,.12.32l.15-.05,0,.12-.15,0a1.84,1.84,0,0,1,0,.33h.16a.49.49,0,0,1,0,.12H219a1.14,1.14,0,0,1,0,.33l.15.05,0,.12-.15-.06a1.73,1.73,0,0,1-.14.31l.14.09a.61.61,0,0,1-.07.1l-.13-.1a1.71,1.71,0,0,1-.21.26l.11.12-.09.08-.1-.13a2.48,2.48,0,0,1-.26.19l.07.15-.1.05-.07-.15a1.32,1.32,0,0,1-.3.1l0,.16-.11,0,0-.16h-.32v.17l-.12,0,0-.16-.31-.08-.05.16-.11,0,.06-.15-.27-.17-.1.14-.09-.08.1-.13a1.26,1.26,0,0,1-.22-.24l-.13.11a.61.61,0,0,0-.07-.1l.13-.1a1.59,1.59,0,0,1-.15-.29l-.15.07,0-.12.15-.06a1.59,1.59,0,0,1-.08-.33l-.16,0a.62.62,0,0,0,0-.13h.16v-.11a1.77,1.77,0,0,1,0-.23l-.16,0a.5.5,0,0,0,0-.12l.16,0a1.68,1.68,0,0,1,.09-.32l-.14-.07.05-.11.14.08a1.34,1.34,0,0,1,.18-.28l-.13-.11.08-.1.12.12a1.58,1.58,0,0,1,.23-.22l-.09-.14.1-.07.08.15a1.59,1.59,0,0,1,.29-.15l-.05-.16.11,0,0,.17a1.7,1.7,0,0,1,.31-.06v-.17h.12m0,3.2a1.37,1.37,0,1,0-1.29-1.37,1.34,1.34,0,0,0,1.29,1.37m0-3.3h-.13c-.05,0-.1.06-.09.11v.07l-.13,0v-.06a.13.13,0,0,0,0-.07H217l-.12,0a.1.1,0,0,0-.06.13l0,.07-.12.06,0-.05s0,0-.07-.05h-.08l-.1.08a.1.1,0,0,0,0,.14l0,.06-.1.09,0,0a.09.09,0,0,0-.07,0h0a.09.09,0,0,0-.07,0,.39.39,0,0,0-.08.1.11.11,0,0,0,0,.14l.05,0s-.05.08-.07.13l0,0h-.08a.1.1,0,0,0-.06.05l-.06.12a.11.11,0,0,0,.06.14l.05,0c0,.05,0,.1,0,.15h-.08l-.05,0a.12.12,0,0,0,0,.07s0,.09,0,.13a.09.09,0,0,0,.09.11h.06a.66.66,0,0,0,0,.14v0h-.06a.1.1,0,0,0-.09.11s0,.09,0,.13a.1.1,0,0,0,0,.07l.06,0h.08l0,.15-.06,0a.1.1,0,0,0-.06.13l0,.13.06.05h.08l0,0a.54.54,0,0,1,.07.13l-.05,0a.11.11,0,0,0,0,.14l.07.1a.08.08,0,0,0,.07,0h0l.07,0,0,0,.1.1,0,.06a.11.11,0,0,0,0,.14l.1.08a.07.07,0,0,0,.06,0h0a.08.08,0,0,0,.07,0l0-.05.12.07,0,.06a.12.12,0,0,0,.06.14l.11,0h.08a.09.09,0,0,0,.06-.06l0-.06.13,0v.07a.1.1,0,0,0,.09.12h.13l.07,0a.11.11,0,0,0,0-.08v-.06h.12v.07a.16.16,0,0,0,0,.07l.07,0h0l.12,0a.1.1,0,0,0,.08-.13v-.07l.13,0,0,.06a.09.09,0,0,0,.06.06h.08l.11-.06a.11.11,0,0,0,0-.14l0-.06.12-.08,0,0,.07,0h0a.09.09,0,0,0,.07,0l.1-.09a.11.11,0,0,0,0-.14l-.05-.05.1-.11,0,0a.07.07,0,0,0,.06,0h0a.1.1,0,0,0,.07,0l.07-.11a.1.1,0,0,0,0-.14l0,0,.06-.13,0,0h.08a.09.09,0,0,0,.06-.06l0-.12a.1.1,0,0,0-.07-.13l-.06,0,0-.15h.06a.09.09,0,0,0,.07,0,.16.16,0,0,0,0-.07v-.13a.11.11,0,0,0,0-.08.11.11,0,0,0-.07,0h-.06a.77.77,0,0,0,0-.15l.06,0a.1.1,0,0,0,.08-.12l0-.13a.07.07,0,0,0-.05-.06h-.08l-.05,0c0-.05,0-.1-.05-.14l.05,0a.11.11,0,0,0,.05-.14l-.06-.12a.1.1,0,0,0-.07,0h0l-.06,0-.05,0-.08-.12,0-.05a.1.1,0,0,0,0-.14l-.09-.09a.09.09,0,0,0-.07,0h0a.11.11,0,0,0-.08,0l0,.05-.1-.09,0-.06a.11.11,0,0,0,0-.14l-.11-.06-.05,0h0a.18.18,0,0,0-.07.05l0,.06-.13-.05,0-.07a.1.1,0,0,0-.07-.13l-.12,0h-.08a.1.1,0,0,0,0,.07l0,.06h-.13v-.07a.11.11,0,0,0,0-.07.09.09,0,0,0-.07,0Zm0,3.19a1.27,1.27,0,1,1,1.19-1.26,1.22,1.22,0,0,1-1.19,1.26Z" />
    <path class="GUNDAN_RAT_JEWELRY_RAT_JEWELRY_14_cls-6" d="M212.12,362.57a.58.58,0,0,1-.19,0,77.85,77.85,0,0,1-17-7.1c-11.62-6.6-18.9-15.19-21-24.86-.09-.42-.39-2.83,1.89-3a6.39,6.39,0,0,1-.17.65,6.08,6.08,0,0,0,0,3.46c6,20,33.82,28.5,36.49,29.23,2.06-.63,19.47-6.52,27.82-24.78a11.13,11.13,0,0,0-.15-2.94,2.65,2.65,0,0,1,1.58,3.6c-9.15,20-28.83,25.64-29,25.7Z" />
  </g>
  <g id="Jewellery">
    <path class="GUNDAN_RAT_JEWELRY_RAT_JEWELRY_14_cls-7" d="M142.53,217.05a6,6,0,0,1-3.56,5.36c-3.39,1.57-7.73-.64-8.56-4.82s2.4-4.88,2.4-4.88a5.49,5.49,0,0,1,1.69,1.57c-.24,0-2.06,2.21-1.33,3.82s4.82-.29,5.17-1.9a11.51,11.51,0,0,1,1-2.69A24.2,24.2,0,0,1,142.53,217.05Z" />
    <path class="GUNDAN_RAT_JEWELRY_RAT_JEWELRY_14_cls-8" d="M132.49,221.28a3.54,3.54,0,0,1,3.27-1.28,4.56,4.56,0,0,1,3,2.51,2.69,2.69,0,0,1-2.74,3.35C132.55,226.08,131.84,223.16,132.49,221.28Z" />
    <path class="GUNDAN_RAT_JEWELRY_RAT_JEWELRY_14_cls-9" d="M135,221.54s1.59.64,1.6,1.8a2.52,2.52,0,0,1-.46,1.68s1.9-1.23,1.22-2.66S135,221.54,135,221.54Z" />
    <path class="GUNDAN_RAT_JEWELRY_RAT_JEWELRY_14_cls-10" d="M144,219.26c-.47-.8-1-1.54-1.45-2.21a24.2,24.2,0,0,0-3.16-3.54c-.49-.46-.91-.81-1.21-1" />
    <path class="GUNDAN_RAT_JEWELRY_RAT_JEWELRY_14_cls-11" d="M136.81,208.34a5.77,5.77,0,0,1-4.44,4.29c-3.49.79-7.1-2.17-7-6.25s3.24-4.08,3.24-4.08a11.78,11.78,0,0,0,.71,2.27,2.69,2.69,0,0,0-1.47,2.85c.35,1.66,4.57.71,5.23-.73a11.12,11.12,0,0,1,1.52-2.31A24.29,24.29,0,0,1,136.81,208.34Z" />
    <path class="GUNDAN_RAT_JEWELRY_RAT_JEWELRY_14_cls-12" d="M126.54,210.26a3.42,3.42,0,0,1,3.33-.54,4.4,4.4,0,0,1,2.26,3,2.58,2.58,0,0,1-3.25,2.58C125.62,214.77,125.54,211.88,126.54,210.26Z" />
    <path class="GUNDAN_RAT_JEWELRY_RAT_JEWELRY_14_cls-9" d="M128.82,211s1.36.92,1.13,2a2.45,2.45,0,0,1-.77,1.48s2-.77,1.68-2.24S128.82,211,128.82,211Z" />
    <path class="GUNDAN_RAT_JEWELRY_RAT_JEWELRY_14_cls-13" d="M137.71,210.71c-.28-.85-.59-1.64-.91-2.37a23.62,23.62,0,0,0-2.23-4c-.37-.53-.69-.94-.93-1.23" />
  </g>
</svg>