<svg xmlns="http://www.w3.org/2000/svg" viewBox="0 0 432 432">
  <defs>
    <style>.GUNDAN_RAT_JEWELRY_RAT_JEWELRY_3_cls-1{fill:#aeaeaf;}.GUNDAN_RAT_JEWELRY_RAT_JEWELRY_3_cls-2{fill:#4a4a4a;}.GUNDAN_RAT_JEWELRY_RAT_JEWELRY_3_cls-11,.GUNDAN_RAT_JEWELRY_RAT_JEWELRY_3_cls-3{fill:#8b8b8b;}.GUNDAN_RAT_JEWELRY_RAT_JEWELRY_3_cls-14,.GUNDAN_RAT_JEWELRY_RAT_JEWELRY_3_cls-15,.GUNDAN_RAT_JEWELRY_RAT_JEWELRY_3_cls-4,.GUNDAN_RAT_JEWELRY_RAT_JEWELRY_3_cls-5{fill:none;}.GUNDAN_RAT_JEWELRY_RAT_JEWELRY_3_cls-11,.GUNDAN_RAT_JEWELRY_RAT_JEWELRY_3_cls-14,.GUNDAN_RAT_JEWELRY_RAT_JEWELRY_3_cls-15,.GUNDAN_RAT_JEWELRY_RAT_JEWELRY_3_cls-4,.GUNDAN_RAT_JEWELRY_RAT_JEWELRY_3_cls-5{stroke:#000;stroke-linecap:round;}.GUNDAN_RAT_JEWELRY_RAT_JEWELRY_3_cls-11,.GUNDAN_RAT_JEWELRY_RAT_JEWELRY_3_cls-15,.GUNDAN_RAT_JEWELRY_RAT_JEWELRY_3_cls-4,.GUNDAN_RAT_JEWELRY_RAT_JEWELRY_3_cls-5{stroke-linejoin:round;}.GUNDAN_RAT_JEWELRY_RAT_JEWELRY_3_cls-4{stroke-width:0.32px;}.GUNDAN_RAT_JEWELRY_RAT_JEWELRY_3_cls-5{stroke-width:0.3px;}.GUNDAN_RAT_JEWELRY_RAT_JEWELRY_3_cls-6{fill:#254922;}.GUNDAN_RAT_JEWELRY_RAT_JEWELRY_3_cls-7{fill:#45793b;}.GUNDAN_RAT_JEWELRY_RAT_JEWELRY_3_cls-8{fill:#92cb7b;}.GUNDAN_RAT_JEWELRY_RAT_JEWELRY_3_cls-9{fill:silver;}.GUNDAN_RAT_JEWELRY_RAT_JEWELRY_3_cls-10{fill:#878c84;}.GUNDAN_RAT_JEWELRY_RAT_JEWELRY_3_cls-11{stroke-width:0.26px;}.GUNDAN_RAT_JEWELRY_RAT_JEWELRY_3_cls-12{fill:#ed9547;}.GUNDAN_RAT_JEWELRY_RAT_JEWELRY_3_cls-13{fill:#facf56;}.GUNDAN_RAT_JEWELRY_RAT_JEWELRY_3_cls-14{stroke-miterlimit:10;stroke-width:0.9px;}.GUNDAN_RAT_JEWELRY_RAT_JEWELRY_3_cls-15{stroke-width:0.81px;}</style>
  </defs>
  <g id="Necklace">
    <circle cx="215.44" cy="340.97" r="1.06" />
    <path d="M179.43,319.81l.23-1.36a1.8,1.8,0,0,0-1.48.58" />
    <path class="GUNDAN_RAT_JEWELRY_RAT_JEWELRY_3_cls-1" d="M199,336.25s-.92-.64-1.72-1.09a0,0,0,0,1,0,0,1.11,1.11,0,0,0,.36-.32,1,1,0,0,0,.19-.38,5.91,5.91,0,0,1,1.23.68l.35.32A1.2,1.2,0,0,0,199,336.25Z" />
    <path class="GUNDAN_RAT_JEWELRY_RAT_JEWELRY_3_cls-1" d="M193.82,333.7a3.92,3.92,0,0,0,2.47,1h0a.66.66,0,0,0,.5-.23.55.55,0,0,0,.14-.34h0l.82.33a1,1,0,0,1-.19.38,1.11,1.11,0,0,1-.36.32,0,0,0,0,0,0,0,2.7,2.7,0,0,1-2.27,0c-1.09-.44-1.9-1-1.9-1.61a1.24,1.24,0,0,1,.41-.82,1.8,1.8,0,0,1,.36.39.49.49,0,0,0-.09.35A.53.53,0,0,0,193.82,333.7Z" />
    <path class="GUNDAN_RAT_JEWELRY_RAT_JEWELRY_3_cls-1" d="M180.18,321.7a.54.54,0,0,1-.2.28,1.12,1.12,0,0,1-1,.21.6.6,0,0,1,0-.24.78.78,0,0,1,.28-.29h0a1.49,1.49,0,0,0-.1-.48,1.67,1.67,0,0,0-.81.58s-.18-.35-.43-.79h0a1.62,1.62,0,0,1,.7-2.15h0c.89-.33.68.89.71.94a3.71,3.71,0,0,1,.74,1.26A1.13,1.13,0,0,1,180.18,321.7Z" />
    <path class="GUNDAN_RAT_JEWELRY_RAT_JEWELRY_3_cls-2" d="M180.18,321.7a1.07,1.07,0,0,0-.07-.69,3.91,3.91,0,0,1,1.93,1.37,2.06,2.06,0,0,1,.37,1.09l-.09-.06a1.86,1.86,0,0,0-.82-.36A2.88,2.88,0,0,0,180.18,321.7Z" />
    <path class="GUNDAN_RAT_JEWELRY_RAT_JEWELRY_3_cls-1" d="M178.4,321.76a1.67,1.67,0,0,1,.81-.58,1.49,1.49,0,0,1,.1.48h0a.64.64,0,0,0-.28.29.57.57,0,0,0,0,.24,3.14,3.14,0,0,0,1.37,1.7.91.91,0,0,0,.84.09,1,1,0,0,0,.25-.18c.07,0,.37.22.7.45a1.42,1.42,0,0,1-.44.35,1.56,1.56,0,0,1-.41.15,2.32,2.32,0,0,1-2.09-.83C178.48,323.12,178.07,322.33,178.4,321.76Z" />
    <path class="GUNDAN_RAT_JEWELRY_RAT_JEWELRY_3_cls-1" d="M181.3,324.75a1.56,1.56,0,0,0,.41-.15,1.42,1.42,0,0,0,.44-.35h0a5.47,5.47,0,0,1,1,.86l.28.36a1.4,1.4,0,0,0-.6.74h0A18.58,18.58,0,0,0,181.3,324.75Z" />
    <path class="GUNDAN_RAT_JEWELRY_RAT_JEWELRY_3_cls-3" d="M181.2,324a.91.91,0,0,1-.84-.09.4.4,0,0,1,0-.42,1.15,1.15,0,0,1,1.11-.42,1.86,1.86,0,0,1,.82.36l.09.06h0a9.81,9.81,0,0,1,1.89,1.62,1.13,1.13,0,0,1,.29.65.43.43,0,0,1-.11.3,1,1,0,0,1-.89.42.47.47,0,0,1,0-.23.57.57,0,0,1,.16-.34h0a2,2,0,0,0-.25-.44l-.28-.36a5.47,5.47,0,0,0-1-.86h0c-.33-.23-.63-.41-.7-.45A1,1,0,0,1,181.2,324Z" />
    <path class="GUNDAN_RAT_JEWELRY_RAT_JEWELRY_3_cls-2" d="M189.34,329.58a1.1,1.1,0,0,0-.22-.66h0a4.26,4.26,0,0,1,2.22,1,2.24,2.24,0,0,1,.62,1l-.1,0a2.1,2.1,0,0,0-.89-.22A3.32,3.32,0,0,0,189.34,329.58Z" />
    <path class="GUNDAN_RAT_JEWELRY_RAT_JEWELRY_3_cls-2" d="M186.23,326.66a3.36,3.36,0,0,0-1.64-.91,1.13,1.13,0,0,0-.29-.65,4.52,4.52,0,0,1,2.31.88,2.09,2.09,0,0,1,.77,1.19l-.08-.06A1.65,1.65,0,0,0,186.23,326.66Z" />
    <path class="GUNDAN_RAT_JEWELRY_RAT_JEWELRY_3_cls-1" d="M186.32,328.52a2.76,2.76,0,0,1-2-.43c-1-.61-1.62-1.27-1.48-1.89a1.4,1.4,0,0,1,.6-.74,2,2,0,0,1,.25.44h0a.57.57,0,0,0-.16.34.47.47,0,0,0,0,.23,3.7,3.7,0,0,0,1.95,1.36h0a.88.88,0,0,0,.77-.13.63.63,0,0,0,.17-.2c.14.1.4.29.69.52h0l-.15.16A1.4,1.4,0,0,1,186.32,328.52Z" />
    <path class="GUNDAN_RAT_JEWELRY_RAT_JEWELRY_3_cls-3" d="M185.55,327.83h0c-.26-.28-.36-.54-.16-.79a1.15,1.15,0,0,1,.85-.38,1.65,1.65,0,0,1,1.07.45l.08.06h0a8.91,8.91,0,0,1,1.73,1.74h0a1.1,1.1,0,0,1,.22.66h0a.44.44,0,0,1-.14.3,1.06,1.06,0,0,1-.92.36.45.45,0,0,1,0-.23.58.58,0,0,1,.2-.33,1.93,1.93,0,0,0-.22-.45q-.09-.17-.24-.39a4.38,4.38,0,0,0-.84-.82c-.29-.23-.55-.42-.69-.52a.63.63,0,0,1-.17.2A.88.88,0,0,1,185.55,327.83Z" />
    <path class="GUNDAN_RAT_JEWELRY_RAT_JEWELRY_3_cls-1" d="M187.18,328a4.38,4.38,0,0,1,.84.82q.15.23.24.39a1.47,1.47,0,0,0-.66.7,18.88,18.88,0,0,0-1.28-1.41,1.4,1.4,0,0,0,.7-.34l.15-.16Z" />
    <path class="GUNDAN_RAT_JEWELRY_RAT_JEWELRY_3_cls-1" d="M188.28,330.24a3.42,3.42,0,0,0,1.74,1.45.92.92,0,0,0,.86-.05.66.66,0,0,0,.2-.21c.08,0,.41.15.8.32a1.33,1.33,0,0,1-.73.63,2.47,2.47,0,0,1-2.25-.47c-.9-.67-1.5-1.38-1.3-2a1.47,1.47,0,0,1,.66-.7,1.93,1.93,0,0,1,.22.45.58.58,0,0,0-.2.33A.45.45,0,0,0,188.28,330.24Z" />
    <path class="GUNDAN_RAT_JEWELRY_RAT_JEWELRY_3_cls-1" d="M193.11,332.42a4.54,4.54,0,0,1,.36.31h0a1.24,1.24,0,0,0-.41.82h0a18.76,18.76,0,0,0-1.9-1.17h0a1.33,1.33,0,0,0,.73-.63A5.66,5.66,0,0,1,193.11,332.42Z" />
    <path class="GUNDAN_RAT_JEWELRY_RAT_JEWELRY_3_cls-3" d="M193.47,332.73a4.54,4.54,0,0,0-.36-.31,5.66,5.66,0,0,0-1.23-.67c-.39-.17-.72-.29-.8-.32a.66.66,0,0,1-.2.21.92.92,0,0,1-.86.05.36.36,0,0,1-.05-.41,1,1,0,0,1,1-.59,2.1,2.1,0,0,1,.89.22l.1,0a17.24,17.24,0,0,1,2.25,1.29l.4.47s0,.08,0,.11a.45.45,0,0,1,0,.32,1,1,0,0,1-.78.55.53.53,0,0,1-.08-.23.49.49,0,0,1,.09-.35,1.8,1.8,0,0,0-.36-.39Z" />
    <path class="GUNDAN_RAT_JEWELRY_RAT_JEWELRY_3_cls-2" d="M196.46,333.46a3.82,3.82,0,0,0-1.82-.63s0-.07,0-.11l-.4-.47a4.74,4.74,0,0,1,2.48.49,2.76,2.76,0,0,1,.92.8,1.72,1.72,0,0,0-1-.12Z" />
    <path class="GUNDAN_RAT_JEWELRY_RAT_JEWELRY_3_cls-3" d="M196.29,334.68c-.35-.21-.53-.43-.41-.71a1,1,0,0,1,.58-.51l.13,0a1.72,1.72,0,0,1,1,.12l.16.08.1.05h0a10.86,10.86,0,0,1,2.24,1.29h0a1.21,1.21,0,0,1,.43.58.5.5,0,0,1,0,.32.94.94,0,0,1-.79.54.4.4,0,0,1-.07-.22.5.5,0,0,1,.09-.36h0a2,2,0,0,0-.36-.38l-.35-.32a5.91,5.91,0,0,0-1.23-.68l-.82-.33h0a.55.55,0,0,1-.14.34.66.66,0,0,1-.5.23h0Z" />
    <path class="GUNDAN_RAT_JEWELRY_RAT_JEWELRY_3_cls-2" d="M202.59,335.48a2.52,2.52,0,0,1,.92.83l-.11,0a2.15,2.15,0,0,0-.94,0,3.85,3.85,0,0,0-1.92-.72,1.21,1.21,0,0,0-.43-.58A4.61,4.61,0,0,1,202.59,335.48Z" />
    <path class="GUNDAN_RAT_JEWELRY_RAT_JEWELRY_3_cls-1" d="M203.19,337.84a2.61,2.61,0,0,1-2.35,0c-1.08-.45-1.89-1-1.89-1.62h0a1.2,1.2,0,0,1,.42-.8,2,2,0,0,1,.36.38h0a.5.5,0,0,0-.09.36.4.4,0,0,0,.07.22,4.13,4.13,0,0,0,2.16,1,.9.9,0,0,0,.82-.23.81.81,0,0,0,.12-.25c.09,0,.46.06.89.14a1.1,1.1,0,0,1-.21.47,1.58,1.58,0,0,1-.3.28Z" />
    <path class="GUNDAN_RAT_JEWELRY_RAT_JEWELRY_3_cls-1" d="M205.41,338.55s-1.25-.47-2.22-.71a1.58,1.58,0,0,0,.3-.28,1.1,1.1,0,0,0,.21-.47,6.32,6.32,0,0,1,1.4.37l.45.22A1.15,1.15,0,0,0,205.41,338.55Z" />
    <path class="GUNDAN_RAT_JEWELRY_RAT_JEWELRY_3_cls-3" d="M201.87,337.43a.41.41,0,0,1-.19-.39.92.92,0,0,1,.78-.77,2.15,2.15,0,0,1,.94,0l.11,0h0a12.77,12.77,0,0,1,2.59.76,1.36,1.36,0,0,1,.6.46.39.39,0,0,1,.07.31.84.84,0,0,1-.58.7.61.61,0,0,1-.15-.2.51.51,0,0,1,0-.36h0a2.18,2.18,0,0,0-.47-.3l-.45-.22a6.32,6.32,0,0,0-1.4-.37c-.43-.08-.8-.13-.89-.14a.81.81,0,0,1-.12.25A.9.9,0,0,1,201.87,337.43Z" />
    <path class="GUNDAN_RAT_JEWELRY_RAT_JEWELRY_3_cls-3" d="M205.55,337.68a2.18,2.18,0,0,1,.47.3h0a.51.51,0,0,0,0,.36.61.61,0,0,0,.15.2c.34.3,2.78.94,3.14.09s-1.9-1.28-2.63-1.1a1.36,1.36,0,0,0-.6-.46,4.85,4.85,0,0,1,2.57-.06c1.27.36,1.81,1.1,1.55,1.79s-1.26,1.07-2.46.89-2.16-.54-2.36-1.13h0A1.15,1.15,0,0,1,205.55,337.68Z" />
    <path class="GUNDAN_RAT_JEWELRY_RAT_JEWELRY_3_cls-4" d="M179.31,321.66a1.49,1.49,0,0,0-.1-.48c0-.11-.08-.25-.15-.42a3.62,3.62,0,0,0-.57-.88" />
    <path class="GUNDAN_RAT_JEWELRY_RAT_JEWELRY_3_cls-4" d="M178.4,321.76s-.18-.35-.43-.79h0" />
    <path class="GUNDAN_RAT_JEWELRY_RAT_JEWELRY_3_cls-4" d="M178.66,318.81l.82-.23s-.16,1.16-.13,1.2a3.22,3.22,0,0,1,.77,1.23,1.13,1.13,0,0,1,.06.69.54.54,0,0,1-.2.28,1.12,1.12,0,0,1-1,.21" />
    <path class="GUNDAN_RAT_JEWELRY_RAT_JEWELRY_3_cls-4" d="M179.32,321.66a.64.64,0,0,0-.28.29.57.57,0,0,0,0,.24,3.14,3.14,0,0,0,1.37,1.7.91.91,0,0,0,.84.09,1,1,0,0,0,.25-.18" />
    <path class="GUNDAN_RAT_JEWELRY_RAT_JEWELRY_3_cls-4" d="M181.5,323.05a2.88,2.88,0,0,0-1.32-1.35" />
    <path class="GUNDAN_RAT_JEWELRY_RAT_JEWELRY_3_cls-4" d="M182.15,324.25a1.42,1.42,0,0,1-.44.35,1.56,1.56,0,0,1-.41.15,2.32,2.32,0,0,1-2.09-.83c-.73-.8-1.14-1.59-.81-2.16a1.67,1.67,0,0,1,.81-.58h0" />
    <path class="GUNDAN_RAT_JEWELRY_RAT_JEWELRY_3_cls-4" d="M182.41,323.47a2.06,2.06,0,0,0-.37-1.09,3.91,3.91,0,0,0-1.93-1.37" />
    <path class="GUNDAN_RAT_JEWELRY_RAT_JEWELRY_3_cls-4" d="M183.73,325.9a2,2,0,0,0-.25-.44l-.28-.36a5.47,5.47,0,0,0-1-.86h0c-.33-.23-.63-.41-.7-.45h0" />
    <path class="GUNDAN_RAT_JEWELRY_RAT_JEWELRY_3_cls-4" d="M182.88,326.2a18.58,18.58,0,0,0-1.58-1.45" />
    <path class="GUNDAN_RAT_JEWELRY_RAT_JEWELRY_3_cls-4" d="M180.36,323.89a.4.4,0,0,1,0-.42,1.15,1.15,0,0,1,1.11-.42,1.86,1.86,0,0,1,.82.36l.09.06h0a9.81,9.81,0,0,1,1.89,1.62,1.13,1.13,0,0,1,.29.65.43.43,0,0,1-.11.3,1,1,0,0,1-.89.42" />
    <path class="GUNDAN_RAT_JEWELRY_RAT_JEWELRY_3_cls-4" d="M185.55,327.83a.88.88,0,0,0,.77-.13.63.63,0,0,0,.17-.2" />
    <path class="GUNDAN_RAT_JEWELRY_RAT_JEWELRY_3_cls-4" d="M183.73,325.9a.57.57,0,0,0-.16.34.47.47,0,0,0,0,.23,3.7,3.7,0,0,0,1.95,1.36" />
    <path class="GUNDAN_RAT_JEWELRY_RAT_JEWELRY_3_cls-4" d="M186.23,326.66a3.36,3.36,0,0,0-1.64-.91h0" />
    <path class="GUNDAN_RAT_JEWELRY_RAT_JEWELRY_3_cls-4" d="M183.48,325.46h0a1.4,1.4,0,0,0-.6.74c-.14.62.52,1.28,1.48,1.89a2.76,2.76,0,0,0,2,.43,1.4,1.4,0,0,0,.7-.34l.15-.16" />
    <path class="GUNDAN_RAT_JEWELRY_RAT_JEWELRY_3_cls-4" d="M187.38,327.17a2.09,2.09,0,0,0-.77-1.19,4.52,4.52,0,0,0-2.31-.88h0" />
    <path class="GUNDAN_RAT_JEWELRY_RAT_JEWELRY_3_cls-4" d="M188.48,329.68a1.93,1.93,0,0,0-.22-.45q-.09-.17-.24-.39a4.38,4.38,0,0,0-.84-.82c-.29-.23-.55-.42-.69-.52l-.11-.07" />
    <path class="GUNDAN_RAT_JEWELRY_RAT_JEWELRY_3_cls-4" d="M187.6,329.93a18.88,18.88,0,0,0-1.28-1.41" />
    <path class="GUNDAN_RAT_JEWELRY_RAT_JEWELRY_3_cls-4" d="M185.55,327.83h0c-.26-.28-.36-.54-.16-.79a1.15,1.15,0,0,1,.85-.38,1.65,1.65,0,0,1,1.07.45l.08.06h0a8.91,8.91,0,0,1,1.73,1.74h0a1.1,1.1,0,0,1,.22.66h0a.44.44,0,0,1-.14.3,1.06,1.06,0,0,1-.92.36h0" />
    <path class="GUNDAN_RAT_JEWELRY_RAT_JEWELRY_3_cls-4" d="M188.48,329.68a.58.58,0,0,0-.2.33.45.45,0,0,0,0,.23,3.42,3.42,0,0,0,1.74,1.45.92.92,0,0,0,.86-.05.66.66,0,0,0,.2-.21" />
    <path class="GUNDAN_RAT_JEWELRY_RAT_JEWELRY_3_cls-4" d="M191,330.69a3.32,3.32,0,0,0-1.62-1.11" />
    <path class="GUNDAN_RAT_JEWELRY_RAT_JEWELRY_3_cls-4" d="M191.88,331.75a1.33,1.33,0,0,1-.73.63,2.47,2.47,0,0,1-2.25-.47c-.9-.67-1.5-1.38-1.3-2a1.47,1.47,0,0,1,.66-.7h0" />
    <path class="GUNDAN_RAT_JEWELRY_RAT_JEWELRY_3_cls-4" d="M192,331a2.24,2.24,0,0,0-.62-1,4.26,4.26,0,0,0-2.22-1" />
    <path class="GUNDAN_RAT_JEWELRY_RAT_JEWELRY_3_cls-4" d="M193.47,332.73a4.54,4.54,0,0,0-.36-.31,5.66,5.66,0,0,0-1.23-.67c-.39-.17-.72-.29-.8-.32h0" />
    <path class="GUNDAN_RAT_JEWELRY_RAT_JEWELRY_3_cls-4" d="M193.83,333.12a1.8,1.8,0,0,0-.36-.39" />
    <path class="GUNDAN_RAT_JEWELRY_RAT_JEWELRY_3_cls-4" d="M193.05,333.55a18.76,18.76,0,0,0-1.9-1.17" />
    <path class="GUNDAN_RAT_JEWELRY_RAT_JEWELRY_3_cls-4" d="M190,331.69a.36.36,0,0,1-.05-.41,1,1,0,0,1,1-.59,2.1,2.1,0,0,1,.89.22l.1,0a17.24,17.24,0,0,1,2.25,1.29l.4.47s0,.08,0,.11a.45.45,0,0,1,0,.32,1,1,0,0,1-.78.55" />
    <path class="GUNDAN_RAT_JEWELRY_RAT_JEWELRY_3_cls-4" d="M194.63,332.83h0a3.82,3.82,0,0,1,1.82.63" />
    <path class="GUNDAN_RAT_JEWELRY_RAT_JEWELRY_3_cls-4" d="M196.94,334.12a.55.55,0,0,1-.14.34.66.66,0,0,1-.5.23h0a3.92,3.92,0,0,1-2.47-1,.53.53,0,0,1-.08-.23.49.49,0,0,1,.09-.35" />
    <path class="GUNDAN_RAT_JEWELRY_RAT_JEWELRY_3_cls-4" d="M194.2,332.25h0a4.74,4.74,0,0,1,2.48.49,2.76,2.76,0,0,1,.92.8" />
    <path class="GUNDAN_RAT_JEWELRY_RAT_JEWELRY_3_cls-4" d="M197.79,334.45a1,1,0,0,1-.19.38,1.11,1.11,0,0,1-.36.32,0,0,0,0,0,0,0,2.7,2.7,0,0,1-2.27,0c-1.09-.44-1.9-1-1.9-1.61a1.24,1.24,0,0,1,.41-.82h0" />
    <path class="GUNDAN_RAT_JEWELRY_RAT_JEWELRY_3_cls-4" d="M197,334.12l.82.33a5.91,5.91,0,0,1,1.23.68l.35.32a2,2,0,0,1,.36.38" />
    <path class="GUNDAN_RAT_JEWELRY_RAT_JEWELRY_3_cls-4" d="M199,336.25s-.92-.64-1.72-1.09" />
    <path class="GUNDAN_RAT_JEWELRY_RAT_JEWELRY_3_cls-4" d="M199.71,336.41h0a.94.94,0,0,0,.79-.54.5.5,0,0,0,0-.32,1.21,1.21,0,0,0-.43-.58h0a10.86,10.86,0,0,0-2.24-1.29h0l-.1-.05-.16-.08a1.72,1.72,0,0,0-1-.12l-.13,0a1,1,0,0,0-.58.51c-.12.28.06.5.41.71h0" />
    <path class="GUNDAN_RAT_JEWELRY_RAT_JEWELRY_3_cls-4" d="M199.73,335.83a.5.5,0,0,0-.09.36.4.4,0,0,0,.07.22,4.13,4.13,0,0,0,2.16,1,.9.9,0,0,0,.82-.23.81.81,0,0,0,.12-.25" />
    <path class="GUNDAN_RAT_JEWELRY_RAT_JEWELRY_3_cls-4" d="M202.46,336.27a3.85,3.85,0,0,0-1.92-.72h0" />
    <path class="GUNDAN_RAT_JEWELRY_RAT_JEWELRY_3_cls-4" d="M203.19,337.84a2.61,2.61,0,0,1-2.35,0c-1.08-.45-1.89-1-1.89-1.62h0a1.2,1.2,0,0,1,.42-.8h0" />
    <path class="GUNDAN_RAT_JEWELRY_RAT_JEWELRY_3_cls-4" d="M203.7,337.09a1.1,1.1,0,0,1-.21.47,1.58,1.58,0,0,1-.3.28" />
    <path class="GUNDAN_RAT_JEWELRY_RAT_JEWELRY_3_cls-4" d="M203.51,336.31a2.52,2.52,0,0,0-.92-.83,4.61,4.61,0,0,0-2.48-.51h0" />
    <path class="GUNDAN_RAT_JEWELRY_RAT_JEWELRY_3_cls-4" d="M206,338a2.18,2.18,0,0,0-.47-.3l-.45-.22a6.32,6.32,0,0,0-1.4-.37c-.43-.08-.8-.13-.89-.14h0" />
    <path class="GUNDAN_RAT_JEWELRY_RAT_JEWELRY_3_cls-4" d="M205.41,338.55s-1.25-.47-2.22-.71h0" />
    <path class="GUNDAN_RAT_JEWELRY_RAT_JEWELRY_3_cls-4" d="M201.87,337.43a.41.41,0,0,1-.19-.39.92.92,0,0,1,.78-.77,2.15,2.15,0,0,1,.94,0l.11,0h0a12.77,12.77,0,0,1,2.59.76,1.36,1.36,0,0,1,.6.46.39.39,0,0,1,.07.31.84.84,0,0,1-.58.7" />
    <path class="GUNDAN_RAT_JEWELRY_RAT_JEWELRY_3_cls-4" d="M206.71,337.53c.73-.18,3,.15,2.63,1.1s-2.8.21-3.14-.09a.61.61,0,0,1-.15-.2.51.51,0,0,1,0-.36" />
    <path class="GUNDAN_RAT_JEWELRY_RAT_JEWELRY_3_cls-4" d="M206.1,337.07h0a4.85,4.85,0,0,1,2.57-.06c1.27.36,1.81,1.1,1.55,1.79s-1.26,1.07-2.46.89-2.16-.54-2.36-1.13h0a1.15,1.15,0,0,1,.14-.87" />
    <path class="GUNDAN_RAT_JEWELRY_RAT_JEWELRY_3_cls-4" d="M178.67,318.81h0A1.62,1.62,0,0,0,178,321h0" />
    <path d="M235.63,322.1c-.15-.53-.22-.8-.36-1.33a1.64,1.64,0,0,1,1.42.46" />
    <path class="GUNDAN_RAT_JEWELRY_RAT_JEWELRY_3_cls-1" d="M216.76,337.87s1-.52,1.83-.86h0a1.4,1.4,0,0,1-.32-.37,1.22,1.22,0,0,1-.14-.39,6.09,6.09,0,0,0-1.28.52,4,4,0,0,0-.38.26A1.21,1.21,0,0,1,216.76,337.87Z" />
    <path class="GUNDAN_RAT_JEWELRY_RAT_JEWELRY_3_cls-1" d="M222.08,335.89a3.75,3.75,0,0,1-2.52.76h0a.69.69,0,0,1-.47-.29.54.54,0,0,1-.1-.35h0s-.37.09-.83.23a1.22,1.22,0,0,0,.14.39,1.4,1.4,0,0,0,.32.37h0a2.61,2.61,0,0,0,2.24.22c1.12-.33,2-.82,2-1.44a1.26,1.26,0,0,0-.34-.84,2,2,0,0,0-.38.36.5.5,0,0,1,0,.36A.45.45,0,0,1,222.08,335.89Z" />
    <path class="GUNDAN_RAT_JEWELRY_RAT_JEWELRY_3_cls-1" d="M235.12,324a.48.48,0,0,0,.21.26,1,1,0,0,0,.94.14.56.56,0,0,0-.07-.23.65.65,0,0,0-.28-.27h0a2.32,2.32,0,0,1,.05-.48,1.55,1.55,0,0,1,.82.52s.13-.37.32-.83h0a1.71,1.71,0,0,0-.89-2.08h0c-.85-.25-.53.94-.56,1a3.87,3.87,0,0,0-.55,1.3A1.15,1.15,0,0,0,235.12,324Z" />
    <path class="GUNDAN_RAT_JEWELRY_RAT_JEWELRY_3_cls-2" d="M235.12,324a1.15,1.15,0,0,1,0-.69,3.71,3.71,0,0,0-1.68,1.46,2.23,2.23,0,0,0-.27,1.11l.08-.07a1.84,1.84,0,0,1,.74-.39A2.84,2.84,0,0,1,235.12,324Z" />
    <path class="GUNDAN_RAT_JEWELRY_RAT_JEWELRY_3_cls-1" d="M236.79,324a1.55,1.55,0,0,0-.82-.52,2.27,2.27,0,0,0-.05.48h0a.65.65,0,0,1,.28.27.56.56,0,0,1,.07.23,3,3,0,0,1-1.14,1.79.82.82,0,0,1-.8.14,1.13,1.13,0,0,1-.24-.17c-.07.05-.34.24-.64.48a1.24,1.24,0,0,0,.44.33,1.11,1.11,0,0,0,.4.13,2.1,2.1,0,0,0,1.93-.95C236.84,325.33,237.15,324.5,236.79,324Z" />
    <path class="GUNDAN_RAT_JEWELRY_RAT_JEWELRY_3_cls-1" d="M234.29,327.13a1.11,1.11,0,0,1-.4-.13,1.24,1.24,0,0,1-.44-.33h0a5.13,5.13,0,0,0-.95.89l-.25.37a1.33,1.33,0,0,1,.6.72h0A18.75,18.75,0,0,1,234.29,327.13Z" />
    <path class="GUNDAN_RAT_JEWELRY_RAT_JEWELRY_3_cls-3" d="M234.33,326.36a.82.82,0,0,0,.8-.14.41.41,0,0,0-.07-.41,1,1,0,0,0-1.08-.36,1.84,1.84,0,0,0-.74.39l-.08.07h0a10.38,10.38,0,0,0-1.71,1.67,1.24,1.24,0,0,0-.25.65.49.49,0,0,0,.12.3,1,1,0,0,0,.87.4.61.61,0,0,0,0-.23.62.62,0,0,0-.17-.34h0a1.8,1.8,0,0,1,.22-.44l.25-.37a5.13,5.13,0,0,1,.95-.89h0c.3-.24.57-.43.64-.48A1.13,1.13,0,0,0,234.33,326.36Z" />
    <path class="GUNDAN_RAT_JEWELRY_RAT_JEWELRY_3_cls-2" d="M226.67,332a1.05,1.05,0,0,1,.23-.65h0a4.22,4.22,0,0,0-2.17.94,2.3,2.3,0,0,0-.65,1l.11,0a1.9,1.9,0,0,1,.87-.17A3.23,3.23,0,0,1,226.67,332Z" />
    <path class="GUNDAN_RAT_JEWELRY_RAT_JEWELRY_3_cls-2" d="M229.66,329.17a3.16,3.16,0,0,1,1.54-.93,1.24,1.24,0,0,1,.25-.65,4.29,4.29,0,0,0-2.16.9,2.09,2.09,0,0,0-.72,1.18l.08-.06A1.53,1.53,0,0,1,229.66,329.17Z" />
    <path class="GUNDAN_RAT_JEWELRY_RAT_JEWELRY_3_cls-1" d="M229.59,331a2.54,2.54,0,0,0,1.89-.45c.92-.63,1.53-1.32,1.37-1.93a1.33,1.33,0,0,0-.6-.72,1.8,1.8,0,0,0-.22.44h0a.62.62,0,0,1,.17.34.61.61,0,0,1,0,.23,3.48,3.48,0,0,1-1.85,1.39h0a.82.82,0,0,1-.74-.13.54.54,0,0,1-.16-.19c-.13.09-.39.29-.66.51h0l.15.16A1.44,1.44,0,0,0,229.59,331Z" />
    <path class="GUNDAN_RAT_JEWELRY_RAT_JEWELRY_3_cls-3" d="M230.33,330.33h0c.25-.28.34-.54.14-.78a1.05,1.05,0,0,0-.82-.38,1.53,1.53,0,0,0-1,.44l-.08.06h0a9.6,9.6,0,0,0-1.67,1.7h0a1.05,1.05,0,0,0-.23.65h0a.51.51,0,0,0,.13.3,1.06,1.06,0,0,0,.89.39.49.49,0,0,0,0-.24.62.62,0,0,0-.18-.33,1.72,1.72,0,0,1,.22-.45c.06-.11.14-.23.23-.38a4.5,4.5,0,0,1,.82-.81c.27-.22.53-.42.66-.51a.54.54,0,0,0,.16.19A.82.82,0,0,0,230.33,330.33Z" />
    <path class="GUNDAN_RAT_JEWELRY_RAT_JEWELRY_3_cls-1" d="M228.77,330.52a4.5,4.5,0,0,0-.82.81c-.09.15-.17.27-.23.38a1.54,1.54,0,0,1,.63.71s.64-.79,1.24-1.39a1.44,1.44,0,0,1-.67-.35l-.15-.16Z" />
    <path class="GUNDAN_RAT_JEWELRY_RAT_JEWELRY_3_cls-1" d="M227.68,332.73a3.4,3.4,0,0,1-1.75,1.39.91.91,0,0,1-.84-.09.73.73,0,0,1-.18-.22l-.8.27a1.34,1.34,0,0,0,.32.44,1.38,1.38,0,0,0,.36.23,2.36,2.36,0,0,0,2.23-.38c.92-.64,1.51-1.34,1.33-1.95a1.54,1.54,0,0,0-.63-.71,1.72,1.72,0,0,0-.22.45.62.62,0,0,1,.18.33A.49.49,0,0,1,227.68,332.73Z" />
    <path class="GUNDAN_RAT_JEWELRY_RAT_JEWELRY_3_cls-1" d="M222.87,334.67l-.37.28h0a1.26,1.26,0,0,1,.34.84h0s1.08-.65,1.94-1h0a1.38,1.38,0,0,1-.36-.23,1.34,1.34,0,0,1-.32-.44A5.72,5.72,0,0,0,222.87,334.67Z" />
    <path class="GUNDAN_RAT_JEWELRY_RAT_JEWELRY_3_cls-3" d="M222.5,335l.37-.28a5.72,5.72,0,0,1,1.24-.59l.8-.27a.73.73,0,0,0,.18.22.91.91,0,0,0,.84.09.4.4,0,0,0,.07-.42,1,1,0,0,0-.94-.62,1.9,1.9,0,0,0-.87.17l-.11,0a22.64,22.64,0,0,0-2.26,1.12l-.42.44-.05.11a.5.5,0,0,0,0,.32,1,1,0,0,0,.72.61.45.45,0,0,0,.09-.22.5.5,0,0,0,0-.36,2,2,0,0,1,.38-.36Z" />
    <path class="GUNDAN_RAT_JEWELRY_RAT_JEWELRY_3_cls-2" d="M219.52,335.4a3.89,3.89,0,0,1,1.83-.44l.05-.11.42-.44a4.86,4.86,0,0,0-2.45.27,2.63,2.63,0,0,0-1,.68,1.74,1.74,0,0,1,1,0Z" />
    <path class="GUNDAN_RAT_JEWELRY_RAT_JEWELRY_3_cls-3" d="M219.57,336.63c.36-.17.56-.37.46-.66a1,1,0,0,0-.51-.57l-.12,0a1.74,1.74,0,0,0-1,0l-.17.06-.1,0h0a11.74,11.74,0,0,0-2.34,1h0a1.35,1.35,0,0,0-.5.52.58.58,0,0,0,0,.32,1,1,0,0,0,.7.64.51.51,0,0,0,.07-.57h0a1.83,1.83,0,0,1,.4-.33,4,4,0,0,1,.38-.26,5.6,5.6,0,0,1,1.28-.52c.45-.14.83-.23.83-.23h0a.54.54,0,0,0,.1.35.69.69,0,0,0,.47.29v0Z" />
    <path class="GUNDAN_RAT_JEWELRY_RAT_JEWELRY_3_cls-2" d="M213.33,336.57a2.55,2.55,0,0,0-1,.66h.12a2.16,2.16,0,0,1,.91.13,3.83,3.83,0,0,1,2-.4,1.35,1.35,0,0,1,.5-.52A4.91,4.91,0,0,0,213.33,336.57Z" />
    <path class="GUNDAN_RAT_JEWELRY_RAT_JEWELRY_3_cls-1" d="M212.36,338.78a2.54,2.54,0,0,0,2.3.42c1.15-.27,2-.71,2.1-1.33h0a1.21,1.21,0,0,0-.3-.85,1.83,1.83,0,0,0-.4.33h0a.51.51,0,0,1-.07.57,3.91,3.91,0,0,1-2.27.67.85.85,0,0,1-.76-.36.67.67,0,0,1-.09-.26l-.88,0a1.15,1.15,0,0,0,.12.5,1.59,1.59,0,0,0,.25.33Z" />
    <path class="GUNDAN_RAT_JEWELRY_RAT_JEWELRY_3_cls-1" d="M210.06,339.06s1.31-.22,2.3-.28a1.59,1.59,0,0,1-.25-.33,1.15,1.15,0,0,1-.12-.5,7,7,0,0,0-1.43.11l-.48.12A1.13,1.13,0,0,1,210.06,339.06Z" />
    <path class="GUNDAN_RAT_JEWELRY_RAT_JEWELRY_3_cls-3" d="M213.72,338.59a.41.41,0,0,0,.25-.34.94.94,0,0,0-.64-.89,2.16,2.16,0,0,0-.91-.13h-.13a13.08,13.08,0,0,0-2.63.25,1.28,1.28,0,0,0-.67.33.39.39,0,0,0-.13.28.83.83,0,0,0,.43.79.54.54,0,0,0,.28-.5h0a3.42,3.42,0,0,1,.51-.19l.48-.12A7,7,0,0,1,212,338l.88,0a.67.67,0,0,0,.09.26A.85.85,0,0,0,213.72,338.59Z" />
    <path class="GUNDAN_RAT_JEWELRY_RAT_JEWELRY_3_cls-5" d="M235.92,323.93a2.27,2.27,0,0,1,.05-.48,3.6,3.6,0,0,1,.1-.43,4.16,4.16,0,0,1,.43-.92" />
    <path class="GUNDAN_RAT_JEWELRY_RAT_JEWELRY_3_cls-5" d="M236.79,324s.13-.37.32-.83h0" />
    <path class="GUNDAN_RAT_JEWELRY_RAT_JEWELRY_3_cls-5" d="M236.22,321.05l-.77-.16s.27,1.13.25,1.18a3.17,3.17,0,0,0-.59,1.27,1.15,1.15,0,0,0,0,.69.48.48,0,0,0,.21.26,1,1,0,0,0,.94.14" />
    <path class="GUNDAN_RAT_JEWELRY_RAT_JEWELRY_3_cls-5" d="M235.92,323.93a.65.65,0,0,1,.28.27.56.56,0,0,1,.07.23,3,3,0,0,1-1.14,1.79.82.82,0,0,1-.8.14,1.13,1.13,0,0,1-.24-.17" />
    <path class="GUNDAN_RAT_JEWELRY_RAT_JEWELRY_3_cls-5" d="M234,325.45a2.84,2.84,0,0,1,1.14-1.42" />
    <path class="GUNDAN_RAT_JEWELRY_RAT_JEWELRY_3_cls-5" d="M233.45,326.67a1.24,1.24,0,0,0,.44.33,1.11,1.11,0,0,0,.4.13,2.1,2.1,0,0,0,1.93-.95c.62-.85.93-1.68.57-2.21a1.55,1.55,0,0,0-.82-.52h0" />
    <path class="GUNDAN_RAT_JEWELRY_RAT_JEWELRY_3_cls-5" d="M233.16,325.91a2.23,2.23,0,0,1,.27-1.11,3.71,3.71,0,0,1,1.68-1.46" />
    <path class="GUNDAN_RAT_JEWELRY_RAT_JEWELRY_3_cls-5" d="M232,328.37a1.8,1.8,0,0,1,.22-.44l.25-.37a5.13,5.13,0,0,1,.95-.89h0c.3-.24.57-.43.64-.48h0" />
    <path class="GUNDAN_RAT_JEWELRY_RAT_JEWELRY_3_cls-5" d="M232.86,328.65a18.75,18.75,0,0,1,1.43-1.52" />
    <path class="GUNDAN_RAT_JEWELRY_RAT_JEWELRY_3_cls-5" d="M235.13,326.22a.41.41,0,0,0-.07-.41,1,1,0,0,0-1.08-.36,1.84,1.84,0,0,0-.74.39l-.08.07h0a10.38,10.38,0,0,0-1.71,1.67,1.24,1.24,0,0,0-.25.65.49.49,0,0,0,.12.3,1,1,0,0,0,.87.4" />
    <path class="GUNDAN_RAT_JEWELRY_RAT_JEWELRY_3_cls-5" d="M230.33,330.33a.82.82,0,0,1-.74-.13.54.54,0,0,1-.16-.19" />
    <path class="GUNDAN_RAT_JEWELRY_RAT_JEWELRY_3_cls-5" d="M232,328.37a.62.62,0,0,1,.17.34.61.61,0,0,1,0,.23,3.48,3.48,0,0,1-1.85,1.39" />
    <path class="GUNDAN_RAT_JEWELRY_RAT_JEWELRY_3_cls-5" d="M229.66,329.17a3.16,3.16,0,0,1,1.54-.93h0" />
    <path class="GUNDAN_RAT_JEWELRY_RAT_JEWELRY_3_cls-5" d="M232.25,327.93h0a1.33,1.33,0,0,1,.6.72c.16.61-.45,1.3-1.37,1.93a2.54,2.54,0,0,1-1.89.45,1.44,1.44,0,0,1-.67-.35l-.15-.16" />
    <path class="GUNDAN_RAT_JEWELRY_RAT_JEWELRY_3_cls-5" d="M228.57,329.67a2.09,2.09,0,0,1,.72-1.18,4.29,4.29,0,0,1,2.16-.9h0" />
    <path class="GUNDAN_RAT_JEWELRY_RAT_JEWELRY_3_cls-5" d="M227.5,332.16a1.72,1.72,0,0,1,.22-.45c.06-.11.14-.23.23-.38a4.5,4.5,0,0,1,.82-.81c.27-.22.53-.42.66-.51l.1-.08" />
    <path class="GUNDAN_RAT_JEWELRY_RAT_JEWELRY_3_cls-5" d="M228.35,332.42s.64-.79,1.24-1.39" />
    <path class="GUNDAN_RAT_JEWELRY_RAT_JEWELRY_3_cls-5" d="M230.33,330.33h0c.25-.28.34-.54.14-.78a1.05,1.05,0,0,0-.82-.38,1.53,1.53,0,0,0-1,.44l-.08.06h0a9.6,9.6,0,0,0-1.67,1.7h0a1.05,1.05,0,0,0-.23.65h0a.51.51,0,0,0,.13.3,1.06,1.06,0,0,0,.89.39h0" />
    <path class="GUNDAN_RAT_JEWELRY_RAT_JEWELRY_3_cls-5" d="M227.5,332.16a.62.62,0,0,1,.18.33.49.49,0,0,1,0,.24,3.4,3.4,0,0,1-1.75,1.39.91.91,0,0,1-.84-.09.73.73,0,0,1-.18-.22" />
    <path class="GUNDAN_RAT_JEWELRY_RAT_JEWELRY_3_cls-5" d="M225.06,333.08a3.23,3.23,0,0,1,1.61-1.05" />
    <path class="GUNDAN_RAT_JEWELRY_RAT_JEWELRY_3_cls-5" d="M224.11,334.08a1.34,1.34,0,0,0,.32.44,1.38,1.38,0,0,0,.36.23,2.36,2.36,0,0,0,2.23-.38c.92-.64,1.51-1.34,1.33-1.95a1.54,1.54,0,0,0-.63-.71h0" />
    <path class="GUNDAN_RAT_JEWELRY_RAT_JEWELRY_3_cls-5" d="M224.08,333.29a2.3,2.3,0,0,1,.65-1,4.22,4.22,0,0,1,2.17-.94" />
    <path class="GUNDAN_RAT_JEWELRY_RAT_JEWELRY_3_cls-5" d="M222.5,335l.37-.28a5.72,5.72,0,0,1,1.24-.59l.8-.27h0" />
    <path class="GUNDAN_RAT_JEWELRY_RAT_JEWELRY_3_cls-5" d="M222.12,335.31a2,2,0,0,1,.38-.36" />
    <path class="GUNDAN_RAT_JEWELRY_RAT_JEWELRY_3_cls-5" d="M222.85,335.79s1.08-.65,1.94-1" />
    <path class="GUNDAN_RAT_JEWELRY_RAT_JEWELRY_3_cls-5" d="M225.93,334.12a.4.4,0,0,0,.07-.42,1,1,0,0,0-.94-.62,1.9,1.9,0,0,0-.87.17l-.11,0a22.64,22.64,0,0,0-2.26,1.12l-.42.44-.05.11a.5.5,0,0,0,0,.32,1,1,0,0,0,.72.61" />
    <path class="GUNDAN_RAT_JEWELRY_RAT_JEWELRY_3_cls-5" d="M221.36,335h0a3.89,3.89,0,0,0-1.83.44" />
    <path class="GUNDAN_RAT_JEWELRY_RAT_JEWELRY_3_cls-5" d="M219,336a.54.54,0,0,0,.1.35.69.69,0,0,0,.47.29h0a3.75,3.75,0,0,0,2.52-.76.45.45,0,0,0,.09-.22.5.5,0,0,0,0-.36" />
    <path class="GUNDAN_RAT_JEWELRY_RAT_JEWELRY_3_cls-5" d="M221.82,334.42h0a4.86,4.86,0,0,0-2.45.27,2.63,2.63,0,0,0-1,.68" />
    <path class="GUNDAN_RAT_JEWELRY_RAT_JEWELRY_3_cls-5" d="M218.12,336.24a1.22,1.22,0,0,0,.14.39,1.4,1.4,0,0,0,.32.37h0a2.61,2.61,0,0,0,2.24.22c1.12-.33,2-.82,2-1.44a1.26,1.26,0,0,0-.34-.84h0" />
    <path class="GUNDAN_RAT_JEWELRY_RAT_JEWELRY_3_cls-5" d="M219,336s-.37.09-.83.23a6.09,6.09,0,0,0-1.28.52,4,4,0,0,0-.38.26,1.83,1.83,0,0,0-.4.33" />
    <path class="GUNDAN_RAT_JEWELRY_RAT_JEWELRY_3_cls-5" d="M216.76,337.87s1-.52,1.83-.86" />
    <path class="GUNDAN_RAT_JEWELRY_RAT_JEWELRY_3_cls-5" d="M216,337.93h0a1,1,0,0,1-.7-.64.58.58,0,0,1,0-.32,1.35,1.35,0,0,1,.5-.52h0a11.74,11.74,0,0,1,2.34-1h0l.1,0,.17-.06a1.74,1.74,0,0,1,1,0l.12,0a1,1,0,0,1,.51.57c.1.29-.1.49-.46.66h0" />
    <path class="GUNDAN_RAT_JEWELRY_RAT_JEWELRY_3_cls-5" d="M216.06,337.35a.51.51,0,0,1-.07.57,3.91,3.91,0,0,1-2.27.67.85.85,0,0,1-.76-.36.67.67,0,0,1-.09-.26" />
    <path class="GUNDAN_RAT_JEWELRY_RAT_JEWELRY_3_cls-5" d="M213.33,337.36a3.83,3.83,0,0,1,2-.4h0" />
    <path class="GUNDAN_RAT_JEWELRY_RAT_JEWELRY_3_cls-5" d="M212.36,338.78a2.54,2.54,0,0,0,2.3.42c1.15-.27,2-.71,2.1-1.33h0a1.21,1.21,0,0,0-.3-.85h0" />
    <path class="GUNDAN_RAT_JEWELRY_RAT_JEWELRY_3_cls-5" d="M212,338a1.15,1.15,0,0,0,.12.5,1.59,1.59,0,0,0,.25.33" />
    <path class="GUNDAN_RAT_JEWELRY_RAT_JEWELRY_3_cls-5" d="M212.3,337.23a2.55,2.55,0,0,1,1-.66,4.91,4.91,0,0,1,2.47-.13h0" />
    <path class="GUNDAN_RAT_JEWELRY_RAT_JEWELRY_3_cls-5" d="M212.36,338.78h0a19.92,19.92,0,0,0-2.3.33s.28-.21.18-1" />
    <path class="GUNDAN_RAT_JEWELRY_RAT_JEWELRY_3_cls-5" d="M213.72,338.59a.41.41,0,0,0,.25-.34.94.94,0,0,0-.64-.89,2.16,2.16,0,0,0-.91-.13h-.13a13.08,13.08,0,0,0-2.63.25,1.28,1.28,0,0,0-.67.33.39.39,0,0,0-.13.28.77.77,0,0,0,.31.75,1.74,1.74,0,0,0,.4-.47,3.42,3.42,0,0,1,.51-.19l.48-.12A7,7,0,0,1,212,338l.88,0h0" />
    <path class="GUNDAN_RAT_JEWELRY_RAT_JEWELRY_3_cls-5" d="M236.22,321.05h0a1.71,1.71,0,0,1,.89,2.08h0" />
    <ellipse cx="216.58" cy="345.98" rx="5.03" ry="5.06" transform="translate(-16.2 10.68) rotate(-2.72)" />
    <polygon class="GUNDAN_RAT_JEWELRY_RAT_JEWELRY_3_cls-6" points="215.78 349.13 216.44 348.88 215.28 348.33 215.78 349.13" />
    <polygon class="GUNDAN_RAT_JEWELRY_RAT_JEWELRY_3_cls-7" points="217 348.85 218.1 348.2 217.68 349.04 217 348.85" />
    <polygon class="GUNDAN_RAT_JEWELRY_RAT_JEWELRY_3_cls-7" points="213.99 346.48 214.65 347.81 213.65 347.43 213.99 346.48" />
    <path class="GUNDAN_RAT_JEWELRY_RAT_JEWELRY_3_cls-6" d="M213.15,348.9a5.2,5.2,0,0,1-.6-.92l.75-.31Z" />
    <path class="GUNDAN_RAT_JEWELRY_RAT_JEWELRY_3_cls-7" d="M212.1,345.87a4.46,4.46,0,0,1,.21-1.28l.81.24Z" />
    <polygon class="GUNDAN_RAT_JEWELRY_RAT_JEWELRY_3_cls-6" points="214.49 344.34 213.96 345.73 213.53 344.82 214.49 344.34" />
    <path class="GUNDAN_RAT_JEWELRY_RAT_JEWELRY_3_cls-6" d="M212.38,344.38a4.34,4.34,0,0,1,.51-1l.26,1.21Z" />
    <path class="GUNDAN_RAT_JEWELRY_RAT_JEWELRY_3_cls-7" d="M212.46,347.78a4.67,4.67,0,0,1-.33-1.26l1.11.94Z" />
    <polygon class="GUNDAN_RAT_JEWELRY_RAT_JEWELRY_3_cls-8" points="213.81 346.12 213.4 347.25 212.14 346.19 213.29 345.02 213.81 346.12" />
    <polygon class="GUNDAN_RAT_JEWELRY_RAT_JEWELRY_3_cls-7" points="215.48 342.92 216.16 343.12 215.06 343.77 215.48 342.92" />
    <path class="GUNDAN_RAT_JEWELRY_RAT_JEWELRY_3_cls-7" d="M216.54,350.53a4.31,4.31,0,0,1-1.52-.28l.67-.76Z" />
    <polygon class="GUNDAN_RAT_JEWELRY_RAT_JEWELRY_3_cls-9" points="216.71 348.75 215.06 347.98 214.13 346.1 214.88 344.15 216.45 343.21 218.1 343.99 219.03 345.87 218.29 347.82 216.71 348.75" />
    <polygon class="GUNDAN_RAT_JEWELRY_RAT_JEWELRY_3_cls-8" points="214.81 348.11 215.47 349.17 213.43 349.13 213.61 347.65 214.81 348.11" />
    <polygon class="GUNDAN_RAT_JEWELRY_RAT_JEWELRY_3_cls-6" points="217.88 343.63 216.73 343.09 217.38 342.83 217.88 343.63" />
    <polygon class="GUNDAN_RAT_JEWELRY_RAT_JEWELRY_3_cls-6" points="218.68 347.62 219.21 346.23 219.64 347.15 218.68 347.62" />
    <polygon class="GUNDAN_RAT_JEWELRY_RAT_JEWELRY_3_cls-7" points="219.17 345.49 218.51 344.15 219.51 344.54 219.17 345.49" />
    <path class="GUNDAN_RAT_JEWELRY_RAT_JEWELRY_3_cls-7" d="M214.77,350.14a4.47,4.47,0,0,1-1.21-.8l1.88,0Z" />
    <polygon class="GUNDAN_RAT_JEWELRY_RAT_JEWELRY_3_cls-8" points="216.79 350.4 215.91 349.32 216.72 349 217.57 349.24 216.79 350.4" />
    <polygon class="GUNDAN_RAT_JEWELRY_RAT_JEWELRY_3_cls-8" points="219.7 347.37 220.02 348.82 218 349.05 218.55 347.94 219.7 347.37" />
    <path class="GUNDAN_RAT_JEWELRY_RAT_JEWELRY_3_cls-7" d="M220.78,347.59a4.68,4.68,0,0,1-.5,1l-.27-1.2Z" />
    <polygon class="GUNDAN_RAT_JEWELRY_RAT_JEWELRY_3_cls-8" points="219.35 345.85 219.76 344.71 221.03 345.77 219.87 346.95 219.35 345.85" />
    <path class="GUNDAN_RAT_JEWELRY_RAT_JEWELRY_3_cls-7" d="M221.06,346.1a4.57,4.57,0,0,1-.21,1.28l-.81-.24Z" />
    <path class="GUNDAN_RAT_JEWELRY_RAT_JEWELRY_3_cls-6" d="M219.91,349a4.35,4.35,0,0,1-1.13.91l-.74-.69Z" />
    <path class="GUNDAN_RAT_JEWELRY_RAT_JEWELRY_3_cls-7" d="M218.54,350.08a4.42,4.42,0,0,1-1.49.43l.75-1.12Z" />
    <polygon class="GUNDAN_RAT_JEWELRY_RAT_JEWELRY_3_cls-8" points="218.36 343.85 217.7 342.79 219.74 342.83 219.56 344.31 218.36 343.85" />
    <path class="GUNDAN_RAT_JEWELRY_RAT_JEWELRY_3_cls-7" d="M220.7,344.19a4.35,4.35,0,0,1,.33,1.25l-1.11-.93Z" />
    <path class="GUNDAN_RAT_JEWELRY_RAT_JEWELRY_3_cls-7" d="M216.62,341.43a4.56,4.56,0,0,1,1.52.29l-.67.76Z" />
    <path class="GUNDAN_RAT_JEWELRY_RAT_JEWELRY_3_cls-7" d="M218.4,341.83a4.42,4.42,0,0,1,1.2.8l-1.88,0Z" />
    <path class="GUNDAN_RAT_JEWELRY_RAT_JEWELRY_3_cls-7" d="M213.25,342.93a4.71,4.71,0,0,1,1.13-.91l.74.69Z" />
    <path class="GUNDAN_RAT_JEWELRY_RAT_JEWELRY_3_cls-10" d="M214.62,341.89a4.2,4.2,0,0,1,1.49-.43l-.75,1.12Z" />
    <polygon class="GUNDAN_RAT_JEWELRY_RAT_JEWELRY_3_cls-8" points="213.46 344.6 213.14 343.15 215.17 342.91 214.61 344.03 213.46 344.6" />
    <polygon class="GUNDAN_RAT_JEWELRY_RAT_JEWELRY_3_cls-8" points="215.59 342.73 216.37 341.57 217.25 342.65 216.44 342.97 215.59 342.73" />
    <path class="GUNDAN_RAT_JEWELRY_RAT_JEWELRY_3_cls-6" d="M220,343.06a4.11,4.11,0,0,1,.6.93l-.74.3Z" />
    <rect class="GUNDAN_RAT_JEWELRY_RAT_JEWELRY_3_cls-11" x="214.65" y="338.04" width="0.94" height="3.47" rx="0.47" transform="translate(-68.91 55.08) rotate(-12.59)" />
  </g>
  <g id="Jewellery">
    <path class="GUNDAN_RAT_JEWELRY_RAT_JEWELRY_3_cls-12" d="M268,224a2.89,2.89,0,0,0-2.21,3.46,3.14,3.14,0,0,0,.21.61,2.73,2.73,0,0,0,1.12,1.23,2.44,2.44,0,0,0,.72.32,2.8,2.8,0,0,0,1.41,0,2.93,2.93,0,0,0,1.26-.62,3,3,0,0,0,.52-.6,2.87,2.87,0,0,0,.49-1.59,3.48,3.48,0,0,0-.07-.64A2.89,2.89,0,0,0,268,224Z" />
    <path class="GUNDAN_RAT_JEWELRY_RAT_JEWELRY_3_cls-13" d="M268,224a2.26,2.26,0,0,0-1.71,2.69,2.6,2.6,0,0,0,.16.47,2.19,2.19,0,0,0,.87,1,2.53,2.53,0,0,0,.56.25,2.22,2.22,0,0,0,2.48-.92,2.24,2.24,0,0,0,.38-1.24,2.2,2.2,0,0,0-.06-.5A2.24,2.24,0,0,0,268,224Z" />
    <path class="GUNDAN_RAT_JEWELRY_RAT_JEWELRY_3_cls-12" d="M267.1,229.32c-1,3.68-2.44,9.26-.81,14.3s4.77,6.35,7.32,5.79,4.85-3,4.2-8.34-4.35-9.7-6.79-12.62a3,3,0,0,1-.52.6c1.75,2.45,4.31,5.73,4.91,10s-.89,6.25-2.62,6.64-3.92-.74-5.2-4.91-.32-8.18.24-11.14a2.44,2.44,0,0,1-.72-.32Z" />
    <path class="GUNDAN_RAT_JEWELRY_RAT_JEWELRY_3_cls-13" d="M267.29,229.28c-.89,3.32-2.21,8.38-.73,12.94s4.42,6.24,6.73,5.73,4.27-3.25,3.68-8-3.93-8.78-6.13-11.42a3.16,3.16,0,0,1-.48.55c1.59,2.21,4.55,5.86,5.12,9.74s-1.13,6.55-2.69,6.9-4.27-1.61-5.15-5.73a26.5,26.5,0,0,1,.31-10.39,2.76,2.76,0,0,1-.66-.29Z" />
    <path class="GUNDAN_RAT_JEWELRY_RAT_JEWELRY_3_cls-12" d="M276.36,261.81c6.83-1.52,12.49-10.39,7.8-20.82-4.12-9.17-12.65-14.13-12.65-14.13a.76.76,0,0,1,0,.15,2.87,2.87,0,0,1-.47,1.45c13.37,10.83,9,22.7,3.25,24s-14.71-7.64-7.18-23.1v0a2.63,2.63,0,0,1-1-1.1.42.42,0,0,1-.08-.12s-5.64,8.09-5.5,18.14C260.64,257.67,269.54,263.32,276.36,261.81Z" />
    <path class="GUNDAN_RAT_JEWELRY_RAT_JEWELRY_3_cls-13" d="M275.83,259.4c6.34-1.41,11.61-9.66,7.25-19.36a32,32,0,0,0-11.58-13,2.87,2.87,0,0,1-.47,1.45c13.37,10.83,9,22.7,3.25,24s-14.71-7.64-7.18-23.1v0a2.63,2.63,0,0,1-1-1.1,31.94,31.94,0,0,0-5,16.71C261.21,255.55,269.48,260.81,275.83,259.4Z" />
    <path class="GUNDAN_RAT_JEWELRY_RAT_JEWELRY_3_cls-14" d="M271.51,226.86a3.48,3.48,0,0,0-.07-.64,2.9,2.9,0,1,0-5.66,1.25,3.14,3.14,0,0,0,.21.61,2.73,2.73,0,0,0,1.12,1.23,2.44,2.44,0,0,0,.72.32,2.8,2.8,0,0,0,1.41,0,2.93,2.93,0,0,0,1.26-.62,3,3,0,0,0,.52-.6A2.87,2.87,0,0,0,271.51,226.86Z" />
    <path class="GUNDAN_RAT_JEWELRY_RAT_JEWELRY_3_cls-14" d="M276.36,261.8c6.82-1.51,12.49-10.39,7.8-20.81-4.12-9.18-12.65-14.13-12.65-14.13" />
    <path class="GUNDAN_RAT_JEWELRY_RAT_JEWELRY_3_cls-14" d="M274.28,252.42c5.7-1.26,10.11-13.14-3.26-24" />
    <path class="GUNDAN_RAT_JEWELRY_RAT_JEWELRY_3_cls-14" d="M271,228.45c2.44,2.92,6.13,7.36,6.79,12.62s-1.64,7.77-4.2,8.34" />
    <path class="GUNDAN_RAT_JEWELRY_RAT_JEWELRY_3_cls-14" d="M270.49,229h0c1.75,2.45,4.31,5.73,4.91,10s-.89,6.25-2.62,6.64" />
    <path class="GUNDAN_RAT_JEWELRY_RAT_JEWELRY_3_cls-14" d="M276.36,261.8c-6.83,1.51-15.72-4.14-15.87-15.57-.14-10.06,5.5-18.15,5.5-18.15" />
    <path class="GUNDAN_RAT_JEWELRY_RAT_JEWELRY_3_cls-14" d="M274.28,252.42c-5.71,1.27-14.72-7.64-7.18-23.1" />
    <path class="GUNDAN_RAT_JEWELRY_RAT_JEWELRY_3_cls-14" d="M267.1,229.32c-1,3.68-2.44,9.26-.81,14.3s4.77,6.35,7.32,5.79" />
    <path class="GUNDAN_RAT_JEWELRY_RAT_JEWELRY_3_cls-14" d="M267.83,229.63c-.56,3-1.49,7-.24,11.14s3.46,5.29,5.2,4.91" />
    <path class="GUNDAN_RAT_JEWELRY_RAT_JEWELRY_3_cls-14" d="M269.24,229.67c-1.85,3.32-1,12,2,11.93s3-4.08.89-4.65a1.48,1.48,0,0,0-1.85,1.26" />
    <path class="GUNDAN_RAT_JEWELRY_RAT_JEWELRY_3_cls-14" d="M264.94,213.4a3.2,3.2,0,0,0-2.35,3.62c.33,2.85,4.45,2.53,5.42,6.89" />
    <path class="GUNDAN_RAT_JEWELRY_RAT_JEWELRY_3_cls-14" d="M268.94,217.55a5.25,5.25,0,0,0-.75-2.56" />
    <path class="GUNDAN_RAT_JEWELRY_RAT_JEWELRY_3_cls-15" d="M265.09,214.64a2.06,2.06,0,0,0-.5-2.44" />
  </g>
</svg>