<svg xmlns="http://www.w3.org/2000/svg" viewBox="0 0 432 432">
  <defs>
    <style>.GUNDAN_LIZARD_BODY_LIZARD_BODY_35_cls-1{isolation:isolate;}.GUNDAN_LIZARD_BODY_LIZARD_BODY_35_cls-2{fill:#ebb731;}.GUNDAN_LIZARD_BODY_LIZARD_BODY_35_cls-12,.GUNDAN_LIZARD_BODY_LIZARD_BODY_35_cls-13,.GUNDAN_LIZARD_BODY_LIZARD_BODY_35_cls-14,.GUNDAN_LIZARD_BODY_LIZARD_BODY_35_cls-15,.GUNDAN_LIZARD_BODY_LIZARD_BODY_35_cls-16,.GUNDAN_LIZARD_BODY_LIZARD_BODY_35_cls-3{fill:none;stroke:#010101;stroke-linecap:round;stroke-linejoin:round;}.GUNDAN_LIZARD_BODY_LIZARD_BODY_35_cls-3{stroke-width:1.74px;}.GUNDAN_LIZARD_BODY_LIZARD_BODY_35_cls-4{fill:#010101;}.GUNDAN_LIZARD_BODY_LIZARD_BODY_35_cls-5{fill:#ed6328;}.GUNDAN_LIZARD_BODY_LIZARD_BODY_35_cls-6,.GUNDAN_LIZARD_BODY_LIZARD_BODY_35_cls-9{fill:#c65829;}.GUNDAN_LIZARD_BODY_LIZARD_BODY_35_cls-6,.GUNDAN_LIZARD_BODY_LIZARD_BODY_35_cls-8{opacity:0.3;mix-blend-mode:multiply;}.GUNDAN_LIZARD_BODY_LIZARD_BODY_35_cls-7{opacity:0.85;}.GUNDAN_LIZARD_BODY_LIZARD_BODY_35_cls-10{fill:#542a1a;}.GUNDAN_LIZARD_BODY_LIZARD_BODY_35_cls-11{fill:#cd6b42;}.GUNDAN_LIZARD_BODY_LIZARD_BODY_35_cls-12{stroke-width:1.69px;}.GUNDAN_LIZARD_BODY_LIZARD_BODY_35_cls-13{stroke-width:1.45px;}.GUNDAN_LIZARD_BODY_LIZARD_BODY_35_cls-14{stroke-width:0.85px;}.GUNDAN_LIZARD_BODY_LIZARD_BODY_35_cls-15{stroke-width:1.4px;}.GUNDAN_LIZARD_BODY_LIZARD_BODY_35_cls-16{stroke-width:1.64px;}</style>
  </defs>
  <g class="GUNDAN_LIZARD_BODY_LIZARD_BODY_35_cls-1">
    <g id="Body">
      <path class="GUNDAN_LIZARD_BODY_LIZARD_BODY_35_cls-2" d="M156.29,102.67c18.64-.88,35.92,11.8,44.12,19.82,0,0,1.93,2.41-1.71,3C190.5,117.48,174.74,106.15,156.29,102.67Z" />
      <path class="GUNDAN_LIZARD_BODY_LIZARD_BODY_35_cls-2" d="M198.7,125.45c.06,0,.1.11.16.15-1.35.82-2.37-1-3.34-.89a7.64,7.64,0,0,1-4.2-1.23,6.36,6.36,0,0,0-4.33-.91,2.6,2.6,0,0,1-2.54-1.54s-9.74-7.57-28.56-18.35h.4C174.74,106.15,190.5,117.48,198.7,125.45Z" />
      <path class="GUNDAN_LIZARD_BODY_LIZARD_BODY_35_cls-3" d="M198.86,125.6c-.06,0-.1-.1-.16-.15-8.2-8-24-19.3-42.41-22.78-.21,0-.42-.09-.64-.12l.24.13C174.71,113.46,184.45,121,184.45,121" />
      <path class="GUNDAN_LIZARD_BODY_LIZARD_BODY_35_cls-3" d="M198.7,125.45c3.64-.55,1.71-3,1.71-3-8.2-8-25.48-20.7-44.12-19.82h-.4" />
      <path class="GUNDAN_LIZARD_BODY_LIZARD_BODY_35_cls-3" d="M198.86,125.6c-1.35.82-2.37-1-3.34-.89a7.64,7.64,0,0,1-4.2-1.23,6.36,6.36,0,0,0-4.33-.91,2.6,2.6,0,0,1-2.54-1.54" />
      <path class="GUNDAN_LIZARD_BODY_LIZARD_BODY_35_cls-2" d="M155,113.06c18.64-.87,35.92,11.8,44.12,19.82,0,0,1.93,2.41-1.71,3C189.25,127.87,173.49,116.54,155,113.06Z" />
      <path class="GUNDAN_LIZARD_BODY_LIZARD_BODY_35_cls-2" d="M197.45,135.85c.06,0,.1.1.16.14-1.35.83-2.37-1-3.34-.89a7.62,7.62,0,0,1-4.2-1.22,6.36,6.36,0,0,0-4.33-.92,2.6,2.6,0,0,1-2.54-1.54s-9.75-7.57-28.56-18.35h.4C173.49,116.54,189.25,127.87,197.45,135.85Z" />
      <path class="GUNDAN_LIZARD_BODY_LIZARD_BODY_35_cls-3" d="M197.61,136c-.06,0-.1-.1-.16-.14-8.2-8-24-19.31-42.41-22.79l-.64-.12.24.13c18.81,10.78,28.56,18.35,28.56,18.35" />
      <path class="GUNDAN_LIZARD_BODY_LIZARD_BODY_35_cls-3" d="M197.45,135.85c3.64-.56,1.71-3,1.71-3-8.2-8-25.48-20.69-44.12-19.82h-.4" />
      <path class="GUNDAN_LIZARD_BODY_LIZARD_BODY_35_cls-3" d="M197.61,136c-1.35.83-2.37-1-3.34-.89a7.62,7.62,0,0,1-4.2-1.22,6.36,6.36,0,0,0-4.33-.92,2.6,2.6,0,0,1-2.54-1.54" />
      <path class="GUNDAN_LIZARD_BODY_LIZARD_BODY_35_cls-2" d="M155.16,122.3c18.65-.88,35.92,11.8,44.12,19.82,0,0,1.93,2.41-1.71,3C189.37,137.11,173.61,125.78,155.16,122.3Z" />
      <path class="GUNDAN_LIZARD_BODY_LIZARD_BODY_35_cls-2" d="M197.57,145.08c.06,0,.1.11.16.15-1.35.82-2.37-1-3.34-.89a7.66,7.66,0,0,1-4.2-1.23,6.36,6.36,0,0,0-4.33-.91,2.6,2.6,0,0,1-2.54-1.54s-9.74-7.57-28.56-18.35h.4C173.61,125.78,189.37,137.11,197.57,145.08Z" />
      <path class="GUNDAN_LIZARD_BODY_LIZARD_BODY_35_cls-3" d="M197.73,145.23c-.06,0-.1-.1-.16-.15-8.2-8-24-19.3-42.41-22.78-.21,0-.42-.09-.64-.12l.24.13c18.82,10.78,28.56,18.35,28.56,18.35" />
      <path class="GUNDAN_LIZARD_BODY_LIZARD_BODY_35_cls-3" d="M197.57,145.08c3.64-.55,1.71-3,1.71-3-8.2-8-25.47-20.7-44.12-19.82h-.4" />
      <path class="GUNDAN_LIZARD_BODY_LIZARD_BODY_35_cls-3" d="M197.73,145.23c-1.35.82-2.37-1-3.34-.89a7.66,7.66,0,0,1-4.2-1.23,6.36,6.36,0,0,0-4.33-.91,2.6,2.6,0,0,1-2.54-1.54" />
      <path class="GUNDAN_LIZARD_BODY_LIZARD_BODY_35_cls-2" d="M155.24,129.72c18.65-.87,35.92,11.8,44.12,19.82,0,0,1.94,2.41-1.71,3C189.45,144.53,173.69,133.2,155.24,129.72Z" />
      <path class="GUNDAN_LIZARD_BODY_LIZARD_BODY_35_cls-2" d="M197.65,152.51l.16.14c-1.35.83-2.37-1-3.34-.89a7.51,7.51,0,0,1-4.19-1.22,6.46,6.46,0,0,0-4.34-.92,2.56,2.56,0,0,1-2.53-1.54s-9.75-7.57-28.57-18.34l.36,0h0C173.69,133.2,189.45,144.53,197.65,152.51Z" />
      <path class="GUNDAN_LIZARD_BODY_LIZARD_BODY_35_cls-3" d="M197.81,152.65l-.16-.14c-8.2-8-24-19.31-42.41-22.79l-.64-.12.24.14c18.82,10.77,28.57,18.34,28.57,18.34" />
      <path class="GUNDAN_LIZARD_BODY_LIZARD_BODY_35_cls-3" d="M197.65,152.51c3.65-.56,1.71-3,1.71-3-8.2-8-25.47-20.69-44.12-19.82h0l-.36,0" />
      <path class="GUNDAN_LIZARD_BODY_LIZARD_BODY_35_cls-3" d="M197.81,152.65c-1.35.83-2.37-1-3.34-.89a7.51,7.51,0,0,1-4.19-1.22,6.46,6.46,0,0,0-4.34-.92,2.56,2.56,0,0,1-2.53-1.54" />
      <path class="GUNDAN_LIZARD_BODY_LIZARD_BODY_35_cls-2" d="M155.56,135.83c18.65-.87,35.92,11.8,44.12,19.82,0,0,1.94,2.41-1.71,3C189.77,150.64,174,139.31,155.56,135.83Z" />
      <path class="GUNDAN_LIZARD_BODY_LIZARD_BODY_35_cls-2" d="M198,158.62l.16.14c-1.35.83-2.37-1-3.34-.89a7.51,7.51,0,0,1-4.19-1.22,6.46,6.46,0,0,0-4.34-.92,2.56,2.56,0,0,1-2.53-1.54s-9.75-7.57-28.57-18.34l.36,0h0C174,139.31,189.77,150.64,198,158.62Z" />
      <path class="GUNDAN_LIZARD_BODY_LIZARD_BODY_35_cls-3" d="M198.13,158.76l-.16-.14c-8.2-8-24-19.31-42.41-22.79l-.64-.12.24.14c18.82,10.77,28.57,18.34,28.57,18.34" />
      <path class="GUNDAN_LIZARD_BODY_LIZARD_BODY_35_cls-3" d="M198,158.62c3.65-.56,1.71-3,1.71-3-8.2-8-25.47-20.69-44.12-19.82h0l-.36,0" />
      <path class="GUNDAN_LIZARD_BODY_LIZARD_BODY_35_cls-3" d="M198.13,158.76c-1.35.83-2.37-1-3.34-.89a7.51,7.51,0,0,1-4.19-1.22,6.46,6.46,0,0,0-4.34-.92,2.56,2.56,0,0,1-2.53-1.54" />
      <path class="GUNDAN_LIZARD_BODY_LIZARD_BODY_35_cls-2" d="M161,90.92c18.59,1.67,34,16.58,41,25.64,0,0,1.59,2.65-2.1,2.7C192.89,110.25,178.82,96.88,161,90.92Z" />
      <path class="GUNDAN_LIZARD_BODY_LIZARD_BODY_35_cls-2" d="M199.93,119.26c0,.06.09.12.14.17-1.45.63-2.21-1.35-3.18-1.34a7.53,7.53,0,0,1-4-1.78,6.36,6.36,0,0,0-4.17-1.5,2.59,2.59,0,0,1-2.3-1.87s-8.63-8.82-25.8-22.06l.36,0h0C178.82,96.88,192.89,110.25,199.93,119.26Z" />
      <path class="GUNDAN_LIZARD_BODY_LIZARD_BODY_35_cls-3" d="M200.07,119.43c0-.05-.09-.11-.14-.17-7-9-21.11-22.38-38.91-28.34l-.62-.2.22.16c17.17,13.24,25.8,22.06,25.8,22.06" />
      <path class="GUNDAN_LIZARD_BODY_LIZARD_BODY_35_cls-3" d="M199.93,119.26c3.69-.05,2.1-2.7,2.1-2.7-7-9.06-22.42-24-41-25.64h0l-.36,0" />
      <path class="GUNDAN_LIZARD_BODY_LIZARD_BODY_35_cls-3" d="M200.07,119.43c-1.45.63-2.21-1.35-3.18-1.34a7.53,7.53,0,0,1-4-1.78,6.36,6.36,0,0,0-4.17-1.5,2.59,2.59,0,0,1-2.3-1.87" />
      <path class="GUNDAN_LIZARD_BODY_LIZARD_BODY_35_cls-2" d="M167.15,80.43c18.4,3.12,32.58,19.18,38.88,28.76,0,0,1.38,2.77-2.3,2.54C197.42,102.19,184.44,87.76,167.15,80.43Z" />
      <path class="GUNDAN_LIZARD_BODY_LIZARD_BODY_35_cls-2" d="M203.73,111.73l.13.17c-1.49.52-2.1-1.51-3.07-1.58a7.48,7.48,0,0,1-3.84-2.09,6.42,6.42,0,0,0-4-1.82,2.57,2.57,0,0,1-2.15-2s-7.92-9.47-24-24l.35.07h0C184.44,87.76,197.42,102.19,203.73,111.73Z" />
      <path class="GUNDAN_LIZARD_BODY_LIZARD_BODY_35_cls-3" d="M203.86,111.9l-.13-.17c-6.31-9.54-19.29-24-36.58-31.3l-.6-.25.21.18c16.08,14.54,24,24,24,24" />
      <path class="GUNDAN_LIZARD_BODY_LIZARD_BODY_35_cls-3" d="M203.73,111.73c3.68.23,2.3-2.54,2.3-2.54-6.3-9.58-20.48-25.64-38.88-28.76h0l-.35-.07" />
      <path class="GUNDAN_LIZARD_BODY_LIZARD_BODY_35_cls-3" d="M203.86,111.9c-1.49.52-2.1-1.51-3.07-1.58a7.48,7.48,0,0,1-3.84-2.09,6.42,6.42,0,0,0-4-1.82,2.57,2.57,0,0,1-2.15-2" />
      <path class="GUNDAN_LIZARD_BODY_LIZARD_BODY_35_cls-2" d="M179.26,71c17.2,7.24,27.34,26.12,31.28,36.88,0,0,.71,3-2.82,1.95C203.75,99.09,194.41,82.08,179.26,71Z" />
      <path class="GUNDAN_LIZARD_BODY_LIZARD_BODY_35_cls-2" d="M207.72,109.82c0,.06.05.13.08.2-1.57.16-1.69-2-2.63-2.24a7.66,7.66,0,0,1-3.26-2.92,6.4,6.4,0,0,0-3.51-2.69,2.59,2.59,0,0,1-1.63-2.49s-5.54-11-17.88-28.85a2.52,2.52,0,0,1,.33.14l0,0C194.41,82.08,203.75,99.09,207.72,109.82Z" />
      <path class="GUNDAN_LIZARD_BODY_LIZARD_BODY_35_cls-3" d="M207.8,110c0-.07-.05-.14-.08-.2-4-10.73-13.31-27.74-28.46-38.83l-.53-.39.16.23c12.34,17.83,17.88,28.85,17.88,28.85" />
      <path class="GUNDAN_LIZARD_BODY_LIZARD_BODY_35_cls-3" d="M207.72,109.82c3.53,1.06,2.82-1.95,2.82-1.95C206.6,97.11,196.46,78.23,179.26,71l0,0a2.52,2.52,0,0,0-.33-.14" />
      <path class="GUNDAN_LIZARD_BODY_LIZARD_BODY_35_cls-3" d="M207.8,110c-1.57.16-1.69-2-2.63-2.24a7.66,7.66,0,0,1-3.26-2.92,6.4,6.4,0,0,0-3.51-2.69,2.59,2.59,0,0,1-1.63-2.49" />
      <path class="GUNDAN_LIZARD_BODY_LIZARD_BODY_35_cls-2" d="M188.66,62.47c16.06,9.52,23.54,29.6,26,40.8,0,0,.29,3.08-3.06,1.54C209.11,93.64,202.17,75.52,188.66,62.47Z" />
      <path class="GUNDAN_LIZARD_BODY_LIZARD_BODY_35_cls-2" d="M211.58,104.81c0,.08,0,.15,0,.21-1.57,0-1.41-2.17-2.3-2.58a7.54,7.54,0,0,1-2.83-3.33A6.42,6.42,0,0,0,203.38,96a2.59,2.59,0,0,1-1.27-2.68s-4-11.68-13.79-31l.31.19h0C202.17,75.52,209.11,93.64,211.58,104.81Z" />
      <path class="GUNDAN_LIZARD_BODY_LIZARD_BODY_35_cls-3" d="M211.63,105c0-.06,0-.13,0-.21-2.47-11.17-9.41-29.29-22.92-42.34-.15-.15-.3-.3-.47-.45l.13.25c9.8,19.34,13.79,31,13.79,31" />
      <path class="GUNDAN_LIZARD_BODY_LIZARD_BODY_35_cls-3" d="M211.58,104.81c3.35,1.54,3.06-1.54,3.06-1.54-2.44-11.2-9.92-31.28-26-40.8h0l-.31-.19" />
      <path class="GUNDAN_LIZARD_BODY_LIZARD_BODY_35_cls-3" d="M211.63,105c-1.57,0-1.41-2.17-2.3-2.58a7.54,7.54,0,0,1-2.83-3.33A6.42,6.42,0,0,0,203.38,96a2.59,2.59,0,0,1-1.27-2.68" />
      <path class="GUNDAN_LIZARD_BODY_LIZARD_BODY_35_cls-2" d="M199.43,56.93c15.27,10.74,21.15,31.34,22.71,42.7,0,0,.05,3.09-3.17,1.3C217.38,89.6,211.87,71,199.43,56.93Z" />
      <path class="GUNDAN_LIZARD_BODY_LIZARD_BODY_35_cls-2" d="M219,100.93c0,.07,0,.14,0,.21-1.57-.17-1.24-2.27-2.09-2.75a7.59,7.59,0,0,1-2.57-3.54,6.41,6.41,0,0,0-2.86-3.38,2.57,2.57,0,0,1-1.06-2.77s-3.06-12-11.33-32a3.21,3.21,0,0,1,.3.21l0,0C211.87,71,217.38,89.6,219,100.93Z" />
      <path class="GUNDAN_LIZARD_BODY_LIZARD_BODY_35_cls-3" d="M219,101.14c0-.07,0-.14,0-.21-1.59-11.33-7.1-29.94-19.54-44-.14-.17-.28-.32-.43-.49,0,.09.07.17.1.26,8.27,20,11.33,32,11.33,32" />
      <path class="GUNDAN_LIZARD_BODY_LIZARD_BODY_35_cls-3" d="M219,100.93c3.22,1.79,3.17-1.3,3.17-1.3-1.56-11.36-7.44-32-22.71-42.7l0,0a3.21,3.21,0,0,0-.3-.21" />
      <path class="GUNDAN_LIZARD_BODY_LIZARD_BODY_35_cls-3" d="M219,101.14c-1.57-.17-1.24-2.27-2.09-2.75a7.59,7.59,0,0,1-2.57-3.54,6.41,6.41,0,0,0-2.86-3.38,2.57,2.57,0,0,1-1.06-2.77" />
      <path class="GUNDAN_LIZARD_BODY_LIZARD_BODY_35_cls-4" d="M267.06,240c.17-.07,2.28,3,1,5.38-3.58-.28-4.3-2.1-4.3-2.1A29.94,29.94,0,0,1,267.06,240Z" />
      <path class="GUNDAN_LIZARD_BODY_LIZARD_BODY_35_cls-4" d="M240.31,240.54a33,33,0,0,1,3.33,3.29s-.72,1.81-4.3,2.09C238,243.58,240.13,240.48,240.31,240.54Z" />
      <path class="GUNDAN_LIZARD_BODY_LIZARD_BODY_35_cls-2" d="M277.44,280.18c1.33,2.86,2.3,5.87.52,5.73s-3-.66-3-3S277.18,279.64,277.44,280.18Z" />
      <path class="GUNDAN_LIZARD_BODY_LIZARD_BODY_35_cls-2" d="M291.68,198.53a13.46,13.46,0,0,1,2.18.1c-.67,1.28-1.42,2.65-2.22,4.08-.92,1.65-1.82,3.23-2.67,4.73,0,0-1.62-5.77-.71-7.62C288.76,198.83,290.33,198.56,291.68,198.53Z" />
      <path class="GUNDAN_LIZARD_BODY_LIZARD_BODY_35_cls-2" d="M287.43,170.72s-.07.2-.2.53c-.51,1.31-2,4.72-4,5.6-.52-.44-1.93-4.62-1.93-4.62s-.13,0-.37.1c-.22,0-.09-1.35.65-3.52.65-1.93,2.07-1.66,3.24-1.14a7.83,7.83,0,0,1,.71.35A5.3,5.3,0,0,1,287.43,170.72Z" />
      <path class="GUNDAN_LIZARD_BODY_LIZARD_BODY_35_cls-2" d="M293.86,198.63a13.46,13.46,0,0,0-2.18-.1h0s-1.88-3.87-1.43-5.54c.23-.83,1.86-1,3.46-1a26,26,0,0,1,3.25.23c-.55,1.3-1.19,2.68-1.93,4.16h0l-1.17,2.29Z" />
      <path class="GUNDAN_LIZARD_BODY_LIZARD_BODY_35_cls-2" d="M281.33,172.23s1.41,4.18,1.93,4.62-1,2.17-1.14,2.28-2.57.9-2.57.9c.07-.22.08-.37,0-.42a2.76,2.76,0,0,0-1.33-.48,10.6,10.6,0,0,1,1.11-4.42,5.06,5.06,0,0,1,1.59-2.38C281.2,172.18,281.33,172.23,281.33,172.23Z" />
      <path class="GUNDAN_LIZARD_BODY_LIZARD_BODY_35_cls-2" d="M289.77,164.71s-1.76,5.68-2.54,6.54c.13-.33.2-.53.2-.53a5.3,5.3,0,0,0-1.87-2.7,7.83,7.83,0,0,0-.71-.35s-.5-3.77.15-4.7S289.77,164.71,289.77,164.71Z" />
      <path class="GUNDAN_LIZARD_BODY_LIZARD_BODY_35_cls-2" d="M297.81,166.28c.62,2.44,1.21,4.71,1.71,7.24a4.91,4.91,0,0,0-2.85,1.12s-2.23-3.35-1.46-5.31A7,7,0,0,1,297.81,166.28Z" />
      <path class="GUNDAN_LIZARD_BODY_LIZARD_BODY_35_cls-2" d="M299.65,174.21c1,5.11.81,9.83-2.69,18a26,26,0,0,0-3.25-.23s-1.47-3.12-.91-5.07,3.32-3.08,3.25-6.22c-.05-2.27-.83-4.62.62-6a4.91,4.91,0,0,1,2.85-1.12C299.57,173.75,299.61,174,299.65,174.21Z" />
      <path class="GUNDAN_LIZARD_BODY_LIZARD_BODY_35_cls-2" d="M216.93,176.46c.35,2.16.54,5.27.54,5.27s-.14-.07-.36-.21c-1.17-.68-4.79-3-5.43-5.32l.8.92a7,7,0,0,0,.8-2.26c.1-.7.55-1.42.76-2.43a4.88,4.88,0,0,1,2.63,2.77A11,11,0,0,1,216.93,176.46Z" />
      <path class="GUNDAN_LIZARD_BODY_LIZARD_BODY_35_cls-2" d="M213.28,174.86a7,7,0,0,1-.8,2.26l-.8-.92h0l-4-4.69a19.91,19.91,0,0,0,1.67-4.4c0-.27.12-.58.2-.9.2,0,3.53.67,4.34,3.34a5.56,5.56,0,0,1,.17,2.89C213.83,173.44,213.38,174.16,213.28,174.86Z" />
      <path class="GUNDAN_LIZARD_BODY_LIZARD_BODY_35_cls-2" d="M216.94,176.46s4.34-.16,4.86,3.29a20.17,20.17,0,0,1-.84,7.72l-3.85-5.95c.22.14.36.21.36.21s-.19-3.11-.54-5.27Z" />
      <path class="GUNDAN_LIZARD_BODY_LIZARD_BODY_35_cls-2" d="M279.59,179.61s0,.2,0,.42c-.35,1.28-2.27,5.12-3.65,5.6a9.85,9.85,0,0,1-.26-5,2.12,2.12,0,0,1,2.62-1.46A2.76,2.76,0,0,1,279.59,179.61Z" />
      <path class="GUNDAN_LIZARD_BODY_LIZARD_BODY_35_cls-2" d="M177.4,176.61s3.61.07,4.28,1.59c.19.45-.12,1-.65,1.55h0a17.41,17.41,0,0,1-3.43,2.44l-.42.24L176,181C176.21,180.38,176.92,178.27,177.4,176.61Z" />
      <path class="GUNDAN_LIZARD_BODY_LIZARD_BODY_35_cls-2" d="M187,181.84c.74,1.39,2.62,4.61,1.09,5.27a10.81,10.81,0,0,1-4.6.25c-2.21-.27-4.5-1.09-5.18-2.87h0a8.14,8.14,0,0,0-.18-2.26l-.49,0a17.41,17.41,0,0,0,3.43-2.44h0C181.28,179.78,186.27,180.47,187,181.84Z" />
      <path class="GUNDAN_LIZARD_BODY_LIZARD_BODY_35_cls-2" d="M176,181a1.94,1.94,0,0,0-.07.19l-2.84.15-.41,0c-3.15-1.41-.21-6-.21-6s5.27-1.74,5.38-.83a8.55,8.55,0,0,1-.44,2.07C176.92,178.27,176.21,180.38,176,181Z" />
      <path class="GUNDAN_LIZARD_BODY_LIZARD_BODY_35_cls-2" d="M178.29,184.49c.68,1.78,3,2.6,5.18,2.87,0,0,3.23,5.48,3,7.75a46.11,46.11,0,0,1-1.77,6.59c-.77,2.42-1.51,4.53-1.51,4.53a85.7,85.7,0,0,0-8.69-8.81s0-4.27-1.72-6.71,1-4.82,1-4.82a5.53,5.53,0,0,0,3.92-.25,1.32,1.32,0,0,0,.57-1.15Z" />
      <path class="GUNDAN_LIZARD_BODY_LIZARD_BODY_35_cls-2" d="M209.53,166.2c-.08.32-.15.63-.2.9a19.91,19.91,0,0,1-1.67,4.4,22.84,22.84,0,0,1-3.18-7.78s2.27-2.21,4.37-1.82C210.61,162.22,210,164.47,209.53,166.2Z" />
      <path class="GUNDAN_LIZARD_BODY_LIZARD_BODY_35_cls-2" d="M192.54,212.68c.66,2.09-.56,6-.56,6a77.47,77.47,0,0,0-6-9c-.86-1.12-1.78-2.25-2.74-3.39,0,0,.74-2.11,1.51-4.53,0,0,5.13-.69,5.69,3.05A41.74,41.74,0,0,0,192.54,212.68Z" />
      <path class="GUNDAN_LIZARD_BODY_LIZARD_BODY_35_cls-2" d="M178.08,182.23a8.14,8.14,0,0,1,.18,2.26,1.32,1.32,0,0,1-.57,1.15,5.53,5.53,0,0,1-3.92.25,1.94,1.94,0,0,1-.9-.7c-1-1.43.21-3.8.21-3.8v0l2.84-.15A1.94,1.94,0,0,1,176,181l1.18,1.41.42-.24Z" />
      <path class="GUNDAN_LIZARD_BODY_LIZARD_BODY_35_cls-2" d="M171.51,212.88c1.72,1.33.08,4.79-.41,5.35s-5.07-.66-3.43-4.19C167.67,214,169.8,211.56,171.51,212.88Z" />
      <path class="GUNDAN_LIZARD_BODY_LIZARD_BODY_35_cls-2" d="M306.18,320.66c1.5,1,2,2.27,1,3.25s-5.51-.17-5.51-.17c1.17-.8,1-2.36.49-3.5a.94.94,0,0,0-.54-.4A9,9,0,0,1,306.18,320.66Z" />
      <path class="GUNDAN_LIZARD_BODY_LIZARD_BODY_35_cls-2" d="M284.18,262.65c.08,2.88.23,6,.52,8.8,0,0-5.82-1.15-5.77-3.46s-.72-4.61-.72-6.21c0-.29.19-.45.5-.51C280.12,261,284,262.56,284.18,262.65Z" />
      <path class="GUNDAN_LIZARD_BODY_LIZARD_BODY_35_cls-2" d="M301.66,319.84a.94.94,0,0,1,.54.4c.55,1.14.68,2.7-.49,3.5a2.61,2.61,0,0,1-.28.17,14.06,14.06,0,0,1-4.32.86,37.37,37.37,0,0,0-2.06-5S299.94,319.22,301.66,319.84Z" />
      <path class="GUNDAN_LIZARD_BODY_LIZARD_BODY_35_cls-2" d="M287.8,292.54h0c-1.18,4.33-5.79,8.1-6.31,6.07s2.38-8.38,2.61-12.08,3.34-3.08,3.34-3.08A75.29,75.29,0,0,1,287.8,292.54Z" />
      <path class="GUNDAN_LIZARD_BODY_LIZARD_BODY_35_cls-2" d="M284.21,252.56c-.06,1.58-.14,5.57,0,10.09-.22-.09-4.06-1.66-5.47-1.38,0,0-2.25-4.91-1.59-6.55s3.29-3.14,4.34-2.82S284.21,252.56,284.21,252.56Z" />
      <path class="GUNDAN_LIZARD_BODY_LIZARD_BODY_35_cls-2" d="M298.48,270.52s-3.34-.18-3.64-2.56-1.37-5-1.34-7.27,2.67-4.12,2.67-4.12C296.9,261.69,297.76,267.08,298.48,270.52Z" />
      <path class="GUNDAN_LIZARD_BODY_LIZARD_BODY_35_cls-2" d="M191.58,255.2a5.88,5.88,0,0,1,.5,2.83,6.35,6.35,0,0,1-1.88,2.32,5.07,5.07,0,0,1-2.86,1.45c-1.5-.09-2.47-6.06-2.47-6.06-.58-2.61-4-4.65-4.76-6.19s1.73-7.44,3.87-6.33,5.13,4.94,6.1,7.81C190.57,252.48,191.16,253.94,191.58,255.2Z" />
      <path class="GUNDAN_LIZARD_BODY_LIZARD_BODY_35_cls-2" d="M191.66,255.19c-.23-.43,5.27,1.26,5.46,4.05s-.1,6.4.18,8.56-7.92,1.89-7.1-7.45a6.35,6.35,0,0,0,1.88-2.32,5.88,5.88,0,0,0-.5-2.83Z" />
      <path class="GUNDAN_LIZARD_BODY_LIZARD_BODY_35_cls-2" d="M171.78,310c0,2.16-1.07,6.77-2.63,5.71s-3.43-5.26-2.63-8C167.48,304.31,171.78,307.8,171.78,310Z" />
      <path class="GUNDAN_LIZARD_BODY_LIZARD_BODY_35_cls-2" d="M179.74,280.75c1.54,1.17,1.21,3.27,1.21,5.63s2.52,7.23-.51,7.6-4.84-3.92-4.19-5.78-1.81-4.24-1.81-4.24c-.59-2.41.11-3.54,1.19-3.95A5,5,0,0,1,179.74,280.75Z" />
      <path class="GUNDAN_LIZARD_BODY_LIZARD_BODY_35_cls-2" d="M172.15,278c1.36.24,3.48,2.05,3.48,2.05-1.08.41-1.78,1.54-1.19,3.95,0,0-7.31.89-7.18-1.53S170.8,277.73,172.15,278Z" />
      <path class="GUNDAN_LIZARD_BODY_LIZARD_BODY_35_cls-5" d="M386.73,434.07c-1.44-6.47-.38-14.57-3.15-29.64-3.08-16.76-11.73-26.56-16.93-37.9s-20.5-19-24.69-24.17-6.45-5.37-10.51-9.89a18.8,18.8,0,0,0-6.38-4.69,24.05,24.05,0,0,1-3.16-2.59l-.06-.05a26.3,26.3,0,0,1-2.64-2.95c-2.65-3.48-11.18-9.35-12.3-21.92s-6.35-22.29-7.81-27.18c-.19-.62-.4-1.5-.62-2.57,0,0-3.33-.18-3.64-2.56s-1.37-5-1.34-7.27,2.67-4.12,2.67-4.12c-.81-5.67-1.47-11-1.64-13-.19-2.28.26-5.94.51-10.62,0-.15,0-.31,0-.47,0-.31,0-.61.05-.93,0-.6.05-1.22.07-1.85,0-1,0-2.05,0-3.12,0-.35,0-.69,0-1,0-1.07-.06-2.16-.13-3.29-.05-.66-.1-1.33-.16-2,0-.41-.08-.83-.13-1.25s-.1-.85-.15-1.28l-.06-.53c-.17-1.36-.29-2.69-.37-4,0-.35-.05-.69-.06-1,0-.55-.05-1.1-.07-1.64,0-.34,0-.68,0-1,0-.7,0-1.38,0-2,0-.38,0-.76,0-1.12a63.78,63.78,0,0,1,.86-9.33c.06-.36.1-.58.12-.67l-1.16,2.27h0c-.67,1.28-1.41,2.65-2.22,4.08-.45.82-.91,1.64-1.36,2.42,0,.05,0,.09-.07.13-.42.74-.83,1.47-1.24,2.18,0,0-1.62-5.77-.7-7.62.49-1,2.06-1.26,3.42-1.29h0s-1.89-3.87-1.43-5.54c.22-.83,1.86-1,3.46-1,0,0-1.48-3.12-.92-5.07s3.33-3.08,3.25-6.22c-.05-2.27-.83-4.62.63-6,0,0-2.24-3.35-1.47-5.31a7,7,0,0,1,2.6-3.05,137.47,137.47,0,0,1-3.1-15.07,93.36,93.36,0,0,0-4.77-17.81h0a89.73,89.73,0,0,0-6.77-14.69c-1.72-2.81-2.86-6.2-4.29-9.42-2.21-5-5.09-9.59-11.83-11.06C256,95.8,254.3,93,246.38,91.05s-18.9.65-29,.84-14.44,0-29.89,6.88c-6.71,3-10.74,6.48-13.62,10.51-3.76,5.26-5.56,11.46-8.83,18.74-5.77,12.86-5.59,22.17-6.05,27.19s-2,6.53-2.33,11.37S151.08,180,151.19,189c0,.13,0,.27,0,.41.19,5.93,1.23,8.83,1.23,12.65v.39a1.7,1.7,0,0,1,0,.22,28.54,28.54,0,0,1-1.22,6.95c-2.6,9.13-7.45,30.64-9.12,38.74-1.45,7-4,8.72-4.23,13.59,0,.34,0,.68,0,1.05V263c0,.19,0,.39,0,.6s0,.54,0,.82.05.72.07,1.09,0,.78.06,1.18c0,.2,0,.41,0,.62s0,.71,0,1.08q0,.84,0,1.71c0,.26,0,.54,0,.8,0,.85-.05,1.73-.1,2.63s-.12,1.91-.21,2.9c0,.49-.09,1-.15,1.49s-.11,1-.18,1.53-.1.79-.16,1.19q-.21,1.47-.48,3l-.24,1.22c-.08.4-.16.79-.25,1.19s-.16.72-.25,1.08-.21.91-.33,1.36-.3,1.14-.47,1.71-.34,1.14-.52,1.71-.3.92-.46,1.37c-.23.67-.48,1.33-.74,2a69.27,69.27,0,0,0-3.19,10.21c-.69,2.81-1.09,4.18-3.33,5.9-4,3.13-5.66,8.56-5.66,8.56s-1.56,2.71-7.17,5.17-7.93,6.26-12.11,11.74-19.49,13.6-24.69,25.59-13.84,22.38-16.93,40.12c-2.77,15.95-1.71,24.53-3.15,31.38a20.62,20.62,0,0,1-.59,2.25H387.32A20.85,20.85,0,0,1,386.73,434.07ZM240.31,240.54a33.8,33.8,0,0,1,3.34,3.29s-.72,1.81-4.31,2.09C238,243.58,240.14,240.48,240.31,240.54Zm-31.49-78.65h0a.5.5,0,0,1,.13,0c1.07.26,1.14,1.32,1,2.5l-.06.29c-.1.5-.23,1-.34,1.48a6.77,6.77,0,0,1,1.08.31l.22.08a4.89,4.89,0,0,1,3,2.95,5.67,5.67,0,0,1,.17,2.89,4.91,4.91,0,0,1,2.63,2.77,11.2,11.2,0,0,1,.25,1.26h0s4.34-.16,4.86,3.29a20.26,20.26,0,0,1-.83,7.72l-1.69-2.59-.61-.93-1.56-2.43c-1.17-.68-4.79-3-5.42-5.32h0l-4-4.69a22.7,22.7,0,0,1-3.17-7.78S206.73,161.53,208.82,161.89Zm-11.7,97.35c.19,2.8-.09,6.4.19,8.56a.75.75,0,0,1,0,.3c-.14.54-.91.86-1.91.8-2.28-.15-5.71-2.36-5.17-8.55a5,5,0,0,1-2.86,1.45c-1.5-.09-2.47-6.06-2.47-6.06-.57-2.61-4-4.65-4.75-6.19s1.72-7.44,3.86-6.33,5.13,4.94,6.1,7.81c.49,1.45,1.08,2.91,1.51,4.17h.07C191.44,254.76,196.93,256.45,197.12,259.24Zm-24.66-83.87s5.27-1.74,5.38-.83a8.07,8.07,0,0,1-.44,2.07s3.61.07,4.28,1.59c.2.45-.12,1-.65,1.55.25,0,5.25.72,6,2.09a20,20,0,0,1,1.48,3.19c.29.94.3,1.78-.4,2.08a10.76,10.76,0,0,1-4.59.25s3.23,5.48,3,7.75a47.86,47.86,0,0,1-1.78,6.59s5.13-.69,5.69,3.05a42.5,42.5,0,0,0,2.13,7.93c.66,2.09-.55,6-.55,6a78.91,78.91,0,0,0-6-9q-1.29-1.68-2.74-3.39a86.61,86.61,0,0,0-8.68-8.81s0-4.27-1.72-6.71,1-4.82,1-4.82a1.92,1.92,0,0,1-.89-.7c-1-1.43.21-3.8.21-3.8v0l-.42,0C169.53,180,172.46,175.37,172.46,175.37ZM167.67,214s2.14-2.48,3.84-1.16.08,4.79-.41,5.35S166,217.57,167.67,214ZM172.16,278c1.35.24,3.47,2.05,3.47,2.05a5,5,0,0,1,4.11.74c1.54,1.17,1.21,3.27,1.21,5.63a3.64,3.64,0,0,0,0,.45,8.34,8.34,0,0,0,.17,1c0,.18.09.37.13.56s0,.16.06.26.07.29.1.43c.11.44.21.89.3,1.32,0,.14.06.28.08.42a3.53,3.53,0,0,1,.06.42c0,.1,0,.2,0,.29.11,1.28-.16,2.27-1.47,2.43a2.3,2.3,0,0,1-.37,0h-.44a3,3,0,0,1-.43-.1,2.87,2.87,0,0,1-.67-.3,3.64,3.64,0,0,1-.35-.24l-.22-.19a3.3,3.3,0,0,1-.38-.37,1.71,1.71,0,0,1-.21-.26,2.26,2.26,0,0,1-.2-.26l-.1-.14L177,292l-.05-.08a.25.25,0,0,0,0-.07.41.41,0,0,0,0-.09l-.12-.24-.07-.14a1,1,0,0,1,0-.1,1.48,1.48,0,0,1-.12-.29,4.25,4.25,0,0,1-.26-2.77c.66-1.86-1.81-4.24-1.81-4.24s-7.31.89-7.17-1.53S170.8,277.73,172.16,278Zm-5.64,29.71c1-3.36,5.26.13,5.26,2.3s-1.07,6.77-2.63,5.71S165.73,310.42,166.52,307.67ZM268,245.36c-3.59-.28-4.31-2.1-4.31-2.1a29.94,29.94,0,0,1,3.34-3.28C267.23,239.91,269.35,243,268,245.36Zm7.62-64.77a2.11,2.11,0,0,1,2.61-1.46,10.6,10.6,0,0,1,1.11-4.42c.71-1.62,1.26-2.19,1.6-2.38-.23,0-.09-1.35.64-3.52.65-1.93,2.07-1.66,3.24-1.14,0,0-.5-3.77.15-4.7s4.77,1.74,4.77,1.74-1.76,5.68-2.53,6.54c-.52,1.31-2,4.72-4,5.6.52.44-1,2.17-1.14,2.28s-2.56.9-2.56.9c-.36,1.28-2.28,5.12-3.66,5.6A9.9,9.9,0,0,1,275.65,180.59ZM278,285.91c-1.79-.14-3-.66-3-3s2.23-3.27,2.48-2.73C278.77,283,279.74,286.05,278,285.91Zm1-17.92a10.29,10.29,0,0,0-.05-1.24c0-.13,0-.26,0-.39-.18-1.72-.63-3.36-.63-4.58,0-.29.2-.45.51-.51,0,0-2.26-4.91-1.59-6.55s3.28-3.14,4.33-2.82c.7.21,1.69.43,2.27.55l.11,0,.38.08c-.06,1.58-.15,5.57,0,10.09.08,2.88.23,6,.53,8.79C284.71,271.44,278.89,270.3,278.93,268Zm8.87,24.56c-1.17,4.33-5.78,8.1-6.31,6.07s2.38-8.38,2.62-12.08,3.34-3.08,3.34-3.08a77.48,77.48,0,0,1,.35,9.08Zm19.43,31.36c-.91,1-5.52-.17-5.52-.17a1.89,1.89,0,0,1-.28.17,14.06,14.06,0,0,1-4.31.86,37.4,37.4,0,0,0-2.07-5s4.89-.59,6.61,0a9,9,0,0,1,4.53.82C307.68,321.63,308.14,322.93,307.23,323.91Z" />
      <path class="GUNDAN_LIZARD_BODY_LIZARD_BODY_35_cls-6" d="M295.17,225.53c-.07-2.33-.24-4.8-.57-7.39a72.69,72.69,0,0,1-.56-7.71c0-.34,0-.68,0-1,0-.66,0-1.29,0-1.91,0-.39,0-.78,0-1.15a61.08,61.08,0,0,1,1-9.55,1.55,1.55,0,0,0-.12.22l-1,2h0c-.67,1.28-1.41,2.65-2.22,4.08-.45.82-.91,1.64-1.36,2.42,0,.05,0,.09-.07.13-2.17,4.07-4.87,9.13-7.85,14.74C273.8,233.73,276.45,247,271,253S254,258.89,254,258.89s-3,.1-7.74.08l-1.11-.08a1.88,1.88,0,0,1-1.49.44c-2.45,0-6.84-1.47-7.5,0l-.56-.06a52.5,52.5,0,0,1-7.69-1.59c-14.32-6-15.4-8.54-25.27-27.94-4.93-6.59-7.57-12.19-9-17,0-.13-.07-.26-.11-.39-2-7.2-1.26-12.49-1.39-16.47-.11-3.11-1.31-6.88-2.42-10.82h0c0-.13-.08-.26-.11-.39-1.23-4.37-2.31-8.93-1.63-13,1.29-7.91,6.71-9.79,10.16,1.18s7.45,21,16.44,25.86c8.71,4.74,12.21,9.53,12.42,9.83a157.11,157.11,0,0,1-5-15.84,52.88,52.88,0,0,0-2.7-7.4c-.19-.45-.39-.9-.61-1.37l-1.56-2.43c-1.17-.68-4.79-3-5.42-5.32h0l-4-4.69a22.7,22.7,0,0,1-3.17-7.78s2.24-2.19,4.33-1.83c-.3-.86-.54-1.67-.74-2.42-2.15-8.56-3.79-14.43-9.19-21.42s-4.66-18.07,6.27-27.84,25.76-14,39.73-10.24,15.84.46,34,9.75c-2.21-5-5.09-9.59-11.83-11.06-11.08-2.42-12.75-5.21-20.67-7.17s-18.9.65-29,.84-14.44,0-29.89,6.88c-6.71,3-10.74,6.48-13.62,10.51-3.76,5.26-5.56,11.46-8.83,18.74-5.77,12.86-5.59,22.17-6,27.19s-2,6.53-2.33,11.37c-.36,4.69-5.44,13.13-5.51,22,0,.27,0,.56,0,.85.17,5.7,1.15,8.6,1.23,12.21v.39a1.7,1.7,0,0,1,0,.22,27.31,27.31,0,0,1-1.22,7.39c-2.6,9.13-7.45,30.64-9.12,38.74-1.51,7.3-4.15,8.86-4.26,14.2V263c0,.57,0,1.19.07,1.86.08,1.05.14,2.23.17,3.53q0,.84,0,1.71c0,.57,0,1.15,0,1.75,0,.1,0,.2,0,.3a72.17,72.17,0,0,1-4.51,23.53,66.73,66.73,0,0,0-3.08,9.77h-.11c-.69,2.81-1.09,4.18-3.33,5.9-4,3.13-5.66,8.56-5.66,8.56s-1.56,2.71-7.17,5.17-7.93,6.26-12.11,11.74-19.49,13.6-24.69,25.59-13.84,22.38-16.93,40.12c-2.77,15.95-1.71,24.53-3.15,31.38a20.62,20.62,0,0,1-.59,2.25H221.27a121.32,121.32,0,0,0-23.62-26.75c-7.65-6.38-13.92-18.38-18.07-32.44A138.71,138.71,0,0,1,174,334.85v-.08a22.85,22.85,0,0,0-.16-3.54c-.25-12.55,2.88-23.78,5.47-35.32.11-.51.23-1,.35-1.49a3.39,3.39,0,0,1,.11-.43h-.15a3,3,0,0,1-.43-.1,2.87,2.87,0,0,1-.67-.3,3.64,3.64,0,0,1-.35-.24l-.22-.19a3.3,3.3,0,0,1-.38-.37,1.71,1.71,0,0,1-.21-.26,2.26,2.26,0,0,1-.2-.26l-.1-.14L177,292l-.05-.08a.25.25,0,0,0,0-.07.41.41,0,0,0-.05-.09l-.12-.24-.07-.14a1,1,0,0,1,0-.1,1.48,1.48,0,0,1-.12-.29,4.25,4.25,0,0,1-.26-2.77c.66-1.86-1.81-4.24-1.81-4.24s-7.31.89-7.17-1.53,3.53-4.7,4.89-4.47,3.47,2.05,3.47,2.05a5,5,0,0,1,4.11.74c1.54,1.17,1.21,3.27,1.21,5.63a3.64,3.64,0,0,0,0,.45,8.34,8.34,0,0,0,.17,1c0,.18.09.37.13.56s0,.16.06.26c3.56-10.6,8.76-16.73,14-19.33a14.1,14.1,0,0,1,1.91-.8A12.43,12.43,0,0,1,209.63,271c5.13,4.45,12,6.4,21.15,7.1l2,.13,6.65.06,6.71.06q3.11-.07,6.44-.19c.19,0,.39,0,.58,0,13.62-.58,21.2-4.33,25.64-11.29l0-.05c0-.13,0-.26,0-.39-.18-1.72-.63-3.36-.63-4.58,0-.29.2-.45.51-.51,0,0-2.26-4.91-1.59-6.55s3.28-3.14,4.33-2.82c.7.21,1.69.43,2.27.55l.11,0A39.17,39.17,0,0,1,295,232.94l0,0c.07-1.35.13-2.78.14-4.29,0-.67,0-1.36,0-2.05C295.18,226.22,295.18,225.88,295.17,225.53ZM171.77,310c0,2.16-1.07,6.77-2.63,5.71s-3.42-5.26-2.63-8C167.48,304.31,171.77,307.8,171.77,310Zm-.68-91.74c-.49.56-5.07-.66-3.43-4.19,0,0,2.14-2.48,3.84-1.16S171.58,217.67,171.09,218.23Zm3.43-20.81s0-4.27-1.72-6.71,1-4.82,1-4.82a1.92,1.92,0,0,1-.89-.7c-1-1.43.21-3.8.21-3.8v0l-.42,0c-3.14-1.41-.21-6-.21-6s5.27-1.74,5.38-.83a8.07,8.07,0,0,1-.44,2.07s3.61.07,4.28,1.59c.2.45-.12,1-.65,1.55.25,0,5.25.72,6,2.09a20,20,0,0,1,1.48,3.19c.29.94.3,1.78-.4,2.08a10.76,10.76,0,0,1-4.59.25s3.23,5.48,3,7.75a47.86,47.86,0,0,1-1.78,6.59s5.13-.69,5.69,3.05a42.5,42.5,0,0,0,2.13,7.93c.66,2.09-.55,6-.55,6a78.91,78.91,0,0,0-6-9q-1.29-1.68-2.74-3.39A86.61,86.61,0,0,0,174.52,197.42Zm22.75,70.68c-.14.54-.91.86-1.91.8-2.28-.15-5.71-2.36-5.17-8.55a5,5,0,0,1-2.86,1.45c-1.5-.09-2.47-6.06-2.47-6.06-.57-2.61-4-4.65-4.75-6.19s1.72-7.44,3.86-6.33,5.13,4.94,6.1,7.81c.49,1.45,1.08,2.91,1.51,4.17h.07c-.22-.43,5.27,1.26,5.46,4.05s-.09,6.4.19,8.56A.75.75,0,0,1,197.27,268.1Z" />
      <g class="GUNDAN_LIZARD_BODY_LIZARD_BODY_35_cls-7">
        <g class="GUNDAN_LIZARD_BODY_LIZARD_BODY_35_cls-8">
          <path class="GUNDAN_LIZARD_BODY_LIZARD_BODY_35_cls-9" d="M209.54,166.2a6.77,6.77,0,0,1,1.08.31c-.24-.56-.46-1.11-.68-1.64a.94.94,0,0,1-.06-.15C209.78,165.22,209.65,165.73,209.54,166.2Z" />
        </g>
      </g>
      <path class="GUNDAN_LIZARD_BODY_LIZARD_BODY_35_cls-10" d="M295.52,165.77s.75-1.18,1.56-2.38c.36-.53.72-1,1-1.49,1-1.4,2.68-6.7,2.78-7-.19.2-2.6,2.86-4.66,4.86a12,12,0,0,1-2.64,2.17C291.94,163,291.68,166.66,295.52,165.77Z" />
      <path class="GUNDAN_LIZARD_BODY_LIZARD_BODY_35_cls-10" d="M306.91,149.9a70.4,70.4,0,0,1-6.6,14l-2.22,3.45c.52,2,1,4,1.43,6.15.05.23.09.46.13.69.83,4.42.84,8.54-1.45,14.83,2.31-2.55,5.38-6,6-7.31,1-2.07,3.4-11.73,3.83-16S306.91,149.9,306.91,149.9Z" />
      <path class="GUNDAN_LIZARD_BODY_LIZARD_BODY_35_cls-10" d="M299.72,206.23a65.05,65.05,0,0,0-5.69,3.28,71.42,71.42,0,0,0,.52,7.66c1.77-1,5.94-3.71,7.27-7.94a23.37,23.37,0,0,0,1.13-9.35Z" />
      <path class="GUNDAN_LIZARD_BODY_LIZARD_BODY_35_cls-10" d="M294.66,199.24c-.05.16-.1.33-.14.51a72.31,72.31,0,0,0-.49,7.33,14.71,14.71,0,0,0,3.57-3.88,48.15,48.15,0,0,0,7.91-18.44c-1.05,1.47-8.41,10.17-8.41,10.17A12.7,12.7,0,0,0,294.66,199.24Z" />
      <path class="GUNDAN_LIZARD_BODY_LIZARD_BODY_35_cls-10" d="M172.74,161.9c-2.22-.53-11.31-7.05-11.31-7.05s2.68,5.6,4.32,7.05,4,3.87,4,3.87C175.71,166.66,175.3,163,172.74,161.9Z" />
      <path class="GUNDAN_LIZARD_BODY_LIZARD_BODY_35_cls-10" d="M169.74,191.94c-4-7.3-.59-15.48,1.37-19.11h0s-2.55-2.75-8.73-8.91a49,49,0,0,1-4.06-4.62,64.34,64.34,0,0,1-6.14-9.4s-2.38,11.64-1.71,15.87a59.83,59.83,0,0,0,3.28,10.52,29.68,29.68,0,0,0,2.63,5.44C157.91,183.77,169.31,191.64,169.74,191.94Z" />
      <path class="GUNDAN_LIZARD_BODY_LIZARD_BODY_35_cls-10" d="M167.32,194.93s-11.36-8.7-13-10.17c3.49,10.52,9.55,15.76,12.23,18.44a20.43,20.43,0,0,0,5.68,4s.15-5.36-1.14-7.93A13.29,13.29,0,0,0,167.32,194.93Z" />
      <path class="GUNDAN_LIZARD_BODY_LIZARD_BODY_35_cls-10" d="M163.29,206.23l-5-6.35s-.87,3.94,1.75,9.35l2.62,5.42s3.76-4.28,3.23-5.85A5.5,5.5,0,0,0,163.29,206.23Z" />
      <path class="GUNDAN_LIZARD_BODY_LIZARD_BODY_35_cls-10" d="M281.76,119.28a31.34,31.34,0,0,0-1.47,5.89c-.21,1.4-.07,2.18-.83,3.41A3.15,3.15,0,0,1,276,130c-1.15-.36-2.26-.47-2.05-2,.05-.27.1-.47.1-.47a27.58,27.58,0,0,1,7.68-11.67,21.26,21.26,0,0,1,2.15-1.69c.27.58-.58,1.58-.86,2.15-.18.37-.35.74-.51,1.12C282.21,118.05,282,118.67,281.76,119.28Z" />
      <path class="GUNDAN_LIZARD_BODY_LIZARD_BODY_35_cls-10" d="M277.42,106.3a25.51,25.51,0,0,1,7.2-7.77c.27.58-.59,1.58-.87,2.15a28.76,28.76,0,0,0-1.2,2.94,31.63,31.63,0,0,0-1.47,5.9c-.2,1.34-.09,2.11-.74,3.25,0,0-.06.1-.09.16a3.16,3.16,0,0,1-3.52,1.41c-1-.31-2-.44-2.06-1.43a2.05,2.05,0,0,1,0-.55c.05-.27.1-.47.1-.47A27.76,27.76,0,0,1,277.42,106.3Z" />
      <path class="GUNDAN_LIZARD_BODY_LIZARD_BODY_35_cls-10" d="M267.89,98.43c-.27,1.16-.45,2.34-.61,3.5a40.87,40.87,0,0,0-.38,7,41.37,41.37,0,0,0-5,9.87c-1.75.06-3.32.31-3.49-1.72,0-.39,0-.67,0-.67a41.42,41.42,0,0,1,7.28-18.53,36,36,0,0,1,3-3.72c.58.66-.36,2.38-.59,3.27C268,97.79,268,98.11,267.89,98.43Z" />
      <path class="GUNDAN_LIZARD_BODY_LIZARD_BODY_35_cls-10" d="M266.9,109a36.43,36.43,0,0,1,3.39-4.28c.58.65-.36,2.38-.59,3.26a38.65,38.65,0,0,0-.85,4.47,42.58,42.58,0,0,0-.39,6,54.37,54.37,0,0,0-5.92,10.9c-1.32,0-2.38-.1-2.52-1.75,0-.38,0-.66,0-.66a39.87,39.87,0,0,1,1.91-8.1A41.37,41.37,0,0,1,266.9,109Z" />
      <path class="GUNDAN_LIZARD_BODY_LIZARD_BODY_35_cls-10" d="M272.55,113.35c.76.85-.48,3.12-.78,4.28a47.76,47.76,0,0,0-1.1,5.85,54.7,54.7,0,0,0-.4,11.18c.18,2.57.77,3.86-.18,6.45a7.11,7.11,0,0,1-6.21,4.53c-2.39.06-4.57.51-4.8-2.25,0-.51,0-.87,0-.87a52.72,52.72,0,0,1,3.46-13.17,54.37,54.37,0,0,1,5.92-10.9A49.62,49.62,0,0,1,272.55,113.35Z" />
      <path class="GUNDAN_LIZARD_BODY_LIZARD_BODY_35_cls-10" d="M203.82,112.36c.17,1.25-.56,1.54-1.47,1.81l-.58.17a3.15,3.15,0,0,1-3.51-1.41c-.76-1.23-.63-2-.83-3.41a31.66,31.66,0,0,0-1.48-5.9,26.65,26.65,0,0,0-1.2-2.94c-.28-.57-1.13-1.57-.86-2.15a27,27,0,0,1,9.83,13.36S203.77,112.09,203.82,112.36Z" />
      <path class="GUNDAN_LIZARD_BODY_LIZARD_BODY_35_cls-10" d="M215,128c.2,1.51-.9,1.62-2.06,2a3.16,3.16,0,0,1-3.51-1.41c-.75-1.23-.62-2-.83-3.41a31.34,31.34,0,0,0-1.47-5.89,28,28,0,0,0-1.2-3c-.28-.57-1.14-1.57-.87-2.15a23.45,23.45,0,0,1,3.84,3.33,28.17,28.17,0,0,1,6,10S214.92,127.74,215,128Z" />
      <path class="GUNDAN_LIZARD_BODY_LIZARD_BODY_35_cls-10" d="M218.31,116.45s0,.28,0,.67c-.18,2.1-1.85,1.76-3.66,1.71a5.42,5.42,0,0,1-3.93-2,4.91,4.91,0,0,1-.81-1.43c-.72-2-.28-3-.14-4.92a42.25,42.25,0,0,0-.3-8.53,38.44,38.44,0,0,0-.84-4.46c-.21-.79-1-2.23-.74-3a.63.63,0,0,1,.14-.27A41.27,41.27,0,0,1,218.31,116.45Z" />
      <path class="GUNDAN_LIZARD_BODY_LIZARD_BODY_35_cls-10" d="M228.25,126.94s0,.28,0,.66c-.18,2.1-1.84,1.76-3.66,1.72a5.4,5.4,0,0,1-4.73-3.46c-.73-2-.28-3-.15-4.92a40.77,40.77,0,0,0-.3-8.52,36.6,36.6,0,0,0-.84-4.47c-.23-.88-1.17-2.61-.59-3.26A41.22,41.22,0,0,1,228.25,126.94Z" />
      <path class="GUNDAN_LIZARD_BODY_LIZARD_BODY_35_cls-10" d="M241.63,142.52s0,.36,0,.87c-.24,2.76-2.42,2.31-4.8,2.25a7.1,7.1,0,0,1-6.21-4.53c-1-2.59-.37-3.88-.19-6.45a54.69,54.69,0,0,0-.39-11.18,49.77,49.77,0,0,0-1.11-5.85c-.3-1.16-1.54-3.43-.77-4.28A54.1,54.1,0,0,1,241.63,142.52Z" />
      <path class="GUNDAN_LIZARD_BODY_LIZARD_BODY_35_cls-10" d="M138,206.23l1.85,2.9,8.18,12.78q.42-1.72.81-3.36l-9.23-10.49Z" />
      <path class="GUNDAN_LIZARD_BODY_LIZARD_BODY_35_cls-11" d="M286.8,177.44s-10.94,1.88-10.85,14.87c2.69-2.21,8-5.48,9.64-7.2S287.54,178.5,286.8,177.44Z" />
      <path class="GUNDAN_LIZARD_BODY_LIZARD_BODY_35_cls-11" d="M208.46,176.64s11.95,2.06,11.84,16.23c-2.93-2.41-8.69-6-10.51-7.85S207.66,177.8,208.46,176.64Z" />
      <path class="GUNDAN_LIZARD_BODY_LIZARD_BODY_35_cls-4" d="M200.05,166.06s3.77,9.6,11.68,13.42a13.86,13.86,0,0,1,7.78,12.1s-1.26-2.05-5.22-3.82-5.88-5.68-5.71-10.24c-1.55-1.72-1.33-1.19-1.33-1.19a11.15,11.15,0,0,0,4.47,11.34c6.21,4.52,8.95,6,10.82,10.62.23-7.31.14-12.81-7.27-20.12-3.35-2.61-8.29-6.47-12.38-20.07-.56,5.64,2.65,12.81,5.72,16.16C204.89,171.84,200.05,166.06,200.05,166.06Z" />
      <ellipse class="GUNDAN_LIZARD_BODY_LIZARD_BODY_35_cls-4" cx="213.99" cy="182.58" rx="0.98" ry="3.38" />
      <path class="GUNDAN_LIZARD_BODY_LIZARD_BODY_35_cls-4" d="M293.43,167.52s-3,8.75-10,12.47a12.47,12.47,0,0,0-6.54,11.16s1.05-1.88,4.54-3.62,5.08-5.32,4.76-9.41c1.33-1.6,1.15-1.11,1.15-1.11a10,10,0,0,1-3.59,10.34c-5.42,4.29-7.83,5.68-9.34,9.93-.47-6.55-.59-11.49,5.79-18.33,2.92-2.46,7.21-6.12,10.4-18.48.71,5-1.92,11.6-4.56,14.72C289.29,172.88,293.43,167.52,293.43,167.52Z" />
      <ellipse class="GUNDAN_LIZARD_BODY_LIZARD_BODY_35_cls-4" cx="280.59" cy="182.89" rx="0.98" ry="3.38" />
      <path class="GUNDAN_LIZARD_BODY_LIZARD_BODY_35_cls-12" d="M202.77,228.39c5.1,19.56,20.75,30.62,34.44,30.34h1.34l7.86.06a43,43,0,0,0,6.64-.08c1.52-.11,3.46-.27,6.09-.51,5.21-.46,8.57-2.1,10.84-4.44,4.14-4.29,4.59-10.94,5.74-17.25,1-5.36,3.08-10.41,6.2-16.39" />
      <path class="GUNDAN_LIZARD_BODY_LIZARD_BODY_35_cls-12" d="M293.86,198.63c-.67,1.28-1.41,2.65-2.22,4.08q-1.38,2.47-2.67,4.73c-2.71,4.81-5.08,8.93-7.05,12.68" />
      <path class="GUNDAN_LIZARD_BODY_LIZARD_BODY_35_cls-12" d="M295,196.34c-.38.73-.77,1.49-1.17,2.29" />
      <path class="GUNDAN_LIZARD_BODY_LIZARD_BODY_35_cls-12" d="M295,196.33c.73-1.48,1.37-2.86,1.92-4.16.48-1.1.89-2.14,1.24-3.13,2.29-6.29,2.28-10.41,1.45-14.83,0-.23-.08-.46-.13-.69-.42-2.15-.91-4.11-1.43-6.15-.09-.36-.19-.72-.28-1.09-.24-.93-.48-1.88-.73-2.89" />
      <path class="GUNDAN_LIZARD_BODY_LIZARD_BODY_35_cls-12" d="M289.94,133.4a93.36,93.36,0,0,1,4.77,17.81c.5,3.34,1,6.1,1.53,8.52" />
      <path class="GUNDAN_LIZARD_BODY_LIZARD_BODY_35_cls-12" d="M197.53,94.74a46.84,46.84,0,0,1,10.08-2.4l.24,0c1.83-.21,3.64-.29,5.61-.35h.14" />
      <path class="GUNDAN_LIZARD_BODY_LIZARD_BODY_35_cls-12" d="M195.17,95.6l2.13-.78" />
      <path class="GUNDAN_LIZARD_BODY_LIZARD_BODY_35_cls-12" d="M190.13,97.63l1.49-.62,1.43-.58c.72-.29,1.42-.57,2.09-.82" />
      <path class="GUNDAN_LIZARD_BODY_LIZARD_BODY_35_cls-12" d="M158.31,159.3a24,24,0,0,0,.72-4.09,86.85,86.85,0,0,1,2.06-15.7c.47-1.91,1.07-3.95,1.84-6.12.6-1.71,1.31-3.5,2.15-5.37,3.27-7.28,5.07-13.48,8.83-18.74,2.88-4,6.91-7.51,13.62-10.51.9-.4,1.77-.78,2.6-1.13" />
      <path class="GUNDAN_LIZARD_BODY_LIZARD_BODY_35_cls-12" d="M267.89,98.43c4.84,1.3,7.56,4.32,9.53,7.87" />
      <path class="GUNDAN_LIZARD_BODY_LIZARD_BODY_35_cls-12" d="M282.46,117.45c.23.43.46.84.71,1.25a89.73,89.73,0,0,1,6.77,14.69" />
      <path class="GUNDAN_LIZARD_BODY_LIZARD_BODY_35_cls-12" d="M281.68,115.87c-.47-1-.9-2.05-1.34-3.1" />
      <path class="GUNDAN_LIZARD_BODY_LIZARD_BODY_35_cls-12" d="M253.16,93.4a60.1,60.1,0,0,0,12.56,4.52" />
      <path class="GUNDAN_LIZARD_BODY_LIZARD_BODY_35_cls-12" d="M137.85,261.93a16.78,16.78,0,0,0,0,2.53c.56,7,0,19.74-4.38,30.82s-2.52,13-6.52,16.11" />
      <path class="GUNDAN_LIZARD_BODY_LIZARD_BODY_35_cls-12" d="M148.05,221.92c-2.33,9.68-4.86,21-6,26.42-1.45,7-4,8.73-4.23,13.58" />
      <path class="GUNDAN_LIZARD_BODY_LIZARD_BODY_35_cls-12" d="M153.74,176.29c-1.38,4-2.68,8.5-2.54,13.1.28,9.13,2.61,11.08,0,20.21-.66,2.32-1.47,5.45-2.34,9q-.39,1.63-.81,3.36" />
      <path class="GUNDAN_LIZARD_BODY_LIZARD_BODY_35_cls-12" d="M235.87,265.18l6.77.18c7,.27,13.29-.16,19-2.32,6.28-2.38,8-4.51,8.32-9.27" />
      <path class="GUNDAN_LIZARD_BODY_LIZARD_BODY_35_cls-12" d="M169.75,191.94a16.74,16.74,0,0,0,3.9,4.72l.88.76a86.61,86.61,0,0,1,8.68,8.81q1.46,1.71,2.74,3.39a78.91,78.91,0,0,1,6,9,49.57,49.57,0,0,1,4.19,9.3c2.62,8.29,7.73,19,13.14,23.84s6.33,8.84,14.52,11.55c6.2,2.05,8.07,1.86,12,1.84h0" />
      <path class="GUNDAN_LIZARD_BODY_LIZARD_BODY_35_cls-12" d="M172.25,170.91a22.26,22.26,0,0,0-1.14,1.92c-2,3.63-5.37,11.81-1.37,19.11" />
      <path class="GUNDAN_LIZARD_BODY_LIZARD_BODY_35_cls-13" d="M295,196.33h0c0,.12-.28,1.35-.52,3.41a72.31,72.31,0,0,0-.49,7.33" />
      <path class="GUNDAN_LIZARD_BODY_LIZARD_BODY_35_cls-12" d="M222.12,195.49s1.54,4.13,4.89,12.65,3.91,14,6,16.62.42,4.47,2.17,6.56" />
      <path class="GUNDAN_LIZARD_BODY_LIZARD_BODY_35_cls-12" d="M268.22,231a8.9,8.9,0,0,1,1.76-6.5c2.36-2.94,2.29-10.62,2.29-13.69s-.21-4.19.91-7.82a69.1,69.1,0,0,0,1.82-9" />
      <path class="GUNDAN_LIZARD_BODY_LIZARD_BODY_35_cls-12" d="M235.19,241.56s1-3.53,2.12-4.16,5.33.14,5.33.14" />
      <path class="GUNDAN_LIZARD_BODY_LIZARD_BODY_35_cls-12" d="M262.87,238.34s4-2.51,5.73-1.92,2.62,4.12,2.62,4.12" />
      <path class="GUNDAN_LIZARD_BODY_LIZARD_BODY_35_cls-12" d="M243.65,243.83a33.8,33.8,0,0,0-3.34-3.29c-.17-.06-2.29,3-1,5.38C242.93,245.64,243.65,243.83,243.65,243.83Z" />
      <path class="GUNDAN_LIZARD_BODY_LIZARD_BODY_35_cls-12" d="M241.81,249.45s4-.84,3.74-2.66a7.71,7.71,0,0,0-1.9-3" />
      <path class="GUNDAN_LIZARD_BODY_LIZARD_BODY_35_cls-12" d="M263.72,243.26a29.94,29.94,0,0,1,3.34-3.28c.17-.07,2.29,3,1,5.38C264.44,245.08,263.72,243.26,263.72,243.26Z" />
      <path class="GUNDAN_LIZARD_BODY_LIZARD_BODY_35_cls-12" d="M265.56,248.88s-4-.83-3.74-2.65a7.61,7.61,0,0,1,1.9-3" />
      <path class="GUNDAN_LIZARD_BODY_LIZARD_BODY_35_cls-12" d="M176,181c.23-.65.94-2.75,1.41-4.4a8.07,8.07,0,0,0,.44-2.07c-.11-.91-5.38.83-5.38.83s-2.93,4.61.21,6l.38,0h0l2.83-.15s0-.07.07-.19" />
      <path class="GUNDAN_LIZARD_BODY_LIZARD_BODY_35_cls-12" d="M181,179.75A16.38,16.38,0,0,1,178,182l-.35.2-.43.24L176,181h0" />
      <path class="GUNDAN_LIZARD_BODY_LIZARD_BODY_35_cls-12" d="M177.4,176.61s3.61.07,4.28,1.59c.2.45-.12,1-.65,1.55" />
      <path class="GUNDAN_LIZARD_BODY_LIZARD_BODY_35_cls-12" d="M173.09,181.39h0l0,0c-.16.35-1.08,2.44-.18,3.75a1.92,1.92,0,0,0,.89.7,5.56,5.56,0,0,0,3.93-.25,1.34,1.34,0,0,0,.56-1.15,8.32,8.32,0,0,0-.17-2.26" />
      <path class="GUNDAN_LIZARD_BODY_LIZARD_BODY_35_cls-12" d="M181,179.75h0c.25,0,5.25.72,6,2.09s2.62,4.61,1.08,5.27a10.76,10.76,0,0,1-4.59.25c-2.22-.27-4.5-1.09-5.19-2.87" />
      <path class="GUNDAN_LIZARD_BODY_LIZARD_BODY_35_cls-12" d="M173.77,185.89s-2.67,2.38-1,4.82,1.72,6.71,1.72,6.71" />
      <path class="GUNDAN_LIZARD_BODY_LIZARD_BODY_35_cls-12" d="M183.48,187.36s3.23,5.48,3,7.75a47.86,47.86,0,0,1-1.78,6.59c-.77,2.42-1.51,4.53-1.51,4.53" />
      <path class="GUNDAN_LIZARD_BODY_LIZARD_BODY_35_cls-12" d="M184.72,201.7s5.13-.69,5.69,3.05a42.5,42.5,0,0,0,2.13,7.93c.66,2.09-.55,6-.55,6" />
      <path class="GUNDAN_LIZARD_BODY_LIZARD_BODY_35_cls-12" d="M167.67,214s2.14-2.48,3.84-1.16.08,4.79-.41,5.35S166,217.57,167.67,214Z" />
      <path class="GUNDAN_LIZARD_BODY_LIZARD_BODY_35_cls-12" d="M186,209.62c-2.35,2.25-4.76,10.46-8.39,16.75s-2.93,11.31-3.49,18.62-5.87,17.14-6.19,25-5.54,9.92-6.38,25.27-10.63,31-11,30.74c0,0-7.35,17.87-6.36,30.43s.77,13.54-1.87,25.43-8.7,16.84-6.06,29.39a84.71,84.71,0,0,1,1.05,25" />
      <path class="GUNDAN_LIZARD_BODY_LIZARD_BODY_35_cls-12" d="M173.91,109.28a56.48,56.48,0,0,0,5.61,10.64c4.25,6.7,4.82,14.32,6.07,21s11.94,21,11.94,21" />
      <path class="GUNDAN_LIZARD_BODY_LIZARD_BODY_35_cls-12" d="M290.15,156.31s-.21-9.92-.42-13.34.19-9.27.21-9.57h0" />
      <path class="GUNDAN_LIZARD_BODY_LIZARD_BODY_35_cls-12" d="M211.69,176.19l-4-4.69a19.75,19.75,0,0,0,1.68-4.4c0-.27.11-.58.2-.9.41-1.73,1.07-4-.69-4.3-2.09-.39-4.36,1.82-4.36,1.82a22.7,22.7,0,0,0,3.17,7.78" />
      <path class="GUNDAN_LIZARD_BODY_LIZARD_BODY_35_cls-12" d="M209.53,166.2h0c.19,0,3.53.67,4.34,3.34a5.67,5.67,0,0,1,.17,2.89c-.21,1-.66,1.73-.76,2.43a6.86,6.86,0,0,1-.81,2.26l-.79-.92" />
      <path class="GUNDAN_LIZARD_BODY_LIZARD_BODY_35_cls-12" d="M214.05,172.43a4.91,4.91,0,0,1,2.63,2.77,11.2,11.2,0,0,1,.25,1.26c.36,2.16.54,5.27.54,5.27l-.36-.21c-1.17-.68-4.79-3-5.42-5.32h0" />
      <path class="GUNDAN_LIZARD_BODY_LIZARD_BODY_35_cls-12" d="M216.94,176.46s4.34-.16,4.86,3.29a20.26,20.26,0,0,1-.83,7.72l-3.86-5.95" />
      <path class="GUNDAN_LIZARD_BODY_LIZARD_BODY_35_cls-14" d="M204.12,176.64a33.27,33.27,0,0,1,2.4,7.64c.57,3.68,1.59,7.17,6,8.33a41.07,41.07,0,0,1,6.2,2" />
      <path class="GUNDAN_LIZARD_BODY_LIZARD_BODY_35_cls-14" d="M209.64,195a10.43,10.43,0,0,1,6.67,1.56c3.07,2.07,4.23,1.7,4.23,1.7" />
      <path class="GUNDAN_LIZARD_BODY_LIZARD_BODY_35_cls-14" d="M203,183.58s.6,6.66,4.19,9.5" />
      <path class="GUNDAN_LIZARD_BODY_LIZARD_BODY_35_cls-14" d="M209.64,187.32s-.14,2.47,4.21,3.94" />
      <path class="GUNDAN_LIZARD_BODY_LIZARD_BODY_35_cls-14" d="M278.33,193.72a13.34,13.34,0,0,1,4.74-3.21c3.35-1.49,3.91-3.07,4.55-5.64" />
      <path class="GUNDAN_LIZARD_BODY_LIZARD_BODY_35_cls-14" d="M277.23,196a7.55,7.55,0,0,0,5.7-1.84" />
      <path class="GUNDAN_LIZARD_BODY_LIZARD_BODY_35_cls-14" d="M286.94,191s3-3.45,2.1-9.82" />
      <path class="GUNDAN_LIZARD_BODY_LIZARD_BODY_35_cls-12" d="M279.56,180c-.36,1.28-2.28,5.12-3.66,5.6a9.9,9.9,0,0,1-.25-5,2.11,2.11,0,0,1,2.61-1.46,2.81,2.81,0,0,1,1.34.48A.74.74,0,0,1,279.56,180Z" />
      <path class="GUNDAN_LIZARD_BODY_LIZARD_BODY_35_cls-12" d="M278.26,179.13a10.6,10.6,0,0,1,1.11-4.42c.71-1.62,1.26-2.19,1.6-2.38s.36-.1.36-.1,1.41,4.18,1.93,4.62-1,2.17-1.14,2.28-2.56.9-2.56.9" />
      <path class="GUNDAN_LIZARD_BODY_LIZARD_BODY_35_cls-12" d="M281,172.32s0,0-.06,0c-.23,0-.09-1.35.64-3.52.65-1.93,2.07-1.66,3.24-1.14a7.83,7.83,0,0,1,.71.35,5.24,5.24,0,0,1,1.87,2.7l-.19.53c-.52,1.31-2,4.72-4,5.6" />
      <path class="GUNDAN_LIZARD_BODY_LIZARD_BODY_35_cls-12" d="M284.85,167.67s-.5-3.77.15-4.7,4.77,1.74,4.77,1.74-1.76,5.68-2.53,6.54" />
      <path class="GUNDAN_LIZARD_BODY_LIZARD_BODY_35_cls-12" d="M289,207.44s-1.62-5.77-.7-7.62c.49-1,2.06-1.26,3.42-1.29a13.3,13.3,0,0,1,2.17.1h0" />
      <path class="GUNDAN_LIZARD_BODY_LIZARD_BODY_35_cls-12" d="M291.69,198.52s-1.89-3.87-1.43-5.54c.22-.83,1.86-1,3.46-1a25.78,25.78,0,0,1,3.24.23" />
      <path class="GUNDAN_LIZARD_BODY_LIZARD_BODY_35_cls-12" d="M293.72,191.94s-1.48-3.12-.92-5.07,3.33-3.08,3.25-6.22c-.05-2.27-.83-4.62.63-6a4.87,4.87,0,0,1,2.84-1.12" />
      <path class="GUNDAN_LIZARD_BODY_LIZARD_BODY_35_cls-12" d="M296.68,174.64s-2.24-3.35-1.47-5.31a7,7,0,0,1,2.6-3.05" />
      <path class="GUNDAN_LIZARD_BODY_LIZARD_BODY_35_cls-12" d="M287.8,292.55a34.8,34.8,0,0,0,1,9.67c2.09,6.71,4.22,13.87,6.22,17.59a37.4,37.4,0,0,1,2.07,5c.89,2.51,1.66,4.76,2.67,5.39,1.67,1,5.73,4.61,5.73,4.61s7.9,6.48,9.22,13.91,1,7.43,6.94,20.48,12.55,31.54,12.71,37.32S341,427,338,436.2" />
      <path class="GUNDAN_LIZARD_BODY_LIZARD_BODY_35_cls-12" d="M281.92,220.12h0c0,.36-.11,8.6.22,14.75s-.21,7.41.83,10.7,1.38,3.2,1.25,7c-.06,1.58-.15,5.57,0,10.09.08,2.88.23,6,.53,8.8a28.43,28.43,0,0,0,1.67,7.93,14.68,14.68,0,0,1,1.07,4.08,77.48,77.48,0,0,1,.35,9.08" />
      <path class="GUNDAN_LIZARD_BODY_LIZARD_BODY_35_cls-12" d="M166.52,307.67c1-3.36,5.26.13,5.26,2.3s-1.07,6.77-2.63,5.71S165.73,310.42,166.52,307.67Z" />
      <path class="GUNDAN_LIZARD_BODY_LIZARD_BODY_35_cls-12" d="M174.44,284s2.47,2.38,1.81,4.24,1.17,6.15,4.2,5.78.5-5.22.5-7.6.33-4.46-1.21-5.63a5,5,0,0,0-4.11-.74C174.55,280.42,173.86,281.55,174.44,284Z" />
      <path class="GUNDAN_LIZARD_BODY_LIZARD_BODY_35_cls-12" d="M175.63,280s-2.12-1.81-3.47-2.05-4.75,2.05-4.89,4.47,7.17,1.53,7.17,1.53" />
      <path class="GUNDAN_LIZARD_BODY_LIZARD_BODY_35_cls-12" d="M190.2,260.35a6.4,6.4,0,0,0,1.89-2.32,6,6,0,0,0-.5-2.83h0c-.43-1.26-1-2.71-1.51-4.16-1-2.87-4-6.69-6.1-7.81s-4.65,4.8-3.86,6.33,4.18,3.58,4.75,6.19c0,0,1,6,2.47,6.06A5,5,0,0,0,190.2,260.35Z" />
      <path class="GUNDAN_LIZARD_BODY_LIZARD_BODY_35_cls-12" d="M191.66,255.19v0c0-.34,5.28,1.33,5.47,4.07s-.09,6.4.19,8.56-7.93,1.89-7.11-7.45" />
      <path class="GUNDAN_LIZARD_BODY_LIZARD_BODY_35_cls-12" d="M277.44,280.18c-.25-.54-2.44.38-2.48,2.73s1.22,2.86,3,3S278.77,283,277.44,280.18Z" />
      <path class="GUNDAN_LIZARD_BODY_LIZARD_BODY_35_cls-12" d="M287.45,283.46s-3.1-.62-3.34,3.08-3.14,10-2.62,12.08,5.14-1.74,6.31-6.07h0" />
      <path class="GUNDAN_LIZARD_BODY_LIZARD_BODY_35_cls-12" d="M284.71,271.45s-5.82-1.15-5.78-3.46-.72-4.61-.72-6.21c0-.29.2-.45.51-.51,1.4-.28,5.24,1.29,5.46,1.38h0" />
      <path class="GUNDAN_LIZARD_BODY_LIZARD_BODY_35_cls-12" d="M278.72,261.27s-2.26-4.91-1.59-6.55,3.28-3.14,4.33-2.82,2.76.66,2.76.66" />
      <path class="GUNDAN_LIZARD_BODY_LIZARD_BODY_35_cls-12" d="M296.17,256.57s-2.63,1.82-2.67,4.12,1,4.89,1.34,7.27,3.64,2.56,3.64,2.56" />
      <path class="GUNDAN_LIZARD_BODY_LIZARD_BODY_35_cls-12" d="M295.05,319.81s4.89-.59,6.61,0a.91.91,0,0,1,.54.4c.55,1.14.69,2.7-.49,3.5a1.89,1.89,0,0,1-.28.17,14.06,14.06,0,0,1-4.31.86H297" />
      <path class="GUNDAN_LIZARD_BODY_LIZARD_BODY_35_cls-12" d="M301.58,319.87l.08,0a9,9,0,0,1,4.53.82c1.49,1,1.95,2.27,1,3.25s-5.52-.17-5.52-.17" />
      <line class="GUNDAN_LIZARD_BODY_LIZARD_BODY_35_cls-12" x1="301.58" y1="319.87" x2="301.57" y2="319.87" />
      <polyline class="GUNDAN_LIZARD_BODY_LIZARD_BODY_35_cls-3" points="148.95 218.65 148.86 218.55 139.63 208.06 138.02 206.23 139.87 209.13 148.05 221.91 148.05 221.92" />
      <path class="GUNDAN_LIZARD_BODY_LIZARD_BODY_35_cls-3" d="M171.1,172.83s-2.55-2.75-8.73-8.91a49,49,0,0,1-4.06-4.62,64.34,64.34,0,0,1-6.14-9.4s-2.38,11.64-1.71,15.87a59.83,59.83,0,0,0,3.28,10.52,29.68,29.68,0,0,0,2.63,5.44c1.54,2,12.94,9.91,13.37,10.21h0" />
      <path class="GUNDAN_LIZARD_BODY_LIZARD_BODY_35_cls-3" d="M169.77,165.77s-2.39-2.42-4-3.87-4.32-7.05-4.32-7.05,9.09,6.52,11.31,7.05C175.3,163,175.71,166.66,169.77,165.77Z" />
      <path class="GUNDAN_LIZARD_BODY_LIZARD_BODY_35_cls-3" d="M167.32,194.93s-11.36-8.7-13-10.17c3.49,10.52,9.55,15.76,12.23,18.44a20.43,20.43,0,0,0,5.68,4s.15-5.36-1.14-7.93A13.29,13.29,0,0,0,167.32,194.93Z" />
      <path class="GUNDAN_LIZARD_BODY_LIZARD_BODY_35_cls-3" d="M163.29,206.23l-5-6.35s-.87,3.94,1.75,9.35l2.62,5.42s3.76-4.28,3.23-5.85A5.5,5.5,0,0,0,163.29,206.23Z" />
      <path class="GUNDAN_LIZARD_BODY_LIZARD_BODY_35_cls-15" d="M295.53,191.94s1.18-1.25,2.67-2.9c2.31-2.55,5.38-6,6-7.31,1-2.07,3.4-11.73,3.83-16s-1.11-15.87-1.11-15.87a70.4,70.4,0,0,1-6.6,14l-2.22,3.45" />
      <path class="GUNDAN_LIZARD_BODY_LIZARD_BODY_35_cls-12" d="M300.91,154.85a0,0,0,0,1,0,0c-.19.2-2.6,2.86-4.66,4.86a12,12,0,0,1-2.64,2.17c-1.66,1-1.92,4.76,1.92,3.87,0,0,.75-1.18,1.56-2.38.36-.53.72-1,1-1.49,1-1.4,2.68-6.7,2.78-7" />
      <path class="GUNDAN_LIZARD_BODY_LIZARD_BODY_35_cls-15" d="M294,207.09h0a14.71,14.71,0,0,0,3.57-3.88,48.15,48.15,0,0,0,7.91-18.44c-1.05,1.47-8.41,10.17-8.41,10.17a12.7,12.7,0,0,0-2.44,4.31c-.05.16-.1.33-.14.51" />
      <path class="GUNDAN_LIZARD_BODY_LIZARD_BODY_35_cls-15" d="M294.55,217.17c1.77-1,5.94-3.71,7.27-7.94a23.37,23.37,0,0,0,1.13-9.35l-3.23,6.35a65.05,65.05,0,0,0-5.69,3.28" />
      <path class="GUNDAN_LIZARD_BODY_LIZARD_BODY_35_cls-3" d="M249.38,151.47a135.32,135.32,0,0,0-3.85-21.76,62.94,62.94,0,0,0-5.84-14.87,28.67,28.67,0,0,0-2.81-4" />
      <path class="GUNDAN_LIZARD_BODY_LIZARD_BODY_35_cls-16" d="M241.63,143.39c-.24,2.76-2.42,2.31-4.8,2.25a7.1,7.1,0,0,1-6.21-4.53c-1-2.59-.37-3.88-.19-6.45a54.69,54.69,0,0,0-.39-11.18,49.77,49.77,0,0,0-1.11-5.85c-.3-1.16-1.54-3.43-.77-4.28a54.1,54.1,0,0,1,13.47,29.17S241.64,142.88,241.63,143.39Z" />
      <path class="GUNDAN_LIZARD_BODY_LIZARD_BODY_35_cls-16" d="M228.25,127.6c-.18,2.1-1.84,1.76-3.66,1.72a5.4,5.4,0,0,1-4.73-3.46c-.73-2-.28-3-.15-4.92a40.77,40.77,0,0,0-.3-8.52,36.6,36.6,0,0,0-.84-4.47c-.23-.88-1.17-2.61-.59-3.26a41.22,41.22,0,0,1,10.27,22.25S228.26,127.22,228.25,127.6Z" />
      <path class="GUNDAN_LIZARD_BODY_LIZARD_BODY_35_cls-16" d="M208.88,117.51a28.17,28.17,0,0,1,6,10s0,.2.1.47c.2,1.51-.9,1.62-2.06,2a3.16,3.16,0,0,1-3.51-1.41c-.75-1.23-.62-2-.83-3.41a31.34,31.34,0,0,0-1.47-5.89,28,28,0,0,0-1.2-3c-.28-.57-1.14-1.57-.87-2.15A23.45,23.45,0,0,1,208.88,117.51Z" />
      <path class="GUNDAN_LIZARD_BODY_LIZARD_BODY_35_cls-16" d="M193.89,98.53a27,27,0,0,1,9.83,13.36s.05.2.1.47c.17,1.25-.56,1.54-1.47,1.81l-.58.17a3.15,3.15,0,0,1-3.51-1.41c-.76-1.23-.63-2-.83-3.41a31.66,31.66,0,0,0-1.48-5.9,26.65,26.65,0,0,0-1.2-2.94C194.47,100.11,193.62,99.11,193.89,98.53Z" />
      <path class="GUNDAN_LIZARD_BODY_LIZARD_BODY_35_cls-16" d="M210.72,116.81a4.91,4.91,0,0,1-.81-1.43c-.72-2-.28-3-.14-4.92a42.25,42.25,0,0,0-.3-8.53,38.44,38.44,0,0,0-.84-4.46c-.21-.79-1-2.23-.74-3a.63.63,0,0,1,.14-.27,41.27,41.27,0,0,1,10.28,22.25s0,.28,0,.67c-.18,2.1-1.85,1.76-3.66,1.71A5.42,5.42,0,0,1,210.72,116.81Z" />
      <path class="GUNDAN_LIZARD_BODY_LIZARD_BODY_35_cls-16" d="M262.54,129.35a52.72,52.72,0,0,0-3.46,13.17s0,.36,0,.87c.23,2.76,2.41,2.31,4.8,2.25a7.11,7.11,0,0,0,6.21-4.53c1-2.59.36-3.88.18-6.45a54.7,54.7,0,0,1,.4-11.18,47.76,47.76,0,0,1,1.1-5.85c.28-1.09,1.4-3.17.89-4.12a.91.91,0,0,0-.11-.16,49.62,49.62,0,0,0-4.09,5.1A54.37,54.37,0,0,0,262.54,129.35Z" />
      <path class="GUNDAN_LIZARD_BODY_LIZARD_BODY_35_cls-16" d="M262.54,129.35c-1.32,0-2.38-.1-2.52-1.75,0-.38,0-.66,0-.66a39.87,39.87,0,0,1,1.91-8.1,41.37,41.37,0,0,1,5-9.87,36.43,36.43,0,0,1,3.39-4.28c.58.65-.36,2.38-.59,3.26a38.65,38.65,0,0,0-.85,4.47,42.58,42.58,0,0,0-.39,6" />
      <path class="GUNDAN_LIZARD_BODY_LIZARD_BODY_35_cls-16" d="M281.68,115.87A27.58,27.58,0,0,0,274,127.54s-.05.2-.1.47c-.21,1.51.9,1.62,2.05,2a3.15,3.15,0,0,0,3.51-1.41c.76-1.23.62-2,.83-3.41a31.34,31.34,0,0,1,1.47-5.89c.22-.61.45-1.23.7-1.83.16-.38.33-.75.51-1.12.28-.57,1.13-1.57.86-2.15A21.26,21.26,0,0,0,281.68,115.87Z" />
      <path class="GUNDAN_LIZARD_BODY_LIZARD_BODY_35_cls-16" d="M277.42,106.3a27.76,27.76,0,0,0-2.64,5.59s0,.2-.1.47a2.05,2.05,0,0,0,0,.55,1.3,1.3,0,0,0,.14.47c.33.58,1.12.71,1.92,1a3.16,3.16,0,0,0,3.52-1.41c0-.06.07-.11.09-.16.65-1.14.54-1.91.74-3.25a31.63,31.63,0,0,1,1.47-5.9,28.76,28.76,0,0,1,1.2-2.94c.28-.57,1.14-1.57.87-2.15A25.51,25.51,0,0,0,277.42,106.3Z" />
      <path class="GUNDAN_LIZARD_BODY_LIZARD_BODY_35_cls-16" d="M261.93,118.84c-1.75.06-3.32.31-3.49-1.72,0-.39,0-.67,0-.67a41.42,41.42,0,0,1,7.28-18.53,36,36,0,0,1,3-3.72c.58.66-.36,2.38-.59,3.27-.08.32-.16.64-.23,1-.27,1.16-.45,2.34-.61,3.5a40.87,40.87,0,0,0-.38,7" />
      <path class="GUNDAN_LIZARD_BODY_LIZARD_BODY_35_cls-13" d="M325.07,327.78a24.05,24.05,0,0,1-3.16-2.59l-.06-.05a26.3,26.3,0,0,1-2.64-2.95c-2.65-3.48-11.18-9.35-12.3-21.92s-6.35-22.29-7.81-27.18c-.19-.62-.4-1.5-.62-2.57-.72-3.44-1.57-8.83-2.31-13.95-.81-5.67-1.47-11-1.64-13-.19-2.28.26-5.94.51-10.62,0-.46,0-.92.07-1.4s.05-1.22.07-1.85c0-1,0-2.05,0-3.12,0-1.39-.06-2.84-.15-4.33-.05-.66-.1-1.33-.16-2,0-.41-.08-.83-.13-1.25s-.1-.85-.15-1.28l-.06-.53c-.17-1.36-.29-2.69-.37-4,0-.35-.05-.69-.06-1,0-.55-.05-1.1-.07-1.64,0-.34,0-.68,0-1,0-.7,0-1.38,0-2,0-.13,0-.26,0-.39" />
      <path class="GUNDAN_LIZARD_BODY_LIZARD_BODY_35_cls-13" d="M325.07,327.78a18.8,18.8,0,0,1,6.38,4.69c4.06,4.52,6.33,4.71,10.51,9.89s19.49,12.84,24.69,24.17,13.85,21.14,16.93,37.9c2.77,15.07,1.71,23.17,3.15,29.64a20.85,20.85,0,0,0,.59,2.13H56.69a20.62,20.62,0,0,0,.59-2.25c1.44-6.85.38-15.43,3.15-31.38,3.09-17.74,11.73-28.12,16.93-40.12s20.51-20.11,24.69-25.59,6.49-9.28,12.11-11.74,7.17-5.17,7.17-5.17,1.65-5.43,5.66-8.56" />
      <path class="GUNDAN_LIZARD_BODY_LIZARD_BODY_35_cls-3" d="M213.46,92s8-.52,11.44-.6l.27,0c3.52.38,16.09-2.72,29.59,2.73" />
      <path class="GUNDAN_LIZARD_BODY_LIZARD_BODY_35_cls-2" d="M213,54.24c14,13.38,17.58,35.79,17.87,47.91,0,0-.29,3.25-3.3.92C227.26,91,223.84,70.71,213,54.24Z" />
      <path class="GUNDAN_LIZARD_BODY_LIZARD_BODY_35_cls-2" d="M227.58,103.07a1.77,1.77,0,0,1,0,.23c-1.54-.4-1-2.56-1.77-3.17a8.32,8.32,0,0,1-2.16-4.07,7,7,0,0,0-2.48-4,2.86,2.86,0,0,1-.74-3s-1.73-13-7.73-35.1a3.32,3.32,0,0,1,.27.25l0,0C223.84,70.71,227.26,91,227.58,103.07Z" />
      <path class="GUNDAN_LIZARD_BODY_LIZARD_BODY_35_cls-3" d="M227.59,103.3a1.77,1.77,0,0,0,0-.23C227.26,91,223.84,70.71,213,54.24c-.12-.19-.24-.38-.38-.57,0,.1.06.19.08.29,6,22.15,7.73,35.1,7.73,35.1" />
      <path class="GUNDAN_LIZARD_BODY_LIZARD_BODY_35_cls-3" d="M227.58,103.07c3,2.33,3.3-.92,3.3-.92C230.59,90,227,67.62,213,54.24l0,0a3.32,3.32,0,0,0-.27-.25" />
      <path class="GUNDAN_LIZARD_BODY_LIZARD_BODY_35_cls-3" d="M227.59,103.3c-1.54-.4-1-2.56-1.77-3.17a8.32,8.32,0,0,1-2.16-4.07,7,7,0,0,0-2.48-4,2.86,2.86,0,0,1-.74-3" />
      <path class="GUNDAN_LIZARD_BODY_LIZARD_BODY_35_cls-2" d="M224.22,55.92c12.29,15.87,13.11,39.76,11.93,52.47,0,0-.68,3.35-3.38.51C233.91,96.22,233,74.59,224.22,55.92Z" />
      <path class="GUNDAN_LIZARD_BODY_LIZARD_BODY_35_cls-2" d="M232.77,108.9a2.32,2.32,0,0,0,0,.24c-1.48-.62-.67-2.8-1.38-3.55a9.19,9.19,0,0,1-1.65-4.54c-.1-1.56-.87,3.6-2.14,2a3.18,3.18,0,0,1-.37-3.29A363.06,363.06,0,0,0,224,55.58c.09.1.16.21.24.31l0,0C233,74.59,233.91,96.22,232.77,108.9Z" />
      <path class="GUNDAN_LIZARD_BODY_LIZARD_BODY_35_cls-3" d="M232.75,109.14a2.32,2.32,0,0,1,0-.24c1.14-12.68.21-34.31-8.55-53-.1-.22-.19-.43-.3-.65,0,.11,0,.2,0,.31a363.06,363.06,0,0,1,3.25,44.2" />
      <path class="GUNDAN_LIZARD_BODY_LIZARD_BODY_35_cls-3" d="M232.77,108.9c2.7,2.84,3.38-.51,3.38-.51,1.18-12.71.36-36.6-11.93-52.47l0,0c-.08-.1-.15-.21-.24-.31" />
      <path class="GUNDAN_LIZARD_BODY_LIZARD_BODY_35_cls-3" d="M232.75,109.14c-1.48-.62-.67-2.8-1.38-3.55a9.19,9.19,0,0,1-1.65-4.54c-.1-1.56-.87,3.6-2.14,2a3.18,3.18,0,0,1-.37-3.29" />
      <path class="GUNDAN_LIZARD_BODY_LIZARD_BODY_35_cls-2" d="M235.45,61.41C246.71,82.2,246,112.11,244,127.89c0,0-.9,4.13-3.42.37C242.56,112.52,243,85.42,235.45,61.41Z" />
      <path class="GUNDAN_LIZARD_BODY_LIZARD_BODY_35_cls-2" d="M240.62,128.26a2.53,2.53,0,0,1,0,.3c-1.44-.9-.48-3.55-1.15-4.55a13.57,13.57,0,0,1-1.36-5.8,11.16,11.16,0,0,0-1.69-5.72,4.81,4.81,0,0,1-.17-4.14s.74-17.2-1-47.39a3.84,3.84,0,0,1,.21.4l0,0C243,85.42,242.56,112.52,240.62,128.26Z" />
      <path class="GUNDAN_LIZARD_BODY_LIZARD_BODY_35_cls-3" d="M240.59,128.56a2.53,2.53,0,0,0,0-.3c1.94-15.74,2.39-42.84-5.17-66.85-.08-.28-.17-.55-.26-.83,0,.13,0,.25,0,.38,1.75,30.19,1,47.39,1,47.39" />
      <path class="GUNDAN_LIZARD_BODY_LIZARD_BODY_35_cls-3" d="M240.62,128.26c2.52,3.76,3.42-.37,3.42-.37,2-15.78,2.67-45.69-8.59-66.48l0,0a3.84,3.84,0,0,0-.21-.4" />
      <path class="GUNDAN_LIZARD_BODY_LIZARD_BODY_35_cls-3" d="M240.59,128.56c-1.44-.9-.48-3.55-1.15-4.55a13.57,13.57,0,0,1-1.36-5.8,11.16,11.16,0,0,0-1.69-5.72,4.81,4.81,0,0,1-.17-4.14" />
      <path class="GUNDAN_LIZARD_BODY_LIZARD_BODY_35_cls-2" d="M247.19,66.66c11.49,26.92,8.22,64.35,4.59,84,0,0-1.39,5.12-4,.21C251.32,131.25,254.07,97.33,247.19,66.66Z" />
      <path class="GUNDAN_LIZARD_BODY_LIZARD_BODY_35_cls-2" d="M247.75,150.83c0,.13-.05.25-.06.37-1.62-1.24-.28-4.48-1-5.78a18.17,18.17,0,0,1-1.12-7.38,14.53,14.53,0,0,0-1.51-7.3,6.36,6.36,0,0,1,.15-5.19S246.51,104,247,66.08l.21.52a.33.33,0,0,0,0,.06C254.07,97.33,251.32,131.25,247.75,150.83Z" />
      <path class="GUNDAN_LIZARD_BODY_LIZARD_BODY_35_cls-3" d="M247.69,151.2c0-.12,0-.24.06-.37,3.57-19.58,6.32-53.5-.56-84.17L247,65.6v.48c-.44,38-2.72,59.47-2.72,59.47" />
      <path class="GUNDAN_LIZARD_BODY_LIZARD_BODY_35_cls-3" d="M247.75,150.83c2.64,4.91,4-.21,4-.21,3.63-19.61,6.9-57-4.59-84a.33.33,0,0,1,0-.06l-.21-.52" />
      <path class="GUNDAN_LIZARD_BODY_LIZARD_BODY_35_cls-3" d="M247.69,151.2c-1.62-1.24-.28-4.48-1-5.78a18.17,18.17,0,0,1-1.12-7.38,14.53,14.53,0,0,0-1.51-7.3,6.36,6.36,0,0,1,.15-5.19" />
      <path class="GUNDAN_LIZARD_BODY_LIZARD_BODY_35_cls-12" d="M118,436.11s0-.16-.17-.45a68.56,68.56,0,0,1-2.71-10.72v0c-1.39-8.09-2-19.54,1.85-31a48.4,48.4,0,0,1,6.35-12.45" />
      <path class="GUNDAN_LIZARD_BODY_LIZARD_BODY_35_cls-12" d="M109.68,390.8s4.61,5.44,5.27,11" />
      <path class="GUNDAN_LIZARD_BODY_LIZARD_BODY_35_cls-12" d="M351.84,435.66c.26-.75.81-2.38,1.41-4.68,2-7.66,4.55-22.79-.79-37.73h0a47.87,47.87,0,0,0-5.92-11.45l-.19-.29" />
      <path class="GUNDAN_LIZARD_BODY_LIZARD_BODY_35_cls-12" d="M354.72,401.82a16,16,0,0,1,.55-2.54A27.88,27.88,0,0,1,360,390.8" />
      <path class="GUNDAN_LIZARD_BODY_LIZARD_BODY_35_cls-12" d="M354.39,425.87s-.46,7.22.57,9.78" />
      <path class="GUNDAN_LIZARD_BODY_LIZARD_BODY_35_cls-6" d="M346.54,381.79s10.15,34.65-10.16,53.86c30.38,0,25.1.55,25.1.55A33.33,33.33,0,0,1,363.87,409c-4.21,1.12-6.51,7.4-6.51,7.4s-.84-18.09,7.25-29.89c-5.53,2.8-10.22,13.6-10.22,13.6S350.93,386.91,346.54,381.79Z" />
    </g>
  </g>
</svg>