<svg xmlns="http://www.w3.org/2000/svg" viewBox="0 0 432 432">
  <defs>
    <style>.GUNDAN_GOAT_OUTFIT_GUNDAN_GOAT_OUTFIT_3_cls-1{isolation:isolate;}.GUNDAN_GOAT_OUTFIT_GUNDAN_GOAT_OUTFIT_3_cls-2{fill:#fff;}.GUNDAN_GOAT_OUTFIT_GUNDAN_GOAT_OUTFIT_3_cls-3{fill:#efdbca;}.GUNDAN_GOAT_OUTFIT_GUNDAN_GOAT_OUTFIT_3_cls-4{fill:#90482f;}.GUNDAN_GOAT_OUTFIT_GUNDAN_GOAT_OUTFIT_3_cls-5{fill:#a57c31;}.GUNDAN_GOAT_OUTFIT_GUNDAN_GOAT_OUTFIT_3_cls-6{fill:#5b2a2a;}.GUNDAN_GOAT_OUTFIT_GUNDAN_GOAT_OUTFIT_3_cls-7{fill:#916e4e;}.GUNDAN_GOAT_OUTFIT_GUNDAN_GOAT_OUTFIT_3_cls-8{fill:none;stroke:#000;stroke-linecap:round;stroke-linejoin:round;stroke-width:1.64px;}.GUNDAN_GOAT_OUTFIT_GUNDAN_GOAT_OUTFIT_3_cls-9{opacity:0.22;mix-blend-mode:multiply;}</style>
  </defs>
  <g class="GUNDAN_GOAT_OUTFIT_GUNDAN_GOAT_OUTFIT_3_cls-1">
    <g id="outfit">
      <path class="GUNDAN_GOAT_OUTFIT_GUNDAN_GOAT_OUTFIT_3_cls-2" d="M300.63,363a8.77,8.77,0,0,0-1.4-2.29,10.53,10.53,0,0,0-.91-1,8.6,8.6,0,0,0-5.35-2.29,13.11,13.11,0,0,0-3.37.23c-.92.16-1.73.38-2.41.56l-.14,0a13.37,13.37,0,0,0-2.91,1.34c-.41.23-.84.49-1.26.75-2.14,1.33-4.45,3-6.13,4.23L274.94,366a1.6,1.6,0,0,0-.27,2.44l3.62,4,.06.08,0,0a2.25,2.25,0,0,0,.88.56l-.12.27,3.69,4.08a2.27,2.27,0,0,0,.93.6,3,3,0,0,0,1.77,0q.51-.15,1.08-.36a38.65,38.65,0,0,0,5-2.42c3.31-1.82,6.29-3.86,6.8-4.21a1.53,1.53,0,0,0,.21-.14,8,8,0,0,0,2.11-3.18A6.45,6.45,0,0,0,300.63,363Zm-4.38,3.86a4.19,4.19,0,0,1-1,1.53c-.89.61-2.44,1.63-4.16,2.66l-2.22,1.28c-1,.54-1.95,1.05-2.85,1.46l-.53.23-1.95-2.16,2.07-1.18,2.23-1.26a1.64,1.64,0,0,0,.56-2.6,2.7,2.7,0,0,0-3.25-.44l-.06,0-4.29,2.43-1.16-1.27c.67-.51,1.35-1,2-1.48s1.44-1,2.13-1.48l1-.67a18.43,18.43,0,0,1,3.75-2.1l.14,0c.52-.14,1-.27,1.44-.37,2.23-.5,3.74-.45,5.23,1.35.14.16.25.32.36.47A3.74,3.74,0,0,1,296.25,366.84Z" />
      <path class="GUNDAN_GOAT_OUTFIT_GUNDAN_GOAT_OUTFIT_3_cls-3" d="M373,314.53l.64,2.62a48.38,48.38,0,0,0-3.54,6.22,20.75,20.75,0,0,0-1.14,5.37h0c-3,.59-8.49,1.78-9,2.7s5.06,3.05,8.26,4.18c-.43,4.43-.91,8.63-1.8,10.07a72.36,72.36,0,0,1-7.54,9.65c-2.81-1.12-7.57-2.9-8.65-2.47s1.72,5.56,3.16,8c-.27.26-.55.53-.84.78-4.33,3.83-11.36,6.39-20,9.17-1.81-2.08-4.69-5.15-5.85-5.18s-1.74,4.84-1.94,7.65c-2.7.87,8.22,1.79,5.33,2.8a77.54,77.54,0,0,1-19.07,4.4c-.89-2.41-2.52-6.43-3.66-6.77s-3.57,4.16-4.85,6.78c-1.87-.14-3.64-.38-5.35-.64-3.35-.51-4.87-2.29-5.57-4.51,3.3-1.83,6.28-3.87,6.79-4.22a1,1,0,0,0,.2-.15,7.71,7.71,0,0,0,2.12-3.16,57.66,57.66,0,0,0,9.57.79,56.23,56.23,0,0,0,21.39-4.12c11.61-4.84,6.2-13.32,13.54-20.8,3.39-3.47,6.92-7.06,9.5-11.18,3-4.8,4.18-9.65,3.41-14a14.16,14.16,0,0,0-.71-2.59c2.82-.07,5.36-.24,7.53-.47C368.05,315.1,370.74,314.8,373,314.53Z" />
      <path class="GUNDAN_GOAT_OUTFIT_GUNDAN_GOAT_OUTFIT_3_cls-3" d="M297.43,330.4a79,79,0,0,0-.85-19c3.41-2.87,6.27-4.94,7.86-6,0,0,8.48,4.57,7.46,14s-6.53,12.49-8.77,11.43-2.56-7.43,2-9.39c-3.43.84-6.41,5.21-6.76,9.11Z" />
      <path class="GUNDAN_GOAT_OUTFIT_GUNDAN_GOAT_OUTFIT_3_cls-4" d="M285.09,366.39c-.06-.46-.12-.9-.17-1.31a6,6,0,0,0-1.14-.49c-.69.47-1.4,1-2.13,1.49s-1.34,1-2,1.46l1.15,1.27Z" />
      <path class="GUNDAN_GOAT_OUTFIT_GUNDAN_GOAT_OUTFIT_3_cls-4" d="M285.61,370.66l-2.08,1.18,2,2.16.52-.23C285.88,372.75,285.74,371.7,285.61,370.66Z" />
      <path class="GUNDAN_GOAT_OUTFIT_GUNDAN_GOAT_OUTFIT_3_cls-4" d="M282.83,377.44l-3.69-4.08-.76-.84,0,0-.06-.08-3.62-4a1.6,1.6,0,0,1,.27-2.44l1.81-1.38a9.16,9.16,0,0,0-2.58,1.38,308.91,308.91,0,0,1-25.73,18c-.88.57-1.78,1.12-2.67,1.66q-8.11,5-16.2,9.39c-3.14,1.72-5.17,3.37-8.28,4.95h0q-6.36,3.24-12.55,6.14a439.19,439.19,0,0,1-66.56,24.85c-3.53,1-6.26,1.7-8,2.14-1.5.37-2.34.57-2.43.58-4.66,1-7.41,4.88-6.12,8.61,1,2.92,4.14,4.9,7.7,5.13l.74,0a10.91,10.91,0,0,0,2.32-.25c.45-.1,2.18-.49,5-1.2A438.23,438.23,0,0,0,211,421.32h0c4.7-2.11,9.53-4.38,14.42-6.81,5.51-2.73,10-5.66,15.68-8.8h0c1.68-.92,3.36-1.88,5-2.86h0A350.64,350.64,0,0,0,283.76,378,2.27,2.27,0,0,1,282.83,377.44Z" />
      <path class="GUNDAN_GOAT_OUTFIT_GUNDAN_GOAT_OUTFIT_3_cls-5" d="M246.52,380.29c-.31,1.84-.55,3.63-.75,5.3.89-.54,1.79-1.09,2.67-1.66A8.49,8.49,0,0,1,246.52,380.29Z" />
      <path class="GUNDAN_GOAT_OUTFIT_GUNDAN_GOAT_OUTFIT_3_cls-5" d="M287.28,381a26.83,26.83,0,0,1-.68-3.23c-.37.14-.73.26-1.07.36a2.79,2.79,0,0,1-1.77,0,350.64,350.64,0,0,1-37.52,24.78,55.7,55.7,0,0,1,11.94-1.28c10.07,0,31-2.07,32.37-15.68.08-.8.14-1.65.2-2.54C288.79,382.48,287.5,381.66,287.28,381Z" />
      <path class="GUNDAN_GOAT_OUTFIT_GUNDAN_GOAT_OUTFIT_3_cls-5" d="M211,421.31h0c.5,3.66,1,7.72,1.47,11.91s.89,8.55,1.18,12.74.47,8.39.44,12.08h21.57c0-3.68.16-7.8.46-12.08s.7-8.52,1.15-12.74c1.62-14.54,3.83-27.53,3.83-27.53-5.65,3.14-10.17,6.07-15.68,8.8C220.56,416.93,215.73,419.2,211,421.31Z" />
      <path class="GUNDAN_GOAT_OUTFIT_GUNDAN_GOAT_OUTFIT_3_cls-5" d="M203,378.23c-.4,5.56-4.37,10.68-17.3,7.85s-17.27-13-19.58-26.89-17-18.4-26.53-13.83c20.68.75,17.69,26.89,19.05,40.5S180.9,401.54,191,401.54a48.62,48.62,0,0,1,16.68,2.67c-1-1.85-2.5-5.58-3-12.31A128.49,128.49,0,0,0,203,378.23Z" />
      <path class="GUNDAN_GOAT_OUTFIT_GUNDAN_GOAT_OUTFIT_3_cls-6" d="M263.33,334.09c2-5,7.71-12.34,13.92-19-3.07,1.06-6.89,2.27-10.24,3.09-7.08,1.75-16.46,6.21-18.23,9.26,2.18,6.31,5.37,19.11-7.59,21.31,4.7-2.93,9.39-14,2.05-15.27s-7.76,12.09-8.38,15.27c-.49,2.59-2.4,20.61-6.46,30.81a21.21,21.21,0,0,1-3,5.54c-5.49-6.61-9.89-33.16-10.51-36.35-.26-1.32-.48-4.44-1.18-7.51-1-4.29-2.9-8.52-7.18-7.76-7.35,1.31-2.65,12.34,2,15.27-13-2.2-9.76-15-7.59-21.31-1.76-3.05-11.15-7.51-18.23-9.26-3.35-.82-7.16-2-10.25-3.09,6.21,6.71,11.94,14,13.92,19,4.29,10.77,8,7.67,20.82,22.54s13.06,41,13.06,41l.94,2.31c3.11-1.58,5.14-3.23,8.28-4.95.44-7,2.57-26.35,13-38.35C255.38,341.76,259.05,344.86,263.33,334.09Z" />
      <path class="GUNDAN_GOAT_OUTFIT_GUNDAN_GOAT_OUTFIT_3_cls-6" d="M260.75,351.89c-8.74,5.16-12.5,17.72-14.23,28.38v0a8.49,8.49,0,0,0,1.92,3.64,308.91,308.91,0,0,0,25.73-18,9.16,9.16,0,0,1,2.58-1.38c1.68-1.24,4-2.91,6.13-4.22.07-.4.13-.79.2-1.18a19,19,0,0,1,.54-2.34c-.23-1.15-.51-2.53-.83-4.2-1.5-7.51,4.35-7,9.12-19.16a26.66,26.66,0,0,0,.65-18.57,91.07,91.07,0,0,0-11.78,13C270.48,342.09,273.13,344.59,260.75,351.89Z" />
      <path class="GUNDAN_GOAT_OUTFIT_GUNDAN_GOAT_OUTFIT_3_cls-6" d="M208.74,406.07a438.1,438.1,0,0,1-66.19,24.75l-.37.11s0-.17,0-.48c.45-9.81.77-20.11.6-27.68-.06-2.34-.16-4.41-.33-6.13a36.13,36.13,0,0,0-1.75-7.71c-.71-2.12-1.58-4.34-2.59-6.62v0l0,0a131.14,131.14,0,0,0-7.41-14l0,0a149.87,149.87,0,0,0-16.41-22.39l-1-1a44.45,44.45,0,0,0-3.76-3.54,116,116,0,0,0-12.47-8.89h0c-1.1-.69-2.08-1.27-2.93-1.74a115.39,115.39,0,0,0,20.32-11.75l.12-.08c1.31-1,2.45-1.88,3.34-2.69,5.66-5.08,20.65-13,21.69-13.79a.24.24,0,0,1-.08-.11l.14,0h0l.63.38a148.59,148.59,0,0,1,16.54,12.64l0,0A77.11,77.11,0,0,1,169,328a106.39,106.39,0,0,1,6.11,9.3c3.12,5.27,4.41,8.09,9.5,11.78h0c1.23.87,2.67,1.82,4.42,2.84.23.14.47.28.7.44,5.48,3.59,8.9,10.16,11.09,17.21.19.64.38,1.28.55,1.93.1.32.18.64.26,1s.17.64.25,1,.15.65.23,1c.25,1.07.47,2.14.67,3.19.05.23.09.45.13.67v0c-.42,5.54-4.41,10.62-17.29,7.79s-17.28-12.95-19.59-26.88-17-18.41-26.53-13.84c.25,0,.5,0,.74,0h0a15.75,15.75,0,0,1,10.5,4.45c3.6,3.59,5.34,9,6.25,14.74v0c1,6.64,1,13.8,1.37,19.39,0,.64.1,1.26.16,1.85a12,12,0,0,0,.89,3.57l0,.06a11.33,11.33,0,0,0,1,1.95l.28.4.09.11c6,8.18,21.74,9.6,30.06,9.6a55.68,55.68,0,0,1,8.32.61c.24,0,.48.06.71.11a42.4,42.4,0,0,1,7.1,1.74c.37.12.56.2.56.2a7.24,7.24,0,0,0,1,1.5A3.39,3.39,0,0,1,208.74,406.07Z" />
      <path class="GUNDAN_GOAT_OUTFIT_GUNDAN_GOAT_OUTFIT_3_cls-6" d="M306.65,396.64a38.52,38.52,0,0,1,2.15-8.86,74.31,74.31,0,0,1-18.05-4.46c0,.45-.06.88-.09,1.3s-.07.84-.1,1.24a12.25,12.25,0,0,1-1.37,4.58l-.29.5a9.9,9.9,0,0,1-.63,1l-.35.46a10.9,10.9,0,0,1-1.16,1.29c-6.79,6.68-20.87,7.9-28.58,7.9a55.06,55.06,0,0,0-11.94,1.28h0q-2.53,1.46-5,2.86h0s-2.22,13-3.83,27.52c-.46,4.22-.87,8.55-1.16,12.75s-.48,8.4-.46,12.07h72.92C307.88,448,305.34,410.58,306.65,396.64ZM251.2,444.58a4,4,0,0,1-.69.51,3.91,3.91,0,0,1-1.51.44h-.34a4,4,0,0,1-1.44-.26,4.16,4.16,0,0,1-.78-.42,2.86,2.86,0,0,1-.82-.92,2.19,2.19,0,0,1-.27-1.05c0-1.46,1.48-2.65,3.31-2.65s3.3,1.19,3.3,2.65A2.33,2.33,0,0,1,251.2,444.58ZM248.66,433a3.38,3.38,0,0,1-3-1.61,2.15,2.15,0,0,1-.27-1c0-1.46,1.48-2.64,3.31-2.64s3.3,1.18,3.3,2.64S250.48,433,248.66,433Z" />
      <path class="GUNDAN_GOAT_OUTFIT_GUNDAN_GOAT_OUTFIT_3_cls-6" d="M214,451.55c-.08-1.81-.18-3.68-.32-5.57-.26-3.79-.63-7.67-1-11.48a.19.19,0,0,1,0-.08c0-.4-.08-.79-.13-1.19-.44-4-.92-7.86-1.4-11.38,0-.14,0-.27,0-.4l0-.13c-3.91,1.76-7.75,3.41-11.5,5-9.08,3.78-17.59,7-25.26,9.66l-.06,0c-14.9,5.21-26.57,8.41-32.84,10h0c0,.19,0,.37,0,.55-.31,5-.61,9.06-.78,11.52h73.58v-1C214.12,455.28,214.07,453.44,214,451.55Zm-13.84-23.74a4.07,4.07,0,0,1,1-.12c1.82,0,3.31,1.18,3.31,2.64a2.16,2.16,0,0,1-.28,1,3.38,3.38,0,0,1-3,1.61c-1.82,0-3.31-1.19-3.31-2.65A2.78,2.78,0,0,1,200.16,427.81Zm1,12.43c1.82,0,3.31,1.19,3.31,2.65a2.2,2.2,0,0,1-.28,1.05,2.86,2.86,0,0,1-.82.92,3.74,3.74,0,0,1-2.21.68h-.34a3.91,3.91,0,0,1-1.51-.44,3.71,3.71,0,0,1-.7-.51,2.33,2.33,0,0,1-.76-1.69C197.84,441.43,199.33,440.24,201.15,440.24Z" />
      <path class="GUNDAN_GOAT_OUTFIT_GUNDAN_GOAT_OUTFIT_3_cls-5" d="M291.09,371a48.5,48.5,0,0,0-.14-5.31c-.16-1.09-.52-2.56-.84-4.3-.45.1-.92.23-1.44.37l-.14,0a19.75,19.75,0,0,0-3.75,2.11l-1,.67a6,6,0,0,1,1.14.49c.05.41.11.85.17,1.31l.06,0a2.7,2.7,0,0,1,3.25.44,1.64,1.64,0,0,1-.56,2.6l-2.23,1.26c.13,1,.27,2.09.41,3.11.9-.41,1.87-.92,2.85-1.46C289.62,371.89,290.38,371.45,291.09,371Z" />
      <path class="GUNDAN_GOAT_OUTFIT_GUNDAN_GOAT_OUTFIT_3_cls-5" d="M304.66,349.36c-8.64,2.54-11.54,7.81-11.69,8.08a8.57,8.57,0,0,1,5.35,2.29c5.68-8.64,16.44-6,24.09-11.51s6.13-15.44-.51-20.75C328.74,339.72,313.53,346.74,304.66,349.36Z" />
      <path class="GUNDAN_GOAT_OUTFIT_GUNDAN_GOAT_OUTFIT_3_cls-5" d="M305.09,304.9l0,0c-3.76-5.46-7.57-5.73-10.08-5.07l-.07,0a14,14,0,0,0-2.67,1.2.65.65,0,0,1-.13.08,92.18,92.18,0,0,0-7.17,6.15h0c-.72.38-12.18,6.43-21.37,8.4-9.49,2.05-27,9.4-30.4,24.64s-7.69,38.54-7.69,38.54v0c-.15-.69-5.33-23.11-8.67-38.12l-.09-.4c-3.4-15.24-20.91-22.59-30.41-24.64-9.19-2-20.67-8-21.38-8.4h0c-4.47-4.19-15-15-17.32-16-6.66-3.05-9.18,4.24-9.27,5.55s1.4,5.43,1.4,5.43S158.73,313.83,169,328s7.66,16.63,20,23.93c8.2,4.83,12,16.16,13.88,26.34a128.65,128.65,0,0,1,1.69,13.66c.51,6.74,2,10.48,3,12.32a7.24,7.24,0,0,0,1,1.5,3.39,3.39,0,0,1,.06.36q6.18-2.88,12.55-6.13h0l-.95-2.31a90.65,90.65,0,0,0-3.43-22.09c-.11-.36-.22-.74-.34-1.11-1.93-6.24-4.85-12.69-9.28-17.8a85.59,85.59,0,0,0-8.89-9c-.39-.33-.75-.64-1.11-.93-5.32-4.4-7.93-5.37-10.82-12.63-2-5-7.7-12.33-13.92-19,3.08,1,6.9,2.27,10.26,3.1,7.07,1.74,16.46,6.2,18.22,9.25-1.7,4.95-4,13.9,1.3,18.59a10.45,10.45,0,0,0,1.17.87,13.83,13.83,0,0,0,5.13,1.85c-4.7-2.93-9.4-14-2-15.26,4.29-.77,6.2,3.46,7.18,7.75.7,3.08.93,6.18,1.18,7.51.42,2.14,2.54,14.83,5.55,24.93.09.31.18.62.28.92.56,1.82,1.15,3.54,1.77,5.08a21.23,21.23,0,0,0,2.91,5.42,19,19,0,0,0,2.6-4.67c.12-.28.24-.57.35-.86.51-1.28,1-2.68,1.43-4.15,3.08-10.32,4.61-24.39,5-26.67.61-3.18,1-16.58,8.37-15.26s2.65,12.33-2.05,15.26a15,15,0,0,0,3.81-1.13,10.55,10.55,0,0,0,1.75-1c.19-.14.37-.27.55-.42,5.58-4.64,3.21-13.74,1.49-18.75,1.76-3.05,11.15-7.51,18.22-9.25,3.36-.83,7.17-2,10.24-3.1-6.21,6.71-11.93,14-13.92,19-2.92,7.34-5.54,8.24-11,12.77l-.54.45c-.61.52-1.26,1.09-1.94,1.72a86.61,86.61,0,0,0-7.33,7.6c-4.85,5.6-7.9,12.79-9.82,19.59h0A92.86,92.86,0,0,0,229.57,395q8.07-4.39,16.2-9.39c.2-1.67.45-3.46.75-5.3v0c1.73-10.66,5.48-23.23,14.23-28.38,12.38-7.3,9.73-9.81,20-23.93a90.53,90.53,0,0,1,11.78-13,25.18,25.18,0,0,1,1.33,6.93,28,28,0,0,1-2,11.64c-4.77,12.19-10.62,11.65-9.12,19.16.33,1.67.6,3.05.83,4.2s.39,2.06.52,2.76a13.37,13.37,0,0,1,2.91-1.34l.14,0c.68-.18,1.49-.4,2.41-.56a22.55,22.55,0,0,1,4.21-16.13c2.1-2.81,3.16-6.85,3.62-11.14a59.9,59.9,0,0,0,.2-8.56,92.82,92.82,0,0,0-1.05-10.46c3.41-2.86,6.27-4.93,7.86-6,0,0,8.48,4.57,7.46,14s-6.53,12.49-8.78,11.43-2.55-7.43,2-9.4c-3.44.84-6.42,5.22-6.77,9.12-.24,2.54.63,4.87,3.19,5.93,6.48,2.68,15.06-9.16,16.79-14.72s-1.4-13.77-1.4-13.77a12.36,12.36,0,0,0-4.62-2.72l-.46-.1a41,41,0,0,0-4.62-.54h0Z" />
      <path class="GUNDAN_GOAT_OUTFIT_GUNDAN_GOAT_OUTFIT_3_cls-5" d="M373,314.53l.64,2.62a48.38,48.38,0,0,0-3.54,6.22,20.75,20.75,0,0,0-1.14,5.37h0c-3,.59-8.49,1.78-9,2.7s5.06,3.05,8.26,4.18c-.43,4.43-.91,8.63-1.8,10.07a72.36,72.36,0,0,1-7.54,9.65c-2.81-1.12-7.57-2.9-8.65-2.47s1.72,5.56,3.16,8c-.27.26-.55.53-.84.78-4.33,3.83-11.36,6.39-20,9.17-1.81-2.08-4.69-5.15-5.85-5.18s-1.74,4.84-1.94,7.65c-2.7.87,8.22,1.79,5.33,2.8a77.54,77.54,0,0,1-19.07,4.4c-.89-2.41-2.52-6.43-3.66-6.77s-3.57,4.16-4.85,6.78c-1.87-.14-3.64-.38-5.35-.64-3.35-.51-4.87-2.29-5.57-4.51a41.5,41.5,0,0,1-5,2.41,26.83,26.83,0,0,0,.68,3.23c.22.7,1.51,1.52,3.47,2.36a75.45,75.45,0,0,0,18.05,4.47c1.63.19,3.2.32,4.66.37-1.46-.05-3-.18-4.66-.37a38.32,38.32,0,0,0-2.15,8.85c-1.3,13.94,1.23,51.38,2,61.41h7.77c-.09-3.42-.36-10.07-1.19-18.62-.78-8.11,1-26.56,3.63-42,.61-3.57,1.27-7,2-10.06,4.59-1.31,9.79-4.08,15.16-6.58,5.13-2.39-3.33-4.55,1.69-5,11.56-.94,12.65-1.21,16.19-4.5.23-.21.49-.46.74-.72,3.75-3.64,10.43-11.07,16.27-16.12.07-.07.14-.12.2-.19a16.93,16.93,0,0,0,3.68-5.47v0a.64.64,0,0,0,0-.07c3.49-7.59,5.25-19.08,6.69-24.7a71.48,71.48,0,0,0,2.19-10.89S380.18,313.68,373,314.53Z" />
      <path class="GUNDAN_GOAT_OUTFIT_GUNDAN_GOAT_OUTFIT_3_cls-5" d="M300.63,363a6.56,6.56,0,0,1,.12,4.82,57.66,57.66,0,0,0,9.57.79,56.23,56.23,0,0,0,21.39-4.12c11.61-4.84,6.2-13.32,13.54-20.8,3.39-3.47,6.92-7.06,9.5-11.18,3-4.8,4.18-9.65,3.41-14a14.16,14.16,0,0,0-.71-2.59c-1.94.06-4,.08-6.19.05a10.31,10.31,0,0,1,1.12,3.18c.76,4.33-1.13,8.52-2.85,11.28-2.32,3.7-5.65,7.1-8.87,10.39-7,7.1-1.16,15.16-11.64,19.53A50.19,50.19,0,0,1,300.63,363Z" />
      <path class="GUNDAN_GOAT_OUTFIT_GUNDAN_GOAT_OUTFIT_3_cls-5" d="M248.65,427.68c-1.82,0-3.3,1.19-3.3,2.65a2.15,2.15,0,0,0,.27,1,3.38,3.38,0,0,0,3,1.61c1.83,0,3.31-1.19,3.31-2.65S250.48,427.68,248.65,427.68Z" />
      <path class="GUNDAN_GOAT_OUTFIT_GUNDAN_GOAT_OUTFIT_3_cls-5" d="M201.15,427.68c-1.82,0-3.31,1.19-3.31,2.65s1.49,2.65,3.31,2.65a3.4,3.4,0,0,0,3-1.61,2.26,2.26,0,0,0,.26-1C204.45,428.87,203,427.68,201.15,427.68Z" />
      <path class="GUNDAN_GOAT_OUTFIT_GUNDAN_GOAT_OUTFIT_3_cls-5" d="M109.54,341.27a111.74,111.74,0,0,0-15.41-10.63,43.84,43.84,0,0,1-7.85,2.71c16,11.44,34,30.74,39,43.26,1.8,4.47,3.58,12.18,5.07,20.79a262.85,262.85,0,0,1,3.8,35.67c1.78-.44,4.51-1.15,8-2.14.62-13,1-26.92.3-34.29C141,380.47,120,349.77,109.54,341.27Z" />
      <path class="GUNDAN_GOAT_OUTFIT_GUNDAN_GOAT_OUTFIT_3_cls-6" d="M75.55,343c-1.25-.65-2-1-2-1l-3-.86,3.72-1.92-6-1.43,9.28-2.29s-.56-1-3.68-6.45c2.65,2.12,12.4,4.37,12.4,4.37,16,11.44,34,30.74,39,43.26,1.8,4.48,3.58,12.18,5.07,20.79-2.73-4.49-10.08-10.44-10.08-10.44L113,380.59l7.25,2.9-2.4-2.4c-2.4-2.42-7.6-8.91-11.53-12.09a17.25,17.25,0,0,0-8.57-3.56l4.23-.93s-.46-.7-7.19-4-15.25-11-15.25-11,3.11.49,12.4,4.9C88.1,349.79,79.48,345,75.55,343Z" />
      <path class="GUNDAN_GOAT_OUTFIT_GUNDAN_GOAT_OUTFIT_3_cls-7" d="M391.38,401.54c-1.49-9,3.95-21.71,3.95-21.71a16,16,0,0,0-8,7,78.28,78.28,0,0,1-7.82,12.41c-1.9-9.05,0-23.93,5.63-32.33-5.42.12-9.16,4.79-12.33,9.88-5.43-5.23-5-15.43-1.76-22.53-.06.07-.13.12-.2.19-5.84,5.05-12.52,12.48-16.27,16.12-.25.26-.51.51-.74.72-3.54,3.29-4.63,3.56-16.19,4.5-5,.41,3.44,2.57-1.69,5-5.37,2.5-10.57,5.27-15.16,6.58-.7,3.08-1.36,6.49-2,10.06-2.67,15.47-4.41,33.92-3.63,42,.83,8.55,1.1,15.2,1.19,18.62h65.46l-1.33-13.51s-2.86-10-1-15.24S392.88,410.58,391.38,401.54Z" />
      <path class="GUNDAN_GOAT_OUTFIT_GUNDAN_GOAT_OUTFIT_3_cls-7" d="M126.11,443.41h0a6.53,6.53,0,0,1-.52-1.14c-1.29-3.72,1.45-7.59,6.11-8.61.1,0,.94-.21,2.44-.59a262.58,262.58,0,0,0-3.8-35.65c-2.73-4.5-10.08-10.45-10.08-10.45L113,380.59l7.24,2.89-2.39-2.4c-1.13-1.12-2.87-3.16-4.8-5.33a5.11,5.11,0,0,1-.39-.42h0c-.14-.14-.27-.28-.4-.43l-1.2-1.31-.41-.42c-.67-.72-1.35-1.42-2-2.07l-.79-.76c-.52-.48-1-.93-1.52-1.33a17.4,17.4,0,0,0-8.57-3.56l4.23-.94s-.46-.68-7.19-4-15.26-11-15.26-11,3.12.49,12.41,4.9c-3.84-4.59-12.47-9.39-16.4-11.44h0l-.08.16s0,.06-.06.1,0,.09-.08.14-.11.21-.17.32l-.08.13s0,0,0,0a.67.67,0,0,1-.06.12c-.47.9-1,2-1.57,3.23h0A38.81,38.81,0,0,0,71.34,353a23.08,23.08,0,0,0-10.7-4.25c5.93,5.57,5.59,20.76-1.17,27.8a2.91,2.91,0,0,1-.3.31c-3.17-5.1-6.91-9.78-12.34-9.89,5.67,8.4,7.54,23.28,5.63,32.33a77.8,77.8,0,0,1-7.8-12.41,15.92,15.92,0,0,0-8-7s5.45,12.68,4,21.72c-1.13,6.82,2.89,16.19,6.84,22.62h0s0,0,0,0,0,.24-.08.51-.07.39-.1.59c-.32,1.83-.94,5.45-1.26,7.32-.06.3-.1.61-.16.92,0,.07,0,.14,0,.22v0l-.36,2.12c-.72,4.13-1.45,8.34-2,11.5-1.63,9.1-1.35,10.63-1.35,10.63h90.73c.07-2.27.21-5.95.54-10.66l-.33,0A8.83,8.83,0,0,1,126.11,443.41Z" />
      <path class="GUNDAN_GOAT_OUTFIT_GUNDAN_GOAT_OUTFIT_3_cls-3" d="M295.34,362.77c-1.5-1.8-3-1.85-5.23-1.35.32,1.74.68,3.21.84,4.3a48.5,48.5,0,0,1,.14,5.31c1.73-1,3.27-2,4.17-2.66a4.21,4.21,0,0,0,1-1.53,3.74,3.74,0,0,0-.55-3.6A4.55,4.55,0,0,0,295.34,362.77Z" />
      <path class="GUNDAN_GOAT_OUTFIT_GUNDAN_GOAT_OUTFIT_3_cls-3" d="M352.38,319.11a10.31,10.31,0,0,0-1.12-3.18c-13.06-.18-15.82-2.08-27.93-7.38l-3.46-.34h0l-2.93-.3s3.13,8.22,1.4,13.78S308,339.07,301.54,336.39c-2.56-1.06-3.42-3.4-3.19-5.93l-.92-.06c-.46,4.28-1.52,8.33-3.62,11.14a22.63,22.63,0,0,0-4.22,16.13,13.69,13.69,0,0,1,3.38-.23c.15-.27,3-5.54,11.69-8.08,8.87-2.62,24.08-9.64,17.24-21.89,6.64,5.31,8.17,15.2.51,20.75s-18.41,2.87-24.09,11.51a12,12,0,0,1,.91,1,8.9,8.9,0,0,1,1.4,2.28A50.19,50.19,0,0,0,329,360.31c10.48-4.37,4.67-12.43,11.64-19.53,3.22-3.29,6.55-6.69,8.87-10.39C351.25,327.63,353.14,323.44,352.38,319.11Z" />
      <path class="GUNDAN_GOAT_OUTFIT_GUNDAN_GOAT_OUTFIT_3_cls-8" d="M221.29,399.93c3.11-1.58,5.14-3.23,8.28-4.95q8.07-4.39,16.2-9.39c.89-.54,1.79-1.09,2.67-1.66a308.91,308.91,0,0,0,25.73-18,9.16,9.16,0,0,1,2.58-1.38" />
      <path class="GUNDAN_GOAT_OUTFIT_GUNDAN_GOAT_OUTFIT_3_cls-8" d="M211,421.32A438.23,438.23,0,0,1,141.35,446c-2.82.71-4.55,1.1-5,1.2a10.91,10.91,0,0,1-2.32.25l-.74,0c-3.56-.23-6.71-2.21-7.7-5.13-1.29-3.73,1.46-7.59,6.12-8.61.09,0,.93-.21,2.43-.58,1.78-.44,4.51-1.15,8-2.14a439.19,439.19,0,0,0,66.56-24.85q6.18-2.9,12.55-6.14" />
      <path class="GUNDAN_GOAT_OUTFIT_GUNDAN_GOAT_OUTFIT_3_cls-8" d="M241.13,405.7c-5.65,3.14-10.17,6.07-15.68,8.8-4.89,2.43-9.72,4.7-14.42,6.81" />
      <path class="GUNDAN_GOAT_OUTFIT_GUNDAN_GOAT_OUTFIT_3_cls-8" d="M246.2,402.83c-1.69,1-3.37,1.94-5,2.86" />
      <path class="GUNDAN_GOAT_OUTFIT_GUNDAN_GOAT_OUTFIT_3_cls-8" d="M283.76,378a350.64,350.64,0,0,1-37.52,24.78" />
      <path class="GUNDAN_GOAT_OUTFIT_GUNDAN_GOAT_OUTFIT_3_cls-8" d="M284.92,365.08a6,6,0,0,0-1.14-.49" />
      <path class="GUNDAN_GOAT_OUTFIT_GUNDAN_GOAT_OUTFIT_3_cls-8" d="M241.15,405.69h0s-2.21,13-3.83,27.53c-.45,4.22-.86,8.55-1.15,12.74s-.48,8.4-.46,12.08" />
      <path class="GUNDAN_GOAT_OUTFIT_GUNDAN_GOAT_OUTFIT_3_cls-8" d="M284.91,307.31c-2.49,2.34-5.11,5-7.66,7.73-6.21,6.71-11.93,14-13.92,19-4.28,10.77-7.95,7.67-20.81,22.54-10.38,12-12.51,31.35-13,38.35" />
      <path class="GUNDAN_GOAT_OUTFIT_GUNDAN_GOAT_OUTFIT_3_cls-8" d="M284.94,307.3a92.18,92.18,0,0,1,7.17-6.15.65.65,0,0,0,.13-.08" />
      <path class="GUNDAN_GOAT_OUTFIT_GUNDAN_GOAT_OUTFIT_3_cls-8" d="M305.06,304.92l-.62.43c-1.59,1.1-4.45,3.17-7.86,6-1.28,1.07-2.63,2.26-4,3.54a90.53,90.53,0,0,0-11.78,13c-10.3,14.12-7.65,16.63-20,23.93-8.75,5.15-12.5,17.72-14.23,28.38" />
      <path class="GUNDAN_GOAT_OUTFIT_GUNDAN_GOAT_OUTFIT_3_cls-8" d="M245.77,385.59c.2-1.67.44-3.46.75-5.3" />
      <polyline class="GUNDAN_GOAT_OUTFIT_GUNDAN_GOAT_OUTFIT_3_cls-8" points="225.45 458.05 225.45 446.76 225.45 434.2 225.45 414.5" />
      <path class="GUNDAN_GOAT_OUTFIT_GUNDAN_GOAT_OUTFIT_3_cls-8" d="M214.12,458.05c0-3.69-.14-7.81-.44-12.08s-.71-8.53-1.18-12.74-1-8.25-1.47-11.91h0" />
      <path class="GUNDAN_GOAT_OUTFIT_GUNDAN_GOAT_OUTFIT_3_cls-8" d="M164.89,307.31c2.49,2.34,5.12,5,7.66,7.73,6.21,6.71,11.94,14,13.92,19,4.29,10.77,8,7.67,20.82,22.54s13.06,41,13.06,41l.94,2.31h0" />
      <path class="GUNDAN_GOAT_OUTFIT_GUNDAN_GOAT_OUTFIT_3_cls-8" d="M208.74,406.08l-.06-.38a7.52,7.52,0,0,1-1-1.49c-1-1.85-2.5-5.58-3-12.31A128.49,128.49,0,0,0,203,378.23c-1.87-10.18-5.69-21.51-13.89-26.34-12.37-7.3-9.72-9.8-20-23.93s-29.36-25.68-29.36-25.68-1.51-4.12-1.4-5.43,2.61-8.6,9.28-5.55c2.27,1.05,12.85,11.81,17.31,16" />
      <path class="GUNDAN_GOAT_OUTFIT_GUNDAN_GOAT_OUTFIT_3_cls-8" d="M286,373.77c-.14-1-.28-2.07-.41-3.11" />
      <path class="GUNDAN_GOAT_OUTFIT_GUNDAN_GOAT_OUTFIT_3_cls-8" d="M319.86,308.2l-2.93-.3a12.5,12.5,0,0,0-4.62-2.72c-5.5-1.29-7.25-.26-7.25-.26" />
      <path class="GUNDAN_GOAT_OUTFIT_GUNDAN_GOAT_OUTFIT_3_cls-8" d="M351.26,315.93c-11.81-.16-15.2-1.73-24.7-5.95a22,22,0,0,0-6.66-1.77h0" />
      <path class="GUNDAN_GOAT_OUTFIT_GUNDAN_GOAT_OUTFIT_3_cls-8" d="M374.72,348.78a.64.64,0,0,0,0-.07c3.49-7.59,5.25-19.08,6.69-24.7a71.48,71.48,0,0,0,2.19-10.89s-3.44.56-10.58,1.41c-2.3.27-5,.57-8.06.88-2.17.23-4.71.4-7.53.47" />
      <path class="GUNDAN_GOAT_OUTFIT_GUNDAN_GOAT_OUTFIT_3_cls-8" d="M286.6,377.73a26.83,26.83,0,0,0,.68,3.23c.22.7,1.51,1.52,3.47,2.36a75.45,75.45,0,0,0,18.05,4.47,39.49,39.49,0,0,0,8.68.25,20.11,20.11,0,0,0,3.3-.7c4.59-1.31,9.79-4.08,15.16-6.58,5.13-2.39-3.33-4.55,1.69-5,11.56-.94,12.65-1.21,16.19-4.5.23-.21.49-.46.74-.72,3.75-3.64,10.43-11.07,16.27-16.12.07-.07.14-.12.2-.19a16.93,16.93,0,0,0,3.68-5.47" />
      <path class="GUNDAN_GOAT_OUTFIT_GUNDAN_GOAT_OUTFIT_3_cls-8" d="M285.09,366.39c-.06-.46-.12-.9-.17-1.31" />
      <path class="GUNDAN_GOAT_OUTFIT_GUNDAN_GOAT_OUTFIT_3_cls-8" d="M284.14,359.61c-.13-.7-.3-1.61-.52-2.76s-.51-2.53-.83-4.2c-1.5-7.51,4.35-7,9.12-19.16a26.66,26.66,0,0,0,.65-18.57" />
      <path class="GUNDAN_GOAT_OUTFIT_GUNDAN_GOAT_OUTFIT_3_cls-8" d="M369,328.74a20.75,20.75,0,0,1,1.14-5.37,48.38,48.38,0,0,1,3.54-6.22l-.64-2.62" />
      <path class="GUNDAN_GOAT_OUTFIT_GUNDAN_GOAT_OUTFIT_3_cls-8" d="M358.93,355.35a72.36,72.36,0,0,0,7.54-9.65c.89-1.44,1.37-5.64,1.8-10.07" />
      <path class="GUNDAN_GOAT_OUTFIT_GUNDAN_GOAT_OUTFIT_3_cls-8" d="M311.07,380.46a77.54,77.54,0,0,0,19.07-4.4c2.89-1-8-1.93-5.33-2.8" />
      <path class="GUNDAN_GOAT_OUTFIT_GUNDAN_GOAT_OUTFIT_3_cls-8" d="M296.58,311.39a79,79,0,0,1,.85,19c-.46,4.28-1.52,8.33-3.62,11.14a22.63,22.63,0,0,0-4.22,16.13" />
      <path class="GUNDAN_GOAT_OUTFIT_GUNDAN_GOAT_OUTFIT_3_cls-8" d="M291.64,375.32c.7,2.22,2.22,4,5.57,4.51,1.71.26,3.48.5,5.35.64" />
      <path class="GUNDAN_GOAT_OUTFIT_GUNDAN_GOAT_OUTFIT_3_cls-8" d="M290.11,361.42c.32,1.74.68,3.21.84,4.3a48.5,48.5,0,0,1,.14,5.31" />
      <path class="GUNDAN_GOAT_OUTFIT_GUNDAN_GOAT_OUTFIT_3_cls-8" d="M332.6,370.79c8.64-2.78,15.67-5.34,20-9.17.29-.25.57-.52.84-.78" />
      <path class="GUNDAN_GOAT_OUTFIT_GUNDAN_GOAT_OUTFIT_3_cls-8" d="M302.56,380.47c1.28-2.62,3.69-7.12,4.85-6.78s2.77,4.36,3.66,6.77" />
      <path class="GUNDAN_GOAT_OUTFIT_GUNDAN_GOAT_OUTFIT_3_cls-8" d="M324.81,373.26c.2-2.81.7-7.69,1.94-7.65s4,3.1,5.85,5.18" />
      <path class="GUNDAN_GOAT_OUTFIT_GUNDAN_GOAT_OUTFIT_3_cls-8" d="M353.44,360.84c-1.44-2.4-4.35-7.48-3.16-8s5.84,1.35,8.65,2.47" />
      <path class="GUNDAN_GOAT_OUTFIT_GUNDAN_GOAT_OUTFIT_3_cls-8" d="M369,328.74h0c-3,.59-8.49,1.78-9,2.7s5.06,3.05,8.26,4.18" />
      <path class="GUNDAN_GOAT_OUTFIT_GUNDAN_GOAT_OUTFIT_3_cls-8" d="M94.13,330.64a111.74,111.74,0,0,1,15.41,10.63c10.41,8.5,31.43,39.2,32.94,55.37.69,7.37.32,21.31-.3,34.29" />
      <path class="GUNDAN_GOAT_OUTFIT_GUNDAN_GOAT_OUTFIT_3_cls-8" d="M134.14,433.06a262.58,262.58,0,0,0-3.8-35.65c-1.5-8.62-3.27-16.33-5.07-20.8-5-12.53-23-31.82-39-43.27a33.6,33.6,0,0,0,5.06-1.56l.1,0,.32-.13.62-.24,0,0,1.1-.46h0l.59-.26a115.39,115.39,0,0,0,20.32-11.75l.12-.08c1.31-1,2.45-1.88,3.34-2.69,5.66-5.08,20.65-13,21.69-13.79l.07-.05" />
      <path class="GUNDAN_GOAT_OUTFIT_GUNDAN_GOAT_OUTFIT_3_cls-8" d="M130.34,397.4c-2.73-4.49-10.08-10.44-10.08-10.44L113,380.59l7.25,2.9-2.4-2.4c-2.4-2.42-7.6-8.91-11.53-12.09a17.25,17.25,0,0,0-8.57-3.56l4.23-.93s-.46-.7-7.19-4-15.25-11-15.25-11,3.11.49,12.4,4.9C88.1,349.79,79.48,345,75.55,343c-1.25-.65-2-1-2-1l-3-.86,3.72-1.92-6-1.43,9.28-2.29s-.56-1-3.68-6.45c2.65,2.12,12.4,4.37,12.4,4.37" />
      <path class="GUNDAN_GOAT_OUTFIT_GUNDAN_GOAT_OUTFIT_3_cls-8" d="M71.35,353a48.08,48.08,0,0,1,4.2-10" />
      <path class="GUNDAN_GOAT_OUTFIT_GUNDAN_GOAT_OUTFIT_3_cls-8" d="M59.17,376.81c7.16-6.89,7.5-22.45,1.47-28.11A23.21,23.21,0,0,1,71.35,353a26.22,26.22,0,0,1,5,4.6A125.35,125.35,0,0,0,81.86,373c3.68,8.61,14,15.9,23.4,20.79s23,26.79,23,26.79h-3.81s-1,12-3.46,15.57-4.09,4.08-4.09,4.08-1.23,5.07-1.73,9.15a34.26,34.26,0,0,0,.72,8.66" />
      <path class="GUNDAN_GOAT_OUTFIT_GUNDAN_GOAT_OUTFIT_3_cls-8" d="M52.46,399.25c1.91-9,0-23.92-5.63-32.33,5.43.12,9.17,4.79,12.34,9.89,2.3,3.72,4.32,7.68,6.44,10.25,5,6.09,20.6,14.59,28.63,18.94s20.14,30.16,20.14,30.16l2.51,4.08s1.22,5.24,1.74,7.18-.52,1.8-1.74,5.56c-.53,1.6.07,3.46.91,5.07" />
      <path class="GUNDAN_GOAT_OUTFIT_GUNDAN_GOAT_OUTFIT_3_cls-8" d="M47.41,424.17c-3.95-6.43-8-15.8-6.84-22.63,1.5-9-4-21.71-4-21.71a16,16,0,0,1,8,7,78.55,78.55,0,0,0,7.8,12.41A80.38,80.38,0,0,0,71.05,416c18.37,12.41,34.21,31.4,34.21,31.4s3.8,7.58,3.95,10.63" />
      <path class="GUNDAN_GOAT_OUTFIT_GUNDAN_GOAT_OUTFIT_3_cls-8" d="M49.23,444.54s2.86-10,1-15.24a32.14,32.14,0,0,0-2.77-5.12" />
      <path class="GUNDAN_GOAT_OUTFIT_GUNDAN_GOAT_OUTFIT_3_cls-8" d="M61.18,387.82s14.7,13.55,22.65,18.95,12.38,7.4,15.47,13.82" />
      <path class="GUNDAN_GOAT_OUTFIT_GUNDAN_GOAT_OUTFIT_3_cls-8" d="M53.43,407.75s8.88,7.83,16.68,15.34,13.72,8.83,17.4,14.7c0,0,5.23,13.94,5.78,20.26" />
      <path class="GUNDAN_GOAT_OUTFIT_GUNDAN_GOAT_OUTFIT_3_cls-8" d="M47.41,424.17h0c-1,5.66-2.85,16.68-4,23.24-1.63,9.1-1.36,10.63-1.36,10.63H325.51" />
      <path class="GUNDAN_GOAT_OUTFIT_GUNDAN_GOAT_OUTFIT_3_cls-8" d="M379.49,399.25a78.28,78.28,0,0,0,7.82-12.41,16,16,0,0,1,8-7s-5.44,12.68-3.95,21.71-9.92,22.53-11.84,27.76,1,15.24,1,15.24l1.33,13.51H337.56" />
      <path class="GUNDAN_GOAT_OUTFIT_GUNDAN_GOAT_OUTFIT_3_cls-8" d="M337.56,458.05H325.51c2.19-5.3,4.65-10.63,4.65-10.63s12.39-19,30.74-31.4a80.59,80.59,0,0,0,18.59-16.76" />
      <path class="GUNDAN_GOAT_OUTFIT_GUNDAN_GOAT_OUTFIT_3_cls-8" d="M207.65,404.21A48.62,48.62,0,0,0,191,401.54c-10.07,0-31-2.07-32.38-15.68s1.63-39.75-19.05-40.5c9.53-4.57,24.22-.12,26.53,13.83s6.67,24.05,19.58,26.89,16.9-2.29,17.3-7.85" />
      <line class="GUNDAN_GOAT_OUTFIT_GUNDAN_GOAT_OUTFIT_3_cls-8" x1="319.87" y1="308.21" x2="319.86" y2="308.2" />
      <path class="GUNDAN_GOAT_OUTFIT_GUNDAN_GOAT_OUTFIT_3_cls-8" d="M308.6,458.05c-.72-10-3.25-47.47-2-61.41a38.32,38.32,0,0,1,2.15-8.85" />
      <path class="GUNDAN_GOAT_OUTFIT_GUNDAN_GOAT_OUTFIT_3_cls-8" d="M316.37,458.05c-.09-3.42-.36-10.07-1.19-18.62-.78-8.11,1-26.56,3.63-42,.61-3.57,1.27-7,2-10.06" />
      <path class="GUNDAN_GOAT_OUTFIT_GUNDAN_GOAT_OUTFIT_3_cls-8" d="M318.81,397.4c2.72-4.49,10.08-10.44,10.08-10.44l7.05-6.2" />
      <path class="GUNDAN_GOAT_OUTFIT_GUNDAN_GOAT_OUTFIT_3_cls-8" d="M333.27,458.05a34.26,34.26,0,0,0,.72-8.66c-.51-4.08-1.74-9.15-1.74-9.15s-1.63-.48-4.08-4.08-3.46-15.57-3.46-15.57h-3.82s-.12-21.88,9.27-26.79,19.73-12.18,23.4-20.79c.35-.83.69-1.64,1-2.43" />
      <path class="GUNDAN_GOAT_OUTFIT_GUNDAN_GOAT_OUTFIT_3_cls-8" d="M374.72,348.78v0" />
      <path class="GUNDAN_GOAT_OUTFIT_GUNDAN_GOAT_OUTFIT_3_cls-8" d="M372.79,376.8c-5.43-5.23-5-15.43-1.76-22.53" />
      <path class="GUNDAN_GOAT_OUTFIT_GUNDAN_GOAT_OUTFIT_3_cls-8" d="M379.49,399.26h0c-1.9-9.05,0-23.93,5.63-32.33-5.42.12-9.16,4.79-12.33,9.88-2.31,3.72-4.32,7.69-6.44,10.26-5,6.09-17.15,14.59-25.17,18.94s-6.41,30.16-6.41,30.16l-2.52,4.08" />
      <path class="GUNDAN_GOAT_OUTFIT_GUNDAN_GOAT_OUTFIT_3_cls-8" d="M370.77,387.82s-11.22,13.55-19.18,18.95-12.38,7.4-15.48,13.82" />
      <path class="GUNDAN_GOAT_OUTFIT_GUNDAN_GOAT_OUTFIT_3_cls-8" d="M337.56,458.05c3.37-9.12,10.36-20.26,10.36-20.26,3.67-5.87,6.12-7.18,13.92-14.7s16.69-15.34,16.69-15.34" />
      <path class="GUNDAN_GOAT_OUTFIT_GUNDAN_GOAT_OUTFIT_3_cls-8" d="M279.26,373.09l-.12.27" />
      <path class="GUNDAN_GOAT_OUTFIT_GUNDAN_GOAT_OUTFIT_3_cls-8" d="M282.88,360.37c.07-.4.13-.79.2-1.18a19,19,0,0,1,.54-2.34" />
      <path class="GUNDAN_GOAT_OUTFIT_GUNDAN_GOAT_OUTFIT_3_cls-8" d="M246.52,380.27v0a8.49,8.49,0,0,0,1.92,3.64" />
      <path class="GUNDAN_GOAT_OUTFIT_GUNDAN_GOAT_OUTFIT_3_cls-8" d="M246.2,402.83h0a55.7,55.7,0,0,1,11.94-1.28c10.07,0,31-2.07,32.37-15.68.08-.8.14-1.65.2-2.54" />
      <path class="GUNDAN_GOAT_OUTFIT_GUNDAN_GOAT_OUTFIT_3_cls-8" d="M164.86,307.29l0,0c.71.37,12.18,6.43,21.38,8.4,9.5,2.05,27,9.4,30.41,24.64l.09.4c3.4,15.24,8.68,38.14,8.68,38.14" />
      <path class="GUNDAN_GOAT_OUTFIT_GUNDAN_GOAT_OUTFIT_3_cls-8" d="M172.55,315c3.09,1,6.9,2.27,10.25,3.09,7.08,1.75,16.47,6.21,18.23,9.26-2.17,6.31-5.37,19.11,7.59,21.31-4.69-2.93-9.39-14-2-15.27,4.28-.76,6.2,3.47,7.18,7.76.7,3.07.92,6.19,1.18,7.51.62,3.19,5,29.74,10.51,36.35" />
      <path class="GUNDAN_GOAT_OUTFIT_GUNDAN_GOAT_OUTFIT_3_cls-8" d="M285,307.29l0,0c-.71.37-12.18,6.43-21.37,8.4-9.49,2.05-27,9.4-30.4,24.64s-7.69,38.54-7.69,38.54" />
      <path class="GUNDAN_GOAT_OUTFIT_GUNDAN_GOAT_OUTFIT_3_cls-8" d="M225.45,385.05a21.21,21.21,0,0,0,3-5.54c4.06-10.2,6-28.22,6.46-30.81.62-3.18,1-16.58,8.38-15.27s2.65,12.34-2.05,15.27c13-2.2,9.77-15,7.59-21.31,1.77-3.05,11.15-7.51,18.23-9.26,3.35-.82,7.17-2,10.24-3.09" />
      <path class="GUNDAN_GOAT_OUTFIT_GUNDAN_GOAT_OUTFIT_3_cls-8" d="M300.75,367.79a57.66,57.66,0,0,0,9.57.79,56.23,56.23,0,0,0,21.39-4.12c11.61-4.84,6.2-13.32,13.54-20.8,3.39-3.47,6.92-7.06,9.5-11.18,3-4.8,4.18-9.65,3.41-14a14.16,14.16,0,0,0-.71-2.59c-1.94.06-4,.08-6.19.05a10.31,10.31,0,0,1,1.12,3.18c.76,4.33-1.13,8.52-2.85,11.28-2.32,3.7-5.65,7.1-8.87,10.39-7,7.1-1.16,15.16-11.64,19.53A50.19,50.19,0,0,1,300.63,363" />
      <path class="GUNDAN_GOAT_OUTFIT_GUNDAN_GOAT_OUTFIT_3_cls-8" d="M278.38,372.52l.76.84,3.69,4.08a2.27,2.27,0,0,0,.93.6,2.79,2.79,0,0,0,1.77,0c.34-.1.7-.22,1.07-.36a41.5,41.5,0,0,0,5-2.41c3.3-1.83,6.28-3.87,6.79-4.22a1,1,0,0,0,.2-.15,7.71,7.71,0,0,0,2.12-3.16,6.56,6.56,0,0,0-.12-4.82,8.9,8.9,0,0,0-1.4-2.28,12,12,0,0,0-.91-1,8.57,8.57,0,0,0-5.35-2.29,13.69,13.69,0,0,0-3.38.23,24.54,24.54,0,0,0-2.4.57l-.14,0a13.37,13.37,0,0,0-2.91,1.34c-.41.23-.84.48-1.26.76-2.14,1.31-4.45,3-6.13,4.22L274.94,366a1.6,1.6,0,0,0-.27,2.44l3.62,4" />
      <path class="GUNDAN_GOAT_OUTFIT_GUNDAN_GOAT_OUTFIT_3_cls-8" d="M283.53,371.84l2,2.16.52-.23c.9-.41,1.87-.92,2.85-1.46.75-.42,1.51-.86,2.22-1.28,1.73-1,3.27-2,4.17-2.66a4.21,4.21,0,0,0,1-1.53,3.74,3.74,0,0,0-.55-3.6,4.55,4.55,0,0,0-.36-.47c-1.5-1.8-3-1.85-5.23-1.35-.45.1-.92.23-1.44.37l-.14,0a19.75,19.75,0,0,0-3.75,2.11l-1,.67c-.69.47-1.4,1-2.13,1.49s-1.34,1-2,1.46l1.15,1.27" />
      <path class="GUNDAN_GOAT_OUTFIT_GUNDAN_GOAT_OUTFIT_3_cls-8" d="M283.53,371.84l-1.92,1.1a2.75,2.75,0,0,1-1.35.33,2.61,2.61,0,0,1-1-.18,2.16,2.16,0,0,1-.88-.57l0,0-.06-.08a1.65,1.65,0,0,1,.62-2.53l1.89-1.07,4.29-2.42.06,0a2.7,2.7,0,0,1,3.25.44,1.64,1.64,0,0,1-.56,2.6l-2.23,1.26Z" />
      <path class="GUNDAN_GOAT_OUTFIT_GUNDAN_GOAT_OUTFIT_3_cls-8" d="M304.44,305.35s8.48,4.57,7.46,14-6.53,12.49-8.77,11.43-2.56-7.43,2-9.39c-3.43.84-6.41,5.21-6.76,9.11-.23,2.53.63,4.87,3.19,5.93,6.48,2.68,15-9.16,16.79-14.71s-1.4-13.78-1.4-13.78" />
      <path class="GUNDAN_GOAT_OUTFIT_GUNDAN_GOAT_OUTFIT_3_cls-8" d="M293,357.45h0c.15-.27,3-5.54,11.69-8.08,8.87-2.62,24.08-9.64,17.24-21.89,6.64,5.31,8.17,15.2.51,20.75s-18.41,2.87-24.09,11.51" />
      <path class="GUNDAN_GOAT_OUTFIT_GUNDAN_GOAT_OUTFIT_3_cls-8" d="M204.19,431.37a58.21,58.21,0,0,0,8.31,1.86c2.33.37,4.8.64,7.37.8,1.81.11,3.68.17,5.58.17s2.68-.06,4.49-.17c2.57-.16,5-.43,7.36-.8a58.67,58.67,0,0,0,8.32-1.86" />
      <path class="GUNDAN_GOAT_OUTFIT_GUNDAN_GOAT_OUTFIT_3_cls-8" d="M204.45,430.33a2.26,2.26,0,0,1-.26,1,3.4,3.4,0,0,1-3,1.61c-1.82,0-3.31-1.19-3.31-2.65s1.49-2.65,3.31-2.65S204.45,428.87,204.45,430.33Z" />
      <path class="GUNDAN_GOAT_OUTFIT_GUNDAN_GOAT_OUTFIT_3_cls-8" d="M252,430.33c0,1.46-1.48,2.65-3.31,2.65a3.38,3.38,0,0,1-3-1.61,2.15,2.15,0,0,1-.27-1c0-1.46,1.48-2.65,3.3-2.65S252,428.87,252,430.33Z" />
      <g class="GUNDAN_GOAT_OUTFIT_GUNDAN_GOAT_OUTFIT_3_cls-9">
        <path d="M216.34,402.42c-5.41,4.33-6.8,3.29-6.8,3.29h-1a8.31,8.31,0,0,1-1.43-1.7,3.78,3.78,0,0,1-.17-.35c-2.43-.56-4.66-1-6.93-1.39-.23,0-.47-.08-.71-.11a66.3,66.3,0,0,0-9.7-.74c-6.2-.05-22.89-2-28.68-9.47l-.09-.11-.28-.4a9.1,9.1,0,0,1-1-1.95l0-.06a49.44,49.44,0,0,1-1-5.42,152.05,152.05,0,0,1-1.37-19.39v0a20.58,20.58,0,0,0-6.25-14.74,17.63,17.63,0,0,0-10.5-4.45c10.06-.28,22.48,7.15,23.5,19.06s8.78,28.25,24.08,29.23c15,1,16.53,0,16.53,0A95.19,95.19,0,0,0,203,378.28c0-.24-.08-.48-.13-.72-.2-1.05-.42-2.12-.67-3.19,0-.15-.07-.3-.1-.45s-.09-.35-.13-.52-.16-.64-.25-1-.16-.65-.26-1c-.17-.65-.35-1.3-.55-1.93-2.45-8.1-6.13-14.81-11.09-17.21a1.92,1.92,0,0,0-.25-.12,21,21,0,0,1-4.87-3.16h0c-3.72-3.16-6.82-7.52-9.41-11.65l-.09-.13c-2.61-4.09-10.65-14.15-18.26-21.93l0,0a66.14,66.14,0,0,0-9.62-8.45c-5.24-3.84-5.6-3.74-6.92-4.19-.42-.14-.63-.19-.63-.19l-.07-.14a.24.24,0,0,1-.08-.11c-.17-.29-.47-.8-.8-1.42,0,0,0,0,0-.06a5.06,5.06,0,0,1,.08-4.68,9.44,9.44,0,0,1,2.3-1.94s26.24,20.2,37,37.73,22.85,18,29,33.89S213.12,399.4,216.34,402.42Z" />
        <path d="M86.28,332.93s4.18-.8,5.16-1.19l1-.38a166.63,166.63,0,0,1,21.49,18.45c9.52,10,17.27,22.05,19.65,31.25s5.51,40.5,5.51,40.5v10.23l-4.94,1.28s-2.64-22.16-5.89-28.86-21.48-23.91-31.41-27.29a71.48,71.48,0,0,1,13.61,2.6s-2.62-8.15-16-11.74c-13.93-3.6-14.88-7-14.88-7s7.75,2.48,10.2,2.38c-9.66-7-13.87-10.76-16.32-16,1.75-3.58,2.1-4.22,2.1-4.22l-5.2-1.61,4.11-2.12a37.56,37.56,0,0,1,10.45,3.43,75.57,75.57,0,0,0-10.61-6.41s2-1.32,8.26.61a44.92,44.92,0,0,1-6.34-6.59S84.43,333.5,86.28,332.93Z" />
        <path d="M59.47,376.5S77,394.1,91.37,399.94s31.31,31.77,31.31,31.77-1.07,7.16-6,8.21c-10.4-19-16.11-29.46-21.21-32.95-8.7-5.39-23.65-12.57-27.06-16.93S59.72,379.51,59.47,376.5Z" />
        <path d="M53.06,397s9.43,7.66,27.29,15.3,31,33.14,31,33.14-7.76-13.74-17.66-19.54c0,0,17.55,21.34,17.66,32.11-22.55,0-22.55-.44-22.55-.44s-16.83-20.5-28.36-34-16.32-28.1-18.68-35.24c7.76,15.49,22.65,27.65,37.14,37s19.9,17.15,19.9,17.15S86.47,426.6,73,418.35a70.35,70.35,0,0,1-20.55-19.1Z" />
        <path d="M47.41,424.18S52.35,429,55,438.66s2.3,16,2.3,16-6.66-11.4-9.84-14.74-1.68-6-1.65-6.12Z" />
        <path d="M90.32,383.86s7.61,5.42,22,11.68,17.47,24.59,18,31.47c-3-7.76-9.89-21.05-19-27.07S90.47,394.61,90.32,383.86Z" />
        <path d="M372.36,376.5s-14,17.6-28.43,23.44-17.59,31.77-17.59,31.77,1.07,7.16,6,8.21c10.4-19,2.38-29.46,7.49-32.95,8.7-5.39,20.18-12.57,23.59-16.93S372.12,379.51,372.36,376.5Z" />
        <path d="M378.77,397s-6,7.66-23.82,15.3-17.3,33.14-17.3,33.14-6-13.74,3.93-19.54c0,0-3.82,21.34-3.93,32.11,22.55,0,8.83-.44,8.83-.44s13.37-20.5,24.9-34,16.32-28.1,18.67-35.24c-7.75,15.49-19.18,27.65-33.67,37s-19.9,17.15-19.9,17.15,8.88-16,22.35-24.25a70.35,70.35,0,0,0,20.55-19.1Z" />
        <path d="M382.2,424.18s-4.94,4.79-7.54,14.48-2.3,16-2.3,16,6.65-11.4,9.84-14.74,1.67-6,1.65-6.12Z" />
        <path d="M345,383.86s6.11,5.42-8.31,11.68-17.47,24.59-18,31.47c2.95-7.76,9.89-21.05,19-27.07S344.83,394.61,345,383.86Z" />
        <path d="M211,421.31s2.79,21.84,2.89,26.34.2,10.4.2,10.4h7.95l-1.14-41.35Z" />
        <path d="M126.08,443.25s32.32-6.73,60.28-19.08,92.78-50.4,92.78-50.4l4.11,4.12s-42.1,30.34-73.36,43.43c23.13-12.72,30.2-20.82,30.2-20.82s-42.62,23.32-57,30.34S141.35,446,141.35,446s-8.86,2.58-11.95.73S126.08,443.25,126.08,443.25Z" />
        <path d="M138.11,382.26a84.59,84.59,0,0,1,9.21,18.24c3.26,9.63,5,14.53,5,14.53s9.45,8.69,12.31,8.7c-14.42,4.85-22.48,7.2-22.48,7.2s.92-14.27,1-20.2S141.91,387.54,138.11,382.26Z" />
        <path d="M265.47,329.94a28.65,28.65,0,0,1-7,15c-6.13,6.53-18.44,18.22-20.75,29.09a104.34,104.34,0,0,0-2.44,17.8l-6.19,3.45s3-19.5,7.06-28.47S249.2,349,253.49,346.05s8.43-7.84,9.46-11.32S265.47,329.94,265.47,329.94Z" />
        <path d="M114.57,318.81s4.1,4.32,15.77,11.13,13.17,11.38,13.17,11.38-14.83-8.83-22-11.38c11,10.29,20.95,14.86,27.34,35.11s.49,31.54,11.29,44.1c-14.71-13.6-22.2-30-29.4-40.88s-19.55-31.13-37.18-37.37C103.93,325.66,114.57,318.81,114.57,318.81Z" />
      </g>
      <path class="GUNDAN_GOAT_OUTFIT_GUNDAN_GOAT_OUTFIT_3_cls-8" d="M292.11,301.15a.65.65,0,0,0,.13-.08,10.35,10.35,0,0,1,2.67-1.2l.07,0c2.51-.66,6.32-.39,10.08,5.07" />
    </g>
  </g>
</svg>