<svg xmlns="http://www.w3.org/2000/svg" viewBox="0 0 432 432">
  <defs>
    <style>.GUNDAN_GOAT_OUTFIT_GUNDAN_GOAT_OUTFIT_28_cls-1{isolation:isolate;}.GUNDAN_GOAT_OUTFIT_GUNDAN_GOAT_OUTFIT_28_cls-2{fill:#331911;}.GUNDAN_GOAT_OUTFIT_GUNDAN_GOAT_OUTFIT_28_cls-3{fill:#9f3120;}.GUNDAN_GOAT_OUTFIT_GUNDAN_GOAT_OUTFIT_28_cls-4{fill:#3a312f;}.GUNDAN_GOAT_OUTFIT_GUNDAN_GOAT_OUTFIT_28_cls-5{fill:#070808;opacity:0.2;mix-blend-mode:multiply;}.GUNDAN_GOAT_OUTFIT_GUNDAN_GOAT_OUTFIT_28_cls-6{fill:#1a2053;}.GUNDAN_GOAT_OUTFIT_GUNDAN_GOAT_OUTFIT_28_cls-7{fill:#633c2e;}.GUNDAN_GOAT_OUTFIT_GUNDAN_GOAT_OUTFIT_28_cls-10,.GUNDAN_GOAT_OUTFIT_GUNDAN_GOAT_OUTFIT_28_cls-8,.GUNDAN_GOAT_OUTFIT_GUNDAN_GOAT_OUTFIT_28_cls-9{fill:none;stroke:#000;stroke-linecap:round;stroke-linejoin:round;}.GUNDAN_GOAT_OUTFIT_GUNDAN_GOAT_OUTFIT_28_cls-8{stroke-width:1.66px;}.GUNDAN_GOAT_OUTFIT_GUNDAN_GOAT_OUTFIT_28_cls-9{stroke-width:1.68px;}.GUNDAN_GOAT_OUTFIT_GUNDAN_GOAT_OUTFIT_28_cls-10{stroke-width:1.72px;}.GUNDAN_GOAT_OUTFIT_GUNDAN_GOAT_OUTFIT_28_cls-11{fill:#909187;}.GUNDAN_GOAT_OUTFIT_GUNDAN_GOAT_OUTFIT_28_cls-12{fill:#772f0e;}</style>
  </defs>
  <g class="GUNDAN_GOAT_OUTFIT_GUNDAN_GOAT_OUTFIT_28_cls-1">
    <g id="outfit">
      <path class="GUNDAN_GOAT_OUTFIT_GUNDAN_GOAT_OUTFIT_28_cls-2" d="M318.86,255.9H286.05l.38-.08,1.33-.31,2.63-.65,2-.55c1.08-.3,2.15-.61,3.22-.94.87-.26-4.07,1.22-3.22.94-1-6-2.75-18.61-2.75-18.61,9.7,1.44,27.2,7.08,28.29,8.22A100.1,100.1,0,0,1,318.86,255.9Z" />
      <path class="GUNDAN_GOAT_OUTFIT_GUNDAN_GOAT_OUTFIT_28_cls-2" d="M171.89,249.2v1.12H131.74a131.62,131.62,0,0,1-.78-14.24h0a42.77,42.77,0,0,1,12.85-6s14.59-3,21-3.54c-.81,5.12-4,17-4.48,19.25.52.17-5.62-1.46-5.08-1.31,2,.61,4,1.22,6.18,1.84l1.24.37c1.33.37,2.68.74,4.06,1.14.72.18,1.45.38,2.18.58l.49.13,2.26.59Z" />
      <path class="GUNDAN_GOAT_OUTFIT_GUNDAN_GOAT_OUTFIT_28_cls-3" d="M269.46,443.23h-8.54c-32.65-32.32-16.4-59.78-15.7-60.91l-.57-.29a17.22,17.22,0,0,0,8.06-.4l-3,4.78c-.59,1-14.27,24.08,16.1,53.33Z" />
      <path class="GUNDAN_GOAT_OUTFIT_GUNDAN_GOAT_OUTFIT_28_cls-4" d="M228.68,376.28a54.34,54.34,0,0,0-3.13,8.22A60.88,60.88,0,0,0,223.12,400c0,.62,0,1.25,0,1.89-47.28-.92-81.39-12.16-104.78-24.46-29.81-15.66-42.19-33.06-42.19-33.06a177.83,177.83,0,0,1,36.7-15.79L136.4,339c4,7.67,11.58,18.43,24.65,23.22C182.27,370,214,369.49,228.68,376.28Z" />
      <path class="GUNDAN_GOAT_OUTFIT_GUNDAN_GOAT_OUTFIT_28_cls-5" d="M228.68,376.28a54.34,54.34,0,0,0-3.13,8.22c-8.71-3.62-22.5-7.48-41.72-7.48C140.59,377,131,354.28,131,354.28s-11.57,8.12-12.64,23.17c-29.81-15.66-42.19-33.06-42.19-33.06a177.83,177.83,0,0,1,36.7-15.79L136.4,339c4,7.67,11.58,18.43,24.65,23.22C182.27,370,214,369.49,228.68,376.28Z" />
      <path class="GUNDAN_GOAT_OUTFIT_GUNDAN_GOAT_OUTFIT_28_cls-6" d="M364.82,380.13A4.16,4.16,0,0,0,369,382a43.83,43.83,0,0,1-8.59,1.12,5.21,5.21,0,0,1-4.42-2.2c-9.1-12.76-30.52-33.43-31.12-34a55.12,55.12,0,0,0,5-4.4S354.41,364.05,364.82,380.13Z" />
      <path class="GUNDAN_GOAT_OUTFIT_GUNDAN_GOAT_OUTFIT_28_cls-3" d="M364.82,380.13A4.16,4.16,0,0,0,369,382a43.83,43.83,0,0,1-8.59,1.12,5.21,5.21,0,0,1-4.42-2.2c-9.1-12.76-30.52-33.43-31.12-34a55.12,55.12,0,0,0,5-4.4S354.41,364.05,364.82,380.13Z" />
      <path class="GUNDAN_GOAT_OUTFIT_GUNDAN_GOAT_OUTFIT_28_cls-5" d="M364.82,380.13A4.16,4.16,0,0,0,369,382a43.83,43.83,0,0,1-8.59,1.12,5.21,5.21,0,0,1-4.42-2.2c-9.1-12.76-30.52-33.43-31.12-34a55.12,55.12,0,0,0,5-4.4S354.41,364.05,364.82,380.13Z" />
      <path class="GUNDAN_GOAT_OUTFIT_GUNDAN_GOAT_OUTFIT_28_cls-7" d="M356.84,443.23H269.46l-3.62-3.49c-30.37-29.25-16.69-52.37-16.1-53.33l3-4.78a13.82,13.82,0,0,0,5.77-3.72l4-8.82a16.21,16.21,0,0,0,.2-2.66,175.44,175.44,0,0,0,29.38-4.67c.9,3.8,11.53,44.21,62.28,71.48l1.56.73.24.11c-.06,2.45-.08,6.76.66,8.66,0,0-.08,0,0,0Z" />
      <path class="GUNDAN_GOAT_OUTFIT_GUNDAN_GOAT_OUTFIT_28_cls-7" d="M275.42,276.25c-.24,4.29-.66,9.19-1.37,14.54a55.39,55.39,0,0,1-12.86-2,6.18,6.18,0,0,0,0-7.41c-2.07-3.19-.46-5.38,1.63-7A77,77,0,0,0,275.42,276.25Z" />
      <path class="GUNDAN_GOAT_OUTFIT_GUNDAN_GOAT_OUTFIT_28_cls-7" d="M286.49,275.57c1,1.68,1.27,3.59-.69,5.72-2.85,3.08-2.24,6.37-.05,9.19a74.18,74.18,0,0,1-11.7.31c.71-5.35,1.13-10.25,1.37-14.54C282.73,276.68,286.49,275.57,286.49,275.57Z" />
      <path class="GUNDAN_GOAT_OUTFIT_GUNDAN_GOAT_OUTFIT_28_cls-7" d="M262.72,366.43a16.21,16.21,0,0,1-.2,2.66c-22.93-10.87-61.75-31.76-92-48.36-24.73-13.57-43.76-24.27-43.76-24.27l9.76-16.69h0l22.25,13c8.39-1.37,21.4-1.6,33,6.2.48.32,1,.66,1.44,1,18.54,13.12,36.79,38.6,50.62,46a75.73,75.73,0,0,1,9.8,6.07,29.51,29.51,0,0,1,5.94,5.66,15.91,15.91,0,0,1,2.23,3.93A13.56,13.56,0,0,1,262.72,366.43Z" />
      <path class="GUNDAN_GOAT_OUTFIT_GUNDAN_GOAT_OUTFIT_28_cls-7" d="M245.22,382.32c-.7,1.13-16.95,28.59,15.7,60.91H245c-13.51-16.88-16.36-32.34-16.1-43.05A52,52,0,0,1,234,378.72,46.41,46.41,0,0,0,244.64,382h0Z" />
      <path class="GUNDAN_GOAT_OUTFIT_GUNDAN_GOAT_OUTFIT_28_cls-8" d="M245.22,382.32c-.7,1.13-16.95,28.59,15.7,60.91H245c-13.51-16.88-16.36-32.34-16.1-43.05A52,52,0,0,1,234,378.72,46.41,46.41,0,0,0,244.64,382h0Z" />
      <path class="GUNDAN_GOAT_OUTFIT_GUNDAN_GOAT_OUTFIT_28_cls-7" d="M256.34,279.82c3.29,3.36,2,7.27-1.65,10.44s-1.92,7-.4,10.3c3.77,8.18-5.46,10-.23,14.12-.75-1.75.66-3.79,2.06-5.67h0a53.26,53.26,0,0,0,13.81,2.89c-.56,2.2-1.18,4.44-1.85,6.69l-.45,1.48-.57,1.8c-.25.77-.5,1.55-.78,2.33s-.44,1.29-.67,1.94c-.35,1-.73,2.05-1.12,3.09-.31.84-.64,1.68-1,2.53s-.67,1.68-1,2.53-.62,1.48-.94,2.22c-.17.4-.36.81-.55,1.22-.29.68-.6,1.37-.91,2-.56,1.2-1.13,2.39-1.74,3.58-.48,1-1,2-1.51,3l-.32.61c0,.05,0,.1-.08.14-.38.72-.76,1.42-1.15,2.13-.54,1-1.08,1.91-1.65,2.86a74.34,74.34,0,0,0-9.78-6.06h0l-.65-.37h0l-.65-.37,0,0-.54-.33a.71.71,0,0,1-.14-.1h0l-.13-.08-.36-.23-.18-.12-.46-.31-.12-.08-.54-.39-.18-.13a.24.24,0,0,1-.09-.06l-.32-.23-.38-.29-.35-.26,0,0-.38-.29c-.16-.14-.33-.26-.5-.4l-.16-.13,0,0-.45-.36h0l-.22-.19-.19-.16-.25-.2-.3-.24-.21-.19,0,0-.47-.4-.49-.42-.13-.12-.05,0-.07-.06-.49-.43c-.11-.1-.22-.21-.35-.31l-.3-.28c-.12-.1-.24-.22-.36-.33l-.56-.51-.3-.28-.3-.28h0l0,0a1.66,1.66,0,0,1-.18-.19l-.14-.12-.43-.39-.21-.21-.13-.12c-.51-.49-1-1-1.55-1.51-.25-.23-.52-.49-.77-.74l-.27-.27-.24-.24c-.32-.33-.67-.66-1-1s-.5-.52-.77-.78L226,331c-.17-.18-.35-.35-.52-.54l-.4-.39L225,330h0l-.3-.31h0l-.4-.42c-.18-.2-.37-.38-.57-.58l-.23-.24a2.42,2.42,0,0,1-.27-.28l-.41-.42-.11-.11-1-1-.47-.49a2.28,2.28,0,0,0-.22-.22c-.05-.05-.1-.12-.16-.17l-.44-.46a.63.63,0,0,0-.11-.12l-.09-.09-.4-.41-.23-.24c-.29-.3-.58-.62-.89-.92l-.78-.81-.84-.87-.09-.1q-2.17-2.26-4.42-4.53l-.54-.54c-.47-.49-.95-1-1.42-1.43-.09-.08-.17-.17-.25-.25l-1.7-1.67-.25-.24c-.61-.62-1.23-1.22-1.85-1.8l-.65-.62c-.46-.43-.92-.87-1.38-1.28l-.54-.51,0,0c-.15-.14-.3-.28-.45-.4a2.61,2.61,0,0,0-.25-.23c-.28-.27-.57-.53-.87-.8l-.57-.5-.07-.06h0c-.09-.08-.18-.15-.27-.24l-1-.86,0,0-1-.87-.2-.17-.8-.67,0,0c-.32-.27-.64-.52-1-.77a.18.18,0,0,0-.07-.05c-.23-.2-.46-.38-.69-.56,0,0,0,0,0,0a3.92,3.92,0,0,0-.32-.25c-.47-.38-.93-.74-1.41-1.09h0c-.22-.18-.45-.34-.68-.51s-.66-.48-1-.71l-.06,0c-.21-.16-.42-.31-.65-.46l-.07-.05-.72-.5-.76-.49-.07,0-.06,0-.63-.39-.26-.16-.05,0c-.45-.27-.9-.54-1.37-.77s-.89-.48-1.34-.71h0l-.5-.24-1-.45,0,0-.08,0a2.12,2.12,0,0,0-.31-.14l-.76-.32-.21-.08-.18-.07h0l-.27-.11-.5-.18a1,1,0,0,0-.19-.08l-.32-.11-.07,0-1-.32c-.15-.05-.3-.11-.46-.15l-.31-.09-.45-.14-.07,0a.07.07,0,0,0-.06,0l-.07,0-.2-.05-.44-.12h0l-.22-.07-.09,0-.07,0-.61-.14-.17,0-.79-.18-.11,0-.21-.05L177,293l-.48-.08h-.11l-.08,0-.32-.05-.21,0-.25,0a.52.52,0,0,0-.21,0l-.17,0-.22,0h-.16l-.14,0h0l-.2,0h-.11l-.3,0h-.1l-.36,0h-.07l-.21,0-.26,0h-.1l-.17,0-.22,0-.27,0-.31,0-.25,0-.27,0h-.18l-.76-.05h-.23l-.51,0h-.18l-.42,0h-2.91l-1.34.06h-.13l-.81,0-.95.07h0c-.39,0-.77.07-1.13.12-.72.07-1.41.15-2.08.25l-1,.16-1.6-.94-.29-.17h0l-20.35-11.92h0a246.1,246.1,0,0,1-4.77-29.45,131.62,131.62,0,0,1-.78-14.24s4.49,1.84,12.23,4.5l1.94.66,1.72.57,2,.65,1.7.55,1.47.47,1.11.35.57.17c.53.17,1,.34,1.59.49,2,.61,4,1.22,6.18,1.84l1.24.37c1.33.37,2.68.74,4.06,1.14.72.18,1.45.38,2.18.58l.49.13,2.26.59.21.06.87.22c.77.21,1.55.4,2.34.6l3.55.87c1.29.31,2.6.62,3.93.92.9.21,1.81.42,2.73.61l1.7.38c1.59.34,3.22.68,4.86,1l3.92.77c1.19.22,2.4.45,3.61.66l.21,0c1.31.24,2.63.47,4,.68l1.33.22,2.69.43,1,.15q2.82.42,5.68.8t5.63.68h.13c5.8.65,11.7,1.12,17.65,1.37,2,.09,4,.16,6,.19a206.3,206.3,0,0,0,21.39-.71c3.46-.31,6.91-.71,10.33-1.22a128,128,0,0,1,.21,14.18,48.38,48.38,0,0,1-10-1.4c-.19-2.3-2.77-4.88-7.67-3.09C250.92,270.14,253,276.47,256.34,279.82Z" />
      <path class="GUNDAN_GOAT_OUTFIT_GUNDAN_GOAT_OUTFIT_28_cls-5" d="M256.84,346.33l-.32.61c0,.05,0,.1-.08.14-.38.72-.76,1.42-1.15,2.13-.54,1-1.08,1.91-1.65,2.86a74.34,74.34,0,0,0-9.78-6.06h0l-.65-.37h0l-.65-.37,0,0-.54-.33a.71.71,0,0,1-.14-.1h0l-.13-.08-.36-.23-.18-.12-.46-.31-.12-.08-.54-.39-.18-.13a.24.24,0,0,1-.09-.06l-.32-.23-.38-.29-.35-.26,0,0-.38-.29c-.16-.14-.33-.26-.5-.4l-.16-.13,0,0-.45-.36h0l-.22-.19-.19-.16-.25-.2-.3-.24-.21-.19,0,0-.47-.4-.49-.42-.13-.12-.05,0-.07-.06-.49-.43c-.11-.1-.22-.21-.35-.31l-.3-.28c-.12-.1-.24-.22-.36-.33l-.56-.51-.3-.28-.3-.28h0l0,0a1.66,1.66,0,0,1-.18-.19l-.14-.12-.43-.39-.21-.21-.13-.12c-.51-.49-1-1-1.55-1.51-.25-.23-.52-.49-.77-.74l-.27-.27-.24-.24c-.32-.33-.67-.66-1-1s-.5-.52-.77-.78L226,331c-.17-.18-.35-.35-.52-.54l-.4-.39L225,330h0l-.3-.31h0l-.4-.42c-.18-.2-.37-.38-.57-.58l-.23-.24a2.42,2.42,0,0,1-.27-.28l-.41-.42-.11-.11-1-1-.47-.49a2.28,2.28,0,0,0-.22-.22c-.05-.05-.1-.12-.16-.17l-.44-.46a.63.63,0,0,0-.11-.12l-.09-.09-.4-.41-.23-.24c-.29-.3-.58-.62-.89-.92l-.78-.81-.84-.87-.09-.1q-2.17-2.26-4.42-4.53l-.54-.54c-.47-.49-.95-1-1.42-1.43-.09-.08-.17-.17-.25-.25l-1.7-1.67-.25-.24c-.61-.62-1.23-1.22-1.85-1.8l-.65-.62c-.46-.43-.92-.87-1.38-1.28l-.54-.51,0,0c-.15-.14-.3-.28-.45-.4a2.61,2.61,0,0,0-.25-.23c-.28-.27-.57-.53-.87-.8l-.57-.5-.07-.06h0c-.09-.08-.18-.15-.27-.24l-1-.86,0,0-1-.87-.2-.17-.8-.67,0,0c-.32-.27-.64-.52-1-.77a.18.18,0,0,0-.07-.05c-.23-.2-.46-.38-.69-.56,0,0,0,0,0,0a3.92,3.92,0,0,0-.32-.25c-.47-.38-.93-.74-1.41-1.09h0c-.22-.18-.45-.34-.68-.51s-.66-.48-1-.71l-.06,0c-.21-.16-.42-.31-.65-.46l-.07-.05-.72-.5-.76-.49-.07,0-.06,0-.63-.39-.26-.16-.05,0c-.45-.27-.9-.54-1.37-.77s-.89-.48-1.34-.71h0l-.5-.24-1-.45,0,0-.08,0a2.12,2.12,0,0,0-.31-.14l-.76-.32-.21-.08-.18-.07h0l-.27-.11-.5-.18a1,1,0,0,0-.19-.08l-.32-.11-.07,0-1-.32c-.15-.05-.3-.11-.46-.15l-.31-.09-.45-.14-.07,0a.07.07,0,0,0-.06,0l-.07,0-.2-.05-.44-.12h0l-.22-.07-.09,0-.07,0-.61-.14-.17,0-.79-.18-.11,0-.21-.05L177,293l-.48-.08h-.11l-.08,0-.32-.05-.21,0-.25,0a.52.52,0,0,0-.21,0l-.17,0-.22,0h-.16l-.14,0h0l-.2,0h-.11l-.3,0h-.1l-.36,0h-.07l-.21,0-.26,0h-.1l-.17,0-.22,0-.27,0-.31,0-.25,0-.27,0h-.18l-.76-.05h-.23l-.51,0h-.18l-.42,0h-2.91l-1.34.06h-.13l-.81,0-.95.07h0c-.39,0-.77.07-1.13.12-.72.07-1.41.15-2.08.25l-1,.16-1.6-.94-.29-.17h0l-20.35-11.92h0a246.1,246.1,0,0,1-4.77-29.45,131.62,131.62,0,0,1-.78-14.24s4.49,1.84,12.23,4.5l1.94.66,1.72.57,2,.65,1.7.55,1.47.47,1.11.35.57.17c.53.17,1,.34,1.59.49,2,.61,4,1.22,6.18,1.84l1.24.37c1.33.37,2.68.74,4.06,1.14.72.18,1.45.38,2.18.58l.49.13,2.26.59.21.06.87.22c.77.21,1.55.4,2.34.6l3.55.87c1.29.31,2.6.62,3.93.92a123.58,123.58,0,0,0-.18,13.85c.33,7.76,1.48,17.3,4.68,25.59a42.72,42.72,0,0,0,3.06,6.39c2.63,1.08,5.1,2.15,7.43,3.22l.05,0c2.38,1.07,4.61,2.15,6.72,3.23,3.13,1.58,6,3.18,8.56,4.77,1.71,1.06,3.31,2.11,4.81,3.19a64.6,64.6,0,0,1,5.76,4.63,48.06,48.06,0,0,1,4.77,5c1,1.19,1.87,2.39,2.7,3.62s1.38,2.19,2,3.31a21.2,21.2,0,0,0,2.78,3.94,35.85,35.85,0,0,0,5.08,4.74,52.5,52.5,0,0,0,4.86,3.34,81.29,81.29,0,0,0,11.18,5.7Z" />
      <path class="GUNDAN_GOAT_OUTFIT_GUNDAN_GOAT_OUTFIT_28_cls-3" d="M237.59,443.23h-55c-28.13-3.14-51-9.11-69.57-16.34a195.29,195.29,0,0,1-25-11.77A152.31,152.31,0,0,1,60.84,395.7c-15.53-14-20.79-25.55-20.79-25.55s2.46-2.35,7-6c0,0,12.72,22.47,48.1,42.46h0c29,16.39,73.3,31.09,138.34,30.31C234.67,439,236.06,441.11,237.59,443.23Z" />
      <path class="GUNDAN_GOAT_OUTFIT_GUNDAN_GOAT_OUTFIT_28_cls-5" d="M95.1,406.62c-6.91.87-7,8.5-7,8.5A152.31,152.31,0,0,1,60.84,395.7c-15.53-14-20.79-25.55-20.79-25.55s2.46-2.35,7-6C47,364.16,59.72,386.63,95.1,406.62Z" />
      <path class="GUNDAN_GOAT_OUTFIT_GUNDAN_GOAT_OUTFIT_28_cls-4" d="M356.84,428.48c-50.61-27.2-59.64-68.14-59.64-68.14,9.95-3,19.75-7.27,27.7-13.49h0c.6.6,22,21.27,31.12,34a5.21,5.21,0,0,0,4.42,2.2A43.83,43.83,0,0,0,369,382h0l.5-.13a1,1,0,0,0,.18-.06,22.8,22.8,0,0,0,5.8-3s18.84,31.68,18.84,64.51c-33.5,0-37.26-.34-37.57-.46v0c-.74-1.9-.72-6.21-.66-8.66l-.24-.11C356.27,432.31,356.58,430.47,356.84,428.48Z" />
      <path class="GUNDAN_GOAT_OUTFIT_GUNDAN_GOAT_OUTFIT_28_cls-3" d="M228.89,400.18c-.26,10.71,2.59,26.17,16.1,43.05h-7.4c-1.53-2.12-2.92-4.23-4.14-6.3-8-13.42-10.29-25.65-10.35-35,0-.64,0-1.27,0-1.89a59,59,0,0,1,5.56-23.74l.48.22c1.69.82,3.3,1.57,4.84,2.22A52,52,0,0,0,228.89,400.18Z" />
      <path class="GUNDAN_GOAT_OUTFIT_GUNDAN_GOAT_OUTFIT_28_cls-3" d="M258.13,306.06a69.14,69.14,0,0,0,12.72,2.19,60.3,60.3,0,0,0,14.57-.42c.48,1,1.07,2,1.53,3.07a57.84,57.84,0,0,1-17,1A53.23,53.23,0,0,1,256.13,309h0a19,19,0,0,0,2-2.94Z" />
      <path class="GUNDAN_GOAT_OUTFIT_GUNDAN_GOAT_OUTFIT_28_cls-7" d="M284.6,305.35a6.63,6.63,0,0,0,.82,2.48,60.3,60.3,0,0,1-14.57.42c1-4.46,1.87-8.78,2.53-12.88a48.68,48.68,0,0,0,15.2-1.42c.89,1.64.42,2.84-.89,4.43C285.82,300.62,284.51,302.83,284.6,305.35Z" />
      <path class="GUNDAN_GOAT_OUTFIT_GUNDAN_GOAT_OUTFIT_28_cls-3" d="M262.52,369.09l-4,8.82c-22.41-12.29-62.44-31.59-93.7-46.38-25.2-11.92-44.7-20.89-44.7-20.89s-2.49-11.35,6.67-14.18c0,0,19,10.7,43.76,24.27C200.77,337.33,239.59,358.22,262.52,369.09Z" />
      <path class="GUNDAN_GOAT_OUTFIT_GUNDAN_GOAT_OUTFIT_28_cls-5" d="M165.09,331.12l-.31.41c-25.2-11.92-44.7-20.89-44.7-20.89s-2.49-11.35,6.67-14.18c0,0,19,10.7,43.76,24.27C163.94,321.84,165.09,331.12,165.09,331.12Z" />
      <path class="GUNDAN_GOAT_OUTFIT_GUNDAN_GOAT_OUTFIT_28_cls-7" d="M310.56,295a39.49,39.49,0,0,1,14.34,7.6c-15.75,24.6-48.16,45.32-65.32,55.11a29.51,29.51,0,0,0-5.94-5.66C264.75,346.19,295.61,327.52,310.56,295Z" />
      <path class="GUNDAN_GOAT_OUTFIT_GUNDAN_GOAT_OUTFIT_28_cls-7" d="M273.38,295.37c-.66,4.1-1.49,8.42-2.53,12.88a69.14,69.14,0,0,1-12.72-2.19h0a3,3,0,0,0,.27-.76c.5-2.47-.42-4.87-1.88-7.4-1.24-2.13-1.37-3.5.63-5.36A69.49,69.49,0,0,0,273.38,295.37Z" />
      <path class="GUNDAN_GOAT_OUTFIT_GUNDAN_GOAT_OUTFIT_28_cls-3" d="M354.38,433.24C303.63,406,293,365.56,292.1,361.76c1.69-.44,3.4-.91,5.1-1.42,0,0,9,40.94,59.64,68.14-.26,2-.57,3.83-.9,5.49Z" />
      <path class="GUNDAN_GOAT_OUTFIT_GUNDAN_GOAT_OUTFIT_28_cls-7" d="M335.23,318a27,27,0,0,1,1,9.93,31,31,0,0,1-3.3,11.17c-1,1.15-2,2.27-3,3.33a55.12,55.12,0,0,1-5,4.4h0c-7.95,6.22-17.75,10.51-27.7,13.49-1.7.51-3.41,1-5.1,1.42a175.44,175.44,0,0,1-29.38,4.67,13.56,13.56,0,0,0-.91-4.77C295.39,355.22,320.76,341.22,335.23,318Z" />
      <path class="GUNDAN_GOAT_OUTFIT_GUNDAN_GOAT_OUTFIT_28_cls-7" d="M318.86,255.9a90.25,90.25,0,0,1-8.3,39.12c-14.95,32.5-45.81,51.17-56.92,57.05a154.78,154.78,0,0,0,16.3-40.17,57.53,57.53,0,0,0,17-1c.73,1.63,1.15,3.22.37,4.43,5.82-3.11-3-6.54,2.12-13.95,2-3,4.34-6.47,1.29-10.22s-3.7-7.84.11-10.57,6.93-8.62.46-12.34c-5.61-3.24-8.84.74-8.06,3.3a35.74,35.74,0,0,1-7.63.51,128,128,0,0,0-.21-14.18c1-.14,1.94-.3,2.92-.47s1.94-.33,2.9-.51,1.85-.36,2.77-.55c.69-.15,1.38-.29,2.05-.45h0l.38-.08,1.33-.31,2.63-.65,2-.55c1.08-.3,2.15-.61,3.22-.94.87-.26,1.73-.53,2.59-.82l.19-.06c.83-.27,1.66-.56,2.47-.85s1.76-.64,2.63-1A107.08,107.08,0,0,0,318,243.92,100.1,100.1,0,0,1,318.86,255.9Z" />
      <path class="GUNDAN_GOAT_OUTFIT_GUNDAN_GOAT_OUTFIT_28_cls-3" d="M262.81,274.35c-2.09,1.64-3.7,3.83-1.63,7a6.18,6.18,0,0,1,0,7.41,11.27,11.27,0,0,1-2.66,2.63c-.54.4-1,.78-1.39,1.13-2,1.86-1.87,3.23-.63,5.36,1.46,2.53,2.38,4.93,1.88,7.4a3,3,0,0,1-.27.76,19,19,0,0,1-2,2.94c-1.4,1.89-2.8,3.93-2.06,5.68-5.23-4.08,4-5.94.23-14.12-1.52-3.28-3.22-7.12.4-10.3s4.94-7.09,1.64-10.44-5.41-9.68,1.58-12.24c4.9-1.8,7.49.78,7.68,3.08a2.61,2.61,0,0,1-1.07,2.48C264,273.51,263.37,273.91,262.81,274.35Z" />
      <path class="GUNDAN_GOAT_OUTFIT_GUNDAN_GOAT_OUTFIT_28_cls-3" d="M290.73,291.16c3,3.75.73,7.25-1.29,10.22-5.08,7.41,3.7,10.84-2.12,13.95.78-1.21.36-2.8-.37-4.43-.46-1-1.05-2.1-1.53-3.07a6.63,6.63,0,0,1-.82-2.48c-.09-2.52,1.22-4.73,3.09-7,1.31-1.59,1.78-2.79.89-4.43a11.06,11.06,0,0,0-1.83-2.32,13.27,13.27,0,0,1-1-1.15c-2.19-2.82-2.8-6.11.05-9.19,2-2.13,1.71-4,.69-5.72a14.87,14.87,0,0,0-2.62-3,2.2,2.2,0,0,1-.63-1c-.78-2.55,2.45-6.55,8.06-3.3,6.47,3.72,3.35,9.6-.46,12.34S287.71,287.41,290.73,291.16Z" />
      <path class="GUNDAN_GOAT_OUTFIT_GUNDAN_GOAT_OUTFIT_28_cls-7" d="M233.45,436.93c-65,.78-109.31-13.92-138.34-30.31h0c-35.38-20-48.1-42.46-48.1-42.46a211.5,211.5,0,0,1,29.13-19.77s12.38,17.4,42.19,33.06c23.39,12.3,57.5,23.54,104.78,24.46C223.17,411.28,225.42,423.51,233.45,436.93Z" />
      <path class="GUNDAN_GOAT_OUTFIT_GUNDAN_GOAT_OUTFIT_28_cls-5" d="M118.32,377.45c0,.15,0,.3,0,.46-7.09.89-24.72,18.69-23.17,28.71h0c-35.38-20-48.1-42.46-48.1-42.46a211.5,211.5,0,0,1,29.13-19.77S88.51,361.79,118.32,377.45Z" />
      <path class="GUNDAN_GOAT_OUTFIT_GUNDAN_GOAT_OUTFIT_28_cls-7" d="M258.48,377.91a13.82,13.82,0,0,1-5.77,3.72,17.22,17.22,0,0,1-8.06.4h0A46.41,46.41,0,0,1,234,378.72c-1.54-.65-3.15-1.4-4.84-2.22l-.48-.22c-14.2-6.58-44.42-6.35-65.59-13.39-.69-.24-1.37-.47-2-.72C148,357.38,140.36,346.62,136.4,339L112.83,328.6l7.25-18s19.5,9,44.7,20.89C196,346.32,236.07,365.62,258.48,377.91Z" />
      <path class="GUNDAN_GOAT_OUTFIT_GUNDAN_GOAT_OUTFIT_28_cls-5" d="M163.39,362.8l-.3.09c-.69-.24-1.37-.47-2-.72C148,357.38,140.36,346.62,136.4,339L112.83,328.6l7.25-18s19.5,9,44.7,20.89C162.8,334.15,152.59,349,163.39,362.8Z" />
      <path class="GUNDAN_GOAT_OUTFIT_GUNDAN_GOAT_OUTFIT_28_cls-5" d="M193.22,300c-17.65-3.94-25.74,13.23-22.71,20.72-24.73-13.57-43.76-24.27-43.76-24.27l9.76-16.69h0l22.25,13c8.39-1.37,21.4-1.6,33,6.2C192.26,299.33,192.74,299.67,193.22,300Z" />
      <path class="GUNDAN_GOAT_OUTFIT_GUNDAN_GOAT_OUTFIT_28_cls-4" d="M60.84,395.7c-.87,2-1.65,4.12-2.34,6.21-16.2-10.67-18.45-31.76-18.45-31.76S45.31,381.66,60.84,395.7Z" />
      <path class="GUNDAN_GOAT_OUTFIT_GUNDAN_GOAT_OUTFIT_28_cls-5" d="M60.84,395.7c-.87,2-1.65,4.12-2.34,6.21-16.2-10.67-18.45-31.76-18.45-31.76S45.31,381.66,60.84,395.7Z" />
      <path class="GUNDAN_GOAT_OUTFIT_GUNDAN_GOAT_OUTFIT_28_cls-3" d="M283.87,272.59a14.87,14.87,0,0,1,2.62,3s-3.76,1.11-11.07.68a77,77,0,0,1-12.61-1.9c.56-.44,1.15-.84,1.71-1.21a2.61,2.61,0,0,0,1.07-2.48,48.53,48.53,0,0,0,10,1.4,35.74,35.74,0,0,0,7.63-.51A2.2,2.2,0,0,0,283.87,272.59Z" />
      <path class="GUNDAN_GOAT_OUTFIT_GUNDAN_GOAT_OUTFIT_28_cls-3" d="M377.79,372.06a4.33,4.33,0,0,1-.84,5.58c-.41.35-.86.71-1.38,1.08a22.8,22.8,0,0,1-5.8,3,1,1,0,0,1-.18.06l-.5.13h0a4.16,4.16,0,0,1-4.22-1.83c-10.41-16.08-34.93-37.68-34.93-37.68,1.06-1.06,2.06-2.18,3-3.33a31,31,0,0,0,3.3-11.17C356.5,339.64,372.63,363.73,377.79,372.06Z" />
      <path class="GUNDAN_GOAT_OUTFIT_GUNDAN_GOAT_OUTFIT_28_cls-3" d="M286.75,291.63a11.06,11.06,0,0,1,1.83,2.32,48.68,48.68,0,0,1-15.2,1.42,69.49,69.49,0,0,1-16.24-2.83c.39-.35.85-.73,1.39-1.13a11.27,11.27,0,0,0,2.66-2.63,55.39,55.39,0,0,0,12.86,2,74.18,74.18,0,0,0,11.7-.31A13.27,13.27,0,0,0,286.75,291.63Z" />
      <path class="GUNDAN_GOAT_OUTFIT_GUNDAN_GOAT_OUTFIT_28_cls-7" d="M182.6,443.23h-66s0-.16-.16-.48-.13-.38-.21-.64l-.06-.15a82.52,82.52,0,0,1-2.49-10.65v0c-.22-1.37-.43-2.85-.6-4.39l.28.1q5.68,2.22,11.94,4.25A288.9,288.9,0,0,0,182.6,443.23Z" />
      <path class="GUNDAN_GOAT_OUTFIT_GUNDAN_GOAT_OUTFIT_28_cls-3" d="M324.9,302.62c9.56.18,13.37,9.46,10.34,15.39h0c-14.47,23.2-39.84,37.2-73.42,43.64a15.91,15.91,0,0,0-2.23-3.93C276.74,347.94,309.15,327.22,324.9,302.62Z" />
      <path class="GUNDAN_GOAT_OUTFIT_GUNDAN_GOAT_OUTFIT_28_cls-7" d="M116.55,443.23H52.45l-4.78-.44s-2.18-14.54,4.4-34.34c.55-1.67,2.43-10.16,3.61-14.55a4.31,4.31,0,0,0,1.8-1.3c7.54,6.81,20.62,17.11,33.75,24.26l1.27.68h0A196.2,196.2,0,0,0,113,426.89c.17,1.54.38,3,.6,4.4v0A80.82,80.82,0,0,0,116.12,442a1.31,1.31,0,0,0,0,.15c.09.26.16.47.21.64S116.55,443.23,116.55,443.23Z" />
      <path class="GUNDAN_GOAT_OUTFIT_GUNDAN_GOAT_OUTFIT_28_cls-5" d="M95.53,443.23H52.45l-4.78-.44s-2.18-14.54,4.4-34.34c.55-1.67,2.43-10.16,3.61-14.55a23.91,23.91,0,0,1,.73-2.39C64,398.31,78,409.64,91.23,416.86l1.27.68C91.65,420.68,88.16,435.18,95.53,443.23Z" />
      <path class="GUNDAN_GOAT_OUTFIT_GUNDAN_GOAT_OUTFIT_28_cls-5" d="M127.32,443.23H116.49c-.09-.34-.21-.71-.31-1.12l-.06-.15a76.23,76.23,0,0,1-2.81-15q5.68,2.22,11.94,4.25A19.89,19.89,0,0,0,127.32,443.23Z" />
      <path class="GUNDAN_GOAT_OUTFIT_GUNDAN_GOAT_OUTFIT_28_cls-9" d="M113,426.89c.17,1.54.38,3,.6,4.39v0a77.18,77.18,0,0,0,2.76,11.44c.11.32.16.48.16.48" />
      <path class="GUNDAN_GOAT_OUTFIT_GUNDAN_GOAT_OUTFIT_28_cls-9" d="M353.67,442.75c.27-.8.82-2.54,1.43-5,.27-1.12.56-2.38.84-3.78.33-1.66.64-3.5.9-5.49,1.12-8.57,1.25-19.83-2.54-31h0a52.65,52.65,0,0,0-6-12.23,2.61,2.61,0,0,0-.2-.3" />
      <path class="GUNDAN_GOAT_OUTFIT_GUNDAN_GOAT_OUTFIT_28_cls-9" d="M356.6,406.62a16.69,16.69,0,0,1,.55-2.71,30.2,30.2,0,0,1,4.79-9.06" />
      <path class="GUNDAN_GOAT_OUTFIT_GUNDAN_GOAT_OUTFIT_28_cls-9" d="M375.57,378.72s18.84,31.68,18.84,64.51c-33.5,0-37.26-.34-37.57-.46-.08,0,0,0,0,0-.74-1.9-.72-6.21-.66-8.66,0-1.07.07-1.78.07-1.78" />
      <path class="GUNDAN_GOAT_OUTFIT_GUNDAN_GOAT_OUTFIT_28_cls-10" d="M269.46,443.23l-3.62-3.49c-30.37-29.25-16.69-52.37-16.1-53.33l3-4.78" />
      <path class="GUNDAN_GOAT_OUTFIT_GUNDAN_GOAT_OUTFIT_28_cls-10" d="M228.68,376.28A59,59,0,0,0,223.12,400c0,.62,0,1.25,0,1.89.06,9.37,2.32,21.6,10.35,35,1.22,2.07,2.61,4.18,4.14,6.3" />
      <path class="GUNDAN_GOAT_OUTFIT_GUNDAN_GOAT_OUTFIT_28_cls-10" d="M245,443.23c-13.51-16.88-16.36-32.34-16.1-43.05A52,52,0,0,1,234,378.72" />
      <path class="GUNDAN_GOAT_OUTFIT_GUNDAN_GOAT_OUTFIT_28_cls-10" d="M244.65,382l.57.29c-.7,1.13-16.95,28.59,15.7,60.91" />
      <path class="GUNDAN_GOAT_OUTFIT_GUNDAN_GOAT_OUTFIT_28_cls-9" d="M76.13,344.39s39.43,55.42,147,57.52" />
      <path class="GUNDAN_GOAT_OUTFIT_GUNDAN_GOAT_OUTFIT_28_cls-8" d="M153.68,244l-.57-.17-1.11-.35-1.47-.47-1.7-.55-2-.65-1.72-.57-1.94-.66c-7.74-2.66-12.23-4.5-12.23-4.5h0a42.77,42.77,0,0,1,12.85-6s12.91-3.54,21-3.54c0,0-2.8,12.29-5.21,19.25" />
      <path class="GUNDAN_GOAT_OUTFIT_GUNDAN_GOAT_OUTFIT_28_cls-8" d="M292.43,254.31c-1-9.32-2.75-18.61-2.75-18.61,19.51,3.16,27.2,7.08,28.29,8.22a107.08,107.08,0,0,1-14.44,6.75c-.86.33-1.75.66-2.63,1s-1.64.58-2.47.85l-.19.06c-.86.28-1.72.56-2.59.82-1.07.33-2.14.64-3.22.94l-2,.55-2.63.65-1.33.31-.38.08h0c-.67.16-1.36.3-2.05.45l-2.77.55c-1,.18-1.93.36-2.9.51s-1.94.33-2.92.47c-3.42.51-6.87.91-10.33,1.22a206.3,206.3,0,0,1-21.39.71c-2,0-4-.11-6-.19-5.95-.26-11.85-.74-17.65-1.37H220c-1.88-.21-3.77-.44-5.63-.68s-3.8-.52-5.68-.8l-1-.15-2.69-.43-1.33-.22-4-.68-.21,0-3.61-.66-3.92-.77c-1.64-.33-3.26-.67-4.86-1l-1.7-.38q-3.41-.75-6.66-1.53L175.1,250l-2.34-.6-.87-.22-.21-.06-2.26-.59-.49-.13c-.73-.2-1.46-.4-2.18-.58-1.38-.4-2.73-.77-4.06-1.14l-1.24-.37c-2.15-.62-4.22-1.23-6.18-1.84-.54-.15-1.06-.32-1.59-.49" />
      <path class="GUNDAN_GOAT_OUTFIT_GUNDAN_GOAT_OUTFIT_28_cls-8" d="M136.51,279.77a246.1,246.1,0,0,1-4.77-29.45,131.62,131.62,0,0,1-.78-14.24h0" />
      <path class="GUNDAN_GOAT_OUTFIT_GUNDAN_GOAT_OUTFIT_28_cls-8" d="M253.64,352.07c11.11-5.88,42-24.55,56.92-57.05a90.25,90.25,0,0,0,8.3-39.12,100.1,100.1,0,0,0-.89-12" />
      <path class="GUNDAN_GOAT_OUTFIT_GUNDAN_GOAT_OUTFIT_28_cls-8" d="M324.9,346.85c-7.95,6.22-17.75,10.51-27.7,13.49-1.7.51-3.41,1-5.1,1.42a175.44,175.44,0,0,1-29.38,4.67" />
      <path class="GUNDAN_GOAT_OUTFIT_GUNDAN_GOAT_OUTFIT_28_cls-8" d="M335.23,318a27,27,0,0,1,1,9.93,31,31,0,0,1-3.3,11.17c-1,1.15-2,2.27-3,3.33a55.12,55.12,0,0,1-5,4.4" />
      <path class="GUNDAN_GOAT_OUTFIT_GUNDAN_GOAT_OUTFIT_28_cls-8" d="M324.9,302.62a39.49,39.49,0,0,0-14.34-7.6" />
      <path class="GUNDAN_GOAT_OUTFIT_GUNDAN_GOAT_OUTFIT_28_cls-8" d="M259.58,357.73c17.16-9.79,49.57-30.51,65.32-55.11,9.56.18,13.37,9.46,10.34,15.39h0c-14.47,23.2-39.84,37.2-73.42,43.64" />
      <path class="GUNDAN_GOAT_OUTFIT_GUNDAN_GOAT_OUTFIT_28_cls-11" d="M237.19,318.9a43.55,43.55,0,0,1-11.73,10.32h0c-.25.17-.5.31-.75.46-2.5-2.55-5.06-5.23-7.68-7.93-1.46-1.52-2.92-3-4.41-4.53a50.73,50.73,0,0,0,9.31-10.86v0c3.07-5,5.23-11,4.47-17.57A45.84,45.84,0,0,1,237.19,318.9Z" />
      <path class="GUNDAN_GOAT_OUTFIT_GUNDAN_GOAT_OUTFIT_28_cls-11" d="M221.92,306.35v0a50.73,50.73,0,0,1-9.31,10.86l-2-2c-2.92-2.91-5.88-5.75-8.86-8.38q-2.53-2.25-5.08-4.25l-.33-.26c.38-.45.78-.92,1.18-1.41a52.52,52.52,0,0,0,6.21-9.35c2.95-5.79,4.82-12.63,3.4-19.85C217.32,281.92,221.39,294.52,221.92,306.35Z" />
      <path class="GUNDAN_GOAT_OUTFIT_GUNDAN_GOAT_OUTFIT_28_cls-11" d="M243.86,346h0a38.79,38.79,0,0,1-5.15-3.39,92.24,92.24,0,0,1-7.69-6.67c-1.95-1.86-3.95-3.85-6-5.93-.11-.1-.21-.21-.32-.32.25-.15.5-.29.75-.46h0a43.55,43.55,0,0,0,11.73-10.32,25.28,25.28,0,0,0,5.21-12.63C249.61,320.11,248.34,334.55,243.86,346Z" />
      <path class="GUNDAN_GOAT_OUTFIT_GUNDAN_GOAT_OUTFIT_28_cls-11" d="M203.77,291.61a52.52,52.52,0,0,1-6.21,9.35c-.4.49-.8,1-1.18,1.41-1.53-1.2-3.06-2.33-4.6-3.36a37.88,37.88,0,0,0-6.07-3.34,40.28,40.28,0,0,0-6.36-2.19,52.62,52.62,0,0,0,2.49-9.79c1-6.48.58-13.62-3.1-20,12.88,6.26,20.76,16.88,25,27.93Z" />
      <path class="GUNDAN_GOAT_OUTFIT_GUNDAN_GOAT_OUTFIT_28_cls-11" d="M182.49,284.5a54,54,0,0,1-3.05,9l-.09,0a50.9,50.9,0,0,0-20.58-.67c-.63.1-1.23.21-1.79.32a14,14,0,0,0-.11-1.43c-.26-2.59-.81-5.41-1.11-7.86-.8-6.86-3.32-13.91-9.28-19.13a54.29,54.29,0,0,1,36,19.79Z" />
      <path class="GUNDAN_GOAT_OUTFIT_GUNDAN_GOAT_OUTFIT_28_cls-8" d="M181.84,283.69a52.62,52.62,0,0,1-2.49,9.79c-.53-.14-1-.26-1.57-.36a48.46,48.46,0,0,0-13-1,54.9,54.9,0,0,0-6,.66l-1.6-.94c-.38-8.79-2.74-20.49-11.73-27.46C161.42,265.26,173.65,273.66,181.84,283.69Z" />
      <path class="GUNDAN_GOAT_OUTFIT_GUNDAN_GOAT_OUTFIT_28_cls-12" d="M177.78,293.12a48.46,48.46,0,0,0-13-1,27,27,0,0,0-6.81-19.48C173.37,280.61,177,290.13,177.78,293.12Z" />
      <path class="GUNDAN_GOAT_OUTFIT_GUNDAN_GOAT_OUTFIT_28_cls-12" d="M197.56,301a6.43,6.43,0,0,1-.14,1l-.71.67-.33-.26c-1.53-1.2-3.06-2.33-4.6-3.36a37.88,37.88,0,0,0-6.07-3.34l-.05-.2a27,27,0,0,0,.26-20.68C197.64,287.66,197.84,297.83,197.56,301Z" />
      <path class="GUNDAN_GOAT_OUTFIT_GUNDAN_GOAT_OUTFIT_28_cls-12" d="M210.65,315.26c-2.92-2.91-5.88-5.75-8.86-8.38l.18-.74a26.65,26.65,0,0,0,10.19-17.88C215.56,302.75,212.66,311.39,210.65,315.26Z" />
      <path class="GUNDAN_GOAT_OUTFIT_GUNDAN_GOAT_OUTFIT_28_cls-12" d="M225.46,329.22h0a8.27,8.27,0,0,1-.43.78c-.11-.1-.21-.21-.32-.32-2.5-2.55-5.06-5.23-7.68-7.93a26.52,26.52,0,0,0,12.43-15.41C230.08,317.53,227.77,324.83,225.46,329.22Z" />
      <path class="GUNDAN_GOAT_OUTFIT_GUNDAN_GOAT_OUTFIT_28_cls-12" d="M242.86,322c0,9.6-2,16.22-4.17,20.58a92.24,92.24,0,0,1-7.69-6.67A26.31,26.31,0,0,0,242.86,322Z" />
      <path class="GUNDAN_GOAT_OUTFIT_GUNDAN_GOAT_OUTFIT_28_cls-11" d="M229.2,376.33C222.87,386.88,212.25,396.61,197,399a25.22,25.22,0,0,0,6.8-11.8h0a45.61,45.61,0,0,0,1.06-16.38l0-.34.16,0c2.49.36,4.93.75,7.25,1.14a101.94,101.94,0,0,1,11.07,2.49,38.18,38.18,0,0,1,5.84,2.2Z" />
      <path class="GUNDAN_GOAT_OUTFIT_GUNDAN_GOAT_OUTFIT_28_cls-11" d="M203.82,387.18h0a43.83,43.83,0,0,1-30.12,9.17c5.64-3.31,9.06-8.68,11.13-14.16a51.41,51.41,0,0,0,3-14.12l5.44.77c3.93.55,7.83,1.06,11.58,1.61l0,.34A45.61,45.61,0,0,1,203.82,387.18Z" />
      <path class="GUNDAN_GOAT_OUTFIT_GUNDAN_GOAT_OUTFIT_28_cls-11" d="M149.24,355.15a51.64,51.64,0,0,1-6.19,7.84h0c-12.78-.7-26.69-5.68-36.91-18.22a26.8,26.8,0,0,0,14.52,0,45.71,45.71,0,0,0,14-6.73l1.77.78c.75,1.46,1.64,3,2.69,4.68a51.13,51.13,0,0,0,8.38,10.13C148,354.13,148.63,354.65,149.24,355.15Z" />
      <path class="GUNDAN_GOAT_OUTFIT_GUNDAN_GOAT_OUTFIT_28_cls-11" d="M166.42,363.73a54.78,54.78,0,0,1-4,12.44c-11.24,3.13-24.29,3-36.91-3.75,7.21-.82,13.07-4.76,17.57-9.43h0a51.64,51.64,0,0,0,6.19-7.84A40.92,40.92,0,0,0,161.07,362c1.65.61,3.36,1.16,5.12,1.67Z" />
      <path class="GUNDAN_GOAT_OUTFIT_GUNDAN_GOAT_OUTFIT_28_cls-11" d="M187.83,368.08a51.41,51.41,0,0,1-3,14.12c-9.61,6.64-22,10.85-36,8.63,6.52-3.16,10.79-8.79,13.56-14.66a54.78,54.78,0,0,0,4-12.44q3.12.9,6.42,1.62c3.83.88,7.8,1.6,11.81,2.24Z" />
      <path class="GUNDAN_GOAT_OUTFIT_GUNDAN_GOAT_OUTFIT_28_cls-12" d="M147.48,353.6c-3.11,1.08-12.75,3.17-27.6-5a2.85,2.85,0,0,0,.29,0,25.81,25.81,0,0,0,18.93-5.15A51.13,51.13,0,0,0,147.48,353.6Z" />
      <path class="GUNDAN_GOAT_OUTFIT_GUNDAN_GOAT_OUTFIT_28_cls-12" d="M166.19,363.67l-.17,1.26s-7.86,8.85-28.45,5.88a26.23,26.23,0,0,0,16.51-12l.19-.07a37.86,37.86,0,0,0,6.8,3.28C162.72,362.61,164.43,363.16,166.19,363.67Z" />
      <path class="GUNDAN_GOAT_OUTFIT_GUNDAN_GOAT_OUTFIT_28_cls-12" d="M184.65,367.59c-1.58,3.59-6.63,11.67-21.26,17.5A26.9,26.9,0,0,0,172,366.35l.87-1C176.67,366.23,180.64,367,184.65,367.59Z" />
      <path class="GUNDAN_GOAT_OUTFIT_GUNDAN_GOAT_OUTFIT_28_cls-12" d="M205,370.48c0,.11-.08.21-.13.32-1.77,4.48-6.16,11.62-17,18.43a27.06,27.06,0,0,0,5.21-20l.23-.38c3.93.55,7.83,1.06,11.58,1.61Z" />
      <path class="GUNDAN_GOAT_OUTFIT_GUNDAN_GOAT_OUTFIT_28_cls-12" d="M223.33,374.11c-2,4.57-6.15,11-15.22,17.4a27.15,27.15,0,0,0,4.15-19.89A101.94,101.94,0,0,1,223.33,374.11Z" />
      <path class="GUNDAN_GOAT_OUTFIT_GUNDAN_GOAT_OUTFIT_28_cls-8" d="M179.35,293.48a52.62,52.62,0,0,0,2.49-9.79c1-6.48.58-13.62-3.1-20,12.88,6.26,20.76,16.88,25,27.93" />
      <path class="GUNDAN_GOAT_OUTFIT_GUNDAN_GOAT_OUTFIT_28_cls-8" d="M221.92,306.35c-.52-11.83-4.6-24.43-14.75-34.59,1.42,7.22-.45,14.06-3.4,19.85a54.9,54.9,0,0,1-7.39,10.76" />
      <path class="GUNDAN_GOAT_OUTFIT_GUNDAN_GOAT_OUTFIT_28_cls-8" d="M237.19,318.9a45.84,45.84,0,0,0-10.8-30.12c.76,6.59-1.4,12.6-4.47,17.57v0a50.73,50.73,0,0,1-9.31,10.86" />
      <path class="GUNDAN_GOAT_OUTFIT_GUNDAN_GOAT_OUTFIT_28_cls-8" d="M224.7,329.69a44.36,44.36,0,0,0,12.49-10.79,25.28,25.28,0,0,0,5.21-12.63c7.21,13.84,5.94,28.28,1.46,39.74" />
      <path class="GUNDAN_GOAT_OUTFIT_GUNDAN_GOAT_OUTFIT_28_cls-8" d="M157.17,291.87c-.38-8.79-2.74-20.49-11.73-27.46,16,.85,28.21,9.25,36.4,19.28" />
      <path class="GUNDAN_GOAT_OUTFIT_GUNDAN_GOAT_OUTFIT_28_cls-8" d="M158.77,292.81l-1.6-.94-.3-.17-20.35-11.93h0l-9.76,16.69s94.09,52.89,135.77,72.63a16.21,16.21,0,0,0,.2-2.66,13.56,13.56,0,0,0-.91-4.77,15.91,15.91,0,0,0-2.23-3.93,29.51,29.51,0,0,0-5.94-5.66,76.1,76.1,0,0,0-9.78-6.06h0c-5.72-3.06-12.19-9.22-19.14-16.31-3.9-4-7.94-8.26-12.09-12.46a172,172,0,0,0-16.23-14.86c-1.53-1.2-3.06-2.33-4.6-3.36a39.82,39.82,0,0,0-12.34-5.51l-.09,0a50.9,50.9,0,0,0-20.58-.67c-.63.1-1.23.21-1.79.32a45.26,45.26,0,0,0-7,1.89" />
      <path class="GUNDAN_GOAT_OUTFIT_GUNDAN_GOAT_OUTFIT_28_cls-8" d="M132.85,330.25a52,52,0,0,0,3.56,8.54" />
      <path class="GUNDAN_GOAT_OUTFIT_GUNDAN_GOAT_OUTFIT_28_cls-8" d="M229.2,376.33l0,0c-5.84-2.84-14.58-4.43-24.32-5.85-5.47-.79-11.25-1.53-17-2.38a169.17,169.17,0,0,1-21.41-4.35c-1.84-.52-3.63-1.1-5.35-1.73a39.82,39.82,0,0,1-11.83-6.85,52.8,52.8,0,0,1-12.83-16.36l-1.77-.78-21.8-9.55v0l7.24-18s68.15,31.35,114.25,54.63c9.16,4.62,17.46,8.94,24.17,12.61a16,16,0,0,1-2,1.75,12.91,12.91,0,0,1-4.29,2.11,14.92,14.92,0,0,1-4.42.55,28.89,28.89,0,0,1-8-1.46,74.82,74.82,0,0,1-10.62-4.34" />
      <path class="GUNDAN_GOAT_OUTFIT_GUNDAN_GOAT_OUTFIT_28_cls-8" d="M143,363c-4.5,4.66-10.36,8.6-17.57,9.42,12.62,6.78,25.67,6.88,36.91,3.75" />
      <path class="GUNDAN_GOAT_OUTFIT_GUNDAN_GOAT_OUTFIT_28_cls-8" d="M149.24,355.15a52.2,52.2,0,0,1-6.19,7.85" />
      <path class="GUNDAN_GOAT_OUTFIT_GUNDAN_GOAT_OUTFIT_28_cls-8" d="M184.85,382.19h0c-9.61,6.64-22,10.85-36,8.63,6.52-3.16,10.79-8.79,13.56-14.66a54.78,54.78,0,0,0,4-12.44" />
      <path class="GUNDAN_GOAT_OUTFIT_GUNDAN_GOAT_OUTFIT_28_cls-8" d="M203.81,387.19a43.83,43.83,0,0,1-30.12,9.17c5.64-3.31,9.06-8.68,11.13-14.16a51.41,51.41,0,0,0,3-14.12" />
      <path class="GUNDAN_GOAT_OUTFIT_GUNDAN_GOAT_OUTFIT_28_cls-8" d="M204.85,370.46a45.71,45.71,0,0,1-1,16.72h0A25.22,25.22,0,0,1,197,399c15.24-2.38,25.86-12.11,32.19-22.66" />
      <path class="GUNDAN_GOAT_OUTFIT_GUNDAN_GOAT_OUTFIT_28_cls-8" d="M134.64,338c-7.13,4.92-17.7,9.93-28.51,6.76C116.35,357.31,130.26,362.29,143,363h0" />
      <path class="GUNDAN_GOAT_OUTFIT_GUNDAN_GOAT_OUTFIT_28_cls-8" d="M132.84,330.42A52.19,52.19,0,0,0,136.4,339c4,7.67,11.58,18.43,24.65,23.22,21.22,7.79,53,7.32,67.63,14.11l.48.22c1.69.82,3.3,1.57,4.84,2.22A46.41,46.41,0,0,0,244.64,382h0a17.22,17.22,0,0,0,8.06-.4,13.82,13.82,0,0,0,5.77-3.72c-40.48-22.19-138.4-67.27-138.4-67.27l-7.25,18L136.4,339" />
      <path class="GUNDAN_GOAT_OUTFIT_GUNDAN_GOAT_OUTFIT_28_cls-8" d="M120.08,310.64s-2.49-11.35,6.67-14.18" />
      <line class="GUNDAN_GOAT_OUTFIT_GUNDAN_GOAT_OUTFIT_28_cls-8" x1="262.52" y1="369.09" x2="258.48" y2="377.91" />
      <path class="GUNDAN_GOAT_OUTFIT_GUNDAN_GOAT_OUTFIT_28_cls-8" d="M112.83,328.6a177.83,177.83,0,0,0-36.7,15.79A211.5,211.5,0,0,0,47,364.16c-4.49,3.64-7,6-7,6s5.26,11.51,20.79,25.55C72.15,405.92,88.9,417.47,113,426.89c18.54,7.23,41.44,13.2,69.57,16.34a436,436,0,0,0,71,1.68" />
      <path class="GUNDAN_GOAT_OUTFIT_GUNDAN_GOAT_OUTFIT_28_cls-8" d="M57.48,392.6l-1.42,3.1c-.87,2-1.64,4.12-2.34,6.21-6.57,19.8-6,40.88-6,40.88l4.78.44H356.84v-.49" />
      <path class="GUNDAN_GOAT_OUTFIT_GUNDAN_GOAT_OUTFIT_28_cls-8" d="M40.05,370.15c0,.14,1.88,17.73,14.68,28.89" />
      <path class="GUNDAN_GOAT_OUTFIT_GUNDAN_GOAT_OUTFIT_28_cls-8" d="M47,364.16s42.13,74.49,186.45,72.77" />
      <path class="GUNDAN_GOAT_OUTFIT_GUNDAN_GOAT_OUTFIT_28_cls-10" d="M356.18,434.08l-.24-.11-1.56-.73C303.63,406,293,365.56,292.1,361.76" />
      <path class="GUNDAN_GOAT_OUTFIT_GUNDAN_GOAT_OUTFIT_28_cls-10" d="M297.2,360.34s9,40.94,59.64,68.14" />
      <path class="GUNDAN_GOAT_OUTFIT_GUNDAN_GOAT_OUTFIT_28_cls-10" d="M369.77,381.76a22.8,22.8,0,0,0,5.8-3c.52-.37,1-.73,1.38-1.08a4.33,4.33,0,0,0,.84-5.58c-5.16-8.33-21.29-32.42-41.58-44.11" />
      <path class="GUNDAN_GOAT_OUTFIT_GUNDAN_GOAT_OUTFIT_28_cls-10" d="M369.09,382l.5-.13" />
      <path class="GUNDAN_GOAT_OUTFIT_GUNDAN_GOAT_OUTFIT_28_cls-10" d="M329.89,342.45s24.52,21.6,34.93,37.68A4.16,4.16,0,0,0,369,382" />
      <path class="GUNDAN_GOAT_OUTFIT_GUNDAN_GOAT_OUTFIT_28_cls-10" d="M324.9,346.85h0c.6.6,22,21.27,31.12,34a5.21,5.21,0,0,0,4.42,2.2A43.83,43.83,0,0,0,369,382h0l.5-.13a1,1,0,0,0,.18-.06" />
      <path class="GUNDAN_GOAT_OUTFIT_GUNDAN_GOAT_OUTFIT_28_cls-8" d="M270,311.91a155.26,155.26,0,0,1-16.31,40.16" />
      <path class="GUNDAN_GOAT_OUTFIT_GUNDAN_GOAT_OUTFIT_28_cls-8" d="M275.42,276.25c-.24,4.29-.66,9.19-1.37,14.54" />
      <path class="GUNDAN_GOAT_OUTFIT_GUNDAN_GOAT_OUTFIT_28_cls-8" d="M275.4,257.88a128,128,0,0,1,.21,14.18" />
      <path class="GUNDAN_GOAT_OUTFIT_GUNDAN_GOAT_OUTFIT_28_cls-8" d="M273.38,295.37c-.66,4.1-1.49,8.42-2.53,12.88" />
      <path class="GUNDAN_GOAT_OUTFIT_GUNDAN_GOAT_OUTFIT_28_cls-8" d="M265.59,270.66c-.19-2.3-2.78-4.88-7.68-3.08-7,2.56-4.89,8.89-1.58,12.24s2,7.27-1.64,10.44-1.92,7-.4,10.3c3.77,8.18-5.46,10-.23,14.12-.74-1.75.66-3.79,2.06-5.68a19,19,0,0,0,2-2.94,3,3,0,0,0,.27-.76c.5-2.47-.42-4.87-1.88-7.4-1.24-2.13-1.37-3.5.63-5.36.39-.35.85-.73,1.39-1.13a11.27,11.27,0,0,0,2.66-2.63,6.18,6.18,0,0,0,0-7.41c-2.07-3.19-.46-5.38,1.63-7,.56-.44,1.15-.84,1.71-1.21A2.61,2.61,0,0,0,265.59,270.66Z" />
      <path class="GUNDAN_GOAT_OUTFIT_GUNDAN_GOAT_OUTFIT_28_cls-8" d="M283.24,271.55c-.78-2.55,2.45-6.55,8.06-3.3,6.47,3.72,3.35,9.6-.46,12.34s-3.13,6.82-.11,10.57.73,7.25-1.29,10.22c-5.08,7.41,3.7,10.84-2.12,13.95.78-1.21.36-2.8-.37-4.43-.46-1-1.05-2.1-1.53-3.07a6.63,6.63,0,0,1-.82-2.48c-.09-2.52,1.22-4.73,3.09-7,1.31-1.59,1.78-2.79.89-4.43a11.06,11.06,0,0,0-1.83-2.32,13.27,13.27,0,0,1-1-1.15c-2.19-2.82-2.8-6.11.05-9.19,2-2.13,1.71-4,.69-5.72a14.87,14.87,0,0,0-2.62-3A2.2,2.2,0,0,1,283.24,271.55Z" />
      <path class="GUNDAN_GOAT_OUTFIT_GUNDAN_GOAT_OUTFIT_28_cls-8" d="M265.59,270.66a48.53,48.53,0,0,0,10,1.4,35.74,35.74,0,0,0,7.63-.51" />
      <path class="GUNDAN_GOAT_OUTFIT_GUNDAN_GOAT_OUTFIT_28_cls-8" d="M286.49,275.57s-3.76,1.11-11.07.68a77,77,0,0,1-12.61-1.9h0" />
      <path class="GUNDAN_GOAT_OUTFIT_GUNDAN_GOAT_OUTFIT_28_cls-8" d="M261.19,288.78a55.39,55.39,0,0,0,12.86,2,74.18,74.18,0,0,0,11.7-.31" />
      <path class="GUNDAN_GOAT_OUTFIT_GUNDAN_GOAT_OUTFIT_28_cls-8" d="M257.14,292.54a69.49,69.49,0,0,0,16.24,2.83,48.68,48.68,0,0,0,15.2-1.42" />
      <path class="GUNDAN_GOAT_OUTFIT_GUNDAN_GOAT_OUTFIT_28_cls-8" d="M258.13,306.06a69.14,69.14,0,0,0,12.72,2.19,60.3,60.3,0,0,0,14.57-.42" />
      <path class="GUNDAN_GOAT_OUTFIT_GUNDAN_GOAT_OUTFIT_28_cls-8" d="M256.13,309A53.23,53.23,0,0,0,270,311.91a57.84,57.84,0,0,0,17-1" />
    </g>
  </g>
</svg>