<svg xmlns="http://www.w3.org/2000/svg" viewBox="0 0 432 432">
  <defs>
    <style>.GUNDAN_GOAT_OUTFIT_GUNDAN_GOAT_OUTFIT_18_cls-1{isolation:isolate;}.GUNDAN_GOAT_OUTFIT_GUNDAN_GOAT_OUTFIT_18_cls-2{fill:#fff;}.GUNDAN_GOAT_OUTFIT_GUNDAN_GOAT_OUTFIT_18_cls-3{fill:#f4f259;}.GUNDAN_GOAT_OUTFIT_GUNDAN_GOAT_OUTFIT_18_cls-4{fill:#7e7c46;}.GUNDAN_GOAT_OUTFIT_GUNDAN_GOAT_OUTFIT_18_cls-5{fill:#6d7d55;}.GUNDAN_GOAT_OUTFIT_GUNDAN_GOAT_OUTFIT_18_cls-6{fill:#22211c;}.GUNDAN_GOAT_OUTFIT_GUNDAN_GOAT_OUTFIT_18_cls-7{fill:none;stroke:#000;stroke-linecap:round;stroke-linejoin:round;stroke-width:1.64px;}.GUNDAN_GOAT_OUTFIT_GUNDAN_GOAT_OUTFIT_18_cls-8{opacity:0.22;mix-blend-mode:multiply;}</style>
  </defs>
  <g class="GUNDAN_GOAT_OUTFIT_GUNDAN_GOAT_OUTFIT_18_cls-1">
    <g id="outfit">
      <path class="GUNDAN_GOAT_OUTFIT_GUNDAN_GOAT_OUTFIT_18_cls-2" d="M126.87,397.19a25.69,25.69,0,0,1-2.9-.31,30.32,30.32,0,0,1-19.9-12.53c-.46-.67-.88-1.35-1.28-2.05a2.31,2.31,0,0,0-3.09-.87,2.22,2.22,0,0,0-.88,3,31.34,31.34,0,0,0,2.64,4,35.08,35.08,0,0,0,18.8,12.23,33.22,33.22,0,0,0,6.34,1h.14a2.24,2.24,0,0,0,.13-4.47Z" />
      <path class="GUNDAN_GOAT_OUTFIT_GUNDAN_GOAT_OUTFIT_18_cls-2" d="M113.85,425.26c-.74.23-1.47.42-2.22.6a30.71,30.71,0,0,1-23.73-4.55c-.67-.47-1.32-1-2-1.48a2.3,2.3,0,0,0-3.2.28,2.2,2.2,0,0,0,.29,3.14,29.25,29.25,0,0,0,3.12,2.27c.24.16.48.32.73.46a35.57,35.57,0,0,0,24.36,4.5,32.22,32.22,0,0,0,4-1,.38.38,0,0,1,.12-.05,2.24,2.24,0,0,0,1.43-1.75,2.07,2.07,0,0,0-.08-1A2.27,2.27,0,0,0,113.85,425.26Z" />
      <path class="GUNDAN_GOAT_OUTFIT_GUNDAN_GOAT_OUTFIT_18_cls-2" d="M131.57,371.07c-1.73-10.56-6.6-20.34-10.37-30.39-2.13-5.69-10.85-17.6-11.47-23.61a53.18,53.18,0,0,1,6.49-5.39c-.58-2.85-1.15-5.68-1.72-8.53a10.23,10.23,0,0,0-1.07-3.3,3.6,3.6,0,0,0-2.82-1.87c-1.87-.06-3.21,1.73-4,3.4-.24.5-.45,1-.66,1.54a33.14,33.14,0,0,0-1.46,16.31c.83,6,9.74,17.75,11.7,23.5L123,362.66q1.56,4.6,3.13,9.22a7.55,7.55,0,0,0,1.32,2.68,2.67,2.67,0,0,0,2.74.86,2.45,2.45,0,0,0,1.44-2.05A7.71,7.71,0,0,0,131.57,371.07Z" />
      <path class="GUNDAN_GOAT_OUTFIT_GUNDAN_GOAT_OUTFIT_18_cls-3" d="M131.58,308.23a5.08,5.08,0,0,0-4.36-2.07,4.94,4.94,0,0,0-4,2.57s.33,35.33,14.73,55.83a15.56,15.56,0,0,1,9.44-6C131.28,336.22,131.58,308.23,131.58,308.23Z" />
      <path class="GUNDAN_GOAT_OUTFIT_GUNDAN_GOAT_OUTFIT_18_cls-3" d="M104.51,319.23A33.14,33.14,0,0,1,106,302.92l-2.61,1c-3.75,1.39-2.51,8-5.83,10.25s-4.27,6-5.36,9.82a23,23,0,0,0-17.23,17.78c-3.67,2.08-6.17,5.74-7.88,9.54a38.07,38.07,0,0,0-3.33,15.21,21.62,21.62,0,0,0-8,10,20.94,20.94,0,0,0-.51,12.6A23.85,23.85,0,0,0,49,409.4a10,10,0,0,0-2.65,5.36,37.75,37.75,0,0,0,1.3,20c-.93.78-1.86,1.66-2.79,2.5,9.65,3.84,19.28,7.76,28.4,12.68,1.85,1,3.69,2,5.49,3.14,3.13-.72,6.22-2.72,6.2-5.59,0-2.57,0-5.12.21-7.69A110.27,110.27,0,0,1,86.89,426c-.25-.14-.49-.3-.73-.46A29.25,29.25,0,0,1,83,423.25a2.2,2.2,0,0,1-.29-3.14,2.3,2.3,0,0,1,3.2-.28c.63.52,1.28,1,2,1.48a117.54,117.54,0,0,1,3.44-11.59,113.27,113.27,0,0,1,7-15.91q1.45-2.71,3.07-5.39a31.34,31.34,0,0,1-2.64-4,2.22,2.22,0,0,1,.88-3,2.31,2.31,0,0,1,3.09.87c.4.7.82,1.38,1.28,2.05,1.16-1.75,2.38-3.47,3.64-5.15a111.38,111.38,0,0,1,9-10.54c2-2.08,4.11-4.09,6.29-6l-6.78-19.93C114.25,337,105.34,325.25,104.51,319.23Z" />
      <path class="GUNDAN_GOAT_OUTFIT_GUNDAN_GOAT_OUTFIT_18_cls-3" d="M280.7,374.11a15.53,15.53,0,0,0-2.48-2.82l.14-.18A21.93,21.93,0,0,1,280.7,374.11Z" />
      <path class="GUNDAN_GOAT_OUTFIT_GUNDAN_GOAT_OUTFIT_18_cls-3" d="M250.12,435.68c-1.13-1.61-2.47-3.08-3.71-4.56-1.81-2.12-3.42-4.24-3.92-6.68a8.24,8.24,0,0,1-.16-1.24c-.07-1.32-.19-3.19-.24-5.34,0-.64,0-1.31,0-2a49.54,49.54,0,0,1,.5-6.95,24.66,24.66,0,0,1,2.54-8,13,13,0,0,1,4.4-4.79,12.1,12.1,0,0,1,4-1.62,22.51,22.51,0,0,1-4.39-5.05,2.74,2.74,0,0,1-.23-.37l-.08-.14a15.88,15.88,0,0,1-2.45-6.87,7.58,7.58,0,0,1-.09-1.06,66.91,66.91,0,0,0-5,4.64,58.37,58.37,0,0,0-4.71,5.38A48.24,48.24,0,0,0,233.2,396a33.2,33.2,0,0,0-3.69,8.41c-.16.59-.3,1.18-.42,1.78a22.1,22.1,0,0,0-.41,4.06c0,1.76,0,3.42.06,5l1.57.06a9.84,9.84,0,0,0-1.54.88,69.05,69.05,0,0,0,1.35,12,25.24,25.24,0,0,0,4.4,10.29v0c.39.49.78.94,1.2,1.38a9.19,9.19,0,0,1,.64.74,14.86,14.86,0,0,0-3.94-.26,8.39,8.39,0,0,0-6,2.73,9,9,0,0,0-1,1.47c-2.87,5.45.21,12.79,7.45,14.88a15.74,15.74,0,0,0,5.26.52,17.86,17.86,0,0,0,7.54-1.93l.57-.33c4.68-2.79,6.44-8,6.62-14.12a10.89,10.89,0,0,0-.17-2.24A14,14,0,0,0,250.12,435.68Z" />
      <path class="GUNDAN_GOAT_OUTFIT_GUNDAN_GOAT_OUTFIT_18_cls-3" d="M141.56,426.71a6.37,6.37,0,0,0-3.54-.55,14.46,14.46,0,0,0-2.92.62,38.18,38.18,0,0,0-17.54,11.35c0,1.93,0,4,.13,6.19.14,4.21.3,8,.48,11.49.27,5.16.54,9.52.82,13.14a77.67,77.67,0,0,1,20.54-21.26,11.72,11.72,0,0,0,2.81-2.38,3.66,3.66,0,0,0,.71-3.45,3.46,3.46,0,0,0-2.82-1.95,14.54,14.54,0,0,0,3.72-5.18C145,431.87,144.3,428.11,141.56,426.71Zm-5.46,3.92a3.54,3.54,0,1,1-3.6,3.54A3.57,3.57,0,0,1,136.1,430.63Zm0,16.61a2.09,2.09,0,1,1,2.12-2.09A2.11,2.11,0,0,1,136.1,447.24Z" />
      <path class="GUNDAN_GOAT_OUTFIT_GUNDAN_GOAT_OUTFIT_18_cls-3" d="M293.57,426.78a15.3,15.3,0,0,0-2.9-.62,6.29,6.29,0,0,0-3.54.55c-2.76,1.4-3.48,5.16-2.4,8a14.66,14.66,0,0,0,3.72,5.18,3.45,3.45,0,0,0-2.81,1.95,3.65,3.65,0,0,0,.69,3.45,11.58,11.58,0,0,0,2.82,2.38,77.85,77.85,0,0,1,20.53,21.24c.29-3.62.57-8,.82-13.12.18-3.46.34-7.28.49-11.49.08-2.19.11-4.25.12-6.18h0A38.12,38.12,0,0,0,293.57,426.78Zm-1,3.85a3.54,3.54,0,1,1-3.59,3.54A3.57,3.57,0,0,1,292.57,430.63Zm0,16.61a2.09,2.09,0,1,1,2.12-2.09A2.11,2.11,0,0,1,292.57,447.24Z" />
      <path class="GUNDAN_GOAT_OUTFIT_GUNDAN_GOAT_OUTFIT_18_cls-3" d="M150.2,358.14a22.51,22.51,0,0,0-2.81.45,15.56,15.56,0,0,0-9.44,6,25.78,25.78,0,0,0-4,8.4c-.11.34-.2.66-.29,1-2.88,10.43-.76,14.24-4.34,18.52-1.1,1.32-3.08,2.49-5.35,4.42a25.69,25.69,0,0,0,2.9.31,2.24,2.24,0,0,1-.13,4.47h-.14a33.22,33.22,0,0,1-6.34-1c-3.65,4.52-7.25,11.88-8.63,25.21.75-.18,1.48-.37,2.22-.6a2.27,2.27,0,0,1,2.86,1.44,2.07,2.07,0,0,1,.08,1,2.24,2.24,0,0,1-1.43,1.75.38.38,0,0,0-.12.05,32.22,32.22,0,0,1-4,1c-.09,1.35-.15,2.76-.19,4.24-.18,7-.23,13.23-.17,18.62.16,16.65,1.18,25.67,1.63,28.85h7.77c-.28-2-.78-6.21-1.3-13.24-.28-3.62-.55-8-.82-13.14-.18-3.46-.34-7.28-.48-11.49-.08-2.19-.12-4.26-.13-6.19,0-3.89.13-7.3.41-10.31,1.17-12.62,4.87-18.34,11.12-24.1q1.65-1.5,3.54-3.07c11-9.17,2.25-32.36,14.93-36.92,2.49-.89,5.64.13,9.1,2.34a9.13,9.13,0,0,1,.84-.46c.59-.31,1.07-.53,1.37-.66l.15-.06.27-.11a16.91,16.91,0,0,1,5-1.15C159.64,358.84,156.6,357.52,150.2,358.14Z" />
      <path class="GUNDAN_GOAT_OUTFIT_GUNDAN_GOAT_OUTFIT_18_cls-3" d="M281.6,358.67a20.88,20.88,0,0,0-3.13-.53c-6.4-.62-9.44.7-14.07,5.49a16.76,16.76,0,0,1,5,1.15h0l.21.08.2.09c.24.1.56.25,1,.45a2.6,2.6,0,0,1,.4.21,9.13,9.13,0,0,1,.84.46s0,0,0,0c3.47-2.21,6.61-3.23,9.09-2.34a9.32,9.32,0,0,1,4,2.75c-1.52-2-2.95-4-4.38-6.09C281,359.82,281.33,359.25,281.6,358.67Z" />
      <path class="GUNDAN_GOAT_OUTFIT_GUNDAN_GOAT_OUTFIT_18_cls-3" d="M191.19,391l-2.58-2.6-6.29-6.36a15.88,15.88,0,0,1-2.45,6.87l-.08.14a3.82,3.82,0,0,1-.22.37c6.33,8.08,10.89,14.9,10.89,14.9h39A33.2,33.2,0,0,1,233.2,396a48.24,48.24,0,0,1,3.38-4.91H191.19Z" />
      <path class="GUNDAN_GOAT_OUTFIT_GUNDAN_GOAT_OUTFIT_18_cls-3" d="M317.61,434.72c-.34-12.82-2.38-21.32-5-27.17a29.83,29.83,0,0,0-5.51-8.41c-3.2-3.41-6.25-4.91-7.72-6.68-2.07-2.46-2.24-4.77-2.56-8.28h0a57.58,57.58,0,0,0-1.05-7.3,34.23,34.23,0,0,1-4.14-3.27,50.34,50.34,0,0,1-5.85-6.35c5.74,8.16,1.09,25.71,10.29,33.39,10.12,8.45,15.13,14.42,15.07,37.48h0c0,1.93,0,4-.12,6.18-.15,4.21-.31,8-.49,11.49-.25,5.16-.53,9.5-.82,13.12-.52,7.05-1,11.29-1.28,13.26h7.75c.45-3.18,1.47-12.2,1.63-28.85C317.84,448,317.79,441.76,317.61,434.72Z" />
      <ellipse class="GUNDAN_GOAT_OUTFIT_GUNDAN_GOAT_OUTFIT_18_cls-4" cx="136.1" cy="434.17" rx="3.6" ry="3.54" />
      <ellipse class="GUNDAN_GOAT_OUTFIT_GUNDAN_GOAT_OUTFIT_18_cls-4" cx="292.57" cy="434.17" rx="3.6" ry="3.54" />
      <path class="GUNDAN_GOAT_OUTFIT_GUNDAN_GOAT_OUTFIT_18_cls-4" d="M165.59,363.58c-.44,0-.89,0-1.32.05a16.91,16.91,0,0,0-5,1.15l-.27.11-.15.06c-.3.13-.78.35-1.37.66a9.13,9.13,0,0,0-.84.46c-3.46-2.21-6.61-3.23-9.1-2.34-12.68,4.56-4,27.75-14.93,36.92q-1.89,1.58-3.54,3.07c-6.25,5.76-10,11.48-11.12,24.1-.28,3-.42,6.42-.41,10.31a38.18,38.18,0,0,1,17.54-11.35,14.46,14.46,0,0,1,2.92-.62,13.62,13.62,0,0,1,1.16-7.12,4,4,0,0,1,2.14-2.25,25.33,25.33,0,0,0,5.48,5.65,131.76,131.76,0,0,1-1.22-34.92,16.51,16.51,0,0,0,1.5,3.81A17,17,0,0,0,169.86,398l.07,0-19.48-26.71A17.78,17.78,0,0,0,148,374a24.29,24.29,0,0,1,2.31-2.93l.13.18a16.73,16.73,0,0,1,3.8-2.63l19.83,26.23.25.32a23.43,23.43,0,0,0,5.24-5.75,3.82,3.82,0,0,0,.22-.37l.08-.14a15.88,15.88,0,0,0,2.45-6.87,12.52,12.52,0,0,0,.13-1.93A16.72,16.72,0,0,0,165.59,363.58ZM145.42,380a17.47,17.47,0,0,1,.87-2.77A17.47,17.47,0,0,0,145.42,380Z" />
      <path class="GUNDAN_GOAT_OUTFIT_GUNDAN_GOAT_OUTFIT_18_cls-4" d="M296,400.65c-9.2-7.68-4.55-25.23-10.29-33.39a.15.15,0,0,1,0-.06c-.18-.22-.35-.44-.52-.67l-.05,0a9.32,9.32,0,0,0-4-2.75c-2.48-.89-5.62.13-9.09,2.34,0,0,0,0,0,0a9.13,9.13,0,0,0-.84-.46l-.4-.21c-.41-.2-.73-.35-1-.45l-.15-.06,0,0-.21-.08h0a16.76,16.76,0,0,0-5-1.15c-.43,0-.87-.05-1.32-.05A17,17,0,0,0,250.6,369a16.37,16.37,0,0,0-4.38,11.14c0,.29,0,.58,0,.87a7.58,7.58,0,0,0,.09,1.06A15.88,15.88,0,0,0,248.8,389l.08.14a2.74,2.74,0,0,0,.23.37,22.51,22.51,0,0,0,4.39,5.05l.85.7.25-.32,19.82-26.23a16.51,16.51,0,0,1,3.8,2.63l.14-.18a21.93,21.93,0,0,1,2.34,3,15.53,15.53,0,0,0-2.48-2.82L258.74,398l.08,0a17,17,0,0,0,22.77-6.71,16.26,16.26,0,0,0,1.52-3.85,132.26,132.26,0,0,1-1.23,35,26,26,0,0,0,5.47-5.67A4.06,4.06,0,0,1,289.5,419a13.74,13.74,0,0,1,1.17,7.12,15.3,15.3,0,0,1,2.9.62,38.12,38.12,0,0,1,17.54,11.35C311.17,415.07,306.16,409.1,296,400.65Zm-13.66-23.46a16.5,16.5,0,0,1,.87,2.77A16.5,16.5,0,0,0,282.38,377.19Z" />
      <path class="GUNDAN_GOAT_OUTFIT_GUNDAN_GOAT_OUTFIT_18_cls-2" d="M350.79,421.54a47.53,47.53,0,0,0-3-6.45,49.48,49.48,0,0,0-4.34-6.45c-.65-.81-1.32-1.6-2-2.36a1.72,1.72,0,0,0-2.4-.14,1.66,1.66,0,0,0-.13,2.37c.5.55,1,1.1,1.46,1.68a44.12,44.12,0,0,1,7.2,12.5,1.7,1.7,0,0,0,1.6,1.1,1.73,1.73,0,0,0,.58-.1A1.68,1.68,0,0,0,350.79,421.54Z" />
      <path class="GUNDAN_GOAT_OUTFIT_GUNDAN_GOAT_OUTFIT_18_cls-2" d="M333.36,422.44a46.5,46.5,0,0,1-2.52-5.9,44.8,44.8,0,0,1-1.3-4.48,1.69,1.69,0,0,0-2.05-1.25,1.67,1.67,0,0,0-1.27,2,49.46,49.46,0,0,0,1.88,6.11,50.16,50.16,0,0,0,6.43,11.88,1.73,1.73,0,0,0,2.37.38,1.66,1.66,0,0,0,.39-2.34A44.54,44.54,0,0,1,333.36,422.44Z" />
      <path class="GUNDAN_GOAT_OUTFIT_GUNDAN_GOAT_OUTFIT_18_cls-5" d="M281.59,391.33A17,17,0,0,1,258.82,398l-.08,0a26.15,26.15,0,0,1-4.39-2.79l-.85-.7a12.1,12.1,0,0,0-4,1.62,13,13,0,0,0-4.4,4.79,24.66,24.66,0,0,0-2.54,8,49.54,49.54,0,0,0-.5,6.95c0,.68,0,1.35,0,2,0,2.15.17,4,.24,5.34a8.24,8.24,0,0,0,.16,1.24c.5,2.44,2.11,4.56,3.92,6.68,1.24,1.48,2.58,2.95,3.71,4.56,1.21-8.47,1.92-15.46,2.25-18.91a249.32,249.32,0,0,1,26.56,4A133.37,133.37,0,0,0,281.59,391.33Z" />
      <path class="GUNDAN_GOAT_OUTFIT_GUNDAN_GOAT_OUTFIT_18_cls-5" d="M238.11,459.92a15.74,15.74,0,0,1-5.26-.52c-7.24-2.09-10.32-9.43-7.45-14.88a9,9,0,0,1,1-1.47,8.39,8.39,0,0,1,6-2.73,14.86,14.86,0,0,1,3.94.26,9.19,9.19,0,0,0-.64-.74c-.42-.44-.81-.89-1.2-1.38v0a25.24,25.24,0,0,1-4.4-10.29,69.05,69.05,0,0,1-1.35-12l0-.94c-.06-1.57-.07-3.23-.06-5a22.1,22.1,0,0,1,.41-4.06c.12-.6.26-1.19.42-1.78h-39s-4.56-6.82-10.89-14.9a23.43,23.43,0,0,1-5.24,5.75,25.25,25.25,0,0,1-4.4,2.79l-.07,0a17,17,0,0,1-22.78-6.71,134.14,134.14,0,0,0,2.66,29.43h0c7.44-1.62,14.84-2.82,22.1-3.7.94,9.87,4.8,45.26,13.48,65.13h53.53c3-6.88,5.44-15.63,7.36-24.53l-.57.33A17.86,17.86,0,0,1,238.11,459.92Z" />
      <path class="GUNDAN_GOAT_OUTFIT_GUNDAN_GOAT_OUTFIT_18_cls-5" d="M154.25,368.66a16.73,16.73,0,0,0-3.8,2.63L169.93,398a17.21,17.21,0,0,0,4.15-3.11Z" />
      <path class="GUNDAN_GOAT_OUTFIT_GUNDAN_GOAT_OUTFIT_18_cls-5" d="M274.42,368.66,254.6,394.89a17.15,17.15,0,0,0,4.14,3.11l19.48-26.71A16.51,16.51,0,0,0,274.42,368.66Z" />
      <path class="GUNDAN_GOAT_OUTFIT_GUNDAN_GOAT_OUTFIT_18_cls-5" d="M146.8,422.44a25.33,25.33,0,0,1-5.48-5.65,4,4,0,0,0-2.14,2.25,13.62,13.62,0,0,0-1.16,7.12,6.37,6.37,0,0,1,3.54.55c2.74,1.4,3.46,5.16,2.39,8a14.54,14.54,0,0,1-3.72,5.18,3.46,3.46,0,0,1,2.82,1.95,3.66,3.66,0,0,1-.71,3.45,11.72,11.72,0,0,1-2.81,2.38A77.67,77.67,0,0,0,119,469c.52,7,1,11.27,1.3,13.24h48.48v-5.4a134.77,134.77,0,0,1-22-54.33Z" />
      <path class="GUNDAN_GOAT_OUTFIT_GUNDAN_GOAT_OUTFIT_18_cls-5" d="M289.15,447.69a11.58,11.58,0,0,1-2.82-2.38,3.65,3.65,0,0,1-.69-3.45,3.45,3.45,0,0,1,2.81-1.95,14.66,14.66,0,0,1-3.72-5.18c-1.08-2.86-.36-6.62,2.4-8a6.29,6.29,0,0,1,3.54-.55A13.74,13.74,0,0,0,289.5,419a4.06,4.06,0,0,0-2.15-2.25,26,26,0,0,1-5.47,5.67,135,135,0,0,1-22,54.33v5.4H308.4c.26-2,.76-6.21,1.28-13.26A77.85,77.85,0,0,0,289.15,447.69Z" />
      <path class="GUNDAN_GOAT_OUTFIT_GUNDAN_GOAT_OUTFIT_18_cls-5" d="M375.33,369.55a180.72,180.72,0,0,0-48.26,15.78l-1.11.56a150.6,150.6,0,0,0-15.23,8.89q2.76,6.17,6,12.12a6.13,6.13,0,0,0,.78-.46c15.79-10.72,32.78-16.92,45.87-20.46,6.33-1.71,11.75-2.79,15.68-3.45C377.61,378.27,376.63,373.85,375.33,369.55Z" />
      <path class="GUNDAN_GOAT_OUTFIT_GUNDAN_GOAT_OUTFIT_18_cls-5" d="M295.85,377a37.19,37.19,0,0,0,7.5,3.79,7.43,7.43,0,0,0,.43-.95l.48-1.28a157.94,157.94,0,0,1,38.86-58.59c-3.91-1.91-5.09-5.46-9.06-7.21-.45-.19-.88-.39-1.31-.59-15.69,15.88-31,36.49-39.4,57-.62,1.49-1.2,3-1.75,4.47a34.23,34.23,0,0,0,4.14,3.27Z" />
      <path class="GUNDAN_GOAT_OUTFIT_GUNDAN_GOAT_OUTFIT_18_cls-6" d="M123.22,308.73a8.43,8.43,0,0,0-4.91,1.54c-.71.46-1.41.93-2.09,1.41a53.18,53.18,0,0,0-6.49,5.39c.62,6,9.34,17.92,11.47,23.61,3.77,10.05,8.64,19.83,10.37,30.39a7.71,7.71,0,0,1,.05,2.3,2.45,2.45,0,0,1-1.44,2.05,2.67,2.67,0,0,1-2.74-.86,7.55,7.55,0,0,1-1.32-2.68q-1.58-4.61-3.13-9.22c-2.18,1.91-4.28,3.92-6.29,6a111.38,111.38,0,0,0-9,10.54c-1.26,1.68-2.48,3.4-3.64,5.15A30.32,30.32,0,0,0,124,396.88c2.27-1.93,4.25-3.1,5.35-4.42,3.58-4.28,1.46-8.09,4.34-18.52h0c.09-.32.18-.64.29-1a25.78,25.78,0,0,1,4-8.4C123.55,344.06,123.22,308.73,123.22,308.73Z" />
      <path class="GUNDAN_GOAT_OUTFIT_GUNDAN_GOAT_OUTFIT_18_cls-6" d="M111.06,434.72c0-1.48.1-2.89.19-4.24A35.57,35.57,0,0,1,86.89,426a110.27,110.27,0,0,0-1.78,13.78c-.17,2.57-.24,5.12-.21,7.69,0,2.87-3.07,4.87-6.2,5.59A88.93,88.93,0,0,1,99.52,470s2,2.67,4,6a7.37,7.37,0,0,0-1.58,1.72,7.11,7.11,0,0,0-1.07,2.92l-1.07-.74c-2.12-3-4.32-6-4.32-6-7.31-8.29-16.54-14.77-26.3-20a227.72,227.72,0,0,0-22.74-10.41,54.92,54.92,0,0,1-7.24,9.87l.32-.17c.71,3.89,2.13,7.43,5.07,10.13a13,13,0,0,0-8.9,7.7c-1,2.74-.72,5.95,1.46,7.95L33,482.19h79.56c-.45-3.18-1.47-12.2-1.63-28.85C110.83,448,110.88,441.76,111.06,434.72Z" />
      <path class="GUNDAN_GOAT_OUTFIT_GUNDAN_GOAT_OUTFIT_18_cls-6" d="M101.46,388.42q-1.62,2.67-3.07,5.39a113.27,113.27,0,0,0-7,15.91,117.54,117.54,0,0,0-3.44,11.59,30.71,30.71,0,0,0,23.73,4.55c1.38-13.33,5-20.69,8.63-25.21A35.08,35.08,0,0,1,101.46,388.42Z" />
      <path class="GUNDAN_GOAT_OUTFIT_GUNDAN_GOAT_OUTFIT_18_cls-6" d="M135,306l-3.46,2.19s-.3,28,15.81,50.36a22.51,22.51,0,0,1,2.81-.45c6.4-.62,9.44.7,14.07,5.49.43,0,.88-.05,1.32-.05a16.72,16.72,0,0,1,16.86,16.57,12.52,12.52,0,0,1-.13,1.93l6.29,6.36c4.77-3.85,22.42-7.79,27.08-11.8-11.22-8.14-33.37-21.2-47.25-34.16C156.66,331.49,141.75,320.54,135,306Z" />
      <path class="GUNDAN_GOAT_OUTFIT_GUNDAN_GOAT_OUTFIT_18_cls-6" d="M349.49,416.43a33.83,33.83,0,0,0,18.69,11.78,32.45,32.45,0,0,0,21.25-2.43,47.13,47.13,0,0,0-5.13-10.66c-.14-.24-.29-.47-.45-.72a117.77,117.77,0,0,0-9-11.81c-.9-.08-1.8-.13-2.7-.14a65.74,65.74,0,0,0-28.65,6.19,49.48,49.48,0,0,1,4.34,6.45A4.74,4.74,0,0,1,349.49,416.43Z" />
      <path class="GUNDAN_GOAT_OUTFIT_GUNDAN_GOAT_OUTFIT_18_cls-6" d="M316.15,482.19h83.48a16.23,16.23,0,0,1-3.94-17.82,5.73,5.73,0,0,1-3.23-3.52,16.75,16.75,0,0,1-.74-4.84c0-.35,0-.71-.05-1.05a71.18,71.18,0,0,1-30.73-3.36,74,74,0,0,1-29.09-18.53c-.69-.71-1.35-1.42-2-2.15a5.22,5.22,0,0,1,.18-7.09l.16-.15a50.2,50.2,0,0,1-2.08-4.75c-.91.84-1.8,1.72-2.65,2.62q-4.69-7.12-8.73-14.65-3.23-5.94-6-12.12-3-6.57-5.45-13.37l-1.93-.67a37.19,37.19,0,0,1-7.5-3.79l-.11-.07a57.58,57.58,0,0,1,1.05,7.3h0c.32,3.51.49,5.82,2.56,8.28,1.47,1.77,4.52,3.27,7.72,6.68a29.83,29.83,0,0,1,5.51,8.41c2.64,5.85,4.68,14.35,5,27.17.18,7,.23,13.23.17,18.62C317.62,470,316.6,479,316.15,482.19Z" />
      <path class="GUNDAN_GOAT_OUTFIT_GUNDAN_GOAT_OUTFIT_18_cls-6" d="M336.76,424a64.68,64.68,0,0,0,27.11,18,62,62,0,0,0,27.25,2.89c-.16-2.94-.33-5.87-.49-8.81a41.74,41.74,0,0,1-15.35,2.93,41.24,41.24,0,0,1-9.11-1,43.39,43.39,0,0,1-23.94-15.09,5.24,5.24,0,0,1,.55-7.09,4.39,4.39,0,0,1,1.11-.74,42.2,42.2,0,0,0-3.5-4.92,59.79,59.79,0,0,0-9.55,6.35,46.5,46.5,0,0,0,2.52,5.9A4.63,4.63,0,0,1,336.76,424Z" />
      <path class="GUNDAN_GOAT_OUTFIT_GUNDAN_GOAT_OUTFIT_18_cls-6" d="M318.41,310c-4.42-2.38-8.79-4.88-13.05-7.55-7.84,10.51-33.06,41.74-55.57,65.87A268.26,268.26,0,0,1,226.23,391h10.35a58.37,58.37,0,0,1,4.71-5.38,66.91,66.91,0,0,1,5-4.64c0-.29,0-.58,0-.87A16.37,16.37,0,0,1,250.6,369a17,17,0,0,1,12.48-5.43c.45,0,.89,0,1.32.05,4.63-4.79,7.67-6.11,14.07-5.49a20.88,20.88,0,0,1,3.13.53c.57-1.15,1.14-2.3,1.69-3.46a187.35,187.35,0,0,1,11.13-20.53C300.13,326,310.13,316.38,318.41,310Z" />
      <path class="GUNDAN_GOAT_OUTFIT_GUNDAN_GOAT_OUTFIT_18_cls-3" d="M149.74,420.76a134.14,134.14,0,0,1-2.66-29.43,16.51,16.51,0,0,1-1.5-3.81,131.76,131.76,0,0,0,1.22,34.92v0a134.77,134.77,0,0,0,22,54.33v5.4h6.76v-5a135.89,135.89,0,0,1-25.78-56.41Z" />
      <path class="GUNDAN_GOAT_OUTFIT_GUNDAN_GOAT_OUTFIT_18_cls-3" d="M281.59,391.33a133.37,133.37,0,0,1-2.66,29.43,136,136,0,0,1-25.79,56.41v5h6.77v-5.4a135,135,0,0,0,22-54.33,132.26,132.26,0,0,0,1.23-35A16.26,16.26,0,0,1,281.59,391.33Z" />
      <path class="GUNDAN_GOAT_OUTFIT_GUNDAN_GOAT_OUTFIT_18_cls-3" d="M401.42,448.17a4.79,4.79,0,0,0-5.57-4c-1.56.31-3.14.57-4.73.76A62,62,0,0,1,363.87,442a64.68,64.68,0,0,1-27.11-18,4.63,4.63,0,0,0-3.4-1.58,44.54,44.54,0,0,0,3.93,6.41,1.66,1.66,0,0,1-.39,2.34,1.73,1.73,0,0,1-2.37-.38,50.66,50.66,0,0,1-4.35-7.13l-.16.15a5.22,5.22,0,0,0-.18,7.09c.66.73,1.32,1.44,2,2.15a74,74,0,0,0,29.09,18.53A71.18,71.18,0,0,0,391.67,455c2-.23,4-.53,5.95-.93A5,5,0,0,0,401.42,448.17Z" />
      <path class="GUNDAN_GOAT_OUTFIT_GUNDAN_GOAT_OUTFIT_18_cls-3" d="M368.18,428.21a33.83,33.83,0,0,1-18.69-11.78,4.74,4.74,0,0,0-1.67-1.34,47.53,47.53,0,0,1,3,6.45,1.68,1.68,0,0,1-1,2.15,1.73,1.73,0,0,1-.58.1,1.7,1.7,0,0,1-1.6-1.1,42.5,42.5,0,0,0-3.7-7.58,4.39,4.39,0,0,0-1.11.74,5.24,5.24,0,0,0-.55,7.09A43.39,43.39,0,0,0,366.17,438a41.24,41.24,0,0,0,9.11,1,41.74,41.74,0,0,0,15.35-2.93c1.1-.43,2.18-.91,3.25-1.44a5.14,5.14,0,0,0,2.27-6.68,4.66,4.66,0,0,0-6.34-2.4l-.38.18A32.45,32.45,0,0,1,368.18,428.21Z" />
      <path class="GUNDAN_GOAT_OUTFIT_GUNDAN_GOAT_OUTFIT_18_cls-3" d="M326.11,385.31l1,0a180.72,180.72,0,0,1,48.26-15.78c0-.06,0-.13-.06-.18a40.78,40.78,0,0,0-5.35-11.73l.63-.92a2.85,2.85,0,0,1-.35.17c2.12-3.87,4.75-9,2.51-12.76-.25-.44-.52-.86-.78-1.28h0c-4.34-6.79-10.61-12.28-17.47-16.67a108.59,108.59,0,0,0-11.33-6.26,157.94,157.94,0,0,0-38.86,58.59l-.48,1.28a7.43,7.43,0,0,1-.43.95l1.93.67q2.46,6.79,5.45,13.37A150.6,150.6,0,0,1,326,385.89C326,385.7,326.07,385.5,326.11,385.31Zm26.45-39.68c-.65.4-1.29.82-1.92,1.27h0C351.27,346.45,351.91,346,352.56,345.63Z" />
      <path class="GUNDAN_GOAT_OUTFIT_GUNDAN_GOAT_OUTFIT_18_cls-3" d="M322.11,307.23q-1.89,1.32-3.7,2.72c-8.28,6.43-18.28,16-24,24.73a187.35,187.35,0,0,0-11.13,20.53c-.55,1.16-1.12,2.31-1.69,3.46-.27.58-.56,1.15-.84,1.72,1.43,2.07,2.86,4.12,4.38,6.09l.05,0a8,8,0,0,1,.52.67.15.15,0,0,0,0,.06,50.34,50.34,0,0,0,5.85,6.35c.55-1.5,1.13-3,1.75-4.47,8.43-20.53,23.71-41.14,39.4-57C329.18,310.51,325.72,308.83,322.11,307.23Z" />
      <path class="GUNDAN_GOAT_OUTFIT_GUNDAN_GOAT_OUTFIT_18_cls-3" d="M327.49,410.81a1.69,1.69,0,0,1,2.05,1.25,44.8,44.8,0,0,0,1.3,4.48,59.79,59.79,0,0,1,9.55-6.35c-.47-.58-1-1.13-1.46-1.68a1.66,1.66,0,0,1,.13-2.37,1.72,1.72,0,0,1,2.4.14c.7.76,1.37,1.55,2,2.36a65.74,65.74,0,0,1,28.65-6.19c.9,0,1.8.06,2.7.14a117.77,117.77,0,0,1,9,11.81c.16.25.31.48.45.72a12.91,12.91,0,0,0,3.31-8.15,24.6,24.6,0,0,0-2.48-11c-1.52-3.47-3.42-6.76-4.88-10.25-.44-1.06-.83-2.13-1.2-3.23-3.93.66-9.35,1.74-15.68,3.45-13.09,3.54-30.08,9.74-45.87,20.46a6.13,6.13,0,0,1-.78.46q4,7.52,8.73,14.65c.85-.9,1.74-1.78,2.65-2.62a49.46,49.46,0,0,1-1.88-6.11A1.67,1.67,0,0,1,327.49,410.81Z" />
      <path class="GUNDAN_GOAT_OUTFIT_GUNDAN_GOAT_OUTFIT_18_cls-2" d="M149.75,420.76a135.89,135.89,0,0,0,25.78,56.41v5h9.8c-8.68-19.87-12.54-55.26-13.48-65.13C164.59,417.94,157.19,419.14,149.75,420.76Z" />
      <path class="GUNDAN_GOAT_OUTFIT_GUNDAN_GOAT_OUTFIT_18_cls-2" d="M250.12,435.68a14,14,0,0,1,2.55,5.62,10.89,10.89,0,0,1,.17,2.24c-.18,6.16-1.94,11.33-6.62,14.12-1.92,8.9-4.35,17.65-7.36,24.53h14.28v-5a136,136,0,0,0,25.79-56.41,249.32,249.32,0,0,0-26.56-4C252,420.22,251.33,427.21,250.12,435.68Z" />
      <path class="GUNDAN_GOAT_OUTFIT_GUNDAN_GOAT_OUTFIT_18_cls-2" d="M305.37,302.4c-7.84,10.51-33.07,41.74-55.58,65.88A269.49,269.49,0,0,1,226.24,391H191.19l-2.58-2.6c4.77-3.85,22.42-7.79,27.09-11.8l-.54-.38c-11.43-8-23.88-16.71-42.54-30.59-12.52-9.31-29.75-24.16-36.92-38.26-.23-.46-.45-.91-.66-1.37l3.76-2.38s3.16-4.61,5.36-7.13c15.64,26,57.3,54.33,84.21,69a743.9,743.9,0,0,0,67.3-69C298.55,298.59,302.37,300.54,305.37,302.4Z" />
      <path class="GUNDAN_GOAT_OUTFIT_GUNDAN_GOAT_OUTFIT_18_cls-7" d="M144.16,296.53c15.64,26,57.29,54.33,84.21,69" />
      <path class="GUNDAN_GOAT_OUTFIT_GUNDAN_GOAT_OUTFIT_18_cls-7" d="M215.7,376.64l-.54-.38c-11.43-8-23.88-16.71-42.54-30.59-12.52-9.31-29.75-24.16-36.92-38.26-.23-.46-.45-.91-.66-1.37" />
      <path class="GUNDAN_GOAT_OUTFIT_GUNDAN_GOAT_OUTFIT_18_cls-7" d="M87.9,421.31a117.54,117.54,0,0,1,3.44-11.59,113.27,113.27,0,0,1,7-15.91q1.45-2.71,3.07-5.39" />
      <path class="GUNDAN_GOAT_OUTFIT_GUNDAN_GOAT_OUTFIT_18_cls-7" d="M86.89,426a110.27,110.27,0,0,0-1.78,13.78c-.17,2.57-.24,5.12-.21,7.69,0,2.87-3.07,4.87-6.2,5.59" />
      <path class="GUNDAN_GOAT_OUTFIT_GUNDAN_GOAT_OUTFIT_18_cls-7" d="M104.07,384.35c1.16-1.75,2.38-3.47,3.64-5.15a111.38,111.38,0,0,1,9-10.54c2-2.08,4.11-4.09,6.29-6" />
      <path class="GUNDAN_GOAT_OUTFIT_GUNDAN_GOAT_OUTFIT_18_cls-7" d="M116.22,311.68c-.58-2.85-1.15-5.68-1.72-8.53a10.23,10.23,0,0,0-1.07-3.3,3.6,3.6,0,0,0-2.82-1.87c-1.87-.06-3.21,1.73-4,3.4-.24.5-.45,1-.66,1.54a33.14,33.14,0,0,0-1.46,16.31c.83,6,9.74,17.75,11.7,23.5L123,362.66q1.56,4.6,3.13,9.22a7.55,7.55,0,0,0,1.32,2.68,2.67,2.67,0,0,0,2.74.86,2.45,2.45,0,0,0,1.44-2.05,7.71,7.71,0,0,0-.05-2.3c-1.73-10.56-6.6-20.34-10.37-30.39-2.13-5.69-10.85-17.6-11.47-23.61a36.67,36.67,0,0,1,.93-13.72" />
      <path class="GUNDAN_GOAT_OUTFIT_GUNDAN_GOAT_OUTFIT_18_cls-7" d="M106,302.92l-2.61,1c-3.75,1.39-2.51,8-5.83,10.25s-4.27,6-5.36,9.82a23,23,0,0,0-17.23,17.78c-3.67,2.08-6.17,5.74-7.88,9.54a38.07,38.07,0,0,0-3.33,15.21,21.62,21.62,0,0,0-8,10,20.94,20.94,0,0,0-.51,12.6A23.85,23.85,0,0,0,49,409.4a10,10,0,0,0-2.65,5.36,37.75,37.75,0,0,0,1.3,20c-.93.78-1.86,1.66-2.79,2.5l-1.25,1.09c-.82.7-1,1.9-1.47,2.87l-.08.47" />
      <path class="GUNDAN_GOAT_OUTFIT_GUNDAN_GOAT_OUTFIT_18_cls-7" d="M92.17,324s6.08,28.06,24.53,44.7" />
      <path class="GUNDAN_GOAT_OUTFIT_GUNDAN_GOAT_OUTFIT_18_cls-7" d="M74.94,341.74s12.1,29.9,32.77,37.46" />
      <path class="GUNDAN_GOAT_OUTFIT_GUNDAN_GOAT_OUTFIT_18_cls-7" d="M63.73,366.49S69,383.21,98.38,393.81" />
      <path class="GUNDAN_GOAT_OUTFIT_GUNDAN_GOAT_OUTFIT_18_cls-7" d="M55.26,389.13S68,404.24,91.33,409.72" />
      <path class="GUNDAN_GOAT_OUTFIT_GUNDAN_GOAT_OUTFIT_18_cls-7" d="M49,409.4s8.33,15,37.21,16.12" />
      <path class="GUNDAN_GOAT_OUTFIT_GUNDAN_GOAT_OUTFIT_18_cls-7" d="M144.16,296.53c-2.2,2.52-5.36,7.13-5.36,7.13L135,306l-3.46,2.19a5.08,5.08,0,0,0-4.36-2.07,4.94,4.94,0,0,0-4,2.57,8.43,8.43,0,0,0-4.91,1.54c-.71.46-1.41.93-2.09,1.41a53.18,53.18,0,0,0-6.49,5.39" />
      <path class="GUNDAN_GOAT_OUTFIT_GUNDAN_GOAT_OUTFIT_18_cls-7" d="M147.39,358.59c-16.11-22.37-15.81-50.36-15.81-50.36" />
      <path class="GUNDAN_GOAT_OUTFIT_GUNDAN_GOAT_OUTFIT_18_cls-7" d="M138,364.56c-14.4-20.5-14.73-55.83-14.73-55.83" />
      <path class="GUNDAN_GOAT_OUTFIT_GUNDAN_GOAT_OUTFIT_18_cls-7" d="M111.63,425.86c1.38-13.33,5-20.69,8.63-25.21" />
      <path class="GUNDAN_GOAT_OUTFIT_GUNDAN_GOAT_OUTFIT_18_cls-7" d="M112.52,482.19c-.45-3.18-1.47-12.2-1.63-28.85-.06-5.39,0-11.58.17-18.62,0-1.48.1-2.89.19-4.24" />
      <path class="GUNDAN_GOAT_OUTFIT_GUNDAN_GOAT_OUTFIT_18_cls-7" d="M124,396.88c2.27-1.93,4.25-3.1,5.35-4.42,3.58-4.28,1.46-8.09,4.34-18.52.09-.32.18-.64.29-1a25.78,25.78,0,0,1,4-8.4,15.56,15.56,0,0,1,9.44-6,22.51,22.51,0,0,1,2.81-.45c6.4-.62,9.44.7,14.07,5.49" />
      <path class="GUNDAN_GOAT_OUTFIT_GUNDAN_GOAT_OUTFIT_18_cls-7" d="M182.32,382.08l6.29,6.36,2.58,2.6" />
      <path class="GUNDAN_GOAT_OUTFIT_GUNDAN_GOAT_OUTFIT_18_cls-7" d="M156.66,366.07c-3.46-2.21-6.61-3.23-9.1-2.34-12.68,4.56-4,27.75-14.93,36.92q-1.89,1.58-3.54,3.07c-6.25,5.76-10,11.48-11.12,24.1-.28,3-.42,6.42-.41,10.31,0,1.93,0,4,.13,6.19.14,4.21.3,8,.48,11.49.27,5.16.54,9.52.82,13.14.52,7,1,11.27,1.3,13.24" />
      <path class="GUNDAN_GOAT_OUTFIT_GUNDAN_GOAT_OUTFIT_18_cls-7" d="M190.83,404.36h-.37s-4.56-6.82-10.89-14.9" />
      <path class="GUNDAN_GOAT_OUTFIT_GUNDAN_GOAT_OUTFIT_18_cls-7" d="M148,374a17.78,17.78,0,0,1,2.44-2.75,16.73,16.73,0,0,1,3.8-2.63,16.9,16.9,0,0,1,7.65-1.8,16.71,16.71,0,0,1,16.86,16.57,15.45,15.45,0,0,1-.58,4.27h0a16.34,16.34,0,0,1-4.1,7.18,17.21,17.21,0,0,1-4.15,3.11" />
      <path class="GUNDAN_GOAT_OUTFIT_GUNDAN_GOAT_OUTFIT_18_cls-7" d="M145.58,387.51a15.8,15.8,0,0,1-.53-4.08,16.33,16.33,0,0,1,1.85-7.55" />
      <path class="GUNDAN_GOAT_OUTFIT_GUNDAN_GOAT_OUTFIT_18_cls-7" d="M169.86,398a17,17,0,0,1-22.78-6.71,16.51,16.51,0,0,1-1.5-3.81" />
      <path class="GUNDAN_GOAT_OUTFIT_GUNDAN_GOAT_OUTFIT_18_cls-7" d="M159,364.89l-.15.06" />
      <path class="GUNDAN_GOAT_OUTFIT_GUNDAN_GOAT_OUTFIT_18_cls-7" d="M179.87,389a15.88,15.88,0,0,0,2.45-6.87,12.52,12.52,0,0,0,.13-1.93,16.72,16.72,0,0,0-16.86-16.57c-.44,0-.89,0-1.32.05a16.91,16.91,0,0,0-5,1.15" />
      <path class="GUNDAN_GOAT_OUTFIT_GUNDAN_GOAT_OUTFIT_18_cls-7" d="M159.29,364.78l-.27.11-.15.06c-.3.13-.78.35-1.37.66a9.13,9.13,0,0,0-.84.46,25.75,25.75,0,0,0-6.34,5A24.29,24.29,0,0,0,148,374c-.38.58-.76,1.2-1.11,1.84" />
      <path class="GUNDAN_GOAT_OUTFIT_GUNDAN_GOAT_OUTFIT_18_cls-7" d="M169.86,398l.07,0a25.25,25.25,0,0,0,4.4-2.79,23.43,23.43,0,0,0,5.24-5.75,3.82,3.82,0,0,0,.22-.37l.08-.14" />
      <path class="GUNDAN_GOAT_OUTFIT_GUNDAN_GOAT_OUTFIT_18_cls-7" d="M149.75,420.76a135.89,135.89,0,0,0,25.78,56.41v5" />
      <path class="GUNDAN_GOAT_OUTFIT_GUNDAN_GOAT_OUTFIT_18_cls-7" d="M147.08,391.33a134.14,134.14,0,0,0,2.66,29.43" />
      <path class="GUNDAN_GOAT_OUTFIT_GUNDAN_GOAT_OUTFIT_18_cls-7" d="M146.8,422.46a134.77,134.77,0,0,0,22,54.33v5.4" />
      <path class="GUNDAN_GOAT_OUTFIT_GUNDAN_GOAT_OUTFIT_18_cls-7" d="M145.58,387.51h0a131.76,131.76,0,0,0,1.22,34.92" />
      <path class="GUNDAN_GOAT_OUTFIT_GUNDAN_GOAT_OUTFIT_18_cls-7" d="M140.23,439.91a14.54,14.54,0,0,0,3.72-5.18c1.07-2.86.35-6.62-2.39-8a6.37,6.37,0,0,0-3.54-.55,14.46,14.46,0,0,0-2.92.62,38.18,38.18,0,0,0-17.54,11.35" />
      <path class="GUNDAN_GOAT_OUTFIT_GUNDAN_GOAT_OUTFIT_18_cls-7" d="M146.8,422.46v0a25.33,25.33,0,0,1-5.48-5.65,4,4,0,0,0-2.14,2.25,13.52,13.52,0,0,0-1.16,7.12" />
      <path class="GUNDAN_GOAT_OUTFIT_GUNDAN_GOAT_OUTFIT_18_cls-7" d="M124,396.88a25.69,25.69,0,0,0,2.9.31,2.24,2.24,0,0,1-.13,4.47h-.14a33.22,33.22,0,0,1-6.34-1,35.08,35.08,0,0,1-18.8-12.23,31.34,31.34,0,0,1-2.64-4,2.22,2.22,0,0,1,.88-3,2.31,2.31,0,0,1,3.09.87c.4.7.82,1.38,1.28,2.05A30.32,30.32,0,0,0,124,396.88Z" />
      <path class="GUNDAN_GOAT_OUTFIT_GUNDAN_GOAT_OUTFIT_18_cls-7" d="M116.79,427.71a2.24,2.24,0,0,1-1.43,1.75.38.38,0,0,0-.12.05,32.22,32.22,0,0,1-4,1A35.57,35.57,0,0,1,86.89,426c-.25-.14-.49-.3-.73-.46A29.25,29.25,0,0,1,83,423.25a2.2,2.2,0,0,1-.29-3.14,2.3,2.3,0,0,1,3.2-.28c.63.52,1.28,1,2,1.48a30.71,30.71,0,0,0,23.73,4.55c.75-.18,1.48-.37,2.22-.6a2.27,2.27,0,0,1,2.86,1.44A2.07,2.07,0,0,1,116.79,427.71Z" />
      <path class="GUNDAN_GOAT_OUTFIT_GUNDAN_GOAT_OUTFIT_18_cls-7" d="M102.71,449.86c-1.78-6.66-4.07-13.76-6.43-17.75" />
      <ellipse class="GUNDAN_GOAT_OUTFIT_GUNDAN_GOAT_OUTFIT_18_cls-7" cx="136.1" cy="434.17" rx="3.6" ry="3.54" />
      <path class="GUNDAN_GOAT_OUTFIT_GUNDAN_GOAT_OUTFIT_18_cls-7" d="M296.8,384.19c.32,3.5.49,5.81,2.56,8.27,1.47,1.77,4.52,3.27,7.72,6.68a29.83,29.83,0,0,1,5.51,8.41c2.64,5.85,4.68,14.35,5,27.17.18,7,.23,13.23.17,18.62-.16,16.65-1.18,25.67-1.63,28.85" />
      <path class="GUNDAN_GOAT_OUTFIT_GUNDAN_GOAT_OUTFIT_18_cls-7" d="M295.74,376.88a57.45,57.45,0,0,1,1.05,7.31" />
      <path class="GUNDAN_GOAT_OUTFIT_GUNDAN_GOAT_OUTFIT_18_cls-7" d="M264.4,363.63c4.63-4.79,7.67-6.11,14.07-5.49a20.88,20.88,0,0,1,3.13.53" />
      <polyline class="GUNDAN_GOAT_OUTFIT_GUNDAN_GOAT_OUTFIT_18_cls-7" points="190.83 391.04 191.19 391.04 226.23 391.04 236.58 391.04" />
      <path class="GUNDAN_GOAT_OUTFIT_GUNDAN_GOAT_OUTFIT_18_cls-7" d="M285.75,367.26c5.74,8.16,1.09,25.71,10.29,33.39,10.12,8.45,15.13,14.42,15.07,37.48" />
      <path class="GUNDAN_GOAT_OUTFIT_GUNDAN_GOAT_OUTFIT_18_cls-7" d="M285.19,366.53a8,8,0,0,1,.52.67" />
      <path class="GUNDAN_GOAT_OUTFIT_GUNDAN_GOAT_OUTFIT_18_cls-7" d="M272,366.07c3.47-2.21,6.61-3.23,9.09-2.34a9.32,9.32,0,0,1,4,2.75" />
      <line class="GUNDAN_GOAT_OUTFIT_GUNDAN_GOAT_OUTFIT_18_cls-7" x1="229.51" y1="404.36" x2="190.83" y2="404.36" />
      <path class="GUNDAN_GOAT_OUTFIT_GUNDAN_GOAT_OUTFIT_18_cls-7" d="M258.82,398a17,17,0,0,0,22.77-6.71,16.26,16.26,0,0,0,1.52-3.85,16,16,0,0,0,.51-4.05,16.33,16.33,0,0,0-1.85-7.55c-.28-.51-.58-1-.88-1.48l-.19-.29a15.53,15.53,0,0,0-2.48-2.82,16.51,16.51,0,0,0-3.8-2.63,16.92,16.92,0,0,0-24.51,14.77,15.45,15.45,0,0,0,.58,4.27h0a16.46,16.46,0,0,0,4.11,7.18,17.15,17.15,0,0,0,4.14,3.11" />
      <path class="GUNDAN_GOAT_OUTFIT_GUNDAN_GOAT_OUTFIT_18_cls-7" d="M270.77,365.4l.4.21" />
      <path class="GUNDAN_GOAT_OUTFIT_GUNDAN_GOAT_OUTFIT_18_cls-7" d="M269.6,364.86l0,0,.15.06" />
      <path class="GUNDAN_GOAT_OUTFIT_GUNDAN_GOAT_OUTFIT_18_cls-7" d="M248.8,389a15.88,15.88,0,0,1-2.45-6.87,7.58,7.58,0,0,1-.09-1.06c0-.29,0-.58,0-.87A16.37,16.37,0,0,1,250.6,369a17,17,0,0,1,12.48-5.43c.45,0,.89,0,1.32.05a16.76,16.76,0,0,1,5,1.15h0" />
      <path class="GUNDAN_GOAT_OUTFIT_GUNDAN_GOAT_OUTFIT_18_cls-7" d="M269.39,364.78l.21.08.2.09c.24.1.56.24,1,.45a2.6,2.6,0,0,1,.4.21,9.13,9.13,0,0,1,.84.46s0,0,0,0a25.75,25.75,0,0,1,6.34,5,21.93,21.93,0,0,1,2.34,3,19.4,19.4,0,0,1,1.08,1.77" />
      <path class="GUNDAN_GOAT_OUTFIT_GUNDAN_GOAT_OUTFIT_18_cls-7" d="M258.82,398l-.08,0a26.15,26.15,0,0,1-4.39-2.79l-.85-.7a22.51,22.51,0,0,1-4.39-5.05,2.74,2.74,0,0,1-.23-.37l-.08-.14" />
      <path class="GUNDAN_GOAT_OUTFIT_GUNDAN_GOAT_OUTFIT_18_cls-7" d="M281.59,391.33a133.37,133.37,0,0,1-2.66,29.43,136,136,0,0,1-25.79,56.41v5" />
      <path class="GUNDAN_GOAT_OUTFIT_GUNDAN_GOAT_OUTFIT_18_cls-7" d="M283.11,387.48a132.26,132.26,0,0,1-1.23,35,135,135,0,0,1-22,54.33v5.4" />
      <path class="GUNDAN_GOAT_OUTFIT_GUNDAN_GOAT_OUTFIT_18_cls-7" d="M288.45,439.91a14.66,14.66,0,0,1-3.72-5.18c-1.08-2.86-.36-6.62,2.4-8a6.29,6.29,0,0,1,3.54-.55,15.3,15.3,0,0,1,2.9.62,38.12,38.12,0,0,1,17.54,11.35h0" />
      <path class="GUNDAN_GOAT_OUTFIT_GUNDAN_GOAT_OUTFIT_18_cls-7" d="M281.88,422.46a26,26,0,0,0,5.47-5.67A4.06,4.06,0,0,1,289.5,419a13.74,13.74,0,0,1,1.17,7.12" />
      <ellipse class="GUNDAN_GOAT_OUTFIT_GUNDAN_GOAT_OUTFIT_18_cls-7" cx="292.57" cy="434.17" rx="3.6" ry="3.54" />
      <path class="GUNDAN_GOAT_OUTFIT_GUNDAN_GOAT_OUTFIT_18_cls-7" d="M343.12,319.92a108.59,108.59,0,0,1,11.33,6.26c6.86,4.39,13.13,9.88,17.48,16.67.26.42.53.84.78,1.28,2.24,3.8-.39,8.89-2.51,12.76a2.85,2.85,0,0,0,.35-.17l-.63.92" />
      <path class="GUNDAN_GOAT_OUTFIT_GUNDAN_GOAT_OUTFIT_18_cls-7" d="M327.07,385.33l-1,0a66.34,66.34,0,0,1-8.55-1.06,88.2,88.2,0,0,1-12.28-2.84l-1.93-.67a37.19,37.19,0,0,1-7.5-3.79l-.11-.07a34.23,34.23,0,0,1-4.14-3.27,50.34,50.34,0,0,1-5.85-6.35.15.15,0,0,1,0-.06c-.18-.22-.35-.44-.52-.67l-.05,0c-1.52-2-2.95-4-4.38-6.09.28-.57.57-1.14.84-1.72.57-1.15,1.14-2.3,1.69-3.46a187.35,187.35,0,0,1,11.13-20.53c5.71-8.73,15.71-18.3,24-24.73q1.81-1.4,3.7-2.72c3.61,1.6,7.07,3.28,10.64,4.89" />
      <path class="GUNDAN_GOAT_OUTFIT_GUNDAN_GOAT_OUTFIT_18_cls-7" d="M350.63,346.9a48.2,48.2,0,0,0-8.52,7.87,74.73,74.73,0,0,0-16,30.54l-.15.58" />
      <path class="GUNDAN_GOAT_OUTFIT_GUNDAN_GOAT_OUTFIT_18_cls-7" d="M371.93,342.85a21.48,21.48,0,0,0-13.13-.07,28.88,28.88,0,0,0-8.16,4.12" />
      <path class="GUNDAN_GOAT_OUTFIT_GUNDAN_GOAT_OUTFIT_18_cls-7" d="M384.3,415.12a12.91,12.91,0,0,0,3.31-8.15,24.6,24.6,0,0,0-2.48-11c-1.52-3.47-3.42-6.76-4.88-10.25-.44-1.06-.83-2.13-1.2-3.23-1.44-4.26-2.42-8.68-3.72-13,0-.06,0-.13-.06-.18a40.78,40.78,0,0,0-5.35-11.73,24,24,0,0,0-2.74-3.23c-4.39-4.3-10.34-6.54-16.54-7.51h0" />
      <path class="GUNDAN_GOAT_OUTFIT_GUNDAN_GOAT_OUTFIT_18_cls-7" d="M383.92,410.13c.13-2.6-1.74-5-4.09-6.2a13.8,13.8,0,0,0-5-1.34c-.9-.08-1.8-.13-2.7-.14a65.74,65.74,0,0,0-28.65,6.19" />
      <path class="GUNDAN_GOAT_OUTFIT_GUNDAN_GOAT_OUTFIT_18_cls-7" d="M328.1,418.93c-.91.84-1.8,1.72-2.65,2.62q-4.69-7.12-8.73-14.65-3.23-5.94-6-12.12-3-6.57-5.45-13.37" />
      <path class="GUNDAN_GOAT_OUTFIT_GUNDAN_GOAT_OUTFIT_18_cls-7" d="M304.26,378.51c0-.12-.08-.22-.12-.33" />
      <path class="GUNDAN_GOAT_OUTFIT_GUNDAN_GOAT_OUTFIT_18_cls-7" d="M340.39,410.19a59.79,59.79,0,0,0-9.55,6.35" />
      <path class="GUNDAN_GOAT_OUTFIT_GUNDAN_GOAT_OUTFIT_18_cls-7" d="M374.83,402.59a117.77,117.77,0,0,1,9,11.81c.16.25.31.48.45.72a47.13,47.13,0,0,1,5.13,10.66" />
      <path class="GUNDAN_GOAT_OUTFIT_GUNDAN_GOAT_OUTFIT_18_cls-7" d="M347.82,415.09a49.48,49.48,0,0,0-4.34-6.45c-.65-.81-1.32-1.6-2-2.36a1.72,1.72,0,0,0-2.4-.14,1.66,1.66,0,0,0-.13,2.37c.5.55,1,1.1,1.46,1.68a42.2,42.2,0,0,1,3.5,4.92" />
      <path class="GUNDAN_GOAT_OUTFIT_GUNDAN_GOAT_OUTFIT_18_cls-7" d="M333.36,422.44a44.54,44.54,0,0,0,3.93,6.41,1.66,1.66,0,0,1-.39,2.34,1.73,1.73,0,0,1-2.37-.38,50.16,50.16,0,0,1-6.43-11.88,49.46,49.46,0,0,1-1.88-6.11,1.67,1.67,0,0,1,1.27-2,1.69,1.69,0,0,1,2.05,1.25,44.8,44.8,0,0,0,1.3,4.48A46.5,46.5,0,0,0,333.36,422.44Z" />
      <path class="GUNDAN_GOAT_OUTFIT_GUNDAN_GOAT_OUTFIT_18_cls-7" d="M389.43,425.78l.38-.18a4.66,4.66,0,0,1,6.34,2.4,5.14,5.14,0,0,1-2.27,6.68c-1.07.53-2.15,1-3.25,1.44a41.74,41.74,0,0,1-15.35,2.93,41.24,41.24,0,0,1-9.11-1,43.39,43.39,0,0,1-23.94-15.09,5.24,5.24,0,0,1,.55-7.09,4.39,4.39,0,0,1,1.11-.74,42.5,42.5,0,0,1,3.7,7.58,1.7,1.7,0,0,0,1.6,1.1,1.73,1.73,0,0,0,.58-.1,1.68,1.68,0,0,0,1-2.15,47.53,47.53,0,0,0-3-6.45,4.74,4.74,0,0,1,1.67,1.34,33.83,33.83,0,0,0,18.69,11.78A32.45,32.45,0,0,0,389.43,425.78Z" />
      <path class="GUNDAN_GOAT_OUTFIT_GUNDAN_GOAT_OUTFIT_18_cls-7" d="M330.18,423.68l-.16.15a5.22,5.22,0,0,0-.18,7.09c.66.73,1.32,1.44,2,2.15a74,74,0,0,0,29.09,18.53A71.18,71.18,0,0,0,391.67,455c2-.23,4-.53,5.95-.93a5,5,0,0,0,3.8-5.86,4.79,4.79,0,0,0-5.57-4c-1.56.31-3.14.57-4.73.76A62,62,0,0,1,363.87,442a64.68,64.68,0,0,1-27.11-18,4.63,4.63,0,0,0-3.4-1.58" />
      <path class="GUNDAN_GOAT_OUTFIT_GUNDAN_GOAT_OUTFIT_18_cls-7" d="M325.16,427.93q-1.83,17.93-3.63,35.86l-1.23,12.1a54.61,54.61,0,0,1,23.16-25.75l-12.15,22.07" />
      <path class="GUNDAN_GOAT_OUTFIT_GUNDAN_GOAT_OUTFIT_18_cls-7" d="M226.23,391a268.26,268.26,0,0,0,23.56-22.77c22.51-24.13,47.73-55.36,55.57-65.87" />
      <path class="GUNDAN_GOAT_OUTFIT_GUNDAN_GOAT_OUTFIT_18_cls-7" d="M246.26,381a66.91,66.91,0,0,0-5,4.64,59.72,59.72,0,0,0-4.71,5.38A48.24,48.24,0,0,0,233.2,396a33.2,33.2,0,0,0-3.69,8.41c-.16.59-.3,1.18-.42,1.78a22.1,22.1,0,0,0-.41,4.06c0,1.76,0,3.42.06,5l0,.94a69.05,69.05,0,0,0,1.35,12,25.24,25.24,0,0,0,4.4,10.29" />
      <path class="GUNDAN_GOAT_OUTFIT_GUNDAN_GOAT_OUTFIT_18_cls-7" d="M253.5,394.51a12.1,12.1,0,0,0-4,1.62,13,13,0,0,0-4.4,4.79,24.66,24.66,0,0,0-2.54,8,49.54,49.54,0,0,0-.5,6.95c0,.68,0,1.35,0,2,0,2.15.17,4,.24,5.34a8.24,8.24,0,0,0,.16,1.24c.5,2.44,2.11,4.56,3.92,6.68,1.24,1.48,2.58,2.95,3.71,4.56a14,14,0,0,1,2.55,5.62,10.89,10.89,0,0,1,.17,2.24c-.18,6.16-1.94,11.33-6.62,14.12l-.57.33a17.86,17.86,0,0,1-7.54,1.93,15.74,15.74,0,0,1-5.26-.52c-7.24-2.09-10.32-9.43-7.45-14.88a9,9,0,0,1,1-1.47,8.39,8.39,0,0,1,6-2.73,14.86,14.86,0,0,1,3.94.26h0" />
      <path class="GUNDAN_GOAT_OUTFIT_GUNDAN_GOAT_OUTFIT_18_cls-7" d="M234.52,438.46v0c1.63-6.76,7.68-7.61,11.89-7.32" />
      <path class="GUNDAN_GOAT_OUTFIT_GUNDAN_GOAT_OUTFIT_18_cls-7" d="M230.12,428.15c1.79-2.55,5.45-5.59,12.37-3.71" />
      <path class="GUNDAN_GOAT_OUTFIT_GUNDAN_GOAT_OUTFIT_18_cls-7" d="M242.09,417.86a17.59,17.59,0,0,0-3.37-2.21,9.36,9.36,0,0,0-8.41-.4,9.84,9.84,0,0,0-1.54.88" />
      <path class="GUNDAN_GOAT_OUTFIT_GUNDAN_GOAT_OUTFIT_18_cls-7" d="M229.09,406.14c6.72-2.63,11.17.32,13.5,2.78" />
      <path class="GUNDAN_GOAT_OUTFIT_GUNDAN_GOAT_OUTFIT_18_cls-7" d="M245.13,400.92a12.61,12.61,0,0,0-2.81-2.42A17.12,17.12,0,0,0,233.2,396" />
      <path class="GUNDAN_GOAT_OUTFIT_GUNDAN_GOAT_OUTFIT_18_cls-7" d="M249.53,396.13a23.23,23.23,0,0,0-1.91-4.76h0a11.72,11.72,0,0,0-5.22-5.29,7,7,0,0,0-1.11-.41" />
      <path class="GUNDAN_GOAT_OUTFIT_GUNDAN_GOAT_OUTFIT_18_cls-7" d="M242.09,415.87c3.65.26,7.08.57,10.28.9a249.32,249.32,0,0,1,26.56,4" />
      <path class="GUNDAN_GOAT_OUTFIT_GUNDAN_GOAT_OUTFIT_18_cls-7" d="M230.31,415.25l-1.57-.06c-13.25-.39-41.21,0-56.89,1.87-7.26.88-14.66,2.08-22.1,3.7h0" />
      <path class="GUNDAN_GOAT_OUTFIT_GUNDAN_GOAT_OUTFIT_18_cls-7" d="M171.85,417.06c.94,9.87,4.8,45.26,13.48,65.13" />
      <path class="GUNDAN_GOAT_OUTFIT_GUNDAN_GOAT_OUTFIT_18_cls-7" d="M250.12,435.68c1.21-8.47,1.92-15.46,2.25-18.91" />
      <polyline class="GUNDAN_GOAT_OUTFIT_GUNDAN_GOAT_OUTFIT_18_cls-7" points="154.25 368.67 174.08 394.88 174.33 395.21" />
      <polyline class="GUNDAN_GOAT_OUTFIT_GUNDAN_GOAT_OUTFIT_18_cls-7" points="150.32 371.11 150.45 371.29 169.94 398" />
      <polyline class="GUNDAN_GOAT_OUTFIT_GUNDAN_GOAT_OUTFIT_18_cls-7" points="274.42 368.67 254.6 394.88 254.35 395.21" />
      <polyline class="GUNDAN_GOAT_OUTFIT_GUNDAN_GOAT_OUTFIT_18_cls-7" points="278.36 371.11 278.22 371.29 258.74 398" />
      <path class="GUNDAN_GOAT_OUTFIT_GUNDAN_GOAT_OUTFIT_18_cls-7" d="M188.61,388.44c4.77-3.85,22.42-7.79,27.08-11.8q6.41-5.47,12.68-11.13a745.18,745.18,0,0,0,67.3-69c2.88,2.05,6.7,4,9.69,5.87,4.26,2.67,8.63,5.17,13.05,7.55" />
      <path class="GUNDAN_GOAT_OUTFIT_GUNDAN_GOAT_OUTFIT_18_cls-7" d="M291.6,373.61c.55-1.5,1.13-3,1.75-4.47,8.43-20.53,23.71-41.14,39.4-57,.43.2.86.4,1.31.59,4,1.75,5.15,5.3,9.06,7.21a157.94,157.94,0,0,0-38.86,58.59l-.48,1.28a7.43,7.43,0,0,1-.43.95" />
      <path class="GUNDAN_GOAT_OUTFIT_GUNDAN_GOAT_OUTFIT_18_cls-7" d="M296.8,384.19h0" />
      <path class="GUNDAN_GOAT_OUTFIT_GUNDAN_GOAT_OUTFIT_18_cls-7" d="M310.73,394.78A150.6,150.6,0,0,1,326,385.89l1.11-.56a180.72,180.72,0,0,1,48.26-15.78" />
      <path class="GUNDAN_GOAT_OUTFIT_GUNDAN_GOAT_OUTFIT_18_cls-7" d="M316.72,406.9a6.13,6.13,0,0,0,.78-.46c15.79-10.72,32.78-16.92,45.87-20.46,6.33-1.71,11.75-2.79,15.68-3.45" />
      <g class="GUNDAN_GOAT_OUTFIT_GUNDAN_GOAT_OUTFIT_18_cls-8">
        <path d="M110.33,303.57l-6,0,0,0,.09-.06,2.29-1.56C108.07,300.57,109.64,302.51,110.33,303.57Z" />
        <path d="M117.85,310.73a9.85,9.85,0,0,0-2.23,1.61c-1.68-2.87-4.92-8.16-4.92-8.16a5.75,5.75,0,0,0-.37-.61h3.78c1.6,2.89,2.1,7.8,2.18,7.91s1-.74,1-.74A4,4,0,0,0,117.85,310.73Z" />
        <path d="M123.48,308a7.32,7.32,0,0,1,1.75-1.31l-2,2.07-.88.21A9,9,0,0,0,123.48,308Z" />
        <path d="M138.8,303.66l-6.55,4.57-.41-.36a45.28,45.28,0,0,0,6.22-4.21Z" />
        <path d="M240.46,377.19c-14.19,18.69-18.32,13.7-18.32,13.7l-31.5-.4-7.9-8.07c-1.47-15.32-12.81-20.55-19.43-19.76-2.79-8.05-19.19-9.14-19.19-9.14s-2.35.16-6.94,9.89c-3.8-5.36-14.64-2-15,0s-20.69,24.11-20.69,24.11,0,.91-6.87,14.5S83.9,447.54,83.9,447.54l7.43,9.62s.87-.52-2.12-19.94c3.48,5.14,9.32,23.54,9.32,23.54s.41-12.18-.15-28.65c9,10.17,8.6,43.73,8.6,43.73s.82-4,4.65-17.77c.38,11.05,5.3,24.12,5.3,24.12s-21.88,0-23.54.13-9.71-3.91-19.69-10-32.31,2.07-32.31,2.07,12.15-15.27,31.39-10.92c-3.89-4.61-14.08-11.11-14.08-11.11,5.63,1,27.22,13.16,28.16,13.69-.68-.52-11.66-8.74-19.38-13.1C59.5,448.42,42,441.65,42,441.65l.83-2.34s3.37-3.35,4.76-4.59c-4-11.53-1.86-21.5,1.35-25-.62-12,1.57-15.34,6.31-20.41-1.75-13.79,3.44-17.45,8.53-22.63-.54-9.81,5.77-22,10.91-24.81,1.88-10.64,11.41-16.32,17.47-17.69.54-3.54,4.29-7.29,6.35-11.24,4.34-8.34,4.88-8.47,5.77-9.41l0,0a.18.18,0,0,1,.09-.06c3.87-3,5.26-3.26,8.1-1.67a4.62,4.62,0,0,1,1.59,1.79c1.6,2.89,2.1,7.8,2.18,7.91s1-.74,1-.74a4,4,0,0,0,.52,0,9.16,9.16,0,0,0,4.49-1.79,9,9,0,0,0,1.14-1,7.32,7.32,0,0,1,1.75-1.31c2.26-1.19,4.47-.36,6.3,1.28a.84.84,0,0,0,.31-.07,45.28,45.28,0,0,0,6.22-4.21l1.26-1S153.84,347.24,240.46,377.19Z" />
        <path d="M148,374l21.49,24.18s-12.15,7-21.69-5.71C143.49,386.25,144.47,379.19,148,374Z" />
        <path d="M147.18,400s19,15.95,42,15.53c2.32,16.22-3.5,58.94,5.36,66.66H120.29s-9-44.43-4.34-62.09,17.63-23.69,19.61-31.66,1.5-29.74,14.89-26.2c7.05,3.37,7.27,2.71,7.27,2.71S140.83,373.77,147.18,400Z" />
        <path d="M311.11,482.19s3.82-32.71,3.12-51.56-11.65-24.35-11.65-24.35,6.92,17.11,5.82,29.11C305.31,435,304,449,304,449s-2.46,3.49-2.2,9.76c-1.72,10.47-4,20.29-7.67,23.57C305.81,482.19,311.11,482.19,311.11,482.19Z" />
        <path d="M221.94,415.06s2.05,18.08,4.29,23.84c-8,7.21-8.84,20.33,6.62,20.5-6.35-2.47-9.65-8.61-8.24-12.88s6.06-7.92,11.75-5.94c-3.25-3.07-5.63-9.22-6.58-15s-1.29-10.68-1.29-10.68Z" />
        <path d="M177.64,392.05s-3.07,15.66,12.06,16.48,38.79.78,38.79.78l1-4.73-38.9-.49-10.68-14.63Z" />
      </g>
    </g>
  </g>
</svg>