<svg xmlns="http://www.w3.org/2000/svg" viewBox="0 0 432 432">
  <defs>
    <style>.GUNDAN_GOAT_OUTFIT_GUNDAN_GOAT_OUTFIT_15_cls-1{isolation:isolate;}.GUNDAN_GOAT_OUTFIT_GUNDAN_GOAT_OUTFIT_15_cls-2{fill:#7e372a;}.GUNDAN_GOAT_OUTFIT_GUNDAN_GOAT_OUTFIT_15_cls-3{fill:#866228;}.GUNDAN_GOAT_OUTFIT_GUNDAN_GOAT_OUTFIT_15_cls-4{fill:#1e2223;}.GUNDAN_GOAT_OUTFIT_GUNDAN_GOAT_OUTFIT_15_cls-5{fill:#fff;}.GUNDAN_GOAT_OUTFIT_GUNDAN_GOAT_OUTFIT_15_cls-6,.GUNDAN_GOAT_OUTFIT_GUNDAN_GOAT_OUTFIT_15_cls-8{fill:none;stroke:#000;stroke-linecap:round;stroke-linejoin:round;}.GUNDAN_GOAT_OUTFIT_GUNDAN_GOAT_OUTFIT_15_cls-6{stroke-width:1.65px;}.GUNDAN_GOAT_OUTFIT_GUNDAN_GOAT_OUTFIT_15_cls-7{opacity:0.22;mix-blend-mode:multiply;}.GUNDAN_GOAT_OUTFIT_GUNDAN_GOAT_OUTFIT_15_cls-8{stroke-width:1.57px;}</style>
  </defs>
  <g class="GUNDAN_GOAT_OUTFIT_GUNDAN_GOAT_OUTFIT_15_cls-1">
    <g id="outfit">
      <path class="GUNDAN_GOAT_OUTFIT_GUNDAN_GOAT_OUTFIT_15_cls-2" d="M308.63,312.93c-.12-2.29-.33-4.36-.54-6.07-.93-2.53-6.85-8.45-12.28-14,.1,1.84-.76-1-.65.88.13,2.35,1,8.19,1.28,10.5,0,0,2.27,2.65.15,4.16-.26,3.66-3,7.09-4.08,11.59,3.42,8.37-5.48,31-5.71,31.62a26,26,0,0,0,4.72-2.51c-.23-3-.57-4.79-.58-4.89a2.62,2.62,0,0,1,2.42-3,3,3,0,0,1,3.45,2.08c0,.1.09.39.16.85,6.25-7.59,12-21.59,11.73-29.71h0C308.69,314,308.67,313.44,308.63,312.93Z" />
      <path class="GUNDAN_GOAT_OUTFIT_GUNDAN_GOAT_OUTFIT_15_cls-2" d="M147.54,344.26a2.19,2.19,0,0,0-.17-1.41,2.87,2.87,0,0,0-2.25-1.57,3.34,3.34,0,0,0-1.61.13,2.72,2.72,0,0,0-1.84,1.95,8.25,8.25,0,0,0-.16.85c-.91-1.1-1.78-2.27-2.59-3.47s-1.44-2.22-2.11-3.37a.43.43,0,0,1,0-.07,45,45,0,0,1-4.78-12,32.18,32.18,0,0,1-.69-4.52l0-.29c0-.78-.05-1.56,0-2.31h0c0-.37,0-.73,0-1.08l.06-1.06q.06-.87.12-1.68l0-.31c0-.32.06-.64.09-.94s0-.54.07-.8c0,0,0-.07,0-.11.07-.58.13-1.14.19-1.66a12.46,12.46,0,0,1,.79-1.67c.08-.18.18-.36.27-.53,0,0,0,0,0,0l0,0,0-.05c.07-.13.13-.25.21-.37.36-.6.79-1.28,1.27-2,.23-.34.47-.69.73-1.05.65-.93,1.38-1.9,2.2-2.9l1-1.19.75-.88,0,0s0,0,0,0l0,0c.06-.07.12-.15.19-.22l5.84-5.66.28-.27c0,.18,0,.38-.07.59s-.06.44-.1.68-.09.48-.13.73c-.09.5-.19,1-.27,1.53-.14.77-.26,1.48-.31,2s-.12,1.14-.18,1.72h0l0,.25c0,.19-.05.39-.07.59h.05a24.35,24.35,0,0,0,.63,5.48l.72,5.26v.06a66,66,0,0,0,1.51,11.62c-1,4.09-.46,10.38.06,13.71.13.32.27.63.4.92.19.87.4,1.72.61,2.55.29,1.11.59,2.18.88,3.18,1.2,4.06,2.35,7,2.43,7.22a27.11,27.11,0,0,1-4.73-2.51A41.71,41.71,0,0,1,147.54,344.26Z" />
      <path class="GUNDAN_GOAT_OUTFIT_GUNDAN_GOAT_OUTFIT_15_cls-3" d="M249.82,405.27a26.64,26.64,0,0,0-6.85-2.21H202.91a26.77,26.77,0,0,0-6.85,2.21,29.91,29.91,0,0,0-8.56,6V430l2.48,2L202.6,442.3h40.68L255.91,432l2.47-2V411.26A29.78,29.78,0,0,0,249.82,405.27Zm-46.6,29.56c-1.18,0-2.14-5.47-2.14-12.21s1-12.2,2.14-12.2,2.16,5.45,2.16,12.2S204.41,434.83,203.22,434.83Zm9.87,0c-1.19,0-2.16-5.47-2.16-12.21s1-12.2,2.16-12.2,2.15,5.45,2.15,12.2S214.27,434.83,213.09,434.83Zm9.85,0c-1.19,0-2.16-5.47-2.16-12.21s1-12.2,2.16-12.2,2.16,5.45,2.16,12.2S224.14,434.83,222.94,434.83Zm9.85,0c-1.18,0-2.14-5.47-2.14-12.21s1-12.2,2.14-12.2,2.16,5.45,2.16,12.2S234,434.83,232.79,434.83Zm9.87,0c-1.2,0-2.16-5.47-2.16-12.21s1-12.2,2.16-12.2,2.15,5.45,2.15,12.2S243.84,434.83,242.66,434.83Z" />
      <path class="GUNDAN_GOAT_OUTFIT_GUNDAN_GOAT_OUTFIT_15_cls-2" d="M242.66,410.41c-1.19,0-2.16,5.46-2.16,12.21s1,12.21,2.16,12.21,2.14-5.47,2.14-12.21S243.84,410.41,242.66,410.41Z" />
      <path class="GUNDAN_GOAT_OUTFIT_GUNDAN_GOAT_OUTFIT_15_cls-2" d="M222.94,410.41c-1.19,0-2.16,5.46-2.16,12.21s1,12.21,2.16,12.21,2.16-5.47,2.16-12.21S224.13,410.41,222.94,410.41Z" />
      <path class="GUNDAN_GOAT_OUTFIT_GUNDAN_GOAT_OUTFIT_15_cls-2" d="M213.09,410.41c-1.19,0-2.16,5.46-2.16,12.21s1,12.21,2.16,12.21,2.14-5.47,2.14-12.21S214.27,410.41,213.09,410.41Z" />
      <path class="GUNDAN_GOAT_OUTFIT_GUNDAN_GOAT_OUTFIT_15_cls-2" d="M232.79,410.41c-1.17,0-2.14,5.46-2.14,12.21s1,12.21,2.14,12.21,2.16-5.47,2.16-12.21S234,410.41,232.79,410.41Z" />
      <path class="GUNDAN_GOAT_OUTFIT_GUNDAN_GOAT_OUTFIT_15_cls-2" d="M203.22,410.41c-1.18,0-2.14,5.46-2.14,12.21s1,12.21,2.14,12.21,2.16-5.47,2.16-12.21S204.41,410.41,203.22,410.41Z" />
      <path class="GUNDAN_GOAT_OUTFIT_GUNDAN_GOAT_OUTFIT_15_cls-3" d="M384.86,389.07c-3.74-12-9.09-13-9.09-13,.7-7.4-13.81-30.25-16.58-33.74s-8.33-3.67-8.33-3.67-15.26-17.79-18.33-18.4c-2.87-.56-4.67-3.81-11.73,5.37.81.63,1.61,1.23,2.39,1.75l2.7,1.9c2.67,1.9-.16,7.05,1.09,8.07a43.41,43.41,0,0,1-.9,7.86c-.13.41-.25.8-.39,1.17a83.88,83.88,0,0,0,20.93,19.72c.23.56.48,1.11.73,1.65.15.36.32.71.49,1,.26.56.53,1.1.81,1.65.16.31.31.62.48.93,1.08,2.08,2.21,4,3.32,5.77.18.28.34.55.52.81q1.66,2.58,3.17,4.58c.73,1,1.42,1.86,2,2.62.16.19.3.38.45.55,1,1.25,1.81,2.13,2.25,2.6l.29.31.1.1s1.12,15.56,5.49,22,7.17,9.42,8.18,15.06c.53-.58,1.06-1.2,1.59-1.85a85,85,0,0,0,8.34-12.81C387,407.11,388.62,401.07,384.86,389.07Zm-47.11-43.95a18.72,18.72,0,0,1-2.13-1.89,2.13,2.13,0,0,1-.26-.26,17,17,0,0,1-3.53-5.21,9.11,9.11,0,0,1-.61-2.13v0a3.62,3.62,0,0,1,1.2-3.7c2-1.41,5.68-.47,9.18,2.06a17.62,17.62,0,0,1,2.24,1.87l.61.6a17.65,17.65,0,0,1,3.37,4.84,10.56,10.56,0,0,1,.69,2.11c.38,1.79,0,3.29-1.12,4.13C345.34,349,341.39,347.91,337.75,345.12Z" />
      <path class="GUNDAN_GOAT_OUTFIT_GUNDAN_GOAT_OUTFIT_15_cls-4" d="M383.09,402.53l-12-2.76h0c0-.11-.06-.22-.1-.32a15.51,15.51,0,0,1-.62-6l11.81,2.71c.1.25.17.52.25.78A15.39,15.39,0,0,1,383.09,402.53Z" />
      <path class="GUNDAN_GOAT_OUTFIT_GUNDAN_GOAT_OUTFIT_15_cls-4" d="M381.08,393.6l-10.19-2.34a4.22,4.22,0,0,1,2.91-2.91C376.27,387.8,379.17,390,381.08,393.6Z" />
      <path class="GUNDAN_GOAT_OUTFIT_GUNDAN_GOAT_OUTFIT_15_cls-4" d="M372.1,402.27l10.58,2.42a4.42,4.42,0,0,1-3.06,3.32c-2.57.56-5.63-1.87-7.53-5.74Z" />
      <path class="GUNDAN_GOAT_OUTFIT_GUNDAN_GOAT_OUTFIT_15_cls-4" d="M370.46,370.52l-12.37-.63c-.06-.09-.12-.2-.18-.3a15.63,15.63,0,0,1-2-5.8l12.18.63c.15.23.3.46.43.71A16.11,16.11,0,0,1,370.46,370.52Z" />
      <path class="GUNDAN_GOAT_OUTFIT_GUNDAN_GOAT_OUTFIT_15_cls-4" d="M366.45,362.13l-10.53-.55a3.94,3.94,0,0,1,2.19-3.36C360.41,357.26,363.76,358.94,366.45,362.13Z" />
      <path class="GUNDAN_GOAT_OUTFIT_GUNDAN_GOAT_OUTFIT_15_cls-4" d="M370.56,372.71c-.13,1.83-.88,3.21-2.24,3.78-2.39,1-5.94-.87-8.68-4.34Z" />
      <path class="GUNDAN_GOAT_OUTFIT_GUNDAN_GOAT_OUTFIT_15_cls-4" d="M347.82,341.28a17.88,17.88,0,0,0-3.37-4.84l-.61-.6A20.29,20.29,0,0,0,341.6,334c-3.5-2.53-7.22-3.47-9.17-2a3.59,3.59,0,0,0-1.21,3.7v0a9,9,0,0,0,.61,2.13,17.08,17.08,0,0,0,3.53,5.22,3.13,3.13,0,0,0,.26.25,17.71,17.71,0,0,0,2.13,1.88c3.64,2.8,7.59,3.88,9.64,2.41,1.16-.84,1.5-2.33,1.12-4.13A10.56,10.56,0,0,0,347.82,341.28Z" />
      <path class="GUNDAN_GOAT_OUTFIT_GUNDAN_GOAT_OUTFIT_15_cls-4" d="M59,391.26A4.22,4.22,0,0,0,56,388.35c-2.46-.55-5.36,1.67-7.28,5.26a18.57,18.57,0,0,0-1.09,2.52c-.1.25-.17.52-.25.78a15.42,15.42,0,0,0-.66,5.63,8.82,8.82,0,0,0,.41,2.15A4.4,4.4,0,0,0,50.22,408c2.57.57,5.62-1.87,7.53-5.74a19.44,19.44,0,0,0,1-2.5c0-.1.06-.22.1-.32a15.28,15.28,0,0,0,.61-6A8.55,8.55,0,0,0,59,391.26Z" />
      <path class="GUNDAN_GOAT_OUTFIT_GUNDAN_GOAT_OUTFIT_15_cls-4" d="M73.92,361.58a4,4,0,0,0-2.19-3.36c-2.3-1-5.65.72-8.35,3.91a16.55,16.55,0,0,0-1.65,2.29,6.38,6.38,0,0,0-.43.71,15.89,15.89,0,0,0-1.92,5.39,8.68,8.68,0,0,0-.11,2.19c.14,1.83.89,3.21,2.24,3.78,2.4,1,5.95-.87,8.69-4.34a17,17,0,0,0,1.55-2.26c.06-.09.12-.2.18-.3a15.81,15.81,0,0,0,2-5.8,8.54,8.54,0,0,0,0-2.2Z" />
      <path class="GUNDAN_GOAT_OUTFIT_GUNDAN_GOAT_OUTFIT_15_cls-3" d="M113.77,329.31c-.61.48-1.21.93-1.8,1.34l-.47.34h0a.31.31,0,0,0-.09.07h0c-.49.33-1,.65-1.41,1l-1.29.92c-2.12,1.5-3.76,2.76-5,3.73l-.48.39h0l-.37.3c0,.8.08,1.58.14,2.34,0,.37,0,.72.09,1.07,0,.57.1,1.12.17,1.64,0,.21,0,.41.08.61.06.49.14.95.22,1.35,0,.16.07.31.11.46v0c0,.14.06.26.09.38l.18.59c.07.19.13.39.21.57h0l-.13.17h0l-.2.25c-.52.68-1.11,1.44-1.78,2.25l-1.2,1.44c-.31.37-.65.76-1,1.14l-.71.79a87.16,87.16,0,0,1-6.31,6.32h0a.34.34,0,0,0-.09.08l-1.56,1.35c-.72.61-1.45,1.22-2.2,1.81-1.28,1-2.61,2-4,2.95q-.84.58-1.71,1.14c-.66,1.56-1.37,3.05-2.1,4.48-.1.22-.22.44-.34.66a83.19,83.19,0,0,1-4.76,8c-.39.6-.79,1.17-1.18,1.72-.55.78-1.08,1.5-1.59,2.17h0l0,0a.35.35,0,0,1,0,.08l-.85,1.1a55.85,55.85,0,0,1-3.74,4.37s-1.12,15.56-5.49,22c-1,1.41-1.84,2.66-2.64,3.8-.14.2-.29.4-.42.61-.43.59-.82,1.16-1.18,1.7l-.51.77c-.53.82-1,1.6-1.43,2.4-.07.15-.15.29-.23.44a18.33,18.33,0,0,0-1.08,2.61c-.08.23-.15.47-.22.71a.43.43,0,0,0,0,.05c-.09.3-.17.6-.24.92,0,0,0,0,0,0,0,.25-.11.5-.15.76a1.89,1.89,0,0,0,0,.23,0,0,0,0,0,0,0c-.26-.29-.53-.59-.79-.9-.13-.14-.26-.3-.38-.45l-.08-.1-.13-.15,0,0h0a1.73,1.73,0,0,0-.17-.21A84.41,84.41,0,0,1,45,411.16c-.07-.13-.13-.28-.21-.41s-.19-.41-.28-.61c-.2-.42-.38-.87-.55-1.34l0-.1a.25.25,0,0,1,0-.07,6.78,6.78,0,0,1-.23-.68,1,1,0,0,1-.08-.27q-.12-.36-.21-.75c-.08-.33-.16-.66-.23-1s-.12-.67-.16-1-.08-.57-.11-.87c0-.14,0-.28,0-.42l0-.49c0-.3,0-.58,0-.89v-.12a30.57,30.57,0,0,1,.43-5.61c.06-.4.13-.81.21-1.24,0-.26.1-.53.17-.81s.12-.56.18-.84c.32-1.41.72-2.93,1.23-4.55,3.74-12,9.09-12.95,9.09-12.95-.7-7.4,13.81-30.25,16.59-33.74a6.17,6.17,0,0,1,.48-.54,3,3,0,0,1,.41-.39,10.5,10.5,0,0,1,1-.77l0,0,.08,0,.07-.05.1-.06a9.13,9.13,0,0,1,.87-.46l.22-.11.59-.25a2.3,2.3,0,0,1,.34-.12,12.22,12.22,0,0,1,1.18-.37l.46-.12a16.08,16.08,0,0,1,2-.32h.24l.29,0s1.08-1.26,2.71-3.11a.76.76,0,0,0,.09-.09h0s0,0,0,0l.1-.11.08-.09s0,0,0,0c.3-.32.6-.66.91-1a.1.1,0,0,1,0-.05l1.39-1.55,1.11-1.23,1.94-2.11.8-.85.4-.42.79-.83.4-.41.8-.82.75-.76.65-.65,1.3-1.25.56-.51.33-.3.62-.55c.16-.13.31-.26.46-.37a5.09,5.09,0,0,1,.4-.32l.4-.3.2-.13.34-.21h0l0,0,.07,0,0,0,.06,0a.6.6,0,0,1,.16-.08l.13,0a.83.83,0,0,1,.18-.05l.18,0a1.9,1.9,0,0,1,.25,0h.11l.11,0h.18a.06.06,0,0,1,.07,0l.28,0h.35a11.7,11.7,0,0,1,3.14.35l.41.12.42.12h0a3,3,0,0,1,.39.13,5.92,5.92,0,0,1,.62.23l.5.21.28.12.24.11.17.09c.47.23,1,.49,1.44.79a.24.24,0,0,1,.09.06h0l.1.07h0a21.84,21.84,0,0,1,2.8,2.11c.17.14.34.3.52.47l.21.19c.07.07.14.13.21.21.33.3.66.64,1,1l.25.26c0,.06.11.11.15.17a2.62,2.62,0,0,1,.22.25l.06.07.12.13a.41.41,0,0,1,.09.1l.08.09.07.07a1.19,1.19,0,0,1,.15.18l0,0a1.68,1.68,0,0,1,.18.21l.38.47,0,.06h0l.09.11,0,0v0Z" />
      <path class="GUNDAN_GOAT_OUTFIT_GUNDAN_GOAT_OUTFIT_15_cls-3" d="M312.61,427.23s0-.24-.05-.68-.08-.89-.13-1.52c0-.21-.05-.45-.06-.7-.09-.9-.18-2-.28-3.2,0-.38-.09-.78-.12-1.2-.21-2.29-.47-5-.77-7.86h0l-.05,0,0,0h0l-.07,0,0,0h0l-.07,0a.28.28,0,0,0-.09.06h0l-.08,0-.14.09h0l0,0-.22.14h0c-.27.18-.62.39-1,.62h0l-.22.12-.23.13-.38.2h0l-.12.06h0l-.2.1-.34.18a5.16,5.16,0,0,1-.47.24.43.43,0,0,1-.12.05h0a.69.69,0,0,1-.15.07l-.82.4-.34.15h0l-.54.24-.19.08h0l-.77.32c-.67.29-1.38.56-2.14.84-.45.17-.92.34-1.41.5-1,.33-2,.65-3.14,1q-.48.15-1,.27c-1.11.29-2.27.55-3.49.79l-.93.18c-.67.12-1.37.25-2.07.35l-1.4.2-1.45.17c-.24,4-.62,9.1-1.21,14.77,2-.1,3.81-.26,5.56-.47l1-.12,1.21-.17c1.26-.17,2.45-.37,3.58-.58l1.21-.23c.79-.17,1.55-.33,2.27-.5l2-.5a63,63,0,0,0,6.43-2.09l1.08-.43.13-.06c.4-.17.73-.31,1-.45.71-.32,1.07-.52,1.07-.52Zm-20,4.2c-1.75,0-3.16-2.15-3.16-4.81s1.41-4.8,3.16-4.8,3.15,2.15,3.15,4.8S294.38,431.43,292.64,431.43Z" />
      <path class="GUNDAN_GOAT_OUTFIT_GUNDAN_GOAT_OUTFIT_15_cls-3" d="M151.11,419.93a65.27,65.27,0,0,1-11.86-2.4c-2.6-.34-10.55-1.06-12.74-2.63h0c-.53-.22-1.06-.42-1.58-.65h0l-.73-.32h0l-.69-.31h0c-1.29-.61-2.8-.18-4-.93a8.14,8.14,0,0,1-.75-.49l0,0h0l0,0h0l0,0c-.5,4.81-1,9.49-1.34,14.17-.11,1.17-.1,1.42-.14,2.35,0,0,18.12,5.21,35.16,6.12C151.75,429,151.37,423.92,151.11,419.93Zm-5.27,11.5c-4.06.12-4.08-9.73,0-9.61C149.93,421.7,149.92,431.55,145.84,431.43Z" />
      <path class="GUNDAN_GOAT_OUTFIT_GUNDAN_GOAT_OUTFIT_15_cls-3" d="M81.33,343.39a10.56,10.56,0,0,1,.69-2.11,17.44,17.44,0,0,1,3.37-4.84c.2-.21.39-.4.61-.6A19.14,19.14,0,0,1,88.24,334a16.57,16.57,0,0,1,1.63-1.05l.63-.35.07,0,.69-.34.57-.24.18-.07c.19-.08.38-.14.57-.2a5.44,5.44,0,0,1,.54-.15l.27-.07a4.59,4.59,0,0,1,.51-.1h0a5,5,0,0,1,.54-.07h.08a5.06,5.06,0,0,1,.54,0h.39a1.58,1.58,0,0,1,.38.05l.36.06h0a1.4,1.4,0,0,1,.29.09h0a2.82,2.82,0,0,1,.83.42,3.64,3.64,0,0,1,1.21,3.7v0a9.11,9.11,0,0,1-.61,2.13c-.06.15-.13.3-.2.45a3.21,3.21,0,0,1-.22.46c-.08.15-.16.32-.25.48a14.73,14.73,0,0,1-1,1.58l-.41.55-.13.18q-.3.38-.63.75a2.92,2.92,0,0,1-.28.32l-.41.44-.26.26a18,18,0,0,1-2.14,1.89c-3.62,2.79-7.58,3.88-9.63,2.4C81.29,346.68,80.94,345.18,81.33,343.39Z" />
      <path class="GUNDAN_GOAT_OUTFIT_GUNDAN_GOAT_OUTFIT_15_cls-4" d="M58.85,399.45a3,3,0,0,0-.1.32h0l-12,2.76a15.36,15.36,0,0,1,.66-5.62c.08-.26.15-.53.24-.78h0l11.8-2.71A15.49,15.49,0,0,1,58.85,399.45Z" />
      <path class="GUNDAN_GOAT_OUTFIT_GUNDAN_GOAT_OUTFIT_15_cls-4" d="M59,391.26l-10.2,2.34c1.92-3.58,4.81-5.8,7.28-5.25A4.22,4.22,0,0,1,59,391.26Z" />
      <path class="GUNDAN_GOAT_OUTFIT_GUNDAN_GOAT_OUTFIT_15_cls-4" d="M47.16,404.69l10.58-2.42c-1.91,3.87-5,6.3-7.52,5.73A4.36,4.36,0,0,1,47.16,404.69Z" />
      <path class="GUNDAN_GOAT_OUTFIT_GUNDAN_GOAT_OUTFIT_15_cls-4" d="M59.27,372.71l10.92-.56a1.15,1.15,0,0,1-.14.17c-.27.34-.55.66-.85,1l-.44.46a10.5,10.5,0,0,1-.79.72,5.22,5.22,0,0,1-.47.38,9.43,9.43,0,0,1-.94.66,4,4,0,0,1-.47.29,7.12,7.12,0,0,1-2.69.94l-.44,0a3.7,3.7,0,0,1-1.45-.27C60.15,375.92,59.4,374.53,59.27,372.71Z" />
      <path class="GUNDAN_GOAT_OUTFIT_GUNDAN_GOAT_OUTFIT_15_cls-4" d="M61.73,364.42l12.17-.63a15.65,15.65,0,0,1-2,5.8,3,3,0,0,1-.19.3l-12.36.63a16.08,16.08,0,0,1,1.91-5.39C61.43,364.88,61.58,364.65,61.73,364.42Z" />
      <path class="GUNDAN_GOAT_OUTFIT_GUNDAN_GOAT_OUTFIT_15_cls-4" d="M73.92,361.58l-10.53.55c2.29-2.72,5.06-4.34,7.25-4.16a3.41,3.41,0,0,1,1.09.26,3.08,3.08,0,0,1,.76.46,1.31,1.31,0,0,1,.12.11,1,1,0,0,1,.18.18,1.79,1.79,0,0,1,.22.25l0,0v0a.24.24,0,0,1,.06.09.49.49,0,0,1,.1.15,1.2,1.2,0,0,1,.13.21.05.05,0,0,1,0,0h0a3.52,3.52,0,0,1,.18.39,1.54,1.54,0,0,1,.08.19c0,.12.08.25.11.38a3.37,3.37,0,0,1,.09.34A3.3,3.3,0,0,1,73.92,361.58Z" />
      <path class="GUNDAN_GOAT_OUTFIT_GUNDAN_GOAT_OUTFIT_15_cls-4" d="M81.33,343.39l10.76,1.72c-3.64,2.8-7.59,3.88-9.64,2.41C81.29,346.68,81,345.18,81.33,343.39Z" />
      <path class="GUNDAN_GOAT_OUTFIT_GUNDAN_GOAT_OUTFIT_15_cls-4" d="M98,337.76A17.19,17.19,0,0,1,94.48,343l-.26.25-12.2-2a17.65,17.65,0,0,1,3.37-4.84c.2-.21.39-.4.61-.6Z" />
      <path class="GUNDAN_GOAT_OUTFIT_GUNDAN_GOAT_OUTFIT_15_cls-4" d="M98.62,335.61,88.24,334c3.5-2.53,7.22-3.47,9.17-2A3.63,3.63,0,0,1,98.62,335.61Z" />
      <path class="GUNDAN_GOAT_OUTFIT_GUNDAN_GOAT_OUTFIT_15_cls-3" d="M366.75,410.76c-4.37-6.44-5.49-22-5.49-22a80.89,80.89,0,0,1-14.64-22.62,83.88,83.88,0,0,1-20.93-19.72c-1.39,3.94-3.63,6.12-2.11,8.7,1.39,2.35,11.76,11.74,16.33,15a6.45,6.45,0,0,0,1.93,1.09.83.83,0,0,0,.39-.07s.51,2.26,1.24,4.9c.43,1.51.92,3.14,1.42,4.55,1.39,3.85,9,9.44,9,9.44-1.67,7.25,2.91,15.58,7,20.63a8.58,8.58,0,0,1,.7,1c1.68,2.91,2.23,7.39,3.05,11.16.74,3.48,1.71,6.34,4,6.84,1.76.38,4.07-1.32,6.4-3.85C373.92,420.18,371.12,417.22,366.75,410.76Z" />
      <path class="GUNDAN_GOAT_OUTFIT_GUNDAN_GOAT_OUTFIT_15_cls-3" d="M83.22,366.14a81.14,81.14,0,0,1-14.64,22.62s-1.12,15.56-5.49,22-7.18,9.42-8.18,15.06c2.33,2.53,4.64,4.23,6.4,3.85,2.25-.5,3.22-3.36,4-6.84.82-3.77,1.37-8.25,3-11.16a8.58,8.58,0,0,1,.7-1c4.06-5.05,8.64-13.38,7-20.63,0,0,7.57-5.59,9-9.44.5-1.41,1-3,1.42-4.55.72-2.64,1.24-4.9,1.24-4.9a.83.83,0,0,0,.39.07,6.45,6.45,0,0,0,1.93-1.09c4.56-3.23,14.94-12.62,16.32-15,1.53-2.58-.71-4.76-2.11-8.7A83.61,83.61,0,0,1,83.22,366.14Z" />
      <path class="GUNDAN_GOAT_OUTFIT_GUNDAN_GOAT_OUTFIT_15_cls-2" d="M276.09,380.06a100.94,100.94,0,0,0,13.07-5.73h0c.09-.36.19-.72.26-1.08h0c.52-2.21.94-4.35,1.26-6.39a81.19,81.19,0,0,1-17.64,9.71A17.18,17.18,0,0,1,276.09,380.06Z" />
      <path class="GUNDAN_GOAT_OUTFIT_GUNDAN_GOAT_OUTFIT_15_cls-2" d="M323.19,327.42s-9.9,19.65-25.72,34c-.13,1.57-.31,3.21-.56,4.93-.17,1.23-.37,2.49-.62,3.78,24.42-16.32,29.6-40.77,29.6-40.77C325.06,328.72,324.16,328.09,323.19,327.42Z" />
      <path class="GUNDAN_GOAT_OUTFIT_GUNDAN_GOAT_OUTFIT_15_cls-2" d="M361.52,411.67s-13.76,16-39.23,11.16h0l-8.9-3-.54,5.34s5.29,2.25,11.54,4.56h0c25.71,7.27,40.19-6.89,40.19-6.89C363.75,419.06,363.2,414.58,361.52,411.67Z" />
      <path class="GUNDAN_GOAT_OUTFIT_GUNDAN_GOAT_OUTFIT_15_cls-2" d="M343.47,376c-.73-2.64-1.24-4.9-1.24-4.9a.83.83,0,0,1-.39.07,6.45,6.45,0,0,1-1.93-1.09s-8.33,20.14-24.47,29.52h0l-5.33,2.66h0c.36,2.76.67,5.56,1,8.24l3.39-1.13C334.58,402.77,343.47,376,343.47,376Z" />
      <path class="GUNDAN_GOAT_OUTFIT_GUNDAN_GOAT_OUTFIT_15_cls-2" d="M114.42,399.61h0c-16.14-9.38-24.47-29.52-24.47-29.52A6.45,6.45,0,0,1,88,371.18a.83.83,0,0,1-.39-.07s-.52,2.26-1.24,4.9c0,0,8.89,26.76,29,33.37l3.4,1.13c.3-2.68.61-5.48,1-8.24h0Z" />
      <path class="GUNDAN_GOAT_OUTFIT_GUNDAN_GOAT_OUTFIT_15_cls-2" d="M107.56,422.83h0c-25.47,4.81-39.23-11.16-39.23-11.16-1.68,2.91-2.23,7.39-3,11.16,0,0,14.47,14.16,40.19,6.89h0c6.25-2.31,11.54-4.56,11.54-4.56l-.55-5.34Z" />
      <path class="GUNDAN_GOAT_OUTFIT_GUNDAN_GOAT_OUTFIT_15_cls-2" d="M141,361.38a390.69,390.69,0,0,1-29.62-30.32c-1,.67-1.87,1.3-2.71,1.9,0,0,9.08,20.81,33.51,37.13-.25-1.29-.45-2.55-.62-3.78C141.32,364.59,141.14,363,141,361.38Z" />
      <path class="GUNDAN_GOAT_OUTFIT_GUNDAN_GOAT_OUTFIT_15_cls-2" d="M149,373.25h0c.08.36.17.72.26,1.08h0a101.1,101.1,0,0,0,13.08,5.73,16.88,16.88,0,0,1,3-3.49,81.19,81.19,0,0,1-17.64-9.71C148.09,368.9,148.5,371,149,373.25Z" />
      <path class="GUNDAN_GOAT_OUTFIT_GUNDAN_GOAT_OUTFIT_15_cls-4" d="M297.57,349.73a75.9,75.9,0,0,1,.06,9c0,.84-.09,1.71-.16,2.6,15.82-14.31,25.72-34,25.72-34-.78-.53-1.58-1.11-2.39-1.75a130.21,130.21,0,0,1-12.09-11.16c.29,8.11-5.49,22.11-11.74,29.7C297.13,345.26,297.41,347.16,297.57,349.73Z" />
      <path class="GUNDAN_GOAT_OUTFIT_GUNDAN_GOAT_OUTFIT_15_cls-4" d="M160,474.2H31.62s-.42-8.3,1.38-12.87c1.29-3.26,2.94-10.94,3.86-15.07-1.26-2.32-3.07-4.18-2.89-5.56s3.72-5.29,6.05-7.76c.33-3.44,1.53-16.13,4.89-21.67l.07-.11c.42.52,6.36,9.5,8.86,13.14l0,0c.55.82.94,1.37,1,1.48l.55.56.08.1c2.11,2.15,4.17,3.53,5.77,3.18,2.25-.49,3.22-3.35,4-6.83,0,0,14.47,14.15,40.19,6.89h0c6.25-2.31,11.54-4.57,11.54-4.57l-.55-5.33-8.9,3h0c-25.47,4.81-39.23-11.15-39.23-11.15a8,8,0,0,1,.7-1.05c4.06-5.05,8.64-13.38,7-20.63,0,0,7.56-5.6,9-9.44.5-1.41,1-3,1.41-4.54,0,0,8.9,26.75,29.05,33.36l3.39,1.13c.3-2.67.61-5.47,1-8.24h0l-5.33-2.66h0c-11.86-6.89-19.5-19.58-22.73-25.84-1.17-2.26-1.75-3.68-1.75-3.68,4.56-3.24,14.95-12.62,16.32-15,1.53-2.57-.71-4.75-2.1-8.69-.15-.37-.26-.76-.39-1.16a43.38,43.38,0,0,1-.91-7.87c1.26-1,3.16-2.53,5.84-4.43,0,0,9.07,20.81,33.5,37.13.34,1.83.77,3.71,1.28,5.66a83.48,83.48,0,0,0,3.22,9.71,79.66,79.66,0,0,0,4.54,9.47,80.56,80.56,0,0,0,5.39,8.4,64.21,64.21,0,0,0-5.91,8s.09,3.32.41,8.65c-15.66-1.72-32.47-7.88-32.47-7.88-.59,5.6-1,10.5-1.24,13.12-.12,1.31-.18,2.05-.18,2.05l-.06,1.36s18.12,5.2,35.16,6.12c.23,2.06.47,4.2.74,6.37.47,3.74,1,7.58,1.67,11.43-15,0-37.71-7.67-38.23-7.95l-.57,13.88h0c11.07,7.21,42.36,10.27,42.36,10.27Q159.1,471.56,160,474.2Z" />
      <path class="GUNDAN_GOAT_OUTFIT_GUNDAN_GOAT_OUTFIT_15_cls-4" d="M291.05,364.5c.33-2.59.52-5,.59-7.23.11-2.79.05-5.24-.07-7.24,0-.31,0-.6-.05-.89a27.14,27.14,0,0,1-4.73,2.52c-3.94,11.45-11.7,19.28-16.3,23.14a14.25,14.25,0,0,1,2.58,1.77,81.19,81.19,0,0,0,17.64-9.71C290.84,366.06,291,365.27,291.05,364.5Z" />
      <path class="GUNDAN_GOAT_OUTFIT_GUNDAN_GOAT_OUTFIT_15_cls-4" d="M286.72,382.14a74,74,0,0,0,2.44-7.81,100.94,100.94,0,0,1-13.07,5.73,24.5,24.5,0,0,1,2.29,4.44,1.5,1.5,0,0,1-1.08,2,2.16,2.16,0,0,1-.6.08,2,2,0,0,1-.61-.09l-1.25,3.37a23.06,23.06,0,0,1,3.54,6.12,1.5,1.5,0,0,1-1.08,2l.77.89a76.23,76.23,0,0,0,5.27-8.9A73.92,73.92,0,0,0,286.72,382.14Z" />
      <path class="GUNDAN_GOAT_OUTFIT_GUNDAN_GOAT_OUTFIT_15_cls-4" d="M384.73,461.33c-1.29-3.26-3.07-10.93-4-15.06,1.26-2.32,3.07-4.19,2.88-5.58s-3.71-5.28-6-7.75c-.33-3.46-.77-6.91-1.06-9-.53.65-1.06,1.27-1.59,1.85-2.33,2.53-4.64,4.23-6.4,3.85-2.25-.5-3.22-3.36-4-6.84,0,0-14.48,14.16-40.19,6.89h0c-6.25-2.31-11.54-4.56-11.54-4.56l.54-5.34,8.9,3h0c25.47,4.81,39.23-11.16,39.23-11.16a8.58,8.58,0,0,0-.7-1c-4.06-5.05-8.64-13.38-7-20.63,0,0-7.57-5.59-9-9.44-.5-1.41-1-3-1.42-4.55,0,0-8.89,26.76-29,33.37L311,410.51c-.3-2.68-.61-5.48-1-8.24h0l5.33-2.66h0c16.14-9.38,24.47-29.52,24.47-29.52-4.57-3.23-14.94-12.62-16.33-15-1.52-2.58.72-4.76,2.11-8.7a10.5,10.5,0,0,0,.38-1.16,41.64,41.64,0,0,0,.91-7.87c-1.25-1,1.58-6.17-1.09-8.07,0,0-5.18,24.45-29.6,40.77-.35,1.82-.78,3.71-1.29,5.65a78.86,78.86,0,0,1-3.22,9.72,76.74,76.74,0,0,1-4.54,9.47,78.26,78.26,0,0,1-5.38,8.4,63.93,63.93,0,0,1,5.91,8s-.08,3.32-.41,8.64c15.66-1.71,23.83-7.87,23.83-7.87.87,8.38,1.42,15.17,1.42,15.17l.06,1.35s-9.48,5.21-26.52,6.13c-.23,2.06-.47,4.2-.74,6.38-.46,3.72-1,7.57-1.68,11.42,15,0,29.07-7.67,29.6-7.95l.57,13.88h0c-11.07,7.22-33.72,10.27-33.72,10.27-.52,1.89-1.1,3.72-1.69,5.47H386.11S386.53,465.89,384.73,461.33Z" />
      <path class="GUNDAN_GOAT_OUTFIT_GUNDAN_GOAT_OUTFIT_15_cls-4" d="M163.64,389.83l-1.25-3.37a2.2,2.2,0,0,1-1.21,0,1.49,1.49,0,0,1-1.08-2,24.5,24.5,0,0,1,2.29-4.44,101.1,101.1,0,0,1-13.08-5.73,76.49,76.49,0,0,0,2.45,7.81,73.92,73.92,0,0,0,3.38,7.78,76.23,76.23,0,0,0,5.27,8.9l.77-.89a1.5,1.5,0,0,1-1.08-2A22.53,22.53,0,0,1,163.64,389.83Z" />
      <path class="GUNDAN_GOAT_OUTFIT_GUNDAN_GOAT_OUTFIT_15_cls-4" d="M151.69,351.66a26.78,26.78,0,0,1-4.73-2.52c0,.29,0,.58-.05.89-.12,2-.18,4.45-.07,7.24.07,2.21.26,4.64.59,7.23.1.77.2,1.56.34,2.36a81.19,81.19,0,0,0,17.64,9.71A14.25,14.25,0,0,1,168,374.8C163.39,370.94,155.63,363.11,151.69,351.66Z" />
      <path class="GUNDAN_GOAT_OUTFIT_GUNDAN_GOAT_OUTFIT_15_cls-4" d="M140.84,358.78a78.08,78.08,0,0,1,.06-9c.17-2.57.44-4.47.61-5.52-6.25-7.59-10.46-19-10.19-30.92-2.79,2.87-13.93,11.65-18.43,15.16-.81.64-.73,2.09-1.5,2.61A390.69,390.69,0,0,0,141,361.38C140.94,360.49,140.88,359.62,140.84,358.78Z" />
      <path class="GUNDAN_GOAT_OUTFIT_GUNDAN_GOAT_OUTFIT_15_cls-2" d="M292.64,421.82c-1.75,0-3.16,2.15-3.16,4.8s1.41,4.81,3.16,4.81,3.15-2.16,3.15-4.81S294.38,421.82,292.64,421.82Z" />
      <path class="GUNDAN_GOAT_OUTFIT_GUNDAN_GOAT_OUTFIT_15_cls-2" d="M149,426.62c0-2.65-1.4-4.8-3.15-4.8s-3.15,2.15-3.15,4.8,1.41,4.81,3.15,4.81S149,429.27,149,426.62Z" />
      <path class="GUNDAN_GOAT_OUTFIT_GUNDAN_GOAT_OUTFIT_15_cls-2" d="M281.86,403.33a4.29,4.29,0,0,1-.33.45c-.53.71-1.08,1.45-1.65,2.18a3.1,3.1,0,0,1-2.45,1.12,3.33,3.33,0,0,1-1.68-.45A2.38,2.38,0,0,1,275,403c.69-.88,1.36-1.75,2-2.65h0c.38-.52.74-1.05,1.1-1.57l-.78-.89a2,2,0,0,1-.59.08,1.79,1.79,0,0,1-1.69-1c-3.52-8.66-8.32-9.81-17.68-10.24-9.62-.45-34.14-.46-34.39-.46s-5.95,0-13,.06h-1.2l-3.69,0h-2.45c-2.46,0-4.9.07-7.15.12l-1.1,0-1.07,0h0l-1.64.05-.55,0c-.92,0-1.76.06-2.52.09-9.35.43-21.56,1.58-25.07,10.24a1.8,1.8,0,0,1-1.69,1,2.11,2.11,0,0,1-.6-.08l-.78.89c.37.52.74,1.05,1.12,1.57h0c.61.9,1.28,1.77,2,2.65a2.37,2.37,0,0,1-.77,3.59,3.31,3.31,0,0,1-1.68.45A3.1,3.1,0,0,1,158.6,406c-.58-.73-1.12-1.47-1.66-2.18a4.16,4.16,0,0,1-.32-.45,63.93,63.93,0,0,0-5.91,8s.09,3.33.4,8.64c.26,4,.64,9.1,1.22,14.77.22,2.07.46,4.2.74,6.38.08.67.17,1.35.26,2l.18,1.26q.15,1.17.33,2.37c.13.91.27,1.83.42,2.74s.32,2,.49,3c.71,4.14,1.54,8.26,2.51,12.22.32,1.35.68,2.7,1,4,.53,1.88,1.1,3.71,1.69,5.46h118.5c.6-1.75,1.17-3.58,1.69-5.46.36-1.3.72-2.65,1-4,1-4,1.8-8.08,2.51-12.22.11-.69.23-1.4.35-2.1s.19-1.2.28-1.8c0-.18.06-.36.08-.53.08-.56.17-1.13.25-1.68s.2-1.35.29-2c.15-1.11.3-2.21.43-3.3.27-2.18.51-4.31.74-6.38.59-5.67,1-10.78,1.21-14.77.33-5.31.41-8.64.41-8.64A65,65,0,0,0,281.86,403.33Zm-1.68,25.72a3.19,3.19,0,1,1-3.16-2.72A3,3,0,0,1,280.18,429.05ZM187.5,411.26a29.91,29.91,0,0,1,8.56-6,26.77,26.77,0,0,1,6.85-2.21H243a26.64,26.64,0,0,1,6.85,2.21,29.78,29.78,0,0,1,8.56,6V430l-2.47,2L243.28,442.3H202.6L190,432l-2.48-2V411.26Zm-22.89,17.79a3.19,3.19,0,1,1-3.16-2.72A3,3,0,0,1,164.61,429.05Zm3.16,28.46a3.19,3.19,0,1,1-3.16-2.73A3,3,0,0,1,167.77,457.51Zm102.94,0a3.19,3.19,0,1,1,3.16,2.74A3,3,0,0,1,270.71,457.51Z" />
      <path class="GUNDAN_GOAT_OUTFIT_GUNDAN_GOAT_OUTFIT_15_cls-2" d="M188.35,383.64c9.73-.44,34.34-.45,34.59-.45s24.87,0,34.59.45c7.22.33,13,1.08,17.31,6.19l1.25-3.37a1.67,1.67,0,0,1-1.08-.94c-3.52-8.66-8.32-9.81-17.67-10.24-9.63-.44-34.15-.45-34.4-.45s-24.77,0-34.4.45c-9.35.43-21.56,1.58-25.07,10.24a1.69,1.69,0,0,1-1.08.94l1.25,3.37C167.93,384.72,181.13,384,188.35,383.64Z" />
      <path class="GUNDAN_GOAT_OUTFIT_GUNDAN_GOAT_OUTFIT_15_cls-2" d="M277,426.32a2.76,2.76,0,1,0,3.16,2.74A3,3,0,0,0,277,426.32Z" />
      <path class="GUNDAN_GOAT_OUTFIT_GUNDAN_GOAT_OUTFIT_15_cls-2" d="M164.61,429.06a3.19,3.19,0,1,0-3.15,2.73A3,3,0,0,0,164.61,429.06Z" />
      <path class="GUNDAN_GOAT_OUTFIT_GUNDAN_GOAT_OUTFIT_15_cls-2" d="M161.05,407.08a3.24,3.24,0,0,0,1.68-.46,2.37,2.37,0,0,0,.78-3.58c-.7-.88-1.36-1.75-2-2.64h0c-.39-.53-.76-1-1.11-1.58a76.23,76.23,0,0,1-5.27-8.9,73.92,73.92,0,0,1-3.38-7.78,76.49,76.49,0,0,1-2.45-7.81h0c-.09-.36-.18-.72-.26-1.08h0c-.53-2.21-.94-4.35-1.26-6.39-.14-.8-.24-1.59-.34-2.36-.33-2.59-.52-5-.59-7.23-.11-2.79-.05-5.24.07-7.24,0-.31,0-.6.05-.89a43.35,43.35,0,0,1,.58-4.88,2.64,2.64,0,0,0-2.42-3,3,3,0,0,0-3.45,2.09,8.25,8.25,0,0,0-.16.85c-.17,1.05-.44,3-.61,5.52a78.08,78.08,0,0,0-.06,9c0,.84.1,1.71.17,2.6.13,1.57.31,3.21.56,4.93.17,1.23.37,2.49.62,3.78.35,1.82.77,3.71,1.29,5.65a80.47,80.47,0,0,0,3.21,9.72,78.21,78.21,0,0,0,4.54,9.47,80,80,0,0,0,5.39,8.4,4.07,4.07,0,0,0,.32.44c.54.73,1.08,1.46,1.66,2.18A3.08,3.08,0,0,0,161.05,407.08Z" />
      <path class="GUNDAN_GOAT_OUTFIT_GUNDAN_GOAT_OUTFIT_15_cls-2" d="M297.57,349.73c-.16-2.57-.44-4.47-.6-5.52a8.25,8.25,0,0,0-.16-.85,3,3,0,0,0-3.45-2.09,2.64,2.64,0,0,0-2.42,3,46.44,46.44,0,0,1,.58,4.88c0,.29,0,.58.05.89.12,2,.18,4.45.07,7.24-.07,2.21-.26,4.64-.59,7.23-.1.77-.21,1.56-.34,2.36-.32,2-.74,4.18-1.26,6.39h0c-.07.36-.17.72-.26,1.08h0a77.89,77.89,0,0,1-5.82,15.59,76.23,76.23,0,0,1-5.27,8.9c-.36.53-.73,1.05-1.11,1.58h0c-.62.89-1.29,1.76-2,2.64a2.36,2.36,0,0,0,.78,3.58,3.22,3.22,0,0,0,1.68.46,3.08,3.08,0,0,0,2.45-1.13c.57-.72,1.12-1.45,1.66-2.18.12-.14.22-.3.32-.44a78.26,78.26,0,0,0,5.38-8.4,76.74,76.74,0,0,0,4.54-9.47,78.86,78.86,0,0,0,3.22-9.72c.51-1.94.94-3.83,1.29-5.65.25-1.29.45-2.55.62-3.78.25-1.72.43-3.36.56-4.93.07-.89.13-1.76.16-2.6A75.9,75.9,0,0,0,297.57,349.73Z" />
      <path class="GUNDAN_GOAT_OUTFIT_GUNDAN_GOAT_OUTFIT_15_cls-2" d="M276.7,398a2.16,2.16,0,0,0,.6-.08,1.5,1.5,0,0,0,1.08-2,23.06,23.06,0,0,0-3.54-6.12c-4.29-5.11-10.09-5.86-17.31-6.19-9.72-.44-34.34-.45-34.59-.45s-24.86,0-34.59.45c-7.22.33-20.42,1.08-24.71,6.19A22.53,22.53,0,0,0,160.1,396a1.5,1.5,0,0,0,1.08,2,2.11,2.11,0,0,0,.6.08,1.79,1.79,0,0,0,1.69-1c3.51-8.66,15.72-9.81,25.07-10.24,9.63-.44,34.15-.45,34.4-.45s24.77,0,34.4.45c9.35.43,14.15,1.58,17.67,10.24A1.79,1.79,0,0,0,276.7,398Z" />
      <path class="GUNDAN_GOAT_OUTFIT_GUNDAN_GOAT_OUTFIT_15_cls-2" d="M161.18,386.47a2.2,2.2,0,0,0,1.21,0,1.69,1.69,0,0,0,1.08-.94c3.51-8.66,15.72-9.81,25.07-10.24,9.63-.44,34.15-.45,34.4-.45s24.77,0,34.4.45c9.35.43,14.15,1.58,17.67,10.24a1.67,1.67,0,0,0,1.08.94,2,2,0,0,0,.61.09,2.16,2.16,0,0,0,.6-.08,1.5,1.5,0,0,0,1.08-2,24.5,24.5,0,0,0-2.29-4.44,17.18,17.18,0,0,0-3-3.49,14.25,14.25,0,0,0-2.58-1.77c-3.61-1.95-7.94-2.38-13-2.62-5.48-.25-15.69-.36-23.62-.41-6.12,0-10.86,0-11,0s-4.85,0-11,0c-7.93.05-18.14.16-23.62.41-5,.24-16.75.67-20.36,2.62a14.25,14.25,0,0,0-2.58,1.77,16.88,16.88,0,0,0-3,3.49,24.5,24.5,0,0,0-2.29,4.44A1.49,1.49,0,0,0,161.18,386.47Z" />
      <path class="GUNDAN_GOAT_OUTFIT_GUNDAN_GOAT_OUTFIT_15_cls-2" d="M292.51,320c-2.39,9.54-12,23.32-22.05,28.53-22.19,11.55-36.55,17.32-36.55,17.32v5.89c7.93.05,18.14.16,23.62.41,5,.24,9.35.67,13,2.62,4.6-3.86,12.36-11.69,16.3-23.14C286.79,351.66,296,328.51,292.51,320Z" />
      <path class="GUNDAN_GOAT_OUTFIT_GUNDAN_GOAT_OUTFIT_15_cls-2" d="M212,365.88v5.89c-4.84,0-10.54.09-15.48.18-3.15.06-6,.13-8.13.23-5,.24-16.75.67-20.36,2.63-4.6-3.87-12.36-11.7-16.31-23.15h0c-.08-.19-1.23-3.16-2.43-7.21-.29-1-.59-2.08-.88-3.19-.21-.83-.42-1.68-.61-2.55-1.2-5.4-1.84-11.29-.31-15,2.39,9.54,10.56,19.68,20.57,24.89A241,241,0,0,0,212,365.88Z" />
      <path class="GUNDAN_GOAT_OUTFIT_GUNDAN_GOAT_OUTFIT_15_cls-5" d="M296.76,305.22c0,1-.09,2.08-.17,3.22-.26,3.66-3,7.09-4.08,11.59-2.38,9.54-12.05,23.32-22.05,28.53-22.19,11.55-36.54,17.32-36.54,17.32v5.89c-6.13,0-10.87,0-11,0s-4.85,0-11,0v-5.89A241,241,0,0,1,168,348.56c-10-5.21-18.18-15.35-20.57-24.89-.12-.46-.22-.92-.33-1.38h0a77.09,77.09,0,0,1-1.8-15c.77.78,42.7,31.6,87.27,46.15C260.43,333.67,289.29,311.88,296.76,305.22Z" />
      <path class="GUNDAN_GOAT_OUTFIT_GUNDAN_GOAT_OUTFIT_15_cls-6" d="M147.12,322.29c.11.46.21.92.33,1.38,2.39,9.54,10.56,19.68,20.57,24.89A241,241,0,0,0,212,365.88v5.89" />
      <path class="GUNDAN_GOAT_OUTFIT_GUNDAN_GOAT_OUTFIT_15_cls-6" d="M168,374.8c-4.6-3.86-12.36-11.69-16.3-23.14a26.78,26.78,0,0,1-4.73-2.52" />
      <path class="GUNDAN_GOAT_OUTFIT_GUNDAN_GOAT_OUTFIT_15_cls-6" d="M131.25,318.15c-.29,8.11,4,18.47,10.26,26.06" />
      <path class="GUNDAN_GOAT_OUTFIT_GUNDAN_GOAT_OUTFIT_15_cls-6" d="M145.55,293.55l-.27.27-5.85,5.66c-.07.07-.13.15-.19.22l0,0s0,0,0,0l0,0-.75.88-1,1.19c-.79,1-1.53,2-2.2,2.9-.26.36-.5.71-.73,1.05-.48.71-.91,1.39-1.27,2l-.25.42,0,0s0,0,0,0c-.09.17-.19.35-.27.53a10.3,10.3,0,0,0-1,3.33s0,.07,0,.11c0,.26,0,.53-.07.8s-.07.62-.09.94l0,.31q-.06.81-.12,1.68l-.06,1.06c0,.36,0,.71,0,1.08" />
      <path class="GUNDAN_GOAT_OUTFIT_GUNDAN_GOAT_OUTFIT_15_cls-6" d="M222.94,371.73c-.11,0-4.85,0-11,0-7.93.05-18.14.16-23.62.41-5,.24-16.75.67-20.36,2.62a14.25,14.25,0,0,0-2.58,1.77,16.88,16.88,0,0,0-3,3.49,24.5,24.5,0,0,0-2.29,4.44,1.49,1.49,0,0,0,1.08,2,2.2,2.2,0,0,0,1.21,0,1.69,1.69,0,0,0,1.08-.94c3.51-8.66,15.72-9.81,25.07-10.24,9.63-.44,34.15-.45,34.4-.45" />
      <path class="GUNDAN_GOAT_OUTFIT_GUNDAN_GOAT_OUTFIT_15_cls-6" d="M222.94,386.29c-.25,0-24.77,0-34.4.45-9.35.43-21.56,1.58-25.07,10.24a1.79,1.79,0,0,1-1.69,1,2.11,2.11,0,0,1-.6-.08,1.5,1.5,0,0,1-1.08-2,22.53,22.53,0,0,1,3.54-6.12c4.29-5.11,17.49-5.86,24.71-6.19,9.73-.44,34.34-.45,34.59-.45" />
      <line class="GUNDAN_GOAT_OUTFIT_GUNDAN_GOAT_OUTFIT_15_cls-6" x1="163.64" y1="389.83" x2="162.39" y2="386.46" />
      <path class="GUNDAN_GOAT_OUTFIT_GUNDAN_GOAT_OUTFIT_15_cls-6" d="M102.64,325.17s0,.61,0,1.61c0,2.27,0,6.58.23,10.61,0,.8.08,1.58.14,2.34,0,.36,0,.72.09,1.07,0,.57.1,1.12.17,1.64,0,.21,0,.41.08.61.06.49.14.95.22,1.35,0,.17.07.33.11.48s.06.26.09.38l.18.59c.07.19.13.39.2.57h0c1.4,3.93,3.64,6.11,2.11,8.69-1.38,2.35-11.76,11.73-16.32,15A6.45,6.45,0,0,1,88,371.18a.83.83,0,0,1-.39-.07c-1-.38-2.71-2.41-4.39-5-2.2-3.35-4.38-7.64-4.93-10.42-.88-4.37.19-13.33.56-16.15a0,0,0,0,0,0,0c.08-.54.12-.84.12-.84s1.08-1.26,2.71-3.11l.09-.1,0,0,.1-.11a.32.32,0,0,1,.08-.09s0,0,0,0l.91-1a.1.1,0,0,1,0-.05c.44-.5.9-1,1.39-1.55s.73-.82,1.11-1.23l1.94-2.11.8-.85.4-.42.79-.83.4-.41c.52-.55,1-1.07,1.55-1.58l.65-.65,1.3-1.25c.31-.29.6-.56.89-.81l.62-.55c.16-.13.31-.26.46-.37a5.09,5.09,0,0,1,.4-.32l.4-.3.2-.13a2.41,2.41,0,0,1,.36-.23h0l0,0s0,0,.07,0l0,0,.06,0a.6.6,0,0,1,.16-.08l.13,0,.19-.06.17,0a1.9,1.9,0,0,1,.25,0h.19a.58.58,0,0,1,.19,0h.09l.28,0h.35a11.7,11.7,0,0,1,3.14.35l.83.24h0a3,3,0,0,1,.39.13,5.92,5.92,0,0,1,.62.23l.5.21.28.12.41.2c.47.23,1,.49,1.44.79a.24.24,0,0,1,.09.06l.11.07h0a21.84,21.84,0,0,1,2.8,2.11c.17.15.35.3.52.47l.21.19c.07.07.14.13.21.21.33.3.66.64,1,1a3.07,3.07,0,0,1,.25.26c0,.06.11.11.15.17s.23.24.34.37l.15.18h0l.07.09h0l.06.07a1.19,1.19,0,0,1,.15.18l0,0a1.68,1.68,0,0,1,.18.21l.38.47,0,.06h0" />
      <path class="GUNDAN_GOAT_OUTFIT_GUNDAN_GOAT_OUTFIT_15_cls-6" d="M87.61,371.11s-.51,2.26-1.24,4.9c-.43,1.51-.92,3.14-1.42,4.55-1.39,3.85-9,9.44-9,9.44s-1.11-.12-6-.94c-.43-.07-.88-.17-1.38-.3-5.24-1.35-13.88-5.89-14.51-12.65-.71-7.4,13.81-30.25,16.58-33.74S79,338.7,79,338.7" />
      <path class="GUNDAN_GOAT_OUTFIT_GUNDAN_GOAT_OUTFIT_15_cls-6" d="M76,390c1.67,7.25-2.91,15.58-7,20.63a8.58,8.58,0,0,0-.7,1c-1.68,2.91-2.23,7.39-3,11.16-.74,3.48-1.71,6.34-4,6.84-1.76.38-4.07-1.32-6.4-3.85-.53-.58-1.06-1.2-1.59-1.85A83.91,83.91,0,0,1,45,411.17c-2.09-4.06-3.76-10.1,0-22.11s9.09-12.95,9.09-12.95" />
      <path class="GUNDAN_GOAT_OUTFIT_GUNDAN_GOAT_OUTFIT_15_cls-6" d="M54.91,425.82c1-5.64,3.8-8.6,8.18-15.06s5.49-22,5.49-22a81.14,81.14,0,0,0,14.64-22.62,83.61,83.61,0,0,0,20.92-19.72" />
      <path class="GUNDAN_GOAT_OUTFIT_GUNDAN_GOAT_OUTFIT_15_cls-6" d="M39.73,442.08a60.81,60.81,0,0,1,.42-9.14c.33-3.46.91-15.24,4.83-21.77" />
      <path class="GUNDAN_GOAT_OUTFIT_GUNDAN_GOAT_OUTFIT_15_cls-6" d="M156.62,403.33a63.93,63.93,0,0,0-5.91,8s.08,3.32.4,8.64c.25,4,.64,9.1,1.22,14.78.23,2.06.46,4.2.74,6.38.46,3.72,1,7.57,1.68,11.42.71,4.13,1.53,8.26,2.51,12.22.32,1.35.68,2.69,1,4,.52,1.89,1.09,3.72,1.69,5.47h62.95" />
      <path class="GUNDAN_GOAT_OUTFIT_GUNDAN_GOAT_OUTFIT_15_cls-6" d="M161.18,397.93l-.77.89" />
      <path class="GUNDAN_GOAT_OUTFIT_GUNDAN_GOAT_OUTFIT_15_cls-6" d="M222.94,396H200.1s-3.69,3.9-7.09,7.83c-2.68,3.11-5.18,6.22-5.5,7.42V430l2.46,2,12.63,10.26h20.34" />
      <path class="GUNDAN_GOAT_OUTFIT_GUNDAN_GOAT_OUTFIT_15_cls-6" d="M222.94,403.05h-20a26.46,26.46,0,0,0-6.85,2.22,29.75,29.75,0,0,0-8.55,6" />
      <path class="GUNDAN_GOAT_OUTFIT_GUNDAN_GOAT_OUTFIT_15_cls-6" d="M190,432s1.22-18.48,6.09-26.75" />
      <path class="GUNDAN_GOAT_OUTFIT_GUNDAN_GOAT_OUTFIT_15_cls-6" d="M114.42,399.61l1,9.77.64,6.12.42,4.32.55,5.34.22,2.07s.55-6.79,1.42-15.17l.15-1.55c.3-2.68.61-5.48,1-8.24.72-5.94,1.57-11.7,2.45-15.72" />
      <line class="GUNDAN_GOAT_OUTFIT_GUNDAN_GOAT_OUTFIT_15_cls-6" x1="112.44" y1="380.29" x2="114.4" y2="399.61" />
      <polyline class="GUNDAN_GOAT_OUTFIT_GUNDAN_GOAT_OUTFIT_15_cls-6" points="117.23 427.23 117.17 428.58 116.51 444.56 115.94 458.44" />
      <path class="GUNDAN_GOAT_OUTFIT_GUNDAN_GOAT_OUTFIT_15_cls-6" d="M105.46,429.72c-6.27,6.84-13.92,16.09-13.36,16.09.82,0,24.38-18,25.12-18.56" />
      <path class="GUNDAN_GOAT_OUTFIT_GUNDAN_GOAT_OUTFIT_15_cls-6" d="M107.55,422.83c3.9-3.57,8.47-7.33,8.47-7.33" />
      <path class="GUNDAN_GOAT_OUTFIT_GUNDAN_GOAT_OUTFIT_15_cls-6" d="M117.23,427.23v0c-.7,1-24.23,36.57-20.55,34.56s15.77-17.26,15.77-17.26" />
      <path class="GUNDAN_GOAT_OUTFIT_GUNDAN_GOAT_OUTFIT_15_cls-6" d="M89.93,370.09s8.33,20.14,24.47,29.52h0l5.33,2.66" />
      <path class="GUNDAN_GOAT_OUTFIT_GUNDAN_GOAT_OUTFIT_15_cls-6" d="M86.37,376s8.89,26.76,29,33.37l3.4,1.13h0" />
      <path class="GUNDAN_GOAT_OUTFIT_GUNDAN_GOAT_OUTFIT_15_cls-6" d="M68.32,411.67s13.76,16,39.23,11.16h0l8.9-3" />
      <path class="GUNDAN_GOAT_OUTFIT_GUNDAN_GOAT_OUTFIT_15_cls-6" d="M65.27,422.83s14.47,14.16,40.19,6.89h0c6.25-2.31,11.54-4.56,11.54-4.56" />
      <path class="GUNDAN_GOAT_OUTFIT_GUNDAN_GOAT_OUTFIT_15_cls-6" d="M98.62,335.63a9,9,0,0,1-.61,2.13A17.19,17.19,0,0,1,94.48,343a3.13,3.13,0,0,1-.26.25,17.71,17.71,0,0,1-2.13,1.88c-3.64,2.8-7.59,3.88-9.64,2.41-1.16-.84-1.5-2.33-1.12-4.13a10.56,10.56,0,0,1,.69-2.11,17.65,17.65,0,0,1,3.37-4.84c.2-.21.39-.4.61-.6A19.41,19.41,0,0,1,88.24,334c3.5-2.53,7.22-3.47,9.17-2a3.61,3.61,0,0,1,1.21,3.7" />
      <polyline class="GUNDAN_GOAT_OUTFIT_GUNDAN_GOAT_OUTFIT_15_cls-6" points="98.62 335.62 98.62 335.61 88.24 333.96" />
      <line class="GUNDAN_GOAT_OUTFIT_GUNDAN_GOAT_OUTFIT_15_cls-6" x1="98.01" y1="337.76" x2="86" y2="335.84" />
      <line class="GUNDAN_GOAT_OUTFIT_GUNDAN_GOAT_OUTFIT_15_cls-6" x1="94.22" y1="343.23" x2="82.02" y2="341.28" />
      <line class="GUNDAN_GOAT_OUTFIT_GUNDAN_GOAT_OUTFIT_15_cls-6" x1="92.09" y1="345.11" x2="81.33" y2="343.39" />
      <path class="GUNDAN_GOAT_OUTFIT_GUNDAN_GOAT_OUTFIT_15_cls-6" d="M73.92,361.59a8.54,8.54,0,0,1,0,2.2,15.81,15.81,0,0,1-2,5.8c-.06.1-.12.21-.18.3a17,17,0,0,1-1.55,2.26c-2.74,3.47-6.29,5.35-8.69,4.34-1.35-.57-2.1-1.95-2.24-3.78a8.68,8.68,0,0,1,.11-2.19,15.89,15.89,0,0,1,1.92-5.39,6.38,6.38,0,0,1,.43-.71,16.55,16.55,0,0,1,1.65-2.29c2.7-3.19,6.05-4.87,8.35-3.91a4,4,0,0,1,2.19,3.36" />
      <polyline class="GUNDAN_GOAT_OUTFIT_GUNDAN_GOAT_OUTFIT_15_cls-6" points="73.92 361.59 73.92 361.58 63.39 362.13 63.38 362.13" />
      <polyline class="GUNDAN_GOAT_OUTFIT_GUNDAN_GOAT_OUTFIT_15_cls-6" points="61.73 364.42 73.9 363.79 73.92 363.79" />
      <polyline class="GUNDAN_GOAT_OUTFIT_GUNDAN_GOAT_OUTFIT_15_cls-6" points="59.37 370.52 59.38 370.52 71.74 369.89 71.75 369.89" />
      <polyline class="GUNDAN_GOAT_OUTFIT_GUNDAN_GOAT_OUTFIT_15_cls-6" points="59.27 372.71 70.19 372.15 70.2 372.15" />
      <path class="GUNDAN_GOAT_OUTFIT_GUNDAN_GOAT_OUTFIT_15_cls-6" d="M59.46,393.42a15.28,15.28,0,0,1-.61,6c0,.1-.06.22-.1.32a19.44,19.44,0,0,1-1,2.5c-1.91,3.87-5,6.31-7.53,5.74a4.42,4.42,0,0,1-3.06-3.32,8.82,8.82,0,0,1-.41-2.15,15.42,15.42,0,0,1,.66-5.63c.08-.26.15-.53.25-.78a18.57,18.57,0,0,1,1.09-2.52c1.92-3.59,4.82-5.81,7.28-5.26A4.22,4.22,0,0,1,59,391.26,8.55,8.55,0,0,1,59.46,393.42Z" />
      <line class="GUNDAN_GOAT_OUTFIT_GUNDAN_GOAT_OUTFIT_15_cls-6" x1="58.95" y1="391.26" x2="48.75" y2="393.6" />
      <line class="GUNDAN_GOAT_OUTFIT_GUNDAN_GOAT_OUTFIT_15_cls-6" x1="59.46" y1="393.42" x2="47.66" y2="396.13" />
      <line class="GUNDAN_GOAT_OUTFIT_GUNDAN_GOAT_OUTFIT_15_cls-6" x1="58.74" y1="399.77" x2="46.75" y2="402.53" />
      <line class="GUNDAN_GOAT_OUTFIT_GUNDAN_GOAT_OUTFIT_15_cls-6" x1="57.74" y1="402.27" x2="47.16" y2="404.69" />
      <polyline class="GUNDAN_GOAT_OUTFIT_GUNDAN_GOAT_OUTFIT_15_cls-6" points="163.47 396.98 193.01 403.84 193.02 403.84" />
      <path class="GUNDAN_GOAT_OUTFIT_GUNDAN_GOAT_OUTFIT_15_cls-6" d="M150.71,411.29s20,7.87,36.8,7.87" />
      <path class="GUNDAN_GOAT_OUTFIT_GUNDAN_GOAT_OUTFIT_15_cls-6" d="M118.65,412.06s16.81,6.16,32.46,7.87" />
      <path class="GUNDAN_GOAT_OUTFIT_GUNDAN_GOAT_OUTFIT_15_cls-6" d="M117.17,428.58s18.12,5.21,35.16,6.13h0" />
      <ellipse class="GUNDAN_GOAT_OUTFIT_GUNDAN_GOAT_OUTFIT_15_cls-6" cx="161.46" cy="429.06" rx="3.16" ry="2.74" />
      <path class="GUNDAN_GOAT_OUTFIT_GUNDAN_GOAT_OUTFIT_15_cls-6" d="M149,426.62c0,2.65-1.4,4.81-3.15,4.81s-3.15-2.16-3.15-4.81,1.41-4.8,3.15-4.8S149,424,149,426.62Z" />
      <path class="GUNDAN_GOAT_OUTFIT_GUNDAN_GOAT_OUTFIT_15_cls-6" d="M147.45,323.67c-1.53,3.74-.89,9.63.31,15,.19.87.4,1.72.61,2.55.29,1.11.59,2.18.88,3.19,1.2,4.05,2.35,7,2.43,7.21h0" />
      <path class="GUNDAN_GOAT_OUTFIT_GUNDAN_GOAT_OUTFIT_15_cls-6" d="M149.31,374.33a76.49,76.49,0,0,0,2.45,7.81,73.92,73.92,0,0,0,3.38,7.78,76.23,76.23,0,0,0,5.27,8.9c.35.53.72,1.05,1.11,1.58" />
      <path class="GUNDAN_GOAT_OUTFIT_GUNDAN_GOAT_OUTFIT_15_cls-6" d="M149,373.25c.08.36.17.72.26,1.08" />
      <path class="GUNDAN_GOAT_OUTFIT_GUNDAN_GOAT_OUTFIT_15_cls-6" d="M161.53,400.4c.62.89,1.28,1.76,2,2.64a2.37,2.37,0,0,1-.78,3.58,3.24,3.24,0,0,1-1.68.46A3.08,3.08,0,0,1,158.6,406c-.58-.72-1.12-1.45-1.66-2.18a4.07,4.07,0,0,1-.32-.44,80,80,0,0,1-5.39-8.4,78.21,78.21,0,0,1-4.54-9.47,80.47,80.47,0,0,1-3.21-9.72c-.52-1.94-.94-3.83-1.29-5.65-.25-1.29-.45-2.55-.62-3.78-.25-1.72-.43-3.36-.56-4.93-.07-.89-.13-1.76-.17-2.6a78.08,78.08,0,0,1,.06-9c.17-2.57.44-4.47.61-5.52a8.25,8.25,0,0,1,.16-.85,3,3,0,0,1,3.45-2.09,2.64,2.64,0,0,1,2.42,3,43.35,43.35,0,0,0-.58,4.88c0,.29,0,.58-.05.89-.12,2-.18,4.45-.07,7.24.07,2.21.26,4.64.59,7.23.1.77.2,1.56.34,2.36.32,2,.73,4.18,1.26,6.39" />
      <path class="GUNDAN_GOAT_OUTFIT_GUNDAN_GOAT_OUTFIT_15_cls-6" d="M140.9,349.73a7.88,7.88,0,0,1,6,.3" />
      <path class="GUNDAN_GOAT_OUTFIT_GUNDAN_GOAT_OUTFIT_15_cls-6" d="M140.84,358.78a7.55,7.55,0,0,1,6-1.51" />
      <path class="GUNDAN_GOAT_OUTFIT_GUNDAN_GOAT_OUTFIT_15_cls-6" d="M141.57,366.31a7,7,0,0,1,5.86-1.81" />
      <path class="GUNDAN_GOAT_OUTFIT_GUNDAN_GOAT_OUTFIT_15_cls-6" d="M147.55,373.36a7.45,7.45,0,0,0-4.07,2.38" />
      <path class="GUNDAN_GOAT_OUTFIT_GUNDAN_GOAT_OUTFIT_15_cls-6" d="M149,373.25h0a7.56,7.56,0,0,0-1.47.11" />
      <path class="GUNDAN_GOAT_OUTFIT_GUNDAN_GOAT_OUTFIT_15_cls-6" d="M146.69,385.46a7.64,7.64,0,0,1,5.07-3.32" />
      <path class="GUNDAN_GOAT_OUTFIT_GUNDAN_GOAT_OUTFIT_15_cls-6" d="M151.23,394.93a9.18,9.18,0,0,1,3.91-5" />
      <path class="GUNDAN_GOAT_OUTFIT_GUNDAN_GOAT_OUTFIT_15_cls-6" d="M161.53,400.4h0a5.09,5.09,0,0,0-4.58,3.37" />
      <path class="GUNDAN_GOAT_OUTFIT_GUNDAN_GOAT_OUTFIT_15_cls-6" d="M225.1,422.62c0,6.74-1,12.21-2.16,12.21s-2.16-5.47-2.16-12.21,1-12.21,2.16-12.21S225.1,415.87,225.1,422.62Z" />
      <path class="GUNDAN_GOAT_OUTFIT_GUNDAN_GOAT_OUTFIT_15_cls-6" d="M215.23,422.62c0,6.74-1,12.21-2.14,12.21s-2.16-5.47-2.16-12.21,1-12.21,2.16-12.21S215.23,415.87,215.23,422.62Z" />
      <path class="GUNDAN_GOAT_OUTFIT_GUNDAN_GOAT_OUTFIT_15_cls-6" d="M205.38,422.62c0,6.74-1,12.21-2.16,12.21s-2.14-5.47-2.14-12.21,1-12.21,2.14-12.21S205.38,415.87,205.38,422.62Z" />
      <line class="GUNDAN_GOAT_OUTFIT_GUNDAN_GOAT_OUTFIT_15_cls-6" x1="147.56" y1="373.36" x2="147.55" y2="373.36" />
      <path class="GUNDAN_GOAT_OUTFIT_GUNDAN_GOAT_OUTFIT_15_cls-6" d="M149.3,374.33h0a101.1,101.1,0,0,0,13.08,5.73" />
      <path class="GUNDAN_GOAT_OUTFIT_GUNDAN_GOAT_OUTFIT_15_cls-6" d="M108.68,333s9.08,20.81,33.51,37.13" />
      <path class="GUNDAN_GOAT_OUTFIT_GUNDAN_GOAT_OUTFIT_15_cls-6" d="M165.41,376.57a81.19,81.19,0,0,1-17.64-9.71" />
      <path class="GUNDAN_GOAT_OUTFIT_GUNDAN_GOAT_OUTFIT_15_cls-6" d="M111.39,331.06A390.69,390.69,0,0,0,141,361.38" />
      <path class="GUNDAN_GOAT_OUTFIT_GUNDAN_GOAT_OUTFIT_15_cls-6" d="M233.92,371.77v-5.89s14.35-5.77,36.54-17.32c10-5.21,19.67-19,22.05-28.53,1.12-4.5,3.82-7.93,4.08-11.59.08-1.14.14-2.23.17-3.22" />
      <path class="GUNDAN_GOAT_OUTFIT_GUNDAN_GOAT_OUTFIT_15_cls-6" d="M291.52,349.14a27.14,27.14,0,0,1-4.73,2.52c-3.94,11.45-11.7,19.28-16.3,23.14" />
      <path class="GUNDAN_GOAT_OUTFIT_GUNDAN_GOAT_OUTFIT_15_cls-6" d="M308.7,314.49c0-.53,0-1.05-.07-1.56-.12-2.29-.33-4.36-.54-6.07-.93-2.53-8-9.21-13.44-14.72l2.11,13.08c-7.47,6.65-36.34,28.45-64.17,48.18q-4.71,3.35-9.65,6.7-5.38,3.66-11,7.26" />
      <path class="GUNDAN_GOAT_OUTFIT_GUNDAN_GOAT_OUTFIT_15_cls-6" d="M297,344.21c6.25-7.59,12-21.59,11.74-29.7" />
      <path class="GUNDAN_GOAT_OUTFIT_GUNDAN_GOAT_OUTFIT_15_cls-6" d="M222.94,374.83c.25,0,24.77,0,34.4.45,9.35.43,14.15,1.58,17.67,10.24a1.67,1.67,0,0,0,1.08.94,2,2,0,0,0,.61.09,2.16,2.16,0,0,0,.6-.08,1.5,1.5,0,0,0,1.08-2,24.5,24.5,0,0,0-2.29-4.44,17.18,17.18,0,0,0-3-3.49,14.25,14.25,0,0,0-2.58-1.77c-3.61-1.95-7.94-2.38-13-2.62-5.48-.25-15.69-.36-23.62-.41-6.12,0-10.86,0-11,0" />
      <path class="GUNDAN_GOAT_OUTFIT_GUNDAN_GOAT_OUTFIT_15_cls-6" d="M222.94,386.29c.25,0,24.77,0,34.4.45,9.35.43,14.15,1.58,17.67,10.24a1.79,1.79,0,0,0,1.69,1,2.16,2.16,0,0,0,.6-.08,1.5,1.5,0,0,0,1.08-2,23.06,23.06,0,0,0-3.54-6.12c-4.29-5.11-10.09-5.86-17.31-6.19-9.72-.44-34.34-.45-34.59-.45" />
      <line class="GUNDAN_GOAT_OUTFIT_GUNDAN_GOAT_OUTFIT_15_cls-6" x1="276.09" y1="386.46" x2="274.84" y2="389.83" />
      <path class="GUNDAN_GOAT_OUTFIT_GUNDAN_GOAT_OUTFIT_15_cls-6" d="M327,337.39c-1.25-1,1.58-6.17-1.09-8.07-.83-.6-1.73-1.23-2.7-1.9-.78-.53-1.58-1.11-2.39-1.75a130.21,130.21,0,0,1-12.09-11.16h0" />
      <path class="GUNDAN_GOAT_OUTFIT_GUNDAN_GOAT_OUTFIT_15_cls-6" d="M327.19,325.17s.09,6.41-.21,12.22a41.64,41.64,0,0,1-.91,7.87,10.5,10.5,0,0,1-.38,1.16c-1.39,3.94-3.63,6.12-2.11,8.7,1.39,2.35,11.76,11.74,16.33,15a6.45,6.45,0,0,0,1.93,1.09.83.83,0,0,0,.39-.07c1-.38,2.71-2.41,4.39-5,2.2-3.35,4.38-7.64,4.93-10.42,1.05-5.23-.69-17-.69-17s-15.27-17.8-18.33-18.41c-2.87-.55-4.67-3.8-11.73,5.38" />
      <path class="GUNDAN_GOAT_OUTFIT_GUNDAN_GOAT_OUTFIT_15_cls-6" d="M350.86,338.7s5.55.18,8.33,3.67,17.28,26.34,16.58,33.74c-.63,6.76-9.27,11.3-14.51,12.65-.5.13-.95.23-1.38.3-4.92.82-6,.94-6,.94s-7.57-5.59-9-9.44c-.5-1.41-1-3-1.42-4.55-.73-2.64-1.24-4.9-1.24-4.9" />
      <path class="GUNDAN_GOAT_OUTFIT_GUNDAN_GOAT_OUTFIT_15_cls-6" d="M375.77,376.11s5.35.95,9.09,12.95,2.09,18.05,0,22.11a84.7,84.7,0,0,1-8.34,12.8c-.53.65-1.06,1.27-1.59,1.85-2.33,2.53-4.64,4.23-6.4,3.85-2.25-.5-3.22-3.36-4-6.84-.82-3.77-1.37-8.25-3.05-11.16a8.58,8.58,0,0,0-.7-1c-4.06-5.05-8.64-13.38-7-20.63" />
      <path class="GUNDAN_GOAT_OUTFIT_GUNDAN_GOAT_OUTFIT_15_cls-6" d="M325.69,346.42a83.88,83.88,0,0,0,20.93,19.72,80.89,80.89,0,0,0,14.64,22.62s1.12,15.56,5.49,22,7.17,9.42,8.18,15.06" />
      <path class="GUNDAN_GOAT_OUTFIT_GUNDAN_GOAT_OUTFIT_15_cls-6" d="M376.52,424c.29,2.06.73,5.51,1.06,9a60.81,60.81,0,0,1,.42,9.14" />
      <path class="GUNDAN_GOAT_OUTFIT_GUNDAN_GOAT_OUTFIT_15_cls-6" d="M222.94,474.19h55.55c.59-1.75,1.17-3.58,1.69-5.47.36-1.3.71-2.64,1-4,1-4,1.8-8.09,2.51-12.22.66-3.85,1.22-7.7,1.68-11.42.27-2.18.51-4.32.74-6.38.58-5.68,1-10.79,1.21-14.78.33-5.32.41-8.64.41-8.64a63.93,63.93,0,0,0-5.91-8" />
      <path class="GUNDAN_GOAT_OUTFIT_GUNDAN_GOAT_OUTFIT_15_cls-6" d="M278.07,398.82l-.77-.89" />
      <path class="GUNDAN_GOAT_OUTFIT_GUNDAN_GOAT_OUTFIT_15_cls-6" d="M222.94,396h22.84s3.7,3.9,7.09,7.83c2.68,3.11,5.18,6.22,5.51,7.42V430l-2.47,2-12.63,10.26H222.94" />
      <path class="GUNDAN_GOAT_OUTFIT_GUNDAN_GOAT_OUTFIT_15_cls-6" d="M222.94,403.05h20a26.46,26.46,0,0,1,6.85,2.22,29.78,29.78,0,0,1,8.56,6" />
      <path class="GUNDAN_GOAT_OUTFIT_GUNDAN_GOAT_OUTFIT_15_cls-6" d="M255.91,432s-1.22-18.48-6.09-26.75" />
      <path class="GUNDAN_GOAT_OUTFIT_GUNDAN_GOAT_OUTFIT_15_cls-6" d="M315.42,399.61l-1,9.77-.63,6.12-.43,4.32-.54,5.34-.22,2.07s-.55-6.79-1.42-15.17c-.06-.51-.1-1-.15-1.55-.3-2.68-.61-5.48-1-8.24-.72-5.94-1.57-11.7-2.45-15.72" />
      <line class="GUNDAN_GOAT_OUTFIT_GUNDAN_GOAT_OUTFIT_15_cls-6" x1="317.4" y1="380.29" x2="315.44" y2="399.61" />
      <path class="GUNDAN_GOAT_OUTFIT_GUNDAN_GOAT_OUTFIT_15_cls-6" d="M312.62,427.25c.74.56,24.3,18.56,25.12,18.56.56,0-7.09-9.25-13.36-16.09" />
      <polyline class="GUNDAN_GOAT_OUTFIT_GUNDAN_GOAT_OUTFIT_15_cls-6" points="313.9 458.44 313.33 444.56 312.67 428.58 312.61 427.23" />
      <path class="GUNDAN_GOAT_OUTFIT_GUNDAN_GOAT_OUTFIT_15_cls-6" d="M313.81,415.5s4.58,3.76,8.48,7.33" />
      <path class="GUNDAN_GOAT_OUTFIT_GUNDAN_GOAT_OUTFIT_15_cls-6" d="M312.61,427.23v0c.69,1,24.23,36.57,20.54,34.56s-15.76-17.26-15.76-17.26" />
      <path class="GUNDAN_GOAT_OUTFIT_GUNDAN_GOAT_OUTFIT_15_cls-6" d="M339.91,370.09s-8.33,20.14-24.47,29.52h0l-5.33,2.66" />
      <path class="GUNDAN_GOAT_OUTFIT_GUNDAN_GOAT_OUTFIT_15_cls-6" d="M343.47,376s-8.89,26.76-29,33.37L311,410.51h0" />
      <path class="GUNDAN_GOAT_OUTFIT_GUNDAN_GOAT_OUTFIT_15_cls-6" d="M361.52,411.67s-13.76,16-39.23,11.16h0l-8.9-3" />
      <path class="GUNDAN_GOAT_OUTFIT_GUNDAN_GOAT_OUTFIT_15_cls-6" d="M364.57,422.83s-14.48,14.16-40.19,6.89h0c-6.25-2.31-11.54-4.56-11.54-4.56" />
      <path class="GUNDAN_GOAT_OUTFIT_GUNDAN_GOAT_OUTFIT_15_cls-6" d="M331.22,335.63a9,9,0,0,0,.61,2.13,17.19,17.19,0,0,0,3.53,5.22,3.13,3.13,0,0,0,.26.25,17.71,17.71,0,0,0,2.13,1.88c3.64,2.8,7.59,3.88,9.64,2.41,1.16-.84,1.5-2.33,1.12-4.13a10.56,10.56,0,0,0-.69-2.11,17.88,17.88,0,0,0-3.37-4.84l-.61-.6A20.29,20.29,0,0,0,341.6,334c-3.5-2.53-7.22-3.47-9.17-2a3.59,3.59,0,0,0-1.21,3.7" />
      <polyline class="GUNDAN_GOAT_OUTFIT_GUNDAN_GOAT_OUTFIT_15_cls-6" points="331.22 335.63 331.22 335.62 341.6 333.96" />
      <line class="GUNDAN_GOAT_OUTFIT_GUNDAN_GOAT_OUTFIT_15_cls-6" x1="343.84" y1="335.84" x2="331.83" y2="337.76" />
      <line class="GUNDAN_GOAT_OUTFIT_GUNDAN_GOAT_OUTFIT_15_cls-6" x1="347.82" y1="341.28" x2="335.62" y2="343.23" />
      <line class="GUNDAN_GOAT_OUTFIT_GUNDAN_GOAT_OUTFIT_15_cls-6" x1="348.51" y1="343.39" x2="337.75" y2="345.11" />
      <path class="GUNDAN_GOAT_OUTFIT_GUNDAN_GOAT_OUTFIT_15_cls-6" d="M355.92,361.59a8.54,8.54,0,0,0,0,2.2,15.63,15.63,0,0,0,2,5.8c.06.1.12.21.18.3a16.07,16.07,0,0,0,1.55,2.26c2.74,3.47,6.29,5.35,8.68,4.34,1.36-.57,2.11-1.95,2.24-3.78a8.65,8.65,0,0,0-.1-2.19,15.89,15.89,0,0,0-1.92-5.39c-.13-.25-.28-.48-.43-.71a15.81,15.81,0,0,0-1.66-2.29c-2.69-3.19-6-4.87-8.34-3.91a4,4,0,0,0-2.19,3.36" />
      <polyline class="GUNDAN_GOAT_OUTFIT_GUNDAN_GOAT_OUTFIT_15_cls-6" points="366.45 362.13 355.92 361.58 355.92 361.59" />
      <polyline class="GUNDAN_GOAT_OUTFIT_GUNDAN_GOAT_OUTFIT_15_cls-6" points="355.92 363.79 355.93 363.79 368.11 364.42" />
      <polyline class="GUNDAN_GOAT_OUTFIT_GUNDAN_GOAT_OUTFIT_15_cls-6" points="358.09 369.89 370.46 370.52 370.47 370.52" />
      <line class="GUNDAN_GOAT_OUTFIT_GUNDAN_GOAT_OUTFIT_15_cls-6" x1="370.56" y1="372.71" x2="359.64" y2="372.15" />
      <path class="GUNDAN_GOAT_OUTFIT_GUNDAN_GOAT_OUTFIT_15_cls-6" d="M370.37,393.42a15.49,15.49,0,0,0,.62,6c0,.1.06.22.1.32a18.09,18.09,0,0,0,1,2.5c1.91,3.87,5,6.31,7.53,5.74a4.42,4.42,0,0,0,3.06-3.32,8.82,8.82,0,0,0,.41-2.15,15.42,15.42,0,0,0-.66-5.63c-.08-.26-.15-.53-.25-.78a18.57,18.57,0,0,0-1.09-2.52c-1.92-3.59-4.82-5.81-7.28-5.26a4.22,4.22,0,0,0-2.92,2.91A9,9,0,0,0,370.37,393.42Z" />
      <line class="GUNDAN_GOAT_OUTFIT_GUNDAN_GOAT_OUTFIT_15_cls-6" x1="381.08" y1="393.6" x2="370.89" y2="391.26" />
      <line class="GUNDAN_GOAT_OUTFIT_GUNDAN_GOAT_OUTFIT_15_cls-6" x1="382.18" y1="396.13" x2="370.37" y2="393.42" />
      <line class="GUNDAN_GOAT_OUTFIT_GUNDAN_GOAT_OUTFIT_15_cls-6" x1="383.09" y1="402.53" x2="371.1" y2="399.77" />
      <line class="GUNDAN_GOAT_OUTFIT_GUNDAN_GOAT_OUTFIT_15_cls-6" x1="382.68" y1="404.69" x2="372.1" y2="402.27" />
      <polyline class="GUNDAN_GOAT_OUTFIT_GUNDAN_GOAT_OUTFIT_15_cls-6" points="275.01 396.98 252.87 403.84 252.86 403.84" />
      <path class="GUNDAN_GOAT_OUTFIT_GUNDAN_GOAT_OUTFIT_15_cls-6" d="M287.77,411.29a61,61,0,0,1-29.39,7.87" />
      <path class="GUNDAN_GOAT_OUTFIT_GUNDAN_GOAT_OUTFIT_15_cls-6" d="M311.19,412.06s-8.17,6.16-23.83,7.87" />
      <path class="GUNDAN_GOAT_OUTFIT_GUNDAN_GOAT_OUTFIT_15_cls-6" d="M312.67,428.58s-9.48,5.21-26.52,6.13h0" />
      <ellipse class="GUNDAN_GOAT_OUTFIT_GUNDAN_GOAT_OUTFIT_15_cls-6" cx="277.02" cy="429.06" rx="3.16" ry="2.74" />
      <path class="GUNDAN_GOAT_OUTFIT_GUNDAN_GOAT_OUTFIT_15_cls-6" d="M289.48,426.62c0,2.65,1.41,4.81,3.16,4.81s3.15-2.16,3.15-4.81-1.41-4.8-3.15-4.8S289.48,424,289.48,426.62Z" />
      <path class="GUNDAN_GOAT_OUTFIT_GUNDAN_GOAT_OUTFIT_15_cls-6" d="M286.79,351.66S296,328.51,292.51,320" />
      <path class="GUNDAN_GOAT_OUTFIT_GUNDAN_GOAT_OUTFIT_15_cls-6" d="M289.16,374.33a77.89,77.89,0,0,1-5.82,15.59,76.23,76.23,0,0,1-5.27,8.9c-.36.53-.73,1.05-1.11,1.58" />
      <path class="GUNDAN_GOAT_OUTFIT_GUNDAN_GOAT_OUTFIT_15_cls-6" d="M289.44,373.25c-.07.36-.17.72-.26,1.08" />
      <path class="GUNDAN_GOAT_OUTFIT_GUNDAN_GOAT_OUTFIT_15_cls-6" d="M277,400.4c-.62.89-1.29,1.76-2,2.64a2.36,2.36,0,0,0,.78,3.58,3.22,3.22,0,0,0,1.68.46,3.08,3.08,0,0,0,2.45-1.13c.57-.72,1.12-1.45,1.66-2.18.12-.14.22-.3.32-.44a78.26,78.26,0,0,0,5.38-8.4,76.74,76.74,0,0,0,4.54-9.47,78.86,78.86,0,0,0,3.22-9.72c.51-1.94.94-3.83,1.29-5.65.25-1.29.45-2.55.62-3.78.25-1.72.43-3.36.56-4.93.07-.89.13-1.76.16-2.6a75.9,75.9,0,0,0-.06-9c-.16-2.57-.44-4.47-.6-5.52a8.25,8.25,0,0,0-.16-.85,3,3,0,0,0-3.45-2.09,2.64,2.64,0,0,0-2.42,3,46.44,46.44,0,0,1,.58,4.88c0,.29,0,.58.05.89.12,2,.18,4.45.07,7.24-.07,2.21-.26,4.64-.59,7.23-.1.77-.21,1.56-.34,2.36-.32,2-.74,4.18-1.26,6.39" />
      <path class="GUNDAN_GOAT_OUTFIT_GUNDAN_GOAT_OUTFIT_15_cls-6" d="M291.57,350a7.86,7.86,0,0,1,6-.3" />
      <path class="GUNDAN_GOAT_OUTFIT_GUNDAN_GOAT_OUTFIT_15_cls-6" d="M291.64,357.27a7.52,7.52,0,0,1,6,1.51" />
      <path class="GUNDAN_GOAT_OUTFIT_GUNDAN_GOAT_OUTFIT_15_cls-6" d="M291.05,364.5a7,7,0,0,1,5.86,1.81" />
      <path class="GUNDAN_GOAT_OUTFIT_GUNDAN_GOAT_OUTFIT_15_cls-6" d="M290.91,373.36a7.46,7.46,0,0,0-1.46-.11h0" />
      <path class="GUNDAN_GOAT_OUTFIT_GUNDAN_GOAT_OUTFIT_15_cls-6" d="M295,375.74a7.48,7.48,0,0,0-4.07-2.38" />
      <path class="GUNDAN_GOAT_OUTFIT_GUNDAN_GOAT_OUTFIT_15_cls-6" d="M286.72,382.14a7.6,7.6,0,0,1,5.06,3.32" />
      <path class="GUNDAN_GOAT_OUTFIT_GUNDAN_GOAT_OUTFIT_15_cls-6" d="M283.34,389.92a9.17,9.17,0,0,1,3.9,5" />
      <path class="GUNDAN_GOAT_OUTFIT_GUNDAN_GOAT_OUTFIT_15_cls-6" d="M281.54,403.77A5.11,5.11,0,0,0,277,400.4h0" />
      <path class="GUNDAN_GOAT_OUTFIT_GUNDAN_GOAT_OUTFIT_15_cls-6" d="M230.65,422.62c0,6.74,1,12.21,2.14,12.21s2.16-5.47,2.16-12.21-1-12.21-2.16-12.21S230.65,415.87,230.65,422.62Z" />
      <path class="GUNDAN_GOAT_OUTFIT_GUNDAN_GOAT_OUTFIT_15_cls-6" d="M240.5,422.62c0,6.74,1,12.21,2.16,12.21s2.14-5.47,2.14-12.21-1-12.21-2.14-12.21S240.5,415.87,240.5,422.62Z" />
      <line class="GUNDAN_GOAT_OUTFIT_GUNDAN_GOAT_OUTFIT_15_cls-6" x1="290.93" y1="373.36" x2="290.91" y2="373.36" />
      <path class="GUNDAN_GOAT_OUTFIT_GUNDAN_GOAT_OUTFIT_15_cls-6" d="M276.09,380.06a100.94,100.94,0,0,0,13.07-5.73h0" />
      <path class="GUNDAN_GOAT_OUTFIT_GUNDAN_GOAT_OUTFIT_15_cls-6" d="M296.29,370.09c24.42-16.32,29.6-40.77,29.6-40.77" />
      <path class="GUNDAN_GOAT_OUTFIT_GUNDAN_GOAT_OUTFIT_15_cls-6" d="M290.71,366.86a81.19,81.19,0,0,1-17.64,9.71" />
      <path class="GUNDAN_GOAT_OUTFIT_GUNDAN_GOAT_OUTFIT_15_cls-6" d="M297.47,361.38c15.82-14.31,25.72-34,25.72-34" />
      <path class="GUNDAN_GOAT_OUTFIT_GUNDAN_GOAT_OUTFIT_15_cls-6" d="M232.59,353.4C188,338.86,146.09,308,145.32,307.26h0" />
      <path class="GUNDAN_GOAT_OUTFIT_GUNDAN_GOAT_OUTFIT_15_cls-6" d="M222.94,360.1c-32.41-7-67.73-29.62-75.82-37.81h0" />
      <g class="GUNDAN_GOAT_OUTFIT_GUNDAN_GOAT_OUTFIT_15_cls-7">
        <path d="M149.45,342.25c-.08-.07-.5-.43-1.08-1a21.1,21.1,0,0,1-3.17-3.86c-1.56-2.56-5-11-5.2-11.4-.1-.17-1.66-4.11-3.29-8.23l-3.77-9.48,0,0,0-.05c.47-.67,3.36-4.79,6.14-8.38l0,0s0,0,0,0l0,0,6-5.88.27-.27c-.13,1.41-.73,4.13-.88,5.53,0,.57-.12,1.14-.18,1.72h0a33.73,33.73,0,0,0-1.32,4.86,66.75,66.75,0,0,0-1.22,11.2c-.2,6.84,3.11,15.68,5.41,20.91.13.32.27.63.4.92C148.69,340.79,149.38,342.12,149.45,342.25Z" />
        <path d="M131.23,312.88s-13.55,13.61-19.93,17.89-8.06,6.31-8.06,6.31a12.4,12.4,0,0,0,1.46,10.74c3.55,5.53,2,7,.82,8.28s-13.43,12.35-13.43,12.35l-2.16,1.64s5.67,20.32,31.95,32.82c-14.11-15.64-11.75-35.55-11.75-35.55l12.09-21.14L138,339.77S130.61,320.53,131.23,312.88Z" />
        <path d="M85.85,377.79a17,17,0,0,1-9.51,11.52,20.41,20.41,0,0,1-1.85,12.23c-1.92,3.88-5.48,8.61-6.7,11.18s-2.23,11.57-3.71,14.18-4.22,4.84-8.54-.43l-2-2.29S51.85,435.86,52.26,444a81.82,81.82,0,0,1-.48,15.2s-1-14.26-2.55-16.33A15.58,15.58,0,0,0,46.5,440a27.21,27.21,0,0,0,2.08,5.41c1.11,1.86.92,2.81.92,2.81l-.45-.92S45.55,460,44.66,462.7s-1.68,10.86-.93,11.49H89.31s2-23.29,7-27.92,23.45-17.95,19-16-14,2.78-14,2.78,14.55-16.42,16-18.69,2.15-3.64,1.58-3.82-2.22-8-2.22-8S92,393.38,87,373.79C86.85,377.32,85.85,377.79,85.85,377.79Z" />
        <path d="M56,474.2H31.62s-.42-8.3,1.38-12.87c1.29-3.26,2.94-10.94,3.86-15.07-1.26-2.32-3.07-4.18-2.89-5.56s3.72-5.29,6.05-7.76c.33-3.44,1.53-16.13,4.89-21.67,3.55,5.78,7,10.45,8.93,13l0,0c.83,1.09,1.39,1.8,1.59,2l.08.1Z" />
        <path d="M78.87,339.52s-5.08,16.31-4.35,25.84c-2.5-9.51-2.77-13.7-2.77-13.7s-3.58,16.2-.92,24.45,2.42,7.08,2.42,7.08S78.69,385,82,384.7c-6.25,6.87-5.41,20-6.09,20.85s-6.4,11.28-6.82,13.17S62.76,432,62.45,432.16s-6.25-1.59-6.35-1.92S52.74,424,52.74,424s-9.41-12.69-10-19.61,3.31-20,7.16-23.44S54,377.54,54,377.54s1-7.44,8.82-18.72,7.81-17.32,10-18.32a34.9,34.9,0,0,1,5.85-1.78S95.55,321,96.78,320.5s5.33-1.11,9.78,2a31.07,31.07,0,0,1,6.79,6.29l-10.11,8.31s1.61-10.42-.38-10.33-6.27,4.31-6.27,4.31-2,41.47-9,29.21S78.87,339.52,78.87,339.52Z" />
        <path d="M191.45,383.53s2.93,1.44,1.57,2.76A80.77,80.77,0,0,1,200.1,396h21.12l3.88,6.9s8.3,30,4.14,39.38c-4.16,20.36-5.83,31.9-5.83,31.9H114.81s1.08-35-.39-32.46-14.91,27-14.91,27,5.61-20.24,12.28-32.19,8-15.55,8-15.55-.55-14.32,0-18.71S122,387,122.22,386.55s-7.82-25.92-4.91-33.68,14.47-16.3,14.47-16.3l7.91,4.62s8.05-.85,10.85,5.23,7.16,15.36,7.58,15.55,34.27,9.91,43.64,11,30.19-2.47,30.4,1.89c-24.57,0-32.07.88-32.07.88S219.45,384.33,191.45,383.53Z" />
        <path d="M305.45,383.8s2.29,28.07,5.14,45.75a165.1,165.1,0,0,1,2.24,30.7s.49,12.49,1,10.29-1.14-14.52-.59-28.46,1.26-19.35,3.2-24.87,8.81-15,7.77-27.38-3-23-3-23S317.07,381,317.4,393a67.7,67.7,0,0,1-2.53,20.78s-2.55-5.09-1.62-17.39a41.65,41.65,0,0,0-4.53-21.84L304,371.71Z" />
        <path d="M317.4,410.41S316,414.49,327,432s27.17,32.21,23.33,31.55-20-20.14-24.62-23.93a69,69,0,0,1-9.27-9.93s4.37,7.56,11.59,21.56,5.16,15.61,4.31,14.26-7.35-14-10-17.77-7.74-13.06-7.74-13.06-3.2-5.29-3-6.13S316.65,420.69,317.4,410.41Z" />
      </g>
      <path class="GUNDAN_GOAT_OUTFIT_GUNDAN_GOAT_OUTFIT_15_cls-8" d="M147.12,322.3l-1.33-9.85v-.06l-.72-5.26a24.35,24.35,0,0,1-.63-5.48c0-.21,0-.41,0-.59l0-.25h0c.06-.58.13-1.15.18-1.72s.17-1.23.31-2c.08-.5.19-1,.27-1.53.05-.25.09-.5.13-.73s.07-.47.1-.68.06-.41.08-.59" />
      <line class="GUNDAN_GOAT_OUTFIT_GUNDAN_GOAT_OUTFIT_15_cls-6" x1="103.24" y1="337.08" x2="131.59" y2="313.07" />
    </g>
  </g>
</svg>