<svg xmlns="http://www.w3.org/2000/svg" xmlns:xlink="http://www.w3.org/1999/xlink" viewBox="0 0 432 432">
  <defs>
    <style>.GUNDAN_GOAT_OUTFIT_GUNDAN_GOAT_OUTFIT_33_cls-1,.GUNDAN_GOAT_OUTFIT_GUNDAN_GOAT_OUTFIT_33_cls-11,.GUNDAN_GOAT_OUTFIT_GUNDAN_GOAT_OUTFIT_33_cls-5{fill:none;}.GUNDAN_GOAT_OUTFIT_GUNDAN_GOAT_OUTFIT_33_cls-2{isolation:isolate;}.GUNDAN_GOAT_OUTFIT_GUNDAN_GOAT_OUTFIT_33_cls-3{fill:#191e1d;}.GUNDAN_GOAT_OUTFIT_GUNDAN_GOAT_OUTFIT_33_cls-4{fill:#ddebe8;}.GUNDAN_GOAT_OUTFIT_GUNDAN_GOAT_OUTFIT_33_cls-11,.GUNDAN_GOAT_OUTFIT_GUNDAN_GOAT_OUTFIT_33_cls-5{stroke:#000;stroke-linecap:round;stroke-linejoin:round;}.GUNDAN_GOAT_OUTFIT_GUNDAN_GOAT_OUTFIT_33_cls-5{stroke-width:1.67px;}.GUNDAN_GOAT_OUTFIT_GUNDAN_GOAT_OUTFIT_33_cls-6{fill:#f6ed54;}.GUNDAN_GOAT_OUTFIT_GUNDAN_GOAT_OUTFIT_33_cls-7{clip-path:url(#GUNDAN_GOAT_OUTFIT_GUNDAN_GOAT_OUTFIT_33_clip-path);}.GUNDAN_GOAT_OUTFIT_GUNDAN_GOAT_OUTFIT_33_cls-8{fill:#fff;}.GUNDAN_GOAT_OUTFIT_GUNDAN_GOAT_OUTFIT_33_cls-9{fill:#f4f35a;}.GUNDAN_GOAT_OUTFIT_GUNDAN_GOAT_OUTFIT_33_cls-10{fill:#caedcc;}.GUNDAN_GOAT_OUTFIT_GUNDAN_GOAT_OUTFIT_33_cls-11{stroke-width:1.87px;}.GUNDAN_GOAT_OUTFIT_GUNDAN_GOAT_OUTFIT_33_cls-12{opacity:0.22;}.GUNDAN_GOAT_OUTFIT_GUNDAN_GOAT_OUTFIT_33_cls-12,.GUNDAN_GOAT_OUTFIT_GUNDAN_GOAT_OUTFIT_33_cls-13{mix-blend-mode:multiply;}.GUNDAN_GOAT_OUTFIT_GUNDAN_GOAT_OUTFIT_33_cls-13{fill:#3a3a22;opacity:0.4;}</style>
    <clipPath id="clip-path">
      <polygon class="GUNDAN_GOAT_OUTFIT_GUNDAN_GOAT_OUTFIT_33_cls-1" points="171.14 441.61 0 441.61 9.38 317.08 180.52 317.08 171.14 441.61" />
    </clipPath>
  </defs>
  <g class="GUNDAN_GOAT_OUTFIT_GUNDAN_GOAT_OUTFIT_33_cls-2">
    <g id="outfit">
      <path class="GUNDAN_GOAT_OUTFIT_GUNDAN_GOAT_OUTFIT_33_cls-3" d="M170.57,431.86,48,435.33S44,424.06,38.66,411.39c6.19-5.3,15.73-11.35,18.75-20a49.69,49.69,0,0,0,2.07-7.82v-.15c5.14.6,12.43.78,36,14.51,6.38,3.72,12.51,7.18,18.29,10.36C141,423.22,170.57,431.86,170.57,431.86Z" />
      <path class="GUNDAN_GOAT_OUTFIT_GUNDAN_GOAT_OUTFIT_33_cls-3" d="M371.05,389.42c-2.66,1.37-6.58,3.63-6.58,3.63a45.76,45.76,0,0,1-1.84-6.95V386c-4.59.54-14.77,3.46-35.69,15.67-32.43,18.92-57.76,30.24-57.76,30.24h-98.6s-29.62-8.64-56.83-23.6c-5.78-3.18-11.91-6.64-18.29-10.36-23.53-13.73-30.82-13.91-36-14.51v.15a49.69,49.69,0,0,1-2.07,7.82S53,388.82,50,387.29s.19-8.48,5-13c11.84-12.87,10.27-19.8,10.17-20.22v0c-.31-.46-.6-.95-.89-1.43a1.35,1.35,0,0,1,.72-2c7.55-1.76,20.81-1.89,22.67-12.1,17.09,14.74,34.18,19.24,50,28.35h0v0C241.88,427,316.39,374.65,344.1,342.4c1.66,9.08,6.89,12.84,13.61,14.42a1.19,1.19,0,0,1,.65,1.75c-.27.43-.52.86-.8,1.28v0c-.1.38-1.49,6.55,9.05,18C370.89,381.88,373.71,388.06,371.05,389.42Z" />
      <path class="GUNDAN_GOAT_OUTFIT_GUNDAN_GOAT_OUTFIT_33_cls-3" d="M364.47,393.05c2.69,7.72,7.5,15.86,13,20.58-4.71,11.29-16.69,18.23-16.69,18.23H269.17s25.33-11.32,57.76-30.24c20.92-12.21,31.1-15.13,35.69-15.67l0,.15A44.54,44.54,0,0,0,364.47,393.05Z" />
      <path class="GUNDAN_GOAT_OUTFIT_GUNDAN_GOAT_OUTFIT_33_cls-4" d="M344.1,342.4l-1,1.16c-27.64,31.48-98.51,84.86-196.84,35.11q-4.41-2.24-8.9-4.74h0A324.17,324.17,0,0,1,91,341.43q-1.68-1.41-3.37-2.87l25.57-10.22,0,0c1.34,1.36,44.67,44.68,123.85,44.68,52,0,86.22-41.19,86.22-41.19S341.21,334.8,344.1,342.4Z" />
      <path class="GUNDAN_GOAT_OUTFIT_GUNDAN_GOAT_OUTFIT_33_cls-5" d="M209.81,431.86h151s12-6.94,16.69-18.23c-5.52-4.72-10.33-12.86-13-20.58a44.54,44.54,0,0,1-1.83-6.95" />
      <path class="GUNDAN_GOAT_OUTFIT_GUNDAN_GOAT_OUTFIT_33_cls-5" d="M269.17,431.86s25.33-11.32,57.76-30.24c20.92-12.21,31.1-15.13,35.69-15.67,2.52-.28,3.35.15,3.35.15" />
      <path class="GUNDAN_GOAT_OUTFIT_GUNDAN_GOAT_OUTFIT_33_cls-5" d="M357.56,359.85c.28-.42.53-.85.8-1.28a1.19,1.19,0,0,0-.65-1.75c-6.72-1.58-11.95-5.34-13.61-14.42" />
      <path class="GUNDAN_GOAT_OUTFIT_GUNDAN_GOAT_OUTFIT_33_cls-5" d="M321.44,380a42.67,42.67,0,0,0,36.12-20.1" />
      <path class="GUNDAN_GOAT_OUTFIT_GUNDAN_GOAT_OUTFIT_33_cls-5" d="M357.56,359.85v0c-.1.38-1.49,6.55,9.05,18,4.28,4,7.1,10.18,4.44,11.54s-6.58,3.63-6.58,3.63" />
      <path class="GUNDAN_GOAT_OUTFIT_GUNDAN_GOAT_OUTFIT_33_cls-5" d="M344.1,423.64s13.23-10.83,29.85-9.92" />
      <path class="GUNDAN_GOAT_OUTFIT_GUNDAN_GOAT_OUTFIT_33_cls-5" d="M209.81,431.86H170.57L48,435.33S44,424.06,38.66,411.39c6.19-5.3,15.73-11.35,18.75-20a49.69,49.69,0,0,0,2.07-7.82" />
      <path class="GUNDAN_GOAT_OUTFIT_GUNDAN_GOAT_OUTFIT_33_cls-5" d="M170.57,431.86s-38.71-12.71-75.12-34c-23.53-13.73-30.82-13.91-36-14.51-2.82-.32-3.75.15-3.75.15" />
      <path class="GUNDAN_GOAT_OUTFIT_GUNDAN_GOAT_OUTFIT_33_cls-5" d="M65.17,354.07c-.31-.46-.6-.95-.89-1.43a1.35,1.35,0,0,1,.72-2c7.55-1.76,20.81-1.89,22.67-12.1" />
      <path class="GUNDAN_GOAT_OUTFIT_GUNDAN_GOAT_OUTFIT_33_cls-5" d="M101.6,373.58s-21.12,4.5-36.42-19.49" />
      <path class="GUNDAN_GOAT_OUTFIT_GUNDAN_GOAT_OUTFIT_33_cls-5" d="M65.17,354.07v0c.1.42,1.67,7.35-10.17,20.22-4.8,4.5-8,11.44-5,13s7.39,4.07,7.39,4.07" />
      <path class="GUNDAN_GOAT_OUTFIT_GUNDAN_GOAT_OUTFIT_33_cls-5" d="M76.15,422.62S61.3,410.47,42.64,411.48" />
      <path class="GUNDAN_GOAT_OUTFIT_GUNDAN_GOAT_OUTFIT_33_cls-5" d="M237.11,373.05c52,0,86.22-41.19,86.22-41.19s17.88,2.94,20.77,10.54l-1,1.16c-27.64,31.48-98.51,84.86-196.84,35.11q-4.41-2.24-8.9-4.74A301,301,0,0,1,91,341.43q-1.68-1.41-3.37-2.87l25.57-10.22,0,0c1.34,1.36,44.67,44.68,123.85,44.68" />
      <path class="GUNDAN_GOAT_OUTFIT_GUNDAN_GOAT_OUTFIT_33_cls-5" d="M142.91,385.85s17,3.16,33.34,17.35c2.44,2.11,4.72,3.94,6.84,5.53,12.09,9,18.86,10,18.86,10" />
      <path class="GUNDAN_GOAT_OUTFIT_GUNDAN_GOAT_OUTFIT_33_cls-5" d="M152.27,403.8s17.55-1.79,30.82,4.93" />
      <path class="GUNDAN_GOAT_OUTFIT_GUNDAN_GOAT_OUTFIT_33_cls-5" d="M280.79,414.9s21.93-19.47,41.78-21.1" />
      <path class="GUNDAN_GOAT_OUTFIT_GUNDAN_GOAT_OUTFIT_33_cls-6" d="M243.23,395.38s-2.2,9-3.49,15.25a3.33,3.33,0,0,0-1.32-.44,4,4,0,0,0-1.61.1,51.43,51.43,0,0,1,2.09-10.69,26.34,26.34,0,0,0,4.32-4.22Z" />
      <path class="GUNDAN_GOAT_OUTFIT_GUNDAN_GOAT_OUTFIT_33_cls-6" d="M255.14,409a3.31,3.31,0,0,0-1.24.63c-1.83-5.59-4.69-13.33-5.12-14.49a25.08,25.08,0,0,0,4.74,3.51,49,49,0,0,1,3.24,10.22A4.17,4.17,0,0,0,255.14,409Z" />
      <path class="GUNDAN_GOAT_OUTFIT_GUNDAN_GOAT_OUTFIT_33_cls-6" d="M256.76,408.86c2,.26,4.19,1.9,5.67,5.62a129.47,129.47,0,0,1,5.18,17.24s-6,4.24-11.92,2.29c-.64-8.52-3.67-17.88-3.17-21.92a3.66,3.66,0,0,1,1.38-2.47,3.31,3.31,0,0,1,1.24-.63A4.17,4.17,0,0,1,256.76,408.86Z" />
      <path class="GUNDAN_GOAT_OUTFIT_GUNDAN_GOAT_OUTFIT_33_cls-6" d="M274.11,387.64a14.78,14.78,0,0,0-13.31-11.58c-8.51-.93-11.85,2-11.85,2a6.21,6.21,0,0,0-4-.89,6.37,6.37,0,0,0-3.9,1.46s-3.65-2.47-12-.34a15.39,15.39,0,0,0-11.91,13.38c-.8,6,4.13,11.89,11,11.92a17.77,17.77,0,0,0,10.82-4,26.34,26.34,0,0,0,4.32-4.22h0c.49-.62.75-1,.75-1a7.47,7.47,0,0,0,1.91.32,8.2,8.2,0,0,0,1.87-.59,13.84,13.84,0,0,0,1,1,25.08,25.08,0,0,0,4.74,3.51,17.23,17.23,0,0,0,11,2.38C271.35,400,275.57,393.48,274.11,387.64ZM231.86,397c-5.06,2.44-11.05-1.84-7.71-7.78s10-6.55,15.08-6a14.43,14.43,0,0,0,.84,7.57A35,35,0,0,1,231.86,397Zm28.22-2a33.58,33.58,0,0,1-8.83-5,14.62,14.62,0,0,0,0-7.63c5-1.29,11.67-1.65,15.63,3.77S265.38,396.72,260.08,395Z" />
      <path class="GUNDAN_GOAT_OUTFIT_GUNDAN_GOAT_OUTFIT_33_cls-6" d="M239.74,410.63a3.49,3.49,0,0,1,1.64,2.26c1,3.94-1,13.65-.69,22.2-5.66,2.78-12.08-.57-12.08-.57a132.26,132.26,0,0,1,3.21-17.84c1.06-3.92,3.08-5.87,5-6.39a4,4,0,0,1,1.61-.1A3.33,3.33,0,0,1,239.74,410.63Z" />
      <path class="GUNDAN_GOAT_OUTFIT_GUNDAN_GOAT_OUTFIT_33_cls-5" d="M244.91,377.21a6.37,6.37,0,0,0-3.9,1.46,4,4,0,0,0-.85,1.09,11.23,11.23,0,0,0-.93,3.53,14.43,14.43,0,0,0,.84,7.57,6.11,6.11,0,0,0,3.91,3.51,7.47,7.47,0,0,0,1.91.32" />
      <path class="GUNDAN_GOAT_OUTFIT_GUNDAN_GOAT_OUTFIT_33_cls-5" d="M243.23,395.38c.49-.62.75-1,.75-1" />
      <path class="GUNDAN_GOAT_OUTFIT_GUNDAN_GOAT_OUTFIT_33_cls-5" d="M241,378.67s-3.65-2.47-12-.34a15.39,15.39,0,0,0-11.91,13.38c-.8,6,4.13,11.89,11,11.92a17.77,17.77,0,0,0,10.82-4,26.34,26.34,0,0,0,4.32-4.22" />
      <path class="GUNDAN_GOAT_OUTFIT_GUNDAN_GOAT_OUTFIT_33_cls-5" d="M239.23,383.29c-5-.58-11.75,0-15.08,6s2.65,10.22,7.71,7.78a35,35,0,0,0,8.21-6.18" />
      <path class="GUNDAN_GOAT_OUTFIT_GUNDAN_GOAT_OUTFIT_33_cls-5" d="M244.91,377.21a6.21,6.21,0,0,1,4,.89,3.88,3.88,0,0,1,1,1,10.75,10.75,0,0,1,1.31,3.36,14.62,14.62,0,0,1,0,7.63,6.43,6.43,0,0,1-3.49,4,8.2,8.2,0,0,1-1.87.59" />
      <path class="GUNDAN_GOAT_OUTFIT_GUNDAN_GOAT_OUTFIT_33_cls-5" d="M249,378.1s3.34-3,11.85-2a14.78,14.78,0,0,1,13.31,11.58c1.46,5.84-2.76,12.37-9.54,13.38a17.23,17.23,0,0,1-11-2.38,25.08,25.08,0,0,1-4.74-3.51,13.84,13.84,0,0,1-1-1" />
      <path class="GUNDAN_GOAT_OUTFIT_GUNDAN_GOAT_OUTFIT_33_cls-5" d="M251.23,382.43c5-1.29,11.67-1.65,15.63,3.77s-1.48,10.52-6.78,8.82a33.58,33.58,0,0,1-8.83-5" />
      <path class="GUNDAN_GOAT_OUTFIT_GUNDAN_GOAT_OUTFIT_33_cls-5" d="M236.81,410.29c-1.91.52-3.93,2.47-5,6.39a132.26,132.26,0,0,0-3.21,17.84s6.42,3.35,12.08.57c-.32-8.55,1.64-18.26.69-22.2a3.49,3.49,0,0,0-1.64-2.26,3.33,3.33,0,0,0-1.32-.44A4,4,0,0,0,236.81,410.29Z" />
      <path class="GUNDAN_GOAT_OUTFIT_GUNDAN_GOAT_OUTFIT_33_cls-5" d="M239.74,410.63c1.29-6.28,3.49-15.25,3.49-15.25h0" />
      <path class="GUNDAN_GOAT_OUTFIT_GUNDAN_GOAT_OUTFIT_33_cls-5" d="M238.9,399.6a51.43,51.43,0,0,0-2.09,10.69h0" />
      <path class="GUNDAN_GOAT_OUTFIT_GUNDAN_GOAT_OUTFIT_33_cls-5" d="M256.76,408.86c2,.26,4.19,1.9,5.67,5.62a129.47,129.47,0,0,1,5.18,17.24s-6,4.24-11.92,2.29c-.64-8.52-3.67-17.88-3.17-21.92a3.66,3.66,0,0,1,1.38-2.47,3.31,3.31,0,0,1,1.24-.63A4.17,4.17,0,0,1,256.76,408.86Z" />
      <path class="GUNDAN_GOAT_OUTFIT_GUNDAN_GOAT_OUTFIT_33_cls-5" d="M253.9,409.62c-1.83-5.59-4.69-13.33-5.12-14.49" />
      <path class="GUNDAN_GOAT_OUTFIT_GUNDAN_GOAT_OUTFIT_33_cls-5" d="M253.52,398.64a49,49,0,0,1,3.24,10.22h0" />
      <path class="GUNDAN_GOAT_OUTFIT_GUNDAN_GOAT_OUTFIT_33_cls-5" d="M233.59,426.77s.25-10.55,4.83-16.58a47.2,47.2,0,0,1-.92,12.28" />
      <path class="GUNDAN_GOAT_OUTFIT_GUNDAN_GOAT_OUTFIT_33_cls-5" d="M257.58,424.57s-3.09-11.48-2.44-15.58a31.68,31.68,0,0,1,4.24,9.31" />
      <g class="GUNDAN_GOAT_OUTFIT_GUNDAN_GOAT_OUTFIT_33_cls-7">
        <path class="GUNDAN_GOAT_OUTFIT_GUNDAN_GOAT_OUTFIT_33_cls-6" d="M93.21,359.34c0,1.39.05,2.76.14,4.1a55.43,55.43,0,0,0,3.58,17,31.92,31.92,0,0,0,5.49,9.37l.21.22a17.53,17.53,0,0,0,2.41,2.26,13,13,0,0,0,4.42,2.29h0a10.6,10.6,0,0,0,2.91.41h.31a6.69,6.69,0,0,0,.9-.07,11.93,11.93,0,0,0,5.4-2.09c.26-.18.51-.36.77-.56a.51.51,0,0,0,0-.13,26.83,26.83,0,0,0-.53-2.67c.22-1.31.49-2.89.82-4.8,1.48-8.56-4.33-7.95-9.08-21.86a34.53,34.53,0,0,1-.65-21.19s1.41-9.67,3.08-12.73c-1.28-3.22-5-1-5-1l-1.21,5.78c.3-2.48.58-4.55.76-5.88a10.14,10.14,0,0,0-4.75.37c-5.29,5.41-9.06,15.35-9.79,27C93.26,356.51,93.21,357.92,93.21,359.34Z" />
        <path class="GUNDAN_GOAT_OUTFIT_GUNDAN_GOAT_OUTFIT_33_cls-8" d="M128.45,400.74a1.67,1.67,0,0,0-.08-.2l-.1-.2-.11-.14,0,0s0,0,0,0a.12.12,0,0,0,0-.05s0,0,0,0L128,400a.81.81,0,0,0-.16-.16l-1-.9a2.32,2.32,0,0,1-.25-.22h0c-.16-.14-.34-.28-.52-.45h0c-1-.89-2.33-2-3.67-3l-.82-.63c-.27-.21-.54-.4-.81-.6s-.53-.4-.79-.59l-.31-.21-.17-.12a.91.91,0,0,1-.16-.11l-.31-.19a3.55,3.55,0,0,0-.31-.23h0c-.14-.08-.27-.17-.4-.26a11.84,11.84,0,0,0-2.49-1.26l-.14,0a24.75,24.75,0,0,0-2.39-.65l-.61-.11-.4-.07h0l-.15,0-.69-.06-.51,0h-.16l-.39,0a1.79,1.79,0,0,0-.4,0l-.47,0h-.15c-.2,0-.41.07-.61.12h0c-.2,0-.4.1-.6.17a6.37,6.37,0,0,0-.61.23h0a7.25,7.25,0,0,0-1,.51,2.25,2.25,0,0,1-.21.12l0,0a.85.85,0,0,1-.19.14l-.34.25,0,0a6.69,6.69,0,0,0-.58.5c-.16.14-.31.29-.47.46a11.57,11.57,0,0,0-.91,1.1,10.45,10.45,0,0,0-.82,1.31,9.07,9.07,0,0,0-.57,1.29,8.39,8.39,0,0,0-.41,4.25c0,.21.08.43.13.63s.11.41.17.61.1.33.16.49l0,.09c.05.13.1.26.16.38s0,.12.07.17.17.34.25.51c.18.33.37.64.56.93s.39.51.58.73l.29.31a1.09,1.09,0,0,0,.19.18c.52.39,3.48,2.71,6.77,4.8a37.29,37.29,0,0,0,5,2.76c.23.1.46.18.68.26a3.57,3.57,0,0,0,.38.14,2,2,0,0,0,.4.1,1.9,1.9,0,0,0,.41,0,2.61,2.61,0,0,0,1-.19,2.51,2.51,0,0,0,.73-.46l.19-.22,3.67-4.66c0-.1-.08-.2-.11-.3a2.52,2.52,0,0,0,.87-.65l0-.05.06-.08,3.6-4.56h0a1.45,1.45,0,0,0,.19-.29c0-.1.1-.21.14-.31a2,2,0,0,0,.1-.86A2.71,2.71,0,0,0,128.45,400.74ZM117.33,409l-.26-.13-.26-.14h0l-1-.57c-.35-.19-.71-.41-1.07-.63l-.73-.47h0l-.56-.36c-.37-.24-.74-.48-1.1-.73l-.54-.36h0l-.63-.43-2.25-1.64c-.5-.37-.92-.7-1.26-1a5.49,5.49,0,0,1-.41-.54l0-.08a3.94,3.94,0,0,1-.27-.51,1.24,1.24,0,0,1-.1-.2l0-.08-.12-.33c0-.1-.07-.21-.1-.33a4,4,0,0,1-.12-.72,4.37,4.37,0,0,1,.08-1.33,1.44,1.44,0,0,1,.08-.33c0-.11.06-.23.1-.34a5.77,5.77,0,0,1,.3-.69c.06-.12.13-.24.2-.36a5.74,5.74,0,0,1,.36-.55,4.78,4.78,0,0,1,1.59-1.47,2,2,0,0,1,.33-.15h0a5.35,5.35,0,0,1,3.27.1l.69.19.74.22.11,0h0a18.16,18.16,0,0,1,3.73,2.39l1,.77c.68.54,1.39,1.1,2.11,1.7s1.34,1.11,2,1.67h0l-.06.07L122,403.07l-3.74-2.42-.53-.34-.06,0a2.49,2.49,0,0,0-2.4-.17l-.3.17a1.86,1.86,0,0,0-.27.22,1.2,1.2,0,0,0-.27.28h0A2,2,0,0,0,114,402a2.1,2.1,0,0,0,1,1.75l2.22,1.43,2.07,1.35Zm-2.9-8.22A2,2,0,0,0,114,402a2,2,0,0,1,.43-1.23Z" />
        <path class="GUNDAN_GOAT_OUTFIT_GUNDAN_GOAT_OUTFIT_33_cls-4" d="M30.21,341.12l-.64,3a55.79,55.79,0,0,1,3.52,7.09,26.79,26.79,0,0,1,1.14,6.13h0c3,.68,8.45,2,9,3.09s-5,3.47-8.23,4.76c.43,5.06.91,9.86,1.79,11.5a85.22,85.22,0,0,0,7.51,11c2.8-1.28,7.53-3.31,8.61-2.82s-1.71,6.34-3.15,9.09c.27.29.55.59.84.88,4.31,4.37,11.31,7.3,19.9,10.46,1.81-2.37,4.68-5.87,5.83-5.91s1.73,5.53,1.93,8.74c2.68,1-8.19,2-5.3,3.19a69,69,0,0,0,19,5c.89-2.75,2.51-7.34,3.64-7.72s3.56,4.74,4.83,7.73c1.86-.16,3.62-.43,5.33-.72a6.52,6.52,0,0,0,5.54-5.16c-3.29-2.09-6.25-4.41-6.76-4.81a1.06,1.06,0,0,1-.2-.17,8.78,8.78,0,0,1-2.1-3.61,50.44,50.44,0,0,1-30.82-3.8c-11.55-5.52-6.17-15.19-13.47-23.74-3.38-3.95-6.89-8.05-9.46-12.75-3-5.48-4.16-11-3.39-16a17.15,17.15,0,0,1,.71-2.95c-2.82-.09-5.34-.28-7.5-.53Q33.64,341.59,30.21,341.12Z" />
        <path class="GUNDAN_GOAT_OUTFIT_GUNDAN_GOAT_OUTFIT_33_cls-4" d="M91.06,346.58a23.36,23.36,0,0,0,2.29,8.56c2.09,4,5,5.28,6.43,4.49,2.23-1.22,2.55-8.48-2-10.72,3.41,1,6.38,5.95,6.73,10.4l.92-.07a7.36,7.36,0,0,1-.06-.82c-.36-6.17.81-17.34,1.73-24.78.3-2.48.58-4.55.76-5.88a10.14,10.14,0,0,0-4.75.37,13.46,13.46,0,0,0-2.65,1.17l-.49.4a6.79,6.79,0,0,1-1.51.95A17.31,17.31,0,0,0,91.06,346.58Z" />
        <path class="GUNDAN_GOAT_OUTFIT_GUNDAN_GOAT_OUTFIT_33_cls-6" d="M100,329.7s-8.27-2-14.1,3.79c-3.24,12.16-2.1,19.92,6.79,29s14.56.8,10.88-7.19c-1.71-4.74-2.69-4.43-2.69-4.43s2.25,8-2.08,9S88,346.74,92.69,338.06A33.62,33.62,0,0,1,100,329.7Z" />
        <path class="GUNDAN_GOAT_OUTFIT_GUNDAN_GOAT_OUTFIT_33_cls-9" d="M117.74,400.31c.06-.53.12-1,.16-1.5a6,6,0,0,1,1.14-.56c.69.54,1.4,1.1,2.12,1.7s1.33,1.11,2,1.67L122,403.07Z" />
        <path class="GUNDAN_GOAT_OUTFIT_GUNDAN_GOAT_OUTFIT_33_cls-9" d="M117.22,405.18l2.06,1.35-2,2.46c-.17-.08-.35-.17-.52-.27C117,407.56,117.09,406.37,117.22,405.18Z" />
        <path class="GUNDAN_GOAT_OUTFIT_GUNDAN_GOAT_OUTFIT_33_cls-9" d="M276.47,486.89a8.55,8.55,0,0,1-7.67,5.85l-.73,0a9.83,9.83,0,0,1-2.32-.29c-.44-.11-2.16-.56-5-1.36A400.94,400.94,0,0,1,191.44,463h0c-4.68-2.42-9.48-5-14.35-7.78-5.49-3.11-10-6.45-15.61-10h0c-1.68-1.06-3.35-2.15-5-3.27l0,0L154,440.25l-2-1.35c-1.65-1.11-3.29-2.26-4.94-3.42l-2-1.37-.84-.61c-.63-.45-1.27-.91-1.9-1.38q-2.36-1.69-4.69-3.47L135.48,427,133,425.07l-3.32-2.63L127,420.29l-2.65-2.19c-1.77-1.48-3.52-3-5.27-4.5a2.51,2.51,0,0,0,.73-.46l.19-.22,3.67-4.66.76-.95,0-.05.06-.08,3.6-4.56h0a1.49,1.49,0,0,0,.2-.29c0-.1.1-.21.14-.31a2,2,0,0,0,.1-.86,2.71,2.71,0,0,0-.09-.41,1.67,1.67,0,0,0-.08-.2l-.1-.2a1.34,1.34,0,0,0-.11-.14l0,0s0-.05,0-.06,0,0,0,0L128,400a.81.81,0,0,0-.16-.16l-1-.9a2.32,2.32,0,0,1-.25-.22h0c-.16-.14-.34-.28-.52-.45a8.33,8.33,0,0,1,2.55,1.57q4.47,4,9,7.72c5.47,4.52,11,8.76,16.58,12.77.89.65,1.78,1.28,2.66,1.9,5.38,3.79,10.78,7.37,16.12,10.71,3.13,2,5.15,3.84,8.24,5.64h0q6.33,3.72,12.5,7A403.15,403.15,0,0,0,260,474c3.51,1.13,6.23,1.93,8,2.43,1.49.43,2.33.65,2.42.67C275,478.23,277.75,482.62,276.47,486.89Z" />
        <path class="GUNDAN_GOAT_OUTFIT_GUNDAN_GOAT_OUTFIT_33_cls-9" d="M111.77,405.6a57.23,57.23,0,0,1,.14-6.06c.16-1.25.51-2.92.83-4.9.44.11.92.25,1.43.41l.14,0a19,19,0,0,1,3.73,2.4l1,.77a6,6,0,0,0-1.14.56c0,.47-.1,1-.16,1.5l-.06,0a2.46,2.46,0,0,0-3.24.5,2,2,0,0,0,.56,3l2.22,1.44c-.13,1.19-.27,2.38-.41,3.54-.9-.47-1.86-1-2.84-1.66C113.23,406.58,112.47,406.08,111.77,405.6Z" />
        <path class="GUNDAN_GOAT_OUTFIT_GUNDAN_GOAT_OUTFIT_33_cls-6" d="M98.26,380.87c8.6,2.9,11.48,8.91,11.64,9.22a8.06,8.06,0,0,0-5.33,2.62c-5.66-9.87-16.36-6.81-24-13.14s-6.1-17.62.5-23.68C74.3,369.87,89.43,377.88,98.26,380.87Z" />
        <path class="GUNDAN_GOAT_OUTFIT_GUNDAN_GOAT_OUTFIT_33_cls-6" d="M116.23,413.25a36.26,36.26,0,0,1-.68,3.69c-.21.78-1.5,1.72-3.45,2.68a66.88,66.88,0,0,1-18,5.11l-1.2.14c-.69.09-1.36.15-2,.19l-.53,0a25.82,25.82,0,0,1-4.88-.1,17.21,17.21,0,0,1-3.29-.79c-4.56-1.5-9.73-4.65-15.08-7.51C62,414,70.44,411.51,65.44,411c-11.5-1.08-12.58-1.38-16.1-5.13-.24-.25-.49-.52-.75-.82-2.26-2.52-5.6-6.63-9.17-10.76h0c-2.31-2.68-4.72-5.37-7-7.64-.06-.08-.13-.14-.19-.21a19.49,19.49,0,0,1-3.66-6.25v0a.21.21,0,0,0,0-.07c-2.39-5.95-4-14-5.17-20.55-.11-.6-.22-1.18-.32-1.75-.16-.84-.31-1.66-.46-2.44-.09-.51-.19-1-.29-1.48-.05-.24-.1-.47-.14-.69-.09-.45-.18-.88-.27-1.28l-.18-.78-.32-1.48c-.25-1.19-.47-2.28-.65-3.25a66.59,66.59,0,0,1-1-6.92h0l.12,0,.34.06.32.05.19,0,.45.07c1.62.28,4.63.75,9.07,1.36l-.64,3s.44.71,1.1,2l.53,1c.1.19.19.38.29.59.29.6.61,1.26.94,2,.22.48.44,1,.66,1.52a26.79,26.79,0,0,1,1.14,6.14h0l.59.13,1.3.31,1.41.35c.71.19,1.43.39,2.11.6A13.35,13.35,0,0,1,42.77,360a1.11,1.11,0,0,1,.41.4.36.36,0,0,1,0,.25.3.3,0,0,1,0,.11.75.75,0,0,1-.07.12,2.79,2.79,0,0,1-.19.24c-.16.14-.37.32-.62.5l-.26.17c-.11.08-.23.15-.35.22l-.17.11-.09.05c-.63.37-1.38.76-2.17,1.13l-.24.12-.36.17-1.45.65c-.22.1-.45.2-.67.28-.55.25-1.08.46-1.56.65.11,1.27.21,2.52.33,3.7.06.59.12,1.18.19,1.73,0,.28.07.56.1.82.1.8.21,1.55.33,2.23.08.45.16.87.25,1.24s.18.73.28,1a5.5,5.5,0,0,0,.31.75,82.51,82.51,0,0,0,7.51,11c2.8-1.28,7.53-3.31,8.61-2.83s-1.71,6.35-3.15,9.1c.27.29.55.59.84.88a18.69,18.69,0,0,0,1.39,1.27c4.35,3.7,10.78,6.34,18.51,9.19.59-.78,1.3-1.68,2-2.54.36-.43.73-.85,1.08-1.23l0-.06c.34-.36.68-.69,1-1l.27-.26c.19-.17.37-.31.54-.44,0,0,0,0,0,0l.13-.08.07-.05.22-.12.07,0,.1,0a.85.85,0,0,1,.26-.05l.14,0,.09,0,.11.08.08.08,0,0a.76.76,0,0,1,.11.14l.05.1,0,.05a1.82,1.82,0,0,1,.13.28l0,.1a.43.43,0,0,1,0,.05.71.71,0,0,1,.07.22.25.25,0,0,1,0,.07l0,.13a4,4,0,0,1,.15.55l.06.28.12.59c.15.77.27,1.63.36,2.49l0,.35c0,.12,0,.24,0,.37s0,.27,0,.41l0,.32c0,.17,0,.35,0,.53,0,.52.07,1,.1,1.46.43.15.51.32.36.47a.47.47,0,0,1-.2.15,1.88,1.88,0,0,1-.49.22l-.21.08-.73.22-1.12.31-1.15.3-.28.07-.53.17c-1.24.39-2,.78-.95,1.2a82,82,0,0,0,11.87,3.82,51.63,51.63,0,0,0,7.11,1.21v0c.88-2.74,2.51-7.32,3.64-7.71.36-.12.83.28,1.35,1l.15.21a42.65,42.65,0,0,1,3.33,6.54c1.86-.16,3.62-.42,5.32-.72a9.1,9.1,0,0,0,1.17-.29,6.74,6.74,0,0,0,1.46-.66c.14-.09.28-.17.41-.27a4.93,4.93,0,0,0,.73-.63,7.4,7.4,0,0,0,1.78-3.31A37.29,37.29,0,0,0,116.23,413.25Z" />
        <path class="GUNDAN_GOAT_OUTFIT_GUNDAN_GOAT_OUTFIT_33_cls-6" d="M102.27,396.41a8.43,8.43,0,0,0-.11,5.49,50.44,50.44,0,0,1-30.82-3.8c-11.55-5.52-6.17-15.19-13.47-23.74-3.38-3.95-6.89-8.05-9.46-12.75-3-5.48-4.16-11-3.39-16a17.15,17.15,0,0,1,.71-2.95c1.92.06,4,.09,6.15.05a13.26,13.26,0,0,0-1.11,3.64c-.76,4.94,1.13,9.71,2.83,12.86,2.32,4.22,5.63,8.11,8.84,11.86,6.93,8.1,1.15,17.3,11.58,22.29A44.09,44.09,0,0,0,102.27,396.41Z" />
        <path class="GUNDAN_GOAT_OUTFIT_GUNDAN_GOAT_OUTFIT_33_cls-10" d="M107.54,396.17c1.48-2.05,3-2.11,5.2-1.53-.32,2-.67,3.65-.83,4.9a57.23,57.23,0,0,0-.14,6.06c-1.72-1.18-3.26-2.34-4.15-3a4.83,4.83,0,0,1-.44-5.84A3.7,3.7,0,0,1,107.54,396.17Z" />
        <path class="GUNDAN_GOAT_OUTFIT_GUNDAN_GOAT_OUTFIT_33_cls-4" d="M50.77,346.36a13.26,13.26,0,0,1,1.11-3.64c13-.2,15.75-2.36,27.8-8.41l3.44-.4h0c1.73-.19,2.92-.34,2.92-.34s-3.11,9.39-1.4,15.72,10.27,19.85,16.72,16.79c2.54-1.21,3.4-3.87,3.17-6.76l.92-.07c.45,4.89,1.51,9.5,3.6,12.71,4.11,6.32,4.62,13,4.19,18.4a12.13,12.13,0,0,0-3.35-.26c-.16-.31-3-6.32-11.64-9.22-8.83-3-24-11-17.16-25-6.6,6.06-8.12,17.34-.5,23.68s18.31,3.27,24,13.14a12.74,12.74,0,0,0-.9,1.09,10.27,10.27,0,0,0-1.4,2.61,44.09,44.09,0,0,1-28.25-3c-10.43-5-4.65-14.19-11.58-22.29-3.21-3.75-6.52-7.64-8.84-11.86C51.9,356.07,50,351.3,50.77,346.36Z" />
        <path class="GUNDAN_GOAT_OUTFIT_GUNDAN_GOAT_OUTFIT_33_cls-11" d="M126,398.25h0a8.33,8.33,0,0,1,2.55,1.57q4.47,4,9,7.72c5.47,4.52,11,8.76,16.58,12.77.89.65,1.78,1.28,2.66,1.9,5.38,3.79,10.78,7.37,16.12,10.71,3.13,2,5.15,3.84,8.24,5.64" />
        <path class="GUNDAN_GOAT_OUTFIT_GUNDAN_GOAT_OUTFIT_33_cls-11" d="M156.4,441.87,154,440.25l-2-1.35c-1.65-1.11-3.29-2.26-4.94-3.42l-2-1.37-.84-.61c-.63-.45-1.27-.91-1.9-1.38q-2.36-1.69-4.69-3.47L135.48,427,133,425.07c-1.11-.87-2.22-1.74-3.32-2.63-.89-.71-1.78-1.42-2.66-2.15l-2.65-2.19c-1.77-1.48-3.52-3-5.27-4.5" />
        <path class="GUNDAN_GOAT_OUTFIT_GUNDAN_GOAT_OUTFIT_33_cls-11" d="M117.9,398.81a6,6,0,0,1,1.14-.56" />
        <path class="GUNDAN_GOAT_OUTFIT_GUNDAN_GOAT_OUTFIT_33_cls-11" d="M116.81,408.72c.14-1.16.28-2.35.41-3.54" />
        <path class="GUNDAN_GOAT_OUTFIT_GUNDAN_GOAT_OUTFIT_33_cls-11" d="M83.13,333.9c1.73-.19,2.92-.34,2.92-.34s2.29-2.55,4.6-3.1a28.47,28.47,0,0,1,9.29-.84" />
        <path class="GUNDAN_GOAT_OUTFIT_GUNDAN_GOAT_OUTFIT_33_cls-11" d="M51.88,342.72c13-.2,15.75-2.36,27.8-8.41l3.44-.4" />
        <path class="GUNDAN_GOAT_OUTFIT_GUNDAN_GOAT_OUTFIT_33_cls-11" d="M28.54,380.21a.45.45,0,0,1,0-.08C25,371.47,23.3,358.36,21.86,352a92.76,92.76,0,0,1-2.18-12.43s3.42.64,10.53,1.6q3.43.47,8,1c2.16.25,4.68.44,7.5.53" />
        <path class="GUNDAN_GOAT_OUTFIT_GUNDAN_GOAT_OUTFIT_33_cls-11" d="M116.23,413.25a36.26,36.26,0,0,1-.68,3.69c-.21.78-1.5,1.72-3.45,2.68a66.88,66.88,0,0,1-18,5.11l-1.2.14c-.69.09-1.36.15-2,.19l-.53,0a25.82,25.82,0,0,1-4.88-.1,17.21,17.21,0,0,1-3.29-.79c-4.56-1.5-9.73-4.65-15.08-7.51C62,414,70.44,411.51,65.44,411c-11.5-1.08-12.58-1.38-16.1-5.13-.24-.25-.49-.52-.75-.82-2.26-2.52-5.6-6.63-9.17-10.76h0c-2.31-2.68-4.72-5.37-7-7.64-.06-.08-.13-.14-.19-.21a19.38,19.38,0,0,1-3.66-6.25" />
        <path class="GUNDAN_GOAT_OUTFIT_GUNDAN_GOAT_OUTFIT_33_cls-11" d="M117.74,400.31c.06-.53.12-1,.16-1.5" />
        <path class="GUNDAN_GOAT_OUTFIT_GUNDAN_GOAT_OUTFIT_33_cls-11" d="M118.67,392.56h0c.13-.79.31-1.83.53-3.13s.5-2.89.83-4.8c1.48-8.56-4.34-7.94-9.08-21.86a34.53,34.53,0,0,1-.65-21.19.66.66,0,0,0,0-.11c.16-1.07,1.49-9.75,3.06-12.62-1.28-3.23-5-1-5-1l-1.21,5.78-.81,3.9A117.29,117.29,0,0,0,105.23,350h0a81.38,81.38,0,0,0,.16,8.39c0,.28,0,.55.06.82.46,4.88,1.51,9.5,3.61,12.71,4.11,6.32,4.62,13,4.19,18.4" />
        <path class="GUNDAN_GOAT_OUTFIT_GUNDAN_GOAT_OUTFIT_33_cls-11" d="M34.23,357.34a26.79,26.79,0,0,0-1.14-6.13,55.79,55.79,0,0,0-3.52-7.09l.64-3" />
        <path class="GUNDAN_GOAT_OUTFIT_GUNDAN_GOAT_OUTFIT_33_cls-11" d="M44.25,387.71a85.22,85.22,0,0,1-7.51-11c-.88-1.64-1.36-6.44-1.79-11.5" />
        <path class="GUNDAN_GOAT_OUTFIT_GUNDAN_GOAT_OUTFIT_33_cls-11" d="M91.88,416.36a69,69,0,0,1-19-5c-2.89-1.15,8-2.2,5.3-3.19" />
        <path class="GUNDAN_GOAT_OUTFIT_GUNDAN_GOAT_OUTFIT_33_cls-11" d="M111.22,410.49a6.52,6.52,0,0,1-5.54,5.16c-1.71.29-3.47.56-5.33.72" />
        <path class="GUNDAN_GOAT_OUTFIT_GUNDAN_GOAT_OUTFIT_33_cls-11" d="M112.74,394.64c-.32,2-.67,3.65-.83,4.9a57.23,57.23,0,0,0-.14,6.06" />
        <path class="GUNDAN_GOAT_OUTFIT_GUNDAN_GOAT_OUTFIT_33_cls-11" d="M70.45,405.32c-8.59-3.16-15.59-6.09-19.9-10.46-.29-.29-.57-.59-.84-.88" />
        <path class="GUNDAN_GOAT_OUTFIT_GUNDAN_GOAT_OUTFIT_33_cls-11" d="M100.35,416.37c-1.27-3-3.67-8.13-4.83-7.73s-2.75,5-3.64,7.72" />
        <path class="GUNDAN_GOAT_OUTFIT_GUNDAN_GOAT_OUTFIT_33_cls-11" d="M78.21,408.15c-.2-3.21-.7-8.78-1.93-8.74s-4,3.54-5.83,5.91" />
        <path class="GUNDAN_GOAT_OUTFIT_GUNDAN_GOAT_OUTFIT_33_cls-11" d="M49.71,394c1.44-2.75,4.34-8.55,3.15-9.09s-5.81,1.54-8.61,2.82" />
        <path class="GUNDAN_GOAT_OUTFIT_GUNDAN_GOAT_OUTFIT_33_cls-11" d="M34.23,357.34h0c3,.68,8.45,2,9,3.09s-5,3.47-8.23,4.76" />
        <line class="GUNDAN_GOAT_OUTFIT_GUNDAN_GOAT_OUTFIT_33_cls-11" x1="83.12" y1="333.91" x2="83.13" y2="333.9" />
        <path class="GUNDAN_GOAT_OUTFIT_GUNDAN_GOAT_OUTFIT_33_cls-11" d="M28.54,380.21v0" />
        <path class="GUNDAN_GOAT_OUTFIT_GUNDAN_GOAT_OUTFIT_33_cls-11" d="M123.54,408c0,.09.08.2.11.29" />
        <path class="GUNDAN_GOAT_OUTFIT_GUNDAN_GOAT_OUTFIT_33_cls-11" d="M119.94,393.42c-.06-.38-.12-.8-.18-1.2a.51.51,0,0,0,0-.13c-.15-.94-.32-1.82-.54-2.67" />
        <path class="GUNDAN_GOAT_OUTFIT_GUNDAN_GOAT_OUTFIT_33_cls-11" d="M102.16,401.9a50.44,50.44,0,0,1-30.82-3.8c-11.55-5.52-6.17-15.19-13.47-23.74-3.38-3.95-6.89-8.05-9.46-12.75-3-5.48-4.16-11-3.39-16a17.15,17.15,0,0,1,.71-2.95c1.92.06,4,.09,6.15.05a13.26,13.26,0,0,0-1.11,3.64c-.76,4.94,1.13,9.72,2.83,12.86,2.32,4.22,5.63,8.11,8.84,11.86,6.93,8.1,1.15,17.3,11.58,22.29a44.09,44.09,0,0,0,28.25,3" />
        <path class="GUNDAN_GOAT_OUTFIT_GUNDAN_GOAT_OUTFIT_33_cls-11" d="M124.41,407.31l-.76.95L120,412.92l-.19.22a2.51,2.51,0,0,1-.73.46,2.61,2.61,0,0,1-1,.19,1.9,1.9,0,0,1-.41,0l-.4-.08a3.89,3.89,0,0,1-.38-.16c-.22-.08-.45-.16-.68-.26a37.29,37.29,0,0,1-5-2.76c-3.29-2.09-6.25-4.41-6.77-4.8a1.09,1.09,0,0,1-.19-.18l-.29-.31c-.19-.22-.38-.46-.58-.73s-.38-.6-.56-.93c-.08-.17-.17-.33-.25-.51s0-.11-.07-.17-.11-.25-.16-.38l0-.09c-.06-.16-.12-.33-.17-.49s-.11-.4-.16-.61-.09-.42-.13-.63a8.39,8.39,0,0,1,.41-4.25,9.07,9.07,0,0,1,.57-1.29,10.45,10.45,0,0,1,.82-1.31,11.57,11.57,0,0,1,.91-1.1c.16-.17.31-.32.47-.46a6.28,6.28,0,0,1,.49-.43l.09-.07,0,0,.34-.25.23-.16a2.25,2.25,0,0,0,.21-.12,4.1,4.1,0,0,1,.4-.23s0,0,0,0l.58-.27h0a4.49,4.49,0,0,1,.61-.23c.2-.07.4-.12.6-.17h0c.2-.05.41-.08.61-.12h.15l.47,0a1.79,1.79,0,0,1,.4,0l.39,0h.16l.51,0,.69.06.15,0h0l.4.07.61.11a24.75,24.75,0,0,1,2.39.65l.14,0a11.84,11.84,0,0,1,2.49,1.26l.4.25h0l.62.42a.91.91,0,0,0,.16.11l.17.12.3.23.8.57c.27.2.54.39.81.6l.82.63c1.34,1.05,2.63,2.12,3.67,3h0c.18.17.36.31.52.45h0a2.32,2.32,0,0,0,.25.22l1,.9a.81.81,0,0,1,.16.16l.08.1a.2.2,0,0,1,.06.07s0,0,0,0a1.09,1.09,0,0,1,.13.17l.1.2a1.67,1.67,0,0,1,.08.2,2.71,2.71,0,0,1,.09.41,2,2,0,0,1-.1.86c0,.1-.09.21-.14.31a1.49,1.49,0,0,1-.2.29v0l-3.6,4.55" />
        <path class="GUNDAN_GOAT_OUTFIT_GUNDAN_GOAT_OUTFIT_33_cls-11" d="M119.28,406.53l-2,2.46c-.17-.08-.35-.17-.52-.27-.9-.47-1.86-1-2.84-1.66-.74-.48-1.49-1-2.2-1.46-1.72-1.18-3.26-2.34-4.15-3a4.83,4.83,0,0,1-.44-5.84,4.31,4.31,0,0,1,.36-.55c1.48-2.05,3-2.11,5.2-1.53.44.11.92.25,1.43.41l.14,0a19,19,0,0,1,3.73,2.4l1,.77c.69.54,1.4,1.1,2.12,1.7s1.33,1.11,2,1.67L122,403.07" />
        <path class="GUNDAN_GOAT_OUTFIT_GUNDAN_GOAT_OUTFIT_33_cls-11" d="M119.28,406.53l1.92,1.25a2.48,2.48,0,0,0,1.34.38,2.45,2.45,0,0,0,1-.2,2.32,2.32,0,0,0,.87-.65l0-.05.06-.08a2,2,0,0,0-.61-2.89L122,403.07l-4.26-2.76-.06,0a2.45,2.45,0,0,0-3.24.5,2,2,0,0,0,.56,3l2.22,1.44Z" />
        <path class="GUNDAN_GOAT_OUTFIT_GUNDAN_GOAT_OUTFIT_33_cls-11" d="M98.48,330.65a17.31,17.31,0,0,0-7.42,15.93c1,10.71,6.49,14.25,8.73,13.05s2.54-8.48-2-10.72c3.42,1,6.38,5.95,6.73,10.4.23,2.89-.63,5.55-3.17,6.76-6.45,3.06-15-10.45-16.72-16.79s1.4-15.72,1.4-15.72" />
        <path class="GUNDAN_GOAT_OUTFIT_GUNDAN_GOAT_OUTFIT_33_cls-11" d="M109.9,390.1h0c-.16-.31-3-6.32-11.64-9.22-8.83-3-24-11-17.16-25-6.6,6.06-8.12,17.34-.5,23.68s18.31,3.27,24,13.14" />
        <g class="GUNDAN_GOAT_OUTFIT_GUNDAN_GOAT_OUTFIT_33_cls-12">
          <path d="M276,488s-32.17-7.68-60-21.77-92.34-57.52-92.34-57.52l-4.08,4.71s41.9,34.62,73,49.55c-23-14.5-30-23.76-30-23.76s42.41,26.61,56.72,34.63,41.54,17.27,41.54,17.27,8.82,2.94,11.9.83S276,488,276,488Z" />
        </g>
        <path class="GUNDAN_GOAT_OUTFIT_GUNDAN_GOAT_OUTFIT_33_cls-11" d="M98.49,330.65a14.66,14.66,0,0,1,2-1.35,11,11,0,0,1,7.4-1.54l.45.1" />
        <path class="GUNDAN_GOAT_OUTFIT_GUNDAN_GOAT_OUTFIT_33_cls-13" d="M137.62,407.55l-8,14.89L127,420.29l-2.65-2.19c-1.77-1.48-3.52-3-5.27-4.5a2.61,2.61,0,0,1-1,.19,1.9,1.9,0,0,1-.41,0l-.4-.08a3.89,3.89,0,0,1-.38-.16c-.22-.08-.45-.16-.68-.26a36.26,36.26,0,0,1-.68,3.69c-.21.78-1.5,1.72-3.45,2.68a66.88,66.88,0,0,1-18,5.11l-1.2.14c-.69.09-1.36.15-2,.19l-.53,0a25.82,25.82,0,0,1-4.88-.1,17.21,17.21,0,0,1-3.29-.79c-4.56-1.5-9.73-4.65-15.08-7.51C62,414,70.44,411.51,65.44,411c-11.5-1.08-12.58-1.38-16.1-5.13-.24-.25-.49-.52-.75-.82-2.26-2.52-5.6-6.63-9.17-10.76a51.46,51.46,0,0,0,12.52,1.8,43.94,43.94,0,0,0,14.09-2A43.18,43.18,0,0,0,71.61,392a50.06,50.06,0,0,0,13.61-9.63A64.92,64.92,0,0,0,90,377.14a81.16,81.16,0,0,0,7.56-11l.11-.18a114.7,114.7,0,0,0,5.68-11.32h0s0,0,0,0q1-2.22,1.91-4.59h0c.12-.29.24-.57.35-.87h0c.44-1.16.88-2.34,1.32-3.55q1.75-2.32,3.41-4.13a.66.66,0,0,1,0,.11,34.53,34.53,0,0,0,.65,21.19c4.74,13.92,10.56,13.3,9.08,21.86-.33,1.91-.61,3.48-.83,4.8.22.85.39,1.73.54,2.67a.51.51,0,0,1,0,.13c.06.4.12.82.18,1.2.26.19.53.38.79.59s.54.39.81.6l.82.63c1.34,1.05,2.63,2.12,3.67,3h0a8.33,8.33,0,0,1,2.55,1.57Q133.07,403.81,137.62,407.55Z" />
      </g>
    </g>
  </g>
</svg>