<svg xmlns="http://www.w3.org/2000/svg" viewBox="0 0 432 432">
  <defs>
    <style>.GUNDAN_GOAT_OUTFIT_GUNDAN_GOAT_OUTFIT_9_cls-1{isolation:isolate;}.GUNDAN_GOAT_OUTFIT_GUNDAN_GOAT_OUTFIT_9_cls-2{fill:#fdfeff;}.GUNDAN_GOAT_OUTFIT_GUNDAN_GOAT_OUTFIT_9_cls-3{fill:#802005;}.GUNDAN_GOAT_OUTFIT_GUNDAN_GOAT_OUTFIT_9_cls-4{fill:#785e43;}.GUNDAN_GOAT_OUTFIT_GUNDAN_GOAT_OUTFIT_9_cls-5{fill:#96340d;}.GUNDAN_GOAT_OUTFIT_GUNDAN_GOAT_OUTFIT_9_cls-6{fill:#fff;}.GUNDAN_GOAT_OUTFIT_GUNDAN_GOAT_OUTFIT_9_cls-7{fill:#591c34;}.GUNDAN_GOAT_OUTFIT_GUNDAN_GOAT_OUTFIT_9_cls-8{fill:#af6d45;}.GUNDAN_GOAT_OUTFIT_GUNDAN_GOAT_OUTFIT_9_cls-9{fill:none;stroke:#000;stroke-linecap:round;stroke-linejoin:round;stroke-width:1.57px;}.GUNDAN_GOAT_OUTFIT_GUNDAN_GOAT_OUTFIT_9_cls-10{opacity:0.22;mix-blend-mode:multiply;}</style>
  </defs>
  <g class="GUNDAN_GOAT_OUTFIT_GUNDAN_GOAT_OUTFIT_9_cls-1">
    <g id="outfit">
      <path class="GUNDAN_GOAT_OUTFIT_GUNDAN_GOAT_OUTFIT_9_cls-2" d="M223.9,415.06a9.14,9.14,0,0,1-.11,2.51c-.48,2.88-1.41,8.09-2.57,12.83a.1.1,0,0,1,0,0,10.22,10.22,0,0,0-1,3.67v0a35.31,35.31,0,0,1-1.36,3.83l.62.29c2.06,1,5.22,1.84,7-.73,2.1.67,4.54,1.38,7.13,2.06,0,0-1.41,4.84-4.94,5.56-2,.4-8.75-.36-14.86-1.62-.83-.18-1.64-.35-2.43-.54-.51-13.47,4.43-36.11,4.43-36.11,1.39.15,2.85.31,4.34.51,6.48.84,13.39,2.07,15.55,3.08,4.19,2,2.6,7.83,2.6,7.83-.41,0-.79.07-1.14.08a22.05,22.05,0,0,0-5.94.93,4.48,4.48,0,0,0-2.27-4C227.57,414.49,225.48,414.71,223.9,415.06Z" />
      <path class="GUNDAN_GOAT_OUTFIT_GUNDAN_GOAT_OUTFIT_9_cls-3" d="M206.44,408.57a4.08,4.08,0,0,1,.93-2c.68-.35,4.14-.19,8.45.26,0,0-4.94,22.64-4.43,36.11-4-.93-7.32-2.06-8.19-3.17-1.06-1.35-.67-8.15.23-15.25.23-1.74.49-3.5.75-5.19A92.4,92.4,0,0,1,206.44,408.57Z" />
      <path class="GUNDAN_GOAT_OUTFIT_GUNDAN_GOAT_OUTFIT_9_cls-2" d="M287.44,408.57h-.59a26.37,26.37,0,0,0-5.51.68,28.67,28.67,0,0,0-13.85,7.94,31.35,31.35,0,0,0-8.7,21.9A29.18,29.18,0,0,0,259,443a30.19,30.19,0,0,0,1.07,5.27c3.42,11.64,13.2,20.27,25,21.27l0-1.88c-9.52-1.61-17.15-9.87-19.15-20.55a27.64,27.64,0,0,1-.5-4.11c0-.51,0-1,0-1.53a28.36,28.36,0,0,1,7.25-19.26A20.82,20.82,0,0,1,275,420a21.43,21.43,0,0,1,8.76-4.47,19.12,19.12,0,0,1,3.12-.49c.53-.05,1.08-.07,1.63-.07a4,4,0,0,1,.24-.46c.3-1.93.63-3.88,1-5.83A21.18,21.18,0,0,0,287.44,408.57Z" />
      <path class="GUNDAN_GOAT_OUTFIT_GUNDAN_GOAT_OUTFIT_9_cls-3" d="M288.48,415c-.55,0-1.1,0-1.63.07a19.12,19.12,0,0,0-3.12.49A21.43,21.43,0,0,0,275,420a20.82,20.82,0,0,0-2.32,2.19,28.36,28.36,0,0,0-7.25,19.26c0,.51,0,1,0,1.53a27.64,27.64,0,0,0,.5,4.11c2,10.68,9.63,18.94,19.15,20.55A309,309,0,0,1,288.65,415Z" />
      <path class="GUNDAN_GOAT_OUTFIT_GUNDAN_GOAT_OUTFIT_9_cls-3" d="M286.23,404.54a32.56,32.56,0,0,0-24.14,10.74,33.85,33.85,0,0,0-7.21,12.38,33,33,0,0,0-1.27,5.28,34.31,34.31,0,0,0-.44,5.5,35.39,35.39,0,0,0,.36,5.07c2.34,16,15.56,28.3,31.68,28.8,0-.92-.06-1.86-.09-2.79-11.81-1-21.59-9.63-25-21.27A30.19,30.19,0,0,1,259,443a29.18,29.18,0,0,1-.25-3.88,31.35,31.35,0,0,1,8.7-21.9,28.67,28.67,0,0,1,13.85-7.94,26.37,26.37,0,0,1,5.51-.68h.59a21.18,21.18,0,0,1,2.27.11c.24-1.29.47-2.57.73-3.85A29.18,29.18,0,0,0,286.23,404.54Z" />
      <path class="GUNDAN_GOAT_OUTFIT_GUNDAN_GOAT_OUTFIT_9_cls-4" d="M139.48,403.26h0c6.31,3.92,43.07,12.13,63,16.13-6.49.11-44.72-.06-60.4-3.77l-.45-.11c.49,3.19.93,6.35,1.31,9.5.86.23,2,.5,3.29.8,6.57,1.51,40.15,3.75,51.9,3.8h0c1.76-1.67,3.51-3.35,5.25-5.06.23-1.74.49-3.5.75-5.19a92.4,92.4,0,0,1,2.26-10.8c-25.19-6.26-64.14-15.89-70.33-19.75C137.4,393.64,138.51,398.46,139.48,403.26Z" />
      <path class="GUNDAN_GOAT_OUTFIT_GUNDAN_GOAT_OUTFIT_9_cls-4" d="M238.81,418.26l-.5,0c-.41,0-.79.07-1.14.08a22.05,22.05,0,0,0-5.94.93v0c-2.53.87-3.67,2.35-3.67,4.54,0,3.28.68,4.41.76,4.55-.42-.13-.8-.24-1.13-.36-3.11-1.14-4.95.37-6,2.35a.1.1,0,0,1,0,0c-.32,1.28-.65,2.53-1,3.67v0a6.93,6.93,0,0,0,0,1,16.84,16.84,0,0,0,1.73.79c1.2.48,2.77,1,4.58,1.61,2.1.67,4.54,1.38,7.13,2.06a129.59,129.59,0,0,0,19.91,3.93,35.39,35.39,0,0,1-.36-5.07,34.31,34.31,0,0,1,.44-5.5s-13.48-1.84-21.68-3.63a128.77,128.77,0,0,0,22.94-1.65h0a33.85,33.85,0,0,1,7.21-12.38S246.45,417.66,238.81,418.26Z" />
      <path class="GUNDAN_GOAT_OUTFIT_GUNDAN_GOAT_OUTFIT_9_cls-5" d="M143,425c-.38-3.15-.82-6.31-1.31-9.5l-.15-1s0,0,0,0a38.09,38.09,0,0,0-7.25-9.4l-.84-.75a256.21,256.21,0,0,1-1.27,92.07h11.23c.57-5.21,1-10.89,1.36-17v0c.38-7.12.55-14.77.4-22.82A310.84,310.84,0,0,0,143,425Z" />
      <path class="GUNDAN_GOAT_OUTFIT_GUNDAN_GOAT_OUTFIT_9_cls-5" d="M296.81,404.33l-.84.76a37.77,37.77,0,0,0-7.25,9.42c0,.15-.05.31-.07.46a309,309,0,0,0-3.56,52.67l0,1.88c0,.93.05,1.87.09,2.79.26,8.78.87,16.9,1.65,24.1h11.21A256.73,256.73,0,0,1,296.81,404.33Z" />
      <path class="GUNDAN_GOAT_OUTFIT_GUNDAN_GOAT_OUTFIT_9_cls-5" d="M382.84,419c-.38-1.09-.89-2.32-2-2.61a2.77,2.77,0,0,0-2,.41,7.15,7.15,0,0,0-1.58,1.14,32.2,32.2,0,0,0,2.23,6.19,17.08,17.08,0,0,1-6,6.55,32.55,32.55,0,0,1-10,4,14.47,14.47,0,0,0-1.19,3.15A153.68,153.68,0,0,1,344,448.34,60.69,60.69,0,0,1,324.32,454a70.7,70.7,0,0,0-.49-10.18,14.57,14.57,0,0,0-1.07-4.44,5.45,5.45,0,0,0-3.21-3,5.33,5.33,0,0,0-5.35,1.95,13.63,13.63,0,0,0-2.48,5.55c-.27,1.05-.5,2.12-.7,3.19a52.48,52.48,0,0,0-.74,5.88,32.59,32.59,0,0,1-9.51-4.18q.25,6.15.5,12.3a34.38,34.38,0,0,0,17.87,4.56l1.15,0a53.09,53.09,0,0,0,15.09-2.66c10.2-3.3,19.36-9.23,28.26-15.36l0,.06a7.41,7.41,0,0,0,4.52,3.68,21.25,21.25,0,0,0,9.75-5.52l.15-.14h0a64.43,64.43,0,0,0,7.25-8.53l2.3-3C386,429,384.53,424,382.84,419Zm-12.66,26.27a4.73,4.73,0,1,1,4.62-4.72A4.67,4.67,0,0,1,370.18,445.25Z" />
      <path class="GUNDAN_GOAT_OUTFIT_GUNDAN_GOAT_OUTFIT_9_cls-5" d="M120,452.91a48.8,48.8,0,0,0-1.44-9.08,13.5,13.5,0,0,0-2.48-5.55,5.31,5.31,0,0,0-5.34-1.95,5.37,5.37,0,0,0-3.21,3,14,14,0,0,0-1.08,4.44,70.68,70.68,0,0,0-.47,10.18,60.73,60.73,0,0,1-19.66-5.65A152.9,152.9,0,0,1,67.9,437.81h0a14.2,14.2,0,0,0-1.19-3.14,32.33,32.33,0,0,1-10-4,17.17,17.17,0,0,1-5.8-6.09c-.09-.15-.16-.31-.24-.46a32.14,32.14,0,0,0,2.23-6.21,8.56,8.56,0,0,0-1.56-1.12,2.84,2.84,0,0,0-2-.41c-1.08.29-1.6,1.52-2,2.61-1.69,5-3.13,10.06-4.82,15.07l.37.48c.63.85,1.28,1.7,1.93,2.55a66.12,66.12,0,0,0,7.26,8.55l.13.13A21.31,21.31,0,0,0,62,451.28a7.39,7.39,0,0,0,4.51-3.68.21.21,0,0,1,0-.06l.35.24c8.8,6,17.84,11.86,27.92,15.12,1,.33,2,.63,3.07.9a51.49,51.49,0,0,0,12,1.76A34.68,34.68,0,0,0,129,461q.25-6.15.5-12.3A32.88,32.88,0,0,1,120,452.91Zm-60.23-7.66a4.73,4.73,0,1,1,4.61-4.72A4.67,4.67,0,0,1,59.72,445.25Z" />
      <path class="GUNDAN_GOAT_OUTFIT_GUNDAN_GOAT_OUTFIT_9_cls-6" d="M229,415.28c-1.39-.79-3.48-.57-5.06-.22a9.14,9.14,0,0,1-.11,2.51c-.48,2.88-1.41,8.09-2.57,12.83,1-2,2.86-3.49,6-2.35.33.12.71.23,1.13.36-.08-.14-.76-1.27-.76-4.55,0-2.19,1.14-3.67,3.67-4.54v0A4.48,4.48,0,0,0,229,415.28Z" />
      <path class="GUNDAN_GOAT_OUTFIT_GUNDAN_GOAT_OUTFIT_9_cls-6" d="M203.2,439.81c-1.06-1.35-.67-8.15.23-15.25-1.74,1.71-3.49,3.39-5.25,5.06h0c-10,9.46-42.26,18.48-53,27,.15,8.05,0,15.7-.4,22.82,16.73-10.5,54.41-22.54,69.08-35.91q-1.24-.25-2.43-.54C207.4,442.05,204.07,440.92,203.2,439.81Z" />
      <path class="GUNDAN_GOAT_OUTFIT_GUNDAN_GOAT_OUTFIT_9_cls-6" d="M305.85,306.65A346.79,346.79,0,0,1,255.54,398l-.8,1.05-.82,1.05q-7.24,9.33-15.11,18.13l-.5,0a7.81,7.81,0,0,0,.17-.84c.26-1.69.44-5.5-2.77-7a19.6,19.6,0,0,0-3.58-1.06c-3-.68-7.13-1.37-11.19-1.91l-.78-.1q2.51-2.7,5-5.44l.9-1,.4-.45c-18.54-13.56-40.31-29.71-61.46-47.82-16.34-14-30.75-29.13-39.06-45.15-.21-.39-.41-.79-.61-1.19a2.76,2.76,0,0,1-.18-.39c3.85-3.85,17.6-8,20.92-12.38,0,.4-4.35,11.19,11.45,25.51C173.22,335.43,188.76,346.25,205,359c1.21,1.22,2.44,2.43,3.67,3.63,7.9,7.68,18,13.52,27.06,20l1,.72c.8.57,1.58,1.15,2.35,1.75l.31.23q10.44-12.74,20-26.19c1.13-1.59,2.23-3.17,3.34-4.76C275.35,336.05,285.75,317,295.81,297c2.68,3.3,6.6,6.26,9.63,9.25C305.57,306.39,305.72,306.51,305.85,306.65Z" />
      <path class="GUNDAN_GOAT_OUTFIT_GUNDAN_GOAT_OUTFIT_9_cls-6" d="M264.83,352.22c-5.23-3.23-17.77-5.68-27.82-5.59-12.37.09-30.27,6.36-35.53,10,11.22,10.92,26,18.84,38.37,28.38Q252.9,369,264.83,352.22Z" />
      <path class="GUNDAN_GOAT_OUTFIT_GUNDAN_GOAT_OUTFIT_9_cls-7" d="M259.32,359.16c-4.19-2.59-14.22-4.55-22.26-4.47-9.89.07-24.21,5.09-28.42,8,9,8.74,20.79,15.07,30.69,22.71Q249.77,372.61,259.32,359.16Z" />
      <path class="GUNDAN_GOAT_OUTFIT_GUNDAN_GOAT_OUTFIT_9_cls-7" d="M254.88,427.66h0a128.77,128.77,0,0,1-22.94,1.65c8.2,1.79,21.68,3.63,21.68,3.63A33,33,0,0,1,254.88,427.66Z" />
      <path class="GUNDAN_GOAT_OUTFIT_GUNDAN_GOAT_OUTFIT_9_cls-7" d="M313.53,313.58q-4-3.29-7.68-6.93a347.74,347.74,0,0,1-67,111.61c7.64-.6,23.28-3,23.28-3a32.56,32.56,0,0,1,24.14-10.74,29.18,29.18,0,0,1,4.21.29,244.34,244.34,0,0,1,6.14-24.72c4.14-13.55,11.7-25.8,16.13-39.25C315.62,332,320.61,319.41,313.53,313.58Z" />
      <path class="GUNDAN_GOAT_OUTFIT_GUNDAN_GOAT_OUTFIT_9_cls-7" d="M202.52,419.4c-20-4-56.73-12.21-63-16.13.77,3.76,1.43,7.51,2,11.22,0,0,0,0,0,0,.21.36.4.73.6,1.11C157.8,419.34,196,419.51,202.52,419.4Z" />
      <path class="GUNDAN_GOAT_OUTFIT_GUNDAN_GOAT_OUTFIT_9_cls-7" d="M198.17,429.62c-11.75-.05-45.33-2.29-51.9-3.8-1.31-.3-2.43-.57-3.29-.8a310.84,310.84,0,0,1,2.16,31.59C155.91,448.1,188.18,439.08,198.17,429.62Z" />
      <path class="GUNDAN_GOAT_OUTFIT_GUNDAN_GOAT_OUTFIT_9_cls-7" d="M206.44,408.57a4.08,4.08,0,0,1,.93-2c.68-.35,4.14-.19,8.45.26,1.39.15,2.85.31,4.34.51q3.17-3.42,6.26-6.89c-33.22-24.3-82.55-56.9-101.13-94.16-.16,0-.33-.06-.5-.09q-3.89,3.87-8.09,7.34c-7.07,5.83-2.09,18.46.83,27.28,4.42,13.45,12,25.7,16.12,39.25.89,2.91,1.71,5.8,2.46,8.7h0C142.3,392.68,181.25,402.31,206.44,408.57Z" />
      <path class="GUNDAN_GOAT_OUTFIT_GUNDAN_GOAT_OUTFIT_9_cls-8" d="M377.29,417.92c-1.83-7-1.69-14.77-1.17-22.14.74-10.66,2.05-21.7-1.39-31.8-1.88-5.53-5.1-10.47-8.29-15.35-1.35-2.08-2.35-4.62-3.71-6.7-3.72.58-7.48-1-10.6-3.12s-5.78-5-8.73-7.35a42.68,42.68,0,0,0-10.53-6.26c0-.15-.09-.31-.14-.46-.94-3.07-3.47-6-6.49-6.89a10.08,10.08,0,0,0-.39-7.93,9.66,9.66,0,0,0-6.05-5c-2.56-.69-5.25-.25-7.85.2l-5.92,1a3.82,3.82,0,0,1-.18.51q3.7,3.64,7.68,6.93c7.08,5.83,2.09,18.46-.82,27.28-4.43,13.45-12,25.7-16.13,39.25a244.34,244.34,0,0,0-6.14,24.72c-.26,1.28-.49,2.56-.73,3.85-.36,1.95-.69,3.9-1,5.83a37.77,37.77,0,0,1,7.25-9.42l.84-.76a37.23,37.23,0,0,1,3.79-2.82,37.23,37.23,0,0,0-3.79,2.82,256.73,256.73,0,0,0,1.26,92.08h23.52a20.09,20.09,0,0,1-1.26-3.61,16.17,16.17,0,0,1,.06-4.71c.37-3.29,1.57-7.16.5-10.29a14.81,14.81,0,0,0-4-6.09,7.82,7.82,0,0,0,3.07-3.26,6.5,6.5,0,0,0,.29-2.88,34.67,34.67,0,0,1-19-4.55q-.24-6.15-.5-12.29a32.56,32.56,0,0,0,9.51,4.17,50.55,50.55,0,0,1,1.44-9.07,13.53,13.53,0,0,1,2.48-5.54,5.34,5.34,0,0,1,5.35-2,5.51,5.51,0,0,1,3.21,3,14.64,14.64,0,0,1,1.07,4.45,70.56,70.56,0,0,1,.49,10.18A60.71,60.71,0,0,0,344,448.34a152.33,152.33,0,0,0,18.37-10.53,14.47,14.47,0,0,1,1.19-3.15,32.55,32.55,0,0,0,10-4,17.08,17.08,0,0,0,6-6.55A32.2,32.2,0,0,1,377.29,417.92Z" />
      <path class="GUNDAN_GOAT_OUTFIT_GUNDAN_GOAT_OUTFIT_9_cls-8" d="M141.51,414.49c-.6-3.71-1.26-7.46-2-11.22h0c-1-4.8-2.08-9.62-3.37-14.44h0c-.75-2.9-1.57-5.79-2.46-8.7-4.13-13.55-11.7-25.8-16.12-39.25-2.92-8.82-7.9-21.45-.83-27.28q4.22-3.48,8.09-7.34l-6.51-1.09c-2.6-.45-5.3-.89-7.85-.2a9.65,9.65,0,0,0-6,5,10.08,10.08,0,0,0-.4,7.93c-3,.86-5.54,3.82-6.5,6.89a3.47,3.47,0,0,0-.13.46v0a42.06,42.06,0,0,0-10.52,6.24c-3,2.39-5.62,5.18-8.74,7.35s-6.87,3.7-10.6,3.12c-1.36,2.08-2.35,4.62-3.71,6.7-3.18,4.88-6.41,9.82-8.3,15.35-3.42,10.1-2.11,21.14-1.37,31.8.51,7.37.64,15.09-1.18,22.13a33,33,0,0,1-2.23,6.2,17.1,17.1,0,0,0,6,6.55,32.49,32.49,0,0,0,10,4,14.39,14.39,0,0,1,1.19,3.14h0a150.8,150.8,0,0,0,18.37,10.53A60.77,60.77,0,0,0,105.92,454a72,72,0,0,1,.48-10.18,14.09,14.09,0,0,1,1.08-4.45,5.43,5.43,0,0,1,3.21-3,5.31,5.31,0,0,1,5.34,2,13.53,13.53,0,0,1,2.48,5.54,48.22,48.22,0,0,1,1.43,9.08,32.8,32.8,0,0,0,9.52-4.18q-.24,6.13-.5,12.29a34.6,34.6,0,0,1-19,4.55,6.22,6.22,0,0,0,.26,2.88,8,8,0,0,0,3.08,3.26,14.81,14.81,0,0,0-4,6.09c-1.06,3.13.13,7,.5,10.29a15.83,15.83,0,0,1,.06,4.71,20.05,20.05,0,0,1-1.25,3.61h23.5a256.21,256.21,0,0,0,1.27-92.07,37.2,37.2,0,0,0-3.78-2.83,37.2,37.2,0,0,1,3.78,2.83l.84.75A38.09,38.09,0,0,1,141.51,414.49Z" />
      <path class="GUNDAN_GOAT_OUTFIT_GUNDAN_GOAT_OUTFIT_9_cls-9" d="M141.52,414.52l.15,1c.49,3.19.93,6.35,1.31,9.5a310.84,310.84,0,0,1,2.16,31.59c.15,8.05,0,15.7-.4,22.82" />
      <path class="GUNDAN_GOAT_OUTFIT_GUNDAN_GOAT_OUTFIT_9_cls-9" d="M139.48,403.27c.77,3.76,1.43,7.51,2,11.22" />
      <path class="GUNDAN_GOAT_OUTFIT_GUNDAN_GOAT_OUTFIT_9_cls-9" d="M136.11,388.82c1.29,4.82,2.4,9.64,3.37,14.44" />
      <path class="GUNDAN_GOAT_OUTFIT_GUNDAN_GOAT_OUTFIT_9_cls-9" d="M146,293.56c-7.33,4-17.07,8.54-20.92,12.38l-.32.3q-3.89,3.87-8.09,7.34c-7.07,5.83-2.09,18.46.83,27.28,4.42,13.45,12,25.7,16.12,39.25.89,2.91,1.71,5.8,2.46,8.7" />
      <path class="GUNDAN_GOAT_OUTFIT_GUNDAN_GOAT_OUTFIT_9_cls-9" d="M97.36,325.2a3.47,3.47,0,0,1,.13-.46c1-3.07,3.48-6,6.5-6.89a10.08,10.08,0,0,1,.4-7.93,9.65,9.65,0,0,1,6-5c2.55-.69,5.25-.25,7.85.2l6.51,1.09c.17,0,.34.05.5.09" />
      <path class="GUNDAN_GOAT_OUTFIT_GUNDAN_GOAT_OUTFIT_9_cls-9" d="M142.12,415.63c-.2-.38-.39-.75-.6-1.11,0,0,0,0,0,0a38.09,38.09,0,0,0-7.25-9.4l-.84-.75a37.2,37.2,0,0,0-3.78-2.83,47,47,0,0,0-10.53-4.93,123.9,123.9,0,0,0-16.78-4.47c-4.63-12.27-5-25.72-5.25-38.87q-.19-9.47-.4-18.93a31,31,0,0,1,.68-9.09" />
      <path class="GUNDAN_GOAT_OUTFIT_GUNDAN_GOAT_OUTFIT_9_cls-9" d="M97.36,325.2v0a42.06,42.06,0,0,0-10.52,6.24c-3,2.39-5.62,5.18-8.74,7.35s-6.87,3.7-10.6,3.12c-1.36,2.08-2.35,4.62-3.71,6.7-3.18,4.88-6.41,9.82-8.3,15.35-3.42,10.1-2.11,21.14-1.37,31.8.51,7.37.64,15.09-1.18,22.13a33,33,0,0,1-2.23,6.2" />
      <path class="GUNDAN_GOAT_OUTFIT_GUNDAN_GOAT_OUTFIT_9_cls-9" d="M67.9,437.8a14.39,14.39,0,0,0-1.19-3.14,32.49,32.49,0,0,1-10-4,17.1,17.1,0,0,1-6-6.55,9.74,9.74,0,0,1-.73-1.76" />
      <path class="GUNDAN_GOAT_OUTFIT_GUNDAN_GOAT_OUTFIT_9_cls-9" d="M52.94,417.91a7.87,7.87,0,0,0-1.57-1.12,2.71,2.71,0,0,0-2-.41c-1.08.28-1.6,1.52-2,2.6-1.69,5-3.13,10.06-4.82,15.07l2.29,3a67,67,0,0,0,7.27,8.56,1.42,1.42,0,0,1,.13.12A21.17,21.17,0,0,0,62,451.28a7.38,7.38,0,0,0,4.51-3.67l0-.07a13,13,0,0,0,1.32-9.73" />
      <path class="GUNDAN_GOAT_OUTFIT_GUNDAN_GOAT_OUTFIT_9_cls-9" d="M129.64,401.51c1.4,7.44,1.1,15.24.8,22.88q-.49,12.15-1,24.32" />
      <path class="GUNDAN_GOAT_OUTFIT_GUNDAN_GOAT_OUTFIT_9_cls-9" d="M133.42,404.34a256.21,256.21,0,0,1-1.27,92.07" />
      <path class="GUNDAN_GOAT_OUTFIT_GUNDAN_GOAT_OUTFIT_9_cls-9" d="M104,317.85s-1.13,29.76,6.36,43.7" />
      <path class="GUNDAN_GOAT_OUTFIT_GUNDAN_GOAT_OUTFIT_9_cls-9" d="M290.44,404.83a244.34,244.34,0,0,1,6.14-24.72c4.14-13.55,11.7-25.8,16.13-39.25,2.91-8.82,7.9-21.45.82-27.28q-4-3.29-7.68-6.93c-.13-.13-.28-.26-.41-.41-3-3-6.95-5.95-9.63-9.25" />
      <path class="GUNDAN_GOAT_OUTFIT_GUNDAN_GOAT_OUTFIT_9_cls-9" d="M305.44,306.24l.59-.1,5.92-1c2.6-.45,5.29-.89,7.85-.2a9.66,9.66,0,0,1,6.05,5,10.08,10.08,0,0,1,.39,7.93c3,.86,5.55,3.82,6.49,6.89,0,.15.1.31.14.46a31.5,31.5,0,0,1,.69,9.11q-.19,9.45-.41,18.93c-.28,13.15-.62,26.6-5.24,38.87a123.51,123.51,0,0,0-16.78,4.47,47.24,47.24,0,0,0-10.53,4.93,37.23,37.23,0,0,0-3.79,2.82l-.84.76a37.77,37.77,0,0,0-7.25,9.42,4,4,0,0,0-.24.46" />
      <path class="GUNDAN_GOAT_OUTFIT_GUNDAN_GOAT_OUTFIT_9_cls-9" d="M379.52,424.11a32.2,32.2,0,0,1-2.23-6.19c-1.83-7-1.69-14.77-1.17-22.14.74-10.66,2.05-21.7-1.39-31.8-1.88-5.53-5.1-10.47-8.29-15.35-1.35-2.08-2.35-4.62-3.71-6.7-3.72.58-7.48-1-10.6-3.12s-5.78-5-8.73-7.35a42.68,42.68,0,0,0-10.53-6.26" />
      <path class="GUNDAN_GOAT_OUTFIT_GUNDAN_GOAT_OUTFIT_9_cls-9" d="M380.25,422.35a13.82,13.82,0,0,1-.73,1.76,17.08,17.08,0,0,1-6,6.55,32.55,32.55,0,0,1-10,4,14.47,14.47,0,0,0-1.19,3.15,13.09,13.09,0,0,0,1.31,9.73s0,0,0,.07a7.39,7.39,0,0,0,4.52,3.67,21.16,21.16,0,0,0,9.75-5.52l.15-.14h0a64.43,64.43,0,0,0,7.25-8.53l2.3-3C386,429,384.53,424,382.84,419c-.38-1.08-.89-2.32-2-2.6a2.68,2.68,0,0,0-2,.41,7.1,7.1,0,0,0-1.58,1.13" />
      <path class="GUNDAN_GOAT_OUTFIT_GUNDAN_GOAT_OUTFIT_9_cls-9" d="M300.6,401.51c-1.41,7.44-1.12,15.25-.81,22.88q.48,12.15,1,24.32" />
      <path class="GUNDAN_GOAT_OUTFIT_GUNDAN_GOAT_OUTFIT_9_cls-9" d="M298.07,496.41a256.73,256.73,0,0,1-1.26-92.08" />
      <path class="GUNDAN_GOAT_OUTFIT_GUNDAN_GOAT_OUTFIT_9_cls-9" d="M326.24,317.85s1.12,29.76-6.36,43.7" />
      <path class="GUNDAN_GOAT_OUTFIT_GUNDAN_GOAT_OUTFIT_9_cls-9" d="M239.33,385.35l-.31-.23-2.35-1.75-1-.72c-5.62-4.2-15.2-11.46-26.34-20.18L205,359c-16.21-12.77-31.75-23.59-47.49-39.95C141.68,304.75,146,294,146,293.56h0" />
      <path class="GUNDAN_GOAT_OUTFIT_GUNDAN_GOAT_OUTFIT_9_cls-9" d="M226.42,400.49c-33.22-24.3-82.55-56.9-101.13-94.16a2.32,2.32,0,0,1-.18-.39" />
      <path class="GUNDAN_GOAT_OUTFIT_GUNDAN_GOAT_OUTFIT_9_cls-9" d="M198.18,429.62c1.76-1.67,3.51-3.35,5.25-5.06" />
      <path class="GUNDAN_GOAT_OUTFIT_GUNDAN_GOAT_OUTFIT_9_cls-9" d="M145.14,456.61c10.77-8.51,43-17.53,53-27" />
      <path class="GUNDAN_GOAT_OUTFIT_GUNDAN_GOAT_OUTFIT_9_cls-9" d="M220.16,407.38q3.17-3.42,6.26-6.89,6.62-7.42,12.91-15.13,10.44-12.75,20-26.2c1.13-1.58,2.23-3.16,3.34-4.76,12.69-18.35,23.09-37.4,33.15-57.41" />
      <path class="GUNDAN_GOAT_OUTFIT_GUNDAN_GOAT_OUTFIT_9_cls-9" d="M238.81,418.26a347.74,347.74,0,0,0,67-111.61,3.82,3.82,0,0,0,.18-.51" />
      <path class="GUNDAN_GOAT_OUTFIT_GUNDAN_GOAT_OUTFIT_9_cls-9" d="M285.09,467.64c-9.52-1.61-17.15-9.87-19.15-20.55a27.64,27.64,0,0,1-.5-4.11c0-.51,0-1,0-1.53a28.4,28.4,0,0,1,7.24-19.26A21.83,21.83,0,0,1,275,420a21.43,21.43,0,0,1,8.76-4.47,19.12,19.12,0,0,1,3.12-.49c.53-.05,1.08-.07,1.63-.07h.17" />
      <path class="GUNDAN_GOAT_OUTFIT_GUNDAN_GOAT_OUTFIT_9_cls-9" d="M285.12,469.52c-11.81-1-21.59-9.63-25-21.27A30.19,30.19,0,0,1,259,443a29.18,29.18,0,0,1-.25-3.88,31.35,31.35,0,0,1,8.7-21.9,28.67,28.67,0,0,1,13.85-7.94,26.37,26.37,0,0,1,5.51-.68h.59a21.18,21.18,0,0,1,2.27.11" />
      <path class="GUNDAN_GOAT_OUTFIT_GUNDAN_GOAT_OUTFIT_9_cls-9" d="M290.44,404.83c-.26,1.28-.49,2.56-.73,3.85-.36,1.95-.69,3.9-1,5.83,0,.15-.05.31-.07.46a309,309,0,0,0-3.56,52.67l0,1.88c0,.93.05,1.87.09,2.79-16.12-.5-29.34-12.82-31.68-28.8a35.39,35.39,0,0,1-.36-5.07,34.31,34.31,0,0,1,.44-5.5,33,33,0,0,1,1.27-5.28,33.85,33.85,0,0,1,7.21-12.38,32.56,32.56,0,0,1,24.14-10.74A29.18,29.18,0,0,1,290.44,404.83Z" />
      <path class="GUNDAN_GOAT_OUTFIT_GUNDAN_GOAT_OUTFIT_9_cls-9" d="M228.34,428.42c.25.06.53.15.82.23.82.21,1.75.43,2.77.66,8.2,1.79,21.68,3.63,21.68,3.63" />
      <path class="GUNDAN_GOAT_OUTFIT_GUNDAN_GOAT_OUTFIT_9_cls-9" d="M221.22,430.4c1-2,2.86-3.49,6-2.35.33.12.71.23,1.13.36" />
      <path class="GUNDAN_GOAT_OUTFIT_GUNDAN_GOAT_OUTFIT_9_cls-9" d="M220.21,434.1a10.22,10.22,0,0,1,1-3.67" />
      <path class="GUNDAN_GOAT_OUTFIT_GUNDAN_GOAT_OUTFIT_9_cls-9" d="M231.23,419.3a22.05,22.05,0,0,1,5.94-.93c.35,0,.73,0,1.14-.08l.5,0c7.64-.6,23.28-3,23.28-3" />
      <path class="GUNDAN_GOAT_OUTFIT_GUNDAN_GOAT_OUTFIT_9_cls-9" d="M228.34,428.42h0c-.08-.14-.76-1.27-.76-4.55,0-2.19,1.14-3.67,3.67-4.54" />
      <path class="GUNDAN_GOAT_OUTFIT_GUNDAN_GOAT_OUTFIT_9_cls-9" d="M254.87,427.66a128.77,128.77,0,0,1-22.94,1.65h0" />
      <path class="GUNDAN_GOAT_OUTFIT_GUNDAN_GOAT_OUTFIT_9_cls-9" d="M238.31,418.29s1.59-5.88-2.6-7.83c-2.16-1-9.07-2.24-15.55-3.08-1.49-.2-2.95-.36-4.34-.51-4.31-.45-7.77-.61-8.45-.26a4.08,4.08,0,0,0-.93,2,92.4,92.4,0,0,0-2.26,10.8c-.26,1.69-.52,3.45-.75,5.19-.9,7.1-1.29,13.9-.23,15.25.87,1.11,4.2,2.24,8.19,3.17.79.19,1.6.36,2.43.54,6.11,1.26,12.91,2,14.86,1.62,3.53-.72,4.94-5.56,4.94-5.56" />
      <path class="GUNDAN_GOAT_OUTFIT_GUNDAN_GOAT_OUTFIT_9_cls-9" d="M220.59,410.16a5.56,5.56,0,0,1,3.31,4.9,9.14,9.14,0,0,1-.11,2.51c-.48,2.88-1.41,8.09-2.57,12.83a.1.1,0,0,1,0,0c-.32,1.28-.65,2.53-1,3.67v0a35.31,35.31,0,0,1-1.36,3.83,9.87,9.87,0,0,1-.95,1.77h0a2.52,2.52,0,0,1-1,.93" />
      <path class="GUNDAN_GOAT_OUTFIT_GUNDAN_GOAT_OUTFIT_9_cls-9" d="M223.9,415.06c1.58-.35,3.67-.57,5.06.22a4.48,4.48,0,0,1,2.27,4v0" />
      <path class="GUNDAN_GOAT_OUTFIT_GUNDAN_GOAT_OUTFIT_9_cls-9" d="M215.82,406.87s-4.94,22.64-4.43,36.11" />
      <path class="GUNDAN_GOAT_OUTFIT_GUNDAN_GOAT_OUTFIT_9_cls-9" d="M206.46,408.57h0c-25.19-6.26-64.14-15.89-70.33-19.75h0" />
      <path class="GUNDAN_GOAT_OUTFIT_GUNDAN_GOAT_OUTFIT_9_cls-9" d="M202.52,419.4c-6.49.11-44.72-.06-60.4-3.77l-.45-.11" />
      <path class="GUNDAN_GOAT_OUTFIT_GUNDAN_GOAT_OUTFIT_9_cls-9" d="M204.18,419.37l-1.65,0" />
      <path class="GUNDAN_GOAT_OUTFIT_GUNDAN_GOAT_OUTFIT_9_cls-9" d="M198.18,429.62h0c-11.75-.05-45.33-2.29-51.9-3.8-1.31-.3-2.43-.58-3.29-.8" />
      <path class="GUNDAN_GOAT_OUTFIT_GUNDAN_GOAT_OUTFIT_9_cls-9" d="M202.56,419.42s0,0,0,0h0c-20-4-56.73-12.21-63-16.13h0" />
      <polyline class="GUNDAN_GOAT_OUTFIT_GUNDAN_GOAT_OUTFIT_9_cls-9" points="271 414.08 271.02 414.1 274.95 419.99" />
      <line class="GUNDAN_GOAT_OUTFIT_GUNDAN_GOAT_OUTFIT_9_cls-9" x1="267.49" y1="417.2" x2="272.64" y2="422.19" />
      <line class="GUNDAN_GOAT_OUTFIT_GUNDAN_GOAT_OUTFIT_9_cls-9" x1="281.34" y1="409.26" x2="283.73" y2="415.53" />
      <line class="GUNDAN_GOAT_OUTFIT_GUNDAN_GOAT_OUTFIT_9_cls-9" x1="286.85" y1="408.58" x2="286.85" y2="415.03" />
      <g class="GUNDAN_GOAT_OUTFIT_GUNDAN_GOAT_OUTFIT_9_cls-10">
        <path d="M121.37,311.85s-7.89.47-10.14,8-1.68,23.37,4.29,36.16c-8.58-23.58-8.84-35.94-8.84-35.94s-3-4.26-1.62-9.06C101.74,314.82,104,321,104,321s-2.23-.86-4.84,2.68S97,328.9,97,328.9A18.06,18.06,0,0,0,87.83,333C83.4,336.63,75.1,346,67.3,344.29c-4.37,7.64-10.74,17.42-12.47,23.45s-2,18.76-1.12,25.47,1.26,24.73-2.88,31.55l-1.53-6.68s-.84-1.77-4.81,10.94l-1.75,6.24s7,11,13,14.07C61,452.38,61.67,452,61.67,452a8,8,0,0,0,6-6.38c10.35,8.15,34.6,18.11,39.88,18.33-19.3,0-26.26-1.29-26.26-1.29a61.06,61.06,0,0,1,13.48,7.06c-11.69.77-13.69,1-13.69,1S90.16,482,99.84,486l8.79,1.87s-9.07,7.32-24,8.59H138s6.49-61.92-1.68-87.67c-6.18-6-6.28-39.88-3.22-53.34,7.27,20,72.2,53.34,72.2,53.34s-51.13-20.29-63.88-52.17S121.37,311.85,121.37,311.85Z" />
        <path d="M130.38,300.8l-6.95,7.72s15.35,31.63,28.95,45.12,60,43.79,71.48,48l9.7-11.14S174,361.6,155.19,337.91,130.38,300.8,130.38,300.8Z" />
        <path d="M203.82,416.21s6.76-4.61,9.07.88C211.35,427,210.64,437,210.64,437a16.62,16.62,0,0,0,9.6,4.51c5.8.53,6.8-2.27,6.8-2.27l5.22,1.33s-.42,5.24-8.09,5.45-21.9-2.83-22.72-6.78S203.82,416.21,203.82,416.21Z" />
        <path d="M203.75,414.4s-51.43-8.36-59.27-13.29l-7.85-4.93,2.17,9.57s17.65,9.08,27.2,11.78,34.48,3.06,34.48,3.06l2.27-.35Z" />
        <path d="M202.31,423.19s-34.08,1.61-43.05.75-17.84-2.36-17.84-2.36l1.26,4.53s16.88,4,24.78,4.25,29.91.28,29.91.28l4.87-4.62Z" />
        <path d="M269.65,425s.35,19.76,13.89,28.12c-.7,10.4-.12,15-.12,15s-16.13-3.41-18.66-19.08C263.23,441,263.32,433.84,269.65,425Z" />
        <path d="M311.09,397.52s-4.06,24.33-2.64,35.72a129.24,129.24,0,0,0,4.62,21.25s6.89,7.15,6,11.52c-8.33.66-17.51-1.21-19.6-4.78-.68-28.86-2.73-53.24-.65-58.27A112.6,112.6,0,0,1,311.09,397.52Z" />
        <path d="M293.41,417s-6.46,31.73-7.09,50.59,1.7,29.21,1.7,29.21h12.59s-7.33-23.06-7.65-48.43S293.41,417,293.41,417Z" />
        <path d="M302.14,302.7S272,370,251.72,390.45s-21.14,20.1-21.14,20.1,5.18.54,6,3.43a15.78,15.78,0,0,1,.82,4.52s12.7-12.58,20.37-23.61,30-47.68,34.85-57.93,12.79-30.47,12.79-30.47Z" />
        <path d="M306.18,311.25s9.63,2,11,7.07,1.86,12.22-2,22.15-5.57,15.4-8.91,25.62-6.82,19.33-7.56,24.48-1.65-12.37-.14-17.94c2-6.68,8.36-19,11.11-26.65s7.31-19.33,4.81-25.41S306.15,312.46,306.18,311.25Z" />
      </g>
      <path class="GUNDAN_GOAT_OUTFIT_GUNDAN_GOAT_OUTFIT_9_cls-9" d="M209.36,362.47s25.33-15.26,50-3.31" />
      <path class="GUNDAN_GOAT_OUTFIT_GUNDAN_GOAT_OUTFIT_9_cls-9" d="M201.67,356.44s30.59-18.69,62.27-4.48" />
    </g>
  </g>
</svg>