<svg xmlns="http://www.w3.org/2000/svg" viewBox="0 0 432 432">
  <defs>
    <style>.BUNTAI_OWL_JEWELRY_BUNTAI_OWL_JEWELRY_16_a{fill:#c7a858;}.BUNTAI_OWL_JEWELRY_BUNTAI_OWL_JEWELRY_16_b{fill:#fff;}.BUNTAI_OWL_JEWELRY_BUNTAI_OWL_JEWELRY_16_c,.BUNTAI_OWL_JEWELRY_BUNTAI_OWL_JEWELRY_16_f{fill:none;stroke-linecap:round;stroke-linejoin:round;}.BUNTAI_OWL_JEWELRY_BUNTAI_OWL_JEWELRY_16_c,.BUNTAI_OWL_JEWELRY_BUNTAI_OWL_JEWELRY_16_d,.BUNTAI_OWL_JEWELRY_BUNTAI_OWL_JEWELRY_16_f{stroke:#000;}.BUNTAI_OWL_JEWELRY_BUNTAI_OWL_JEWELRY_16_c{stroke-width:0.92px;}.BUNTAI_OWL_JEWELRY_BUNTAI_OWL_JEWELRY_16_d{fill:#754c24;stroke-miterlimit:10;stroke-width:1.28px;}.BUNTAI_OWL_JEWELRY_BUNTAI_OWL_JEWELRY_16_e{fill:#333;}.BUNTAI_OWL_JEWELRY_BUNTAI_OWL_JEWELRY_16_f{stroke-width:0.82px;}</style>
  </defs>
  <path class="BUNTAI_OWL_JEWELRY_BUNTAI_OWL_JEWELRY_16_a" d="M245.07,388.36a15.75,15.75,0,0,0-9.87-14.61,15.57,15.57,0,0,0-5.89-1.15,15.76,15.76,0,1,0,15.76,15.76Zm-15.76-17.61a17.61,17.61,0,1,1-17.6,17.61A17.61,17.61,0,0,1,229.31,370.75Z" />
  <path class="BUNTAI_OWL_JEWELRY_BUNTAI_OWL_JEWELRY_16_b" d="M235.2,373.75a15.76,15.76,0,0,1-10.59,29.66c-5.65-8.08,3.26-12.77,9.47-16.91S235.2,373.75,235.2,373.75Zm-3.06,23.9a2.83,2.83,0,1,0-2.83,2.83A2.83,2.83,0,0,0,232.14,397.65Z" />
  <path d="M235.2,373.75s5.1,8.6-1.12,12.75-15.12,8.83-9.47,16.91a15.76,15.76,0,0,1,4.7-30.81A15.57,15.57,0,0,1,235.2,373.75Zm-3.06,7.32a2.83,2.83,0,1,0-2.83,2.83A2.83,2.83,0,0,0,232.14,381.07Z" />
  <path class="BUNTAI_OWL_JEWELRY_BUNTAI_OWL_JEWELRY_16_b" d="M232.14,381.07a2.83,2.83,0,1,1-2.83-2.83A2.84,2.84,0,0,1,232.14,381.07Z" />
  <path class="BUNTAI_OWL_JEWELRY_BUNTAI_OWL_JEWELRY_16_c" d="M235.2,373.75a15.74,15.74,0,1,1-5.89-1.15A15.57,15.57,0,0,1,235.2,373.75Z" />
  <path class="BUNTAI_OWL_JEWELRY_BUNTAI_OWL_JEWELRY_16_c" d="M232.14,381.07a2.83,2.83,0,1,1-2.83-2.83A2.84,2.84,0,0,1,232.14,381.07Z" />
  <path class="BUNTAI_OWL_JEWELRY_BUNTAI_OWL_JEWELRY_16_c" d="M232.14,397.65a2.83,2.83,0,1,1-2.83-2.82A2.83,2.83,0,0,1,232.14,397.65Z" />
  <path class="BUNTAI_OWL_JEWELRY_BUNTAI_OWL_JEWELRY_16_c" d="M246.91,388.36a17.6,17.6,0,1,1-17.6-17.61A17.61,17.61,0,0,1,246.91,388.36Z" />
  <path class="BUNTAI_OWL_JEWELRY_BUNTAI_OWL_JEWELRY_16_c" d="M235.2,373.75s5.1,8.6-1.12,12.75-15.12,8.83-9.47,16.91" />
  <path d="M232.14,397.65a2.83,2.83,0,1,1-2.83-2.82A2.83,2.83,0,0,1,232.14,397.65Z" />
  <path class="BUNTAI_OWL_JEWELRY_BUNTAI_OWL_JEWELRY_16_d" d="M312.16,312.36c-2.94-2.1-5,.84-5,.84l1.86,1.42c-7,17.09-31.69,39-80.32,53.47-51.42-14.49-77.44-50.4-81.54-56.48l2-1.68s-1.42-2.56-5.15-.3c-1,.92-.65,3.09-.11,4l.53.82h0S174.64,357,228.19,371.9a1.7,1.7,0,0,0,.51.07,2,2,0,0,0,.54-.07c51.5-15.24,77.2-39,83.82-57.2A2.29,2.29,0,0,0,312.16,312.36Z" />
  <path class="BUNTAI_OWL_JEWELRY_BUNTAI_OWL_JEWELRY_16_e" d="M225.75,367.28l2.33.63s2.42-1.35,3.42.55.53,3.25-.76,3.84-3.21.08-3.57-1a5,5,0,0,0-2.25-.5s.94,3.56,4.05,3.87a4.55,4.55,0,0,0,5.32-4.13,4.35,4.35,0,0,0-2.5-4.58A4.76,4.76,0,0,0,225.75,367.28Z" />
  <path class="BUNTAI_OWL_JEWELRY_BUNTAI_OWL_JEWELRY_16_f" d="M224.81,370.71a4.7,4.7,0,0,0,4.24,4.11l.47,0a4.78,4.78,0,0,0,3.18-1.2,4.62,4.62,0,0,0,1.57-3.26,1.06,1.06,0,0,0,0-.25,4.64,4.64,0,0,0-1.08-3,4.81,4.81,0,0,0-3.69-1.72,4.76,4.76,0,0,0-3.87,2L228,368a2.61,2.61,0,0,1,1.51-.48,2.6,2.6,0,0,1,2.61,2.58,2.46,2.46,0,0,1-.28,1.14,2.62,2.62,0,0,1-4.62.08h0Z" />
</svg>