<svg xmlns="http://www.w3.org/2000/svg" viewBox="0 0 432 432">
  <defs>
    <style>.BUNTAI_OWL_JEWELRY_BUNTAI_OWL_JEWELRY_2_a{fill:#754c24;stroke-width:1.14px;}.BUNTAI_OWL_JEWELRY_BUNTAI_OWL_JEWELRY_2_a,.BUNTAI_OWL_JEWELRY_BUNTAI_OWL_JEWELRY_2_f,.BUNTAI_OWL_JEWELRY_BUNTAI_OWL_JEWELRY_2_g,.BUNTAI_OWL_JEWELRY_BUNTAI_OWL_JEWELRY_2_k{stroke:#000;}.BUNTAI_OWL_JEWELRY_BUNTAI_OWL_JEWELRY_2_a,.BUNTAI_OWL_JEWELRY_BUNTAI_OWL_JEWELRY_2_g{stroke-miterlimit:10;}.BUNTAI_OWL_JEWELRY_BUNTAI_OWL_JEWELRY_2_b{fill:#4d4d4d;}.BUNTAI_OWL_JEWELRY_BUNTAI_OWL_JEWELRY_2_c{fill:#333;}.BUNTAI_OWL_JEWELRY_BUNTAI_OWL_JEWELRY_2_d{fill:#8c6239;}.BUNTAI_OWL_JEWELRY_BUNTAI_OWL_JEWELRY_2_e{fill:#006837;}.BUNTAI_OWL_JEWELRY_BUNTAI_OWL_JEWELRY_2_f,.BUNTAI_OWL_JEWELRY_BUNTAI_OWL_JEWELRY_2_g,.BUNTAI_OWL_JEWELRY_BUNTAI_OWL_JEWELRY_2_k{fill:none;}.BUNTAI_OWL_JEWELRY_BUNTAI_OWL_JEWELRY_2_f,.BUNTAI_OWL_JEWELRY_BUNTAI_OWL_JEWELRY_2_k{stroke-linecap:round;stroke-linejoin:round;}.BUNTAI_OWL_JEWELRY_BUNTAI_OWL_JEWELRY_2_f,.BUNTAI_OWL_JEWELRY_BUNTAI_OWL_JEWELRY_2_g{stroke-width:0.59px;}.BUNTAI_OWL_JEWELRY_BUNTAI_OWL_JEWELRY_2_h{fill:#7367ff;}.BUNTAI_OWL_JEWELRY_BUNTAI_OWL_JEWELRY_2_i{fill:#ff5e63;}.BUNTAI_OWL_JEWELRY_BUNTAI_OWL_JEWELRY_2_j{fill:#fff;}.BUNTAI_OWL_JEWELRY_BUNTAI_OWL_JEWELRY_2_k{stroke-width:1.39px;}.BUNTAI_OWL_JEWELRY_BUNTAI_OWL_JEWELRY_2_l{fill:#c7a858;}</style>
  </defs>
  <path class="BUNTAI_OWL_JEWELRY_BUNTAI_OWL_JEWELRY_2_a" d="M302,297.49a3.13,3.13,0,0,0-4.46.74l1.33,2.23c-6.21,15.17-27.81,33.62-71,46.5-45.64-12.86-67.79-42.86-71.43-48.25l1.44-2.93s-1.14-2.17-4.45-.17a2.61,2.61,0,0,0-.81,3s.18.3.47.72h0s26.82,37.79,74.34,51a1.76,1.76,0,0,0,.46.06,1.59,1.59,0,0,0,.48-.07c45.71-13.52,68.52-34.66,74.4-50.77A2.06,2.06,0,0,0,302,297.49Z" />
  <path class="BUNTAI_OWL_JEWELRY_BUNTAI_OWL_JEWELRY_2_b" d="M234.35,369.47c1.66,1.49,2.92,8.81-3.57,9.74s-9.85-6.13-6.05-12.14c3.68-5.82,10.81-3.19,11.25-3a8.66,8.66,0,0,0-10.13,3.88c-4.25,6.56,4,10.92,6.29,7.56s-.57-6.81-4.33-7.27C229.71,367,232.7,368,234.35,369.47Z" />
  <path class="BUNTAI_OWL_JEWELRY_BUNTAI_OWL_JEWELRY_2_c" d="M241.74,371.71c-.45-5.1-7.81-10.38-13.93-3.49,1.9-1.2,4.89-.25,6.54,1.25s2.92,8.81-3.57,9.74-9.85-6.13-6.05-12.14c3.68-5.82,10.81-3.19,11.25-3h0a10.65,10.65,0,0,1,3,1.3s-.73-6.08-9.72-6.71q-.74-.06-1.56-.06h-.54c-10.05.4-13.87,11.75-11,18.88s11.32,9.88,17.41,7.89S242.19,376.82,241.74,371.71Z" />
  <path class="BUNTAI_OWL_JEWELRY_BUNTAI_OWL_JEWELRY_2_d" d="M229.28,352.51v6.14q-.74-.06-1.56-.06h-.54v-6.09a1.21,1.21,0,0,1,0-.19,3,3,0,0,0,1,.19,2.94,2.94,0,0,0,1-.19A1.23,1.23,0,0,1,229.28,352.51Z" />
  <path class="BUNTAI_OWL_JEWELRY_BUNTAI_OWL_JEWELRY_2_e" d="M228.23,346.47a3,3,0,0,1,1,5.85,2.94,2.94,0,0,1-1,.19,3,3,0,0,1,0-6Z" />
  <path class="BUNTAI_OWL_JEWELRY_BUNTAI_OWL_JEWELRY_2_f" d="M236,364.06a10.65,10.65,0,0,1,3,1.3s-.73-6.08-9.72-6.71q-.74-.06-1.56-.06h-.54c-10.05.4-13.87,11.75-11,18.88s11.32,9.88,17.41,7.89,8.58-8.55,8.13-13.66-7.81-10.38-13.93-3.49c3.76.46,6.66,3.9,4.33,7.27s-10.54-1-6.29-7.56A8.66,8.66,0,0,1,236,364.05" />
  <path class="BUNTAI_OWL_JEWELRY_BUNTAI_OWL_JEWELRY_2_f" d="M237,363.18h0" />
  <path class="BUNTAI_OWL_JEWELRY_BUNTAI_OWL_JEWELRY_2_f" d="M230.78,359.83a8.42,8.42,0,0,1,.13,2.62,19,19,0,0,1,6.1.73A8.7,8.7,0,0,0,230.78,359.83Z" />
  <path class="BUNTAI_OWL_JEWELRY_BUNTAI_OWL_JEWELRY_2_f" d="M225.78,360.17s-4.51,2.1-5.61,4.69a13.4,13.4,0,0,1,3.49,1.95l1.72-2.2a18.49,18.49,0,0,0-2.41-1.68l-.86,1.08a6.29,6.29,0,0,1,1.61.93" />
  <path class="BUNTAI_OWL_JEWELRY_BUNTAI_OWL_JEWELRY_2_f" d="M219.43,371l1.35.16v3.08H218.1s.08-4.2.47-5.08a23.51,23.51,0,0,1,3.6.52s-.31,5.25,0,6.39c-3.68,1.22-5,.42-5,.42s-1.06-6,1.13-9.7a15.45,15.45,0,0,1,4.78,1.69" />
  <path class="BUNTAI_OWL_JEWELRY_BUNTAI_OWL_JEWELRY_2_f" d="M236,364.06h0c-.44-.17-7.57-2.8-11.25,3-3.8,6-.43,13.08,6.05,12.14s5.23-8.25,3.57-9.74-4.64-2.45-6.54-1.25" />
  <path class="BUNTAI_OWL_JEWELRY_BUNTAI_OWL_JEWELRY_2_f" d="M222.56,376.77a10.78,10.78,0,0,1-4.2,2c4.81,4.6,8.85,5.25,8.85,5.25l1.69-3.23s-4-1.37-5.27-2.86c-1.53,1-1.75,1.46-1.75,1.46a21.55,21.55,0,0,0,3.68,2.55c.76-.84.76-1.06.76-1.06" />
  <path class="BUNTAI_OWL_JEWELRY_BUNTAI_OWL_JEWELRY_2_f" d="M230,380.39a35.8,35.8,0,0,1-.58,3.75,7.53,7.53,0,0,0,5.67-1.87,10,10,0,0,0-1-2.32A38.63,38.63,0,0,1,230,380.39Z" />
  <path class="BUNTAI_OWL_JEWELRY_BUNTAI_OWL_JEWELRY_2_f" d="M236.61,370.17a8,8,0,0,0-4.23-2.8,6.52,6.52,0,0,1,5.46.38A11.89,11.89,0,0,0,236.61,370.17Z" />
  <path class="BUNTAI_OWL_JEWELRY_BUNTAI_OWL_JEWELRY_2_f" d="M239.35,369.18s-2.18,1.56-2.7,3.23A11.58,11.58,0,0,1,236,377a6.76,6.76,0,0,1-.88,1.42,12.42,12.42,0,0,1,2.12,2.71s4.11-3,2.91-9.52a4.18,4.18,0,0,0-2.4.76s-.21,3.7-.87,4.83l-.06.1a8.42,8.42,0,0,0,1.28.84" />
  <path class="BUNTAI_OWL_JEWELRY_BUNTAI_OWL_JEWELRY_2_f" d="M227.19,352.32a3,3,0,1,1,2.07,0,2.94,2.94,0,0,1-1,.19A3,3,0,0,1,227.19,352.32Z" />
  <path class="BUNTAI_OWL_JEWELRY_BUNTAI_OWL_JEWELRY_2_g" d="M227.18,358.6h0v-6.09a1.21,1.21,0,0,1,0-.19" />
  <path class="BUNTAI_OWL_JEWELRY_BUNTAI_OWL_JEWELRY_2_g" d="M229.26,352.32a1.23,1.23,0,0,1,0,.19v6.14" />
  <path class="BUNTAI_OWL_JEWELRY_BUNTAI_OWL_JEWELRY_2_h" d="M134.17,207.86,135.64,253H117.76a29.64,29.64,0,0,1,16.4-45.18Z" />
  <circle class="BUNTAI_OWL_JEWELRY_BUNTAI_OWL_JEWELRY_2_i" cx="121.01" cy="195.28" r="6.39" />
  <path class="BUNTAI_OWL_JEWELRY_BUNTAI_OWL_JEWELRY_2_j" d="M122.88,175.91h0a1.67,1.67,0,0,0-3.34,0h0a1.67,1.67,0,1,0,3.34,0Zm1.85,0h8.39l1,32A29.64,29.64,0,0,0,117.76,253h-11l2.51-77.14h8.41a3.52,3.52,0,0,1,7,0Zm2.68,19.38a6.4,6.4,0,1,0-6.4,6.39A6.41,6.41,0,0,0,127.41,195.28Z" />
  <polyline class="BUNTAI_OWL_JEWELRY_BUNTAI_OWL_JEWELRY_2_k" points="121.21 158.4 121.21 172.39 121.21 174.24 121.21 175.91" />
  <path class="BUNTAI_OWL_JEWELRY_BUNTAI_OWL_JEWELRY_2_k" d="M134.16,207.86l-1-32h-8.39a3.52,3.52,0,0,0-7,0h-8.41L106.77,253h11" />
  <path class="BUNTAI_OWL_JEWELRY_BUNTAI_OWL_JEWELRY_2_k" d="M119.54,175.9a1.67,1.67,0,0,1,3.34,0" />
  <path class="BUNTAI_OWL_JEWELRY_BUNTAI_OWL_JEWELRY_2_k" d="M119.54,175.9h0a1.67,1.67,0,1,0,3.34,0h0" />
  <path class="BUNTAI_OWL_JEWELRY_BUNTAI_OWL_JEWELRY_2_k" d="M134.16,207.86h0L135.64,253H117.76a29.64,29.64,0,0,1,16.4-45.18Z" />
  <circle class="BUNTAI_OWL_JEWELRY_BUNTAI_OWL_JEWELRY_2_k" cx="121.01" cy="195.28" r="6.39" />
  <path class="BUNTAI_OWL_JEWELRY_BUNTAI_OWL_JEWELRY_2_l" d="M121.08,158.61c-2.69,0-2.25-3.66-2.25-3.66h0a7.23,7.23,0,0,0,3.3.7,3,3,0,0,0,1.47-.37C123.61,155.49,123.66,158.61,121.08,158.61Z" />
  <path class="BUNTAI_OWL_JEWELRY_BUNTAI_OWL_JEWELRY_2_l" d="M125.69,144.18c1,3.27.78,9.52-2.09,11.09a3,3,0,0,1-1.47.37,7.23,7.23,0,0,1-3.3-.7c-2.46-1.19-3.7-4-3.53-8.2a13.69,13.69,0,0,1,.76-4.12,8.74,8.74,0,0,1,2.39-3.72,3,3,0,0,1,2.2-.91,3.7,3.7,0,0,1,2.66,1.57,5.13,5.13,0,0,1-1.18.22h-.07a6.81,6.81,0,0,0-3,4.63c-.76,3.59.5,7.62,2.31,7.62,2,0,2-4.68,1.92-7.17l.15,0A8.6,8.6,0,0,0,125.69,144.18Z" />
  <path class="BUNTAI_OWL_JEWELRY_BUNTAI_OWL_JEWELRY_2_l" d="M117.71,126.68c.34,3.47,1,4.53,1,4.53s-3.28,2.85-1.4,6.36a3.7,3.7,0,0,0,1.18,1.33,8.74,8.74,0,0,0-2.39,3.72C111.7,138.77,110.54,131.1,117.71,126.68Z" />
  <path class="BUNTAI_OWL_JEWELRY_BUNTAI_OWL_JEWELRY_2_l" d="M130,138.38a7.74,7.74,0,0,1-4.3,5.8,9.18,9.18,0,0,1-2.24.68l-.16,0a8.25,8.25,0,0,1-4.23-.45,6.78,6.78,0,0,1,3-4.63h.07a6,6,0,0,0,1.19-.23,3.5,3.5,0,0,0,2.49-2.17,3.07,3.07,0,0,0,.14-.93c0-3.81-1.5-4-1.5-4s-.08-.21-.18-.52a4.92,4.92,0,0,1,3.81-3.21A13,13,0,0,1,130,138.38Z" />
  <path class="BUNTAI_OWL_JEWELRY_BUNTAI_OWL_JEWELRY_2_k" d="M116.06,142.62c-4.36-3.85-5.52-11.52,1.65-15.94.66,2.72,1,4.53,1,4.53s-3.28,2.85-1.4,6.36a3.7,3.7,0,0,0,1.18,1.33" />
  <path class="BUNTAI_OWL_JEWELRY_BUNTAI_OWL_JEWELRY_2_k" d="M119.06,144.43a8.25,8.25,0,0,0,4.23.45l.16,0a9.18,9.18,0,0,0,2.24-.68,7.74,7.74,0,0,0,4.3-5.8,13,13,0,0,0-1.91-9.64" />
  <path class="BUNTAI_OWL_JEWELRY_BUNTAI_OWL_JEWELRY_2_k" d="M124.27,132c.1.31.18.52.18.52s1.45.18,1.5,4a3.07,3.07,0,0,1-.14.93,3.5,3.5,0,0,1-2.49,2.17,6,6,0,0,1-1.19.23" />
  <path class="BUNTAI_OWL_JEWELRY_BUNTAI_OWL_JEWELRY_2_k" d="M125.69,144.18c1,3.27.78,9.52-2.09,11.09a3,3,0,0,1-1.47.37,7.23,7.23,0,0,1-3.3-.7c-2.46-1.19-3.7-4-3.53-8.2a13.69,13.69,0,0,1,.76-4.12,8.74,8.74,0,0,1,2.39-3.72,3,3,0,0,1,2.2-.91,3.7,3.7,0,0,1,2.66,1.57" />
  <path class="BUNTAI_OWL_JEWELRY_BUNTAI_OWL_JEWELRY_2_k" d="M123.29,144.88c.13,2.49.1,7.17-1.92,7.17-1.81,0-3.07-4-2.31-7.62a6.81,6.81,0,0,1,3-4.63h.07" />
  <path class="BUNTAI_OWL_JEWELRY_BUNTAI_OWL_JEWELRY_2_k" d="M118.83,155s-.44,3.66,2.25,3.66,2.53-3.12,2.52-3.34h0" />
  <path class="BUNTAI_OWL_JEWELRY_BUNTAI_OWL_JEWELRY_2_k" d="M124.55,135.87a4.92,4.92,0,0,1,3.53-7.13,4.61,4.61,0,0,1,.84-.07,3.34,3.34,0,0,1,3.32,2.47" />
  <path class="BUNTAI_OWL_JEWELRY_BUNTAI_OWL_JEWELRY_2_h" d="M325.3,207.86,323.84,253h17.87a29.64,29.64,0,0,0-16.4-45.18Z" />
  <circle class="BUNTAI_OWL_JEWELRY_BUNTAI_OWL_JEWELRY_2_i" cx="338.46" cy="195.28" r="6.39" />
  <path class="BUNTAI_OWL_JEWELRY_BUNTAI_OWL_JEWELRY_2_j" d="M338.26,177.59a1.68,1.68,0,0,0,1.67-1.68h0a1.67,1.67,0,0,0-3.34,0h0A1.67,1.67,0,0,0,338.26,177.59Zm0-5.2a3.52,3.52,0,0,1,3.52,3.51h8.41L352.7,253h-11a29.64,29.64,0,0,0-16.4-45.18l1-32h8.39A3.52,3.52,0,0,1,338.26,172.39Zm.2,29.28a6.4,6.4,0,1,0-6.4-6.39A6.39,6.39,0,0,0,338.46,201.67Z" />
  <polyline class="BUNTAI_OWL_JEWELRY_BUNTAI_OWL_JEWELRY_2_k" points="338.26 158.4 338.26 172.39 338.26 174.24 338.26 175.91" />
  <path class="BUNTAI_OWL_JEWELRY_BUNTAI_OWL_JEWELRY_2_k" d="M325.31,207.86l1-32h8.39a3.52,3.52,0,0,1,7,0h8.41L352.7,253h-11" />
  <path class="BUNTAI_OWL_JEWELRY_BUNTAI_OWL_JEWELRY_2_k" d="M339.93,175.9a1.67,1.67,0,0,0-3.34,0" />
  <path class="BUNTAI_OWL_JEWELRY_BUNTAI_OWL_JEWELRY_2_k" d="M339.93,175.9h0a1.67,1.67,0,1,1-3.34,0h0" />
  <path class="BUNTAI_OWL_JEWELRY_BUNTAI_OWL_JEWELRY_2_k" d="M325.31,207.86h0L323.84,253h17.87a29.64,29.64,0,0,0-16.4-45.18Z" />
  <circle class="BUNTAI_OWL_JEWELRY_BUNTAI_OWL_JEWELRY_2_k" cx="338.46" cy="195.28" r="6.39" />
  <path class="BUNTAI_OWL_JEWELRY_BUNTAI_OWL_JEWELRY_2_l" d="M338.39,158.61c2.69,0,2.25-3.66,2.25-3.66h0a7.23,7.23,0,0,1-3.3.7,3,3,0,0,1-1.47-.37C335.86,155.49,335.81,158.61,338.39,158.61Z" />
  <path class="BUNTAI_OWL_JEWELRY_BUNTAI_OWL_JEWELRY_2_l" d="M333.78,144.18c-1,3.27-.77,9.52,2.09,11.09a3,3,0,0,0,1.47.37,7.23,7.23,0,0,0,3.3-.7c2.46-1.19,3.7-4,3.53-8.2a13.38,13.38,0,0,0-.76-4.12A8.74,8.74,0,0,0,341,138.9a3,3,0,0,0-2.19-.91,3.71,3.71,0,0,0-2.67,1.57,5.13,5.13,0,0,0,1.18.22h.07a6.78,6.78,0,0,1,3,4.63c.76,3.59-.5,7.62-2.31,7.62-2,0-2.05-4.68-1.92-7.17l-.15,0A8.72,8.72,0,0,1,333.78,144.18Z" />
  <path class="BUNTAI_OWL_JEWELRY_BUNTAI_OWL_JEWELRY_2_l" d="M341.76,126.68c-.33,3.47-1,4.53-1,4.53s3.28,2.85,1.4,6.36A3.7,3.7,0,0,1,341,138.9a8.74,8.74,0,0,1,2.39,3.72C347.77,138.77,348.93,131.1,341.76,126.68Z" />
  <path class="BUNTAI_OWL_JEWELRY_BUNTAI_OWL_JEWELRY_2_l" d="M329.48,138.38a7.74,7.74,0,0,0,4.3,5.8,9.18,9.18,0,0,0,2.24.68l.16,0a8.23,8.23,0,0,0,4.23-.45,6.75,6.75,0,0,0-3-4.63h-.07a5.73,5.73,0,0,1-1.18-.23,3.5,3.5,0,0,1-2.5-2.17,3.07,3.07,0,0,1-.14-.93c.05-3.81,1.5-4,1.5-4s.08-.21.18-.52a4.92,4.92,0,0,0-3.81-3.21A13,13,0,0,0,329.48,138.38Z" />
  <path class="BUNTAI_OWL_JEWELRY_BUNTAI_OWL_JEWELRY_2_k" d="M343.41,142.62c4.36-3.85,5.52-11.52-1.65-15.94-.66,2.72-1,4.53-1,4.53s3.28,2.85,1.4,6.36A3.7,3.7,0,0,1,341,138.9" />
  <path class="BUNTAI_OWL_JEWELRY_BUNTAI_OWL_JEWELRY_2_k" d="M340.41,144.43a8.23,8.23,0,0,1-4.23.45l-.16,0a9.18,9.18,0,0,1-2.24-.68,7.74,7.74,0,0,1-4.3-5.8,13,13,0,0,1,1.91-9.64" />
  <path class="BUNTAI_OWL_JEWELRY_BUNTAI_OWL_JEWELRY_2_k" d="M335.2,132c-.1.31-.18.52-.18.52s-1.45.18-1.5,4a3.07,3.07,0,0,0,.14.93,3.5,3.5,0,0,0,2.5,2.17,5.73,5.73,0,0,0,1.18.23" />
  <path class="BUNTAI_OWL_JEWELRY_BUNTAI_OWL_JEWELRY_2_k" d="M333.78,144.18c-1,3.27-.77,9.52,2.09,11.09a3,3,0,0,0,1.47.37,7.23,7.23,0,0,0,3.3-.7c2.46-1.19,3.7-4,3.53-8.2a13.38,13.38,0,0,0-.76-4.12A8.74,8.74,0,0,0,341,138.9a3,3,0,0,0-2.19-.91,3.71,3.71,0,0,0-2.67,1.57" />
  <path class="BUNTAI_OWL_JEWELRY_BUNTAI_OWL_JEWELRY_2_k" d="M336.18,144.88c-.13,2.49-.1,7.17,1.92,7.17,1.81,0,3.07-4,2.31-7.62a6.78,6.78,0,0,0-3-4.63h-.07" />
  <path class="BUNTAI_OWL_JEWELRY_BUNTAI_OWL_JEWELRY_2_k" d="M340.64,155s.44,3.66-2.25,3.66-2.53-3.12-2.52-3.34h0" />
  <path class="BUNTAI_OWL_JEWELRY_BUNTAI_OWL_JEWELRY_2_k" d="M334.92,135.87a4.92,4.92,0,0,0-3.53-7.13,4.61,4.61,0,0,0-.84-.07,3.34,3.34,0,0,0-3.32,2.47" />
</svg>