<svg xmlns="http://www.w3.org/2000/svg" viewBox="0 0 432 432">
  <defs>
    <style>.BUNTAI_OWL_JEWELRY_BUNTAI_OWL_JEWELRY_24_a{fill:#c7a858;}.BUNTAI_OWL_JEWELRY_BUNTAI_OWL_JEWELRY_24_b{fill:#fff;}.BUNTAI_OWL_JEWELRY_BUNTAI_OWL_JEWELRY_24_c{fill:#c74c58;}.BUNTAI_OWL_JEWELRY_BUNTAI_OWL_JEWELRY_24_d,.BUNTAI_OWL_JEWELRY_BUNTAI_OWL_JEWELRY_24_e,.BUNTAI_OWL_JEWELRY_BUNTAI_OWL_JEWELRY_24_f,.BUNTAI_OWL_JEWELRY_BUNTAI_OWL_JEWELRY_24_i{fill:none;}.BUNTAI_OWL_JEWELRY_BUNTAI_OWL_JEWELRY_24_d,.BUNTAI_OWL_JEWELRY_BUNTAI_OWL_JEWELRY_24_e,.BUNTAI_OWL_JEWELRY_BUNTAI_OWL_JEWELRY_24_f,.BUNTAI_OWL_JEWELRY_BUNTAI_OWL_JEWELRY_24_g,.BUNTAI_OWL_JEWELRY_BUNTAI_OWL_JEWELRY_24_i{stroke:#000;}.BUNTAI_OWL_JEWELRY_BUNTAI_OWL_JEWELRY_24_d,.BUNTAI_OWL_JEWELRY_BUNTAI_OWL_JEWELRY_24_f,.BUNTAI_OWL_JEWELRY_BUNTAI_OWL_JEWELRY_24_i{stroke-linecap:round;stroke-linejoin:round;}.BUNTAI_OWL_JEWELRY_BUNTAI_OWL_JEWELRY_24_d,.BUNTAI_OWL_JEWELRY_BUNTAI_OWL_JEWELRY_24_e{stroke-width:1.53px;}.BUNTAI_OWL_JEWELRY_BUNTAI_OWL_JEWELRY_24_e,.BUNTAI_OWL_JEWELRY_BUNTAI_OWL_JEWELRY_24_g{stroke-miterlimit:10;}.BUNTAI_OWL_JEWELRY_BUNTAI_OWL_JEWELRY_24_f{stroke-width:0.78px;}.BUNTAI_OWL_JEWELRY_BUNTAI_OWL_JEWELRY_24_g{fill:#754c24;stroke-width:1.08px;}.BUNTAI_OWL_JEWELRY_BUNTAI_OWL_JEWELRY_24_h{fill:#333;}.BUNTAI_OWL_JEWELRY_BUNTAI_OWL_JEWELRY_24_i{stroke-width:0.7px;}</style>
  </defs>
  <path class="BUNTAI_OWL_JEWELRY_BUNTAI_OWL_JEWELRY_24_a" d="M134,177.15a1.5,1.5,0,0,1,0,3h-8.16v-.46a1.49,1.49,0,0,0,1.5-1.5v-1Z" />
  <polygon class="BUNTAI_OWL_JEWELRY_BUNTAI_OWL_JEWELRY_24_b" points="125.8 180.15 128.79 180.15 128.79 206.78 125.8 214.29 122.8 206.78 122.8 180.15 125.8 180.15" />
  <path class="BUNTAI_OWL_JEWELRY_BUNTAI_OWL_JEWELRY_24_c" d="M125.79,164.24a1.5,1.5,0,0,1,1.5,1.5v12.45a1.5,1.5,0,1,1-3,0V165.74A1.5,1.5,0,0,1,125.79,164.24Z" />
  <path class="BUNTAI_OWL_JEWELRY_BUNTAI_OWL_JEWELRY_24_a" d="M125.79,179.69v.46h-8.15a1.5,1.5,0,0,1,0-3h6.66v1A1.5,1.5,0,0,0,125.79,179.69Z" />
  <line class="BUNTAI_OWL_JEWELRY_BUNTAI_OWL_JEWELRY_24_d" x1="125.8" y1="164.25" x2="125.8" y2="155.27" />
  <path class="BUNTAI_OWL_JEWELRY_BUNTAI_OWL_JEWELRY_24_e" d="M125.79,179.69a1.5,1.5,0,0,1-1.49-1.5V165.74a1.5,1.5,0,1,1,3,0v12.45A1.49,1.49,0,0,1,125.79,179.69Z" />
  <polyline class="BUNTAI_OWL_JEWELRY_BUNTAI_OWL_JEWELRY_24_e" points="128.79 180.15 128.79 206.78 125.8 214.29 122.8 206.78 122.8 180.15" />
  <path class="BUNTAI_OWL_JEWELRY_BUNTAI_OWL_JEWELRY_24_e" d="M124.3,177.15h-6.66a1.5,1.5,0,0,0,0,3H134a1.5,1.5,0,0,0,0-3h-6.66" />
  <polyline class="BUNTAI_OWL_JEWELRY_BUNTAI_OWL_JEWELRY_24_e" points="125.8 179.69 125.8 180.15 125.8 206.18" />
  <path class="BUNTAI_OWL_JEWELRY_BUNTAI_OWL_JEWELRY_24_a" d="M125.79,155.27c-2.43,0-2-3.3-2-3.3h0a6.58,6.58,0,0,0,3,.63,2.76,2.76,0,0,0,1.33-.33C128.08,152.45,128.12,155.27,125.79,155.27Z" />
  <path class="BUNTAI_OWL_JEWELRY_BUNTAI_OWL_JEWELRY_24_a" d="M130,142.23c.89,3,.71,8.61-1.88,10a2.76,2.76,0,0,1-1.33.33,6.58,6.58,0,0,1-3-.63c-2.22-1.08-3.34-3.59-3.19-7.41a12.28,12.28,0,0,1,.68-3.73,7.92,7.92,0,0,1,2.17-3.36,2.77,2.77,0,0,1,2-.82,3.34,3.34,0,0,1,2.41,1.42,4.81,4.81,0,0,1-1.07.2h-.06a6.14,6.14,0,0,0-2.72,4.18c-.68,3.25.46,6.89,2.1,6.89,1.82,0,1.84-4.24,1.73-6.48l.14,0A8,8,0,0,0,130,142.23Z" />
  <path class="BUNTAI_OWL_JEWELRY_BUNTAI_OWL_JEWELRY_24_a" d="M122.74,126.42c.58,3,.87,4.09.87,4.09s-3,2.58-1.26,5.76a3.23,3.23,0,0,0,1.07,1.19,7.92,7.92,0,0,0-2.17,3.36C117.32,137.34,116.26,130.42,122.74,126.42Z" />
  <path class="BUNTAI_OWL_JEWELRY_BUNTAI_OWL_JEWELRY_24_a" d="M133.84,137a7,7,0,0,1-3.89,5.23,7.58,7.58,0,0,1-2,.62l-.14,0a7.47,7.47,0,0,1-3.83-.41,6.13,6.13,0,0,1,2.71-4.18h.07a5.48,5.48,0,0,0,1.07-.21,3.16,3.16,0,0,0,2.25-2,2.51,2.51,0,0,0,.13-.84c0-3.44-1.35-3.61-1.35-3.61a4.72,4.72,0,0,1-.17-.47,4.45,4.45,0,0,1,3.45-2.89A11.75,11.75,0,0,1,133.84,137Z" />
  <path class="BUNTAI_OWL_JEWELRY_BUNTAI_OWL_JEWELRY_24_d" d="M121.25,140.82c-3.93-3.48-5-10.4,1.49-14.4.6,2.46.87,4.09.87,4.09s-3,2.58-1.26,5.76a3.23,3.23,0,0,0,1.07,1.19" />
  <path class="BUNTAI_OWL_JEWELRY_BUNTAI_OWL_JEWELRY_24_d" d="M124,142.46a7.47,7.47,0,0,0,3.83.41l.14,0a7.58,7.58,0,0,0,2-.62,7,7,0,0,0,3.89-5.23,11.75,11.75,0,0,0-1.72-8.71" />
  <path class="BUNTAI_OWL_JEWELRY_BUNTAI_OWL_JEWELRY_24_d" d="M128.67,131.18a4.72,4.72,0,0,0,.17.47s1.31.17,1.35,3.61a2.51,2.51,0,0,1-.13.84,3.16,3.16,0,0,1-2.25,2,5.48,5.48,0,0,1-1.07.21" />
  <path class="BUNTAI_OWL_JEWELRY_BUNTAI_OWL_JEWELRY_24_d" d="M130,142.23c.89,3,.71,8.61-1.88,10a2.76,2.76,0,0,1-1.33.33,6.58,6.58,0,0,1-3-.63c-2.22-1.08-3.34-3.59-3.19-7.41a12.28,12.28,0,0,1,.68-3.73,7.92,7.92,0,0,1,2.17-3.36,2.77,2.77,0,0,1,2-.82,3.34,3.34,0,0,1,2.41,1.42" />
  <path class="BUNTAI_OWL_JEWELRY_BUNTAI_OWL_JEWELRY_24_d" d="M127.79,142.87c.11,2.24.09,6.48-1.73,6.48-1.64,0-2.78-3.64-2.1-6.89a6.14,6.14,0,0,1,2.72-4.18h.06" />
  <path class="BUNTAI_OWL_JEWELRY_BUNTAI_OWL_JEWELRY_24_d" d="M123.76,152s-.4,3.3,2,3.3,2.29-2.82,2.28-3h0" />
  <path class="BUNTAI_OWL_JEWELRY_BUNTAI_OWL_JEWELRY_24_d" d="M128.93,134.73a4.4,4.4,0,0,1-.51-2.07,4.51,4.51,0,0,1,.25-1.48,4.45,4.45,0,0,1,3.45-2.89,3.67,3.67,0,0,1,.75-.07,3,3,0,0,1,3,2.23" />
  <path class="BUNTAI_OWL_JEWELRY_BUNTAI_OWL_JEWELRY_24_a" d="M246.09,356.94a13.27,13.27,0,0,0-8.32-12.32,13.06,13.06,0,0,0-5-1,13.3,13.3,0,1,0,13.29,13.29ZM232.8,342.09A14.86,14.86,0,1,1,218,356.94,14.86,14.86,0,0,1,232.8,342.09Z" />
  <path class="BUNTAI_OWL_JEWELRY_BUNTAI_OWL_JEWELRY_24_b" d="M237.77,344.62a13.29,13.29,0,0,1-8.93,25c-4.77-6.82,2.75-10.77,8-14.27S237.77,344.62,237.77,344.62Zm-2.58,20.17a2.39,2.39,0,1,0-2.39,2.38A2.39,2.39,0,0,0,235.19,364.79Z" />
  <path d="M237.77,344.62s4.31,7.26-.94,10.75-12.76,7.45-8,14.27a13.3,13.3,0,0,1,4-26A13.06,13.06,0,0,1,237.77,344.62Zm-2.58,6.17a2.39,2.39,0,1,0-2.39,2.39A2.39,2.39,0,0,0,235.19,350.79Z" />
  <path class="BUNTAI_OWL_JEWELRY_BUNTAI_OWL_JEWELRY_24_b" d="M235.19,350.79a2.39,2.39,0,1,1-2.39-2.38A2.39,2.39,0,0,1,235.19,350.79Z" />
  <path class="BUNTAI_OWL_JEWELRY_BUNTAI_OWL_JEWELRY_24_f" d="M237.77,344.62a13.28,13.28,0,1,1-5-1A13.06,13.06,0,0,1,237.77,344.62Z" />
  <path class="BUNTAI_OWL_JEWELRY_BUNTAI_OWL_JEWELRY_24_f" d="M235.19,350.79a2.39,2.39,0,1,1-2.39-2.38A2.39,2.39,0,0,1,235.19,350.79Z" />
  <path class="BUNTAI_OWL_JEWELRY_BUNTAI_OWL_JEWELRY_24_f" d="M235.19,364.79a2.39,2.39,0,1,1-2.39-2.39A2.39,2.39,0,0,1,235.19,364.79Z" />
  <path class="BUNTAI_OWL_JEWELRY_BUNTAI_OWL_JEWELRY_24_f" d="M247.65,356.94a14.85,14.85,0,1,1-14.85-14.85A14.85,14.85,0,0,1,247.65,356.94Z" />
  <path class="BUNTAI_OWL_JEWELRY_BUNTAI_OWL_JEWELRY_24_f" d="M237.77,344.62s4.31,7.26-.94,10.75-12.76,7.45-8,14.27" />
  <path d="M235.19,364.79a2.39,2.39,0,1,1-2.39-2.39A2.39,2.39,0,0,1,235.19,364.79Z" />
  <path class="BUNTAI_OWL_JEWELRY_BUNTAI_OWL_JEWELRY_24_g" d="M302.69,292.84c-2.48-1.77-4,.1-4,.1l1.15,2.2c-5.91,14.42-26.57,32.47-67.59,44.71-43.37-12.22-65.08-42.16-68.53-47.29l.85-1.95s-.6-2-3.75-.08c-.87.78-.55,2.61-.09,3.37l.45.69h0s25.49,35.91,70.65,48.47a2.1,2.1,0,0,0,.43.05,1.76,1.76,0,0,0,.46-.06c43.45-12.85,65.12-32.94,70.71-48.25A1.94,1.94,0,0,0,302.69,292.84Z" />
  <path class="BUNTAI_OWL_JEWELRY_BUNTAI_OWL_JEWELRY_24_h" d="M229.8,339.17l2,.52s2-1.13,2.88.47.44,2.74-.64,3.24-2.71.07-3-.81a4.23,4.23,0,0,0-1.89-.42s.79,3,3.42,3.26A3.84,3.84,0,0,0,237,342a3.67,3.67,0,0,0-2.11-3.87A4,4,0,0,0,229.8,339.17Z" />
  <path class="BUNTAI_OWL_JEWELRY_BUNTAI_OWL_JEWELRY_24_i" d="M229,342.06a4,4,0,0,0,3.58,3.47l.4,0a4,4,0,0,0,2.68-1,3.9,3.9,0,0,0,1.33-2.75,1.55,1.55,0,0,0,0-.22,3.9,3.9,0,0,0-.91-2.51,4,4,0,0,0-6.37.22l2,.53a2.21,2.21,0,0,1,2.49-.05,2.15,2.15,0,0,1,1,1.81,2.11,2.11,0,0,1-.24,1,2.17,2.17,0,0,1-2,1.21,2.21,2.21,0,0,1-1.93-1.14h0Z" />
</svg>