<svg xmlns="http://www.w3.org/2000/svg" viewBox="0 0 432 432">
  <defs>
    <style>.BUNTAI_OWL_JEWELRY_BUNTAI_OWL_JEWELRY_25_a{fill:#39b54a;}.BUNTAI_OWL_JEWELRY_BUNTAI_OWL_JEWELRY_25_b{fill:#c7a858;}.BUNTAI_OWL_JEWELRY_BUNTAI_OWL_JEWELRY_25_c,.BUNTAI_OWL_JEWELRY_BUNTAI_OWL_JEWELRY_25_i,.BUNTAI_OWL_JEWELRY_BUNTAI_OWL_JEWELRY_25_j{fill:none;}.BUNTAI_OWL_JEWELRY_BUNTAI_OWL_JEWELRY_25_c,.BUNTAI_OWL_JEWELRY_BUNTAI_OWL_JEWELRY_25_d,.BUNTAI_OWL_JEWELRY_BUNTAI_OWL_JEWELRY_25_i,.BUNTAI_OWL_JEWELRY_BUNTAI_OWL_JEWELRY_25_j{stroke:#000;}.BUNTAI_OWL_JEWELRY_BUNTAI_OWL_JEWELRY_25_c,.BUNTAI_OWL_JEWELRY_BUNTAI_OWL_JEWELRY_25_i{stroke-linecap:round;stroke-linejoin:round;}.BUNTAI_OWL_JEWELRY_BUNTAI_OWL_JEWELRY_25_c{stroke-width:0.97px;}.BUNTAI_OWL_JEWELRY_BUNTAI_OWL_JEWELRY_25_d{fill:#754c24;stroke-width:1.17px;}.BUNTAI_OWL_JEWELRY_BUNTAI_OWL_JEWELRY_25_d,.BUNTAI_OWL_JEWELRY_BUNTAI_OWL_JEWELRY_25_j{stroke-miterlimit:10;}.BUNTAI_OWL_JEWELRY_BUNTAI_OWL_JEWELRY_25_e{fill:#4d4d4d;}.BUNTAI_OWL_JEWELRY_BUNTAI_OWL_JEWELRY_25_f{fill:#333;}.BUNTAI_OWL_JEWELRY_BUNTAI_OWL_JEWELRY_25_g{fill:#8c6239;}.BUNTAI_OWL_JEWELRY_BUNTAI_OWL_JEWELRY_25_h{fill:#006837;}.BUNTAI_OWL_JEWELRY_BUNTAI_OWL_JEWELRY_25_i,.BUNTAI_OWL_JEWELRY_BUNTAI_OWL_JEWELRY_25_j{stroke-width:0.61px;}</style>
  </defs>
  <path class="BUNTAI_OWL_JEWELRY_BUNTAI_OWL_JEWELRY_25_a" d="M126.29,177.41c0,5.08-2.57,9.21-5.74,9.21s-5.74-4.13-5.74-9.21,2.57-9.21,5.74-9.21S126.29,172.32,126.29,177.41Z" />
  <path class="BUNTAI_OWL_JEWELRY_BUNTAI_OWL_JEWELRY_25_b" d="M120.55,165.67c-4,0-7.32,5.25-7.32,11.74s3.28,11.74,7.32,11.74,7.32-5.25,7.32-11.74S124.6,165.67,120.55,165.67Zm0,20.94c-3.17,0-5.74-4.12-5.74-9.2s2.57-9.22,5.74-9.22,5.74,4.13,5.74,9.22S123.72,186.61,120.55,186.61Z" />
  <ellipse class="BUNTAI_OWL_JEWELRY_BUNTAI_OWL_JEWELRY_25_b" cx="120.55" cy="163.7" rx="3.06" ry="1.97" />
  <path class="BUNTAI_OWL_JEWELRY_BUNTAI_OWL_JEWELRY_25_b" d="M120.47,151.33c-2.16,0-1.81-2.94-1.81-2.94h0a5.92,5.92,0,0,0,2.65.55,2.37,2.37,0,0,0,1.18-.29C122.5,148.82,122.54,151.33,120.47,151.33Z" />
  <path class="BUNTAI_OWL_JEWELRY_BUNTAI_OWL_JEWELRY_25_b" d="M124.17,139.74c.79,2.63.63,7.65-1.68,8.91a2.37,2.37,0,0,1-1.18.29,5.92,5.92,0,0,1-2.65-.55c-2-1-3-3.2-2.84-6.6a11,11,0,0,1,.62-3.31,6.84,6.84,0,0,1,1.92-3,2.45,2.45,0,0,1,1.76-.74,3,3,0,0,1,2.14,1.27,4.84,4.84,0,0,1-1,.18h0a5.53,5.53,0,0,0-2.42,3.72c-.6,2.88.41,6.12,1.87,6.12,1.62,0,1.64-3.76,1.54-5.76l.12,0A7.17,7.17,0,0,0,124.17,139.74Z" />
  <path class="BUNTAI_OWL_JEWELRY_BUNTAI_OWL_JEWELRY_25_b" d="M118.66,125.56a8.82,8.82,0,0,1-.13,3.76s-2.63,2.28-1.12,5.11a3,3,0,0,0,1,1.07,6.84,6.84,0,0,0-1.92,3C112.94,135.39,112.65,128.11,118.66,125.56Z" />
  <path class="BUNTAI_OWL_JEWELRY_BUNTAI_OWL_JEWELRY_25_b" d="M127.63,135.08a6.25,6.25,0,0,1-3.46,4.66,6.89,6.89,0,0,1-1.8.54l-.12,0a6.63,6.63,0,0,1-3.41-.36,5.48,5.48,0,0,1,2.41-3.72h.06a5,5,0,0,0,1-.18,2.85,2.85,0,0,0,2-1.74,2.61,2.61,0,0,0,.11-.75c0-3.06-1.2-3.21-1.2-3.21s-.07-.17-.15-.42a4,4,0,0,1,3.06-2.57A10.42,10.42,0,0,1,127.63,135.08Z" />
  <path class="BUNTAI_OWL_JEWELRY_BUNTAI_OWL_JEWELRY_25_c" d="M116.44,138.48c-3.5-3.09-4-10.32,2.22-12.92a6.4,6.4,0,0,1-.13,3.76s-2.63,2.28-1.12,5.11a3,3,0,0,0,1,1.07" />
  <path class="BUNTAI_OWL_JEWELRY_BUNTAI_OWL_JEWELRY_25_c" d="M118.84,139.94a6.63,6.63,0,0,0,3.41.36l.12,0a6.89,6.89,0,0,0,1.8-.54,6.25,6.25,0,0,0,3.46-4.66,10.42,10.42,0,0,0-1.54-7.74" />
  <path class="BUNTAI_OWL_JEWELRY_BUNTAI_OWL_JEWELRY_25_c" d="M123,129.91c.08.25.15.42.15.42s1.16.15,1.2,3.21a2.61,2.61,0,0,1-.11.75,2.85,2.85,0,0,1-2,1.74,5,5,0,0,1-1,.18" />
  <path class="BUNTAI_OWL_JEWELRY_BUNTAI_OWL_JEWELRY_25_c" d="M124.17,139.74c.79,2.63.63,7.65-1.68,8.91a2.37,2.37,0,0,1-1.18.29,5.92,5.92,0,0,1-2.65-.55c-2-1-3-3.2-2.84-6.6a11,11,0,0,1,.62-3.31,6.84,6.84,0,0,1,1.92-3,2.45,2.45,0,0,1,1.76-.74,3,3,0,0,1,2.14,1.27" />
  <path class="BUNTAI_OWL_JEWELRY_BUNTAI_OWL_JEWELRY_25_c" d="M122.25,140.3c.1,2,.08,5.76-1.54,5.76-1.46,0-2.47-3.24-1.87-6.12a5.53,5.53,0,0,1,2.42-3.72h0" />
  <path class="BUNTAI_OWL_JEWELRY_BUNTAI_OWL_JEWELRY_25_c" d="M118.66,148.39s-.35,2.94,1.81,2.94,2-2.51,2-2.68h0" />
  <ellipse class="BUNTAI_OWL_JEWELRY_BUNTAI_OWL_JEWELRY_25_c" cx="120.55" cy="163.7" rx="3.06" ry="1.97" />
  <path class="BUNTAI_OWL_JEWELRY_BUNTAI_OWL_JEWELRY_25_c" d="M127.88,177.41c0,6.49-3.28,11.74-7.33,11.74s-7.32-5.25-7.32-11.74,3.28-11.75,7.32-11.75S127.88,170.92,127.88,177.41Z" />
  <path class="BUNTAI_OWL_JEWELRY_BUNTAI_OWL_JEWELRY_25_c" d="M126.29,177.41c0,5.08-2.57,9.21-5.74,9.21s-5.74-4.13-5.74-9.21,2.57-9.21,5.74-9.21S126.29,172.32,126.29,177.41Z" />
  <line class="BUNTAI_OWL_JEWELRY_BUNTAI_OWL_JEWELRY_25_c" x1="120.47" y1="151.33" x2="120.47" y2="161.73" />
  <path class="BUNTAI_OWL_JEWELRY_BUNTAI_OWL_JEWELRY_25_c" d="M121.06,170.15s3.45,1.27,3.3,7.82" />
  <path class="BUNTAI_OWL_JEWELRY_BUNTAI_OWL_JEWELRY_25_c" d="M123.26,133.06a3.91,3.91,0,0,1-.45-1.84,4.09,4.09,0,0,1,.22-1.31,4,4,0,0,1,3.06-2.57,3.71,3.71,0,0,1,.67-.06,2.69,2.69,0,0,1,2.68,2" />
  <path class="BUNTAI_OWL_JEWELRY_BUNTAI_OWL_JEWELRY_25_d" d="M303.74,300a3.27,3.27,0,0,0-4.63.76l1.39,2.27c-6.46,15.53-28.89,34.41-73.73,47.59-47.41-13.16-70.73-44.07-74.51-49.59l2.07-2.41s-1.44-2.6-4.88-.55a2.66,2.66,0,0,0-.85,3.07s.19.3.49.74h0S177,340.6,226.32,354.12a1.84,1.84,0,0,0,.47.06,1.66,1.66,0,0,0,.49-.07c47.49-13.84,71.19-35.47,77.29-51.95A2.07,2.07,0,0,0,303.74,300Z" />
  <path class="BUNTAI_OWL_JEWELRY_BUNTAI_OWL_JEWELRY_25_e" d="M233.5,373.69c1.71,1.53,3,9-3.71,10s-10.24-6.27-6.29-12.42c3.82-5.95,11.22-3.26,11.68-3.09a9.06,9.06,0,0,0-10.52,4c-4.42,6.71,4.11,11.17,6.53,7.73s-.59-7-4.5-7.43C228.67,371.19,231.78,372.16,233.5,373.69Z" />
  <path class="BUNTAI_OWL_JEWELRY_BUNTAI_OWL_JEWELRY_25_f" d="M241.17,376c-.47-5.23-8.11-10.62-14.48-3.57,2-1.23,5.09-.26,6.81,1.27s3,9-3.71,10-10.24-6.27-6.29-12.42c3.82-5.95,11.22-3.26,11.68-3.09h0a11,11,0,0,1,3.12,1.33s-.76-6.23-10.1-6.87c-.51,0-1.05-.06-1.61-.06H226c-10.44.41-14.4,12-11.4,19.32S226.4,392,232.72,390,241.63,381.21,241.17,376Z" />
  <path class="BUNTAI_OWL_JEWELRY_BUNTAI_OWL_JEWELRY_25_g" d="M228.22,356.34v6.28c-.51,0-1.05-.06-1.61-.06H226v-6.23a1.5,1.5,0,0,1,0-.2,2.91,2.91,0,0,0,1.07.2,3.23,3.23,0,0,0,1.08-.19A1.21,1.21,0,0,1,228.22,356.34Z" />
  <path class="BUNTAI_OWL_JEWELRY_BUNTAI_OWL_JEWELRY_25_h" d="M227.13,350.15a3.1,3.1,0,0,1,1.08,6,3.23,3.23,0,0,1-1.08.19,2.91,2.91,0,0,1-1.07-.2,3.09,3.09,0,0,1,1.07-6Z" />
  <path class="BUNTAI_OWL_JEWELRY_BUNTAI_OWL_JEWELRY_25_i" d="M235.2,368.16a11,11,0,0,1,3.12,1.33s-.76-6.23-10.1-6.87c-.51,0-1.05-.06-1.61-.06H226c-10.44.41-14.4,12-11.4,19.32S226.4,392,232.72,390s8.91-8.75,8.45-14-8.11-10.62-14.48-3.57c3.91.46,6.92,4,4.5,7.43s-10.95-1-6.53-7.73a9.06,9.06,0,0,1,10.52-4" />
  <path class="BUNTAI_OWL_JEWELRY_BUNTAI_OWL_JEWELRY_25_i" d="M236.26,367.26h0" />
  <path class="BUNTAI_OWL_JEWELRY_BUNTAI_OWL_JEWELRY_25_i" d="M229.79,363.83a8.55,8.55,0,0,1,.12,2.68,19.9,19.9,0,0,1,6.35.75A9.09,9.09,0,0,0,229.79,363.83Z" />
  <path class="BUNTAI_OWL_JEWELRY_BUNTAI_OWL_JEWELRY_25_i" d="M224.59,364.18s-4.69,2.14-5.83,4.8a13.83,13.83,0,0,1,3.62,2l1.79-2.25a20.26,20.26,0,0,0-2.5-1.72l-.9,1.11a6.65,6.65,0,0,1,1.68.95" />
  <path class="BUNTAI_OWL_JEWELRY_BUNTAI_OWL_JEWELRY_25_i" d="M218,375.28l1.4.16v3.16h-2.78s.09-4.3.49-5.2a25.76,25.76,0,0,1,3.74.53s-.32,5.37,0,6.54c-3.83,1.25-5.2.42-5.2.42s-1.11-6.11,1.16-9.92a16.42,16.42,0,0,1,5,1.74" />
  <path class="BUNTAI_OWL_JEWELRY_BUNTAI_OWL_JEWELRY_25_i" d="M235.2,368.16h0c-.46-.17-7.86-2.86-11.68,3.09-3.95,6.15-.45,13.38,6.29,12.42s5.42-8.44,3.71-10-4.83-2.5-6.81-1.27" />
  <path class="BUNTAI_OWL_JEWELRY_BUNTAI_OWL_JEWELRY_25_i" d="M221.24,381.16a11.28,11.28,0,0,1-4.36,2c5,4.71,9.2,5.38,9.2,5.38l1.75-3.31s-4.17-1.41-5.48-2.93c-1.59,1.05-1.81,1.5-1.81,1.5a22.56,22.56,0,0,0,3.82,2.61c.79-.86.79-1.09.79-1.09" />
  <path class="BUNTAI_OWL_JEWELRY_BUNTAI_OWL_JEWELRY_25_i" d="M229,384.86a36.7,36.7,0,0,1-.61,3.85,7.92,7.92,0,0,0,5.89-1.92,10,10,0,0,0-1-2.37A41.45,41.45,0,0,1,229,384.86Z" />
  <path class="BUNTAI_OWL_JEWELRY_BUNTAI_OWL_JEWELRY_25_i" d="M235.84,374.42a8.26,8.26,0,0,0-4.39-2.87,6.79,6.79,0,0,1,5.66.38A12.14,12.14,0,0,0,235.84,374.42Z" />
  <path class="BUNTAI_OWL_JEWELRY_BUNTAI_OWL_JEWELRY_25_i" d="M238.68,373.4s-2.26,1.6-2.8,3.31a11.47,11.47,0,0,1-.69,4.73,7.46,7.46,0,0,1-.91,1.46,12.51,12.51,0,0,1,2.2,2.77s4.27-3,3-9.75a4.36,4.36,0,0,0-2.5.79s-.22,3.78-.9,4.94a.86.86,0,0,1-.07.1,8,8,0,0,0,1.34.86" />
  <path class="BUNTAI_OWL_JEWELRY_BUNTAI_OWL_JEWELRY_25_i" d="M226.06,356.14a3.07,3.07,0,1,1,2.15,0,3.23,3.23,0,0,1-1.08.19A2.91,2.91,0,0,1,226.06,356.14Z" />
  <path class="BUNTAI_OWL_JEWELRY_BUNTAI_OWL_JEWELRY_25_j" d="M226,362.57h0v-6.23a1.5,1.5,0,0,1,0-.2" />
  <path class="BUNTAI_OWL_JEWELRY_BUNTAI_OWL_JEWELRY_25_j" d="M228.21,356.15a1.21,1.21,0,0,1,0,.19v6.28" />
</svg>