<svg xmlns="http://www.w3.org/2000/svg" viewBox="0 0 432 432">
  <defs>
    <style>.BUNTAI_OWL_JEWELRY_BUNTAI_OWL_JEWELRY_1_a{fill:#fca826;}.BUNTAI_OWL_JEWELRY_BUNTAI_OWL_JEWELRY_1_b{fill:none;stroke-linecap:round;stroke-linejoin:round;stroke-width:1.58px;}.BUNTAI_OWL_JEWELRY_BUNTAI_OWL_JEWELRY_1_b,.BUNTAI_OWL_JEWELRY_BUNTAI_OWL_JEWELRY_1_c{stroke:#000;}.BUNTAI_OWL_JEWELRY_BUNTAI_OWL_JEWELRY_1_c{fill:#834932;stroke-miterlimit:10;stroke-width:1.55px;}</style>
  </defs>
  <path class="BUNTAI_OWL_JEWELRY_BUNTAI_OWL_JEWELRY_1_a" d="M246.43,363.16c-2.43-3.73-8.45-3.57-11.72-2.73a9.82,9.82,0,0,0-7.41,6.21c-2.27,5.61-1.71,9.14,2.2,12.49s5.8,3.63,4.34,7.37-3.65,2.92-3.5,5.2,5.8,4.81,10.59,1.69,7.73-6.35,8.26-14.1S248.86,366.9,246.43,363.16Zm-3.72,10.78c-1.2,3.49-3.18,5.8-7.15,2.25s-.35-8.88-.35-8.88a4.88,4.88,0,0,1,5.2-1.33C242.57,367,243.89,370.44,242.71,373.94Z" />
  <path class="BUNTAI_OWL_JEWELRY_BUNTAI_OWL_JEWELRY_1_b" d="M242.85,360.06a15.51,15.51,0,0,0-12.2,1.68c-13.29,17.08,6.09,17.61,3.41,24.25-.83,2.08-1.92,3.11-3,3.54a2.23,2.23,0,0,0-.28,3.75,8.77,8.77,0,0,0,6.95,1.57C253.13,391.35,251.08,362.12,242.85,360.06Z" />
  <path class="BUNTAI_OWL_JEWELRY_BUNTAI_OWL_JEWELRY_1_b" d="M235.21,367.31s-3.62,5.34.35,8.88,5.95,1.23,7.14-2.26-.13-7-2.29-8A4.9,4.9,0,0,0,235.21,367.31Z" />
  <path class="BUNTAI_OWL_JEWELRY_BUNTAI_OWL_JEWELRY_1_c" d="M235.48,369.09h-.7c-39,0-81-46.15-89.09-55.52a31.74,31.74,0,0,0,2.86-2.3c-5.69-5.31-9.67,1-6.37,5.31.39.37,47.9,56.92,92.6,56.92h.71a2.23,2.23,0,0,0,0-4.41Z" />
  <path class="BUNTAI_OWL_JEWELRY_BUNTAI_OWL_JEWELRY_1_c" d="M308.43,313.56a22.36,22.36,0,0,1,3,1.55c-28.26,41-59.95,53.43-69.45,54a2.12,2.12,0,0,0-2.13,1.87,2.17,2.17,0,0,0,1.61,2.49,5.88,5.88,0,0,0,4.15.26c28.2-8.07,54-32.38,69.6-56C317.72,314.07,313.5,308.55,308.43,313.56Z" />
</svg>