<svg xmlns="http://www.w3.org/2000/svg" viewBox="0 0 432 432">
  <defs>
    <style>.BUNTAI_OWL_JEWELRY_BUNTAI_OWL_JEWELRY_30_a{isolation:isolate;}.BUNTAI_OWL_JEWELRY_BUNTAI_OWL_JEWELRY_30_b{fill:#87e04a;}.BUNTAI_OWL_JEWELRY_BUNTAI_OWL_JEWELRY_30_c{fill:#f4f4f2;}.BUNTAI_OWL_JEWELRY_BUNTAI_OWL_JEWELRY_30_d{fill:#184098;}.BUNTAI_OWL_JEWELRY_BUNTAI_OWL_JEWELRY_30_e{fill:#2dbcd5;}.BUNTAI_OWL_JEWELRY_BUNTAI_OWL_JEWELRY_30_f{fill:#e1a04c;}.BUNTAI_OWL_JEWELRY_BUNTAI_OWL_JEWELRY_30_g{fill:#a64e42;}.BUNTAI_OWL_JEWELRY_BUNTAI_OWL_JEWELRY_30_h{fill:#ccc;}.BUNTAI_OWL_JEWELRY_BUNTAI_OWL_JEWELRY_30_i{fill:#e7ff87;}.BUNTAI_OWL_JEWELRY_BUNTAI_OWL_JEWELRY_30_j,.BUNTAI_OWL_JEWELRY_BUNTAI_OWL_JEWELRY_30_l,.BUNTAI_OWL_JEWELRY_BUNTAI_OWL_JEWELRY_30_o{fill:none;stroke-linecap:round;stroke-linejoin:round;}.BUNTAI_OWL_JEWELRY_BUNTAI_OWL_JEWELRY_30_j,.BUNTAI_OWL_JEWELRY_BUNTAI_OWL_JEWELRY_30_l,.BUNTAI_OWL_JEWELRY_BUNTAI_OWL_JEWELRY_30_o,.BUNTAI_OWL_JEWELRY_BUNTAI_OWL_JEWELRY_30_p{stroke:#000;}.BUNTAI_OWL_JEWELRY_BUNTAI_OWL_JEWELRY_30_j{stroke-width:1px;}.BUNTAI_OWL_JEWELRY_BUNTAI_OWL_JEWELRY_30_k{opacity:0.43;mix-blend-mode:multiply;}.BUNTAI_OWL_JEWELRY_BUNTAI_OWL_JEWELRY_30_l{stroke-width:0.88px;}.BUNTAI_OWL_JEWELRY_BUNTAI_OWL_JEWELRY_30_m{fill:#c7a858;}.BUNTAI_OWL_JEWELRY_BUNTAI_OWL_JEWELRY_30_n{fill:#fca826;}.BUNTAI_OWL_JEWELRY_BUNTAI_OWL_JEWELRY_30_o{stroke-width:1.35px;}.BUNTAI_OWL_JEWELRY_BUNTAI_OWL_JEWELRY_30_p{fill:#834932;stroke-miterlimit:10;stroke-width:1.33px;}</style>
  </defs>
  <g class="BUNTAI_OWL_JEWELRY_BUNTAI_OWL_JEWELRY_30_a">
    <path class="BUNTAI_OWL_JEWELRY_BUNTAI_OWL_JEWELRY_30_b" d="M116.38,190.78c2.11.95,3.76,4.67,3.76,4.67s-3.87,1.24-6,.29c-1.67-.74-2.61-3-2.93-4v0l-.07-.4C111.57,191.18,114.44,189.9,116.38,190.78Z" />
    <path class="BUNTAI_OWL_JEWELRY_BUNTAI_OWL_JEWELRY_30_c" d="M110.79,185.84s-.78,3.46-2.84,4.5-6,0-6,0,1.48-3.8,3.53-4.84S110.79,185.84,110.79,185.84Z" />
    <path class="BUNTAI_OWL_JEWELRY_BUNTAI_OWL_JEWELRY_30_d" d="M122,177.53c2.06,1.48,3,5.85,3,5.85s-4.44.48-6.49-1-2.33-5.36-2.33-5.36S119.94,176.05,122,177.53Z" />
    <path class="BUNTAI_OWL_JEWELRY_BUNTAI_OWL_JEWELRY_30_e" d="M117.31,167.93a.17.17,0,0,1,0,.07h0c-.24.87-1.14,3.72-3,4.69-2.26,1.15-6.58,0-6.58,0s1.61-4.16,3.87-5.32,5.53.27,5.81.38h0A1.36,1.36,0,0,1,117.31,167.93Z" />
    <path class="BUNTAI_OWL_JEWELRY_BUNTAI_OWL_JEWELRY_30_f" d="M125.37,155c2.93,1.06,5.52,5.89,5.52,5.89s-5.09,2.06-8,1a7.65,7.65,0,0,1-3.55-3.49,0,0,0,0,0,0,0,7.06,7.06,0,0,0-.55-1.35c-.13-.23-.25-.46-.37-.71C118.87,156.05,122.64,154,125.37,155Z" />
    <path class="BUNTAI_OWL_JEWELRY_BUNTAI_OWL_JEWELRY_30_g" d="M112.55,147.31l0,0c.2.69.43,1.43.68,2.18v0a7.46,7.46,0,0,1-.22,4.82c-1.39,2.78-6.49,4.79-6.49,4.79s-1.45-5.29-.06-8.07,6-3.86,6-3.86a.15.15,0,0,0,0,.06Z" />
    <path class="BUNTAI_OWL_JEWELRY_BUNTAI_OWL_JEWELRY_30_h" d="M119.33,158.4c2,6.39-2.56,18.25-6.86,25.93a10.7,10.7,0,0,0-1.31,7l0,0s0,.14.12.37v0a16.78,16.78,0,0,0,7.15,10.28c-3.22-1.73-10.92-9.7-6.81-17.74A63.08,63.08,0,0,0,117.3,168h0a1.3,1.3,0,0,0,.06-.24h0c.74-4.27.67-8.15-.84-10.71a41.53,41.53,0,0,1-3.25-7.48v0a15,15,0,0,0-.68-2.18l0,0h0c-.56-1.84-1-3.45-1.21-4.52a3.38,3.38,0,0,0,1,.15,3.34,3.34,0,0,0,1.88-.57c.44,2.44,1.79,9.17,4.16,14a0,0,0,0,0,0,0l-.05,0a13.79,13.79,0,0,0,1,2A0,0,0,0,1,119.33,158.4Z" />
    <path class="BUNTAI_OWL_JEWELRY_BUNTAI_OWL_JEWELRY_30_i" d="M114.23,139.51a1.88,1.88,0,1,0-1.88,1.88A1.87,1.87,0,0,0,114.23,139.51Zm-1.88-3.4a3.41,3.41,0,0,1,1.88,6.25,3.34,3.34,0,0,1-1.88.57,3.38,3.38,0,0,1-1-.15,3.41,3.41,0,0,1,1-6.67Z" />
    <path class="BUNTAI_OWL_JEWELRY_BUNTAI_OWL_JEWELRY_30_j" d="M113.25,149.53a15,15,0,0,0-.68-2.18" />
    <path class="BUNTAI_OWL_JEWELRY_BUNTAI_OWL_JEWELRY_30_j" d="M112.55,147.3a.15.15,0,0,1,0-.06s-4.64,1.08-6,3.86.06,8.07.06,8.07,5.1-2,6.49-4.79a7.46,7.46,0,0,0,.22-4.82" />
    <path class="BUNTAI_OWL_JEWELRY_BUNTAI_OWL_JEWELRY_30_j" d="M117.35,167.75c-.28-.11-3.65-1.47-5.81-.38s-3.87,5.32-3.87,5.32,4.32,1.16,6.58,0c1.91-1,2.81-3.82,3-4.69" />
    <path class="BUNTAI_OWL_JEWELRY_BUNTAI_OWL_JEWELRY_30_j" d="M117.3,168a1.3,1.3,0,0,0,.06-.24h0" />
    <path class="BUNTAI_OWL_JEWELRY_BUNTAI_OWL_JEWELRY_30_j" d="M110.79,185.84s-3.25-1.39-5.31-.34-3.53,4.84-3.53,4.84,4,1,6,0S110.79,185.84,110.79,185.84Z" />
    <path class="BUNTAI_OWL_JEWELRY_BUNTAI_OWL_JEWELRY_30_j" d="M111.23,191.79c.32.93,1.26,3.21,2.93,4,2.11.95,6-.29,6-.29s-1.65-3.72-3.76-4.67c-1.94-.88-4.81.4-5.22.59l0,0s0,.14.12.37" />
    <path class="BUNTAI_OWL_JEWELRY_BUNTAI_OWL_JEWELRY_30_j" d="M116.19,177s.27,3.88,2.33,5.36,6.49,1,6.49,1-1-4.37-3-5.85S116.19,177,116.19,177Z" />
    <path class="BUNTAI_OWL_JEWELRY_BUNTAI_OWL_JEWELRY_30_j" d="M119.33,158.4a7.65,7.65,0,0,0,3.55,3.49c2.92,1.05,8-1,8-1s-2.59-4.83-5.52-5.89c-2.73-1-6.5,1.06-7,1.34l-.05,0a13.79,13.79,0,0,0,1,2" />
    <path class="BUNTAI_OWL_JEWELRY_BUNTAI_OWL_JEWELRY_30_j" d="M118.38,202.07c-3.22-1.73-10.92-9.7-6.81-17.74A63.08,63.08,0,0,0,117.3,168h0a.17.17,0,0,0,0-.07,1.36,1.36,0,0,0,0-.17h0c.74-4.27.67-8.15-.84-10.71a41.53,41.53,0,0,1-3.25-7.48v0c-.25-.75-.48-1.49-.68-2.18l0,0h0c-.56-1.84-1-3.45-1.21-4.52h0" />
    <path class="BUNTAI_OWL_JEWELRY_BUNTAI_OWL_JEWELRY_30_j" d="M116.34,205.69c-2.77,1.61,2.56,2.9,2.12,0-2.56-5.55-8.76,4-1.5,4.4,4.3,0,4.71-6.46,1.66-7.9" />
    <path class="BUNTAI_OWL_JEWELRY_BUNTAI_OWL_JEWELRY_30_j" d="M118.62,202.18l-.24-.11a16.78,16.78,0,0,1-7.15-10.28v0l-.07-.4a10.7,10.7,0,0,1,1.31-7c4.3-7.68,8.82-19.54,6.86-25.93a0,0,0,0,0,0,0,7.06,7.06,0,0,0-.55-1.35c-.13-.23-.25-.46-.37-.71a0,0,0,0,1,0,0c-2.37-4.79-3.72-11.52-4.16-14" />
    <path class="BUNTAI_OWL_JEWELRY_BUNTAI_OWL_JEWELRY_30_j" d="M111.34,142.78a3.41,3.41,0,1,1,2.89-.42,3.34,3.34,0,0,1-1.88.57A3.38,3.38,0,0,1,111.34,142.78Z" />
    <path class="BUNTAI_OWL_JEWELRY_BUNTAI_OWL_JEWELRY_30_j" d="M114.23,139.51a1.88,1.88,0,1,1-1.88-1.86A1.88,1.88,0,0,1,114.23,139.51Z" />
    <g class="BUNTAI_OWL_JEWELRY_BUNTAI_OWL_JEWELRY_30_k">
      <path d="M109,139.93s1.15,2.41,2.7,2.92c.63,3.55.88,4.39.88,4.39a28.38,28.38,0,0,1-3.13,7.19,24.06,24.06,0,0,0-2.51,4.59s6.42-2.78,7.07-7.5c1.46,3.46,3.87,6.18,3.8,10a58.73,58.73,0,0,1-.4,6.14,14.78,14.78,0,0,1-5,3.2c-2.87,1-4.62,1.69-4.62,1.69a5.21,5.21,0,0,0,5.07.57,9.55,9.55,0,0,0,4-2.8s-2.32,10.66-4,13.48a16.51,16.51,0,0,1-2.11,2s-5.76,3.88-9,4.41c2.9.87,7.56.2,9.09-2.71.26,2.8-.73,11.11,9.28,7.8a76,76,0,0,1-8.22-4.22s-1.75-1.82-.17-5c3.55-6.51,4.59-8.38,4.59-8.38s-.89,6.73,8.54,5.75c-4.16-2.77-7.89-5.05-8.32-6.69,1.64-5.12,3.48-7.68,3.28-12.48l-.19-4.79s2.19,4.55,11.13,1.12c-7.21-2.36-10.35-2.57-12.36-4.33-2-5.18-4.51-13-4.37-13.72s2-1.81,1.77-3.6C114,141.47,112.67,143.5,109,139.93Z" />
    </g>
    <line class="BUNTAI_OWL_JEWELRY_BUNTAI_OWL_JEWELRY_30_l" x1="112.3" y1="135.86" x2="112.3" y2="130.71" />
    <path class="BUNTAI_OWL_JEWELRY_BUNTAI_OWL_JEWELRY_30_m" d="M112.29,130.71c-1.39,0-1.16-1.9-1.16-1.9h0a3.66,3.66,0,0,0,1.71.37,1.56,1.56,0,0,0,.76-.19C113.61,129.09,113.63,130.71,112.29,130.71Z" />
    <path class="BUNTAI_OWL_JEWELRY_BUNTAI_OWL_JEWELRY_30_m" d="M114.69,123.22c.51,1.69.4,4.94-1.09,5.76a1.56,1.56,0,0,1-.76.19,3.66,3.66,0,0,1-1.71-.37c-1.28-.61-1.92-2.06-1.84-4.25a7,7,0,0,1,.4-2.14,4.48,4.48,0,0,1,1.24-1.93,1.59,1.59,0,0,1,1.14-.48,1.91,1.91,0,0,1,1.38.82,3,3,0,0,1-.61.12h0a3.57,3.57,0,0,0-1.56,2.41c-.39,1.86.27,4,1.21,4s1.06-2.43,1-3.72h.07A4.45,4.45,0,0,0,114.69,123.22Z" />
    <path class="BUNTAI_OWL_JEWELRY_BUNTAI_OWL_JEWELRY_30_m" d="M110.54,114.13c.33,1.71.5,2.35.5,2.35a2.81,2.81,0,0,0-.72,3.31,2,2,0,0,0,.61.69,4.48,4.48,0,0,0-1.24,1.93A5,5,0,0,1,110.54,114.13Z" />
    <path class="BUNTAI_OWL_JEWELRY_BUNTAI_OWL_JEWELRY_30_m" d="M116.92,120.21a4,4,0,0,1-2.23,3,4.86,4.86,0,0,1-1.17.35h-.08a4.24,4.24,0,0,1-2.19-.23,3.54,3.54,0,0,1,1.55-2.41h0a3.24,3.24,0,0,0,.62-.12,1.83,1.83,0,0,0,1.29-1.13,1.47,1.47,0,0,0,.07-.48c0-2-.77-2.07-.77-2.07a2.58,2.58,0,0,1-.1-.27,2.57,2.57,0,0,1,2-1.67A6.77,6.77,0,0,1,116.92,120.21Z" />
    <path class="BUNTAI_OWL_JEWELRY_BUNTAI_OWL_JEWELRY_30_l" d="M109.69,122.41a5,5,0,0,1,.85-8.28c.35,1.41.5,2.35.5,2.35a2.81,2.81,0,0,0-.72,3.31,2,2,0,0,0,.61.69" />
    <path class="BUNTAI_OWL_JEWELRY_BUNTAI_OWL_JEWELRY_30_l" d="M111.25,123.35a4.24,4.24,0,0,0,2.19.23h.08a4.86,4.86,0,0,0,1.17-.35,4,4,0,0,0,2.23-3,6.77,6.77,0,0,0-1-5" />
    <path class="BUNTAI_OWL_JEWELRY_BUNTAI_OWL_JEWELRY_30_l" d="M114,116.87a2.58,2.58,0,0,0,.1.27s.75.09.77,2.07a1.47,1.47,0,0,1-.07.48,1.83,1.83,0,0,1-1.29,1.13,3.24,3.24,0,0,1-.62.12" />
    <path class="BUNTAI_OWL_JEWELRY_BUNTAI_OWL_JEWELRY_30_l" d="M114.69,123.22c.51,1.69.4,4.94-1.09,5.76a1.56,1.56,0,0,1-.76.19,3.66,3.66,0,0,1-1.71-.37c-1.28-.61-1.92-2.06-1.84-4.25a7,7,0,0,1,.4-2.14,4.48,4.48,0,0,1,1.24-1.93,1.59,1.59,0,0,1,1.14-.48,1.91,1.91,0,0,1,1.38.82" />
    <path class="BUNTAI_OWL_JEWELRY_BUNTAI_OWL_JEWELRY_30_l" d="M113.45,123.58c.06,1.29,0,3.72-1,3.72s-1.6-2.09-1.21-4a3.57,3.57,0,0,1,1.56-2.41h0" />
    <path class="BUNTAI_OWL_JEWELRY_BUNTAI_OWL_JEWELRY_30_l" d="M111.13,128.81s-.23,1.9,1.16,1.9,1.32-1.62,1.31-1.73h0" />
    <path class="BUNTAI_OWL_JEWELRY_BUNTAI_OWL_JEWELRY_30_l" d="M114.1,118.9a2.48,2.48,0,0,1-.29-1.18,2.61,2.61,0,0,1,.14-.85,2.57,2.57,0,0,1,2-1.67,3,3,0,0,1,.43,0,1.74,1.74,0,0,1,1.73,1.28" />
    <path class="BUNTAI_OWL_JEWELRY_BUNTAI_OWL_JEWELRY_30_n" d="M242.21,340.68c-2.08-3.21-7.26-3.07-10.06-2.35a8.43,8.43,0,0,0-6.36,5.33c-2,4.82-1.47,7.85,1.88,10.73s5,3.12,3.73,6.33-3.13,2.51-3,4.47,5,4.13,9.1,1.45,6.63-5.45,7.1-12.11S244.3,343.89,242.21,340.68Zm-3.2,9.25c-1,3-2.73,5-6.13,1.94s-.31-7.63-.31-7.63a4.21,4.21,0,0,1,4.47-1.15C238.9,343.93,240,346.93,239,349.93Z" />
    <path class="BUNTAI_OWL_JEWELRY_BUNTAI_OWL_JEWELRY_30_o" d="M239.14,338a13.35,13.35,0,0,0-10.48,1.44c-11.41,14.67,5.23,15.13,2.93,20.84a5,5,0,0,1-2.58,3,1.91,1.91,0,0,0-.24,3.22,7.48,7.48,0,0,0,6,1.36C248,364.89,246.21,339.78,239.14,338Z" />
    <path class="BUNTAI_OWL_JEWELRY_BUNTAI_OWL_JEWELRY_30_o" d="M232.57,344.24s-3.1,4.58.31,7.63,5.11,1.06,6.13-1.94-.11-6-2-6.84A4.21,4.21,0,0,0,232.57,344.24Z" />
    <path class="BUNTAI_OWL_JEWELRY_BUNTAI_OWL_JEWELRY_30_p" d="M232.81,345.77h-.61c-33.49,0-69-39.07-76-47.11.69-1.39.92-1.81,1.44-3-5-3.66-7.79,1.34-4.95,5,.33.32,41.13,48.89,79.53,48.89h.61a1.91,1.91,0,0,0,0-3.78Z" />
    <path class="BUNTAI_OWL_JEWELRY_BUNTAI_OWL_JEWELRY_30_p" d="M296.81,297.86c.61,1,.59,1.33,1.25,2.55-24.27,35.21-51.5,44.88-59.65,45.38a1.82,1.82,0,0,0-1.83,1.61,1.87,1.87,0,0,0,1.38,2.14,5.05,5.05,0,0,0,3.56.22c24.23-6.93,46.38-26.81,59.79-47.08C303.45,299.51,301.15,295.26,296.81,297.86Z" />
  </g>
</svg>