<svg xmlns="http://www.w3.org/2000/svg" viewBox="0 0 432 432">
  <defs>
    <style>.BUNTAI_OWL_JEWELRY_BUNTAI_OWL_JEWELRY_19_a{isolation:isolate;}.BUNTAI_OWL_JEWELRY_BUNTAI_OWL_JEWELRY_19_b,.BUNTAI_OWL_JEWELRY_BUNTAI_OWL_JEWELRY_19_e,.BUNTAI_OWL_JEWELRY_BUNTAI_OWL_JEWELRY_19_j{fill:none;stroke-linecap:round;stroke-linejoin:round;}.BUNTAI_OWL_JEWELRY_BUNTAI_OWL_JEWELRY_19_b,.BUNTAI_OWL_JEWELRY_BUNTAI_OWL_JEWELRY_19_e,.BUNTAI_OWL_JEWELRY_BUNTAI_OWL_JEWELRY_19_g,.BUNTAI_OWL_JEWELRY_BUNTAI_OWL_JEWELRY_19_h,.BUNTAI_OWL_JEWELRY_BUNTAI_OWL_JEWELRY_19_j{stroke:#000;}.BUNTAI_OWL_JEWELRY_BUNTAI_OWL_JEWELRY_19_b{stroke-width:1px;}.BUNTAI_OWL_JEWELRY_BUNTAI_OWL_JEWELRY_19_c{fill:#c7a858;}.BUNTAI_OWL_JEWELRY_BUNTAI_OWL_JEWELRY_19_d{fill:#10b3c7;}.BUNTAI_OWL_JEWELRY_BUNTAI_OWL_JEWELRY_19_e{stroke-width:1.13px;}.BUNTAI_OWL_JEWELRY_BUNTAI_OWL_JEWELRY_19_f{opacity:0.43;mix-blend-mode:multiply;}.BUNTAI_OWL_JEWELRY_BUNTAI_OWL_JEWELRY_19_g{fill:#fff;}.BUNTAI_OWL_JEWELRY_BUNTAI_OWL_JEWELRY_19_g,.BUNTAI_OWL_JEWELRY_BUNTAI_OWL_JEWELRY_19_h{stroke-miterlimit:10;stroke-width:0.77px;}.BUNTAI_OWL_JEWELRY_BUNTAI_OWL_JEWELRY_19_h{fill:#754c24;}.BUNTAI_OWL_JEWELRY_BUNTAI_OWL_JEWELRY_19_i{fill:#333;}.BUNTAI_OWL_JEWELRY_BUNTAI_OWL_JEWELRY_19_j{stroke-width:0.57px;}</style>
  </defs>
  <g class="BUNTAI_OWL_JEWELRY_BUNTAI_OWL_JEWELRY_19_a">
    <line class="BUNTAI_OWL_JEWELRY_BUNTAI_OWL_JEWELRY_19_b" x1="119.39" y1="149.09" x2="119.39" y2="143.24" />
    <path class="BUNTAI_OWL_JEWELRY_BUNTAI_OWL_JEWELRY_19_c" d="M119.38,143.24c-1.58,0-1.32-2.16-1.32-2.16h0a4.37,4.37,0,0,0,1.94.41,1.75,1.75,0,0,0,.87-.22C120.87,141.4,120.9,143.24,119.38,143.24Z" />
    <path class="BUNTAI_OWL_JEWELRY_BUNTAI_OWL_JEWELRY_19_c" d="M122.1,134.74c.58,1.93.46,5.61-1.23,6.53a1.75,1.75,0,0,1-.87.22,4.37,4.37,0,0,1-1.94-.41c-1.45-.7-2.18-2.34-2.08-4.83a7.85,7.85,0,0,1,.45-2.43,5,5,0,0,1,1.41-2.19,1.78,1.78,0,0,1,1.29-.54,2.19,2.19,0,0,1,1.57.93,3.21,3.21,0,0,1-.7.13h0a4,4,0,0,0-1.77,2.73c-.44,2.11.3,4.49,1.37,4.49s1.2-2.76,1.13-4.23h.09A5.1,5.1,0,0,0,122.1,134.74Z" />
    <path class="BUNTAI_OWL_JEWELRY_BUNTAI_OWL_JEWELRY_19_c" d="M117.4,124.43c.37,1.94.56,2.67.56,2.67s-1.93,1.68-.82,3.75a2.19,2.19,0,0,0,.7.78,5,5,0,0,0-1.41,2.19A5.66,5.66,0,0,1,117.4,124.43Z" />
    <path class="BUNTAI_OWL_JEWELRY_BUNTAI_OWL_JEWELRY_19_c" d="M124.63,131.33a4.55,4.55,0,0,1-2.53,3.41,5.1,5.1,0,0,1-1.32.4h-.09a4.89,4.89,0,0,1-2.5-.26,4,4,0,0,1,1.77-2.73h0a3.21,3.21,0,0,0,.7-.13,2.06,2.06,0,0,0,1.47-1.28,1.63,1.63,0,0,0,.08-.55c0-2.24-.88-2.35-.88-2.35s-.05-.12-.11-.31a2.9,2.9,0,0,1,2.25-1.88A7.62,7.62,0,0,1,124.63,131.33Z" />
    <path class="BUNTAI_OWL_JEWELRY_BUNTAI_OWL_JEWELRY_19_b" d="M116.43,133.82a5.66,5.66,0,0,1,1-9.39c.39,1.6.56,2.67.56,2.67s-1.93,1.68-.82,3.75a2.19,2.19,0,0,0,.7.78" />
    <path class="BUNTAI_OWL_JEWELRY_BUNTAI_OWL_JEWELRY_19_b" d="M118.19,134.89a4.89,4.89,0,0,0,2.5.26h.09a5.1,5.1,0,0,0,1.32-.4,4.55,4.55,0,0,0,2.53-3.41,7.62,7.62,0,0,0-1.12-5.68" />
    <path class="BUNTAI_OWL_JEWELRY_BUNTAI_OWL_JEWELRY_19_b" d="M121.26,127.53c.06.19.11.31.11.31s.86.11.88,2.35a1.63,1.63,0,0,1-.08.55A2.06,2.06,0,0,1,120.7,132a3.21,3.21,0,0,1-.7.13" />
    <path class="BUNTAI_OWL_JEWELRY_BUNTAI_OWL_JEWELRY_19_b" d="M122.1,134.74c.58,1.93.46,5.61-1.23,6.53a1.75,1.75,0,0,1-.87.22,4.37,4.37,0,0,1-1.94-.41c-1.45-.7-2.18-2.34-2.08-4.83a7.85,7.85,0,0,1,.45-2.43,5,5,0,0,1,1.41-2.19,1.78,1.78,0,0,1,1.29-.54,2.19,2.19,0,0,1,1.57.93" />
    <path class="BUNTAI_OWL_JEWELRY_BUNTAI_OWL_JEWELRY_19_b" d="M120.69,135.15c.07,1.47.06,4.23-1.13,4.23s-1.81-2.38-1.37-4.49a4,4,0,0,1,1.77-2.73h0" />
    <path class="BUNTAI_OWL_JEWELRY_BUNTAI_OWL_JEWELRY_19_b" d="M118.06,141.08s-.26,2.16,1.32,2.16,1.49-1.84,1.49-2h0" />
    <path class="BUNTAI_OWL_JEWELRY_BUNTAI_OWL_JEWELRY_19_b" d="M121.43,129.84a2.89,2.89,0,0,1-.33-1.34,3.08,3.08,0,0,1,.16-1,2.9,2.9,0,0,1,2.25-1.88,2.63,2.63,0,0,1,.49-.05,2,2,0,0,1,2,1.46" />
    <path class="BUNTAI_OWL_JEWELRY_BUNTAI_OWL_JEWELRY_19_c" d="M119.62,166.32a7.38,7.38,0,1,0-7.37-7.38A7.37,7.37,0,0,0,119.62,166.32Zm9.7-7.38a9.16,9.16,0,0,1-.24,2.11,9.29,9.29,0,0,1-1.39,3.28,9.81,9.81,0,0,1-2.28,2.4,9.92,9.92,0,0,1-2.92,1.48,9.66,9.66,0,0,1-2.86.43h0a9.63,9.63,0,0,1-3.64-.7,10.12,10.12,0,0,1-2.67-1.63,9.83,9.83,0,0,1-2.07-2.47,9.65,9.65,0,0,1-1.18-3.26,9.81,9.81,0,0,1-.14-1.64,9.69,9.69,0,0,1,9.59-9.69h.11A9.69,9.69,0,0,1,129.32,158.94Z" />
    <path class="BUNTAI_OWL_JEWELRY_BUNTAI_OWL_JEWELRY_19_d" d="M139.69,170a9.86,9.86,0,0,1,.75,3.16,33.93,33.93,0,0,0-7.24-9h0l-.74-.62.65.1a9.58,9.58,0,0,1,4.51,2.19l-1.8-.46A10.18,10.18,0,0,1,139.69,170Z" />
    <path class="BUNTAI_OWL_JEWELRY_BUNTAI_OWL_JEWELRY_19_d" d="M140.44,173.12h0c0,.28,0,.55,0,.82a37.09,37.09,0,0,1-3.61-2.92l-.16.15a13.66,13.66,0,0,0-2.13-1.89h0a26.33,26.33,0,0,1-1.36-5.14A33.93,33.93,0,0,1,140.44,173.12Z" />
    <path class="BUNTAI_OWL_JEWELRY_BUNTAI_OWL_JEWELRY_19_d" d="M139.32,177.88a22.9,22.9,0,0,1-.25,5.55c-.24-.23-.49-.46-.74-.67a34.77,34.77,0,0,0-7.41-15.09v-.21a13.67,13.67,0,0,1,3.64,1.83h0a13.66,13.66,0,0,1,2.13,1.89l-1.54.11a4.87,4.87,0,0,1,3.13,2.56A10.18,10.18,0,0,1,139.32,177.88Z" />
    <path class="BUNTAI_OWL_JEWELRY_BUNTAI_OWL_JEWELRY_19_d" d="M130.92,167.67a34.77,34.77,0,0,1,7.41,15.09c-.87-.75-1.81-1.42-2.69-2.15a12.28,12.28,0,0,1-.94-.84c0-.55-.12-1.1-.21-1.65a6.09,6.09,0,0,0-2.86-4.13l1.39-.05a11.21,11.21,0,0,0-2.13-2.38Z" />
    <path class="BUNTAI_OWL_JEWELRY_BUNTAI_OWL_JEWELRY_19_d" d="M134.7,179.77a22.38,22.38,0,0,1-.42,7.11,43.39,43.39,0,0,0-6.79-17.29h0a11.59,11.59,0,0,1,3.39,2,11.21,11.21,0,0,1,2.13,2.38l-1.39.05a6.09,6.09,0,0,1,2.86,4.13C134.58,178.67,134.66,179.22,134.7,179.77Z" />
    <path class="BUNTAI_OWL_JEWELRY_BUNTAI_OWL_JEWELRY_19_d" d="M134.28,186.88h0c-.16.74-.36,1.48-.58,2.2a25.4,25.4,0,0,0-4.13-5.53,7.54,7.54,0,0,0-.91-2.86,21.66,21.66,0,0,0-2.36-3.42c.42.06.78.15,1.16.22.17,0,.34.07.52.09-.22-.41-.44-.81-.68-1.21a22.74,22.74,0,0,1,.19-6.79A43.39,43.39,0,0,1,134.28,186.88Z" />
    <path class="BUNTAI_OWL_JEWELRY_BUNTAI_OWL_JEWELRY_19_d" d="M127.3,176.38c.24.4.46.8.68,1.21-.18,0-.35-.06-.52-.09-.38-.07-.74-.16-1.16-.22a21.66,21.66,0,0,1,2.36,3.42,7.54,7.54,0,0,1,.91,2.86c.38,3.16-1,6.67-2.95,9.57a67.1,67.1,0,0,0-2.93-21.39.16.16,0,0,0,0-.09A26,26,0,0,1,127.3,176.38Z" />
    <path class="BUNTAI_OWL_JEWELRY_BUNTAI_OWL_JEWELRY_19_d" d="M123.88,186.62A33.37,33.37,0,0,1,123,177a1.73,1.73,0,0,0-.33.13,14.3,14.3,0,0,0-.37-2.19c.26-.6.56-1.17.84-1.77a9.59,9.59,0,0,0,.58-1.4,67.1,67.1,0,0,1,2.93,21.39c-.28.42-.56.82-.85,1.21C125.5,191.78,124.52,189.21,123.88,186.62Z" />
    <path class="BUNTAI_OWL_JEWELRY_BUNTAI_OWL_JEWELRY_19_d" d="M122.64,177.1c.11,1.13.11,2.29.11,3.41a5,5,0,0,0-2.56.06,9.79,9.79,0,0,1,2.08,1.88,30.36,30.36,0,0,1-3,12.71,13.46,13.46,0,0,1-2.76-5.38,27.05,27.05,0,0,1-.33-8.19c.49-.59,1.08-1.24,1.58-1.82-.54-.27-1-.53-1.5-.79,0-.55,0-1.1,0-1.67a6.06,6.06,0,0,1,.14-1.71,2.83,2.83,0,0,1,.31-.74,25.72,25.72,0,0,1,2.85-3.79c.09-.09.17-.2.27-.29a7.78,7.78,0,0,1,1.73,2.22,8.66,8.66,0,0,1,.73,1.91A14.3,14.3,0,0,1,122.64,177.1Z" />
    <path class="BUNTAI_OWL_JEWELRY_BUNTAI_OWL_JEWELRY_19_d" d="M111.75,193.1a67.17,67.17,0,0,1,2.94-21.36,12.42,12.42,0,0,0,.57,1.4,23.56,23.56,0,0,1,1.12,2.46,6.06,6.06,0,0,0-.14,1.71c-.28-.12-.57-.25-.83-.34a33.37,33.37,0,0,1-.91,9.65c-.63,2.59-1.62,5.16-1.89,7.72a14.59,14.59,0,0,1-.85-1.21h0S111.75,193.11,111.75,193.1Z" />
    <path class="BUNTAI_OWL_JEWELRY_BUNTAI_OWL_JEWELRY_19_d" d="M114.69,171.74a67.17,67.17,0,0,0-2.94,21.36c-1.94-2.9-3.33-6.39-3-9.54a7.82,7.82,0,0,1,.9-2.86,22.47,22.47,0,0,1,2.38-3.42c-.61.08-1.09.23-1.69.31.22-.41.44-.81.68-1.21a27,27,0,0,1,3.59-4.73A.94.94,0,0,1,114.69,171.74Z" />
    <path class="BUNTAI_OWL_JEWELRY_BUNTAI_OWL_JEWELRY_19_d" d="M110.88,169.59a22.41,22.41,0,0,1,.19,6.79c-.24.4-.46.8-.68,1.21.6-.08,1.08-.23,1.69-.31a22.47,22.47,0,0,0-2.38,3.42,7.82,7.82,0,0,0-.9,2.86,25.23,25.23,0,0,0-4.11,5.53,21.22,21.22,0,0,1-.6-2.21A43.69,43.69,0,0,1,110.88,169.59Z" />
    <path class="BUNTAI_OWL_JEWELRY_BUNTAI_OWL_JEWELRY_19_d" d="M110.88,169.59a43.69,43.69,0,0,0-6.79,17.29,22.67,22.67,0,0,1-.42-7.11c.06-.55.12-1.1.23-1.65a6.07,6.07,0,0,1,2.84-4.13l-1.39-.05a11.49,11.49,0,0,1,2.13-2.38,11.64,11.64,0,0,1,3.4-2,0,0,0,0,0,0,0Z" />
    <path class="BUNTAI_OWL_JEWELRY_BUNTAI_OWL_JEWELRY_19_d" d="M106.74,174a6.07,6.07,0,0,0-2.84,4.13c-.11.55-.17,1.1-.23,1.65a12.16,12.16,0,0,1-.93.84c-.89.73-1.83,1.4-2.7,2.15a34.88,34.88,0,0,1,7.41-15.09l0,3.89a11.49,11.49,0,0,0-2.13,2.38Z" />
    <path class="BUNTAI_OWL_JEWELRY_BUNTAI_OWL_JEWELRY_19_d" d="M107.45,167.67A34.88,34.88,0,0,0,100,182.76c-.25.21-.49.44-.73.67a21.93,21.93,0,0,1-.24-5.55,10,10,0,0,1,1-4,4.89,4.89,0,0,1,3.15-2.56l-1.55-.11,0-.05a12.52,12.52,0,0,1,2.08-1.84,13.82,13.82,0,0,1,3.64-1.83Z" />
    <path class="BUNTAI_OWL_JEWELRY_BUNTAI_OWL_JEWELRY_19_d" d="M105.18,164.15a26.36,26.36,0,0,1-1.37,5.14,12.52,12.52,0,0,0-2.08,1.84l-.16-.15a36.61,36.61,0,0,1-3.65,3v-.2c0-.2,0-.41,0-.62A33.78,33.78,0,0,1,105.18,164.15Z" />
    <path class="BUNTAI_OWL_JEWELRY_BUNTAI_OWL_JEWELRY_19_d" d="M105.18,164.15a33.78,33.78,0,0,0-7.24,9,9.91,9.91,0,0,1,.74-3.17,10.24,10.24,0,0,1,3.87-4.61l-1.8.46a9.58,9.58,0,0,1,4.51-2.19l.65-.1-.73.62Z" />
    <path class="BUNTAI_OWL_JEWELRY_BUNTAI_OWL_JEWELRY_19_e" d="M119.51,149.25h.11a9.69,9.69,0,0,1,9.7,9.69,9.16,9.16,0,0,1-.24,2.11,9.29,9.29,0,0,1-1.39,3.28,9.81,9.81,0,0,1-2.28,2.4,9.92,9.92,0,0,1-2.92,1.48,9.66,9.66,0,0,1-2.86.43h0a9.63,9.63,0,0,1-3.64-.7,10.12,10.12,0,0,1-2.67-1.63,9.83,9.83,0,0,1-2.07-2.47,9.65,9.65,0,0,1-1.18-3.26,9.81,9.81,0,0,1-.14-1.64A9.69,9.69,0,0,1,119.51,149.25Z" />
    <circle class="BUNTAI_OWL_JEWELRY_BUNTAI_OWL_JEWELRY_19_e" cx="119.62" cy="158.94" r="7.37" />
    <path class="BUNTAI_OWL_JEWELRY_BUNTAI_OWL_JEWELRY_19_e" d="M119.63,168.64c0,.65,0,1.29-.07,1.93,0,.17,0,.33,0,.5-.21,6.53-.45,13.05-.66,19.57" />
    <path class="BUNTAI_OWL_JEWELRY_BUNTAI_OWL_JEWELRY_19_e" d="M119.81,170.78l-.25-.21" />
    <path class="BUNTAI_OWL_JEWELRY_BUNTAI_OWL_JEWELRY_19_e" d="M119.54,171.07c.09-.09.17-.2.27-.29a7.78,7.78,0,0,1,1.73,2.22,8.66,8.66,0,0,1,.73,1.91,14.3,14.3,0,0,1,.37,2.19c.11,1.13.11,2.29.11,3.41a5,5,0,0,0-2.56.06,9.79,9.79,0,0,1,2.08,1.88,30.36,30.36,0,0,1-3,12.71,13.46,13.46,0,0,1-2.76-5.38,27.05,27.05,0,0,1-.33-8.19c.49-.59,1.08-1.24,1.58-1.82-.54-.27-1-.53-1.5-.79,0-.55,0-1.1,0-1.67a6.06,6.06,0,0,1,.14-1.71,2.83,2.83,0,0,1,.31-.74,25.72,25.72,0,0,1,2.85-3.79" />
    <path class="BUNTAI_OWL_JEWELRY_BUNTAI_OWL_JEWELRY_19_e" d="M116,167.94c-.44,1.18-.85,2.39-1.23,3.61a.6.6,0,0,0-.06.19,67.17,67.17,0,0,0-2.94,21.36v0h0" />
    <path class="BUNTAI_OWL_JEWELRY_BUNTAI_OWL_JEWELRY_19_e" d="M114.75,171.55a.43.43,0,0,0-.09.1,27,27,0,0,0-3.59,4.73c-.24.4-.46.8-.68,1.21.6-.08,1.08-.23,1.69-.31a22.47,22.47,0,0,0-2.38,3.42,7.82,7.82,0,0,0-.9,2.86c-.38,3.15,1,6.64,3,9.54,0,0,0,0,0,0h0a14.59,14.59,0,0,0,.85,1.21" />
    <path class="BUNTAI_OWL_JEWELRY_BUNTAI_OWL_JEWELRY_19_e" d="M112.61,194.34c.27-2.56,1.26-5.13,1.89-7.72a33.37,33.37,0,0,0,.91-9.65c.26.09.55.22.83.34" />
    <path class="BUNTAI_OWL_JEWELRY_BUNTAI_OWL_JEWELRY_19_e" d="M116.38,175.6a23.56,23.56,0,0,0-1.12-2.46,12.42,12.42,0,0,1-.57-1.4.94.94,0,0,0,0-.09" />
    <path class="BUNTAI_OWL_JEWELRY_BUNTAI_OWL_JEWELRY_19_e" d="M110.88,169.59a43.69,43.69,0,0,0-6.79,17.29" />
    <path class="BUNTAI_OWL_JEWELRY_BUNTAI_OWL_JEWELRY_19_e" d="M113.31,166.31a38.62,38.62,0,0,0-2.41,3.26,0,0,0,0,0,0,0" />
    <path class="BUNTAI_OWL_JEWELRY_BUNTAI_OWL_JEWELRY_19_e" d="M110.9,169.57h0a11.64,11.64,0,0,0-3.4,2,11.49,11.49,0,0,0-2.13,2.38l1.39.05a6.07,6.07,0,0,0-2.84,4.13c-.11.55-.17,1.1-.23,1.65a22.67,22.67,0,0,0,.42,7.11,21.22,21.22,0,0,0,.6,2.21" />
    <path class="BUNTAI_OWL_JEWELRY_BUNTAI_OWL_JEWELRY_19_e" d="M111.07,176.38a22.41,22.41,0,0,0-.19-6.79h0a0,0,0,0,1,0,0" />
    <path class="BUNTAI_OWL_JEWELRY_BUNTAI_OWL_JEWELRY_19_e" d="M108.8,183.56a25.23,25.23,0,0,0-4.11,5.53" />
    <path class="BUNTAI_OWL_JEWELRY_BUNTAI_OWL_JEWELRY_19_e" d="M100,182.76a34.88,34.88,0,0,1,7.41-15.09,3.2,3.2,0,0,1,.25-.27,33.05,33.05,0,0,1,3.54-3.56" />
    <path class="BUNTAI_OWL_JEWELRY_BUNTAI_OWL_JEWELRY_19_e" d="M99.31,183.43a21.93,21.93,0,0,1-.24-5.55,10,10,0,0,1,1-4,4.89,4.89,0,0,1,3.15-2.56l-1.55-.11,0-.05a12.52,12.52,0,0,1,2.08-1.84,13.82,13.82,0,0,1,3.64-1.83,2.27,2.27,0,0,0,.25-.06" />
    <path class="BUNTAI_OWL_JEWELRY_BUNTAI_OWL_JEWELRY_19_e" d="M107.45,167.46v.21l0,3.89" />
    <path class="BUNTAI_OWL_JEWELRY_BUNTAI_OWL_JEWELRY_19_e" d="M105.18,164.14l.73-.62a33.46,33.46,0,0,1,4.15-2.94" />
    <path class="BUNTAI_OWL_JEWELRY_BUNTAI_OWL_JEWELRY_19_e" d="M97.94,173.13a33.78,33.78,0,0,1,7.24-9" />
    <path class="BUNTAI_OWL_JEWELRY_BUNTAI_OWL_JEWELRY_19_e" d="M105.91,163.52l-.65.1a9.58,9.58,0,0,0-4.51,2.19l1.8-.46A10.24,10.24,0,0,0,98.68,170a9.91,9.91,0,0,0-.74,3.17c0,.21,0,.42,0,.62v.2" />
    <path class="BUNTAI_OWL_JEWELRY_BUNTAI_OWL_JEWELRY_19_e" d="M102.45,169.72a5.28,5.28,0,0,1-.88,1.26,36.61,36.61,0,0,1-3.65,3h0" />
    <path class="BUNTAI_OWL_JEWELRY_BUNTAI_OWL_JEWELRY_19_e" d="M105.18,164.14h0a26.36,26.36,0,0,1-1.37,5.14" />
    <path class="BUNTAI_OWL_JEWELRY_BUNTAI_OWL_JEWELRY_19_e" d="M103.67,179.77a12.16,12.16,0,0,1-.93.84c-.89.73-1.83,1.4-2.7,2.15-.25.21-.49.44-.73.67" />
    <path class="BUNTAI_OWL_JEWELRY_BUNTAI_OWL_JEWELRY_19_e" d="M126.62,193.13a67.1,67.1,0,0,0-2.93-21.39l-.06-.19c-.35-1.13-.72-2.24-1.14-3.34" />
    <path class="BUNTAI_OWL_JEWELRY_BUNTAI_OWL_JEWELRY_19_e" d="M123.63,171.55l.09.1a26,26,0,0,1,3.58,4.73c.24.4.46.8.68,1.21-.18,0-.35-.06-.52-.09-.38-.07-.74-.16-1.16-.22a21.66,21.66,0,0,1,2.36,3.42,7.54,7.54,0,0,1,.91,2.86c.38,3.16-1,6.67-2.95,9.57-.28.42-.56.82-.85,1.21" />
    <path class="BUNTAI_OWL_JEWELRY_BUNTAI_OWL_JEWELRY_19_e" d="M122.64,177.1A1.73,1.73,0,0,1,123,177a33.37,33.37,0,0,0,.91,9.65c.64,2.59,1.62,5.16,1.89,7.72" />
    <path class="BUNTAI_OWL_JEWELRY_BUNTAI_OWL_JEWELRY_19_e" d="M122.27,174.91c.26-.6.56-1.17.84-1.77a9.59,9.59,0,0,0,.58-1.4.16.16,0,0,0,0-.09" />
    <path class="BUNTAI_OWL_JEWELRY_BUNTAI_OWL_JEWELRY_19_e" d="M127.49,169.58h0c-.65-1-1.34-1.93-2.07-2.84" />
    <path class="BUNTAI_OWL_JEWELRY_BUNTAI_OWL_JEWELRY_19_e" d="M134.28,186.88a43.39,43.39,0,0,0-6.79-17.29" />
    <path class="BUNTAI_OWL_JEWELRY_BUNTAI_OWL_JEWELRY_19_e" d="M133.7,189.09c.22-.72.42-1.46.58-2.2h0a22.38,22.38,0,0,0,.42-7.11c0-.55-.12-1.1-.21-1.65a6.09,6.09,0,0,0-2.86-4.13l1.39-.05a11.21,11.21,0,0,0-2.13-2.38,11.59,11.59,0,0,0-3.39-2h0" />
    <path class="BUNTAI_OWL_JEWELRY_BUNTAI_OWL_JEWELRY_19_e" d="M127.3,176.38a22.74,22.74,0,0,1,.19-6.79h0" />
    <path class="BUNTAI_OWL_JEWELRY_BUNTAI_OWL_JEWELRY_19_e" d="M133.7,189.09a25.4,25.4,0,0,0-4.13-5.53" />
    <path class="BUNTAI_OWL_JEWELRY_BUNTAI_OWL_JEWELRY_19_e" d="M127.69,164.33a32.12,32.12,0,0,1,3,3.07,3.08,3.08,0,0,1,.24.27,34.77,34.77,0,0,1,7.41,15.09" />
    <path class="BUNTAI_OWL_JEWELRY_BUNTAI_OWL_JEWELRY_19_e" d="M134.57,169.29a13.66,13.66,0,0,1,2.13,1.89l-1.54.11a4.87,4.87,0,0,1,3.13,2.56,10.18,10.18,0,0,1,1,4,22.9,22.9,0,0,1-.25,5.55" />
    <path class="BUNTAI_OWL_JEWELRY_BUNTAI_OWL_JEWELRY_19_e" d="M130.68,167.4l.24.06a13.67,13.67,0,0,1,3.64,1.83" />
    <path class="BUNTAI_OWL_JEWELRY_BUNTAI_OWL_JEWELRY_19_e" d="M130.92,167.46v.21l0,3.89" />
    <path class="BUNTAI_OWL_JEWELRY_BUNTAI_OWL_JEWELRY_19_e" d="M133.2,164.15a33.93,33.93,0,0,1,7.24,9" />
    <path class="BUNTAI_OWL_JEWELRY_BUNTAI_OWL_JEWELRY_19_e" d="M129.08,161.05a31.81,31.81,0,0,1,3.38,2.47l.74.62" />
    <path class="BUNTAI_OWL_JEWELRY_BUNTAI_OWL_JEWELRY_19_e" d="M132.46,163.52l.65.1a9.58,9.58,0,0,1,4.51,2.19l-1.8-.46a10.18,10.18,0,0,1,3.87,4.61,9.86,9.86,0,0,1,.75,3.16h0c0,.28,0,.55,0,.82" />
    <path class="BUNTAI_OWL_JEWELRY_BUNTAI_OWL_JEWELRY_19_e" d="M135.93,169.72a5.28,5.28,0,0,0,.93,1.31,37.09,37.09,0,0,0,3.61,2.92h0" />
    <path class="BUNTAI_OWL_JEWELRY_BUNTAI_OWL_JEWELRY_19_e" d="M133.2,164.14h0a26.33,26.33,0,0,0,1.36,5.14h0" />
    <path class="BUNTAI_OWL_JEWELRY_BUNTAI_OWL_JEWELRY_19_e" d="M134.7,179.77a12.28,12.28,0,0,0,.94.84c.88.73,1.82,1.4,2.69,2.15.25.21.5.44.74.67" />
    <g class="BUNTAI_OWL_JEWELRY_BUNTAI_OWL_JEWELRY_19_f">
      <path d="M105,163.84s-3,.12-4,2.47a11.43,11.43,0,0,0-2.63,7.31c1.75-1.3,2.57-2,2.57-2a31.72,31.72,0,0,1,2.33-4.92,26.17,26.17,0,0,1-1.31,5.62s-4,4.85-2.27,10.41c2-4.32,4.85-11.11,4.85-11.11a73,73,0,0,0-1,8c0,2.05.1,6.17,1.46,8.51,2.13-2.7,3.1-4.11,3.1-4.11s.8-.61,1.17-4.4,1-7.24,1-7.24l-3,7.89,1.57-9.09,2.1-.52s-.11,6.32-.2,9.66.74,10.77,2.23,13.24c1.57-7,2.43-11.72,2.59-12.34s1.07,2.32,1.07,2.32.43,8.61,2.66,10.78c.54-9.19,1.45-16.68,1.66-18s-.91-4-.91-4l-.44-.51s-.44,7.75-.31,12.69c-1.31-9.54-1.52-11.23-1.52-11.23l-1.1,2.15-2-2.64s-1.86,10.09-1.73,12.84l-.33-11.53-1.54.79s.57-4.89,0-5.19a8.75,8.75,0,0,0-3.36,1.66l-.47-3.06-3.14.32Z" />
      <path d="M113.32,151.57a9.74,9.74,0,0,0-3,10.22c1.83,6.51,11.54,9.9,16.78,3.29-3,1.84-10.17,4.4-14.29-1.24S113.32,151.57,113.32,151.57Z" />
    </g>
    <line class="BUNTAI_OWL_JEWELRY_BUNTAI_OWL_JEWELRY_19_b" x1="340.35" y1="149.09" x2="340.35" y2="143.24" />
    <path class="BUNTAI_OWL_JEWELRY_BUNTAI_OWL_JEWELRY_19_c" d="M340.36,143.24c1.58,0,1.32-2.16,1.32-2.16h0a4.34,4.34,0,0,1-1.94.41,1.75,1.75,0,0,1-.87-.22C338.87,141.4,338.84,143.24,340.36,143.24Z" />
    <path class="BUNTAI_OWL_JEWELRY_BUNTAI_OWL_JEWELRY_19_c" d="M337.64,134.74c-.58,1.93-.46,5.61,1.23,6.53a1.75,1.75,0,0,0,.87.22,4.34,4.34,0,0,0,1.94-.41c1.45-.7,2.18-2.34,2.08-4.83a7.85,7.85,0,0,0-.45-2.43,5,5,0,0,0-1.41-2.19,1.78,1.78,0,0,0-1.29-.54A2.19,2.19,0,0,0,339,132a3.21,3.21,0,0,0,.7.13h0a4,4,0,0,1,1.77,2.73c.44,2.11-.3,4.49-1.37,4.49s-1.2-2.76-1.13-4.23H339A5.1,5.1,0,0,1,337.64,134.74Z" />
    <path class="BUNTAI_OWL_JEWELRY_BUNTAI_OWL_JEWELRY_19_c" d="M342.34,124.43c-.37,1.94-.56,2.67-.56,2.67s1.93,1.68.82,3.75a2.19,2.19,0,0,1-.7.78,5,5,0,0,1,1.41,2.19A5.66,5.66,0,0,0,342.34,124.43Z" />
    <path class="BUNTAI_OWL_JEWELRY_BUNTAI_OWL_JEWELRY_19_c" d="M335.11,131.33a4.55,4.55,0,0,0,2.53,3.41,5.1,5.1,0,0,0,1.32.4h.09a4.89,4.89,0,0,0,2.5-.26,4,4,0,0,0-1.77-2.73h0a3.21,3.21,0,0,1-.7-.13,2.06,2.06,0,0,1-1.47-1.28,1.63,1.63,0,0,1-.08-.55c0-2.24.88-2.35.88-2.35s.05-.12.11-.31a2.9,2.9,0,0,0-2.25-1.88A7.62,7.62,0,0,0,335.11,131.33Z" />
    <path class="BUNTAI_OWL_JEWELRY_BUNTAI_OWL_JEWELRY_19_b" d="M343.31,133.82a5.66,5.66,0,0,0-1-9.39c-.39,1.6-.56,2.67-.56,2.67s1.93,1.68.82,3.75a2.19,2.19,0,0,1-.7.78" />
    <path class="BUNTAI_OWL_JEWELRY_BUNTAI_OWL_JEWELRY_19_b" d="M341.55,134.89a4.89,4.89,0,0,1-2.5.26H339a5.1,5.1,0,0,1-1.32-.4,4.55,4.55,0,0,1-2.53-3.41,7.62,7.62,0,0,1,1.12-5.68" />
    <path class="BUNTAI_OWL_JEWELRY_BUNTAI_OWL_JEWELRY_19_b" d="M338.48,127.53c-.06.19-.11.31-.11.31s-.86.11-.88,2.35a1.63,1.63,0,0,0,.08.55A2.06,2.06,0,0,0,339,132a3.21,3.21,0,0,0,.7.13" />
    <path class="BUNTAI_OWL_JEWELRY_BUNTAI_OWL_JEWELRY_19_b" d="M337.64,134.74c-.58,1.93-.46,5.61,1.23,6.53a1.75,1.75,0,0,0,.87.22,4.34,4.34,0,0,0,1.94-.41c1.45-.7,2.18-2.34,2.08-4.83a7.85,7.85,0,0,0-.45-2.43,5,5,0,0,0-1.41-2.19,1.78,1.78,0,0,0-1.29-.54A2.19,2.19,0,0,0,339,132" />
    <path class="BUNTAI_OWL_JEWELRY_BUNTAI_OWL_JEWELRY_19_b" d="M339.05,135.15c-.07,1.47-.06,4.23,1.13,4.23s1.81-2.38,1.37-4.49a4,4,0,0,0-1.77-2.73h0" />
    <path class="BUNTAI_OWL_JEWELRY_BUNTAI_OWL_JEWELRY_19_b" d="M341.68,141.08s.26,2.16-1.32,2.16-1.49-1.84-1.49-2h0" />
    <path class="BUNTAI_OWL_JEWELRY_BUNTAI_OWL_JEWELRY_19_b" d="M338.31,129.84a2.89,2.89,0,0,0,.33-1.34,3.08,3.08,0,0,0-.16-1,2.9,2.9,0,0,0-2.25-1.88,2.54,2.54,0,0,0-.49-.05,2,2,0,0,0-2,1.46" />
    <path class="BUNTAI_OWL_JEWELRY_BUNTAI_OWL_JEWELRY_19_c" d="M347.49,158.94a7.37,7.37,0,1,0-7.37,7.38A7.38,7.38,0,0,0,347.49,158.94Zm-7.37-9.69h.11a9.69,9.69,0,0,1,9.59,9.69,9.81,9.81,0,0,1-.14,1.64,9.44,9.44,0,0,1-1.18,3.26,9.83,9.83,0,0,1-2.07,2.47,10.12,10.12,0,0,1-2.67,1.63,9.63,9.63,0,0,1-3.64.7h0a9.66,9.66,0,0,1-2.86-.43,9.68,9.68,0,0,1-5.2-3.88,9.29,9.29,0,0,1-1.39-3.28,9.16,9.16,0,0,1-.24-2.11A9.69,9.69,0,0,1,340.12,149.25Z" />
    <path class="BUNTAI_OWL_JEWELRY_BUNTAI_OWL_JEWELRY_19_d" d="M320.05,170a9.86,9.86,0,0,0-.75,3.16,33.93,33.93,0,0,1,7.24-9h0l.74-.62-.65.1a9.58,9.58,0,0,0-4.51,2.19l1.8-.46A10.18,10.18,0,0,0,320.05,170Z" />
    <path class="BUNTAI_OWL_JEWELRY_BUNTAI_OWL_JEWELRY_19_d" d="M319.3,173.12h0c0,.28,0,.55,0,.82a37.09,37.09,0,0,0,3.61-2.92l.16.15a13.66,13.66,0,0,1,2.13-1.89h0a26.33,26.33,0,0,0,1.36-5.14A33.93,33.93,0,0,0,319.3,173.12Z" />
    <path class="BUNTAI_OWL_JEWELRY_BUNTAI_OWL_JEWELRY_19_d" d="M320.42,177.88a22.9,22.9,0,0,0,.25,5.55c.24-.23.49-.46.74-.67a34.77,34.77,0,0,1,7.41-15.09v-.21a13.67,13.67,0,0,0-3.64,1.83h0a13.66,13.66,0,0,0-2.13,1.89l1.54.11a4.87,4.87,0,0,0-3.13,2.56A10.18,10.18,0,0,0,320.42,177.88Z" />
    <path class="BUNTAI_OWL_JEWELRY_BUNTAI_OWL_JEWELRY_19_d" d="M328.82,167.67a34.77,34.77,0,0,0-7.41,15.09c.87-.75,1.81-1.42,2.69-2.15a12.28,12.28,0,0,0,.94-.84c0-.55.12-1.1.21-1.65a6.09,6.09,0,0,1,2.86-4.13l-1.39-.05a11.21,11.21,0,0,1,2.13-2.38Z" />
    <path class="BUNTAI_OWL_JEWELRY_BUNTAI_OWL_JEWELRY_19_d" d="M325,179.77a22.38,22.38,0,0,0,.42,7.11,43.39,43.39,0,0,1,6.79-17.29h0a11.59,11.59,0,0,0-3.39,2,11.21,11.21,0,0,0-2.13,2.38l1.39.05a6.09,6.09,0,0,0-2.86,4.13C325.16,178.67,325.08,179.22,325,179.77Z" />
    <path class="BUNTAI_OWL_JEWELRY_BUNTAI_OWL_JEWELRY_19_d" d="M325.46,186.88h0c.16.74.36,1.48.58,2.2a25.4,25.4,0,0,1,4.13-5.53,7.54,7.54,0,0,1,.91-2.86,21.08,21.08,0,0,1,2.37-3.42c-.43.06-.79.15-1.17.22-.17,0-.34.07-.52.09.22-.41.44-.81.68-1.21a22.74,22.74,0,0,0-.19-6.79A43.39,43.39,0,0,0,325.46,186.88Z" />
    <path class="BUNTAI_OWL_JEWELRY_BUNTAI_OWL_JEWELRY_19_d" d="M332.44,176.38c-.24.4-.46.8-.68,1.21.18,0,.35-.06.52-.09.38-.07.74-.16,1.17-.22a21.08,21.08,0,0,0-2.37,3.42,7.54,7.54,0,0,0-.91,2.86c-.38,3.16,1,6.67,2.95,9.57a67.1,67.1,0,0,1,2.93-21.39.16.16,0,0,1,0-.09A26.5,26.5,0,0,0,332.44,176.38Z" />
    <path class="BUNTAI_OWL_JEWELRY_BUNTAI_OWL_JEWELRY_19_d" d="M335.86,186.62a33.37,33.37,0,0,0,.91-9.65,1.73,1.73,0,0,1,.33.13,14.3,14.3,0,0,1,.37-2.19c-.26-.6-.56-1.17-.84-1.77a9.59,9.59,0,0,1-.58-1.4,67.1,67.1,0,0,0-2.93,21.39c.28.42.56.82.85,1.21C334.24,191.78,335.22,189.21,335.86,186.62Z" />
    <path class="BUNTAI_OWL_JEWELRY_BUNTAI_OWL_JEWELRY_19_d" d="M337.1,177.1c-.11,1.13-.11,2.29-.11,3.41a5,5,0,0,1,2.56.06,9.79,9.79,0,0,0-2.08,1.88,30.36,30.36,0,0,0,3,12.71,13.46,13.46,0,0,0,2.76-5.38,27.05,27.05,0,0,0,.33-8.19c-.49-.59-1.08-1.24-1.57-1.82.53-.27,1-.53,1.49-.79,0-.55,0-1.1,0-1.67a6.06,6.06,0,0,0-.14-1.71,2.83,2.83,0,0,0-.31-.74,25.72,25.72,0,0,0-2.85-3.79c-.09-.09-.17-.2-.27-.29A7.78,7.78,0,0,0,338.2,173a8.66,8.66,0,0,0-.73,1.91A14.3,14.3,0,0,0,337.1,177.1Z" />
    <path class="BUNTAI_OWL_JEWELRY_BUNTAI_OWL_JEWELRY_19_d" d="M348,193.1a67.17,67.17,0,0,0-2.94-21.36,12.42,12.42,0,0,1-.57,1.4,23.56,23.56,0,0,0-1.12,2.46,6.06,6.06,0,0,1,.14,1.71c.28-.12.57-.25.83-.34a33.37,33.37,0,0,0,.91,9.65c.63,2.59,1.62,5.16,1.89,7.72a14.59,14.59,0,0,0,.85-1.21h0S348,193.11,348,193.1Z" />
    <path class="BUNTAI_OWL_JEWELRY_BUNTAI_OWL_JEWELRY_19_d" d="M345.05,171.74A67.17,67.17,0,0,1,348,193.1c1.94-2.9,3.33-6.39,2.95-9.54a7.82,7.82,0,0,0-.9-2.86,22.47,22.47,0,0,0-2.38-3.42c.61.08,1.09.23,1.69.31-.22-.41-.44-.81-.68-1.21a27,27,0,0,0-3.59-4.73A.94.94,0,0,0,345.05,171.74Z" />
    <path class="BUNTAI_OWL_JEWELRY_BUNTAI_OWL_JEWELRY_19_d" d="M348.86,169.59a22.41,22.41,0,0,0-.19,6.79c.24.4.46.8.68,1.21-.6-.08-1.08-.23-1.69-.31A22.47,22.47,0,0,1,350,180.7a7.82,7.82,0,0,1,.9,2.86,25.23,25.23,0,0,1,4.11,5.53,21.22,21.22,0,0,0,.6-2.21A43.69,43.69,0,0,0,348.86,169.59Z" />
    <path class="BUNTAI_OWL_JEWELRY_BUNTAI_OWL_JEWELRY_19_d" d="M348.86,169.59a43.69,43.69,0,0,1,6.79,17.29,22.67,22.67,0,0,0,.42-7.11c-.06-.55-.12-1.1-.23-1.65A6.07,6.07,0,0,0,353,174l1.39-.05a11.49,11.49,0,0,0-2.13-2.38,11.64,11.64,0,0,0-3.4-2,0,0,0,0,1,0,0Z" />
    <path class="BUNTAI_OWL_JEWELRY_BUNTAI_OWL_JEWELRY_19_d" d="M353,174a6.07,6.07,0,0,1,2.84,4.13c.11.55.17,1.1.23,1.65a12.16,12.16,0,0,0,.93.84c.89.73,1.83,1.4,2.7,2.15a34.88,34.88,0,0,0-7.41-15.09l0,3.89a11.49,11.49,0,0,1,2.13,2.38Z" />
    <path class="BUNTAI_OWL_JEWELRY_BUNTAI_OWL_JEWELRY_19_d" d="M352.29,167.67a34.88,34.88,0,0,1,7.41,15.09c.25.21.49.44.73.67a22.41,22.41,0,0,0,.25-5.55,10.17,10.17,0,0,0-1-4,4.89,4.89,0,0,0-3.15-2.56l1.55-.11a.12.12,0,0,1-.05-.05,12.52,12.52,0,0,0-2.08-1.84,13.67,13.67,0,0,0-3.64-1.83Z" />
    <path class="BUNTAI_OWL_JEWELRY_BUNTAI_OWL_JEWELRY_19_d" d="M354.56,164.15a26.36,26.36,0,0,0,1.37,5.14,12.52,12.52,0,0,1,2.08,1.84l.16-.15a36.61,36.61,0,0,0,3.65,3v-.2c0-.2,0-.41,0-.62A33.78,33.78,0,0,0,354.56,164.15Z" />
    <path class="BUNTAI_OWL_JEWELRY_BUNTAI_OWL_JEWELRY_19_d" d="M354.56,164.15a33.78,33.78,0,0,1,7.24,9,9.91,9.91,0,0,0-.74-3.17,10.24,10.24,0,0,0-3.87-4.61l1.8.46a9.58,9.58,0,0,0-4.51-2.19l-.65-.1.73.62Z" />
    <path class="BUNTAI_OWL_JEWELRY_BUNTAI_OWL_JEWELRY_19_e" d="M340.23,149.25h-.11a9.69,9.69,0,0,0-9.7,9.69,9.16,9.16,0,0,0,.24,2.11,9.29,9.29,0,0,0,1.39,3.28,9.68,9.68,0,0,0,5.2,3.88,9.66,9.66,0,0,0,2.86.43h0a9.63,9.63,0,0,0,3.64-.7,10.12,10.12,0,0,0,2.67-1.63,9.83,9.83,0,0,0,2.07-2.47,9.44,9.44,0,0,0,1.18-3.26,9.81,9.81,0,0,0,.14-1.64A9.69,9.69,0,0,0,340.23,149.25Z" />
    <circle class="BUNTAI_OWL_JEWELRY_BUNTAI_OWL_JEWELRY_19_e" cx="340.12" cy="158.94" r="7.37" />
    <path class="BUNTAI_OWL_JEWELRY_BUNTAI_OWL_JEWELRY_19_e" d="M340.11,168.64c0,.65.05,1.29.07,1.93,0,.17,0,.33,0,.5.21,6.53.45,13.05.66,19.57" />
    <path class="BUNTAI_OWL_JEWELRY_BUNTAI_OWL_JEWELRY_19_e" d="M339.93,170.78l.25-.21" />
    <path class="BUNTAI_OWL_JEWELRY_BUNTAI_OWL_JEWELRY_19_e" d="M340.2,171.07c-.09-.09-.17-.2-.27-.29A7.78,7.78,0,0,0,338.2,173a8.66,8.66,0,0,0-.73,1.91,14.3,14.3,0,0,0-.37,2.19c-.11,1.13-.11,2.29-.11,3.41a5,5,0,0,1,2.56.06,9.79,9.79,0,0,0-2.08,1.88,30.36,30.36,0,0,0,3,12.71,13.46,13.46,0,0,0,2.76-5.38,27.05,27.05,0,0,0,.33-8.19c-.49-.59-1.08-1.24-1.57-1.82.53-.27,1-.53,1.49-.79,0-.55,0-1.1,0-1.67a6.06,6.06,0,0,0-.14-1.71,2.83,2.83,0,0,0-.31-.74,25.72,25.72,0,0,0-2.85-3.79" />
    <path class="BUNTAI_OWL_JEWELRY_BUNTAI_OWL_JEWELRY_19_e" d="M343.76,167.94c.44,1.18.85,2.39,1.23,3.61a.6.6,0,0,1,.06.19A67.17,67.17,0,0,1,348,193.1v0h0" />
    <path class="BUNTAI_OWL_JEWELRY_BUNTAI_OWL_JEWELRY_19_e" d="M345,171.55a.43.43,0,0,1,.09.1,27,27,0,0,1,3.59,4.73c.24.4.46.8.68,1.21-.6-.08-1.08-.23-1.69-.31A22.47,22.47,0,0,1,350,180.7a7.82,7.82,0,0,1,.9,2.86c.38,3.15-1,6.64-2.95,9.54,0,0,0,0,0,0h0a14.59,14.59,0,0,1-.85,1.21" />
    <path class="BUNTAI_OWL_JEWELRY_BUNTAI_OWL_JEWELRY_19_e" d="M347.13,194.34c-.27-2.56-1.26-5.13-1.89-7.72a33.37,33.37,0,0,1-.91-9.65c-.26.09-.55.22-.83.34" />
    <path class="BUNTAI_OWL_JEWELRY_BUNTAI_OWL_JEWELRY_19_e" d="M343.36,175.6a23.56,23.56,0,0,1,1.12-2.46,12.42,12.42,0,0,0,.57-1.4.94.94,0,0,1,0-.09" />
    <path class="BUNTAI_OWL_JEWELRY_BUNTAI_OWL_JEWELRY_19_e" d="M348.86,169.59a43.69,43.69,0,0,1,6.79,17.29" />
    <path class="BUNTAI_OWL_JEWELRY_BUNTAI_OWL_JEWELRY_19_e" d="M346.43,166.31a38.62,38.62,0,0,1,2.41,3.26,0,0,0,0,1,0,0" />
    <path class="BUNTAI_OWL_JEWELRY_BUNTAI_OWL_JEWELRY_19_e" d="M348.84,169.57h0a11.64,11.64,0,0,1,3.4,2,11.49,11.49,0,0,1,2.13,2.38L353,174a6.07,6.07,0,0,1,2.84,4.13c.11.55.17,1.1.23,1.65a22.67,22.67,0,0,1-.42,7.11,21.22,21.22,0,0,1-.6,2.21" />
    <path class="BUNTAI_OWL_JEWELRY_BUNTAI_OWL_JEWELRY_19_e" d="M348.67,176.38a22.41,22.41,0,0,1,.19-6.79h0a0,0,0,0,0,0,0" />
    <path class="BUNTAI_OWL_JEWELRY_BUNTAI_OWL_JEWELRY_19_e" d="M350.94,183.56a25.23,25.23,0,0,1,4.11,5.53" />
    <path class="BUNTAI_OWL_JEWELRY_BUNTAI_OWL_JEWELRY_19_e" d="M359.7,182.76a34.88,34.88,0,0,0-7.41-15.09,3.2,3.2,0,0,0-.25-.27,33.05,33.05,0,0,0-3.54-3.56" />
    <path class="BUNTAI_OWL_JEWELRY_BUNTAI_OWL_JEWELRY_19_e" d="M360.43,183.43a22.41,22.41,0,0,0,.25-5.55,10.17,10.17,0,0,0-1-4,4.89,4.89,0,0,0-3.15-2.56l1.55-.11a.12.12,0,0,1-.05-.05,12.52,12.52,0,0,0-2.08-1.84,13.67,13.67,0,0,0-3.64-1.83,2.27,2.27,0,0,1-.25-.06" />
    <path class="BUNTAI_OWL_JEWELRY_BUNTAI_OWL_JEWELRY_19_e" d="M352.29,167.46v.21l0,3.89" />
    <path class="BUNTAI_OWL_JEWELRY_BUNTAI_OWL_JEWELRY_19_e" d="M354.56,164.14l-.73-.62a33.46,33.46,0,0,0-4.15-2.94" />
    <path class="BUNTAI_OWL_JEWELRY_BUNTAI_OWL_JEWELRY_19_e" d="M361.8,173.13a33.78,33.78,0,0,0-7.24-9" />
    <path class="BUNTAI_OWL_JEWELRY_BUNTAI_OWL_JEWELRY_19_e" d="M353.83,163.52l.65.1a9.58,9.58,0,0,1,4.51,2.19l-1.8-.46a10.24,10.24,0,0,1,3.87,4.61,9.91,9.91,0,0,1,.74,3.17c0,.21,0,.42,0,.62v.2" />
    <path class="BUNTAI_OWL_JEWELRY_BUNTAI_OWL_JEWELRY_19_e" d="M357.29,169.72a5.28,5.28,0,0,0,.88,1.26,36.61,36.61,0,0,0,3.65,3h0" />
    <path class="BUNTAI_OWL_JEWELRY_BUNTAI_OWL_JEWELRY_19_e" d="M354.56,164.14h0a26.36,26.36,0,0,0,1.37,5.14" />
    <path class="BUNTAI_OWL_JEWELRY_BUNTAI_OWL_JEWELRY_19_e" d="M356.07,179.77a12.16,12.16,0,0,0,.93.84c.89.73,1.83,1.4,2.7,2.15.25.21.49.44.73.67" />
    <path class="BUNTAI_OWL_JEWELRY_BUNTAI_OWL_JEWELRY_19_e" d="M333.12,193.13a67.1,67.1,0,0,1,2.93-21.39l.06-.19c.35-1.13.72-2.24,1.14-3.34" />
    <path class="BUNTAI_OWL_JEWELRY_BUNTAI_OWL_JEWELRY_19_e" d="M336.11,171.55l-.09.1a26.5,26.5,0,0,0-3.58,4.73c-.24.4-.46.8-.68,1.21.18,0,.35-.06.52-.09.38-.07.74-.16,1.17-.22a21.08,21.08,0,0,0-2.37,3.42,7.54,7.54,0,0,0-.91,2.86c-.38,3.16,1,6.67,2.95,9.57.28.42.56.82.85,1.21" />
    <path class="BUNTAI_OWL_JEWELRY_BUNTAI_OWL_JEWELRY_19_e" d="M337.1,177.1a1.73,1.73,0,0,0-.33-.13,33.37,33.37,0,0,1-.91,9.65c-.64,2.59-1.62,5.16-1.89,7.72" />
    <path class="BUNTAI_OWL_JEWELRY_BUNTAI_OWL_JEWELRY_19_e" d="M337.47,174.91c-.26-.6-.56-1.17-.84-1.77a9.59,9.59,0,0,1-.58-1.4.16.16,0,0,1,0-.09" />
    <path class="BUNTAI_OWL_JEWELRY_BUNTAI_OWL_JEWELRY_19_e" d="M332.25,169.58h0c.65-1,1.35-1.93,2.07-2.84" />
    <path class="BUNTAI_OWL_JEWELRY_BUNTAI_OWL_JEWELRY_19_e" d="M325.46,186.88a43.39,43.39,0,0,1,6.79-17.29" />
    <path class="BUNTAI_OWL_JEWELRY_BUNTAI_OWL_JEWELRY_19_e" d="M326,189.09c-.22-.72-.42-1.46-.58-2.2h0a22.38,22.38,0,0,1-.42-7.11c0-.55.12-1.1.21-1.65a6.09,6.09,0,0,1,2.86-4.13l-1.39-.05a11.21,11.21,0,0,1,2.13-2.38,11.59,11.59,0,0,1,3.39-2h0" />
    <path class="BUNTAI_OWL_JEWELRY_BUNTAI_OWL_JEWELRY_19_e" d="M332.44,176.38a22.74,22.74,0,0,0-.19-6.79h0" />
    <path class="BUNTAI_OWL_JEWELRY_BUNTAI_OWL_JEWELRY_19_e" d="M326,189.09a25.4,25.4,0,0,1,4.13-5.53" />
    <path class="BUNTAI_OWL_JEWELRY_BUNTAI_OWL_JEWELRY_19_e" d="M332.05,164.33a32.12,32.12,0,0,0-3,3.07,3.08,3.08,0,0,0-.24.27,34.77,34.77,0,0,0-7.41,15.09" />
    <path class="BUNTAI_OWL_JEWELRY_BUNTAI_OWL_JEWELRY_19_e" d="M325.17,169.29a13.66,13.66,0,0,0-2.13,1.89l1.54.11a4.87,4.87,0,0,0-3.13,2.56,10.18,10.18,0,0,0-1,4,22.9,22.9,0,0,0,.25,5.55" />
    <path class="BUNTAI_OWL_JEWELRY_BUNTAI_OWL_JEWELRY_19_e" d="M329.06,167.4l-.24.06a13.67,13.67,0,0,0-3.64,1.83" />
    <path class="BUNTAI_OWL_JEWELRY_BUNTAI_OWL_JEWELRY_19_e" d="M328.82,167.46v.21l0,3.89" />
    <path class="BUNTAI_OWL_JEWELRY_BUNTAI_OWL_JEWELRY_19_e" d="M326.54,164.15a33.93,33.93,0,0,0-7.24,9" />
    <path class="BUNTAI_OWL_JEWELRY_BUNTAI_OWL_JEWELRY_19_e" d="M330.66,161.05a31.81,31.81,0,0,0-3.38,2.47l-.74.62" />
    <path class="BUNTAI_OWL_JEWELRY_BUNTAI_OWL_JEWELRY_19_e" d="M327.28,163.52l-.65.1a9.58,9.58,0,0,0-4.51,2.19l1.8-.46a10.18,10.18,0,0,0-3.87,4.61,9.86,9.86,0,0,0-.75,3.16h0c0,.28,0,.55,0,.82" />
    <path class="BUNTAI_OWL_JEWELRY_BUNTAI_OWL_JEWELRY_19_e" d="M323.81,169.72a5.28,5.28,0,0,1-.93,1.31,37.09,37.09,0,0,1-3.61,2.92h0" />
    <path class="BUNTAI_OWL_JEWELRY_BUNTAI_OWL_JEWELRY_19_e" d="M326.54,164.14h0a26.33,26.33,0,0,1-1.36,5.14h0" />
    <path class="BUNTAI_OWL_JEWELRY_BUNTAI_OWL_JEWELRY_19_e" d="M325,179.77a12.28,12.28,0,0,1-.94.84c-.88.73-1.82,1.4-2.69,2.15-.25.21-.5.44-.74.67" />
    <g class="BUNTAI_OWL_JEWELRY_BUNTAI_OWL_JEWELRY_19_f">
      <path d="M354.75,163.84s3,.12,4,2.47a11.43,11.43,0,0,1,2.63,7.31c-1.75-1.3-2.57-2-2.57-2a31.72,31.72,0,0,0-2.33-4.92,26.17,26.17,0,0,0,1.31,5.62s4,4.85,2.27,10.41c-2.05-4.32-4.85-11.11-4.85-11.11a73,73,0,0,1,1,8c0,2.05-.1,6.17-1.46,8.51-2.13-2.7-3.1-4.11-3.1-4.11s-.8-.61-1.17-4.4-1-7.24-1-7.24l3,7.89-1.57-9.09-2.1-.52s.11,6.32.2,9.66-.74,10.77-2.22,13.24c-1.58-7-2.44-11.72-2.6-12.34s-1.07,2.32-1.07,2.32-.43,8.61-2.66,10.78c-.54-9.19-1.45-16.68-1.66-18s.91-4,.91-4l.44-.51s.44,7.75.31,12.69C341.8,175,342,173.3,342,173.3l1.1,2.15,2-2.64s1.86,10.09,1.74,12.84l.32-11.53,1.54.79s-.57-4.89,0-5.19a8.75,8.75,0,0,1,3.36,1.66l.47-3.06,3.14.32Z" />
      <path d="M346.42,151.57a9.74,9.74,0,0,1,3,10.22c-1.83,6.51-11.54,9.9-16.78,3.29,3,1.84,10.17,4.4,14.29-1.24S346.42,151.57,346.42,151.57Z" />
    </g>
    <path class="BUNTAI_OWL_JEWELRY_BUNTAI_OWL_JEWELRY_19_g" d="M195.77,388.12l1.33.46c.73.25,1.71.59,2.87,1l1,.33,1.32.43.29.09,1,.31,2.19.67c.53.17,1.07.33,1.6.48s1.33.38,2,.56l.64.18.68.18,1.43.35.76.18.87.19c.49-1.62,1-3,1-3l-.89-.24h0l-.61-.17-.28-.08-1.67-.45-1.22-.35c-.55-.15-1.12-.3-1.69-.47l-2.5-.7-1-.29-1.63-.49-.43-.13-.63-.2-.94-.3-1.17-.38-.73-.24-1.05-.36-.08,0-1.59-.55a6.31,6.31,0,0,0-1,1.77A2.32,2.32,0,0,0,195.77,388.12Z" />
    <polyline class="BUNTAI_OWL_JEWELRY_BUNTAI_OWL_JEWELRY_19_g" points="214.69 390.48 215.5 388.48 216.01 388.59 215.62 390.94 215.12 390.84 214.4 393.31 214.87 393.4 213.77 395.48 213.38 395.31 213.7 393.5" />
    <line class="BUNTAI_OWL_JEWELRY_BUNTAI_OWL_JEWELRY_19_g" x1="216.47" y1="391.11" x2="215.61" y2="390.94" />
    <line class="BUNTAI_OWL_JEWELRY_BUNTAI_OWL_JEWELRY_19_g" x1="215.79" y1="393.59" x2="214.87" y2="393.4" />
    <path class="BUNTAI_OWL_JEWELRY_BUNTAI_OWL_JEWELRY_19_g" d="M213.8,390.24s-.66,1.9-1,3.07" />
    <path class="BUNTAI_OWL_JEWELRY_BUNTAI_OWL_JEWELRY_19_g" d="M197.1,388.58a10,10,0,0,1,1.15-2.95" />
    <path class="BUNTAI_OWL_JEWELRY_BUNTAI_OWL_JEWELRY_19_g" d="M197.65,388.77s.85-1.28,1.65-2.78" />
    <path class="BUNTAI_OWL_JEWELRY_BUNTAI_OWL_JEWELRY_19_g" d="M200,386.23a5.58,5.58,0,0,1-1,3" />
    <path class="BUNTAI_OWL_JEWELRY_BUNTAI_OWL_JEWELRY_19_g" d="M202.14,386.91a18.76,18.76,0,0,1-1.17,3" />
    <path class="BUNTAI_OWL_JEWELRY_BUNTAI_OWL_JEWELRY_19_g" d="M201.2,386.61a5,5,0,0,1-1.23,2.94" />
    <path class="BUNTAI_OWL_JEWELRY_BUNTAI_OWL_JEWELRY_19_g" d="M202.77,387.11a15.18,15.18,0,0,1-.13,2.9l-.06.39" />
    <path class="BUNTAI_OWL_JEWELRY_BUNTAI_OWL_JEWELRY_19_g" d="M202.29,390.31l.35-.3a15.09,15.09,0,0,0,2.19-2.28" />
    <path class="BUNTAI_OWL_JEWELRY_BUNTAI_OWL_JEWELRY_19_g" d="M205.83,388l-.19.25a17.33,17.33,0,0,1-2.09,2.44" />
    <path class="BUNTAI_OWL_JEWELRY_BUNTAI_OWL_JEWELRY_19_g" d="M205.64,388.27a4.56,4.56,0,0,1,.22,2c0,.37-.07.74-.12,1.08" />
    <path class="BUNTAI_OWL_JEWELRY_BUNTAI_OWL_JEWELRY_19_g" d="M205.86,390.3a7,7,0,0,0,1.56-.85c.15-.11.29-.21.42-.32s.34-.27.49-.41" />
    <path class="BUNTAI_OWL_JEWELRY_BUNTAI_OWL_JEWELRY_19_g" d="M207.42,389.45a6.63,6.63,0,0,1-.08,2.41" />
    <path class="BUNTAI_OWL_JEWELRY_BUNTAI_OWL_JEWELRY_19_g" d="M210,389.19a6.73,6.73,0,0,1-.4,2.53,5.89,5.89,0,0,1-.3.7" />
    <path class="BUNTAI_OWL_JEWELRY_BUNTAI_OWL_JEWELRY_19_g" d="M207.84,389.13a11.3,11.3,0,0,1,1.78,2.59" />
    <path class="BUNTAI_OWL_JEWELRY_BUNTAI_OWL_JEWELRY_19_g" d="M213.19,390.07a10.46,10.46,0,0,1-1.12,3.06" />
    <path class="BUNTAI_OWL_JEWELRY_BUNTAI_OWL_JEWELRY_19_g" d="M212.91,390a10.77,10.77,0,0,1-2.27,2.79" />
    <line class="BUNTAI_OWL_JEWELRY_BUNTAI_OWL_JEWELRY_19_g" x1="209.96" y1="392.6" x2="211.24" y2="389.54" />
    <path class="BUNTAI_OWL_JEWELRY_BUNTAI_OWL_JEWELRY_19_g" d="M260.88,394.43a38.48,38.48,0,0,1-13.27,2.95c-13.86.95-29.51-2.56-32-3.15l1-3.74c2.2.52,23.18,6.22,45.18,1.58C263,391.82,262,393.94,260.88,394.43Z" />
    <line class="BUNTAI_OWL_JEWELRY_BUNTAI_OWL_JEWELRY_19_g" x1="216.64" y1="390.49" x2="215.61" y2="394.23" />
    <path class="BUNTAI_OWL_JEWELRY_BUNTAI_OWL_JEWELRY_19_h" d="M228.13,390.2l-.3,0c-37.26-7.87-55.76-30.59-64.72-48.25-9.67-19.08-11.92-41.3-11.93-41.48a3.09,3.09,0,0,1,1.22-2.21c1.18-.61,2-.23,3.42,1.16a24.59,24.59,0,0,1-1.49,2c0,.17,1.7,20.95,11.2,39.65,8.69,17.11,26.6,39.09,62.54,46.81C266,376.13,283.35,354,291.23,337.42a85.37,85.37,0,0,0,8.16-35.57,6.11,6.11,0,0,0-1.43-1.62,2.78,2.78,0,0,1,2.66-.61c1.2.21,1.3,2.06,1.33,2.69a85.36,85.36,0,0,1-8.31,36c-8.12,17-26,39.84-65.07,51.85A1.61,1.61,0,0,1,228.13,390.2Z" />
    <path class="BUNTAI_OWL_JEWELRY_BUNTAI_OWL_JEWELRY_19_i" d="M225.12,387.11l1.76.42s1.83-.9,2.59.36.4,2.17-.58,2.57-2.43.05-2.7-.65a4.31,4.31,0,0,0-1.7-.33,3.75,3.75,0,0,0,3.06,2.58c2.36.21,3.8-1.07,4-2.75a2.87,2.87,0,0,0-1.9-3.06A3.94,3.94,0,0,0,225.12,387.11Z" />
    <path class="BUNTAI_OWL_JEWELRY_BUNTAI_OWL_JEWELRY_19_j" d="M224.4,389.4a3.4,3.4,0,0,0,3.21,2.74H228a3.85,3.85,0,0,0,2.4-.8,3,3,0,0,0,1.2-2.17.91.91,0,0,0,0-.17,3,3,0,0,0-.81-2,3.86,3.86,0,0,0-2.8-1.14A3.76,3.76,0,0,0,225,387.2l1.79.42a2,2,0,0,1,1.14-.33,2.09,2.09,0,0,1,1.08.29,1.65,1.65,0,0,1,.89,1.43,1.51,1.51,0,0,1-.21.77,2.11,2.11,0,0,1-3.49.05h0Z" />
  </g>
</svg>