<svg xmlns="http://www.w3.org/2000/svg" viewBox="0 0 432 432">
  <defs>
    <style>.BUNTAI_OWL_JEWELRY_BUNTAI_OWL_JEWELRY_20_a,.BUNTAI_OWL_JEWELRY_BUNTAI_OWL_JEWELRY_20_r{fill:#fff;}.BUNTAI_OWL_JEWELRY_BUNTAI_OWL_JEWELRY_20_b{fill:#666;}.BUNTAI_OWL_JEWELRY_BUNTAI_OWL_JEWELRY_20_c{fill:#c7a858;}.BUNTAI_OWL_JEWELRY_BUNTAI_OWL_JEWELRY_20_d,.BUNTAI_OWL_JEWELRY_BUNTAI_OWL_JEWELRY_20_h,.BUNTAI_OWL_JEWELRY_BUNTAI_OWL_JEWELRY_20_k,.BUNTAI_OWL_JEWELRY_BUNTAI_OWL_JEWELRY_20_m,.BUNTAI_OWL_JEWELRY_BUNTAI_OWL_JEWELRY_20_o,.BUNTAI_OWL_JEWELRY_BUNTAI_OWL_JEWELRY_20_p{fill:none;stroke-linecap:round;stroke-linejoin:round;}.BUNTAI_OWL_JEWELRY_BUNTAI_OWL_JEWELRY_20_d,.BUNTAI_OWL_JEWELRY_BUNTAI_OWL_JEWELRY_20_h,.BUNTAI_OWL_JEWELRY_BUNTAI_OWL_JEWELRY_20_i,.BUNTAI_OWL_JEWELRY_BUNTAI_OWL_JEWELRY_20_k,.BUNTAI_OWL_JEWELRY_BUNTAI_OWL_JEWELRY_20_l,.BUNTAI_OWL_JEWELRY_BUNTAI_OWL_JEWELRY_20_m,.BUNTAI_OWL_JEWELRY_BUNTAI_OWL_JEWELRY_20_o,.BUNTAI_OWL_JEWELRY_BUNTAI_OWL_JEWELRY_20_p{stroke:#000;}.BUNTAI_OWL_JEWELRY_BUNTAI_OWL_JEWELRY_20_d{stroke-width:1.22px;}.BUNTAI_OWL_JEWELRY_BUNTAI_OWL_JEWELRY_20_e{fill:#c32b2a;}.BUNTAI_OWL_JEWELRY_BUNTAI_OWL_JEWELRY_20_f{fill:#bdb079;}.BUNTAI_OWL_JEWELRY_BUNTAI_OWL_JEWELRY_20_g{fill:#273462;}.BUNTAI_OWL_JEWELRY_BUNTAI_OWL_JEWELRY_20_h{stroke-width:1.62px;}.BUNTAI_OWL_JEWELRY_BUNTAI_OWL_JEWELRY_20_i{fill:#754c24;stroke-width:1.17px;}.BUNTAI_OWL_JEWELRY_BUNTAI_OWL_JEWELRY_20_i,.BUNTAI_OWL_JEWELRY_BUNTAI_OWL_JEWELRY_20_l{stroke-miterlimit:10;}.BUNTAI_OWL_JEWELRY_BUNTAI_OWL_JEWELRY_20_j{fill:#333;}.BUNTAI_OWL_JEWELRY_BUNTAI_OWL_JEWELRY_20_k{stroke-width:0.76px;}.BUNTAI_OWL_JEWELRY_BUNTAI_OWL_JEWELRY_20_l,.BUNTAI_OWL_JEWELRY_BUNTAI_OWL_JEWELRY_20_n{fill:#ffca22;}.BUNTAI_OWL_JEWELRY_BUNTAI_OWL_JEWELRY_20_l{stroke-width:0.5px;}.BUNTAI_OWL_JEWELRY_BUNTAI_OWL_JEWELRY_20_m{stroke-width:0.7px;}.BUNTAI_OWL_JEWELRY_BUNTAI_OWL_JEWELRY_20_o{stroke-width:0.67px;}.BUNTAI_OWL_JEWELRY_BUNTAI_OWL_JEWELRY_20_p{stroke-width:0.54px;}.BUNTAI_OWL_JEWELRY_BUNTAI_OWL_JEWELRY_20_q{opacity:0.38;}.BUNTAI_OWL_JEWELRY_BUNTAI_OWL_JEWELRY_20_r{opacity:0.74;}</style>
  </defs>
  <path class="BUNTAI_OWL_JEWELRY_BUNTAI_OWL_JEWELRY_20_a" d="M321.79,208.3a17.7,17.7,0,0,0,15.63-4.92,8.63,8.63,0,0,1-5.86-4.75C330,201.19,327.14,204.69,321.79,208.3Z" />
  <path class="BUNTAI_OWL_JEWELRY_BUNTAI_OWL_JEWELRY_20_a" d="M321.57,208.44c3,1.25,14.09,4.73,24.3-7.6a8.56,8.56,0,0,1-3.41-.49,42.27,42.27,0,0,0,4.09-1.72,45.4,45.4,0,0,0,.49-15.55l-2.88-1.78.48,2.59-2-1.59c.71,6,.46,12.84-2.68,17.8a19.61,19.61,0,0,1-2.55,3.28,17.7,17.7,0,0,1-15.63,4.92Z" />
  <path class="BUNTAI_OWL_JEWELRY_BUNTAI_OWL_JEWELRY_20_b" d="M340.35,175.22s-4,1.29-4.85,1.2l3.25,1.47-2.24.8,2.42.8s-2.79,3.72-4.7,4.27c4.3-.12,6-1.17,6-1.17l1.17,2.89,1.2-3.18a66.67,66.67,0,0,0-1.27-7.08Z" />
  <path class="BUNTAI_OWL_JEWELRY_BUNTAI_OWL_JEWELRY_20_a" d="M341.45,185.48l-1.17-2.89-.06,2.09s-2,6.57-5.1,8.23c2.15,5,2.15,6.08,2.15,6.08l-4-4.42a12.44,12.44,0,0,1-1.72,4.06,8.63,8.63,0,0,0,5.86,4.75A19.61,19.61,0,0,0,340,200.1c3.14-5,3.39-11.75,2.68-17.8Z" />
  <path class="BUNTAI_OWL_JEWELRY_BUNTAI_OWL_JEWELRY_20_b" d="M341.38,175.22a66.67,66.67,0,0,1,1.27,7.08l2,1.59-.48-2.59,2.88,1.78a7.28,7.28,0,0,0,2.76,1.6,14.24,14.24,0,0,1-2.51-4.54l1.41-.62L346.8,178l1.72-2.08s-3.26-.07-3.63-.12-2.43-.56-2.43-.56Z" />
  <path class="BUNTAI_OWL_JEWELRY_BUNTAI_OWL_JEWELRY_20_c" d="M339,163.06a3.19,3.19,0,1,0,.21,0Z" />
  <path class="BUNTAI_OWL_JEWELRY_BUNTAI_OWL_JEWELRY_20_c" d="M340.92,149.07a6.15,6.15,0,0,1-2.8.59,2.54,2.54,0,0,1-1.25-.31c0,.19-.05,2.84,2.14,2.84s1.91-3.11,1.91-3.11Z" />
  <path class="BUNTAI_OWL_JEWELRY_BUNTAI_OWL_JEWELRY_20_c" d="M342.79,125.29a16.61,16.61,0,0,0-.51,4,4.72,4.72,0,0,1,0,5,3.15,3.15,0,0,1-1,1.13,7.35,7.35,0,0,1,2,3.15C347,135.33,348.88,129.05,342.79,125.29Z" />
  <path class="BUNTAI_OWL_JEWELRY_BUNTAI_OWL_JEWELRY_20_c" d="M338.16,136.21h0a5.78,5.78,0,0,1,2.56,3.93c.64,3.05-.43,6.48-2,6.48-1.72,0-1.74-4-1.63-6.09l-.13,0a7.43,7.43,0,0,1-1.9-.58c-.84,2.78-.67,8.09,1.77,9.42a2.54,2.54,0,0,0,1.25.31,6.15,6.15,0,0,0,2.8-.59c2.09-1,3.14-3.37,3-7a11.54,11.54,0,0,0-.65-3.5,7.35,7.35,0,0,0-2-3.15,2.63,2.63,0,0,0-1.86-.78,3.2,3.2,0,0,0-2.27,1.34,4.75,4.75,0,0,0,1,.19Z" />
  <path class="BUNTAI_OWL_JEWELRY_BUNTAI_OWL_JEWELRY_20_c" d="M333.67,125.91c-2.75,2.63-4.05,11.51,1.43,14a7.43,7.43,0,0,0,1.9.58l.13,0a7,7,0,0,0,3.6-.39,5.78,5.78,0,0,0-2.56-3.93h-.05a4.75,4.75,0,0,1-1-.19,2.8,2.8,0,0,1-2.24-2.63c0-3.23,2-4.21,2-4.21S338.05,125.46,333.67,125.91Z" />
  <path class="BUNTAI_OWL_JEWELRY_BUNTAI_OWL_JEWELRY_20_d" d="M343.27,138.6c3.7-3.27,5.61-9.55-.48-13.31-.4,2.74-.51,4-.51,4a4.72,4.72,0,0,1,0,5,3.15,3.15,0,0,1-1,1.13" />
  <path class="BUNTAI_OWL_JEWELRY_BUNTAI_OWL_JEWELRY_20_d" d="M338.12,136.2a4.75,4.75,0,0,1-1-.19,2.8,2.8,0,0,1-2.24-2.63c0-3.23,2-4.21,2-4.21s1.18-3.71-3.2-3.26c-2.75,2.63-4.05,11.51,1.43,14a7.43,7.43,0,0,0,1.9.58l.13,0a7,7,0,0,0,3.6-.39" />
  <path class="BUNTAI_OWL_JEWELRY_BUNTAI_OWL_JEWELRY_20_d" d="M335.1,139.93c-.84,2.78-.67,8.09,1.77,9.42a2.54,2.54,0,0,0,1.25.31,6.15,6.15,0,0,0,2.8-.59c2.09-1,3.14-3.37,3-7a11.54,11.54,0,0,0-.65-3.5,7.35,7.35,0,0,0-2-3.15,2.63,2.63,0,0,0-1.86-.78,3.2,3.2,0,0,0-2.27,1.34" />
  <path class="BUNTAI_OWL_JEWELRY_BUNTAI_OWL_JEWELRY_20_d" d="M337.13,140.53c-.11,2.11-.09,6.09,1.63,6.09,1.54,0,2.61-3.43,2-6.48a5.78,5.78,0,0,0-2.56-3.93h-.05" />
  <path class="BUNTAI_OWL_JEWELRY_BUNTAI_OWL_JEWELRY_20_d" d="M340.92,149.08s.37,3.11-1.91,3.11-2.15-2.65-2.14-2.84h0" />
  <path class="BUNTAI_OWL_JEWELRY_BUNTAI_OWL_JEWELRY_20_d" d="M339,163.06a3.19,3.19,0,1,0,.21,0Z" />
  <path class="BUNTAI_OWL_JEWELRY_BUNTAI_OWL_JEWELRY_20_d" d="M341.38,175.22h1.08s2.06.49,2.43.56,3.63.12,3.63.12L346.8,178l1.9,1.54-1.41.62a14.24,14.24,0,0,0,2.51,4.54,7.28,7.28,0,0,1-2.76-1.6,45.4,45.4,0,0,1-.49,15.55,42.27,42.27,0,0,1-4.09,1.72,8.56,8.56,0,0,0,3.41.49c-10.21,12.33-21.34,8.85-24.3,7.6l.22-.14c5.35-3.61,8.23-7.11,9.77-9.67a12.44,12.44,0,0,0,1.72-4.06l4,4.42s0-1-2.15-6.08c3.08-1.66,5.1-8.23,5.1-8.23l.06-2.09s-1.75,1-6,1.17c1.91-.55,4.7-4.27,4.7-4.27l-2.42-.8,2.24-.8-3.25-1.47c.85.09,4.85-1.2,4.85-1.2h1" />
  <path class="BUNTAI_OWL_JEWELRY_BUNTAI_OWL_JEWELRY_20_d" d="M339.77,169.48c.42,1.26,1,3.27,1.61,5.74a66.67,66.67,0,0,1,1.27,7.08c.71,6,.46,12.84-2.68,17.8a19.61,19.61,0,0,1-2.55,3.28,17.7,17.7,0,0,1-15.63,4.92" />
  <path class="BUNTAI_OWL_JEWELRY_BUNTAI_OWL_JEWELRY_20_d" d="M337.42,203.38a8.63,8.63,0,0,1-5.86-4.75" />
  <polyline class="BUNTAI_OWL_JEWELRY_BUNTAI_OWL_JEWELRY_20_d" points="340.28 182.59 341.45 185.48 342.65 182.3 344.64 183.89 344.16 181.3 347.04 183.08" />
  <line class="BUNTAI_OWL_JEWELRY_BUNTAI_OWL_JEWELRY_20_d" x1="339.01" y1="163.06" x2="339.01" y2="152.19" />
  <path class="BUNTAI_OWL_JEWELRY_BUNTAI_OWL_JEWELRY_20_d" d="M330.41,127.47s3.08-3.19,6-1-.14,6-.14,6" />
  <ellipse class="BUNTAI_OWL_JEWELRY_BUNTAI_OWL_JEWELRY_20_e" cx="228.61" cy="371.22" rx="3.38" ry="3.42" />
  <path class="BUNTAI_OWL_JEWELRY_BUNTAI_OWL_JEWELRY_20_f" d="M247.05,358.86l-4.88-3.69,3.05,4.13s2.49,17-16.61,28c-19.09-11-16.61-28-16.61-28l3.06-4.13-4.89,3.69s-3.84,24.71,18.44,31.19C250.9,383.57,247.05,358.86,247.05,358.86Z" />
  <path class="BUNTAI_OWL_JEWELRY_BUNTAI_OWL_JEWELRY_20_f" d="M238,359.82c.52,3.1-.23,8.87-4.28,11.82a6.11,6.11,0,0,0-3.32-6.55v-4.24h-3.51v4.24a6.13,6.13,0,0,0-3.33,6.55c-4.05-2.95-4.8-8.72-4.27-11.82-3.67,5.6-3.26,11.74,3.83,16.14l-1.57,2.79a21.63,21.63,0,0,0,2.49,1.49c1.47-2.36,1.76-2.92,1.76-2.92a4.23,4.23,0,0,0,5.69,0s.29.56,1.75,2.92a20.77,20.77,0,0,0,2.49-1.49L234.14,376C241.22,371.56,241.64,365.42,238,359.82Zm-9.36,14.82a3.42,3.42,0,1,1,3.38-3.42A3.4,3.4,0,0,1,228.61,374.64Z" />
  <path class="BUNTAI_OWL_JEWELRY_BUNTAI_OWL_JEWELRY_20_g" d="M245.22,359.3l-3.05-4.12-5.94,3.19H221l-5.93-3.19L212,359.3s-2.5,17,16.6,28C247.71,376.27,245.22,359.3,245.22,359.3ZM234.14,376l1.56,2.79a20.77,20.77,0,0,1-2.49,1.49c-1.46-2.36-1.75-2.92-1.75-2.92a4.23,4.23,0,0,1-5.69,0s-.29.56-1.76,2.92a21.63,21.63,0,0,1-2.49-1.49l1.57-2.79c-7.09-4.4-7.5-10.54-3.83-16.14-.53,3.1.22,8.87,4.27,11.82a6.13,6.13,0,0,1,3.33-6.55v-4.24h3.51v4.24a6.11,6.11,0,0,1,3.32,6.55c4.05-2.95,4.8-8.72,4.28-11.82C241.64,365.42,241.22,371.56,234.14,376Z" />
  <path class="BUNTAI_OWL_JEWELRY_BUNTAI_OWL_JEWELRY_20_h" d="M228.61,374.65a3.43,3.43,0,0,1,0-6.85" />
  <path class="BUNTAI_OWL_JEWELRY_BUNTAI_OWL_JEWELRY_20_h" d="M228.61,358.37H221l-5.93-3.2-4.89,3.69s-3.84,24.71,18.44,31.19" />
  <path class="BUNTAI_OWL_JEWELRY_BUNTAI_OWL_JEWELRY_20_h" d="M215.06,355.17,212,359.3s-2.48,17,16.61,28" />
  <path class="BUNTAI_OWL_JEWELRY_BUNTAI_OWL_JEWELRY_20_h" d="M228.61,360.85h-1.76v4.24a6.11,6.11,0,0,0-3.32,6.54c-4.05-2.94-4.8-8.7-4.27-11.81-3.68,5.6-3.26,11.75,3.83,16.15l-1.57,2.78a19.51,19.51,0,0,0,2.49,1.49c1.47-2.36,1.76-2.91,1.76-2.91a5.78,5.78,0,0,0,2.84,1.1" />
  <path class="BUNTAI_OWL_JEWELRY_BUNTAI_OWL_JEWELRY_20_h" d="M228.61,367.8a3.43,3.43,0,0,1,0,6.85" />
  <path class="BUNTAI_OWL_JEWELRY_BUNTAI_OWL_JEWELRY_20_h" d="M228.61,387.26v2.79c22.29-6.48,18.44-31.19,18.44-31.19l-4.88-3.69-5.94,3.2h-7.62" />
  <path class="BUNTAI_OWL_JEWELRY_BUNTAI_OWL_JEWELRY_20_h" d="M242.17,355.17l3.05,4.13s2.49,17-16.61,28" />
  <path class="BUNTAI_OWL_JEWELRY_BUNTAI_OWL_JEWELRY_20_h" d="M228.61,360.85h1.76v4.24a6.09,6.09,0,0,1,3.32,6.54c4.05-2.94,4.8-8.7,4.27-11.81,3.68,5.6,3.26,11.75-3.82,16.15l1.56,2.78a19.51,19.51,0,0,1-2.49,1.49c-1.47-2.36-1.75-2.91-1.75-2.91a5.84,5.84,0,0,1-2.85,1.1" />
  <path class="BUNTAI_OWL_JEWELRY_BUNTAI_OWL_JEWELRY_20_i" d="M304.2,301.84a2.91,2.91,0,0,0-4.32.44l1.22,2.14c-6.42,15.65-28.82,35.18-73.36,48.46-47.09-13.26-69.89-44.82-73.64-50.39l1.29-2.2s-1.61-2.81-5-.74c-.94.84-.77,2.63-.27,3.45l.49.75h0s27.67,39,76.71,52.63a1.84,1.84,0,0,0,.47.06,1.61,1.61,0,0,0,.49-.07C275.43,342.42,299,320.61,305,304A2.14,2.14,0,0,0,304.2,301.84Z" />
  <path class="BUNTAI_OWL_JEWELRY_BUNTAI_OWL_JEWELRY_20_j" d="M225.06,352.14l2.14.58s2.22-1.24,3.13.5.48,3-.7,3.52-2.94.07-3.27-.88a4.55,4.55,0,0,0-2.06-.46s.87,3.26,3.71,3.54a4.16,4.16,0,0,0,4.87-3.77,4,4,0,0,0-2.29-4.21A4.38,4.38,0,0,0,225.06,352.14Z" />
  <path class="BUNTAI_OWL_JEWELRY_BUNTAI_OWL_JEWELRY_20_k" d="M224.2,355.29a4.32,4.32,0,0,0,3.88,3.76l.44,0a4.31,4.31,0,0,0,2.9-1.1,4.22,4.22,0,0,0,1.45-3,1.85,1.85,0,0,0,0-.23,4.33,4.33,0,0,0-1-2.74,4.44,4.44,0,0,0-3.38-1.57,4.36,4.36,0,0,0-3.55,1.81l2.16.58a2.41,2.41,0,0,1,2.7,0,2.33,2.33,0,0,1,1.07,2,2.24,2.24,0,0,1-.26,1.05,2.35,2.35,0,0,1-2.12,1.31,2.39,2.39,0,0,1-2.1-1.24h0Z" />
  <path class="BUNTAI_OWL_JEWELRY_BUNTAI_OWL_JEWELRY_20_l" d="M230.08,186.8l.81-.87-.55-.5a1.91,1.91,0,0,0-2.37-.18l-.78-.72a1.91,1.91,0,0,0-.35-2.36l-1.08-1a1.89,1.89,0,0,0-2.37-.2l-.77-.73a1.89,1.89,0,0,0-.31-2.35l-.53-.51-.52-.52a1.92,1.92,0,0,0-2.37-.23l-.75-.75a1.88,1.88,0,0,0-.24-2.36l-.5-.53-.51-.53a1.9,1.9,0,0,0-2.35-.31c-.25-.26-.48-.52-.71-.79a1.9,1.9,0,0,0-.12-2.36l-.49-.54-.46-.55a1.89,1.89,0,0,0-2.32-.46l-.68-.81a1.91,1.91,0,0,0,.05-2.37l-.44-.57-.43-.57a1.88,1.88,0,0,0-2.27-.63l-.6-.87a2,2,0,0,0,.25-2.35l-.39-.6-.38-.61a1.9,1.9,0,0,0-2.2-.82l-.51-.92a2,2,0,0,0,.47-2.31l-.32-.64-.32-.64a1.93,1.93,0,0,0-2.11-1l-.41-1a1.89,1.89,0,0,0,.68-2.24l-.24-.67-.24-.67a1.93,1.93,0,0,0-2-1.24l-.3-1a1.91,1.91,0,0,0,.86-1l-1.83.07.71,1.51-.71.28.15.5a1.85,1.85,0,0,0-.77,2.27l.25.72.26.72a1.9,1.9,0,0,0,2.11,1.2l.42,1a1.85,1.85,0,0,0-.56,2.35l.34.69.34.68a1.83,1.83,0,0,0,2.2,1l.53.94a1.9,1.9,0,0,0-.34,2.4l.41.65.41.64a1.86,1.86,0,0,0,2.28.78l.62.87a1.91,1.91,0,0,0-.12,2.42l.46.61.46.6a1.9,1.9,0,0,0,2.33.58l.68.82a1.9,1.9,0,0,0,.08,2.41l.48.58.51.56a1.88,1.88,0,0,0,2.36.41l.72.79a1.91,1.91,0,0,0,.21,2.39l.52.54.52.54a1.91,1.91,0,0,0,2.38.29l.76.76a1.88,1.88,0,0,0,.29,2.37l.54.52.53.52a1.88,1.88,0,0,0,2.38.22l.78.73a1.91,1.91,0,0,0,.34,2.37l.54.51.54.5a1.89,1.89,0,0,0,2.38.19l.78.72a1.9,1.9,0,0,0,.36,2.36l.54.5.8-.86-.54-.51a.7.7,0,0,1-.22-.62l.51.48a.61.61,0,0,0,.86,0,.61.61,0,0,0-.05-.86l-.51-.48a.69.69,0,0,1,.63.18Zm-30.43-37.23c-.09-.21-.17-.43-.25-.65a.58.58,0,0,0-.76-.37.62.62,0,0,0-.34.8c.08.22.16.44.25.65a.65.65,0,0,1-.5-.44l-.25-.7-.25-.71a.7.7,0,0,1,.09-.66l.24.67a.6.6,0,0,0,.76.39.62.62,0,0,0,.35-.79l-.23-.65a.68.68,0,0,1,.48.44l.24.68.25.69A.74.74,0,0,1,199.65,149.57Zm2.58,5.64-.3-.62a.6.6,0,1,0-1.06.54l.32.63a.7.7,0,0,1-.54-.39l-.33-.67L200,154a.7.7,0,0,1,0-.66l.32.64a.61.61,0,0,0,.8.3.6.6,0,0,0,.26-.81l-.31-.63a.72.72,0,0,1,.54.39l.32.65.32.66A.68.68,0,0,1,202.23,155.21Zm3.14,5.36L205,160a.59.59,0,1,0-1,.63l.38.6a.71.71,0,0,1-.57-.34l-.4-.63-.41-.63a.68.68,0,0,1,0-.66c.11.2.25.4.37.6a.62.62,0,0,0,.84.22.61.61,0,0,0,.17-.84c-.12-.19-.25-.38-.36-.59a.75.75,0,0,1,.56.34l.39.61.39.62A.69.69,0,0,1,205.37,160.57Zm3.62,5.06-.43-.55a.61.61,0,0,0-.85-.13.6.6,0,0,0-.09.85l.43.56a.73.73,0,0,1-.6-.28l-.46-.59-.45-.6a.72.72,0,0,1-.09-.66l.41.58a.62.62,0,0,0,.85.14.61.61,0,0,0,.1-.85l-.4-.56a.67.67,0,0,1,.58.29l.44.58.45.58A.71.71,0,0,1,209,165.63Zm3.52,4.27a.59.59,0,1,0-.88.78l.47.52a.73.73,0,0,1-.63-.23l-.49-.56-.49-.57a.74.74,0,0,1-.14-.65l.45.54a.59.59,0,0,0,.85.09.61.61,0,0,0,0-.86l-.45-.53a.72.72,0,0,1,.61.24l.47.56.49.55a.72.72,0,0,1,.16.64Zm4.24,4.58a.59.59,0,0,0-.85,0,.6.6,0,0,0,0,.86l.49.5a.72.72,0,0,1-.63-.2l-.52-.54-.51-.54a.7.7,0,0,1-.18-.64l.48.51a.62.62,0,0,0,.86.05.62.62,0,0,0,0-.86l-.48-.51a.7.7,0,0,1,.62.21l.51.53.5.53a.69.69,0,0,1,.19.63Zm4.44,4.4a.59.59,0,0,0-.85,0,.6.6,0,0,0,0,.86l.51.49a.74.74,0,0,1-.64-.19l-.53-.52-.53-.52a.68.68,0,0,1-.21-.62l.51.49a.59.59,0,1,0,.82-.85l-.5-.49a.71.71,0,0,1,.63.19l.53.51.53.52a.7.7,0,0,1,.2.62Zm4.55,4.3a.59.59,0,1,0-.81.87l.52.47a.73.73,0,0,1-.64-.17l-.54-.51-.54-.5a.69.69,0,0,1-.22-.62l.51.47a.59.59,0,1,0,.81-.86l-.51-.48a.7.7,0,0,1,.63.18l.54.5.54.51a.68.68,0,0,1,.22.62Z" />
  <path class="BUNTAI_OWL_JEWELRY_BUNTAI_OWL_JEWELRY_20_l" d="M235.59,181.86a1.9,1.9,0,0,0-2.26-.74l-.57-.88a1.9,1.9,0,0,0,.22-2.37l-.4-.61-.41-.62a1.88,1.88,0,0,0-2.27-.71l-.58-.88a1.9,1.9,0,0,0,.2-2.37l-.41-.61-.41-.61a1.88,1.88,0,0,0-2.27-.7l-.6-.88a1.88,1.88,0,0,0,.18-2.37l-.41-.6-.42-.61a1.9,1.9,0,0,0-2.28-.68l-.61-.86a1.88,1.88,0,0,0,.15-2.38l-.42-.6-.42-.6a1.91,1.91,0,0,0-2.3-.64l-.61-.87a1.87,1.87,0,0,0,.11-2.37l-.44-.6-.43-.59a1.9,1.9,0,0,0-2.31-.61l-.63-.84a1.9,1.9,0,0,0,.06-2.39l-.46-.58-.46-.59a1.87,1.87,0,0,0-2.32-.54l-.67-.83a1.86,1.86,0,0,0,0-2.39l-1-1.14a1.89,1.89,0,0,0-2.38-.4c-.23-.27-.5-.51-.75-.77a1.79,1.79,0,0,0-.06-2l-.46.1c-.31.07-.66.14-1,.2l.34.17a.73.73,0,0,1,.28.62l-.56-.46a.57.57,0,0,0-.85.07.65.65,0,0,0,.11.86l.51.42a.69.69,0,0,1-.62-.11l-.84-1.35-1.16.11,1.26,2.16a2,2,0,0,0,2.26,0c.24.25.49.48.72.74a1.88,1.88,0,0,0,.12,2.33l.46.55.47.54a1.9,1.9,0,0,0,2.31.45l.66.82a1.89,1.89,0,0,0,0,2.36l.44.58.45.57a1.9,1.9,0,0,0,2.29.56l.64.84a1.89,1.89,0,0,0-.1,2.36l.43.59.43.59a1.9,1.9,0,0,0,2.29.62l.61.85a1.91,1.91,0,0,0-.14,2.37l.43.59.42.6a1.88,1.88,0,0,0,2.27.65l.61.87a1.88,1.88,0,0,0-.18,2.36l.42.61.42.6a1.87,1.87,0,0,0,2.26.68l.6.87a1.91,1.91,0,0,0-.2,2.37l.41.6.41.61a1.88,1.88,0,0,0,2.26.7l.59.88a1.89,1.89,0,0,0-.22,2.36l.41.61.4.61a1.9,1.9,0,0,0,2.26.73l.58.88a1.87,1.87,0,0,0-.24,2.36l.4.61,1-.64-.4-.62a.69.69,0,0,1-.06-.65l.38.58a.59.59,0,1,0,1-.64l-.38-.58a.67.67,0,0,1,.57.32l.4.61,1-.64Zm-25.26-33.11-.45-.53a.59.59,0,1,0-.9.76l.45.53a.71.71,0,0,1-.61-.24l-.47-.55-.47-.56a.68.68,0,0,1-.16-.62c.15.17.31.33.46.51a.6.6,0,0,0,.85.08.61.61,0,0,0,0-.86c-.15-.18-.31-.35-.47-.52a.68.68,0,0,1,.62.23l.49.56.48.57A.68.68,0,0,1,210.33,148.75Zm3.89,4.89-.42-.55A.61.61,0,0,0,213,153a.6.6,0,0,0-.09.85l.42.55a.72.72,0,0,1-.6-.27l-.44-.58-.45-.58a.68.68,0,0,1-.11-.64l.42.55a.62.62,0,0,0,.85.12.6.6,0,0,0,.08-.85l-.42-.55a.67.67,0,0,1,.59.27l.46.58.45.58A.7.7,0,0,1,214.22,153.64Zm3.72,5-.41-.57a.59.59,0,1,0-.95.7l.41.56a.67.67,0,0,1-.59-.29l-.44-.59-.43-.59a.67.67,0,0,1-.09-.64l.41.55a.59.59,0,0,0,.84.15.61.61,0,0,0,.11-.85l-.41-.56a.7.7,0,0,1,.59.29l.43.59.44.6A.69.69,0,0,1,217.94,158.65Zm3.62,5.07-.4-.57a.6.6,0,0,0-.84-.17.61.61,0,0,0-.12.85l.4.57a.71.71,0,0,1-.59-.3l-.42-.6-.42-.6a.67.67,0,0,1-.09-.64l.4.56a.6.6,0,0,0,.84.16.59.59,0,0,0,.13-.84l-.4-.57a.69.69,0,0,1,.58.29l.43.61.42.6A.69.69,0,0,1,221.56,163.72Zm3.55,5.12-.39-.58a.6.6,0,0,0-.84-.17.61.61,0,0,0-.13.84l.39.57a.68.68,0,0,1-.58-.3l-.42-.6-.41-.61a.69.69,0,0,1-.08-.65l.4.57a.6.6,0,0,0,.83.18.62.62,0,0,0,.14-.85l-.4-.57a.68.68,0,0,1,.58.3l.42.61.42.6A.68.68,0,0,1,225.11,168.84Zm3.5,5.15-.39-.58a.59.59,0,1,0-1,.66l.39.58a.71.71,0,0,1-.58-.31l-.41-.61-.41-.61a.72.72,0,0,1-.07-.65l.39.58a.61.61,0,0,0,.84.18.6.6,0,0,0,.14-.84l-.39-.58a.7.7,0,0,1,.58.31l.41.61.41.61A.66.66,0,0,1,228.61,174Zm3.45,5.19-.39-.58a.59.59,0,0,0-.83-.19.6.6,0,0,0-.15.84l.38.58a.72.72,0,0,1-.58-.32l-.4-.61-.4-.61a.72.72,0,0,1-.07-.65l.39.58a.61.61,0,0,0,.83.19.61.61,0,0,0,.15-.85l-.38-.58a.69.69,0,0,1,.57.32l.41.61.4.61A.71.71,0,0,1,232.06,179.18Z" />
  <path class="BUNTAI_OWL_JEWELRY_BUNTAI_OWL_JEWELRY_20_l" d="M264.6,148.42l-.21.11a.63.63,0,0,1-.61,0l.5-.29L262.05,147a1.6,1.6,0,0,0,.05,1.32c-.29.22-.56.45-.83.69a1.82,1.82,0,0,0-2.42.34l-.52.61-.48.61a1.81,1.81,0,0,0,.1,2.4l-.56.88a1.86,1.86,0,0,0-2.23.82l-.36.64-.36.64a1.84,1.84,0,0,0,.43,2.3l-.49.91a1.85,1.85,0,0,0-2.16.91l-.34.64-.33.64a1.83,1.83,0,0,0,.51,2.29l-.46.93a1.85,1.85,0,0,0-2.14,1l-.31.65-.31.66a1.83,1.83,0,0,0,.57,2.27L249,170a1.86,1.86,0,0,0-2.11,1l-.29.66-.29.66a1.85,1.85,0,0,0,.65,2.26l-.4,1a1.84,1.84,0,0,0-2.07,1.1l-.28.67-.27.67a1.85,1.85,0,0,0,.72,2.24l-.37,1a1.86,1.86,0,0,0-2,1.17l0,.12,0-.41a1.88,1.88,0,0,0-1.59-1.8l-.12-1.06a1.92,1.92,0,0,0,1.26-2.07l-.13-.75-.13-.76a1.83,1.83,0,0,0-1.82-1.57l-.23-1a1.85,1.85,0,0,0,1-2.21l-.21-.73-.21-.74a1.89,1.89,0,0,0-2-1.32l-.35-1a1.87,1.87,0,0,0,.67-2.31L238,164l-.32-.7a1.89,1.89,0,0,0-2.15-1.07l-.5-.94a1.89,1.89,0,0,0,.4-2.39l-.39-.65-.4-.65a1.84,1.84,0,0,0-2.27-.79l-.6-.89a1.83,1.83,0,0,0,.09-2.4l-.46-.61-.47-.6a1.88,1.88,0,0,0-2.36-.5l-.7-.81a1.87,1.87,0,0,0-.23-2.39l-.53-.55-.55-.52a1.89,1.89,0,0,0-2.4-.21c-.26-.24-.54-.45-.81-.69a1.83,1.83,0,0,0,.17-1.24,2,2,0,0,0-.25-.6,1.56,1.56,0,0,0-.61-.62l-.69-.39-.65-.36a2,2,0,0,0-2.38.37l-.92-.51a2.27,2.27,0,0,0,0-1.5c-.89.06-1.81.12-2.72.2l1.22.12a.7.7,0,0,1,.37.56l-.61-.34a.59.59,0,0,0-.82.22.62.62,0,0,0,.25.82l.6.33a.68.68,0,0,1-.65,0l-1.78-1.43-1.49.41,2.71,2.06a1.87,1.87,0,0,0,2.31-.41l.92.51a1.82,1.82,0,0,0,.84,2.17l.63.35.59.33a3.73,3.73,0,0,0,.4.18,1.76,1.76,0,0,0,.6.1,2,2,0,0,0,1.17-.41c.27.22.54.43.8.67a1.9,1.9,0,0,0,.3,2.32l.51.48.48.5a1.89,1.89,0,0,0,2.32.28l.68.79a1.88,1.88,0,0,0,0,2.32l.42.56.43.55a1.92,1.92,0,0,0,2.26.58l.59.86a1.94,1.94,0,0,0-.29,2.32l.36.6.37.6a1.88,1.88,0,0,0,2.16.86l.48.92a1.91,1.91,0,0,0-.58,2.27l.3.63.26.65a1.89,1.89,0,0,0,2.06,1.11l.35,1a1.87,1.87,0,0,0-.84,2.17l.19.67.19.68a2,2,0,0,0,1.9,1.36l.23,1a1.92,1.92,0,0,0-1.12,2l.11.69.12.69a1.87,1.87,0,0,0,1.69,1.6l.11,1a1.9,1.9,0,0,0-1.39,1.88l0,.7,1.18,0,0-.71a.7.7,0,0,1,.28-.59l0,.69a.63.63,0,0,0,.63.59.58.58,0,0,0,.55-.64l0-.7a.75.75,0,0,1,.34.57l0,.75,1,0-.07.2,1.11.41.25-.68a.67.67,0,0,1,.49-.42l-.24.64a.6.6,0,0,0,.34.77.61.61,0,0,0,.77-.36l.23-.63a.65.65,0,0,1,.09.63l-.25.67,1.11.41.25-.67a1.85,1.85,0,0,0-.76-2.2l.37-.95a1.86,1.86,0,0,0,2-1.12l.27-.66.27-.65a1.87,1.87,0,0,0-.69-2.22l.39-.95A1.86,1.86,0,0,0,250.1,174l.29-.65.28-.65a1.85,1.85,0,0,0-.62-2.24l.43-.93a1.86,1.86,0,0,0,2.11-1l.31-.64.3-.63a1.86,1.86,0,0,0-.55-2.27l.46-.91a1.86,1.86,0,0,0,2.14-.92l.32-.63.33-.63a1.86,1.86,0,0,0-.47-2.28l.48-.9a1.85,1.85,0,0,0,2.17-.85l.34-.61.34-.61a1.86,1.86,0,0,0-.37-2.27l.55-.85a1.9,1.9,0,0,0,2.2-.52l.4-.51.42-.49a1.91,1.91,0,0,0,.11-2.22q.36-.33.75-.63a2,2,0,0,0,2.15.35c.17-.1.35-.18.52-.27l.32-.17ZM222,145.63a1.27,1.27,0,0,0-.34-.23.62.62,0,0,0-.84.2.58.58,0,0,0,.23.81,1.53,1.53,0,0,1,.23.15l.26.22a.8.8,0,0,1-.57-.06l-.62-.35-.63-.35a.7.7,0,0,1-.35-.55l.6.34a.64.64,0,0,0,.85-.21.57.57,0,0,0-.24-.8l-.61-.34a.75.75,0,0,1,.67,0l.64.36.66.37a.67.67,0,0,1,.34.65Zm4.42,4a.58.58,0,0,0-.85,0,.61.61,0,0,0,0,.86l.47.49a.67.67,0,0,1-.62-.2l-.49-.51-.53-.5a.67.67,0,0,1-.2-.61l.5.47a.63.63,0,0,0,.86,0,.58.58,0,0,0,0-.85l-.51-.48a.7.7,0,0,1,.64.18l.54.51.52.54a.7.7,0,0,1,.18.64Zm4.53,5.31-.43-.56a.6.6,0,0,0-.84-.13.61.61,0,0,0-.1.85l.42.54a.71.71,0,0,1-.6-.27l-.43-.57-.44-.57a.69.69,0,0,1-.12-.63c.15.17.29.34.43.53a.6.6,0,0,0,.84.12.61.61,0,0,0,.08-.86c-.14-.19-.29-.37-.44-.54a.67.67,0,0,1,.61.26l.45.59.46.59A.7.7,0,0,1,231,154.91Zm3.4,5.28c-.12-.21-.22-.41-.35-.61a.61.61,0,0,0-.83-.23.59.59,0,0,0-.19.82c.12.19.23.4.33.6a.73.73,0,0,1-.54-.35l-.37-.62-.37-.61a.68.68,0,0,1,0-.65l.36.59a.61.61,0,0,0,.82.22.61.61,0,0,0,.19-.84l-.37-.6a.71.71,0,0,1,.57.34l.38.64.39.63A.7.7,0,0,1,234.39,160.19Zm1.67,4.67a.63.63,0,0,0-.32.8l.26.64a.7.7,0,0,1-.5-.42l-.27-.66-.3-.65a.68.68,0,0,1,0-.65l.29.62a.62.62,0,0,0,.8.32.58.58,0,0,0,.27-.8l-.29-.64a.71.71,0,0,1,.52.4l.32.68.28.69a.73.73,0,0,1-.06.66l-.27-.65A.58.58,0,0,0,236.06,164.86Zm2.11,5.83a.62.62,0,0,0-.4.76l.19.66a.7.7,0,0,1-.46-.47l-.19-.69-.2-.69a.72.72,0,0,1,.11-.64c.08.22.15.43.21.65a.59.59,0,0,0,.74.42.6.6,0,0,0,.39-.76c-.06-.23-.13-.45-.21-.67a.66.66,0,0,1,.47.46l.21.72.2.72a.69.69,0,0,1-.13.64l-.2-.67A.6.6,0,0,0,238.17,170.69Zm2.06,6.58a.63.63,0,0,0-.69-.53.6.6,0,0,0-.48.7c0,.22.06.45.09.68a.71.71,0,0,1-.38-.53l-.12-.7-.12-.71a.7.7,0,0,1,.21-.62l.11.68a.6.6,0,0,0,.69.5A.6.6,0,0,0,240,176l-.12-.69a.7.7,0,0,1,.4.53l.13.73.12.74a.68.68,0,0,1-.23.62C240.29,177.73,240.27,177.5,240.23,177.27Zm7,.54-.27.66-.26.66a.67.67,0,0,1-.5.41l.25-.63a.6.6,0,0,0-.32-.78.59.59,0,0,0-.77.34l-.25.63a.66.66,0,0,1-.08-.64l.27-.66.27-.67a.69.69,0,0,1,.5-.41l-.26.63a.59.59,0,0,0,.32.78.58.58,0,0,0,.77-.33l.26-.63A.66.66,0,0,1,247.22,177.81Zm2.37-5.55-.28.65-.29.65a.69.69,0,0,1-.51.4l.27-.62a.59.59,0,1,0-1.08-.47l-.27.62a.71.71,0,0,1-.06-.65l.29-.65.29-.66a.69.69,0,0,1,.52-.39l-.28.62a.6.6,0,0,0,.29.79.61.61,0,0,0,.79-.31l.27-.62A.66.66,0,0,1,249.59,172.26Zm2.55-5.47-.31.64-.31.64a.66.66,0,0,1-.52.38l.29-.61a.59.59,0,1,0-1.06-.5l-.29.61a.68.68,0,0,1,0-.65l.31-.64.31-.65a.71.71,0,0,1,.53-.38l-.3.61a.6.6,0,0,0,.27.8.58.58,0,0,0,.79-.28l.3-.61A.69.69,0,0,1,252.14,166.79Zm2.72-5.39-.33.63-.33.64a.71.71,0,0,1-.53.36l.31-.6a.6.6,0,0,0-.25-.81.59.59,0,0,0-.8.27l-.31.6a.71.71,0,0,1,0-.65l.33-.63.34-.64a.67.67,0,0,1,.53-.36l-.31.6a.59.59,0,0,0,.24.81.6.6,0,0,0,.8-.26l.32-.6A.69.69,0,0,1,254.86,161.4Zm2.88-5.29-.35.62-.35.61a.66.66,0,0,1-.54.35l.33-.59a.61.61,0,0,0-.22-.82.6.6,0,0,0-.81.24l-.33.6a.71.71,0,0,1,0-.65l.35-.63.36-.63a.68.68,0,0,1,.56-.33l-.35.59a.58.58,0,0,0,.22.81.6.6,0,0,0,.81-.23l.33-.58A.66.66,0,0,1,257.74,156.11Zm3.33-4.83-.44.52-.42.53a.7.7,0,0,1-.58.26c.13-.18.26-.36.4-.53a.6.6,0,0,0-.09-.83.59.59,0,0,0-.84.11c-.15.18-.29.36-.42.55a.67.67,0,0,1,.1-.65l.46-.58.49-.57a.7.7,0,0,1,.63-.23l-.48.52a.59.59,0,1,0,.89.78l.44-.49A.62.62,0,0,1,261.07,151.28Z" />
  <path class="BUNTAI_OWL_JEWELRY_BUNTAI_OWL_JEWELRY_20_l" d="M272,153.57l-.06.11-.37.65a.69.69,0,0,1-.58.33c.13-.2.27-.39.38-.59a.61.61,0,0,0-.21-.84.59.59,0,0,0-.8.22,5.35,5.35,0,0,1-.36.56.68.68,0,0,1,0-.62l.34-.61.17-.29-1-.71-.23.41-.32.58a1.86,1.86,0,0,0,.27,2.25,7.79,7.79,0,0,1-.62.8,1.93,1.93,0,0,0-2.24.33l-.45.49c-.15.16-.32.3-.48.46a1.91,1.91,0,0,0-.3,2.27l-.78.67a1.87,1.87,0,0,0-2.34,0l-.57.46-.57.46a1.85,1.85,0,0,0-.47,2.34l-.79.71a1.85,1.85,0,0,0-2.4.32l-.52.6-.52.59a1.86,1.86,0,0,0,0,2.39l-.62.84a1.87,1.87,0,0,0-2.29.68l-.42.62-.4.63a1.85,1.85,0,0,0,.29,2.37l-.54.9a1.87,1.87,0,0,0-2.2.92l-.34.67-.34.66a1.86,1.86,0,0,0,.54,2.33c-.14.32-.29.63-.43.95a1.84,1.84,0,0,0-2.08,1.15l-.28.7-.26.7a1.84,1.84,0,0,0,.79,2.25c-.11.34-.22.67-.32,1a1.85,1.85,0,0,0-2,1.37l-.2.73,1.14.3.2-.71a.63.63,0,0,1,.45-.47l-.19.66a.59.59,0,0,0,.41.74.6.6,0,0,0,.73-.43l.18-.65a.67.67,0,0,1,.15.62l-.19.69,1.14.3.19-.67a1.9,1.9,0,0,0-.93-2.13c.09-.32.2-.65.31-1a1.88,1.88,0,0,0,2-1.18l.25-.65.25-.65a1.88,1.88,0,0,0-.69-2.21c.13-.32.28-.63.42-.94a1.89,1.89,0,0,0,2.11-1l.31-.62.32-.62a1.88,1.88,0,0,0-.45-2.27l.52-.89a1.88,1.88,0,0,0,2.2-.73l.38-.58.38-.58a1.86,1.86,0,0,0-.2-2.31l.62-.83a1.87,1.87,0,0,0,2.26-.49l.43-.49.43-.5a1.88,1.88,0,0,0,.15-2.27l.76-.68a1.89,1.89,0,0,0,2.32,0l.54-.44.57-.45a1.87,1.87,0,0,0,.49-2.31l.8-.68a1.85,1.85,0,0,0,2.41-.17c.18-.18.38-.35.55-.54l.54-.57a1.83,1.83,0,0,0,.13-2.43,9.08,9.08,0,0,0,.65-.85,1.82,1.82,0,0,0,2-.35l.29-1.41ZM250.2,181.7l-.26.67-.24.66a.71.71,0,0,1-.49.43l.23-.64a.6.6,0,0,0-.34-.78.59.59,0,0,0-.76.37l-.24.65a.71.71,0,0,1-.09-.65l.25-.69.27-.68a.68.68,0,0,1,.5-.42l-.25.64a.59.59,0,0,0,.32.78.61.61,0,0,0,.78-.35l.24-.62A.65.65,0,0,1,250.2,181.7Zm2.53-5.47-.33.63-.32.64a.67.67,0,0,1-.53.37l.3-.61a.59.59,0,1,0-1.06-.53l-.3.62a.68.68,0,0,1,0-.65l.33-.66.34-.65a.67.67,0,0,1,.54-.36l-.32.61a.59.59,0,0,0,.24.81.6.6,0,0,0,.8-.26l.32-.6A.69.69,0,0,1,252.73,176.23Zm3.1-5.17-.4.6-.39.59a.67.67,0,0,1-.56.32l.36-.58a.6.6,0,0,0-.16-.83.61.61,0,0,0-.83.19l-.37.59a.71.71,0,0,1,.05-.66l.4-.61.41-.61a.65.65,0,0,1,.58-.3l-.39.57a.59.59,0,0,0,.15.83.61.61,0,0,0,.83-.17l.38-.56A.7.7,0,0,1,255.83,171.06Zm3.64-4.75-.45.53-.46.52a.68.68,0,0,1-.59.25l.42-.53a.58.58,0,0,0-.06-.83.62.62,0,0,0-.86.09l-.43.54a.73.73,0,0,1,.12-.65l.49-.56.5-.57a.65.65,0,0,1,.62-.22,5.8,5.8,0,0,0-.47.52.59.59,0,1,0,.87.79c.15-.17.29-.34.45-.49A.68.68,0,0,1,259.47,166.31Zm4.47-4-.57.45-.55.45a.69.69,0,0,1-.63.12l.52-.43A.59.59,0,1,0,262,162l-.54.44a.74.74,0,0,1,.25-.61l.57-.45.57-.46a.68.68,0,0,1,.63-.11l-.53.43a.6.6,0,0,0-.11.84.61.61,0,0,0,.85.08l.53-.43A.69.69,0,0,1,263.94,162.34Zm4.67-4.16-.52.55c-.16.19-.35.34-.53.52a.7.7,0,0,1-.64.17l.51-.47a.58.58,0,0,0,0-.85.61.61,0,0,0-.84,0l-.49.46a.67.67,0,0,1,.2-.61c.16-.16.34-.31.5-.48l.47-.51a.7.7,0,0,1,.61-.2l-.46.49a.62.62,0,0,0,0,.85.59.59,0,0,0,.85,0l.48-.51A.69.69,0,0,1,268.61,158.18Z" />
  <circle class="BUNTAI_OWL_JEWELRY_BUNTAI_OWL_JEWELRY_20_f" cx="239.11" cy="190.68" r="11.14" />
  <circle class="BUNTAI_OWL_JEWELRY_BUNTAI_OWL_JEWELRY_20_m" cx="239.11" cy="190.68" r="11.14" />
  <path d="M243.21,185.05a.93.93,0,0,0-.84-.52h-6.69a.93.93,0,0,0-.84.52.92.92,0,0,0,.09,1l3.83,5.1-3.83,5.1a.92.92,0,0,0-.09,1,.93.93,0,0,0,.84.52h6.69a.93.93,0,0,0,.84-.52.92.92,0,0,0-.09-1l-3.83-5.1,3.83-5.1A.92.92,0,0,0,243.21,185.05Zm-.5,11.27a1.77,1.77,0,0,0-.24-.2l-7.1.2a.73.73,0,0,0-.23.62.58.58,0,0,1,.09-.48l3.77-5,0,0,0,0Zm.11-10.52-.63.84-5.82.68-1.14-1.52a.53.53,0,0,1,0-.58.54.54,0,0,1,.5-.31h6.69a.56.56,0,0,1,.5.31A.53.53,0,0,1,242.82,185.8Z" />
  <path d="M243,182.91h-7.7a.52.52,0,1,0,0,1H243a.52.52,0,0,0,0-1Zm0,.65h-7.7a.14.14,0,0,1-.14-.14.13.13,0,0,1,.14-.13H243a.13.13,0,0,1,.13.13A.13.13,0,0,1,243,183.56Z" />
  <circle class="BUNTAI_OWL_JEWELRY_BUNTAI_OWL_JEWELRY_20_n" cx="238.92" cy="190.52" r="10.69" />
  <circle class="BUNTAI_OWL_JEWELRY_BUNTAI_OWL_JEWELRY_20_o" cx="238.92" cy="190.52" r="10.69" />
  <circle class="BUNTAI_OWL_JEWELRY_BUNTAI_OWL_JEWELRY_20_p" cx="238.92" cy="190.52" r="8.6" />
  <path d="M242.64,186a1,1,0,0,0-.8-.42H236a.91.91,0,0,0-.76.42.71.71,0,0,0,0,.79,28.86,28.86,0,0,0,3.5,4.08,22,22,0,0,0-3.35,4.09.72.72,0,0,0,.07.79,1,1,0,0,0,.76.41h5.37a1.05,1.05,0,0,0,.8-.42.7.7,0,0,0,.13-.79,17.54,17.54,0,0,0-3.23-4.08,24.16,24.16,0,0,0,3.47-4.08A.68.68,0,0,0,242.64,186Zm-.54,9-.18-.16-6.2.17a.47.47,0,0,0-.11.49.39.39,0,0,1,0-.38,21.71,21.71,0,0,1,3.31-4l0,0,0,0A17.55,17.55,0,0,1,242.1,195Zm.31-8.41c-.18.27-.27.4-.47.67l-5.56.54c-.39-.49-.57-.73-.91-1.22a.39.39,0,0,1,0-.46.53.53,0,0,1,.46-.25h6a.59.59,0,0,1,.47.24A.41.41,0,0,1,242.41,186.57Z" />
  <path d="M242,184.24h-6.18a.52.52,0,0,0-.49.41.35.35,0,0,0,.36.42h6.53a.31.31,0,0,0,.32-.41A.61.61,0,0,0,242,184.24Zm.15.52h-6.42a.09.09,0,0,1-.09-.11.13.13,0,0,1,.13-.1h6.32a.16.16,0,0,1,.14.11A.08.08,0,0,1,242.16,184.76Z" />
  <path class="BUNTAI_OWL_JEWELRY_BUNTAI_OWL_JEWELRY_20_q" d="M230.65,183.59s-3.9,3.61-1.49,11.32c.79,2.76,5.61,7.69,13.13,5.76A10.6,10.6,0,0,0,249,194c-2.69,2.5-10,4.47-14.66-.34C231.1,190.34,230.69,186.84,230.65,183.59Z" />
  <path class="BUNTAI_OWL_JEWELRY_BUNTAI_OWL_JEWELRY_20_r" d="M242.29,184.15a10.43,10.43,0,0,1,4,9C247.1,190.36,247.32,185.87,242.29,184.15Z" />
  <path class="BUNTAI_OWL_JEWELRY_BUNTAI_OWL_JEWELRY_20_a" d="M243.69,182.38a10,10,0,0,1,4.23,5.72,8.37,8.37,0,0,1-.74,6.54,7.93,7.93,0,0,0,1.2-7A7.56,7.56,0,0,0,243.69,182.38Z" />
</svg>