<svg xmlns="http://www.w3.org/2000/svg" viewBox="0 0 432 432">
  <defs>
    <style>.BUNTAI_OWL_JEWELRY_BUNTAI_OWL_JEWELRY_21_a{fill:#c7a858;}.BUNTAI_OWL_JEWELRY_BUNTAI_OWL_JEWELRY_21_b{fill:#fff;}.BUNTAI_OWL_JEWELRY_BUNTAI_OWL_JEWELRY_21_c{fill:#c74c58;}.BUNTAI_OWL_JEWELRY_BUNTAI_OWL_JEWELRY_21_d,.BUNTAI_OWL_JEWELRY_BUNTAI_OWL_JEWELRY_21_e,.BUNTAI_OWL_JEWELRY_BUNTAI_OWL_JEWELRY_21_k,.BUNTAI_OWL_JEWELRY_BUNTAI_OWL_JEWELRY_21_l{fill:none;}.BUNTAI_OWL_JEWELRY_BUNTAI_OWL_JEWELRY_21_d,.BUNTAI_OWL_JEWELRY_BUNTAI_OWL_JEWELRY_21_e,.BUNTAI_OWL_JEWELRY_BUNTAI_OWL_JEWELRY_21_f,.BUNTAI_OWL_JEWELRY_BUNTAI_OWL_JEWELRY_21_k,.BUNTAI_OWL_JEWELRY_BUNTAI_OWL_JEWELRY_21_l{stroke:#000;}.BUNTAI_OWL_JEWELRY_BUNTAI_OWL_JEWELRY_21_d,.BUNTAI_OWL_JEWELRY_BUNTAI_OWL_JEWELRY_21_k{stroke-linecap:round;stroke-linejoin:round;}.BUNTAI_OWL_JEWELRY_BUNTAI_OWL_JEWELRY_21_d,.BUNTAI_OWL_JEWELRY_BUNTAI_OWL_JEWELRY_21_e{stroke-width:1.53px;}.BUNTAI_OWL_JEWELRY_BUNTAI_OWL_JEWELRY_21_e,.BUNTAI_OWL_JEWELRY_BUNTAI_OWL_JEWELRY_21_f,.BUNTAI_OWL_JEWELRY_BUNTAI_OWL_JEWELRY_21_l{stroke-miterlimit:10;}.BUNTAI_OWL_JEWELRY_BUNTAI_OWL_JEWELRY_21_f{fill:#754c24;stroke-width:1.22px;}.BUNTAI_OWL_JEWELRY_BUNTAI_OWL_JEWELRY_21_g{fill:#4d4d4d;}.BUNTAI_OWL_JEWELRY_BUNTAI_OWL_JEWELRY_21_h{fill:#333;}.BUNTAI_OWL_JEWELRY_BUNTAI_OWL_JEWELRY_21_i{fill:#8c6239;}.BUNTAI_OWL_JEWELRY_BUNTAI_OWL_JEWELRY_21_j{fill:#006837;}.BUNTAI_OWL_JEWELRY_BUNTAI_OWL_JEWELRY_21_k,.BUNTAI_OWL_JEWELRY_BUNTAI_OWL_JEWELRY_21_l{stroke-width:0.64px;}</style>
  </defs>
  <path class="BUNTAI_OWL_JEWELRY_BUNTAI_OWL_JEWELRY_21_a" d="M129.76,177.15a1.5,1.5,0,0,1,0,3H121.6v-.46a1.5,1.5,0,0,0,1.5-1.5v-1Z" />
  <polygon class="BUNTAI_OWL_JEWELRY_BUNTAI_OWL_JEWELRY_21_b" points="121.6 180.15 124.6 180.15 124.6 206.78 121.6 214.29 118.6 206.78 118.6 180.15 121.6 180.15" />
  <path class="BUNTAI_OWL_JEWELRY_BUNTAI_OWL_JEWELRY_21_c" d="M121.6,164.24a1.5,1.5,0,0,1,1.5,1.5v12.45a1.5,1.5,0,0,1-3,0V165.74A1.51,1.51,0,0,1,121.6,164.24Z" />
  <path class="BUNTAI_OWL_JEWELRY_BUNTAI_OWL_JEWELRY_21_a" d="M121.6,179.69v.46h-8.16a1.5,1.5,0,0,1,0-3h6.66v1A1.5,1.5,0,0,0,121.6,179.69Z" />
  <line class="BUNTAI_OWL_JEWELRY_BUNTAI_OWL_JEWELRY_21_d" x1="121.6" y1="164.25" x2="121.6" y2="155.27" />
  <path class="BUNTAI_OWL_JEWELRY_BUNTAI_OWL_JEWELRY_21_e" d="M121.6,179.69a1.5,1.5,0,0,1-1.5-1.5V165.74a1.5,1.5,0,0,1,3,0v12.45A1.5,1.5,0,0,1,121.6,179.69Z" />
  <polyline class="BUNTAI_OWL_JEWELRY_BUNTAI_OWL_JEWELRY_21_e" points="124.6 180.15 124.6 206.78 121.6 214.29 118.6 206.78 118.6 180.15" />
  <path class="BUNTAI_OWL_JEWELRY_BUNTAI_OWL_JEWELRY_21_e" d="M120.1,177.15h-6.66a1.5,1.5,0,0,0,0,3h16.32a1.5,1.5,0,0,0,0-3H123.1" />
  <polyline class="BUNTAI_OWL_JEWELRY_BUNTAI_OWL_JEWELRY_21_e" points="121.6 179.69 121.6 180.15 121.6 206.18" />
  <path class="BUNTAI_OWL_JEWELRY_BUNTAI_OWL_JEWELRY_21_a" d="M121.59,155.27c-2.42,0-2-3.3-2-3.3h0a6.54,6.54,0,0,0,3,.63,2.76,2.76,0,0,0,1.33-.33C123.88,152.45,123.93,155.27,121.59,155.27Z" />
  <path class="BUNTAI_OWL_JEWELRY_BUNTAI_OWL_JEWELRY_21_a" d="M125.76,142.23c.89,3,.7,8.61-1.89,10a2.76,2.76,0,0,1-1.33.33,6.54,6.54,0,0,1-3-.63c-2.23-1.08-3.35-3.59-3.2-7.41a12.27,12.27,0,0,1,.69-3.73,8,8,0,0,1,2.16-3.36,2.77,2.77,0,0,1,2-.82,3.34,3.34,0,0,1,2.41,1.42,4.61,4.61,0,0,1-1.07.2h-.06a6.13,6.13,0,0,0-2.71,4.18c-.68,3.25.45,6.89,2.09,6.89,1.83,0,1.85-4.24,1.74-6.48l.13,0A7.92,7.92,0,0,0,125.76,142.23Z" />
  <path class="BUNTAI_OWL_JEWELRY_BUNTAI_OWL_JEWELRY_21_a" d="M118.55,126.42c.57,3,.87,4.09.87,4.09s-3,2.58-1.27,5.76a3.32,3.32,0,0,0,1.07,1.19,8,8,0,0,0-2.16,3.36C113.12,137.34,112.07,130.42,118.55,126.42Z" />
  <path class="BUNTAI_OWL_JEWELRY_BUNTAI_OWL_JEWELRY_21_a" d="M129.65,137a7,7,0,0,1-3.89,5.23,7.58,7.58,0,0,1-2,.62l-.15,0a7.44,7.44,0,0,1-3.82-.41,6.13,6.13,0,0,1,2.71-4.18h.06a5.58,5.58,0,0,0,1.08-.21,3.18,3.18,0,0,0,2.25-2,2.79,2.79,0,0,0,.13-.84c0-3.44-1.36-3.61-1.36-3.61s-.07-.18-.16-.47a4.44,4.44,0,0,1,3.44-2.89A11.75,11.75,0,0,1,129.65,137Z" />
  <path class="BUNTAI_OWL_JEWELRY_BUNTAI_OWL_JEWELRY_21_d" d="M117.06,140.82c-3.94-3.48-5-10.4,1.49-14.4.6,2.46.87,4.09.87,4.09s-3,2.58-1.27,5.76a3.32,3.32,0,0,0,1.07,1.19" />
  <path class="BUNTAI_OWL_JEWELRY_BUNTAI_OWL_JEWELRY_21_d" d="M119.77,142.46a7.44,7.44,0,0,0,3.82.41l.15,0a7.58,7.58,0,0,0,2-.62,7,7,0,0,0,3.89-5.23,11.75,11.75,0,0,0-1.73-8.71" />
  <path class="BUNTAI_OWL_JEWELRY_BUNTAI_OWL_JEWELRY_21_d" d="M124.48,131.18c.09.29.16.47.16.47s1.31.17,1.36,3.61a2.79,2.79,0,0,1-.13.84,3.18,3.18,0,0,1-2.25,2,5.43,5.43,0,0,1-1.08.21" />
  <path class="BUNTAI_OWL_JEWELRY_BUNTAI_OWL_JEWELRY_21_d" d="M125.76,142.23c.89,3,.7,8.61-1.89,10a2.76,2.76,0,0,1-1.33.33,6.54,6.54,0,0,1-3-.63c-2.23-1.08-3.35-3.59-3.2-7.41a12.27,12.27,0,0,1,.69-3.73,8,8,0,0,1,2.16-3.36,2.77,2.77,0,0,1,2-.82,3.34,3.34,0,0,1,2.41,1.42" />
  <path class="BUNTAI_OWL_JEWELRY_BUNTAI_OWL_JEWELRY_21_d" d="M123.6,142.87c.11,2.24.09,6.48-1.74,6.48-1.64,0-2.77-3.64-2.09-6.89a6.13,6.13,0,0,1,2.71-4.18h.06" />
  <path class="BUNTAI_OWL_JEWELRY_BUNTAI_OWL_JEWELRY_21_d" d="M119.57,152s-.4,3.3,2,3.3,2.29-2.82,2.28-3h0" />
  <path class="BUNTAI_OWL_JEWELRY_BUNTAI_OWL_JEWELRY_21_d" d="M124.73,134.73a4.52,4.52,0,0,1-.5-2.07,4.26,4.26,0,0,1,.25-1.48,4.44,4.44,0,0,1,3.44-2.89,3.7,3.7,0,0,1,.76-.07,3,3,0,0,1,3,2.23" />
  <path class="BUNTAI_OWL_JEWELRY_BUNTAI_OWL_JEWELRY_21_f" d="M304.49,300.34a3.34,3.34,0,0,0-4.78.8l1.43,2.39c-6.67,16.27-29.85,36.08-76.17,49.89-49-13.79-70.09-43-74-48.83l2-2.5s-1.41-3-5-.86a2.83,2.83,0,0,0-.88,3.22s.2.32.51.78h0s25.87,37.64,76.87,51.82a2.05,2.05,0,0,0,.49.06,1.75,1.75,0,0,0,.51-.07c49.06-14.51,73.54-37.19,79.85-54.48A2.23,2.23,0,0,0,304.49,300.34Z" />
  <path class="BUNTAI_OWL_JEWELRY_BUNTAI_OWL_JEWELRY_21_g" d="M231.92,377.58c1.78,1.61,3.12,9.46-3.83,10.46s-10.57-6.58-6.5-13c4-6.24,11.6-3.42,12.07-3.24a9.3,9.3,0,0,0-10.87,4.17c-4.56,7,4.25,11.71,6.75,8.1s-.61-7.3-4.65-7.79C226.93,375,230.14,376,231.92,377.58Z" />
  <path class="BUNTAI_OWL_JEWELRY_BUNTAI_OWL_JEWELRY_21_h" d="M239.85,380c-.49-5.48-8.38-11.14-15-3.74,2-1.3,5.25-.27,7,1.33S235,387,228.09,388s-10.57-6.58-6.5-13c4-6.24,11.6-3.42,12.07-3.24h0a12,12,0,0,1,3.22,1.39s-.79-6.52-10.44-7.2c-.53,0-1.08-.06-1.67-.06h-.58c-10.79.43-14.88,12.6-11.78,20.26s12.15,10.6,18.68,8.46S240.33,385.47,239.85,380Z" />
  <path class="BUNTAI_OWL_JEWELRY_BUNTAI_OWL_JEWELRY_21_i" d="M226.47,359.39V366c-.53,0-1.08-.06-1.67-.06h-.58v-6.53a.75.75,0,0,1,0-.21,3.09,3.09,0,0,0,1.11.21,3.17,3.17,0,0,0,1.11-.21A1.48,1.48,0,0,1,226.47,359.39Z" />
  <path class="BUNTAI_OWL_JEWELRY_BUNTAI_OWL_JEWELRY_21_j" d="M225.35,352.9a3.25,3.25,0,0,1,1.11,6.28,3.17,3.17,0,0,1-1.11.21,3.09,3.09,0,0,1-1.11-.21,3.25,3.25,0,0,1,1.11-6.28Z" />
  <path class="BUNTAI_OWL_JEWELRY_BUNTAI_OWL_JEWELRY_21_k" d="M233.69,371.78a12,12,0,0,1,3.22,1.39s-.79-6.52-10.44-7.2c-.53,0-1.08-.06-1.67-.06h-.58c-10.79.43-14.88,12.6-11.78,20.26s12.15,10.6,18.68,8.46,9.21-9.17,8.73-14.65-8.38-11.14-15-3.74c4,.49,7.15,4.18,4.65,7.79s-11.31-1.07-6.75-8.1a9.3,9.3,0,0,1,10.87-4.17" />
  <path class="BUNTAI_OWL_JEWELRY_BUNTAI_OWL_JEWELRY_21_k" d="M234.78,370.84h0" />
  <path class="BUNTAI_OWL_JEWELRY_BUNTAI_OWL_JEWELRY_21_k" d="M228.09,367.24a9,9,0,0,1,.13,2.81,20.36,20.36,0,0,1,6.55.78A9.36,9.36,0,0,0,228.09,367.24Z" />
  <path class="BUNTAI_OWL_JEWELRY_BUNTAI_OWL_JEWELRY_21_k" d="M222.72,367.61s-4.84,2.24-6,5a14.35,14.35,0,0,1,3.75,2.09l1.85-2.36a19.74,19.74,0,0,0-2.58-1.8l-.93,1.16a6.54,6.54,0,0,1,1.73,1" />
  <path class="BUNTAI_OWL_JEWELRY_BUNTAI_OWL_JEWELRY_21_k" d="M215.9,379.24l1.45.18v3.31h-2.87s.09-4.51.51-5.45a25.36,25.36,0,0,1,3.85.55s-.32,5.63,0,6.86c-3.94,1.31-5.37.44-5.37.44s-1.14-6.41,1.21-10.4a16.63,16.63,0,0,1,5.13,1.82" />
  <path class="BUNTAI_OWL_JEWELRY_BUNTAI_OWL_JEWELRY_21_k" d="M233.69,371.78h0c-.47-.18-8.11-3-12.07,3.24-4.07,6.45-.46,14,6.5,13s5.61-8.85,3.83-10.46-5-2.63-7-1.33" />
  <path class="BUNTAI_OWL_JEWELRY_BUNTAI_OWL_JEWELRY_21_k" d="M219.26,385.41a11.57,11.57,0,0,1-4.5,2.14c5.16,4.93,9.5,5.63,9.5,5.63l1.8-3.47s-4.3-1.47-5.65-3.07c-1.64,1.1-1.88,1.57-1.88,1.57a23.18,23.18,0,0,0,3.95,2.74c.82-.91.82-1.14.82-1.14" />
  <path class="BUNTAI_OWL_JEWELRY_BUNTAI_OWL_JEWELRY_21_k" d="M227.28,389.3s-.36,3.21-.62,4a8.09,8.09,0,0,0,6.08-2,10.83,10.83,0,0,0-1.05-2.49A41,41,0,0,1,227.28,389.3Z" />
  <path class="BUNTAI_OWL_JEWELRY_BUNTAI_OWL_JEWELRY_21_k" d="M234.34,378.34s-2-2.56-4.53-3a7,7,0,0,1,5.85.4A13.23,13.23,0,0,0,234.34,378.34Z" />
  <path class="BUNTAI_OWL_JEWELRY_BUNTAI_OWL_JEWELRY_21_k" d="M237.28,377.28s-2.33,1.67-2.89,3.46a12.41,12.41,0,0,1-.72,5,6.78,6.78,0,0,1-.94,1.54,13.35,13.35,0,0,1,2.28,2.9s4.41-3.18,3.12-10.22a4.47,4.47,0,0,0-2.58.82s-.23,4-.93,5.19l-.07.1a9.3,9.3,0,0,0,1.38.91" />
  <path class="BUNTAI_OWL_JEWELRY_BUNTAI_OWL_JEWELRY_21_k" d="M224.24,359.18a3.19,3.19,0,1,1,2.22,0,3.17,3.17,0,0,1-1.11.21A3.09,3.09,0,0,1,224.24,359.18Z" />
  <path class="BUNTAI_OWL_JEWELRY_BUNTAI_OWL_JEWELRY_21_l" d="M224.22,365.92h0v-6.53a.75.75,0,0,1,0-.21" />
  <path class="BUNTAI_OWL_JEWELRY_BUNTAI_OWL_JEWELRY_21_l" d="M226.46,359.18a1.48,1.48,0,0,1,0,.21V366" />
</svg>