<svg xmlns="http://www.w3.org/2000/svg" viewBox="0 0 432 432">
  <defs>
    <style>.BUNTAI_OWL_JEWELRY_BUNTAI_OWL_JEWELRY_8_a{fill:#fff;}.BUNTAI_OWL_JEWELRY_BUNTAI_OWL_JEWELRY_8_a,.BUNTAI_OWL_JEWELRY_BUNTAI_OWL_JEWELRY_8_b,.BUNTAI_OWL_JEWELRY_BUNTAI_OWL_JEWELRY_8_d,.BUNTAI_OWL_JEWELRY_BUNTAI_OWL_JEWELRY_8_e{stroke:#000;}.BUNTAI_OWL_JEWELRY_BUNTAI_OWL_JEWELRY_8_a,.BUNTAI_OWL_JEWELRY_BUNTAI_OWL_JEWELRY_8_b{stroke-miterlimit:10;stroke-width:0.85px;}.BUNTAI_OWL_JEWELRY_BUNTAI_OWL_JEWELRY_8_b{fill:#754c24;}.BUNTAI_OWL_JEWELRY_BUNTAI_OWL_JEWELRY_8_c{fill:#333;}.BUNTAI_OWL_JEWELRY_BUNTAI_OWL_JEWELRY_8_d{fill:none;stroke-width:0.64px;}.BUNTAI_OWL_JEWELRY_BUNTAI_OWL_JEWELRY_8_d,.BUNTAI_OWL_JEWELRY_BUNTAI_OWL_JEWELRY_8_e{stroke-linecap:round;stroke-linejoin:round;}.BUNTAI_OWL_JEWELRY_BUNTAI_OWL_JEWELRY_8_e{fill:#ffc33e;stroke-width:1.66px;}</style>
  </defs>
  <path class="BUNTAI_OWL_JEWELRY_BUNTAI_OWL_JEWELRY_8_a" d="M195.1,404.32l1.47.51c.81.28,1.9.65,3.18,1.07l1.11.37,1.47.47.33.11,1.06.34,2.44.75,1.78.53,2.19.62.71.19.75.2,1.59.4.84.2,1,.21c.55-1.81,1.1-3.36,1.1-3.36l-1-.26h0l-.68-.19-.3-.08-1.85-.51-1.36-.38L209,405l-2.78-.79-1.12-.32-1.79-.54-.49-.15-.7-.22-1-.33-1.3-.42L199,402l-1.17-.39-.09,0-1.77-.61a7,7,0,0,0-1.11,2A2.51,2.51,0,0,0,195.1,404.32Z" />
  <polyline class="BUNTAI_OWL_JEWELRY_BUNTAI_OWL_JEWELRY_8_a" points="216.09 406.93 216.99 404.72 217.56 404.84 217.12 407.44 216.56 407.33 215.77 410.07 216.29 410.18 215.07 412.48 214.64 412.3 215 410.29" />
  <line class="BUNTAI_OWL_JEWELRY_BUNTAI_OWL_JEWELRY_8_a" x1="218.06" y1="407.63" x2="217.11" y2="407.44" />
  <line class="BUNTAI_OWL_JEWELRY_BUNTAI_OWL_JEWELRY_8_a" x1="217.31" y1="410.39" x2="216.29" y2="410.18" />
  <path class="BUNTAI_OWL_JEWELRY_BUNTAI_OWL_JEWELRY_8_a" d="M215.1,406.67s-.73,2.11-1.08,3.41" />
  <path class="BUNTAI_OWL_JEWELRY_BUNTAI_OWL_JEWELRY_8_a" d="M196.57,404.83a11.35,11.35,0,0,1,1.28-3.27" />
  <path class="BUNTAI_OWL_JEWELRY_BUNTAI_OWL_JEWELRY_8_a" d="M197.19,405s.94-1.42,1.83-3.09" />
  <path class="BUNTAI_OWL_JEWELRY_BUNTAI_OWL_JEWELRY_8_a" d="M199.82,402.22a6.18,6.18,0,0,1-1.1,3.34" />
  <path class="BUNTAI_OWL_JEWELRY_BUNTAI_OWL_JEWELRY_8_a" d="M202.16,403a19.91,19.91,0,0,1-1.3,3.3" />
  <path class="BUNTAI_OWL_JEWELRY_BUNTAI_OWL_JEWELRY_8_a" d="M201.12,402.64a5.59,5.59,0,0,1-1.37,3.26" />
  <path class="BUNTAI_OWL_JEWELRY_BUNTAI_OWL_JEWELRY_8_a" d="M202.86,403.19a16.19,16.19,0,0,1-.14,3.22l-.06.44" />
  <path class="BUNTAI_OWL_JEWELRY_BUNTAI_OWL_JEWELRY_8_a" d="M202.33,406.74a4.92,4.92,0,0,0,.39-.33,16.49,16.49,0,0,0,2.42-2.53" />
  <path class="BUNTAI_OWL_JEWELRY_BUNTAI_OWL_JEWELRY_8_a" d="M206.26,404.2l-.21.29a19.23,19.23,0,0,1-2.33,2.7" />
  <path class="BUNTAI_OWL_JEWELRY_BUNTAI_OWL_JEWELRY_8_a" d="M206.05,404.49a5,5,0,0,1,.24,2.25c0,.41-.08.82-.13,1.2" />
  <path class="BUNTAI_OWL_JEWELRY_BUNTAI_OWL_JEWELRY_8_a" d="M206.29,406.74a7.53,7.53,0,0,0,1.73-.95l.47-.35c.2-.15.38-.31.55-.45" />
  <path class="BUNTAI_OWL_JEWELRY_BUNTAI_OWL_JEWELRY_8_a" d="M208,405.79a7.44,7.44,0,0,1-.08,2.68" />
  <path class="BUNTAI_OWL_JEWELRY_BUNTAI_OWL_JEWELRY_8_a" d="M210.91,405.51a7.67,7.67,0,0,1-.44,2.8,5.27,5.27,0,0,1-.34.78" />
  <path class="BUNTAI_OWL_JEWELRY_BUNTAI_OWL_JEWELRY_8_a" d="M208.49,405.44a12.48,12.48,0,0,1,2,2.87" />
  <path class="BUNTAI_OWL_JEWELRY_BUNTAI_OWL_JEWELRY_8_a" d="M214.42,406.48a11.35,11.35,0,0,1-1.24,3.4" />
  <path class="BUNTAI_OWL_JEWELRY_BUNTAI_OWL_JEWELRY_8_a" d="M214.12,406.4a12.14,12.14,0,0,1-2.53,3.08" />
  <line class="BUNTAI_OWL_JEWELRY_BUNTAI_OWL_JEWELRY_8_a" x1="210.84" y1="409.28" x2="212.27" y2="405.89" />
  <path class="BUNTAI_OWL_JEWELRY_BUNTAI_OWL_JEWELRY_8_a" d="M267.34,411.32a42.59,42.59,0,0,1-14.72,3.27c-15.38,1.05-32.74-2.84-35.51-3.49l1.14-4.15c2.44.57,25.72,6.9,50.13,1.75C269.7,408.43,268.53,410.77,267.34,411.32Z" />
  <line class="BUNTAI_OWL_JEWELRY_BUNTAI_OWL_JEWELRY_8_a" x1="218.25" y1="406.95" x2="217.11" y2="411.1" />
  <path class="BUNTAI_OWL_JEWELRY_BUNTAI_OWL_JEWELRY_8_b" d="M231,406.63a1.37,1.37,0,0,1-.34,0c-41.33-8.73-61.86-33.93-71.8-53.53-10.73-21.17-13.22-45.83-13.23-46a3.42,3.42,0,0,1,1.34-2.46c1.32-.67,2.28-.25,3.81,1.29a9.58,9.58,0,0,0-2.21,1.83c0,.19,2.44,23.67,13,44.42,9.64,19,29.51,43.37,69.38,51.93,42.08-13,61.33-37.63,70.08-56,9.51-20,9.14-39.3,9.06-39.46-.55-.31-1-.69-1.91-1.18a3.92,3.92,0,0,1,3.27-1.3c1.33.23,1.44,2.29,1.47,3A94.38,94.38,0,0,1,303.68,349c-9,18.89-28.83,44.21-72.2,57.53A1.85,1.85,0,0,1,231,406.63Z" />
  <path class="BUNTAI_OWL_JEWELRY_BUNTAI_OWL_JEWELRY_8_c" d="M227.66,403.19l2,.47s2-1,2.87.4.45,2.41-.64,2.85-2.69.06-3-.71a4.71,4.71,0,0,0-1.89-.37,4.16,4.16,0,0,0,3.4,2.86c2.61.23,4.21-1.18,4.47-3.05a3.19,3.19,0,0,0-2.1-3.4A4.39,4.39,0,0,0,227.66,403.19Z" />
  <path class="BUNTAI_OWL_JEWELRY_BUNTAI_OWL_JEWELRY_8_d" d="M226.87,405.73a3.74,3.74,0,0,0,3.56,3,2.55,2.55,0,0,0,.39,0,4.29,4.29,0,0,0,2.67-.89,3.26,3.26,0,0,0,1.32-2.4.65.65,0,0,0,0-.19,3.19,3.19,0,0,0-.91-2.21,4.26,4.26,0,0,0-3.1-1.27,4.2,4.2,0,0,0-3.25,1.46l2,.47a2.36,2.36,0,0,1,1.27-.36,2.26,2.26,0,0,1,1.2.32,1.83,1.83,0,0,1,1,1.59,1.69,1.69,0,0,1-.23.85,2.35,2.35,0,0,1-3.88,0h0Z" />
  <circle class="BUNTAI_OWL_JEWELRY_BUNTAI_OWL_JEWELRY_8_e" cx="128.57" cy="155.1" r="2.61" />
  <path class="BUNTAI_OWL_JEWELRY_BUNTAI_OWL_JEWELRY_8_e" d="M128.57,157.71s-3.45,34.07-3.45,42.68,3.45,10.68,3.45,10.68S132,209,132,200.39,128.57,157.71,128.57,157.71Z" />
</svg>