<svg xmlns="http://www.w3.org/2000/svg" viewBox="0 0 432 432">
  <defs>
    <style>.BUNTAI_OWL_JEWELRY_BUNTAI_OWL_JEWELRY_4_a{fill:#fff;}.BUNTAI_OWL_JEWELRY_BUNTAI_OWL_JEWELRY_4_b{fill:#666;}.BUNTAI_OWL_JEWELRY_BUNTAI_OWL_JEWELRY_4_c{fill:#c7a858;}.BUNTAI_OWL_JEWELRY_BUNTAI_OWL_JEWELRY_4_d{fill:none;stroke:#000;stroke-linecap:round;stroke-linejoin:round;stroke-width:1.22px;}</style>
  </defs>
  <path class="BUNTAI_OWL_JEWELRY_BUNTAI_OWL_JEWELRY_4_a" d="M139.07,208.3a17.7,17.7,0,0,1-15.63-4.92,8.63,8.63,0,0,0,5.86-4.75C130.84,201.19,133.72,204.69,139.07,208.3Z" />
  <path class="BUNTAI_OWL_JEWELRY_BUNTAI_OWL_JEWELRY_4_a" d="M139.29,208.44c-3,1.25-14.09,4.73-24.3-7.6a8.56,8.56,0,0,0,3.41-.49,42.27,42.27,0,0,1-4.09-1.72,45.4,45.4,0,0,1-.49-15.55l2.88-1.78-.48,2.59,2-1.59c-.71,6-.46,12.84,2.68,17.8a19.61,19.61,0,0,0,2.55,3.28,17.7,17.7,0,0,0,15.63,4.92Z" />
  <path class="BUNTAI_OWL_JEWELRY_BUNTAI_OWL_JEWELRY_4_b" d="M120.51,175.22s4,1.29,4.85,1.2l-3.25,1.47,2.24.8-2.42.8s2.79,3.72,4.7,4.27c-4.3-.12-6-1.17-6-1.17l-1.17,2.89-1.2-3.18a66.67,66.67,0,0,1,1.27-7.08Z" />
  <path class="BUNTAI_OWL_JEWELRY_BUNTAI_OWL_JEWELRY_4_a" d="M119.41,185.48l1.17-2.89.06,2.09s2,6.57,5.1,8.23c-2.16,5-2.16,6.08-2.16,6.08l4-4.42a12.44,12.44,0,0,0,1.72,4.06,8.63,8.63,0,0,1-5.86,4.75,19.61,19.61,0,0,1-2.55-3.28c-3.14-5-3.39-11.75-2.68-17.8Z" />
  <path class="BUNTAI_OWL_JEWELRY_BUNTAI_OWL_JEWELRY_4_b" d="M119.48,175.22a66.67,66.67,0,0,0-1.27,7.08l-2,1.59.48-2.59-2.88,1.78a7.28,7.28,0,0,1-2.76,1.6,14.24,14.24,0,0,0,2.51-4.54l-1.41-.62,1.9-1.54-1.72-2.08s3.26-.07,3.63-.12,2.43-.56,2.43-.56Z" />
  <path class="BUNTAI_OWL_JEWELRY_BUNTAI_OWL_JEWELRY_4_c" d="M121.85,163.06a3.19,3.19,0,1,1-.21,0Z" />
  <path class="BUNTAI_OWL_JEWELRY_BUNTAI_OWL_JEWELRY_4_c" d="M119.94,149.07a6.15,6.15,0,0,0,2.8.59,2.54,2.54,0,0,0,1.25-.31c0,.19.05,2.84-2.14,2.84s-1.91-3.11-1.91-3.11Z" />
  <path class="BUNTAI_OWL_JEWELRY_BUNTAI_OWL_JEWELRY_4_c" d="M118.07,125.29a16.61,16.61,0,0,1,.51,4,4.72,4.72,0,0,0,0,5,3.15,3.15,0,0,0,1,1.13,7.35,7.35,0,0,0-2,3.15C113.89,135.33,112,129.05,118.07,125.29Z" />
  <path class="BUNTAI_OWL_JEWELRY_BUNTAI_OWL_JEWELRY_4_c" d="M122.7,136.21h0a5.8,5.8,0,0,0-2.55,3.93c-.64,3.05.43,6.48,2,6.48,1.72,0,1.74-4,1.63-6.09l.13,0a7.43,7.43,0,0,0,1.9-.58c.84,2.78.67,8.09-1.77,9.42a2.54,2.54,0,0,1-1.25.31,6.15,6.15,0,0,1-2.8-.59c-2.09-1-3.14-3.37-3-7a11.54,11.54,0,0,1,.65-3.5,7.35,7.35,0,0,1,2-3.15,2.63,2.63,0,0,1,1.86-.78,3.2,3.2,0,0,1,2.27,1.34,4.75,4.75,0,0,1-1,.19Z" />
  <path class="BUNTAI_OWL_JEWELRY_BUNTAI_OWL_JEWELRY_4_c" d="M127.19,125.91c2.75,2.63,4.05,11.51-1.43,14a7.43,7.43,0,0,1-1.9.58l-.13,0a7,7,0,0,1-3.6-.39,5.8,5.8,0,0,1,2.55-3.93h.06a4.75,4.75,0,0,0,1-.19,2.8,2.8,0,0,0,2.24-2.63c0-3.23-2-4.21-2-4.21S122.81,125.46,127.19,125.91Z" />
  <path class="BUNTAI_OWL_JEWELRY_BUNTAI_OWL_JEWELRY_4_d" d="M117.59,138.6c-3.7-3.27-5.61-9.55.48-13.31.4,2.74.51,4,.51,4a4.72,4.72,0,0,0,0,5,3.15,3.15,0,0,0,1,1.13" />
  <path class="BUNTAI_OWL_JEWELRY_BUNTAI_OWL_JEWELRY_4_d" d="M122.74,136.2a4.75,4.75,0,0,0,1-.19,2.8,2.8,0,0,0,2.24-2.63c0-3.23-2-4.21-2-4.21s-1.18-3.71,3.2-3.26c2.75,2.63,4.05,11.51-1.43,14a7.43,7.43,0,0,1-1.9.58l-.13,0a7,7,0,0,1-3.6-.39" />
  <path class="BUNTAI_OWL_JEWELRY_BUNTAI_OWL_JEWELRY_4_d" d="M125.76,139.93c.84,2.78.67,8.09-1.77,9.42a2.54,2.54,0,0,1-1.25.31,6.15,6.15,0,0,1-2.8-.59c-2.09-1-3.14-3.37-3-7a11.54,11.54,0,0,1,.65-3.5,7.35,7.35,0,0,1,2-3.15,2.63,2.63,0,0,1,1.86-.78,3.2,3.2,0,0,1,2.27,1.34" />
  <path class="BUNTAI_OWL_JEWELRY_BUNTAI_OWL_JEWELRY_4_d" d="M123.73,140.53c.11,2.11.09,6.09-1.63,6.09-1.54,0-2.61-3.43-2-6.48a5.8,5.8,0,0,1,2.55-3.93h.06" />
  <path class="BUNTAI_OWL_JEWELRY_BUNTAI_OWL_JEWELRY_4_d" d="M119.94,149.08s-.37,3.11,1.91,3.11,2.15-2.65,2.14-2.84h0" />
  <path class="BUNTAI_OWL_JEWELRY_BUNTAI_OWL_JEWELRY_4_d" d="M121.85,163.06a3.19,3.19,0,1,1-.21,0Z" />
  <path class="BUNTAI_OWL_JEWELRY_BUNTAI_OWL_JEWELRY_4_d" d="M119.48,175.22H118.4s-2.06.49-2.43.56-3.63.12-3.63.12l1.72,2.08-1.9,1.54,1.41.62a14.24,14.24,0,0,1-2.51,4.54,7.28,7.28,0,0,0,2.76-1.6,45.4,45.4,0,0,0,.49,15.55,42.27,42.27,0,0,0,4.09,1.72,8.56,8.56,0,0,1-3.41.49c10.21,12.33,21.34,8.85,24.3,7.6l-.22-.14c-5.35-3.61-8.23-7.11-9.77-9.67a12.44,12.44,0,0,1-1.72-4.06l-4,4.42s0-1,2.16-6.08c-3.08-1.66-5.1-8.23-5.1-8.23l-.06-2.09s1.75,1,6,1.17c-1.91-.55-4.7-4.27-4.7-4.27l2.42-.8-2.24-.8,3.25-1.47c-.85.09-4.85-1.2-4.85-1.2h-1" />
  <path class="BUNTAI_OWL_JEWELRY_BUNTAI_OWL_JEWELRY_4_d" d="M121.09,169.48c-.42,1.26-1,3.27-1.61,5.74a66.67,66.67,0,0,0-1.27,7.08c-.71,6-.46,12.84,2.68,17.8a19.61,19.61,0,0,0,2.55,3.28,17.7,17.7,0,0,0,15.63,4.92" />
  <path class="BUNTAI_OWL_JEWELRY_BUNTAI_OWL_JEWELRY_4_d" d="M123.44,203.38a8.63,8.63,0,0,0,5.86-4.75" />
  <polyline class="BUNTAI_OWL_JEWELRY_BUNTAI_OWL_JEWELRY_4_d" points="120.58 182.59 119.41 185.48 118.21 182.3 116.22 183.89 116.7 181.3 113.82 183.08" />
  <line class="BUNTAI_OWL_JEWELRY_BUNTAI_OWL_JEWELRY_4_d" x1="121.85" y1="163.06" x2="121.85" y2="152.19" />
  <path class="BUNTAI_OWL_JEWELRY_BUNTAI_OWL_JEWELRY_4_d" d="M130.45,127.47s-3.08-3.19-6-1,.14,6,.14,6" />
</svg>