<svg xmlns="http://www.w3.org/2000/svg" viewBox="0 0 432 432">
  <defs>
    <style>.BUNTAI_OWL_JEWELRY_BUNTAI_OWL_JEWELRY_27_a{fill:#e2cb6e;}.BUNTAI_OWL_JEWELRY_BUNTAI_OWL_JEWELRY_27_a,.BUNTAI_OWL_JEWELRY_BUNTAI_OWL_JEWELRY_27_b,.BUNTAI_OWL_JEWELRY_BUNTAI_OWL_JEWELRY_27_c,.BUNTAI_OWL_JEWELRY_BUNTAI_OWL_JEWELRY_27_f,.BUNTAI_OWL_JEWELRY_BUNTAI_OWL_JEWELRY_27_g{stroke:#000;}.BUNTAI_OWL_JEWELRY_BUNTAI_OWL_JEWELRY_27_a,.BUNTAI_OWL_JEWELRY_BUNTAI_OWL_JEWELRY_27_b,.BUNTAI_OWL_JEWELRY_BUNTAI_OWL_JEWELRY_27_c,.BUNTAI_OWL_JEWELRY_BUNTAI_OWL_JEWELRY_27_f{stroke-linecap:round;stroke-linejoin:round;}.BUNTAI_OWL_JEWELRY_BUNTAI_OWL_JEWELRY_27_a,.BUNTAI_OWL_JEWELRY_BUNTAI_OWL_JEWELRY_27_b{stroke-width:1.76px;}.BUNTAI_OWL_JEWELRY_BUNTAI_OWL_JEWELRY_27_b,.BUNTAI_OWL_JEWELRY_BUNTAI_OWL_JEWELRY_27_c,.BUNTAI_OWL_JEWELRY_BUNTAI_OWL_JEWELRY_27_f{fill:none;}.BUNTAI_OWL_JEWELRY_BUNTAI_OWL_JEWELRY_27_c{stroke-width:1.17px;}.BUNTAI_OWL_JEWELRY_BUNTAI_OWL_JEWELRY_27_d{fill:#c0c380;}.BUNTAI_OWL_JEWELRY_BUNTAI_OWL_JEWELRY_27_e{fill:#057948;}.BUNTAI_OWL_JEWELRY_BUNTAI_OWL_JEWELRY_27_f{stroke-width:0.86px;}.BUNTAI_OWL_JEWELRY_BUNTAI_OWL_JEWELRY_27_g{fill:#754c24;stroke-miterlimit:10;stroke-width:1.12px;}</style>
  </defs>
  <path class="BUNTAI_OWL_JEWELRY_BUNTAI_OWL_JEWELRY_27_a" d="M128.94,139.1a9,9,0,0,1-5.1,4.73c-7.71,2.95-16.45-.4-14.64-9.06,1.27-6.13,4-9.65,7.09-11.26a25.73,25.73,0,0,1,1.37,2.83l-.15.18c-1.7.72-3.73,2.5-4.8,8.65s8.91,6.58,11.28,2.5a5.22,5.22,0,0,0,.26-.47A8.77,8.77,0,0,0,123.1,128a7.07,7.07,0,0,1,2.48-2.32C129.71,130.24,130.62,135.34,128.94,139.1Z" />
  <path class="BUNTAI_OWL_JEWELRY_BUNTAI_OWL_JEWELRY_27_b" d="M122.35,134.34a7,7,0,0,1-.41-2.39,7.13,7.13,0,0,1,3.64-6.23,4.55,4.55,0,0,1,6.14,2.37" />
  <line class="BUNTAI_OWL_JEWELRY_BUNTAI_OWL_JEWELRY_27_c" x1="227.5" y1="357.05" x2="227.5" y2="360.6" />
  <path class="BUNTAI_OWL_JEWELRY_BUNTAI_OWL_JEWELRY_27_d" d="M240.2,387.8a7.78,7.78,0,0,1-1.55,4.4s-.41.22-1.08.55h0l-6.7,4.86a16.24,16.24,0,0,0-3.1,3.63,16,16,0,0,0-3.1-3.63l-6.71-4.87c-.67-.33-1.08-.55-1.08-.55a7.78,7.78,0,0,1-1.55-4.4,11.91,11.91,0,0,0,1.49,1,9,9,0,0,1-1.23-4.88,15.42,15.42,0,0,1,1.25-6.12c.82-1.56,3.47-5.08,3.72-6.8-1.19-1.56-1.62-3.8.69-3.8a2.62,2.62,0,0,1,2.7,2h-1.35s-.47-.62-.91-.37.19.76.57,1.76-.21,2.37-1,3.49a18.84,18.84,0,0,1,4.34-3.42V368.8s-1.45-4.37-1.74-6.09.82-2.1.82-2.1h6.2s1.13.39.83,2.1-1.74,6.09-1.74,6.09v1.91a18.68,18.68,0,0,1,4.33,3.42c-.79-1.12-1.38-2.51-1-3.49s1-1.51.56-1.76-.91.37-.91.37h-1.35a2.62,2.62,0,0,1,2.7-2c2.32,0,1.88,2.24.7,3.8.25,1.72,2.9,5.24,3.71,6.8s2.38,7.35,0,11A11.91,11.91,0,0,0,240.2,387.8Z" />
  <path class="BUNTAI_OWL_JEWELRY_BUNTAI_OWL_JEWELRY_27_e" d="M227.38,374.3s-6.4,2.17-7.27,7.44,2.27,10.37,7.15,10.37,7.05-2.66,7.29-3.54-.38,1.29.42-2.52.84-5.35-1.62-8.17A12.14,12.14,0,0,0,227.38,374.3Z" />
  <path class="BUNTAI_OWL_JEWELRY_BUNTAI_OWL_JEWELRY_27_f" d="M231.09,391.69h0c2.95-1.33,4.69-4.55,4.69-8.87,0-5.78-8-9-8-9s-8,3.19-8,9c0,4.32,1.75,7.54,4.7,8.87h0" />
  <path class="BUNTAI_OWL_JEWELRY_BUNTAI_OWL_JEWELRY_27_f" d="M224.42,391.69a7.93,7.93,0,0,0,3.33.69" />
  <path class="BUNTAI_OWL_JEWELRY_BUNTAI_OWL_JEWELRY_27_f" d="M235.41,390.33c.24-.42,1.24-2.41,1.24-7.74,0-6-8.9-11.74-8.9-11.74s-8.9,5.69-8.9,11.74c0,5.33,1,7.32,1.25,7.74a11.88,11.88,0,0,1-.94-13.45,14.66,14.66,0,0,1,2.07-2.75,18.84,18.84,0,0,1,4.34-3.42V368.8s-1.45-4.37-1.74-6.09.82-2.1.82-2.1h6.2s1.13.39.83,2.1-1.74,6.09-1.74,6.09v1.91a18.68,18.68,0,0,1,4.33,3.42,15.14,15.14,0,0,1,2.08,2.75A11.88,11.88,0,0,1,235.41,390.33Z" />
  <path class="BUNTAI_OWL_JEWELRY_BUNTAI_OWL_JEWELRY_27_f" d="M220.13,390.38l0,0h0a36.51,36.51,0,0,0,4.27,1.29" />
  <path class="BUNTAI_OWL_JEWELRY_BUNTAI_OWL_JEWELRY_27_f" d="M221.23,374.13c.8-1.12,1.39-2.51,1-3.49s-1-1.51-.57-1.76.91.37.91.37h1.35a2.62,2.62,0,0,0-2.7-2c-2.31,0-1.88,2.24-.69,3.8-.25,1.72-2.9,5.24-3.72,6.8a15.42,15.42,0,0,0-1.25,6.12,9,9,0,0,0,1.23,4.88c.13.2.27.39.42.58" />
  <path class="BUNTAI_OWL_JEWELRY_BUNTAI_OWL_JEWELRY_27_f" d="M224.42,391.69h0a37.57,37.57,0,0,1-4.26-1.29,21,21,0,0,1-3.35-1.56,11.91,11.91,0,0,1-1.49-1,7.78,7.78,0,0,0,1.55,4.4s.41.22,1.08.55c2.17,1.09,7.1,3.41,9.81,3.41v-3.79" />
  <path class="BUNTAI_OWL_JEWELRY_BUNTAI_OWL_JEWELRY_27_f" d="M217.94,392.75l6.71,4.87a16,16,0,0,1,3.1,3.63v-5.09" />
  <path class="BUNTAI_OWL_JEWELRY_BUNTAI_OWL_JEWELRY_27_f" d="M227.75,392.38a8,8,0,0,0,3.34-.69" />
  <path class="BUNTAI_OWL_JEWELRY_BUNTAI_OWL_JEWELRY_27_f" d="M235.36,390.4h0v0" />
  <path class="BUNTAI_OWL_JEWELRY_BUNTAI_OWL_JEWELRY_27_f" d="M238.7,388.84h0c2.35-3.65.75-9.53,0-11s-3.46-5.08-3.71-6.8c1.18-1.56,1.62-3.8-.7-3.8a2.62,2.62,0,0,0-2.7,2h1.35s.48-.62.91-.37-.19.76-.56,1.76.21,2.37,1,3.49" />
  <path class="BUNTAI_OWL_JEWELRY_BUNTAI_OWL_JEWELRY_27_f" d="M227.75,392.37v3.79a16,16,0,0,0,5.11-1.3c1.84-.71,3.6-1.56,4.69-2.1h0c.67-.33,1.08-.55,1.08-.55a7.78,7.78,0,0,0,1.55-4.4,11.91,11.91,0,0,1-1.49,1h0a20.08,20.08,0,0,1-3.34,1.56h0a36.39,36.39,0,0,1-4.26,1.29" />
  <path class="BUNTAI_OWL_JEWELRY_BUNTAI_OWL_JEWELRY_27_f" d="M227.75,396.16v5.09a16.24,16.24,0,0,1,3.1-3.63l6.7-4.86h0" />
  <path class="BUNTAI_OWL_JEWELRY_BUNTAI_OWL_JEWELRY_27_g" d="M302,301c-2.57-1.84-4.46-.51-4.46-.51l1.52,3.27c-6.13,15-29.13,37.15-71.76,49.86-45.08-12.7-69.08-46-72.67-51.33l1.1-2.08s-1.09-2.48-4.36-.5a2.9,2.9,0,0,0-.26,3.3s.18.29.46.71h0S180,344,226.89,357a1.74,1.74,0,0,0,.45.06,1.84,1.84,0,0,0,.47-.06c45.16-13.36,69.21-38,75-53.91A2,2,0,0,0,302,301Z" />
</svg>