<svg xmlns="http://www.w3.org/2000/svg" xmlns:xlink="http://www.w3.org/1999/xlink" viewBox="0 0 432 432">
  <defs>
    <style>.BUNTAI_DEER_BODY_DEER_BODY_37_cls-1,.BUNTAI_DEER_BODY_DEER_BODY_37_cls-10,.BUNTAI_DEER_BODY_DEER_BODY_37_cls-14,.BUNTAI_DEER_BODY_DEER_BODY_37_cls-16,.BUNTAI_DEER_BODY_DEER_BODY_37_cls-17{fill:none;stroke:#000;stroke-linecap:round;stroke-linejoin:round;}.BUNTAI_DEER_BODY_DEER_BODY_37_cls-1{stroke-width:2.05px;}.BUNTAI_DEER_BODY_DEER_BODY_37_cls-2{fill:#fff;}.BUNTAI_DEER_BODY_DEER_BODY_37_cls-3{isolation:isolate;}.BUNTAI_DEER_BODY_DEER_BODY_37_cls-4{fill:#efffb0;}.BUNTAI_DEER_BODY_DEER_BODY_37_cls-5{fill:#e2d0b9;}.BUNTAI_DEER_BODY_DEER_BODY_37_cls-6{fill:#926d5a;}.BUNTAI_DEER_BODY_DEER_BODY_37_cls-7{fill:#4e311a;}.BUNTAI_DEER_BODY_DEER_BODY_37_cls-8{fill:#794c35;}.BUNTAI_DEER_BODY_DEER_BODY_37_cls-9{fill:#101010;}.BUNTAI_DEER_BODY_DEER_BODY_37_cls-10{stroke-width:2.09px;}.BUNTAI_DEER_BODY_DEER_BODY_37_cls-11{clip-path:url(#BUNTAI_DEER_BODY_DEER_BODY_37_clip-path);}.BUNTAI_DEER_BODY_DEER_BODY_37_cls-12{fill:#dec600;}.BUNTAI_DEER_BODY_DEER_BODY_37_cls-13{clip-path:url(#BUNTAI_DEER_BODY_DEER_BODY_37_clip-path-2);}.BUNTAI_DEER_BODY_DEER_BODY_37_cls-14{stroke-width:1.81px;}.BUNTAI_DEER_BODY_DEER_BODY_37_cls-15{opacity:0.43;mix-blend-mode:multiply;}.BUNTAI_DEER_BODY_DEER_BODY_37_cls-16{stroke-width:1.99px;}.BUNTAI_DEER_BODY_DEER_BODY_37_cls-17{stroke-width:2px;}</style>
    <clipPath id="clip-path">
      <path class="BUNTAI_DEER_BODY_DEER_BODY_37_cls-1" d="M204.84,238.38s-.83-9.76-5.61-13.59-13.12-1.53-13.12-1.53,4.16,2.54,4.61,4.76,1,7.13,4.18,7.72a17.44,17.44,0,0,0,7.19-.71A8.34,8.34,0,0,1,204.84,238.38Z" />
    </clipPath>
    <clipPath id="clip-path-2">
      <path class="BUNTAI_DEER_BODY_DEER_BODY_37_cls-2" d="M258.18,238.38s.66-9.76,4.4-13.59,10.25-1.53,10.25-1.53-3.24,2.54-3.6,4.76-.76,7.13-3.27,7.72a10.88,10.88,0,0,1-5.62-.71A8.08,8.08,0,0,0,258.18,238.38Z" />
    </clipPath>
  </defs>
  <g class="BUNTAI_DEER_BODY_DEER_BODY_37_cls-3">
    <g id="body">
      <path class="BUNTAI_DEER_BODY_DEER_BODY_37_cls-4" d="M254.25,296.18c.15.06,3.47,1.45.77,6.31h0v0h0l-2.12,1.65C245.49,308.8,239.6,308,239.6,308s-5.89.82-13.27-3.81c-.56-.35-1.34-.85-2.26-1.46l.13-.19v0c-2.72-4.87.61-6.26.76-6.32h0a5.46,5.46,0,0,0,2,.39s12,.85,13.59-2c2.33,3,11.58,2,11.58,2a5.55,5.55,0,0,0,2.06-.39Z" />
      <path class="BUNTAI_DEER_BODY_DEER_BODY_37_cls-5" d="M193.86,300.92c.61-6.71,3.53-20.33,3.53-20.33h0a17.75,17.75,0,0,0,2.51,1.47h0c2.55,4.4,10.55,5.05,20.85,18.43,1.23.84,2.35,1.59,3.31,2.22s1.7,1.11,2.26,1.46c7.38,4.63,13.27,3.81,13.27,3.81s5.89.82,13.27-3.81l2.12-1.65h0v0h0c.25-.26,4.31-4.4,5.14-8,.3-1.44.55-3.33.91-5.53.76,4.08,1.57,8.78,1.85,11.93a2.34,2.34,0,0,1-1.61-.27s2.66,14.59,3.88,24.9c-1.43-1.43-2.47-2.6-2.6-2.74.16.62,6.41,20.58,6.94,37.44l-1.8-3c.31.93,9.15,14.35,10.3,31.32-1.6-4.78,8.23,12.74,8.13,12.47.39,2.27,22.8,43.69.66,69.15H164.93c-11.1-17.48-7.73-29.3-5.47-38.15a122.61,122.61,0,0,1,24.47-47.48c-.38.84-4.35.78-6.17,4.89,1.57-9.61,7.51-29.05,7.51-29.05-1.32-17.36,7.93-37.35,8-38.11l-1.74,3.3c1.23-10.31,4-26.91,4-26.91Z" />
      <path class="BUNTAI_DEER_BODY_DEER_BODY_37_cls-6" d="M250.09,182.72l.46.19.55.24a13.59,13.59,0,0,1,1.27.63l.21.12ZM353.23,470.15l-3.42-12.92q-6.68-26.49-13.34-53c-3.2-12.69-6.69-26-14.7-35.17-5.35-6.16-12.28-9.94-19.13-13.4a159.45,159.45,0,0,1-19.75-12.23c-3.4-2.39-3.88-4.43-5.73-8.46-7.88-16.45-12.25-59.51-12.25-59.51l-.05,0c.35-.79.74-1.57,1.16-2.35,4.54-8.4,7.2-22.63,2.91-33.26-.31-.77,1.66-2.07,1.77-3.53a58.18,58.18,0,0,1,1.43-8.18s-.21-1.09-.48-2a5.26,5.26,0,0,0,1.19-1.49h0a3.26,3.26,0,0,0,.15-1.87l.51.24c.52.26,1.1.56,1.75.93h0l.12,0h0c.59-.19,1.2-.4,1.84-.63,7.29-2.63,16.83-12.41,20.3-21.5s4.94-16.95,5.59-28.22-7.41-9.88-10.89-7.17-13.23,6.29-20.06,17a119,119,0,0,0-8.09,15.49c-.27-.7-.54-1.39-.8-2a34.63,34.63,0,0,0-3.09-6.24,17.9,17.9,0,0,0-2.92-3.35c-4.34-4-8.52-5.38-12.06-5.62a17.9,17.9,0,0,0-3.13.06,78,78,0,0,1-17-.54,31.1,31.1,0,0,0-15.7,2.89c-.74.34-1.48.73-2.22,1.16a29.41,29.41,0,0,0-8.57,7.53,1.47,1.47,0,0,0-.1.13,31.94,31.94,0,0,0-2.42,3.64l-.2.34c-.47.84-.94,1.65-1.41,2.44-.64,1.08-1.28,2.12-1.91,3.12-.09.14-.18.29-.28.43-.68-2-1.4-3.95-1.4-3.95h0c-1.6-3.61-3.6-7.8-5.85-11.77,0,0,0,0,0,0-.72-1.26-1.46-2.51-2.23-3.7-5.76-9-13.61-13-18-15.59h0l0,0-.07-.05a18.51,18.51,0,0,1-1.93-1.27l-.15-.11,0,0a8,8,0,0,0-1.18-.71l-.12-.07c-3.87-1.93-10-1.75-9.39,8.1.65,11.27,2.12,19.13,5.59,28.22,3.39,8.89,12.59,18.44,19.81,21.31-.21.33-.39.66-.56,1a19.78,19.78,0,0,1,5.57-2.41l.14,0-.11.18a19.74,19.74,0,0,0-1.6,3.73c0,.05,0,.09,0,.14a32.56,32.56,0,0,0-.8,4.87c2.19-1.4,2.19-2.4,2.19-2.4a13,13,0,0,1,2.16,2.35c.16.22.33.45.49.69,0,0-5.38,19.3-11.67,49.32S163.7,335,163.7,335c-.43,4-2.76,6.07-6.81,8.46a198.74,198.74,0,0,1-23.47,12.23c-8.15,3.46-16.39,7.24-22.75,13.4-9.53,9.2-13.68,22.48-17.48,35.17l-15.87,53-4,12.92h91.65c-11.09-17.48-7.73-29.3-5.47-38.15a122.22,122.22,0,0,1,24.34-47.31c-.79.68-4.35.9-6,4.72,1.57-9.61,7.51-29.05,7.51-29.05-1.32-17.36,7.93-37.35,8.05-38.11l-1.74,3.3c1.23-10.31,4-26.91,4-26.91l-1.74,2.28c.61-6.71,3.53-20.33,3.53-20.33h0a17.75,17.75,0,0,0,2.51,1.47h0c2.55,4.4,10.55,5.05,20.85,18.43,1.23.84,2.35,1.59,3.31,2.22l.13-.19v0c-2.72-4.87.61-6.26.76-6.32h0a5.46,5.46,0,0,0,2.05.39s12,.85,13.59-2c2.33,3,11.58,2,11.58,2a5.55,5.55,0,0,0,2.06-.39h0c.15.06,3.47,1.45.77,6.31.25-.26,4.31-4.4,5.14-8,.3-1.44.55-3.33.91-5.53.76,4.08,1.57,8.78,1.85,11.93a2.34,2.34,0,0,1-1.61-.27s2.66,14.59,3.88,24.9c-1.43-1.43-2.47-2.6-2.6-2.74.16.62,6.41,20.58,6.94,37.44l-1.8-3c.31.92,8.88,13.92,10.24,30.51,1,.49,8.15,13.28,8.19,13.28.39,2.27,22.81,43.69.66,69.15Z" />
      <path class="BUNTAI_DEER_BODY_DEER_BODY_37_cls-7" d="M160.61,9C158.36,7.35,147,29.66,139.5,57.39l.22-.06a23.85,23.85,0,0,1,4.36-.92c3.45-.36,4.73-.14,4.57.5a.49.49,0,0,1,0,.11l.81.21.07-.28c.18-.69.36-1.37.55-2.05C159,22,163.16,10.86,160.61,9Z" />
      <path class="BUNTAI_DEER_BODY_DEER_BODY_37_cls-7" d="M109.83,55.25c-1.3,7.5-2.21,14.73-2.81,21.53l.21-.17A133.69,133.69,0,0,1,118.75,68h0a200.78,200.78,0,0,1,2.12-20.29c4.19-25.69,10-37.57,8.39-39.32S114.56,27.75,109.83,55.25Z" />
      <path class="BUNTAI_DEER_BODY_DEER_BODY_37_cls-7" d="M348.16,83.79a70.15,70.15,0,0,0-6.69-7h0c-.54-6.8-1.36-14-2.54-21.53-4.27-27.5-16.12-48.59-17.56-46.84s3.79,13.63,7.58,39.32C329.85,54,330.49,61,330.86,68h0l-.18-.13c-6.36-4.67-13.09-8.68-18.56-10.5-6.79-27.73-17-50-19.07-48.4-2.3,1.87,1.43,13.05,9.55,45.91.18.73.35,1.45.53,2.19h0a.36.36,0,0,0,0,.1c7.58,32.06,8,63.39,5.48,72-2.53,8.85-36.83,24.4-36.83,24.4s-8.23-35.12-12.18-39,.49,31.29-2,42.47c-1.56,7.08-7.93,17.65-12.41,24.46,3.54.24,7.72,1.62,12.06,5.62a17.9,17.9,0,0,1,2.92,3.35c5.34-7.36,12.58-16.12,20.65-22.6,16.8-13.45,52.87-18.34,66-39.14S356.4,93.93,348.16,83.79Zm-21.53,29.36c-5,.93-5.59-11.77-12-44.45q-.51-2.6-1.07-5.15c2.18,1.31,4.45,2.72,6.54,4.15a65.54,65.54,0,0,1,11.1,10h0C331.48,96.15,329.89,112.55,326.63,113.15Z" />
      <path class="BUNTAI_DEER_BODY_DEER_BODY_37_cls-7" d="M137.91,63.55c-2.41,1.31-4.93,2.72-7.24,4.15a70.77,70.77,0,0,0-12.28,10c-.33,18.45,1.43,34.85,5,35.45,5.58.93,6.19-11.77,13.29-44.45Q137.29,66.1,137.91,63.55ZM148.61,57l.81.21c-8.39,32-8.79,63.35-6.07,72,2.8,8.85,40.77,24.4,40.77,24.4s9.11-35.12,13.48-39-.54,31.29,2.19,42.47c1.78,7.31,9.26,18.36,14.22,25.12a29.92,29.92,0,0,0-4.62,1.75c-.74.34-1.48.73-2.22,1.16a29.41,29.41,0,0,0-8.57,7.53,1.47,1.47,0,0,0-.1.13,31.94,31.94,0,0,0-2.42,3.64c-6-13.83-12.85-21.88-22-28.5-18.59-13.45-58.51-18.34-73.09-39.14s-10.51-34.89-1.39-45a73.55,73.55,0,0,1,7.4-7h0l.21-.17A133.69,133.69,0,0,1,118.75,68h0l.2-.13c7-4.67,14.49-8.68,20.54-10.5l.22-.06a23.85,23.85,0,0,1,4.36-.92c3.45-.36,4.73-.14,4.57.5A.49.49,0,0,1,148.61,57Z" />
      <path class="BUNTAI_DEER_BODY_DEER_BODY_37_cls-7" d="M252.58,183.9l-2.49-1.18.46.19.55.24a13.59,13.59,0,0,1,1.27.63Z" />
      <path class="BUNTAI_DEER_BODY_DEER_BODY_37_cls-5" d="M224.2,302.52v0c-2.72-4.87.61-6.26.76-6.32h0a5.46,5.46,0,0,0,2,.39h25.17a5.55,5.55,0,0,0,2.06-.39h0c.15.06,3.47,1.45.77,6.31h0l0,0-2.12,1.65C245.49,308.8,239.6,308,239.6,308s-5.89.82-13.27-3.81c-.56-.35-1.34-.85-2.26-1.46Z" />
      <path class="BUNTAI_DEER_BODY_DEER_BODY_37_cls-5" d="M252.52,279l-12-2-12,2s-6.25,7.89-3.38,17.36c12.39,0,15.42.18,15.42.18s3-.18,15.41-.18C258.77,286.92,252.52,279,252.52,279Z" />
      <path class="BUNTAI_DEER_BODY_DEER_BODY_37_cls-8" d="M240.48,261.17c-5.67,0-8.2,14.39-8.2,14.39,2.34-2.22,8.51,3.81,8.51,3.81s5.54-6,7.88-3.81C248.67,275.56,246.15,261.17,240.48,261.17Z" />
      <path class="BUNTAI_DEER_BODY_DEER_BODY_37_cls-9" d="M248.11,272.88c-2.53.9-7.63,2.68-7.63,2.68s-5.1-1.78-7.63-2.68-8.68,3.43-7.08,7.51,14.71,10.12,14.71,10.12,13.11-6,14.71-10.12S250.64,272,248.11,272.88Z" />
      <path class="BUNTAI_DEER_BODY_DEER_BODY_37_cls-10" d="M248.11,272.88c-2.53.9-7.63,2.68-7.63,2.68s-5.1-1.78-7.63-2.68-8.68,3.43-7.08,7.51,14.71,10.12,14.71,10.12,13.11-6,14.71-10.12S250.64,272,248.11,272.88Z" />
      <path class="BUNTAI_DEER_BODY_DEER_BODY_37_cls-2" d="M229.72,275.25s5.4,5.61,4.87,6.72-3.17,1.19-5.53-.28c1.14,2.64,8.7,5,8.44,1.9S229.72,275.25,229.72,275.25Z" />
      <path class="BUNTAI_DEER_BODY_DEER_BODY_37_cls-2" d="M246.36,282c-.52-1.11,4.87-6.72,4.87-6.72s-7.51,5.24-7.77,8.34,7.3.74,8.44-1.9C249.54,283.16,246.89,283.07,246.36,282Z" />
      <path class="BUNTAI_DEER_BODY_DEER_BODY_37_cls-5" d="M182.15,222.67a21.49,21.49,0,0,1,14.77-6.35c9.7-.43,15,25.44,8.65,29.72-9.78-3.37-17.63-7.68-19.85-13.07s-3.18-5.81-5.23-4.42C180.49,224,182.15,222.67,182.15,222.67Z" />
      <path class="BUNTAI_DEER_BODY_DEER_BODY_37_cls-2" d="M204.84,238.38s-.83-9.76-5.61-13.59-13.12-1.53-13.12-1.53,4.16,2.54,4.61,4.76,1,7.13,4.18,7.72a17.44,17.44,0,0,0,7.19-.71A8.34,8.34,0,0,1,204.84,238.38Z" />
      <g class="BUNTAI_DEER_BODY_DEER_BODY_37_cls-11">
        <path class="BUNTAI_DEER_BODY_DEER_BODY_37_cls-12" d="M195.1,225.45a4.2,4.2,0,1,0,5,3.34A4.25,4.25,0,0,0,195.1,225.45Z" />
        <ellipse cx="195.86" cy="229.57" rx="2.08" ry="2.03" transform="translate(-38.62 39.61) rotate(-10.52)" />
        <ellipse class="BUNTAI_DEER_BODY_DEER_BODY_37_cls-2" cx="194.42" cy="228.01" rx="0.94" ry="0.92" transform="translate(-38.36 39.32) rotate(-10.52)" />
        <ellipse class="BUNTAI_DEER_BODY_DEER_BODY_37_cls-1" cx="195.86" cy="229.57" rx="4.3" ry="4.19" transform="translate(-38.62 39.61) rotate(-10.52)" />
      </g>
      <path class="BUNTAI_DEER_BODY_DEER_BODY_37_cls-1" d="M204.84,238.38s-.83-9.76-5.61-13.59-13.12-1.53-13.12-1.53,4.16,2.54,4.61,4.76,1,7.13,4.18,7.72a17.44,17.44,0,0,0,7.19-.71A8.34,8.34,0,0,1,204.84,238.38Z" />
      <path class="BUNTAI_DEER_BODY_DEER_BODY_37_cls-8" d="M222.09,267.36s8.56-11.73,2.39-28.92-20.87-26.86-20.87-26.86,18.52,7.25,23.32,25.49S222.09,267.36,222.09,267.36Z" />
      <path class="BUNTAI_DEER_BODY_DEER_BODY_37_cls-5" d="M273.52,223q.25.56.54,1.29l-.33.1-.87.24h0a5.26,5.26,0,0,1-1.19,1.49,18.63,18.63,0,0,1,.63,3.1,1.47,1.47,0,0,0-.1.22c-2.05-1.31-.05-1.31-.05-1.31a58.18,58.18,0,0,0-1.43,8.18c-2.57,3.21-8.46,6.2-13.09,9.72-5-4.28-.82-30.15,6.76-29.72a15.07,15.07,0,0,1,8.43,3.19l.26.21-.14.08a8.76,8.76,0,0,0,1,1.74l.34.49a8.11,8.11,0,0,0-1.46-.41A13.6,13.6,0,0,1,273.52,223Z" />
      <path class="BUNTAI_DEER_BODY_DEER_BODY_37_cls-2" d="M258.18,238.38s.66-9.76,4.4-13.59,10.25-1.53,10.25-1.53-3.24,2.54-3.6,4.76-.76,7.13-3.27,7.72a10.88,10.88,0,0,1-5.62-.71A8.08,8.08,0,0,0,258.18,238.38Z" />
      <g class="BUNTAI_DEER_BODY_DEER_BODY_37_cls-13">
        <path class="BUNTAI_DEER_BODY_DEER_BODY_37_cls-12" d="M262.85,225.45a4.2,4.2,0,1,0,5,3.34A4.25,4.25,0,0,0,262.85,225.45Z" />
        <ellipse cx="263.62" cy="229.57" rx="2.08" ry="2.03" transform="matrix(0.98, -0.18, 0.18, 0.98, -37.48, 51.98)" />
        <ellipse class="BUNTAI_DEER_BODY_DEER_BODY_37_cls-2" cx="262.18" cy="228.01" rx="0.94" ry="0.92" transform="translate(-37.22 51.69) rotate(-10.52)" />
        <ellipse class="BUNTAI_DEER_BODY_DEER_BODY_37_cls-1" cx="263.62" cy="229.57" rx="4.3" ry="4.19" transform="translate(-37.48 51.98) rotate(-10.52)" />
      </g>
      <path class="BUNTAI_DEER_BODY_DEER_BODY_37_cls-14" d="M258.18,238.38s.66-9.76,4.4-13.59,10.25-1.53,10.25-1.53-3.24,2.54-3.6,4.76-.76,7.13-3.27,7.72a10.88,10.88,0,0,1-5.62-.71A8.08,8.08,0,0,0,258.18,238.38Z" />
      <path class="BUNTAI_DEER_BODY_DEER_BODY_37_cls-8" d="M254.66,267.36a42.49,42.49,0,0,1-8.4-28.79,40.69,40.69,0,0,1,13.43-26.73s-16.51,7.22-16.27,25.37A49.11,49.11,0,0,0,254.66,267.36Z" />
      <g class="BUNTAI_DEER_BODY_DEER_BODY_37_cls-15">
        <path d="M184.19,230.48s-6.67,29.59-11,49-9.27,55.65-9.27,55.65-9.38,35.68-1.54,43.22S177.76,388,177.76,388l18-1.11s2.36-56.51,1.31-74.1c3.14,9,6.06,12.81,6.06,12.81l-3.24-13.28s13.32,18.88,19.85,24.23A12,12,0,0,0,222,338c8.06,4.06,17.84-.32,20.75-8.85,3-8.7,7.08-20.16,9.4-23.92-7.58,3-14.33,4.35-23,.06s-9.2-5.58-9.2-5.58-3.26-9-8.62-14-14.75-12.93-17.92-22.49l1.26,8.86s-8.09-15.88-7.27-31.53C187.42,238.89,187.44,232.12,184.19,230.48Z" />
        <path d="M200,233.8a15.35,15.35,0,0,0-3.67.58c-.29,0-4.66.88-6.46-5.88,0,0,1.34,6.58,5.36,9.2s11.45,5.11,17.74,15.79c-1.42-11.64-8-19.56-11-25.62,2,6.83,1.81,7.1,1.81,7.1A10.35,10.35,0,0,0,200,233.8Z" />
        <path d="M261.9,233.8a9.4,9.4,0,0,1,2.82.58c.22,0,3.58.88,5-5.88,0,0-1,6.58-4.11,9.2s-7.33,5.48-8.72,15.79c-1.08-6.29,1.25-19.56,3.57-25.62C258.87,234.7,259,235,259,235A6.74,6.74,0,0,1,261.9,233.8Z" />
        <path d="M291.8,171.36c-.36-.18-14.69,9.9-18.3,15.84s-7.87,17.36-7.87,17.36,2.41,3.73,3.7,6.22,3.41,6.77,3.41,6.77l.27,1.75s8.64-5.65,14-13.92,9.38-23.07,9.38-23.07a64.23,64.23,0,0,1-8.21,12.16l6.29-12.92L287.59,187s9.24-14.4,10.21-17.71C294.76,169.15,291.8,171.36,291.8,171.36Z" />
        <path d="M113.75,82.86s-6.88,20.29,4.31,36.83,23.75,24.86,23.75,24.86-34.62-16.47-37.17-27.07S103,94.5,113.75,82.86Z" />
        <path d="M130.78,61S100.14,84.42,97.91,102.2s9.73,34.88,37.43,48.67c-25.9-11.14-40.12-20.23-42.56-40.27s4.08-25.14,16.31-35.23S130.78,61,130.78,61Z" />
        <path d="M128.13,8.83s-13,39.38-14.33,63.85c-6.78,4.1-6,5.59-6,5.59S106.61,64.2,112.29,45,121.42,14.71,128.13,8.83Z" />
        <path d="M142.67,61s-6.74,31.28-7.2,44.91,5.13,25.87,5.13,25.87-10-9.48-13.65-20.73c3.69-12.57,11.26-47.2,11.26-47.2Z" />
        <path d="M142.67,56.61S156.77,15,161.09,8.83c-4.06,3.73-9.52,12.83-13.5,23.89s-7.94,24.62-7.94,24.62Z" />
        <path d="M259.47,114.53s5.81,26.6,6.22,37.66S254,184.61,254,184.61s-5.57-3.17-9.18-2.36c10.37-15.14,13.86-20.74,13.75-35.71S255.51,113.8,259.47,114.53Z" />
        <path d="M271.8,153.63s8.34-.59,24.24-5.82,31.22-10.64,31.22-10.64S300.44,153.55,288,156.8,272.55,156.75,271.8,153.63Z" />
        <path d="M293,9s11,34.25,13.84,47.31a15.18,15.18,0,0,1-4-.06S289.92,12.35,293,9Z" />
        <path d="M307.4,59.83s14.89,50.47,1.23,69.4c1.35-18,1.85-33.52-.45-46.23s-4.76-25.83-4.76-25.83Z" />
        <path d="M304.89,57.17s16.78,6.6,26.68,16.73,17,22.37,17.71,30.53-2.79,18.4-13.16,26.56c7.69-8.39,10.37-17.36,8.27-28.54S333,76.58,321.79,68.89,304.89,57.17,304.89,57.17Z" />
        <path d="M321.12,8.9A229.88,229.88,0,0,1,330.64,36c4.43,15.61,5.54,36.13,5.54,36.13l-5.34-4.5s.44-11.19-3.87-31.4S321.12,8.9,321.12,8.9Z" />
        <path d="M334.66,82.35s.93,20.8-1.4,27.14-8.33,4.08-8.33,4.08,4.95,1,5.48-13.22.17-22.66.17-22.66Z" />
        <path d="M256.07,298.88s2.07-5,4.05-11.83,5.05-19.17,4.92-24.64a27.58,27.58,0,0,1,.52,7.86s4.76-9.45,4.79-13.89c-2.3,13.95-5.48,19.08-5.48,19.08s-3.56,8.92-3.8,12-.24,5.94-.24,5.94l-1.23,4.25-3.72,2.81Z" />
        <path d="M177.84,161.37c-22.27-10.84-39.93-10.5-39.93-10.5a6.07,6.07,0,0,0,2,1.75c2.4,1.48,6.35,2.66,10.86,4.07,5.22,1.62,11.21,3.55,16.42,6.6A90.29,90.29,0,0,1,184,176.12c2.25,3.48,10,15.48,12.08,19.57l2.18-3.19.24.32a1.47,1.47,0,0,1,.1-.13,29.41,29.41,0,0,1,8.57-7.53c.74-.43,1.48-.82,2.22-1.16A116.19,116.19,0,0,0,177.84,161.37Z" />
        <path d="M133,470.79s-1.4-13.4-1.4-20.74c2.1,7,2.45,8.56,2.45,8.56s3.08-21.14,7.57-33.73a318.12,318.12,0,0,0-1.74,40.37l2.38-9.55-1,14.45Z" />
        <path d="M167.7,341.82l-4.56-3.34a203.83,203.83,0,0,1-19.59,12.42c-11.27,6.29-23.35,8.69-30.91,16.4S99.08,384.71,94.5,399.94L83,438.28l-9.54,31.29,60,.84h39.75s17-49.71,20.1-66,2.42-17.6,2.42-17.6l-10.61-29.65S169.33,345.08,167.7,341.82Z" />
        <path d="M304.23,399.19s11.27,24.29,11.09,39.5a52.33,52.33,0,0,1-7.42,26.07,43.07,43.07,0,0,0,12.3-36.56c-3.23-22.71-9.52-31.28-9.52-31.28s.79-9.35-5.16-22.19a257.2,257.2,0,0,1,3.94,28.83s-3.2-14.85-5.23-17.65C305.09,391.33,304.23,399.19,304.23,399.19Z" />
        <path d="M308.84,411.6s1.64,32-15.49,44-56.68,3.85-56.68,3.85-50.16,8.91-78.47-22.2C153,467.17,157,470.15,157,470.15H304.23s11.52-15.21,10.91-32S308.84,411.6,308.84,411.6Z" />
      </g>
      <path class="BUNTAI_DEER_BODY_DEER_BODY_37_cls-10" d="M272.85,224.64a5.26,5.26,0,0,1-1.19,1.49c.27.92.48,2,.48,2a58.18,58.18,0,0,0-1.43,8.18c-.11,1.46-2.08,2.76-1.77,3.53,4.29,10.63,1.63,24.86-2.91,33.26-.42.78-.81,1.56-1.16,2.35a52.47,52.47,0,0,0-3.8,13.53c-.36,2.2-.61,4.09-.91,5.53-.83,3.57-4.89,7.71-5.14,8" />
      <path class="BUNTAI_DEER_BODY_DEER_BODY_37_cls-10" d="M275.27,223.94c-.65-.37-1.23-.67-1.75-.93l-.51-.24a3.26,3.26,0,0,1-.15,1.87" />
      <path class="BUNTAI_DEER_BODY_DEER_BODY_37_cls-10" d="M275.41,223.91l.08.15-.21-.12" />
      <path class="BUNTAI_DEER_BODY_DEER_BODY_37_cls-10" d="M275.4,223.91a18.54,18.54,0,0,0-1.16-1.88l-.34-.49a8.76,8.76,0,0,1-1-1.74l-.12-.29c-.59-1.46-1-3.09-1.67-5a22.56,22.56,0,0,0-3-5.57,38.54,38.54,0,0,1-2.22-5.3c-.57-1.54-1.2-3.24-1.82-4.84" />
      <path class="BUNTAI_DEER_BODY_DEER_BODY_37_cls-10" d="M264.1,198.83c-.27-.7-.54-1.39-.8-2a34.63,34.63,0,0,0-3.09-6.24,17.9,17.9,0,0,0-2.92-3.35c-4.34-4-8.52-5.38-12.06-5.62a17.9,17.9,0,0,0-3.13.06,78,78,0,0,1-17-.54" />
      <path class="BUNTAI_DEER_BODY_DEER_BODY_37_cls-10" d="M255,302.52l-2.12,1.65C245.49,308.8,239.6,308,239.6,308" />
      <path class="BUNTAI_DEER_BODY_DEER_BODY_37_cls-10" d="M225.09,181.11a31.1,31.1,0,0,0-15.7,2.89c-.74.34-1.48.73-2.22,1.16a29.41,29.41,0,0,0-8.57,7.53,1.47,1.47,0,0,0-.1.13,31.94,31.94,0,0,0-2.42,3.64l-.2.34c-.47.84-.94,1.65-1.41,2.44-.64,1.08-1.28,2.12-1.91,3.12-.09.14-.18.29-.28.43-.32.51-.64,1-1,1.49-.46.7-.92,1.38-1.37,2l-1,1.4c-.31.44-.62.86-.92,1.27-1.5,2.06-2.93,3.9-4.24,5.54l-1.88,2.34-1.56,1.95c-.68.85-1.29,1.63-1.83,2.37l-.26.36c-.38.54-.73,1.06-1,1.55-.21.33-.39.66-.56,1a19.78,19.78,0,0,1,5.57-2.41l.14,0-.11.18a19.74,19.74,0,0,0-1.6,3.73c0,.05,0,.09,0,.14a32.56,32.56,0,0,0-.8,4.87c2.19-1.4,2.19-2.4,2.19-2.4a13,13,0,0,1,2.16,2.35c.16.22.33.45.49.69a16.61,16.61,0,0,1,2.73,7.58v.07c.05.47.08.94.09,1.43a2.26,2.26,0,0,0,0,.24h0c-.52,2.89-4.86,30,9.93,40.07a17.75,17.75,0,0,0,2.51,1.47" />
      <path class="BUNTAI_DEER_BODY_DEER_BODY_37_cls-10" d="M196.55,275.93s1.32,2.61,3.35,6.12h0c2.55,4.4,10.55,5.05,20.85,18.43,1.23.84,2.35,1.59,3.31,2.22s1.7,1.11,2.26,1.46c7.38,4.63,13.27,3.81,13.27,3.81" />
      <path class="BUNTAI_DEER_BODY_DEER_BODY_37_cls-10" d="M118.39,77.7c-.33,18.45,1.43,34.85,5,35.45,5.58.93,6.19-11.77,13.29-44.45q.57-2.6,1.19-5.15" />
      <path class="BUNTAI_DEER_BODY_DEER_BODY_37_cls-10" d="M107,76.78c.6-6.8,1.51-14,2.81-21.53,4.73-27.5,17.85-48.59,19.44-46.84s-4.2,13.63-8.39,39.32A200.78,200.78,0,0,0,118.76,68" />
      <path class="BUNTAI_DEER_BODY_DEER_BODY_37_cls-10" d="M139.5,57.39C147,29.66,158.36,7.35,160.61,9,163.16,10.86,159,22,150,54.9c-.19.68-.37,1.36-.55,2.05l-.07.28c-8.39,32-8.79,63.35-6.07,72,2.8,8.85,40.77,24.4,40.77,24.4s9.11-35.12,13.48-39-.54,31.29,2.19,42.47c1.78,7.31,9.26,18.36,14.22,25.12" />
      <path class="BUNTAI_DEER_BODY_DEER_BODY_37_cls-10" d="M150.21,148c-30.05-11.18-44.9-28.68-44.9-28.68-6.46-16.18,3.09-31.52,13.08-41.62a70.77,70.77,0,0,1,12.28-10c2.31-1.43,4.83-2.84,7.24-4.15,5.34-2.9,10.12-5.34,10.7-6.53a.49.49,0,0,0,0-.11c.16-.64-1.12-.86-4.57-.5a23.85,23.85,0,0,0-4.36.92l-.22.06c-6.05,1.82-13.5,5.83-20.54,10.5l-.2.13h0a133.69,133.69,0,0,0-11.52,8.58l-.21.17h0a73.55,73.55,0,0,0-7.4,7c-9.12,10.14-13.18,24.23,1.39,45s54.5,25.69,73.09,39.14c9.14,6.62,16,14.67,22,28.5" />
      <path class="BUNTAI_DEER_BODY_DEER_BODY_37_cls-16" d="M331.18,77.7c.3,18.45-1.29,34.85-4.55,35.45-5,.93-5.59-11.77-12-44.45q-.51-2.6-1.07-5.15" />
      <path class="BUNTAI_DEER_BODY_DEER_BODY_37_cls-16" d="M341.46,76.78c-.54-6.8-1.36-14-2.54-21.53-4.27-27.5-16.12-48.59-17.56-46.84s3.79,13.63,7.58,39.32C329.85,54,330.49,61,330.86,68" />
      <path class="BUNTAI_DEER_BODY_DEER_BODY_37_cls-16" d="M312.11,57.39c-6.79-27.73-17-50-19.07-48.4-2.3,1.87,1.43,13.05,9.55,45.91.18.73.35,1.45.53,2.19h0a.36.36,0,0,0,0,.1c7.58,32.06,8,63.39,5.48,72-2.53,8.85-36.83,24.4-36.83,24.4s-8.23-35.12-12.18-39,.49,31.29-2,42.47c-1.56,7.08-7.93,17.65-12.41,24.46" />
      <path class="BUNTAI_DEER_BODY_DEER_BODY_37_cls-16" d="M343,119.32c5.83-16.18-2.8-31.52-11.82-41.62a65.54,65.54,0,0,0-11.1-10c-2.09-1.43-4.36-2.84-6.54-4.15-4.82-2.9-9.14-5.33-9.66-6.53a.76.76,0,0,1,0-.11c-.15-.65,1-.86,4.13-.5a19.54,19.54,0,0,1,3.93.92,1.17,1.17,0,0,1,.2.06c5.47,1.82,12.2,5.83,18.56,10.5l.18.13h0a122,122,0,0,1,10.41,8.58l.19.17h0a70.15,70.15,0,0,1,6.69,7c8.24,10.14,11.9,24.23-1.26,45s-49.24,25.69-66,39.14c-8.07,6.48-15.31,15.24-20.65,22.6" />
      <path class="BUNTAI_DEER_BODY_DEER_BODY_37_cls-10" d="M225,296.18a5.82,5.82,0,0,1-2.84-2.44c-2.64-4.49-8.16-13.84-1-24.78" />
      <path class="BUNTAI_DEER_BODY_DEER_BODY_37_cls-10" d="M240.6,294.57c-1.58,2.85-13.59,2-13.59,2a5.46,5.46,0,0,1-2-.39" />
      <path class="BUNTAI_DEER_BODY_DEER_BODY_37_cls-10" d="M254.25,296.18c1.14-.44,1.12-1.24,1.76-2.31,2.64-4.43,6.31-13.86-1-24.91" />
      <path class="BUNTAI_DEER_BODY_DEER_BODY_37_cls-10" d="M240.6,294.57c2.33,3,11.58,2,11.58,2a5.55,5.55,0,0,0,2.06-.39" />
      <path class="BUNTAI_DEER_BODY_DEER_BODY_37_cls-10" d="M224.21,302.52h0v0c-2.72-4.87.61-6.26.76-6.32h0" />
      <path class="BUNTAI_DEER_BODY_DEER_BODY_37_cls-10" d="M254.24,296.18h0c.15.06,3.47,1.45.77,6.31h0v0h0" />
      <path class="BUNTAI_DEER_BODY_DEER_BODY_37_cls-17" d="M272.85,224.64h0l.87-.24.33-.1,1.21-.36h0l.12,0h0c.59-.19,1.2-.4,1.84-.63,7.29-2.63,16.83-12.41,20.3-21.5s4.94-16.95,5.59-28.22-7.41-9.88-10.89-7.17-13.23,6.29-20.06,17a119,119,0,0,0-8.09,15.49h0" />
      <path class="BUNTAI_DEER_BODY_DEER_BODY_37_cls-17" d="M265.92,203.68c2.43-6,5.95-14.1,9.15-18.85,5.16-7.65,11.71-10.33,15.24-12.48.3-.18.58-.36.83-.54,3.24-2.27,8.18-4.89,8.06.52s-3.18,16.28-4.59,22.82c-1.24,5.74-10.83,18.66-21.54,24.57l-.14.08" />
      <path class="BUNTAI_DEER_BODY_DEER_BODY_37_cls-17" d="M290.31,172.34h0c.19,12.39-11.13,21.7-11.13,21.7a19,19,0,0,0,8.41-3.67c-4.12,6.2-11.57,17-11.57,17l5-1.84a71.32,71.32,0,0,1-9.89,9" />
      <path class="BUNTAI_DEER_BODY_DEER_BODY_37_cls-10" d="M184.68,231.18S179.3,250.48,173,280.5s-9.3,54.49-9.3,54.49" />
      <path class="BUNTAI_DEER_BODY_DEER_BODY_37_cls-10" d="M264.92,275.48s4.37,43.06,12.25,59.51" />
      <path class="BUNTAI_DEER_BODY_DEER_BODY_37_cls-10" d="M271.8,153.63s1.17,7.07,11.07,4.74,32.86-13.52,44.39-21.2" />
      <path class="BUNTAI_DEER_BODY_DEER_BODY_37_cls-16" d="M183.93,384.52c-.38.84-4.35.78-6.17,4.89,1.57-9.61,7.51-29.05,7.51-29.05-1.32-17.36,7.93-37.35,8-38.11v0" />
      <path class="BUNTAI_DEER_BODY_DEER_BODY_37_cls-16" d="M164.93,470.15c-7.46-8.74-9-21.63-7.25-30.59,5-25.3,18.17-44.39,26.25-55l0-.07" />
      <path class="BUNTAI_DEER_BODY_DEER_BODY_37_cls-16" d="M197.39,280.59s-2.92,13.62-3.53,20.33l1.74-2.28s-2.79,16.6-4,26.91l1.74-3.3" />
      <path class="BUNTAI_DEER_BODY_DEER_BODY_37_cls-16" d="M262.58,322.8h0c.13.14,1.17,1.31,2.6,2.74-1.22-10.31-3.88-24.9-3.88-24.9a2.34,2.34,0,0,0,1.61.27c-.28-3.15-1.09-7.85-1.85-11.93" />
      <path class="BUNTAI_DEER_BODY_DEER_BODY_37_cls-16" d="M269.53,360.26h0c-.53-16.86-6.78-36.82-6.94-37.44" />
      <path class="BUNTAI_DEER_BODY_DEER_BODY_37_cls-17" d="M192.28,202.79c-.68-2-1.4-3.95-1.4-3.95h0c-1.6-3.61-3.6-7.8-5.85-11.77,0,0,0,0,0,0-.72-1.26-1.46-2.51-2.23-3.7-5.76-9-13.61-13-18-15.59h0l0,0-.07-.05a18.51,18.51,0,0,1-1.93-1.27l-.15-.11-.05,0a8,8,0,0,0-1.18-.71l-.12-.07c-3.87-1.93-10-1.75-9.39,8.1.65,11.27,2.12,19.13,5.59,28.22,3.39,8.89,12.59,18.44,19.81,21.31" />
      <path class="BUNTAI_DEER_BODY_DEER_BODY_37_cls-17" d="M180.36,218.81c-10.07-6.24-18.81-18.2-20-23.66-1.41-6.54-4.48-17.4-4.59-22.82s4.82-2.79,8.06-.52c.25.18.53.36.83.54,3.53,2.15,10.08,4.83,15.24,12.48,3.2,4.75,6.72,12.82,9.15,18.85l.88,2.63" />
      <path class="BUNTAI_DEER_BODY_DEER_BODY_37_cls-17" d="M164.67,172.34h0c-.19,12.39,11.13,21.7,11.13,21.7a19,19,0,0,1-8.41-3.67c4.12,6.2,11.57,17,11.57,17l-5-1.84a71,71,0,0,0,9.85,8.94l0,0" />
      <path class="BUNTAI_DEER_BODY_DEER_BODY_37_cls-10" d="M195.13,211.58c-12.84.62-13.53,7.2-12.88,10.07l0,.15" />
      <path class="BUNTAI_DEER_BODY_DEER_BODY_37_cls-10" d="M272,223.26s1.51-10.86-9.41-10.86" />
      <path class="BUNTAI_DEER_BODY_DEER_BODY_37_cls-10" d="M187.16,236.24s5.74,5.95,11,7.31" />
      <path class="BUNTAI_DEER_BODY_DEER_BODY_37_cls-10" d="M270.63,236.24s-5.62,5.95-8.92,7.31" />
      <path class="BUNTAI_DEER_BODY_DEER_BODY_37_cls-10" d="M277.17,335c1.85,4,2.33,6.07,5.73,8.46a159.45,159.45,0,0,0,19.75,12.23c6.85,3.46,13.78,7.24,19.13,13.4,8,9.2,11.5,22.48,14.7,35.17q6.67,26.49,13.34,53l3.42,12.92h-280l4-12.92,15.87-53c3.8-12.69,8-26,17.48-35.17,6.36-6.16,14.6-9.94,22.75-13.4a198.74,198.74,0,0,0,23.47-12.23c4-2.39,6.38-4.49,6.81-8.46" />
      <path class="BUNTAI_DEER_BODY_DEER_BODY_37_cls-16" d="M275.57,384.3c12.22,14.71,34,59.9,11.25,85.85" />
      <path class="BUNTAI_DEER_BODY_DEER_BODY_37_cls-16" d="M275.55,384.21l0,.09c.1.27.48,1.42,2.08,6.2-1.15-17-9.61-32.36-9.92-33.29" />
      <polyline class="BUNTAI_DEER_BODY_DEER_BODY_37_cls-16" points="267.72 357.19 267.73 357.21 269.53 360.25" />
      <path class="BUNTAI_DEER_BODY_DEER_BODY_37_cls-16" d="M148.07,382.59s-27.87,38.53-21.15,66.06,23.25,29.71,23.25,29.71" />
      <path class="BUNTAI_DEER_BODY_DEER_BODY_37_cls-16" d="M137,385.91s-1.14,10.14,0,15.3" />
      <path class="BUNTAI_DEER_BODY_DEER_BODY_37_cls-16" d="M293.13,382.59s27.87,38.53,21.15,66.06S291,478.36,291,478.36" />
      <path class="BUNTAI_DEER_BODY_DEER_BODY_37_cls-16" d="M304.23,385.91s1.14,10.14,0,15.3" />
      <g class="BUNTAI_DEER_BODY_DEER_BODY_37_cls-15">
        <path d="M175.72,222.82S163.56,215,158.67,203.7s-6.71-22-6.62-26.9a82.58,82.58,0,0,0-.25-8.58s0-2.62,4-3.26,12.92,4,17.4,7.69,9.77,10.93,12.91,16.75a130.28,130.28,0,0,1,6.2,14.18L188.74,208l-1.84,2.51s-8.6-8.57-10.7-12.35c2.39,8.09,2.75,9.24,2.75,9.24s-10.44-11.52-14.86-25.85c.35,6.41,3.9,24.24,17.36,36.82-2.28,1.94-5.19,4.71-5.19,4.71" />
      </g>
    </g>
  </g>
</svg>