<svg id="jewelry" xmlns="http://www.w3.org/2000/svg" viewBox="0 0 432 432">
  <defs>
    <style>.BUNTAI_GOAT_JEWELRY_BUNTAI_GOAT_JEWELRY_26_cls-1{fill:#e2cb6e;}.BUNTAI_GOAT_JEWELRY_BUNTAI_GOAT_JEWELRY_26_cls-1,.BUNTAI_GOAT_JEWELRY_BUNTAI_GOAT_JEWELRY_26_cls-2,.BUNTAI_GOAT_JEWELRY_BUNTAI_GOAT_JEWELRY_26_cls-4,.BUNTAI_GOAT_JEWELRY_BUNTAI_GOAT_JEWELRY_26_cls-5,.BUNTAI_GOAT_JEWELRY_BUNTAI_GOAT_JEWELRY_26_cls-6{stroke:#000;}.BUNTAI_GOAT_JEWELRY_BUNTAI_GOAT_JEWELRY_26_cls-1,.BUNTAI_GOAT_JEWELRY_BUNTAI_GOAT_JEWELRY_26_cls-2,.BUNTAI_GOAT_JEWELRY_BUNTAI_GOAT_JEWELRY_26_cls-4,.BUNTAI_GOAT_JEWELRY_BUNTAI_GOAT_JEWELRY_26_cls-6{stroke-linecap:round;stroke-linejoin:round;}.BUNTAI_GOAT_JEWELRY_BUNTAI_GOAT_JEWELRY_26_cls-1,.BUNTAI_GOAT_JEWELRY_BUNTAI_GOAT_JEWELRY_26_cls-2{stroke-width:1.1px;}.BUNTAI_GOAT_JEWELRY_BUNTAI_GOAT_JEWELRY_26_cls-2,.BUNTAI_GOAT_JEWELRY_BUNTAI_GOAT_JEWELRY_26_cls-4{fill:none;}.BUNTAI_GOAT_JEWELRY_BUNTAI_GOAT_JEWELRY_26_cls-3{fill:#fc9a1b;}.BUNTAI_GOAT_JEWELRY_BUNTAI_GOAT_JEWELRY_26_cls-4{stroke-width:1.56px;}.BUNTAI_GOAT_JEWELRY_BUNTAI_GOAT_JEWELRY_26_cls-5,.BUNTAI_GOAT_JEWELRY_BUNTAI_GOAT_JEWELRY_26_cls-6{fill:#834932;}.BUNTAI_GOAT_JEWELRY_BUNTAI_GOAT_JEWELRY_26_cls-5{stroke-miterlimit:10;stroke-width:1.53px;}.BUNTAI_GOAT_JEWELRY_BUNTAI_GOAT_JEWELRY_26_cls-6{stroke-width:1.53px;}</style>
  </defs>
  <path class="BUNTAI_GOAT_JEWELRY_BUNTAI_GOAT_JEWELRY_26_cls-1" d="M152.86,224.47a5.59,5.59,0,0,1-3.19,3c-4.83,1.85-10.3-.24-9.17-5.67a15.56,15.56,0,0,1,.41-1.57l2,.66c-.09.36-.17.74-.24,1.16-.67,3.87,5.58,4.12,7.06,1.57a2.85,2.85,0,0,0,.16-.3,5.48,5.48,0,0,0-.72-5.74,4.52,4.52,0,0,1,1.56-1.45C153.34,218.93,153.91,222.12,152.86,224.47Z" />
  <path class="BUNTAI_GOAT_JEWELRY_BUNTAI_GOAT_JEWELRY_26_cls-2" d="M148.73,221.49a4.63,4.63,0,0,1-.26-1.5,4.49,4.49,0,0,1,.73-2.45,4.43,4.43,0,0,1,1.56-1.45,2.84,2.84,0,0,1,3.84,1.48" />
  <path class="BUNTAI_GOAT_JEWELRY_BUNTAI_GOAT_JEWELRY_26_cls-3" d="M236,356.18c-2.4-3.68-8.35-3.52-11.58-2.69a9.69,9.69,0,0,0-7.32,6.11c-2.25,5.53-1.69,9,2.17,12.31s5.73,3.57,4.29,7.26-3.6,2.88-3.46,5.12,5.73,4.74,10.46,1.67,7.64-6.26,8.17-13.89S238.41,359.86,236,356.18Zm-3.68,10.61c-1.18,3.44-3.14,5.71-7.06,2.22s-.35-8.75-.35-8.75c.41-.7,3-2.28,5.14-1.31S233.51,363.35,232.33,366.79Z" />
  <path class="BUNTAI_GOAT_JEWELRY_BUNTAI_GOAT_JEWELRY_26_cls-4" d="M232.47,353.12a15.36,15.36,0,0,0-12.06,1.65c-13.13,16.83,6,17.35,3.38,23.9-.83,2-1.9,3.06-3,3.48a2.19,2.19,0,0,0-.28,3.69,8.66,8.66,0,0,0,6.87,1.56C242.64,384,240.61,355.14,232.47,353.12Z" />
  <path class="BUNTAI_GOAT_JEWELRY_BUNTAI_GOAT_JEWELRY_26_cls-4" d="M224.92,360.26s-3.57,5.26.35,8.75,5.88,1.22,7.06-2.22-.13-6.88-2.27-7.84A4.83,4.83,0,0,0,224.92,360.26Z" />
  <path class="BUNTAI_GOAT_JEWELRY_BUNTAI_GOAT_JEWELRY_26_cls-5" d="M225.79,362.38h-.69c-38.54,0-80.28-45.6-88.28-54.83,1-1.37,1.42-1.77,2.27-2.85-5.62-5.23-8.76,1.73-5.5,5.94.38.36,47.33,56.08,91.51,56.08h.71a2.2,2.2,0,0,0,0-4.35Z" />
  <path class="BUNTAI_GOAT_JEWELRY_BUNTAI_GOAT_JEWELRY_26_cls-6" d="M301.6,306.29c.74.8.91,1.13,1.94,2.41C275.61,349.08,241,361.47,231.64,362a2.1,2.1,0,0,0-2.11,1.85,2.13,2.13,0,0,0,1.59,2.45,5.72,5.72,0,0,0,4.1.25c27.87-7.95,57.3-32.57,72.73-55.81C310.41,307.14,306.61,301.34,301.6,306.29Z" />
</svg>