<svg id="jewelry" xmlns="http://www.w3.org/2000/svg" viewBox="0 0 432 432">
  <defs>
    <style>.BUNTAI_GOAT_JEWELRY_BUNTAI_GOAT_JEWELRY_17_cls-1,.BUNTAI_GOAT_JEWELRY_BUNTAI_GOAT_JEWELRY_17_cls-4,.BUNTAI_GOAT_JEWELRY_BUNTAI_GOAT_JEWELRY_17_cls-9{fill:none;stroke-linecap:round;stroke-linejoin:round;}.BUNTAI_GOAT_JEWELRY_BUNTAI_GOAT_JEWELRY_17_cls-1,.BUNTAI_GOAT_JEWELRY_BUNTAI_GOAT_JEWELRY_17_cls-4,.BUNTAI_GOAT_JEWELRY_BUNTAI_GOAT_JEWELRY_17_cls-5,.BUNTAI_GOAT_JEWELRY_BUNTAI_GOAT_JEWELRY_17_cls-9{stroke:#000;}.BUNTAI_GOAT_JEWELRY_BUNTAI_GOAT_JEWELRY_17_cls-1{stroke-width:1.19px;}.BUNTAI_GOAT_JEWELRY_BUNTAI_GOAT_JEWELRY_17_cls-2{fill:#c0c380;}.BUNTAI_GOAT_JEWELRY_BUNTAI_GOAT_JEWELRY_17_cls-3{fill:#057948;}.BUNTAI_GOAT_JEWELRY_BUNTAI_GOAT_JEWELRY_17_cls-4{stroke-width:0.88px;}.BUNTAI_GOAT_JEWELRY_BUNTAI_GOAT_JEWELRY_17_cls-5{fill:#754c24;stroke-miterlimit:10;stroke-width:1.14px;}.BUNTAI_GOAT_JEWELRY_BUNTAI_GOAT_JEWELRY_17_cls-6{fill:#7367ff;}.BUNTAI_GOAT_JEWELRY_BUNTAI_GOAT_JEWELRY_17_cls-7{fill:#ff5e63;}.BUNTAI_GOAT_JEWELRY_BUNTAI_GOAT_JEWELRY_17_cls-8{fill:#fff;}.BUNTAI_GOAT_JEWELRY_BUNTAI_GOAT_JEWELRY_17_cls-9{stroke-width:0.95px;}.BUNTAI_GOAT_JEWELRY_BUNTAI_GOAT_JEWELRY_17_cls-10{fill:#c7a858;}</style>
  </defs>
  <line class="BUNTAI_GOAT_JEWELRY_BUNTAI_GOAT_JEWELRY_17_cls-1" x1="219.46" y1="345.43" x2="219.46" y2="349.04" />
  <path class="BUNTAI_GOAT_JEWELRY_BUNTAI_GOAT_JEWELRY_17_cls-2" d="M232.37,376.7a7.88,7.88,0,0,1-1.58,4.47l-1.09.56h0l-6.81,4.95a16.34,16.34,0,0,0-3.16,3.68,15.91,15.91,0,0,0-3.15-3.68l-6.82-5-1.1-.56a7.91,7.91,0,0,1-1.57-4.47,13.84,13.84,0,0,0,1.51,1.06,9.1,9.1,0,0,1-1.26-5,15.74,15.74,0,0,1,1.28-6.23c.83-1.58,3.53-5.16,3.79-6.91-1.21-1.59-1.65-3.86.69-3.86a2.67,2.67,0,0,1,2.75,2h-1.37s-.48-.63-.93-.38.2.78.58,1.79-.21,2.41-1,3.55a19.37,19.37,0,0,1,4.41-3.47v-1.94s-1.46-4.45-1.77-6.19.84-2.15.84-2.15h6.31s1.15.41.84,2.15-1.77,6.19-1.77,6.19v1.94a19.14,19.14,0,0,1,4.41,3.47c-.81-1.14-1.41-2.54-1-3.55s1-1.53.57-1.79-.93.38-.93.38H223.6a2.67,2.67,0,0,1,2.75-2c2.35,0,1.9,2.27.7,3.86.26,1.75,2.95,5.33,3.78,6.91s2.42,7.48,0,11.2A13.84,13.84,0,0,0,232.37,376.7Z" />
  <path class="BUNTAI_GOAT_JEWELRY_BUNTAI_GOAT_JEWELRY_17_cls-3" d="M219.34,363s-6.51,2.21-7.4,7.56,2.31,10.55,7.28,10.55,7.17-2.71,7.41-3.6-.38,1.31.42-2.56.86-5.45-1.64-8.32A12.39,12.39,0,0,0,219.34,363Z" />
  <path class="BUNTAI_GOAT_JEWELRY_BUNTAI_GOAT_JEWELRY_17_cls-4" d="M223.11,380.66h0c3-1.36,4.77-4.62,4.77-9,0-5.87-8.16-9.12-8.16-9.12s-8.17,3.25-8.17,9.12c0,4.4,1.78,7.66,4.77,9h0" />
  <path class="BUNTAI_GOAT_JEWELRY_BUNTAI_GOAT_JEWELRY_17_cls-4" d="M216.33,380.66a8.18,8.18,0,0,0,3.39.69" />
  <path class="BUNTAI_GOAT_JEWELRY_BUNTAI_GOAT_JEWELRY_17_cls-4" d="M227.5,379.26c.25-.41,1.27-2.44,1.27-7.86,0-6.16-9.06-11.94-9.06-11.94s-9.05,5.78-9.05,11.94c0,5.42,1,7.45,1.28,7.86a12.08,12.08,0,0,1-1-13.67,15.31,15.31,0,0,1,2.11-2.8,19.37,19.37,0,0,1,4.41-3.47v-1.94s-1.46-4.45-1.77-6.19.84-2.15.84-2.15h6.31s1.15.41.84,2.15-1.77,6.19-1.77,6.19v1.94a19.14,19.14,0,0,1,4.41,3.47,14.84,14.84,0,0,1,2.1,2.8A12,12,0,0,1,227.5,379.26Z" />
  <path class="BUNTAI_GOAT_JEWELRY_BUNTAI_GOAT_JEWELRY_17_cls-4" d="M212,379.32v0h0a36.92,36.92,0,0,0,4.34,1.31" />
  <path class="BUNTAI_GOAT_JEWELRY_BUNTAI_GOAT_JEWELRY_17_cls-4" d="M213.08,362.79c.82-1.14,1.42-2.54,1-3.55s-1-1.53-.58-1.79.93.38.93.38h1.37a2.67,2.67,0,0,0-2.75-2c-2.34,0-1.9,2.27-.69,3.86-.26,1.75-3,5.33-3.79,6.91a15.74,15.74,0,0,0-1.28,6.23,9.1,9.1,0,0,0,1.26,5c.13.2.28.39.42.58" />
  <path class="BUNTAI_GOAT_JEWELRY_BUNTAI_GOAT_JEWELRY_17_cls-4" d="M216.33,380.65h0a39.57,39.57,0,0,1-4.34-1.31,21.59,21.59,0,0,1-3.4-1.58,13.84,13.84,0,0,1-1.51-1.06,7.91,7.91,0,0,0,1.57,4.47l1.1.56c2.21,1.11,7.22,3.47,10,3.47v-3.85" />
  <path class="BUNTAI_GOAT_JEWELRY_BUNTAI_GOAT_JEWELRY_17_cls-4" d="M209.74,381.73l6.82,5a15.91,15.91,0,0,1,3.15,3.68V385.2" />
  <path class="BUNTAI_GOAT_JEWELRY_BUNTAI_GOAT_JEWELRY_17_cls-4" d="M219.72,381.35a8.21,8.21,0,0,0,3.39-.69" />
  <path class="BUNTAI_GOAT_JEWELRY_BUNTAI_GOAT_JEWELRY_17_cls-4" d="M227.45,379.34h0v0" />
  <path class="BUNTAI_GOAT_JEWELRY_BUNTAI_GOAT_JEWELRY_17_cls-4" d="M230.85,377.76h0c2.39-3.72.76-9.7,0-11.2s-3.52-5.16-3.78-6.91c1.2-1.59,1.65-3.86-.7-3.86a2.67,2.67,0,0,0-2.75,2H225s.49-.63.93-.38-.2.78-.57,1.79.21,2.41,1,3.55" />
  <path class="BUNTAI_GOAT_JEWELRY_BUNTAI_GOAT_JEWELRY_17_cls-4" d="M219.71,381.35v3.85a16.17,16.17,0,0,0,5.2-1.33c1.87-.72,3.66-1.58,4.77-2.13h0l1.09-.56a7.88,7.88,0,0,0,1.58-4.47,13.84,13.84,0,0,1-1.51,1.06h0a21.07,21.07,0,0,1-3.39,1.58h0a38.3,38.3,0,0,1-4.34,1.31" />
  <path class="BUNTAI_GOAT_JEWELRY_BUNTAI_GOAT_JEWELRY_17_cls-4" d="M219.71,385.2v5.17a16.34,16.34,0,0,1,3.16-3.68l6.81-4.95h0" />
  <path class="BUNTAI_GOAT_JEWELRY_BUNTAI_GOAT_JEWELRY_17_cls-5" d="M296.48,288.08a2.07,2.07,0,0,0-2.82-.95c0,.45.22,2.56.22,2.56-6.24,15.24-31.25,39.35-74.6,52.28-45.84-12.91-68.63-44.13-72.28-49.55l.9-2.22s-.61-2.16-3.94-.15a3,3,0,0,0-.26,3.36s.18.3.47.73h0s26.93,38,74.66,51.22a1.76,1.76,0,0,0,.46.06,1.59,1.59,0,0,0,.48-.07c45.92-13.58,70.38-38.63,76.28-54.82C296.36,289.74,296.73,288.58,296.48,288.08Z" />
  <path class="BUNTAI_GOAT_JEWELRY_BUNTAI_GOAT_JEWELRY_17_cls-6" d="M154.29,270.69l1,31H143a20.32,20.32,0,0,1,11.25-31Z" />
  <circle class="BUNTAI_GOAT_JEWELRY_BUNTAI_GOAT_JEWELRY_17_cls-7" cx="145.28" cy="262.06" r="4.38" />
  <path class="BUNTAI_GOAT_JEWELRY_BUNTAI_GOAT_JEWELRY_17_cls-8" d="M154.29,270.68l-.71-21.9h-5.75a2.42,2.42,0,0,0-4.83,0h-5.76l-1.72,52.86h7.53a20.32,20.32,0,0,1,11.24-31Zm-8.87-23a1.15,1.15,0,1,1-1.15,1.14A1.14,1.14,0,0,1,145.42,247.64Zm-4.52,14.42a4.38,4.38,0,1,1,4.38,4.38A4.39,4.39,0,0,1,140.9,262.06Z" />
  <polyline class="BUNTAI_GOAT_JEWELRY_BUNTAI_GOAT_JEWELRY_17_cls-9" points="145.41 236.79 145.41 246.38 145.41 247.64 145.41 248.79" />
  <path class="BUNTAI_GOAT_JEWELRY_BUNTAI_GOAT_JEWELRY_17_cls-9" d="M154.29,270.69l-.72-21.91h-5.74a2.42,2.42,0,0,0-4.83,0h-5.77l-1.71,52.87H143" />
  <path class="BUNTAI_GOAT_JEWELRY_BUNTAI_GOAT_JEWELRY_17_cls-9" d="M144.26,248.78a1.15,1.15,0,0,1,2.3,0" />
  <path class="BUNTAI_GOAT_JEWELRY_BUNTAI_GOAT_JEWELRY_17_cls-9" d="M144.26,248.78h0a1.15,1.15,0,0,0,2.3,0h0" />
  <path class="BUNTAI_GOAT_JEWELRY_BUNTAI_GOAT_JEWELRY_17_cls-9" d="M154.29,270.69h0l1,31H143a20.32,20.32,0,0,1,11.25-31Z" />
  <circle class="BUNTAI_GOAT_JEWELRY_BUNTAI_GOAT_JEWELRY_17_cls-9" cx="145.28" cy="262.06" r="4.38" />
  <path class="BUNTAI_GOAT_JEWELRY_BUNTAI_GOAT_JEWELRY_17_cls-10" d="M145.32,236.93c-1.84,0-1.54-2.51-1.54-2.51h0a5,5,0,0,0,2.26.47,2.1,2.1,0,0,0,1-.25C147.06,234.79,147.09,236.93,145.32,236.93Z" />
  <path class="BUNTAI_GOAT_JEWELRY_BUNTAI_GOAT_JEWELRY_17_cls-10" d="M148.48,227c.67,2.24.53,6.53-1.43,7.6a2.1,2.1,0,0,1-1,.25,5,5,0,0,1-2.26-.47c-1.68-.82-2.53-2.73-2.42-5.63a9.32,9.32,0,0,1,.52-2.82,6.05,6.05,0,0,1,1.64-2.55,2.09,2.09,0,0,1,1.5-.62,2.52,2.52,0,0,1,1.83,1.08,4.15,4.15,0,0,1-.81.15h0a4.7,4.7,0,0,0-2.06,3.17c-.51,2.46.35,5.23,1.59,5.23s1.41-3.21,1.32-4.92h.1A6.05,6.05,0,0,0,148.48,227Z" />
  <path class="BUNTAI_GOAT_JEWELRY_BUNTAI_GOAT_JEWELRY_17_cls-10" d="M143.52,223.42a6.15,6.15,0,0,0-1.64,2.55,7,7,0,0,1-2.35-6l2.82.56a3.06,3.06,0,0,0,.36,2A2.64,2.64,0,0,0,143.52,223.42Z" />
  <path class="BUNTAI_GOAT_JEWELRY_BUNTAI_GOAT_JEWELRY_17_cls-10" d="M151.43,223.07a5.32,5.32,0,0,1-3,4,6.23,6.23,0,0,1-1.53.47h-.11a5.65,5.65,0,0,1-2.9-.31A4.65,4.65,0,0,1,146,224h0a3.06,3.06,0,0,0,.81-.16,2.37,2.37,0,0,0,1.71-1.48,1.91,1.91,0,0,0,.1-.64c0-2.61-1-2.73-1-2.73l-.12-.36a3.37,3.37,0,0,1,2.61-2.2A8.93,8.93,0,0,1,151.43,223.07Z" />
  <path class="BUNTAI_GOAT_JEWELRY_BUNTAI_GOAT_JEWELRY_17_cls-9" d="M141.88,226a7,7,0,0,1-2.35-6l2.82.56a3.06,3.06,0,0,0,.36,2,2.64,2.64,0,0,0,.81.91" />
  <path class="BUNTAI_GOAT_JEWELRY_BUNTAI_GOAT_JEWELRY_17_cls-9" d="M143.94,227.21a5.65,5.65,0,0,0,2.9.31H147a6.23,6.23,0,0,0,1.53-.47,5.32,5.32,0,0,0,3-4,8.93,8.93,0,0,0-1.31-6.61" />
  <path class="BUNTAI_GOAT_JEWELRY_BUNTAI_GOAT_JEWELRY_17_cls-9" d="M147.51,218.66l.12.36s1,.12,1,2.73a1.91,1.91,0,0,1-.1.64,2.37,2.37,0,0,1-1.71,1.48,3.06,3.06,0,0,1-.81.16" />
  <path class="BUNTAI_GOAT_JEWELRY_BUNTAI_GOAT_JEWELRY_17_cls-9" d="M148.48,227c.67,2.24.53,6.53-1.43,7.6a2.1,2.1,0,0,1-1,.25,5,5,0,0,1-2.26-.47c-1.68-.82-2.53-2.73-2.42-5.63a9.32,9.32,0,0,1,.52-2.82,6.05,6.05,0,0,1,1.64-2.55,2.09,2.09,0,0,1,1.5-.62,2.52,2.52,0,0,1,1.83,1.08" />
  <path class="BUNTAI_GOAT_JEWELRY_BUNTAI_GOAT_JEWELRY_17_cls-9" d="M146.84,227.52c.09,1.71.07,4.92-1.32,4.92s-2.1-2.77-1.59-5.23A4.7,4.7,0,0,1,146,224h0" />
  <path class="BUNTAI_GOAT_JEWELRY_BUNTAI_GOAT_JEWELRY_17_cls-9" d="M143.78,234.42s-.3,2.51,1.54,2.51,1.74-2.14,1.73-2.29h0" />
  <path class="BUNTAI_GOAT_JEWELRY_BUNTAI_GOAT_JEWELRY_17_cls-9" d="M147.7,221.35a3.47,3.47,0,0,1-.38-1.57,3.21,3.21,0,0,1,.19-1.12,3.37,3.37,0,0,1,2.61-2.2,3.45,3.45,0,0,1,.57-.05,2.29,2.29,0,0,1,2.28,1.7" />
</svg>