<svg id="jewelry" xmlns="http://www.w3.org/2000/svg" viewBox="0 0 432 432">
  <defs>
    <style>.BUNTAI_GOAT_JEWELRY_BUNTAI_GOAT_JEWELRY_7_cls-1{fill:#c7a858;}.BUNTAI_GOAT_JEWELRY_BUNTAI_GOAT_JEWELRY_7_cls-2,.BUNTAI_GOAT_JEWELRY_BUNTAI_GOAT_JEWELRY_7_cls-4,.BUNTAI_GOAT_JEWELRY_BUNTAI_GOAT_JEWELRY_7_cls-7{fill:none;stroke-linecap:round;stroke-linejoin:round;}.BUNTAI_GOAT_JEWELRY_BUNTAI_GOAT_JEWELRY_7_cls-2,.BUNTAI_GOAT_JEWELRY_BUNTAI_GOAT_JEWELRY_7_cls-4,.BUNTAI_GOAT_JEWELRY_BUNTAI_GOAT_JEWELRY_7_cls-5,.BUNTAI_GOAT_JEWELRY_BUNTAI_GOAT_JEWELRY_7_cls-7{stroke:#000;}.BUNTAI_GOAT_JEWELRY_BUNTAI_GOAT_JEWELRY_7_cls-2{stroke-width:0.75px;}.BUNTAI_GOAT_JEWELRY_BUNTAI_GOAT_JEWELRY_7_cls-3{fill:#39b54a;}.BUNTAI_GOAT_JEWELRY_BUNTAI_GOAT_JEWELRY_7_cls-4{stroke-width:0.98px;}.BUNTAI_GOAT_JEWELRY_BUNTAI_GOAT_JEWELRY_7_cls-5{fill:#754c24;stroke-miterlimit:10;stroke-width:1.3px;}.BUNTAI_GOAT_JEWELRY_BUNTAI_GOAT_JEWELRY_7_cls-6{fill:#22b573;}.BUNTAI_GOAT_JEWELRY_BUNTAI_GOAT_JEWELRY_7_cls-7{stroke-width:0.84px;}</style>
  </defs>
  <path class="BUNTAI_GOAT_JEWELRY_BUNTAI_GOAT_JEWELRY_7_cls-1" d="M147,234c-1.45,0-1.21-2-1.21-2h0a4,4,0,0,0,1.78.38,1.61,1.61,0,0,0,.8-.2C148.34,232.32,148.37,234,147,234Z" />
  <path class="BUNTAI_GOAT_JEWELRY_BUNTAI_GOAT_JEWELRY_7_cls-1" d="M149.47,226.19c.53,1.77.42,5.16-1.13,6a1.61,1.61,0,0,1-.8.2,4,4,0,0,1-1.78-.38c-1.34-.64-2-2.15-1.92-4.44a7.65,7.65,0,0,1,.41-2.24,4.8,4.8,0,0,1,1.3-2,1.66,1.66,0,0,1,1.19-.49,2,2,0,0,1,1.44.85,3.29,3.29,0,0,1-.64.12h0a3.68,3.68,0,0,0-1.63,2.51c-.41,1.94.27,4.13,1.25,4.13s1.11-2.54,1-3.89h.09A4.76,4.76,0,0,0,149.47,226.19Z" />
  <path class="BUNTAI_GOAT_JEWELRY_BUNTAI_GOAT_JEWELRY_7_cls-1" d="M145.55,223.33a4.89,4.89,0,0,0-1.29,2,5.48,5.48,0,0,1-1.85-4.77l2.2.56a2.46,2.46,0,0,0,.3,1.48A2,2,0,0,0,145.55,223.33Z" />
  <path class="BUNTAI_GOAT_JEWELRY_BUNTAI_GOAT_JEWELRY_7_cls-1" d="M151.8,223.05a4.19,4.19,0,0,1-2.33,3.14,4.76,4.76,0,0,1-1.21.37h-.09a4.42,4.42,0,0,1-2.29-.24,3.67,3.67,0,0,1,1.62-2.51h0a3.55,3.55,0,0,0,.65-.12,1.9,1.9,0,0,0,1.35-1.18,1.59,1.59,0,0,0,.07-.5c0-2.07-.81-2.16-.81-2.16l-.1-.29a2.67,2.67,0,0,1,2.07-1.73A7,7,0,0,1,151.8,223.05Z" />
  <path class="BUNTAI_GOAT_JEWELRY_BUNTAI_GOAT_JEWELRY_7_cls-2" d="M142.36,220.57l2.25.56a2.46,2.46,0,0,0,.3,1.48,2,2,0,0,0,.64.72" />
  <path class="BUNTAI_GOAT_JEWELRY_BUNTAI_GOAT_JEWELRY_7_cls-2" d="M142.41,220.57a5.48,5.48,0,0,0,1.85,4.77" />
  <path class="BUNTAI_GOAT_JEWELRY_BUNTAI_GOAT_JEWELRY_7_cls-2" d="M145.88,226.33a4.42,4.42,0,0,0,2.29.24h.09a4.76,4.76,0,0,0,1.21-.37,4.19,4.19,0,0,0,2.33-3.14,7,7,0,0,0-1-5.22" />
  <path class="BUNTAI_GOAT_JEWELRY_BUNTAI_GOAT_JEWELRY_7_cls-2" d="M148.7,219.56l.1.29s.79.09.81,2.16a1.59,1.59,0,0,1-.07.5,1.9,1.9,0,0,1-1.35,1.18,3.55,3.55,0,0,1-.65.12" />
  <path class="BUNTAI_GOAT_JEWELRY_BUNTAI_GOAT_JEWELRY_7_cls-2" d="M149.47,226.19c.53,1.77.42,5.16-1.13,6a1.61,1.61,0,0,1-.8.2,4,4,0,0,1-1.78-.38c-1.34-.64-2-2.15-1.92-4.44a7.65,7.65,0,0,1,.41-2.24,4.8,4.8,0,0,1,1.3-2,1.66,1.66,0,0,1,1.19-.49,2,2,0,0,1,1.44.85" />
  <path class="BUNTAI_GOAT_JEWELRY_BUNTAI_GOAT_JEWELRY_7_cls-2" d="M148.17,226.57c.07,1.35.06,3.89-1,3.89s-1.66-2.19-1.25-4.13a3.68,3.68,0,0,1,1.63-2.51h0" />
  <path class="BUNTAI_GOAT_JEWELRY_BUNTAI_GOAT_JEWELRY_7_cls-2" d="M145.76,232s-.24,2,1.21,2,1.37-1.69,1.37-1.81h0" />
  <path class="BUNTAI_GOAT_JEWELRY_BUNTAI_GOAT_JEWELRY_7_cls-2" d="M148.86,221.69a2.59,2.59,0,0,1-.31-1.24,2.64,2.64,0,0,1,2.22-2.62,2.15,2.15,0,0,1,.45,0,1.81,1.81,0,0,1,1.8,1.34" />
  <path class="BUNTAI_GOAT_JEWELRY_BUNTAI_GOAT_JEWELRY_7_cls-3" d="M152.84,260.26c0,5.13-2.59,9.29-5.8,9.29s-5.79-4.16-5.79-9.29,2.59-9.3,5.79-9.3S152.84,255.12,152.84,260.26Z" />
  <path class="BUNTAI_GOAT_JEWELRY_BUNTAI_GOAT_JEWELRY_7_cls-1" d="M147.05,248.4l-.38,0a3.78,3.78,0,0,0-.47.06,3.82,3.82,0,0,0-.56.14l-.21.07a2,2,0,0,0-.31.12,3,3,0,0,0-.44.22,4.85,4.85,0,0,0-.49.29,7,7,0,0,0-.87.7l-.21.21a3.88,3.88,0,0,0-.39.42l-.37.45c-.09.13-.18.25-.26.38s-.17.24-.25.37l0,.05c-.16.26-.31.53-.46.81a12.58,12.58,0,0,0-.78,1.83.14.14,0,0,1,0,.06,17.39,17.39,0,0,0-.9,5.65,17,17,0,0,0,.16,2.4c.05.36.1.72.17,1.07a.5.5,0,0,1,0,.12c.07.35.15.7.24,1s.21.74.33,1.1a12.58,12.58,0,0,0,.78,1.83,10.58,10.58,0,0,0,1,1.6c.16.21.33.41.5.6a.41.41,0,0,0,.09.1,3.83,3.83,0,0,0,.28.29,5.74,5.74,0,0,0,.71.61c.19.14.38.27.58.39a5,5,0,0,0,.61.31,2,2,0,0,0,.31.12.94.94,0,0,0,.22.07,1.38,1.38,0,0,0,.27.08l.28.06a3.78,3.78,0,0,0,.47.06l.38,0c4.08,0,7.39-5.31,7.39-11.85S151.13,248.4,147.05,248.4Zm5.73,13.08c0,.25,0,.49-.07.73s-.08.55-.13.81-.09.47-.15.69l0,.11a2.29,2.29,0,0,1-.08.28,9.84,9.84,0,0,1-.44,1.26c-.09.22-.19.44-.29.65a2.1,2.1,0,0,1-.15.3,3.62,3.62,0,0,1-.24.43c-.15.24-.3.47-.46.69a7.32,7.32,0,0,1-.68.77l-.25.23a4.7,4.7,0,0,1-.44.34L149,269a2.58,2.58,0,0,1-.37.19,2.5,2.5,0,0,1-.38.15l-.4.11-.4.07-.41,0a4.32,4.32,0,0,1-.88-.1l-.42-.13-.42-.18a2.49,2.49,0,0,1-.28-.15c-.17-.11-.34-.22-.51-.35a2.65,2.65,0,0,1-.26-.21l-.24-.22a7.38,7.38,0,0,1-1.38-1.89,3,3,0,0,1-.18-.36,7,7,0,0,1-.47-1.12l-.12-.33h0l-.18-.61a5.66,5.66,0,0,1-.13-.56c0-.11-.05-.22-.07-.33-.06-.28-.1-.57-.14-.86s-.07-.59-.09-.9v-.05c0-.3,0-.61,0-.92s0-.68,0-1,.05-.66.1-1,.07-.49.12-.74.05-.24.08-.36.09-.42.15-.63.11-.38.17-.57.09-.27.14-.4.12-.34.19-.5a7.94,7.94,0,0,1,.34-.72,7,7,0,0,1,.37-.66c.14-.21.27-.41.41-.6a6.15,6.15,0,0,1,.57-.66,3.89,3.89,0,0,1,.36-.34l.39-.31.31-.2a4.07,4.07,0,0,1,1.18-.5,1.36,1.36,0,0,1,.29-.06,3.12,3.12,0,0,1,.44,0h.3a3.12,3.12,0,0,1,.44,0,1.36,1.36,0,0,1,.29.06,4.19,4.19,0,0,1,1.18.5,1.74,1.74,0,0,1,.3.2,4,4,0,0,1,.52.42q.18.17.36.36c.15.16.3.34.45.53l.41.6c.1.16.19.33.28.5a3,3,0,0,1,.16.31,9,9,0,0,1,.49,1.19c.06.15.11.31.16.47s.11.36.16.55a5.43,5.43,0,0,1,.13.58c0,.11.05.23.07.35s.09.5.12.75.07.6.09.9,0,.65,0,1,0,.52,0,.77S152.8,261.33,152.78,261.48Z" />
  <ellipse class="BUNTAI_GOAT_JEWELRY_BUNTAI_GOAT_JEWELRY_7_cls-1" cx="147.04" cy="246.41" rx="3.09" ry="1.99" />
  <ellipse class="BUNTAI_GOAT_JEWELRY_BUNTAI_GOAT_JEWELRY_7_cls-4" cx="147.04" cy="246.41" rx="3.09" ry="1.99" />
  <path class="BUNTAI_GOAT_JEWELRY_BUNTAI_GOAT_JEWELRY_7_cls-4" d="M154.44,260.26c0,6.54-3.31,11.85-7.4,11.85s-7.39-5.31-7.39-11.85S143,248.4,147,248.4,154.44,253.7,154.44,260.26Z" />
  <path class="BUNTAI_GOAT_JEWELRY_BUNTAI_GOAT_JEWELRY_7_cls-4" d="M152.84,260.26c0,5.13-2.59,9.29-5.8,9.29s-5.79-4.16-5.79-9.29,2.59-9.3,5.79-9.3S152.84,255.12,152.84,260.26Z" />
  <line class="BUNTAI_GOAT_JEWELRY_BUNTAI_GOAT_JEWELRY_7_cls-4" x1="146.96" y1="233.93" x2="146.96" y2="244.42" />
  <path class="BUNTAI_GOAT_JEWELRY_BUNTAI_GOAT_JEWELRY_7_cls-4" d="M147.56,252.93s3.48,1.28,3.33,7.89" />
  <path class="BUNTAI_GOAT_JEWELRY_BUNTAI_GOAT_JEWELRY_7_cls-5" d="M305.68,302.16a3.59,3.59,0,0,0-5.11.85l1.9,1.43c-7.13,17.23-32.28,39.29-81.81,53.91-52.37-14.6-78.63-50-82.8-56.15l2.08-2s-1.53-2.86-5.33-.59c-1.05.94-.85,2.9-.3,3.8,0,0,.21.34.54.83h0s30.77,42.93,85.3,57.94a2.25,2.25,0,0,0,.52.07,2.09,2.09,0,0,0,.55-.08c52.46-15.36,78.63-39.37,85.37-57.67A2.32,2.32,0,0,0,305.68,302.16Z" />
  <path class="BUNTAI_GOAT_JEWELRY_BUNTAI_GOAT_JEWELRY_7_cls-6" d="M237.34,368.58c1.65,4-2.21,8.92-8.6,11S215.83,380,214.2,376l0,0c-1.61-4,2.24-8.9,8.62-10.95s12.86-.49,14.53,3.48h0Z" />
  <path class="BUNTAI_GOAT_JEWELRY_BUNTAI_GOAT_JEWELRY_7_cls-1" d="M237,366.94a5,5,0,0,1,.36,1.6c-1.67-4-8.16-5.53-14.53-3.48S212.57,372,214.18,376a5.36,5.36,0,0,1-.88-1.44c-1.18-2.88.54-6.24,4-8.69a17.78,17.78,0,0,1,4.31-2.19l.54-.18a19.29,19.29,0,0,1,2.17-.57,17.79,17.79,0,0,1,3.85-.37C232.37,362.61,235.84,364.2,237,366.94Z" />
  <path class="BUNTAI_GOAT_JEWELRY_BUNTAI_GOAT_JEWELRY_7_cls-1" d="M219.1,352.73a3,3,0,0,0-1.82,3.94,4.84,4.84,0,0,0,.3.75,52.88,52.88,0,0,0,4,6.27,17.78,17.78,0,0,0-4.31,2.19c-1.12-1.45-4.37-6-3.8-8.93A5.42,5.42,0,0,1,219.1,352.73Z" />
  <path class="BUNTAI_GOAT_JEWELRY_BUNTAI_GOAT_JEWELRY_7_cls-1" d="M225.35,356.91l-4.5,1.39a4.22,4.22,0,0,0-3.27-.89,5.48,5.48,0,0,1-.3-.74,3.07,3.07,0,0,1,.55-3.12,3.62,3.62,0,0,1,1.27-.82,5.66,5.66,0,0,1,1.5.22l.24.09.22.1h0l.18.09a6,6,0,0,1,.58.33h0l.26.17a14.21,14.21,0,0,1,3.05,2.95Z" />
  <path class="BUNTAI_GOAT_JEWELRY_BUNTAI_GOAT_JEWELRY_7_cls-1" d="M228.18,362.56a18.5,18.5,0,0,0-3.84.38c-.17-.35-.43-.88-.76-1.46l3.81-1.18A11.66,11.66,0,0,1,228.18,362.56Z" />
  <path class="BUNTAI_GOAT_JEWELRY_BUNTAI_GOAT_JEWELRY_7_cls-7" d="M237.33,368.54v0c1.65,4-2.21,8.92-8.6,11S215.83,380,214.2,376l0,0c-1.61-4,2.24-8.9,8.62-10.95s12.86-.49,14.53,3.48" />
  <path class="BUNTAI_GOAT_JEWELRY_BUNTAI_GOAT_JEWELRY_7_cls-7" d="M237.33,368.54h0a5,5,0,0,0-.36-1.6c-1.13-2.74-4.6-4.33-8.78-4.37a17.79,17.79,0,0,0-3.85.37,19.29,19.29,0,0,0-2.17.57l-.54.18a17.78,17.78,0,0,0-4.31,2.19c-3.48,2.45-5.2,5.81-4,8.69a5.36,5.36,0,0,0,.88,1.44" />
  <path class="BUNTAI_GOAT_JEWELRY_BUNTAI_GOAT_JEWELRY_7_cls-7" d="M217.58,357.41a4.22,4.22,0,0,1,3.27.89l4.5-1.39-.17-.22a14.21,14.21,0,0,0-3.05-2.95l-.26-.17h0a6,6,0,0,0-.58-.33l-.18-.09h0l-.22-.1-.24-.09a5.66,5.66,0,0,0-1.5-.22" />
  <path class="BUNTAI_GOAT_JEWELRY_BUNTAI_GOAT_JEWELRY_7_cls-7" d="M228.18,362.56a11.66,11.66,0,0,0-.79-2.26l-3.81,1.18c.33.58.59,1.11.76,1.46" />
  <path class="BUNTAI_GOAT_JEWELRY_BUNTAI_GOAT_JEWELRY_7_cls-7" d="M217.32,365.88c-1.12-1.45-4.37-6-3.8-8.93a5.42,5.42,0,0,1,5.58-4.22" />
  <path class="BUNTAI_GOAT_JEWELRY_BUNTAI_GOAT_JEWELRY_7_cls-7" d="M221.63,363.69a52.88,52.88,0,0,1-4-6.27,4.84,4.84,0,0,1-.3-.75,3,3,0,0,1,1.82-3.94h0" />
  <path class="BUNTAI_GOAT_JEWELRY_BUNTAI_GOAT_JEWELRY_7_cls-7" d="M216.3,372.18s3.22,1.29,8.49-.65,5.8-4.73,5.8-4.73" />
  <path class="BUNTAI_GOAT_JEWELRY_BUNTAI_GOAT_JEWELRY_7_cls-7" d="M227.8,365.88a8.73,8.73,0,0,1-2.46,5.44" />
  <path class="BUNTAI_GOAT_JEWELRY_BUNTAI_GOAT_JEWELRY_7_cls-7" d="M225.34,367.23s.77,2.28-2.74,5" />
  <path class="BUNTAI_GOAT_JEWELRY_BUNTAI_GOAT_JEWELRY_7_cls-7" d="M221.17,372.46a5.9,5.9,0,0,0,2.27-3.86" />
  <path class="BUNTAI_GOAT_JEWELRY_BUNTAI_GOAT_JEWELRY_7_cls-7" d="M223.74,371.88s-3.22,3.47-5,3.39,0-2,.91-1.94.3,1-.06,1.11" />
  <path class="BUNTAI_GOAT_JEWELRY_BUNTAI_GOAT_JEWELRY_7_cls-7" d="M219,377.32a20.15,20.15,0,0,1,5.73-3.74,29,29,0,0,1,8.32-1.7" />
  <path class="BUNTAI_GOAT_JEWELRY_BUNTAI_GOAT_JEWELRY_7_cls-7" d="M225.77,376.86a3.8,3.8,0,0,0-3.57-2" />
  <path class="BUNTAI_GOAT_JEWELRY_BUNTAI_GOAT_JEWELRY_7_cls-7" d="M223.74,374s3.35,1.16,4,3.39" />
  <path class="BUNTAI_GOAT_JEWELRY_BUNTAI_GOAT_JEWELRY_7_cls-7" d="M225.6,373.28s2.93,1.45,3.38,3" />
  <path class="BUNTAI_GOAT_JEWELRY_BUNTAI_GOAT_JEWELRY_7_cls-7" d="M228.55,372.49s3.19.71,3.8,2.11" />
  <path class="BUNTAI_GOAT_JEWELRY_BUNTAI_GOAT_JEWELRY_7_cls-7" d="M220.1,368.81s-.18,1.55.9,1.72l1.07.17S222.34,369.23,220.1,368.81Z" />
  <path class="BUNTAI_GOAT_JEWELRY_BUNTAI_GOAT_JEWELRY_7_cls-7" d="M224.11,366.42s-1.05.78-.55,1.39l.5.62S225.11,367.73,224.11,366.42Z" />
  <path class="BUNTAI_GOAT_JEWELRY_BUNTAI_GOAT_JEWELRY_7_cls-7" d="M228.36,371.44a3.35,3.35,0,0,1,2.85-1.48C230.44,371.3,230.15,371.22,228.36,371.44Z" />
  <path class="BUNTAI_GOAT_JEWELRY_BUNTAI_GOAT_JEWELRY_7_cls-7" d="M232.29,369.76a2.24,2.24,0,0,1,2.89-1.05C234.38,369.77,233.5,369.81,232.29,369.76Z" />
  <path class="BUNTAI_GOAT_JEWELRY_BUNTAI_GOAT_JEWELRY_7_cls-7" d="M230.91,369.16s.15-2.23,1.47-2.71A2.24,2.24,0,0,1,230.91,369.16Z" />
  <path class="BUNTAI_GOAT_JEWELRY_BUNTAI_GOAT_JEWELRY_7_cls-7" d="M231.59,371a2.6,2.6,0,0,1,3,0A2.79,2.79,0,0,1,231.59,371Z" />
  <path class="BUNTAI_GOAT_JEWELRY_BUNTAI_GOAT_JEWELRY_7_cls-7" d="M232,373.12s.25,1.1,2.42.93C233.85,373.24,233.83,372.94,232,373.12Z" />
  <path class="BUNTAI_GOAT_JEWELRY_BUNTAI_GOAT_JEWELRY_7_cls-7" d="M228.75,373.68a2.56,2.56,0,0,1,1.84.7,3.51,3.51,0,0,1,.82,1.74S228.89,375.65,228.75,373.68Z" />
  <path class="BUNTAI_GOAT_JEWELRY_BUNTAI_GOAT_JEWELRY_7_cls-7" d="M226.34,377.42a1.08,1.08,0,0,0,.32,1.48A1.13,1.13,0,0,0,226.34,377.42Z" />
</svg>