<svg id="jewelry" xmlns="http://www.w3.org/2000/svg" viewBox="0 0 432 432">
  <defs>
    <style>.BUNTAI_GOAT_JEWELRY_BUNTAI_GOAT_JEWELRY_28_cls-1{fill:#c7a858;}.BUNTAI_GOAT_JEWELRY_BUNTAI_GOAT_JEWELRY_28_cls-2,.BUNTAI_GOAT_JEWELRY_BUNTAI_GOAT_JEWELRY_28_cls-6{fill:#fff;}.BUNTAI_GOAT_JEWELRY_BUNTAI_GOAT_JEWELRY_28_cls-3{fill:#c74c58;}.BUNTAI_GOAT_JEWELRY_BUNTAI_GOAT_JEWELRY_28_cls-4,.BUNTAI_GOAT_JEWELRY_BUNTAI_GOAT_JEWELRY_28_cls-5,.BUNTAI_GOAT_JEWELRY_BUNTAI_GOAT_JEWELRY_28_cls-9{fill:none;}.BUNTAI_GOAT_JEWELRY_BUNTAI_GOAT_JEWELRY_28_cls-4,.BUNTAI_GOAT_JEWELRY_BUNTAI_GOAT_JEWELRY_28_cls-5,.BUNTAI_GOAT_JEWELRY_BUNTAI_GOAT_JEWELRY_28_cls-6,.BUNTAI_GOAT_JEWELRY_BUNTAI_GOAT_JEWELRY_28_cls-7,.BUNTAI_GOAT_JEWELRY_BUNTAI_GOAT_JEWELRY_28_cls-9{stroke:#000;}.BUNTAI_GOAT_JEWELRY_BUNTAI_GOAT_JEWELRY_28_cls-4,.BUNTAI_GOAT_JEWELRY_BUNTAI_GOAT_JEWELRY_28_cls-9{stroke-linecap:round;stroke-linejoin:round;}.BUNTAI_GOAT_JEWELRY_BUNTAI_GOAT_JEWELRY_28_cls-4{stroke-width:0.85px;}.BUNTAI_GOAT_JEWELRY_BUNTAI_GOAT_JEWELRY_28_cls-5,.BUNTAI_GOAT_JEWELRY_BUNTAI_GOAT_JEWELRY_28_cls-6,.BUNTAI_GOAT_JEWELRY_BUNTAI_GOAT_JEWELRY_28_cls-7{stroke-miterlimit:10;}.BUNTAI_GOAT_JEWELRY_BUNTAI_GOAT_JEWELRY_28_cls-5{stroke-width:0.69px;}.BUNTAI_GOAT_JEWELRY_BUNTAI_GOAT_JEWELRY_28_cls-6{stroke-width:0.84px;}.BUNTAI_GOAT_JEWELRY_BUNTAI_GOAT_JEWELRY_28_cls-7{fill:#754c24;stroke-width:0.82px;}.BUNTAI_GOAT_JEWELRY_BUNTAI_GOAT_JEWELRY_28_cls-8{fill:#333;}.BUNTAI_GOAT_JEWELRY_BUNTAI_GOAT_JEWELRY_28_cls-9{stroke-width:0.62px;}</style>
  </defs>
  <path class="BUNTAI_GOAT_JEWELRY_BUNTAI_GOAT_JEWELRY_28_cls-1" d="M153.81,260.88a1.37,1.37,0,0,1,0,2.74h-7.46v-.42a1.37,1.37,0,0,0,1.37-1.38v-.94Z" />
  <path class="BUNTAI_GOAT_JEWELRY_BUNTAI_GOAT_JEWELRY_28_cls-1" d="M151.67,215.56c2.68,2.57,3.84,10.89-1.5,13.34a7.65,7.65,0,0,1-1.86.56l-.12,0a6.79,6.79,0,0,1-3.51-.38,5.6,5.6,0,0,1,2.49-3.83h.05a4.48,4.48,0,0,0,1-.19,2.72,2.72,0,0,0,2.19-2.56c0-3.16-1.24-3.32-1.24-3.32S147.39,215.12,151.67,215.56Z" />
  <path class="BUNTAI_GOAT_JEWELRY_BUNTAI_GOAT_JEWELRY_28_cls-1" d="M148.44,238.09a2.56,2.56,0,0,1-1.22.3,6.1,6.1,0,0,1-2.73-.57c-2-1-3.07-3.3-2.93-6.8a11.33,11.33,0,0,1,.63-3.42,7.33,7.33,0,0,1,2-3.08,2.58,2.58,0,0,1,1.82-.75,3.09,3.09,0,0,1,2.21,1.3,4.48,4.48,0,0,1-1,.19h-.05a5.6,5.6,0,0,0-2.49,3.83c-.63,3,.41,6.32,1.92,6.32,1.67,0,1.69-3.88,1.59-5.94l.12,0a7.65,7.65,0,0,0,1.86-.56C151,231.61,150.81,236.79,148.44,238.09Z" />
  <polygon class="BUNTAI_GOAT_JEWELRY_BUNTAI_GOAT_JEWELRY_28_cls-2" points="146.35 263.62 149.09 263.62 149.09 287.99 146.35 294.85 143.6 287.99 143.6 263.62 146.35 263.62" />
  <path class="BUNTAI_GOAT_JEWELRY_BUNTAI_GOAT_JEWELRY_28_cls-1" d="M148.44,238.09c0,.19.05,2.76-2.09,2.76s-1.86-3-1.86-3h0a6.1,6.1,0,0,0,2.73.57A2.56,2.56,0,0,0,148.44,238.09Z" />
  <path class="BUNTAI_GOAT_JEWELRY_BUNTAI_GOAT_JEWELRY_28_cls-3" d="M146.35,249.06a1.37,1.37,0,0,1,1.37,1.38v11.38a1.37,1.37,0,1,1-2.74,0V250.44A1.37,1.37,0,0,1,146.35,249.06Z" />
  <path class="BUNTAI_GOAT_JEWELRY_BUNTAI_GOAT_JEWELRY_28_cls-1" d="M146.35,263.2v.42h-7.46a1.37,1.37,0,1,1,0-2.74H145v.94A1.37,1.37,0,0,0,146.35,263.2Z" />
  <path class="BUNTAI_GOAT_JEWELRY_BUNTAI_GOAT_JEWELRY_28_cls-1" d="M144.18,224.52a7.34,7.34,0,0,0-2,3.08,8.23,8.23,0,0,1-2.64-8.16,21.83,21.83,0,0,0,3.35,1,3.76,3.76,0,0,0,.3,3A3,3,0,0,0,144.18,224.52Z" />
  <path class="BUNTAI_GOAT_JEWELRY_BUNTAI_GOAT_JEWELRY_28_cls-4" d="M142.19,227.6a8.23,8.23,0,0,1-2.64-8.16l3.35,1a3.76,3.76,0,0,0,.3,3,3,3,0,0,0,1,1.09" />
  <path class="BUNTAI_GOAT_JEWELRY_BUNTAI_GOAT_JEWELRY_28_cls-4" d="M147.22,225.26a4.48,4.48,0,0,0,1-.19,2.72,2.72,0,0,0,2.19-2.56c0-3.16-1.24-3.32-1.24-3.32s-1.76-4.07,2.52-3.63c2.68,2.57,3.84,10.89-1.5,13.34a7.65,7.65,0,0,1-1.86.56l-.12,0a6.79,6.79,0,0,1-3.51-.38" />
  <path class="BUNTAI_GOAT_JEWELRY_BUNTAI_GOAT_JEWELRY_28_cls-4" d="M150.17,228.9c.82,2.71.64,7.89-1.73,9.19a2.56,2.56,0,0,1-1.22.3,6.1,6.1,0,0,1-2.73-.57c-2-1-3.07-3.3-2.93-6.8a11.33,11.33,0,0,1,.63-3.42,7.33,7.33,0,0,1,2-3.08,2.58,2.58,0,0,1,1.82-.75,3.09,3.09,0,0,1,2.21,1.3" />
  <path class="BUNTAI_GOAT_JEWELRY_BUNTAI_GOAT_JEWELRY_28_cls-4" d="M148.19,229.48c.1,2.06.08,5.94-1.59,5.94-1.51,0-2.55-3.34-1.92-6.32a5.6,5.6,0,0,1,2.49-3.83h.05" />
  <path class="BUNTAI_GOAT_JEWELRY_BUNTAI_GOAT_JEWELRY_28_cls-4" d="M144.49,237.82s-.36,3,1.86,3,2.1-2.57,2.09-2.76h0" />
  <polyline class="BUNTAI_GOAT_JEWELRY_BUNTAI_GOAT_JEWELRY_28_cls-4" points="146.35 240.85 146.35 249.06 146.35 249.32" />
  <path class="BUNTAI_GOAT_JEWELRY_BUNTAI_GOAT_JEWELRY_28_cls-5" d="M146.35,263.2a1.37,1.37,0,0,1-1.37-1.38V250.44a1.37,1.37,0,1,1,2.74,0v11.38A1.37,1.37,0,0,1,146.35,263.2Z" />
  <polyline class="BUNTAI_GOAT_JEWELRY_BUNTAI_GOAT_JEWELRY_28_cls-5" points="149.09 263.62 149.09 287.99 146.35 294.85 143.6 287.99 143.6 263.62" />
  <path class="BUNTAI_GOAT_JEWELRY_BUNTAI_GOAT_JEWELRY_28_cls-5" d="M145,260.88h-6.09a1.37,1.37,0,1,0,0,2.74h14.92a1.37,1.37,0,0,0,0-2.74h-6.09" />
  <polyline class="BUNTAI_GOAT_JEWELRY_BUNTAI_GOAT_JEWELRY_28_cls-5" points="146.35 263.19 146.35 263.62 146.35 287.44" />
  <path class="BUNTAI_GOAT_JEWELRY_BUNTAI_GOAT_JEWELRY_28_cls-4" d="M149.13,220.93s-3.13-7.57,5.36-4.78" />
  <path class="BUNTAI_GOAT_JEWELRY_BUNTAI_GOAT_JEWELRY_28_cls-6" d="M188.53,395.08l1.46.5c.8.28,1.89.65,3.16,1.06l1.1.37,1.46.47.32.1,1.06.33,2.42.75,1.76.52,2.18.62.7.18.75.2,1.57.39.84.2,1,.21c.54-1.78,1.08-3.32,1.08-3.32l-1-.26h0l-.68-.19-.31-.08-1.83-.5-1.35-.37-1.86-.52L199.6,395l-1.1-.32-1.79-.53-.48-.15-.69-.22-1-.33-1.29-.42-.8-.26-1.15-.39-.09,0-1.76-.6a6.86,6.86,0,0,0-1.1,1.95A2.45,2.45,0,0,0,188.53,395.08Z" />
  <polyline class="BUNTAI_GOAT_JEWELRY_BUNTAI_GOAT_JEWELRY_28_cls-6" points="209.36 397.66 210.26 395.48 210.82 395.59 210.38 398.17 209.83 398.06 209.05 400.76 209.56 400.87 208.35 403.14 207.92 402.96 208.28 400.98" />
  <line class="BUNTAI_GOAT_JEWELRY_BUNTAI_GOAT_JEWELRY_28_cls-6" x1="211.32" y1="398.36" x2="210.38" y2="398.17" />
  <line class="BUNTAI_GOAT_JEWELRY_BUNTAI_GOAT_JEWELRY_28_cls-6" x1="210.58" y1="401.08" x2="209.56" y2="400.87" />
  <path class="BUNTAI_GOAT_JEWELRY_BUNTAI_GOAT_JEWELRY_28_cls-6" d="M208.39,397.4s-.73,2.09-1.08,3.37" />
  <path class="BUNTAI_GOAT_JEWELRY_BUNTAI_GOAT_JEWELRY_28_cls-6" d="M190,395.58a10.93,10.93,0,0,1,1.27-3.23" />
  <path class="BUNTAI_GOAT_JEWELRY_BUNTAI_GOAT_JEWELRY_28_cls-6" d="M190.6,395.79s.93-1.4,1.81-3.05" />
  <path class="BUNTAI_GOAT_JEWELRY_BUNTAI_GOAT_JEWELRY_28_cls-6" d="M193.21,393a6.07,6.07,0,0,1-1.09,3.3" />
  <path class="BUNTAI_GOAT_JEWELRY_BUNTAI_GOAT_JEWELRY_28_cls-6" d="M195.54,393.75a20.7,20.7,0,0,1-1.29,3.26" />
  <path class="BUNTAI_GOAT_JEWELRY_BUNTAI_GOAT_JEWELRY_28_cls-6" d="M194.5,393.42a5.46,5.46,0,0,1-1.35,3.22" />
  <path class="BUNTAI_GOAT_JEWELRY_BUNTAI_GOAT_JEWELRY_28_cls-6" d="M196.23,394a15.81,15.81,0,0,1-.14,3.18l-.06.43" />
  <path class="BUNTAI_GOAT_JEWELRY_BUNTAI_GOAT_JEWELRY_28_cls-6" d="M195.71,397.48l.38-.33a16.6,16.6,0,0,0,2.41-2.5" />
  <path class="BUNTAI_GOAT_JEWELRY_BUNTAI_GOAT_JEWELRY_28_cls-6" d="M199.6,395c-.06.08-.13.17-.2.28a18.91,18.91,0,0,1-2.31,2.66" />
  <path class="BUNTAI_GOAT_JEWELRY_BUNTAI_GOAT_JEWELRY_28_cls-6" d="M199.4,395.25a4.92,4.92,0,0,1,.23,2.22c0,.41-.07.81-.12,1.19" />
  <path class="BUNTAI_GOAT_JEWELRY_BUNTAI_GOAT_JEWELRY_28_cls-6" d="M199.63,397.47a7.36,7.36,0,0,0,1.72-.93l.47-.35a6.43,6.43,0,0,0,.54-.45" />
  <path class="BUNTAI_GOAT_JEWELRY_BUNTAI_GOAT_JEWELRY_28_cls-6" d="M201.35,396.54a7.22,7.22,0,0,1-.08,2.64" />
  <path class="BUNTAI_GOAT_JEWELRY_BUNTAI_GOAT_JEWELRY_28_cls-6" d="M204.22,396.26a7.45,7.45,0,0,1-.44,2.76,7.26,7.26,0,0,1-.33.78" />
  <path class="BUNTAI_GOAT_JEWELRY_BUNTAI_GOAT_JEWELRY_28_cls-6" d="M201.82,396.19a12.21,12.21,0,0,1,2,2.83" />
  <path class="BUNTAI_GOAT_JEWELRY_BUNTAI_GOAT_JEWELRY_28_cls-6" d="M207.71,397.21a11,11,0,0,1-1.24,3.36" />
  <path class="BUNTAI_GOAT_JEWELRY_BUNTAI_GOAT_JEWELRY_28_cls-6" d="M207.4,397.13a11.89,11.89,0,0,1-2.5,3.05" />
  <line class="BUNTAI_GOAT_JEWELRY_BUNTAI_GOAT_JEWELRY_28_cls-6" x1="204.15" y1="399.98" x2="205.57" y2="396.63" />
  <path class="BUNTAI_GOAT_JEWELRY_BUNTAI_GOAT_JEWELRY_28_cls-6" d="M260.24,402a42.65,42.65,0,0,1-14.61,3.23c-15.27,1-32.51-2.81-35.25-3.45l1.13-4.1c2.43.56,25.53,6.82,49.77,1.73C262.59,399.14,261.43,401.46,260.24,402Z" />
  <line class="BUNTAI_GOAT_JEWELRY_BUNTAI_GOAT_JEWELRY_28_cls-6" x1="211.51" y1="397.68" x2="210.38" y2="401.78" />
  <path class="BUNTAI_GOAT_JEWELRY_BUNTAI_GOAT_JEWELRY_28_cls-7" d="M222.52,394.48a1.84,1.84,0,0,1-.33,0c-40.06-8.42-59.95-32.7-69.59-51.59-10.4-20.4-12.81-44.16-12.82-44.34a3.28,3.28,0,0,1,1.3-2.37c1.28-.65,1.91-.64,3.38.84-.72.79-1.22,1.38-1.83,2.17,0,.18,2.36,22.8,12.57,42.79,9.35,18.29,28.6,41.79,67.25,50.05,40.78-12.57,59.44-36.26,67.92-54,9.22-19.23,8.8-34.41,8.72-34.56-.49-.73-.95-1.55-1.47-2.17a3,3,0,0,1,2.84-.78c1.3.22,1.41,2.2,1.43,2.87S302.4,319.26,293,339c-8.73,18.2-27.95,42.59-70,55.43A1.49,1.49,0,0,1,222.52,394.48Z" />
  <path class="BUNTAI_GOAT_JEWELRY_BUNTAI_GOAT_JEWELRY_28_cls-8" d="M219.28,391.17l1.89.45s2-1,2.78.39.44,2.32-.62,2.74-2.61.06-2.9-.69a4.56,4.56,0,0,0-1.83-.35,4,4,0,0,0,3.3,2.76c2.53.22,4.08-1.14,4.33-2.94a3.07,3.07,0,0,0-2-3.27A4.25,4.25,0,0,0,219.28,391.17Z" />
  <path class="BUNTAI_GOAT_JEWELRY_BUNTAI_GOAT_JEWELRY_28_cls-9" d="M218.51,393.62a3.64,3.64,0,0,0,3.45,2.93l.39,0a4.23,4.23,0,0,0,2.58-.86,3.16,3.16,0,0,0,1.28-2.32.55.55,0,0,0,0-.18,3.08,3.08,0,0,0-.88-2.13,4.12,4.12,0,0,0-3-1.22,4,4,0,0,0-3.16,1.41l1.92.45a2.38,2.38,0,0,1,2.4-.05,1.78,1.78,0,0,1,1,1.54,1.69,1.69,0,0,1-.23.82,2.29,2.29,0,0,1-3.76.05h0Z" />
</svg>