<svg xmlns="http://www.w3.org/2000/svg" viewBox="0 0 432 432">
  <defs>
    <style>.BUNTAI_GOAT_JEWELRY_BUNTAI_GOAT_JEWELRY_33_cls-1{isolation:isolate;}.BUNTAI_GOAT_JEWELRY_BUNTAI_GOAT_JEWELRY_33_cls-2{fill:#c7a858;}.BUNTAI_GOAT_JEWELRY_BUNTAI_GOAT_JEWELRY_33_cls-11,.BUNTAI_GOAT_JEWELRY_BUNTAI_GOAT_JEWELRY_33_cls-3,.BUNTAI_GOAT_JEWELRY_BUNTAI_GOAT_JEWELRY_33_cls-4,.BUNTAI_GOAT_JEWELRY_BUNTAI_GOAT_JEWELRY_33_cls-7{fill:none;stroke-linecap:round;stroke-linejoin:round;}.BUNTAI_GOAT_JEWELRY_BUNTAI_GOAT_JEWELRY_33_cls-11,.BUNTAI_GOAT_JEWELRY_BUNTAI_GOAT_JEWELRY_33_cls-3,.BUNTAI_GOAT_JEWELRY_BUNTAI_GOAT_JEWELRY_33_cls-4,.BUNTAI_GOAT_JEWELRY_BUNTAI_GOAT_JEWELRY_33_cls-7,.BUNTAI_GOAT_JEWELRY_BUNTAI_GOAT_JEWELRY_33_cls-9{stroke:#000;}.BUNTAI_GOAT_JEWELRY_BUNTAI_GOAT_JEWELRY_33_cls-3{stroke-width:0.7px;}.BUNTAI_GOAT_JEWELRY_BUNTAI_GOAT_JEWELRY_33_cls-4{stroke-width:0.66px;}.BUNTAI_GOAT_JEWELRY_BUNTAI_GOAT_JEWELRY_33_cls-5{fill:#cbde8d;}.BUNTAI_GOAT_JEWELRY_BUNTAI_GOAT_JEWELRY_33_cls-6{fill:#91b90e;}.BUNTAI_GOAT_JEWELRY_BUNTAI_GOAT_JEWELRY_33_cls-7{stroke-width:0.63px;}.BUNTAI_GOAT_JEWELRY_BUNTAI_GOAT_JEWELRY_33_cls-8{opacity:0.43;mix-blend-mode:multiply;}.BUNTAI_GOAT_JEWELRY_BUNTAI_GOAT_JEWELRY_33_cls-9{fill:#e2d93c;stroke-miterlimit:10;stroke-width:2px;}.BUNTAI_GOAT_JEWELRY_BUNTAI_GOAT_JEWELRY_33_cls-10{fill:#e2cb6e;}.BUNTAI_GOAT_JEWELRY_BUNTAI_GOAT_JEWELRY_33_cls-11{stroke-width:1.59px;}</style>
  </defs>
  <g class="BUNTAI_GOAT_JEWELRY_BUNTAI_GOAT_JEWELRY_33_cls-1">
    <g id="jewelry">
      <path class="BUNTAI_GOAT_JEWELRY_BUNTAI_GOAT_JEWELRY_33_cls-2" d="M143.83,232.74c-1.36,0-1.14-1.86-1.14-1.86h0a3.77,3.77,0,0,0,1.67.35,1.55,1.55,0,0,0,.75-.19C145.11,231.15,145.14,232.74,143.83,232.74Z" />
      <path class="BUNTAI_GOAT_JEWELRY_BUNTAI_GOAT_JEWELRY_33_cls-2" d="M146.17,225.42c.5,1.66.39,4.83-1.06,5.62a1.55,1.55,0,0,1-.75.19,3.77,3.77,0,0,1-1.67-.35c-1.25-.61-1.88-2-1.79-4.16a6.84,6.84,0,0,1,.38-2.1,4.48,4.48,0,0,1,1.22-1.88,1.52,1.52,0,0,1,1.11-.46,1.91,1.91,0,0,1,1.35.79,2.9,2.9,0,0,1-.6.12h0a3.41,3.41,0,0,0-1.53,2.34c-.38,1.83.26,3.87,1.18,3.87s1-2.38,1-3.64H145A4.75,4.75,0,0,0,146.17,225.42Z" />
      <path class="BUNTAI_GOAT_JEWELRY_BUNTAI_GOAT_JEWELRY_33_cls-2" d="M142.49,222.74a4.56,4.56,0,0,0-1.21,1.88,5.08,5.08,0,0,1-1.69-4.7,20,20,0,0,0,2,.56,2.31,2.31,0,0,0,.25,1.58A2.08,2.08,0,0,0,142.49,222.74Z" />
      <path class="BUNTAI_GOAT_JEWELRY_BUNTAI_GOAT_JEWELRY_33_cls-2" d="M148.35,222.48a3.94,3.94,0,0,1-2.19,2.94,4.54,4.54,0,0,1-1.13.34H145a4.21,4.21,0,0,1-2.15-.22,3.45,3.45,0,0,1,1.52-2.35h0a3,3,0,0,0,.6-.12,1.78,1.78,0,0,0,1.27-1.1,1.41,1.41,0,0,0,.07-.47c0-1.93-.76-2-.76-2l-.09-.27a2.47,2.47,0,0,1,1.93-1.62A6.6,6.6,0,0,1,148.35,222.48Z" />
      <path class="BUNTAI_GOAT_JEWELRY_BUNTAI_GOAT_JEWELRY_33_cls-3" d="M141.28,224.62a5.08,5.08,0,0,1-1.69-4.7l2,.56a2.31,2.31,0,0,0,.25,1.58,2.08,2.08,0,0,0,.6.68" />
      <path class="BUNTAI_GOAT_JEWELRY_BUNTAI_GOAT_JEWELRY_33_cls-3" d="M142.8,225.55a4.21,4.21,0,0,0,2.15.22H145a4.54,4.54,0,0,0,1.13-.34,3.94,3.94,0,0,0,2.19-2.94,6.6,6.6,0,0,0-1-4.89" />
      <path class="BUNTAI_GOAT_JEWELRY_BUNTAI_GOAT_JEWELRY_33_cls-3" d="M145.45,219.21l.09.27s.74.09.76,2a1.41,1.41,0,0,1-.07.47,1.78,1.78,0,0,1-1.27,1.1,3,3,0,0,1-.6.12" />
      <path class="BUNTAI_GOAT_JEWELRY_BUNTAI_GOAT_JEWELRY_33_cls-3" d="M146.17,225.42c.5,1.66.39,4.83-1.06,5.62a1.55,1.55,0,0,1-.75.19,3.77,3.77,0,0,1-1.67-.35c-1.25-.61-1.88-2-1.79-4.16a6.84,6.84,0,0,1,.38-2.1,4.48,4.48,0,0,1,1.22-1.88,1.52,1.52,0,0,1,1.11-.46,1.91,1.91,0,0,1,1.35.79" />
      <path class="BUNTAI_GOAT_JEWELRY_BUNTAI_GOAT_JEWELRY_33_cls-3" d="M145,225.77c.06,1.26.05,3.64-1,3.64s-1.56-2-1.18-3.87a3.41,3.41,0,0,1,1.53-2.34h0" />
      <path class="BUNTAI_GOAT_JEWELRY_BUNTAI_GOAT_JEWELRY_33_cls-3" d="M142.69,230.88s-.22,1.86,1.14,1.86,1.28-1.59,1.28-1.7h0" />
      <path class="BUNTAI_GOAT_JEWELRY_BUNTAI_GOAT_JEWELRY_33_cls-3" d="M145.59,221.2a2.49,2.49,0,0,1-.28-1.16,2.3,2.3,0,0,1,.14-.83,2.47,2.47,0,0,1,1.93-1.62,1.93,1.93,0,0,1,.42,0,1.7,1.7,0,0,1,1.69,1.25" />
      <line class="BUNTAI_GOAT_JEWELRY_BUNTAI_GOAT_JEWELRY_33_cls-4" x1="143.89" y1="236.73" x2="143.89" y2="232.9" />
      <path class="BUNTAI_GOAT_JEWELRY_BUNTAI_GOAT_JEWELRY_33_cls-5" d="M143.82,269.37c.56,3.44.83,4.46.12,7.48,0,0,1.13-1.25,2.6-3.22A31.59,31.59,0,0,0,143.82,269.37Z" />
      <path class="BUNTAI_GOAT_JEWELRY_BUNTAI_GOAT_JEWELRY_33_cls-5" d="M143.67,268.34a6.69,6.69,0,0,0-3.63,3.45,53.67,53.67,0,0,0,3.9,5.06c.71-3,.44-4-.12-7.48C143.77,269,143.72,268.69,143.67,268.34Z" />
      <path class="BUNTAI_GOAT_JEWELRY_BUNTAI_GOAT_JEWELRY_33_cls-5" d="M143.43,265.49c0,1,.14,2,.24,2.85.05.35.1.7.15,1a31.59,31.59,0,0,1,2.72,4.26c.6-.82,1.28-1.76,2-2.78C147.23,267.91,143.43,265.49,143.43,265.49Z" />
      <path class="BUNTAI_GOAT_JEWELRY_BUNTAI_GOAT_JEWELRY_33_cls-5" d="M143.35,262.5c0,1,0,2,.08,3,0,0,3.8,2.42,5.06,5.36.61-.94,1.22-1.94,1.8-3-.26-2-1.45-2.76-3.58-4.16a11.78,11.78,0,0,1-3.31-3.41C143.37,261,143.35,261.74,143.35,262.5Z" />
      <path class="BUNTAI_GOAT_JEWELRY_BUNTAI_GOAT_JEWELRY_33_cls-5" d="M143.35,262.5s-4.27,1.94-5.35,6.08c.66,1.14,1.36,2.23,2,3.21a6.69,6.69,0,0,1,3.63-3.45c-.1-.88-.19-1.85-.24-2.85s-.08-2-.08-3Z" />
      <path class="BUNTAI_GOAT_JEWELRY_BUNTAI_GOAT_JEWELRY_33_cls-5" d="M139.51,258.43c-2.84.85-3.8,1.28-4.52,3.1a22.09,22.09,0,0,0,1.41,4S136.93,261,139.51,258.43Z" />
      <path class="BUNTAI_GOAT_JEWELRY_BUNTAI_GOAT_JEWELRY_33_cls-5" d="M139.51,258.43c-2.58,2.61-3.11,7.06-3.11,7.06a31.1,31.1,0,0,0,1.6,3.09c1.08-4.14,5.35-6.08,5.35-6.08h0c0-.76,0-1.5.05-2.2a25.19,25.19,0,0,1,.26-2.72c.1-.58.16-1.19.21-1.79A6.56,6.56,0,0,1,140,258.3Z" />
      <path class="BUNTAI_GOAT_JEWELRY_BUNTAI_GOAT_JEWELRY_33_cls-5" d="M153,261a6.4,6.4,0,0,0-4.62-3.06,15.68,15.68,0,0,1,3.52,6.59A20.09,20.09,0,0,0,153,261Z" />
      <path class="BUNTAI_GOAT_JEWELRY_BUNTAI_GOAT_JEWELRY_33_cls-5" d="M143.87,255.79c-.05.6-.11,1.21-.21,1.79a25.19,25.19,0,0,0-.26,2.72,11.78,11.78,0,0,0,3.31,3.41c2.13,1.4,3.32,2.16,3.58,4.16a33,33,0,0,0,1.64-3.39h0a15.68,15.68,0,0,0-3.52-6.59h0l-1.2-.2a4.46,4.46,0,0,1-3.27-2A.92.92,0,0,1,143.87,255.79Z" />
      <path class="BUNTAI_GOAT_JEWELRY_BUNTAI_GOAT_JEWELRY_33_cls-5" d="M144,242.81c.48.49,3.79,4,1.82,6.8,0,0,3.48,1,7,5.61-1.81-6.31-8.1-11.81-8.81-12.41Z" />
      <path class="BUNTAI_GOAT_JEWELRY_BUNTAI_GOAT_JEWELRY_33_cls-5" d="M143.87,255.79a.92.92,0,0,0,.07-.13,4.46,4.46,0,0,0,3.27,2l1.2.2h0A6.4,6.4,0,0,1,153,261a11.84,11.84,0,0,0,.27-2.48,12,12,0,0,0-.48-3.25c-3.52-4.57-7-5.61-7-5.61a5.19,5.19,0,0,1-1.88,1.54A39.77,39.77,0,0,1,143.87,255.79Z" />
      <path class="BUNTAI_GOAT_JEWELRY_BUNTAI_GOAT_JEWELRY_33_cls-5" d="M134.58,258.47a12.7,12.7,0,0,0,.41,3.06c.72-1.82,1.68-2.25,4.52-3.1l.45-.13a6.56,6.56,0,0,0,3.91-2.51,39.77,39.77,0,0,0,.07-4.64,5.23,5.23,0,0,1-1.87-1.54s-3.29.32-6.51,4.17A12.79,12.79,0,0,0,134.58,258.47Z" />
      <path class="BUNTAI_GOAT_JEWELRY_BUNTAI_GOAT_JEWELRY_33_cls-5" d="M143.88,242.81c-.65.55-6.07,5.28-8.32,11,3.22-3.85,6.51-4.17,6.51-4.17-2-2.78,1.34-6.31,1.82-6.8Z" />
      <path class="BUNTAI_GOAT_JEWELRY_BUNTAI_GOAT_JEWELRY_33_cls-2" d="M143.89,242.81c-.48.49-3.8,4-1.82,6.8a5.23,5.23,0,0,0,1.87,1.54,5.19,5.19,0,0,0,1.88-1.54c2-2.78-1.34-6.31-1.82-6.8h-.11Z" />
      <path class="BUNTAI_GOAT_JEWELRY_BUNTAI_GOAT_JEWELRY_33_cls-6" d="M143.94,238.62c-.71,0-1.3.94-1.3,2.1a2.43,2.43,0,0,0,.75,1.9h0a1.25,1.25,0,0,0,.55.14,1.18,1.18,0,0,0,.55-.14h0a2.45,2.45,0,0,0,.75-1.9C145.25,239.56,144.66,238.62,143.94,238.62Z" />
      <path class="BUNTAI_GOAT_JEWELRY_BUNTAI_GOAT_JEWELRY_33_cls-2" d="M142.07,239.75a3.19,3.19,0,0,0,1.32,2.87,2.43,2.43,0,0,1-.75-1.9c0-1.16.59-2.1,1.3-2.1s1.31.94,1.31,2.1a2.45,2.45,0,0,1-.75,1.9,3.19,3.19,0,0,0,1.32-2.87c0-1.67-.84-3-1.88-3S142.07,238.08,142.07,239.75Z" />
      <path class="BUNTAI_GOAT_JEWELRY_BUNTAI_GOAT_JEWELRY_33_cls-7" d="M151.93,264.48a33,33,0,0,1-1.64,3.39c-.58,1-1.19,2-1.8,3s-1.35,2-2,2.78c-1.47,2-2.6,3.22-2.6,3.22a53.67,53.67,0,0,1-3.9-5.06c-.68-1-1.38-2.07-2-3.21a31.1,31.1,0,0,1-1.6-3.09,22.09,22.09,0,0,1-1.41-4,11.68,11.68,0,0,1,.57-7.75c2.25-5.69,7.67-10.42,8.32-11l0,0h0" />
      <path class="BUNTAI_GOAT_JEWELRY_BUNTAI_GOAT_JEWELRY_33_cls-7" d="M153,261a20.09,20.09,0,0,1-1.1,3.52" />
      <path class="BUNTAI_GOAT_JEWELRY_BUNTAI_GOAT_JEWELRY_33_cls-7" d="M144,242.78h0l0,0c.71.6,7,6.1,8.81,12.41a12,12,0,0,1,.48,3.25A11.84,11.84,0,0,1,153,261" />
      <path class="BUNTAI_GOAT_JEWELRY_BUNTAI_GOAT_JEWELRY_33_cls-7" d="M143.94,242.76l0,0h0l0,0c.48.49,3.79,4,1.82,6.8a5.19,5.19,0,0,1-1.88,1.54,5.23,5.23,0,0,1-1.87-1.54c-2-2.78,1.34-6.31,1.82-6.8l0,0h0Z" />
      <path class="BUNTAI_GOAT_JEWELRY_BUNTAI_GOAT_JEWELRY_33_cls-7" d="M143.94,251.15a39.77,39.77,0,0,1-.07,4.64c-.05.6-.11,1.21-.21,1.79a25.19,25.19,0,0,0-.26,2.72c0,.7-.05,1.44-.05,2.2,0,1,0,2,.08,3s.14,2,.24,2.85c.05.35.1.7.15,1,.56,3.44.83,4.46.12,7.48" />
      <path class="BUNTAI_GOAT_JEWELRY_BUNTAI_GOAT_JEWELRY_33_cls-7" d="M145.82,249.61s3.48,1,7,5.61h0" />
      <path class="BUNTAI_GOAT_JEWELRY_BUNTAI_GOAT_JEWELRY_33_cls-7" d="M148.41,257.88l-1.2-.2a4.46,4.46,0,0,1-3.27-2,.92.92,0,0,1-.07.13A6.56,6.56,0,0,1,140,258.3l-.45.13c-2.84.85-3.8,1.28-4.52,3.1" />
      <path class="BUNTAI_GOAT_JEWELRY_BUNTAI_GOAT_JEWELRY_33_cls-7" d="M153,261h0a6.4,6.4,0,0,0-4.62-3.06" />
      <path class="BUNTAI_GOAT_JEWELRY_BUNTAI_GOAT_JEWELRY_33_cls-7" d="M151.93,264.48h0a15.68,15.68,0,0,0-3.52-6.59h0" />
      <path class="BUNTAI_GOAT_JEWELRY_BUNTAI_GOAT_JEWELRY_33_cls-7" d="M143.4,260.3a11.78,11.78,0,0,0,3.31,3.41c2.13,1.4,3.32,2.16,3.58,4.16" />
      <path class="BUNTAI_GOAT_JEWELRY_BUNTAI_GOAT_JEWELRY_33_cls-7" d="M143.43,265.49s3.8,2.42,5.06,5.36" />
      <path class="BUNTAI_GOAT_JEWELRY_BUNTAI_GOAT_JEWELRY_33_cls-7" d="M143.82,269.37a31.59,31.59,0,0,1,2.72,4.26" />
      <path class="BUNTAI_GOAT_JEWELRY_BUNTAI_GOAT_JEWELRY_33_cls-7" d="M142.07,249.61s-3.29.32-6.51,4.17" />
      <path class="BUNTAI_GOAT_JEWELRY_BUNTAI_GOAT_JEWELRY_33_cls-7" d="M136.4,265.49s.53-4.45,3.11-7.06" />
      <path class="BUNTAI_GOAT_JEWELRY_BUNTAI_GOAT_JEWELRY_33_cls-7" d="M143.35,262.5s-4.27,1.94-5.35,6.08" />
      <path class="BUNTAI_GOAT_JEWELRY_BUNTAI_GOAT_JEWELRY_33_cls-7" d="M143.67,268.34a6.69,6.69,0,0,0-3.63,3.45" />
      <path class="BUNTAI_GOAT_JEWELRY_BUNTAI_GOAT_JEWELRY_33_cls-7" d="M144.5,242.62a3.19,3.19,0,0,0,1.32-2.87c0-1.67-.84-3-1.88-3s-1.87,1.35-1.87,3a3.19,3.19,0,0,0,1.32,2.87" />
      <path class="BUNTAI_GOAT_JEWELRY_BUNTAI_GOAT_JEWELRY_33_cls-7" d="M143.39,242.62a1.25,1.25,0,0,0,.55.14,1.18,1.18,0,0,0,.55-.14" />
      <path class="BUNTAI_GOAT_JEWELRY_BUNTAI_GOAT_JEWELRY_33_cls-7" d="M144.5,242.62a2.45,2.45,0,0,0,.75-1.9c0-1.16-.59-2.1-1.31-2.1s-1.3.94-1.3,2.1a2.43,2.43,0,0,0,.75,1.9h0a.89.89,0,0,0,.49.19H144a.83.83,0,0,0,.48-.19Z" />
      <g class="BUNTAI_GOAT_JEWELRY_BUNTAI_GOAT_JEWELRY_33_cls-8">
        <path d="M143.94,236.73a2,2,0,0,0,0,1.89,6.93,6.93,0,0,0,.07,4.19c-.57,4.79-.73,6.48.18,5.94a2.34,2.34,0,0,0,1.06-1.48s.91,2-.19,3.15c-1.12.73-.22,2.46-.26,5.15s-.15,6.35-.13,8.44.1,5.57.1,7.22a39.8,39.8,0,0,1-.77,5.37,29.89,29.89,0,0,1-7.32-10.46c-2.44-6.22-3-8.16-.88-12.94s7.63-9.89,7.63-9.89l.21-.53s-1.13-.13-1.32-2S142.31,237.16,143.94,236.73Z" />
      </g>
      <circle class="BUNTAI_GOAT_JEWELRY_BUNTAI_GOAT_JEWELRY_33_cls-9" cx="243.17" cy="222.53" r="2.6" />
      <circle class="BUNTAI_GOAT_JEWELRY_BUNTAI_GOAT_JEWELRY_33_cls-9" cx="261.27" cy="222.53" r="2.6" />
      <path class="BUNTAI_GOAT_JEWELRY_BUNTAI_GOAT_JEWELRY_33_cls-10" d="M252.5,267.74a12,12,0,0,1-9.76-19.06.58.58,0,0,1,.45-.24h0a.55.55,0,0,1,.44.23,23.55,23.55,0,0,1,2.12,3.18,1.75,1.75,0,0,0,.18.29.59.59,0,0,1,.05.56,6.91,6.91,0,0,0-.68,3,7.19,7.19,0,0,0,14.38,0,6.79,6.79,0,0,0-.39-2.31.56.56,0,0,1,.12-.57,10.78,10.78,0,0,0,2.22-3.51.56.56,0,0,1,.46-.36h.06a.57.57,0,0,1,.47.26,12,12,0,0,1-10.13,18.52Z" />
      <path d="M243.2,249a24,24,0,0,1,2.06,3.11,3.37,3.37,0,0,0,.22.35,7.51,7.51,0,0,0-.72,3.25,7.75,7.75,0,0,0,15.49,0,7.46,7.46,0,0,0-.42-2.5,11.5,11.5,0,0,0,2.33-3.69,11.47,11.47,0,1,1-19-.52m0-1.11h0a1.1,1.1,0,0,0-.89.46,12.59,12.59,0,1,0,20.81.56,1.12,1.12,0,0,0-.94-.51H262a1.11,1.11,0,0,0-.92.71,10.22,10.22,0,0,1-2.1,3.32,1.11,1.11,0,0,0-.24,1.15,6.41,6.41,0,0,1,.35,2.12,6.63,6.63,0,1,1-13.26,0,6.38,6.38,0,0,1,.62-2.77,1.12,1.12,0,0,0-.09-1.12,1.28,1.28,0,0,1-.14-.21,24.36,24.36,0,0,0-2.17-3.28,1.11,1.11,0,0,0-.89-.44Z" />
      <path class="BUNTAI_GOAT_JEWELRY_BUNTAI_GOAT_JEWELRY_33_cls-11" d="M262.16,249.52a11.5,11.5,0,0,1-2.33,3.69,7.46,7.46,0,0,1,.42,2.5,7.75,7.75,0,0,1-15.49,0,7.51,7.51,0,0,1,.72-3.25,3.37,3.37,0,0,1-.22-.35A24,24,0,0,0,243.2,249a11.48,11.48,0,1,0,19,.52Z" />
    </g>
  </g>
</svg>