<svg id="jewelry" xmlns="http://www.w3.org/2000/svg" viewBox="0 0 432 432">
  <defs>
    <style>.BUNTAI_GOAT_JEWELRY_BUNTAI_GOAT_JEWELRY_25_cls-1{fill:#ffc33e;stroke-width:1.6px;}.BUNTAI_GOAT_JEWELRY_BUNTAI_GOAT_JEWELRY_25_cls-1,.BUNTAI_GOAT_JEWELRY_BUNTAI_GOAT_JEWELRY_25_cls-5,.BUNTAI_GOAT_JEWELRY_BUNTAI_GOAT_JEWELRY_25_cls-6,.BUNTAI_GOAT_JEWELRY_BUNTAI_GOAT_JEWELRY_25_cls-8{stroke:#000;}.BUNTAI_GOAT_JEWELRY_BUNTAI_GOAT_JEWELRY_25_cls-1,.BUNTAI_GOAT_JEWELRY_BUNTAI_GOAT_JEWELRY_25_cls-5,.BUNTAI_GOAT_JEWELRY_BUNTAI_GOAT_JEWELRY_25_cls-8{stroke-linecap:round;stroke-linejoin:round;}.BUNTAI_GOAT_JEWELRY_BUNTAI_GOAT_JEWELRY_25_cls-2{fill:#c32b2a;}.BUNTAI_GOAT_JEWELRY_BUNTAI_GOAT_JEWELRY_25_cls-3{fill:#bdb079;}.BUNTAI_GOAT_JEWELRY_BUNTAI_GOAT_JEWELRY_25_cls-4{fill:#273462;}.BUNTAI_GOAT_JEWELRY_BUNTAI_GOAT_JEWELRY_25_cls-5,.BUNTAI_GOAT_JEWELRY_BUNTAI_GOAT_JEWELRY_25_cls-8{fill:none;}.BUNTAI_GOAT_JEWELRY_BUNTAI_GOAT_JEWELRY_25_cls-5{stroke-width:1.8px;}.BUNTAI_GOAT_JEWELRY_BUNTAI_GOAT_JEWELRY_25_cls-6{fill:#754c24;stroke-miterlimit:10;stroke-width:1.3px;}.BUNTAI_GOAT_JEWELRY_BUNTAI_GOAT_JEWELRY_25_cls-7{fill:#333;}.BUNTAI_GOAT_JEWELRY_BUNTAI_GOAT_JEWELRY_25_cls-8{stroke-width:0.84px;}</style>
  </defs>
  <circle class="BUNTAI_GOAT_JEWELRY_BUNTAI_GOAT_JEWELRY_25_cls-1" cx="147.73" cy="218.18" r="2.51" />
  <path class="BUNTAI_GOAT_JEWELRY_BUNTAI_GOAT_JEWELRY_25_cls-1" d="M147.73,220.7s-3.31,32.78-3.31,41.06S147.73,272,147.73,272s3.32-2,3.32-10.28S147.73,220.7,147.73,220.7Z" />
  <ellipse class="BUNTAI_GOAT_JEWELRY_BUNTAI_GOAT_JEWELRY_25_cls-2" cx="220.14" cy="378.9" rx="3.74" ry="3.79" />
  <path class="BUNTAI_GOAT_JEWELRY_BUNTAI_GOAT_JEWELRY_25_cls-3" d="M240.57,365.21l-5.41-4.09,3.38,4.57s2.76,18.79-18.4,31c-21.15-12.19-18.39-31-18.39-31l3.38-4.57-5.41,4.09s-4.26,27.38,20.42,34.55C244.83,392.59,240.57,365.21,240.57,365.21Z" />
  <path class="BUNTAI_GOAT_JEWELRY_BUNTAI_GOAT_JEWELRY_25_cls-3" d="M230.51,366.27c.58,3.44-.25,9.82-4.74,13.09a6.76,6.76,0,0,0-3.68-7.25v-4.7H218.2v4.7a6.77,6.77,0,0,0-3.69,7.25c-4.49-3.27-5.31-9.65-4.73-13.09-4.07,6.2-3.6,13,4.24,17.88l-1.74,3.09a23.17,23.17,0,0,0,2.76,1.65c1.64-2.61,2-3.23,2-3.23a4.66,4.66,0,0,0,6.29,0s.33.62,1.94,3.23a21.9,21.9,0,0,0,2.77-1.65l-1.73-3.09C234.11,379.28,234.58,372.47,230.51,366.27Zm-10.37,16.42a3.79,3.79,0,1,1,3.75-3.79A3.76,3.76,0,0,1,220.14,382.69Z" />
  <path class="BUNTAI_GOAT_JEWELRY_BUNTAI_GOAT_JEWELRY_25_cls-4" d="M238.54,365.69l-3.38-4.56-6.58,3.53H211.7l-6.57-3.53-3.38,4.56s-2.76,18.8,18.39,31C241.3,384.49,238.54,365.69,238.54,365.69Zm-12.27,18.46,1.73,3.09a21.9,21.9,0,0,1-2.77,1.65c-1.61-2.61-1.94-3.23-1.94-3.23a4.66,4.66,0,0,1-6.29,0s-.32.62-2,3.23a23.17,23.17,0,0,1-2.76-1.65l1.74-3.09c-7.84-4.87-8.31-11.68-4.24-17.88-.58,3.44.24,9.82,4.73,13.09a6.77,6.77,0,0,1,3.69-7.25v-4.7h3.89v4.7a6.76,6.76,0,0,1,3.68,7.25c4.49-3.27,5.32-9.65,4.74-13.09C234.58,372.47,234.11,379.28,226.27,384.15Z" />
  <path class="BUNTAI_GOAT_JEWELRY_BUNTAI_GOAT_JEWELRY_25_cls-5" d="M220.14,382.69a3.79,3.79,0,0,1,0-7.58" />
  <path class="BUNTAI_GOAT_JEWELRY_BUNTAI_GOAT_JEWELRY_25_cls-5" d="M220.14,364.67H211.7l-6.57-3.55-5.41,4.09s-4.26,27.38,20.42,34.55" />
  <path class="BUNTAI_GOAT_JEWELRY_BUNTAI_GOAT_JEWELRY_25_cls-5" d="M205.13,361.12l-3.38,4.57s-2.76,18.79,18.39,31" />
  <path class="BUNTAI_GOAT_JEWELRY_BUNTAI_GOAT_JEWELRY_25_cls-5" d="M220.14,367.41h-1.95v4.7a6.77,6.77,0,0,0-3.68,7.25c-4.48-3.27-5.31-9.65-4.73-13.09-4.07,6.2-3.61,13,4.24,17.89l-1.73,3.08a21.17,21.17,0,0,0,2.76,1.65c1.63-2.61,1.94-3.22,1.94-3.22a6.4,6.4,0,0,0,3.15,1.22" />
  <path class="BUNTAI_GOAT_JEWELRY_BUNTAI_GOAT_JEWELRY_25_cls-5" d="M220.14,375.11a3.79,3.79,0,0,1,0,7.58" />
  <path class="BUNTAI_GOAT_JEWELRY_BUNTAI_GOAT_JEWELRY_25_cls-5" d="M220.14,396.67v3.09c24.69-7.17,20.43-34.55,20.43-34.55l-5.41-4.09-6.58,3.55h-8.44" />
  <path class="BUNTAI_GOAT_JEWELRY_BUNTAI_GOAT_JEWELRY_25_cls-5" d="M235.16,361.12l3.38,4.57s2.76,18.79-18.4,31" />
  <path class="BUNTAI_GOAT_JEWELRY_BUNTAI_GOAT_JEWELRY_25_cls-5" d="M220.14,367.41h2v4.7a6.76,6.76,0,0,1,3.68,7.25c4.49-3.27,5.32-9.65,4.73-13.09,4.08,6.2,3.61,13-4.24,17.89l1.74,3.08a21.17,21.17,0,0,1-2.76,1.65c-1.63-2.61-2-3.22-2-3.22a6.4,6.4,0,0,1-3.15,1.22" />
  <path class="BUNTAI_GOAT_JEWELRY_BUNTAI_GOAT_JEWELRY_25_cls-6" d="M303.88,302a3.56,3.56,0,0,0-5.09.85l1.89,1.45c-7.11,17.34-32.16,39.53-81.5,54.25-52.16-14.7-78-50.16-82.1-56.33l2.1-1.14s-1.93-3.9-5.72-1.62c-1.05.94-.85,2.91-.3,3.82,0,0,.21.34.54.83h0s30.66,43.2,85,58.3a2.25,2.25,0,0,0,.52.07,2.09,2.09,0,0,0,.55-.08c52.25-15.46,78.33-39.62,85.05-58A2.37,2.37,0,0,0,303.88,302Z" />
  <path class="BUNTAI_GOAT_JEWELRY_BUNTAI_GOAT_JEWELRY_25_cls-7" d="M216.21,357.76l2.37.64S221,357,222,359s.54,3.3-.77,3.9-3.25.08-3.62-1a5.1,5.1,0,0,0-2.28-.5s1,3.6,4.11,3.92a4.61,4.61,0,0,0,5.39-4.18,4.4,4.4,0,0,0-2.54-4.66A4.83,4.83,0,0,0,216.21,357.76Z" />
  <path class="BUNTAI_GOAT_JEWELRY_BUNTAI_GOAT_JEWELRY_25_cls-8" d="M215.26,361.25a4.76,4.76,0,0,0,4.3,4.16l.48,0a4.83,4.83,0,0,0,3.22-1.22,4.68,4.68,0,0,0,1.6-3.3,2.26,2.26,0,0,0,0-.26,4.76,4.76,0,0,0-1.09-3,4.87,4.87,0,0,0-3.74-1.74,4.8,4.8,0,0,0-3.93,2l2.39.64a2.62,2.62,0,0,1,1.54-.49,2.55,2.55,0,0,1,1.45.43,2.59,2.59,0,0,1,.91,3.35,2.64,2.64,0,0,1-4.68.07h0Z" />
</svg>