<svg id="jewelry" xmlns="http://www.w3.org/2000/svg" viewBox="0 0 432 432">
  <defs>
    <style>.BUNTAI_GOAT_JEWELRY_BUNTAI_GOAT_JEWELRY_32_cls-1{fill:#7367ff;}.BUNTAI_GOAT_JEWELRY_BUNTAI_GOAT_JEWELRY_32_cls-2{fill:#ff5e63;}.BUNTAI_GOAT_JEWELRY_BUNTAI_GOAT_JEWELRY_32_cls-3{fill:#fff;}.BUNTAI_GOAT_JEWELRY_BUNTAI_GOAT_JEWELRY_32_cls-4,.BUNTAI_GOAT_JEWELRY_BUNTAI_GOAT_JEWELRY_32_cls-8{fill:none;stroke-linecap:round;stroke-linejoin:round;}.BUNTAI_GOAT_JEWELRY_BUNTAI_GOAT_JEWELRY_32_cls-4,.BUNTAI_GOAT_JEWELRY_BUNTAI_GOAT_JEWELRY_32_cls-6,.BUNTAI_GOAT_JEWELRY_BUNTAI_GOAT_JEWELRY_32_cls-8{stroke:#000;}.BUNTAI_GOAT_JEWELRY_BUNTAI_GOAT_JEWELRY_32_cls-4{stroke-width:0.95px;}.BUNTAI_GOAT_JEWELRY_BUNTAI_GOAT_JEWELRY_32_cls-5{fill:#c7a858;}.BUNTAI_GOAT_JEWELRY_BUNTAI_GOAT_JEWELRY_32_cls-6{fill:#754c24;stroke-miterlimit:10;stroke-width:1.29px;}.BUNTAI_GOAT_JEWELRY_BUNTAI_GOAT_JEWELRY_32_cls-7{fill:#22b573;}.BUNTAI_GOAT_JEWELRY_BUNTAI_GOAT_JEWELRY_32_cls-8{stroke-width:0.84px;}</style>
  </defs>
  <path class="BUNTAI_GOAT_JEWELRY_BUNTAI_GOAT_JEWELRY_32_cls-1" d="M155,270.77l1,31H143.77a20.32,20.32,0,0,1,11.24-31Z" />
  <circle class="BUNTAI_GOAT_JEWELRY_BUNTAI_GOAT_JEWELRY_32_cls-2" cx="146" cy="262.14" r="4.38" />
  <path class="BUNTAI_GOAT_JEWELRY_BUNTAI_GOAT_JEWELRY_32_cls-3" d="M155,270.77l-.71-21.9h-5.75a2.42,2.42,0,0,0-4.83,0H138l-1.72,52.86h7.53a20.32,20.32,0,0,1,11.24-31Zm-8.87-23a1.15,1.15,0,1,1-1.15,1.14A1.14,1.14,0,0,1,146.14,247.73Zm-4.52,14.42a4.38,4.38,0,1,1,4.38,4.38A4.39,4.39,0,0,1,141.62,262.15Z" />
  <polyline class="BUNTAI_GOAT_JEWELRY_BUNTAI_GOAT_JEWELRY_32_cls-4" points="146.14 236.87 146.14 246.46 146.14 247.72 146.14 248.87" />
  <path class="BUNTAI_GOAT_JEWELRY_BUNTAI_GOAT_JEWELRY_32_cls-4" d="M155,270.77l-.71-21.9h-5.75a2.41,2.41,0,0,0-4.82,0H138l-1.72,52.86h7.53" />
  <path class="BUNTAI_GOAT_JEWELRY_BUNTAI_GOAT_JEWELRY_32_cls-4" d="M145,248.87a1.15,1.15,0,1,1,2.29,0" />
  <path class="BUNTAI_GOAT_JEWELRY_BUNTAI_GOAT_JEWELRY_32_cls-4" d="M145,248.87h0a1.15,1.15,0,1,0,2.29,0h0" />
  <path class="BUNTAI_GOAT_JEWELRY_BUNTAI_GOAT_JEWELRY_32_cls-4" d="M155,270.77h0l1,31H143.77a20.32,20.32,0,0,1,11.24-31Z" />
  <circle class="BUNTAI_GOAT_JEWELRY_BUNTAI_GOAT_JEWELRY_32_cls-4" cx="146" cy="262.14" r="4.38" />
  <path class="BUNTAI_GOAT_JEWELRY_BUNTAI_GOAT_JEWELRY_32_cls-5" d="M146.05,237c-1.84,0-1.54-2.51-1.54-2.51h0a5,5,0,0,0,2.26.48,2.1,2.1,0,0,0,1-.25C147.78,234.88,147.82,237,146.05,237Z" />
  <path class="BUNTAI_GOAT_JEWELRY_BUNTAI_GOAT_JEWELRY_32_cls-5" d="M149.21,227.13c.67,2.24.53,6.52-1.43,7.6a2.1,2.1,0,0,1-1,.25,5,5,0,0,1-2.26-.48c-1.69-.81-2.54-2.72-2.42-5.62a9.33,9.33,0,0,1,.52-2.83,5.92,5.92,0,0,1,1.64-2.54,2.11,2.11,0,0,1,1.5-.63,2.55,2.55,0,0,1,1.83,1.08,3.73,3.73,0,0,1-.81.15h-.05a4.69,4.69,0,0,0-2.06,3.18c-.51,2.46.35,5.22,1.59,5.22s1.4-3.21,1.32-4.91l.1,0A6.31,6.31,0,0,0,149.21,227.13Z" />
  <path class="BUNTAI_GOAT_JEWELRY_BUNTAI_GOAT_JEWELRY_32_cls-5" d="M144.24,223.51a6.15,6.15,0,0,0-1.64,2.55,7,7,0,0,1-2.35-6l2.82.56a3.06,3.06,0,0,0,.36,2A2.64,2.64,0,0,0,144.24,223.51Z" />
  <path class="BUNTAI_GOAT_JEWELRY_BUNTAI_GOAT_JEWELRY_32_cls-5" d="M152.16,223.15a5.35,5.35,0,0,1-2.95,4,6.31,6.31,0,0,1-1.54.46l-.11,0a5.78,5.78,0,0,1-2.9-.31,4.69,4.69,0,0,1,2.06-3.18h.05a4.47,4.47,0,0,0,.81-.16,2.4,2.4,0,0,0,1.71-1.49,2.13,2.13,0,0,0,.1-.63c0-2.62-1-2.74-1-2.74a3,3,0,0,1-.12-.36,3.34,3.34,0,0,1,2.61-2.19A9,9,0,0,1,152.16,223.15Z" />
  <path class="BUNTAI_GOAT_JEWELRY_BUNTAI_GOAT_JEWELRY_32_cls-4" d="M142.6,226.06a7,7,0,0,1-2.35-6l2.82.56a3.06,3.06,0,0,0,.36,2,2.64,2.64,0,0,0,.81.91" />
  <path class="BUNTAI_GOAT_JEWELRY_BUNTAI_GOAT_JEWELRY_32_cls-4" d="M144.66,227.3a5.78,5.78,0,0,0,2.9.31l.11,0a6.31,6.31,0,0,0,1.54-.46,5.35,5.35,0,0,0,2.95-4,9,9,0,0,0-1.31-6.6" />
  <path class="BUNTAI_GOAT_JEWELRY_BUNTAI_GOAT_JEWELRY_32_cls-4" d="M148.24,218.74a3,3,0,0,0,.12.36s1,.12,1,2.74a2.08,2.08,0,0,1-.1.63,2.4,2.4,0,0,1-1.71,1.49,4.47,4.47,0,0,1-.81.16" />
  <path class="BUNTAI_GOAT_JEWELRY_BUNTAI_GOAT_JEWELRY_32_cls-4" d="M149.21,227.13c.67,2.24.53,6.52-1.43,7.6a2.1,2.1,0,0,1-1,.25,5,5,0,0,1-2.26-.48c-1.69-.81-2.54-2.72-2.42-5.62a9.33,9.33,0,0,1,.52-2.83,5.92,5.92,0,0,1,1.64-2.54,2.11,2.11,0,0,1,1.5-.63,2.55,2.55,0,0,1,1.83,1.08" />
  <path class="BUNTAI_GOAT_JEWELRY_BUNTAI_GOAT_JEWELRY_32_cls-4" d="M147.57,227.61c.08,1.7.06,4.91-1.32,4.91s-2.1-2.76-1.59-5.22a4.69,4.69,0,0,1,2.06-3.18h.05" />
  <path class="BUNTAI_GOAT_JEWELRY_BUNTAI_GOAT_JEWELRY_32_cls-4" d="M144.51,234.51s-.3,2.51,1.54,2.51,1.73-2.14,1.73-2.29h0" />
  <path class="BUNTAI_GOAT_JEWELRY_BUNTAI_GOAT_JEWELRY_32_cls-4" d="M148.43,221.43a3.32,3.32,0,0,1-.39-1.57,3.22,3.22,0,0,1,.2-1.12,3.34,3.34,0,0,1,2.61-2.19,2.63,2.63,0,0,1,.57-.05,2.29,2.29,0,0,1,2.28,1.69" />
  <path class="BUNTAI_GOAT_JEWELRY_BUNTAI_GOAT_JEWELRY_32_cls-6" d="M304.57,306.45c-3-2.11-4.5-.05-4.5-.05l1.56,2.48c-7.12,17.21-35.56,40.75-85,55.36-52.3-14.59-77.7-48.31-81.87-54.43l2-2.2s-1-2.33-4.8-.06c-1,.93-.85,2.89-.3,3.79l.54.82h0s29.48,40.92,83.94,55.91a2.25,2.25,0,0,0,.52.07,2.09,2.09,0,0,0,.55-.08c52.39-15.34,81.58-41,88.32-59.27A2.33,2.33,0,0,0,304.57,306.45Z" />
  <path class="BUNTAI_GOAT_JEWELRY_BUNTAI_GOAT_JEWELRY_32_cls-7" d="M233.27,374.45c1.64,4-2.21,8.91-8.59,11s-12.89.48-14.53-3.52v0c-1.6-4,2.24-8.88,8.61-10.93s12.84-.5,14.51,3.47h0S233.27,374.44,233.27,374.45Z" />
  <path class="BUNTAI_GOAT_JEWELRY_BUNTAI_GOAT_JEWELRY_32_cls-5" d="M232.9,372.82a5,5,0,0,1,.36,1.59c-1.67-4-8.15-5.52-14.51-3.47s-10.21,6.94-8.61,10.93a5.07,5.07,0,0,1-.88-1.44c-1.18-2.87.54-6.23,4-8.67a17.61,17.61,0,0,1,4.31-2.19l.53-.18a19.87,19.87,0,0,1,2.17-.57,17.85,17.85,0,0,1,3.85-.37C228.3,368.49,231.78,370.08,232.9,372.82Z" />
  <path class="BUNTAI_GOAT_JEWELRY_BUNTAI_GOAT_JEWELRY_32_cls-5" d="M215.05,358.62a3,3,0,0,0-1.81,3.94,5.28,5.28,0,0,0,.29.74,52.07,52.07,0,0,0,4.05,6.27,17.61,17.61,0,0,0-4.31,2.19c-1.11-1.45-4.36-6-3.79-8.92A5.41,5.41,0,0,1,215.05,358.62Z" />
  <path class="BUNTAI_GOAT_JEWELRY_BUNTAI_GOAT_JEWELRY_32_cls-5" d="M221.29,362.8l-4.49,1.39a4.17,4.17,0,0,0-3.26-.89,3.76,3.76,0,0,1-.3-.75,3.05,3.05,0,0,1,.54-3.1,3.58,3.58,0,0,1,1.27-.82,5.28,5.28,0,0,1,1.5.22,1.17,1.17,0,0,1,.24.09l.22.09h0l.18.09c.18.1.38.2.58.33h0l.26.17a14,14,0,0,1,3,2.95A1.63,1.63,0,0,1,221.29,362.8Z" />
  <path class="BUNTAI_GOAT_JEWELRY_BUNTAI_GOAT_JEWELRY_32_cls-5" d="M224.13,368.44a18.44,18.44,0,0,0-3.84.38c-.17-.35-.43-.87-.76-1.46l3.8-1.18A12.68,12.68,0,0,1,224.13,368.44Z" />
  <path class="BUNTAI_GOAT_JEWELRY_BUNTAI_GOAT_JEWELRY_32_cls-8" d="M233.26,374.41s0,0,0,0c1.64,4-2.21,8.91-8.59,11s-12.89.48-14.53-3.52v0c-1.6-4,2.24-8.88,8.61-10.93s12.84-.5,14.51,3.47" />
  <path class="BUNTAI_GOAT_JEWELRY_BUNTAI_GOAT_JEWELRY_32_cls-8" d="M233.26,374.41h0a5,5,0,0,0-.36-1.59c-1.12-2.74-4.6-4.33-8.77-4.37a17.85,17.85,0,0,0-3.85.37,19.87,19.87,0,0,0-2.17.57l-.53.18a17.61,17.61,0,0,0-4.31,2.19c-3.47,2.44-5.19,5.8-4,8.67a5.07,5.07,0,0,0,.88,1.44" />
  <path class="BUNTAI_GOAT_JEWELRY_BUNTAI_GOAT_JEWELRY_32_cls-8" d="M213.54,363.3a4.17,4.17,0,0,1,3.26.89l4.49-1.39a1.63,1.63,0,0,0-.17-.22,14,14,0,0,0-3-2.95l-.26-.17h0c-.2-.13-.4-.23-.58-.33l-.18-.09h0l-.22-.09a1.17,1.17,0,0,0-.24-.09,5.28,5.28,0,0,0-1.5-.22" />
  <path class="BUNTAI_GOAT_JEWELRY_BUNTAI_GOAT_JEWELRY_32_cls-8" d="M224.13,368.44a12.68,12.68,0,0,0-.8-2.26l-3.8,1.18c.33.59.59,1.11.76,1.46" />
  <path class="BUNTAI_GOAT_JEWELRY_BUNTAI_GOAT_JEWELRY_32_cls-8" d="M213.27,371.76c-1.11-1.45-4.36-6-3.79-8.92a5.41,5.41,0,0,1,5.57-4.22" />
  <path class="BUNTAI_GOAT_JEWELRY_BUNTAI_GOAT_JEWELRY_32_cls-8" d="M217.58,369.57a52.07,52.07,0,0,1-4.05-6.27,5.28,5.28,0,0,1-.29-.74,3,3,0,0,1,1.81-3.94h0" />
  <path class="BUNTAI_GOAT_JEWELRY_BUNTAI_GOAT_JEWELRY_32_cls-8" d="M212.26,378.05s3.21,1.29,8.48-.65,5.79-4.73,5.79-4.73" />
  <path class="BUNTAI_GOAT_JEWELRY_BUNTAI_GOAT_JEWELRY_32_cls-8" d="M223.74,371.76a8.71,8.71,0,0,1-2.45,5.43" />
  <path class="BUNTAI_GOAT_JEWELRY_BUNTAI_GOAT_JEWELRY_32_cls-8" d="M221.29,373.1s.76,2.29-2.74,5" />
  <path class="BUNTAI_GOAT_JEWELRY_BUNTAI_GOAT_JEWELRY_32_cls-8" d="M217.12,378.32a5.9,5.9,0,0,0,2.27-3.84" />
  <path class="BUNTAI_GOAT_JEWELRY_BUNTAI_GOAT_JEWELRY_32_cls-8" d="M219.69,377.75s-3.22,3.47-5,3.39,0-2,.91-1.94.3,1-.06,1.1" />
  <path class="BUNTAI_GOAT_JEWELRY_BUNTAI_GOAT_JEWELRY_32_cls-8" d="M215,383.18a20.39,20.39,0,0,1,5.73-3.74,29.12,29.12,0,0,1,8.3-1.69" />
  <path class="BUNTAI_GOAT_JEWELRY_BUNTAI_GOAT_JEWELRY_32_cls-8" d="M221.71,382.72a3.78,3.78,0,0,0-3.56-2" />
  <path class="BUNTAI_GOAT_JEWELRY_BUNTAI_GOAT_JEWELRY_32_cls-8" d="M219.69,379.89s3.34,1.16,4,3.39" />
  <path class="BUNTAI_GOAT_JEWELRY_BUNTAI_GOAT_JEWELRY_32_cls-8" d="M221.54,379.14s2.93,1.46,3.38,3" />
  <path class="BUNTAI_GOAT_JEWELRY_BUNTAI_GOAT_JEWELRY_32_cls-8" d="M224.49,378.35s3.19.72,3.79,2.11" />
  <path class="BUNTAI_GOAT_JEWELRY_BUNTAI_GOAT_JEWELRY_32_cls-8" d="M216.05,374.69s-.17,1.54.9,1.71l1.07.17S218.29,375.1,216.05,374.69Z" />
  <path class="BUNTAI_GOAT_JEWELRY_BUNTAI_GOAT_JEWELRY_32_cls-8" d="M220.05,372.29s-1,.79-.54,1.4l.5.61S221.06,373.6,220.05,372.29Z" />
  <path class="BUNTAI_GOAT_JEWELRY_BUNTAI_GOAT_JEWELRY_32_cls-8" d="M224.3,377.31a3.35,3.35,0,0,1,2.85-1.48C226.37,377.17,226.09,377.09,224.3,377.31Z" />
  <path class="BUNTAI_GOAT_JEWELRY_BUNTAI_GOAT_JEWELRY_32_cls-8" d="M228.22,375.63a2.26,2.26,0,0,1,2.9-1.05C230.31,375.64,229.43,375.68,228.22,375.63Z" />
  <path class="BUNTAI_GOAT_JEWELRY_BUNTAI_GOAT_JEWELRY_32_cls-8" d="M226.84,375s.16-2.22,1.47-2.71A2.22,2.22,0,0,1,226.84,375Z" />
  <path class="BUNTAI_GOAT_JEWELRY_BUNTAI_GOAT_JEWELRY_32_cls-8" d="M227.53,376.82a2.6,2.6,0,0,1,3,0A2.79,2.79,0,0,1,227.53,376.82Z" />
  <path class="BUNTAI_GOAT_JEWELRY_BUNTAI_GOAT_JEWELRY_32_cls-8" d="M227.89,379s.24,1.1,2.42.92C229.78,379.11,229.77,378.81,227.89,379Z" />
  <path class="BUNTAI_GOAT_JEWELRY_BUNTAI_GOAT_JEWELRY_32_cls-8" d="M224.69,379.55a2.51,2.51,0,0,1,1.84.7,3.5,3.5,0,0,1,.81,1.73S224.83,381.51,224.69,379.55Z" />
  <path class="BUNTAI_GOAT_JEWELRY_BUNTAI_GOAT_JEWELRY_32_cls-8" d="M222.28,383.28a1.08,1.08,0,0,0,.32,1.48A1.13,1.13,0,0,0,222.28,383.28Z" />
</svg>