<svg id="jewelry" xmlns="http://www.w3.org/2000/svg" viewBox="0 0 432 432">
  <defs>
    <style>.BUNTAI_GOAT_JEWELRY_BUNTAI_GOAT_JEWELRY_30_cls-1{fill:#c7a858;}.BUNTAI_GOAT_JEWELRY_BUNTAI_GOAT_JEWELRY_30_cls-10,.BUNTAI_GOAT_JEWELRY_BUNTAI_GOAT_JEWELRY_30_cls-11,.BUNTAI_GOAT_JEWELRY_BUNTAI_GOAT_JEWELRY_30_cls-2,.BUNTAI_GOAT_JEWELRY_BUNTAI_GOAT_JEWELRY_30_cls-4{fill:none;}.BUNTAI_GOAT_JEWELRY_BUNTAI_GOAT_JEWELRY_30_cls-10,.BUNTAI_GOAT_JEWELRY_BUNTAI_GOAT_JEWELRY_30_cls-11,.BUNTAI_GOAT_JEWELRY_BUNTAI_GOAT_JEWELRY_30_cls-2,.BUNTAI_GOAT_JEWELRY_BUNTAI_GOAT_JEWELRY_30_cls-4,.BUNTAI_GOAT_JEWELRY_BUNTAI_GOAT_JEWELRY_30_cls-5{stroke:#000;}.BUNTAI_GOAT_JEWELRY_BUNTAI_GOAT_JEWELRY_30_cls-10,.BUNTAI_GOAT_JEWELRY_BUNTAI_GOAT_JEWELRY_30_cls-2,.BUNTAI_GOAT_JEWELRY_BUNTAI_GOAT_JEWELRY_30_cls-4{stroke-linecap:round;stroke-linejoin:round;}.BUNTAI_GOAT_JEWELRY_BUNTAI_GOAT_JEWELRY_30_cls-2{stroke-width:0.75px;}.BUNTAI_GOAT_JEWELRY_BUNTAI_GOAT_JEWELRY_30_cls-3{fill:#39b54a;}.BUNTAI_GOAT_JEWELRY_BUNTAI_GOAT_JEWELRY_30_cls-4{stroke-width:0.98px;}.BUNTAI_GOAT_JEWELRY_BUNTAI_GOAT_JEWELRY_30_cls-5{fill:#754c24;stroke-width:1.2px;}.BUNTAI_GOAT_JEWELRY_BUNTAI_GOAT_JEWELRY_30_cls-11,.BUNTAI_GOAT_JEWELRY_BUNTAI_GOAT_JEWELRY_30_cls-5{stroke-miterlimit:10;}.BUNTAI_GOAT_JEWELRY_BUNTAI_GOAT_JEWELRY_30_cls-6{fill:#4d4d4d;}.BUNTAI_GOAT_JEWELRY_BUNTAI_GOAT_JEWELRY_30_cls-7{fill:#333;}.BUNTAI_GOAT_JEWELRY_BUNTAI_GOAT_JEWELRY_30_cls-8{fill:#8c6239;}.BUNTAI_GOAT_JEWELRY_BUNTAI_GOAT_JEWELRY_30_cls-9{fill:#006837;}.BUNTAI_GOAT_JEWELRY_BUNTAI_GOAT_JEWELRY_30_cls-10,.BUNTAI_GOAT_JEWELRY_BUNTAI_GOAT_JEWELRY_30_cls-11{stroke-width:0.63px;}</style>
  </defs>
  <path class="BUNTAI_GOAT_JEWELRY_BUNTAI_GOAT_JEWELRY_30_cls-1" d="M145.1,233.36c-1.45,0-1.21-2-1.21-2h0a4,4,0,0,0,1.78.37,1.72,1.72,0,0,0,.8-.19C146.47,231.67,146.5,233.36,145.1,233.36Z" />
  <path class="BUNTAI_GOAT_JEWELRY_BUNTAI_GOAT_JEWELRY_30_cls-1" d="M147.6,225.55c.53,1.77.42,5.15-1.13,6a1.72,1.72,0,0,1-.8.19,4,4,0,0,1-1.78-.37c-1.34-.65-2-2.16-1.92-4.45a7.58,7.58,0,0,1,.41-2.23,4.77,4.77,0,0,1,1.3-2,1.66,1.66,0,0,1,1.19-.49,2,2,0,0,1,1.44.85,2.27,2.27,0,0,1-.64.12h0a3.72,3.72,0,0,0-1.63,2.51c-.41,1.95.27,4.13,1.25,4.13s1.11-2.54,1-3.88l.08,0A4.72,4.72,0,0,0,147.6,225.55Z" />
  <path class="BUNTAI_GOAT_JEWELRY_BUNTAI_GOAT_JEWELRY_30_cls-1" d="M143.68,222.68a4.89,4.89,0,0,0-1.29,2,5.48,5.48,0,0,1-1.85-4.77l2.2.56A2.46,2.46,0,0,0,143,222,2,2,0,0,0,143.68,222.68Z" />
  <path class="BUNTAI_GOAT_JEWELRY_BUNTAI_GOAT_JEWELRY_30_cls-1" d="M149.93,222.41a4.19,4.19,0,0,1-2.33,3.13,4.39,4.39,0,0,1-1.21.37h-.09a4.42,4.42,0,0,1-2.29-.24,3.71,3.71,0,0,1,1.62-2.51h0a2.88,2.88,0,0,0,.65-.13,1.91,1.91,0,0,0,1.35-1.17,1.66,1.66,0,0,0,.07-.51c0-2.06-.81-2.16-.81-2.16l-.1-.28a2.68,2.68,0,0,1,2.07-1.74A7.07,7.07,0,0,1,149.93,222.41Z" />
  <path class="BUNTAI_GOAT_JEWELRY_BUNTAI_GOAT_JEWELRY_30_cls-2" d="M140.49,219.92l2.25.56A2.46,2.46,0,0,0,143,222a2,2,0,0,0,.64.72" />
  <path class="BUNTAI_GOAT_JEWELRY_BUNTAI_GOAT_JEWELRY_30_cls-2" d="M140.54,219.92a5.48,5.48,0,0,0,1.85,4.77" />
  <path class="BUNTAI_GOAT_JEWELRY_BUNTAI_GOAT_JEWELRY_30_cls-2" d="M144,225.68a4.42,4.42,0,0,0,2.29.24h.09a4.39,4.39,0,0,0,1.21-.37,4.19,4.19,0,0,0,2.33-3.13,7.07,7.07,0,0,0-1-5.23" />
  <path class="BUNTAI_GOAT_JEWELRY_BUNTAI_GOAT_JEWELRY_30_cls-2" d="M146.83,218.92l.1.28s.79.1.81,2.16a1.66,1.66,0,0,1-.07.51,1.91,1.91,0,0,1-1.35,1.17,2.88,2.88,0,0,1-.65.13" />
  <path class="BUNTAI_GOAT_JEWELRY_BUNTAI_GOAT_JEWELRY_30_cls-2" d="M147.6,225.55c.53,1.77.42,5.15-1.13,6a1.72,1.72,0,0,1-.8.19,4,4,0,0,1-1.78-.37c-1.34-.65-2-2.16-1.92-4.45a7.58,7.58,0,0,1,.41-2.23,4.77,4.77,0,0,1,1.3-2,1.66,1.66,0,0,1,1.19-.49,2,2,0,0,1,1.44.85" />
  <path class="BUNTAI_GOAT_JEWELRY_BUNTAI_GOAT_JEWELRY_30_cls-2" d="M146.3,225.93c.07,1.34.06,3.88-1,3.88s-1.66-2.18-1.25-4.13a3.72,3.72,0,0,1,1.63-2.51h0" />
  <path class="BUNTAI_GOAT_JEWELRY_BUNTAI_GOAT_JEWELRY_30_cls-2" d="M143.89,231.38s-.24,2,1.21,2,1.37-1.69,1.37-1.8h0" />
  <path class="BUNTAI_GOAT_JEWELRY_BUNTAI_GOAT_JEWELRY_30_cls-2" d="M147,221a2.64,2.64,0,0,1-.16-2.12,2.68,2.68,0,0,1,2.07-1.74,3.14,3.14,0,0,1,.45,0,1.81,1.81,0,0,1,1.8,1.34" />
  <path class="BUNTAI_GOAT_JEWELRY_BUNTAI_GOAT_JEWELRY_30_cls-3" d="M151,259.61c0,5.13-2.59,9.29-5.8,9.29s-5.79-4.16-5.79-9.29,2.59-9.3,5.79-9.3S151,254.47,151,259.61Z" />
  <path class="BUNTAI_GOAT_JEWELRY_BUNTAI_GOAT_JEWELRY_30_cls-1" d="M145.18,247.75l-.38,0a3.78,3.78,0,0,0-.47.06,3.82,3.82,0,0,0-.56.14l-.21.07a2,2,0,0,0-.31.12,3,3,0,0,0-.44.22,4.85,4.85,0,0,0-.49.29,7,7,0,0,0-.87.7,2.08,2.08,0,0,0-.21.21,3.88,3.88,0,0,0-.39.42l-.37.45c-.09.13-.18.25-.26.38s-.17.24-.25.37l0,.05c-.16.26-.31.53-.46.81a12.58,12.58,0,0,0-.78,1.83.14.14,0,0,1,0,.06,17.39,17.39,0,0,0-.9,5.65,17,17,0,0,0,.16,2.4c.05.36.1.72.17,1.07a.5.5,0,0,1,0,.12c.07.35.15.7.24,1s.21.74.33,1.1a12.58,12.58,0,0,0,.78,1.83,10.58,10.58,0,0,0,1,1.6c.16.21.33.41.5.6a.41.41,0,0,0,.09.1,3.83,3.83,0,0,0,.28.29,5.74,5.74,0,0,0,.71.61c.19.14.38.27.58.39a5,5,0,0,0,.61.31,2,2,0,0,0,.31.12.94.94,0,0,0,.22.07,1.38,1.38,0,0,0,.27.08l.28.06a3.78,3.78,0,0,0,.47.06l.38,0c4.08,0,7.39-5.31,7.39-11.85S149.26,247.75,145.18,247.75Zm5.73,13.08c0,.25,0,.49-.07.73s-.08.55-.13.81-.09.47-.15.69l0,.11a2.29,2.29,0,0,1-.08.28,9.84,9.84,0,0,1-.44,1.26c-.09.22-.19.44-.29.65a2.1,2.1,0,0,1-.15.3,3.62,3.62,0,0,1-.24.43c-.15.24-.3.47-.46.69a7.32,7.32,0,0,1-.68.77l-.25.23a4.7,4.7,0,0,1-.44.34l-.36.23a2.58,2.58,0,0,1-.37.19,2.5,2.5,0,0,1-.38.15l-.4.11-.4.07-.41,0a4.32,4.32,0,0,1-.88-.1l-.42-.13-.42-.18a2.49,2.49,0,0,1-.28-.15c-.17-.11-.34-.22-.51-.35a2.65,2.65,0,0,1-.26-.21l-.24-.22a7.38,7.38,0,0,1-1.38-1.89,3,3,0,0,1-.18-.36,7,7,0,0,1-.47-1.12l-.12-.33h0l-.18-.61a5.66,5.66,0,0,1-.13-.56c0-.11-.05-.22-.07-.33-.06-.28-.1-.57-.14-.86s-.07-.59-.09-.9v-.05c0-.3,0-.61,0-.92s0-.68,0-1,.05-.66.1-1,.07-.49.12-.74.05-.24.08-.36.09-.42.15-.63.11-.38.17-.57.09-.27.14-.4.12-.34.19-.5a7.94,7.94,0,0,1,.34-.72,7,7,0,0,1,.37-.66c.14-.21.27-.41.41-.6a6.15,6.15,0,0,1,.57-.66,3.89,3.89,0,0,1,.36-.34l.39-.31.31-.2a4.07,4.07,0,0,1,1.18-.5,1.36,1.36,0,0,1,.29-.06,3.12,3.12,0,0,1,.44-.05h.3a3.12,3.12,0,0,1,.44.05,1.36,1.36,0,0,1,.29.06,4.19,4.19,0,0,1,1.18.5,1.74,1.74,0,0,1,.3.2,4,4,0,0,1,.52.42q.18.17.36.36c.15.16.3.34.45.53l.41.6c.1.16.19.33.28.5a3,3,0,0,1,.16.31,9,9,0,0,1,.49,1.19c.06.15.11.31.16.47s.11.36.16.55a5.43,5.43,0,0,1,.13.58c0,.11.05.23.07.35s.09.5.12.75.07.6.09.9,0,.65,0,1,0,.52,0,.77S150.93,260.68,150.91,260.83Z" />
  <ellipse class="BUNTAI_GOAT_JEWELRY_BUNTAI_GOAT_JEWELRY_30_cls-1" cx="145.17" cy="245.76" rx="3.09" ry="1.99" />
  <ellipse class="BUNTAI_GOAT_JEWELRY_BUNTAI_GOAT_JEWELRY_30_cls-4" cx="145.17" cy="245.76" rx="3.09" ry="1.99" />
  <path class="BUNTAI_GOAT_JEWELRY_BUNTAI_GOAT_JEWELRY_30_cls-4" d="M152.57,259.61c0,6.55-3.31,11.85-7.4,11.85s-7.39-5.3-7.39-11.85,3.31-11.86,7.39-11.86S152.57,253.06,152.57,259.61Z" />
  <path class="BUNTAI_GOAT_JEWELRY_BUNTAI_GOAT_JEWELRY_30_cls-4" d="M151,259.61c0,5.13-2.59,9.29-5.8,9.29s-5.79-4.16-5.79-9.29,2.59-9.3,5.79-9.3S151,254.47,151,259.61Z" />
  <line class="BUNTAI_GOAT_JEWELRY_BUNTAI_GOAT_JEWELRY_30_cls-4" x1="145.09" y1="233.28" x2="145.09" y2="243.78" />
  <path class="BUNTAI_GOAT_JEWELRY_BUNTAI_GOAT_JEWELRY_30_cls-4" d="M145.68,252.28s3.49,1.28,3.34,7.89" />
  <path class="BUNTAI_GOAT_JEWELRY_BUNTAI_GOAT_JEWELRY_30_cls-5" d="M300.68,299.71c-2.8-1.92-4.37.4-4.37.4l1.18,2c-6.68,15.68-31,35.78-77.33,49.08-49-13.28-74.65-45.32-78.55-50.89l1.72-2.58s-1.22-1.71-4.22-.14a2.78,2.78,0,0,0-.53,3.29s.2.31.5.75h0s29.55,39.41,80.6,53.06a2,2,0,0,0,.48.06,1.81,1.81,0,0,0,.52-.07c49.1-14,73.95-35.92,80.27-52.57C301.27,301.31,301.17,300.05,300.68,299.71Z" />
  <path class="BUNTAI_GOAT_JEWELRY_BUNTAI_GOAT_JEWELRY_30_cls-6" d="M227.11,374.48c1.78,1.54,3.13,9.11-3.83,10.07s-10.59-6.34-6.51-12.54c4-6,11.61-3.3,12.08-3.12-3.2-.83-7.71-.7-10.88,4-4.56,6.77,4.26,11.27,6.76,7.8s-.61-7-4.65-7.51C222.12,372,225.33,372.94,227.11,374.48Z" />
  <path class="BUNTAI_GOAT_JEWELRY_BUNTAI_GOAT_JEWELRY_30_cls-7" d="M235,376.8c-.48-5.28-8.38-10.73-15-3.61,2-1.24,5.25-.25,7,1.29s3.13,9.11-3.83,10.07-10.59-6.34-6.51-12.54c4-6,11.61-3.3,12.08-3.12h0a12.54,12.54,0,0,1,3.22,1.34s-.79-6.28-10.44-6.93c-.53,0-1.09-.06-1.67-.06l-.59,0c-10.8.41-14.89,12.13-11.79,19.5s12.16,10.2,18.7,8.15S235.52,382.07,235,376.8Z" />
  <path class="BUNTAI_GOAT_JEWELRY_BUNTAI_GOAT_JEWELRY_30_cls-8" d="M221.66,357v6.34c-.53,0-1.09-.06-1.67-.06l-.59,0h0V357a1.36,1.36,0,0,1,0-.2,3.12,3.12,0,0,0,1.11.2,3.4,3.4,0,0,0,1.11-.19A1.11,1.11,0,0,1,221.66,357Z" />
  <path class="BUNTAI_GOAT_JEWELRY_BUNTAI_GOAT_JEWELRY_30_cls-9" d="M220.53,350.71a3.12,3.12,0,0,1,1.11,6.06,3.4,3.4,0,0,1-1.11.19,3.19,3.19,0,0,1-3.19-3.12A3.16,3.16,0,0,1,220.53,350.71Z" />
  <path class="BUNTAI_GOAT_JEWELRY_BUNTAI_GOAT_JEWELRY_30_cls-10" d="M228.88,368.89a12.54,12.54,0,0,1,3.22,1.34s-.79-6.28-10.44-6.93c-.53,0-1.09-.06-1.67-.06l-.59,0c-10.8.41-14.89,12.13-11.79,19.5s12.16,10.2,18.7,8.15,9.21-8.84,8.73-14.11-8.38-10.73-15-3.61c4,.48,7.15,4,4.65,7.51s-11.32-1-6.76-7.8c3.17-4.71,7.68-4.84,10.88-4" />
  <path class="BUNTAI_GOAT_JEWELRY_BUNTAI_GOAT_JEWELRY_30_cls-10" d="M230,368h0" />
  <path class="BUNTAI_GOAT_JEWELRY_BUNTAI_GOAT_JEWELRY_30_cls-10" d="M223.28,364.53a8.62,8.62,0,0,1,.13,2.7A21.21,21.21,0,0,1,230,368,9.46,9.46,0,0,0,223.28,364.53Z" />
  <path class="BUNTAI_GOAT_JEWELRY_BUNTAI_GOAT_JEWELRY_30_cls-10" d="M217.9,364.87s-4.84,2.17-6,4.85a14.28,14.28,0,0,1,3.75,2l1.85-2.27a19.83,19.83,0,0,0-2.58-1.74l-.93,1.11a6.81,6.81,0,0,1,1.73,1" />
  <path class="BUNTAI_GOAT_JEWELRY_BUNTAI_GOAT_JEWELRY_30_cls-10" d="M211.08,376.08l1.45.17v3.18h-2.88s.09-4.33.51-5.24a27.17,27.17,0,0,1,3.86.53s-.33,5.42,0,6.6c-4,1.27-5.37.43-5.37.43s-1.15-6.17,1.2-10a17,17,0,0,1,5.13,1.74" />
  <path class="BUNTAI_GOAT_JEWELRY_BUNTAI_GOAT_JEWELRY_30_cls-10" d="M228.88,368.89h0c-.47-.18-8.12-2.9-12.08,3.12-4.08,6.2-.46,13.5,6.51,12.54s5.61-8.53,3.83-10.07-5-2.53-7-1.29" />
  <path class="BUNTAI_GOAT_JEWELRY_BUNTAI_GOAT_JEWELRY_30_cls-10" d="M214.44,382a11.8,11.8,0,0,1-4.51,2.06c5.16,4.75,9.51,5.42,9.51,5.42l1.81-3.34s-4.31-1.42-5.66-3c-1.64,1.06-1.88,1.52-1.88,1.52a23.22,23.22,0,0,0,3.95,2.63c.82-.87.82-1.1.82-1.1" />
  <path class="BUNTAI_GOAT_JEWELRY_BUNTAI_GOAT_JEWELRY_30_cls-10" d="M222.47,385.76a35.55,35.55,0,0,1-.63,3.88,8.28,8.28,0,0,0,6.09-1.94,10.19,10.19,0,0,0-1.05-2.39A42.49,42.49,0,0,1,222.47,385.76Z" />
  <path class="BUNTAI_GOAT_JEWELRY_BUNTAI_GOAT_JEWELRY_30_cls-10" d="M229.53,375.21a8.56,8.56,0,0,0-4.54-2.9,7.25,7.25,0,0,1,5.86.39A12.37,12.37,0,0,0,229.53,375.21Z" />
  <path class="BUNTAI_GOAT_JEWELRY_BUNTAI_GOAT_JEWELRY_30_cls-10" d="M232.47,374.19s-2.33,1.61-2.89,3.33a11.62,11.62,0,0,1-.71,4.78,7.38,7.38,0,0,1-1,1.48,12.85,12.85,0,0,1,2.28,2.79s4.41-3.06,3.13-9.84a4.64,4.64,0,0,0-2.59.79s-.22,3.82-.93,5l-.07.11a9.44,9.44,0,0,0,1.39.87" />
  <path class="BUNTAI_GOAT_JEWELRY_BUNTAI_GOAT_JEWELRY_30_cls-10" d="M219.42,356.76a3.11,3.11,0,0,1-2.08-2.92,3.2,3.2,0,1,1,4.3,2.93,3.4,3.4,0,0,1-1.11.19A3.12,3.12,0,0,1,219.42,356.76Z" />
  <path class="BUNTAI_GOAT_JEWELRY_BUNTAI_GOAT_JEWELRY_30_cls-11" d="M219.4,363.26h0V357a1.36,1.36,0,0,1,0-.2" />
  <path class="BUNTAI_GOAT_JEWELRY_BUNTAI_GOAT_JEWELRY_30_cls-11" d="M221.64,356.77a1.11,1.11,0,0,1,0,.19v6.34" />
</svg>