<svg xmlns="http://www.w3.org/2000/svg" viewBox="0 0 432 432">
  <defs>
    <style>.BUNTAI_GOAT_JEWELRY_BUNTAI_GOAT_JEWELRY_29_cls-1{isolation:isolate;}.BUNTAI_GOAT_JEWELRY_BUNTAI_GOAT_JEWELRY_29_cls-2{fill:#c7a858;}.BUNTAI_GOAT_JEWELRY_BUNTAI_GOAT_JEWELRY_29_cls-12,.BUNTAI_GOAT_JEWELRY_BUNTAI_GOAT_JEWELRY_29_cls-14,.BUNTAI_GOAT_JEWELRY_BUNTAI_GOAT_JEWELRY_29_cls-16,.BUNTAI_GOAT_JEWELRY_BUNTAI_GOAT_JEWELRY_29_cls-19,.BUNTAI_GOAT_JEWELRY_BUNTAI_GOAT_JEWELRY_29_cls-3{fill:none;stroke-linecap:round;stroke-linejoin:round;}.BUNTAI_GOAT_JEWELRY_BUNTAI_GOAT_JEWELRY_29_cls-12,.BUNTAI_GOAT_JEWELRY_BUNTAI_GOAT_JEWELRY_29_cls-14,.BUNTAI_GOAT_JEWELRY_BUNTAI_GOAT_JEWELRY_29_cls-16,.BUNTAI_GOAT_JEWELRY_BUNTAI_GOAT_JEWELRY_29_cls-17,.BUNTAI_GOAT_JEWELRY_BUNTAI_GOAT_JEWELRY_29_cls-19,.BUNTAI_GOAT_JEWELRY_BUNTAI_GOAT_JEWELRY_29_cls-3{stroke:#000;}.BUNTAI_GOAT_JEWELRY_BUNTAI_GOAT_JEWELRY_29_cls-3{stroke-width:0.86px;}.BUNTAI_GOAT_JEWELRY_BUNTAI_GOAT_JEWELRY_29_cls-4{fill:#87e04a;}.BUNTAI_GOAT_JEWELRY_BUNTAI_GOAT_JEWELRY_29_cls-5{fill:#f4f4f2;}.BUNTAI_GOAT_JEWELRY_BUNTAI_GOAT_JEWELRY_29_cls-6{fill:#184098;}.BUNTAI_GOAT_JEWELRY_BUNTAI_GOAT_JEWELRY_29_cls-7{fill:#2dbcd5;}.BUNTAI_GOAT_JEWELRY_BUNTAI_GOAT_JEWELRY_29_cls-8{fill:#e1a04c;}.BUNTAI_GOAT_JEWELRY_BUNTAI_GOAT_JEWELRY_29_cls-9{fill:#a64e42;}.BUNTAI_GOAT_JEWELRY_BUNTAI_GOAT_JEWELRY_29_cls-10{fill:#ccc;}.BUNTAI_GOAT_JEWELRY_BUNTAI_GOAT_JEWELRY_29_cls-11{fill:#e7ff87;}.BUNTAI_GOAT_JEWELRY_BUNTAI_GOAT_JEWELRY_29_cls-12{stroke-width:0.9px;}.BUNTAI_GOAT_JEWELRY_BUNTAI_GOAT_JEWELRY_29_cls-13{opacity:0.43;mix-blend-mode:multiply;}.BUNTAI_GOAT_JEWELRY_BUNTAI_GOAT_JEWELRY_29_cls-14{stroke-width:0.8px;}.BUNTAI_GOAT_JEWELRY_BUNTAI_GOAT_JEWELRY_29_cls-15{fill:#666;}.BUNTAI_GOAT_JEWELRY_BUNTAI_GOAT_JEWELRY_29_cls-16{stroke-width:0.91px;}.BUNTAI_GOAT_JEWELRY_BUNTAI_GOAT_JEWELRY_29_cls-17{fill:#754c24;stroke-miterlimit:10;stroke-width:1.38px;}.BUNTAI_GOAT_JEWELRY_BUNTAI_GOAT_JEWELRY_29_cls-18{fill:#333;}.BUNTAI_GOAT_JEWELRY_BUNTAI_GOAT_JEWELRY_29_cls-19{stroke-width:0.88px;}</style>
  </defs>
  <g class="BUNTAI_GOAT_JEWELRY_BUNTAI_GOAT_JEWELRY_29_cls-1">
    <g id="jewelry">
      <path class="BUNTAI_GOAT_JEWELRY_BUNTAI_GOAT_JEWELRY_29_cls-2" d="M144.14,235.51c-1.66,0-1.39-2.27-1.39-2.27h0a4.48,4.48,0,0,0,2,.43,1.81,1.81,0,0,0,.91-.23C145.71,233.58,145.74,235.51,144.14,235.51Z" />
      <path class="BUNTAI_GOAT_JEWELRY_BUNTAI_GOAT_JEWELRY_29_cls-2" d="M147,226.57c.61,2,.48,5.9-1.3,6.87a1.81,1.81,0,0,1-.91.23,4.48,4.48,0,0,1-2-.43c-1.53-.74-2.3-2.46-2.19-5.09a8.28,8.28,0,0,1,.47-2.55,5.4,5.4,0,0,1,1.48-2.31,1.9,1.9,0,0,1,1.36-.56,2.27,2.27,0,0,1,1.65,1,3.48,3.48,0,0,1-.73.13h0a4.22,4.22,0,0,0-1.86,2.87c-.47,2.23.31,4.73,1.43,4.73s1.27-2.91,1.19-4.45h.1A5.66,5.66,0,0,0,147,226.57Z" />
      <path class="BUNTAI_GOAT_JEWELRY_BUNTAI_GOAT_JEWELRY_29_cls-2" d="M142.51,223.3a5.39,5.39,0,0,0-1.48,2.3,6.17,6.17,0,0,1-2-6.17l2.46.9a2.9,2.9,0,0,0,.26,2.15A2.4,2.4,0,0,0,142.51,223.3Z" />
      <path class="BUNTAI_GOAT_JEWELRY_BUNTAI_GOAT_JEWELRY_29_cls-2" d="M149.67,223a4.83,4.83,0,0,1-2.67,3.59,5.26,5.26,0,0,1-1.39.42h-.1a5.12,5.12,0,0,1-2.62-.27,4.21,4.21,0,0,1,1.86-2.88h0a3.74,3.74,0,0,0,.74-.15,2.15,2.15,0,0,0,1.54-1.34,1.81,1.81,0,0,0,.09-.58c0-2.36-.93-2.47-.93-2.47s0-.13-.11-.32a3,3,0,0,1,2.36-2A8.1,8.1,0,0,1,149.67,223Z" />
      <path class="BUNTAI_GOAT_JEWELRY_BUNTAI_GOAT_JEWELRY_29_cls-3" d="M141,225.6a6.17,6.17,0,0,1-2-6.17l2.46.9a2.9,2.9,0,0,0,.26,2.15,2.4,2.4,0,0,0,.73.82" />
      <path class="BUNTAI_GOAT_JEWELRY_BUNTAI_GOAT_JEWELRY_29_cls-3" d="M142.89,226.73a5.12,5.12,0,0,0,2.62.27h.1a5.26,5.26,0,0,0,1.39-.42,4.83,4.83,0,0,0,2.67-3.59,8.1,8.1,0,0,0-1.19-6" />
      <path class="BUNTAI_GOAT_JEWELRY_BUNTAI_GOAT_JEWELRY_29_cls-3" d="M146.12,219c.06.19.11.32.11.32s.9.11.93,2.47a1.81,1.81,0,0,1-.09.58,2.15,2.15,0,0,1-1.54,1.34,3.74,3.74,0,0,1-.74.15" />
      <path class="BUNTAI_GOAT_JEWELRY_BUNTAI_GOAT_JEWELRY_29_cls-3" d="M147,226.57c.61,2,.48,5.9-1.3,6.87a1.81,1.81,0,0,1-.91.23,4.48,4.48,0,0,1-2-.43c-1.53-.74-2.3-2.46-2.19-5.09a8.28,8.28,0,0,1,.47-2.55,5.4,5.4,0,0,1,1.48-2.31,1.9,1.9,0,0,1,1.36-.56,2.27,2.27,0,0,1,1.65,1" />
      <path class="BUNTAI_GOAT_JEWELRY_BUNTAI_GOAT_JEWELRY_29_cls-3" d="M145.51,227c.08,1.54.07,4.45-1.19,4.45s-1.9-2.5-1.43-4.73a4.22,4.22,0,0,1,1.86-2.87h0" />
      <path class="BUNTAI_GOAT_JEWELRY_BUNTAI_GOAT_JEWELRY_29_cls-3" d="M142.75,233.24s-.27,2.27,1.39,2.27,1.57-1.93,1.56-2.07h0" />
      <path class="BUNTAI_GOAT_JEWELRY_BUNTAI_GOAT_JEWELRY_29_cls-3" d="M146.29,221.42A3.1,3.1,0,0,1,146,220a3,3,0,0,1,2.53-3,3,3,0,0,1,.52,0,2.08,2.08,0,0,1,2.06,1.53" />
      <path class="BUNTAI_GOAT_JEWELRY_BUNTAI_GOAT_JEWELRY_29_cls-4" d="M148.09,290.06c1.92.86,3.42,4.25,3.42,4.25s-3.52,1.12-5.43.26c-1.52-.68-2.37-2.75-2.66-3.6h0l-.07-.36C143.72,290.42,146.33,289.26,148.09,290.06Z" />
      <path class="BUNTAI_GOAT_JEWELRY_BUNTAI_GOAT_JEWELRY_29_cls-5" d="M143,285.58s-.71,3.13-2.58,4.08-5.45,0-5.45,0,1.34-3.45,3.2-4.4S143,285.58,143,285.58Z" />
      <path class="BUNTAI_GOAT_JEWELRY_BUNTAI_GOAT_JEWELRY_29_cls-6" d="M153.2,278c1.86,1.35,2.73,5.31,2.73,5.31s-4,.44-5.9-.91-2.11-4.86-2.11-4.86S151.33,276.69,153.2,278Z" />
      <path class="BUNTAI_GOAT_JEWELRY_BUNTAI_GOAT_JEWELRY_29_cls-7" d="M148.94,269.31s0,.05,0,.07h0c-.21.79-1,3.37-2.76,4.25-2.06,1-6,0-6,0s1.46-3.79,3.51-4.83,5,.24,5.28.34h0Z" />
      <path class="BUNTAI_GOAT_JEWELRY_BUNTAI_GOAT_JEWELRY_29_cls-8" d="M156.26,257.56c2.66,1,5,5.35,5,5.35s-4.62,1.87-7.28.91a6.9,6.9,0,0,1-3.22-3.16s0,0,0,0a6.94,6.94,0,0,0-.5-1.22c-.12-.21-.23-.42-.33-.64C150.36,258.53,153.78,256.67,156.26,257.56Z" />
      <path class="BUNTAI_GOAT_JEWELRY_BUNTAI_GOAT_JEWELRY_29_cls-9" d="M144.61,250.59l0,0c.18.63.39,1.3.62,2v0a6.79,6.79,0,0,1-.19,4.38c-1.26,2.52-5.89,4.34-5.89,4.34s-1.32-4.8-.06-7.32,5.48-3.51,5.48-3.51l0,.06Z" />
      <path class="BUNTAI_GOAT_JEWELRY_BUNTAI_GOAT_JEWELRY_29_cls-10" d="M150.77,260.66c1.78,5.8-2.32,16.57-6.23,23.54a9.77,9.77,0,0,0-1.19,6.4l0,0s0,.13.12.34h0a15.21,15.21,0,0,0,6.49,9.34c-2.92-1.57-9.92-8.81-6.19-16.11a57,57,0,0,0,5.2-14.81h0a1.16,1.16,0,0,0,.06-.22h0c.68-3.88.61-7.41-.76-9.73a37.37,37.37,0,0,1-3-6.79v0a14.2,14.2,0,0,0-.62-2l0,0h0c-.5-1.67-.87-3.14-1.1-4.11a3.21,3.21,0,0,0,.92.14,3,3,0,0,0,1.71-.52c.39,2.22,1.62,8.33,3.78,12.68h0l-.05,0a12.42,12.42,0,0,0,.88,1.84S150.77,260.65,150.77,260.66Z" />
      <path class="BUNTAI_GOAT_JEWELRY_BUNTAI_GOAT_JEWELRY_29_cls-11" d="M147.48,243a0,0,0,0,0,0,0,1.27,1.27,0,0,0-.06-.28,3,3,0,0,0-1.25-1.76,2.07,2.07,0,0,0-.25-.15,1.66,1.66,0,0,0-.27-.13l-.21-.08a1.58,1.58,0,0,0-.31-.09,2.38,2.38,0,0,0-.37-.06l-.32,0a3.09,3.09,0,0,0-3.08,3.09,2.6,2.6,0,0,0,0,.4h0v0h0a3.09,3.09,0,0,0,.25.85,3.59,3.59,0,0,0,.21.38l.16.23,0,0a.75.75,0,0,0,.17.19.62.62,0,0,0,.14.14.7.7,0,0,0,.19.16s0,0,0,0a1.24,1.24,0,0,0,.18.14l0,0a1.28,1.28,0,0,0,.25.15h0l.14.07a2.39,2.39,0,0,0,.37.15l.23.05h.05l.15,0h0a2.32,2.32,0,0,0,.46,0,2.6,2.6,0,0,0,.4,0l.14,0H145a1.77,1.77,0,0,0,.31-.08,1.58,1.58,0,0,0,.34-.13.91.91,0,0,0,.22-.11,1.71,1.71,0,0,0,.23-.13,3.12,3.12,0,0,0,1.38-2.59A2.63,2.63,0,0,0,147.48,243Zm-3-1.2a1.7,1.7,0,1,1-1.7,1.69A1.7,1.7,0,0,1,144.43,241.82Z" />
      <path class="BUNTAI_GOAT_JEWELRY_BUNTAI_GOAT_JEWELRY_29_cls-12" d="M145.25,252.6a14.2,14.2,0,0,0-.62-2" />
      <path class="BUNTAI_GOAT_JEWELRY_BUNTAI_GOAT_JEWELRY_29_cls-12" d="M144.61,250.58l0-.06s-4.21,1-5.48,3.51.06,7.32.06,7.32,4.63-1.82,5.89-4.34a6.79,6.79,0,0,0,.19-4.38" />
      <path class="BUNTAI_GOAT_JEWELRY_BUNTAI_GOAT_JEWELRY_29_cls-12" d="M149,269.15c-.25-.1-3.31-1.34-5.28-.34s-3.51,4.83-3.51,4.83,3.92,1,6,0c1.73-.88,2.55-3.46,2.76-4.25" />
      <path class="BUNTAI_GOAT_JEWELRY_BUNTAI_GOAT_JEWELRY_29_cls-12" d="M148.92,269.38a1.16,1.16,0,0,0,.06-.22h0" />
      <path class="BUNTAI_GOAT_JEWELRY_BUNTAI_GOAT_JEWELRY_29_cls-12" d="M143,285.58s-3-1.27-4.83-.32-3.2,4.4-3.2,4.4,3.58.95,5.45,0S143,285.58,143,285.58Z" />
      <path class="BUNTAI_GOAT_JEWELRY_BUNTAI_GOAT_JEWELRY_29_cls-12" d="M143.42,291c.29.85,1.14,2.92,2.66,3.6,1.91.86,5.43-.26,5.43-.26s-1.5-3.39-3.42-4.25c-1.76-.8-4.37.36-4.74.54l0,0s0,.13.12.34" />
      <path class="BUNTAI_GOAT_JEWELRY_BUNTAI_GOAT_JEWELRY_29_cls-12" d="M147.92,277.57s.24,3.52,2.11,4.86,5.9.91,5.9.91-.87-4-2.73-5.31S147.92,277.57,147.92,277.57Z" />
      <path class="BUNTAI_GOAT_JEWELRY_BUNTAI_GOAT_JEWELRY_29_cls-12" d="M150.77,260.66a6.9,6.9,0,0,0,3.22,3.16c2.66,1,7.28-.91,7.28-.91s-2.35-4.38-5-5.35c-2.48-.89-5.9,1-6.33,1.22l-.05,0a12.42,12.42,0,0,0,.88,1.84" />
      <path class="BUNTAI_GOAT_JEWELRY_BUNTAI_GOAT_JEWELRY_29_cls-12" d="M149.91,300.31c-2.92-1.57-9.92-8.81-6.19-16.11a57,57,0,0,0,5.2-14.81h0s0-.05,0-.07l0-.15h0c.68-3.88.61-7.41-.76-9.73a37.37,37.37,0,0,1-3-6.79v0c-.23-.68-.44-1.35-.62-2l0,0h0c-.5-1.67-.87-3.14-1.1-4.11h0" />
      <path class="BUNTAI_GOAT_JEWELRY_BUNTAI_GOAT_JEWELRY_29_cls-12" d="M148.06,303.6c-2.52,1.47,2.32,2.63,1.92,0-2.32-5-7.95,3.62-1.37,4,3.92,0,4.28-5.87,1.51-7.17" />
      <path class="BUNTAI_GOAT_JEWELRY_BUNTAI_GOAT_JEWELRY_29_cls-12" d="M150.12,300.42l-.21-.11a15.21,15.21,0,0,1-6.49-9.34h0l-.07-.36a9.77,9.77,0,0,1,1.19-6.4c3.91-7,8-17.74,6.23-23.54,0,0,0,0,0,0a6.94,6.94,0,0,0-.5-1.22c-.12-.21-.23-.42-.33-.64h0c-2.16-4.35-3.39-10.46-3.78-12.68" />
      <path class="BUNTAI_GOAT_JEWELRY_BUNTAI_GOAT_JEWELRY_29_cls-12" d="M143.51,246.47a3.09,3.09,0,1,1,2.63-.38,3,3,0,0,1-1.71.52A3.21,3.21,0,0,1,143.51,246.47Z" />
      <path class="BUNTAI_GOAT_JEWELRY_BUNTAI_GOAT_JEWELRY_29_cls-12" d="M146.14,243.51a1.71,1.71,0,1,1-1.71-1.7A1.71,1.71,0,0,1,146.14,243.51Z" />
      <g class="BUNTAI_GOAT_JEWELRY_BUNTAI_GOAT_JEWELRY_29_cls-13">
        <path d="M141.34,243.88s1,2.2,2.45,2.66c.58,3.22.8,4,.8,4a25.83,25.83,0,0,1-2.84,6.53,21.48,21.48,0,0,0-2.27,4.17s5.82-2.52,6.41-6.81c1.33,3.15,3.52,5.62,3.45,9.08a52.86,52.86,0,0,1-.36,5.57,13.52,13.52,0,0,1-4.55,2.92c-2.6.92-4.2,1.53-4.2,1.53a4.74,4.74,0,0,0,4.61.52,8.79,8.79,0,0,0,3.64-2.55s-2.1,9.68-3.68,12.24a15.39,15.39,0,0,1-1.91,1.81s-5.23,3.52-8.13,4c2.63.79,6.86.18,8.26-2.45.23,2.54-.66,10.08,8.42,7.08a67.6,67.6,0,0,1-7.46-3.84s-1.6-1.64-.16-4.57c3.23-5.92,4.17-7.61,4.17-7.61s-.81,6.11,7.75,5.22c-3.77-2.52-7.15-4.59-7.55-6.08,1.49-4.64,3.16-7,3-11.32L151,261.6s2,4.13,10.1,1c-6.54-2.14-9.4-2.33-11.22-3.93-1.82-4.71-4.1-11.84-4-12.47s1.82-1.63,1.61-3.26C146,245.29,144.72,247.13,141.34,243.88Z" />
      </g>
      <line class="BUNTAI_GOAT_JEWELRY_BUNTAI_GOAT_JEWELRY_29_cls-14" x1="144.39" y1="240.19" x2="144.39" y2="235.51" />
      <path class="BUNTAI_GOAT_JEWELRY_BUNTAI_GOAT_JEWELRY_29_cls-15" d="M219.5,409.47l4.62,13.11-3.73.39L218,409.74a7.09,7.09,0,0,0,.94-.14h0Z" />
      <path class="BUNTAI_GOAT_JEWELRY_BUNTAI_GOAT_JEWELRY_29_cls-15" d="M221.83,408.54l8.85,11.51-3.16,1.19-3.4,1.34h0l-4.62-13.11a9.67,9.67,0,0,0,1.87-.69A5.06,5.06,0,0,0,221.83,408.54Z" />
      <path class="BUNTAI_GOAT_JEWELRY_BUNTAI_GOAT_JEWELRY_29_cls-15" d="M235.58,416.23l-2.5,1.87-2.4,1.95-8.85-11.51a8.26,8.26,0,0,0,1.51-1.08l.16-.15Z" />
      <path class="BUNTAI_GOAT_JEWELRY_BUNTAI_GOAT_JEWELRY_29_cls-15" d="M238.75,411.52l-1.69,2.33-1.48,2.38-12.08-8.92a6.89,6.89,0,0,0,1.21-1.57c.06-.09.11-.19.16-.28Z" />
      <path class="BUNTAI_GOAT_JEWELRY_BUNTAI_GOAT_JEWELRY_29_cls-15" d="M240.73,406.12l-1,2.48-1,2.92-13.88-6.06a8,8,0,0,0,.58-1.54l.09-.35Z" />
      <path class="BUNTAI_GOAT_JEWELRY_BUNTAI_GOAT_JEWELRY_29_cls-15" d="M241,401.45l-.35,2,.1,2.68-15.19-2.55a10.65,10.65,0,0,0,.21-2.12Z" />
      <path class="BUNTAI_GOAT_JEWELRY_BUNTAI_GOAT_JEWELRY_29_cls-15" d="M240.63,399.45l.35,2H225.75a10.57,10.57,0,0,0-.21-2.12l15.19-2.55Z" />
      <path class="BUNTAI_GOAT_JEWELRY_BUNTAI_GOAT_JEWELRY_29_cls-15" d="M239.75,394.3l1,2.48-15.19,2.55q0-.19-.09-.36a8.11,8.11,0,0,0-.58-1.53l13.88-6.06Z" />
      <path class="BUNTAI_GOAT_JEWELRY_BUNTAI_GOAT_JEWELRY_29_cls-15" d="M237.06,389l1.69,2.34-13.88,6.06a2.69,2.69,0,0,0-.16-.29,6.62,6.62,0,0,0-1.21-1.56l12.08-8.93Z" />
      <path class="BUNTAI_GOAT_JEWELRY_BUNTAI_GOAT_JEWELRY_29_cls-15" d="M235.58,386.66l-12.08,8.93-.16-.16a8.77,8.77,0,0,0-1.51-1.08l8.85-11.51,2.4,2Z" />
      <path class="BUNTAI_GOAT_JEWELRY_BUNTAI_GOAT_JEWELRY_29_cls-15" d="M230.68,382.84l-8.85,11.51c-.15-.09-.31-.16-.46-.24a11.2,11.2,0,0,0-1.87-.69l4.62-13.1h0l3.4,1.33Z" />
      <path class="BUNTAI_GOAT_JEWELRY_BUNTAI_GOAT_JEWELRY_29_cls-15" d="M224.12,380.32l-4.62,13.1-.54-.12h0a7.09,7.09,0,0,0-.94-.14l2.37-13.23Z" />
      <path class="BUNTAI_GOAT_JEWELRY_BUNTAI_GOAT_JEWELRY_29_cls-16" d="M219,393.3a7.09,7.09,0,0,0-.94-.14l2.37-13.23,3.73.39h0l3.4,1.33,3.16,1.19,2.4,2,2.5,1.87,1.48,2.38,1.69,2.34,1,2.92,1,2.48-.1,2.67.35,2" />
      <path class="BUNTAI_GOAT_JEWELRY_BUNTAI_GOAT_JEWELRY_29_cls-16" d="M225.75,401.45a10.57,10.57,0,0,0-.21-2.12q0-.19-.09-.36a8.11,8.11,0,0,0-.58-1.53,2.69,2.69,0,0,0-.16-.29,6.62,6.62,0,0,0-1.21-1.56l-.16-.16a8.77,8.77,0,0,0-1.51-1.08c-.15-.09-.31-.16-.46-.24a11.2,11.2,0,0,0-1.87-.69l-.54-.12" />
      <line class="BUNTAI_GOAT_JEWELRY_BUNTAI_GOAT_JEWELRY_29_cls-16" x1="224.87" y1="397.44" x2="238.75" y2="391.38" />
      <polyline class="BUNTAI_GOAT_JEWELRY_BUNTAI_GOAT_JEWELRY_29_cls-16" points="223.5 395.59 223.5 395.58 235.58 386.66" />
      <line class="BUNTAI_GOAT_JEWELRY_BUNTAI_GOAT_JEWELRY_29_cls-16" x1="221.83" y1="394.35" x2="230.68" y2="382.84" />
      <line class="BUNTAI_GOAT_JEWELRY_BUNTAI_GOAT_JEWELRY_29_cls-16" x1="219.5" y1="393.42" x2="224.12" y2="380.32" />
      <line class="BUNTAI_GOAT_JEWELRY_BUNTAI_GOAT_JEWELRY_29_cls-16" x1="225.54" y1="399.33" x2="240.73" y2="396.78" />
      <polyline class="BUNTAI_GOAT_JEWELRY_BUNTAI_GOAT_JEWELRY_29_cls-16" points="218.96 393.3 218.96 393.3 217.3 401.45" />
      <polyline class="BUNTAI_GOAT_JEWELRY_BUNTAI_GOAT_JEWELRY_29_cls-16" points="225.45 398.97 217.3 401.45 224.71 397.15" />
      <polyline class="BUNTAI_GOAT_JEWELRY_BUNTAI_GOAT_JEWELRY_29_cls-16" points="223.34 395.43 217.3 401.45 221.37 394.11" />
      <path class="BUNTAI_GOAT_JEWELRY_BUNTAI_GOAT_JEWELRY_29_cls-16" d="M219,409.6a7.09,7.09,0,0,1-.94.14L220.39,423l3.73-.39h0l3.4-1.34,3.16-1.19,2.4-1.95,2.5-1.87,1.48-2.38,1.69-2.33,1-2.92,1-2.48-.1-2.68.35-2H225.75a10.65,10.65,0,0,1-.21,2.12l-.09.35a8,8,0,0,1-.58,1.54c-.05.09-.1.19-.16.28a6.89,6.89,0,0,1-1.21,1.57l-.16.15a8.26,8.26,0,0,1-1.51,1.08,5.06,5.06,0,0,1-.46.24,9.67,9.67,0,0,1-1.87.69l-.54.12" />
      <line class="BUNTAI_GOAT_JEWELRY_BUNTAI_GOAT_JEWELRY_29_cls-16" x1="238.75" y1="411.52" x2="224.87" y2="405.46" />
      <polyline class="BUNTAI_GOAT_JEWELRY_BUNTAI_GOAT_JEWELRY_29_cls-16" points="235.58 416.23 223.5 407.31 223.5 407.31" />
      <line class="BUNTAI_GOAT_JEWELRY_BUNTAI_GOAT_JEWELRY_29_cls-16" x1="230.68" y1="420.05" x2="221.83" y2="408.54" />
      <line class="BUNTAI_GOAT_JEWELRY_BUNTAI_GOAT_JEWELRY_29_cls-16" x1="224.12" y1="422.58" x2="219.5" y2="409.47" />
      <line class="BUNTAI_GOAT_JEWELRY_BUNTAI_GOAT_JEWELRY_29_cls-16" x1="240.73" y1="406.12" x2="225.54" y2="403.57" />
      <polyline class="BUNTAI_GOAT_JEWELRY_BUNTAI_GOAT_JEWELRY_29_cls-16" points="218.96 409.6 218.96 409.6 217.3 401.45 225.75 401.45" />
      <polyline class="BUNTAI_GOAT_JEWELRY_BUNTAI_GOAT_JEWELRY_29_cls-16" points="225.45 403.92 217.3 401.45 224.71 405.74" />
      <polyline class="BUNTAI_GOAT_JEWELRY_BUNTAI_GOAT_JEWELRY_29_cls-16" points="223.34 407.46 217.3 401.45 221.37 408.78" />
      <path class="BUNTAI_GOAT_JEWELRY_BUNTAI_GOAT_JEWELRY_29_cls-17" d="M308.08,311.51c-3.07-2.32-4.48-.2-4.48-.2l2,2.89c-7.31,18.92-34.55,43.3-85.36,59.35-53.73-16-80.09-59-84.37-65.69l2-2s-1.77-3.47-5.67-1c-1.08,1-.88,3.17-.31,4.17,0,0,.22.37.56.9h0s31.37,51.37,87.32,67.84a1.68,1.68,0,0,0,.54.08,2.1,2.1,0,0,0,.56-.08c53.82-16.87,80.87-43.46,87.79-63.55A2.77,2.77,0,0,0,308.08,311.51Z" />
      <path class="BUNTAI_GOAT_JEWELRY_BUNTAI_GOAT_JEWELRY_29_cls-18" d="M217.79,372.73l2.45.68s2.55-1.47,3.6.6.56,3.55-.8,4.2-3.38.08-3.76-1a5.07,5.07,0,0,0-2.36-.54s1,3.88,4.26,4.22a4.85,4.85,0,0,0,5.6-4.51,4.79,4.79,0,0,0-2.64-5A4.89,4.89,0,0,0,217.79,372.73Z" />
      <path class="BUNTAI_GOAT_JEWELRY_BUNTAI_GOAT_JEWELRY_29_cls-19" d="M216.8,376.48a5,5,0,0,0,4.46,4.48l.5,0a4.89,4.89,0,0,0,3.34-1.31,5.08,5.08,0,0,0,1.66-3.56,1.23,1.23,0,0,0,0-.27,5.26,5.26,0,0,0-1.13-3.26,5,5,0,0,0-3.89-1.88,4.93,4.93,0,0,0-4.07,2.17l2.48.68a2.64,2.64,0,0,1,1.59-.53,2.57,2.57,0,0,1,1.5.47,2.84,2.84,0,0,1,1,3.6,2.7,2.7,0,0,1-4.86.08h0Z" />
    </g>
  </g>
</svg>