<svg id="jewelry" xmlns="http://www.w3.org/2000/svg" viewBox="0 0 432 432">
  <defs>
    <style>.BUNTAI_GOAT_JEWELRY_BUNTAI_GOAT_JEWELRY_8_cls-1{fill:#ffc33e;stroke-width:1.6px;}.BUNTAI_GOAT_JEWELRY_BUNTAI_GOAT_JEWELRY_8_cls-1,.BUNTAI_GOAT_JEWELRY_BUNTAI_GOAT_JEWELRY_8_cls-2,.BUNTAI_GOAT_JEWELRY_BUNTAI_GOAT_JEWELRY_8_cls-3,.BUNTAI_GOAT_JEWELRY_BUNTAI_GOAT_JEWELRY_8_cls-5{stroke:#000;}.BUNTAI_GOAT_JEWELRY_BUNTAI_GOAT_JEWELRY_8_cls-1,.BUNTAI_GOAT_JEWELRY_BUNTAI_GOAT_JEWELRY_8_cls-5{stroke-linecap:round;stroke-linejoin:round;}.BUNTAI_GOAT_JEWELRY_BUNTAI_GOAT_JEWELRY_8_cls-2{fill:#fff;stroke-width:0.84px;}.BUNTAI_GOAT_JEWELRY_BUNTAI_GOAT_JEWELRY_8_cls-2,.BUNTAI_GOAT_JEWELRY_BUNTAI_GOAT_JEWELRY_8_cls-3{stroke-miterlimit:10;}.BUNTAI_GOAT_JEWELRY_BUNTAI_GOAT_JEWELRY_8_cls-3{fill:#754c24;stroke-width:0.82px;}.BUNTAI_GOAT_JEWELRY_BUNTAI_GOAT_JEWELRY_8_cls-4{fill:#333;}.BUNTAI_GOAT_JEWELRY_BUNTAI_GOAT_JEWELRY_8_cls-5{fill:none;stroke-width:0.62px;}</style>
  </defs>
  <circle class="BUNTAI_GOAT_JEWELRY_BUNTAI_GOAT_JEWELRY_8_cls-1" cx="152.49" cy="218.47" r="2.51" />
  <path class="BUNTAI_GOAT_JEWELRY_BUNTAI_GOAT_JEWELRY_8_cls-1" d="M152.49,221s-3.31,32.79-3.31,41.07,3.31,10.27,3.31,10.27,3.32-2,3.32-10.27S152.49,221,152.49,221Z" />
  <path class="BUNTAI_GOAT_JEWELRY_BUNTAI_GOAT_JEWELRY_8_cls-2" d="M188.56,394.84l1.46.51,3.16,1.06,1.1.36,1.46.48.32.1,1.07.34c.78.25,1.59.5,2.41.74l1.77.53,2.18.62.7.19.75.2,1.57.39.84.2,1,.21c.54-1.79,1.09-3.33,1.09-3.33l-1-.27h0l-.67-.18-.31-.09-1.83-.5-1.36-.38-1.85-.52-2.76-.77-1.11-.32-1.78-.54-.48-.15-.69-.21-1-.34-1.29-.42-.8-.26-1.16-.39-.08,0-1.76-.6a6.82,6.82,0,0,0-1.11,1.95A2.47,2.47,0,0,0,188.56,394.84Z" />
  <polyline class="BUNTAI_GOAT_JEWELRY_BUNTAI_GOAT_JEWELRY_8_cls-2" points="209.4 397.44 210.29 395.24 210.86 395.35 210.42 397.94 209.87 397.83 209.09 400.55 209.6 400.65 208.39 402.94 207.96 402.76 208.31 400.76" />
  <line class="BUNTAI_GOAT_JEWELRY_BUNTAI_GOAT_JEWELRY_8_cls-2" x1="211.36" y1="398.13" x2="210.42" y2="397.94" />
  <line class="BUNTAI_GOAT_JEWELRY_BUNTAI_GOAT_JEWELRY_8_cls-2" x1="210.61" y1="400.86" x2="209.6" y2="400.66" />
  <path class="BUNTAI_GOAT_JEWELRY_BUNTAI_GOAT_JEWELRY_8_cls-2" d="M208.42,397.17s-.72,2.1-1.07,3.39" />
  <path class="BUNTAI_GOAT_JEWELRY_BUNTAI_GOAT_JEWELRY_8_cls-2" d="M190,395.35a10.76,10.76,0,0,1,1.26-3.25" />
  <path class="BUNTAI_GOAT_JEWELRY_BUNTAI_GOAT_JEWELRY_8_cls-2" d="M190.63,395.55s.94-1.4,1.82-3.06" />
  <path class="BUNTAI_GOAT_JEWELRY_BUNTAI_GOAT_JEWELRY_8_cls-2" d="M193.25,392.75a6.13,6.13,0,0,1-1.09,3.32" />
  <path class="BUNTAI_GOAT_JEWELRY_BUNTAI_GOAT_JEWELRY_8_cls-2" d="M195.58,393.51a20.69,20.69,0,0,1-1.3,3.26" />
  <path class="BUNTAI_GOAT_JEWELRY_BUNTAI_GOAT_JEWELRY_8_cls-2" d="M194.54,393.17a5.49,5.49,0,0,1-1.36,3.24" />
  <path class="BUNTAI_GOAT_JEWELRY_BUNTAI_GOAT_JEWELRY_8_cls-2" d="M196.27,393.72a16.78,16.78,0,0,1-.14,3.2c0,.14,0,.29-.07.43" />
  <path class="BUNTAI_GOAT_JEWELRY_BUNTAI_GOAT_JEWELRY_8_cls-2" d="M195.74,397.25l.39-.33a16.69,16.69,0,0,0,2.4-2.51" />
  <path class="BUNTAI_GOAT_JEWELRY_BUNTAI_GOAT_JEWELRY_8_cls-2" d="M199.64,394.73c-.06.08-.13.17-.2.28a20.31,20.31,0,0,1-2.31,2.68" />
  <path class="BUNTAI_GOAT_JEWELRY_BUNTAI_GOAT_JEWELRY_8_cls-2" d="M199.44,395a5.13,5.13,0,0,1,.23,2.23,10.83,10.83,0,0,1-.13,1.19" />
  <path class="BUNTAI_GOAT_JEWELRY_BUNTAI_GOAT_JEWELRY_8_cls-2" d="M199.67,397.24a7.43,7.43,0,0,0,1.72-.94l.47-.35.54-.45" />
  <path class="BUNTAI_GOAT_JEWELRY_BUNTAI_GOAT_JEWELRY_8_cls-2" d="M201.39,396.3a7.56,7.56,0,0,1-.08,2.66" />
  <path class="BUNTAI_GOAT_JEWELRY_BUNTAI_GOAT_JEWELRY_8_cls-2" d="M204.25,396a7.3,7.3,0,0,1-.43,2.78,6.5,6.5,0,0,1-.33.78" />
  <path class="BUNTAI_GOAT_JEWELRY_BUNTAI_GOAT_JEWELRY_8_cls-2" d="M201.86,396a12.58,12.58,0,0,1,2,2.85" />
  <path class="BUNTAI_GOAT_JEWELRY_BUNTAI_GOAT_JEWELRY_8_cls-2" d="M207.75,397a11.2,11.2,0,0,1-1.24,3.37" />
  <path class="BUNTAI_GOAT_JEWELRY_BUNTAI_GOAT_JEWELRY_8_cls-2" d="M207.44,396.9a12,12,0,0,1-2.5,3.07" />
  <line class="BUNTAI_GOAT_JEWELRY_BUNTAI_GOAT_JEWELRY_8_cls-2" x1="204.19" y1="399.77" x2="205.61" y2="396.4" />
  <path class="BUNTAI_GOAT_JEWELRY_BUNTAI_GOAT_JEWELRY_8_cls-2" d="M260.28,401.79A42.24,42.24,0,0,1,245.67,405c-15.27,1-32.51-2.82-35.25-3.47l1.13-4.12c2.42.57,25.53,6.85,49.77,1.74C262.62,398.92,261.47,401.25,260.28,401.79Z" />
  <line class="BUNTAI_GOAT_JEWELRY_BUNTAI_GOAT_JEWELRY_8_cls-2" x1="211.55" y1="397.45" x2="210.42" y2="401.57" />
  <path class="BUNTAI_GOAT_JEWELRY_BUNTAI_GOAT_JEWELRY_8_cls-3" d="M222.56,394.24a1.24,1.24,0,0,1-.33,0c-40.07-8.46-60-32.86-69.59-51.84-10.4-20.5-12.82-44.37-12.83-44.56a3.33,3.33,0,0,1,1.31-2.38c1.27-.65,1.91-.64,3.38.85-.73.79-1.22,1.38-1.83,2.17,0,.19,2.36,22.92,12.57,43,9.35,18.38,28.6,42,67.24,50.3,40.79-12.64,59.45-36.45,67.93-54.23,9.21-19.33,8.8-34.58,8.72-34.73-.5-.74-.95-1.56-1.47-2.19a3,3,0,0,1,2.84-.78c1.3.22,1.4,2.22,1.43,2.89s.51,15.93-8.94,35.75c-8.72,18.29-27.94,42.81-70,55.71A1.77,1.77,0,0,1,222.56,394.24Z" />
  <path class="BUNTAI_GOAT_JEWELRY_BUNTAI_GOAT_JEWELRY_8_cls-4" d="M219.31,390.91l1.9.45s2-1,2.78.39.43,2.34-.62,2.76-2.61.05-2.91-.69a4.44,4.44,0,0,0-1.82-.36,4,4,0,0,0,3.29,2.77c2.53.22,4.08-1.14,4.33-3a3.1,3.1,0,0,0-2-3.29A4.28,4.28,0,0,0,219.31,390.91Z" />
  <path class="BUNTAI_GOAT_JEWELRY_BUNTAI_GOAT_JEWELRY_8_cls-5" d="M218.55,393.37a3.63,3.63,0,0,0,3.45,2.94,2.42,2.42,0,0,0,.38,0,4.18,4.18,0,0,0,2.59-.86,3.16,3.16,0,0,0,1.28-2.33,1.09,1.09,0,0,0,0-.18,3.14,3.14,0,0,0-.87-2.14,4.17,4.17,0,0,0-3-1.23,4,4,0,0,0-3.15,1.42l1.92.45a2.27,2.27,0,0,1,1.23-.35,2.24,2.24,0,0,1,1.17.31,1.78,1.78,0,0,1,1,1.54,1.6,1.6,0,0,1-.24.82,2.14,2.14,0,0,1-1.89,1,2.17,2.17,0,0,1-1.86-1h0Z" />
</svg>