<svg xmlns="http://www.w3.org/2000/svg" viewBox="0 0 432 432">
  <defs>
    <style>.BUNTAI_GOAT_JEWELRY_BUNTAI_GOAT_JEWELRY_21_cls-1{isolation:isolate;}.BUNTAI_GOAT_JEWELRY_BUNTAI_GOAT_JEWELRY_21_cls-2{fill:#c7a858;}.BUNTAI_GOAT_JEWELRY_BUNTAI_GOAT_JEWELRY_21_cls-12,.BUNTAI_GOAT_JEWELRY_BUNTAI_GOAT_JEWELRY_21_cls-14,.BUNTAI_GOAT_JEWELRY_BUNTAI_GOAT_JEWELRY_21_cls-3{fill:none;stroke:#000;stroke-linecap:round;stroke-linejoin:round;}.BUNTAI_GOAT_JEWELRY_BUNTAI_GOAT_JEWELRY_21_cls-3{stroke-width:0.86px;}.BUNTAI_GOAT_JEWELRY_BUNTAI_GOAT_JEWELRY_21_cls-4{fill:#87e04a;}.BUNTAI_GOAT_JEWELRY_BUNTAI_GOAT_JEWELRY_21_cls-5{fill:#f4f4f2;}.BUNTAI_GOAT_JEWELRY_BUNTAI_GOAT_JEWELRY_21_cls-6{fill:#184098;}.BUNTAI_GOAT_JEWELRY_BUNTAI_GOAT_JEWELRY_21_cls-7{fill:#2dbcd5;}.BUNTAI_GOAT_JEWELRY_BUNTAI_GOAT_JEWELRY_21_cls-8{fill:#e1a04c;}.BUNTAI_GOAT_JEWELRY_BUNTAI_GOAT_JEWELRY_21_cls-9{fill:#a64e42;}.BUNTAI_GOAT_JEWELRY_BUNTAI_GOAT_JEWELRY_21_cls-10{fill:#ccc;}.BUNTAI_GOAT_JEWELRY_BUNTAI_GOAT_JEWELRY_21_cls-11{fill:#e7ff87;}.BUNTAI_GOAT_JEWELRY_BUNTAI_GOAT_JEWELRY_21_cls-12{stroke-width:0.9px;}.BUNTAI_GOAT_JEWELRY_BUNTAI_GOAT_JEWELRY_21_cls-13{opacity:0.43;mix-blend-mode:multiply;}.BUNTAI_GOAT_JEWELRY_BUNTAI_GOAT_JEWELRY_21_cls-14{stroke-width:0.8px;}</style>
  </defs>
  <g class="BUNTAI_GOAT_JEWELRY_BUNTAI_GOAT_JEWELRY_21_cls-1">
    <g id="jewelry">
      <path class="BUNTAI_GOAT_JEWELRY_BUNTAI_GOAT_JEWELRY_21_cls-2" d="M298.57,227.26c-1.66,0-1.39-2.27-1.39-2.27h0a4.51,4.51,0,0,0,2,.44,2,2,0,0,0,.92-.23C300.14,225.32,300.17,227.26,298.57,227.26Z" />
      <path class="BUNTAI_GOAT_JEWELRY_BUNTAI_GOAT_JEWELRY_21_cls-2" d="M301.43,218.31c.61,2,.48,5.9-1.29,6.88a2,2,0,0,1-.92.23,4.51,4.51,0,0,1-2-.44c-1.52-.73-2.29-2.46-2.19-5.08a8.65,8.65,0,0,1,.47-2.56A5.53,5.53,0,0,1,297,215a1.85,1.85,0,0,1,1.36-.56,2.3,2.3,0,0,1,1.65,1,3.46,3.46,0,0,1-.74.14h0a4.22,4.22,0,0,0-1.86,2.87c-.47,2.22.31,4.72,1.44,4.72s1.26-2.9,1.19-4.44l.09,0A5.14,5.14,0,0,0,301.43,218.31Z" />
      <path class="BUNTAI_GOAT_JEWELRY_BUNTAI_GOAT_JEWELRY_21_cls-2" d="M297,215a5.42,5.42,0,0,0-1.48,2.3,6,6,0,0,1-1.29-7.66c.65.34,1.55.8,2.37,1.19a3.06,3.06,0,0,0-.33,3.35A2.31,2.31,0,0,0,297,215Z" />
      <path class="BUNTAI_GOAT_JEWELRY_BUNTAI_GOAT_JEWELRY_21_cls-2" d="M304.1,214.72a4.81,4.81,0,0,1-2.67,3.59,5.14,5.14,0,0,1-1.39.42l-.1,0a5.14,5.14,0,0,1-2.62-.28,4.22,4.22,0,0,1,1.86-2.87h0a3.59,3.59,0,0,0,.74-.14,2.19,2.19,0,0,0,1.54-1.34,1.81,1.81,0,0,0,.09-.58c0-2.36-.93-2.48-.93-2.48s-.05-.12-.11-.32a3,3,0,0,1,2.36-2A8.11,8.11,0,0,1,304.1,214.72Z" />
      <path class="BUNTAI_GOAT_JEWELRY_BUNTAI_GOAT_JEWELRY_21_cls-3" d="M295.47,217.34a6,6,0,0,1-1.29-7.66l2.37,1.19a3.06,3.06,0,0,0-.33,3.35,2.31,2.31,0,0,0,.73.82" />
      <path class="BUNTAI_GOAT_JEWELRY_BUNTAI_GOAT_JEWELRY_21_cls-3" d="M297.32,218.47a5.14,5.14,0,0,0,2.62.28l.1,0a5.14,5.14,0,0,0,1.39-.42,4.81,4.81,0,0,0,2.67-3.59,8.11,8.11,0,0,0-1.19-6" />
      <path class="BUNTAI_GOAT_JEWELRY_BUNTAI_GOAT_JEWELRY_21_cls-3" d="M300.55,210.73c.06.2.11.32.11.32s.9.12.93,2.48a1.81,1.81,0,0,1-.09.58,2.19,2.19,0,0,1-1.54,1.34,3.59,3.59,0,0,1-.74.14" />
      <path class="BUNTAI_GOAT_JEWELRY_BUNTAI_GOAT_JEWELRY_21_cls-3" d="M301.43,218.31c.61,2,.48,5.9-1.29,6.88a2,2,0,0,1-.92.23,4.51,4.51,0,0,1-2-.44c-1.52-.73-2.29-2.46-2.19-5.08a8.65,8.65,0,0,1,.47-2.56A5.53,5.53,0,0,1,297,215a1.85,1.85,0,0,1,1.36-.56,2.3,2.3,0,0,1,1.65,1" />
      <path class="BUNTAI_GOAT_JEWELRY_BUNTAI_GOAT_JEWELRY_21_cls-3" d="M300,218.75c.07,1.54.06,4.44-1.19,4.44s-1.91-2.5-1.44-4.72a4.22,4.22,0,0,1,1.86-2.87h0" />
      <path class="BUNTAI_GOAT_JEWELRY_BUNTAI_GOAT_JEWELRY_21_cls-3" d="M297.18,225s-.27,2.27,1.39,2.27,1.57-1.94,1.57-2.07h0" />
      <path class="BUNTAI_GOAT_JEWELRY_BUNTAI_GOAT_JEWELRY_21_cls-3" d="M300.73,213.16a2.93,2.93,0,0,1-.35-1.42,3.1,3.1,0,0,1,.17-1,3,3,0,0,1,2.36-2,3,3,0,0,1,.52,0,2.06,2.06,0,0,1,2.06,1.53" />
      <path class="BUNTAI_GOAT_JEWELRY_BUNTAI_GOAT_JEWELRY_21_cls-4" d="M302.53,281.81c1.91.86,3.41,4.24,3.41,4.24s-3.52,1.12-5.43.26c-1.52-.67-2.37-2.75-2.66-3.59v0l-.07-.36C298.16,282.17,300.76,281,302.53,281.81Z" />
      <path class="BUNTAI_GOAT_JEWELRY_BUNTAI_GOAT_JEWELRY_21_cls-5" d="M297.45,277.32s-.71,3.14-2.58,4.09-5.45,0-5.45,0,1.35-3.45,3.21-4.4S297.45,277.32,297.45,277.32Z" />
      <path class="BUNTAI_GOAT_JEWELRY_BUNTAI_GOAT_JEWELRY_21_cls-6" d="M307.63,269.77c1.87,1.35,2.73,5.32,2.73,5.32s-4,.43-5.9-.92-2.11-4.86-2.11-4.86S305.76,268.43,307.63,269.77Z" />
      <path class="BUNTAI_GOAT_JEWELRY_BUNTAI_GOAT_JEWELRY_21_cls-7" d="M303.37,261.06a.13.13,0,0,0,0,.06h0c-.21.79-1,3.38-2.77,4.26-2.06,1-6,0-6,0s1.46-3.78,3.51-4.83,5,.24,5.27.35h0A1.1,1.1,0,0,1,303.37,261.06Z" />
      <path class="BUNTAI_GOAT_JEWELRY_BUNTAI_GOAT_JEWELRY_21_cls-8" d="M310.69,249.31c2.66,1,5,5.35,5,5.35s-4.62,1.87-7.27.91a6.94,6.94,0,0,1-3.23-3.17h0a6.66,6.66,0,0,0-.51-1.22c-.11-.21-.23-.42-.33-.65C304.79,250.27,308.21,248.41,310.69,249.31Z" />
      <path class="BUNTAI_GOAT_JEWELRY_BUNTAI_GOAT_JEWELRY_21_cls-9" d="M299.05,242.33a.06.06,0,0,0,0,0c.18.62.39,1.29.62,2,0,0,0,0,0,0a6.79,6.79,0,0,1-.2,4.38c-1.26,2.52-5.89,4.35-5.89,4.35s-1.32-4.8-.05-7.33,5.47-3.5,5.47-3.5l0,0Z" />
      <path class="BUNTAI_GOAT_JEWELRY_BUNTAI_GOAT_JEWELRY_21_cls-10" d="M305.2,252.4C307,258.21,302.88,269,299,276a9.74,9.74,0,0,0-1.19,6.39l0,0a3.26,3.26,0,0,0,.11.33v0a15.24,15.24,0,0,0,6.49,9.34c-2.92-1.57-9.91-8.81-6.18-16.11a57.78,57.78,0,0,0,5.2-14.82h0c0-.13.06-.22.06-.22h0c.68-3.88.61-7.41-.76-9.73a37.44,37.44,0,0,1-2.95-6.8s0,0,0,0a12.17,12.17,0,0,0-.62-2,.06.06,0,0,1,0,0h0c-.51-1.66-.88-3.13-1.1-4.1a3.1,3.1,0,0,0,.92.13,3.07,3.07,0,0,0,1.7-.51c.4,2.21,1.63,8.33,3.78,12.67a0,0,0,0,0,0,0l-.05,0a13,13,0,0,0,.89,1.85Z" />
      <path class="BUNTAI_GOAT_JEWELRY_BUNTAI_GOAT_JEWELRY_21_cls-11" d="M301.94,234.94a.88.88,0,0,0,0-.17.13.13,0,0,0,0-.06c0-.08,0-.14-.05-.21a2.76,2.76,0,0,0-.08-.27,2.6,2.6,0,0,0-.1-.25,1.34,1.34,0,0,0-.12-.24,1.58,1.58,0,0,0-.15-.24,3.34,3.34,0,0,0-.81-.81l-.25-.15a3.09,3.09,0,0,0-4.57,2.71,2.83,2.83,0,0,0,0,.41v0h0c0,.12,0,.24.07.35s0,.12.05.17a2.52,2.52,0,0,0,.13.33,3.18,3.18,0,0,0,.41.66,1.51,1.51,0,0,0,.21.23.26.26,0,0,0,.09.09,1,1,0,0,0,.19.16h0a1.3,1.3,0,0,0,.2.15.05.05,0,0,0,0,0,1.69,1.69,0,0,0,.29.17,2.25,2.25,0,0,0,.45.19,1.27,1.27,0,0,0,.28.06l.25.05.39,0a2.6,2.6,0,0,0,.4,0l.2,0,.21,0a1.14,1.14,0,0,0,.26-.09.29.29,0,0,0,.13-.05,2.44,2.44,0,0,0,.28-.14.94.94,0,0,0,.22-.12,3,3,0,0,0,.57-.49,3.26,3.26,0,0,0,.43-.6,3,3,0,0,0,.39-1.48v0A3,3,0,0,0,301.94,234.94Zm-3.07-1.38a1.7,1.7,0,1,1-1.7,1.69A1.7,1.7,0,0,1,298.87,233.56Z" />
      <path class="BUNTAI_GOAT_JEWELRY_BUNTAI_GOAT_JEWELRY_21_cls-12" d="M299.68,244.35a12.17,12.17,0,0,0-.62-2" />
      <path class="BUNTAI_GOAT_JEWELRY_BUNTAI_GOAT_JEWELRY_21_cls-12" d="M299.05,242.32l0,0s-4.21,1-5.47,3.5.05,7.33.05,7.33,4.63-1.83,5.89-4.35a6.79,6.79,0,0,0,.2-4.38" />
      <path class="BUNTAI_GOAT_JEWELRY_BUNTAI_GOAT_JEWELRY_21_cls-12" d="M303.4,260.9c-.25-.11-3.31-1.34-5.27-.35s-3.51,4.83-3.51,4.83,3.91,1.05,6,0c1.73-.88,2.56-3.47,2.77-4.26" />
      <path class="BUNTAI_GOAT_JEWELRY_BUNTAI_GOAT_JEWELRY_21_cls-12" d="M303.36,261.12c0-.13.06-.22.06-.22h0" />
      <path class="BUNTAI_GOAT_JEWELRY_BUNTAI_GOAT_JEWELRY_21_cls-12" d="M297.45,277.32s-2.95-1.26-4.82-.31-3.21,4.4-3.21,4.4,3.58.95,5.45,0S297.45,277.32,297.45,277.32Z" />
      <path class="BUNTAI_GOAT_JEWELRY_BUNTAI_GOAT_JEWELRY_21_cls-12" d="M297.85,282.72c.29.84,1.14,2.92,2.66,3.59,1.91.86,5.43-.26,5.43-.26s-1.5-3.38-3.41-4.24-4.37.36-4.75.53l0,0a3.26,3.26,0,0,0,.11.33" />
      <path class="BUNTAI_GOAT_JEWELRY_BUNTAI_GOAT_JEWELRY_21_cls-12" d="M302.35,269.31s.25,3.52,2.11,4.86,5.9.92,5.9.92-.86-4-2.73-5.32S302.35,269.31,302.35,269.31Z" />
      <path class="BUNTAI_GOAT_JEWELRY_BUNTAI_GOAT_JEWELRY_21_cls-12" d="M305.2,252.4a6.94,6.94,0,0,0,3.23,3.17c2.65,1,7.27-.91,7.27-.91s-2.35-4.39-5-5.35c-2.48-.9-5.9,1-6.33,1.21l-.05,0a13,13,0,0,0,.89,1.85" />
      <path class="BUNTAI_GOAT_JEWELRY_BUNTAI_GOAT_JEWELRY_21_cls-12" d="M304.34,292.06c-2.92-1.57-9.91-8.81-6.18-16.11a57.78,57.78,0,0,0,5.2-14.82h0a.13.13,0,0,1,0-.06,1.1,1.1,0,0,0,0-.16h0c.68-3.88.61-7.41-.76-9.73a37.44,37.44,0,0,1-2.95-6.8s0,0,0,0c-.23-.69-.44-1.36-.62-2a.06.06,0,0,1,0,0h0c-.51-1.66-.88-3.13-1.1-4.1h0" />
      <path class="BUNTAI_GOAT_JEWELRY_BUNTAI_GOAT_JEWELRY_21_cls-12" d="M302.49,295.35c-2.52,1.46,2.32,2.63,1.92,0-2.32-5-8,3.63-1.36,4,3.91,0,4.28-5.87,1.5-7.17" />
      <path class="BUNTAI_GOAT_JEWELRY_BUNTAI_GOAT_JEWELRY_21_cls-12" d="M304.55,292.16a1,1,0,0,0-.21-.1,15.24,15.24,0,0,1-6.49-9.34v0l-.07-.36A9.74,9.74,0,0,1,299,276c3.91-7,8-17.74,6.23-23.55h0a6.66,6.66,0,0,0-.51-1.22c-.11-.21-.23-.42-.33-.65a0,0,0,0,1,0,0c-2.15-4.34-3.38-10.46-3.78-12.67" />
      <path class="BUNTAI_GOAT_JEWELRY_BUNTAI_GOAT_JEWELRY_21_cls-12" d="M298,238.22a3.1,3.1,0,1,1,2.62-.38,3.07,3.07,0,0,1-1.7.51A3.1,3.1,0,0,1,298,238.22Z" />
      <path class="BUNTAI_GOAT_JEWELRY_BUNTAI_GOAT_JEWELRY_21_cls-12" d="M300.57,235.25a1.71,1.71,0,1,1-1.7-1.69A1.7,1.7,0,0,1,300.57,235.25Z" />
      <g class="BUNTAI_GOAT_JEWELRY_BUNTAI_GOAT_JEWELRY_21_cls-13">
        <path d="M295.78,235.63s1,2.19,2.45,2.65c.57,3.22.79,4,.79,4a26.17,26.17,0,0,1-2.83,6.53,21.33,21.33,0,0,0-2.28,4.17s5.82-2.52,6.41-6.82c1.33,3.15,3.52,5.62,3.45,9.09a51.58,51.58,0,0,1-.35,5.57,13.53,13.53,0,0,1-4.55,2.91c-2.61.92-4.2,1.53-4.2,1.53a4.73,4.73,0,0,0,4.61.52,8.68,8.68,0,0,0,3.64-2.55s-2.11,9.68-3.68,12.25a15.76,15.76,0,0,1-1.92,1.8s-5.23,3.53-8.13,4c2.64.79,6.87.18,8.26-2.46.23,2.54-.66,10.08,8.42,7.08a68.77,68.77,0,0,1-7.46-3.83s-1.59-1.65-.15-4.58c3.22-5.91,4.16-7.61,4.16-7.61s-.8,6.11,7.75,5.22c-3.77-2.51-7.15-4.58-7.55-6.07,1.5-4.65,3.16-7,3-11.33l-.18-4.36s2,4.14,10.11,1c-6.55-2.15-9.4-2.34-11.23-3.93-1.82-4.72-4.1-11.84-4-12.47s1.82-1.64,1.62-3.26C300.38,237,299.16,238.88,295.78,235.63Z" />
      </g>
      <line class="BUNTAI_GOAT_JEWELRY_BUNTAI_GOAT_JEWELRY_21_cls-14" x1="298.82" y1="231.94" x2="298.82" y2="227.26" />
    </g>
  </g>
</svg>