<svg id="jewelry" xmlns="http://www.w3.org/2000/svg" viewBox="0 0 432 432">
  <defs>
    <style>.BUNTAI_GOAT_JEWELRY_BUNTAI_GOAT_JEWELRY_9_cls-1{fill:#c7a858;}.BUNTAI_GOAT_JEWELRY_BUNTAI_GOAT_JEWELRY_9_cls-2{fill:#fff;}.BUNTAI_GOAT_JEWELRY_BUNTAI_GOAT_JEWELRY_9_cls-3{fill:#c74c58;}.BUNTAI_GOAT_JEWELRY_BUNTAI_GOAT_JEWELRY_9_cls-4,.BUNTAI_GOAT_JEWELRY_BUNTAI_GOAT_JEWELRY_9_cls-5{fill:none;stroke:#000;}.BUNTAI_GOAT_JEWELRY_BUNTAI_GOAT_JEWELRY_9_cls-4{stroke-linecap:round;stroke-linejoin:round;stroke-width:0.85px;}.BUNTAI_GOAT_JEWELRY_BUNTAI_GOAT_JEWELRY_9_cls-5{stroke-miterlimit:10;stroke-width:0.69px;}</style>
  </defs>
  <path class="BUNTAI_GOAT_JEWELRY_BUNTAI_GOAT_JEWELRY_9_cls-1" d="M154.17,261.09a1.37,1.37,0,1,1,0,2.74h-7.46v-.42a1.37,1.37,0,0,0,1.37-1.37v-1Z" />
  <path class="BUNTAI_GOAT_JEWELRY_BUNTAI_GOAT_JEWELRY_9_cls-1" d="M152,215.77c2.68,2.57,3.85,10.89-1.49,13.34a7.23,7.23,0,0,1-1.86.56l-.13,0a6.9,6.9,0,0,1-3.51-.37,5.66,5.66,0,0,1,2.49-3.84h.06a4.59,4.59,0,0,0,1-.19,2.72,2.72,0,0,0,2.19-2.56c0-3.16-1.25-3.32-1.25-3.32S147.75,215.33,152,215.77Z" />
  <path class="BUNTAI_GOAT_JEWELRY_BUNTAI_GOAT_JEWELRY_9_cls-1" d="M148.8,238.3a2.56,2.56,0,0,1-1.22.3,6.1,6.1,0,0,1-2.73-.57c-2-1-3.07-3.29-2.93-6.8a11.39,11.39,0,0,1,.63-3.42,7.3,7.3,0,0,1,2-3.08,2.58,2.58,0,0,1,1.82-.75,3.09,3.09,0,0,1,2.21,1.3,4.59,4.59,0,0,1-1,.19h-.06a5.66,5.66,0,0,0-2.49,3.84c-.62,3,.42,6.31,1.92,6.31,1.68,0,1.7-3.88,1.59-5.94l.13,0a7.23,7.23,0,0,0,1.86-.56C151.34,231.82,151.17,237,148.8,238.3Z" />
  <polygon class="BUNTAI_GOAT_JEWELRY_BUNTAI_GOAT_JEWELRY_9_cls-2" points="146.71 263.83 149.45 263.83 149.45 288.2 146.71 295.06 143.96 288.2 143.96 263.83 146.71 263.83" />
  <path class="BUNTAI_GOAT_JEWELRY_BUNTAI_GOAT_JEWELRY_9_cls-1" d="M148.8,238.3c0,.19,0,2.77-2.09,2.77s-1.86-3-1.86-3h0a6.1,6.1,0,0,0,2.73.57A2.56,2.56,0,0,0,148.8,238.3Z" />
  <path class="BUNTAI_GOAT_JEWELRY_BUNTAI_GOAT_JEWELRY_9_cls-3" d="M146.71,249.28a1.37,1.37,0,0,1,1.37,1.37V262a1.38,1.38,0,0,1-2.75,0V250.65A1.37,1.37,0,0,1,146.71,249.28Z" />
  <path class="BUNTAI_GOAT_JEWELRY_BUNTAI_GOAT_JEWELRY_9_cls-1" d="M146.71,263.41v.42h-7.47a1.37,1.37,0,0,1,0-2.74h6.09v1A1.37,1.37,0,0,0,146.71,263.41Z" />
  <path class="BUNTAI_GOAT_JEWELRY_BUNTAI_GOAT_JEWELRY_9_cls-1" d="M144.53,224.73a7.34,7.34,0,0,0-2,3.08,8.23,8.23,0,0,1-2.64-8.16,21.83,21.83,0,0,0,3.35,1,3.76,3.76,0,0,0,.3,3A3,3,0,0,0,144.53,224.73Z" />
  <path class="BUNTAI_GOAT_JEWELRY_BUNTAI_GOAT_JEWELRY_9_cls-4" d="M142.54,227.81a8.23,8.23,0,0,1-2.64-8.16l3.35,1a3.76,3.76,0,0,0,.3,3,3,3,0,0,0,1,1.09" />
  <path class="BUNTAI_GOAT_JEWELRY_BUNTAI_GOAT_JEWELRY_9_cls-4" d="M147.58,225.47a4.59,4.59,0,0,0,1-.19,2.72,2.72,0,0,0,2.19-2.56c0-3.16-1.25-3.32-1.25-3.32s-1.75-4.07,2.52-3.63c2.68,2.57,3.85,10.89-1.49,13.34a7.23,7.23,0,0,1-1.86.56l-.13,0a6.9,6.9,0,0,1-3.51-.37" />
  <path class="BUNTAI_GOAT_JEWELRY_BUNTAI_GOAT_JEWELRY_9_cls-4" d="M150.53,229.11c.81,2.71.64,7.89-1.73,9.19a2.56,2.56,0,0,1-1.22.3,6.1,6.1,0,0,1-2.73-.57c-2-1-3.07-3.29-2.93-6.8a11.39,11.39,0,0,1,.63-3.42,7.3,7.3,0,0,1,2-3.08,2.58,2.58,0,0,1,1.82-.75,3.09,3.09,0,0,1,2.21,1.3" />
  <path class="BUNTAI_GOAT_JEWELRY_BUNTAI_GOAT_JEWELRY_9_cls-4" d="M148.54,229.69c.11,2.06.09,5.94-1.59,5.94-1.5,0-2.54-3.34-1.92-6.31a5.66,5.66,0,0,1,2.49-3.84h.06" />
  <path class="BUNTAI_GOAT_JEWELRY_BUNTAI_GOAT_JEWELRY_9_cls-4" d="M144.85,238s-.37,3,1.86,3,2.1-2.58,2.09-2.77h0" />
  <polyline class="BUNTAI_GOAT_JEWELRY_BUNTAI_GOAT_JEWELRY_9_cls-4" points="146.71 241.07 146.71 249.28 146.71 249.53" />
  <path class="BUNTAI_GOAT_JEWELRY_BUNTAI_GOAT_JEWELRY_9_cls-5" d="M146.71,263.41a1.37,1.37,0,0,1-1.38-1.37V250.65a1.38,1.38,0,0,1,2.75,0V262A1.37,1.37,0,0,1,146.71,263.41Z" />
  <polyline class="BUNTAI_GOAT_JEWELRY_BUNTAI_GOAT_JEWELRY_9_cls-5" points="149.45 263.83 149.45 288.2 146.71 295.06 143.96 288.2 143.96 263.83" />
  <path class="BUNTAI_GOAT_JEWELRY_BUNTAI_GOAT_JEWELRY_9_cls-5" d="M145.33,261.09h-6.09a1.37,1.37,0,0,0,0,2.74h14.93a1.37,1.37,0,1,0,0-2.74h-6.09" />
  <polyline class="BUNTAI_GOAT_JEWELRY_BUNTAI_GOAT_JEWELRY_9_cls-5" points="146.71 263.41 146.71 263.83 146.71 287.65" />
  <path class="BUNTAI_GOAT_JEWELRY_BUNTAI_GOAT_JEWELRY_9_cls-4" d="M149.49,221.14s-3.14-7.57,5.36-4.77" />
</svg>