<svg id="jewelry" xmlns="http://www.w3.org/2000/svg" viewBox="0 0 432 432">
  <defs>
    <style>.BUNTAI_GOAT_JEWELRY_BUNTAI_GOAT_JEWELRY_2_cls-1{fill:#e2d93c;stroke-width:2px;}.BUNTAI_GOAT_JEWELRY_BUNTAI_GOAT_JEWELRY_2_cls-1,.BUNTAI_GOAT_JEWELRY_BUNTAI_GOAT_JEWELRY_2_cls-10,.BUNTAI_GOAT_JEWELRY_BUNTAI_GOAT_JEWELRY_2_cls-3,.BUNTAI_GOAT_JEWELRY_BUNTAI_GOAT_JEWELRY_2_cls-4,.BUNTAI_GOAT_JEWELRY_BUNTAI_GOAT_JEWELRY_2_cls-9{stroke:#000;}.BUNTAI_GOAT_JEWELRY_BUNTAI_GOAT_JEWELRY_2_cls-1,.BUNTAI_GOAT_JEWELRY_BUNTAI_GOAT_JEWELRY_2_cls-10,.BUNTAI_GOAT_JEWELRY_BUNTAI_GOAT_JEWELRY_2_cls-4{stroke-miterlimit:10;}.BUNTAI_GOAT_JEWELRY_BUNTAI_GOAT_JEWELRY_2_cls-2{fill:#e2cb6e;}.BUNTAI_GOAT_JEWELRY_BUNTAI_GOAT_JEWELRY_2_cls-10,.BUNTAI_GOAT_JEWELRY_BUNTAI_GOAT_JEWELRY_2_cls-3,.BUNTAI_GOAT_JEWELRY_BUNTAI_GOAT_JEWELRY_2_cls-9{fill:none;}.BUNTAI_GOAT_JEWELRY_BUNTAI_GOAT_JEWELRY_2_cls-3,.BUNTAI_GOAT_JEWELRY_BUNTAI_GOAT_JEWELRY_2_cls-9{stroke-linecap:round;stroke-linejoin:round;}.BUNTAI_GOAT_JEWELRY_BUNTAI_GOAT_JEWELRY_2_cls-3{stroke-width:1.59px;}.BUNTAI_GOAT_JEWELRY_BUNTAI_GOAT_JEWELRY_2_cls-4{fill:#754c24;stroke-width:1.22px;}.BUNTAI_GOAT_JEWELRY_BUNTAI_GOAT_JEWELRY_2_cls-5{fill:#4d4d4d;}.BUNTAI_GOAT_JEWELRY_BUNTAI_GOAT_JEWELRY_2_cls-6{fill:#333;}.BUNTAI_GOAT_JEWELRY_BUNTAI_GOAT_JEWELRY_2_cls-7{fill:#8c6239;}.BUNTAI_GOAT_JEWELRY_BUNTAI_GOAT_JEWELRY_2_cls-8{fill:#006837;}.BUNTAI_GOAT_JEWELRY_BUNTAI_GOAT_JEWELRY_2_cls-10,.BUNTAI_GOAT_JEWELRY_BUNTAI_GOAT_JEWELRY_2_cls-9{stroke-width:0.64px;}</style>
  </defs>
  <circle class="BUNTAI_GOAT_JEWELRY_BUNTAI_GOAT_JEWELRY_2_cls-1" cx="243.17" cy="222.53" r="2.6" />
  <circle class="BUNTAI_GOAT_JEWELRY_BUNTAI_GOAT_JEWELRY_2_cls-1" cx="261.27" cy="222.53" r="2.6" />
  <path class="BUNTAI_GOAT_JEWELRY_BUNTAI_GOAT_JEWELRY_2_cls-2" d="M252.5,267.74a12,12,0,0,1-9.76-19.06.58.58,0,0,1,.45-.24h0a.55.55,0,0,1,.44.23,22.94,22.94,0,0,1,2.12,3.18,1.75,1.75,0,0,0,.18.29.59.59,0,0,1,.05.56,6.91,6.91,0,0,0-.68,3,7.19,7.19,0,0,0,14.38,0,6.79,6.79,0,0,0-.39-2.31.59.59,0,0,1,.12-.58,10.61,10.61,0,0,0,2.22-3.5.54.54,0,0,1,.46-.36h.06a.56.56,0,0,1,.47.26,12,12,0,0,1-10.13,18.52Z" />
  <path d="M243.2,249a24,24,0,0,1,2.06,3.11,3.37,3.37,0,0,0,.22.35,7.51,7.51,0,0,0-.72,3.25,7.75,7.75,0,0,0,15.49,0,7.46,7.46,0,0,0-.42-2.5,11.5,11.5,0,0,0,2.33-3.69,11.47,11.47,0,1,1-19-.52m0-1.11h0a1.1,1.1,0,0,0-.89.46,12.59,12.59,0,1,0,20.81.56,1.12,1.12,0,0,0-.94-.51H262a1.1,1.1,0,0,0-.92.71,10.22,10.22,0,0,1-2.1,3.32,1.11,1.11,0,0,0-.24,1.15,6.41,6.41,0,0,1,.35,2.12,6.63,6.63,0,1,1-13.26,0,6.38,6.38,0,0,1,.62-2.77,1.12,1.12,0,0,0-.09-1.12,1.28,1.28,0,0,1-.14-.21,23.74,23.74,0,0,0-2.17-3.28,1.11,1.11,0,0,0-.89-.44Z" />
  <path class="BUNTAI_GOAT_JEWELRY_BUNTAI_GOAT_JEWELRY_2_cls-3" d="M262.16,249.52a11.5,11.5,0,0,1-2.33,3.69,7.46,7.46,0,0,1,.42,2.5,7.75,7.75,0,0,1-15.49,0,7.51,7.51,0,0,1,.72-3.25,3.37,3.37,0,0,1-.22-.35A24,24,0,0,0,243.2,249a11.48,11.48,0,1,0,19,.52Z" />
  <path class="BUNTAI_GOAT_JEWELRY_BUNTAI_GOAT_JEWELRY_2_cls-4" d="M302.29,298.76a3,3,0,0,0-4.54.76l1.28,1.77c-6.84,16-30.77,36.19-78.24,49.81-50.19-13.61-76-46.59-80-52.3l2.4-1.5s-1.78-3.21-5.43-1.1a2.84,2.84,0,0,0-.55,3.37l.52.77h0S168,340.7,220.31,354.68a2.07,2.07,0,0,0,.5.06,1.93,1.93,0,0,0,.53-.07C271.62,340.36,296.7,318,303.17,301A2.14,2.14,0,0,0,302.29,298.76Z" />
  <path class="BUNTAI_GOAT_JEWELRY_BUNTAI_GOAT_JEWELRY_2_cls-5" d="M227.91,374.92c1.82,1.58,3.2,9.32-3.92,10.31s-10.84-6.49-6.66-12.85c4-6.15,11.88-3.37,12.37-3.19-3.28-.85-7.9-.72-11.15,4.1-4.67,6.94,4.36,11.55,6.92,8s-.62-7.2-4.76-7.68C222.8,372.32,226.09,373.33,227.91,374.92Z" />
  <path class="BUNTAI_GOAT_JEWELRY_BUNTAI_GOAT_JEWELRY_2_cls-6" d="M236,377.29c-.5-5.4-8.59-11-15.33-3.69,2.09-1.28,5.38-.27,7.2,1.32s3.2,9.32-3.92,10.31-10.84-6.49-6.66-12.85c4-6.15,11.88-3.37,12.37-3.19h0a12.05,12.05,0,0,1,3.3,1.37s-.8-6.44-10.69-7.1q-.81-.06-1.71-.06H220c-11.06.42-15.25,12.42-12.07,20s12.44,10.45,19.14,8.35S236.53,382.69,236,377.29Z" />
  <path class="BUNTAI_GOAT_JEWELRY_BUNTAI_GOAT_JEWELRY_2_cls-7" d="M222.33,357v6.5q-.81-.06-1.71-.06H220V357a.71.71,0,0,1,0-.2,3.24,3.24,0,0,0,1.13.2,3.54,3.54,0,0,0,1.14-.19A1.23,1.23,0,0,1,222.33,357Z" />
  <path class="BUNTAI_GOAT_JEWELRY_BUNTAI_GOAT_JEWELRY_2_cls-8" d="M221.17,350.58a3.19,3.19,0,0,1,1.14,6.2,3.54,3.54,0,0,1-1.14.19,3.24,3.24,0,0,1-1.13-.2,3.2,3.2,0,0,1-2.14-3A3.24,3.24,0,0,1,221.17,350.58Z" />
  <path class="BUNTAI_GOAT_JEWELRY_BUNTAI_GOAT_JEWELRY_2_cls-9" d="M229.72,369.2a12.05,12.05,0,0,1,3.3,1.37s-.8-6.44-10.69-7.1q-.81-.06-1.71-.06H220c-11.06.42-15.25,12.42-12.07,20s12.44,10.45,19.14,8.35,9.44-9.05,8.95-14.45-8.59-11-15.33-3.69c4.14.48,7.33,4.13,4.76,7.68s-11.59-1-6.92-8c3.25-4.82,7.87-5,11.15-4.1" />
  <path class="BUNTAI_GOAT_JEWELRY_BUNTAI_GOAT_JEWELRY_2_cls-9" d="M230.84,368.26h0" />
  <path class="BUNTAI_GOAT_JEWELRY_BUNTAI_GOAT_JEWELRY_2_cls-9" d="M224,364.72a8.74,8.74,0,0,1,.13,2.77,22,22,0,0,1,6.72.77A9.67,9.67,0,0,0,224,364.72Z" />
  <path class="BUNTAI_GOAT_JEWELRY_BUNTAI_GOAT_JEWELRY_2_cls-9" d="M218.49,365.08s-5,2.22-6.18,5a14.59,14.59,0,0,1,3.84,2.07l1.89-2.33A20.76,20.76,0,0,0,215.4,368l-1,1.14a7,7,0,0,1,1.78,1" />
  <path class="BUNTAI_GOAT_JEWELRY_BUNTAI_GOAT_JEWELRY_2_cls-9" d="M211.5,376.55l1.48.18V380H210s.09-4.44.51-5.37a26.34,26.34,0,0,1,4,.54s-.34,5.55,0,6.76c-4,1.3-5.51.44-5.51.44s-1.16-6.32,1.24-10.25a17.47,17.47,0,0,1,5.26,1.79" />
  <path class="BUNTAI_GOAT_JEWELRY_BUNTAI_GOAT_JEWELRY_2_cls-9" d="M229.72,369.2h0c-.49-.18-8.32-3-12.37,3.19-4.18,6.36-.47,13.83,6.66,12.85s5.74-8.73,3.92-10.31-5.11-2.6-7.2-1.32" />
  <path class="BUNTAI_GOAT_JEWELRY_BUNTAI_GOAT_JEWELRY_2_cls-9" d="M214.94,382.64a12,12,0,0,1-4.62,2.1c5.29,4.87,9.74,5.56,9.74,5.56l1.85-3.43s-4.41-1.45-5.8-3c-1.68,1.09-1.92,1.56-1.92,1.56a23.43,23.43,0,0,0,4.05,2.69c.84-.89.84-1.12.84-1.12" />
  <path class="BUNTAI_GOAT_JEWELRY_BUNTAI_GOAT_JEWELRY_2_cls-9" d="M223.16,386.47a37.81,37.81,0,0,1-.64,4,8.48,8.48,0,0,0,6.23-2,10.38,10.38,0,0,0-1.07-2.45C226.46,386.28,223.16,386.47,223.16,386.47Z" />
  <path class="BUNTAI_GOAT_JEWELRY_BUNTAI_GOAT_JEWELRY_2_cls-9" d="M230.39,375.66a8.79,8.79,0,0,0-4.65-3,7.42,7.42,0,0,1,6,.39A13,13,0,0,0,230.39,375.66Z" />
  <path class="BUNTAI_GOAT_JEWELRY_BUNTAI_GOAT_JEWELRY_2_cls-9" d="M233.4,374.62s-2.39,1.65-3,3.41a11.69,11.69,0,0,1-.73,4.89,7.06,7.06,0,0,1-1,1.52,12.81,12.81,0,0,1,2.33,2.86s4.53-3.14,3.21-10.08a4.72,4.72,0,0,0-2.65.81s-.23,3.91-.95,5.11l-.07.11a9.54,9.54,0,0,0,1.41.89" />
  <path class="BUNTAI_GOAT_JEWELRY_BUNTAI_GOAT_JEWELRY_2_cls-9" d="M220,356.77a3.2,3.2,0,0,1-2.14-3,3.28,3.28,0,1,1,4.41,3,3.54,3.54,0,0,1-1.14.19A3.24,3.24,0,0,1,220,356.77Z" />
  <path class="BUNTAI_GOAT_JEWELRY_BUNTAI_GOAT_JEWELRY_2_cls-10" d="M220,363.42h0V357a.71.71,0,0,1,0-.2" />
  <path class="BUNTAI_GOAT_JEWELRY_BUNTAI_GOAT_JEWELRY_2_cls-10" d="M222.31,356.78a1.23,1.23,0,0,1,0,.19v6.5" />
</svg>