<svg xmlns="http://www.w3.org/2000/svg" viewBox="0 0 432 432">
  <defs>
    <style>.BUNTAI_GOAT_JEWELRY_BUNTAI_GOAT_JEWELRY_23_cls-1{isolation:isolate;}.BUNTAI_GOAT_JEWELRY_BUNTAI_GOAT_JEWELRY_23_cls-2{fill:#c7a858;}.BUNTAI_GOAT_JEWELRY_BUNTAI_GOAT_JEWELRY_23_cls-12,.BUNTAI_GOAT_JEWELRY_BUNTAI_GOAT_JEWELRY_23_cls-15,.BUNTAI_GOAT_JEWELRY_BUNTAI_GOAT_JEWELRY_23_cls-3,.BUNTAI_GOAT_JEWELRY_BUNTAI_GOAT_JEWELRY_23_cls-4,.BUNTAI_GOAT_JEWELRY_BUNTAI_GOAT_JEWELRY_23_cls-7{fill:none;stroke-linecap:round;stroke-linejoin:round;}.BUNTAI_GOAT_JEWELRY_BUNTAI_GOAT_JEWELRY_23_cls-12,.BUNTAI_GOAT_JEWELRY_BUNTAI_GOAT_JEWELRY_23_cls-13,.BUNTAI_GOAT_JEWELRY_BUNTAI_GOAT_JEWELRY_23_cls-15,.BUNTAI_GOAT_JEWELRY_BUNTAI_GOAT_JEWELRY_23_cls-3,.BUNTAI_GOAT_JEWELRY_BUNTAI_GOAT_JEWELRY_23_cls-4,.BUNTAI_GOAT_JEWELRY_BUNTAI_GOAT_JEWELRY_23_cls-7{stroke:#000;}.BUNTAI_GOAT_JEWELRY_BUNTAI_GOAT_JEWELRY_23_cls-3{stroke-width:0.7px;}.BUNTAI_GOAT_JEWELRY_BUNTAI_GOAT_JEWELRY_23_cls-4{stroke-width:0.66px;}.BUNTAI_GOAT_JEWELRY_BUNTAI_GOAT_JEWELRY_23_cls-5{fill:#cbde8d;}.BUNTAI_GOAT_JEWELRY_BUNTAI_GOAT_JEWELRY_23_cls-6{fill:#91b90e;}.BUNTAI_GOAT_JEWELRY_BUNTAI_GOAT_JEWELRY_23_cls-7{stroke-width:0.63px;}.BUNTAI_GOAT_JEWELRY_BUNTAI_GOAT_JEWELRY_23_cls-8{opacity:0.43;mix-blend-mode:multiply;}.BUNTAI_GOAT_JEWELRY_BUNTAI_GOAT_JEWELRY_23_cls-9{fill:#594739;}.BUNTAI_GOAT_JEWELRY_BUNTAI_GOAT_JEWELRY_23_cls-10{fill:#917244;}.BUNTAI_GOAT_JEWELRY_BUNTAI_GOAT_JEWELRY_23_cls-11{fill:#c91629;}.BUNTAI_GOAT_JEWELRY_BUNTAI_GOAT_JEWELRY_23_cls-12{stroke-width:1.69px;}.BUNTAI_GOAT_JEWELRY_BUNTAI_GOAT_JEWELRY_23_cls-13{fill:#754c24;stroke-miterlimit:10;stroke-width:1.26px;}.BUNTAI_GOAT_JEWELRY_BUNTAI_GOAT_JEWELRY_23_cls-14{fill:#333;}.BUNTAI_GOAT_JEWELRY_BUNTAI_GOAT_JEWELRY_23_cls-15{stroke-width:0.81px;}</style>
  </defs>
  <g class="BUNTAI_GOAT_JEWELRY_BUNTAI_GOAT_JEWELRY_23_cls-1">
    <g id="jewelry">
      <path class="BUNTAI_GOAT_JEWELRY_BUNTAI_GOAT_JEWELRY_23_cls-2" d="M144.57,232.73c-1.36,0-1.14-1.85-1.14-1.85h0a3.65,3.65,0,0,0,1.68.36,1.51,1.51,0,0,0,.74-.19C145.86,231.15,145.88,232.73,144.57,232.73Z" />
      <path class="BUNTAI_GOAT_JEWELRY_BUNTAI_GOAT_JEWELRY_23_cls-2" d="M146.91,225.42c.5,1.65.4,4.82-1.06,5.62a1.51,1.51,0,0,1-.74.19,3.65,3.65,0,0,1-1.68-.36c-1.24-.6-1.87-2-1.79-4.16a6.76,6.76,0,0,1,.39-2.09,4.37,4.37,0,0,1,1.21-1.88,1.61,1.61,0,0,1,1.11-.47,1.9,1.9,0,0,1,1.36.8,3,3,0,0,1-.6.12h0a3.47,3.47,0,0,0-1.52,2.35c-.38,1.82.25,3.87,1.17,3.87s1-2.38,1-3.64h.07A4.49,4.49,0,0,0,146.91,225.42Z" />
      <path class="BUNTAI_GOAT_JEWELRY_BUNTAI_GOAT_JEWELRY_23_cls-2" d="M143.24,222.74a4.56,4.56,0,0,0-1.21,1.88,5.08,5.08,0,0,1-1.69-4.7,20,20,0,0,0,2,.56,2.31,2.31,0,0,0,.25,1.58A2.08,2.08,0,0,0,143.24,222.74Z" />
      <path class="BUNTAI_GOAT_JEWELRY_BUNTAI_GOAT_JEWELRY_23_cls-2" d="M149.1,222.48a4,4,0,0,1-2.19,2.94,4.67,4.67,0,0,1-1.13.34h-.08a4.09,4.09,0,0,1-2.15-.23,3.44,3.44,0,0,1,1.52-2.35h0a3,3,0,0,0,.6-.12A1.76,1.76,0,0,0,147,222a1.4,1.4,0,0,0,.08-.47c0-1.93-.77-2-.77-2l-.09-.27a2.49,2.49,0,0,1,1.94-1.62A6.64,6.64,0,0,1,149.1,222.48Z" />
      <path class="BUNTAI_GOAT_JEWELRY_BUNTAI_GOAT_JEWELRY_23_cls-3" d="M142,224.62a5.08,5.08,0,0,1-1.69-4.7l2,.56a2.31,2.31,0,0,0,.25,1.58,2.08,2.08,0,0,0,.6.68" />
      <path class="BUNTAI_GOAT_JEWELRY_BUNTAI_GOAT_JEWELRY_23_cls-3" d="M143.55,225.54a4.09,4.09,0,0,0,2.15.23h.08a4.67,4.67,0,0,0,1.13-.34,4,4,0,0,0,2.19-2.94,6.64,6.64,0,0,0-1-4.89" />
      <path class="BUNTAI_GOAT_JEWELRY_BUNTAI_GOAT_JEWELRY_23_cls-3" d="M146.19,219.21l.09.27s.74.09.77,2a1.4,1.4,0,0,1-.08.47,1.76,1.76,0,0,1-1.26,1.1,3,3,0,0,1-.6.12" />
      <path class="BUNTAI_GOAT_JEWELRY_BUNTAI_GOAT_JEWELRY_23_cls-3" d="M146.91,225.42c.5,1.65.4,4.82-1.06,5.62a1.51,1.51,0,0,1-.74.19,3.65,3.65,0,0,1-1.68-.36c-1.24-.6-1.87-2-1.79-4.16a6.76,6.76,0,0,1,.39-2.09,4.37,4.37,0,0,1,1.21-1.88,1.61,1.61,0,0,1,1.11-.47,1.9,1.9,0,0,1,1.36.8" />
      <path class="BUNTAI_GOAT_JEWELRY_BUNTAI_GOAT_JEWELRY_23_cls-3" d="M145.7,225.77c.06,1.26.05,3.64-1,3.64s-1.55-2-1.17-3.87a3.47,3.47,0,0,1,1.52-2.35h0" />
      <path class="BUNTAI_GOAT_JEWELRY_BUNTAI_GOAT_JEWELRY_23_cls-3" d="M143.43,230.88s-.22,1.85,1.14,1.85,1.29-1.58,1.28-1.69h0" />
      <path class="BUNTAI_GOAT_JEWELRY_BUNTAI_GOAT_JEWELRY_23_cls-3" d="M146.34,221.2a2.4,2.4,0,0,1-.29-1.16,2.54,2.54,0,0,1,.14-.83,2.49,2.49,0,0,1,1.94-1.62,1.87,1.87,0,0,1,.42,0,1.71,1.71,0,0,1,1.69,1.25" />
      <line class="BUNTAI_GOAT_JEWELRY_BUNTAI_GOAT_JEWELRY_23_cls-4" x1="144.64" y1="236.73" x2="144.64" y2="232.9" />
      <path class="BUNTAI_GOAT_JEWELRY_BUNTAI_GOAT_JEWELRY_23_cls-5" d="M144.56,269.36c.57,3.45.84,4.47.13,7.49,0,0,1.12-1.25,2.59-3.22A30.93,30.93,0,0,0,144.56,269.36Z" />
      <path class="BUNTAI_GOAT_JEWELRY_BUNTAI_GOAT_JEWELRY_23_cls-5" d="M144.42,268.34a6.68,6.68,0,0,0-3.64,3.45,54.66,54.66,0,0,0,3.91,5.06c.71-3,.44-4-.13-7.49C144.51,269,144.46,268.69,144.42,268.34Z" />
      <path class="BUNTAI_GOAT_JEWELRY_BUNTAI_GOAT_JEWELRY_23_cls-5" d="M144.18,265.49c0,1,.13,2,.24,2.85,0,.35.09.7.14,1a30.93,30.93,0,0,1,2.72,4.27c.61-.82,1.28-1.76,1.95-2.79C148,267.91,144.18,265.49,144.18,265.49Z" />
      <path class="BUNTAI_GOAT_JEWELRY_BUNTAI_GOAT_JEWELRY_23_cls-5" d="M144.1,262.5c0,1,0,2,.08,3,0,0,3.8,2.42,5,5.35.62-.93,1.23-1.93,1.81-3-.27-2-1.46-2.77-3.59-4.17a11.85,11.85,0,0,1-3.31-3.4C144.11,261,144.1,261.74,144.1,262.5Z" />
      <path class="BUNTAI_GOAT_JEWELRY_BUNTAI_GOAT_JEWELRY_23_cls-5" d="M144.09,262.5s-4.27,1.93-5.35,6.08c.66,1.14,1.37,2.23,2,3.21a6.68,6.68,0,0,1,3.64-3.45c-.11-.89-.19-1.85-.24-2.85s-.08-2-.08-3Z" />
      <path class="BUNTAI_GOAT_JEWELRY_BUNTAI_GOAT_JEWELRY_23_cls-5" d="M140.25,258.43c-2.84.85-3.79,1.28-4.52,3.1a22.09,22.09,0,0,0,1.41,4S137.67,261,140.25,258.43Z" />
      <path class="BUNTAI_GOAT_JEWELRY_BUNTAI_GOAT_JEWELRY_23_cls-5" d="M140.25,258.43c-2.58,2.6-3.11,7.06-3.11,7.06a33.38,33.38,0,0,0,1.6,3.09c1.08-4.15,5.35-6.08,5.35-6.08h0c0-.76,0-1.5,0-2.2a24.94,24.94,0,0,1,.27-2.72c.09-.58.16-1.19.21-1.79a6.65,6.65,0,0,1-3.92,2.51Z" />
      <path class="BUNTAI_GOAT_JEWELRY_BUNTAI_GOAT_JEWELRY_23_cls-5" d="M153.78,261a6.42,6.42,0,0,0-4.63-3.06,15.43,15.43,0,0,1,3.52,6.59,19.33,19.33,0,0,0,1.11-3.52Z" />
      <path class="BUNTAI_GOAT_JEWELRY_BUNTAI_GOAT_JEWELRY_23_cls-5" d="M144.62,255.79c-.05.6-.12,1.21-.21,1.79a24.94,24.94,0,0,0-.27,2.72,11.85,11.85,0,0,0,3.31,3.4c2.13,1.4,3.32,2.17,3.59,4.17a34,34,0,0,0,1.63-3.39h0a15.43,15.43,0,0,0-3.52-6.59h0c-.38-.08-.79-.14-1.2-.2a4.43,4.43,0,0,1-3.26-2A.92.92,0,0,1,144.62,255.79Z" />
      <path class="BUNTAI_GOAT_JEWELRY_BUNTAI_GOAT_JEWELRY_23_cls-5" d="M144.75,242.81c.48.48,3.79,4,1.81,6.8,0,0,3.49,1,7,5.61-1.81-6.31-8.11-11.81-8.82-12.41Z" />
      <path class="BUNTAI_GOAT_JEWELRY_BUNTAI_GOAT_JEWELRY_23_cls-5" d="M144.62,255.79a.92.92,0,0,0,.07-.13,4.43,4.43,0,0,0,3.26,2c.41.06.82.12,1.2.2h0a6.42,6.42,0,0,1,4.63,3.06,12.54,12.54,0,0,0,.27-2.48,12,12,0,0,0-.48-3.25c-3.52-4.58-7-5.61-7-5.61a5.06,5.06,0,0,1-1.87,1.54A39.77,39.77,0,0,1,144.62,255.79Z" />
      <path class="BUNTAI_GOAT_JEWELRY_BUNTAI_GOAT_JEWELRY_23_cls-5" d="M135.33,258.47a12.67,12.67,0,0,0,.4,3.06c.73-1.82,1.68-2.25,4.52-3.1l.45-.13a6.65,6.65,0,0,0,3.92-2.51,39.77,39.77,0,0,0,.07-4.64,5.06,5.06,0,0,1-1.87-1.54s-3.29.32-6.51,4.16A12.64,12.64,0,0,0,135.33,258.47Z" />
      <path class="BUNTAI_GOAT_JEWELRY_BUNTAI_GOAT_JEWELRY_23_cls-5" d="M144.63,242.81c-.65.55-6.07,5.28-8.32,11,3.22-3.84,6.51-4.16,6.51-4.16-2-2.79,1.34-6.32,1.81-6.8Z" />
      <path class="BUNTAI_GOAT_JEWELRY_BUNTAI_GOAT_JEWELRY_23_cls-2" d="M144.63,242.81c-.47.48-3.79,4-1.81,6.8a5.06,5.06,0,0,0,1.87,1.54,5.06,5.06,0,0,0,1.87-1.54c2-2.79-1.33-6.32-1.81-6.8h-.12Z" />
      <path class="BUNTAI_GOAT_JEWELRY_BUNTAI_GOAT_JEWELRY_23_cls-6" d="M144.69,238.62c-.72,0-1.31.94-1.31,2.1a2.43,2.43,0,0,0,.75,1.9h0a1.17,1.17,0,0,0,.55.13,1.2,1.2,0,0,0,.55-.13h0a2.44,2.44,0,0,0,.74-1.9C146,239.56,145.41,238.62,144.69,238.62Z" />
      <path class="BUNTAI_GOAT_JEWELRY_BUNTAI_GOAT_JEWELRY_23_cls-2" d="M142.82,239.74a3.2,3.2,0,0,0,1.31,2.88,2.43,2.43,0,0,1-.75-1.9c0-1.16.59-2.1,1.31-2.1s1.3.94,1.3,2.1a2.44,2.44,0,0,1-.74,1.9,3.2,3.2,0,0,0,1.31-2.88c0-1.66-.84-3-1.87-3S142.82,238.08,142.82,239.74Z" />
      <path class="BUNTAI_GOAT_JEWELRY_BUNTAI_GOAT_JEWELRY_23_cls-7" d="M152.67,264.48a34,34,0,0,1-1.63,3.39c-.58,1-1.19,2-1.81,3s-1.34,2-1.95,2.79c-1.47,2-2.59,3.22-2.59,3.22a54.66,54.66,0,0,1-3.91-5.06c-.67-1-1.38-2.07-2-3.21a33.38,33.38,0,0,1-1.6-3.09,22.09,22.09,0,0,1-1.41-4,11.82,11.82,0,0,1,.58-7.76c2.25-5.68,7.67-10.41,8.32-11l0,0h0" />
      <path class="BUNTAI_GOAT_JEWELRY_BUNTAI_GOAT_JEWELRY_23_cls-7" d="M153.78,261a19.33,19.33,0,0,1-1.11,3.52" />
      <path class="BUNTAI_GOAT_JEWELRY_BUNTAI_GOAT_JEWELRY_23_cls-7" d="M144.71,242.78h0l0,0c.71.6,7,6.1,8.82,12.41a12,12,0,0,1,.48,3.25,12.54,12.54,0,0,1-.27,2.48" />
      <path class="BUNTAI_GOAT_JEWELRY_BUNTAI_GOAT_JEWELRY_23_cls-7" d="M144.69,242.75l0,0h0l0,0c.48.48,3.79,4,1.81,6.8a5.06,5.06,0,0,1-1.87,1.54,5.06,5.06,0,0,1-1.87-1.54c-2-2.79,1.34-6.32,1.81-6.8l0,0h0Z" />
      <path class="BUNTAI_GOAT_JEWELRY_BUNTAI_GOAT_JEWELRY_23_cls-7" d="M144.69,251.15a39.77,39.77,0,0,1-.07,4.64c-.05.6-.12,1.21-.21,1.79a24.94,24.94,0,0,0-.27,2.72c0,.7,0,1.44,0,2.2,0,1,0,2,.08,3s.13,2,.24,2.85c0,.35.09.7.14,1,.57,3.45.84,4.47.13,7.49" />
      <path class="BUNTAI_GOAT_JEWELRY_BUNTAI_GOAT_JEWELRY_23_cls-7" d="M146.56,249.61s3.49,1,7,5.61h0" />
      <path class="BUNTAI_GOAT_JEWELRY_BUNTAI_GOAT_JEWELRY_23_cls-7" d="M149.15,257.88c-.38-.08-.79-.14-1.2-.2a4.43,4.43,0,0,1-3.26-2,.92.92,0,0,1-.07.13,6.65,6.65,0,0,1-3.92,2.51l-.45.13c-2.84.85-3.79,1.28-4.52,3.1" />
      <path class="BUNTAI_GOAT_JEWELRY_BUNTAI_GOAT_JEWELRY_23_cls-7" d="M153.78,261h0a6.42,6.42,0,0,0-4.63-3.06" />
      <path class="BUNTAI_GOAT_JEWELRY_BUNTAI_GOAT_JEWELRY_23_cls-7" d="M152.67,264.48h0a15.43,15.43,0,0,0-3.52-6.59h0" />
      <path class="BUNTAI_GOAT_JEWELRY_BUNTAI_GOAT_JEWELRY_23_cls-7" d="M144.14,260.3a11.85,11.85,0,0,0,3.31,3.4c2.13,1.4,3.32,2.17,3.59,4.17" />
      <path class="BUNTAI_GOAT_JEWELRY_BUNTAI_GOAT_JEWELRY_23_cls-7" d="M144.18,265.49s3.8,2.42,5,5.35" />
      <path class="BUNTAI_GOAT_JEWELRY_BUNTAI_GOAT_JEWELRY_23_cls-7" d="M144.56,269.36a30.93,30.93,0,0,1,2.72,4.27" />
      <path class="BUNTAI_GOAT_JEWELRY_BUNTAI_GOAT_JEWELRY_23_cls-7" d="M142.82,249.61s-3.29.32-6.51,4.16" />
      <path class="BUNTAI_GOAT_JEWELRY_BUNTAI_GOAT_JEWELRY_23_cls-7" d="M137.14,265.49s.53-4.46,3.11-7.06" />
      <path class="BUNTAI_GOAT_JEWELRY_BUNTAI_GOAT_JEWELRY_23_cls-7" d="M144.09,262.5s-4.27,1.93-5.35,6.08" />
      <path class="BUNTAI_GOAT_JEWELRY_BUNTAI_GOAT_JEWELRY_23_cls-7" d="M144.42,268.34a6.68,6.68,0,0,0-3.64,3.45" />
      <path class="BUNTAI_GOAT_JEWELRY_BUNTAI_GOAT_JEWELRY_23_cls-7" d="M145.25,242.62a3.2,3.2,0,0,0,1.31-2.88c0-1.66-.84-3-1.87-3s-1.87,1.35-1.87,3a3.2,3.2,0,0,0,1.31,2.88" />
      <path class="BUNTAI_GOAT_JEWELRY_BUNTAI_GOAT_JEWELRY_23_cls-7" d="M144.14,242.62a1.17,1.17,0,0,0,.55.13,1.2,1.2,0,0,0,.55-.13" />
      <path class="BUNTAI_GOAT_JEWELRY_BUNTAI_GOAT_JEWELRY_23_cls-7" d="M145.25,242.62a2.44,2.44,0,0,0,.74-1.9c0-1.16-.58-2.1-1.3-2.1s-1.31.94-1.31,2.1a2.43,2.43,0,0,0,.75,1.9h0a.9.9,0,0,0,.49.19h.12a.9.9,0,0,0,.49-.19Z" />
      <g class="BUNTAI_GOAT_JEWELRY_BUNTAI_GOAT_JEWELRY_23_cls-8">
        <path d="M144.69,236.73a2,2,0,0,0,0,1.89,6.87,6.87,0,0,0,.06,4.19c-.56,4.79-.72,6.47.18,5.94a2.29,2.29,0,0,0,1.06-1.48s.92,2-.18,3.15c-1.12.73-.22,2.46-.26,5.15s-.16,6.35-.13,8.44.09,5.57.09,7.22a40.29,40.29,0,0,1-.76,5.37,30,30,0,0,1-7.32-10.46c-2.44-6.22-3-8.16-.88-12.94s7.63-9.89,7.63-9.89l.2-.53s-1.13-.13-1.31-2S143.06,237.16,144.69,236.73Z" />
      </g>
      <path class="BUNTAI_GOAT_JEWELRY_BUNTAI_GOAT_JEWELRY_23_cls-9" d="M223.39,377.08a13.17,13.17,0,1,1-6.51.51,51.54,51.54,0,0,0,.67,7.53l-2.91.59,2.22,10.65,10.77-2.19-2.22-10.65-2.73.56A32.47,32.47,0,0,0,223.39,377.08Z" />
      <path class="BUNTAI_GOAT_JEWELRY_BUNTAI_GOAT_JEWELRY_23_cls-10" d="M225.74,373.87a16.88,16.88,0,1,1-8.71-.12,6.6,6.6,0,0,0-.18,1.6c0,.57,0,1.35,0,2.24a13,13,0,0,0-8.68,15,13.2,13.2,0,0,0,15.6,10.16,13,13,0,0,0-.41-25.65c0-.66,0-1.35-.08-2.06a13.56,13.56,0,0,0-.1-1.65A16.9,16.9,0,0,1,225.74,373.87Z" />
      <path class="BUNTAI_GOAT_JEWELRY_BUNTAI_GOAT_JEWELRY_23_cls-11" d="M225.73,373.88a15,15,0,0,0-2.52-.51,15.73,15.73,0,0,1,.11,1.65c0,.71.06,1.4.07,2.05a32.32,32.32,0,0,1-.71,7,19.67,19.67,0,0,1-1.14,3.75c-.51.65-1.12.51-1.54-.43a1.43,1.43,0,0,1-.12-.42c-.48.33-1.41.71-2-.72a8.14,8.14,0,0,1-.32-1.13,52.89,52.89,0,0,1-.68-7.53c0-.89,0-1.66,0-2.24a6.66,6.66,0,0,1,.18-1.6,3.8,3.8,0,0,1,.51-1.24,4,4,0,0,1-.19-.85,2.63,2.63,0,0,1,0-.41,3.53,3.53,0,0,1,0-.46,3,3,0,0,1,0-.51,1.69,1.69,0,0,1,.19-.6,1.88,1.88,0,0,1,.16-.23.1.1,0,0,1,0-.05l.15-.17.26-.21c.08-.06.18-.11.26-.16a1.85,1.85,0,0,1,.29-.13l.3-.11-1.17-5.6a1.79,1.79,0,0,1,.21-1.29,1.88,1.88,0,0,1,1.21-.85,1.79,1.79,0,0,1,1.37.26,1.76,1.76,0,0,1,.5.48h0a1.83,1.83,0,0,1,.28.67l1.36,6.52A4.22,4.22,0,0,1,225.73,373.88Z" />
      <path class="BUNTAI_GOAT_JEWELRY_BUNTAI_GOAT_JEWELRY_23_cls-12" d="M223.21,373.37a16.83,16.83,0,0,1,14.47,13.2,16.7,16.7,0,0,1-13.14,19.72,16.88,16.88,0,0,1-19.95-13A16.68,16.68,0,0,1,217,373.75" />
      <path class="BUNTAI_GOAT_JEWELRY_BUNTAI_GOAT_JEWELRY_23_cls-12" d="M223.39,377.08a13.17,13.17,0,1,1-6.51.51" />
      <polyline class="BUNTAI_GOAT_JEWELRY_BUNTAI_GOAT_JEWELRY_23_cls-12" points="222.68 384.08 225.41 383.52 227.63 394.17 216.86 396.36 214.64 385.71 217.56 385.12" />
      <path class="BUNTAI_GOAT_JEWELRY_BUNTAI_GOAT_JEWELRY_23_cls-12" d="M219.88,387a2.85,2.85,0,0,0,.12.42c.42.94,1,1.08,1.55.43a20.25,20.25,0,0,0,1.13-3.74,32.47,32.47,0,0,0,.71-7c0-.66,0-1.35-.08-2.06a13.56,13.56,0,0,0-.1-1.65c-.19-1.26-.61-1.51-1.36-1.64-.57-.12-.9,0-1.17,1.12a34.81,34.81,0,0,0-.6,4A45.44,45.44,0,0,0,219.88,387Z" />
      <path class="BUNTAI_GOAT_JEWELRY_BUNTAI_GOAT_JEWELRY_23_cls-12" d="M220.68,372.85c-.18-.92-1.19-1.19-1.85-1.18a1.53,1.53,0,0,0-.41.05,1.87,1.87,0,0,0-.89.78,4.22,4.22,0,0,0-.5,1.25,6.6,6.6,0,0,0-.18,1.6c0,.57,0,1.35,0,2.24a51.54,51.54,0,0,0,.67,7.53,7.16,7.16,0,0,0,.33,1.13c.58,1.44,1.52,1.05,2,.72" />
      <path class="BUNTAI_GOAT_JEWELRY_BUNTAI_GOAT_JEWELRY_23_cls-12" d="M218.83,371.67a10,10,0,0,1,1-1.43A4.86,4.86,0,0,1,221.4,369a2.26,2.26,0,0,1,.43-.17,2,2,0,0,1,.95,0,4.24,4.24,0,0,1,3,5.06" />
      <path class="BUNTAI_GOAT_JEWELRY_BUNTAI_GOAT_JEWELRY_23_cls-12" d="M221.39,369a2.39,2.39,0,0,0-2.38-.39,2.12,2.12,0,0,0-1.65,1.65,5.13,5.13,0,0,0,.17,2.23" />
      <path class="BUNTAI_GOAT_JEWELRY_BUNTAI_GOAT_JEWELRY_23_cls-12" d="M222.78,368.81l-.7-3.38-.66-3.14a1.83,1.83,0,0,0-.28-.67" />
      <path class="BUNTAI_GOAT_JEWELRY_BUNTAI_GOAT_JEWELRY_23_cls-12" d="M221.13,361.62a1.76,1.76,0,0,0-.5-.48,1.79,1.79,0,0,0-1.37-.26,1.88,1.88,0,0,0-1.21.85,1.79,1.79,0,0,0-.21,1.29l.57,2.74.6,2.86" />
      <line class="BUNTAI_GOAT_JEWELRY_BUNTAI_GOAT_JEWELRY_23_cls-12" x1="221.14" y1="361.62" x2="221.13" y2="361.62" />
      <path class="BUNTAI_GOAT_JEWELRY_BUNTAI_GOAT_JEWELRY_23_cls-13" d="M302.14,299.16a3.84,3.84,0,0,0-5.11.27l1.56,3.13c-6.9,16.84-31.87,39.3-79.8,53.59-50.67-14.27-74.4-46.74-78.43-52.73l.87-1.74s-1.3-2.31-4-.56c-1,.91-.83,2.83-.29,3.71,0,0,.21.33.53.8h0s28.07,39.61,80.84,54.27a1.68,1.68,0,0,0,.5.07,1.59,1.59,0,0,0,.53-.08c50.76-15,77.14-40.12,83.66-58A3,3,0,0,0,302.14,299.16Z" />
      <path class="BUNTAI_GOAT_JEWELRY_BUNTAI_GOAT_JEWELRY_23_cls-14" d="M215.91,355.36l2.29.62s2.39-1.33,3.37.53.52,3.21-.75,3.8-3.16.07-3.52-.95a4.85,4.85,0,0,0-2.21-.49s.93,3.5,4,3.8a4.48,4.48,0,0,0,5.24-4.06,4.29,4.29,0,0,0-2.47-4.52A4.69,4.69,0,0,0,215.91,355.36Z" />
      <path class="BUNTAI_GOAT_JEWELRY_BUNTAI_GOAT_JEWELRY_23_cls-15" d="M215,358.74a4.63,4.63,0,0,0,4.18,4.05l.46,0a4.67,4.67,0,0,0,3.13-1.18,4.53,4.53,0,0,0,1.55-3.21,1.06,1.06,0,0,0,0-.25,4.62,4.62,0,0,0-1.06-2.94,4.73,4.73,0,0,0-3.64-1.69,4.67,4.67,0,0,0-3.81,1.95l2.32.62a2.55,2.55,0,0,1,1.49-.48,2.57,2.57,0,0,1,2.57,2.54,2.42,2.42,0,0,1-.28,1.13,2.54,2.54,0,0,1-2.29,1.41,2.58,2.58,0,0,1-2.25-1.33h0Z" />
    </g>
  </g>
</svg>