<svg id="jewelry" xmlns="http://www.w3.org/2000/svg" viewBox="0 0 432 432">
  <defs>
    <style>.BUNTAI_GOAT_JEWELRY_BUNTAI_GOAT_JEWELRY_13_cls-1{fill:#c7a858;}.BUNTAI_GOAT_JEWELRY_BUNTAI_GOAT_JEWELRY_13_cls-2{fill:#fff;}.BUNTAI_GOAT_JEWELRY_BUNTAI_GOAT_JEWELRY_13_cls-3{fill:#c74c58;}.BUNTAI_GOAT_JEWELRY_BUNTAI_GOAT_JEWELRY_13_cls-10,.BUNTAI_GOAT_JEWELRY_BUNTAI_GOAT_JEWELRY_13_cls-4,.BUNTAI_GOAT_JEWELRY_BUNTAI_GOAT_JEWELRY_13_cls-5,.BUNTAI_GOAT_JEWELRY_BUNTAI_GOAT_JEWELRY_13_cls-7{fill:none;}.BUNTAI_GOAT_JEWELRY_BUNTAI_GOAT_JEWELRY_13_cls-10,.BUNTAI_GOAT_JEWELRY_BUNTAI_GOAT_JEWELRY_13_cls-4,.BUNTAI_GOAT_JEWELRY_BUNTAI_GOAT_JEWELRY_13_cls-5,.BUNTAI_GOAT_JEWELRY_BUNTAI_GOAT_JEWELRY_13_cls-7,.BUNTAI_GOAT_JEWELRY_BUNTAI_GOAT_JEWELRY_13_cls-8{stroke:#000;}.BUNTAI_GOAT_JEWELRY_BUNTAI_GOAT_JEWELRY_13_cls-10,.BUNTAI_GOAT_JEWELRY_BUNTAI_GOAT_JEWELRY_13_cls-4,.BUNTAI_GOAT_JEWELRY_BUNTAI_GOAT_JEWELRY_13_cls-7{stroke-linecap:round;stroke-linejoin:round;}.BUNTAI_GOAT_JEWELRY_BUNTAI_GOAT_JEWELRY_13_cls-4{stroke-width:0.85px;}.BUNTAI_GOAT_JEWELRY_BUNTAI_GOAT_JEWELRY_13_cls-5,.BUNTAI_GOAT_JEWELRY_BUNTAI_GOAT_JEWELRY_13_cls-8{stroke-miterlimit:10;}.BUNTAI_GOAT_JEWELRY_BUNTAI_GOAT_JEWELRY_13_cls-5{stroke-width:0.69px;}.BUNTAI_GOAT_JEWELRY_BUNTAI_GOAT_JEWELRY_13_cls-6{fill:#666;}.BUNTAI_GOAT_JEWELRY_BUNTAI_GOAT_JEWELRY_13_cls-7{stroke-width:0.86px;}.BUNTAI_GOAT_JEWELRY_BUNTAI_GOAT_JEWELRY_13_cls-8{fill:#754c24;stroke-width:1.3px;}.BUNTAI_GOAT_JEWELRY_BUNTAI_GOAT_JEWELRY_13_cls-9{fill:#333;}.BUNTAI_GOAT_JEWELRY_BUNTAI_GOAT_JEWELRY_13_cls-10{stroke-width:0.84px;}</style>
  </defs>
  <path class="BUNTAI_GOAT_JEWELRY_BUNTAI_GOAT_JEWELRY_13_cls-1" d="M157.59,262.48a1.37,1.37,0,1,1,0,2.74h-7.46v-.42a1.37,1.37,0,0,0,1.37-1.37v-.95Z" />
  <path class="BUNTAI_GOAT_JEWELRY_BUNTAI_GOAT_JEWELRY_13_cls-1" d="M155.45,217.16c2.68,2.57,3.85,10.89-1.5,13.34a7.12,7.12,0,0,1-1.86.56l-.12,0a6.89,6.89,0,0,1-3.51-.37,5.66,5.66,0,0,1,2.49-3.84H151a4.48,4.48,0,0,0,1-.19,2.71,2.71,0,0,0,2.19-2.56c0-3.16-1.24-3.32-1.24-3.32S151.17,216.72,155.45,217.16Z" />
  <path class="BUNTAI_GOAT_JEWELRY_BUNTAI_GOAT_JEWELRY_13_cls-1" d="M152.22,239.69a2.53,2.53,0,0,1-1.22.3,6.1,6.1,0,0,1-2.73-.57c-2-1-3.06-3.29-2.93-6.8a11.39,11.39,0,0,1,.63-3.42,7.34,7.34,0,0,1,2-3.08,2.54,2.54,0,0,1,1.81-.75,3.09,3.09,0,0,1,2.21,1.3,4.48,4.48,0,0,1-1,.19H151a5.66,5.66,0,0,0-2.49,3.84c-.63,3,.42,6.31,1.92,6.31,1.67,0,1.69-3.88,1.59-5.94l.12,0a7.12,7.12,0,0,0,1.86-.56C154.77,233.21,154.6,238.39,152.22,239.69Z" />
  <polygon class="BUNTAI_GOAT_JEWELRY_BUNTAI_GOAT_JEWELRY_13_cls-2" points="150.13 265.22 152.88 265.22 152.88 289.59 150.13 296.45 147.39 289.59 147.39 265.22 150.13 265.22" />
  <path class="BUNTAI_GOAT_JEWELRY_BUNTAI_GOAT_JEWELRY_13_cls-1" d="M152.22,239.69c0,.19.05,2.77-2.09,2.77s-1.86-3-1.86-3h0A6.1,6.1,0,0,0,151,240,2.53,2.53,0,0,0,152.22,239.69Z" />
  <path class="BUNTAI_GOAT_JEWELRY_BUNTAI_GOAT_JEWELRY_13_cls-3" d="M150.13,250.67A1.37,1.37,0,0,1,151.5,252v11.39a1.37,1.37,0,0,1-2.74,0V252A1.37,1.37,0,0,1,150.13,250.67Z" />
  <path class="BUNTAI_GOAT_JEWELRY_BUNTAI_GOAT_JEWELRY_13_cls-1" d="M150.13,264.8v.42h-7.46a1.37,1.37,0,1,1,0-2.74h6.09v.95A1.37,1.37,0,0,0,150.13,264.8Z" />
  <path class="BUNTAI_GOAT_JEWELRY_BUNTAI_GOAT_JEWELRY_13_cls-1" d="M148,226.12a7.34,7.34,0,0,0-2,3.08,8.23,8.23,0,0,1-2.64-8.16,21.83,21.83,0,0,0,3.35,1,3.76,3.76,0,0,0,.3,3A3,3,0,0,0,148,226.12Z" />
  <path class="BUNTAI_GOAT_JEWELRY_BUNTAI_GOAT_JEWELRY_13_cls-4" d="M146,229.2a8.23,8.23,0,0,1-2.64-8.16l3.35,1a3.76,3.76,0,0,0,.3,3,3,3,0,0,0,1,1.09" />
  <path class="BUNTAI_GOAT_JEWELRY_BUNTAI_GOAT_JEWELRY_13_cls-4" d="M151,226.86a4.48,4.48,0,0,0,1-.19,2.71,2.71,0,0,0,2.19-2.56c0-3.16-1.24-3.32-1.24-3.32s-1.76-4.07,2.52-3.63c2.68,2.57,3.85,10.89-1.5,13.34a7.12,7.12,0,0,1-1.86.56l-.12,0a6.89,6.89,0,0,1-3.51-.37" />
  <path class="BUNTAI_GOAT_JEWELRY_BUNTAI_GOAT_JEWELRY_13_cls-4" d="M154,230.5c.82,2.71.65,7.89-1.73,9.19a2.53,2.53,0,0,1-1.22.3,6.1,6.1,0,0,1-2.73-.57c-2-1-3.06-3.29-2.93-6.8a11.39,11.39,0,0,1,.63-3.42,7.34,7.34,0,0,1,2-3.08,2.54,2.54,0,0,1,1.81-.75,3.09,3.09,0,0,1,2.21,1.3" />
  <path class="BUNTAI_GOAT_JEWELRY_BUNTAI_GOAT_JEWELRY_13_cls-4" d="M152,231.08c.1,2.06.08,5.94-1.59,5.94-1.5,0-2.55-3.34-1.92-6.31a5.66,5.66,0,0,1,2.49-3.84H151" />
  <path class="BUNTAI_GOAT_JEWELRY_BUNTAI_GOAT_JEWELRY_13_cls-4" d="M148.27,239.42s-.36,3,1.86,3,2.1-2.58,2.09-2.77h0" />
  <polyline class="BUNTAI_GOAT_JEWELRY_BUNTAI_GOAT_JEWELRY_13_cls-4" points="150.13 242.46 150.13 250.67 150.13 250.92" />
  <path class="BUNTAI_GOAT_JEWELRY_BUNTAI_GOAT_JEWELRY_13_cls-5" d="M150.13,264.8a1.37,1.37,0,0,1-1.37-1.37V252a1.37,1.37,0,1,1,2.74,0v11.39A1.37,1.37,0,0,1,150.13,264.8Z" />
  <polyline class="BUNTAI_GOAT_JEWELRY_BUNTAI_GOAT_JEWELRY_13_cls-5" points="152.88 265.22 152.88 289.59 150.13 296.45 147.39 289.59 147.39 265.22" />
  <path class="BUNTAI_GOAT_JEWELRY_BUNTAI_GOAT_JEWELRY_13_cls-5" d="M148.76,262.48h-6.09a1.37,1.37,0,1,0,0,2.74h14.92a1.37,1.37,0,1,0,0-2.74H151.5" />
  <polyline class="BUNTAI_GOAT_JEWELRY_BUNTAI_GOAT_JEWELRY_13_cls-5" points="150.13 264.8 150.13 265.22 150.13 289.04" />
  <path class="BUNTAI_GOAT_JEWELRY_BUNTAI_GOAT_JEWELRY_13_cls-4" d="M152.92,222.53s-3.14-7.57,5.35-4.77" />
  <path class="BUNTAI_GOAT_JEWELRY_BUNTAI_GOAT_JEWELRY_13_cls-6" d="M222.47,394.4l4.37,12.42-3.53.37-2.25-12.54a7.18,7.18,0,0,0,.9-.13h0Z" />
  <path class="BUNTAI_GOAT_JEWELRY_BUNTAI_GOAT_JEWELRY_13_cls-6" d="M224.68,393.52l8.38,10.9-3,1.13-3.22,1.27h0l-4.37-12.42a10,10,0,0,0,1.77-.65Z" />
  <path class="BUNTAI_GOAT_JEWELRY_BUNTAI_GOAT_JEWELRY_13_cls-6" d="M237.71,400.8l-2.37,1.78-2.28,1.84-8.38-10.9a7.46,7.46,0,0,0,1.42-1l.16-.15Z" />
  <path class="BUNTAI_GOAT_JEWELRY_BUNTAI_GOAT_JEWELRY_13_cls-6" d="M240.7,396.34l-1.6,2.21-1.39,2.25-11.45-8.45a6.64,6.64,0,0,0,1.15-1.48l.15-.27Z" />
  <path class="BUNTAI_GOAT_JEWELRY_BUNTAI_GOAT_JEWELRY_13_cls-6" d="M242.59,391.22l-.93,2.35-1,2.77-13.14-5.74a7.38,7.38,0,0,0,.55-1.46c0-.1,0-.22.08-.33Z" />
  <path class="BUNTAI_GOAT_JEWELRY_BUNTAI_GOAT_JEWELRY_13_cls-6" d="M242.82,386.8l-.33,1.89.1,2.53-14.4-2.41a9.64,9.64,0,0,0,.2-2Z" />
  <path class="BUNTAI_GOAT_JEWELRY_BUNTAI_GOAT_JEWELRY_13_cls-6" d="M242.49,384.91l.33,1.89H228.39a9.5,9.5,0,0,0-.2-2l14.4-2.42Z" />
  <path class="BUNTAI_GOAT_JEWELRY_BUNTAI_GOAT_JEWELRY_13_cls-6" d="M241.66,380l.93,2.35-14.4,2.42c0-.12-.05-.23-.08-.34a7.28,7.28,0,0,0-.55-1.45l13.14-5.74Z" />
  <path class="BUNTAI_GOAT_JEWELRY_BUNTAI_GOAT_JEWELRY_13_cls-6" d="M239.1,375l1.6,2.22L227.56,383l-.15-.27a6.7,6.7,0,0,0-1.15-1.49l11.45-8.45Z" />
  <path class="BUNTAI_GOAT_JEWELRY_BUNTAI_GOAT_JEWELRY_13_cls-6" d="M237.71,372.79l-11.45,8.45s-.1-.1-.16-.14a7.52,7.52,0,0,0-1.42-1l8.38-10.9,2.28,1.84Z" />
  <path class="BUNTAI_GOAT_JEWELRY_BUNTAI_GOAT_JEWELRY_13_cls-6" d="M233.06,369.17l-8.38,10.9-.44-.22a9.27,9.27,0,0,0-1.77-.65l4.37-12.42h0l3.22,1.26Z" />
  <path class="BUNTAI_GOAT_JEWELRY_BUNTAI_GOAT_JEWELRY_13_cls-6" d="M226.84,366.78l-4.37,12.42-.51-.12h0a7.18,7.18,0,0,0-.9-.13l2.25-12.53Z" />
  <path class="BUNTAI_GOAT_JEWELRY_BUNTAI_GOAT_JEWELRY_13_cls-7" d="M222,379.07a7.18,7.18,0,0,0-.9-.13l2.25-12.53,3.53.37h0l3.22,1.26,3,1.13,2.28,1.84,2.37,1.78L239.1,375l1.6,2.22,1,2.76.93,2.35-.1,2.54.33,1.89" />
  <path class="BUNTAI_GOAT_JEWELRY_BUNTAI_GOAT_JEWELRY_13_cls-7" d="M228.39,386.8a9.5,9.5,0,0,0-.2-2c0-.12-.05-.23-.08-.34a7.28,7.28,0,0,0-.55-1.45l-.15-.27a6.7,6.7,0,0,0-1.15-1.49s-.1-.1-.16-.14a7.52,7.52,0,0,0-1.42-1l-.44-.22a9.27,9.27,0,0,0-1.77-.65l-.51-.12" />
  <line class="BUNTAI_GOAT_JEWELRY_BUNTAI_GOAT_JEWELRY_13_cls-7" x1="227.56" y1="383" x2="240.7" y2="377.26" />
  <polyline class="BUNTAI_GOAT_JEWELRY_BUNTAI_GOAT_JEWELRY_13_cls-7" points="226.26 381.25 226.26 381.24 237.71 372.79" />
  <line class="BUNTAI_GOAT_JEWELRY_BUNTAI_GOAT_JEWELRY_13_cls-7" x1="224.68" y1="380.07" x2="233.06" y2="369.17" />
  <line class="BUNTAI_GOAT_JEWELRY_BUNTAI_GOAT_JEWELRY_13_cls-7" x1="222.47" y1="379.2" x2="226.84" y2="366.78" />
  <line class="BUNTAI_GOAT_JEWELRY_BUNTAI_GOAT_JEWELRY_13_cls-7" x1="228.19" y1="384.79" x2="242.59" y2="382.37" />
  <polyline class="BUNTAI_GOAT_JEWELRY_BUNTAI_GOAT_JEWELRY_13_cls-7" points="221.96 379.07 221.96 379.08 220.38 386.8" />
  <polyline class="BUNTAI_GOAT_JEWELRY_BUNTAI_GOAT_JEWELRY_13_cls-7" points="228.11 384.45 220.38 386.8 227.41 382.73" />
  <polyline class="BUNTAI_GOAT_JEWELRY_BUNTAI_GOAT_JEWELRY_13_cls-7" points="226.1 381.1 220.38 386.8 224.24 379.85" />
  <path class="BUNTAI_GOAT_JEWELRY_BUNTAI_GOAT_JEWELRY_13_cls-7" d="M222,394.52a7.18,7.18,0,0,1-.9.13l2.25,12.54,3.53-.37h0l3.22-1.27,3-1.13,2.28-1.84,2.37-1.78,1.39-2.25,1.6-2.21,1-2.77.93-2.35-.1-2.53.33-1.89H228.39a9.64,9.64,0,0,1-.2,2c0,.11-.05.23-.08.33a7.38,7.38,0,0,1-.55,1.46l-.15.27a6.64,6.64,0,0,1-1.15,1.48l-.16.15a7.46,7.46,0,0,1-1.42,1l-.44.23a10,10,0,0,1-1.77.65l-.51.12" />
  <line class="BUNTAI_GOAT_JEWELRY_BUNTAI_GOAT_JEWELRY_13_cls-7" x1="240.7" y1="396.34" x2="227.56" y2="390.6" />
  <polyline class="BUNTAI_GOAT_JEWELRY_BUNTAI_GOAT_JEWELRY_13_cls-7" points="237.71 400.81 226.26 392.35 226.26 392.35" />
  <line class="BUNTAI_GOAT_JEWELRY_BUNTAI_GOAT_JEWELRY_13_cls-7" x1="233.06" y1="404.42" x2="224.68" y2="393.52" />
  <line class="BUNTAI_GOAT_JEWELRY_BUNTAI_GOAT_JEWELRY_13_cls-7" x1="226.84" y1="406.82" x2="222.47" y2="394.4" />
  <line class="BUNTAI_GOAT_JEWELRY_BUNTAI_GOAT_JEWELRY_13_cls-7" x1="242.59" y1="391.22" x2="228.19" y2="388.81" />
  <polyline class="BUNTAI_GOAT_JEWELRY_BUNTAI_GOAT_JEWELRY_13_cls-7" points="221.96 394.52 221.96 394.52 220.38 386.8 228.4 386.8" />
  <polyline class="BUNTAI_GOAT_JEWELRY_BUNTAI_GOAT_JEWELRY_13_cls-7" points="228.11 389.14 220.38 386.8 227.41 390.87" />
  <polyline class="BUNTAI_GOAT_JEWELRY_BUNTAI_GOAT_JEWELRY_13_cls-7" points="226.1 392.5 220.38 386.8 224.24 393.75" />
  <path class="BUNTAI_GOAT_JEWELRY_BUNTAI_GOAT_JEWELRY_13_cls-8" d="M305.8,301.92c-2.91-2.2-5.73.89-5.73.89l2.45,1.84c-6.93,17.92-31.23,40.51-79.37,55.72-50.9-15.19-75.88-55.87-79.93-62.25l1.84-1.93s-1.67-3.28-5.37-.92c-1,1-.83,3-.29,4l.53.86h0s29.72,48.67,82.73,64.28a1.79,1.79,0,0,0,.51.07,1.89,1.89,0,0,0,.53-.08c51-16,76.44-40.95,83-60A2.5,2.5,0,0,0,305.8,301.92Z" />
  <path class="BUNTAI_GOAT_JEWELRY_BUNTAI_GOAT_JEWELRY_13_cls-9" d="M220.85,359.59l2.32.65s2.42-1.39,3.41.56.53,3.37-.76,4-3.2.08-3.56-1a4.81,4.81,0,0,0-2.23-.52s.93,3.68,4,4a4.59,4.59,0,0,0,5.31-4.27,4.54,4.54,0,0,0-2.5-4.74A4.63,4.63,0,0,0,220.85,359.59Z" />
  <path class="BUNTAI_GOAT_JEWELRY_BUNTAI_GOAT_JEWELRY_13_cls-10" d="M219.91,363.14a4.79,4.79,0,0,0,4.23,4.25l.47,0a4.63,4.63,0,0,0,3.17-1.24,4.82,4.82,0,0,0,1.57-3.37,1.1,1.1,0,0,0,0-.26,5,5,0,0,0-1.08-3.09,4.68,4.68,0,0,0-7.54.28l2.35.65a2.49,2.49,0,0,1,1.51-.5,2.45,2.45,0,0,1,1.43.44,2.68,2.68,0,0,1,.89,3.41,2.58,2.58,0,0,1-2.32,1.48,2.61,2.61,0,0,1-2.28-1.4h0Z" />
</svg>