<svg id="jewelry" xmlns="http://www.w3.org/2000/svg" viewBox="0 0 432 432">
  <defs>
    <style>.BUNTAI_GOAT_JEWELRY_BUNTAI_GOAT_JEWELRY_18_cls-1{fill:#e2cb6e;}.BUNTAI_GOAT_JEWELRY_BUNTAI_GOAT_JEWELRY_18_cls-2,.BUNTAI_GOAT_JEWELRY_BUNTAI_GOAT_JEWELRY_18_cls-6,.BUNTAI_GOAT_JEWELRY_BUNTAI_GOAT_JEWELRY_18_cls-9{fill:none;stroke-linecap:round;stroke-linejoin:round;}.BUNTAI_GOAT_JEWELRY_BUNTAI_GOAT_JEWELRY_18_cls-2,.BUNTAI_GOAT_JEWELRY_BUNTAI_GOAT_JEWELRY_18_cls-6,.BUNTAI_GOAT_JEWELRY_BUNTAI_GOAT_JEWELRY_18_cls-7,.BUNTAI_GOAT_JEWELRY_BUNTAI_GOAT_JEWELRY_18_cls-9{stroke:#000;}.BUNTAI_GOAT_JEWELRY_BUNTAI_GOAT_JEWELRY_18_cls-2{stroke-width:1.59px;}.BUNTAI_GOAT_JEWELRY_BUNTAI_GOAT_JEWELRY_18_cls-3{fill:#c32b2a;}.BUNTAI_GOAT_JEWELRY_BUNTAI_GOAT_JEWELRY_18_cls-4{fill:#bdb079;}.BUNTAI_GOAT_JEWELRY_BUNTAI_GOAT_JEWELRY_18_cls-5{fill:#273462;}.BUNTAI_GOAT_JEWELRY_BUNTAI_GOAT_JEWELRY_18_cls-6{stroke-width:1.8px;}.BUNTAI_GOAT_JEWELRY_BUNTAI_GOAT_JEWELRY_18_cls-7{fill:#754c24;stroke-miterlimit:10;stroke-width:1.3px;}.BUNTAI_GOAT_JEWELRY_BUNTAI_GOAT_JEWELRY_18_cls-8{fill:#333;}.BUNTAI_GOAT_JEWELRY_BUNTAI_GOAT_JEWELRY_18_cls-9{stroke-width:0.84px;}</style>
  </defs>
  <path class="BUNTAI_GOAT_JEWELRY_BUNTAI_GOAT_JEWELRY_18_cls-1" d="M252.5,267.74a12,12,0,0,1-9.76-19.06.58.58,0,0,1,.45-.24h0a.55.55,0,0,1,.44.23,22.94,22.94,0,0,1,2.12,3.18,1.75,1.75,0,0,0,.18.29.59.59,0,0,1,.05.56,6.91,6.91,0,0,0-.68,3,7.19,7.19,0,0,0,14.38,0,6.79,6.79,0,0,0-.39-2.31.59.59,0,0,1,.12-.58,10.61,10.61,0,0,0,2.22-3.5.54.54,0,0,1,.46-.36h.06a.56.56,0,0,1,.47.26,12,12,0,0,1-10.13,18.52Z" />
  <path d="M243.2,249a24,24,0,0,1,2.06,3.11,3.37,3.37,0,0,0,.22.35,7.51,7.51,0,0,0-.72,3.25,7.75,7.75,0,0,0,15.49,0,7.46,7.46,0,0,0-.42-2.5,11.5,11.5,0,0,0,2.33-3.69,11.47,11.47,0,1,1-19-.52m0-1.11h0a1.1,1.1,0,0,0-.89.46,12.59,12.59,0,1,0,20.81.56,1.12,1.12,0,0,0-.94-.51H262a1.1,1.1,0,0,0-.92.71,10.22,10.22,0,0,1-2.1,3.32,1.11,1.11,0,0,0-.24,1.15,6.41,6.41,0,0,1,.35,2.12,6.63,6.63,0,1,1-13.26,0,6.38,6.38,0,0,1,.62-2.77,1.12,1.12,0,0,0-.09-1.12,1.28,1.28,0,0,1-.14-.21,23.74,23.74,0,0,0-2.17-3.28,1.11,1.11,0,0,0-.89-.44Z" />
  <path class="BUNTAI_GOAT_JEWELRY_BUNTAI_GOAT_JEWELRY_18_cls-2" d="M262.16,249.52a11.5,11.5,0,0,1-2.33,3.69,7.46,7.46,0,0,1,.42,2.5,7.75,7.75,0,0,1-15.49,0,7.51,7.51,0,0,1,.72-3.25,3.37,3.37,0,0,1-.22-.35A24,24,0,0,0,243.2,249a11.48,11.48,0,1,0,19,.52Z" />
  <ellipse class="BUNTAI_GOAT_JEWELRY_BUNTAI_GOAT_JEWELRY_18_cls-3" cx="220.08" cy="378.84" rx="3.74" ry="3.79" />
  <path class="BUNTAI_GOAT_JEWELRY_BUNTAI_GOAT_JEWELRY_18_cls-4" d="M240.51,365.15l-5.41-4.09,3.38,4.57s2.76,18.79-18.4,31c-21.15-12.19-18.4-31-18.4-31l3.39-4.57-5.41,4.09s-4.27,27.37,20.42,34.54C244.77,392.52,240.51,365.15,240.51,365.15Z" />
  <path class="BUNTAI_GOAT_JEWELRY_BUNTAI_GOAT_JEWELRY_18_cls-4" d="M230.44,366.2c.59,3.44-.25,9.83-4.73,13.1A6.78,6.78,0,0,0,222,372v-4.69h-3.89V372a6.79,6.79,0,0,0-3.69,7.26c-4.49-3.27-5.31-9.66-4.73-13.1-4.07,6.21-3.61,13,4.24,17.89l-1.74,3.09a23.17,23.17,0,0,0,2.76,1.65c1.63-2.62,2-3.23,2-3.23a4.68,4.68,0,0,0,6.3,0s.32.61,1.94,3.23a21.61,21.61,0,0,0,2.76-1.65l-1.72-3.09C234.05,379.21,234.52,372.41,230.44,366.2Zm-10.36,16.43a3.79,3.79,0,1,1,3.75-3.79A3.76,3.76,0,0,1,220.08,382.63Z" />
  <path class="BUNTAI_GOAT_JEWELRY_BUNTAI_GOAT_JEWELRY_18_cls-5" d="M238.48,365.62l-3.38-4.56-6.58,3.54H211.64l-6.57-3.54-3.38,4.56s-2.76,18.81,18.39,31C241.24,384.43,238.48,365.62,238.48,365.62Zm-12.27,18.47,1.72,3.09a21.61,21.61,0,0,1-2.76,1.65c-1.62-2.62-1.94-3.23-1.94-3.23a4.68,4.68,0,0,1-6.3,0s-.32.61-2,3.23a23.17,23.17,0,0,1-2.76-1.65l1.74-3.09c-7.85-4.88-8.31-11.68-4.24-17.89-.58,3.44.24,9.83,4.73,13.1a6.79,6.79,0,0,1,3.69-7.26v-4.69H222V372a6.78,6.78,0,0,1,3.68,7.26c4.48-3.27,5.32-9.66,4.73-13.1C234.52,372.41,234.05,379.21,226.21,384.09Z" />
  <path class="BUNTAI_GOAT_JEWELRY_BUNTAI_GOAT_JEWELRY_18_cls-6" d="M220.08,382.63a3.8,3.8,0,0,1,0-7.59" />
  <path class="BUNTAI_GOAT_JEWELRY_BUNTAI_GOAT_JEWELRY_18_cls-6" d="M220.08,364.6h-8.44l-6.57-3.54-5.41,4.09s-4.27,27.37,20.42,34.54" />
  <path class="BUNTAI_GOAT_JEWELRY_BUNTAI_GOAT_JEWELRY_18_cls-6" d="M205.07,361.06l-3.39,4.57s-2.75,18.79,18.4,31" />
  <path class="BUNTAI_GOAT_JEWELRY_BUNTAI_GOAT_JEWELRY_18_cls-6" d="M220.08,367.35h-2v4.7a6.76,6.76,0,0,0-3.68,7.24c-4.48-3.26-5.32-9.64-4.73-13.08-4.07,6.19-3.61,13,4.24,17.88l-1.74,3.09a22.67,22.67,0,0,0,2.77,1.65c1.62-2.62,1.94-3.23,1.94-3.23a6.29,6.29,0,0,0,3.15,1.22" />
  <path class="BUNTAI_GOAT_JEWELRY_BUNTAI_GOAT_JEWELRY_18_cls-6" d="M220.08,375a3.8,3.8,0,0,1,0,7.59" />
  <path class="BUNTAI_GOAT_JEWELRY_BUNTAI_GOAT_JEWELRY_18_cls-6" d="M220.08,396.61v3.08c24.69-7.17,20.43-34.54,20.43-34.54l-5.41-4.09-6.58,3.54h-8.44" />
  <path class="BUNTAI_GOAT_JEWELRY_BUNTAI_GOAT_JEWELRY_18_cls-6" d="M235.1,361.06l3.38,4.57s2.76,18.79-18.4,31" />
  <path class="BUNTAI_GOAT_JEWELRY_BUNTAI_GOAT_JEWELRY_18_cls-6" d="M220.08,367.35H222v4.7a6.76,6.76,0,0,1,3.68,7.24c4.49-3.26,5.32-9.64,4.73-13.08,4.07,6.19,3.61,13-4.24,17.88l1.74,3.09a22.37,22.37,0,0,1-2.76,1.65c-1.63-2.62-2-3.23-2-3.23a6.29,6.29,0,0,1-3.15,1.22" />
  <path class="BUNTAI_GOAT_JEWELRY_BUNTAI_GOAT_JEWELRY_18_cls-7" d="M303.81,302c-3-2.13-5.09.85-5.09.85l1.89,1.45c-7.1,17.34-32.15,39.53-81.49,54.24-52.17-14.69-78-50.16-82.11-56.33l2.11-1.13s-1.94-3.91-5.72-1.62c-1.05.93-.85,2.91-.3,3.82,0,0,.21.34.54.83h0s30.66,43.19,85,58.29a1.81,1.81,0,0,0,.52.07,2,2,0,0,0,.54-.08c52.26-15.45,78.33-39.62,85.05-58A2.33,2.33,0,0,0,303.81,302Z" />
  <path class="BUNTAI_GOAT_JEWELRY_BUNTAI_GOAT_JEWELRY_18_cls-8" d="M216.15,357.7l2.36.64s2.46-1.37,3.47.55.54,3.3-.77,3.91-3.26.07-3.62-1a5.05,5.05,0,0,0-2.28-.51s.95,3.61,4.11,3.92a4.61,4.61,0,0,0,5.39-4.18,4.41,4.41,0,0,0-2.54-4.65A4.83,4.83,0,0,0,216.15,357.7Z" />
  <path class="BUNTAI_GOAT_JEWELRY_BUNTAI_GOAT_JEWELRY_18_cls-9" d="M215.19,361.18a4.79,4.79,0,0,0,4.31,4.17,3.75,3.75,0,0,0,.48,0,4.83,4.83,0,0,0,3.22-1.22,4.67,4.67,0,0,0,1.59-3.3,1.18,1.18,0,0,0,0-.26,4.76,4.76,0,0,0-1.09-3,4.87,4.87,0,0,0-3.74-1.74,4.79,4.79,0,0,0-3.93,2l2.39.63a2.64,2.64,0,0,1,4.18,2.13,2.43,2.43,0,0,1-.29,1.16,2.61,2.61,0,0,1-2.35,1.45,2.66,2.66,0,0,1-2.33-1.37h0Z" />
</svg>