<svg xmlns="http://www.w3.org/2000/svg" viewBox="0 0 432 432">
  <defs>
    <style>.BUNTAI_GOAT_JEWELRY_BUNTAI_GOAT_JEWELRY_31_cls-1{isolation:isolate;}.BUNTAI_GOAT_JEWELRY_BUNTAI_GOAT_JEWELRY_31_cls-2{fill:#c7a858;}.BUNTAI_GOAT_JEWELRY_BUNTAI_GOAT_JEWELRY_31_cls-13,.BUNTAI_GOAT_JEWELRY_BUNTAI_GOAT_JEWELRY_31_cls-3,.BUNTAI_GOAT_JEWELRY_BUNTAI_GOAT_JEWELRY_31_cls-6,.BUNTAI_GOAT_JEWELRY_BUNTAI_GOAT_JEWELRY_31_cls-7,.BUNTAI_GOAT_JEWELRY_BUNTAI_GOAT_JEWELRY_31_cls-9{fill:none;stroke-linecap:round;stroke-linejoin:round;}.BUNTAI_GOAT_JEWELRY_BUNTAI_GOAT_JEWELRY_31_cls-10,.BUNTAI_GOAT_JEWELRY_BUNTAI_GOAT_JEWELRY_31_cls-11,.BUNTAI_GOAT_JEWELRY_BUNTAI_GOAT_JEWELRY_31_cls-13,.BUNTAI_GOAT_JEWELRY_BUNTAI_GOAT_JEWELRY_31_cls-3,.BUNTAI_GOAT_JEWELRY_BUNTAI_GOAT_JEWELRY_31_cls-6,.BUNTAI_GOAT_JEWELRY_BUNTAI_GOAT_JEWELRY_31_cls-7,.BUNTAI_GOAT_JEWELRY_BUNTAI_GOAT_JEWELRY_31_cls-9{stroke:#000;}.BUNTAI_GOAT_JEWELRY_BUNTAI_GOAT_JEWELRY_31_cls-3{stroke-width:0.85px;}.BUNTAI_GOAT_JEWELRY_BUNTAI_GOAT_JEWELRY_31_cls-4{fill:#d2a548;}.BUNTAI_GOAT_JEWELRY_BUNTAI_GOAT_JEWELRY_31_cls-5{fill:#5897a8;}.BUNTAI_GOAT_JEWELRY_BUNTAI_GOAT_JEWELRY_31_cls-6{stroke-width:0.34px;}.BUNTAI_GOAT_JEWELRY_BUNTAI_GOAT_JEWELRY_31_cls-7{stroke-width:0.89px;}.BUNTAI_GOAT_JEWELRY_BUNTAI_GOAT_JEWELRY_31_cls-8{opacity:0.43;mix-blend-mode:multiply;}.BUNTAI_GOAT_JEWELRY_BUNTAI_GOAT_JEWELRY_31_cls-9{stroke-width:0.79px;}.BUNTAI_GOAT_JEWELRY_BUNTAI_GOAT_JEWELRY_31_cls-10{fill:#fff;}.BUNTAI_GOAT_JEWELRY_BUNTAI_GOAT_JEWELRY_31_cls-10,.BUNTAI_GOAT_JEWELRY_BUNTAI_GOAT_JEWELRY_31_cls-11{stroke-miterlimit:10;stroke-width:0.86px;}.BUNTAI_GOAT_JEWELRY_BUNTAI_GOAT_JEWELRY_31_cls-11{fill:#754c24;}.BUNTAI_GOAT_JEWELRY_BUNTAI_GOAT_JEWELRY_31_cls-12{fill:#333;}.BUNTAI_GOAT_JEWELRY_BUNTAI_GOAT_JEWELRY_31_cls-13{stroke-width:0.65px;}</style>
  </defs>
  <g class="BUNTAI_GOAT_JEWELRY_BUNTAI_GOAT_JEWELRY_31_cls-1">
    <g id="jewelry">
      <path class="BUNTAI_GOAT_JEWELRY_BUNTAI_GOAT_JEWELRY_31_cls-2" d="M144.07,235.14c-1.64,0-1.37-2.24-1.37-2.24h0a4.51,4.51,0,0,0,2,.42,1.87,1.87,0,0,0,.9-.22C145.62,233.23,145.65,235.14,144.07,235.14Z" />
      <path class="BUNTAI_GOAT_JEWELRY_BUNTAI_GOAT_JEWELRY_31_cls-2" d="M146.89,226.33c.6,2,.47,5.81-1.28,6.77a1.87,1.87,0,0,1-.9.22,4.51,4.51,0,0,1-2-.42c-1.5-.73-2.26-2.43-2.16-5a8.44,8.44,0,0,1,.47-2.52,5.37,5.37,0,0,1,1.46-2.27,1.83,1.83,0,0,1,1.34-.55,2.27,2.27,0,0,1,1.63,1,3.48,3.48,0,0,1-.73.13h0a4.21,4.21,0,0,0-1.83,2.83c-.46,2.19.31,4.65,1.41,4.65s1.25-2.86,1.18-4.37l.09,0A5.49,5.49,0,0,0,146.89,226.33Z" />
      <path class="BUNTAI_GOAT_JEWELRY_BUNTAI_GOAT_JEWELRY_31_cls-2" d="M142.47,223.1a5.29,5.29,0,0,0-1.47,2.27,6.12,6.12,0,0,1-2-5.69c.6.17,1.58.43,2.48.65a2.77,2.77,0,0,0,.28,2A2.2,2.2,0,0,0,142.47,223.1Z" />
      <path class="BUNTAI_GOAT_JEWELRY_BUNTAI_GOAT_JEWELRY_31_cls-2" d="M149.51,222.79a4.73,4.73,0,0,1-2.62,3.54,5.49,5.49,0,0,1-1.37.41l-.1,0a5,5,0,0,1-2.58-.28,4.18,4.18,0,0,1,1.83-2.83h0a4.29,4.29,0,0,0,.73-.14,2.17,2.17,0,0,0,1.52-1.32,1.79,1.79,0,0,0,.09-.57c0-2.33-.92-2.44-.92-2.44s0-.13-.11-.32a3,3,0,0,1,2.33-2A7.94,7.94,0,0,1,149.51,222.79Z" />
      <path class="BUNTAI_GOAT_JEWELRY_BUNTAI_GOAT_JEWELRY_31_cls-3" d="M141,225.37a6.12,6.12,0,0,1-2-5.69l2.48.65a2.77,2.77,0,0,0,.28,2,2.2,2.2,0,0,0,.73.81" />
      <path class="BUNTAI_GOAT_JEWELRY_BUNTAI_GOAT_JEWELRY_31_cls-3" d="M142.84,226.48a5,5,0,0,0,2.58.28l.1,0a5.49,5.49,0,0,0,1.37-.41,4.73,4.73,0,0,0,2.62-3.54,7.94,7.94,0,0,0-1.16-5.88" />
      <path class="BUNTAI_GOAT_JEWELRY_BUNTAI_GOAT_JEWELRY_31_cls-3" d="M146,218.86c.06.19.11.32.11.32s.89.11.92,2.44a1.79,1.79,0,0,1-.09.57,2.17,2.17,0,0,1-1.52,1.32,4.29,4.29,0,0,1-.73.14" />
      <path class="BUNTAI_GOAT_JEWELRY_BUNTAI_GOAT_JEWELRY_31_cls-3" d="M146.89,226.33c.6,2,.47,5.81-1.28,6.77a1.87,1.87,0,0,1-.9.22,4.51,4.51,0,0,1-2-.42c-1.5-.73-2.26-2.43-2.16-5a8.44,8.44,0,0,1,.47-2.52,5.37,5.37,0,0,1,1.46-2.27,1.83,1.83,0,0,1,1.34-.55,2.27,2.27,0,0,1,1.63,1" />
      <path class="BUNTAI_GOAT_JEWELRY_BUNTAI_GOAT_JEWELRY_31_cls-3" d="M145.43,226.76c.07,1.51.06,4.37-1.18,4.37s-1.87-2.46-1.41-4.65a4.21,4.21,0,0,1,1.83-2.83h0" />
      <path class="BUNTAI_GOAT_JEWELRY_BUNTAI_GOAT_JEWELRY_31_cls-3" d="M142.7,232.9s-.27,2.24,1.37,2.24,1.55-1.91,1.54-2h0" />
      <path class="BUNTAI_GOAT_JEWELRY_BUNTAI_GOAT_JEWELRY_31_cls-3" d="M146.19,221.26a3.14,3.14,0,0,1-.34-1.4,3,3,0,0,1,2.5-3,2.76,2.76,0,0,1,.51,0,2,2,0,0,1,2,1.51" />
      <path class="BUNTAI_GOAT_JEWELRY_BUNTAI_GOAT_JEWELRY_31_cls-4" d="M148.83,244.53a4.8,4.8,0,0,1-2.34,4.12,4.82,4.82,0,0,0-.78-1.66,3,3,0,1,0-3.33,0,4.65,4.65,0,0,0-.78,1.66,4.79,4.79,0,1,1,7.23-4.12Z" />
      <path class="BUNTAI_GOAT_JEWELRY_BUNTAI_GOAT_JEWELRY_31_cls-5" d="M160.6,268.85a35.92,35.92,0,0,1-12.12-6.61,9.58,9.58,0,0,1-1.93-2c-1.2-1.78-1.25-4.05-1.24-6.21v-.19s.21-2.51-.36-3.11-2-.84-2.31,1.09c0,0-.09.65-.33,1.69-.59,2.54-2.12,7.34-5.68,10.42h0a27.72,27.72,0,0,1-11.57,2.66,4.33,4.33,0,0,0-.1,1.75c-.78.09-1.56.15-2.34.19a3.28,3.28,0,0,0-.43,1.37,1.41,1.41,0,0,0,.43,1,1.51,1.51,0,0,0,1,.38,1.55,1.55,0,0,0,.1,1.33v0a1.87,1.87,0,0,0,.75.67,5.81,5.81,0,0,0,.93.37,5.66,5.66,0,0,0-.16.82h0a7.58,7.58,0,0,0-.07,1.17,2,2,0,0,1,1.27,1.14,3.84,3.84,0,0,1,.25,1.91l.52.11,1,.25c0,.27.08.53.12.81a1.8,1.8,0,0,1,.85.29,3.12,3.12,0,0,1,.79.79,2.32,2.32,0,0,1,.31,2l.21,0a1.53,1.53,0,0,1,1.28.38,1.74,1.74,0,0,1,.22.18,3.23,3.23,0,0,0,1.32,1,2.47,2.47,0,0,0,1,0,.58.58,0,0,1,.19,0,6.06,6.06,0,0,1,5.86,2.68c.12.2.24.4.34.6a6.67,6.67,0,0,1,.31.66,1.66,1.66,0,0,0,.49.72c.23-.26.51-.43.74-.7a4.45,4.45,0,0,1,1-.89,1.46,1.46,0,0,1,1.26-.18,2.44,2.44,0,0,1,1.45-.69,2.41,2.41,0,0,1,1.77.47,4,4,0,0,1,4.51-.43,2,2,0,0,1,0-.24,2.54,2.54,0,0,1,1.46-1.76,2,2,0,0,0,.67-.32c.29-.3.23-.81.4-1.19v0a2.08,2.08,0,0,1,.75-.78,2.28,2.28,0,0,0,.79-.75.76.76,0,0,0-.17-1s0-.07,0-.11c.08-.41.28-.86.34-1.27l.11-.69a6,6,0,0,1,.32-1.31,2,2,0,0,1,.89-1,.43.43,0,0,1,.13-.05c.23-.08.48-.12.71-.2a.86.86,0,0,0,.6-.57c.11-.42-.28-.78-.5-1.15a1.72,1.72,0,0,1-.22-1,1.78,1.78,0,0,1,.58-1.17c.26-.21.57-.35.84-.53a1.28,1.28,0,0,0,.54-.68s0-.07,0-.1,0-.06,0-.1A2.78,2.78,0,0,1,160.6,268.85Z" />
      <path class="BUNTAI_GOAT_JEWELRY_BUNTAI_GOAT_JEWELRY_31_cls-4" d="M146.69,250.3a5,5,0,0,1-1.38,3.74v-.19s.21-2.51-.36-3.11-2-.84-2.31,1.09c0,0-.09.65-.33,1.69a5.56,5.56,0,0,1-.91-3.22,6.66,6.66,0,0,1,.2-1.65,4.65,4.65,0,0,1,.78-1.66,1.94,1.94,0,0,1,3.33,0,4.82,4.82,0,0,1,.78,1.66A6.66,6.66,0,0,1,146.69,250.3Z" />
      <path class="BUNTAI_GOAT_JEWELRY_BUNTAI_GOAT_JEWELRY_31_cls-6" d="M146.72,262.67a21.86,21.86,0,0,0,7.27,4.94,67,67,0,0,1,6.51,3.26" />
      <path class="BUNTAI_GOAT_JEWELRY_BUNTAI_GOAT_JEWELRY_31_cls-6" d="M158.54,273.25a85.57,85.57,0,0,0-7.5-5.79" />
      <path class="BUNTAI_GOAT_JEWELRY_BUNTAI_GOAT_JEWELRY_31_cls-6" d="M148.56,267.33a38,38,0,0,1,9.39,8.86" />
      <path class="BUNTAI_GOAT_JEWELRY_BUNTAI_GOAT_JEWELRY_31_cls-6" d="M145.63,264.93c1.53,2.6,3.25,5.09,5,7.57l3.87,5.63c.56.8,1.11,1.6,1.7,2.37" />
      <path class="BUNTAI_GOAT_JEWELRY_BUNTAI_GOAT_JEWELRY_31_cls-6" d="M152.24,286.41a71.22,71.22,0,0,1-7.71-20.49l-.07-.34a51.48,51.48,0,0,0,10.31,17.56" />
      <path class="BUNTAI_GOAT_JEWELRY_BUNTAI_GOAT_JEWELRY_31_cls-6" d="M145.92,286.61a71.51,71.51,0,0,1-2.35-20.49" />
      <path class="BUNTAI_GOAT_JEWELRY_BUNTAI_GOAT_JEWELRY_31_cls-6" d="M138.24,285.12h0a55,55,0,0,0,4.24-19l0-.55" />
      <path class="BUNTAI_GOAT_JEWELRY_BUNTAI_GOAT_JEWELRY_31_cls-6" d="M142.23,274.43a50.7,50.7,0,0,1-1.51,13.26" />
      <path class="BUNTAI_GOAT_JEWELRY_BUNTAI_GOAT_JEWELRY_31_cls-6" d="M131.78,283.27a78.72,78.72,0,0,0,6.77-12.76h0c.17-.39.33-.8.48-1.2q1.13-2.76,2-5.61" />
      <path class="BUNTAI_GOAT_JEWELRY_BUNTAI_GOAT_JEWELRY_31_cls-6" d="M134.33,284.44a21.85,21.85,0,0,0,2.59-5.32,58.78,58.78,0,0,0,1.93-8.48" />
      <path class="BUNTAI_GOAT_JEWELRY_BUNTAI_GOAT_JEWELRY_31_cls-6" d="M127.22,278.83a42.91,42.91,0,0,0,10.67-10" />
      <path class="BUNTAI_GOAT_JEWELRY_BUNTAI_GOAT_JEWELRY_31_cls-6" d="M132.79,276.26l-3.6,3.92" />
      <path class="BUNTAI_GOAT_JEWELRY_BUNTAI_GOAT_JEWELRY_31_cls-6" d="M125.26,274.5a75,75,0,0,0,12.47-7.82" />
      <path class="BUNTAI_GOAT_JEWELRY_BUNTAI_GOAT_JEWELRY_31_cls-6" d="M123.74,272.62a81.5,81.5,0,0,0,9.12-4.3" />
      <path class="BUNTAI_GOAT_JEWELRY_BUNTAI_GOAT_JEWELRY_31_cls-7" d="M142.31,253.52a5.56,5.56,0,0,1-.91-3.22,6.66,6.66,0,0,1,.2-1.65,4.65,4.65,0,0,1,.78-1.66,1.94,1.94,0,0,1,3.33,0,4.82,4.82,0,0,1,.78,1.66,6.66,6.66,0,0,1,.2,1.65,5,5,0,0,1-1.38,3.74" />
      <path class="BUNTAI_GOAT_JEWELRY_BUNTAI_GOAT_JEWELRY_31_cls-7" d="M136.63,263.94a26.63,26.63,0,0,0,3.42-1.91" />
      <path class="BUNTAI_GOAT_JEWELRY_BUNTAI_GOAT_JEWELRY_31_cls-7" d="M125,268.36a4.33,4.33,0,0,1,.1-1.75A27.72,27.72,0,0,0,136.63,264" />
      <path class="BUNTAI_GOAT_JEWELRY_BUNTAI_GOAT_JEWELRY_31_cls-7" d="M136.63,264h0c3.56-3.08,5.09-7.88,5.68-10.42.24-1,.33-1.69.33-1.69.28-1.93,1.74-1.69,2.31-1.09s.36,3.11.36,3.11V254c0,2.16,0,4.43,1.24,6.21a9.58,9.58,0,0,0,1.93,2,35.92,35.92,0,0,0,12.12,6.61,2.78,2.78,0,0,0-.07,1.82s0,.06,0,.1,0,.07,0,.1a1.28,1.28,0,0,1-.54.68c-.27.18-.58.32-.84.53a1.78,1.78,0,0,0-.58,1.17,1.72,1.72,0,0,0,.22,1c.22.37.61.73.5,1.15a.86.86,0,0,1-.6.57c-.23.08-.48.12-.71.2a.43.43,0,0,0-.13.05,2,2,0,0,0-.89,1,6,6,0,0,0-.32,1.31l-.11.69c-.06.41-.26.86-.34,1.27,0,0,0,.07,0,.11a.76.76,0,0,1,.17,1,2.28,2.28,0,0,1-.79.75,2.08,2.08,0,0,0-.75.78v0c-.17.38-.11.89-.4,1.19a2,2,0,0,1-.67.32,2.54,2.54,0,0,0-1.46,1.76,2,2,0,0,0,0,.24,4,4,0,0,0-4.51.43,2.41,2.41,0,0,0-1.77-.47,2.44,2.44,0,0,0-1.45.69,1.46,1.46,0,0,0-1.26.18,4.45,4.45,0,0,0-1,.89c-.23.27-.51.44-.74.7a1.66,1.66,0,0,1-.49-.72,6.67,6.67,0,0,0-.31-.66c-.1-.2-.22-.4-.34-.6a6.06,6.06,0,0,0-5.86-2.68.58.58,0,0,0-.19,0,2.47,2.47,0,0,1-1,0,3.23,3.23,0,0,1-1.32-1,1.74,1.74,0,0,0-.22-.18,1.53,1.53,0,0,0-1.28-.38l-.21,0a2.32,2.32,0,0,0-.31-2,3,3,0,0,0-.79-.79,1.8,1.8,0,0,0-.85-.29c0-.28-.08-.54-.12-.81l-1-.25-.52-.11a3.84,3.84,0,0,0-.25-1.91,2,2,0,0,0-1.27-1.14,7.58,7.58,0,0,1,.07-1.17h0a5.66,5.66,0,0,1,.16-.82,5.81,5.81,0,0,1-.93-.37,1.87,1.87,0,0,1-.75-.67v0a1.55,1.55,0,0,1-.1-1.33,1.51,1.51,0,0,1-1-.38,1.41,1.41,0,0,1-.43-1,3.28,3.28,0,0,1,.43-1.37c.78,0,1.56-.1,2.34-.19a38.27,38.27,0,0,0,14.84-4.94" />
      <path class="BUNTAI_GOAT_JEWELRY_BUNTAI_GOAT_JEWELRY_31_cls-7" d="M142.38,247a3,3,0,1,1,3.33,0" />
      <path class="BUNTAI_GOAT_JEWELRY_BUNTAI_GOAT_JEWELRY_31_cls-7" d="M146.49,248.65a4.79,4.79,0,1,0-4.89,0" />
      <g class="BUNTAI_GOAT_JEWELRY_BUNTAI_GOAT_JEWELRY_31_cls-8">
        <path d="M144.05,239.75a1.51,1.51,0,0,0,0,2c-1.83.23-4.42,2-1.67,5.27a4.32,4.32,0,0,1,1.88-.94s-1.86,2.31-.21,4.26c-.15,1.39-2,12.72-3.33,17s-1.87,5.72-1.87,5.72a25.26,25.26,0,0,0,3.39-7.74,136.52,136.52,0,0,1-3.39,15.19c-.7,2.53-1.38,4.26-1.38,4.26a19.39,19.39,0,0,0-3.7-.32c-.93.15-2.41-1.45-2.9-1.76a1.89,1.89,0,0,1-.58-.45,3.13,3.13,0,0,0-1.8-2.59c-.51-.8-.62-.81-.62-.81l-1-.19a3.54,3.54,0,0,0-1.71-3.13c0-1.58,0-2,0-2a2.32,2.32,0,0,1-1.8-2.21C122.12,270.52,122,270,122,270l.61-1.62s.88.88,7.39.3a15.11,15.11,0,0,0,9.81-4.54s-7.32,3.19-11.44,3.68a30.48,30.48,0,0,1-4,.36l.61-1.55s6.31.3,11-2.53a16.62,16.62,0,0,0,5.67-8.11c.93-3.09.37-3,.37-3a3.84,3.84,0,0,1-.73-3.78c-.5-1.05-2.27-3.33-2.27-3.4s-.35-3.51,1.55-4.67A10.13,10.13,0,0,1,144.05,239.75Z" />
        <path d="M143.54,267.12s-.7,14.05.72,20.13c1.08-.51,2.32-1.06,3.45,0C144.38,274.43,143.43,270.24,143.54,267.12Z" />
      </g>
      <line class="BUNTAI_GOAT_JEWELRY_BUNTAI_GOAT_JEWELRY_31_cls-9" x1="144.17" y1="239.75" x2="144.17" y2="235.14" />
      <path class="BUNTAI_GOAT_JEWELRY_BUNTAI_GOAT_JEWELRY_31_cls-10" d="M186.65,401.22l1.49.52c.82.28,1.93.66,3.24,1.09l1.12.37,1.5.49.33.1,1.08.35,2.48.76,1.8.54,2.24.63.71.2.77.2,1.61.4.86.2,1,.22c.55-1.83,1.11-3.41,1.11-3.41l-1-.27h0l-.7-.19-.31-.09-1.88-.51-1.38-.39-1.9-.53-2.82-.8-1.14-.32-1.82-.55-.49-.15-.71-.22-1.07-.34c-.45-.15-.89-.3-1.32-.43l-.81-.28-1.19-.4-.09,0-1.8-.62a6.92,6.92,0,0,0-1.13,2A2.54,2.54,0,0,0,186.65,401.22Z" />
      <polyline class="BUNTAI_GOAT_JEWELRY_BUNTAI_GOAT_JEWELRY_31_cls-10" points="207.98 403.88 208.9 401.63 209.47 401.75 209.02 404.4 208.46 404.28 207.66 407.07 208.18 407.18 206.94 409.52 206.5 409.33 206.87 407.29" />
      <line class="BUNTAI_GOAT_JEWELRY_BUNTAI_GOAT_JEWELRY_31_cls-10" x1="209.99" y1="404.59" x2="209.02" y2="404.4" />
      <line class="BUNTAI_GOAT_JEWELRY_BUNTAI_GOAT_JEWELRY_31_cls-10" x1="209.22" y1="407.39" x2="208.18" y2="407.18" />
      <path class="BUNTAI_GOAT_JEWELRY_BUNTAI_GOAT_JEWELRY_31_cls-10" d="M207,403.61s-.74,2.15-1.1,3.46" />
      <path class="BUNTAI_GOAT_JEWELRY_BUNTAI_GOAT_JEWELRY_31_cls-10" d="M188.14,401.74a11.38,11.38,0,0,1,1.3-3.33" />
      <path class="BUNTAI_GOAT_JEWELRY_BUNTAI_GOAT_JEWELRY_31_cls-10" d="M188.76,402s1-1.44,1.87-3.14" />
      <path class="BUNTAI_GOAT_JEWELRY_BUNTAI_GOAT_JEWELRY_31_cls-10" d="M191.44,399.09a6.26,6.26,0,0,1-1.12,3.39" />
      <path class="BUNTAI_GOAT_JEWELRY_BUNTAI_GOAT_JEWELRY_31_cls-10" d="M193.83,399.86a20.38,20.38,0,0,1-1.33,3.34" />
      <path class="BUNTAI_GOAT_JEWELRY_BUNTAI_GOAT_JEWELRY_31_cls-10" d="M192.76,399.52a5.68,5.68,0,0,1-1.38,3.31" />
      <path class="BUNTAI_GOAT_JEWELRY_BUNTAI_GOAT_JEWELRY_31_cls-10" d="M194.54,400.08a17.77,17.77,0,0,1-.15,3.27l-.06.44" />
      <path class="BUNTAI_GOAT_JEWELRY_BUNTAI_GOAT_JEWELRY_31_cls-10" d="M194,403.69l.39-.34a17,17,0,0,0,2.46-2.57" />
      <path class="BUNTAI_GOAT_JEWELRY_BUNTAI_GOAT_JEWELRY_31_cls-10" d="M198,401.1l-.21.29a19.91,19.91,0,0,1-2.37,2.75" />
      <path class="BUNTAI_GOAT_JEWELRY_BUNTAI_GOAT_JEWELRY_31_cls-10" d="M197.78,401.39a5.23,5.23,0,0,1,.24,2.29c0,.42-.08.84-.13,1.22" />
      <path class="BUNTAI_GOAT_JEWELRY_BUNTAI_GOAT_JEWELRY_31_cls-10" d="M198,403.68a7.77,7.77,0,0,0,1.76-1l.48-.36.55-.46" />
      <path class="BUNTAI_GOAT_JEWELRY_BUNTAI_GOAT_JEWELRY_31_cls-10" d="M199.78,402.72a7.68,7.68,0,0,1-.09,2.72" />
      <path class="BUNTAI_GOAT_JEWELRY_BUNTAI_GOAT_JEWELRY_31_cls-10" d="M202.71,402.43a7.7,7.7,0,0,1-.44,2.85c-.1.26-.21.52-.34.79" />
      <path class="BUNTAI_GOAT_JEWELRY_BUNTAI_GOAT_JEWELRY_31_cls-10" d="M200.26,402.36a12.81,12.81,0,0,1,2,2.92" />
      <path class="BUNTAI_GOAT_JEWELRY_BUNTAI_GOAT_JEWELRY_31_cls-10" d="M206.28,403.42a11.41,11.41,0,0,1-1.26,3.45" />
      <path class="BUNTAI_GOAT_JEWELRY_BUNTAI_GOAT_JEWELRY_31_cls-10" d="M206,403.33a12.16,12.16,0,0,1-2.56,3.14" />
      <line class="BUNTAI_GOAT_JEWELRY_BUNTAI_GOAT_JEWELRY_31_cls-10" x1="202.64" y1="406.27" x2="204.09" y2="402.82" />
      <path class="BUNTAI_GOAT_JEWELRY_BUNTAI_GOAT_JEWELRY_31_cls-10" d="M260.07,408.34a43.59,43.59,0,0,1-15,3.33c-15.63,1.06-33.28-2.89-36.09-3.55l1.16-4.23c2.48.59,26.14,7,50.95,1.79C262.47,405.4,261.29,407.78,260.07,408.34Z" />
      <line class="BUNTAI_GOAT_JEWELRY_BUNTAI_GOAT_JEWELRY_31_cls-10" x1="210.18" y1="403.89" x2="209.02" y2="408.12" />
      <path class="BUNTAI_GOAT_JEWELRY_BUNTAI_GOAT_JEWELRY_31_cls-11" d="M223.14,403.57a1.32,1.32,0,0,1-.34,0c-42-8.88-62.89-34.49-73-54.41-10.91-21.53-13.44-46.59-13.45-46.78a3.47,3.47,0,0,1,1.36-2.5c1.34-.68,2-.68,3.56.89-.77.84-1.29,1.45-1.93,2.28,0,.2,2.48,24.06,13.19,45.15,9.8,19.29,30,44.08,70.52,52.79,42.78-13.26,62.35-38.25,71.24-56.91,9.67-20.3,9.24-36.31,9.15-36.47-.52-.77-1-1.63-1.54-2.29a3.13,3.13,0,0,1,3-.82c1.36.23,1.47,2.33,1.5,3s.53,16.73-9.37,37.53c-9.15,19.2-29.31,44.94-73.39,58.48A2,2,0,0,1,223.14,403.57Z" />
      <path class="BUNTAI_GOAT_JEWELRY_BUNTAI_GOAT_JEWELRY_31_cls-12" d="M219.74,400.08l2,.47s2.07-1,2.91.41.46,2.45-.64,2.9-2.74.05-3.05-.73a4.62,4.62,0,0,0-1.92-.37,4.22,4.22,0,0,0,3.46,2.9c2.65.24,4.28-1.2,4.54-3.1a3.24,3.24,0,0,0-2.14-3.45A4.44,4.44,0,0,0,219.74,400.08Z" />
      <path class="BUNTAI_GOAT_JEWELRY_BUNTAI_GOAT_JEWELRY_31_cls-13" d="M218.93,402.66a3.83,3.83,0,0,0,3.63,3.09l.4,0a4.41,4.41,0,0,0,2.71-.9,3.32,3.32,0,0,0,1.34-2.45.65.65,0,0,0,0-.19,3.32,3.32,0,0,0-.92-2.25,4.37,4.37,0,0,0-3.15-1.29,4.25,4.25,0,0,0-3.31,1.49l2,.47a2.49,2.49,0,0,1,2.51,0,1.86,1.86,0,0,1,1,1.62,1.64,1.64,0,0,1-.24.86,2.24,2.24,0,0,1-2,1.07,2.28,2.28,0,0,1-2-1h0Z" />
    </g>
  </g>
</svg>