<svg xmlns="http://www.w3.org/2000/svg" viewBox="0 0 432 432">
  <defs>
    <style>.BUNTAI_GOAT_OUTFIT_BUNTAI_GOAT_OUTFIT_29_cls-1{isolation:isolate;}.BUNTAI_GOAT_OUTFIT_BUNTAI_GOAT_OUTFIT_29_cls-2{fill:#fcf3da;}.BUNTAI_GOAT_OUTFIT_BUNTAI_GOAT_OUTFIT_29_cls-3{fill:#1cc6ae;}.BUNTAI_GOAT_OUTFIT_BUNTAI_GOAT_OUTFIT_29_cls-4{fill:#d8b144;}.BUNTAI_GOAT_OUTFIT_BUNTAI_GOAT_OUTFIT_29_cls-5{fill:#ded2ba;}.BUNTAI_GOAT_OUTFIT_BUNTAI_GOAT_OUTFIT_29_cls-6{fill:#522312;}.BUNTAI_GOAT_OUTFIT_BUNTAI_GOAT_OUTFIT_29_cls-7,.BUNTAI_GOAT_OUTFIT_BUNTAI_GOAT_OUTFIT_29_cls-8,.BUNTAI_GOAT_OUTFIT_BUNTAI_GOAT_OUTFIT_29_cls-9{fill:none;stroke:#000;stroke-linecap:round;stroke-linejoin:round;}.BUNTAI_GOAT_OUTFIT_BUNTAI_GOAT_OUTFIT_29_cls-7{stroke-width:1.59px;}.BUNTAI_GOAT_OUTFIT_BUNTAI_GOAT_OUTFIT_29_cls-8{stroke-width:1.43px;stroke-dasharray:4.08;}.BUNTAI_GOAT_OUTFIT_BUNTAI_GOAT_OUTFIT_29_cls-9{stroke-width:2.38px;}.BUNTAI_GOAT_OUTFIT_BUNTAI_GOAT_OUTFIT_29_cls-10{opacity:0.43;mix-blend-mode:multiply;}</style>
  </defs>
  <g class="BUNTAI_GOAT_OUTFIT_BUNTAI_GOAT_OUTFIT_29_cls-1">
    <g id="outfit">
      <path class="BUNTAI_GOAT_OUTFIT_BUNTAI_GOAT_OUTFIT_29_cls-2" d="M298.91,466.94c-22.37,8.35-32.75,4.48-57.89,3.64a280.93,280.93,0,0,0-32.25.83q-2.94.22-6.07.54-5.52.51-11.72,1.29c-1.35.16-2.75.35-4.18.55s-3,.4-4.59.62c-28.77,4.1-46.64-2.21-53.72-5.57-8-9.64-15.37-32.35-12.91-54.88,1.77-16.32,8.69-32.54,24.24-43.61,41.83,1.27,106.24,1.53,150.34-5.36C290.16,365,322.79,391.13,298.91,466.94Z" />
      <path class="BUNTAI_GOAT_OUTFIT_BUNTAI_GOAT_OUTFIT_29_cls-3" d="M301.74,309.06c-.18.11-.37.23-.55.36l-1.8,1.18c-.34.23-3.29,2-3.64,2.24l-.5.33-1.53,1-.5.32-1,.65-.14.09-1.34.83-1,.64c-.55.33-1.12.68-1.7,1.05l-.55.34-1.23.76c-2.41,1.49-5,3.07-7.36,4.59l-2.64,1.68c-.75.48-1.47.94-2.15,1.39l-1,.66-.95.63-1.16.8-.6.42c-.71.49-1.42,1-2.14,1.52-2,1.43-4.06,2.92-6.15,4.44l-2,1.44-1.17.87-1.63,1.2q-2.85,2.11-5.74,4.3l-2.3,1.75-.63.48c-.89.67-1.77,1.35-2.65,2-1.1.85-2.21,1.7-3.31,2.57-1.66,1.31-3.35,2.64-5,4h0c-7.19.26-14.65.44-22.06.57l.11-.11q2.16-1.81,4.32-3.59c-7-4.63-13.94-9-20.79-13.17l-4.08-2.46-2.05-1.2c-1.35-.81-2.69-1.59-4-2.37l-2-1.16q-2-1.16-4-2.27t-3.92-2.21l-3.84-2.14h0c-1.28-.71-2.54-1.4-3.79-2.07l-3.71-2-3.62-1.93-3.55-1.87c-5.25-2.74-13-6.37-17.48-8.61l-1.49-.74-.73-.35-.25-.12-.47-.24h0l-1.24-.61c1.29-1.61,2.38-3.09,3.29-4.43a45.72,45.72,0,0,0,3.9-6.7C167.22,304,200.7,321.18,231,341.55l2.39-1.87,2.31-1.8q4.77-3.69,9.43-7.15l2.29-1.71c1.53-1.13,3.05-2.24,4.54-3.32l4.87-3.51,1.73-1.24q2.16-1.54,4.27-3c2.8-2,5.53-3.85,8.14-5.63l1.9-1.28c5.1-3.46,18.14-11,22.2-13.64l.63-.39.17-.11h0a31.43,31.43,0,0,0,2.27,5.8,61.09,61.09,0,0,0,3.47,6.17A1.74,1.74,0,0,0,301.74,309.06Z" />
      <path class="BUNTAI_GOAT_OUTFIT_BUNTAI_GOAT_OUTFIT_29_cls-4" d="M304.88,313.59l-.46.28-1.64,1-1.73,1-1.4.85-4.08,2.46-2,1.24-1.71,1-.72.44-.53.33-1.72,1.06c-2.17,1.35-4.07,2.57-5.47,3.52L280.22,329c-2.16,1.48-4.38,3-6.68,4.64l-1.74,1.23c-5.24,3.71-10.81,7.76-16.62,12.12l-2.83,2.13-1.67,1.27c-1.13.86-2.25,1.72-3.38,2.6a2,2,0,0,0-.28.23h0l-5.14.22h0l-4.21.16c1.69-1.35,3.38-2.68,5-4,1.1-.87,2.21-1.72,3.31-2.57.88-.69,1.76-1.37,2.65-2l.63-.48,2.3-1.75q2.89-2.19,5.74-4.3l1.63-1.2.18-.15,1-.72,2-1.44c2.09-1.52,4.13-3,6.15-4.44.72-.52,1.43-1,2.14-1.52l.6-.42c1.46-1,3.27-2.21,5.26-3.48l2.64-1.68c2.41-1.52,4.95-3.1,7.36-4.59l1.23-.76.55-.34,1.7-1.05,1-.64,1.34-.83.14-.09,1-.65.5-.32,1.53-1,.5-.33c.35-.24,3.3-2,3.64-2.24l1.8-1.18c.18-.13.37-.25.55-.36C302.65,310.47,303.69,312,304.88,313.59Z" />
      <path class="BUNTAI_GOAT_OUTFIT_BUNTAI_GOAT_OUTFIT_29_cls-4" d="M220,350.47q-2.16,1.77-4.32,3.59c-30.21-19.72-62.09-35.52-80.92-44.25,1.6-1.73,3-3.35,4.2-4.87l1.24.61h0l.47.24,2.47,1.21c4.52,2.24,12.23,5.87,17.48,8.61l3.55,1.87,3.62,1.93,3.71,2c1.25.67,2.51,1.36,3.79,2.07h0l3.84,2.14q2,1.08,3.92,2.21l4,2.27,2,1.16,4,2.37,2.05,1.2,4.08,2.46C206,341.44,213,345.84,220,350.47Z" />
      <path class="BUNTAI_GOAT_OUTFIT_BUNTAI_GOAT_OUTFIT_29_cls-5" d="M352.41,373.79s-28.46,1.47-48.63-25.58A165.5,165.5,0,0,1,290.16,365s32.63,26.12,8.75,101.94a61.6,61.6,0,0,0,17-15.58,50.73,50.73,0,0,0,3.95-6.28A50,50,0,0,0,324.12,434a47.87,47.87,0,0,0,1-5,62,62,0,0,0,0-17.48,81.68,81.68,0,0,0-4.08-16.5c1.88-1.6,3.76-3.11,5.62-4.56A186,186,0,0,1,352.41,373.79Z" />
      <path class="BUNTAI_GOAT_OUTFIT_BUNTAI_GOAT_OUTFIT_29_cls-5" d="M139.82,370.34h0c-15.55,11.07-22.47,27.29-24.24,43.61-2.46,22.53,4.89,45.24,12.91,54.88a28.59,28.59,0,0,1-3.46-1.9c-1.74-1.1-3.38-2.23-4.91-3.42a59,59,0,0,1-5.47-4.6c-.56-.52-1.09-1.05-1.61-1.58q-1.58-1.59-2.93-3.23c-.47-.55-.9-1.09-1.33-1.65s-.84-1.11-1.24-1.66l-.06-.08a2.14,2.14,0,0,0-.13-.19,1.31,1.31,0,0,1-.19-.27c-.41-.59-.8-1.18-1.18-1.77-.26-.41-.51-.81-.75-1.23-.36-.6-.69-1.19-1-1.78s-.55-1.05-.81-1.57h0c-.25-.53-.5-1-.74-1.57a.37.37,0,0,0,0-.11c-.19-.45-.39-.89-.57-1.33a3.61,3.61,0,0,1-.16-.42c-.18-.42-.34-.83-.49-1.25-.22-.58-.42-1.15-.61-1.74l0-.07a49.8,49.8,0,0,1-1.32-4.88c-.14-.62-.26-1.24-.38-1.86-.07-.35-.12-.71-.18-1.06-.11-.64-.2-1.29-.27-1.93v0s0-.09,0-.14q-.09-.7-.15-1.41c0-.13,0-.27,0-.4-.12-1.2-.19-2.38-.22-3.55,0-.6,0-1.19,0-1.78a67.41,67.41,0,0,1,.61-8.88v0c.33-2.46.78-4.83,1.31-7.09l0-.11q-2-1.81-4-3.53a183.14,183.14,0,0,0-31.14-21.06c.76,0,34.28,1.36,54.05-34,6.4,9.15,14.88,20.39,20.68,24.53a.71.71,0,0,0,.14.1h0Z" />
      <path class="BUNTAI_GOAT_OUTFIT_BUNTAI_GOAT_OUTFIT_29_cls-2" d="M319.5,329.24c-4,4.82-10.14,11.91-13.72,16.36-.25.3-.47.59-.69.86-.52.67-1,1.26-1.32,1.75s-.79,1.11-1.2,1.67l-.27.37c-.25.34-.5.69-.76,1l-1,1.33-.44.57c-.31.42-.63.83-1,1.25l-1.67,2.11c-.46.56-.92,1.13-1.4,1.7s-.82,1-1.23,1.47l-1,1.13c-.12.14-.24.27-.35.41-.48.55-1,1.09-1.45,1.63h0l-.63.7L290.16,365h0c-44.09,6.89-108.5,6.63-150.33,5.36v0h0l-.05,0s-.05,0-.08-.06l-.55-.41-.57-.45a38.66,38.66,0,0,1-3-2.78c-.22-.21-.42-.43-.63-.65-.82-.85-1.66-1.77-2.52-2.75l-.67-.78c-.36-.41-.71-.83-1.07-1.26l-1.07-1.3c-.34-.41-.68-.83-1-1.25l-.51-.64c-.16-.22-.34-.44-.51-.65-.33-.43-.66-.86-1-1.3l-1-1.32-.79-1-.22-.3c-.43-.57-.85-1.15-1.27-1.72-.53-.72-1-1.44-1.56-2.15-.16-.21-.32-.43-.46-.64l0,0a1.13,1.13,0,0,1-.1-.13h0l0-.06-.14-.18-.4-.56v0l-1.5-2.13c-1.64-2.35-6.77-9.25-10.5-14,.73-.48,1.45-.95,2.15-1.43q3.22-2.14,6.07-4.26c6,8.75,15.62,21.47,23,28.23l.15-.16s37.5.77,75.73.11c7.41-.13,14.87-.31,22.06-.57h0l4.21-.16h0l5.14-.22h0c17.51-.79,32.7-2.1,41.27-4.14,1.8-1.64,3.53-3.32,5.18-5l1.63-1.69.33-.35c.5-.52,1-1,1.45-1.55l1.41-1.55c.27-.29.53-.58.76-.86,1.27-1.43,9.22-9.42,10.35-10.8.42-.49.81-1,1.19-1.46s1.16-1.37,2-2.38L313,323h0C314.93,325,317.1,327.12,319.5,329.24Z" />
      <path class="BUNTAI_GOAT_OUTFIT_BUNTAI_GOAT_OUTFIT_29_cls-6" d="M362.82,368.68s-4.08,1.7-10.42,5.1c-1.15.62-2.37,1.29-3.65,2l-1.31.75-1.33.78-.43.25c-.18.1-.37.21-.55.33-.58.34-1.17.69-1.77,1.07l-1.76,1.09c-.68.42-1.36.85-2.05,1.3s-1.39.9-2.1,1.37l-1.57,1.06q-1.44,1-2.91,2l-.91.65c-.75.53-1.51,1.09-2.27,1.65h0l-.45.33-.81.61c-.6.45-1.21.91-1.81,1.38-.93.72-1.87,1.46-2.8,2.22S322,394.2,321.09,395c.15.43.31.87.46,1.32.52,1.51,1,3.13,1.49,4.84.09.31.17.63.25.95s.23.86.33,1.3.22.88.32,1.33.18.73.24,1.1c0,0,0,0,0,0a4.82,4.82,0,0,1,.11.52c.07.32.13.63.18.95,0,0,0,.05,0,.07a5.89,5.89,0,0,1,.13.71h0a0,0,0,0,1,0,0,.35.35,0,0,1,0,.14s0,0,0,0a1.87,1.87,0,0,1,0,.25c0,.19.07.39.11.59v0h0a1,1,0,0,1,0,.17l0,.2c.1.64.2,1.29.29,1.95,0,.26.07.52.1.79s.09.68.12,1c0,.07,0,.14,0,.21,0,.32.07.64.09,1a1.24,1.24,0,0,1,0,.27.13.13,0,0,1,0,.06c0,.25.05.51.06.77.06.79.11,1.58.13,2.38,0,.33,0,.65,0,1s0,.42,0,.64,0,.5,0,.76,0,.45,0,.69,0,.46,0,.69l0,1.17h0v0a.86.86,0,0,0,0,.16v.11a2.18,2.18,0,0,1,0,.25c0,.12,0,.24,0,.36s0,.49-.05.73,0,.44-.05.66-.05.65-.09,1-.08.85-.14,1.28c0,.12,0,.25,0,.37a0,0,0,0,1,0,0l-.15,1.09c-.14.91-.3,1.82-.49,2.74-.07.34-.15.68-.23,1,0,.1,0,.2-.07.3s0,0,0,.07a4.21,4.21,0,0,1-.12.48c0,.14-.07.28-.11.42s-.1.4-.16.6-.14.52-.21.78l-.21.72v0a.14.14,0,0,1,0,.07c0,.15-.08.3-.13.45s0,.09,0,.14-.07.23-.11.34a2.25,2.25,0,0,1-.08.24.36.36,0,0,0,0,.11c-.06.18-.11.35-.17.52-.17.52-.36,1-.56,1.56l0,.08a.42.42,0,0,1,0,.1c-.15.39-.3.78-.46,1.17l0,0-.1.25q-.18.45-.39.9c-.08.19-.17.39-.26.58s-.21.45-.32.68-.11.23-.16.35l-.11.22c-.14.28-.28.57-.44.86,0,.1-.1.19-.15.29l.31-.31h0l.47-.47.5-.5.19-.19.33-.32.18-.19L323,442c.25-.25.51-.51.78-.76l.8-.78c.61-.6,1.25-1.21,1.91-1.83l.22-.21.76-.73.79-.73h0l.4-.37.4-.37.41-.38.14-.13.26-.25.84-.77.21-.19h0l.51-.46.78-.71.22-.19,1.09-1h0c.11-.11.23-.21.35-.31l.08-.08,1.4-1.24h0l.82-.72,1-.84,1.11-.94c.64-.55,1.3-1.1,2-1.65l.68-.56,1.3-1.07,1.73-1.38h0l.27-.21.58-.46h0l.88-.68c.77-.59,1.54-1.18,2.32-1.76l.33-.26,1.24-.9.54-.39h0l1.28-.92,1.28-.89q.89-.61,1.77-1.2l.81-.54,1-.63.17-.1a0,0,0,0,0,0,0c1.11-.71,2.22-1.39,3.32-2l.13-.07.12-.08.15-.08.24-.13q.48-.29,1-.54t.81-.45l1.14-.6.56-.29,1.14-.56.29-.14.21-.1.26-.12.61-.28.37-.17.08,0,.37-.16c.67-.29,1.34-.56,2-.81.4-.16.79-.3,1.19-.44-.15-.77-.29-1.52-.43-2.26,0-.25-.09-.5-.13-.74h0l-.06-.36c-.34-1.81-.64-3.53-.92-5.15-.07-.4-.13-.79-.19-1.18-.25-1.5-.48-2.91-.68-4.22-.08-.54-.16-1.06-.23-1.56h0c0-.17,0-.34-.07-.51s0-.33-.07-.49h0l-.06-.48c-.05-.39-.11-.77-.16-1.14,0-.08,0-.16,0-.25,0-.29-.07-.58-.11-.86s-.06-.55-.1-.81a2.51,2.51,0,0,1,0-.27.5.5,0,0,0,0-.12c0-.13,0-.25-.05-.38-.06-.49-.12-1-.17-1.38,0-.1,0-.21,0-.31s0-.3,0-.44c-.07-.55-.12-1-.17-1.45,0-.14,0-.27,0-.4-.06-.68-.1-1.1-.12-1.25a.28.28,0,0,1,0-.06h0l4.75,5.42,4.76,5.43h0v0h0s0,0,0,.05a.07.07,0,0,1,0,.05h0a.14.14,0,0,0,0,.06v0h0a.69.69,0,0,0,0,.1l0,0h0l0,.09v0a.14.14,0,0,0,0,.06h0a.19.19,0,0,0,0,.07s0,.08,0,.13h0s0,0,0,0,.09.22.13.35l0,.09h0a1.27,1.27,0,0,0,.06.18c.08.22.16.47.26.74l.25.74h0l.06.2,0,0s0,0,0,.05l0,.11h0l.13.43c0,.15.09.3.14.46h0c0,.08.05.16.07.24a2.17,2.17,0,0,0,.07.24h0l.3,1c0,.12.07.24.1.36l.06.19.15.56.09.32c.25.91.5,1.89.73,2.93.06.23.11.46.16.69.09.4.18.82.27,1.24,0,.23.11.47.15.72.09.48.18,1,.27,1.48,0,0,.4-.21,1-.59l.45-.28c.59-.39,1.3-.88,2-1.47l.54-.46a14.18,14.18,0,0,0,1.55-1.55l.26-.33a1,1,0,0,0,.08-.11c.06-.09.13-.17.19-.25a1.51,1.51,0,0,0,.18-.26,5.84,5.84,0,0,0,.33-.53,3.72,3.72,0,0,0,.21-.39c.06-.13.12-.27.17-.41s.05-.11.07-.17a.49.49,0,0,0,.06-.17,1.68,1.68,0,0,0,.09-.32.94.94,0,0,0,0-.16.12.12,0,0,0,0-.08.22.22,0,0,1,0-.08,2.23,2.23,0,0,0,0-.23.06.06,0,0,1,0,0c0-.12,0-.25,0-.38C387.42,393.5,362.82,368.68,362.82,368.68Z" />
      <path class="BUNTAI_GOAT_OUTFIT_BUNTAI_GOAT_OUTFIT_29_cls-6" d="M107.54,450.8l0,.05a19.33,19.33,0,0,1-4.67,4.87l-.54.32s-32.17-34.85-55.39-42.88c1.84-9.49,2.89-16.73,3.45-21.14.41-3.21.55-4.93.55-4.93l-1.71,2L41.4,398h0a74.83,74.83,0,0,0-3.9,14.19s-5.53-2.88-7-6.6a5.08,5.08,0,0,1-.38-1.64c-.1-2.39,6.74-10.46,13.22-17.54,5.74-6.29,11.19-11.78,11.19-11.78s4.07,1.7,10.43,5.1h0a183.14,183.14,0,0,1,31.14,21.06q2,1.71,4,3.53l0,.11c-.53,2.26-1,4.63-1.31,7.09v0a62.63,62.63,0,0,0-.16,16.16c.08.65.17,1.3.28,1.95a51.69,51.69,0,0,0,1.88,7.8v0a49.32,49.32,0,0,0,6.4,12.83c.11.18.24.34.36.5A.08.08,0,0,0,107.54,450.8Z" />
      <path class="BUNTAI_GOAT_OUTFIT_BUNTAI_GOAT_OUTFIT_29_cls-4" d="M407.46,452.53h0l0,0,0,0-.05.05-.07.06-.17.16a.52.52,0,0,1-.11.1c-1.21,1.05-5,3.89-12.47,6.22l-.43.13h0c-6.43,1.93-15.55,3.46-28.06,3.23-3.34,0-7.32-1.2-11.4-3,0,0-23.11,10.95-38.66-8.2a50.73,50.73,0,0,0,3.95-6.28c.09-.1.2-.2.31-.3h0c.3-.33.63-.65,1-1l1.05-1c1-1,2-2,3.16-3.08l1.29-1.24c1-1,2.07-1.95,3.16-3,.7-.64,1.41-1.28,2.13-1.95q1.63-1.47,3.38-3c2.72-2.38,5.61-4.81,8.57-7.16L345.7,422c.09-.07.19-.16.3-.23l1.46-1.12.89-.66c.59-.44,1.17-.87,1.77-1.3l0,0,1.27-.9c.86-.61,1.72-1.21,2.59-1.78.43-.3.86-.59,1.29-.86a88.09,88.09,0,0,1,9.13-5.3l1.08-.52c.83-.39,1.66-.75,2.47-1.09s1.63-.64,2.42-.92c-3.18-16.43-4-26.07-4-26.07l9.51,10.86h0a73.56,73.56,0,0,1,3.91,14.19c.22,1.19.41,2.42.56,3.69,6.91,6,15.4,21.39,15.4,21.39l.55,7.36c.83,1,1.75,2.06,2.67,3.18L400,443l1.4,1.74C404.57,448.79,407.46,452.53,407.46,452.53Z" />
      <path class="BUNTAI_GOAT_OUTFIT_BUNTAI_GOAT_OUTFIT_29_cls-4" d="M102.3,456c-15.54,20.83-39.59,9.42-39.59,9.42-4.08,1.79-8.06,3-11.4,3-31.49.57-41.44-10-41.44-10s6.67-8.7,11.1-13.86l.56-7.35s3.09-5.61,7.06-11.38a57.53,57.53,0,0,1,8.33-10c.16-1.27.34-2.51.57-3.69A74.83,74.83,0,0,1,41.39,398h0l7.8-8.9,1.71-2s-.14,1.72-.55,4.93c-.56,4.41-1.61,11.65-3.45,21.14C70.13,421.19,102.3,456,102.3,456Z" />
      <path class="BUNTAI_GOAT_OUTFIT_BUNTAI_GOAT_OUTFIT_29_cls-7" d="M138.94,304.94l1.24.61h0l.47.24,1,.47,1.49.74c4.52,2.24,12.23,5.87,17.48,8.61l3.55,1.87,3.62,1.93,3.71,2c1.25.67,2.51,1.36,3.79,2.07h0l3.84,2.14q2,1.08,3.92,2.21t4,2.27l2,1.16c1.34.78,2.68,1.56,4,2.37l2.05,1.2,4.08,2.46C206,341.44,213,345.84,220,350.47h0" />
      <path class="BUNTAI_GOAT_OUTFIT_BUNTAI_GOAT_OUTFIT_29_cls-7" d="M134.74,309.81c18.83,8.73,50.71,24.53,80.92,44.25" />
      <path class="BUNTAI_GOAT_OUTFIT_BUNTAI_GOAT_OUTFIT_29_cls-7" d="M146.13,293.81C167.22,304,200.7,321.18,231,341.55" />
      <path class="BUNTAI_GOAT_OUTFIT_BUNTAI_GOAT_OUTFIT_29_cls-7" d="M301.63,308.88c-9.06,5.66-22.61,14-30.67,19.7l-.6.42c-.71.49-1.42,1-2.14,1.52-2,1.43-4.06,2.92-6.15,4.44l-2,1.44-1,.72-1.81,1.35q-2.85,2.11-5.74,4.3l-2.3,1.75-.63.48c-.89.67-1.77,1.35-2.65,2-1.1.85-2.21,1.7-3.31,2.57-1.66,1.31-3.35,2.64-5,4" />
      <path class="BUNTAI_GOAT_OUTFIT_BUNTAI_GOAT_OUTFIT_29_cls-7" d="M247,353.22a2,2,0,0,1,.28-.23c1.13-.88,2.25-1.74,3.38-2.6l1.67-1.27,2.83-2.13c5.81-4.36,11.38-8.41,16.62-12.12l1.74-1.23c2.3-1.62,4.52-3.16,6.68-4.64l3.16-2.16c1.4-.95,3.3-2.17,5.47-3.52l1.72-1.06.53-.33.72-.44,1.71-1,2-1.24,4.08-2.46,1.4-.85,1.73-1,1.64-1,.46-.28" />
      <path class="BUNTAI_GOAT_OUTFIT_BUNTAI_GOAT_OUTFIT_29_cls-7" d="M295.89,296.91l-.17.1-.63.39C291,300,278,307.58,272.89,311c-.63.41-1.26.84-1.9,1.28-2.61,1.78-5.34,3.66-8.14,5.63q-2.12,1.46-4.27,3l-1.73,1.24c-1.6,1.14-3.23,2.31-4.87,3.51-1.49,1.08-3,2.19-4.54,3.32l-2.29,1.71q-4.65,3.47-9.43,7.15l-2.31,1.8L231,341.55c-1.88,1.49-3.76,3-5.65,4.51s-3.59,2.9-5.38,4.41h0q-2.16,1.77-4.32,3.59l-.11.11" />
      <path class="BUNTAI_GOAT_OUTFIT_BUNTAI_GOAT_OUTFIT_29_cls-7" d="M139.82,354.06s37.5.77,75.73.11c7.41-.13,14.87-.31,22.06-.57h0l4.21-.16h0l5.14-.22h0c17.51-.79,32.7-2.1,41.27-4.14,1.8-1.64,3.53-3.32,5.18-5l1.62-1.69.34-.35c.5-.52,1-1,1.45-1.55l1.41-1.55c.27-.29.53-.58.76-.86,1.27-1.43,9.22-9.42,10.35-10.8.42-.49.81-1,1.19-1.46s1.16-1.37,2-2.38L313,323" />
      <path class="BUNTAI_GOAT_OUTFIT_BUNTAI_GOAT_OUTFIT_29_cls-7" d="M139.82,370.35c41.83,1.27,106.24,1.53,150.33-5.36h0l1.28-1.39.63-.7h0c.49-.54,1-1.08,1.45-1.63.11-.14.23-.27.35-.41l1-1.13c.41-.49.83-1,1.23-1.47s.94-1.13,1.39-1.7l1.68-2.11c.32-.42.64-.83,1-1.25l.44-.57,1-1.33c.26-.34.51-.69.76-1l.27-.37c.41-.56.81-1.12,1.2-1.67s.8-1.08,1.32-1.75l.69-.86c3.58-4.45,9.75-11.54,13.72-16.36" />
      <path class="BUNTAI_GOAT_OUTFIT_BUNTAI_GOAT_OUTFIT_29_cls-7" d="M288.29,349.08,290.16,365s32.63,26.12,8.75,101.94" />
      <path class="BUNTAI_GOAT_OUTFIT_BUNTAI_GOAT_OUTFIT_29_cls-7" d="M139.82,354.36h0a1.84,1.84,0,0,0-.14-.14c-7.36-6.76-16.95-19.48-23-28.23" />
      <path class="BUNTAI_GOAT_OUTFIT_BUNTAI_GOAT_OUTFIT_29_cls-7" d="M139.82,370.33h0l-.05,0s-.05,0-.08-.06-.36-.26-.55-.41l-.57-.45a38.66,38.66,0,0,1-3-2.78c-.22-.21-.42-.43-.63-.65-.82-.85-1.66-1.77-2.52-2.75l-.67-.78c-.36-.41-.71-.83-1.07-1.26l-1.07-1.3c-.34-.41-.68-.83-1-1.25l-.51-.64c-.16-.22-.34-.44-.51-.65-.33-.43-.66-.86-1-1.3l-1-1.32-.79-1-.22-.3c-.43-.57-.85-1.15-1.27-1.72-.53-.72-1-1.44-1.56-2.15-.16-.21-.32-.43-.46-.64l0,0-.11-.14-.17-.24-.4-.56v0l-1.5-2.13c-1.64-2.35-6.77-9.25-10.5-14" />
      <polyline class="BUNTAI_GOAT_OUTFIT_BUNTAI_GOAT_OUTFIT_29_cls-7" points="139.81 354.37 139.81 370.34 139.81 370.35" />
      <path class="BUNTAI_GOAT_OUTFIT_BUNTAI_GOAT_OUTFIT_29_cls-7" d="M98.75,411.48c.34-2.5.8-4.9,1.34-7.19a82.62,82.62,0,0,1,8-21" />
      <path class="BUNTAI_GOAT_OUTFIT_BUNTAI_GOAT_OUTFIT_29_cls-7" d="M98.75,411.5a67.41,67.41,0,0,0-.61,8.88c0,.59,0,1.18,0,1.78,0,1.17.1,2.35.22,3.55,0,.13,0,.27,0,.4,0,.47.09.94.15,1.41,0,.05,0,.1,0,.14v0c.07.64.16,1.29.27,1.93.06.35.11.71.18,1.06.12.62.24,1.24.38,1.86a49.8,49.8,0,0,0,1.32,4.88l0,.07c.19.59.39,1.16.61,1.74.15.42.31.83.49,1.25a3.61,3.61,0,0,0,.16.42c.18.44.37.88.57,1.33a.37.37,0,0,1,0,.11c.24.51.48,1,.74,1.57h0c.26.51.53,1,.81,1.57s.65,1.18,1,1.78q.36.62.75,1.23c.38.59.77,1.18,1.18,1.77a1.31,1.31,0,0,0,.19.27,2.14,2.14,0,0,1,.13.19l.06.08c.4.55.81,1.11,1.24,1.66s.86,1.1,1.33,1.65q1.35,1.63,2.93,3.23c.52.54,1.06,1.06,1.61,1.58a59,59,0,0,0,5.47,4.6c1.53,1.19,3.17,2.32,4.91,3.42a28.59,28.59,0,0,0,3.46,1.9c7.08,3.36,24.95,9.67,53.72,5.57,1.55-.22,3.08-.43,4.59-.62s2.83-.39,4.18-.55q6.2-.78,11.72-1.29,3.13-.31,6.07-.54a280.93,280.93,0,0,1,32.25-.83c25.14.84,35.52,4.71,57.89-3.64a61.75,61.75,0,0,0,17-15.58,50.73,50.73,0,0,0,3.95-6.28l.59-1.15c.08-.19.18-.37.27-.57.2-.41.39-.84.57-1.25q.56-1.23,1-2.46s0-.06,0-.08c.53-1.38,1-2.77,1.37-4.16.14-.47.26-.93.38-1.39a47.36,47.36,0,0,0,1-5c.08-.5.15-1,.2-1.48s.11-.86.15-1.29.09-1.09.13-1.63.07-1,.09-1.45,0-.93.05-1.39,0-.92,0-1.38,0-.94,0-1.4,0-.66,0-1c0-.8-.08-1.59-.14-2.38-.09-1.38-.24-2.75-.42-4.09a81.68,81.68,0,0,0-4.08-16.5,75.49,75.49,0,0,0-5.24-11.73" />
      <path class="BUNTAI_GOAT_OUTFIT_BUNTAI_GOAT_OUTFIT_29_cls-7" d="M96.76,391a48.41,48.41,0,0,0-.7,9.81,31.35,31.35,0,0,0,.46,4.5,17.57,17.57,0,0,0,2.23,6.22h0" />
      <path class="BUNTAI_GOAT_OUTFIT_BUNTAI_GOAT_OUTFIT_29_cls-7" d="M327.15,391a47.18,47.18,0,0,1,.55,11.95,19.88,19.88,0,0,1-2.53,8.6" />
      <path class="BUNTAI_GOAT_OUTFIT_BUNTAI_GOAT_OUTFIT_29_cls-7" d="M36.46,421.09c.08-1.8.25-3.56.46-5.25.16-1.27.34-2.51.57-3.69A74.83,74.83,0,0,1,41.39,398h0" />
      <path class="BUNTAI_GOAT_OUTFIT_BUNTAI_GOAT_OUTFIT_29_cls-7" d="M34.77,405.52,41.4,398l9.51-10.86s-.81,9.64-4,26.07c23.2,8,55.38,42.88,55.38,42.88s2.41-1.2,5.25-5.24" />
      <path class="BUNTAI_GOAT_OUTFIT_BUNTAI_GOAT_OUTFIT_29_cls-7" d="M64.93,379.69a183.27,183.27,0,0,1,31.13,21.07q2,1.69,4,3.53" />
      <path class="BUNTAI_GOAT_OUTFIT_BUNTAI_GOAT_OUTFIT_29_cls-7" d="M64.92,379.69c-6.36-3.4-10.43-5.1-10.43-5.1S49,380.08,43.3,386.37c-6.48,7.08-13.32,15.15-13.22,17.54a5.08,5.08,0,0,0,.38,1.64c1.5,3.72,7,6.6,7,6.6" />
      <path class="BUNTAI_GOAT_OUTFIT_BUNTAI_GOAT_OUTFIT_29_cls-7" d="M36.92,415.84a57.53,57.53,0,0,0-8.33,10c-4,5.77-7.06,11.38-7.06,11.38L21,444.58l-.54,7.36" />
      <path class="BUNTAI_GOAT_OUTFIT_BUNTAI_GOAT_OUTFIT_29_cls-7" d="M128.5,468.84c-13.85-16.61-25.67-72.13,11.31-98.49" />
      <path class="BUNTAI_GOAT_OUTFIT_BUNTAI_GOAT_OUTFIT_29_cls-7" d="M64.91,379.69h0c.74,0,34.27,1.36,54-34" />
      <path class="BUNTAI_GOAT_OUTFIT_BUNTAI_GOAT_OUTFIT_29_cls-8" d="M52.39,409.51s26,12.82,49.91,40" />
      <path class="BUNTAI_GOAT_OUTFIT_BUNTAI_GOAT_OUTFIT_29_cls-7" d="M375.92,392.06a75.44,75.44,0,0,1,3.92,14.19c.2,1.18.4,2.42.55,3.69.22,1.69.38,3.45.46,5.25" />
      <path class="BUNTAI_GOAT_OUTFIT_BUNTAI_GOAT_OUTFIT_29_cls-7" d="M382.54,399.62l-6.62-7.56h0l-9.51-10.86s.8,9.64,4,26.07c-17.69,6.12-40.61,27.85-50.49,37.82" />
      <path class="BUNTAI_GOAT_OUTFIT_BUNTAI_GOAT_OUTFIT_29_cls-7" d="M321.09,395c1.88-1.6,3.76-3.11,5.62-4.56a186,186,0,0,1,25.7-16.65c6.33-3.4,10.42-5.1,10.42-5.1s24.6,24.82,24.39,29.3a6.71,6.71,0,0,1-1.8,3.91,21.5,21.5,0,0,1-5.58,4.35" />
      <path class="BUNTAI_GOAT_OUTFIT_BUNTAI_GOAT_OUTFIT_29_cls-7" d="M396.88,446l-.54-7.36-.54-7.35s-8.5-15.36-15.41-21.39" />
      <path class="BUNTAI_GOAT_OUTFIT_BUNTAI_GOAT_OUTFIT_29_cls-7" d="M303.78,348.21c20.17,27.05,48.63,25.58,48.63,25.58" />
      <path class="BUNTAI_GOAT_OUTFIT_BUNTAI_GOAT_OUTFIT_29_cls-8" d="M324.12,434c20.95-20.62,40.8-30.4,40.8-30.4" />
      <path class="BUNTAI_GOAT_OUTFIT_BUNTAI_GOAT_OUTFIT_29_cls-7" d="M134.74,309.81c1.6-1.73,3-3.35,4.2-4.87a55.51,55.51,0,0,0,7.19-11.13" />
      <path class="BUNTAI_GOAT_OUTFIT_BUNTAI_GOAT_OUTFIT_29_cls-7" d="M116.69,326q-3.8,2.81-8.22,5.69" />
      <path class="BUNTAI_GOAT_OUTFIT_BUNTAI_GOAT_OUTFIT_29_cls-7" d="M304.88,313.59q-1.86-2.5-3.25-4.71c-4.66-7.32-5.74-12-5.74-12" />
      <path class="BUNTAI_GOAT_OUTFIT_BUNTAI_GOAT_OUTFIT_29_cls-7" d="M319.5,329.24c-2.4-2.12-4.57-4.2-6.52-6.21" />
      <path class="BUNTAI_GOAT_OUTFIT_BUNTAI_GOAT_OUTFIT_29_cls-3" d="M292.64,373.82a4.84,4.84,0,0,0-5.34-4.24,4.77,4.77,0,0,0-4.41,5.13,6.91,6.91,0,0,0,.16.79,2.65,2.65,0,0,0,.12.37,4.45,4.45,0,0,0,1.05,1.61h0a5,5,0,0,0,4,1.44,5.39,5.39,0,0,0,1.29-.29,4.41,4.41,0,0,0,.54-.24,1.19,1.19,0,0,0,.22-.12,3.48,3.48,0,0,0,.51-.34l.06,0a3.89,3.89,0,0,0,.48-.43,5.85,5.85,0,0,0,.45-.54,5.19,5.19,0,0,0,.31-.5,4.34,4.34,0,0,0,.53-1.7,3.71,3.71,0,0,0,0-.47C292.66,374.12,292.65,374,292.64,373.82Zm-4.28,1.06h0a.91.91,0,0,1-.23.15.77.77,0,0,1-.27.07h-.07a.78.78,0,0,1-.22,0l-.2-.07a.84.84,0,0,1-.4-.41,1,1,0,0,1,0-.14s0-.08,0-.11a.14.14,0,0,1,0-.09.7.7,0,0,1,.1-.38.66.66,0,0,1,.12-.17l.12-.11a.57.57,0,0,1,.13-.08l.08,0a.86.86,0,0,1,.23-.06.61.61,0,0,1,.19,0H288a.79.79,0,0,1,.29.11l.12.09.11.11a.71.71,0,0,1,.17.42A.87.87,0,0,1,288.36,374.88Z" />
      <path class="BUNTAI_GOAT_OUTFIT_BUNTAI_GOAT_OUTFIT_29_cls-3" d="M284.71,391.27l3.06.62s-.08,1.58-.2,4.19l-7.13-1.53c.79-2.55,1.29-3.89,1.29-3.89Z" />
      <path class="BUNTAI_GOAT_OUTFIT_BUNTAI_GOAT_OUTFIT_29_cls-3" d="M281.14,457.31a15.89,15.89,0,0,1-5-1.09,20.86,20.86,0,0,1-6.8-4.45c2.88-28.68,8.52-49.1,11.06-57.22l7.13,1.53c-.55,11.06-2,40.79-1.82,49.68l.16,11A12.25,12.25,0,0,1,281.14,457.31Z" />
      <path class="BUNTAI_GOAT_OUTFIT_BUNTAI_GOAT_OUTFIT_29_cls-3" d="M146.39,396.05l3-.62s.49,1.35,1.29,3.91l-7.13,1.53c-.12-2.61-.2-4.19-.2-4.19Z" />
      <path class="BUNTAI_GOAT_OUTFIT_BUNTAI_GOAT_OUTFIT_29_cls-3" d="M144.17,379.24a2.16,2.16,0,0,0-.57,0,1.86,1.86,0,0,0-.87.42.79.79,0,0,1-.27-.69.85.85,0,0,1,.95-.75.84.84,0,0,1,.78.92A.43.43,0,0,1,144.17,379.24Z" />
      <path class="BUNTAI_GOAT_OUTFIT_BUNTAI_GOAT_OUTFIT_29_cls-3" d="M148.19,378.56a.34.34,0,0,0,0-.1,2.63,2.63,0,0,0-.13-.62.09.09,0,0,0,0,0,.14.14,0,0,0,0-.06,4.51,4.51,0,0,0-.32-.79l0-.07,0,0a.09.09,0,0,0,0-.06,1.06,1.06,0,0,0-.12-.2l-.1-.15a1.49,1.49,0,0,0-.15-.2,4.09,4.09,0,0,0-.28-.33,3.57,3.57,0,0,0-.5-.45,3.18,3.18,0,0,0-.37-.27,1.49,1.49,0,0,0-.3-.18l-.31-.16-.23-.1-.22-.08a.49.49,0,0,0-.17-.06,1.68,1.68,0,0,0-.32-.09l-.17,0-.2,0-.38-.05a4.22,4.22,0,0,0-.87,0l-.21,0a.76.76,0,0,0-.21,0l-.22,0-.22.05-.22.06-.11,0a2.74,2.74,0,0,0-.4.15l-.35.17-.2.1-.2.13-.32.23h0s0,0,0,0h0c-.11.09-.23.19-.33.29a3,3,0,0,0-.3.32c-.07.08-.14.15-.2.23l-.23.33a3.6,3.6,0,0,0-.33.61,1.8,1.8,0,0,0-.08.21,2.47,2.47,0,0,0-.1.29,3.63,3.63,0,0,0-.19.88,2.82,2.82,0,0,0,0,.58.28.28,0,0,0,0,.09,1.77,1.77,0,0,0,0,.23,2.34,2.34,0,0,0,.07.45,2.22,2.22,0,0,0,.09.37,3.51,3.51,0,0,0,.24.64,2.06,2.06,0,0,0,.17.33l.16.26a3.18,3.18,0,0,0,.27.37,3.27,3.27,0,0,0,.3.35,4.48,4.48,0,0,0,.4.36,1.86,1.86,0,0,0,.28.21,2.92,2.92,0,0,0,.37.24l.22.12a4.41,4.41,0,0,0,.54.24,3.64,3.64,0,0,0,.47.14l.49.1.33,0a4.41,4.41,0,0,0,.89,0,1.09,1.09,0,0,0,.26,0h.1a3.48,3.48,0,0,0,.56-.12h0a4.43,4.43,0,0,0,.58-.2l.5-.25a4.65,4.65,0,0,0,.8-.55l.3-.28a4,4,0,0,0,.5-.59,3.87,3.87,0,0,0,.27-.43s0,0,0,0a3.24,3.24,0,0,0,.19-.37,2,2,0,0,0,.13-.34,1.8,1.8,0,0,0,.08-.21,4.51,4.51,0,0,0,.16-.83c0-.15,0-.3,0-.44A3.91,3.91,0,0,0,148.19,378.56Zm-4,.68a.87.87,0,0,1-.93.64.65.65,0,0,1-.21-.06l-.1,0a.7.7,0,0,1-.19-.13h0a.89.89,0,0,1-.22-.29.37.37,0,0,1,0-.14.58.58,0,0,1,0-.19.13.13,0,0,1,0-.06s0,0,0-.06l0-.14a.73.73,0,0,1,.24-.34.61.61,0,0,1,.26-.15.34.34,0,0,1,.14,0h.27a.83.83,0,0,1,.78.91A.5.5,0,0,1,144.17,379.24Z" />
      <path class="BUNTAI_GOAT_OUTFIT_BUNTAI_GOAT_OUTFIT_29_cls-3" d="M161.72,456.56a21,21,0,0,1-6.8,4.45h0c1.64-18.19-2.59-40.65-3.28-44.12l3.51-.74A325.7,325.7,0,0,1,161.72,456.56Z" />
      <path class="BUNTAI_GOAT_OUTFIT_BUNTAI_GOAT_OUTFIT_29_cls-3" d="M151.64,416.88c.69,3.47,4.92,25.93,3.28,44.12h0a15.89,15.89,0,0,1-5,1.09,12.28,12.28,0,0,1-4.78-.58l.17-11c.14-8.89-1.28-38.62-1.82-49.68l7.13-1.53c1.09,3.47,2.73,9.17,4.49,16.8Z" />
      <path class="BUNTAI_GOAT_OUTFIT_BUNTAI_GOAT_OUTFIT_29_cls-9" d="M142.73,379.65a.79.79,0,0,1-.27-.69.85.85,0,0,1,.95-.75.84.84,0,0,1,.78.92.43.43,0,0,1,0,.11.85.85,0,0,1-.93.64A1,1,0,0,1,142.73,379.65Z" />
      <path class="BUNTAI_GOAT_OUTFIT_BUNTAI_GOAT_OUTFIT_29_cls-9" d="M141.56,383.43a4.68,4.68,0,0,1-3.11-4.84,4.83,4.83,0,0,1,5.33-4.22,4.76,4.76,0,0,1,4.42,5.13,4.51,4.51,0,0,1-1.33,2.77,5,5,0,0,1-4,1.45A5.7,5.7,0,0,1,141.56,383.43Z" />
      <path class="BUNTAI_GOAT_OUTFIT_BUNTAI_GOAT_OUTFIT_29_cls-9" d="M144.17,379.24a2.16,2.16,0,0,0-.57,0,1.86,1.86,0,0,0-.87.42h0a4.73,4.73,0,0,0-1.16,3.77c0,.28.05.58.11.88.45,2.54,2,4.43,3.56,4.18h.06c1.49-.3,2.32-2.54,1.87-5.06a5.24,5.24,0,0,0-.29-1.15" />
      <polyline class="BUNTAI_GOAT_OUTFIT_BUNTAI_GOAT_OUTFIT_29_cls-9" points="146.39 396.06 146.39 396.05 145.29 388.48 145.04 386.73" />
      <path class="BUNTAI_GOAT_OUTFIT_BUNTAI_GOAT_OUTFIT_29_cls-9" d="M150.66,399.34c-.8-2.56-1.29-3.91-1.29-3.91l-3,.62-3.06.63s.08,1.58.2,4.19c.54,11.06,2,40.79,1.82,49.68l-.17,11a12.28,12.28,0,0,0,4.78.58,15.89,15.89,0,0,0,5-1.09,21,21,0,0,0,6.8-4.45,325.7,325.7,0,0,0-6.57-40.42C153.39,408.51,151.75,402.81,150.66,399.34Z" />
      <line class="BUNTAI_GOAT_OUTFIT_BUNTAI_GOAT_OUTFIT_29_cls-9" x1="150.66" y1="399.34" x2="143.53" y2="400.87" />
      <path class="BUNTAI_GOAT_OUTFIT_BUNTAI_GOAT_OUTFIT_29_cls-9" d="M149.15,425.08s1.94,25.47.81,37" />
      <path class="BUNTAI_GOAT_OUTFIT_BUNTAI_GOAT_OUTFIT_29_cls-9" d="M151.54,416.41s0,.17.1.47c.69,3.47,4.92,25.93,3.28,44.12" />
      <path class="BUNTAI_GOAT_OUTFIT_BUNTAI_GOAT_OUTFIT_29_cls-9" d="M288.36,374.88a.83.83,0,0,0,.28-.7.87.87,0,0,0-1.74.16s0,.08,0,.11a.86.86,0,0,0,.94.65.79.79,0,0,0,.49-.22" />
      <path class="BUNTAI_GOAT_OUTFIT_BUNTAI_GOAT_OUTFIT_29_cls-9" d="M289.53,378.64a4.68,4.68,0,0,0,3.12-4.82,4.86,4.86,0,0,0-5.35-4.24,4.76,4.76,0,0,0-4.4,5.13,4.56,4.56,0,0,0,1.33,2.79,5,5,0,0,0,4,1.43A5.39,5.39,0,0,0,289.53,378.64Z" />
      <path class="BUNTAI_GOAT_OUTFIT_BUNTAI_GOAT_OUTFIT_29_cls-9" d="M286.92,374.45a2.18,2.18,0,0,1,.57,0,1.69,1.69,0,0,1,.86.44h0a4.63,4.63,0,0,1,1.17,3.76,6.82,6.82,0,0,1-.11.88c-.44,2.56-2,4.43-3.55,4.19l-.06,0c-1.5-.28-2.33-2.53-1.87-5.06a4.92,4.92,0,0,1,.29-1.13v0" />
      <polyline class="BUNTAI_GOAT_OUTFIT_BUNTAI_GOAT_OUTFIT_29_cls-9" points="284.71 391.27 285.81 383.69 286.06 381.94" />
      <path class="BUNTAI_GOAT_OUTFIT_BUNTAI_GOAT_OUTFIT_29_cls-9" d="M280.44,394.55c.79-2.55,1.29-3.89,1.29-3.89l3,.61,3.06.62s-.08,1.58-.2,4.19c-.55,11.06-2,40.79-1.82,49.68l.16,11a12.25,12.25,0,0,1-4.77.58,15.89,15.89,0,0,1-5-1.09,20.86,20.86,0,0,1-6.8-4.45C272.26,423.09,277.9,402.67,280.44,394.55Z" />
      <line class="BUNTAI_GOAT_OUTFIT_BUNTAI_GOAT_OUTFIT_29_cls-9" x1="280.44" y1="394.55" x2="287.57" y2="396.08" />
      <path class="BUNTAI_GOAT_OUTFIT_BUNTAI_GOAT_OUTFIT_29_cls-9" d="M282,420.29s-1.95,25.48-.81,37" />
      <path class="BUNTAI_GOAT_OUTFIT_BUNTAI_GOAT_OUTFIT_29_cls-9" d="M279.56,411.63s-5.18,24.81-3.38,44.59" />
      <g class="BUNTAI_GOAT_OUTFIT_BUNTAI_GOAT_OUTFIT_29_cls-10">
        <path d="M301.74,309.06c.91,1.41,1.95,2.93,3.14,4.53l-.46.28-1.64,1-1.73,1-1.4.85-4.08,2.46-2,1.24-1.71,1-.72.44-.53.33-1.72,1.06c-2.17,1.35-4.07,2.57-5.47,3.52L280.22,329c-2.16,1.48-4.38,3-6.68,4.64l-1.74,1.23c-5.24,3.71-10.81,7.76-16.62,12.12l-2.83,2.13-1.67,1.27c-1.13.86-2.25,1.72-3.38,2.6l-5.43.45h0l-7.37.62S200,359.79,189.84,361c25.25,1.87,82,1.36,82,1.36s-61.3,4.7-89.1,5.67-42.94,2.32-42.94,2.32h0l0,0h0l-16.29-21.21-12.86-18.83q3.22-2.14,6.07-4.26c6,8.75,15.62,21.47,23,28.23l.15-.16s37.5.77,75.73.11l.11-.11c-30.21-19.72-62.09-35.52-80.92-44.25,1.6-1.73,3-3.35,4.2-4.87s2.38-3.09,3.29-4.43c26.35,12.76,62.18,31,82.3,45.17.16.07.47.2.84.38,1.59.73,4.55,2.15,4.55,2.15s37.65-26.46,68.24-45.5a61.09,61.09,0,0,0,3.47,6.17A1.74,1.74,0,0,0,301.74,309.06Z" />
        <path d="M107.54,450.8l0,.05a19,19,0,0,1-4.67,4.87l-.54.32c-8.82,8.24-18.92,16.11-38.37,8.86l0,0c4.9-2.7,10.26-5.87,14.44-8.41,4-2.44,7-4.28,7.29-4.5-.13,0-.66.17-1.51.4-6.39,1.73-30.74,8.27-39.21,9.74a76.92,76.92,0,0,1-17.52,1s22.24-1.37,30.32-13.61l8.09-12.23s-25.95.86-26.95,1.39c-.63.35-6.25-6.22-10.34-12.85a57.53,57.53,0,0,1,8.33-10c.16-1.27.34-2.51.57-3.69,0,0-5.53-2.88-7-6.6a5.08,5.08,0,0,1-.38-1.64c-.1-2.39,6.74-10.46,13.22-17.54l5.9,2.68,1.16,3,.53,1.35s35.91,15.68,46.5,30.22l.24.79c.31,1.14.64,2.23,1,3.28,4.54,14.94,8.3,22,8.87,23a.29.29,0,0,0,.06.1A.08.08,0,0,0,107.54,450.8Z" />
        <path d="M222.07,459.22l-14.38-1.72s19,8.45,25.91,10.26a46.94,46.94,0,0,1,7.42,2.82,280.93,280.93,0,0,0-32.25.83q-2.94.22-6.07.54-5.52.51-11.72,1.29c-1.35.16-2.75.35-4.18.55s-3,.4-4.59.62c-28.77,4.1-46.64-2.21-53.72-5.57a28.59,28.59,0,0,1-3.46-1.9c-1.74-1.1-3.38-2.23-4.91-3.42a59,59,0,0,1-5.47-4.6c-.56-.52-1.09-1.05-1.61-1.58q-1.58-1.59-2.93-3.23c-.47-.55-.9-1.09-1.33-1.65s-.84-1.11-1.24-1.66l-.06-.08,0-.06a88.21,88.21,0,0,1-6.68-13.18l0-.07a46.77,46.77,0,0,1-2.68-9,30.44,30.44,0,0,1-.44-4h0a60,60,0,0,1,.94-13.19c.63-3.62,1.34-6.26,1.49-6.79l0-.11s2.13-13.11,7.45-20.07v0c-.13.73-2.93,16.49,7.56,28.91.15.27.32.55.49.82,8.67,14.43,28.84,22.06,28.84,22.06l.77,25.5.06,0,.09,0,.17.06a1.71,1.71,0,0,0,.29.08l.11,0c2.27.61,9.52,1.82,15.82-5.18-1.26-10.38-1.92-15.31-2.16-17.13,0-.29-.08-.51-.1-.65l0-.2A301.44,301.44,0,0,0,212,451.36c28.75,4.2,50.53,8.73,50.53,8.73S236.44,461,222.07,459.22Z" />
        <path d="M186.47,403.62s20.21.69,39.75,0,33.35.31,33.35.31-33.35,6-49.52,5.38L173.54,408Z" />
        <path d="M199.61,398.15s13.47-.57,26.61,0a206.7,206.7,0,0,0,21.22,0s-28-3.56-30.67-3.6S199.61,398.15,199.61,398.15Z" />
        <path d="M394.11,459.3h0c-6.43,1.93-15.55,3.46-28.06,3.23-3.34,0-7.32-1.2-11.4-3,0,0-23.11,10.95-38.66-8.2a34.08,34.08,0,0,0,4.26-6.58h0a43.3,43.3,0,0,0,2.13-5.12.31.31,0,0,0,0-.08,64,64,0,0,0,2.8-24.37l.42.39,4.37,4.13-.63-31.26,0-1.85a8.19,8.19,0,0,1,.5,1.5c.53,2,1.41,6.31,2.37,15.26.18,1.75.36,3.46.54,5.15.67,6.42,1.24,12.19,1.63,16.17.32,3.43.53,5.51.53,5.51l.51.3c1.2.71,5.23,3.08,18.79,11A221.07,221.07,0,0,0,394.11,459.3Z" />
      </g>
      <line class="BUNTAI_GOAT_OUTFIT_BUNTAI_GOAT_OUTFIT_29_cls-7" x1="295.89" y1="296.91" x2="295.89" y2="296.9" />
      <path class="BUNTAI_GOAT_OUTFIT_BUNTAI_GOAT_OUTFIT_29_cls-7" d="M313,323h0" />
    </g>
  </g>
</svg>