<svg xmlns="http://www.w3.org/2000/svg" viewBox="0 0 432 432">
  <defs>
    <style>.BUNTAI_GOAT_OUTFIT_BUNTAI_GOAT_OUTFIT_22_cls-1{isolation:isolate;}.BUNTAI_GOAT_OUTFIT_BUNTAI_GOAT_OUTFIT_22_cls-2{fill:#db8643;}.BUNTAI_GOAT_OUTFIT_BUNTAI_GOAT_OUTFIT_22_cls-3{fill:#85ff43;}.BUNTAI_GOAT_OUTFIT_BUNTAI_GOAT_OUTFIT_22_cls-4{fill:#505634;}.BUNTAI_GOAT_OUTFIT_BUNTAI_GOAT_OUTFIT_22_cls-5{fill:#fff;}.BUNTAI_GOAT_OUTFIT_BUNTAI_GOAT_OUTFIT_22_cls-6{fill:#e1dab0;}.BUNTAI_GOAT_OUTFIT_BUNTAI_GOAT_OUTFIT_22_cls-10,.BUNTAI_GOAT_OUTFIT_BUNTAI_GOAT_OUTFIT_22_cls-7,.BUNTAI_GOAT_OUTFIT_BUNTAI_GOAT_OUTFIT_22_cls-8{fill:none;stroke:#000;stroke-linecap:round;stroke-linejoin:round;}.BUNTAI_GOAT_OUTFIT_BUNTAI_GOAT_OUTFIT_22_cls-7{stroke-width:1.73px;}.BUNTAI_GOAT_OUTFIT_BUNTAI_GOAT_OUTFIT_22_cls-8{stroke-width:1.71px;}.BUNTAI_GOAT_OUTFIT_BUNTAI_GOAT_OUTFIT_22_cls-9{opacity:0.43;mix-blend-mode:multiply;}.BUNTAI_GOAT_OUTFIT_BUNTAI_GOAT_OUTFIT_22_cls-10{stroke-width:2.06px;}</style>
  </defs>
  <g class="BUNTAI_GOAT_OUTFIT_BUNTAI_GOAT_OUTFIT_22_cls-1">
    <g id="outfit">
      <path class="BUNTAI_GOAT_OUTFIT_BUNTAI_GOAT_OUTFIT_22_cls-2" d="M88.19,417.36c3.33,4.93-25.55,14.39-25.55,14.39l-7-10.88S84.85,412.44,88.19,417.36Z" />
      <path class="BUNTAI_GOAT_OUTFIT_BUNTAI_GOAT_OUTFIT_22_cls-2" d="M73,439.79l-.12-.05c-.35-.13-5.89-.27-6.23-.4a87.81,87.81,0,0,1-20-11.23,99.09,99.09,0,0,1-7.85-6.46,24,24,0,0,1,3.8-9.71,28.87,28.87,0,0,1,4.16-5l4.84,7.53,4.08,6.35,7,10.88c1.5,2.33,8.19,4.65,9.68,7C72.55,439.08,72.79,439.43,73,439.79Z" />
      <path class="BUNTAI_GOAT_OUTFIT_BUNTAI_GOAT_OUTFIT_22_cls-3" d="M195.41,412.57c1,.72,2,1.45,3,2.19a14.37,14.37,0,0,1-3.26,4.19l-2.77-1.78A14.44,14.44,0,0,0,195.41,412.57Z" />
      <path class="BUNTAI_GOAT_OUTFIT_BUNTAI_GOAT_OUTFIT_22_cls-3" d="M223.65,435.53c.72,1.66,1.4,3.32,2,5Q210.82,429.19,195.11,419a14.37,14.37,0,0,0,3.26-4.19Q211.48,424.62,223.65,435.53Z" />
      <path class="BUNTAI_GOAT_OUTFIT_BUNTAI_GOAT_OUTFIT_22_cls-2" d="M185.31,400c.51-2.71,5.13-2.23,4.79.8a2.35,2.35,0,0,1-2.66,1.95A2.54,2.54,0,0,1,185.31,400Z" />
      <path class="BUNTAI_GOAT_OUTFIT_BUNTAI_GOAT_OUTFIT_22_cls-3" d="M195.41,412.57v0a14.54,14.54,0,0,1-3,4.52l0,.06a414.85,414.85,0,0,0-48.57-26.83A338.06,338.06,0,0,0,62,363.9c-.31-2.65-.63-5.3-.94-7.94-.28-2.37-.55-4.72-.83-7.07a382.61,382.61,0,0,1,52,17.08l1.14.46,3.09,1.3q10.22,4.31,20.18,9.21,2.4,1.19,4.8,2.41c10.93,5.55,21.61,11.62,31.95,18.18l2.91,1.86c1.41.92,2.81,1.83,4.21,2.77,1,.67,2,1.35,3.05,2l.4.27,1.8,1.24q3.61,2.48,7.16,5.05a3.15,3.15,0,0,1,.29.22l1.1.8Z" />
      <path class="BUNTAI_GOAT_OUTFIT_BUNTAI_GOAT_OUTFIT_22_cls-2" d="M161.78,383.55a2.55,2.55,0,0,0,2.14,2.74,2.35,2.35,0,0,0,2.65-2C166.91,381.32,162.29,380.83,161.78,383.55Z" />
      <path class="BUNTAI_GOAT_OUTFIT_BUNTAI_GOAT_OUTFIT_22_cls-2" d="M144.94,360a9.77,9.77,0,0,0-5.93,1.82,9,9,0,0,0-2.74,4.23,15.91,15.91,0,0,0,.39,10.89c1.6.79,3.21,1.59,4.8,2.41a12.18,12.18,0,0,1-2.83-8.22,8.89,8.89,0,0,1,6.87-7.69,10.56,10.56,0,0,1,10.39,3.78,8.63,8.63,0,0,1,.17,10.3c2.95-3,3-8.12.53-11.78A14.18,14.18,0,0,0,144.94,360Z" />
      <path class="BUNTAI_GOAT_OUTFIT_BUNTAI_GOAT_OUTFIT_22_cls-2" d="M164.06,372.75a18.12,18.12,0,0,1,11.72,12.11,15.16,15.16,0,0,1-2.37,12.67l2.91,1.86a15.55,15.55,0,0,0,2.48-15.13A18.78,18.78,0,0,0,164.06,372.75Z" />
      <path class="BUNTAI_GOAT_OUTFIT_BUNTAI_GOAT_OUTFIT_22_cls-2" d="M199.17,402.18a18.85,18.85,0,0,0-14.74-11.51,18.16,18.16,0,0,1,11.72,12.11,15.13,15.13,0,0,1-.74,9.79c1,.72,2,1.45,3,2.19A15.68,15.68,0,0,0,199.17,402.18Z" />
      <path class="BUNTAI_GOAT_OUTFIT_BUNTAI_GOAT_OUTFIT_22_cls-4" d="M230.56,455.32H196.33l0,0a90,90,0,0,0-15-15.11,88.25,88.25,0,0,0-12-8.09c-10.3-5.8-21.66-9.6-32-15.31-9.76-5.4-19-13.14-22.66-23.06-.23-.59-.43-1.19-.61-1.81l-.81.06c-9.3.67-19.1-1.66-28-4.86C76,383.84,67,379.8,57.53,377.51a58.51,58.51,0,0,0-13.2-1.74c-.35-.32-.7-.66-1.06-1,.57-1,1.51-1.88,2.08-2.85-.07-.27-.14-.56-.2-.84q-1.17-5-2.33-10,9.63,1.08,19.21,2.84a338.06,338.06,0,0,1,81.74,26.44,414.85,414.85,0,0,1,48.57,26.83c.92.58,1.85,1.18,2.77,1.78l2.58,1.69,1,.65,1.29.87,1.17.78,2.71,1.83.65.44s0,0,0,0h0q10.77,7.37,21.14,15.28h0A143.47,143.47,0,0,1,230.56,455.32Z" />
      <path class="BUNTAI_GOAT_OUTFIT_BUNTAI_GOAT_OUTFIT_22_cls-4" d="M223.34,434.82q-.27-.65-.57-1.29c-.22-.49-.44-1-.65-1.48h0c-.22-.47-.45-.93-.67-1.4-.48-1-1-2-1.49-3.05s-1-2-1.56-3-1-1.93-1.56-2.89c-.31-.55-.62-1.1-.94-1.65s-.47-.83-.72-1.24-.36-.63-.55-.95l-.12-.21h0c-.33-.56-.67-1.12-1-1.68-.06-.1-.12-.21-.19-.31h0l-.72-1.16-.33-.51c-.11-.19-.23-.38-.35-.56a.41.41,0,0,0,0-.09h0l-.12-.19c-.45-.71-.91-1.41-1.38-2.11-1-1.53-2.06-3-3.13-4.53-.52-.72-1-1.44-1.57-2.15q-1.59-2.13-3.26-4.22c-.56-.7-1.12-1.39-1.69-2.08-1.14-1.37-2.3-2.73-3.49-4.06l-.31-.36h0c-.22-.26-.45-.51-.68-.76l-1.28-1.41-2-2.13-1.49-1.53,0,0h0l-1.55-1.55a0,0,0,0,1,0,0L188.62,385l-1.58-1.5c-.69-.66-1.38-1.3-2.08-1.93l-1.45-1.31-.09-.08q-1.71-1.51-3.46-3h0c-.44-.38-.89-.75-1.34-1.11l-1.21-1c-.43-.36-.87-.71-1.31-1.05l0,0q-2-1.56-4-3l-.49-.36c-.61-.46-1.23-.91-1.85-1.34,0,0,0,0,0,0l-.75-.54c-.86-.62-1.73-1.22-2.6-1.81-.4-.28-.82-.55-1.22-.82L165,366c-.73-.5-1.48-1-2.23-1.47l-.39-.24c-.94-.6-1.88-1.19-2.83-1.77l-.82-.49-.81-.48-.29-.18a3.14,3.14,0,0,0-.31-.18h0c-.57-.34-1.15-.68-1.73-1l-.94-.53-.36-.21-1.29-.72h0c-1.3-.72-2.6-1.42-3.92-2.09l-.85-.44-.85-.43-1.71-.84-1.72-.83c-1.3.46-2.59.93-3.87,1.43l-.26.09c-.11.05-.22.08-.33.14l-1.06.43-1.07.44-.68.28-.36.15-1.59.7-.43.19-.65.3-.71.32q-.85.39-1.71.81l-.22.1h0l-.07,0-.06,0-.14.08-.82.41-.53.25-.51.27-.33.16-.33.17-.32.16-.09,0-.18.09-.5.26-.49.26-.18.09-.84.45-.28.16,0,0h0l-.19.11h0l-.09,0-.19.1,0,0-.12.06L122.39,364l-.44.26,0,0-.32.19-.46.28c-.22.12-.43.25-.64.39l-1.11.68-.22.12c-.37.24-.74.47-1.1.72l-.88.57-.07.05-.59.39h0l0,0c1.35.57,2.7,1.16,4,1.75l1,.45h0l.17.07.28.12c1.15.5,2.3,1,3.44,1.54l1.74.79c1.49.68,3,1.38,4.46,2.08.84.39,1.67.79,2.5,1.2l2.5,1.2-.06-.14-.06-.15h0a.56.56,0,0,1,0-.12.06.06,0,0,1,0,0l-.09-.27a.09.09,0,0,1,0-.06v0l0-.07a1.73,1.73,0,0,0-.08-.27l-.06-.21,0-.12a2.76,2.76,0,0,1-.08-.27,3.9,3.9,0,0,1-.12-.46v0a.14.14,0,0,1,0-.06.64.64,0,0,0,0-.07c0-.22-.1-.43-.13-.64-.08-.41-.15-.81-.19-1.22v-.13l0-.18c0-.38-.06-.76-.06-1.13a.09.09,0,0,1,0-.07c0-.11,0-.22,0-.32s0,0,0-.05v-.44a.71.71,0,0,1,0-.15c0-.15,0-.31,0-.48a.59.59,0,0,1,0-.13c0-.35.06-.7.12-1.05l0-.17a.22.22,0,0,1,0-.08c0-.14.05-.29.08-.44a.83.83,0,0,1,0-.15h0s0-.05,0-.08l0-.13,0-.08c0-.15.07-.29.1-.44.08-.32.17-.64.28-.95s.29-.8.47-1.19a8.76,8.76,0,0,1,.6-1.13,9.77,9.77,0,0,1,.76-1c.14-.15.28-.31.44-.46s.31-.29.47-.43.3-.22.45-.31l0,0,.12-.08,0,0a.21.21,0,0,1,.08-.06,6.55,6.55,0,0,1,.58-.32l.61-.26.31-.11.1,0,.27-.09.42-.12a9,9,0,0,1,1.15-.23l.52-.07.72-.06h.13l.4,0a4.71,4.71,0,0,1,.65,0h.34s0,0,0,0h0c.23,0,.45,0,.67.06s.45.05.67.09l.28.05.18,0a4.42,4.42,0,0,1,.5.1l.48.12.63.17.21.07c.2.06.41.13.61.21a6.62,6.62,0,0,1,.62.24c.26.11.52.22.77.35a13.55,13.55,0,0,1,2.65,1.69l.48.41a5.73,5.73,0,0,1,.56.54l.12.13.25.26a.16.16,0,0,1,.07.07c.1.11.21.23.3.35s0,0,0,0l.26.33a2.86,2.86,0,0,1,.22.3l.09.14.11.16a8.22,8.22,0,0,1,.67,1.19,12.31,12.31,0,0,1,.56,1.42,10.21,10.21,0,0,1,.45,3,7.87,7.87,0,0,1,0,.84,6,6,0,0,1-.07.61c-.06.36-.13.72-.22,1.07a4,4,0,0,1-.17.49,2.06,2.06,0,0,1-.12.35.09.09,0,0,1,0,.05l-.1.21a2.29,2.29,0,0,1-.1.23,5.38,5.38,0,0,1-.36.67,1.59,1.59,0,0,1-.13.22.41.41,0,0,1-.05.09l0,.06a4,4,0,0,1-.26.37l-.07.09-.08.1-.08.1a2.74,2.74,0,0,1-.32.36l-.07.07a5.62,5.62,0,0,0,.35-.5,3.6,3.6,0,0,0,.29-.5.91.91,0,0,0,.09-.17,3,3,0,0,0,.19-.41.77.77,0,0,0,.07-.16,3.16,3.16,0,0,0,.16-.43,3.86,3.86,0,0,0,.17-.58c0-.1.06-.21.08-.31s.07-.31.09-.48l0-.24a1.24,1.24,0,0,0,0-.27,2.64,2.64,0,0,0,0-.28,8.68,8.68,0,0,0,0-1V372c0-.11,0-.23,0-.34a.62.62,0,0,0,0-.13l-.06-.42s0-.06,0-.09-.05-.27-.09-.4a2.14,2.14,0,0,0-.09-.34,1.89,1.89,0,0,0-.09-.34,1,1,0,0,0-.05-.16,8.83,8.83,0,0,0-1.34-2.56,9.27,9.27,0,0,0-.77-.89c-.14-.14-.28-.29-.43-.42l-.42-.36a11.08,11.08,0,0,0-1.79-1.14l-.41-.2-.41-.18-.06,0-.1,0c-.25-.09-.49-.19-.74-.26l-.1,0h0l-.43-.12-.44-.1a3.41,3.41,0,0,0-.48-.09l-.49-.07h-.05c-.12,0-.24,0-.37,0l-.37,0h-.07a8,8,0,0,0-.85,0l-.4,0-.39.05a6.92,6.92,0,0,0-.77.14,5.91,5.91,0,0,0-.69.19,9.15,9.15,0,0,0-1.34.54h0c-.18.1-.37.2-.54.31a7.29,7.29,0,0,0-.88.61c-.19.15-.38.3-.56.47l-.2.19a6.88,6.88,0,0,0-.53.55l-.21.25-.1.13-.11.15a5.22,5.22,0,0,0-.34.48.61.61,0,0,0-.07.1l0,.08-.06.08,0,.08,0,.1c-.05.09-.1.17-.15.28a2.12,2.12,0,0,0-.11.21c-.07.15-.14.29-.2.44a4.87,4.87,0,0,0-.21.53q-.1.28-.18.57c-.05.22-.11.43-.14.66s-.06.45-.08.67h0q0,.39,0,.78c0,.18,0,.36,0,.55s0,.36.05.54a2.65,2.65,0,0,0,0,.38,4,4,0,0,0,.09.48,4499963941845.41,4499963941845.41,0,0,1,.1.48c0,.12.07.25.11.39l.09.28a1.12,1.12,0,0,0,0,.13,5,5,0,0,0,.18.5c.08.21.16.41.25.61s.29.62.45.92a15.16,15.16,0,0,0,1.06,1.71h0l0,0,0,.05.26.36h0c1.37.69,2.73,1.4,4.09,2.11,1.09.56,2.17,1.13,3.25,1.72.14.07.28.14.41.22l.26.14a.61.61,0,0,1,.14.07h0l.51.27.4.22,2.94,1.6.19.1h0l.56.31,1,.58c.61.33,1.22.68,1.83,1l1.42.81c1.05.59,2.1,1.2,3.14,1.81h0l.21.12c1.25.72,2.5,1.47,3.74,2.21h0l.74.44c1.07.64,2.13,1.29,3.19,1.94h0l.39.24c1.17.72,2.34,1.45,3.5,2.19l.12-.17c.19-.26.37-.54.54-.82s.39-.67.57-1c.05-.11.11-.22.16-.34s.11-.23.16-.35c.18-.39.33-.79.48-1.19l0-.11.06-.2c.05-.13.09-.27.13-.41s.06-.22.09-.33a2,2,0,0,0,.07-.26l.06-.25c0-.17.08-.34.11-.52s0-.13,0-.2a.59.59,0,0,0,0-.13.76.76,0,0,0,0-.21c.06-.38.11-.77.14-1.16s.05-.8.05-1.2,0-.6,0-.9a1.48,1.48,0,0,0,0-.21c0-.18,0-.36,0-.54s0-.12,0-.18,0-.1,0-.16,0-.2,0-.3l-.06-.32a.11.11,0,0,0,0-.05c0-.16-.06-.32-.1-.49a4.54,4.54,0,0,0-.12-.5,1.13,1.13,0,0,1,0-.15,2.33,2.33,0,0,1-.07-.25.12.12,0,0,0,0-.08q-.09-.34-.21-.69c-.1-.32-.23-.63-.35-.95a.13.13,0,0,0,0-.05c-.11-.28-.24-.55-.38-.83a4,4,0,0,0-.21-.41,6.47,6.47,0,0,0-.34-.63c0-.09-.1-.17-.15-.26s-.25-.41-.39-.61l-.18-.26a6.37,6.37,0,0,0-.44-.62,5.32,5.32,0,0,0-.36-.47,2.39,2.39,0,0,0-.21-.26c-.13-.16-.26-.31-.4-.46s-.34-.38-.53-.57l-.39-.39a1.88,1.88,0,0,0-.25-.24l-.33-.3s0,0,0,0l0,0a.13.13,0,0,0-.06-.05,3.31,3.31,0,0,0-.41-.35,11.08,11.08,0,0,0-.88-.69l-.36-.26a13.48,13.48,0,0,0-1.23-.79,7.26,7.26,0,0,0-.67-.38l-.11-.06-.57-.3-.06,0a17.39,17.39,0,0,0-1.89-.77l-.12-.05h0l.26,0,.16,0,.76.14.19,0,.2,0a1.66,1.66,0,0,1,.21.06c.3.07.6.15.89.24l.88.29a.45.45,0,0,1,.11,0l.47.19a4.07,4.07,0,0,1,.44.18l.44.19.59.28.58.3c.39.21.76.42,1.13.66l.19.13.45.29c.34.23.68.47,1,.73s.55.45.81.68l.53.47.06.05.44.44.07.07.06.08a1.8,1.8,0,0,1,.19.2l.35.37.33.38a13.42,13.42,0,0,1,.87,1.12,2.49,2.49,0,0,1,.17.24,1.67,1.67,0,0,1,.16.24c.14.21.28.42.41.63a15.93,15.93,0,0,1,.84,1.58l.13.27c0,.09.07.19.11.28s.15.36.22.55q.24.66.42,1.32c.06.22.12.44.17.67l.14.67c0,.19.06.38.09.58a.28.28,0,0,0,0,.09c.05.37.08.74.1,1.11a.66.66,0,0,1,0,.14c0,.13,0,.27,0,.4s0,.54,0,.81,0,.33,0,.49a2.73,2.73,0,0,1,0,.41,2.28,2.28,0,0,1,0,.26c0,.13,0,.26-.05.4a.19.19,0,0,1,0,.08v0a2.51,2.51,0,0,0,0,.27c0,.09,0,.18,0,.27s0,.05,0,.08a1.4,1.4,0,0,0-.06.28l-.06.3q-.06.31-.15.63c0,.21-.11.42-.17.63a.52.52,0,0,0-.06.16l0,.11c-.07.22-.15.44-.23.65s-.16.43-.25.64c-.19.44-.4.88-.63,1.3l-.22.39c-.17.3-.36.6-.55.89l0,0c-.2.3-.42.59-.65.88l-.06.07-.06.07h0l1.77,1.16.33.21.17.11.16.11.89.59.89.59.94.63c.6.39,1.19.79,1.78,1.2.11.06.21.14.32.21l.2.14.09.06.11.07.9.62,1,.7.26.18c.74.51,1.48,1,2.22,1.55.25.16.5.34.75.52l.24.18.34.23,1,.72.27.19.62.44h0l.06.05.12.09,0,0,0,0,0,0,.07.05.09.06.05,0,.57.4a1.51,1.51,0,0,0,.26.18l.3.23.87.64.22.16,0,0,0,0h.06a.18.18,0,0,1,.07.05l0,0,.06,0,.26.18c.18.14.35.27.53.39.08-.19.16-.37.23-.56l.12-.33s0,0,0,0,0-.15.08-.22.07-.2.09-.3.13-.43.19-.65.11-.44.16-.67a2.44,2.44,0,0,0,.06-.26.06.06,0,0,0,0,0c0-.11,0-.22,0-.32a.36.36,0,0,0,0-.1.3.3,0,0,0,0-.1h0a14.76,14.76,0,0,0,.19-2.49c0-.13,0-.26,0-.41s0-.29,0-.44v-.13a3.55,3.55,0,0,0-.06-.57.13.13,0,0,1,0-.06.07.07,0,0,0,0-.05,3.31,3.31,0,0,0,0-.33.69.69,0,0,0,0-.2.31.31,0,0,0,0-.1c0-.1,0-.2,0-.3l0-.17a.5.5,0,0,0,0-.12s0-.05,0-.08-.06-.26-.1-.39a1.46,1.46,0,0,0-.05-.2c0-.05,0-.11,0-.16s-.08-.29-.13-.43a0,0,0,0,0,0-.05,5.34,5.34,0,0,0-.16-.53h0c-.08-.24-.17-.48-.26-.72l0-.07c-.15-.36-.31-.72-.49-1.07a2.26,2.26,0,0,0-.11-.22,13.69,13.69,0,0,0-.93-1.61c-.07-.09-.12-.19-.19-.28l-.12-.18-.41-.57c-.19-.25-.38-.49-.59-.73s-.55-.63-.84-.93-.52-.52-.79-.77-.53-.48-.81-.71-.45-.36-.69-.53L189,393c-.21-.15-.43-.29-.65-.43a6.58,6.58,0,0,0-.67-.4l-.4-.22-.6-.3-.33-.17-.33-.14-.38-.16-.29-.13-.85-.31.46.07a4.71,4.71,0,0,1,.52.09l.78.17a17.57,17.57,0,0,1,2.89,1l.6.27c.38.17.74.36,1.11.56a4.07,4.07,0,0,1,.53.31c.36.21.7.43,1,.67a5.91,5.91,0,0,1,.52.35l.48.38c.42.32.82.66,1.21,1l.19.17h0c.18.18.37.35.54.54a15.28,15.28,0,0,1,1.49,1.73c.2.26.39.53.57.8a2.2,2.2,0,0,1,.21.32c.16.24.31.49.45.74s.22.39.32.59a4.09,4.09,0,0,1,.23.47,2.64,2.64,0,0,1,.18.38q.19.44.36.87a15.33,15.33,0,0,1,1,5.37c0,.25,0,.49,0,.74v.12c0,.18,0,.35,0,.53a2.19,2.19,0,0,1,0,.36c0,.13,0,.26-.05.38a2.63,2.63,0,0,1-.06.39c0,.16,0,.31-.08.47a.52.52,0,0,1,0,.11c0,.14,0,.27-.09.4s-.07.3-.11.44,0,.05,0,.08a1.8,1.8,0,0,1-.06.22,1,1,0,0,1-.08.25s0,.1,0,.14c-.07.2-.13.42-.21.62l0,.09a.24.24,0,0,1,0,.08s0,0,0,.06a7.92,7.92,0,0,1-.31.75c-.05.12-.1.23-.16.35l0,.05c-.09.2-.18.39-.28.58h0l.14.1c.32.23.64.47,1,.72l.54.41c.55.41,1.09.83,1.63,1.25l.23.17.24.18c.51.39,1,.78,1.52,1.18s1,.74,1.43,1.12l1.94,1.53c.18.14.36.28.53.43l.56.44q2.65,2.13,5.27,4.32l.66.55.4.33,2.25,1.91q.54.45,1.08.93h0a.13.13,0,0,0,.06,0s0,0,0,0h0l.1.08h0l.05,0,0,0,0,0s0,0,0,.06l.52.44.06.05c.73.62,1.45,1.25,2.17,1.88h0l.19.16,1.37,1.22,1.19,1.06h0Zm-59-53a1.76,1.76,0,0,1,.45.07,2.51,2.51,0,0,1,.46.16l.08,0,.1,0,.1.06.1.06.11.08,0,0,.12.1,0,0,0,0h0a1.87,1.87,0,0,1,.28.35,2.06,2.06,0,0,1,.21.42,1.09,1.09,0,0,1,.05.17,1.18,1.18,0,0,1,0,.2,2.34,2.34,0,0,1,0,.38c0,.11,0,.21,0,.32a2.93,2.93,0,0,1,0,.29,1.76,1.76,0,0,1-.1.3,2.14,2.14,0,0,1-.17.3,1.74,1.74,0,0,1-.3.37l-.21.18-.18.12-.1.08a2.29,2.29,0,0,1-.58.24l-.12,0h-.12l-.19,0h0a1.45,1.45,0,0,1-.36,0h-.16l-.22,0-.21-.07h0a2.29,2.29,0,0,1-.56-.29v0a.71.71,0,0,1-.14-.1l-.06,0a3.83,3.83,0,0,1-.29-.28l-.18-.24a2.26,2.26,0,0,1-.16-.26l-.12-.24v0h0a.09.09,0,0,0,0-.06.29.29,0,0,1,0-.09.83.83,0,0,1,0-.15.7.7,0,0,1,0-.14,1.84,1.84,0,0,1,0-.33v0a1.67,1.67,0,0,1,0-.31,1.64,1.64,0,0,1,.13-.41,1.69,1.69,0,0,1,.13-.27l0,0,.1-.14a1.64,1.64,0,0,1,.21-.25l0,0a.9.9,0,0,1,.19-.16,1.13,1.13,0,0,1,.31-.19A.38.38,0,0,1,163,382l0,0a1.06,1.06,0,0,1,.25-.09,1.72,1.72,0,0,1,.38-.08A2.22,2.22,0,0,1,164.34,381.78Zm20.95,18.48a1.79,1.79,0,0,1,0-.23h0a1.69,1.69,0,0,1,.1-.34.46.46,0,0,1,0-.09,1.09,1.09,0,0,1,.17-.32.12.12,0,0,1,0-.07.75.75,0,0,1,.21-.26,1.19,1.19,0,0,1,.29-.25,1.86,1.86,0,0,1,.34-.19,1.43,1.43,0,0,1,.34-.14h0a1.61,1.61,0,0,1,.38-.08,2.48,2.48,0,0,1,.94,0l.31.08a.19.19,0,0,1,.1,0l.26.11a1.11,1.11,0,0,1,.3.17l.06.05a1.33,1.33,0,0,1,.26.21.81.81,0,0,1,.16.16l.09.13a.57.57,0,0,1,.12.18s0,0,0,0a1.51,1.51,0,0,1,.11.22,1.43,1.43,0,0,1,.08.22,1,1,0,0,1,.05.25.58.58,0,0,1,0,.19,2.93,2.93,0,0,1,0,.51l0,.2a1.46,1.46,0,0,1,0,.2,1.54,1.54,0,0,1-.08.19l-.09.18a1,1,0,0,1-.11.17.44.44,0,0,1-.08.11,1.29,1.29,0,0,1-.19.21l-.21.19a2.38,2.38,0,0,1-.68.38l-.11,0h-.05l-.12,0h0l-.12,0-.13,0h-.27a1.73,1.73,0,0,1-.32,0,1.65,1.65,0,0,1-.32-.07,1,1,0,0,1-.21-.07,3.14,3.14,0,0,1-.51-.27.07.07,0,0,0,0-.05.57.57,0,0,1-.13-.08A1.88,1.88,0,0,1,186,402a1.64,1.64,0,0,1-.21-.25c-.06-.08-.11-.16-.16-.24s0,0,0-.06h0l0-.07-.12-.23a2.25,2.25,0,0,1-.08-.24,1.91,1.91,0,0,1-.06-.33h0v-.3Z" />
      <path class="BUNTAI_GOAT_OUTFIT_BUNTAI_GOAT_OUTFIT_22_cls-5" d="M196.33,455.32H43.47l-.4-7.76c0-.83,0-1.66,0-2.48v0c0-.45,0-.91.06-1.35.06-1,.17-2.07.31-3.09,0-.29.08-.59.12-.9.08-.55.2-1.11.3-1.66.06-.38.14-.74.23-1.11,0,0,0-.07,0-.1.1-.43.21-.87.31-1.31l.25-1c0-.12.06-.24.1-.36.22-.85.46-1.69.73-2.52.11-.4.25-.79.37-1.19s.26-.78.38-1.19.27-.78.41-1.18a87.47,87.47,0,0,0,20.05,11.22c.33.14,5.87.27,6.22.41l.12.05c-.22-.36-.46-.71-.68-1.07l-5.23,0c-1.48-2.31-3-4.62-4.46-6.93,0,0,1.3-.53,3.26-1.38h0c.62-.27,6.5-.58,7.23-.93l.74-.34.57-.27.46-.22,1-.49c.27-.15.57-.29.86-.44.9-.46,1.81-.93,2.71-1.42.24-.13.46-.26.7-.38l.94-.54.76-.46.62-.38.87-.56.43-.27c.82-.57,1.58-1.14,2.24-1.69l.31-.29.3-.27h0a9.46,9.46,0,0,0,.88-1,2.65,2.65,0,0,0,.21-.26l.08-.13.24-.37c.07-.13.12-.25.18-.37a2.6,2.6,0,0,0,.14-.51c0-.07,0-.14,0-.22v0a1.75,1.75,0,0,0,0-.51.13.13,0,0,0,0-.06,1.8,1.8,0,0,0,0-.19,2.92,2.92,0,0,0-.22-.43,3.24,3.24,0,0,0-2-1.21,2.6,2.6,0,0,0-.4-.1l-.13,0a1.93,1.93,0,0,0-.36-.06l-.36,0-.24,0a13.78,13.78,0,0,0-1.85-.06c-.37,0-.76,0-1.16.05a2.9,2.9,0,0,0-.43,0l-.43,0h-.13a2.77,2.77,0,0,0-.3,0c-.3,0-.62.06-.92.11s-.53.06-.79.11l-.58.08-.48.08-.79.14H76.8l-.35.07c-.72.14-1.46.3-2.19.46l-.51.11c-.57.13-6.32.26-6.88.4h0l-.16,0-.17,0-.29.07a3.59,3.59,0,0,0-.47.12l-.6.15-.49.13c-.88.23-1.71.46-2.5.69l-.54.17c-.35.1-.69.19-1,.29l-.37.11-1.66.51-.32.1-1.1.35-.56.19-1,.33-4.08-6.36c.07-.19.13-.39.2-.58l.84-2.53c.69-2,1.43-4.07,2.08-6.09-3-2.49-5.77-4.71-8.77-7.21.59-.83,1.25-1.62,1.9-2.41s1.3-1.57,1.9-2.4c-1.08-3.43,5.05-7.71,2.33-10.28s-5.13-4.8-7.72-7.23h0a58.5,58.5,0,0,1,13.19,1.74C67,379.8,76,383.84,85.19,387.12c8.3,3,17.31,5.18,26,5h.52l.72,0,.4,0,.4,0c.27,0,.54,0,.8-.06.1.31.19.61.29.9s.22.6.32.91a1.12,1.12,0,0,1,0,.13c.13.32.25.63.39.95a1.21,1.21,0,0,0,.09.2c.17.43.37.86.58,1.28,0,.12.11.23.17.35s0,0,0,0a1.51,1.51,0,0,0,.11.22c.14.29.3.58.47.87s.32.59.5.88l0,.07.18.29a1.48,1.48,0,0,1,.08.13l.26.4c.08.12.15.25.24.38l.14.21.44.63a2,2,0,0,0,.25.37l.13.18a1.77,1.77,0,0,1,.12.17l.07.09.62.82.13.17.08.09c.43.54.88,1.08,1.35,1.61.08.1.17.19.26.29l0,0,.06.07h0l0,0c.14.15.26.3.4.44l.24.25c.54.57,1.1,1.14,1.67,1.69.42.4.86.8,1.3,1.19l.1.1q.62.56,1.26,1.08c.14.12.28.24.44.36.34.28.68.56,1,.84l.78.6c.36.27.73.55,1.1.81l.31.22.47.33,0,0,.37.25a3,3,0,0,0,.37.25l.19.13.09.07c.08.05.14.1.22.14l.15.1.77.5.64.41q.48.32,1,.6l.59.36.47.27c.6.36,1.21.7,1.82,1,10.35,5.72,21.71,9.52,32,15.32.36.19.7.39,1,.59l.25.15.33.2a.94.94,0,0,1,.22.12l.42.25c.3.17.59.36.87.53l.48.3c.46.28.91.57,1.37.87l.79.52.09.06c.23.16.48.32.71.49l0,0a6.18,6.18,0,0,1,.53.36l.38.25.13.1c.56.38,1.1.77,1.65,1.18l.89.67c.29.21.58.42.86.65l.52.41a1.45,1.45,0,0,1,.23.19.86.86,0,0,1,.18.14l.05,0,0,.05c.18.13.35.27.52.41.36.28.72.59,1.08.88a1,1,0,0,1,.2.17l.45.37s.06.06.08.08l0,0,.52.43.48.44.44.37.25.24.17.14c.37.33.73.67,1.09,1a5.56,5.56,0,0,1,.5.46l.21.2a5.68,5.68,0,0,1,.43.41.66.66,0,0,1,.17.16c.33.34.67.66,1,1l.09.08.23.23c.23.22.44.44.65.66a5.68,5.68,0,0,1,.47.51q.38.38.72.75c.12.13.24.25.35.38s.3.31.45.47l.35.4c.12.15.25.28.36.42h0l.05.05s0,0,0,0,0,0,0,0v0l.11.12a3.45,3.45,0,0,1,.32.36l.37.41c.12.14.24.28.34.42a.79.79,0,0,1,.17.2c.24.27.46.53.67.8a1.92,1.92,0,0,1,.18.22l.11.12.1.12c.23.28.46.56.67.84a2,2,0,0,1,.17.23,3,3,0,0,1,.27.35l0,0,0,0Z" />
      <path class="BUNTAI_GOAT_OUTFIT_BUNTAI_GOAT_OUTFIT_22_cls-5" d="M332.11,419.12c.16,9.84-1.95,19.6-7.92,28.05h0a41.64,41.64,0,0,1-5.74,6.58,105.41,105.41,0,0,1-18.69,1.57H244.27l-1.17-1c-.78-.65-1.55-1.28-2.34-1.92l.25-.27q-5.69-5.85-11.68-11.43-2.81-2.64-5.68-5.21c-.5-1.17-1-2.33-1.55-3.49a154.72,154.72,0,0,0-8.82-16.43q-2.86-4.67-6.1-9.15-3.1-4.32-6.51-8.45-3.72-4.49-7.79-8.72A164.22,164.22,0,0,0,180,377.22q-3.82-3.24-7.87-6.21h0s37.88-13,86.83-10.09a169.29,169.29,0,0,1,21.22,2c4.19.66,8.1,1.44,11.71,2.29,15.16,3.56,24.84,8.18,27.26,9.41l.27.13.32.17h0c1,2.11,2.11,4.4,3.17,6.85h0c.05.13.11.25.17.38l0,.05c.29.67.58,1.36.87,2.06.05.13.12.27.17.41,1.49,3.64,2.93,7.57,4.15,11.67q.62,2.07,1.17,4.2A81.85,81.85,0,0,1,332.11,419.12Z" />
      <path class="BUNTAI_GOAT_OUTFIT_BUNTAI_GOAT_OUTFIT_22_cls-2" d="M329.84,342.34a5.42,5.42,0,0,1,0,.57c0,.84,0,1.67,0,2.52v.36c0,.92-.05,1.85-.1,2.77s-.08,2-.16,3-.13,2-.23,3-.17,2-.28,3c-.15,1.48-.34,3-.55,4.45-.18,1.33-.38,2.66-.61,4h0l0,.21a142.31,142.31,0,0,1-3.26,16.19c-.2.68-.41,1.32-.63,1.88-.07-.16-.13-.32-.19-.47-.19-.48-.42-1-.68-1.59l0-.05c0-.12-.1-.22-.15-.34s0,0,0,0h0a.8.8,0,0,0-.08-.16.31.31,0,0,0-.05-.1c-.92-2-2.1-4.35-3.37-6.76h0c-1-2-2.13-4.07-3.16-5.94l-.62-1.12,0,0c-1.65-3-3-5.41-3.43-6.17a2.13,2.13,0,0,0-.13-.21l-.05-.06-.28-.13q.82-9.21.84-18.51c0-1.11,0-2.23,0-3.35s0-2.25-.08-3.38v-.07c0-1.1-.08-2.2-.13-3.3s-.12-2.25-.19-3.38-.18-2.46-.28-3.7q-.09-1.16-.21-2.31c-.08-1-.19-2-.29-3,5,5.29,10.49,10.41,14.6,14.61,1.52,1.56,2.58,1.89,3.62,3.15,0,.24.3,1.58.3,1.82s0,.39,0,.58C329.84,341,329.84,341.63,329.84,342.34Z" />
      <path class="BUNTAI_GOAT_OUTFIT_BUNTAI_GOAT_OUTFIT_22_cls-6" d="M280.14,362.89l0-.37q-6.12-9.24-11.78-18.72c-5.67-9.5-7.88-16.12-12.83-25.94h0c-1.13-2.23-2.24-4.45-3.32-6.69l.22,0a86.33,86.33,0,0,0,9-.64h0l.42,1.13.42,1.12c1,2.6,2,5.12,3,7.59.3.75.6,1.49.91,2.22a.36.36,0,0,0,0,.09q.46,1.15,1,2.28c.25.59.5,1.17.76,1.75s.62,1.42.94,2.12c.46,1,.93,2,1.41,3.05h0c.47,1,1,2,1.45,3q.56,1.13,1.14,2.25c.38.75.77,1.49,1.17,2.23q.79,1.5,1.62,3c.41.73.83,1.46,1.25,2.18,2.06,3.53,4.3,7.06,6.8,10.65l.81,1.16.66.92,1.1,1.52,5.57,6.46C288.25,364.33,284.34,363.55,280.14,362.89Z" />
      <path class="BUNTAI_GOAT_OUTFIT_BUNTAI_GOAT_OUTFIT_22_cls-6" d="M183.81,308.09c-.8,2.25-1.63,4.47-2.49,6.69h0q-5.59,14.73-12.35,29-4.49,9.48-9.45,18.72-3.24-2-6.57-3.8a187,187,0,0,0,21.89-52.5C177.81,307,180.8,307.56,183.81,308.09Z" />
      <path class="BUNTAI_GOAT_OUTFIT_BUNTAI_GOAT_OUTFIT_22_cls-4" d="M255.57,317.86a28.24,28.24,0,0,1-6.32,9.92c7.43,6.36,11.72,9.65,19.15,16C262.72,334.3,260.52,327.68,255.57,317.86Z" />
      <path class="BUNTAI_GOAT_OUTFIT_BUNTAI_GOAT_OUTFIT_22_cls-4" d="M169,343.8l19.9-19.09a33.6,33.6,0,0,1-7.55-9.92Q175.73,329.52,169,343.8Z" />
      <path class="BUNTAI_GOAT_OUTFIT_BUNTAI_GOAT_OUTFIT_22_cls-2" d="M127.84,361v0l-.09,0-.18.09-.5.26-.49.26-.18.09-.84.45-.28.16,0,0,0,0-.19.11h0l-.09,0-.19.1,0,0-.12.06c-.73.41-1.46.82-2.19,1.25l-.44.26,0,0-.32.19-.46.28c-.43.25-.85.52-1.28.78l-.2.13c-.35.2-.69.42-1,.65l-.55.35-.88.57-.07.05-.59.39h0l0,0h0c-1-.44-2-.87-3.09-1.3l-.28-.12-.29-.11-.57-.23a146.59,146.59,0,0,1-5.76-33.25,150.71,150.71,0,0,0,12.4-8.67q2.23-1.73,4.26-3.44c0,1.68.09,3.37.16,5.06,0,.6,0,1.21.09,1.82q.09,2,.24,3.93.08,1.2.18,2.4c.05.67.11,1.33.17,2s.11,1.19.17,1.78.11,1.13.17,1.7l.24,2.08c.07.6.14,1.2.22,1.8,0,.18,0,.37.07.55l.3,2.2c.12.84.24,1.69.37,2.53s.27,1.76.42,2.64.27,1.6.41,2.4c.2,1.1.4,2.2.62,3.3C127.25,358.19,127.54,359.61,127.84,361Z" />
      <path class="BUNTAI_GOAT_OUTFIT_BUNTAI_GOAT_OUTFIT_22_cls-4" d="M319.7,374.89l-.31-.16h0l-.2-.09h0l0,0h0l-.3-.14c-.39-.19-.89-.44-1.5-.72l-.57-.26-.19-.09-.83-.37c-1.23-.55-2.75-1.19-4.53-1.88l-.88-.34-1.64-.61-.23-.08-.28-.11h-.08l-.06,0-.07,0c-1.21-.44-2.52-.88-3.91-1.33l-1.33-.42a.11.11,0,0,0-.08,0l0,0-.45-.14-.9-.27c-1.41-.43-2.89-.85-4.45-1.27a2,2,0,0,1-.33-.09c-.57-.16-1.15-.31-1.75-.45l-1.27-.32-.19-.05-1.41-.34-5.57-6.46-1.1-1.52-.66-.92-.81-1.16c-2.5-3.59-4.74-7.12-6.8-10.65-.42-.72-.84-1.45-1.25-2.18q-.82-1.47-1.62-3c-.4-.74-.79-1.48-1.17-2.23s-.77-1.5-1.14-2.25c-.49-1-1-2-1.45-3h0c-.48-1-.95-2-1.41-3.05-.32-.7-.63-1.41-.94-2.12s-.51-1.16-.76-1.75q-.5-1.12-1-2.28a.36.36,0,0,1,0-.09c-.31-.73-.61-1.47-.91-2.22-1-2.47-2-5-3-7.59l-.42-1.12c-.14-.37-.29-.74-.43-1.12h0c8.89-1,23-3.77,35.82-10.92a63.19,63.19,0,0,0,3.91,7.81q.9,1.53,2,3.12a93.34,93.34,0,0,0,8.1,9.61c.1,1,.21,2,.29,3q.12,1.15.21,2.31c.1,1.24.2,2.47.28,3.7s.13,2.26.19,3.38.1,2.2.13,3.3v.07c0,1.13.07,2.25.08,3.38s0,2.24,0,3.35q0,9.3-.84,18.51l.28.13.05.06a2.13,2.13,0,0,1,.13.21l.53.82s.05.08.07.13l.19.28c.44.7,1,1.63,1.68,2.78l.35.6c.45.77.93,1.62,1.45,2.54l.46.86q.48.87,1,1.83c.08.16.17.32.26.48l.06.13C318.67,372.85,319.18,373.84,319.7,374.89Z" />
      <path class="BUNTAI_GOAT_OUTFIT_BUNTAI_GOAT_OUTFIT_22_cls-4" d="M174.85,306.22c-.24.95-.48,1.9-.73,2.85-.07.27-.15.54-.22.81a184.62,184.62,0,0,1-6.77,20.4c-.34.86-.69,1.72-1,2.57-.11.27-.21.53-.33.79-.3.71-.6,1.42-.91,2.13s-.55,1.25-.83,1.88q-1.7,3.81-3.57,7.54c-.28.57-.57,1.14-.86,1.7-1.26,2.46-2.59,4.9-4,7.3-.42.75-.85,1.49-1.29,2.23-.22.39-.45.77-.69,1.15s-.46.77-.69,1.15c-1.3-.72-2.6-1.42-3.92-2.09l-.85-.44-.85-.43-1.71-.84-1.72-.83c-1.3.46-2.59.93-3.87,1.43l-.59.23-1.06.43-1.07.44-.68.28c-.65.27-1.3.56-1.95.85l-.43.19-.65.3-.71.32c-.38.17-.77.35-1.15.54l-.65.32a3.86,3.86,0,0,0-.41.2l-.82.41-1,.52-.33.16-.33.17-.32.17v0c-.3-1.41-.59-2.82-.86-4.24-.22-1.1-.42-2.2-.62-3.3-.14-.8-.28-1.6-.41-2.4s-.29-1.76-.42-2.64-.25-1.68-.37-2.53l-.3-2.2c0-.18,0-.37-.07-.55-.08-.6-.15-1.2-.22-1.8l-.24-2.08c-.06-.57-.12-1.13-.17-1.7s-.12-1.18-.17-1.78-.12-1.31-.17-2-.13-1.6-.18-2.4q-.15-2-.24-3.93c0-.61-.07-1.21-.09-1.82-.07-1.69-.13-3.38-.16-5.06,3-2.56,5.73-5.06,8.09-7.44l.84-.85,1.89-2a79.11,79.11,0,0,0,12-16.43,71.39,71.39,0,0,0,9.73,5.72c1.32.64,2.65,1.23,4,1.78l1.38.56,1.39.53,1.35.49,0,0,1.41.5,1,.3.95.31C169.71,304.91,172.27,305.61,174.85,306.22Z" />
      <path class="BUNTAI_GOAT_OUTFIT_BUNTAI_GOAT_OUTFIT_22_cls-6" d="M241,452.17l-.25.27q-7.42-6.09-15.07-11.9h0q-10.37-7.9-21.14-15.28h0s0,0,0,0l-.65-.44c-.9-.63-1.8-1.23-2.71-1.83l-1.17-.78q-.65-.45-1.29-.87l-1-.65L195.11,419c-.92-.6-1.85-1.2-2.77-1.78a414.85,414.85,0,0,0-48.57-26.83A338.06,338.06,0,0,0,62,363.9c-.31-2.65-.63-5.3-.94-7.94-.28-2.37-.55-4.72-.83-7.07a382.61,382.61,0,0,1,52,17.08l1.14.46,3.09,1.3q10.22,4.31,20.18,9.21,2.4,1.19,4.8,2.41c10.93,5.55,21.61,11.62,31.95,18.18l2.91,1.86c1.41.92,2.81,1.83,4.21,2.77,1,.67,2,1.35,3.05,2l.4.27,1.8,1.24q3.61,2.48,7.16,5.05a3.15,3.15,0,0,1,.29.22l1.1.8,1.08.79c1,.72,2,1.45,3,2.19,1.25.94,2.49,1.88,3.73,2.84.93.71,1.85,1.43,2.77,2.15q3,2.36,5.92,4.75l1.88,1.55c.9.74,1.78,1.48,2.67,2.24s1.76,1.5,2.64,2.25c0,0,0,0,.05,0l.05.05q2.8,2.42,5.57,4.9t5.68,5.21Q235.32,446.34,241,452.17Z" />
      <path class="BUNTAI_GOAT_OUTFIT_BUNTAI_GOAT_OUTFIT_22_cls-7" d="M241,452.17q-5.69-5.84-11.68-11.43c-1.87-1.75-3.76-3.5-5.68-5.21q-12.14-10.9-25.28-20.77c-1-.74-2-1.47-3-2.19q-9.32-6.87-19.09-13.18l-2.91-1.86q-15.51-9.82-31.95-18.18c-1.59-.82-3.2-1.62-4.8-2.41q-10-4.89-20.18-9.21c-1-.44-2-.87-3.09-1.3l-1.14-.46a382.61,382.61,0,0,0-52-17.08" />
      <path class="BUNTAI_GOAT_OUTFIT_BUNTAI_GOAT_OUTFIT_22_cls-7" d="M42.82,361.06q9.63,1.08,19.21,2.84a338.06,338.06,0,0,1,81.74,26.44,414.85,414.85,0,0,1,48.57,26.83c.92.58,1.85,1.18,2.77,1.78l2.58,1.69,1,.65q.65.42,1.29.87l1.17.78c.91.6,1.81,1.2,2.71,1.83l.65.44s0,0,0,0h0q10.77,7.37,21.14,15.28" />
      <path class="BUNTAI_GOAT_OUTFIT_BUNTAI_GOAT_OUTFIT_22_cls-7" d="M60.26,348.89c.28,2.35.55,4.7.83,7.07.31,2.64.63,5.29.94,7.94" />
      <path class="BUNTAI_GOAT_OUTFIT_BUNTAI_GOAT_OUTFIT_22_cls-7" d="M316.65,455.32H43.47l-.4-7.76c0-.83,0-1.66,0-2.48v0c0-.46,0-.9.06-1.35q.09-1.56.3-3.09c0-.3.08-.59.14-.89.08-.56.18-1.12.29-1.68.07-.37.14-.73.23-1.1l0-.1c.09-.44.2-.87.3-1.31s.17-.65.26-1a2.83,2.83,0,0,1,.09-.37c.22-.84.46-1.68.73-2.51.12-.4.23-.79.37-1.19l.39-1.18.4-1.19" />
      <path class="BUNTAI_GOAT_OUTFIT_BUNTAI_GOAT_OUTFIT_22_cls-7" d="M42.82,361.06c.78,3.34,1.55,6.67,2.33,10,.06.28.13.56.19.84-.57,1-1.51,1.89-2.07,2.86l1.06,1c2.59,2.43,5.12,4.78,7.72,7.23s-3.41,6.85-2.33,10.28c-.59.83-1.25,1.61-1.9,2.4s-1.31,1.58-1.9,2.41c3,2.5,5.77,4.72,8.77,7.21-.65,2-1.38,4.06-2.08,6.09l-.84,2.53c-.07.19-.13.39-.2.58" />
      <path class="BUNTAI_GOAT_OUTFIT_BUNTAI_GOAT_OUTFIT_22_cls-7" d="M73,439.79l-.12-.05c-.35-.13-5.89-.27-6.23-.4a87.81,87.81,0,0,1-20-11.23,99.09,99.09,0,0,1-7.85-6.46,24,24,0,0,1,3.8-9.71,28.87,28.87,0,0,1,4.16-5l4.84,7.53,4.08,6.35,7,10.88c1.5,2.33,8.19,4.65,9.68,7C72.55,439.08,72.79,439.43,73,439.79Z" />
      <path class="BUNTAI_GOAT_OUTFIT_BUNTAI_GOAT_OUTFIT_22_cls-7" d="M112.57,429.76c-9.23-12.87-19.16-25.6-32.68-34.32A106.23,106.23,0,0,0,94.46,415" />
      <path class="BUNTAI_GOAT_OUTFIT_BUNTAI_GOAT_OUTFIT_22_cls-7" d="M63.12,412.58c-.28-5.9-4.47-11.69-10.27-14.2" />
      <path class="BUNTAI_GOAT_OUTFIT_BUNTAI_GOAT_OUTFIT_22_cls-7" d="M44.33,375.77a58.51,58.51,0,0,1,13.2,1.74C67,379.8,76,383.84,85.19,387.13s19.31,5.65,28.85,4.8c3.2,10.79,12.92,19.13,23.27,24.86s21.71,9.51,32,15.31a90.73,90.73,0,0,1,27,23.22" />
      <path class="BUNTAI_GOAT_OUTFIT_BUNTAI_GOAT_OUTFIT_22_cls-7" d="M143.9,354.09a122.67,122.67,0,0,0-16.07,7l-.26.14a114.88,114.88,0,0,0-11.09,6.55" />
      <path class="BUNTAI_GOAT_OUTFIT_BUNTAI_GOAT_OUTFIT_22_cls-7" d="M143.9,354.09q4.6,2.18,9,4.63,3.33,1.81,6.57,3.8c4.32,2.64,8.52,5.47,12.56,8.49q4,3,7.87,6.21a162.47,162.47,0,0,1,12.93,12.07q4.08,4.23,7.79,8.72,3.41,4.13,6.51,8.45,3.23,4.49,6.1,9.15A154.72,154.72,0,0,1,222.1,432c.53,1.16,1.05,2.32,1.55,3.49" />
      <path class="BUNTAI_GOAT_OUTFIT_BUNTAI_GOAT_OUTFIT_22_cls-7" d="M127.84,361v0c-.3-1.41-.59-2.83-.86-4.24-.22-1.1-.42-2.2-.62-3.3-.14-.8-.28-1.6-.41-2.4s-.29-1.76-.42-2.64-.25-1.69-.37-2.53l-.3-2.2c0-.18,0-.37-.07-.55-.08-.6-.15-1.2-.22-1.8l-.24-2.08c-.06-.57-.12-1.13-.17-1.7s-.12-1.18-.17-1.78-.12-1.31-.17-2-.13-1.6-.18-2.4q-.15-2-.24-3.93c0-.61-.07-1.22-.09-1.82-.07-1.69-.13-3.38-.16-5.06" />
      <path class="BUNTAI_GOAT_OUTFIT_BUNTAI_GOAT_OUTFIT_22_cls-7" d="M106.49,332.72A146.59,146.59,0,0,0,112.25,366" />
      <path class="BUNTAI_GOAT_OUTFIT_BUNTAI_GOAT_OUTFIT_22_cls-7" d="M146,293.9a71.39,71.39,0,0,0,9.73,5.72c1.32.65,2.65,1.24,4,1.79l1.38.55,1.39.53,1.35.49,0,0c.78.28,1.57.55,2.36.8l.95.31c2.52.8,5.08,1.5,7.66,2.11.43.11.85.22,1.28.3l.12,0,.21.05.61.14.39.09.25.06,1.61.34.31.07.69.14.19,0,.6.12h0l.42.08c.75.15,1.5.29,2.26.42" />
      <path class="BUNTAI_GOAT_OUTFIT_BUNTAI_GOAT_OUTFIT_22_cls-7" d="M181.32,314.79q-5.59,14.73-12.35,29-4.49,9.48-9.45,18.72" />
      <path class="BUNTAI_GOAT_OUTFIT_BUNTAI_GOAT_OUTFIT_22_cls-7" d="M183.81,308.09c-.8,2.25-1.63,4.47-2.49,6.69" />
      <path class="BUNTAI_GOAT_OUTFIT_BUNTAI_GOAT_OUTFIT_22_cls-7" d="M153,358.72a187,187,0,0,0,21.89-52.5" />
      <path class="BUNTAI_GOAT_OUTFIT_BUNTAI_GOAT_OUTFIT_22_cls-7" d="M181.32,314.78h0a33.6,33.6,0,0,0,7.55,9.92L169,343.8" />
      <path class="BUNTAI_GOAT_OUTFIT_BUNTAI_GOAT_OUTFIT_22_cls-7" d="M113.39,366.43a94.09,94.09,0,0,1,1-21.59,168.5,168.5,0,0,0,13.21,16.34" />
      <path class="BUNTAI_GOAT_OUTFIT_BUNTAI_GOAT_OUTFIT_22_cls-7" d="M147.56,323.42a97.65,97.65,0,0,1-15.48-11.1" />
      <path class="BUNTAI_GOAT_OUTFIT_BUNTAI_GOAT_OUTFIT_22_cls-7" d="M311.3,320.09c.1,1,.21,2,.29,3q.12,1.15.21,2.31c.1,1.24.2,2.47.28,3.7s.13,2.26.19,3.38.1,2.2.13,3.3v.07c0,1.13.07,2.25.08,3.38s0,2.24,0,3.35q0,9.3-.84,18.51" />
      <path class="BUNTAI_GOAT_OUTFIT_BUNTAI_GOAT_OUTFIT_22_cls-7" d="M324.13,384.66l.45-2.29,3.26-16.19,0-.21c.23-1.34.43-2.67.61-4,.21-1.48.4-3,.55-4.45.11-1,.21-2,.28-3s.17-2,.23-3,.13-2,.16-3,.08-1.85.1-2.77v-.36c0-.85,0-1.68,0-2.52a5.42,5.42,0,0,0,0-.57c0-.71,0-1.39,0-2.09,0-.19,0-.38,0-.58s-.29-1.58-.3-1.82" />
      <path class="BUNTAI_GOAT_OUTFIT_BUNTAI_GOAT_OUTFIT_22_cls-7" d="M252.47,311.12l-.22,0" />
      <path class="BUNTAI_GOAT_OUTFIT_BUNTAI_GOAT_OUTFIT_22_cls-7" d="M255.57,317.85c-1.13-2.23-2.24-4.45-3.32-6.69" />
      <path class="BUNTAI_GOAT_OUTFIT_BUNTAI_GOAT_OUTFIT_22_cls-7" d="M280.18,362.52q-6.12-9.24-11.78-18.72c-5.68-9.5-7.88-16.12-12.83-25.94" />
      <path class="BUNTAI_GOAT_OUTFIT_BUNTAI_GOAT_OUTFIT_22_cls-7" d="M261.43,310.47l.42,1.13.42,1.12c1,2.6,2,5.12,3,7.59.3.75.6,1.49.91,2.22a.36.36,0,0,0,0,.09q.46,1.15,1,2.28c.25.59.5,1.17.76,1.75s.62,1.42.94,2.12c.46,1,.93,2,1.41,3.05h0c.47,1,1,2,1.45,3q.56,1.13,1.14,2.25c.38.75.77,1.49,1.17,2.23q.79,1.5,1.62,3c.41.73.83,1.46,1.25,2.18,2.06,3.53,4.3,7.06,6.8,10.65l.81,1.16.66.92,1.1,1.52,5.57,6.46" />
      <path class="BUNTAI_GOAT_OUTFIT_BUNTAI_GOAT_OUTFIT_22_cls-7" d="M268.4,343.8c-7.43-6.37-11.72-9.66-19.15-16a28.24,28.24,0,0,0,6.32-9.92h0" />
      <path class="BUNTAI_GOAT_OUTFIT_BUNTAI_GOAT_OUTFIT_22_cls-7" d="M324.19,447.17c6-8.45,8.08-18.21,7.92-28.05a81.85,81.85,0,0,0-2.67-18.59q-.56-2.13-1.17-4.2c-1.22-4.1-2.66-8-4.15-11.67-.05-.14-.12-.28-.17-.41-.29-.7-.58-1.39-.87-2.06l0-.05c-.06-.13-.12-.25-.17-.38h0c-1.06-2.45-2.14-4.74-3.18-6.85" />
      <path class="BUNTAI_GOAT_OUTFIT_BUNTAI_GOAT_OUTFIT_22_cls-7" d="M326.8,366.43c0-.16,0-.32,0-.47a98.81,98.81,0,0,0-3.64-21.12A141.18,141.18,0,0,1,312,361.18a132.85,132.85,0,0,1,7.73,13.71" />
      <path class="BUNTAI_GOAT_OUTFIT_BUNTAI_GOAT_OUTFIT_22_cls-7" d="M303.2,310.48a80.43,80.43,0,0,1-15.91,12.94" />
      <path class="BUNTAI_GOAT_OUTFIT_BUNTAI_GOAT_OUTFIT_22_cls-7" d="M130.4,455.32a50.77,50.77,0,0,1-11.52-12.11,49.82,49.82,0,0,1-6.31-13.44h0a56.26,56.26,0,0,1-1.8-8.15,74.19,74.19,0,0,1-.35-17.6" />
      <path class="BUNTAI_GOAT_OUTFIT_BUNTAI_GOAT_OUTFIT_22_cls-7" d="M136.66,376.94a15.91,15.91,0,0,1-.39-10.89,9,9,0,0,1,2.74-4.23,9.77,9.77,0,0,1,5.93-1.82,14.18,14.18,0,0,1,11.65,5.74c2.5,3.66,2.42,8.75-.53,11.78a8.63,8.63,0,0,0-.17-10.3,10.56,10.56,0,0,0-10.39-3.78,8.89,8.89,0,0,0-6.87,7.69,12.18,12.18,0,0,0,2.83,8.22" />
      <path class="BUNTAI_GOAT_OUTFIT_BUNTAI_GOAT_OUTFIT_22_cls-7" d="M173.41,397.53a15.16,15.16,0,0,0,2.37-12.67,18.12,18.12,0,0,0-11.72-12.11,18.78,18.78,0,0,1,14.74,11.51,15.55,15.55,0,0,1-2.48,15.13" />
      <path class="BUNTAI_GOAT_OUTFIT_BUNTAI_GOAT_OUTFIT_22_cls-7" d="M166.57,384.34a2.35,2.35,0,0,1-2.65,2,2.55,2.55,0,0,1-2.14-2.74C162.29,380.83,166.91,381.32,166.57,384.34Z" />
      <path class="BUNTAI_GOAT_OUTFIT_BUNTAI_GOAT_OUTFIT_22_cls-7" d="M195.41,412.57a15.13,15.13,0,0,0,.74-9.79,18.16,18.16,0,0,0-11.72-12.11,18.85,18.85,0,0,1,14.74,11.51,15.68,15.68,0,0,1-.8,12.58" />
      <path class="BUNTAI_GOAT_OUTFIT_BUNTAI_GOAT_OUTFIT_22_cls-7" d="M190.1,400.83a2.35,2.35,0,0,1-2.66,1.95,2.54,2.54,0,0,1-2.13-2.75C185.82,397.32,190.44,397.8,190.1,400.83Z" />
      <path class="BUNTAI_GOAT_OUTFIT_BUNTAI_GOAT_OUTFIT_22_cls-7" d="M172.09,371s37.88-13,86.83-10.09a171.19,171.19,0,0,1,21.22,2c4.2.66,8.11,1.44,11.71,2.29,17.3,4.06,27.47,9.51,27.85,9.71h0" />
      <path class="BUNTAI_GOAT_OUTFIT_BUNTAI_GOAT_OUTFIT_22_cls-7" d="M180,377.21s90.7-18.23,142.93,4.55h0" />
      <path class="BUNTAI_GOAT_OUTFIT_BUNTAI_GOAT_OUTFIT_22_cls-7" d="M289.13,386.07q8.13,1.28,16.39,3.24a185.24,185.24,0,0,1,22.75,7" />
      <path class="BUNTAI_GOAT_OUTFIT_BUNTAI_GOAT_OUTFIT_22_cls-7" d="M192.88,389.29s45.22-11.24,96.25-3.22" />
      <path class="BUNTAI_GOAT_OUTFIT_BUNTAI_GOAT_OUTFIT_22_cls-7" d="M207.18,406.46s57.52-12.55,81.95-20.39h0" />
      <path class="BUNTAI_GOAT_OUTFIT_BUNTAI_GOAT_OUTFIT_22_cls-7" d="M213.28,415.61s31,4.31,64,.66c18.46-2,37.54-6.58,52.16-15.74" />
      <path class="BUNTAI_GOAT_OUTFIT_BUNTAI_GOAT_OUTFIT_22_cls-7" d="M305.52,389.31s-14.49,17.52-28.24,27" />
      <path class="BUNTAI_GOAT_OUTFIT_BUNTAI_GOAT_OUTFIT_22_cls-7" d="M222.1,432s35.82,8.64,64.64,4.91q2.22-.27,4.35-.66c28.15-5.05,40-16.21,41-17.17l.07-.07" />
      <path class="BUNTAI_GOAT_OUTFIT_BUNTAI_GOAT_OUTFIT_22_cls-7" d="M105.07,404s1,13,5.7,17.6" />
      <path class="BUNTAI_GOAT_OUTFIT_BUNTAI_GOAT_OUTFIT_22_cls-7" d="M55.66,420.87s29.19-8.43,32.53-3.51-25.55,14.39-25.55,14.39" />
      <path class="BUNTAI_GOAT_OUTFIT_BUNTAI_GOAT_OUTFIT_22_cls-7" d="M118.88,443.21a51.29,51.29,0,0,1-16.44-11.67c-8.18-8.47-8.29,1.52-8,2" />
      <path class="BUNTAI_GOAT_OUTFIT_BUNTAI_GOAT_OUTFIT_22_cls-8" d="M106.49,332.72a148.4,148.4,0,0,0,16.66-12.11c3.41-2.87,6.37-5.66,8.93-8.29,8.1-8.34,12.22-15.17,13.92-18.42" />
      <path class="BUNTAI_GOAT_OUTFIT_BUNTAI_GOAT_OUTFIT_22_cls-8" d="M329.53,337.85c-.06-.08-.13-.15-.2-.23-3.92-4.63-11.29-10.4-18-17.53a93.34,93.34,0,0,1-8.1-9.61q-1.14-1.59-2-3.12a63.19,63.19,0,0,1-3.91-7.81" />
      <path class="BUNTAI_GOAT_OUTFIT_BUNTAI_GOAT_OUTFIT_22_cls-7" d="M297.25,299.55c-12.84,7.15-26.93,9.88-35.82,10.92a84.88,84.88,0,0,1-9,.65" />
      <g class="BUNTAI_GOAT_OUTFIT_BUNTAI_GOAT_OUTFIT_22_cls-9">
        <path d="M196.33,455.32H43.47l-.4-7.76c0-.83,0-1.66,0-2.48,5.1,1.72,18.25,3.11,30.47,2.85a131.8,131.8,0,0,1-24.69-7.39l11.94-.47h0l11.67-.27h.46l0-.05-.56-1-5.23,0-3.58-6.49a20.42,20.42,0,0,0,2.38-1.82h0c1.73-1.56,9-3.94,9-6.58.1-4.61-2.39-6-2.39-6l-5.68-.21h0l-14.25-6.17c.69-2,1.43-4.07,2.08-6.09-3-2.49-5.77-4.71-8.77-7.21,0,0,11.59,2.72,14.41,6.52l.07.09c-1.53-4.18.18-13.49.18-13.49,11.86,10.16,11.25,10.19,23.73,18.91,7.85,5.5,9.26,6.77,9.5,7l-11.7-15.82-.1-2.37v0l-.09-2.11,0,0,.1.06.12.1.25.17.3.22c.72.54,1.86,1.38,3.25,2.43l.19.16.24.18s0,0,0,0v0l.09.07A115.86,115.86,0,0,1,99.4,411.5a77.43,77.43,0,0,1,9,11.64c-1.06-1.84-7.61-13.45-8-18.4,3.49,7.08,6.08,10.73,7.63,12.54h0a9,9,0,0,0,1.72,1.66s.26.28.74.76h0c3.61,3.71,19.89,19.75,36.15,24.94C165.11,450.53,196.33,455.32,196.33,455.32Z" />
        <path d="M77.4,443.2c-4.12-1-13.13-2.06-16.62-3.13a157.1,157.1,0,0,1-16.05-5.89c.22-.84.46-1.68.73-2.51.12-.4.24-.79.37-1.19l.39-1.18.4-1.19a99.09,99.09,0,0,1-7.85-6.46,24,24,0,0,1,3.8-9.71c5.48,7.35,15.55,20.24,24.09,27.4.2.16,5.6.32,5.79.47A29.84,29.84,0,0,0,77.4,443.2Z" />
        <path d="M228.72,457.44l-32.39-2.12,0,0c-.36-.4-6.92-7.5-15-15.11-6.94-6.54-15-13.45-21.21-16.8-12.86-6.93-32.73-14.54-45.47-29.66-.48-.57-1-1.15-1.42-1.75-.33-.43-.66-.86-1-1.31-34.61-9.73-47.78-18.52-59.73-19.41a71.63,71.63,0,0,0-7.37-.18q-1.17-5-2.33-10,9.63,1.08,19.21,2.84c-.31-2.65-.63-5.3-.94-7.94,12.51,3,37.25,9.44,55.7,16.79s56.22,31.57,75.6,44.36l2.74,1.82,2.56,1.71,1,.65,1.29.87,1.17.78,2.71,1.83.65.44,0,0h0c-1.47-.76-49-24.89-70.68-31.4C175,416.38,215.38,447.06,226,455.32,227.78,456.68,228.72,457.44,228.72,457.44Z" />
        <path d="M155.7,328.06a130.56,130.56,0,0,1-24.46-14.89l.84-.85,1.89-2C140.48,316.89,148.49,323.93,155.7,328.06Z" />
        <path d="M218.27,430.78l-.19-.16h0l0,0-.05,0h0l-.1-.08h0s0,0,0,0a.13.13,0,0,1-.06,0h0c-5.05-4.11-11.45-9.46-19.4-15.52-1-.74-1.93-1.48-2.94-2.23-.28-.2-.55-.41-.84-.64l0,0a.18.18,0,0,0-.07-.05h-.06l0,0,0,0-.22-.16-.87-.64-.3-.22-.26-.19-.57-.4-.05,0-.09-.06-.07-.05,0,0,0,0,0,0-.12-.09-.06-.05h0c-4.61-3.4-9.67-6.95-15.17-10.55-1-.64-1.92-1.26-2.91-1.89a344.63,344.63,0,0,0-32.4-18.47h0c-1.5-.75-3-1.51-4.56-2.24h0c-6.3-3.05-13-6.05-20-8.93h0l-3.13-1.28-.28-.11-.29-.11-.57-.23a146.59,146.59,0,0,1-5.76-33.25,150.71,150.71,0,0,0,12.4-8.67c1,11.62,3.43,27.51,9,37v0c.54,1.28,3.46,3.59,8,6.69h0l3,2.05h0c6.12,4.08,14.24,9.16,23,14.86h0l2.51,1.63h0c3.6,2.36,7.29,4.81,11,7.32h0c1,.69,2.05,1.41,3.08,2.11q3.4,2.37,6.77,4.79h0c1,.72,2,1.46,3,2.19h0c2.81,2.08,5.53,4.15,8.15,6.24h0c1.07.86,2.12,1.71,3.15,2.57h0C207.44,418.08,214.08,424.61,218.27,430.78Z" />
        <path d="M324.19,447.17h0a41.77,41.77,0,0,1-4.93,5.78l-.82.78h0c-.56.54-1.15,1.07-1.77,1.57H243.77c-.23-.34-.46-.66-.67-1h0c-1.25-1.82-2.15-3.1-2.15-3.1l8-3.89h0c.57,0,9.27-.52,21.74-9.47h0c9.72-3.23,24.37-9.26,36.5-26.4.72-.67,1.35-1.23,1.92-1.75h0c3.94-3.61,4.65-4.76,8.19-17.14,3.71-2.28,5.66-8.32,5.66-8.32s-.34-1-1-2.87c-.65-1.68-1.6-4-2.91-6.79v0c-.84-1.75-1.8-3.71-2.91-5.81l-.62-1.12,0,0c.05-.09.1-.17.14-.26,3.14-5.6,5.7-13.67,7.69-21.53h0v0c1-3.87,1.81-7.67,2.5-11.1,1.52,1.56,2.58,1.89,3.62,3.15,0,.24.3,1.58.3,1.82s0,.39,0,.58c0,.7,0,1.38,0,2.09a5.42,5.42,0,0,1,0,.57c0,.84,0,1.67,0,2.52v.36c0,.92-.05,1.85-.1,2.77s-.08,2-.16,3-.13,2-.23,3-.17,2-.28,3c-.15,1.48-.34,3-.55,4.45-.18,1.33-.38,2.66-.61,4l0,.21a142.31,142.31,0,0,1-3.26,16.19l-.45,2.29c.19.46.37.92.55,1.38.28.7.55,1.4.82,2.12s.53,1.43.8,2.16h0c.35,1,.69,2,1,3s.64,2,.95,3h0c.42,1.38.81,2.76,1.17,4.19a80.75,80.75,0,0,1,2.67,18.59C332.27,429,330.16,438.72,324.19,447.17Z" />
        <path d="M180.31,307.43s-14.81,35.86-18.92,44.81l-4.11,8.94,2.47.91s10.48-21,16.7-34.73,7.36-19.27,7.36-19.27Z" />
      </g>
      <path class="BUNTAI_GOAT_OUTFIT_BUNTAI_GOAT_OUTFIT_22_cls-10" d="M227.56,361.06a27.27,27.27,0,0,0-9.37-10.73" />
      <path class="BUNTAI_GOAT_OUTFIT_BUNTAI_GOAT_OUTFIT_22_cls-10" d="M229.54,350.33s-3.36,3.7-4.4,6.7" />
    </g>
  </g>
</svg>