<svg xmlns="http://www.w3.org/2000/svg" viewBox="0 0 432 432">
  <defs>
    <style>.BUNTAI_GOAT_OUTFIT_BUNTAI_GOAT_OUTFIT_7_cls-1{isolation:isolate;}.BUNTAI_GOAT_OUTFIT_BUNTAI_GOAT_OUTFIT_7_cls-2{fill:#420901;}.BUNTAI_GOAT_OUTFIT_BUNTAI_GOAT_OUTFIT_7_cls-3{fill:#101010;}.BUNTAI_GOAT_OUTFIT_BUNTAI_GOAT_OUTFIT_7_cls-4{fill:#911027;}.BUNTAI_GOAT_OUTFIT_BUNTAI_GOAT_OUTFIT_7_cls-5,.BUNTAI_GOAT_OUTFIT_BUNTAI_GOAT_OUTFIT_7_cls-8{fill:none;}.BUNTAI_GOAT_OUTFIT_BUNTAI_GOAT_OUTFIT_7_cls-5,.BUNTAI_GOAT_OUTFIT_BUNTAI_GOAT_OUTFIT_7_cls-7,.BUNTAI_GOAT_OUTFIT_BUNTAI_GOAT_OUTFIT_7_cls-8{stroke:#000;stroke-linecap:round;stroke-linejoin:round;}.BUNTAI_GOAT_OUTFIT_BUNTAI_GOAT_OUTFIT_7_cls-5,.BUNTAI_GOAT_OUTFIT_BUNTAI_GOAT_OUTFIT_7_cls-7{stroke-width:1.76px;}.BUNTAI_GOAT_OUTFIT_BUNTAI_GOAT_OUTFIT_7_cls-6{opacity:0.43;mix-blend-mode:multiply;}.BUNTAI_GOAT_OUTFIT_BUNTAI_GOAT_OUTFIT_7_cls-7{fill:#fff;}.BUNTAI_GOAT_OUTFIT_BUNTAI_GOAT_OUTFIT_7_cls-8{stroke-width:1.68px;}</style>
  </defs>
  <g class="BUNTAI_GOAT_OUTFIT_BUNTAI_GOAT_OUTFIT_7_cls-1">
    <g id="outfit">
      <path class="BUNTAI_GOAT_OUTFIT_BUNTAI_GOAT_OUTFIT_7_cls-2" d="M191.83,341.51q2,1.58,4.09,3.14h0s-.52.42-1.18.87Q193.2,343.48,191.83,341.51Z" />
      <path class="BUNTAI_GOAT_OUTFIT_BUNTAI_GOAT_OUTFIT_7_cls-3" d="M102.8,451.58H34.49l6.21-18.25,8.68-19.45,8-22.79-3.55-3.35,6.93-16,3.37,1.38c11.4,4.74,33.15,4.74,50.07,13.88a318.12,318.12,0,0,1,29.11,17.73s31.19,3.52,52.7,1.38,30.12-2.32,33.78-1.15c-6-8-7.25-12.74-3.81-30.52.11-.61.23-1.24.37-1.88,1.21-6.05,2.38-11.05,3.4-15.06a75.73,75.73,0,0,1,9.52,9.54c8.83,10.61,13.11,21.95,21.17,36.68,5.7-1.24,45.5-9.59,45.5-9.59s.1-4.38-10.34-24.21c12.38,9.51,25.81,26.69,25.81,26.69a14.71,14.71,0,0,0,3.81-.23s3.94,35.68,4.38,41.62h0l.86,13.56Z" />
      <path class="BUNTAI_GOAT_OUTFIT_BUNTAI_GOAT_OUTFIT_7_cls-3" d="M329.58,438c-.44-5.94-4.38-41.62-4.38-41.62a57.63,57.63,0,0,0,5.85-1.2,166.54,166.54,0,0,0,34.47-13.68l2.83,4-2.66,6.54,10.11,18.64,15.59,21,3.73,19.85H330.43L329.57,438Z" />
      <path class="BUNTAI_GOAT_OUTFIT_BUNTAI_GOAT_OUTFIT_7_cls-4" d="M373,376.71a36.48,36.48,0,0,1-3.49,2.43c-1.07.68-2.41,1.48-4,2.38a166.54,166.54,0,0,1-34.47,13.68s-1.26-1.63-5.34-7.83-13.13-17.84-24.85-31.23-22-22.78-22-22.78l47,6.73,28.36,12.17s.75,10.41,1.73,12S373,376.71,373,376.71Z" />
      <path class="BUNTAI_GOAT_OUTFIT_BUNTAI_GOAT_OUTFIT_7_cls-4" d="M195.93,344.65h0l0,0c-.12.1-.58.47-1.14.84a5.89,5.89,0,0,1-2.26,1.12c-1.06.07-29.25-12.61-34.26-16l-1.75-1.2c-5-2.18-19.48-3.88-19.91-3.88s-7.71.51-12.77.79l-1.85.09c-4.88.23-7.47.77-13.63,3.64s-22,5.35-22,5.35h0l0,0a53.61,53.61,0,0,1-3.64-6.9.44.44,0,0,1,.12-.4,1.52,1.52,0,0,1,.22-.26c2.17-2.1,13.43-7.16,13.43-7.16a110.7,110.7,0,0,1,5-10.08c3.89-7.16,7.76-10.57,13.92-12.89a33.68,33.68,0,0,0,10.74-6.94L139,296.35c1.46.93,3.68,2.4,6.16,4.09l1.26.85c1,.68,2,1.38,3.05,2.09l1.07.73.23.16,2.4,1.65,2.49,1.72.64.44.81.57.35.24,1.15.8.68.46.05,0,.56.39,2.18,1.52v2.43l.14.2.22.29.22.28a47.64,47.64,0,0,0,5.34,5.44l.5.44c.54.49,1.13,1,1.75,1.51l.65.53c.21.19.44.37.66.55,5,4.1,11.74,10.93,20.28,17.74C193.15,342.57,194.51,343.61,195.93,344.65Z" />
      <path class="BUNTAI_GOAT_OUTFIT_BUNTAI_GOAT_OUTFIT_7_cls-4" d="M126.08,290.74,139,296.35c1,.61,2.25,1.46,3.73,2.45a60.65,60.65,0,0,0,3.75-7.21A124.1,124.1,0,0,1,126.08,290.74Z" />
      <path class="BUNTAI_GOAT_OUTFIT_BUNTAI_GOAT_OUTFIT_7_cls-4" d="M357,344.9c-1.61-2.89-5.7-7.28-6.12-12.06.33-6.2-12.57-10-14-10.66s-6.13-7-6.13-7h0c0-.16-.25-1.56-1-4.23s-7.55-9.25-19.81-17.27c-5.61-1.78-8.1-4.29-12.79-3.47l-2.67.42c.18.51.39,1,.58,1.5h0l.77,4.71s.87,3.7-2.89,8.48l-.78.64c-5.87,4.77-11.47,5.68-20.29,7.12l-4.8.79c-12.76,2.11-34.55,5.7-45.09,6-12.05.35-32.27-2.15-40.44-1.83a39.38,39.38,0,0,1-7.49-.51,82.7,82.7,0,0,1-11.88-2.78l.22.28.22.29a47.64,47.64,0,0,0,5.34,5.44c.17.14.32.3.51.44.53.49,1.12,1,1.74,1.51.21.18.42.36.64.53l.67.55c5,4.1,11.73,10.93,20.28,17.74,1.32,1.06,2.68,2.1,4.09,3.14l.31.24.07,0,.42.3c.54.41,1.1.8,1.66,1.2l1.15.79c.28.2.58.4.87.59s.76.52,1.16.76l.21.15c.48.32,1,.63,1.46.93s1,.6,1.45.9c.37-.07.76-.14,1.18-.19l.65-.1c.43-.07.9-.12,1.38-.19.23,0,.48-.07.74-.09l1.56-.18,1.65-.17,1.74-.16.17,0h.15l1.48-.12,1.51-.13,1.31-.08c.94-.08,1.91-.16,2.86-.21h0l1-.07.92-.06,3.84-.22,3.53-.19h0c.67,0,1.32-.05,2-.09l2.47-.11,1.46-.06h.22l1.84-.09c.06,0,.34-.2.85-.52l.43-.28L240,347c.18-.1.36-.23.56-.36,1.4-.91,3.41-2.23,5.84-3.84h0l0,0c1.33-.9,2.82-1.85,4.38-2.91l1.25-.14h0c1.3-.16,2.63-.34,3.86-.53.65-.09,1.28-.19,1.85-.29s.87-.16,1.26-.25l1.2-.3.76-.22c.81-.24,1.76-.54,2.81-.89l1.08-.36,1.14-.38,1.18-.41,2.47-.87c2.1-.73,4.29-1.53,6.34-2.27l1.71.25h0l1.16.16L297,336l17.39,2.51.23,0h.12l.08,0,.09,0,9,1.28,1.95.28,4.85,2.08,1.15.49,6.33,2.73.06,0,.08,0,15.9,6.82a13.6,13.6,0,0,0,.91-1C356.31,349.73,358.13,346.92,357,344.9Zm-80.6-22.08-.05,0,0,0,.05,0Z" />
      <path class="BUNTAI_GOAT_OUTFIT_BUNTAI_GOAT_OUTFIT_7_cls-4" d="M232.38,348.27c-.68,2.11-1.59,5.16-2.65,9.24h0c-1,4-2.19,9-3.4,15.06-.14.64-.26,1.27-.37,1.88-3.44,17.78-2.23,22.52,3.81,30.52-3.66-1.17-12.27-1-33.78,1.15s-52.7-1.38-52.7-1.38A318.12,318.12,0,0,0,114.18,387c-16.92-9.14-38.67-9.14-50.07-13.88l-3.37-1.38c-4.48-1.82-8.19-3.25-10.86-4.23-3-1.14-4.7-1.72-4.7-1.72s.21-1,2.51-3.64,12.41-11.95,17.63-16.91c3-2.8,19.87-6.86,21-9.86,0,0,15.84-2.48,22-5.34s8.75-3.41,13.63-3.64,14.2-.87,14.62-.87,14.87,1.69,19.91,3.87l1.74,1.2c5,3.41,33.21,16.08,34.27,16a6,6,0,0,0,2.26-1.11c.66-.45,1.18-.87,1.18-.87h0c2.75,2,5.66,4,8.75,5.9C210.57,349.48,223.09,348.7,232.38,348.27Z" />
      <path class="BUNTAI_GOAT_OUTFIT_BUNTAI_GOAT_OUTFIT_7_cls-4" d="M278.88,333.36s10.25,9.4,22,22.78,20.76,25,24.85,31.23,5.34,7.83,5.34,7.83a57.63,57.63,0,0,1-5.85,1.2,14.71,14.71,0,0,1-3.81.23S308,379.45,295.58,369.94c10.44,19.83,10.34,24.21,10.34,24.21s-39.8,8.35-45.5,9.59c-8.06-14.73-12.34-26.07-21.17-36.68a75.73,75.73,0,0,0-9.52-9.54h0c1.06-4.08,2-7.13,2.65-9.24,2.23-.11,4.27-.19,6-.25.24-.1,5.27-3.41,12.41-8.16,1.68-.19,3.5-.42,5.13-.67,1.16-.17,2.22-.35,3.1-.54,2.59-.54,10.41-3.31,17-5.7Z" />
      <path class="BUNTAI_GOAT_OUTFIT_BUNTAI_GOAT_OUTFIT_7_cls-5" d="M162.21,314.73a82.7,82.7,0,0,0,11.88,2.78,39.38,39.38,0,0,0,7.49.51c8.18-.32,28.39,2.18,40.44,1.83,10.54-.28,32.33-3.87,45.09-6l4.8-.79c8.82-1.44,14.42-2.35,20.29-7.12l.78-.64a36.39,36.39,0,0,0,6-5.09,5,5,0,0,0,1.43-2.69" />
      <polyline class="BUNTAI_GOAT_OUTFIT_BUNTAI_GOAT_OUTFIT_7_cls-5" points="305.77 321.36 324.77 318.99 330.76 315.16" />
      <polyline class="BUNTAI_GOAT_OUTFIT_BUNTAI_GOAT_OUTFIT_7_cls-5" points="276 332.95 278.88 333.36 325.84 340.09 354.2 352.26" />
      <path class="BUNTAI_GOAT_OUTFIT_BUNTAI_GOAT_OUTFIT_7_cls-5" d="M250.78,339.86c1.68-.19,3.5-.42,5.13-.67,1.16-.17,2.22-.35,3.1-.54,2.59-.54,10.41-3.31,17-5.7,5.5-2,10.12-3.77,10.12-3.77" />
      <path class="BUNTAI_GOAT_OUTFIT_BUNTAI_GOAT_OUTFIT_7_cls-5" d="M276.51,322.74c13.7-9.14,25.82-17.25,25.82-17.25" />
      <path class="BUNTAI_GOAT_OUTFIT_BUNTAI_GOAT_OUTFIT_7_cls-5" d="M264.92,330.47l11.37-7.6.06,0,.07-.06" />
      <path class="BUNTAI_GOAT_OUTFIT_BUNTAI_GOAT_OUTFIT_7_cls-5" d="M86.29,335.4h0l0,0a53.61,53.61,0,0,1-3.64-6.9.44.44,0,0,1,.12-.4c.06-.07.12-.16.22-.26,2.17-2.1,13.43-7.16,13.43-7.16a110.7,110.7,0,0,1,5-10.08c3.89-7.16,7.76-10.57,13.92-12.89a33.85,33.85,0,0,0,10.75-6.93L139,296.35c1,.61,2.25,1.46,3.73,2.45l2.43,1.64,1.26.86c1,.67,2,1.37,3.05,2.07l1.08.74a1.34,1.34,0,0,0,.23.16l2.38,1.65,2.5,1.72.64.44.81.57c.13.07.24.16.36.23l1.14.8.67.47.06,0,.56.39,2.18,1.52v2.44l.14.19.22.28.22.29a47.64,47.64,0,0,0,5.34,5.44c.17.14.32.3.51.44.53.49,1.12,1,1.74,1.51.21.18.42.36.64.53l.67.55c5,4.1,11.73,10.93,20.28,17.74,1.32,1.06,2.68,2.1,4.09,3.14l.36.27h0l.28.19c.59.45,1.2.88,1.8,1.31l1.15.79c.28.2.58.4.87.59s.83.56,1.26.83l.11.08c.48.32,1,.63,1.46.93s1,.6,1.45.9c.37-.07.76-.14,1.18-.19l.65-.1c.43-.07.9-.12,1.38-.19.23,0,.48-.07.74-.09l1.56-.18,1.65-.17,1.74-.16.19,0h.13l1.48-.12,1.51-.13,1.31-.08,2.86-.21h0l1-.07.92-.06,3.84-.22,3.53-.19h0c.67,0,1.32-.05,2-.09l2.47-.11,1.46-.06h.22l1.84-.09c.06,0,.34-.2.85-.52l.43-.28L240,347c.18-.1.36-.23.56-.36,1.4-.91,3.41-2.23,5.84-3.84h0c1.34-.9,2.82-1.86,4.39-2.92l7.08-4.69,1.16-.77a.1.1,0,0,1,.06,0c1.89-1.25,3.84-2.56,5.83-3.89" />
      <path class="BUNTAI_GOAT_OUTFIT_BUNTAI_GOAT_OUTFIT_7_cls-5" d="M229.73,357.52c-1,4-2.19,9-3.4,15.06-.14.64-.26,1.27-.37,1.88-3.44,17.78-2.23,22.52,3.81,30.52-3.66-1.17-12.27-1-33.78,1.15s-52.7-1.38-52.7-1.38A318.12,318.12,0,0,0,114.18,387c-16.92-9.14-38.67-9.14-50.07-13.88l-3.37-1.38c-4.48-1.82-8.19-3.25-10.86-4.23-3-1.14-4.7-1.72-4.7-1.72s.21-1,2.51-3.64,12.41-11.95,17.63-16.91c3-2.8,19.87-6.86,21-9.86h0" />
      <path class="BUNTAI_GOAT_OUTFIT_BUNTAI_GOAT_OUTFIT_7_cls-5" d="M232.38,348.27c-.68,2.11-1.59,5.16-2.65,9.24" />
      <path class="BUNTAI_GOAT_OUTFIT_BUNTAI_GOAT_OUTFIT_7_cls-5" d="M195.92,344.65h0s-.52.42-1.18.87a6,6,0,0,1-2.26,1.11c-1.06.06-29.25-12.61-34.27-16l-1.74-1.2c-3-2.07-2.4-1.66-3.28-2.22s-20.21-12-30.25-10-12.78,4.44-19.93,4.07" />
      <path class="BUNTAI_GOAT_OUTFIT_BUNTAI_GOAT_OUTFIT_7_cls-5" d="M86.29,335.4s15.84-2.48,22-5.34,8.75-3.41,13.63-3.64,14.2-.87,14.62-.87,14.87,1.69,19.91,3.87" />
      <path class="BUNTAI_GOAT_OUTFIT_BUNTAI_GOAT_OUTFIT_7_cls-5" d="M264.91,330.47h0c.31,0,6.75-.31,7.87-.74S289.71,325,295,324.11" />
      <path class="BUNTAI_GOAT_OUTFIT_BUNTAI_GOAT_OUTFIT_7_cls-5" d="M213.85,336.12s13.48-.55,22.8-1.76,20-4.74,28.26-7.06c7.07-2,10.53-3.92,11.38-4.43l.13-.08.09-.05" />
      <polyline class="BUNTAI_GOAT_OUTFIT_BUNTAI_GOAT_OUTFIT_7_cls-5" points="365.52 381.52 368.35 385.51 365.69 392.05 375.8 410.69 391.39 431.73 395.12 451.58 330.43 451.58 102.8 451.58 34.49 451.58 40.7 433.33 49.38 413.88 57.36 391.09 53.81 387.75 60.74 371.76" />
      <polyline class="BUNTAI_GOAT_OUTFIT_BUNTAI_GOAT_OUTFIT_7_cls-5" points="107.59 391.09 105.86 410.24 110.6 399.67" />
      <path class="BUNTAI_GOAT_OUTFIT_BUNTAI_GOAT_OUTFIT_7_cls-5" d="M102.8,451.58c-.14-8.66,0-25.41,3.07-41.34" />
      <path class="BUNTAI_GOAT_OUTFIT_BUNTAI_GOAT_OUTFIT_7_cls-5" d="M325.2,396.4s3.94,35.68,4.38,41.62c6.88-30.07,7.31-41.62,7.31-41.62" />
      <path class="BUNTAI_GOAT_OUTFIT_BUNTAI_GOAT_OUTFIT_7_cls-5" d="M278.88,333.36s10.25,9.4,22,22.78,20.76,25,24.85,31.23,5.34,7.83,5.34,7.83" />
      <path class="BUNTAI_GOAT_OUTFIT_BUNTAI_GOAT_OUTFIT_7_cls-5" d="M229.74,357.51h0a75.5,75.5,0,0,1,9.5,9.54c.37.42.71.85,1,1.28s.52.67.78,1l0,0c5,6.48,8.49,13.31,12.41,21.06h0c2.09,4.13,4.3,8.54,6.91,13.29l.82-.18,3.05-.65,1.71-.36,1.54-.32,3.52-.75,14-3,20.84-4.38s.09-4-8.93-21.5v0c-.44-.86-.9-1.76-1.4-2.69,6.95,5.33,14.22,13.08,19.27,18.86l0,0c3.93,4.49,6.5,7.78,6.5,7.78a14.27,14.27,0,0,0,3.81-.22,58.19,58.19,0,0,0,5.85-1.21,144.59,144.59,0,0,0,15.21-4.93c.95-.36,1.87-.71,2.77-1.07a137.12,137.12,0,0,0,16.49-7.67c.71-.39,1.35-.76,2-1.11.78-.47,1.47-.89,2.07-1.27a32.79,32.79,0,0,0,3.49-2.43s-4.57-3.09-9-6.21c-3.88-2.75-7.66-5.52-8.11-6.26-1-1.57-1.73-12-1.73-12a13.6,13.6,0,0,0,.91-1c1.2-1.49,3-4.3,1.88-6.32-1.61-2.89-5.7-7.28-6.12-12.06.33-6.2-12.57-10-14-10.66s-6.13-7-6.13-7h0c0-.16-.25-1.56-1-4.23s-7.55-9.25-19.81-17.27c-5.61-1.78-8.1-4.29-12.79-3.47l-2.67.42s.71,3.57,1.34,6.22c-.16,3,.3,4.55-2.89,8.48" />
      <path class="BUNTAI_GOAT_OUTFIT_BUNTAI_GOAT_OUTFIT_7_cls-5" d="M126.08,290.74a124.1,124.1,0,0,0,20.39.85" />
      <path class="BUNTAI_GOAT_OUTFIT_BUNTAI_GOAT_OUTFIT_7_cls-5" d="M176.89,451.58c13.84-13.75,27.77-31.52,39-47.11h0" />
      <path class="BUNTAI_GOAT_OUTFIT_BUNTAI_GOAT_OUTFIT_7_cls-5" d="M240.29,368.35s-6.3,10.24-16,24.37" />
      <path class="BUNTAI_GOAT_OUTFIT_BUNTAI_GOAT_OUTFIT_7_cls-5" d="M152.78,451.58a454.35,454.35,0,0,0,36.86-45" />
      <g class="BUNTAI_GOAT_OUTFIT_BUNTAI_GOAT_OUTFIT_7_cls-6">
        <path d="M196.3,344.93s-21.78-12.39-36.08-24.29-36.74-20.87-36.74-20.87,26.61,16.24,31.44,23c-35.82-16-48.76-13.77-48.76-13.77l10.64,4.32s-8.28,7.38-13.8,7.95l18.23-2.93s-14.77,8.27-21.5,9.54-17.12-.09-17.12-.09l3.68,7.64s-5.21,3.27-21,9.86c-4.58,5.56-15.47,14.67-15.47,14.67s53.42-11.55,65.59-16.87,32.85-3.41,38.28-1.55,38.05,10.38,44.08,10.75,23-.59,23.51-.7,4.49,7.12,4.49,7.12l3.93-1.16,2.28-8.09s-9.9-.19-18.16,0-10.74.2-10.74.2Z" />
        <path d="M267.74,327.29s-19,3.15-28.65,4-31.61.6-32.08,0-27.88-11.11-27.88-11.11S203.8,337.86,213.85,341a65.13,65.13,0,0,1,15.92,7.23l5.13.74s11.45-6.49,14.23-7.5S267.74,327.29,267.74,327.29Z" />
        <path d="M105.87,391.83S96.62,421.05,93.8,434,76,452.08,76,452.08l34.63-.5s-2.77-25.64,4.11-43.6c-7.78,19-8.84,27.95-8.84,27.95s0-19.52,5.2-35.26L106.34,408l1.25-16.89Z" />
        <path d="M100.41,380.53s-33.83,29.21-37.55,45.94L64.63,404s-11.7,35.07-8,47.58c-19.32,0-21.27.5-21.27.5S39.26,441.1,48,417s9.35-25.87,9.35-25.87L54,387.26l7.71-15.83s26.77,5.47,32.62,7.12S100.41,380.53,100.41,380.53Z" />
        <path d="M267.74,330.47s12.95-3.49,20.11-4.92,23.54-4,31.65-5.33,11.26-5.06,11.26-5.06-16.77,2.09-28.43,3.1-16.74,2.28-16.21,2.38S313.59,309,313.59,309s-29,7.12-31.31,9.3-11.17,9.29-11.61,9.5A36.47,36.47,0,0,0,267.74,330.47Z" />
        <path d="M277.43,333.36s15.77,3.09,26.23,4.07,11,1.07,11,1.07l7.78,1.36L348.44,349s-15.59-12.15-21.38-13.61S310.28,332,310.28,332s-13.75-.21-15.26-.53-10.72-2.05-10.72-2.05Z" />
        <path d="M284.3,339.86s18.31,17.63,26.92,28.49,20.46,25.93,20.46,25.93-7.63,2.49-9.19,2.12c-23-23.23-27.79-25.29-27.79-25.29S275.48,354.16,270,350.55c33.14,17.91,39.7,26.51,39.88,26S284.3,339.86,284.3,339.86Z" />
        <path d="M238.09,364.28s20.38,14.22,24.46,20.59l4.07,6.38,18.46,7.28-23.83,5Z" />
        <path d="M218,404.37S197,420.42,188.64,425.2,166,452.08,166,452.08H116s1.42-24.65,4.08-35.81,6-22.5,6-22.5,15.77,11.89,25.43,11.78c38.13,1.05,47.59,1.05,47.59,1.05Z" />
      </g>
      <path class="BUNTAI_GOAT_OUTFIT_BUNTAI_GOAT_OUTFIT_7_cls-7" d="M303.2,349.71a1.69,1.69,0,0,0,.73.16,1.54,1.54,0,0,0,1.33-.71,1.3,1.3,0,0,0-.61-1.86,61.33,61.33,0,0,0-9.53-3.39c.81-3.76,1.58-6.78,1.59-6.84a1.37,1.37,0,0,0-1.15-1.64,1.53,1.53,0,0,0-1.82,1c-.06.23-.77,3.08-1.55,6.65-4.7-1.21-8.65-2-9-2.05a1.53,1.53,0,0,0-1.81,1,1.38,1.38,0,0,0,1.17,1.63c.07,0,4.21.83,9,2.09a84.25,84.25,0,0,0-1.38,8.69,1.44,1.44,0,0,0,1.41,1.47h.11a1.46,1.46,0,0,0,1.52-1.26,79.52,79.52,0,0,1,1.27-8.1A56.68,56.68,0,0,1,303.2,349.71Z" />
      <path class="BUNTAI_GOAT_OUTFIT_BUNTAI_GOAT_OUTFIT_7_cls-7" d="M319.15,365.15a61.71,61.71,0,0,0-9.53-3.39c.81-3.76,1.57-6.78,1.59-6.84a1.37,1.37,0,0,0-1.15-1.64,1.53,1.53,0,0,0-1.82,1c-.06.23-.77,3.08-1.55,6.65-4.7-1.21-8.65-2-9-2a1.53,1.53,0,0,0-1.81,1,1.37,1.37,0,0,0,1.16,1.62c.08,0,4.22.83,9,2.09a86.82,86.82,0,0,0-1.37,8.69,1.43,1.43,0,0,0,1.4,1.47h.12a1.47,1.47,0,0,0,1.52-1.26,79.52,79.52,0,0,1,1.27-8.1,56.68,56.68,0,0,1,8.64,3.09,1.68,1.68,0,0,0,.72.16,1.56,1.56,0,0,0,1.34-.71A1.3,1.3,0,0,0,319.15,365.15Z" />
      <path class="BUNTAI_GOAT_OUTFIT_BUNTAI_GOAT_OUTFIT_7_cls-8" d="M146.47,291.59a60.65,60.65,0,0,1-3.75,7.21" />
    </g>
  </g>
</svg>