<svg id="jewelries" xmlns="http://www.w3.org/2000/svg" viewBox="0 0 432 432">
  <defs>
    <style>.BUNTAI_MEERKAT_JEWELRY_MEERKAT_JEWELRY_5_cls-1{fill:#39b54a;}.BUNTAI_MEERKAT_JEWELRY_MEERKAT_JEWELRY_5_cls-2{fill:#c7a858;}.BUNTAI_MEERKAT_JEWELRY_MEERKAT_JEWELRY_5_cls-3{fill:none;stroke:#000;stroke-linecap:round;stroke-linejoin:round;stroke-width:1.19px;}</style>
  </defs>
  <path class="BUNTAI_MEERKAT_JEWELRY_MEERKAT_JEWELRY_5_cls-1" d="M304,264.87c0,6.19,3.13,11.22,7,11.22s7-5,7-11.22-3.13-11.24-7-11.24S304,258.66,304,264.87Z" />
  <path class="BUNTAI_MEERKAT_JEWELRY_MEERKAT_JEWELRY_5_cls-2" d="M302.06,264.86c0,7.92,4,14.32,8.92,14.32s8.94-6.4,8.94-14.32-4-14.32-8.94-14.32S302.06,256.94,302.06,264.86Zm1.93,0c0-6.2,3.13-11.23,7-11.23s7,5,7,11.23-3.12,11.23-7,11.23S304,271.06,304,264.86Z" />
  <ellipse class="BUNTAI_MEERKAT_JEWELRY_MEERKAT_JEWELRY_5_cls-2" cx="310.98" cy="248.14" rx="3.73" ry="2.4" />
  <path class="BUNTAI_MEERKAT_JEWELRY_MEERKAT_JEWELRY_5_cls-2" d="M311.09,233.06c2.63,0,2.2-3.58,2.2-3.58h0a7.22,7.22,0,0,1-3.23.68,3,3,0,0,1-1.45-.36C308.61,230,308.56,233.06,311.09,233.06Z" />
  <path class="BUNTAI_MEERKAT_JEWELRY_MEERKAT_JEWELRY_5_cls-2" d="M306.57,218.92c-1,3.21-.76,9.33,2,10.87a3,3,0,0,0,1.45.36,7.22,7.22,0,0,0,3.23-.68c2.4-1.17,3.62-3.89,3.46-8a13.27,13.27,0,0,0-.75-4,8.59,8.59,0,0,0-2.34-3.64,3,3,0,0,0-2.15-.89,3.63,3.63,0,0,0-2.61,1.54,5.41,5.41,0,0,0,1.16.22h.06a6.7,6.7,0,0,1,2.95,4.54c.73,3.52-.5,7.47-2.27,7.47-2,0-2-4.59-1.89-7l-.14,0A8.73,8.73,0,0,1,306.57,218.92Z" />
  <path class="BUNTAI_MEERKAT_JEWELRY_MEERKAT_JEWELRY_5_cls-2" d="M313.28,201.63c-.33,3.4.17,4.58.17,4.58s3.21,2.8,1.37,6.24a3.65,3.65,0,0,1-1.16,1.3,8.59,8.59,0,0,1,2.34,3.64C320.27,213.62,320.61,204.74,313.28,201.63Z" />
  <path class="BUNTAI_MEERKAT_JEWELRY_MEERKAT_JEWELRY_5_cls-2" d="M302.35,213.25a7.6,7.6,0,0,0,4.22,5.67,8.38,8.38,0,0,0,2.19.67l.16,0a8.06,8.06,0,0,0,4.15-.44,6.72,6.72,0,0,0-2.94-4.54h-.07a5.63,5.63,0,0,1-1.17-.22,3.43,3.43,0,0,1-2.44-2.13,2.94,2.94,0,0,1-.14-.91c.05-3.73,1.47-3.91,1.47-3.91s.08-.2.18-.51a4.82,4.82,0,0,0-3.74-3.14A12.75,12.75,0,0,0,302.35,213.25Z" />
  <path class="BUNTAI_MEERKAT_JEWELRY_MEERKAT_JEWELRY_5_cls-3" d="M316,217.39c4.27-3.77,4.86-12.58-2.72-15.76a7.91,7.91,0,0,0,.17,4.58s3.21,2.8,1.37,6.24a3.65,3.65,0,0,1-1.16,1.3" />
  <path class="BUNTAI_MEERKAT_JEWELRY_MEERKAT_JEWELRY_5_cls-3" d="M313.07,219.17a8.06,8.06,0,0,1-4.15.44l-.16,0a8.38,8.38,0,0,1-2.19-.67,7.6,7.6,0,0,1-4.22-5.67,12.75,12.75,0,0,1,1.87-9.45" />
  <path class="BUNTAI_MEERKAT_JEWELRY_MEERKAT_JEWELRY_5_cls-3" d="M308,206.94c-.1.31-.18.51-.18.51s-1.42.18-1.47,3.91a2.94,2.94,0,0,0,.14.91,3.43,3.43,0,0,0,2.44,2.13,5.63,5.63,0,0,0,1.17.22" />
  <path class="BUNTAI_MEERKAT_JEWELRY_MEERKAT_JEWELRY_5_cls-3" d="M306.57,218.92c-1,3.21-.76,9.33,2,10.87a3,3,0,0,0,1.45.36,7.22,7.22,0,0,0,3.23-.68c2.4-1.17,3.62-3.89,3.46-8a13.27,13.27,0,0,0-.75-4,8.59,8.59,0,0,0-2.34-3.64,3,3,0,0,0-2.15-.89,3.63,3.63,0,0,0-2.61,1.54" />
  <path class="BUNTAI_MEERKAT_JEWELRY_MEERKAT_JEWELRY_5_cls-3" d="M308.91,219.61c-.12,2.44-.09,7,1.89,7,1.77,0,3-3.95,2.27-7.47a6.7,6.7,0,0,0-2.95-4.54h-.06" />
  <path class="BUNTAI_MEERKAT_JEWELRY_MEERKAT_JEWELRY_5_cls-3" d="M313.29,229.48s.43,3.58-2.2,3.58-2.48-3.06-2.48-3.27h0" />
  <ellipse class="BUNTAI_MEERKAT_JEWELRY_MEERKAT_JEWELRY_5_cls-3" cx="310.98" cy="248.14" rx="3.73" ry="2.4" />
  <path class="BUNTAI_MEERKAT_JEWELRY_MEERKAT_JEWELRY_5_cls-3" d="M302.05,264.87c0,7.9,4,14.31,8.93,14.31s8.93-6.41,8.93-14.31-4-14.33-8.93-14.33S302.05,257,302.05,264.87Z" />
  <path class="BUNTAI_MEERKAT_JEWELRY_MEERKAT_JEWELRY_5_cls-3" d="M304,264.87c0,6.19,3.13,11.22,7,11.22s7-5,7-11.22-3.13-11.24-7-11.24S304,258.66,304,264.87Z" />
  <line class="BUNTAI_MEERKAT_JEWELRY_MEERKAT_JEWELRY_5_cls-3" x1="311.09" y1="233.06" x2="311.09" y2="245.74" />
  <path class="BUNTAI_MEERKAT_JEWELRY_MEERKAT_JEWELRY_5_cls-3" d="M310.37,256s-4.21,1.54-4,9.53" />
  <path class="BUNTAI_MEERKAT_JEWELRY_MEERKAT_JEWELRY_5_cls-3" d="M307.68,210.78a4.82,4.82,0,0,0,.55-2.24,4.72,4.72,0,0,0-.27-1.6,4.82,4.82,0,0,0-3.74-3.14,4.28,4.28,0,0,0-.81-.07,3.27,3.27,0,0,0-3.26,2.42" />
</svg>