<svg id="jewelries" xmlns="http://www.w3.org/2000/svg" viewBox="0 0 432 432">
  <defs>
    <style>.BUNTAI_MEERKAT_JEWELRY_MEERKAT_JEWELRY_4_cls-1{fill:#7367ff;}.BUNTAI_MEERKAT_JEWELRY_MEERKAT_JEWELRY_4_cls-2{fill:#ff5e63;}.BUNTAI_MEERKAT_JEWELRY_MEERKAT_JEWELRY_4_cls-3{fill:#fff;}.BUNTAI_MEERKAT_JEWELRY_MEERKAT_JEWELRY_4_cls-4{fill:none;stroke:#000;stroke-linecap:round;stroke-linejoin:round;stroke-width:1.2px;}.BUNTAI_MEERKAT_JEWELRY_MEERKAT_JEWELRY_4_cls-5{fill:#c7a858;}</style>
  </defs>
  <path class="BUNTAI_MEERKAT_JEWELRY_MEERKAT_JEWELRY_4_cls-1" d="M133.34,270.93l1.26,38.92H119.2a25.55,25.55,0,0,1,14.13-38.92Z" />
  <circle class="BUNTAI_MEERKAT_JEWELRY_MEERKAT_JEWELRY_4_cls-2" cx="122.01" cy="260.08" r="5.51" />
  <path class="BUNTAI_MEERKAT_JEWELRY_MEERKAT_JEWELRY_4_cls-3" d="M123.61,243.4h0a1.43,1.43,0,0,0-1.43-1.44,1.45,1.45,0,0,0-1.45,1.44h0a1.44,1.44,0,1,0,2.88,0Zm1.6,0h7.23l.89,27.53a25.55,25.55,0,0,0-14.13,38.92h-9.46l2.16-66.45h7.24a3,3,0,0,1,6.07,0Zm2.3,16.68a5.51,5.51,0,1,0-5.5,5.51A5.51,5.51,0,0,0,127.51,260.08Z" />
  <polyline class="BUNTAI_MEERKAT_JEWELRY_MEERKAT_JEWELRY_4_cls-4" points="122.18 228.32 122.18 240.37 122.18 241.96 122.18 243.4" />
  <path class="BUNTAI_MEERKAT_JEWELRY_MEERKAT_JEWELRY_4_cls-4" d="M133.33,270.93l-.89-27.53h-7.23a3,3,0,0,0-6.07,0H111.9l-2.16,66.45h9.46" />
  <path class="BUNTAI_MEERKAT_JEWELRY_MEERKAT_JEWELRY_4_cls-4" d="M120.73,243.4a1.45,1.45,0,0,1,1.45-1.44,1.43,1.43,0,0,1,1.43,1.44" />
  <path class="BUNTAI_MEERKAT_JEWELRY_MEERKAT_JEWELRY_4_cls-4" d="M120.73,243.4h0a1.44,1.44,0,1,0,2.88,0h0" />
  <path class="BUNTAI_MEERKAT_JEWELRY_MEERKAT_JEWELRY_4_cls-4" d="M133.33,270.93h0l1.26,38.92H119.2a25.55,25.55,0,0,1,14.13-38.92Z" />
  <circle class="BUNTAI_MEERKAT_JEWELRY_MEERKAT_JEWELRY_4_cls-4" cx="122.01" cy="260.08" r="5.51" />
  <path class="BUNTAI_MEERKAT_JEWELRY_MEERKAT_JEWELRY_4_cls-5" d="M122.06,228.5c-2.31,0-1.93-3.15-1.93-3.15h0a6.26,6.26,0,0,0,2.84.6,2.69,2.69,0,0,0,1.27-.32C124.24,225.81,124.29,228.5,122.06,228.5Z" />
  <path class="BUNTAI_MEERKAT_JEWELRY_MEERKAT_JEWELRY_4_cls-5" d="M126,216.07c.85,2.82.67,8.2-1.79,9.55a2.69,2.69,0,0,1-1.27.32,6.26,6.26,0,0,1-2.84-.6c-2.12-1-3.19-3.42-3-7.07a11.57,11.57,0,0,1,.66-3.55,7.45,7.45,0,0,1,2.06-3.2,2.65,2.65,0,0,1,1.89-.79,3.23,3.23,0,0,1,2.3,1.36,5,5,0,0,1-1,.19h-.06a5.9,5.9,0,0,0-2.59,4c-.65,3.1.43,6.57,2,6.57,1.74,0,1.76-4,1.65-6.18l.13,0A7.66,7.66,0,0,0,126,216.07Z" />
  <path class="BUNTAI_MEERKAT_JEWELRY_MEERKAT_JEWELRY_4_cls-5" d="M119.16,201a11,11,0,0,0,.82,3.9s-2.82,2.46-1.2,5.49a3.21,3.21,0,0,0,1,1.14,7.45,7.45,0,0,0-2.06,3.2C114,211.4,113,204.8,119.16,201Z" />
  <path class="BUNTAI_MEERKAT_JEWELRY_MEERKAT_JEWELRY_4_cls-5" d="M129.74,211.07a6.69,6.69,0,0,1-3.71,5,7.27,7.27,0,0,1-1.93.58l-.13,0a7.23,7.23,0,0,1-3.65-.38,5.87,5.87,0,0,1,2.59-4H123a5,5,0,0,0,1-.19,3.05,3.05,0,0,0,2.15-1.87,2.58,2.58,0,0,0,.12-.8c0-3.29-1.29-3.44-1.29-3.44s-.07-.18-.16-.45a4.22,4.22,0,0,1,3.29-2.76A11.2,11.2,0,0,1,129.74,211.07Z" />
  <path class="BUNTAI_MEERKAT_JEWELRY_MEERKAT_JEWELRY_4_cls-4" d="M117.74,214.72C114,211.4,113,204.8,119.16,201c.57,2.34.82,3.9.82,3.9s-2.82,2.46-1.2,5.49a3.21,3.21,0,0,0,1,1.14" />
  <path class="BUNTAI_MEERKAT_JEWELRY_MEERKAT_JEWELRY_4_cls-4" d="M120.32,216.29a7.23,7.23,0,0,0,3.65.38l.13,0a7.27,7.27,0,0,0,1.93-.58,6.69,6.69,0,0,0,3.71-5,11.2,11.2,0,0,0-1.64-8.3" />
  <path class="BUNTAI_MEERKAT_JEWELRY_MEERKAT_JEWELRY_4_cls-4" d="M124.81,205.53c.09.27.16.45.16.45s1.25.15,1.29,3.44a2.58,2.58,0,0,1-.12.8,3.05,3.05,0,0,1-2.15,1.87,5,5,0,0,1-1,.19" />
  <path class="BUNTAI_MEERKAT_JEWELRY_MEERKAT_JEWELRY_4_cls-4" d="M126,216.07c.85,2.82.67,8.2-1.79,9.55a2.69,2.69,0,0,1-1.27.32,6.26,6.26,0,0,1-2.84-.6c-2.12-1-3.19-3.42-3-7.07a11.57,11.57,0,0,1,.66-3.55,7.45,7.45,0,0,1,2.06-3.2,2.65,2.65,0,0,1,1.89-.79,3.23,3.23,0,0,1,2.3,1.36" />
  <path class="BUNTAI_MEERKAT_JEWELRY_MEERKAT_JEWELRY_4_cls-4" d="M124,216.67c.11,2.14.09,6.18-1.65,6.18-1.57,0-2.65-3.47-2-6.57a5.9,5.9,0,0,1,2.59-4H123" />
  <path class="BUNTAI_MEERKAT_JEWELRY_MEERKAT_JEWELRY_4_cls-4" d="M120.13,225.35s-.38,3.15,1.93,3.15,2.18-2.69,2.18-2.88h0" />
  <path class="BUNTAI_MEERKAT_JEWELRY_MEERKAT_JEWELRY_4_cls-4" d="M125.06,208.91a4.23,4.23,0,0,1-.49-2,4.39,4.39,0,0,1,.24-1.41,4.22,4.22,0,0,1,3.29-2.76,4,4,0,0,1,.71-.06,2.88,2.88,0,0,1,2.87,2.13" />
  <path class="BUNTAI_MEERKAT_JEWELRY_MEERKAT_JEWELRY_4_cls-1" d="M299.47,270.93l-1.26,38.92h15.4a25.55,25.55,0,0,0-14.13-38.92Z" />
  <circle class="BUNTAI_MEERKAT_JEWELRY_MEERKAT_JEWELRY_4_cls-2" cx="310.8" cy="260.08" r="5.51" />
  <path class="BUNTAI_MEERKAT_JEWELRY_MEERKAT_JEWELRY_4_cls-3" d="M310.63,244.85a1.44,1.44,0,0,0,1.44-1.45h0a1.44,1.44,0,0,0-2.88,0h0A1.44,1.44,0,0,0,310.63,244.85Zm0-4.48a3,3,0,0,1,3,3h7.25l2.16,66.45h-9.46a25.55,25.55,0,0,0-14.13-38.92l.89-27.53h7.23A3,3,0,0,1,310.63,240.37Zm.17,25.22a5.51,5.51,0,1,0-5.5-5.51A5.51,5.51,0,0,0,310.8,265.59Z" />
  <polyline class="BUNTAI_MEERKAT_JEWELRY_MEERKAT_JEWELRY_4_cls-4" points="310.63 228.32 310.63 240.37 310.63 241.96 310.63 243.4" />
  <path class="BUNTAI_MEERKAT_JEWELRY_MEERKAT_JEWELRY_4_cls-4" d="M299.48,270.93l.89-27.53h7.23a3,3,0,0,1,6.06,0h7.25l2.16,66.45h-9.46" />
  <path class="BUNTAI_MEERKAT_JEWELRY_MEERKAT_JEWELRY_4_cls-4" d="M312.07,243.4a1.44,1.44,0,0,0-2.88,0" />
  <path class="BUNTAI_MEERKAT_JEWELRY_MEERKAT_JEWELRY_4_cls-4" d="M312.07,243.4h0a1.44,1.44,0,1,1-2.88,0h0" />
  <path class="BUNTAI_MEERKAT_JEWELRY_MEERKAT_JEWELRY_4_cls-4" d="M299.48,270.93h0l-1.26,38.92h15.4a25.55,25.55,0,0,0-14.13-38.92Z" />
  <circle class="BUNTAI_MEERKAT_JEWELRY_MEERKAT_JEWELRY_4_cls-4" cx="310.8" cy="260.08" r="5.51" />
  <path class="BUNTAI_MEERKAT_JEWELRY_MEERKAT_JEWELRY_4_cls-5" d="M310.75,228.5c2.31,0,1.93-3.15,1.93-3.15h0a6.29,6.29,0,0,1-2.84.6,2.63,2.63,0,0,1-1.27-.32C308.57,225.81,308.52,228.5,310.75,228.5Z" />
  <path class="BUNTAI_MEERKAT_JEWELRY_MEERKAT_JEWELRY_4_cls-5" d="M306.78,216.07c-.85,2.82-.67,8.2,1.79,9.55a2.63,2.63,0,0,0,1.27.32,6.29,6.29,0,0,0,2.84-.6c2.12-1,3.19-3.42,3.05-7.07a11.87,11.87,0,0,0-.66-3.55,7.45,7.45,0,0,0-2.06-3.2,2.66,2.66,0,0,0-1.89-.79,3.23,3.23,0,0,0-2.3,1.36,4.84,4.84,0,0,0,1,.19h.06a5.9,5.9,0,0,1,2.59,4c.65,3.1-.44,6.57-2,6.57-1.74,0-1.76-4-1.65-6.18l-.13,0A7.66,7.66,0,0,1,306.78,216.07Z" />
  <path class="BUNTAI_MEERKAT_JEWELRY_MEERKAT_JEWELRY_4_cls-5" d="M313.65,201a10.83,10.83,0,0,1-.83,3.9s2.83,2.46,1.21,5.49a3.21,3.21,0,0,1-1,1.14,7.45,7.45,0,0,1,2.06,3.2C318.82,211.4,319.83,204.8,313.65,201Z" />
  <path class="BUNTAI_MEERKAT_JEWELRY_MEERKAT_JEWELRY_4_cls-5" d="M303.07,211.07a6.67,6.67,0,0,0,3.71,5,7.31,7.31,0,0,0,1.92.58l.14,0a7.23,7.23,0,0,0,3.65-.38,5.9,5.9,0,0,0-2.59-4h-.06a5,5,0,0,1-1-.19,3,3,0,0,1-2.15-1.87,2.58,2.58,0,0,1-.12-.8c0-3.29,1.29-3.44,1.29-3.44s.07-.18.16-.45a4.22,4.22,0,0,0-3.29-2.76A11.2,11.2,0,0,0,303.07,211.07Z" />
  <path class="BUNTAI_MEERKAT_JEWELRY_MEERKAT_JEWELRY_4_cls-4" d="M315.07,214.72c3.75-3.32,4.76-9.92-1.42-13.73-.57,2.34-.83,3.9-.83,3.9s2.83,2.46,1.21,5.49a3.21,3.21,0,0,1-1,1.14" />
  <path class="BUNTAI_MEERKAT_JEWELRY_MEERKAT_JEWELRY_4_cls-4" d="M312.49,216.29a7.23,7.23,0,0,1-3.65.38l-.14,0a7.31,7.31,0,0,1-1.92-.58,6.67,6.67,0,0,1-3.71-5,11.2,11.2,0,0,1,1.64-8.3" />
  <path class="BUNTAI_MEERKAT_JEWELRY_MEERKAT_JEWELRY_4_cls-4" d="M308,205.53c-.09.27-.16.45-.16.45s-1.25.15-1.29,3.44a2.58,2.58,0,0,0,.12.8,3,3,0,0,0,2.15,1.87,5,5,0,0,0,1,.19" />
  <path class="BUNTAI_MEERKAT_JEWELRY_MEERKAT_JEWELRY_4_cls-4" d="M306.78,216.07c-.85,2.82-.67,8.2,1.79,9.55a2.63,2.63,0,0,0,1.27.32,6.29,6.29,0,0,0,2.84-.6c2.12-1,3.19-3.42,3.05-7.07a11.87,11.87,0,0,0-.66-3.55,7.45,7.45,0,0,0-2.06-3.2,2.66,2.66,0,0,0-1.89-.79,3.23,3.23,0,0,0-2.3,1.36" />
  <path class="BUNTAI_MEERKAT_JEWELRY_MEERKAT_JEWELRY_4_cls-4" d="M308.84,216.67c-.11,2.14-.09,6.18,1.65,6.18,1.56,0,2.65-3.47,2-6.57a5.9,5.9,0,0,0-2.59-4h-.06" />
  <path class="BUNTAI_MEERKAT_JEWELRY_MEERKAT_JEWELRY_4_cls-4" d="M312.68,225.35s.38,3.15-1.93,3.15-2.18-2.69-2.18-2.88h0" />
  <path class="BUNTAI_MEERKAT_JEWELRY_MEERKAT_JEWELRY_4_cls-4" d="M307.75,208.91a4.23,4.23,0,0,0,.49-2,4.39,4.39,0,0,0-.24-1.41,4.25,4.25,0,0,0-4-2.82,2.87,2.87,0,0,0-2.86,2.13" />
</svg>