<svg id="jewelries" xmlns="http://www.w3.org/2000/svg" viewBox="0 0 432 432">
  <defs>
    <style>.BUNTAI_MEERKAT_JEWELRY_MEERKAT_JEWELRY_15_cls-1{fill:#fc9c1d;}.BUNTAI_MEERKAT_JEWELRY_MEERKAT_JEWELRY_15_cls-2{fill:none;stroke-linecap:round;stroke-linejoin:round;stroke-width:1.28px;}.BUNTAI_MEERKAT_JEWELRY_MEERKAT_JEWELRY_15_cls-2,.BUNTAI_MEERKAT_JEWELRY_MEERKAT_JEWELRY_15_cls-3{stroke:#000;}.BUNTAI_MEERKAT_JEWELRY_MEERKAT_JEWELRY_15_cls-3{fill:#834932;stroke-miterlimit:10;stroke-width:1.33px;}</style>
  </defs>
  <path class="BUNTAI_MEERKAT_JEWELRY_MEERKAT_JEWELRY_15_cls-1" d="M222.74,353.15c-1.91-3.14-6.64-3-9.2-2.29a7.75,7.75,0,0,0-5.81,5.21c-1.79,4.72-1.35,7.68,1.72,10.49s4.55,3.05,3.41,6.19-2.86,2.46-2.75,4.37,4.55,4,8.31,1.42,6.07-5.33,6.49-11.84S224.65,356.29,222.74,353.15Zm-2.92,9.05c-.94,2.93-2.5,4.87-5.61,1.9s-.28-7.47-.28-7.47a3.69,3.69,0,0,1,4.09-1.11C219.71,356.33,220.75,359.27,219.82,362.2Z" />
  <path class="BUNTAI_MEERKAT_JEWELRY_MEERKAT_JEWELRY_15_cls-2" d="M219.93,350.55a11.55,11.55,0,0,0-9.58,1.4c-10.43,14.35,4.78,14.8,2.68,20.38a4.76,4.76,0,0,1-2.36,3,1.93,1.93,0,0,0-.22,3.14,6.54,6.54,0,0,0,5.46,1.33C228,376.83,226.39,352.27,219.93,350.55Z" />
  <path class="BUNTAI_MEERKAT_JEWELRY_MEERKAT_JEWELRY_15_cls-2" d="M213.93,356.64s-2.84,4.48.28,7.46,4.67,1,5.6-1.9-.1-5.87-1.79-6.69A3.69,3.69,0,0,0,213.93,356.64Z" />
  <path class="BUNTAI_MEERKAT_JEWELRY_MEERKAT_JEWELRY_15_cls-3" d="M214.14,358.13h-.55c-30.61,0-63-38.42-69.34-46.29a17.61,17.61,0,0,1,1.67-2.35c-4.46-4.46-7.61,1-5,4.54.3.31,37.59,47.81,72.69,47.81h.55a1.89,1.89,0,0,0,0-3.7Z" />
  <path class="BUNTAI_MEERKAT_JEWELRY_MEERKAT_JEWELRY_15_cls-3" d="M269.8,312.68a18.84,18.84,0,0,1,1.92,2.14c-22.18,34.43-45,42.85-52.45,43.33a1.72,1.72,0,0,0-1.68,1.58,1.83,1.83,0,0,0,1.26,2.09,4.32,4.32,0,0,0,3.26.21c22.14-6.77,40.78-25.75,53-45.57C277.1,313.37,273.78,308.46,269.8,312.68Z" />
</svg>