<svg id="jewelries" xmlns="http://www.w3.org/2000/svg" viewBox="0 0 432 432">
  <defs>
    <style>.BUNTAI_MEERKAT_JEWELRY_MEERKAT_JEWELRY_20_cls-1{fill:#754c24;}.BUNTAI_MEERKAT_JEWELRY_MEERKAT_JEWELRY_20_cls-1,.BUNTAI_MEERKAT_JEWELRY_MEERKAT_JEWELRY_20_cls-3{stroke:#000;stroke-linecap:round;stroke-linejoin:round;stroke-width:0.9px;}.BUNTAI_MEERKAT_JEWELRY_MEERKAT_JEWELRY_20_cls-2{fill:#666;}.BUNTAI_MEERKAT_JEWELRY_MEERKAT_JEWELRY_20_cls-3{fill:none;}.BUNTAI_MEERKAT_JEWELRY_MEERKAT_JEWELRY_20_cls-4{fill:#333;}</style>
  </defs>
  <path class="BUNTAI_MEERKAT_JEWELRY_MEERKAT_JEWELRY_20_cls-1" d="M286.7,325.29c0,.15-1.05,3.2-1.1,3.36a35,35,0,0,1-2.9,7.79c-8.33,17.72-26.42,41.31-65.43,54.38h0c-.64.22-1.29.43-1.94.63h0l-1.2.38a1.69,1.69,0,0,1-.45.07,1.84,1.84,0,0,1-.33,0l-1.67-.38h-.1l-1.45-.34h0l-.36-.09h0c-36.89-9.09-55.48-32.45-64.64-50.74-4.14-8.26-6.19-16.37-8.39-22.82-.49-1.46,0-6.46,4.84-4.32-1.55.95-2.58,2.1-2.39,2.88a109.92,109.92,0,0,0,8.49,23.36c9.06,18.06,27.61,41.23,64.64,49.73l1.3.29,1-.34h0a.35.35,0,0,0,.11,0c.57-.19,1.13-.36,1.68-.56h0c38-12.78,55.61-35.74,63.72-53,2.69-5.73,2.38-5.67,3.65-10.54.19.06-.43-.45-1.55-1C284.83,321.89,287.2,323.35,286.7,325.29Z" />
  <path class="BUNTAI_MEERKAT_JEWELRY_MEERKAT_JEWELRY_20_cls-2" d="M212.39,422l4.6,12.93-3.71.38-2.37-13s.37,0,.94-.14h0Z" />
  <path class="BUNTAI_MEERKAT_JEWELRY_MEERKAT_JEWELRY_20_cls-2" d="M214.71,421.09l8.82,11.34-3.14,1.18-3.4,1.32h0L212.39,422a9.82,9.82,0,0,0,1.87-.68Z" />
  <path class="BUNTAI_MEERKAT_JEWELRY_MEERKAT_JEWELRY_20_cls-2" d="M228.41,428.67l-2.49,1.85-2.39,1.91-8.82-11.34a7.94,7.94,0,0,0,1.5-1.07l.17-.15Z" />
  <path class="BUNTAI_MEERKAT_JEWELRY_MEERKAT_JEWELRY_20_cls-2" d="M231.56,424l-1.68,2.3-1.47,2.35-12-8.8a6.53,6.53,0,0,0,1.2-1.55,1.87,1.87,0,0,0,.16-.28Z" />
  <path class="BUNTAI_MEERKAT_JEWELRY_MEERKAT_JEWELRY_20_cls-2" d="M233.54,418.69l-1,2.45-1,2.88-13.82-6a7.65,7.65,0,0,0,.58-1.51,3.59,3.59,0,0,0,.08-.35Z" />
  <path class="BUNTAI_MEERKAT_JEWELRY_MEERKAT_JEWELRY_20_cls-2" d="M233.79,414.09l-.35,2,.1,2.63-15.14-2.51a9.58,9.58,0,0,0,.22-2.09Z" />
  <path class="BUNTAI_MEERKAT_JEWELRY_MEERKAT_JEWELRY_20_cls-2" d="M233.44,412.12l.35,2H218.62a9.58,9.58,0,0,0-.22-2.09l15.14-2.51Z" />
  <path class="BUNTAI_MEERKAT_JEWELRY_MEERKAT_JEWELRY_20_cls-2" d="M232.56,407l1,2.45L218.4,412a3.59,3.59,0,0,0-.08-.35,7.65,7.65,0,0,0-.58-1.51l13.82-6Z" />
  <path class="BUNTAI_MEERKAT_JEWELRY_MEERKAT_JEWELRY_20_cls-2" d="M229.88,401.86l1.68,2.3-13.82,6a2.54,2.54,0,0,0-.16-.28,6.74,6.74,0,0,0-1.2-1.55l12-8.8Z" />
  <path class="BUNTAI_MEERKAT_JEWELRY_MEERKAT_JEWELRY_20_cls-2" d="M228.41,399.51l-12,8.8-.17-.15a7.94,7.94,0,0,0-1.5-1.07l8.82-11.34,2.39,1.92Z" />
  <path class="BUNTAI_MEERKAT_JEWELRY_MEERKAT_JEWELRY_20_cls-2" d="M223.53,395.75l-8.82,11.34-.45-.23a10.55,10.55,0,0,0-1.87-.68l4.6-12.93h0l3.4,1.32Z" />
  <path class="BUNTAI_MEERKAT_JEWELRY_MEERKAT_JEWELRY_20_cls-2" d="M217,393.25l-4.6,12.93-.54-.12h0c-.57-.11-.94-.14-.94-.14l2.37-13Z" />
  <path class="BUNTAI_MEERKAT_JEWELRY_MEERKAT_JEWELRY_20_cls-3" d="M211.85,406.05c-.57-.11-.94-.14-.94-.14l2.37-13,3.71.38h0l3.4,1.32,3.14,1.18,2.39,1.92,2.49,1.84,1.47,2.35,1.68,2.3,1,2.88,1,2.45-.1,2.63.35,2" />
  <path class="BUNTAI_MEERKAT_JEWELRY_MEERKAT_JEWELRY_20_cls-3" d="M218.62,414.09a9.58,9.58,0,0,0-.22-2.09,3.59,3.59,0,0,0-.08-.35,7.65,7.65,0,0,0-.58-1.51,2.54,2.54,0,0,0-.16-.28,6.74,6.74,0,0,0-1.2-1.55l-.17-.15a7.94,7.94,0,0,0-1.5-1.07l-.45-.23a10.55,10.55,0,0,0-1.87-.68l-.54-.12" />
  <line class="BUNTAI_MEERKAT_JEWELRY_MEERKAT_JEWELRY_20_cls-3" x1="217.74" y1="410.14" x2="231.56" y2="404.16" />
  <polyline class="BUNTAI_MEERKAT_JEWELRY_MEERKAT_JEWELRY_20_cls-3" points="216.38 408.31 216.38 408.31 228.41 399.51" />
  <line class="BUNTAI_MEERKAT_JEWELRY_MEERKAT_JEWELRY_20_cls-3" x1="214.71" y1="407.09" x2="223.53" y2="395.75" />
  <line class="BUNTAI_MEERKAT_JEWELRY_MEERKAT_JEWELRY_20_cls-3" x1="212.39" y1="406.18" x2="216.99" y2="393.25" />
  <line class="BUNTAI_MEERKAT_JEWELRY_MEERKAT_JEWELRY_20_cls-3" x1="218.4" y1="412" x2="233.54" y2="409.49" />
  <polyline class="BUNTAI_MEERKAT_JEWELRY_MEERKAT_JEWELRY_20_cls-3" points="211.85 406.05 211.85 406.06 210.2 414.09" />
  <polyline class="BUNTAI_MEERKAT_JEWELRY_MEERKAT_JEWELRY_20_cls-3" points="218.32 411.65 210.2 414.09 217.59 409.86" />
  <polyline class="BUNTAI_MEERKAT_JEWELRY_MEERKAT_JEWELRY_20_cls-3" points="216.21 408.16 210.2 414.09 214.26 406.86" />
  <path class="BUNTAI_MEERKAT_JEWELRY_MEERKAT_JEWELRY_20_cls-3" d="M211.85,422.13c-.57.11-.94.14-.94.14l2.37,13,3.71-.38h0l3.4-1.32,3.14-1.18,2.39-1.91,2.49-1.85,1.47-2.35,1.68-2.3,1-2.88,1-2.45-.1-2.63.35-2H218.62a9.58,9.58,0,0,1-.22,2.09,3.59,3.59,0,0,1-.08.35,7.65,7.65,0,0,1-.58,1.51,1.87,1.87,0,0,1-.16.28,6.53,6.53,0,0,1-1.2,1.55l-.17.15a7.94,7.94,0,0,1-1.5,1.07l-.45.23a9.82,9.82,0,0,1-1.87.68l-.54.13" />
  <line class="BUNTAI_MEERKAT_JEWELRY_MEERKAT_JEWELRY_20_cls-3" x1="231.56" y1="424.02" x2="217.74" y2="418.04" />
  <polyline class="BUNTAI_MEERKAT_JEWELRY_MEERKAT_JEWELRY_20_cls-3" points="228.41 428.67 216.38 419.87 216.38 419.87" />
  <line class="BUNTAI_MEERKAT_JEWELRY_MEERKAT_JEWELRY_20_cls-3" x1="223.53" y1="432.43" x2="214.71" y2="421.09" />
  <line class="BUNTAI_MEERKAT_JEWELRY_MEERKAT_JEWELRY_20_cls-3" x1="216.99" y1="434.93" x2="212.39" y2="422" />
  <line class="BUNTAI_MEERKAT_JEWELRY_MEERKAT_JEWELRY_20_cls-3" x1="233.54" y1="418.69" x2="218.4" y2="416.18" />
  <polyline class="BUNTAI_MEERKAT_JEWELRY_MEERKAT_JEWELRY_20_cls-3" points="211.85 422.13 211.85 422.13 210.2 414.09 218.62 414.09" />
  <polyline class="BUNTAI_MEERKAT_JEWELRY_MEERKAT_JEWELRY_20_cls-3" points="218.32 416.53 210.2 414.09 217.59 418.32" />
  <polyline class="BUNTAI_MEERKAT_JEWELRY_MEERKAT_JEWELRY_20_cls-3" points="216.21 420.02 210.2 414.09 214.26 421.32" />
  <path class="BUNTAI_MEERKAT_JEWELRY_MEERKAT_JEWELRY_20_cls-4" d="M210.45,388.6l1.86.45s1.93-1,2.72.39.43,2.33-.6,2.75-2.56.05-2.85-.69a4.37,4.37,0,0,0-1.79-.35,4,4,0,0,0,3.23,2.76c2.48.22,4-1.14,4.24-3a3.06,3.06,0,0,0-2-3.27A4.11,4.11,0,0,0,210.45,388.6Z" />
  <path class="BUNTAI_MEERKAT_JEWELRY_MEERKAT_JEWELRY_20_cls-3" d="M209.69,391.06a3.6,3.6,0,0,0,3.39,2.93l.38,0a4.09,4.09,0,0,0,2.53-.86,3.17,3.17,0,0,0,1.26-2.33,1.09,1.09,0,0,0,0-.18,3.14,3.14,0,0,0-.86-2.13,4,4,0,0,0-2.94-1.22,3.92,3.92,0,0,0-3.09,1.41l1.88.45a2.26,2.26,0,0,1,2.35,0,1.77,1.77,0,0,1,.94,1.53,1.59,1.59,0,0,1-.23.82,2.08,2.08,0,0,1-1.85,1,2.15,2.15,0,0,1-1.83-1h0Z" />
</svg>