<svg id="jewelries" xmlns="http://www.w3.org/2000/svg" viewBox="0 0 432 432">
  <defs>
    <style>.BUNTAI_MEERKAT_JEWELRY_MEERKAT_JEWELRY_14_cls-1{fill:#754c24;stroke-width:0.78px;}.BUNTAI_MEERKAT_JEWELRY_MEERKAT_JEWELRY_14_cls-1,.BUNTAI_MEERKAT_JEWELRY_MEERKAT_JEWELRY_14_cls-6,.BUNTAI_MEERKAT_JEWELRY_MEERKAT_JEWELRY_14_cls-7{stroke:#000;}.BUNTAI_MEERKAT_JEWELRY_MEERKAT_JEWELRY_14_cls-1,.BUNTAI_MEERKAT_JEWELRY_MEERKAT_JEWELRY_14_cls-7{stroke-miterlimit:10;}.BUNTAI_MEERKAT_JEWELRY_MEERKAT_JEWELRY_14_cls-2{fill:#4d4d4d;}.BUNTAI_MEERKAT_JEWELRY_MEERKAT_JEWELRY_14_cls-3{fill:#333;}.BUNTAI_MEERKAT_JEWELRY_MEERKAT_JEWELRY_14_cls-4{fill:#8c6239;}.BUNTAI_MEERKAT_JEWELRY_MEERKAT_JEWELRY_14_cls-5{fill:#006837;}.BUNTAI_MEERKAT_JEWELRY_MEERKAT_JEWELRY_14_cls-6,.BUNTAI_MEERKAT_JEWELRY_MEERKAT_JEWELRY_14_cls-7{fill:none;stroke-width:0.58px;}.BUNTAI_MEERKAT_JEWELRY_MEERKAT_JEWELRY_14_cls-6{stroke-linecap:round;stroke-linejoin:round;}</style>
  </defs>
  <path class="BUNTAI_MEERKAT_JEWELRY_MEERKAT_JEWELRY_14_cls-1" d="M275.51,317.93h0c-7.92,18.29-27.53,48.12-64,60.85a1.48,1.48,0,0,1-.42.07l-.29,0c-35.44-8.52-53-33.05-61.55-52.15a120.57,120.57,0,0,1-6-16.63c-.73-2-.26-5.05,3.95-2.79a11.07,11.07,0,0,0-1.74,1.48,117.86,117.86,0,0,0,6.06,17c8.27,18.49,25.3,42.24,59.48,50.58,35.32-12.43,54.28-41.59,62-59.34,0,0-2-1.29-2.4-1.54.43-.54,2-2.25,4.57-.36C276,315.71,275.66,317.5,275.51,317.93Z" />
  <path class="BUNTAI_MEERKAT_JEWELRY_MEERKAT_JEWELRY_14_cls-2" d="M217.08,396.88c1.64,1.45,2.89,8.55-3.56,9.45s-9.8-5.95-6-11.78c3.67-5.64,10.75-3.09,11.19-2.93a8.73,8.73,0,0,0-10.08,3.77c-4.23,6.36,3.94,10.59,6.26,7.33s-.57-6.61-4.31-7.05C212.45,394.5,215.43,395.43,217.08,396.88Z" />
  <path class="BUNTAI_MEERKAT_JEWELRY_MEERKAT_JEWELRY_14_cls-3" d="M224.43,399.05c-.45-4.95-7.77-10.07-13.87-3.38,1.89-1.17,4.87-.24,6.52,1.21s2.89,8.55-3.56,9.45-9.8-5.95-6-11.78c3.67-5.64,10.75-3.09,11.19-2.93h0a11,11,0,0,1,3,1.26S221,387,212,386.38c-.48,0-1-.06-1.54-.06h-.55c-10,.39-13.79,11.4-10.92,18.32s11.27,9.59,17.32,7.66S224.87,404,224.43,399.05Z" />
  <path class="BUNTAI_MEERKAT_JEWELRY_MEERKAT_JEWELRY_14_cls-4" d="M212,380.42v5.91a.11.11,0,0,1,0,.05c-.48,0-1-.06-1.54-.06h-.55v-5.91a1.37,1.37,0,0,1,0-.19,2.73,2.73,0,0,0,1,.19,2.94,2.94,0,0,0,1-.18A1.1,1.1,0,0,1,212,380.42Z" />
  <path class="BUNTAI_MEERKAT_JEWELRY_MEERKAT_JEWELRY_14_cls-5" d="M211,374.55a2.94,2.94,0,1,1,0,5.87,2.73,2.73,0,0,1-1-.19,2.91,2.91,0,0,1-1.93-2.74A3,3,0,0,1,211,374.55Z" />
  <path class="BUNTAI_MEERKAT_JEWELRY_MEERKAT_JEWELRY_14_cls-6" d="M218.71,391.63a11,11,0,0,1,3,1.26S221,387,212,386.38c-.48,0-1-.06-1.54-.06h-.55c-10,.39-13.79,11.4-10.92,18.32s11.27,9.59,17.32,7.66,8.54-8.3,8.1-13.26-7.77-10.07-13.87-3.38c3.74.44,6.63,3.78,4.31,7.05s-10.49-1-6.26-7.33a8.73,8.73,0,0,1,10.08-3.77" />
  <path class="BUNTAI_MEERKAT_JEWELRY_MEERKAT_JEWELRY_14_cls-6" d="M219.73,390.78h0" />
  <path class="BUNTAI_MEERKAT_JEWELRY_MEERKAT_JEWELRY_14_cls-6" d="M213.52,387.53a8.22,8.22,0,0,1,.13,2.54,19.08,19.08,0,0,1,6.07.7A8.7,8.7,0,0,0,213.52,387.53Z" />
  <path class="BUNTAI_MEERKAT_JEWELRY_MEERKAT_JEWELRY_14_cls-6" d="M208.55,387.86s-4.49,2-5.59,4.55a13.46,13.46,0,0,1,3.47,1.89l1.71-2.13a19.25,19.25,0,0,0-2.39-1.64l-.86,1.05a6.23,6.23,0,0,1,1.61.91" />
  <path class="BUNTAI_MEERKAT_JEWELRY_MEERKAT_JEWELRY_14_cls-6" d="M202.22,398.38l1.35.16v3h-2.66a26.94,26.94,0,0,1,.46-4.93,25.05,25.05,0,0,1,3.58.5,42,42,0,0,0,0,6.2c-3.66,1.19-5,.41-5,.41s-1.06-5.8,1.12-9.41a15.53,15.53,0,0,1,4.75,1.64" />
  <path class="BUNTAI_MEERKAT_JEWELRY_MEERKAT_JEWELRY_14_cls-6" d="M218.71,391.63h0c-.44-.16-7.52-2.71-11.19,2.93-3.78,5.83-.42,12.69,6,11.78s5.2-8,3.56-9.45-4.63-2.38-6.52-1.21" />
  <path class="BUNTAI_MEERKAT_JEWELRY_MEERKAT_JEWELRY_14_cls-6" d="M205.34,404a11,11,0,0,1-4.18,1.93C205.94,410.35,210,411,210,411l1.68-3.13s-4-1.34-5.25-2.78c-1.52,1-1.74,1.42-1.74,1.42a21.28,21.28,0,0,0,3.66,2.47c.77-.81.77-1,.77-1" />
  <path class="BUNTAI_MEERKAT_JEWELRY_MEERKAT_JEWELRY_14_cls-6" d="M212.78,407.47a36.77,36.77,0,0,1-.58,3.65,7.63,7.63,0,0,0,5.64-1.82,9.61,9.61,0,0,0-1-2.25A39.25,39.25,0,0,1,212.78,407.47Z" />
  <path class="BUNTAI_MEERKAT_JEWELRY_MEERKAT_JEWELRY_14_cls-6" d="M219.32,397.56a8,8,0,0,0-4.2-2.72,6.58,6.58,0,0,1,5.42.37A11.58,11.58,0,0,0,219.32,397.56Z" />
  <path class="BUNTAI_MEERKAT_JEWELRY_MEERKAT_JEWELRY_14_cls-6" d="M222.05,396.6s-2.17,1.52-2.69,3.13a10.74,10.74,0,0,1-.66,4.49,6.53,6.53,0,0,1-.87,1.39,11.76,11.76,0,0,1,2.11,2.63s4.09-2.88,2.9-9.25a4.3,4.3,0,0,0-2.4.74s-.21,3.59-.86,4.69l-.06.1a8,8,0,0,0,1.28.82" />
  <path class="BUNTAI_MEERKAT_JEWELRY_MEERKAT_JEWELRY_14_cls-6" d="M210,380.23a2.91,2.91,0,0,1-1.93-2.74,3,3,0,1,1,3,2.93A2.73,2.73,0,0,1,210,380.23Z" />
  <path class="BUNTAI_MEERKAT_JEWELRY_MEERKAT_JEWELRY_14_cls-7" d="M209.93,386.33h0v-5.91a1.37,1.37,0,0,1,0-.19" />
  <path class="BUNTAI_MEERKAT_JEWELRY_MEERKAT_JEWELRY_14_cls-7" d="M212,380.24a1.1,1.1,0,0,1,0,.18v5.91a.11.11,0,0,1,0,.05" />
</svg>