<svg id="jewelries" xmlns="http://www.w3.org/2000/svg" viewBox="0 0 432 432">
  <defs>
    <style>.BUNTAI_MEERKAT_JEWELRY_MEERKAT_JEWELRY_6_cls-1{fill:#fff;}.BUNTAI_MEERKAT_JEWELRY_MEERKAT_JEWELRY_6_cls-1,.BUNTAI_MEERKAT_JEWELRY_MEERKAT_JEWELRY_6_cls-2,.BUNTAI_MEERKAT_JEWELRY_MEERKAT_JEWELRY_6_cls-4,.BUNTAI_MEERKAT_JEWELRY_MEERKAT_JEWELRY_6_cls-7{stroke:#000;}.BUNTAI_MEERKAT_JEWELRY_MEERKAT_JEWELRY_6_cls-1,.BUNTAI_MEERKAT_JEWELRY_MEERKAT_JEWELRY_6_cls-4,.BUNTAI_MEERKAT_JEWELRY_MEERKAT_JEWELRY_6_cls-7{stroke-linecap:round;stroke-linejoin:round;}.BUNTAI_MEERKAT_JEWELRY_MEERKAT_JEWELRY_6_cls-1,.BUNTAI_MEERKAT_JEWELRY_MEERKAT_JEWELRY_6_cls-4{stroke-width:0.95px;}.BUNTAI_MEERKAT_JEWELRY_MEERKAT_JEWELRY_6_cls-2{fill:#754c24;stroke-miterlimit:10;stroke-width:0.85px;}.BUNTAI_MEERKAT_JEWELRY_MEERKAT_JEWELRY_6_cls-3{fill:#333;}.BUNTAI_MEERKAT_JEWELRY_MEERKAT_JEWELRY_6_cls-4,.BUNTAI_MEERKAT_JEWELRY_MEERKAT_JEWELRY_6_cls-7{fill:none;}.BUNTAI_MEERKAT_JEWELRY_MEERKAT_JEWELRY_6_cls-5{fill:#39b54a;}.BUNTAI_MEERKAT_JEWELRY_MEERKAT_JEWELRY_6_cls-6{fill:#c7a858;}.BUNTAI_MEERKAT_JEWELRY_MEERKAT_JEWELRY_6_cls-7{stroke-width:1.19px;}</style>
  </defs>
  <path class="BUNTAI_MEERKAT_JEWELRY_MEERKAT_JEWELRY_6_cls-1" d="M205.9,416.78a28.66,28.66,0,0,1,3.87,9.77s5.13-2.49,5.56-18.39a95,95,0,0,0-.3-10.56c0-.14,0-.28,0-.42a.88.88,0,0,0,0-.17l0-.33c0-.46-.09-.91-.13-1.33l0-.28a2.51,2.51,0,0,1,0-.27c0-.13,0-.24,0-.37,0-.29-.07-.58-.11-.85,0-.12,0-.23,0-.34s0-.22-.05-.32l-.06-.41c0-.11,0-.22-.05-.33l-.06-.39,0-.18c0-.1,0-.19,0-.28a.09.09,0,0,1,0-.05c0-.11,0-.21-.05-.31l-.06-.33c0-.26-.09-.5-.13-.71a.5.5,0,0,1,0-.12.09.09,0,0,1,0-.05,1.29,1.29,0,0,1,0-.19c0-.13-.05-.26-.07-.36l2.27-.16-.07-.9-2.95.21-1.38-17.17a1.46,1.46,0,0,0-1.6-1.29,1.54,1.54,0,0,0-1,.48,1.34,1.34,0,0,0-.36,1l1.38,17.17-3.1.21.07.9,2.51-.17c0,.23,0,.61.08,1.09a2.64,2.64,0,0,1,0,.29.57.57,0,0,1,0,.13.49.49,0,0,0,0,.12c0,.1,0,.21,0,.31,0,.33,0,.68.05,1.05,0,.18,0,.36,0,.55,0,.38,0,.78,0,1.19s0,.77,0,1.17v1c0,.3,0,.6,0,.92v.17q0,.59,0,1.2c0,.15,0,.31,0,.47l0,.71a1.93,1.93,0,0,0,0,.24c0,.13,0,.25,0,.38s0,.5,0,.76c0,.54-.08,1.09-.13,1.65,0,.27-.05.55-.08.83s0,.28,0,.42c0,.3-.07.61-.11.91l-.09.65q-.07.6-.18,1.2c0,.14-.05.28-.07.41,0,.29-.1.58-.16.87l-.15.76c0,.16-.07.33-.11.5s-.09.38-.13.57,0,.12-.05.18,0,.21-.08.32a3,3,0,0,1-.08.32c-.05.21-.11.41-.17.61l0,.13c0,.11-.07.22-.1.33l-.15.48c-.18.56-.37,1.11-.58,1.64l-.08.2c-.11.27-.22.54-.34.8l-.09.21-.1.2c0,.1-.09.19-.13.28h0l-.2.39,0,.09C206.13,416.37,206,416.58,205.9,416.78Z" />
  <path class="BUNTAI_MEERKAT_JEWELRY_MEERKAT_JEWELRY_6_cls-1" d="M208.75,371.4l.1,1.2,3-.21-.1-1.2a1.46,1.46,0,0,0-1.6-1.29,1.54,1.54,0,0,0-1,.48A1.34,1.34,0,0,0,208.75,371.4Z" />
  <polygon class="BUNTAI_MEERKAT_JEWELRY_MEERKAT_JEWELRY_6_cls-1" points="208.85 372.6 210.13 388.57 213.12 388.36 211.84 372.39 208.85 372.6" />
  <polygon class="BUNTAI_MEERKAT_JEWELRY_MEERKAT_JEWELRY_6_cls-1" points="207.03 388.79 207.1 389.68 216.14 389.05 216.06 388.15 207.03 388.79" />
  <polygon class="BUNTAI_MEERKAT_JEWELRY_MEERKAT_JEWELRY_6_cls-1" points="207.03 388.79 207.1 389.68 216.14 389.05 216.06 388.15 207.03 388.79" />
  <path class="BUNTAI_MEERKAT_JEWELRY_MEERKAT_JEWELRY_6_cls-1" d="M209.61,389.51c0,.49.13,1.55.19,3,.24,5.66.15,17.24-3.9,24.28a28.66,28.66,0,0,1,3.87,9.77s5.13-2.49,5.56-18.39a90.65,90.65,0,0,0-.94-16c-.21-1.42-.41-2.43-.52-3" />
  <path class="BUNTAI_MEERKAT_JEWELRY_MEERKAT_JEWELRY_6_cls-1" d="M213.12,388.36l-.07-.91-.14-1.73-.09-1.17-.16-2-.06-.79-.06-.65-.13-1.66,0-.65-.12-1.49,0-.45-.14-1.73-.05-.58-.12-1.56,0-.61-.1-1.2a1.46,1.46,0,0,0-1.6-1.29,1.5,1.5,0,0,0-1,.48,1.34,1.34,0,0,0-.36,1l.1,1.2h0l.12,1.47,0,.24.12,1.54.06.76.11,1.38,0,.38.14,1.77,0,.49.1,1.19.07.86v.09l.1,1.19.12,1.43.12,1.52.09,1.13,0,.53" />
  <line class="BUNTAI_MEERKAT_JEWELRY_MEERKAT_JEWELRY_6_cls-1" x1="211.84" y1="372.39" x2="208.85" y2="372.6" />
  <polyline class="BUNTAI_MEERKAT_JEWELRY_MEERKAT_JEWELRY_6_cls-1" points="210.09 388.04 213.05 387.45 210 386.91 212.91 385.72 209.88 385.39 212.82 384.55 209.76 383.96 212.68 382.87 209.66 382.68" />
  <line class="BUNTAI_MEERKAT_JEWELRY_MEERKAT_JEWELRY_6_cls-1" x1="212.6" y1="381.77" x2="209.59" y2="381.82" />
  <path class="BUNTAI_MEERKAT_JEWELRY_MEERKAT_JEWELRY_6_cls-1" d="M209,374.07c.85-.32,2.49-.93,2.92-1.07" />
  <line class="BUNTAI_MEERKAT_JEWELRY_MEERKAT_JEWELRY_6_cls-1" x1="212.06" y1="375.14" x2="209.11" y2="375.85" />
  <line class="BUNTAI_MEERKAT_JEWELRY_MEERKAT_JEWELRY_6_cls-1" x1="212.01" y1="374.56" x2="208.99" y2="374.31" />
  <line class="BUNTAI_MEERKAT_JEWELRY_MEERKAT_JEWELRY_6_cls-1" x1="212.24" y1="377.32" x2="209.28" y2="377.99" />
  <line class="BUNTAI_MEERKAT_JEWELRY_MEERKAT_JEWELRY_6_cls-1" x1="212.2" y1="376.87" x2="209.17" y2="376.61" />
  <path class="BUNTAI_MEERKAT_JEWELRY_MEERKAT_JEWELRY_6_cls-1" d="M212.36,378.81l-3.05-.44" />
  <path class="BUNTAI_MEERKAT_JEWELRY_MEERKAT_JEWELRY_6_cls-1" d="M212.41,379.46l-3,.68" />
  <line class="BUNTAI_MEERKAT_JEWELRY_MEERKAT_JEWELRY_6_cls-1" x1="212.54" y1="381.12" x2="209.49" y2="380.63" />
  <path class="BUNTAI_MEERKAT_JEWELRY_MEERKAT_JEWELRY_6_cls-2" d="M275.84,310.21a1.42,1.42,0,0,0-.73-.23c-1.48-.07-3.06,2-3.06,2l1.49,1.18c-8.42,17.53-25.43,39.36-61,52l-.05,0-1.65.57-.12,0h0c-.34.12-.67.24-1,.35l-1.27-.3h0l-1.84-.46c-35.07-9.16-52.79-32.63-61.52-51-1.39-2.91-2.59-5.8-3.64-8.6l1.46-.89s-1.08-1.58-2.32-1.46h-.16c-1.29.26-2,1.66-1.49,3.27a.88.88,0,0,0,.05.15h0c1,2.76,2.23,5.59,3.59,8.46,9,18.94,27.21,43.12,63.36,52.53l.36.1h0l1.43.35h.08c.55.14,1.09.26,1.65.39a1.1,1.1,0,0,0,.31,0,1.33,1.33,0,0,0,.45-.07l1.18-.39h0l1.89-.66h0c36.52-12.93,54.34-35.79,63-53.81a1.15,1.15,0,0,0,.07-.15C276.59,313.05,277.23,311.09,275.84,310.21Z" />
  <path class="BUNTAI_MEERKAT_JEWELRY_MEERKAT_JEWELRY_6_cls-3" d="M206.64,365.26l1.82.47s1.9-1,2.67.4.42,2.41-.59,2.85-2.51,0-2.8-.72a4.12,4.12,0,0,0-1.75-.36s.73,2.62,3.17,2.85a3.52,3.52,0,0,0,4.16-3,3.19,3.19,0,0,0-2-3.39A3.86,3.86,0,0,0,206.64,365.26Z" />
  <path class="BUNTAI_MEERKAT_JEWELRY_MEERKAT_JEWELRY_6_cls-4" d="M205.9,367.8a3.6,3.6,0,0,0,3.32,3l.37,0a3.87,3.87,0,0,0,2.48-.89,3.32,3.32,0,0,0,1.23-2.41.55.55,0,0,0,0-.18,3.37,3.37,0,0,0-.84-2.21,3.88,3.88,0,0,0-2.89-1.27,3.79,3.79,0,0,0-3,1.46l1.84.47a2.07,2.07,0,0,1,1.19-.36,2,2,0,0,1,1.12.32,1.86,1.86,0,0,1,.92,1.59,1.72,1.72,0,0,1-.22.84,2.1,2.1,0,0,1-3.61.06h0Z" />
  <path class="BUNTAI_MEERKAT_JEWELRY_MEERKAT_JEWELRY_6_cls-5" d="M128.85,262.23c0,6.2-3.13,11.23-7,11.23s-7-5-7-11.23S118,251,121.85,251,128.85,256,128.85,262.23Z" />
  <path class="BUNTAI_MEERKAT_JEWELRY_MEERKAT_JEWELRY_6_cls-6" d="M121.85,247.91c-4.93,0-8.93,6.4-8.93,14.32s4,14.32,8.93,14.32,8.93-6.4,8.93-14.32S126.78,247.91,121.85,247.91Zm0,25.54c-3.87,0-7-5-7-11.22S118,251,121.85,251s7,5,7,11.24S125.72,273.45,121.85,273.45Z" />
  <ellipse class="BUNTAI_MEERKAT_JEWELRY_MEERKAT_JEWELRY_6_cls-6" cx="121.85" cy="245.51" rx="3.73" ry="2.4" />
  <path class="BUNTAI_MEERKAT_JEWELRY_MEERKAT_JEWELRY_6_cls-6" d="M121.75,230.43c-2.63,0-2.2-3.59-2.2-3.59h0a7.19,7.19,0,0,0,3.23.68,3,3,0,0,0,1.44-.36C124.23,227.37,124.28,230.43,121.75,230.43Z" />
  <path class="BUNTAI_MEERKAT_JEWELRY_MEERKAT_JEWELRY_6_cls-6" d="M126.26,216.29c1,3.2.77,9.33-2,10.87a3,3,0,0,1-1.44.36,7.19,7.19,0,0,1-3.23-.68c-2.41-1.17-3.63-3.9-3.47-8a13.52,13.52,0,0,1,.75-4,8.53,8.53,0,0,1,2.34-3.64,3,3,0,0,1,2.15-.9,3.67,3.67,0,0,1,2.62,1.54,5.06,5.06,0,0,1-1.16.22h-.07a6.65,6.65,0,0,0-2.94,4.53c-.74,3.52.49,7.47,2.27,7.47,2,0,2-4.59,1.88-7l.14,0A8.73,8.73,0,0,0,126.26,216.29Z" />
  <path class="BUNTAI_MEERKAT_JEWELRY_MEERKAT_JEWELRY_6_cls-6" d="M119.55,199c.33,3.4-.17,4.58-.17,4.58s-3.21,2.79-1.37,6.24a3.93,3.93,0,0,0,1.16,1.3,8.53,8.53,0,0,0-2.34,3.64C112.56,211,112.22,202.11,119.55,199Z" />
  <path class="BUNTAI_MEERKAT_JEWELRY_MEERKAT_JEWELRY_6_cls-6" d="M130.48,210.61a7.6,7.6,0,0,1-4.22,5.68,8.26,8.26,0,0,1-2.19.66.44.44,0,0,1-.15,0,8.26,8.26,0,0,1-4.15-.44,6.65,6.65,0,0,1,2.94-4.54h.07a5.68,5.68,0,0,0,1.16-.23,3.4,3.4,0,0,0,2.44-2.12,2.67,2.67,0,0,0,.14-.91c0-3.74-1.47-3.91-1.47-3.91s-.08-.2-.17-.51a4.77,4.77,0,0,1,3.73-3.14A12.74,12.74,0,0,1,130.48,210.61Z" />
  <path class="BUNTAI_MEERKAT_JEWELRY_MEERKAT_JEWELRY_6_cls-7" d="M116.83,214.76C112.56,211,112,202.18,119.55,199a7.81,7.81,0,0,1-.17,4.58s-3.21,2.79-1.37,6.24a3.93,3.93,0,0,0,1.16,1.3" />
  <path class="BUNTAI_MEERKAT_JEWELRY_MEERKAT_JEWELRY_6_cls-7" d="M119.77,216.54a8.26,8.26,0,0,0,4.15.44.44.44,0,0,0,.15,0,8.26,8.26,0,0,0,2.19-.66,7.6,7.6,0,0,0,4.22-5.68,12.74,12.74,0,0,0-1.87-9.44" />
  <path class="BUNTAI_MEERKAT_JEWELRY_MEERKAT_JEWELRY_6_cls-7" d="M124.88,204.31c.09.31.17.51.17.51s1.43.17,1.47,3.91a2.67,2.67,0,0,1-.14.91,3.4,3.4,0,0,1-2.44,2.12,5.68,5.68,0,0,1-1.16.23" />
  <path class="BUNTAI_MEERKAT_JEWELRY_MEERKAT_JEWELRY_6_cls-7" d="M126.26,216.29c1,3.2.77,9.33-2,10.87a3,3,0,0,1-1.44.36,7.19,7.19,0,0,1-3.23-.68c-2.41-1.17-3.63-3.9-3.47-8a13.52,13.52,0,0,1,.75-4,8.53,8.53,0,0,1,2.34-3.64,3,3,0,0,1,2.15-.9,3.67,3.67,0,0,1,2.62,1.54" />
  <path class="BUNTAI_MEERKAT_JEWELRY_MEERKAT_JEWELRY_6_cls-7" d="M123.92,217c.12,2.43.1,7-1.88,7-1.78,0-3-3.95-2.27-7.47a6.65,6.65,0,0,1,2.94-4.53h.07" />
  <path class="BUNTAI_MEERKAT_JEWELRY_MEERKAT_JEWELRY_6_cls-7" d="M119.55,226.84s-.43,3.59,2.2,3.59,2.48-3.06,2.47-3.27h0" />
  <ellipse class="BUNTAI_MEERKAT_JEWELRY_MEERKAT_JEWELRY_6_cls-7" cx="121.85" cy="245.51" rx="3.73" ry="2.4" />
  <path class="BUNTAI_MEERKAT_JEWELRY_MEERKAT_JEWELRY_6_cls-7" d="M130.78,262.23c0,7.91-4,14.32-8.93,14.32s-8.93-6.41-8.93-14.32,4-14.32,8.93-14.32S130.78,254.32,130.78,262.23Z" />
  <path class="BUNTAI_MEERKAT_JEWELRY_MEERKAT_JEWELRY_6_cls-7" d="M128.85,262.23c0,6.2-3.13,11.23-7,11.23s-7-5-7-11.23S118,251,121.85,251,128.85,256,128.85,262.23Z" />
  <line class="BUNTAI_MEERKAT_JEWELRY_MEERKAT_JEWELRY_6_cls-7" x1="121.75" y1="230.43" x2="121.75" y2="243.11" />
  <path class="BUNTAI_MEERKAT_JEWELRY_MEERKAT_JEWELRY_6_cls-7" d="M122.47,253.38s4.21,1.54,4,9.53" />
  <path class="BUNTAI_MEERKAT_JEWELRY_MEERKAT_JEWELRY_6_cls-7" d="M125.15,208.15a4.82,4.82,0,0,1-.55-2.24,4.72,4.72,0,0,1,.28-1.6,4.77,4.77,0,0,1,3.73-3.14,4.32,4.32,0,0,1,.82-.07,3.27,3.27,0,0,1,3.25,2.42" />
</svg>