<svg id="jewelries" xmlns="http://www.w3.org/2000/svg" viewBox="0 0 432 432">
  <defs>
    <style>.BUNTAI_MEERKAT_JEWELRY_MEERKAT_JEWELRY_26_cls-1,.BUNTAI_MEERKAT_JEWELRY_MEERKAT_JEWELRY_26_cls-4{fill:none;stroke-linecap:round;stroke-linejoin:round;}.BUNTAI_MEERKAT_JEWELRY_MEERKAT_JEWELRY_26_cls-1,.BUNTAI_MEERKAT_JEWELRY_MEERKAT_JEWELRY_26_cls-4,.BUNTAI_MEERKAT_JEWELRY_MEERKAT_JEWELRY_26_cls-5{stroke:#000;}.BUNTAI_MEERKAT_JEWELRY_MEERKAT_JEWELRY_26_cls-1{stroke-width:1.22px;}.BUNTAI_MEERKAT_JEWELRY_MEERKAT_JEWELRY_26_cls-2{fill:#c0c380;}.BUNTAI_MEERKAT_JEWELRY_MEERKAT_JEWELRY_26_cls-3{fill:#057948;}.BUNTAI_MEERKAT_JEWELRY_MEERKAT_JEWELRY_26_cls-4{stroke-width:0.89px;}.BUNTAI_MEERKAT_JEWELRY_MEERKAT_JEWELRY_26_cls-5{fill:#ad7d2f;stroke-miterlimit:10;stroke-width:1.49px;}</style>
  </defs>
  <line class="BUNTAI_MEERKAT_JEWELRY_MEERKAT_JEWELRY_26_cls-1" x1="222.54" y1="370.24" x2="222.54" y2="373.7" />
  <path class="BUNTAI_MEERKAT_JEWELRY_MEERKAT_JEWELRY_26_cls-2" d="M236.57,400.2a7.13,7.13,0,0,1-1.71,4.29l-1.19.53h0l-7.4,4.74a16.4,16.4,0,0,0-3.43,3.54,16,16,0,0,0-3.42-3.54L212,405c-.74-.32-1.18-.53-1.18-.53a7.11,7.11,0,0,1-1.72-4.29,13.66,13.66,0,0,0,1.65,1,8,8,0,0,1-1.37-4.77,13.55,13.55,0,0,1,1.39-6c.9-1.52,3.83-4.95,4.11-6.62-1.31-1.53-1.79-3.71.76-3.71a2.8,2.8,0,0,1,3,2h-1.49s-.51-.6-1-.36.21.74.62,1.71-.22,2.31-1.11,3.4a21,21,0,0,1,4.79-3.32v-1.86s-1.59-4.27-1.92-5.94a1.61,1.61,0,0,1,.91-2.05h6.85a1.62,1.62,0,0,1,.92,2.05,61.7,61.7,0,0,1-1.93,5.94v1.86a20.77,20.77,0,0,1,4.79,3.32c-.88-1.09-1.53-2.43-1.11-3.4s1.11-1.46.62-1.71-1,.36-1,.36h-1.48a2.8,2.8,0,0,1,3-2c2.56,0,2.07,2.18.76,3.71.28,1.67,3.21,5.1,4.11,6.62s2.63,7.17,0,10.73A12.78,12.78,0,0,0,236.57,400.2Z" />
  <path class="BUNTAI_MEERKAT_JEWELRY_MEERKAT_JEWELRY_26_cls-3" d="M222.41,387s-7.07,2.12-8,7.25,2.5,10.11,7.9,10.11,7.8-2.59,8.06-3.45-.42,1.25.45-2.45.94-5.22-1.78-8A14.11,14.11,0,0,0,222.41,387Z" />
  <path class="BUNTAI_MEERKAT_JEWELRY_MEERKAT_JEWELRY_26_cls-4" d="M226.51,404h0c3.26-1.3,5.19-4.43,5.19-8.65,0-5.63-8.87-8.73-8.87-8.73s-8.87,3.1-8.87,8.73c0,4.22,1.92,7.35,5.18,8.65h0" />
  <path class="BUNTAI_MEERKAT_JEWELRY_MEERKAT_JEWELRY_26_cls-4" d="M219.14,404a9.78,9.78,0,0,0,3.69.67" />
  <path class="BUNTAI_MEERKAT_JEWELRY_MEERKAT_JEWELRY_26_cls-4" d="M231.28,402.66c.27-.4,1.38-2.34,1.38-7.54,0-5.9-9.84-11.44-9.84-11.44S213,389.22,213,395.12c0,5.2,1.11,7.14,1.38,7.54-3.76-4.52-3.5-9.33-1-13.1a14.32,14.32,0,0,1,2.29-2.69,21,21,0,0,1,4.79-3.32v-1.86s-1.59-4.27-1.92-5.94a1.61,1.61,0,0,1,.91-2.05h6.85a1.62,1.62,0,0,1,.92,2.05,61.7,61.7,0,0,1-1.93,5.94v1.86a20.77,20.77,0,0,1,4.79,3.32,15.1,15.1,0,0,1,2.29,2.69C234.79,393.33,235.05,398.14,231.28,402.66Z" />
  <path class="BUNTAI_MEERKAT_JEWELRY_MEERKAT_JEWELRY_26_cls-4" d="M214.41,402.71v0h0a45.23,45.23,0,0,0,4.71,1.26" />
  <path class="BUNTAI_MEERKAT_JEWELRY_MEERKAT_JEWELRY_26_cls-4" d="M215.62,386.87c.89-1.09,1.53-2.43,1.11-3.4s-1.11-1.46-.62-1.71,1,.36,1,.36h1.49a2.8,2.8,0,0,0-3-2c-2.55,0-2.07,2.18-.76,3.71-.28,1.67-3.21,5.1-4.11,6.62a13.55,13.55,0,0,0-1.39,6,8,8,0,0,0,1.37,4.77c.14.19.3.37.45.56" />
  <path class="BUNTAI_MEERKAT_JEWELRY_MEERKAT_JEWELRY_26_cls-4" d="M219.15,404h0a44.23,44.23,0,0,1-4.72-1.26,25,25,0,0,1-3.69-1.51,13.66,13.66,0,0,1-1.65-1,7.11,7.11,0,0,0,1.72,4.29s.44.21,1.18.53c2.4,1.06,7.85,3.32,10.84,3.32v-3.68" />
  <path class="BUNTAI_MEERKAT_JEWELRY_MEERKAT_JEWELRY_26_cls-4" d="M212,405l7.42,4.75a16,16,0,0,1,3.42,3.54v-5" />
  <path class="BUNTAI_MEERKAT_JEWELRY_MEERKAT_JEWELRY_26_cls-4" d="M222.83,404.66a9.77,9.77,0,0,0,3.68-.67" />
  <path class="BUNTAI_MEERKAT_JEWELRY_MEERKAT_JEWELRY_26_cls-4" d="M231.23,402.73h0s0,0,0,0" />
  <path class="BUNTAI_MEERKAT_JEWELRY_MEERKAT_JEWELRY_26_cls-4" d="M234.92,401.22h0c2.6-3.56.83-9.3,0-10.73s-3.83-4.95-4.11-6.62c1.31-1.53,1.8-3.71-.76-3.71a2.8,2.8,0,0,0-3,2h1.48s.53-.6,1-.36-.21.74-.62,1.71.23,2.31,1.11,3.4" />
  <path class="BUNTAI_MEERKAT_JEWELRY_MEERKAT_JEWELRY_26_cls-4" d="M222.82,404.66v3.68a19.7,19.7,0,0,0,5.65-1.26c2-.69,4-1.52,5.18-2.05h0l1.19-.53a7.13,7.13,0,0,0,1.71-4.29,12.78,12.78,0,0,1-1.64,1h0a24.53,24.53,0,0,1-3.69,1.51h0a42.28,42.28,0,0,1-4.71,1.26" />
  <path class="BUNTAI_MEERKAT_JEWELRY_MEERKAT_JEWELRY_26_cls-4" d="M222.82,408.34v5a16.4,16.4,0,0,1,3.43-3.54l7.4-4.74h0" />
  <path class="BUNTAI_MEERKAT_JEWELRY_MEERKAT_JEWELRY_26_cls-5" d="M225.38,370.78c-53.07,0-88.11-53.15-89.29-55.51-1.76-4.75,4.67-7.22,7.9-4.27a32.46,32.46,0,0,1-3.62,3.5c7.24,10.2,41.7,52.38,86.46,52.38l1.81,0A43.33,43.33,0,0,0,253,359.2c16.14-11.38,23.15-34.64,24.24-39.07a29.86,29.86,0,0,0-3-1.63c4.05-3.38,8.28-1.32,7.59,3.87-.14,1.05-6.14,25.39-25.89,39.31a50.77,50.77,0,0,1-28.58,9.07C226.71,370.77,226,370.78,225.38,370.78Z" />
</svg>