<svg xmlns="http://www.w3.org/2000/svg" viewBox="0 0 432 432">
  <defs>
    <style>.BUNTAI_MEERKAT_JEWELRY_MEERKAT_JEWELRY_9_cls-1{isolation:isolate;}.BUNTAI_MEERKAT_JEWELRY_MEERKAT_JEWELRY_9_cls-2{fill:#c32b2a;}.BUNTAI_MEERKAT_JEWELRY_MEERKAT_JEWELRY_9_cls-3{fill:#bdb079;}.BUNTAI_MEERKAT_JEWELRY_MEERKAT_JEWELRY_9_cls-4{fill:#273462;}.BUNTAI_MEERKAT_JEWELRY_MEERKAT_JEWELRY_9_cls-12,.BUNTAI_MEERKAT_JEWELRY_MEERKAT_JEWELRY_9_cls-5,.BUNTAI_MEERKAT_JEWELRY_MEERKAT_JEWELRY_9_cls-8,.BUNTAI_MEERKAT_JEWELRY_MEERKAT_JEWELRY_9_cls-9{fill:none;stroke-linecap:round;stroke-linejoin:round;}.BUNTAI_MEERKAT_JEWELRY_MEERKAT_JEWELRY_9_cls-12,.BUNTAI_MEERKAT_JEWELRY_MEERKAT_JEWELRY_9_cls-5,.BUNTAI_MEERKAT_JEWELRY_MEERKAT_JEWELRY_9_cls-6,.BUNTAI_MEERKAT_JEWELRY_MEERKAT_JEWELRY_9_cls-8,.BUNTAI_MEERKAT_JEWELRY_MEERKAT_JEWELRY_9_cls-9{stroke:#000;}.BUNTAI_MEERKAT_JEWELRY_MEERKAT_JEWELRY_9_cls-5{stroke-width:1.49px;}.BUNTAI_MEERKAT_JEWELRY_MEERKAT_JEWELRY_9_cls-6{fill:#754c24;stroke-miterlimit:10;}.BUNTAI_MEERKAT_JEWELRY_MEERKAT_JEWELRY_9_cls-6,.BUNTAI_MEERKAT_JEWELRY_MEERKAT_JEWELRY_9_cls-8{stroke-width:0.99px;}.BUNTAI_MEERKAT_JEWELRY_MEERKAT_JEWELRY_9_cls-7{fill:#333;}.BUNTAI_MEERKAT_JEWELRY_MEERKAT_JEWELRY_9_cls-9{stroke-width:1.06px;}.BUNTAI_MEERKAT_JEWELRY_MEERKAT_JEWELRY_9_cls-10{fill:#c7a858;}.BUNTAI_MEERKAT_JEWELRY_MEERKAT_JEWELRY_9_cls-11{fill:#10b3c7;}.BUNTAI_MEERKAT_JEWELRY_MEERKAT_JEWELRY_9_cls-12{stroke-width:1.2px;}.BUNTAI_MEERKAT_JEWELRY_MEERKAT_JEWELRY_9_cls-13{opacity:0.43;mix-blend-mode:multiply;}</style>
  </defs>
  <g class="BUNTAI_MEERKAT_JEWELRY_MEERKAT_JEWELRY_9_cls-1">
    <g id="jewelries">
      <ellipse class="BUNTAI_MEERKAT_JEWELRY_MEERKAT_JEWELRY_9_cls-2" cx="216.93" cy="375.92" rx="3.13" ry="3.1" />
      <path class="BUNTAI_MEERKAT_JEWELRY_MEERKAT_JEWELRY_9_cls-3" d="M234,364.73l-4.53-3.34,2.84,3.74s2.31,15.36-15.41,25.32c-17.72-10-15.41-25.32-15.41-25.32l2.83-3.74-4.53,3.34s-3.57,22.38,17.11,28.24C237.6,387.11,234,364.73,234,364.73Z" />
      <path class="BUNTAI_MEERKAT_JEWELRY_MEERKAT_JEWELRY_9_cls-3" d="M225.61,365.6c.49,2.81-.21,8-4,10.7a5.52,5.52,0,0,0-3.08-5.93v-3.83H215.3v3.83a5.53,5.53,0,0,0-3.09,5.93c-3.76-2.67-4.44-7.89-4-10.7-3.4,5.07-3,10.63,3.55,14.62l-1.45,2.52a19.92,19.92,0,0,0,2.31,1.35c1.37-2.14,1.63-2.64,1.63-2.64a4,4,0,0,0,5.28,0s.27.5,1.62,2.64a19.39,19.39,0,0,0,2.32-1.35l-1.45-2.52C228.63,376.23,229,370.67,225.61,365.6ZM216.93,379a3.1,3.1,0,1,1,3.14-3.1A3.11,3.11,0,0,1,216.93,379Z" />
      <path class="BUNTAI_MEERKAT_JEWELRY_MEERKAT_JEWELRY_9_cls-4" d="M232.34,365.13l-2.83-3.73L224,364.29H209.86l-5.5-2.89-2.83,3.73s-2.32,15.36,15.4,25.32C234.65,380.49,232.34,365.13,232.34,365.13Zm-10.28,15.09,1.45,2.52a19.39,19.39,0,0,1-2.32,1.35c-1.35-2.14-1.62-2.64-1.62-2.64a4,4,0,0,1-5.28,0s-.26.5-1.63,2.64a19.92,19.92,0,0,1-2.31-1.35l1.45-2.52c-6.57-4-7-9.55-3.55-14.62-.48,2.81.2,8,4,10.7a5.53,5.53,0,0,1,3.09-5.93v-3.83h3.26v3.83a5.52,5.52,0,0,1,3.08,5.93c3.76-2.67,4.46-7.89,4-10.7C229,370.67,228.63,376.23,222.06,380.22Z" />
      <path class="BUNTAI_MEERKAT_JEWELRY_MEERKAT_JEWELRY_9_cls-5" d="M216.93,379a3.1,3.1,0,1,1,0-6.2" />
      <path class="BUNTAI_MEERKAT_JEWELRY_MEERKAT_JEWELRY_9_cls-5" d="M216.93,364.29h-7.07l-5.51-2.9-4.53,3.34s-3.57,22.38,17.11,28.24" />
      <path class="BUNTAI_MEERKAT_JEWELRY_MEERKAT_JEWELRY_9_cls-5" d="M204.35,361.39l-2.83,3.74s-2.31,15.36,15.41,25.32" />
      <path class="BUNTAI_MEERKAT_JEWELRY_MEERKAT_JEWELRY_9_cls-5" d="M216.93,366.54H215.3v3.83a5.51,5.51,0,0,0-3.08,5.93c-3.76-2.67-4.46-7.89-4-10.7-3.41,5.07-3,10.64,3.55,14.62l-1.45,2.52a18.55,18.55,0,0,0,2.31,1.35c1.37-2.14,1.63-2.64,1.63-2.64a5.45,5.45,0,0,0,2.64,1" />
      <path class="BUNTAI_MEERKAT_JEWELRY_MEERKAT_JEWELRY_9_cls-5" d="M216.93,372.82a3.1,3.1,0,1,1,0,6.2" />
      <path class="BUNTAI_MEERKAT_JEWELRY_MEERKAT_JEWELRY_9_cls-5" d="M216.93,390.45V393c20.67-5.86,17.1-28.24,17.1-28.24l-4.53-3.34-5.5,2.9h-7.07" />
      <path class="BUNTAI_MEERKAT_JEWELRY_MEERKAT_JEWELRY_9_cls-5" d="M229.5,361.39l2.84,3.74s2.31,15.36-15.41,25.32" />
      <path class="BUNTAI_MEERKAT_JEWELRY_MEERKAT_JEWELRY_9_cls-5" d="M216.93,366.54h1.63v3.83a5.52,5.52,0,0,1,3.08,5.93c3.76-2.67,4.46-7.89,4-10.7,3.42,5.07,3,10.64-3.54,14.62l1.45,2.52a18.55,18.55,0,0,1-2.31,1.35c-1.37-2.14-1.63-2.64-1.63-2.64a5.45,5.45,0,0,1-2.64,1" />
      <path class="BUNTAI_MEERKAT_JEWELRY_MEERKAT_JEWELRY_9_cls-6" d="M273.59,312c-3.07-2.42-4.67.48-4.67.48a19.53,19.53,0,0,1,2.39,2.14c-9,15.07-27.94,35.75-52.23,45.12h0c-.41.17-.82.32-1.24.48l-.08,0h0l-.76.27-1-.24-1.39-.38c-24.47-7-55.93-32.56-71-47.32,1-1.26,2.05-2.78,2.05-2.78a9,9,0,0,0-4.67.65c-1.66.92-.5,4.71-.13,5.07,15,15,48,39.24,73.47,46.4h.09l.39.11.55.15.09,0h.05l1.24.3a1,1,0,0,0,.24,0,1,1,0,0,0,.33-.06c.3-.09.59-.2.89-.31h0l1.43-.54h0c24.74-9.52,45.38-32,54.7-47.43.08-.13.16-.26.23-.39h0A3.38,3.38,0,0,0,273.59,312Z" />
      <path class="BUNTAI_MEERKAT_JEWELRY_MEERKAT_JEWELRY_9_cls-7" d="M214.64,359.87l1.38.37s1.43-.79,2,.33.31,1.92-.45,2.28-1.9,0-2.11-.58a2.87,2.87,0,0,0-1.33-.29s.56,2.1,2.39,2.29a2.7,2.7,0,0,0,3.15-2.44,2.59,2.59,0,0,0-1.48-2.72A2.83,2.83,0,0,0,214.64,359.87Z" />
      <path class="BUNTAI_MEERKAT_JEWELRY_MEERKAT_JEWELRY_9_cls-8" d="M214.08,361.9a2.78,2.78,0,0,0,2.51,2.43l.28,0a2.8,2.8,0,0,0,1.87-.71,2.73,2.73,0,0,0,.94-1.93.76.76,0,0,0,0-.15,2.73,2.73,0,0,0-.64-1.76,2.84,2.84,0,0,0-2.18-1,2.79,2.79,0,0,0-2.29,1.17l1.39.37a1.53,1.53,0,0,1,.9-.28,1.54,1.54,0,0,1,1.54,1.52,1.46,1.46,0,0,1-.17.68,1.53,1.53,0,0,1-2.72.05h0Z" />
      <line class="BUNTAI_MEERKAT_JEWELRY_MEERKAT_JEWELRY_9_cls-9" x1="121.01" y1="228.91" x2="121.01" y2="222.69" />
      <path class="BUNTAI_MEERKAT_JEWELRY_MEERKAT_JEWELRY_9_cls-10" d="M121,222.69c-1.67,0-1.4-2.28-1.4-2.28h0a4.57,4.57,0,0,0,2.06.44,2,2,0,0,0,.92-.23C122.59,220.74,122.62,222.69,121,222.69Z" />
      <path class="BUNTAI_MEERKAT_JEWELRY_MEERKAT_JEWELRY_9_cls-10" d="M123.89,213.67c.61,2,.48,6-1.31,6.94a2,2,0,0,1-.92.23,4.57,4.57,0,0,1-2.06-.44c-1.54-.75-2.32-2.49-2.21-5.13a8.42,8.42,0,0,1,.47-2.58,5.53,5.53,0,0,1,1.5-2.33,2,2,0,0,1,1.37-.57,2.33,2.33,0,0,1,1.67,1,3.59,3.59,0,0,1-.74.14h0a4.23,4.23,0,0,0-1.88,2.89c-.47,2.25.32,4.77,1.45,4.77s1.28-2.93,1.2-4.48l.09,0A5.69,5.69,0,0,0,123.89,213.67Z" />
      <path class="BUNTAI_MEERKAT_JEWELRY_MEERKAT_JEWELRY_9_cls-10" d="M118.9,202.72c.39,2.05.6,2.83.6,2.83s-2,1.78-.88,4a2.29,2.29,0,0,0,.74.83,5.53,5.53,0,0,0-1.5,2.33A6,6,0,0,1,118.9,202.72Z" />
      <path class="BUNTAI_MEERKAT_JEWELRY_MEERKAT_JEWELRY_9_cls-10" d="M126.58,210a4.85,4.85,0,0,1-2.69,3.63,5.33,5.33,0,0,1-1.4.42l-.1,0a5.25,5.25,0,0,1-2.65-.28,4.25,4.25,0,0,1,1.88-2.9h0a3.59,3.59,0,0,0,.74-.14,2.18,2.18,0,0,0,1.56-1.36,1.81,1.81,0,0,0,.09-.58c0-2.39-.93-2.5-.93-2.5A3,3,0,0,1,123,206a3.08,3.08,0,0,1,2.39-2A8.17,8.17,0,0,1,126.58,210Z" />
      <path class="BUNTAI_MEERKAT_JEWELRY_MEERKAT_JEWELRY_9_cls-9" d="M117.86,212.69a6,6,0,0,1,1-10c.41,1.7.6,2.83.6,2.83s-2,1.78-.88,4a2.29,2.29,0,0,0,.74.83" />
      <path class="BUNTAI_MEERKAT_JEWELRY_MEERKAT_JEWELRY_9_cls-9" d="M119.74,213.83a5.25,5.25,0,0,0,2.65.28l.1,0a5.33,5.33,0,0,0,1.4-.42,4.85,4.85,0,0,0,2.69-3.63,8.17,8.17,0,0,0-1.19-6" />
      <path class="BUNTAI_MEERKAT_JEWELRY_MEERKAT_JEWELRY_9_cls-9" d="M123,206a3,3,0,0,0,.12.32s.9.11.93,2.5a1.81,1.81,0,0,1-.09.58,2.18,2.18,0,0,1-1.56,1.36,3.59,3.59,0,0,1-.74.14" />
      <path class="BUNTAI_MEERKAT_JEWELRY_MEERKAT_JEWELRY_9_cls-9" d="M123.89,213.67c.61,2,.48,6-1.31,6.94a2,2,0,0,1-.92.23,4.57,4.57,0,0,1-2.06-.44c-1.54-.75-2.32-2.49-2.21-5.13a8.42,8.42,0,0,1,.47-2.58,5.53,5.53,0,0,1,1.5-2.33,2,2,0,0,1,1.37-.57,2.33,2.33,0,0,1,1.67,1" />
      <path class="BUNTAI_MEERKAT_JEWELRY_MEERKAT_JEWELRY_9_cls-9" d="M122.39,214.11c.08,1.55.06,4.48-1.2,4.48s-1.92-2.52-1.45-4.77a4.23,4.23,0,0,1,1.88-2.89h0" />
      <path class="BUNTAI_MEERKAT_JEWELRY_MEERKAT_JEWELRY_9_cls-9" d="M119.6,220.41s-.27,2.28,1.4,2.28,1.59-1.95,1.58-2.08h0" />
      <path class="BUNTAI_MEERKAT_JEWELRY_MEERKAT_JEWELRY_9_cls-9" d="M123.18,208.47a3,3,0,0,1-.35-1.43,3.06,3.06,0,0,1,2.56-3,2.87,2.87,0,0,1,.52,0,2.1,2.1,0,0,1,2.08,1.55" />
      <path class="BUNTAI_MEERKAT_JEWELRY_MEERKAT_JEWELRY_9_cls-10" d="M121.26,247.2a7.83,7.83,0,1,0-7.83-7.83A7.83,7.83,0,0,0,121.26,247.2Zm10.3-7.83a9.74,9.74,0,0,1-.25,2.24,10,10,0,0,1-1.48,3.48,10.25,10.25,0,0,1-5.52,4.12,10.22,10.22,0,0,1-3,.46h0a10.13,10.13,0,0,1-3.86-.75,10.42,10.42,0,0,1-5-4.35,10.45,10.45,0,0,1-1.4-5.2,10.3,10.3,0,0,1,10.18-10.3h.12A10.3,10.3,0,0,1,131.56,239.37Z" />
      <path class="BUNTAI_MEERKAT_JEWELRY_MEERKAT_JEWELRY_9_cls-11" d="M142.58,251.07a10.5,10.5,0,0,1,.79,3.36,35.94,35.94,0,0,0-7.69-9.53h0l-.78-.66c.23,0,.47.06.69.11a10.18,10.18,0,0,1,4.79,2.32l-1.91-.49A10.86,10.86,0,0,1,142.58,251.07Z" />
      <path class="BUNTAI_MEERKAT_JEWELRY_MEERKAT_JEWELRY_9_cls-11" d="M143.37,254.43h0q0,.44,0,.87a38.94,38.94,0,0,1-3.83-3.1l-.17.16a13.9,13.9,0,0,0-2.26-2h0a28,28,0,0,1-1.45-5.46A35.94,35.94,0,0,1,143.37,254.43Z" />
      <path class="BUNTAI_MEERKAT_JEWELRY_MEERKAT_JEWELRY_9_cls-11" d="M142.18,259.48a24.27,24.27,0,0,1-.26,5.9c-.26-.25-.52-.49-.79-.72a36.85,36.85,0,0,0-7.87-16v-.22a14.34,14.34,0,0,1,3.87,1.94h0a13.9,13.9,0,0,1,2.26,2l-1.64.11a5.2,5.2,0,0,1,3.33,2.72A10.71,10.71,0,0,1,142.18,259.48Z" />
      <path class="BUNTAI_MEERKAT_JEWELRY_MEERKAT_JEWELRY_9_cls-11" d="M133.26,248.64a36.85,36.85,0,0,1,7.87,16c-.92-.79-1.92-1.5-2.86-2.28-.34-.28-.67-.57-1-.89-.05-.59-.13-1.17-.23-1.75a6.43,6.43,0,0,0-3-4.39l1.47,0a11.58,11.58,0,0,0-2.26-2.53Z" />
      <path class="BUNTAI_MEERKAT_JEWELRY_MEERKAT_JEWELRY_9_cls-11" d="M137.28,261.49a24,24,0,0,1-.45,7.55,46.15,46.15,0,0,0-7.21-18.36h0a12.09,12.09,0,0,1,3.6,2.11,11.58,11.58,0,0,1,2.26,2.53l-1.47,0a6.43,6.43,0,0,1,3,4.39C137.15,260.32,137.23,260.9,137.28,261.49Z" />
      <path class="BUNTAI_MEERKAT_JEWELRY_MEERKAT_JEWELRY_9_cls-11" d="M136.83,269h0c-.17.79-.38,1.57-.62,2.34a27.11,27.11,0,0,0-4.38-5.88,8,8,0,0,0-1-3,22.65,22.65,0,0,0-2.51-3.64c.45.07.83.16,1.24.24.18,0,.36.07.55.09-.23-.43-.47-.86-.72-1.28a23.88,23.88,0,0,1,.2-7.21A46.15,46.15,0,0,1,136.83,269Z" />
      <path class="BUNTAI_MEERKAT_JEWELRY_MEERKAT_JEWELRY_9_cls-11" d="M129.42,257.89c.25.42.49.85.72,1.28-.19,0-.37-.06-.55-.09-.41-.08-.79-.17-1.24-.24a22.65,22.65,0,0,1,2.51,3.64,8,8,0,0,1,1,3c.4,3.36-1.08,7.09-3.13,10.17A71.38,71.38,0,0,0,125.58,253a.3.3,0,0,0,0-.1A28.16,28.16,0,0,1,129.42,257.89Z" />
      <path class="BUNTAI_MEERKAT_JEWELRY_MEERKAT_JEWELRY_9_cls-11" d="M125.78,268.76a35.69,35.69,0,0,1-1-10.25,2.55,2.55,0,0,0-.35.14,14.8,14.8,0,0,0-.4-2.32c.28-.64.6-1.25.9-1.88a10.82,10.82,0,0,0,.61-1.49,71.38,71.38,0,0,1,3.12,22.72c-.3.44-.6.87-.91,1.28C127.51,274.24,126.46,271.52,125.78,268.76Z" />
      <path class="BUNTAI_MEERKAT_JEWELRY_MEERKAT_JEWELRY_9_cls-11" d="M124.47,258.65c.11,1.2.12,2.43.11,3.63a5.2,5.2,0,0,0-2.71.06,10.41,10.41,0,0,1,2.2,2,32.11,32.11,0,0,1-3.18,13.5,14.26,14.26,0,0,1-2.93-5.71,28.79,28.79,0,0,1-.35-8.7c.52-.62,1.14-1.32,1.67-1.93-.57-.29-1-.56-1.59-.84,0-.58,0-1.17,0-1.77a6.44,6.44,0,0,1,.15-1.82,2.88,2.88,0,0,1,.33-.79,27,27,0,0,1,3-4c.09-.1.18-.21.28-.31a8.27,8.27,0,0,1,1.84,2.36,9.23,9.23,0,0,1,.77,2A14.8,14.8,0,0,1,124.47,258.65Z" />
      <path class="BUNTAI_MEERKAT_JEWELRY_MEERKAT_JEWELRY_9_cls-11" d="M112.9,275.65A71.44,71.44,0,0,1,116,253a14.08,14.08,0,0,0,.61,1.49,26.54,26.54,0,0,1,1.19,2.61,6.44,6.44,0,0,0-.15,1.82c-.3-.13-.6-.27-.88-.37a35.35,35.35,0,0,1-1,10.25c-.67,2.76-1.72,5.48-2,8.2-.32-.41-.63-.84-.91-1.28h0S112.9,275.66,112.9,275.65Z" />
      <path class="BUNTAI_MEERKAT_JEWELRY_MEERKAT_JEWELRY_9_cls-11" d="M116,253a71.44,71.44,0,0,0-3.12,22.69c-2.06-3.08-3.53-6.79-3.13-10.14a8.13,8.13,0,0,1,1-3,24.07,24.07,0,0,1,2.52-3.64c-.64.09-1.15.25-1.79.33.23-.43.47-.86.72-1.28a28.69,28.69,0,0,1,3.81-5Z" />
      <path class="BUNTAI_MEERKAT_JEWELRY_MEERKAT_JEWELRY_9_cls-11" d="M112,250.68a23.88,23.88,0,0,1,.2,7.21c-.25.42-.49.85-.72,1.28.64-.08,1.15-.24,1.79-.33a24.07,24.07,0,0,0-2.52,3.64,8.13,8.13,0,0,0-1,3,27,27,0,0,0-4.37,5.88,24,24,0,0,1-.63-2.35A46.3,46.3,0,0,1,112,250.68Z" />
      <path class="BUNTAI_MEERKAT_JEWELRY_MEERKAT_JEWELRY_9_cls-11" d="M112,250.68A46.3,46.3,0,0,0,104.77,269a24.26,24.26,0,0,1-.45-7.55c.06-.59.13-1.17.24-1.75a6.45,6.45,0,0,1,3-4.39l-1.47,0a11.84,11.84,0,0,1,2.26-2.53,12.14,12.14,0,0,1,3.61-2.11h0A0,0,0,0,1,112,250.68Z" />
      <path class="BUNTAI_MEERKAT_JEWELRY_MEERKAT_JEWELRY_9_cls-11" d="M107.58,255.35a6.45,6.45,0,0,0-3,4.39c-.11.58-.18,1.16-.24,1.75-.32.32-.65.61-1,.89-.94.78-1.94,1.49-2.86,2.28a37,37,0,0,1,7.87-16l0,4.13a11.84,11.84,0,0,0-2.26,2.53Z" />
      <path class="BUNTAI_MEERKAT_JEWELRY_MEERKAT_JEWELRY_9_cls-11" d="M108.34,248.64a37,37,0,0,0-7.87,16q-.41.34-.78.72a23.78,23.78,0,0,1-.26-5.9,10.7,10.7,0,0,1,1.08-4.28,5.22,5.22,0,0,1,3.34-2.72l-1.64-.11.05-.06a13.2,13.2,0,0,1,2.21-1.95,14.34,14.34,0,0,1,3.87-1.94Z" />
      <path class="BUNTAI_MEERKAT_JEWELRY_MEERKAT_JEWELRY_9_cls-11" d="M105.92,244.9a27.32,27.32,0,0,1-1.45,5.46,13.2,13.2,0,0,0-2.21,1.95l-.17-.16a37.6,37.6,0,0,1-3.88,3.16v-.22c0-.21,0-.43,0-.65A35.76,35.76,0,0,1,105.92,244.9Z" />
      <path class="BUNTAI_MEERKAT_JEWELRY_MEERKAT_JEWELRY_9_cls-11" d="M105.92,244.9a35.76,35.76,0,0,0-7.68,9.54,10.55,10.55,0,0,1,.78-3.37,10.86,10.86,0,0,1,4.11-4.9l-1.91.49a10.18,10.18,0,0,1,4.79-2.32c.23-.05.46-.08.69-.11l-.78.66Z" />
      <path class="BUNTAI_MEERKAT_JEWELRY_MEERKAT_JEWELRY_9_cls-12" d="M121.14,229.07h.12a10.3,10.3,0,0,1,10.3,10.3,9.74,9.74,0,0,1-.25,2.24,10,10,0,0,1-1.48,3.48,10.25,10.25,0,0,1-5.52,4.12,10.22,10.22,0,0,1-3,.46h0a10.13,10.13,0,0,1-3.86-.75,10.42,10.42,0,0,1-5-4.35,10.45,10.45,0,0,1-1.4-5.2A10.3,10.3,0,0,1,121.14,229.07Z" />
      <circle class="BUNTAI_MEERKAT_JEWELRY_MEERKAT_JEWELRY_9_cls-12" cx="121.26" cy="239.37" r="7.83" />
      <path class="BUNTAI_MEERKAT_JEWELRY_MEERKAT_JEWELRY_9_cls-12" d="M121.27,249.67c0,.69,0,1.37-.07,2.05,0,.18,0,.35,0,.53-.23,6.93-.48,13.86-.71,20.78" />
      <path class="BUNTAI_MEERKAT_JEWELRY_MEERKAT_JEWELRY_9_cls-12" d="M121.46,251.94l-.26-.22" />
      <path class="BUNTAI_MEERKAT_JEWELRY_MEERKAT_JEWELRY_9_cls-12" d="M121.18,252.25c.09-.1.18-.21.28-.31a8.27,8.27,0,0,1,1.84,2.36,9.23,9.23,0,0,1,.77,2,14.8,14.8,0,0,1,.4,2.32c.11,1.2.12,2.43.11,3.63a5.2,5.2,0,0,0-2.71.06,10.41,10.41,0,0,1,2.2,2,32.11,32.11,0,0,1-3.18,13.5,14.26,14.26,0,0,1-2.93-5.71,28.79,28.79,0,0,1-.35-8.7c.52-.62,1.14-1.32,1.67-1.93-.57-.29-1-.56-1.59-.84,0-.58,0-1.17,0-1.77a6.44,6.44,0,0,1,.15-1.82,2.88,2.88,0,0,1,.33-.79,27,27,0,0,1,3-4" />
      <path class="BUNTAI_MEERKAT_JEWELRY_MEERKAT_JEWELRY_9_cls-12" d="M117.4,248.92c-.47,1.26-.91,2.54-1.31,3.84a1.18,1.18,0,0,0-.07.2,71.44,71.44,0,0,0-3.12,22.69v0h0" />
      <path class="BUNTAI_MEERKAT_JEWELRY_MEERKAT_JEWELRY_9_cls-12" d="M116.09,252.76a.47.47,0,0,0-.1.1,28.69,28.69,0,0,0-3.81,5c-.25.42-.49.85-.72,1.28.64-.08,1.15-.24,1.79-.33a24.07,24.07,0,0,0-2.52,3.64,8.13,8.13,0,0,0-1,3c-.4,3.35,1.07,7.06,3.13,10.14,0,0,0,0,0,0h0c.28.44.59.87.91,1.28" />
      <path class="BUNTAI_MEERKAT_JEWELRY_MEERKAT_JEWELRY_9_cls-12" d="M113.82,277c.28-2.72,1.33-5.44,2-8.2a35.35,35.35,0,0,0,1-10.25c.28.1.58.24.88.37" />
      <path class="BUNTAI_MEERKAT_JEWELRY_MEERKAT_JEWELRY_9_cls-12" d="M117.82,257.06a26.54,26.54,0,0,0-1.19-2.61A14.08,14.08,0,0,1,116,253l0-.1" />
      <path class="BUNTAI_MEERKAT_JEWELRY_MEERKAT_JEWELRY_9_cls-12" d="M112,250.68A46.3,46.3,0,0,0,104.77,269" />
      <path class="BUNTAI_MEERKAT_JEWELRY_MEERKAT_JEWELRY_9_cls-12" d="M114.56,247.19q-1.36,1.67-2.56,3.47h0" />
      <path class="BUNTAI_MEERKAT_JEWELRY_MEERKAT_JEWELRY_9_cls-12" d="M112,250.66h0a12.14,12.14,0,0,0-3.61,2.11,11.84,11.84,0,0,0-2.26,2.53l1.47,0a6.45,6.45,0,0,0-3,4.39c-.11.58-.18,1.16-.24,1.75a24.26,24.26,0,0,0,.45,7.55,24,24,0,0,0,.63,2.35" />
      <path class="BUNTAI_MEERKAT_JEWELRY_MEERKAT_JEWELRY_9_cls-12" d="M112.18,257.89a23.88,23.88,0,0,0-.2-7.21,0,0,0,0,0,0,0h0" />
      <path class="BUNTAI_MEERKAT_JEWELRY_MEERKAT_JEWELRY_9_cls-12" d="M109.77,265.51a27,27,0,0,0-4.37,5.88" />
      <path class="BUNTAI_MEERKAT_JEWELRY_MEERKAT_JEWELRY_9_cls-12" d="M100.47,264.66a37,37,0,0,1,7.87-16,3.58,3.58,0,0,1,.26-.29,35.31,35.31,0,0,1,3.76-3.78" />
      <path class="BUNTAI_MEERKAT_JEWELRY_MEERKAT_JEWELRY_9_cls-12" d="M99.69,265.38a23.78,23.78,0,0,1-.26-5.9,10.7,10.7,0,0,1,1.08-4.28,5.22,5.22,0,0,1,3.34-2.72l-1.64-.11.05-.06a13.2,13.2,0,0,1,2.21-1.95,14.34,14.34,0,0,1,3.87-1.94l.26-.07" />
      <path class="BUNTAI_MEERKAT_JEWELRY_MEERKAT_JEWELRY_9_cls-12" d="M108.34,248.42v.22l0,4.13" />
      <path class="BUNTAI_MEERKAT_JEWELRY_MEERKAT_JEWELRY_9_cls-12" d="M105.92,244.89l.78-.66a34.77,34.77,0,0,1,4.41-3.12" />
      <path class="BUNTAI_MEERKAT_JEWELRY_MEERKAT_JEWELRY_9_cls-12" d="M98.24,254.44a35.76,35.76,0,0,1,7.68-9.54" />
      <path class="BUNTAI_MEERKAT_JEWELRY_MEERKAT_JEWELRY_9_cls-12" d="M106.7,244.23c-.23,0-.46.06-.69.11a10.18,10.18,0,0,0-4.79,2.32l1.91-.49a10.86,10.86,0,0,0-4.11,4.9,10.55,10.55,0,0,0-.78,3.37c0,.22,0,.44,0,.65v.22" />
      <path class="BUNTAI_MEERKAT_JEWELRY_MEERKAT_JEWELRY_9_cls-12" d="M103,250.82a5.92,5.92,0,0,1-.94,1.33,37.6,37.6,0,0,1-3.88,3.16h0" />
      <path class="BUNTAI_MEERKAT_JEWELRY_MEERKAT_JEWELRY_9_cls-12" d="M105.92,244.89h0a27.32,27.32,0,0,1-1.45,5.46" />
      <path class="BUNTAI_MEERKAT_JEWELRY_MEERKAT_JEWELRY_9_cls-12" d="M104.32,261.49c-.32.32-.65.61-1,.89-.94.78-1.94,1.49-2.86,2.28q-.41.34-.78.72" />
      <path class="BUNTAI_MEERKAT_JEWELRY_MEERKAT_JEWELRY_9_cls-12" d="M128.7,275.68A71.38,71.38,0,0,0,125.58,253l-.06-.2c-.37-1.2-.77-2.38-1.21-3.55" />
      <path class="BUNTAI_MEERKAT_JEWELRY_MEERKAT_JEWELRY_9_cls-12" d="M125.52,252.76l.1.1a28.16,28.16,0,0,1,3.8,5c.25.42.49.85.72,1.28-.19,0-.37-.06-.55-.09-.41-.08-.79-.17-1.24-.24a22.65,22.65,0,0,1,2.51,3.64,8,8,0,0,1,1,3c.4,3.36-1.08,7.09-3.13,10.17-.3.44-.6.87-.91,1.28" />
      <path class="BUNTAI_MEERKAT_JEWELRY_MEERKAT_JEWELRY_9_cls-12" d="M124.47,258.65a2.55,2.55,0,0,1,.35-.14,35.69,35.69,0,0,0,1,10.25c.68,2.76,1.73,5.48,2,8.2" />
      <path class="BUNTAI_MEERKAT_JEWELRY_MEERKAT_JEWELRY_9_cls-12" d="M124.07,256.33c.28-.64.6-1.25.9-1.88a10.82,10.82,0,0,0,.61-1.49.3.3,0,0,0,0-.1" />
      <path class="BUNTAI_MEERKAT_JEWELRY_MEERKAT_JEWELRY_9_cls-12" d="M129.62,250.67h0c-.69-1-1.43-2-2.2-3" />
      <path class="BUNTAI_MEERKAT_JEWELRY_MEERKAT_JEWELRY_9_cls-12" d="M136.83,269a46.15,46.15,0,0,0-7.21-18.36" />
      <path class="BUNTAI_MEERKAT_JEWELRY_MEERKAT_JEWELRY_9_cls-12" d="M136.21,271.39c.24-.77.45-1.55.62-2.34h0a24,24,0,0,0,.45-7.55c-.05-.59-.13-1.17-.23-1.75a6.43,6.43,0,0,0-3-4.39l1.47,0a11.58,11.58,0,0,0-2.26-2.53,12.09,12.09,0,0,0-3.6-2.11h0" />
      <path class="BUNTAI_MEERKAT_JEWELRY_MEERKAT_JEWELRY_9_cls-12" d="M129.42,257.89a23.88,23.88,0,0,1,.2-7.21h0" />
      <path class="BUNTAI_MEERKAT_JEWELRY_MEERKAT_JEWELRY_9_cls-12" d="M136.21,271.39a27.11,27.11,0,0,0-4.38-5.88" />
      <path class="BUNTAI_MEERKAT_JEWELRY_MEERKAT_JEWELRY_9_cls-12" d="M129.83,245.09a33.77,33.77,0,0,1,3.18,3.26,3.47,3.47,0,0,1,.25.29,36.85,36.85,0,0,1,7.87,16" />
      <path class="BUNTAI_MEERKAT_JEWELRY_MEERKAT_JEWELRY_9_cls-12" d="M137.14,250.36a13.9,13.9,0,0,1,2.26,2l-1.64.11a5.2,5.2,0,0,1,3.33,2.72,10.71,10.71,0,0,1,1.09,4.28,24.27,24.27,0,0,1-.26,5.9" />
      <path class="BUNTAI_MEERKAT_JEWELRY_MEERKAT_JEWELRY_9_cls-12" d="M133,248.35l.25.07a14.34,14.34,0,0,1,3.87,1.94" />
      <path class="BUNTAI_MEERKAT_JEWELRY_MEERKAT_JEWELRY_9_cls-12" d="M133.26,248.42v.22l0,4.13" />
      <path class="BUNTAI_MEERKAT_JEWELRY_MEERKAT_JEWELRY_9_cls-12" d="M135.68,244.9a35.94,35.94,0,0,1,7.69,9.53" />
      <path class="BUNTAI_MEERKAT_JEWELRY_MEERKAT_JEWELRY_9_cls-12" d="M131.31,241.61a33,33,0,0,1,3.59,2.62l.78.66" />
      <path class="BUNTAI_MEERKAT_JEWELRY_MEERKAT_JEWELRY_9_cls-12" d="M134.9,244.23c.23,0,.47.06.69.11a10.18,10.18,0,0,1,4.79,2.32l-1.91-.49a10.86,10.86,0,0,1,4.11,4.9,10.5,10.5,0,0,1,.79,3.36h0q0,.44,0,.87" />
      <path class="BUNTAI_MEERKAT_JEWELRY_MEERKAT_JEWELRY_9_cls-12" d="M138.58,250.82a6,6,0,0,0,1,1.39,38.94,38.94,0,0,0,3.83,3.1h0" />
      <path class="BUNTAI_MEERKAT_JEWELRY_MEERKAT_JEWELRY_9_cls-12" d="M135.68,244.89h0a28,28,0,0,0,1.45,5.46h0" />
      <path class="BUNTAI_MEERKAT_JEWELRY_MEERKAT_JEWELRY_9_cls-12" d="M137.28,261.49c.32.32.65.61,1,.89.94.78,1.94,1.49,2.86,2.28.27.23.53.47.79.72" />
      <g class="BUNTAI_MEERKAT_JEWELRY_MEERKAT_JEWELRY_9_cls-13">
        <path d="M105.71,244.57s-3.19.13-4.28,2.62A12.12,12.12,0,0,0,98.64,255c1.85-1.38,2.72-2.1,2.72-2.1a33.72,33.72,0,0,1,2.48-5.22,28.3,28.3,0,0,1-1.39,6s-4.21,5.14-2.42,11c2.19-4.58,5.16-11.8,5.16-11.8a78.45,78.45,0,0,0-1,8.49c0,2.18.1,6.55,1.54,9C108,267.52,109,266,109,266s.85-.64,1.25-4.67,1-7.69,1-7.69l-3.21,8.39,1.67-9.66,2.23-.56s-.13,6.72-.21,10.26.78,11.45,2.36,14.07c1.67-7.4,2.58-12.45,2.75-13.11s1.13,2.46,1.13,2.46.47,9.15,2.84,11.45c.57-9.76,1.53-17.71,1.75-19.09s-1-4.25-1-4.25l-.46-.55s-.47,8.24-.33,13.48c-1.39-10.14-1.62-11.93-1.62-11.93l-1.17,2.28L116,254.1s-2,10.72-1.84,13.64l-.35-12.24-1.63.83s.6-5.2,0-5.51a9.18,9.18,0,0,0-3.57,1.76l-.51-3.25-3.32.34Z" />
        <path d="M114.56,231.54a10.38,10.38,0,0,0-3.15,10.86c2,6.91,12.26,10.51,17.82,3.49-3.23,2-10.8,4.67-15.17-1.32S114.56,231.54,114.56,231.54Z" />
      </g>
      <line class="BUNTAI_MEERKAT_JEWELRY_MEERKAT_JEWELRY_9_cls-9" x1="311.24" y1="228.91" x2="311.24" y2="222.69" />
      <path class="BUNTAI_MEERKAT_JEWELRY_MEERKAT_JEWELRY_9_cls-10" d="M311.25,222.69c1.68,0,1.4-2.28,1.4-2.28h0a4.57,4.57,0,0,1-2.06.44,2,2,0,0,1-.92-.23C309.66,220.74,309.63,222.69,311.25,222.69Z" />
      <path class="BUNTAI_MEERKAT_JEWELRY_MEERKAT_JEWELRY_9_cls-10" d="M308.36,213.67c-.61,2-.48,6,1.31,6.94a2,2,0,0,0,.92.23,4.57,4.57,0,0,0,2.06-.44c1.54-.75,2.32-2.49,2.21-5.13a8.42,8.42,0,0,0-.47-2.58,5.53,5.53,0,0,0-1.5-2.33,1.94,1.94,0,0,0-1.37-.57,2.33,2.33,0,0,0-1.67,1,3.59,3.59,0,0,0,.74.14h0a4.23,4.23,0,0,1,1.88,2.89c.47,2.25-.31,4.77-1.45,4.77s-1.28-2.93-1.2-4.48l-.09,0A5.69,5.69,0,0,1,308.36,213.67Z" />
      <path class="BUNTAI_MEERKAT_JEWELRY_MEERKAT_JEWELRY_9_cls-10" d="M313.36,202.72c-.4,2.05-.6,2.83-.6,2.83s2.05,1.78.87,4a2.2,2.2,0,0,1-.74.83,5.53,5.53,0,0,1,1.5,2.33A6,6,0,0,0,313.36,202.72Z" />
      <path class="BUNTAI_MEERKAT_JEWELRY_MEERKAT_JEWELRY_9_cls-10" d="M305.67,210a4.85,4.85,0,0,0,2.69,3.63,5.33,5.33,0,0,0,1.4.42l.1,0a5.24,5.24,0,0,0,2.65-.28,4.22,4.22,0,0,0-1.88-2.9h0a3.59,3.59,0,0,1-.74-.14,2.2,2.2,0,0,1-1.56-1.36,1.81,1.81,0,0,1-.09-.58c0-2.39.94-2.5.94-2.5s.05-.13.11-.32a3.07,3.07,0,0,0-2.38-2A8.13,8.13,0,0,0,305.67,210Z" />
      <path class="BUNTAI_MEERKAT_JEWELRY_MEERKAT_JEWELRY_9_cls-9" d="M314.39,212.69a6,6,0,0,0-1-10c-.42,1.7-.6,2.83-.6,2.83s2.05,1.78.87,4a2.2,2.2,0,0,1-.74.83" />
      <path class="BUNTAI_MEERKAT_JEWELRY_MEERKAT_JEWELRY_9_cls-9" d="M312.51,213.83a5.24,5.24,0,0,1-2.65.28l-.1,0a5.33,5.33,0,0,1-1.4-.42,4.85,4.85,0,0,1-2.69-3.63,8.13,8.13,0,0,1,1.2-6" />
      <path class="BUNTAI_MEERKAT_JEWELRY_MEERKAT_JEWELRY_9_cls-9" d="M309.25,206c-.06.19-.11.32-.11.32s-.91.11-.94,2.5a1.81,1.81,0,0,0,.09.58,2.2,2.2,0,0,0,1.56,1.36,3.59,3.59,0,0,0,.74.14" />
      <path class="BUNTAI_MEERKAT_JEWELRY_MEERKAT_JEWELRY_9_cls-9" d="M308.36,213.67c-.61,2-.48,6,1.31,6.94a2,2,0,0,0,.92.23,4.57,4.57,0,0,0,2.06-.44c1.54-.75,2.32-2.49,2.21-5.13a8.42,8.42,0,0,0-.47-2.58,5.53,5.53,0,0,0-1.5-2.33,1.94,1.94,0,0,0-1.37-.57,2.33,2.33,0,0,0-1.67,1" />
      <path class="BUNTAI_MEERKAT_JEWELRY_MEERKAT_JEWELRY_9_cls-9" d="M309.86,214.11c-.08,1.55-.06,4.48,1.2,4.48s1.92-2.52,1.45-4.77a4.23,4.23,0,0,0-1.88-2.89h0" />
      <path class="BUNTAI_MEERKAT_JEWELRY_MEERKAT_JEWELRY_9_cls-9" d="M312.65,220.41s.28,2.28-1.4,2.28-1.59-1.95-1.58-2.08h0" />
      <path class="BUNTAI_MEERKAT_JEWELRY_MEERKAT_JEWELRY_9_cls-9" d="M309.07,208.47a3,3,0,0,0,.35-1.43,3.11,3.11,0,0,0-3.08-3.08,2.1,2.1,0,0,0-2.08,1.55" />
      <path class="BUNTAI_MEERKAT_JEWELRY_MEERKAT_JEWELRY_9_cls-10" d="M318.83,239.37A7.83,7.83,0,1,0,311,247.2,7.84,7.84,0,0,0,318.83,239.37ZM311,229.07h.12a10.3,10.3,0,0,1,10.18,10.3,10.45,10.45,0,0,1-1.4,5.2,10.42,10.42,0,0,1-5,4.35,10.13,10.13,0,0,1-3.86.75h0a10.22,10.22,0,0,1-3-.46,10.25,10.25,0,0,1-5.52-4.12,10,10,0,0,1-1.48-3.48,9.74,9.74,0,0,1-.25-2.24A10.3,10.3,0,0,1,311,229.07Z" />
      <path class="BUNTAI_MEERKAT_JEWELRY_MEERKAT_JEWELRY_9_cls-11" d="M289.68,251.07a10.5,10.5,0,0,0-.79,3.36,35.94,35.94,0,0,1,7.69-9.53h0l.78-.66c-.23,0-.47.06-.69.11a10.18,10.18,0,0,0-4.79,2.32l1.91-.49A10.86,10.86,0,0,0,289.68,251.07Z" />
      <path class="BUNTAI_MEERKAT_JEWELRY_MEERKAT_JEWELRY_9_cls-11" d="M288.89,254.43h0q0,.44,0,.87a38.94,38.94,0,0,0,3.83-3.1l.17.16a13.9,13.9,0,0,1,2.26-2h0a28,28,0,0,0,1.45-5.46A35.94,35.94,0,0,0,288.89,254.43Z" />
      <path class="BUNTAI_MEERKAT_JEWELRY_MEERKAT_JEWELRY_9_cls-11" d="M290.08,259.48a24.27,24.27,0,0,0,.26,5.9c.26-.25.52-.49.79-.72a36.85,36.85,0,0,1,7.87-16v-.22a14.34,14.34,0,0,0-3.87,1.94h0a13.9,13.9,0,0,0-2.26,2l1.64.11a5.2,5.2,0,0,0-3.33,2.72A10.71,10.71,0,0,0,290.08,259.48Z" />
      <path class="BUNTAI_MEERKAT_JEWELRY_MEERKAT_JEWELRY_9_cls-11" d="M299,248.64a36.85,36.85,0,0,0-7.87,16c.92-.79,1.92-1.5,2.86-2.28.34-.28.67-.57,1-.89,0-.59.13-1.17.23-1.75a6.43,6.43,0,0,1,3-4.39l-1.47,0a11.58,11.58,0,0,1,2.26-2.53Z" />
      <path class="BUNTAI_MEERKAT_JEWELRY_MEERKAT_JEWELRY_9_cls-11" d="M295,261.49a24,24,0,0,0,.45,7.55,46.15,46.15,0,0,1,7.21-18.36h0a12.09,12.09,0,0,0-3.6,2.11,11.58,11.58,0,0,0-2.26,2.53l1.47,0a6.43,6.43,0,0,0-3,4.39C295.11,260.32,295,260.9,295,261.49Z" />
      <path class="BUNTAI_MEERKAT_JEWELRY_MEERKAT_JEWELRY_9_cls-11" d="M295.43,269h0c.17.79.38,1.57.62,2.34a27.11,27.11,0,0,1,4.38-5.88,8,8,0,0,1,1-3,22.65,22.65,0,0,1,2.51-3.64c-.45.07-.83.16-1.24.24-.18,0-.36.07-.55.09.23-.43.47-.86.72-1.28a23.88,23.88,0,0,0-.2-7.21A46.15,46.15,0,0,0,295.43,269Z" />
      <path class="BUNTAI_MEERKAT_JEWELRY_MEERKAT_JEWELRY_9_cls-11" d="M302.84,257.89c-.25.42-.49.85-.72,1.28.19,0,.37-.06.55-.09.41-.08.79-.17,1.24-.24a22.65,22.65,0,0,0-2.51,3.64,8,8,0,0,0-1,3c-.4,3.36,1.08,7.09,3.13,10.17A71.38,71.38,0,0,1,306.68,253a.3.3,0,0,1,0-.1A28.16,28.16,0,0,0,302.84,257.89Z" />
      <path class="BUNTAI_MEERKAT_JEWELRY_MEERKAT_JEWELRY_9_cls-11" d="M306.48,268.76a35.69,35.69,0,0,0,1-10.25,2.55,2.55,0,0,1,.35.14,14.8,14.8,0,0,1,.4-2.32c-.28-.64-.6-1.25-.9-1.88a10.82,10.82,0,0,1-.61-1.49,71.38,71.38,0,0,0-3.12,22.72c.3.44.6.87.91,1.28C304.75,274.24,305.8,271.52,306.48,268.76Z" />
      <path class="BUNTAI_MEERKAT_JEWELRY_MEERKAT_JEWELRY_9_cls-11" d="M307.79,258.65c-.11,1.2-.12,2.43-.11,3.63a5.2,5.2,0,0,1,2.71.06,10.41,10.41,0,0,0-2.2,2,32.11,32.11,0,0,0,3.18,13.5,14.26,14.26,0,0,0,2.93-5.71,28.79,28.79,0,0,0,.35-8.7c-.52-.62-1.14-1.32-1.67-1.93.57-.29,1-.56,1.59-.84,0-.58,0-1.17,0-1.77a6.44,6.44,0,0,0-.15-1.82,2.88,2.88,0,0,0-.33-.79,27,27,0,0,0-3-4c-.09-.1-.18-.21-.28-.31A8.27,8.27,0,0,0,309,254.3a9.23,9.23,0,0,0-.77,2A14.8,14.8,0,0,0,307.79,258.65Z" />
      <path class="BUNTAI_MEERKAT_JEWELRY_MEERKAT_JEWELRY_9_cls-11" d="M319.36,275.65A71.44,71.44,0,0,0,316.24,253a14.08,14.08,0,0,1-.61,1.49,26.54,26.54,0,0,0-1.19,2.61,6.44,6.44,0,0,1,.15,1.82c.3-.13.6-.27.88-.37a35.35,35.35,0,0,0,1,10.25c.67,2.76,1.72,5.48,2,8.2.32-.41.63-.84.91-1.28h0S319.36,275.66,319.36,275.65Z" />
      <path class="BUNTAI_MEERKAT_JEWELRY_MEERKAT_JEWELRY_9_cls-11" d="M316.24,253a71.44,71.44,0,0,1,3.12,22.69c2.06-3.08,3.53-6.79,3.13-10.14a8.13,8.13,0,0,0-1-3,24.07,24.07,0,0,0-2.52-3.64c.64.09,1.15.25,1.79.33-.23-.43-.47-.86-.72-1.28a28.69,28.69,0,0,0-3.81-5Z" />
      <path class="BUNTAI_MEERKAT_JEWELRY_MEERKAT_JEWELRY_9_cls-11" d="M320.28,250.68a23.88,23.88,0,0,0-.2,7.21c.25.42.49.85.72,1.28-.64-.08-1.15-.24-1.79-.33a24.07,24.07,0,0,1,2.52,3.64,8.13,8.13,0,0,1,1,3,27,27,0,0,1,4.37,5.88,24,24,0,0,0,.63-2.35A46.3,46.3,0,0,0,320.28,250.68Z" />
      <path class="BUNTAI_MEERKAT_JEWELRY_MEERKAT_JEWELRY_9_cls-11" d="M320.28,250.68A46.3,46.3,0,0,1,327.49,269a24.26,24.26,0,0,0,.45-7.55c-.06-.59-.13-1.17-.24-1.75a6.45,6.45,0,0,0-3-4.39l1.47,0a11.84,11.84,0,0,0-2.26-2.53,12.14,12.14,0,0,0-3.61-2.11h0A0,0,0,0,0,320.28,250.68Z" />
      <path class="BUNTAI_MEERKAT_JEWELRY_MEERKAT_JEWELRY_9_cls-11" d="M324.68,255.35a6.45,6.45,0,0,1,3,4.39c.11.58.18,1.16.24,1.75.32.32.65.61,1,.89.94.78,1.94,1.49,2.86,2.28a37,37,0,0,0-7.87-16l0,4.13a11.84,11.84,0,0,1,2.26,2.53Z" />
      <path class="BUNTAI_MEERKAT_JEWELRY_MEERKAT_JEWELRY_9_cls-11" d="M323.92,248.64a37,37,0,0,1,7.87,16q.4.34.78.72a23.78,23.78,0,0,0,.26-5.9,10.7,10.7,0,0,0-1.08-4.28,5.22,5.22,0,0,0-3.34-2.72l1.64-.11-.05-.06a13.2,13.2,0,0,0-2.21-1.95,14.34,14.34,0,0,0-3.87-1.94Z" />
      <path class="BUNTAI_MEERKAT_JEWELRY_MEERKAT_JEWELRY_9_cls-11" d="M326.34,244.9a27.32,27.32,0,0,0,1.45,5.46,13.2,13.2,0,0,1,2.21,1.95l.17-.16a37.6,37.6,0,0,0,3.88,3.16v-.22c0-.21,0-.43,0-.65A35.76,35.76,0,0,0,326.34,244.9Z" />
      <path class="BUNTAI_MEERKAT_JEWELRY_MEERKAT_JEWELRY_9_cls-11" d="M326.34,244.9a35.76,35.76,0,0,1,7.68,9.54,10.55,10.55,0,0,0-.78-3.37,10.86,10.86,0,0,0-4.11-4.9l1.91.49a10.18,10.18,0,0,0-4.79-2.32c-.23-.05-.46-.08-.69-.11l.78.66Z" />
      <path class="BUNTAI_MEERKAT_JEWELRY_MEERKAT_JEWELRY_9_cls-12" d="M311.12,229.07H311a10.3,10.3,0,0,0-10.3,10.3,9.74,9.74,0,0,0,.25,2.24,10,10,0,0,0,1.48,3.48,10.25,10.25,0,0,0,5.52,4.12,10.22,10.22,0,0,0,3,.46h0a10.13,10.13,0,0,0,3.86-.75,10.42,10.42,0,0,0,5-4.35,10.45,10.45,0,0,0,1.4-5.2A10.3,10.3,0,0,0,311.12,229.07Z" />
      <circle class="BUNTAI_MEERKAT_JEWELRY_MEERKAT_JEWELRY_9_cls-12" cx="311" cy="239.37" r="7.83" />
      <path class="BUNTAI_MEERKAT_JEWELRY_MEERKAT_JEWELRY_9_cls-12" d="M311,249.67c0,.69.05,1.37.07,2.05,0,.18,0,.35,0,.53.23,6.93.48,13.86.71,20.78" />
      <path class="BUNTAI_MEERKAT_JEWELRY_MEERKAT_JEWELRY_9_cls-12" d="M310.8,251.94l.26-.22" />
      <path class="BUNTAI_MEERKAT_JEWELRY_MEERKAT_JEWELRY_9_cls-12" d="M311.08,252.25c-.09-.1-.18-.21-.28-.31A8.27,8.27,0,0,0,309,254.3a9.23,9.23,0,0,0-.77,2,14.8,14.8,0,0,0-.4,2.32c-.11,1.2-.12,2.43-.11,3.63a5.2,5.2,0,0,1,2.71.06,10.41,10.41,0,0,0-2.2,2,32.11,32.11,0,0,0,3.18,13.5,14.26,14.26,0,0,0,2.93-5.71,28.79,28.79,0,0,0,.35-8.7c-.52-.62-1.14-1.32-1.67-1.93.57-.29,1-.56,1.59-.84,0-.58,0-1.17,0-1.77a6.44,6.44,0,0,0-.15-1.82,2.88,2.88,0,0,0-.33-.79,27,27,0,0,0-3-4" />
      <path class="BUNTAI_MEERKAT_JEWELRY_MEERKAT_JEWELRY_9_cls-12" d="M314.86,248.92c.47,1.26.91,2.54,1.31,3.84a1.18,1.18,0,0,1,.07.2,71.44,71.44,0,0,1,3.12,22.69v0h0" />
      <path class="BUNTAI_MEERKAT_JEWELRY_MEERKAT_JEWELRY_9_cls-12" d="M316.17,252.76a.47.47,0,0,1,.1.1,28.69,28.69,0,0,1,3.81,5c.25.42.49.85.72,1.28-.64-.08-1.15-.24-1.79-.33a24.07,24.07,0,0,1,2.52,3.64,8.13,8.13,0,0,1,1,3c.4,3.35-1.07,7.06-3.13,10.14,0,0,0,0,0,0h0c-.28.44-.59.87-.91,1.28" />
      <path class="BUNTAI_MEERKAT_JEWELRY_MEERKAT_JEWELRY_9_cls-12" d="M318.44,277c-.28-2.72-1.33-5.44-2-8.2a35.35,35.35,0,0,1-1-10.25c-.28.1-.58.24-.88.37" />
      <path class="BUNTAI_MEERKAT_JEWELRY_MEERKAT_JEWELRY_9_cls-12" d="M314.44,257.06a26.54,26.54,0,0,1,1.19-2.61,14.08,14.08,0,0,0,.61-1.49l0-.1" />
      <path class="BUNTAI_MEERKAT_JEWELRY_MEERKAT_JEWELRY_9_cls-12" d="M320.28,250.68A46.3,46.3,0,0,1,327.49,269" />
      <path class="BUNTAI_MEERKAT_JEWELRY_MEERKAT_JEWELRY_9_cls-12" d="M317.7,247.19q1.37,1.67,2.56,3.47h0" />
      <path class="BUNTAI_MEERKAT_JEWELRY_MEERKAT_JEWELRY_9_cls-12" d="M320.26,250.66h0a12.14,12.14,0,0,1,3.61,2.11,11.84,11.84,0,0,1,2.26,2.53l-1.47,0a6.45,6.45,0,0,1,3,4.39c.11.58.18,1.16.24,1.75a24.26,24.26,0,0,1-.45,7.55,24,24,0,0,1-.63,2.35" />
      <path class="BUNTAI_MEERKAT_JEWELRY_MEERKAT_JEWELRY_9_cls-12" d="M320.08,257.89a23.88,23.88,0,0,1,.2-7.21,0,0,0,0,1,0,0h0" />
      <path class="BUNTAI_MEERKAT_JEWELRY_MEERKAT_JEWELRY_9_cls-12" d="M322.49,265.51a27,27,0,0,1,4.37,5.88" />
      <path class="BUNTAI_MEERKAT_JEWELRY_MEERKAT_JEWELRY_9_cls-12" d="M331.79,264.66a37,37,0,0,0-7.87-16,3.58,3.58,0,0,0-.26-.29,35.31,35.31,0,0,0-3.76-3.78" />
      <path class="BUNTAI_MEERKAT_JEWELRY_MEERKAT_JEWELRY_9_cls-12" d="M332.57,265.38a23.78,23.78,0,0,0,.26-5.9,10.7,10.7,0,0,0-1.08-4.28,5.22,5.22,0,0,0-3.34-2.72l1.64-.11-.05-.06a13.2,13.2,0,0,0-2.21-1.95,14.34,14.34,0,0,0-3.87-1.94l-.26-.07" />
      <path class="BUNTAI_MEERKAT_JEWELRY_MEERKAT_JEWELRY_9_cls-12" d="M323.92,248.42v.22l0,4.13" />
      <path class="BUNTAI_MEERKAT_JEWELRY_MEERKAT_JEWELRY_9_cls-12" d="M326.34,244.89l-.78-.66a34.77,34.77,0,0,0-4.41-3.12" />
      <path class="BUNTAI_MEERKAT_JEWELRY_MEERKAT_JEWELRY_9_cls-12" d="M334,254.44a35.76,35.76,0,0,0-7.68-9.54" />
      <path class="BUNTAI_MEERKAT_JEWELRY_MEERKAT_JEWELRY_9_cls-12" d="M325.56,244.23c.23,0,.46.06.69.11a10.18,10.18,0,0,1,4.79,2.32l-1.91-.49a10.86,10.86,0,0,1,4.11,4.9,10.55,10.55,0,0,1,.78,3.37c0,.22,0,.44,0,.65v.22" />
      <path class="BUNTAI_MEERKAT_JEWELRY_MEERKAT_JEWELRY_9_cls-12" d="M329.23,250.82a5.92,5.92,0,0,0,.94,1.33,37.6,37.6,0,0,0,3.88,3.16h0" />
      <path class="BUNTAI_MEERKAT_JEWELRY_MEERKAT_JEWELRY_9_cls-12" d="M326.34,244.89h0a27.32,27.32,0,0,0,1.45,5.46" />
      <path class="BUNTAI_MEERKAT_JEWELRY_MEERKAT_JEWELRY_9_cls-12" d="M327.94,261.49c.32.32.65.61,1,.89.94.78,1.94,1.49,2.86,2.28q.4.34.78.72" />
      <path class="BUNTAI_MEERKAT_JEWELRY_MEERKAT_JEWELRY_9_cls-12" d="M303.56,275.68A71.38,71.38,0,0,1,306.68,253l.06-.2c.37-1.2.77-2.38,1.21-3.55" />
      <path class="BUNTAI_MEERKAT_JEWELRY_MEERKAT_JEWELRY_9_cls-12" d="M306.74,252.76l-.1.1a28.16,28.16,0,0,0-3.8,5c-.25.42-.49.85-.72,1.28.19,0,.37-.06.55-.09.41-.08.79-.17,1.24-.24a22.65,22.65,0,0,0-2.51,3.64,8,8,0,0,0-1,3c-.4,3.36,1.08,7.09,3.13,10.17.3.44.6.87.91,1.28" />
      <path class="BUNTAI_MEERKAT_JEWELRY_MEERKAT_JEWELRY_9_cls-12" d="M307.79,258.65a2.55,2.55,0,0,0-.35-.14,35.69,35.69,0,0,1-1,10.25c-.68,2.76-1.73,5.48-2,8.2" />
      <path class="BUNTAI_MEERKAT_JEWELRY_MEERKAT_JEWELRY_9_cls-12" d="M308.19,256.33c-.28-.64-.6-1.25-.9-1.88a10.82,10.82,0,0,1-.61-1.49.3.3,0,0,1,0-.1" />
      <path class="BUNTAI_MEERKAT_JEWELRY_MEERKAT_JEWELRY_9_cls-12" d="M302.64,250.67h0c.69-1,1.43-2,2.2-3" />
      <path class="BUNTAI_MEERKAT_JEWELRY_MEERKAT_JEWELRY_9_cls-12" d="M295.43,269a46.15,46.15,0,0,1,7.21-18.36" />
      <path class="BUNTAI_MEERKAT_JEWELRY_MEERKAT_JEWELRY_9_cls-12" d="M296.05,271.39c-.24-.77-.45-1.55-.62-2.34h0a24,24,0,0,1-.45-7.55c0-.59.13-1.17.23-1.75a6.43,6.43,0,0,1,3-4.39l-1.47,0a11.58,11.58,0,0,1,2.26-2.53,12.09,12.09,0,0,1,3.6-2.11h0" />
      <path class="BUNTAI_MEERKAT_JEWELRY_MEERKAT_JEWELRY_9_cls-12" d="M302.84,257.89a23.88,23.88,0,0,0-.2-7.21h0" />
      <path class="BUNTAI_MEERKAT_JEWELRY_MEERKAT_JEWELRY_9_cls-12" d="M296.05,271.39a27.11,27.11,0,0,1,4.38-5.88" />
      <path class="BUNTAI_MEERKAT_JEWELRY_MEERKAT_JEWELRY_9_cls-12" d="M302.43,245.09a33.77,33.77,0,0,0-3.18,3.26,3.47,3.47,0,0,0-.25.29,36.85,36.85,0,0,0-7.87,16" />
      <path class="BUNTAI_MEERKAT_JEWELRY_MEERKAT_JEWELRY_9_cls-12" d="M295.12,250.36a13.9,13.9,0,0,0-2.26,2l1.64.11a5.2,5.2,0,0,0-3.33,2.72,10.71,10.71,0,0,0-1.09,4.28,24.27,24.27,0,0,0,.26,5.9" />
      <path class="BUNTAI_MEERKAT_JEWELRY_MEERKAT_JEWELRY_9_cls-12" d="M299.25,248.35l-.25.07a14.34,14.34,0,0,0-3.87,1.94" />
      <path class="BUNTAI_MEERKAT_JEWELRY_MEERKAT_JEWELRY_9_cls-12" d="M299,248.42v.22l0,4.13" />
      <path class="BUNTAI_MEERKAT_JEWELRY_MEERKAT_JEWELRY_9_cls-12" d="M296.58,244.9a35.94,35.94,0,0,0-7.69,9.53" />
      <path class="BUNTAI_MEERKAT_JEWELRY_MEERKAT_JEWELRY_9_cls-12" d="M301,241.61a33,33,0,0,0-3.59,2.62l-.78.66" />
      <path class="BUNTAI_MEERKAT_JEWELRY_MEERKAT_JEWELRY_9_cls-12" d="M297.36,244.23c-.23,0-.47.06-.69.11a10.18,10.18,0,0,0-4.79,2.32l1.91-.49a10.86,10.86,0,0,0-4.11,4.9,10.5,10.5,0,0,0-.79,3.36h0q0,.44,0,.87" />
      <path class="BUNTAI_MEERKAT_JEWELRY_MEERKAT_JEWELRY_9_cls-12" d="M293.68,250.82a6,6,0,0,1-1,1.39,38.94,38.94,0,0,1-3.83,3.1h0" />
      <path class="BUNTAI_MEERKAT_JEWELRY_MEERKAT_JEWELRY_9_cls-12" d="M296.58,244.89h0a28,28,0,0,1-1.45,5.46h0" />
      <path class="BUNTAI_MEERKAT_JEWELRY_MEERKAT_JEWELRY_9_cls-12" d="M295,261.49c-.32.32-.65.61-1,.89-.94.78-1.94,1.49-2.86,2.28-.27.23-.53.47-.79.72" />
      <g class="BUNTAI_MEERKAT_JEWELRY_MEERKAT_JEWELRY_9_cls-13">
        <path d="M326.54,244.57s3.19.13,4.28,2.62a12.07,12.07,0,0,1,2.79,7.77c-1.85-1.38-2.72-2.1-2.72-2.1a33.72,33.72,0,0,0-2.48-5.22,28.3,28.3,0,0,0,1.39,6s4.21,5.14,2.42,11c-2.19-4.58-5.16-11.8-5.16-11.8a80.46,80.46,0,0,1,1,8.49c0,2.18-.11,6.55-1.55,9-2.27-2.87-3.29-4.37-3.29-4.37s-.86-.64-1.26-4.67-1-7.69-1-7.69l3.2,8.39-1.66-9.66-2.23-.56s.12,6.72.2,10.26-.78,11.45-2.35,14.07c-1.67-7.4-2.59-12.45-2.76-13.11s-1.13,2.46-1.13,2.46-.47,9.15-2.83,11.45c-.58-9.76-1.54-17.71-1.76-19.09s1-4.25,1-4.25l.47-.55s.47,8.24.33,13.48c1.39-10.14,1.61-11.93,1.61-11.93l1.17,2.28,2.1-2.8s2,10.72,1.84,13.64l.35-12.24,1.62.83s-.59-5.2,0-5.51a9.31,9.31,0,0,1,3.58,1.76l.5-3.25,3.33.34Z" />
        <path d="M317.69,231.54a10.38,10.38,0,0,1,3.15,10.86c-1.95,6.91-12.26,10.51-17.82,3.49,3.23,2,10.8,4.67,15.17-1.32S317.69,231.54,317.69,231.54Z" />
      </g>
    </g>
  </g>
</svg>