<svg id="jewelries" xmlns="http://www.w3.org/2000/svg" viewBox="0 0 432 432">
  <defs>
    <style>.BUNTAI_MEERKAT_JEWELRY_MEERKAT_JEWELRY_13_cls-1{fill:#ffc33e;stroke-width:2px;}.BUNTAI_MEERKAT_JEWELRY_MEERKAT_JEWELRY_13_cls-1,.BUNTAI_MEERKAT_JEWELRY_MEERKAT_JEWELRY_13_cls-4,.BUNTAI_MEERKAT_JEWELRY_MEERKAT_JEWELRY_13_cls-5{stroke:#000;}.BUNTAI_MEERKAT_JEWELRY_MEERKAT_JEWELRY_13_cls-1,.BUNTAI_MEERKAT_JEWELRY_MEERKAT_JEWELRY_13_cls-4{stroke-linecap:round;stroke-linejoin:round;}.BUNTAI_MEERKAT_JEWELRY_MEERKAT_JEWELRY_13_cls-2{fill:#c7a858;}.BUNTAI_MEERKAT_JEWELRY_MEERKAT_JEWELRY_13_cls-3{fill:#fff;}.BUNTAI_MEERKAT_JEWELRY_MEERKAT_JEWELRY_13_cls-4{fill:none;}.BUNTAI_MEERKAT_JEWELRY_MEERKAT_JEWELRY_13_cls-4,.BUNTAI_MEERKAT_JEWELRY_MEERKAT_JEWELRY_13_cls-5{stroke-width:0.83px;}.BUNTAI_MEERKAT_JEWELRY_MEERKAT_JEWELRY_13_cls-5{fill:#754c24;stroke-miterlimit:10;}.BUNTAI_MEERKAT_JEWELRY_MEERKAT_JEWELRY_13_cls-6{fill:#333;}</style>
  </defs>
  <circle class="BUNTAI_MEERKAT_JEWELRY_MEERKAT_JEWELRY_13_cls-1" cx="308.84" cy="221.52" r="3.15" />
  <path class="BUNTAI_MEERKAT_JEWELRY_MEERKAT_JEWELRY_13_cls-1" d="M308.84,224.67s-4.15,41.06-4.15,51.43S308.84,289,308.84,289s4.16-2.5,4.16-12.87S308.84,224.67,308.84,224.67Z" />
  <circle class="BUNTAI_MEERKAT_JEWELRY_MEERKAT_JEWELRY_13_cls-1" cx="126.7" cy="224.67" r="3.15" />
  <path class="BUNTAI_MEERKAT_JEWELRY_MEERKAT_JEWELRY_13_cls-1" d="M126.7,227.81s-4.16,41.06-4.16,51.43,4.16,12.88,4.16,12.88,4.15-2.51,4.15-12.88S126.7,227.81,126.7,227.81Z" />
  <path class="BUNTAI_MEERKAT_JEWELRY_MEERKAT_JEWELRY_13_cls-2" d="M226.75,399.71a13.83,13.83,0,0,0-9.22-12.8,15.3,15.3,0,0,0-5.49-1c-8.13,0-14.72,6.19-14.72,13.81a14,14,0,0,0,10.33,13.18,15.84,15.84,0,0,0,4.39.62C220.16,413.51,226.75,407.33,226.75,399.71ZM212,384.28c9.08,0,16.43,6.91,16.43,15.43s-7.35,15.42-16.43,15.42-16.45-6.9-16.45-15.42S203,384.28,212,384.28Z" />
  <path class="BUNTAI_MEERKAT_JEWELRY_MEERKAT_JEWELRY_13_cls-3" d="M217.53,386.91a13.83,13.83,0,0,1,9.22,12.8c0,7.62-6.59,13.8-14.71,13.8a15.84,15.84,0,0,1-4.39-.62c-5.28-7.08,3-11.18,8.84-14.81S217.53,386.91,217.53,386.91Zm-2.86,20.94a2.65,2.65,0,1,0-2.63,2.48A2.55,2.55,0,0,0,214.67,407.85Z" />
  <path d="M217.53,386.91s4.77,7.54-1,11.17-14.12,7.73-8.84,14.81a14,14,0,0,1-10.33-13.18c0-7.62,6.59-13.81,14.72-13.81A15.3,15.3,0,0,1,217.53,386.91Zm-2.86,6.41a2.65,2.65,0,0,0-5.28,0,2.65,2.65,0,0,0,5.28,0Z" />
  <path class="BUNTAI_MEERKAT_JEWELRY_MEERKAT_JEWELRY_13_cls-4" d="M217.53,386.91a13.83,13.83,0,0,1,9.22,12.8c0,7.62-6.59,13.8-14.71,13.8a15.84,15.84,0,0,1-4.39-.62,14,14,0,0,1-10.33-13.18c0-7.62,6.59-13.81,14.72-13.81A15.3,15.3,0,0,1,217.53,386.91Z" />
  <path class="BUNTAI_MEERKAT_JEWELRY_MEERKAT_JEWELRY_13_cls-4" d="M214.67,393.32a2.65,2.65,0,1,1-2.63-2.47A2.57,2.57,0,0,1,214.67,393.32Z" />
  <path class="BUNTAI_MEERKAT_JEWELRY_MEERKAT_JEWELRY_13_cls-4" d="M214.67,407.85a2.65,2.65,0,1,1-2.63-2.47A2.56,2.56,0,0,1,214.67,407.85Z" />
  <path class="BUNTAI_MEERKAT_JEWELRY_MEERKAT_JEWELRY_13_cls-4" d="M228.47,399.71c0,8.52-7.35,15.42-16.43,15.42s-16.45-6.9-16.45-15.42S203,384.28,212,384.28,228.47,391.19,228.47,399.71Z" />
  <path class="BUNTAI_MEERKAT_JEWELRY_MEERKAT_JEWELRY_13_cls-4" d="M217.53,386.91s4.77,7.54-1,11.17-14.12,7.73-8.84,14.81" />
  <path class="BUNTAI_MEERKAT_JEWELRY_MEERKAT_JEWELRY_13_cls-5" d="M277.4,318.17a3.23,3.23,0,0,0-.75-.57,3.53,3.53,0,0,0-3.28-.06l-.64.37,3,1.8c-8.36,18-25.65,46.61-60,58.87h-.05c-.54.2-1.07.4-1.63.58h0l-.11,0h0l-1,.34-1.28-.29-1.84-.48c-34.94-9.17-52.61-32.69-61.29-51.1a136.2,136.2,0,0,1-5.85-14.56,14.1,14.1,0,0,1,2.29-2.46c-5-1.84-5,2.21-4.59,3.33A149.05,149.05,0,0,0,146,328.62c8.94,19,27.1,43.18,63.13,52.61l.33.09h0l1.4.35H211l1.63.38a1.87,1.87,0,0,0,.32,0,1.76,1.76,0,0,0,.45-.07l1.18-.41h0l1.88-.66,0,0h0c34.48-12.26,52.53-41.19,61.27-59.67l.18-.4A3.15,3.15,0,0,0,277.4,318.17Z" />
  <path class="BUNTAI_MEERKAT_JEWELRY_MEERKAT_JEWELRY_13_cls-6" d="M209.85,378.68l1.82.47s1.89-1,2.66.4.42,2.41-.59,2.85-2.5.06-2.79-.71a4,4,0,0,0-1.74-.37s.73,2.63,3.15,2.86a3.51,3.51,0,0,0,4.15-3.05,3.21,3.21,0,0,0-1.95-3.4A3.86,3.86,0,0,0,209.85,378.68Z" />
  <path class="BUNTAI_MEERKAT_JEWELRY_MEERKAT_JEWELRY_13_cls-4" d="M209.12,381.22a3.56,3.56,0,0,0,3.3,3,2.3,2.3,0,0,0,.37,0,3.84,3.84,0,0,0,2.48-.88A3.37,3.37,0,0,0,216.5,381a1.28,1.28,0,0,0,0-.19,3.37,3.37,0,0,0-.84-2.21,3.88,3.88,0,0,0-5.9.19l1.84.47a2.06,2.06,0,0,1,1.18-.36,2.09,2.09,0,0,1,1.12.31,1.89,1.89,0,0,1,.92,1.6,1.69,1.69,0,0,1-.23.85,2,2,0,0,1-1.81,1.05,2,2,0,0,1-1.78-1h0Z" />
</svg>