<svg xmlns="http://www.w3.org/2000/svg" viewBox="0 0 432 432">
  <defs>
    <style>.GUNDAN_RED_PANDA_BODY_GUNDAN_RED_PANDA_BODY_38_cls-1{isolation:isolate;}.GUNDAN_RED_PANDA_BODY_GUNDAN_RED_PANDA_BODY_38_cls-2{fill:#1a1a1a;}.GUNDAN_RED_PANDA_BODY_GUNDAN_RED_PANDA_BODY_38_cls-3{fill:#383838;}.GUNDAN_RED_PANDA_BODY_GUNDAN_RED_PANDA_BODY_38_cls-4{fill:#3eff7e;}.GUNDAN_RED_PANDA_BODY_GUNDAN_RED_PANDA_BODY_38_cls-5{opacity:0.31;mix-blend-mode:screen;}.GUNDAN_RED_PANDA_BODY_GUNDAN_RED_PANDA_BODY_38_cls-11,.GUNDAN_RED_PANDA_BODY_GUNDAN_RED_PANDA_BODY_38_cls-6{fill:#fff;}.GUNDAN_RED_PANDA_BODY_GUNDAN_RED_PANDA_BODY_38_cls-13,.GUNDAN_RED_PANDA_BODY_GUNDAN_RED_PANDA_BODY_38_cls-15,.GUNDAN_RED_PANDA_BODY_GUNDAN_RED_PANDA_BODY_38_cls-17,.GUNDAN_RED_PANDA_BODY_GUNDAN_RED_PANDA_BODY_38_cls-18,.GUNDAN_RED_PANDA_BODY_GUNDAN_RED_PANDA_BODY_38_cls-19,.GUNDAN_RED_PANDA_BODY_GUNDAN_RED_PANDA_BODY_38_cls-20,.GUNDAN_RED_PANDA_BODY_GUNDAN_RED_PANDA_BODY_38_cls-7{fill:none;stroke:#000;stroke-linecap:round;}.GUNDAN_RED_PANDA_BODY_GUNDAN_RED_PANDA_BODY_38_cls-13,.GUNDAN_RED_PANDA_BODY_GUNDAN_RED_PANDA_BODY_38_cls-17,.GUNDAN_RED_PANDA_BODY_GUNDAN_RED_PANDA_BODY_38_cls-18,.GUNDAN_RED_PANDA_BODY_GUNDAN_RED_PANDA_BODY_38_cls-19,.GUNDAN_RED_PANDA_BODY_GUNDAN_RED_PANDA_BODY_38_cls-20,.GUNDAN_RED_PANDA_BODY_GUNDAN_RED_PANDA_BODY_38_cls-7{stroke-linejoin:round;}.GUNDAN_RED_PANDA_BODY_GUNDAN_RED_PANDA_BODY_38_cls-7{stroke-width:2.57px;}.GUNDAN_RED_PANDA_BODY_GUNDAN_RED_PANDA_BODY_38_cls-8{fill:#4f1c12;}.GUNDAN_RED_PANDA_BODY_GUNDAN_RED_PANDA_BODY_38_cls-9{opacity:0.43;mix-blend-mode:multiply;}.GUNDAN_RED_PANDA_BODY_GUNDAN_RED_PANDA_BODY_38_cls-10{fill:#c96411;}.GUNDAN_RED_PANDA_BODY_GUNDAN_RED_PANDA_BODY_38_cls-11{opacity:0.3;}.GUNDAN_RED_PANDA_BODY_GUNDAN_RED_PANDA_BODY_38_cls-12{fill:#373135;}.GUNDAN_RED_PANDA_BODY_GUNDAN_RED_PANDA_BODY_38_cls-13,.GUNDAN_RED_PANDA_BODY_GUNDAN_RED_PANDA_BODY_38_cls-15{stroke-width:2.35px;}.GUNDAN_RED_PANDA_BODY_GUNDAN_RED_PANDA_BODY_38_cls-14{fill:#f2ae62;}.GUNDAN_RED_PANDA_BODY_GUNDAN_RED_PANDA_BODY_38_cls-15{stroke-miterlimit:10;}.GUNDAN_RED_PANDA_BODY_GUNDAN_RED_PANDA_BODY_38_cls-16{opacity:0.49;}.GUNDAN_RED_PANDA_BODY_GUNDAN_RED_PANDA_BODY_38_cls-17{stroke-width:2.39px;}.GUNDAN_RED_PANDA_BODY_GUNDAN_RED_PANDA_BODY_38_cls-18{stroke-width:2.45px;}.GUNDAN_RED_PANDA_BODY_GUNDAN_RED_PANDA_BODY_38_cls-19{stroke-width:2.16px;}.GUNDAN_RED_PANDA_BODY_GUNDAN_RED_PANDA_BODY_38_cls-20{stroke-width:2.22px;}</style>
  </defs>
  <g class="GUNDAN_RED_PANDA_BODY_GUNDAN_RED_PANDA_BODY_38_cls-1">
    <g id="body">
      <path class="GUNDAN_RED_PANDA_BODY_GUNDAN_RED_PANDA_BODY_38_cls-2" d="M198.16,82.86c4.58-.62,8-.41,10.63.7,0,0,.08,0,.1,0a9.26,9.26,0,0,1,4,3.37s.05.11.08.13a16.05,16.05,0,0,1,2.13,5.1c.18.62.34,1.29.49,2s.18,1.08.26,1.64a1.27,1.27,0,0,1,.08.44,118.82,118.82,0,0,1,1,14.24c0,1,0,2.08.05,3.19,0,.17,0,.34,0,.52s0,.36,0,.54c0,.72,0,1.46,0,2.24v.82h0C194.69,114.2,189.9,133,189.9,133h0s-.2-.06-.56-.13c0,0,0,0-.06,0h0c-3.94-1.05-24.67-7-27.4-17.09a4.94,4.94,0,0,1-.12-.65.08.08,0,0,1,0-.08c-.62-3.54,1.12-7.85,4.31-12.14l0,0v0a50.23,50.23,0,0,1,8.54-8.7h0a61.35,61.35,0,0,1,5.12-3.76.81.81,0,0,0,.18-.1c1.36-.88,2.78-1.73,4.19-2.48h0a46.42,46.42,0,0,1,10.45-4.17,1.21,1.21,0,0,0,.18,0h0c.83-.2,1.62-.38,2.42-.49C197.49,83,197.82,82.91,198.16,82.86Z" />
      <path class="GUNDAN_RED_PANDA_BODY_GUNDAN_RED_PANDA_BODY_38_cls-3" d="M190.84,85c.39,0,4.1.16,10.15,6.41,5.69,5.9,7.44,21.94,7.75,25.41,0,.44,0,.67,0,.67l0,0h0l2,.75L217,120.6l0-2.7V117c0-.77,0-1.51,0-2.24v-2a77.63,77.63,0,0,0-.88-15.29.75.75,0,0,0,0-.21c-.06-.33-.11-.64-.18-1a1.23,1.23,0,0,0-.08-.44,34.23,34.23,0,0,0-2.16-7.18c-.24-.52-.47-1-.72-1.52a.41.41,0,0,1-.08-.13,8.71,8.71,0,0,0-6.34-4.35,1.81,1.81,0,0,0-.43-.1,21.91,21.91,0,0,0-8,.33c-.33,0-.66.1-1,.18-.8.15-1.54.36-2.24.54h0c-1.11.31-2.06.64-2.76.88-.23.1-.44.15-.62.23Z" />
      <path class="GUNDAN_RED_PANDA_BODY_GUNDAN_RED_PANDA_BODY_38_cls-4" d="M237.45,142.8s-.08-.05-.11-.08l-.61-.54c-.43-.38-.88-.79-1.36-1.24l-.73-.69c-.33-.33-.69-.67-1.06-1.05-.66-.67-1.41-1.42-2.16-2.22-.31-.31-.62-.64-.92-1-1-1.08-2-2.27-3.09-3.55-.29-.34-.57-.67-.85-1s-.7-.85-1.06-1.32-.69-.9-1.06-1.36-.69-.93-1.05-1.42l-1.24-1.7c-.23-.33-.46-.67-.72-1l-.54-.77c-.1-.16-.2-.32-.31-.48l-.31-.47c-1-1.52-2.06-3.14-3.09-4.84v0l0,0,0,0a0,0,0,0,1,0,0h0a.31.31,0,0,0-.05-.1h0C194.69,114.2,189.9,133,189.9,133h0s1.08,2.39,2.76,5.81c.67,1.37,1.44,2.91,2.26,4.51.05.1.11.18.16.28.33.65.67,1.29,1,2l.47.82c.07.16.15.31.23.47s.27.48.4.73h0a128.11,128.11,0,0,1,22.17-4.22c2-.21,3.86-.36,5.45-.44.29,0,.6,0,.85,0h.13c1.08-.08,2-.11,2.78-.13h.13c1.68-.08,2.63,0,2.63,0h0c.35,0,2.59,0,6.14.2Z" />
      <g class="GUNDAN_RED_PANDA_BODY_GUNDAN_RED_PANDA_BODY_38_cls-5">
        <path class="GUNDAN_RED_PANDA_BODY_GUNDAN_RED_PANDA_BODY_38_cls-6" d="M210.33,117.37s7.32,13.18,10.56,18.73,5.63,6.91,5.63,6.91l10.08-.35s-15.25-14.74-19.48-24.75A62.86,62.86,0,0,0,210.33,117.37Z" />
      </g>
      <path class="GUNDAN_RED_PANDA_BODY_GUNDAN_RED_PANDA_BODY_38_cls-7" d="M194.71,83.53a1.21,1.21,0,0,1-.18,0,46.42,46.42,0,0,0-10.45,4.17h0c-1.41.75-2.83,1.6-4.19,2.48a.81.81,0,0,1-.18.1,61.35,61.35,0,0,0-5.12,3.76h0a50.23,50.23,0,0,0-8.54,8.7v0l0,0c-3.19,4.29-4.93,8.6-4.31,12.14a.08.08,0,0,0,0,.08,4.94,4.94,0,0,0,.12.65c2.73,10,23.46,16,27.4,17.09h0s0,0,.06,0c.36.07.56.13.56.13s1.08,2.39,2.76,5.81c.67,1.37,1.44,2.91,2.26,4.51.05.1.11.18.16.28.33.65.67,1.29,1,2l.47.82c.07.16.15.31.23.47s.27.48.4.73" />
      <path class="GUNDAN_RED_PANDA_BODY_GUNDAN_RED_PANDA_BODY_38_cls-7" d="M237.5,142.85l-.05,0s-.08-.05-.11-.08l-.61-.54c-.43-.38-.88-.79-1.36-1.24l-.73-.69c-.33-.33-.69-.67-1.06-1.05-.66-.67-1.41-1.42-2.16-2.22-.31-.31-.62-.64-.92-1-1-1.08-2-2.27-3.09-3.55-.29-.34-.57-.67-.85-1s-.7-.85-1.06-1.32-.69-.9-1.06-1.36-.69-.93-1.05-1.42l-1.24-1.7c-.23-.33-.46-.67-.72-1l-.54-.77c-.1-.16-.2-.32-.31-.48l-.31-.47c-1-1.52-2.06-3.14-3.09-4.84v0l0,0,0,0a0,0,0,0,1,0,0h0a.31.31,0,0,0-.05-.1V117c0-.78,0-1.52,0-2.24,0-.18,0-.36,0-.54s0-.35,0-.52c0-1.11,0-2.16-.05-3.19a118.82,118.82,0,0,0-1-14.24,1.27,1.27,0,0,0-.08-.44c-.08-.56-.15-1.1-.26-1.64s-.31-1.34-.49-2a16.05,16.05,0,0,0-2.13-5.1s-.05-.08-.08-.13a9.26,9.26,0,0,0-4-3.37s-.07,0-.1,0c-2.6-1.11-6-1.32-10.63-.7-.34,0-.67.11-1,.18-.8.11-1.59.29-2.42.49" />
      <path class="GUNDAN_RED_PANDA_BODY_GUNDAN_RED_PANDA_BODY_38_cls-7" d="M217,117.8C194.69,114.2,189.9,133,189.9,133" />
      <path class="GUNDAN_RED_PANDA_BODY_GUNDAN_RED_PANDA_BODY_38_cls-7" d="M220.9,123.8h0c-9.12,1.78-22.24,5.84-28.24,15" />
      <path class="GUNDAN_RED_PANDA_BODY_GUNDAN_RED_PANDA_BODY_38_cls-7" d="M195.07,143.57l.8-.64c5.72-4.58,16.4-12.23,27.52-15.63" />
      <path class="GUNDAN_RED_PANDA_BODY_GUNDAN_RED_PANDA_BODY_38_cls-7" d="M231.43,137h0c-9.86.36-23.94,1.67-35.55,6-.31.13-.64.26-1,.36" />
      <path class="GUNDAN_RED_PANDA_BODY_GUNDAN_RED_PANDA_BODY_38_cls-7" d="M208.79,108.35s.31-5.4-2.11-13.64c-2.19-7.5-10.33-10.61-11.77-11.13h0l-.16,0h0" />
      <path class="GUNDAN_RED_PANDA_BODY_GUNDAN_RED_PANDA_BODY_38_cls-7" d="M191.55,105.65a73.29,73.29,0,0,1-7.47-17.9" />
      <path class="GUNDAN_RED_PANDA_BODY_GUNDAN_RED_PANDA_BODY_38_cls-7" d="M174.58,94.09s-3.27,17.27,13.23,28.37" />
      <path class="GUNDAN_RED_PANDA_BODY_GUNDAN_RED_PANDA_BODY_38_cls-7" d="M166,102.79v0s0,0,0,0c-.27,1.11-2.14,10.15,7,17.76" />
      <path class="GUNDAN_RED_PANDA_BODY_GUNDAN_RED_PANDA_BODY_38_cls-8" d="M268.93,298c.85,1.29,1.8,2.58,2.73,3.9,5.16,7.34,10,9.7,15.17,12.25,11.37,5.61,23.44,9.44,35,14.59s22.87,11.82,31.05,21.93c7.15,8.85,11.52,19.81,15.55,30.66q10.85,29.12,19.61,59,1.88,6.38,3.65,12.8H52q1.89-6.42,3.88-12.8,9.33-29.9,20.86-59c4.29-10.85,8.93-21.81,16.54-30.66,8.7-10.11,20.72-16.78,33-21.93s25.14-9,37.24-14.59c5.5-2.55,10.64-4.91,16.14-12.25a7.71,7.71,0,0,0,2.47-3.28v0a2.76,2.76,0,0,0,.08-.27,5,5,0,0,0,.12-.58c.72-3.65.48-10.1-.06-16.52h1l5.14.71a7.59,7.59,0,0,1,.71.69c.26.23.53.49.79.75l.32.3c.48.47,1,.94,1.44,1.42L193,286.3c.89.9,1.76,1.8,2.6,2.68l.24.23c.23.26.47.51.71.77l.47.52.39.43.87.93c.53.59,1,1.21,1.55,1.78,0,.05.08.07.11.13.42.46.79.92,1.15,1.36a7,7,0,0,0,.66.7,4.23,4.23,0,0,0,.76.69s0,0,.06,0l0,.05a18,18,0,0,0,1.76,1.21.27.27,0,0,0,.11.05,22,22,0,0,0,3.26,1.6.3.3,0,0,0,.21.07,34.8,34.8,0,0,0,3.7,1.29c.14,0,.24.08.37.1,1.82.52,3.74,1,5.65,1.37a137.94,137.94,0,0,0,17.85,2.16c.24,0,.43,0,.61,0l.68,0h.05v0c.47,0,6.15-.23,12.95-1.21A83,83,0,0,0,261.17,301a36.68,36.68,0,0,0,6.7-2.46l.53-.29Z" />
      <g class="GUNDAN_RED_PANDA_BODY_GUNDAN_RED_PANDA_BODY_38_cls-9">
        <path d="M190,379c-4.37,11.14,24.63,41.75,56.45,66a69.44,69.44,0,0,1-13.76,8.07H52q1.89-6.42,3.88-12.8,9.33-29.9,20.86-59c4.29-10.85,8.93-21.81,16.54-30.66,8.7-10.11,20.72-16.78,33-21.93s25.14-9,37.24-14.59c5.5-2.55,10.64-4.91,16.14-12.25a7.71,7.71,0,0,0,2.47-3.28v0a2.76,2.76,0,0,0,.08-.27,5,5,0,0,0,.12-.58c.72-3.65.48-10.1-.06-16.52h1l5.14.71a7.59,7.59,0,0,1,.71.69c.26.23.53.49.79.75l.32.3c.48.47,1,.94,1.44,1.42L193,286.3c.89.9,1.76,1.8,2.6,2.68l.24.23c.23.26.47.51.71.77l.47.52.39.43.87.93c.53.59,1.05,1.21,1.55,1.78,0,.05.08.07.11.13.42.46.79.92,1.15,1.36a7,7,0,0,0,.66.7,4.23,4.23,0,0,0,.76.69s0,0,.06,0l0,.05a18,18,0,0,0,1.76,1.21.27.27,0,0,0,.11.05,22,22,0,0,0,3.26,1.6.3.3,0,0,0,.21.07,34.8,34.8,0,0,0,3.7,1.29c.14,0,.24.08.37.1,1.82.52,3.74,1,5.65,1.37a137.94,137.94,0,0,0,17.85,2.16c.24,0,.43,0,.61,0l.68,0h0v0c.47,0,6.15-.23,13-1.21A83,83,0,0,0,261.16,301a36.68,36.68,0,0,0,6.7-2.46l.53-.29.53-.3c.85,1.29,1.8,2.58,2.73,3.9-24.9,14.21-33.86,22.47-66.53,16.86-10.37,25.22,20.61,69.26,39.16,77C208.17,393.88,195.13,381.66,190,379Z" />
        <path d="M322.78,388.53s11.39,46,9.89,65.71c9.16,0,8.3-1.13,8.3-1.13s6.28-29.1,1.56-49.2c-.7,23.24-4.89,36.7-4.89,36.7s1.23-54.53-6-69.38c3.58,33,1.31,46.66,1.31,46.66S328.37,394.82,322.78,388.53Z" />
      </g>
      <path class="GUNDAN_RED_PANDA_BODY_GUNDAN_RED_PANDA_BODY_38_cls-7" d="M268.93,298c.85,1.29,1.8,2.58,2.73,3.9,5.16,7.34,10,9.7,15.17,12.25,11.37,5.61,23.44,9.44,35,14.59s22.87,11.82,31.05,21.93c7.15,8.85,11.52,19.81,15.55,30.66q10.85,29.12,19.61,59,1.88,6.38,3.65,12.8H52q1.89-6.42,3.88-12.8,9.33-29.9,20.86-59c4.29-10.85,8.93-21.81,16.54-30.66,8.7-10.11,20.72-16.78,33-21.93s25.47-8.32,37.24-14.59c3.92-2.09,16.46-9.45,18.61-15.53,0,0,2.6-5.4.75-16.81" />
      <path class="GUNDAN_RED_PANDA_BODY_GUNDAN_RED_PANDA_BODY_38_cls-7" d="M134.74,401.25a273.14,273.14,0,0,0-5.86,51.86" />
      <path class="GUNDAN_RED_PANDA_BODY_GUNDAN_RED_PANDA_BODY_38_cls-7" d="M128.08,453.11,123.85,405l.58,1.62" />
      <path class="GUNDAN_RED_PANDA_BODY_GUNDAN_RED_PANDA_BODY_38_cls-7" d="M335.21,453.11a272.32,272.32,0,0,0-5.08-51.9" />
      <path class="GUNDAN_RED_PANDA_BODY_GUNDAN_RED_PANDA_BODY_38_cls-7" d="M340.36,406.77c.21-.54.41-1.08.61-1.62l-5,48" />
      <path class="GUNDAN_RED_PANDA_BODY_GUNDAN_RED_PANDA_BODY_38_cls-10" d="M339.33,233.48l0,.08a1.62,1.62,0,0,0-.1.18l-.13.22,0,0a.25.25,0,0,1,0,.07c-1,1.75-2,3.46-3.12,5.17l-.61.9A89.77,89.77,0,0,1,322,255.58l-.17.15h0l-.22.2c-.28.26-.56.51-.84.78l-.41.37h0l-.32.28-.33.3-.3.26c-1.24,1.06-2.67,2.2-4.22,3.38-1.07.82-2.19,1.66-3.35,2.5l-.54.4-1.2.86,0,0h0l-1,.7-.24.17h0c-9.54,6.73-20.14,13.35-21.09,13.94l-.07,0-.07,0,0,0-.1.08c-.27.2-.84.62-1.57,1.2a1.77,1.77,0,0,0-.17.14l0,0c-.54.43-1.17.94-1.84,1.51-.85.74-1.78,1.58-2.68,2.48A30.47,30.47,0,0,0,278,289l-.39.56h0c-.22.33-.46.67-.72,1h0c-.33.45-.7.92-1.12,1.4a23.91,23.91,0,0,1-2.58,2.52,2.54,2.54,0,0,1-.24.2l-.24.19a37.31,37.31,0,0,1-13.67,6.6l-1.54.41-.11,0a82.41,82.41,0,0,1-12.42,2l-1.51.12c-1.14.09-2.26.16-3.37.21l-.39,0c-1.5.06-3,.09-4.42.08h-.75a92.73,92.73,0,0,1-9.59-.58h-.1c-8-.93-14.58-2.83-19.05-5.08a22.46,22.46,0,0,1-2.93-1.72l0,0a12.43,12.43,0,0,1-2-1.72c-.51-.55-1.05-1.12-1.63-1.7h0c-.78-.78-1.61-1.59-2.46-2.4h0c-2.55-2.43-5.25-4.82-7.2-6.51h0c-1.68-1.46-2.8-2.4-2.8-2.4h-.15a89.65,89.65,0,0,1-26.6-4.84h0l-1-.37q-2.88-1.08-5.81-2.38l-.44-.19-.15-.07-.66-.31c-9.57-4.35-19.1-10.27-26.06-17.24-.71-.71-1.4-1.44-2-2.17a218.49,218.49,0,0,1-16.47-21.38l3.19-2.16,0,0,0,0,11.07-7.48,0,0,1.89-1.28-.37-.18h0l-.2-.09-8.51-4.28h0l.31-.18h0a77.93,77.93,0,0,0,8.58-5.62l.09-.07.28-.21.38-.3h0l.4-.32,0,0,.32-.26.38-.32c.78-.66,1.53-1.34,2.22-2a17.17,17.17,0,0,0,2.88-3.65.56.56,0,0,0,0-.12c-5.78-14.74-11.32-35.79-8.89-45.92a.09.09,0,0,1,0,0,10.91,10.91,0,0,1,1.16-3,11.88,11.88,0,0,1,7.58-5.81h0c4.83-1.21,10.91.12,17.68,2.65l.76.29c1.13.43,2.25.87,3.34,1.33l.07,0,.93.38c6.59,2.79,12.21,5.73,14.68,7.07h0l.63.35.25.14.42.23h0s.26-.21.76-.57l.22-.16h0l.19-.14.11-.07.07-.05,0,0,1.44-1h0a104.71,104.71,0,0,1,40.7-16q.5-.09,1-.15l.27-.05h.17l.31,0,1.26-.17.91-.12,2.59-.29,2.51-.25.68-.06h.1L223,143c23.08-1.93,34.53,1.86,44.49,5.19l.36.12.44.14c10.69,3.56,21.65,11.27,22.33,11.75l0,0L291,160c.72-.41,2.5-1.42,4.88-2.64l.57-.29c1.29-.66,2.74-1.37,4.28-2.07l.17-.08.41-.19c5.13-2.33,11.16-4.59,15.8-4.91a14.36,14.36,0,0,1,2.18,0c5.21.47,8.08,3.44,9.37,7.94h0a30.77,30.77,0,0,1,.71,10.34v0q-.14,1.7-.36,3.48c-.71,5.49-3.29,12.18-5.83,17.73-2.65,5.77-5.25,10.31-5.66,11l0,.05a.09.09,0,0,1,0,0l-.23,3h0v.15l.56,2,.45,1.61s8.67,9.08,14.09,10.69c-2.27,1.18-4.38,2.23-6,3l0,0c-2.15,1-3.54,1.67-3.54,1.67s.71.69,1.89,1.73h0l.38.34.06,0h0c3.24,2.81,9.18,7.49,13.92,8.54Z" />
      <path class="GUNDAN_RED_PANDA_BODY_GUNDAN_RED_PANDA_BODY_38_cls-11" d="M316.72,204.9l3.41,2.71-3.36-1.83c-4.6-3.67-10-8.6-8.81-8.76,1.51-.2,7,1.53,7,1.53a9.07,9.07,0,0,0,1.13,1.86h0s0,0,0,0a.09.09,0,0,1,0,.05l-.23,3C316.07,204,316.39,204.42,316.72,204.9Z" />
      <path class="GUNDAN_RED_PANDA_BODY_GUNDAN_RED_PANDA_BODY_38_cls-6" d="M286.55,280.17s-10.83-29.88-37.43-34.1-48.81,24.61-48.81,24.61l-9.66,13.65s9.92,9.61,12.18,12.67,24.08,7.29,39.57,7.11,27-6,30.11-9S284.34,281.06,286.55,280.17Z" />
      <path class="GUNDAN_RED_PANDA_BODY_GUNDAN_RED_PANDA_BODY_38_cls-6" d="M154.78,226.48s7.88,6.61,22.87,12.57c-9.46,10-22,20.46-1.5,41.75a128.53,128.53,0,0,1-17.68-4.15s-12.45-9.86-14.19-25.23S154.78,226.48,154.78,226.48Z" />
      <path class="GUNDAN_RED_PANDA_BODY_GUNDAN_RED_PANDA_BODY_38_cls-6" d="M297.55,239.45s15.38,8.26,11.22,26.54a92.39,92.39,0,0,0,19-18.07s-2.24-15.31-9.32-20.6C311.87,232.42,303.09,238.68,297.55,239.45Z" />
      <path class="GUNDAN_RED_PANDA_BODY_GUNDAN_RED_PANDA_BODY_38_cls-6" d="M189.65,234.86s-7.84-.51-8.54-6.75a34.07,34.07,0,0,1,0-9.64s-6.35-7.6-.64-11.09,17.62,6.88,17.62,6.88,3.74-6.26,5.85-4.53,4.66,7.08,5.07,14.36a47.73,47.73,0,0,1-.92,12.72s-8.4,2.7-13,1.52S189.65,234.86,189.65,234.86Z" />
      <path class="GUNDAN_RED_PANDA_BODY_GUNDAN_RED_PANDA_BODY_38_cls-6" d="M291.46,234.86s7.84-.51,8.54-6.75a34.07,34.07,0,0,0,0-9.64s6.35-7.6.64-11.09S283,214.26,283,214.26s-3.74-6.26-5.85-4.53-4.66,7.08-5.07,14.36a47.73,47.73,0,0,0,.92,12.72s8.4,2.7,13,1.52S291.46,234.86,291.46,234.86Z" />
      <path class="GUNDAN_RED_PANDA_BODY_GUNDAN_RED_PANDA_BODY_38_cls-12" d="M249.3,263.49s14.94,4.4,14.1,12.74-5.6,14-17.35,9.86c-9.57,2.75-13.71.76-16.08-5.89s1.08-10.21,6.75-13.36a37,37,0,0,1,9.9-3.94Z" />
      <path class="GUNDAN_RED_PANDA_BODY_GUNDAN_RED_PANDA_BODY_38_cls-6" d="M292.69,230.83c-1.1,7.11-6.85,10.92-19.74,6a21.21,21.21,0,0,1,1.1-4.2,10.73,10.73,0,0,1,.47-1.18c.2-.44.41-.88.64-1.34A17.78,17.78,0,0,1,278,226a3,3,0,0,1,.44-.43,2.34,2.34,0,0,1,.33-.31,12.33,12.33,0,0,1,1.49-1.16,8.15,8.15,0,0,1,.8-.49,13.21,13.21,0,0,1,1.83-.82,8.36,8.36,0,0,1,1-.34,16.23,16.23,0,0,1,1.79-.33,14.39,14.39,0,0,1,1.51-.13h.08a13.8,13.8,0,0,1,1.82,0,21,21,0,0,1,3.25.51A23.67,23.67,0,0,1,292.69,230.83Z" />
      <path class="GUNDAN_RED_PANDA_BODY_GUNDAN_RED_PANDA_BODY_38_cls-6" d="M284.5,223.49a7.42,7.42,0,1,1-7.42,7.42A7.42,7.42,0,0,1,284.5,223.49Z" />
      <path class="GUNDAN_RED_PANDA_BODY_GUNDAN_RED_PANDA_BODY_38_cls-13" d="M292.69,230.83c-1.1,7.11-6.85,10.92-19.74,6a21.21,21.21,0,0,1,1.1-4.2,10.73,10.73,0,0,1,.47-1.18c.2-.44.41-.88.64-1.34A17.78,17.78,0,0,1,278,226a3,3,0,0,1,.44-.43,2.34,2.34,0,0,1,.33-.31,12.33,12.33,0,0,1,1.49-1.16,8.15,8.15,0,0,1,.8-.49,13.21,13.21,0,0,1,1.83-.82,8.36,8.36,0,0,1,1-.34,14.6,14.6,0,0,1,3.38-.46,13.8,13.8,0,0,1,1.82,0,21,21,0,0,1,3.25.51A23.67,23.67,0,0,1,292.69,230.83Z" />
      <path class="GUNDAN_RED_PANDA_BODY_GUNDAN_RED_PANDA_BODY_38_cls-14" d="M283.4,223.49a7.42,7.42,0,1,0,7.42,7.42A7.42,7.42,0,0,0,283.4,223.49Z" />
      <circle cx="282.57" cy="230.91" r="3.59" />
      <circle class="GUNDAN_RED_PANDA_BODY_GUNDAN_RED_PANDA_BODY_38_cls-6" cx="284.53" cy="227.73" r="1.63" />
      <circle class="GUNDAN_RED_PANDA_BODY_GUNDAN_RED_PANDA_BODY_38_cls-15" cx="283.4" cy="230.91" r="7.42" />
      <path class="GUNDAN_RED_PANDA_BODY_GUNDAN_RED_PANDA_BODY_38_cls-6" d="M208.06,236.81c-13.1,5-18.79,1-19.82-6.28v-.06a25.11,25.11,0,0,1,.44-8,20.85,20.85,0,0,1,3.24-.51,14,14,0,0,1,1.83,0h.08a14.19,14.19,0,0,1,1.5.13,16.23,16.23,0,0,1,1.79.33c.34.1.67.21,1,.34a12.83,12.83,0,0,1,1.8.82,12.5,12.5,0,0,1,1.59,1.05,11.17,11.17,0,0,1,1.29,1.16,1.68,1.68,0,0,1,.21.18c.31.34.62.7.9,1.06a1.24,1.24,0,0,1,.23.31,11.07,11.07,0,0,1,.9,1.29s0,0,0,0c.23.39.46.8.67,1.19.05.07.07.15.13.23.23.46.43.9.61,1.34a10.73,10.73,0,0,1,.47,1.18,5.49,5.49,0,0,1,.25.75c.26.8.47,1.52.6,2.08.05.29.1.52.15.72a.1.1,0,0,1,0,.08C208,236.6,208.06,236.81,208.06,236.81Z" />
      <path class="GUNDAN_RED_PANDA_BODY_GUNDAN_RED_PANDA_BODY_38_cls-6" d="M196.52,223.49a7.42,7.42,0,1,0,7.42,7.42A7.42,7.42,0,0,0,196.52,223.49Z" />
      <path class="GUNDAN_RED_PANDA_BODY_GUNDAN_RED_PANDA_BODY_38_cls-13" d="M208.09,236.81h0c-13.1,5-18.79,1-19.82-6.28v-.06a25.11,25.11,0,0,1,.44-8,20.85,20.85,0,0,1,3.24-.51,14,14,0,0,1,1.83,0,14.59,14.59,0,0,1,3.37.46c.34.1.67.21,1,.34a12.83,12.83,0,0,1,1.8.82,12.5,12.5,0,0,1,1.59,1.05,11.17,11.17,0,0,1,1.29,1.16,1.68,1.68,0,0,1,.21.18c.31.34.62.7.9,1.06a1.24,1.24,0,0,1,.23.31,11.07,11.07,0,0,1,.9,1.29s0,0,0,0c.23.39.46.8.67,1.19.05.07.07.15.13.23.23.46.43.9.61,1.34a10.73,10.73,0,0,1,.47,1.18,5.49,5.49,0,0,1,.25.75,15.34,15.34,0,0,1,.6,2.08c.05.29.1.52.15.72a.1.1,0,0,1,0,.08C208.06,236.6,208.09,236.81,208.09,236.81Z" />
      <path class="GUNDAN_RED_PANDA_BODY_GUNDAN_RED_PANDA_BODY_38_cls-14" d="M195.65,223.49a7.42,7.42,0,1,0,7.42,7.42A7.42,7.42,0,0,0,195.65,223.49Z" />
      <circle cx="195.65" cy="230.91" r="3.59" />
      <circle class="GUNDAN_RED_PANDA_BODY_GUNDAN_RED_PANDA_BODY_38_cls-6" cx="193.69" cy="227.73" r="1.63" />
      <circle class="GUNDAN_RED_PANDA_BODY_GUNDAN_RED_PANDA_BODY_38_cls-15" cx="195.65" cy="230.91" r="7.42" />
      <path class="GUNDAN_RED_PANDA_BODY_GUNDAN_RED_PANDA_BODY_38_cls-7" d="M208,236.66s3.84-16.7-1.28-24.27-8.13,2.35-8.13,2.35-13.31-12.84-19.13-7,2.36,11.3,2.36,11.3-6,14.27,7.13,15.47" />
      <path class="GUNDAN_RED_PANDA_BODY_GUNDAN_RED_PANDA_BODY_38_cls-7" d="M272.92,236.61S269,220,274.17,212.39s8.12,2.35,8.12,2.35,13.31-12.84,19.14-7-2.36,11.3-2.36,11.3,5.82,14.27-7.27,15.47" />
      <g class="GUNDAN_RED_PANDA_BODY_GUNDAN_RED_PANDA_BODY_38_cls-9">
        <path d="M140,185.21a31.74,31.74,0,0,0,2.68,10s8.93-9.37,17.74-11.6c-8.34-8.35-12.72-17.33-15.88-19.66s-8.69-4-8.69-4,4.15,7.17,4.93,13.83c-3.85-2.89-6.14-3.11-6.14-3.11S139.21,178.81,140,185.21Z" />
        <path class="GUNDAN_RED_PANDA_BODY_GUNDAN_RED_PANDA_BODY_38_cls-16" d="M187.77,281.86h-.51A80.67,80.67,0,0,1,166,279c-2-.51-4-1.13-6.06-1.8q-2.66-.9-5.36-2h0c-2.86-1.13-5.74-2.38-8.65-3.83a1.11,1.11,0,0,1-.27-.13c-1.5-.71-3-1.5-4.54-2.34-.82-.42-1.64-.87-2.48-1.35l-2.42-1.4A.56.56,0,0,1,136,266c-1.14-.66-2.29-1.37-3.43-2.08a66.8,66.8,0,0,1-22.65-24.1l-.16-.27a6.63,6.63,0,0,1-.33-.65,42.87,42.87,0,0,1-2.31-5s0,0,0,0a5.55,5.55,0,0,1-.21-.57l-.09-.24s3.92-2,8.13-4.65v0a47.5,47.5,0,0,0,7.37-5.47.29.29,0,0,0,.17-.17,9.24,9.24,0,0,0,1.11-1.18,2.44,2.44,0,0,0,.27-.3l-1.25-.44c-.41-.13-.79-.29-1.14-.42-.73-.26-1.39-.52-2-.73-.79-.31-1.47-.6-2-.86-.27-.11-.54-.24-.76-.34-1-.45-1.55-.77-1.93-1l-.24-.16c-.33-.24-.36-.35-.36-.35h0l0,0c.35-.22,2.66-1.53,5.6-3.39,0,0,0,0,.08,0,1-.67,2.12-1.36,3.26-2.11a1,1,0,0,1,.19-.14c.27-.19.57-.39.85-.55v0a61.5,61.5,0,0,0,8.56-6.8c-1.28,1.7-3,4-4.81,6.2-2.2,2.85-4.38,5.54-5.39,6.56,9.39,3.22,20.59-10.56,21.38-11.52-.41.88-7.13,14.91-13.49,19,9.54,2.32,13.3-4.29,17.13-7.79,3.24-2.92-7.26,15.77-7.26,15.77l14.52.62a1.51,1.51,0,0,1,.3,0s0,0,0,0h0l0,0,0,0h.08v0a23.06,23.06,0,0,0,6.09,14.91l0,0a20.52,20.52,0,0,0,2.25,2.08,25.23,25.23,0,0,0,7.32,4v0c1,8.14,2.85,14,6.74,19.05v0l.08.08a39.33,39.33,0,0,0,8.08,7.57s.08.08.13.11C186.6,281,187.18,281.46,187.77,281.86Z" />
        <path d="M289.69,160l-.23.17-.86.53a1.43,1.43,0,0,0-.2.14l-.69.42-.89.56a1.66,1.66,0,0,1-.3.19c-.26.14-.39.23-.39.23s-4.62-3.19-24-10.73c-.58-.23-1.19-.49-1.83-.72a44.64,44.64,0,0,0-5.13-1.64c-19.5-5.2-47.55-2.33-47.55-2.33a143.81,143.81,0,0,1,28.35,3c-34.75-.6-63.66,13.53-64.78,14.1a.09.09,0,0,1-.08,0c-.05,0-.15,0-.3-.18l-.08-.08a6.7,6.7,0,0,1-1-1.91l.61-.39c.46-.3,1-.64,1.65-1,.31-.2.66-.4,1-.62s.84-.5,1.3-.76c2-1.15,4.5-2.47,7.47-3.85,1.14-.57,2.29-1.05,3.46-1.56,1-.45,2.06-.91,3.15-1.33s2.31-.94,3.48-1.35c2-.71,4-1.4,6.16-2.07a117.91,117.91,0,0,1,44-4.29c.73.07,1.45.14,2.16.23s1.52.16,2.29.26c3.53.44,6.91,1,10.06,1.73,2.57.57,5,1.2,7.3,1.86a105,105,0,0,1,10,3.38c1,.42,1.93.78,2.85,1.17,1.5.65,2.84,1.24,4.09,1.84.35.16.71.34,1.07.52a3.28,3.28,0,0,1,.45.24,2.44,2.44,0,0,1,.41.18s0,0,.05,0a.09.09,0,0,1,.08,0c.3.18.61.34.91.5.54.26,1,.55,1.48.78,1.47.84,2.62,1.52,3.38,2l.56.36s.05.06.08.06l.33.23A.7.7,0,0,1,289.69,160Z" />
        <path class="GUNDAN_RED_PANDA_BODY_GUNDAN_RED_PANDA_BODY_38_cls-16" d="M339,233.35s-5.55,11.24-12.44,17.05S306,268.8,306,268.8L294.18,276l-.45.2a47.84,47.84,0,0,1-8.11,5.67h-.34c.38-.4.74-.82,1.1-1.23,0,0,.06-.07.09-.1,3-8.83,9.5-17,8.71-26.73v0a15.59,15.59,0,0,0,4.69-4,16.17,16.17,0,0,0,1.41-2.08l0,0c3.72-6.41,3.4-14.32,3.37-14.92v0h.07v0l0,0h0s0,0,0,0a.46.46,0,0,1,.2,0l9.66-.62s-5.48-12.16-2.38-10.12,4.86,2.6,8.59,2.14c-4.43-4.06-5.07-11.7-5.37-12.58.57,1,8,7.15,10.29,5.14-.48-.68-1.36-2.13-2.37-3.87l6.8,4.59.22.64-.64.48a5.41,5.41,0,0,1-.5.35c-.37.26-.81.55-1.32.86s-.79.47-1.27.73l-.6.34-4.25,1.8,9.69,6.77,1.31.36c1.07.92,2.05,1.7,2.79,2.3Z" />
        <path class="GUNDAN_RED_PANDA_BODY_GUNDAN_RED_PANDA_BODY_38_cls-16" d="M263,273.55s-14.18,9.28-33.22,0c-13.23,5.78-25.95,2.2-31-1.67a76.09,76.09,0,0,0-10,13.91s10.74,6.74,12.88,9.82,11.9,6.13,23.16,8.19,27.45-.06,33.66-2A108.06,108.06,0,0,0,270.81,297L283,284.07l3.12-4.57-3.63-7.62S273,278.11,263,273.55Z" />
      </g>
      <g class="GUNDAN_RED_PANDA_BODY_GUNDAN_RED_PANDA_BODY_38_cls-5">
        <path class="GUNDAN_RED_PANDA_BODY_GUNDAN_RED_PANDA_BODY_38_cls-6" d="M179.83,167.9s-45.43-20.41-57-9.87c3.3-7.42,6.81-9.6,15.73-7.88S166.82,157.87,179.83,167.9Z" />
        <path class="GUNDAN_RED_PANDA_BODY_GUNDAN_RED_PANDA_BODY_38_cls-6" d="M138.71,198.55s5.46-1.72,7-1.52-7.18,9.18-12.33,11.87-7.91,2.38-7.91,2.38S136.89,202.92,138.71,198.55Z" />
        <path class="GUNDAN_RED_PANDA_BODY_GUNDAN_RED_PANDA_BODY_38_cls-6" d="M328.9,158c-7.35-7.78-27.07-.62-36.9,3.66l-1.27.56c-2.61,1.17-4.28,2-4.45,2.11,1.11-1,2.22-1.92,3.31-2.78.35-.26.69-.53,1-.77,9.48-7.1,18.05-9.16,24.73-10.66C323,148.42,326.06,150.61,328.9,158Z" />
        <path class="GUNDAN_RED_PANDA_BODY_GUNDAN_RED_PANDA_BODY_38_cls-6" d="M261.68,271.09s-11.52-4.78-14.1-5.46c-5.76.91-18,8.49-17.51,6.59s13.24-9.37,16.28-9.63l3.05-.26S258.19,267.3,261.68,271.09Z" />
        <g class="GUNDAN_RED_PANDA_BODY_GUNDAN_RED_PANDA_BODY_38_cls-5">
          <path class="GUNDAN_RED_PANDA_BODY_GUNDAN_RED_PANDA_BODY_38_cls-6" d="M292,161.69l-1.27.56-.45-.26-.69-.41c-.53-.3-1.17-.66-1.89-1a.2.2,0,0,0-.13-.06c-.65-.35-1.37-.73-2.15-1.1a.08.08,0,0,0-.08,0s0-.06,0-.06a2.44,2.44,0,0,0-.41-.18,3.57,3.57,0,0,0-.47-.25q-.54-.29-1.08-.54c-1.27-.62-2.64-1.24-4.17-1.91-.93-.41-1.88-.78-2.89-1.21-3-1.16-6.41-2.38-10.19-3.48-2.32-.7-4.81-1.38-7.42-2a117.83,117.83,0,0,0-12.51-2.32c-.73-.11-1.45-.19-2.2-.27-3.72-.43-7.63-.73-11.69-.84a111.43,111.43,0,0,0-33.06,4.26q-3.27.93-6.26,1.95c-1.19.37-2.38.83-3.54,1.26s-2.17.84-3.21,1.27c-1.19.49-2.35.94-3.52,1.48-3,1.33-5.55,2.59-7.6,3.7-.46.24-.9.48-1.32.73s-.72.4-1,.59c-.65.35-1.21.67-1.68,1l-.62.38a10.08,10.08,0,0,0-1,.62c.1-.27,1.09-2.4,4.47-5.26,3.75-3.18,10.48-7.25,22.32-10.68l.41-.13a117.17,117.17,0,0,1,21.72-3.94c3.08-.3,6.1-.43,9.07-.49,1.58,0,3.13,0,4.68,0h0c1.16,0,2.3.06,3.44.11a118.83,118.83,0,0,1,24.59,3.51h0a1,1,0,0,1,.16,0,65.93,65.93,0,0,1,7.26,2.35,136.58,136.58,0,0,1,23,11.76Z" />
        </g>
      </g>
      <path class="GUNDAN_RED_PANDA_BODY_GUNDAN_RED_PANDA_BODY_38_cls-17" d="M317.05,201l.39-.53a.09.09,0,0,0,0,0l0,0a65.94,65.94,0,0,0,8.84-17.71c.33-1,.63-1.94.9-2.84s.49-1.75.7-2.54A45.59,45.59,0,0,0,329,172.2c.16-1.38.29-2.72.35-4v0c0-.36.06-.7.07-1.05.06-.8.08-1.58.08-2.34,0-.19,0-.37,0-.56,0-.85,0-1.67-.08-2.47s-.14-1.56-.25-2.29c-.07-.52-.16-1-.26-1.51s-.22-1-.35-1.4a12.67,12.67,0,0,0-1-2.45,8.83,8.83,0,0,0-.93-1.48c-.12-.14-.24-.29-.37-.42a6.33,6.33,0,0,0-1.74-1.34,9.37,9.37,0,0,0-1.46-.61l-.11,0h0a13.34,13.34,0,0,0-2.53-.51l-.69,0h-.08l-.77,0h-.26a26.08,26.08,0,0,0-4.78.59.6.6,0,0,0-.24.06,56.77,56.77,0,0,0-12.26,4.51l-.41.19-.17.08-.93.47-.7.35-.07,0c-1.26.65-2.5,1.32-3.71,2l-1.48.85c-.88.5-1.74,1-2.56,1.5h0l-.78.48-1.16.72-.58.38h0l0,0-.16.1-.09.06-.18.11-.26.17a0,0,0,0,1,0,0l-.3.2c-.22.15-.45.29-.67.41l-1.06.71" />
      <path class="GUNDAN_RED_PANDA_BODY_GUNDAN_RED_PANDA_BODY_38_cls-7" d="M159,277.07c-11.71-9.64-24.34-29-3.84-51,5.59,8.4,23.76,13,23.76,13s-29.7,16.33-2.74,41.75" />
      <path class="GUNDAN_RED_PANDA_BODY_GUNDAN_RED_PANDA_BODY_38_cls-18" d="M308.67,266.31c5.25-17-11.73-27.26-11.73-27.26s16.48-4.55,21.55-13c6.84,8.07,9.62,15.8,9.86,22.81" />
      <path class="GUNDAN_RED_PANDA_BODY_GUNDAN_RED_PANDA_BODY_38_cls-7" d="M189.26,284.85c.58-.83,2.17-2.93,2.84-3.81.44-.64.92-1.32,1.46-2s1.16-1.58,1.79-2.4,1.23-1.57,1.9-2.35,1.32-1.61,2.06-2.45a.79.79,0,0,1,.21-.27.75.75,0,0,1,.2-.21l.59-.71c1.11-1.26,2.26-2.53,3.51-3.79.91-.92,1.84-1.89,2.8-2.81a72.62,72.62,0,0,1,20.66-14.35c.68-.3,1.36-.57,2.07-.85s1.37-.53,2.09-.75c1.38-.46,2.78-.87,4.19-1.22a4.56,4.56,0,0,0,.64-.14c.54-.11,1-.19,1.59-.31l.36-.06c1.25-.19,2.48-.35,3.75-.45a1.47,1.47,0,0,0,.28,0c.72,0,1.46-.06,2.2-.08s1.48,0,2.23,0a43,43,0,0,1,4.35.42,40.77,40.77,0,0,1,5.88,1.47c1.24.43,2.41.92,3.57,1.45a37.52,37.52,0,0,1,6.33,3.74l1.45,1.09c.8.64,1.58,1.31,2.32,2l.36.32a55,55,0,0,1,4.72,5.11c.59.73,1.18,1.49,1.72,2.25.31.41.61.83.89,1.24a43.7,43.7,0,0,1,2.57,4,.31.31,0,0,1,.12.14,1.35,1.35,0,0,1,.15.26,81.8,81.8,0,0,1,4.19,8.08c.31.7.59,1.37.87,2l.1.25" />
      <path class="GUNDAN_RED_PANDA_BODY_GUNDAN_RED_PANDA_BODY_38_cls-7" d="M231.34,142.64s-1,0-2.63.06h-.13c-.77,0-1.7.05-2.78.12h-.13c-.26,0-.56,0-.85.06-1.59.07-3.42.23-5.46.43a129.28,129.28,0,0,0-22.16,4.23c-.13.05-.26.07-.42.12a78.25,78.25,0,0,0-22.22,10.2,56.23,56.23,0,0,0-5.61,4.4" />
      <path class="GUNDAN_RED_PANDA_BODY_GUNDAN_RED_PANDA_BODY_38_cls-7" d="M167.39,183.52s-8,3.62-14-8.54-18.9-16.27-18.9-16.27l2.3,6.24-8.54,1,2.79,3.62s-1.81,11.83,2.14,18.24" />
      <path class="GUNDAN_RED_PANDA_BODY_GUNDAN_RED_PANDA_BODY_38_cls-7" d="M130.67,205.62a2.06,2.06,0,0,1-.13-.33,194.28,194.28,0,0,1-7.16-22.87c-.8-3.4-1.49-6.87-2-10.22-.18-1.39-.33-2.73-.41-4a34.05,34.05,0,0,1-.15-4,28.35,28.35,0,0,1,.38-4.76,14.4,14.4,0,0,1,1.86-5.36,7.78,7.78,0,0,1,3.52-3.24,14.64,14.64,0,0,1,4.79-1.16c.59-.05,1.19-.08,1.8-.08h.29a33.39,33.39,0,0,1,5.53.59,2,2,0,0,1,.29.05c6.79,1.29,14.42,4.38,21.14,7.65l1.69.85c2.45,1.18,4.72,2.42,6.78,3.55,0,0,0,0,0,0l.36.21c.26.15.52.28.77.41.75.43,1.45.82,2.09,1.21l.23.15h0a1.74,1.74,0,0,1,.2.13c.36.21.7.41,1,.57.49.31,1,.59,1.39.85,2.42,1.46,3.86,2.42,3.86,2.42" />
      <path class="GUNDAN_RED_PANDA_BODY_GUNDAN_RED_PANDA_BODY_38_cls-7" d="M186,281.56l-2.67-.37h-.26a67.12,67.12,0,0,1-8.83-.61c-1-.14-2-.28-3-.44-1.36-.24-2.7-.49-4-.8-.88-.18-1.73-.38-2.57-.62a.59.59,0,0,1-.21-.05h0l-.31-.08c-2.26-.59-4.48-1.29-6.61-2.06-.33-.1-.67-.23-1-.36l-.09,0c-1.53-.57-3-1.17-4.46-1.83l-.16-.08h0c-1.11-.49-2.19-1-3.28-1.54-.66-.32-1.31-.65-1.92-1-.95-.49-1.88-1-2.81-1.55l-.26-.12c-.64-.37-1.29-.75-1.9-1.14a15.7,15.7,0,0,1-1.39-.85c-1-.59-2-1.26-3-1.91a95.57,95.57,0,0,1-9.33-7.1c-.31-.26-.61-.54-.9-.8-.44-.38-.88-.79-1.31-1.18h0v0c-1-.9-1.92-1.77-2.85-2.67s-1.91-1.94-2.78-2.89l-1.6-1.73c-1.91-2.08-3.6-4.14-5.13-6.09s-2.75-3.74-3.85-5.44q-1.47-2.25-2.48-4.17a.09.09,0,0,1,0-.06l-.28-.5s.06,0,.08,0a38.36,38.36,0,0,0,7.26-3.87c5.28-3.31,10.61-7.41,10.61-7.41s-2,.08-5.9-1.57a38,38,0,0,1-5-2.58l0,0a16.92,16.92,0,0,0,2.76-1.29s0,0,.05,0,0,0,0-.05a49,49,0,0,0,5.61-3.78,1,1,0,0,1,.18-.13l.91-.69v0c.43-.33.87-.67,1.31-1,1.26-1,2.49-2.08,3.71-3.14.05-.05.09-.11.15-.13.79-.72,1.57-1.39,2.32-2.09h0c.77-.69,1.5-1.33,2.19-2l.08-.08,0,0c1.95-1.8,3.55-3.32,4.48-4.28a.13.13,0,0,0,.07,0c.1-.08.18-.19.26-.26s.23-.23.33-.31l.34-.33" />
      <path class="GUNDAN_RED_PANDA_BODY_GUNDAN_RED_PANDA_BODY_38_cls-7" d="M291,160.07a48.24,48.24,0,0,0-4.52-3.29q-2.22-1.42-4.54-2.65c-.77-.41-1.54-.83-2.34-1.18-1.52-.75-3-1.45-4.61-2.09a.44.44,0,0,1-.15-.05c-2.17-.91-4.35-1.68-6.54-2.37-.72-.23-1.45-.47-2.16-.67-1.14-.36-2.27-.67-3.38-1-.61-.16-1.24-.34-1.85-.47a.12.12,0,0,0-.08,0c-1.57-.39-3.11-.75-4.64-1-3.36-.7-6.58-1.21-9.49-1.58-1.76-.23-3.4-.4-4.92-.54-6-.56-9.92-.54-10.38-.54h0" />
      <path class="GUNDAN_RED_PANDA_BODY_GUNDAN_RED_PANDA_BODY_38_cls-7" d="M293.72,183.28a29.81,29.81,0,0,0,7.25-9,30.84,30.84,0,0,1,17.16-15.56l-2.3,6.24,8.54,1-2.79,3.62s1.81,11.83-2.14,18.24" />
      <path class="GUNDAN_RED_PANDA_BODY_GUNDAN_RED_PANDA_BODY_38_cls-7" d="M314.27,198.31h0v0s0,0,0,.05a0,0,0,0,1,0,0,.36.36,0,0,1,.05.09l.28.57.09.17v0c.05.1.11.2.16.32l.15.26.21.4a.35.35,0,0,1,.05.08c.14.26.3.53.46.82h0l.13.24c.31.53.66,1.11,1.05,1.72h0l.24.37.18.27.24.37.41.61.09.14v0h0c.16.24.33.48.51.73a43.22,43.22,0,0,0,9.27,9.69l.53.38A27.41,27.41,0,0,0,332.3,218h0s0,0,.05,0l-.27.15-.27.15-.47.26-.44.26a35.31,35.31,0,0,1-4.65,2.17l0,0a22.64,22.64,0,0,1-2.76.85h0a8.64,8.64,0,0,1-2,.28l.49.38c.14.09.31.22.51.37l.24.18.19.14,0,0,.53.4a2.64,2.64,0,0,1,.29.21l.05,0,.42.31.16.12.64.46.06,0,0,0,.29.21,0,0c1.61,1.15,3.55,2.52,5.55,3.83l.51.32.16.1h0l1.58,1c.53.32,1.05.63,1.56.91a35.38,35.38,0,0,0,3.18,1.66l.21.09c.24.11.47.2.7.29l.16.06.26.1h.08l0,.08-.09.18h0l-.13.22,0,0a.25.25,0,0,1,0,.07,59.24,59.24,0,0,1-3.12,5.17l-.61.9c-.52.75-1.06,1.51-1.64,2.29l-.16.22c-.4.53-.81,1.07-1.24,1.62l-.5.63-.15.19-.17.21-.5.63c-.45.55-.92,1.1-1.39,1.66l-.15.17-.57.66q-1.83,2.1-3.91,4.25c-.54.56-1.11,1.13-1.7,1.7l-.3.29q-.56.56-1.11,1.08l-.22.21c-.28.26-.56.51-.84.78l-.41.37h0a3.83,3.83,0,0,0-.29.28l-.33.3-.3.26-.34.31-.44.4q-.22.21-.45.39l-1.43,1.22c-.48.4-1,.8-1.47,1.19l-.27.21-1,.77c-.53.41-1.2.91-2,1.5l-.61.45-1.36,1-.73.53-.5.35h0l0,0,0,0h0l-1.85,1.31-2.76,1.91c-.33.21-.66.44-1,.67l-3.14,2.1c-1.82,1.19-3.75,2.43-5.77,3.7l0,0h0l-.69.43h0l-.35.21-.75.46-.08.05q-2.22,1.37-4.55,2.73l-.07,0-.07,0,0,0-.07,0h0l-.85.49h0" />
      <path class="GUNDAN_RED_PANDA_BODY_GUNDAN_RED_PANDA_BODY_38_cls-7" d="M177.22,272.25s3.93,4.37,8.77,9.31c1,1.08,2.16,2.19,3.27,3.29a86.15,86.15,0,0,0,10.42,9.07c5.34,3.57,15,11.69,45.36,10.39,19.26-.82,34.26-13.85,41.7-23.34l.69-.9a65.35,65.35,0,0,0,5.21-7.82" />
      <path class="GUNDAN_RED_PANDA_BODY_GUNDAN_RED_PANDA_BODY_38_cls-7" d="M247.29,286.09c-4.84,2.49-9.94,1.88-12.9-.18a11.7,11.7,0,0,1-2.32-2.12c-.07-.1-.18-.2-.25-.3a9.25,9.25,0,0,1-.7-1,9.76,9.76,0,0,1-.75-1.39,12,12,0,0,1-1-3.22c-.05-.28-.07-.59-.1-.88a8.34,8.34,0,0,1,.21-2.8v0c.08-.2.13-.41.2-.62v0a4.58,4.58,0,0,1,.65-1.42c4-6.33,15-9.14,15-9.14" />
      <path d="M232.07,283.79h0l-.23-.3a9.25,9.25,0,0,1-.7-1,9.76,9.76,0,0,1-.75-1.39,12,12,0,0,1-1-3.22c-.05-.28-.07-.59-.1-.88a8.34,8.34,0,0,1,.21-2.8v0a4,4,0,0,1,.18-.64l0,0c2.06,2.19,5.75,5.54,9,5.54C243.15,279.11,240.44,286.32,232.07,283.79Z" />
      <path d="M260.55,283.79c-8.39,2.55-11.07-4.68-6.57-4.68,3.25,0,7-3.37,9-5.56C264.05,276.64,263.05,280.78,260.55,283.79Z" />
      <path class="GUNDAN_RED_PANDA_BODY_GUNDAN_RED_PANDA_BODY_38_cls-7" d="M245.31,263s13,2.81,17,9.14a4.8,4.8,0,0,1,.64,1.42c1.08,3.09.08,7.23-2.42,10.24a11.43,11.43,0,0,1-2.32,2.12c-3,2.06-6.08,2.67-10.92.18" />
      <path class="GUNDAN_RED_PANDA_BODY_GUNDAN_RED_PANDA_BODY_38_cls-19" d="M246.31,293.56a15.4,15.4,0,0,0,9.75,1.24c5.91-1.23,7.34-5.28,7.34-5.28" />
      <path class="GUNDAN_RED_PANDA_BODY_GUNDAN_RED_PANDA_BODY_38_cls-19" d="M246.31,293.56a15.4,15.4,0,0,1-9.75,1.24c-5.91-1.23-7.35-5.28-7.35-5.28" />
      <path class="GUNDAN_RED_PANDA_BODY_GUNDAN_RED_PANDA_BODY_38_cls-20" d="M246.28,293.63s3.2-10.47,0-21.1" />
    </g>
  </g>
</svg>