<svg xmlns="http://www.w3.org/2000/svg" viewBox="0 0 432 432">
  <defs>
    <style>.GUNDAN_RED_PANDA_BODY_GUNDAN_RED_PANDA_BODY_29_cls-1{isolation:isolate;}.GUNDAN_RED_PANDA_BODY_GUNDAN_RED_PANDA_BODY_29_cls-2{fill:#4f1c12;}.GUNDAN_RED_PANDA_BODY_GUNDAN_RED_PANDA_BODY_29_cls-3{opacity:0.43;mix-blend-mode:multiply;}.GUNDAN_RED_PANDA_BODY_GUNDAN_RED_PANDA_BODY_29_cls-13,.GUNDAN_RED_PANDA_BODY_GUNDAN_RED_PANDA_BODY_29_cls-14,.GUNDAN_RED_PANDA_BODY_GUNDAN_RED_PANDA_BODY_29_cls-15,.GUNDAN_RED_PANDA_BODY_GUNDAN_RED_PANDA_BODY_29_cls-16,.GUNDAN_RED_PANDA_BODY_GUNDAN_RED_PANDA_BODY_29_cls-4,.GUNDAN_RED_PANDA_BODY_GUNDAN_RED_PANDA_BODY_29_cls-8{fill:none;stroke:#000;stroke-linecap:round;}.GUNDAN_RED_PANDA_BODY_GUNDAN_RED_PANDA_BODY_29_cls-13,.GUNDAN_RED_PANDA_BODY_GUNDAN_RED_PANDA_BODY_29_cls-14,.GUNDAN_RED_PANDA_BODY_GUNDAN_RED_PANDA_BODY_29_cls-15,.GUNDAN_RED_PANDA_BODY_GUNDAN_RED_PANDA_BODY_29_cls-16,.GUNDAN_RED_PANDA_BODY_GUNDAN_RED_PANDA_BODY_29_cls-4{stroke-linejoin:round;}.GUNDAN_RED_PANDA_BODY_GUNDAN_RED_PANDA_BODY_29_cls-4{stroke-width:2.57px;}.GUNDAN_RED_PANDA_BODY_GUNDAN_RED_PANDA_BODY_29_cls-5{fill:#c96411;}.GUNDAN_RED_PANDA_BODY_GUNDAN_RED_PANDA_BODY_29_cls-6{fill:#fff;}.GUNDAN_RED_PANDA_BODY_GUNDAN_RED_PANDA_BODY_29_cls-7{fill:#373135;}.GUNDAN_RED_PANDA_BODY_GUNDAN_RED_PANDA_BODY_29_cls-8{stroke-miterlimit:10;stroke-width:2.35px;}.GUNDAN_RED_PANDA_BODY_GUNDAN_RED_PANDA_BODY_29_cls-9{fill:#008d7c;}.GUNDAN_RED_PANDA_BODY_GUNDAN_RED_PANDA_BODY_29_cls-10{opacity:0.49;}.GUNDAN_RED_PANDA_BODY_GUNDAN_RED_PANDA_BODY_29_cls-11{opacity:0.31;mix-blend-mode:screen;}.GUNDAN_RED_PANDA_BODY_GUNDAN_RED_PANDA_BODY_29_cls-12{fill:#420901;}.GUNDAN_RED_PANDA_BODY_GUNDAN_RED_PANDA_BODY_29_cls-13{stroke-width:2.39px;}.GUNDAN_RED_PANDA_BODY_GUNDAN_RED_PANDA_BODY_29_cls-14{stroke-width:2.36px;}.GUNDAN_RED_PANDA_BODY_GUNDAN_RED_PANDA_BODY_29_cls-15{stroke-width:2.16px;}.GUNDAN_RED_PANDA_BODY_GUNDAN_RED_PANDA_BODY_29_cls-16{stroke-width:2.22px;}</style>
  </defs>
  <g class="GUNDAN_RED_PANDA_BODY_GUNDAN_RED_PANDA_BODY_29_cls-1">
    <g id="body">
      <path class="GUNDAN_RED_PANDA_BODY_GUNDAN_RED_PANDA_BODY_29_cls-2" d="M268.93,298c.85,1.29,1.8,2.58,2.73,3.9,5.16,7.34,10,9.7,15.17,12.25,11.37,5.61,23.44,9.44,35,14.59s22.87,11.82,31.05,21.93c7.15,8.85,11.52,19.81,15.55,30.66q10.85,29.12,19.61,59,1.88,6.38,3.65,12.8H52q1.89-6.42,3.88-12.8,9.33-29.9,20.86-59c4.29-10.85,8.93-21.81,16.54-30.66,8.7-10.11,20.72-16.78,33-21.93s25.14-9,37.24-14.59c5.5-2.55,10.64-4.91,16.14-12.25a7.71,7.71,0,0,0,2.47-3.28v0a2.76,2.76,0,0,0,.08-.27,5,5,0,0,0,.12-.58c.72-3.65.48-10.1-.06-16.52h1l5.14.71a7.59,7.59,0,0,1,.71.69c.26.23.53.49.79.75l.32.3c.48.47,1,.94,1.44,1.42L193,286.3c.89.9,1.76,1.8,2.6,2.68l.24.23c.23.26.47.51.71.77l.47.52.39.43.87.93c.53.59,1,1.21,1.55,1.78,0,.05.08.07.11.13.42.46.79.92,1.15,1.36a7,7,0,0,0,.66.7,4.23,4.23,0,0,0,.76.69s0,0,.06,0l0,.05a18,18,0,0,0,1.76,1.21.27.27,0,0,0,.11.05,22,22,0,0,0,3.26,1.6.3.3,0,0,0,.21.07,34.8,34.8,0,0,0,3.7,1.29c.14,0,.24.08.37.1,1.82.52,3.74,1,5.65,1.37a137.94,137.94,0,0,0,17.85,2.16c.24,0,.43,0,.61,0l.68,0h.05v0c.47,0,6.15-.23,12.95-1.21A83,83,0,0,0,261.17,301a36.68,36.68,0,0,0,6.7-2.46l.53-.29Z" />
      <g class="GUNDAN_RED_PANDA_BODY_GUNDAN_RED_PANDA_BODY_29_cls-3">
        <path d="M190,379c-4.37,11.14,24.63,41.75,56.45,66a69.44,69.44,0,0,1-13.76,8.07H52q1.89-6.42,3.88-12.8,9.33-29.9,20.86-59c4.29-10.85,8.93-21.81,16.54-30.66,8.7-10.11,20.72-16.78,33-21.93s25.14-9,37.24-14.59c5.5-2.55,10.64-4.91,16.14-12.25a7.71,7.71,0,0,0,2.47-3.28v0a2.76,2.76,0,0,0,.08-.27,5,5,0,0,0,.12-.58c.72-3.65.48-10.1-.06-16.52h1l5.14.71a7.59,7.59,0,0,1,.71.69c.26.23.53.49.79.75l.32.3c.48.47,1,.94,1.44,1.42L193,286.3c.89.9,1.76,1.8,2.6,2.68l.24.23c.23.26.47.51.71.77l.47.52.39.43.87.93c.53.59,1.05,1.21,1.55,1.78,0,.05.08.07.11.13.42.46.79.92,1.15,1.36a7,7,0,0,0,.66.7,4.23,4.23,0,0,0,.76.69s0,0,.06,0l0,.05a18,18,0,0,0,1.76,1.21.27.27,0,0,0,.11.05,22,22,0,0,0,3.26,1.6.3.3,0,0,0,.21.07,34.8,34.8,0,0,0,3.7,1.29c.14,0,.24.08.37.1,1.82.52,3.74,1,5.65,1.37a137.94,137.94,0,0,0,17.85,2.16c.24,0,.43,0,.61,0l.68,0h0v0c.47,0,6.15-.23,13-1.21A83,83,0,0,0,261.16,301a36.68,36.68,0,0,0,6.7-2.46l.53-.29.53-.3c.85,1.29,1.8,2.58,2.73,3.9-24.9,14.21-33.86,22.47-66.53,16.86-10.37,25.22,20.61,69.26,39.16,77C208.17,393.88,195.13,381.66,190,379Z" />
        <path d="M322.78,388.53s11.39,46,9.89,65.71c9.16,0,8.3-1.13,8.3-1.13s6.28-29.1,1.56-49.2c-.7,23.24-4.89,36.7-4.89,36.7s1.23-54.53-6-69.38c3.58,33,1.31,46.66,1.31,46.66S328.37,394.82,322.78,388.53Z" />
      </g>
      <path class="GUNDAN_RED_PANDA_BODY_GUNDAN_RED_PANDA_BODY_29_cls-4" d="M268.93,298c.85,1.29,1.8,2.58,2.73,3.9,5.16,7.34,10,9.7,15.17,12.25,11.37,5.61,23.44,9.44,35,14.59s22.87,11.82,31.05,21.93c7.15,8.85,11.52,19.81,15.55,30.66q10.85,29.12,19.61,59,1.88,6.38,3.65,12.8H52q1.89-6.42,3.88-12.8,9.33-29.9,20.86-59c4.29-10.85,8.93-21.81,16.54-30.66,8.7-10.11,20.72-16.78,33-21.93s25.47-8.32,37.24-14.59c3.92-2.09,16.46-9.45,18.61-15.53,0,0,2.6-5.4.75-16.81" />
      <path class="GUNDAN_RED_PANDA_BODY_GUNDAN_RED_PANDA_BODY_29_cls-4" d="M134.74,401.25a273.14,273.14,0,0,0-5.86,51.86" />
      <path class="GUNDAN_RED_PANDA_BODY_GUNDAN_RED_PANDA_BODY_29_cls-4" d="M128.08,453.11,123.85,405l.58,1.62" />
      <path class="GUNDAN_RED_PANDA_BODY_GUNDAN_RED_PANDA_BODY_29_cls-4" d="M335.21,453.11a272.32,272.32,0,0,0-5.08-51.9" />
      <path class="GUNDAN_RED_PANDA_BODY_GUNDAN_RED_PANDA_BODY_29_cls-4" d="M340.36,406.77c.21-.54.41-1.08.61-1.62l-5,48" />
      <path class="GUNDAN_RED_PANDA_BODY_GUNDAN_RED_PANDA_BODY_29_cls-5" d="M169,162.29a102.36,102.36,0,0,1,47.44-18.63c28.25-3.37,40.83,1.1,51.87,4.78s22.36,11.77,22.36,11.77,19.12-11.25,28.65-10.38,11.24,10.09,9.72,21.81-11.55,28.86-11.55,28.86l-.24,3.16,1,3.65s8.67,9.08,14.09,10.69c-5.23,2.71-9.62,4.72-9.62,4.72s9.75,9.48,16.65,10.75c-4.31,7.81-9.52,14.88-18.61,23.25S287.61,280,287.61,280s-6.72,4.74-10,9.61S266.87,302,245,304s-39.13-3.28-44.18-8.72a181.24,181.24,0,0,0-14.28-13,89.76,89.76,0,0,1-26.61-4.88c-13-4.77-27.31-12.8-36.18-22.74a218.49,218.49,0,0,1-16.47-21.38l16.24-11-9.09-4.56s12.45-6.75,15.93-13c-6.46-16.44-12.65-40.83-7.76-49.09s14.17-7.31,25.29-3.16A167.66,167.66,0,0,1,169,162.29Z" />
      <path class="GUNDAN_RED_PANDA_BODY_GUNDAN_RED_PANDA_BODY_29_cls-6" d="M208.07,236.8s-.68-27.87-31.56-24.42C173.36,228.89,183.3,244.33,208.07,236.8Z" />
      <path class="GUNDAN_RED_PANDA_BODY_GUNDAN_RED_PANDA_BODY_29_cls-6" d="M273,236.8s.67-27.87,31.56-24.42C307.69,228.89,297.75,244.33,273,236.8Z" />
      <path class="GUNDAN_RED_PANDA_BODY_GUNDAN_RED_PANDA_BODY_29_cls-6" d="M286.55,280.17s-10.82-29.88-37.43-34.11-48.81,24.61-48.81,24.61l-9.66,13.66s9.93,9.6,12.18,12.66,24.08,7.3,39.57,7.12,27-6,30.12-9S284.34,281.06,286.55,280.17Z" />
      <path class="GUNDAN_RED_PANDA_BODY_GUNDAN_RED_PANDA_BODY_29_cls-6" d="M140,266.91s6.82-20.05,23.86-21.27l14.11-.46s-7.3,4.39-9.77,17.25-1.64,16-1.64,16S150,275.76,140,266.91Z" />
      <path class="GUNDAN_RED_PANDA_BODY_GUNDAN_RED_PANDA_BODY_29_cls-6" d="M291.92,245.13s13.57-2.18,21,2.69,9.29,6.32,9.29,6.32-9.86,10.67-18.15,15.1c-2.39-8.58-4-18.27-11.15-21.66C290.1,246.15,291.92,245.13,291.92,245.13Z" />
      <path class="GUNDAN_RED_PANDA_BODY_GUNDAN_RED_PANDA_BODY_29_cls-7" d="M249.3,263.49s14.94,4.4,14.11,12.74-5.6,14-17.35,9.86c-9.58,2.75-13.71.76-16.08-5.89s1.07-10.21,6.75-13.36a36.91,36.91,0,0,1,9.89-3.94Z" />
      <path class="GUNDAN_RED_PANDA_BODY_GUNDAN_RED_PANDA_BODY_29_cls-6" d="M292.7,230.83c-1.11,7.11-6.85,10.92-19.75,6a20.89,20.89,0,0,1,1.11-4.19,11.64,11.64,0,0,1,.46-1.19c.21-.43.41-.87.64-1.34A17.52,17.52,0,0,1,278,226a4.57,4.57,0,0,1,.44-.44c.1-.1.23-.23.33-.31a14.49,14.49,0,0,1,1.5-1.15,7.12,7.12,0,0,1,.8-.49,12.6,12.6,0,0,1,1.82-.83,8.55,8.55,0,0,1,1-.33c.57-.14,1.16-.25,1.79-.34s1-.1,1.5-.12h.08a16,16,0,0,1,1.83,0,22.18,22.18,0,0,1,3.24.52A23.69,23.69,0,0,1,292.7,230.83Z" />
      <path class="GUNDAN_RED_PANDA_BODY_GUNDAN_RED_PANDA_BODY_29_cls-6" d="M284.51,223.49a7.42,7.42,0,1,1-7.42,7.42A7.42,7.42,0,0,1,284.51,223.49Z" />
      <path class="GUNDAN_RED_PANDA_BODY_GUNDAN_RED_PANDA_BODY_29_cls-8" d="M292.7,230.83c-1.11,7.11-6.85,10.92-19.75,6a20.89,20.89,0,0,1,1.11-4.19,11.64,11.64,0,0,1,.46-1.19c.21-.43.41-.87.64-1.34A17.52,17.52,0,0,1,278,226a4.57,4.57,0,0,1,.44-.44c.1-.1.23-.23.33-.31a14.49,14.49,0,0,1,1.5-1.15,7.12,7.12,0,0,1,.8-.49,12.6,12.6,0,0,1,1.82-.83,8.55,8.55,0,0,1,1-.33,15.05,15.05,0,0,1,3.37-.47,16,16,0,0,1,1.83,0,22.18,22.18,0,0,1,3.24.52A23.69,23.69,0,0,1,292.7,230.83Z" />
      <path class="GUNDAN_RED_PANDA_BODY_GUNDAN_RED_PANDA_BODY_29_cls-9" d="M283.41,223.49a7.42,7.42,0,1,0,7.42,7.42A7.42,7.42,0,0,0,283.41,223.49Z" />
      <circle cx="282.57" cy="230.91" r="3.59" />
      <circle class="GUNDAN_RED_PANDA_BODY_GUNDAN_RED_PANDA_BODY_29_cls-6" cx="284.53" cy="227.73" r="1.63" />
      <circle class="GUNDAN_RED_PANDA_BODY_GUNDAN_RED_PANDA_BODY_29_cls-8" cx="283.41" cy="230.91" r="7.42" />
      <path class="GUNDAN_RED_PANDA_BODY_GUNDAN_RED_PANDA_BODY_29_cls-6" d="M208.07,236.8c-13.11,5-18.8,1-19.83-6.28v-.05a25.1,25.1,0,0,1,.44-8,22.18,22.18,0,0,1,3.24-.52,16,16,0,0,1,1.83,0h.08c.52,0,1,.06,1.51.12s1.22.2,1.79.34c.33.1.66.2,1,.33a12.36,12.36,0,0,1,1.8.83,12,12,0,0,1,2.89,2.21,1.54,1.54,0,0,1,.2.18c.31.34.62.7.9,1.06a.92.92,0,0,1,.23.31,10.72,10.72,0,0,1,.91,1.28s0,0,0,0c.23.38.46.8.67,1.18.05.08.08.16.13.23.23.47.44.91.62,1.34a11.64,11.64,0,0,1,.46,1.19,5.51,5.51,0,0,1,.26.74c.26.8.46,1.52.59,2.09.05.28.1.51.15.72a.09.09,0,0,1,0,.08C208,236.6,208.07,236.8,208.07,236.8Z" />
      <path class="GUNDAN_RED_PANDA_BODY_GUNDAN_RED_PANDA_BODY_29_cls-6" d="M196.53,223.49a7.42,7.42,0,1,0,7.42,7.42A7.42,7.42,0,0,0,196.53,223.49Z" />
      <path class="GUNDAN_RED_PANDA_BODY_GUNDAN_RED_PANDA_BODY_29_cls-8" d="M208.09,236.8h0c-13.11,5-18.8,1-19.83-6.28v-.05a25.1,25.1,0,0,1,.44-8,22.18,22.18,0,0,1,3.24-.52,16,16,0,0,1,1.83,0,15.15,15.15,0,0,1,3.38.47c.33.1.66.2,1,.33a12.36,12.36,0,0,1,1.8.83,12,12,0,0,1,2.89,2.21,1.54,1.54,0,0,1,.2.18c.31.34.62.7.9,1.06a.92.92,0,0,1,.23.31,10.72,10.72,0,0,1,.91,1.28s0,0,0,0c.23.38.46.8.67,1.18.05.08.08.16.13.23.23.47.44.91.62,1.34a11.64,11.64,0,0,1,.46,1.19,5.51,5.51,0,0,1,.26.74,15.18,15.18,0,0,1,.59,2.09c.05.28.1.51.15.72a.09.09,0,0,1,0,.08A5.33,5.33,0,0,1,208.09,236.8Z" />
      <path class="GUNDAN_RED_PANDA_BODY_GUNDAN_RED_PANDA_BODY_29_cls-9" d="M195.65,223.49a7.42,7.42,0,1,0,7.42,7.42A7.42,7.42,0,0,0,195.65,223.49Z" />
      <circle cx="195.65" cy="230.91" r="3.59" />
      <circle class="GUNDAN_RED_PANDA_BODY_GUNDAN_RED_PANDA_BODY_29_cls-6" cx="193.7" cy="227.73" r="1.63" />
      <circle class="GUNDAN_RED_PANDA_BODY_GUNDAN_RED_PANDA_BODY_29_cls-8" cx="195.65" cy="230.91" r="7.42" />
      <g class="GUNDAN_RED_PANDA_BODY_GUNDAN_RED_PANDA_BODY_29_cls-3">
        <path d="M140,185.21a31.41,31.41,0,0,0,2.68,10s8.92-9.37,17.73-11.61c-8.34-8.34-12.72-17.32-15.87-19.65s-8.7-4-8.7-4,4.16,7.18,4.93,13.84c-3.84-2.9-6.14-3.11-6.14-3.11S139.22,178.81,140,185.21Z" />
        <path class="GUNDAN_RED_PANDA_BODY_GUNDAN_RED_PANDA_BODY_29_cls-10" d="M187.78,281.86h-.52A80.16,80.16,0,0,1,166,279c-2-.51-4-1.13-6.07-1.8-1.76-.6-3.56-1.25-5.35-2h0c-2.86-1.12-5.74-2.37-8.65-3.82a1.66,1.66,0,0,1-.27-.13c-1.49-.71-3-1.5-4.54-2.35-.82-.42-1.63-.87-2.47-1.34s-1.61-.92-2.42-1.4A.63.63,0,0,1,136,266c-1.14-.66-2.28-1.37-3.42-2.09a66.78,66.78,0,0,1-22.66-24.1c-.05-.08-.1-.18-.16-.27a6.36,6.36,0,0,1-.32-.64,43.41,43.41,0,0,1-2.32-5,.12.12,0,0,1,0-.06c-.11-.24-.17-.43-.22-.56l-.08-.24s3.91-2,8.13-4.65v0a48,48,0,0,0,7.37-5.47.27.27,0,0,0,.16-.17,9.19,9.19,0,0,0,1.11-1.18,2.56,2.56,0,0,0,.28-.3l-1.25-.45c-.41-.13-.79-.28-1.15-.41-.73-.26-1.38-.52-2-.73-.79-.31-1.47-.6-2-.86a8,8,0,0,1-.76-.35,18.25,18.25,0,0,1-1.94-1l-.24-.15c-.33-.24-.35-.35-.35-.35h0l0,0c.35-.22,2.67-1.53,5.6-3.39,0,0,.06,0,.08-.06l3.27-2.1a.62.62,0,0,1,.19-.14c.27-.2.57-.39.84-.56v0a62.24,62.24,0,0,0,8.57-6.8c-1.28,1.7-3.05,4-4.82,6.2-2.2,2.85-4.38,5.54-5.38,6.55,9.38,3.22,20.58-10.55,21.37-11.51-.41.87-7.12,14.9-13.49,19,9.55,2.32,13.3-4.3,17.13-7.8,3.24-2.92-7.26,15.78-7.26,15.78l14.52.62a.75.75,0,0,1,.3,0s0,0,.06,0h0l0,0,0,0h.08v0a23.12,23.12,0,0,0,6.09,14.92l0,0a20.72,20.72,0,0,0,2.26,2.08,25.16,25.16,0,0,0,7.31,4v0c1,8.14,2.86,14,6.74,19.06v0l.09.08a39,39,0,0,0,8.07,7.57c.06,0,.08.08.14.11C186.61,281,187.18,281.46,187.78,281.86Z" />
        <path d="M289.7,160l-.23.16-.87.54-.2.13-.69.42c-.3.2-.61.4-.89.56a1.74,1.74,0,0,1-.3.2l-.38.22s-4.63-3.19-24-10.72c-.59-.24-1.2-.5-1.83-.73a44.8,44.8,0,0,0-5.14-1.63c-19.5-5.21-47.54-2.34-47.54-2.34a143.4,143.4,0,0,1,28.35,3c-34.76-.6-63.67,13.53-64.79,14.09a.05.05,0,0,1-.07,0,.45.45,0,0,1-.31-.18l-.07-.08a6.55,6.55,0,0,1-1.05-1.91l.61-.39c.46-.31,1-.64,1.66-1l1-.61c.41-.25.84-.51,1.3-.76,2-1.15,4.5-2.47,7.47-3.86,1.15-.56,2.29-1,3.46-1.55s2.06-.91,3.15-1.34,2.32-.94,3.49-1.34q2.94-1.06,6.15-2.07a117.74,117.74,0,0,1,44-4.29c.74.07,1.45.14,2.16.23s1.53.16,2.29.25c3.53.45,6.92,1,10.07,1.73,2.57.58,5,1.21,7.3,1.87,3.68,1,7,2.22,10,3.38,1,.42,1.93.78,2.85,1.17,1.5.64,2.85,1.24,4.09,1.84.36.16.71.34,1.07.52a3.38,3.38,0,0,1,.46.24,2,2,0,0,1,.4.18s0,0,.06,0a.07.07,0,0,1,.07,0c.31.18.61.34.92.49.53.27,1,.55,1.47.79,1.48.84,2.62,1.52,3.38,2l.56.37s.05,0,.08,0l.33.24A.46.46,0,0,1,289.7,160Z" />
        <path class="GUNDAN_RED_PANDA_BODY_GUNDAN_RED_PANDA_BODY_29_cls-10" d="M339,233.35s-5.55,11.24-12.44,17.05S306,268.8,306,268.8L294.18,276l-.44.21a48.85,48.85,0,0,1-8.11,5.67h-.34c.37-.4.74-.83,1.1-1.23,0,0,.05-.08.09-.1,3-8.83,9.49-17,8.7-26.74v0a15.35,15.35,0,0,0,4.69-4,16.55,16.55,0,0,0,1.41-2.08l0,0c3.73-6.41,3.4-14.32,3.38-14.92v0h.06l0,0v0h0s0,0,0,0a.65.65,0,0,1,.2,0l9.65-.63s-5.48-12.16-2.37-10.12,4.85,2.6,8.58,2.14c-4.42-4.05-5.06-11.69-5.37-12.57.57,1,8,7.15,10.29,5.14-.48-.69-1.35-2.13-2.37-3.87l6.8,4.59.23.64-.65.48a4,4,0,0,1-.5.34c-.37.27-.8.55-1.31.87l-1.28.73-.59.34-4.26,1.8,9.69,6.76,1.31.37c1.08.91,2.06,1.7,2.79,2.3Z" />
        <path class="GUNDAN_RED_PANDA_BODY_GUNDAN_RED_PANDA_BODY_29_cls-10" d="M263,273.54s-14.18,9.28-33.22,0c-13.22,5.79-25.94,2.21-31-1.66a73.1,73.1,0,0,0-9.5,13s10.28,7.68,12.43,10.75,11.9,6.14,23.15,8.2,27.45-.06,33.66-2A107.67,107.67,0,0,0,270.82,297l12.23-12.92,3.12-4.58-3.64-7.61S273,278.11,263,273.54Z" />
      </g>
      <g class="GUNDAN_RED_PANDA_BODY_GUNDAN_RED_PANDA_BODY_29_cls-11">
        <path class="GUNDAN_RED_PANDA_BODY_GUNDAN_RED_PANDA_BODY_29_cls-6" d="M179.83,167.9s-45.43-20.41-57-9.87c3.29-7.43,6.8-9.61,15.72-7.88S166.82,157.87,179.83,167.9Z" />
        <path class="GUNDAN_RED_PANDA_BODY_GUNDAN_RED_PANDA_BODY_29_cls-6" d="M138.72,198.55s5.46-1.72,7-1.52-7.17,9.18-12.33,11.87-7.91,2.38-7.91,2.38S136.9,202.91,138.72,198.55Z" />
        <path class="GUNDAN_RED_PANDA_BODY_GUNDAN_RED_PANDA_BODY_29_cls-6" d="M279.8,167.9s39.14-20.41,49.1-9.87c-2.84-7.43-5.86-9.61-13.55-7.88S291,157.87,279.8,167.9Z" />
        <path class="GUNDAN_RED_PANDA_BODY_GUNDAN_RED_PANDA_BODY_29_cls-6" d="M317.05,202.16l.54,3.91c-4.61-3.67-9.35-8.89-8.19-9,1.5-.2,7,1.53,7,1.53C316.83,199.67,315.67,200.71,317.05,202.16Z" />
        <path class="GUNDAN_RED_PANDA_BODY_GUNDAN_RED_PANDA_BODY_29_cls-6" d="M261.68,271.09s-11.52-4.78-14.1-5.47c-5.76.92-18,8.5-17.51,6.6s13.24-9.37,16.29-9.63l3-.26S258.2,267.3,261.68,271.09Z" />
        <g class="GUNDAN_RED_PANDA_BODY_GUNDAN_RED_PANDA_BODY_29_cls-11">
          <path class="GUNDAN_RED_PANDA_BODY_GUNDAN_RED_PANDA_BODY_29_cls-6" d="M292.77,162.21l-1,.67a5.27,5.27,0,0,0-.49-.3,2,2,0,0,0-.26-.16,7,7,0,0,0-.7-.43c-.64-.38-1.52-.89-2.58-1.46a.25.25,0,0,0-.13-.05c-.65-.35-1.37-.73-2.15-1.11a.1.1,0,0,0-.07,0s0-.06-.06-.06a3,3,0,0,0-.41-.19,5.06,5.06,0,0,0-.46-.24c-.37-.19-.73-.38-1.09-.54-1.27-.62-2.64-1.24-4.16-1.91-.93-.41-1.89-.79-2.9-1.22-3-1.16-6.41-2.37-10.19-3.48-2.32-.7-4.8-1.37-7.42-2a117.36,117.36,0,0,0-12.51-2.32c-.72-.11-1.45-.19-2.2-.27-3.72-.44-7.62-.73-11.68-.84a111.46,111.46,0,0,0-33.07,4.26c-2.17.62-4.27,1.27-6.26,1.94-1.19.38-2.38.84-3.54,1.27s-2.17.84-3.21,1.27c-1.19.48-2.35.94-3.51,1.48-3,1.32-5.56,2.59-7.6,3.7q-.71.36-1.32.72c-.37.22-.73.41-1,.6-.64.35-1.21.67-1.68,1-.23.13-.44.27-.62.38a11.58,11.58,0,0,0-1,.62c.11-.27,1.09-2.4,4.48-5.26,3.74-3.18,10.47-7.26,22.31-10.68.15-.06.28-.08.41-.14a117.13,117.13,0,0,1,21.72-3.93c3.08-.3,6.1-.44,9.08-.49,1.57,0,3.12,0,4.68,0h0c1.16,0,2.3.05,3.44.11a118.77,118.77,0,0,1,24.59,3.5h0c.06,0,.11,0,.16.06a68,68,0,0,1,7.26,2.34,141,141,0,0,1,25,13A1,1,0,0,1,292.77,162.21Z" />
        </g>
      </g>
      <path class="GUNDAN_RED_PANDA_BODY_GUNDAN_RED_PANDA_BODY_29_cls-6" d="M139.53,150.2c-2.27-2.42-6.89-6.71-12.3-8-.4,4.06-.47,4.88-.47,4.88s-14-3-15.15,1.44c.53,4.31,2.16,5.53,2.16,5.53l-.41,6.43a22.69,22.69,0,0,1,7.49,7.15l.15.23c.14,2.23.38,4.64.7,7.27,1.86,15.44,8.82,30.53,8.82,30.53s3.3-3,8.19-7.63c-10.08-11.83-7.87-28-7.87-28l-2-4.19L136,165s0-.48-1.36-5.52c3.57.2,13.61,6.79,17.84,14s7,10.31,14.65,10.07c9.14-2.8,11.58-15.37,11.58-15.37s-8.26-5-17.61-9.9C154.67,155,146.88,151.56,139.53,150.2Z" />
      <path class="GUNDAN_RED_PANDA_BODY_GUNDAN_RED_PANDA_BODY_29_cls-6" d="M336.94,147.72c-1.28-2.33-12.57-1.45-12.57-1.45s.85-2.67-.72-4.05c-2.06.39-6.41,5.2-8.91,8.14a52.31,52.31,0,0,0-18.18,6.56c-7.42,4.5-16.93,11-16.93,11s1.64,15.55,13.92,15.38c5.82-5.33,8.53-12.37,13.36-17.55a19.5,19.5,0,0,1,10.24-6l-.79,5s6.18,1,6.42,1.06-1.7,4.36-1.7,4.66A20.65,20.65,0,0,1,321,183a133.37,133.37,0,0,1-6.9,14.92s1.56,3.31,1.63,3.43a39,39,0,0,0,9.3-15.44,94.67,94.67,0,0,0,3.65-18h0c2.35-5.11,6.51-6.08,7.29-7.18s.21-6.36.21-6.76S338.22,150.05,336.94,147.72Z" />
      <path class="GUNDAN_RED_PANDA_BODY_GUNDAN_RED_PANDA_BODY_29_cls-12" d="M138.3,198.31s17.54-15.58,23.89-14.57c-7.17-3.76-8.26-7.11-12.14-13.44s-14.63-10.67-14.63-10.67l.49,5.44-7.25,1.58,2.53,3.2s-.47,13,1.18,16.87S136.09,195.66,138.3,198.31Z" />
      <path class="GUNDAN_RED_PANDA_BODY_GUNDAN_RED_PANDA_BODY_29_cls-12" d="M314.1,198.31s7-13.64,7.29-16.54.22-12.76.22-12.76l.9-2.27-2.58-.79-4.18-1.24.4-4.75s-6.72.73-10.43,6.39-7.87,13.69-8.33,14-3.84,2.95-3.84,2.95A38.43,38.43,0,0,1,314.1,198.31Z" />
      <path class="GUNDAN_RED_PANDA_BODY_GUNDAN_RED_PANDA_BODY_29_cls-4" d="M189.26,284.85c.58-.83,2.17-2.93,2.84-3.81.44-.64.92-1.32,1.46-2s1.16-1.58,1.79-2.4,1.23-1.57,1.9-2.35,1.32-1.61,2.06-2.45a.79.79,0,0,1,.21-.27.75.75,0,0,1,.2-.21l.59-.71c1.11-1.26,2.26-2.53,3.51-3.79.91-.92,1.84-1.89,2.8-2.81a72.62,72.62,0,0,1,20.66-14.35c.68-.3,1.36-.57,2.07-.85s1.37-.53,2.09-.75c1.38-.46,2.78-.87,4.19-1.22a4.56,4.56,0,0,0,.64-.14c.54-.11,1-.19,1.59-.31l.36-.06c1.25-.19,2.48-.35,3.75-.45a1.47,1.47,0,0,0,.28,0c.72,0,1.46-.06,2.2-.08s1.48,0,2.23,0a43,43,0,0,1,4.35.42,40.77,40.77,0,0,1,5.88,1.47c1.24.43,2.41.92,3.57,1.45a37.52,37.52,0,0,1,6.33,3.74l1.45,1.09c.8.64,1.58,1.31,2.32,2l.36.32a55,55,0,0,1,4.72,5.11c.59.73,1.18,1.49,1.72,2.25.31.41.61.83.89,1.24a43.7,43.7,0,0,1,2.57,4,.31.31,0,0,1,.12.14,1.35,1.35,0,0,1,.15.26,81.8,81.8,0,0,1,4.19,8.08c.31.7.59,1.37.87,2l.1.25" />
      <path class="GUNDAN_RED_PANDA_BODY_GUNDAN_RED_PANDA_BODY_29_cls-4" d="M231.34,142.64s-1,0-2.63.06h-.13c-.77,0-1.7.05-2.78.12h-.13c-.26,0-.56,0-.85.06-1.59.07-3.42.23-5.46.43a129.28,129.28,0,0,0-22.16,4.23c-.13.05-.26.07-.42.12a78.25,78.25,0,0,0-22.22,10.2,56.23,56.23,0,0,0-5.61,4.4" />
      <path class="GUNDAN_RED_PANDA_BODY_GUNDAN_RED_PANDA_BODY_29_cls-4" d="M167.39,183.52s-8,3.62-14-8.54-18.9-16.27-18.9-16.27l2.3,6.24-8.54,1,2.79,3.62s-1.81,11.83,2.14,18.24" />
      <path class="GUNDAN_RED_PANDA_BODY_GUNDAN_RED_PANDA_BODY_29_cls-4" d="M139.32,150.21c6.79,1.29,14.42,4.38,21.14,7.65l1.69.85c2.45,1.18,4.72,2.42,6.78,3.55,0,0,0,0,0,0l.36.2c.26.16.52.28.77.41l2.09,1.21.23.16h0a1.16,1.16,0,0,1,.2.13c.36.2.7.41,1,.56.49.31,1,.6,1.39.85,2.42,1.47,3.86,2.42,3.86,2.42" />
      <path class="GUNDAN_RED_PANDA_BODY_GUNDAN_RED_PANDA_BODY_29_cls-4" d="M121.17,170.09c.07.69.16,1.39.25,2.11.47,3.35,1.16,6.82,2,10.22a193.94,193.94,0,0,0,7.16,22.86,2.68,2.68,0,0,0,.13.34" />
      <path class="GUNDAN_RED_PANDA_BODY_GUNDAN_RED_PANDA_BODY_29_cls-4" d="M186,281.55l-2.66-.37h-.26a65.33,65.33,0,0,1-8.83-.61c-1-.13-2-.28-3-.44-1.37-.23-2.7-.49-4-.79-.88-.19-1.73-.39-2.58-.62a.47.47,0,0,1-.21-.06h0l-.31-.08c-2.27-.58-4.48-1.28-6.61-2.05-.34-.11-.67-.24-1-.36l-.1,0c-1.52-.57-3-1.16-4.45-1.83l-.16-.08h0c-1.11-.49-2.18-1-3.27-1.54-.66-.31-1.31-.64-1.92-1-1-.49-1.88-1-2.81-1.54a1.26,1.26,0,0,1-.26-.13c-.64-.36-1.29-.75-1.9-1.13s-.93-.55-1.4-.85c-1-.6-2-1.26-3-1.91a94.08,94.08,0,0,1-9.33-7.11c-.31-.25-.61-.54-.9-.79-.44-.39-.88-.8-1.32-1.18h0v0c-1-.9-1.93-1.78-2.85-2.68s-1.91-1.93-2.79-2.89l-1.59-1.72c-1.91-2.08-3.61-4.15-5.13-6.1s-2.75-3.74-3.86-5.43Q107.9,236,106.9,234a.06.06,0,0,1,0,0l-.28-.51.08,0a39.88,39.88,0,0,0,7.26-3.87c5.28-3.32,10.61-7.41,10.61-7.41s-2,.07-5.9-1.57a39.9,39.9,0,0,1-5-2.58l0,0a17.19,17.19,0,0,0,2.75-1.28s0,0,.06,0,0,0,0-.05a50.3,50.3,0,0,0,5.61-3.78.73.73,0,0,1,.18-.14c.31-.22.6-.46.9-.69v0c.44-.34.88-.68,1.32-1,1.26-1,2.49-2.08,3.71-3.14a.83.83,0,0,1,.14-.13c.8-.72,1.58-1.38,2.32-2.08h0c.77-.69,1.5-1.34,2.19-2l.08-.08,0,0c2-1.81,3.56-3.33,4.48-4.28,0,0,.06,0,.08,0a3.19,3.19,0,0,0,.26-.26c.13-.1.23-.23.33-.31l.34-.33" />
      <path class="GUNDAN_RED_PANDA_BODY_GUNDAN_RED_PANDA_BODY_29_cls-4" d="M291.26,160.21h0a53.84,53.84,0,0,0-4.81-3.43q-2.22-1.42-4.54-2.65c-.77-.41-1.54-.83-2.34-1.18-1.52-.75-3-1.45-4.61-2.09a.44.44,0,0,1-.15-.05c-2.17-.91-4.35-1.68-6.54-2.37-.72-.23-1.45-.47-2.16-.67-1.14-.36-2.27-.67-3.38-1-.61-.16-1.24-.34-1.85-.47a.12.12,0,0,0-.08,0c-1.57-.39-3.11-.75-4.64-1-3.36-.7-6.58-1.21-9.49-1.58-1.76-.23-3.4-.4-4.92-.54-6-.56-9.92-.54-10.38-.54h0" />
      <path class="GUNDAN_RED_PANDA_BODY_GUNDAN_RED_PANDA_BODY_29_cls-4" d="M293.72,183.28a29.81,29.81,0,0,0,7.25-9,30.84,30.84,0,0,1,17.16-15.56l-2.3,6.24,8.54,1-2.79,3.62s1.81,11.83-2.14,18.24" />
      <path class="GUNDAN_RED_PANDA_BODY_GUNDAN_RED_PANDA_BODY_29_cls-4" d="M286.55,280.59h0A276.77,276.77,0,0,0,315,261.66l.26-.21c1-.78,2-1.59,2.91-2.41.3-.25.61-.54.89-.79.45-.39.85-.75,1.27-1.16h0c1-.91,1.95-1.8,2.88-2.73.59-.57,1.16-1.14,1.69-1.7,2.23-2.29,4.23-4.55,6-6.74.91-1.12,1.76-2.22,2.56-3.28,0-.07.11-.15.15-.22A66.05,66.05,0,0,0,339,234a2.65,2.65,0,0,0,.29-.52l-.08,0a47.14,47.14,0,0,1-8.34-4.53c-4.89-3.22-9.5-6.74-9.5-6.74s3.22.13,9.5-3.32c.28-.18.6-.34.9-.52l.55-.3s0,0-.06,0c-11.53-5.59-18-19.69-18-19.69" />
      <path class="GUNDAN_RED_PANDA_BODY_GUNDAN_RED_PANDA_BODY_29_cls-13" d="M317.05,201c8.36-11.09,11.55-25.49,11.95-28.83.08-.72.16-1.42.22-2.11" />
      <path class="GUNDAN_RED_PANDA_BODY_GUNDAN_RED_PANDA_BODY_29_cls-13" d="M314.59,150l-.79.15a1,1,0,0,0-.25.06c-5.87,1.28-12.44,4.38-18.24,7.64l-1.48.85c-.89.5-1.75,1-2.57,1.51h0c-1.14.7-2.24,1.39-3.27,2a0,0,0,0,1,0,0l-.3.2a6,6,0,0,1-.67.41c-.64.44-1.24.83-1.8,1.22l-.2.15h0c-.06,0-.13.07-.16.13-.32.2-.61.41-.87.57l-1.21.85c-2.09,1.46-3.33,2.41-3.33,2.41" />
      <path class="GUNDAN_RED_PANDA_BODY_GUNDAN_RED_PANDA_BODY_29_cls-4" d="M121.17,170.09c-1.25-8.39-8.71-8.3-8.18-10.75s1.48-6,.87-6.08-4.37-4-1-6.24,14.24-.09,14.24-.09-1.92-5.41,1.31-4.71c4.9,1.49,11,8,11,8" />
      <path class="GUNDAN_RED_PANDA_BODY_GUNDAN_RED_PANDA_BODY_29_cls-14" d="M314.59,150c.91-1.12,5.38-6.45,9.06-7.78,2.73-.7,1.11,4.71,1.11,4.71s9.2-2.18,12,.09-.37,6.2-.89,6.24.3,3.63.74,6.08-6.34,2.36-7.39,10.75" />
      <path class="GUNDAN_RED_PANDA_BODY_GUNDAN_RED_PANDA_BODY_29_cls-4" d="M177.22,272.25s3.93,4.37,8.77,9.31c1,1.08,2.16,2.19,3.27,3.29a86.15,86.15,0,0,0,10.42,9.07c5.34,3.57,15,11.69,45.36,10.39,19.26-.82,34.26-13.85,41.7-23.34l.69-.9a65.35,65.35,0,0,0,5.21-7.82" />
      <path class="GUNDAN_RED_PANDA_BODY_GUNDAN_RED_PANDA_BODY_29_cls-4" d="M247.29,286.08c-4.84,2.5-9.93,1.88-12.89-.18a11.11,11.11,0,0,1-2.32-2.11c-.08-.1-.18-.2-.26-.31a7.23,7.23,0,0,1-.69-1,7.74,7.74,0,0,1-.75-1.39,11.24,11.24,0,0,1-1-3.21c0-.29-.08-.6-.1-.88a8.42,8.42,0,0,1,.2-2.81v0c.08-.21.13-.41.21-.62v0a4.86,4.86,0,0,1,.64-1.41c4-6.33,15-9.14,15-9.14" />
      <path d="M232.08,283.79h0l-.23-.31a7.23,7.23,0,0,1-.69-1,7.74,7.74,0,0,1-.75-1.39,11.24,11.24,0,0,1-1-3.21c0-.29-.08-.6-.1-.88a8.42,8.42,0,0,1,.2-2.81v0a4.43,4.43,0,0,1,.18-.65l0,0c2.06,2.19,5.74,5.54,9,5.54C243.15,279.11,240.45,286.32,232.08,283.79Z" />
      <path d="M260.55,283.79c-8.39,2.55-11.07-4.68-6.56-4.68,3.24,0,6.95-3.38,9-5.57C264.06,276.63,263.05,280.78,260.55,283.79Z" />
      <path class="GUNDAN_RED_PANDA_BODY_GUNDAN_RED_PANDA_BODY_29_cls-4" d="M245.32,263s13,2.81,17,9.14a4.61,4.61,0,0,1,.64,1.41c1.09,3.09.08,7.24-2.42,10.25a11.31,11.31,0,0,1-2.31,2.11c-3,2.06-6.08,2.68-10.92.18" />
      <path class="GUNDAN_RED_PANDA_BODY_GUNDAN_RED_PANDA_BODY_29_cls-15" d="M246.31,293.56a15.4,15.4,0,0,0,9.75,1.24c5.91-1.24,7.35-5.28,7.35-5.28" />
      <path class="GUNDAN_RED_PANDA_BODY_GUNDAN_RED_PANDA_BODY_29_cls-15" d="M246.31,293.56a15.4,15.4,0,0,1-9.75,1.24c-5.91-1.24-7.34-5.28-7.34-5.28" />
      <path class="GUNDAN_RED_PANDA_BODY_GUNDAN_RED_PANDA_BODY_29_cls-16" d="M246.29,293.62s3.2-10.46,0-21.1" />
      <path class="GUNDAN_RED_PANDA_BODY_GUNDAN_RED_PANDA_BODY_29_cls-4" d="M208.07,236.8s-.68-27.87-31.56-24.42C173.36,228.89,183.3,244.33,208.07,236.8Z" />
      <path class="GUNDAN_RED_PANDA_BODY_GUNDAN_RED_PANDA_BODY_29_cls-4" d="M273,236.8s.67-27.87,31.56-24.42C307.69,228.89,297.75,244.33,273,236.8Z" />
      <path class="GUNDAN_RED_PANDA_BODY_GUNDAN_RED_PANDA_BODY_29_cls-4" d="M166,279s0-.22-.06-.63c-.28-3-1.08-15.92,4.41-24.82a18.65,18.65,0,0,1,3.41-4.16h0a17,17,0,0,1,7.38-3.91c-1.09-.1-2.14-.19-3.16-.25h0a63.91,63.91,0,0,0-14.09.46c-1.26.2-2.45.45-3.57.74a29.27,29.27,0,0,0-6.08,2.3l-.15.08c-7.52,4-11.12,10.73-15.09,18.41a.61.61,0,0,1-.07.14" />
      <path class="GUNDAN_RED_PANDA_BODY_GUNDAN_RED_PANDA_BODY_29_cls-4" d="M303.19,270.12c-.52-8.89-3.4-21.68-15.32-24.69,19.56-1.84,28.67,2.41,34.69,9.55" />
    </g>
  </g>
</svg>