<svg id="Jewellry" xmlns="http://www.w3.org/2000/svg" viewBox="0 0 432 432">
  <defs>
    <style>.GUNDAN_MONKEY_JEWELRY_MONKEY_JEWELRY_15_cls-1{fill:#ed9547;}.GUNDAN_MONKEY_JEWELRY_MONKEY_JEWELRY_15_cls-2{fill:#facf56;}.GUNDAN_MONKEY_JEWELRY_MONKEY_JEWELRY_15_cls-3,.GUNDAN_MONKEY_JEWELRY_MONKEY_JEWELRY_15_cls-4{fill:none;stroke:#000;stroke-linecap:round;}.GUNDAN_MONKEY_JEWELRY_MONKEY_JEWELRY_15_cls-3{stroke-miterlimit:10;stroke-width:0.9px;}.GUNDAN_MONKEY_JEWELRY_MONKEY_JEWELRY_15_cls-4{stroke-linejoin:round;stroke-width:0.81px;}</style>
  </defs>
  <path class="GUNDAN_MONKEY_JEWELRY_MONKEY_JEWELRY_15_cls-1" d="M140.6,181.69a3.92,3.92,0,0,1,3,4.68,3.86,3.86,0,0,1-.28.83,3.82,3.82,0,0,1-1.52,1.66,3.24,3.24,0,0,1-1,.43,3.73,3.73,0,0,1-1.91.06,4,4,0,0,1-1.7-.84,4.25,4.25,0,0,1-.71-.81,4,4,0,0,1-.66-2.15,4.4,4.4,0,0,1,.1-.88A3.91,3.91,0,0,1,140.6,181.69Z" />
  <path class="GUNDAN_MONKEY_JEWELRY_MONKEY_JEWELRY_15_cls-2" d="M140.6,181.69a3.05,3.05,0,0,1,2.32,3.63,3.31,3.31,0,0,1-.22.65,3,3,0,0,1-1.18,1.29,2.6,2.6,0,0,1-.76.34,3.07,3.07,0,0,1-1.48,0A3.15,3.15,0,0,1,138,187a3.32,3.32,0,0,1-.55-.63,3,3,0,0,1-.51-1.68A3.81,3.81,0,0,1,137,184,3,3,0,0,1,140.6,181.69Z" />
  <path class="GUNDAN_MONKEY_JEWELRY_MONKEY_JEWELRY_15_cls-1" d="M141.8,188.88c1.32,5,3.3,12.51,1.09,19.33s-6.45,8.59-9.9,7.82-6.55-4.11-5.67-11.27,5.87-13.12,9.17-17.06a4.25,4.25,0,0,0,.71.81c-2.37,3.3-5.83,7.74-6.64,13.51s1.21,8.45,3.55,9,5.29-1,7-6.63.44-11.07-.32-15.07a3.24,3.24,0,0,0,1-.43Z" />
  <path class="GUNDAN_MONKEY_JEWELRY_MONKEY_JEWELRY_15_cls-2" d="M141.54,188.82c1.2,4.49,3,11.32,1,17.49s-6,8.44-9.1,7.75-5.78-4.4-5-10.87,5.31-11.87,8.29-15.44a3.88,3.88,0,0,0,.65.74c-2.15,3-6.16,7.93-6.93,13.17s1.53,8.86,3.65,9.33,5.76-2.18,6.95-7.74c1.11-5.17.28-10.44-.41-14.05a2.92,2.92,0,0,0,.88-.4Z" />
  <path class="GUNDAN_MONKEY_JEWELRY_MONKEY_JEWELRY_15_cls-1" d="M129.27,232.79c-9.23-2-16.89-14-10.54-28.14,5.57-12.4,17.1-19.1,17.1-19.1a.68.68,0,0,0,0,.2,3.79,3.79,0,0,0,.63,2c-18.07,14.64-12.11,30.7-4.4,32.4s19.9-10.33,9.71-31.23v0a3.56,3.56,0,0,0,1.41-1.49.59.59,0,0,0,.1-.17s7.63,10.94,7.44,24.54C150.53,227.2,138.5,234.84,129.27,232.79Z" />
  <path class="GUNDAN_MONKEY_JEWELRY_MONKEY_JEWELRY_15_cls-2" d="M130,229.54c-8.57-1.9-15.7-13.06-9.8-26.17,4.72-10.52,14.05-16.62,15.66-17.62a3.79,3.79,0,0,0,.63,2c-18.07,14.64-12.11,30.7-4.4,32.4s19.9-10.33,9.71-31.23v0a3.56,3.56,0,0,0,1.41-1.49c1,1.59,6.93,11.06,6.77,22.59C149.76,224.33,138.58,231.44,130,229.54Z" />
  <path class="GUNDAN_MONKEY_JEWELRY_MONKEY_JEWELRY_15_cls-3" d="M135.83,185.55a4.4,4.4,0,0,1,.1-.88,3.92,3.92,0,1,1,7.65,1.7,3.86,3.86,0,0,1-.28.83,3.82,3.82,0,0,1-1.52,1.66,3.24,3.24,0,0,1-1,.43,3.73,3.73,0,0,1-1.91.06,4,4,0,0,1-1.7-.84,4.25,4.25,0,0,1-.71-.81A4,4,0,0,1,135.83,185.55Z" />
  <path class="GUNDAN_MONKEY_JEWELRY_MONKEY_JEWELRY_15_cls-3" d="M129.28,232.79c-9.23-2-16.89-14-10.55-28.14,5.57-12.41,17.1-19.1,17.1-19.1" />
  <path class="GUNDAN_MONKEY_JEWELRY_MONKEY_JEWELRY_15_cls-3" d="M132.09,220.11c-7.71-1.71-13.68-17.77,4.4-32.41" />
  <path class="GUNDAN_MONKEY_JEWELRY_MONKEY_JEWELRY_15_cls-3" d="M136.49,187.7c-3.3,3.94-8.28,10-9.17,17.06S129.54,215.27,133,216" />
  <path class="GUNDAN_MONKEY_JEWELRY_MONKEY_JEWELRY_15_cls-3" d="M137.21,188.5h0c-2.37,3.3-5.83,7.74-6.64,13.51s1.21,8.45,3.55,9" />
  <path class="GUNDAN_MONKEY_JEWELRY_MONKEY_JEWELRY_15_cls-3" d="M129.28,232.79c9.23,2,21.25-5.6,21.46-21.06.19-13.59-7.44-24.53-7.44-24.53" />
  <path class="GUNDAN_MONKEY_JEWELRY_MONKEY_JEWELRY_15_cls-3" d="M132.09,220.11c7.72,1.71,19.89-10.33,9.71-31.23" />
  <path class="GUNDAN_MONKEY_JEWELRY_MONKEY_JEWELRY_15_cls-3" d="M141.8,188.88c1.32,5,3.3,12.51,1.09,19.33s-6.45,8.59-9.9,7.82" />
  <path class="GUNDAN_MONKEY_JEWELRY_MONKEY_JEWELRY_15_cls-3" d="M140.81,189.29c.76,4,2,9.48.32,15.07s-4.68,7.14-7,6.63" />
  <path class="GUNDAN_MONKEY_JEWELRY_MONKEY_JEWELRY_15_cls-3" d="M138.9,189.35c2.5,4.48,1.32,16.23-2.71,16.13s-4.11-5.52-1.21-6.29a2,2,0,0,1,2.5,1.7" />
  <path class="GUNDAN_MONKEY_JEWELRY_MONKEY_JEWELRY_15_cls-3" d="M144.71,167.34a4.34,4.34,0,0,1,3.19,4.9c-.46,3.86-6,3.42-7.33,9.31" />
  <path class="GUNDAN_MONKEY_JEWELRY_MONKEY_JEWELRY_15_cls-3" d="M139.31,173a7,7,0,0,1,1-3.47" />
  <path class="GUNDAN_MONKEY_JEWELRY_MONKEY_JEWELRY_15_cls-4" d="M144.52,169a2.77,2.77,0,0,1,.67-3.29" />
</svg>