<svg id="Jewellry" xmlns="http://www.w3.org/2000/svg" xmlns:xlink="http://www.w3.org/1999/xlink" viewBox="0 0 432 432">
  <defs>
    <style>.GUNDAN_MONKEY_JEWELRY_MONKEY_JEWELRY_8_cls-1{fill:none;}.GUNDAN_MONKEY_JEWELRY_MONKEY_JEWELRY_8_cls-2{clip-path:url(#GUNDAN_MONKEY_JEWELRY_MONKEY_JEWELRY_8_clip-path);}.GUNDAN_MONKEY_JEWELRY_MONKEY_JEWELRY_8_cls-3{fill:#85432d;stroke:#000;stroke-miterlimit:10;stroke-width:1.82px;}.GUNDAN_MONKEY_JEWELRY_MONKEY_JEWELRY_8_cls-4{fill:#b9876e;}.GUNDAN_MONKEY_JEWELRY_MONKEY_JEWELRY_8_cls-5{fill:#645433;}.GUNDAN_MONKEY_JEWELRY_MONKEY_JEWELRY_8_cls-6{fill:#766e4a;}.GUNDAN_MONKEY_JEWELRY_MONKEY_JEWELRY_8_cls-7{fill:#dfca6d;}</style>
    <clipPath id="clip-path">
      <path class="GUNDAN_MONKEY_JEWELRY_MONKEY_JEWELRY_8_cls-1" d="M303.07,216.51a.8.8,0,0,1,.07.36.91.91,0,0,1-.65.82l-1.28.44c.07.9.15,1.73.26,2.51a65.28,65.28,0,0,1,9.95,6.19c.38.29,1.15.9,2,1.64.33.29.68.6,1,.91a.91.91,0,0,1,.11,1.15.89.89,0,0,1-.74.39h0a1,1,0,0,1-.35-.07,41.57,41.57,0,0,0-3.92-1.52l-.11,0c-.51-.17-1-.34-1.51-.48l-.44-.13-.52-.15a57.15,57.15,0,0,0-5.92-1.33l0,.14a146.6,146.6,0,0,0,15.83,6.06A102.31,102.31,0,0,0,329,236.46a66,66,0,0,0,11.45,1.17.89.89,0,0,1,.35,1.71,20.21,20.21,0,0,1-2.13.79A47.53,47.53,0,0,1,328.42,242l0,.14.26.1q.48.17,1,.39l.89.37.12,0,1,.42c.21.09.44.2.65.31s.71.33,1.08.53c1,.5,1.91,1,2.83,1.59l.13.08a4.53,4.53,0,0,1,.4.26l.71.46.6.41c.76.52,1.58,1.16,2.44,1.88l.15.12a3.76,3.76,0,0,1,.32.28c.34.29.72.64,1.09,1l.43.42c.11.1.21.21.31.32a3.5,3.5,0,0,1,.37.39c.17.17.35.36.52.56s.28.3.44.49c.73.86,1.39,1.73,2,2.64.16.22.32.46.47.71l.08.12.28.47a31.6,31.6,0,0,1,1.53,2.88c.09.23.18.43.3.68s.31.78.49,1.24l0,.11c.09.24.18.49.27.76,0,0,0,.08,0,.14s.14.84.26,2.06c1.19,1.64,2.28,3.3,3.24,4.94,9.54,16.31,11.44,39.67,4.73,58.13a55,55,0,0,1-17.93,25c-1.11.85-2.28,1.66-3.57,2.47a37.52,37.52,0,0,1-14.55,5.38q-.76.11-1.56.18h-.1l-.41,0c-.74.06-1.5.09-2.27.09h-.59c-.51,0-1,0-1.57-.05s-1.37-.09-2.15-.18a36.5,36.5,0,0,1-4.27-.79l-.13,0-.35-.1a40,40,0,0,1-12.72-5.89,51.47,51.47,0,0,1-16.93-20.07.89.89,0,0,1,.41-1.19.9.9,0,0,1,1.2.41A49.64,49.64,0,0,0,296.65,352a39.14,39.14,0,0,0,12.46,3c.67,0,1.37.08,2.08.08.4,0,.8,0,1.19,0l.63,0c8.33-.49,16.63-4.53,23.36-11.38a47.91,47.91,0,0,0,8.93-12.74,31.09,31.09,0,0,0,.55-11.57c-.07-.54-.16-1.08-.25-1.6a50.87,50.87,0,0,0-5.57-15.1,77.07,77.07,0,0,0-9.13-13.39l-.13.07c.5,1.57.91,3,1.24,4.45.25,1.06.47,2.18.68,3.34a51.32,51.32,0,0,1,.36,16.08v.16c-.14,1-.35,2.16-.63,3.42l-.06.27c-.07.29-.14.56-.21.83a1.05,1.05,0,0,1-.71.68s0,.08,0,.11v-.07l-.06-.06h-.07a.64.64,0,0,1-.24,0,.85.85,0,0,1-.54-.42.93.93,0,0,1-.06-.74c0-.18.09-.36.12-.55a29.65,29.65,0,0,0-2.19-7.72,44.57,44.57,0,0,0-5.79-9.54c-.85-1.11-1.71-2.15-2.53-3.1l-.45-.52a65.33,65.33,0,0,0-10.8-9.73,57,57,0,0,0-6.14-3.82l-.09.11a40.21,40.21,0,0,1,4.29,5.46c.31.47.6.94.88,1.43.05.07.2.37.2.37.13.23.26.47.39.74a20.07,20.07,0,0,1,.86,2,28,28,0,0,1,1.5,5.08,4.64,4.64,0,0,1,.11.65,12.65,12.65,0,0,1,.16,1.88c0,5.4-3.67,9.4-9.78,15.35a.89.89,0,0,1-1.25,0,.9.9,0,0,1,0-1.25,26.8,26.8,0,0,0,5.92-8.79,14.43,14.43,0,0,0,.26-9.92A18,18,0,0,0,305,293a20.63,20.63,0,0,0-1.35-2.2l-.06-.09c-.28-.39-.59-.81-.92-1.22a4.19,4.19,0,0,0-.26-.33,38.31,38.31,0,0,0-6.88-6.31,60.12,60.12,0,0,0-6.66-4.2l-.17-.09c-.85-.47-1.78-.95-3.12-1.62a48,48,0,0,1-7.57-1l-.14,0,.06.13c4.13,10.13,5.22,19.61,3.22,28.22a35.6,35.6,0,0,1-1,3.51,33.59,33.59,0,0,1-1.56,3.75.9.9,0,0,1-.81.5,1,1,0,0,1-.37-.08.89.89,0,0,1-.45-1.16,27.46,27.46,0,0,0,1.71-6.08c2.47-15.42-8-30.58-9.27-32.28l-.69-.5-.5-.43a2.76,2.76,0,0,1-.27-.23l-.18-.16c-.23-.23-.46-.46-.66-.68s-.47-.54-.68-.81a10.14,10.14,0,0,1-.83-1.27l-.05-.07-.06.06c-.84.68-1.6,1.25-2.37,1.77a32.27,32.27,0,0,1-4.89,2.82,22.79,22.79,0,0,1-9.63,2.3c-1.12,0-2.13,0-3-.06-1.71-.06-3.31-.18-4.76-.34a63.9,63.9,0,0,1-6.91-1.08A57.83,57.83,0,0,1,227.8,272c-1.65-.57-3.21-1.21-4.73-1.88a16.8,16.8,0,0,1-3.19,2.31c-1.5,1.66-14.59,16.65-11.49,32.24a24.17,24.17,0,0,0,2.11,6,.91.91,0,0,1-.36,1.19.86.86,0,0,1-.44.12.91.91,0,0,1-.77-.44,30,30,0,0,1-3.23-7.34c-2.47-8.58-1.12-18.09,4-28.26l.06-.13-.14,0a71.42,71.42,0,0,1-9.79,1.08,93.26,93.26,0,0,0-11.14,5.21c-.44.24-.87.48-1.29.73-5.55,3.26-9.51,6.68-11.79,10.17-4.42,6.77-2.28,13.86,6.35,21.07a.9.9,0,0,1,.12,1.24.94.94,0,0,1-.7.34.87.87,0,0,1-.55-.2c-11.48-9-14.79-12.78-10-23.08a21,21,0,0,1,1.82-3.08,40,40,0,0,1,6.59-7l-.08-.12a77,77,0,0,0-25.43,17.47,43.65,43.65,0,0,0-7.19,9.55,24.86,24.86,0,0,0-2.75,7.82l0,.08h0l-.09,0-.05.15a.78.78,0,0,1-.13.18.5.5,0,0,1-.07.08.85.85,0,0,1-.17.12l-.1.05-.16,0a.31.31,0,0,1-.15,0h-.07l-.12,0a1.09,1.09,0,0,1-.31-.13,1,1,0,0,1-.24-.23.92.92,0,0,1-.15-.3l-.06-.21a41.34,41.34,0,0,1-.35-19.73,47,47,0,0,1,2.59-8.32l-.12-.08a77.62,77.62,0,0,0-12,14,45.25,45.25,0,0,0-6.92,15.07c-.11.52-.22,1.05-.31,1.64a24.82,24.82,0,0,0,.68,11.42,49.09,49.09,0,0,0,12,13.42l0-.06,0,.14a50.32,50.32,0,0,0,29.08,10.72c.49,0,1,0,1.46,0a57.51,57.51,0,0,0,18.3-3.15,54.23,54.23,0,0,0,20.28-19.36.9.9,0,0,1,.77-.43.93.93,0,0,1,.46.12.88.88,0,0,1,.4.56.83.83,0,0,1-.1.67,56,56,0,0,1-21,20,57.78,57.78,0,0,1-9.55,4.19l-1.19.39-.33.1-.13,0c-1.57.48-3.18.88-4.78,1.21l-.7.13-.25.05-1,.17-.21,0c-.41.07-.85.15-1.28.2s-1.06.14-1.61.2l-1.41.13-.14,0h-.11c-1.16.09-2.31.14-3.42.15h-.54l-1.63,0-1,0-.47,0-1.77-.15c-.6-.05-1.19-.12-1.79-.2l-.15,0c-.52-.08-1.06-.15-1.6-.25l-1.09-.19-.2,0-.68-.14c-.52-.1-1.05-.22-1.56-.35l-.12,0a10.56,10.56,0,0,0-1.32-.26l.09-1.06h-.15v.06l-.22.86c-.55-.16-1.1-.32-1.65-.5s-1-.31-1.5-.49l-.28-.1-.43-.15-.36-.13-.66-.24-1.62-.65c-.46-.19-.93-.39-1.4-.61s-1.1-.49-1.65-.76l-.37-.18c-.57-.29-1.16-.59-1.74-.91l-.32-.18c-.3-.16-.61-.32-.9-.5-1-.6-2-1.17-2.86-1.75s-1.48-1-2.21-1.51c-.95-.67-1.91-1.41-2.93-2.25l-.79-.65-1.06-.94c-.55-.48-1.05-.94-1.53-1.41s-.77-.75-1.15-1.13l-.55-.57-.28-.3L120,342c-.17-.18-.34-.36-.49-.55l-.07-.07-.08-.12h0l-.07-.1c-.53-.59-1-1.18-1.5-1.79-.33-.39-.65-.8-1-1.22l-.11,0V338l-.09-.12c-.1-.13-.18-.25-.26-.37s-.42-.54-.63-.85l-.42-.59c-.36-.53-.73-1.08-1.07-1.62s-.64-1-1-1.54l-.18-.32c-.21-.36-.42-.71-.61-1.08-.08-.12-.38-.67-.38-.67a.53.53,0,0,1-.06-.13l-.33-.61-.16-.31-.21-.41-.06-.13c-.3-.59-.59-1.19-.86-1.8a58.17,58.17,0,0,1-4.92-26.72c0-1.19.16-2.47.31-3.9.2-1.68.42-3.17.69-4.55a57.78,57.78,0,0,1,9.82-23.09c.33-.45.66-.89,1-1.33s.55-.7.84-1.05.81-1,1.23-1.47l.94-1.09c.15-1.15.3-2,.31-2a.58.58,0,0,1,.06-.17c.2-.48.42-.95.65-1.42s.34-.68.55-1l0-.09a27.1,27.1,0,0,1,2-3c.17-.24.36-.48.55-.72.42-.54.9-1.1,1.52-1.77l.23-.24c.39-.41.81-.83,1.24-1.23.2-.2.43-.41.66-.61s.37-.32.58-.5c.45-.4.94-.78,1.43-1.16l.09-.07c.18-.14.37-.29.56-.42a47.75,47.75,0,0,1,10-5.54l1.34-.53.1,0,.57-.21.18-.07,1.15-.41.65-.21a6.48,6.48,0,0,1,.62-.2c.4-.14.81-.27,1.22-.39l.24-.07V242l-2-.15h-.16a65.83,65.83,0,0,1-10.46-1.64l-.15,0c-.87-.23-1.72-.49-2.5-.77a.89.89,0,0,1,.29-1.73,102.5,102.5,0,0,0,14.3-1.17c4.79-.71,9.89-1.75,15.15-3.07,6.34-1.6,13.15-3.69,19.69-6.06l0-.14c-1.43.18-3,.44-4.87.8a77.64,77.64,0,0,0-9.57,2.43l-.3.09h0l-1,.34a.87.87,0,0,1-.32.06.89.89,0,0,1-.52-1.6c1-.75,2-1.47,3-2.13a92.83,92.83,0,0,1,16.91-8.12l.22-.09-5.47-1.28a.88.88,0,0,1-.69-.84.89.89,0,0,1,.63-.88,34.73,34.73,0,0,1,9.14-1.07h1.09L139.5,117-6.93,133V442.5H445V120.86Z" />
    </clipPath>
  </defs>
  <g class="GUNDAN_MONKEY_JEWELRY_MONKEY_JEWELRY_8_cls-2">
    <path class="GUNDAN_MONKEY_JEWELRY_MONKEY_JEWELRY_8_cls-3" d="M190.74,322.19a8.7,8.7,0,0,0-2.21,2.56c-14.72-11.36-24.08-24.86-27.35-39.62-.2-.83-.77-5.56,3.72-5.83,0,0-.07.36-.34,1.28a12,12,0,0,0,0,6.81C169,302,179.28,313.45,190.74,322.19Z" />
    <path class="GUNDAN_MONKEY_JEWELRY_MONKEY_JEWELRY_8_cls-3" d="M294,297.44a90.75,90.75,0,0,1-16.27,24.28,8.31,8.31,0,0,0-2-2.4,88,88,0,0,0,15.43-23.17c.35-.77-.08-4.15-.29-5.78A5.19,5.19,0,0,1,294,297.44Z" />
    <path class="GUNDAN_MONKEY_JEWELRY_MONKEY_JEWELRY_8_cls-4" d="M196.09,332.35a3.53,3.53,0,0,1-.14-7.05h.15a3.52,3.52,0,0,1,.14,7Z" />
    <path d="M196.1,325.69a3.14,3.14,0,0,1,.12,6.27h-.13a3.14,3.14,0,0,1-.13-6.27h.14m0-.78h-.17a3.91,3.91,0,0,0,.16,7.81h.17a3.91,3.91,0,0,0-.16-7.82Z" />
    <path class="GUNDAN_MONKEY_JEWELRY_MONKEY_JEWELRY_8_cls-4" d="M195.82,339.29l-.71,0a.38.38,0,0,1-.35-.42l.05-.56a8.67,8.67,0,0,1-1.15-.23l-.17.53a.38.38,0,0,1-.37.28l-.11,0c-.23-.07-.46-.15-.68-.24a.37.37,0,0,1-.22-.49l.2-.52a10.4,10.4,0,0,1-1.05-.54l-.31.47a.43.43,0,0,1-.24.17h-.08a.37.37,0,0,1-.21-.06c-.2-.13-.4-.26-.59-.41a.39.39,0,0,1-.08-.54l.34-.44a9.48,9.48,0,0,1-.87-.8l-.42.37a.39.39,0,0,1-.25.1h0a.43.43,0,0,1-.26-.13c-.16-.18-.31-.37-.46-.55a.4.4,0,0,1,.07-.55l.45-.34a9.35,9.35,0,0,1-.63-1l-.5.25a.47.47,0,0,1-.17,0l-.13,0a.41.41,0,0,1-.22-.19c-.1-.22-.2-.43-.29-.65a.44.44,0,0,1,0-.3.39.39,0,0,1,.21-.21l.52-.21a11.22,11.22,0,0,1-.33-1.13l-.55.1h-.07a.44.44,0,0,1-.22-.07.42.42,0,0,1-.16-.25c0-.24-.08-.47-.1-.71a.4.4,0,0,1,.08-.28.43.43,0,0,1,.26-.15l.55-.06a2.45,2.45,0,0,1,0-.27c0-.29,0-.58,0-.91l-.55-.05a.41.41,0,0,1-.26-.13.39.39,0,0,1-.09-.29c0-.23.05-.47.09-.71a.39.39,0,0,1,.38-.32h.06l.55.09a9.65,9.65,0,0,1,.31-1.14l-.52-.2a.38.38,0,0,1-.22-.5c.09-.22.18-.44.28-.65a.39.39,0,0,1,.35-.23.32.32,0,0,1,.16,0l.51.24a8.53,8.53,0,0,1,.6-1l-.44-.33a.34.34,0,0,1-.15-.26.35.35,0,0,1,.07-.28c.14-.19.29-.38.44-.56a.37.37,0,0,1,.27-.13h0a.39.39,0,0,1,.25.1l.43.36a9.26,9.26,0,0,1,.85-.81l-.34-.44a.38.38,0,0,1-.08-.29.33.33,0,0,1,.15-.25,6.13,6.13,0,0,1,.58-.42.31.31,0,0,1,.21-.07h.08a.4.4,0,0,1,.24.16l.32.47a10.17,10.17,0,0,1,1-.55l-.21-.52a.38.38,0,0,1,.22-.5,6.63,6.63,0,0,1,.67-.25l.12,0a.33.33,0,0,1,.17,0,.39.39,0,0,1,.19.23l.18.53a9.06,9.06,0,0,1,1.15-.25l-.06-.56a.38.38,0,0,1,.34-.42c.23,0,.47-.05.71-.06h0a.38.38,0,0,1,.38.37l0,.55h0a8.88,8.88,0,0,1,1.15.07l.08-.54a.39.39,0,0,1,.38-.33h.07c.23,0,.47.08.7.14a.38.38,0,0,1,.29.46l-.13.55a8.68,8.68,0,0,1,1.12.38l.23-.51a.4.4,0,0,1,.22-.2l.13,0a.29.29,0,0,1,.16,0l.64.32a.39.39,0,0,1,.19.23.36.36,0,0,1,0,.29l-.27.5a9.28,9.28,0,0,1,1,.67l.37-.43a.36.36,0,0,1,.26-.13h0a.38.38,0,0,1,.25.09c.18.15.36.32.53.48a.39.39,0,0,1,0,.55l-.39.4a9.29,9.29,0,0,1,.75.91l.47-.32a.42.42,0,0,1,.21-.06.4.4,0,0,1,.33.17c.13.2.25.4.37.6a.39.39,0,0,1,0,.3.38.38,0,0,1-.18.23l-.48.28a8.6,8.6,0,0,1,.47,1.08l.54-.18.12,0a.34.34,0,0,1,.17,0,.35.35,0,0,1,.19.22c.08.23.14.46.2.69a.37.37,0,0,1,0,.29.4.4,0,0,1-.24.18l-.53.13a9.43,9.43,0,0,1,.17,1.17l.57,0a.38.38,0,0,1,.38.36c0,.28,0,.52,0,.75a.38.38,0,0,1-.12.27.39.39,0,0,1-.27.11h-.57a7.51,7.51,0,0,1-.15,1.16l.55.13a.4.4,0,0,1,.24.18.41.41,0,0,1,0,.29c-.06.23-.12.46-.19.69a.38.38,0,0,1-.19.22.41.41,0,0,1-.18.05l-.11,0-.54-.16a8.6,8.6,0,0,1-.47,1.08l.5.27a.4.4,0,0,1,.15.53c-.12.21-.24.41-.37.61a.35.35,0,0,1-.24.17h-.08a.37.37,0,0,1-.21-.06l-.48-.31a9.21,9.21,0,0,1-.73.92l.4.4a.39.39,0,0,1,0,.54c-.17.17-.34.34-.52.49a.35.35,0,0,1-.25.1h0a.36.36,0,0,1-.26-.13l-.37-.42a8.36,8.36,0,0,1-1,.69l.28.48a.45.45,0,0,1,0,.3.39.39,0,0,1-.19.23c-.2.12-.41.23-.63.34a.47.47,0,0,1-.17,0,.38.38,0,0,1-.34-.21l-.25-.5a9.07,9.07,0,0,1-1.1.4l.13.54a.38.38,0,0,1-.28.47c-.23.06-.47.11-.7.15h-.07a.39.39,0,0,1-.38-.31l-.1-.55-.91.09h-.26v.55a.42.42,0,0,1-.12.27.4.4,0,0,1-.27.11Zm0-17.65a7.19,7.19,0,0,0,.29,14.38h.3a7.19,7.19,0,0,0-.29-14.38Z" />
    <path d="M195.66,318.75l0,.93h.4a8.93,8.93,0,0,1,1.47.12l.15-.92.67.13-.21.92a9.26,9.26,0,0,1,1.77.61l.39-.85c.21.09.42.2.62.31l-.46.82a9.63,9.63,0,0,1,1.54,1.07l.61-.72c.17.15.35.31.51.47l-.66.67a9.69,9.69,0,0,1,1.19,1.44l.78-.53c.13.19.25.39.37.59l-.81.47a9.66,9.66,0,0,1,.76,1.7l.89-.29c.07.22.13.44.19.66l-.9.23a9.38,9.38,0,0,1,.27,1.85l.93,0v0c0,.22,0,.46,0,.68l-.93,0a9.46,9.46,0,0,1-.24,1.85l.91.22q-.07.33-.18.66l-.9-.27a9.66,9.66,0,0,1-.73,1.72l.82.45c-.11.2-.23.4-.35.59l-.79-.51a9.2,9.2,0,0,1-1.18,1.46l.68.66-.5.47-.62-.7a9,9,0,0,1-1.52,1.09l.46.82c-.2.11-.4.22-.61.32l-.4-.84a9,9,0,0,1-1.76.64l.23.9c-.22.06-.45.11-.68.15l-.16-.93a8.54,8.54,0,0,1-1.25.15h-.62l0,.94c-.23,0-.46,0-.69,0l.09-.93a9.28,9.28,0,0,1-1.83-.37l-.28.9c-.22-.07-.44-.14-.65-.23l.33-.87a8.67,8.67,0,0,1-1.66-.85l-.51.79-.57-.4.56-.74a9.17,9.17,0,0,1-1.37-1.27l-.7.62c-.15-.17-.3-.35-.44-.53l.74-.57a10.05,10.05,0,0,1-1-1.59l-.84.41c-.1-.21-.19-.42-.28-.63l.88-.35a8.29,8.29,0,0,1-.52-1.8l-.93.17c0-.23-.07-.45-.1-.68l.94-.1c0-.21,0-.42-.06-.64a8.34,8.34,0,0,1,0-1.23l-.94-.09c0-.23,0-.46.09-.68l.92.14a9.21,9.21,0,0,1,.49-1.8l-.87-.34q.12-.31.27-.63l.85.4a9.64,9.64,0,0,1,1-1.61l-.75-.56c.13-.18.28-.37.43-.54l.71.61a9.78,9.78,0,0,1,1.36-1.29l-.58-.74c.18-.14.37-.27.56-.4l.52.78a9.28,9.28,0,0,1,1.65-.87l-.35-.88.65-.23.29.89a9,9,0,0,1,1.83-.39l-.11-.94.69-.05m.43,17.65h.32a7.58,7.58,0,0,0-.31-15.16h-.32a7.58,7.58,0,0,0,.31,15.15M195.66,318h0l-.73,0a.8.8,0,0,0-.52.29.78.78,0,0,0-.17.57l0,.19-.48.1-.06-.18a.74.74,0,0,0-.38-.45.73.73,0,0,0-.35-.09,1,1,0,0,0-.24,0c-.24.08-.47.16-.7.26a.77.77,0,0,0-.43,1l.08.19-.43.22-.11-.16a.77.77,0,0,0-.64-.34.75.75,0,0,0-.43.13c-.2.13-.41.28-.6.43a.77.77,0,0,0-.14,1.08l.12.16-.35.33-.15-.13a.77.77,0,0,0-.5-.18h-.06a.76.76,0,0,0-.53.27c-.16.18-.31.38-.46.58a.76.76,0,0,0,.16,1.08l.15.11-.25.42-.17-.08a.78.78,0,0,0-.33-.07.75.75,0,0,0-.26,0,.79.79,0,0,0-.44.4c-.1.23-.2.46-.29.69a.76.76,0,0,0,.44,1l.18.07c-.05.16-.09.32-.13.47l-.18,0h-.13a.74.74,0,0,0-.45.15.75.75,0,0,0-.31.5c0,.24-.07.49-.1.74a.82.82,0,0,0,.18.56.77.77,0,0,0,.52.28l.19,0v.48l-.18,0a.78.78,0,0,0-.69.85c0,.25.07.5.11.74a.77.77,0,0,0,.76.63h.14l.19,0c0,.15.09.31.14.46l-.19.07a.78.78,0,0,0-.42,1c.09.23.19.46.3.68a.77.77,0,0,0,.69.43.68.68,0,0,0,.34-.08l.17-.08.26.41-.15.12a.77.77,0,0,0-.14,1.08,6.47,6.47,0,0,0,.47.57.73.73,0,0,0,.53.26h.05a.78.78,0,0,0,.51-.19l.14-.13.36.33-.12.15a.79.79,0,0,0-.14.58.77.77,0,0,0,.3.5l.61.43a.81.81,0,0,0,.42.12.77.77,0,0,0,.65-.35l.1-.17.44.23-.07.18a.77.77,0,0,0,.44,1l.7.24a.91.91,0,0,0,.23,0,.77.77,0,0,0,.74-.54l.06-.19c.15,0,.31.07.47.09l0,.2a.77.77,0,0,0,.7.84c.25,0,.49,0,.74.05h0a.75.75,0,0,0,.53-.22.73.73,0,0,0,.24-.54v-.18l.48,0,0,.18a.78.78,0,0,0,.76.64H198c.24,0,.49-.1.73-.16a.78.78,0,0,0,.56-.94l-.05-.18.46-.17.08.18a.77.77,0,0,0,.69.43.68.68,0,0,0,.34-.08c.22-.1.44-.22.66-.34a.82.82,0,0,0,.36-.47.76.76,0,0,0-.08-.59l-.09-.17.39-.28.13.15a.77.77,0,0,0,.58.26.78.78,0,0,0,.51-.2q.27-.24.54-.51a.77.77,0,0,0,.22-.54.79.79,0,0,0-.23-.55l-.14-.14.3-.38.17.11a.77.77,0,0,0,.42.13l.16,0a.72.72,0,0,0,.48-.34c.14-.2.27-.42.39-.63a.77.77,0,0,0-.31-1.05l-.17-.1c.07-.15.13-.3.19-.45l.19.06a.62.62,0,0,0,.23,0,.78.78,0,0,0,.74-.55c.07-.23.14-.47.19-.71a.77.77,0,0,0-.57-.93l-.19-.05.06-.48h.21a.79.79,0,0,0,.54-.22.77.77,0,0,0,.24-.54c0-.24,0-.49,0-.74a.83.83,0,0,0-.25-.55.78.78,0,0,0-.53-.21H206c0-.16,0-.32-.07-.48l.18-.05a.78.78,0,0,0,.56-.94c-.06-.24-.13-.48-.21-.71A.77.77,0,0,0,206,325a.72.72,0,0,0-.35-.08.64.64,0,0,0-.24,0l-.19.06c-.06-.15-.13-.3-.2-.44l.17-.1a.74.74,0,0,0,.36-.47.76.76,0,0,0-.07-.59c-.12-.21-.26-.42-.39-.63a.79.79,0,0,0-1.08-.21l-.16.11c-.1-.12-.2-.25-.31-.37l.14-.14a.8.8,0,0,0,.22-.55.74.74,0,0,0-.23-.54c-.18-.18-.36-.34-.55-.5a.73.73,0,0,0-.5-.19.78.78,0,0,0-.59.27l-.13.15-.39-.27.09-.18a.77.77,0,0,0-.3-1.05q-.33-.18-.66-.33a.76.76,0,0,0-.33-.08.8.8,0,0,0-.7.45l-.08.18-.46-.16,0-.19a.77.77,0,0,0-.57-.93c-.24-.06-.49-.1-.73-.14h-.13a.77.77,0,0,0-.76.65l0,.18-.48,0v-.18a.78.78,0,0,0-.25-.54.77.77,0,0,0-.52-.2Zm.43,17.65a6.81,6.81,0,0,1-.28-13.61h.29a6.8,6.8,0,0,1,.28,13.6Z" />
    <path class="GUNDAN_MONKEY_JEWELRY_MONKEY_JEWELRY_8_cls-4" d="M270.37,330.07a3.53,3.53,0,0,1-.15-7.05h.15a3.52,3.52,0,0,1,.14,7Z" />
    <path d="M270.37,323.41a3.14,3.14,0,0,1,.13,6.27h-.13a3.14,3.14,0,0,1-.13-6.27h.13m0-.78h-.16a3.91,3.91,0,0,0,.16,7.81h.16a3.91,3.91,0,0,0-.16-7.82Z" />
    <path class="GUNDAN_MONKEY_JEWELRY_MONKEY_JEWELRY_8_cls-4" d="M270.09,337l-.71,0a.39.39,0,0,1-.35-.42l.05-.56a11.14,11.14,0,0,1-1.15-.23l-.17.53a.38.38,0,0,1-.37.28l-.11,0-.68-.23a.39.39,0,0,1-.21-.21.37.37,0,0,1,0-.29l.2-.52a10.4,10.4,0,0,1-1.05-.54l-.3.47a.4.4,0,0,1-.33.17.42.42,0,0,1-.21-.06c-.2-.13-.39-.26-.58-.41a.38.38,0,0,1-.08-.54l.33-.44a11,11,0,0,1-.87-.8l-.41.37a.4.4,0,0,1-.26.1h0a.43.43,0,0,1-.27-.13c-.16-.18-.31-.37-.45-.55a.39.39,0,0,1-.08-.29.37.37,0,0,1,.15-.26l.44-.34a7.93,7.93,0,0,1-.62-1l-.51.25a.47.47,0,0,1-.16,0,.38.38,0,0,1-.35-.22c-.11-.22-.2-.44-.29-.66a.38.38,0,0,1,.21-.5l.52-.21a9.05,9.05,0,0,1-.32-1.13l-.56.1h-.07a.47.47,0,0,1-.22-.07.42.42,0,0,1-.16-.25c0-.24-.07-.47-.1-.71a.4.4,0,0,1,.08-.28.46.46,0,0,1,.26-.15l.55-.06c0-.09,0-.18,0-.27,0-.29,0-.58,0-.91l-.56,0a.38.38,0,0,1-.35-.42c0-.23.06-.47.09-.71a.39.39,0,0,1,.39-.32h.06l.54.09c.08-.38.19-.76.31-1.14l-.51-.2a.39.39,0,0,1-.23-.5c.09-.22.18-.44.28-.65a.4.4,0,0,1,.35-.23.35.35,0,0,1,.17,0l.5.23a11.27,11.27,0,0,1,.61-1l-.45-.33a.39.39,0,0,1-.15-.26.35.35,0,0,1,.07-.28c.14-.19.29-.38.45-.56a.38.38,0,0,1,.26-.14h0a.39.39,0,0,1,.25.1l.43.36a10.76,10.76,0,0,1,.85-.81l-.34-.44a.43.43,0,0,1-.08-.29.46.46,0,0,1,.15-.26c.19-.14.38-.28.58-.41a.33.33,0,0,1,.21-.07h.08a.42.42,0,0,1,.25.16l.31.47a9.35,9.35,0,0,1,1-.55l-.21-.52a.38.38,0,0,1,.21-.5c.22-.09.44-.18.67-.25l.12,0a.37.37,0,0,1,.37.27l.17.53a9.06,9.06,0,0,1,1.15-.25l-.06-.56a.38.38,0,0,1,.34-.42l.72-.06h0a.39.39,0,0,1,.39.37l0,.55h0a8.88,8.88,0,0,1,1.15.07l.09-.54a.39.39,0,0,1,.38-.33h.06l.7.13a.4.4,0,0,1,.24.18.37.37,0,0,1,.05.29l-.13.55a8.19,8.19,0,0,1,1.12.38l.24-.51a.41.41,0,0,1,.21-.2l.14,0a.32.32,0,0,1,.16,0l.64.32a.38.38,0,0,1,.18.23.37.37,0,0,1,0,.29l-.27.5a9.15,9.15,0,0,1,1,.67l.37-.43a.39.39,0,0,1,.29-.13.43.43,0,0,1,.26.09c.18.15.35.32.52.48a.39.39,0,0,1,0,.55l-.4.4a9.29,9.29,0,0,1,.75.91l.47-.32a.43.43,0,0,1,.22-.06.4.4,0,0,1,.32.17c.13.2.26.4.38.6a.39.39,0,0,1,0,.3.35.35,0,0,1-.18.23l-.48.28a10.43,10.43,0,0,1,.48,1.08l.53-.18.12,0a.4.4,0,0,1,.37.27c.07.23.14.46.2.69a.4.4,0,0,1-.28.47l-.54.13a9.43,9.43,0,0,1,.17,1.17l.57,0a.36.36,0,0,1,.26.11.37.37,0,0,1,.13.27c0,.26,0,.5,0,.73a.34.34,0,0,1-.12.27.36.36,0,0,1-.26.11h-.57a11.14,11.14,0,0,1-.15,1.16l.54.13a.39.39,0,0,1,.29.47c-.05.23-.12.46-.19.69a.38.38,0,0,1-.19.22.35.35,0,0,1-.18.05l-.11,0-.54-.16a10.3,10.3,0,0,1-.46,1.08l.49.27a.41.41,0,0,1,.19.24.42.42,0,0,1,0,.29c-.11.21-.24.41-.37.61a.35.35,0,0,1-.24.17h-.08a.37.37,0,0,1-.21-.06l-.47-.31a9.31,9.31,0,0,1-.74.92l.4.39a.39.39,0,0,1,0,.55c-.16.17-.34.34-.51.49a.37.37,0,0,1-.26.1h0a.39.39,0,0,1-.27-.13l-.37-.42a8.36,8.36,0,0,1-1,.69l.28.48a.39.39,0,0,1,0,.3.38.38,0,0,1-.18.23l-.63.34a.51.51,0,0,1-.17,0,.4.4,0,0,1-.35-.21l-.24-.5a9.87,9.87,0,0,1-1.11.4l.14.54a.4.4,0,0,1-.29.47c-.22.06-.46.11-.7.15h-.06a.38.38,0,0,1-.38-.31l-.1-.55-.92.09h-.26v.55a.38.38,0,0,1-.12.27.39.39,0,0,1-.27.11Zm0-17.65a7.19,7.19,0,0,0,.29,14.38h.31a7.19,7.19,0,0,0-.3-14.38Z" />
    <path d="M269.93,316.47l0,.93h.4a8.93,8.93,0,0,1,1.47.12l.15-.92.67.13-.21.92a8.81,8.81,0,0,1,1.77.61l.4-.85c.2.09.41.2.61.31l-.46.82a9.2,9.2,0,0,1,1.54,1.07l.61-.72c.18.15.35.31.51.47l-.66.67a9.17,9.17,0,0,1,1.2,1.44l.78-.53c.13.19.25.39.36.59l-.81.47a9,9,0,0,1,.76,1.7l.89-.29c.07.22.14.44.19.66l-.9.23a9.38,9.38,0,0,1,.27,1.85l.93,0v0c0,.22,0,.46,0,.68l-.94,0a9.46,9.46,0,0,1-.24,1.85l.91.22q-.07.33-.18.66l-.9-.28a8.8,8.8,0,0,1-.73,1.73l.82.45c-.11.2-.23.4-.35.59l-.79-.51a9.14,9.14,0,0,1-1.17,1.46l.67.66-.5.47-.62-.7a9,9,0,0,1-1.52,1.09l.47.82-.61.32-.41-.84a8.8,8.8,0,0,1-1.76.64l.23.9c-.22.06-.45.11-.67.15l-.17-.93a8.57,8.57,0,0,1-1.24.15h-.62l0,.94c-.23,0-.46,0-.68,0l.08-.93a9.28,9.28,0,0,1-1.83-.37l-.28.9c-.22-.07-.43-.14-.65-.23l.34-.87a9.37,9.37,0,0,1-1.67-.85l-.51.79c-.19-.13-.38-.26-.56-.4l.56-.74a9.76,9.76,0,0,1-1.38-1.27l-.7.62c-.15-.17-.3-.35-.44-.53l.75-.57a9.37,9.37,0,0,1-1-1.59l-.84.41c-.1-.21-.2-.42-.28-.63l.87-.35a8.89,8.89,0,0,1-.52-1.8l-.93.17c0-.23-.07-.45-.09-.68l.93-.11c0-.21,0-.41-.06-.63a8.52,8.52,0,0,1,0-1.24l-.93-.08c0-.23.05-.46.08-.68l.92.14a8.58,8.58,0,0,1,.5-1.8l-.88-.34.27-.63.85.4a9.64,9.64,0,0,1,1-1.61l-.75-.56c.14-.19.28-.37.43-.54l.72.61a9.71,9.71,0,0,1,1.35-1.29l-.57-.74.55-.4.53.78a8.64,8.64,0,0,1,1.65-.87l-.36-.88.65-.23.29.89a9.31,9.31,0,0,1,1.83-.39l-.1-.94.68,0m.43,17.65h.32a7.58,7.58,0,0,0-.31-15.16h-.32a7.58,7.58,0,0,0,.31,15.15m-.43-18.42h0l-.74.05a.83.83,0,0,0-.52.29.77.77,0,0,0-.16.57l0,.19-.47.1-.06-.18a.78.78,0,0,0-.74-.54,1,1,0,0,0-.24,0c-.23.08-.47.16-.7.26a.77.77,0,0,0-.42,1l.07.19-.42.22-.11-.16a.79.79,0,0,0-1.08-.21c-.2.13-.4.28-.6.43a.74.74,0,0,0-.29.51.76.76,0,0,0,.15.57l.13.16-.35.33-.15-.13a.81.81,0,0,0-.51-.18.74.74,0,0,0-.58.27c-.16.18-.32.38-.47.58a.77.77,0,0,0-.14.57.79.79,0,0,0,.3.51l.15.11-.24.42-.18-.08a.72.72,0,0,0-.33-.07.75.75,0,0,0-.26,0,.82.82,0,0,0-.44.4l-.29.68a.78.78,0,0,0,0,.6.74.74,0,0,0,.43.4l.17.07c0,.16-.09.32-.12.47l-.19,0h-.13a.76.76,0,0,0-.45.15.78.78,0,0,0-.31.5c0,.24-.07.49-.09.74a.76.76,0,0,0,.17.56.77.77,0,0,0,.53.28l.18,0c0,.16,0,.32,0,.48l-.19,0a.77.77,0,0,0-.52.28.78.78,0,0,0-.16.57c0,.25.06.49.1.74a.75.75,0,0,0,.32.49.79.79,0,0,0,.44.14h.14l.2,0c0,.16.08.32.13.47l-.18.07a.8.8,0,0,0-.43.42.76.76,0,0,0,0,.59c.09.23.19.46.3.68a.8.8,0,0,0,.44.39.75.75,0,0,0,.26,0,.64.64,0,0,0,.33-.08l.18-.08.25.41-.15.12a.77.77,0,0,0-.14,1.08c.15.2.31.39.47.57a.8.8,0,0,0,.58.26.75.75,0,0,0,.51-.19l.15-.13.35.33-.11.15a.8.8,0,0,0-.15.58.75.75,0,0,0,.31.5c.19.15.4.29.6.43a.81.81,0,0,0,.42.12.5.5,0,0,0,.17,0,.74.74,0,0,0,.48-.33l.11-.17.43.23-.07.18a.76.76,0,0,0,0,.59.77.77,0,0,0,.42.41c.23.08.47.17.71.24a.83.83,0,0,0,.22,0,.77.77,0,0,0,.74-.54l.06-.19.48.09,0,.2a.77.77,0,0,0,.69.84l.74,0h0a.78.78,0,0,0,.78-.76v-.18l.48,0,0,.18a.76.76,0,0,0,.76.64h.13l.73-.16a.78.78,0,0,0,.56-.94l-.05-.18.46-.17.08.18a.79.79,0,0,0,.7.43.71.71,0,0,0,.34-.08c.22-.1.44-.22.65-.34a.78.78,0,0,0,.29-1.06l-.1-.17c.13-.09.27-.18.39-.28l.13.15a.78.78,0,0,0,.58.26.76.76,0,0,0,.51-.2,6.51,6.51,0,0,0,.54-.51.77.77,0,0,0,.22-.54.75.75,0,0,0-.23-.55l-.14-.14c.1-.12.21-.25.3-.38l.17.11a.77.77,0,0,0,.42.13l.16,0a.78.78,0,0,0,.49-.34c.13-.2.26-.42.38-.63a.81.81,0,0,0,.07-.59.77.77,0,0,0-.37-.46l-.18-.1c.07-.15.13-.3.19-.45l.19.06a.66.66,0,0,0,.23,0,.78.78,0,0,0,.74-.55c.07-.23.14-.47.2-.71a.82.82,0,0,0-.1-.59.76.76,0,0,0-.48-.34l-.19-.05.06-.48h.22a.75.75,0,0,0,.53-.22.73.73,0,0,0,.24-.54c0-.24,0-.49,0-.74a.75.75,0,0,0-.25-.55.78.78,0,0,0-.52-.21h-.22c0-.16,0-.32-.07-.48l.18-.05a.76.76,0,0,0,.56-.94c-.06-.24-.13-.48-.2-.71a.77.77,0,0,0-.74-.53.67.67,0,0,0-.24,0l-.19.06c-.06-.15-.12-.3-.19-.45l.17-.09a.74.74,0,0,0,.36-.47.81.81,0,0,0-.08-.59q-.18-.31-.39-.63a.77.77,0,0,0-.64-.34.75.75,0,0,0-.43.13l-.17.11c-.1-.12-.2-.25-.31-.37l.14-.14a.76.76,0,0,0,0-1.09c-.17-.18-.36-.34-.54-.5a.77.77,0,0,0-1.09.08l-.13.15c-.13-.09-.26-.19-.4-.27l.1-.18a.76.76,0,0,0,.06-.59.77.77,0,0,0-.37-.46c-.21-.12-.44-.23-.66-.34a.88.88,0,0,0-.32-.07.79.79,0,0,0-.71.45l-.08.18-.46-.16.05-.19a.78.78,0,0,0-.58-.93,5.88,5.88,0,0,0-.73-.14H272a.77.77,0,0,0-.76.65l0,.18-.49,0v-.18a.71.71,0,0,0-.25-.54.77.77,0,0,0-.52-.2Zm.43,17.65a6.81,6.81,0,0,1-.27-13.61h.28a6.8,6.8,0,0,1,.28,13.6Z" />
    <path class="GUNDAN_MONKEY_JEWELRY_MONKEY_JEWELRY_8_cls-5" d="M208,358h-.55a.42.42,0,0,1-.31-.18.38.38,0,0,1-.29.13h0l-.72-.09a.41.41,0,0,1-.29-.22.36.36,0,0,1-.26.11h-.08c-.24-.05-.47-.11-.71-.18a.4.4,0,0,1-.26-.25l-.06,0a.33.33,0,0,1-.17,0l-.12,0-.68-.26a.37.37,0,0,1-.23-.27l-.07,0-.13,0a.32.32,0,0,1-.16,0c-.22-.1-.44-.21-.65-.33a.42.42,0,0,1-.2-.3l-.06,0h-.09a.36.36,0,0,1-.2-.06c-.21-.12-.41-.26-.61-.4a.37.37,0,0,1-.15-.25.17.17,0,0,1,0-.07l-.11,0a.38.38,0,0,1-.24-.09c-.19-.15-.37-.31-.55-.47a.38.38,0,0,1-.13-.33h-.07a.39.39,0,0,1-.27-.11c-.17-.17-.34-.35-.5-.53a.38.38,0,0,1-.09-.28.2.2,0,0,1,0-.07h-.07a.38.38,0,0,1-.26-.14c-.15-.19-.3-.38-.43-.58a.39.39,0,0,1,0-.36.38.38,0,0,1-.31-.18,6.44,6.44,0,0,1-.36-.63.39.39,0,0,1,0-.35.37.37,0,0,1-.28-.22c-.11-.22-.2-.44-.29-.66a.39.39,0,0,1,0-.3l0-.06a.38.38,0,0,1-.26-.25c-.07-.22-.15-.46-.21-.69a.37.37,0,0,1,0-.29l0-.06-.06,0a.39.39,0,0,1-.17-.25c-.05-.23-.1-.47-.13-.71a.39.39,0,0,1,.11-.34.39.39,0,0,1-.19-.3c0-.23,0-.46,0-.69a.41.41,0,0,1,.1-.3l.06-.05a.1.1,0,0,1-.06-.05.32.32,0,0,1-.11-.27c0-.25,0-.49,0-.73a.37.37,0,0,1,.19-.3.42.42,0,0,1-.13-.34c0-.24.07-.48.12-.71a.39.39,0,0,1,.22-.29l0-.05a.38.38,0,0,1,0-.29c0-.24.12-.47.19-.7a.39.39,0,0,1,.19-.23l.07,0a.37.37,0,0,1-.05-.35c.08-.23.18-.45.27-.68a.4.4,0,0,1,.29-.22l0-.06a.44.44,0,0,1,0-.3c.11-.21.23-.43.35-.63a.36.36,0,0,1,.24-.18h.07a.25.25,0,0,1,0-.07.37.37,0,0,1,.06-.29c.13-.2.27-.4.42-.59a.38.38,0,0,1,.3-.16h0a.13.13,0,0,1,0-.06.38.38,0,0,1,.09-.29c.15-.18.31-.36.48-.53a.36.36,0,0,1,.27-.12h.07s0,0,0-.07a.41.41,0,0,1,.13-.27c.17-.16.35-.33.54-.48a.38.38,0,0,1,.25-.09h.1v-.07a.41.41,0,0,1,.15-.25l.59-.42a.43.43,0,0,1,.22-.06h.07l.07,0a.42.42,0,0,1,.19-.31l.64-.34a.33.33,0,0,1,.17,0,.37.37,0,0,1,.18,0,.43.43,0,0,1,.23-.28c.22-.09.44-.19.67-.27a.3.3,0,0,1,.13,0,.51.51,0,0,1,.17,0l.06,0a.14.14,0,0,1,0-.07.39.39,0,0,1,.23-.19l.7-.19h.09a.4.4,0,0,1,.26.1.37.37,0,0,1,.28-.22l.72-.12h0a.41.41,0,0,1,.24.08l.05.05a.4.4,0,0,1,.31-.19c.23,0,.48,0,.72,0h0a.36.36,0,0,1,.26.11l.05.05,0-.05a.4.4,0,0,1,.26-.1h0l.73.05a.4.4,0,0,1,.26.14l0,.06.05-.05a.48.48,0,0,1,.23-.07h.06c.23,0,.47.08.71.13a.35.35,0,0,1,.24.17l0,.06.06,0a.41.41,0,0,1,.19-.05l.1,0c.24.06.47.13.7.21a.37.37,0,0,1,.24.26.43.43,0,0,1,.22-.06.35.35,0,0,1,.14,0l.67.29a.4.4,0,0,1,.2.22s0,.05,0,.07a.42.42,0,0,1,.36,0l.63.37a.4.4,0,0,1,.18.31l.07,0h.06a.34.34,0,0,1,.22.07c.2.14.39.29.58.44a.38.38,0,0,1,.15.32h.09a.44.44,0,0,1,.26.1c.18.16.35.33.52.5a.4.4,0,0,1,.11.34h.07a.38.38,0,0,1,.26.13c.16.18.32.36.47.55a.41.41,0,0,1,.08.29s0,0,0,.06h.06a.34.34,0,0,1,.25.16c.14.2.28.4.4.6a.37.37,0,0,1,.05.29.14.14,0,0,1,0,.07.39.39,0,0,1,.3.2l.33.64a.39.39,0,0,1,0,.3l0,.06a.41.41,0,0,1,.28.23c.09.22.17.45.25.68a.41.41,0,0,1-.06.36.38.38,0,0,1,.25.26c.06.23.12.47.17.7a.41.41,0,0,1-.05.29l0,.06.06,0a.38.38,0,0,1,.16.26c0,.23.07.47.09.71a.41.41,0,0,1-.13.34l0,0a.36.36,0,0,1,.12.27,6.34,6.34,0,0,1,0,.75.39.39,0,0,1-.11.27l-.06,0a.38.38,0,0,1,.14.33c0,.24,0,.49-.07.72a.41.41,0,0,1-.21.3.38.38,0,0,1,.11.34c-.05.24-.1.47-.16.71a.35.35,0,0,1-.24.26.21.21,0,0,1,0,.06.39.39,0,0,1,0,.3q-.1.35-.24.69a.39.39,0,0,1-.27.23.38.38,0,0,1,0,.36c-.1.22-.21.44-.32.66a.35.35,0,0,1-.22.19h-.07a.38.38,0,0,1,0,.36c-.12.21-.25.42-.38.62a.42.42,0,0,1-.25.16h-.07a.37.37,0,0,1-.06.35q-.21.29-.45.57a.43.43,0,0,1-.26.13h-.07a.42.42,0,0,1-.1.35l-.51.51a.45.45,0,0,1-.27.1h-.08v.07a.42.42,0,0,1-.14.27l-.56.44a.4.4,0,0,1-.23.08h-.06l-.07,0a.37.37,0,0,1-.17.31c-.2.14-.41.26-.62.38a.33.33,0,0,1-.19.06.42.42,0,0,1-.16,0,.39.39,0,0,1-.21.29l-.66.31-.15,0a.36.36,0,0,1-.2-.06l0,.07a.37.37,0,0,1-.21.2c-.23.09-.46.16-.69.23l-.11,0a.41.41,0,0,1-.19,0l0,0a.41.41,0,0,1-.27.23l-.71.15h-.07a.34.34,0,0,1-.22-.07l-.06,0,0,.06a.4.4,0,0,1-.26.14c-.24,0-.48.06-.72.07h0a.38.38,0,0,1-.25-.09l-.05,0a.1.1,0,0,1,0,0,.36.36,0,0,1-.27.12Zm-8.59-8.1a9.39,9.39,0,0,0,8.6,5.57h.4a9.47,9.47,0,0,0,5.75-2.27l-2.4-2.4a6.07,6.07,0,0,1-3.49,1.29H208a6.07,6.07,0,0,1-5.41-3.34Zm16.21,1.72a9.43,9.43,0,0,0-4.48-14.53l-.88,3.28a6.05,6.05,0,0,1,2.77,9.06ZM204,348.2a4.59,4.59,0,0,0,4,2.35h.2a4.45,4.45,0,0,0,2.48-.86L209,348a2.22,2.22,0,0,1-.94.24h0a2.38,2.38,0,0,1-1.88-.86Zm7.86.22a4.56,4.56,0,0,0-2-6.63l-.6,2.25a2.28,2.28,0,0,1,1.06,1.83,2.32,2.32,0,0,1-.21,1.05ZM208,336.51h-.38a9.48,9.48,0,0,0-9.06,9.84,9.24,9.24,0,0,0,.18,1.46l3.28-.88c0-.24-.06-.48-.08-.72a6.1,6.1,0,0,1,5.82-6.32h.22l.45,0,.61-3.34A9.2,9.2,0,0,0,208,336.51Zm-.17,4.89a4.59,4.59,0,0,0-4.39,4.76c0,.13,0,.26,0,.39l2.23-.59a2.31,2.31,0,0,1,2.05-2.28l.41-2.28h-.34Z" />
    <path d="M207.84,334.37v1h.57l0-1c.23,0,.47,0,.7.05l-.11,1,.57.06.16-1c.23,0,.46.08.69.13l-.23,1,.55.13.28-1c.23.06.45.13.67.21l-.34,1,.54.2.39-1c.21.08.43.18.64.28l-.45.94.5.26.51-.92.6.36-.55.88.47.32.6-.85c.19.13.38.27.56.42l-.65.81.43.37.7-.78c.17.15.34.32.51.48l-.75.74a5.18,5.18,0,0,1,.4.41l.77-.69c.16.17.31.35.46.53l-.83.65.35.45.85-.6.39.58-.89.55c.1.16.19.33.28.5l.92-.51c.11.21.22.42.32.63l-.94.44c.08.17.15.35.22.52l1-.39c.08.21.17.43.24.66l-1,.33c.06.18.11.36.16.54l1-.28c.07.23.12.46.17.68l-1,.22c0,.19.08.37.11.56l1-.16c0,.23.06.46.08.69l-1,.1c0,.19,0,.38.05.57l1-.05v0c0,.23,0,.47,0,.7l-1,0c0,.19,0,.38,0,.57l1,.07c0,.24,0,.47-.07.7l-1-.14-.09.56,1,.2c0,.23-.09.46-.15.68l-1-.25a5.52,5.52,0,0,1-.16.54l1,.31c-.07.23-.15.45-.23.67l-1-.37c-.07.18-.15.35-.22.52l1,.43q-.14.31-.3.63l-.93-.48c-.08.17-.18.34-.27.5l.9.53-.37.59-.87-.58c-.11.15-.21.31-.33.47l.83.62c-.14.18-.28.37-.43.55l-.8-.68c-.12.14-.25.29-.38.42l.76.72c-.16.17-.33.34-.5.49l-.71-.76c-.14.13-.28.26-.43.38l.68.8-.55.43-.62-.83-.47.32.58.87-.6.37-.52-.9-.5.27.47.93-.63.3-.42-1-.52.22.36,1c-.22.08-.44.16-.66.22l-.31-1-.54.17.24,1-.68.14-.19-1c-.18,0-.37.07-.56.09l.13,1-.7.07-.07-1-.27,0h-.29v1h-.7l.05-1-.57,0-.1,1-.7-.09.17-1c-.19,0-.37-.08-.56-.12l-.22,1-.68-.17.28-1-.54-.17-.34,1c-.22-.07-.44-.16-.65-.24l.39-1c-.17-.07-.35-.14-.52-.23l-.45.94-.62-.32.51-.91c-.17-.1-.34-.18-.5-.29l-.55.88c-.2-.12-.39-.25-.58-.39l.6-.85-.45-.34-.65.82-.54-.45.7-.78c-.14-.12-.27-.26-.41-.39l-.74.74-.48-.51.78-.69c-.13-.14-.24-.29-.36-.44l-.82.65-.42-.56.86-.6c-.11-.16-.22-.31-.32-.47l-.88.55c-.12-.2-.24-.4-.35-.61l.92-.5c-.09-.16-.19-.33-.27-.5l-.93.45c-.1-.21-.2-.43-.28-.65l1-.39c-.07-.17-.14-.35-.2-.53l-1,.34c-.08-.22-.15-.45-.21-.67l1-.28c-.05-.18-.1-.36-.14-.55l-1,.22c0-.23-.1-.46-.13-.69l1-.15c0-.19,0-.38-.06-.57l-1,.1c0-.22,0-.45,0-.67v0l1,0a5.37,5.37,0,0,1,0-.57l-1,0,0-.7,1,.08c0-.19,0-.38.06-.57l-1-.13c0-.23.06-.46.11-.69l1,.19c0-.18.07-.37.12-.55l-1-.25c.06-.23.12-.45.19-.68l1,.32a5,5,0,0,1,.17-.55l-1-.36c.08-.22.17-.44.27-.65l.95.43.24-.52-.92-.47c.1-.21.22-.42.34-.62l.89.53c.1-.16.2-.32.31-.48l-.87-.58.4-.57.83.63a5.28,5.28,0,0,1,.36-.44l-.8-.68.47-.52.76.72.4-.4-.72-.76c.17-.16.35-.31.53-.46l.67.8a5.28,5.28,0,0,1,.44-.36l-.63-.83c.19-.14.38-.28.58-.4l.57.87.48-.31-.52-.89.61-.34.47.93.51-.24-.42-.95.65-.27.36,1,.54-.18-.3-1c.22-.07.45-.13.67-.18l.25,1,.55-.11-.19-1c.23-.05.46-.08.69-.11l.13,1a5.48,5.48,0,0,1,.57-.05l-.07-1c.23,0,.46,0,.7,0m-9.44,13.92,4-1.07a6.82,6.82,0,0,1-.14-1,5.7,5.7,0,0,1,5.45-5.92h.2a6.49,6.49,0,0,1,.77.05l.74-4.09a10.57,10.57,0,0,0-1.49-.12h-.39a9.84,9.84,0,0,0-9.16,12.16m17.23,3.84a9.82,9.82,0,0,0-4.81-15.57l-1.08,4a5.69,5.69,0,0,1,2.72,8.89l3.17,2.67M203.12,347l3-.79a1.38,1.38,0,0,1,0-.2,1.93,1.93,0,0,1,1.84-2H208l.54-3a4.49,4.49,0,0,0-.64,0h-.17a5,5,0,0,0-4.64,6M211.9,349a4.91,4.91,0,0,0,1-3.22,5,5,0,0,0-3.37-4.5l-.8,3a1.91,1.91,0,0,1,.82,2.79l2.33,2M208,350.93h.21a4.92,4.92,0,0,0,3.05-1.22l-2.16-2.17a2,2,0,0,1-1,.35H208a1.92,1.92,0,0,1-1.65-.95l-2.89,1a5,5,0,0,0,4.53,2.95m0,4.89h.41a9.8,9.8,0,0,0,6.3-2.64l-2.93-2.94a5.64,5.64,0,0,1-3.54,1.42H208a5.71,5.71,0,0,1-5.21-3.43l-3.91,1.41a9.86,9.86,0,0,0,9.12,6.18m-.12-22.23h0l-.75,0a.66.66,0,0,0-.32.09,1,1,0,0,0-.24,0h-.1c-.25,0-.5.07-.74.12a.66.66,0,0,0-.31.13l-.16,0-.18,0c-.24.05-.49.12-.72.19a1,1,0,0,0-.3.17h-.07a.75.75,0,0,0-.26.05c-.24.08-.47.18-.7.28a.66.66,0,0,0-.27.2.76.76,0,0,0-.33.08c-.22.11-.44.23-.65.36a.79.79,0,0,0-.25.23,1,1,0,0,0-.32.12l-.61.43a.78.78,0,0,0-.22.26.85.85,0,0,0-.3.15l-.56.5a.9.9,0,0,1-.47.47c-.17.18-.34.37-.5.56a.73.73,0,0,0-.16.3.65.65,0,0,0-.25.22c-.15.19-.3.4-.44.61a.84.84,0,0,0-.12.31.79.79,0,0,0-.23.25,7,7,0,0,0-.36.66.9.9,0,0,0-.09.32,1,1,0,0,0-.2.28c-.1.22-.19.46-.28.69a.8.8,0,0,0-.05.34.92.92,0,0,0-.17.29c-.07.24-.14.48-.2.72a.78.78,0,0,0,0,.34.85.85,0,0,0-.13.31c-.05.25-.09.5-.12.74a.76.76,0,0,0,0,.34.92.92,0,0,0-.1.32c0,.25,0,.5,0,.75a.87.87,0,0,1,0,.66c0,.27,0,.51.05.75a.68.68,0,0,0,.11.32.79.79,0,0,0,0,.34c0,.25.09.49.14.74a.69.69,0,0,0,.14.3.77.77,0,0,0,0,.34c.06.24.14.48.22.72a.77.77,0,0,0,.17.29.75.75,0,0,0,.06.33q.14.35.3.69a.75.75,0,0,0,.21.26.63.63,0,0,0,.09.33c.12.22.24.44.37.65a.91.91,0,0,0,.24.24.76.76,0,0,0,.13.31q.21.3.45.6a.75.75,0,0,0,.26.21.87.87,0,0,0,.16.3c.17.18.34.37.52.54a.71.71,0,0,0,.28.18.69.69,0,0,0,.2.28,6.57,6.57,0,0,0,.57.48.61.61,0,0,0,.3.15.69.69,0,0,0,.23.25c.2.15.41.29.62.42a.76.76,0,0,0,.32.11.83.83,0,0,0,.26.23c.21.12.44.23.66.34a.8.8,0,0,0,.33.08.92.92,0,0,0,.28.19c.23.1.47.18.7.26a.79.79,0,0,0,.25.05h.09a.73.73,0,0,0,.3.16c.24.07.48.13.73.18a.44.44,0,0,0,.16,0,.55.55,0,0,0,.18,0,.71.71,0,0,0,.31.13l.74.1h.08a.75.75,0,0,0,.26-.05.62.62,0,0,0,.32.09l.58,0h.17a.89.89,0,0,0,.33-.08.92.92,0,0,0,.28.05h.06l.74-.07a.88.88,0,0,0,.32-.12.64.64,0,0,0,.2,0h.14l.73-.16a.77.77,0,0,0,.3-.15h.12a.57.57,0,0,0,.22,0c.24-.07.48-.15.71-.24a.68.68,0,0,0,.28-.18h0a.7.7,0,0,0,.31-.07c.22-.09.45-.2.67-.31a.8.8,0,0,0,.26-.22.79.79,0,0,0,.33-.1l.63-.39a.82.82,0,0,0,.24-.25.79.79,0,0,0,.31-.14c.2-.14.39-.3.58-.46a.79.79,0,0,0,.21-.27.66.66,0,0,0,.29-.17c.18-.17.36-.35.53-.53a.66.66,0,0,0,.17-.29.68.68,0,0,0,.27-.2c.17-.19.32-.39.47-.59a.68.68,0,0,0,.14-.31.68.68,0,0,0,.25-.23c.14-.21.27-.42.4-.63a.91.91,0,0,0,.1-.33.71.71,0,0,0,.22-.26c.11-.22.22-.44.32-.67a1,1,0,0,1,.25-.62c.09-.23.17-.47.25-.71a1,1,0,0,0,0-.34.77.77,0,0,0,.15-.3c.06-.24.11-.48.16-.73a.78.78,0,0,0,0-.34.68.68,0,0,0,.11-.32c0-.24.06-.49.08-.74a.78.78,0,0,0-.05-.34.72.72,0,0,0,.08-.32c0-.25,0-.5,0-.75a.86.86,0,0,0-.09-.35.65.65,0,0,0,0-.34c0-.25-.05-.5-.09-.74a.7.7,0,0,0-.13-.32.78.78,0,0,0,0-.34c0-.24-.11-.49-.18-.73a.75.75,0,0,0-.16-.29.78.78,0,0,0,0-.34c-.08-.24-.16-.47-.26-.7a.7.7,0,0,0-.19-.28.75.75,0,0,0-.07-.33c-.11-.23-.22-.45-.34-.67a.79.79,0,0,0-.23-.25.72.72,0,0,0-.11-.32c-.13-.21-.27-.42-.41-.63a.75.75,0,0,0-.25-.22.89.89,0,0,0-.15-.31q-.23-.29-.48-.57a.86.86,0,0,0-.27-.2.73.73,0,0,0-.19-.28c-.17-.18-.35-.35-.54-.52a.76.76,0,0,0-.29-.16.93.93,0,0,0-.22-.27l-.59-.45a1,1,0,0,0-.32-.13.76.76,0,0,0-.24-.23,7.16,7.16,0,0,0-.64-.38.84.84,0,0,0-.33-.1.71.71,0,0,0-.27-.21c-.22-.11-.45-.21-.68-.3a.79.79,0,0,0-.29-.06h-.05a.79.79,0,0,0-.29-.18l-.71-.22a.76.76,0,0,0-.21,0l-.13,0a.81.81,0,0,0-.31-.15l-.73-.14h-.12a.54.54,0,0,0-.22,0,.76.76,0,0,0-.32-.11q-.37,0-.75-.06h0a.94.94,0,0,0-.3.06.88.88,0,0,0-.32-.07ZM199,347.34a8.51,8.51,0,0,1-.1-1,9.07,9.07,0,0,1,8.69-9.44H208a5.72,5.72,0,0,1,.58,0l-.47,2.59h-.36a6.46,6.46,0,0,0-6.19,6.73,3,3,0,0,0,0,.42l-2.54.68Zm11.67-7.23.68-2.55a9.1,9.1,0,0,1,5.68,8,9,9,0,0,1-1.54,5.41l-2-1.69a6.41,6.41,0,0,0,.93-3.62,6.49,6.49,0,0,0-3.75-5.59Zm-6.89,5.95a4.19,4.19,0,0,1,3.87-4.27l-.28,1.56a2.7,2.7,0,0,0-2.08,2.31l-1.51.4Zm5.87-2.18.41-1.53a4.21,4.21,0,0,1,2.09,3.45,4.14,4.14,0,0,1-.43,2l-1.2-1a2.57,2.57,0,0,0,.13-.95,2.65,2.65,0,0,0-1-2Zm-5.09,4.52,1.5-.54a2.72,2.72,0,0,0,1.91.8h.11a2.67,2.67,0,0,0,.83-.17l1.12,1.12a4.15,4.15,0,0,1-1.89.55H208a4.17,4.17,0,0,1-3.4-1.76Zm-4.67,1.68,2.48-.89a6.45,6.45,0,0,0,5.59,3.24h.27a6.4,6.4,0,0,0,3.44-1.17l1.86,1.86a9.08,9.08,0,0,1-5.19,1.92H208a9,9,0,0,1-8.07-5Z" />
    <path class="GUNDAN_MONKEY_JEWELRY_MONKEY_JEWELRY_8_cls-4" d="M226.46,352.45a.37.37,0,0,1-.21-.06.47.47,0,0,1-.17,0h0a3.62,3.62,0,0,1-.46-.06.34.34,0,0,1-.19-.09.32.32,0,0,1-.14,0h-.08l-.45-.12a.42.42,0,0,1-.18-.11h-.09l-.13,0-.43-.16a.39.39,0,0,1-.17-.14h-.05a.47.47,0,0,1-.16,0l-.42-.21a.39.39,0,0,1-.15-.16h0a.39.39,0,0,1-.21-.06l-.38-.25a.55.55,0,0,1-.14-.17.5.5,0,0,1-.2-.08c-.12-.1-.24-.2-.35-.31a.34.34,0,0,1-.11-.18.35.35,0,0,1-.19-.1c-.11-.11-.22-.22-.32-.34a.37.37,0,0,1-.09-.19.46.46,0,0,1-.18-.13c-.09-.12-.19-.25-.27-.37a.31.31,0,0,1-.07-.2.39.39,0,0,1-.16-.15c-.09-.13-.16-.26-.24-.4a.38.38,0,0,1,0-.21.39.39,0,0,1-.15-.16l-.18-.43a.38.38,0,0,1,0-.21.3.3,0,0,1-.12-.17,3.88,3.88,0,0,1-.14-.45.41.41,0,0,1,0-.22.4.4,0,0,1-.1-.18c0-.16-.06-.31-.08-.46a.3.3,0,0,1,0-.21.5.5,0,0,1-.08-.2l0-.45a.43.43,0,0,1,.06-.22.31.31,0,0,1-.06-.21c0-.16,0-.31,0-.47a.37.37,0,0,1,.07-.2.36.36,0,0,1,0-.21c0-.15,0-.31.07-.46a.44.44,0,0,1,.1-.19.38.38,0,0,1,0-.21c0-.16.08-.31.13-.46a.34.34,0,0,1,.11-.17.41.41,0,0,1,0-.22,3.93,3.93,0,0,1,.18-.43.31.31,0,0,1,.14-.16.34.34,0,0,1,0-.22l.22-.41a.36.36,0,0,1,.16-.14.42.42,0,0,1,.06-.21l.27-.38a.38.38,0,0,1,.17-.12.4.4,0,0,1,.09-.2l.31-.35a.35.35,0,0,1,.19-.1.32.32,0,0,1,.1-.19l.35-.31a.4.4,0,0,1,.2-.09.41.41,0,0,1,.13-.17l.38-.27a.36.36,0,0,1,.2-.06.43.43,0,0,1,.15-.15l.41-.23a.47.47,0,0,1,.17,0h0a.42.42,0,0,1,.16-.13l.44-.18.13,0h.08a.36.36,0,0,1,.18-.12l.45-.12.09,0,.12,0a.42.42,0,0,1,.19-.09l.46-.07h.05a.53.53,0,0,1,.17,0,.32.32,0,0,1,.2-.07l.46,0h0a.46.46,0,0,1,.2,0,.38.38,0,0,1,.19,0h0l.47,0a.36.36,0,0,1,.2.08.28.28,0,0,1,.15,0H228a3.4,3.4,0,0,1,.46.09.35.35,0,0,1,.19.1l.11,0,.1,0,.45.13a.37.37,0,0,1,.17.13h.07a.4.4,0,0,1,.15,0l.43.19a.43.43,0,0,1,.16.14h0a.37.37,0,0,1,.18.05l.41.23a.39.39,0,0,1,.14.17.36.36,0,0,1,.2.06l.38.28a.44.44,0,0,1,.12.18.34.34,0,0,1,.19.09l.34.32a.35.35,0,0,1,.1.19.39.39,0,0,1,.19.12c.1.11.2.23.29.35a.46.46,0,0,0,.25.33c.09.13.18.26.26.39a.37.37,0,0,1,.06.21.36.36,0,0,1,.15.15l.21.41a.39.39,0,0,1,0,.21.55.55,0,0,1,.14.17c.05.15.11.29.16.44a.5.5,0,0,1,0,.21.42.42,0,0,1,.11.18c0,.15.08.31.11.46a.37.37,0,0,1,0,.21.61.61,0,0,1,.09.2l.06.46a.52.52,0,0,1,0,.21.41.41,0,0,1,.07.22v.46a.37.37,0,0,1-.06.21.38.38,0,0,1,0,.21c0,.15,0,.31,0,.46a.4.4,0,0,1-.09.2.38.38,0,0,1,0,.21c0,.16-.06.31-.1.46a.37.37,0,0,1-.11.18.41.41,0,0,1,0,.22l-.15.44a.45.45,0,0,1-.13.17.37.37,0,0,1,0,.21c-.07.15-.13.29-.21.43a.34.34,0,0,1-.14.15.42.42,0,0,1-.06.21c-.07.13-.16.27-.24.4a.43.43,0,0,1-.17.13.37.37,0,0,1-.07.2c-.1.13-.19.25-.3.37a.52.52,0,0,1-.17.12.5.5,0,0,1-.1.19l-.33.32a.39.39,0,0,1-.19.1.44.44,0,0,1-.12.18l-.37.29a.37.37,0,0,1-.2.07.31.31,0,0,1-.14.16l-.39.25a.35.35,0,0,1-.2.05h0a.46.46,0,0,1-.16.15l-.42.2a.4.4,0,0,1-.15,0h-.06a.36.36,0,0,1-.17.13l-.45.15-.11,0-.1,0a.42.42,0,0,1-.18.11l-.46.1h-.07l-.14,0a.5.5,0,0,1-.2.08l-.46.05h0a.35.35,0,0,1-.18-.05.37.37,0,0,1-.21.06h-.46Zm-4.88-5.16a5.8,5.8,0,0,0,5.24,3.29h.24a5.92,5.92,0,0,0,3.43-1.31L229.16,348a4,4,0,0,1-2.18.78h-.16a4,4,0,0,1-3.48-2.08Zm10,.79a5.7,5.7,0,0,0,1-3.57,5.83,5.83,0,0,0-3.75-5.21l-.49,1.81a4,4,0,0,1,2.39,3.48,3.84,3.84,0,0,1-.63,2.29Zm-7.08-1.85a2.75,2.75,0,0,0,2.31,1.27h.11a2.63,2.63,0,0,0,1.35-.43l-.84-.84a1.53,1.53,0,0,1-.56.13h0a1.66,1.66,0,0,1-1.24-.53Zm4.7-.16a2.66,2.66,0,0,0,.35-1.43,2.71,2.71,0,0,0-1.48-2.32l-.31,1.15a1.62,1.62,0,0,1,.65,1.21,1.67,1.67,0,0,1-.11.63Zm-2.63-7.15A5.85,5.85,0,0,0,221,345a6.36,6.36,0,0,0,.08.75l1.81-.48c0-.11,0-.23,0-.34a4,4,0,0,1,3.81-4.15H227l.33-1.84-.48,0Zm.13,3.09a2.75,2.75,0,0,0-2.64,2.85.22.22,0,0,1,0,.08l1.15-.31a1.59,1.59,0,0,1,1.3-1.45l.24-1.32v-.24Z" />
    <path d="M226.74,337.42v.66h.36l0-.65.44,0-.07.66.36,0,.1-.65.44.08-.14.65.34.08.18-.63.42.13-.21.62.34.13.24-.61a3,3,0,0,1,.41.18l-.28.59.31.17.32-.58c.13.07.26.14.38.22l-.35.56.3.2.38-.54c.12.09.24.17.35.27l-.41.51.28.23.43-.49.33.31-.47.46.25.26.49-.44.28.34-.52.41a3.15,3.15,0,0,1,.22.29l.54-.38.24.36-.56.35.18.31.58-.32.2.4-.59.28c0,.1.09.22.14.33l.61-.25.15.41-.62.21c0,.12.07.23.1.35l.64-.18c0,.14.07.29.1.43l-.64.14c0,.11,0,.23.07.35l.65-.1c0,.14,0,.29.05.44l-.66.06c0,.12,0,.24,0,.36l.65,0v0a3.23,3.23,0,0,1,0,.44h-.65c0,.12,0,.24,0,.36l.66,0c0,.15,0,.3,0,.44l-.65-.08c0,.12,0,.23-.06.35l.65.12c0,.15-.06.29-.1.43l-.63-.16c0,.12-.07.23-.1.35l.63.19-.15.42-.61-.23c0,.11-.09.22-.14.33l.6.27c-.06.13-.12.27-.19.4l-.58-.3-.18.31.57.33c-.07.13-.15.26-.23.38l-.55-.37c-.07.1-.13.2-.21.3l.53.39-.28.35-.5-.43-.24.27.48.45c-.1.11-.21.21-.32.31l-.45-.48-.27.24.43.5c-.11.1-.23.19-.35.28l-.39-.53-.3.2.37.55-.38.24-.33-.57-.31.17.3.58-.4.19-.26-.6-.34.13.23.62-.42.14-.19-.63-.34.1.15.63-.43.1-.12-.65-.35.06.08.65-.44,0,0-.66-.18,0h-.18v.66h-.45l0-.66a2.07,2.07,0,0,1-.35,0l-.07.66-.44-.06.11-.64-.35-.07-.14.64-.43-.11.17-.63-.34-.11-.21.62-.42-.15.25-.61-.33-.14-.28.59-.39-.2.32-.58-.31-.18-.35.56-.37-.25.38-.54-.28-.21-.41.51-.34-.28.44-.49-.26-.25-.47.47-.3-.33.49-.43-.23-.28-.51.41-.27-.35.54-.38-.2-.3-.55.35-.23-.38.58-.32-.17-.31-.59.28c-.06-.14-.12-.27-.17-.41l.61-.25-.13-.33-.62.21c0-.14-.09-.28-.13-.42l.63-.18c0-.11,0-.23-.08-.34l-.64.13c0-.14-.06-.29-.08-.43l.64-.1c0-.12,0-.24,0-.36l-.65.07a3.11,3.11,0,0,1,0-.43h0l.65,0c0-.12,0-.24,0-.36h-.66c0-.14,0-.29,0-.44l.65.05c0-.12,0-.24,0-.36l-.65-.08c0-.15,0-.29.07-.44l.65.13c0-.12,0-.24.07-.36l-.63-.15c0-.15.07-.29.11-.43l.63.2c0-.12.07-.23.11-.34l-.61-.23c.05-.14.11-.28.17-.41l.6.26c.05-.1.1-.21.16-.32l-.59-.3.21-.39.57.34c.06-.11.13-.21.19-.31l-.55-.36c.08-.12.17-.25.26-.36l.52.39.23-.27-.5-.43.29-.33.48.45.25-.25-.45-.48.33-.29.42.5.28-.22-.39-.53.36-.25.36.55.31-.19-.34-.57.39-.21.3.59.32-.16-.26-.6.41-.17.23.62.34-.11-.2-.63.43-.12.15.63.36-.06-.13-.65.44-.07.08.65.36,0-.05-.66.45,0m-6,8.8,2.54-.68a3.4,3.4,0,0,1-.09-.64,3.6,3.6,0,0,1,3.44-3.74h.1a2.78,2.78,0,0,1,.51,0l.47-2.6a7.3,7.3,0,0,0-.94-.07h-.25a6.22,6.22,0,0,0-5.95,6.47,5.43,5.43,0,0,0,.17,1.21m10.88,2.42a6.2,6.2,0,0,0-3-9.83l-.68,2.54a3.55,3.55,0,0,1,1.7,5.59l2,1.7m-7.9-3.22,1.87-.5a.5.5,0,0,1,0-.12,1.21,1.21,0,0,1,1.16-1.26h.09l.34-1.9a3,3,0,0,0-.43,0h-.08a3.13,3.13,0,0,0-3,3.26,4.68,4.68,0,0,0,.07.54m5.53,1.23a3.1,3.1,0,0,0,.66-2,3.13,3.13,0,0,0-2.13-2.83l-.5,1.86a1.21,1.21,0,0,1,.71,1.05,1.23,1.23,0,0,1-.2.71l1.46,1.24m-2.47,1.23H227a3.12,3.12,0,0,0,1.92-.78l-1.36-1.36a1.17,1.17,0,0,1-.64.22h-.05a1.21,1.21,0,0,1-1-.6L224,346a3.13,3.13,0,0,0,2.86,1.86m0,3.09h.26a6.15,6.15,0,0,0,4-1.67l-1.86-1.86a3.58,3.58,0,0,1-2.22.91h-.15a3.59,3.59,0,0,1-3.29-2.17l-2.47.89a6.22,6.22,0,0,0,5.76,3.91m-.08-14.32h0l-.49,0a.79.79,0,0,0-.22.05h-.21l-.49.08a.68.68,0,0,0-.2.07h0a.55.55,0,0,0-.18,0l-.48.13a.66.66,0,0,0-.19.09.79.79,0,0,0-.22,0l-.45.18a.76.76,0,0,0-.19.12.86.86,0,0,0-.21.07l-.43.23-.17.14a.66.66,0,0,0-.19.09l-.4.28a.81.81,0,0,0-.16.16,1.18,1.18,0,0,0-.19.11l-.36.33a1.14,1.14,0,0,1-.31.31l-.33.36a1.18,1.18,0,0,0-.11.19.75.75,0,0,0-.16.15c-.1.13-.19.26-.28.4a.72.72,0,0,0-.09.2.75.75,0,0,0-.14.17l-.24.43a.86.86,0,0,0-.07.21.57.57,0,0,0-.12.18l-.18.46a.8.8,0,0,0,0,.21.72.72,0,0,0-.09.2c-.05.15-.1.31-.14.47a1.64,1.64,0,0,0,0,.22,1,1,0,0,0-.07.21c0,.16-.05.32-.08.48a.78.78,0,0,1,0,.43c0,.17,0,.33,0,.49a.78.78,0,0,0,0,.22.76.76,0,0,0,0,.21c0,.18,0,.34,0,.49a.79.79,0,0,0,.05.22.81.81,0,0,0,0,.22l.09.48a.7.7,0,0,0,.08.2,1.64,1.64,0,0,0,0,.22l.15.47a.57.57,0,0,0,.1.19.54.54,0,0,0,.05.22c.06.15.13.3.2.45a.71.71,0,0,0,.12.18.68.68,0,0,0,.07.2c.08.15.16.29.25.43a.73.73,0,0,0,.14.16.75.75,0,0,0,.1.2l.29.39a.75.75,0,0,0,.16.15.76.76,0,0,0,.12.19c.11.12.22.24.34.35a.52.52,0,0,0,.17.13.79.79,0,0,0,.14.17l.37.32.19.11a.75.75,0,0,0,.16.15c.13.09.27.19.41.27a.72.72,0,0,0,.2.09.7.7,0,0,0,.17.13l.44.23a.83.83,0,0,0,.21.06.72.72,0,0,0,.19.11c.15.07.3.12.46.18l.21,0a.78.78,0,0,0,.21.09l.47.12h.22l.21.07.48.06h.22a.78.78,0,0,0,.22,0h.49a.71.71,0,0,0,.21,0h.22l.49-.05a.8.8,0,0,0,.21,0h.22l.48-.1a.72.72,0,0,0,.2-.09l.22,0,.46-.16a.57.57,0,0,0,.19-.1.79.79,0,0,0,.22-.06l.44-.21.18-.12a.72.72,0,0,0,.2-.09l.42-.25a.75.75,0,0,0,.16-.15.69.69,0,0,0,.19-.1L232,351a.73.73,0,0,0,.14-.16.46.46,0,0,0,.18-.13c.12-.11.24-.22.35-.34a.83.83,0,0,0,.13-.18A1.07,1.07,0,0,0,233,350c.1-.13.21-.26.3-.39a.45.45,0,0,0,.11-.19.57.57,0,0,0,.15-.16c.09-.14.18-.27.26-.41a.9.9,0,0,0,.08-.21.83.83,0,0,0,.13-.18l.21-.44a.83.83,0,0,0,.06-.21,1.18,1.18,0,0,0,.11-.19c0-.15.11-.31.16-.47a.76.76,0,0,0,0-.21.49.49,0,0,0,.08-.21c0-.15.08-.31.11-.47a.94.94,0,0,1,.07-.43c0-.17,0-.33.05-.49a.82.82,0,0,1,0-.44c0-.16,0-.32,0-.49a.85.85,0,0,0,0-.22.87.87,0,0,0,0-.23l-.06-.48a.65.65,0,0,0-.07-.21.81.81,0,0,0,0-.22,4.21,4.21,0,0,0-.12-.48.72.72,0,0,0-.09-.2.52.52,0,0,0,0-.21c-.05-.16-.11-.31-.17-.46a.52.52,0,0,0-.11-.19.83.83,0,0,0-.06-.21c-.07-.15-.15-.29-.22-.44a1.09,1.09,0,0,0-.13-.17.72.72,0,0,0-.09-.2l-.27-.41a1.14,1.14,0,0,0-.15-.16,1.18,1.18,0,0,0-.11-.19c-.1-.13-.21-.25-.32-.37a.52.52,0,0,0-.16-.14.62.62,0,0,0-.14-.18l-.35-.34-.18-.12a.75.75,0,0,0-.15-.16l-.39-.29a.75.75,0,0,0-.2-.1.58.58,0,0,0-.17-.14l-.42-.25a.7.7,0,0,0-.2-.08.76.76,0,0,0-.19-.12l-.45-.2a.8.8,0,0,0-.21-.05.75.75,0,0,0-.2-.1l-.46-.15-.21,0h0a.65.65,0,0,0-.21-.07l-.48-.09h-.22l-.21-.05a4,4,0,0,0-.49,0h0a.62.62,0,0,0-.19,0,.64.64,0,0,0-.2,0Zm-5.34,8.6a2.46,2.46,0,0,1,0-.28,5.44,5.44,0,0,1,5.21-5.66h.25l-.2,1.08h0a4.36,4.36,0,0,0-4.18,4.54v0l-1.06.28Zm7.46-4.35.29-1.06a5.42,5.42,0,0,1,2.36,7.66l-.85-.71a4.33,4.33,0,0,0,.52-2.22,4.38,4.38,0,0,0-2.32-3.67Zm-4.38,3.53a2.34,2.34,0,0,1,.6-1.28,2.42,2.42,0,0,1,1.19-.7l-.07.42a1.88,1.88,0,0,0-.84.54,1.92,1.92,0,0,0-.48.91l-.4.11Zm3.72-1.1.11-.4a2.3,2.3,0,0,1,.87,1.72,2.4,2.4,0,0,1-.11.79l-.31-.26a2.19,2.19,0,0,0,0-.51,2,2,0,0,0-.6-1.34Zm-3,3.08.4-.14a2,2,0,0,0,1.27.46h.08a1.68,1.68,0,0,0,.44-.07l.29.3a2.2,2.2,0,0,1-.71.15h-.1a2.35,2.35,0,0,1-1.67-.7Zm-3,1.09,1-.37a4.36,4.36,0,0,0,3.65,2H227a4.23,4.23,0,0,0,2.11-.66l.79.78a5.41,5.41,0,0,1-2.86,1h-.22a5.4,5.4,0,0,1-4.69-2.69Z" />
    <path class="GUNDAN_MONKEY_JEWELRY_MONKEY_JEWELRY_8_cls-5" d="M257.78,353.71h-.53a.38.38,0,0,1-.27-.12l0,0a.36.36,0,0,1-.27.12h0l-.68-.09a.4.4,0,0,1-.28-.19l0,0a.39.39,0,0,1-.21.06h-.08l-.67-.17a.42.42,0,0,1-.25-.22.36.36,0,0,1-.2.06l-.13,0-.64-.25a.39.39,0,0,1-.23-.24h0l-.12,0a.47.47,0,0,1-.17,0c-.21-.1-.41-.21-.61-.32a.39.39,0,0,1-.19-.23.08.08,0,0,0,0,0H252a.39.39,0,0,1-.21-.06c-.19-.12-.38-.24-.57-.38a.37.37,0,0,1-.15-.25s0,0,0,0H251a.41.41,0,0,1-.24-.08c-.18-.14-.36-.29-.53-.45a.36.36,0,0,1-.12-.26v0h0a.39.39,0,0,1-.28-.12c-.16-.16-.32-.32-.47-.5a.36.36,0,0,1-.09-.31h0a.4.4,0,0,1-.26-.14c-.14-.18-.28-.36-.41-.55a.39.39,0,0,1,0-.33.34.34,0,0,1-.28-.18c-.12-.19-.24-.39-.35-.59a.37.37,0,0,1,0-.29.05.05,0,0,1,0,0h0a.4.4,0,0,1-.22-.2c-.1-.21-.19-.42-.28-.63a.39.39,0,0,1,0-.3l0,0,0,0a.39.39,0,0,1-.2-.22c-.07-.22-.14-.44-.2-.66a.39.39,0,0,1,.06-.33l0,0a.43.43,0,0,1-.17-.24c0-.22-.09-.45-.12-.67a.37.37,0,0,1,.1-.32l0,0a.38.38,0,0,1-.14-.26c0-.22,0-.44,0-.66a.4.4,0,0,1,.1-.29l0,0a.4.4,0,0,1-.15-.31c0-.23,0-.46,0-.68a.39.39,0,0,1,.13-.27l0,0,0,0a.39.39,0,0,1-.08-.29c0-.23.07-.45.11-.68a.37.37,0,0,1,.16-.24l0,0a.37.37,0,0,1-.07-.32c0-.23.12-.45.18-.66a.39.39,0,0,1,.19-.23l0,0s0,0,0,0a.41.41,0,0,1,0-.29c.08-.22.17-.43.26-.64a.4.4,0,0,1,.22-.2h0l0,0a.44.44,0,0,1,0-.3l.33-.6a.43.43,0,0,1,.24-.18h0a.4.4,0,0,1,.05-.33l.4-.56a.38.38,0,0,1,.29-.15v0a.37.37,0,0,1,.09-.28c.14-.18.3-.35.45-.51a.39.39,0,0,1,.28-.12h0a.45.45,0,0,1,.12-.31l.51-.46a.4.4,0,0,1,.25-.09h.08v0a.43.43,0,0,1,.15-.26l.56-.39a.43.43,0,0,1,.22-.06.2.2,0,0,1,.11,0,.4.4,0,0,1,.19-.28l.6-.33a.39.39,0,0,1,.18,0,.45.45,0,0,1,.16,0,.37.37,0,0,1,.21-.25l.64-.26.13,0a.29.29,0,0,1,.16,0l0,0,0,0a.39.39,0,0,1,.23-.19c.21-.07.44-.13.66-.18h.09a.45.45,0,0,1,.23.07l0,0a.34.34,0,0,1,.24-.16l.68-.11h.05a.43.43,0,0,1,.24.08l0,0a.38.38,0,0,1,.29-.17l.68,0h0a.35.35,0,0,1,.27.11l0,0a.39.39,0,0,1,.29-.13h0l.68,0a.41.41,0,0,1,.29.18.35.35,0,0,1,.26-.1h.06l.67.13a.35.35,0,0,1,.24.17l0,0a.48.48,0,0,1,.23-.07l.1,0,.66.2a.38.38,0,0,1,.22.19l0,0h0l.15,0a.39.39,0,0,1,.15,0l.63.28a.43.43,0,0,1,.2.22s0,0,0,0h0l.11,0a.41.41,0,0,1,.18.05l.59.35a.35.35,0,0,1,.18.28l.11,0a.35.35,0,0,1,.22.08c.19.13.37.27.55.41a.39.39,0,0,1,.14.3h.07a.39.39,0,0,1,.25.1l.5.47a.39.39,0,0,1,.11.32h0a.4.4,0,0,1,.27.12c.15.18.3.35.44.53a.38.38,0,0,1,.07.32h0a.34.34,0,0,1,.25.16c.13.18.26.37.38.57a.35.35,0,0,1,0,.33.4.4,0,0,1,.27.19c.11.2.21.41.31.61a.4.4,0,0,1,0,.34h0a.37.37,0,0,1,.2.21c.09.21.17.43.24.64a.4.4,0,0,1,0,.34h0a.36.36,0,0,1,.18.24c.06.22.12.44.17.66a.42.42,0,0,1-.08.33.39.39,0,0,1,.19.27c0,.23.06.46.08.68a.4.4,0,0,1-.08.28l0,0,0,0a.41.41,0,0,1,.13.27c0,.25,0,.48,0,.71a.45.45,0,0,1-.12.27l0,0a.39.39,0,0,1,.12.31c0,.22,0,.46-.07.68a.42.42,0,0,1-.18.28l0,0a.38.38,0,0,1,.06.29c0,.23-.09.45-.15.67a.4.4,0,0,1-.21.26l0,0a.39.39,0,0,1,0,.3c-.07.22-.14.44-.23.65a.32.32,0,0,1-.2.21l0,0a.05.05,0,0,1,0,0,.33.33,0,0,1,0,.29c-.09.21-.19.42-.29.62a.39.39,0,0,1-.23.19h0a.08.08,0,0,1,0,0,.35.35,0,0,1,0,.3c-.11.19-.23.39-.36.58a.42.42,0,0,1-.25.16h0a.34.34,0,0,1-.07.32c-.13.19-.28.37-.42.54a.41.41,0,0,1-.3.14h0a.37.37,0,0,1-.1.31l-.49.49a.37.37,0,0,1-.26.1h-.05a.41.41,0,0,1-.14.3l-.54.42a.34.34,0,0,1-.23.08h-.1a.37.37,0,0,1-.17.28l-.58.37a.45.45,0,0,1-.19.05.32.32,0,0,1-.14,0,.45.45,0,0,1-.2.27l-.62.29a.45.45,0,0,1-.16,0,.35.35,0,0,1-.14,0h0a.42.42,0,0,1-.23.24c-.21.08-.43.15-.65.21a.23.23,0,0,1-.11,0,.34.34,0,0,1-.22-.07.05.05,0,0,1,0,0,.4.4,0,0,1-.24.18l-.67.14h-.07a.39.39,0,0,1-.25-.1l0,0a.4.4,0,0,1-.26.14l-.68.07h0a.4.4,0,0,1-.28-.12l0,0a.39.39,0,0,1-.27.11Zm-8.1-7.65a8.85,8.85,0,0,0,8.09,5.22h.38a8.86,8.86,0,0,0,5.39-2.12l-2.23-2.23a5.79,5.79,0,0,1-3.29,1.21h-.25a5.76,5.76,0,0,1-5.12-3.14ZM265,347.63A8.87,8.87,0,0,0,260.74,334l-.82,3.06a5.74,5.74,0,0,1,2.62,8.56ZM254,344.49a4.3,4.3,0,0,0,3.74,2.18H258a4.26,4.26,0,0,0,2.31-.8l-1.52-1.53a2.13,2.13,0,0,1-.88.23h0a2.28,2.28,0,0,1-1.78-.81Zm7.38.16a4.24,4.24,0,0,0,.65-2.45,4.34,4.34,0,0,0-2.53-3.74l-.57,2.08a2.16,2.16,0,0,1,1,1.74,2.11,2.11,0,0,1-.19,1Zm-3.66-11.18h-.35A8.91,8.91,0,0,0,249,344.09l3.05-.81c0-.23-.06-.45-.07-.67a5.77,5.77,0,0,1,5.52-6h.62l.55-3.11A7.56,7.56,0,0,0,257.76,333.47Zm-.16,4.61a4.32,4.32,0,0,0-4.12,4.47l0,.35,2.07-.55a2.21,2.21,0,0,1,1.94-2.16l.37-2.11h-.29Z" />
    <path d="M257.65,331.42l0,1h.53l0-1,.66.05-.1,1,.54.06.15-1,.65.13-.21,1c.17,0,.35.07.52.12l.26-.94c.21.06.42.12.63.2L261,333c.17.05.34.12.5.18l.38-.91.6.27-.42.88.47.26.48-.87.57.33-.52.83.44.31.57-.81c.18.13.36.26.53.4l-.62.77c.14.11.28.22.41.34l.66-.73.48.45-.7.7.37.38.73-.65.43.51-.78.61c.11.14.22.28.32.43l.81-.57c.12.18.25.36.36.55l-.83.52.26.46.87-.47a6.54,6.54,0,0,1,.3.59l-.88.41.2.5.92-.37c.08.2.16.41.23.62l-.93.31.15.51.95-.26c.06.21.11.43.16.64l-1,.21c0,.17.07.35.1.53l1-.16c0,.22.06.44.08.66l-1,.09c0,.18,0,.36.05.54l1-.05v0c0,.22,0,.44,0,.66h-1c0,.17,0,.35,0,.53l1,.07c0,.22,0,.44-.07.66l-1-.13c0,.18-.05.35-.08.53l1,.18c0,.22-.09.43-.14.65l-.95-.24c0,.17-.1.34-.15.51l.94.29c-.07.21-.14.43-.22.63l-.91-.34c-.06.16-.14.32-.21.49l.9.4c-.09.2-.19.4-.29.6l-.87-.46c-.08.16-.17.32-.26.47l.85.5c-.11.19-.23.38-.35.56l-.82-.55c-.1.15-.2.3-.31.44l.79.59-.42.52-.75-.64c-.12.14-.23.27-.36.4l.72.68c-.15.16-.31.31-.47.46l-.67-.72c-.13.13-.27.24-.41.36l.64.75c-.17.15-.34.28-.52.41l-.58-.78-.45.3.55.82-.56.35-.5-.85c-.15.09-.31.17-.47.25l.45.88c-.2.1-.4.2-.6.28l-.39-.9-.5.2.35.92-.63.21-.29-.94-.51.15.23.95-.65.14-.17-1-.53.09.12,1-.66.06-.06-1-.26,0h-.28v1h-.66l.05-1-.54,0-.09,1-.66-.08.15-1-.52-.12-.21,1-.64-.16.27-.95-.52-.16-.31.93-.63-.23.38-.91-.49-.22-.42.89-.59-.3.47-.87-.46-.26-.52.83-.55-.37.57-.8-.43-.33-.61.77-.51-.42.66-.73-.39-.38-.69.7c-.16-.15-.31-.32-.46-.48l.74-.65c-.12-.13-.23-.28-.34-.42l-.78.62c-.13-.17-.27-.35-.39-.53l.81-.57a4.27,4.27,0,0,1-.3-.44l-.84.52-.33-.57.87-.47a4.37,4.37,0,0,1-.25-.48l-.88.42q-.15-.3-.27-.6l.92-.37c-.07-.17-.14-.33-.2-.5l-.92.31c-.07-.2-.14-.42-.2-.63l.95-.26c0-.17-.09-.34-.13-.52l-1,.21-.12-.65,1-.15c0-.18,0-.36-.06-.53l-1,.09c0-.21,0-.42,0-.63v0l1,0c0-.18,0-.36,0-.54h-1c0-.22,0-.45,0-.67l1,.08c0-.18,0-.36.06-.54l-1-.12c0-.22.07-.44.11-.66l1,.19c0-.18.07-.35.12-.52l-1-.24.18-.64.94.3c.06-.17.11-.35.17-.52l-.92-.34.25-.61.91.4c.07-.16.14-.33.22-.49l-.87-.44c.1-.2.21-.39.32-.58l.85.5c.09-.16.18-.31.28-.46l-.82-.54c.12-.19.25-.37.38-.54l.78.59c.11-.15.23-.28.35-.42l-.76-.63c.14-.17.29-.34.44-.5l.72.68c.12-.13.25-.25.38-.37l-.68-.72.49-.44.64.76c.13-.12.27-.23.41-.34l-.58-.79c.17-.13.35-.26.54-.38l.54.83.45-.29-.49-.85.58-.31.44.88a5.24,5.24,0,0,1,.48-.23l-.39-.9c.2-.09.41-.18.61-.25l.34.92a5.08,5.08,0,0,1,.51-.17l-.29-.94c.21-.07.42-.13.64-.18l.23.95.52-.1-.18-1c.22,0,.44-.08.66-.1l.12,1,.53-.05-.07-1,.66,0m-8.9,13.15,3.79-1a6,6,0,0,1-.13-1,5.38,5.38,0,0,1,5.15-5.59h.19a5.81,5.81,0,0,1,.72.05l.7-3.86a9.36,9.36,0,0,0-1.41-.11h-.37a9.3,9.3,0,0,0-8.9,9.67,9.75,9.75,0,0,0,.26,1.81M265,348.19a9.27,9.27,0,0,0-4.54-14.7l-1,3.79a5.36,5.36,0,0,1,3.69,4.87,5.3,5.3,0,0,1-1.12,3.51l3,2.53m-11.8-4.81,2.79-.74a1.48,1.48,0,0,1,0-.19,1.8,1.8,0,0,1,1.73-1.88h.14l.51-2.84c-.2,0-.4,0-.6,0h-.17a4.69,4.69,0,0,0-4.48,4.88,4.27,4.27,0,0,0,.11.81m8.28,1.84a4.62,4.62,0,0,0,1-3,4.67,4.67,0,0,0-3.19-4.24l-.75,2.79a1.79,1.79,0,0,1,.77,2.63l2.2,1.86m-3.71,1.84H258a4.58,4.58,0,0,0,2.88-1.15l-2-2a1.75,1.75,0,0,1-1,.32h-.07a1.78,1.78,0,0,1-1.55-.89l-2.73,1a4.68,4.68,0,0,0,4.28,2.79m0,4.61h.39a9.19,9.19,0,0,0,5.94-2.49l-2.76-2.78a5.38,5.38,0,0,1-3.34,1.35h-.22a5.39,5.39,0,0,1-4.93-3.24l-3.69,1.33a9.31,9.31,0,0,0,8.61,5.83m-.12-21h0c-.23,0-.47,0-.7,0a.8.8,0,0,0-.31.09.85.85,0,0,0-.22,0h-.1l-.7.11a.69.69,0,0,0-.29.12h-.14l-.18,0-.69.19a.78.78,0,0,0-.28.16H254a.86.86,0,0,0-.27.05c-.22.08-.44.17-.65.27a.81.81,0,0,0-.26.18.8.8,0,0,0-.31.09c-.21.1-.42.22-.62.34a.61.61,0,0,0-.24.21.79.79,0,0,0-.3.12c-.2.13-.39.26-.58.41a.61.61,0,0,0-.21.24.64.64,0,0,0-.28.15l-.53.47a.68.68,0,0,0-.18.26.8.8,0,0,0-.27.18c-.16.17-.32.35-.47.53a.76.76,0,0,0-.15.28.69.69,0,0,0-.24.21c-.14.19-.28.38-.41.58a.79.79,0,0,0-.12.3.8.8,0,0,0-.22.23c-.12.21-.23.42-.34.63a.65.65,0,0,0-.08.31.7.7,0,0,0-.19.26c-.1.21-.19.43-.27.65a.89.89,0,0,1-.21.6c-.07.22-.13.45-.19.68a.87.87,0,0,0,0,.32.79.79,0,0,0-.12.3c0,.23-.08.47-.11.7a.69.69,0,0,0,0,.32.8.8,0,0,0-.09.31l0,.71a.81.81,0,0,0,.06.31,1.06,1.06,0,0,0-.05.31c0,.26,0,.48.05.71a.63.63,0,0,0,.1.3.7.7,0,0,0,0,.32c0,.24.08.47.13.7a.7.7,0,0,0,.13.29.69.69,0,0,0,0,.32c.06.23.13.46.2.68a.88.88,0,0,0,.17.28.65.65,0,0,0,0,.31c.09.22.19.44.29.65a.7.7,0,0,0,.19.26.8.8,0,0,0,.09.3c.11.21.23.42.36.62a.8.8,0,0,0,.22.23.81.81,0,0,0,.12.29c.14.19.28.39.43.57a.76.76,0,0,0,.24.2,1,1,0,0,0,.16.28c.16.18.32.35.49.52a1,1,0,0,0,.27.17.68.68,0,0,0,.18.26l.55.46a.62.62,0,0,0,.28.14.84.84,0,0,0,.22.24c.19.14.39.27.59.39a.64.64,0,0,0,.3.11.69.69,0,0,0,.24.21l.63.33a.88.88,0,0,0,.32.07.68.68,0,0,0,.26.18c.22.09.44.18.66.25a.78.78,0,0,0,.26,0h.06a.73.73,0,0,0,.29.15c.23.07.46.12.69.17l.16,0a.44.44,0,0,0,.16,0,.73.73,0,0,0,.3.12c.23,0,.46.07.7.09h.08a1,1,0,0,0,.24,0,.79.79,0,0,0,.31.08h.71a.82.82,0,0,0,.31-.07.75.75,0,0,0,.26.05h.05c.24,0,.48,0,.71-.06a.77.77,0,0,0,.3-.11l.18,0h.14c.23,0,.47-.09.69-.15a.61.61,0,0,0,.29-.14h.1a.57.57,0,0,0,.22,0c.23-.06.45-.14.67-.22a.88.88,0,0,0,.28-.17h0a.82.82,0,0,0,.31-.07c.22-.09.43-.19.64-.3a.82.82,0,0,0,.25-.2.67.67,0,0,0,.3-.1l.61-.37a.8.8,0,0,0,.22-.23.84.84,0,0,0,.29-.13l.56-.44a.7.7,0,0,0,.19-.26.78.78,0,0,0,.28-.16l.5-.5a.77.77,0,0,0,.17-.27.79.79,0,0,0,.25-.2l.44-.55a.86.86,0,0,0,.14-.29.72.72,0,0,0,.23-.23c.13-.19.26-.39.38-.6a.76.76,0,0,0,.1-.3.82.82,0,0,0,.2-.25c.11-.21.21-.42.31-.64a.85.85,0,0,0,.06-.31.8.8,0,0,0,.18-.27c.08-.22.16-.45.23-.68a.85.85,0,0,0,0-.32.92.92,0,0,0,.14-.28c.06-.23.11-.46.15-.7a.69.69,0,0,0,0-.32.64.64,0,0,0,.11-.3c0-.23.06-.47.07-.7a.67.67,0,0,0,0-.32.82.82,0,0,0,.07-.31c0-.24,0-.48,0-.71a.76.76,0,0,0-.08-.33.72.72,0,0,0,0-.33c0-.23-.05-.47-.09-.7a.79.79,0,0,0-.12-.3.58.58,0,0,0,0-.32c-.05-.23-.1-.46-.17-.69a.92.92,0,0,0-.14-.28.88.88,0,0,0,0-.32c-.08-.22-.16-.45-.25-.66a.64.64,0,0,0-.18-.27.67.67,0,0,0-.07-.31c-.1-.21-.21-.43-.32-.63a.85.85,0,0,0-.21-.25.73.73,0,0,0-.11-.3c-.12-.2-.25-.39-.39-.59a.66.66,0,0,0-.23-.21.8.8,0,0,0-.15-.29c-.14-.18-.3-.37-.45-.54a.7.7,0,0,0-.26-.19,1,1,0,0,0-.17-.27l-.52-.49a.85.85,0,0,0-.28-.16.64.64,0,0,0-.2-.24c-.18-.15-.37-.29-.57-.43a.84.84,0,0,0-.29-.13,1,1,0,0,0-.23-.22c-.2-.13-.41-.25-.61-.36a.85.85,0,0,0-.31-.09,1,1,0,0,0-.25-.2c-.22-.1-.44-.2-.65-.28a.79.79,0,0,0-.29-.06h0a.88.88,0,0,0-.28-.17l-.67-.21-.21,0h-.11a.81.81,0,0,0-.3-.13l-.69-.13h-.12a.64.64,0,0,0-.2,0,.71.71,0,0,0-.31-.1l-.71,0h0a.87.87,0,0,0-.28,0,.81.81,0,0,0-.31-.06Zm-8.3,13c0-.3-.07-.59-.09-.88a8.53,8.53,0,0,1,8.17-8.87h.33l.5,0-.43,2.36h-.31a6.15,6.15,0,0,0-5.88,6.39,2.19,2.19,0,0,0,0,.36l-2.32.62Zm11-6.79.62-2.32a8.5,8.5,0,0,1,3.88,12.57l-1.83-1.55a6.11,6.11,0,0,0-2.67-8.7Zm-6.51,5.58a3.91,3.91,0,0,1,3.56-3.92l-.25,1.39a2.57,2.57,0,0,0-2,2.17l-1.35.36Zm5.55-2,.36-1.36a3.89,3.89,0,0,1,1.53,5l-1.07-.9a2.6,2.6,0,0,0,.12-.88,2.57,2.57,0,0,0-.94-1.89Zm-4.79,4.31,1.34-.48a2.6,2.6,0,0,0,1.81.75h.1a2.92,2.92,0,0,0,.78-.16l1,1a3.83,3.83,0,0,1-1.72.48h-.16a3.92,3.92,0,0,1-3.15-1.6Zm-4.42,1.59,2.26-.82a6.16,6.16,0,0,0,5.31,3.06H258a6.16,6.16,0,0,0,3.24-1.09l1.7,1.7a8.5,8.5,0,0,1-4.84,1.77h-.36a8.49,8.49,0,0,1-7.56-4.62Z" />
    <path class="GUNDAN_MONKEY_JEWELRY_MONKEY_JEWELRY_8_cls-6" d="M242.19,366.82a.37.37,0,0,1-.38-.38v-.55h-.1l0,.56a.41.41,0,0,1-.13.27.38.38,0,0,1-.25.09h0l-.63-.07a.38.38,0,0,1-.34-.43l.08-.56h-.09l-.13.54a.39.39,0,0,1-.38.3h-.08a6.25,6.25,0,0,1-.62-.16.38.38,0,0,1-.23-.18.39.39,0,0,1,0-.3l.16-.54-.09,0-.21.52a.38.38,0,0,1-.36.25.35.35,0,0,1-.14,0l-.59-.25a.41.41,0,0,1-.19-.22.39.39,0,0,1,0-.3l.24-.5-.09-.05-.28.48a.4.4,0,0,1-.24.18h-.09a.46.46,0,0,1-.2-.05l-.54-.34a.4.4,0,0,1-.1-.54l.32-.46-.08-.06-.36.43a.38.38,0,0,1-.26.14h0a.44.44,0,0,1-.24-.09l-.48-.42a.36.36,0,0,1-.12-.27.37.37,0,0,1,.1-.28l.37-.4-.06-.07-.41.37a.44.44,0,0,1-.26.1h0a.39.39,0,0,1-.27-.13c-.14-.16-.28-.32-.41-.49a.39.39,0,0,1,.06-.54l.44-.35-.05-.07-.47.3a.36.36,0,0,1-.22.07.38.38,0,0,1-.32-.18c-.11-.17-.23-.36-.33-.54a.42.42,0,0,1,0-.29.44.44,0,0,1,.18-.24l.49-.27a.36.36,0,0,1,0-.09l-.51.23a.32.32,0,0,1-.16,0,.38.38,0,0,1-.35-.23c-.09-.19-.17-.39-.25-.59a.4.4,0,0,1,.23-.5l.52-.2,0-.09-.54.15-.1,0a.4.4,0,0,1-.38-.28l-.15-.62a.37.37,0,0,1,.06-.29.35.35,0,0,1,.24-.17l.55-.12s0-.06,0-.09l-.6.07a.36.36,0,0,1-.24-.09.35.35,0,0,1-.14-.25c0-.21,0-.43-.06-.64a.37.37,0,0,1,.1-.28.43.43,0,0,1,.26-.13l.56,0v-.09l-.56,0a.4.4,0,0,1-.27-.12.42.42,0,0,1-.1-.28c0-.21,0-.42,0-.63a.4.4,0,0,1,.14-.27.41.41,0,0,1,.24-.08l.6.05s0-.06,0-.09l-.55-.11a.38.38,0,0,1-.25-.16.42.42,0,0,1-.06-.29c0-.21.09-.42.14-.62a.37.37,0,0,1,.37-.29h.1l.54.14,0-.09-.53-.19a.47.47,0,0,1-.22-.2.39.39,0,0,1,0-.3c.07-.19.15-.39.23-.59a.37.37,0,0,1,.35-.23.41.41,0,0,1,.16,0l.51.22a.36.36,0,0,0,0-.09l-.49-.26a.43.43,0,0,1-.19-.23.39.39,0,0,1,0-.3l.32-.55a.37.37,0,0,1,.24-.17h.09a.36.36,0,0,1,.2.06l.47.29.06-.08-.44-.33a.37.37,0,0,1-.15-.26.39.39,0,0,1,.07-.29c.13-.16.26-.33.4-.49a.41.41,0,0,1,.3-.14.44.44,0,0,1,.25.1l.42.36.07-.07-.39-.4a.35.35,0,0,1-.11-.27.41.41,0,0,1,.11-.28c.16-.14.31-.29.47-.42a.39.39,0,0,1,.26-.1.4.4,0,0,1,.29.14l.36.42.08-.06-.33-.45a.38.38,0,0,1-.06-.29A.35.35,0,0,1,236,348c.17-.12.34-.24.52-.35a.42.42,0,0,1,.21-.06h.08a.37.37,0,0,1,.25.17l.29.47.08,0-.25-.5a.44.44,0,0,1,0-.3.43.43,0,0,1,.2-.22l.57-.27.15,0,.15,0a.39.39,0,0,1,.21.21l.22.51.09,0-.17-.53a.38.38,0,0,1,.25-.49,6.13,6.13,0,0,1,.61-.18h.09a.4.4,0,0,1,.38.29l.14.54.09,0-.09-.55a.43.43,0,0,1,.07-.29.41.41,0,0,1,.25-.15l.63-.08h0a.38.38,0,0,1,.25.09.38.38,0,0,1,.14.26l0,.55h.09v-.55a.39.39,0,0,1,.11-.27.36.36,0,0,1,.28-.12h0l.63,0a.39.39,0,0,1,.37.41l0,.55h.1l.08-.55a.39.39,0,0,1,.38-.33h.06l.63.12a.37.37,0,0,1,.24.17.33.33,0,0,1,.05.29l-.11.55.09,0,.17-.54a.36.36,0,0,1,.18-.22.41.41,0,0,1,.18-.05l.12,0,.6.21a.36.36,0,0,1,.22.2.44.44,0,0,1,0,.3l-.2.51.09,0,.24-.5a.41.41,0,0,1,.22-.19.3.3,0,0,1,.13,0,.35.35,0,0,1,.17,0,6,6,0,0,1,.56.3.38.38,0,0,1,.15.52l-.28.49.08.05.32-.46a.42.42,0,0,1,.25-.16h.07a.44.44,0,0,1,.22.07l.51.38a.4.4,0,0,1,.14.26.38.38,0,0,1-.08.29l-.35.43.08.07.38-.41a.45.45,0,0,1,.27-.12h0a.39.39,0,0,1,.27.11l.44.45a.43.43,0,0,1,.11.28.41.41,0,0,1-.13.27l-.4.38.06.07.44-.34a.4.4,0,0,1,.23-.08H250a.4.4,0,0,1,.26.15,6.15,6.15,0,0,1,.37.52.38.38,0,0,1-.1.53l-.46.32,0,.08.5-.27a.29.29,0,0,1,.18-.05h.11a.39.39,0,0,1,.23.19c.1.18.2.37.29.56a.39.39,0,0,1,0,.3.43.43,0,0,1-.2.22l-.5.24,0,.08.52-.19.14,0a.32.32,0,0,1,.16,0,.41.41,0,0,1,.2.21c.07.2.14.41.2.61a.37.37,0,0,1,0,.29.39.39,0,0,1-.23.19l-.54.16s0,.06,0,.09l.55-.11h.08a.4.4,0,0,1,.21.07.39.39,0,0,1,.17.25c0,.2.07.41.1.62a.38.38,0,0,1-.07.29.46.46,0,0,1-.26.15l-.55.07v.1l.57,0a.4.4,0,0,1,.26.1.41.41,0,0,1,.13.27c0,.24,0,.45,0,.66a.38.38,0,0,1-.38.38h-.57v.09l.56.06a.39.39,0,0,1,.34.43q0,.31-.09.63a.38.38,0,0,1-.38.32h-.06l-.55-.1s0,.06,0,.09l.53.15a.39.39,0,0,1,.28.47c-.06.21-.12.41-.19.61a.39.39,0,0,1-.37.27l-.12,0-.53-.18a.3.3,0,0,1,0,.08l.52.23a.4.4,0,0,1,.2.22.37.37,0,0,1,0,.29c-.08.2-.18.39-.27.58a.41.41,0,0,1-.53.16l-.49-.26,0,.08.47.31a.39.39,0,0,1,.12.53l-.36.53a.43.43,0,0,1-.26.15h-.06a.34.34,0,0,1-.22-.07l-.45-.33-.06.07.41.37a.39.39,0,0,1,0,.55c-.14.16-.29.31-.44.46a.35.35,0,0,1-.27.11.38.38,0,0,1-.28-.11l-.39-.4-.07.07.36.43a.39.39,0,0,1-.05.54l-.51.39a.35.35,0,0,1-.22.08.42.42,0,0,1-.32-.16l-.32-.44-.08.05.28.47a.37.37,0,0,1,.05.29.4.4,0,0,1-.18.24l-.55.31a.41.41,0,0,1-.18,0l-.12,0a.39.39,0,0,1-.23-.19L246,365l-.08,0,.21.52a.38.38,0,0,1-.21.5c-.2.08-.4.16-.6.22a.25.25,0,0,1-.12,0,.33.33,0,0,1-.17,0,.4.4,0,0,1-.2-.22l-.17-.53-.1,0,.13.54a.39.39,0,0,1-.28.47l-.63.12h-.06a.39.39,0,0,1-.23-.07.37.37,0,0,1-.15-.25l-.1-.56-.09,0,0,.56a.37.37,0,0,1-.09.28.35.35,0,0,1-.27.13l-.4,0Zm-4.16-5a6.68,6.68,0,0,0,3.54,1.3l0-1.15a5.4,5.4,0,0,1-2.73-1Zm4.95,1.24a6.67,6.67,0,0,0,3.43-1.59l-.84-.78a5.45,5.45,0,0,1-2.63,1.22Zm-7.58-5.63a6.67,6.67,0,0,0,1.59,3.43l.78-.84a5.45,5.45,0,0,1-1.22-2.63Zm4.33,2.54a4.22,4.22,0,0,0,1.74.64l-.1-2.42Zm3.15.58a4.24,4.24,0,0,0,1.68-.78l-1.78-1.64Zm4.49-.12a6.68,6.68,0,0,0,1.3-3.54l-1.15,0a5.33,5.33,0,0,1-1,2.72Zm-9.46-3.1a4.18,4.18,0,0,0,.78,1.68l1.64-1.78Zm7.61,1.4a4.22,4.22,0,0,0,.64-1.74l-2.42.1Zm-8.88-6.25a6.68,6.68,0,0,0-1.3,3.54l1.15,0a5.4,5.4,0,0,1,1-2.73Zm1.85,1.7a4.22,4.22,0,0,0-.64,1.74l2.42-.1Zm5.19,1.5,2.42-.1a4.12,4.12,0,0,0-.78-1.68Zm2.56-2.79a5.45,5.45,0,0,1,1.22,2.63l1.15,0A6.63,6.63,0,0,0,247,352Zm-5,1.89-.1-2.42a4.12,4.12,0,0,0-1.68.78Zm1.41-.06,1.64-1.78a4.22,4.22,0,0,0-1.74-.64Zm-4.2-2.5a5.45,5.45,0,0,1,2.63-1.22l0-1.15a6.63,6.63,0,0,0-3.43,1.59Zm4-1.28a5.4,5.4,0,0,1,2.73,1l.77-.85a6.6,6.6,0,0,0-3.54-1.3Z" />
    <path d="M242,346.45h.56l0,.94a7.77,7.77,0,0,1,.83.08l.13-.92c.2,0,.41.06.61.11l-.2.92a8,8,0,0,1,.81.21l.27-.9.59.2-.34.87c.26.1.52.21.77.33l.41-.84.54.29-.47.82c.25.14.48.28.71.44l.54-.77.49.37-.58.73c.21.17.42.36.62.55l.65-.68c.15.14.29.29.43.44l-.68.63c.18.21.36.42.53.64l.74-.57a5.6,5.6,0,0,1,.36.49l-.78.53a6.46,6.46,0,0,1,.44.71l.82-.46c.1.18.2.37.28.55l-.84.4c.12.25.22.5.32.77l.88-.32c.07.19.13.38.19.58l-.9.27c.07.26.14.53.19.8l.93-.18c0,.2.07.4.1.6l-.93.13a7.53,7.53,0,0,1,.08.83l.93,0v0c0,.2,0,.41,0,.61h-.94c0,.28,0,.55-.06.83l.94.1c0,.2-.05.41-.09.61l-.92-.16a7.84,7.84,0,0,1-.18.81l.9.24a5.76,5.76,0,0,1-.18.59l-.89-.3c-.09.26-.19.52-.3.77l.86.39c-.08.18-.17.37-.27.55l-.83-.44q-.19.38-.42.72l.79.51-.35.51-.75-.56a8.22,8.22,0,0,1-.52.65l.7.62-.42.45-.67-.67a8.09,8.09,0,0,1-.61.56l.6.73-.48.37-.55-.75c-.23.16-.46.32-.7.46l.48.8a5.54,5.54,0,0,1-.53.3l-.44-.84a6.41,6.41,0,0,1-.75.35l.35.87c-.18.08-.38.15-.57.22l-.3-.89a7.32,7.32,0,0,1-.8.23l.22.91-.6.12-.16-.92c-.28,0-.55.08-.83.1l.08.94-.39,0h-.23v-.94H242c-.21,0-.41,0-.62,0l-.06.93a6,6,0,0,1-.61-.06l.12-.93c-.28,0-.55-.09-.82-.15l-.21.92-.59-.16.27-.9c-.27-.08-.53-.17-.79-.27l-.35.87c-.19-.07-.38-.16-.56-.24l.4-.85c-.25-.12-.5-.25-.74-.39l-.47.81-.52-.33.53-.78a8.33,8.33,0,0,1-.67-.5l-.6.73-.46-.4.64-.69a8.21,8.21,0,0,1-.59-.59l-.69.62c-.14-.15-.27-.31-.4-.47l.74-.58c-.17-.22-.34-.44-.49-.67l-.78.51c-.12-.17-.22-.35-.32-.52l.81-.47c-.14-.24-.26-.48-.38-.74l-.85.39c-.09-.19-.16-.38-.24-.57l.88-.33c-.1-.26-.18-.52-.26-.79l-.9.25a5.66,5.66,0,0,1-.15-.59l.92-.2c-.06-.27-.1-.54-.14-.82l-.93.11c0-.2,0-.41-.05-.61l.93,0c0-.05,0-.1,0-.15,0-.23,0-.46,0-.69l-.93,0c0-.2,0-.41,0-.61l.94.09a7.36,7.36,0,0,1,.12-.82l-.93-.18c0-.2.08-.4.14-.6l.9.23c.07-.27.15-.53.24-.79l-.88-.31c.07-.2.14-.39.22-.58l.87.37q.17-.37.36-.75l-.83-.44c.1-.18.2-.36.31-.53l.79.49c.15-.24.31-.47.47-.69l-.74-.56.38-.48.72.61a8.08,8.08,0,0,1,.57-.6l-.66-.68c.15-.14.3-.28.46-.41l.61.71a8.11,8.11,0,0,1,.65-.51l-.54-.77.51-.34.49.8c.24-.15.48-.28.73-.41l-.42-.83c.18-.1.37-.18.55-.26l.37.86c.26-.11.52-.2.78-.29l-.29-.89c.2-.07.4-.12.59-.17l.23.9a7.43,7.43,0,0,1,.82-.16l-.15-.93.61-.07.09.93c.17,0,.33,0,.5,0H242v-.94h0m3.24,6,1.3-1.42a7.06,7.06,0,0,0-4.52-1.65l.08,1.91a5.13,5.13,0,0,1,3.14,1.16m-6.81.28a5.13,5.13,0,0,1,3-1.41l-.08-1.91a7,7,0,0,0-4.36,2l1.41,1.3m8.69,3.18,1.91-.08a7,7,0,0,0-2-4.36l-1.3,1.41a5.13,5.13,0,0,1,1.41,3m-4.84-.25,2.57-2.79a4.6,4.6,0,0,0-2.72-1l.15,3.79m-7.35.76,1.91-.08A5.11,5.11,0,0,1,238,353.2l-1.41-1.3a7,7,0,0,0-1.66,4.52m6.71-.73-.15-3.79a4.54,4.54,0,0,0-2.63,1.22l2.78,2.57m1.11.4,3.79-.15a4.54,4.54,0,0,0-1.22-2.63l-2.57,2.78m-5.33.22,3.79-.15-2.79-2.57a4.6,4.6,0,0,0-1,2.72m10,4.68a7,7,0,0,0,1.66-4.52l-1.91.08a5.13,5.13,0,0,1-1.16,3.14l1.41,1.3m-1.83-1.69a4.6,4.6,0,0,0,1-2.73l-3.79.16,2.79,2.57m-6.9.28,2.57-2.78-3.79.15a4.54,4.54,0,0,0,1.22,2.63M237,361.42l1.3-1.41a5.13,5.13,0,0,1-1.41-3l-1.91.07a7,7,0,0,0,2,4.37m5.52-.43a4.54,4.54,0,0,0,2.63-1.22l-2.78-2.57.15,3.79m-.64,0-.15-3.78L239.15,360a4.52,4.52,0,0,0,2.72,1m.75,2.47a7,7,0,0,0,4.36-2l-1.41-1.3a5.13,5.13,0,0,1-3,1.41l.08,1.91m-.64,0-.08-1.92a5.06,5.06,0,0,1-3.14-1.15l-1.3,1.41a7,7,0,0,0,4.52,1.66m0-17.83H242a.74.74,0,0,0-.48.17.8.8,0,0,0-.43-.13H241l-.66.08a.76.76,0,0,0-.45.25.73.73,0,0,0-.33-.08l-.19,0-.63.18a.76.76,0,0,0-.41.31.78.78,0,0,0-.22,0,.82.82,0,0,0-.3.07l-.6.27a.83.83,0,0,0-.36.38h-.09a.73.73,0,0,0-.41.12c-.19.11-.37.24-.55.36a.87.87,0,0,0-.3.43.79.79,0,0,0-.48.18l-.49.45a.77.77,0,0,0-.22.46.72.72,0,0,0-.45.26c-.15.16-.28.34-.42.51a.75.75,0,0,0-.15.49.82.82,0,0,0-.41.33l-.33.57a.83.83,0,0,0-.08.51.81.81,0,0,0-.35.38l-.24.62a.81.81,0,0,0,0,.51.79.79,0,0,0-.28.43c-.06.22-.11.43-.15.65a.82.82,0,0,0,.08.51.82.82,0,0,0-.22.47c0,.22,0,.44,0,.66a.84.84,0,0,0,.16.49.77.77,0,0,0-.15.49l.06.66a.75.75,0,0,0,.23.46.84.84,0,0,0-.07.52c.05.21.1.43.16.64a.75.75,0,0,0,.3.42.77.77,0,0,0,0,.52c.08.2.16.41.25.61a.88.88,0,0,1,.45.88c.11.19.23.38.35.56a.8.8,0,0,0,.41.32.81.81,0,0,0,.17.49c.13.17.28.34.42.5a.81.81,0,0,0,.46.25.74.74,0,0,0,.24.45c.16.15.32.3.49.44a.83.83,0,0,0,.49.17.77.77,0,0,0,.31.42l.55.35a.8.8,0,0,0,.4.11H237a.76.76,0,0,0,.37.36l.6.27a.74.74,0,0,0,.29.05.85.85,0,0,0,.23,0,.76.76,0,0,0,.42.3c.21.07.43.12.64.17l.17,0a.77.77,0,0,0,.34-.08.79.79,0,0,0,.46.24l.66.06h.06a.77.77,0,0,1,.91,0h.26l.42,0a.81.81,0,0,0,.47-.21.79.79,0,0,0,.37.1l.14,0c.21,0,.43-.08.64-.13a.77.77,0,0,0,.44-.28.86.86,0,0,0,.27.05.73.73,0,0,0,.25,0l.61-.23a.77.77,0,0,0,.39-.34h.16A.85.85,0,0,0,247,366c.2-.11.39-.21.58-.33a.77.77,0,0,0,.33-.4h0a.81.81,0,0,0,.45-.15c.18-.13.36-.27.52-.41a.94.94,0,0,1,.73-.67c.16-.15.31-.31.46-.48a.76.76,0,0,0,.19-.48.77.77,0,0,0,.43-.28c.13-.18.25-.36.37-.55a.75.75,0,0,0,.12-.5.78.78,0,0,0,.38-.36c.1-.19.2-.39.29-.59a.85.85,0,0,0,0-.52.8.8,0,0,0,.32-.4c.07-.21.13-.42.19-.63a.77.77,0,0,0,0-.52.75.75,0,0,0,.25-.45c0-.22.07-.44.1-.66a.79.79,0,0,0-.12-.5.75.75,0,0,0,.18-.48c0-.22,0-.44,0-.66a.78.78,0,0,0-.19-.5.82.82,0,0,0,.11-.51c0-.22-.07-.44-.11-.65a.8.8,0,0,0-.27-.44.77.77,0,0,0,0-.52q-.09-.31-.21-.63a.77.77,0,0,0-.33-.4.7.7,0,0,0,0-.51,6.54,6.54,0,0,0-.3-.59.76.76,0,0,0-.39-.34.7.7,0,0,0-.13-.5l-.38-.54a.8.8,0,0,0-.44-.28.77.77,0,0,0-.2-.47l-.47-.47a.73.73,0,0,0-.47-.21.78.78,0,0,0-.27-.44,6.55,6.55,0,0,0-.53-.39.79.79,0,0,0-.44-.14h-.06a.76.76,0,0,0-.34-.39l-.58-.31a.84.84,0,0,0-.34-.08l-.18,0a.71.71,0,0,0-.39-.33l-.63-.22a.85.85,0,0,0-.23,0,.71.71,0,0,0-.28.06.8.8,0,0,0-.44-.27l-.65-.12h-.12a.77.77,0,0,0-.39.11.8.8,0,0,0-.48-.2Zm.85,4.9,0-.37a6.2,6.2,0,0,1,2.56.94l-.25.27a5.93,5.93,0,0,0-2.29-.84Zm-4.67.86a6.27,6.27,0,0,1,2.47-1.14v.37a5.74,5.74,0,0,0-2.21,1l-.27-.26Zm8.56,1.46.26-.28a6.46,6.46,0,0,1,1.14,2.48h-.37a5.74,5.74,0,0,0-1-2.21Zm-3.76.86,0-1a3.93,3.93,0,0,1,.72.27l-.68.73Zm-2.92-.58a3.64,3.64,0,0,1,.69-.33l0,1-.73-.67Zm-4.3,2.43a6.2,6.2,0,0,1,.94-2.56l.27.25a5.93,5.93,0,0,0-.84,2.29l-.37,0Zm8.82-.37.68-.73a4.37,4.37,0,0,1,.33.69l-1,0Zm-6.27.26a3.67,3.67,0,0,1,.27-.72l.74.68-1,0Zm9.55,1.8.37,0a6.25,6.25,0,0,1-.94,2.56l-.27-.26a5.82,5.82,0,0,0,.84-2.28Zm-3.19.13,1,0a4.22,4.22,0,0,1-.27.72l-.74-.68Zm-6.27.26,1-.05-.68.74a3.64,3.64,0,0,1-.33-.69Zm-2.55.1h.37a5.74,5.74,0,0,0,1,2.21l-.26.27a6.41,6.41,0,0,1-1.14-2.47Zm7.39,2.25,0-1,.73.68a4.37,4.37,0,0,1-.69.33Zm-2.91-.18.68-.74,0,1a4.82,4.82,0,0,1-.72-.27Zm3,2.36a5.89,5.89,0,0,0,2.21-1l.27.26a6.41,6.41,0,0,1-2.47,1.14v-.37Zm-4.73-.48.25-.27a5.93,5.93,0,0,0,2.29.84l0,.37a6.2,6.2,0,0,1-2.56-.94Z" />
    <path class="GUNDAN_MONKEY_JEWELRY_MONKEY_JEWELRY_8_cls-4" d="M223.44,364.27a3.92,3.92,0,0,1-.16-7.83h.17a3.91,3.91,0,0,1,.16,7.82Zm-.08-6.08a2.17,2.17,0,0,0-2.08,2.25,2.17,2.17,0,1,0,2.17-2.25Z" />
    <path d="M223.45,356.83a3.53,3.53,0,0,1,.14,7.05h-.15a3.53,3.53,0,0,1-.14-7.05h.15m0,6.08h.11a2.56,2.56,0,0,0-.1-5.11h-.11a2.56,2.56,0,0,0,.1,5.11m0-6.86h-.18a4.3,4.3,0,0,0,.17,8.59h.18a4.28,4.28,0,0,0,3-1.39,4.23,4.23,0,0,0,1.13-3.08,4.28,4.28,0,0,0-4.29-4.13Zm0,6.09a1.79,1.79,0,0,1-.07-3.57h.08a1.78,1.78,0,0,1,1.31,3,1.8,1.8,0,0,1-1.24.57Z" />
    <path class="GUNDAN_MONKEY_JEWELRY_MONKEY_JEWELRY_8_cls-4" d="M223.44,365.72a5.37,5.37,0,0,1-.22-10.73h.23a5.37,5.37,0,0,1,.22,10.73Zm-.18-9.73a4.37,4.37,0,0,0-3,1.41,4.36,4.36,0,0,0,3.22,7.32h.18a4.37,4.37,0,0,0-.18-8.73Z" />
    <path d="M223.45,355.37a5,5,0,0,1,.2,10h-.21a5,5,0,0,1-.2-10h.21m0,9.74h.2a4.75,4.75,0,0,0-.19-9.5h-.2a4.76,4.76,0,0,0,.19,9.51m0-10.51h-.24a5.77,5.77,0,0,0-4,1.86,5.76,5.76,0,0,0,4.23,9.65h.24a5.75,5.75,0,0,0-.23-11.5Zm0,9.73a4,4,0,0,1-.16-7.95h.17a4,4,0,0,1,.16,8Z" />
    <path class="GUNDAN_MONKEY_JEWELRY_MONKEY_JEWELRY_8_cls-4" d="M223.44,370.28a11,11,0,0,1-1.41-.1.39.39,0,0,1-.33-.44l.06-.46a8.76,8.76,0,0,1-2.17-.71l-.22.42a.39.39,0,0,1-.23.19H219a.34.34,0,0,1-.18,0,9.24,9.24,0,0,1-1.54-1,.39.39,0,0,1-.15-.26.4.4,0,0,1,.08-.28l.29-.37a8.82,8.82,0,0,1-1.53-1.7l-.4.25a.31.31,0,0,1-.21.06.39.39,0,0,1-.32-.17,10.14,10.14,0,0,1-.84-1.64.39.39,0,0,1,0-.3.37.37,0,0,1,.21-.2l.44-.18a9,9,0,0,1-.49-2.23h-.47a.38.38,0,0,1-.27-.1.39.39,0,0,1-.12-.28,10,10,0,0,1,.09-1.82.41.41,0,0,1,.15-.25.4.4,0,0,1,.23-.08h.06l.46.07a9.1,9.1,0,0,1,.7-2.18l-.41-.22a.38.38,0,0,1-.19-.22.39.39,0,0,1,0-.3,9.66,9.66,0,0,1,1-1.54.37.37,0,0,1,.3-.15.43.43,0,0,1,.24.08l.36.29a9.13,9.13,0,0,1,1.7-1.53l-.25-.4a.41.41,0,0,1-.05-.29.35.35,0,0,1,.17-.24,10.47,10.47,0,0,1,1.63-.84l.15,0a.39.39,0,0,1,.36.24l.17.43a9.42,9.42,0,0,1,2.24-.48l0-.46a.38.38,0,0,1,.36-.4h.44a9.32,9.32,0,0,1,1.4.1.38.38,0,0,1,.33.44l-.06.45a9.42,9.42,0,0,1,2.18.71l.21-.41a.39.39,0,0,1,.23-.19.22.22,0,0,1,.11,0,.34.34,0,0,1,.18,0,10.51,10.51,0,0,1,1.55,1,.38.38,0,0,1,.14.26.36.36,0,0,1-.08.28l-.29.37a9.13,9.13,0,0,1,1.54,1.69l.39-.25a.42.42,0,0,1,.21-.06.41.41,0,0,1,.33.18,10.14,10.14,0,0,1,.84,1.64.38.38,0,0,1-.22.5l-.43.17a9.16,9.16,0,0,1,.49,2.24l.47,0a.39.39,0,0,1,.39.37,9.51,9.51,0,0,1-.09,1.86.39.39,0,0,1-.38.33h-.06l-.46-.07a9,9,0,0,1-.71,2.18l.42.21a.39.39,0,0,1,.16.53,10.41,10.41,0,0,1-1,1.54.38.38,0,0,1-.26.14h0a.34.34,0,0,1-.24-.09l-.37-.29a9.22,9.22,0,0,1-1.7,1.54l.25.39a.38.38,0,0,1-.12.53,9.65,9.65,0,0,1-1.63.84l-.15,0a.39.39,0,0,1-.36-.24l-.17-.43a9.42,9.42,0,0,1-2.24.48l0,.46a.35.35,0,0,1-.11.28.36.36,0,0,1-.28.12Zm-.28-16.8a6.88,6.88,0,0,0,.28,13.75h.29a6.88,6.88,0,0,0-.28-13.76Z" />
    <path d="M223.45,350.82a10.2,10.2,0,0,1,1.35.09l-.12.83a8.72,8.72,0,0,1,2.78.9l.39-.75a10.52,10.52,0,0,1,1.49,1l-.52.67a8.79,8.79,0,0,1,2,2.16l.71-.45a9.72,9.72,0,0,1,.81,1.57l-.78.31a8.75,8.75,0,0,1,.62,2.86l.83,0v0a9.4,9.4,0,0,1-.08,1.76l-.84-.12a8.48,8.48,0,0,1-.9,2.78l.75.4a10.42,10.42,0,0,1-1,1.48l-.67-.52a8.83,8.83,0,0,1-2.17,2l.46.71a9.37,9.37,0,0,1-1.58.8l-.31-.78a8.75,8.75,0,0,1-2.86.62l0,.83h-.41a8.89,8.89,0,0,1-1.36-.1l.12-.83a8.56,8.56,0,0,1-2.78-.9l-.39.75a10.42,10.42,0,0,1-1.48-1l.52-.67a8.77,8.77,0,0,1-2-2.16l-.72.45a10.54,10.54,0,0,1-.8-1.57l.78-.32a8.5,8.5,0,0,1-.61-2.86l-.84,0h0A9.25,9.25,0,0,1,214,359l.84.11a8.64,8.64,0,0,1,.9-2.78l-.75-.39a9.61,9.61,0,0,1,1-1.48l.66.52a8.82,8.82,0,0,1,2.17-2l-.45-.71a9,9,0,0,1,1.57-.81l.31.78a8.75,8.75,0,0,1,2.86-.62l0-.83h.41m0,16.8h.31a7.26,7.26,0,0,0-.3-14.52h-.3a7.27,7.27,0,0,0,.29,14.53m0-17.58H223a.76.76,0,0,0-.54.25.82.82,0,0,0-.22.56v.1a9,9,0,0,0-1.62.34l0-.09a.79.79,0,0,0-.42-.42.78.78,0,0,0-.3-.07.72.72,0,0,0-.29.06,10.89,10.89,0,0,0-1.7.87.79.79,0,0,0-.24,1.07l.06.09a9.12,9.12,0,0,0-1.22,1.1l-.08-.06a.77.77,0,0,0-1.09.13,11.24,11.24,0,0,0-1,1.6.81.81,0,0,0-.05.59.79.79,0,0,0,.38.46l.09,0a11.06,11.06,0,0,0-.51,1.57H214a.77.77,0,0,0-.76.67,10.84,10.84,0,0,0-.1,1.89.78.78,0,0,0,.78.75h.13a10,10,0,0,0,.34,1.61l-.09,0a.74.74,0,0,0-.42.41.76.76,0,0,0,0,.59,10.47,10.47,0,0,0,.87,1.7.74.74,0,0,0,.49.34.44.44,0,0,0,.16,0,.79.79,0,0,0,.42-.12l.09-.05a10.54,10.54,0,0,0,1.1,1.22l-.06.08a.73.73,0,0,0-.16.57.74.74,0,0,0,.29.51,9.74,9.74,0,0,0,1.6,1,.74.74,0,0,0,.36.09.91.91,0,0,0,.23,0,.81.81,0,0,0,.45-.38l0-.09a10.66,10.66,0,0,0,1.57.51v.09a.77.77,0,0,0,.65.88,10.37,10.37,0,0,0,1.47.1h.43a.78.78,0,0,0,.54-.25.8.8,0,0,0,.21-.56v-.1a9,9,0,0,0,1.62-.34l0,.09a.79.79,0,0,0,.42.42.63.63,0,0,0,.3.07.72.72,0,0,0,.29-.06,10.09,10.09,0,0,0,1.7-.87.78.78,0,0,0,.24-1.07l-.06-.08a10,10,0,0,0,1.23-1.11l.08.07a.79.79,0,0,0,.48.16H231a.78.78,0,0,0,.51-.29,9.74,9.74,0,0,0,1-1.6.78.78,0,0,0-.32-1.05l-.09,0a10.29,10.29,0,0,0,.51-1.57l.1,0h.11a.77.77,0,0,0,.76-.67,11,11,0,0,0,.1-1.91.8.8,0,0,0-.25-.54.79.79,0,0,0-.53-.22h-.13a8.71,8.71,0,0,0-.35-1.61l.1,0a.78.78,0,0,0,.43-1,10.14,10.14,0,0,0-.88-1.7.77.77,0,0,0-1.06-.23l-.09.05a9.13,9.13,0,0,0-1.11-1.22l.07-.08a.82.82,0,0,0,.16-.57.78.78,0,0,0-.29-.51,10.27,10.27,0,0,0-1.61-1,.76.76,0,0,0-1,.33l0,.09a8.72,8.72,0,0,0-1.57-.51V351a.77.77,0,0,0-.65-.87,10.14,10.14,0,0,0-1.46-.11Zm0,16.81a6.49,6.49,0,0,1-.26-13h.27a6.49,6.49,0,0,1,.26,13Z" />
    <path class="GUNDAN_MONKEY_JEWELRY_MONKEY_JEWELRY_8_cls-7" d="M234.44,380.54a.66.66,0,0,1-.66-.63l0-.55h-.1l-.13.54a.64.64,0,0,1-.64.51h-.14l-.46-.1a.67.67,0,0,1-.5-.79l.12-.54-.1,0-.25.49a.67.67,0,0,1-.59.36.64.64,0,0,1-.3-.08l-.42-.22a.64.64,0,0,1-.32-.38.62.62,0,0,1,0-.5l.25-.5-.08-.06-.38.41a.63.63,0,0,1-.48.21.66.66,0,0,1-.45-.17l-.34-.32a.67.67,0,0,1-.22-.46.69.69,0,0,1,.18-.47l.37-.41-.06-.08-.47.3a.67.67,0,0,1-.91-.2l-.25-.4a.65.65,0,0,1,.2-.91l.47-.29-.05-.1-.53.16a.58.58,0,0,1-.19,0,.66.66,0,0,1-.63-.46l-.14-.44a.67.67,0,0,1,.43-.83l.53-.16v-.11l-.56,0a.68.68,0,0,1-.69-.64l0-.46a.7.7,0,0,1,.18-.48.66.66,0,0,1,.46-.21l.55,0s0-.07,0-.11l-.54-.12a.64.64,0,0,1-.41-.29.61.61,0,0,1-.09-.49l.1-.46a.67.67,0,0,1,.64-.52l.15,0,.54.12a.42.42,0,0,1,0-.1l-.49-.26a.62.62,0,0,1-.33-.38.7.7,0,0,1,.05-.51L227,368a.66.66,0,0,1,.59-.35.78.78,0,0,1,.3.07l.49.26.07-.09-.41-.37a.67.67,0,0,1-.22-.46.69.69,0,0,1,.18-.47l.32-.35a.67.67,0,0,1,.48-.21.64.64,0,0,1,.45.18l.4.37.09-.07-.3-.47a.63.63,0,0,1-.09-.5.71.71,0,0,1,.29-.41l.4-.24a.61.61,0,0,1,.35-.11.66.66,0,0,1,.55.31l.3.47.1-.05-.17-.53a.67.67,0,0,1,.43-.82l.45-.14.2,0a.67.67,0,0,1,.63.46l.16.53.11,0,0-.55a.67.67,0,0,1,.63-.69l.47,0a.67.67,0,0,1,.69.63l0,.56h.11l.12-.54a.65.65,0,0,1,.64-.52l.15,0,.45.1a.66.66,0,0,1,.5.79l-.12.54.1,0,.25-.49a.68.68,0,0,1,.59-.35.78.78,0,0,1,.3.07l.42.22a.67.67,0,0,1,.28.89l-.26.49.08.06.38-.4a.64.64,0,0,1,.48-.22.63.63,0,0,1,.45.18l.34.31a.65.65,0,0,1,0,.93l-.37.41.06.08.47-.29a.64.64,0,0,1,.91.2l.25.39a.64.64,0,0,1,.09.5.64.64,0,0,1-.29.41l-.47.3,0,.1.52-.17.2,0a.66.66,0,0,1,.63.47l.14.44a.65.65,0,0,1-.43.82l-.53.17,0,.1.55,0a.67.67,0,0,1,.69.63l0,.47a.67.67,0,0,1-.63.69l-.56,0v.1l.54.12a.67.67,0,0,1,.5.79l-.1.46a.67.67,0,0,1-.64.51h-.15l-.54-.12a.36.36,0,0,1,0,.09l.49.26a.67.67,0,0,1,.33.39.63.63,0,0,1,0,.5l-.21.41a.67.67,0,0,1-.59.36.64.64,0,0,1-.3-.08l-.5-.26a.47.47,0,0,1-.06.09l.41.38a.65.65,0,0,1,0,.93l-.32.34a.62.62,0,0,1-.48.22.67.67,0,0,1-.45-.18l-.4-.38-.09.07.3.47a.67.67,0,0,1-.2.91l-.4.25a.6.6,0,0,1-.35.1.65.65,0,0,1-.55-.3l-.3-.47-.1,0,.17.53a.67.67,0,0,1-.43.83l-.45.14-.2,0a.67.67,0,0,1-.63-.46l-.16-.54-.11,0,0,.56a.69.69,0,0,1-.18.47.62.62,0,0,1-.46.21Zm-.28-13.1a4.71,4.71,0,0,0,.19,9.41h.2a4.7,4.7,0,0,0-.19-9.4Z" />
    <path d="M234.27,364.13a.27.27,0,0,1,.27.26l0,.91a6.83,6.83,0,0,1,.78.06l.19-.88a.27.27,0,0,1,.27-.21h.06l.45.1a.27.27,0,0,1,.21.32l-.2.88c.25.08.5.17.74.27l.42-.8a.26.26,0,0,1,.24-.14l.12,0,.42.21a.28.28,0,0,1,.11.37l-.42.8a7.33,7.33,0,0,1,.64.45l.61-.66a.28.28,0,0,1,.2-.09.26.26,0,0,1,.19.07l.34.32a.27.27,0,0,1,0,.38l-.62.67a7.34,7.34,0,0,1,.51.6l.76-.49a.28.28,0,0,1,.15,0,.29.29,0,0,1,.23.13l.25.39a.28.28,0,0,1-.09.38l-.76.48c.12.23.23.47.33.71l.86-.27h.08a.27.27,0,0,1,.26.19l.14.44a.27.27,0,0,1-.18.34l-.86.28a6.35,6.35,0,0,1,.13.76l.91,0h0a.27.27,0,0,1,.27.26l0,.46a.28.28,0,0,1-.26.29l-.91,0a6.48,6.48,0,0,1-.07.77l.89.2a.27.27,0,0,1,.2.33l-.1.45a.27.27,0,0,1-.26.21h-.06l-.89-.2a6.49,6.49,0,0,1-.26.74l.79.41a.27.27,0,0,1,.12.37l-.22.42a.26.26,0,0,1-.24.14l-.12,0-.81-.42a5.31,5.31,0,0,1-.45.64l.67.61a.28.28,0,0,1,0,.39l-.32.34a.27.27,0,0,1-.2.09.29.29,0,0,1-.18-.07l-.67-.62a5.68,5.68,0,0,1-.6.5l.49.77a.26.26,0,0,1-.09.37l-.39.25a.3.3,0,0,1-.15.05.28.28,0,0,1-.23-.13l-.48-.76a6.43,6.43,0,0,1-.71.32l.27.87a.28.28,0,0,1-.18.34l-.45.14h-.08a.28.28,0,0,1-.26-.19l-.27-.86c-.25.05-.51.1-.77.13l0,.9a.28.28,0,0,1-.26.29l-.47,0h0a.28.28,0,0,1-.27-.26l0-.91a6.85,6.85,0,0,1-.78-.07l-.19.89a.28.28,0,0,1-.27.21h-.06l-.46-.1a.28.28,0,0,1-.2-.33l.2-.88a5.05,5.05,0,0,1-.74-.27l-.42.8a.26.26,0,0,1-.24.15l-.12,0-.42-.22a.27.27,0,0,1-.11-.37l.42-.8a7.33,7.33,0,0,1-.64-.45l-.61.67a.28.28,0,0,1-.2.09.27.27,0,0,1-.19-.08l-.34-.31a.28.28,0,0,1,0-.39l.62-.66a7.34,7.34,0,0,1-.51-.6l-.76.48a.3.3,0,0,1-.15.05.29.29,0,0,1-.23-.13l-.25-.4a.27.27,0,0,1,.09-.37l.76-.48c-.12-.23-.23-.47-.33-.71l-.86.26-.08,0a.28.28,0,0,1-.26-.19l-.14-.45a.27.27,0,0,1,.18-.34l.86-.27a6.51,6.51,0,0,1-.13-.77l-.91,0h0a.28.28,0,0,1-.27-.26l0-.47a.26.26,0,0,1,.26-.28l.91,0a6.85,6.85,0,0,1,.07-.78l-.89-.2a.26.26,0,0,1-.2-.32l.1-.46a.28.28,0,0,1,.27-.21h0l.89.2a5.88,5.88,0,0,1,.26-.74l-.8-.42a.27.27,0,0,1-.11-.37l.22-.41a.27.27,0,0,1,.24-.14.18.18,0,0,1,.12,0l.8.42a5,5,0,0,1,.46-.64l-.67-.62a.27.27,0,0,1,0-.38l.32-.34a.27.27,0,0,1,.2-.09.24.24,0,0,1,.18.07l.67.61c.19-.17.39-.34.6-.5l-.48-.76a.27.27,0,0,1,.08-.38l.39-.25a.28.28,0,0,1,.15,0,.26.26,0,0,1,.23.13l.48.76c.23-.12.47-.23.71-.33l-.27-.86a.27.27,0,0,1,.18-.34l.45-.14h.08a.28.28,0,0,1,.26.19l.27.86a6.51,6.51,0,0,1,.77-.13l0-.91a.27.27,0,0,1,.26-.28l.47,0h0m.08,13.11h.22a5.09,5.09,0,0,0-.21-10.18h-.22a5.1,5.1,0,0,0,.21,10.19m-.08-13.88h-.05l-.46,0a1,1,0,0,0-.84.49,1,1,0,0,0-.65-.23,1.13,1.13,0,0,0-.32.05l-.44.14a1.06,1.06,0,0,0-.69.69,1.11,1.11,0,0,0-.41-.08,1,1,0,0,0-.56.16l-.39.25a1,1,0,0,0-.46.65.69.69,0,0,0,0,.2l-.15,0a1.08,1.08,0,0,0-.77.34l-.32.35a1,1,0,0,0-.27.75,1.11,1.11,0,0,0,0,.19,1,1,0,0,0-.8.55l-.22.42a1,1,0,0,0,0,1,1.06,1.06,0,0,0-.64.75l-.1.45a1,1,0,0,0,.14.79.61.61,0,0,0,.12.15l-.15.13a1,1,0,0,0-.27.75l0,.47a1,1,0,0,0,.49.84,1.06,1.06,0,0,0-.18,1l.14.45a1.42,1.42,0,0,1,.77,1.66l.25.39a1,1,0,0,0,.85.49,1.15,1.15,0,0,0,0,.19,1.06,1.06,0,0,0,.33.73l.35.31a1,1,0,0,0,.71.28.91.91,0,0,0,.23,0,1.42,1.42,0,0,0,0,.2,1.08,1.08,0,0,0,.52.61l.41.21a1,1,0,0,0,.48.12,1.06,1.06,0,0,0,.5-.12,1,1,0,0,0,.73.63l.46.11.23,0a1.07,1.07,0,0,0,.71-.28,1,1,0,0,0,.84.42l.51,0a1,1,0,0,0,.84-.49,1.06,1.06,0,0,0,.65.22.86.86,0,0,0,.32-.05l.44-.13a1.07,1.07,0,0,0,.69-.7,1,1,0,0,0,.41.09,1.1,1.1,0,0,0,.56-.16l.4-.25a1,1,0,0,0,.48-.85h.15a1,1,0,0,0,.77-.34l.31-.34a1,1,0,0,0,.25-.94,1,1,0,0,0,.81-.56l.22-.41a1.06,1.06,0,0,0,0-1,1,1,0,0,0,.64-.74l.1-.45a1.05,1.05,0,0,0-.26-.94l.15-.13a1.06,1.06,0,0,0,.27-.76l0-.46a1.4,1.4,0,0,1-.31-1.8l-.14-.45a1.06,1.06,0,0,0-.69-.69l.06-.18a1,1,0,0,0-.14-.79l-.25-.4a1.38,1.38,0,0,1-1.17-1.4l-.35-.32a1.06,1.06,0,0,0-.71-.27.9.9,0,0,0-.23,0,1.06,1.06,0,0,0-.55-.8l-.42-.22a1,1,0,0,0-.48-.12,1,1,0,0,0-.49.13l-.09-.18a1.09,1.09,0,0,0-.65-.46l-.46-.1a.86.86,0,0,0-.23,0,1,1,0,0,0-.71.27,1.06,1.06,0,0,0-.84-.41Zm.08,13.1a4.32,4.32,0,0,1-.17-8.63h.18a4.32,4.32,0,0,1,.17,8.64Z" />
    <path class="GUNDAN_MONKEY_JEWELRY_MONKEY_JEWELRY_8_cls-7" d="M234.35,376.57a4.43,4.43,0,0,1-.18-8.85h.19a4.42,4.42,0,0,1,.18,8.84Zm.1-2.25a.45.45,0,0,0-.33.14.5.5,0,0,0-.12.34.46.46,0,0,0,.46.44.47.47,0,0,0,0-.93v0Zm-2.75-2.53a.47.47,0,0,0,0,.93.49.49,0,0,0,.34-.15.44.44,0,0,0,.12-.34.46.46,0,0,0-.46-.44v-.39Zm5.27-.22a.47.47,0,0,0,0,.93.47.47,0,0,0,.46-.48.46.46,0,0,0-.46-.45v-.38Zm-2.74-2.52a.39.39,0,0,0-.32.15.44.44,0,0,0-.13.33.46.46,0,0,0,.46.44.47.47,0,0,0,.47-.48.45.45,0,0,0-.46-.44v-.39Z" />
    <path d="M234.36,368.11a4,4,0,0,1,.16,8.07h-.17a4,4,0,0,1-.16-8.07h.17m-.11,2.25h0a.85.85,0,0,0,.81-.89.84.84,0,0,0-.84-.81h0a.85.85,0,0,0,0,1.7m2.74,2.52h0a.85.85,0,0,0,0-1.69h0a.85.85,0,0,0,0,1.69m-5.27.22h0a.85.85,0,0,0,0-1.7h0a.85.85,0,0,0,0,1.7m2.74,2.53h0a.85.85,0,0,0,0-1.7h0a.85.85,0,0,0,0,1.7m-.1-8.3h-.2a4.81,4.81,0,0,0,.19,9.61h.2a4.81,4.81,0,0,0-.19-9.62Z" />
  </g>
</svg>