<svg id="Jewellry" xmlns="http://www.w3.org/2000/svg" viewBox="0 0 432 432">
  <defs>
    <style>.GUNDAN_MONKEY_JEWELRY_MONKEY_JEWELRY_4_cls-1{fill:#dfca6d;}.GUNDAN_MONKEY_JEWELRY_MONKEY_JEWELRY_4_cls-1,.GUNDAN_MONKEY_JEWELRY_MONKEY_JEWELRY_4_cls-2,.GUNDAN_MONKEY_JEWELRY_MONKEY_JEWELRY_4_cls-4{stroke:#000;stroke-linecap:round;stroke-linejoin:round;stroke-width:0.85px;}.GUNDAN_MONKEY_JEWELRY_MONKEY_JEWELRY_4_cls-2{fill:#c03d00;}.GUNDAN_MONKEY_JEWELRY_MONKEY_JEWELRY_4_cls-3{fill:#fff;}.GUNDAN_MONKEY_JEWELRY_MONKEY_JEWELRY_4_cls-4{fill:none;}</style>
  </defs>
  <path class="GUNDAN_MONKEY_JEWELRY_MONKEY_JEWELRY_4_cls-1" d="M311.89,163.15a4.46,4.46,0,0,1-5.42,4.38,4.3,4.3,0,0,1-3.12-3.32,17.27,17.27,0,0,1,1.79-2.85,17,17,0,0,0,1,1.76c1.24,1.5,3.53,1.93,3.84.71a1.92,1.92,0,0,0-.75-2l.51-1.81C310.29,160.13,312,160.59,311.89,163.15Z" />
  <path class="GUNDAN_MONKEY_JEWELRY_MONKEY_JEWELRY_4_cls-2" d="M310.88,166a2.54,2.54,0,0,0-2.45-.5,3.22,3.22,0,0,0-1.77,2.1,1.91,1.91,0,0,0,2.31,2A2.33,2.33,0,0,0,310.88,166Z" />
  <path class="GUNDAN_MONKEY_JEWELRY_MONKEY_JEWELRY_4_cls-3" d="M309.16,166.46s-1,.63-.91,1.44a1.79,1.79,0,0,0,.53,1.12s-1.48-.63-1.17-1.71S309.16,166.46,309.16,166.46Z" />
  <path class="GUNDAN_MONKEY_JEWELRY_MONKEY_JEWELRY_4_cls-4" d="M302.6,165.92c.24-.61.49-1.19.75-1.72a17.55,17.55,0,0,1,1.79-2.84,11.29,11.29,0,0,1,.73-.88" />
</svg>