<svg id="Jewellry" xmlns="http://www.w3.org/2000/svg" viewBox="0 0 432 432">
  <defs>
    <style>.GUNDAN_MONKEY_JEWELRY_MONKEY_JEWELRY_11_cls-1{fill:#facf56;}.GUNDAN_MONKEY_JEWELRY_MONKEY_JEWELRY_11_cls-2{fill:none;stroke:#000;stroke-linecap:round;stroke-linejoin:round;}</style>
  </defs>
  <path class="GUNDAN_MONKEY_JEWELRY_MONKEY_JEWELRY_11_cls-1" d="M135,178.46l0,.12a12,12,0,0,0,5.2,4.19l.13,0c.14.07.3.12.45.18l.44.16.29.09.43.13a12.21,12.21,0,0,0,15-8.58,12,12,0,0,0,.44-3.23,12.16,12.16,0,0,0-.83-4.41,12.48,12.48,0,0,0-7.35-7.1,12.1,12.1,0,0,0-4.55-.74,6.94,6.94,0,0,0-.3,3.13l.14.09a9,9,0,0,1,9.41,7.74,8.72,8.72,0,0,1-.45,4.35A9,9,0,0,1,141.89,180l-.14,0-.44-.2a.34.34,0,0,1-.17-.08,8.6,8.6,0,0,1-1.93-1.3,9,9,0,0,1-2.74-9.12,8.84,8.84,0,0,1,1.31-2.83s0,0,0-.11v0l-1.1-3.52a12.2,12.2,0,0,0-3.35,5.62A12.73,12.73,0,0,0,133,170c0,.27-.06.53-.08.8A12.27,12.27,0,0,0,135,178.46Z" />
  <path class="GUNDAN_MONKEY_JEWELRY_MONKEY_JEWELRY_11_cls-2" d="M135,178.58a12,12,0,0,0,5.2,4.19l.13,0c.14.07.3.12.45.18l.44.16.29.09.43.13a12.21,12.21,0,0,0,15-8.58,12,12,0,0,0,.44-3.23,12.16,12.16,0,0,0-.83-4.41,12.48,12.48,0,0,0-7.35-7.1,12.1,12.1,0,0,0-4.55-.74,6.94,6.94,0,0,0-.3,3.13l.14.09a9,9,0,0,1,9.41,7.74,8.72,8.72,0,0,1-.45,4.35A9,9,0,0,1,141.89,180l-.14,0-.44-.2a.34.34,0,0,1-.17-.08,8.6,8.6,0,0,1-1.93-1.3,9,9,0,0,1-2.74-9.12,8.84,8.84,0,0,1,1.31-2.83s0,0,0-.11v0l-1.1-3.52a12.2,12.2,0,0,0-3.35,5.62A12.73,12.73,0,0,0,133,170c0,.27-.06.53-.08.8A12.42,12.42,0,0,0,135,178.58Z" />
  <polyline class="GUNDAN_MONKEY_JEWELRY_MONKEY_JEWELRY_11_cls-2" points="136.7 162.75 137.8 166.27 137.8 166.29" />
  <path class="GUNDAN_MONKEY_JEWELRY_MONKEY_JEWELRY_11_cls-2" d="M145,164.72a8.93,8.93,0,0,1-.62-2.27,6.94,6.94,0,0,1,.3-3.13,5.08,5.08,0,0,1,.9-1.65" />
</svg>