<svg id="Jewellry" xmlns="http://www.w3.org/2000/svg" xmlns:xlink="http://www.w3.org/1999/xlink" viewBox="0 0 432 432">
  <defs>
    <style>.GUNDAN_MONKEY_JEWELRY_MONKEY_JEWELRY_10_cls-1,.GUNDAN_MONKEY_JEWELRY_MONKEY_JEWELRY_10_cls-5,.GUNDAN_MONKEY_JEWELRY_MONKEY_JEWELRY_10_cls-6{fill:none;}.GUNDAN_MONKEY_JEWELRY_MONKEY_JEWELRY_10_cls-2{clip-path:url(#GUNDAN_MONKEY_JEWELRY_MONKEY_JEWELRY_10_clip-path);}.GUNDAN_MONKEY_JEWELRY_MONKEY_JEWELRY_10_cls-3{fill:#6d2316;stroke-width:2.91px;}.GUNDAN_MONKEY_JEWELRY_MONKEY_JEWELRY_10_cls-3,.GUNDAN_MONKEY_JEWELRY_MONKEY_JEWELRY_10_cls-5,.GUNDAN_MONKEY_JEWELRY_MONKEY_JEWELRY_10_cls-6,.GUNDAN_MONKEY_JEWELRY_MONKEY_JEWELRY_10_cls-8{stroke:#000;}.GUNDAN_MONKEY_JEWELRY_MONKEY_JEWELRY_10_cls-3,.GUNDAN_MONKEY_JEWELRY_MONKEY_JEWELRY_10_cls-5,.GUNDAN_MONKEY_JEWELRY_MONKEY_JEWELRY_10_cls-6{stroke-linecap:round;stroke-linejoin:round;}.GUNDAN_MONKEY_JEWELRY_MONKEY_JEWELRY_10_cls-4{fill:#e3a92b;}.GUNDAN_MONKEY_JEWELRY_MONKEY_JEWELRY_10_cls-5{stroke-width:1.18px;}.GUNDAN_MONKEY_JEWELRY_MONKEY_JEWELRY_10_cls-6{stroke-width:0.96px;}.GUNDAN_MONKEY_JEWELRY_MONKEY_JEWELRY_10_cls-7{fill:#b9876e;}.GUNDAN_MONKEY_JEWELRY_MONKEY_JEWELRY_10_cls-8{fill:#85432d;stroke-miterlimit:10;stroke-width:1.82px;}</style>
    <clipPath id="clip-path">
      <path class="GUNDAN_MONKEY_JEWELRY_MONKEY_JEWELRY_10_cls-1" d="M303.07,216.51a.8.8,0,0,1,.07.36.91.91,0,0,1-.65.82l-1.28.44c.07.9.15,1.73.26,2.51a65.28,65.28,0,0,1,9.95,6.19c.38.29,1.15.9,2,1.64.33.29.68.6,1,.91a.91.91,0,0,1,.11,1.15.89.89,0,0,1-.74.39h0a1,1,0,0,1-.35-.07,41.57,41.57,0,0,0-3.92-1.52l-.11,0c-.51-.17-1-.34-1.51-.48l-.44-.13-.52-.15a57.15,57.15,0,0,0-5.92-1.33l0,.14a146.6,146.6,0,0,0,15.83,6.06A102.31,102.31,0,0,0,329,236.46a66,66,0,0,0,11.45,1.17.89.89,0,0,1,.35,1.71,20.21,20.21,0,0,1-2.13.79A47.53,47.53,0,0,1,328.42,242l0,.14.26.1q.48.17,1,.39l.89.37.12,0,1,.42c.21.09.44.2.65.31s.71.33,1.08.53c1,.5,1.91,1,2.83,1.59l.13.08a4.53,4.53,0,0,1,.4.26l.71.46.6.41c.76.52,1.58,1.16,2.44,1.88l.15.12a3.76,3.76,0,0,1,.32.28c.34.29.72.64,1.09,1l.43.42c.11.1.21.21.31.32a3.5,3.5,0,0,1,.37.39c.17.17.35.36.52.56s.28.3.44.49c.73.86,1.39,1.73,2,2.64.16.22.32.46.47.71l.08.12.28.47a31.6,31.6,0,0,1,1.53,2.88c.09.23.18.43.3.68s.31.78.49,1.24l0,.11c.09.24.18.49.27.76,0,0,0,.08,0,.14s.14.84.26,2.06c1.19,1.64,2.28,3.3,3.24,4.94,9.54,16.31,11.44,39.67,4.73,58.13a55,55,0,0,1-17.93,25c-1.11.85-2.28,1.66-3.57,2.47a37.52,37.52,0,0,1-14.55,5.38q-.76.11-1.56.18h-.1l-.41,0c-.74.06-1.5.09-2.27.09h-.59c-.51,0-1,0-1.57-.05s-1.37-.09-2.15-.18a36.5,36.5,0,0,1-4.27-.79l-.13,0-.35-.1a40,40,0,0,1-12.72-5.89,51.47,51.47,0,0,1-16.93-20.07.89.89,0,0,1,.41-1.19.9.9,0,0,1,1.2.41A49.64,49.64,0,0,0,296.65,352a39.14,39.14,0,0,0,12.46,3c.67,0,1.37.08,2.08.08.4,0,.8,0,1.19,0l.63,0c8.33-.49,16.63-4.53,23.36-11.38a47.91,47.91,0,0,0,8.93-12.74,31.09,31.09,0,0,0,.55-11.57c-.07-.54-.16-1.08-.25-1.6a50.87,50.87,0,0,0-5.57-15.1,77.07,77.07,0,0,0-9.13-13.39l-.13.07c.5,1.57.91,3,1.24,4.45.25,1.06.47,2.18.68,3.34a51.32,51.32,0,0,1,.36,16.08v.16c-.14,1-.35,2.16-.63,3.42l-.06.27c-.07.29-.14.56-.21.83a1.05,1.05,0,0,1-.71.68s0,.08,0,.11v-.07l-.06-.06h-.07a.64.64,0,0,1-.24,0,.85.85,0,0,1-.54-.42.93.93,0,0,1-.06-.74c0-.18.09-.36.12-.55a29.65,29.65,0,0,0-2.19-7.72,44.57,44.57,0,0,0-5.79-9.54c-.85-1.11-1.71-2.15-2.53-3.1l-.45-.52a65.33,65.33,0,0,0-10.8-9.73,57,57,0,0,0-6.14-3.82l-.09.11a40.21,40.21,0,0,1,4.29,5.46c.31.47.6.94.88,1.43.05.07.2.37.2.37.13.23.26.47.39.74a20.07,20.07,0,0,1,.86,2,28,28,0,0,1,1.5,5.08,4.64,4.64,0,0,1,.11.65,12.65,12.65,0,0,1,.16,1.88c0,5.4-3.67,9.4-9.78,15.35a.89.89,0,0,1-1.25,0,.9.9,0,0,1,0-1.25,26.8,26.8,0,0,0,5.92-8.79,14.43,14.43,0,0,0,.26-9.92A18,18,0,0,0,305,293a20.63,20.63,0,0,0-1.35-2.2l-.06-.09c-.28-.39-.59-.81-.92-1.22a4.19,4.19,0,0,0-.26-.33,38.31,38.31,0,0,0-6.88-6.31,60.12,60.12,0,0,0-6.66-4.2l-.17-.09c-.85-.47-1.78-.95-3.12-1.62a48,48,0,0,1-7.57-1l-.14,0,.06.13c4.13,10.13,5.22,19.61,3.22,28.22a35.6,35.6,0,0,1-1,3.51,33.59,33.59,0,0,1-1.56,3.75.9.9,0,0,1-.81.5,1,1,0,0,1-.37-.08.89.89,0,0,1-.45-1.16,27.46,27.46,0,0,0,1.71-6.08c2.47-15.42-8-30.58-9.27-32.28l-.69-.5-.5-.43a2.76,2.76,0,0,1-.27-.23l-.18-.16c-.23-.23-.46-.46-.66-.68s-.47-.54-.68-.81a10.14,10.14,0,0,1-.83-1.27l-.05-.07-.06.06c-.84.68-1.6,1.25-2.37,1.77a32.27,32.27,0,0,1-4.89,2.82,22.79,22.79,0,0,1-9.63,2.3c-1.12,0-2.13,0-3-.06-1.71-.06-3.31-.18-4.76-.34a63.9,63.9,0,0,1-6.91-1.08A57.83,57.83,0,0,1,227.8,272c-1.65-.57-3.21-1.21-4.73-1.88a16.8,16.8,0,0,1-3.19,2.31c-1.5,1.66-14.59,16.65-11.49,32.24a24.17,24.17,0,0,0,2.11,6,.91.91,0,0,1-.36,1.19.86.86,0,0,1-.44.12.91.91,0,0,1-.77-.44,30,30,0,0,1-3.23-7.34c-2.47-8.58-1.12-18.09,4-28.26l.06-.13-.14,0a71.42,71.42,0,0,1-9.79,1.08,93.26,93.26,0,0,0-11.14,5.21c-.44.24-.87.48-1.29.73-5.55,3.26-9.51,6.68-11.79,10.17-4.42,6.77-2.28,13.86,6.35,21.07a.9.9,0,0,1,.12,1.24.94.94,0,0,1-.7.34.87.87,0,0,1-.55-.2c-11.48-9-14.79-12.78-10-23.08a21,21,0,0,1,1.82-3.08,40,40,0,0,1,6.59-7l-.08-.12a77,77,0,0,0-25.43,17.47,43.65,43.65,0,0,0-7.19,9.55,24.86,24.86,0,0,0-2.75,7.82l0,.08h0l-.09,0-.05.15a.78.78,0,0,1-.13.18.5.5,0,0,1-.07.08.85.85,0,0,1-.17.12l-.1.05-.16,0a.31.31,0,0,1-.15,0h-.07l-.12,0a1.09,1.09,0,0,1-.31-.13,1,1,0,0,1-.24-.23.92.92,0,0,1-.15-.3l-.06-.21a41.34,41.34,0,0,1-.35-19.73,47,47,0,0,1,2.59-8.32l-.12-.08a77.62,77.62,0,0,0-12,14,45.25,45.25,0,0,0-6.92,15.07c-.11.52-.22,1.05-.31,1.64a24.82,24.82,0,0,0,.68,11.42,49.09,49.09,0,0,0,12,13.42l0-.06,0,.14a50.32,50.32,0,0,0,29.08,10.72c.49,0,1,0,1.46,0a57.51,57.51,0,0,0,18.3-3.15,54.23,54.23,0,0,0,20.28-19.36.9.9,0,0,1,.77-.43.93.93,0,0,1,.46.12.88.88,0,0,1,.4.56.83.83,0,0,1-.1.67,56,56,0,0,1-21,20,57.78,57.78,0,0,1-9.55,4.19l-1.19.39-.33.1-.13,0c-1.57.48-3.18.88-4.78,1.21l-.7.13-.25.05-1,.17-.21,0c-.41.07-.85.15-1.28.2s-1.06.14-1.61.2l-1.41.13-.14,0h-.11c-1.16.09-2.31.14-3.42.15h-.54l-1.63,0-1,0-.47,0-1.77-.15c-.6-.05-1.19-.12-1.79-.2l-.15,0c-.52-.08-1.06-.15-1.6-.25l-1.09-.19-.2,0-.68-.14c-.52-.1-1.05-.22-1.56-.35l-.12,0a10.56,10.56,0,0,0-1.32-.26l.09-1.06h-.15v.06l-.22.86c-.55-.16-1.1-.32-1.65-.5s-1-.31-1.5-.49l-.28-.1-.43-.15-.36-.13-.66-.24-1.62-.65c-.46-.19-.93-.39-1.4-.61s-1.1-.49-1.65-.76l-.37-.18c-.57-.29-1.16-.59-1.74-.91l-.32-.18c-.3-.16-.61-.32-.9-.5-1-.6-2-1.17-2.86-1.75s-1.48-1-2.21-1.51c-.95-.67-1.91-1.41-2.93-2.25l-.79-.65-1.06-.94c-.55-.48-1.05-.94-1.53-1.41s-.77-.75-1.15-1.13l-.55-.57-.28-.3L120,342c-.17-.18-.34-.36-.49-.55l-.07-.07-.08-.12h0l-.07-.1c-.53-.59-1-1.18-1.5-1.79-.33-.39-.65-.8-1-1.22l-.11,0V338l-.09-.12c-.1-.13-.18-.25-.26-.37s-.42-.54-.63-.85l-.42-.59c-.36-.53-.73-1.08-1.07-1.62s-.64-1-1-1.54l-.18-.32c-.21-.36-.42-.71-.61-1.08-.08-.12-.38-.67-.38-.67a.53.53,0,0,1-.06-.13l-.33-.61-.16-.31-.21-.41-.06-.13c-.3-.59-.59-1.19-.86-1.8a58.17,58.17,0,0,1-4.92-26.72c0-1.19.16-2.47.31-3.9.2-1.68.42-3.17.69-4.55a57.78,57.78,0,0,1,9.82-23.09c.33-.45.66-.89,1-1.33s.55-.7.84-1.05.81-1,1.23-1.47l.94-1.09c.15-1.15.3-2,.31-2a.58.58,0,0,1,.06-.17c.2-.48.42-.95.65-1.42s.34-.68.55-1l0-.09a27.1,27.1,0,0,1,2-3c.17-.24.36-.48.55-.72.42-.54.9-1.1,1.52-1.77l.23-.24c.39-.41.81-.83,1.24-1.23.2-.2.43-.41.66-.61s.37-.32.58-.5c.45-.4.94-.78,1.43-1.16l.09-.07c.18-.14.37-.29.56-.42a47.75,47.75,0,0,1,10-5.54l1.34-.53.1,0,.57-.21.18-.07,1.15-.41.65-.21a6.48,6.48,0,0,1,.62-.2c.4-.14.81-.27,1.22-.39l.24-.07V242l-2-.15h-.16a65.83,65.83,0,0,1-10.46-1.64l-.15,0c-.87-.23-1.72-.49-2.5-.77a.89.89,0,0,1,.29-1.73,102.5,102.5,0,0,0,14.3-1.17c4.79-.71,9.89-1.75,15.15-3.07,6.34-1.6,13.15-3.69,19.69-6.06l0-.14c-1.43.18-3,.44-4.87.8a77.64,77.64,0,0,0-9.57,2.43l-.3.09h0l-1,.34a.87.87,0,0,1-.32.06.89.89,0,0,1-.52-1.6c1-.75,2-1.47,3-2.13a92.83,92.83,0,0,1,16.91-8.12l.22-.09-5.47-1.28a.88.88,0,0,1-.69-.84.89.89,0,0,1,.63-.88,34.73,34.73,0,0,1,9.14-1.07h1.09L139.5,117-6.93,133V442.5H445V120.86Z" />
    </clipPath>
  </defs>
  <g class="GUNDAN_MONKEY_JEWELRY_MONKEY_JEWELRY_10_cls-2">
    <line class="GUNDAN_MONKEY_JEWELRY_MONKEY_JEWELRY_10_cls-3" x1="233.38" y1="340.29" x2="233.47" y2="348.93" />
    <path class="GUNDAN_MONKEY_JEWELRY_MONKEY_JEWELRY_10_cls-4" d="M217.17,368.29c7.36,2.64,11-2,11-2l-2.92,8.76S224.12,374.53,217.17,368.29Z" />
    <path class="GUNDAN_MONKEY_JEWELRY_MONKEY_JEWELRY_10_cls-4" d="M234.55,385C251,374.62,258.44,361,258.39,352.47c0-4-1.58-6.92-4.63-8.64a12.49,12.49,0,0,0-6.12-1.78c-7,0-11.46,7.54-11.5,7.6l-.08.15L234.43,352l-1,1.27-2.58-3.46-.09-.15c0-.07-4.43-7.6-11.49-7.6a12.49,12.49,0,0,0-6.13,1.78c-3,1.72-4.6,4.63-4.63,8.64-.05,8.76,7.74,22.74,24.92,33.16C233.83,385.4,234.19,385.19,234.55,385Zm20.39-43.5c12.89,7.28,4.58,32.11-21.47,47.26-26-15.15-34.36-40-21.47-47.26s21,6.8,21,6.8l.51.68.51-.68S242.05,334.17,254.94,341.45Z" />
    <path class="GUNDAN_MONKEY_JEWELRY_MONKEY_JEWELRY_10_cls-5" d="M254.94,341.45c-12.89-7.28-21,6.8-21,6.8l-.51.68-.51-.68s-8.06-14.08-21-6.8-4.57,32.11,21.47,47.26C259.52,373.56,267.83,348.73,254.94,341.45Z" />
    <path class="GUNDAN_MONKEY_JEWELRY_MONKEY_JEWELRY_10_cls-5" d="M234.55,385c-.36.24-.72.45-1.08.68-17.18-10.42-25-24.4-24.92-33.16,0-4,1.59-6.92,4.63-8.64a12.49,12.49,0,0,1,6.13-1.78c7.06,0,11.45,7.53,11.49,7.6l.09.15,2.58,3.46,1-1.27,1.63-2.19.08-.15c0-.06,4.5-7.6,11.5-7.6a12.49,12.49,0,0,1,6.12,1.78c3.05,1.72,4.61,4.63,4.63,8.64C258.44,361,251,374.62,234.55,385Z" />
    <polyline class="GUNDAN_MONKEY_JEWELRY_MONKEY_JEWELRY_10_cls-5" points="234.43 351.99 235.92 356.77 232.13 361.77 234.02 365.8 228.14 376.56 235.4 382 234.55 384.95" />
    <path class="GUNDAN_MONKEY_JEWELRY_MONKEY_JEWELRY_10_cls-6" d="M228.14,366.34s-3.61,4.59-11,2c7,6.24,8.05,6.81,8.05,6.81Z" />
    <path class="GUNDAN_MONKEY_JEWELRY_MONKEY_JEWELRY_10_cls-4" d="M220.6,359.5a3.45,3.45,0,1,1,3.26-3.45A3.36,3.36,0,0,1,220.6,359.5Z" />
    <path d="M220.6,353a3.09,3.09,0,1,1-2.89,3.08A3,3,0,0,1,220.6,353m0-.72a3.81,3.81,0,1,0,3.62,3.8,3.72,3.72,0,0,0-3.62-3.8Z" />
    <path class="GUNDAN_MONKEY_JEWELRY_MONKEY_JEWELRY_10_cls-4" d="M220.6,359.28a3.23,3.23,0,1,1,3.05-3.23A3.15,3.15,0,0,1,220.6,359.28Z" />
    <path d="M220.6,353.19a2.87,2.87,0,1,1-2.68,2.86,2.78,2.78,0,0,1,2.68-2.86m0-.72a3.59,3.59,0,1,0,3.42,3.58,3.5,3.5,0,0,0-3.42-3.58Z" />
    <path class="GUNDAN_MONKEY_JEWELRY_MONKEY_JEWELRY_10_cls-4" d="M219.78,366.7a9.32,9.32,0,0,1-1.06-.15.36.36,0,0,1-.29-.42l.21-1.15a6.84,6.84,0,0,1-1.16-.38l-.43,1a.41.41,0,0,1-.21.2.3.3,0,0,1-.13,0,.4.4,0,0,1-.15,0,8.82,8.82,0,0,1-1-.51.38.38,0,0,1-.13-.49l.55-1a8.12,8.12,0,0,1-1-.76l-.72.83a.32.32,0,0,1-.26.12h0a.35.35,0,0,1-.26-.1,9.47,9.47,0,0,1-.74-.81.37.37,0,0,1,0-.5l.83-.77a8.82,8.82,0,0,1-.72-1.08l-.92.54a.41.41,0,0,1-.19,0l-.1,0a.35.35,0,0,1-.22-.18c-.17-.33-.32-.67-.46-1a.37.37,0,0,1,.2-.47l1-.44a8.91,8.91,0,0,1-.34-1.28l-1.05.19H211a.39.39,0,0,1-.21-.06.41.41,0,0,1-.15-.24c0-.37-.09-.75-.11-1.13a.36.36,0,0,1,.34-.38l1.06-.07v-.19a8.72,8.72,0,0,1,.07-1.14l-1.06-.19a.35.35,0,0,1-.3-.41c.06-.37.14-.74.23-1.1a.36.36,0,0,1,.17-.23.41.41,0,0,1,.18-.05l.1,0,1,.3a8.63,8.63,0,0,1,.46-1.23l-1-.55a.37.37,0,0,1-.14-.49c.17-.33.36-.65.56-1a.34.34,0,0,1,.24-.16h.06a.44.44,0,0,1,.22.07l.87.64a9.7,9.7,0,0,1,.81-1l-.75-.86a.36.36,0,0,1,0-.5c.26-.26.54-.5.82-.73a.34.34,0,0,1,.22-.07h.06a.35.35,0,0,1,.24.15l.64.91a8,8,0,0,1,1.05-.65l-.44-1.08a.34.34,0,0,1,.18-.46,8.74,8.74,0,0,1,1-.41l.11,0a.47.47,0,0,1,.17,0,.39.39,0,0,1,.18.22l.33,1.1a6.8,6.8,0,0,1,1.19-.25l-.09-1.16a.35.35,0,0,1,.33-.39,7.94,7.94,0,0,1,.85,0h.21a.37.37,0,0,1,.36.37l0,1.16a9.37,9.37,0,0,1,1.2.17l.26-1.11a.4.4,0,0,1,.17-.23.32.32,0,0,1,.19-.05h.09a8.67,8.67,0,0,1,1,.33.37.37,0,0,1,.22.46l-.38,1.1a9.37,9.37,0,0,1,1.08.58l.59-1a.35.35,0,0,1,.23-.16h.08a.36.36,0,0,1,.2.06,9.42,9.42,0,0,1,.86.67.36.36,0,0,1,0,.5l-.69.91a10.88,10.88,0,0,1,.86.93l.83-.69a.36.36,0,0,1,.24-.09h0a.35.35,0,0,1,.25.14c.22.3.42.61.61.93a.37.37,0,0,1-.11.49l-.93.61a9.18,9.18,0,0,1,.54,1.2l1-.37a.25.25,0,0,1,.12,0,.41.41,0,0,1,.16,0,.38.38,0,0,1,.19.22,10.29,10.29,0,0,1,.29,1.09.35.35,0,0,1-.27.43l-1,.25a10,10,0,0,1,.15,1.33h1.06a.36.36,0,0,1,.37.36,10.65,10.65,0,0,1-.06,1.15.34.34,0,0,1-.13.25.38.38,0,0,1-.23.08l-1.1-.12a10,10,0,0,1-.27,1.3l1,.37a.37.37,0,0,1,.22.46c-.12.35-.25.71-.4,1.05a.36.36,0,0,1-.21.19.25.25,0,0,1-.12,0,.47.47,0,0,1-.17,0l-1-.48a8.36,8.36,0,0,1-.65,1.12l.87.72a.36.36,0,0,1,.06.5c-.21.29-.45.58-.69.85a.36.36,0,0,1-.27.12h0a.35.35,0,0,1-.26-.11l-.77-.78a9.15,9.15,0,0,1-.94.83l.6,1a.36.36,0,0,1-.1.49,10,10,0,0,1-.92.57.41.41,0,0,1-.18.05l-.11,0a.36.36,0,0,1-.21-.19l-.49-1a7.94,7.94,0,0,1-1.14.45l.27,1.14a.36.36,0,0,1-.26.43,9.32,9.32,0,0,1-1.05.22H222a.35.35,0,0,1-.22-.08.33.33,0,0,1-.14-.24l-.15-1.14a8.57,8.57,0,0,1-.87,0h-.34l-.09,1.15a.36.36,0,0,1-.13.25.38.38,0,0,1-.23.08Zm.82-17.82a7.19,7.19,0,1,0,6.72,7.17A7,7,0,0,0,220.6,348.88Z" />
    <path d="M220.6,345.73h.21l0,1.52a7.43,7.43,0,0,1,1.84.26L223,346c.33.09.66.2,1,.32l-.49,1.43a8.5,8.5,0,0,1,1.66.88l.78-1.27c.28.2.56.42.83.65l-.91,1.17a8.28,8.28,0,0,1,1.3,1.41l1.13-.93a9.15,9.15,0,0,1,.59.89l-1.21.81a9.56,9.56,0,0,1,.8,1.78l1.34-.5a10.27,10.27,0,0,1,.29,1.05l-1.39.34a9.72,9.72,0,0,1,.21,2h1.42v0a9.83,9.83,0,0,1-.05,1.09l-1.42-.15a8.73,8.73,0,0,1-.4,1.92l1.35.5c-.11.34-.24.68-.38,1l-1.3-.64a8.74,8.74,0,0,1-1,1.68l1.13.93c-.21.29-.44.57-.67.83l-1-1.06a8.13,8.13,0,0,1-1.43,1.26l.78,1.27a7.34,7.34,0,0,1-.89.55l-.65-1.35a7.47,7.47,0,0,1-1.73.7l.35,1.47a8.62,8.62,0,0,1-1,.21l-.2-1.5a7.72,7.72,0,0,1-1.18.09c-.23,0-.45,0-.68,0l-.11,1.51c-.34,0-.69-.08-1-.14l.26-1.5a7.81,7.81,0,0,1-1.77-.58l-.57,1.39c-.31-.15-.62-.31-.92-.49l.71-1.32a8.41,8.41,0,0,1-1.5-1.17l-1,1.12a8.87,8.87,0,0,1-.72-.78l1.07-1a8.69,8.69,0,0,1-1.06-1.62l-1.26.73c-.16-.32-.31-.66-.44-1l1.32-.58a9.17,9.17,0,0,1-.51-1.9l-1.41.25c-.05-.36-.09-.72-.11-1.09l1.42-.09c0-.17,0-.35,0-.53a8.57,8.57,0,0,1,.12-1.44l-1.41-.24c.06-.36.13-.72.22-1.07l1.38.4a9,9,0,0,1,.69-1.83l-1.26-.72q.25-.48.54-.93l1.18.86a8.83,8.83,0,0,1,1.21-1.5l-1-1.11a10.4,10.4,0,0,1,.79-.7l.86,1.22a8.26,8.26,0,0,1,1.6-1l-.58-1.39c.32-.14.64-.27,1-.38l.44,1.44a7.37,7.37,0,0,1,1.82-.38l-.12-1.51a7.32,7.32,0,0,1,.81,0m0,17.86a7.55,7.55,0,1,0-7.08-7.54,7.33,7.33,0,0,0,7.08,7.54m0-18.59c-.29,0-.59,0-.88,0a.74.74,0,0,0-.66.78l.07.83-.55.11-.23-.75a.75.75,0,0,0-.36-.44.81.81,0,0,0-.34-.08.66.66,0,0,0-.23,0,10.28,10.28,0,0,0-1,.42.72.72,0,0,0-.36.93l.32.78a5.19,5.19,0,0,0-.5.31l-.43-.62a.73.73,0,0,0-.49-.3h-.11a.75.75,0,0,0-.45.16c-.29.23-.58.49-.85.75a.73.73,0,0,0,0,1l.54.62c-.14.16-.27.33-.4.49l-.58-.42a.76.76,0,0,0-.43-.14h-.13a.73.73,0,0,0-.48.32,11.13,11.13,0,0,0-.57,1,.72.72,0,0,0,.28,1l.68.39q-.13.31-.24.63l-.68-.2a.76.76,0,0,0-.21,0,.68.68,0,0,0-.36.1.68.68,0,0,0-.34.45,11,11,0,0,0-.24,1.14.73.73,0,0,0,.6.82l.72.13q0,.35,0,.69l-.73.05a.73.73,0,0,0-.68.77c0,.38.07.77.13,1.15a.69.69,0,0,0,.29.48.73.73,0,0,0,.42.14h.13l.7-.13.18.66-.7.31a.73.73,0,0,0-.39.93,10.11,10.11,0,0,0,.48,1.06.72.72,0,0,0,.44.36l.2,0a.69.69,0,0,0,.37-.1l.61-.35.36.54-.59.55a.72.72,0,0,0-.06,1,8.82,8.82,0,0,0,.77.84.75.75,0,0,0,.51.21h0a.74.74,0,0,0,.52-.25l.48-.56c.15.13.31.25.48.37l-.4.73a.73.73,0,0,0,.26,1c.32.19.66.37,1,.53a.87.87,0,0,0,.31.07.75.75,0,0,0,.26-.05.7.7,0,0,0,.41-.4l.3-.72.54.18-.15.82a.73.73,0,0,0,.58.84c.36.07.73.12,1.1.16h.06a.73.73,0,0,0,.47-.17.71.71,0,0,0,.25-.5l.06-.81h0l.55,0,.11.8a.73.73,0,0,0,.72.63h.11a8.46,8.46,0,0,0,1.09-.23.72.72,0,0,0,.52-.87l-.2-.81c.18-.06.36-.14.53-.21l.34.69a.74.74,0,0,0,.43.38.83.83,0,0,0,.22,0,.73.73,0,0,0,.35-.09c.33-.18.65-.38,1-.59a.74.74,0,0,0,.2-1l-.44-.71a4.4,4.4,0,0,0,.46-.4l.51.53a.75.75,0,0,0,.53.22h0a.73.73,0,0,0,.52-.24,10.47,10.47,0,0,0,.73-.89.73.73,0,0,0-.13-1l-.62-.51a5.3,5.3,0,0,0,.33-.57l.64.32a.73.73,0,0,0,.33.08.69.69,0,0,0,.24,0,.68.68,0,0,0,.42-.39,10,10,0,0,0,.41-1.08.73.73,0,0,0-.44-.91l-.71-.26c.05-.22.1-.45.14-.67l.71.08h.08a.76.76,0,0,0,.46-.16.72.72,0,0,0,.26-.49,11.46,11.46,0,0,0,.06-1.17.74.74,0,0,0-.73-.74h-.72c0-.23,0-.46-.08-.69l.73-.18a.73.73,0,0,0,.54-.86,10.24,10.24,0,0,0-.3-1.12.74.74,0,0,0-.38-.43.72.72,0,0,0-.32-.08.74.74,0,0,0-.25.05l-.66.24c-.09-.2-.18-.4-.28-.6l.66-.44a.73.73,0,0,0,.22-1,9.77,9.77,0,0,0-.63-1,.72.72,0,0,0-.49-.29h-.09a.73.73,0,0,0-.47.17l-.55.46c-.14-.16-.28-.31-.43-.46l.5-.65a.72.72,0,0,0-.1-1,10.15,10.15,0,0,0-.89-.7.76.76,0,0,0-.41-.13l-.15,0a.7.7,0,0,0-.47.33l-.4.65-.51-.28.27-.79a.72.72,0,0,0-.42-.91,8.76,8.76,0,0,0-1.06-.35l-.19,0a.74.74,0,0,0-.71.56l-.18.78-.56-.08,0-.82a.73.73,0,0,0-.71-.74Zm0,17.86a6.83,6.83,0,1,1,6.36-6.81,6.6,6.6,0,0,1-6.36,6.81Z" />
    <path class="GUNDAN_MONKEY_JEWELRY_MONKEY_JEWELRY_10_cls-7" d="M249.25,353.66a2.14,2.14,0,1,1,2-2.14A2.09,2.09,0,0,1,249.25,353.66Z" />
    <path d="M249.25,349.57a2,2,0,1,1-1.84,1.95,1.89,1.89,0,0,1,1.84-1.95m0-.38a2.33,2.33,0,1,0,2.21,2.33,2.28,2.28,0,0,0-2.21-2.33Z" />
    <path class="GUNDAN_MONKEY_JEWELRY_MONKEY_JEWELRY_10_cls-7" d="M248.83,358l-.41,0a.2.2,0,0,1-.16-.21l.05-.4a6,6,0,0,1-.73-.19l-.12.37a.22.22,0,0,1-.1.11l-.08,0h-.07l-.39-.17a.18.18,0,0,1-.09-.24l.15-.37a4.46,4.46,0,0,1-.66-.4l-.21.32a.22.22,0,0,1-.13.08h0a.15.15,0,0,1-.11,0,2.91,2.91,0,0,1-.33-.26.19.19,0,0,1,0-.26l.24-.31a4.22,4.22,0,0,1-.54-.58l-.28.24a.18.18,0,0,1-.12.05h0a.18.18,0,0,1-.13-.08c-.09-.11-.17-.23-.25-.35a.18.18,0,0,1,0-.25l.31-.23a5,5,0,0,1-.38-.72l-.33.15a.11.11,0,0,1-.08,0h-.07a.16.16,0,0,1-.1-.11c-.06-.13-.11-.27-.16-.41a.18.18,0,0,1,.12-.23l.35-.14a5.47,5.47,0,0,1-.19-.8l-.38.06a.28.28,0,0,1-.12,0,.21.21,0,0,1-.07-.13c0-.14,0-.29,0-.44a.19.19,0,0,1,.17-.2l.36,0v-.22a6.08,6.08,0,0,1,0-.61l-.36-.05a.19.19,0,0,1-.16-.21c0-.15,0-.29.07-.44a.2.2,0,0,1,.08-.12.19.19,0,0,1,.1,0h0l.35.08a5.53,5.53,0,0,1,.24-.79l-.34-.15a.2.2,0,0,1-.1-.25c.05-.13.11-.26.18-.4a.17.17,0,0,1,.11-.09H244l.09,0,.32.18a4.38,4.38,0,0,1,.42-.69l-.3-.25a.2.2,0,0,1,0-.26l.27-.33a.19.19,0,0,1,.14-.07h0a.2.2,0,0,1,.14.06l.26.26a7.27,7.27,0,0,1,.57-.54l-.22-.33a.19.19,0,0,1,0-.25l.34-.25a.2.2,0,0,1,.11,0h0a.18.18,0,0,1,.12.09l.19.33a6.24,6.24,0,0,1,.68-.35l-.13-.38a.2.2,0,0,1,.11-.24l.4-.13h.06l.09,0a.22.22,0,0,1,.09.12l.1.38a6,6,0,0,1,.74-.14l0-.4a.2.2,0,0,1,.18-.2h.41a.24.24,0,0,1,.14.05.22.22,0,0,1,0,.14v.39a4.53,4.53,0,0,1,.75.08l.08-.38a.17.17,0,0,1,.08-.12.14.14,0,0,1,.1,0h0l.41.1a.19.19,0,0,1,.13.23l-.1.39a5.42,5.42,0,0,1,.7.29l.17-.34a.18.18,0,0,1,.11-.1H252l.09,0,.36.21a.19.19,0,0,1,.06.26l-.19.34a7.11,7.11,0,0,1,.6.49l.25-.28a.16.16,0,0,1,.13-.06h0a.19.19,0,0,1,.13.05l.3.31a.2.2,0,0,1,0,.26l-.28.28a5.13,5.13,0,0,1,.47.65l.3-.2a.2.2,0,0,1,.11,0h0a.19.19,0,0,1,.12.09c.07.13.14.26.2.39a.19.19,0,0,1-.07.25l-.33.18a6.24,6.24,0,0,1,.28.76l.34-.1h.06l.09,0a.14.14,0,0,1,.09.11c0,.14.07.29.1.43a.18.18,0,0,1-.14.22l-.36.08a5.69,5.69,0,0,1,.08.82h.36a.21.21,0,0,1,.19.19c0,.16,0,.31,0,.46a.24.24,0,0,1-.07.13.17.17,0,0,1-.12,0l-.38,0a5.69,5.69,0,0,1-.13.81l.36.11a.19.19,0,0,1,.13.23c0,.14-.08.28-.13.42a.18.18,0,0,1-.1.11l-.08,0-.07,0-.33-.12a7,7,0,0,1-.34.74l.32.21a.18.18,0,0,1,.07.25c-.07.13-.15.25-.23.37a.22.22,0,0,1-.13.08h0a.2.2,0,0,1-.11,0l-.29-.22a7.49,7.49,0,0,1-.51.61l.26.29a.19.19,0,0,1,0,.26c-.1.1-.2.2-.31.29a.18.18,0,0,1-.12.05h0a.19.19,0,0,1-.13-.07l-.23-.3a5.47,5.47,0,0,1-.63.44l.17.36a.19.19,0,0,1-.08.25l-.37.19-.08,0h-.07a.2.2,0,0,1-.11-.11l-.14-.35a5.07,5.07,0,0,1-.72.24l.07.39a.18.18,0,0,1-.14.22l-.41.08h0a.15.15,0,0,1-.11,0,.22.22,0,0,1-.08-.13l-.05-.39a3.43,3.43,0,0,1-.56,0h-.19l0,.4a.24.24,0,0,1-.07.13.17.17,0,0,1-.12,0Zm.42-11a4.53,4.53,0,1,0,4.24,4.53A4.4,4.4,0,0,0,249.25,347Z" />
    <path d="M249.23,345.25v.57h0a4.68,4.68,0,0,1,1.07.12l.11-.57.39.1-.14.57a5,5,0,0,1,1,.42l.25-.52.35.21-.29.5a6,6,0,0,1,.88.7l.37-.42c.1.09.19.19.29.3l-.41.4a6.19,6.19,0,0,1,.67.92l.47-.3c.07.12.13.24.19.37l-.48.27a5.57,5.57,0,0,1,.4,1.08l.53-.16a3.15,3.15,0,0,1,.09.42l-.53.11a5.64,5.64,0,0,1,.12,1.16h.54v0c0,.14,0,.28,0,.42l-.55,0a6.17,6.17,0,0,1-.19,1.14l.53.16a3.71,3.71,0,0,1-.12.41l-.52-.2a5.51,5.51,0,0,1-.47,1.05l.47.31c-.07.12-.14.24-.22.35l-.45-.33a5.46,5.46,0,0,1-.72.87l.38.43-.3.28-.35-.45a5.74,5.74,0,0,1-.91.64l.25.52-.36.18-.22-.53a5.3,5.3,0,0,1-1,.35l.11.57-.4.07-.07-.58a4.49,4.49,0,0,1-.73.06l-.37,0,0,.58-.4,0,.07-.58a4.71,4.71,0,0,1-1.06-.27l-.18.55-.38-.16.22-.53a5.32,5.32,0,0,1-1-.57l-.32.47-.32-.26.34-.45a5.45,5.45,0,0,1-.77-.82l-.42.37c-.09-.11-.17-.23-.25-.34l.45-.34a6.11,6.11,0,0,1-.54-1l-.5.23-.15-.4.52-.19a6,6,0,0,1-.26-1.13l-.54.08c0-.14,0-.29,0-.43l.54,0c0-.13,0-.26,0-.39a6.48,6.48,0,0,1,.06-.77l-.54-.08c0-.14,0-.28.06-.42l.53.12a5.73,5.73,0,0,1,.34-1.11l-.5-.23c0-.13.11-.27.17-.39l.49.27a5.1,5.1,0,0,1,.59-1l-.42-.36.26-.33.41.4a5.36,5.36,0,0,1,.82-.76l-.32-.48.34-.24.28.5a5.11,5.11,0,0,1,1-.5l-.19-.55.39-.13.14.56a5.56,5.56,0,0,1,1.08-.2l0-.58h.4m0,11a4.72,4.72,0,1,0-4.43-4.71,4.58,4.58,0,0,0,4.43,4.71m0-11.36h-.42a.4.4,0,0,0-.36.41l0,.22-.41.07-.05-.2a.35.35,0,0,0-.18-.23.41.41,0,0,0-.18,0l-.11,0a2.83,2.83,0,0,0-.41.14.38.38,0,0,0-.23.47l.08.22-.38.19-.1-.17a.37.37,0,0,0-.24-.18h-.08a.31.31,0,0,0-.21.07,3.9,3.9,0,0,0-.36.25.38.38,0,0,0-.09.51l.13.19a3,3,0,0,0-.32.3l-.13-.13a.39.39,0,0,0-.27-.11h0a.41.41,0,0,0-.27.13c-.1.11-.19.23-.28.34a.39.39,0,0,0,0,.52l.16.14-.24.4-.15-.08a.41.41,0,0,0-.18-.05l-.12,0a.35.35,0,0,0-.22.19c-.07.14-.13.27-.19.41a.39.39,0,0,0,.2.49l.18.08c-.05.16-.1.31-.14.47l-.17,0h-.08a.36.36,0,0,0-.37.31c0,.14,0,.3-.07.44a.38.38,0,0,0,.32.43l.18,0c0,.16,0,.31,0,.45v0h-.18a.38.38,0,0,0-.35.41c0,.15,0,.3,0,.45a.37.37,0,0,0,.15.25.36.36,0,0,0,.23.08h.05l.18,0a4,4,0,0,0,.11.47l-.19.07a.39.39,0,0,0-.23.48c0,.14.1.28.16.42a.37.37,0,0,0,.21.2.35.35,0,0,0,.14,0,.41.41,0,0,0,.16,0l.15-.08c.07.14.15.28.23.42l-.17.12a.39.39,0,0,0-.09.52l.26.36a.4.4,0,0,0,.26.15h0a.39.39,0,0,0,.25-.1l.12-.11.31.33-.13.17a.39.39,0,0,0,.05.52l.34.28a.39.39,0,0,0,.23.07h.06a.39.39,0,0,0,.26-.17l.1-.15.37.22-.09.21a.38.38,0,0,0,.19.49l.4.16a.35.35,0,0,0,.14,0,.32.32,0,0,0,.16,0,.4.4,0,0,0,.2-.22l.06-.19.4.1,0,.22a.39.39,0,0,0,.32.43l.43,0h0a.38.38,0,0,0,.25-.09.43.43,0,0,0,.13-.26v-.21h0l.4,0,0,.21a.35.35,0,0,0,.14.25.4.4,0,0,0,.23.08h.06l.42-.07a.39.39,0,0,0,.29-.45l0-.21.39-.14.08.18a.36.36,0,0,0,.21.21.34.34,0,0,0,.3,0l.38-.19a.38.38,0,0,0,.16-.5l-.1-.21.36-.24.11.14a.37.37,0,0,0,.26.15h0a.34.34,0,0,0,.24-.09l.33-.3a.37.37,0,0,0,0-.52l-.14-.17c.1-.11.19-.23.29-.35l.13.11a.39.39,0,0,0,.23.07h.07a.39.39,0,0,0,.25-.17c.08-.12.16-.25.23-.38a.37.37,0,0,0-.12-.5l-.18-.12c.07-.14.14-.28.2-.43l.16.06a.31.31,0,0,0,.13,0,.42.42,0,0,0,.16,0,.39.39,0,0,0,.2-.22c.05-.15.09-.29.13-.44a.38.38,0,0,0-.26-.46l-.19,0a4,4,0,0,0,.08-.48h.21a.38.38,0,0,0,.25-.09.37.37,0,0,0,.12-.26c0-.15,0-.3,0-.45a.41.41,0,0,0-.11-.28.4.4,0,0,0-.27-.12H255a3.91,3.91,0,0,0-.05-.48l.19,0a.39.39,0,0,0,.29-.45c0-.14-.07-.29-.11-.44a.35.35,0,0,0-.18-.23.37.37,0,0,0-.18-.05l-.11,0-.17.05c0-.16-.1-.3-.16-.45l.18-.1a.38.38,0,0,0,.15-.5,3.72,3.72,0,0,0-.21-.39.34.34,0,0,0-.24-.18h-.08a.37.37,0,0,0-.21.06l-.15.09-.26-.37.15-.15a.39.39,0,0,0,0-.52l-.3-.32a.39.39,0,0,0-.27-.11h0a.34.34,0,0,0-.27.13l-.12.13-.35-.27.12-.2a.38.38,0,0,0-.13-.51l-.37-.22a.41.41,0,0,0-.18-.05l-.12,0a.34.34,0,0,0-.22.2l-.09.17a3.52,3.52,0,0,0-.39-.16l.06-.22a.38.38,0,0,0-.26-.46l-.42-.11h-.08a.44.44,0,0,0-.21.07.37.37,0,0,0-.16.24l0,.2-.41,0v-.21a.38.38,0,0,0-.38-.38Zm0,11a4.35,4.35,0,1,1,4.05-4.33,4.2,4.2,0,0,1-4.05,4.33Z" />
    <path class="GUNDAN_MONKEY_JEWELRY_MONKEY_JEWELRY_10_cls-7" d="M242.12,363.77a2.14,2.14,0,1,1,2-2.14A2.09,2.09,0,0,1,242.12,363.77Z" />
    <path d="M242.12,359.68a2,2,0,1,1-1.84,1.95,1.9,1.9,0,0,1,1.84-1.95m0-.38a2.33,2.33,0,1,0,2.21,2.33,2.29,2.29,0,0,0-2.21-2.33Z" />
    <path class="GUNDAN_MONKEY_JEWELRY_MONKEY_JEWELRY_10_cls-7" d="M241.7,368.08l-.41-.05a.18.18,0,0,1-.16-.21l.05-.39a6,6,0,0,1-.73-.19l-.12.36a.29.29,0,0,1-.1.12h-.15l-.39-.16a.2.2,0,0,1-.1-.24l.16-.37a6.58,6.58,0,0,1-.67-.4l-.2.31a.2.2,0,0,1-.13.09h0a.15.15,0,0,1-.11,0,2.88,2.88,0,0,1-.34-.27.19.19,0,0,1,0-.25l.24-.32a4.94,4.94,0,0,1-.55-.57l-.27.24a.17.17,0,0,1-.12,0h0a.16.16,0,0,1-.13-.07c-.09-.12-.18-.23-.26-.35a.2.2,0,0,1,.05-.26l.31-.23a5.41,5.41,0,0,1-.38-.71l-.33.15-.08,0-.07,0a.14.14,0,0,1-.1-.1c-.06-.13-.11-.27-.16-.41a.19.19,0,0,1,.12-.24l.35-.13a7.16,7.16,0,0,1-.19-.8l-.38.05a.17.17,0,0,1-.12,0,.15.15,0,0,1-.07-.12c0-.15,0-.29,0-.44a.19.19,0,0,1,.17-.2l.36,0v-.22q0-.3,0-.6l-.36-.06a.17.17,0,0,1-.16-.21c0-.14,0-.29.07-.43a.16.16,0,0,1,.08-.12.17.17,0,0,1,.1,0h0l.35.08a7.15,7.15,0,0,1,.23-.79l-.33-.16a.18.18,0,0,1-.1-.24,2.87,2.87,0,0,1,.18-.4.18.18,0,0,1,.11-.1h.06l.09,0,.32.17a4.29,4.29,0,0,1,.42-.68l-.29-.26a.18.18,0,0,1,0-.25c.08-.12.18-.23.27-.34a.17.17,0,0,1,.14-.06h0a.24.24,0,0,1,.14.05l.26.26a5.68,5.68,0,0,1,.57-.53l-.22-.33a.2.2,0,0,1,0-.26l.34-.24a.19.19,0,0,1,.1,0h.05a.27.27,0,0,1,.12.09l.19.33a6.16,6.16,0,0,1,.68-.34l-.13-.38a.2.2,0,0,1,.11-.24l.4-.14h.06a.15.15,0,0,1,.09,0,.22.22,0,0,1,.09.12l.1.37a4.58,4.58,0,0,1,.74-.13l0-.4a.2.2,0,0,1,.18-.2l.41,0a.19.19,0,0,1,.19.19v.39a5.94,5.94,0,0,1,.75.08l.08-.38a.2.2,0,0,1,.08-.12.19.19,0,0,1,.1,0h0l.41.11a.19.19,0,0,1,.13.23l-.1.39a4.7,4.7,0,0,1,.7.29l.17-.35a.17.17,0,0,1,.11-.09h.06l.09,0,.36.22a.18.18,0,0,1,.06.25l-.2.35a4.85,4.85,0,0,1,.61.49l.25-.28a.17.17,0,0,1,.13-.07h0a.16.16,0,0,1,.13.06l.3.31a.2.2,0,0,1,0,.26l-.28.27a7.11,7.11,0,0,1,.47.65l.3-.2a.2.2,0,0,1,.11,0h0a.18.18,0,0,1,.12.09c.07.12.14.25.2.38a.19.19,0,0,1-.07.25l-.34.18a5.08,5.08,0,0,1,.29.77l.34-.11h.06a.15.15,0,0,1,.09,0,.18.18,0,0,1,.09.12c0,.14.07.28.1.42a.19.19,0,0,1-.14.23l-.36.08a5.56,5.56,0,0,1,.08.82H248a.19.19,0,0,1,.13.05.2.2,0,0,1,.06.14c0,.16,0,.31,0,.45a.21.21,0,0,1-.07.13.18.18,0,0,1-.12.05l-.38,0a5.6,5.6,0,0,1-.13.82l.36.1a.2.2,0,0,1,.13.23c0,.14-.08.28-.13.42a.18.18,0,0,1-.1.11.11.11,0,0,1-.08,0h-.07l-.33-.13a5.56,5.56,0,0,1-.34.74l.32.21a.2.2,0,0,1,.07.26c-.08.12-.15.25-.23.36a.2.2,0,0,1-.13.09h0a.15.15,0,0,1-.11,0l-.29-.22a6.1,6.1,0,0,1-.51.61l.26.3a.19.19,0,0,1,0,.26c-.1.1-.2.2-.31.29a.18.18,0,0,1-.12.05h0a.2.2,0,0,1-.13-.08l-.23-.29a4.83,4.83,0,0,1-.64.44l.18.36a.19.19,0,0,1-.08.25l-.38.19h-.14a.22.22,0,0,1-.11-.1l-.14-.36a5.13,5.13,0,0,1-.72.25l.07.39a.18.18,0,0,1-.14.22L243,368h0a.21.21,0,0,1-.11,0,.22.22,0,0,1-.08-.13l0-.39a5.09,5.09,0,0,1-.56,0h-.19l0,.39a.21.21,0,0,1-.07.13.18.18,0,0,1-.12.05Zm.42-11a4.53,4.53,0,1,0,4.24,4.52A4.4,4.4,0,0,0,242.12,357.11Z" />
    <path d="M242.1,355.36v.58h0a4.74,4.74,0,0,1,1.07.12l.11-.57.39.1-.14.56a5.66,5.66,0,0,1,1,.43l.25-.52a3.24,3.24,0,0,1,.35.21l-.29.5a4.94,4.94,0,0,1,.87.7l.38-.43.29.3-.41.4a6.86,6.86,0,0,1,.67.93l.47-.31c.07.12.13.25.19.37l-.48.27a6.1,6.1,0,0,1,.4,1.08l.53-.15c0,.13.07.27.09.41l-.53.12a5.5,5.5,0,0,1,.12,1.16H248c0,.14,0,.29,0,.43l-.55,0a6.14,6.14,0,0,1-.19,1.15l.53.15a2.77,2.77,0,0,1-.12.41l-.52-.19a5.51,5.51,0,0,1-.47,1l.47.3c-.07.12-.14.24-.22.36l-.45-.34a5.53,5.53,0,0,1-.72.88l.38.43-.3.28-.35-.45a5.68,5.68,0,0,1-.91.63l.25.52-.36.19-.22-.54a4.74,4.74,0,0,1-1,.36l.11.56-.4.08-.07-.58a6,6,0,0,1-.73.06l-.37,0,0,.58-.4,0,.07-.58a5.33,5.33,0,0,1-1.06-.28l-.18.55c-.13,0-.26-.1-.38-.15l.22-.54a4.79,4.79,0,0,1-1-.57l-.32.48-.32-.26.34-.45a6,6,0,0,1-.77-.82l-.42.36c-.09-.11-.17-.22-.25-.34l.45-.33a6.53,6.53,0,0,1-.54-1l-.5.23-.15-.4.52-.2a6,6,0,0,1-.26-1.13l-.54.08a3,3,0,0,1,0-.42l.54,0c0-.13,0-.26,0-.4a6.32,6.32,0,0,1,.06-.76l-.55-.08c0-.14,0-.29.07-.42l.53.11a6.19,6.19,0,0,1,.34-1.11l-.5-.23c0-.13.11-.26.17-.39l.49.27a5.35,5.35,0,0,1,.59-1l-.42-.37a4,4,0,0,1,.26-.32l.41.4A5,5,0,0,1,239,357l-.32-.48a4,4,0,0,1,.34-.23l.28.5a5.11,5.11,0,0,1,1-.5l-.19-.55a3,3,0,0,1,.39-.13l.14.56a4.9,4.9,0,0,1,1.08-.2l0-.58.4,0m0,11a4.72,4.72,0,1,0-4.43-4.72,4.59,4.59,0,0,0,4.43,4.72m0-11.37h0l-.43,0a.38.38,0,0,0-.35.4l0,.22-.41.08-.05-.2a.35.35,0,0,0-.18-.23.31.31,0,0,0-.18,0h-.11l-.41.14a.39.39,0,0,0-.23.48l.08.21-.38.2-.1-.17a.34.34,0,0,0-.24-.18h-.08a.37.37,0,0,0-.21.06l-.36.25a.38.38,0,0,0-.09.51l.13.19-.32.3-.13-.12a.39.39,0,0,0-.27-.11h0a.37.37,0,0,0-.27.13c-.1.11-.19.22-.28.34a.39.39,0,0,0,0,.52l.16.14-.24.39-.15-.08a.39.39,0,0,0-.18,0h-.12a.36.36,0,0,0-.22.2c-.07.13-.13.27-.19.41a.39.39,0,0,0,.2.49l.18.08c0,.15-.1.31-.14.46l-.17,0h-.08a.42.42,0,0,0-.21.06.4.4,0,0,0-.16.24c0,.15-.05.3-.07.45a.37.37,0,0,0,.32.42l.18,0c0,.16,0,.3,0,.44v.05h-.18a.38.38,0,0,0-.35.4c0,.15,0,.3,0,.45a.41.41,0,0,0,.15.26.35.35,0,0,0,.23.07h.05l.18,0a3.57,3.57,0,0,0,.11.47l-.19.08a.38.38,0,0,0-.23.47c.05.14.1.28.16.42a.39.39,0,0,0,.21.21.35.35,0,0,0,.14,0,.42.42,0,0,0,.16,0l.15-.07c.07.14.15.28.23.41l-.18.13a.38.38,0,0,0-.08.51c.08.13.17.25.25.36a.37.37,0,0,0,.27.15h0a.34.34,0,0,0,.24-.09l.13-.11.31.32-.13.18a.39.39,0,0,0,.05.52l.34.27a.4.4,0,0,0,.23.08h.06A.34.34,0,0,0,239,367l.11-.16a2.77,2.77,0,0,0,.37.22l-.09.21a.38.38,0,0,0,.19.49l.4.17a.34.34,0,0,0,.14,0,.36.36,0,0,0,.36-.26l.06-.19.4.11,0,.22a.39.39,0,0,0,.32.42l.43,0h0a.38.38,0,0,0,.25-.09.46.46,0,0,0,.13-.27v-.2h0l.4,0,0,.2a.38.38,0,0,0,.14.26.39.39,0,0,0,.23.07H243l.42-.08a.38.38,0,0,0,.29-.44l0-.22.39-.13.08.18a.36.36,0,0,0,.21.21.32.32,0,0,0,.14,0,.45.45,0,0,0,.16,0l.38-.2a.37.37,0,0,0,.16-.5l-.1-.2.36-.25.1.15a.4.4,0,0,0,.27.14h0a.37.37,0,0,0,.24-.1l.33-.3a.36.36,0,0,0,0-.51l-.14-.17.28-.35.14.1a.4.4,0,0,0,.23.08H247a.35.35,0,0,0,.26-.16c.08-.12.16-.25.23-.38a.38.38,0,0,0-.12-.51l-.18-.11c.07-.14.14-.29.2-.43l.16.06.13,0a.29.29,0,0,0,.16,0,.34.34,0,0,0,.2-.22c.05-.14.09-.28.13-.43a.38.38,0,0,0-.26-.46l-.19,0a4,4,0,0,0,.08-.48H248a.38.38,0,0,0,.25-.09.38.38,0,0,0,.12-.27c0-.15,0-.3,0-.45a.39.39,0,0,0-.11-.27.4.4,0,0,0-.27-.12h-.18a4.07,4.07,0,0,0-.05-.49l.19,0a.38.38,0,0,0,.29-.44c0-.15-.07-.3-.11-.44a.35.35,0,0,0-.18-.23.29.29,0,0,0-.18-.05h-.11l-.17.05c0-.15-.1-.3-.16-.44l.18-.1a.38.38,0,0,0,.15-.5,3,3,0,0,0-.21-.4.37.37,0,0,0-.24-.18h-.08a.37.37,0,0,0-.21.06l-.15.1c-.08-.13-.17-.25-.26-.37l.15-.16a.38.38,0,0,0,0-.52l-.3-.32a.39.39,0,0,0-.27-.11h0a.41.41,0,0,0-.28.13l-.11.14a3,3,0,0,0-.35-.27l.12-.2a.38.38,0,0,0-.13-.51l-.37-.22a.31.31,0,0,0-.18-.05l-.12,0a.35.35,0,0,0-.22.19l-.09.18a3.52,3.52,0,0,0-.39-.17l.06-.22a.37.37,0,0,0-.26-.45l-.42-.11h-.08a.36.36,0,0,0-.37.31l0,.2-.41-.05v-.21a.38.38,0,0,0-.38-.38Zm0,11a4.35,4.35,0,1,1,4-4.34,4.21,4.21,0,0,1-4,4.34Z" />
    <path class="GUNDAN_MONKEY_JEWELRY_MONKEY_JEWELRY_10_cls-7" d="M244,373.13a1.23,1.23,0,1,1,1.16-1.23A1.2,1.2,0,0,1,244,373.13Z" />
    <path d="M243.94,370.78a1.12,1.12,0,1,1-1.05,1.12,1.09,1.09,0,0,1,1.05-1.12m0-.22a1.34,1.34,0,1,0,1.28,1.34,1.31,1.31,0,0,0-1.28-1.34Z" />
    <path class="GUNDAN_MONKEY_JEWELRY_MONKEY_JEWELRY_10_cls-7" d="M243.71,375.61l-.24,0a.1.1,0,0,1-.09-.12l0-.23a1.85,1.85,0,0,1-.42-.11l-.07.22a.17.17,0,0,1-.06.06h-.09l-.22-.09a.1.1,0,0,1-.05-.14l.08-.21-.38-.23-.12.18a.13.13,0,0,1-.07,0h0l-.07,0-.18-.16a.1.1,0,0,1,0-.15l.14-.18a2.42,2.42,0,0,1-.31-.33l-.16.14a.11.11,0,0,1-.07,0h0a.15.15,0,0,1-.07-.05,1.43,1.43,0,0,1-.14-.2.1.1,0,0,1,0-.14l.18-.14a3.23,3.23,0,0,1-.22-.41l-.19.09h-.08a.13.13,0,0,1-.07-.06,2.09,2.09,0,0,1-.08-.23.11.11,0,0,1,.06-.14l.2-.08a3.41,3.41,0,0,1-.1-.46l-.22,0a.09.09,0,0,1-.07,0,.08.08,0,0,1,0-.07l0-.25a.12.12,0,0,1,.1-.12h.21v-.13c0-.12,0-.23,0-.35l-.21,0a.1.1,0,0,1-.09-.12,2.17,2.17,0,0,1,0-.25.1.1,0,0,1,0-.07l.06,0,.23.05a3.33,3.33,0,0,1,.13-.45l-.19-.09a.11.11,0,0,1-.06-.14c0-.08.07-.16.1-.23a.13.13,0,0,1,.07-.06H241l.18.1a3.26,3.26,0,0,1,.24-.4l-.17-.14a.11.11,0,0,1,0-.15l.15-.19a.12.12,0,0,1,.08,0h0a.11.11,0,0,1,.08,0l.15.15.33-.3-.12-.19a.1.1,0,0,1,0-.15l.2-.14.06,0h0a.11.11,0,0,1,.07.06l.11.19a2.4,2.4,0,0,1,.39-.2l-.07-.22a.11.11,0,0,1,.06-.14l.23-.08h.09a.18.18,0,0,1,0,.07l.06.22a2.07,2.07,0,0,1,.42-.08v-.23a.11.11,0,0,1,.1-.12h.24a.11.11,0,0,1,.11.11v.23a3.13,3.13,0,0,1,.43,0l0-.21s0-.06,0-.07a.07.07,0,0,1,.06,0l.25.06a.11.11,0,0,1,.08.13l-.06.23a2.9,2.9,0,0,1,.41.16l.09-.19a.11.11,0,0,1,.07-.06h0l.05,0,.21.12a.12.12,0,0,1,0,.15l-.12.2a3.07,3.07,0,0,1,.35.28l.14-.16a.09.09,0,0,1,.08,0h0a.11.11,0,0,1,.08,0l.17.18a.11.11,0,0,1,0,.15l-.17.16a3.18,3.18,0,0,1,.27.37l.18-.11.06,0h0a.11.11,0,0,1,.07.06l.12.22a.1.1,0,0,1-.05.14l-.19.1a4,4,0,0,1,.17.44l.2-.06h.08s.05,0,.05.07l.06.25a.11.11,0,0,1-.08.12l-.21.05a3.56,3.56,0,0,1,0,.47h.2a.1.1,0,0,1,.11.11v.26a.2.2,0,0,1,0,.08.11.11,0,0,1-.07,0l-.22,0a3.81,3.81,0,0,1-.07.47l.2.06a.11.11,0,0,1,.08.13c0,.08,0,.16-.08.24a.18.18,0,0,1-.05.07h-.09l-.19-.07c-.06.14-.12.29-.19.42l.18.12a.13.13,0,0,1,0,.15l-.13.21a.14.14,0,0,1-.08,0h0l-.06,0-.17-.13a2.45,2.45,0,0,1-.29.35l.15.17a.11.11,0,0,1,0,.15l-.18.17a.11.11,0,0,1-.08,0h0a.12.12,0,0,1-.07-.05l-.13-.17a3.09,3.09,0,0,1-.37.26l.1.2a.11.11,0,0,1,0,.15l-.22.11h-.08a.09.09,0,0,1-.06-.06l-.09-.2-.41.14,0,.22a.11.11,0,0,1-.08.13l-.25,0a.08.08,0,0,1-.07,0,.1.1,0,0,1,0-.07l0-.23a1.72,1.72,0,0,1-.32,0h-.11l0,.23a.09.09,0,0,1,0,.07.11.11,0,0,1-.07,0Zm.24-6.31a2.61,2.61,0,1,0,2.43,2.6A2.53,2.53,0,0,0,244,369.3Z" />
    <path d="M243.94,368.29v.34h0a3.28,3.28,0,0,1,.63.06l.06-.32.22.05-.08.33a3,3,0,0,1,.58.24l.15-.3.2.12-.16.29a3.2,3.2,0,0,1,.5.41l.21-.25.17.17-.23.23a3.48,3.48,0,0,1,.38.54l.27-.18a2.12,2.12,0,0,1,.11.21l-.28.16a2.55,2.55,0,0,1,.23.62l.31-.09a2,2,0,0,1,0,.24l-.3.07a3.52,3.52,0,0,1,.06.66h.31v.25l-.32,0a3.5,3.5,0,0,1-.1.66l.3.09a2.17,2.17,0,0,1-.07.24l-.3-.11a3.24,3.24,0,0,1-.27.6l.27.17a2.39,2.39,0,0,1-.13.21l-.25-.19a3.37,3.37,0,0,1-.42.5l.22.25-.18.16-.19-.26a3.1,3.1,0,0,1-.53.36l.15.3-.21.11-.13-.31a3,3,0,0,1-.6.21l.07.32-.23,0,0-.33a3,3,0,0,1-.43,0l-.2,0,0,.34a1.6,1.6,0,0,1-.23,0l0-.33a2.49,2.49,0,0,1-.61-.16l-.11.32-.21-.09.12-.31a3.08,3.08,0,0,1-.55-.33l-.18.28-.18-.15.2-.26a2.85,2.85,0,0,1-.45-.47l-.24.21a1.43,1.43,0,0,1-.14-.2l.25-.19a4,4,0,0,1-.31-.58l-.28.13-.09-.23.3-.11a3.61,3.61,0,0,1-.15-.65l-.31,0,0-.25.32,0a1.77,1.77,0,0,1,0-.23,3.15,3.15,0,0,1,0-.44l-.31,0,0-.24.31.07a3.38,3.38,0,0,1,.19-.64l-.29-.13c0-.08.07-.15.1-.23l.28.16a2.93,2.93,0,0,1,.35-.56l-.25-.21.15-.19.24.23a3.27,3.27,0,0,1,.47-.44L242,369a1.33,1.33,0,0,1,.19-.14l.16.29a3.06,3.06,0,0,1,.57-.29l-.11-.32.22-.07.09.32a2.6,2.6,0,0,1,.62-.11l0-.34h.23m0,6.32a2.72,2.72,0,1,0-2.54-2.71,2.63,2.63,0,0,0,2.54,2.71m0-6.53h-.25a.22.22,0,0,0-.2.24v.12l-.23.05,0-.12a.24.24,0,0,0-.11-.13.2.2,0,0,0-.11,0H243l-.23.08a.21.21,0,0,0-.13.27l0,.13-.22.11,0-.1a.21.21,0,0,0-.14-.1h0a.19.19,0,0,0-.12,0l-.21.14a.23.23,0,0,0,0,.3l.08.11a1.54,1.54,0,0,0-.19.17l-.07-.07a.24.24,0,0,0-.16-.07h0a.25.25,0,0,0-.16.08l-.16.19a.22.22,0,0,0,0,.3l.09.08-.14.23-.08-.05-.11,0h-.06a.18.18,0,0,0-.13.11l-.11.23a.24.24,0,0,0,.11.29l.11,0a2.76,2.76,0,0,0-.08.27l-.1,0h0a.28.28,0,0,0-.12,0,.23.23,0,0,0-.09.14,2,2,0,0,0,0,.26.22.22,0,0,0,.18.24l.11,0a2,2,0,0,0,0,.25v0h-.1a.22.22,0,0,0-.2.24,2.11,2.11,0,0,0,0,.25.24.24,0,0,0,.09.15.18.18,0,0,0,.13,0h.13l.06.27-.11,0a.22.22,0,0,0-.13.27l.09.24a.22.22,0,0,0,.13.12l.08,0,.09,0,.09,0,.12.23-.09.08a.2.2,0,0,0-.05.29l.14.21a.27.27,0,0,0,.15.09h0a.2.2,0,0,0,.14-.06l.07-.06.18.19-.08.1a.22.22,0,0,0,0,.29l.2.16a.21.21,0,0,0,.13.05h0a.19.19,0,0,0,.14-.09l.06-.09.21.13-.05.12a.23.23,0,0,0,.11.28l.24.09.07,0,.1,0a.24.24,0,0,0,.11-.13l0-.11.23.06,0,.13a.22.22,0,0,0,.18.24l.25,0h0a.2.2,0,0,0,.14-.06.21.21,0,0,0,.07-.15v-.12h.24v.12a.24.24,0,0,0,.09.15.18.18,0,0,0,.13,0h0l.24-.05a.21.21,0,0,0,.17-.25l0-.12.22-.08,0,.1a.18.18,0,0,0,.12.12l.08,0,.09,0,.22-.12a.21.21,0,0,0,.09-.28l-.06-.12.21-.14.06.08a.19.19,0,0,0,.15.08h0a.2.2,0,0,0,.15-.06l.18-.17a.22.22,0,0,0,0-.3l-.08-.09.16-.21.08.06a.24.24,0,0,0,.13.05h0a.25.25,0,0,0,.15-.1c0-.07.09-.14.13-.22a.21.21,0,0,0-.07-.29l-.1-.06c0-.09.08-.17.11-.25l.09,0,.08,0,.09,0a.2.2,0,0,0,.12-.12c0-.09.05-.17.07-.25a.23.23,0,0,0-.15-.27l-.11,0a2.56,2.56,0,0,0,.05-.27h.12a.24.24,0,0,0,.14-.05.21.21,0,0,0,.07-.15,2.26,2.26,0,0,0,0-.26.23.23,0,0,0-.06-.16.24.24,0,0,0-.16-.07h-.1c0-.09,0-.18,0-.28l.1,0a.22.22,0,0,0,.17-.25l-.06-.26a.23.23,0,0,0-.11-.13.19.19,0,0,0-.1,0h-.07l-.09,0a2.77,2.77,0,0,0-.1-.26l.11-.06a.21.21,0,0,0,.09-.28l-.12-.23a.21.21,0,0,0-.14-.1h0a.17.17,0,0,0-.12,0l-.08.05-.16-.21.09-.09a.22.22,0,0,0,0-.3l-.17-.19a.23.23,0,0,0-.16-.06h0a.21.21,0,0,0-.16.08l-.07.07-.2-.15.07-.12a.21.21,0,0,0-.07-.29l-.22-.13a.16.16,0,0,0-.1,0h-.07a.2.2,0,0,0-.13.11l-.05.1a.85.85,0,0,0-.22-.09l0-.13a.22.22,0,0,0-.15-.27l-.24-.06h0a.24.24,0,0,0-.12,0,.31.31,0,0,0-.1.15l0,.11-.23,0v-.12a.21.21,0,0,0-.22-.21Zm0,6.31a2.49,2.49,0,1,1,2.34-2.49,2.42,2.42,0,0,1-2.34,2.49Z" />
    <path class="GUNDAN_MONKEY_JEWELRY_MONKEY_JEWELRY_10_cls-8" d="M233.38,340.29a1.72,1.72,0,0,1-.39,0,155.18,155.18,0,0,1-33.63-14.05c-23-13.05-37.38-30.05-41.63-49.17-.19-.84-.77-5.59,3.74-5.86,0,0-.07.36-.34,1.28a12.06,12.06,0,0,0,.05,6.84c11.95,39.58,66.9,56.37,72.18,57.83,4.06-1.26,38.51-12.91,55-49,.36-.78-.08-4.18-.29-5.82a5.23,5.23,0,0,1,3.12,7.11c-18.09,39.57-57,50.73-57.41,50.84A1.4,1.4,0,0,1,233.38,340.29Z" />
  </g>
</svg>