<svg id="Jewellry" xmlns="http://www.w3.org/2000/svg" viewBox="0 0 432 432">
  <defs>
    <style>.GUNDAN_MONKEY_JEWELRY_MONKEY_JEWELRY_6_cls-1{fill:#ed9547;}.GUNDAN_MONKEY_JEWELRY_MONKEY_JEWELRY_6_cls-2{fill:#facf56;}.GUNDAN_MONKEY_JEWELRY_MONKEY_JEWELRY_6_cls-3{fill:#b32126;}.GUNDAN_MONKEY_JEWELRY_MONKEY_JEWELRY_6_cls-4{fill:#ee3742;}.GUNDAN_MONKEY_JEWELRY_MONKEY_JEWELRY_6_cls-5,.GUNDAN_MONKEY_JEWELRY_MONKEY_JEWELRY_6_cls-6{fill:none;stroke:#000;stroke-linecap:round;}.GUNDAN_MONKEY_JEWELRY_MONKEY_JEWELRY_6_cls-5{stroke-miterlimit:10;stroke-width:0.9px;}.GUNDAN_MONKEY_JEWELRY_MONKEY_JEWELRY_6_cls-6{stroke-linejoin:round;stroke-width:0.65px;}</style>
  </defs>
  <path class="GUNDAN_MONKEY_JEWELRY_MONKEY_JEWELRY_6_cls-1" d="M136.22,202.17c1-16.18,14.65-11.78,11.43,1.31C140.68,207.67,136.22,202.17,136.22,202.17Z" />
  <path class="GUNDAN_MONKEY_JEWELRY_MONKEY_JEWELRY_6_cls-2" d="M138.05,201.19c.88-13.86,12.56-10.09,9.79,1.13C141.88,205.9,138.05,201.19,138.05,201.19Z" />
  <path class="GUNDAN_MONKEY_JEWELRY_MONKEY_JEWELRY_6_cls-3" d="M147.37,224.23a2.69,2.69,0,0,1-3.86,1.5,2.68,2.68,0,0,1-4.2.4,2.68,2.68,0,0,1-4-1.34,2.69,2.69,0,0,1-3.41-2.34s-3.22,0-3-2.62,7.35-17.66,7.35-17.66,4.46,5.5,11.43,1.31l.1,0s3.57,16.25,3.16,18.86S147.37,224.23,147.37,224.23Z" />
  <path class="GUNDAN_MONKEY_JEWELRY_MONKEY_JEWELRY_6_cls-4" d="M147,222a2.47,2.47,0,0,1-3.54,1.33,2.51,2.51,0,0,1-3.86.35,2.5,2.5,0,0,1-3.67-1.22,2.47,2.47,0,0,1-3.15-2.1s-3,0-2.79-2.35,6.71-15.79,6.71-15.79,4.11,4.94,10.5,1.21h.1s3.32,14.56,3,16.89S147,222,147,222Z" />
  <path class="GUNDAN_MONKEY_JEWELRY_MONKEY_JEWELRY_6_cls-5" d="M136.22,202.17s4.46,5.5,11.43,1.31C150.87,190.39,137.24,186,136.22,202.17Z" />
  <path class="GUNDAN_MONKEY_JEWELRY_MONKEY_JEWELRY_6_cls-5" d="M147.75,203.5s3.57,16.25,3.16,18.86-3.54,1.87-3.54,1.87a2.69,2.69,0,0,1-3.86,1.5,2.68,2.68,0,0,1-4.2.4,2.68,2.68,0,0,1-4-1.34,2.69,2.69,0,0,1-3.41-2.34s-3.22,0-3-2.62,7.35-17.66,7.35-17.66" />
  <path class="GUNDAN_MONKEY_JEWELRY_MONKEY_JEWELRY_6_cls-5" d="M142.71,177.43a6.1,6.1,0,0,1-.31-3.8,3.31,3.31,0,0,1,.29-.78" />
  <path class="GUNDAN_MONKEY_JEWELRY_MONKEY_JEWELRY_6_cls-5" d="M147.76,171.88a3.5,3.5,0,0,1,1.12,3A5.88,5.88,0,0,1,144.5,180l-.44,3.79" />
  <line class="GUNDAN_MONKEY_JEWELRY_MONKEY_JEWELRY_6_cls-5" x1="143.25" y1="191.8" x2="143.55" y2="189.16" />
  <path class="GUNDAN_MONKEY_JEWELRY_MONKEY_JEWELRY_6_cls-5" d="M144.17,183.77a2.71,2.71,0,1,1-3,2.38A2.72,2.72,0,0,1,144.17,183.77Z" />
  <line class="GUNDAN_MONKEY_JEWELRY_MONKEY_JEWELRY_6_cls-5" x1="136.83" y1="208.39" x2="131.9" y2="222.45" />
  <line class="GUNDAN_MONKEY_JEWELRY_MONKEY_JEWELRY_6_cls-5" x1="138.49" y1="212.85" x2="135.31" y2="224.79" />
  <line class="GUNDAN_MONKEY_JEWELRY_MONKEY_JEWELRY_6_cls-5" x1="141.43" y1="208.92" x2="139.31" y2="226.13" />
  <line class="GUNDAN_MONKEY_JEWELRY_MONKEY_JEWELRY_6_cls-5" x1="143.31" y1="215.1" x2="143.51" y2="225.73" />
  <line class="GUNDAN_MONKEY_JEWELRY_MONKEY_JEWELRY_6_cls-5" x1="145" y1="208.16" x2="147.37" y2="224.23" />
  <path class="GUNDAN_MONKEY_JEWELRY_MONKEY_JEWELRY_6_cls-6" d="M148.71,171a2.22,2.22,0,0,0-1.79,2" />
</svg>