<svg id="Jewellry" xmlns="http://www.w3.org/2000/svg" viewBox="0 0 432 432">
  <defs>
    <style>.GUNDAN_MONKEY_JEWELRY_MONKEY_JEWELRY_13_cls-1{fill:#85432d;}.GUNDAN_MONKEY_JEWELRY_MONKEY_JEWELRY_13_cls-2{fill:#009e61;stroke-miterlimit:10;stroke-width:1.14px;}.GUNDAN_MONKEY_JEWELRY_MONKEY_JEWELRY_13_cls-2,.GUNDAN_MONKEY_JEWELRY_MONKEY_JEWELRY_13_cls-3,.GUNDAN_MONKEY_JEWELRY_MONKEY_JEWELRY_13_cls-4{stroke:#000;}.GUNDAN_MONKEY_JEWELRY_MONKEY_JEWELRY_13_cls-3,.GUNDAN_MONKEY_JEWELRY_MONKEY_JEWELRY_13_cls-4{fill:none;stroke-linecap:round;stroke-linejoin:round;}.GUNDAN_MONKEY_JEWELRY_MONKEY_JEWELRY_13_cls-3{stroke-width:1.04px;}.GUNDAN_MONKEY_JEWELRY_MONKEY_JEWELRY_13_cls-4{stroke-width:0.5px;}</style>
  </defs>
  <path class="GUNDAN_MONKEY_JEWELRY_MONKEY_JEWELRY_13_cls-1" d="M141.79,212.87l-.08,0L140,212.4a.52.52,0,0,1-.38-.63l.36-1.4a8.71,8.71,0,0,1-1.2-.66l-1,1a.54.54,0,0,1-.37.16.55.55,0,0,1-.37-.15l-1.34-1.3a.53.53,0,0,1,0-.74l1-1a3.52,3.52,0,0,1-.3-.45c-.14-.22-.27-.47-.4-.72l-1.39.39a.32.32,0,0,1-.14,0,.5.5,0,0,1-.5-.38l-.51-1.8a.53.53,0,0,1,.36-.64l1.39-.39a8.93,8.93,0,0,1,0-1.37l-1.4-.36a.51.51,0,0,1-.32-.24.48.48,0,0,1,0-.39l.46-1.81a.53.53,0,0,1,.51-.39l.12,0,1.4.35a8.11,8.11,0,0,1,.67-1.19l-1-1a.57.57,0,0,1-.16-.37.51.51,0,0,1,.15-.37l1.31-1.33a.5.5,0,0,1,.37-.16.53.53,0,0,1,.37.15l1,1c.17-.12.34-.23.53-.34a5.84,5.84,0,0,1,.65-.35l-.39-1.39a.51.51,0,0,1,.36-.64l1.79-.51.14,0a.48.48,0,0,1,.26.07.5.5,0,0,1,.24.31l.4,1.39a7.5,7.5,0,0,1,.82,0,4.87,4.87,0,0,1,.54,0l.35-1.39a.53.53,0,0,1,.51-.4l.12,0,.56.13,1.26.32a.52.52,0,0,1,.38.63l-.36,1.4a8.77,8.77,0,0,1,1.2.67l1-1a.57.57,0,0,1,.37-.16h0a.55.55,0,0,1,.36.15l1.34,1.3a.53.53,0,0,1,0,.74l-1,1a8.15,8.15,0,0,1,.7,1.18l1.39-.39a.34.34,0,0,1,.14,0,.58.58,0,0,1,.26.06.51.51,0,0,1,.24.32l.51,1.8a.53.53,0,0,1-.36.64l-1.39.39a9,9,0,0,1,0,1.37l1.4.36a.51.51,0,0,1,.32.24.54.54,0,0,1,.06.39l-.47,1.81a.53.53,0,0,1-.51.39l-.13,0-1.39-.36a7.83,7.83,0,0,1-.67,1.2l1,1a.52.52,0,0,1,.16.37.51.51,0,0,1-.15.37l-1.3,1.34a.52.52,0,0,1-.37.16h0a.51.51,0,0,1-.36-.15l-1-1a8.1,8.1,0,0,1-1.18.69l.39,1.39a.52.52,0,0,1-.36.64l-1.79.51-.14,0a.51.51,0,0,1-.5-.38l-.4-1.39h0a4,4,0,0,1-.5,0h-.31l-.52,0-.32,1.27,0,.14a.51.51,0,0,1-.5.38ZM143.33,197a5.91,5.91,0,0,0-1.61.23,5.84,5.84,0,0,0-3.56,2.8,5.93,5.93,0,0,0,5.16,8.82h0a5.84,5.84,0,0,0,1.61-.22,5.93,5.93,0,0,0-1.6-11.63Z" />
  <path d="M144.76,193.46l.56.14,1.25.32-.46,1.83A7.48,7.48,0,0,1,148,196.8l1.32-1.35,1.33,1.29-1.32,1.36a7.42,7.42,0,0,1,1.1,1.84l1.22-.34.6-.17.5,1.8-1.81.51a7.32,7.32,0,0,1,0,2.14l1.84.47-.47,1.81-1.82-.47a8.17,8.17,0,0,1-1.05,1.87l1.35,1.32-1.31,1.34-1.34-1.32a7.58,7.58,0,0,1-1.85,1.09l.51,1.82-1.79.5-.52-1.81-.46.05a3.44,3.44,0,0,1-.46,0h-.3a7,7,0,0,1-.92-.06l-.43,1.71,0,.12-.09,0-1.72-.44.46-1.83a7.66,7.66,0,0,1-1.87-1l-1.31,1.35-.66-.63-.68-.67,1.32-1.35a7.4,7.4,0,0,1-1.1-1.84l-1.82.51-.51-1.8,1.83-.51a7.32,7.32,0,0,1,0-2.14l-1.84-.47.47-1.81,1.83.47a7.78,7.78,0,0,1,1-1.87l-1.36-1.32,1.31-1.34,1.35,1.32a8,8,0,0,1,.84-.59,8.62,8.62,0,0,1,1-.5l-.51-1.82,1.79-.51.52,1.82a8.08,8.08,0,0,1,1.2-.09,7.3,7.3,0,0,1,.94.06l.46-1.83m-1.44,15.9a6.22,6.22,0,0,0,1.75-.25,6.45,6.45,0,0,0-1.74-12.65,6.22,6.22,0,0,0-1.75.25,6.45,6.45,0,0,0,1.74,12.65m1.44-16.94a1,1,0,0,0-1,.79l-.25,1h-.58l-.28-1a1,1,0,0,0-.49-.63,1,1,0,0,0-.51-.13.9.9,0,0,0-.28,0l-1.8.5a1.05,1.05,0,0,0-.72,1.29l.28,1-.3.17-.2.12-.73-.7a1,1,0,0,0-1.47,0l-1.31,1.34a1,1,0,0,0,0,1.47l.73.72c-.1.16-.19.33-.28.5l-1-.25a1.09,1.09,0,0,0-.26,0,1,1,0,0,0-1,.78l-.47,1.81a1,1,0,0,0,.12.79,1,1,0,0,0,.63.48l1,.25c0,.2,0,.39,0,.58l-1,.28a1,1,0,0,0-.72,1.29l.51,1.79a1,1,0,0,0,.49.63,1,1,0,0,0,.51.13.86.86,0,0,0,.28,0l1-.27c.07.13.14.26.22.38l.07.12-.71.73a1,1,0,0,0,0,1.47l.68.67.66.63a1,1,0,0,0,.73.3,1,1,0,0,0,.74-.32l.71-.73.51.29-.25,1a1,1,0,0,0,.75,1.27l1.73.44h0l.09,0,.2,0a1,1,0,0,0,1-.76l0-.12.22-.89h.58l.27,1a1,1,0,0,0,1,.76,1.35,1.35,0,0,0,.28,0l1.8-.51a1,1,0,0,0,.72-1.28l-.28-1a5.09,5.09,0,0,0,.5-.3l.72.71a1.06,1.06,0,0,0,.73.3h0a1.06,1.06,0,0,0,.73-.31l1.31-1.34a1,1,0,0,0,.29-.75,1.06,1.06,0,0,0-.31-.73l-.73-.71c.1-.16.19-.33.28-.51l1,.26.26,0a1,1,0,0,0,1-.78l.47-1.81a1,1,0,0,0-.75-1.27l-1-.25c0-.2,0-.39,0-.58l1-.28a1,1,0,0,0,.72-1.28l-.5-1.8a1.06,1.06,0,0,0-.5-.63,1,1,0,0,0-.51-.13.9.9,0,0,0-.28,0l-.61.17-.37.1c-.1-.17-.19-.34-.3-.5l.71-.73a1,1,0,0,0,0-1.47L150,194.7a1,1,0,0,0-.72-.3h0a1.07,1.07,0,0,0-.73.32l-.71.73-.51-.29.25-1a1,1,0,0,0-.75-1.26l-1.25-.32-.58-.14-.24,0Zm-1.44,15.89a5.4,5.4,0,0,1-4.7-8.05,5.45,5.45,0,0,1,4.71-2.76,5.43,5.43,0,0,1,5.2,3.95,5.65,5.65,0,0,1,.2,1.35,5.41,5.41,0,0,1-3.94,5.31,5.6,5.6,0,0,1-1.47.2Z" />
  <circle class="GUNDAN_MONKEY_JEWELRY_MONKEY_JEWELRY_13_cls-2" cx="143.33" cy="203.75" r="3.16" />
  <line class="GUNDAN_MONKEY_JEWELRY_MONKEY_JEWELRY_13_cls-3" x1="143.33" y1="200.6" x2="143.33" y2="197.35" />
  <path class="GUNDAN_MONKEY_JEWELRY_MONKEY_JEWELRY_13_cls-3" d="M145.32,168.51a6,6,0,0,1,1,6.43c-2.78,6.22-3,9.25-3,9.25v10.47" />
  <path class="GUNDAN_MONKEY_JEWELRY_MONKEY_JEWELRY_13_cls-4" d="M144.72,169.48s0-1.59,1.3-1.43" />
  <path class="GUNDAN_MONKEY_JEWELRY_MONKEY_JEWELRY_13_cls-3" d="M140,173.45a4.61,4.61,0,0,1-.26-3s.31-1.37,1.08-1.37" />
</svg>