<svg id="jewelries" xmlns="http://www.w3.org/2000/svg" viewBox="0 0 432 432">
  <defs>
    <style>.BUNTAI_BEAR_JEWELRY_BEAR_JEWELRY_2_cls-1{fill:#754c24;stroke-miterlimit:10;stroke-width:2px;}.BUNTAI_BEAR_JEWELRY_BEAR_JEWELRY_2_cls-1,.BUNTAI_BEAR_JEWELRY_BEAR_JEWELRY_2_cls-4{stroke:#000;}.BUNTAI_BEAR_JEWELRY_BEAR_JEWELRY_2_cls-2{fill:#22b573;}.BUNTAI_BEAR_JEWELRY_BEAR_JEWELRY_2_cls-3{fill:#c7a858;}.BUNTAI_BEAR_JEWELRY_BEAR_JEWELRY_2_cls-4{fill:none;stroke-linecap:round;stroke-linejoin:round;stroke-width:1.23px;}</style>
  </defs>
  <path class="BUNTAI_BEAR_JEWELRY_BEAR_JEWELRY_2_cls-1" d="M221,383.94l-.14,0-.89.31c-.24.07-.5.17-.76.24l-.72.23h-.05l-.09,0-.52.17a2.65,2.65,0,0,1-.49.09h-.31a1.55,1.55,0,0,1-.31,0l-.1,0a.23.23,0,0,0-.11,0l-.72-.16-1.55-.34-.93-.22-.84-.21-.16,0q-2.41-.58-4.74-1.23c-50.11-13.7-75.67-46.18-88.41-71.76-3.82-7.62-7.72-13.08-9.93-20a.66.66,0,0,1,0-.09c-.16-.63-1.28-5.18,2.2-6.46,3.85-1.41,5.82.45,5.82.45-.93,1.19-1.71,1.81-3.89,4.25,2.21,7,5.56,12.72,9.46,20.52C135.1,334.28,159.55,365.38,207,379h0c2.24.63,4.5,1.23,6.83,1.78l3.25.75,1.42-.46Z" />
  <path class="BUNTAI_BEAR_JEWELRY_BEAR_JEWELRY_2_cls-1" d="M326.65,286.21s-.45,1.17-.45,1.17c-.82,2-1.69,4-2.65,6-11.61,24.77-44,69.57-96.85,88.57l-5.66,2-.14,0c-.17.07-.5.19-.89.31l-1.53.48-.09,0c-.42.12-.78.22-1,.26h-.31l-.41-.06a.23.23,0,0,0-.11,0c-.85-.17-2.25-.49-3.2-.72l-1-.24-.17-3.63,1.69.38,3.25.75,1.42-.46,6.22-2.11c51.91-18.55,83.81-62.64,95.16-86.86a10.64,10.64,0,0,0,1.42-5.27c-.9-2.77-1.4-3.36-1.66-4.28,1.69-1.4,5.37-1.19,6.83.56C327.39,284.14,326.67,286,326.65,286.21Z" />
  <path class="BUNTAI_BEAR_JEWELRY_BEAR_JEWELRY_2_cls-2" d="M242,395.54c2.4,5.86-3.23,13-12.59,16.06s-18.88.7-21.27-5.15l0,0c-2.36-5.85,3.28-13,12.61-16s18.81-.72,21.25,5.09h0A.14.14,0,0,1,242,395.54Z" />
  <path class="BUNTAI_BEAR_JEWELRY_BEAR_JEWELRY_2_cls-3" d="M241.41,393.14a7.36,7.36,0,0,1,.53,2.34c-2.44-5.81-11.93-8.1-21.25-5.09s-15,10.17-12.61,16a7.93,7.93,0,0,1-1.29-2.11c-1.73-4.21.78-9.13,5.88-12.71a26.23,26.23,0,0,1,6.3-3.21l.79-.26a28.18,28.18,0,0,1,8.81-1.38C234.68,386.81,239.77,389.13,241.41,393.14Z" />
  <path class="BUNTAI_BEAR_JEWELRY_BEAR_JEWELRY_2_cls-3" d="M215.27,372.35c-2.87,1.18-3.32,3.44-2.66,5.76a7.58,7.58,0,0,0,.44,1.1,76.18,76.18,0,0,0,5.92,9.17,26.23,26.23,0,0,0-6.3,3.21c-1.64-2.13-6.4-8.79-5.56-13.07S211.81,372.3,215.27,372.35Z" />
  <path class="BUNTAI_BEAR_JEWELRY_BEAR_JEWELRY_2_cls-3" d="M224.77,378.93q-3,1.08-6.23,2.12a6.53,6.53,0,0,0-5.49-1.84,7.58,7.58,0,0,1-.44-1.1c-.66-2.32-.21-4.58,2.66-5.76a8.16,8.16,0,0,1,2.19.33l.36.13a2.58,2.58,0,0,1,.31.13l.07,0a9.6,9.6,0,0,1,1.11.61h0l.38.25a20.87,20.87,0,0,1,4.46,4.32l.38.49Z" />
  <path class="BUNTAI_BEAR_JEWELRY_BEAR_JEWELRY_2_cls-3" d="M228.57,386.74a27.06,27.06,0,0,0-5.64.55,22.32,22.32,0,0,0-1.88-3.35c1.91-.63,3.8-1.28,5.64-1.95A20.09,20.09,0,0,1,228.57,386.74Z" />
  <path class="BUNTAI_BEAR_JEWELRY_BEAR_JEWELRY_2_cls-4" d="M241.94,395.48a.14.14,0,0,1,0,.06c2.4,5.86-3.23,13-12.59,16.06s-18.88.7-21.27-5.15l0,0c-2.36-5.85,3.28-13,12.61-16s18.81-.72,21.25,5.09" />
  <path class="BUNTAI_BEAR_JEWELRY_BEAR_JEWELRY_2_cls-4" d="M241.94,395.48h0a7.36,7.36,0,0,0-.53-2.34c-1.64-4-6.73-6.33-12.84-6.4a28.18,28.18,0,0,0-8.81,1.38l-.79.26a26.23,26.23,0,0,0-6.3,3.21c-5.1,3.58-7.61,8.5-5.88,12.71a7.93,7.93,0,0,0,1.29,2.11" />
  <path class="BUNTAI_BEAR_JEWELRY_BEAR_JEWELRY_2_cls-4" d="M215.27,372.35a8.16,8.16,0,0,1,2.19.33l.36.13a2.58,2.58,0,0,1,.31.13l.07,0,.27.13c.27.14.56.3.84.48h0l.38.25a20.87,20.87,0,0,1,4.46,4.32l.38.49.22.29" />
  <path class="BUNTAI_BEAR_JEWELRY_BEAR_JEWELRY_2_cls-4" d="M222.93,387.29a22.32,22.32,0,0,0-1.88-3.35l5.64-1.95a20.09,20.09,0,0,1,1.88,4.75" />
  <path class="BUNTAI_BEAR_JEWELRY_BEAR_JEWELRY_2_cls-4" d="M212.67,391.59c-1.64-2.13-6.4-8.79-5.56-13.07s4.7-6.22,8.16-6.17" />
  <path class="BUNTAI_BEAR_JEWELRY_BEAR_JEWELRY_2_cls-4" d="M219,388.38a76.18,76.18,0,0,1-5.92-9.17,7.58,7.58,0,0,1-.44-1.1c-.66-2.32-.21-4.58,2.66-5.76h0" />
  <path class="BUNTAI_BEAR_JEWELRY_BEAR_JEWELRY_2_cls-4" d="M213.05,379.21a6.53,6.53,0,0,1,5.49,1.84" />
  <path class="BUNTAI_BEAR_JEWELRY_BEAR_JEWELRY_2_cls-4" d="M211.18,400.8s4.7,1.89,12.42-.94,8.48-6.93,8.48-6.93" />
  <path class="BUNTAI_BEAR_JEWELRY_BEAR_JEWELRY_2_cls-4" d="M228,391.59a12.71,12.71,0,0,1-3.59,8" />
  <path class="BUNTAI_BEAR_JEWELRY_BEAR_JEWELRY_2_cls-4" d="M224.4,393.56s1.12,3.35-4,7.26" />
  <path class="BUNTAI_BEAR_JEWELRY_BEAR_JEWELRY_2_cls-4" d="M218.3,401.21a8.65,8.65,0,0,0,3.33-5.64" />
  <path class="BUNTAI_BEAR_JEWELRY_BEAR_JEWELRY_2_cls-4" d="M222.07,400.37s-4.73,5.07-7.3,5,0-2.92,1.33-2.84.45,1.42-.09,1.62" />
  <path class="BUNTAI_BEAR_JEWELRY_BEAR_JEWELRY_2_cls-4" d="M215.17,408.32a29.61,29.61,0,0,1,8.39-5.47,42,42,0,0,1,12.16-2.48" />
  <path class="BUNTAI_BEAR_JEWELRY_BEAR_JEWELRY_2_cls-4" d="M225,407.65s-1.78-3.32-5.22-2.88" />
  <path class="BUNTAI_BEAR_JEWELRY_BEAR_JEWELRY_2_cls-4" d="M222.07,403.51s4.89,1.7,5.86,5" />
  <path class="BUNTAI_BEAR_JEWELRY_BEAR_JEWELRY_2_cls-4" d="M224.78,402.41s4.28,2.13,4.95,4.33" />
  <path class="BUNTAI_BEAR_JEWELRY_BEAR_JEWELRY_2_cls-4" d="M229.09,401.25s4.67,1.05,5.56,3.09" />
  <path class="BUNTAI_BEAR_JEWELRY_BEAR_JEWELRY_2_cls-4" d="M216.74,395.88s-.26,2.26,1.31,2.51l1.57.24S220,396.48,216.74,395.88Z" />
  <path class="BUNTAI_BEAR_JEWELRY_BEAR_JEWELRY_2_cls-4" d="M222.6,392.38s-1.53,1.14-.8,2l.73.9S224.07,394.29,222.6,392.38Z" />
  <path class="BUNTAI_BEAR_JEWELRY_BEAR_JEWELRY_2_cls-4" d="M228.82,399.72a4.91,4.91,0,0,1,4.17-2.17C231.86,399.52,231.43,399.4,228.82,399.72Z" />
  <path class="BUNTAI_BEAR_JEWELRY_BEAR_JEWELRY_2_cls-4" d="M234.56,397.26a3.3,3.3,0,0,1,4.24-1.54C237.62,397.28,236.34,397.34,234.56,397.26Z" />
  <path class="BUNTAI_BEAR_JEWELRY_BEAR_JEWELRY_2_cls-4" d="M232.54,396.38s.23-3.26,2.16-4A3.26,3.26,0,0,1,232.54,396.38Z" />
  <path class="BUNTAI_BEAR_JEWELRY_BEAR_JEWELRY_2_cls-4" d="M233.54,399a3.8,3.8,0,0,1,4.44,0C236.16,399.84,235.32,399.91,233.54,399Z" />
  <path class="BUNTAI_BEAR_JEWELRY_BEAR_JEWELRY_2_cls-4" d="M234.07,402.18s.36,1.61,3.54,1.36C236.85,402.35,236.83,401.92,234.07,402.18Z" />
  <path class="BUNTAI_BEAR_JEWELRY_BEAR_JEWELRY_2_cls-4" d="M229.39,403a3.72,3.72,0,0,1,2.69,1,5.15,5.15,0,0,1,1.2,2.54S229.59,405.88,229.39,403Z" />
  <path class="BUNTAI_BEAR_JEWELRY_BEAR_JEWELRY_2_cls-4" d="M225.86,408.47a1.59,1.59,0,0,0,.47,2.17A1.64,1.64,0,0,0,225.86,408.47Z" />
</svg>