<svg id="jewelries" xmlns="http://www.w3.org/2000/svg" viewBox="0 0 432 432">
  <defs>
    <style>.BUNTAI_BEAR_JEWELRY_BEAR_JEWELRY_26_cls-1{fill:#fff;}.BUNTAI_BEAR_JEWELRY_BEAR_JEWELRY_26_cls-2{fill:#666;}.BUNTAI_BEAR_JEWELRY_BEAR_JEWELRY_26_cls-3{fill:#c7a858;}.BUNTAI_BEAR_JEWELRY_BEAR_JEWELRY_26_cls-4,.BUNTAI_BEAR_JEWELRY_BEAR_JEWELRY_26_cls-5{fill:none;stroke:#000;stroke-linecap:round;stroke-linejoin:round;}.BUNTAI_BEAR_JEWELRY_BEAR_JEWELRY_26_cls-4{stroke-width:1.3px;}.BUNTAI_BEAR_JEWELRY_BEAR_JEWELRY_26_cls-5{stroke-width:1.14px;}</style>
  </defs>
  <path class="BUNTAI_BEAR_JEWELRY_BEAR_JEWELRY_26_cls-1" d="M160,184.68a18.94,18.94,0,0,1-16.76-5.27,9.24,9.24,0,0,0,6.28-5.09C151.14,177.06,154.24,180.81,160,184.68Z" />
  <path class="BUNTAI_BEAR_JEWELRY_BEAR_JEWELRY_26_cls-1" d="M160.21,184.84c-3.18,1.34-15.11,5.07-26.07-8.15a9.29,9.29,0,0,0,3.67-.53,45.3,45.3,0,0,1-4.39-1.84,48.45,48.45,0,0,1-.53-16.68l3.09-1.9-.52,2.77,2.14-1.7c-.76,6.48-.49,13.77,2.87,19.09a21.59,21.59,0,0,0,2.74,3.51A18.94,18.94,0,0,0,160,184.68Z" />
  <path class="BUNTAI_BEAR_JEWELRY_BEAR_JEWELRY_26_cls-2" d="M140.07,149.22s4.28,1.38,5.2,1.28l-3.49,1.58,2.41.86-2.61.85s3,4,5,4.58c-4.62-.13-6.49-1.25-6.49-1.25l-1.26,3.1-1.28-3.41a69.44,69.44,0,0,1,1.36-7.59Z" />
  <path class="BUNTAI_BEAR_JEWELRY_BEAR_JEWELRY_26_cls-1" d="M138.88,160.22l1.26-3.1.06,2.24s2.18,7,5.47,8.83c-2.31,5.4-2.31,6.52-2.31,6.52l4.29-4.75a13.47,13.47,0,0,0,1.84,4.36,9.24,9.24,0,0,1-6.28,5.09,21.59,21.59,0,0,1-2.74-3.51c-3.36-5.32-3.63-12.61-2.87-19.09Z" />
  <path class="BUNTAI_BEAR_JEWELRY_BEAR_JEWELRY_26_cls-2" d="M139,149.22a69.44,69.44,0,0,0-1.36,7.59l-2.14,1.7.52-2.77-3.09,1.9a7.9,7.9,0,0,1-3,1.72,15.17,15.17,0,0,0,2.7-4.87l-1.52-.66,2-1.65-1.84-2.24s3.49-.07,3.89-.13,2.61-.59,2.61-.59Z" />
  <path class="BUNTAI_BEAR_JEWELRY_BEAR_JEWELRY_26_cls-3" d="M141.5,136.17a3.47,3.47,0,0,1-.23,6.94,3.68,3.68,0,0,1-.58-.05,3.48,3.48,0,0,1,.58-6.9Z" />
  <path class="BUNTAI_BEAR_JEWELRY_BEAR_JEWELRY_26_cls-4" d="M141.5,136.17a3.47,3.47,0,0,1-.23,6.94,3.68,3.68,0,0,1-.58-.05,3.48,3.48,0,0,1,.58-6.9Z" />
  <path class="BUNTAI_BEAR_JEWELRY_BEAR_JEWELRY_26_cls-4" d="M139,149.22h-1.15s-2.22.52-2.61.59-3.89.13-3.89.13l1.84,2.24-2,1.65,1.52.66a15.17,15.17,0,0,1-2.7,4.87,7.9,7.9,0,0,0,3-1.72,48.45,48.45,0,0,0,.53,16.68,45.3,45.3,0,0,0,4.39,1.84,9.29,9.29,0,0,1-3.67.53c11,13.22,22.89,9.49,26.07,8.15l-.24-.16c-5.73-3.87-8.83-7.62-10.48-10.36a13.47,13.47,0,0,1-1.84-4.36l-4.29,4.75s0-1.12,2.31-6.52c-3.29-1.78-5.47-8.83-5.47-8.83l-.06-2.24s1.87,1.12,6.49,1.25c-2-.59-5-4.58-5-4.58l2.61-.85-2.41-.86,3.49-1.58c-.92.1-5.2-1.28-5.2-1.28H139" />
  <path class="BUNTAI_BEAR_JEWELRY_BEAR_JEWELRY_26_cls-4" d="M140.69,143.06c-.45,1.34-1.11,3.51-1.73,6.16a69.44,69.44,0,0,0-1.36,7.59c-.76,6.48-.49,13.77,2.87,19.09a21.59,21.59,0,0,0,2.74,3.51A18.94,18.94,0,0,0,160,184.68" />
  <path class="BUNTAI_BEAR_JEWELRY_BEAR_JEWELRY_26_cls-4" d="M143.21,179.41a9.24,9.24,0,0,0,6.28-5.09" />
  <polyline class="BUNTAI_BEAR_JEWELRY_BEAR_JEWELRY_26_cls-4" points="140.14 157.12 138.88 160.22 137.6 156.81 135.46 158.51 135.98 155.74 132.89 157.65" />
  <line class="BUNTAI_BEAR_JEWELRY_BEAR_JEWELRY_26_cls-4" x1="141.5" y1="136.18" x2="141.5" y2="124.52" />
  <path class="BUNTAI_BEAR_JEWELRY_BEAR_JEWELRY_26_cls-3" d="M141.51,124.28c-2.21,0-1.85-3-1.85-3h0a6,6,0,0,0,2.71.57,2.56,2.56,0,0,0,1.22-.3C143.59,121.71,143.63,124.28,141.51,124.28Z" />
  <path class="BUNTAI_BEAR_JEWELRY_BEAR_JEWELRY_26_cls-3" d="M145.3,112.41c.81,2.69.64,7.83-1.71,9.12a2.56,2.56,0,0,1-1.22.3,6,6,0,0,1-2.71-.57c-2-1-3-3.27-2.9-6.75a10.9,10.9,0,0,1,.62-3.39,7.24,7.24,0,0,1,2-3.06,2.52,2.52,0,0,1,1.8-.75,3.09,3.09,0,0,1,2.2,1.3,5.15,5.15,0,0,1-1,.18h-.05a5.63,5.63,0,0,0-2.47,3.81c-.62,3,.41,6.27,1.9,6.27,1.67,0,1.69-3.85,1.58-5.9l.13,0A7.08,7.08,0,0,0,145.3,112.41Z" />
  <path class="BUNTAI_BEAR_JEWELRY_BEAR_JEWELRY_26_cls-3" d="M138.74,98c.84-.34,4.42-.63,4.49-.21s-1.19,2.12-1.1,2.45a12.28,12.28,0,0,0-2.6,1.48s-2.7,2.35-1.15,5.24a3,3,0,0,0,1,1.09,7.24,7.24,0,0,0-2,3.06C133.8,108,132.84,101.65,138.74,98Z" />
  <path class="BUNTAI_BEAR_JEWELRY_BEAR_JEWELRY_26_cls-3" d="M148.84,107.64a6.34,6.34,0,0,1-3.54,4.76,7.08,7.08,0,0,1-1.84.56l-.13,0a6.79,6.79,0,0,1-3.48-.37,5.59,5.59,0,0,1,2.47-3.81h.06a4.62,4.62,0,0,0,1-.19,2.86,2.86,0,0,0,2.05-1.78,2.37,2.37,0,0,0,.12-.76c0-3.14-1.23-3.29-1.23-3.29s-.07-.17-.15-.43a4,4,0,0,1,3.13-2.63A10.7,10.7,0,0,1,148.84,107.64Z" />
  <path class="BUNTAI_BEAR_JEWELRY_BEAR_JEWELRY_26_cls-5" d="M137.38,111.12c-3.58-3.17-4.54-9.47,1.36-13.11.79-.38,1.75-.87,5.49,0a4.77,4.77,0,0,0-2.36,2.55,4.12,4.12,0,0,0-2.34,1.17s-2.7,2.35-1.15,5.24a3,3,0,0,0,1,1.09" />
  <path class="BUNTAI_BEAR_JEWELRY_BEAR_JEWELRY_26_cls-5" d="M139.85,112.61a6.79,6.79,0,0,0,3.48.37l.13,0a7.08,7.08,0,0,0,1.84-.56,6.34,6.34,0,0,0,3.54-4.76,10.7,10.7,0,0,0-1.57-7.93" />
  <path class="BUNTAI_BEAR_JEWELRY_BEAR_JEWELRY_26_cls-5" d="M144.14,102.34c.08.26.15.43.15.43s1.19.15,1.23,3.29a2.37,2.37,0,0,1-.12.76,2.86,2.86,0,0,1-2.05,1.78,4.62,4.62,0,0,1-1,.19" />
  <path class="BUNTAI_BEAR_JEWELRY_BEAR_JEWELRY_26_cls-5" d="M145.3,112.41c.81,2.69.64,7.83-1.71,9.12a2.56,2.56,0,0,1-1.22.3,6,6,0,0,1-2.71-.57c-2-1-3-3.27-2.9-6.75a10.9,10.9,0,0,1,.62-3.39,7.24,7.24,0,0,1,2-3.06,2.52,2.52,0,0,1,1.8-.75,3.09,3.09,0,0,1,2.2,1.3" />
  <path class="BUNTAI_BEAR_JEWELRY_BEAR_JEWELRY_26_cls-5" d="M143.33,113c.11,2,.09,5.9-1.58,5.9-1.49,0-2.52-3.31-1.9-6.27a5.63,5.63,0,0,1,2.47-3.81h.05" />
  <path class="BUNTAI_BEAR_JEWELRY_BEAR_JEWELRY_26_cls-5" d="M139.66,121.27s-.36,3,1.85,3,2.08-2.57,2.08-2.75h0" />
  <path class="BUNTAI_BEAR_JEWELRY_BEAR_JEWELRY_26_cls-5" d="M144.37,105.57a4,4,0,0,1-.46-1.88,4,4,0,0,1,3.36-4,3.85,3.85,0,0,1,.69-.06,2.75,2.75,0,0,1,2.73,2" />
</svg>