<svg id="jewelries" xmlns="http://www.w3.org/2000/svg" viewBox="0 0 432 432">
  <defs>
    <style>.BUNTAI_BEAR_JEWELRY_BEAR_JEWELRY_13_cls-1{fill:#e2cb6e;stroke-width:1.12px;}.BUNTAI_BEAR_JEWELRY_BEAR_JEWELRY_13_cls-1,.BUNTAI_BEAR_JEWELRY_BEAR_JEWELRY_13_cls-2,.BUNTAI_BEAR_JEWELRY_BEAR_JEWELRY_13_cls-6{stroke:#000;stroke-linecap:round;stroke-linejoin:round;}.BUNTAI_BEAR_JEWELRY_BEAR_JEWELRY_13_cls-2,.BUNTAI_BEAR_JEWELRY_BEAR_JEWELRY_13_cls-6{fill:none;}.BUNTAI_BEAR_JEWELRY_BEAR_JEWELRY_13_cls-2{stroke-width:1.28px;}.BUNTAI_BEAR_JEWELRY_BEAR_JEWELRY_13_cls-3{fill:#d64948;}.BUNTAI_BEAR_JEWELRY_BEAR_JEWELRY_13_cls-4{fill:#3993d6;}.BUNTAI_BEAR_JEWELRY_BEAR_JEWELRY_13_cls-5{fill:#fff;}.BUNTAI_BEAR_JEWELRY_BEAR_JEWELRY_13_cls-6{stroke-width:1.28px;}.BUNTAI_BEAR_JEWELRY_BEAR_JEWELRY_13_cls-7{fill:#a18847;}</style>
  </defs>
  <path class="BUNTAI_BEAR_JEWELRY_BEAR_JEWELRY_13_cls-1" d="M282.81,211.6a11,11,0,0,1-2.38,3.61,6.83,6.83,0,0,1,.43,2.43A7.74,7.74,0,0,1,273,225.2c-4.36,0-9.23-3.39-9.23-7.56a7.21,7.21,0,0,1,.74-3.17,3.26,3.26,0,0,1-.22-.34,22.9,22.9,0,0,0-2.11-3,10.84,10.84,0,0,0-2.22,6.54c0,6.18,6.57,11.2,13,11.2a11.48,11.48,0,0,0,11.72-11.2A10.73,10.73,0,0,0,282.81,211.6Z" />
  <path class="BUNTAI_BEAR_JEWELRY_BEAR_JEWELRY_13_cls-2" d="M282.81,211.6a11,11,0,0,1-2.38,3.61,6.83,6.83,0,0,1,.43,2.43A7.74,7.74,0,0,1,273,225.2c-4.36,0-9.23-3.39-9.23-7.56a7.21,7.21,0,0,1,.74-3.17,3.26,3.26,0,0,1-.22-.34,22.9,22.9,0,0,0-2.11-3,10.84,10.84,0,0,0-2.22,6.54c0,6.18,6.57,11.2,13,11.2a11.48,11.48,0,0,0,11.72-11.2A10.73,10.73,0,0,0,282.81,211.6Z" />
  <path class="BUNTAI_BEAR_JEWELRY_BEAR_JEWELRY_13_cls-3" d="M153.39,172.81l1.36,41.76H138.22a27.42,27.42,0,0,1,15.17-41.76Z" />
  <circle class="BUNTAI_BEAR_JEWELRY_BEAR_JEWELRY_13_cls-4" cx="141.23" cy="161.18" r="5.91" />
  <path class="BUNTAI_BEAR_JEWELRY_BEAR_JEWELRY_13_cls-5" d="M143,143.28h0a1.55,1.55,0,0,0-3.09,0h0a1.55,1.55,0,1,0,3.09,0Zm1.71,0h7.76l1,29.54a27.42,27.42,0,0,0-15.17,41.76H128.07l2.32-71.3h7.77a3.26,3.26,0,0,1,6.51,0Zm2.47,17.91a5.91,5.91,0,1,0-5.91,5.91A5.9,5.9,0,0,0,147.14,161.18Z" />
  <polyline class="BUNTAI_BEAR_JEWELRY_BEAR_JEWELRY_13_cls-6" points="141.42 127.09 141.42 140.02 141.42 141.73 141.42 143.28" />
  <path class="BUNTAI_BEAR_JEWELRY_BEAR_JEWELRY_13_cls-6" d="M153.39,172.81l-1-29.54h-7.76a3.26,3.26,0,0,0-6.51,0h-7.77l-2.32,71.3h10.15" />
  <path class="BUNTAI_BEAR_JEWELRY_BEAR_JEWELRY_13_cls-6" d="M139.87,143.27a1.55,1.55,0,0,1,3.09,0" />
  <path class="BUNTAI_BEAR_JEWELRY_BEAR_JEWELRY_13_cls-6" d="M139.87,143.27h0a1.55,1.55,0,1,0,3.09,0h0" />
  <path class="BUNTAI_BEAR_JEWELRY_BEAR_JEWELRY_13_cls-6" d="M153.39,172.81h0l1.36,41.76H138.22a27.42,27.42,0,0,1,15.17-41.76Z" />
  <circle class="BUNTAI_BEAR_JEWELRY_BEAR_JEWELRY_13_cls-6" cx="141.23" cy="161.18" r="5.91" />
  <path class="BUNTAI_BEAR_JEWELRY_BEAR_JEWELRY_13_cls-7" d="M141.29,127.29c-2.48,0-2.07-3.39-2.07-3.39h0a6.85,6.85,0,0,0,3,.64,2.78,2.78,0,0,0,1.37-.34C143.63,124.4,143.68,127.29,141.29,127.29Z" />
  <path class="BUNTAI_BEAR_JEWELRY_BEAR_JEWELRY_13_cls-7" d="M145.56,114c.91,3,.71,8.8-1.93,10.25a2.78,2.78,0,0,1-1.37.34,6.85,6.85,0,0,1-3-.64c-2.27-1.11-3.42-3.68-3.27-7.59a12.19,12.19,0,0,1,.71-3.81,8,8,0,0,1,2.21-3.44,2.81,2.81,0,0,1,2-.84,3.45,3.45,0,0,1,2.47,1.46,5.63,5.63,0,0,1-1.1.2h-.06a6.29,6.29,0,0,0-2.77,4.28c-.7,3.32.46,7,2.14,7,1.87,0,1.89-4.33,1.77-6.62l.14,0A8.44,8.44,0,0,0,145.56,114Z" />
  <path class="BUNTAI_BEAR_JEWELRY_BEAR_JEWELRY_13_cls-7" d="M138.18,97.77c.95-.38,5-.71,5-.24.1.63-1.33,2.39-1.23,2.76a13.3,13.3,0,0,0-2.92,1.67s-3,2.63-1.3,5.88a3.41,3.41,0,0,0,1.1,1.22,8,8,0,0,0-2.21,3.44C132.63,108.94,131.55,101.86,138.18,97.77Z" />
  <path class="BUNTAI_BEAR_JEWELRY_BEAR_JEWELRY_13_cls-7" d="M149.53,108.59a7.16,7.16,0,0,1-4,5.36,7.77,7.77,0,0,1-2.06.62l-.15,0a7.56,7.56,0,0,1-3.91-.41,6.28,6.28,0,0,1,2.77-4.28h.07a4.9,4.9,0,0,0,1.09-.22,3.23,3.23,0,0,0,2.31-2,2.67,2.67,0,0,0,.13-.86c0-3.52-1.39-3.69-1.39-3.69s-.07-.19-.16-.48a4.52,4.52,0,0,1,3.52-3A12,12,0,0,1,149.53,108.59Z" />
  <path class="BUNTAI_BEAR_JEWELRY_BEAR_JEWELRY_13_cls-6" d="M136.66,112.5c-4-3.56-5.11-10.64,1.52-14.73.89-.43,2-1,6.17,0a5.35,5.35,0,0,0-2.66,2.87,4.59,4.59,0,0,0-2.62,1.32s-3,2.63-1.3,5.88a3.41,3.41,0,0,0,1.1,1.22" />
  <path class="BUNTAI_BEAR_JEWELRY_BEAR_JEWELRY_13_cls-6" d="M139.43,114.18a7.56,7.56,0,0,0,3.91.41l.15,0a7.77,7.77,0,0,0,2.06-.62,7.16,7.16,0,0,0,4-5.36,12,12,0,0,0-1.76-8.91" />
  <path class="BUNTAI_BEAR_JEWELRY_BEAR_JEWELRY_13_cls-6" d="M144.25,102.64c.09.29.16.48.16.48s1.35.17,1.39,3.69a2.67,2.67,0,0,1-.13.86,3.23,3.23,0,0,1-2.31,2,4.9,4.9,0,0,1-1.09.22" />
  <path class="BUNTAI_BEAR_JEWELRY_BEAR_JEWELRY_13_cls-6" d="M145.56,114c.91,3,.71,8.8-1.93,10.25a2.78,2.78,0,0,1-1.37.34,6.85,6.85,0,0,1-3-.64c-2.27-1.11-3.42-3.68-3.27-7.59a12.19,12.19,0,0,1,.71-3.81,8,8,0,0,1,2.21-3.44,2.81,2.81,0,0,1,2-.84,3.45,3.45,0,0,1,2.47,1.46" />
  <path class="BUNTAI_BEAR_JEWELRY_BEAR_JEWELRY_13_cls-6" d="M143.34,114.6c.12,2.29.1,6.62-1.77,6.62-1.68,0-2.84-3.72-2.14-7a6.29,6.29,0,0,1,2.77-4.28h.06" />
  <path class="BUNTAI_BEAR_JEWELRY_BEAR_JEWELRY_13_cls-6" d="M139.22,123.9s-.41,3.39,2.07,3.39,2.34-2.89,2.34-3.09h0" />
  <path class="BUNTAI_BEAR_JEWELRY_BEAR_JEWELRY_13_cls-6" d="M144.51,106.26a4.54,4.54,0,0,1-.52-2.11,4.44,4.44,0,0,1,.26-1.51,4.52,4.52,0,0,1,3.52-3,3.8,3.8,0,0,1,.77-.07,3.08,3.08,0,0,1,3.07,2.28" />
  <path class="BUNTAI_BEAR_JEWELRY_BEAR_JEWELRY_13_cls-3" d="M308.85,175.42l-1.36,41.76H324a27.4,27.4,0,0,0-15.16-41.76Z" />
  <circle class="BUNTAI_BEAR_JEWELRY_BEAR_JEWELRY_13_cls-4" cx="321.01" cy="163.78" r="5.91" />
  <path class="BUNTAI_BEAR_JEWELRY_BEAR_JEWELRY_13_cls-5" d="M320.82,147.43a1.54,1.54,0,0,0,1.55-1.54h0a1.55,1.55,0,0,0-3.09,0h0A1.54,1.54,0,0,0,320.82,147.43Zm0-4.8a3.26,3.26,0,0,1,3.26,3.25h7.77l2.32,71.3H324a27.4,27.4,0,0,0-15.16-41.76l1-29.54h7.75A3.26,3.26,0,0,1,320.82,142.63Zm.19,27.06a5.91,5.91,0,1,0-5.91-5.91A5.91,5.91,0,0,0,321,169.69Z" />
  <polyline class="BUNTAI_BEAR_JEWELRY_BEAR_JEWELRY_13_cls-6" points="320.82 129.7 320.82 142.63 320.82 144.34 320.82 145.89" />
  <path class="BUNTAI_BEAR_JEWELRY_BEAR_JEWELRY_13_cls-6" d="M308.86,175.42l1-29.54h7.75a3.26,3.26,0,0,1,6.51,0h7.77l2.32,71.3H324" />
  <path class="BUNTAI_BEAR_JEWELRY_BEAR_JEWELRY_13_cls-6" d="M322.37,145.88a1.55,1.55,0,0,0-3.09,0" />
  <path class="BUNTAI_BEAR_JEWELRY_BEAR_JEWELRY_13_cls-6" d="M322.37,145.88h0a1.55,1.55,0,0,1-3.09,0h0" />
  <path class="BUNTAI_BEAR_JEWELRY_BEAR_JEWELRY_13_cls-6" d="M308.86,175.42h0l-1.36,41.76H324a27.4,27.4,0,0,0-15.16-41.76Z" />
  <circle class="BUNTAI_BEAR_JEWELRY_BEAR_JEWELRY_13_cls-6" cx="321.01" cy="163.78" r="5.91" />
  <path class="BUNTAI_BEAR_JEWELRY_BEAR_JEWELRY_13_cls-7" d="M321,129.89c2.48,0,2.07-3.38,2.07-3.38h0a6.68,6.68,0,0,1-3,.65,2.85,2.85,0,0,1-1.36-.34C318.61,127,318.56,129.89,321,129.89Z" />
  <path class="BUNTAI_BEAR_JEWELRY_BEAR_JEWELRY_13_cls-7" d="M316.69,116.56c-.91,3-.72,8.8,1.93,10.25a2.85,2.85,0,0,0,1.36.34,6.68,6.68,0,0,0,3-.65c2.28-1.1,3.42-3.67,3.27-7.58a12.5,12.5,0,0,0-.7-3.81,8.16,8.16,0,0,0-2.21-3.44,2.83,2.83,0,0,0-2-.84,3.45,3.45,0,0,0-2.47,1.46,5.63,5.63,0,0,0,1.1.2H320a6.3,6.3,0,0,1,2.78,4.27c.69,3.33-.47,7-2.15,7-1.86,0-1.89-4.33-1.77-6.62l-.14,0A8.23,8.23,0,0,1,316.69,116.56Z" />
  <path class="BUNTAI_BEAR_JEWELRY_BEAR_JEWELRY_13_cls-7" d="M324.06,100.38c-.94-.38-5-.71-5-.24-.1.63,1.34,2.38,1.24,2.76a13.64,13.64,0,0,1,2.92,1.66s3,2.64,1.29,5.89a3.47,3.47,0,0,1-1.09,1.22,8.16,8.16,0,0,1,2.21,3.44C329.61,111.55,330.69,104.46,324.06,100.38Z" />
  <path class="BUNTAI_BEAR_JEWELRY_BEAR_JEWELRY_13_cls-7" d="M312.71,111.2a7.15,7.15,0,0,0,4,5.35,7.84,7.84,0,0,0,2.07.63l.14,0a7.6,7.6,0,0,0,3.92-.41,6.27,6.27,0,0,0-2.78-4.28H320a5.79,5.79,0,0,1-1.1-.22,3.19,3.19,0,0,1-2.3-2,2.67,2.67,0,0,1-.14-.86c.05-3.52,1.39-3.69,1.39-3.69s.08-.19.17-.48a4.55,4.55,0,0,0-3.53-3A12,12,0,0,0,312.71,111.2Z" />
  <path class="BUNTAI_BEAR_JEWELRY_BEAR_JEWELRY_13_cls-6" d="M325.59,115.11c4-3.56,5.1-10.65-1.53-14.73-.88-.43-2-1-6.16,0a5.37,5.37,0,0,1,2.65,2.87,4.65,4.65,0,0,1,2.63,1.31s3,2.64,1.29,5.89a3.47,3.47,0,0,1-1.09,1.22" />
  <path class="BUNTAI_BEAR_JEWELRY_BEAR_JEWELRY_13_cls-6" d="M322.82,116.79a7.6,7.6,0,0,1-3.92.41l-.14,0a7.84,7.84,0,0,1-2.07-.63,7.15,7.15,0,0,1-4-5.35,12,12,0,0,1,1.76-8.91" />
  <path class="BUNTAI_BEAR_JEWELRY_BEAR_JEWELRY_13_cls-6" d="M318,105.25c-.09.29-.17.48-.17.48s-1.34.17-1.39,3.69a2.67,2.67,0,0,0,.14.86,3.19,3.19,0,0,0,2.3,2,5.79,5.79,0,0,0,1.1.22" />
  <path class="BUNTAI_BEAR_JEWELRY_BEAR_JEWELRY_13_cls-6" d="M316.69,116.56c-.91,3-.72,8.8,1.93,10.25a2.85,2.85,0,0,0,1.36.34,6.68,6.68,0,0,0,3-.65c2.28-1.1,3.42-3.67,3.27-7.58a12.5,12.5,0,0,0-.7-3.81,8.16,8.16,0,0,0-2.21-3.44,2.83,2.83,0,0,0-2-.84,3.45,3.45,0,0,0-2.47,1.46" />
  <path class="BUNTAI_BEAR_JEWELRY_BEAR_JEWELRY_13_cls-6" d="M318.9,117.21c-.12,2.29-.09,6.62,1.77,6.62,1.68,0,2.84-3.72,2.15-7a6.3,6.3,0,0,0-2.78-4.27H320" />
  <path class="BUNTAI_BEAR_JEWELRY_BEAR_JEWELRY_13_cls-6" d="M323,126.51s.41,3.38-2.07,3.38-2.34-2.88-2.33-3.08h0" />
  <path class="BUNTAI_BEAR_JEWELRY_BEAR_JEWELRY_13_cls-6" d="M317.74,108.87a4.54,4.54,0,0,0,.51-2.11,4.69,4.69,0,0,0-.25-1.51,4.55,4.55,0,0,0-3.53-3,3.8,3.8,0,0,0-.77-.07,3.09,3.09,0,0,0-3.07,2.28" />
</svg>