<svg id="jewelries" xmlns="http://www.w3.org/2000/svg" viewBox="0 0 432 432">
  <defs>
    <style>.BUNTAI_BEAR_JEWELRY_BEAR_JEWELRY_14_cls-1,.BUNTAI_BEAR_JEWELRY_BEAR_JEWELRY_14_cls-6{fill:#fff;}.BUNTAI_BEAR_JEWELRY_BEAR_JEWELRY_14_cls-2{fill:#666;}.BUNTAI_BEAR_JEWELRY_BEAR_JEWELRY_14_cls-3{fill:#c7a858;}.BUNTAI_BEAR_JEWELRY_BEAR_JEWELRY_14_cls-4,.BUNTAI_BEAR_JEWELRY_BEAR_JEWELRY_14_cls-5,.BUNTAI_BEAR_JEWELRY_BEAR_JEWELRY_14_cls-9{fill:none;}.BUNTAI_BEAR_JEWELRY_BEAR_JEWELRY_14_cls-4,.BUNTAI_BEAR_JEWELRY_BEAR_JEWELRY_14_cls-5,.BUNTAI_BEAR_JEWELRY_BEAR_JEWELRY_14_cls-6,.BUNTAI_BEAR_JEWELRY_BEAR_JEWELRY_14_cls-7,.BUNTAI_BEAR_JEWELRY_BEAR_JEWELRY_14_cls-9{stroke:#000;}.BUNTAI_BEAR_JEWELRY_BEAR_JEWELRY_14_cls-4,.BUNTAI_BEAR_JEWELRY_BEAR_JEWELRY_14_cls-5,.BUNTAI_BEAR_JEWELRY_BEAR_JEWELRY_14_cls-6,.BUNTAI_BEAR_JEWELRY_BEAR_JEWELRY_14_cls-9{stroke-linecap:round;stroke-linejoin:round;}.BUNTAI_BEAR_JEWELRY_BEAR_JEWELRY_14_cls-4{stroke-width:1.3px;}.BUNTAI_BEAR_JEWELRY_BEAR_JEWELRY_14_cls-5{stroke-width:1.14px;}.BUNTAI_BEAR_JEWELRY_BEAR_JEWELRY_14_cls-6{stroke-width:0.94px;}.BUNTAI_BEAR_JEWELRY_BEAR_JEWELRY_14_cls-7{fill:#754c24;stroke-miterlimit:10;stroke-width:1.47px;}.BUNTAI_BEAR_JEWELRY_BEAR_JEWELRY_14_cls-8{fill:#333;}.BUNTAI_BEAR_JEWELRY_BEAR_JEWELRY_14_cls-9{stroke-width:0.95px;}</style>
  </defs>
  <path class="BUNTAI_BEAR_JEWELRY_BEAR_JEWELRY_14_cls-1" d="M159.52,185c-2.79.46-10.61,1.07-16.76-5.27a9.25,9.25,0,0,0,6.28-5.1C150.69,177.37,153.78,181.13,159.52,185Z" />
  <path class="BUNTAI_BEAR_JEWELRY_BEAR_JEWELRY_14_cls-1" d="M159.75,185.15c-3.18,1.34-15.11,5.07-26.06-8.15a9.31,9.31,0,0,0,3.66-.52,46,46,0,0,1-4.39-1.85,48.53,48.53,0,0,1-.52-16.67l3.09-1.91-.52,2.78,2.14-1.71c-.76,6.49-.5,13.77,2.86,19.09a21.18,21.18,0,0,0,2.75,3.52c6.15,6.34,14,5.73,16.76,5.27A1.5,1.5,0,0,1,159.75,185.15Z" />
  <path class="BUNTAI_BEAR_JEWELRY_BEAR_JEWELRY_14_cls-2" d="M139.61,149.53s4.29,1.38,5.21,1.28l-3.49,1.58,2.4.86-2.6.86s3,4,5,4.57c-4.61-.13-6.49-1.25-6.49-1.25l-1.25,3.1-1.28-3.41a67.54,67.54,0,0,1,1.36-7.59Z" />
  <path class="BUNTAI_BEAR_JEWELRY_BEAR_JEWELRY_14_cls-1" d="M138.43,160.53l1.25-3.1.07,2.25s2.17,7,5.47,8.82c-2.31,5.41-2.31,6.52-2.31,6.52l4.28-4.74a13.69,13.69,0,0,0,1.85,4.35,9.25,9.25,0,0,1-6.28,5.1,21.18,21.18,0,0,1-2.75-3.52c-3.36-5.32-3.62-12.6-2.86-19.09Z" />
  <path class="BUNTAI_BEAR_JEWELRY_BEAR_JEWELRY_14_cls-2" d="M138.51,149.53a67.54,67.54,0,0,0-1.36,7.59L135,158.83l.52-2.78L132.44,158a7.88,7.88,0,0,1-3,1.72,15.15,15.15,0,0,0,2.7-4.88l-1.51-.66,2-1.65-1.85-2.24s3.49-.07,3.89-.13,2.61-.59,2.61-.59Z" />
  <path class="BUNTAI_BEAR_JEWELRY_BEAR_JEWELRY_14_cls-3" d="M141.05,136.49a3.47,3.47,0,0,1-.23,6.93,2.88,2.88,0,0,1-.59,0,3.47,3.47,0,0,1,.59-6.89Z" />
  <path class="BUNTAI_BEAR_JEWELRY_BEAR_JEWELRY_14_cls-4" d="M141.05,136.49a3.47,3.47,0,0,1-.23,6.93,2.88,2.88,0,0,1-.59,0,3.47,3.47,0,0,1,.59-6.89Z" />
  <path class="BUNTAI_BEAR_JEWELRY_BEAR_JEWELRY_14_cls-4" d="M138.51,149.53h-1.16s-2.21.53-2.61.59-3.89.13-3.89.13l1.85,2.24-2,1.65,1.51.66a15.15,15.15,0,0,1-2.7,4.88,7.88,7.88,0,0,0,3-1.72,48.53,48.53,0,0,0,.52,16.67,46,46,0,0,0,4.39,1.85,9.31,9.31,0,0,1-3.66.52c10.95,13.22,22.88,9.49,26.06,8.15a1.5,1.5,0,0,0-.23-.15c-5.74-3.87-8.83-7.63-10.48-10.37a13.69,13.69,0,0,1-1.85-4.35L142.91,175s0-1.11,2.31-6.52c-3.3-1.78-5.47-8.82-5.47-8.82l-.07-2.25s1.88,1.12,6.49,1.25c-2-.59-5-4.57-5-4.57l2.6-.86-2.4-.86,3.49-1.58c-.92.1-5.21-1.28-5.21-1.28h-1.1" />
  <path class="BUNTAI_BEAR_JEWELRY_BEAR_JEWELRY_14_cls-4" d="M140.23,143.37c-.44,1.35-1.11,3.51-1.72,6.16a67.54,67.54,0,0,0-1.36,7.59c-.76,6.49-.5,13.77,2.86,19.09a21.18,21.18,0,0,0,2.75,3.52c6.15,6.34,14,5.73,16.76,5.27" />
  <path class="BUNTAI_BEAR_JEWELRY_BEAR_JEWELRY_14_cls-4" d="M142.76,179.73a9.25,9.25,0,0,0,6.28-5.1" />
  <polyline class="BUNTAI_BEAR_JEWELRY_BEAR_JEWELRY_14_cls-4" points="139.68 157.43 138.43 160.53 137.15 157.12 135.01 158.82 135.53 156.05 132.44 157.96" />
  <line class="BUNTAI_BEAR_JEWELRY_BEAR_JEWELRY_14_cls-4" x1="141.05" y1="136.49" x2="141.05" y2="124.83" />
  <path class="BUNTAI_BEAR_JEWELRY_BEAR_JEWELRY_14_cls-3" d="M141.06,124.59c-2.21,0-1.85-3-1.85-3h0a6,6,0,0,0,2.71.57,2.39,2.39,0,0,0,1.21-.3C143.14,122,143.18,124.59,141.06,124.59Z" />
  <path class="BUNTAI_BEAR_JEWELRY_BEAR_JEWELRY_14_cls-3" d="M144.85,112.72c.81,2.69.64,7.83-1.72,9.12a2.39,2.39,0,0,1-1.21.3,6,6,0,0,1-2.71-.57c-2-1-3-3.27-2.91-6.75a11.18,11.18,0,0,1,.63-3.39,7.21,7.21,0,0,1,2-3.06,2.47,2.47,0,0,1,1.8-.74,3,3,0,0,1,2.19,1.29,4.38,4.38,0,0,1-1,.18h0a5.56,5.56,0,0,0-2.48,3.8c-.62,3,.42,6.28,1.91,6.28,1.66,0,1.68-3.86,1.58-5.9l.12,0A7.57,7.57,0,0,0,144.85,112.72Z" />
  <path class="BUNTAI_BEAR_JEWELRY_BEAR_JEWELRY_14_cls-3" d="M138.28,98.32c.85-.33,4.42-.63,4.49-.21s-1.19,2.12-1.1,2.46a12.11,12.11,0,0,0-2.6,1.48s-2.69,2.34-1.15,5.23a3,3,0,0,0,1,1.09,7.21,7.21,0,0,0-2,3.06C133.35,108.27,132.39,102,138.28,98.32Z" />
  <path class="BUNTAI_BEAR_JEWELRY_BEAR_JEWELRY_14_cls-3" d="M148.39,108a6.4,6.4,0,0,1-3.54,4.77,7.2,7.2,0,0,1-1.84.56l-.13,0a6.94,6.94,0,0,1-3.49-.37,5.58,5.58,0,0,1,2.47-3.81h.06a4.59,4.59,0,0,0,1-.19,2.9,2.9,0,0,0,2-1.78,2.39,2.39,0,0,0,.12-.77c0-3.13-1.24-3.28-1.24-3.28s-.07-.17-.15-.43a4,4,0,0,1,3.14-2.64A10.71,10.71,0,0,1,148.39,108Z" />
  <path class="BUNTAI_BEAR_JEWELRY_BEAR_JEWELRY_14_cls-5" d="M136.93,111.43c-3.58-3.16-4.54-9.47,1.35-13.11.79-.38,1.76-.86,5.49,0a4.79,4.79,0,0,0-2.36,2.56,4.16,4.16,0,0,0-2.34,1.17s-2.69,2.34-1.15,5.23a3,3,0,0,0,1,1.09" />
  <path class="BUNTAI_BEAR_JEWELRY_BEAR_JEWELRY_14_cls-5" d="M139.39,112.93a6.94,6.94,0,0,0,3.49.37l.13,0a7.2,7.2,0,0,0,1.84-.56,6.4,6.4,0,0,0,3.54-4.77,10.71,10.71,0,0,0-1.57-7.93" />
  <path class="BUNTAI_BEAR_JEWELRY_BEAR_JEWELRY_14_cls-5" d="M143.68,102.66c.08.26.15.43.15.43s1.2.15,1.24,3.28a2.39,2.39,0,0,1-.12.77,2.9,2.9,0,0,1-2,1.78,4.59,4.59,0,0,1-1,.19" />
  <path class="BUNTAI_BEAR_JEWELRY_BEAR_JEWELRY_14_cls-5" d="M144.85,112.72c.81,2.69.64,7.83-1.72,9.12a2.39,2.39,0,0,1-1.21.3,6,6,0,0,1-2.71-.57c-2-1-3-3.27-2.91-6.75a11.18,11.18,0,0,1,.63-3.39,7.21,7.21,0,0,1,2-3.06,2.47,2.47,0,0,1,1.8-.74,3,3,0,0,1,2.19,1.29" />
  <path class="BUNTAI_BEAR_JEWELRY_BEAR_JEWELRY_14_cls-5" d="M142.88,113.3c.1,2,.08,5.9-1.58,5.9-1.49,0-2.53-3.32-1.91-6.28a5.56,5.56,0,0,1,2.48-3.8h0" />
  <path class="BUNTAI_BEAR_JEWELRY_BEAR_JEWELRY_14_cls-5" d="M139.21,121.58s-.36,3,1.85,3,2.08-2.57,2.07-2.75h0" />
  <path class="BUNTAI_BEAR_JEWELRY_BEAR_JEWELRY_14_cls-5" d="M143.92,105.88a4,4,0,0,1-.24-3.22,4,4,0,0,1,3.14-2.64,3.82,3.82,0,0,1,.68-.06,2.76,2.76,0,0,1,2.74,2" />
  <path class="BUNTAI_BEAR_JEWELRY_BEAR_JEWELRY_14_cls-6" d="M218.7,404.76a25,25,0,0,1,4.07,9.09s5.37-2.31,5.83-17.13a78.14,78.14,0,0,0-.32-9.84c0-.13,0-.27,0-.4s0-.1,0-.16,0-.2,0-.3c0-.43-.09-.85-.14-1.24l0-.26c0-.09,0-.17,0-.26s0-.22,0-.33c0-.28-.08-.54-.12-.8s0-.21,0-.32,0-.2-.05-.3l-.06-.38-.06-.3-.06-.37,0-.17c0-.09,0-.17-.05-.26a.06.06,0,0,0,0,0,2.5,2.5,0,0,0-.05-.29l-.06-.31c0-.24-.09-.46-.14-.66a.36.36,0,0,0,0-.11s0,0,0-.05,0-.12,0-.17l-.08-.34,2.39-.15-.08-.84-3.09.19-1.45-16a1.49,1.49,0,0,0-1.68-1.2,1.62,1.62,0,0,0-1.08.45,1.18,1.18,0,0,0-.38.95l1.45,16-3.25.2.07.84,2.63-.17q0,.35.09,1c0,.09,0,.18,0,.28s0,.07,0,.11a.49.49,0,0,0,0,.12c0,.09,0,.19,0,.29,0,.3,0,.63,0,1,0,.16,0,.33,0,.51,0,.35,0,.72,0,1.11s0,.71,0,1.09v.89c0,.28,0,.56,0,.85v.17q0,.54,0,1.11c0,.15,0,.29,0,.44l0,.66v.23c0,.12,0,.23,0,.35s0,.47-.05.71c0,.51-.08,1-.13,1.53l-.09.78c0,.13,0,.26,0,.39,0,.29-.07.57-.11.85l-.09.6c-.06.38-.12.75-.19,1.13,0,.12,0,.25-.08.38s-.1.54-.16.81-.11.47-.16.7l-.12.47c0,.18-.09.36-.14.54s0,.1,0,.16l-.09.3c0,.1-.05.2-.08.3l-.18.57s0,.08,0,.11-.07.22-.1.32-.1.3-.16.45c-.18.52-.39,1-.61,1.52a1.54,1.54,0,0,1-.08.19c-.11.25-.23.5-.35.74l-.1.19c0,.07-.07.13-.1.2a2.15,2.15,0,0,0-.14.26h0a4,4,0,0,1-.2.35.41.41,0,0,1,0,.09Z" />
  <path class="BUNTAI_BEAR_JEWELRY_BEAR_JEWELRY_14_cls-6" d="M221.69,362.46l.1,1.12,3.14-.2-.1-1.12a1.49,1.49,0,0,0-1.68-1.2,1.62,1.62,0,0,0-1.08.45A1.18,1.18,0,0,0,221.69,362.46Z" />
  <polygon class="BUNTAI_BEAR_JEWELRY_BEAR_JEWELRY_14_cls-6" points="221.79 363.58 223.14 378.46 226.28 378.26 224.94 363.38 221.79 363.58" />
  <polygon class="BUNTAI_BEAR_JEWELRY_BEAR_JEWELRY_14_cls-6" points="219.89 378.66 219.96 379.5 229.45 378.91 229.37 378.07 219.89 378.66" />
  <polygon class="BUNTAI_BEAR_JEWELRY_BEAR_JEWELRY_14_cls-6" points="219.89 378.66 219.96 379.5 229.45 378.91 229.37 378.07 219.89 378.66" />
  <path class="BUNTAI_BEAR_JEWELRY_BEAR_JEWELRY_14_cls-6" d="M222.59,379.33c0,.46.14,1.45.2,2.8.25,5.26.16,16.06-4.09,22.63a25,25,0,0,1,4.07,9.09s5.37-2.31,5.83-17.13a75.41,75.41,0,0,0-1-14.89c-.22-1.32-.43-2.27-.55-2.77" />
  <path class="BUNTAI_BEAR_JEWELRY_BEAR_JEWELRY_14_cls-6" d="M226.28,378.27l-.07-.86-.15-1.6-.1-1.1-.16-1.85-.07-.74-.06-.6-.14-1.54-.05-.61-.13-1.4,0-.41-.14-1.62,0-.54L225,364l0-.58-.1-1.12a1.49,1.49,0,0,0-1.68-1.2,1.67,1.67,0,0,0-1.08.45,1.18,1.18,0,0,0-.38.95l.1,1.12h0l.12,1.37,0,.22.13,1.44.06.7.12,1.29,0,.35.15,1.66,0,.45.1,1.11.08.8v.09l.1,1.11.12,1.33.13,1.42.1,1,0,.5" />
  <line class="BUNTAI_BEAR_JEWELRY_BEAR_JEWELRY_14_cls-6" x1="224.94" y1="363.38" x2="221.79" y2="363.58" />
  <polyline class="BUNTAI_BEAR_JEWELRY_BEAR_JEWELRY_14_cls-6" points="223.1 377.96 226.21 377.41 223 376.92 226.06 375.81 222.87 375.5 225.96 374.71 222.75 374.17 225.82 373.14 222.64 372.97" />
  <line class="BUNTAI_BEAR_JEWELRY_BEAR_JEWELRY_14_cls-6" x1="225.73" y1="372.12" x2="222.57" y2="372.17" />
  <path class="BUNTAI_BEAR_JEWELRY_BEAR_JEWELRY_14_cls-6" d="M221.92,365c.89-.3,2.62-.87,3.06-1" />
  <line class="BUNTAI_BEAR_JEWELRY_BEAR_JEWELRY_14_cls-6" x1="225.17" y1="365.94" x2="222.07" y2="366.61" />
  <line class="BUNTAI_BEAR_JEWELRY_BEAR_JEWELRY_14_cls-6" x1="225.12" y1="365.4" x2="221.94" y2="365.17" />
  <line class="BUNTAI_BEAR_JEWELRY_BEAR_JEWELRY_14_cls-6" x1="225.35" y1="367.97" x2="222.25" y2="368.6" />
  <line class="BUNTAI_BEAR_JEWELRY_BEAR_JEWELRY_14_cls-6" x1="225.31" y1="367.56" x2="222.13" y2="367.31" />
  <path class="BUNTAI_BEAR_JEWELRY_BEAR_JEWELRY_14_cls-6" d="M225.48,369.37l-3.2-.42" />
  <path class="BUNTAI_BEAR_JEWELRY_BEAR_JEWELRY_14_cls-6" d="M225.53,370l-3.1.63" />
  <line class="BUNTAI_BEAR_JEWELRY_BEAR_JEWELRY_14_cls-6" x1="225.67" y1="371.52" x2="222.47" y2="371.06" />
  <path class="BUNTAI_BEAR_JEWELRY_BEAR_JEWELRY_14_cls-7" d="M325.74,287.38c-3.09-2.13-4.48.25-4.48.25l1.13,2.54c-8,19.62-45.07,46.67-100.87,63.32-59-16.63-100.76-59.75-105.45-66.72l1.46-1.68s-1.46-3.67-5.48-1.2a3.45,3.45,0,0,0-.41,4.08s.24.38.61.94h0S159.52,340.79,221,357.86a2.25,2.25,0,0,0,.58.08,2.16,2.16,0,0,0,.62-.09c59.1-17.48,97-46.7,104.63-67.53A3.09,3.09,0,0,0,325.74,287.38Z" />
  <path class="BUNTAI_BEAR_JEWELRY_BEAR_JEWELRY_14_cls-8" d="M218.16,352.56l2.67.72s2.78-1.55,3.92.62.61,3.74-.87,4.42-3.68.09-4.09-1.11a5.84,5.84,0,0,0-2.58-.57s1.08,4.08,4.65,4.44a5.23,5.23,0,0,0,6.1-4.73,5,5,0,0,0-2.87-5.27A5.47,5.47,0,0,0,218.16,352.56Z" />
  <path class="BUNTAI_BEAR_JEWELRY_BEAR_JEWELRY_14_cls-9" d="M217.08,356.5a5.42,5.42,0,0,0,4.87,4.71,4.75,4.75,0,0,0,.54,0,5.46,5.46,0,0,0,3.64-1.38,5.28,5.28,0,0,0,1.81-3.74,1.37,1.37,0,0,0,0-.29,5.35,5.35,0,0,0-1.24-3.42,5.49,5.49,0,0,0-4.23-2,5.4,5.4,0,0,0-4.44,2.27l2.7.72a3,3,0,0,1,3.38-.07,2.93,2.93,0,0,1,1.35,2.47,2.84,2.84,0,0,1-.33,1.32,3,3,0,0,1-2.66,1.64,3,3,0,0,1-2.63-1.55h0Z" />
</svg>