<svg id="jewelries" xmlns="http://www.w3.org/2000/svg" xmlns:xlink="http://www.w3.org/1999/xlink" viewBox="0 0 432 432">
  <defs>
    <style>.BUNTAI_BEAR_JEWELRY_BEAR_JEWELRY_5_cls-1,.BUNTAI_BEAR_JEWELRY_BEAR_JEWELRY_5_cls-2{fill:#ffd021;}.BUNTAI_BEAR_JEWELRY_BEAR_JEWELRY_5_cls-1,.BUNTAI_BEAR_JEWELRY_BEAR_JEWELRY_5_cls-10,.BUNTAI_BEAR_JEWELRY_BEAR_JEWELRY_5_cls-11,.BUNTAI_BEAR_JEWELRY_BEAR_JEWELRY_5_cls-3,.BUNTAI_BEAR_JEWELRY_BEAR_JEWELRY_5_cls-4,.BUNTAI_BEAR_JEWELRY_BEAR_JEWELRY_5_cls-8,.BUNTAI_BEAR_JEWELRY_BEAR_JEWELRY_5_cls-9{stroke:#000;}.BUNTAI_BEAR_JEWELRY_BEAR_JEWELRY_5_cls-1,.BUNTAI_BEAR_JEWELRY_BEAR_JEWELRY_5_cls-10,.BUNTAI_BEAR_JEWELRY_BEAR_JEWELRY_5_cls-11,.BUNTAI_BEAR_JEWELRY_BEAR_JEWELRY_5_cls-8,.BUNTAI_BEAR_JEWELRY_BEAR_JEWELRY_5_cls-9{stroke-miterlimit:10;stroke-width:0.82px;}.BUNTAI_BEAR_JEWELRY_BEAR_JEWELRY_5_cls-3,.BUNTAI_BEAR_JEWELRY_BEAR_JEWELRY_5_cls-4{fill:none;stroke-linecap:round;stroke-linejoin:round;}.BUNTAI_BEAR_JEWELRY_BEAR_JEWELRY_5_cls-3{stroke-width:0.93px;}.BUNTAI_BEAR_JEWELRY_BEAR_JEWELRY_5_cls-4{stroke-width:0.75px;}.BUNTAI_BEAR_JEWELRY_BEAR_JEWELRY_5_cls-5{opacity:0.38;}.BUNTAI_BEAR_JEWELRY_BEAR_JEWELRY_5_cls-6,.BUNTAI_BEAR_JEWELRY_BEAR_JEWELRY_5_cls-7{fill:#fff;}.BUNTAI_BEAR_JEWELRY_BEAR_JEWELRY_5_cls-6{opacity:0.74;}.BUNTAI_BEAR_JEWELRY_BEAR_JEWELRY_5_cls-8{fill:url(#BUNTAI_BEAR_JEWELRY_BEAR_JEWELRY_5_linear-gradient);}.BUNTAI_BEAR_JEWELRY_BEAR_JEWELRY_5_cls-9{fill:url(#BUNTAI_BEAR_JEWELRY_BEAR_JEWELRY_5_linear-gradient-2);}.BUNTAI_BEAR_JEWELRY_BEAR_JEWELRY_5_cls-10{fill:url(#BUNTAI_BEAR_JEWELRY_BEAR_JEWELRY_5_linear-gradient-3);}.BUNTAI_BEAR_JEWELRY_BEAR_JEWELRY_5_cls-11{fill:url(#BUNTAI_BEAR_JEWELRY_BEAR_JEWELRY_5_linear-gradient-4);}</style>
    <linearGradient id="linear-gradient" x1="217.51" y1="96.28" x2="218.33" y2="96.28" gradientUnits="userSpaceOnUse">
      <stop offset="0.04" stop-color="#a86a18" />
      <stop offset="0.16" stop-color="#dfb652" />
      <stop offset="0.25" stop-color="#f1cf65" />
      <stop offset="0.35" stop-color="#f4edb1" />
      <stop offset="0.45" stop-color="#ead58c" />
      <stop offset="0.53" stop-color="#f3c954" />
      <stop offset="0.62" stop-color="#f5f7bb" />
      <stop offset="0.76" stop-color="#f1d99c" />
      <stop offset="0.85" stop-color="#f5ce5b" />
      <stop offset="1" stop-color="#a86a18" />
    </linearGradient>
    <linearGradient id="linear-gradient-2" x1="274.45" y1="103.69" x2="275.74" y2="103.69" xlink:href="#linear-gradient" />
    <linearGradient id="linear-gradient-3" x1="282.01" y1="106.65" x2="282.85" y2="106.65" xlink:href="#linear-gradient" />
    <linearGradient id="linear-gradient-4" x1="283.78" y1="107.56" x2="284" y2="107.56" xlink:href="#linear-gradient" />
  </defs>
  <path class="BUNTAI_BEAR_JEWELRY_BEAR_JEWELRY_5_cls-1" d="M245.17,134.2a2.28,2.28,0,0,0-.59-.4,2.4,2.4,0,0,0-2.45.22l-1-.92a2.39,2.39,0,0,0-.47-3l-1.4-1.26a2.41,2.41,0,0,0-3-.13l-1-.88a2.44,2.44,0,0,0-.52-3l-.72-.61-.71-.61a2.4,2.4,0,0,0-3-.08l-1-.87a2.42,2.42,0,0,0-.58-3l-.72-.6-.72-.61a2.44,2.44,0,0,0-3,0l-1.05-.86a2.37,2.37,0,0,0-.63-3l-.73-.59-.74-.59a2.41,2.41,0,0,0-3,0l-1.06-.83a2.41,2.41,0,0,0-.68-3l-.74-.58-.75-.57a2.42,2.42,0,0,0-3,.09l-1.08-.82a2.39,2.39,0,0,0-.74-3l-.75-.56-.76-.56a2.41,2.41,0,0,0-3,.14l-1.09-.79a2.43,2.43,0,0,0-.78-3l-.77-.54-.77-.55a2.41,2.41,0,0,0-3,.2l-1.1-.78a1.14,1.14,0,0,0,.09-.26c-.86.14-1.68.3-2.47.46l.18.13a.83.83,0,0,1-.69,0c-.71.15-1.39.31-2,.47l.26.18.76.53a2.41,2.41,0,0,0,3-.24l1.1.77a2.44,2.44,0,0,0,.8,2.93l.76.54.76.53a2.4,2.4,0,0,0,3-.17l1.08.79a2.43,2.43,0,0,0,.76,2.94l.74.55.75.56a2.42,2.42,0,0,0,3-.13l1.06.81a2.42,2.42,0,0,0,.7,3l.74.57.73.57a2.41,2.41,0,0,0,3-.07l1.06.83a2.42,2.42,0,0,0,.64,3l.73.58.72.58a2.42,2.42,0,0,0,3,0l1,.85a2.4,2.4,0,0,0,.6,3l.71.6.71.6a2.44,2.44,0,0,0,3,0l1,.87a2.4,2.4,0,0,0,.54,3l.7.61.71.6a2.38,2.38,0,0,0,3,.1l1,.89a2.43,2.43,0,0,0,.49,3l1.38,1.24a2.41,2.41,0,0,0,3,.14l1,.91a2.42,2.42,0,0,0,.43,3l.24.22,0,0,.41.37,1-1.12-.69-.63-.1-.11-.09-.13a.87.87,0,0,1-.09-.55l.25.23.11.1.29.27a.78.78,0,0,0,1.1,0,.77.77,0,0,0-.06-1.09l-.52-.47-.13-.12h0a1,1,0,0,1,.24,0,.89.89,0,0,1,.57.24l.13.12.56.51,1-1.11Zm-43-32.61a.76.76,0,1,0-.89,1.23l.71.52a.87.87,0,0,1-.82-.11l-1.52-1.08a.88.88,0,0,1-.37-.75l.72.51a.77.77,0,0,0,1.08-.16.77.77,0,0,0-.2-1.08l-.72-.51a.88.88,0,0,1,.83.1l.77.55.76.54a.9.9,0,0,1,.37.76Zm6.4,4.69a.76.76,0,1,0-.91,1.22l.7.53a.87.87,0,0,1-.82-.12l-1.5-1.12a.87.87,0,0,1-.35-.75l.71.52a.77.77,0,0,0,1.08-.14.77.77,0,0,0-.18-1.08l-.71-.53a.89.89,0,0,1,.83.12l1.5,1.12a.91.91,0,0,1,.36.76Zm6.32,4.81a.76.76,0,1,0-.93,1.2l.69.55a.88.88,0,0,1-.82-.15l-1.48-1.14a.87.87,0,0,1-.34-.76l.7.54a.78.78,0,0,0,1.09-.12.77.77,0,0,0-.16-1.09l-.71-.53a.86.86,0,0,1,.83.13l.75.57.73.58a.87.87,0,0,1,.35.76Zm6.23,4.92a.77.77,0,1,0-1,1.19l.69.55a.88.88,0,0,1-.82-.16l-.73-.58-.73-.58a.86.86,0,0,1-.32-.77l.68.55a.77.77,0,0,0,1.09-.1.76.76,0,0,0-.14-1.09l-.69-.55a.87.87,0,0,1,.82.15l.74.59.73.58a.88.88,0,0,1,.33.77Zm6.14,5a.76.76,0,0,0-1.09.08.78.78,0,0,0,.11,1.09l.68.57a.9.9,0,0,1-.82-.17l-.71-.6-.72-.6a.87.87,0,0,1-.32-.77l.69.56a.76.76,0,1,0,1-1.17l-.69-.56a.87.87,0,0,1,.83.16l.72.6.71.6a.89.89,0,0,1,.32.78Zm6,5.14a.76.76,0,1,0-1,1.15l.67.58a.89.89,0,0,1-.82-.19l-.7-.6-.71-.61a.87.87,0,0,1-.3-.78l.67.57a.76.76,0,1,0,1-1.15l-.67-.58a.91.91,0,0,1,.82.18l.71.61.71.61a.89.89,0,0,1,.3.79Zm6,5.25a.76.76,0,1,0-1,1.13l.65.59a.87.87,0,0,1-.81-.2l-.69-.62-.7-.62a.88.88,0,0,1-.28-.79l.65.59a.78.78,0,0,0,1.1,0,.78.78,0,0,0-.08-1.09l-.66-.59a.87.87,0,0,1,.81.19l.7.63.69.62a.9.9,0,0,1,.29.79Z" />
  <path class="BUNTAI_BEAR_JEWELRY_BEAR_JEWELRY_5_cls-1" d="M251.92,129.61a2,2,0,0,0-.22-.27,2.36,2.36,0,0,0-2.68-.61l-.75-1.1a2.37,2.37,0,0,0,.18-3l-.54-.76-.56-.76a2.41,2.41,0,0,0-3-.7l-.81-1a2.35,2.35,0,0,0,0-3l-.6-.72-.6-.72a2.34,2.34,0,0,0-3-.53l-.89-1a2.36,2.36,0,0,0-.15-3l-.64-.68-.65-.68a2.34,2.34,0,0,0-3-.37l-.94-.94a2.4,2.4,0,0,0-.33-3c-.22-.22-.45-.43-.68-.64l-.69-.64a2.38,2.38,0,0,0-3-.19c-.32-.3-.65-.6-1-.89a2.37,2.37,0,0,0-.51-3l-.71-.61c-.23-.21-.47-.41-.72-.61a2.41,2.41,0,0,0-3,0l-1-.84a2.35,2.35,0,0,0-.17-2.4c-1-.18-2-.33-2.91-.45l.73.55.74.56a.89.89,0,0,1,.34.76l-.69-.53a.76.76,0,0,0-1.08.14.77.77,0,0,0,.15,1.07l.69.53a.87.87,0,0,1-.81-.12l-.73-.56-.73-.55a.92.92,0,0,1-.34-.75l.7.52a.76.76,0,0,0,1.07-.14.77.77,0,0,0-.17-1.08c-.23-.18-.45-.35-.69-.51h0c-1.08-.13-2.12-.24-3.08-.32l.89.63a2.4,2.4,0,0,0,.73,2.89l.72.54.72.55a2.42,2.42,0,0,0,3-.13l1,.83a2.38,2.38,0,0,0,.56,2.93c.24.18.47.38.69.58l.68.59a2.39,2.39,0,0,0,3,.05c.33.29.66.58,1,.88a2.39,2.39,0,0,0,.38,3l.66.61.65.62a2.36,2.36,0,0,0,3,.24l.94.93a2.41,2.41,0,0,0,.2,3l.62.66.62.65a2.37,2.37,0,0,0,2.95.41l.87,1a2.4,2.4,0,0,0,0,3l.58.7.57.69a2.43,2.43,0,0,0,2.93.58l.81,1a2.35,2.35,0,0,0-.13,3l.53.73.53.73a2.41,2.41,0,0,0,2.9.74l.74,1.09a2.4,2.4,0,0,0-.68,2h0a2,2,0,0,0,.36,1l.51.75,1.28-.83-.51-.75a.86.86,0,0,1-.08-.82l.49.72a.8.8,0,0,0,1.07.23.77.77,0,0,0,.2-1.07l-.49-.72a.88.88,0,0,1,.74.38l.52.78,1.27-.83Zm-26.36-27a.76.76,0,0,0-1.08.07.79.79,0,0,0,.09,1.09l.66.57a.86.86,0,0,1-.81-.18l-.69-.59c-.22-.21-.46-.4-.7-.59a.86.86,0,0,1-.3-.76l.67.55a.77.77,0,0,0,1.08-.09.76.76,0,0,0-.1-1.08l-.68-.55a.88.88,0,0,1,.82.15c.24.19.48.39.71.6l.7.61a.86.86,0,0,1,.29.78Zm5.82,5.26a.76.76,0,1,0-1.06,1.1l.62.61a.86.86,0,0,1-.79-.22q-.33-.33-.66-.63l-.67-.62a.86.86,0,0,1-.26-.78l.64.59a.78.78,0,0,0,1.09,0,.75.75,0,0,0,0-1.08l-.64-.6a.85.85,0,0,1,.8.21l.68.63c.23.21.46.42.67.64a.89.89,0,0,1,.25.8Zm6.08,6.25c-.19-.22-.39-.43-.59-.64a.76.76,0,1,0-1.12,1c.2.21.4.41.59.63a.88.88,0,0,1-.78-.26l-.63-.66-.63-.66a.9.9,0,0,1-.21-.8l.6.63a.76.76,0,1,0,1.1-1l-.6-.63a.87.87,0,0,1,.79.25l.64.68.64.67A.86.86,0,0,1,237.46,114.15Zm5.12,5.94-.56-.67a.76.76,0,1,0-1.18,1l.55.66a.86.86,0,0,1-.76-.3l-.58-.7-.59-.71a.85.85,0,0,1-.15-.81l.55.67a.76.76,0,1,0,1.16-1l-.56-.68a.85.85,0,0,1,.77.31l.59.72.59.71A.86.86,0,0,1,242.58,120.09Zm4.75,6.24-.51-.71a.76.76,0,0,0-1.07-.18.78.78,0,0,0-.16,1.08l.5.7a.87.87,0,0,1-.74-.36l-.53-.73-.54-.74a.85.85,0,0,1-.12-.81c.17.23.36.45.52.69a.76.76,0,1,0,1.22-.91c-.16-.24-.35-.47-.53-.7a.9.9,0,0,1,.77.34l.54.75.54.75A.89.89,0,0,1,247.33,126.33Z" />
  <path class="BUNTAI_BEAR_JEWELRY_BEAR_JEWELRY_5_cls-1" d="M276.22,104.24l-.27.52a.89.89,0,0,1-.68.46l.4-.77a.82.82,0,0,0-.32-1,.76.76,0,0,0-.9.15.67.67,0,0,0-.14.19l-.4.78a.87.87,0,0,1,0-.83l.15-.29-1.45-.52-.06.11a2.38,2.38,0,0,0,.65,3l-.6,1.19a2.4,2.4,0,0,0-2.76,1.27l-.4.84-.41.84a2.38,2.38,0,0,0,.74,2.94l-.56,1.21a2.39,2.39,0,0,0-2.71,1.35l-.38.86-.38.85a2.38,2.38,0,0,0,.83,2.92l-.52,1.23a2.37,2.37,0,0,0-2.67,1.43l-.35.87-.35.86a2.39,2.39,0,0,0,.92,2.89l-.48,1.24a2.39,2.39,0,0,0-2.31.94,2.33,2.33,0,0,0-.32.58l-.06.16,0-.51a2.32,2.32,0,0,0-.05-.38,2.36,2.36,0,0,0-2-1.9c0-.45-.1-.89-.14-1.34a2.42,2.42,0,0,0,1.63-2.62l-.16-1-.16-1a2.48,2.48,0,0,0-.8-1.45,2.42,2.42,0,0,0-1.53-.54l-.3-1.32a2.34,2.34,0,0,0,1.27-2.79l-.26-.93-.27-.93a2.38,2.38,0,0,0-2.57-1.68l-.44-1.27a2.35,2.35,0,0,0,.9-2.92l-.36-.89c-.12-.3-.25-.6-.39-.89a2.41,2.41,0,0,0-2.75-1.35c-.19-.41-.39-.82-.61-1.21a2.4,2.4,0,0,0,.56-3c-.15-.28-.31-.56-.48-.83l-.5-.83a2.36,2.36,0,0,0-2.88-1l-.45-.66c-1,.1-2,.22-2.92.36l-.48.08a2.47,2.47,0,0,0,1.83,0l.74,1.08a2.44,2.44,0,0,0-.43,3l.46.76c.15.25.3.51.44.77a2.38,2.38,0,0,0,2.76,1.09c.21.38.41.77.59,1.18a2.36,2.36,0,0,0-.77,2.86c.13.27.24.54.35.82l.33.82a2.47,2.47,0,0,0,2.63,1.41l.43,1.24a2.42,2.42,0,0,0-1.11,2.75l.24.85.24.85a2.45,2.45,0,0,0,2.42,1.73l.29,1.28a2.5,2.5,0,0,0-1.16,1.06,2.27,2.27,0,0,0-.3,1.53l.15.88.15.87a2.34,2.34,0,0,0,2.15,2c.05.44.11.88.14,1.31a2.5,2.5,0,0,0-1.41,1,2.11,2.11,0,0,0-.38,1.34l.05.88,1.52,0-.05-.91a.88.88,0,0,1,.36-.74l.05.87a.79.79,0,0,0,.8.75.76.76,0,0,0,.72-.81l-.05-.89a.87.87,0,0,1,.43.72l.05,1,1.33,0-.1.26,1.43.52.33-.87a.84.84,0,0,1,.4-.45.92.92,0,0,1,.23-.09l-.07.17-.24.65a.77.77,0,0,0,.44,1,.78.78,0,0,0,1-.46l.15-.4.15-.42a.88.88,0,0,1,.16.63,1.29,1.29,0,0,1,0,.19l-.33.86,1.43.53.22-.59.1-.27a2.4,2.4,0,0,0-1-2.84l.48-1.24a2.39,2.39,0,0,0,2.63-1.45l.34-.84.35-.85a2.39,2.39,0,0,0-.89-2.87l.52-1.23a2.4,2.4,0,0,0,2.68-1.36l.37-.84.37-.83a2.39,2.39,0,0,0-.8-2.9l.56-1.21a2.38,2.38,0,0,0,2.72-1.28l.4-.82.39-.83a2.39,2.39,0,0,0-.7-2.92l.6-1.19a2.4,2.4,0,0,0,2.76-1.19l.32-.64C277.16,104.61,276.69,104.43,276.22,104.24Zm-25.57-2-.42-.78a.77.77,0,0,0-1.06-.31.79.79,0,0,0-.27,1.05l.41.77a.88.88,0,0,1-.69-.45,7.52,7.52,0,0,0-.45-.78l-.47-.78a.85.85,0,0,1,0-.82l.45.74a.78.78,0,0,0,1,.27.74.74,0,0,0,.25-1l-.46-.76a.86.86,0,0,1,.72.43l.49.8c.17.27.33.54.47.82A.91.91,0,0,1,250.65,102.19Zm2,5.92a.79.79,0,0,0-.4,1l.32.8a.89.89,0,0,1-.64-.52l-.34-.84q-.16-.43-.36-.84a.83.83,0,0,1,0-.81l.37.78a.78.78,0,0,0,1,.41.75.75,0,0,0,.39-1l-.37-.81a.91.91,0,0,1,.67.51c.14.28.26.57.38.87l.35.87a.85.85,0,0,1-.09.83l-.33-.82A.76.76,0,0,0,252.69,108.11Zm2.63,7.39a.76.76,0,0,0-.51,1l.23.83a.88.88,0,0,1-.58-.59l-.25-.87-.25-.88a.89.89,0,0,1,.18-.8c.09.27.16.55.24.83a.77.77,0,0,0,.94.53.78.78,0,0,0,.52-1c-.09-.29-.15-.57-.25-.85a.84.84,0,0,1,.59.59l.26.91.25.9a.89.89,0,0,1-.17.82l-.25-.85A.76.76,0,0,0,255.32,115.5Zm1.09,8.53c.06.28.07.57.11.86a.87.87,0,0,1-.48-.67l-.15-.89-.15-.9a.85.85,0,0,1,.27-.77l.14.85a.78.78,0,0,0,.88.64.76.76,0,0,0,.62-.9l-.14-.87a.86.86,0,0,1,.51.66l.16.93.15.93a.9.9,0,0,1-.3.79c0-.29-.06-.59-.11-.88a.79.79,0,0,0-.89-.66A.76.76,0,0,0,256.41,124Zm10.51.31-.35.86-.34.85a.88.88,0,0,1-.64.53l.32-.81a.76.76,0,1,0-1.41-.57l-.32.82a.88.88,0,0,1-.1-.83l.35-.86.35-.87a.85.85,0,0,1,.64-.52l-.33.81a.76.76,0,1,0,1.41.58l.33-.81A.88.88,0,0,1,266.92,124.34Zm3.07-7.18-.37.85-.38.84a.87.87,0,0,1-.65.51l.35-.8a.78.78,0,0,0-.38-1,.76.76,0,0,0-1,.41l-.36.8a.9.9,0,0,1-.07-.83l.76-1.7a.83.83,0,0,1,.66-.5l-.36.8a.76.76,0,0,0,.38,1,.77.77,0,0,0,1-.4l.36-.8A.88.88,0,0,1,270,117.16Zm3.29-7.07-.4.83-.39.83a.89.89,0,0,1-.67.49l.37-.79a.76.76,0,1,0-1.37-.65l-.38.79a.87.87,0,0,1,0-.83l.4-.84.4-.84a.87.87,0,0,1,.68-.48l-.39.78a.76.76,0,1,0,1.37.67l.39-.78A.85.85,0,0,1,273.28,110.09Z" />
  <path class="BUNTAI_BEAR_JEWELRY_BEAR_JEWELRY_5_cls-1" d="M284,107.73a1,1,0,0,1-.22.5l-.64.73c-.21.24-.41.49-.62.74a.91.91,0,0,1-.79.33l.58-.7a.8.8,0,0,0-.05-1.12.77.77,0,0,0-1.11.14l-.6.72a1,1,0,0,1,.2-.86l.63-.76.63-.71-1.44-.67-.34.39c-.22.25-.43.52-.65.77a2.48,2.48,0,0,0-.1,3.17c-.29.37-.59.74-.87,1.12a2.49,2.49,0,0,0-3,.92l-.58.83-.56.85a2.47,2.47,0,0,0,.25,3.16c-.26.39-.49.81-.73,1.22a2.48,2.48,0,0,0-2.92,1.25c-.17.29-.32.6-.48.9l-.46.9a2.48,2.48,0,0,0,.61,3.11l-.59,1.29a2.48,2.48,0,0,0-2.75,1.58l-.38.94c-.12.32-.25.63-.36.95a2.47,2.47,0,0,0,1,3c-.15.45-.31.9-.44,1.36a1.93,1.93,0,0,0-.34,0,2.27,2.27,0,0,0-1.26.47,2,2,0,0,0-.44.43,2.49,2.49,0,0,0-.51,1l-.28,1,1.3.33.18,0,.26-1a.35.35,0,0,1,.06-.14.9.9,0,0,1,.53-.5l-.25.9h0a.78.78,0,0,0,.52,1H267a.79.79,0,0,0,.75-.35.85.85,0,0,0,.11-.26l.24-.88a.9.9,0,0,1,.18.84l-.24.87s0,0,0,0v0h0l1.33.35.1,0,.25-.92a2.52,2.52,0,0,0-1.16-2.85c.13-.44.29-.88.43-1.32a2.53,2.53,0,0,0,2.61-1.63c.11-.3.22-.59.34-.88l.35-.88a2.52,2.52,0,0,0-.83-3l.58-1.27a2.52,2.52,0,0,0,2.78-1.32l.44-.84c.14-.27.28-.56.44-.83a2.53,2.53,0,0,0-.48-3c.24-.4.47-.81.72-1.2a2.51,2.51,0,0,0,2.91-1l.52-.79.55-.77a2.54,2.54,0,0,0-.14-3.08c.27-.37.57-.74.85-1.1a2.55,2.55,0,0,0,3-.66c.2-.25.39-.49.61-.73l.63-.72a3,3,0,0,0,.45-.75Q284.71,108.09,284,107.73ZM270.91,129l-.35.89c-.12.3-.24.6-.34.9a.93.93,0,0,1-.64.58l.32-.86a.79.79,0,0,0-.42-1,.78.78,0,0,0-1,.5l-.32.88a1,1,0,0,1-.1-.88c.11-.31.23-.62.35-.92l.37-.93a.92.92,0,0,1,.66-.57c-.12.28-.24.57-.35.86a.81.81,0,0,0,.4,1.06.8.8,0,0,0,1-.49c.11-.28.23-.57.35-.85A.93.93,0,0,1,270.91,129Zm3.49-7.39c-.16.28-.3.57-.45.85l-.45.86a.93.93,0,0,1-.69.5c.13-.27.27-.55.41-.82a.78.78,0,0,0-.29-1.07.79.79,0,0,0-1.06.38q-.22.42-.42.84a.94.94,0,0,1,0-.88l.46-.88c.16-.3.31-.6.47-.88a.94.94,0,0,1,.73-.5l-.46.82a.77.77,0,1,0,1.34.73l.45-.8A.91.91,0,0,1,274.4,121.58Zm4.31-6.94-.55.79-.54.81a.94.94,0,0,1-.75.42l.51-.77a.8.8,0,0,0-.18-1.11.79.79,0,0,0-1.09.27l-.52.78a.94.94,0,0,1,.1-.87l.55-.83.58-.82a1,1,0,0,1,.77-.41l-.54.77a.78.78,0,0,0,.15,1.11.8.8,0,0,0,1.1-.24l.52-.75A.93.93,0,0,1,278.71,114.64Zm3.66-7.72-.14.16a.77.77,0,1,0,1.15,1l.4-.46C283.32,107.38,282.85,107.14,282.37,106.92Z" />
  <circle class="BUNTAI_BEAR_JEWELRY_BEAR_JEWELRY_5_cls-2" cx="255.69" cy="143.61" r="14.82" />
  <circle class="BUNTAI_BEAR_JEWELRY_BEAR_JEWELRY_5_cls-3" cx="255.69" cy="143.61" r="14.82" />
  <circle class="BUNTAI_BEAR_JEWELRY_BEAR_JEWELRY_5_cls-4" cx="255.69" cy="143.61" r="11.92" />
  <path d="M260.86,137.29a1.45,1.45,0,0,0-1.11-.58h-8.14a1.28,1.28,0,0,0-1.05.57.93.93,0,0,0,0,1.09,40.06,40.06,0,0,0,4.85,5.67,30.85,30.85,0,0,0-4.41,5.31h0a2.54,2.54,0,0,0-.23.34,1,1,0,0,0,.09,1.1,1.34,1.34,0,0,0,1.06.58h7.45a1.48,1.48,0,0,0,1.1-.58,1,1,0,0,0,.18-1.11,24.15,24.15,0,0,0-4.48-5.65,34,34,0,0,0,4.81-5.66A1,1,0,0,0,260.86,137.29Zm-.75,12.5a1.28,1.28,0,0,0-.25-.22l-8.28.23h-.31a.43.43,0,0,0-.09.1.68.68,0,0,0-.06.59.53.53,0,0,1,0-.53.1.1,0,0,1,.05-.06c0-.1.11-.18.15-.27a31.33,31.33,0,0,1,4.38-5.24.08.08,0,0,1,0,0l0,0A24.41,24.41,0,0,1,260.11,149.79Zm.42-11.66a9.47,9.47,0,0,1-.64.92c-2.89.31-4.69.45-7.71.75-.54-.67-.8-1-1.26-1.68a.57.57,0,0,1,0-.65.76.76,0,0,1,.63-.33h8.27a.79.79,0,0,1,.66.34A.54.54,0,0,1,260.53,138.13Z" />
  <path d="M260.74,135.47a.86.86,0,0,0-.76-.57h-8.56a.74.74,0,0,0-.68.57.48.48,0,0,0,.5.57l9.06,0A.44.44,0,0,0,260.74,135.47Zm-.55.16H251.3a.11.11,0,0,1-.12-.15.17.17,0,0,1,.17-.14h8.76a.23.23,0,0,1,.19.14A.12.12,0,0,1,260.19,135.63Z" />
  <path class="BUNTAI_BEAR_JEWELRY_BEAR_JEWELRY_5_cls-5" d="M244.23,134s-5.4,5-2.06,15.69c1.09,3.82,7.77,10.67,18.19,8a14.72,14.72,0,0,0,9.34-9.22c-3.73,3.46-13.81,6.2-20.32-.48C244.86,143.36,244.29,138.5,244.23,134Z" />
  <path class="BUNTAI_BEAR_JEWELRY_BEAR_JEWELRY_5_cls-6" d="M260.36,134.78s6.32,4.56,5.51,12.48C267,143.38,267.34,137.16,260.36,134.78Z" />
  <path class="BUNTAI_BEAR_JEWELRY_BEAR_JEWELRY_5_cls-7" d="M262.31,132.33a13.85,13.85,0,0,1,5.87,7.92,11.62,11.62,0,0,1-1,9.07,11,11,0,0,0,1.67-9.73A10.47,10.47,0,0,0,262.31,132.33Z" />
  <path class="BUNTAI_BEAR_JEWELRY_BEAR_JEWELRY_5_cls-8" d="M218.33,96.37l-.81-.1h0A.84.84,0,0,1,218.33,96.37Z" />
  <path class="BUNTAI_BEAR_JEWELRY_BEAR_JEWELRY_5_cls-9" d="M275.74,104.05l-1.29-.49a.76.76,0,0,1,.9-.15A.7.7,0,0,1,275.74,104.05Z" />
  <path class="BUNTAI_BEAR_JEWELRY_BEAR_JEWELRY_5_cls-10" d="M282,106.71a.93.93,0,0,1,.81-.33l-.48.54a3,3,0,0,0-.36-.18Z" />
  <path class="BUNTAI_BEAR_JEWELRY_BEAR_JEWELRY_5_cls-11" d="M284,107.39a1,1,0,0,1,0,.34l-.22-.11Z" />
</svg>