<svg id="jewelries" xmlns="http://www.w3.org/2000/svg" viewBox="0 0 432 432">
  <defs>
    <style>.BUNTAI_BEAR_JEWELRY_BEAR_JEWELRY_34_cls-1{fill:#fc9718;}.BUNTAI_BEAR_JEWELRY_BEAR_JEWELRY_34_cls-2{fill:none;stroke-linecap:round;stroke-linejoin:round;stroke-width:2.03px;}.BUNTAI_BEAR_JEWELRY_BEAR_JEWELRY_34_cls-2,.BUNTAI_BEAR_JEWELRY_BEAR_JEWELRY_34_cls-3{stroke:#000;}.BUNTAI_BEAR_JEWELRY_BEAR_JEWELRY_34_cls-3{fill:#834932;stroke-miterlimit:10;stroke-width:2px;}</style>
  </defs>
  <path class="BUNTAI_BEAR_JEWELRY_BEAR_JEWELRY_34_cls-1" d="M243.57,350.45c-3.13-4.81-10.89-4.6-15.09-3.52a12.63,12.63,0,0,0-9.54,8c-2.94,7.23-2.2,11.77,2.83,16.08s7.46,4.68,5.59,9.49-4.7,3.77-4.51,6.7,7.46,6.2,13.64,2.18,9.95-8.17,10.64-18.15S246.7,355.27,243.57,350.45Zm-4.79,13.88c-1.54,4.49-4.1,7.47-9.21,2.9s-.45-11.44-.45-11.44c.53-.92,3.91-3,6.7-1.72S240.31,359.83,238.78,364.33Z" />
  <path class="BUNTAI_BEAR_JEWELRY_BEAR_JEWELRY_34_cls-2" d="M239,346.46c-9.43-2.35-15.72,2.15-15.72,2.15-17.1,22,7.85,22.69,4.4,31.25-1.07,2.67-2.47,4-3.87,4.55-1.84.73-2.05,3.68-.36,4.83a11.31,11.31,0,0,0,9,2C252.21,386.76,249.56,349.1,239,346.46Z" />
  <path class="BUNTAI_BEAR_JEWELRY_BEAR_JEWELRY_34_cls-2" d="M229.12,355.79s-4.66,6.88.45,11.44,7.67,1.59,9.2-2.91-.17-9-3-10.25S229.65,354.87,229.12,355.79Z" />
  <path class="BUNTAI_BEAR_JEWELRY_BEAR_JEWELRY_34_cls-3" d="M229.47,358.09h-.91c-50.22,0-103.35-58.93-113.78-71a20.57,20.57,0,0,1,3.27-3c-7.32-6.84-13,.86-8.74,6.35.49.48,61.68,73.32,119.26,73.32h.91a2.87,2.87,0,0,0,0-5.67Z" />
  <path class="BUNTAI_BEAR_JEWELRY_BEAR_JEWELRY_34_cls-3" d="M321.69,287.87a18.12,18.12,0,0,0,2.1,3.89c-36.4,52.8-73.69,65.61-85.92,66.36a2.74,2.74,0,0,0-2.75,2.41,2.8,2.8,0,0,0,2.07,3.21,7.58,7.58,0,0,0,5.35.33c36.33-10.39,66.91-39.5,87-69.89C332.76,289.44,328.22,281.41,321.69,287.87Z" />
</svg>