<svg id="jewelries" xmlns="http://www.w3.org/2000/svg" viewBox="0 0 432 432">
  <defs>
    <style>.BUNTAI_BEAR_JEWELRY_BEAR_JEWELRY_11_cls-1{fill:#e2d93c;}.BUNTAI_BEAR_JEWELRY_BEAR_JEWELRY_11_cls-1,.BUNTAI_BEAR_JEWELRY_BEAR_JEWELRY_11_cls-2,.BUNTAI_BEAR_JEWELRY_BEAR_JEWELRY_11_cls-5,.BUNTAI_BEAR_JEWELRY_BEAR_JEWELRY_11_cls-6,.BUNTAI_BEAR_JEWELRY_BEAR_JEWELRY_11_cls-7,.BUNTAI_BEAR_JEWELRY_BEAR_JEWELRY_11_cls-8{stroke:#000;}.BUNTAI_BEAR_JEWELRY_BEAR_JEWELRY_11_cls-1,.BUNTAI_BEAR_JEWELRY_BEAR_JEWELRY_11_cls-6{stroke-miterlimit:10;stroke-width:2px;}.BUNTAI_BEAR_JEWELRY_BEAR_JEWELRY_11_cls-2,.BUNTAI_BEAR_JEWELRY_BEAR_JEWELRY_11_cls-5,.BUNTAI_BEAR_JEWELRY_BEAR_JEWELRY_11_cls-8{fill:none;}.BUNTAI_BEAR_JEWELRY_BEAR_JEWELRY_11_cls-2,.BUNTAI_BEAR_JEWELRY_BEAR_JEWELRY_11_cls-5,.BUNTAI_BEAR_JEWELRY_BEAR_JEWELRY_11_cls-7,.BUNTAI_BEAR_JEWELRY_BEAR_JEWELRY_11_cls-8{stroke-linecap:round;stroke-linejoin:round;}.BUNTAI_BEAR_JEWELRY_BEAR_JEWELRY_11_cls-2{stroke-width:1.86px;}.BUNTAI_BEAR_JEWELRY_BEAR_JEWELRY_11_cls-3{fill:#c0c380;}.BUNTAI_BEAR_JEWELRY_BEAR_JEWELRY_11_cls-4{fill:#057948;}.BUNTAI_BEAR_JEWELRY_BEAR_JEWELRY_11_cls-5{stroke-width:1.37px;}.BUNTAI_BEAR_JEWELRY_BEAR_JEWELRY_11_cls-6{fill:#ad7d2f;}.BUNTAI_BEAR_JEWELRY_BEAR_JEWELRY_11_cls-7{fill:#e2cb6e;}.BUNTAI_BEAR_JEWELRY_BEAR_JEWELRY_11_cls-7,.BUNTAI_BEAR_JEWELRY_BEAR_JEWELRY_11_cls-8{stroke-width:1.38px;}</style>
  </defs>
  <circle class="BUNTAI_BEAR_JEWELRY_BEAR_JEWELRY_11_cls-1" cx="258.35" cy="180.43" r="2.6" />
  <circle class="BUNTAI_BEAR_JEWELRY_BEAR_JEWELRY_11_cls-1" cx="276.45" cy="180.43" r="2.6" />
  <line class="BUNTAI_BEAR_JEWELRY_BEAR_JEWELRY_11_cls-2" x1="238.18" y1="354.47" x2="238.18" y2="360.1" />
  <path class="BUNTAI_BEAR_JEWELRY_BEAR_JEWELRY_11_cls-3" d="M258.33,403.26a12.36,12.36,0,0,1-2.46,7l-1.71.87,0,0c-.48.35-8.31,6-10.63,7.71s-4.92,5.76-4.92,5.76-2.52-4-4.93-5.76-10.39-7.54-10.65-7.73c-1.06-.53-1.7-.87-1.7-.87a12.28,12.28,0,0,1-2.46-7,18.6,18.6,0,0,0,2.36,1.66,14.25,14.25,0,0,1-2-7.75,24.47,24.47,0,0,1,2-9.72c1.3-2.47,5.51-8.06,5.91-10.78-1.89-2.49-2.58-6,1.09-6a4.16,4.16,0,0,1,4.28,3.19h-2.14s-.74-1-1.44-.59.3,1.22.9,2.8-.33,3.76-1.6,5.53a30.37,30.37,0,0,1,6.88-5.42v-3s-2.29-6.94-2.76-9.66,1.3-3.34,1.3-3.34h9.85s1.79.63,1.32,3.34-2.77,9.66-2.77,9.66v3a30.21,30.21,0,0,1,6.87,5.42c-1.26-1.77-2.19-4-1.58-5.53s1.58-2.39.88-2.8-1.44.59-1.44.59h-2.14a4.16,4.16,0,0,1,4.28-3.19c3.68,0,3,3.55,1.11,6,.4,2.72,4.61,8.31,5.89,10.78s3.78,11.67.05,17.47A18.6,18.6,0,0,0,258.33,403.26Z" />
  <path class="BUNTAI_BEAR_JEWELRY_BEAR_JEWELRY_11_cls-4" d="M238,381.84s-10.16,3.45-11.54,11.81,3.6,16.45,11.35,16.45,11.19-4.22,11.57-5.61-.6,2,.66-4,1.34-8.5-2.57-13A19.41,19.41,0,0,0,238,381.84Z" />
  <path class="BUNTAI_BEAR_JEWELRY_BEAR_JEWELRY_11_cls-5" d="M243.87,409.44h0c4.69-2.12,7.45-7.22,7.45-14.09,0-9.16-12.74-14.22-12.74-14.22s-12.74,5.06-12.74,14.22c0,6.87,2.76,12,7.45,14.09h0" />
  <path class="BUNTAI_BEAR_JEWELRY_BEAR_JEWELRY_11_cls-5" d="M233.29,409.44a12.66,12.66,0,0,0,5.29,1.09" />
  <path class="BUNTAI_BEAR_JEWELRY_BEAR_JEWELRY_11_cls-5" d="M250.73,407.27c.38-.65,2-3.81,2-12.27,0-9.61-14.12-18.63-14.12-18.63s-14.13,9-14.13,18.63c0,8.46,1.6,11.62,2,12.27-5.41-7.36-5-15.2-1.51-21.33a23.69,23.69,0,0,1,3.3-4.38,30.37,30.37,0,0,1,6.88-5.42v-3s-2.29-6.94-2.76-9.66,1.3-3.34,1.3-3.34h9.85s1.79.63,1.32,3.34-2.77,9.66-2.77,9.66v3a30.21,30.21,0,0,1,6.87,5.42,23.69,23.69,0,0,1,3.3,4.38C255.77,392.07,256.14,399.91,250.73,407.27Z" />
  <path class="BUNTAI_BEAR_JEWELRY_BEAR_JEWELRY_11_cls-5" d="M226.49,407.36l0,0h0a59.51,59.51,0,0,0,6.78,2.05" />
  <path class="BUNTAI_BEAR_JEWELRY_BEAR_JEWELRY_11_cls-5" d="M228.23,381.56c1.27-1.77,2.2-4,1.6-5.53s-1.6-2.39-.9-2.8,1.44.59,1.44.59h2.14a4.16,4.16,0,0,0-4.28-3.19c-3.67,0-3,3.55-1.09,6-.4,2.72-4.61,8.31-5.91,10.78a24.47,24.47,0,0,0-2,9.72,14.25,14.25,0,0,0,2,7.75c.2.32.43.62.66.92" />
  <path class="BUNTAI_BEAR_JEWELRY_BEAR_JEWELRY_11_cls-5" d="M233.29,409.44h0a60.63,60.63,0,0,1-6.77-2.05,34,34,0,0,1-5.31-2.47,18.6,18.6,0,0,1-2.36-1.66,12.28,12.28,0,0,0,2.46,7s.64.34,1.7.87c3.45,1.73,11.28,5.41,15.58,5.41v-6" />
  <path class="BUNTAI_BEAR_JEWELRY_BEAR_JEWELRY_11_cls-5" d="M223,411.12c.26.19,8.3,6,10.65,7.73s4.93,5.76,4.93,5.76v-8.08" />
  <path class="BUNTAI_BEAR_JEWELRY_BEAR_JEWELRY_11_cls-5" d="M238.58,410.53a12.66,12.66,0,0,0,5.29-1.09" />
  <path class="BUNTAI_BEAR_JEWELRY_BEAR_JEWELRY_11_cls-5" d="M250.65,407.39h0l0,0" />
  <path class="BUNTAI_BEAR_JEWELRY_BEAR_JEWELRY_11_cls-5" d="M256,404.92h0c3.73-5.8,1.18-15.13-.05-17.47s-5.49-8.06-5.89-10.78c1.87-2.49,2.57-6-1.11-6a4.16,4.16,0,0,0-4.28,3.19h2.14s.76-1,1.44-.59-.3,1.22-.88,2.8.32,3.76,1.58,5.53" />
  <path class="BUNTAI_BEAR_JEWELRY_BEAR_JEWELRY_11_cls-5" d="M238.58,410.52v6a25.32,25.32,0,0,0,8.11-2.06c2.91-1.13,5.71-2.47,7.44-3.33l0,0,1.71-.87a12.36,12.36,0,0,0,2.46-7,18.6,18.6,0,0,1-2.36,1.66h0a32.93,32.93,0,0,1-5.29,2.47h0a59.39,59.39,0,0,1-6.77,2.05" />
  <path class="BUNTAI_BEAR_JEWELRY_BEAR_JEWELRY_11_cls-5" d="M238.58,416.53v8.08s2.53-4,4.92-5.76,10.15-7.36,10.63-7.71l0,0" />
  <path class="BUNTAI_BEAR_JEWELRY_BEAR_JEWELRY_11_cls-6" d="M242.25,355.35c-76.24,0-123.32-82.79-125-86.63-6.08-12.07,4.4-14.73,9-9.92-.61,1.83-1,3.65-1.93,6.85C134.73,282.27,180,349,244.34,349c.86,0,1.72,0,2.59,0,13.35-.37,25.13-4.57,35-12.47,23.19-18.53,33.63-55.39,35.2-62.6a37.87,37.87,0,0,0-1-5c5.1-1.95,7.12.38,6.13,8.83-.2,1.71-7.75,40.1-36.11,62.77a67.3,67.3,0,0,1-41.05,14.78C244.16,355.34,243.2,355.35,242.25,355.35Z" />
  <path class="BUNTAI_BEAR_JEWELRY_BEAR_JEWELRY_11_cls-7" d="M150.11,110.14a7,7,0,0,1-4,3.71c-6.05,2.32-12.91-.31-11.49-7.11,1.72-8.26,6.81-10.49,10.91-9.4a7.09,7.09,0,0,0-4.39,2.93c-1.33.57-2.92,2-3.76,6.79s7,5.16,8.85,2c.07-.12.14-.24.2-.37a6.87,6.87,0,0,0-.9-7.19,5.58,5.58,0,0,1,1.95-1.82C150.72,103.19,151.43,107.19,150.11,110.14Z" />
  <path class="BUNTAI_BEAR_JEWELRY_BEAR_JEWELRY_11_cls-8" d="M144.94,106.4a5.52,5.52,0,0,1-.32-1.87,5.59,5.59,0,0,1,2.86-4.89,3.57,3.57,0,0,1,4.82,1.85" />
</svg>