<svg xmlns="http://www.w3.org/2000/svg" viewBox="0 0 432 432">
  <defs>
    <style>.BUNTAI_BEAR_JEWELRY_BEAR_JEWELRY_24_cls-1{isolation:isolate;}.BUNTAI_BEAR_JEWELRY_BEAR_JEWELRY_24_cls-2{fill:#c7a858;}.BUNTAI_BEAR_JEWELRY_BEAR_JEWELRY_24_cls-3,.BUNTAI_BEAR_JEWELRY_BEAR_JEWELRY_24_cls-4,.BUNTAI_BEAR_JEWELRY_BEAR_JEWELRY_24_cls-6{fill:none;stroke:#000;stroke-linecap:round;stroke-linejoin:round;}.BUNTAI_BEAR_JEWELRY_BEAR_JEWELRY_24_cls-3{stroke-width:1.14px;}.BUNTAI_BEAR_JEWELRY_BEAR_JEWELRY_24_cls-4{stroke-width:1.06px;}.BUNTAI_BEAR_JEWELRY_BEAR_JEWELRY_24_cls-5{fill:#10b3c7;}.BUNTAI_BEAR_JEWELRY_BEAR_JEWELRY_24_cls-6{stroke-width:1.2px;}.BUNTAI_BEAR_JEWELRY_BEAR_JEWELRY_24_cls-7{opacity:0.43;mix-blend-mode:multiply;}</style>
  </defs>
  <g class="BUNTAI_BEAR_JEWELRY_BEAR_JEWELRY_24_cls-1">
    <g id="jewelries">
      <path class="BUNTAI_BEAR_JEWELRY_BEAR_JEWELRY_24_cls-2" d="M141,124c-2.2,0-1.84-3-1.84-3h0a6,6,0,0,0,2.71.57,2.55,2.55,0,0,0,1.21-.3C143.12,121.38,143.16,124,141,124Z" />
      <path class="BUNTAI_BEAR_JEWELRY_BEAR_JEWELRY_24_cls-2" d="M144.82,112.08c.82,2.69.64,7.83-1.71,9.12a2.55,2.55,0,0,1-1.21.3,6,6,0,0,1-2.71-.57c-2-1-3.05-3.27-2.91-6.75a11.51,11.51,0,0,1,.62-3.39,7.24,7.24,0,0,1,2-3.06,2.54,2.54,0,0,1,1.81-.75,3.05,3.05,0,0,1,2.19,1.3,5.19,5.19,0,0,1-1,.18h-.06a5.63,5.63,0,0,0-2.47,3.81c-.62,3,.42,6.27,1.91,6.27,1.66,0,1.68-3.85,1.58-5.9l.12,0A7,7,0,0,0,144.82,112.08Z" />
      <path class="BUNTAI_BEAR_JEWELRY_BEAR_JEWELRY_24_cls-2" d="M138.26,97.68c.84-.34,4.42-.63,4.49-.21s-1.19,2.12-1.1,2.45a12.56,12.56,0,0,0-2.6,1.48s-2.7,2.35-1.15,5.24a3.1,3.1,0,0,0,1,1.09,7.24,7.24,0,0,0-2,3.06C133.32,107.62,132.36,101.32,138.26,97.68Z" />
      <path class="BUNTAI_BEAR_JEWELRY_BEAR_JEWELRY_24_cls-2" d="M148.37,107.31a6.41,6.41,0,0,1-3.55,4.77,7.36,7.36,0,0,1-1.84.55l-.13,0a6.8,6.8,0,0,1-3.48-.37,5.63,5.63,0,0,1,2.47-3.81h.06a4.39,4.39,0,0,0,1-.19,2.84,2.84,0,0,0,2-1.78,2.33,2.33,0,0,0,.12-.76c0-3.14-1.23-3.29-1.23-3.29s-.07-.17-.15-.43a4,4,0,0,1,3.13-2.63A10.7,10.7,0,0,1,148.37,107.31Z" />
      <path class="BUNTAI_BEAR_JEWELRY_BEAR_JEWELRY_24_cls-3" d="M136.9,110.79c-3.58-3.17-4.54-9.47,1.36-13.11.79-.38,1.76-.87,5.49,0a4.79,4.79,0,0,0-2.36,2.56,4.06,4.06,0,0,0-2.34,1.16s-2.7,2.35-1.15,5.24a3.1,3.1,0,0,0,1,1.09" />
      <path class="BUNTAI_BEAR_JEWELRY_BEAR_JEWELRY_24_cls-3" d="M139.37,112.28a6.8,6.8,0,0,0,3.48.37l.13,0a7.36,7.36,0,0,0,1.84-.55,6.41,6.41,0,0,0,3.55-4.77,10.7,10.7,0,0,0-1.58-7.93" />
      <path class="BUNTAI_BEAR_JEWELRY_BEAR_JEWELRY_24_cls-3" d="M143.66,102c.08.26.15.43.15.43s1.19.15,1.23,3.29a2.33,2.33,0,0,1-.12.76,2.84,2.84,0,0,1-2,1.78,4.39,4.39,0,0,1-1,.19" />
      <path class="BUNTAI_BEAR_JEWELRY_BEAR_JEWELRY_24_cls-3" d="M144.82,112.08c.82,2.69.64,7.83-1.71,9.12a2.55,2.55,0,0,1-1.21.3,6,6,0,0,1-2.71-.57c-2-1-3.05-3.27-2.91-6.75a11.51,11.51,0,0,1,.62-3.39,7.24,7.24,0,0,1,2-3.06,2.54,2.54,0,0,1,1.81-.75,3.05,3.05,0,0,1,2.19,1.3" />
      <path class="BUNTAI_BEAR_JEWELRY_BEAR_JEWELRY_24_cls-3" d="M142.86,112.65c.1,2,.08,5.9-1.58,5.9-1.49,0-2.53-3.31-1.91-6.27a5.63,5.63,0,0,1,2.47-3.81h.06" />
      <path class="BUNTAI_BEAR_JEWELRY_BEAR_JEWELRY_24_cls-3" d="M139.19,120.94s-.36,3,1.84,3,2.09-2.57,2.08-2.75h0" />
      <path class="BUNTAI_BEAR_JEWELRY_BEAR_JEWELRY_24_cls-3" d="M143.89,105.24a4.08,4.08,0,0,1-.46-1.88,4,4,0,0,1,3.36-4,3.85,3.85,0,0,1,.69-.06,2.77,2.77,0,0,1,2.74,2" />
      <line class="BUNTAI_BEAR_JEWELRY_BEAR_JEWELRY_24_cls-4" x1="140.97" y1="130.2" x2="140.97" y2="123.99" />
      <path class="BUNTAI_BEAR_JEWELRY_BEAR_JEWELRY_24_cls-2" d="M141.22,148.5a7.83,7.83,0,1,0-7.83-7.83A7.83,7.83,0,0,0,141.22,148.5Zm10.3-7.83a9.74,9.74,0,0,1-.25,2.24,10,10,0,0,1-1.48,3.48,10.25,10.25,0,0,1-5.52,4.12,10.22,10.22,0,0,1-3,.46h0a10.13,10.13,0,0,1-3.86-.75,10.42,10.42,0,0,1-5-4.35,10.45,10.45,0,0,1-1.4-5.2,10.3,10.3,0,0,1,10.18-10.3h.12A10.3,10.3,0,0,1,151.52,140.67Z" />
      <path class="BUNTAI_BEAR_JEWELRY_BEAR_JEWELRY_24_cls-5" d="M162.54,152.37a10.5,10.5,0,0,1,.79,3.36,35.94,35.94,0,0,0-7.69-9.53h0l-.78-.66c.23,0,.47.06.69.11a10.18,10.18,0,0,1,4.79,2.32l-1.91-.49A10.86,10.86,0,0,1,162.54,152.37Z" />
      <path class="BUNTAI_BEAR_JEWELRY_BEAR_JEWELRY_24_cls-5" d="M163.33,155.73h0q0,.44,0,.87a38.94,38.94,0,0,1-3.83-3.1l-.17.16a13.9,13.9,0,0,0-2.26-2h0a28,28,0,0,1-1.45-5.46A35.94,35.94,0,0,1,163.33,155.73Z" />
      <path class="BUNTAI_BEAR_JEWELRY_BEAR_JEWELRY_24_cls-5" d="M162.14,160.78a24.27,24.27,0,0,1-.26,5.9c-.26-.25-.52-.49-.79-.72a36.85,36.85,0,0,0-7.87-16v-.22a14.34,14.34,0,0,1,3.87,1.94h0a13.9,13.9,0,0,1,2.26,2l-1.64.11a5.2,5.2,0,0,1,3.33,2.72A10.71,10.71,0,0,1,162.14,160.78Z" />
      <path class="BUNTAI_BEAR_JEWELRY_BEAR_JEWELRY_24_cls-5" d="M153.22,149.94a36.85,36.85,0,0,1,7.87,16c-.92-.79-1.92-1.5-2.86-2.28-.34-.28-.67-.57-1-.89-.05-.59-.13-1.17-.23-1.75a6.43,6.43,0,0,0-3-4.39l1.47-.05a11.58,11.58,0,0,0-2.26-2.53Z" />
      <path class="BUNTAI_BEAR_JEWELRY_BEAR_JEWELRY_24_cls-5" d="M157.24,162.79a24,24,0,0,1-.45,7.55A46.15,46.15,0,0,0,149.58,152h0a12.09,12.09,0,0,1,3.6,2.11,11.58,11.58,0,0,1,2.26,2.53l-1.47.05a6.43,6.43,0,0,1,3,4.39C157.11,161.62,157.19,162.2,157.24,162.79Z" />
      <path class="BUNTAI_BEAR_JEWELRY_BEAR_JEWELRY_24_cls-5" d="M156.79,170.34h0c-.17.79-.38,1.57-.62,2.34a27.11,27.11,0,0,0-4.38-5.88,8,8,0,0,0-1-3,22.65,22.65,0,0,0-2.51-3.64c.45.07.83.16,1.24.24.18,0,.36.07.55.09-.23-.43-.47-.86-.72-1.28a23.88,23.88,0,0,1,.2-7.21A46.15,46.15,0,0,1,156.79,170.34Z" />
      <path class="BUNTAI_BEAR_JEWELRY_BEAR_JEWELRY_24_cls-5" d="M149.38,159.19c.25.42.49.85.72,1.28-.19,0-.37-.06-.55-.09-.41-.08-.79-.17-1.24-.24a22.65,22.65,0,0,1,2.51,3.64,8,8,0,0,1,1,3c.4,3.36-1.08,7.09-3.13,10.17a71.38,71.38,0,0,0-3.12-22.72.3.3,0,0,0,0-.1A28.16,28.16,0,0,1,149.38,159.19Z" />
      <path class="BUNTAI_BEAR_JEWELRY_BEAR_JEWELRY_24_cls-5" d="M145.74,170.06a35.69,35.69,0,0,1-1-10.25,2.55,2.55,0,0,0-.35.14,14.8,14.8,0,0,0-.4-2.32c.28-.64.6-1.25.9-1.88a10.82,10.82,0,0,0,.61-1.49A71.38,71.38,0,0,1,148.66,177c-.3.44-.6.87-.91,1.28C147.47,175.54,146.42,172.82,145.74,170.06Z" />
      <path class="BUNTAI_BEAR_JEWELRY_BEAR_JEWELRY_24_cls-5" d="M144.43,160c.11,1.2.12,2.43.11,3.63a5.2,5.2,0,0,0-2.71.06,10.41,10.41,0,0,1,2.2,2,32.11,32.11,0,0,1-3.18,13.5,14.26,14.26,0,0,1-2.93-5.71,28.79,28.79,0,0,1-.35-8.7c.52-.62,1.14-1.32,1.67-1.93-.57-.29-1-.56-1.59-.84,0-.58,0-1.17,0-1.77a6.44,6.44,0,0,1,.15-1.82,2.88,2.88,0,0,1,.33-.79,27,27,0,0,1,3-4c.09-.1.18-.21.28-.31a8.27,8.27,0,0,1,1.84,2.36,9.23,9.23,0,0,1,.77,2A14.8,14.8,0,0,1,144.43,160Z" />
      <path class="BUNTAI_BEAR_JEWELRY_BEAR_JEWELRY_24_cls-5" d="M132.86,177A71.44,71.44,0,0,1,136,154.26a14.08,14.08,0,0,0,.61,1.49,26.54,26.54,0,0,1,1.19,2.61,6.44,6.44,0,0,0-.15,1.82c-.3-.13-.6-.27-.88-.37a35.35,35.35,0,0,1-1,10.25c-.67,2.76-1.72,5.48-2,8.2-.32-.41-.63-.84-.91-1.28h0S132.86,177,132.86,177Z" />
      <path class="BUNTAI_BEAR_JEWELRY_BEAR_JEWELRY_24_cls-5" d="M136,154.26A71.44,71.44,0,0,0,132.86,177c-2.06-3.08-3.53-6.79-3.13-10.14a8.13,8.13,0,0,1,1-3,24.07,24.07,0,0,1,2.52-3.64c-.64.09-1.15.25-1.79.33.23-.43.47-.86.72-1.28a28.69,28.69,0,0,1,3.81-5Z" />
      <path class="BUNTAI_BEAR_JEWELRY_BEAR_JEWELRY_24_cls-5" d="M131.94,152a23.88,23.88,0,0,1,.2,7.21c-.25.42-.49.85-.72,1.28.64-.08,1.15-.24,1.79-.33a24.07,24.07,0,0,0-2.52,3.64,8.13,8.13,0,0,0-1,3,27,27,0,0,0-4.37,5.88,24,24,0,0,1-.63-2.35A46.3,46.3,0,0,1,131.94,152Z" />
      <path class="BUNTAI_BEAR_JEWELRY_BEAR_JEWELRY_24_cls-5" d="M131.94,152a46.3,46.3,0,0,0-7.21,18.36,24.26,24.26,0,0,1-.45-7.55c.06-.59.13-1.17.24-1.75a6.45,6.45,0,0,1,3-4.39l-1.47-.05a11.84,11.84,0,0,1,2.26-2.53,12.14,12.14,0,0,1,3.61-2.11h0Z" />
      <path class="BUNTAI_BEAR_JEWELRY_BEAR_JEWELRY_24_cls-5" d="M127.54,156.65a6.45,6.45,0,0,0-3,4.39c-.11.58-.18,1.16-.24,1.75-.32.32-.65.61-1,.89-.94.78-1.94,1.49-2.86,2.28a37,37,0,0,1,7.87-16l0,4.13a11.84,11.84,0,0,0-2.26,2.53Z" />
      <path class="BUNTAI_BEAR_JEWELRY_BEAR_JEWELRY_24_cls-5" d="M128.3,149.94a37,37,0,0,0-7.87,16q-.41.34-.78.72a23.78,23.78,0,0,1-.26-5.9,10.7,10.7,0,0,1,1.08-4.28,5.22,5.22,0,0,1,3.34-2.72l-1.64-.11,0-.06a13.2,13.2,0,0,1,2.21-2,14.34,14.34,0,0,1,3.87-1.94Z" />
      <path class="BUNTAI_BEAR_JEWELRY_BEAR_JEWELRY_24_cls-5" d="M125.88,146.2a27.32,27.32,0,0,1-1.45,5.46,13.2,13.2,0,0,0-2.21,2l-.17-.16a37.6,37.6,0,0,1-3.88,3.16v-.22c0-.21,0-.43,0-.65A35.76,35.76,0,0,1,125.88,146.2Z" />
      <path class="BUNTAI_BEAR_JEWELRY_BEAR_JEWELRY_24_cls-5" d="M125.88,146.2a35.76,35.76,0,0,0-7.68,9.54,10.55,10.55,0,0,1,.78-3.37,10.86,10.86,0,0,1,4.11-4.9l-1.91.49a10.18,10.18,0,0,1,4.79-2.32c.23,0,.46-.08.69-.11l-.78.66Z" />
      <path class="BUNTAI_BEAR_JEWELRY_BEAR_JEWELRY_24_cls-6" d="M141.1,130.37h.12a10.3,10.3,0,0,1,10.3,10.3,9.74,9.74,0,0,1-.25,2.24,10,10,0,0,1-1.48,3.48,10.25,10.25,0,0,1-5.52,4.12,10.22,10.22,0,0,1-3,.46h0a10.13,10.13,0,0,1-3.86-.75,10.42,10.42,0,0,1-5-4.35,10.45,10.45,0,0,1-1.4-5.2A10.3,10.3,0,0,1,141.1,130.37Z" />
      <circle class="BUNTAI_BEAR_JEWELRY_BEAR_JEWELRY_24_cls-6" cx="141.22" cy="140.67" r="7.83" />
      <path class="BUNTAI_BEAR_JEWELRY_BEAR_JEWELRY_24_cls-6" d="M141.23,151c0,.69,0,1.37-.07,2.05,0,.18,0,.35,0,.53-.23,6.93-.48,13.86-.71,20.78" />
      <path class="BUNTAI_BEAR_JEWELRY_BEAR_JEWELRY_24_cls-6" d="M141.42,153.24l-.26-.22" />
      <path class="BUNTAI_BEAR_JEWELRY_BEAR_JEWELRY_24_cls-6" d="M141.14,153.55c.09-.1.18-.21.28-.31a8.27,8.27,0,0,1,1.84,2.36,9.23,9.23,0,0,1,.77,2,14.8,14.8,0,0,1,.4,2.32c.11,1.2.12,2.43.11,3.63a5.2,5.2,0,0,0-2.71.06,10.41,10.41,0,0,1,2.2,2,32.11,32.11,0,0,1-3.18,13.5,14.26,14.26,0,0,1-2.93-5.71,28.79,28.79,0,0,1-.35-8.7c.52-.62,1.14-1.32,1.67-1.93-.57-.29-1-.56-1.59-.84,0-.58,0-1.17,0-1.77a6.44,6.44,0,0,1,.15-1.82,2.88,2.88,0,0,1,.33-.79,27,27,0,0,1,3-4" />
      <path class="BUNTAI_BEAR_JEWELRY_BEAR_JEWELRY_24_cls-6" d="M137.36,150.22c-.47,1.26-.91,2.54-1.31,3.84a1.18,1.18,0,0,0-.07.2A71.44,71.44,0,0,0,132.86,177v0h0" />
      <path class="BUNTAI_BEAR_JEWELRY_BEAR_JEWELRY_24_cls-6" d="M136.05,154.06a.47.47,0,0,0-.1.1,28.69,28.69,0,0,0-3.81,5c-.25.42-.49.85-.72,1.28.64-.08,1.15-.24,1.79-.33a24.07,24.07,0,0,0-2.52,3.64,8.13,8.13,0,0,0-1,3c-.4,3.35,1.07,7.06,3.13,10.14,0,0,0,0,0,0h0c.28.44.59.87.91,1.28" />
      <path class="BUNTAI_BEAR_JEWELRY_BEAR_JEWELRY_24_cls-6" d="M133.78,178.26c.28-2.72,1.33-5.44,2-8.2a35.35,35.35,0,0,0,1-10.25c.28.1.58.24.88.37" />
      <path class="BUNTAI_BEAR_JEWELRY_BEAR_JEWELRY_24_cls-6" d="M137.78,158.36a26.54,26.54,0,0,0-1.19-2.61,14.08,14.08,0,0,1-.61-1.49l0-.1" />
      <path class="BUNTAI_BEAR_JEWELRY_BEAR_JEWELRY_24_cls-6" d="M131.94,152a46.3,46.3,0,0,0-7.21,18.36" />
      <path class="BUNTAI_BEAR_JEWELRY_BEAR_JEWELRY_24_cls-6" d="M134.52,148.49q-1.36,1.66-2.56,3.47h0" />
      <path class="BUNTAI_BEAR_JEWELRY_BEAR_JEWELRY_24_cls-6" d="M132,152h0a12.14,12.14,0,0,0-3.61,2.11,11.84,11.84,0,0,0-2.26,2.53l1.47.05a6.45,6.45,0,0,0-3,4.39c-.11.58-.18,1.16-.24,1.75a24.26,24.26,0,0,0,.45,7.55,24,24,0,0,0,.63,2.35" />
      <path class="BUNTAI_BEAR_JEWELRY_BEAR_JEWELRY_24_cls-6" d="M132.14,159.19a23.88,23.88,0,0,0-.2-7.21h0" />
      <path class="BUNTAI_BEAR_JEWELRY_BEAR_JEWELRY_24_cls-6" d="M129.73,166.81a27,27,0,0,0-4.37,5.88" />
      <path class="BUNTAI_BEAR_JEWELRY_BEAR_JEWELRY_24_cls-6" d="M120.43,166a37,37,0,0,1,7.87-16,3.58,3.58,0,0,1,.26-.29,35.31,35.31,0,0,1,3.76-3.78" />
      <path class="BUNTAI_BEAR_JEWELRY_BEAR_JEWELRY_24_cls-6" d="M119.65,166.68a23.78,23.78,0,0,1-.26-5.9,10.7,10.7,0,0,1,1.08-4.28,5.22,5.22,0,0,1,3.34-2.72l-1.64-.11,0-.06a13.2,13.2,0,0,1,2.21-2,14.34,14.34,0,0,1,3.87-1.94l.26-.07" />
      <path class="BUNTAI_BEAR_JEWELRY_BEAR_JEWELRY_24_cls-6" d="M128.3,149.72v.22l0,4.13" />
      <path class="BUNTAI_BEAR_JEWELRY_BEAR_JEWELRY_24_cls-6" d="M125.88,146.19l.78-.66a34.77,34.77,0,0,1,4.41-3.12" />
      <path class="BUNTAI_BEAR_JEWELRY_BEAR_JEWELRY_24_cls-6" d="M118.2,155.74a35.76,35.76,0,0,1,7.68-9.54" />
      <path class="BUNTAI_BEAR_JEWELRY_BEAR_JEWELRY_24_cls-6" d="M126.66,145.53c-.23,0-.46.06-.69.11a10.18,10.18,0,0,0-4.79,2.32l1.91-.49a10.86,10.86,0,0,0-4.11,4.9,10.55,10.55,0,0,0-.78,3.37c0,.22,0,.44,0,.65v.22" />
      <path class="BUNTAI_BEAR_JEWELRY_BEAR_JEWELRY_24_cls-6" d="M123,152.12a5.92,5.92,0,0,1-.94,1.33,37.6,37.6,0,0,1-3.88,3.16h0" />
      <path class="BUNTAI_BEAR_JEWELRY_BEAR_JEWELRY_24_cls-6" d="M125.88,146.19h0a27.32,27.32,0,0,1-1.45,5.46" />
      <path class="BUNTAI_BEAR_JEWELRY_BEAR_JEWELRY_24_cls-6" d="M124.28,162.79c-.32.32-.65.61-1,.89-.94.78-1.94,1.49-2.86,2.28q-.41.34-.78.72" />
      <path class="BUNTAI_BEAR_JEWELRY_BEAR_JEWELRY_24_cls-6" d="M148.66,177a71.38,71.38,0,0,0-3.12-22.72l-.06-.2c-.37-1.2-.77-2.38-1.21-3.55" />
      <path class="BUNTAI_BEAR_JEWELRY_BEAR_JEWELRY_24_cls-6" d="M145.48,154.06l.1.1a28.16,28.16,0,0,1,3.8,5c.25.42.49.85.72,1.28-.19,0-.37-.06-.55-.09-.41-.08-.79-.17-1.24-.24a22.65,22.65,0,0,1,2.51,3.64,8,8,0,0,1,1,3c.4,3.36-1.08,7.09-3.13,10.17-.3.44-.6.87-.91,1.28" />
      <path class="BUNTAI_BEAR_JEWELRY_BEAR_JEWELRY_24_cls-6" d="M144.43,160a2.55,2.55,0,0,1,.35-.14,35.69,35.69,0,0,0,1,10.25c.68,2.76,1.73,5.48,2,8.2" />
      <path class="BUNTAI_BEAR_JEWELRY_BEAR_JEWELRY_24_cls-6" d="M144,157.63c.28-.64.6-1.25.9-1.88a10.82,10.82,0,0,0,.61-1.49.3.3,0,0,0,0-.1" />
      <path class="BUNTAI_BEAR_JEWELRY_BEAR_JEWELRY_24_cls-6" d="M149.58,152h0c-.69-1-1.43-2.05-2.2-3" />
      <path class="BUNTAI_BEAR_JEWELRY_BEAR_JEWELRY_24_cls-6" d="M156.79,170.34A46.15,46.15,0,0,0,149.58,152" />
      <path class="BUNTAI_BEAR_JEWELRY_BEAR_JEWELRY_24_cls-6" d="M156.17,172.69c.24-.77.45-1.55.62-2.34h0a24,24,0,0,0,.45-7.55c-.05-.59-.13-1.17-.23-1.75a6.43,6.43,0,0,0-3-4.39l1.47-.05a11.58,11.58,0,0,0-2.26-2.53,12.09,12.09,0,0,0-3.6-2.11h0" />
      <path class="BUNTAI_BEAR_JEWELRY_BEAR_JEWELRY_24_cls-6" d="M149.38,159.19a23.88,23.88,0,0,1,.2-7.21h0" />
      <path class="BUNTAI_BEAR_JEWELRY_BEAR_JEWELRY_24_cls-6" d="M156.17,172.69a27.11,27.11,0,0,0-4.38-5.88" />
      <path class="BUNTAI_BEAR_JEWELRY_BEAR_JEWELRY_24_cls-6" d="M149.79,146.39a33.77,33.77,0,0,1,3.18,3.26,3.47,3.47,0,0,1,.25.29,36.85,36.85,0,0,1,7.87,16" />
      <path class="BUNTAI_BEAR_JEWELRY_BEAR_JEWELRY_24_cls-6" d="M157.1,151.66a13.9,13.9,0,0,1,2.26,2l-1.64.11a5.2,5.2,0,0,1,3.33,2.72,10.71,10.71,0,0,1,1.09,4.28,24.27,24.27,0,0,1-.26,5.9" />
      <path class="BUNTAI_BEAR_JEWELRY_BEAR_JEWELRY_24_cls-6" d="M153,149.65l.25.07a14.34,14.34,0,0,1,3.87,1.94" />
      <path class="BUNTAI_BEAR_JEWELRY_BEAR_JEWELRY_24_cls-6" d="M153.22,149.72v.22l0,4.13" />
      <path class="BUNTAI_BEAR_JEWELRY_BEAR_JEWELRY_24_cls-6" d="M155.64,146.2a35.94,35.94,0,0,1,7.69,9.53" />
      <path class="BUNTAI_BEAR_JEWELRY_BEAR_JEWELRY_24_cls-6" d="M151.27,142.91a33,33,0,0,1,3.59,2.62l.78.66" />
      <path class="BUNTAI_BEAR_JEWELRY_BEAR_JEWELRY_24_cls-6" d="M154.86,145.53c.23,0,.47.06.69.11a10.18,10.18,0,0,1,4.79,2.32l-1.91-.49a10.86,10.86,0,0,1,4.11,4.9,10.5,10.5,0,0,1,.79,3.36h0q0,.44,0,.87" />
      <path class="BUNTAI_BEAR_JEWELRY_BEAR_JEWELRY_24_cls-6" d="M158.54,152.12a6,6,0,0,0,1,1.39,38.94,38.94,0,0,0,3.83,3.1h0" />
      <path class="BUNTAI_BEAR_JEWELRY_BEAR_JEWELRY_24_cls-6" d="M155.64,146.19h0a28,28,0,0,0,1.45,5.46h0" />
      <path class="BUNTAI_BEAR_JEWELRY_BEAR_JEWELRY_24_cls-6" d="M157.24,162.79c.32.32.65.61,1,.89.94.78,1.94,1.49,2.86,2.28.27.23.53.47.79.72" />
      <g class="BUNTAI_BEAR_JEWELRY_BEAR_JEWELRY_24_cls-7">
        <path d="M125.68,145.87s-3.19.12-4.28,2.62a12.07,12.07,0,0,0-2.8,7.77c1.85-1.39,2.73-2.1,2.73-2.1a33.28,33.28,0,0,1,2.48-5.22,28.3,28.3,0,0,1-1.39,6S118.21,160.05,120,166c2.18-4.59,5.16-11.8,5.16-11.8a77.56,77.56,0,0,0-1,8.48c0,2.19.11,6.56,1.55,9.05,2.27-2.87,3.29-4.37,3.29-4.37s.86-.65,1.25-4.67,1.05-7.7,1.05-7.7l-3.21,8.39,1.67-9.65,2.23-.56s-.12,6.72-.21,10.25.79,11.45,2.36,14.07c1.67-7.39,2.58-12.45,2.76-13.1s1.13,2.46,1.13,2.46.46,9.15,2.83,11.45c.58-9.76,1.54-17.72,1.76-19.09s-1-4.26-1-4.26l-.46-.54s-.47,8.23-.33,13.47c-1.39-10.14-1.61-11.93-1.61-11.93L138,158.2,136,155.39s-2,10.72-1.84,13.64l-.35-12.24-1.63.84s.6-5.21,0-5.51a9.12,9.12,0,0,0-3.57,1.76l-.5-3.25-3.33.33Z" />
        <path d="M134.53,132.84a10.33,10.33,0,0,0-3.16,10.85c1.95,6.91,12.26,10.51,17.83,3.5-3.24,1.95-10.81,4.66-15.18-1.32S134.53,132.84,134.53,132.84Z" />
      </g>
    </g>
  </g>
</svg>