<svg id="jewelries" xmlns="http://www.w3.org/2000/svg" viewBox="0 0 432 432">
  <defs>
    <style>.BUNTAI_BEAR_JEWELRY_BEAR_JEWELRY_33_cls-1{fill:#ffc33e;stroke-width:2px;}.BUNTAI_BEAR_JEWELRY_BEAR_JEWELRY_33_cls-1,.BUNTAI_BEAR_JEWELRY_BEAR_JEWELRY_33_cls-2,.BUNTAI_BEAR_JEWELRY_BEAR_JEWELRY_33_cls-3{stroke:#000;stroke-linecap:round;stroke-linejoin:round;}.BUNTAI_BEAR_JEWELRY_BEAR_JEWELRY_33_cls-2{fill:#e2cb6e;}.BUNTAI_BEAR_JEWELRY_BEAR_JEWELRY_33_cls-2,.BUNTAI_BEAR_JEWELRY_BEAR_JEWELRY_33_cls-3{stroke-width:1.38px;}.BUNTAI_BEAR_JEWELRY_BEAR_JEWELRY_33_cls-3{fill:none;}</style>
  </defs>
  <circle class="BUNTAI_BEAR_JEWELRY_BEAR_JEWELRY_33_cls-1" cx="321.05" cy="121.49" r="3.15" />
  <path class="BUNTAI_BEAR_JEWELRY_BEAR_JEWELRY_33_cls-1" d="M321.05,124.63s-4.16,41.07-4.16,51.44,4.16,12.87,4.16,12.87,4.15-2.51,4.15-12.87S321.05,124.63,321.05,124.63Z" />
  <path class="BUNTAI_BEAR_JEWELRY_BEAR_JEWELRY_33_cls-2" d="M150.11,110.24a7,7,0,0,1-4,3.71c-6.05,2.32-12.91-.31-11.49-7.11,1.72-8.26,6.81-10.49,10.91-9.39a7.08,7.08,0,0,0-4.39,2.92c-1.33.57-2.92,2-3.76,6.79s7,5.16,8.85,2c.07-.12.14-.24.2-.37a6.87,6.87,0,0,0-.9-7.19,5.58,5.58,0,0,1,1.95-1.82C150.72,103.29,151.43,107.29,150.11,110.24Z" />
  <path class="BUNTAI_BEAR_JEWELRY_BEAR_JEWELRY_33_cls-3" d="M144.94,106.51a5.6,5.6,0,0,1,2.54-6.77,3.57,3.57,0,0,1,4.82,1.86" />
</svg>