<svg xmlns="http://www.w3.org/2000/svg" viewBox="0 0 432 432">
  <defs>
    <style>.BUNTAI_BEAR_JEWELRY_BEAR_JEWELRY_17_cls-1{isolation:isolate;}.BUNTAI_BEAR_JEWELRY_BEAR_JEWELRY_17_cls-2{fill:#c7a858;}.BUNTAI_BEAR_JEWELRY_BEAR_JEWELRY_17_cls-12,.BUNTAI_BEAR_JEWELRY_BEAR_JEWELRY_17_cls-14,.BUNTAI_BEAR_JEWELRY_BEAR_JEWELRY_17_cls-19,.BUNTAI_BEAR_JEWELRY_BEAR_JEWELRY_17_cls-3{fill:none;stroke-linecap:round;stroke-linejoin:round;}.BUNTAI_BEAR_JEWELRY_BEAR_JEWELRY_17_cls-12,.BUNTAI_BEAR_JEWELRY_BEAR_JEWELRY_17_cls-14,.BUNTAI_BEAR_JEWELRY_BEAR_JEWELRY_17_cls-15,.BUNTAI_BEAR_JEWELRY_BEAR_JEWELRY_17_cls-19,.BUNTAI_BEAR_JEWELRY_BEAR_JEWELRY_17_cls-20,.BUNTAI_BEAR_JEWELRY_BEAR_JEWELRY_17_cls-3{stroke:#000;}.BUNTAI_BEAR_JEWELRY_BEAR_JEWELRY_17_cls-3{stroke-width:1.14px;}.BUNTAI_BEAR_JEWELRY_BEAR_JEWELRY_17_cls-4{fill:#87e04a;}.BUNTAI_BEAR_JEWELRY_BEAR_JEWELRY_17_cls-5{fill:#f4f4f2;}.BUNTAI_BEAR_JEWELRY_BEAR_JEWELRY_17_cls-6{fill:#184098;}.BUNTAI_BEAR_JEWELRY_BEAR_JEWELRY_17_cls-7{fill:#2dbcd5;}.BUNTAI_BEAR_JEWELRY_BEAR_JEWELRY_17_cls-8{fill:#e1a04c;}.BUNTAI_BEAR_JEWELRY_BEAR_JEWELRY_17_cls-9{fill:#a64e42;}.BUNTAI_BEAR_JEWELRY_BEAR_JEWELRY_17_cls-10{fill:#ccc;}.BUNTAI_BEAR_JEWELRY_BEAR_JEWELRY_17_cls-11{fill:#e7ff87;}.BUNTAI_BEAR_JEWELRY_BEAR_JEWELRY_17_cls-12{stroke-width:1.2px;}.BUNTAI_BEAR_JEWELRY_BEAR_JEWELRY_17_cls-13{opacity:0.43;mix-blend-mode:multiply;}.BUNTAI_BEAR_JEWELRY_BEAR_JEWELRY_17_cls-14{stroke-width:1.06px;}.BUNTAI_BEAR_JEWELRY_BEAR_JEWELRY_17_cls-15{fill:#e2d93c;stroke-width:2px;}.BUNTAI_BEAR_JEWELRY_BEAR_JEWELRY_17_cls-15,.BUNTAI_BEAR_JEWELRY_BEAR_JEWELRY_17_cls-20{stroke-miterlimit:10;}.BUNTAI_BEAR_JEWELRY_BEAR_JEWELRY_17_cls-16{fill:#594739;}.BUNTAI_BEAR_JEWELRY_BEAR_JEWELRY_17_cls-17{fill:#917244;}.BUNTAI_BEAR_JEWELRY_BEAR_JEWELRY_17_cls-18{fill:#c91629;}.BUNTAI_BEAR_JEWELRY_BEAR_JEWELRY_17_cls-19{stroke-width:2.03px;}.BUNTAI_BEAR_JEWELRY_BEAR_JEWELRY_17_cls-20{fill:#754c24;stroke-width:1.69px;}.BUNTAI_BEAR_JEWELRY_BEAR_JEWELRY_17_cls-21{fill:#333;}</style>
  </defs>
  <g class="BUNTAI_BEAR_JEWELRY_BEAR_JEWELRY_17_cls-1">
    <g id="jewelries">
      <path class="BUNTAI_BEAR_JEWELRY_BEAR_JEWELRY_17_cls-2" d="M141.27,123.74c-2.2,0-1.84-3-1.84-3h0a6,6,0,0,0,2.71.57,2.39,2.39,0,0,0,1.21-.3C143.36,121.17,143.4,123.74,141.27,123.74Z" />
      <path class="BUNTAI_BEAR_JEWELRY_BEAR_JEWELRY_17_cls-2" d="M145.07,111.87c.81,2.69.64,7.83-1.72,9.12a2.39,2.39,0,0,1-1.21.3,6,6,0,0,1-2.71-.57c-2-1-3-3.27-2.91-6.75a11.18,11.18,0,0,1,.63-3.39,7.21,7.21,0,0,1,2-3.06,2.47,2.47,0,0,1,1.8-.74,3,3,0,0,1,2.19,1.29,4.38,4.38,0,0,1-1,.18h0a5.56,5.56,0,0,0-2.48,3.8c-.62,3,.42,6.28,1.91,6.28,1.66,0,1.68-3.86,1.58-5.9l.12,0A7.57,7.57,0,0,0,145.07,111.87Z" />
      <path class="BUNTAI_BEAR_JEWELRY_BEAR_JEWELRY_17_cls-2" d="M138.5,97.47c.85-.33,4.42-.63,4.49-.21s-1.19,2.12-1.1,2.46a12.11,12.11,0,0,0-2.6,1.48s-2.69,2.34-1.15,5.24a3,3,0,0,0,1,1.08,7.21,7.21,0,0,0-2,3.06C133.57,107.42,132.61,101.11,138.5,97.47Z" />
      <path class="BUNTAI_BEAR_JEWELRY_BEAR_JEWELRY_17_cls-2" d="M148.61,107.1a6.4,6.4,0,0,1-3.54,4.77,7.2,7.2,0,0,1-1.84.56l-.13,0a6.94,6.94,0,0,1-3.49-.37,5.6,5.6,0,0,1,2.47-3.81h.06a4.59,4.59,0,0,0,1-.19,2.9,2.9,0,0,0,2-1.78,2.39,2.39,0,0,0,.12-.77c0-3.13-1.24-3.28-1.24-3.28s-.07-.17-.15-.43A4.05,4.05,0,0,1,147,99.17,10.71,10.71,0,0,1,148.61,107.1Z" />
      <path class="BUNTAI_BEAR_JEWELRY_BEAR_JEWELRY_17_cls-3" d="M137.15,110.58c-3.58-3.16-4.54-9.47,1.35-13.11.79-.38,1.76-.86,5.49,0a4.79,4.79,0,0,0-2.36,2.56,4.16,4.16,0,0,0-2.34,1.17s-2.69,2.34-1.15,5.24a3,3,0,0,0,1,1.08" />
      <path class="BUNTAI_BEAR_JEWELRY_BEAR_JEWELRY_17_cls-3" d="M139.61,112.08a6.94,6.94,0,0,0,3.49.37l.13,0a7.2,7.2,0,0,0,1.84-.56,6.4,6.4,0,0,0,3.54-4.77A10.71,10.71,0,0,0,147,99.17" />
      <path class="BUNTAI_BEAR_JEWELRY_BEAR_JEWELRY_17_cls-3" d="M143.9,101.81c.08.26.15.43.15.43s1.2.15,1.24,3.28a2.39,2.39,0,0,1-.12.77,2.9,2.9,0,0,1-2,1.78,4.59,4.59,0,0,1-1,.19" />
      <path class="BUNTAI_BEAR_JEWELRY_BEAR_JEWELRY_17_cls-3" d="M145.07,111.87c.81,2.69.64,7.83-1.72,9.12a2.39,2.39,0,0,1-1.21.3,6,6,0,0,1-2.71-.57c-2-1-3-3.27-2.91-6.75a11.18,11.18,0,0,1,.63-3.39,7.21,7.21,0,0,1,2-3.06,2.47,2.47,0,0,1,1.8-.74,3,3,0,0,1,2.19,1.29" />
      <path class="BUNTAI_BEAR_JEWELRY_BEAR_JEWELRY_17_cls-3" d="M143.1,112.45c.1,2,.08,5.9-1.58,5.9-1.49,0-2.53-3.32-1.91-6.28a5.56,5.56,0,0,1,2.48-3.8h0" />
      <path class="BUNTAI_BEAR_JEWELRY_BEAR_JEWELRY_17_cls-3" d="M139.43,120.73s-.36,3,1.84,3,2.09-2.57,2.08-2.75h0" />
      <path class="BUNTAI_BEAR_JEWELRY_BEAR_JEWELRY_17_cls-3" d="M144.14,105a4,4,0,0,1-.24-3.22A4.05,4.05,0,0,1,147,99.17a3.82,3.82,0,0,1,.68-.06,2.76,2.76,0,0,1,2.74,2" />
      <path class="BUNTAI_BEAR_JEWELRY_BEAR_JEWELRY_17_cls-4" d="M146.52,196.13c2.54,1.14,4.53,5.63,4.53,5.63s-4.67,1.49-7.21.35c-2-.9-3.14-3.65-3.53-4.77v0l-.09-.48C140.72,196.61,144.18,195.07,146.52,196.13Z" />
      <path class="BUNTAI_BEAR_JEWELRY_BEAR_JEWELRY_17_cls-5" d="M139.78,190.18s-.94,4.16-3.42,5.42-7.23,0-7.23,0,1.78-4.58,4.25-5.84S139.78,190.18,139.78,190.18Z" />
      <path class="BUNTAI_BEAR_JEWELRY_BEAR_JEWELRY_17_cls-6" d="M153.29,180.16c2.48,1.79,3.63,7.05,3.63,7.05s-5.36.58-7.83-1.21-2.8-6.45-2.8-6.45S150.81,178.38,153.29,180.16Z" />
      <path class="BUNTAI_BEAR_JEWELRY_BEAR_JEWELRY_17_cls-7" d="M147.64,168.59s0,.06,0,.09h0c-.28,1.05-1.37,4.48-3.67,5.65-2.73,1.38-7.93,0-7.93,0s1.94-5,4.66-6.41,6.67.32,7,.46h0A1.77,1.77,0,0,1,147.64,168.59Z" />
      <path class="BUNTAI_BEAR_JEWELRY_BEAR_JEWELRY_17_cls-8" d="M157.35,153c3.53,1.28,6.65,7.1,6.65,7.1s-6.13,2.48-9.65,1.21c-1.91-.69-3.36-2.6-4.28-4.2,0,0,0,0,0,0a8.35,8.35,0,0,0-.67-1.62c-.15-.28-.3-.56-.44-.86C149.52,154.28,154.06,151.81,157.35,153Z" />
      <path class="BUNTAI_BEAR_JEWELRY_BEAR_JEWELRY_17_cls-9" d="M141.9,143.74s0,0,0,0c.24.83.52,1.72.82,2.63,0,0,0,0,0,0a9,9,0,0,1-.26,5.81c-1.67,3.35-7.82,5.77-7.82,5.77s-1.75-6.37-.07-9.72,7.27-4.65,7.27-4.65l0,.07Z" />
      <path class="BUNTAI_BEAR_JEWELRY_BEAR_JEWELRY_17_cls-10" d="M150.07,157.11c2.36,7.7-3.08,22-8.27,31.24a13,13,0,0,0-1.58,8.49l-.06,0s.05.17.15.45v0a20.19,20.19,0,0,0,8.62,12.39c-3.88-2.08-13.16-11.69-8.21-21.38a75.77,75.77,0,0,0,6.9-19.66h0a2.35,2.35,0,0,0,.08-.29h0c.9-5.15.81-9.83-1-12.91a49.76,49.76,0,0,1-3.92-9s0,0,0,0a17.33,17.33,0,0,0-.82-2.63s0,0,0,0h0c-.67-2.21-1.16-4.16-1.46-5.45a4.14,4.14,0,0,0,1.22.18,4,4,0,0,0,2.26-.68c.53,2.94,2.16,11.05,5,16.82a0,0,0,0,0,0,0l-.06,0a16.61,16.61,0,0,0,1.17,2.45S150.07,157.1,150.07,157.11Z" />
      <path class="BUNTAI_BEAR_JEWELRY_BEAR_JEWELRY_17_cls-11" d="M143.92,134.35a2.26,2.26,0,1,0-2.26,2.26A2.26,2.26,0,0,0,143.92,134.35Zm-2.26-4.1a4.11,4.11,0,0,1,2.26,7.53,4,4,0,0,1-2.26.68,4.11,4.11,0,0,1,0-8.21Z" />
      <path class="BUNTAI_BEAR_JEWELRY_BEAR_JEWELRY_17_cls-12" d="M142.74,146.42a17.33,17.33,0,0,0-.82-2.63" />
      <path class="BUNTAI_BEAR_JEWELRY_BEAR_JEWELRY_17_cls-12" d="M141.9,143.73l0-.07s-5.59,1.3-7.27,4.65.07,9.72.07,9.72,6.15-2.42,7.82-5.77a9,9,0,0,0,.26-5.81" />
      <path class="BUNTAI_BEAR_JEWELRY_BEAR_JEWELRY_17_cls-12" d="M147.68,168.38c-.33-.14-4.39-1.78-7-.46s-4.66,6.41-4.66,6.41,5.2,1.39,7.93,0c2.3-1.17,3.39-4.6,3.67-5.65" />
      <path class="BUNTAI_BEAR_JEWELRY_BEAR_JEWELRY_17_cls-12" d="M147.62,168.68a2.35,2.35,0,0,0,.08-.29h0" />
      <path class="BUNTAI_BEAR_JEWELRY_BEAR_JEWELRY_17_cls-12" d="M139.78,190.18s-3.92-1.68-6.4-.42-4.25,5.84-4.25,5.84,4.75,1.26,7.23,0S139.78,190.18,139.78,190.18Z" />
      <path class="BUNTAI_BEAR_JEWELRY_BEAR_JEWELRY_17_cls-12" d="M140.31,197.34c.39,1.12,1.52,3.87,3.53,4.77,2.54,1.14,7.21-.35,7.21-.35s-2-4.49-4.53-5.63c-2.34-1.06-5.8.48-6.3.71l-.06,0s.05.17.15.45" />
      <path class="BUNTAI_BEAR_JEWELRY_BEAR_JEWELRY_17_cls-12" d="M146.29,179.55s.32,4.67,2.8,6.45,7.83,1.21,7.83,1.21-1.15-5.26-3.63-7.05S146.29,179.55,146.29,179.55Z" />
      <path class="BUNTAI_BEAR_JEWELRY_BEAR_JEWELRY_17_cls-12" d="M150.07,157.11c.92,1.6,2.37,3.51,4.28,4.2,3.52,1.27,9.65-1.21,9.65-1.21s-3.12-5.82-6.65-7.1c-3.29-1.19-7.83,1.28-8.4,1.61l-.06,0a16.61,16.61,0,0,0,1.17,2.45" />
      <path class="BUNTAI_BEAR_JEWELRY_BEAR_JEWELRY_17_cls-12" d="M148.93,209.73c-3.88-2.08-13.16-11.69-8.21-21.38a75.77,75.77,0,0,0,6.9-19.66h0s0-.06,0-.09a1.77,1.77,0,0,0,0-.2h0c.9-5.15.81-9.83-1-12.91a49.76,49.76,0,0,1-3.92-9s0,0,0,0c-.3-.91-.58-1.8-.82-2.63,0,0,0,0,0,0h0c-.67-2.21-1.16-4.16-1.46-5.45h0" />
      <path class="BUNTAI_BEAR_JEWELRY_BEAR_JEWELRY_17_cls-12" d="M146.47,214.1c-3.34,1.94,3.08,3.49,2.55,0-3.08-6.69-10.55,4.81-1.81,5.31,5.19,0,5.68-7.79,2-9.52" />
      <path class="BUNTAI_BEAR_JEWELRY_BEAR_JEWELRY_17_cls-12" d="M149.21,209.87l-.28-.14a20.19,20.19,0,0,1-8.62-12.39v0l-.09-.48a13,13,0,0,1,1.58-8.49c5.19-9.25,10.63-23.54,8.27-31.24,0,0,0,0,0,0a8.35,8.35,0,0,0-.67-1.62c-.15-.28-.3-.56-.44-.86a0,0,0,0,1,0,0c-2.86-5.77-4.49-13.88-5-16.82" />
      <path class="BUNTAI_BEAR_JEWELRY_BEAR_JEWELRY_17_cls-12" d="M140.44,138.28a4.11,4.11,0,1,1,3.48-.5,4,4,0,0,1-2.26.68A4.14,4.14,0,0,1,140.44,138.28Z" />
      <path class="BUNTAI_BEAR_JEWELRY_BEAR_JEWELRY_17_cls-12" d="M143.92,134.35a2.26,2.26,0,1,1-2.26-2.25A2.26,2.26,0,0,1,143.92,134.35Z" />
      <g class="BUNTAI_BEAR_JEWELRY_BEAR_JEWELRY_17_cls-13">
        <path d="M137.56,134.85s1.39,2.91,3.26,3.52c.76,4.28,1.05,5.29,1.05,5.29a34.33,34.33,0,0,1-3.76,8.66,28.66,28.66,0,0,0-3,5.54s7.73-3.35,8.51-9c1.76,4.17,4.67,7.45,4.58,12.05a68.5,68.5,0,0,1-.48,7.39,17.79,17.79,0,0,1-6,3.87c-3.45,1.22-5.57,2-5.57,2a6.32,6.32,0,0,0,6.12.69,11.61,11.61,0,0,0,4.83-3.38s-2.8,12.84-4.88,16.25a19.31,19.31,0,0,1-2.55,2.39s-6.94,4.68-10.78,5.32c3.49,1,9.11.24,10.95-3.26.31,3.37-.87,13.38,11.18,9.4a90.84,90.84,0,0,1-9.9-5.09s-2.11-2.19-.2-6.08c4.28-7.84,5.52-10.09,5.52-10.09s-1.07,8.11,10.29,6.92c-5-3.33-9.49-6.08-10-8.06,2-6.17,4.19-9.25,4-15l-.23-5.78s2.64,5.48,13.41,1.35c-8.69-2.84-12.48-3.09-14.9-5.21-2.41-6.25-5.43-15.71-5.26-16.54s2.41-2.18,2.13-4.34C143.68,136.71,142.05,139.16,137.56,134.85Z" />
      </g>
      <line class="BUNTAI_BEAR_JEWELRY_BEAR_JEWELRY_17_cls-14" x1="141.6" y1="129.95" x2="141.6" y2="123.74" />
      <path class="BUNTAI_BEAR_JEWELRY_BEAR_JEWELRY_17_cls-2" d="M321.45,127c2.21,0,1.84-3,1.84-3h0a6,6,0,0,1-2.71.57,2.55,2.55,0,0,1-1.21-.3C319.37,124.45,319.32,127,321.45,127Z" />
      <path class="BUNTAI_BEAR_JEWELRY_BEAR_JEWELRY_17_cls-2" d="M317.66,115.15c-.81,2.69-.64,7.83,1.71,9.12a2.55,2.55,0,0,0,1.21.3,6,6,0,0,0,2.71-.57c2-1,3-3.27,2.91-6.75a11.51,11.51,0,0,0-.62-3.39,7.3,7.3,0,0,0-2-3.06,2.54,2.54,0,0,0-1.81-.75,3.05,3.05,0,0,0-2.19,1.3,5.19,5.19,0,0,0,1,.18h.06a5.58,5.58,0,0,1,2.47,3.8c.62,3-.41,6.27-1.91,6.27-1.66,0-1.68-3.85-1.58-5.89l-.12,0A7.36,7.36,0,0,1,317.66,115.15Z" />
      <path class="BUNTAI_BEAR_JEWELRY_BEAR_JEWELRY_17_cls-2" d="M324.22,100.75c-.84-.34-4.42-.63-4.49-.21s1.19,2.12,1.1,2.46a11.85,11.85,0,0,1,2.6,1.48s2.7,2.34,1.15,5.23a3.1,3.1,0,0,1-1,1.09,7.3,7.3,0,0,1,2,3.06C329.16,110.69,330.12,104.39,324.22,100.75Z" />
      <path class="BUNTAI_BEAR_JEWELRY_BEAR_JEWELRY_17_cls-2" d="M314.11,110.38a6.41,6.41,0,0,0,3.55,4.77,7,7,0,0,0,1.84.55l.13,0a6.9,6.9,0,0,0,3.48-.36,5.59,5.59,0,0,0-2.47-3.82h-.06a5.19,5.19,0,0,1-1-.18,2.87,2.87,0,0,1-2.05-1.79,2.29,2.29,0,0,1-.12-.76c0-3.14,1.23-3.29,1.23-3.29a4.34,4.34,0,0,0,.15-.42,4,4,0,0,0-3.13-2.64A10.7,10.7,0,0,0,314.11,110.38Z" />
      <path class="BUNTAI_BEAR_JEWELRY_BEAR_JEWELRY_17_cls-3" d="M325.58,113.86c3.58-3.17,4.54-9.47-1.36-13.11-.79-.38-1.75-.86-5.49,0a4.79,4.79,0,0,1,2.36,2.56,4.12,4.12,0,0,1,2.34,1.17s2.7,2.34,1.15,5.23a3.1,3.1,0,0,1-1,1.09" />
      <path class="BUNTAI_BEAR_JEWELRY_BEAR_JEWELRY_17_cls-3" d="M323.11,115.36a6.9,6.9,0,0,1-3.48.36l-.13,0a7,7,0,0,1-1.84-.55,6.41,6.41,0,0,1-3.55-4.77,10.7,10.7,0,0,1,1.58-7.93" />
      <path class="BUNTAI_BEAR_JEWELRY_BEAR_JEWELRY_17_cls-3" d="M318.82,105.09a4.34,4.34,0,0,1-.15.42s-1.19.15-1.23,3.29a2.29,2.29,0,0,0,.12.76,2.87,2.87,0,0,0,2.05,1.79,4.49,4.49,0,0,0,1,.18" />
      <path class="BUNTAI_BEAR_JEWELRY_BEAR_JEWELRY_17_cls-3" d="M317.66,115.15c-.81,2.69-.64,7.83,1.71,9.12a2.55,2.55,0,0,0,1.21.3,6,6,0,0,0,2.71-.57c2-1,3-3.27,2.91-6.75a11.51,11.51,0,0,0-.62-3.39,7.3,7.3,0,0,0-2-3.06,2.54,2.54,0,0,0-1.81-.75,3.05,3.05,0,0,0-2.19,1.3" />
      <path class="BUNTAI_BEAR_JEWELRY_BEAR_JEWELRY_17_cls-3" d="M319.62,115.73c-.1,2-.08,5.89,1.58,5.89,1.5,0,2.53-3.31,1.91-6.27a5.58,5.58,0,0,0-2.47-3.8h-.06" />
      <path class="BUNTAI_BEAR_JEWELRY_BEAR_JEWELRY_17_cls-3" d="M323.29,124s.37,3-1.84,3-2.08-2.57-2.08-2.75h0" />
      <path class="BUNTAI_BEAR_JEWELRY_BEAR_JEWELRY_17_cls-3" d="M318.59,108.31a4.08,4.08,0,0,0,.46-1.88,3.93,3.93,0,0,0-.23-1.34,4,4,0,0,0-3.13-2.64,3.85,3.85,0,0,0-.69-.06,2.77,2.77,0,0,0-2.74,2" />
      <path class="BUNTAI_BEAR_JEWELRY_BEAR_JEWELRY_17_cls-4" d="M316.2,199.41c-2.54,1.14-4.53,5.63-4.53,5.63s4.67,1.49,7.21.35c2-.9,3.14-3.65,3.53-4.77v0l.09-.48C322,199.89,318.54,198.35,316.2,199.41Z" />
      <path class="BUNTAI_BEAR_JEWELRY_BEAR_JEWELRY_17_cls-5" d="M322.94,193.46s.94,4.16,3.42,5.42,7.23,0,7.23,0-1.78-4.58-4.25-5.84S322.94,193.46,322.94,193.46Z" />
      <path class="BUNTAI_BEAR_JEWELRY_BEAR_JEWELRY_17_cls-6" d="M309.43,183.44c-2.48,1.79-3.63,7.05-3.63,7.05s5.36.58,7.83-1.21,2.8-6.45,2.8-6.45S311.91,181.66,309.43,183.44Z" />
      <path class="BUNTAI_BEAR_JEWELRY_BEAR_JEWELRY_17_cls-7" d="M315.08,171.87s0,.06,0,.09h0c.28,1.05,1.37,4.48,3.67,5.65,2.73,1.38,7.93,0,7.93,0s-1.94-5-4.66-6.41-6.67.32-7,.46h0A1.77,1.77,0,0,0,315.08,171.87Z" />
      <path class="BUNTAI_BEAR_JEWELRY_BEAR_JEWELRY_17_cls-8" d="M305.37,156.28c-3.53,1.28-6.65,7.1-6.65,7.1s6.13,2.48,9.65,1.21c1.91-.69,3.36-2.6,4.28-4.2v0a8.35,8.35,0,0,1,.67-1.62c.15-.28.3-.56.44-.86C313.2,157.56,308.66,155.09,305.37,156.28Z" />
      <path class="BUNTAI_BEAR_JEWELRY_BEAR_JEWELRY_17_cls-9" d="M320.82,147s0,0,0,0c-.24.83-.52,1.72-.82,2.63,0,0,0,0,0,0a9,9,0,0,0,.26,5.81c1.67,3.35,7.82,5.77,7.82,5.77s1.75-6.37.07-9.72-7.27-4.65-7.27-4.65l0,.07Z" />
      <path class="BUNTAI_BEAR_JEWELRY_BEAR_JEWELRY_17_cls-10" d="M312.65,160.39c-2.36,7.7,3.08,22,8.27,31.24a13,13,0,0,1,1.58,8.49l.06,0s-.05.17-.15.45v0A20.19,20.19,0,0,1,313.79,213c3.88-2.08,13.16-11.69,8.21-21.38A75.77,75.77,0,0,1,315.1,172h0a2.35,2.35,0,0,1-.08-.29h0c-.9-5.15-.81-9.83,1-12.91a49.76,49.76,0,0,0,3.92-9s0,0,0,0a17.33,17.33,0,0,1,.82-2.63s0,0,0,0h0c.67-2.21,1.16-4.16,1.46-5.45a4.14,4.14,0,0,1-1.22.18,4,4,0,0,1-2.26-.68c-.53,2.94-2.16,11.05-5,16.82h0l.06,0a16.61,16.61,0,0,1-1.17,2.45Z" />
      <path class="BUNTAI_BEAR_JEWELRY_BEAR_JEWELRY_17_cls-11" d="M321.06,139.89a2.26,2.26,0,1,0-2.26-2.26A2.26,2.26,0,0,0,321.06,139.89Zm4.1-2.26a4.08,4.08,0,0,1-4.1,4.11,4,4,0,0,1-2.26-.68,4.1,4.1,0,1,1,6.36-3.43Z" />
      <path class="BUNTAI_BEAR_JEWELRY_BEAR_JEWELRY_17_cls-12" d="M320,149.7a17.33,17.33,0,0,1,.82-2.63" />
      <path class="BUNTAI_BEAR_JEWELRY_BEAR_JEWELRY_17_cls-12" d="M320.82,147l0-.07s5.59,1.3,7.27,4.65-.07,9.72-.07,9.72-6.15-2.42-7.82-5.77a9,9,0,0,1-.26-5.81" />
      <path class="BUNTAI_BEAR_JEWELRY_BEAR_JEWELRY_17_cls-12" d="M315,171.66c.33-.14,4.39-1.78,7-.46s4.66,6.41,4.66,6.41-5.2,1.39-7.93,0c-2.3-1.17-3.39-4.6-3.67-5.65" />
      <path class="BUNTAI_BEAR_JEWELRY_BEAR_JEWELRY_17_cls-12" d="M315.1,172a2.35,2.35,0,0,1-.08-.29h0" />
      <path class="BUNTAI_BEAR_JEWELRY_BEAR_JEWELRY_17_cls-12" d="M322.94,193.46s3.92-1.68,6.4-.42,4.25,5.84,4.25,5.84-4.75,1.26-7.23,0S322.94,193.46,322.94,193.46Z" />
      <path class="BUNTAI_BEAR_JEWELRY_BEAR_JEWELRY_17_cls-12" d="M322.41,200.62c-.39,1.12-1.52,3.87-3.53,4.77-2.54,1.14-7.21-.35-7.21-.35s2-4.49,4.53-5.63c2.34-1.06,5.8.48,6.3.71l.06,0s-.05.17-.15.45" />
      <path class="BUNTAI_BEAR_JEWELRY_BEAR_JEWELRY_17_cls-12" d="M316.43,182.83s-.32,4.67-2.8,6.45-7.83,1.21-7.83,1.21,1.15-5.26,3.63-7.05S316.43,182.83,316.43,182.83Z" />
      <path class="BUNTAI_BEAR_JEWELRY_BEAR_JEWELRY_17_cls-12" d="M312.65,160.39c-.92,1.6-2.37,3.51-4.28,4.2-3.52,1.27-9.65-1.21-9.65-1.21s3.12-5.82,6.65-7.1c3.29-1.19,7.83,1.28,8.4,1.61l.06,0a16.61,16.61,0,0,1-1.17,2.45" />
      <path class="BUNTAI_BEAR_JEWELRY_BEAR_JEWELRY_17_cls-12" d="M313.79,213c3.88-2.08,13.16-11.69,8.21-21.38A75.77,75.77,0,0,1,315.1,172h0s0-.06,0-.09a1.77,1.77,0,0,1,0-.2h0c-.9-5.15-.81-9.83,1-12.91a49.76,49.76,0,0,0,3.92-9s0,0,0,0c.3-.91.58-1.8.82-2.63,0,0,0,0,0,0h0c.67-2.21,1.16-4.16,1.46-5.45h0" />
      <path class="BUNTAI_BEAR_JEWELRY_BEAR_JEWELRY_17_cls-12" d="M316.25,217.38c3.34,1.94-3.08,3.49-2.55,0,3.08-6.69,10.55,4.81,1.81,5.31-5.19,0-5.68-7.79-2-9.52" />
      <path class="BUNTAI_BEAR_JEWELRY_BEAR_JEWELRY_17_cls-12" d="M313.51,213.15l.28-.14a20.19,20.19,0,0,0,8.62-12.39v0l.09-.48a13,13,0,0,0-1.58-8.49c-5.19-9.25-10.63-23.54-8.27-31.24v0a8.35,8.35,0,0,1,.67-1.62c.15-.28.3-.56.44-.86h0c2.86-5.77,4.49-13.88,5-16.82" />
      <path class="BUNTAI_BEAR_JEWELRY_BEAR_JEWELRY_17_cls-12" d="M322.28,141.56a4.11,4.11,0,1,0-3.48-.5,4,4,0,0,0,2.26.68A4.14,4.14,0,0,0,322.28,141.56Z" />
      <path class="BUNTAI_BEAR_JEWELRY_BEAR_JEWELRY_17_cls-12" d="M318.8,137.63a2.26,2.26,0,1,0,2.26-2.25A2.26,2.26,0,0,0,318.8,137.63Z" />
      <g class="BUNTAI_BEAR_JEWELRY_BEAR_JEWELRY_17_cls-13">
        <path d="M325.16,138.13s-1.38,2.9-3.25,3.52c-.77,4.27-1.06,5.29-1.06,5.29a34.49,34.49,0,0,0,3.76,8.66,27.86,27.86,0,0,1,3,5.54s-7.72-3.35-8.5-9c-1.77,4.18-4.68,7.46-4.59,12.06a72.24,72.24,0,0,0,.48,7.39,18,18,0,0,0,6,3.87c3.46,1.22,5.57,2,5.57,2a6.31,6.31,0,0,1-6.12.69,11.61,11.61,0,0,1-4.83-3.38s2.8,12.84,4.89,16.25a19.09,19.09,0,0,0,2.54,2.39s6.94,4.68,10.79,5.32c-3.5,1-9.11.24-11-3.26-.31,3.37.88,13.37-11.18,9.39a92,92,0,0,0,9.9-5.08s2.12-2.19.21-6.08c-4.28-7.85-5.53-10.09-5.53-10.09s1.07,8.1-10.29,6.92c5-3.34,9.5-6.08,10-8.06-2-6.17-4.19-9.25-4-15l.24-5.78s-2.64,5.48-13.41,1.35c8.69-2.84,12.47-3.1,14.89-5.21,2.42-6.26,5.44-15.71,5.27-16.55s-2.42-2.17-2.14-4.33C319,140,320.67,142.44,325.16,138.13Z" />
      </g>
      <line class="BUNTAI_BEAR_JEWELRY_BEAR_JEWELRY_17_cls-14" x1="321.12" y1="133.23" x2="321.12" y2="127.02" />
      <circle class="BUNTAI_BEAR_JEWELRY_BEAR_JEWELRY_17_cls-15" cx="258.24" cy="188.2" r="2.6" />
      <circle class="BUNTAI_BEAR_JEWELRY_BEAR_JEWELRY_17_cls-15" cx="276.34" cy="188.2" r="2.6" />
      <path class="BUNTAI_BEAR_JEWELRY_BEAR_JEWELRY_17_cls-16" d="M227,395.79a15.74,15.74,0,0,1,12.87,12.15,15.51,15.51,0,0,1-12.38,18.3,15.91,15.91,0,0,1-18.79-12.05,15.43,15.43,0,0,1,10.46-17.79,60.06,60.06,0,0,0,.81,8.94l-3.51.7,2.67,12.64,13-2.6-2.68-12.64-3.28.66A38.14,38.14,0,0,0,227,395.79Z" />
      <path class="BUNTAI_BEAR_JEWELRY_BEAR_JEWELRY_17_cls-17" d="M229.86,392a19.7,19.7,0,0,1-1.45,38.48,20.32,20.32,0,0,1-24-15.41,19.8,19.8,0,0,1,15-23.22,7.46,7.46,0,0,0-.22,1.9c0,.68,0,1.61,0,2.66a15.43,15.43,0,0,0-10.46,17.79,15.91,15.91,0,0,0,18.79,12.05,15.51,15.51,0,0,0,12.38-18.3A15.74,15.74,0,0,0,227,395.79c0-.78,0-1.6-.09-2.44a15.66,15.66,0,0,0-.13-2A20.82,20.82,0,0,1,229.86,392Z" />
      <path class="BUNTAI_BEAR_JEWELRY_BEAR_JEWELRY_17_cls-18" d="M229.86,392a19.36,19.36,0,0,0-3.05-.6,14.06,14.06,0,0,1,.13,2c.06.84.08,1.66.09,2.44a37.9,37.9,0,0,1-.85,8.3,23.58,23.58,0,0,1-1.37,4.45c-.62.78-1.36.61-1.86-.51a1.52,1.52,0,0,1-.14-.5c-.59.39-1.71.85-2.42-.85a7.75,7.75,0,0,1-.39-1.35,59.85,59.85,0,0,1-.82-8.93c0-1,0-2,0-2.66a7.37,7.37,0,0,1,.23-1.9,4.62,4.62,0,0,1,.6-1.47,4.64,4.64,0,0,1-.22-1,3.58,3.58,0,0,1,0-.48,2.53,2.53,0,0,1,0-.55,4.3,4.3,0,0,1,.05-.61A1.91,1.91,0,0,1,220,387a2.61,2.61,0,0,1,.19-.27l0-.06a1.8,1.8,0,0,1,.19-.2l.31-.26a2,2,0,0,1,.32-.18,2.11,2.11,0,0,1,.34-.16l.36-.12-1.41-6.66a2.11,2.11,0,0,1,.26-1.52,2.29,2.29,0,0,1,1.46-1,2.22,2.22,0,0,1,1.65.31,2.33,2.33,0,0,1,.6.57h0a2.15,2.15,0,0,1,.34.79L226.3,386A5,5,0,0,1,229.86,392Z" />
      <path class="BUNTAI_BEAR_JEWELRY_BEAR_JEWELRY_17_cls-19" d="M226.81,391.39a20.82,20.82,0,0,1,3.05.6,19.7,19.7,0,0,1-1.45,38.48,20.32,20.32,0,0,1-24-15.41,19.8,19.8,0,0,1,15-23.22" />
      <path class="BUNTAI_BEAR_JEWELRY_BEAR_JEWELRY_17_cls-19" d="M227,395.79a15.74,15.74,0,0,1,12.87,12.15,15.51,15.51,0,0,1-12.38,18.3,15.91,15.91,0,0,1-18.79-12.05,15.43,15.43,0,0,1,10.46-17.79" />
      <polyline class="BUNTAI_BEAR_JEWELRY_BEAR_JEWELRY_17_cls-19" points="226.18 404.1 229.46 403.44 232.14 416.08 219.16 418.68 216.49 406.04 220 405.34" />
      <path class="BUNTAI_BEAR_JEWELRY_BEAR_JEWELRY_17_cls-19" d="M222.81,407.53a1.81,1.81,0,0,0,.14.5c.5,1.12,1.24,1.29,1.86.52a23,23,0,0,0,1.37-4.45,38.14,38.14,0,0,0,.85-8.31c0-.78,0-1.6-.09-2.44a15.66,15.66,0,0,0-.13-2c-.22-1.5-.73-1.79-1.63-1.95-.69-.14-1.08.07-1.41,1.34a39.21,39.21,0,0,0-.72,4.72C222.47,400.44,222.44,405.69,222.81,407.53Z" />
      <path class="BUNTAI_BEAR_JEWELRY_BEAR_JEWELRY_17_cls-19" d="M223.77,390.78c-.22-1.1-1.43-1.42-2.24-1.41a3,3,0,0,0-.49.06,2.14,2.14,0,0,0-1.06.93,4.78,4.78,0,0,0-.61,1.48,7.46,7.46,0,0,0-.22,1.9c0,.68,0,1.61,0,2.66a60.06,60.06,0,0,0,.81,8.94,9.28,9.28,0,0,0,.39,1.34c.71,1.71,1.84,1.24,2.42.85" />
      <path class="BUNTAI_BEAR_JEWELRY_BEAR_JEWELRY_17_cls-19" d="M221.53,389.37a12.89,12.89,0,0,1,1.26-1.69,6,6,0,0,1,1.84-1.46,2.83,2.83,0,0,1,.52-.21,2.47,2.47,0,0,1,1.15,0,5,5,0,0,1,3.56,6" />
      <path class="BUNTAI_BEAR_JEWELRY_BEAR_JEWELRY_17_cls-19" d="M224.63,386.21a3,3,0,0,0-2.88-.45,2.51,2.51,0,0,0-2,1.95,5.83,5.83,0,0,0,.21,2.65" />
      <path class="BUNTAI_BEAR_JEWELRY_BEAR_JEWELRY_17_cls-19" d="M226.3,386l-.85-4-.79-3.74a2.15,2.15,0,0,0-.34-.79" />
      <path class="BUNTAI_BEAR_JEWELRY_BEAR_JEWELRY_17_cls-19" d="M224.31,377.44a2.33,2.33,0,0,0-.6-.57,2.22,2.22,0,0,0-1.65-.31,2.29,2.29,0,0,0-1.46,1,2.11,2.11,0,0,0-.26,1.52l.69,3.26.72,3.4" />
      <line class="BUNTAI_BEAR_JEWELRY_BEAR_JEWELRY_17_cls-19" x1="224.32" y1="377.44" x2="224.31" y2="377.44" />
      <path class="BUNTAI_BEAR_JEWELRY_BEAR_JEWELRY_17_cls-20" d="M322.24,278.14c-4.45-.56-4.05.53-4.05.53l2.31,6.07c-12.59,28.82-39.24,66.35-97.85,86.64-56.37-13.52-84.44-52-98.07-82A141.55,141.55,0,0,1,119.35,276l2.91-4.38a5.06,5.06,0,0,0-5.79-1.91c-2.8.81-2.62,3.55-1.68,6.25l.18.5c1.68,4.68,3.59,9.51,5.81,14.39,14.05,30.94,43.05,70.73,101.49,84.51a1.53,1.53,0,0,0,.47.07,2.16,2.16,0,0,0,.68-.12c60.05-20.59,88.17-59.39,101.23-89a14.61,14.61,0,0,0,.81-1.83C326.22,281.84,325.52,278.55,322.24,278.14Z" />
      <path class="BUNTAI_BEAR_JEWELRY_BEAR_JEWELRY_17_cls-21" d="M218,370l2.76.73s2.88-1.57,4.06.64.63,3.81-.9,4.5-3.81.09-4.24-1.13a6,6,0,0,0-2.66-.58s1.11,4.16,4.8,4.52,5.95-1.87,6.31-4.82a5.08,5.08,0,0,0-3-5.37A5.71,5.71,0,0,0,218,370Z" />
      <path class="BUNTAI_BEAR_JEWELRY_BEAR_JEWELRY_17_cls-19" d="M216.9,374a5.56,5.56,0,0,0,5,4.81,5.44,5.44,0,0,0,.57,0,5.66,5.66,0,0,0,3.76-1.41,5.31,5.31,0,0,0,1.87-3.81,1.37,1.37,0,0,0,0-.29,5.48,5.48,0,0,0-1.27-3.5,5.76,5.76,0,0,0-4.38-2,5.67,5.67,0,0,0-4.6,2.32l2.8.74a3.06,3.06,0,0,1,1.8-.57,3,3,0,0,1,1.69.5,3,3,0,0,1,1.4,2.52,2.84,2.84,0,0,1-.34,1.34,3.11,3.11,0,0,1-5.47.09h0Z" />
    </g>
  </g>
</svg>