<svg id="Jewelry" xmlns="http://www.w3.org/2000/svg" viewBox="0 0 432 432">
  <defs>
    <style>.GUNDAN_TIGER_JEWELRY_TIGER_JEWELRY_3_cls-1,.GUNDAN_TIGER_JEWELRY_TIGER_JEWELRY_3_cls-4{fill:#dec96c;}.GUNDAN_TIGER_JEWELRY_TIGER_JEWELRY_3_cls-1,.GUNDAN_TIGER_JEWELRY_TIGER_JEWELRY_3_cls-2,.GUNDAN_TIGER_JEWELRY_TIGER_JEWELRY_3_cls-4{stroke:#000;stroke-width:1.12px;}.GUNDAN_TIGER_JEWELRY_TIGER_JEWELRY_3_cls-1,.GUNDAN_TIGER_JEWELRY_TIGER_JEWELRY_3_cls-2{stroke-miterlimit:10;}.GUNDAN_TIGER_JEWELRY_TIGER_JEWELRY_3_cls-2{fill:#be3f27;}.GUNDAN_TIGER_JEWELRY_TIGER_JEWELRY_3_cls-3{fill:#fff;}.GUNDAN_TIGER_JEWELRY_TIGER_JEWELRY_3_cls-4{stroke-linecap:round;stroke-linejoin:round;}</style>
  </defs>
  <path class="GUNDAN_TIGER_JEWELRY_TIGER_JEWELRY_3_cls-1" d="M128.74,114.07s-3.86.06-4.17,3.72,2.76,6.54,5.93,6,4.3-3.2,3.82-4.47a16.59,16.59,0,0,1-1.18-2.91,3.09,3.09,0,0,0-1.65,2.07c-.22,1.41-4.54,1.86-4.75.35s2.18-3.32,2.37-3.24A2,2,0,0,0,128.74,114.07Z" />
  <path class="GUNDAN_TIGER_JEWELRY_TIGER_JEWELRY_3_cls-2" d="M125.41,121.35a3,3,0,0,1,3-.27,3.94,3.94,0,0,1,1.86,2.79,2.32,2.32,0,0,1-3.08,2.11C124.32,125.34,124.42,122.75,125.41,121.35Z" />
  <path class="GUNDAN_TIGER_JEWELRY_TIGER_JEWELRY_3_cls-3" d="M127.42,122.17s1.16.91.89,1.87a2.16,2.16,0,0,1-.78,1.28s1.86-.56,1.65-1.91S127.42,122.17,127.42,122.17Z" />
  <path class="GUNDAN_TIGER_JEWELRY_TIGER_JEWELRY_3_cls-4" d="M132.35,114.86s2,2.4,2.79,7.78" />
  <path class="GUNDAN_TIGER_JEWELRY_TIGER_JEWELRY_3_cls-1" d="M304.05,114.62s3.72-1,5,2.42-.84,7-4,7.45-5-1.89-4.9-3.24a16.71,16.71,0,0,0,.33-3.12,3.1,3.1,0,0,1,2.16,1.54c.59,1.29,4.87.53,4.65-1s-3-2.59-3.17-2.47A2,2,0,0,1,304.05,114.62Z" />
  <path class="GUNDAN_TIGER_JEWELRY_TIGER_JEWELRY_3_cls-2" d="M309.26,120.69a3.09,3.09,0,0,0-3,.57,3.94,3.94,0,0,0-1,3.2,2.32,2.32,0,0,0,3.54,1.18C311.42,124.23,310.6,121.76,309.26,120.69Z" />
  <path class="GUNDAN_TIGER_JEWELRY_TIGER_JEWELRY_3_cls-3" d="M307.56,122s-.86,1.2-.34,2a2.22,2.22,0,0,0,1.11,1s-1.95,0-2.12-1.38S307.56,122,307.56,122Z" />
  <path class="GUNDAN_TIGER_JEWELRY_TIGER_JEWELRY_3_cls-4" d="M300.8,116.37s-1.28,2.87-.53,8.25" />
</svg>