<svg id="Jewelry" xmlns="http://www.w3.org/2000/svg" viewBox="0 0 432 432">
  <defs>
    <style>.GUNDAN_TIGER_JEWELRY_TIGER_JEWELRY_10_cls-1{fill:#afafaf;}.GUNDAN_TIGER_JEWELRY_TIGER_JEWELRY_10_cls-2{fill:#494949;}.GUNDAN_TIGER_JEWELRY_TIGER_JEWELRY_10_cls-11,.GUNDAN_TIGER_JEWELRY_TIGER_JEWELRY_10_cls-3{fill:#8c8c8c;}.GUNDAN_TIGER_JEWELRY_TIGER_JEWELRY_10_cls-14,.GUNDAN_TIGER_JEWELRY_TIGER_JEWELRY_10_cls-15,.GUNDAN_TIGER_JEWELRY_TIGER_JEWELRY_10_cls-4,.GUNDAN_TIGER_JEWELRY_TIGER_JEWELRY_10_cls-5{fill:none;}.GUNDAN_TIGER_JEWELRY_TIGER_JEWELRY_10_cls-11,.GUNDAN_TIGER_JEWELRY_TIGER_JEWELRY_10_cls-13,.GUNDAN_TIGER_JEWELRY_TIGER_JEWELRY_10_cls-14,.GUNDAN_TIGER_JEWELRY_TIGER_JEWELRY_10_cls-15,.GUNDAN_TIGER_JEWELRY_TIGER_JEWELRY_10_cls-4,.GUNDAN_TIGER_JEWELRY_TIGER_JEWELRY_10_cls-5{stroke:#000;}.GUNDAN_TIGER_JEWELRY_TIGER_JEWELRY_10_cls-11,.GUNDAN_TIGER_JEWELRY_TIGER_JEWELRY_10_cls-14,.GUNDAN_TIGER_JEWELRY_TIGER_JEWELRY_10_cls-15,.GUNDAN_TIGER_JEWELRY_TIGER_JEWELRY_10_cls-4,.GUNDAN_TIGER_JEWELRY_TIGER_JEWELRY_10_cls-5{stroke-linecap:round;}.GUNDAN_TIGER_JEWELRY_TIGER_JEWELRY_10_cls-11,.GUNDAN_TIGER_JEWELRY_TIGER_JEWELRY_10_cls-14,.GUNDAN_TIGER_JEWELRY_TIGER_JEWELRY_10_cls-4,.GUNDAN_TIGER_JEWELRY_TIGER_JEWELRY_10_cls-5{stroke-linejoin:round;}.GUNDAN_TIGER_JEWELRY_TIGER_JEWELRY_10_cls-4{stroke-width:0.79px;}.GUNDAN_TIGER_JEWELRY_TIGER_JEWELRY_10_cls-5{stroke-width:0.76px;}.GUNDAN_TIGER_JEWELRY_TIGER_JEWELRY_10_cls-6{fill:#214919;}.GUNDAN_TIGER_JEWELRY_TIGER_JEWELRY_10_cls-7{fill:#45793b;}.GUNDAN_TIGER_JEWELRY_TIGER_JEWELRY_10_cls-8{fill:#8cdd7d;}.GUNDAN_TIGER_JEWELRY_TIGER_JEWELRY_10_cls-9{fill:#c1c1c1;}.GUNDAN_TIGER_JEWELRY_TIGER_JEWELRY_10_cls-10{fill:#888d85;}.GUNDAN_TIGER_JEWELRY_TIGER_JEWELRY_10_cls-11{stroke-width:0.64px;}.GUNDAN_TIGER_JEWELRY_TIGER_JEWELRY_10_cls-12{fill:#84442d;}.GUNDAN_TIGER_JEWELRY_TIGER_JEWELRY_10_cls-13{fill:#009d61;stroke-width:1.53px;}.GUNDAN_TIGER_JEWELRY_TIGER_JEWELRY_10_cls-13,.GUNDAN_TIGER_JEWELRY_TIGER_JEWELRY_10_cls-15{stroke-miterlimit:10;}.GUNDAN_TIGER_JEWELRY_TIGER_JEWELRY_10_cls-14{stroke-width:1.4px;}.GUNDAN_TIGER_JEWELRY_TIGER_JEWELRY_10_cls-15{stroke-width:0.9px;}</style>
  </defs>
  <circle cx="236.82" cy="319.07" r="3.24" />
  <path d="M129.83,249.13l.9-4.11a5.53,5.53,0,0,0-4.62,1.54" />
  <path class="GUNDAN_TIGER_JEWELRY_TIGER_JEWELRY_10_cls-1" d="M187.11,302.25s-2.73-2.12-5.12-3.59c0,0,0,0,0,0a3.73,3.73,0,0,0,1.17-.94,3.19,3.19,0,0,0,.62-1.12,17.43,17.43,0,0,1,3.65,2.26,12.81,12.81,0,0,1,1,1A3.74,3.74,0,0,0,187.11,302.25Z" />
  <path class="GUNDAN_TIGER_JEWELRY_TIGER_JEWELRY_10_cls-1" d="M171.79,293.69c.51.93,4.75,3.58,7.4,3.41h0a2.11,2.11,0,0,0,1.57-.64,1.67,1.67,0,0,0,.47-1h.11s1.11.47,2.45,1.12a3.19,3.19,0,0,1-.62,1.12,3.73,3.73,0,0,1-1.17.94s0,0,0,0c-1.71.9-4.35.83-6.92-.35-3.27-1.5-5.66-3.28-5.58-5.2a3.78,3.78,0,0,1,1.38-2.42,6.2,6.2,0,0,1,1,1.23,1.56,1.56,0,0,0-.31,1.07A1.5,1.5,0,0,0,171.79,293.69Z" />
  <path class="GUNDAN_TIGER_JEWELRY_TIGER_JEWELRY_10_cls-1" d="M131.83,255a1.52,1.52,0,0,1-.65.82,3.4,3.4,0,0,1-3.05.5,1.78,1.78,0,0,1,.2-.72,2.1,2.1,0,0,1,.88-.84h0a5.38,5.38,0,0,0-.25-1.48,5.06,5.06,0,0,0-2.55,1.67s-.5-1.12-1.2-2.49l0,0c-.84-2.06-.28-5.67,2.45-6.47h0c2.77-.88,2,2.82,2.06,3,1.19,1.88,1.38,1.79,2.05,4A3.19,3.19,0,0,1,131.83,255Z" />
  <path class="GUNDAN_TIGER_JEWELRY_TIGER_JEWELRY_10_cls-2" d="M131.83,255a3.19,3.19,0,0,0-.09-2.12,12,12,0,0,1,5.68,4.46,6.39,6.39,0,0,1,1,3.41l-.27-.21a5.89,5.89,0,0,0-2.43-1.22A9,9,0,0,0,131.83,255Z" />
  <path class="GUNDAN_TIGER_JEWELRY_TIGER_JEWELRY_10_cls-1" d="M126.39,255a5,5,0,0,1,2.56-1.67,5.92,5.92,0,0,1,.25,1.48h0a2.09,2.09,0,0,0-.87.85,1.69,1.69,0,0,0-.2.71c0,.91,1.78,4.11,3.93,5.4a2.75,2.75,0,0,0,2.57.39,2.83,2.83,0,0,0,.78-.5c.21.14,1.09.72,2.09,1.46a4.37,4.37,0,0,1-1.4,1,4.72,4.72,0,0,1-1.29.4,7.1,7.1,0,0,1-6.26-2.83C126.44,259.13,125.29,256.64,126.39,255Z" />
  <path class="GUNDAN_TIGER_JEWELRY_TIGER_JEWELRY_10_cls-1" d="M134.81,264.51a4.72,4.72,0,0,0,1.29-.4,4.37,4.37,0,0,0,1.4-1h0a15.77,15.77,0,0,1,3.06,2.76c.34.46.6.84.81,1.16a4.15,4.15,0,0,0-1.94,2.16h0A53.57,53.57,0,0,0,134.81,264.51Z" />
  <path class="GUNDAN_TIGER_JEWELRY_TIGER_JEWELRY_10_cls-3" d="M134.63,262.13a2.75,2.75,0,0,1-2.57-.39,1.16,1.16,0,0,1,.18-1.27,3.47,3.47,0,0,1,3.45-1.13,5.89,5.89,0,0,1,2.43,1.22l.27.21v0c1.72,1.38,4.3,3.41,5.55,5.24a3.51,3.51,0,0,1,.79,2,1.5,1.5,0,0,1-.38.93,3.17,3.17,0,0,1-2.79,1.14,1.44,1.44,0,0,1,0-.71,1.76,1.76,0,0,1,.55-1h0a5.45,5.45,0,0,0-.71-1.36c-.21-.32-.47-.7-.81-1.16a15.77,15.77,0,0,0-3.06-2.76h0c-1-.74-1.88-1.32-2.09-1.46A2.83,2.83,0,0,1,134.63,262.13Z" />
  <path class="GUNDAN_TIGER_JEWELRY_TIGER_JEWELRY_10_cls-2" d="M158.69,280.45a3.19,3.19,0,0,0-.59-2.05h0a13.35,13.35,0,0,1,6.63,3.47,7,7,0,0,1,1.76,3.19,2.32,2.32,0,0,1-.32-.17,6.3,6.3,0,0,0-2.68-.8A10.06,10.06,0,0,0,158.69,280.45Z" />
  <path class="GUNDAN_TIGER_JEWELRY_TIGER_JEWELRY_10_cls-2" d="M149.62,271.06a10.6,10.6,0,0,0-4.88-3,3.51,3.51,0,0,0-.79-2,13.77,13.77,0,0,1,6.93,3,6.27,6.27,0,0,1,2.17,3.75l-.23-.21A5.14,5.14,0,0,0,149.62,271.06Z" />
  <path class="GUNDAN_TIGER_JEWELRY_TIGER_JEWELRY_10_cls-1" d="M149.62,276.78a8.43,8.43,0,0,1-5.92-1.62c-2.85-2-4.77-4.13-4.26-6a4.15,4.15,0,0,1,1.94-2.16,5.45,5.45,0,0,1,.71,1.36h0a1.76,1.76,0,0,0-.55,1,1.44,1.44,0,0,0,0,.71c.26.92,3.25,3.74,5.78,4.43,0,0,0,0,0,0a2.68,2.68,0,0,0,2.37-.29,1.8,1.8,0,0,0,.54-.57c.41.31,1.2.94,2,1.67v0a5.23,5.23,0,0,1-.49.45A4.33,4.33,0,0,1,149.62,276.78Z" />
  <path class="GUNDAN_TIGER_JEWELRY_TIGER_JEWELRY_10_cls-3" d="M147.37,274.54s0,0,0,0c-.77-.89-1-1.7-.38-2.41a3.52,3.52,0,0,1,2.65-1.06,5.14,5.14,0,0,1,3.2,1.53l.23.21h0a28.47,28.47,0,0,1,5,5.58h0a3.19,3.19,0,0,1,.59,2.05h0a1.51,1.51,0,0,1-.46.89,3.25,3.25,0,0,1-2.88,1,1.43,1.43,0,0,1,0-.72,1.94,1.94,0,0,1,.65-1,5.75,5.75,0,0,0-.59-1.42c-.17-.34-.41-.74-.69-1.21a13.42,13.42,0,0,0-2.45-2.65c-.83-.73-1.62-1.36-2-1.67a1.8,1.8,0,0,1-.54.57A2.68,2.68,0,0,1,147.37,274.54Z" />
  <path class="GUNDAN_TIGER_JEWELRY_TIGER_JEWELRY_10_cls-1" d="M152.31,275.35a13.42,13.42,0,0,1,2.45,2.65c.28.47.52.87.69,1.21a4.47,4.47,0,0,0-2.12,2s-1.89-2.53-3.71-4.47a4.33,4.33,0,0,0,2.19-1,5.23,5.23,0,0,0,.49-.45Z" />
  <path class="GUNDAN_TIGER_JEWELRY_TIGER_JEWELRY_10_cls-1" d="M155.36,282.32c.17.91,2.71,3.76,5.12,4.69a2.83,2.83,0,0,0,2.63,0,2.14,2.14,0,0,0,.63-.6c.23.09,1.24.5,2.41,1.08a3.9,3.9,0,0,1-1.13,1.24,4.08,4.08,0,0,1-1.19.57A7.54,7.54,0,0,1,157,287.5c-2.66-2.17-4.38-4.42-3.68-6.25a4.47,4.47,0,0,1,2.12-2,5.75,5.75,0,0,1,.59,1.42,1.94,1.94,0,0,0-.65,1A1.43,1.43,0,0,0,155.36,282.32Z" />
  <path class="GUNDAN_TIGER_JEWELRY_TIGER_JEWELRY_10_cls-1" d="M169.82,289.67c.42.39.77.71,1.05,1v0a3.78,3.78,0,0,0-1.38,2.42h0a61.34,61.34,0,0,0-5.65-3.83v0a4.08,4.08,0,0,0,1.19-.57,3.9,3.9,0,0,0,1.13-1.24A18.38,18.38,0,0,1,169.82,289.67Z" />
  <path class="GUNDAN_TIGER_JEWELRY_TIGER_JEWELRY_10_cls-3" d="M170.87,290.67c-.28-.29-.63-.61-1.05-1a18.38,18.38,0,0,0-3.67-2.22c-1.17-.58-2.18-1-2.41-1.08a2.14,2.14,0,0,1-.63.6,2.83,2.83,0,0,1-2.63,0,1.15,1.15,0,0,1-.11-1.28,3.2,3.2,0,0,1,3.12-1.65,6.3,6.3,0,0,1,2.68.8,2.32,2.32,0,0,0,.32.17,53.45,53.45,0,0,1,6.69,4.26l1.14,1.51c0,.11.07.23.1.34a1.43,1.43,0,0,1-.16,1,2.91,2.91,0,0,1-2.47,1.56,1.5,1.5,0,0,1-.2-.7,1.56,1.56,0,0,1,.31-1.07,6.2,6.2,0,0,0-1-1.23Z" />
  <path class="GUNDAN_TIGER_JEWELRY_TIGER_JEWELRY_10_cls-2" d="M179.91,293.33a11.85,11.85,0,0,0-5.49-2.17c0-.11-.06-.23-.1-.34l-1.14-1.51a14.69,14.69,0,0,1,7.51,1.88,8.05,8.05,0,0,1,2.67,2.57,5.07,5.07,0,0,0-3.05-.52A4,4,0,0,0,179.91,293.33Z" />
  <path class="GUNDAN_TIGER_JEWELRY_TIGER_JEWELRY_10_cls-3" d="M179.19,297.05c-1-.68-1.54-1.4-1.12-2.23a3,3,0,0,1,1.84-1.49,4,4,0,0,1,.4-.09,5.07,5.07,0,0,1,3.05.52,3.89,3.89,0,0,1,.5.25,1.69,1.69,0,0,1,.29.17h0a33.63,33.63,0,0,1,6.66,4.29h0a3.88,3.88,0,0,1,1.23,1.85,1.48,1.48,0,0,1-.16,1,3,3,0,0,1-2.49,1.55,1.45,1.45,0,0,1-.2-.71,1.64,1.64,0,0,1,.32-1.06v0a6.68,6.68,0,0,0-1-1.21,12.81,12.81,0,0,0-1-1,17.43,17.43,0,0,0-3.65-2.26c-1.34-.65-2.45-1.12-2.45-1.12h-.11a1.67,1.67,0,0,1-.47,1,2.11,2.11,0,0,1-1.57.64v0Z" />
  <path class="GUNDAN_TIGER_JEWELRY_TIGER_JEWELRY_10_cls-2" d="M198.34,300.4a7.83,7.83,0,0,1,2.7,2.69,3.58,3.58,0,0,1-.35-.09,6.8,6.8,0,0,0-2.85-.21,11.64,11.64,0,0,0-5.77-2.46,3.88,3.88,0,0,0-1.23-1.85A14.55,14.55,0,0,1,198.34,300.4Z" />
  <path class="GUNDAN_TIGER_JEWELRY_TIGER_JEWELRY_10_cls-1" d="M199.82,307.73c-1.73,1-4.49,1-7.16-.24-3.26-1.52-5.63-3.33-5.54-5.23h0a3.74,3.74,0,0,1,1.4-2.4,6.68,6.68,0,0,1,1,1.21v0a1.64,1.64,0,0,0-.32,1.06,1.45,1.45,0,0,0,.2.71c.46.83,3.81,3,6.44,3.41a2.72,2.72,0,0,0,2.53-.59,2,2,0,0,0,.43-.72c.27,0,1.38.24,2.68.53a3.4,3.4,0,0,1-.71,1.42,4.13,4.13,0,0,1-.95.82Z" />
  <path class="GUNDAN_TIGER_JEWELRY_TIGER_JEWELRY_10_cls-1" d="M206.51,310.21s-3.75-1.62-6.67-2.49a4.13,4.13,0,0,0,.95-.82,3.4,3.4,0,0,0,.71-1.42,21.14,21.14,0,0,1,4.24,1.36c.55.28,1,.52,1.35.74A3.45,3.45,0,0,0,206.51,310.21Z" />
  <path class="GUNDAN_TIGER_JEWELRY_TIGER_JEWELRY_10_cls-3" d="M195.86,306.26a1.25,1.25,0,0,1-.52-1.2,2.84,2.84,0,0,1,2.5-2.27,6.8,6.8,0,0,1,2.85.21,3.58,3.58,0,0,0,.35.09h0a38.74,38.74,0,0,1,7.81,2.67,4.31,4.31,0,0,1,1.78,1.52,1.26,1.26,0,0,1,.18,1,2.6,2.6,0,0,1-1.9,2,1.66,1.66,0,0,1-.41-.63,1.46,1.46,0,0,1,0-1.1h0a7.5,7.5,0,0,0-1.38-1c-.36-.22-.8-.46-1.35-.74a21.14,21.14,0,0,0-4.24-1.36c-1.3-.29-2.41-.49-2.68-.53a2,2,0,0,1-.43.72A2.72,2.72,0,0,1,195.86,306.26Z" />
  <path class="GUNDAN_TIGER_JEWELRY_TIGER_JEWELRY_10_cls-3" d="M207.09,307.58a7.5,7.5,0,0,1,1.38,1h0a1.46,1.46,0,0,0,0,1.1,1.66,1.66,0,0,0,.41.63c1,1,8.36,3.28,9.59.74,1.37-2.85-5.62-4.17-7.87-3.73a4.31,4.31,0,0,0-1.78-1.52,15.18,15.18,0,0,1,7.89.2c3.81,1.3,5.35,3.62,4.47,5.71s-4,3.09-7.65,2.35-6.54-1.95-7.07-3.81h0A3.45,3.45,0,0,1,207.09,307.58Z" />
  <path class="GUNDAN_TIGER_JEWELRY_TIGER_JEWELRY_10_cls-4" d="M129.2,254.77a5.92,5.92,0,0,0-.25-1.48c-.09-.35-.22-.78-.39-1.3a11.24,11.24,0,0,0-1.63-2.78" />
  <path class="GUNDAN_TIGER_JEWELRY_TIGER_JEWELRY_10_cls-4" d="M126.39,255s-.5-1.12-1.2-2.49l0,0" />
  <path class="GUNDAN_TIGER_JEWELRY_TIGER_JEWELRY_10_cls-4" d="M127.62,246l2.53-.57c.09.12-.65,3.5-.56,3.64,1.2,1.7,1.48,1.69,2.15,3.86a3.19,3.19,0,0,1,.09,2.12,1.52,1.52,0,0,1-.65.82,3.4,3.4,0,0,1-3.05.5" />
  <path class="GUNDAN_TIGER_JEWELRY_TIGER_JEWELRY_10_cls-4" d="M129.2,254.78a2.09,2.09,0,0,0-.87.85,1.69,1.69,0,0,0-.2.71c0,.91,1.78,4.11,3.93,5.4a2.75,2.75,0,0,0,2.57.39,2.83,2.83,0,0,0,.78-.5" />
  <path class="GUNDAN_TIGER_JEWELRY_TIGER_JEWELRY_10_cls-4" d="M135.69,259.34a9,9,0,0,0-3.86-4.32" />
  <path class="GUNDAN_TIGER_JEWELRY_TIGER_JEWELRY_10_cls-4" d="M137.5,263.09a4.37,4.37,0,0,1-1.4,1,4.72,4.72,0,0,1-1.29.4,7.1,7.1,0,0,1-6.26-2.83c-2.11-2.55-3.26-5-2.16-6.72a5,5,0,0,1,2.56-1.67h0" />
  <path class="GUNDAN_TIGER_JEWELRY_TIGER_JEWELRY_10_cls-4" d="M138.39,260.77a6.39,6.39,0,0,0-1-3.41,12,12,0,0,0-5.68-4.46" />
  <path class="GUNDAN_TIGER_JEWELRY_TIGER_JEWELRY_10_cls-4" d="M142.09,268.37a5.45,5.45,0,0,0-.71-1.36c-.21-.32-.47-.7-.81-1.16a15.77,15.77,0,0,0-3.06-2.76h0c-1-.74-1.88-1.32-2.09-1.46l-.07,0" />
  <path class="GUNDAN_TIGER_JEWELRY_TIGER_JEWELRY_10_cls-4" d="M139.43,269.18a53.57,53.57,0,0,0-4.62-4.67" />
  <path class="GUNDAN_TIGER_JEWELRY_TIGER_JEWELRY_10_cls-4" d="M132.06,261.74a1.16,1.16,0,0,1,.18-1.27,3.47,3.47,0,0,1,3.45-1.13,5.89,5.89,0,0,1,2.43,1.22l.27.21v0c1.72,1.38,4.3,3.41,5.55,5.24a3.51,3.51,0,0,1,.79,2,1.5,1.5,0,0,1-.38.93,3.17,3.17,0,0,1-2.79,1.14" />
  <path class="GUNDAN_TIGER_JEWELRY_TIGER_JEWELRY_10_cls-4" d="M147.37,274.54a2.68,2.68,0,0,0,2.37-.29,1.8,1.8,0,0,0,.54-.57" />
  <path class="GUNDAN_TIGER_JEWELRY_TIGER_JEWELRY_10_cls-4" d="M142.09,268.38a1.76,1.76,0,0,0-.55,1,1.44,1.44,0,0,0,0,.71c.26.92,3.25,3.74,5.78,4.43" />
  <path class="GUNDAN_TIGER_JEWELRY_TIGER_JEWELRY_10_cls-4" d="M149.62,271.06a10.6,10.6,0,0,0-4.88-3h0" />
  <path class="GUNDAN_TIGER_JEWELRY_TIGER_JEWELRY_10_cls-4" d="M141.39,267h0a4.15,4.15,0,0,0-1.94,2.16c-.51,1.86,1.41,4,4.26,6a8.43,8.43,0,0,0,5.92,1.62,4.33,4.33,0,0,0,2.19-1,5.23,5.23,0,0,0,.49-.45" />
  <path class="GUNDAN_TIGER_JEWELRY_TIGER_JEWELRY_10_cls-4" d="M153.05,272.8a6.27,6.27,0,0,0-2.17-3.75,13.77,13.77,0,0,0-6.93-3h0" />
  <path class="GUNDAN_TIGER_JEWELRY_TIGER_JEWELRY_10_cls-4" d="M156,280.63a5.75,5.75,0,0,0-.59-1.42c-.17-.34-.41-.74-.69-1.21a13.42,13.42,0,0,0-2.45-2.65c-.83-.73-1.62-1.36-2-1.67l-.32-.24" />
  <path class="GUNDAN_TIGER_JEWELRY_TIGER_JEWELRY_10_cls-4" d="M153.33,281.25s-1.89-2.53-3.71-4.47" />
  <path class="GUNDAN_TIGER_JEWELRY_TIGER_JEWELRY_10_cls-4" d="M147.37,274.54s0,0,0,0c-.77-.89-1-1.7-.38-2.41a3.52,3.52,0,0,1,2.65-1.06,5.14,5.14,0,0,1,3.2,1.53l.23.21h0a28.47,28.47,0,0,1,5,5.58h0a3.19,3.19,0,0,1,.59,2.05h0a1.51,1.51,0,0,1-.46.89,3.25,3.25,0,0,1-2.88,1h0" />
  <path class="GUNDAN_TIGER_JEWELRY_TIGER_JEWELRY_10_cls-4" d="M156,280.63a1.94,1.94,0,0,0-.65,1,1.43,1.43,0,0,0,0,.72c.17.91,2.71,3.76,5.12,4.69a2.83,2.83,0,0,0,2.63,0,2.14,2.14,0,0,0,.63-.6" />
  <path class="GUNDAN_TIGER_JEWELRY_TIGER_JEWELRY_10_cls-4" d="M163.49,284.08a10.06,10.06,0,0,0-4.8-3.63" />
  <path class="GUNDAN_TIGER_JEWELRY_TIGER_JEWELRY_10_cls-4" d="M166.15,287.45a3.9,3.9,0,0,1-1.13,1.24,4.08,4.08,0,0,1-1.19.57A7.54,7.54,0,0,1,157,287.5c-2.66-2.17-4.38-4.42-3.68-6.25a4.47,4.47,0,0,1,2.12-2h0" />
  <path class="GUNDAN_TIGER_JEWELRY_TIGER_JEWELRY_10_cls-4" d="M166.49,285.05a7,7,0,0,0-1.76-3.19,13.35,13.35,0,0,0-6.63-3.47" />
  <path class="GUNDAN_TIGER_JEWELRY_TIGER_JEWELRY_10_cls-4" d="M170.87,290.67c-.28-.29-.63-.61-1.05-1a18.38,18.38,0,0,0-3.67-2.22c-1.17-.58-2.18-1-2.41-1.08l-.05,0" />
  <path class="GUNDAN_TIGER_JEWELRY_TIGER_JEWELRY_10_cls-4" d="M171.9,291.92a6.2,6.2,0,0,0-1-1.23" />
  <path class="GUNDAN_TIGER_JEWELRY_TIGER_JEWELRY_10_cls-4" d="M169.48,293.11a61.34,61.34,0,0,0-5.65-3.83" />
  <path class="GUNDAN_TIGER_JEWELRY_TIGER_JEWELRY_10_cls-4" d="M160.48,287a1.15,1.15,0,0,1-.11-1.28,3.2,3.2,0,0,1,3.12-1.65,6.3,6.3,0,0,1,2.68.8,2.32,2.32,0,0,0,.32.17,53.45,53.45,0,0,1,6.69,4.26l1.14,1.51c0,.11.07.23.1.34a1.43,1.43,0,0,1-.16,1,2.91,2.91,0,0,1-2.47,1.56" />
  <path class="GUNDAN_TIGER_JEWELRY_TIGER_JEWELRY_10_cls-4" d="M174.41,291.17h0a11.85,11.85,0,0,1,5.49,2.17" />
  <path class="GUNDAN_TIGER_JEWELRY_TIGER_JEWELRY_10_cls-4" d="M181.26,295.44a1.67,1.67,0,0,1-.47,1,2.11,2.11,0,0,1-1.57.64h0c-2.65.17-6.89-2.48-7.4-3.41a1.5,1.5,0,0,1-.2-.7,1.56,1.56,0,0,1,.31-1.07" />
  <path class="GUNDAN_TIGER_JEWELRY_TIGER_JEWELRY_10_cls-4" d="M173.16,289.32h0a14.69,14.69,0,0,1,7.51,1.88,8.05,8.05,0,0,1,2.67,2.57" />
  <path class="GUNDAN_TIGER_JEWELRY_TIGER_JEWELRY_10_cls-4" d="M183.82,296.57a3.19,3.19,0,0,1-.62,1.12,3.73,3.73,0,0,1-1.17.94s0,0,0,0c-1.71.9-4.35.83-6.92-.35-3.27-1.5-5.66-3.28-5.58-5.2a3.78,3.78,0,0,1,1.38-2.42v0" />
  <path class="GUNDAN_TIGER_JEWELRY_TIGER_JEWELRY_10_cls-4" d="M181.37,295.45s1.11.47,2.45,1.12a17.43,17.43,0,0,1,3.65,2.26,12.81,12.81,0,0,1,1,1,6.68,6.68,0,0,1,1,1.21" />
  <path class="GUNDAN_TIGER_JEWELRY_TIGER_JEWELRY_10_cls-4" d="M187.11,302.25s-2.73-2.12-5.12-3.59" />
  <path class="GUNDAN_TIGER_JEWELRY_TIGER_JEWELRY_10_cls-4" d="M189.4,302.85h0a3,3,0,0,0,2.49-1.55,1.48,1.48,0,0,0,.16-1,3.88,3.88,0,0,0-1.23-1.85h0a33.63,33.63,0,0,0-6.66-4.29h0a1.69,1.69,0,0,0-.29-.17,3.89,3.89,0,0,0-.5-.25,5.07,5.07,0,0,0-3.05-.52,4,4,0,0,0-.4.09,3,3,0,0,0-1.84,1.49c-.42.83.1,1.55,1.12,2.23h0" />
  <path class="GUNDAN_TIGER_JEWELRY_TIGER_JEWELRY_10_cls-4" d="M189.54,301.08a1.64,1.64,0,0,0-.32,1.06,1.45,1.45,0,0,0,.2.71c.46.83,3.81,3,6.44,3.41a2.72,2.72,0,0,0,2.53-.59,2,2,0,0,0,.43-.72" />
  <path class="GUNDAN_TIGER_JEWELRY_TIGER_JEWELRY_10_cls-4" d="M197.84,302.79a11.64,11.64,0,0,0-5.77-2.46h0" />
  <path class="GUNDAN_TIGER_JEWELRY_TIGER_JEWELRY_10_cls-4" d="M199.82,307.73c-1.73,1-4.49,1-7.16-.24-3.26-1.52-5.63-3.33-5.54-5.23h0a3.74,3.74,0,0,1,1.4-2.4v0" />
  <path class="GUNDAN_TIGER_JEWELRY_TIGER_JEWELRY_10_cls-4" d="M201.5,305.48a3.4,3.4,0,0,1-.71,1.42,4.13,4.13,0,0,1-.95.82" />
  <path class="GUNDAN_TIGER_JEWELRY_TIGER_JEWELRY_10_cls-4" d="M201,303.09a7.83,7.83,0,0,0-2.7-2.69,14.55,14.55,0,0,0-7.5-1.92h0" />
  <path class="GUNDAN_TIGER_JEWELRY_TIGER_JEWELRY_10_cls-4" d="M208.47,308.54a7.5,7.5,0,0,0-1.38-1c-.36-.22-.8-.46-1.35-.74a21.14,21.14,0,0,0-4.24-1.36c-1.3-.29-2.41-.49-2.68-.53l-.07,0" />
  <path class="GUNDAN_TIGER_JEWELRY_TIGER_JEWELRY_10_cls-4" d="M206.51,310.21s-3.75-1.62-6.67-2.49h0" />
  <path class="GUNDAN_TIGER_JEWELRY_TIGER_JEWELRY_10_cls-4" d="M195.86,306.26a1.25,1.25,0,0,1-.52-1.2,2.84,2.84,0,0,1,2.5-2.27,6.8,6.8,0,0,1,2.85.21,3.58,3.58,0,0,0,.35.09h0a38.74,38.74,0,0,1,7.81,2.67,4.31,4.31,0,0,1,1.78,1.52,1.26,1.26,0,0,1,.18,1,2.6,2.6,0,0,1-1.9,2" />
  <path class="GUNDAN_TIGER_JEWELRY_TIGER_JEWELRY_10_cls-4" d="M210.65,307.29c2.25-.44,9.24.88,7.87,3.73-1.23,2.54-8.6.24-9.59-.74a1.66,1.66,0,0,1-.41-.63,1.46,1.46,0,0,1,0-1.1" />
  <path class="GUNDAN_TIGER_JEWELRY_TIGER_JEWELRY_10_cls-4" d="M208.86,305.77h0a15.18,15.18,0,0,1,7.89.2c3.81,1.3,5.35,3.62,4.47,5.71s-4,3.09-7.65,2.35-6.54-1.95-7.07-3.81h0a3.45,3.45,0,0,1,.58-2.63" />
  <path class="GUNDAN_TIGER_JEWELRY_TIGER_JEWELRY_10_cls-4" d="M127.63,246h0c-2.73.8-3.29,4.41-2.45,6.47l0,0" />
  <path d="M301.29,264.32l-.9-4.11a5,5,0,0,1,4.29,1.59" />
  <path class="GUNDAN_TIGER_JEWELRY_TIGER_JEWELRY_10_cls-1" d="M241.32,309.78s3.12-1.44,5.73-2.38l0,0a3.59,3.59,0,0,1-.94-1.16,3.48,3.48,0,0,1-.36-1.22,18.76,18.76,0,0,0-4,1.4c-.49.28-.9.52-1.22.75A3.64,3.64,0,0,1,241.32,309.78Z" />
  <path class="GUNDAN_TIGER_JEWELRY_TIGER_JEWELRY_10_cls-1" d="M257.88,304.49c-.66.83-5.27,2.66-7.81,2l0,0a2,2,0,0,1-1.38-.93,1.65,1.65,0,0,1-.25-1.09h-.11s-1.16.23-2.58.58a3.48,3.48,0,0,0,.36,1.22,3.59,3.59,0,0,0,.94,1.16l0,0c1.47,1.24,4.06,1.7,6.79,1,3.48-.86,6.12-2.23,6.37-4.12a3.81,3.81,0,0,0-.93-2.61,6.58,6.58,0,0,0-1.2,1,1.57,1.57,0,0,1,.11,1.11A1.39,1.39,0,0,1,257.88,304.49Z" />
  <path class="GUNDAN_TIGER_JEWELRY_TIGER_JEWELRY_10_cls-1" d="M299.45,270.14a1.61,1.61,0,0,0,.62.83,3,3,0,0,0,2.86.57,2,2,0,0,0-.18-.72,2.05,2.05,0,0,0-.83-.86h0a5.58,5.58,0,0,1,.23-1.47,4.81,4.81,0,0,1,2.4,1.71s.47-1.12,1.1-2.48l0,0c.75-2.05.12-5.64-2.41-6.48h0c-2.57-.9-1.76,2.78-1.85,2.92a12.14,12.14,0,0,0-1.87,3.9A3.71,3.71,0,0,0,299.45,270.14Z" />
  <path class="GUNDAN_TIGER_JEWELRY_TIGER_JEWELRY_10_cls-2" d="M299.46,270.14a3.39,3.39,0,0,1,.09-2.12,11.29,11.29,0,0,0-5.36,4.24,6.65,6.65,0,0,0-1,3.35c.1-.07.18-.15.26-.2a5.35,5.35,0,0,1,2.32-1.11A8.58,8.58,0,0,1,299.46,270.14Z" />
  <path class="GUNDAN_TIGER_JEWELRY_TIGER_JEWELRY_10_cls-1" d="M304.56,270.18a4.77,4.77,0,0,0-2.41-1.7,5.65,5.65,0,0,0-.22,1.46v0a2.06,2.06,0,0,1,.82.86,1.73,1.73,0,0,1,.19.71c0,.91-1.69,4.09-3.76,5.31a2.49,2.49,0,0,1-2.45.29,2.41,2.41,0,0,1-.72-.53c-.21.13-1.06.67-2,1.37a4.18,4.18,0,0,0,1.29,1.08,4.36,4.36,0,0,0,1.22.45,6.46,6.46,0,0,0,6-2.62C304.54,274.37,305.61,271.87,304.56,270.18Z" />
  <path class="GUNDAN_TIGER_JEWELRY_TIGER_JEWELRY_10_cls-1" d="M296.48,279.5a4.36,4.36,0,0,1-1.22-.45A4.18,4.18,0,0,1,294,278h0a15.43,15.43,0,0,0-3,2.59c-.34.43-.61.8-.82,1.1a4.19,4.19,0,0,1,1.73,2.28h0A61.1,61.1,0,0,1,296.48,279.5Z" />
  <path class="GUNDAN_TIGER_JEWELRY_TIGER_JEWELRY_10_cls-3" d="M296.72,277.13a2.49,2.49,0,0,0,2.45-.29,1.25,1.25,0,0,0-.15-1.28,3.3,3.3,0,0,0-3.24-1.26,5.35,5.35,0,0,0-2.32,1.11c-.08,0-.16.13-.26.2h0a30.82,30.82,0,0,0-5.46,4.88,3.64,3.64,0,0,0-.86,1.94,1.52,1.52,0,0,0,.31.95,3,3,0,0,0,2.6,1.33,1.57,1.57,0,0,0,.06-.7,1.74,1.74,0,0,0-.47-1h0a5.16,5.16,0,0,1,.75-1.31c.21-.3.48-.67.82-1.1a15.43,15.43,0,0,1,3-2.59h0c1-.7,1.82-1.24,2-1.37A2.41,2.41,0,0,0,296.72,277.13Z" />
  <path class="GUNDAN_TIGER_JEWELRY_TIGER_JEWELRY_10_cls-2" d="M272.45,293.38a3.28,3.28,0,0,1,.8-1.95h0A13,13,0,0,0,266.5,294a7,7,0,0,0-2.13,2.89l.34-.12a6.12,6.12,0,0,1,2.68-.4A9.85,9.85,0,0,1,272.45,293.38Z" />
  <path class="GUNDAN_TIGER_JEWELRY_TIGER_JEWELRY_10_cls-2" d="M282,285.05a10.09,10.09,0,0,1,4.85-2.61,3.64,3.64,0,0,1,.86-1.94,12.93,12.93,0,0,0-6.74,2.43,6.23,6.23,0,0,0-2.36,3.51c.08-.07.17-.13.23-.19A4.75,4.75,0,0,1,282,285.05Z" />
  <path class="GUNDAN_TIGER_JEWELRY_TIGER_JEWELRY_10_cls-1" d="M281.55,290.73a7.74,7.74,0,0,0,5.84-1.1c2.89-1.77,4.87-3.81,4.47-5.7a4.19,4.19,0,0,0-1.73-2.28,5.16,5.16,0,0,0-.75,1.31h0a1.74,1.74,0,0,1,.47,1,1.57,1.57,0,0,1-.06.7c-.31.9-3.37,3.51-5.85,4h0a2.48,2.48,0,0,1-2.25-.49,1.76,1.76,0,0,1-.47-.63c-.42.28-1.23.83-2.09,1.47h0a5.17,5.17,0,0,0,.42.51A4.21,4.21,0,0,0,281.55,290.73Z" />
  <path class="GUNDAN_TIGER_JEWELRY_TIGER_JEWELRY_10_cls-3" d="M283.91,288.7h0c.8-.82,1.12-1.6.55-2.37a3.39,3.39,0,0,0-2.46-1.28,4.75,4.75,0,0,0-3.16,1.2c-.06.06-.15.12-.23.19h0a29.71,29.71,0,0,0-5.37,5h0a3.28,3.28,0,0,0-.8,1.95h0a1.5,1.5,0,0,0,.33.94,3.13,3.13,0,0,0,2.67,1.31,1.65,1.65,0,0,0,.05-.72,1.9,1.9,0,0,0-.52-1,6.34,6.34,0,0,1,.73-1.34c.2-.32.46-.69.78-1.12a13.58,13.58,0,0,1,2.61-2.37c.86-.64,1.67-1.19,2.09-1.47a1.76,1.76,0,0,0,.47.63A2.48,2.48,0,0,0,283.91,288.7Z" />
  <path class="GUNDAN_TIGER_JEWELRY_TIGER_JEWELRY_10_cls-1" d="M279.1,289.05a13.58,13.58,0,0,0-2.61,2.37c-.32.43-.58.8-.78,1.12a4.42,4.42,0,0,1,1.82,2.26s2.09-2.31,4-4.07a4.21,4.21,0,0,1-2-1.16,5.17,5.17,0,0,1-.42-.51Z" />
  <path class="GUNDAN_TIGER_JEWELRY_TIGER_JEWELRY_10_cls-1" d="M275.45,295.64c-.27.88-3.09,3.41-5.56,4a2.72,2.72,0,0,1-2.54-.41,2.06,2.06,0,0,1-.52-.69c-.24.06-1.27.33-2.49.72a4,4,0,0,0,.92,1.39,3.79,3.79,0,0,0,1.07.74c1.83.93,4.51.68,6.87-.82,2.89-1.83,4.8-3.88,4.33-5.78a4.42,4.42,0,0,0-1.82-2.26,6.34,6.34,0,0,0-.73,1.34,1.9,1.9,0,0,1,.52,1A1.65,1.65,0,0,1,275.45,295.64Z" />
  <path class="GUNDAN_TIGER_JEWELRY_TIGER_JEWELRY_10_cls-1" d="M260.47,300.88c-.48.31-.87.57-1.18.81h0a3.76,3.76,0,0,1,.93,2.61h0s3.42-1.85,6.09-2.91h0a3.79,3.79,0,0,1-1.07-.74,4,4,0,0,1-.92-1.39A17.81,17.81,0,0,0,260.47,300.88Z" />
  <path class="GUNDAN_TIGER_JEWELRY_TIGER_JEWELRY_10_cls-3" d="M259.29,301.69c.31-.24.7-.5,1.18-.81a17.81,17.81,0,0,1,3.87-1.61c1.22-.39,2.25-.66,2.49-.72a2.06,2.06,0,0,0,.52.69,2.72,2.72,0,0,0,2.54.41,1.18,1.18,0,0,0,.29-1.26,3.16,3.16,0,0,0-2.79-2.06,6.12,6.12,0,0,0-2.68.4l-.34.12a65.1,65.1,0,0,0-7.08,3.1l-1.35,1.29a3,3,0,0,0-.16.31,1.41,1.41,0,0,0,0,1,2.88,2.88,0,0,0,2.12,2,1.39,1.39,0,0,0,.31-.65,1.57,1.57,0,0,0-.11-1.11,6.58,6.58,0,0,1,1.2-1Z" />
  <path class="GUNDAN_TIGER_JEWELRY_TIGER_JEWELRY_10_cls-2" d="M250.11,302.64a11.69,11.69,0,0,1,5.67-1.09,3,3,0,0,1,.16-.31l1.35-1.29a14.77,14.77,0,0,0-7.52.45,8,8,0,0,0-3,2,5,5,0,0,1,3,.12A3,3,0,0,1,250.11,302.64Z" />
  <path class="GUNDAN_TIGER_JEWELRY_TIGER_JEWELRY_10_cls-3" d="M250.08,306.41c1.13-.47,1.77-1.07,1.52-2a3.17,3.17,0,0,0-1.85-2,5,5,0,0,0-3-.12l-.53.15-.31.1h0a36,36,0,0,0-7.28,2.68h0a3.81,3.81,0,0,0-1.59,1.5,1.54,1.54,0,0,0-.08,1,3,3,0,0,0,2,2.08,1.29,1.29,0,0,0,.35-.63,1.59,1.59,0,0,0-.07-1.11h0a7.07,7.07,0,0,1,1.26-.94c.32-.23.73-.47,1.22-.75a17.89,17.89,0,0,1,4-1.4c1.41-.36,2.58-.58,2.58-.58h.11a1.65,1.65,0,0,0,.25,1.09,2,2,0,0,0,1.38.93v0Z" />
  <path class="GUNDAN_TIGER_JEWELRY_TIGER_JEWELRY_10_cls-2" d="M231,305.3a7.89,7.89,0,0,0-3.24,1.87h.36a6.65,6.65,0,0,1,2.76.54,11.71,11.71,0,0,1,6.1-.94,3.81,3.81,0,0,1,1.59-1.5A14.76,14.76,0,0,0,231,305.3Z" />
  <path class="GUNDAN_TIGER_JEWELRY_TIGER_JEWELRY_10_cls-1" d="M227.74,311.92c1.38,1.47,4.06,2.15,7,1.61,3.54-.66,6.26-1.87,6.6-3.74h0a3.64,3.64,0,0,0-.81-2.64,7.07,7.07,0,0,0-1.26.94h0a1.59,1.59,0,0,1,.07,1.11,1.29,1.29,0,0,1-.35.63c-.64.7-4.41,2-7,1.72a2.65,2.65,0,0,1-2.27-1.22,1.85,1.85,0,0,1-.23-.8c-.27,0-1.38-.13-2.69-.2a3.3,3.3,0,0,0,.3,1.55,4.48,4.48,0,0,0,.69,1Z" />
  <path class="GUNDAN_TIGER_JEWELRY_TIGER_JEWELRY_10_cls-1" d="M220.66,312.43s4-.47,7.06-.51a4.48,4.48,0,0,1-.69-1,3.3,3.3,0,0,1-.3-1.55,22.37,22.37,0,0,0-4.4.12c-.59.11-1.08.21-1.48.32A3.4,3.4,0,0,1,220.66,312.43Z" />
  <path class="GUNDAN_TIGER_JEWELRY_TIGER_JEWELRY_10_cls-3" d="M231.92,311.55a1.23,1.23,0,0,0,.81-1,2.87,2.87,0,0,0-1.83-2.81,6.65,6.65,0,0,0-2.76-.54h-.38a42.29,42.29,0,0,0-8.09.37,4.31,4.31,0,0,0-2.11.92,1.2,1.2,0,0,0-.43.85,2.59,2.59,0,0,0,1.21,2.48,1.71,1.71,0,0,0,.57-.47,1.44,1.44,0,0,0,.35-1h0a7.47,7.47,0,0,1,1.58-.51c.4-.11.89-.21,1.48-.32a22.37,22.37,0,0,1,4.4-.12c1.31.07,2.42.17,2.69.2a1.85,1.85,0,0,0,.23.8A2.65,2.65,0,0,0,231.92,311.55Z" />
  <path class="GUNDAN_TIGER_JEWELRY_TIGER_JEWELRY_10_cls-5" d="M301.93,269.94a5.65,5.65,0,0,1,.22-1.46c.09-.35.2-.78.35-1.29a12.11,12.11,0,0,1,1.48-2.76" />
  <path class="GUNDAN_TIGER_JEWELRY_TIGER_JEWELRY_10_cls-5" d="M304.56,270.19s.47-1.12,1.1-2.48l0,0" />
  <path class="GUNDAN_TIGER_JEWELRY_TIGER_JEWELRY_10_cls-5" d="M303.27,261.2l-2.34-.61c-.08.12.66,3.5.58,3.64-1.08,1.67-1.35,1.65-2,3.79a3.54,3.54,0,0,0-.09,2.12,1.61,1.61,0,0,0,.62.83,3,3,0,0,0,2.86.57" />
  <path class="GUNDAN_TIGER_JEWELRY_TIGER_JEWELRY_10_cls-5" d="M301.92,270a2.06,2.06,0,0,1,.82.86,1.73,1.73,0,0,1,.19.71c0,.91-1.69,4.09-3.76,5.31a2.49,2.49,0,0,1-2.45.29,2.41,2.41,0,0,1-.72-.53" />
  <path class="GUNDAN_TIGER_JEWELRY_TIGER_JEWELRY_10_cls-5" d="M295.78,274.3a8.58,8.58,0,0,1,3.68-4.16" />
  <path class="GUNDAN_TIGER_JEWELRY_TIGER_JEWELRY_10_cls-5" d="M294,278a4.18,4.18,0,0,0,1.29,1.08,4.36,4.36,0,0,0,1.22.45,6.46,6.46,0,0,0,6-2.62c2-2.51,3.1-5,2.05-6.7a4.81,4.81,0,0,0-2.41-1.7h0" />
  <path class="GUNDAN_TIGER_JEWELRY_TIGER_JEWELRY_10_cls-5" d="M293.2,275.61a6.65,6.65,0,0,1,1-3.35,11.29,11.29,0,0,1,5.36-4.24" />
  <path class="GUNDAN_TIGER_JEWELRY_TIGER_JEWELRY_10_cls-5" d="M289.38,283a5.16,5.16,0,0,1,.75-1.31c.21-.3.48-.67.82-1.1a15.43,15.43,0,0,1,3-2.59h0c1-.7,1.82-1.24,2-1.37l.05,0" />
  <path class="GUNDAN_TIGER_JEWELRY_TIGER_JEWELRY_10_cls-5" d="M291.87,283.93a61.1,61.1,0,0,1,4.61-4.43" />
  <path class="GUNDAN_TIGER_JEWELRY_TIGER_JEWELRY_10_cls-5" d="M299.17,276.84a1.25,1.25,0,0,0-.15-1.28,3.3,3.3,0,0,0-3.24-1.26,5.35,5.35,0,0,0-2.32,1.11c-.08,0-.16.13-.26.2h0a30.82,30.82,0,0,0-5.46,4.88,3.64,3.64,0,0,0-.86,1.94,1.52,1.52,0,0,0,.31.95,3,3,0,0,0,2.6,1.33" />
  <path class="GUNDAN_TIGER_JEWELRY_TIGER_JEWELRY_10_cls-5" d="M283.91,288.7a2.48,2.48,0,0,1-2.25-.49,1.76,1.76,0,0,1-.47-.63" />
  <path class="GUNDAN_TIGER_JEWELRY_TIGER_JEWELRY_10_cls-5" d="M289.37,283a1.74,1.74,0,0,1,.47,1,1.57,1.57,0,0,1-.06.7c-.31.9-3.37,3.51-5.85,4" />
  <path class="GUNDAN_TIGER_JEWELRY_TIGER_JEWELRY_10_cls-5" d="M282,285.05a10.09,10.09,0,0,1,4.85-2.61h0" />
  <path class="GUNDAN_TIGER_JEWELRY_TIGER_JEWELRY_10_cls-5" d="M290.12,281.64h0a4.19,4.19,0,0,1,1.73,2.28c.4,1.89-1.57,3.92-4.47,5.7a7.74,7.74,0,0,1-5.84,1.1,4.21,4.21,0,0,1-2-1.16,5.17,5.17,0,0,1-.42-.51" />
  <path class="GUNDAN_TIGER_JEWELRY_TIGER_JEWELRY_10_cls-5" d="M278.63,286.44a6.23,6.23,0,0,1,2.36-3.51,12.93,12.93,0,0,1,6.74-2.43h0" />
  <path class="GUNDAN_TIGER_JEWELRY_TIGER_JEWELRY_10_cls-5" d="M275,293.88a6.34,6.34,0,0,1,.73-1.34c.2-.32.46-.69.78-1.12a13.58,13.58,0,0,1,2.61-2.37c.86-.64,1.67-1.19,2.09-1.47l.33-.2" />
  <path class="GUNDAN_TIGER_JEWELRY_TIGER_JEWELRY_10_cls-5" d="M277.53,294.8s2.09-2.31,4-4.07" />
  <path class="GUNDAN_TIGER_JEWELRY_TIGER_JEWELRY_10_cls-5" d="M283.91,288.7h0c.8-.82,1.12-1.6.55-2.37a3.39,3.39,0,0,0-2.46-1.28,4.75,4.75,0,0,0-3.16,1.2c-.06.06-.15.12-.23.19h0a29.71,29.71,0,0,0-5.37,5h0a3.28,3.28,0,0,0-.8,1.95h0a1.5,1.5,0,0,0,.33.94,3.13,3.13,0,0,0,2.67,1.31h0" />
  <path class="GUNDAN_TIGER_JEWELRY_TIGER_JEWELRY_10_cls-5" d="M275,293.88a1.9,1.9,0,0,1,.52,1,1.65,1.65,0,0,1-.05.72c-.27.88-3.09,3.41-5.56,4a2.72,2.72,0,0,1-2.54-.41,2.06,2.06,0,0,1-.52-.69" />
  <path class="GUNDAN_TIGER_JEWELRY_TIGER_JEWELRY_10_cls-5" d="M267.39,296.33a9.85,9.85,0,0,1,5.06-2.95" />
  <path class="GUNDAN_TIGER_JEWELRY_TIGER_JEWELRY_10_cls-5" d="M264.34,299.27a4,4,0,0,0,.92,1.39,3.79,3.79,0,0,0,1.07.74c1.83.93,4.51.68,6.87-.82,2.89-1.83,4.8-3.88,4.33-5.78a4.42,4.42,0,0,0-1.82-2.26h0" />
  <path class="GUNDAN_TIGER_JEWELRY_TIGER_JEWELRY_10_cls-5" d="M264.37,296.85A7,7,0,0,1,266.5,294a13,13,0,0,1,6.75-2.54" />
  <path class="GUNDAN_TIGER_JEWELRY_TIGER_JEWELRY_10_cls-5" d="M259.29,301.69c.31-.24.7-.5,1.18-.81a17.81,17.81,0,0,1,3.87-1.61c1.22-.39,2.25-.66,2.49-.72h.05" />
  <path class="GUNDAN_TIGER_JEWELRY_TIGER_JEWELRY_10_cls-5" d="M258.08,302.73a6.58,6.58,0,0,1,1.2-1" />
  <path class="GUNDAN_TIGER_JEWELRY_TIGER_JEWELRY_10_cls-5" d="M260.23,304.32s3.42-1.85,6.09-2.91" />
  <path class="GUNDAN_TIGER_JEWELRY_TIGER_JEWELRY_10_cls-5" d="M269.89,299.65a1.18,1.18,0,0,0,.29-1.26,3.16,3.16,0,0,0-2.79-2.06,6.12,6.12,0,0,0-2.68.4l-.34.12a65.1,65.1,0,0,0-7.08,3.1l-1.35,1.29a3,3,0,0,0-.16.31,1.41,1.41,0,0,0,0,1,2.88,2.88,0,0,0,2.12,2" />
  <path class="GUNDAN_TIGER_JEWELRY_TIGER_JEWELRY_10_cls-5" d="M255.79,301.55h0a11.69,11.69,0,0,0-5.67,1.09" />
  <path class="GUNDAN_TIGER_JEWELRY_TIGER_JEWELRY_10_cls-5" d="M248.41,304.42a1.65,1.65,0,0,0,.25,1.09,2,2,0,0,0,1.38.93l0,0c2.54.69,7.15-1.14,7.81-2a1.39,1.39,0,0,0,.31-.65,1.57,1.57,0,0,0-.11-1.11" />
  <path class="GUNDAN_TIGER_JEWELRY_TIGER_JEWELRY_10_cls-5" d="M257.3,300h0a14.77,14.77,0,0,0-7.52.45,8,8,0,0,0-3,2" />
  <path class="GUNDAN_TIGER_JEWELRY_TIGER_JEWELRY_10_cls-5" d="M245.72,305a3.48,3.48,0,0,0,.36,1.22,3.59,3.59,0,0,0,.94,1.16l0,0c1.47,1.24,4.06,1.7,6.79,1,3.48-.86,6.13-2.22,6.37-4.12a3.76,3.76,0,0,0-.93-2.61h0" />
  <path class="GUNDAN_TIGER_JEWELRY_TIGER_JEWELRY_10_cls-5" d="M248.3,304.41s-1.16.23-2.58.58a18.76,18.76,0,0,0-4,1.4c-.49.28-.9.52-1.22.75a7.07,7.07,0,0,0-1.26.94" />
  <path class="GUNDAN_TIGER_JEWELRY_TIGER_JEWELRY_10_cls-5" d="M241.32,309.78s3.12-1.44,5.73-2.38" />
  <path class="GUNDAN_TIGER_JEWELRY_TIGER_JEWELRY_10_cls-5" d="M239,309.84h0a3,3,0,0,1-2-2.08,1.54,1.54,0,0,1,.08-1,3.81,3.81,0,0,1,1.59-1.5h0a36,36,0,0,1,7.28-2.68h0l.31-.1.53-.15a5,5,0,0,1,3,.12,3.17,3.17,0,0,1,1.85,2c.25.89-.39,1.49-1.52,2h0" />
  <path class="GUNDAN_TIGER_JEWELRY_TIGER_JEWELRY_10_cls-5" d="M239.24,308.09a1.59,1.59,0,0,1,.07,1.11,1.29,1.29,0,0,1-.35.63c-.64.7-4.41,2-7,1.72a2.65,2.65,0,0,1-2.27-1.22,1.85,1.85,0,0,1-.23-.8" />
  <path class="GUNDAN_TIGER_JEWELRY_TIGER_JEWELRY_10_cls-5" d="M230.9,307.72a11.71,11.71,0,0,1,6.1-.94h0" />
  <path class="GUNDAN_TIGER_JEWELRY_TIGER_JEWELRY_10_cls-5" d="M227.74,311.92c1.38,1.47,4.06,2.15,7,1.61,3.54-.66,6.26-1.87,6.6-3.74h0a3.64,3.64,0,0,0-.81-2.64v0" />
  <path class="GUNDAN_TIGER_JEWELRY_TIGER_JEWELRY_10_cls-5" d="M226.73,309.33a3.3,3.3,0,0,0,.3,1.55,4.48,4.48,0,0,0,.69,1" />
  <path class="GUNDAN_TIGER_JEWELRY_TIGER_JEWELRY_10_cls-5" d="M227.78,307.17A7.89,7.89,0,0,1,231,305.3a14.76,14.76,0,0,1,7.57,0h0" />
  <path class="GUNDAN_TIGER_JEWELRY_TIGER_JEWELRY_10_cls-5" d="M227.74,311.92h0a61.14,61.14,0,0,0-7.06.67s.89-.6.68-2.94" />
  <path class="GUNDAN_TIGER_JEWELRY_TIGER_JEWELRY_10_cls-5" d="M231.92,311.55a1.23,1.23,0,0,0,.81-1,2.87,2.87,0,0,0-1.83-2.81,6.65,6.65,0,0,0-2.76-.54h-.38a42.29,42.29,0,0,0-8.09.37,4.31,4.31,0,0,0-2.11.92,1.2,1.2,0,0,0-.43.85,2.36,2.36,0,0,0,.85,2.33,5.88,5.88,0,0,0,1.29-1.36,7.47,7.47,0,0,1,1.58-.51c.4-.11.89-.21,1.48-.32a22.37,22.37,0,0,1,4.4-.12c1.31.07,2.42.17,2.69.2a.12.12,0,0,0,.07,0" />
  <path class="GUNDAN_TIGER_JEWELRY_TIGER_JEWELRY_10_cls-5" d="M303.26,261.2h0c2.53.84,3.16,4.43,2.41,6.48l0,0" />
  <ellipse cx="239.59" cy="334.56" rx="15.39" ry="15.49" />
  <polygon class="GUNDAN_TIGER_JEWELRY_TIGER_JEWELRY_10_cls-6" points="236.68 344.07 238.72 343.38 235.27 341.56 236.68 344.07" />
  <polygon class="GUNDAN_TIGER_JEWELRY_TIGER_JEWELRY_10_cls-7" points="240.46 343.38 243.91 341.56 242.51 344.07 240.46 343.38" />
  <polygon class="GUNDAN_TIGER_JEWELRY_TIGER_JEWELRY_10_cls-7" points="231.61 335.71 233.43 339.88 230.42 338.56 231.61 335.71" />
  <path class="GUNDAN_TIGER_JEWELRY_TIGER_JEWELRY_10_cls-6" d="M228.67,343a14,14,0,0,1-1.68-2.91l2.32-.83Z" />
  <path class="GUNDAN_TIGER_JEWELRY_TIGER_JEWELRY_10_cls-7" d="M225.9,333.55a14.35,14.35,0,0,1,.84-3.89l2.44.87Z" />
  <polygon class="GUNDAN_TIGER_JEWELRY_TIGER_JEWELRY_10_cls-6" points="233.43 329.24 231.61 333.41 230.42 330.56 233.43 329.24" />
  <path class="GUNDAN_TIGER_JEWELRY_TIGER_JEWELRY_10_cls-6" d="M227,329a13.78,13.78,0,0,1,1.68-2.91l.64,3.73Z" />
  <path class="GUNDAN_TIGER_JEWELRY_TIGER_JEWELRY_10_cls-7" d="M226.74,339.45a14.28,14.28,0,0,1-.84-3.88l3.28,3Z" />
  <polygon class="GUNDAN_TIGER_JEWELRY_TIGER_JEWELRY_10_cls-8" points="231.11 334.56 229.68 337.98 225.97 334.56 229.68 331.14 231.11 334.56" />
  <polygon class="GUNDAN_TIGER_JEWELRY_TIGER_JEWELRY_10_cls-7" points="236.68 325.04 238.72 325.73 235.27 327.56 236.68 325.04" />
  <path class="GUNDAN_TIGER_JEWELRY_TIGER_JEWELRY_10_cls-7" d="M238.82,348.47a13.66,13.66,0,0,1-4.61-1.1l2.15-2.22Z" />
  <polygon class="GUNDAN_TIGER_JEWELRY_TIGER_JEWELRY_10_cls-9" points="239.59 343.04 234.65 340.42 232.09 334.56 234.65 328.69 239.59 326.07 244.53 328.69 247.1 334.56 244.53 340.42 239.59 343.04" />
  <polygon class="GUNDAN_TIGER_JEWELRY_TIGER_JEWELRY_10_cls-8" points="233.85 340.81 235.71 344.15 229.49 343.72 230.25 339.24 233.85 340.81" />
  <polygon class="GUNDAN_TIGER_JEWELRY_TIGER_JEWELRY_10_cls-6" points="243.91 327.56 240.46 325.73 242.51 325.04 243.91 327.56" />
  <polygon class="GUNDAN_TIGER_JEWELRY_TIGER_JEWELRY_10_cls-6" points="245.75 339.88 247.58 335.71 248.76 338.56 245.75 339.88" />
  <polygon class="GUNDAN_TIGER_JEWELRY_TIGER_JEWELRY_10_cls-7" points="247.58 333.41 245.75 329.24 248.76 330.56 247.58 333.41" />
  <path class="GUNDAN_TIGER_JEWELRY_TIGER_JEWELRY_10_cls-7" d="M233.44,347a13.8,13.8,0,0,1-3.57-2.63l5.74.39Z" />
  <polygon class="GUNDAN_TIGER_JEWELRY_TIGER_JEWELRY_10_cls-8" points="239.59 348.09 237.05 344.65 239.59 343.8 242.14 344.65 239.59 348.09" />
  <polygon class="GUNDAN_TIGER_JEWELRY_TIGER_JEWELRY_10_cls-8" points="248.93 339.24 249.69 343.72 243.47 344.15 245.33 340.81 248.93 339.24" />
  <path class="GUNDAN_TIGER_JEWELRY_TIGER_JEWELRY_10_cls-7" d="M252.19,340.08a14,14,0,0,1-1.68,2.91l-.63-3.74Z" />
  <polygon class="GUNDAN_TIGER_JEWELRY_TIGER_JEWELRY_10_cls-8" points="248.08 334.56 249.5 331.14 253.21 334.56 249.5 337.98 248.08 334.56" />
  <path class="GUNDAN_TIGER_JEWELRY_TIGER_JEWELRY_10_cls-7" d="M253.28,335.57a13.92,13.92,0,0,1-.84,3.88l-2.43-.86Z" />
  <path class="GUNDAN_TIGER_JEWELRY_TIGER_JEWELRY_10_cls-6" d="M249.32,344.38a14,14,0,0,1-3.57,2.63l-2.17-2.24Z" />
  <path class="GUNDAN_TIGER_JEWELRY_TIGER_JEWELRY_10_cls-7" d="M245,347.37a13.72,13.72,0,0,1-4.61,1.1l2.45-3.32Z" />
  <polygon class="GUNDAN_TIGER_JEWELRY_TIGER_JEWELRY_10_cls-8" points="245.33 328.3 243.47 324.97 249.69 325.39 248.93 329.88 245.33 328.3" />
  <path class="GUNDAN_TIGER_JEWELRY_TIGER_JEWELRY_10_cls-7" d="M252.44,329.66a14,14,0,0,1,.84,3.89l-3.27-3Z" />
  <path class="GUNDAN_TIGER_JEWELRY_TIGER_JEWELRY_10_cls-7" d="M240.37,320.65a13.26,13.26,0,0,1,4.61,1.1L242.82,324Z" />
  <path class="GUNDAN_TIGER_JEWELRY_TIGER_JEWELRY_10_cls-7" d="M245.75,322.11a14,14,0,0,1,3.57,2.63l-5.74-.4Z" />
  <path class="GUNDAN_TIGER_JEWELRY_TIGER_JEWELRY_10_cls-7" d="M229.87,324.74a13.8,13.8,0,0,1,3.57-2.63l2.17,2.23Z" />
  <path class="GUNDAN_TIGER_JEWELRY_TIGER_JEWELRY_10_cls-10" d="M234.21,321.75a13.2,13.2,0,0,1,4.61-1.1L236.36,324Z" />
  <polygon class="GUNDAN_TIGER_JEWELRY_TIGER_JEWELRY_10_cls-8" points="230.25 329.88 229.49 325.39 235.71 324.97 233.85 328.3 230.25 329.88" />
  <polygon class="GUNDAN_TIGER_JEWELRY_TIGER_JEWELRY_10_cls-8" points="237.05 324.46 239.59 321.02 242.14 324.46 239.59 325.32 237.05 324.46" />
  <path class="GUNDAN_TIGER_JEWELRY_TIGER_JEWELRY_10_cls-6" d="M250.51,326.13a13.78,13.78,0,0,1,1.68,2.91l-2.31.82Z" />
  <rect class="GUNDAN_TIGER_JEWELRY_TIGER_JEWELRY_10_cls-11" x="234.59" y="310.05" width="2.88" height="10.63" rx="1.44" transform="translate(-50.57 45.13) rotate(-9.87)" />
  <path class="GUNDAN_TIGER_JEWELRY_TIGER_JEWELRY_10_cls-12" d="M304.25,177.37a.7.7,0,0,1-.67-.51l-.05-.16L303.1,175c-.23,0-.46,0-.7,0H302c-.21,0-.45,0-.67-.05h0l-.53,1.87a.7.7,0,0,1-.68.51.63.63,0,0,1-.19,0l-2.41-.68a.7.7,0,0,1-.48-.87l.52-1.86a11.4,11.4,0,0,1-1.59-.93l-1.38,1.35a.72.72,0,0,1-.49.2h0a.75.75,0,0,1-.49-.21l-1.75-1.81a.66.66,0,0,1-.2-.5.71.71,0,0,1,.21-.49l1.39-1.35a11.09,11.09,0,0,1-.91-1.61l-1.87.48a.47.47,0,0,1-.17,0,.7.7,0,0,1-.68-.53l-.63-2.43a.66.66,0,0,1,.08-.53.7.7,0,0,1,.43-.32l1.88-.48a11.31,11.31,0,0,1,0-1.84l-1.87-.53a.69.69,0,0,1-.48-.86l.67-2.42a.7.7,0,0,1,.33-.42.73.73,0,0,1,.35-.09.63.63,0,0,1,.19,0l1.87.52a11,11,0,0,1,.94-1.58L292,156.17a.7.7,0,0,1,0-1l1.79-1.75a.71.71,0,0,1,.49-.2h0a.72.72,0,0,1,.5.22l1.35,1.38a11,11,0,0,1,1.61-.9l-.48-1.88a.69.69,0,0,1,.5-.85l1.68-.43.77-.18a.5.5,0,0,1,.17,0,.69.69,0,0,1,.67.53l.47,1.87.73,0a10.65,10.65,0,0,1,1.12.06l.52-1.87a.68.68,0,0,1,.34-.42.67.67,0,0,1,.34-.09l.19,0,2.41.68a.71.71,0,0,1,.48.87l-.52,1.87c.29.14.59.3.87.47s.49.3.72.46l1.38-1.35a.7.7,0,0,1,.49-.2.7.7,0,0,1,.5.21l1.76,1.8a.7.7,0,0,1,0,1l-1.4,1.36a11.35,11.35,0,0,1,.9,1.6l1.88-.48.17,0a.69.69,0,0,1,.68.53l.62,2.43a.7.7,0,0,1-.07.53.69.69,0,0,1-.43.32l-1.89.48a10.26,10.26,0,0,1,0,1.84l1.87.53a.69.69,0,0,1,.48.86l-.68,2.42a.7.7,0,0,1-.67.51l-.19,0-1.87-.53c-.17.34-.35.66-.54,1s-.26.41-.4.61l1.35,1.39a.7.7,0,0,1,0,1l-.92.9-.88.85a.73.73,0,0,1-.49.2.69.69,0,0,1-.5-.21l-1.35-1.39a12.05,12.05,0,0,1-1.61.9l.48,1.87a.7.7,0,0,1-.51.86l-2.32.59-.15,0ZM302.32,156a8,8,0,0,0-7.67,5.81,8.73,8.73,0,0,0-.3,2,8,8,0,0,0,5.82,7.83,7.88,7.88,0,0,0,2.16.3,8,8,0,0,0,0-15.94Z" />
  <path d="M300.39,151.27l.62,2.45a10.69,10.69,0,0,1,1.27-.08,11.28,11.28,0,0,1,1.62.13l.69-2.45L307,152l-.69,2.44a10.71,10.71,0,0,1,1.35.69,10.26,10.26,0,0,1,1.13.78l1.82-1.77,1.76,1.8-1.83,1.77a10.24,10.24,0,0,1,1.41,2.52l2.46-.63L315,162l-2.46.63a10.3,10.3,0,0,1,0,2.88l2.45.69-.68,2.42-2.46-.69a9.73,9.73,0,0,1-.73,1.44,9.24,9.24,0,0,1-.74,1l1.78,1.83-.92.9-.88.85-1.77-1.82a10.67,10.67,0,0,1-2.51,1.4l.62,2.47-2.32.59-.11,0-.05-.16-.58-2.29a9.9,9.9,0,0,1-1.23.08H302c-.21,0-.42,0-.62,0s-.41,0-.62-.07l-.69,2.45-2.41-.69.69-2.44a9.91,9.91,0,0,1-2.48-1.47L294,173.8,292.29,172l1.82-1.76a10.8,10.8,0,0,1-1.42-2.52l-2.45.63-.63-2.43,2.47-.63a10.3,10.3,0,0,1,0-2.88l-2.45-.69.68-2.42.81.23,1.64.46a9.88,9.88,0,0,1,1.48-2.47l-1.78-1.83,1.79-1.75,1.77,1.82a10.38,10.38,0,0,1,2.52-1.4l-.62-2.47,1.68-.43.75-.18m1.94,21.37a8.67,8.67,0,0,0,2.35-17,8.78,8.78,0,0,0-2.36-.33,8.67,8.67,0,0,0-8.34,6.32,9.06,9.06,0,0,0-.33,2.17,8.68,8.68,0,0,0,6.32,8.52,8.78,8.78,0,0,0,2.36.33m-1.93-22.77a1.84,1.84,0,0,0-.33,0l-.76.18-1.7.44a1.4,1.4,0,0,0-1,1.7l.34,1.33c-.24.12-.46.25-.69.39l-.95-1a1.41,1.41,0,0,0-1-.43h0a1.37,1.37,0,0,0-1,.4l-1.8,1.75a1.4,1.4,0,0,0,0,2l1,1c-.14.22-.28.44-.4.67l-.51-.14-.81-.23a1.58,1.58,0,0,0-.38-.05,1.4,1.4,0,0,0-1.35,1l-.68,2.42a1.41,1.41,0,0,0,1,1.73l1.32.37a6.77,6.77,0,0,0,0,.78l-1.34.34a1.37,1.37,0,0,0-.86.65,1.4,1.4,0,0,0-.15,1.06l.63,2.43a1.41,1.41,0,0,0,1.36,1.05,1.48,1.48,0,0,0,.35-.05l1.31-.33c.13.23.25.45.39.68l-1,1a1.41,1.41,0,0,0,0,2l1.76,1.8a1.41,1.41,0,0,0,1,.43h0a1.42,1.42,0,0,0,1-.4l1-1a7.33,7.33,0,0,0,.67.39l-.37,1.32a1.39,1.39,0,0,0,1,1.72l2.41.68a1.31,1.31,0,0,0,.38.06,1.41,1.41,0,0,0,1.35-1l.37-1.32h.78l.29,1.15.06.21a1.39,1.39,0,0,0,1.34,1,1.27,1.27,0,0,0,.28,0l.11,0,.08,0,2.32-.6a1.4,1.4,0,0,0,1-1.7l-.34-1.33a6.52,6.52,0,0,0,.68-.38l.95,1a1.4,1.4,0,0,0,2,0l.88-.85.93-.91a1.4,1.4,0,0,0,0-2l-1-1,.1-.17.3-.5,1.32.37a1.2,1.2,0,0,0,.38.05,1.38,1.38,0,0,0,.68-.18,1.41,1.41,0,0,0,.67-.84l.68-2.42a1.41,1.41,0,0,0-1-1.73l-1.32-.37c0-.26,0-.52,0-.78l1.33-.34a1.39,1.39,0,0,0,.86-.64,1.43,1.43,0,0,0,.15-1.07l-.62-2.42a1.4,1.4,0,0,0-1.36-1.06,2,2,0,0,0-.34,0l-1.33.34c-.12-.23-.25-.46-.38-.68l1-1a1.4,1.4,0,0,0,0-2l-1.76-1.8a1.41,1.41,0,0,0-1-.42,1.37,1.37,0,0,0-1,.4l-1,1-.26-.16-.41-.23.37-1.32a1.4,1.4,0,0,0-1-1.73L305,150a1.24,1.24,0,0,0-.38-.05,1.53,1.53,0,0,0-.69.17,1.44,1.44,0,0,0-.66.85l-.37,1.32-.59,0h-.19l-.34-1.31a1.39,1.39,0,0,0-1.35-1.06Zm1.93,21.37a7.4,7.4,0,0,1-2-.28,7.28,7.28,0,0,1-5.3-7.14,7.81,7.81,0,0,1,.28-1.83,7.23,7.23,0,0,1,9-5,7.24,7.24,0,0,1,5,9,7.28,7.28,0,0,1-7,5.3Z" />
  <circle class="GUNDAN_TIGER_JEWELRY_TIGER_JEWELRY_10_cls-13" cx="302.32" cy="165.1" r="4.24" />
  <line class="GUNDAN_TIGER_JEWELRY_TIGER_JEWELRY_10_cls-14" x1="302.32" y1="160.86" x2="302.32" y2="156.5" />
  <path class="GUNDAN_TIGER_JEWELRY_TIGER_JEWELRY_10_cls-14" d="M299.65,117.71a8.12,8.12,0,0,0-1.36,8.65c3.74,8.36,4,12.44,4,12.44v14.08" />
  <path class="GUNDAN_TIGER_JEWELRY_TIGER_JEWELRY_10_cls-15" d="M298.25,116.49a3.54,3.54,0,0,1,2.45,2.68" />
  <path class="GUNDAN_TIGER_JEWELRY_TIGER_JEWELRY_10_cls-15" d="M304,116.58s2.62-.07,3.15,3.09" />
</svg>