<svg id="Jewelry" xmlns="http://www.w3.org/2000/svg" viewBox="0 0 432 432">
  <defs>
    <style>.GUNDAN_TIGER_JEWELRY_TIGER_JEWELRY_13_cls-1,.GUNDAN_TIGER_JEWELRY_TIGER_JEWELRY_13_cls-4,.GUNDAN_TIGER_JEWELRY_TIGER_JEWELRY_13_cls-5,.GUNDAN_TIGER_JEWELRY_TIGER_JEWELRY_13_cls-7{fill:#dec96c;}.GUNDAN_TIGER_JEWELRY_TIGER_JEWELRY_13_cls-1,.GUNDAN_TIGER_JEWELRY_TIGER_JEWELRY_13_cls-2,.GUNDAN_TIGER_JEWELRY_TIGER_JEWELRY_13_cls-4,.GUNDAN_TIGER_JEWELRY_TIGER_JEWELRY_13_cls-5,.GUNDAN_TIGER_JEWELRY_TIGER_JEWELRY_13_cls-6,.GUNDAN_TIGER_JEWELRY_TIGER_JEWELRY_13_cls-7{stroke:#000;}.GUNDAN_TIGER_JEWELRY_TIGER_JEWELRY_13_cls-1,.GUNDAN_TIGER_JEWELRY_TIGER_JEWELRY_13_cls-2,.GUNDAN_TIGER_JEWELRY_TIGER_JEWELRY_13_cls-5,.GUNDAN_TIGER_JEWELRY_TIGER_JEWELRY_13_cls-6{stroke-miterlimit:10;}.GUNDAN_TIGER_JEWELRY_TIGER_JEWELRY_13_cls-1,.GUNDAN_TIGER_JEWELRY_TIGER_JEWELRY_13_cls-2,.GUNDAN_TIGER_JEWELRY_TIGER_JEWELRY_13_cls-4{stroke-width:1.12px;}.GUNDAN_TIGER_JEWELRY_TIGER_JEWELRY_13_cls-2,.GUNDAN_TIGER_JEWELRY_TIGER_JEWELRY_13_cls-6{fill:#be3f27;}.GUNDAN_TIGER_JEWELRY_TIGER_JEWELRY_13_cls-3{fill:#fff;}.GUNDAN_TIGER_JEWELRY_TIGER_JEWELRY_13_cls-4,.GUNDAN_TIGER_JEWELRY_TIGER_JEWELRY_13_cls-7{stroke-linecap:round;stroke-linejoin:round;}.GUNDAN_TIGER_JEWELRY_TIGER_JEWELRY_13_cls-5,.GUNDAN_TIGER_JEWELRY_TIGER_JEWELRY_13_cls-6,.GUNDAN_TIGER_JEWELRY_TIGER_JEWELRY_13_cls-7{stroke-width:1.06px;}</style>
  </defs>
  <path class="GUNDAN_TIGER_JEWELRY_TIGER_JEWELRY_13_cls-1" d="M128.87,113.37s-3.85-.25-4.47,3.37a5.44,5.44,0,0,0,5.42,6.51c3.21-.23,4.54-2.84,4.17-4.14a16.41,16.41,0,0,1-.94-3,3.05,3.05,0,0,0-1.81,1.92c-.34,1.39-4.67,1.48-4.76,0s2.44-3.13,2.63-3A2,2,0,0,0,128.87,113.37Z" />
  <path class="GUNDAN_TIGER_JEWELRY_TIGER_JEWELRY_13_cls-2" d="M125,120.35a3.08,3.08,0,0,1,3,0,3.93,3.93,0,0,1,1.62,2.93,2.32,2.32,0,0,1-3.24,1.86C123.54,124.24,123.85,121.67,125,120.35Z" />
  <path class="GUNDAN_TIGER_JEWELRY_TIGER_JEWELRY_13_cls-3" d="M126.88,121.33s1.09,1,.74,1.94a2.2,2.2,0,0,1-.88,1.22s1.9-.41,1.8-1.77S126.88,121.33,126.88,121.33Z" />
  <path class="GUNDAN_TIGER_JEWELRY_TIGER_JEWELRY_13_cls-4" d="M132.4,114.45s1.81,2.56,2.14,8" />
  <path class="GUNDAN_TIGER_JEWELRY_TIGER_JEWELRY_13_cls-5" d="M127.4,101.23s-3.44-1.23-4.94,1.91a5.15,5.15,0,0,0,3.24,7.34c3,.62,4.88-1.4,4.87-2.69a15.9,15.9,0,0,1-.07-3,2.93,2.93,0,0,0-2.16,1.28c-.66,1.18-4.64.14-4.32-1.28s3-2.21,3.19-2.08A1.86,1.86,0,0,0,127.4,101.23Z" />
  <path class="GUNDAN_TIGER_JEWELRY_TIGER_JEWELRY_13_cls-6" d="M122,106.57a2.88,2.88,0,0,1,2.77.77,3.73,3.73,0,0,1,.71,3.09,2.21,2.21,0,0,1-3.44.85C119.71,109.75,120.67,107.48,122,106.57Z" />
  <path class="GUNDAN_TIGER_JEWELRY_TIGER_JEWELRY_13_cls-3" d="M123.52,108s.73,1.2.17,2a2.08,2.08,0,0,1-1.13.88s1.85.12,2.1-1.14S123.52,108,123.52,108Z" />
  <path class="GUNDAN_TIGER_JEWELRY_TIGER_JEWELRY_13_cls-7" d="M130.34,103.13s1,2.81-.13,7.83" />
</svg>