<?xml version="1.0" encoding="utf-8"?>
<!-- Generator: Adobe Illustrator 25.2.0, SVG Export Plug-In . SVG Version: 6.00 Build 0)  -->
<svg version="1.1" id="Layer_1" xmlns="http://www.w3.org/2000/svg" xmlns:xlink="http://www.w3.org/1999/xlink" x="0px" y="0px" viewBox="0 0 432 432" style="enable-background:new 0 0 432 432;" xml:space="preserve">
<style type="text/css">
	.st0{fill:#1D957D;}
	.st1{fill:#FFFFFF;}
	.st2{fill:#A5F38B;}
	.st3{fill:#CCDECE;}
	.st4{fill:#23110F;}
	.st5{fill:none;stroke:#000000;stroke-width:2;stroke-linecap:round;stroke-linejoin:round;}
	.st6{fill:none;stroke:#000000;stroke-width:2.05;stroke-linecap:round;stroke-miterlimit:10;}
	.st7{fill:none;stroke:#000000;stroke-width:2.21;stroke-linecap:round;stroke-linejoin:round;}
	.st8{opacity:0.43;}
</style>
<g>
	<g id="outfit">
		<path class="st0" d="M282.5,470.5c-18.7,8.6-27.4,4.6-48.4,3.7c-9-0.4-18-0.1-26.9,0.8c-1.6,0.2-3.3,0.3-5.1,0.6&#xD;&#xA;			c-3.1,0.4-6.3,0.8-9.8,1.3c-1.1,0.2-2.3,0.4-3.5,0.6l-3.8,0.6c-24,4.2-38.9-2.3-44.9-5.7c-6.7-9.9-12.8-33.2-10.8-56.3&#xD;&#xA;			c1.5-16.8,7.3-33.4,20.2-44.8c34.9,1.3,88.7,1.6,125.6-5.5C275.2,365.8,302.5,392.6,282.5,470.5z" />
		<path class="st1" d="M273.5,317.6l-0.4,0.2c-0.2,0.1-0.4,0.3-0.6,0.4l-0.5,0.3l-0.3,0.2l0,0l-0.4,0.2l-0.4,0.2l0,0l-0.1,0.1&#xD;&#xA;			l-1.3,0.9l-0.7,0.5l0,0l0,0h0l-0.1,0l-0.5,0.4l0,0l-0.4,0.3l-0.2,0.2l0,0l-0.3,0.2l-0.3,0.2l0,0l-0.6,0.4l-1,0.7&#xD;&#xA;			c-0.3,0.2-0.6,0.4-0.8,0.6l-0.6,0.5c-2.9,2.4-5.9,5-8.9,7.7s-6.3,5.6-9.5,8.6c-1.6,1.5-3.3,3-4.9,4.6s-3.3,3.1-5,4.8l0,0&#xD;&#xA;			c-0.3,0.3-0.6,0.6-0.9,0.9s-0.8,0.7-1.1,1.1l-1.1,1l-1.1,1l0,0l-4.1,0.2h-0.4l-4.6,0.2l-4.6,0.1l-3.3,0.1H213l0,0&#xD;&#xA;			c0,0,0-0.1,0.1-0.1c1.2-1.2,2.4-2.5,3.6-3.7c-0.8-0.6-1.5-1.2-2.3-1.9c-0.2-0.1-0.3-0.3-0.5-0.4c-0.8-0.6-1.5-1.2-2.3-1.7l-2-1.5&#xD;&#xA;			c-0.5-0.4-0.9-0.7-1.4-1l-0.8-0.5l-1.3-0.9l-2.6-1.8l-2.2-1.4c-0.9-0.6-1.8-1.1-2.6-1.7l-2.6-1.3l-0.3-0.2c-0.8-0.5-1.7-1-2.5-1.5&#xD;&#xA;			c-4.4-2.5-8.8-4.8-13.1-6.9c-0.9-0.4-1.7-0.9-2.6-1.2l-2.4-1.1c-3.9-1.8-7.7-3.4-11.4-4.9l-2.4-0.9l-1-0.4l-2.6-1l-0.7-0.3&#xD;&#xA;			l-0.2-0.1l-0.4-0.1l-0.6-0.2h-0.1l-0.8-0.3h-0.1l-0.9-0.3l-3.4-1.2l-0.9-0.3l-0.9-0.3l-1.1-0.4l-0.8-0.3l-0.7-0.2l-3.3-1.2&#xD;&#xA;			c0.7-0.8,1.4-1.6,2-2.5c1.8-2.4,3.1-5.1,4-8l-0.6-2.2c21.6,8.3,56.4,23.8,77.6,41.2c1.5-1.4,3.1-2.9,4.8-4.5l1.2-1.2l2.7-2.4&#xD;&#xA;			c0.5-0.4,0.9-0.8,1.4-1.2c0.9-0.7,1.7-1.5,2.6-2.2c1.6-1.3,3.2-2.7,4.8-4c1-0.8,1.9-1.6,2.9-2.3c0.1-0.1,0.2-0.2,0.4-0.3&#xD;&#xA;			c1.1-0.9,2.2-1.8,3.3-2.6c3.8-3,7.6-6,11-8.7l2.9-2.3l1.4-1.1l2-1.6l1-0.8c-0.3,2.2,0.1,4.3,1,6.3c0.5,1,1.1,1.9,1.9,2.7&#xD;&#xA;			C272,316.3,272.7,317,273.5,317.6z" />
		<path class="st2" d="M278.4,321.5l-0.3,0.2c-0.6,0.5-1.2,0.9-1.8,1.4l-0.4,0.3l-3.1,2.4l-0.2,0.2l-2.6,2l-0.4,0.3l-1.6,1.3&#xD;&#xA;			l-0.6,0.5l-2,1.6c-0.1,0.1-0.3,0.2-0.5,0.4l-0.3,0.2l-2.1,1.7c-5.6,4.5-11.3,9.1-16.4,13.5c-0.9,0.8-1.8,1.6-2.7,2.4&#xD;&#xA;			c-1.5,1.3-2.8,2.6-4.1,3.8l-0.2,0.2l0,0l-1.4,0.1l-2.9,0.1h-0.1l-1.7,0.1l-1.8,0.1l1.1-1l1.1-1c0.4-0.4,0.8-0.7,1.1-1.1&#xD;&#xA;			s0.6-0.6,0.9-0.9l0,0c1.7-1.6,3.4-3.2,5-4.8s3.3-3.1,4.9-4.6c3.3-3,6.4-5.9,9.5-8.6c3.1-2.7,6.1-5.3,8.9-7.7l0.6-0.5&#xD;&#xA;			c0.2-0.2,0.5-0.4,0.8-0.6l1-0.7l0.6-0.4l0.3-0.2l0.3-0.2l0.2-0.2l0.4-0.3l0.5-0.4l0.1,0c0,0,0.1,0,0.1-0.1l0,0l0.7-0.5l1.3-0.9&#xD;&#xA;			l0.1-0.1l0.4-0.2c0.1-0.1,0.2-0.2,0.4-0.3l0.3-0.2l0.5-0.3c0.2-0.1,0.4-0.3,0.6-0.4l0.4-0.2l0,0&#xD;&#xA;			C274.9,318.8,276.6,320.1,278.4,321.5z" />
		<path class="st2" d="M216.6,350.9c-1.2,1.2-2.4,2.4-3.6,3.7c-21.4-17.2-53.2-29.6-75.2-36.8c1.9-1.3,3.6-2.8,5.1-4.5l3.3,1.2&#xD;&#xA;			l0.7,0.2l0.8,0.3l1.1,0.4l0.9,0.3l0.9,0.3l3.4,1.2l0.9,0.3h0.1l0.8,0.3h0.1l0.6,0.2l0.4,0.1l0.2,0.1l0.7,0.3l2.6,1l1,0.4l2.4,0.9&#xD;&#xA;			c3.7,1.5,7.5,3.1,11.4,4.9l2.4,1.1c0.9,0.4,1.7,0.8,2.6,1.2c4.3,2.1,8.7,4.4,13.1,6.9c0.8,0.5,1.6,1,2.5,1.5l0.3,0.2l2.5,1.5&#xD;&#xA;			c0.9,0.5,1.8,1.1,2.6,1.7l2.2,1.4l2.6,1.8l1.3,0.9l0.8,0.5c0.5,0.4,1,0.7,1.4,1l2,1.5c0.8,0.6,1.5,1.1,2.3,1.7&#xD;&#xA;			c0.2,0.1,0.3,0.2,0.5,0.4C215.1,349.6,215.9,350.3,216.6,350.9z" />
		<path class="st3" d="M323.2,378.8c0,0-19.8-2.5-36.6-30.3c-3.4,6-7.2,11.7-11.4,17.2c0,0,27.3,26.8,7.3,104.7&#xD;&#xA;			c6.2-4.9,9.9-10.3,13.2-16c1.2-2.1,2.3-4.2,3.3-6.5c1.6-3.7,2.7-7.5,3.5-11.4c0.4-1.7,0.6-3.5,0.9-5.2c0.7-6,0.7-12,0-18&#xD;&#xA;			c-0.6-5.7-1.8-11.4-3.4-16.9c1.6-1.6,3.1-3.2,4.7-4.7C312.8,384.2,317.6,382.5,323.2,378.8z" />
		<path class="st3" d="M149.7,371.3L149.7,371.3c-13,11.4-18.8,28-20.2,44.8c-2,23.1,4.1,46.5,10.8,56.3c-1-0.6-2-1.2-2.9-1.9&#xD;&#xA;			c-1.4-1.1-2.8-2.3-4.1-3.5c-1.6-1.5-3.1-3.1-4.6-4.7c-0.5-0.5-0.9-1.1-1.3-1.6c-0.9-1.1-1.7-2.2-2.4-3.3c-0.4-0.6-0.8-1.1-1.1-1.7&#xD;&#xA;			s-0.7-1.1-1-1.7v-0.1l-0.1-0.2c-0.1-0.1-0.1-0.2-0.2-0.3c-0.3-0.6-0.7-1.2-1-1.8c-0.2-0.4-0.4-0.8-0.6-1.3&#xD;&#xA;			c-0.3-0.6-0.6-1.2-0.8-1.8s-0.5-1.1-0.7-1.6l0,0c-0.2-0.5-0.4-1.1-0.6-1.6c0,0,0-0.1,0-0.1l-0.5-1.4c0-0.1-0.1-0.3-0.1-0.4&#xD;&#xA;			c-0.2-0.4-0.3-0.9-0.4-1.3c-0.2-0.6-0.3-1.2-0.5-1.8c0,0,0,0,0-0.1c-0.4-1.7-0.8-3.4-1.1-5c-0.1-0.6-0.2-1.3-0.3-1.9&#xD;&#xA;			c-0.1-0.4-0.1-0.7-0.2-1.1c-0.1-0.7-0.2-1.3-0.2-2l0,0c0,0,0-0.1,0-0.1c0-0.5-0.1-1-0.1-1.5c0-0.1,0-0.3,0-0.4&#xD;&#xA;			c-0.1-1.2-0.2-2.4-0.2-3.6c0-0.6,0-1.2,0-1.8c0-3,0.2-6.1,0.5-9.1l0,0c0.3-2.5,0.7-5,1.1-7.3v-0.1c-1.1-1.2-2.2-2.4-3.4-3.6&#xD;&#xA;			c-7.9-8.1-16.6-15.4-26-21.6c0.6,0,28.6,1.4,45.1-34.9c5.3,9.4,12.4,20.9,17.3,25.2c0,0,0.1,0.1,0.1,0.1l0,0L149.7,371.3z" />
		<path class="st0" d="M144.5,348.6l0.2,0.2l0,0c0.1,0.2,0.3,0.4,0.5,0.6l0.3,0.4l0.2,0.2v0.1l0,0l0.3,0.4l0.4,0.4l0.1,0.2l0.7,0.8&#xD;&#xA;			l0.9,1c0.5,0.6,1,1.2,1.6,1.9l0.1-0.2c0,0,18,0.5,40.6,0.4h8.5h3.5h2.8h0.8l3.6-0.1h1.8h1.8l0,0h1.4l3.3-0.1l4.6-0.1l4.6-0.2h0.4&#xD;&#xA;			l4.1-0.2l0,0l1.8-0.1l1.7-0.1h0.1l2.9-0.1l1.4-0.1l0,0c14.6-0.8,27.3-2.2,34.5-4.2l0,0c0.7-0.7,1.3-1.4,1.8-2.1&#xD;&#xA;			c0.6-0.7,1.1-1.3,1.7-2c1.1-1.3,2.1-2.5,3-3.6l1.2-1.4c1.1-1.4,2-2.6,2.9-3.7c0.3-0.4,0.6-0.9,0.9-1.2l0.4-0.6&#xD;&#xA;			c0.3-0.4,0.6-0.8,0.9-1.2s0.3-0.5,0.5-0.7c0.8-1.3,1.6-2.6,2.3-4c2.7,2,5.3,3.8,7.2,5.4c-2.4,2.8-4.6,5.7-6.5,8.9&#xD;&#xA;			c-0.2,0.4-0.5,0.8-0.7,1.2c-0.8,1.2-1.6,2.5-2.4,4c-0.8,1.5-1.7,2.9-2.5,4.2l-0.8,1.3l-0.5,0.8l-0.3,0.5l-0.9,1.4l-0.2,0.3l0,0&#xD;&#xA;			c-0.1,0.1-0.2,0.3-0.2,0.4c0,0-0.1,0.1-0.1,0.1l-0.1,0.1c-0.1,0.1-0.2,0.3-0.3,0.5l-0.3,0.5l-0.4,0.6l0,0l-0.2,0.3&#xD;&#xA;			c-0.4,0.6-0.9,1.2-1.3,1.9l-0.1,0.1c-0.1,0.1-0.1,0.1-0.2,0.2l-0.4,0.5l-1,1.4c-0.5,0.7-1.1,1.4-1.6,2.1&#xD;&#xA;			c-36.8,7.1-90.6,6.8-125.6,5.5l0,0l0,0l0,0l0,0c0,0,0,0-0.1-0.1l-0.5-0.4c-0.1-0.1-0.3-0.3-0.5-0.5c-0.1-0.1-0.2-0.2-0.2-0.2&#xD;&#xA;			l-0.2-0.3c-0.2-0.3-0.5-0.5-0.7-0.8s-0.5-0.6-0.8-0.9s-0.6-0.8-1-1.2l-0.5-0.6l-0.5-0.6c-0.4-0.5-0.8-1.1-1.2-1.7&#xD;&#xA;			s-0.8-1.1-1.1-1.6s-0.8-1.2-1.2-1.8s-0.9-1.4-1.4-2.1l-1.3-2c-0.4-0.7-0.9-1.4-1.3-2.1s-0.9-1.4-1.3-2.1l-1.2-2.1&#xD;&#xA;			c-0.8-1.4-1.6-2.8-2.4-4.1l-0.8-1.5l-1.4-2.4l0,0c-2.7-4.7-5.8-10.2-7.8-13.7l0.1-0.1c1.2-0.9,2.6-1.9,3.9-2.8s2.8-1.9,4.3-2.9&#xD;&#xA;			c3.1,8,7,15.6,11.8,22.6l1.1,1.6l0,0l0,0l0.1,0.1l0.3,0.5l0.6,0.8l0,0" />
		<path class="st4" d="M122.7,453.9L122.7,453.9c-1,1.9-2.3,3.6-3.9,5c-0.2,0.1-0.3,0.2-0.4,0.3c0,0-26.9-35.8-46.3-44&#xD;&#xA;			c1.5-9.7,2.4-17.2,2.9-21.7c0.3-3.3,0.5-5.1,0.5-5.1l-1.4,2l-6.5,9.1l0,0c-1.5,4.8-2.6,9.6-3.3,14.6c0,0-4.6-3-5.9-6.8&#xD;&#xA;			c-0.2-0.5-0.3-1.1-0.3-1.7c-0.1-2.4,5.6-10.7,11-18c4.8-6.5,9.3-12.1,9.3-12.1s3.4,1.8,8.7,5.2l0,0c9.4,6.2,18.1,13.5,26,21.6&#xD;&#xA;			c1.1,1.2,2.2,2.4,3.4,3.6v0.1c-0.4,2.3-0.8,4.8-1.1,7.3l0,0c-0.6,5.5-0.7,11.1-0.1,16.6c0.1,0.7,0.2,1.3,0.2,2&#xD;&#xA;			c0.4,2.7,0.9,5.4,1.6,8l0,0c1.2,4.6,3,9,5.3,13.2C122.5,453.5,122.6,453.6,122.7,453.9L122.7,453.9z" />
		<path class="st4" d="M330.9,373.6l-0.3,0.2l-0.6,0.4c-1.1,0.6-1.9,1.6-4.4,3.2l-0.6,0.4c-0.6,0.4-1.2,0.7-1.8,1.1&#xD;&#xA;			c-1.4,0.9-2.9,1.9-4.5,3.1l-0.8,0.6c-0.3,0.2-0.5,0.4-0.8,0.6l-1.1,0.9l-2.3,0.4l-4.5,3.5c-0.6,0.6-1.3,1.1-1.9,1.7l-0.4,0.4&#xD;&#xA;			l-1.1,1c-0.4,0.3-0.7,0.7-1.1,1c-0.8,0.7-1.6,1.5-2.3,2.3s-1.6,1.6-2.4,2.4c0.2,0.6,0.4,1.3,0.6,2s0.3,1.1,0.5,1.7&#xD;&#xA;			c0.1,0.3,0.2,0.7,0.2,1c0.2,0.7,0.3,1.4,0.5,2c0.1,0.4,0.2,0.9,0.3,1.3c0.1,0.3,0.1,0.5,0.2,0.8s0.1,0.4,0.1,0.5&#xD;&#xA;			c0,0.1,0,0.2,0,0.3v0.2l0.1,0.5c0,0.2,0.1,0.5,0.1,0.7c0.1,0.4,0.1,0.8,0.2,1.2s0.1,0.8,0.2,1.1s0.1,0.8,0.2,1.2&#xD;&#xA;			c0,0.2,0.1,0.4,0.1,0.6c0,0.1,0,0.3,0.1,0.5c0,0,0,0.1,0,0.1c0,0.2,0,0.3,0.1,0.5c0,0.2,0.1,0.5,0.1,0.7l0,0&#xD;&#xA;			c0.1,1.4,0.3,2.8,0.4,4.2c0,0.1,0,0.2,0,0.3c0,0.3,0,0.5,0,0.8s0,0.3,0,0.4s0,0.3,0,0.4s0,0,0,0.1v0.1c0,0.1,0,0.1,0,0.2&#xD;&#xA;			c0,0.1,0,0.2,0,0.2c0,0.1,0,0.2,0,0.3v0.2l0,0c0,0.2,0,0.3,0,0.5c0,0.5,0,1,0,1.4l0,0c0,0.5,0,0.9,0,1.4c0,0.1,0,0.2,0,0.3v0.6&#xD;&#xA;			c0,0.2,0,0.4,0,0.5s0,0.7,0,1v0.5c0,0.2,0,0.4,0,0.6c0,0,0,0.1,0,0.1v0.1c0,0.1,0,0.2,0,0.2c0,0.2,0,0.4,0,0.6v0.4&#xD;&#xA;			c0,0.2,0,0.4,0,0.5s0,0.3,0,0.4c0,0.5-0.1,1-0.2,1.5c-0.2,1.7-0.5,3.5-0.9,5.2c-0.1,0.3-0.1,0.7-0.2,1l-0.1,0.4c0,0,0,0.1,0,0.1&#xD;&#xA;			c-0.1,0.3-0.1,0.6-0.2,1l-0.1,0.4c0,0,0,0.1,0,0.1c0,0.1-0.1,0.2-0.1,0.3c-0.1,0.4-0.2,0.7-0.3,1.1s-0.3,1-0.4,1.4c0,0,0,0,0,0.1&#xD;&#xA;			c-0.3,0.9-0.5,1.7-0.9,2.5c0,0.1-0.1,0.3-0.2,0.4s-0.1,0.2-0.1,0.4l-0.2,0.5c0,0.1-0.1,0.3-0.2,0.4l-0.1,0.2&#xD;&#xA;			c-0.2,0.4-0.3,0.8-0.5,1.2l0.3-0.3l0,0l0,0c0.5-0.6,1-1.2,1.5-1.8l0.2-0.2l0.3-0.4l0.5-0.6l0.5-0.6c0.4-0.5,0.9-1.1,1.4-1.6&#xD;&#xA;			l0.2-0.2l0.9-1.1l0.2-0.3c0.8-1,1.7-2,2.6-3l0.7-0.8l1.1-1.2l0.4-0.5c0.1-0.1-0.8,3.8-0.7,3.6c0.3-0.3,0.6-0.7,0.9-1l1-1&#xD;&#xA;			c1.2-1.3,2.5-2.6,3.7-3.9l1.3-1.3c0.3-0.3-1.4-0.6-1.1-0.9s0.3-0.3,0.5-0.5c0.5-0.5,1-1,1.5-1.4c0.8-0.8,1.7-1.6,2.5-2.4l0.2-0.2&#xD;&#xA;			l0.1-0.1l0.2-0.1c0.5-0.5,1-0.9,1.5-1.3l0,0l0.8-0.7l0.2-0.2c0.5-0.5,1-0.9,1.6-1.3l0.5-0.4c0.4-0.4,0.9-0.7,1.3-1.1l0.7-0.6&#xD;&#xA;			l0.4-0.3l0.6-0.5l0.2-0.2l0.9-0.7c1.3-1,2.5-1.8,3.8-2.6l0.9-0.6c0.4-0.3,0.9-0.5,1.3-0.8l0.2-0.1l0.4-0.2l0,0l0.2-0.1l0.1-0.1&#xD;&#xA;			l0.6-0.3h0.1l0.8-0.4l0.1,0h0.1l0,0l1-0.5c-0.2-1-0.3-2.1-0.5-3.1l-0.6-4.3l-0.2-1.4l0,0c0-0.1,0-0.2,0-0.3&#xD;&#xA;			c-0.1-0.5-0.1-1.1-0.2-1.6c0-0.2,0-0.4-0.1-0.6l0,0c0-0.1,0-0.1,0-0.2c-0.1-0.5-0.1-1-0.2-1.5c-0.1-1-0.2-2-0.4-2.9&#xD;&#xA;			c-0.1-0.7-0.2-1.4-0.2-2c-0.1-1-0.2-1.9-0.3-2.6c0-0.4-0.1-0.7-0.1-1s-0.1-0.6-0.1-0.9c0-0.1,0-0.3,0-0.4s0-0.3,0-0.4&#xD;&#xA;			c-0.1-0.9-0.1-1.6-0.2-2.1c0-0.1,0-0.2,0-0.3l0,0c0-0.2,0-0.3,0-0.5c0-0.3,0-0.5,0-0.5l7.9,11.1l0,0l0.1,0.4c0,0.1,0,0.1,0.1,0.2&#xD;&#xA;			l0.1,0.4c0,0.1,0,0.2,0.1,0.3c0.1,0.4,0.2,0.8,0.4,1.3s0.3,1.1,0.5,1.7c0.1,0.2,0.1,0.5,0.2,0.7c0.1,0.3,0.1,0.5,0.2,0.8&#xD;&#xA;			s0.1,0.4,0.1,0.6l0.2,0.8c0.1,0.3,0.1,0.6,0.2,1s0.1,0.4,0.1,0.6s0.1,0.4,0.1,0.6c0.1,0.7,0.3,1.4,0.4,2.1c0.2,1,0.3,2,0.5,3l0,0&#xD;&#xA;			c0,0,0.2-0.1,0.6-0.4l0.3-0.2l0,0l0.2-0.2c1-0.8,1.9-1.6,2.7-2.6c0.1-0.1,0.2-0.2,0.3-0.3s0.4-0.5,0.5-0.7c0.9-1.2,1.4-2.6,1.5-4&#xD;&#xA;			C352.5,399.1,330.9,373.6,330.9,373.6z" />
		<path class="st2" d="M369.2,459.7L369.2,459.7L369.2,459.7L369.2,459.7L369.2,459.7L369.2,459.7l-0.2,0.2c0,0-0.1,0.1-0.1,0.1&#xD;&#xA;			c-1,1.1-4.1,4-10.4,6.4l-0.4,0.1l0,0c-5.4,2-13,3.6-23.4,3.3c-2.8,0-6.1-1.2-9.5-3.1c0,0-16.3,7.2-29.3-12.4&#xD;&#xA;			c1.2-2.1,2.3-4.2,3.3-6.5l0.3-0.3l0,0c0.2-0.3,0.5-0.7,0.8-1l0.9-1.1c0.8-1,1.7-2.1,2.6-3.2l1.1-1.3l2.6-3c0.6-0.6,1.2-1.3,1.8-2&#xD;&#xA;			c0.9-1,0.9,2,1.8,0.9c2.3-2.5,2.7-4.9,5.2-7.4l1.5-1.4c0.1-0.1,0.2-0.2,0.2-0.2l1.2-1.1c0.2-0.2,0.5-0.5,0.7-0.7l1.5-1.3l0,0&#xD;&#xA;			l1.1-0.9c0.7-0.6,1.4-1.2,2.2-1.8c0.4-0.3,0.7-0.6,1.1-0.9c2.4-2,5-3.8,7.6-5.4l0.9-0.5c0.7-0.4,1.4-0.8,2.1-1.1s1.4-0.7,2-1&#xD;&#xA;			c-2.7-16.9-3.3-26.8-3.3-26.8l7.9,11.1l0,0c1.5,4.8,2.6,9.6,3.3,14.6c0.2,1.2,0.3,2.5,0.5,3.8c5.8,6.2,12.9,22,12.9,22l0.5,7.5&#xD;&#xA;			c0.7,1,1.5,2.1,2.2,3.3c0.2,0.4,0.5,0.8,0.8,1.2l1.2,1.8C366.8,455.8,369.2,459.7,369.2,459.7z" />
		<path class="st2" d="M118.3,459.3c-13,21.4-33.1,9.7-33.1,9.7c-3.4,1.8-6.7,3.1-9.5,3.1c-26.3,0.6-34.6-10.3-34.6-10.3&#xD;&#xA;			s5.6-8.9,9.3-14.2l0.5-7.5c0,0,2.6-5.8,5.9-11.7c1.9-3.7,4.3-7.1,6.9-10.3c0.1-1.3,0.3-2.6,0.5-3.8c0.7-4.9,1.8-9.8,3.3-14.6l0,0&#xD;&#xA;			l6.5-9.1l1.4-2c0,0-0.1,1.8-0.5,5.1c-0.5,4.5-1.3,12-2.9,21.7C91.5,423.5,118.3,459.3,118.3,459.3z" />
		<path class="st5" d="M216.6,350.9c-0.8-0.6-1.5-1.2-2.3-1.9c-0.2-0.1-0.3-0.3-0.5-0.4c-0.8-0.6-1.5-1.2-2.3-1.7l-2-1.5&#xD;&#xA;			c-0.5-0.4-0.9-0.7-1.4-1l-0.8-0.5l-1.3-0.9l-2.6-1.8l-2.2-1.4c-0.9-0.6-1.8-1.1-2.6-1.7l-2.5-1.6l-0.3-0.2c-0.8-0.5-1.7-1-2.5-1.5&#xD;&#xA;			c-4.4-2.5-8.8-4.8-13.1-6.9c-0.9-0.4-1.7-0.9-2.6-1.2l-2.4-1.1c-3.9-1.8-7.7-3.4-11.4-4.9l-2.4-0.9l-1-0.4l-2.6-1l-0.7-0.3&#xD;&#xA;			l-0.2-0.1l-0.4-0.1l-0.6-0.2h-0.1l-0.8-0.3h-0.1l-0.9-0.3l-3.4-1.2l-0.9-0.3l-0.9-0.3l-1.1-0.4l-0.8-0.3l-0.7-0.2l-3.3-1.2" />
		<path class="st5" d="M137.9,317.8c22,7.2,53.7,19.6,75.2,36.8" />
		<path class="st5" d="M148.3,300.5c21.6,8.3,56.4,23.8,77.6,41.2" />
		<path class="st5" d="M273.5,317.6l-0.9,0.6l-0.5,0.3l-0.3,0.2c-0.2,0.2-0.5,0.3-0.7,0.5l-0.1,0.1l-1.3,0.9l-0.7,0.5&#xD;&#xA;			c0,0-0.1,0-0.1,0.1l-0.1,0c-0.2,0.1-0.4,0.2-0.5,0.4l-0.4,0.3l-0.2,0.2l-0.3,0.2l-0.3,0.2l-0.6,0.4l-1,0.7l-0.8,0.6l-0.6,0.5&#xD;&#xA;			c-2.9,2.4-5.9,5-8.9,7.7s-6.3,5.6-9.5,8.6c-1.6,1.5-3.3,3-4.9,4.6s-3.3,3.1-5,4.8c-0.3,0.3-0.6,0.6-0.9,0.9s-0.8,0.7-1.1,1.1&#xD;&#xA;			l-1.1,1l-1.1,1" />
		<path class="st5" d="M278.4,321.5l-0.3,0.2c-0.6,0.5-1.2,0.9-1.8,1.4l-0.4,0.3l-3.1,2.4l-0.2,0.2l-2.6,2l-0.4,0.3l-1.6,1.3&#xD;&#xA;			l-0.6,0.5l-2,1.6c-0.1,0.1-0.3,0.2-0.5,0.4l-0.3,0.2l-2.1,1.7c-5.6,4.5-11.3,9.1-16.4,13.5c-0.9,0.8-1.8,1.6-2.7,2.4&#xD;&#xA;			c-1.5,1.3-2.8,2.6-4.1,3.8l-0.2,0.2" />
		<path class="st5" d="M268.4,306.6l-1,0.8l-2,1.6L264,310l-2.9,2.3c-3.4,2.7-7.2,5.7-11,8.7c-1.1,0.9-2.2,1.8-3.3,2.6&#xD;&#xA;			c-0.1,0.1-0.2,0.2-0.4,0.3c-1,0.8-1.9,1.5-2.9,2.3c-1.6,1.3-3.2,2.7-4.8,4c-0.9,0.7-1.8,1.5-2.6,2.2c-0.5,0.4-0.9,0.8-1.4,1.2&#xD;&#xA;			l-2.7,2.4l-1.3,1.2c-1.7,1.5-3.3,3-4.8,4.5s-3.1,3.1-4.7,4.6s-3,3-4.5,4.5c-1.2,1.2-2.4,2.4-3.6,3.7c0,0-0.1,0.1-0.1,0.1l0,0" />
		<path class="st5" d="M296.3,334.5c-2.4,2.8-4.6,5.7-6.5,8.9l-0.7,1.2c-0.8,1.2-1.6,2.5-2.4,4c-0.8,1.5-1.7,2.9-2.5,4.2l-0.8,1.3&#xD;&#xA;			l-0.5,0.8l-0.3,0.5l-0.9,1.4l-0.2,0.3l-0.2,0.2l-0.2,0.4c-0.1,0.1-0.2,0.3-0.3,0.5l-0.3,0.5c-0.1,0.2-0.3,0.4-0.4,0.6l-0.2,0.3&#xD;&#xA;			c-0.4,0.6-0.9,1.2-1.3,1.9l-0.1,0.1c-0.1,0.1-0.1,0.1-0.2,0.2l-0.4,0.5l-1,1.4c-0.5,0.7-1.1,1.4-1.6,2.1&#xD;&#xA;			c-36.8,7.1-90.6,6.8-125.6,5.5" />
		<path class="st5" d="M289.1,329.2c-0.7,1.3-1.4,2.5-2.2,3.8c-0.1,0.2-0.3,0.5-0.5,0.7s-0.5,0.8-0.9,1.2c-0.1,0.2-0.3,0.4-0.4,0.6&#xD;&#xA;			c-0.3,0.4-0.6,0.8-0.9,1.2c-0.8,1.1-1.8,2.4-2.9,3.7l-1.2,1.4c-0.9,1.1-1.9,2.3-3,3.6c-0.5,0.6-1.1,1.3-1.7,2s-1.2,1.4-1.8,2.1&#xD;&#xA;			l0,0c-7.1,2.1-19.8,3.4-34.5,4.2l0,0l-1.4,0.1l-2.9,0.1h-0.1l-1.7,0.1l-1.8,0.1l0,0l-4.1,0.2h-0.4l-4.6,0.2l-4.6,0.1l-3.3,0.1&#xD;&#xA;			h-1.4l0,0h-1.8h-1.8l-3.6,0.1H205h-2.8h-3.5h-8.5c-22.6,0.1-40.6-0.4-40.6-0.4" />
		<path class="st5" d="M273.7,349.5l1.6,16.3c0,0,27.3,26.8,7.3,104.7" />
		<path class="st5" d="M149.7,371.3L149.7,371.3L149.7,371.3L149.7,371.3C149.6,371.3,149.6,371.3,149.7,371.3&#xD;&#xA;			c-0.2-0.2-0.4-0.3-0.5-0.5c-0.1-0.1-0.3-0.3-0.5-0.5s-0.3-0.3-0.5-0.5s-0.5-0.5-0.7-0.8s-0.5-0.6-0.8-0.9s-0.6-0.8-1-1.2l-0.5-0.6&#xD;&#xA;			l-0.5-0.6c-0.4-0.5-0.8-1.1-1.2-1.7s-0.8-1.1-1.1-1.6s-0.8-1.2-1.2-1.8s-0.9-1.4-1.4-2.1l-1.3-2c-0.4-0.7-0.9-1.4-1.3-2.1&#xD;&#xA;			s-0.9-1.4-1.3-2.1l-1.2-2.1c-0.8-1.4-1.6-2.8-2.4-4.1l-0.8-1.5l-1.4-2.4l0,0c-2.7-4.8-5.9-10.4-7.7-13.7" />
		<path class="st5" d="M144.4,348.5l0.2,0.2l0,0c0.1,0.2,0.3,0.4,0.5,0.6l0.3,0.4l0.2,0.2v0.1l0,0l0.3,0.4l0.4,0.4l0.1,0.2l0.7,0.8&#xD;&#xA;			l0.9,1c0.5,0.6,1,1.2,1.6,1.9l0.1,0.1" />
		<path class="st5" d="M130.7,322.5c0,0,0,0.1,0,0.1l0.3,0.7c0.1,0.2,0.2,0.5,0.3,0.7c0,0,0,0.1,0,0.1c0.1,0.3,0.2,0.6,0.4,1&#xD;&#xA;			s0.2,0.5,0.3,0.8s0.2,0.5,0.3,0.8c0.3,0.7,0.6,1.5,1,2.3c0.2,0.4,0.3,0.8,0.5,1.1v0.1c0.1,0.2,0.2,0.4,0.3,0.6s0.3,0.6,0.5,1&#xD;&#xA;			c0.2,0.5,0.4,1,0.7,1.5c0.1,0.1,0.1,0.2,0.2,0.4l0.1,0.3c0.4,0.8,0.8,1.6,1.2,2.4l0.6,1.2l0.1,0.3c0.5,1,1.1,2,1.7,3&#xD;&#xA;			s1.2,2,1.9,3.1c0.2,0.3,0.3,0.5,0.5,0.8l0.5,0.7l1.1,1.6l0,0l0,0l0.1,0.1l0.3,0.5l0.6,0.8l0,0" />
		<polyline class="st5" points="149.7,354.9 149.7,371.3 149.7,371.3 		" />
		<path class="st5" d="M115.4,413.5c0.3-2.6,0.7-5,1.1-7.4c1.4-7.4,3.6-14.7,6.7-21.6" />
		<path class="st5" d="M115.4,413.5c-0.3,3-0.5,6.1-0.5,9.1c0,0.6,0,1.2,0,1.8c0,1.2,0.1,2.4,0.2,3.6c0,0.1,0,0.3,0,0.4&#xD;&#xA;			c0,0.5,0.1,1,0.1,1.5c0,0,0,0.1,0,0.1l0,0c0.1,0.7,0.1,1.3,0.2,2c0.1,0.4,0.1,0.7,0.2,1.1c0.1,0.6,0.2,1.3,0.3,1.9&#xD;&#xA;			c0.3,1.7,0.7,3.3,1.1,5c0,0,0,0,0,0.1c0.2,0.6,0.3,1.2,0.5,1.8c0.1,0.4,0.3,0.9,0.4,1.3c0,0.1,0.1,0.3,0.1,0.4&#xD;&#xA;			c0.2,0.5,0.3,0.9,0.5,1.4c0,0,0,0.1,0,0.1c0.2,0.5,0.4,1.1,0.6,1.6l0,0c0.2,0.5,0.4,1.1,0.7,1.6s0.6,1.2,0.8,1.8&#xD;&#xA;			c0.2,0.4,0.4,0.8,0.6,1.3c0.3,0.6,0.6,1.2,1,1.8c0,0.1,0.1,0.2,0.2,0.3l0.1,0.2v0.1c0.3,0.6,0.7,1.1,1,1.7s0.7,1.1,1.1,1.7&#xD;&#xA;			c0.8,1.1,1.6,2.2,2.4,3.3c0.4,0.5,0.9,1.1,1.3,1.6c1.4,1.7,3,3.2,4.6,4.7c1.3,1.2,2.6,2.4,4.1,3.5c0.9,0.7,1.9,1.4,2.9,1.9&#xD;&#xA;			c5.9,3.5,20.8,9.9,44.9,5.7l3.8-0.6c1.2-0.2,2.4-0.4,3.5-0.6c3.4-0.5,6.7-1,9.8-1.3c1.7-0.2,3.4-0.4,5.1-0.6&#xD;&#xA;			c8.9-0.9,18-1.2,26.9-0.8c21,0.9,29.7,4.8,48.3-3.7c6.2-4.9,9.9-10.3,13.2-16c1.2-2.1,2.3-4.2,3.3-6.5c0.2-0.4,0.3-0.8,0.5-1.2&#xD;&#xA;			c0.1-0.2,0.1-0.4,0.2-0.6c0.2-0.4,0.3-0.9,0.5-1.3c0.3-0.8,0.6-1.7,0.9-2.5c0,0,0,0,0-0.1c0.4-1.4,0.8-2.9,1.1-4.3&#xD;&#xA;			c0.1-0.5,0.2-1,0.3-1.4c0.4-1.7,0.6-3.5,0.9-5.2c0.1-0.5,0.1-1,0.2-1.5s0.1-0.9,0.1-1.3s0.1-1.1,0.1-1.7s0.1-1,0.1-1.5s0-1,0-1.4&#xD;&#xA;			s0-0.9,0-1.4s0-1,0-1.4s0-0.7,0-1c0-0.8-0.1-1.6-0.1-2.4c-0.1-1.4-0.2-2.8-0.4-4.2c-0.6-5.7-1.8-11.4-3.4-16.9&#xD;&#xA;			c-1.2-4.1-2.6-8.1-4.4-12" />
		<path class="st5" d="M63.3,423.4c0.1-1.9,0.2-3.7,0.4-5.4c0.1-1.3,0.3-2.6,0.5-3.8c0.7-4.9,1.8-9.8,3.3-14.6l0,0" />
		<path class="st5" d="M61.9,407.4l5.5-7.8l7.9-11.1c0,0-0.7,9.9-3.3,26.8c19.4,8.2,46.3,44,46.3,44s2-1.2,4.4-5.4" />
		<path class="st5" d="M87.1,380.9c9.4,6.2,18.1,13.5,26,21.6c1.1,1.2,2.2,2.4,3.4,3.6" />
		<path class="st5" d="M87.1,380.9c-5.3-3.5-8.7-5.2-8.7-5.2s-4.6,5.6-9.3,12.1c-5.4,7.3-11.1,15.6-11,18c0,0.6,0.1,1.1,0.3,1.7&#xD;&#xA;			c1.3,3.8,5.9,6.8,5.9,6.8" />
		<path class="st5" d="M63.7,418c-2.7,3.2-5,6.6-7,10.3c-3.3,5.9-5.9,11.7-5.9,11.7l-0.5,7.5l-0.4,7.6" />
		<path class="st5" d="M140.2,472.4c-11.6-17-21.4-74.1,9.4-101.1" />
		<path class="st5" d="M87.1,380.9L87.1,380.9c0.6,0,28.6,1.4,45.1-34.9" />
		<path class="st5" d="M76.7,411.5c0,0,21.7,13.2,41.7,41.1" />
		<path class="st5" d="M342.9,397.6c1.5,4.8,2.6,9.6,3.3,14.6c0.2,1.2,0.3,2.5,0.5,3.8c0.2,1.7,0.3,3.5,0.4,5.4" />
		<path class="st5" d="M348.4,405.4l-5.5-7.8l0,0l-7.9-11.1c0,0,0.7,9.9,3.3,26.8c-14.8,6.3-30.9,24.6-39.2,34.8" />
		<path class="st5" d="M300.1,396.6c1.6-1.6,3.1-3.2,4.7-4.7c8.1-7.7,12.8-9.4,18.5-13.1c5.3-3.5,7.7-5.2,7.7-5.2&#xD;&#xA;			s21.5,25.5,21.4,30.1c-0.1,1.4-0.6,2.8-1.5,4c-1.3,1.7-2.9,3.3-4.7,4.5" />
		<path class="st5" d="M360.4,453l-0.5-7.6l-0.5-7.5c0,0-7.1-15.8-12.9-22" />
		<path class="st5" d="M286.6,348.6c16.9,27.8,36.6,30.3,36.6,30.3" />
		<path class="st5" d="M302.6,436.7c17.5-21.2,31.1-27.2,31.1-27.2" />
		<path class="st6" d="M130.7,322.5L130.7,322.5c-3,2-5.8,4-8.4,5.8" />
		<path class="st6" d="M148.3,300.5l0.6,2.2c-1.9,6.1-5.8,11.4-11,15l0,0" />
		<path class="st6" d="M278.4,321.5c-1.9-1.4-3.5-2.7-4.9-3.8c-0.8-0.7-1.6-1.4-2.3-2.1c-2.3-2.4-3.3-5.7-2.9-9" />
		<path class="st6" d="M296.3,334.5c-1.9-1.5-4.5-3.4-7.2-5.4" />
		<path class="st1" d="M277.3,374.9c-0.2-2.7-2.2-4.6-4.5-4.3s-3.9,2.6-3.7,5.3c0.1,1,0.5,2,1.1,2.9l0,0c0.4,0.5,0.8,0.8,1.3,1.1&#xD;&#xA;			c0.2,0.1,0.5,0.2,0.8,0.3l0,0c0.3,0.1,0.7,0.1,1,0.1c0.1,0,0.1,0,0.2,0c0.3,0,0.6-0.1,0.8-0.2l0.3-0.1l0.3-0.1&#xD;&#xA;			c0.2-0.1,0.4-0.2,0.5-0.4c0.1-0.1,0.3-0.2,0.4-0.4c0-0.1,0.1-0.1,0.1-0.2s0.2-0.2,0.3-0.4s0.2-0.2,0.2-0.4&#xD;&#xA;			c0.1-0.1,0.2-0.3,0.2-0.5c0.1-0.1,0.1-0.3,0.2-0.4s0.1-0.3,0.1-0.4l0,0c0-0.1,0.1-0.3,0.1-0.5c0-0.2,0-0.3,0.1-0.5&#xD;&#xA;			c0-0.2,0-0.4,0-0.5C277.3,375.2,277.3,375,277.3,374.9z M274,375.3c0,0.1,0,0.1,0,0.2c0,0,0,0.1,0,0.1c0,0,0,0.1,0,0.1l0,0&#xD;&#xA;			c0,0,0,0,0,0.1c0,0.1-0.1,0.1-0.1,0.1l0,0c-0.1,0.1-0.1,0.1-0.2,0.1l0,0c-0.1,0-0.1,0.1-0.2,0.1c-0.1,0-0.1,0-0.2,0&#xD;&#xA;			c0,0-0.1,0-0.1,0l-0.1-0.1c0,0-0.1,0-0.1-0.1c-0.1-0.1-0.2-0.3-0.3-0.5c0,0,0,0,0-0.1c0,0,0,0,0-0.1c0-0.1,0-0.3,0.1-0.4&#xD;&#xA;			c0-0.1,0.1-0.2,0.1-0.2c0-0.1,0.1-0.1,0.1-0.1l0.2-0.1c0.1,0,0.1-0.1,0.2-0.1c0.4,0,0.8,0.3,0.8,0.7c0,0,0,0,0,0L274,375.3z" />
		<path class="st1" d="M270.7,392.8l2.6,0.6c0,0-0.1,1.6-0.2,4.3l-6-1.6c0.7-2.6,1.1-4,1.1-4L270.7,392.8z" />
		<path class="st1" d="M267.7,460.6c-1.4-0.1-2.8-0.5-4.1-1.1c-2.2-1.1-4.1-2.7-5.7-4.6c2.4-29.5,7.1-50.4,9.2-58.8l6,1.6&#xD;&#xA;			c-0.5,11.4-1.6,41.9-1.5,51l0.1,11.3C270.5,460.5,269.1,460.7,267.7,460.6z" />
		<path class="st1" d="M155.2,397.7l2.5-0.6c0,0,0.4,1.4,1.1,4l-5.9,1.6c-0.1-2.7-0.2-4.3-0.2-4.3L155.2,397.7z" />
		<path class="st1" d="M153.3,380.4c-0.2,0-0.3,0-0.5,0c-0.3,0.1-0.5,0.2-0.7,0.4c-0.2-0.2-0.3-0.5-0.2-0.7c0-0.4,0.3-0.8,0.8-0.8&#xD;&#xA;			c0,0,0,0,0,0c0.4,0.1,0.7,0.5,0.6,0.9C153.3,380.4,153.3,380.4,153.3,380.4z" />
		<path class="st1" d="M153,375.4c-2.2-0.3-4.2,1.7-4.4,4.3c-0.3,2,0.8,4,2.6,5c0.3,0.1,0.7,0.3,1.1,0.3c1.3,0.1,2.6-0.4,3.4-1.5&#xD;&#xA;			l0,0c0.7-0.8,1-1.8,1.1-2.9C156.9,378,155.2,375.7,153,375.4z M153.3,380.4L153.3,380.4c0,0.2-0.1,0.4-0.2,0.5&#xD;&#xA;			c-0.1,0.1-0.1,0.1-0.2,0.1l0,0c-0.1,0-0.2,0-0.3,0h-0.1c-0.1,0-0.1,0-0.1-0.1c-0.1,0-0.1-0.1-0.2-0.1l0,0&#xD;&#xA;			c-0.1-0.1-0.1-0.2-0.2-0.3c-0.1-0.1-0.1-0.3-0.1-0.4c0,0,0-0.1,0-0.1c0,0,0,0,0-0.1c0,0,0,0,0-0.1c0,0,0-0.1,0-0.1&#xD;&#xA;			c0-0.1,0.1-0.1,0.1-0.2l0.1-0.1c0,0,0-0.1,0.1-0.1l0.1-0.1c0.1,0,0.2-0.1,0.3-0.1h0.1C153,379.5,153.3,379.9,153.3,380.4&#xD;&#xA;			C153.3,380.3,153.3,380.3,153.3,380.4L153.3,380.4z" />
		<path class="st1" d="M168,459.8c-1.6,1.9-3.5,3.5-5.7,4.6l0,0c1.4-18.7-2.2-41.8-2.7-45.3l2.9-0.8&#xD;&#xA;			C165.1,432,166.9,445.9,168,459.8z" />
		<path class="st1" d="M159.5,419.1c0.6,3.6,4.1,26.6,2.7,45.3l0,0c-1.3,0.6-2.7,1-4.1,1.1c-1.4,0.1-2.7-0.1-4-0.6l0.1-11.3&#xD;&#xA;			c0.1-9.1-1.1-39.6-1.5-51l5.9-1.6c0.9,3.6,2.3,9.4,3.8,17.2L159.5,419.1z" />
		<path class="st7" d="M152.1,380.9c-0.2-0.2-0.3-0.5-0.2-0.7c0-0.4,0.3-0.8,0.8-0.8c0,0,0,0,0,0c0.4,0.1,0.7,0.5,0.6,0.9&#xD;&#xA;			c0,0,0,0.1,0,0.1c0,0.4-0.4,0.7-0.8,0.6C152.4,381.1,152.2,381,152.1,380.9z" />
		<path class="st7" d="M151.1,384.7c-1.8-1-2.9-3-2.6-5c0.2-2.6,2.2-4.6,4.4-4.3s3.9,2.6,3.7,5.3c-0.1,1-0.5,2-1.1,2.9&#xD;&#xA;			c-0.8,1-2.1,1.6-3.4,1.5C151.8,385,151.5,384.9,151.1,384.7z" />
		<path class="st7" d="M153.3,380.4c-0.2,0-0.3,0-0.5,0c-0.3,0.1-0.5,0.2-0.7,0.4l0,0c-0.8,1.1-1.2,2.5-1,3.9c0,0.3,0,0.6,0.1,0.9&#xD;&#xA;			c0.4,2.6,1.7,4.5,3,4.3h0.1c1.2-0.3,1.9-2.6,1.6-5.2c0-0.4-0.1-0.8-0.2-1.2" />
		<polyline class="st7" points="155.2,397.7 155.2,397.7 154.2,389.9 154,388.1 		" />
		<path class="st7" d="M158.7,401.1c-0.7-2.6-1.1-4-1.1-4l-2.5,0.6l-2.6,0.7c0,0,0.1,1.6,0.2,4.3c0.4,11.4,1.6,41.9,1.5,51&#xD;&#xA;			l-0.1,11.3c1.3,0.5,2.6,0.7,4,0.6c1.4-0.1,2.8-0.5,4.1-1.1c2.2-1.1,4.1-2.7,5.7-4.6c-1.1-13.9-2.9-27.8-5.5-41.5&#xD;&#xA;			C161,410.5,159.6,404.6,158.7,401.1z" />
		<line class="st7" x1="158.7" y1="401.1" x2="152.8" y2="402.6" />
		<path class="st7" d="M157.5,427.5c0,0,1.6,26.1,0.7,38" />
		<path class="st7" d="M159.5,418.6c0,0,0,0.2,0.1,0.5c0.6,3.6,4.1,26.6,2.7,45.3" />
		<path class="st7" d="M273.7,376c0.2-0.2,0.3-0.5,0.2-0.7c0-0.4-0.3-0.8-0.8-0.8c0,0,0,0,0,0c-0.4,0.1-0.7,0.5-0.7,0.9&#xD;&#xA;			c0,0,0,0.1,0,0.1c0.1,0.4,0.4,0.7,0.8,0.7C273.5,376.2,273.6,376.1,273.7,376" />
		<path class="st7" d="M274.7,379.8c1.8-1,2.8-2.9,2.6-5c-0.2-2.7-2.2-4.6-4.5-4.4s-3.9,2.6-3.7,5.3c0.1,1,0.5,2,1.1,2.9&#xD;&#xA;			c0.8,1,2.1,1.6,3.4,1.5C274,380.1,274.4,380,274.7,379.8z" />
		<path class="st7" d="M272.5,375.5c0.2,0,0.3,0,0.5,0c0.3,0.1,0.5,0.2,0.7,0.5l0,0c0.8,1.1,1.2,2.5,1,3.9c0,0.3,0,0.6-0.1,0.9&#xD;&#xA;			c-0.4,2.6-1.7,4.5-3,4.3l0,0c-1.2-0.3-2-2.6-1.6-5.2c0-0.4,0.1-0.8,0.2-1.2l0,0" />
		<polyline class="st7" points="270.7,392.8 271.6,385 271.8,383.2 		" />
		<path class="st7" d="M267.1,396.1c0.7-2.6,1.1-4,1.1-4l2.5,0.6l2.6,0.6c0,0-0.1,1.6-0.2,4.3c-0.5,11.4-1.6,41.9-1.5,51l0.1,11.3&#xD;&#xA;			c-1.3,0.5-2.6,0.7-4,0.6c-1.4-0.1-2.8-0.5-4.1-1.1c-2.2-1.1-4.1-2.7-5.7-4.6C260.3,425.5,265,404.5,267.1,396.1z" />
		<line class="st7" x1="267.1" y1="396.1" x2="273.1" y2="397.7" />
		<path class="st7" d="M268.4,422.6c0,0-1.6,26.2-0.7,38" />
		<path class="st7" d="M266.4,413.7c0,0-4.3,25.5-2.8,45.8" />
		<g class="st8">
			<path d="M144.3,348.4l0.2,0.2l0,0c0.1,0.2,0.3,0.4,0.5,0.6l0.3,0.4l0.2,0.2v0.1l0,0l0.3,0.4l0.4,0.4l0.1,0.2l0.7,0.8l0.9,1&#xD;&#xA;				c0.5,0.6,1,1.2,1.6,1.9l0.1-0.2c0,0,18,0.5,40.6,0.4h8.5h3.5h2.8h0.8l3.6-0.1h1.8h1.8l0,0c0,0,0-0.1,0.1-0.1&#xD;&#xA;				c-21.4-17.2-53.2-29.6-75.2-36.8c1.9-1.3,3.6-2.8,5.1-4.5c0.7-0.8,1.4-1.6,2-2.5c25.9,9.8,61.4,22.9,75.5,35.2&#xD;&#xA;				c0.1,0.1,0.4,0.2,0.7,0.4c1.3,0.8,3.8,2.2,3.8,2.2s24.1-19.4,44.5-35.7c0.5,1,1.1,1.9,1.9,2.7c0.7,0.7,1.5,1.4,2.3,2.1l0,0&#xD;&#xA;				c1.6,1.1,3.3,2.4,5.1,3.8l-0.3,0.2c-0.6,0.5-1.2,0.9-1.8,1.4l-0.4,0.3l-3.1,2.4l-0.2,0.2l-2.6,2l-0.4,0.3l-1.6,1.3l-0.6,0.5&#xD;&#xA;				l-2,1.6c-0.1,0.1-0.3,0.2-0.5,0.4l-0.3,0.2l-2.1,1.7c-5.6,4.5-11.3,9.1-16.4,13.5c-0.9,0.8-1.8,1.6-2.7,2.4&#xD;&#xA;				c-1.5,1.3-2.8,2.6-4.1,3.8l-4.5,0.5h-0.1l-6.1,0.6c0,0-28.8,5.9-37.3,7.1c21.1,1.9,68.5,1.4,68.5,1.4s-51.2,4.8-74.4,5.8&#xD;&#xA;				s-35.9,2.4-35.9,2.4l0,0l0,0l0,0l0,0L136,349.5l-9.8-23.9c1.4-1,2.8-1.9,4.3-2.9l0.2-0.1l0,0v0.1l0.3,0.7&#xD;&#xA;				c0.1,0.2,0.2,0.5,0.3,0.7c0,0,0,0.1,0,0.1c0.1,0.3,0.2,0.6,0.4,1s0.2,0.5,0.3,0.8s0.2,0.5,0.3,0.8c0.3,0.7,0.6,1.5,1,2.3&#xD;&#xA;				c0.2,0.4,0.3,0.8,0.5,1.1v0.1c0.1,0.2,0.2,0.4,0.3,0.6s0.3,0.6,0.5,1c0.2,0.5,0.4,1,0.7,1.5c0.1,0.1,0.1,0.2,0.2,0.4l0.1,0.3&#xD;&#xA;				c0.4,0.8,0.8,1.6,1.2,2.4l0.6,1.2l0.1,0.3c0.5,1,1.1,2,1.7,3s1.2,2,1.9,3.1c0.2,0.3,0.3,0.5,0.5,0.8l0.5,0.8l0,0&#xD;&#xA;				c0.3,0.5,0.7,1,1,1.5l0,0l0,0l0,0l0.1,0.1l0.3,0.5l0.6,0.8l0,0" />
			<path d="M122.7,453.9L122.7,453.9c-1,1.9-2.3,3.6-3.9,5c-0.2,0.1-0.3,0.2-0.4,0.3c-7.4,8.5-15.8,16.5-32,9.1l0,0&#xD;&#xA;				c4.1-2.8,8.6-6,12-8.6s5.8-4.4,6.1-4.6l-1.3,0.4c-5.3,1.8-25.7,8.5-32.7,10c-4.8,1-9.7,1.4-14.6,1.1c0,0,18.6-1.4,25.3-14&#xD;&#xA;				l6.8-12.6c0,0-21.7,0.9-22.5,1.4c-0.5,0.4-5.2-6.4-8.6-13.2c2-3.7,4.3-7.1,7-10.3c0.1-1.3,0.3-2.6,0.5-3.8c0,0-4.6-3-5.9-6.8&#xD;&#xA;				c-0.2-0.5-0.3-1.1-0.3-1.7c-0.1-2.4,5.6-10.7,11-18l5,2.8l1,3l0.4,1.4c0,0,30,16.1,38.8,31c0.1,0.3,0.1,0.5,0.2,0.8&#xD;&#xA;				c0.3,1.2,0.5,2.3,0.8,3.4c3.8,15.3,6.9,22.5,7.4,23.6L122.7,453.9L122.7,453.9z" />
			<path d="M218.4,462.5l-12-1.8c0,0,15.9,8.7,21.6,10.5c2.2,0.8,4.2,1.7,6.2,2.9c-9-0.4-18-0.1-26.9,0.8c-1.6,0.2-3.3,0.3-5.1,0.6&#xD;&#xA;				c-3.1,0.4-6.3,0.8-9.8,1.3c-1.1,0.2-2.3,0.4-3.5,0.6l-3.8,0.6c-24,4.2-38.9-2.3-44.9-5.7c-1-0.6-2-1.2-2.9-1.9&#xD;&#xA;				c-1.4-1.1-2.8-2.3-4.1-3.5c-1.6-1.5-3.1-3.1-4.6-4.7c-0.5-0.5-0.9-1.1-1.3-1.6c-0.9-1.1-1.7-2.2-2.4-3.3&#xD;&#xA;				c-0.4-0.6-0.8-1.1-1.1-1.7s-0.7-1.1-1-1.7v-0.1v-0.1c-2.2-4.4-4.1-8.9-5.6-13.5c0,0,0,0,0-0.1c-1-3-1.7-6.1-2.2-9.3&#xD;&#xA;				c-0.2-1.4-0.3-2.7-0.4-4.1l0,0c-0.1-4.5,0.1-9.1,0.8-13.5c0.5-3.7,1.1-6.4,1.2-7v-0.1c0,0,1.8-13.5,6.2-20.6l0,0&#xD;&#xA;				c-0.1,0.8-2.4,16.9,6.3,29.7c0.1,0.3,0.3,0.6,0.4,0.9c7.2,14.8,24.1,22.6,24.1,22.6l0.6,26.2h0.1h0.1h0.1l0.2,0.1h0.1&#xD;&#xA;				c1.9,0.6,8,1.9,13.2-5.3c-1-10.6-1.6-15.7-1.8-17.6c0-0.3-0.1-0.5-0.1-0.7c0-0.1,0-0.1,0-0.2c14.1,5.9,28.8,10.3,43.9,13.1&#xD;&#xA;				c24,4.3,42.2,9,42.2,9S230.4,464.3,218.4,462.5z" />
			<path d="M188.6,405.5c0,0,16.9,0.7,33.2,0c9.3-0.5,18.6-0.4,27.9,0.3c0,0-27.9,6.1-41.4,5.5l-30.5-1.3L188.6,405.5z" />
			<path d="M199.6,399.9c0,0,11.3-0.6,22.2,0c5.9,0.4,11.8,0.4,17.7,0c0,0-23.4-3.7-25.6-3.7S199.6,399.9,199.6,399.9z" />
			<path d="M358,466.6L358,466.6c-5.4,2-13,3.6-23.4,3.3c-2.8,0-6.1-1.2-9.5-3.1c0,0-16.3,7.2-29.3-12.4c1.4-2.1,2.6-4.4,3.6-6.8&#xD;&#xA;				l0,0c0.7-1.7,1.3-3.5,1.8-5.3c0,0,0,0,0-0.1c2.1-8.2,2.9-16.6,2.3-25l0.4,0.4l3.6,4.2l-0.5-32.1l0.2-0.2c0,0-0.1-1.4,0.2-0.2&#xD;&#xA;				c1,5.2,1.6,10.4,2,15.7c0.1,1.8,0.3,3.6,0.5,5.3c0.6,6.6,0,16.5,0.4,20.6c0.3,3.5,0.4,5.7,0.4,5.7l0.4,0.3&#xD;&#xA;				c1,0.7,2.4,3.2,13.7,11.3C335.1,455.7,346.3,461.8,358,466.6z" />
		</g>
	</g>
</g>
</svg>