<svg xmlns="http://www.w3.org/2000/svg" viewBox="0 0 432 432">
  <defs>
    <style>.BUNTAI_MEERKAT_OUTFIT_MEERKAT_OUTFIT_22_cls-1{isolation:isolate;}.BUNTAI_MEERKAT_OUTFIT_MEERKAT_OUTFIT_22_cls-2,.BUNTAI_MEERKAT_OUTFIT_MEERKAT_OUTFIT_22_cls-6{fill:#fff;}.BUNTAI_MEERKAT_OUTFIT_MEERKAT_OUTFIT_22_cls-3{fill:#ffd28e;}.BUNTAI_MEERKAT_OUTFIT_MEERKAT_OUTFIT_22_cls-4{opacity:0.64;}.BUNTAI_MEERKAT_OUTFIT_MEERKAT_OUTFIT_22_cls-5,.BUNTAI_MEERKAT_OUTFIT_MEERKAT_OUTFIT_22_cls-7{fill:#d68c69;}.BUNTAI_MEERKAT_OUTFIT_MEERKAT_OUTFIT_22_cls-6{opacity:0.51;}.BUNTAI_MEERKAT_OUTFIT_MEERKAT_OUTFIT_22_cls-7,.BUNTAI_MEERKAT_OUTFIT_MEERKAT_OUTFIT_22_cls-9{mix-blend-mode:multiply;}.BUNTAI_MEERKAT_OUTFIT_MEERKAT_OUTFIT_22_cls-8{fill:none;stroke:#000;stroke-linecap:round;stroke-linejoin:round;stroke-width:1.55px;}.BUNTAI_MEERKAT_OUTFIT_MEERKAT_OUTFIT_22_cls-9{opacity:0.43;}</style>
  </defs>
  <g class="BUNTAI_MEERKAT_OUTFIT_MEERKAT_OUTFIT_22_cls-1">
    <g id="outfit">
      <path class="BUNTAI_MEERKAT_OUTFIT_MEERKAT_OUTFIT_22_cls-2" d="M201.93,355.42c-5.87,2.75-11.79,5.31-17.66,7.58a281.17,281.17,0,0,1-45.2-46.16,31.6,31.6,0,0,0,7.31-9S172.89,335.11,201.93,355.42Z" />
      <path class="BUNTAI_MEERKAT_OUTFIT_MEERKAT_OUTFIT_22_cls-2" d="M278.18,321.68q-3.36,3.24-6.79,6.27-1.67,1.47-3.35,2.9t-3.56,3c-1.78,1.45-3.57,2.87-5.37,4.24-1.32,1-2.65,2-4,3-3.14,2.32-6.29,4.52-9.44,6.65s-6.26,4.11-9.36,6c-1.58,1-3.14,1.94-4.7,2.87l-4.57,2.69-.05,0-4,2.27c-6.21,3.5-12.24,6.71-18,9.68l-5.58,2.89c-5.33-3.55-10.43-7.31-15.23-11.16,5.87-2.27,11.79-4.83,17.66-7.58A417.94,417.94,0,0,0,270.41,315,61.84,61.84,0,0,0,278.18,321.68Z" />
      <path class="BUNTAI_MEERKAT_OUTFIT_MEERKAT_OUTFIT_22_cls-3" d="M109,455.45H51.13c2.53-14.52,9.59-39.74,14.26-51.2,5.48-13.41,20.77-32,20.77-32h0c0,2.27,0,4.93.11,7.81,0,.55,0,1.12.07,1.69s.07,1.27.11,1.92c0,.46.06.91.09,1.38s.06.88.1,1.33,0,.6.08.91.06.71.1,1.07c0,.6.11,1.21.18,1.82a84.34,84.34,0,0,0,2.13,12c.19.75.4,1.5.62,2.22a33.47,33.47,0,0,0,3.56,8.15,21,21,0,0,0,1.29,1.82c.3.37.59.75.87,1.13l.09.12q.36.5.69,1l.19.28c.19.29.37.58.55.87a34.78,34.78,0,0,1,2.46,4.82c.17.4.34.81.49,1.22s.2.54.3.81.15.42.22.63.17.49.25.73c.47,1.44.86,2.89,1.21,4.34.11.45.22.91.32,1.37s.2.92.29,1.37.19.91.28,1.37c.71,3.64,1.27,7.23,2.06,10.62.1.42.2.84.31,1.25s.16.61.24.9l.21.73c.11.37.22.73.34,1.09.23.72.49,1.43.77,2.12.14.35.29.69.44,1l0,.07c.16.36.33.7.51,1a.83.83,0,0,0,.07.13c.1.21.21.41.33.61s.39.65.6,1l.09.16Z" />
      <path class="BUNTAI_MEERKAT_OUTFIT_MEERKAT_OUTFIT_22_cls-3" d="M168.25,393.27l0,0c-.87.88-1.72,1.79-2.55,2.74l-.83,1c-.28.32-.55.65-.82,1q-1.72,2.11-3.32,4.37c-.45.62-.88,1.24-1.31,1.88l-.39.59c-.36.53-.71,1.06-1.05,1.6l-.09.15q-.31.48-.6,1a4,4,0,0,0-.27.44c-.29.46-.58.92-.85,1.39L154.6,412l-.12.21c-2.28,4.11-4.31,8.26-6.06,12.21-.32.71-.62,1.41-.92,2.1l-.59,1.4-.47,1.14c-.69,1.68-1.33,3.3-1.9,4.83l-.58,1.53c-.12.33-.24.65-.35,1-.32.87-.61,1.71-.89,2.5-.13.38-.26.74-.37,1.09s-.19.54-.27.81c-.3.86-.55,1.65-.78,2.37-.12.39-.24.76-.34,1.1s-.13.38-.18.57a1.54,1.54,0,0,0-.05.17q0,.17-.09.3h0c-.22.71-.39,1.28-.5,1.69l0,.17c-.1.35-.15.54-.15.54l-.36,1.66s0,.05,0,.07l-.64,3h0l-.64,2.94a.28.28,0,0,0,0,.06H109v0l-.09-.15-.08-.13c-.24-.37-.47-.75-.69-1.13-.12-.2-.23-.4-.33-.61a.83.83,0,0,1-.07-.13c-.18-.35-.35-.69-.51-1l0-.07c-.15-.34-.3-.68-.44-1-.28-.69-.54-1.4-.77-2.12-.12-.36-.23-.72-.34-1.09l-.21-.73q-.12-.44-.24-.9c-.11-.41-.21-.83-.31-1.25-.79-3.39-1.35-7-2.06-10.62-.09-.45-.18-.91-.28-1.37s-.19-.91-.29-1.37-.2-.91-.32-1.37c-.35-1.45-.74-2.9-1.21-4.34-.08-.24-.16-.48-.25-.73s-.14-.42-.22-.63-.19-.54-.3-.81-.32-.82-.49-1.22A34.78,34.78,0,0,0,97,417.76c-.18-.29-.36-.59-.55-.87l-.19-.28q-.33-.5-.69-1l-.09-.12c-.28-.38-.57-.76-.87-1.13a20.42,20.42,0,0,1-1.29-1.82,33.47,33.47,0,0,1-3.56-8.15c-.22-.72-.43-1.47-.62-2.22a84.34,84.34,0,0,1-2.13-12c-.07-.61-.13-1.22-.18-1.82,0-.36-.07-.71-.1-1.07s-.06-.61-.08-.91-.07-.89-.1-1.33-.07-.92-.09-1.38c0-.65-.08-1.29-.11-1.92s0-1.14-.07-1.69c-.11-2.88-.13-5.54-.11-7.81.25-.41,7.67-12.56,16-23.45A112,112,0,0,1,117,333.48l.48.86.43.75.66,1.11.75,1.24.67,1.07c.29.47.6.95.91,1.43l1.14,1.75.16.23c1.4,2.11,3,4.34,4.63,6.65l1.19,1.62.67.9.52.69.81,1.08.69.9.37.48.8,1q1.33,1.71,2.74,3.45l.59.73,0,0,.73.89.11.13.91,1.11,1.54,1.83.67.8.06.07c.13.15.25.3.39.45q3.26,3.83,6.76,7.63l1.53,1.65,1.33,1.41.76.8,1.21,1.25.37.38.3.3a1.58,1.58,0,0,0,.13.13l1.44,1.46c.94.94,1.89,1.88,2.85,2.8s1.92,1.85,2.89,2.74l1,.9c.21.2.41.39.62.56s.38.36.57.53l.41.37c.44.4.89.8,1.33,1.18.59.53,1.19,1.05,1.79,1.56l.18.16,1,.88.3.25C167,392.24,167.62,392.76,168.25,393.27Z" />
      <path class="BUNTAI_MEERKAT_OUTFIT_MEERKAT_OUTFIT_22_cls-3" d="M199.5,374.16,198,375l-.46.23-.91.47-1.11.58,0,0h0l-.48.25-2,1-2.4,1.25c-1,.49-1.88,1-2.8,1.48-3.69,1.94-7.11,3.81-10.22,5.63a38.06,38.06,0,0,0-3.77,2.52c-.35.26-.7.52-1,.8s-.77.62-1.15.95l-.69.59-.39.35-.76.73c-.47.43-.93.88-1.39,1.34l-.09.09c-.63-.51-1.26-1-1.88-1.56l-.3-.25-1-.88-.18-.16c-.6-.51-1.2-1-1.79-1.56-.44-.38-.89-.78-1.33-1.18l-.41-.37-.57-.53c-.21-.17-.41-.36-.62-.56l-1-.9c-.81-.75-1.61-1.51-2.41-2.28l-.48-.46c-1-.92-1.91-1.86-2.85-2.8L152,378.32a1.58,1.58,0,0,1-.13-.13l-.3-.3-.37-.38c-.41-.41-.81-.83-1.21-1.25l-.76-.8-1.33-1.41-1.53-1.65q-3.51-3.79-6.76-7.63l-.39-.45-.06-.07-.67-.8-1.54-1.83-.91-1.11-.11-.13-.73-.89-.61-.77q-1.41-1.74-2.74-3.45l-.8-1-.37-.48-.69-.9-.81-1.08-.52-.69-.67-.9-1.19-1.62c-1.68-2.31-3.23-4.54-4.63-6.65l-.16-.23-1.14-1.75c-.32-.48-.62-1-.91-1.43l-.67-1.07-.75-1.24-.66-1.11-.43-.75-.48-.86.44-.38c2.1-1.83,4.22-3.58,6.26-5.19a122.07,122.07,0,0,1,11-7.82,32.62,32.62,0,0,0,4.42-3.25A281.17,281.17,0,0,0,184.27,363C189.07,366.85,194.17,370.61,199.5,374.16Z" />
      <path class="BUNTAI_MEERKAT_OUTFIT_MEERKAT_OUTFIT_22_cls-3" d="M297.23,335.37c-4.36,4.35-9.73,9.4-15.55,14.58-.73.65-1.46,1.3-2.21,1.95l-2.24,2c-.94.82-1.89,1.63-2.84,2.43-.79.68-1.59,1.35-2.39,2-4.38,3.68-8.83,7.26-13.15,10.54h0l-.26.2h0l-2.29,1.71c-2.92,2.16-5.75,4.16-8.44,5.92l-.81.54q-1.85,1.2-3.8,2.41l-2.65,1.62-.37.22h0l-2,1.22-1.38.82-.22.13-2.46,1.45-2.5,1.48c-4.1,2.42-8.33,4.93-12.57,7.6-.5.31-1,.62-1.49.94-1,.63-2,1.27-3,1.92l-1.49,1c-3,2-5.93,4-8.82,6.24-.47.34-.94.7-1.41,1.07q-2.15,1.65-4.23,3.4c-.42.33-.83.68-1.24,1.05s-1,.87-1.51,1.31l-1.35,1.22-1.33,1.24c-.43.4-.85.82-1.28,1.23-1.74,1.71-3.43,3.47-5,5.31-.41.46-.8.92-1.2,1.39s-.78.93-1.16,1.41l-1.14,1.42s0,0,0,0c-.35.46-.7.91-1,1.38s-.78,1.06-1.16,1.6-.69,1-1,1.49c-.69,1-1.36,2.07-2,3.13-.32.53-.64,1.07-.94,1.61s-.61,1.08-.91,1.63c0,0,0,0,0,0-.24.45-.48.91-.71,1.37a70.87,70.87,0,0,0-3.77,8.76c-.12.33-.23.66-.34,1s-.23.66-.33,1c-.17.51-.33,1-.48,1.54s-.23.77-.33,1.16l-.15.53c-.12.44-.23.88-.34,1.32l-.06.24c-.13.51-.26,1-.37,1.56s-.26,1.17-.38,1.77H138.27a.28.28,0,0,1,0-.06l.64-2.94h0l.64-3s0,0,0-.07l.36-1.66s0-.19.15-.54c0-.05,0-.11,0-.17l.11-.39c0-.1.07-.22.1-.34a.56.56,0,0,0,0-.12c.07-.26.16-.54.25-.84,0-.07,0-.14.07-.22s.1-.36.16-.54.12-.39.19-.6.2-.64.31-1l.28-.85c0-.08.05-.16.08-.25l.23-.69c.35-1.07.75-2.24,1.2-3.5,0-.1.07-.2.11-.31l.12-.32c.07-.21.15-.43.23-.65s.23-.64.35-1l.58-1.53c.57-1.53,1.21-3.15,1.9-4.83.15-.38.31-.76.47-1.14.33-.8.68-1.61,1-2.44.15-.35.31-.7.47-1.06a.14.14,0,0,1,0-.06l.65-1.43c.24-.52.48-1,.73-1.58s.45-1,.69-1.45.39-.83.6-1.24l.23-.47c.22-.45.45-.9.68-1.35l.15-.3.65-1.24c.51-1,1.05-2,1.59-3l.19-.34.65-1.13c.29-.51.59-1,.89-1.53s.56-.93.85-1.39l1-1.55c.34-.54.69-1.07,1.05-1.6l1-1.54q.32-.46.66-.93c.53-.75,1.07-1.49,1.63-2.22s1.11-1.44,1.69-2.15c.38-.47.77-.93,1.16-1.39s1-1.11,1.47-1.65l0,0,.63-.67.92-1,0,0,.09-.09c.46-.46.92-.91,1.39-1.34l.91-.86.93-.81c.38-.32.76-.64,1.15-.95l1-.8a4.33,4.33,0,0,1,.37-.27c.26-.2.51-.38.77-.56.44-.31.89-.61,1.34-.9s.86-.54,1.29-.79c3.11-1.82,6.53-3.69,10.22-5.63l2.8-1.48,4.86-2.52.07,0,1.11-.58.91-.47.1,0L198,375l1.54-.8,5.58-2.89c5.72-3,11.75-6.18,18-9.68l4-2.27.05,0,4.57-2.69c1.56-.93,3.12-1.89,4.7-2.87,3.1-1.92,6.23-3.93,9.36-6s6.3-4.33,9.44-6.65c1.33-1,2.65-2,4-3,1.8-1.37,3.59-2.79,5.37-4.24q1.78-1.46,3.56-3t3.35-2.9q3.42-3,6.79-6.27c1.75,1.31,3.77,2.71,6.05,4.11A109,109,0,0,1,297.23,335.37Z" />
      <path class="BUNTAI_MEERKAT_OUTFIT_MEERKAT_OUTFIT_22_cls-3" d="M359,455.45H312.56c3-4.52,4.17-10.07,5.25-16,0,0,0-.06,0-.1l.09-.51c.38-2.06.75-4.16,1.2-6.28a58.79,58.79,0,0,1,2.31-8.31,34.38,34.38,0,0,1,5.52-9.91,22.32,22.32,0,0,0,2.59-4.15,29.67,29.67,0,0,0,1.22-2.79,70.56,70.56,0,0,0,3.79-17.33h0a146.46,146.46,0,0,1,16.14,31.12C354.72,431.93,357.43,445.78,359,455.45Z" />
      <path class="BUNTAI_MEERKAT_OUTFIT_MEERKAT_OUTFIT_22_cls-3" d="M334.55,390.1a70.56,70.56,0,0,1-3.79,17.33,29.67,29.67,0,0,1-1.22,2.79h0a22.23,22.23,0,0,1-2.59,4.14,34.38,34.38,0,0,0-5.52,9.91,58.79,58.79,0,0,0-2.31,8.31c-.45,2.12-.82,4.22-1.2,6.28l-.09.51s0,.07,0,.1c-1.08,5.9-2.23,11.45-5.25,16H169c.12-.6.24-1.19.38-1.77s.24-1,.37-1.56l.06-.24c.11-.44.22-.88.34-1.32l.15-.53.33-1.16c.15-.52.31-1,.48-1.54q.15-.49.33-1c.11-.33.22-.67.34-1a70.87,70.87,0,0,1,3.77-8.76c.23-.46.47-.92.71-1.37,0,0,0,0,0,0,.3-.55.6-1.09.91-1.63s.62-1.08.94-1.61c.64-1.06,1.31-2.1,2-3.13.33-.5.67-1,1-1.49s.77-1.07,1.16-1.6.69-.92,1-1.38c0,0,0,0,0,0l1.14-1.42c.38-.48.77-1,1.16-1.41s.79-.93,1.2-1.39c1.61-1.84,3.3-3.6,5-5.31.43-.41.85-.83,1.28-1.23l1.33-1.24,1.35-1.22c.5-.44,1-.88,1.51-1.31s.82-.71,1.24-1.05q2.08-1.75,4.23-3.4c.47-.37.94-.72,1.41-1.07,2.89-2.19,5.85-4.26,8.82-6.24l1.49-1c1-.65,2-1.29,3-1.92.49-.32,1-.63,1.49-.94,4.24-2.67,8.47-5.18,12.57-7.6l2.5-1.48,2.46-1.45.22-.13,1.38-.82,2-1.22h0l.37-.22,2.65-1.62q2-1.22,3.8-2.41l.81-.54c2.69-1.76,5.52-3.76,8.44-5.92l2.29-1.71h0l.27-.21h0c4.32-3.28,8.77-6.86,13.15-10.54.8-.67,1.6-1.34,2.39-2,.95-.8,1.9-1.61,2.84-2.43l2.24-2c.75-.65,1.48-1.3,2.21-1.95,5.82-5.18,11.19-10.23,15.55-14.58,7.22,6.15,14.87,14.13,19.84,22.93C325.24,372.75,334.27,389.58,334.55,390.1Z" />
      <g class="BUNTAI_MEERKAT_OUTFIT_MEERKAT_OUTFIT_22_cls-4">
        <path class="BUNTAI_MEERKAT_OUTFIT_MEERKAT_OUTFIT_22_cls-5" d="M256.53,375.74c-4.17,3.33-5.42,4-7.57,4.27a10.6,10.6,0,0,1-2.4,0c-1.15,1-4.59,3.83-7,4.87a16.62,16.62,0,0,1-6.16-3.27,39.17,39.17,0,0,1-8.73-.89c-5.4-1.42-8.12-4.73-8-7a1.11,1.11,0,0,1,.12-.45c.86-1.72,6-.95,6-.95l.22-.06c-.33-.55-.71-1.26-1.07-2a9.84,9.84,0,0,1-1.06-3.63c-.06-2.63,1.71-4.54,2.74-4.62a4.7,4.7,0,0,0,2.3-.49c.45-.29,3.57.88,6.19,2.58.4.26.8.53,1.17.82a10.18,10.18,0,0,1,1.55,1.41,32.85,32.85,0,0,1,3.31,4.22A2.4,2.4,0,0,1,238,369a9.28,9.28,0,0,1,1.89-2h0a27.91,27.91,0,0,1,5.4-3.8h0a6.1,6.1,0,0,1,1.31-.53c2.83-.76,5.91-.34,7,1.59a4.51,4.51,0,0,1-.16,5.4,13.56,13.56,0,0,0-1.19,1.57c1.36-.51,3-1.09,4.48-1.57,3.53-1.11,4.82-2,5.14-1.9S260.7,372.41,256.53,375.74Z" />
        <path class="BUNTAI_MEERKAT_OUTFIT_MEERKAT_OUTFIT_22_cls-6" d="M232.1,364s-.43.43-2.72-.6-4.08-1-6,.28-1.46,6.48-1.46,6.48a9.84,9.84,0,0,1-1.06-3.63c-.06-2.63,1.71-4.54,2.74-4.62a4.7,4.7,0,0,0,2.3-.49C226.36,361.15,229.48,362.32,232.1,364Z" />
        <path class="BUNTAI_MEERKAT_OUTFIT_MEERKAT_OUTFIT_22_cls-6" d="M240.91,366.25a34,34,0,0,1,6.49-2.86c2.5-.59,4.94.13,5.71,1s1,.88,1,.88a4.27,4.27,0,0,0-2.36-2.6,8.91,8.91,0,0,0-5.83.1,14,14,0,0,0-3.11,2Z" />
        <path class="BUNTAI_MEERKAT_OUTFIT_MEERKAT_OUTFIT_22_cls-6" d="M234.47,374.09a16.65,16.65,0,0,0,5.43-1.31,27.22,27.22,0,0,1,2.73-1.18,4.26,4.26,0,0,1,3.49,0,13.58,13.58,0,0,1,3.82,2.77s-.91-2.88-2.28-3.42a6.26,6.26,0,0,0-5.59,0c-2.79,1.16-4,1.78-5.07,2.15S234.47,374.09,234.47,374.09Z" />
        <path class="BUNTAI_MEERKAT_OUTFIT_MEERKAT_OUTFIT_22_cls-6" d="M218.8,372.19a18.23,18.23,0,0,1,5.83,1.21,18.44,18.44,0,0,0,2.9,1.12l4.12.2.92.41-.43-.64s-1.41-1.72-3-1.58a12.21,12.21,0,0,1-4.85-.35A16,16,0,0,0,218.8,372.19Z" />
        <path class="BUNTAI_MEERKAT_OUTFIT_MEERKAT_OUTFIT_22_cls-6" d="M259.25,368.83,250.13,372a15.62,15.62,0,0,0,5.08-.78,39.74,39.74,0,0,0,4.54-2.05l1.41-1.14Z" />
        <path class="BUNTAI_MEERKAT_OUTFIT_MEERKAT_OUTFIT_22_cls-7" d="M256.53,375.74c-4.17,3.33-5.42,4-7.57,4.27a12.49,12.49,0,0,1-4.35-.4h0a37.37,37.37,0,0,1-4.3,1.87,9.43,9.43,0,0,1-1.95,0l-.05,0c-2.33.12-9.24.36-13.67-.79-5.4-1.42-8.12-4.73-8-7a1.11,1.11,0,0,1,.12-.45,23.81,23.81,0,0,1,2,2.32A9.14,9.14,0,0,0,222,378a19.34,19.34,0,0,1-2.08-2.38c-.6-.92,2.14.42,2.14.42a8.52,8.52,0,0,0,5.86,2.1,12.44,12.44,0,0,0,5.78-1.33l.32-.63a18.14,18.14,0,0,1,1.86.23,11.14,11.14,0,0,1,3.77.44c1.51.63,3-1.31,5.33-1.46s2.08,1.71,3.52,1.29c1.91,0,6.4-2.16,8-3.52s5.44-5.5,5.44-5.5C262.23,367.79,260.7,372.41,256.53,375.74Z" />
        <path class="BUNTAI_MEERKAT_OUTFIT_MEERKAT_OUTFIT_22_cls-7" d="M254.28,366.63a29,29,0,0,1-3,2.32c-1.17.7-2.73,1.47-2.82,1.5s-2.17-1.22-2.88-1.15-2.35.44-2.35.44l-2.64.47a3.59,3.59,0,0,1-1.06-.14,3.66,3.66,0,0,0-1.2-.05l-.44-.33s-1.57-1.71-2.75-2.91a19.69,19.69,0,0,0-2.91-2.52,43.71,43.71,0,0,1,3.12,4c-2.31-1.16-6.45-3.5-7.53-3.14s.05,2.95-.72,4A7.43,7.43,0,0,1,225,371c-.05.07-.22,1.8-.22,1.8s3.51-.73,8.07,1.74l9.8-3.69c1.53-.56,3.66-.8,4.56,0a5.89,5.89,0,0,0,2.06,1.33,26.74,26.74,0,0,0,3.66-1.59,8.79,8.79,0,0,0,1.54-2.85A1.44,1.44,0,0,0,254.28,366.63Z" />
        <path class="BUNTAI_MEERKAT_OUTFIT_MEERKAT_OUTFIT_22_cls-7" d="M245.29,379.66a31.07,31.07,0,0,1-4.44,2.6,6,6,0,0,1-2.52.46l-3.15-.05s4,2.27,4.63,2.06a60.57,60.57,0,0,0,5.41-3.56c1.35-.95,1.8-1.29,1.8-1.29Z" />
        <path class="BUNTAI_MEERKAT_OUTFIT_MEERKAT_OUTFIT_22_cls-5" d="M256,395.42c5.46.39,6.9.25,8.79-.74a9.94,9.94,0,0,0,1.93-1.34c1.53.15,6.11.55,8.73.05a14.78,14.78,0,0,0,2.93-6.05,36.1,36.1,0,0,0,6.49-5.55c3.47-4.12,3.59-8.3,2-10.08a1.36,1.36,0,0,0-.38-.3c-1.78-.91-5.43,2.55-5.43,2.55l-.22.07a22.42,22.42,0,0,0-.41-2.22,9.87,9.87,0,0,0-1.42-3.53c-1.61-2.15-4.23-2.71-5.12-2.22a4.6,4.6,0,0,1-2.16.88c-.55,0-2.33,2.68-3.38,5.5a11.27,11.27,0,0,0-.43,1.32,9.35,9.35,0,0,0-.37,2,31.51,31.51,0,0,0,0,5.25,2.5,2.5,0,0,0-.84-1.31,9.59,9.59,0,0,0-2.79-.6h0a29.87,29.87,0,0,0-6.74-.09h0a7.56,7.56,0,0,0-1.4.3c-2.76,1-5,3-4.7,5.18a4.83,4.83,0,0,0,3.53,4.28,16.25,16.25,0,0,1,1.95.61c-1.43.34-3.1.77-4.61,1.21-3.56,1.05-5.17,1-5.35,1.3S250.51,395,256,395.42Z" />
        <path class="BUNTAI_MEERKAT_OUTFIT_MEERKAT_OUTFIT_22_cls-6" d="M268.35,372.44s.62.12,1.82-2a5.29,5.29,0,0,1,5-3.08c2.34,0,5.25,4.43,5.25,4.43a9.87,9.87,0,0,0-1.42-3.53c-1.61-2.15-4.23-2.71-5.12-2.22a4.6,4.6,0,0,1-2.16.88C271.18,367,269.4,369.62,268.35,372.44Z" />
        <path class="BUNTAI_MEERKAT_OUTFIT_MEERKAT_OUTFIT_22_cls-6" d="M262.63,379.12a34.78,34.78,0,0,0-7,1.28c-2.39.9-3.91,2.83-4,4s-.29,1.29-.29,1.29-.77-2.08.27-3.41a8.41,8.41,0,0,1,4.78-3.14,15,15,0,0,1,3.76-.1Z" />
        <path class="BUNTAI_MEERKAT_OUTFIT_MEERKAT_OUTFIT_22_cls-6" d="M272.76,381.89a16.33,16.33,0,0,1-5.22,1.95,28.86,28.86,0,0,0-2.94.55,4.08,4.08,0,0,0-2.82,1.94,12.3,12.3,0,0,0-1.34,4.34s-1.07-2.83-.31-4a5.89,5.89,0,0,1,4.51-3.11c3-.61,4.35-.78,5.44-1.07S272.76,381.89,272.76,381.89Z" />
        <path class="BUNTAI_MEERKAT_OUTFIT_MEERKAT_OUTFIT_22_cls-6" d="M284.23,371.7a16.91,16.91,0,0,0-4,4.2,17.47,17.47,0,0,1-1.63,2.51l-3.21,2.44-.49.83-.05-.75s.05-2.17,1.45-2.95a11.16,11.16,0,0,0,3.7-3A15,15,0,0,1,284.23,371.7Z" />
        <path class="BUNTAI_MEERKAT_OUTFIT_MEERKAT_OUTFIT_22_cls-6" d="M249.43,391.34l9.35-2.5a15.31,15.31,0,0,1-4.61,2.18,42.58,42.58,0,0,1-4.95.85l-1.85-.15Z" />
        <path class="BUNTAI_MEERKAT_OUTFIT_MEERKAT_OUTFIT_22_cls-7" d="M256,395.42c5.46.39,6.9.25,8.79-.74A11.41,11.41,0,0,0,268,392h0a38.31,38.31,0,0,0,4.65-.86,8.59,8.59,0,0,0,1.59-1l0-.05c2-1.19,7.68-4.82,10.54-8.2,3.47-4.12,3.59-8.3,2-10.08a1.36,1.36,0,0,0-.38-.3,24.22,24.22,0,0,0-.17,3,8.18,8.18,0,0,1-1,3.78,18.8,18.8,0,0,0,.19-3.07c-.1-1.07-1.47,1.52-1.47,1.52a7.66,7.66,0,0,1-3.42,4.94,12.26,12.26,0,0,1-5.51,2.12l-.64-.33s-1.37,1.13-1.37,1.21A10.49,10.49,0,0,0,270.3,387c-.82,1.35-3.27.62-5.22,1.77s-.61,2.53-2,3c-1.57,1-6.53,1.8-8.65,1.56s-7.85-1.44-7.85-1.44C246.37,392.15,250.51,395,256,395.42Z" />
        <path class="BUNTAI_MEERKAT_OUTFIT_MEERKAT_OUTFIT_22_cls-7" d="M252.06,386.82A32.4,32.4,0,0,0,256,387c1.38-.08,3.13-.32,3.22-.34s1-2.18,1.61-2.52,2.18-.94,2.18-.94l2.42-1.09a3.19,3.19,0,0,0,.77-.69,3.44,3.44,0,0,1,.93-.71l.15-.5s.2-2.25.39-3.88a18.26,18.26,0,0,1,.78-3.64,39.59,39.59,0,0,0,0,5c1.14-2.22,3-6.39,4.11-6.71s1.82,2.41,3.13,2.87a8.58,8.58,0,0,0,2.85.33c.09,0,1.3,1.32,1.3,1.32a11.8,11.8,0,0,0-5.42,5.87c-4.25,1-8.65,2.05-10.24,2.44s-3.46,1.38-3.69,2.5a5.14,5.14,0,0,1-.84,2.21,27.09,27.09,0,0,1-4,.74,10,10,0,0,1-3-1.45A1.49,1.49,0,0,1,252.06,386.82Z" />
        <path class="BUNTAI_MEERKAT_OUTFIT_MEERKAT_OUTFIT_22_cls-7" d="M267.51,392.37a33.61,33.61,0,0,0,5.22-.34,5.89,5.89,0,0,0,2.33-1l2.51-1.78s-1.81,4-2.44,4.23-4.94.13-6.62.11-2.26-.06-2.26-.06Z" />
        <path class="BUNTAI_MEERKAT_OUTFIT_MEERKAT_OUTFIT_22_cls-5" d="M279.46,412.83s-1,.58-3.41,3.66-8.9,9.37-17.3,9.41a44.68,44.68,0,0,1-9-.92c-.67,6.33-4.93,11.74-10.05,15.68-.61-.18-3.06-5.1-4.09-7.23a6.48,6.48,0,0,1-4,1.19c-5.18-.61-11-1.52-19.86,2.06v0a17,17,0,0,1,4-7.13s-.07,0-.1,0c-3-.39-8.25-1.25-10.92-2.64-3.86-2-5.82-11-5.5-11.26s7-.33,11.77-1.29c.95-.19,1.9-.39,2.83-.54l-.13-.15a14.13,14.13,0,0,1-3.09-9.84,6.35,6.35,0,0,1,1.49-3.72h0a14.4,14.4,0,0,1,5.37-3.82h0c.75-.33,1.26-.5,1.26-.5l3.29,2c3.29,2.07,6.42,1.83,11.58,3.05a20.71,20.71,0,0,1,7.65,3.92c.66-4.12,2.89-6.23,7.54-8.84s10.31-4.79,11.82-3.62,2.63,0,3,0a7.65,7.65,0,0,1,4.67,7.57c0,.08,0,.17,0,.24a21.47,21.47,0,0,1-1.34,5.58,46.59,46.59,0,0,1-2.44,5.51l-.11.2c.86-.22,1.67-.39,2.42-.52C272,410,279.46,412.83,279.46,412.83Z" />
        <path class="BUNTAI_MEERKAT_OUTFIT_MEERKAT_OUTFIT_22_cls-6" d="M268.41,399.87c0,.08,0,.17,0,.24a5.08,5.08,0,0,1-.17.51c-1.16-4.76-4.51-5.55-8.76-5.88s-9.67,2.58-12.47,4.74-6.09,8.57-6.09,8.57a22.1,22.1,0,0,0-5-3,72.05,72.05,0,0,0-13-4.6,8.68,8.68,0,0,1-5.29-4.2c.75-.33,1.26-.5,1.26-.5l3.29,2c3.29,2.07,6.42,1.83,11.58,3.05a20.71,20.71,0,0,1,7.65,3.92c.66-4.12,2.89-6.23,7.54-8.84s10.31-4.79,11.82-3.62,2.63,0,3,0A7.65,7.65,0,0,1,268.41,399.87Z" />
        <path class="BUNTAI_MEERKAT_OUTFIT_MEERKAT_OUTFIT_22_cls-6" d="M249.22,416.88s5.54-1.94,9.5-2.87,5.69-1.13,5.69-1.13a16,16,0,0,1,5.17-.66c2.64.16,6.57.47,6.57.47l2.31-.2s-6.46-2.08-10.36-1.74-12,3.19-14.5,3.95A16.24,16.24,0,0,0,249.22,416.88Z" />
        <path class="BUNTAI_MEERKAT_OUTFIT_MEERKAT_OUTFIT_22_cls-6" d="M202.57,415.46a109.49,109.49,0,0,0,12.1-.48c6.39-.62,16.66,2.84,18.81,3.48-7-3.17-10.07-5.35-14.8-5S204.27,415.35,202.57,415.46Z" />
        <path class="BUNTAI_MEERKAT_OUTFIT_MEERKAT_OUTFIT_22_cls-6" d="M235.85,420.34s-4.46,3.83-8,4.84-8.31,1.68-11.42,3.95a27.69,27.69,0,0,1,9.29-4.75c2.91-1,7.64-2.69,9.29-4.43A4.38,4.38,0,0,0,235.85,420.34Z" />
        <path class="BUNTAI_MEERKAT_OUTFIT_MEERKAT_OUTFIT_22_cls-7" d="M271.12,414.23c-2,1.26-1.94,3.73-8.42,6.45a43.16,43.16,0,0,1-18.24,2.68q.51.31,1.08.6a48.33,48.33,0,0,0,13.21,1.94c8.4,0,14.93-6.32,17.31-9.4s3.39-3.66,3.39-3.66S273.09,413,271.12,414.23Z" />
        <path class="BUNTAI_MEERKAT_OUTFIT_MEERKAT_OUTFIT_22_cls-7" d="M216.2,413.46c6.75-.95,8.69,1.13,16.93,4.61-1.59-2.64-12.28-6.29-15.79-8.58s-5-9.05-5.12-9.42a6.29,6.29,0,0,0-1.49,3.71,14.17,14.17,0,0,0,3.08,9.84A17.31,17.31,0,0,0,216.2,413.46Z" />
        <path class="BUNTAI_MEERKAT_OUTFIT_MEERKAT_OUTFIT_22_cls-7" d="M226.27,424.21a24,24,0,0,0,7.73-3.62l-8.23,2.18a37.8,37.8,0,0,1-12.49,1.06c-7-.57-13.93-8.24-13.93-8.24-.32.28,1.64,9.27,5.49,11.27,2.68,1.39,8,2.25,10.93,2.64C218.54,426.92,221.28,425.66,226.27,424.21Z" />
        <path class="BUNTAI_MEERKAT_OUTFIT_MEERKAT_OUTFIT_22_cls-7" d="M249.46,425.09l-5.18-1.35s-.35.59-.9,1.43c.23-.38.44-.74.59-1.05-.55-.22-7.8,5.77-10.86,7.05s-6.94.9-12.77,1.43a12.44,12.44,0,0,0-8.51,4.06v0c8.86-3.59,14.68-2.68,19.85-2.07,2.18.26,4.75-1.43,7-3.62l.21,1.44a8.4,8.4,0,0,1-1,5.35s1.06,3.08,2.46,2.37,6.6-6.59,8.33-11.32C249.71,424.79,249.46,425.09,249.46,425.09Z" />
        <path class="BUNTAI_MEERKAT_OUTFIT_MEERKAT_OUTFIT_22_cls-7" d="M239.52,420.09c2.3-.7,3.89-2,3.57-3a8.57,8.57,0,0,0,1.35.44c1.9.27,12.81-3.34,18.65-5.7l1.52-.63a47.09,47.09,0,0,0,2.44-5.5c-6.25,4.15-15.86,7.87-15.86,7.87s.29-.35,3.89-4.29c5.28-4.65,5.21-6.88,2.31-7.47-1.18.31-3.68,3.86-10.36,8.7,4.91-6.06-.49-7-.49-7a33.61,33.61,0,0,0-2.46,5.36,24.92,24.92,0,0,1-4.34,6.72.71.71,0,0,0,.35.65,9.33,9.33,0,0,0-1.77.37c-2.31.7-3.91,2.05-3.57,3S237.21,420.79,239.52,420.09Z" />
        <path class="BUNTAI_MEERKAT_OUTFIT_MEERKAT_OUTFIT_22_cls-5" d="M351.7,428.23s-1,.58-3.41,3.67-8.9,9.36-17.3,9.41a46.18,46.18,0,0,1-9-.92c-.67,6.32-4.93,11.74-10,15.67-.61-.18-3.06-5.09-4.09-7.23a6.36,6.36,0,0,1-4,1.19c-5.17-.61-11-1.52-19.85,2.07v0a17,17,0,0,1,4-7.13l-.1,0c-3-.4-8.25-1.26-10.92-2.65-3.86-2-5.82-11-5.5-11.26s7-.32,11.77-1.29c.95-.19,1.9-.38,2.83-.54l-.13-.15a14.13,14.13,0,0,1-3.09-9.84,6.35,6.35,0,0,1,1.49-3.72h0a14.51,14.51,0,0,1,5.37-3.82h0c.75-.34,1.26-.51,1.26-.51l3.29,2.06c3.29,2.06,6.42,1.82,11.58,3a20.94,20.94,0,0,1,7.65,3.92c.66-4.11,2.89-6.23,7.54-8.84s10.31-4.79,11.82-3.61,2.62,0,3,0a7.66,7.66,0,0,1,4.68,7.58c0,.07,0,.16,0,.24a21.56,21.56,0,0,1-1.34,5.58,48.13,48.13,0,0,1-2.44,5.51l-.11.19c.86-.22,1.67-.38,2.41-.51C344.23,425.44,351.7,428.23,351.7,428.23Z" />
        <path class="BUNTAI_MEERKAT_OUTFIT_MEERKAT_OUTFIT_22_cls-6" d="M340.65,415.28c0,.07,0,.16,0,.24s-.1.33-.17.5c-1.16-4.75-4.52-5.55-8.76-5.88s-9.67,2.59-12.47,4.75-6.09,8.56-6.09,8.56a22.59,22.59,0,0,0-5-3,72.83,72.83,0,0,0-13-4.6,8.67,8.67,0,0,1-5.29-4.19c.75-.34,1.26-.51,1.26-.51l3.29,2.06c3.29,2.06,6.42,1.82,11.58,3a20.94,20.94,0,0,1,7.65,3.92c.66-4.11,2.89-6.23,7.54-8.84s10.31-4.79,11.82-3.61,2.62,0,3,0A7.66,7.66,0,0,1,340.65,415.28Z" />
        <path class="BUNTAI_MEERKAT_OUTFIT_MEERKAT_OUTFIT_22_cls-6" d="M321.46,432.29s5.54-2,9.5-2.88,5.69-1.13,5.69-1.13a16,16,0,0,1,5.17-.66c2.63.16,6.57.48,6.57.48l2.31-.2s-6.46-2.09-10.36-1.74-12,3.18-14.5,3.94A16.44,16.44,0,0,0,321.46,432.29Z" />
        <path class="BUNTAI_MEERKAT_OUTFIT_MEERKAT_OUTFIT_22_cls-6" d="M274.81,430.86a109.49,109.49,0,0,0,12.1-.48c6.39-.62,16.66,2.84,18.81,3.48-7-3.17-10.07-5.35-14.8-5S276.51,430.75,274.81,430.86Z" />
        <path class="BUNTAI_MEERKAT_OUTFIT_MEERKAT_OUTFIT_22_cls-7" d="M343.36,429.63c-2,1.26-1.94,3.73-8.42,6.45a43.16,43.16,0,0,1-18.24,2.68q.51.32,1.08.6A48.66,48.66,0,0,0,331,441.31c8.4-.05,14.93-6.32,17.31-9.41s3.39-3.66,3.39-3.66S345.33,428.36,343.36,429.63Z" />
        <path class="BUNTAI_MEERKAT_OUTFIT_MEERKAT_OUTFIT_22_cls-7" d="M288.44,428.86c6.75-.95,8.69,1.13,16.92,4.62-1.58-2.64-12.27-6.29-15.78-8.58s-5-9.06-5.12-9.43a6.32,6.32,0,0,0-1.49,3.72,14.19,14.19,0,0,0,3.08,9.84A19.15,19.15,0,0,0,288.44,428.86Z" />
        <path class="BUNTAI_MEERKAT_OUTFIT_MEERKAT_OUTFIT_22_cls-7" d="M298.51,439.61a24.11,24.11,0,0,0,7.73-3.61L298,438.17a37.49,37.49,0,0,1-12.49,1.06c-7-.57-13.93-8.23-13.93-8.23-.32.27,1.64,9.26,5.49,11.26,2.68,1.39,8,2.25,10.93,2.65C290.78,442.33,293.52,441.06,298.51,439.61Z" />
        <path class="BUNTAI_MEERKAT_OUTFIT_MEERKAT_OUTFIT_22_cls-7" d="M311.76,435.49c2.3-.7,3.89-2,3.57-3a7.64,7.64,0,0,0,1.35.44c1.9.27,12.81-3.34,18.65-5.7.56-.22,1.06-.44,1.52-.63a47.09,47.09,0,0,0,2.44-5.5C333,425.26,323.43,429,323.43,429s.29-.35,3.88-4.29c5.29-4.65,5.21-6.87,2.32-7.47-1.18.31-3.68,3.86-10.36,8.7,4.91-6.05-.49-7-.49-7a33.18,33.18,0,0,0-2.46,5.35A25.06,25.06,0,0,1,312,431a.7.7,0,0,0,.35.64,10.18,10.18,0,0,0-1.77.37c-2.31.71-3.91,2.05-3.58,3S309.45,436.2,311.76,435.49Z" />
      </g>
      <path class="BUNTAI_MEERKAT_OUTFIT_MEERKAT_OUTFIT_22_cls-8" d="M278.18,321.68q-3.36,3.24-6.79,6.27-1.67,1.47-3.35,2.9t-3.56,3c-1.78,1.45-3.57,2.87-5.37,4.24-1.33,1-2.65,2-4,3-3.14,2.32-6.29,4.52-9.44,6.65s-6.26,4.11-9.36,6c-1.58,1-3.14,1.94-4.7,2.87l-4.57,2.69-.05,0-4,2.27c-6.21,3.5-12.24,6.71-18,9.68l-5.58,2.89L198,375l-.36.19-.1,0-.91.47-1.11.58-.07,0-4.86,2.52-2.8,1.48c-3.69,1.94-7.11,3.81-10.22,5.63-.43.25-.86.52-1.29.79s-.9.59-1.34.9c-.26.18-.51.36-.77.56a4.33,4.33,0,0,0-.37.27l-1,.8c-.39.31-.77.63-1.15.95l-.93.81-.91.86c-.47.43-.93.88-1.39,1.34l-.09.09,0,0-.92,1-.63.67,0,0q-.75.81-1.47,1.65c-.39.46-.78.92-1.16,1.39-.58.7-1.14,1.42-1.69,2.15s-1.11,1.47-1.63,2.22q-.34.47-.66.93l-1,1.54c-.36.53-.71,1.06-1.05,1.6L157,408c-.29.46-.57.93-.85,1.39s-.6,1-.89,1.53L154.6,412l-.19.34c-.54,1-1.08,2-1.59,3l-.65,1.24-.15.3c-.23.45-.46.9-.68,1.35l-.23.47c-.21.41-.41.83-.6,1.24s-.47,1-.69,1.45-.49,1.06-.73,1.58l-.65,1.43a.14.14,0,0,0,0,.06c-.16.36-.32.71-.47,1.06-.36.83-.71,1.64-1,2.44-.16.38-.32.76-.47,1.14-.69,1.68-1.33,3.3-1.9,4.83-.2.52-.4,1-.58,1.53-.12.33-.24.65-.35,1l-.24.65c0,.11-.07.21-.11.32s-.08.21-.11.31c-.45,1.26-.85,2.43-1.2,3.5l-.23.69c0,.09-.06.17-.08.25l-.28.85c-.11.35-.22.67-.31,1s-.13.41-.19.6-.11.37-.16.54,0,.15-.07.22c-.09.3-.18.58-.25.84a.56.56,0,0,1,0,.12c0,.12-.07.24-.1.34l-.11.39c0,.06,0,.12,0,.17-.1.35-.15.54-.15.54l-.36,1.66s0,.05,0,.07l-.64,3h0l-.64,2.94a.28.28,0,0,0,0,.06" />
      <path class="BUNTAI_MEERKAT_OUTFIT_MEERKAT_OUTFIT_22_cls-8" d="M169,455.45c.12-.6.24-1.19.38-1.77s.24-1.05.37-1.56l.06-.24c.11-.44.22-.88.34-1.32l.15-.53c.1-.39.22-.78.33-1.16s.31-1,.48-1.54q.15-.49.33-1c.11-.34.22-.67.34-1a70.87,70.87,0,0,1,3.77-8.76c.23-.46.47-.92.71-1.37,0,0,0,0,0,0,.3-.55.6-1.09.91-1.63s.62-1.08.94-1.61c.64-1.06,1.31-2.1,2-3.13.33-.5.67-1,1-1.49s.77-1.07,1.16-1.6.69-.92,1-1.38c0,0,0,0,0,0l1.14-1.42c.38-.48.77-1,1.16-1.41s.79-.93,1.2-1.39c1.61-1.84,3.3-3.6,5-5.31.43-.41.85-.83,1.28-1.23l1.33-1.24,1.35-1.22c.5-.44,1-.88,1.51-1.31s.82-.71,1.24-1.05q2.08-1.75,4.23-3.4c.47-.37.94-.72,1.41-1.07,2.89-2.19,5.85-4.26,8.82-6.24l1.49-1c1-.65,2-1.29,3-1.92.49-.32,1-.63,1.49-.94,4.24-2.67,8.47-5.18,12.57-7.6l2.5-1.48,2.46-1.45.22-.13,1.38-.82,2-1.22h0l.37-.22,2.65-1.62q2-1.22,3.8-2.41l.81-.54c2.69-1.76,5.52-3.76,8.44-5.92l2.29-1.71h0l.26-.2h0c4.32-3.28,8.77-6.86,13.15-10.54.8-.66,1.6-1.34,2.39-2,.95-.8,1.9-1.61,2.84-2.43l2.24-2c.75-.65,1.48-1.3,2.21-1.95,5.82-5.18,11.19-10.23,15.55-14.58" />
      <path class="BUNTAI_MEERKAT_OUTFIT_MEERKAT_OUTFIT_22_cls-8" d="M139.07,316.84A281.17,281.17,0,0,0,184.27,363c4.8,3.85,9.9,7.61,15.23,11.16" />
      <path class="BUNTAI_MEERKAT_OUTFIT_MEERKAT_OUTFIT_22_cls-8" d="M168.25,393.27c-.63-.51-1.26-1-1.88-1.56l-.3-.25-1-.88-.18-.16c-.6-.5-1.19-1-1.79-1.56-.44-.38-.89-.78-1.33-1.18-.14-.12-.28-.24-.41-.37s-.38-.34-.57-.53-.41-.36-.62-.56-.65-.59-1-.9c-1-.89-1.94-1.81-2.89-2.74s-1.91-1.85-2.85-2.8c-.48-.48-1-1-1.44-1.46a1.58,1.58,0,0,1-.13-.13l-.3-.3-.37-.38c-.41-.41-.81-.83-1.21-1.25l-.76-.8-1.33-1.41q-.78-.82-1.53-1.65-3.51-3.79-6.76-7.63l-.39-.45-.06-.07-.67-.8-1.54-1.83-.91-1.11-.11-.13-.75-.93-.59-.73q-1.41-1.74-2.74-3.45l-.8-1-.37-.48-.69-.9-.81-1.08-.52-.69-.67-.9-1.19-1.62c-1.68-2.31-3.23-4.54-4.63-6.65l-.16-.23-1.14-1.75c-.32-.48-.62-1-.91-1.43l-.67-1.07c-.26-.42-.51-.83-.75-1.24l-.66-1.11-.43-.75c-.16-.29-.33-.58-.48-.86" />
      <path class="BUNTAI_MEERKAT_OUTFIT_MEERKAT_OUTFIT_22_cls-8" d="M146.38,307.8s26.51,27.31,55.55,47.62" />
      <path class="BUNTAI_MEERKAT_OUTFIT_MEERKAT_OUTFIT_22_cls-8" d="M184.27,363c5.87-2.27,11.79-4.83,17.66-7.58A417.94,417.94,0,0,0,270.41,315" />
      <path class="BUNTAI_MEERKAT_OUTFIT_MEERKAT_OUTFIT_22_cls-8" d="M120.29,394.75c-6,13.8-10.07,34.61-.29,60.7" />
      <path class="BUNTAI_MEERKAT_OUTFIT_MEERKAT_OUTFIT_22_cls-8" d="M132.46,375.76s-6.85,6.72-12.17,19" />
      <path class="BUNTAI_MEERKAT_OUTFIT_MEERKAT_OUTFIT_22_cls-8" d="M124.1,375.76s-4.29,13.28-3.81,19h0" />
      <path class="BUNTAI_MEERKAT_OUTFIT_MEERKAT_OUTFIT_22_cls-8" d="M86.17,372.24c0,2.27,0,4.93.11,7.81,0,.55,0,1.12.07,1.69s.07,1.27.11,1.92c0,.46.06.91.09,1.38s.06.88.1,1.33,0,.6.08.91.06.71.1,1.07c0,.6.11,1.21.18,1.82a84.34,84.34,0,0,0,2.13,12c.19.75.4,1.5.62,2.22a33.47,33.47,0,0,0,3.56,8.15,21,21,0,0,0,1.29,1.82c.3.37.59.75.87,1.13l.09.12q.36.5.69,1l.19.28c.19.29.37.58.55.87a34.78,34.78,0,0,1,2.46,4.82c.17.4.34.81.49,1.22s.2.54.3.81.15.42.22.63.17.49.25.73c.47,1.44.86,2.89,1.21,4.34.11.45.22.91.32,1.37s.2.92.29,1.37.19.91.28,1.37c.71,3.64,1.27,7.23,2.06,10.62.1.42.2.84.31,1.25s.16.61.24.9l.21.73c.11.37.22.73.34,1.09.23.72.49,1.43.77,2.12.14.35.29.69.44,1l0,.07c.16.36.33.7.51,1a.83.83,0,0,0,.07.13c.1.21.21.41.33.61a13.12,13.12,0,0,0,.69,1.13l.18.3" />
      <path class="BUNTAI_MEERKAT_OUTFIT_MEERKAT_OUTFIT_22_cls-8" d="M301.28,394.75c6,13.8,10.07,34.61.29,60.7" />
      <path class="BUNTAI_MEERKAT_OUTFIT_MEERKAT_OUTFIT_22_cls-8" d="M289.11,375.76s6.84,6.72,12.17,19" />
      <path class="BUNTAI_MEERKAT_OUTFIT_MEERKAT_OUTFIT_22_cls-8" d="M297.47,375.76s4.28,13.28,3.81,19h0" />
      <path class="BUNTAI_MEERKAT_OUTFIT_MEERKAT_OUTFIT_22_cls-8" d="M312.56,455.45c3-4.52,4.17-10.07,5.25-16,0,0,0-.06,0-.1l.09-.51c.38-2.06.75-4.16,1.2-6.28a58.79,58.79,0,0,1,2.31-8.31,34.38,34.38,0,0,1,5.52-9.91,22.23,22.23,0,0,0,2.59-4.14h0a29.67,29.67,0,0,0,1.22-2.79,70.56,70.56,0,0,0,3.79-17.33" />
      <path class="BUNTAI_MEERKAT_OUTFIT_MEERKAT_OUTFIT_22_cls-8" d="M51.13,455.45c2.53-14.52,9.59-39.74,14.26-51.2,5.48-13.41,20.77-32,20.77-32h0c.25-.41,7.67-12.56,16-23.45A112,112,0,0,1,117,333.48a142.32,142.32,0,0,1,17.69-13.39,32.62,32.62,0,0,0,4.42-3.25,31.6,31.6,0,0,0,7.31-9" />
      <path class="BUNTAI_MEERKAT_OUTFIT_MEERKAT_OUTFIT_22_cls-8" d="M359,455.45c-1.56-9.67-4.27-23.52-8.29-34.22a146.46,146.46,0,0,0-16.14-31.12h0c-.28-.52-9.31-17.35-17.48-31.8-5-8.8-12.62-16.78-19.84-22.93a109,109,0,0,0-13-9.58c-2.28-1.4-4.3-2.8-6.05-4.11a61.84,61.84,0,0,1-7.77-6.73" />
      <g class="BUNTAI_MEERKAT_OUTFIT_MEERKAT_OUTFIT_22_cls-9">
        <path d="M218,364.58s-19.36,16.68-32.12,29.68-23.2,61.19-23.2,61.19H138.27a140.92,140.92,0,0,1,16.54-43.77c12.88-21.66,22.65-27.74,40.67-35.44Z" />
        <path d="M183.65,382.43a63.63,63.63,0,0,0-6.72,3.48.47.47,0,0,0-.09.06c-3.23,1.92-6.75,4.47-8.5,7.21l-.09.14,0,0c-.73-.61-1.44-1.22-2.15-1.84l-1-.88-.18-.16a156.92,156.92,0,0,1-29.76-35c-5.78-9.27-14.32-18.71-17.7-22.32,2.1-1.83,4.22-3.58,6.26-5.19,4.48,5.85,16,20.65,26.13,31.88,11.59,12.84,29.62,20.86,33.22,22.37Z" />
        <path d="M117.2,378.15a200.21,200.21,0,0,0,.26,24.24l3.37-9.25s-.63-13.73,1.34-23.08c-2.58,12.47-2.61,15.88-2.61,15.88Z" />
        <path d="M304.36,402.29s1.4-8.37,0-14.7a132.8,132.8,0,0,1-2.08-13.43s-.16,8.32,0,11.11a13.3,13.3,0,0,1-.19,4l-2.85-7.33-5.08-8.27s3.73,10.56,4.66,13.29,2.46,7.84,2.46,7.84Z" />
        <path d="M86.16,384s.11,19.4,7.43,29.16,7.94,23.34,9.65,29.47A62.18,62.18,0,0,0,109,455.45H89.54s-5.91-19-8.4-31.71S79.58,401.65,79.89,400,86.16,384,86.16,384Z" />
        <path d="M117.2,403.22a113.48,113.48,0,0,0,9.17,30.64c7.12,14.78,13.56,19.45,13.56,19.45v2.14H119.59a89.82,89.82,0,0,1-5.2-24.39C113.72,418.41,115.3,407.18,117.2,403.22Z" />
      </g>
    </g>
  </g>
</svg>