<svg xmlns="http://www.w3.org/2000/svg" viewBox="0 0 432 432">
  <defs>
    <style>.BUNTAI_MEERKAT_OUTFIT_MEERKAT_OUTFIT_17_cls-1{isolation:isolate;}.BUNTAI_MEERKAT_OUTFIT_MEERKAT_OUTFIT_17_cls-2{fill:#fff;}.BUNTAI_MEERKAT_OUTFIT_MEERKAT_OUTFIT_17_cls-3{fill:#a02b7c;}.BUNTAI_MEERKAT_OUTFIT_MEERKAT_OUTFIT_17_cls-4{fill:#224027;}.BUNTAI_MEERKAT_OUTFIT_MEERKAT_OUTFIT_17_cls-5{fill:#d29c80;}.BUNTAI_MEERKAT_OUTFIT_MEERKAT_OUTFIT_17_cls-6,.BUNTAI_MEERKAT_OUTFIT_MEERKAT_OUTFIT_17_cls-7{fill:none;stroke:#000;stroke-linecap:round;stroke-linejoin:round;}.BUNTAI_MEERKAT_OUTFIT_MEERKAT_OUTFIT_17_cls-6{stroke-width:2px;}.BUNTAI_MEERKAT_OUTFIT_MEERKAT_OUTFIT_17_cls-7{stroke-width:1.42px;}.BUNTAI_MEERKAT_OUTFIT_MEERKAT_OUTFIT_17_cls-8{opacity:0.43;mix-blend-mode:multiply;}</style>
  </defs>
  <g class="BUNTAI_MEERKAT_OUTFIT_MEERKAT_OUTFIT_17_cls-1">
    <g id="outfit">
      <path class="BUNTAI_MEERKAT_OUTFIT_MEERKAT_OUTFIT_17_cls-2" d="M119.23,444.69H119l-57.85,2.85c2.33-9.7,7.37-30.2,10.66-39.64,1.81-5.2,3.61-9.88,5.1-13.58a125.26,125.26,0,0,1,13.42,9.38h0a117.47,117.47,0,0,1,10,8.76,54.43,54.43,0,0,1,7.16,8.46l.41.64c.11.83.24,1.65.39,2.47.07.37.15.73.23,1.09a.64.64,0,0,0,0,.07,4.54,4.54,0,0,0,.12.53c0,.21.1.42.16.62s.15.57.23.85c0,.05,0,.1,0,.15s0,.08,0,.12c.05.2.11.39.18.59s.12.39.19.59c.15.47.31.94.49,1.4l.15.39c.17.46.36.91.56,1.36s.29.69.46,1c.27.6.56,1.2.88,1.79.14.27.28.54.43.81s.4.73.62,1.09l0,.06c.7,1.18,1.46,2.33,2.27,3.45.22.32.45.62.69.93.65.85,1.33,1.69,2,2.5.26.3.52.6.8.89.08.1.17.19.26.29Z" />
      <path class="BUNTAI_MEERKAT_OUTFIT_MEERKAT_OUTFIT_17_cls-2" d="M343.45,447.24l-40.92-2.44-1.32-.08-.53,0a44.69,44.69,0,0,0,9.59-26.92l.6-.67c2.47-2.75,12.06-13.28,17.19-17a11.55,11.55,0,0,1,1.47-.92,22.11,22.11,0,0,1,5.93-2.14c1,5,2.09,10.5,3.2,16.36C340.94,425.48,342.5,438.18,343.45,447.24Z" />
      <path class="BUNTAI_MEERKAT_OUTFIT_MEERKAT_OUTFIT_17_cls-3" d="M108.61,407.91h0c-.07.31-.13.62-.19.93a1.62,1.62,0,0,0,0,.19.51.51,0,0,0,0,.13l-.09.49q-.09.45-.15.9c0,.08,0,.15,0,.23l0,.19c-.06.42-.11.84-.16,1.26,0,.05,0,.11,0,.16a.88.88,0,0,1,0,.16c0,.25,0,.5-.07.76,0,.07,0,.14,0,.21s0,.1,0,.16,0,.07,0,.12l0,.49c0,.16,0,.32,0,.49a37.62,37.62,0,0,0,.22,6.79l-.41-.64a54.43,54.43,0,0,0-7.16-8.46,117.47,117.47,0,0,0-10-8.76h0a125.26,125.26,0,0,0-13.42-9.38L78.3,391c1.06-2.52,1.82-4.25,2.12-4.91.08-.2.13-.3.13-.3,2.37,1.33,4.76,2.64,7.12,4l0,0c5.47,3.12,10.76,6.43,15.14,10.67a32.64,32.64,0,0,1,5.73,7.4Z" />
      <path class="BUNTAI_MEERKAT_OUTFIT_MEERKAT_OUTFIT_17_cls-3" d="M335.46,397.07a22.11,22.11,0,0,0-5.93,2.14,11.55,11.55,0,0,0-1.47.92c-5.13,3.69-14.72,14.22-17.19,17l-.6.67c0-.36,0-.73,0-1.09,0-.18,0-.35,0-.52s0-.39,0-.58c0-.43,0-.86-.05-1.29s-.07-1.09-.12-1.63-.09-.92-.14-1.38-.12-1-.19-1.44a.17.17,0,0,0,0-.07c-.09-.62-.19-1.23-.3-1.85h0c.07-.15.14-.3.22-.44a32.29,32.29,0,0,1,4.54-7c5.3-6.23,12.24-10.45,18.88-15l1,4.64.06.28C334.54,392.48,335,394.71,335.46,397.07Z" />
      <path class="BUNTAI_MEERKAT_OUTFIT_MEERKAT_OUTFIT_17_cls-4" d="M317.54,359.36l0,0c-.27.4-7.68,19.73-8,21q-.13.51-.24,1t-.24,1.05c-.09.35-.16.71-.23,1.06s-.2.94-.28,1.41c-.18.94-.34,1.89-.48,2.84-.08.48-.14,1-.2,1.43-.09.7-.18,1.41-.25,2.12s-.14,1.41-.19,2.12q0,.41-.06.81c0,.46-.06.92-.08,1.39s0,.82,0,1.23,0,1,0,1.53h0c0,.25,0,.5,0,.75v.12c.15.43.3.86.44,1.3a1.39,1.39,0,0,1,.06.19c.18.57.35,1.13.51,1.71s.24.86.35,1.29h0c.08.28.15.57.22.85.12.48.23,1,.34,1.45s.25,1.21.36,1.82h0c.11.62.21,1.23.3,1.85a.17.17,0,0,1,0,.07c.07.48.13,1,.19,1.44s.1.92.14,1.38c.08,1,.14,1.94.17,2.92,0,.19,0,.39,0,.58s0,.34,0,.52c0,.36,0,.73,0,1.09a44.69,44.69,0,0,1-9.59,26.92l-.08.1c-.37.47-.74.93-1.13,1.39-.57.68-1.15,1.34-1.75,2-.42.45-.85.88-1.29,1.31s-.69.67-1,1c-.18.18-.37.35-.55.51-.51.45-1,.89-1.55,1.33s-1.1.87-1.66,1.29l-.85.61c-.56.4-1.14.79-1.72,1.16l-.89.55c-.57.34-1.14.67-1.73,1l-1.14.6c-.79.41-1.59.78-2.4,1.13l-.71.3c-.42.18-.85.35-1.28.51l-1.12.41c-.4.15-.81.28-1.22.41l-.74.23c-.29.1-.59.18-.88.26l-.46.13-.89.23-.45.11-.74.17-.87.19c-.47.1-.93.19-1.4.27l-1.43.23-1.38.18c-.47.06-.95.11-1.42.15l-.46,0-.79.06h-.32l-1.53.06-1.42,0c-.55,0-1.09,0-1.64,0l-1.07,0-.45,0-1.06-.07-1.06-.1-.75-.09-.41,0-.57-.07-.23,0-1.2-.17-.53-.09c-.91-.15-1.81-.33-2.7-.53-12.27-2.74-23.59-9.57-33-18.55h-.24l0,0q-2.12,1.67-4.35,3.24c-.67.47-1.35.94-2,1.39l-.55.36c-.47.32-1,.63-1.44.92a.24.24,0,0,1-.09.06l-.9.57c-.48.3-1,.6-1.47.88l-1,.59-.22.13c-.34.21-.69.4-1,.59a.53.53,0,0,1-.15.08c-.31.18-.63.35-.94.51a.21.21,0,0,1-.1.06c-.3.17-.61.34-.92.49l-.33.17c-.35.19-.7.36-1,.54l-.81.4-1.57.76c-.74.34-1.48.68-2.22,1h0l-2.24.94c-.71.28-1.43.57-2.15.84s-1.62.59-2.44.87-1.38.46-2.07.68l-1.61.49c-.74.22-1.49.43-2.24.62l-.89.23-1,.23q-.85.21-1.71.39c-.81.18-1.62.34-2.43.49-1.07.2-2.16.38-3.24.53l-.12,0-.39.05-1.3.16-.81.09-.91.09-1.83.16-1.84.11-1.09,0H162.6l-.58,0-1.25,0-.58,0c-1.2-.07-2.4-.16-3.59-.29-.65-.06-1.3-.14-1.94-.23s-1.29-.18-1.93-.28l-1.16-.2-1.09-.2c-.65-.13-1.3-.26-1.95-.41l-1.06-.24-.86-.22c-.44-.11-.88-.22-1.32-.35s-1.15-.32-1.72-.5l-.79-.25c-.44-.14-.88-.28-1.32-.44-1.11-.38-2.2-.79-3.28-1.24l-.57-.24a1.45,1.45,0,0,1-.26-.11c-.42-.17-.83-.35-1.24-.54-.58-.26-1.16-.54-1.73-.82a53.6,53.6,0,0,1-15.15-11.2l0,0c-.09-.1-.18-.19-.26-.29-.27-.29-.54-.59-.8-.89l-.67-.78c-.22-.26-.44-.53-.64-.79s-.5-.62-.74-.93-.47-.61-.69-.93-.47-.65-.7-1c-.55-.8-1.07-1.62-1.57-2.46l0-.06c-.21-.36-.42-.72-.62-1.09s-.29-.54-.43-.81c-.31-.59-.6-1.19-.88-1.79-.16-.34-.32-.68-.46-1q-.67-1.55-1.2-3.15c-.06-.2-.13-.39-.19-.59s-.13-.39-.18-.59c0,0,0-.08,0-.12s0-.1,0-.15c-.08-.28-.16-.57-.23-.85s-.11-.41-.16-.62l-.12-.53a.64.64,0,0,1,0-.07c-.08-.36-.16-.72-.23-1.09-.15-.82-.28-1.64-.39-2.47a37.62,37.62,0,0,1-.22-6.79c0-.33,0-.65.06-1,0-.05,0-.09,0-.12a41.84,41.84,0,0,1,.86-5.77h0l.18-.78c.06-.26.13-.51.19-.77l.25-.94c.11-.4.23-.8.35-1.2a.64.64,0,0,0,0-.07c.11-.36.23-.71.35-1.07a.93.93,0,0,0,0-.13l0-.1c.41-1.2.86-2.38,1.36-3.56,0,0,0,0,0,0a66.14,66.14,0,0,0-4.14-22.71c-2.84-7.65-5.34-13-10.8-19.38,7-11.18,15.47-23.2,26.45-31.43h0q13.44,9.09,26.26,18.85l.35.26Q169.64,360.17,188.2,377q5.38,4.89,10.63,9.9l.13.13h0l.55.52c.5.47,1,.95,1.48,1.43l0,0,.37.35h0q4.31,4.15,8.51,8.41l.32.32.31.32,1.18,1.2q1.09,1.11,2.16,2.22l.93,1c.66.68,1.31,1.36,2,2.05l.41.43c.35.36.7.72,1,1.08l.15.15.12.12.14.14c.85-1.09,1.7-2.17,2.57-3.25a1.56,1.56,0,0,1,.16-.2c.42-.52.83-1.05,1.25-1.56s1-1.26,1.51-1.88c.13-.17.27-.35.42-.52a.63.63,0,0,1,.11-.13l0,0c.85-1.06,1.71-2.12,2.59-3.18l.28-.33.07-.08,0,0,0-.05,0,0,.11-.14.24-.29.21-.26.36-.44c1.41-1.69,2.81-3.36,4.23-5l1.55-1.81.57-.66q3-3.45,6-6.85l.41-.46.24-.27.1-.11c.61-.66,1.2-1.33,1.81-2l.11-.12,0,0,.2-.21h0l1.65-1.81.25-.27q1.5-1.63,3-3.25,4.56-4.86,9.23-9.57c.8-.83,1.61-1.66,2.41-2.47l1.75-1.76q1.75-1.74,3.45-3.38l2.83-2.72c3.5-3.31,6.84-6.41,9.94-9.22.77-.72,1.56-1.4,2.34-2.11,1.1-1,2.2-2,3.31-3,.82-.71,1.63-1.43,2.45-2.12l2.88-2.5c.36-.32.72-.62,1.06-.91l.64-.55a1.42,1.42,0,0,0,.13-.12,1.92,1.92,0,0,0,.23-.19l.56-.48a3.88,3.88,0,0,0,.31-.26l.43-.36.53-.45.39-.33c.74.52,1.5,1.05,2.28,1.62C305.8,337.85,312.15,350.34,317.54,359.36Z" />
      <path class="BUNTAI_MEERKAT_OUTFIT_MEERKAT_OUTFIT_17_cls-5" d="M158.6,337.36a4,4,0,1,0,4.45,4A4.22,4.22,0,0,0,158.6,337.36Z" />
      <path class="BUNTAI_MEERKAT_OUTFIT_MEERKAT_OUTFIT_17_cls-5" d="M268.94,337.36a4,4,0,1,0,4.44,4A4.22,4.22,0,0,0,268.94,337.36Z" />
      <path class="BUNTAI_MEERKAT_OUTFIT_MEERKAT_OUTFIT_17_cls-2" d="M292.05,328c-2.72-1.85-5.14-3.37-7.27-4.69-1.24.61-2.46,1.25-3.68,1.91-.47.25-1,.5-1.42.77-.89.49-1.78,1-2.66,1.5-1.22.7-2.43,1.42-3.64,2.15q-1.32.81-2.64,1.65c-.87.55-1.74,1.12-2.61,1.69q-1.62,1.07-3.21,2.16c-1.06.73-2.12,1.47-3.17,2.23s-2.09,1.51-3.13,2.28c-12.09,9-23.31,19.26-34.29,29.82-1.91,1.83-3.82,3.69-5.72,5.54l-5.68-4.55c-13.69-10.91-27.67-21.52-42.77-30.81-.77-.48-1.55-.95-2.33-1.42l-.16-.1-1.28-.75-1.24-.73c-.84-.49-1.68-1-2.53-1.46s-1.7-1-2.56-1.44l-2.57-1.4-2.6-1.37c-.87-.45-1.74-.9-2.62-1.34l-2.64-1.31L147,327c-.92-.44-1.86-.87-2.8-1.29s-1.71-.77-2.57-1.14l-1.14-.49q-4.83-2.07-9.78-3.86c-.49.35-1,.7-1.52,1.05l-1.6,1.09c-.69.48-1.38,1-2.07,1.46l-.77.56-1.82,1.34q13.44,9.09,26.26,18.85l.35.26Q169.64,360.17,188.2,377q5.38,4.89,10.63,9.9l.13.13h0l.55.52c.5.47,1,.95,1.48,1.43l0,0,.37.35h0q4.31,4.15,8.51,8.41l.32.32.31.32,1.18,1.2q1.09,1.11,2.16,2.22l.93,1c.66.68,1.31,1.36,2,2.05l.41.43.85.9.18.18.15.15.12.12.14.14c.85-1.09,1.7-2.17,2.57-3.25a1.56,1.56,0,0,1,.16-.2c.41-.53.82-1.05,1.25-1.56s1-1.26,1.51-1.88c.13-.18.27-.34.42-.52a.63.63,0,0,1,.11-.13s0,0,0,0h0c.85-1.06,1.71-2.12,2.59-3.18l.28-.33.07-.08,0,0s0,0,0-.05l0,0,.11-.14.24-.29.21-.26.36-.44c1.41-1.69,2.81-3.36,4.23-5l1.55-1.81.57-.66q3-3.45,6-6.85l.41-.46.24-.27.1-.11c.61-.66,1.2-1.33,1.81-2l.11-.12,0,0,.2-.21h0l1.65-1.81.25-.27q1.5-1.63,3-3.25a.39.39,0,0,1,.08-.1c.81-.87,1.62-1.72,2.44-2.58s1.38-1.46,2.08-2.18q1.41-1.49,2.85-2.94,1.59-1.63,3.19-3.24l.74-.75.26-.25,1.75-1.76q1.75-1.74,3.45-3.38l2.83-2.72.53-.52,3.39-3.21q1.69-1.6,3.42-3.18t3.2-2.92c.33-.31.67-.61,1-.9l2.71-2.42c.44-.4.89-.79,1.34-1.17l.82-.74q1.69-1.5,3.42-3c.57-.49,1.14-1,1.72-1.46l.43-.35.64-.55.07-.06.06-.06a1.92,1.92,0,0,0,.23-.19l.56-.48a3.88,3.88,0,0,0,.31-.26l.43-.36.53-.45.39-.33ZM155.68,338.34l.13-.1a5,5,0,0,1,.58-.35,1.87,1.87,0,0,1,.32-.15,3.49,3.49,0,0,1,.57-.2l.46-.1a4.82,4.82,0,0,1,.86-.08,4.22,4.22,0,0,1,4.45,3.95,3.44,3.44,0,0,1,0,.46,3.55,3.55,0,0,1-.45,1.33l-.06.1a1.21,1.21,0,0,1-.2.3l-.07.09a4.48,4.48,0,0,1-.36.4,1.51,1.51,0,0,1-.23.21l-.3.23a2.73,2.73,0,0,1-.55.32l-.24.12-.16.07a2.65,2.65,0,0,1-.37.12,3.45,3.45,0,0,1-.46.12l-.19,0-.34,0-.44,0a4.22,4.22,0,0,1-4.44-4c0-.12,0-.23,0-.34a.85.85,0,0,1,0-.23,2.37,2.37,0,0,1,.11-.46,2.19,2.19,0,0,1,.12-.33,1.51,1.51,0,0,1,.12-.26,2.88,2.88,0,0,1,.3-.5,3.15,3.15,0,0,1,.24-.3l.26-.27C155.46,338.52,155.57,338.43,155.68,338.34Zm116.75,5.42-.13.14a2.62,2.62,0,0,1-.43.39l-.18.14a3.35,3.35,0,0,1-.45.27l-.34.17-.42.16a2.3,2.3,0,0,1-.45.12,1.36,1.36,0,0,1-.29.06h-.08a3.95,3.95,0,1,1,3.72-3.91c0,.12,0,.25,0,.37a2.34,2.34,0,0,1,0,.26c0,.1,0,.2-.07.3a1.4,1.4,0,0,1-.09.29A3.75,3.75,0,0,1,272.43,343.76Z" />
      <path class="BUNTAI_MEERKAT_OUTFIT_MEERKAT_OUTFIT_17_cls-2" d="M277.68,318.74c1.92,1.37,4.27,2.78,7.1,4.54-1.24.61-2.46,1.25-3.68,1.91l-1.42.77c-.89.49-1.78,1-2.66,1.5-1.22.7-2.43,1.42-3.64,2.15q-1.32.81-2.64,1.65c-.87.55-1.74,1.11-2.61,1.69q-1.62,1.07-3.21,2.16c-1.06.73-2.12,1.47-3.17,2.23s-2.09,1.51-3.13,2.28c-12.09,9-23.31,19.26-34.29,29.82-1.91,1.83-3.82,3.69-5.72,5.54l-5.68-4.55c-13.69-10.91-27.67-21.52-42.77-30.81-.77-.48-1.55-.95-2.33-1.42l-.16-.09h0l-1.28-.75-1.24-.73c-.84-.5-1.68-1-2.53-1.46s-1.7-1-2.56-1.44-1.71-.94-2.57-1.4-1.73-.93-2.6-1.37-1.74-.91-2.62-1.34-1.75-.88-2.64-1.31L147,327c-.92-.44-1.86-.87-2.8-1.29s-1.71-.77-2.57-1.14l-1.14-.49q-4.83-2.07-9.78-3.86a51.45,51.45,0,0,0,6.65-5.66l.28-.28c.77.34,1.54.69,2.3,1.05l1.17.54,1.61.75,2.26,1.07c1.19.56,2.37,1.14,3.55,1.72q3.75,1.83,7.44,3.76,1.29.66,2.58,1.35c2.34,1.24,4.67,2.5,7,3.8.31.16.61.33.91.5,1.41.8,2.82,1.6,4.22,2.42s2.56,1.49,3.83,2.25l2.7,1.63,2,1.19c1.06.65,2.11,1.31,3.16,2l.1.06.16.11c1.31.82,2.62,1.66,3.92,2.5q4.18,2.72,8.28,5.55l2.19,1.53,2.13,1.5c.75.53,1.49,1.07,2.23,1.61q1.53,1.1,3,2.22l.78.58q1.8,1.33,3.57,2.71,2.6,2,5.14,4l.34.26c1.5,1.19,3,2.39,4.45,3.62,1.54-1.54,3.09-3.06,4.67-4.57,1.24-1.19,2.5-2.37,3.76-3.54l3.19-2.92c.43-.39.86-.78,1.3-1.16l2.7-2.37.78-.68,1.68-1.43.73-.61c.26-.24.53-.47.8-.68l1-.87c.21-.19.42-.36.63-.52.9-.76,1.81-1.5,2.72-2.23.17-.14.34-.28.52-.41l2.38-1.9.78-.61.1-.07.55-.43c.41-.32.81-.64,1.22-.94L249,338c.42-.33.83-.64,1.25-.95s1-.75,1.49-1.11,1.24-.93,1.86-1.37a1.13,1.13,0,0,1,.23-.17q2.94-2.16,5.93-4.22l1.72-1.19,1.82-1.22c1-.67,2-1.33,3-2s1.78-1.16,2.67-1.72q.74-.48,1.47-.93,1.84-1.17,3.71-2.29l1.76-1.07C276.48,319.44,277.08,319.09,277.68,318.74Z" />
      <path class="BUNTAI_MEERKAT_OUTFIT_MEERKAT_OUTFIT_17_cls-3" d="M277.68,318.74c-.6.35-1.2.7-1.79,1.06l-1.76,1.07q-1.86,1.13-3.71,2.29-.74.45-1.47.93c-.89.57-1.79,1.14-2.67,1.72s-2,1.3-3,2L261.48,329l-1.72,1.19q-3,2.07-5.93,4.22a1.13,1.13,0,0,0-.23.17c-.62.44-1.24.9-1.86,1.37s-1,.73-1.49,1.11-.83.62-1.25.95l-.84.64c-.41.3-.81.62-1.22.94l-.31.23-.24.2-.1.07-.78.61c-.8.62-1.59,1.25-2.38,1.9-.18.13-.35.27-.52.41l-.92.74c-.61.49-1.2,1-1.8,1.49-.21.16-.42.33-.63.52l-1,.87c-.27.21-.54.44-.8.68l-.73.61L235,349.35l-.78.68q-1.36,1.17-2.7,2.37c-.44.38-.87.77-1.3,1.16-1.07,1-2.14,1.93-3.19,2.92-1.26,1.17-2.52,2.35-3.76,3.54-1.58,1.51-3.13,3-4.67,4.57-1.47-1.23-2.95-2.43-4.45-3.62l-.34-.26q-2.55-2.06-5.14-4-1.77-1.38-3.57-2.71l-.78-.58q-1.5-1.12-3-2.22c-.74-.55-1.48-1.08-2.23-1.61l-2.13-1.5-2.19-1.53q-4.1-2.84-8.28-5.55-2-1.29-3.92-2.5l-.16-.11-.1-.06c-1.05-.68-2.1-1.34-3.16-2l-2-1.19-2.7-1.63q-1.91-1.14-3.83-2.25c-1.4-.82-2.81-1.62-4.22-2.42-.3-.17-.6-.34-.91-.5-2.32-1.3-4.65-2.56-7-3.8q-1.29-.69-2.58-1.35-3.69-1.93-7.44-3.76c-1.18-.58-2.36-1.16-3.55-1.72l-2.26-1.07-1.61-.75-1.17-.54c-.76-.36-1.53-.71-2.3-1.05,2.33-2.41,5.07-4.7,6.31-6.71,1.47-2.37,3.61-4.34,4.06-5.63,28.51,12,51.43,30.11,70.63,52.41q.81-1.14,1.65-2.28c.55-.75,1.11-1.5,1.68-2.24s1.35-1.76,2-2.63c.34-.43.68-.86,1-1.28.71-.89,1.44-1.77,2.18-2.65q.8-.94,1.62-1.89c.15-.19.31-.38.48-.56.51-.59,1-1.18,1.56-1.76s1.13-1.25,1.7-1.87l.46-.5,1.51-1.6.2-.21,1.44-1.47q2.43-2.47,5-4.83c.48-.46,1-.91,1.45-1.35s.9-.82,1.35-1.21.86-.78,1.3-1.16c.76-.67,1.53-1.33,2.3-2,.13-.12.25-.22.38-.32.62-.53,1.25-1,1.88-1.56,1.81-1.49,3.66-2.93,5.53-4.33.73-.55,1.47-1.1,2.21-1.63,2.15-1.57,9.69-8.29,10.4-8.71l.64-.37c-.31,3,.64,4.29,2.14,6.47C271.84,314.13,275.72,317.34,277.68,318.74Z" />
      <path class="BUNTAI_MEERKAT_OUTFIT_MEERKAT_OUTFIT_17_cls-6" d="M148,302c28.51,12,51.43,30.11,70.63,52.41" />
      <path class="BUNTAI_MEERKAT_OUTFIT_MEERKAT_OUTFIT_17_cls-6" d="M137.61,314.31c.77.34,1.54.69,2.3,1.05l1.17.54c.54.24,1.08.5,1.61.75l2.26,1.07c1.19.56,2.37,1.14,3.55,1.72q3.75,1.83,7.44,3.76,1.29.66,2.58,1.35c2.34,1.24,4.67,2.5,7,3.8l.75.42.16.08c1.41.8,2.82,1.6,4.22,2.42s2.56,1.49,3.83,2.25c.9.53,1.8,1.07,2.7,1.63.65.38,1.3.78,2,1.19,1.06.64,2.11,1.3,3.16,2l.1.06.16.11q2,1.22,3.92,2.5,4.18,2.72,8.28,5.55l2.19,1.53,2.13,1.5c.75.53,1.49,1.07,2.23,1.61q1.53,1.1,3,2.22l.78.58q1.8,1.33,3.57,2.71,2.6,2,5.14,4l.34.26c1.5,1.19,3,2.39,4.45,3.62" />
      <path class="BUNTAI_MEERKAT_OUTFIT_MEERKAT_OUTFIT_17_cls-6" d="M218.61,375l-5.68-4.55c-13.69-10.91-27.67-21.52-42.77-30.81-.77-.48-1.55-.95-2.33-1.42l-.16-.09-1.28-.76-1.24-.73c-.84-.49-1.68-1-2.53-1.46s-1.7-1-2.56-1.44l-2.57-1.4-2.6-1.37c-.87-.45-1.74-.9-2.62-1.34l-2.64-1.31L147,327c-.92-.44-1.86-.87-2.8-1.29s-1.71-.77-2.57-1.14l-1.14-.49q-4.83-2.07-9.78-3.86" />
      <path class="BUNTAI_MEERKAT_OUTFIT_MEERKAT_OUTFIT_17_cls-6" d="M111.38,399.29s0,0,0,0a66.14,66.14,0,0,0-4.14-22.71c-2.84-7.65-5.34-13-10.8-19.38" />
      <path class="BUNTAI_MEERKAT_OUTFIT_MEERKAT_OUTFIT_17_cls-6" d="M80.55,385.8c2.37,1.33,4.76,2.64,7.12,4l0,0c5.47,3.12,10.76,6.43,15.14,10.67a32.64,32.64,0,0,1,5.73,7.4l0,0" />
      <path class="BUNTAI_MEERKAT_OUTFIT_MEERKAT_OUTFIT_17_cls-6" d="M122.9,325.75q13.44,9.09,26.26,18.85l.35.26Q169.64,360.17,188.2,377q5.38,4.89,10.63,9.9l.13.13h0l.55.52c.5.47,1,.95,1.48,1.43l0,0,.37.35h0q4.31,4.15,8.51,8.41l.32.32.31.32,1.18,1.2q1.09,1.11,2.16,2.22l.93,1c.66.68,1.32,1.36,2,2.05l.41.43c.35.36.7.72,1,1.08l.15.15.12.12.14.14" />
      <path class="BUNTAI_MEERKAT_OUTFIT_MEERKAT_OUTFIT_17_cls-6" d="M123.63,380.62a64.79,64.79,0,0,0-12.26,18.66h0a49.37,49.37,0,0,0-2.76,8.62h0a40.8,40.8,0,0,0-.71,13.67c.1.82.24,1.65.39,2.47a42.27,42.27,0,0,0,10.94,20.64,53.38,53.38,0,0,0,15.15,11.19c13.28,6.58,29.28,8.13,44.13,5.39a92.18,92.18,0,0,0,40-18.56" />
      <path class="BUNTAI_MEERKAT_OUTFIT_MEERKAT_OUTFIT_17_cls-6" d="M214.15,361q1.35-2.1,2.76-4.16c.56-.82,1.12-1.63,1.7-2.43s1.09-1.52,1.65-2.28,1.11-1.5,1.68-2.24,1.35-1.76,2-2.63c.34-.43.68-.86,1-1.28.71-.89,1.44-1.77,2.18-2.65q.8-.94,1.62-1.89c.15-.19.31-.38.48-.56.51-.59,1-1.18,1.56-1.76s1.13-1.25,1.7-1.87l.46-.5,1.51-1.6.2-.21,1.44-1.47q2.43-2.47,5-4.83c.48-.46,1-.91,1.45-1.35s.9-.82,1.35-1.21.86-.78,1.3-1.16c.76-.67,1.52-1.33,2.3-2,.13-.12.25-.22.38-.32.62-.54,1.25-1,1.88-1.56,1.81-1.49,3.66-2.93,5.53-4.33.73-.55,1.47-1.1,2.21-1.63,2.15-1.56,9.69-8.29,10.4-8.71l.64-.37" />
      <path class="BUNTAI_MEERKAT_OUTFIT_MEERKAT_OUTFIT_17_cls-6" d="M212.93,370.43q2.81-3,5.67-5.84c1.54-1.54,3.09-3.06,4.67-4.57,1.24-1.19,2.5-2.37,3.76-3.54l3.19-2.92c.43-.39.86-.78,1.3-1.16l2.7-2.37.78-.68,1.68-1.43c.24-.21.48-.42.73-.61s.53-.47.8-.68.7-.6,1-.87.42-.36.63-.52c.9-.76,1.81-1.5,2.72-2.23.17-.14.34-.28.52-.41l2.38-1.9.78-.61.34-.27.31-.23c.41-.32.81-.64,1.22-.94s.56-.44.84-.64.83-.64,1.25-.95,1-.75,1.49-1.11,1.24-.93,1.86-1.37a1.13,1.13,0,0,1,.23-.17q2.94-2.16,5.93-4.22l1.72-1.19,1.82-1.22c1-.67,2-1.33,3-2s1.78-1.16,2.67-1.72q.74-.48,1.47-.93,1.84-1.17,3.71-2.29c1.18-.72,2.36-1.43,3.55-2.13" />
      <path class="BUNTAI_MEERKAT_OUTFIT_MEERKAT_OUTFIT_17_cls-6" d="M284.78,323.28c-1.24.61-2.46,1.25-3.68,1.91-.47.25-1,.5-1.42.77-.89.48-1.78,1-2.66,1.5-1.22.7-2.43,1.42-3.64,2.15q-1.32.81-2.64,1.65c-.87.55-1.74,1.11-2.61,1.69-1.08.7-2.15,1.43-3.21,2.16s-2.12,1.47-3.17,2.23-2.09,1.51-3.13,2.28c-12.09,9-23.31,19.26-34.29,29.82-1.91,1.83-3.82,3.69-5.72,5.54l6,6.14,1.45,1.47,6.71,6.82" />
      <path class="BUNTAI_MEERKAT_OUTFIT_MEERKAT_OUTFIT_17_cls-6" d="M317.54,359.36l0,0a81.09,81.09,0,0,0-8,21q-.13.51-.24,1t-.24,1.05c-.09.35-.16.71-.23,1.06s-.19.94-.28,1.41c-.18.94-.34,1.89-.48,2.84-.07.48-.14,1-.2,1.43-.09.7-.18,1.41-.25,2.12s-.14,1.41-.19,2.12q0,.41-.06.81c0,.46-.06.93-.08,1.39s0,.82,0,1.23,0,1,0,1.53h0c0,.25,0,.5,0,.75h0v.1" />
      <path class="BUNTAI_MEERKAT_OUTFIT_MEERKAT_OUTFIT_17_cls-6" d="M333.09,385.48c-6.64,4.55-13.58,8.77-18.88,15a32.29,32.29,0,0,0-4.54,7c-.08.14-.15.29-.22.44" />
      <path class="BUNTAI_MEERKAT_OUTFIT_MEERKAT_OUTFIT_17_cls-6" d="M218.61,406.81c.85-1.09,1.7-2.17,2.57-3.25a1.56,1.56,0,0,1,.16-.2c.41-.53.82-1.05,1.25-1.56s1-1.26,1.51-1.88c.13-.17.27-.35.42-.52a.63.63,0,0,1,.11-.13s0,0,0,0h0c.85-1.06,1.71-2.12,2.59-3.18l.28-.33.07-.08,0,0,0-.05,0,0,.11-.14.24-.29.21-.26.36-.44c1.41-1.69,2.81-3.36,4.23-5l1.55-1.81.57-.66q3-3.45,6-6.85l.41-.46.24-.27.1-.11c.61-.66,1.2-1.33,1.81-2l.11-.12,0,0,.2-.21h0l1.65-1.81.25-.27q1.55-1.68,3.11-3.35c.81-.87,1.62-1.72,2.44-2.58s1.38-1.46,2.08-2.18q1.41-1.49,2.85-2.94,1.59-1.63,3.19-3.24l.74-.75,2-2q1.75-1.74,3.45-3.38c1.11-1.09,2.23-2.18,3.36-3.24l3.39-3.21q1.69-1.6,3.42-3.18c1.06-1,2.13-2,3.2-2.92.33-.31.67-.61,1-.9.9-.82,1.8-1.63,2.71-2.42.72-.65,1.43-1.28,2.16-1.91q1.69-1.5,3.42-3c1-.83,1.94-1.66,2.92-2.48.26-.24.52-.46.79-.67a3.88,3.88,0,0,0,.31-.26l.43-.36.53-.45.39-.33" />
      <path class="BUNTAI_MEERKAT_OUTFIT_MEERKAT_OUTFIT_17_cls-6" d="M218.71,442.72c9.42,9,20.74,15.82,33,18.56a53.49,53.49,0,0,0,13.1,1.27,47.93,47.93,0,0,0,23.36-6.66,45.3,45.3,0,0,0,22.1-38.12,50.08,50.08,0,0,0-.82-9.85h0a57.62,57.62,0,0,0-2.28-8.62h0l-.42-1.18a67.83,67.83,0,0,0-9.7-17.49" />
      <path class="BUNTAI_MEERKAT_OUTFIT_MEERKAT_OUTFIT_17_cls-6" d="M111.37,399.28s0-11.93,5.93-18.74" />
      <path class="BUNTAI_MEERKAT_OUTFIT_MEERKAT_OUTFIT_17_cls-6" d="M306.75,398.13v0c0-.51-.07-11.92-3.58-17.49" />
      <path class="BUNTAI_MEERKAT_OUTFIT_MEERKAT_OUTFIT_17_cls-6" d="M107.91,421.59h0l-.41-.64a54.43,54.43,0,0,0-7.16-8.46,117.47,117.47,0,0,0-10-8.76h0a125.26,125.26,0,0,0-13.42-9.38" />
      <path class="BUNTAI_MEERKAT_OUTFIT_MEERKAT_OUTFIT_17_cls-6" d="M335.46,397.07a22.11,22.11,0,0,0-5.93,2.14,11.55,11.55,0,0,0-1.47.92c-5.13,3.69-14.72,14.22-17.19,17l-.6.67" />
      <path class="BUNTAI_MEERKAT_OUTFIT_MEERKAT_OUTFIT_17_cls-6" d="M163.05,341.32a4.47,4.47,0,1,1-4.45-4A4.22,4.22,0,0,1,163.05,341.32Z" />
      <path class="BUNTAI_MEERKAT_OUTFIT_MEERKAT_OUTFIT_17_cls-6" d="M273.38,341.32a4.47,4.47,0,1,1-4.44-4A4.22,4.22,0,0,1,273.38,341.32Z" />
      <path class="BUNTAI_MEERKAT_OUTFIT_MEERKAT_OUTFIT_17_cls-6" d="M96.44,357.19c7-11.19,15.48-23.2,26.46-31.44,2.07-1.55,4.16-3,6.26-4.45.52-.35,1-.7,1.52-1.05a51.24,51.24,0,0,0,6.93-5.94c5.07-5.24,9.55-10,10.37-12.34" />
      <path class="BUNTAI_MEERKAT_OUTFIT_MEERKAT_OUTFIT_17_cls-6" d="M317.54,359.36c-5.39-9-11.74-21.51-21.61-28.67-.78-.57-1.54-1.1-2.28-1.62-3.38-2.36-6.33-4.22-8.87-5.79-2.83-1.76-5.18-3.17-7.1-4.54s-5.84-4.61-7-6.28c-1.5-2.18-2.45-3.47-2.14-6.47" />
      <path class="BUNTAI_MEERKAT_OUTFIT_MEERKAT_OUTFIT_17_cls-6" d="M61.17,447.55c2.33-9.7,7.37-30.2,10.66-39.64,1.81-5.2,3.61-9.88,5.1-13.58,2.13-5.25,3.62-8.53,3.62-8.53" />
      <path class="BUNTAI_MEERKAT_OUTFIT_MEERKAT_OUTFIT_17_cls-6" d="M343.45,447.24c-.95-9.06-2.51-21.76-4.79-33.81-1.11-5.86-2.2-11.39-3.2-16.36-.87-4.35-1.68-8.27-2.37-11.59" />
      <path class="BUNTAI_MEERKAT_OUTFIT_MEERKAT_OUTFIT_17_cls-5" d="M246,376.22a3.1,3.1,0,0,0-.34-1c0-.06-.07-.12-.11-.17l-.15-.21a2.2,2.2,0,0,0-.2-.23l-.23-.21-.21-.15a1,1,0,0,0-.26-.16.82.82,0,0,0-.19-.09,2.4,2.4,0,0,0-.52-.16.86.86,0,0,0-.17,0l-.3,0a2.48,2.48,0,0,0-.54.06,3,3,0,0,0-2.17,3.48.19.19,0,0,0,0,.07,2.93,2.93,0,0,0,.87,1.6,2.75,2.75,0,0,0,.26.22l.2.13.31.16.3.11.09,0a1.4,1.4,0,0,0,.28.06l.36,0a2.39,2.39,0,0,0,.53-.06,2.54,2.54,0,0,0,.37-.1l.34-.16a2.56,2.56,0,0,0,.62-.46,2.79,2.79,0,0,0,.49-.64,2.6,2.6,0,0,0,.16-.34,2,2,0,0,0,.13-.39A3.09,3.09,0,0,0,246,376.22Zm-2.33.91a.54.54,0,0,1-.27.18.49.49,0,0,1-.56-.35,1.12,1.12,0,0,1,.32,0A1,1,0,0,1,243.62,377.13Z" />
      <path class="BUNTAI_MEERKAT_OUTFIT_MEERKAT_OUTFIT_17_cls-5" d="M246.18,421.9c-.58-5.58-1.48-24.37-1.8-31.36-.08-1.65-.13-2.65-.13-2.65l-1.75-.22-1.7-.21s-.2.87-.49,2.54c-.41,2.24-1,5.93-1.56,10.82a230.84,230.84,0,0,0-1.38,25.82,11.51,11.51,0,0,0,4,2.41,8.28,8.28,0,0,0,2.84.39,6.18,6.18,0,0,0,2.63-.65Z" />
      <path class="BUNTAI_MEERKAT_OUTFIT_MEERKAT_OUTFIT_17_cls-5" d="M198.76,373.88a2.75,2.75,0,0,0-3.22,2.34,2.85,2.85,0,0,0,0,.92,2,2,0,0,0,0,.26,1.1,1.1,0,0,0,.06.26,2.46,2.46,0,0,0,.26.65.25.25,0,0,0,0,.07,2.66,2.66,0,0,0,.46.6,2.83,2.83,0,0,0,.63.46l.34.16a1.89,1.89,0,0,0,.36.1A2.61,2.61,0,0,0,200,379a3,3,0,0,0,.89-1.63v0A3,3,0,0,0,198.76,373.88Zm-.62,3.43a.54.54,0,0,1-.27-.18,1,1,0,0,1,.51-.21,1.12,1.12,0,0,1,.32,0A.49.49,0,0,1,198.14,377.31Z" />
      <path class="BUNTAI_MEERKAT_OUTFIT_MEERKAT_OUTFIT_17_cls-5" d="M201.18,390c-.29-1.67-.49-2.54-.49-2.54l-1.7.21-1.75.22s-.05,1-.13,2.65c-.32,7-1.22,25.78-1.8,31.36l-.71,6.89a6.18,6.18,0,0,0,2.63.65,8.28,8.28,0,0,0,2.84-.39,11.51,11.51,0,0,0,4.05-2.41,230.84,230.84,0,0,0-1.38-25.82C202.19,395.93,201.59,392.24,201.18,390Z" />
      <path class="BUNTAI_MEERKAT_OUTFIT_MEERKAT_OUTFIT_17_cls-7" d="M243.62,377.14a.53.53,0,0,0,.11-.45.49.49,0,0,0-.57-.42.54.54,0,0,0-.39.63.19.19,0,0,0,0,.07.47.47,0,0,0,.56.34A.46.46,0,0,0,243.62,377.14Z" />
      <path class="BUNTAI_MEERKAT_OUTFIT_MEERKAT_OUTFIT_17_cls-7" d="M244.49,379.45a3.06,3.06,0,0,0,1.46-3.23,2.76,2.76,0,0,0-3.22-2.34,3,3,0,0,0-2.18,3.48,3,3,0,0,0,.9,1.67,2.64,2.64,0,0,0,2.33.68A3,3,0,0,0,244.49,379.45Z" />
      <path class="BUNTAI_MEERKAT_OUTFIT_MEERKAT_OUTFIT_17_cls-7" d="M242.79,377a.69.69,0,0,1,.32,0,.88.88,0,0,1,.51.21h0a3.17,3.17,0,0,1,.87,2.31,5.53,5.53,0,0,1,0,.56c-.1,1.62-.88,2.9-1.75,2.84h0c-.85-.1-1.44-1.47-1.33-3.08a4.4,4.4,0,0,1,.09-.74" />
      <polyline class="BUNTAI_MEERKAT_OUTFIT_MEERKAT_OUTFIT_17_cls-7" points="242.5 387.68 242.5 387.67 242.69 382.85 242.73 381.73" />
      <path class="BUNTAI_MEERKAT_OUTFIT_MEERKAT_OUTFIT_17_cls-7" d="M240.31,390c.29-1.67.49-2.54.49-2.54l1.7.21,1.75.22s.05,1,.13,2.65c.32,7,1.22,25.78,1.8,31.36l.71,6.89a6.18,6.18,0,0,1-2.63.65,8.28,8.28,0,0,1-2.84-.39,11.51,11.51,0,0,1-4-2.41,230.84,230.84,0,0,1,1.38-25.82C239.3,395.93,239.9,392.24,240.31,390Z" />
      <line class="BUNTAI_MEERKAT_OUTFIT_MEERKAT_OUTFIT_17_cls-7" x1="240.31" y1="390" x2="244.38" y2="390.54" />
      <path class="BUNTAI_MEERKAT_OUTFIT_MEERKAT_OUTFIT_17_cls-7" d="M242.61,406.1s.36,16.14,1.65,23.34" />
      <path class="BUNTAI_MEERKAT_OUTFIT_MEERKAT_OUTFIT_17_cls-7" d="M240.78,400.79l0,.29c-.18,2.23-1.27,16.61.67,28" />
      <path class="BUNTAI_MEERKAT_OUTFIT_MEERKAT_OUTFIT_17_cls-7" d="M197.87,377.14a.53.53,0,0,1-.11-.45.49.49,0,0,1,.57-.42.54.54,0,0,1,.39.63.19.19,0,0,1,0,.07.47.47,0,0,1-.56.34A.46.46,0,0,1,197.87,377.14Z" />
      <path class="BUNTAI_MEERKAT_OUTFIT_MEERKAT_OUTFIT_17_cls-7" d="M197,379.45a3.06,3.06,0,0,1-1.46-3.23,2.76,2.76,0,0,1,3.22-2.34,3,3,0,0,1,2.18,3.48A3,3,0,0,1,200,379a2.64,2.64,0,0,1-2.33.68A3,3,0,0,1,197,379.45Z" />
      <path class="BUNTAI_MEERKAT_OUTFIT_MEERKAT_OUTFIT_17_cls-7" d="M198.7,377a.69.69,0,0,0-.32,0,.88.88,0,0,0-.51.21h0a3.17,3.17,0,0,0-.87,2.31,5.53,5.53,0,0,0,0,.56c.1,1.62.88,2.9,1.75,2.84h0c.85-.1,1.44-1.47,1.33-3.08A4.4,4.4,0,0,0,200,379" />
      <polyline class="BUNTAI_MEERKAT_OUTFIT_MEERKAT_OUTFIT_17_cls-7" points="198.99 387.68 198.99 387.67 198.8 382.85 198.76 381.73" />
      <path class="BUNTAI_MEERKAT_OUTFIT_MEERKAT_OUTFIT_17_cls-7" d="M201.18,390c-.29-1.67-.49-2.54-.49-2.54l-1.7.21-1.75.22s-.05,1-.13,2.65c-.32,7-1.22,25.78-1.8,31.36l-.71,6.89a6.18,6.18,0,0,0,2.63.65,8.28,8.28,0,0,0,2.84-.39,11.51,11.51,0,0,0,4.05-2.41,230.84,230.84,0,0,0-1.38-25.82C202.19,395.93,201.59,392.24,201.18,390Z" />
      <line class="BUNTAI_MEERKAT_OUTFIT_MEERKAT_OUTFIT_17_cls-7" x1="201.18" y1="390" x2="197.11" y2="390.54" />
      <path class="BUNTAI_MEERKAT_OUTFIT_MEERKAT_OUTFIT_17_cls-7" d="M198.88,406.1s-.36,16.14-1.65,23.34" />
      <path class="BUNTAI_MEERKAT_OUTFIT_MEERKAT_OUTFIT_17_cls-7" d="M200.71,400.79l0,.29c.18,2.23,1.28,16.61-.67,28" />
      <path class="BUNTAI_MEERKAT_OUTFIT_MEERKAT_OUTFIT_17_cls-7" d="M198.33,376.27s21.83,11.16,44.83,0" />
      <g class="BUNTAI_MEERKAT_OUTFIT_MEERKAT_OUTFIT_17_cls-8">
        <path d="M108.61,407.91c-6.43-7-22.5-14.54-30.31-16.9,1.06-2.52,1.82-4.25,2.12-4.91,2.15,1.21,4.6,2.48,7.25,3.69l0,0c9.06,4.13,18.09,11.47,20.87,18.07Z" />
        <path d="M107.62,421.59c-.11-.55-10.49-14.3-17.27-17.88a182,182,0,0,1,14.53,21.89,33.55,33.55,0,0,0-21.69-9.37c-13.28-.43-7.16,8.86-7.16,8.86a72.59,72.59,0,0,0,6.58-4.6c2.58-2.13,15.39,5.45,21,12a166.22,166.22,0,0,0,11.76,12.2h3.84S110,433.59,107.62,421.59Z" />
        <path d="M125.47,376.45s-12.26,14-13.76,22.83C114.29,386.74,118.23,380.09,125.47,376.45Z" />
        <path d="M110,402.86s7.92,40.54,53,40.54,55.43-4.6,55.43-4.6v3.92s-22.55,21.2-57.71,19.76-47.3-25.21-47.3-25.21-6-10.89-6.1-17.93S110,402.86,110,402.86Z" />
        <path d="M308.71,402.86s-6.59,40.54-44.12,40.54-46.11-4.6-46.11-4.6v3.92s18.76,21.2,48,19.76,39.34-25.21,39.34-25.21,5-10.89,5.08-17.93S308.71,402.86,308.71,402.86Z" />
        <path d="M228.59,394.43l-.36.44-.21.26-.24.29-.11.14-.08.1-2.51,3.14-.4.48-6.07,7.53-.14-.14-.12-.12-.15-.15-.18-.18c-2-2-8.7-8.68-16.92-16.7l-1.92-1.87-.2-.19c-3.46-3.38-7.13-6.93-10.78-10.42-2.69-2.58-5.38-5.12-8-7.54-7.44-7-19.5-16.32-30.73-24.64l-.35-.26c-12.13-9-23.21-16.71-26.27-18.84h0q2.31-1.74,4.66-3.36c4.28,2.39,15.54,8.73,27.8,16.23,2.38,1.46,4.8,3,7.21,4.48,8.38,5.29,16.68,10.86,23.09,15.84,9.15,7.12,18.74,15,26.53,21.53,3.3,2.76,6.27,5.28,8.75,7.4C225.65,391.88,228.59,394.43,228.59,394.43Z" />
        <path d="M216.91,356.81q-1.41,2.06-2.76,4.16l-.34-.26c-2.5-1.86-18.08-13.48-31.27-22.22l-.16-.11-.1-.06c-4.61-3.07-8.91-5.76-12.24-7.55-1.15-.62-2.36-1.26-3.62-1.92l-.16-.08c-9.76-5.07-22.35-11.07-28.93-14.18l.28-.28a39.08,39.08,0,0,0,5.27-6.71c10.06,4.33,29.1,13.07,42.83,22.85A228.89,228.89,0,0,1,216.91,356.81Z" />
        <path d="M334.13,425.64a63,63,0,0,1-12.61,19.16H300.6l-1-.1L305,433.3a84.08,84.08,0,0,1,4.49-14.82c.24-.58.51-1.18.83-1.8.15-.32.32-.64.5-1,4.24-7.75,13.08-17.21,13.46-17.58l9.81-8,.06.28c-1.24,1.33-2.95,3.15-3.13,3.33a45.46,45.46,0,0,0-1.45,5.48c-.82,3.5-1.87,8.27-2.82,13.14-1.81,9.18-10.92,26.66-11.2,27.21C315.73,439.5,323,437.09,334.13,425.64Z" />
        <path d="M292.71,373.82s13,19.19,15,27C304.75,387,304.27,378.35,292.71,373.82Z" />
        <path d="M292.05,328l1.6,1.1-.39.33-.53.45-.43.36a3.88,3.88,0,0,1-.31.26l-.56.48a1.92,1.92,0,0,1-.23.19,1.42,1.42,0,0,1-.13.12l-.64.55c-.34.29-.7.59-1.06.91l-2.88,2.5c-1.77,1.55-3.71,3.26-5.76,5.11-.78.71-1.57,1.39-2.34,2.11-3.1,2.81-6.44,5.91-9.94,9.22l-2.83,2.72q-1.69,1.64-3.45,3.38l-1.75,1.76c-.8.81-1.61,1.64-2.41,2.47-4.19,4.32-8.42,8.87-12.4,13.26-.62.69-1.24,1.37-1.83,2s-1.27,1.4-1.87,2.09c-.2.21-.38.41-.56.62-8.18,9.17-14.63,16.84-16.27,18.8l-.4.48,0,0h0l-7.73-6.91a57.64,57.64,0,0,1,4-4.47c1.29-1.35,3-3.09,5.17-5.28l1.79-1.78c1.71-1.7,3.69-3.63,6-5.83,7.1-6.87,22.16-19,35.86-29.77h0l3.42-2.68h0C280.7,336.66,287.54,331.41,292.05,328Z" />
        <path d="M162.92,429.44s23.9-8.22,33-11.18l.12-6.46S179.21,422,171.09,424.15s-21.5,9.29-21.5,9.29Z" />
        <path d="M203.52,409.42l.6,6.55s19.85-2.38,33.25-3.74l.9-6.56L220.1,408.9C215.8,409.67,203.52,409.42,203.52,409.42Z" />
        <path d="M245,403.79l.37,6.95s10.65-2.6,19.09-5.07,16.85-4.26,15.42-4.26-20.54,3.66-24.65,4.26S245,403.79,245,403.79Z" />
        <path d="M213.41,420.66s8.89-2.47,11.09-3.24,9.55-2.51,9.55-2.51-10.41,5.49-14.14,6.68-15.79,8.61-15.79,8.61,5.71-5.11,7-6.73S213.41,420.66,213.41,420.66Z" />
      </g>
    </g>
  </g>
</svg>