<svg xmlns="http://www.w3.org/2000/svg" viewBox="0 0 432 432">
  <defs>
    <style>.BUNTAI_MEERKAT_OUTFIT_MEERKAT_OUTFIT_7_cls-1{isolation:isolate;}.BUNTAI_MEERKAT_OUTFIT_MEERKAT_OUTFIT_7_cls-2{fill:#230b16;}.BUNTAI_MEERKAT_OUTFIT_MEERKAT_OUTFIT_7_cls-3{fill:#eeb71e;}.BUNTAI_MEERKAT_OUTFIT_MEERKAT_OUTFIT_7_cls-4{fill:#0f0f18;}.BUNTAI_MEERKAT_OUTFIT_MEERKAT_OUTFIT_7_cls-5{fill:#1b1b24;}.BUNTAI_MEERKAT_OUTFIT_MEERKAT_OUTFIT_7_cls-6{fill:#8d553a;}.BUNTAI_MEERKAT_OUTFIT_MEERKAT_OUTFIT_7_cls-7{fill:#fff;}.BUNTAI_MEERKAT_OUTFIT_MEERKAT_OUTFIT_7_cls-8{fill:none;stroke:#000;stroke-linecap:round;stroke-linejoin:round;stroke-width:1.97px;}.BUNTAI_MEERKAT_OUTFIT_MEERKAT_OUTFIT_7_cls-9{opacity:0.43;mix-blend-mode:multiply;}</style>
  </defs>
  <g class="BUNTAI_MEERKAT_OUTFIT_MEERKAT_OUTFIT_7_cls-1">
    <g id="outfit">
      <path class="BUNTAI_MEERKAT_OUTFIT_MEERKAT_OUTFIT_7_cls-2" d="M231.93,420.77a2.1,2.1,0,0,0,2.58-.19l1.21-1.2c.05,2.45-2.55,6.83-6.83,11.1s-9,7.19-11.93,7.59h-.06a1.36,1.36,0,0,0-.6-1.55l0,0a2.17,2.17,0,0,0-2.16-.09c-.05-2.45,2.55-7.07,6.83-11.36s9-7.18,11.93-7.59l-1.19,1.19A1.35,1.35,0,0,0,231.93,420.77Z" />
      <path class="BUNTAI_MEERKAT_OUTFIT_MEERKAT_OUTFIT_7_cls-3" d="M242.72,412.39A14.26,14.26,0,0,1,241,411.3a9.53,9.53,0,0,1-1-.93l-.5.49-.25.25h0l0,0,0,0-3.36,3.36a7.27,7.27,0,0,0-2.48-.33c-5,.13-11.17,4.63-15.36,8.81-5.19,5.16-9.58,12.23-6.71,16.14l-2.15,2.14a7.93,7.93,0,0,0-2.55-.35c-4.94.13-11.17,4.63-15.36,8.8-3.61,3.61-6.85,8.15-7.47,11.89l4-.45c.84-2.55,3.14-6.08,6.46-9.4,4.28-4.27,9-7.19,11.93-7.59l0,0L205,445.44a1.33,1.33,0,0,0,.25,2.12h0a2.1,2.1,0,0,0,2.57-.2l1.17-1.16c0,2.47-2.6,6.8-6.83,11a42.65,42.65,0,0,1-3.23,2.9c2-.17,3.92-.31,5.78-.44q.22-.21.42-.42a33.43,33.43,0,0,0,6.57-8.74c1.71-3.59,1.29-5.86.26-7.28l2.22-2.21a7.57,7.57,0,0,0,2.38.3c4.93-.14,11.16-4.64,15.35-8.82a33.41,33.41,0,0,0,6.55-8.72c1.74-3.65,1.28-5.93.23-7.34l3.46-3.45Zm-13.83,18.09c-.34.33-.67.66-1,1s-.59.55-.89.81-.89.77-1.34,1.13l-.28.22c-.73.59-1.45,1.12-2.15,1.59-.2.14-.39.27-.59.39-.59.39-1.17.73-1.73,1-.25.13-.49.26-.73.37s-.48.22-.71.32a1.63,1.63,0,0,1-.34.14c-.23.1-.44.18-.65.25a2.33,2.33,0,0,1-.32.1l-.31.09a5.5,5.5,0,0,1-.59.14l-.28.05-.06,0a1.35,1.35,0,0,0-.59-1.55h0a2.14,2.14,0,0,0-2.16-.1c-.06-2.44,2.55-7.07,6.83-11.36s9-7.18,11.93-7.59l-1.18,1.19a1.34,1.34,0,0,0,.23,2.13,2.12,2.12,0,0,0,2.58-.19l1.21-1.2C235.77,421.83,233.16,426.21,228.89,430.48Z" />
      <path class="BUNTAI_MEERKAT_OUTFIT_MEERKAT_OUTFIT_7_cls-4" d="M295.37,328.13h0l-1.71-1.71s5.31-4.87,8.86-1.19L301,329.05c-1,2.35-4.93,8.76-7.83,13.47-4.06,6.63-22.9,31.18-44.52,47.57-4.6,3.7-7.22,8.26-7.15,12.51a7.26,7.26,0,0,0,2.74,5.88,11.38,11.38,0,0,0,7.91,2c5.49-.46,11.28-3.92,16.28-9.73,9.32-10.83,39.26-42.1,56.19-51.05.4-.21.78-.41,1.17-.59l3.11-1.42c2,2,.43,6.11-.68,8.64l-2.67-2c-15,7.26-42,35.47-53.34,48.67-10.47,12.16-22.45,13.28-29.45,9.41A13.48,13.48,0,0,1,241,411.3a10.55,10.55,0,0,1-1-.93c-5.45-5.39-4.07-15.48,5.43-23.06,20.48-15.52,39.07-39.18,43.57-46.52A75.67,75.67,0,0,0,295.37,328.13Z" />
      <path class="BUNTAI_MEERKAT_OUTFIT_MEERKAT_OUTFIT_7_cls-5" d="M328.47,347.33l-.4-.35-.36-.3c-.32-.25-.66-.51-1-.76h0s0,0,0,0h0c-.4-.29-.83-.56-1.26-.84a49.66,49.66,0,0,0-4.57-2.54c-.53-.27-1.06-.56-1.59-.88a53,53,0,0,1-9.77-8.09,58.06,58.06,0,0,1-5.84-7,11.77,11.77,0,0,0-1.12-1.37L301,329.06c-1,2.34-4.94,8.74-7.82,13.46l-.25.39-.26.41-.29.45c-.08.12-.17.24-.25.37-.36.53-.76,1.11-1.21,1.74-.13.2-.28.4-.43.6-.53.74-1.11,1.54-1.75,2.39-.13.16-.26.34-.38.51-1.26,1.66-2.7,3.51-4.32,5.5-.2.25-.4.51-.62.76l-.73.9-.75.91c-.52.62-1,1.25-1.58,1.88l-.7.81c-1.94,2.28-4.05,4.66-6.29,7.08-.72.79-1.45,1.57-2.21,2.37l-1.61,1.69c-1.26,1.3-2.55,2.59-3.86,3.89-.41.41-.83.83-1.26,1.24-2.41,2.35-4.92,4.67-7.49,6.92l-1.64,1.4-1.64,1.38-1.54,1.26c-1.15.93-2.3,1.84-3.47,2.72-4.6,3.7-7.21,8.26-7.15,12.51a7.26,7.26,0,0,0,2.74,5.88,11.38,11.38,0,0,0,7.91,2c5.49-.46,11.28-3.92,16.28-9.73.61-.72,1.31-1.5,2.07-2.37l1-1.14c1.82-2,4-4.39,6.35-6.95l1.28-1.37c2.73-2.89,5.73-6,8.89-9.16.2-.21.39-.4.61-.61a3,3,0,0,1,.31-.31l1.32-1.31a.17.17,0,0,1,.06-.06l.06-.06.06-.06h0c3.14-3.09,6.39-6.19,9.66-9.14.51-.47,1-.94,1.54-1.39l1.34-1.18,1.47-1.28,1.44-1.23,1.91-1.6c.8-.66,1.59-1.29,2.38-1.91l1.4-1.09c.59-.46,1.18-.91,1.77-1.34a124.21,124.21,0,0,1,11.25-7.48c.39-.21.78-.41,1.17-.59l3.11-1.42Zm-76.21,58.32c-2.84,0-5.15-1.9-5.15-4.26s2.31-4.26,5.15-4.26,5.16,1.91,5.16,4.26S255.11,405.65,252.26,405.65Zm9.48-12.38a1.93,1.93,0,1,1,2.29-1.9A2.13,2.13,0,0,1,261.74,393.27Zm19.43-24.44c2.83,0,5.14,1.91,5.14,4.26s-2.31,4.26-5.14,4.26-5.16-1.91-5.16-4.26S278.31,368.83,281.17,368.83Zm-11.87,16.1-.11-.06-.14-.09a2.07,2.07,0,0,1-.48-.45l-.13-.2a1.23,1.23,0,0,1-.12-.26,2.29,2.29,0,0,1-.08-.28,2.45,2.45,0,0,1,0-.27,1.53,1.53,0,0,1,.12-.6,2,2,0,0,1,.1-.21.65.65,0,0,1,.1-.15,1.24,1.24,0,0,1,.18-.22l0,0a1.59,1.59,0,0,1,.24-.2h0l.13-.09a.37.37,0,0,1,.12-.07,1.67,1.67,0,0,1,.47-.2,1.19,1.19,0,0,1,.27-.07l.11,0a3.13,3.13,0,0,1,.43,0,1.93,1.93,0,1,1,0,3.8h-.26l-.25,0a1.83,1.83,0,0,1-.25-.06,1.23,1.23,0,0,1-.23-.08Zm22-20.76a2.15,2.15,0,0,1-2.35-1.85,2.09,2.09,0,0,1,2.24-1.94,2.14,2.14,0,0,1,2.35,1.84A2.1,2.1,0,0,1,291.32,364.17Zm8.53-8.24a2.15,2.15,0,0,1-2.35-1.85,2.1,2.1,0,0,1,2.23-1.95,2.16,2.16,0,0,1,2.36,1.85A2.1,2.1,0,0,1,299.85,355.93ZM310,346a1.14,1.14,0,0,1-.1.19.64.64,0,0,1-.14.21l0,0a1.85,1.85,0,0,1-.28.28l-.06.06-.15.1a.67.67,0,0,1-.11.07l-.26.13-.28.1a2.46,2.46,0,0,1-.72.11,2.16,2.16,0,0,1-2.36-1.84v0a1.94,1.94,0,0,1,0-.24,1.16,1.16,0,0,1,0-.18s0-.09,0-.14l.06-.15a1.79,1.79,0,0,1,.22-.34.87.87,0,0,1,.13-.15l.14-.13a1.94,1.94,0,0,1,.33-.23l.19-.1.17-.08a2.29,2.29,0,0,1,.6-.14l.3,0a2.16,2.16,0,0,1,2.36,1.85v.13a.64.64,0,0,1,0,.2,1.07,1.07,0,0,1-.08.27h0A.06.06,0,0,1,310,346Z" />
      <path class="BUNTAI_MEERKAT_OUTFIT_MEERKAT_OUTFIT_7_cls-2" d="M345.53,366s-6.31,20.47-27.48,34.43c0,.35-.08.7-.14,1a16.05,16.05,0,0,1-.33,1.65c0,.18-.09.35-.14.52s-.19.62-.3.92a.39.39,0,0,1-.05.14,3.07,3.07,0,0,1-.2.5.26.26,0,0,1-.05.12c-.06.16-.14.33-.21.48l-.14.29-.3.55a1.66,1.66,0,0,1-.19.3,6.12,6.12,0,0,1-.37.57,46.66,46.66,0,0,1,.58,7.28c0,.24,0,.48,0,.73v.14c0,.33,0,.65,0,1s0,.68-.05,1-.07.82-.11,1.23l-.06.54c0,.2-.05.4-.07.6s0,.09,0,.13c0,.26-.07.52-.1.78l-.15.9a37.51,37.51,0,0,1-3.88,11.29c-3.81,7.1-10.41,14-21.14,19.89-18.44,5.93-28.33,7.35-46.2,6.37a304.62,304.62,0,0,0-39.72.3q.22-.21.42-.42a33.43,33.43,0,0,0,6.57-8.74c1.71-3.59,1.29-5.86.26-7.28l2.22-2.21a7.57,7.57,0,0,0,2.38.3c4.93-.14,11.16-4.64,15.35-8.82a33.41,33.41,0,0,0,6.55-8.72c1.74-3.65,1.28-5.93.23-7.34l3.46-3.45.61-.61a17.34,17.34,0,0,0,9.78,1.92,22.83,22.83,0,0,0,6.59-1.57l.16-.06a34.11,34.11,0,0,0,12.92-9.7c4.22-4.9,10.59-11.86,17.69-19.05,12.06-12.19,26.24-25.05,35.66-29.62l2.66,2h0c2.71,2.07,5.55,1.25,8.75,3.78A66.1,66.1,0,0,0,345.53,366Z" />
      <path class="BUNTAI_MEERKAT_OUTFIT_MEERKAT_OUTFIT_7_cls-2" d="M295.37,328.13A75.67,75.67,0,0,1,289,340.79c-3.08,5-12.75,17.67-25.1,30.13l-.08.08a179.06,179.06,0,0,1-18.39,16.31,27.32,27.32,0,0,0-4,3.83,22,22,0,0,0-1.87,2.54c-.13.2-.25.4-.37.6l0,0a17.78,17.78,0,0,0-1.42,3c-1.85,5-1,9.84,2.21,13l-.5.49-.25.25h0l0,0-3.39,3.39a7.27,7.27,0,0,0-2.48-.33c-5,.13-11.17,4.63-15.36,8.81-5.19,5.16-9.58,12.23-6.71,16.14l-2.15,2.14a7.93,7.93,0,0,0-2.55-.35c-4.94.13-11.17,4.63-15.36,8.8-3.61,3.61-6.85,8.15-7.47,11.89-1.43.16-2.89.33-4.38.52a133.57,133.57,0,0,1-27.36.69c-11.75-1-19.65-3.31-23.79-8.26a.18.18,0,0,0-.1,0,28.37,28.37,0,0,1-3.26-1.53c-1.66-.91-3.21-1.84-4.68-2.81l0-.05,0,0c0-.07.07-.17.12-.29a1.38,1.38,0,0,1,.08-.2c.07-.16.14-.35.25-.57l.19-.43c.07-.16.15-.32.24-.5s.17-.36.26-.56a79.48,79.48,0,0,1,5.87-9.83l.83-1.2a121.27,121.27,0,0,1,7.64-9.61l.47-.52c2.4-2.71,5.14-5.58,8.26-8.54l.45-.43,1.27-1.19c.86-.8,1.75-1.61,2.66-2.41l.25-.22q1.91-1.69,4-3.42l1.4-1.15c.47-.39.95-.77,1.44-1.15,1-.78,2-1.56,3-2.34l1.56-1.17c.52-.39,1-.79,1.59-1.18l1.63-1.17c.53-.39,1.08-.78,1.62-1.15s1.24-.87,1.87-1.3l1.64-1.11,1.5-1c.5-.33,1-.67,1.52-1,.81-.53,1.63-1.05,2.47-1.58,11.18-7,27.72-11.56,45.39-20.28l4-2,2.14-1.07c.69-.34,1.37-.69,2.06-1.05s1.38-.7,2.07-1.05l1.84-.95.29-.15c1.7-.88,3.4-1.78,5.11-2.68l.85-.46c1-.51,1.93-1,2.89-1.56l2.54-1.4.88-.49,2-1.15c3.33-1.89,6.63-3.83,9.86-5.84.71-.43,1.42-.87,2.12-1.32.94-.59,1.88-1.19,2.8-1.8s1.73-1.14,2.59-1.71l.49-.33c.7-.47,1.38-.94,2.07-1.42,1-.7,2-1.41,3-2.14.79-.56,1.56-1.14,2.33-1.71.29-.21.57-.43.85-.65.58-.43,1.15-.87,1.72-1.32a3.37,3.37,0,0,0,.37-.29c.82-.63,1.63-1.27,2.42-1.93s1.43-1.17,2.13-1.76,1.37-1.17,2-1.76l.08-.07c.66-.58,1.31-1.17,1.94-1.76,2.26-2.08,4.41-4.2,6.42-6.4.48-.52.94-1,1.4-1.56,0,0,0,0,0,0,.47-.53.91-1.05,1.36-1.58l.4.4.81.79c.58.58,1.14,1.15,1.71,1.71Z" />
      <path class="BUNTAI_MEERKAT_OUTFIT_MEERKAT_OUTFIT_7_cls-3" d="M307.79,343.47a2.11,2.11,0,0,0-2.24,1.95,2.18,2.18,0,0,0,2.36,1.85,2.11,2.11,0,0,0,2.24-1.95A2.16,2.16,0,0,0,307.79,343.47Z" />
      <path class="BUNTAI_MEERKAT_OUTFIT_MEERKAT_OUTFIT_7_cls-3" d="M291.21,360.38a2.09,2.09,0,0,0-2.24,1.94,2.16,2.16,0,0,0,2.36,1.85,2.1,2.1,0,0,0,2.23-1.95A2.13,2.13,0,0,0,291.21,360.38Z" />
      <path class="BUNTAI_MEERKAT_OUTFIT_MEERKAT_OUTFIT_7_cls-3" d="M252.27,397.14c-2.85,0-5.17,1.9-5.17,4.25s2.32,4.26,5.17,4.26,5.15-1.9,5.15-4.26S255.11,397.14,252.27,397.14Z" />
      <path class="BUNTAI_MEERKAT_OUTFIT_MEERKAT_OUTFIT_7_cls-3" d="M299.74,352.13a2.11,2.11,0,0,0-2.24,1.95,2.15,2.15,0,0,0,2.35,1.85,2.11,2.11,0,0,0,2.24-1.95A2.17,2.17,0,0,0,299.74,352.13Z" />
      <path class="BUNTAI_MEERKAT_OUTFIT_MEERKAT_OUTFIT_7_cls-3" d="M314.74,331.31a7,7,0,0,0-5.28,2.23,53.27,53.27,0,0,0,9.76,8.09,5.15,5.15,0,0,0,2.6-4.31C321.82,334.34,318.36,331.31,314.74,331.31Z" />
      <path class="BUNTAI_MEERKAT_OUTFIT_MEERKAT_OUTFIT_7_cls-3" d="M270.52,381.43a1.93,1.93,0,1,0,2.29,1.89A2.12,2.12,0,0,0,270.52,381.43Z" />
      <path class="BUNTAI_MEERKAT_OUTFIT_MEERKAT_OUTFIT_7_cls-3" d="M261.74,389.47a1.93,1.93,0,1,0,0,3.79,1.93,1.93,0,1,0,0-3.79Z" />
      <path class="BUNTAI_MEERKAT_OUTFIT_MEERKAT_OUTFIT_7_cls-3" d="M281.16,368.83c-2.85,0-5.15,1.91-5.15,4.26s2.3,4.26,5.15,4.26,5.15-1.91,5.15-4.26S284,368.83,281.16,368.83Z" />
      <path class="BUNTAI_MEERKAT_OUTFIT_MEERKAT_OUTFIT_7_cls-6" d="M363.93,371.86c-3.82,20.44-22.48,39.45-48.3,50h0l.15-.9c.05-.3.08-.6.12-.91a38.61,38.61,0,0,0,.32-4.52c0-.25,0-.49,0-.73a46.66,46.66,0,0,0-.58-7.28c.13-.19.26-.38.37-.57a10.57,10.57,0,0,0,.89-1.74,16.57,16.57,0,0,0,1.16-4.77c21.17-14,27.48-34.43,27.48-34.43a50.75,50.75,0,0,0,9.77,4.32A28.13,28.13,0,0,0,363.93,371.86Z" />
      <path class="BUNTAI_MEERKAT_OUTFIT_MEERKAT_OUTFIT_7_cls-6" d="M293.53,323.89c-.35.44-.73.89-1.1,1.33s-.89,1-1.36,1.58c0,0,0,0,0,0-.46.53-.92,1-1.4,1.56-2,2.2-4.16,4.32-6.42,6.4-.63.59-1.29,1.18-1.94,1.76l-.08.07-2,1.76c-.7.59-1.4,1.18-2.13,1.76a2.31,2.31,0,0,1-.24.2c-.72.58-1.44,1.17-2.18,1.73a3.37,3.37,0,0,1-.37.29l-1.72,1.32c-.28.22-.56.44-.85.65l-2.33,1.71c-1,.73-2,1.44-3,2.14-.69.47-1.37.95-2.07,1.42l-.49.33-2.59,1.71c-.92.61-1.86,1.21-2.8,1.8-.7.45-1.41.89-2.12,1.32-3.23,2-6.53,4-9.86,5.84l-2,1.15-.88.49c-.84.48-1.69.94-2.54,1.4S239,364.7,238,365.21l-.85.46c-1.51.8-3,1.6-4.52,2.37l-.59.31-.29.15-1.84.95c-.69.35-1.38.71-2.07,1.05l-2.06,1.05-2.14,1.07-4,2c-17.67,8.72-34.21,13.26-45.39,20.28-.84.53-1.66,1.05-2.47,1.58l-1.52,1-1.5,1-1.64,1.11c-.63.43-1.26.86-1.87,1.3s-1.09.76-1.62,1.15L162,403.19c-.54.39-1.07.79-1.59,1.18l-1.56,1.17c-1,.78-2,1.56-3,2.34-.49.38-1,.76-1.44,1.15l-1.4,1.15q-2.08,1.72-4,3.42l-.25.22c-.91.8-1.8,1.61-2.66,2.41-.43.4-.86.79-1.27,1.19l-.45.43c-3.12,3-5.86,5.83-8.26,8.54l-.47.52a121.27,121.27,0,0,0-7.64,9.61l-.83,1.2a79.48,79.48,0,0,0-5.87,9.83c-.09.2-.19.38-.26.56s-.17.34-.24.5l-.19.43c-.11.22-.18.41-.25.57a1.38,1.38,0,0,0-.08.2c0,.12-.1.22-.12.29l0,0,0,.05a51.68,51.68,0,0,1-12.34-10.88h0s0-.06.06-.13.13-.25.22-.44l.09-.16c.2-.4.5-1,.9-1.65l.32-.56c.52-.9,1.18-2,2-3.27.2-.3.4-.62.61-1l1-1.53.37-.54c1.63-2.38,3.65-5.15,6.12-8.21.35-.44.71-.89,1.09-1.34,2.3-2.79,5-5.8,8-9q.56-.58,1.14-1.17,3.57-3.67,7.84-7.55l2-1.75,2-1.76c2-1.69,4-3.4,6.23-5.11.54-.43,1.1-.86,1.66-1.29q3.52-2.73,7.44-5.47l1.37-1c.65-.45,1.29-.89,1.95-1.33l1.94-1.29,2-1.29c.66-.43,1.34-.86,2-1.28,1.5-.95,3.11-1.91,4.8-2.87.92-.53,1.87-1.06,2.84-1.59,4.95-2.72,10.53-2.53,16.52-5.47l2-1,2-1,.87-.43c-25.35-12.54-53-27.51-70.38-46.92a13.26,13.26,0,0,0,3.21-1.13h0l8-5.34,5.42-3.15c19.52,22.85,43.22,33.94,71.73,47.78,26.29-13,42.92-22.69,59.84-43.24l11.12,4.53Z" />
      <path class="BUNTAI_MEERKAT_OUTFIT_MEERKAT_OUTFIT_7_cls-6" d="M99.79,407.48h0a13.35,13.35,0,0,1-2.12-5.12h0C71.07,388.43,63.29,366,63.29,366c-12.24,6.17-20.69,5.89-20.69,5.89C47,393,68.78,417.54,99.91,422.35A43.5,43.5,0,0,1,99.79,407.48Z" />
      <path class="BUNTAI_MEERKAT_OUTFIT_MEERKAT_OUTFIT_7_cls-7" d="M195.22,369l-.87.43c-10.95,5.33-20.76,7.23-28.21,11.91a207.6,207.6,0,0,0-24.59,18c-22,18.85-31.46,35.59-33.36,39.24-.23.44-.35.69-.37.73a37.87,37.87,0,0,1-7.08-13.5c-.34-1.16-.61-2.31-.83-3.46a43.5,43.5,0,0,1-.12-14.87v0a10.9,10.9,0,0,1-1.12-2,14.19,14.19,0,0,1-1-3.14h0c-.94-.5-1.86-1-2.76-1.52-1.34-.77-2.63-1.55-3.87-2.36C69.76,384.63,63.3,366,63.3,366c3-1.52,6.87-2.68,9.67-5.85,14.38-16.27,14.38-37.3,51.53-37.78.12-.09.23-.19.34-.29C142.26,341.47,169.87,356.44,195.22,369Z" />
      <path class="BUNTAI_MEERKAT_OUTFIT_MEERKAT_OUTFIT_7_cls-8" d="M293.53,323.89c-.35.44-.73.89-1.1,1.33s-.89,1-1.36,1.58c0,0,0,0,0,0-.46.53-.92,1-1.4,1.56-2,2.2-4.16,4.32-6.42,6.4-.63.59-1.28,1.18-1.94,1.76l-.08.07c-.66.59-1.34,1.17-2,1.76s-1.4,1.18-2.13,1.76-1.6,1.3-2.42,1.93a3.37,3.37,0,0,1-.37.29c-.57.45-1.14.89-1.72,1.32-.28.22-.56.44-.85.65-.77.57-1.54,1.15-2.33,1.71-1,.73-2,1.44-3,2.14-.69.48-1.37.95-2.07,1.42l-.49.33c-.86.57-1.72,1.15-2.59,1.71s-1.86,1.21-2.8,1.8c-.7.45-1.41.89-2.12,1.32-3.23,2-6.53,4-9.86,5.84l-2,1.15-.88.49-2.54,1.4c-1,.52-1.92,1.05-2.89,1.56l-.85.46c-1.71.9-3.41,1.8-5.11,2.68l-.29.15-1.84.95c-.69.35-1.38.71-2.07,1.05s-1.37.71-2.06,1.05l-2.14,1.07-4,2c-17.67,8.72-34.21,13.26-45.39,20.28-.84.53-1.66,1.05-2.47,1.58-.51.32-1,.66-1.52,1l-1.5,1c-.55.36-1.1.74-1.64,1.11s-1.26.86-1.87,1.3-1.09.76-1.62,1.15-1.09.78-1.63,1.17-1.07.78-1.59,1.18-1.05.77-1.56,1.17c-1,.78-2,1.56-3,2.34-.49.38-1,.76-1.44,1.15s-.95.77-1.4,1.15q-2.1,1.72-4,3.42l-.25.22c-.91.8-1.8,1.61-2.66,2.41l-1.27,1.19-.45.43c-3.12,3-5.86,5.83-8.26,8.54l-.47.52a121.27,121.27,0,0,0-7.64,9.61l-.83,1.2a79.48,79.48,0,0,0-5.87,9.83c-.09.2-.19.38-.26.56s-.17.34-.24.5l-.19.43c-.11.22-.18.41-.25.57a1.38,1.38,0,0,0-.08.2c0,.12-.1.22-.12.29l0,0,0,.05h0" />
      <path class="BUNTAI_MEERKAT_OUTFIT_MEERKAT_OUTFIT_7_cls-8" d="M107.82,439.32h0c.22-.46,14.73-30.62,58.32-58,7.64-4.81,17.78-6.84,29.09-12.34,5.74-2.8,11.79-5.71,18-8.77,26.29-13,42.92-22.69,59.84-43.24" />
      <path class="BUNTAI_MEERKAT_OUTFIT_MEERKAT_OUTFIT_7_cls-8" d="M195.22,369c-25.35-12.54-53-27.51-70.38-46.92-.61-.68,1.86-.51,3.21-1.13" />
      <path class="BUNTAI_MEERKAT_OUTFIT_MEERKAT_OUTFIT_7_cls-8" d="M141.47,312.43c19.52,22.84,43.22,33.94,71.73,47.78" />
      <polyline class="BUNTAI_MEERKAT_OUTFIT_MEERKAT_OUTFIT_7_cls-8" points="273.04 316.97 284.16 321.5 293.53 323.89" />
      <polyline class="BUNTAI_MEERKAT_OUTFIT_MEERKAT_OUTFIT_7_cls-8" points="141.47 312.43 136.05 315.58 128.05 320.92 128.05 320.93" />
      <path class="BUNTAI_MEERKAT_OUTFIT_MEERKAT_OUTFIT_7_cls-8" d="M124.84,322.06l-.34.29c-34.55.48-37,19.15-51.53,37.78-2.61,3.35-6.67,4.33-9.67,5.85A61.52,61.52,0,0,1,53,370.09l-.1,0a36.13,36.13,0,0,1-10.34,1.74c.13.66.29,1.33.46,2C46,385.33,54,397.59,65.56,407a1.18,1.18,0,0,0,.18.13,72.49,72.49,0,0,0,18.12,10.74q.94.39,1.92.75h0c1,.39,2.06.75,3.11,1.09,2,.65,4,1.21,6.14,1.68h0c1.35.31,2.73.58,4.13.81l.7.11" />
      <path class="BUNTAI_MEERKAT_OUTFIT_MEERKAT_OUTFIT_7_cls-8" d="M63.29,366s7.78,22.45,34.37,36.37" />
      <path class="BUNTAI_MEERKAT_OUTFIT_MEERKAT_OUTFIT_7_cls-8" d="M292.43,325.22l.4.4.81.79c.58.58,1.14,1.15,1.71,1.71h0" />
      <path class="BUNTAI_MEERKAT_OUTFIT_MEERKAT_OUTFIT_7_cls-8" d="M315.61,421.83h0c25.82-10.51,44.48-29.52,48.3-50a28.13,28.13,0,0,1-8.63-1.56,50.75,50.75,0,0,1-9.77-4.32,66.1,66.1,0,0,1-8.6-5.85c-3.2-2.53-6-1.71-8.75-3.78" />
      <path class="BUNTAI_MEERKAT_OUTFIT_MEERKAT_OUTFIT_7_cls-8" d="M325.51,354.31l2.67,2" />
      <path class="BUNTAI_MEERKAT_OUTFIT_MEERKAT_OUTFIT_7_cls-8" d="M318.05,400.41c21.18-14,27.48-34.43,27.48-34.43" />
      <path class="BUNTAI_MEERKAT_OUTFIT_MEERKAT_OUTFIT_7_cls-8" d="M99.79,407.47a62.88,62.88,0,0,1,8.89-23.17" />
      <path class="BUNTAI_MEERKAT_OUTFIT_MEERKAT_OUTFIT_7_cls-8" d="M99.79,407.48a43.5,43.5,0,0,0,.12,14.87c.12.58.24,1.15.37,1.73,0,.25.12.5.19.76l.06.24c.06.24.13.48.21.73s.15.54.23.81a.08.08,0,0,1,0,0c.16.53.34,1.06.54,1.6.36,1,.76,2,1.23,3,.11.25.23.49.35.73s.32.64.49,1a35.75,35.75,0,0,0,2.45,4c.16.24.32.48.5.72.4.55.83,1.11,1.27,1.65h0a51.68,51.68,0,0,0,12.34,10.88c1.47,1,3,1.9,4.68,2.81a28.37,28.37,0,0,0,3.26,1.53l.1,0c1.71.7,4.08,4.56,7.1,5.39l1.21.31.06,0,1.42.35.78.18c1.37.31,2.86.61,4.44.88.7.13,1.44.25,2.19.36,1.9.28,3.93.53,6.09.72l.5,0c.42,0,.85.07,1.29.09l2.07.14,1.05.05.68,0,1,0a138.25,138.25,0,0,0,21.3-1c1.49-.19,3-.36,4.38-.52l4-.45q5.91-.63,11.17-1.06c2-.17,3.92-.31,5.78-.44a304.62,304.62,0,0,1,39.72-.3c17.87,1,27.76-.44,46.2-6.37,10.73-5.89,17.33-12.79,21.14-19.89a37.51,37.51,0,0,0,3.88-11.29l.15-.9c0-.26.07-.52.1-.78,0,0,0-.08,0-.13s0-.4.07-.6l.06-.54c0-.41.07-.82.11-1.23s0-.68.05-1,0-.66,0-1v-.14c0-.25,0-.49,0-.73a46.66,46.66,0,0,0-.58-7.28,62.66,62.66,0,0,0-8.87-23.19" />
      <path class="BUNTAI_MEERKAT_OUTFIT_MEERKAT_OUTFIT_7_cls-8" d="M97.9,390.61a31.94,31.94,0,0,0-.23,11.74,13.35,13.35,0,0,0,2.12,5.12h0" />
      <path class="BUNTAI_MEERKAT_OUTFIT_MEERKAT_OUTFIT_7_cls-8" d="M317.52,390.61a33.4,33.4,0,0,1,.53,9.8,14.73,14.73,0,0,1-2.42,7.07" />
      <path class="BUNTAI_MEERKAT_OUTFIT_MEERKAT_OUTFIT_7_cls-8" d="M328.86,347.7l-3.11,1.42c-.39.18-.77.38-1.17.59-16.93,9-46.87,40.22-56.19,51.05-5,5.81-10.79,9.27-16.28,9.73a11.38,11.38,0,0,1-7.91-2,7.26,7.26,0,0,1-2.74-5.88c-.07-4.25,2.55-8.81,7.15-12.51,21.62-16.39,40.46-40.94,44.52-47.57,2.9-4.71,6.83-11.12,7.83-13.47l1.54-3.83" />
      <path class="BUNTAI_MEERKAT_OUTFIT_MEERKAT_OUTFIT_7_cls-8" d="M295.37,328.12h0A75.67,75.67,0,0,1,289,340.79c-4.5,7.34-23.09,31-43.57,46.52-9.5,7.58-10.88,17.67-5.43,23.06a10.55,10.55,0,0,0,1,.93,13.48,13.48,0,0,0,1.68,1.09c7,3.87,19,2.75,29.45-9.41,11.37-13.2,38.37-41.41,53.34-48.67" />
      <path class="BUNTAI_MEERKAT_OUTFIT_MEERKAT_OUTFIT_7_cls-8" d="M293.64,326.41s5.31-4.87,8.86-1.19a13.8,13.8,0,0,1,1.12,1.36,56.45,56.45,0,0,0,5.84,7,53.27,53.27,0,0,0,9.76,8.09c.54.32,1.07.61,1.61.88a33.21,33.21,0,0,1,8,5.19c2,2,.43,6.11-.68,8.64h0" />
      <path class="BUNTAI_MEERKAT_OUTFIT_MEERKAT_OUTFIT_7_cls-8" d="M319.22,341.63a5.14,5.14,0,0,0,2.59-4.31c0-3-3.45-6-7.07-6a7,7,0,0,0-5.28,2.23" />
      <path class="BUNTAI_MEERKAT_OUTFIT_MEERKAT_OUTFIT_7_cls-8" d="M257.42,401.39c0,2.36-2.31,4.26-5.15,4.26s-5.17-1.9-5.17-4.26,2.32-4.25,5.17-4.25S257.42,399,257.42,401.39Z" />
      <path class="BUNTAI_MEERKAT_OUTFIT_MEERKAT_OUTFIT_7_cls-8" d="M264,391.37a2.34,2.34,0,1,1-2.29-1.9A2.11,2.11,0,0,1,264,391.37Z" />
      <path class="BUNTAI_MEERKAT_OUTFIT_MEERKAT_OUTFIT_7_cls-8" d="M272.81,383.32a2.34,2.34,0,1,1-2.29-1.89A2.12,2.12,0,0,1,272.81,383.32Z" />
      <path class="BUNTAI_MEERKAT_OUTFIT_MEERKAT_OUTFIT_7_cls-8" d="M293.56,362.22a2.1,2.1,0,0,1-2.23,1.95,2.16,2.16,0,0,1-2.36-1.85,2.09,2.09,0,0,1,2.24-1.94A2.13,2.13,0,0,1,293.56,362.22Z" />
      <path class="BUNTAI_MEERKAT_OUTFIT_MEERKAT_OUTFIT_7_cls-8" d="M310.15,345.32a2.11,2.11,0,0,1-2.24,1.95,2.18,2.18,0,0,1-2.36-1.85,2.11,2.11,0,0,1,2.24-1.95A2.16,2.16,0,0,1,310.15,345.32Z" />
      <path class="BUNTAI_MEERKAT_OUTFIT_MEERKAT_OUTFIT_7_cls-8" d="M302.09,354a2.11,2.11,0,0,1-2.24,1.95,2.15,2.15,0,0,1-2.35-1.85,2.11,2.11,0,0,1,2.24-1.95A2.17,2.17,0,0,1,302.09,354Z" />
      <path class="BUNTAI_MEERKAT_OUTFIT_MEERKAT_OUTFIT_7_cls-8" d="M286.31,373.09c0,2.35-2.31,4.26-5.15,4.26s-5.15-1.91-5.15-4.26,2.3-4.26,5.15-4.26S286.31,370.74,286.31,373.09Z" />
      <path class="BUNTAI_MEERKAT_OUTFIT_MEERKAT_OUTFIT_7_cls-8" d="M235.81,414.53a7.49,7.49,0,0,0-2.48-.33c-5,.13-11.18,4.64-15.36,8.81-5.18,5.16-9.58,12.23-6.71,16.14l0,0" />
      <path class="BUNTAI_MEERKAT_OUTFIT_MEERKAT_OUTFIT_7_cls-8" d="M238.65,416.45c1.06,1.41,1.51,3.69-.22,7.33a33.56,33.56,0,0,1-6.56,8.73c-4.19,4.18-10.41,8.68-15.35,8.81a7.31,7.31,0,0,1-2.38-.29" />
      <path class="BUNTAI_MEERKAT_OUTFIT_MEERKAT_OUTFIT_7_cls-8" d="M232.88,417.45c-2.93.41-7.65,3.32-11.93,7.59s-6.88,8.91-6.83,11.36" />
      <path class="BUNTAI_MEERKAT_OUTFIT_MEERKAT_OUTFIT_7_cls-8" d="M235.72,419.38c.05,2.45-2.55,6.83-6.83,11.1s-9,7.19-11.93,7.59" />
      <path class="BUNTAI_MEERKAT_OUTFIT_MEERKAT_OUTFIT_7_cls-8" d="M240,410.37l-4.18,4.16-2.93,2.92-1.19,1.19a1.35,1.35,0,0,0,.24,2.13,2.1,2.1,0,0,0,2.58-.19l1.21-1.2,2.93-2.93,4.07-4.06" />
      <path class="BUNTAI_MEERKAT_OUTFIT_MEERKAT_OUTFIT_7_cls-8" d="M124.84,322.06a16.84,16.84,0,0,0,3.21-1.13" />
      <g class="BUNTAI_MEERKAT_OUTFIT_MEERKAT_OUTFIT_7_cls-9">
        <path d="M241.46,391.14s-25.56,4.94-44.55,9.57-37.78,13.74-37.78,13.74,20.76.31,36.1-5.47,36.65-10.06,36.65-10.06l6.61-1.78A10.11,10.11,0,0,1,241.46,391.14Z" />
        <path d="M203.92,411.13s16.55-.27,25.11-.76,9.31,0,9.31,0l.9-.21v1L237,412.78s-11.17.12-21.68,0-25.57,0-24.62.05S203.92,411.13,203.92,411.13Z" />
        <path d="M101.82,369.41s-6.56,28.3-2.51,38.7c-.94-1.54-1.13-4.3-1.88-5.54-6.19-10.21-6.84-8.83-6.84-8.83s1.65,14.14,0,16.86-4.81,8-4.81,8,9.89,3.33,13.43,3.6c4.29,10.51,13.9,33.84,41.83,39.39,17.87,2.82,33.81.95,42.69,0-32.78-9-39.39-44.08-39.39-44.08l-2.79-18.21S112.48,394.34,101.82,369.41Z" />
        <path d="M53.05,370.09s8.36,19.55,22.77,29l18.62,12.14-5.6,8.67a85.74,85.74,0,0,1-23.11-12.71C53.8,398,45.21,384.55,42.6,371.87A90.83,90.83,0,0,0,53.05,370.09Z" />
        <path d="M205.13,364.17,195.22,369l-.87.43s-34.15-17.09-51-30.1a165.43,165.43,0,0,1-18.84-17c.12-.09.23-.19.34-.29a13.13,13.13,0,0,0,3.21-1.13h0l8-5.34h0s4.48,11.35,23.08,25.42S205.13,364.17,205.13,364.17Z" />
        <path d="M292.43,325.22l.4.4a129.74,129.74,0,0,1-11,10.57q-2.28,2-4.8,4a2.31,2.31,0,0,1-.24.2c-11.18,8.82-25.8,17.92-44.12,27.69l-.59.31-.29.15q-14.13,7.5-31.2,15.6c-24.08,11.44-41.87,21.56-51.55,29.5l-.25.22c-1.76,1.44-3.25,2.72-4.44,3.77-2.37,2.09-3.61,3.31-3.61,3.31l-.6-5.34s.52-1.37,3.22-4.4c2.93-3.29,8.46-8.56,18.7-16.18,19.67-14.64,40.69-21.67,74.77-39.29a187.93,187.93,0,0,0,47.33-34.19l9.37,2.39C293.18,324.33,292.8,324.78,292.43,325.22Z" />
        <path d="M273.33,367.23s-6.92,12.13-3.31,19,20.4-8.84,20.4-8.84l.85,4.55S273.85,408,259.1,412.74s-20.59-.36-22.11-7.09.14-11,10.43-19.45a173.18,173.18,0,0,0,16.47-15.28C264.33,370.48,273.33,367.23,273.33,367.23Z" />
        <path d="M326.69,345.91c-.23-.16-8.84.51-16.54-2.44s-10.35-6.42-10.35-6.42,4.15,5.64,9.16,8.32,12.3,1.87,12.3,1.87l2.9,1.77,3.25-1Z" />
        <path d="M363.93,371.86c-3.82,20.44-22.48,39.45-48.3,50,.05-.3.09-.59.13-.89s.08-.6.12-.91.08-.8.12-1.21c.1-1.17.17-2.3.2-3.31,0-.25,0-.49,0-.73.05-1.9,0-3.2,0-3.2s10.72-3.57,22-14.26,17.12-27,17.12-27A28.13,28.13,0,0,0,363.93,371.86Z" />
        <path d="M308.76,386.47s6,12.48,7.45,21.65a48.8,48.8,0,0,0-.58-27.28,79.6,79.6,0,0,1,0,17.55S314,391.11,308.76,386.47Z" />
        <path d="M311.73,433.12c-3.81,7.1-10.41,14-21.14,19.89-18.44,5.93-28.33,7.35-46.2,6.37h0s40.25-2.89,55-21.28c14.47-18.1,7.52-36.22,7.31-36.78A59.74,59.74,0,0,1,311.73,433.12Z" />
      </g>
    </g>
  </g>
</svg>