<svg xmlns="http://www.w3.org/2000/svg" viewBox="0 0 432 432">
  <defs>
    <style>.BUNTAI_MEERKAT_OUTFIT_MEERKAT_OUTFIT_9_cls-1{isolation:isolate;}.BUNTAI_MEERKAT_OUTFIT_MEERKAT_OUTFIT_9_cls-2{fill:#bcd2f1;}.BUNTAI_MEERKAT_OUTFIT_MEERKAT_OUTFIT_9_cls-3{fill:#a096c4;}.BUNTAI_MEERKAT_OUTFIT_MEERKAT_OUTFIT_9_cls-4{fill:#e3b37d;}.BUNTAI_MEERKAT_OUTFIT_MEERKAT_OUTFIT_9_cls-5{fill:#fe5037;}.BUNTAI_MEERKAT_OUTFIT_MEERKAT_OUTFIT_9_cls-6{fill:#a27a0a;}.BUNTAI_MEERKAT_OUTFIT_MEERKAT_OUTFIT_9_cls-7{fill:none;stroke:#000;stroke-linecap:round;stroke-linejoin:round;stroke-width:1.63px;}.BUNTAI_MEERKAT_OUTFIT_MEERKAT_OUTFIT_9_cls-8{opacity:0.43;mix-blend-mode:multiply;}</style>
  </defs>
  <g class="BUNTAI_MEERKAT_OUTFIT_MEERKAT_OUTFIT_9_cls-1">
    <g id="outfit">
      <path class="BUNTAI_MEERKAT_OUTFIT_MEERKAT_OUTFIT_9_cls-2" d="M197.58,414.17a9.67,9.67,0,0,1-2.65,6.85,12.93,12.93,0,0,1-6.24,3.57,19.53,19.53,0,0,1-3,.53,11,11,0,0,0-1.34-.83,11.28,11.28,0,0,0,1.77-3.32,11.06,11.06,0,0,0-.51-8.23,10.25,10.25,0,0,0-6.63-5.32,11.45,11.45,0,0,0-8.24,1.08,20.42,20.42,0,0,0-5.64-5.22,11.78,11.78,0,0,0-7.23-1.72,8.84,8.84,0,0,0-6.34,3.82,8,8,0,0,0-1.09,6.16,9.35,9.35,0,0,0-1.4,0,13.77,13.77,0,0,0-1.55.15,10.92,10.92,0,0,1-2.16-3.07,10.12,10.12,0,0,1-.43-1.08h0c-.09-.25-.16-.51-.23-.77a.36.36,0,0,1,0-.1s0,0,0-.05a1.74,1.74,0,0,1-.05-.22,2.21,2.21,0,0,1,0-.25.63.63,0,0,1,0-.19,1.8,1.8,0,0,1-.06-.32.28.28,0,0,1,0-.09.8.8,0,0,1,0-.15c0-.15,0-.3-.05-.45a.17.17,0,0,1,0-.1.34.34,0,0,1,0-.1s0-.05,0-.07a.28.28,0,0,1,0-.09c0-.07,0-.14,0-.21v-.05c0-.17,0-.35,0-.53a10.64,10.64,0,0,1,.07-1.26,2.63,2.63,0,0,1,.05-.49,12.57,12.57,0,0,1,.33-1.62c.08-.26.16-.52.26-.78a10.51,10.51,0,0,1,1.1-2.23,13.2,13.2,0,0,0-4.51,8.56,13.59,13.59,0,0,0,1.2,7.28,18.35,18.35,0,0,0-4.87,3.61c-2.51,2.57-4.44,6.2-3.86,9.85a7.94,7.94,0,0,0,3.9,5.66,6.75,6.75,0,0,0,1.21.51l.42.13.42.08a.64.64,0,0,0,.2,0l.28,0,.39,0H142l.18,0a1.54,1.54,0,0,0,.3,0l.11,0L143,433l.1,0,.18,0a2.29,2.29,0,0,0,.37-.12l.45-.17.46-.22a3.64,3.64,0,0,1-.57,0l-.38,0h-.09l-.09,0-.13,0a.31.31,0,0,1-.13,0,.08.08,0,0,1-.07,0l-.09,0-.18-.05-.31-.11-.07,0-.14-.06-.09-.05a.56.56,0,0,1-.17-.09l-.15-.08-.11-.07,0,0-.17-.12-.18-.13-.19-.16a5.38,5.38,0,0,1-.71-.72l-.13-.18A4.63,4.63,0,0,1,140,430a4.92,4.92,0,0,1-.24-.45h0v0l-.12-.28a.25.25,0,0,0,0-.07c0-.07,0-.14-.07-.2l0-.05a5.47,5.47,0,0,1-.15-.58,5.76,5.76,0,0,1-.11-1.09v-.35a.13.13,0,0,1,0-.06,4.66,4.66,0,0,1,.09-.75.15.15,0,0,1,0-.07.29.29,0,0,1,0-.09,4.54,4.54,0,0,1,.12-.5.25.25,0,0,1,0-.07s0,0,0-.06a2.47,2.47,0,0,1,.1-.29,2.09,2.09,0,0,1,.13-.35.5.5,0,0,1,0-.13l0-.07a.52.52,0,0,1,.07-.15,3.41,3.41,0,0,1,.17-.33,1.13,1.13,0,0,1,.12-.21.67.67,0,0,1,.06-.12l.11-.17.09-.14.05-.07a1.43,1.43,0,0,1,.14-.2l.18-.23.21-.24,0-.06,0,0s0,0,0-.05a4.09,4.09,0,0,1,.47-.46s0,0,.05-.05l.24-.2a9,9,0,0,1,6.73-1.69c3.45.42,6.9,2.76,7.76,6.33.61,2.5-.12,5.13-.91,7.57-.29.89-.59,1.79-.89,2.67-.22.63-.44,1.26-.68,1.88a5,5,0,0,1-.18.5c0,.06,0,.12-.07.19l-.39,1c-.05.15-.11.3-.17.44l0,.08c-.15.41-.31.81-.47,1.21-.22.57-.45,1.13-.69,1.69a2.85,2.85,0,0,1-.12.31l-.36.86-.27.63c-.16.39-.33.77-.5,1.15-.26.6-.52,1.18-.79,1.77-.07.16-.15.31-.22.47-.19.41-.37.81-.56,1.2l-.58,1.2-.3.63-.26.52c-.15.31-.3.62-.46.93-.05.09-.1.19-.14.28l0,0c-.4.79-.81,1.57-1.23,2.35-.12.23-.24.46-.37.68-.29.55-.6,1.1-.9,1.64-.07.13-.14.26-.22.38s-.28.5-.43.75-.41.73-.63,1.09l-.19.32-.73,1.22c-.13.23-.27.46-.42.68s-.28.47-.43.7-.18.3-.28.44a1.5,1.5,0,0,1-.15.23c-.24.39-.49.79-.75,1.18-.37.58-.75,1.16-1.14,1.73a2.68,2.68,0,0,1-.18.28l-.51.75-.29.42-.29.43-.3.43-.52.73c-.37.52-.74,1-1.12,1.55h0a106.28,106.28,0,0,0,19.08,6.18l.7-4.42c.29-1.32.6-2.65.91-4,.19-.82.38-1.64.58-2.46.07-.31.15-.61.22-.92,0,0,0-.05,0-.08.3-1.24.61-2.47.92-3.7a.13.13,0,0,0,0-.06c.15-.61.31-1.21.47-1.81l.48-1.82c0-.18.09-.36.14-.54.27-1,.55-2.07.84-3.11.1-.35.19-.7.29-1.05l.75-2.65,0-.11q1-3.6,2.13-7.19c1.19-3.84,2.63-7.95,5.82-10.16a8.33,8.33,0,0,1,8.06-.8c2.29,1,4.22,3.39,4,6a4.77,4.77,0,0,1-3.62,4.25,4.49,4.49,0,0,1-4.82-2.57,8.86,8.86,0,0,0,9.08,6.59c4-.34,7.48-3.62,8.61-7.67a13.16,13.16,0,0,0-.46-8.13,16.52,16.52,0,0,0,4.6-4.78A17.41,17.41,0,0,0,197.58,414.17Zm-35.64,15c2-3.87.61-9.07-1.95-12.55a12.44,12.44,0,0,0-5-4c0-.12,0-.25,0-.38a5,5,0,0,1,3.37-4.34,6.76,6.76,0,0,1,7.13,1.7,7.76,7.76,0,0,1,1.68,7.56,6.36,6.36,0,0,1,6.72-3.83,6.76,6.76,0,0,1,5.48,5.74,6.92,6.92,0,0,1-.38,3.32A18.11,18.11,0,0,0,161.94,429.21Z" />
      <path class="BUNTAI_MEERKAT_OUTFIT_MEERKAT_OUTFIT_9_cls-2" d="M288.68,425.15a.81.81,0,0,0,0-.16v-.06a.48.48,0,0,0,0-.12.34.34,0,0,0,0-.1,0,0,0,0,0,0,0l0-.32a.11.11,0,0,0,0,0,6.47,6.47,0,0,0-.15-.88,2,2,0,0,0-.05-.24.3.3,0,0,1,0-.1h0a.08.08,0,0,0,0,0c0-.13-.07-.27-.11-.4a1.8,1.8,0,0,0-.09-.28,5.33,5.33,0,0,0-.23-.63.58.58,0,0,0-.05-.14l0,0,0-.08,0-.07a.61.61,0,0,0-.05-.12l-.09-.21-.06-.12a.3.3,0,0,0,0-.08c0-.07-.07-.15-.1-.21a2.12,2.12,0,0,0-.11-.21c-.07-.14-.14-.28-.22-.42l-.17-.28a.8.8,0,0,0-.09-.14c-.15-.25-.32-.49-.48-.73l0-.05s0,0,0-.05l-.26-.34c-.21-.28-.43-.56-.66-.82s-.46-.52-.7-.77a18.35,18.35,0,0,0-4.87-3.61,13.68,13.68,0,0,0,1.2-7.28,13.24,13.24,0,0,0-4.51-8.56,12,12,0,0,1,.76,11.21,10.89,10.89,0,0,1-2.15,3.07,13.72,13.72,0,0,0-1.56-.15,9.22,9.22,0,0,0-1.39,0,8.09,8.09,0,0,0-1.09-6.16,8.86,8.86,0,0,0-6.35-3.82,11.73,11.73,0,0,0-7.22,1.72,20.46,20.46,0,0,0-5.65,5.22,11.45,11.45,0,0,0-8.24-1.08,10.21,10.21,0,0,0-6.62,5.32,11.06,11.06,0,0,0-.52,8.23,11.52,11.52,0,0,0,1.77,3.32,10.18,10.18,0,0,0-1.33.83h0a19.2,19.2,0,0,1-3-.53,13,13,0,0,1-6.25-3.57,9.67,9.67,0,0,1-2.65-6.85,17.42,17.42,0,0,0,2.43,12.45,16.39,16.39,0,0,0,4.6,4.78,13.17,13.17,0,0,0-.47,8.13c1.14,4.05,4.64,7.33,8.62,7.67a8.85,8.85,0,0,0,9.07-6.59,4.49,4.49,0,0,1-4.82,2.57,4.78,4.78,0,0,1-3.62-4.25c-.2-2.62,1.73-5,4-6a8.33,8.33,0,0,1,8.06.8c3.19,2.21,4.64,6.32,5.82,10.16.1.31.19.62.29.94l.48,1.6c0,.1.06.2.08.29.14.44.26.87.39,1.31.07.2.13.4.18.59.16.53.31,1.06.46,1.59s.23.77.33,1.15c.05.14.08.28.13.42q.93,3.28,1.8,6.58l.17.65,0,.13c.06.21.12.42.17.64l.09.34c.16.61.32,1.22.47,1.82l.15.61c.06.21.11.41.16.62l.24.95.36,1.45c0,.12.06.24.08.36q.9,3.7,1.73,7.43l1.14,4.32a106.17,106.17,0,0,0,18.65-6.08h0c-.44-.59-.86-1.17-1.28-1.77l-.52-.74c-.07-.1-.15-.2-.22-.31h0c-.26-.37-.51-.73-.75-1.1-.39-.57-.77-1.13-1.14-1.7l-.06-.09c-.34-.52-.68-1-1-1.57-.09-.14-.18-.27-.26-.41l-.18-.28-.18-.29-.28-.46-.24-.39c-.08-.12-.15-.24-.22-.36a2.36,2.36,0,0,1-.15-.25c-.2-.31-.39-.63-.57-1s-.29-.47-.42-.71c-.38-.64-.74-1.27-1.1-1.92l-.09-.15a1.19,1.19,0,0,0-.09-.15l-.55-1c-.12-.21-.24-.43-.35-.65l-.19-.36h0c-.42-.78-.83-1.56-1.23-2.35l-.24-.47-.55-1.11-.39-.8a.38.38,0,0,1-.06-.13c-.19-.36-.35-.71-.52-1.07,0-.09-.09-.17-.12-.26l-.1-.21c-.15-.32-.3-.64-.44-1-.29-.62-.57-1.23-.84-1.85-.35-.79-.69-1.59-1-2.39-.14-.31-.26-.62-.39-.94l-.05-.12a2.29,2.29,0,0,1-.1-.23.06.06,0,0,1,0,0c-.21-.51-.42-1-.62-1.55l0,0c-.2-.52-.4-1-.59-1.57l-.35-.93c-.19-.52-.38-1-.56-1.57-.11-.29-.22-.6-.33-.9v0a.88.88,0,0,0-.05-.15c-.27-.79-.54-1.58-.79-2.37-.8-2.44-1.53-5.07-.92-7.57.86-3.57,4.32-5.91,7.77-6.33a9.05,9.05,0,0,1,6.73,1.69,3.47,3.47,0,0,1,.29.25.86.86,0,0,1,.14.13l0,0,.11.11a5.12,5.12,0,0,1,.45.49l.09.11a.76.76,0,0,1,.08.11.64.64,0,0,1,.1.13s0,0,0,0h0l.14.21.11.16.07.11v0l0,0s.05.08.07.13a1.67,1.67,0,0,1,.12.23l0,0a2.39,2.39,0,0,1,.13.28,1.31,1.31,0,0,1,.12.27,1.45,1.45,0,0,1,.11.26h0a1.72,1.72,0,0,1,.07.21l.06.16c0,.05,0,.09,0,.13.05.2.1.4.14.6s.05.28.07.42,0,.07,0,.1v0a.57.57,0,0,1,0,.13.49.49,0,0,1,0,.12,5.65,5.65,0,0,1,0,.92,4.25,4.25,0,0,1-.08.61c-.48,2.45-2.81,4.45-5.14,4.09a7.09,7.09,0,0,0,6.61,0,7.94,7.94,0,0,0,3.9-5.66,9.22,9.22,0,0,0,.09-1.17.61.61,0,0,0,0-.14v-.12A.41.41,0,0,0,288.68,425.15Zm-26.07-8.49c-2.55,3.48-4,8.68-1.95,12.55a18.1,18.1,0,0,0-17-6.79,6.75,6.75,0,0,1,5.09-9.06,6.38,6.38,0,0,1,6.73,3.83,7.78,7.78,0,0,1,1.67-7.56,6.77,6.77,0,0,1,7.14-1.7,5,5,0,0,1,3.37,4.34c0,.13,0,.26,0,.38A12.57,12.57,0,0,0,262.61,416.66Z" />
      <path class="BUNTAI_MEERKAT_OUTFIT_MEERKAT_OUTFIT_9_cls-3" d="M165.44,409.63a6.74,6.74,0,0,0-7.13-1.7,5,5,0,0,0-3.37,4.33c0,.14,0,.27,0,.39a12.44,12.44,0,0,1,5,4c2.56,3.48,4,8.68,1.95,12.55a18.1,18.1,0,0,1,17-6.79,6.75,6.75,0,0,0-5.09-9.06,6.37,6.37,0,0,0-6.72,3.82A7.77,7.77,0,0,0,165.44,409.63Z" />
      <path class="BUNTAI_MEERKAT_OUTFIT_MEERKAT_OUTFIT_9_cls-3" d="M267.65,412.65c0-.12,0-.25,0-.39a5,5,0,0,0-3.38-4.33,6.74,6.74,0,0,0-7.13,1.7,7.76,7.76,0,0,0-1.67,7.55,6.39,6.39,0,0,0-6.73-3.82,6.75,6.75,0,0,0-5.09,9.06,18.1,18.1,0,0,1,17,6.79c-2-3.87-.6-9.07,1.95-12.55A12.44,12.44,0,0,1,267.65,412.65Z" />
      <path class="BUNTAI_MEERKAT_OUTFIT_MEERKAT_OUTFIT_9_cls-3" d="M313.81,431.8h0a72.06,72.06,0,0,1-4.21,11.28c-5,10.57-9.82,19.75-19,26.47,0,0-1.58.84-4.33,2h0a132.87,132.87,0,0,1-17.51-32.64c-.6-1.65-1.18-3.32-1.72-5-.8-2.44-1.53-5.07-.92-7.58.86-3.56,4.32-5.9,7.77-6.32a9,9,0,0,1,6.72,1.69,7,7,0,0,1,1.65,1.89,6.68,6.68,0,0,1,.93,4.7c-.48,2.45-2.81,4.45-5.14,4.09a7.12,7.12,0,0,0,6.61,0,8,8,0,0,0,3.9-5.66,11.14,11.14,0,0,0-2.5-8.26,16,16,0,0,0-1.36-1.59,18.23,18.23,0,0,0-4.88-3.61,13.59,13.59,0,0,0,1.2-7.28,13.19,13.19,0,0,0-4.5-8.56,12,12,0,0,1,.76,11.21,10.89,10.89,0,0,1-2.15,3.07,13.72,13.72,0,0,0-1.56-.15,10.75,10.75,0,0,0-1.39,0,8.07,8.07,0,0,0-1.09-6.15,8.79,8.79,0,0,0-6.35-3.82,11.66,11.66,0,0,0-7.22,1.72,20.46,20.46,0,0,0-5.65,5.22,11.45,11.45,0,0,0-8.24-1.08,10.21,10.21,0,0,0-6.62,5.32,11.06,11.06,0,0,0-.52,8.23,11.34,11.34,0,0,0,1.77,3.31,11.46,11.46,0,0,0-1.33.84h0a20.42,20.42,0,0,1-3-.53,13,13,0,0,1-6.25-3.57,9.67,9.67,0,0,1-2.65-6.85,17.43,17.43,0,0,0,2.42,12.44,16.34,16.34,0,0,0,4.61,4.79,13.16,13.16,0,0,0-.47,8.13c1.14,4.05,4.64,7.33,8.61,7.67a8.87,8.87,0,0,0,9.08-6.59,4.51,4.51,0,0,1-4.82,2.57,4.79,4.79,0,0,1-3.62-4.25,6.41,6.41,0,0,1,4-6,8.36,8.36,0,0,1,8.06.79c3.19,2.22,4.64,6.33,5.82,10.16l.29.95q4.29,14.1,7.5,28.53l1.14,4.31h0c-17.09,3.83-40.17,4.13-56.35-14.58-16.05,18.55-38.86,18.42-55.91,14.67l.7-4.41q2.49-11.24,5.66-22.28,1-3.61,2.13-7.2c1.18-3.83,2.63-7.94,5.82-10.16a8.36,8.36,0,0,1,8.06-.79,6.41,6.41,0,0,1,4,6,4.78,4.78,0,0,1-3.62,4.25,4.51,4.51,0,0,1-4.82-2.57,8.88,8.88,0,0,0,9.08,6.59c4-.34,7.47-3.62,8.61-7.67a13.23,13.23,0,0,0-.46-8.13,16.44,16.44,0,0,0,4.6-4.79,17.43,17.43,0,0,0,2.42-12.44,9.67,9.67,0,0,1-2.65,6.85,13,13,0,0,1-6.25,3.57,20.42,20.42,0,0,1-3,.53h0a11.46,11.46,0,0,0-1.33-.84,11.05,11.05,0,0,0,1.26-11.54,10.25,10.25,0,0,0-6.63-5.32,11.45,11.45,0,0,0-8.24,1.08,20.42,20.42,0,0,0-5.64-5.22,11.71,11.71,0,0,0-7.23-1.72,8.77,8.77,0,0,0-6.34,3.82,8,8,0,0,0-1.09,6.15,10.9,10.9,0,0,0-1.4,0,14.17,14.17,0,0,0-1.56.15,11.09,11.09,0,0,1-2.15-3.07,8,8,0,0,1-.43-1.09,12,12,0,0,1,1.2-10.12,13.2,13.2,0,0,0-4.51,8.56,13.59,13.59,0,0,0,1.2,7.28,18.35,18.35,0,0,0-4.87,3.61c-2.51,2.57-4.44,6.2-3.86,9.85a7.94,7.94,0,0,0,3.9,5.66,7.08,7.08,0,0,0,4.71.71,6.86,6.86,0,0,0,1.89-.66,3.86,3.86,0,0,1-2.24-.35,5.4,5.4,0,0,1-2.9-3.74,7,7,0,0,1,2.34-6.39l.24-.2a9,9,0,0,1,6.72-1.69c3.45.42,6.91,2.76,7.77,6.32.61,2.51-.12,5.14-.91,7.58q-1.8,5.54-4,10.87a131.67,131.67,0,0,1-15.18,26.78h0c-2.76-1.19-4.34-2-4.34-2a69.84,69.84,0,0,1-21.64-26.47c-1.71-3.62-.45-7.4-1.54-11.28h0c5.23-12.42,15.3-37.21,37.37-48.56a4.89,4.89,0,0,0,3.14,1.16,4.71,4.71,0,0,0,1.28-.18,5.34,5.34,0,0,0,3.79-4.38c.8-.26,1.59-.49,2.41-.71a49.88,49.88,0,0,1,6.48-1.31c22.07,8.59,48,41.64,48,41.64s26-33,48.05-41.64a51.52,51.52,0,0,1,7.81,1.69,5.34,5.34,0,0,0,3.83,4.71,4.71,4.71,0,0,0,1.28.18,4.93,4.93,0,0,0,3.51-1.49,70.11,70.11,0,0,1,21.7,17.47C307,411.48,310.55,424.05,313.81,431.8Z" />
      <path class="BUNTAI_MEERKAT_OUTFIT_MEERKAT_OUTFIT_9_cls-4" d="M316.13,420a74.3,74.3,0,0,1-2.32,11.83c-3.26-7.75-6.77-20.32-16.33-31.42a70.11,70.11,0,0,0-21.7-17.47,5.29,5.29,0,0,0,1.45-2.61c.49-2,1-4,1.51-5.86l1,.47a73.19,73.19,0,0,1,21.44,15.55C309.06,398.7,312.43,408.89,316.13,420Z" />
      <path class="BUNTAI_MEERKAT_OUTFIT_MEERKAT_OUTFIT_9_cls-4" d="M267.29,377.6a5.89,5.89,0,0,0-.13,1.91,51.52,51.52,0,0,0-7.81-1.69c-22.08,8.59-48.05,41.64-48.05,41.64s-26-33-48-41.64c-.53.08-1.06.15-1.58.24l-.16,0c-.52.08-1,.18-1.55.28l-.14,0-1.44.32h-.07l-1.54.4-1.21.34-1.2.37a5.67,5.67,0,0,0-.09-2.24q-.81-3.37-1.67-6.51a68.09,68.09,0,0,1,10.15-2.32s20.52-1,48.54,37.53c28-38.57,48.54-37.53,48.54-37.53a69,69,0,0,1,9.2,2Q268.14,374.07,267.29,377.6Z" />
      <path class="BUNTAI_MEERKAT_OUTFIT_MEERKAT_OUTFIT_9_cls-4" d="M146.16,383.24c-22.07,11.35-32.14,36.14-37.37,48.56A74.3,74.3,0,0,1,106.47,420c3.7-11.08,7.08-21.27,15-29.51a73,73,0,0,1,21.43-15.55l.09,0q.7,2.63,1.38,5.43A5.32,5.32,0,0,0,146.16,383.24Z" />
      <path class="BUNTAI_MEERKAT_OUTFIT_MEERKAT_OUTFIT_9_cls-5" d="M321.64,357.68l13.24,18.38a63.21,63.21,0,0,0-.35,8.81c-.46-.65-.93-1.3-1.4-1.92Q327.79,375.8,322,369C321.9,365.23,321.78,361.46,321.64,357.68Z" />
      <path class="BUNTAI_MEERKAT_OUTFIT_MEERKAT_OUTFIT_9_cls-5" d="M322,369q-2.9-3.43-5.91-6.77c-4.23-4.7-22.66-10.31-27.72-14a40.81,40.81,0,0,0-9.09-5,30.7,30.7,0,0,0-6.21-1.71c-11.21-1.79-22.23,3.28-33.21,6.32a95,95,0,0,1-57.34-2.25c-7.41-2.68-14.52-6.29-22.06-8.48-6.11-1.76-12.68-2.54-18.79-1.09a5.2,5.2,0,0,0-2.8-1.92,30.7,30.7,0,0,1,15.51-2.24c4.8.57,9.43,2.28,14,4,2.88,1.08,5.77,2.16,8.69,3.18l37.45,3.47c6.83.62,13.83,1.23,20.63.67a38.62,38.62,0,0,0,5-2.82c5.51-3.63,10.22-8.44,15-13.14,4-4,8.58-8.13,14.08-8.46,3.21-.2,6.35.95,9.4,2.09L295,327a15.18,15.18,0,0,0,0,4.85,21.51,21.51,0,0,0,5.37.51c1,1.46,4.49,3.27,8.07,5.18h0c3.87,2.07,7.83,4.26,8.77,6.26a2,2,0,0,1,.21.89,9.19,9.19,0,0,1,2.77,2.85c1.08,1.87,1.18,4.18,1.26,6.37,0,.89.07,1.79.09,2.68v0c0,.36,0,.72,0,1.08.07,1.81.13,3.61.19,5.42Z" />
      <path class="BUNTAI_MEERKAT_OUTFIT_MEERKAT_OUTFIT_9_cls-4" d="M141.62,342a11.21,11.21,0,0,1-3.93,4,12.31,12.31,0,0,1-4.76,1.81c-.22,0-.44.06-.67.08a8,8,0,0,1-4.08-.6,4.78,4.78,0,0,1-2.45-2.42c-.89-2-.19-4.56,1.6-6.69a.76.76,0,0,1,.09-.09h0a11.88,11.88,0,0,1,3.48-2.79l.51-.27a11.61,11.61,0,0,1,5.52-1.24,8.27,8.27,0,0,1,.87.09,6.52,6.52,0,0,1,1.1.25,5.2,5.2,0,0,1,2.8,1.92,3.92,3.92,0,0,1,.45.8A5.8,5.8,0,0,1,141.62,342Z" />
      <path class="BUNTAI_MEERKAT_OUTFIT_MEERKAT_OUTFIT_9_cls-6" d="M279.32,343.23A154.66,154.66,0,0,0,269,370.8q-.9,3.27-1.75,6.8a5.89,5.89,0,0,0-.13,1.91,5.34,5.34,0,0,0,3.83,4.71,4.71,4.71,0,0,0,1.28.18,4.93,4.93,0,0,0,3.51-1.49,5.29,5.29,0,0,0,1.45-2.61c.49-2,1-4,1.51-5.86a145.37,145.37,0,0,1,9.66-26.16A40.79,40.79,0,0,0,279.32,343.23Z" />
      <path class="BUNTAI_MEERKAT_OUTFIT_MEERKAT_OUTFIT_9_cls-6" d="M154.37,379.84a5.34,5.34,0,0,1-3.79,4.38,4.71,4.71,0,0,1-1.28.18,4.89,4.89,0,0,1-3.14-1.16,5.32,5.32,0,0,1-1.83-2.94q-.68-2.81-1.38-5.43a144.19,144.19,0,0,0-10-27.07,12.31,12.31,0,0,0,4.76-1.81,11.21,11.21,0,0,0,3.93-4,153.08,153.08,0,0,1,11,29.11q.85,3.14,1.67,6.51A5.67,5.67,0,0,1,154.37,379.84Z" />
      <path class="BUNTAI_MEERKAT_OUTFIT_MEERKAT_OUTFIT_9_cls-6" d="M136.94,333.77a11.61,11.61,0,0,0-5.52,1.24l-.51.27h0l-.5.28-.45.29a11,11,0,0,0-1.5,1.16,9.06,9.06,0,0,0-1,1.05h0a.76.76,0,0,0-.09.09l-.55-.8a47.13,47.13,0,0,0-5.43-6.59l-.11-.11-.08-.09a13,13,0,0,0-1.38-1.2,5.44,5.44,0,0,1-1.89-2.37c1.87-.48,3.83-.72,5.48-1.7a3.22,3.22,0,0,0,.39-.25c1.29-.9,2.24-2.27,3.54-3.13l.07-.05A59.31,59.31,0,0,1,136.94,333.77Z" />
      <path class="BUNTAI_MEERKAT_OUTFIT_MEERKAT_OUTFIT_9_cls-5" d="M127.85,347.92a103.45,103.45,0,0,1-7,11.79,124.28,124.28,0,0,1-14,8.53c-1,.5-1.92,1-2.88,1.48a76.66,76.66,0,0,0-8.33,4.67c-1.24.83-2.45,1.75-3.73,2.71-4.39,3.3-19.1,6.53-24.79,6.76h-.57c-5.92,0-11.23-3.65-15.13-6.34l-8.73-6a26.25,26.25,0,0,1,3.08-.17,17.72,17.72,0,0,0,4.29-.75L54,373.31c4.53,3.13,8.64,5.72,12.94,5.52S85.16,376,89.16,373c1.27-.95,2.59-1.94,3.93-2.85a81.45,81.45,0,0,1,8.82-4.95l2.84-1.46A120,120,0,0,0,127.85,347.92Z" />
      <path class="BUNTAI_MEERKAT_OUTFIT_MEERKAT_OUTFIT_9_cls-3" d="M128.18,347.28l-.33.64a120,120,0,0,1-23.1,15.81l-2.84,1.46a81.45,81.45,0,0,0-8.82,4.95c-1.34.91-2.66,1.9-3.93,2.85-4,3-18,5.68-22.23,5.84s-8.41-2.39-12.94-5.52l-3.94-2.72c.7-.19,1.39-.42,2.09-.66h0a61.53,61.53,0,0,1,6.91-2.21c.14,0,.28-.07.43-.09a6.12,6.12,0,0,0,3.7-2.72c.11-.15.2-.3.3-.46A15.8,15.8,0,0,0,64.93,361c.16-.54.31-1.09.46-1.63,1.91-6.88,14.86-13.13,16.77-20a35.45,35.45,0,0,0,11.46-1.16,58.49,58.49,0,0,1,8.72-15.9,43.32,43.32,0,0,0,9.68,8.82h0a23.15,23.15,0,0,1,5.21-3.83,4.51,4.51,0,0,1,.66-.27,5.44,5.44,0,0,0,1.89,2.37,13,13,0,0,1,1.38,1.2l.08.09.11.11a47.13,47.13,0,0,1,5.43,6.59l.55.8c-1.79,2.13-2.49,4.65-1.6,6.69A4.78,4.78,0,0,0,128.18,347.28Z" />
      <path class="BUNTAI_MEERKAT_OUTFIT_MEERKAT_OUTFIT_9_cls-3" d="M104,369.72a76.66,76.66,0,0,0-8.33,4.67c-1.24.83-2.45,1.75-3.73,2.71-4.39,3.3-19.1,6.53-24.79,6.76h-.57c-5.92,0-11.23-3.65-15.13-6.34l-8.73-6a6.8,6.8,0,0,0-1.31.33,4,4,0,0,0-2.77,3.31c3-.24,4.76,2.58,6.89,4.88,2.61,2.83,6,4.69,9.27,6.51,3.12,1.71,16.53,3.65,20,3.85,4,.21,7.79-1.61,11.1-3.92s6.29-5.14,9.67-7.34c4.07-2.67,8.65-4.36,12.75-7a45.49,45.49,0,0,0,12.49-12.44,124.28,124.28,0,0,1-14,8.53C105.88,368.74,104.92,369.24,104,369.72Z" />
      <path class="BUNTAI_MEERKAT_OUTFIT_MEERKAT_OUTFIT_9_cls-7" d="M112,331.11a42,42,0,0,0,14.76,6.26" />
      <path class="BUNTAI_MEERKAT_OUTFIT_MEERKAT_OUTFIT_9_cls-7" d="M93.62,338.19a58.49,58.49,0,0,1,8.72-15.9,43.32,43.32,0,0,0,9.68,8.82" />
      <path class="BUNTAI_MEERKAT_OUTFIT_MEERKAT_OUTFIT_9_cls-7" d="M127.85,347.92l.33-.64" />
      <path class="BUNTAI_MEERKAT_OUTFIT_MEERKAT_OUTFIT_9_cls-7" d="M42.68,371.51a6.8,6.8,0,0,0-1.31.33,4,4,0,0,0-2.77,3.31c3-.24,4.76,2.58,6.89,4.88,2.61,2.83,6,4.69,9.27,6.51,3.12,1.71,16.53,3.65,20,3.85,4,.21,7.79-1.61,11.1-3.92s6.29-5.14,9.67-7.34c4.07-2.67,8.65-4.36,12.75-7a45.49,45.49,0,0,0,12.49-12.44" />
      <path class="BUNTAI_MEERKAT_OUTFIT_MEERKAT_OUTFIT_9_cls-7" d="M104.25,333.46a37.08,37.08,0,0,1-10.63,4.73,35.45,35.45,0,0,1-11.46,1.16c-1.91,6.89-14.86,13.14-16.77,20a20.58,20.58,0,0,1-1.89,5.07c-.1.16-.19.31-.3.46a6.12,6.12,0,0,1-3.7,2.72c-3.19.62-6.3,2.08-9.45,3" />
      <path class="BUNTAI_MEERKAT_OUTFIT_MEERKAT_OUTFIT_9_cls-7" d="M63.2,364.9c18.22,1,47-5.79,60.41-18.92" />
      <path class="BUNTAI_MEERKAT_OUTFIT_MEERKAT_OUTFIT_9_cls-7" d="M127.85,347.92a103.45,103.45,0,0,1-7,11.79,124.28,124.28,0,0,1-14,8.53c-1,.5-1.92,1-2.88,1.48a76.66,76.66,0,0,0-8.33,4.67c-1.24.83-2.45,1.75-3.73,2.71-4.39,3.3-19.1,6.53-24.79,6.76h-.57c-5.92,0-11.23-3.65-15.13-6.34l-8.73-6a26.25,26.25,0,0,1,3.08-.17,17.72,17.72,0,0,0,4.29-.75L54,373.31c4.53,3.13,8.64,5.72,12.94,5.52S85.16,376,89.16,373c1.27-.95,2.59-1.94,3.93-2.85a81.45,81.45,0,0,1,8.82-4.95l2.84-1.46A120,120,0,0,0,127.85,347.92Z" />
      <path class="BUNTAI_MEERKAT_OUTFIT_MEERKAT_OUTFIT_9_cls-7" d="M141.62,342a11.21,11.21,0,0,1-3.93,4,12.31,12.31,0,0,1-4.76,1.81c-.22,0-.44.06-.67.08a8,8,0,0,1-4.08-.6,4.78,4.78,0,0,1-2.45-2.42c-.89-2-.19-4.56,1.6-6.69a.76.76,0,0,1,.09-.09h0a11.88,11.88,0,0,1,3.48-2.79l.51-.27a11.61,11.61,0,0,1,5.52-1.24,8.27,8.27,0,0,1,.87.09,6.52,6.52,0,0,1,1.1.25,5.2,5.2,0,0,1,2.8,1.92,3.92,3.92,0,0,1,.45.8A5.8,5.8,0,0,1,141.62,342Z" />
      <path class="BUNTAI_MEERKAT_OUTFIT_MEERKAT_OUTFIT_9_cls-7" d="M132.93,347.8a144.19,144.19,0,0,1,10,27.07q.7,2.63,1.38,5.43a5.32,5.32,0,0,0,1.83,2.94,4.89,4.89,0,0,0,3.14,1.16,4.71,4.71,0,0,0,1.28-.18,5.34,5.34,0,0,0,3.79-4.38,5.67,5.67,0,0,0-.09-2.24q-.81-3.37-1.67-6.51a153.08,153.08,0,0,0-11-29.11" />
      <path class="BUNTAI_MEERKAT_OUTFIT_MEERKAT_OUTFIT_9_cls-7" d="M127.37,321.88a59.31,59.31,0,0,1,9.57,11.89" />
      <path class="BUNTAI_MEERKAT_OUTFIT_MEERKAT_OUTFIT_9_cls-7" d="M127.33,338.17l-.55-.8c-4-5.77-6.93-7.95-7-8a5.44,5.44,0,0,1-1.89-2.37" />
      <path class="BUNTAI_MEERKAT_OUTFIT_MEERKAT_OUTFIT_9_cls-7" d="M279.32,343.23A154.66,154.66,0,0,0,269,370.8q-.9,3.27-1.75,6.8a5.89,5.89,0,0,0-.13,1.91,5.34,5.34,0,0,0,3.83,4.71,4.71,4.71,0,0,0,1.28.18,4.93,4.93,0,0,0,3.51-1.49,5.29,5.29,0,0,0,1.45-2.61c.49-2,1-4,1.51-5.86a145.37,145.37,0,0,1,9.66-26.16" />
      <path class="BUNTAI_MEERKAT_OUTFIT_MEERKAT_OUTFIT_9_cls-7" d="M127.37,321.88l-.07.05c-1.3.86-2.25,2.23-3.54,3.13a3.22,3.22,0,0,1-.39.25c-1.65,1-3.61,1.22-5.48,1.7a4.51,4.51,0,0,0-.66.27,23.15,23.15,0,0,0-5.21,3.83h0" />
      <path class="BUNTAI_MEERKAT_OUTFIT_MEERKAT_OUTFIT_9_cls-7" d="M141.71,336c6.11-1.45,12.68-.67,18.78,1.09,7.55,2.19,14.66,5.8,22.07,8.48a94.92,94.92,0,0,0,57.33,2.24c11-3,22-8.1,33.22-6.31a30.68,30.68,0,0,1,6.21,1.7,40.79,40.79,0,0,1,9.08,5c5.06,3.66,23.5,9.27,27.73,14,2,2.22,4,4.48,5.91,6.76q5.74,6.8,11.09,13.94c.47.62.94,1.27,1.4,1.92" />
      <path class="BUNTAI_MEERKAT_OUTFIT_MEERKAT_OUTFIT_9_cls-7" d="M208.16,344.83c-10.57.62-20.94-2.22-31.06-5.79-2.92-1-5.81-2.1-8.69-3.18-4.56-1.71-9.19-3.42-14-4a30.7,30.7,0,0,0-15.51,2.24" />
      <path class="BUNTAI_MEERKAT_OUTFIT_MEERKAT_OUTFIT_9_cls-7" d="M280.83,333.11c-4.49-3.75-11-3.34-16.33-1.23s-10.08,5.7-15.36,8a43.93,43.93,0,0,1-14,3.31c-6.8.56-13.81-.05-20.63-.68L177.1,339" />
      <path class="BUNTAI_MEERKAT_OUTFIT_MEERKAT_OUTFIT_9_cls-7" d="M235.18,343.18a38.62,38.62,0,0,0,5-2.82c5.51-3.63,10.22-8.44,15-13.14,4-4,8.57-8.13,14.08-8.46,3.21-.2,6.35.95,9.4,2.09L295,327a15.18,15.18,0,0,0,0,4.85" />
      <path class="BUNTAI_MEERKAT_OUTFIT_MEERKAT_OUTFIT_9_cls-7" d="M321.64,357.68l13.24,18.38a63.21,63.21,0,0,0-.35,8.81" />
      <path class="BUNTAI_MEERKAT_OUTFIT_MEERKAT_OUTFIT_9_cls-7" d="M288.54,335.9c4.77,1.84,23.24,5.12,27.59,7.88.45.29.91.58,1.35.9a9.3,9.3,0,0,1,2.77,2.85c1.08,1.87,1.18,4.17,1.26,6.37.05,1.26.09,2.52.13,3.78.14,3.78.26,7.55.4,11.33" />
      <path class="BUNTAI_MEERKAT_OUTFIT_MEERKAT_OUTFIT_9_cls-7" d="M267.18,327.12c3.49-1.58,7.49-1.5,11.22-.67a89.55,89.55,0,0,1,10.86,3.68,44.57,44.57,0,0,0,5.78,1.71,21.51,21.51,0,0,0,5.37.51c1,1.46,4.49,3.27,8.07,5.18h0c3.87,2.07,7.83,4.26,8.77,6.26a2,2,0,0,1,.21.89" />
      <path class="BUNTAI_MEERKAT_OUTFIT_MEERKAT_OUTFIT_9_cls-7" d="M211.3,463.09c-16.05,18.55-38.86,18.42-55.91,14.67a105.6,105.6,0,0,1-19.08-6.17c-2.76-1.19-4.34-2-4.34-2a69.84,69.84,0,0,1-21.64-26.47c-1.71-3.62-.45-7.4-1.54-11.28" />
      <path class="BUNTAI_MEERKAT_OUTFIT_MEERKAT_OUTFIT_9_cls-7" d="M108.79,431.8A74.3,74.3,0,0,1,106.47,420" />
      <path class="BUNTAI_MEERKAT_OUTFIT_MEERKAT_OUTFIT_9_cls-7" d="M106.47,420c3.7-11.08,7.08-21.27,15-29.51a73,73,0,0,1,21.43-15.55l.09,0" />
      <path class="BUNTAI_MEERKAT_OUTFIT_MEERKAT_OUTFIT_9_cls-7" d="M211.3,406.3c-28-38.57-48.54-37.53-48.54-37.53a68.09,68.09,0,0,0-10.15,2.32" />
      <path class="BUNTAI_MEERKAT_OUTFIT_MEERKAT_OUTFIT_9_cls-7" d="M146.16,383.24c-22.07,11.35-32.14,36.14-37.37,48.56h0" />
      <path class="BUNTAI_MEERKAT_OUTFIT_MEERKAT_OUTFIT_9_cls-7" d="M154.37,379.84a51.41,51.41,0,0,1,8.89-2c22.07,8.59,48,41.64,48,41.64" />
      <path class="BUNTAI_MEERKAT_OUTFIT_MEERKAT_OUTFIT_9_cls-7" d="M185.65,425.12a13.83,13.83,0,0,1,2.77,2.58,13.43,13.43,0,0,1,2.6,11.83c-1.14,4.05-4.64,7.33-8.61,7.67a8.88,8.88,0,0,1-9.08-6.59,4.51,4.51,0,0,0,4.82,2.57,4.78,4.78,0,0,0,3.62-4.25,6.41,6.41,0,0,0-4-6,8.36,8.36,0,0,0-8.06.79c-3.19,2.22-4.64,6.33-5.82,10.16q-4.47,14.56-7.79,29.48l-.7,4.41" />
      <path class="BUNTAI_MEERKAT_OUTFIT_MEERKAT_OUTFIT_9_cls-7" d="M136.31,471.58a132.81,132.81,0,0,0,19.23-37.65c.79-2.44,1.52-5.07.91-7.58-.86-3.56-4.32-5.9-7.77-6.32a9,9,0,0,0-6.72,1.69,7,7,0,0,0-2.58,6.59c.49,2.45,2.82,4.45,5.14,4.09a7.1,7.1,0,0,1-6.6,0,7.94,7.94,0,0,1-3.9-5.66c-.58-3.65,1.35-7.28,3.86-9.85a18.35,18.35,0,0,1,4.87-3.61,15.61,15.61,0,0,1,4.69-1.56,14.17,14.17,0,0,1,1.56-.15,10.9,10.9,0,0,1,1.4,0,13.06,13.06,0,0,1,4.55,1.12,12.44,12.44,0,0,1,5,4c2.56,3.48,4,8.68,1.95,12.55a18.1,18.1,0,0,1,17-6.79c.31.05.62.1.93.17a16.47,16.47,0,0,1,4.45,1.69,11.46,11.46,0,0,1,1.33.84" />
      <path class="BUNTAI_MEERKAT_OUTFIT_MEERKAT_OUTFIT_9_cls-7" d="M142.75,413.23a13.59,13.59,0,0,1-1.2-7.28,13.2,13.2,0,0,1,4.51-8.56,12,12,0,0,0-.77,11.21,11.09,11.09,0,0,0,2.15,3.07" />
      <path class="BUNTAI_MEERKAT_OUTFIT_MEERKAT_OUTFIT_9_cls-7" d="M190.56,431.4a16.44,16.44,0,0,0,4.6-4.79,17.43,17.43,0,0,0,2.42-12.44,9.67,9.67,0,0,1-2.65,6.85,13,13,0,0,1-6.25,3.57,20.42,20.42,0,0,1-3,.53h0" />
      <path class="BUNTAI_MEERKAT_OUTFIT_MEERKAT_OUTFIT_9_cls-7" d="M155,412.65c0-.12,0-.25,0-.39a5,5,0,0,1,3.37-4.33,6.74,6.74,0,0,1,7.13,1.7,7.77,7.77,0,0,1,1.68,7.55,6.37,6.37,0,0,1,6.72-3.82,6.75,6.75,0,0,1,5.09,9.06" />
      <path class="BUNTAI_MEERKAT_OUTFIT_MEERKAT_OUTFIT_9_cls-7" d="M150.4,411.53a8,8,0,0,1,1.09-6.15,8.77,8.77,0,0,1,6.34-3.82,11.71,11.71,0,0,1,7.23,1.72,20.42,20.42,0,0,1,5.64,5.22,11.45,11.45,0,0,1,8.24-1.08,10.25,10.25,0,0,1,6.63,5.32,11.05,11.05,0,0,1-1.26,11.54" />
      <path class="BUNTAI_MEERKAT_OUTFIT_MEERKAT_OUTFIT_9_cls-7" d="M316.13,420a74.3,74.3,0,0,1-2.32,11.83" />
      <path class="BUNTAI_MEERKAT_OUTFIT_MEERKAT_OUTFIT_9_cls-7" d="M313.81,431.81a72.06,72.06,0,0,1-4.21,11.28c-5,10.57-9.82,19.75-19,26.47,0,0-1.58.84-4.33,2a106.17,106.17,0,0,1-18.65,6.08c-17.09,3.83-40.17,4.13-56.35-14.58" />
      <path class="BUNTAI_MEERKAT_OUTFIT_MEERKAT_OUTFIT_9_cls-7" d="M211.3,406.3c28-38.57,48.54-37.53,48.54-37.53a69,69,0,0,1,9.2,2" />
      <path class="BUNTAI_MEERKAT_OUTFIT_MEERKAT_OUTFIT_9_cls-7" d="M316.13,420c-3.7-11.08-7.07-21.27-14.95-29.51a73.19,73.19,0,0,0-21.44-15.55l-1-.47" />
      <path class="BUNTAI_MEERKAT_OUTFIT_MEERKAT_OUTFIT_9_cls-7" d="M211.3,419.46s26-33,48.05-41.64a51.52,51.52,0,0,1,7.81,1.69" />
      <path class="BUNTAI_MEERKAT_OUTFIT_MEERKAT_OUTFIT_9_cls-7" d="M313.81,431.81h0c-3.26-7.75-6.77-20.32-16.33-31.42a70.11,70.11,0,0,0-21.7-17.47" />
      <path class="BUNTAI_MEERKAT_OUTFIT_MEERKAT_OUTFIT_9_cls-7" d="M237,425.12a13.83,13.83,0,0,0-2.77,2.58,13.52,13.52,0,0,0-2.6,11.83c1.14,4.05,4.64,7.33,8.61,7.67a8.87,8.87,0,0,0,9.08-6.59,4.51,4.51,0,0,1-4.82,2.57,4.79,4.79,0,0,1-3.62-4.25,6.41,6.41,0,0,1,4-6,8.36,8.36,0,0,1,8.06.79c3.19,2.22,4.64,6.33,5.82,10.16q4.48,14.56,7.79,29.48l1.14,4.31" />
      <path class="BUNTAI_MEERKAT_OUTFIT_MEERKAT_OUTFIT_9_cls-7" d="M286.3,471.58a132.56,132.56,0,0,1-19.23-37.65c-.8-2.44-1.53-5.07-.92-7.58.86-3.56,4.32-5.9,7.77-6.32a9,9,0,0,1,6.72,1.69,7,7,0,0,1,2.58,6.59c-.48,2.45-2.81,4.45-5.14,4.09a7.12,7.12,0,0,0,6.61,0,8,8,0,0,0,3.9-5.66c.57-3.65-1.35-7.28-3.86-9.85a18.23,18.23,0,0,0-4.88-3.61,15.52,15.52,0,0,0-4.69-1.56,13.72,13.72,0,0,0-1.56-.15,10.75,10.75,0,0,0-1.39,0,13.06,13.06,0,0,0-4.56,1.12,12.44,12.44,0,0,0-5,4c-2.55,3.48-4,8.68-1.95,12.55a18.1,18.1,0,0,0-17-6.79c-.31.05-.62.1-.93.17a16.59,16.59,0,0,0-4.45,1.69,11.46,11.46,0,0,0-1.33.84" />
      <path class="BUNTAI_MEERKAT_OUTFIT_MEERKAT_OUTFIT_9_cls-7" d="M275.16,411.67a10.89,10.89,0,0,0,2.15-3.07,12,12,0,0,0-.76-11.21,13.19,13.19,0,0,1,4.5,8.56,13.59,13.59,0,0,1-1.2,7.28" />
      <path class="BUNTAI_MEERKAT_OUTFIT_MEERKAT_OUTFIT_9_cls-7" d="M237,425.12h0a20.42,20.42,0,0,1-3-.53,13,13,0,0,1-6.25-3.57,9.67,9.67,0,0,1-2.65-6.85,17.43,17.43,0,0,0,2.42,12.44,16.34,16.34,0,0,0,4.61,4.79" />
      <path class="BUNTAI_MEERKAT_OUTFIT_MEERKAT_OUTFIT_9_cls-7" d="M243.67,422.42a6.75,6.75,0,0,1,5.09-9.06,6.39,6.39,0,0,1,6.73,3.82,7.76,7.76,0,0,1,1.67-7.55,6.75,6.75,0,0,1,7.14-1.7,5,5,0,0,1,3.37,4.33c0,.14,0,.27,0,.39" />
      <path class="BUNTAI_MEERKAT_OUTFIT_MEERKAT_OUTFIT_9_cls-7" d="M238.29,424.28a11.34,11.34,0,0,1-1.77-3.31,11.06,11.06,0,0,1,.52-8.23,10.21,10.21,0,0,1,6.62-5.32,11.45,11.45,0,0,1,8.24,1.08,20.46,20.46,0,0,1,5.65-5.22,11.66,11.66,0,0,1,7.22-1.72,8.79,8.79,0,0,1,6.35,3.82,8.07,8.07,0,0,1,1.09,6.15" />
      <path class="BUNTAI_MEERKAT_OUTFIT_MEERKAT_OUTFIT_9_cls-7" d="M137.81,333.86s6,5.42-4.23,11.62" />
      <g class="BUNTAI_MEERKAT_OUTFIT_MEERKAT_OUTFIT_9_cls-8">
        <path d="M316.13,420a74.3,74.3,0,0,1-2.32,11.83h0a72.06,72.06,0,0,1-4.21,11.28c-5,10.57-9.82,19.75-19,26.47,0,0-1.58.84-4.33,2a106.17,106.17,0,0,1-18.65,6.08c-17.09,3.83-40.17,4.13-56.35-14.58-16.05,18.55-38.86,18.42-55.91,14.67a105.6,105.6,0,0,1-19.08-6.17c-2.76-1.19-4.34-2-4.34-2a69.84,69.84,0,0,1-21.64-26.47c-1.71-3.62-.45-7.4-1.54-11.28h0A74.3,74.3,0,0,1,106.47,420c3.7-11.08,7.08-21.27,15-29.51a73,73,0,0,1,21.43-15.55l.09,0a144.19,144.19,0,0,0-10-27.07c-.22,0-.44.06-.67.08l5.43-1.89h0s9.16,22.91,9.72,26.82,5.63.49,5.63.49l-.46-2.2a68.09,68.09,0,0,1,10.15-2.32s-2.59,4-6,10.36a158.45,158.45,0,0,0-11.92,28.38h0q-.8,2.67-1.46,5.39a83.84,83.84,0,0,0-1.68,9c-.1.79-.19,1.58-.26,2.36a19.75,19.75,0,0,0,.82,7.77c.1.34.22.68.35,1a27.92,27.92,0,0,0,8.86,11.74,47.74,47.74,0,0,0,10.26,6.27c15.86,7.25,37.13,7.94,49.08-2,5.43,2.85,28.5,5,48.18-4.25a53.89,53.89,0,0,0,9.78-5.88,47.55,47.55,0,0,0,12.35-13.82c.4-.51.77-1,1.15-1.51,1.37-1.82,2.63-3.54,3.8-5.18a147.8,147.8,0,0,0,11.39-18.05c3.68-7.14,3.7-9.87,3.7-9.92C309.06,398.7,312.43,408.89,316.13,420Z" />
        <path d="M103.61,333.86s-9.31,9.15-19.34,13c11.68-.29,34.49-8.63,34.49-8.63-13.06,2.38-23.91,4.33-23.91,4.33S101.52,339.36,103.61,333.86Z" />
        <path d="M66.93,356.5s20.66.47,29.3-1.38c-5.89,2.44-16.55,5.66-16.55,5.66s24.27.69,42.21-13.18C108.28,357.85,98.18,361.76,90.35,364s-27.15.89-27.15.89Z" />
        <path d="M52.14,369.93s22.57,1.18,28.09.85a28.09,28.09,0,0,0,10.12-2.73s-23.45,2.86-27.15,1.21a21.85,21.85,0,0,0-5.29-1.83Z" />
        <path d="M130.91,335.28h0a27.73,27.73,0,0,0-3.43,2.75l0,0h0a60.83,60.83,0,0,0-6.07-7.29l-.11-.11-.08-.09c-2.13-1.86-3.58-2.67-3.93-3.3a4.51,4.51,0,0,1,.66-.27c1.87-.48,3.83-.72,5.48-1.7C125.88,328.25,129.48,332.65,130.91,335.28Z" />
        <path d="M334.88,376.06l-.34,3.31-12.69-16.26h0c-.71-.33-18.88-8.78-26.79-15.82-8.08-7.17-22-13.83-30.29-11.38s-17.88,9.22-25.94,6.86c-1.39-.41,8.26-1.6,16.72-8.64s16.64-7,25.84-3.83c5.75,2,18.42,5.14,27.11,7.24h0c3.87,2.07,7.83,4.26,8.77,6.26l0,.35-1-.29c-3.08-.9-12.6-3.66-20.38-5.94-4.76-1.4-8.87-2.62-10.45-3.12-4.72-1.5-7.63-2.57-7.63-2.57s-3.94-3.32-10.93-.83c12,2.39,45,11,49.9,18.1l4.86,7.09v0l.24,1.36.2,1.12,4.32,5.15,0,0,.18.26c.8,1.18,4,5.9,4.11,5.9s1.55,2,2.72,3.59C334.2,375.11,334.88,376.06,334.88,376.06Z" />
        <path d="M200.67,344.72s4.62,0,17,.66,15.73,1.1,15.73,1.1-2.9,1.31-11.86,1.09S200.67,344.72,200.67,344.72Z" />
      </g>
    </g>
  </g>
</svg>