<svg xmlns="http://www.w3.org/2000/svg" viewBox="0 0 432 432">
  <defs>
    <style>.BUNTAI_MEERKAT_OUTFIT_MEERKAT_OUTFIT_8_cls-1{isolation:isolate;}.BUNTAI_MEERKAT_OUTFIT_MEERKAT_OUTFIT_8_cls-2{fill:#e2f687;}.BUNTAI_MEERKAT_OUTFIT_MEERKAT_OUTFIT_8_cls-3{fill:#fff;}.BUNTAI_MEERKAT_OUTFIT_MEERKAT_OUTFIT_8_cls-4{fill:#dd9778;}.BUNTAI_MEERKAT_OUTFIT_MEERKAT_OUTFIT_8_cls-5{fill:#80f1e0;}.BUNTAI_MEERKAT_OUTFIT_MEERKAT_OUTFIT_8_cls-6{fill:#251a2e;}.BUNTAI_MEERKAT_OUTFIT_MEERKAT_OUTFIT_8_cls-7,.BUNTAI_MEERKAT_OUTFIT_MEERKAT_OUTFIT_8_cls-9{fill:none;stroke:#000;stroke-linecap:round;stroke-linejoin:round;}.BUNTAI_MEERKAT_OUTFIT_MEERKAT_OUTFIT_8_cls-7{stroke-width:1.44px;}.BUNTAI_MEERKAT_OUTFIT_MEERKAT_OUTFIT_8_cls-8{opacity:0.43;mix-blend-mode:multiply;}.BUNTAI_MEERKAT_OUTFIT_MEERKAT_OUTFIT_8_cls-9{stroke-width:1.11px;}</style>
  </defs>
  <g class="BUNTAI_MEERKAT_OUTFIT_MEERKAT_OUTFIT_8_cls-1">
    <g id="outfit">
      <path class="BUNTAI_MEERKAT_OUTFIT_MEERKAT_OUTFIT_8_cls-2" d="M278.05,375.51a5.34,5.34,0,0,0-3.61-1.57,4.9,4.9,0,0,0-4.94,4.72,3.88,3.88,0,0,0,0,.59,5.67,5.67,0,0,0,5.16,5.51h.18a5,5,0,0,0,5-5.32A5.86,5.86,0,0,0,278.05,375.51ZM274.73,382h-.08a2.76,2.76,0,0,1-2.28-3.85h0a2.3,2.3,0,0,1,2.16-1.38,2.63,2.63,0,0,1,1,.24,2.82,2.82,0,0,1,1.58,2.43A2.39,2.39,0,0,1,274.73,382Z" />
      <path class="BUNTAI_MEERKAT_OUTFIT_MEERKAT_OUTFIT_8_cls-2" d="M161.58,376.86c0-.07,0-.13,0-.2a5.79,5.79,0,0,0-1.84-3.54l0,0a5.33,5.33,0,0,0-2.92-1.35l-.51,0a4.8,4.8,0,0,0-4.53,3,5.18,5.18,0,0,0-.33,1.12,5.4,5.4,0,0,0-.09,1.22,5.65,5.65,0,0,0,5.34,5.51h.19a5,5,0,0,0,4.77-5.32A2,2,0,0,0,161.58,376.86Zm-5,2.86h-.08a2.74,2.74,0,0,1-2.59-2.66,2.48,2.48,0,0,1,.08-.73,2.34,2.34,0,0,1,2.32-1.85,2.72,2.72,0,0,1,2.55,2.34,3.31,3.31,0,0,1,0,.33A2.4,2.4,0,0,1,156.63,379.72Z" />
      <path class="BUNTAI_MEERKAT_OUTFIT_MEERKAT_OUTFIT_8_cls-3" d="M157.39,390.46l-4.56-.08-.47,9.55,1.06.28c.43.11,1,.23,1.59.34a16,16,0,0,0,2.61.31h.14a16.22,16.22,0,0,0,2.42-.15c.89-.12,1.7-.29,2.24-.41l.68-.16-1.16-9.59Z" />
      <path class="BUNTAI_MEERKAT_OUTFIT_MEERKAT_OUTFIT_8_cls-3" d="M279.23,392.78l-4.55-.08-4.55-.09-.47,9.55.7.2c.54.14,1.35.33,2.27.49a17.88,17.88,0,0,0,2.42.25h.15a16.87,16.87,0,0,0,2.59-.21c.59-.09,1.13-.19,1.57-.28l1-.24Z" />
      <path class="BUNTAI_MEERKAT_OUTFIT_MEERKAT_OUTFIT_8_cls-3" d="M248,394.77c-2.32-1.46-6-.64-8.93.47.77-2,1.2-4.31.32-6.05-.54-1.05-1.74-2.3-4.41-2.35S231.16,388,230.7,389c-1,2.3.41,5.69,1.77,8.07l-26.48-.5c1.18-2.34,2.37-5.68,1.17-8-.53-1-1.74-2.29-4.4-2.34s-3.78,1.16-4.24,2.18c-.77,1.71-.16,4,.75,6.07-3-1.22-6.75-2.18-9-.8-.91.56-2,1.76-1.88,4.21a4.91,4.91,0,0,0,2.19,4.29,5.69,5.69,0,0,0,3,.79,16.88,16.88,0,0,0,5.95-1.26c-.76,2-1.2,4.32-.31,6.06.54,1,1.74,2.29,4.41,2.34s3.78-1.15,4.23-2.18c1-2.3-.4-5.66-1.75-8.06l26.47.51c-1.19,2.34-2.37,5.66-1.18,8,.54,1,1.74,2.29,4.4,2.34s3.78-1.15,4.25-2.18c.76-1.7.15-4-.76-6.08a18,18,0,0,0,6,1.49,5.36,5.36,0,0,0,2.94-.67c.92-.57,2-1.76,1.89-4.22A4.93,4.93,0,0,0,248,394.77ZM201.37,390c.12-.29.69-.45,1.51-.43s1.39.19,1.55.49c.43.85-.27,3-1.35,5.14C201.85,393,201,390.78,201.37,390Zm-9.28,9.44c-.14-.1-.52-.34-.56-1.45s.32-1.32.46-1.41a2.45,2.45,0,0,1,1.32-.27,18.7,18.7,0,0,1,6.23,1.84C196.67,399.32,193.41,400.22,192.09,399.39Zm12.93,7c-.13.29-.69.46-1.51.44s-1.4-.2-1.55-.49c-.43-.84.27-3,1.34-5.14C204.53,403.33,205.4,405.56,205,406.38Zm32.18.62c-.13.28-.69.45-1.51.44s-1.4-.21-1.55-.5c-.44-.84.27-3,1.34-5.13C236.71,403.94,237.57,406.17,237.2,407Zm-1.94-11.24c-1.23-2.14-2.09-4.37-1.72-5.2.14-.29.7-.45,1.52-.43s1.4.2,1.55.49C237,391.47,236.34,393.67,235.26,395.76Zm11.31,4.66c-1.25.78-4.58-.24-7.55-1.57a17.43,17.43,0,0,1,6.11-1.6,2.59,2.59,0,0,1,1.33.32c.16.09.54.33.57,1.43S246.71,400.34,246.57,400.42Z" />
      <path class="BUNTAI_MEERKAT_OUTFIT_MEERKAT_OUTFIT_8_cls-3" d="M249.12,426.76c-2.32-1.47-6-.64-8.94.47.77-2,1.21-4.32.33-6.06-.54-1-1.74-2.29-4.41-2.34s-3.78,1.16-4.24,2.18c-1,2.3.41,5.68,1.76,8.07l-26.47-.51c1.17-2.33,2.37-5.67,1.17-8-.53-1-1.74-2.29-4.4-2.34s-3.78,1.15-4.24,2.18c-.77,1.71-.16,4,.75,6.07-3-1.22-6.75-2.2-9-.81-.91.56-2,1.75-1.89,4.21a5,5,0,0,0,2.2,4.3,5.89,5.89,0,0,0,3,.79,16.89,16.89,0,0,0,5.95-1.27c-.76,2-1.2,4.32-.31,6.06.54,1,1.74,2.3,4.41,2.35s3.77-1.17,4.23-2.18c1-2.3-.4-5.67-1.75-8.06l26.46.5c-1.18,2.35-2.36,5.67-1.17,8,.54,1,1.73,2.29,4.4,2.34s3.78-1.16,4.25-2.18c.76-1.71.15-4-.76-6.08a18.14,18.14,0,0,0,6,1.49,5.28,5.28,0,0,0,2.94-.68c.92-.56,2-1.75,1.89-4.21A4.92,4.92,0,0,0,249.12,426.76Zm-46.6-4.82c.13-.29.7-.45,1.52-.44s1.39.2,1.55.5c.43.83-.27,3-1.35,5.13C203,425,202.15,422.76,202.52,421.94Zm-9.27,9.43c-.14-.09-.52-.33-.56-1.44s.32-1.33.46-1.41a2.34,2.34,0,0,1,1.32-.27,18.89,18.89,0,0,1,6.23,1.83C197.83,431.31,194.57,432.2,193.25,431.37Zm12.93,7c-.14.29-.69.45-1.51.43s-1.4-.19-1.55-.48c-.44-.85.27-3.05,1.34-5.14C205.69,435.32,206.55,437.54,206.18,438.37Zm32.18.62c-.13.28-.7.44-1.52.43s-1.39-.2-1.55-.5c-.43-.84.27-3,1.35-5.13C237.87,435.93,238.73,438.16,238.36,439Zm-1.94-11.24c-1.23-2.14-2.09-4.38-1.72-5.2.14-.29.7-.45,1.52-.43s1.4.19,1.55.49C238.2,423.45,237.5,425.65,236.42,427.75Zm11.31,4.65c-1.25.79-4.58-.23-7.55-1.56a17.17,17.17,0,0,1,6.11-1.6,2.59,2.59,0,0,1,1.33.31c.15.1.53.34.57,1.44S247.87,432.32,247.73,432.4Z" />
      <path class="BUNTAI_MEERKAT_OUTFIT_MEERKAT_OUTFIT_8_cls-4" d="M162.42,400.3c-.54.12-1.35.29-2.24.41a16.22,16.22,0,0,1-2.42.15h-.14a16,16,0,0,1-2.61-.31c-.6-.11-1.16-.23-1.59-.34-1,13.5-1.81,26.47-2.8,40.05a8.19,8.19,0,0,0,.24,3.45,5.59,5.59,0,0,0,2.85,3l.12.05a14.54,14.54,0,0,0,3.57,1h0l.22,0a13.82,13.82,0,0,0,3.93.36h0a4.55,4.55,0,0,0,3.39-1.79,7.79,7.79,0,0,0,.83-4.47,297.51,297.51,0,0,0-2-30.81C163.2,406.3,163.16,403.63,162.42,400.3Z" />
      <path class="BUNTAI_MEERKAT_OUTFIT_MEERKAT_OUTFIT_8_cls-4" d="M285.06,442.82c-2-13.64-3.75-26.66-5.7-40.21-.44.09-1,.19-1.57.28a16.87,16.87,0,0,1-2.59.21h-.15a17.88,17.88,0,0,1-2.42-.25c-.92-.16-1.73-.35-2.27-.49-.51,3.3-.36,6-.58,10.74a298.24,298.24,0,0,0,.18,30.78,8.3,8.3,0,0,0,1.16,4.51,5.23,5.23,0,0,0,3.52,1.93h.05a13.85,13.85,0,0,0,3.91-.22,1.46,1.46,0,0,1,.22,0h0a13.13,13.13,0,0,0,3.5-.88l.12-.05a4.8,4.8,0,0,0,2.64-2.87A8.15,8.15,0,0,0,285.06,442.82Z" />
      <path class="BUNTAI_MEERKAT_OUTFIT_MEERKAT_OUTFIT_8_cls-3" d="M89.32,356.29c-5.75,9.16-9.43,19.64-12.76,30.14-1.73,5.45-3.39,10.95-4.9,16.5a47.19,47.19,0,0,0,8,4.72A85.47,85.47,0,0,0,114.29,416c-.07-2.19,0-4.38.12-6.55h0a143.14,143.14,0,0,1-19.46-61A66.73,66.73,0,0,0,89.32,356.29Z" />
      <path class="BUNTAI_MEERKAT_OUTFIT_MEERKAT_OUTFIT_8_cls-3" d="M333.42,391.32c-3.37-10.63-7-21.24-12.25-30.62a80.11,80.11,0,0,0-5-8A157.38,157.38,0,0,1,304.48,413c.31,2.21.51,4.44.61,6.65a53.36,53.36,0,0,0,27.21-7.21,32.11,32.11,0,0,0,6.15-4.45C336.86,402.4,335.17,396.83,333.42,391.32Z" />
      <path class="BUNTAI_MEERKAT_OUTFIT_MEERKAT_OUTFIT_8_cls-2" d="M156.36,374.48a2.34,2.34,0,0,0-2.32,1.85,42.06,42.06,0,0,0,4.87.49A2.72,2.72,0,0,0,156.36,374.48Z" />
      <path class="BUNTAI_MEERKAT_OUTFIT_MEERKAT_OUTFIT_8_cls-2" d="M294.23,331.22c-.59,3.87-3.47,9.33-4.92,14.13l-.15.52c-.24.88-.45,1.73-.61,2.54-.06.33-.12.64-.16.95-1.29,8.83-2.62,18.46-8,24.16a15.4,15.4,0,0,1-2.31,2,5.33,5.33,0,0,0-3.62-1.58,4.91,4.91,0,0,0-4.94,4.72,28.73,28.73,0,0,1-5.16.16h-.07c-5.76-.34-11.52-2-17.29-2.26a37.78,37.78,0,0,0-24.16,7.59l-1.13.86-.71.57,0,0-1.16,1-.89.8-.16-.11,0,0-.18-.13-.14-.1-.27-.19-.08-.06-.45-.31-.82-.56c-.61-.41-1.22-.82-1.84-1.2-1.51-.94-3.06-1.83-4.64-2.63l-1.08-.55-.31-.14c-.58-.29-1.15-.55-1.74-.81s-1.15-.5-1.72-.74-.86-.35-1.3-.51a7.15,7.15,0,0,0-.77-.29c-.4-.16-.8-.3-1.2-.43a6.28,6.28,0,0,0-.73-.25c-.39-.14-.78-.26-1.18-.38l-1.06-.32c-.46-.14-.93-.27-1.39-.39l-.19-.05c-.51-.14-1-.26-1.52-.38q-1.53-.36-3.06-.63L191.5,376l-.11,0-.82-.11-.26,0h-.1l-.45,0-.72-.08-1.39-.13-.4,0c-.5,0-1-.07-1.5-.08-.91,0-1.82-.07-2.73-.07l-1.45,0-1,0-.59,0-1,.06c-.62,0-1.23.08-1.85.13l-1.78.16c-1.61.15-3.22.32-4.82.49l-2.07.2-1.46.13-2,.14-1.11.06-1.11,0-1.12,0h-.09a5.67,5.67,0,0,0-4.81-5.13l-.51,0a4.87,4.87,0,0,0-4.86,4.1h0a29.11,29.11,0,0,1-4.21-1.36c-.51-.21-1-.44-1.51-.69-.33-.15-.65-.32-1-.5a23.26,23.26,0,0,1-2.36-1.48c-.39-.28-.77-.58-1.14-.88a23.65,23.65,0,0,1-2.39-2.3l-.09-.1-.67-.78-.63-.81c-.2-.27-.41-.55-.6-.83a29.54,29.54,0,0,1-1.63-2.63l-.48-.91c-.19-.37-.37-.75-.55-1.13-.39-.83-.77-1.68-1.11-2.55-.23-.55-.44-1.1-.63-1.66-.5-1.38-1-2.78-1.36-4.2-.15-.49-.29-1-.43-1.47-.49-1.73-.94-3.46-1.38-5.17-1.82-6.95-4.23-14.39-9-19.64,1.87-1.71,6.44-1,8-3,4.19,5.2,3.59,9.79,5.27,16.47,2.24,8.9,4.59,18.6,11.46,24.54A24.59,24.59,0,0,0,157,370.09a39.3,39.3,0,0,0,7.63.58c6.84-.1,13.54-1.5,20.37-1.54,11.71-.08,23.57,4.09,33.4,11.36l.29.22c.1-.11.21-.21.32-.31l.68-.61c7.3-6.49,16.25-10,25.37-9.52,5.5.28,11,1.91,16.49,2.25s11.3-.79,15.36-5.3c5.14-5.71,12.23-29.07,13.45-37.91,0-.19-.06-.37-.07-.54l.11.07c1.18.73,2.42,1.5,3.64,2.24l.07.05Z" />
      <path class="BUNTAI_MEERKAT_OUTFIT_MEERKAT_OUTFIT_8_cls-5" d="M274.65,382h.08a2.39,2.39,0,0,0,2.4-2.57,2.82,2.82,0,0,0-1.58-2.43,16.67,16.67,0,0,1-3.08,1.12l-.09,0h0a2.76,2.76,0,0,0,2.28,3.85Z" />
      <path class="BUNTAI_MEERKAT_OUTFIT_MEERKAT_OUTFIT_8_cls-5" d="M156.55,379.72h.08a2.4,2.4,0,0,0,2.32-2.57,3.31,3.31,0,0,0,0-.33,42.06,42.06,0,0,1-4.87-.49,2.48,2.48,0,0,0-.08.73A2.74,2.74,0,0,0,156.55,379.72Z" />
      <path class="BUNTAI_MEERKAT_OUTFIT_MEERKAT_OUTFIT_8_cls-5" d="M247.62,429.55a2.59,2.59,0,0,0-1.33-.31,17.17,17.17,0,0,0-6.11,1.6c3,1.33,6.3,2.35,7.55,1.56.14-.08.5-.31.46-1.41S247.77,429.65,247.62,429.55Z" />
      <path class="BUNTAI_MEERKAT_OUTFIT_MEERKAT_OUTFIT_8_cls-5" d="M236.22,422.12c-.82,0-1.38.14-1.52.43-.37.82.49,3.06,1.72,5.2,1.08-2.1,1.78-4.3,1.35-5.14C237.62,422.31,237,422.13,236.22,422.12Z" />
      <path class="BUNTAI_MEERKAT_OUTFIT_MEERKAT_OUTFIT_8_cls-5" d="M204,421.5c-.82,0-1.39.15-1.52.44-.37.82.49,3.06,1.72,5.19,1.08-2.09,1.78-4.3,1.35-5.13C205.43,421.7,204.86,421.52,204,421.5Z" />
      <path class="BUNTAI_MEERKAT_OUTFIT_MEERKAT_OUTFIT_8_cls-5" d="M193.15,428.52c-.14.08-.5.31-.46,1.41s.42,1.35.56,1.44c1.32.83,4.58-.06,7.45-1.29a18.89,18.89,0,0,0-6.23-1.83A2.34,2.34,0,0,0,193.15,428.52Z" />
      <path class="BUNTAI_MEERKAT_OUTFIT_MEERKAT_OUTFIT_8_cls-5" d="M202.88,389.52c-.82,0-1.39.14-1.51.43-.38.83.48,3.06,1.71,5.2,1.08-2.1,1.78-4.29,1.35-5.14C204.27,389.71,203.7,389.53,202.88,389.52Z" />
      <path class="BUNTAI_MEERKAT_OUTFIT_MEERKAT_OUTFIT_8_cls-5" d="M192,396.53c-.14.09-.5.32-.46,1.41s.42,1.35.56,1.45c1.32.83,4.58-.07,7.45-1.29a18.7,18.7,0,0,0-6.23-1.84A2.45,2.45,0,0,0,192,396.53Z" />
      <path class="BUNTAI_MEERKAT_OUTFIT_MEERKAT_OUTFIT_8_cls-5" d="M235.06,390.13c-.82,0-1.38.14-1.52.43-.37.83.49,3.06,1.72,5.2,1.08-2.09,1.78-4.29,1.35-5.14C236.46,390.33,235.88,390.15,235.06,390.13Z" />
      <path class="BUNTAI_MEERKAT_OUTFIT_MEERKAT_OUTFIT_8_cls-5" d="M246.46,397.57a2.59,2.59,0,0,0-1.33-.32,17.43,17.43,0,0,0-6.11,1.6c3,1.33,6.3,2.35,7.55,1.57.14-.08.5-.31.46-1.42S246.62,397.66,246.46,397.57Z" />
      <path class="BUNTAI_MEERKAT_OUTFIT_MEERKAT_OUTFIT_8_cls-5" d="M202,406.33c.15.29.73.48,1.55.49s1.38-.15,1.51-.44c.38-.82-.49-3.05-1.72-5.19C202.23,403.29,201.53,405.49,202,406.33Z" />
      <path class="BUNTAI_MEERKAT_OUTFIT_MEERKAT_OUTFIT_8_cls-5" d="M234.14,406.94c.15.29.73.48,1.55.5s1.38-.16,1.51-.44c.37-.83-.49-3.06-1.72-5.19C234.41,403.9,233.7,406.1,234.14,406.94Z" />
      <path class="BUNTAI_MEERKAT_OUTFIT_MEERKAT_OUTFIT_8_cls-5" d="M199.27,394.48c-.91-2.05-1.52-4.36-.75-6.07.46-1,1.57-2.23,4.24-2.18s3.87,1.3,4.4,2.34c1.2,2.34,0,5.68-1.17,8l26.48.5c-1.36-2.38-2.8-5.77-1.77-8.07.46-1,1.57-2.23,4.24-2.18s3.87,1.3,4.41,2.35c.88,1.74.45,4-.32,6.05,2.94-1.11,6.61-1.93,8.93-.47a4.93,4.93,0,0,1,2.2,4.29c.09,2.46-1,3.65-1.89,4.22a5.36,5.36,0,0,1-2.94.67,18,18,0,0,1-6-1.49c.91,2.06,1.52,4.38.76,6.08-.47,1-1.58,2.24-4.25,2.18s-3.86-1.3-4.4-2.34c-1.19-2.34,0-5.66,1.18-8l-26.47-.51c1.35,2.4,2.78,5.76,1.75,8.06-.45,1-1.57,2.23-4.23,2.18s-3.87-1.3-4.41-2.34c-.89-1.74-.45-4,.31-6.06a16.88,16.88,0,0,1-5.95,1.26,5.69,5.69,0,0,1-3-.79,4.91,4.91,0,0,1-2.19-4.29c-.09-2.45,1-3.65,1.88-4.21C192.52,392.3,196.24,393.26,199.27,394.48Zm-39.59,53.65c-.69-.07-1.37-.2-2.06-.33l-.22,0h0a14.54,14.54,0,0,1-3.57-1l-.12-.05a5.59,5.59,0,0,1-2.85-3,5.79,5.79,0,0,1-.31-1.69v0a14.47,14.47,0,0,1,.07-1.74c.23-3.16.46-6.28.67-9.39.72-10.26,1.38-20.3,2.13-30.66l-1.06-.28.47-9.55,9.11.17,1.16,9.59-.68.16c.74,3.33.78,6,1.35,10.79a297.51,297.51,0,0,1,2,30.81,7.79,7.79,0,0,1-.83,4.47,4.55,4.55,0,0,1-3.39,1.79h0a9.2,9.2,0,0,1-1.66,0Zm89.75-12.87a5.28,5.28,0,0,1-2.94.68,18.14,18.14,0,0,1-6-1.49c.91,2.06,1.52,4.37.76,6.08-.47,1-1.58,2.23-4.25,2.18s-3.86-1.31-4.4-2.34c-1.19-2.34,0-5.66,1.17-8l-26.46-.5c1.35,2.39,2.77,5.76,1.75,8.06-.46,1-1.57,2.23-4.23,2.18s-3.87-1.31-4.41-2.35c-.89-1.74-.45-4,.31-6.06a16.89,16.89,0,0,1-5.95,1.27,5.89,5.89,0,0,1-3-.79,5,5,0,0,1-2.2-4.3c-.09-2.46,1-3.65,1.89-4.21,2.23-1.39,6-.41,9,.81-.91-2.05-1.52-4.36-.75-6.07.46-1,1.57-2.23,4.24-2.18s3.87,1.3,4.4,2.34c1.2,2.34,0,5.68-1.17,8l26.47.51c-1.35-2.39-2.79-5.77-1.76-8.07.46-1,1.57-2.23,4.24-2.18s3.87,1.3,4.41,2.34c.88,1.74.44,4-.33,6.06,2.95-1.11,6.62-1.94,8.94-.47a4.92,4.92,0,0,1,2.2,4.29C251.41,433.51,250.35,434.7,249.43,435.26Zm29.39,14.8h0a1.46,1.46,0,0,0-.22,0,13.85,13.85,0,0,1-3.91.22h-.05a5.23,5.23,0,0,1-3.52-1.93,8.3,8.3,0,0,1-1.16-4.51,298.24,298.24,0,0,1-.18-30.78c.22-4.77.07-7.44.58-10.74l-.7-.2.47-9.55,9.1.17,1.16,9.59-1,.24c1.95,13.55,3.73,26.57,5.7,40.21a8.15,8.15,0,0,1,0,3.44,4.8,4.8,0,0,1-2.64,2.87l-.12.05A13.13,13.13,0,0,1,278.82,450.06Zm23.71-113.51c-.9-.81-4.48-3-8.3-5.33l-.16-.09a49.44,49.44,0,0,1-1.86,6c-.07.21-.14.43-.22.64-.68,1.89-1.87,4.8-2.44,6.78-.13.39-.24.79-.35,1.18,0,.06,0,.12,0,.17-.24.88-.45,1.73-.61,2.54-.06.32-.11.64-.16.95-1.29,8.83-2.62,18.46-8,24.16a15.4,15.4,0,0,1-2.31,2,5.77,5.77,0,0,1,1.73,3.93,4.94,4.94,0,0,1-5,5.32h-.17a5.67,5.67,0,0,1-5.17-5.5c0-.21,0-.4,0-.6a28.73,28.73,0,0,1-5.16.16h-.07c-5.76-.34-11.52-2-17.29-2.26a37.78,37.78,0,0,0-24.16,7.59l-1.13.86-.71.57,0,0-1.16,1-.89.8-.16-.11,0,0-.18-.13-.14-.1-.27-.19-.08-.06-.45-.31-.82-.56c-.61-.41-1.22-.82-1.84-1.2-1.51-.94-3.06-1.83-4.64-2.63l-1.08-.55-.31-.14-1.74-.81c-.57-.26-1.15-.5-1.72-.74s-.86-.35-1.3-.51a7.15,7.15,0,0,0-.77-.29c-.4-.16-.8-.3-1.2-.43a6.28,6.28,0,0,0-.73-.25c-.39-.14-.78-.26-1.18-.38l-1.06-.32c-.46-.14-.93-.27-1.39-.39l-.19-.05c-.51-.14-1-.26-1.52-.38q-1.53-.36-3.06-.63L191.5,376l-.11,0-.82-.11-.26,0h-.1l-.45,0-.72-.08-1.39-.13-.4,0c-.5,0-1-.07-1.5-.08-.91,0-1.82-.07-2.73-.07l-1.45,0-1,0-.59,0-.61,0-.4,0c-.62,0-1.23.08-1.85.13l-1.78.16c-1.61.15-3.22.32-4.82.49l-2.07.2-1.46.13-2,.14-1.11.06-1.11,0-1.12,0h-.09a2,2,0,0,1,0,.34,5,5,0,0,1-4.77,5.32h-.19a5.65,5.65,0,0,1-5.34-5.51,6,6,0,0,1,.09-1.22h0a29.11,29.11,0,0,1-4.21-1.36c-.51-.21-1-.44-1.51-.69-.33-.15-.65-.32-1-.5a23.26,23.26,0,0,1-2.36-1.48c-.39-.28-.77-.58-1.14-.88a23.65,23.65,0,0,1-2.39-2.3l-.09-.1-.67-.78-.63-.81c-.2-.27-.41-.55-.6-.83a29.54,29.54,0,0,1-1.63-2.63l-.48-.91c-.19-.37-.37-.75-.55-1.13-.39-.83-.77-1.68-1.11-2.55-.23-.55-.44-1.1-.63-1.66-.5-1.38-1-2.78-1.36-4.2-.15-.49-.29-1-.43-1.47-.49-1.73-.94-3.46-1.38-5.17-1.82-6.95-4.23-14.39-9-19.64a81.33,81.33,0,0,1-6.93,5.63c-7.63,5.54-13.42,10.27-18.39,16.19q.45,5.46,1.34,10.91a.31.31,0,0,1,0-.08c0,.11.07.43.16.93a142.5,142.5,0,0,0,7,26.12l.06.18A143.26,143.26,0,0,0,111,403.26q1.51,2.87,3.15,5.67l.3.52,0,0c0-.13,0-.25,0-.38s0-.23,0-.35c0,.14.07.27.1.41.09.34.17.68.26,1l-.41-.67q-.23,3.27-.13,6.55a67.91,67.91,0,0,0,.55,6.81c.07.54.15,1.08.23,1.63a64.12,64.12,0,0,0,2.81,11.15c.23.65.47,1.3.72,1.94a64.45,64.45,0,0,0,20,26.8,58.1,58.1,0,0,0,21.51,10.75s33.36,10.47,51.48-4.59h0a36.9,36.9,0,0,0,10.65,6h0c10.6,3.92,22.46,3.56,30.72,2.52h.06a77.56,77.56,0,0,0,10.42-2,50.14,50.14,0,0,0,17.94-7.86h0l.19-.13h0a55.1,55.1,0,0,0,21.29-29.93,61.91,61.91,0,0,0,2.18-19.48c-.06-1.53-.18-3.07-.36-4.6-.07-.68-.16-1.37-.25-2.05l.14-.32c.59-1.42,1.15-2.85,1.7-4.3.68-1.82,1.33-3.67,1.95-5.53l.55-1.72a160.73,160.73,0,0,0,7.31-48.43C311.75,346.62,309,342.36,302.53,336.55Z" />
      <path class="BUNTAI_MEERKAT_OUTFIT_MEERKAT_OUTFIT_8_cls-2" d="M267.22,354.92s-.31,6-2.87,5.94a15.81,15.81,0,0,1,3.33,6.61,13.76,13.76,0,0,1,2.86-6.49C268,360.93,267.22,354.92,267.22,354.92Z" />
      <path class="BUNTAI_MEERKAT_OUTFIT_MEERKAT_OUTFIT_8_cls-2" d="M251.16,361.23c-3.93,2.48-10.88-3.27-15.21-2.85s-7.37,6.32-7.37,6.32,6.59-5.41,10.94-2.49,8.45,4.93,12.16,2.51,8.12-3.4,10.48-2.79C262.16,361.93,255.09,358.74,251.16,361.23Z" />
      <path class="BUNTAI_MEERKAT_OUTFIT_MEERKAT_OUTFIT_8_cls-2" d="M146.89,335.94c-.86-3.9-6.82-8.14-9-11.12a19.8,19.8,0,0,1-2.58-4.79c.14.51.29,8.86,6.36,14.24s3.35,16.27,12.19,17.43C150.09,347.22,147.75,339.83,146.89,335.94Z" />
      <path class="BUNTAI_MEERKAT_OUTFIT_MEERKAT_OUTFIT_8_cls-2" d="M156,352.81s-.44,6-3.64,5.92a15,15,0,0,1,4.09,6.62,13,13,0,0,1,3.62-6.47C156.91,358.82,156,352.81,156,352.81Z" />
      <path class="BUNTAI_MEERKAT_OUTFIT_MEERKAT_OUTFIT_8_cls-2" d="M195.28,357.6c-5.43-.6-13.62,4.86-18.72,2.21s-13.64.23-13.64.23c2.89-.51,8.48.66,13.29,3.24s9.77.76,14.94-2,13.4,2.69,13.81,2.95C204.71,363.88,200.53,358.18,195.28,357.6Z" />
      <path class="BUNTAI_MEERKAT_OUTFIT_MEERKAT_OUTFIT_8_cls-6" d="M138.61,464.37l-6.05-.2-70-2.38c.14-20.05,3.85-39.73,9.09-58.86a47.19,47.19,0,0,0,8,4.72,85.81,85.81,0,0,0,28.38,8q3,.3,5.94.39h.31a67.89,67.89,0,0,0,.54,6.81c.08.54.15,1.08.24,1.63a63.24,63.24,0,0,0,2.81,11.15c.23.65.47,1.29.72,1.94A64.45,64.45,0,0,0,138.61,464.37Z" />
      <path class="BUNTAI_MEERKAT_OUTFIT_MEERKAT_OUTFIT_8_cls-6" d="M338.45,408a32.11,32.11,0,0,1-6.15,4.45,53.36,53.36,0,0,1-27.21,7.21,61.92,61.92,0,0,1-2.19,19.48,55.09,55.09,0,0,1-21.48,30.07l68.45,2.33C348.79,450,344.3,428.7,338.45,408Z" />
      <path class="BUNTAI_MEERKAT_OUTFIT_MEERKAT_OUTFIT_8_cls-6" d="M141.71,334.27c-6.07-5.38-6.22-13.73-6.36-14.24a19.8,19.8,0,0,0,2.58,4.79c2.14,3,8.1,7.22,9,11.12s3.2,11.28,7,15.76C145.06,350.54,147.93,339.79,141.71,334.27Zm14.78,31.08a15,15,0,0,0-4.09-6.62c3.2.06,3.64-5.92,3.64-5.92s.87,6,4.07,6.07A13,13,0,0,0,156.49,365.35Zm34.66-4.06c-5.17,2.75-10.13,4.57-14.94,2s-10.4-3.75-13.29-3.24c0,0,8.55-2.89,13.64-.23s13.29-2.81,18.72-2.21c5.25.58,9.43,6.28,9.68,6.64C204.55,364,196.19,358.62,191.15,361.29Zm60.53,3.43c-3.71,2.42-7.82.42-12.16-2.51s-10.94,2.49-10.94,2.49,3-5.91,7.37-6.32,11.28,5.33,15.21,2.85,11,.7,11,.7C259.8,361.32,255.38,362.3,251.68,364.72Zm16,2.75a15.81,15.81,0,0,0-3.33-6.61c2.56.05,2.87-5.94,2.87-5.94s.75,6,3.32,6.06A13.76,13.76,0,0,0,267.68,367.47Zm22.57-38.7a48.42,48.42,0,0,1-6.66-4.59,11.17,11.17,0,0,0-2.95-2.68c-1.17-.48-1.11-1-1.92-1.83l-.62-.75c-.6-2.29-1.22.79-2.33-4.38-.86-4-1.72-9.14-2.65-13.15-.76-3.39-4.66-3.08-6.81-5.21-.2,10-10,18.26-15.27,25.36-6.21,8.36,2.46,8.23-5.26,14.16s-15.44,12.41-20.69,21.85a57,57,0,0,0-6.53,20.87,55.83,55.83,0,0,0-9.82-21.19c-7.31-9.67-17.45-16.49-27.55-22.76s-18.21-8.25-26.63-16.89c-7.12-7.34-5.19-20.86-6.25-30.9-2.5,2-6,3.68-6.69,7-.81,4,1.27,9.85.53,13.84-1,5.13-10.53,12.09-13.84,16.13h0c4.19,5.2,3.59,9.79,5.27,16.47,2.24,8.9,4.59,18.6,11.46,24.54A24.59,24.59,0,0,0,157,370.09a39.3,39.3,0,0,0,7.63.58c6.84-.1,13.54-1.5,20.37-1.54,11.71-.08,23.57,4.09,33.4,11.36l.29.22c.1-.11.21-.21.32-.31l.68-.61c7.3-6.49,16.25-10,25.37-9.52,5.5.28,11,1.91,16.49,2.25s11.3-.79,15.36-5.3c5.14-5.71,12.23-29.07,13.45-37.91a3.89,3.89,0,0,0,0-.47Z" />
      <path class="BUNTAI_MEERKAT_OUTFIT_MEERKAT_OUTFIT_8_cls-7" d="M201.37,390c.12-.29.69-.45,1.51-.43s1.39.19,1.55.49c.43.85-.27,3-1.35,5.14C201.85,393,201,390.78,201.37,390Z" />
      <path class="BUNTAI_MEERKAT_OUTFIT_MEERKAT_OUTFIT_8_cls-7" d="M192.09,399.39c-.14-.1-.52-.34-.56-1.45s.32-1.32.46-1.41a2.45,2.45,0,0,1,1.32-.27,18.7,18.7,0,0,1,6.23,1.84C196.67,399.32,193.41,400.22,192.09,399.39Z" />
      <path class="BUNTAI_MEERKAT_OUTFIT_MEERKAT_OUTFIT_8_cls-7" d="M205,406.38c-.13.29-.69.46-1.51.44s-1.4-.2-1.55-.49c-.43-.84.27-3,1.34-5.14C204.53,403.33,205.4,405.56,205,406.38Z" />
      <path class="BUNTAI_MEERKAT_OUTFIT_MEERKAT_OUTFIT_8_cls-7" d="M206.11,399.87c1.35,2.4,2.78,5.76,1.75,8.06-.45,1-1.57,2.23-4.23,2.18s-3.87-1.3-4.41-2.34c-.89-1.74-.45-4,.31-6.06a16.88,16.88,0,0,1-5.95,1.26,5.69,5.69,0,0,1-3-.79,4.91,4.91,0,0,1-2.19-4.29c-.09-2.45,1-3.65,1.88-4.21,2.23-1.38,6-.42,9,.8-.91-2.05-1.52-4.36-.75-6.07.46-1,1.57-2.23,4.24-2.18s3.87,1.3,4.4,2.34c1.2,2.34,0,5.68-1.17,8" />
      <path class="BUNTAI_MEERKAT_OUTFIT_MEERKAT_OUTFIT_8_cls-7" d="M235.26,395.76c-1.23-2.14-2.09-4.37-1.72-5.2.14-.29.7-.45,1.52-.43s1.4.2,1.55.49C237,391.47,236.34,393.67,235.26,395.76Z" />
      <path class="BUNTAI_MEERKAT_OUTFIT_MEERKAT_OUTFIT_8_cls-7" d="M239,398.85a17.34,17.34,0,0,1,6.1-1.6,2.59,2.59,0,0,1,1.33.32c.15.09.54.33.57,1.43s-.32,1.34-.46,1.42C245.32,401.2,242,400.18,239,398.85Z" />
      <path class="BUNTAI_MEERKAT_OUTFIT_MEERKAT_OUTFIT_8_cls-7" d="M235.48,401.81c1.23,2.13,2.09,4.36,1.72,5.19-.13.28-.69.45-1.51.44s-1.4-.21-1.55-.5C233.7,406.1,234.41,403.9,235.48,401.81Z" />
      <path class="BUNTAI_MEERKAT_OUTFIT_MEERKAT_OUTFIT_8_cls-7" d="M232.47,397.09c-1.36-2.38-2.8-5.77-1.77-8.07.46-1,1.57-2.23,4.24-2.18s3.87,1.3,4.41,2.35c.88,1.74.45,4-.32,6.05,2.94-1.11,6.61-1.93,8.93-.47a4.93,4.93,0,0,1,2.2,4.29c.09,2.46-1,3.65-1.89,4.22a5.36,5.36,0,0,1-2.94.67,18,18,0,0,1-6-1.49c.91,2.06,1.52,4.38.76,6.08-.47,1-1.58,2.24-4.25,2.18s-3.86-1.3-4.4-2.34c-1.19-2.34,0-5.66,1.18-8" />
      <path class="BUNTAI_MEERKAT_OUTFIT_MEERKAT_OUTFIT_8_cls-7" d="M236.94,398.82a1.5,1.5,0,0,1-1.51,1.61l-32.52-.62a1.72,1.72,0,0,1-1.63-1.67,1.51,1.51,0,0,1,1.51-1.62l32.52.62A1.73,1.73,0,0,1,236.94,398.82Z" />
      <path class="BUNTAI_MEERKAT_OUTFIT_MEERKAT_OUTFIT_8_cls-7" d="M202.52,421.94c.13-.29.7-.45,1.52-.44s1.39.2,1.55.5c.43.83-.27,3-1.35,5.13C203,425,202.15,422.76,202.52,421.94Z" />
      <path class="BUNTAI_MEERKAT_OUTFIT_MEERKAT_OUTFIT_8_cls-7" d="M193.25,431.37c-.14-.09-.52-.33-.56-1.44s.32-1.33.46-1.41a2.34,2.34,0,0,1,1.32-.27,18.89,18.89,0,0,1,6.23,1.83C197.83,431.31,194.57,432.2,193.25,431.37Z" />
      <path class="BUNTAI_MEERKAT_OUTFIT_MEERKAT_OUTFIT_8_cls-7" d="M207.27,431.86c1.35,2.39,2.77,5.76,1.75,8.06-.46,1-1.57,2.23-4.23,2.18s-3.87-1.31-4.41-2.35c-.89-1.74-.45-4,.31-6.06a16.89,16.89,0,0,1-5.95,1.27,5.89,5.89,0,0,1-3-.79,5,5,0,0,1-2.2-4.3c-.09-2.46,1-3.65,1.89-4.21,2.23-1.39,6-.41,9,.81-.91-2.05-1.52-4.36-.75-6.07.46-1,1.57-2.23,4.24-2.18s3.87,1.3,4.4,2.34c1.2,2.34,0,5.68-1.17,8" />
      <path class="BUNTAI_MEERKAT_OUTFIT_MEERKAT_OUTFIT_8_cls-7" d="M236.42,427.75c-1.23-2.14-2.09-4.38-1.72-5.2.14-.29.7-.45,1.52-.43s1.4.19,1.55.49C238.2,423.45,237.5,425.65,236.42,427.75Z" />
      <path class="BUNTAI_MEERKAT_OUTFIT_MEERKAT_OUTFIT_8_cls-7" d="M240.18,430.84a17.17,17.17,0,0,1,6.11-1.6,2.59,2.59,0,0,1,1.33.31c.15.1.53.34.57,1.44s-.32,1.33-.46,1.41C246.48,433.19,243.15,432.17,240.18,430.84Z" />
      <path class="BUNTAI_MEERKAT_OUTFIT_MEERKAT_OUTFIT_8_cls-7" d="M233.62,429.08c-1.35-2.39-2.79-5.77-1.76-8.07.46-1,1.57-2.23,4.24-2.18s3.87,1.3,4.41,2.34c.88,1.74.44,4-.33,6.06,2.95-1.11,6.62-1.94,8.94-.47a4.92,4.92,0,0,1,2.2,4.29c.09,2.46-1,3.65-1.89,4.21a5.28,5.28,0,0,1-2.94.68,18.14,18.14,0,0,1-6-1.49c.91,2.06,1.52,4.37.76,6.08-.47,1-1.58,2.23-4.25,2.18s-3.86-1.31-4.4-2.34c-1.19-2.34,0-5.66,1.17-8" />
      <path class="BUNTAI_MEERKAT_OUTFIT_MEERKAT_OUTFIT_8_cls-7" d="M238.09,430.8a1.5,1.5,0,0,1-1.5,1.62l-32.53-.62a1.72,1.72,0,0,1-1.62-1.67,1.5,1.5,0,0,1,1.5-1.62l32.53.62A1.7,1.7,0,0,1,238.09,430.8Z" />
      <path class="BUNTAI_MEERKAT_OUTFIT_MEERKAT_OUTFIT_8_cls-7" d="M218.56,378.42a55.83,55.83,0,0,0-9.82-21.19c-7.31-9.67-17.46-16.49-27.55-22.76s-18.22-8.25-26.63-16.89c-7.13-7.34-5.2-20.87-6.26-30.9" />
      <path class="BUNTAI_MEERKAT_OUTFIT_MEERKAT_OUTFIT_8_cls-7" d="M128.31,323.69c3.3-4,12.88-11,13.84-16.13.74-4-1.35-9.86-.53-13.84.69-3.36,4.18-5,6.68-7" />
      <path class="BUNTAI_MEERKAT_OUTFIT_MEERKAT_OUTFIT_8_cls-7" d="M62.57,461.79c.14-20.05,3.85-39.73,9.09-58.86,1.51-5.55,3.17-11.05,4.9-16.5,3.33-10.5,7-21,12.76-30.14A66.73,66.73,0,0,1,95,348.51c5-5.92,10.76-10.66,18.38-16.19a79.91,79.91,0,0,0,6.94-5.63c1.87-1.71,6.44-1,8-3" />
      <path class="BUNTAI_MEERKAT_OUTFIT_MEERKAT_OUTFIT_8_cls-7" d="M218.65,380.71l-.3-.22c-9.83-7.27-21.68-11.44-33.39-11.37-6.84.05-13.54,1.45-20.37,1.55a39.3,39.3,0,0,1-7.63-.58A24.58,24.58,0,0,1,145,364.7c-6.86-5.93-9.21-15.63-11.45-24.53-1.68-6.68-1.08-11.27-5.27-16.47h0" />
      <path class="BUNTAI_MEERKAT_OUTFIT_MEERKAT_OUTFIT_8_cls-7" d="M158.91,376.82a42.06,42.06,0,0,1-4.87-.49" />
      <path class="BUNTAI_MEERKAT_OUTFIT_MEERKAT_OUTFIT_8_cls-7" d="M161.58,376.86h.09c7.15-.1,14.18-1.49,21.35-1.53a60.17,60.17,0,0,1,31.91,9.37c1.08.68,2.15,1.39,3.19,2.13l.77.55" />
      <path class="BUNTAI_MEERKAT_OUTFIT_MEERKAT_OUTFIT_8_cls-7" d="M120.27,326.69c4.73,5.25,7.13,12.69,9,19.64,2.33,8.9,4.78,18.6,12,24.54a25.16,25.16,0,0,0,10.22,4.92" />
      <path class="BUNTAI_MEERKAT_OUTFIT_MEERKAT_OUTFIT_8_cls-7" d="M114.47,408.73a73,73,0,0,1,8.5-28.82" />
      <path class="BUNTAI_MEERKAT_OUTFIT_MEERKAT_OUTFIT_8_cls-7" d="M114.41,409.47l.06-.73" />
      <path class="BUNTAI_MEERKAT_OUTFIT_MEERKAT_OUTFIT_8_cls-7" d="M114.41,409.49c-.14,2.17-.19,4.36-.12,6.55a67.89,67.89,0,0,0,.54,6.81c.08.54.15,1.08.24,1.63a63.24,63.24,0,0,0,2.81,11.15c.23.65.47,1.29.72,1.94a64.45,64.45,0,0,0,20,26.8,58.05,58.05,0,0,0,21.5,10.75s33.37,10.47,51.49-4.59l.56-.49" />
      <path class="BUNTAI_MEERKAT_OUTFIT_MEERKAT_OUTFIT_8_cls-7" d="M281.42,469.22a55.09,55.09,0,0,0,21.48-30.07,61.92,61.92,0,0,0,2.19-19.48c-.1-2.21-.3-4.44-.61-6.65l-.12-.76a80,80,0,0,0-10.59-29.1" />
      <path class="BUNTAI_MEERKAT_OUTFIT_MEERKAT_OUTFIT_8_cls-7" d="M71.66,402.93a47.19,47.19,0,0,0,8,4.72A85.47,85.47,0,0,0,114.29,416" />
      <path class="BUNTAI_MEERKAT_OUTFIT_MEERKAT_OUTFIT_8_cls-7" d="M95,348.51a143.14,143.14,0,0,0,19.46,61h0" />
      <path class="BUNTAI_MEERKAT_OUTFIT_MEERKAT_OUTFIT_8_cls-7" d="M114.47,408.74h0a109.17,109.17,0,0,1-2.71-35" />
      <path class="BUNTAI_MEERKAT_OUTFIT_MEERKAT_OUTFIT_8_cls-7" d="M135.35,320c.14.51.29,8.86,6.36,14.24s3.35,16.27,12.19,17.43c-3.81-4.48-6.15-11.87-7-15.76s-6.82-8.14-9-11.12A19.8,19.8,0,0,1,135.35,320Z" />
      <path class="BUNTAI_MEERKAT_OUTFIT_MEERKAT_OUTFIT_8_cls-7" d="M135.35,320v0" />
      <path class="BUNTAI_MEERKAT_OUTFIT_MEERKAT_OUTFIT_8_cls-7" d="M205,364.25h0" />
      <path class="BUNTAI_MEERKAT_OUTFIT_MEERKAT_OUTFIT_8_cls-7" d="M205,364.24c-.41-.26-8.77-5.62-13.81-2.95s-10.13,4.57-14.94,2-10.4-3.75-13.29-3.24c0,0,8.55-2.89,13.64-.23s13.29-2.81,18.72-2.21C200.53,358.18,204.71,363.88,205,364.24Z" />
      <path class="BUNTAI_MEERKAT_OUTFIT_MEERKAT_OUTFIT_8_cls-7" d="M156,352.81s-.44,6-3.64,5.92a15,15,0,0,1,4.09,6.62,13,13,0,0,1,3.62-6.47C156.91,358.82,156,352.81,156,352.81Z" />
      <path class="BUNTAI_MEERKAT_OUTFIT_MEERKAT_OUTFIT_8_cls-7" d="M266.31,296.17c-.2,10-10,18.27-15.27,25.37-6.22,8.36,2.46,8.23-5.26,14.16s-15.44,12.41-20.69,21.84a56.86,56.86,0,0,0-6.53,20.88h0" />
      <path class="BUNTAI_MEERKAT_OUTFIT_MEERKAT_OUTFIT_8_cls-7" d="M349.87,471.55C348.79,450,344.3,428.7,338.45,408c-1.59-5.61-3.28-11.18-5-16.69-3.37-10.63-7-21.24-12.24-30.62a80,80,0,0,0-5.05-8c-4.38-6.1-7.1-10.36-13.6-16.17-.9-.81-4.48-3-8.3-5.33l-.16-.09-.07-.05c-1.22-.74-2.46-1.51-3.64-2.24l-.11-.07" />
      <path class="BUNTAI_MEERKAT_OUTFIT_MEERKAT_OUTFIT_8_cls-7" d="M218.65,380.71c.1-.11.21-.21.32-.31l.68-.61c7.3-6.49,16.25-10,25.37-9.52,5.5.28,11,1.91,16.49,2.25s11.3-.79,15.36-5.3c5.14-5.71,12.23-29.07,13.45-37.91a3.89,3.89,0,0,0,0-.47s-5.36-3.76-9.49-7.1a15,15,0,0,1-5.1-7.2c-.86-4-1.73-9.15-2.64-13.16-.78-3.39-4.68-3.07-6.82-5.21" />
      <path class="BUNTAI_MEERKAT_OUTFIT_MEERKAT_OUTFIT_8_cls-7" d="M272.38,378.11l.09,0a16.67,16.67,0,0,0,3.08-1.12" />
      <path class="BUNTAI_MEERKAT_OUTFIT_MEERKAT_OUTFIT_8_cls-7" d="M294,331.08a58,58,0,0,1-1.79,6c-.07.21-.14.43-.22.64-.67,1.94-1.86,4.87-2.44,6.78-.08.28-.17.56-.24.83l-.11.35s0,0,0,.06l0,.11c-.12.44-.24.87-.33,1.3s-.2.84-.28,1.24-.11.64-.16.95c-1.29,8.83-2.62,18.46-8,24.16a15.4,15.4,0,0,1-2.31,2" />
      <path class="BUNTAI_MEERKAT_OUTFIT_MEERKAT_OUTFIT_8_cls-7" d="M218.89,387.38l.89-.8c1-.86,2-1.68,3-2.44A37.72,37.72,0,0,1,247,376.55c5.77.28,11.52,1.92,17.29,2.26h.07a27.83,27.83,0,0,0,5.16-.15" />
      <path class="BUNTAI_MEERKAT_OUTFIT_MEERKAT_OUTFIT_8_cls-7" d="M305,419.67h.11a53.36,53.36,0,0,0,27.21-7.21,32.11,32.11,0,0,0,6.15-4.45" />
      <path class="BUNTAI_MEERKAT_OUTFIT_MEERKAT_OUTFIT_8_cls-7" d="M304.48,413a157.38,157.38,0,0,0,11.65-60.31" />
      <path class="BUNTAI_MEERKAT_OUTFIT_MEERKAT_OUTFIT_8_cls-7" d="M304.25,377.4a133.85,133.85,0,0,1,.11,34.86" />
      <path class="BUNTAI_MEERKAT_OUTFIT_MEERKAT_OUTFIT_8_cls-7" d="M262.16,361.93s-7.07-3.19-11-.7S240.28,358,236,358.38s-7.37,6.32-7.37,6.32,6.59-5.41,10.94-2.49,8.45,4.93,12.16,2.51S259.8,361.32,262.16,361.93Z" />
      <path class="BUNTAI_MEERKAT_OUTFIT_MEERKAT_OUTFIT_8_cls-7" d="M267.22,354.92s.75,6,3.32,6.06a13.76,13.76,0,0,0-2.86,6.49,15.81,15.81,0,0,0-3.33-6.61C266.91,360.91,267.22,354.92,267.22,354.92Z" />
      <path class="BUNTAI_MEERKAT_OUTFIT_MEERKAT_OUTFIT_8_cls-7" d="M163.1,400.14l-.68.16c-.54.12-1.35.29-2.24.41a16.22,16.22,0,0,1-2.42.15h-.14a16,16,0,0,1-2.61-.31c-.6-.11-1.16-.23-1.59-.34l-1.06-.28.47-9.55,9.11.17Z" />
      <path class="BUNTAI_MEERKAT_OUTFIT_MEERKAT_OUTFIT_8_cls-7" d="M157.4,447.75a14.54,14.54,0,0,1-3.57-1l-.12-.05a5.59,5.59,0,0,1-2.85-3,8.19,8.19,0,0,1-.24-3.45c1-13.58,1.82-26.55,2.8-40.05" />
      <path class="BUNTAI_MEERKAT_OUTFIT_MEERKAT_OUTFIT_8_cls-7" d="M162.42,400.3c.74,3.33.78,6,1.35,10.79a297.51,297.51,0,0,1,2,30.81,7.87,7.87,0,0,1-.83,4.47,4.55,4.55,0,0,1-3.39,1.79h0a13.82,13.82,0,0,1-3.93-.36l-.22,0" />
      <path class="BUNTAI_MEERKAT_OUTFIT_MEERKAT_OUTFIT_8_cls-7" d="M153.83,446.73c-.29-10.36.84-38.18,1.18-46.18" />
      <path class="BUNTAI_MEERKAT_OUTFIT_MEERKAT_OUTFIT_8_cls-7" d="M157.4,447.76h0c-.45-11.52,0-38.61.22-46.89" />
      <path class="BUNTAI_MEERKAT_OUTFIT_MEERKAT_OUTFIT_8_cls-7" d="M161.55,448.16c.45-11-1-39.29-1.37-47.45h0" />
      <path class="BUNTAI_MEERKAT_OUTFIT_MEERKAT_OUTFIT_8_cls-7" d="M161.61,377.2a5,5,0,0,1-4.77,5.32h-.19a5.65,5.65,0,0,1-5.34-5.51,5.4,5.4,0,0,1,.09-1.22,4.87,4.87,0,0,1,4.86-4.1l.51,0a5.66,5.66,0,0,1,4.81,5.13A2,2,0,0,1,161.61,377.2Z" />
      <path class="BUNTAI_MEERKAT_OUTFIT_MEERKAT_OUTFIT_8_cls-7" d="M158.91,376.82a3.31,3.31,0,0,1,0,.33,2.4,2.4,0,0,1-2.32,2.57h-.08a2.74,2.74,0,0,1-2.59-2.66,2.48,2.48,0,0,1,.08-.73,2.34,2.34,0,0,1,2.32-1.85A2.72,2.72,0,0,1,158.91,376.82Z" />
      <polyline class="BUNTAI_MEERKAT_OUTFIT_MEERKAT_OUTFIT_8_cls-7" points="156.46 377.1 156.63 379.72 156.84 382.52 157.39 390.46" />
      <path class="BUNTAI_MEERKAT_OUTFIT_MEERKAT_OUTFIT_8_cls-7" d="M280.39,402.37l-1,.24c-.44.09-1,.19-1.57.28a16.87,16.87,0,0,1-2.59.21h-.15a17.88,17.88,0,0,1-2.42-.25c-.92-.16-1.73-.35-2.27-.49l-.7-.2.47-9.55,9.1.17Z" />
      <path class="BUNTAI_MEERKAT_OUTFIT_MEERKAT_OUTFIT_8_cls-7" d="M278.82,450.07a1.46,1.46,0,0,0-.22,0,13.85,13.85,0,0,1-3.91.22h-.05a5.23,5.23,0,0,1-3.52-1.93,8.3,8.3,0,0,1-1.16-4.51,298.24,298.24,0,0,1-.18-30.78c.22-4.77.07-7.44.58-10.74" />
      <path class="BUNTAI_MEERKAT_OUTFIT_MEERKAT_OUTFIT_8_cls-7" d="M279.36,402.61c1.95,13.55,3.73,26.57,5.7,40.21a8.15,8.15,0,0,1,0,3.44,4.8,4.8,0,0,1-2.64,2.87l-.12.05a13.13,13.13,0,0,1-3.5.88" />
      <path class="BUNTAI_MEERKAT_OUTFIT_MEERKAT_OUTFIT_8_cls-7" d="M277.79,402.89c.92,8,4.07,35.92,4.53,46.29" />
      <path class="BUNTAI_MEERKAT_OUTFIT_MEERKAT_OUTFIT_8_cls-7" d="M275.2,403.1c.77,8.29,3.23,35.44,3.62,47h0" />
      <path class="BUNTAI_MEERKAT_OUTFIT_MEERKAT_OUTFIT_8_cls-7" d="M272.62,402.84h0c.17,8.16.82,36.48,2.06,47.47" />
      <path class="BUNTAI_MEERKAT_OUTFIT_MEERKAT_OUTFIT_8_cls-7" d="M279.79,379.45a5,5,0,0,1-5,5.32h-.18a5.67,5.67,0,0,1-5.16-5.51,3.88,3.88,0,0,1,0-.59,4.9,4.9,0,0,1,4.94-4.72,5.34,5.34,0,0,1,3.61,1.57A5.86,5.86,0,0,1,279.79,379.45Z" />
      <path class="BUNTAI_MEERKAT_OUTFIT_MEERKAT_OUTFIT_8_cls-7" d="M272.37,378.11a2.76,2.76,0,0,0,2.28,3.85h.08a2.39,2.39,0,0,0,2.4-2.57,2.82,2.82,0,0,0-1.58-2.43,2.63,2.63,0,0,0-1-.24,2.3,2.3,0,0,0-2.16,1.38Z" />
      <polyline class="BUNTAI_MEERKAT_OUTFIT_MEERKAT_OUTFIT_8_cls-7" points="274.64 379.35 274.64 381.96 274.65 384.76 274.68 392.7" />
      <g class="BUNTAI_MEERKAT_OUTFIT_MEERKAT_OUTFIT_8_cls-8">
        <path d="M184.16,422.05s17.23-8.06,27.33-7.86,26.62,1.21,30.52.58,27-9.87,27-9.87-14.19,6.22-27.39,7.42-22.35-1.45-32.32-.62-14.64,2.59-16.5,3.41S184.16,422.05,184.16,422.05Z" />
        <path d="M212.66,421.67a109.79,109.79,0,0,1,12-3.53c4.69-.91,9.67-1.67,9.67-1.67s-8.89,4.66-12.48,6.3-10.54,2.62-10.54,2.62l-1.94,1.12Z" />
        <path d="M253.05,479.06H253c-14.66,1-24.4-.53-30.73-2.52h0c-8-2.51-10.54-5.84-10.65-6h0c-18.12,15.06-51.49,4.59-51.49,4.59a58.05,58.05,0,0,1-21.5-10.75l-6.05-.2c-7.73-6.61-13-15.64-15.84-25.79a70.41,70.41,0,0,1-2.47-13.65c-.07-.86-.14-1.73-.18-2.6-.1-2-.13-4.06-.09-6.1s.19-4.39.42-6.58c0-.13,0-.25,0-.37l0-.34h0a58.27,58.27,0,0,1-3.52-5.47,103.83,103.83,0,0,1-7.47-16.69,1,1,0,0,0-.07-.18,184.19,184.19,0,0,1-7.15-27.05c4.27,16.39,13.18,25.14,15.17,26.92.26.24.4.35.4.35s3.74,3.86,7.53-1.12c.14.37.29.74.44,1.1,11,27.28,31.49,44.28,31.49,44.28s-1.21,9.29-.74,11.13v0a6.94,6.94,0,0,0,3.27,4.21,12.82,12.82,0,0,0,3.57,1.45,21.61,21.61,0,0,0,2.29.45l.21,0,.69.08c7.87.87,5.53-11.4,5.53-11.4s13.15,15.29,42.27,21.53C217.54,465.55,228.18,469.35,253.05,479.06Z" />
        <path d="M308.82,401.15s3,10.85,4.53,18c1.7,16-.76,27-.76,27s5.85-12,5.27-30.5c3.89,22.72-4.57,49.65-4.57,49.65l-.64,5.55-31-1.75a72.24,72.24,0,0,0,15.08-29.79c4.21-18-1.14-42.71-11.19-51.5,8.75,6.64,19.5,32.34,19.5,32.34l-.48-9.16s-3-13.36-6.89-20.59a65.3,65.3,0,0,1,8.76,18.28Z" />
        <path d="M159.69,373.08a124.14,124.14,0,0,1,31.34,0c16.64,2.24,29.94,12.49,29.94,12.49l-2.08,1.81S205,376.87,190,375.75s-22.95,1.05-28.77.91A10.54,10.54,0,0,0,159.69,373.08Z" />
        <path d="M152.24,373S141,369.71,135.19,359.3s-6.88-18.39-6.88-18.39,3.84,16.49,6.62,22.29,8.46,9.25,11.21,10.56a39.89,39.89,0,0,0,5.26,2Z" />
        <path d="M117.64,425.19s-8.12-5.56-19.24-22.73S87,381.94,87,381.94s4.36,14.62,15.9,21.08,13.67,6.91,13.67,6.91l1.29,5.69Z" />
        <path d="M112.11,425.38s-20.93,23-21.63,25.86,25.28-12.41,25.76-12.64,6.52-2.8,6.52-2.8l-6.49-11.69Z" />
      </g>
      <path class="BUNTAI_MEERKAT_OUTFIT_MEERKAT_OUTFIT_8_cls-2" d="M265.2,338c.59-3.4,4.68-7.08,6.14-9.66a18.86,18.86,0,0,0,1.77-4.17c-.09.44-.2,7.7-4.36,12.38s-2.3,14.13-8.36,15.14C263,347.81,264.61,341.39,265.2,338Z" />
      <path class="BUNTAI_MEERKAT_OUTFIT_MEERKAT_OUTFIT_8_cls-9" d="M273.11,324.18c-.09.44-.2,7.7-4.36,12.38s-2.3,14.13-8.36,15.14c2.61-3.89,4.22-10.31,4.81-13.69s4.68-7.08,6.14-9.66A18.86,18.86,0,0,0,273.11,324.18Z" />
    </g>
  </g>
</svg>