<svg xmlns="http://www.w3.org/2000/svg" viewBox="0 0 432 432">
  <defs>
    <style>.BUNTAI_MEERKAT_OUTFIT_MEERKAT_OUTFIT_29_cls-1{isolation:isolate;}.BUNTAI_MEERKAT_OUTFIT_MEERKAT_OUTFIT_29_cls-2{fill:#2b292a;}.BUNTAI_MEERKAT_OUTFIT_MEERKAT_OUTFIT_29_cls-3{fill:#bbb092;}.BUNTAI_MEERKAT_OUTFIT_MEERKAT_OUTFIT_29_cls-4{fill:#464540;}.BUNTAI_MEERKAT_OUTFIT_MEERKAT_OUTFIT_29_cls-5{fill:#41464c;}.BUNTAI_MEERKAT_OUTFIT_MEERKAT_OUTFIT_29_cls-6{fill:#9a4952;}.BUNTAI_MEERKAT_OUTFIT_MEERKAT_OUTFIT_29_cls-7{fill:#fff;}.BUNTAI_MEERKAT_OUTFIT_MEERKAT_OUTFIT_29_cls-8{fill:#cabba8;}.BUNTAI_MEERKAT_OUTFIT_MEERKAT_OUTFIT_29_cls-9{fill:none;stroke:#000;stroke-linecap:round;stroke-linejoin:round;stroke-width:2.24px;}.BUNTAI_MEERKAT_OUTFIT_MEERKAT_OUTFIT_29_cls-10{opacity:0.43;mix-blend-mode:multiply;}</style>
  </defs>
  <g class="BUNTAI_MEERKAT_OUTFIT_MEERKAT_OUTFIT_29_cls-1">
    <g id="outfit">
      <path class="BUNTAI_MEERKAT_OUTFIT_MEERKAT_OUTFIT_29_cls-2" d="M293.07,417.13c1.09,2-.27,23.09-.09,30.25s-.27,22.09-3.27,24c-2,1.24-6.14.44-8.78-.27,5-17.34,4.84-45.49,3.86-59.06C287.43,413.27,292.28,415.69,293.07,417.13Z" />
      <path class="BUNTAI_MEERKAT_OUTFIT_MEERKAT_OUTFIT_29_cls-2" d="M154,398a6.3,6.3,0,0,0-.79,3.08,6.43,6.43,0,1,0,6.43-6.42,2,2,0,0,0-.35,0c-1.46-2.75-2.82-5.65-4.08-8.57,3,.81,5.11,6.66,13.71,9.67,9.68,3.37,41.51,1,41.51,1s31.84,2.41,41.52-1c8.6-3,10.71-8.86,13.7-9.67-1.26,2.92-2.62,5.82-4.07,8.57a2.06,2.06,0,0,0-.35,0,6.42,6.42,0,1,0,6.43,6.42,6.26,6.26,0,0,0-.79-3.07c1.28-2.38,2.49-4.87,3.61-7.37a16.81,16.81,0,0,1-.26,9.6c5.87,4.89,9.75,7.55,10.11,10.2.12.87.33,6.37.28,13.94-29.91-8.88-70.18-9.23-70.18-9.23s-40.27.35-70.18,9.23c-.05-7.57.17-13.07.28-13.94.37-2.65,4.24-5.31,10.11-10.2a16.84,16.84,0,0,1-.26-9.61C151.49,393.12,152.69,395.61,154,398Z" />
      <path class="BUNTAI_MEERKAT_OUTFIT_MEERKAT_OUTFIT_29_cls-2" d="M280.58,424.37c0,7.39-.34,16.74-1.22,25.66-17.45-7.67-69-9.72-69-9.72s-51.51,2.05-69,9.72c-.88-8.92-1.18-18.27-1.23-25.66,29.91-8.88,70.18-9.23,70.18-9.23S250.67,415.49,280.58,424.37Z" />
      <path class="BUNTAI_MEERKAT_OUTFIT_MEERKAT_OUTFIT_29_cls-2" d="M136,412c-1,13.57-1.13,41.72,3.86,59.06-2.65.71-6.82,1.51-8.79.27-3-1.89-3.45-16.84-3.26-24s-1.19-28.26-.09-30.25C128.53,415.69,133.38,413.27,136,412Z" />
      <path class="BUNTAI_MEERKAT_OUTFIT_MEERKAT_OUTFIT_29_cls-3" d="M266.84,398a6.26,6.26,0,0,1,.79,3.07,6.43,6.43,0,1,1-6.43-6.42,2.06,2.06,0,0,1,.35,0c-.66,1.24-1.33,2.44-2,3.61a3.11,3.11,0,0,0,1.1,4.26,3,3,0,0,0,1.58.44,3.1,3.1,0,0,0,2.69-1.53C265.56,400.34,266.21,399.18,266.84,398Z" />
      <path class="BUNTAI_MEERKAT_OUTFIT_MEERKAT_OUTFIT_29_cls-3" d="M159.61,394.65a6.42,6.42,0,1,1-6.43,6.42A6.3,6.3,0,0,1,154,398c.63,1.19,1.29,2.35,1.95,3.46a3.11,3.11,0,0,0,5.36-3.17c-.69-1.17-1.37-2.37-2-3.61A2,2,0,0,1,159.61,394.65Z" />
      <path class="BUNTAI_MEERKAT_OUTFIT_MEERKAT_OUTFIT_29_cls-3" d="M296.71,415.68c-.92-3.44-12.29-7.76-12.29-7.76a16.92,16.92,0,0,0-.61-3.46c-1.51-3.69-9-9.59-9-9.59s1.19-6.76-1.42-11.16c-.9,2.29-1.88,4.61-2.93,6.91h0a16.81,16.81,0,0,1-.26,9.6c5.87,4.89,9.75,7.55,10.11,10.2.12.87.33,6.37.28,13.94,0,7.39-.34,16.74-1.22,25.66-1,9.87-2.68,19.24-5.56,24.86v.81h5.57c.1-.27.2-.54.31-.82,3.16,1,9.27,2.61,11.57,1.83a5,5,0,0,0,2.31-1.82c1.72-2.25,2.7-6.07,3-9.41C296.88,460.85,297.61,419.12,296.71,415.68ZM293,447.38c.18,7.14-.27,22.09-3.27,24-2,1.24-6.14.44-8.78-.27,5-17.34,4.84-45.49,3.86-59.06,2.64,1.24,7.49,3.66,8.28,5.1C294.16,419.12,292.8,440.22,293,447.38Z" />
      <path class="BUNTAI_MEERKAT_OUTFIT_MEERKAT_OUTFIT_29_cls-3" d="M261.48,382.43c-3.52,3.68-8.17,8.35-13.44,9.35a136.49,136.49,0,0,1-13.67.8c-2.51.07-5.15.13-7.73.17-8.51.17-16.24.21-16.24.21s-8.92,0-18.16-.25c-8.36-.17-17-.46-19.48-.93-5.26-1-9.92-5.67-13.43-9.35-2.54-2.66-4.28-3.9-6.83-2.91.83,2.17,1.73,4.38,2.67,6.58h0c3,.81,5.11,6.66,13.71,9.67,9.68,3.37,41.51,1,41.51,1s31.84,2.41,41.52-1c8.6-3,10.71-8.86,13.7-9.67h0c.95-2.2,1.84-4.41,2.67-6.58C265.76,378.53,264,379.77,261.48,382.43Z" />
      <path class="BUNTAI_MEERKAT_OUTFIT_MEERKAT_OUTFIT_29_cls-3" d="M150.61,400.23a16.84,16.84,0,0,1-.26-9.61c-1-2.3-2-4.63-2.92-6.92-2.61,4.4-1.42,11.17-1.42,11.17s-7.5,5.9-9,9.59a18,18,0,0,0-.6,3.46s-11.38,4.32-12.29,7.76c0,.07,0,.17-.06.28-.81,5-.11,45,.25,49.52.26,3.34,1.23,7.16,3,9.41a5,5,0,0,0,2.3,1.82c2.31.78,8.42-.87,11.58-1.83.1.28.21.55.31.82H147v-.81c-2.88-5.62-4.57-15-5.56-24.86-.88-8.92-1.18-18.27-1.23-25.66-.05-7.57.17-13.07.28-13.94C140.87,407.78,144.74,405.12,150.61,400.23Zm-19.52,71.13c-3-1.89-3.45-16.84-3.26-24s-1.18-28.26-.09-30.25c.79-1.44,5.64-3.86,8.28-5.1-1,13.57-1.13,41.72,3.86,59.06C137.23,471.8,133.06,472.6,131.09,471.36Z" />
      <path class="BUNTAI_MEERKAT_OUTFIT_MEERKAT_OUTFIT_29_cls-4" d="M279.61,365.57c-.14.45-.27.92-.42,1.39-1.38,4.56-3.35,10.53-5.81,16.75-.9,2.29-1.88,4.61-2.93,6.91h0c-1.12,2.5-2.33,5-3.61,7.37-.63,1.18-1.28,2.34-1.95,3.45A3.1,3.1,0,0,1,262.2,403a3,3,0,0,1-1.58-.44,3.11,3.11,0,0,1-1.1-4.26c.7-1.17,1.37-2.37,2-3.61,1.45-2.75,2.81-5.65,4.07-8.57h0c.95-2.2,1.84-4.41,2.67-6.58,2.34-6.12,4.18-11.89,5.41-16.06,1.16-3.89,1.79-6.38,1.81-6.46a3.12,3.12,0,0,1,6.06,1.49C281.5,358.82,280.81,361.51,279.61,365.57Z" />
      <path class="BUNTAI_MEERKAT_OUTFIT_MEERKAT_OUTFIT_29_cls-4" d="M161.28,398.28a3.11,3.11,0,1,1-5.36,3.17c-.66-1.11-1.32-2.27-1.95-3.46-1.28-2.38-2.48-4.87-3.62-7.37-1-2.3-2-4.63-2.92-6.92-2.46-6.22-4.42-12.18-5.8-16.74-.16-.47-.29-.94-.42-1.39h0c-1.2-4.06-1.88-6.74-2-7.07a3.11,3.11,0,1,1,6-1.5c0,.08.66,2.57,1.81,6.46,1.24,4.17,3.08,9.94,5.41,16.06.83,2.17,1.73,4.38,2.67,6.58h0c1.26,2.92,2.62,5.82,4.08,8.57C159.91,395.91,160.59,397.11,161.28,398.28Z" />
      <path class="BUNTAI_MEERKAT_OUTFIT_MEERKAT_OUTFIT_29_cls-5" d="M296.52,465.48c.36-4.63,1.09-46.36.19-49.8a8.94,8.94,0,0,0,1-1.26h0c.12.81,5.06,37.5,7.16,41.33s1.54,19.13,1.54,19.13H293.56C295.28,472.64,296.26,468.82,296.52,465.48Z" />
      <path class="BUNTAI_MEERKAT_OUTFIT_MEERKAT_OUTFIT_29_cls-5" d="M127.25,474.89h-14c.29-3.24,1.42-15.28,2-18.41.63-3.43,8.08-37.12,8.83-40.52-.81,5-.11,45,.25,49.52C124.55,468.82,125.52,472.64,127.25,474.89Z" />
      <path class="BUNTAI_MEERKAT_OUTFIT_MEERKAT_OUTFIT_29_cls-5" d="M304.87,455.76c-2.1-3.83-7-40.52-7.16-41.33h0c8.09-6,16.24-31.51,20.78-50s8.63-22.82,8.63-22.82c-.18.81.36,11.95,4.27,20.45s9.35,26.44,10.16,36.4c0,0,8.27.63,8.54,3.9s-1.63,6-.37,8.87,5,9.78,4.64,14.67,2.44,18.19,6.8,24.53,3.45,10.32,3.45,10.32l-1.09,6.94,2.3,7.18H306.41S307,459.62,304.87,455.76Z" />
      <path class="BUNTAI_MEERKAT_OUTFIT_MEERKAT_OUTFIT_29_cls-5" d="M279.18,303.83l5.36,3.21s-.63,9.42-2.72,21.91-7.45,19.47-9.54,26.53a8.21,8.21,0,0,0,1.43,8c-1.23,4.17-3.07,9.94-5.41,16.06-2.54-1-4.29.25-6.82,2.91-3.52,3.68-8.17,8.35-13.44,9.35a136.49,136.49,0,0,1-13.67.8S269.77,333.69,279.18,303.83Z" />
      <path class="BUNTAI_MEERKAT_OUTFIT_MEERKAT_OUTFIT_29_cls-5" d="M297.71,414.42a8.94,8.94,0,0,1-1,1.26c-.92-3.44-12.29-7.76-12.29-7.76a16.92,16.92,0,0,0-.61-3.46c-1.51-3.69-9-9.59-9-9.59s1.19-6.76-1.42-11.16c2.46-6.22,4.43-12.19,5.81-16.75a6.72,6.72,0,0,0,5.72-.35c4.47-2.53,8.4-14.85,11.48-27,2.29-9,2.47-16.71,1.59-21.44,0,0,8.8,8.14,11,8.77s4,1.81,3.81,5.07c8.26,5.7,14.52,8.78,14.34,9.6,0,0-4.09,4.34-8.63,22.82S305.8,408.45,297.71,414.42Z" />
      <path class="BUNTAI_MEERKAT_OUTFIT_MEERKAT_OUTFIT_29_cls-5" d="M124,416c-.75,3.4-8.2,37.09-8.83,40.52-.57,3.13-1.7,15.17-2,18.41H55l2.3-7.18-1.09-6.94s-.91-4,3.44-10.32,7.18-19.64,6.82-24.53,3.36-11.77,4.62-14.67-.63-5.62-.35-8.87,8.53-3.9,8.53-3.9c.82-10,6.26-27.88,10.17-36.4s4.45-19.64,4.26-20.45c0,0,4.08,4.34,8.62,22.82s12.7,44,20.78,50a9,9,0,0,0,1,1.26C124.08,415.75,124.06,415.85,124,416Z" />
      <path class="BUNTAI_MEERKAT_OUTFIT_MEERKAT_OUTFIT_29_cls-5" d="M157.15,352.19c10,15.73,34.47,39.9,35.09,40.52-8.36-.17-17-.46-19.48-.93-5.26-1-9.92-5.67-13.43-9.35-2.54-2.66-4.28-3.9-6.83-2.91-2.33-6.12-4.17-11.89-5.41-16.06a8.21,8.21,0,0,0,1.43-8c-2.08-7.06-7.44-14-9.53-26.53-1-6.2-1.72-11.66-2.13-15.56C137.16,314.08,147.13,336.5,157.15,352.19Z" />
      <path class="BUNTAI_MEERKAT_OUTFIT_MEERKAT_OUTFIT_29_cls-5" d="M123.09,414.42c-8.08-6-16.24-31.51-20.78-50s-8.62-22.82-8.62-22.82c-.18-.82,6.09-3.9,14.35-9.6-.19-3.26,1.63-4.44,3.81-5.07s11-8.77,11-8.77c-.87,4.73-.69,12.48,1.59,21.44,3.09,12.13,7,24.45,11.48,27a6.76,6.76,0,0,0,5.74.35c1.38,4.56,3.34,10.52,5.8,16.74-2.61,4.4-1.42,11.17-1.42,11.17s-7.5,5.9-9,9.59a18,18,0,0,0-.6,3.46s-11.38,4.32-12.29,7.76A9,9,0,0,1,123.09,414.42Z" />
      <path class="BUNTAI_MEERKAT_OUTFIT_MEERKAT_OUTFIT_29_cls-6" d="M296.72,314.4a11.18,11.18,0,0,1,1.26,3.79c.88,4.73.7,12.48-1.59,21.44-3.08,12.13-7,24.45-11.48,27a6.72,6.72,0,0,1-5.72.35c.15-.47.28-.94.42-1.39a6.25,6.25,0,0,0,1.56-.49c5.1-2.35,13.89-34.05,15.35-42.46a22.19,22.19,0,0,0,.19-8.22Z" />
      <path class="BUNTAI_MEERKAT_OUTFIT_MEERKAT_OUTFIT_29_cls-6" d="M296.71,314.4a22.19,22.19,0,0,1-.19,8.22c-1.46,8.41-10.25,40.11-15.35,42.46a6.25,6.25,0,0,1-1.56.49c1.2-4.06,1.89-6.75,2-7.08a3.12,3.12,0,0,0-6.06-1.49c0,.08-.65,2.57-1.81,6.46a8.21,8.21,0,0,1-1.43-8c2.09-7.06,7.45-14,9.54-26.53S284.54,307,284.54,307s2.72-2.26,7.17.54A10.12,10.12,0,0,1,296.71,314.4Z" />
      <path class="BUNTAI_MEERKAT_OUTFIT_MEERKAT_OUTFIT_29_cls-6" d="M139.63,365.08c-5.09-2.35-13.89-34.05-15.34-42.46a21.76,21.76,0,0,1-.19-8.22,10.09,10.09,0,0,1,5-6.82c4.44-2.8,7.17-.54,7.17-.54s.15,2.38.58,6.32c0,0,0,0,0,0,.41,3.9,1.1,9.36,2.13,15.56,2.09,12.49,7.45,19.47,9.53,26.53a8.21,8.21,0,0,1-1.43,8c-1.15-3.89-1.79-6.38-1.81-6.46a3.11,3.11,0,1,0-6,1.5c.08.33.76,3,2,7.07A6.32,6.32,0,0,1,139.63,365.08Z" />
      <path class="BUNTAI_MEERKAT_OUTFIT_MEERKAT_OUTFIT_29_cls-6" d="M141.63,367a6.76,6.76,0,0,1-5.74-.35c-4.47-2.53-8.39-14.85-11.48-27-2.28-9-2.46-16.71-1.59-21.44a11.16,11.16,0,0,1,1.27-3.79h0a21.76,21.76,0,0,0,.19,8.22c1.45,8.41,10.25,40.11,15.34,42.46a6.32,6.32,0,0,0,1.57.49h0C141.34,366,141.47,366.49,141.63,367Z" />
      <path class="BUNTAI_MEERKAT_OUTFIT_MEERKAT_OUTFIT_29_cls-7" d="M215.07,372.29c-35.07-25.66-66.88-72.51-67.81-73.72.25,1,4.47,32.46,43.78,63L216.3,383.7q2.88-3.27,5.65-6.67c27.63-33.72,49.12-76,49.87-77.55C270.65,301.21,232.77,356.66,215.07,372.29Z" />
      <path class="BUNTAI_MEERKAT_OUTFIT_MEERKAT_OUTFIT_29_cls-8" d="M271.86,299.44a.12.12,0,0,0,0,0C271.07,301,249.58,343.31,222,377q-2.77,3.41-5.65,6.67L191,361.61c-39.31-30.58-43.53-62.06-43.78-63v0l-11,8.49s.15,2.38.58,6.32c0,0,0,0,0,0,.3.69,10.27,23.11,20.29,38.8s34.47,39.9,35.09,40.52c9.24.2,18.16.25,18.16.25s7.73,0,16.24-.21c2.58,0,5.22-.1,7.73-.17,0,0,35.4-58.89,44.81-88.75Z" />
      <path class="BUNTAI_MEERKAT_OUTFIT_MEERKAT_OUTFIT_29_cls-9" d="M297.71,414.43c.12.81,5.06,37.5,7.16,41.33s1.54,19.13,1.54,19.13" />
      <path class="BUNTAI_MEERKAT_OUTFIT_MEERKAT_OUTFIT_29_cls-9" d="M113.22,474.89c.29-3.24,1.42-15.28,2-18.41.63-3.43,8.08-37.12,8.83-40.52" />
      <path class="BUNTAI_MEERKAT_OUTFIT_MEERKAT_OUTFIT_29_cls-9" d="M271.82,299.48c-1.17,1.73-39,57.18-56.75,72.81" />
      <path class="BUNTAI_MEERKAT_OUTFIT_MEERKAT_OUTFIT_29_cls-9" d="M147.26,298.57c.93,1.21,32.74,48.06,67.81,73.72,2.29,1.68,4.59,3.26,6.88,4.74" />
      <path class="BUNTAI_MEERKAT_OUTFIT_MEERKAT_OUTFIT_29_cls-9" d="M234.37,392.58s35.4-58.89,44.81-88.75" />
      <path class="BUNTAI_MEERKAT_OUTFIT_MEERKAT_OUTFIT_29_cls-9" d="M284.54,307l-5.36-3.21-7.32-4.39a.12.12,0,0,0,0,0C271.07,301,249.58,343.31,222,377q-2.77,3.41-5.65,6.67" />
      <path class="BUNTAI_MEERKAT_OUTFIT_MEERKAT_OUTFIT_29_cls-9" d="M192.25,392.72h0c-.62-.62-25.06-24.79-35.09-40.52s-20-38.11-20.29-38.8" />
      <path class="BUNTAI_MEERKAT_OUTFIT_MEERKAT_OUTFIT_29_cls-9" d="M136.27,307l11-8.49v0c.25,1,4.47,32.46,43.78,63L216.3,383.7c6.48,5.66,9.52,8.34,10.34,9.05l.23.21" />
      <path class="BUNTAI_MEERKAT_OUTFIT_MEERKAT_OUTFIT_29_cls-9" d="M210.4,415.14s40.27.35,70.18,9.23h0" />
      <path class="BUNTAI_MEERKAT_OUTFIT_MEERKAT_OUTFIT_29_cls-9" d="M266.84,398h0a6.26,6.26,0,0,1,.79,3.07,6.43,6.43,0,1,1-6.43-6.42,2.06,2.06,0,0,1,.35,0" />
      <path class="BUNTAI_MEERKAT_OUTFIT_MEERKAT_OUTFIT_29_cls-9" d="M265.62,386.1c-1.26,2.92-2.62,5.82-4.07,8.57-.66,1.24-1.33,2.44-2,3.61a3.11,3.11,0,0,0,1.1,4.26,3,3,0,0,0,1.58.44,3.1,3.1,0,0,0,2.69-1.53c.67-1.11,1.32-2.27,1.95-3.45,1.28-2.38,2.49-4.87,3.61-7.37" />
      <path class="BUNTAI_MEERKAT_OUTFIT_MEERKAT_OUTFIT_29_cls-9" d="M270.45,390.62c1.05-2.3,2-4.62,2.93-6.91,2.46-6.22,4.43-12.19,5.81-16.75.15-.47.28-.94.42-1.39,1.2-4.06,1.89-6.75,2-7.08a3.12,3.12,0,0,0-6.06-1.49c0,.08-.65,2.57-1.81,6.46-1.23,4.17-3.07,9.94-5.41,16.06-.83,2.17-1.72,4.38-2.67,6.58" />
      <path class="BUNTAI_MEERKAT_OUTFIT_MEERKAT_OUTFIT_29_cls-9" d="M327.12,341.63S323,346,318.49,364.45s-12.69,44-20.78,50" />
      <path class="BUNTAI_MEERKAT_OUTFIT_MEERKAT_OUTFIT_29_cls-9" d="M297.72,414.43c.44.46,10.75,11.47,17.39,15" />
      <path class="BUNTAI_MEERKAT_OUTFIT_MEERKAT_OUTFIT_29_cls-9" d="M297.71,414.42h0c.19.43,6.31,14.55,18.23,23.7,12.1,9.3,2,8.46-6.68,1.22" />
      <path class="BUNTAI_MEERKAT_OUTFIT_MEERKAT_OUTFIT_29_cls-9" d="M345.61,404.57S330.6,417,320,418.34" />
      <path class="BUNTAI_MEERKAT_OUTFIT_MEERKAT_OUTFIT_29_cls-9" d="M298,318.19s8.8,8.14,11,8.77,4,1.81,3.81,5.07c8.26,5.7,14.52,8.78,14.34,9.6s.36,11.95,4.27,20.45,9.35,26.44,10.16,36.4c0,0,8.27.63,8.54,3.9s-1.63,6-.37,8.87,5,9.78,4.64,14.67,2.44,18.19,6.8,24.53,3.45,10.32,3.45,10.32l-1.09,6.94,2.3,7.18H293.51" />
      <path class="BUNTAI_MEERKAT_OUTFIT_MEERKAT_OUTFIT_29_cls-9" d="M279.6,365.57h0a6.25,6.25,0,0,0,1.56-.49c5.1-2.35,13.89-34.05,15.35-42.46a22.19,22.19,0,0,0,.19-8.22,10.12,10.12,0,0,0-5-6.82c-4.45-2.8-7.17-.54-7.17-.54s-.63,9.42-2.72,21.91-7.45,19.47-9.54,26.53a8.21,8.21,0,0,0,1.43,8" />
      <path class="BUNTAI_MEERKAT_OUTFIT_MEERKAT_OUTFIT_29_cls-9" d="M299.43,392.06s.51,18.55-2.72,23.62" />
      <path class="BUNTAI_MEERKAT_OUTFIT_MEERKAT_OUTFIT_29_cls-9" d="M279.18,367h0a6.72,6.72,0,0,0,5.72-.35c4.47-2.53,8.4-14.85,11.48-27,2.29-9,2.47-16.71,1.59-21.44a11.18,11.18,0,0,0-1.26-3.79" />
      <path class="BUNTAI_MEERKAT_OUTFIT_MEERKAT_OUTFIT_29_cls-9" d="M306.33,368.42s-2,36.05-8.62,46a8.94,8.94,0,0,1-1,1.26" />
      <path class="BUNTAI_MEERKAT_OUTFIT_MEERKAT_OUTFIT_29_cls-9" d="M280.93,471.09c2.64.71,6.82,1.51,8.78.27,3-1.89,3.45-16.84,3.27-24s1.18-28.26.09-30.25c-.79-1.44-5.64-3.86-8.28-5.1" />
      <path class="BUNTAI_MEERKAT_OUTFIT_MEERKAT_OUTFIT_29_cls-9" d="M279.68,474.88c3.16,1,9.27,2.61,11.57,1.83a5,5,0,0,0,2.31-1.82c1.72-2.25,2.7-6.07,3-9.41.36-4.63,1.09-46.36.19-49.8s-12.29-7.76-12.29-7.76" />
      <path class="BUNTAI_MEERKAT_OUTFIT_MEERKAT_OUTFIT_29_cls-9" d="M270.45,390.62h0a16.81,16.81,0,0,1-.26,9.6c5.87,4.89,9.75,7.55,10.11,10.2.12.87.33,6.37.28,13.94,0,7.39-.34,16.74-1.22,25.66-1,9.87-2.68,19.24-5.56,24.86" />
      <path class="BUNTAI_MEERKAT_OUTFIT_MEERKAT_OUTFIT_29_cls-9" d="M210.4,396.73s31.84,2.41,41.52-1c8.6-3,10.71-8.86,13.7-9.67h0" />
      <path class="BUNTAI_MEERKAT_OUTFIT_MEERKAT_OUTFIT_29_cls-9" d="M273.37,383.7h0c2.61,4.4,1.42,11.16,1.42,11.16s7.5,5.9,9,9.59a16.92,16.92,0,0,1,.61,3.46c.13,1.14.26,2.53.37,4.11,1,13.57,1.12,41.72-3.86,59.06-.39,1.34-.8,2.6-1.25,3.79-.11.28-.21.55-.31.82H141.44" />
      <path class="BUNTAI_MEERKAT_OUTFIT_MEERKAT_OUTFIT_29_cls-9" d="M210.4,393s7.73,0,16.24-.21c2.58,0,5.22-.1,7.73-.17a136.49,136.49,0,0,0,13.67-.8c5.27-1,9.92-5.67,13.44-9.35,2.53-2.66,4.28-3.9,6.82-2.91" />
      <path class="BUNTAI_MEERKAT_OUTFIT_MEERKAT_OUTFIT_29_cls-9" d="M210.4,415.14s-40.27.35-70.18,9.23h0" />
      <path class="BUNTAI_MEERKAT_OUTFIT_MEERKAT_OUTFIT_29_cls-9" d="M159.26,394.67a2,2,0,0,1,.35,0,6.42,6.42,0,1,1-6.43,6.42A6.3,6.3,0,0,1,154,398" />
      <path class="BUNTAI_MEERKAT_OUTFIT_MEERKAT_OUTFIT_29_cls-9" d="M155.18,386.1c1.26,2.92,2.62,5.82,4.08,8.57.65,1.24,1.33,2.44,2,3.61a3.11,3.11,0,1,1-5.36,3.17c-.66-1.11-1.32-2.27-1.95-3.46-1.28-2.38-2.48-4.87-3.62-7.37-1-2.3-2-4.63-2.92-6.92-2.46-6.22-4.42-12.18-5.8-16.74-.16-.47-.29-.94-.42-1.39" />
      <path class="BUNTAI_MEERKAT_OUTFIT_MEERKAT_OUTFIT_29_cls-9" d="M141.2,365.57c-1.2-4.06-1.88-6.74-2-7.07a3.11,3.11,0,1,1,6-1.5c0,.08.66,2.57,1.81,6.46,1.24,4.17,3.08,9.94,5.41,16.06.83,2.17,1.73,4.38,2.67,6.58" />
      <path class="BUNTAI_MEERKAT_OUTFIT_MEERKAT_OUTFIT_29_cls-9" d="M93.69,341.63s4.08,4.34,8.62,22.82,12.7,44,20.78,50" />
      <path class="BUNTAI_MEERKAT_OUTFIT_MEERKAT_OUTFIT_29_cls-9" d="M123.08,414.43c-.43.46-10.74,11.47-17.37,15" />
      <path class="BUNTAI_MEERKAT_OUTFIT_MEERKAT_OUTFIT_29_cls-9" d="M123.09,414.42h0c-.19.43-6.3,14.55-18.22,23.7-12.1,9.3-2,8.46,6.69,1.22" />
      <path class="BUNTAI_MEERKAT_OUTFIT_MEERKAT_OUTFIT_29_cls-9" d="M75.21,404.57s15,12.44,25.65,13.77" />
      <path class="BUNTAI_MEERKAT_OUTFIT_MEERKAT_OUTFIT_29_cls-9" d="M122.82,318.19s-8.8,8.14-11,8.77-4,1.81-3.81,5.07c-8.26,5.7-14.53,8.78-14.35,9.6s-.36,11.95-4.26,20.45-9.35,26.44-10.17,36.4c0,0-8.26.63-8.53,3.9s1.63,6,.35,8.87-5,9.78-4.62,14.67S64,444.11,59.64,450.45s-3.44,10.32-3.44,10.32l1.09,6.94L55,474.89h72.32" />
      <path class="BUNTAI_MEERKAT_OUTFIT_MEERKAT_OUTFIT_29_cls-9" d="M147.09,363.46a8.21,8.21,0,0,0,1.43-8c-2.08-7.06-7.44-14-9.53-26.53-1-6.2-1.72-11.66-2.13-15.56,0,0,0,0,0,0-.43-3.94-.58-6.32-.58-6.32s-2.73-2.26-7.17.54a10.09,10.09,0,0,0-5,6.82,21.76,21.76,0,0,0,.19,8.22c1.45,8.41,10.25,40.11,15.34,42.46a6.32,6.32,0,0,0,1.57.49h0" />
      <path class="BUNTAI_MEERKAT_OUTFIT_MEERKAT_OUTFIT_29_cls-9" d="M121.38,392.06s-.5,18.55,2.72,23.62" />
      <path class="BUNTAI_MEERKAT_OUTFIT_MEERKAT_OUTFIT_29_cls-9" d="M124.09,314.4a11.16,11.16,0,0,0-1.27,3.79c-.87,4.73-.69,12.48,1.59,21.44,3.09,12.13,7,24.45,11.48,27a6.76,6.76,0,0,0,5.74.35" />
      <path class="BUNTAI_MEERKAT_OUTFIT_MEERKAT_OUTFIT_29_cls-9" d="M114.48,368.42s2,36.05,8.61,46a9,9,0,0,0,1,1.26" />
      <path class="BUNTAI_MEERKAT_OUTFIT_MEERKAT_OUTFIT_29_cls-9" d="M136,412c-2.64,1.24-7.49,3.66-8.28,5.1-1.1,2,.27,23.09.09,30.25s.27,22.09,3.26,24c2,1.24,6.14.44,8.79-.27" />
      <path class="BUNTAI_MEERKAT_OUTFIT_MEERKAT_OUTFIT_29_cls-9" d="M136.39,407.92s-11.38,4.32-12.29,7.76c0,.07,0,.17-.06.28-.81,5-.11,45,.25,49.52.26,3.34,1.23,7.16,3,9.41a5,5,0,0,0,2.3,1.82c2.31.78,8.42-.87,11.58-1.83" />
      <path class="BUNTAI_MEERKAT_OUTFIT_MEERKAT_OUTFIT_29_cls-9" d="M147,474.89c-2.88-5.62-4.57-15-5.56-24.86-.88-8.92-1.18-18.27-1.23-25.66-.05-7.57.17-13.07.28-13.94.37-2.65,4.24-5.31,10.11-10.2a16.84,16.84,0,0,1-.26-9.61" />
      <path class="BUNTAI_MEERKAT_OUTFIT_MEERKAT_OUTFIT_29_cls-9" d="M155.17,386.1h0c3,.81,5.11,6.66,13.71,9.67,9.68,3.37,41.51,1,41.51,1" />
      <path class="BUNTAI_MEERKAT_OUTFIT_MEERKAT_OUTFIT_29_cls-9" d="M141.44,475.7c-.1-.27-.21-.54-.31-.82-.45-1.19-.86-2.45-1.25-3.79-5-17.34-4.84-45.49-3.86-59.06.11-1.58.24-3,.37-4.11a18,18,0,0,1,.6-3.46c1.52-3.69,9-9.59,9-9.59s-1.19-6.77,1.42-11.17" />
      <path class="BUNTAI_MEERKAT_OUTFIT_MEERKAT_OUTFIT_29_cls-9" d="M152.5,379.52c2.55-1,4.29.25,6.83,2.91,3.51,3.68,8.17,8.35,13.43,9.35,2.5.47,11.12.76,19.48.93,9.24.2,18.16.25,18.16.25" />
      <g class="BUNTAI_MEERKAT_OUTFIT_MEERKAT_OUTFIT_29_cls-10">
        <path d="M139.77,304.66c23.45,44.07,22.57,43.27,37.11,58.51,16.46,17.27,42,29.09,41.27,29.41s-26.56-.52-26.56-.52S164.33,362.82,151,341.48s-14.33-29.84-14.33-29.84l.47-4.48Z" />
        <path d="M107.37,332.48s6.69,5.95,9.35,12.1-2.24-14.48-2.24-14.48l-.79-3.26s-3.27-1.94-4,1.14A10,10,0,0,1,107.37,332.48Z" />
        <path d="M123.09,320.2s.52,17.62,4.16,27.16,5.39,18.37,10.16,19.87,4.22-.27,4.22-.27-1.43,2-5.36-8.25S123.09,320.2,123.09,320.2Z" />
        <path d="M67.36,420.12S67.28,437.84,70,450s1.57,19.25,1.57,19.25v6.42l-15.73-.79,1.27-7.26a22.6,22.6,0,0,1,.54-11.53c2-5.67,6.36-11.28,7.72-19.07S67.36,420.12,67.36,420.12Z" />
        <path d="M71.69,402.41s-1,4.94,2.55,13.27,17.55,23.18,17.55,23.18-4.12-13.09-4.72-18.74a59.65,59.65,0,0,1-.52-7.6s-12-8.79-12.31-10.87.22-2.28-.31-2.08A7.37,7.37,0,0,0,71.69,402.41Z" />
        <path d="M133.59,413.21s-2.71,3.81-2.83,5.13-1.57,17,0,28.85a194.25,194.25,0,0,0,4.71,23.42c.35,1.29-4,2.89.8,2.17l4.78-.72s-4.6-26.8-5.21-36.1S136,412,136,412Z" />
        <path d="M124.94,414.31s-2.6-1.89-4.38-15.41-5.75-43.57-7.34-36.69,4.47,41.66,4.47,41.66-5.89-26.19-9.3-33.5-2.68,3.55-2.68,3.55,7.16,31.4,7.51,31.81,4.35,7.9,4.35,7.9S102.2,398.29,99.9,396.54s12.61,18.3,13.32,18.6,1.26,6.34,1.26,6.34-21.61,28.24-24.93,37.18,23.54-15.82,27.17-22.34-6.17,19.92-6.17,19.92l-5.33,16.54s15.19-31.75,16.13-34.89,2.31-7.59,2.31-7.59-1,31.34.88,38.3,2.71,6.29,2.71,6.29a294.14,294.14,0,0,1-2.42-32.13c-.36-17.78.36-24.71.36-24.71Z" />
        <path d="M300.78,414.31s2.59-1.89,4.38-15.41,5.75-43.57,7.34-36.69S308,403.87,308,403.87s5.88-26.19,9.3-33.5,2.68,3.55,2.68,3.55-7.16,31.4-7.51,31.81-4.35,7.9-4.35,7.9,15.37-15.34,17.67-17.09-12.61,18.3-13.32,18.6-1.26,6.34-1.26,6.34,21.61,28.24,24.93,37.18S312.63,442.84,309,436.32s6.17,19.92,6.17,19.92l5.33,16.54S305.31,441,304.37,437.89s-2.32-7.59-2.32-7.59,1,31.34-.87,38.3-2.71,6.29-2.71,6.29a297.16,297.16,0,0,0,2.42-32.13c.36-17.78-.37-24.71-.37-24.71Z" />
        <path d="M212.27,393s-3.11,2.07-.56,4.62c-4.09,6.62-2.18,18.11-2.18,18.11s-5.59,11.86-1.12,24.72c-4.78,26-1.73,36.51-1.73,36.51H147.83s-6.47-14.74-5.54-27.24c14.25-1.76,51.32-6.22,62.55-7.65-11.74-.87-53.38,4.32-53.38,4.32l-10.25,2.42L141.13,428s33-9.79,65.16-12.32c-39.46,1.57-66.07,8.69-66.07,8.69l.48-14.67,9.91-9.47L149.28,393l1.15-3s-11.32-31.08-10.77-33.19a1.87,1.87,0,0,1,2.54-1.39s3.69,16.54,8.23,26.31,9.92,20.58,9.92,20.58,2.79-.54.51-4.71-5-10-5-10,12.39,9.73,20.2,10.17,11.38-4.62,15.86-4.79S212.27,393,212.27,393Z" />
      </g>
    </g>
  </g>
</svg>