<svg xmlns="http://www.w3.org/2000/svg" viewBox="0 0 432 432">
  <defs>
    <style>.BUNTAI_BEAR_BODY_BEAR_BODY_51_cls-1{isolation:isolate;}.BUNTAI_BEAR_BODY_BEAR_BODY_51_cls-2{fill:#e3a35b;}.BUNTAI_BEAR_BODY_BEAR_BODY_51_cls-3{opacity:0.43;mix-blend-mode:multiply;}.BUNTAI_BEAR_BODY_BEAR_BODY_51_cls-4{opacity:0.57;}.BUNTAI_BEAR_BODY_BEAR_BODY_51_cls-5{fill:#1a1a1a;}.BUNTAI_BEAR_BODY_BEAR_BODY_51_cls-6,.BUNTAI_BEAR_BODY_BEAR_BODY_51_cls-9{fill:none;stroke:#000;stroke-linecap:round;}.BUNTAI_BEAR_BODY_BEAR_BODY_51_cls-6{stroke-linejoin:round;stroke-width:1.93px;}.BUNTAI_BEAR_BODY_BEAR_BODY_51_cls-7{fill:#fff;}.BUNTAI_BEAR_BODY_BEAR_BODY_51_cls-8{fill:#ff7cd2;}.BUNTAI_BEAR_BODY_BEAR_BODY_51_cls-9{stroke-miterlimit:10;stroke-width:1.61px;}.BUNTAI_BEAR_BODY_BEAR_BODY_51_cls-10{opacity:0.69;}</style>
  </defs>
  <g class="BUNTAI_BEAR_BODY_BEAR_BODY_51_cls-1">
    <g id="body">
      <path class="BUNTAI_BEAR_BODY_BEAR_BODY_51_cls-2" d="M425.62,448.88c-1.32-8-2.71-15.91-4.36-23.8-.32-1.5-.64-3-1-4.48h0l4,4.29c0-.07,0-.14,0-.21-.79-2.94-4-9.32-6.25-13.48-1.15-4.44-2.41-8.85-3.83-13.21-.12-.38-.25-.76-.38-1.14l0,0a10.33,10.33,0,0,0,2.79,1l-.21-.24h0c-3.07-3.56-6-10.22-6-10.22h0c-6.19-15.7-14.74-30.51-26.5-42.54-10.42-10.66-22.8-19.9-34.07-29.64-13.54-11.71-17.61-15.42-22.58-18.3-4.08-3-7.36-11.55-9.73-20.81v0c-.17-.63-.33-1.27-.48-1.9-.31-1.28-.6-2.56-.88-3.85-.14-.64-.27-1.28-.4-1.91-.2-1-.39-1.94-.57-2.9s-.3-1.67-.44-2.48c-.07-.39-.14-.78-.2-1.17A117.24,117.24,0,0,1,313,248.57c-.17-5.41-1.53-16.18-2.48-23.12l0-.24c0-.25-.06-.5-.1-.74a.38.38,0,0,1,0-.1c-.05-.29-.08-.56-.12-.83s-.08-.59-.12-.87-.08-.54-.11-.79-.07-.49-.1-.72-.05-.36-.08-.53-.07-.47-.09-.67c-.08-.6-.13-.93-.13-.93l2.12-.18a1.46,1.46,0,0,1-.05-.2,9.84,9.84,0,0,1-.28-1.1c-.17-.68-.31-1.39-.42-2.12-1.61-10.68,1.68-26.26,3.28-40.21.17-5.25-.92-12.78-1.63-17l-.06-.35c0-.25-.08-.49-.12-.71-.16-.94-.29-1.65-.37-2a1.11,1.11,0,0,0,0-.13l2.95.17c0-.07,0-.13-.07-.2-1.16-3.37-2.54-6.64-3.85-9.54l0,0c3.4-2.71,6.58-7.82,9.88-12.55,3.88-5.56,5.8-17.1,5.8-17.1l-.1.14-1.65,2.28.06-.34a18,18,0,0,0-.15-5.56c-.05-.33-.12-.66-.2-1a18.25,18.25,0,0,0-4.95-8.86c-7-7-17.33-2.47-23.29,0a130.54,130.54,0,0,1-13.94,4.53s0,0,0,0l-.21,0h0c-1.53-.85-3.16-1.69-4.78-2.42-4.12-1.87-11.4-3.67-15.79-4.66-2.2-.5-3.67-.79-3.67-.79l.19-.15,1.39-1.08.87-.67-.27,0c-.29,0-.81-.08-1.49-.13L257,96.94a40.89,40.89,0,0,0-10.14.75l-.62.13h0A66.42,66.42,0,0,1,234,99.08s-9.24-.48-13.07-1.77c-3.08-1-10.23-1.24-12.91-1.28h-1l.66.94.38.55.14.19s-11.48,1.18-16.65,2.14c-3.8.7-11.38,4.27-15.08,6.16l-.17.08-.11.06a27.32,27.32,0,0,0-2.82-2.28l-.45-.33a45.63,45.63,0,0,0-6.59-3.8c-7.73-3.72-11.8-4.31-13.24-4.39a4.41,4.41,0,0,0-.53,0h-.07l.26.46.52.89.12.22S145.27,95.26,142,100h0a5.8,5.8,0,0,0-.36.59,17.9,17.9,0,0,0-1.59,4.34.14.14,0,0,0,0,.06c0,.17-.08.32-.11.49h0a44,44,0,0,0-.87,9.94l-2.19-1.06a44,44,0,0,0,.21,10.72c0,.32.1.64.16,1,.1.58.23,1.16.37,1.73.06.25.13.49.19.74a19.13,19.13,0,0,0,2,4.93,53.13,53.13,0,0,1,5.75,12.89c.07.25.13.49.19.73.16.62.28,1.22.37,1.78,0,.18.06.35.09.52s.07.44.1.66a11.7,11.7,0,0,1,.09,1.81c-6.83,15.7-8.05,28.86-10,36.85-.08.32-.15.62-.23.92l-.09.33,1.56-1.56.62-.62.07-.07s-.5,5.83-1.42,13c0,.27-.07.54-.1.82s-.09.74-.14,1.12c-.51,3.82-1.12,7.89-1.83,11.62-.17.93-.35,1.83-.54,2.71s-.39,1.81-.61,2.79c-.43,2-.92,4.12-1.42,6.37-.32,1.37-.64,2.77-1,4.18-.42,1.83-.85,3.67-1.27,5.48-.14.63-.29,1.26-.44,1.88-.21.93-.43,1.85-.64,2.75q-.18.78-.36,1.53c-.46,2-.9,3.81-1.29,5.45-.06.22-.11.44-.16.65-.38,1.59-.71,2.95-1,4-.2.83-.36,1.46-.47,1.88,0,.1,0,.18-.06.25l2.18-1,.24-.1.1,0c0,.16-.44,1.83-1,4.18-.43,1.72-1,3.82-1.55,5.94-1.2,4.4-2.56,8.93-3.49,10.64l-2,3.71-2.51,4.54-.1.18a6.6,6.6,0,0,1,.65.15,2.72,2.72,0,0,1,1.22.55.28.28,0,0,1,.08.15,53.26,53.26,0,0,1-3.5,4,51.09,51.09,0,0,1-12.23,9.45l-.7.36-1.23.75a57.91,57.91,0,0,0-5.65,4.11s-.05.05-.08.06c-1.52,1.24-3.26,2.71-5.39,4.53l-.21.18c-2.66,2.28-5.9,5.1-10,8.67-4.7,4.05-9.58,8-14.43,12.05-1.35,1.11-2.7,2.24-4,3.37a.69.69,0,0,1-.13.11c-3.75,3.16-7.44,6.37-11,9.7-1.53,1.44-3,2.91-4.5,4.41-1.15,1.18-2.28,2.39-3.37,3.63a111.46,111.46,0,0,0-9.09,11.77c-1.41,2.11-2.77,4.26-4.05,6.46-2.07,3.52-4,7.15-5.73,10.85h0L23,379.19c-1.54,2.24-4.5,6.45-7.25,10l0,0a47.07,47.07,0,0,1-4.05,4.73c-.19.19-.38.36-.55.51l-.27.22a29.3,29.3,0,0,0,4.41-.54h0a14.66,14.66,0,0,0,2.18-.56l.12,0c-.46,1.32-.9,2.63-1.34,4l-.08.26-.09.26q-1.11,3.44-2.1,6.9c-.06.19-.11.38-.17.57-.31,1.1-.61,2.2-.91,3.3h0l-1.36,2.13v0C9.31,414.38,5.18,421,4.11,423.34l-.15.34a18.89,18.89,0,0,1,2.13-1.43,14.51,14.51,0,0,1,2-1,10.7,10.7,0,0,1,1.23-.39,3.3,3.3,0,0,1,.49-.09l.09,0c-1.31,5.9-2.47,11.84-3.53,17.8-1.16,6.49-2.22,13-3.27,19.5l0,.2,80.74-.06h4.24c77.26,0,190.18-.11,264.14-.08h11.53c38.12,0,63.35.06,63.41.14C426.65,455.14,426.15,452,425.62,448.88ZM288.05,216.93a14.92,14.92,0,0,1-1.18,3.57c-1.6,3.46-4.19,6.76-4.85,7a88.13,88.13,0,0,1-10.87.59c-4.84.06-9.95-.12-12.2-.81a15.53,15.53,0,0,1-9.13-7.83,16.77,16.77,0,0,1-.79-1.85,10.46,10.46,0,0,1-.43-1.45,2,2,0,0,0,0-.24,3.42,3.42,0,0,1-.07-.62,14.35,14.35,0,0,1,.66-2.66c1.78-5.24,6.21-10.62,6.21-10.62,2.47-2.26,10.69-2.87,14.74-2.87s8.05.45,11.54,2.2c3,1.48,5.61,10.55,6.33,13.21.08.27.13.48.16.6h0a.93.93,0,0,1,0,.13A6.06,6.06,0,0,1,288.05,216.93Z" />
      <g class="BUNTAI_BEAR_BODY_BEAR_BODY_51_cls-3">
        <path class="BUNTAI_BEAR_BODY_BEAR_BODY_51_cls-4" d="M151.6,236.27s-1.24,18.24-1.41,22.34l1.41-2.47A107.73,107.73,0,0,0,154,269.31l.73-2.76a114,114,0,0,0,7.65,16.77c4.17,7,8,8,8,8l-8.1-19-2.14-2s-3.8-17.18-3.8-17.14-2.22.32-2.22.32l-.62-5.8-1.29-.67Z" />
        <path class="BUNTAI_BEAR_BODY_BEAR_BODY_51_cls-4" d="M148.7,106.82s9.23.79,13.76,4.81,5.09,5.82,5.09,5.82l-1.93.94-1.3,1.32v2.56l-3.59,1.83s2,1.32,1.73,1.37-6.57,5.76-7.59,7.79.64,1.61.64,1.61.2,5.38.08,5.83-2.42,4.73-2.42,4.73l-.73,1s-9.73-16.65-9.94-22.39,1-13.87,3.47-15.48l2.47-1.6Z" />
        <path class="BUNTAI_BEAR_BODY_BEAR_BODY_51_cls-4" d="M179.06,109.55s19.78-8,35.31-8.22a31,31,0,0,1-3.88-1.35s-.26-.76,13.33,1.61a73.17,73.17,0,0,0,25.24-.17l12.83-1.55-3.29-3s-7,.44-14.62,1.21-11.12,1.69-18.22-.51A34.37,34.37,0,0,0,212.94,96s-4.48,0-4.73-.1-.68,1.54-.68,1.54a138,138,0,0,0-16,2.2c-6.93,1.51-15.36,5.65-15.36,5.65l1.09,2.36Z" />
        <path class="BUNTAI_BEAR_BODY_BEAR_BODY_51_cls-4" d="M296.68,221.49s-2,4.43-3,6.68c-3.69,12.38-13,14.83-13,14.83l1.68-4.33s6-.82,7.77-6.11a36.61,36.61,0,0,0,2-8.33S294.54,224.86,296.68,221.49Z" />
        <path class="BUNTAI_BEAR_BODY_BEAR_BODY_51_cls-4" d="M291.75,215.09A5.22,5.22,0,0,1,288,217c-12.3,2.72-17.32,2.84-38.92.67-.79.37-19.5-.19-24.48-2.53-8.52,4.67-21.52,9.14-30.72,7.2a37.49,37.49,0,0,0-16.21,0s38.1,22.09,57.79,25.24,35,3.26,40.62-.31,6-7.95,6-7.95,2.7-.58,6.06-5S292,221.49,292,221.49Z" />
        <path class="BUNTAI_BEAR_BODY_BEAR_BODY_51_cls-4" d="M242.14,112.47s6.58,8.11,8.61,14.19,4.39,16.2,4.39,16.2.67-12.66.67-15.19a11.62,11.62,0,0,1,1.73-5.24l-2.74,1s-2.49-4.56-5-8.27-7.7-5.63-7.7-5.63l-3-1Z" />
        <path class="BUNTAI_BEAR_BODY_BEAR_BODY_51_cls-4" d="M178.75,108.72v.83a24.52,24.52,0,0,0-3.67,2.71,57.45,57.45,0,0,0-12-8.9l1,1.18s-8.48-2.91-13.33-2.87-8.59.77-11,4c2.46-7,3.18-8.63,7.53-9.31s5.36-.4,5.36-.4l1-1.37a77,77,0,0,1,14,5.69A41.75,41.75,0,0,1,178.75,108.72Z" />
        <path class="BUNTAI_BEAR_BODY_BEAR_BODY_51_cls-4" d="M317.45,110.28s-7.66-2.09-14.62,1.22l-7,3.3,7.44,3.81-3.37,2.76s3.39,8,4.62,9.11a12,12,0,0,0,2.81,1.84l-1.69,3.06,5.8,8.89s.22-9,1.63-13S319.83,117.93,317.45,110.28Z" />
        <path class="BUNTAI_BEAR_BODY_BEAR_BODY_51_cls-4" d="M270.11,318.32l-1.75-1.41-1.61,3.6c-1.62,3.61-12.29,18.74-12.29,18.74s-2.47,3.83-7.54,11.48c13.28-6.64,22.4-28.25,22.4-28.25l2.36-.11c6-12.38,8.46-27.48,8.46-27.48s-2.15,5.76-4.29,11.57A84.06,84.06,0,0,1,270.11,318.32Z" />
        <path class="BUNTAI_BEAR_BODY_BEAR_BODY_51_cls-4" d="M257.44,249.84c-1.71.06-24.35.77-36.13-2.31-12.26-3.21-30-6.25-30-6.25H203S171.23,231,159.25,220c-9-8.2-12.82-28.08-14.21-37.61a.48.48,0,0,1-.14,0s-1.69,18.24-3.55,26.93c-.28,1.31-.55,3.13-.83,5.31s-.53,4.57-.81,7.22c-.17,1.61-.35,3.29-.52,5-.25,2.37-.51,4.83-.78,7.28-.18,1.62-.36,3.23-.56,4.83s-.37,3-.58,4.5c-.26,1.93-.53,3.78-.82,5.52a66.89,66.89,0,0,1-1.8,8.19c-.21.69-.43,1.31-.65,1.86-.12-.92-.19-1.53-.25-1.93l-.09-.77-.23.74c-.33,1.08-1,3.26-1.89,6-1.17,3.65-2.7,8.23-4.23,12.34-.54,1.47-1.09,2.88-1.62,4.16a39.51,39.51,0,0,1-2.27,4.84v0a97.77,97.77,0,0,1-5.52,8.4c-.33.44-.66.87-1,1.28-.7.9-1.38,1.71-2,2.44,0,0-5.26,7.83-12.42,18.78-.84,1.27-1.7,2.59-2.57,3.94-1.38,2.1-2.8,4.29-4.25,6.54l-3.11,4.84c-.73,1.15-1.47,2.3-2.2,3.47-2.89,4.52-5.78,9.12-8.56,13.61-1.06,1.71-2.1,3.41-3.11,5.08l-.21.35c-1.75,2.87-3.41,5.66-5,8.3s-3,5.17-4.26,7.48l-1,1.82c-12.53,23.37-19.15,29.85-19.55,30.23L56.82,396S49,420.92,47.5,428.37,41,444.22,41,444.22l4.43-4.43-1,18.22H3.92L6.4,438.57l.18-1.4a2.07,2.07,0,0,1,0-.22l2.73-16.07,0-.21h0l-1.25.6-2,1-1.42.69h0c.15-.26,2.62-4.53,6.86-12v0c.39-.68.78-1.39,1.19-2.13l.13-.2h0c.34-1.12.66-2.15.95-3.1.06-.19.11-.38.17-.57l2.19-7.16.08-.26c.59-2,.83-2.72.92-3a1.72,1.72,0,0,1,.07-.21l-2-.11h0l-.86,0h0l-2.71-.15-.23,0-.63,0a40.36,40.36,0,0,0,3.75-3.46h0c.37-.37.75-.78,1.15-1.21l0,0a55.73,55.73,0,0,0,7.25-10c.24-.41.46-.82.69-1.25a0,0,0,0,0,0,0q1.64-3.56,3.74-7.19c.08-.13.15-.27.22-.4.69-1.19,1.42-2.38,2.18-3.58,1.33-2.1,2.77-4.21,4.3-6.33,2.8-3.85,5.91-7.71,9.3-11.53,2.49-2.82,5.14-5.62,7.91-8.39q5-5,10.47-9.72a.69.69,0,0,0,.13-.11l1.68-1.43,2.19-1.86L75,319.63c1.28-1.06,2.54-2.13,3.79-3.19l11.69-9.87.21-.18L96,301.86s0,0,.08-.06l1.19-1-.14-.06h0l-.14-.07c.27-.15.54-.28.8-.44h0l.48-.27.92-.78.06-.05,1.21-1L101,298l.77-.26.6-.21c.45-.3.89-.59,1.33-.9s1.11-.77,1.65-1.16l0,0a97.94,97.94,0,0,0,9.36-7.73c2-1.82,3.32-3.25,3.93-3.88l0,0,.32-.35,0,0-1.2-.81-.69-.47s.91-1.64,2.16-4.21a97.3,97.3,0,0,0,5.81-14.65c0-.05,0-.11,0-.16.69-2.46,1.22-4.35,1.62-5.79.64-2.31,1-3.49,1.1-4.07,0-.09,0-.17.07-.24.06-.22.07-.28.07-.28l-1.67,1-.06,0h0l.35-1.72.8-4,.11-.57,1.1-5.48.31-1.53.2-1,.35-1.75.37-1.81.77-3.85s.18-.58.48-1.61c.18-.63.41-1.42.67-2.36a.09.09,0,0,1,0-.05c.16-.58.33-1.2.51-1.87.48-1.84,1-4,1.55-6.35.4-1.76.79-3.62,1.14-5.52.24-1.26.46-2.54.65-3.82.39-2.6.75-5.26,1.06-7.8.05-.38.1-.75.14-1.12s.07-.55.1-.82c.49-4.1.85-7.7,1.07-10,0-.24.05-.47.07-.68s0-.49.07-.71l0-.34c0-.31,0-.58.07-.8l-.58.15-.32.08-.92.23-.09,0h0a114,114,0,0,1,3.8-20,139.19,139.19,0,0,1,6-17.64l-.71-4.63s.38,1.42.86,3.41a.83.83,0,0,0,0,.15,92,92,0,0,1,1.8,9.16c1.52,8,.82,6.42.82,6.42s-.18,1.25-.34,2.1a124.52,124.52,0,0,0,2.61,18.68l.4.54s5.36,16.68,18,28.85c.87.86,1.76,1.67,2.64,2.42a44.19,44.19,0,0,0,5.74,4c3.21,2,6.92,3.81,11.11,5.84l.09,0c2.5,1.21,5.18,2.47,8,3.83,9,4.31,19.43,8.56,28.73,11.87,2.73,1,5.36,1.87,7.82,2.65a69.33,69.33,0,0,0,9.89,2.27h.11a99.13,99.13,0,0,0,12.93,1.12Z" />
      </g>
      <path class="BUNTAI_BEAR_BODY_BEAR_BODY_51_cls-5" d="M288.12,215.12a11.48,11.48,0,0,1-1.29,5.19c-1.6,3.46-4.19,6.76-4.85,7-1,.39-18.34,1.24-23.07-.22a15.53,15.53,0,0,1-9.13-7.83,11.47,11.47,0,0,1-1.34-4.16,14.35,14.35,0,0,1,.66-2.66c1.78-5.24,6.21-10.62,6.21-10.62,2.47-2.26,10.69-2.87,14.74-2.87s8.05.45,11.54,2.2c3,1.48,5.61,10.55,6.33,13.21C288.05,214.85,288.12,215.12,288.12,215.12Z" />
      <path class="BUNTAI_BEAR_BODY_BEAR_BODY_51_cls-6" d="M282.33,106.76c-1.53-.85-3.16-1.69-4.78-2.42-6.17-2.8-19.46-5.45-19.46-5.45l2.45-1.9s-7.76-.88-13.76.51A65.76,65.76,0,0,1,234,98.89s-9.24-.48-13.07-1.77S207,95.83,207,95.83l1.18,1.68s-11.48,1.18-16.65,2.14c-3.9.72-11.77,4.45-15.36,6.3" />
      <path class="BUNTAI_BEAR_BODY_BEAR_BODY_51_cls-6" d="M290,111.51s-3.42-2.38-7.7-4.75" />
      <path class="BUNTAI_BEAR_BODY_BEAR_BODY_51_cls-6" d="M311.06,145.2c3.41-2.7,6.61-7.83,9.92-12.58,3.88-5.56,5.8-17.1,5.8-17.1L325,117.94a18.42,18.42,0,0,0-5.24-15.76c-7-7-17.33-2.47-23.29,0a128.91,128.91,0,0,1-14.16,4.58h0" />
      <path class="BUNTAI_BEAR_BODY_BEAR_BODY_51_cls-6" d="M321,112.26a7.39,7.39,0,0,0-4-2.37h0a14.25,14.25,0,0,0-7.17.17A89.3,89.3,0,0,0,295.54,115l8.73,4.12-4.06,2s3.15,7.82,5.18,9.57,2.42,2.14,2.42,2.14l-2.36,1.51s2.7,4.6,5.61,10.95c1.34,3,2.74,6.3,3.92,9.74l-3-.17s2.45,12.58,2.2,20.26c-1.78,15.53-5.66,33.08-2.53,43.63l-2.12.18S312.69,240,313,248.38s5.32,41.86,14.27,48.37" />
      <path class="BUNTAI_BEAR_BODY_BEAR_BODY_51_cls-6" d="M128.16,252.85s0,.11-.06.25c-.15.58-.52,2.13-1,4.14-.44,1.74-1,3.83-1.56,5.94-1.18,4.33-2.51,8.75-3.43,10.43-.7,1.29-1.48,2.7-2.19,4-1.33,2.43-2.45,4.44-2.45,4.44l.14,0c.17,0,.49.11.8.21.48.15,1,.36,1,.62l0,.05-.34.42c-.09.13-.19.25-.29.37l0,0c-1.05,1.28-2.11,2.45-3.16,3.53h0a52.63,52.63,0,0,1-10.12,8.07l0,0a26.62,26.62,0,0,1-2.39,1.32" />
      <path class="BUNTAI_BEAR_BODY_BEAR_BODY_51_cls-6" d="M179,109.15s-.06-.11-.2-.31-.27-.38-.5-.66a.23.23,0,0,0-.07-.08,16.19,16.19,0,0,0-1.52-1.67l-.37-.35-.15-.14a38,38,0,0,0-8.42-5.69l0,0c-.45-.23-.92-.47-1.41-.7-7.43-3.57-11.48-4.26-13.06-4.38a4.53,4.53,0,0,0-.78,0l.11.2.24.4.55,1-.08,0c-.8-.14-7.51-1.25-10.82,2.48a6.75,6.75,0,0,0-.86,1.21,18.93,18.93,0,0,0-1.79,5.22,44.49,44.49,0,0,0-.8,9.62l-2.19-1.06a43.4,43.4,0,0,0,.41,11.88c.1.58.23,1.16.37,1.73a20.4,20.4,0,0,0,2.19,5.47,51.3,51.3,0,0,1,6,13.82c.16.62.28,1.22.37,1.78.07.35.11.7.15,1a11,11,0,0,1,.09,1.76c-6.9,15.85-8.07,29.12-10,37.08h0c-.08.35-.17.69-.26,1l.13-.13,1.15-1.15,1-1,0,.27c0,.12,0,.28,0,.47s0,.49-.07.8l0,.34c0,.22-.05.45-.07.71s-.05.44-.07.68c-.51,5.1-1.63,15.24-3.22,23.55-.16.86-.33,1.69-.5,2.5s-.42,1.93-.65,3c-.56,2.52-1.19,5.34-1.85,8.25a.09.09,0,0,0,0,.05l-.54,2.3c-.42,1.83-.84,3.67-1.27,5.47l-.42,1.85c-.14.59-.28,1.18-.41,1.76l-.24,1c-.6,2.55-1.16,4.92-1.65,7,0,.24-.11.46-.16.69-.39,1.6-.72,3-1,4s-.39,1.55-.48,1.91l.1-.05.53-.25.06,0,1.6-.73.23-.11h0" />
      <path class="BUNTAI_BEAR_BODY_BEAR_BODY_51_cls-6" d="M148.44,107a21.06,21.06,0,0,0-3.77,13.42c.74,9.4,5.18,19.48,7.94,26.05,0,0,2.93-5.16,3.15-7.42a9.24,9.24,0,0,1,1.69-4.17l-3.44-.34s5.64-8.66,9-10.24L159,124l6.63-2.42-2.36-2.47,4.84-1.41a35.49,35.49,0,0,0-7.14-6.93C157.84,108.49,152.69,106.19,148.44,107Z" />
      <path class="BUNTAI_BEAR_BODY_BEAR_BODY_51_cls-6" d="M144.39,109.16a7.29,7.29,0,0,1,4.05-2.17" />
      <path class="BUNTAI_BEAR_BODY_BEAR_BODY_51_cls-6" d="M317,109.89a23.84,23.84,0,0,1-.36,10.75c-1.57,5.51-4.95,14.35-4.95,14.35" />
      <path class="BUNTAI_BEAR_BODY_BEAR_BODY_51_cls-6" d="M277.33,160.62a54.65,54.65,0,0,0,6.58,22.53c.43.8,3.55,3.9,4,4.75.34.68-2-.92-1.66-.2a54.51,54.51,0,0,1,4.19,13.92s2.2,16.13,1.39,24.49a15.12,15.12,0,0,1-.54,3c-2,6.5-6.59,9.37-9.12,9.37-1.66,0-6.37-1.44-12.17-1.87a36,36,0,0,0-9.78.52c-9.79,2-11.34,2.87-19.72,1.35S225.9,230,225,220.35" />
      <path class="BUNTAI_BEAR_BODY_BEAR_BODY_51_cls-6" d="M307,196.47s-.26,11-5.83,19.16-9.33,10.48-9.33,10.48" />
      <path class="BUNTAI_BEAR_BODY_BEAR_BODY_51_cls-6" d="M282.15,238.5s-.09,7.85-9.71,10-26.84,2.11-39.5-2.11c0,0-16.46-5.91-25.24-9.79s-13.84-6.58-24.65-11.14c0,0-22.79-11-22.62-28.95" />
      <path class="BUNTAI_BEAR_BODY_BEAR_BODY_51_cls-6" d="M151.6,234.37s.56,12.15.67,13.84l.9-1.24a74.67,74.67,0,0,0,1.92,7.88l1.12-2.48s3.15,16.77,4.95,21.27l.57-3s5,16,9.22,20.7" />
      <path class="BUNTAI_BEAR_BODY_BEAR_BODY_51_cls-6" d="M299.39,232.56s.58,11.26,0,12.84l-1-1.81s-1.92,13.17-2.48,15.76L294.75,257s-4.05,13.62-6.19,16.65" />
      <path class="BUNTAI_BEAR_BODY_BEAR_BODY_51_cls-6" d="M148.61,308.81s5.58,11.15,8.78,15.54" />
      <path class="BUNTAI_BEAR_BODY_BEAR_BODY_51_cls-6" d="M249.78,219.28a15.53,15.53,0,0,0,9.13,7.83c4.73,1.46,22.06.61,23.07.22.66-.26,3.25-3.56,4.85-7a11.48,11.48,0,0,0,1.29-5.19s-.07-.27-.2-.74c-.72-2.66-3.37-11.73-6.33-13.21-3.49-1.75-7.49-2.2-11.54-2.2s-12.27.61-14.74,2.87c0,0-4.43,5.38-6.21,10.62a14.35,14.35,0,0,0-.66,2.66A11.47,11.47,0,0,0,249.78,219.28Z" />
      <path class="BUNTAI_BEAR_BODY_BEAR_BODY_51_cls-6" d="M271.12,227.93s.54,2.76-1.14,8.7h0" />
      <path class="BUNTAI_BEAR_BODY_BEAR_BODY_51_cls-6" d="M280.72,293.11s-7.37,23-10.74,26.34l-.66-3.55s-6.92,16-16.55,24.15" />
      <path class="BUNTAI_BEAR_BODY_BEAR_BODY_51_cls-6" d="M190.82,159.24s6,8.95,10.15,9.79l-3.06,1.35s6.08,2.37,9.79,3.55l-2.87.67S215,178,219,178" />
      <path class="BUNTAI_BEAR_BODY_BEAR_BODY_51_cls-6" d="M302.58,159.24s-1.79,8.95-3.05,9.79l.91,1.35s-1.82,2.37-2.94,3.55l.86.67s-3,3.38-4.26,3.38" />
      <path class="BUNTAI_BEAR_BODY_BEAR_BODY_51_cls-6" d="M12.83,408.58c1-3.61,2-7.2,3.18-10.77.49-1.49,1-3,1.51-4.47" />
      <path class="BUNTAI_BEAR_BODY_BEAR_BODY_51_cls-6" d="M24.07,377.4a119.81,119.81,0,0,1,22.24-32.71c10.42-10.66,22.8-19.9,34.07-29.64C93.92,303.34,98,299.63,103,296.75" />
      <path class="BUNTAI_BEAR_BODY_BEAR_BODY_51_cls-6" d="M413.79,396.67c.13.38.26.76.38,1.14,1.42,4.36,2.68,8.77,3.83,13.21" />
      <path class="BUNTAI_BEAR_BODY_BEAR_BODY_51_cls-6" d="M420.25,420.41c2.78,12.45,4.83,25.08,6.87,37.67-.07-.09-30.33-.13-74.66-.14h-.28c-75.24,0-190.81,0-268.13.08H83.8l-80.74.06c2-12.54,4.07-25.11,6.83-37.5" />
      <path class="BUNTAI_BEAR_BODY_BEAR_BODY_51_cls-6" d="M327.22,296.75c5,2.88,9,6.59,22.58,18.3,11.27,9.74,23.65,19,34.07,29.64,11.76,12,20.31,26.84,26.5,42.54" />
      <path class="BUNTAI_BEAR_BODY_BEAR_BODY_51_cls-6" d="M17.53,393.34h0a23.88,23.88,0,0,1-6.72,1.14c3.55-2.76,13-16.63,13.25-17.06h0" />
      <path class="BUNTAI_BEAR_BODY_BEAR_BODY_51_cls-6" d="M12.83,408.58h0c-.27.41-7.88,12.27-8.91,14.9,3.5-2.68,6-2.91,6-2.91" />
      <path class="BUNTAI_BEAR_BODY_BEAR_BODY_51_cls-6" d="M410.37,387.23h0s3.09,7,6.23,10.47a9.59,9.59,0,0,1-2.82-1" />
      <path class="BUNTAI_BEAR_BODY_BEAR_BODY_51_cls-6" d="M418,411c2.26,4.26,5.62,10.85,6.3,13.69l-4.05-4.3" />
      <path class="BUNTAI_BEAR_BODY_BEAR_BODY_51_cls-6" d="M99.64,344.35S42.32,420.72,96.85,467c26.56,22.26,83.29,5.67,83.29,5.67" />
      <path class="BUNTAI_BEAR_BODY_BEAR_BODY_51_cls-6" d="M85,350.73s-3,15.7-2.81,25.29" />
      <path class="BUNTAI_BEAR_BODY_BEAR_BODY_51_cls-6" d="M352.12,344.35s57.33,76.37,2.8,122.63c-26.56,22.26-83.29,5.67-83.29,5.67" />
      <path class="BUNTAI_BEAR_BODY_BEAR_BODY_51_cls-6" d="M366.77,350.73s3,15.7,2.8,25.29" />
      <path class="BUNTAI_BEAR_BODY_BEAR_BODY_51_cls-7" d="M277.56,159.51S276.1,147.89,293.44,149C293.58,159.85,289.26,164.46,277.56,159.51Z" />
      <path class="BUNTAI_BEAR_BODY_BEAR_BODY_51_cls-6" d="M277.33,159.57S275.88,148,293.22,149C293.36,159.91,289,164.51,277.33,159.57Z" />
      <path class="BUNTAI_BEAR_BODY_BEAR_BODY_51_cls-8" d="M283.74,150.83a5.07,5.07,0,1,0,6.2,3.61A5.07,5.07,0,0,0,283.74,150.83Z" />
      <circle cx="285.04" cy="155.74" r="2.45" />
      <circle class="BUNTAI_BEAR_BODY_BEAR_BODY_51_cls-7" cx="286.31" cy="153.15" r="1.12" />
      <circle class="BUNTAI_BEAR_BODY_BEAR_BODY_51_cls-9" cx="285.04" cy="155.74" r="5.08" />
      <path class="BUNTAI_BEAR_BODY_BEAR_BODY_51_cls-7" d="M231,159.51s.5-11.62-16.84-10.56C214,159.85,219.28,164.46,231,159.51Z" />
      <path class="BUNTAI_BEAR_BODY_BEAR_BODY_51_cls-6" d="M231.2,159.57S231.7,148,214.36,149C214.21,159.91,219.5,164.51,231.2,159.57Z" />
      <path class="BUNTAI_BEAR_BODY_BEAR_BODY_51_cls-8" d="M222.61,150.83a5.07,5.07,0,1,1-6.21,3.61A5.07,5.07,0,0,1,222.61,150.83Z" />
      <circle cx="221.31" cy="155.74" r="2.45" />
      <circle class="BUNTAI_BEAR_BODY_BEAR_BODY_51_cls-7" cx="220.04" cy="153.15" r="1.12" />
      <circle class="BUNTAI_BEAR_BODY_BEAR_BODY_51_cls-9" cx="221.31" cy="155.74" r="5.08" />
      <path d="M265.43,208.83c-3.37,0-6,4.51-9.16,4.51-1.84,0-4.92-1.05-7.17-1.93a14.45,14.45,0,0,0-.66,2.65,11.5,11.5,0,0,0,1.34,4.17,29.91,29.91,0,0,0,8.12,1C264.71,219.08,268.82,208.83,265.43,208.83Z" />
      <path d="M288.12,214.06s-.07-.27-.2-.73c-3-.22-5.64-4.5-8.92-4.5s.72,10.25,7.53,10.41h.3A11.45,11.45,0,0,0,288.12,214.06Z" />
      <g class="BUNTAI_BEAR_BODY_BEAR_BODY_51_cls-10">
        <path d="M116,342.4c21.55,4.08,31.22,17.59,46.43,41.36s39.32,31.63,55.4,29.88c-33.56-.35-55.75-37.57-62.57-51.73s-4.71-24.72,4.11-23.5,31.7,28.58,26.91,35.39-21.06-6.29-21.84-13.72,5.59-3.23,5.59-3.23-4.89-8.65-8.82-7.26-.88,18.09,14.33,35.3c14,15.9,29.12,20.84,31.35,21.51-1.52-.54-9.11-3.48-18.77-12.68,9.43-3.5,12.06-12.93-2.8-37.05s-36.52-25-36.52-25-3.32-7.51-17.83-12.06c19.81-2.06,35.71,13,36.17,13.45l-5.06-8.2s10.31,3,22,14.85c-2.74-45.36-43.52-52.1-66.25-47a46.55,46.55,0,0,0-5.23,1.51c1.46-.11,2.87-.19,4.24-.23,37.4-1.32,43.81,19.34,44,20-.14,0-1.36-.36-9.8-.44-6.46-.06-17.13,0-34.76.45a109.49,109.49,0,0,0-13.89,1.24,118.59,118.59,0,0,0-36.45,12l-.17.08-.56.29h0l0,0h0c-.72.61-1.45,1.21-2.17,1.83s-1.45,1.22-2.17,1.83l-2.16,1.84c-.72.62-1.43,1.23-2.14,1.86l-1.26,1.11-.1.09c-.36.31-.7.62-1.05.94l-.6.55c-1,.87-1.93,1.75-2.87,2.65a.46.46,0,0,1-.07.07h.24l.5,0c8.67.38,22.9,3.15,30.4,7.18a19,19,0,0,1,2.37,1.49c4,3,2.63,7.21-.53,10-2.79,2.46-7,3.82-10.11,2.25a5.84,5.84,0,0,1-1.24-.83c-5.51-4.78,3.77-7,6.19-7.47L79,353l-.35-.25a32.5,32.5,0,0,0-18.29-5.57c11.42,7.57,1.63,11.53-12.46,4.42a29.07,29.07,0,0,1-4.45-2.72l-.46-.37-.13-.1c-.64.72-1.27,1.45-1.88,2.19-.42.49-.83,1-1.23,1.49v0c-.43.52-.84,1-1.25,1.57s-1,1.31-1.49,2c-.37.5-.74,1-1.1,1.51s-.72,1-1.07,1.52-.7,1-1,1.54l.12.06.25.13a69.85,69.85,0,0,0,8.23,3.64c-.17-.13-.78-.8-.08-3.94.82-3.61,23.3,4.42,23.3,4.42s-5.24,1.17-26.44,19a79,79,0,0,1,30.07-14.65,111.42,111.42,0,0,1,13.48-2.62c1.38-.19,2.76-.36,4.15-.5,4.56-.48,9.14-.75,13.7-.88,21.55-.58,40.31,15.27,39.84,17.71s-4.89-.11-20.5-8.5c-9.72-5.22-23.46-5.39-35.77-2.55h0c-.62.14-1.24.3-1.86.46a58.89,58.89,0,0,0-17.7,7.56,53.57,53.57,0,0,1,17.63-4.76l.54-.05c16.68-1.75,35.24,1.82,42.41,7.49,10,7.93,12.58,21.32,12.58,21.32s3.61.94,9.32-1c-10.6-7.69-.7-17.25,6.06-9.32s-4.66,20.15-4.66,20.15A106.49,106.49,0,0,0,172,419.87c-22.48-11.53-12-17.7-6.75-16.31s4.31,9.09,4.31,9.09a93.09,93.09,0,0,0,30.4,8.62c-29.59-5.71-48.23-42.29-61-57.08-11.59-13.38-30.6-16.38-34.14-16.83,1.56.3,5.74,1.51,5.83,6.34.09,4.6-11.3,4.1-16.86-.37a7.31,7.31,0,0,1-2.95-4.87C89.83,339.84,94.49,338.32,116,342.4Zm-25.73-8.34c-15.07,1.57-27.18,5.85-25.65,1.47,1.11-3.2,13.61-4.74,27.85-4.94,13.79-.21,29.2.83,37.51,2.84-16-10.95-26.68-11.19-26.68-11.19l1,4.55a55.82,55.82,0,0,0-8.77-1,119.82,119.82,0,0,0-20.59,1,73.17,73.17,0,0,1,24.84-7.58c1.53-.2,3.12-.35,4.75-.46,17.6-1.17,39.45,7.49,37.87,15.73s-9.32,4.19-31.75,0A71.94,71.94,0,0,0,90.31,334.06Z" />
        <path d="M127.53,247.46l-.19,0-.09,0c0,.24-.11.46-.16.69l.09,0,.24-.05c.54-.13,1-.24,1.54-.33ZM158.32,262l-.19-.14c-1.21-.92-2.28-1.78-3.17-2.53a38.46,38.46,0,0,1-3.36-3.17h0c-.43-.46-.83-.92-1.2-1.37-4.84-5.92-5-11.23.13-12.73a5.92,5.92,0,0,1,.69-.15h0a4.86,4.86,0,0,1,.69-.05h0c7.91-.24,28.91,10.31,27.81,16-1.17,6.11-16.29,2.2-19.11-2.63s2.82-3.92,2.82-3.92-6-4.39-8.25-2.24c-.7.68-.48,2.15.63,4.07h0s0,0,0,0c.22.37.46.76.74,1.16l0,.06c2.94,4.2,9.43,9.93,19.22,14.33,14.17,6.38,25.79,5.29,27.87,5-1.43.11-7.43.32-16.58-2.88,5.35-5.29,4.24-12.53-13.31-24.39a40.29,40.29,0,0,0-22-7.34h-.42a29.15,29.15,0,0,0-10.15,1.56,11,11,0,0,0-3.4-1.78,24.45,24.45,0,0,0-8.22-1.24h-.14l-.35,1.75-.24,1H129c3.94.18,7,1.16,8.28,3a3.44,3.44,0,0,1,.51,1.14c.49,2.06.08,3.38-1.33,4.38-1.72,1.24-4.95,2-9.83,3l-.41.09-.09,0c-.22.9-.39,1.55-.48,1.91l.1-.05c0,.1,0,.18-.06.25l2.18-1c-.14.58-.46,1.76-1.1,4.07l.31,0h.09a34,34,0,0,1,6.27-.18,3.16,3.16,0,0,1,.32,0l.9.07c6,.62,11.75,2.87,18.1,6.36,2.13,1.17,4.32,2.47,6.63,3.91l.16.1c2.23,1.39,4.56,2.89,7,4.5,17.68,11.52,36.54,9.46,47,3.31C192.94,284.38,169.46,270.44,158.32,262Zm9.47-26.67c-7.15-13.58-17.16-19.4-27.27-20.73a34.32,34.32,0,0,0-5.53-.31h-.2c-.16.86-.33,1.69-.5,2.5s-.42,1.93-.65,3h.08l.13,0a22.67,22.67,0,0,1,5.86,2A15,15,0,0,1,144,225a30.21,30.21,0,0,0-4.84,1.86c-1.84.79-4.37,1.91-7.85,3.51l-.1,0-.13.06c-.3,1-.48,1.61-.48,1.61l-.77,3.85a.34.34,0,0,1,.11-.05l.1,0a32,32,0,0,1,8.34-1.71,43,43,0,0,1,13.23,1.18c1.51.37,2.43.69,2.54.73l-6-4S156.15,230.84,167.79,235.33Zm6.75,49.34c4-.65,5.73,4.87,5.73,4.87a69.57,69.57,0,0,0,23.38-3.48c-13.33,3.17-27.41-2.67-39.38-9.12l-.47-.25h0c-2.24-1.21-4.4-2.44-6.47-3.64-4.9-2.83-9.27-5.44-12.86-7.1A34.14,34.14,0,0,0,131.54,263a47.56,47.56,0,0,0-5.93.16h-.1l-.42,0a97.3,97.3,0,0,1-5.81,14.65l.61-.27.2-.08a35.3,35.3,0,0,1,7.22-2.17c12-2.32,23.5,1.22,23.85,2.67.44,1.82-3.36,1.43-16.59.52a27.4,27.4,0,0,0-8.88,1,42,42,0,0,0-7.31,2.76l-.25.12-.32.16,1.2.81c-.09.13-.19.25-.29.37l0,0c-.61.63-2,2.06-3.93,3.88.26-.12.51-.24.76-.34h0l.41-.18a66.8,66.8,0,0,1,7.49-2.78c6.85-2.1,13.29-2.85,17.23-1.87,9.27,2.32,15.14,10.66,15.14,10.66s2.75-.47,6-3.58c-8.55-1.77-6.45-9.56-.89-8.87a7.31,7.31,0,0,1,2.16.65c3.24,1.53,4.13,4.86,4.16,8a24.73,24.73,0,0,1-1.14,7.16,79.63,79.63,0,0,0,18-2.8C165.29,292.78,170.53,285.34,174.54,284.67Zm-40.88-28.36-.23.74a3.16,3.16,0,0,1,.32,0Z" />
      </g>
    </g>
  </g>
</svg>