<svg xmlns="http://www.w3.org/2000/svg" viewBox="0 0 432 432">
  <defs>
    <style>.BUNTAI_BEAR_BODY_BEAR_BODY_58_cls-1{isolation:isolate;}.BUNTAI_BEAR_BODY_BEAR_BODY_58_cls-2{fill:#2e3235;}.BUNTAI_BEAR_BODY_BEAR_BODY_58_cls-3{opacity:0.43;mix-blend-mode:multiply;}.BUNTAI_BEAR_BODY_BEAR_BODY_58_cls-4{opacity:0.57;}.BUNTAI_BEAR_BODY_BEAR_BODY_58_cls-5{fill:#1a1a1a;}.BUNTAI_BEAR_BODY_BEAR_BODY_58_cls-6{fill:#fff;}.BUNTAI_BEAR_BODY_BEAR_BODY_58_cls-7,.BUNTAI_BEAR_BODY_BEAR_BODY_58_cls-9{fill:none;stroke:#000;stroke-linecap:round;}.BUNTAI_BEAR_BODY_BEAR_BODY_58_cls-7{stroke-linejoin:round;stroke-width:1.93px;}.BUNTAI_BEAR_BODY_BEAR_BODY_58_cls-8{fill:#d0b400;}.BUNTAI_BEAR_BODY_BEAR_BODY_58_cls-9{stroke-miterlimit:10;stroke-width:1.61px;}</style>
  </defs>
  <g class="BUNTAI_BEAR_BODY_BEAR_BODY_58_cls-1">
    <g id="body">
      <path class="BUNTAI_BEAR_BODY_BEAR_BODY_58_cls-2" d="M420.29,420.6l4,4.3c-.68-2.84-4-9.43-6.3-13.69-1.15-4.44-2.41-8.85-3.83-13.21-.12-.38-.25-.76-.38-1.14a9.59,9.59,0,0,0,2.82,1c-3.14-3.5-6.23-10.47-6.23-10.47h0c-1.69-4.3-3.57-8.54-5.65-12.67-.54-1.1-1.1-2.18-1.68-3.26q-1.56-3-3.29-5.81a118.35,118.35,0,0,0-7.65-11.29,106,106,0,0,0-8.23-9.51q-1.95-2-4-3.93c-2.1-2-4.26-3.94-6.45-5.86q-2-1.77-4.07-3.51c-1.25-1.06-2.51-2.11-3.78-3.17-2.41-2-4.84-4-7.25-6l-3-2.47-.52-.44q-2.53-2.12-5-4.26l-1.9-1.64c-5.75-5-9.65-8.38-12.66-10.87a63.19,63.19,0,0,0-6.95-5.14c-.35-.23-.71-.44-1.07-.65-8.95-6.51-14-40-14.27-48.37S309.62,219,309.62,219l2.12-.18c-3.13-10.55.75-28.1,2.53-43.63.25-7.68-2.2-20.26-2.2-20.26l2.95.17c-1.18-3.44-2.58-6.78-3.92-9.74,3.41-2.7,6.61-7.83,9.92-12.58,3.88-5.56,5.8-17.1,5.8-17.1l-1.75,2.42a18.42,18.42,0,0,0-5.24-15.76c-7-7-17.33-2.47-23.29,0A128.91,128.91,0,0,1,282.38,107h0c-1.53-.85-3.16-1.69-4.78-2.42-6.17-2.8-19.46-5.45-19.46-5.45l2.45-1.9s-7.76-.88-13.76.51A65.76,65.76,0,0,1,234,99.08s-9.24-.48-13.07-1.77S207,96,207,96l1.18,1.68s-11.48,1.18-16.65,2.14c-3.9.72-11.77,4.45-15.36,6.3a39.51,39.51,0,0,0-9.86-6.41c-10-4.79-13.84-4.39-13.84-4.39l.9,1.57s-8.77-1.79-11.76,3.67S139,115.42,139,115.42l-2.19-1.06s-1.47,11.7,3,19.08,6.71,14.57,6.59,18.39c-7.2,16.55-8.16,30.28-10.29,38.1l2.25-2.25s-1.5,17.5-4,29.32-7.89,34.35-8.65,37.22l2.52-1.17c-.14.52-4.08,17.1-6.08,20.76s-4.64,8.43-4.64,8.43,1.87.33,2,.85A50.79,50.79,0,0,1,103,296.94c-5,2.88-9,6.59-22.58,18.3-11.27,9.74-23.65,19-34.07,29.64a119.81,119.81,0,0,0-22.24,32.71h0c-.29.43-9.7,14.3-13.25,17.06a23.88,23.88,0,0,0,6.72-1.14c-.52,1.49-1,3-1.51,4.47-1.16,3.57-2.21,7.16-3.18,10.77h0c-.27.41-7.88,12.27-8.91,14.9,3.5-2.68,6-2.91,6-2.91-2.76,12.39-4.8,25-6.83,37.5l80.74-.06h.25c77.32,0,192.89-.11,268.13-.08h.28c44.33,0,74.59.05,74.66.14C425.12,445.68,423.07,433.05,420.29,420.6ZM249.82,219.47a11.47,11.47,0,0,1-1.34-4.16,14.35,14.35,0,0,1,.66-2.66c1.78-5.24,6.21-10.62,6.21-10.62,2.47-2.26,10.69-2.87,14.74-2.87s8.05.45,11.54,2.2c3,1.48,5.61,10.55,6.33,13.21.13.47.2.74.2.74a11.48,11.48,0,0,1-1.29,5.19c-1.6,3.46-4.19,6.76-4.85,7-1,.39-18.34,1.24-23.07-.22A15.53,15.53,0,0,1,249.82,219.47Z" />
      <g class="BUNTAI_BEAR_BODY_BEAR_BODY_58_cls-3">
        <path class="BUNTAI_BEAR_BODY_BEAR_BODY_58_cls-4" d="M151.6,236.27s-1.24,18.24-1.41,22.34l1.41-2.47A107.73,107.73,0,0,0,154,269.31l.73-2.76a114,114,0,0,0,7.65,16.77c4.17,7,8,8,8,8l-8.1-19-2.14-2s-3.8-17.18-3.8-17.14-2.22.32-2.22.32l-.62-5.8-1.29-.67Z" />
        <path class="BUNTAI_BEAR_BODY_BEAR_BODY_58_cls-4" d="M148.7,106.82s9.23.79,13.76,4.81,5.09,5.82,5.09,5.82l-1.93.94-1.3,1.32v2.56l-3.59,1.83s2,1.32,1.73,1.37-6.57,5.76-7.59,7.79.64,1.61.64,1.61.2,5.38.08,5.83-2.42,4.73-2.42,4.73l-.73,1s-9.73-16.65-9.94-22.39,1-13.87,3.47-15.48l2.47-1.6Z" />
        <path class="BUNTAI_BEAR_BODY_BEAR_BODY_58_cls-4" d="M179.06,109.55s19.78-8,35.31-8.22a31,31,0,0,1-3.88-1.35s-.26-.76,13.33,1.61a73.17,73.17,0,0,0,25.24-.17l12.83-1.55-3.29-3s-7,.44-14.62,1.21-11.12,1.69-18.22-.51A34.37,34.37,0,0,0,212.94,96s-4.48,0-4.73-.1-.68,1.54-.68,1.54a138,138,0,0,0-16,2.2c-6.93,1.51-15.36,5.65-15.36,5.65l1.09,2.36Z" />
        <path class="BUNTAI_BEAR_BODY_BEAR_BODY_58_cls-4" d="M296.68,221.49s-2,4.43-3,6.68c-3.69,12.38-13,14.83-13,14.83l1.68-4.33s6-.82,7.77-6.11a36.61,36.61,0,0,0,2-8.33S294.54,224.86,296.68,221.49Z" />
        <path class="BUNTAI_BEAR_BODY_BEAR_BODY_58_cls-4" d="M291.75,215.09A5.22,5.22,0,0,1,288,217c-12.3,2.72-17.32,2.84-38.92.67-.79.37-19.5-.19-24.48-2.53-8.52,4.67-21.52,9.14-30.72,7.2a37.49,37.49,0,0,0-16.21,0s38.1,22.09,57.79,25.24,35,3.26,40.62-.31,6-7.95,6-7.95,2.7-.58,6.06-5S292,221.49,292,221.49Z" />
        <path class="BUNTAI_BEAR_BODY_BEAR_BODY_58_cls-4" d="M242.14,112.47s6.58,8.11,8.61,14.19,4.39,16.2,4.39,16.2.67-12.66.67-15.19a11.62,11.62,0,0,1,1.73-5.24l-2.74,1s-2.49-4.56-5-8.27-7.7-5.63-7.7-5.63l-3-1Z" />
        <path class="BUNTAI_BEAR_BODY_BEAR_BODY_58_cls-4" d="M178.75,108.72v.83a24.52,24.52,0,0,0-3.67,2.71,57.45,57.45,0,0,0-12-8.9l1,1.18s-8.48-2.91-13.33-2.87-8.59.77-11,4c2.46-7,3.18-8.63,7.53-9.31s5.36-.4,5.36-.4l1-1.37a77,77,0,0,1,14,5.69A41.75,41.75,0,0,1,178.75,108.72Z" />
        <path class="BUNTAI_BEAR_BODY_BEAR_BODY_58_cls-4" d="M317.45,110.28s-7.66-2.09-14.62,1.22l-7,3.3,7.44,3.81-3.37,2.76s3.39,8,4.62,9.11a12,12,0,0,0,2.81,1.84l-1.69,3.06,5.8,8.89s.22-9,1.63-13S319.83,117.93,317.45,110.28Z" />
        <path class="BUNTAI_BEAR_BODY_BEAR_BODY_58_cls-4" d="M270.11,318.32l-1.75-1.41-1.61,3.6c-1.62,3.61-12.29,18.74-12.29,18.74s-2.47,3.83-7.54,11.48c13.28-6.64,22.4-28.25,22.4-28.25l2.36-.11c6-12.38,8.46-27.48,8.46-27.48s-2.15,5.76-4.29,11.57A84.06,84.06,0,0,1,270.11,318.32Z" />
        <path class="BUNTAI_BEAR_BODY_BEAR_BODY_58_cls-4" d="M257.54,249.84s-12.87.06-23.76-3.41a309.28,309.28,0,0,1-36.55-14.52c-11.64-5.57-20.59-9.54-26.27-14.88-13.62-12.27-19.36-30.11-19.36-30.11l-.4-.54a124.52,124.52,0,0,1-2.61-18.68c.16-.84.34-2.1.34-2.1s.7,1.63-.82-6.42a120.15,120.15,0,0,0-2.7-12.72l.72,4.63a137.83,137.83,0,0,0-6,17.65,115.1,115.1,0,0,0-3.8,20l1.92-.48s-1,11.61-2.61,22.24a168.15,168.15,0,0,1-5,21.59l-4.35,21.67,1.73-1s-.26,1.14-2.87,10.38a106.58,106.58,0,0,1-8,19l1.92,1.3a96,96,0,0,1-16.67,14.1l-1.86.64L98.32,300c-.43.24-.86.48-1.3.71l.29.14c-6.14,5.16-20.17,17-33.68,28.42-18,15.24-32.56,32.62-39.94,48.71A53.25,53.25,0,0,1,10.8,393.89l6.41.35-4.38,14.34C7.64,417.79,4.63,423,4.63,423l4.77-2.29-2.82,16.5L3.92,458H44.35l1-18.23L41,444.22s5-8.39,6.53-15.85S56.82,396,56.82,396l-8.16,5s6.64-6.14,19.58-30.26,46.62-74.21,46.62-74.21a76.68,76.68,0,0,0,8.55-12.12c3.57-6,10.25-28.06,10.25-28.06L134,259c3.88-9.46,5.5-41,7.36-49.72s3.54-26.92,3.54-26.92l.15,0c1.38,9.53,5.24,29.41,14.2,37.61,12,11,43.72,21.27,43.72,21.27H191.33s17.72,3,30,6.25S257.54,249.84,257.54,249.84Z" />
      </g>
      <path class="BUNTAI_BEAR_BODY_BEAR_BODY_58_cls-5" d="M288.12,215.12a11.48,11.48,0,0,1-1.29,5.19c-1.6,3.46-4.19,6.76-4.85,7-1,.39-18.34,1.24-23.07-.22a15.53,15.53,0,0,1-9.13-7.83,11.47,11.47,0,0,1-1.34-4.16,14.35,14.35,0,0,1,.66-2.66c1.78-5.24,6.21-10.62,6.21-10.62,2.47-2.26,10.69-2.87,14.74-2.87s8.05.45,11.54,2.2c3,1.48,5.61,10.55,6.33,13.21C288.05,214.85,288.12,215.12,288.12,215.12Z" />
      <path class="BUNTAI_BEAR_BODY_BEAR_BODY_58_cls-6" d="M116,342.41c21.55,4.08,31.22,17.59,46.43,41.36s39.32,31.63,55.4,29.88c-33.56-.35-55.75-37.57-62.57-51.73s-4.71-24.72,4.11-23.5,31.7,28.58,26.91,35.39-21.06-6.29-21.84-13.72,5.59-3.23,5.59-3.23-4.89-8.65-8.82-7.26-.88,18.09,14.33,35.3c14,15.9,29.12,20.84,31.35,21.51-1.52-.54-9.11-3.48-18.77-12.68,9.43-3.5,12.06-12.93-2.8-37.05s-36.52-25-36.52-25-3.32-7.51-17.83-12.06c19.81-2.06,35.71,13,36.17,13.45l-5.06-8.2s10.31,3,22,14.85c-3-49.11-50.51-53-71.48-45.44,41.16-3.09,48,19.09,48.23,19.74-.24-.07-3.86-1-44.56,0A116.33,116.33,0,0,0,65.21,327.7h0c-5,4.16-9.94,8.36-14.6,12.77,9.58.28,26.95,3.75,33.52,8.7,8,6.05-5.59,16.89-11.88,11.41S79,353,79,353a32.15,32.15,0,0,0-18.64-5.82c11.42,7.57,1.63,11.53-12.46,4.42a26.89,26.89,0,0,1-5-3.19,109.23,109.23,0,0,0-9.08,11.81,71.16,71.16,0,0,0,8.6,3.83c-.17-.13-.78-.8-.08-3.94.82-3.61,23.3,4.42,23.3,4.42s-5.24,1.17-26.44,19c17.71-14.22,39.84-18.06,61.4-18.65s40.31,15.27,39.84,17.71-4.89-.11-20.5-8.5-41.6-3.73-55.34,5.47c18.29-9.08,50.56-5.24,60.58,2.68s12.58,21.32,12.58,21.32,3.61.94,9.32-1c-10.6-7.69-.7-17.25,6.06-9.32s-4.66,20.15-4.66,20.15A106.49,106.49,0,0,0,172,419.88c-22.48-11.53-12-17.7-6.75-16.31s4.31,9.09,4.31,9.09a93.09,93.09,0,0,0,30.4,8.62c-29.59-5.71-48.23-42.29-61-57.08-11.59-13.38-30.6-16.38-34.14-16.83,1.56.3,5.74,1.51,5.83,6.34.11,5.94-18.88,3.38-19.81-5.24S94.49,338.33,116,342.41Zm-51.38-6.87c2.19-6.29,48.47-6.18,65.36-2.1-16-10.95-26.68-11.19-26.68-11.19l1,4.55c-12.23-2.57-29.36,0-29.36,0a74.64,74.64,0,0,1,29.59-8c17.6-1.17,39.45,7.49,37.87,15.73s-9.32,4.19-31.75,0S62.47,341.82,64.66,335.54Z" />
      <path class="BUNTAI_BEAR_BODY_BEAR_BODY_58_cls-6" d="M349.84,315.24l-1.9-1.64c-19.1-.19-21.25.37-21.43.42.1-.33,1.87-6,8.77-11.29a63.19,63.19,0,0,0-6.95-5.14c-13.12,6.79-23.72,19.76-25.07,42.13,11.71-11.88,22-14.85,22-14.85l-5.06,8.2c.45-.43,15.55-14.75,34.65-13.57Q352.34,317.39,349.84,315.24Zm15.79,13.17a83.94,83.94,0,0,0-8.25,5,93.58,93.58,0,0,1,12-1.85C368.16,330.52,366.9,329.47,365.63,328.41Zm7.85,6.68c-20,4-27.07,7.22-28.57-.61-.85-4.43,5.07-9,13.47-12.07l-3-2.47c-13.66,4.58-16.83,11.74-16.83,11.74s-21.67.87-36.52,25-12.23,33.55-2.8,37.05c-9.66,9.2-17.25,12.14-18.77,12.68,2.23-.67,17.31-5.61,31.35-21.51,15.21-17.21,18.27-33.9,14.33-35.3s-8.82,7.26-8.82,7.26,6.38-4.2,5.59,3.23-17.05,20.52-21.84,13.72,18.08-34.17,26.91-35.39,10.92,9.35,4.11,23.5-29,51.38-62.57,51.73c16.08,1.75,40.2-6.11,55.4-29.88s24.88-37.28,46.43-41.36c3.22-.61,6.07-1.09,8.57-1.45C377.83,339,375.67,337,373.48,335.09Zm29.6,36.4c-12.25-2.79-25.9-2.59-35.57,2.6-15.61,8.39-20,11-20.5,8.5s18.29-18.29,39.84-17.71c4.3.12,8.63.36,12.94.8a118.35,118.35,0,0,0-7.65-11.29c-5.87,3.46-15.39,3.52-15.31-.69.09-4.83,4.27-6,5.83-6.34-3.54.45-22.55,3.45-34.14,16.83-12.81,14.79-31.45,51.37-61,57.08a93.09,93.09,0,0,0,30.4-8.62s-.93-7.69,4.31-9.09,15.73,4.78-6.75,16.31A106.49,106.49,0,0,0,339,413.35s-11.42-12.23-4.66-20.15,16.66,1.63,6.06,9.32c5.71,2,9.32,1,9.32,1s2.56-13.39,12.58-21.32c7.18-5.68,25.79-9.26,42.49-7.49C404.22,373.65,403.66,372.57,403.08,371.49Z" />
      <path class="BUNTAI_BEAR_BODY_BEAR_BODY_58_cls-7" d="M282.33,106.76c-1.53-.85-3.16-1.69-4.78-2.42-6.17-2.8-19.46-5.45-19.46-5.45l2.45-1.9s-7.76-.88-13.76.51A65.76,65.76,0,0,1,234,98.89s-9.24-.48-13.07-1.77S207,95.83,207,95.83l1.18,1.68s-11.48,1.18-16.65,2.14c-3.9.72-11.77,4.45-15.36,6.3" />
      <path class="BUNTAI_BEAR_BODY_BEAR_BODY_58_cls-7" d="M290,111.51s-3.42-2.38-7.7-4.75" />
      <path class="BUNTAI_BEAR_BODY_BEAR_BODY_58_cls-7" d="M311.06,145.2c3.41-2.7,6.61-7.83,9.92-12.58,3.88-5.56,5.8-17.1,5.8-17.1L325,117.94a18.42,18.42,0,0,0-5.24-15.76c-7-7-17.33-2.47-23.29,0a128.91,128.91,0,0,1-14.16,4.58h0" />
      <path class="BUNTAI_BEAR_BODY_BEAR_BODY_58_cls-7" d="M321,112.26a7.39,7.39,0,0,0-4-2.37h0a14.25,14.25,0,0,0-7.17.17A89.3,89.3,0,0,0,295.54,115l8.73,4.12-4.06,2s3.15,7.82,5.18,9.57,2.42,2.14,2.42,2.14l-2.36,1.51s2.7,4.6,5.61,10.95c1.34,3,2.74,6.3,3.92,9.74l-3-.17s2.45,12.58,2.2,20.26c-1.78,15.53-5.66,33.08-2.53,43.63l-2.12.18S312.69,240,313,248.38s5.32,41.86,14.27,48.37" />
      <path class="BUNTAI_BEAR_BODY_BEAR_BODY_58_cls-7" d="M103,296.75a50.79,50.79,0,0,0,16.43-13.85c-.08-.52-2-.85-2-.85s2.62-4.72,4.64-8.43,5.94-20.24,6.08-20.76" />
      <path class="BUNTAI_BEAR_BODY_BEAR_BODY_58_cls-7" d="M128.17,252.85h0L125.64,254c.76-2.87,6.12-25.41,8.65-37.22s4-29.32,4-29.32l-2.25,2.25c2.13-7.82,3.09-21.55,10.29-38.1.12-3.82-2.13-11-6.59-18.39s-3-19.08-3-19.08l2.19,1.06s-.39-9.39,2.59-14.84,11.76-3.67,11.76-3.67l-.9-1.57s3.88-.4,13.84,4.39a39.51,39.51,0,0,1,9.86,6.41,15,15,0,0,1,2.81,3.21" />
      <path class="BUNTAI_BEAR_BODY_BEAR_BODY_58_cls-7" d="M148.44,107a21.06,21.06,0,0,0-3.77,13.42c.74,9.4,5.18,19.48,7.94,26.05,0,0,2.93-5.16,3.15-7.42a9.24,9.24,0,0,1,1.69-4.17l-3.44-.34s5.64-8.66,9-10.24L159,124l6.63-2.42-2.36-2.47,4.84-1.41a35.49,35.49,0,0,0-7.14-6.93C157.84,108.49,152.69,106.19,148.44,107Z" />
      <path class="BUNTAI_BEAR_BODY_BEAR_BODY_58_cls-7" d="M144.39,109.16a7.29,7.29,0,0,1,4.05-2.17" />
      <path class="BUNTAI_BEAR_BODY_BEAR_BODY_58_cls-7" d="M317,109.89a23.84,23.84,0,0,1-.36,10.75c-1.57,5.51-4.95,14.35-4.95,14.35" />
      <path class="BUNTAI_BEAR_BODY_BEAR_BODY_58_cls-7" d="M277.33,160.62a54.65,54.65,0,0,0,6.58,22.53c.43.8,3.55,3.9,4,4.75.34.68-2-.92-1.66-.2a54.51,54.51,0,0,1,4.19,13.92s2.2,16.13,1.39,24.49a15.12,15.12,0,0,1-.54,3c-2,6.5-6.59,9.37-9.12,9.37-1.66,0-6.37-1.44-12.17-1.87a36,36,0,0,0-9.78.52c-9.79,2-11.34,2.87-19.72,1.35S225.9,230,225,220.35" />
      <path class="BUNTAI_BEAR_BODY_BEAR_BODY_58_cls-7" d="M307,196.47s-.26,11-5.83,19.16-9.33,10.48-9.33,10.48" />
      <path class="BUNTAI_BEAR_BODY_BEAR_BODY_58_cls-7" d="M282.15,238.5s-.09,7.85-9.71,10-26.84,2.11-39.5-2.11c0,0-16.46-5.91-25.24-9.79s-13.84-6.58-24.65-11.14c0,0-22.79-11-22.62-28.95" />
      <path class="BUNTAI_BEAR_BODY_BEAR_BODY_58_cls-7" d="M151.6,234.37s.56,12.15.67,13.84l.9-1.24a74.67,74.67,0,0,0,1.92,7.88l1.12-2.48s3.15,16.77,4.95,21.27l.57-3s5,16,9.22,20.7" />
      <path class="BUNTAI_BEAR_BODY_BEAR_BODY_58_cls-7" d="M299.39,232.56s.58,11.26,0,12.84l-1-1.81s-1.92,13.17-2.48,15.76L294.75,257s-4.05,13.62-6.19,16.65" />
      <path class="BUNTAI_BEAR_BODY_BEAR_BODY_58_cls-7" d="M148.61,308.81s5.58,11.15,8.78,15.54" />
      <path class="BUNTAI_BEAR_BODY_BEAR_BODY_58_cls-7" d="M249.78,219.28a15.53,15.53,0,0,0,9.13,7.83c4.73,1.46,22.06.61,23.07.22.66-.26,3.25-3.56,4.85-7a11.48,11.48,0,0,0,1.29-5.19s-.07-.27-.2-.74c-.72-2.66-3.37-11.73-6.33-13.21-3.49-1.75-7.49-2.2-11.54-2.2s-12.27.61-14.74,2.87c0,0-4.43,5.38-6.21,10.62a14.35,14.35,0,0,0-.66,2.66A11.47,11.47,0,0,0,249.78,219.28Z" />
      <path class="BUNTAI_BEAR_BODY_BEAR_BODY_58_cls-7" d="M271.12,227.93s.54,2.76-1.14,8.7h0" />
      <path class="BUNTAI_BEAR_BODY_BEAR_BODY_58_cls-7" d="M280.72,293.11s-7.37,23-10.74,26.34l-.66-3.55s-6.92,16-16.55,24.15" />
      <path class="BUNTAI_BEAR_BODY_BEAR_BODY_58_cls-7" d="M190.82,159.24s6,8.95,10.15,9.79l-3.06,1.35s6.08,2.37,9.79,3.55l-2.87.67S215,178,219,178" />
      <path class="BUNTAI_BEAR_BODY_BEAR_BODY_58_cls-7" d="M302.58,159.24s-1.79,8.95-3.05,9.79l.91,1.35s-1.82,2.37-2.94,3.55l.86.67s-3,3.38-4.26,3.38" />
      <path class="BUNTAI_BEAR_BODY_BEAR_BODY_58_cls-7" d="M12.83,408.58c1-3.61,2-7.2,3.18-10.77.49-1.49,1-3,1.51-4.47" />
      <path class="BUNTAI_BEAR_BODY_BEAR_BODY_58_cls-7" d="M24.07,377.4a119.81,119.81,0,0,1,22.24-32.71c10.42-10.66,22.8-19.9,34.07-29.64C93.92,303.34,98,299.63,103,296.75" />
      <path class="BUNTAI_BEAR_BODY_BEAR_BODY_58_cls-7" d="M413.79,396.67c.13.38.26.76.38,1.14,1.42,4.36,2.68,8.77,3.83,13.21" />
      <path class="BUNTAI_BEAR_BODY_BEAR_BODY_58_cls-7" d="M420.25,420.41c2.78,12.45,4.83,25.08,6.87,37.67-.07-.09-30.33-.13-74.66-.14h-.28c-75.24,0-190.81,0-268.13.08H83.8l-80.74.06c2-12.54,4.07-25.11,6.83-37.5" />
      <path class="BUNTAI_BEAR_BODY_BEAR_BODY_58_cls-7" d="M327.22,296.75c5,2.88,9,6.59,22.58,18.3,11.27,9.74,23.65,19,34.07,29.64,11.76,12,20.31,26.84,26.5,42.54" />
      <path class="BUNTAI_BEAR_BODY_BEAR_BODY_58_cls-7" d="M17.53,393.34h0a23.88,23.88,0,0,1-6.72,1.14c3.55-2.76,13-16.63,13.25-17.06h0" />
      <path class="BUNTAI_BEAR_BODY_BEAR_BODY_58_cls-7" d="M12.83,408.58h0c-.27.41-7.88,12.27-8.91,14.9,3.5-2.68,6-2.91,6-2.91" />
      <path class="BUNTAI_BEAR_BODY_BEAR_BODY_58_cls-7" d="M410.37,387.23h0s3.09,7,6.23,10.47a9.59,9.59,0,0,1-2.82-1" />
      <path class="BUNTAI_BEAR_BODY_BEAR_BODY_58_cls-7" d="M418,411c2.26,4.26,5.62,10.85,6.3,13.69l-4.05-4.3" />
      <path class="BUNTAI_BEAR_BODY_BEAR_BODY_58_cls-7" d="M99.64,344.35S42.32,420.72,96.85,467c26.56,22.26,83.29,5.67,83.29,5.67" />
      <path class="BUNTAI_BEAR_BODY_BEAR_BODY_58_cls-7" d="M85,350.73s-3,15.7-2.81,25.29" />
      <path class="BUNTAI_BEAR_BODY_BEAR_BODY_58_cls-7" d="M352.12,344.35s57.33,76.37,2.8,122.63c-26.56,22.26-83.29,5.67-83.29,5.67" />
      <path class="BUNTAI_BEAR_BODY_BEAR_BODY_58_cls-7" d="M366.77,350.73s3,15.7,2.8,25.29" />
      <path class="BUNTAI_BEAR_BODY_BEAR_BODY_58_cls-6" d="M277.56,159.51S276.1,147.89,293.44,149C293.58,159.85,289.26,164.46,277.56,159.51Z" />
      <path class="BUNTAI_BEAR_BODY_BEAR_BODY_58_cls-7" d="M277.33,159.57S275.88,148,293.22,149C293.36,159.91,289,164.51,277.33,159.57Z" />
      <path class="BUNTAI_BEAR_BODY_BEAR_BODY_58_cls-8" d="M283.74,150.83a5.07,5.07,0,1,0,6.2,3.61A5.07,5.07,0,0,0,283.74,150.83Z" />
      <circle cx="285.04" cy="155.74" r="2.45" />
      <circle class="BUNTAI_BEAR_BODY_BEAR_BODY_58_cls-6" cx="286.31" cy="153.15" r="1.12" />
      <circle class="BUNTAI_BEAR_BODY_BEAR_BODY_58_cls-9" cx="285.04" cy="155.74" r="5.08" />
      <path class="BUNTAI_BEAR_BODY_BEAR_BODY_58_cls-6" d="M231,159.51s.5-11.62-16.84-10.56C214,159.85,219.28,164.46,231,159.51Z" />
      <path class="BUNTAI_BEAR_BODY_BEAR_BODY_58_cls-7" d="M231.2,159.57S231.7,148,214.36,149C214.21,159.91,219.5,164.51,231.2,159.57Z" />
      <path class="BUNTAI_BEAR_BODY_BEAR_BODY_58_cls-8" d="M222.61,150.83a5.07,5.07,0,1,1-6.21,3.61A5.07,5.07,0,0,1,222.61,150.83Z" />
      <circle cx="221.31" cy="155.74" r="2.45" />
      <circle class="BUNTAI_BEAR_BODY_BEAR_BODY_58_cls-6" cx="220.04" cy="153.15" r="1.12" />
      <circle class="BUNTAI_BEAR_BODY_BEAR_BODY_58_cls-9" cx="221.31" cy="155.74" r="5.08" />
      <path d="M265.43,208.83c-3.37,0-6,4.51-9.16,4.51-1.84,0-4.92-1.05-7.17-1.93a14.45,14.45,0,0,0-.66,2.65,11.5,11.5,0,0,0,1.34,4.17,29.91,29.91,0,0,0,8.12,1C264.71,219.08,268.82,208.83,265.43,208.83Z" />
      <path d="M288.12,214.06s-.07-.27-.2-.73c-3-.22-5.64-4.5-8.92-4.5s.72,10.25,7.53,10.41h.3A11.45,11.45,0,0,0,288.12,214.06Z" />
    </g>
  </g>
</svg>