<svg xmlns="http://www.w3.org/2000/svg" viewBox="0 0 432 432">
  <defs>
    <style>.BUNTAI_BEAR_BODY_BEAR_BODY_46_cls-1{isolation:isolate;}.BUNTAI_BEAR_BODY_BEAR_BODY_46_cls-2{fill:#d7aa89;}.BUNTAI_BEAR_BODY_BEAR_BODY_46_cls-3{opacity:0.64;}.BUNTAI_BEAR_BODY_BEAR_BODY_46_cls-4{opacity:0.43;mix-blend-mode:multiply;}.BUNTAI_BEAR_BODY_BEAR_BODY_46_cls-5{opacity:0.57;}.BUNTAI_BEAR_BODY_BEAR_BODY_46_cls-6{fill:#1a1a1a;}.BUNTAI_BEAR_BODY_BEAR_BODY_46_cls-10,.BUNTAI_BEAR_BODY_BEAR_BODY_46_cls-7{fill:none;stroke:#000;stroke-linecap:round;}.BUNTAI_BEAR_BODY_BEAR_BODY_46_cls-7{stroke-linejoin:round;stroke-width:1.93px;}.BUNTAI_BEAR_BODY_BEAR_BODY_46_cls-8{fill:#fff;}.BUNTAI_BEAR_BODY_BEAR_BODY_46_cls-9{fill:#00bff6;}.BUNTAI_BEAR_BODY_BEAR_BODY_46_cls-10{stroke-miterlimit:10;stroke-width:1.61px;}.BUNTAI_BEAR_BODY_BEAR_BODY_46_cls-11{fill:#5162ff;}</style>
  </defs>
  <g class="BUNTAI_BEAR_BODY_BEAR_BODY_46_cls-1">
    <g id="body">
      <path class="BUNTAI_BEAR_BODY_BEAR_BODY_46_cls-2" d="M420.29,420.6l4,4.3c-.68-2.84-4-9.43-6.3-13.69-1.15-4.44-2.41-8.85-3.83-13.21-.12-.38-.25-.76-.38-1.14a9.59,9.59,0,0,0,2.82,1c-3.14-3.5-6.23-10.47-6.23-10.47h0c-6.19-15.7-14.74-30.51-26.5-42.54-10.42-10.66-22.8-19.9-34.07-29.64-13.54-11.71-17.61-15.42-22.58-18.3-8.95-6.51-14-40-14.27-48.37S309.62,219,309.62,219l2.12-.18c-3.13-10.55.75-28.1,2.53-43.63.25-7.68-2.2-20.26-2.2-20.26l2.95.17c-1.18-3.44-2.58-6.78-3.92-9.74,3.41-2.7,6.61-7.83,9.92-12.58,3.88-5.56,5.8-17.1,5.8-17.1l-1.75,2.42a18.42,18.42,0,0,0-5.24-15.76c-7-7-17.33-2.47-23.29,0A128.91,128.91,0,0,1,282.38,107h0c-1.53-.85-3.16-1.69-4.78-2.42-6.17-2.8-19.46-5.45-19.46-5.45l2.45-1.9s-7.76-.88-13.76.51A65.76,65.76,0,0,1,234,99.08s-9.24-.48-13.07-1.77S207,96,207,96l1.18,1.68s-11.48,1.18-16.65,2.14c-3.9.72-11.77,4.45-15.36,6.3a39.51,39.51,0,0,0-9.86-6.41c-10-4.79-13.84-4.39-13.84-4.39l.9,1.57s-8.77-1.79-11.76,3.67S139,115.42,139,115.42l-2.19-1.06s-1.47,11.7,3,19.08,6.71,14.57,6.59,18.39c-7.2,16.55-8.16,30.28-10.29,38.1l2.25-2.25s-1.5,17.5-4,29.32-7.89,34.35-8.65,37.22l2.52-1.17c-.14.52-4.08,17.1-6.08,20.76s-4.64,8.43-4.64,8.43,1.87.33,2,.85A50.79,50.79,0,0,1,103,296.94c-5,2.88-9,6.59-22.58,18.3-11.27,9.74-23.65,19-34.07,29.64a119.81,119.81,0,0,0-22.24,32.71h0c-.29.43-9.7,14.3-13.25,17.06a23.88,23.88,0,0,0,6.72-1.14c-.52,1.49-1,3-1.51,4.47-1.16,3.57-2.21,7.16-3.18,10.77h0c-.27.41-7.88,12.27-8.91,14.9,3.5-2.68,6-2.91,6-2.91-2.76,12.39-4.8,25-6.83,37.5l80.74-.06h.25c77.32,0,192.89-.11,268.13-.08h.28c44.33,0,74.59.05,74.66.14C425.12,445.68,423.07,433.05,420.29,420.6ZM286.87,220.5c-1.6,3.46-4.19,6.76-4.85,7-1,.39-18.34,1.24-23.07-.22a15.53,15.53,0,0,1-9.13-7.83,11.47,11.47,0,0,1-1.34-4.16,14.35,14.35,0,0,1,.66-2.66c1.78-5.24,6.21-10.62,6.21-10.62,2.47-2.26,10.69-2.87,14.74-2.87s8.05.45,11.54,2.2c3,1.48,5.61,10.55,6.33,13.21.13.47.2.74.2.74A11.48,11.48,0,0,1,286.87,220.5Z" />
      <g class="BUNTAI_BEAR_BODY_BEAR_BODY_46_cls-3">
        <path d="M188.09,238c1.47-.09,2.88-.13,4.23-.11A39.55,39.55,0,0,0,188.09,238Z" />
        <path d="M50.75,340.33c-14.39,25.08-22,53.1-22,53.1a283.8,283.8,0,0,1,3.38-30.61,110.26,110.26,0,0,1,14.23-18.13C47.75,343.21,49.24,341.76,50.75,340.33Z" />
        <path d="M222.56,274.3c-.61-4.89-4.72-16.87-16.34-22.55s-30.06-1-37.31,8.31c-4.12,5.26-4.74,12.18-4.51,17.18,0,.43,0,.85.08,1.26a35.5,35.5,0,0,0,.76,5.24,22,22,0,0,1-4.54-8.83,14.17,14.17,0,0,1-1.44,2.43c-5.85,8-16.74,4.3-16.74,4.3s6.82-.18,6.73-4.72-10.84-7.08-16.34-4.54-.29,12.93,17,21.32c-10.44-4.53-19.45-6.3-29.17-4.95a53.4,53.4,0,0,0-8.48,1.91l-.44.13.12-.1.8-.7c.31-.27.62-.55.94-.85s.64-.59,1-.9a53.29,53.29,0,0,0,4.1-4.46l0-.06.29-.37.34-.42,0,0c-.07-.43-1.35-.73-1.8-.82l-.15,0,.27-.49.24-.14c6-3.41,7.2-7.57,5-9.55l-.09-.09a3.19,3.19,0,0,0-.66-.45,76,76,0,0,0,2.92-8.26l.18-.63.52-.46.14-.12a93.84,93.84,0,0,1,9.27-6.89,146.1,146.1,0,0,1,13.49-7.88c-1.07.74-14.09,9.8-10.06,18.07,3.55,7.3,11.89,5.25,14.87,2.18a3.72,3.72,0,0,0,1-1.71,3.41,3.41,0,0,0-2.22-4.22c-1.83-.83-4.77-1.2-9-1.08a32,32,0,0,1,7.18-8.48,38.89,38.89,0,0,1,3.11-2.4s0,0,0,0c9.94-7,23.54-10.74,34.39-11.42-16.08,1.23-29,11.69-30.37,15.39-1.45,4,.65,6.75,4.72,3.14s22.84-16.31,38.68-12.7S223.08,266.17,222.56,274.3Z" />
        <path d="M132.51,343.45c-16.8,26.08-47.51,65.13-11,114.56H85.64c.47-36.32,7.23-42.84-7.08-38.95-6.9,1.87-12,18.36-14.42,39H52.94a89.55,89.55,0,0,1,2.78-15.45c8.16-29.36,20.28-41,20.28-41a28.87,28.87,0,0,0,24.35-22.72c4.89-21-12.59-44.27-23.19-41.12s-9.9,38.44,4.55,48.58c-21.09,1.16-29.83,4.19-41.36,27.38s-2-24.35-2-24.35,7.1-24.7,14.91-35.19c-4.43,12.35-5.83,26.1,4.66,28s10-23.53-2.45-13.39c2.56-21,9.09-38.8,23.54-40.78s34.25,15.61,33.78,36.7c6.29-11.65-3.49-34-17-38.68s-25.75-3.15-33,6.06q3-3.93,6.21-7.5h0c8-9,16.69-16.21,24.41-20.76h0a54.07,54.07,0,0,1,6.52-3.3c-12,10.26-16.78,20-6.41,15.73s10.52-10.48,5.24-10c10.6-7.69,24.12-8.62,32.39-6.75-14.45,1.39-25.75,12.81-25.75,12.81S137.17,316.19,132.51,343.45Z" />
      </g>
      <g class="BUNTAI_BEAR_BODY_BEAR_BODY_46_cls-3">
        <path d="M294.61,238c-1.23-.09-2.42-.13-3.55-.11A26.17,26.17,0,0,1,294.61,238Z" />
        <path d="M299.62,238.89a30.51,30.51,0,0,0-5-.89,46.3,46.3,0,0,1,5,.66,54.69,54.69,0,0,1,12.94,4.05s0,0,0,0c.09.95.17,1.85.23,2.7l0,0A38.42,38.42,0,0,0,299.62,238.89Z" />
        <path d="M317.38,275.52h0a23,23,0,0,1-3.64,8.19,45.74,45.74,0,0,0,.63-5.22c0-.41.05-.83.06-1.26.2-5-.32-11.92-3.77-17.18-2.88-4.4-7.86-7.77-13.34-9.49-6.08-1.91-12.76-1.8-17.88,1.18-9.72,5.68-13.16,17.66-13.67,22.55-.43-8.13,4.68-26.86,17.94-30.47,4.72-1.29,9.76-.5,14.44,1.21a54.23,54.23,0,0,1,15.29,9.06l0,0h0c.29,2.51.71,5.51,1.25,8.75,0,.29.1.6.16.9.11.61.22,1.23.34,1.85a1.42,1.42,0,0,0,0,.2c.1.56.21,1.12.32,1.68.15.75.3,1.5.47,2.26.12.59.25,1.17.38,1.76C316.73,272.86,317,274.19,317.38,275.52Z" />
        <path d="M407.67,458a.17.17,0,0,1,0,.07h-9.37s0,0,0-.08c-2-20.57-6.29-37-12.05-38.89-12-3.89-6.33,2.62-5.92,38.88V458h-30l0-.07c30.48-49.4,4.79-88.42-9.25-114.49-2.05-14.31,4.29-22.2,10.78-26.46l.09-.07c4.88,4.14,9.93,8.21,14.89,12.37a.3.3,0,0,0-.08.08c-5.19,4.88-9.12,13.27-10.39,21.31-.82,5.15-.54,10.14,1.19,14a40,40,0,0,1,1.13-10.22,40.7,40.7,0,0,1,12.65-21.19l.09-.08c2.74,2.36,5.43,4.76,8,7.21l-.09.08c-4.55,4.07-8.92,11.85-10.93,20.78a46,46,0,0,0-1.15,9.57,39.15,39.15,0,0,0,.7,8.06c1.45,7.43,4.43,12.45,7.68,15.83a22.71,22.71,0,0,0,12.69,6.89s10.14,11.65,17,41A103.56,103.56,0,0,1,407.67,458Z" />
        <path d="M422.43,419.85l0,0c-.64.79-1.93-.78-4.18-6.18-9.65-23.19-17-26.22-34.61-27.38,6.67-5.6,9.84-18.88,9.85-30.17V356a120.58,120.58,0,0,1,6.87,10.45h-.06c-4.91,1.64-3.69,17.12,3.23,15.65a7.15,7.15,0,0,0,3.8-2.07s0,0,0,0c1.08,2.37,2.09,4.77,3.05,7.19h0s3.09,7,6.23,10.47l-.16,0,.21.24a9.78,9.78,0,0,1-2.8-1c.11.31.21.62.31.93.73,2.25,1.42,4.5,2.07,6.77s1.2,4.29,1.76,6.44C419.35,413.56,421.1,416.94,422.43,419.85Z" />
      </g>
      <g class="BUNTAI_BEAR_BODY_BEAR_BODY_46_cls-4">
        <path class="BUNTAI_BEAR_BODY_BEAR_BODY_46_cls-5" d="M151.6,236.27s-1.24,18.24-1.41,22.34l1.41-2.47A107.73,107.73,0,0,0,154,269.31l.73-2.76a114,114,0,0,0,7.65,16.77c4.17,7,8,8,8,8l-8.1-19-2.14-2s-3.8-17.18-3.8-17.14-2.22.32-2.22.32l-.62-5.8-1.29-.67Z" />
        <path class="BUNTAI_BEAR_BODY_BEAR_BODY_46_cls-5" d="M148.7,106.82s9.23.79,13.76,4.81,5.09,5.82,5.09,5.82l-1.93.94-1.3,1.32v2.56l-3.59,1.83s2,1.32,1.73,1.37-6.57,5.76-7.59,7.79.64,1.61.64,1.61.2,5.38.08,5.83-2.42,4.73-2.42,4.73l-.73,1s-9.73-16.65-9.94-22.39,1-13.87,3.47-15.48l2.47-1.6Z" />
        <path class="BUNTAI_BEAR_BODY_BEAR_BODY_46_cls-5" d="M179.06,109.55s19.78-8,35.31-8.22a31,31,0,0,1-3.88-1.35s-.26-.76,13.33,1.61a73.17,73.17,0,0,0,25.24-.17l12.83-1.55-3.29-3s-7,.44-14.62,1.21-11.12,1.69-18.22-.51A34.37,34.37,0,0,0,212.94,96s-4.48,0-4.73-.1-.68,1.54-.68,1.54a138,138,0,0,0-16,2.2c-6.93,1.51-15.36,5.65-15.36,5.65l1.09,2.36Z" />
        <path class="BUNTAI_BEAR_BODY_BEAR_BODY_46_cls-5" d="M296.68,221.49s-2,4.43-3,6.68c-3.69,12.38-13,14.83-13,14.83l1.68-4.33s6-.82,7.77-6.11a36.61,36.61,0,0,0,2-8.33S294.54,224.86,296.68,221.49Z" />
        <path class="BUNTAI_BEAR_BODY_BEAR_BODY_46_cls-5" d="M291.75,215.09A5.22,5.22,0,0,1,288,217c-12.3,2.72-17.32,2.84-38.92.67-.79.37-19.5-.19-24.48-2.53-8.52,4.67-21.52,9.14-30.72,7.2a37.49,37.49,0,0,0-16.21,0s38.1,22.09,57.79,25.24,35,3.26,40.62-.31,6-7.95,6-7.95,2.7-.58,6.06-5S292,221.49,292,221.49Z" />
        <path class="BUNTAI_BEAR_BODY_BEAR_BODY_46_cls-5" d="M242.14,112.47s6.58,8.11,8.61,14.19,4.39,16.2,4.39,16.2.67-12.66.67-15.19a11.62,11.62,0,0,1,1.73-5.24l-2.74,1s-2.49-4.56-5-8.27-7.7-5.63-7.7-5.63l-3-1Z" />
        <path class="BUNTAI_BEAR_BODY_BEAR_BODY_46_cls-5" d="M178.75,108.72v.83a24.52,24.52,0,0,0-3.67,2.71,57.45,57.45,0,0,0-12-8.9l1,1.18s-8.48-2.91-13.33-2.87-8.59.77-11,4c2.46-7,3.18-8.63,7.53-9.31s5.36-.4,5.36-.4l1-1.37a77,77,0,0,1,14,5.69A41.75,41.75,0,0,1,178.75,108.72Z" />
        <path class="BUNTAI_BEAR_BODY_BEAR_BODY_46_cls-5" d="M317.45,110.28s-7.66-2.09-14.62,1.22l-7,3.3,7.44,3.81-3.37,2.76s3.39,8,4.62,9.11a12,12,0,0,0,2.81,1.84l-1.69,3.06,5.8,8.89s.22-9,1.63-13S319.83,117.93,317.45,110.28Z" />
        <path class="BUNTAI_BEAR_BODY_BEAR_BODY_46_cls-5" d="M270.11,318.32l-1.75-1.41-1.61,3.6c-1.62,3.61-12.29,18.74-12.29,18.74s-2.47,3.83-7.54,11.48c13.28-6.64,22.4-28.25,22.4-28.25l2.36-.11c6-12.38,8.46-27.48,8.46-27.48s-2.15,5.76-4.29,11.57A84.06,84.06,0,0,1,270.11,318.32Z" />
        <path class="BUNTAI_BEAR_BODY_BEAR_BODY_46_cls-5" d="M257.44,249.84c-1.78.06-24.36.76-36.13-2.31-12.25-3.21-30-6.25-30-6.25H203S171.24,231,159.25,220c-8.95-8.2-12.82-28.08-14.2-37.61a.63.63,0,0,1-.15,0s-1.68,18.23-3.54,26.93c-1.65,7.7-3.1,33.35-6.11,45.67a28.49,28.49,0,0,1-1.25,4l-.33-2.7s-6.68,22.05-10.26,28.06q-1.41,2.38-2.72,4.39a64.72,64.72,0,0,1-5.82,7.74l-2.26,3.38c-3.29,4.94-9.81,14.77-17.07,26l-3.17,4.93c-2,3.09-4,6.25-6,9.4-5.75,9.14-11.32,18.26-15.55,25.75q-1.42,2.51-2.62,4.74c-1.19,2.22-2.32,4.28-3.41,6.2q-1.14,2-2.21,3.87h0c-3.45,5.92-6.27,10.23-8.45,13.31a49.61,49.61,0,0,1-5.47,6.84L56.82,396S49,420.91,47.5,428.37,41,444.21,41,444.21l4.42-4.42-1,18.22H3.92l2.46-19.25.2-1.59a.5.5,0,0,1,0-.12l2.76-16.17,0-.22h0l-1.26.6-2,1L4.64,423h0c.16-.26,2.6-4.48,6.79-11.89h0l1.27-2.26.13-.21h0c.41-1.34.78-2.56,1.12-3.66l.06-.2c.09-.3.18-.59.26-.87.63-2.06,1.13-3.67,1.51-4.94l.19-.61.17-.55c.7-2.28.94-3.07,1-3.35a.88.88,0,0,1,.05-.15l-1.94-.11-.86-.05-2.73-.15h-.24l-.64,0a39.51,39.51,0,0,0,3.67-3.36c.42-.44.88-.92,1.35-1.44A55.94,55.94,0,0,0,23,379.2q.34-.61.69-1.26a.16.16,0,0,1,0-.07q1.62-3.54,3.7-7.15l.23-.41c.69-1.18,1.42-2.37,2.18-3.57s1.38-2.14,2.11-3.21a158.78,158.78,0,0,1,17.76-21.39c3.8-3.87,7.86-7.68,12.11-11.38a.69.69,0,0,0,.13-.11l1.68-1.43,5-4.26,5.07-4.29c.52-.45,1-.88,1.57-1.32l2.11-1.78,1.2-1,11.84-10,.21-.18c1.41-1.17,2.7-2.26,3.85-3.23l1.54-1.3s0,0,.08-.06l1.19-1-.15-.07-.15-.06c.27-.14.54-.28.8-.44l.51-.28,1.07-.9,1.11-.93L101,298l.79-.27.6-.21,1.33-.9c.59-.4,1.17-.81,1.74-1.22a99.38,99.38,0,0,0,13.23-11.58l0-.06.32-.35,0,0-1.9-1.27a118.25,118.25,0,0,0,5.1-10.76,76,76,0,0,0,2.92-8.26l.18-.63c1.68-5.94,2.32-8.32,2.55-9.23a1.48,1.48,0,0,0,.07-.26c.06-.21.07-.27.07-.27l-1.67,1-.06,0h0L128.64,242l.58-2.88,1.42-7s.45-1.44,1.09-3.79c.18-.64.37-1.34.58-2.1a154.41,154.41,0,0,0,3.33-15.69c.4-2.6.75-5.26,1.07-7.79,0-.39.09-.76.14-1.14.45-3.78.81-7.21,1.05-9.64.16-1.65.29-2.93.35-3.68l-.56.14-.34.09-.91.23-.1,0h0a115.11,115.11,0,0,1,3.8-20,140,140,0,0,1,6-17.64l-.72-4.63s.38,1.42.86,3.41c0,.07,0,.14,0,.21s0,0,0,0a91.25,91.25,0,0,1,1.78,9.07c1.52,8,.83,6.42.83,6.42s-.18,1.25-.34,2.1a125.39,125.39,0,0,0,2.6,18.68l.4.54s5.46,17,18.37,29.18l.18.18c.27.26.54.5.81.75s.52.48.78.7.34.3.52.45h0a45.49,45.49,0,0,0,5.74,4c3.18,1.92,6.86,3.78,11,5.79l.09,0c2.54,1.23,5.25,2.51,8.13,3.88,8.86,4.24,19.09,8.42,28.27,11.7l.45.17c2.73,1,5.36,1.86,7.83,2.65a68.88,68.88,0,0,0,10,2.28,0,0,0,0,1,0,0,99.94,99.94,0,0,0,11.41,1.08C256,249.81,256.7,249.84,257.44,249.84Z" />
      </g>
      <path class="BUNTAI_BEAR_BODY_BEAR_BODY_46_cls-6" d="M288.12,215.12a11.48,11.48,0,0,1-1.29,5.19c-1.6,3.46-4.19,6.76-4.85,7-1,.39-18.34,1.24-23.07-.22a15.53,15.53,0,0,1-9.13-7.83,11.47,11.47,0,0,1-1.34-4.16,14.35,14.35,0,0,1,.66-2.66c1.78-5.24,6.21-10.62,6.21-10.62,2.47-2.26,10.69-2.87,14.74-2.87s8.05.45,11.54,2.2c3,1.48,5.61,10.55,6.33,13.21C288.05,214.85,288.12,215.12,288.12,215.12Z" />
      <path class="BUNTAI_BEAR_BODY_BEAR_BODY_46_cls-7" d="M282.33,106.76c-1.53-.85-3.16-1.69-4.78-2.42-6.17-2.8-19.46-5.45-19.46-5.45l2.45-1.9s-7.76-.88-13.76.51A65.76,65.76,0,0,1,234,98.89s-9.24-.48-13.07-1.77S207,95.83,207,95.83l1.18,1.68s-11.48,1.18-16.65,2.14c-3.9.72-11.77,4.45-15.36,6.3" />
      <path class="BUNTAI_BEAR_BODY_BEAR_BODY_46_cls-7" d="M290,111.51s-3.42-2.38-7.7-4.75" />
      <path class="BUNTAI_BEAR_BODY_BEAR_BODY_46_cls-7" d="M311.06,145.2c3.41-2.7,6.61-7.83,9.92-12.58,3.88-5.56,5.8-17.1,5.8-17.1L325,117.94a18.42,18.42,0,0,0-5.24-15.76c-7-7-17.33-2.47-23.29,0a128.91,128.91,0,0,1-14.16,4.58h0" />
      <path class="BUNTAI_BEAR_BODY_BEAR_BODY_46_cls-7" d="M327.22,296.74c-3.77-2.74-6.86-10.3-9.19-18.74-.22-.82-.44-1.64-.65-2.47h0c-.34-1.33-.65-2.66-.95-4-.14-.59-.26-1.17-.38-1.76-.17-.76-.32-1.51-.47-2.26-.11-.56-.22-1.12-.32-1.68a1.42,1.42,0,0,1,0-.2c-.12-.62-.23-1.24-.34-1.85-.06-.3-.11-.61-.16-.9-.56-3.24-1-6.25-1.28-8.78s-.45-4.39-.49-5.73c0-.87-.08-1.87-.17-3-.06-.84-.13-1.74-.22-2.68-.9-9.73-3-23.88-3-23.88l2.12-.18c-.09-.31-.18-.63-.25-1-2.65-10.63,1.05-27.6,2.78-42.67.21-6.42-1.47-16.26-2-19.32,0-.17-.06-.31-.08-.44s0,0,0,0c-.07-.32-.1-.49-.1-.49l2.93.17h0c-1.16-3.37-2.52-6.65-3.84-9.56l-.08-.18c-2.91-6.35-5.61-10.95-5.61-10.95l2.36-1.51s-.39-.4-2.42-2.14-5.18-9.57-5.18-9.57l4.06-2-8.73-4.12a89.3,89.3,0,0,1,14.29-4.89,14.25,14.25,0,0,1,7.17-.17h0a7.39,7.39,0,0,1,4,2.37" />
      <path class="BUNTAI_BEAR_BODY_BEAR_BODY_46_cls-7" d="M103,296.75a50.79,50.79,0,0,0,16.43-13.85c-.08-.52-2-.85-2-.85s2.62-4.72,4.64-8.43,5.94-20.24,6.08-20.76" />
      <path class="BUNTAI_BEAR_BODY_BEAR_BODY_46_cls-7" d="M128.17,252.85h0L125.64,254c.76-2.87,6.12-25.41,8.65-37.22s4-29.32,4-29.32l-2.25,2.25c2.13-7.82,3.09-21.55,10.29-38.1.12-3.82-2.13-11-6.59-18.39s-3-19.08-3-19.08l2.19,1.06s-.39-9.39,2.59-14.84,11.76-3.67,11.76-3.67l-.9-1.57s3.88-.4,13.84,4.39a39.51,39.51,0,0,1,9.86,6.41,15,15,0,0,1,2.81,3.21" />
      <path class="BUNTAI_BEAR_BODY_BEAR_BODY_46_cls-7" d="M148.44,107a21.06,21.06,0,0,0-3.77,13.42c.74,9.4,5.18,19.48,7.94,26.05,0,0,2.93-5.16,3.15-7.42a9.24,9.24,0,0,1,1.69-4.17l-3.44-.34s5.64-8.66,9-10.24L159,124l6.63-2.42-2.36-2.47,4.84-1.41a35.49,35.49,0,0,0-7.14-6.93C157.84,108.49,152.69,106.19,148.44,107Z" />
      <path class="BUNTAI_BEAR_BODY_BEAR_BODY_46_cls-7" d="M144.39,109.16a7.29,7.29,0,0,1,4.05-2.17" />
      <path class="BUNTAI_BEAR_BODY_BEAR_BODY_46_cls-7" d="M317,109.89a23.84,23.84,0,0,1-.36,10.75c-1.57,5.51-4.95,14.35-4.95,14.35" />
      <path class="BUNTAI_BEAR_BODY_BEAR_BODY_46_cls-7" d="M277.33,160.62a54.65,54.65,0,0,0,6.58,22.53c.43.8,3.55,3.9,4,4.75.34.68-2-.92-1.66-.2a54.51,54.51,0,0,1,4.19,13.92s2.2,16.13,1.39,24.49a15.12,15.12,0,0,1-.54,3c-2,6.5-6.59,9.37-9.12,9.37-1.66,0-6.37-1.44-12.17-1.87a36,36,0,0,0-9.78.52c-9.79,2-11.34,2.87-19.72,1.35S225.9,230,225,220.35" />
      <path class="BUNTAI_BEAR_BODY_BEAR_BODY_46_cls-7" d="M307,196.47s-.26,11-5.83,19.16-9.33,10.48-9.33,10.48" />
      <path class="BUNTAI_BEAR_BODY_BEAR_BODY_46_cls-7" d="M282.15,238.5s-.09,7.85-9.71,10-26.84,2.11-39.5-2.11c0,0-16.46-5.91-25.24-9.79s-13.84-6.58-24.65-11.14c0,0-22.79-11-22.62-28.95" />
      <path class="BUNTAI_BEAR_BODY_BEAR_BODY_46_cls-7" d="M151.6,234.37s.56,12.15.67,13.84l.9-1.24a74.67,74.67,0,0,0,1.92,7.88l1.12-2.48s3.15,16.77,4.95,21.27l.57-3s5,16,9.22,20.7" />
      <path class="BUNTAI_BEAR_BODY_BEAR_BODY_46_cls-7" d="M299.39,232.56s.58,11.26,0,12.84l-1-1.81s-1.92,13.17-2.48,15.76L294.75,257s-4.05,13.62-6.19,16.65" />
      <path class="BUNTAI_BEAR_BODY_BEAR_BODY_46_cls-7" d="M148.61,308.81s5.58,11.15,8.78,15.54" />
      <path class="BUNTAI_BEAR_BODY_BEAR_BODY_46_cls-7" d="M249.78,219.28a15.53,15.53,0,0,0,9.13,7.83c4.73,1.46,22.06.61,23.07.22.66-.26,3.25-3.56,4.85-7a11.48,11.48,0,0,0,1.29-5.19s-.07-.27-.2-.74c-.72-2.66-3.37-11.73-6.33-13.21-3.49-1.75-7.49-2.2-11.54-2.2s-12.27.61-14.74,2.87c0,0-4.43,5.38-6.21,10.62a14.35,14.35,0,0,0-.66,2.66A11.47,11.47,0,0,0,249.78,219.28Z" />
      <path class="BUNTAI_BEAR_BODY_BEAR_BODY_46_cls-7" d="M271.12,227.93s.54,2.76-1.14,8.7h0" />
      <path class="BUNTAI_BEAR_BODY_BEAR_BODY_46_cls-7" d="M280.72,293.11s-7.37,23-10.74,26.34l-.66-3.55s-6.92,16-16.55,24.15" />
      <path class="BUNTAI_BEAR_BODY_BEAR_BODY_46_cls-7" d="M190.82,159.24s6,8.95,10.15,9.79l-3.06,1.35s6.08,2.37,9.79,3.55l-2.87.67S215,178,219,178" />
      <path class="BUNTAI_BEAR_BODY_BEAR_BODY_46_cls-7" d="M302.58,159.24s-1.79,8.95-3.05,9.79l.91,1.35s-1.82,2.37-2.94,3.55l.86.67s-3,3.38-4.26,3.38" />
      <path class="BUNTAI_BEAR_BODY_BEAR_BODY_46_cls-7" d="M12.83,408.58c1-3.61,2-7.2,3.18-10.77.49-1.49,1-3,1.51-4.47" />
      <path class="BUNTAI_BEAR_BODY_BEAR_BODY_46_cls-7" d="M24.07,377.4a119.81,119.81,0,0,1,22.24-32.71c10.42-10.66,22.8-19.9,34.07-29.64C93.92,303.34,98,299.63,103,296.75" />
      <path class="BUNTAI_BEAR_BODY_BEAR_BODY_46_cls-7" d="M418,411c-.56-2.15-1.14-4.3-1.76-6.44s-1.34-4.52-2.07-6.77c-.1-.31-.2-.62-.31-.93,0-.07-.05-.14-.07-.21" />
      <path class="BUNTAI_BEAR_BODY_BEAR_BODY_46_cls-7" d="M420.25,420.41c2.78,12.45,4.83,25.08,6.87,37.67-.07-.09-30.33-.13-74.66-.14h-.28c-75.24,0-190.81,0-268.13.08H83.8l-80.74.06c2-12.54,4.07-25.11,6.83-37.5" />
      <path class="BUNTAI_BEAR_BODY_BEAR_BODY_46_cls-7" d="M327.22,296.74c5,2.88,9,6.59,22.58,18.3.72.63,1.45,1.25,2.18,1.87,4.88,4.14,9.93,8.21,14.89,12.37q2.31,1.94,4.59,3.88c2.74,2.36,5.43,4.76,8,7.21,1.49,1.42,2.95,2.85,4.38,4.31A105.59,105.59,0,0,1,393.46,356a120.58,120.58,0,0,1,6.87,10.45,136.81,136.81,0,0,1,7,13.57c1.08,2.37,2.09,4.77,3.05,7.19" />
      <path class="BUNTAI_BEAR_BODY_BEAR_BODY_46_cls-7" d="M17.53,393.34h0a23.88,23.88,0,0,1-6.72,1.14c3.55-2.76,13-16.63,13.25-17.06h0" />
      <path class="BUNTAI_BEAR_BODY_BEAR_BODY_46_cls-7" d="M12.83,408.58h0c-.27.41-7.88,12.27-8.91,14.9,3.5-2.68,6-2.91,6-2.91" />
      <path class="BUNTAI_BEAR_BODY_BEAR_BODY_46_cls-7" d="M413.79,396.66a9.38,9.38,0,0,0,2.66,1l.16,0c-3.14-3.5-6.23-10.47-6.23-10.47h0" />
      <path class="BUNTAI_BEAR_BODY_BEAR_BODY_46_cls-7" d="M420.25,420.4l4.05,4.3s0-.05,0-.08a31.57,31.57,0,0,0-1.85-4.77c-1.33-2.91-3.08-6.29-4.43-8.84" />
      <path class="BUNTAI_BEAR_BODY_BEAR_BODY_46_cls-7" d="M99.64,344.35S42.32,420.72,96.85,467c26.56,22.26,83.29,5.67,83.29,5.67" />
      <path class="BUNTAI_BEAR_BODY_BEAR_BODY_46_cls-7" d="M85,350.73s-3,15.7-2.81,25.29" />
      <path class="BUNTAI_BEAR_BODY_BEAR_BODY_46_cls-7" d="M352.12,344.35s57.33,76.37,2.8,122.63c-26.56,22.26-83.29,5.67-83.29,5.67" />
      <path class="BUNTAI_BEAR_BODY_BEAR_BODY_46_cls-7" d="M366.77,350.73s3,15.7,2.8,25.29" />
      <path class="BUNTAI_BEAR_BODY_BEAR_BODY_46_cls-8" d="M277.56,159.51S276.1,147.89,293.44,149C293.58,159.85,289.26,164.46,277.56,159.51Z" />
      <path class="BUNTAI_BEAR_BODY_BEAR_BODY_46_cls-7" d="M277.33,159.57S275.88,148,293.22,149C293.36,159.91,289,164.51,277.33,159.57Z" />
      <path class="BUNTAI_BEAR_BODY_BEAR_BODY_46_cls-9" d="M283.74,150.83a5.07,5.07,0,1,0,6.2,3.61A5.07,5.07,0,0,0,283.74,150.83Z" />
      <circle cx="285.04" cy="155.74" r="2.45" />
      <circle class="BUNTAI_BEAR_BODY_BEAR_BODY_46_cls-8" cx="286.31" cy="153.15" r="1.12" />
      <circle class="BUNTAI_BEAR_BODY_BEAR_BODY_46_cls-10" cx="285.04" cy="155.74" r="5.08" />
      <path class="BUNTAI_BEAR_BODY_BEAR_BODY_46_cls-8" d="M231,159.51s.5-11.62-16.84-10.56C214,159.85,219.28,164.46,231,159.51Z" />
      <path class="BUNTAI_BEAR_BODY_BEAR_BODY_46_cls-7" d="M231.2,159.57S231.7,148,214.36,149C214.21,159.91,219.5,164.51,231.2,159.57Z" />
      <path class="BUNTAI_BEAR_BODY_BEAR_BODY_46_cls-9" d="M222.61,150.83a5.07,5.07,0,1,1-6.21,3.61A5.07,5.07,0,0,1,222.61,150.83Z" />
      <circle cx="221.31" cy="155.74" r="2.45" />
      <circle class="BUNTAI_BEAR_BODY_BEAR_BODY_46_cls-8" cx="220.04" cy="153.15" r="1.12" />
      <circle class="BUNTAI_BEAR_BODY_BEAR_BODY_46_cls-10" cx="221.31" cy="155.74" r="5.08" />
      <path d="M265.43,208.83c-3.37,0-6,4.51-9.16,4.51-1.84,0-4.92-1.05-7.17-1.93a14.45,14.45,0,0,0-.66,2.65,11.5,11.5,0,0,0,1.34,4.17,29.91,29.91,0,0,0,8.12,1C264.71,219.08,268.82,208.83,265.43,208.83Z" />
      <path d="M288.12,214.06s-.07-.27-.2-.73c-3-.22-5.64-4.5-8.92-4.5s.72,10.25,7.53,10.41h.3A11.45,11.45,0,0,0,288.12,214.06Z" />
      <g class="BUNTAI_BEAR_BODY_BEAR_BODY_46_cls-4">
        <path class="BUNTAI_BEAR_BODY_BEAR_BODY_46_cls-5" d="M151.6,236.27s-1.24,18.24-1.41,22.34l1.41-2.47A107.73,107.73,0,0,0,154,269.31l.73-2.76a114,114,0,0,0,7.65,16.77c4.17,7,8,8,8,8l-8.1-19-2.14-2s-3.8-17.18-3.8-17.14-2.22.32-2.22.32l-.62-5.8-1.29-.67Z" />
        <path class="BUNTAI_BEAR_BODY_BEAR_BODY_46_cls-5" d="M148.7,106.82s9.23.79,13.76,4.81,5.09,5.82,5.09,5.82l-1.93.94-1.3,1.32v2.56l-3.59,1.83s2,1.32,1.73,1.37-6.57,5.76-7.59,7.79.64,1.61.64,1.61.2,5.38.08,5.83-2.42,4.73-2.42,4.73l-.73,1s-9.73-16.65-9.94-22.39,1-13.87,3.47-15.48l2.47-1.6Z" />
        <path class="BUNTAI_BEAR_BODY_BEAR_BODY_46_cls-5" d="M179.06,109.55s19.78-8,35.31-8.22a31,31,0,0,1-3.88-1.35s-.26-.76,13.33,1.61a73.17,73.17,0,0,0,25.24-.17l12.83-1.55-3.29-3s-7,.44-14.62,1.21-11.12,1.69-18.22-.51A34.37,34.37,0,0,0,212.94,96s-4.48,0-4.73-.1-.68,1.54-.68,1.54a138,138,0,0,0-16,2.2c-6.93,1.51-15.36,5.65-15.36,5.65l1.09,2.36Z" />
        <path class="BUNTAI_BEAR_BODY_BEAR_BODY_46_cls-5" d="M296.68,221.49s-2,4.43-3,6.68c-3.69,12.38-13,14.83-13,14.83l1.68-4.33s6-.82,7.77-6.11a36.61,36.61,0,0,0,2-8.33S294.54,224.86,296.68,221.49Z" />
        <path class="BUNTAI_BEAR_BODY_BEAR_BODY_46_cls-5" d="M291.75,215.09A5.22,5.22,0,0,1,288,217c-12.3,2.72-17.32,2.84-38.92.67-.79.37-19.5-.19-24.48-2.53-8.52,4.67-21.52,9.14-30.72,7.2a37.49,37.49,0,0,0-16.21,0s38.1,22.09,57.79,25.24,35,3.26,40.62-.31,6-7.95,6-7.95,2.7-.58,6.06-5S292,221.49,292,221.49Z" />
        <path class="BUNTAI_BEAR_BODY_BEAR_BODY_46_cls-5" d="M242.14,112.47s6.58,8.11,8.61,14.19,4.39,16.2,4.39,16.2.67-12.66.67-15.19a11.62,11.62,0,0,1,1.73-5.24l-2.74,1s-2.49-4.56-5-8.27-7.7-5.63-7.7-5.63l-3-1Z" />
        <path class="BUNTAI_BEAR_BODY_BEAR_BODY_46_cls-5" d="M178.75,108.72v.83a24.52,24.52,0,0,0-3.67,2.71,57.45,57.45,0,0,0-12-8.9l1,1.18s-8.48-2.91-13.33-2.87-8.59.77-11,4c2.46-7,3.18-8.63,7.53-9.31s5.36-.4,5.36-.4l1-1.37a77,77,0,0,1,14,5.69A41.75,41.75,0,0,1,178.75,108.72Z" />
        <path class="BUNTAI_BEAR_BODY_BEAR_BODY_46_cls-5" d="M317.45,110.28s-7.66-2.09-14.62,1.22l-7,3.3,7.44,3.81-3.37,2.76s3.39,8,4.62,9.11a12,12,0,0,0,2.81,1.84l-1.69,3.06,5.8,8.89s.22-9,1.63-13S319.83,117.93,317.45,110.28Z" />
        <path class="BUNTAI_BEAR_BODY_BEAR_BODY_46_cls-5" d="M270.11,318.32l-1.75-1.41-1.61,3.6c-1.62,3.61-12.29,18.74-12.29,18.74s-2.47,3.83-7.54,11.48c13.28-6.64,22.4-28.25,22.4-28.25l2.36-.11c6-12.38,8.46-27.48,8.46-27.48s-2.15,5.76-4.29,11.57A84.06,84.06,0,0,1,270.11,318.32Z" />
        <path class="BUNTAI_BEAR_BODY_BEAR_BODY_46_cls-5" d="M257.54,249.84s-12.87.06-23.76-3.41a309.28,309.28,0,0,1-36.55-14.52c-11.64-5.57-20.59-9.54-26.27-14.88-13.62-12.27-19.36-30.11-19.36-30.11l-.4-.54a124.52,124.52,0,0,1-2.61-18.68c.16-.84.34-2.1.34-2.1s.7,1.63-.82-6.42a120.15,120.15,0,0,0-2.7-12.72l.72,4.63a137.83,137.83,0,0,0-6,17.65,115.1,115.1,0,0,0-3.8,20l1.92-.48s-1,11.61-2.61,22.24a168.15,168.15,0,0,1-5,21.59l-4.35,21.67,1.73-1s-.26,1.14-2.87,10.38a106.58,106.58,0,0,1-8,19l1.92,1.3a96,96,0,0,1-16.67,14.1l-1.86.64L98.32,300c-.43.24-.86.48-1.3.71l.29.14c-6.14,5.16-20.17,17-33.68,28.42-18,15.24-32.56,32.62-39.94,48.71A53.25,53.25,0,0,1,10.8,393.89l6.41.35-4.38,14.34C7.64,417.79,4.63,423,4.63,423l4.77-2.29-2.82,16.5L3.92,458H44.35l1-18.23L41,444.22s5-8.39,6.53-15.85S56.82,396,56.82,396l-8.16,5s6.64-6.14,19.58-30.26,46.62-74.21,46.62-74.21a76.68,76.68,0,0,0,8.55-12.12c3.57-6,10.25-28.06,10.25-28.06L134,259c3.88-9.46,5.5-41,7.36-49.72s3.54-26.92,3.54-26.92l.15,0c1.38,9.53,5.24,29.41,14.2,37.61,12,11,43.72,21.27,43.72,21.27H191.33s17.72,3,30,6.25S257.54,249.84,257.54,249.84Z" />
      </g>
      <path class="BUNTAI_BEAR_BODY_BEAR_BODY_46_cls-6" d="M288.12,215.12a11.48,11.48,0,0,1-1.29,5.19c-1.6,3.46-4.19,6.76-4.85,7-1,.39-18.34,1.24-23.07-.22a15.53,15.53,0,0,1-9.13-7.83,11.47,11.47,0,0,1-1.34-4.16,14.35,14.35,0,0,1,.66-2.66c1.78-5.24,6.21-10.62,6.21-10.62,2.47-2.26,10.69-2.87,14.74-2.87s8.05.45,11.54,2.2c3,1.48,5.61,10.55,6.33,13.21C288.05,214.85,288.12,215.12,288.12,215.12Z" />
      <path class="BUNTAI_BEAR_BODY_BEAR_BODY_46_cls-7" d="M282.33,106.76c-1.53-.85-3.16-1.69-4.78-2.42-6.17-2.8-19.46-5.45-19.46-5.45l2.45-1.9s-7.76-.88-13.76.51A65.76,65.76,0,0,1,234,98.89s-9.24-.48-13.07-1.77S207,95.83,207,95.83l1.18,1.68s-11.48,1.18-16.65,2.14c-3.9.72-11.77,4.45-15.36,6.3" />
      <path class="BUNTAI_BEAR_BODY_BEAR_BODY_46_cls-7" d="M290,111.51s-3.42-2.38-7.7-4.75" />
      <path class="BUNTAI_BEAR_BODY_BEAR_BODY_46_cls-7" d="M311.06,145.2c3.41-2.7,6.61-7.83,9.92-12.58,3.88-5.56,5.8-17.1,5.8-17.1L325,117.94a18.42,18.42,0,0,0-5.24-15.76c-7-7-17.33-2.47-23.29,0a128.91,128.91,0,0,1-14.16,4.58h0" />
      <path class="BUNTAI_BEAR_BODY_BEAR_BODY_46_cls-7" d="M321,112.26a7.39,7.39,0,0,0-4-2.37h0a14.25,14.25,0,0,0-7.17.17A89.3,89.3,0,0,0,295.54,115l8.73,4.12-4.06,2s3.15,7.82,5.18,9.57,2.42,2.14,2.42,2.14l-2.36,1.51s2.7,4.6,5.61,10.95c1.34,3,2.74,6.3,3.92,9.74l-3-.17s2.45,12.58,2.2,20.26c-1.78,15.53-5.66,33.08-2.53,43.63l-2.12.18S312.69,240,313,248.38s5.32,41.86,14.27,48.37" />
      <path class="BUNTAI_BEAR_BODY_BEAR_BODY_46_cls-7" d="M103,296.75a50.79,50.79,0,0,0,16.43-13.85c-.08-.52-2-.85-2-.85s2.62-4.72,4.64-8.43,5.94-20.24,6.08-20.76" />
      <path class="BUNTAI_BEAR_BODY_BEAR_BODY_46_cls-7" d="M128.17,252.85h0L125.64,254c.76-2.87,6.12-25.41,8.65-37.22s4-29.32,4-29.32l-2.25,2.25c2.13-7.82,3.09-21.55,10.29-38.1.12-3.82-2.13-11-6.59-18.39s-3-19.08-3-19.08l2.19,1.06s-.39-9.39,2.59-14.84,11.76-3.67,11.76-3.67l-.9-1.57s3.88-.4,13.84,4.39a39.51,39.51,0,0,1,9.86,6.41,15,15,0,0,1,2.81,3.21" />
      <path class="BUNTAI_BEAR_BODY_BEAR_BODY_46_cls-7" d="M148.44,107a21.06,21.06,0,0,0-3.77,13.42c.74,9.4,5.18,19.48,7.94,26.05,0,0,2.93-5.16,3.15-7.42a9.24,9.24,0,0,1,1.69-4.17l-3.44-.34s5.64-8.66,9-10.24L159,124l6.63-2.42-2.36-2.47,4.84-1.41a35.49,35.49,0,0,0-7.14-6.93C157.84,108.49,152.69,106.19,148.44,107Z" />
      <path class="BUNTAI_BEAR_BODY_BEAR_BODY_46_cls-7" d="M144.39,109.16a7.29,7.29,0,0,1,4.05-2.17" />
      <path class="BUNTAI_BEAR_BODY_BEAR_BODY_46_cls-7" d="M317,109.89a23.84,23.84,0,0,1-.36,10.75c-1.57,5.51-4.95,14.35-4.95,14.35" />
      <path class="BUNTAI_BEAR_BODY_BEAR_BODY_46_cls-7" d="M277.33,160.62a54.65,54.65,0,0,0,6.58,22.53c.43.8,3.55,3.9,4,4.75.34.68-2-.92-1.66-.2a54.51,54.51,0,0,1,4.19,13.92s2.2,16.13,1.39,24.49a15.12,15.12,0,0,1-.54,3c-2,6.5-6.59,9.37-9.12,9.37-1.66,0-6.37-1.44-12.17-1.87a36,36,0,0,0-9.78.52c-9.79,2-11.34,2.87-19.72,1.35S225.9,230,225,220.35" />
      <path class="BUNTAI_BEAR_BODY_BEAR_BODY_46_cls-7" d="M307,196.47s-.26,11-5.83,19.16-9.33,10.48-9.33,10.48" />
      <path class="BUNTAI_BEAR_BODY_BEAR_BODY_46_cls-7" d="M282.15,238.5s-.09,7.85-9.71,10-26.84,2.11-39.5-2.11c0,0-16.46-5.91-25.24-9.79s-13.84-6.58-24.65-11.14c0,0-22.79-11-22.62-28.95" />
      <path class="BUNTAI_BEAR_BODY_BEAR_BODY_46_cls-7" d="M151.6,234.37s.56,12.15.67,13.84l.9-1.24a74.67,74.67,0,0,0,1.92,7.88l1.12-2.48s3.15,16.77,4.95,21.27l.57-3s5,16,9.22,20.7" />
      <path class="BUNTAI_BEAR_BODY_BEAR_BODY_46_cls-7" d="M299.39,232.56s.58,11.26,0,12.84l-1-1.81s-1.92,13.17-2.48,15.76L294.75,257s-4.05,13.62-6.19,16.65" />
      <path class="BUNTAI_BEAR_BODY_BEAR_BODY_46_cls-7" d="M148.61,308.81s5.58,11.15,8.78,15.54" />
      <path class="BUNTAI_BEAR_BODY_BEAR_BODY_46_cls-7" d="M249.78,219.28a15.53,15.53,0,0,0,9.13,7.83c4.73,1.46,22.06.61,23.07.22.66-.26,3.25-3.56,4.85-7a11.48,11.48,0,0,0,1.29-5.19s-.07-.27-.2-.74c-.72-2.66-3.37-11.73-6.33-13.21-3.49-1.75-7.49-2.2-11.54-2.2s-12.27.61-14.74,2.87c0,0-4.43,5.38-6.21,10.62a14.35,14.35,0,0,0-.66,2.66A11.47,11.47,0,0,0,249.78,219.28Z" />
      <path class="BUNTAI_BEAR_BODY_BEAR_BODY_46_cls-7" d="M271.12,227.93s.54,2.76-1.14,8.7h0" />
      <path class="BUNTAI_BEAR_BODY_BEAR_BODY_46_cls-7" d="M280.72,293.11s-7.37,23-10.74,26.34l-.66-3.55s-6.92,16-16.55,24.15" />
      <path class="BUNTAI_BEAR_BODY_BEAR_BODY_46_cls-7" d="M190.82,159.24s6,8.95,10.15,9.79l-3.06,1.35s6.08,2.37,9.79,3.55l-2.87.67S215,178,219,178" />
      <path class="BUNTAI_BEAR_BODY_BEAR_BODY_46_cls-7" d="M302.58,159.24s-1.79,8.95-3.05,9.79l.91,1.35s-1.82,2.37-2.94,3.55l.86.67s-3,3.38-4.26,3.38" />
      <path class="BUNTAI_BEAR_BODY_BEAR_BODY_46_cls-7" d="M12.83,408.58c1-3.61,2-7.2,3.18-10.77.49-1.49,1-3,1.51-4.47" />
      <path class="BUNTAI_BEAR_BODY_BEAR_BODY_46_cls-7" d="M24.07,377.4a119.81,119.81,0,0,1,22.24-32.71c10.42-10.66,22.8-19.9,34.07-29.64C93.92,303.34,98,299.63,103,296.75" />
      <path class="BUNTAI_BEAR_BODY_BEAR_BODY_46_cls-7" d="M413.79,396.67c.13.38.26.76.38,1.14,1.42,4.36,2.68,8.77,3.83,13.21" />
      <path class="BUNTAI_BEAR_BODY_BEAR_BODY_46_cls-7" d="M420.25,420.41c2.78,12.45,4.83,25.08,6.87,37.67-.07-.09-30.33-.13-74.66-.14h-.28c-75.24,0-190.81,0-268.13.08H83.8l-80.74.06c2-12.54,4.07-25.11,6.83-37.5" />
      <path class="BUNTAI_BEAR_BODY_BEAR_BODY_46_cls-7" d="M327.22,296.75c5,2.88,9,6.59,22.58,18.3,11.27,9.74,23.65,19,34.07,29.64,11.76,12,20.31,26.84,26.5,42.54" />
      <path class="BUNTAI_BEAR_BODY_BEAR_BODY_46_cls-7" d="M17.53,393.34h0a23.88,23.88,0,0,1-6.72,1.14c3.55-2.76,13-16.63,13.25-17.06h0" />
      <path class="BUNTAI_BEAR_BODY_BEAR_BODY_46_cls-7" d="M12.83,408.58h0c-.27.41-7.88,12.27-8.91,14.9,3.5-2.68,6-2.91,6-2.91" />
      <path class="BUNTAI_BEAR_BODY_BEAR_BODY_46_cls-7" d="M410.37,387.23h0s3.09,7,6.23,10.47a9.59,9.59,0,0,1-2.82-1" />
      <path class="BUNTAI_BEAR_BODY_BEAR_BODY_46_cls-7" d="M418,411c2.26,4.26,5.62,10.85,6.3,13.69l-4.05-4.3" />
      <path class="BUNTAI_BEAR_BODY_BEAR_BODY_46_cls-7" d="M99.64,344.35S42.32,420.72,96.85,467c26.56,22.26,83.29,5.67,83.29,5.67" />
      <path class="BUNTAI_BEAR_BODY_BEAR_BODY_46_cls-7" d="M85,350.73s-3,15.7-2.81,25.29" />
      <path class="BUNTAI_BEAR_BODY_BEAR_BODY_46_cls-7" d="M352.12,344.35s57.33,76.37,2.8,122.63c-26.56,22.26-83.29,5.67-83.29,5.67" />
      <path class="BUNTAI_BEAR_BODY_BEAR_BODY_46_cls-7" d="M366.77,350.73s3,15.7,2.8,25.29" />
      <path class="BUNTAI_BEAR_BODY_BEAR_BODY_46_cls-8" d="M277.56,159.51S276.1,147.89,293.44,149C293.58,159.85,289.26,164.46,277.56,159.51Z" />
      <path class="BUNTAI_BEAR_BODY_BEAR_BODY_46_cls-7" d="M277.33,159.57S275.88,148,293.22,149C293.36,159.91,289,164.51,277.33,159.57Z" />
      <path class="BUNTAI_BEAR_BODY_BEAR_BODY_46_cls-11" d="M283.74,150.83a5.07,5.07,0,1,0,6.2,3.61A5.07,5.07,0,0,0,283.74,150.83Z" />
      <circle cx="285.04" cy="155.74" r="2.45" />
      <circle class="BUNTAI_BEAR_BODY_BEAR_BODY_46_cls-8" cx="286.31" cy="153.15" r="1.12" />
      <circle class="BUNTAI_BEAR_BODY_BEAR_BODY_46_cls-10" cx="285.04" cy="155.74" r="5.08" />
      <path class="BUNTAI_BEAR_BODY_BEAR_BODY_46_cls-8" d="M231,159.51s.5-11.62-16.84-10.56C214,159.85,219.28,164.46,231,159.51Z" />
      <path class="BUNTAI_BEAR_BODY_BEAR_BODY_46_cls-7" d="M231.2,159.57S231.7,148,214.36,149C214.21,159.91,219.5,164.51,231.2,159.57Z" />
      <path class="BUNTAI_BEAR_BODY_BEAR_BODY_46_cls-11" d="M222.61,150.83a5.07,5.07,0,1,1-6.21,3.61A5.07,5.07,0,0,1,222.61,150.83Z" />
      <circle cx="221.31" cy="155.74" r="2.45" />
      <circle class="BUNTAI_BEAR_BODY_BEAR_BODY_46_cls-8" cx="220.04" cy="153.15" r="1.12" />
      <circle class="BUNTAI_BEAR_BODY_BEAR_BODY_46_cls-10" cx="221.31" cy="155.74" r="5.08" />
      <path d="M265.43,208.83c-3.37,0-6,4.51-9.16,4.51-1.84,0-4.92-1.05-7.17-1.93a14.45,14.45,0,0,0-.66,2.65,11.5,11.5,0,0,0,1.34,4.17,29.91,29.91,0,0,0,8.12,1C264.71,219.08,268.82,208.83,265.43,208.83Z" />
      <path d="M288.12,214.06s-.07-.27-.2-.73c-3-.22-5.64-4.5-8.92-4.5s.72,10.25,7.53,10.41h.3A11.45,11.45,0,0,0,288.12,214.06Z" />
    </g>
  </g>
</svg>