<svg xmlns="http://www.w3.org/2000/svg" viewBox="0 0 432 432">
  <defs>
    <style>.BUNTAI_BEAR_BODY_BEAR_BODY_24_cls-1{isolation:isolate;}.BUNTAI_BEAR_BODY_BEAR_BODY_24_cls-2{fill:#c5dfdc;}.BUNTAI_BEAR_BODY_BEAR_BODY_24_cls-3{fill:#34788f;}.BUNTAI_BEAR_BODY_BEAR_BODY_24_cls-4{opacity:0.43;mix-blend-mode:multiply;}.BUNTAI_BEAR_BODY_BEAR_BODY_24_cls-5{opacity:0.57;}.BUNTAI_BEAR_BODY_BEAR_BODY_24_cls-6{fill:#1a1a1a;}.BUNTAI_BEAR_BODY_BEAR_BODY_24_cls-10,.BUNTAI_BEAR_BODY_BEAR_BODY_24_cls-7{fill:none;stroke:#000;stroke-linecap:round;}.BUNTAI_BEAR_BODY_BEAR_BODY_24_cls-7{stroke-linejoin:round;stroke-width:1.93px;}.BUNTAI_BEAR_BODY_BEAR_BODY_24_cls-8{fill:#fff;}.BUNTAI_BEAR_BODY_BEAR_BODY_24_cls-9{fill:#bdd100;}.BUNTAI_BEAR_BODY_BEAR_BODY_24_cls-10{stroke-miterlimit:10;stroke-width:1.61px;}</style>
  </defs>
  <g class="BUNTAI_BEAR_BODY_BEAR_BODY_24_cls-1">
    <g id="body">
      <path class="BUNTAI_BEAR_BODY_BEAR_BODY_24_cls-2" d="M420.25,420.4l4.05,4.3c-.68-2.84-4-9.43-6.3-13.69-1.15-4.44-2.41-8.85-3.83-13.21-.12-.38-.25-.76-.38-1.14a9.59,9.59,0,0,0,2.82,1c-3.14-3.5-6.23-10.47-6.23-10.47h0c-6.19-15.7-14.74-30.51-26.5-42.54C373.45,334,361.07,324.78,349.8,315c-13.54-11.71-17.61-15.42-22.58-18.3-9-6.51-14-40-14.27-48.37s-3.37-29.54-3.37-29.54l2.12-.18c-3.13-10.55.75-28.1,2.53-43.63.25-7.68-2.2-20.26-2.2-20.26l3,.17c-1.18-3.44-2.58-6.78-3.92-9.74,3.41-2.7,6.61-7.83,9.92-12.58,3.88-5.56,5.8-17.1,5.8-17.1L325,117.93a18.42,18.42,0,0,0-5.24-15.76c-7-7-17.33-2.47-23.29,0a128.91,128.91,0,0,1-14.16,4.58h0c-1.53-.85-3.16-1.69-4.78-2.42-4.15-1.88-11.51-3.7-15.89-4.68-2.14-.49-3.57-.77-3.57-.77l1.49-1.15,1-.75s-7.76-.88-13.76.51c-1,.22-2,.41-2.94.57a69.9,69.9,0,0,1-7.31.75h-.07c-1.51.07-2.47.07-2.47.07s-1.52-.08-3.59-.26h0a49.29,49.29,0,0,1-9.47-1.51A35.89,35.89,0,0,0,213,96c-3.21-.18-6-.18-6-.18l.73,1,.45.64s-11.48,1.18-16.65,2.14l-1.19.28-.44.12a94.33,94.33,0,0,0-13.49,5.78l-.24.12a37.33,37.33,0,0,0-8.14-5.55l-.3-.16-1.42-.7c-7.42-3.57-11.46-4.26-13.05-4.38a4.63,4.63,0,0,0-.79,0l.35.61.55,1s-7.38-1.51-10.9,2.46a6.75,6.75,0,0,0-.86,1.21,18.93,18.93,0,0,0-1.79,5.22,44.49,44.49,0,0,0-.8,9.62l-2.19-1.06s-1.47,11.7,3,19.08c3.85,6.35,6,12.59,6.5,16.63a11,11,0,0,1,.09,1.76c-6.9,15.85-8.07,29.12-10,37.08h0c-.08.35-.17.69-.26,1l1.28-1.28,1-1s0,.26-.07.74c0,.22,0,.49-.07.8l0,.34c0,.22-.05.45-.07.71s-.05.44-.07.68c-.56,5.63-1.86,17.37-3.72,26.05-.69,3.22-1.6,7.25-2.56,11.46-.82,3.61-1.69,7.36-2.51,10.84-1.72,7.32-3.21,13.5-3.58,14.92l.64-.3.1-.05h0l1.54-.71.22-.1s0,0,0,0l-.06.24c-.06.23-.15.6-.26,1.08q0,.16-.09.36l-.84,3.33c-.09.38-.2.77-.3,1.18-.24.92-.49,1.9-.76,2.89-.56,2.07-1.16,4.22-1.74,6.13-.11.36-.21.7-.32,1s-.25.77-.37,1.13c-.18.54-.36,1.05-.53,1.5s-.34.86-.49,1.21-.21.45-.31.63l-.38.7-.8,1.45c-1.28,2.34-2.56,4.66-3.14,5.7l-.05.09-.27.49s1.87.33,2,.85c-.12.16-.25.31-.38.47s-.19.25-.29.37l0,0-.84,1c-.2.23-.4.47-.61.69a50.76,50.76,0,0,1-4.54,4.52l-.8.7-.12.1a52.29,52.29,0,0,1-4.93,3.68l-.67.44-.73.45h0c-1.39.84-2.28,1.28-2.44,1.36h0c-.66.38-1.3.78-1.95,1.21h0c-.52.34-1,.7-1.57,1.08a1.33,1.33,0,0,0-.19.14l-1,.73-.43.33,0,0-.06.05-.53.41,0,0-.22.18-.29.23-1,.81-2.16,1.8h0c-2.75,2.32-6.23,5.34-11,9.45L80.38,315c-.7.61-1.41,1.22-2.13,1.82-1,.86-2,1.72-3,2.57l-.43.37-.31.25-.52.43-3.63,3-1.26,1,0,0-3.82,3.16q-3.28,2.71-6.51,5.49c-.72.62-1.43,1.23-2.14,1.86-.89.78-1.78,1.57-2.66,2.37-.52.46-1,.93-1.54,1.4l-1.61,1.5-.36.35-.29.27c-.61.58-1.21,1.17-1.81,1.76s-1.33,1.31-2,2c-1.23,1.26-2.43,2.56-3.59,3.88-.28.31-.54.61-.8.92-.44.5-.87,1-1.28,1.52a1.6,1.6,0,0,0-.21.26c-.49.57-1,1.15-1.4,1.73-.17.2-.34.41-.5.62-.5.64-1,1.29-1.48,1.95a.71.71,0,0,0-.1.14c-.57.76-1.12,1.53-1.67,2.31s-1.26,1.8-1.86,2.73c-.44.66-.87,1.33-1.29,2a.15.15,0,0,0-.05.07q-1.68,2.63-3.21,5.34l-.66,1.17-.61,1.11-.16.29c-.2.38-.41.77-.6,1.15s-.56,1.05-.83,1.58c-.67,1.3-1.31,2.62-1.94,3.94h0l-.31.45h0c-1.21,1.77-5.59,8.12-9.17,12.55a35.82,35.82,0,0,1-3.13,3.5c-.23.22-.44.4-.63.55a31.5,31.5,0,0,0,3.59-.38,17.26,17.26,0,0,0,3.13-.76c-.11.3-.21.61-.31.91a.88.88,0,0,0-.05.15c-.4,1.14-.78,2.27-1.15,3.41-1.16,3.57-2.21,7.16-3.18,10.77h0a.5.5,0,0,1-.05.07c-.69,1.07-7.86,12.28-8.86,14.83.25-.19.49-.37.72-.52h0a13.87,13.87,0,0,1,4.75-2.28h0c.32-.07.49-.09.49-.09-1.22,5.47-2.29,11-3.29,16.48a.5.5,0,0,0,0,.12c-1.26,6.95-2.39,13.93-3.52,20.9L44,458h53c76.84-.05,184.1-.1,255.28-.07h.28c44.33,0,74.59.05,74.66.14C425.08,445.48,423,432.85,420.25,420.4ZM281.59,201.16c2.64,1.32,5,8.68,6,12.14l.3,1.07c.09.33.15.57.18.67a.31.31,0,0,0,0,.07,6.5,6.5,0,0,1-.15,1.83,15.51,15.51,0,0,1-1.14,3.36c-1.6,3.46-4.19,6.76-4.85,7-1,.39-18.34,1.24-23.07-.22a15.7,15.7,0,0,1-9.85-9.48,8.75,8.75,0,0,1-.62-2.51c0-.14,0-.28.07-.42h0a14.73,14.73,0,0,1,.59-2.23c.1-.3.22-.61.33-.91a42.66,42.66,0,0,1,5.88-9.71c2.47-2.26,10.69-2.87,14.74-2.87S278.1,199.41,281.59,201.16Z" />
      <path class="BUNTAI_BEAR_BODY_BEAR_BODY_24_cls-3" d="M188.09,238c1.47-.09,2.88-.13,4.23-.11A39.55,39.55,0,0,0,188.09,238Z" />
      <path class="BUNTAI_BEAR_BODY_BEAR_BODY_24_cls-3" d="M50.75,340.33c-14.39,25.08-22,53.1-22,53.1a283.8,283.8,0,0,1,3.38-30.61,110.26,110.26,0,0,1,14.23-18.13C47.75,343.21,49.24,341.76,50.75,340.33Z" />
      <path class="BUNTAI_BEAR_BODY_BEAR_BODY_24_cls-3" d="M222.56,274.3c-.61-4.89-4.72-16.87-16.34-22.55s-30.06-1-37.31,8.31c-4.12,5.26-4.74,12.19-4.51,17.19,0,.44,0,.86.08,1.26a35.49,35.49,0,0,0,.76,5.23,22,22,0,0,1-4.54-8.83,13.92,13.92,0,0,1-1.45,2.44c-5.84,8-16.73,4.29-16.73,4.29s6.82-.18,6.73-4.72-10.84-7.08-16.34-4.54-.29,12.93,17,21.32c-10.44-4.53-19.46-6.3-29.18-4.95a55.13,55.13,0,0,0-8.91,2l.12-.1.8-.7a50.76,50.76,0,0,0,4.54-4.52c.21-.22.41-.46.61-.69l.84-1,0,0c.1-.12.2-.24.29-.37s.26-.31.38-.47c-.08-.52-2-.85-2-.85l.27-.49h0c6.33-3.49,7.49-7.8,5.16-9.78a3.19,3.19,0,0,0-.66-.45,76,76,0,0,0,2.92-8.26l.18-.63.52-.46a92.58,92.58,0,0,1,9.41-7,145,145,0,0,1,13.49-7.88c-1.07.74-14.09,9.8-10.06,18.07,3.55,7.3,11.89,5.25,14.87,2.18a3.72,3.72,0,0,0,1-1.71,3.41,3.41,0,0,0-2.21-4.22c-1.83-.83-4.77-1.2-9-1.08a31.51,31.51,0,0,1,7.2-8.49,36.55,36.55,0,0,1,3.1-2.4h0c9.94-7,23.54-10.74,34.39-11.42-16.08,1.23-29,11.69-30.37,15.39-1.45,4,.65,6.75,4.72,3.14s22.84-16.31,38.68-12.7S223.08,266.17,222.56,274.3Z" />
      <path class="BUNTAI_BEAR_BODY_BEAR_BODY_24_cls-3" d="M131.22,355.22c-16.8,26.08-33,60.07-34.32,102.79H85.64c.47-36.32,7.23-42.84-7.08-38.95-6.9,1.87-12,18.36-14.42,39H52.94a89.55,89.55,0,0,1,2.78-15.45c8.16-29.36,20.28-41,20.28-41a28.87,28.87,0,0,0,24.35-22.72c4.89-21-12.59-44.27-23.19-41.12s-9.9,38.44,4.55,48.58c-21.09,1.16-29.83,4.19-41.36,27.38s-2-24.35-2-24.35,7.1-24.7,14.91-35.19c-4.43,12.35-5.83,26.1,4.66,28s10-23.53-2.45-13.39c2.56-21,9.09-38.8,23.54-40.78s34.25,15.61,33.78,36.7c6.29-11.65-3.49-34-17-38.68s-25.75-3.15-33,6.06q3-3.93,6.21-7.5h0c8-9,16.69-16.21,24.41-20.76h0a54.07,54.07,0,0,1,6.52-3.3c-12,10.26-16.78,20-6.41,15.73s10.52-10.48,5.24-10c10.6-7.69,24.12-8.62,32.39-6.75-14.45,1.39-25.75,12.81-25.75,12.81S135.88,328,131.22,355.22Z" />
      <g class="BUNTAI_BEAR_BODY_BEAR_BODY_24_cls-4">
        <path class="BUNTAI_BEAR_BODY_BEAR_BODY_24_cls-5" d="M151.6,236.27s-1.24,18.24-1.41,22.34l1.41-2.47A107.73,107.73,0,0,0,154,269.31l.73-2.76a114,114,0,0,0,7.65,16.77c4.17,7,8,8,8,8l-8.1-19-2.14-2s-3.8-17.18-3.8-17.14-2.22.32-2.22.32l-.62-5.8-1.29-.67Z" />
        <path class="BUNTAI_BEAR_BODY_BEAR_BODY_24_cls-5" d="M148.7,106.82s9.23.79,13.76,4.81,5.09,5.82,5.09,5.82l-1.93.94-1.3,1.32v2.56l-3.59,1.83s2,1.32,1.73,1.37-6.57,5.76-7.59,7.79.64,1.61.64,1.61.2,5.38.08,5.83-2.42,4.73-2.42,4.73l-.73,1s-9.73-16.65-9.94-22.39,1-13.87,3.47-15.48l2.47-1.6Z" />
        <path class="BUNTAI_BEAR_BODY_BEAR_BODY_24_cls-5" d="M179.06,109.55s19.78-8,35.31-8.22a31,31,0,0,1-3.88-1.35s-.26-.76,13.33,1.61a73.17,73.17,0,0,0,25.24-.17l12.83-1.55-3.29-3s-7,.44-14.62,1.21-11.12,1.69-18.22-.51A34.37,34.37,0,0,0,212.94,96s-4.48,0-4.73-.1-.68,1.54-.68,1.54a138,138,0,0,0-16,2.2c-6.93,1.51-15.36,5.65-15.36,5.65l1.09,2.36Z" />
        <path class="BUNTAI_BEAR_BODY_BEAR_BODY_24_cls-5" d="M296.68,221.49s-2,4.43-3,6.68c-3.69,12.38-13,14.83-13,14.83l1.68-4.33s6-.82,7.77-6.11a36.61,36.61,0,0,0,2-8.33S294.54,224.86,296.68,221.49Z" />
        <path class="BUNTAI_BEAR_BODY_BEAR_BODY_24_cls-5" d="M291.75,215.09A5.22,5.22,0,0,1,288,217c-12.3,2.72-17.32,2.84-38.92.67-.79.37-19.5-.19-24.48-2.53-8.52,4.67-21.52,9.14-30.72,7.2a37.49,37.49,0,0,0-16.21,0s38.1,22.09,57.79,25.24,35,3.26,40.62-.31,6-7.95,6-7.95,2.7-.58,6.06-5S292,221.49,292,221.49Z" />
        <path class="BUNTAI_BEAR_BODY_BEAR_BODY_24_cls-5" d="M242.14,112.47s6.58,8.11,8.61,14.19,4.39,16.2,4.39,16.2.67-12.66.67-15.19a11.62,11.62,0,0,1,1.73-5.24l-2.74,1s-2.49-4.56-5-8.27-7.7-5.63-7.7-5.63l-3-1Z" />
        <path class="BUNTAI_BEAR_BODY_BEAR_BODY_24_cls-5" d="M178.75,108.72v.83a24.52,24.52,0,0,0-3.67,2.71,57.45,57.45,0,0,0-12-8.9l1,1.18s-8.48-2.91-13.33-2.87-8.59.77-11,4c2.46-7,3.18-8.63,7.53-9.31s5.36-.4,5.36-.4l1-1.37a77,77,0,0,1,14,5.69A41.75,41.75,0,0,1,178.75,108.72Z" />
        <path class="BUNTAI_BEAR_BODY_BEAR_BODY_24_cls-5" d="M317.45,110.28s-7.66-2.09-14.62,1.22l-7,3.3,7.44,3.81-3.37,2.76s3.39,8,4.62,9.11a12,12,0,0,0,2.81,1.84l-1.69,3.06,5.8,8.89s.22-9,1.63-13S319.83,117.93,317.45,110.28Z" />
        <path class="BUNTAI_BEAR_BODY_BEAR_BODY_24_cls-5" d="M270.11,318.32l-1.75-1.41-1.61,3.6c-1.62,3.61-12.29,18.74-12.29,18.74s-2.47,3.83-7.54,11.48c13.28-6.64,22.4-28.25,22.4-28.25l2.36-.11c6-12.38,8.46-27.48,8.46-27.48s-2.15,5.76-4.29,11.57A84.06,84.06,0,0,1,270.11,318.32Z" />
        <path class="BUNTAI_BEAR_BODY_BEAR_BODY_24_cls-5" d="M257.44,249.84c-1.71.06-24.34.77-36.13-2.31-12.26-3.21-30-6.25-30-6.25H203S171.24,231,159.25,220c-8.95-8.2-12.82-28.08-14.2-37.61a.63.63,0,0,1-.15,0s-1.68,18.24-3.54,26.93c-1.65,7.7-3.1,33.34-6.11,45.67a29.59,29.59,0,0,1-1.25,4l-.34-2.7s-6.67,22-10.25,28.06c-1,1.59-1.85,3-2.73,4.38a63.72,63.72,0,0,1-5.81,7.74s-.83,1.22-2.27,3.38h0c-3.3,4.94-9.81,14.77-17.06,26l-3.17,4.93c-2,3.09-4,6.25-6,9.4-5.75,9.14-11.32,18.25-15.55,25.74-1,1.67-1.82,3.26-2.62,4.75-1.19,2.22-2.32,4.29-3.41,6.21q-1.14,2-2.21,3.86h0c-3.45,5.91-6.27,10.22-8.44,13.3a48.89,48.89,0,0,1-5.48,6.85L56.82,396S49,420.92,47.5,428.37C46,435.6,41.29,443.7,41,444.2l4.41-4.41-1,18.22H3.92l2.66-20.84a.5.5,0,0,1,0-.12l2.8-16.39h0L4.64,423h0c.17-.29,3.13-5.4,8.14-14.3a.5.5,0,0,0,.05-.07h0c3.42-11.2,4.17-13.64,4.33-14.18a.88.88,0,0,1,.05-.15l-2.82-.15-3-.17-.63,0a39,39,0,0,0,3.76-3.47,55.26,55.26,0,0,0,9.14-12.48l0-.07h0q1.62-3.54,3.7-7.14l.16-.29q2-3.44,4.36-6.9a158.78,158.78,0,0,1,17.76-21.39c4.33-4.42,9-8.75,13.91-12.91l5-4.26,5.8-4.92.31-.25.19-.17.24-.2c1-.85,2-1.71,3-2.57l.36-.3,15.87-13.38,2.83-2.38-.14-.06h0l-.14-.06.77-.42,0,0,.51-.28,1-.87.06-.05,1.08-.91L101,298h0l1.37-.47c1.05-.69,2.07-1.4,3.05-2.11h0a98.9,98.9,0,0,0,13.24-11.58l0,0,.32-.35,0,0-1.89-1.28a118.25,118.25,0,0,0,5.1-10.76,76,76,0,0,0,2.92-8.26l.18-.63c1.87-6.6,2.45-8.8,2.62-9.48.06-.21.07-.27.07-.27l-1.61,1h0l-.1.06h0l2.94-14.62,1.42-7s.45-1.44,1.09-3.79a158.52,158.52,0,0,0,3.91-17.79c1.15-7.61,2-15.72,2.37-19.72,0-.24.05-.47.07-.68s0-.49.07-.71l0-.34c0-.31,0-.58.07-.8l-.9.23-1,.26h0a115.11,115.11,0,0,1,3.8-20,138,138,0,0,1,6-17.64l-.72-4.63s.38,1.42.86,3.41a90.06,90.06,0,0,1,1.84,9.31c1.52,8,.82,6.42.82,6.42s-.18,1.25-.33,2.1a125.39,125.39,0,0,0,2.6,18.68l.4.54s5.46,17,18.37,29.18l.18.18c.27.26.54.5.81.75s.52.48.78.7.34.3.52.45h0a45.49,45.49,0,0,0,5.74,4c3.27,2,7.07,3.89,11.36,6l0,0c2.45,1.19,5.06,2.42,7.82,3.74,9,4.3,19.38,8.54,28.66,11.85l.06,0c2.73,1,5.36,1.87,7.83,2.65a68.88,68.88,0,0,0,10,2.28,0,0,0,0,1,0,0,100.61,100.61,0,0,0,11.43,1.08C256,249.81,256.71,249.84,257.44,249.84Z" />
        <path class="BUNTAI_BEAR_BODY_BEAR_BODY_24_cls-5" d="M65.93,432.74s-6.46-14.08-7.86-24.16a213.34,213.34,0,0,0,6.79,49.5H75.54s1.58-30.58,5.95-55.22c-7.52,25.34-7.93,30.93-7.93,30.93s3.21-47,7.93-63.09A169.2,169.2,0,0,0,65.93,432.74Z" />
        <path class="BUNTAI_BEAR_BODY_BEAR_BODY_24_cls-5" d="M390.31,442.94s8.63-32.67,5.13-55.71c-2.56,25.18-12.81,42.22-12.81,42.22S378.9,400.53,370,389.34c0,0,6.76,53.07,6.64,68.59h16.43s9.56-33.63,10-48.78C396.14,431.52,390.31,442.94,390.31,442.94Z" />
      </g>
      <path class="BUNTAI_BEAR_BODY_BEAR_BODY_24_cls-6" d="M288.12,215.12a11.48,11.48,0,0,1-1.29,5.19c-1.6,3.46-4.19,6.76-4.85,7-1,.39-18.34,1.24-23.07-.22a15.53,15.53,0,0,1-9.13-7.83,11.47,11.47,0,0,1-1.34-4.16,14.35,14.35,0,0,1,.66-2.66c1.78-5.24,6.21-10.62,6.21-10.62,2.47-2.26,10.69-2.87,14.74-2.87s8.05.45,11.54,2.2c3,1.48,5.61,10.55,6.33,13.21C288.05,214.85,288.12,215.12,288.12,215.12Z" />
      <path class="BUNTAI_BEAR_BODY_BEAR_BODY_24_cls-7" d="M282.33,106.76c-1.53-.85-3.16-1.69-4.78-2.42-6.17-2.8-19.46-5.45-19.46-5.45l2.45-1.9s-7.76-.88-13.76.51A65.76,65.76,0,0,1,234,98.89s-9.24-.48-13.07-1.77S207,95.83,207,95.83l1.18,1.68s-11.48,1.18-16.65,2.14c-3.9.72-11.77,4.45-15.36,6.3" />
      <path class="BUNTAI_BEAR_BODY_BEAR_BODY_24_cls-7" d="M290,111.51s-3.42-2.38-7.7-4.75" />
      <path class="BUNTAI_BEAR_BODY_BEAR_BODY_24_cls-7" d="M311.06,145.2c3.41-2.7,6.61-7.83,9.92-12.58,3.88-5.56,5.8-17.1,5.8-17.1L325,117.94a18.42,18.42,0,0,0-5.24-15.76c-7-7-17.33-2.47-23.29,0a128.91,128.91,0,0,1-14.16,4.58h0" />
      <path class="BUNTAI_BEAR_BODY_BEAR_BODY_24_cls-7" d="M321,112.26a7.39,7.39,0,0,0-4-2.37h0a14.25,14.25,0,0,0-7.17.17A89.3,89.3,0,0,0,295.54,115l8.73,4.12-4.06,2s3.15,7.82,5.18,9.57,2.42,2.14,2.42,2.14l-2.36,1.51s2.7,4.6,5.61,10.95c1.34,3,2.74,6.3,3.92,9.74l-3-.17s2.45,12.58,2.2,20.26c-1.78,15.53-5.66,33.08-2.53,43.63l-2.12.18S312.69,240,313,248.38s5.32,41.86,14.27,48.37" />
      <path class="BUNTAI_BEAR_BODY_BEAR_BODY_24_cls-7" d="M103,296.75a50.79,50.79,0,0,0,16.43-13.85c-.08-.52-2-.85-2-.85s2.62-4.72,4.64-8.43,5.94-20.24,6.08-20.76" />
      <path class="BUNTAI_BEAR_BODY_BEAR_BODY_24_cls-7" d="M128.17,252.85h0L125.64,254c.76-2.87,6.12-25.41,8.65-37.22s4-29.32,4-29.32l-2.25,2.25c2.13-7.82,3.09-21.55,10.29-38.1.12-3.82-2.13-11-6.59-18.39s-3-19.08-3-19.08l2.19,1.06s-.39-9.39,2.59-14.84,11.76-3.67,11.76-3.67l-.9-1.57s3.88-.4,13.84,4.39a39.51,39.51,0,0,1,9.86,6.41,15,15,0,0,1,2.81,3.21" />
      <path class="BUNTAI_BEAR_BODY_BEAR_BODY_24_cls-7" d="M59.93,418a334.3,334.3,0,0,0,9.86,40" />
      <path class="BUNTAI_BEAR_BODY_BEAR_BODY_24_cls-7" d="M70,458c.33-21.91,3.52-57.06,3.52-57.06" />
      <path class="BUNTAI_BEAR_BODY_BEAR_BODY_24_cls-7" d="M383.49,457.94A334.5,334.5,0,0,0,393.32,418" />
      <path class="BUNTAI_BEAR_BODY_BEAR_BODY_24_cls-7" d="M379.69,401s3.18,35.06,3.52,57" />
      <path class="BUNTAI_BEAR_BODY_BEAR_BODY_24_cls-7" d="M148.44,107a21.06,21.06,0,0,0-3.77,13.42c.74,9.4,5.18,19.48,7.94,26.05,0,0,2.93-5.16,3.15-7.42a9.24,9.24,0,0,1,1.69-4.17l-3.44-.34s5.64-8.66,9-10.24L159,124l6.63-2.42-2.36-2.47,4.84-1.41a35.49,35.49,0,0,0-7.14-6.93C157.84,108.49,152.69,106.19,148.44,107Z" />
      <path class="BUNTAI_BEAR_BODY_BEAR_BODY_24_cls-7" d="M144.39,109.16a7.29,7.29,0,0,1,4.05-2.17" />
      <path class="BUNTAI_BEAR_BODY_BEAR_BODY_24_cls-7" d="M317,109.89a23.84,23.84,0,0,1-.36,10.75c-1.57,5.51-4.95,14.35-4.95,14.35" />
      <path class="BUNTAI_BEAR_BODY_BEAR_BODY_24_cls-7" d="M277.33,160.62a54.65,54.65,0,0,0,6.58,22.53c.43.8,3.55,3.9,4,4.75.34.68-2-.92-1.66-.2a54.51,54.51,0,0,1,4.19,13.92s2.2,16.13,1.39,24.49a15.12,15.12,0,0,1-.54,3c-2,6.5-6.59,9.37-9.12,9.37-1.66,0-6.37-1.44-12.17-1.87a36,36,0,0,0-9.78.52c-9.79,2-11.34,2.87-19.72,1.35S225.9,230,225,220.35" />
      <path class="BUNTAI_BEAR_BODY_BEAR_BODY_24_cls-7" d="M307,196.47s-.26,11-5.83,19.16-9.33,10.48-9.33,10.48" />
      <path class="BUNTAI_BEAR_BODY_BEAR_BODY_24_cls-7" d="M282.15,238.5s-.09,7.85-9.71,10-26.84,2.11-39.5-2.11c0,0-16.46-5.91-25.24-9.79s-13.84-6.58-24.65-11.14c0,0-22.79-11-22.62-28.95" />
      <path class="BUNTAI_BEAR_BODY_BEAR_BODY_24_cls-7" d="M151.6,234.37s.56,12.15.67,13.84l.9-1.24a74.67,74.67,0,0,0,1.92,7.88l1.12-2.48s3.15,16.77,4.95,21.27l.57-3s5,16,9.22,20.7" />
      <path class="BUNTAI_BEAR_BODY_BEAR_BODY_24_cls-7" d="M299.39,232.56s.58,11.26,0,12.84l-1-1.81s-1.92,13.17-2.48,15.76L294.75,257s-4.05,13.62-6.19,16.65" />
      <path class="BUNTAI_BEAR_BODY_BEAR_BODY_24_cls-7" d="M148.61,308.81s5.58,11.15,8.78,15.54" />
      <path class="BUNTAI_BEAR_BODY_BEAR_BODY_24_cls-7" d="M249.78,219.28a15.53,15.53,0,0,0,9.13,7.83c4.73,1.46,22.06.61,23.07.22.66-.26,3.25-3.56,4.85-7a11.48,11.48,0,0,0,1.29-5.19s-.07-.27-.2-.74c-.72-2.66-3.37-11.73-6.33-13.21-3.49-1.75-7.49-2.2-11.54-2.2s-12.27.61-14.74,2.87c0,0-4.43,5.38-6.21,10.62a14.35,14.35,0,0,0-.66,2.66A11.47,11.47,0,0,0,249.78,219.28Z" />
      <path class="BUNTAI_BEAR_BODY_BEAR_BODY_24_cls-7" d="M271.12,227.93s.54,2.76-1.14,8.7h0" />
      <path class="BUNTAI_BEAR_BODY_BEAR_BODY_24_cls-7" d="M280.72,293.11s-7.37,23-10.74,26.34l-.66-3.55s-6.92,16-16.55,24.15" />
      <path class="BUNTAI_BEAR_BODY_BEAR_BODY_24_cls-7" d="M190.82,159.24s6,8.95,10.15,9.79l-3.06,1.35s6.08,2.37,9.79,3.55l-2.87.67S215,178,219,178" />
      <path class="BUNTAI_BEAR_BODY_BEAR_BODY_24_cls-7" d="M302.58,159.24s-1.79,8.95-3.05,9.79l.91,1.35s-1.82,2.37-2.94,3.55l.86.67s-3,3.38-4.26,3.38" />
      <path class="BUNTAI_BEAR_BODY_BEAR_BODY_24_cls-7" d="M12.83,408.58c1-3.61,2-7.2,3.18-10.77.49-1.49,1-3,1.51-4.47" />
      <path class="BUNTAI_BEAR_BODY_BEAR_BODY_24_cls-7" d="M24.07,377.4a119.81,119.81,0,0,1,22.24-32.71c10.42-10.66,22.8-19.9,34.07-29.64C93.92,303.34,98,299.63,103,296.75" />
      <path class="BUNTAI_BEAR_BODY_BEAR_BODY_24_cls-7" d="M413.79,396.67c.13.38.26.76.38,1.14,1.42,4.36,2.68,8.77,3.83,13.21" />
      <path class="BUNTAI_BEAR_BODY_BEAR_BODY_24_cls-7" d="M420.25,420.41c2.78,12.45,4.83,25.08,6.87,37.67-.07-.09-30.33-.13-74.66-.14h-.28c-75.24,0-190.81,0-268.13.08H83.8l-80.74.06c2-12.54,4.07-25.11,6.83-37.5" />
      <path class="BUNTAI_BEAR_BODY_BEAR_BODY_24_cls-7" d="M327.22,296.75c5,2.88,9,6.59,22.58,18.3,11.27,9.74,23.65,19,34.07,29.64,11.76,12,20.31,26.84,26.5,42.54" />
      <path class="BUNTAI_BEAR_BODY_BEAR_BODY_24_cls-7" d="M17.53,393.34h0a23.88,23.88,0,0,1-6.72,1.14c3.55-2.76,13-16.63,13.25-17.06h0" />
      <path class="BUNTAI_BEAR_BODY_BEAR_BODY_24_cls-7" d="M12.83,408.58h0c-.27.41-7.88,12.27-8.91,14.9,3.5-2.68,6-2.91,6-2.91" />
      <path class="BUNTAI_BEAR_BODY_BEAR_BODY_24_cls-7" d="M410.37,387.23h0s3.09,7,6.23,10.47a9.59,9.59,0,0,1-2.82-1" />
      <path class="BUNTAI_BEAR_BODY_BEAR_BODY_24_cls-7" d="M418,411c2.26,4.26,5.62,10.85,6.3,13.69l-4.05-4.3" />
      <path class="BUNTAI_BEAR_BODY_BEAR_BODY_24_cls-8" d="M277.56,159.51S276.1,147.89,293.44,149C293.58,159.85,289.26,164.46,277.56,159.51Z" />
      <path class="BUNTAI_BEAR_BODY_BEAR_BODY_24_cls-7" d="M277.33,159.57S275.88,148,293.22,149C293.36,159.91,289,164.51,277.33,159.57Z" />
      <path class="BUNTAI_BEAR_BODY_BEAR_BODY_24_cls-9" d="M283.74,150.83a5.07,5.07,0,1,0,6.2,3.61A5.07,5.07,0,0,0,283.74,150.83Z" />
      <circle cx="285.04" cy="155.74" r="2.45" />
      <circle class="BUNTAI_BEAR_BODY_BEAR_BODY_24_cls-8" cx="286.31" cy="153.15" r="1.12" />
      <circle class="BUNTAI_BEAR_BODY_BEAR_BODY_24_cls-10" cx="285.04" cy="155.74" r="5.08" />
      <path class="BUNTAI_BEAR_BODY_BEAR_BODY_24_cls-8" d="M231,159.51s.5-11.62-16.84-10.56C214,159.85,219.28,164.46,231,159.51Z" />
      <path class="BUNTAI_BEAR_BODY_BEAR_BODY_24_cls-7" d="M231.2,159.57S231.7,148,214.36,149C214.21,159.91,219.5,164.51,231.2,159.57Z" />
      <path class="BUNTAI_BEAR_BODY_BEAR_BODY_24_cls-9" d="M222.61,150.83a5.07,5.07,0,1,1-6.21,3.61A5.07,5.07,0,0,1,222.61,150.83Z" />
      <circle cx="221.31" cy="155.74" r="2.45" />
      <circle class="BUNTAI_BEAR_BODY_BEAR_BODY_24_cls-8" cx="220.04" cy="153.15" r="1.12" />
      <circle class="BUNTAI_BEAR_BODY_BEAR_BODY_24_cls-10" cx="221.31" cy="155.74" r="5.08" />
      <path d="M265.43,208.83c-3.37,0-6,4.51-9.16,4.51-1.84,0-4.92-1.05-7.17-1.93a14.45,14.45,0,0,0-.66,2.65,11.5,11.5,0,0,0,1.34,4.17,29.91,29.91,0,0,0,8.12,1C264.71,219.08,268.82,208.83,265.43,208.83Z" />
      <path d="M288.12,214.06s-.07-.27-.2-.73c-3-.22-5.64-4.5-8.92-4.5s.72,10.25,7.53,10.41h.3A11.45,11.45,0,0,0,288.12,214.06Z" />
    </g>
  </g>
</svg>