<svg id="jewelry" xmlns="http://www.w3.org/2000/svg" viewBox="0 0 432 432">
  <defs>
    <style>.GUNDAN_GOAT_JEWELRY_GUNDAN_GOAT_JEWELRY_8_cls-1{fill:#84442d;}.GUNDAN_GOAT_JEWELRY_GUNDAN_GOAT_JEWELRY_8_cls-2{fill:#009d61;stroke-miterlimit:10;stroke-width:2px;}.GUNDAN_GOAT_JEWELRY_GUNDAN_GOAT_JEWELRY_8_cls-2,.GUNDAN_GOAT_JEWELRY_GUNDAN_GOAT_JEWELRY_8_cls-3,.GUNDAN_GOAT_JEWELRY_GUNDAN_GOAT_JEWELRY_8_cls-4{stroke:#000;}.GUNDAN_GOAT_JEWELRY_GUNDAN_GOAT_JEWELRY_8_cls-3,.GUNDAN_GOAT_JEWELRY_GUNDAN_GOAT_JEWELRY_8_cls-4{fill:none;stroke-linecap:round;stroke-linejoin:round;}.GUNDAN_GOAT_JEWELRY_GUNDAN_GOAT_JEWELRY_8_cls-3{stroke-width:1.84px;}</style>
  </defs>
  <path class="GUNDAN_GOAT_JEWELRY_GUNDAN_GOAT_JEWELRY_8_cls-1" d="M156.56,270.28l-.18,0-.14,0-3.09-.79a.92.92,0,0,1-.67-1.11l.63-2.47a13.89,13.89,0,0,1-2.1-1.17l-1.77,1.82a.94.94,0,0,1-1.3,0l-1.15-1.12-1.21-1.18a.91.91,0,0,1,0-1.29l1.78-1.83c-.19-.26-.36-.52-.53-.8a13.91,13.91,0,0,1-.7-1.27l-2.45.7a1,1,0,0,1-.25,0,.92.92,0,0,1-.45-.12.91.91,0,0,1-.43-.55l-.9-3.17a.93.93,0,0,1,.64-1.13l2.45-.69a14.88,14.88,0,0,1,0-2.41l-2.46-.63a.92.92,0,0,1-.66-1.12l.81-3.18a.93.93,0,0,1,.89-.69l.23,0,2.46.62a14.82,14.82,0,0,1,1.17-2.1l-1.82-1.77a.9.9,0,0,1-.28-.65,1,1,0,0,1,.26-.66l2.31-2.35a.92.92,0,0,1,1.29,0L150.7,241c.29-.21.6-.41.93-.61s.76-.43,1.14-.62l-.69-2.44a.92.92,0,0,1,.64-1.13l3.16-.9a1,1,0,0,1,.25,0,1,1,0,0,1,.45.11.94.94,0,0,1,.43.56l.69,2.45a14.44,14.44,0,0,1,1.46-.08c.32,0,.64,0,1,0l.62-2.45a.92.92,0,0,1,.89-.7.76.76,0,0,1,.21,0l1,.23L165,236a.91.91,0,0,1,.66,1.11l-.62,2.47a15.11,15.11,0,0,1,2.11,1.18l1.76-1.82a1,1,0,0,1,.65-.28h0a.94.94,0,0,1,.64.26l2.35,2.29a.91.91,0,0,1,0,1.3l-1.77,1.82a13.08,13.08,0,0,1,1.23,2.08l2.45-.7a1.07,1.07,0,0,1,.25,0,.89.89,0,0,1,.45.12,1,1,0,0,1,.44.55l.88,3.17a.92.92,0,0,1-.63,1.13l-2.45.69a13.86,13.86,0,0,1,0,2.41l2.48.63a.92.92,0,0,1,.66,1.12l-.83,3.18a.92.92,0,0,1-.89.69.83.83,0,0,1-.22,0l-2.45-.63a14.52,14.52,0,0,1-1.19,2.1l1.82,1.77a1,1,0,0,1,.28.65.92.92,0,0,1-.26.65l-2.3,2.36a.92.92,0,0,1-.65.28h0a.94.94,0,0,1-.64-.26l-1.81-1.77a14.24,14.24,0,0,1-2.07,1.22l.68,2.44a.91.91,0,0,1-.63,1.13l-3.16.9-.25,0a.93.93,0,0,1-.89-.67l-.69-2.45h-.06a7.75,7.75,0,0,1-.87.06H159l-.9,0-.57,2.24-.06.24A.93.93,0,0,1,156.56,270.28Zm2.54-28a10.2,10.2,0,0,0-2.84.4,10.41,10.41,0,0,0-7.2,12.87,10.43,10.43,0,0,0,20.47-3,10.94,10.94,0,0,0-.39-2.63A10.47,10.47,0,0,0,159.1,242.28Z" />
  <path d="M161.62,236.08l1,.24,2.2.56-.82,3.23a13.56,13.56,0,0,1,3.3,1.85l2.32-2.39,2.35,2.29-2.32,2.39a13,13,0,0,1,1.93,3.24l2.15-.6,1.06-.3.89,3.16-3.21.91a13.24,13.24,0,0,1,0,3.77l3.24.83-.83,3.18-3.21-.83a13.71,13.71,0,0,1-1.85,3.3l2.38,2.32-2.3,2.36-2.37-2.33a13.23,13.23,0,0,1-3.25,1.93l.9,3.2-3.16.89-.91-3.2c-.27,0-.53.07-.81.09a5.42,5.42,0,0,1-.81.06H159a12.32,12.32,0,0,1-1.61-.1l-.76,3-.06.22-.14,0-3-.78.82-3.22a13.84,13.84,0,0,1-3.29-1.85l-2.32,2.39-1.15-1.12-1.21-1.17,2.33-2.4a11.42,11.42,0,0,1-1-1.35,14,14,0,0,1-1-1.89l-3.21.91-.89-3.17,3.21-.9a12.89,12.89,0,0,1,0-3.77l-3.24-.83.82-3.18,3.22.82a13.64,13.64,0,0,1,1.85-3.29l-2.39-2.33,2.3-2.35,2.38,2.31a13.86,13.86,0,0,1,1.48-1,15.47,15.47,0,0,1,1.77-.9L153,237l3.16-.89.9,3.21a13.9,13.9,0,0,1,2.13-.17,12.94,12.94,0,0,1,1.65.11l.81-3.22m-2.53,28a11.72,11.72,0,0,0,3.08-.42,11.39,11.39,0,0,0,8.28-11.16,11.77,11.77,0,0,0-.42-2.85,11.36,11.36,0,1,0-10.94,14.43m2.53-29.83a1.84,1.84,0,0,0-1.78,1.39l-.43,1.73h-.25l-.78,0-.49-1.72a1.82,1.82,0,0,0-.87-1.11,1.84,1.84,0,0,0-.89-.23,1.68,1.68,0,0,0-.5.07l-3.16.89a1.84,1.84,0,0,0-1.27,2.26l.49,1.73-.53.3-.36.22-1.28-1.25a1.81,1.81,0,0,0-1.28-.52,1.87,1.87,0,0,0-1.31.55l-2.3,2.35a1.8,1.8,0,0,0-.53,1.31,1.84,1.84,0,0,0,.56,1.29l1.29,1.26c-.18.29-.34.59-.5.89l-1.74-.44a1.74,1.74,0,0,0-.45-.06,1.84,1.84,0,0,0-1.78,1.38l-.81,3.18a1.89,1.89,0,0,0,.19,1.4A1.85,1.85,0,0,0,142,252l1.74.45c0,.34,0,.68,0,1l-1.73.49a1.83,1.83,0,0,0-1.27,2.26l.89,3.17a1.85,1.85,0,0,0,.87,1.1,1.81,1.81,0,0,0,.9.24,2.08,2.08,0,0,0,.5-.07l1.73-.49c.12.23.26.46.39.67l.13.21-1.26,1.29a1.83,1.83,0,0,0,0,2.59l1.21,1.18,1.16,1.12a1.85,1.85,0,0,0,2.59,0l1.24-1.29c.3.18.59.34.89.5l-.44,1.74a1.84,1.84,0,0,0,1.33,2.23l3,.78.1,0,.15,0,.35,0a1.84,1.84,0,0,0,1.77-1.33l.06-.22v-.05l.39-1.51h1l.49,1.72a1.85,1.85,0,0,0,1.77,1.34,1.77,1.77,0,0,0,.5-.07l3.16-.89a1.84,1.84,0,0,0,1.26-2.27l-.48-1.71c.3-.17.6-.34.88-.52l1.28,1.24a1.81,1.81,0,0,0,1.28.53h0a1.87,1.87,0,0,0,1.3-.56l2.3-2.36a1.84,1.84,0,0,0,0-2.6l-1.28-1.24c.18-.3.34-.59.5-.9l1.73.45a1.76,1.76,0,0,0,.46.06,1.83,1.83,0,0,0,1.77-1.38l.83-3.18a1.86,1.86,0,0,0-.2-1.4,1.82,1.82,0,0,0-1.13-.84l-1.74-.45c0-.34,0-.68,0-1l1.73-.49a1.83,1.83,0,0,0,1.26-2.26l-.88-3.17a1.78,1.78,0,0,0-.87-1.1,1.81,1.81,0,0,0-.9-.24,1.68,1.68,0,0,0-.5.07l-1.06.3-.66.19c-.17-.3-.35-.6-.53-.88l1.25-1.29a1.84,1.84,0,0,0,0-2.6l-2.35-2.28a1.8,1.8,0,0,0-1.28-.52h0a1.78,1.78,0,0,0-1.29.55l-1.25,1.28-.9-.5.44-1.74a1.83,1.83,0,0,0-1.32-2.23l-2.2-.56-1-.25a2.18,2.18,0,0,0-.43,0Zm-2.53,28a9.53,9.53,0,0,1-8.29-14.19,9.54,9.54,0,0,1,8.3-4.85,9.55,9.55,0,0,1,9.16,6.94,9.88,9.88,0,0,1,.36,2.39,9.54,9.54,0,0,1-7,9.35,9.4,9.4,0,0,1-2.58.36Z" />
  <circle class="GUNDAN_GOAT_JEWELRY_GUNDAN_GOAT_JEWELRY_8_cls-2" cx="159.1" cy="254.2" r="5.56" />
  <line class="GUNDAN_GOAT_JEWELRY_GUNDAN_GOAT_JEWELRY_8_cls-3" x1="159.1" y1="248.65" x2="159.1" y2="242.93" />
  <path class="GUNDAN_GOAT_JEWELRY_GUNDAN_GOAT_JEWELRY_8_cls-3" d="M151.94,222.73a7.51,7.51,0,0,0,.81,3.44" />
  <path class="GUNDAN_GOAT_JEWELRY_GUNDAN_GOAT_JEWELRY_8_cls-3" d="M159.1,238.19v-17a6.24,6.24,0,0,0-1.2-3.78" />
  <path class="GUNDAN_GOAT_JEWELRY_GUNDAN_GOAT_JEWELRY_8_cls-4" d="M156.1,218.79a4.23,4.23,0,0,1,3.31-2.54" />
</svg>