<svg id="jewelry" xmlns="http://www.w3.org/2000/svg" viewBox="0 0 432 432">
  <defs>
    <style>.GUNDAN_GOAT_JEWELRY_GUNDAN_GOAT_JEWELRY_4_cls-1{fill:#ee3742;}.GUNDAN_GOAT_JEWELRY_GUNDAN_GOAT_JEWELRY_4_cls-2{fill:#f493a2;}.GUNDAN_GOAT_JEWELRY_GUNDAN_GOAT_JEWELRY_4_cls-3{fill:#b32126;}.GUNDAN_GOAT_JEWELRY_GUNDAN_GOAT_JEWELRY_4_cls-4{fill:#ed9547;}.GUNDAN_GOAT_JEWELRY_GUNDAN_GOAT_JEWELRY_4_cls-5{fill:#facf56;}.GUNDAN_GOAT_JEWELRY_GUNDAN_GOAT_JEWELRY_4_cls-6,.GUNDAN_GOAT_JEWELRY_GUNDAN_GOAT_JEWELRY_4_cls-7,.GUNDAN_GOAT_JEWELRY_GUNDAN_GOAT_JEWELRY_4_cls-8{fill:none;stroke:#000;stroke-miterlimit:10;}.GUNDAN_GOAT_JEWELRY_GUNDAN_GOAT_JEWELRY_4_cls-6,.GUNDAN_GOAT_JEWELRY_GUNDAN_GOAT_JEWELRY_4_cls-7{stroke-width:0.9px;}.GUNDAN_GOAT_JEWELRY_GUNDAN_GOAT_JEWELRY_4_cls-7,.GUNDAN_GOAT_JEWELRY_GUNDAN_GOAT_JEWELRY_4_cls-8{stroke-linecap:round;}.GUNDAN_GOAT_JEWELRY_GUNDAN_GOAT_JEWELRY_4_cls-8{stroke-width:0.67px;}</style>
  </defs>
  <path class="GUNDAN_GOAT_JEWELRY_GUNDAN_GOAT_JEWELRY_4_cls-1" d="M142.18,253.38a19.18,19.18,0,0,0,6.69,6.49l.46-.28a19.49,19.49,0,0,0,5.78-5.53,7.82,7.82,0,0,0,.43-.68,74,74,0,0,0-6.67-14c-.65,1.07-1.36,2.3-2.11,3.67-.61,1.14-1.24,2.37-1.86,3.69A59.4,59.4,0,0,0,142.18,253.38Z" />
  <path class="GUNDAN_GOAT_JEWELRY_GUNDAN_GOAT_JEWELRY_4_cls-2" d="M146.76,243.68c4.31,3.54,7.62,9.6,8.35,11,.15-.23.3-.45.43-.69a73.91,73.91,0,0,0-6.67-14C148.22,241.08,147.51,242.32,146.76,243.68Z" />
  <path class="GUNDAN_GOAT_JEWELRY_GUNDAN_GOAT_JEWELRY_4_cls-3" d="M142.18,253.38a19.18,19.18,0,0,0,6.69,6.49l.46-.28c-3-4.29-4.44-8.17-4.43-12.83A59.4,59.4,0,0,0,142.18,253.38Z" />
  <path class="GUNDAN_GOAT_JEWELRY_GUNDAN_GOAT_JEWELRY_4_cls-4" d="M147,236v0a3,3,0,0,0-.32-2.68,2.46,2.46,0,0,1,1.37-3.84,3.71,3.71,0,0,1,.77-.08,2.47,2.47,0,0,1,2.14,3.92,3.08,3.08,0,0,0-.34,2.66v0a76.94,76.94,0,0,1,8.49,17.72,22.24,22.24,0,0,1-10.3,9.95s-.4-.17-1-.51a22.15,22.15,0,0,1-9.28-9.44A78.63,78.63,0,0,1,147,236Zm.92,5a72.45,72.45,0,0,0-5.78,12.44,18.61,18.61,0,0,0,5.68,5.85c.36.24.7.47,1,.64a19.15,19.15,0,0,0,6.67-6.49,74,74,0,0,0-6.67-14C148.58,239.87,148.28,240.39,148,240.94Z" />
  <path class="GUNDAN_GOAT_JEWELRY_GUNDAN_GOAT_JEWELRY_4_cls-5" d="M147.45,236v0a3,3,0,0,0-.33-2.68,2.47,2.47,0,0,1,1.38-3.84,2.49,2.49,0,0,1,1,3.73,3.1,3.1,0,0,0-.34,2.67.1.1,0,0,1,0,0,76.73,76.73,0,0,1,8.49,17.72,22.11,22.11,0,0,1-9.47,9.54,22,22,0,0,1-9.28-9.44A77.78,77.78,0,0,1,147.45,236Zm1.11,23.45c.26-.14-.61,0-.3-.19.37.24.71.47,1,.64a19.17,19.17,0,0,0,6.68-6.49,73.39,73.39,0,0,0-6.68-14c-.29.47-.59,1-.9,1.54-.33-.59.64.11.34-.4a62.93,62.93,0,0,0-6.12,12.84A16.23,16.23,0,0,0,148.56,259.42Z" />
  <path class="GUNDAN_GOAT_JEWELRY_GUNDAN_GOAT_JEWELRY_4_cls-6" d="M148.87,259.87a19.15,19.15,0,0,0,6.67-6.49,73.42,73.42,0,0,0-6.67-14,74,74,0,0,0-6.69,14A19.18,19.18,0,0,0,148.87,259.87Z" />
  <path class="GUNDAN_GOAT_JEWELRY_GUNDAN_GOAT_JEWELRY_4_cls-6" d="M148.87,229.35a2.46,2.46,0,0,1,2.14,3.92,3.08,3.08,0,0,0-.34,2.66v0a76.94,76.94,0,0,1,8.49,17.72,22.19,22.19,0,0,1-10.3,9.95,22.19,22.19,0,0,1-10.31-9.95A78.24,78.24,0,0,1,147,236l0,0a3.06,3.06,0,0,0-.33-2.68,2.46,2.46,0,0,1,2.14-3.92" />
  <circle class="GUNDAN_GOAT_JEWELRY_GUNDAN_GOAT_JEWELRY_4_cls-6" cx="148.87" cy="226.13" r="1.83" />
  <polyline class="GUNDAN_GOAT_JEWELRY_GUNDAN_GOAT_JEWELRY_4_cls-7" points="148.87 227.15 148.87 227.96 148.87 229.35 148.87 230.21" />
  <polyline class="GUNDAN_GOAT_JEWELRY_GUNDAN_GOAT_JEWELRY_4_cls-7" points="148.87 217.49 148.87 224.31 148.87 225.24" />
  <path class="GUNDAN_GOAT_JEWELRY_GUNDAN_GOAT_JEWELRY_4_cls-8" d="M147.42,217.26a2.57,2.57,0,0,1,2.88,1.13" />
  <path class="GUNDAN_GOAT_JEWELRY_GUNDAN_GOAT_JEWELRY_4_cls-1" d="M163.25,248.92a19.17,19.17,0,0,0,6.68,6.49c.15-.08.31-.18.46-.28a19.26,19.26,0,0,0,5.78-5.53,6.07,6.07,0,0,0,.44-.68,73.68,73.68,0,0,0-6.68-14c-.64,1.07-1.35,2.3-2.1,3.67-.62,1.14-1.25,2.38-1.86,3.69A60.2,60.2,0,0,0,163.25,248.92Z" />
  <path class="GUNDAN_GOAT_JEWELRY_GUNDAN_GOAT_JEWELRY_4_cls-2" d="M167.83,239.22c4.31,3.54,7.62,9.61,8.34,11a7.15,7.15,0,0,0,.44-.68,73.09,73.09,0,0,0-6.68-14C169.29,236.62,168.58,237.86,167.83,239.22Z" />
  <path class="GUNDAN_GOAT_JEWELRY_GUNDAN_GOAT_JEWELRY_4_cls-3" d="M163.25,248.92a19.17,19.17,0,0,0,6.68,6.49c.15-.08.31-.18.46-.28-3-4.29-4.44-8.17-4.42-12.83A60.2,60.2,0,0,0,163.25,248.92Z" />
  <path class="GUNDAN_GOAT_JEWELRY_GUNDAN_GOAT_JEWELRY_4_cls-4" d="M168.11,231.51v0a3,3,0,0,0-.33-2.68,2.47,2.47,0,0,1,1.38-3.84,3.69,3.69,0,0,1,.76-.08,2.47,2.47,0,0,1,2.15,3.92,3.05,3.05,0,0,0-.35,2.66l0,0a77.29,77.29,0,0,1,8.48,17.73,22.2,22.2,0,0,1-10.3,9.94s-.39-.17-1-.51a22.07,22.07,0,0,1-9.28-9.43A78.1,78.1,0,0,1,168.11,231.51Zm.92,5a72.81,72.81,0,0,0-5.78,12.44,18.59,18.59,0,0,0,5.67,5.85c.37.25.71.47,1,.64a19.17,19.17,0,0,0,6.68-6.49,73.68,73.68,0,0,0-6.68-14C169.65,235.42,169.34,235.93,169,236.48Z" />
  <path class="GUNDAN_GOAT_JEWELRY_GUNDAN_GOAT_JEWELRY_4_cls-5" d="M168.51,231.51l0,0a3.06,3.06,0,0,0-.33-2.68,2.47,2.47,0,0,1,1.38-3.84,2.5,2.5,0,0,1,1,3.73,3.1,3.1,0,0,0-.34,2.67v0a76.77,76.77,0,0,1,8.48,17.72,22,22,0,0,1-9.47,9.54,22.11,22.11,0,0,1-9.27-9.43A78.14,78.14,0,0,1,168.51,231.51ZM169.63,255c.26-.14-.62,0-.3-.19.37.25.71.47,1,.64a19.07,19.07,0,0,0,6.67-6.49,73.11,73.11,0,0,0-6.67-14c-.29.48-.59,1-.91,1.54-.32-.59.65.11.35-.4a62.89,62.89,0,0,0-6.13,12.84A16.31,16.31,0,0,0,169.63,255Z" />
  <path class="GUNDAN_GOAT_JEWELRY_GUNDAN_GOAT_JEWELRY_4_cls-6" d="M169.94,255.41a19.15,19.15,0,0,0,6.67-6.49,74.33,74.33,0,0,0-6.67-14,74.27,74.27,0,0,0-6.69,14A19.18,19.18,0,0,0,169.94,255.41Z" />
  <path class="GUNDAN_GOAT_JEWELRY_GUNDAN_GOAT_JEWELRY_4_cls-6" d="M169.94,224.89a2.47,2.47,0,0,1,2.14,3.92,3.08,3.08,0,0,0-.34,2.66v0a76.84,76.84,0,0,1,8.49,17.73,22.25,22.25,0,0,1-10.3,9.94,22.24,22.24,0,0,1-10.32-9.94,78.53,78.53,0,0,1,8.49-17.73v0a3,3,0,0,0-.33-2.68,2.46,2.46,0,0,1,2.15-3.92" />
  <circle class="GUNDAN_GOAT_JEWELRY_GUNDAN_GOAT_JEWELRY_4_cls-6" cx="169.94" cy="221.67" r="1.83" />
  <polyline class="GUNDAN_GOAT_JEWELRY_GUNDAN_GOAT_JEWELRY_4_cls-7" points="169.94 222.69 169.94 223.5 169.94 224.89 169.94 225.75" />
  <polyline class="GUNDAN_GOAT_JEWELRY_GUNDAN_GOAT_JEWELRY_4_cls-7" points="169.94 213.03 169.94 219.85 169.94 220.78" />
  <path class="GUNDAN_GOAT_JEWELRY_GUNDAN_GOAT_JEWELRY_4_cls-8" d="M168.49,212.81a2.55,2.55,0,0,1,2.88,1.12" />
</svg>