<svg id="jewelry" xmlns="http://www.w3.org/2000/svg" viewBox="0 0 432 432">
  <defs>
    <style>.GUNDAN_GOAT_JEWELRY_GUNDAN_GOAT_JEWELRY_6_cls-1{fill:#ed9547;}.GUNDAN_GOAT_JEWELRY_GUNDAN_GOAT_JEWELRY_6_cls-2{fill:#facf56;}.GUNDAN_GOAT_JEWELRY_GUNDAN_GOAT_JEWELRY_6_cls-3,.GUNDAN_GOAT_JEWELRY_GUNDAN_GOAT_JEWELRY_6_cls-4{fill:none;stroke:#000;stroke-linecap:round;}.GUNDAN_GOAT_JEWELRY_GUNDAN_GOAT_JEWELRY_6_cls-3{stroke-miterlimit:10;stroke-width:0.9px;}.GUNDAN_GOAT_JEWELRY_GUNDAN_GOAT_JEWELRY_6_cls-4{stroke-linejoin:round;stroke-width:0.81px;}</style>
  </defs>
  <path class="GUNDAN_GOAT_JEWELRY_GUNDAN_GOAT_JEWELRY_6_cls-1" d="M302.46,224.27a3.93,3.93,0,0,1,3.92,3.93,4.21,4.21,0,0,1-.09.87,3.91,3.91,0,0,1-1.12,2,3.85,3.85,0,0,1-.86.64,3.93,3.93,0,0,1-1.85.46,4,4,0,0,1-1.84-.45,4.15,4.15,0,0,1-.87-.64,3.89,3.89,0,0,1-1.11-2,4.21,4.21,0,0,1-.09-.87A3.91,3.91,0,0,1,302.46,224.27Z" />
  <path class="GUNDAN_GOAT_JEWELRY_GUNDAN_GOAT_JEWELRY_6_cls-2" d="M302.46,224.27a3,3,0,0,1,3,3.73,2.92,2.92,0,0,1-.87,1.51,2.67,2.67,0,0,1-.66.5,3,3,0,0,1-1.44.36A3.12,3.12,0,0,1,301,230a3.21,3.21,0,0,1-.68-.5,3,3,0,0,1-.85-1.52,3.08,3.08,0,0,1-.08-.68A3,3,0,0,1,302.46,224.27Z" />
  <path class="GUNDAN_GOAT_JEWELRY_GUNDAN_GOAT_JEWELRY_6_cls-1" d="M305.18,231c2.37,4.56,5.94,11.51,5.25,18.64s-4.44,9.78-8,9.78-7.29-2.6-8-9.78,2.9-14.08,5.27-18.64a4.15,4.15,0,0,0,.87.64c-1.6,3.74-4,8.81-3.57,14.62s3,8,5.41,8,5-2.12,5.42-8-2-10.9-3.57-14.63a3.85,3.85,0,0,0,.86-.64Z" />
  <path class="GUNDAN_GOAT_JEWELRY_GUNDAN_GOAT_JEWELRY_6_cls-2" d="M304.92,231c2.14,4.13,5.37,10.41,4.75,16.86s-4,9.54-7.21,9.54-6.6-3-7.22-9.54S297.86,235.16,300,231a3.74,3.74,0,0,0,.79.58c-1.46,3.38-4.3,9.07-3.92,14.35s3.41,8.32,5.58,8.32,5.15-3.37,5.11-9.06c0-5.28-2-10.24-3.44-13.63a2.9,2.9,0,0,0,.78-.57Z" />
  <path class="GUNDAN_GOAT_JEWELRY_GUNDAN_GOAT_JEWELRY_6_cls-1" d="M302.45,276.62c-9.45,0-19.53-10.06-16.38-25.2,2.76-13.31,12.57-22.34,12.57-22.34a.64.64,0,0,0,.06.18,3.7,3.7,0,0,0,1,1.78c-14.48,18.2-5.18,32.59,2.71,32.59s17.19-14.39,2.73-32.59l0,0a3.58,3.58,0,0,0,1.06-1.76.64.64,0,0,0,.06-.18s9.81,9,12.57,22.34C322,266.56,311.91,276.62,302.45,276.62Z" />
  <path class="GUNDAN_GOAT_JEWELRY_GUNDAN_GOAT_JEWELRY_6_cls-2" d="M302.45,273.29c-8.78,0-18.15-9.36-15.23-23.44,2.34-11.29,10.13-19.26,11.48-20.59a3.7,3.7,0,0,0,1,1.78c-14.48,18.2-5.18,32.59,2.71,32.59s17.19-14.39,2.73-32.59l0,0a3.58,3.58,0,0,0,1.06-1.76c1.36,1.33,9.16,9.3,11.49,20.59C320.63,263.93,311.25,273.29,302.45,273.29Z" />
  <path class="GUNDAN_GOAT_JEWELRY_GUNDAN_GOAT_JEWELRY_6_cls-3" d="M298.64,229.07a4.21,4.21,0,0,1-.09-.87,3.92,3.92,0,1,1,7.83,0,4.21,4.21,0,0,1-.09.87,3.91,3.91,0,0,1-1.12,2,3.85,3.85,0,0,1-.86.64,3.93,3.93,0,0,1-1.85.46,4,4,0,0,1-1.84-.45,4.15,4.15,0,0,1-.87-.64A3.89,3.89,0,0,1,298.64,229.07Z" />
  <path class="GUNDAN_GOAT_JEWELRY_GUNDAN_GOAT_JEWELRY_6_cls-3" d="M302.46,276.61c-9.46,0-19.53-10.06-16.39-25.19,2.76-13.32,12.57-22.35,12.57-22.35" />
  <path class="GUNDAN_GOAT_JEWELRY_GUNDAN_GOAT_JEWELRY_6_cls-3" d="M302.46,263.63c-7.9,0-17.19-14.39-2.71-32.6" />
  <path class="GUNDAN_GOAT_JEWELRY_GUNDAN_GOAT_JEWELRY_6_cls-3" d="M299.75,231c-2.37,4.56-5.94,11.51-5.27,18.64s4.44,9.78,8,9.78" />
  <path class="GUNDAN_GOAT_JEWELRY_GUNDAN_GOAT_JEWELRY_6_cls-3" d="M300.62,231.66h0c-1.6,3.74-4,8.81-3.57,14.62s3,8,5.41,8" />
  <path class="GUNDAN_GOAT_JEWELRY_GUNDAN_GOAT_JEWELRY_6_cls-3" d="M302.46,276.61c9.45,0,19.54-10.06,16.4-25.19-2.76-13.32-12.57-22.35-12.57-22.35" />
  <path class="GUNDAN_GOAT_JEWELRY_GUNDAN_GOAT_JEWELRY_6_cls-3" d="M302.46,263.63c7.91,0,17.19-14.39,2.72-32.6" />
  <path class="GUNDAN_GOAT_JEWELRY_GUNDAN_GOAT_JEWELRY_6_cls-3" d="M305.18,231c2.37,4.56,5.94,11.51,5.25,18.64s-4.44,9.78-8,9.78" />
  <path class="GUNDAN_GOAT_JEWELRY_GUNDAN_GOAT_JEWELRY_6_cls-3" d="M304.31,231.66c1.6,3.73,4,8.81,3.57,14.63s-3,8-5.42,8" />
  <path class="GUNDAN_GOAT_JEWELRY_GUNDAN_GOAT_JEWELRY_6_cls-3" d="M302.46,232.12c3.41,3.83,4.79,15.56.84,16.34s-5.2-4.5-2.54-5.89a2,2,0,0,1,2.8,1.12" />
  <path class="GUNDAN_GOAT_JEWELRY_GUNDAN_GOAT_JEWELRY_6_cls-3" d="M303.37,209.38a4.34,4.34,0,0,1,4.17,4.09c.39,3.86-5.14,4.64-5.14,10.68" />
  <path class="GUNDAN_GOAT_JEWELRY_GUNDAN_GOAT_JEWELRY_6_cls-3" d="M299.31,216a7,7,0,0,1,.24-3.6" />
  <path class="GUNDAN_GOAT_JEWELRY_GUNDAN_GOAT_JEWELRY_6_cls-4" d="M303.55,211.06a2.78,2.78,0,0,1-.06-3.36" />
</svg>