<svg id="jewelry" xmlns="http://www.w3.org/2000/svg" viewBox="0 0 432 432">
  <defs>
    <style>.GUNDAN_GOAT_JEWELRY_GUNDAN_GOAT_JEWELRY_7_cls-1{fill:#aeaeaf;}.GUNDAN_GOAT_JEWELRY_GUNDAN_GOAT_JEWELRY_7_cls-2{fill:#4a4a4a;}.GUNDAN_GOAT_JEWELRY_GUNDAN_GOAT_JEWELRY_7_cls-11,.GUNDAN_GOAT_JEWELRY_GUNDAN_GOAT_JEWELRY_7_cls-3{fill:#8b8b8b;}.GUNDAN_GOAT_JEWELRY_GUNDAN_GOAT_JEWELRY_7_cls-4,.GUNDAN_GOAT_JEWELRY_GUNDAN_GOAT_JEWELRY_7_cls-5{fill:none;}.GUNDAN_GOAT_JEWELRY_GUNDAN_GOAT_JEWELRY_7_cls-11,.GUNDAN_GOAT_JEWELRY_GUNDAN_GOAT_JEWELRY_7_cls-4,.GUNDAN_GOAT_JEWELRY_GUNDAN_GOAT_JEWELRY_7_cls-5{stroke:#000;stroke-linecap:round;stroke-linejoin:round;}.GUNDAN_GOAT_JEWELRY_GUNDAN_GOAT_JEWELRY_7_cls-4{stroke-width:0.74px;}.GUNDAN_GOAT_JEWELRY_GUNDAN_GOAT_JEWELRY_7_cls-5{stroke-width:0.7px;}.GUNDAN_GOAT_JEWELRY_GUNDAN_GOAT_JEWELRY_7_cls-6{fill:#254922;}.GUNDAN_GOAT_JEWELRY_GUNDAN_GOAT_JEWELRY_7_cls-7{fill:#45793b;}.GUNDAN_GOAT_JEWELRY_GUNDAN_GOAT_JEWELRY_7_cls-8{fill:#92cb7b;}.GUNDAN_GOAT_JEWELRY_GUNDAN_GOAT_JEWELRY_7_cls-9{fill:silver;}.GUNDAN_GOAT_JEWELRY_GUNDAN_GOAT_JEWELRY_7_cls-10{fill:#878c84;}.GUNDAN_GOAT_JEWELRY_GUNDAN_GOAT_JEWELRY_7_cls-11{stroke-width:0.6px;}</style>
  </defs>
  <circle cx="243.14" cy="348.38" r="2.82" />
  <path d="M147.11,291.93l.62-3.61a4.83,4.83,0,0,0-4,1.52" />
  <path class="GUNDAN_GOAT_JEWELRY_GUNDAN_GOAT_JEWELRY_7_cls-1" d="M199.17,335.8s-2.46-1.74-4.6-2.92l0,0a3.3,3.3,0,0,0,1-.87,3,3,0,0,0,.5-1,16.12,16.12,0,0,1,3.27,1.82c.39.32.71.6,1,.84A3.25,3.25,0,0,0,199.17,335.8Z" />
  <path class="GUNDAN_GOAT_JEWELRY_GUNDAN_GOAT_JEWELRY_7_cls-1" d="M185.49,329c.48.79,4.27,2.92,6.58,2.66h0a1.84,1.84,0,0,0,1.33-.61,1.47,1.47,0,0,0,.37-.91h.1s1,.36,2.18.87a3,3,0,0,1-.5,1,3.3,3.3,0,0,1-1,.87l0,0a7.15,7.15,0,0,1-6,0c-2.91-1.17-5.07-2.62-5.07-4.29a3.3,3.3,0,0,1,1.1-2.17,6,6,0,0,1,.95,1,1.35,1.35,0,0,0-.23.95A1.28,1.28,0,0,0,185.49,329Z" />
  <path class="GUNDAN_GOAT_JEWELRY_GUNDAN_GOAT_JEWELRY_7_cls-1" d="M149.1,297a1.36,1.36,0,0,1-.53.74,3,3,0,0,1-2.64.56,1.77,1.77,0,0,1,.14-.64,1.84,1.84,0,0,1,.74-.77h0a5.12,5.12,0,0,0-.28-1.27,4.35,4.35,0,0,0-2.16,1.56s-.48-1-1.15-2.12v0c-.82-1.75-.48-4.92,1.86-5.73h0c2.37-.88,1.83,2.38,1.92,2.5a10,10,0,0,1,1.95,3.36A2.91,2.91,0,0,1,149.1,297Z" />
  <path class="GUNDAN_GOAT_JEWELRY_GUNDAN_GOAT_JEWELRY_7_cls-2" d="M149.1,297a2.76,2.76,0,0,0-.17-1.84,10.53,10.53,0,0,1,5.14,3.65,5.63,5.63,0,0,1,1,2.93c-.1-.06-.17-.13-.25-.17a5.05,5.05,0,0,0-2.16-1A7.9,7.9,0,0,0,149.1,297Z" />
  <path class="GUNDAN_GOAT_JEWELRY_GUNDAN_GOAT_JEWELRY_7_cls-1" d="M144.36,297.15a4.34,4.34,0,0,1,2.16-1.56,5.12,5.12,0,0,1,.28,1.27h0a1.79,1.79,0,0,0-.72.78,1.49,1.49,0,0,0-.15.62c0,.79,1.72,3.51,3.65,4.54a2.41,2.41,0,0,0,2.25.24,2.66,2.66,0,0,0,.66-.47c.19.11,1,.58,1.88,1.19a3.94,3.94,0,0,1-1.17.94,4.47,4.47,0,0,1-1.11.4,6.19,6.19,0,0,1-5.57-2.2C144.58,300.78,143.47,298.66,144.36,297.15Z" />
  <path class="GUNDAN_GOAT_JEWELRY_GUNDAN_GOAT_JEWELRY_7_cls-1" d="M152.09,305.11a4.47,4.47,0,0,0,1.11-.4,3.94,3.94,0,0,0,1.17-.94h0a13.6,13.6,0,0,1,2.77,2.28c.32.38.56.71.76,1a3.56,3.56,0,0,0-1.6,2h0A48.54,48.54,0,0,0,152.09,305.11Z" />
  <path class="GUNDAN_GOAT_JEWELRY_GUNDAN_GOAT_JEWELRY_7_cls-3" d="M151.83,303.05a2.41,2.41,0,0,1-2.25-.24,1,1,0,0,1,.1-1.11,3,3,0,0,1,3-1.13,5.05,5.05,0,0,1,2.16,1c.08,0,.15.11.25.17h0a26.21,26.21,0,0,1,5.05,4.34,3.07,3.07,0,0,1,.77,1.71,1.34,1.34,0,0,1-.3.82,2.75,2.75,0,0,1-2.38,1.11,1.23,1.23,0,0,1,0-.62,1.46,1.46,0,0,1,.44-.9h0a4.61,4.61,0,0,0-.67-1.15c-.2-.27-.44-.6-.76-1a13.6,13.6,0,0,0-2.77-2.28h0c-.9-.61-1.69-1.08-1.88-1.19A2.66,2.66,0,0,1,151.83,303.05Z" />
  <path class="GUNDAN_GOAT_JEWELRY_GUNDAN_GOAT_JEWELRY_7_cls-2" d="M173.53,318a2.84,2.84,0,0,0-.59-1.75h0a11.55,11.55,0,0,1,5.92,2.74,6,6,0,0,1,1.66,2.71c-.1-.05-.21-.09-.29-.14a5.47,5.47,0,0,0-2.36-.59A8.88,8.88,0,0,0,173.53,318Z" />
  <path class="GUNDAN_GOAT_JEWELRY_GUNDAN_GOAT_JEWELRY_7_cls-2" d="M165.25,310.2a9.17,9.17,0,0,0-4.37-2.43,3.07,3.07,0,0,0-.77-1.71,11.81,11.81,0,0,1,6.15,2.34,5.48,5.48,0,0,1,2.05,3.17l-.21-.17A4.45,4.45,0,0,0,165.25,310.2Z" />
  <path class="GUNDAN_GOAT_JEWELRY_GUNDAN_GOAT_JEWELRY_7_cls-1" d="M165.49,315.17a7.38,7.38,0,0,1-5.23-1.15c-2.56-1.62-4.32-3.4-3.95-5a3.56,3.56,0,0,1,1.6-2,4.61,4.61,0,0,1,.67,1.15h0a1.46,1.46,0,0,0-.44.9,1.23,1.23,0,0,0,0,.62c.27.79,3,3.12,5.22,3.61h0a2.34,2.34,0,0,0,2.06-.35,1.49,1.49,0,0,0,.44-.52c.37.26,1.08.77,1.84,1.37h0a3.26,3.26,0,0,1-.41.42A3.68,3.68,0,0,1,165.49,315.17Z" />
  <path class="GUNDAN_GOAT_JEWELRY_GUNDAN_GOAT_JEWELRY_7_cls-3" d="M163.43,313.32h0c-.71-.74-1-1.43-.44-2.08a3.1,3.1,0,0,1,2.27-1,4.45,4.45,0,0,1,2.85,1.2l.21.17h0a24.81,24.81,0,0,1,4.62,4.65h0a2.84,2.84,0,0,1,.59,1.75h0a1.25,1.25,0,0,1-.36.8,2.91,2.91,0,0,1-2.47,1,1.26,1.26,0,0,1,0-.64,1.71,1.71,0,0,1,.52-.87,4.64,4.64,0,0,0-.57-1.21c-.16-.29-.38-.62-.65-1a11.75,11.75,0,0,0-2.24-2.21c-.76-.6-1.47-1.11-1.84-1.37a1.49,1.49,0,0,1-.44.52A2.34,2.34,0,0,1,163.43,313.32Z" />
  <path class="GUNDAN_GOAT_JEWELRY_GUNDAN_GOAT_JEWELRY_7_cls-1" d="M167.77,313.82A11.75,11.75,0,0,1,170,316c.27.4.49.73.65,1a3.87,3.87,0,0,0-1.76,1.87s-1.75-2.13-3.41-3.75a3.68,3.68,0,0,0,1.86-.92,3.26,3.26,0,0,0,.41-.42Z" />
  <path class="GUNDAN_GOAT_JEWELRY_GUNDAN_GOAT_JEWELRY_7_cls-1" d="M170.71,319.77c.18.78,2.52,3.15,4.65,3.86a2.47,2.47,0,0,0,2.29-.14,2,2,0,0,0,.53-.55c.2.07,1.09.39,2.14.84a3.57,3.57,0,0,1-.94,1.13,4.11,4.11,0,0,1-1,.55,6.59,6.59,0,0,1-6-1.25c-2.41-1.79-4-3.67-3.47-5.29a3.87,3.87,0,0,1,1.76-1.87,4.64,4.64,0,0,1,.57,1.21,1.71,1.71,0,0,0-.52.87A1.26,1.26,0,0,0,170.71,319.77Z" />
  <path class="GUNDAN_GOAT_JEWELRY_GUNDAN_GOAT_JEWELRY_7_cls-1" d="M183.6,325.56c.39.32.7.59,1,.83h0a3.3,3.3,0,0,0-1.1,2.17h0a52.83,52.83,0,0,0-5.08-3.1h0a4.11,4.11,0,0,0,1-.55,3.57,3.57,0,0,0,.94-1.13A15.72,15.72,0,0,1,183.6,325.56Z" />
  <path class="GUNDAN_GOAT_JEWELRY_GUNDAN_GOAT_JEWELRY_7_cls-3" d="M184.55,326.39c-.25-.24-.56-.51-1-.83a15.72,15.72,0,0,0-3.28-1.78c-1-.45-1.94-.77-2.14-.84a2,2,0,0,1-.53.55,2.47,2.47,0,0,1-2.29.14,1,1,0,0,1-.15-1.11,2.81,2.81,0,0,1,2.65-1.57,5.47,5.47,0,0,1,2.36.59c.08,0,.19.09.29.14a46,46,0,0,1,6,3.43l1.06,1.27a2.47,2.47,0,0,1,.1.29,1.26,1.26,0,0,1-.1.85,2.55,2.55,0,0,1-2.08,1.46,1.28,1.28,0,0,1-.21-.6,1.35,1.35,0,0,1,.23-.95,6,6,0,0,0-.95-1Z" />
  <path class="GUNDAN_GOAT_JEWELRY_GUNDAN_GOAT_JEWELRY_7_cls-2" d="M192.54,328.33a10.21,10.21,0,0,0-4.87-1.66,2.47,2.47,0,0,0-.1-.29l-1.06-1.27a12.74,12.74,0,0,1,6.62,1.32,7.14,7.14,0,0,1,2.43,2.13,4.46,4.46,0,0,0-2.68-.33Z" />
  <path class="GUNDAN_GOAT_JEWELRY_GUNDAN_GOAT_JEWELRY_7_cls-3" d="M192.06,331.6c-.91-.56-1.4-1.16-1.07-1.9a2.64,2.64,0,0,1,1.55-1.37l.34-.1a4.46,4.46,0,0,1,2.68.33c.14.06.3.12.45.2l.25.13h0a29.46,29.46,0,0,1,6,3.46h0a3.39,3.39,0,0,1,1.15,1.56,1.31,1.31,0,0,1-.1.85,2.6,2.6,0,0,1-2.1,1.45,1.28,1.28,0,0,1-.21-.61,1.43,1.43,0,0,1,.24-.94h0a5.8,5.8,0,0,0-.94-1c-.24-.24-.56-.52-1-.84a16.12,16.12,0,0,0-3.27-1.82c-1.2-.51-2.18-.87-2.18-.87h-.1a1.47,1.47,0,0,1-.37.91,1.84,1.84,0,0,1-1.33.61v0Z" />
  <path class="GUNDAN_GOAT_JEWELRY_GUNDAN_GOAT_JEWELRY_7_cls-2" d="M208.87,333.72a6.91,6.91,0,0,1,2.47,2.23c-.11,0-.22-.05-.31-.06a6,6,0,0,0-2.5-.07,10.16,10.16,0,0,0-5.12-1.9,3.39,3.39,0,0,0-1.15-1.56A12.6,12.6,0,0,1,208.87,333.72Z" />
  <path class="GUNDAN_GOAT_JEWELRY_GUNDAN_GOAT_JEWELRY_7_cls-1" d="M210.47,340c-1.47,1-3.87,1.06-6.25.08-2.9-1.18-5-2.66-5-4.31h0a3.25,3.25,0,0,1,1.13-2.16,5.8,5.8,0,0,1,.94,1h0a1.43,1.43,0,0,0-.24.94,1.28,1.28,0,0,0,.21.61c.43.71,3.44,2.48,5.75,2.7a2.32,2.32,0,0,0,2.17-.62,1.7,1.7,0,0,0,.35-.64c.24,0,1.21.15,2.35.35a2.94,2.94,0,0,1-.56,1.27,3.52,3.52,0,0,1-.79.75Z" />
  <path class="GUNDAN_GOAT_JEWELRY_GUNDAN_GOAT_JEWELRY_7_cls-1" d="M216.39,341.92s-3.33-1.25-5.91-1.89a3.52,3.52,0,0,0,.79-.75,2.94,2.94,0,0,0,.56-1.27,19,19,0,0,1,3.75,1c.49.23.89.42,1.2.59A3,3,0,0,0,216.39,341.92Z" />
  <path class="GUNDAN_GOAT_JEWELRY_GUNDAN_GOAT_JEWELRY_7_cls-3" d="M207,338.92a1.09,1.09,0,0,1-.51-1,2.49,2.49,0,0,1,2.08-2.08,6,6,0,0,1,2.5.07c.09,0,.2.05.31.06h0a33.45,33.45,0,0,1,6.91,2,3.9,3.9,0,0,1,1.62,1.25,1.1,1.1,0,0,1,.19.82,2.26,2.26,0,0,1-1.57,1.85,1.54,1.54,0,0,1-.39-.53,1.29,1.29,0,0,1-.08-1h0a6.69,6.69,0,0,0-1.25-.78c-.31-.17-.71-.36-1.2-.59a19,19,0,0,0-3.75-1c-1.14-.2-2.11-.32-2.35-.35a1.7,1.7,0,0,1-.35.64A2.32,2.32,0,0,1,207,338.92Z" />
  <path class="GUNDAN_GOAT_JEWELRY_GUNDAN_GOAT_JEWELRY_7_cls-3" d="M216.78,339.6a6.69,6.69,0,0,1,1.25.78h0a1.29,1.29,0,0,0,.08,1,1.54,1.54,0,0,0,.39.53c.9.81,7.42,2.51,8.38.25,1.07-2.54-5.07-3.4-7-2.92a3.9,3.9,0,0,0-1.62-1.25,13.13,13.13,0,0,1,6.87-.15c3.38,1,4.81,2.93,4.14,4.78s-3.37,2.85-6.57,2.36-5.77-1.43-6.31-3h0A3,3,0,0,1,216.78,339.6Z" />
  <path class="GUNDAN_GOAT_JEWELRY_GUNDAN_GOAT_JEWELRY_7_cls-4" d="M146.8,296.86a5.12,5.12,0,0,0-.28-1.27c-.1-.3-.22-.68-.39-1.12a10.07,10.07,0,0,0-1.53-2.35" />
  <path class="GUNDAN_GOAT_JEWELRY_GUNDAN_GOAT_JEWELRY_7_cls-4" d="M144.36,297.15s-.48-1-1.15-2.12v0" />
  <path class="GUNDAN_GOAT_JEWELRY_GUNDAN_GOAT_JEWELRY_7_cls-4" d="M145.06,289.27l2.17-.6c.09.1-.41,3.08-.33,3.19,1.12,1.44,1.36,1.41,2,3.27a2.91,2.91,0,0,1,.16,1.85,1.36,1.36,0,0,1-.53.74,3,3,0,0,1-2.64.56" />
  <path class="GUNDAN_GOAT_JEWELRY_GUNDAN_GOAT_JEWELRY_7_cls-4" d="M146.8,296.87a1.79,1.79,0,0,0-.72.78,1.49,1.49,0,0,0-.15.62c0,.79,1.72,3.51,3.65,4.54a2.41,2.41,0,0,0,2.25.24,2.66,2.66,0,0,0,.66-.47" />
  <path class="GUNDAN_GOAT_JEWELRY_GUNDAN_GOAT_JEWELRY_7_cls-4" d="M152.64,300.57a7.9,7.9,0,0,0-3.54-3.6" />
  <path class="GUNDAN_GOAT_JEWELRY_GUNDAN_GOAT_JEWELRY_7_cls-4" d="M154.37,303.77a3.94,3.94,0,0,1-1.17.94,4.47,4.47,0,0,1-1.11.4,6.19,6.19,0,0,1-5.57-2.2c-1.94-2.13-3.05-4.25-2.16-5.76a4.34,4.34,0,0,1,2.16-1.56h0" />
  <path class="GUNDAN_GOAT_JEWELRY_GUNDAN_GOAT_JEWELRY_7_cls-4" d="M155.05,301.71a5.63,5.63,0,0,0-1-2.93,10.53,10.53,0,0,0-5.14-3.65" />
  <path class="GUNDAN_GOAT_JEWELRY_GUNDAN_GOAT_JEWELRY_7_cls-4" d="M158.58,308.17a4.61,4.61,0,0,0-.67-1.15c-.2-.27-.44-.6-.76-1a13.6,13.6,0,0,0-2.77-2.28h0c-.9-.61-1.69-1.08-1.88-1.19l-.06,0" />
  <path class="GUNDAN_GOAT_JEWELRY_GUNDAN_GOAT_JEWELRY_7_cls-4" d="M156.3,309a48.54,48.54,0,0,0-4.21-3.87" />
  <path class="GUNDAN_GOAT_JEWELRY_GUNDAN_GOAT_JEWELRY_7_cls-4" d="M149.58,302.81a1,1,0,0,1,.1-1.11,3,3,0,0,1,3-1.13,5.05,5.05,0,0,1,2.16,1c.08,0,.15.11.25.17h0a26.21,26.21,0,0,1,5.05,4.34,3.07,3.07,0,0,1,.77,1.71,1.34,1.34,0,0,1-.3.82,2.75,2.75,0,0,1-2.38,1.11" />
  <path class="GUNDAN_GOAT_JEWELRY_GUNDAN_GOAT_JEWELRY_7_cls-4" d="M163.43,313.32a2.34,2.34,0,0,0,2.06-.35,1.49,1.49,0,0,0,.44-.52" />
  <path class="GUNDAN_GOAT_JEWELRY_GUNDAN_GOAT_JEWELRY_7_cls-4" d="M158.59,308.18a1.46,1.46,0,0,0-.44.9,1.23,1.23,0,0,0,0,.62c.27.79,3,3.12,5.22,3.61" />
  <path class="GUNDAN_GOAT_JEWELRY_GUNDAN_GOAT_JEWELRY_7_cls-4" d="M165.25,310.2a9.17,9.17,0,0,0-4.37-2.43h0" />
  <path class="GUNDAN_GOAT_JEWELRY_GUNDAN_GOAT_JEWELRY_7_cls-4" d="M157.91,307v0a3.56,3.56,0,0,0-1.6,2c-.37,1.64,1.39,3.42,3.95,5a7.38,7.38,0,0,0,5.23,1.15,3.68,3.68,0,0,0,1.86-.92,3.26,3.26,0,0,0,.41-.42" />
  <path class="GUNDAN_GOAT_JEWELRY_GUNDAN_GOAT_JEWELRY_7_cls-4" d="M168.31,311.57a5.48,5.48,0,0,0-2.05-3.17,11.81,11.81,0,0,0-6.15-2.34h0" />
  <path class="GUNDAN_GOAT_JEWELRY_GUNDAN_GOAT_JEWELRY_7_cls-4" d="M171.23,318.26a4.64,4.64,0,0,0-.57-1.21c-.16-.29-.38-.62-.65-1a11.75,11.75,0,0,0-2.24-2.21c-.76-.6-1.47-1.11-1.84-1.37l-.29-.2" />
  <path class="GUNDAN_GOAT_JEWELRY_GUNDAN_GOAT_JEWELRY_7_cls-4" d="M168.9,318.92s-1.75-2.13-3.41-3.75" />
  <path class="GUNDAN_GOAT_JEWELRY_GUNDAN_GOAT_JEWELRY_7_cls-4" d="M163.43,313.32h0c-.71-.74-1-1.43-.44-2.08a3.1,3.1,0,0,1,2.27-1,4.45,4.45,0,0,1,2.85,1.2l.21.17h0a24.81,24.81,0,0,1,4.62,4.65h0a2.84,2.84,0,0,1,.59,1.75h0a1.25,1.25,0,0,1-.36.8,2.91,2.91,0,0,1-2.47,1h0" />
  <path class="GUNDAN_GOAT_JEWELRY_GUNDAN_GOAT_JEWELRY_7_cls-4" d="M171.23,318.26a1.71,1.71,0,0,0-.52.87,1.26,1.26,0,0,0,0,.64c.18.78,2.52,3.15,4.65,3.86a2.47,2.47,0,0,0,2.29-.14,2,2,0,0,0,.53-.55" />
  <path class="GUNDAN_GOAT_JEWELRY_GUNDAN_GOAT_JEWELRY_7_cls-4" d="M177.86,321a8.88,8.88,0,0,0-4.33-3" />
  <path class="GUNDAN_GOAT_JEWELRY_GUNDAN_GOAT_JEWELRY_7_cls-4" d="M180.32,323.78a3.57,3.57,0,0,1-.94,1.13,4.11,4.11,0,0,1-1,.55,6.59,6.59,0,0,1-6-1.25c-2.41-1.79-4-3.67-3.47-5.29a3.87,3.87,0,0,1,1.76-1.87h0" />
  <path class="GUNDAN_GOAT_JEWELRY_GUNDAN_GOAT_JEWELRY_7_cls-4" d="M180.51,321.68a6,6,0,0,0-1.66-2.71,11.55,11.55,0,0,0-5.92-2.74" />
  <path class="GUNDAN_GOAT_JEWELRY_GUNDAN_GOAT_JEWELRY_7_cls-4" d="M184.55,326.39c-.25-.24-.56-.51-1-.83a15.72,15.72,0,0,0-3.28-1.78c-1-.45-1.94-.77-2.14-.84l-.05,0" />
  <path class="GUNDAN_GOAT_JEWELRY_GUNDAN_GOAT_JEWELRY_7_cls-4" d="M185.51,327.43a6,6,0,0,0-.95-1" />
  <path class="GUNDAN_GOAT_JEWELRY_GUNDAN_GOAT_JEWELRY_7_cls-4" d="M183.45,328.57a52.83,52.83,0,0,0-5.08-3.1" />
  <path class="GUNDAN_GOAT_JEWELRY_GUNDAN_GOAT_JEWELRY_7_cls-4" d="M175.36,323.63a1,1,0,0,1-.15-1.11,2.81,2.81,0,0,1,2.65-1.57,5.47,5.47,0,0,1,2.36.59c.08,0,.19.09.29.14a46,46,0,0,1,6,3.43l1.06,1.27a2.47,2.47,0,0,1,.1.29,1.26,1.26,0,0,1-.1.85,2.55,2.55,0,0,1-2.08,1.46" />
  <path class="GUNDAN_GOAT_JEWELRY_GUNDAN_GOAT_JEWELRY_7_cls-4" d="M187.66,326.67h0a10.21,10.21,0,0,1,4.87,1.66" />
  <path class="GUNDAN_GOAT_JEWELRY_GUNDAN_GOAT_JEWELRY_7_cls-4" d="M193.8,330.11a1.47,1.47,0,0,1-.37.91,1.84,1.84,0,0,1-1.33.61h0c-2.31.26-6.1-1.87-6.58-2.66a1.28,1.28,0,0,1-.21-.6,1.35,1.35,0,0,1,.23-.95" />
  <path class="GUNDAN_GOAT_JEWELRY_GUNDAN_GOAT_JEWELRY_7_cls-4" d="M186.5,325.11h0a12.74,12.74,0,0,1,6.62,1.32,7.14,7.14,0,0,1,2.43,2.13" />
  <path class="GUNDAN_GOAT_JEWELRY_GUNDAN_GOAT_JEWELRY_7_cls-4" d="M196.08,331a3,3,0,0,1-.5,1,3.3,3.3,0,0,1-1,.87l0,0a7.15,7.15,0,0,1-6,0c-2.91-1.17-5.07-2.62-5.07-4.29a3.3,3.3,0,0,1,1.1-2.17h0" />
  <path class="GUNDAN_GOAT_JEWELRY_GUNDAN_GOAT_JEWELRY_7_cls-4" d="M193.9,330.11s1,.36,2.18.87a16.12,16.12,0,0,1,3.27,1.82c.39.32.71.6,1,.84a5.8,5.8,0,0,1,.94,1" />
  <path class="GUNDAN_GOAT_JEWELRY_GUNDAN_GOAT_JEWELRY_7_cls-4" d="M199.17,335.8s-2.46-1.74-4.6-2.92" />
  <path class="GUNDAN_GOAT_JEWELRY_GUNDAN_GOAT_JEWELRY_7_cls-4" d="M201.19,336.22h0a2.6,2.6,0,0,0,2.1-1.45,1.31,1.31,0,0,0,.1-.85,3.39,3.39,0,0,0-1.15-1.56h0a29.46,29.46,0,0,0-6-3.46h0l-.25-.13c-.15-.08-.31-.14-.45-.2a4.46,4.46,0,0,0-2.68-.33l-.34.1A2.64,2.64,0,0,0,191,329.7c-.33.74.16,1.34,1.07,1.9h0" />
  <path class="GUNDAN_GOAT_JEWELRY_GUNDAN_GOAT_JEWELRY_7_cls-4" d="M201.24,334.67a1.43,1.43,0,0,0-.24.94,1.28,1.28,0,0,0,.21.61c.43.71,3.44,2.48,5.75,2.7a2.32,2.32,0,0,0,2.17-.62,1.7,1.7,0,0,0,.35-.64" />
  <path class="GUNDAN_GOAT_JEWELRY_GUNDAN_GOAT_JEWELRY_7_cls-4" d="M208.53,335.82a10.16,10.16,0,0,0-5.12-1.9h0" />
  <path class="GUNDAN_GOAT_JEWELRY_GUNDAN_GOAT_JEWELRY_7_cls-4" d="M210.47,340c-1.47,1-3.87,1.06-6.25.08-2.9-1.18-5-2.66-5-4.31h0a3.25,3.25,0,0,1,1.13-2.16h0" />
  <path class="GUNDAN_GOAT_JEWELRY_GUNDAN_GOAT_JEWELRY_7_cls-4" d="M211.83,338a2.94,2.94,0,0,1-.56,1.27,3.52,3.52,0,0,1-.79.75" />
  <path class="GUNDAN_GOAT_JEWELRY_GUNDAN_GOAT_JEWELRY_7_cls-4" d="M211.34,336a6.91,6.91,0,0,0-2.47-2.23,12.6,12.6,0,0,0-6.61-1.36h0" />
  <path class="GUNDAN_GOAT_JEWELRY_GUNDAN_GOAT_JEWELRY_7_cls-4" d="M218,340.38a6.69,6.69,0,0,0-1.25-.78c-.31-.17-.71-.36-1.2-.59a19,19,0,0,0-3.75-1c-1.14-.2-2.11-.32-2.35-.35h-.07" />
  <path class="GUNDAN_GOAT_JEWELRY_GUNDAN_GOAT_JEWELRY_7_cls-4" d="M216.39,341.92s-3.33-1.25-5.91-1.89h0" />
  <path class="GUNDAN_GOAT_JEWELRY_GUNDAN_GOAT_JEWELRY_7_cls-4" d="M207,338.92a1.09,1.09,0,0,1-.51-1,2.49,2.49,0,0,1,2.08-2.08,6,6,0,0,1,2.5.07c.09,0,.2.05.31.06h0a33.45,33.45,0,0,1,6.91,2,3.9,3.9,0,0,1,1.62,1.25,1.1,1.1,0,0,1,.19.82,2.26,2.26,0,0,1-1.57,1.85" />
  <path class="GUNDAN_GOAT_JEWELRY_GUNDAN_GOAT_JEWELRY_7_cls-4" d="M219.88,339.21c1.93-.48,8.07.38,7,2.92-1,2.26-7.48.56-8.38-.25a1.54,1.54,0,0,1-.39-.53,1.29,1.29,0,0,1-.08-1" />
  <path class="GUNDAN_GOAT_JEWELRY_GUNDAN_GOAT_JEWELRY_7_cls-4" d="M218.25,338h0a13.13,13.13,0,0,1,6.87-.15c3.38,1,4.81,2.93,4.14,4.78s-3.37,2.85-6.57,2.36-5.77-1.43-6.31-3h0a3,3,0,0,1,.39-2.32" />
  <path class="GUNDAN_GOAT_JEWELRY_GUNDAN_GOAT_JEWELRY_7_cls-4" d="M145.07,289.27h0c-2.34.81-2.68,4-1.86,5.73v0" />
  <path d="M297,298.05c-.38-1.42-.57-2.13-1-3.54a4.37,4.37,0,0,1,3.8,1.21" />
  <path class="GUNDAN_GOAT_JEWELRY_GUNDAN_GOAT_JEWELRY_7_cls-1" d="M246.67,340.11s2.66-1.39,4.89-2.31c0,0,0,0,0,0a3.17,3.17,0,0,1-.86-1,2.82,2.82,0,0,1-.37-1.05,16.69,16.69,0,0,0-3.41,1.38,12.48,12.48,0,0,0-1,.71A3.22,3.22,0,0,1,246.67,340.11Z" />
  <path class="GUNDAN_GOAT_JEWELRY_GUNDAN_GOAT_JEWELRY_7_cls-1" d="M260.86,334.82c-.53.74-4.47,2.52-6.71,2h0a1.78,1.78,0,0,1-1.25-.76,1.44,1.44,0,0,1-.26-.93h-.1s-1,.25-2.22.61a2.82,2.82,0,0,0,.37,1.05,3.17,3.17,0,0,0,.86,1s0,0,0,0a6.88,6.88,0,0,0,5.95.61c3-.89,5.24-2.2,5.38-3.85a3.35,3.35,0,0,0-.92-2.24,5.54,5.54,0,0,0-1,.95,1.39,1.39,0,0,1,.14,1A1.2,1.2,0,0,1,260.86,334.82Z" />
  <path class="GUNDAN_GOAT_JEWELRY_GUNDAN_GOAT_JEWELRY_7_cls-1" d="M295.63,303.19a1.43,1.43,0,0,0,.57.7,2.61,2.61,0,0,0,2.52.37,1.75,1.75,0,0,0-.19-.61,1.86,1.86,0,0,0-.76-.72h0a5.13,5.13,0,0,1,.13-1.28,4.11,4.11,0,0,1,2.17,1.38s.36-1,.86-2.2v0c.57-1.82-.13-4.91-2.37-5.54h0c-2.27-.68-1.42,2.5-1.48,2.62a10.51,10.51,0,0,0-1.47,3.47A3.21,3.21,0,0,0,295.63,303.19Z" />
  <path class="GUNDAN_GOAT_JEWELRY_GUNDAN_GOAT_JEWELRY_7_cls-2" d="M295.63,303.19a3,3,0,0,1,0-1.85,9.9,9.9,0,0,0-4.49,3.91,5.89,5.89,0,0,0-.73,3c.09-.06.16-.14.23-.18a4.57,4.57,0,0,1,2-1.06A7.53,7.53,0,0,1,295.63,303.19Z" />
  <path class="GUNDAN_GOAT_JEWELRY_GUNDAN_GOAT_JEWELRY_7_cls-1" d="M300.08,303a4.08,4.08,0,0,0-2.17-1.38,5.13,5.13,0,0,0-.13,1.28h0a1.73,1.73,0,0,1,.75.72,1.57,1.57,0,0,1,.2.61c.07.79-1.31,3.63-3.06,4.77a2.17,2.17,0,0,1-2.12.36,2.45,2.45,0,0,1-.65-.43c-.17.12-.89.63-1.71,1.27a3.63,3.63,0,0,0,1.17.89,3.77,3.77,0,0,0,1.08.34,5.62,5.62,0,0,0,5.14-2.53C300.24,306.66,301.07,304.45,300.08,303Z" />
  <path class="GUNDAN_GOAT_JEWELRY_GUNDAN_GOAT_JEWELRY_7_cls-1" d="M293.43,311.46a3.77,3.77,0,0,1-1.08-.34,3.63,3.63,0,0,1-1.17-.89h0a13.38,13.38,0,0,0-2.51,2.37c-.28.39-.5.72-.67,1a3.59,3.59,0,0,1,1.6,1.91h0A54.12,54.12,0,0,1,293.43,311.46Z" />
  <path class="GUNDAN_GOAT_JEWELRY_GUNDAN_GOAT_JEWELRY_7_cls-3" d="M293.54,309.39a2.17,2.17,0,0,0,2.12-.36,1.07,1.07,0,0,0-.18-1.1,2.84,2.84,0,0,0-2.87-1,4.57,4.57,0,0,0-2,1.06c-.07,0-.14.12-.23.18h0a26.42,26.42,0,0,0-4.55,4.48,3.13,3.13,0,0,0-.67,1.72,1.35,1.35,0,0,0,.3.81,2.61,2.61,0,0,0,2.32,1.06,1.33,1.33,0,0,0,0-.62,1.51,1.51,0,0,0-.45-.89h0a4.56,4.56,0,0,1,.6-1.17c.17-.28.39-.61.67-1a13.38,13.38,0,0,1,2.51-2.37h0c.82-.64,1.54-1.15,1.71-1.27A2.45,2.45,0,0,0,293.54,309.39Z" />
  <path class="GUNDAN_GOAT_JEWELRY_GUNDAN_GOAT_JEWELRY_7_cls-2" d="M273.09,324.54a2.89,2.89,0,0,1,.61-1.73h0a11.29,11.29,0,0,0-5.78,2.49,6.15,6.15,0,0,0-1.73,2.61l.29-.12a5.25,5.25,0,0,1,2.31-.46A8.6,8.6,0,0,1,273.09,324.54Z" />
  <path class="GUNDAN_GOAT_JEWELRY_GUNDAN_GOAT_JEWELRY_7_cls-2" d="M281.08,316.89a8.68,8.68,0,0,1,4.11-2.47,3.13,3.13,0,0,1,.67-1.72,11.19,11.19,0,0,0-5.77,2.39,5.43,5.43,0,0,0-1.91,3.15l.19-.17A4.19,4.19,0,0,1,281.08,316.89Z" />
  <path class="GUNDAN_GOAT_JEWELRY_GUNDAN_GOAT_JEWELRY_7_cls-1" d="M280.9,321.85a6.7,6.7,0,0,0,5-1.2c2.44-1.66,4.08-3.51,3.65-5.14a3.59,3.59,0,0,0-1.6-1.91,4.56,4.56,0,0,0-.6,1.17h0a1.51,1.51,0,0,1,.45.89,1.33,1.33,0,0,1,0,.62c-.23.79-2.78,3.19-4.93,3.7h0a2.15,2.15,0,0,1-2-.33,1.48,1.48,0,0,1-.43-.53c-.36.26-1,.77-1.76,1.36v0a3.81,3.81,0,0,0,.39.42A3.57,3.57,0,0,0,280.9,321.85Z" />
  <path class="GUNDAN_GOAT_JEWELRY_GUNDAN_GOAT_JEWELRY_7_cls-3" d="M282.87,320h0c.67-.75.92-1.44.39-2.09a3,3,0,0,0-2.19-1,4.19,4.19,0,0,0-2.71,1.18l-.19.17h0a26,26,0,0,0-4.46,4.55h0a2.89,2.89,0,0,0-.61,1.73h0a1.24,1.24,0,0,0,.33.8,2.71,2.71,0,0,0,2.37,1,1.36,1.36,0,0,0,0-.63,1.68,1.68,0,0,0-.5-.88,5.53,5.53,0,0,1,.58-1.2c.16-.29.38-.61.64-1a12,12,0,0,1,2.17-2.17c.72-.59,1.4-1.1,1.76-1.36a1.48,1.48,0,0,0,.43.53A2.15,2.15,0,0,0,282.87,320Z" />
  <path class="GUNDAN_GOAT_JEWELRY_GUNDAN_GOAT_JEWELRY_7_cls-1" d="M278.7,320.49a12,12,0,0,0-2.17,2.17c-.26.4-.48.72-.64,1a3.9,3.9,0,0,1,1.68,1.9s1.72-2.11,3.33-3.72a3.57,3.57,0,0,1-1.8-.92,3.81,3.81,0,0,1-.39-.42Z" />
  <path class="GUNDAN_GOAT_JEWELRY_GUNDAN_GOAT_JEWELRY_7_cls-1" d="M275.79,326.38c-.19.78-2.55,3.1-4.67,3.72a2.32,2.32,0,0,1-2.22-.25,2,2,0,0,1-.49-.57c-.2.06-1.09.33-2.13.72a3.41,3.41,0,0,0,.85,1.18,3.53,3.53,0,0,0,1,.6,6.28,6.28,0,0,0,6-1c2.44-1.71,4-3.58,3.53-5.21a3.9,3.9,0,0,0-1.68-1.9,5.53,5.53,0,0,0-.58,1.2,1.68,1.68,0,0,1,.5.88A1.36,1.36,0,0,1,275.79,326.38Z" />
  <path class="GUNDAN_GOAT_JEWELRY_GUNDAN_GOAT_JEWELRY_7_cls-1" d="M263,331.56c-.4.29-.73.53-1,.75h0a3.28,3.28,0,0,1,.92,2.24h0s2.9-1.75,5.19-2.78h0a3.53,3.53,0,0,1-1-.6,3.41,3.41,0,0,1-.85-1.18A15.94,15.94,0,0,0,263,331.56Z" />
  <path class="GUNDAN_GOAT_JEWELRY_GUNDAN_GOAT_JEWELRY_7_cls-3" d="M262,332.31c.26-.22.59-.46,1-.75a15.94,15.94,0,0,1,3.31-1.56c1-.39,1.93-.66,2.13-.72a2,2,0,0,0,.49.57,2.32,2.32,0,0,0,2.22.25,1,1,0,0,0,.2-1.11,2.74,2.74,0,0,0-2.52-1.67,5.25,5.25,0,0,0-2.31.46l-.29.12a53.16,53.16,0,0,0-6,3L259,332.06c0,.09-.09.19-.12.28a1.31,1.31,0,0,0,0,.85,2.51,2.51,0,0,0,1.92,1.63,1.2,1.2,0,0,0,.25-.59,1.39,1.39,0,0,0-.14-1,5.54,5.54,0,0,1,1-.95Z" />
  <path class="GUNDAN_GOAT_JEWELRY_GUNDAN_GOAT_JEWELRY_7_cls-2" d="M254,333.52a10.16,10.16,0,0,1,4.89-1.18c0-.09.08-.19.12-.28l1.13-1.17a12.76,12.76,0,0,0-6.53.7,7,7,0,0,0-2.57,1.83,4.38,4.38,0,0,1,2.64,0Z" />
  <path class="GUNDAN_GOAT_JEWELRY_GUNDAN_GOAT_JEWELRY_7_cls-3" d="M254.16,336.81c1-.46,1.49-1,1.24-1.77a2.63,2.63,0,0,0-1.37-1.52l-.32-.13a4.38,4.38,0,0,0-2.64,0,4.59,4.59,0,0,0-.45.14,1.53,1.53,0,0,0-.27.11h0a31.46,31.46,0,0,0-6.22,2.63h0a3.43,3.43,0,0,0-1.33,1.37,1.37,1.37,0,0,0,0,.85,2.6,2.6,0,0,0,1.86,1.73,1.26,1.26,0,0,0,.28-.57,1.4,1.4,0,0,0-.1-1h0a5.6,5.6,0,0,1,1.06-.87,12.48,12.48,0,0,1,1-.71,16.36,16.36,0,0,1,3.41-1.38c1.21-.37,2.22-.61,2.22-.61h.1a1.44,1.44,0,0,0,.26.93,1.78,1.78,0,0,0,1.25.76v0Z" />
  <path class="GUNDAN_GOAT_JEWELRY_GUNDAN_GOAT_JEWELRY_7_cls-2" d="M237.52,336.63a6.83,6.83,0,0,0-2.74,1.76h.31a5.82,5.82,0,0,1,2.43.36,10.05,10.05,0,0,1,5.26-1.08,3.43,3.43,0,0,1,1.33-1.37A13,13,0,0,0,237.52,336.63Z" />
  <path class="GUNDAN_GOAT_JEWELRY_GUNDAN_GOAT_JEWELRY_7_cls-1" d="M234.94,342.53c1.26,1.22,3.63,1.7,6.13,1.11,3.05-.72,5.38-1.89,5.6-3.52h0a3.22,3.22,0,0,0-.81-2.27,5.6,5.6,0,0,0-1.06.87h0a1.4,1.4,0,0,1,.1,1,1.26,1.26,0,0,1-.28.57c-.53.63-3.76,1.94-6.06,1.78a2.3,2.3,0,0,1-2-1,1.73,1.73,0,0,1-.24-.69c-.23,0-1.2-.06-2.35-.06a2.94,2.94,0,0,0,.33,1.33,3.71,3.71,0,0,0,.65.88Z" />
  <path class="GUNDAN_GOAT_JEWELRY_GUNDAN_GOAT_JEWELRY_7_cls-1" d="M228.8,343.27s3.49-.58,6.13-.74a3.71,3.71,0,0,1-.65-.88,2.94,2.94,0,0,1-.33-1.33,19.51,19.51,0,0,0-3.82.28c-.51.12-.93.23-1.28.34A3,3,0,0,1,228.8,343.27Z" />
  <path class="GUNDAN_GOAT_JEWELRY_GUNDAN_GOAT_JEWELRY_7_cls-3" d="M238.56,342a1.06,1.06,0,0,0,.66-.92,2.47,2.47,0,0,0-1.7-2.36,5.82,5.82,0,0,0-2.43-.36h-.33a37.25,37.25,0,0,0-7,.66,3.79,3.79,0,0,0-1.79.88,1.1,1.1,0,0,0-.35.76,2.28,2.28,0,0,0,1.16,2.12,1.59,1.59,0,0,0,.48-.44,1.27,1.27,0,0,0,.26-.91h0a6.86,6.86,0,0,1,1.35-.51c.35-.11.77-.22,1.28-.34a19.51,19.51,0,0,1,3.82-.28c1.15,0,2.12.05,2.35.06a1.73,1.73,0,0,0,.24.69A2.3,2.3,0,0,0,238.56,342Z" />
  <path class="GUNDAN_GOAT_JEWELRY_GUNDAN_GOAT_JEWELRY_7_cls-5" d="M297.78,302.92a5.13,5.13,0,0,1,.13-1.28c.06-.31.14-.69.25-1.14a10.66,10.66,0,0,1,1.17-2.46" />
  <path class="GUNDAN_GOAT_JEWELRY_GUNDAN_GOAT_JEWELRY_7_cls-5" d="M300.08,303s.36-1,.86-2.2v0" />
  <path class="GUNDAN_GOAT_JEWELRY_GUNDAN_GOAT_JEWELRY_7_cls-5" d="M298.58,295.25l-2.06-.43c-.06.11.72,3,.66,3.14a8.43,8.43,0,0,0-1.56,3.38,3.12,3.12,0,0,0,0,1.85,1.43,1.43,0,0,0,.57.7,2.64,2.64,0,0,0,2.52.37" />
  <path class="GUNDAN_GOAT_JEWELRY_GUNDAN_GOAT_JEWELRY_7_cls-5" d="M297.77,302.93a1.73,1.73,0,0,1,.75.72,1.57,1.57,0,0,1,.2.61c.07.79-1.31,3.63-3.06,4.77a2.17,2.17,0,0,1-2.12.36,2.45,2.45,0,0,1-.65-.43" />
  <path class="GUNDAN_GOAT_JEWELRY_GUNDAN_GOAT_JEWELRY_7_cls-5" d="M292.61,307a7.53,7.53,0,0,1,3-3.78" />
  <path class="GUNDAN_GOAT_JEWELRY_GUNDAN_GOAT_JEWELRY_7_cls-5" d="M291.18,310.23a3.63,3.63,0,0,0,1.17.89,3.77,3.77,0,0,0,1.08.34,5.62,5.62,0,0,0,5.14-2.53c1.67-2.27,2.49-4.48,1.51-5.91a4.08,4.08,0,0,0-2.17-1.38h0" />
  <path class="GUNDAN_GOAT_JEWELRY_GUNDAN_GOAT_JEWELRY_7_cls-5" d="M290.41,308.21a5.89,5.89,0,0,1,.73-3,9.9,9.9,0,0,1,4.49-3.91" />
  <path class="GUNDAN_GOAT_JEWELRY_GUNDAN_GOAT_JEWELRY_7_cls-5" d="M287.39,314.77a4.56,4.56,0,0,1,.6-1.17c.17-.28.39-.61.67-1a13.38,13.38,0,0,1,2.51-2.37h0c.82-.64,1.54-1.15,1.71-1.27l.05,0" />
  <path class="GUNDAN_GOAT_JEWELRY_GUNDAN_GOAT_JEWELRY_7_cls-5" d="M289.6,315.51a54.12,54.12,0,0,1,3.83-4.05" />
  <path class="GUNDAN_GOAT_JEWELRY_GUNDAN_GOAT_JEWELRY_7_cls-5" d="M295.66,309a1.07,1.07,0,0,0-.18-1.1,2.84,2.84,0,0,0-2.87-1,4.57,4.57,0,0,0-2,1.06c-.07,0-.14.12-.23.18h0a26.42,26.42,0,0,0-4.55,4.48,3.13,3.13,0,0,0-.67,1.72,1.35,1.35,0,0,0,.3.81,2.61,2.61,0,0,0,2.32,1.06" />
  <path class="GUNDAN_GOAT_JEWELRY_GUNDAN_GOAT_JEWELRY_7_cls-5" d="M282.87,320a2.15,2.15,0,0,1-2-.33,1.48,1.48,0,0,1-.43-.53" />
  <path class="GUNDAN_GOAT_JEWELRY_GUNDAN_GOAT_JEWELRY_7_cls-5" d="M287.39,314.78a1.51,1.51,0,0,1,.45.89,1.33,1.33,0,0,1,0,.62c-.23.79-2.78,3.19-4.93,3.7" />
  <path class="GUNDAN_GOAT_JEWELRY_GUNDAN_GOAT_JEWELRY_7_cls-5" d="M281.08,316.89a8.68,8.68,0,0,1,4.11-2.47h0" />
  <path class="GUNDAN_GOAT_JEWELRY_GUNDAN_GOAT_JEWELRY_7_cls-5" d="M288,313.59h0a3.59,3.59,0,0,1,1.6,1.91c.43,1.63-1.2,3.48-3.65,5.14a6.7,6.7,0,0,1-5,1.2,3.57,3.57,0,0,1-1.8-.92,3.81,3.81,0,0,1-.39-.42" />
  <path class="GUNDAN_GOAT_JEWELRY_GUNDAN_GOAT_JEWELRY_7_cls-5" d="M278.18,318.24a5.43,5.43,0,0,1,1.91-3.15,11.19,11.19,0,0,1,5.77-2.39h0" />
  <path class="GUNDAN_GOAT_JEWELRY_GUNDAN_GOAT_JEWELRY_7_cls-5" d="M275.31,324.87a5.53,5.53,0,0,1,.58-1.2c.16-.29.38-.61.64-1a12,12,0,0,1,2.17-2.17c.72-.59,1.4-1.1,1.76-1.36l.27-.19" />
  <path class="GUNDAN_GOAT_JEWELRY_GUNDAN_GOAT_JEWELRY_7_cls-5" d="M277.57,325.57s1.72-2.11,3.33-3.72" />
  <path class="GUNDAN_GOAT_JEWELRY_GUNDAN_GOAT_JEWELRY_7_cls-5" d="M282.87,320h0c.67-.75.92-1.44.39-2.09a3,3,0,0,0-2.19-1,4.19,4.19,0,0,0-2.71,1.18l-.19.17h0a26,26,0,0,0-4.46,4.55h0a2.89,2.89,0,0,0-.61,1.73h0a1.24,1.24,0,0,0,.33.8,2.71,2.71,0,0,0,2.37,1h0" />
  <path class="GUNDAN_GOAT_JEWELRY_GUNDAN_GOAT_JEWELRY_7_cls-5" d="M275.31,324.87a1.68,1.68,0,0,1,.5.88,1.36,1.36,0,0,1,0,.63c-.19.78-2.55,3.1-4.67,3.72a2.32,2.32,0,0,1-2.22-.25,2,2,0,0,1-.49-.57" />
  <path class="GUNDAN_GOAT_JEWELRY_GUNDAN_GOAT_JEWELRY_7_cls-5" d="M268.8,327.32a8.6,8.6,0,0,1,4.29-2.78" />
  <path class="GUNDAN_GOAT_JEWELRY_GUNDAN_GOAT_JEWELRY_7_cls-5" d="M266.28,330a3.41,3.41,0,0,0,.85,1.18,3.53,3.53,0,0,0,1,.6,6.28,6.28,0,0,0,6-1c2.44-1.71,4-3.58,3.53-5.21a3.9,3.9,0,0,0-1.68-1.9h0" />
  <path class="GUNDAN_GOAT_JEWELRY_GUNDAN_GOAT_JEWELRY_7_cls-5" d="M266.2,327.9a6.15,6.15,0,0,1,1.73-2.61,11.29,11.29,0,0,1,5.78-2.49" />
  <path class="GUNDAN_GOAT_JEWELRY_GUNDAN_GOAT_JEWELRY_7_cls-5" d="M262,332.31c.26-.22.59-.46,1-.75a15.94,15.94,0,0,1,3.31-1.56c1-.39,1.93-.66,2.13-.72l0,0" />
  <path class="GUNDAN_GOAT_JEWELRY_GUNDAN_GOAT_JEWELRY_7_cls-5" d="M261,333.27a5.54,5.54,0,0,1,1-.95" />
  <path class="GUNDAN_GOAT_JEWELRY_GUNDAN_GOAT_JEWELRY_7_cls-5" d="M262.9,334.57s2.9-1.75,5.19-2.78" />
  <path class="GUNDAN_GOAT_JEWELRY_GUNDAN_GOAT_JEWELRY_7_cls-5" d="M271.12,330.1a1,1,0,0,0,.2-1.11,2.74,2.74,0,0,0-2.52-1.67,5.25,5.25,0,0,0-2.31.46l-.29.12a53.16,53.16,0,0,0-6,3L259,332.06c0,.09-.09.19-.12.28a1.31,1.31,0,0,0,0,.85,2.51,2.51,0,0,0,1.92,1.63" />
  <path class="GUNDAN_GOAT_JEWELRY_GUNDAN_GOAT_JEWELRY_7_cls-5" d="M258.93,332.34h0a10.16,10.16,0,0,0-4.89,1.18" />
  <path class="GUNDAN_GOAT_JEWELRY_GUNDAN_GOAT_JEWELRY_7_cls-5" d="M252.62,335.15a1.44,1.44,0,0,0,.26.93,1.78,1.78,0,0,0,1.25.76h0c2.24.49,6.18-1.29,6.71-2a1.2,1.2,0,0,0,.25-.59,1.39,1.39,0,0,0-.14-1" />
  <path class="GUNDAN_GOAT_JEWELRY_GUNDAN_GOAT_JEWELRY_7_cls-5" d="M260.18,330.89h0a12.76,12.76,0,0,0-6.53.7,7,7,0,0,0-2.57,1.83" />
  <path class="GUNDAN_GOAT_JEWELRY_GUNDAN_GOAT_JEWELRY_7_cls-5" d="M250.3,335.75a2.82,2.82,0,0,0,.37,1.05,3.17,3.17,0,0,0,.86,1s0,0,0,0a6.88,6.88,0,0,0,5.95.61c3-.89,5.25-2.19,5.38-3.85a3.28,3.28,0,0,0-.92-2.24h0" />
  <path class="GUNDAN_GOAT_JEWELRY_GUNDAN_GOAT_JEWELRY_7_cls-5" d="M252.52,335.14s-1,.25-2.22.61a16.69,16.69,0,0,0-3.41,1.38,12.48,12.48,0,0,0-1,.71,5.6,5.6,0,0,0-1.06.87" />
  <path class="GUNDAN_GOAT_JEWELRY_GUNDAN_GOAT_JEWELRY_7_cls-5" d="M246.67,340.11s2.66-1.39,4.89-2.31" />
  <path class="GUNDAN_GOAT_JEWELRY_GUNDAN_GOAT_JEWELRY_7_cls-5" d="M244.63,340.25h0a2.6,2.6,0,0,1-1.86-1.73,1.37,1.37,0,0,1,0-.85,3.43,3.43,0,0,1,1.33-1.37h0a31.46,31.46,0,0,1,6.22-2.63h0a1.53,1.53,0,0,1,.27-.11,4.59,4.59,0,0,1,.45-.14,4.38,4.38,0,0,1,2.64,0l.32.13A2.63,2.63,0,0,1,255.4,335c.25.76-.28,1.31-1.24,1.77h0" />
  <path class="GUNDAN_GOAT_JEWELRY_GUNDAN_GOAT_JEWELRY_7_cls-5" d="M244.8,338.72a1.4,1.4,0,0,1,.1,1,1.26,1.26,0,0,1-.28.57c-.53.63-3.76,1.94-6.06,1.78a2.3,2.3,0,0,1-2-1,1.73,1.73,0,0,1-.24-.69" />
  <path class="GUNDAN_GOAT_JEWELRY_GUNDAN_GOAT_JEWELRY_7_cls-5" d="M237.52,338.75a10.05,10.05,0,0,1,5.26-1.08h0" />
  <path class="GUNDAN_GOAT_JEWELRY_GUNDAN_GOAT_JEWELRY_7_cls-5" d="M234.94,342.53c1.26,1.22,3.63,1.7,6.13,1.11,3.05-.72,5.38-1.89,5.6-3.52h0a3.22,3.22,0,0,0-.81-2.27v0" />
  <path class="GUNDAN_GOAT_JEWELRY_GUNDAN_GOAT_JEWELRY_7_cls-5" d="M234,340.32a2.94,2.94,0,0,0,.33,1.33,3.71,3.71,0,0,0,.65.88" />
  <path class="GUNDAN_GOAT_JEWELRY_GUNDAN_GOAT_JEWELRY_7_cls-5" d="M234.78,338.39a6.83,6.83,0,0,1,2.74-1.76,13,13,0,0,1,6.59-.33h0" />
  <path class="GUNDAN_GOAT_JEWELRY_GUNDAN_GOAT_JEWELRY_7_cls-5" d="M234.94,342.53h0a54,54,0,0,0-6.13.87s.75-.56.47-2.58" />
  <path class="GUNDAN_GOAT_JEWELRY_GUNDAN_GOAT_JEWELRY_7_cls-5" d="M238.56,342a1.06,1.06,0,0,0,.66-.92,2.47,2.47,0,0,0-1.7-2.36,5.82,5.82,0,0,0-2.43-.36h-.33a37.25,37.25,0,0,0-7,.66,3.79,3.79,0,0,0-1.79.88,1.1,1.1,0,0,0-.35.76,2.07,2.07,0,0,0,.84,2,5.06,5.06,0,0,0,1.07-1.24,6.86,6.86,0,0,1,1.35-.51c.35-.11.77-.22,1.28-.34a19.51,19.51,0,0,1,3.82-.28c1.15,0,2.12.05,2.35.06h.07" />
  <path class="GUNDAN_GOAT_JEWELRY_GUNDAN_GOAT_JEWELRY_7_cls-5" d="M298.57,295.25h0c2.24.63,2.94,3.72,2.37,5.54v0" />
  <ellipse cx="246.19" cy="361.74" rx="13.41" ry="13.49" transform="translate(-16.91 12.11) rotate(-2.72)" />
  <polygon class="GUNDAN_GOAT_JEWELRY_GUNDAN_GOAT_JEWELRY_7_cls-6" points="244.05 370.15 245.8 369.46 242.72 368.01 244.05 370.15" />
  <polygon class="GUNDAN_GOAT_JEWELRY_GUNDAN_GOAT_JEWELRY_7_cls-7" points="247.32 369.39 250.25 367.65 249.13 369.91 247.32 369.39" />
  <polygon class="GUNDAN_GOAT_JEWELRY_GUNDAN_GOAT_JEWELRY_7_cls-7" points="239.29 363.07 241.05 366.63 238.38 365.6 239.29 363.07" />
  <path class="GUNDAN_GOAT_JEWELRY_GUNDAN_GOAT_JEWELRY_7_cls-6" d="M237,369.53a12.18,12.18,0,0,1-1.59-2.46l2-.81Z" />
  <path class="GUNDAN_GOAT_JEWELRY_GUNDAN_GOAT_JEWELRY_7_cls-7" d="M234.24,361.43a12.19,12.19,0,0,1,.57-3.42l2.15.66Z" />
  <polygon class="GUNDAN_GOAT_JEWELRY_GUNDAN_GOAT_JEWELRY_7_cls-6" points="240.61 357.37 239.2 361.07 238.04 358.64 240.61 357.37" />
  <path class="GUNDAN_GOAT_JEWELRY_GUNDAN_GOAT_JEWELRY_7_cls-6" d="M235,357.46a11.85,11.85,0,0,1,1.34-2.6l.71,3.22Z" />
  <path class="GUNDAN_GOAT_JEWELRY_GUNDAN_GOAT_JEWELRY_7_cls-7" d="M235.21,366.54a12.09,12.09,0,0,1-.89-3.35l3,2.49Z" />
  <polygon class="GUNDAN_GOAT_JEWELRY_GUNDAN_GOAT_JEWELRY_7_cls-8" points="238.81 362.1 237.71 365.13 234.34 362.31 237.43 359.18 238.81 362.1" />
  <polygon class="GUNDAN_GOAT_JEWELRY_GUNDAN_GOAT_JEWELRY_7_cls-7" points="243.26 353.58 245.07 354.1 242.14 355.83 243.26 353.58" />
  <path class="GUNDAN_GOAT_JEWELRY_GUNDAN_GOAT_JEWELRY_7_cls-7" d="M246.1,373.88a11.66,11.66,0,0,1-4.06-.76l1.78-2Z" />
  <polygon class="GUNDAN_GOAT_JEWELRY_GUNDAN_GOAT_JEWELRY_7_cls-9" points="246.55 369.13 242.13 367.05 239.66 362.05 241.65 356.84 245.84 354.36 250.25 356.43 252.73 361.43 250.74 366.64 246.55 369.13" />
  <polygon class="GUNDAN_GOAT_JEWELRY_GUNDAN_GOAT_JEWELRY_7_cls-8" points="241.46 367.43 243.22 370.25 237.78 370.14 238.26 366.2 241.46 367.43" />
  <polygon class="GUNDAN_GOAT_JEWELRY_GUNDAN_GOAT_JEWELRY_7_cls-6" points="249.67 355.47 246.59 354.03 248.34 353.34 249.67 355.47" />
  <polygon class="GUNDAN_GOAT_JEWELRY_GUNDAN_GOAT_JEWELRY_7_cls-6" points="251.78 366.12 253.19 362.41 254.34 364.85 251.78 366.12" />
  <polygon class="GUNDAN_GOAT_JEWELRY_GUNDAN_GOAT_JEWELRY_7_cls-7" points="253.1 360.41 251.34 356.86 254.01 357.88 253.1 360.41" />
  <path class="GUNDAN_GOAT_JEWELRY_GUNDAN_GOAT_JEWELRY_7_cls-7" d="M241.35,372.83a12,12,0,0,1-3.21-2.13l5,.1Z" />
  <polygon class="GUNDAN_GOAT_JEWELRY_GUNDAN_GOAT_JEWELRY_7_cls-8" points="246.75 373.52 244.4 370.64 246.58 369.78 248.83 370.43 246.75 373.52" />
  <polygon class="GUNDAN_GOAT_JEWELRY_GUNDAN_GOAT_JEWELRY_7_cls-8" points="254.51 365.43 255.36 369.3 249.97 369.93 251.45 366.95 254.51 365.43" />
  <path class="GUNDAN_GOAT_JEWELRY_GUNDAN_GOAT_JEWELRY_7_cls-7" d="M257.39,366a11.92,11.92,0,0,1-1.34,2.61l-.71-3.23Z" />
  <polygon class="GUNDAN_GOAT_JEWELRY_GUNDAN_GOAT_JEWELRY_7_cls-8" points="253.58 361.39 254.68 358.35 258.05 361.18 254.96 364.31 253.58 361.39" />
  <path class="GUNDAN_GOAT_JEWELRY_GUNDAN_GOAT_JEWELRY_7_cls-7" d="M258.15,362.05a12.07,12.07,0,0,1-.57,3.42l-2.15-.65Z" />
  <path class="GUNDAN_GOAT_JEWELRY_GUNDAN_GOAT_JEWELRY_7_cls-6" d="M255.07,369.89a12.13,12.13,0,0,1-3,2.43l-2-1.85Z" />
  <path class="GUNDAN_GOAT_JEWELRY_GUNDAN_GOAT_JEWELRY_7_cls-7" d="M251.41,372.67a11.76,11.76,0,0,1-4,1.15l2-3Z" />
  <polygon class="GUNDAN_GOAT_JEWELRY_GUNDAN_GOAT_JEWELRY_7_cls-8" points="250.93 356.06 249.17 353.23 254.6 353.35 254.13 357.28 250.93 356.06" />
  <path class="GUNDAN_GOAT_JEWELRY_GUNDAN_GOAT_JEWELRY_7_cls-7" d="M257.18,357a12.45,12.45,0,0,1,.89,3.35l-3-2.49Z" />
  <path class="GUNDAN_GOAT_JEWELRY_GUNDAN_GOAT_JEWELRY_7_cls-7" d="M246.29,349.6a12,12,0,0,1,4.06.77l-1.78,2Z" />
  <path class="GUNDAN_GOAT_JEWELRY_GUNDAN_GOAT_JEWELRY_7_cls-7" d="M251,350.65a12.06,12.06,0,0,1,3.22,2.14l-5-.1Z" />
  <path class="GUNDAN_GOAT_JEWELRY_GUNDAN_GOAT_JEWELRY_7_cls-7" d="M237.32,353.6a12,12,0,0,1,3-2.44l2,1.86Z" />
  <path class="GUNDAN_GOAT_JEWELRY_GUNDAN_GOAT_JEWELRY_7_cls-10" d="M241,350.81a11.82,11.82,0,0,1,4-1.14l-2,3Z" />
  <polygon class="GUNDAN_GOAT_JEWELRY_GUNDAN_GOAT_JEWELRY_7_cls-8" points="237.87 358.06 237.02 354.18 242.42 353.56 240.94 356.54 237.87 358.06" />
  <polygon class="GUNDAN_GOAT_JEWELRY_GUNDAN_GOAT_JEWELRY_7_cls-8" points="243.56 353.06 245.63 349.96 247.99 352.85 245.81 353.7 243.56 353.06" />
  <path class="GUNDAN_GOAT_JEWELRY_GUNDAN_GOAT_JEWELRY_7_cls-6" d="M255.35,354a12.21,12.21,0,0,1,1.58,2.47l-2,.81Z" />
  <rect class="GUNDAN_GOAT_JEWELRY_GUNDAN_GOAT_JEWELRY_7_cls-11" x="241.05" y="340.56" width="2.51" height="9.27" rx="1.26" transform="translate(-69.44 61.14) rotate(-12.59)" />
</svg>