<svg id="jewelry" xmlns="http://www.w3.org/2000/svg" viewBox="0 0 432 432">
  <defs>
    <style>.GUNDAN_GOAT_JEWELRY_GUNDAN_GOAT_JEWELRY_2_cls-1{fill:#dfca6d;}.GUNDAN_GOAT_JEWELRY_GUNDAN_GOAT_JEWELRY_2_cls-1,.GUNDAN_GOAT_JEWELRY_GUNDAN_GOAT_JEWELRY_2_cls-2,.GUNDAN_GOAT_JEWELRY_GUNDAN_GOAT_JEWELRY_2_cls-4{stroke:#000;stroke-linecap:round;stroke-linejoin:round;stroke-width:0.85px;}.GUNDAN_GOAT_JEWELRY_GUNDAN_GOAT_JEWELRY_2_cls-2{fill:#c03d00;}.GUNDAN_GOAT_JEWELRY_GUNDAN_GOAT_JEWELRY_2_cls-3{fill:#fff;}.GUNDAN_GOAT_JEWELRY_GUNDAN_GOAT_JEWELRY_2_cls-4{fill:none;}</style>
  </defs>
  <path class="GUNDAN_GOAT_JEWELRY_GUNDAN_GOAT_JEWELRY_2_cls-1" d="M297.11,208.41a3.93,3.93,0,0,1-.55,4.18,4.13,4.13,0,0,1-6.43-.36c-1.69-2.22.45-4.23.45-4.23l1,.69c-.15.05-.57,2.3.32,3s2.76-1.56,2.5-2.61a7.52,7.52,0,0,1-.17-1.89A17.05,17.05,0,0,1,297.11,208.41Z" />
  <path class="GUNDAN_GOAT_JEWELRY_GUNDAN_GOAT_JEWELRY_2_cls-2" d="M292.42,213.8a2.31,2.31,0,0,1,1.56-1.7,3,3,0,0,1,2.47.62,1.77,1.77,0,0,1-.65,2.77A2.16,2.16,0,0,1,292.42,213.8Z" />
  <path class="GUNDAN_GOAT_JEWELRY_GUNDAN_GOAT_JEWELRY_2_cls-3" d="M294,213.23s1.12-.08,1.46.6a1.7,1.7,0,0,1,.22,1.12s.76-1.27-.05-1.92A1.26,1.26,0,0,0,294,213.23Z" />
  <path class="GUNDAN_GOAT_JEWELRY_GUNDAN_GOAT_JEWELRY_2_cls-4" d="M298.61,209.29c-.52-.33-1-.63-1.5-.88a17.05,17.05,0,0,0-2.88-1.18c-.42-.12-.77-.21-1-.26" />
  <path class="GUNDAN_GOAT_JEWELRY_GUNDAN_GOAT_JEWELRY_2_cls-1" d="M305.35,212.25a3.93,3.93,0,0,1-.2,4.22,4.14,4.14,0,0,1-6.44.17c-1.87-2.06.09-4.25.09-4.25l1.06.61c-.14.06-.37,2.34.58,3s2.61-1.79,2.27-2.81a7.41,7.41,0,0,1-.33-1.87A16.66,16.66,0,0,1,305.35,212.25Z" />
  <path class="GUNDAN_GOAT_JEWELRY_GUNDAN_GOAT_JEWELRY_2_cls-2" d="M301.13,218a2.33,2.33,0,0,1,1.41-1.83,3,3,0,0,1,2.51.41,1.77,1.77,0,0,1-.41,2.81A2.15,2.15,0,0,1,301.13,218Z" />
  <path class="GUNDAN_GOAT_JEWELRY_GUNDAN_GOAT_JEWELRY_2_cls-3" d="M302.62,217.32s1.11-.17,1.51.47a1.71,1.71,0,0,1,.3,1.11s.66-1.33-.21-1.91A1.24,1.24,0,0,0,302.62,217.32Z" />
  <path class="GUNDAN_GOAT_JEWELRY_GUNDAN_GOAT_JEWELRY_2_cls-4" d="M306.92,213c-.54-.3-1.07-.54-1.57-.76a16.66,16.66,0,0,0-3-.93c-.43-.09-.78-.14-1-.18" />
</svg>