<svg id="jewelry" xmlns="http://www.w3.org/2000/svg" viewBox="0 0 432 432">
  <defs>
    <style>.GUNDAN_GOAT_JEWELRY_GUNDAN_GOAT_JEWELRY_16_cls-1{fill:#dfca6d;}.GUNDAN_GOAT_JEWELRY_GUNDAN_GOAT_JEWELRY_16_cls-1,.GUNDAN_GOAT_JEWELRY_GUNDAN_GOAT_JEWELRY_16_cls-10,.GUNDAN_GOAT_JEWELRY_GUNDAN_GOAT_JEWELRY_16_cls-2,.GUNDAN_GOAT_JEWELRY_GUNDAN_GOAT_JEWELRY_16_cls-4,.GUNDAN_GOAT_JEWELRY_GUNDAN_GOAT_JEWELRY_16_cls-5,.GUNDAN_GOAT_JEWELRY_GUNDAN_GOAT_JEWELRY_16_cls-7,.GUNDAN_GOAT_JEWELRY_GUNDAN_GOAT_JEWELRY_16_cls-8{stroke:#000;}.GUNDAN_GOAT_JEWELRY_GUNDAN_GOAT_JEWELRY_16_cls-1,.GUNDAN_GOAT_JEWELRY_GUNDAN_GOAT_JEWELRY_16_cls-2,.GUNDAN_GOAT_JEWELRY_GUNDAN_GOAT_JEWELRY_16_cls-4,.GUNDAN_GOAT_JEWELRY_GUNDAN_GOAT_JEWELRY_16_cls-5,.GUNDAN_GOAT_JEWELRY_GUNDAN_GOAT_JEWELRY_16_cls-7,.GUNDAN_GOAT_JEWELRY_GUNDAN_GOAT_JEWELRY_16_cls-8{stroke-linecap:round;stroke-linejoin:round;}.GUNDAN_GOAT_JEWELRY_GUNDAN_GOAT_JEWELRY_16_cls-1,.GUNDAN_GOAT_JEWELRY_GUNDAN_GOAT_JEWELRY_16_cls-2,.GUNDAN_GOAT_JEWELRY_GUNDAN_GOAT_JEWELRY_16_cls-4{stroke-width:0.85px;}.GUNDAN_GOAT_JEWELRY_GUNDAN_GOAT_JEWELRY_16_cls-2{fill:#c03d00;}.GUNDAN_GOAT_JEWELRY_GUNDAN_GOAT_JEWELRY_16_cls-3{fill:#fff;}.GUNDAN_GOAT_JEWELRY_GUNDAN_GOAT_JEWELRY_16_cls-4,.GUNDAN_GOAT_JEWELRY_GUNDAN_GOAT_JEWELRY_16_cls-7,.GUNDAN_GOAT_JEWELRY_GUNDAN_GOAT_JEWELRY_16_cls-8{fill:none;}.GUNDAN_GOAT_JEWELRY_GUNDAN_GOAT_JEWELRY_16_cls-5{fill:#6d2316;stroke-width:2.91px;}.GUNDAN_GOAT_JEWELRY_GUNDAN_GOAT_JEWELRY_16_cls-6{fill:#e3a92b;}.GUNDAN_GOAT_JEWELRY_GUNDAN_GOAT_JEWELRY_16_cls-7{stroke-width:1.18px;}.GUNDAN_GOAT_JEWELRY_GUNDAN_GOAT_JEWELRY_16_cls-8{stroke-width:0.96px;}.GUNDAN_GOAT_JEWELRY_GUNDAN_GOAT_JEWELRY_16_cls-9{fill:#b9876e;}.GUNDAN_GOAT_JEWELRY_GUNDAN_GOAT_JEWELRY_16_cls-10{fill:#85432d;stroke-miterlimit:10;stroke-width:1.82px;}</style>
  </defs>
  <path class="GUNDAN_GOAT_JEWELRY_GUNDAN_GOAT_JEWELRY_16_cls-1" d="M248.41,249.63a3.94,3.94,0,0,1-2.56,3.36,4.14,4.14,0,0,1-5.4-3.52c-.36-2.77,1.79-3.09,1.79-3.09a3.63,3.63,0,0,1,1,1.1c-.16,0-1.45,1.35-1,2.44s3.17,0,3.47-1a7.25,7.25,0,0,1,.79-1.72A16.54,16.54,0,0,1,248.41,249.63Z" />
  <path class="GUNDAN_GOAT_JEWELRY_GUNDAN_GOAT_JEWELRY_16_cls-2" d="M241.66,252a2.32,2.32,0,0,1,2.2-.7,3,3,0,0,1,1.83,1.77,1.77,1.77,0,0,1-1.94,2.08A2.15,2.15,0,0,1,241.66,252Z" />
  <path class="GUNDAN_GOAT_JEWELRY_GUNDAN_GOAT_JEWELRY_16_cls-3" d="M243.28,252.25s1,.49,1,1.24a1.63,1.63,0,0,1-.38,1.08s1.3-.72.92-1.68S243.28,252.25,243.28,252.25Z" />
  <path class="GUNDAN_GOAT_JEWELRY_GUNDAN_GOAT_JEWELRY_16_cls-4" d="M249.27,251.15c-.28-.55-.57-1.05-.86-1.52a16.54,16.54,0,0,0-1.91-2.45c-.3-.32-.56-.57-.75-.74" />
  <path class="GUNDAN_GOAT_JEWELRY_GUNDAN_GOAT_JEWELRY_16_cls-1" d="M256.82,249.63a4,4,0,0,0,2.57,3.36,4.14,4.14,0,0,0,5.39-3.52c.36-2.77-1.78-3.09-1.78-3.09a3.5,3.5,0,0,0-1,1.1c.15,0,1.44,1.35,1,2.44s-3.17,0-3.47-1a8.13,8.13,0,0,0-.79-1.72A17.19,17.19,0,0,0,256.82,249.63Z" />
  <path class="GUNDAN_GOAT_JEWELRY_GUNDAN_GOAT_JEWELRY_16_cls-2" d="M263.58,252a2.32,2.32,0,0,0-2.2-.7,3,3,0,0,0-1.83,1.77,1.77,1.77,0,0,0,1.94,2.08A2.16,2.16,0,0,0,263.58,252Z" />
  <path class="GUNDAN_GOAT_JEWELRY_GUNDAN_GOAT_JEWELRY_16_cls-3" d="M262,252.25s-1,.49-1,1.24a1.66,1.66,0,0,0,.37,1.08s-1.29-.72-.91-1.68S262,252.25,262,252.25Z" />
  <path class="GUNDAN_GOAT_JEWELRY_GUNDAN_GOAT_JEWELRY_16_cls-4" d="M256,251.15c.28-.55.57-1.05.85-1.52a17.19,17.19,0,0,1,1.92-2.45c.3-.32.56-.57.75-.74" />
  <line class="GUNDAN_GOAT_JEWELRY_GUNDAN_GOAT_JEWELRY_16_cls-5" x1="232.25" y1="356.26" x2="232.35" y2="366.12" />
  <path class="GUNDAN_GOAT_JEWELRY_GUNDAN_GOAT_JEWELRY_16_cls-6" d="M213.76,388.21c8.39,3,12.51-2.23,12.51-2.23l-3.33,10S221.68,395.34,213.76,388.21Z" />
  <path class="GUNDAN_GOAT_JEWELRY_GUNDAN_GOAT_JEWELRY_16_cls-6" d="M233.58,407.23c18.76-11.79,27.27-27.29,27.21-37.07,0-4.58-1.8-7.91-5.28-9.87a14.3,14.3,0,0,0-7-2c-8,0-13.08,8.6-13.13,8.67l-.09.17-1.87,2.5-1.09,1.44-2.94-3.94-.1-.17c-.05-.08-5.06-8.67-13.12-8.67a14.3,14.3,0,0,0-7,2c-3.48,2-5.26,5.29-5.29,9.87-.06,10,8.83,25.95,28.44,37.84C232.76,407.74,233.17,407.5,233.58,407.23Zm23.28-49.65c14.71,8.31,5.23,36.65-24.51,53.93-29.72-17.28-39.22-45.62-24.5-53.93s23.92,7.76,23.92,7.76l.58.78.58-.78S242.15,349.27,256.86,357.58Z" />
  <path class="GUNDAN_GOAT_JEWELRY_GUNDAN_GOAT_JEWELRY_16_cls-7" d="M256.86,357.58c-14.71-8.31-23.93,7.76-23.93,7.76l-.58.78-.58-.78s-9.2-16.07-23.92-7.76-5.22,36.65,24.5,53.93C262.09,394.23,271.57,365.89,256.86,357.58Z" />
  <path class="GUNDAN_GOAT_JEWELRY_GUNDAN_GOAT_JEWELRY_16_cls-7" d="M233.58,407.23c-.41.27-.82.51-1.23.77-19.61-11.89-28.5-27.85-28.44-37.84,0-4.58,1.81-7.91,5.29-9.87a14.3,14.3,0,0,1,7-2c8.06,0,13.07,8.59,13.12,8.67l.1.17,2.94,3.94,1.09-1.44,1.87-2.5.09-.17c0-.07,5.13-8.67,13.13-8.67a14.3,14.3,0,0,1,7,2c3.48,2,5.26,5.29,5.28,9.87C260.85,379.94,252.34,395.44,233.58,407.23Z" />
  <polyline class="GUNDAN_GOAT_JEWELRY_GUNDAN_GOAT_JEWELRY_16_cls-7" points="233.44 369.61 235.15 375.06 230.83 380.77 232.98 385.37 226.27 397.65 234.56 403.86 233.58 407.23" />
  <path class="GUNDAN_GOAT_JEWELRY_GUNDAN_GOAT_JEWELRY_16_cls-8" d="M226.27,386s-4.12,5.25-12.51,2.23c7.92,7.13,9.18,7.78,9.18,7.78Z" />
  <ellipse class="GUNDAN_GOAT_JEWELRY_GUNDAN_GOAT_JEWELRY_16_cls-6" cx="217.67" cy="374.25" rx="3.67" ry="3.88" />
  <path d="M217.67,370.73a3.52,3.52,0,1,1-3.3,3.52,3.42,3.42,0,0,1,3.3-3.52m0-.72a4.25,4.25,0,1,0,4,4.24,4.14,4.14,0,0,0-4-4.24Z" />
  <ellipse class="GUNDAN_GOAT_JEWELRY_GUNDAN_GOAT_JEWELRY_16_cls-6" cx="217.67" cy="374.25" rx="3.43" ry="3.63" />
  <path d="M217.67,371a3.27,3.27,0,1,1-3.07,3.27,3.17,3.17,0,0,1,3.07-3.27m0-.72a4,4,0,1,0,3.79,4,3.91,3.91,0,0,0-3.79-4Z" />
  <path class="GUNDAN_GOAT_JEWELRY_GUNDAN_GOAT_JEWELRY_16_cls-6" d="M216.73,386.35a9.63,9.63,0,0,1-1.2-.17.37.37,0,0,1-.29-.42l.24-1.36a10.09,10.09,0,0,1-1.41-.46l-.51,1.24a.39.39,0,0,1-.2.2l-.14,0-.15,0a11.21,11.21,0,0,1-1.08-.58.35.35,0,0,1-.13-.48l.65-1.21a10,10,0,0,1-1.21-.93l-.85,1a.36.36,0,0,1-.26.12h0a.35.35,0,0,1-.26-.1,12.34,12.34,0,0,1-.85-.92.37.37,0,0,1,0-.5l1-.92a10.08,10.08,0,0,1-.86-1.3l-1.1.64a.41.41,0,0,1-.19.05l-.1,0a.39.39,0,0,1-.22-.18c-.19-.38-.37-.77-.52-1.16a.37.37,0,0,1,.19-.47l1.19-.52a11.39,11.39,0,0,1-.41-1.55l-1.25.22h-.06a.31.31,0,0,1-.21-.07.35.35,0,0,1-.15-.24c-.07-.42-.11-.85-.14-1.27a.37.37,0,0,1,.34-.39l1.27-.08v-.26a12.22,12.22,0,0,1,.08-1.35l-1.26-.22a.37.37,0,0,1-.3-.41c.07-.43.16-.85.26-1.26a.38.38,0,0,1,.18-.23.34.34,0,0,1,.18,0h.1l1.21.36a12.07,12.07,0,0,1,.57-1.49l-1.14-.66a.35.35,0,0,1-.14-.48,11.84,11.84,0,0,1,.63-1.09.34.34,0,0,1,.24-.16h.07a.4.4,0,0,1,.21.07l1,.76a9.49,9.49,0,0,1,1-1.2l-.89-1a.38.38,0,0,1,0-.5,10.41,10.41,0,0,1,.94-.82.35.35,0,0,1,.22-.08h.05a.41.41,0,0,1,.25.15l.75,1.08a10.6,10.6,0,0,1,1.29-.79l-.53-1.27a.36.36,0,0,1,.18-.47c.38-.17.76-.33,1.14-.46h.11a.33.33,0,0,1,.17,0,.33.33,0,0,1,.18.22l.39,1.29a8.77,8.77,0,0,1,1.44-.3l-.1-1.38a.37.37,0,0,1,.33-.39c.31,0,.64,0,1,0h.25a.36.36,0,0,1,.35.38l0,1.37a8.89,8.89,0,0,1,1.45.21l.31-1.32a.4.4,0,0,1,.17-.23.32.32,0,0,1,.19-.05h.09a9.82,9.82,0,0,1,1.16.38.36.36,0,0,1,.21.46l-.45,1.3a8.9,8.9,0,0,1,1.33.7l.69-1.13a.37.37,0,0,1,.24-.16h.07a.39.39,0,0,1,.21.06c.33.24.66.49,1,.76a.37.37,0,0,1,.06.5l-.83,1.08a10.32,10.32,0,0,1,1,1.13l1-.83a.4.4,0,0,1,.23-.08h.05a.37.37,0,0,1,.25.15c.24.33.48.69.69,1.05a.37.37,0,0,1-.11.49l-1.1.73a10.94,10.94,0,0,1,.65,1.44l1.19-.43a.28.28,0,0,1,.13,0,.47.47,0,0,1,.16,0,.37.37,0,0,1,.18.22c.13.4.24.82.33,1.23a.35.35,0,0,1-.26.43l-1.25.31a12.41,12.41,0,0,1,.17,1.6h1.27a.36.36,0,0,1,.36.36c0,.45,0,.88-.06,1.31a.38.38,0,0,1-.13.24.34.34,0,0,1-.23.08l-1.3-.14a10.82,10.82,0,0,1-.33,1.58l1.22.44a.37.37,0,0,1,.22.45,12.32,12.32,0,0,1-.45,1.2.36.36,0,0,1-.21.19.27.27,0,0,1-.13,0,.45.45,0,0,1-.16,0L226.4,379a10.24,10.24,0,0,1-.79,1.36l1,.85a.37.37,0,0,1,.06.5c-.25.33-.51.66-.79,1a.38.38,0,0,1-.27.12h0a.36.36,0,0,1-.26-.11l-.91-.93a9.93,9.93,0,0,1-1.15,1l.72,1.17a.37.37,0,0,1-.1.49,11.32,11.32,0,0,1-1.05.64.41.41,0,0,1-.18.05l-.11,0a.36.36,0,0,1-.21-.19l-.59-1.2a8.52,8.52,0,0,1-1.37.55l.31,1.34a.36.36,0,0,1-.26.44,12,12,0,0,1-1.19.25h0a.34.34,0,0,1-.22-.07.35.35,0,0,1-.14-.24l-.18-1.36a9,9,0,0,1-1,.06h-.44l-.11,1.36a.33.33,0,0,1-.12.25.36.36,0,0,1-.24.09Zm.94-20.34a8.25,8.25,0,1,0,7.72,8.24A8,8,0,0,0,217.67,366Z" />
  <path d="M217.67,362.47h.24l0,1.73a9,9,0,0,1,2.1.3l.4-1.68a9.17,9.17,0,0,1,1.12.37l-.56,1.62a9.53,9.53,0,0,1,1.89,1l.89-1.45c.33.23.64.48.95.74l-1,1.34a10.29,10.29,0,0,1,1.48,1.61l1.28-1.07c.24.33.47.67.68,1l-1.39.92a10.62,10.62,0,0,1,.92,2l1.54-.56c.12.39.23.79.32,1.2l-1.59.39a10.88,10.88,0,0,1,.25,2.23h1.62v0c0,.42,0,.84-.06,1.25l-1.62-.18a10,10,0,0,1-.46,2.2l1.54.56a10.21,10.21,0,0,1-.44,1.16l-1.47-.73a10.77,10.77,0,0,1-1.11,1.92l1.29,1.06a10.14,10.14,0,0,1-.77.94l-1.18-1.2a9.72,9.72,0,0,1-1.63,1.44l.9,1.45a10.76,10.76,0,0,1-1,.63l-.74-1.55a9.23,9.23,0,0,1-2,.8l.4,1.68c-.38.1-.77.18-1.15.24L219,384.2a10,10,0,0,1-1.34.1c-.26,0-.52,0-.78,0l-.13,1.73a11.17,11.17,0,0,1-1.16-.17l.3-1.7a8.87,8.87,0,0,1-2-.67l-.65,1.59c-.36-.17-.71-.36-1-.56L213,383a9.13,9.13,0,0,1-1.71-1.33l-1.11,1.28c-.28-.28-.56-.58-.82-.89l1.23-1.15a10,10,0,0,1-1.22-1.84l-1.43.82c-.18-.36-.35-.74-.5-1.12l1.5-.66a11.18,11.18,0,0,1-.58-2.17l-1.6.29a10.43,10.43,0,0,1-.13-1.24l1.62-.11c0-.2,0-.4,0-.6a11.24,11.24,0,0,1,.13-1.65l-1.61-.28c.07-.41.15-.82.26-1.22l1.56.46a11.4,11.4,0,0,1,.79-2.09l-1.43-.82a11.43,11.43,0,0,1,.62-1.07l1.34,1a10,10,0,0,1,1.38-1.71l-1.1-1.27c.29-.28.59-.55.9-.8l1,1.39a9.12,9.12,0,0,1,1.83-1.13l-.66-1.59a11.46,11.46,0,0,1,1.1-.44l.5,1.65a9,9,0,0,1,2.07-.44l-.13-1.72c.31,0,.62,0,.93,0m0,20.38a8.62,8.62,0,1,0-8.09-8.6,8.36,8.36,0,0,0,8.09,8.6m0-21.11c-.33,0-.67,0-1,0a.74.74,0,0,0-.66.78l.08,1a7.1,7.1,0,0,0-.8.17l-.29-1a.75.75,0,0,0-.36-.44.81.81,0,0,0-.34-.08.93.93,0,0,0-.23,0c-.4.14-.79.3-1.17.47a.73.73,0,0,0-.37.94l.4,1c-.25.14-.49.29-.73.45l-.54-.79a.77.77,0,0,0-.49-.3h-.11a.75.75,0,0,0-.45.16c-.33.27-.66.55-1,.85a.74.74,0,0,0,0,1l.67.77c-.2.22-.39.46-.57.7L209,367a.71.71,0,0,0-.42-.14h-.14a.76.76,0,0,0-.48.32,11.35,11.35,0,0,0-.64,1.13.72.72,0,0,0,.28,1l.85.49c-.12.29-.24.59-.34.89l-.87-.26-.2,0a.75.75,0,0,0-.71.55,11.33,11.33,0,0,0-.26,1.29.72.72,0,0,0,.59.83l.92.16c0,.32,0,.65,0,1l-.92.06a.73.73,0,0,0-.68.77,11.65,11.65,0,0,0,.14,1.31.78.78,0,0,0,.29.48.75.75,0,0,0,.43.13h.12l.9-.16c.07.32.16.63.25.93l-.88.39a.73.73,0,0,0-.39.93,11.67,11.67,0,0,0,.54,1.19.73.73,0,0,0,.44.37.72.72,0,0,0,.57-.07l.79-.45c.16.26.33.51.51.76l-.74.7a.73.73,0,0,0-.07,1c.28.33.57.65.88.95a.71.71,0,0,0,.5.21h0a.69.69,0,0,0,.52-.26l.62-.71a7,7,0,0,0,.69.53l-.49.92a.73.73,0,0,0,.26,1,12,12,0,0,0,1.12.6.82.82,0,0,0,.31.07.85.85,0,0,0,.26,0,.8.8,0,0,0,.41-.4l.37-.91.8.26-.19,1a.73.73,0,0,0,.57.84,8.75,8.75,0,0,0,1.25.18h.06a.73.73,0,0,0,.47-.17.72.72,0,0,0,.26-.5l.07-1h.11l.71,0,.14,1a.73.73,0,0,0,.28.48.71.71,0,0,0,.44.15h.11a10.78,10.78,0,0,0,1.23-.26.73.73,0,0,0,.52-.87l-.24-1a7.28,7.28,0,0,0,.77-.31l.43.88a.7.7,0,0,0,.43.38.83.83,0,0,0,.22,0,.73.73,0,0,0,.35-.09,9.25,9.25,0,0,0,1.08-.67.72.72,0,0,0,.21-1l-.55-.89c.23-.18.45-.38.66-.58l.66.67a.71.71,0,0,0,.52.22h0a.73.73,0,0,0,.53-.24,11.39,11.39,0,0,0,.81-1,.72.72,0,0,0-.12-1l-.78-.64c.17-.26.33-.53.47-.8l.82.4a.72.72,0,0,0,.32.08.7.7,0,0,0,.25,0,.68.68,0,0,0,.42-.39c.17-.4.33-.81.47-1.23a.72.72,0,0,0-.45-.9l-.9-.33c.08-.31.15-.63.2-.95l.91.1h.08a.78.78,0,0,0,.46-.16.74.74,0,0,0,.26-.5,11.55,11.55,0,0,0,.07-1.32.74.74,0,0,0-.73-.74h-.92c0-.33-.06-.65-.11-1l.92-.22a.74.74,0,0,0,.54-.86c-.09-.43-.21-.86-.34-1.28a.73.73,0,0,0-.38-.43.7.7,0,0,0-.31-.07.8.8,0,0,0-.26.05L227,370c-.12-.29-.25-.58-.39-.86l.83-.55a.72.72,0,0,0,.22-1c-.22-.38-.46-.74-.71-1.09a.72.72,0,0,0-.5-.29h-.09a.71.71,0,0,0-.46.17l-.71.6c-.2-.23-.4-.45-.61-.66l.62-.82a.72.72,0,0,0-.1-1c-.32-.28-.66-.54-1-.79a.74.74,0,0,0-.41-.13l-.15,0a.7.7,0,0,0-.47.33l-.5.82c-.25-.14-.5-.28-.75-.4l.34-1a.73.73,0,0,0-.42-.91,10.64,10.64,0,0,0-1.21-.39l-.18,0a.86.86,0,0,0-.38.1.77.77,0,0,0-.33.46l-.23,1a7.35,7.35,0,0,0-.82-.11l0-1a.73.73,0,0,0-.71-.74Zm0,20.38a7.89,7.89,0,1,1,7.36-7.87,7.64,7.64,0,0,1-7.36,7.87Z" />
  <path class="GUNDAN_GOAT_JEWELRY_GUNDAN_GOAT_JEWELRY_16_cls-9" d="M250.36,371.48a2.42,2.42,0,1,1,2.28-2.41A2.35,2.35,0,0,1,250.36,371.48Z" />
  <path d="M250.36,366.84a2.23,2.23,0,1,1-2.09,2.23,2.17,2.17,0,0,1,2.09-2.23m0-.38a2.61,2.61,0,1,0,2.47,2.61,2.55,2.55,0,0,0-2.47-2.61Z" />
  <path class="GUNDAN_GOAT_JEWELRY_GUNDAN_GOAT_JEWELRY_16_cls-9" d="M249.89,376.4l-.47,0a.2.2,0,0,1-.16-.21l.06-.48a6.7,6.7,0,0,1-.88-.23l-.15.45a.18.18,0,0,1-.1.11l-.08,0-.07,0-.44-.18a.18.18,0,0,1-.09-.24l.18-.45a6,6,0,0,1-.8-.48l-.25.38a.18.18,0,0,1-.13.09h0a.21.21,0,0,1-.11,0l-.38-.3a.2.2,0,0,1,0-.26l.28-.38a6.09,6.09,0,0,1-.65-.69l-.33.29a.21.21,0,0,1-.13,0h0a.18.18,0,0,1-.13-.08c-.1-.12-.19-.26-.28-.39a.19.19,0,0,1,0-.26l.37-.28a6.9,6.9,0,0,1-.45-.85l-.4.18-.08,0-.07,0a.14.14,0,0,1-.1-.1,3.8,3.8,0,0,1-.18-.47.19.19,0,0,1,.11-.23l.43-.16a6.48,6.48,0,0,1-.22-1l-.46.07a.16.16,0,0,1-.12,0,.15.15,0,0,1-.07-.12c0-.17,0-.34,0-.5a.18.18,0,0,1,.18-.2l.43,0c0-.1,0-.18,0-.27s0-.48,0-.72l-.43-.06a.18.18,0,0,1-.16-.21c0-.16,0-.33.07-.49a.2.2,0,0,1,.09-.13.17.17,0,0,1,.1,0h0l.42.09a7.79,7.79,0,0,1,.28-.94l-.41-.19a.2.2,0,0,1-.09-.25c.06-.15.13-.3.2-.45a.18.18,0,0,1,.11-.1h.06l.09,0,.39.21a6.63,6.63,0,0,1,.5-.82l-.35-.31a.21.21,0,0,1,0-.26c.1-.13.21-.25.31-.37a.21.21,0,0,1,.14-.07h0a.21.21,0,0,1,.13.05l.32.32a6,6,0,0,1,.69-.64l-.27-.4a.19.19,0,0,1,.05-.25l.39-.28a.19.19,0,0,1,.1,0h.05a.27.27,0,0,1,.12.09l.23.4a5.23,5.23,0,0,1,.82-.41l-.15-.46a.18.18,0,0,1,.11-.24l.45-.15h.05l.1,0a.27.27,0,0,1,.09.12l.12.46a5.38,5.38,0,0,1,.89-.17l0-.48a.19.19,0,0,1,.17-.2l.48,0a.2.2,0,0,1,.19.19v.47a5.51,5.51,0,0,1,.9.1l.09-.46a.2.2,0,0,1,.08-.12.19.19,0,0,1,.1,0h0a3.45,3.45,0,0,1,.46.12.19.19,0,0,1,.13.23l-.12.47a5.24,5.24,0,0,1,.85.35l.2-.42a.22.22,0,0,1,.12-.09h.05a.13.13,0,0,1,.09,0l.42.25a.19.19,0,0,1,.06.25l-.24.42a5.81,5.81,0,0,1,.73.58l.3-.34a.16.16,0,0,1,.13-.06h0a.24.24,0,0,1,.14.05l.33.36a.2.2,0,0,1,0,.26l-.33.33a6.45,6.45,0,0,1,.56.78l.37-.24a.17.17,0,0,1,.1,0h0a.19.19,0,0,1,.12.09c.09.14.16.29.24.44a.19.19,0,0,1-.08.25l-.4.22a7.08,7.08,0,0,1,.34.91l.42-.12h.05a.17.17,0,0,1,.1,0,.2.2,0,0,1,.09.11c0,.16.08.33.11.49a.18.18,0,0,1-.15.22l-.43.1a6.38,6.38,0,0,1,.1,1h.44a.18.18,0,0,1,.13.06.16.16,0,0,1,.06.13c0,.18,0,.35,0,.52a.2.2,0,0,1-.06.13.21.21,0,0,1-.13.05l-.45,0a6.26,6.26,0,0,1-.16,1l.43.13a.19.19,0,0,1,.13.23c0,.16-.09.32-.14.47a.23.23,0,0,1-.1.12h-.15l-.41-.15a6.39,6.39,0,0,1-.4.89l.39.25a.18.18,0,0,1,.06.25,4.28,4.28,0,0,1-.26.42.2.2,0,0,1-.12.08h0a.21.21,0,0,1-.11,0l-.35-.27a7.27,7.27,0,0,1-.61.74l.31.35a.18.18,0,0,1,0,.26,3.61,3.61,0,0,1-.35.33.21.21,0,0,1-.13.05h0a.23.23,0,0,1-.14-.07l-.27-.36a6.86,6.86,0,0,1-.76.53l.21.43a.19.19,0,0,1-.08.25l-.43.22H253a.24.24,0,0,1-.1-.1l-.18-.43a5.44,5.44,0,0,1-.86.29l.09.47a.19.19,0,0,1-.15.22c-.15,0-.31.06-.47.09h0a.19.19,0,0,1-.12,0,.21.21,0,0,1-.07-.13l-.06-.47a4.91,4.91,0,0,1-.67.05h-.24l0,.47a.16.16,0,0,1-.06.13.18.18,0,0,1-.12,0Zm.47-12.52a5.2,5.2,0,1,0,4.87,5.19A5,5,0,0,0,250.36,363.88Z" />
  <path d="M250.35,361.91v.66h0a6.26,6.26,0,0,1,1.23.13l.12-.64.45.11-.17.64a6,6,0,0,1,1.17.49l.28-.59a3.26,3.26,0,0,1,.4.24l-.32.57a5.88,5.88,0,0,1,1,.8l.43-.49.33.34-.46.46a6.14,6.14,0,0,1,.75,1.06l.54-.35c.08.13.16.28.23.42l-.56.31a6.48,6.48,0,0,1,.46,1.23l.6-.18a4.15,4.15,0,0,1,.11.48l-.6.13a8.2,8.2,0,0,1,.13,1.32h.62v0c0,.16,0,.32,0,.49l-.62-.05a6.29,6.29,0,0,1-.22,1.31l.61.18c0,.16-.09.31-.14.46l-.59-.22a6.48,6.48,0,0,1-.54,1.2l.54.35c-.08.14-.17.27-.26.41l-.51-.39a6.07,6.07,0,0,1-.82,1l.43.49-.34.32-.4-.51a6.22,6.22,0,0,1-1,.72l.29.59-.42.21-.25-.6a5.86,5.86,0,0,1-1.18.4l.12.65-.45.08-.09-.66a5.69,5.69,0,0,1-.83.07c-.14,0-.28,0-.41,0l0,.67-.46,0,.08-.66a6.14,6.14,0,0,1-1.21-.31l-.21.63-.43-.18.25-.61a6.09,6.09,0,0,1-1.09-.66l-.36.55-.36-.3.39-.51a6.53,6.53,0,0,1-.88-.94l-.49.42c-.09-.13-.19-.26-.27-.39l.51-.38a6.78,6.78,0,0,1-.62-1.16l-.57.27c-.06-.15-.12-.3-.17-.46l.59-.22a6.05,6.05,0,0,1-.29-1.29l-.62.09a3.91,3.91,0,0,1,0-.48l.62-.05c0-.15,0-.3,0-.45a8.48,8.48,0,0,1,.06-.88l-.62-.09c0-.16.05-.32.08-.48l.61.13a5.93,5.93,0,0,1,.38-1.26l-.58-.26c.06-.15.13-.3.2-.45l.56.31a6.22,6.22,0,0,1,.68-1.11l-.48-.42a3.47,3.47,0,0,1,.3-.37l.46.46a6,6,0,0,1,.93-.88l-.36-.54a4.44,4.44,0,0,1,.38-.27l.33.57a6,6,0,0,1,1.13-.57l-.22-.63.44-.15.17.64a5.68,5.68,0,0,1,1.23-.23l0-.66.46,0m0,12.54a5.39,5.39,0,1,0-5.06-5.38,5.23,5.23,0,0,0,5.06,5.38m0-12.92h0l-.49,0a.38.38,0,0,0-.35.4l0,.3a5.54,5.54,0,0,0-.56.11l-.07-.28a.38.38,0,0,0-.18-.23.41.41,0,0,0-.19-.05.23.23,0,0,0-.11,0,4.11,4.11,0,0,0-.46.15.37.37,0,0,0-.22.48l.09.29-.51.26-.14-.23a.36.36,0,0,0-.24-.18h-.09a.36.36,0,0,0-.2.06l-.41.28a.39.39,0,0,0-.08.52l.17.25a5.76,5.76,0,0,0-.44.41l-.19-.18a.36.36,0,0,0-.26-.11h0a.37.37,0,0,0-.27.13l-.32.39a.39.39,0,0,0,.06.52l.22.19a5.84,5.84,0,0,0-.33.53l-.22-.12a.37.37,0,0,0-.18-.05l-.11,0a.38.38,0,0,0-.23.2l-.21.46a.39.39,0,0,0,.2.49l.25.12a4.76,4.76,0,0,0-.19.61l-.24-.05h-.08a.33.33,0,0,0-.21.07.37.37,0,0,0-.16.24c0,.17-.06.34-.08.51a.37.37,0,0,0,.32.42l.26,0a5.21,5.21,0,0,0,0,.55v.1l-.25,0a.37.37,0,0,0-.35.4c0,.17,0,.34,0,.51a.37.37,0,0,0,.15.25.36.36,0,0,0,.23.08h.05l.25,0q.06.32.15.63l-.26.1a.38.38,0,0,0-.23.47c.06.16.12.33.18.48a.39.39,0,0,0,.21.21.35.35,0,0,0,.14,0,.47.47,0,0,0,.16,0l.22-.1a5.86,5.86,0,0,0,.3.55l-.23.18a.38.38,0,0,0-.09.51c.09.14.19.28.29.41a.41.41,0,0,0,.27.15h0a.38.38,0,0,0,.25-.09l.19-.17a4.37,4.37,0,0,0,.42.44l-.18.24a.38.38,0,0,0,.05.52,4.08,4.08,0,0,0,.39.31.35.35,0,0,0,.22.08h.07a.38.38,0,0,0,.25-.16l.14-.22.51.3-.12.28a.39.39,0,0,0,.19.49l.46.19a.31.31,0,0,0,.13,0,.42.42,0,0,0,.16,0,.39.39,0,0,0,.2-.22l.09-.27.55.14,0,.3a.39.39,0,0,0,.32.43l.49,0h0a.34.34,0,0,0,.24-.09.37.37,0,0,0,.13-.27l0-.28h.06l.51,0,0,.29a.41.41,0,0,0,.15.25.4.4,0,0,0,.23.08h.05l.48-.08a.39.39,0,0,0,.29-.45l0-.29a3.86,3.86,0,0,0,.54-.19l.1.26a.43.43,0,0,0,.21.21l.14,0a.41.41,0,0,0,.16,0l.44-.22a.38.38,0,0,0,.16-.5l-.14-.28c.17-.1.33-.22.49-.33l.15.2a.41.41,0,0,0,.27.15h0a.36.36,0,0,0,.24-.09l.37-.34a.38.38,0,0,0,0-.52l-.2-.23.39-.47.2.15a.35.35,0,0,0,.22.08h.07a.42.42,0,0,0,.25-.16l.27-.43a.38.38,0,0,0-.13-.51l-.24-.16a6,6,0,0,0,.26-.58l.24.09a.27.27,0,0,0,.13,0,.41.41,0,0,0,.16,0,.38.38,0,0,0,.2-.23c.05-.16.1-.32.14-.48a.37.37,0,0,0-.25-.46l-.26-.08c0-.21.07-.43.1-.64h.28a.39.39,0,0,0,.25-.1.36.36,0,0,0,.13-.26c0-.17,0-.34,0-.51a.42.42,0,0,0-.12-.28.37.37,0,0,0-.26-.12h-.26c0-.22,0-.43-.06-.65l.26,0a.4.4,0,0,0,.29-.45l-.12-.5a.38.38,0,0,0-.18-.23.41.41,0,0,0-.19-.05l-.11,0-.23.07a5.33,5.33,0,0,0-.23-.6l.25-.14a.38.38,0,0,0,.16-.5l-.24-.44a.36.36,0,0,0-.24-.18h-.09a.42.42,0,0,0-.21.06l-.21.14a4.67,4.67,0,0,0-.36-.51l.21-.21a.37.37,0,0,0,0-.52l-.34-.36a.39.39,0,0,0-.27-.11h0a.34.34,0,0,0-.27.13l-.18.19a5.72,5.72,0,0,0-.46-.37l.15-.27a.37.37,0,0,0-.12-.5l-.42-.26a.41.41,0,0,0-.19,0h-.11a.45.45,0,0,0-.23.2l-.12.25a5,5,0,0,0-.53-.23l.08-.29a.39.39,0,0,0-.26-.46l-.47-.12h-.09a.36.36,0,0,0-.2.06.37.37,0,0,0-.17.24l-.05.28-.56-.06v-.29a.4.4,0,0,0-.12-.27.36.36,0,0,0-.26-.11Zm0,12.54a5,5,0,1,1,4.68-5,4.85,4.85,0,0,1-4.68,5Z" />
  <ellipse class="GUNDAN_GOAT_JEWELRY_GUNDAN_GOAT_JEWELRY_16_cls-9" cx="242.22" cy="380.61" rx="2.28" ry="2.42" />
  <path d="M242.22,378.39a2.23,2.23,0,1,1-2.09,2.22,2.16,2.16,0,0,1,2.09-2.22m0-.38a2.61,2.61,0,1,0,2.47,2.6,2.54,2.54,0,0,0-2.47-2.6Z" />
  <path class="GUNDAN_GOAT_JEWELRY_GUNDAN_GOAT_JEWELRY_16_cls-9" d="M241.75,387.94a4,4,0,0,1-.47-.05.19.19,0,0,1-.16-.21l.06-.48a5.66,5.66,0,0,1-.88-.22l-.15.44a.16.16,0,0,1-.1.11.11.11,0,0,1-.08,0h-.06l-.44-.19a.18.18,0,0,1-.1-.24l.18-.44a6.4,6.4,0,0,1-.79-.48l-.26.38a.2.2,0,0,1-.12.08h0a.2.2,0,0,1-.11,0l-.38-.31a.2.2,0,0,1,0-.26l.29-.37a6.13,6.13,0,0,1-.66-.69l-.33.29a.17.17,0,0,1-.12,0h0a.17.17,0,0,1-.13-.07c-.1-.13-.2-.26-.29-.4a.19.19,0,0,1,0-.26l.37-.27a7.84,7.84,0,0,1-.45-.86l-.4.18a.11.11,0,0,1-.08,0H236a.18.18,0,0,1-.1-.11c-.07-.15-.12-.3-.18-.46a.19.19,0,0,1,.12-.24l.42-.16a6.09,6.09,0,0,1-.22-1l-.46.07a.28.28,0,0,1-.12,0,.21.21,0,0,1-.07-.13c0-.16,0-.33-.05-.5a.19.19,0,0,1,.18-.2l.43,0c0-.1,0-.19,0-.28a5.52,5.52,0,0,1,.05-.71l-.44-.06a.19.19,0,0,1-.16-.21,4,4,0,0,1,.08-.5.2.2,0,0,1,.08-.12.17.17,0,0,1,.1,0h0l.42.1a6.49,6.49,0,0,1,.29-.95l-.41-.19a.19.19,0,0,1-.1-.24c.06-.15.13-.31.2-.45a.19.19,0,0,1,.12-.1h.05l.1,0,.38.21a7.46,7.46,0,0,1,.5-.82l-.35-.3a.2.2,0,0,1,0-.26c.1-.13.2-.26.31-.38a.16.16,0,0,1,.13-.06h0a.19.19,0,0,1,.13.05l.32.32a5.88,5.88,0,0,1,.69-.64l-.26-.4a.19.19,0,0,1,0-.26l.39-.28a.2.2,0,0,1,.11,0h0a.16.16,0,0,1,.12.09l.23.4a7.05,7.05,0,0,1,.82-.42l-.15-.46a.17.17,0,0,1,.11-.23l.45-.16h0a.17.17,0,0,1,.1,0,.23.23,0,0,1,.09.12l.12.45a5.36,5.36,0,0,1,.89-.16l0-.48a.19.19,0,0,1,.18-.21h.47a.19.19,0,0,1,.13.05.2.2,0,0,1,.06.14v.47a6.53,6.53,0,0,1,.9.09l.09-.45a.22.22,0,0,1,.08-.13.2.2,0,0,1,.11,0h0a3.9,3.9,0,0,1,.46.12.18.18,0,0,1,.13.22l-.13.47a7.2,7.2,0,0,1,.85.35l.2-.41a.23.23,0,0,1,.12-.1h.05a.17.17,0,0,1,.1,0,4.36,4.36,0,0,1,.41.24.19.19,0,0,1,.06.25l-.24.42a7,7,0,0,1,.73.59l.3-.34a.21.21,0,0,1,.14-.07h0a.2.2,0,0,1,.14.06l.33.35a.19.19,0,0,1,0,.26l-.33.34a7.22,7.22,0,0,1,.56.77l.37-.24a.19.19,0,0,1,.1,0h0a.18.18,0,0,1,.12.09l.23.43a.19.19,0,0,1-.08.25l-.4.22a7.83,7.83,0,0,1,.34.92l.42-.13h.06a.15.15,0,0,1,.09,0,.22.22,0,0,1,.09.12c0,.16.08.32.11.48a.19.19,0,0,1-.14.23l-.43.09a8.28,8.28,0,0,1,.09,1H249a.19.19,0,0,1,.13,0,.2.2,0,0,1,.06.14c0,.18,0,.35,0,.51a.16.16,0,0,1-.06.13.21.21,0,0,1-.13.05l-.45,0a6.46,6.46,0,0,1-.16,1l.43.12a.19.19,0,0,1,.13.23c0,.16-.09.32-.14.48a.16.16,0,0,1-.1.11l-.08,0h-.07l-.41-.16a5.49,5.49,0,0,1-.4.89l.39.25a.19.19,0,0,1,.06.26c-.08.14-.16.28-.25.42a.22.22,0,0,1-.13.08h0a.19.19,0,0,1-.12,0l-.35-.26a6.05,6.05,0,0,1-.61.73l.32.36a.2.2,0,0,1,0,.26l-.36.33a.18.18,0,0,1-.12.05h0a.17.17,0,0,1-.13-.07l-.28-.36a4.93,4.93,0,0,1-.76.53l.21.44a.18.18,0,0,1-.08.24l-.43.22-.08,0h-.07a.22.22,0,0,1-.1-.11l-.18-.43a6.74,6.74,0,0,1-.86.3l.09.47a.19.19,0,0,1-.15.22l-.46.08h0l-.12,0a.21.21,0,0,1-.07-.13l-.06-.47a4.92,4.92,0,0,1-.67,0H242l0,.48a.21.21,0,0,1-.07.13.18.18,0,0,1-.12.05Zm.47-12.52a5.2,5.2,0,1,0,4.87,5.19A5,5,0,0,0,242.22,375.42Z" />
  <path d="M242.21,373.46v.66h0a5.58,5.58,0,0,1,1.23.13l.13-.65a3.17,3.17,0,0,1,.44.12l-.16.64a6.17,6.17,0,0,1,1.16.48l.28-.59.41.24-.33.57a5.88,5.88,0,0,1,1,.8l.43-.49.33.35-.46.46a6.7,6.7,0,0,1,.76,1.05l.53-.35c.08.14.16.28.23.43l-.56.3a6.57,6.57,0,0,1,.46,1.24l.61-.18c0,.15.07.31.11.47l-.61.14a7,7,0,0,1,.13,1.32H249c0,.17,0,.33,0,.49l-.62,0a6.92,6.92,0,0,1-.21,1.3l.6.18c0,.16-.09.32-.14.47l-.59-.22a6.48,6.48,0,0,1-.54,1.2l.54.34-.25.41-.51-.38a7.22,7.22,0,0,1-.83,1l.43.48c-.11.12-.23.22-.34.33l-.4-.52a6.27,6.27,0,0,1-1,.73l.29.59-.42.21-.25-.61a5.88,5.88,0,0,1-1.18.41l.12.64c-.15,0-.3.06-.45.09l-.08-.67a6,6,0,0,1-.84.07l-.41,0,0,.67-.46-.05.08-.66a5.69,5.69,0,0,1-1.21-.32l-.21.63a3.93,3.93,0,0,1-.43-.18l.25-.61a6,6,0,0,1-1.08-.65l-.37.54-.36-.29.39-.52a6.46,6.46,0,0,1-.88-.93l-.48.42-.28-.39.51-.39a6.68,6.68,0,0,1-.62-1.15l-.57.26c-.06-.15-.12-.3-.17-.45l.59-.23a7.68,7.68,0,0,1-.29-1.28l-.62.09c0-.16,0-.33-.05-.49l.63,0c0-.15,0-.3,0-.46a6.38,6.38,0,0,1,.07-.87l-.63-.09c0-.16,0-.32.08-.48l.61.13a6.2,6.2,0,0,1,.38-1.27l-.57-.26c.06-.15.12-.3.19-.44l.56.3a7,7,0,0,1,.68-1.11l-.48-.42c.09-.12.2-.25.3-.36l.46.45a6,6,0,0,1,.94-.87l-.37-.55.39-.27.32.57a6,6,0,0,1,1.13-.57l-.21-.63.43-.15.17.65a5.68,5.68,0,0,1,1.23-.23l0-.67h.46m0,12.53a5.39,5.39,0,1,0-5.06-5.38,5.23,5.23,0,0,0,5.06,5.38m0-12.91h0a4,4,0,0,0-.49,0,.37.37,0,0,0-.35.4l0,.3-.56.1-.07-.27a.4.4,0,0,0-.18-.24.41.41,0,0,0-.19-.05l-.1,0-.47.16a.37.37,0,0,0-.22.47l.1.3a5,5,0,0,0-.52.26l-.13-.24a.43.43,0,0,0-.24-.18h-.09a.38.38,0,0,0-.21.07l-.4.28a.38.38,0,0,0-.09.51l.17.26a5.62,5.62,0,0,0-.44.41l-.18-.18a.4.4,0,0,0-.27-.11h0a.37.37,0,0,0-.28.13c-.11.12-.21.25-.31.38a.38.38,0,0,0,.05.52l.22.19-.33.54-.21-.12a.41.41,0,0,0-.19-.05l-.11,0a.39.39,0,0,0-.23.19l-.21.47a.37.37,0,0,0,.2.48l.25.12c-.07.21-.14.41-.19.62l-.24-.05h-.08a.36.36,0,0,0-.37.31c0,.16-.06.33-.08.5a.37.37,0,0,0,.32.42l.26,0c0,.2,0,.38,0,.55s0,.07,0,.1l-.26,0a.39.39,0,0,0-.35.41c0,.17,0,.34.05.51a.37.37,0,0,0,.15.25.36.36,0,0,0,.23.08h.05l.25,0q.06.31.15.63l-.26.09a.4.4,0,0,0-.23.48l.18.48a.43.43,0,0,0,.21.21l.14,0a.41.41,0,0,0,.16,0l.22-.11.3.56-.23.17a.39.39,0,0,0-.09.52l.29.41a.4.4,0,0,0,.27.14h0a.34.34,0,0,0,.24-.09l.19-.16.42.44-.18.24a.39.39,0,0,0,0,.52l.39.31a.34.34,0,0,0,.22.07h.07a.39.39,0,0,0,.25-.17l.15-.22c.16.11.33.21.5.31l-.12.28a.39.39,0,0,0,.2.49c.14.07.3.13.45.19l.13,0a.35.35,0,0,0,.17,0,.35.35,0,0,0,.19-.22l.09-.27a5.62,5.62,0,0,0,.55.15l0,.3a.39.39,0,0,0,.33.42l.48.05h0A.38.38,0,0,0,242,388a.43.43,0,0,0,.13-.26v-.29h.06l.51,0,0,.28a.43.43,0,0,0,.15.26.39.39,0,0,0,.23.07h.05a3.41,3.41,0,0,0,.48-.09.37.37,0,0,0,.29-.44l-.05-.3.54-.18.1.25a.38.38,0,0,0,.22.21.31.31,0,0,0,.13,0,.29.29,0,0,0,.16,0l.44-.22a.38.38,0,0,0,.16-.5l-.14-.27.49-.34.16.21a.36.36,0,0,0,.26.14h0a.38.38,0,0,0,.25-.09l.36-.34a.38.38,0,0,0,0-.52l-.2-.22c.13-.16.27-.31.39-.48l.2.16a.48.48,0,0,0,.23.07h.06A.39.39,0,0,0,248,385c.1-.14.18-.28.27-.43a.38.38,0,0,0-.12-.5l-.25-.16a4.92,4.92,0,0,0,.26-.58l.24.08a.31.31,0,0,0,.13,0,.29.29,0,0,0,.16,0,.34.34,0,0,0,.2-.22l.15-.49a.39.39,0,0,0-.26-.46l-.26-.08c0-.21.08-.42.1-.64l.26,0h0a.37.37,0,0,0,.38-.35c0-.17,0-.35,0-.52a.39.39,0,0,0-.11-.27.42.42,0,0,0-.27-.12h-.25c0-.22,0-.44-.07-.65l.26-.06a.38.38,0,0,0,.29-.44c0-.17-.07-.34-.12-.5a.35.35,0,0,0-.18-.23.31.31,0,0,0-.18,0h-.11l-.24.07a6,6,0,0,0-.23-.59l.25-.14a.38.38,0,0,0,.16-.5l-.24-.45a.4.4,0,0,0-.24-.18H248a.42.42,0,0,0-.21.06l-.21.14a5.74,5.74,0,0,0-.36-.5l.22-.21a.38.38,0,0,0,0-.52c-.11-.13-.22-.25-.34-.37a.39.39,0,0,0-.27-.11h0a.38.38,0,0,0-.27.12l-.17.2a5.45,5.45,0,0,0-.47-.37l.16-.27a.39.39,0,0,0-.13-.51l-.42-.25a.41.41,0,0,0-.19-.05l-.11,0a.38.38,0,0,0-.23.2l-.11.24-.54-.22.08-.3a.38.38,0,0,0-.26-.46l-.47-.12h-.08a.31.31,0,0,0-.21.07.35.35,0,0,0-.17.24l0,.28a5.32,5.32,0,0,0-.56-.06v-.29a.38.38,0,0,0-.38-.38Zm0,12.54a5,5,0,1,1,4.68-5,4.86,4.86,0,0,1-4.68,5Z" />
  <path class="GUNDAN_GOAT_JEWELRY_GUNDAN_GOAT_JEWELRY_16_cls-9" d="M244.31,393.72a1.39,1.39,0,1,1,1.31-1.39A1.35,1.35,0,0,1,244.31,393.72Z" />
  <path d="M244.31,391.05a1.28,1.28,0,1,1-1.2,1.28,1.25,1.25,0,0,1,1.2-1.28m0-.22a1.5,1.5,0,1,0,1.42,1.5,1.47,1.47,0,0,0-1.42-1.5Z" />
  <path class="GUNDAN_GOAT_JEWELRY_GUNDAN_GOAT_JEWELRY_16_cls-9" d="M244,396.55l-.27,0a.1.1,0,0,1-.09-.12l0-.28a2.83,2.83,0,0,1-.5-.13l-.09.26a.09.09,0,0,1-.06.06H243l-.26-.11a.11.11,0,0,1-.05-.14l.1-.26a3.57,3.57,0,0,1-.45-.27l-.15.22a.1.1,0,0,1-.07,0h0a.11.11,0,0,1-.07,0l-.21-.17a.11.11,0,0,1,0-.15l.17-.21a4.75,4.75,0,0,1-.38-.4l-.19.16a.09.09,0,0,1-.07,0h0a.12.12,0,0,1-.08,0l-.16-.23a.12.12,0,0,1,0-.15l.22-.16A4.67,4.67,0,0,1,241,394l-.22.11h-.09a.09.09,0,0,1-.06-.06c0-.09-.07-.18-.1-.27a.11.11,0,0,1,.07-.14l.24-.09a3.39,3.39,0,0,1-.13-.55l-.26,0a.09.09,0,0,1-.07,0,.08.08,0,0,1,0-.07l0-.28a.11.11,0,0,1,.1-.12l.25,0v-.16c0-.14,0-.27,0-.41l-.25,0a.1.1,0,0,1-.09-.12,2.7,2.7,0,0,1,0-.28.12.12,0,0,1,.05-.07l.06,0,.26.06a3.5,3.5,0,0,1,.17-.55l-.24-.1a.11.11,0,0,1-.05-.14,2,2,0,0,1,.11-.26.13.13,0,0,1,.07-.06h0l0,0,.22.12a3.15,3.15,0,0,1,.3-.47l-.21-.18a.11.11,0,0,1,0-.15,1.68,1.68,0,0,1,.18-.21.08.08,0,0,1,.07,0h0a.09.09,0,0,1,.07,0l.19.18a2.83,2.83,0,0,1,.4-.37L242,389a.1.1,0,0,1,0-.14l.22-.16a.07.07,0,0,1,.06,0h0a.18.18,0,0,1,.07.05l.13.23a4.16,4.16,0,0,1,.47-.24l-.09-.26a.11.11,0,0,1,.07-.14l.26-.09h.08s.05,0,.05.07l.07.26a4.34,4.34,0,0,1,.52-.09l0-.28a.1.1,0,0,1,.1-.11h.27a.11.11,0,0,1,.11.11v.27a3,3,0,0,1,.52.05l0-.26s0-.06.05-.07l.06,0h0l.27.07a.11.11,0,0,1,.07.13l-.07.27.49.2.11-.23a.13.13,0,0,1,.07-.06h0l.06,0,.23.14a.1.1,0,0,1,0,.14l-.14.25a3.39,3.39,0,0,1,.42.33l.17-.19a.09.09,0,0,1,.08,0h0a.11.11,0,0,1,.08,0l.19.21a.1.1,0,0,1,0,.14l-.19.2c.11.14.22.29.32.44l.21-.14h.09a.18.18,0,0,1,.07.05l.13.25a.11.11,0,0,1-.05.14l-.23.13a3.39,3.39,0,0,1,.2.53l.24-.07h0l.06,0a.15.15,0,0,1,0,.06l.06.28a.11.11,0,0,1-.08.13l-.25.06a5.32,5.32,0,0,1,.06.56h.25a.13.13,0,0,1,.08,0,.11.11,0,0,1,0,.08c0,.11,0,.21,0,.3a.12.12,0,0,1,0,.08l-.07,0-.26,0a5,5,0,0,1-.09.56l.25.08a.1.1,0,0,1,.07.13c0,.09,0,.19-.08.28a.12.12,0,0,1-.06.06h-.08l-.24-.09a3.43,3.43,0,0,1-.23.52l.23.14a.12.12,0,0,1,0,.15l-.15.24a.1.1,0,0,1-.07,0h0a.11.11,0,0,1-.07,0l-.2-.15a3.54,3.54,0,0,1-.35.42l.18.21a.11.11,0,0,1,0,.15l-.21.19a.08.08,0,0,1-.07,0h0a.09.09,0,0,1-.08,0l-.15-.2a4.27,4.27,0,0,1-.44.3l.12.25a.11.11,0,0,1-.05.14l-.24.13h-.09a.09.09,0,0,1-.06-.06l-.1-.25a3,3,0,0,1-.5.17l.06.27a.11.11,0,0,1-.09.13l-.27,0h0l-.07,0a.12.12,0,0,1,0-.08l0-.27a2.56,2.56,0,0,1-.39,0h-.14v.28a.13.13,0,0,1,0,.07.11.11,0,0,1-.07,0Zm.27-7.2a3,3,0,1,0,2.8,3A2.9,2.9,0,0,0,244.31,389.35Z" />
  <path d="M244.3,388.22v.38h0a3.36,3.36,0,0,1,.71.08l.07-.37.26.07-.1.36a4,4,0,0,1,.67.28l.16-.34.23.14-.18.33a4.1,4.1,0,0,1,.57.46l.24-.28a1.8,1.8,0,0,1,.19.2l-.26.26a3.72,3.72,0,0,1,.43.61l.31-.2c0,.08.09.16.13.24l-.32.18a4,4,0,0,1,.27.71l.34-.11a2.29,2.29,0,0,1,.07.28l-.35.07a4.77,4.77,0,0,1,.07.76h.36c0,.1,0,.19,0,.28l-.36,0a4.52,4.52,0,0,1-.12.75l.35.1c0,.09,0,.18-.08.27l-.34-.13a4.82,4.82,0,0,1-.31.69l.31.2-.15.24-.29-.22a3.72,3.72,0,0,1-.48.57l.25.28-.2.19-.23-.3a3.22,3.22,0,0,1-.6.42l.17.34-.24.12-.14-.35a3.41,3.41,0,0,1-.68.23l.07.37-.26.05-.05-.38a3.88,3.88,0,0,1-.48,0h-.24l0,.38-.26,0,0-.38a2.7,2.7,0,0,1-.69-.18l-.12.36-.25-.1.14-.35a3,3,0,0,1-.62-.38l-.21.32-.21-.17.23-.3a3.26,3.26,0,0,1-.51-.54l-.28.24a1.77,1.77,0,0,1-.16-.22l.29-.22a4.71,4.71,0,0,1-.35-.67l-.33.16c0-.09-.07-.18-.1-.26l.34-.13a4.67,4.67,0,0,1-.17-.74l-.35,0a2.66,2.66,0,0,1,0-.28l.36,0a2.17,2.17,0,0,1,0-.26,4.07,4.07,0,0,1,0-.5l-.36-.05c0-.09,0-.19.05-.28l.35.08a3.44,3.44,0,0,1,.22-.73l-.33-.15c0-.09.07-.17.11-.26l.32.18a3.77,3.77,0,0,1,.39-.64l-.28-.24c.06-.07.12-.15.18-.21l.26.26a3.6,3.6,0,0,1,.54-.5l-.21-.32.22-.15.19.33a2.65,2.65,0,0,1,.65-.33l-.12-.37.25-.08.1.37a3.21,3.21,0,0,1,.7-.13l0-.38h.26m0,7.21a3.1,3.1,0,1,0-2.91-3.1,3,3,0,0,0,2.91,3.1m0-7.43H244a.21.21,0,0,0-.2.23v.17l-.32.06,0-.16a.23.23,0,0,0-.11-.13.17.17,0,0,0-.1,0h-.06l-.27.09a.21.21,0,0,0-.13.27l.06.17-.3.15-.08-.13a.21.21,0,0,0-.14-.1h-.05a.19.19,0,0,0-.12,0l-.23.16a.22.22,0,0,0-.05.29l.1.15a1.88,1.88,0,0,0-.25.24l-.11-.11a.2.2,0,0,0-.15-.06h0a.24.24,0,0,0-.16.07l-.18.23a.21.21,0,0,0,0,.29l.13.11a3.21,3.21,0,0,0-.19.31l-.12-.07a.23.23,0,0,0-.11,0l-.07,0a.2.2,0,0,0-.13.11,1.69,1.69,0,0,0-.11.27.21.21,0,0,0,.11.28l.14.06c0,.12-.08.24-.11.36l-.13,0h0a.17.17,0,0,0-.12,0,.24.24,0,0,0-.1.14c0,.1,0,.19,0,.29a.21.21,0,0,0,.18.24l.15,0c0,.12,0,.22,0,.32v.06h-.15a.21.21,0,0,0-.2.23l0,.3a.25.25,0,0,0,.08.14.24.24,0,0,0,.14.05h0l.14,0a2.49,2.49,0,0,0,.09.37l-.15.05a.22.22,0,0,0-.13.28c0,.09.06.18.1.27a.23.23,0,0,0,.12.12h.08a.15.15,0,0,0,.09,0l.13-.05.17.31-.13.11a.21.21,0,0,0-.05.29l.17.24a.24.24,0,0,0,.15.08h0a.24.24,0,0,0,.14,0l.11-.1.24.26-.1.14a.21.21,0,0,0,0,.29l.22.18a.21.21,0,0,0,.13.05h0a.19.19,0,0,0,.14-.09l.08-.13.29.17-.06.17a.21.21,0,0,0,.11.28l.26.11H243l.09,0a.21.21,0,0,0,.11-.13l.05-.15.32.08,0,.17a.22.22,0,0,0,.18.25l.28,0h0a.2.2,0,0,0,.14-.06.24.24,0,0,0,.08-.15v-.16h0l.29,0,0,.17a.19.19,0,0,0,.09.14.19.19,0,0,0,.13.05h0l.27-.05a.22.22,0,0,0,.17-.26l0-.17.31-.1.06.14a.2.2,0,0,0,.12.12l.08,0,.09,0,.26-.13a.22.22,0,0,0,.09-.29l-.08-.16.28-.19.09.12a.18.18,0,0,0,.15.08h0a.24.24,0,0,0,.14-.05,2,2,0,0,0,.21-.19.21.21,0,0,0,0-.3l-.11-.13a3,3,0,0,0,.22-.28l.12.09a.2.2,0,0,0,.13,0h0a.19.19,0,0,0,.14-.09c0-.08.11-.17.15-.25a.21.21,0,0,0-.07-.29l-.14-.09a2.07,2.07,0,0,0,.15-.34l.14.05.08,0,.09,0a.24.24,0,0,0,.11-.13l.09-.28a.23.23,0,0,0-.15-.27l-.15,0,.06-.37h.16a.24.24,0,0,0,.14-.05.25.25,0,0,0,.08-.15c0-.1,0-.2,0-.3a.24.24,0,0,0-.07-.16.21.21,0,0,0-.15-.07H248c0-.12,0-.25,0-.37l.14,0a.22.22,0,0,0,.17-.26,2.86,2.86,0,0,0-.07-.28.21.21,0,0,0-.1-.14.2.2,0,0,0-.11,0H248l-.14,0a2.37,2.37,0,0,0-.13-.34l.15-.08a.22.22,0,0,0,.09-.29l-.14-.25a.26.26,0,0,0-.14-.11h0l-.12,0-.12.08a2.64,2.64,0,0,0-.21-.29l.13-.12a.22.22,0,0,0,0-.3l-.19-.21a.23.23,0,0,0-.16-.06h0a.21.21,0,0,0-.16.08l-.1.11a2,2,0,0,0-.27-.22l.09-.15a.21.21,0,0,0-.07-.29l-.24-.15a.2.2,0,0,0-.11,0l-.06,0a.16.16,0,0,0-.13.11l-.07.14-.31-.13.05-.17a.22.22,0,0,0-.15-.26l-.28-.07h0a.17.17,0,0,0-.12,0,.24.24,0,0,0-.1.14l0,.16-.32,0v-.16a.22.22,0,0,0-.22-.22Zm0,7.21a2.88,2.88,0,1,1,2.69-2.88,2.79,2.79,0,0,1-2.69,2.88Z" />
  <path class="GUNDAN_GOAT_JEWELRY_GUNDAN_GOAT_JEWELRY_16_cls-10" d="M232.25,356.26a1.61,1.61,0,0,1-.44-.06,175.4,175.4,0,0,1-38.39-16c-26.23-14.89-42.66-34.29-47.51-56.12-.22-.95-.88-6.38,4.27-6.68,0,0-.08.4-.39,1.46a13.75,13.75,0,0,0,.06,7.81c13.63,45.17,76.35,64.34,82.37,66,4.65-1.44,44-14.73,62.8-55.94.41-.89-.1-4.77-.34-6.64a6,6,0,0,1,3.56,8.11c-20.65,45.16-65.07,57.9-65.52,58A1.84,1.84,0,0,1,232.25,356.26Z" />
</svg>