<svg xmlns="http://www.w3.org/2000/svg" viewBox="0 0 432 432">
  <defs>
    <style>.BUNTAI_PEACOCK_JEWELRY_PEACOCK_JEWELRY_8_a{fill:#e2cb6e;}.BUNTAI_PEACOCK_JEWELRY_PEACOCK_JEWELRY_8_b,.BUNTAI_PEACOCK_JEWELRY_PEACOCK_JEWELRY_8_f{fill:none;stroke-linecap:round;stroke-linejoin:round;}.BUNTAI_PEACOCK_JEWELRY_PEACOCK_JEWELRY_8_b,.BUNTAI_PEACOCK_JEWELRY_PEACOCK_JEWELRY_8_c,.BUNTAI_PEACOCK_JEWELRY_PEACOCK_JEWELRY_8_f{stroke:#000;}.BUNTAI_PEACOCK_JEWELRY_PEACOCK_JEWELRY_8_b{stroke-width:0.98px;}.BUNTAI_PEACOCK_JEWELRY_PEACOCK_JEWELRY_8_c{fill:#754c24;stroke-miterlimit:10;stroke-width:0.75px;}.BUNTAI_PEACOCK_JEWELRY_PEACOCK_JEWELRY_8_d{fill:#22b573;}.BUNTAI_PEACOCK_JEWELRY_PEACOCK_JEWELRY_8_e{fill:#c7a858;}.BUNTAI_PEACOCK_JEWELRY_PEACOCK_JEWELRY_8_f{stroke-width:0.43px;}</style>
  </defs>
  <path class="BUNTAI_PEACOCK_JEWELRY_PEACOCK_JEWELRY_8_a" d="M223.57,200.83a7.39,7.39,0,0,1-6-11.71.35.35,0,0,1,.28-.14h0a.35.35,0,0,1,.28.14,15.05,15.05,0,0,1,1.3,1.95,1.74,1.74,0,0,0,.11.18.35.35,0,0,1,0,.34,4.21,4.21,0,0,0-.42,1.85,4.42,4.42,0,1,0,8.83,0,4.15,4.15,0,0,0-.24-1.42.35.35,0,0,1,.08-.35,6.59,6.59,0,0,0,1.36-2.15.35.35,0,0,1,.29-.22h0a.35.35,0,0,1,.29.15,7.39,7.39,0,0,1-6.22,11.38Z" />
  <path d="M217.85,189.32a14.61,14.61,0,0,1,1.27,1.91l.14.22a4.57,4.57,0,0,0-.45,2,4.76,4.76,0,1,0,9.52,0,4.59,4.59,0,0,0-.26-1.53,7.11,7.11,0,0,0,1.43-2.27,7,7,0,0,1,1.12,3.8,7.05,7.05,0,1,1-12.77-4.12m0-.68h0a.68.68,0,0,0-.55.28,7.73,7.73,0,1,0,12.78.35.7.7,0,0,0-.58-.32h-.07a.66.66,0,0,0-.57.43,6,6,0,0,1-1.29,2,.69.69,0,0,0-.15.71,3.7,3.7,0,0,1,.22,1.3,4.07,4.07,0,0,1-8.14,0,3.81,3.81,0,0,1,.38-1.7.71.71,0,0,0-.06-.69l-.09-.13a14.71,14.71,0,0,0-1.33-2,.69.69,0,0,0-.55-.27Z" />
  <path class="BUNTAI_PEACOCK_JEWELRY_PEACOCK_JEWELRY_8_b" d="M229.5,189.64a7.11,7.11,0,0,1-1.43,2.27,4.59,4.59,0,0,1,.26,1.53,4.76,4.76,0,1,1-9.52,0,4.57,4.57,0,0,1,.45-2l-.14-.22a14.61,14.61,0,0,0-1.27-1.91,7,7,0,1,0,12.77,4.12A7,7,0,0,0,229.5,189.64Z" />
  <path class="BUNTAI_PEACOCK_JEWELRY_PEACOCK_JEWELRY_8_c" d="M214.57,332.36l0,0-.3.11-.26.08-.25.08h0l-.18.06a.47.47,0,0,1-.17,0H213l-.24-.05-.53-.13-.32-.07-.28-.07-.06,0c-.55-.13-1.08-.27-1.61-.43a46.49,46.49,0,0,1-30.1-25.05,54.6,54.6,0,0,1-3-7.67v0c0-.22-.78-2.64.41-3.07.87-.32,1.25-.32,1.64-.06a6.23,6.23,0,0,0-.74,2.34,55.3,55.3,0,0,0,3,8,45.28,45.28,0,0,0,28.66,24.18h0c.77.22,1.53.43,2.33.62l1.1.26.49-.16Z" />
  <path class="BUNTAI_PEACOCK_JEWELRY_PEACOCK_JEWELRY_8_c" d="M250.62,298s-.25.68-.25.68c-.28.7-.58,1.4-.9,2.11-4,8.65-15,24.29-33,30.93l-1.92.68,0,0-.3.11-.52.16h0a3,3,0,0,1-.35.09h-.1l-.14,0h0l-1.09-.25-.34-.09-.06-1.26.58.13,1.1.26.49-.16,2.12-.73c17.67-6.48,28.53-21.88,32.39-30.34.38-.84.49-1.2.81-2a6.32,6.32,0,0,0-.84-1.58c.46-.86,1.87-.42,2.37.19C250.87,297.24,250.62,297.88,250.62,298Z" />
  <path class="BUNTAI_PEACOCK_JEWELRY_PEACOCK_JEWELRY_8_d" d="M221.69,336.41c.82,2-1.1,4.56-4.28,5.61s-6.43.25-7.25-1.8h0c-.8-2,1.11-4.55,4.29-5.59s6.4-.26,7.23,1.77h0A0,0,0,0,1,221.69,336.41Z" />
  <path class="BUNTAI_PEACOCK_JEWELRY_PEACOCK_JEWELRY_8_e" d="M221.5,335.58a2.27,2.27,0,0,1,.18.81c-.83-2-4.06-2.82-7.23-1.77s-5.09,3.55-4.29,5.59a2.42,2.42,0,0,1-.44-.74c-.59-1.47.26-3.18,2-4.43a8.5,8.5,0,0,1,2.14-1.12l.27-.1c.36-.12.73-.21,1.08-.29a10,10,0,0,1,1.92-.19C219.21,333.37,220.94,334.18,221.5,335.58Z" />
  <path class="BUNTAI_PEACOCK_JEWELRY_PEACOCK_JEWELRY_8_e" d="M212.61,328.32a1.52,1.52,0,0,0-.91,2,2.12,2.12,0,0,0,.15.38,28.91,28.91,0,0,0,2,3.21,8.5,8.5,0,0,0-2.14,1.12c-.56-.75-2.18-3.07-1.89-4.57A2.7,2.7,0,0,1,212.61,328.32Z" />
  <path class="BUNTAI_PEACOCK_JEWELRY_PEACOCK_JEWELRY_8_e" d="M215.84,330.61c-.69.26-1.4.5-2.12.74a2.21,2.21,0,0,0-1.87-.64,2.45,2.45,0,0,1-.15-.38,1.52,1.52,0,0,1,.91-2,2.55,2.55,0,0,1,.74.11l.12.05.11,0h0l.38.21h0l.13.09a6.88,6.88,0,0,1,1.51,1.5l.14.17A.86.86,0,0,0,215.84,330.61Z" />
  <path class="BUNTAI_PEACOCK_JEWELRY_PEACOCK_JEWELRY_8_e" d="M217.13,333.34a10,10,0,0,0-1.92.19,7.7,7.7,0,0,0-.64-1.17c.65-.22,1.3-.44,1.92-.68A6.86,6.86,0,0,1,217.13,333.34Z" />
  <path class="BUNTAI_PEACOCK_JEWELRY_PEACOCK_JEWELRY_8_f" d="M221.68,336.39a0,0,0,0,1,0,0c.82,2-1.1,4.56-4.28,5.61s-6.43.25-7.25-1.8h0c-.8-2,1.11-4.55,4.29-5.59s6.4-.26,7.23,1.77" />
  <path class="BUNTAI_PEACOCK_JEWELRY_PEACOCK_JEWELRY_8_f" d="M221.68,336.39h0a2.27,2.27,0,0,0-.18-.81c-.56-1.4-2.29-2.21-4.37-2.24a10,10,0,0,0-1.92.19c-.35.08-.72.17-1.08.29l-.27.1a8.5,8.5,0,0,0-2.14,1.12c-1.74,1.25-2.59,3-2,4.43a2.42,2.42,0,0,0,.44.74" />
  <path class="BUNTAI_PEACOCK_JEWELRY_PEACOCK_JEWELRY_8_f" d="M212.61,328.32a2.55,2.55,0,0,1,.74.11l.12.05.11,0h0l.09.05.29.16h0l.13.09a6.88,6.88,0,0,1,1.51,1.5l.14.17a.86.86,0,0,0,.07.1" />
  <path class="BUNTAI_PEACOCK_JEWELRY_PEACOCK_JEWELRY_8_f" d="M215.21,333.53a7.7,7.7,0,0,0-.64-1.17l1.92-.68a6.86,6.86,0,0,1,.64,1.66" />
  <path class="BUNTAI_PEACOCK_JEWELRY_PEACOCK_JEWELRY_8_f" d="M211.72,335c-.56-.75-2.18-3.07-1.89-4.57a2.7,2.7,0,0,1,2.78-2.15" />
  <path class="BUNTAI_PEACOCK_JEWELRY_PEACOCK_JEWELRY_8_f" d="M213.86,333.92a28.91,28.91,0,0,1-2-3.21,2.12,2.12,0,0,1-.15-.38,1.52,1.52,0,0,1,.91-2h0" />
  <path class="BUNTAI_PEACOCK_JEWELRY_PEACOCK_JEWELRY_8_f" d="M211.85,330.71a2.21,2.21,0,0,1,1.87.64" />
  <path class="BUNTAI_PEACOCK_JEWELRY_PEACOCK_JEWELRY_8_f" d="M211.21,338.25a6.15,6.15,0,0,0,4.23-.33c2.63-1,2.89-2.42,2.89-2.42" />
  <path class="BUNTAI_PEACOCK_JEWELRY_PEACOCK_JEWELRY_8_f" d="M216.94,335a4.52,4.52,0,0,1-1.23,2.77" />
  <path class="BUNTAI_PEACOCK_JEWELRY_PEACOCK_JEWELRY_8_f" d="M215.71,335.72s.38,1.17-1.36,2.54" />
  <path class="BUNTAI_PEACOCK_JEWELRY_PEACOCK_JEWELRY_8_f" d="M213.64,338.39a3,3,0,0,0,1.13-2" />
  <path class="BUNTAI_PEACOCK_JEWELRY_PEACOCK_JEWELRY_8_f" d="M214.92,338.1s-1.61,1.77-2.49,1.73,0-1,.46-1,.15.5,0,.57" />
  <path class="BUNTAI_PEACOCK_JEWELRY_PEACOCK_JEWELRY_8_f" d="M212.57,340.88a10,10,0,0,1,2.86-1.91,13.94,13.94,0,0,1,4.14-.87" />
  <path class="BUNTAI_PEACOCK_JEWELRY_PEACOCK_JEWELRY_8_f" d="M215.93,340.64a1.9,1.9,0,0,0-1.78-1" />
  <path class="BUNTAI_PEACOCK_JEWELRY_PEACOCK_JEWELRY_8_f" d="M214.92,339.2s1.66.59,2,1.73" />
  <path class="BUNTAI_PEACOCK_JEWELRY_PEACOCK_JEWELRY_8_f" d="M215.84,338.81s1.46.75,1.69,1.52" />
  <path class="BUNTAI_PEACOCK_JEWELRY_PEACOCK_JEWELRY_8_f" d="M217.31,338.41s1.59.37,1.89,1.08" />
  <path class="BUNTAI_PEACOCK_JEWELRY_PEACOCK_JEWELRY_8_f" d="M213.1,336.53s-.08.79.45.88l.54.09S214.22,336.74,213.1,336.53Z" />
  <path class="BUNTAI_PEACOCK_JEWELRY_PEACOCK_JEWELRY_8_f" d="M215.1,335.31s-.52.4-.27.71l.25.32S215.6,336,215.1,335.31Z" />
  <path class="BUNTAI_PEACOCK_JEWELRY_PEACOCK_JEWELRY_8_f" d="M217.22,337.87a1.65,1.65,0,0,1,1.42-.75C218.25,337.8,218.11,337.76,217.22,337.87Z" />
  <path class="BUNTAI_PEACOCK_JEWELRY_PEACOCK_JEWELRY_8_f" d="M219.17,337a1.12,1.12,0,0,1,1.45-.53A1.43,1.43,0,0,1,219.17,337Z" />
  <path class="BUNTAI_PEACOCK_JEWELRY_PEACOCK_JEWELRY_8_f" d="M218.49,336.71s.07-1.14.73-1.39A1.15,1.15,0,0,1,218.49,336.71Z" />
  <path class="BUNTAI_PEACOCK_JEWELRY_PEACOCK_JEWELRY_8_f" d="M218.83,337.63a1.26,1.26,0,0,1,1.51,0A1.4,1.4,0,0,1,218.83,337.63Z" />
  <path class="BUNTAI_PEACOCK_JEWELRY_PEACOCK_JEWELRY_8_f" d="M219,338.73s.12.57,1.2.48C220,338.79,219.94,338.64,219,338.73Z" />
  <path class="BUNTAI_PEACOCK_JEWELRY_PEACOCK_JEWELRY_8_f" d="M217.41,339a1.26,1.26,0,0,1,.92.36,1.84,1.84,0,0,1,.4.89S217.48,340,217.41,339Z" />
  <path class="BUNTAI_PEACOCK_JEWELRY_PEACOCK_JEWELRY_8_f" d="M216.21,340.93a.57.57,0,0,0,.16.76A.59.59,0,0,0,216.21,340.93Z" />
</svg>