<svg xmlns="http://www.w3.org/2000/svg" viewBox="0 0 432 432">
  <defs>
    <style>.BUNTAI_PEACOCK_JEWELRY_PEACOCK_JEWELRY_10_a,.BUNTAI_PEACOCK_JEWELRY_PEACOCK_JEWELRY_10_d{fill:none;stroke-linecap:round;stroke-linejoin:round;}.BUNTAI_PEACOCK_JEWELRY_PEACOCK_JEWELRY_10_a,.BUNTAI_PEACOCK_JEWELRY_PEACOCK_JEWELRY_10_d,.BUNTAI_PEACOCK_JEWELRY_PEACOCK_JEWELRY_10_e{stroke:#000;}.BUNTAI_PEACOCK_JEWELRY_PEACOCK_JEWELRY_10_a{stroke-width:0.74px;}.BUNTAI_PEACOCK_JEWELRY_PEACOCK_JEWELRY_10_b{fill:#c0c380;}.BUNTAI_PEACOCK_JEWELRY_PEACOCK_JEWELRY_10_c{fill:#057948;}.BUNTAI_PEACOCK_JEWELRY_PEACOCK_JEWELRY_10_d{stroke-width:0.54px;}.BUNTAI_PEACOCK_JEWELRY_PEACOCK_JEWELRY_10_e{fill:#ad7d2f;stroke-miterlimit:10;}</style>
  </defs>
  <line class="BUNTAI_PEACOCK_JEWELRY_PEACOCK_JEWELRY_10_a" x1="220.65" y1="339.99" x2="220.65" y2="342.15" />
  <path class="BUNTAI_PEACOCK_JEWELRY_PEACOCK_JEWELRY_10_b" d="M228.91,358.71a4.58,4.58,0,0,1-1,2.68l-.7.34h0l-4.36,3a10.15,10.15,0,0,0-2,2.21,10,10,0,0,0-2-2.21l-4.37-3-.69-.34a4.5,4.5,0,0,1-1-2.68,7.09,7.09,0,0,0,1,.64,5.21,5.21,0,0,1-.81-3,8.86,8.86,0,0,1,.82-3.73c.53-.94,2.25-3.09,2.42-4.13-.77-1-1.06-2.32.44-2.32a1.67,1.67,0,0,1,1.76,1.22h-.88s-.3-.37-.59-.22.13.46.37,1.07a2.42,2.42,0,0,1-.66,2.13,12.12,12.12,0,0,1,2.83-2.08v-1.17s-.94-2.66-1.14-3.7.54-1.29.54-1.29h4s.73.24.54,1.29-1.13,3.7-1.13,3.7v1.17a12,12,0,0,1,2.81,2.08,2.5,2.5,0,0,1-.65-2.13c.24-.61.65-.92.37-1.07s-.6.22-.6.22h-.87a1.66,1.66,0,0,1,1.75-1.22c1.51,0,1.22,1.36.45,2.32.17,1,1.89,3.19,2.42,4.13s1.55,4.48,0,6.71A7.76,7.76,0,0,0,228.91,358.71Z" />
  <path class="BUNTAI_PEACOCK_JEWELRY_PEACOCK_JEWELRY_10_c" d="M220.57,350.49s-4.16,1.33-4.72,4.53,1.47,6.32,4.65,6.32,4.58-1.62,4.74-2.16-.25.79.26-1.53.55-3.26-1.05-5A8.09,8.09,0,0,0,220.57,350.49Z" />
  <path class="BUNTAI_PEACOCK_JEWELRY_PEACOCK_JEWELRY_10_d" d="M223,361.08h0c1.92-.81,3.05-2.77,3.05-5.4,0-3.52-5.21-5.46-5.21-5.46s-5.22,1.94-5.22,5.46c0,2.63,1.13,4.59,3.05,5.4h0" />
  <path class="BUNTAI_PEACOCK_JEWELRY_PEACOCK_JEWELRY_10_d" d="M218.65,361.08a5.52,5.52,0,0,0,2.17.42" />
  <path class="BUNTAI_PEACOCK_JEWELRY_PEACOCK_JEWELRY_10_d" d="M225.79,360.25c.16-.25.81-1.46.81-4.71,0-3.69-5.79-7.15-5.79-7.15s-5.78,3.46-5.78,7.15c0,3.25.65,4.46.81,4.71a6.87,6.87,0,0,1-.61-8.19,9.34,9.34,0,0,1,1.34-1.67,12.12,12.12,0,0,1,2.83-2.08v-1.17s-.94-2.66-1.14-3.7.54-1.29.54-1.29h4s.73.24.54,1.29-1.13,3.7-1.13,3.7v1.17a12,12,0,0,1,2.81,2.08,9,9,0,0,1,1.35,1.67A6.84,6.84,0,0,1,225.79,360.25Z" />
  <path class="BUNTAI_PEACOCK_JEWELRY_PEACOCK_JEWELRY_10_d" d="M215.86,360.28h0a28.62,28.62,0,0,0,2.78.78" />
  <path class="BUNTAI_PEACOCK_JEWELRY_PEACOCK_JEWELRY_10_d" d="M216.57,350.39a2.42,2.42,0,0,0,.66-2.13c-.24-.61-.66-.92-.37-1.07s.59.22.59.22h.88a1.67,1.67,0,0,0-1.76-1.22c-1.5,0-1.21,1.36-.44,2.32-.17,1-1.89,3.19-2.42,4.13a8.86,8.86,0,0,0-.82,3.73,5.21,5.21,0,0,0,.81,3,4.11,4.11,0,0,0,.27.35" />
  <path class="BUNTAI_PEACOCK_JEWELRY_PEACOCK_JEWELRY_10_d" d="M218.65,361.08h0a26.57,26.57,0,0,1-2.77-.78,15.28,15.28,0,0,1-2.17-.95,7.09,7.09,0,0,1-1-.64,4.5,4.5,0,0,0,1,2.68l.69.34c1.42.66,4.62,2.07,6.38,2.07v-2.3" />
  <path class="BUNTAI_PEACOCK_JEWELRY_PEACOCK_JEWELRY_10_d" d="M214.43,361.73l4.37,3a10,10,0,0,1,2,2.21v-3.1" />
  <path class="BUNTAI_PEACOCK_JEWELRY_PEACOCK_JEWELRY_10_d" d="M220.82,361.5a5.51,5.51,0,0,0,2.16-.42" />
  <path class="BUNTAI_PEACOCK_JEWELRY_PEACOCK_JEWELRY_10_d" d="M225.76,360.3h0v0" />
  <path class="BUNTAI_PEACOCK_JEWELRY_PEACOCK_JEWELRY_10_d" d="M227.93,359.35h0c1.53-2.23.48-5.81,0-6.71s-2.25-3.09-2.42-4.13c.77-1,1.06-2.32-.45-2.32a1.66,1.66,0,0,0-1.75,1.22h.87s.31-.37.6-.22-.13.46-.37,1.07a2.5,2.5,0,0,0,.65,2.13" />
  <path class="BUNTAI_PEACOCK_JEWELRY_PEACOCK_JEWELRY_10_d" d="M220.81,361.5v2.3a11,11,0,0,0,3.33-.79c1.19-.43,2.34-.95,3.05-1.28h0l.7-.34a4.58,4.58,0,0,0,1-2.68,7.76,7.76,0,0,1-1,.64h0a14.8,14.8,0,0,1-2.17.95h0a24.79,24.79,0,0,1-2.78.78" />
  <path class="BUNTAI_PEACOCK_JEWELRY_PEACOCK_JEWELRY_10_d" d="M220.81,363.8v3.1a10.15,10.15,0,0,1,2-2.21l4.36-3h0" />
  <path class="BUNTAI_PEACOCK_JEWELRY_PEACOCK_JEWELRY_10_e" d="M222.32,340.44c-31.23,0-50.52-31.77-51.21-33.24-2.49-4.63,1.82-5.66,3.72-3.82a11.45,11.45,0,0,0-1.27,2.16c4.25,6.38,23.27,32.46,49.61,32.46h1.06a24.57,24.57,0,0,0,14.35-4.79c9.5-7.11,14.22-22.08,14.87-24.85-.5-.79-1.34-1.85-1.33-1.86,2.49-1.78,4.78-.34,4.38,2.91-.08.65-4.58,16.65-16.19,25.35a28.71,28.71,0,0,1-16.82,5.67Z" />
</svg>