<svg xmlns="http://www.w3.org/2000/svg" xmlns:xlink="http://www.w3.org/1999/xlink" viewBox="0 0 432 432">
  <defs>
    <style>.BUNTAI_PEACOCK_JEWELRY_PEACOCK_JEWELRY_14_a{fill:#ffd91f;}.BUNTAI_PEACOCK_JEWELRY_PEACOCK_JEWELRY_14_a,.BUNTAI_PEACOCK_JEWELRY_PEACOCK_JEWELRY_14_b,.BUNTAI_PEACOCK_JEWELRY_PEACOCK_JEWELRY_14_c,.BUNTAI_PEACOCK_JEWELRY_PEACOCK_JEWELRY_14_d,.BUNTAI_PEACOCK_JEWELRY_PEACOCK_JEWELRY_14_e,.BUNTAI_PEACOCK_JEWELRY_PEACOCK_JEWELRY_14_i,.BUNTAI_PEACOCK_JEWELRY_PEACOCK_JEWELRY_14_j,.BUNTAI_PEACOCK_JEWELRY_PEACOCK_JEWELRY_14_l{stroke:#000;}.BUNTAI_PEACOCK_JEWELRY_PEACOCK_JEWELRY_14_a,.BUNTAI_PEACOCK_JEWELRY_PEACOCK_JEWELRY_14_b,.BUNTAI_PEACOCK_JEWELRY_PEACOCK_JEWELRY_14_c,.BUNTAI_PEACOCK_JEWELRY_PEACOCK_JEWELRY_14_j{stroke-miterlimit:10;}.BUNTAI_PEACOCK_JEWELRY_PEACOCK_JEWELRY_14_a,.BUNTAI_PEACOCK_JEWELRY_PEACOCK_JEWELRY_14_b,.BUNTAI_PEACOCK_JEWELRY_PEACOCK_JEWELRY_14_c{stroke-width:0.37px;}.BUNTAI_PEACOCK_JEWELRY_PEACOCK_JEWELRY_14_b{fill:url(#BUNTAI_PEACOCK_JEWELRY_PEACOCK_JEWELRY_14_a);}.BUNTAI_PEACOCK_JEWELRY_PEACOCK_JEWELRY_14_c{fill:url(#BUNTAI_PEACOCK_JEWELRY_PEACOCK_JEWELRY_14_b);}.BUNTAI_PEACOCK_JEWELRY_PEACOCK_JEWELRY_14_d,.BUNTAI_PEACOCK_JEWELRY_PEACOCK_JEWELRY_14_e,.BUNTAI_PEACOCK_JEWELRY_PEACOCK_JEWELRY_14_l{fill:none;}.BUNTAI_PEACOCK_JEWELRY_PEACOCK_JEWELRY_14_d,.BUNTAI_PEACOCK_JEWELRY_PEACOCK_JEWELRY_14_e,.BUNTAI_PEACOCK_JEWELRY_PEACOCK_JEWELRY_14_i,.BUNTAI_PEACOCK_JEWELRY_PEACOCK_JEWELRY_14_l{stroke-linecap:round;stroke-linejoin:round;}.BUNTAI_PEACOCK_JEWELRY_PEACOCK_JEWELRY_14_d{stroke-width:0.42px;}.BUNTAI_PEACOCK_JEWELRY_PEACOCK_JEWELRY_14_e{stroke-width:0.34px;}.BUNTAI_PEACOCK_JEWELRY_PEACOCK_JEWELRY_14_f{opacity:0.38;}.BUNTAI_PEACOCK_JEWELRY_PEACOCK_JEWELRY_14_g,.BUNTAI_PEACOCK_JEWELRY_PEACOCK_JEWELRY_14_h,.BUNTAI_PEACOCK_JEWELRY_PEACOCK_JEWELRY_14_i{fill:#fff;}.BUNTAI_PEACOCK_JEWELRY_PEACOCK_JEWELRY_14_g{opacity:0.74;}.BUNTAI_PEACOCK_JEWELRY_PEACOCK_JEWELRY_14_i{stroke-width:0.51px;}.BUNTAI_PEACOCK_JEWELRY_PEACOCK_JEWELRY_14_j{fill:#754c24;}.BUNTAI_PEACOCK_JEWELRY_PEACOCK_JEWELRY_14_j,.BUNTAI_PEACOCK_JEWELRY_PEACOCK_JEWELRY_14_l{stroke-width:0.53px;}.BUNTAI_PEACOCK_JEWELRY_PEACOCK_JEWELRY_14_k{fill:#333;}</style>
    <linearGradient id="BUNTAI_PEACOCK_JEWELRY_PEACOCK_JEWELRY_14_a" x1="198.19" y1="131.1" x2="198.3" y2="131.1" gradientUnits="userSpaceOnUse">
      <stop offset="0.04" stop-color="#a86a18" />
      <stop offset="0.16" stop-color="#dfb652" />
      <stop offset="0.25" stop-color="#f1cf65" />
      <stop offset="0.35" stop-color="#f4edb1" />
      <stop offset="0.45" stop-color="#ead58c" />
      <stop offset="0.53" stop-color="#f3c954" />
      <stop offset="0.62" stop-color="#f5f7bb" />
      <stop offset="0.76" stop-color="#f1d99c" />
      <stop offset="0.85" stop-color="#f5ce5b" />
      <stop offset="1" stop-color="#a86a18" />
    </linearGradient>
    <linearGradient id="BUNTAI_PEACOCK_JEWELRY_PEACOCK_JEWELRY_14_b" x1="201.81" y1="128.14" x2="202.03" y2="128.14" xlink:href="#BUNTAI_PEACOCK_JEWELRY_PEACOCK_JEWELRY_14_a" />
  </defs>
  <path class="BUNTAI_PEACOCK_JEWELRY_PEACOCK_JEWELRY_14_a" d="M217,153.74l.46-.5-.31-.29a1.1,1.1,0,0,0-1.38-.1l-.45-.42a1.1,1.1,0,0,0-.2-1.37l-.62-.58a1.1,1.1,0,0,0-1.37-.11l-.45-.42a1.08,1.08,0,0,0-.18-1.36l-.3-.3-.31-.29a1.09,1.09,0,0,0-1.36-.14l-.44-.44a1.08,1.08,0,0,0-.14-1.36l-.29-.3-.29-.31a1.11,1.11,0,0,0-1.36-.18l-.41-.45a1.1,1.1,0,0,0-.07-1.37l-.28-.31-.27-.32a1.08,1.08,0,0,0-1.34-.26l-.39-.48a1.1,1.1,0,0,0,0-1.37l-.25-.32-.26-.34a1.09,1.09,0,0,0-1.31-.36l-.35-.5a1.13,1.13,0,0,0,.15-1.36l-.22-.35-.23-.35a1.08,1.08,0,0,0-1.26-.47l-.3-.54a1.14,1.14,0,0,0,.27-1.33l-.19-.37-.18-.37a1.13,1.13,0,0,0-1.22-.6l-.24-.56a1.09,1.09,0,0,0,.4-1.29l-.28-.78a1,1,0,0,0-.3-.43c-.33.2-.77.47-1.23.73l.1.28a.34.34,0,1,0,.64-.23l-.13-.38a.45.45,0,0,1,.28.26l.14.39.14.4a.46.46,0,0,1,0,.38c-.06-.12-.1-.25-.15-.38a.34.34,0,0,0-.44-.21.37.37,0,0,0-.2.46c.05.13.09.25.15.38a.4.4,0,0,1-.29-.26l-.14-.4-.15-.41a.42.42,0,0,1,0-.22l-.24.14a3.22,3.22,0,0,0-.39.25.13.13,0,0,0,0,.06l.14.41.15.42a1.1,1.1,0,0,0,1.22.69l.24.58a1.09,1.09,0,0,0-.32,1.36l.2.39.19.4a1.07,1.07,0,0,0,1.28.57l.3.54a1.1,1.1,0,0,0-.19,1.39l.24.37.23.37a1.07,1.07,0,0,0,1.32.45l.35.51a1.11,1.11,0,0,0-.06,1.4l.26.35.27.35a1.09,1.09,0,0,0,1.35.33l.39.48a1.11,1.11,0,0,0,0,1.39l.58.66a1.1,1.1,0,0,0,1.36.24l.42.45a1.09,1.09,0,0,0,.12,1.38l.3.32.3.31a1.11,1.11,0,0,0,1.38.17l.43.43a1.1,1.1,0,0,0,.18,1.38l.31.3.3.3a1.09,1.09,0,0,0,1.38.12l.45.43a1.11,1.11,0,0,0,.19,1.37l.32.29.31.29a1.11,1.11,0,0,0,1.38.11l.45.42a1.1,1.1,0,0,0,.2,1.36l.32.29.46-.5-.31-.29a.39.39,0,0,1-.13-.36l.3.27a.35.35,0,0,0,.5,0,.36.36,0,0,0,0-.5l-.29-.27a.38.38,0,0,1,.36.1Zm-16.1-18.26-.18-.36a.35.35,0,0,0-.46-.17.36.36,0,0,0-.15.48l.18.37a.42.42,0,0,1-.31-.23l-.19-.39-.19-.39a.39.39,0,0,1,0-.38l.18.37a.35.35,0,0,0,.47.17.34.34,0,0,0,.14-.47l-.17-.36a.4.4,0,0,1,.3.22l.38.76A.42.42,0,0,1,200.92,135.48Zm1.81,3.1-.21-.34a.34.34,0,1,0-.58.37l.22.34a.39.39,0,0,1-.33-.19l-.23-.37-.24-.36a.42.42,0,0,1,0-.39,4.05,4.05,0,0,0,.21.35.36.36,0,0,0,.49.13.34.34,0,0,0,.09-.48c-.07-.12-.14-.23-.2-.35a.44.44,0,0,1,.32.2l.23.35.22.36A.4.4,0,0,1,202.73,138.58Zm2.09,2.92-.24-.31a.36.36,0,0,0-.5-.08.35.35,0,0,0-.05.49l.25.32a.42.42,0,0,1-.35-.16l-.26-.34-.26-.35a.43.43,0,0,1-.06-.38l.24.33a.36.36,0,0,0,.49.09.34.34,0,0,0,.06-.49l-.23-.33a.4.4,0,0,1,.33.17l.26.34.26.33A.41.41,0,0,1,204.82,141.5Zm2,2.47a.35.35,0,0,0-.5,0,.34.34,0,0,0,0,.49l.27.3a.41.41,0,0,1-.36-.13l-.29-.32-.28-.33a.44.44,0,0,1-.08-.38l.26.31a.34.34,0,0,0,.49.06.35.35,0,0,0,0-.5l-.26-.31a.4.4,0,0,1,.35.14l.28.32.28.32a.41.41,0,0,1,.09.37Zm2.45,2.65a.34.34,0,0,0-.49,0,.35.35,0,0,0,0,.5l.29.29a.43.43,0,0,1-.37-.12l-.3-.31-.29-.31a.43.43,0,0,1-.11-.37l.28.3a.34.34,0,1,0,.5-.47l-.28-.3a.41.41,0,0,1,.36.12l.29.31.29.31a.41.41,0,0,1,.12.36Zm2.57,2.54a.34.34,0,1,0-.48.49l.29.28a.41.41,0,0,1-.36-.1l-.62-.6a.42.42,0,0,1-.12-.36l.3.28a.34.34,0,0,0,.49,0,.35.35,0,0,0,0-.49l-.29-.28a.42.42,0,0,1,.37.1l.3.3.31.3a.41.41,0,0,1,.12.36Zm2.63,2.49a.34.34,0,1,0-.47.5l.3.27a.39.39,0,0,1-.37-.1l-.31-.29-.32-.29a.41.41,0,0,1-.12-.36l.29.27a.35.35,0,0,0,.5,0,.34.34,0,0,0,0-.49l-.3-.28a.39.39,0,0,1,.37.1l.31.29.32.29a.42.42,0,0,1,.12.36Z" />
  <path class="BUNTAI_PEACOCK_JEWELRY_PEACOCK_JEWELRY_14_a" d="M220.2,150.88a1.09,1.09,0,0,0-1.3-.42l-.34-.51a1.09,1.09,0,0,0,.13-1.37l-.23-.36-.24-.35a1.1,1.1,0,0,0-1.31-.42l-.34-.51a1.07,1.07,0,0,0,.12-1.36l-.23-.36-.24-.35a1.08,1.08,0,0,0-1.32-.4l-.34-.51a1.08,1.08,0,0,0,.1-1.37l-.24-.35-.24-.35a1.09,1.09,0,0,0-1.32-.39l-.35-.5a1.07,1.07,0,0,0,.09-1.37l-.24-.35-.25-.35a1.08,1.08,0,0,0-1.32-.37l-.36-.5a1.08,1.08,0,0,0,.06-1.38l-.25-.34L210,136a1.09,1.09,0,0,0-1.33-.35l-.37-.49a1.08,1.08,0,0,0,0-1.38l-.26-.34-.26-.34a1.09,1.09,0,0,0-1.35-.31l-.38-.48a1.09,1.09,0,0,0,0-1.38l-.29-.33-.28-.33a1.09,1.09,0,0,0-1.37-.23c-.14-.16-.29-.3-.44-.45a1.06,1.06,0,0,0-.28-1.41l-.38-.31-1,.23-.22.05.07,0,1.08.53a.46.46,0,0,1,.16.36l-.33-.26a.32.32,0,0,0-.49,0,.37.37,0,0,0,.07.49l.29.24a.36.36,0,0,1-.35-.06l-.71-1.12a2.51,2.51,0,0,0-.41.47l.69,1.18a1.14,1.14,0,0,0,1.3,0c.14.14.29.28.42.43a1.08,1.08,0,0,0,.07,1.35l.27.31.26.31a1.1,1.1,0,0,0,1.34.26l.38.48a1.1,1.1,0,0,0,0,1.36l.52.66a1.1,1.1,0,0,0,1.33.33l.36.49a1.1,1.1,0,0,0-.06,1.36l.5.68a1.1,1.1,0,0,0,1.32.36l.36.49a1.1,1.1,0,0,0-.08,1.37l.24.35.25.34a1.09,1.09,0,0,0,1.31.38l.35.5a1.11,1.11,0,0,0-.1,1.37l.24.34.24.35a1.1,1.1,0,0,0,1.31.4l.35.5a1.1,1.1,0,0,0-.12,1.37l.48.7a1.09,1.09,0,0,0,1.31.4l.33.51a1.1,1.1,0,0,0-.12,1.37l.23.35.23.35a1.1,1.1,0,0,0,1.31.42l.33.51a1.1,1.1,0,0,0-.13,1.37l.23.35.57-.37-.23-.36a.38.38,0,0,1,0-.37l.22.33a.35.35,0,0,0,.48.12.35.35,0,0,0,.09-.49l-.22-.34a.42.42,0,0,1,.33.19l.23.35.58-.37Zm-14.6-19.14-.26-.3a.34.34,0,0,0-.49-.06.35.35,0,0,0,0,.5l.26.3a.39.39,0,0,1-.36-.14l-.54-.64a.39.39,0,0,1-.09-.36l.27.3a.34.34,0,0,0,.49,0,.35.35,0,0,0,0-.49l-.27-.3a.39.39,0,0,1,.36.13l.28.33.28.32A.42.42,0,0,1,205.6,131.74Zm2.25,2.83-.25-.32a.34.34,0,0,0-.49-.07.35.35,0,0,0-.05.49l.25.31a.4.4,0,0,1-.35-.15l-.26-.33-.26-.34a.41.41,0,0,1-.06-.37l.24.31a.35.35,0,0,0,.49.08.36.36,0,0,0,0-.5l-.25-.31a.41.41,0,0,1,.35.15l.26.34.26.34A.39.39,0,0,1,207.85,134.57Zm2.15,2.89-.24-.32a.35.35,0,0,0-.49-.09.35.35,0,0,0-.06.49l.24.33a.46.46,0,0,1-.35-.17l-.25-.34-.25-.34a.43.43,0,0,1,0-.38l.24.33a.34.34,0,0,0,.48.08.35.35,0,0,0,.07-.49l-.24-.32a.39.39,0,0,1,.34.16l.25.35.25.34A.38.38,0,0,1,210,137.46Zm2.09,2.94-.23-.33a.35.35,0,0,0-.48-.1.35.35,0,0,0-.08.49l.23.33a.42.42,0,0,1-.34-.17l-.48-.7a.38.38,0,0,1-.05-.37l.23.33a.35.35,0,0,0,.49.09.36.36,0,0,0,.07-.49l-.24-.33a.42.42,0,0,1,.34.17l.25.35.24.35A.4.4,0,0,1,212.09,140.4Zm2,2.95-.22-.33a.36.36,0,0,0-.49-.1.35.35,0,0,0-.07.49l.22.33a.38.38,0,0,1-.33-.18l-.24-.34-.25-.35a.43.43,0,0,1,0-.38l.23.33a.35.35,0,0,0,.48.1.35.35,0,0,0,.08-.49l-.23-.33a.41.41,0,0,1,.34.18l.24.35.24.35A.38.38,0,0,1,214.14,143.35Zm2,3-.23-.33a.34.34,0,0,0-.48-.1.34.34,0,0,0-.09.48l.23.33a.42.42,0,0,1-.34-.17l-.23-.35-.24-.36a.38.38,0,0,1,0-.37l.22.33a.37.37,0,0,0,.49.11.35.35,0,0,0,.08-.49l-.22-.34a.41.41,0,0,1,.33.18l.24.36.24.35A.44.44,0,0,1,216.17,146.33Zm2,3-.22-.33a.34.34,0,1,0-.57.37l.22.34a.4.4,0,0,1-.33-.18l-.24-.36-.23-.35a.4.4,0,0,1,0-.38l.22.34a.37.37,0,0,0,.49.11.36.36,0,0,0,.08-.49l-.22-.33a.38.38,0,0,1,.33.18l.24.35.23.35A.4.4,0,0,1,218.16,149.33Z" />
  <path class="BUNTAI_PEACOCK_JEWELRY_PEACOCK_JEWELRY_14_a" d="M234.64,132.5a1.65,1.65,0,0,0-.57-.73,1,1,0,0,0-.42.29l-.3.35-.28.35a1.06,1.06,0,0,0,.06,1.4l-.33.5a1.08,1.08,0,0,0-1.29.48l-.21.37-.2.37a1.06,1.06,0,0,0,.25,1.33l-.28.52a1.08,1.08,0,0,0-1.26.53l-.38.74a1.06,1.06,0,0,0,.29,1.32l-.27.54a1.07,1.07,0,0,0-1.23.56l-.36.76a1.06,1.06,0,0,0,.33,1.31l-.25.54a1.08,1.08,0,0,0-1.22.6l-.16.39-.17.38a1.06,1.06,0,0,0,.37,1.3l-.23.55a1.08,1.08,0,0,0-1.2.64l-.16.39-.15.39a1.07,1.07,0,0,0,.41,1.29l-.21.55a1.08,1.08,0,0,0-1.18.68l0,.07,0-.24a1.08,1.08,0,0,0-.92-1l-.06-.61a1.09,1.09,0,0,0,.72-1.2l-.07-.43-.07-.44a1.08,1.08,0,0,0-1.06-.91l-.13-.6a1.08,1.08,0,0,0,.55-1.28l-.12-.42-.12-.43a1.09,1.09,0,0,0-1.17-.76l-.2-.58a1.09,1.09,0,0,0,.39-1.34l-.17-.41-.18-.4a1.12,1.12,0,0,0-1.25-.62l-.29-.54a1.1,1.1,0,0,0,.24-1.38l-.23-.38-.23-.37a1.06,1.06,0,0,0-1.31-.46l-.35-.51a1.07,1.07,0,0,0,.05-1.39l-.27-.35-.27-.35a1.08,1.08,0,0,0-1.36-.29l-.41-.47a1.07,1.07,0,0,0-.13-1.38l-.3-.32-.32-.3a1.08,1.08,0,0,0-1.39-.12c-.15-.14-.31-.26-.47-.4a1,1,0,0,0,.1-.71,1.58,1.58,0,0,0-.14-.36,1.07,1.07,0,0,0-.36-.35l-.39-.22-.38-.22a1.13,1.13,0,0,0-1.38.22l-.53-.3a1,1,0,0,0-.35-1.27,1.53,1.53,0,0,0-.3,0,1.48,1.48,0,0,0-1,.38l-.17.15.95.09a.41.41,0,0,1,.21.32l-.35-.19a.35.35,0,0,0-.48.12.36.36,0,0,0,.15.48l.35.19a.42.42,0,0,1-.38,0l-1.5-1.49-.86.24,2,1.84a1.08,1.08,0,0,0,1.34-.23l.53.29a1.07,1.07,0,0,0,.49,1.26l.36.2.34.19.23.11a1.06,1.06,0,0,0,.35.05,1.09,1.09,0,0,0,.68-.24l.46.39a1.1,1.1,0,0,0,.17,1.34l.3.28.28.29a1.08,1.08,0,0,0,1.34.16l.39.46a1.08,1.08,0,0,0,0,1.34l.25.32.24.33a1.13,1.13,0,0,0,1.31.33l.34.5a1.1,1.1,0,0,0-.17,1.33l.21.35.21.35a1.09,1.09,0,0,0,1.25.5l.28.53a1.09,1.09,0,0,0-.33,1.31l.17.37.15.37a1.1,1.1,0,0,0,1.19.65l.2.56a1.09,1.09,0,0,0-.48,1.26l.11.39.11.39a1.12,1.12,0,0,0,1.09.79l.14.58a1.11,1.11,0,0,0-.65,1.19l.07.4.06.39a1.09,1.09,0,0,0,1,.93l.06.6a1.09,1.09,0,0,0-.8,1.08l0,.41.69,0,0-.41a.43.43,0,0,1,.16-.34l0,.39a.37.37,0,0,0,.36.35.35.35,0,0,0,.33-.37l0-.41a.41.41,0,0,1,.2.33l0,.43h.6l0,.11.64.24.14-.39a.37.37,0,0,1,.28-.24l-.13.36a.35.35,0,0,0,.19.45.36.36,0,0,0,.45-.21l.13-.36a.36.36,0,0,1,.05.36l-.14.39.64.23.14-.38a1.07,1.07,0,0,0-.43-1.27l.21-.56a1.06,1.06,0,0,0,1.18-.64l.15-.38.16-.38a1.07,1.07,0,0,0-.4-1.28l.23-.55a1.06,1.06,0,0,0,1.2-.61l.16-.37.17-.38a1.05,1.05,0,0,0-.36-1.29l.25-.54a1.09,1.09,0,0,0,1.22-.57l.17-.37.18-.37a1.07,1.07,0,0,0-.31-1.31l.26-.53a1.08,1.08,0,0,0,1.24-.53l.18-.36.19-.37a1.06,1.06,0,0,0-.27-1.31l.28-.53a1.05,1.05,0,0,0,1.25-.49l.2-.35.2-.35a1.08,1.08,0,0,0-.22-1.31l.32-.5a1.08,1.08,0,0,0,1.27-.3l.23-.29.24-.28a1.67,1.67,0,0,0,.12-.16C235.46,133.16,235.26,133,234.64,132.5Zm-22.27-2.56a.76.76,0,0,0-.2-.13.36.36,0,0,0-.49.11.35.35,0,0,0,.14.47.43.43,0,0,1,.13.09l.15.12a.49.49,0,0,1-.33,0l-.35-.2-.37-.21a.37.37,0,0,1-.2-.31l.35.19a.35.35,0,0,0,.48-.12.33.33,0,0,0-.13-.46l-.35-.2a.4.4,0,0,1,.38,0l.37.21.38.21a.38.38,0,0,1,.2.38Zm2.55,2.29a.34.34,0,0,0-.49,0,.35.35,0,0,0,0,.49l.27.29a.41.41,0,0,1-.36-.12l-.28-.3-.31-.28a.36.36,0,0,1-.11-.35l.28.27a.37.37,0,0,0,.5,0,.33.33,0,0,0,0-.49l-.3-.28a.39.39,0,0,1,.37.1l.32.3.29.31a.4.4,0,0,1,.11.37Zm2.62,3.07-.25-.32a.33.33,0,0,0-.48-.07.35.35,0,0,0-.06.49l.24.31a.39.39,0,0,1-.34-.16l-.25-.33-.26-.33a.4.4,0,0,1-.07-.36l.25.3a.35.35,0,0,0,.49.08.36.36,0,0,0,0-.5l-.25-.32a.4.4,0,0,1,.35.15l.26.35.27.34A.41.41,0,0,1,217.54,135.3Zm2,3.06c-.06-.12-.12-.24-.19-.36a.35.35,0,0,0-.48-.13.32.32,0,0,0-.11.47l.19.35a.41.41,0,0,1-.31-.2l-.22-.36-.22-.35a.43.43,0,0,1,0-.38l.21.34a.36.36,0,0,0,.48.13.35.35,0,0,0,.1-.49l-.21-.34a.4.4,0,0,1,.33.19l.22.37.23.37A.41.41,0,0,1,219.5,138.36Zm1.42,2.89a.34.34,0,0,0-.45-.19.36.36,0,0,0-.18.46l.15.37a.42.42,0,0,1-.29-.24l-.16-.39-.17-.37a.39.39,0,0,1,0-.38l.17.36a.36.36,0,0,0,.46.19.34.34,0,0,0,.16-.47l-.17-.36a.39.39,0,0,1,.3.23l.19.39.16.4a.42.42,0,0,1,0,.38Zm.77,3.18a.36.36,0,0,0-.23.44l.11.38a.39.39,0,0,1-.26-.28l-.12-.39-.11-.4a.37.37,0,0,1,.07-.37l.12.38a.34.34,0,0,0,.42.24.36.36,0,0,0,.23-.45l-.12-.38a.41.41,0,0,1,.27.27l.12.41.12.42a.41.41,0,0,1-.08.37l-.11-.39A.36.36,0,0,0,221.69,144.43Zm1.19,3.8a.35.35,0,0,0-.4-.3.34.34,0,0,0-.27.4c0,.13,0,.26,0,.39a.4.4,0,0,1-.22-.3l-.14-.82a.42.42,0,0,1,.12-.36l.07.39a.34.34,0,1,0,.67-.11l-.07-.4a.38.38,0,0,1,.23.3l.08.42.07.43a.41.41,0,0,1-.14.36A2.73,2.73,0,0,0,222.88,148.23Zm4,.31-.15.38-.15.39a.38.38,0,0,1-.29.23l.14-.36a.34.34,0,0,0-.18-.45.35.35,0,0,0-.45.2l-.14.36a.38.38,0,0,1,0-.37l.16-.38.15-.39a.43.43,0,0,1,.29-.24l-.15.37a.34.34,0,0,0,.19.45.36.36,0,0,0,.45-.19l.14-.36A.34.34,0,0,1,226.92,148.54Zm1.38-3.2-.17.37-.17.38a.4.4,0,0,1-.29.23l.16-.36a.34.34,0,1,0-.63-.28L227,146a.4.4,0,0,1,0-.37l.17-.38.17-.38a.38.38,0,0,1,.29-.22l-.16.35a.35.35,0,0,0,.17.46.34.34,0,0,0,.46-.18l.16-.35A.4.4,0,0,1,228.3,145.34Zm1.47-3.17-.36.74a.38.38,0,0,1-.3.22l.17-.35a.34.34,0,1,0-.62-.29l-.17.35a.44.44,0,0,1,0-.37l.18-.38.18-.37a.42.42,0,0,1,.31-.22l-.18.36a.35.35,0,0,0,.16.46.34.34,0,0,0,.46-.17l.17-.35A.38.38,0,0,1,229.77,142.17Zm1.57-3.11-.19.36-.19.37a.41.41,0,0,1-.31.21l.18-.35a.34.34,0,1,0-.61-.31l-.18.35a.39.39,0,0,1,0-.38l.19-.37.19-.36a.36.36,0,0,1,.31-.21l-.18.35a.33.33,0,0,0,.14.46.34.34,0,0,0,.46-.15l.18-.34A.4.4,0,0,1,231.34,139.06ZM233,136l-.21.35-.2.36a.37.37,0,0,1-.31.2l.19-.34a.34.34,0,0,0-.13-.47.35.35,0,0,0-.47.14l-.19.34a.38.38,0,0,1,0-.37l.2-.37.21-.36a.39.39,0,0,1,.32-.2l-.2.35a.34.34,0,0,0,.12.47.35.35,0,0,0,.47-.13l.19-.34A.4.4,0,0,1,233,136Zm1.92-2.8-.5.62a.38.38,0,0,1-.33.14l.23-.3a.36.36,0,0,0-.05-.48.33.33,0,0,0-.49.06l-.24.32a.38.38,0,0,1,.06-.38l.27-.33.28-.33a.38.38,0,0,1,.36-.13l-.27.29a.34.34,0,1,0,.51.45l.25-.27A.33.33,0,0,1,234.93,133.2Z" />
  <path class="BUNTAI_PEACOCK_JEWELRY_PEACOCK_JEWELRY_14_a" d="M238.56,138.25a1.64,1.64,0,0,0-.16-.33h-.09l.05,0a4.77,4.77,0,0,0-.4-.55l-.11.1a.5.5,0,0,1,0-.21c-.16-.2-.33-.39-.46-.53a1.09,1.09,0,0,0-.09,1.21l-.45.39a1.1,1.1,0,0,0-1.36,0l-.32.27-.34.26a1.09,1.09,0,0,0-.27,1.36l-.45.41a1.06,1.06,0,0,0-1.39.18l-.3.35-.3.34a1.07,1.07,0,0,0,0,1.38l-.37.49a1.06,1.06,0,0,0-1.32.39l-.24.36-.23.36a1.07,1.07,0,0,0,.16,1.37l-.3.52a1.07,1.07,0,0,0-1.27.54l-.2.38-.2.39a1.07,1.07,0,0,0,.31,1.34c-.08.18-.17.37-.24.55a1.08,1.08,0,0,0-1.21.67l-.16.4-.15.41a1.06,1.06,0,0,0,.46,1.3c-.07.19-.13.38-.19.58a1.07,1.07,0,0,0-1.13.79l-.11.42.66.17.11-.41a.39.39,0,0,1,.26-.27l-.11.38a.35.35,0,0,0,.24.43.34.34,0,0,0,.42-.25l.11-.38a.39.39,0,0,1,.08.36l-.11.4.66.17.11-.38a1.09,1.09,0,0,0-.54-1.23l.18-.57a1.1,1.1,0,0,0,1.16-.68l.14-.38.14-.37a1.07,1.07,0,0,0-.4-1.28c.08-.19.17-.37.25-.55a1.08,1.08,0,0,0,1.21-.56l.18-.35.19-.36a1.09,1.09,0,0,0-.26-1.32l.3-.51a1.08,1.08,0,0,0,1.27-.42l.22-.34.22-.33a1.09,1.09,0,0,0-.11-1.34l.35-.48a1.09,1.09,0,0,0,1.31-.28l.25-.29.25-.28a1.12,1.12,0,0,0,.09-1.32l.44-.39a1.08,1.08,0,0,0,1.33,0l.32-.26.33-.26a1.07,1.07,0,0,0,.28-1.33l.47-.4a1,1,0,0,0,1,.15A.92.92,0,0,1,238.56,138.25Zm-9.91,12.54-.15.39-.15.38a.38.38,0,0,1-.27.25l.13-.37a.36.36,0,0,0-.2-.45.35.35,0,0,0-.44.21l-.14.38a.43.43,0,0,1-.05-.38l.15-.39.15-.4a.37.37,0,0,1,.29-.24l-.15.37a.35.35,0,0,0,.19.45.35.35,0,0,0,.45-.2l.14-.37A.38.38,0,0,1,228.65,150.79Zm1.46-3.16-.19.36-.19.37a.4.4,0,0,1-.3.22l.17-.35a.36.36,0,0,0-.15-.47.33.33,0,0,0-.46.16l-.18.36a.42.42,0,0,1,0-.38l.19-.38.2-.38a.38.38,0,0,1,.31-.21l-.18.36a.34.34,0,0,0,.13.47.35.35,0,0,0,.47-.16l.18-.34A.4.4,0,0,1,230.11,147.63Zm1.79-3-.23.35-.22.34a.4.4,0,0,1-.33.18l.21-.33a.35.35,0,0,0-.09-.48.34.34,0,0,0-.48.11l-.22.34a.43.43,0,0,1,0-.38l.23-.35.24-.36a.36.36,0,0,1,.33-.17l-.22.33a.34.34,0,0,0,.09.48.35.35,0,0,0,.48-.1l.22-.33A.44.44,0,0,1,231.9,144.64ZM234,141.9l-.27.3-.26.3a.38.38,0,0,1-.34.15l.24-.31a.34.34,0,0,0,0-.48.36.36,0,0,0-.5,0l-.25.31a.42.42,0,0,1,.07-.37l.29-.33.28-.33a.36.36,0,0,1,.36-.12,2.61,2.61,0,0,0-.27.3.35.35,0,0,0,0,.49.34.34,0,0,0,.48,0l.26-.28A.42.42,0,0,1,234,141.9Zm2.58-2.3-.33.26-.32.26a.39.39,0,0,1-.36.07l.3-.25a.34.34,0,1,0-.43-.53l-.31.25a.41.41,0,0,1,.15-.35l.32-.26.33-.26a.39.39,0,0,1,.37-.07L236,139a.34.34,0,0,0-.06.48.35.35,0,0,0,.49.05l.3-.25A.37.37,0,0,1,236.59,139.6Z" />
  <circle class="BUNTAI_PEACOCK_JEWELRY_PEACOCK_JEWELRY_14_a" cx="222.55" cy="155.68" r="6.44" />
  <path class="BUNTAI_PEACOCK_JEWELRY_PEACOCK_JEWELRY_14_b" d="M198.3,131.12l-.11.06a.29.29,0,0,1,.07-.16Z" />
  <path class="BUNTAI_PEACOCK_JEWELRY_PEACOCK_JEWELRY_14_c" d="M202,128.1l-.15.08-.07,0Z" />
  <circle class="BUNTAI_PEACOCK_JEWELRY_PEACOCK_JEWELRY_14_d" cx="222.49" cy="155.68" r="6.68" />
  <circle class="BUNTAI_PEACOCK_JEWELRY_PEACOCK_JEWELRY_14_e" cx="222.49" cy="155.68" r="5.37" />
  <path d="M224.81,152.84a.63.63,0,0,0-.5-.26h-3.66a.59.59,0,0,0-.48.26.44.44,0,0,0,0,.5,17,17,0,0,0,2.18,2.55,13.8,13.8,0,0,0-2.09,2.55.44.44,0,0,0,0,.49.62.62,0,0,0,.48.26h3.35a.67.67,0,0,0,.5-.26.45.45,0,0,0,.08-.5,11,11,0,0,0-2-2.54,14.88,14.88,0,0,0,2.17-2.55A.43.43,0,0,0,224.81,152.84Zm-.34,5.63a.58.58,0,0,0-.11-.1l-3.87.11a.3.3,0,0,0-.07.3.25.25,0,0,1,0-.24,13.42,13.42,0,0,1,2.07-2.5h0A10.93,10.93,0,0,1,224.47,158.47Zm.2-5.25-.29.41c-1.31.14-2.11.2-3.47.34-.25-.3-.36-.45-.58-.76a.26.26,0,0,1,0-.29.33.33,0,0,1,.29-.15h3.72a.37.37,0,0,1,.3.16A.28.28,0,0,1,224.67,153.22Z" />
  <path d="M224.42,151.76h-3.86a.32.32,0,0,0-.3.26.21.21,0,0,0,.22.26h4.08a.19.19,0,0,0,.19-.26A.37.37,0,0,0,224.42,151.76Zm.09.33h-4a.06.06,0,0,1-.06-.07.08.08,0,0,1,.08-.07h3.94a.09.09,0,0,1,.09.06A.05.05,0,0,1,224.51,152.09Z" />
  <path class="BUNTAI_PEACOCK_JEWELRY_PEACOCK_JEWELRY_14_f" d="M217.32,151.36s-2.43,2.25-.92,7.07c.49,1.72,3.5,4.8,8.19,3.59a6.66,6.66,0,0,0,4.21-4.15c-1.68,1.56-6.22,2.79-9.16-.22A8.37,8.37,0,0,1,217.32,151.36Z" />
  <path class="BUNTAI_PEACOCK_JEWELRY_PEACOCK_JEWELRY_14_g" d="M224.59,151.71a6.51,6.51,0,0,1,2.48,5.62C227.6,155.58,227.73,152.78,224.59,151.71Z" />
  <path class="BUNTAI_PEACOCK_JEWELRY_PEACOCK_JEWELRY_14_h" d="M225.47,150.6a6.25,6.25,0,0,1,2.64,3.57,5.2,5.2,0,0,1-.46,4.08,5,5,0,0,0,.75-4.37A4.72,4.72,0,0,0,225.47,150.6Z" />
  <path class="BUNTAI_PEACOCK_JEWELRY_PEACOCK_JEWELRY_14_i" d="M212,385.29a16.75,16.75,0,0,1,2,5.42s2.64-1.38,2.86-10.2a58.14,58.14,0,0,0-.16-5.86,1.94,1.94,0,0,0,0-.24v-.09c0-.06,0-.12,0-.18,0-.26,0-.5-.07-.74,0,0,0-.1,0-.15s0-.1,0-.16l0-.2c0-.16,0-.32-.05-.47l0-.19,0-.18,0-.23c0-.06,0-.12,0-.17l0-.22s0-.07,0-.1a1,1,0,0,1,0-.16v0c0-.05,0-.11,0-.17l0-.18c0-.14-.05-.28-.07-.39s0,0,0-.07v0a.36.36,0,0,0,0-.1l0-.21,1.16-.08,0-.5-1.52.11L215,360a.77.77,0,0,0-.82-.72.78.78,0,0,0-.53.27.81.81,0,0,0-.19.57l.71,9.52-1.59.12,0,.5,1.29-.1c0,.13,0,.34,0,.61V371a.2.2,0,0,0,0,.07v.17c0,.18,0,.37,0,.58s0,.2,0,.31,0,.43,0,.66,0,.42,0,.65v1.13c0,.22,0,.44,0,.67a2.35,2.35,0,0,1,0,.26c0,.13,0,.26,0,.39V376c0,.07,0,.14,0,.21s0,.27,0,.42,0,.6-.07.91c0,.15,0,.31,0,.46a1.94,1.94,0,0,0,0,.24l-.06.5c0,.12,0,.24,0,.36s-.06.45-.1.67l0,.23c0,.16-.05.32-.08.48s-.06.28-.08.42l-.06.27a3,3,0,0,1-.07.32s0,.07,0,.1,0,.12,0,.18,0,.12,0,.18l-.09.34a.64.64,0,0,0,0,.07c0,.06,0,.12-.05.18a2.76,2.76,0,0,1-.08.27c-.09.31-.19.61-.29.9l0,.12c-.05.15-.11.29-.17.44l-.05.11a.61.61,0,0,1,0,.12,1,1,0,0,1-.07.15h0a1.47,1.47,0,0,1-.1.22.17.17,0,0,1,0,.05Z" />
  <path class="BUNTAI_PEACOCK_JEWELRY_PEACOCK_JEWELRY_14_i" d="M213.44,360.12l.05.66,1.54-.11L215,360a.77.77,0,0,0-.82-.72.78.78,0,0,0-.53.27A.81.81,0,0,0,213.44,360.12Z" />
  <rect class="BUNTAI_PEACOCK_JEWELRY_PEACOCK_JEWELRY_14_i" x="213.82" y="360.71" width="1.54" height="8.88" transform="translate(-26.55 16.96) rotate(-4.26)" />
  <rect class="BUNTAI_PEACOCK_JEWELRY_PEACOCK_JEWELRY_14_i" x="212.57" y="369.58" width="4.66" height="0.5" transform="translate(-26.89 17) rotate(-4.26)" />
  <rect class="BUNTAI_PEACOCK_JEWELRY_PEACOCK_JEWELRY_14_i" x="212.57" y="369.58" width="4.66" height="0.5" transform="translate(-26.89 17) rotate(-4.26)" />
  <path class="BUNTAI_PEACOCK_JEWELRY_PEACOCK_JEWELRY_14_i" d="M213.89,370.16c0,.27.06.86.09,1.66.13,3.14.08,9.56-2,13.47a16.75,16.75,0,0,1,2,5.42s2.64-1.38,2.86-10.2a54.72,54.72,0,0,0-.48-8.86c-.11-.79-.22-1.36-.27-1.66" />
  <path class="BUNTAI_PEACOCK_JEWELRY_PEACOCK_JEWELRY_14_i" d="M215.69,369.52l0-.5-.08-1,0-.65-.09-1.1,0-.44,0-.36-.06-.92,0-.36-.06-.83,0-.25-.07-1,0-.32-.06-.86,0-.34L215,360a.77.77,0,0,0-.82-.72.78.78,0,0,0-.53.27.81.81,0,0,0-.19.57l.05.66h0l.06.82,0,.13.06.86,0,.42.06.76V364l.08,1,0,.27,0,.66,0,.47v.05l.05.67.06.79.07.84,0,.63,0,.29" />
  <line class="BUNTAI_PEACOCK_JEWELRY_PEACOCK_JEWELRY_14_i" x1="215.03" y1="360.67" x2="213.49" y2="360.78" />
  <polyline class="BUNTAI_PEACOCK_JEWELRY_PEACOCK_JEWELRY_14_i" points="214.13 369.35 215.66 369.02 214.09 368.72 215.58 368.06 214.02 367.88 215.54 367.41 213.96 367.09 215.47 366.48 213.91 366.37" />
  <line class="BUNTAI_PEACOCK_JEWELRY_PEACOCK_JEWELRY_14_i" x1="215.42" y1="365.87" x2="213.88" y2="365.9" />
  <path class="BUNTAI_PEACOCK_JEWELRY_PEACOCK_JEWELRY_14_i" d="M213.55,361.6c.44-.18,1.29-.52,1.51-.59" />
  <line class="BUNTAI_PEACOCK_JEWELRY_PEACOCK_JEWELRY_14_i" x1="215.15" y1="362.19" x2="213.63" y2="362.59" />
  <line class="BUNTAI_PEACOCK_JEWELRY_PEACOCK_JEWELRY_14_i" x1="215.12" y1="361.87" x2="213.57" y2="361.73" />
  <line class="BUNTAI_PEACOCK_JEWELRY_PEACOCK_JEWELRY_14_i" x1="215.24" y1="363.4" x2="213.72" y2="363.77" />
  <line class="BUNTAI_PEACOCK_JEWELRY_PEACOCK_JEWELRY_14_i" x1="215.22" y1="363.15" x2="213.66" y2="363.01" />
  <path class="BUNTAI_PEACOCK_JEWELRY_PEACOCK_JEWELRY_14_i" d="M215.3,364.23l-1.57-.25" />
  <path class="BUNTAI_PEACOCK_JEWELRY_PEACOCK_JEWELRY_14_i" d="M215.33,364.59l-1.52.38" />
  <line class="BUNTAI_PEACOCK_JEWELRY_PEACOCK_JEWELRY_14_i" x1="215.39" y1="365.51" x2="213.83" y2="365.24" />
  <path class="BUNTAI_PEACOCK_JEWELRY_PEACOCK_JEWELRY_14_j" d="M258.27,315.22a49.11,49.11,0,0,1-4.56,14.27c-4.76,9.58-15.08,22.33-37.33,29.4h0l-1.11.34h0l-.69.2a.84.84,0,0,1-.27,0l-.18,0-1-.2h0l-.83-.19-.22-.05c-21-4.91-31.65-17.53-36.87-27.42a56.51,56.51,0,0,1-6.37-21.22,1.65,1.65,0,0,1,.58-1.47,1.28,1.28,0,0,1,1.67.2,8.42,8.42,0,0,0-.69,1.22,55.65,55.65,0,0,0,6.26,20.78c5.09,9.61,15.4,21.86,35.8,26.64l1.07.24h0l.74.16.6-.18.07,0,1-.3h0c21.67-6.9,31.71-19.32,36.34-28.64a44.47,44.47,0,0,0,4.37-14.07,5.24,5.24,0,0,0-.95-1.21C256.16,313.05,258.71,312.2,258.27,315.22Z" />
  <path class="BUNTAI_PEACOCK_JEWELRY_PEACOCK_JEWELRY_14_k" d="M212.49,357.69l1.06.24s1.1-.52,1.56.21.24,1.26-.35,1.48-1.46,0-1.63-.37a2.68,2.68,0,0,0-1-.19,2.22,2.22,0,0,0,1.84,1.49,2,2,0,0,0,2.43-1.59,1.66,1.66,0,0,0-1.14-1.77A2.44,2.44,0,0,0,212.49,357.69Z" />
  <path class="BUNTAI_PEACOCK_JEWELRY_PEACOCK_JEWELRY_14_l" d="M212.06,359A2,2,0,0,0,214,360.6h.22a2.39,2.39,0,0,0,1.44-.47,1.68,1.68,0,0,0,.72-1.25.38.38,0,0,0,0-.1,1.65,1.65,0,0,0-.49-1.15,2.35,2.35,0,0,0-1.68-.67,2.33,2.33,0,0,0-1.77.77l1.08.24a1.34,1.34,0,0,1,1.34,0,1,1,0,0,1,.53.83.76.76,0,0,1-.13.44,1.2,1.2,0,0,1-1,.55,1.26,1.26,0,0,1-1.05-.52h0Z" />
</svg>