<svg xmlns="http://www.w3.org/2000/svg" viewBox="0 0 432 432">
  <defs>
    <style>.BUNTAI_PEACOCK_JEWELRY_PEACOCK_JEWELRY_2_a,.BUNTAI_PEACOCK_JEWELRY_PEACOCK_JEWELRY_2_d{fill:none;stroke-linecap:round;stroke-linejoin:round;}.BUNTAI_PEACOCK_JEWELRY_PEACOCK_JEWELRY_2_a,.BUNTAI_PEACOCK_JEWELRY_PEACOCK_JEWELRY_2_d,.BUNTAI_PEACOCK_JEWELRY_PEACOCK_JEWELRY_2_e{stroke:#000;}.BUNTAI_PEACOCK_JEWELRY_PEACOCK_JEWELRY_2_a{stroke-width:0.74px;}.BUNTAI_PEACOCK_JEWELRY_PEACOCK_JEWELRY_2_b{fill:#c0c380;}.BUNTAI_PEACOCK_JEWELRY_PEACOCK_JEWELRY_2_c{fill:#057948;}.BUNTAI_PEACOCK_JEWELRY_PEACOCK_JEWELRY_2_d{stroke-width:0.54px;}.BUNTAI_PEACOCK_JEWELRY_PEACOCK_JEWELRY_2_e{fill:#ad7d2f;stroke-miterlimit:10;stroke-width:1.01px;}</style>
  </defs>
  <line class="BUNTAI_PEACOCK_JEWELRY_PEACOCK_JEWELRY_2_a" x1="220.58" y1="340.8" x2="220.58" y2="342.96" />
  <path class="BUNTAI_PEACOCK_JEWELRY_PEACOCK_JEWELRY_2_b" d="M228.92,359.53a4.51,4.51,0,0,1-1,2.68l-.7.33h0c-.21.13-3.45,2.32-4.41,3a9.8,9.8,0,0,0-2,2.21,9.94,9.94,0,0,0-2-2.21l-4.41-3-.7-.33a4.51,4.51,0,0,1-1-2.68,9,9,0,0,0,1,.63,5.18,5.18,0,0,1-.81-3,8.79,8.79,0,0,1,.83-3.73c.54-.95,2.28-3.09,2.44-4.14-.78-.95-1.06-2.32.45-2.32a1.68,1.68,0,0,1,1.77,1.23h-.88s-.31-.38-.6-.23.13.47.38,1.07a2.41,2.41,0,0,1-.67,2.13,12.59,12.59,0,0,1,2.85-2.08V348s-.95-2.67-1.14-3.71.54-1.28.54-1.28h4.07s.74.24.55,1.28-1.14,3.71-1.14,3.71v1.16A12.66,12.66,0,0,1,225,351.2a2.43,2.43,0,0,1-.66-2.13c.24-.6.66-.91.37-1.07s-.6.23-.6.23h-.88A1.68,1.68,0,0,1,225,347c1.52,0,1.23,1.37.46,2.32.16,1.05,1.9,3.19,2.44,4.14s1.56,4.48,0,6.7A8.28,8.28,0,0,0,228.92,359.53Z" />
  <path class="BUNTAI_PEACOCK_JEWELRY_PEACOCK_JEWELRY_2_c" d="M220.5,351.3s-4.2,1.33-4.77,4.54,1.49,6.31,4.7,6.31,4.63-1.62,4.78-2.16-.24.79.27-1.53.56-3.26-1.06-5A8.17,8.17,0,0,0,220.5,351.3Z" />
  <path class="BUNTAI_PEACOCK_JEWELRY_PEACOCK_JEWELRY_2_d" d="M222.94,361.9h0c1.94-.82,3.08-2.77,3.08-5.41,0-3.52-5.27-5.46-5.27-5.46s-5.28,1.94-5.28,5.46c0,2.64,1.15,4.59,3.09,5.41h0" />
  <path class="BUNTAI_PEACOCK_JEWELRY_PEACOCK_JEWELRY_2_d" d="M218.56,361.9a5.62,5.62,0,0,0,2.19.41" />
  <path class="BUNTAI_PEACOCK_JEWELRY_PEACOCK_JEWELRY_2_d" d="M225.78,361.06c.16-.25.81-1.46.81-4.71,0-3.68-5.84-7.15-5.84-7.15s-5.85,3.47-5.85,7.15c0,3.25.66,4.46.82,4.71a6.8,6.8,0,0,1-.62-8.18,9.15,9.15,0,0,1,1.36-1.68,12.59,12.59,0,0,1,2.85-2.08V348s-.95-2.67-1.14-3.71.54-1.28.54-1.28h4.07s.74.24.55,1.28-1.14,3.71-1.14,3.71v1.16A12.66,12.66,0,0,1,225,351.2a9.15,9.15,0,0,1,1.36,1.68A6.8,6.8,0,0,1,225.78,361.06Z" />
  <path class="BUNTAI_PEACOCK_JEWELRY_PEACOCK_JEWELRY_2_d" d="M215.74,361.1h0a26.63,26.63,0,0,0,2.81.79" />
  <path class="BUNTAI_PEACOCK_JEWELRY_PEACOCK_JEWELRY_2_d" d="M216.46,351.2a2.41,2.41,0,0,0,.67-2.13c-.25-.6-.67-.91-.38-1.07s.6.23.6.23h.88a1.67,1.67,0,0,0-1.77-1.22c-1.51,0-1.23,1.36-.45,2.31-.16,1.05-1.9,3.19-2.44,4.14a8.79,8.79,0,0,0-.83,3.73,5.18,5.18,0,0,0,.81,3c.09.12.18.24.28.35" />
  <path class="BUNTAI_PEACOCK_JEWELRY_PEACOCK_JEWELRY_2_d" d="M218.56,361.9h0c-.83-.2-1.82-.45-2.8-.79a14.58,14.58,0,0,1-2.2-.95,9,9,0,0,1-1-.63,4.51,4.51,0,0,0,1,2.68l.7.33c1.43.66,4.67,2.08,6.45,2.08v-2.31" />
  <path class="BUNTAI_PEACOCK_JEWELRY_PEACOCK_JEWELRY_2_d" d="M214.3,362.54l4.41,3a9.94,9.94,0,0,1,2,2.21v-3.1" />
  <path class="BUNTAI_PEACOCK_JEWELRY_PEACOCK_JEWELRY_2_d" d="M220.75,362.31a5.66,5.66,0,0,0,2.19-.41" />
  <path class="BUNTAI_PEACOCK_JEWELRY_PEACOCK_JEWELRY_2_d" d="M225.74,361.11h0" />
  <path class="BUNTAI_PEACOCK_JEWELRY_PEACOCK_JEWELRY_2_d" d="M227.94,360.16h0c1.55-2.22.5-5.81,0-6.7s-2.28-3.09-2.44-4.14c.77-.95,1.06-2.31-.46-2.31a1.67,1.67,0,0,0-1.77,1.22h.88s.31-.38.6-.23-.13.47-.37,1.07a2.43,2.43,0,0,0,.66,2.13" />
  <path class="BUNTAI_PEACOCK_JEWELRY_PEACOCK_JEWELRY_2_d" d="M220.75,362.31v2.31a11.23,11.23,0,0,0,3.35-.8c1.21-.43,2.37-.94,3.09-1.27h0l.7-.33a4.51,4.51,0,0,0,1-2.68,8.28,8.28,0,0,1-1,.63h0a14.46,14.46,0,0,1-2.19.95h0a28.34,28.34,0,0,1-2.8.79" />
  <path class="BUNTAI_PEACOCK_JEWELRY_PEACOCK_JEWELRY_2_d" d="M220.75,364.62v3.1a9.8,9.8,0,0,1,2-2.21c1-.64,4.2-2.83,4.41-3h0" />
  <path class="BUNTAI_PEACOCK_JEWELRY_PEACOCK_JEWELRY_2_e" d="M222.27,341.25c-31.55,0-51-31.76-51.75-33.24-2.51-4.63,2-5.31,3.9-3.46-.42.48-.69.83-1.42,1.81,4.3,6.37,23.52,32.45,50.13,32.45h1.07A24.81,24.81,0,0,0,238.69,334c9.6-7.11,14.38-22.08,15-24.85-.5-.78-1.35-1.85-1.34-1.86,2.51-1.78,4.83-.33,4.42,2.91-.08.66-4.62,16.66-16.36,25.35a29.14,29.14,0,0,1-17,5.67Z" />
</svg>