<svg xmlns="http://www.w3.org/2000/svg" viewBox="0 0 432 432">
  <defs>
    <style>.BUNTAI_PEACOCK_JEWELRY_PEACOCK_JEWELRY_15_a{fill:#553a27;}.BUNTAI_PEACOCK_JEWELRY_PEACOCK_JEWELRY_15_b{fill:none;}.BUNTAI_PEACOCK_JEWELRY_PEACOCK_JEWELRY_15_b,.BUNTAI_PEACOCK_JEWELRY_PEACOCK_JEWELRY_15_c{stroke:#000;stroke-linecap:round;stroke-linejoin:round;stroke-width:0.72px;}.BUNTAI_PEACOCK_JEWELRY_PEACOCK_JEWELRY_15_c{fill:#ffc33e;}</style>
  </defs>
  <path class="BUNTAI_PEACOCK_JEWELRY_PEACOCK_JEWELRY_15_a" d="M186.62,272.78l-1.38,5.71s19.36,2.19,32.1,1.81,26.79-1.88,26.79-1.88a34.83,34.83,0,0,1-.87-4.56v-1.08s-20.31.57-26.94.57S186.62,272.78,186.62,272.78Z" />
  <path class="BUNTAI_PEACOCK_JEWELRY_PEACOCK_JEWELRY_15_b" d="M186.62,272.78l-1.38,5.71s19.36,2.19,32.1,1.81,26.79-1.88,26.79-1.88-.67-3.37-.87-4.56a4.78,4.78,0,0,1,0-1.08s-20.31.57-26.94.57S186.62,272.78,186.62,272.78Z" />
  <ellipse class="BUNTAI_PEACOCK_JEWELRY_PEACOCK_JEWELRY_15_c" cx="193.04" cy="280.35" rx="1.14" ry="1.13" />
  <path class="BUNTAI_PEACOCK_JEWELRY_PEACOCK_JEWELRY_15_c" d="M193,281.48s-1.5,14.72-1.5,18.44,1.5,4.61,1.5,4.61,1.5-.89,1.5-4.61S193,281.48,193,281.48Z" />
  <ellipse class="BUNTAI_PEACOCK_JEWELRY_PEACOCK_JEWELRY_15_c" cx="197.93" cy="280.35" rx="1.14" ry="1.13" />
  <path class="BUNTAI_PEACOCK_JEWELRY_PEACOCK_JEWELRY_15_c" d="M197.93,281.48s-1.5,14.72-1.5,18.44,1.5,4.61,1.5,4.61,1.5-.89,1.5-4.61S197.93,281.48,197.93,281.48Z" />
</svg>