<svg xmlns="http://www.w3.org/2000/svg" viewBox="0 0 432 432">
  <defs>
    <style>.BUNTAI_PEACOCK_JEWELRY_PEACOCK_JEWELRY_5_a{fill:#e2d93c;}.BUNTAI_PEACOCK_JEWELRY_PEACOCK_JEWELRY_5_a,.BUNTAI_PEACOCK_JEWELRY_PEACOCK_JEWELRY_5_b,.BUNTAI_PEACOCK_JEWELRY_PEACOCK_JEWELRY_5_c,.BUNTAI_PEACOCK_JEWELRY_PEACOCK_JEWELRY_5_g,.BUNTAI_PEACOCK_JEWELRY_PEACOCK_JEWELRY_5_h,.BUNTAI_PEACOCK_JEWELRY_PEACOCK_JEWELRY_5_j{stroke:#000;}.BUNTAI_PEACOCK_JEWELRY_PEACOCK_JEWELRY_5_a,.BUNTAI_PEACOCK_JEWELRY_PEACOCK_JEWELRY_5_h{stroke-miterlimit:10;}.BUNTAI_PEACOCK_JEWELRY_PEACOCK_JEWELRY_5_b{fill:#e2cb6e;}.BUNTAI_PEACOCK_JEWELRY_PEACOCK_JEWELRY_5_b,.BUNTAI_PEACOCK_JEWELRY_PEACOCK_JEWELRY_5_c,.BUNTAI_PEACOCK_JEWELRY_PEACOCK_JEWELRY_5_g,.BUNTAI_PEACOCK_JEWELRY_PEACOCK_JEWELRY_5_j{stroke-linecap:round;stroke-linejoin:round;}.BUNTAI_PEACOCK_JEWELRY_PEACOCK_JEWELRY_5_b,.BUNTAI_PEACOCK_JEWELRY_PEACOCK_JEWELRY_5_c{stroke-width:1.05px;}.BUNTAI_PEACOCK_JEWELRY_PEACOCK_JEWELRY_5_c,.BUNTAI_PEACOCK_JEWELRY_PEACOCK_JEWELRY_5_g,.BUNTAI_PEACOCK_JEWELRY_PEACOCK_JEWELRY_5_j{fill:none;}.BUNTAI_PEACOCK_JEWELRY_PEACOCK_JEWELRY_5_d{fill:#c32b2a;}.BUNTAI_PEACOCK_JEWELRY_PEACOCK_JEWELRY_5_e{fill:#bdb079;}.BUNTAI_PEACOCK_JEWELRY_PEACOCK_JEWELRY_5_f{fill:#273462;}.BUNTAI_PEACOCK_JEWELRY_PEACOCK_JEWELRY_5_g{stroke-width:1.04px;}.BUNTAI_PEACOCK_JEWELRY_PEACOCK_JEWELRY_5_h{fill:#754c24;}.BUNTAI_PEACOCK_JEWELRY_PEACOCK_JEWELRY_5_i{fill:#333;}</style>
  </defs>
  <circle class="BUNTAI_PEACOCK_JEWELRY_PEACOCK_JEWELRY_5_a" cx="212.64" cy="163.41" r="2.6" />
  <circle class="BUNTAI_PEACOCK_JEWELRY_PEACOCK_JEWELRY_5_a" cx="230.75" cy="163.41" r="2.6" />
  <path class="BUNTAI_PEACOCK_JEWELRY_PEACOCK_JEWELRY_5_b" d="M197.36,149a5.27,5.27,0,0,1-2.77,3.06c-4.42,2.15-9.77.61-9.15-4.62A10.47,10.47,0,0,1,190.9,139a8.32,8.32,0,0,0-1,3.11c-1,.52-2.08,1.67-2.4,5.37s5.61,3.45,6.81.91a2.71,2.71,0,0,0,.13-.3,5.22,5.22,0,0,0-1.15-5.37,4.23,4.23,0,0,1,1.35-1.5C197.37,143.7,198.17,146.68,197.36,149Z" />
  <path class="BUNTAI_PEACOCK_JEWELRY_PEACOCK_JEWELRY_5_c" d="M193.22,146.51a4.08,4.08,0,0,1-.37-1.4,4.28,4.28,0,0,1,.49-2.38,4.23,4.23,0,0,1,1.35-1.5,2.7,2.7,0,0,1,3.76,1.09" />
  <ellipse class="BUNTAI_PEACOCK_JEWELRY_PEACOCK_JEWELRY_5_d" cx="216.84" cy="357.87" rx="2.17" ry="2.2" />
  <path class="BUNTAI_PEACOCK_JEWELRY_PEACOCK_JEWELRY_5_e" d="M228.71,349.91l-3.15-2.37,2,2.65s1.6,10.92-10.69,18c-12.29-7.08-10.69-18-10.69-18l2-2.65L205,349.91S202.5,365.82,216.84,370C231.18,365.82,228.71,349.91,228.71,349.91Z" />
  <path class="BUNTAI_PEACOCK_JEWELRY_PEACOCK_JEWELRY_5_e" d="M222.86,350.53c.34,2-.14,5.71-2.75,7.61a3.93,3.93,0,0,0-2.14-4.22v-2.73h-2.26v2.73a3.94,3.94,0,0,0-2.14,4.22c-2.61-1.9-3.09-5.61-2.75-7.61-2.36,3.6-2.09,7.56,2.46,10.39l-1,1.79a12.7,12.7,0,0,0,1.61,1c.94-1.52,1.13-1.88,1.13-1.88a2.71,2.71,0,0,0,3.66,0s.19.36,1.13,1.88a12.42,12.42,0,0,0,1.6-1l-1-1.79C225,358.09,225.23,354.13,222.86,350.53Zm-6,9.54a2.2,2.2,0,1,1,2.18-2.2A2.18,2.18,0,0,1,216.84,360.07Z" />
  <path class="BUNTAI_PEACOCK_JEWELRY_PEACOCK_JEWELRY_5_f" d="M227.53,350.19l-2-2.65-3.82,2.06h-9.81l-3.81-2.06-2,2.65s-1.6,10.92,10.69,18C229.13,361.11,227.53,350.19,227.53,350.19Zm-7.13,10.73,1,1.79a12.42,12.42,0,0,1-1.6,1c-.94-1.52-1.13-1.88-1.13-1.88a2.71,2.71,0,0,1-3.66,0s-.19.36-1.13,1.88a12.7,12.7,0,0,1-1.61-1l1-1.79c-4.55-2.83-4.82-6.79-2.46-10.39-.34,2,.14,5.71,2.75,7.61a3.94,3.94,0,0,1,2.14-4.22v-2.73H218v2.73a3.93,3.93,0,0,1,2.14,4.22c2.61-1.9,3.09-5.61,2.75-7.61C225.23,354.13,225,358.09,220.4,360.92Z" />
  <path class="BUNTAI_PEACOCK_JEWELRY_PEACOCK_JEWELRY_5_g" d="M216.84,360.07a2.21,2.21,0,0,1,0-4.41" />
  <path class="BUNTAI_PEACOCK_JEWELRY_PEACOCK_JEWELRY_5_g" d="M216.84,349.6h-4.9l-3.82-2.06L205,349.91S202.5,365.82,216.84,370" />
  <path class="BUNTAI_PEACOCK_JEWELRY_PEACOCK_JEWELRY_5_g" d="M208.12,347.54l-2,2.65s-1.6,10.92,10.69,18" />
  <path class="BUNTAI_PEACOCK_JEWELRY_PEACOCK_JEWELRY_5_g" d="M216.84,351.19h-1.13v2.73a3.94,3.94,0,0,0-2.14,4.21c-2.61-1.89-3.09-5.6-2.75-7.6-2.37,3.6-2.1,7.56,2.46,10.39l-1,1.79a12.7,12.7,0,0,0,1.61,1c1-1.52,1.13-1.87,1.13-1.87a3.75,3.75,0,0,0,1.83.71" />
  <path class="BUNTAI_PEACOCK_JEWELRY_PEACOCK_JEWELRY_5_g" d="M216.84,355.66a2.21,2.21,0,0,1,0,4.41" />
  <path class="BUNTAI_PEACOCK_JEWELRY_PEACOCK_JEWELRY_5_g" d="M216.84,368.19V370c14.34-4.16,11.87-20.07,11.87-20.07l-3.15-2.37-3.82,2.06h-4.9" />
  <path class="BUNTAI_PEACOCK_JEWELRY_PEACOCK_JEWELRY_5_g" d="M225.56,347.54l2,2.65s1.6,10.92-10.69,18" />
  <path class="BUNTAI_PEACOCK_JEWELRY_PEACOCK_JEWELRY_5_g" d="M216.84,351.19H218v2.73a3.94,3.94,0,0,1,2.14,4.21c2.61-1.89,3.09-5.6,2.75-7.6,2.37,3.6,2.1,7.56-2.46,10.39l1,1.79a12.42,12.42,0,0,1-1.6,1c-1-1.52-1.13-1.87-1.13-1.87a3.75,3.75,0,0,1-1.83.71" />
  <path class="BUNTAI_PEACOCK_JEWELRY_PEACOCK_JEWELRY_5_h" d="M256.15,312.45a2,2,0,0,0-2.8.11,13.21,13.21,0,0,0,1.22,1.75c-6.23,10.72-19.39,25.42-36.24,32.08h0l-.85.34-.06,0h0l-.53.19-.68-.17-1-.27c-17-5-39.22-22.18-49.64-32.67a10.36,10.36,0,0,0,1.39-1.95,2.14,2.14,0,0,0-2.37-.23c-1.15.66-.77,3-.51,3.31,10.43,10.64,33.3,27.89,51,33h.06l.27.08.38.11.07,0h0l.86.22a.47.47,0,0,0,.17,0,.66.66,0,0,0,.23,0l.62-.22h0l1-.39h0C235.92,341,250.25,325,256.71,314A1.46,1.46,0,0,0,256.15,312.45Z" />
  <path class="BUNTAI_PEACOCK_JEWELRY_PEACOCK_JEWELRY_5_i" d="M215.25,346.46l1,.26s1-.56,1.4.23.21,1.37-.31,1.62a1.15,1.15,0,0,1-1.47-.41,2,2,0,0,0-.92-.2s.39,1.49,1.66,1.62a1.87,1.87,0,0,0,2.18-1.73,1.83,1.83,0,0,0-1-1.93A1.92,1.92,0,0,0,215.25,346.46Z" />
  <path class="BUNTAI_PEACOCK_JEWELRY_PEACOCK_JEWELRY_5_j" d="M214.86,347.9a2,2,0,0,0,1.74,1.73h.2a1.94,1.94,0,0,0,1.94-1.87.45.45,0,0,0,0-.11,2,2,0,0,0-.44-1.26,1.94,1.94,0,0,0-3.1.11l1,.27a1,1,0,0,1,.62-.21,1,1,0,0,1,.58.18,1.08,1.08,0,0,1,.49.91,1.14,1.14,0,0,1-.12.48,1.06,1.06,0,0,1-1.89,0h0Z" />
</svg>