<svg xmlns="http://www.w3.org/2000/svg" viewBox="0 0 432 432">
  <defs>
    <style>.BUNTAI_PEACOCK_JEWELRY_PEACOCK_JEWELRY_4_a{fill:#fff;stroke-width:0.51px;}.BUNTAI_PEACOCK_JEWELRY_PEACOCK_JEWELRY_4_a,.BUNTAI_PEACOCK_JEWELRY_PEACOCK_JEWELRY_4_b,.BUNTAI_PEACOCK_JEWELRY_PEACOCK_JEWELRY_4_d{stroke:#000;}.BUNTAI_PEACOCK_JEWELRY_PEACOCK_JEWELRY_4_a,.BUNTAI_PEACOCK_JEWELRY_PEACOCK_JEWELRY_4_b{stroke-miterlimit:10;}.BUNTAI_PEACOCK_JEWELRY_PEACOCK_JEWELRY_4_b{fill:#754c24;stroke-width:0.76px;}.BUNTAI_PEACOCK_JEWELRY_PEACOCK_JEWELRY_4_c{fill:#333;}.BUNTAI_PEACOCK_JEWELRY_PEACOCK_JEWELRY_4_d{fill:none;stroke-linecap:round;stroke-linejoin:round;stroke-width:0.32px;}</style>
  </defs>
  <path class="BUNTAI_PEACOCK_JEWELRY_PEACOCK_JEWELRY_4_a" d="M198.1,353.84l.69.29,1.47.59.52.21.68.26.15.06.5.19,1.13.41.83.3,1,.34.33.11.35.11.73.22.4.11.45.12c.25-1,.51-1.86.51-1.86l-.46-.15h0l-.32-.11-.14,0-.86-.29-.63-.21-.87-.28-1.29-.44-.52-.18-.84-.3-.22-.08-.33-.12-.48-.19-.6-.23-.38-.15-.54-.22,0,0-.82-.33a3.9,3.9,0,0,0-.52,1.09A1.56,1.56,0,0,0,198.1,353.84Z" />
  <polyline class="BUNTAI_PEACOCK_JEWELRY_PEACOCK_JEWELRY_4_a" points="207.86 355.3 208.28 354.07 208.54 354.13 208.34 355.58 208.08 355.52 207.71 357.04 207.95 357.1 207.38 358.38 207.18 358.27 207.35 357.16" />
  <line class="BUNTAI_PEACOCK_JEWELRY_PEACOCK_JEWELRY_4_a" x1="208.78" y1="355.68" x2="208.33" y2="355.58" />
  <line class="BUNTAI_PEACOCK_JEWELRY_PEACOCK_JEWELRY_4_a" x1="208.43" y1="357.21" x2="207.95" y2="357.1" />
  <path class="BUNTAI_PEACOCK_JEWELRY_PEACOCK_JEWELRY_4_a" d="M207.4,355.15s-.34,1.17-.5,1.89" />
  <path class="BUNTAI_PEACOCK_JEWELRY_PEACOCK_JEWELRY_4_a" d="M198.79,354.13a6.58,6.58,0,0,1,.59-1.82" />
  <path class="BUNTAI_PEACOCK_JEWELRY_PEACOCK_JEWELRY_4_a" d="M199.07,354.24s.44-.78.85-1.71" />
  <path class="BUNTAI_PEACOCK_JEWELRY_PEACOCK_JEWELRY_4_a" d="M200.3,352.68a4,4,0,0,1-.52,1.85" />
  <path class="BUNTAI_PEACOCK_JEWELRY_PEACOCK_JEWELRY_4_a" d="M201.38,353.1a13.56,13.56,0,0,1-.6,1.83" />
  <path class="BUNTAI_PEACOCK_JEWELRY_PEACOCK_JEWELRY_4_a" d="M200.9,352.91a3.38,3.38,0,0,1-.64,1.81" />
  <path class="BUNTAI_PEACOCK_JEWELRY_PEACOCK_JEWELRY_4_a" d="M201.71,353.22a10,10,0,0,1-.07,1.79,1,1,0,0,1,0,.24" />
  <path class="BUNTAI_PEACOCK_JEWELRY_PEACOCK_JEWELRY_4_a" d="M201.46,355.19l.18-.18a8.46,8.46,0,0,0,1.13-1.41" />
  <path class="BUNTAI_PEACOCK_JEWELRY_PEACOCK_JEWELRY_4_a" d="M203.29,353.78l-.1.16a10.57,10.57,0,0,1-1.08,1.5" />
  <path class="BUNTAI_PEACOCK_JEWELRY_PEACOCK_JEWELRY_4_a" d="M203.19,353.94a3.2,3.2,0,0,1,.11,1.25q0,.35-.06.66" />
  <path class="BUNTAI_PEACOCK_JEWELRY_PEACOCK_JEWELRY_4_a" d="M203.3,355.19a3.42,3.42,0,0,0,.81-.53l.22-.2.25-.24" />
  <path class="BUNTAI_PEACOCK_JEWELRY_PEACOCK_JEWELRY_4_a" d="M204.11,354.66a5.06,5.06,0,0,1,0,1.49" />
  <path class="BUNTAI_PEACOCK_JEWELRY_PEACOCK_JEWELRY_4_a" d="M205.45,354.5a4.79,4.79,0,0,1-.21,1.56,3.66,3.66,0,0,1-.15.43" />
  <path class="BUNTAI_PEACOCK_JEWELRY_PEACOCK_JEWELRY_4_a" d="M204.33,354.47a7.23,7.23,0,0,1,.91,1.59" />
  <path class="BUNTAI_PEACOCK_JEWELRY_PEACOCK_JEWELRY_4_a" d="M207.08,355a7,7,0,0,1-.58,1.89" />
  <path class="BUNTAI_PEACOCK_JEWELRY_PEACOCK_JEWELRY_4_a" d="M206.94,355a6.55,6.55,0,0,1-1.17,1.71" />
  <line class="BUNTAI_PEACOCK_JEWELRY_PEACOCK_JEWELRY_4_a" x1="205.42" y1="356.6" x2="206.08" y2="354.71" />
  <path class="BUNTAI_PEACOCK_JEWELRY_PEACOCK_JEWELRY_4_a" d="M231.68,357.73a17.17,17.17,0,0,1-6.84,1.82c-7.15.58-15.22-1.58-16.51-1.94l.53-2.31c1.14.32,11.95,3.84,23.3,1C232.77,356.12,232.23,357.43,231.68,357.73Z" />
  <line class="BUNTAI_PEACOCK_JEWELRY_PEACOCK_JEWELRY_4_a" x1="208.86" y1="355.3" x2="208.33" y2="357.61" />
  <path class="BUNTAI_PEACOCK_JEWELRY_PEACOCK_JEWELRY_4_b" d="M214.79,355.13l-.16,0c-19.21-4.86-28.75-18.85-33.37-29.74-5-11.76-6.15-25.45-6.15-25.56,0-.38,0-1.51.47-1.84s1.27-.76,2,.1c-.36.54-.74,1.15-1.11,1.83,0,.11,1.17,13.43,6.07,25,4.48,10.54,13.71,24.09,32.25,28.85,19.55-7.25,28.5-20.91,32.57-31.1,4.42-11.09,4.11-18.48,4.07-18.56a22.05,22.05,0,0,0-1.36-2.12c.23-.39.62-1.34,1.81-1,.61.17,1,1.32,1,1.71s.25,9.14-4.28,20.5c-4.18,10.5-13.4,24.56-33.56,32A.78.78,0,0,1,214.79,355.13Z" />
  <path class="BUNTAI_PEACOCK_JEWELRY_PEACOCK_JEWELRY_4_c" d="M213.23,353.22l.91.26s1-.56,1.34.22.2,1.34-.3,1.58a1.07,1.07,0,0,1-1.39-.39,1.94,1.94,0,0,0-.88-.21s.37,1.46,1.58,1.59a1.9,1.9,0,1,0-1.26-3Z" />
  <path class="BUNTAI_PEACOCK_JEWELRY_PEACOCK_JEWELRY_4_d" d="M212.87,354.63a1.89,1.89,0,0,0,1.65,1.69h.19a1.82,1.82,0,0,0,1.24-.5,1.89,1.89,0,0,0,.61-1.33.41.41,0,0,0,0-.11,2,2,0,0,0-.42-1.22,1.84,1.84,0,0,0-1.44-.71,1.81,1.81,0,0,0-1.51.81l.92.26a1,1,0,0,1,.59-.2,1,1,0,0,1,.55.18,1.07,1.07,0,0,1,.35,1.35,1,1,0,0,1-.9.59,1,1,0,0,1-.9-.55h0Z" />
</svg>