<svg xmlns="http://www.w3.org/2000/svg" viewBox="0 0 432 432">
  <defs>
    <style>.BUNTAI_PEACOCK_JEWELRY_PEACOCK_JEWELRY_9_a{fill:#754c24;stroke-width:0.75px;}.BUNTAI_PEACOCK_JEWELRY_PEACOCK_JEWELRY_9_a,.BUNTAI_PEACOCK_JEWELRY_PEACOCK_JEWELRY_9_c{stroke:#000;stroke-linecap:round;stroke-linejoin:round;}.BUNTAI_PEACOCK_JEWELRY_PEACOCK_JEWELRY_9_b{fill:#666;}.BUNTAI_PEACOCK_JEWELRY_PEACOCK_JEWELRY_9_c{fill:none;stroke-width:0.44px;}.BUNTAI_PEACOCK_JEWELRY_PEACOCK_JEWELRY_9_d{fill:#333;}</style>
  </defs>
  <path class="BUNTAI_PEACOCK_JEWELRY_PEACOCK_JEWELRY_9_a" d="M252.53,302.42c0,.07-.84,3.16-.87,3.23a22.58,22.58,0,0,1-1.79,4.41c-4.26,8.28-13.51,19.31-33.46,25.43h0l-1,.3h0l-.61.18a.91.91,0,0,1-.23,0h-.17l-.85-.18h-.06l-.74-.16h0l-.18,0h0c-18.87-4.25-28.38-15.17-33.06-23.72-2.11-3.87-3.16-7.66-4.29-10.68-.25-.68-.18-3.26,2.29-2.26a1.79,1.79,0,0,0-1,1.59,48.46,48.46,0,0,0,4.35,10.92c4.63,8.45,14.12,19.28,33.05,23.25l.67.14.53-.16h.07l.86-.26h0c19.43-6,28.44-16.71,32.58-24.78a36,36,0,0,0,2.49-7.35c.09,0-.22-.21-.8-.47C251.57,300.83,252.78,301.51,252.53,302.42Z" />
  <path class="BUNTAI_PEACOCK_JEWELRY_PEACOCK_JEWELRY_9_b" d="M213.91,350.07l2.36,6-1.9.18-1.21-6.1a4.53,4.53,0,0,0,.48-.06h0Z" />
  <path class="BUNTAI_PEACOCK_JEWELRY_PEACOCK_JEWELRY_9_b" d="M215.1,349.64l4.51,5.3-1.61.55-1.73.62h0l-2.36-6a6.33,6.33,0,0,0,1-.32Z" />
  <path class="BUNTAI_PEACOCK_JEWELRY_PEACOCK_JEWELRY_9_b" d="M222.11,353.18l-1.28.87-1.22.89-4.51-5.3a4.39,4.39,0,0,0,.77-.5l.08-.07Z" />
  <path class="BUNTAI_PEACOCK_JEWELRY_PEACOCK_JEWELRY_9_b" d="M223.72,351l-.86,1.08-.75,1.09L216,349.07a3.36,3.36,0,0,0,.62-.72l.08-.13Z" />
  <path class="BUNTAI_PEACOCK_JEWELRY_PEACOCK_JEWELRY_9_b" d="M224.73,348.52l-.5,1.14-.51,1.35-7.07-2.79a3.2,3.2,0,0,0,.29-.71c0-.05,0-.11.05-.16Z" />
  <path class="BUNTAI_PEACOCK_JEWELRY_PEACOCK_JEWELRY_9_b" d="M224.86,346.37l-.18.92,0,1.23L217,347.35a4.26,4.26,0,0,0,.11-1Z" />
  <path class="BUNTAI_PEACOCK_JEWELRY_PEACOCK_JEWELRY_9_b" d="M224.68,345.45l.18.92H217.1a4.2,4.2,0,0,0-.11-1l7.74-1.17Z" />
  <path class="BUNTAI_PEACOCK_JEWELRY_PEACOCK_JEWELRY_9_b" d="M224.23,343.07l.5,1.15L217,345.39c0-.06,0-.11-.05-.16a3,3,0,0,0-.29-.71l7.07-2.79Z" />
  <path class="BUNTAI_PEACOCK_JEWELRY_PEACOCK_JEWELRY_9_b" d="M222.86,340.65l.86,1.08-7.07,2.79-.08-.13a3.68,3.68,0,0,0-.62-.73l6.16-4.11Z" />
  <path class="BUNTAI_PEACOCK_JEWELRY_PEACOCK_JEWELRY_9_b" d="M222.11,339.55,216,343.66l-.08-.07a4.32,4.32,0,0,0-.77-.49l4.51-5.31,1.22.9Z" />
  <path class="BUNTAI_PEACOCK_JEWELRY_PEACOCK_JEWELRY_9_b" d="M219.61,337.79l-4.51,5.31-.23-.11a5.38,5.38,0,0,0-1-.32l2.36-6.05h0l1.73.62Z" />
  <path class="BUNTAI_PEACOCK_JEWELRY_PEACOCK_JEWELRY_9_b" d="M216.27,336.62l-2.36,6.05-.27-.06h0l-.48-.07,1.21-6.09Z" />
  <path class="BUNTAI_PEACOCK_JEWELRY_PEACOCK_JEWELRY_9_c" d="M213.64,342.61l-.48-.07,1.21-6.09,1.9.17h0l1.73.62,1.61.55,1.22.9,1.28.86.75,1.1.86,1.08.51,1.34.5,1.15,0,1.23.18.92" />
  <path class="BUNTAI_PEACOCK_JEWELRY_PEACOCK_JEWELRY_9_c" d="M217.1,346.37a4.2,4.2,0,0,0-.11-1c0-.06,0-.11-.05-.16a3,3,0,0,0-.29-.71l-.08-.13a3.68,3.68,0,0,0-.62-.73l-.08-.07a4.32,4.32,0,0,0-.77-.49l-.23-.11a5.38,5.38,0,0,0-1-.32l-.27-.06" />
  <line class="BUNTAI_PEACOCK_JEWELRY_PEACOCK_JEWELRY_9_c" x1="216.65" y1="344.52" x2="223.72" y2="341.73" />
  <polyline class="BUNTAI_PEACOCK_JEWELRY_PEACOCK_JEWELRY_9_c" points="215.95 343.67 215.95 343.67 222.11 339.55" />
  <line class="BUNTAI_PEACOCK_JEWELRY_PEACOCK_JEWELRY_9_c" x1="215.1" y1="343.1" x2="219.61" y2="337.79" />
  <line class="BUNTAI_PEACOCK_JEWELRY_PEACOCK_JEWELRY_9_c" x1="213.91" y1="342.67" x2="216.27" y2="336.62" />
  <line class="BUNTAI_PEACOCK_JEWELRY_PEACOCK_JEWELRY_9_c" x1="216.99" y1="345.39" x2="224.73" y2="344.22" />
  <polyline class="BUNTAI_PEACOCK_JEWELRY_PEACOCK_JEWELRY_9_c" points="213.64 342.61 213.64 342.61 212.79 346.37" />
  <polyline class="BUNTAI_PEACOCK_JEWELRY_PEACOCK_JEWELRY_9_c" points="216.94 345.23 212.79 346.37 216.57 344.39" />
  <polyline class="BUNTAI_PEACOCK_JEWELRY_PEACOCK_JEWELRY_9_c" points="215.87 343.59 212.79 346.37 214.87 342.99" />
  <path class="BUNTAI_PEACOCK_JEWELRY_PEACOCK_JEWELRY_9_c" d="M213.64,350.13a4.53,4.53,0,0,1-.48.06l1.21,6.1,1.9-.18h0l1.73-.62,1.61-.55,1.22-.89,1.28-.87.75-1.09.86-1.08.51-1.35.5-1.14,0-1.23.18-.92H217.1a4.26,4.26,0,0,1-.11,1s0,.11-.05.16a3.2,3.2,0,0,1-.29.71l-.08.13a3.36,3.36,0,0,1-.62.72l-.08.07a4.39,4.39,0,0,1-.77.5l-.23.11a6.33,6.33,0,0,1-1,.32l-.27.05" />
  <line class="BUNTAI_PEACOCK_JEWELRY_PEACOCK_JEWELRY_9_c" x1="223.72" y1="351.01" x2="216.65" y2="348.22" />
  <polyline class="BUNTAI_PEACOCK_JEWELRY_PEACOCK_JEWELRY_9_c" points="222.11 353.18 215.95 349.07 215.95 349.07" />
  <line class="BUNTAI_PEACOCK_JEWELRY_PEACOCK_JEWELRY_9_c" x1="219.61" y1="354.94" x2="215.1" y2="349.64" />
  <line class="BUNTAI_PEACOCK_JEWELRY_PEACOCK_JEWELRY_9_c" x1="216.27" y1="356.11" x2="213.91" y2="350.07" />
  <line class="BUNTAI_PEACOCK_JEWELRY_PEACOCK_JEWELRY_9_c" x1="224.73" y1="348.52" x2="216.99" y2="347.35" />
  <polyline class="BUNTAI_PEACOCK_JEWELRY_PEACOCK_JEWELRY_9_c" points="213.64 350.13 213.64 350.12 212.79 346.37 217.1 346.37" />
  <polyline class="BUNTAI_PEACOCK_JEWELRY_PEACOCK_JEWELRY_9_c" points="216.94 347.51 212.79 346.37 216.57 348.35" />
  <polyline class="BUNTAI_PEACOCK_JEWELRY_PEACOCK_JEWELRY_9_c" points="215.87 349.14 212.79 346.37 214.87 349.75" />
  <path class="BUNTAI_PEACOCK_JEWELRY_PEACOCK_JEWELRY_9_d" d="M212.92,334.45l1,.21s1-.45,1.4.18.21,1.09-.32,1.29-1.3,0-1.45-.32a2.34,2.34,0,0,0-.92-.17,2,2,0,0,0,1.65,1.29c1.27.1,2.05-.53,2.17-1.38a1.44,1.44,0,0,0-1-1.53A2.24,2.24,0,0,0,212.92,334.45Z" />
  <path class="BUNTAI_PEACOCK_JEWELRY_PEACOCK_JEWELRY_9_c" d="M212.53,335.6a1.81,1.81,0,0,0,1.74,1.37h.19a2.23,2.23,0,0,0,1.3-.4,1.49,1.49,0,0,0,.64-1.09v-.09a1.4,1.4,0,0,0-.43-1,2.17,2.17,0,0,0-1.51-.58,2.11,2.11,0,0,0-1.58.67l1,.21a1.15,1.15,0,0,1,.62-.17,1.09,1.09,0,0,1,.58.15.82.82,0,0,1,.48.71.77.77,0,0,1-.11.39,1.11,1.11,0,0,1-.95.47,1.14,1.14,0,0,1-.94-.45h0Z" />
</svg>