<svg xmlns="http://www.w3.org/2000/svg" viewBox="0 0 432 432">
  <defs>
    <style>.GUNDAN_GUNDAN_WEAPONS_HUNTER_4_a{isolation:isolate;}.GUNDAN_GUNDAN_WEAPONS_HUNTER_4_b{fill:#501809;}.GUNDAN_GUNDAN_WEAPONS_HUNTER_4_c{fill:#181b22;}.GUNDAN_GUNDAN_WEAPONS_HUNTER_4_d{fill:#fbf7f6;}.GUNDAN_GUNDAN_WEAPONS_HUNTER_4_e{fill:#4e2e2a;}.GUNDAN_GUNDAN_WEAPONS_HUNTER_4_f,.GUNDAN_GUNDAN_WEAPONS_HUNTER_4_m,.GUNDAN_GUNDAN_WEAPONS_HUNTER_4_n,.GUNDAN_GUNDAN_WEAPONS_HUNTER_4_o,.GUNDAN_GUNDAN_WEAPONS_HUNTER_4_p{fill:none;stroke:#000;stroke-linecap:round;stroke-linejoin:round;}.GUNDAN_GUNDAN_WEAPONS_HUNTER_4_f{stroke-width:2.68px;}.GUNDAN_GUNDAN_WEAPONS_HUNTER_4_g,.GUNDAN_GUNDAN_WEAPONS_HUNTER_4_q{mix-blend-mode:multiply;}.GUNDAN_GUNDAN_WEAPONS_HUNTER_4_g{opacity:0.43;}.GUNDAN_GUNDAN_WEAPONS_HUNTER_4_h{fill:#fff;}.GUNDAN_GUNDAN_WEAPONS_HUNTER_4_i{fill:#b29f3d;}.GUNDAN_GUNDAN_WEAPONS_HUNTER_4_j{fill:#511d10;}.GUNDAN_GUNDAN_WEAPONS_HUNTER_4_k{fill:#c09b5f;}.GUNDAN_GUNDAN_WEAPONS_HUNTER_4_l{fill:#3a3f4d;}.GUNDAN_GUNDAN_WEAPONS_HUNTER_4_m{stroke-width:1.47px;}.GUNDAN_GUNDAN_WEAPONS_HUNTER_4_n{stroke-width:2.28px;}.GUNDAN_GUNDAN_WEAPONS_HUNTER_4_o{stroke-width:1.58px;}.GUNDAN_GUNDAN_WEAPONS_HUNTER_4_p{stroke-width:1.3px;}.GUNDAN_GUNDAN_WEAPONS_HUNTER_4_q{opacity:0.2;}</style>
  </defs>
  <g class="GUNDAN_GUNDAN_WEAPONS_HUNTER_4_a">
    <path class="GUNDAN_GUNDAN_WEAPONS_HUNTER_4_b" d="M114.25,379.63a14.23,14.23,0,0,0-3,19.41A13.07,13.07,0,0,0,130,402.12c1-.78,7.84-5.92,18.64-14.82a204.22,204.22,0,0,1-15.28-23C121.66,374,114.51,379.43,114.25,379.63Z" />
    <path class="GUNDAN_GUNDAN_WEAPONS_HUNTER_4_b" d="M306.18,200.34a13.07,13.07,0,0,0-18.75,2.77q-3.54,4.89-7.16,9.69A200.1,200.1,0,0,1,299,233h0c3.35-4.37,6.62-8.78,9.85-13.24A14.24,14.24,0,0,0,306.18,200.34Z" />
    <path class="GUNDAN_GUNDAN_WEAPONS_HUNTER_4_b" d="M273.39,221.8C227.3,281,173.8,330,142.05,357a197.42,197.42,0,0,0,15.2,23.14c31.91-26.93,86.44-76.5,134.69-137.95A192.41,192.41,0,0,0,273.39,221.8Z" />
    <path class="GUNDAN_GUNDAN_WEAPONS_HUNTER_4_c" d="M157.25,380.14A197.42,197.42,0,0,1,142.05,357c-2.11-3.76-3.22-6.09-3.27-6.2a5.43,5.43,0,0,0-7.38-2.63,5.82,5.82,0,0,0-2.53,7.65c.16.33,1.68,3.52,4.49,8.48a204.22,204.22,0,0,0,15.28,23c2.43,3.19,5.09,6.46,8,9.72a5.44,5.44,0,0,0,4.09,1.86,5.31,5.31,0,0,0,3.71-1.49,5.84,5.84,0,0,0,.35-8.08C162.05,386.24,159.54,383.16,157.25,380.14Z" />
    <path class="GUNDAN_GUNDAN_WEAPONS_HUNTER_4_c" d="M306.22,242.68c-.24-.35-2.75-4.1-7.23-9.64a200.1,200.1,0,0,0-18.72-20.24c-2.33-2.18-4.8-4.39-7.4-6.58a5.39,5.39,0,0,0-7.76.85,5.86,5.86,0,0,0,.8,8c2.63,2.21,5.14,4.46,7.48,6.69a192.41,192.41,0,0,1,18.55,20.39c3.3,4.18,5.12,6.89,5.2,7a5.43,5.43,0,0,0,4.53,2.47,5.26,5.26,0,0,0,3.14-1A5.85,5.85,0,0,0,306.22,242.68Z" />
    <path class="GUNDAN_GUNDAN_WEAPONS_HUNTER_4_d" d="M359.55,166.87l-7.72,16.86s7.68,97.56-12.13,191.85l18.22,17-25.23,11.8c-11.34,40.69-28.7,78.74-55,105.63C261.41,496.3,257.9,494.1,257.9,494.1H148.74S145.22,496.3,129,510c-26.34-26.89-43.7-64.94-55-105.63l-25.23-11.8,18.22-17C47.12,281.29,54.8,183.73,54.8,183.73l-7.72-16.86,22.72-2.11,63.75-60C141.09,93,144.26,88,151.8,76.29l25,24.75,26.48,7,26.47-7,25-24.75C262.37,88,265.54,93,273.08,104.73l63.75,60ZM275.93,470.68c57.63-86.2,45.45-284.21,45.45-284.21l-72.26-68.32-45.8,13.23-45.81-13.23L85.25,186.47s-12.18,198,45.44,284.21c36.09,0,72.63-1.18,72.63-1.18S239.86,470.68,275.93,470.68Z" />
    <path class="GUNDAN_GUNDAN_WEAPONS_HUNTER_4_e" d="M321.38,186.47s12.18,198-45.45,284.21c-36.07,0-72.61-1.18-72.61-1.18s-36.54,1.18-72.63,1.18c-57.62-86.2-45.44-284.21-45.44-284.21l72.26-68.32,45.81,13.23,45.8-13.23Zm-12.52,33.32a14.24,14.24,0,0,0-2.68-19.45,13.07,13.07,0,0,0-18.75,2.77q-3.54,4.89-7.16,9.69c-2.33-2.18-4.8-4.39-7.4-6.58a5.39,5.39,0,0,0-7.76.85,5.86,5.86,0,0,0,.8,8c2.63,2.21,5.14,4.46,7.48,6.69C227.3,281,173.8,330,142.05,357c-2.11-3.76-3.22-6.09-3.27-6.2a5.43,5.43,0,0,0-7.38-2.63,5.82,5.82,0,0,0-2.53,7.65c.16.33,1.68,3.52,4.49,8.48-11.7,9.71-18.85,15.13-19.11,15.33a14.23,14.23,0,0,0-3,19.41A13.07,13.07,0,0,0,130,402.12c1-.78,7.84-5.92,18.64-14.82,2.43,3.19,5.09,6.46,8,9.72a5.44,5.44,0,0,0,4.09,1.86,5.31,5.31,0,0,0,3.71-1.49,5.84,5.84,0,0,0,.35-8.08c-2.7-3.07-5.21-6.15-7.5-9.17,31.91-26.93,86.44-76.5,134.69-137.95,3.3,4.18,5.12,6.89,5.2,7a5.43,5.43,0,0,0,4.53,2.47,5.26,5.26,0,0,0,3.14-1,5.85,5.85,0,0,0,1.41-7.95c-.24-.35-2.75-4.1-7.23-9.64h0C302.36,228.66,305.63,224.25,308.86,219.79Z" />
    <path class="GUNDAN_GUNDAN_WEAPONS_HUNTER_4_f" d="M280.27,212.8q3.62-4.8,7.16-9.69a13.07,13.07,0,0,1,18.75-2.77,14.24,14.24,0,0,1,2.68,19.45c-3.23,4.46-6.5,8.87-9.85,13.24" />
    <path class="GUNDAN_GUNDAN_WEAPONS_HUNTER_4_f" d="M142.05,357c31.75-27,85.25-76,131.34-135.2" />
    <path class="GUNDAN_GUNDAN_WEAPONS_HUNTER_4_f" d="M157.25,380.14c31.91-26.93,86.44-76.5,134.69-137.95" />
    <path class="GUNDAN_GUNDAN_WEAPONS_HUNTER_4_f" d="M133.36,364.3c-11.7,9.71-18.85,15.13-19.11,15.33a14.23,14.23,0,0,0-3,19.41A13.07,13.07,0,0,0,130,402.12c1-.78,7.84-5.92,18.64-14.82" />
    <path class="GUNDAN_GUNDAN_WEAPONS_HUNTER_4_f" d="M157.25,380.14c2.29,3,4.8,6.1,7.5,9.17a5.84,5.84,0,0,1-.35,8.08,5.31,5.31,0,0,1-3.71,1.49A5.44,5.44,0,0,1,156.6,397c-2.87-3.26-5.53-6.53-8-9.72a204.22,204.22,0,0,1-15.28-23c-2.81-5-4.33-8.15-4.49-8.48a5.82,5.82,0,0,1,2.53-7.65,5.43,5.43,0,0,1,7.38,2.63c.05.11,1.16,2.44,3.27,6.2A197.42,197.42,0,0,0,157.25,380.14Z" />
    <path class="GUNDAN_GUNDAN_WEAPONS_HUNTER_4_f" d="M299,233c4.48,5.54,7,9.29,7.23,9.64a5.85,5.85,0,0,1-1.41,7.95,5.26,5.26,0,0,1-3.14,1,5.43,5.43,0,0,1-4.53-2.47c-.08-.1-1.9-2.81-5.2-7a192.41,192.41,0,0,0-18.55-20.39c-2.34-2.23-4.85-4.48-7.48-6.69a5.86,5.86,0,0,1-.8-8,5.39,5.39,0,0,1,7.76-.85c2.6,2.19,5.07,4.4,7.4,6.58A200.1,200.1,0,0,1,299,233Z" />
    <path class="GUNDAN_GUNDAN_WEAPONS_HUNTER_4_f" d="M73.94,404.41c11.34,40.69,28.7,78.74,55,105.63,16.24-13.74,19.76-15.94,19.76-15.94h54.58" />
    <path class="GUNDAN_GUNDAN_WEAPONS_HUNTER_4_f" d="M66.93,375.58C47.12,281.29,54.8,183.73,54.8,183.73l-7.72-16.86,22.72-2.11,63.75-60C141.09,93,144.26,88,151.8,76.29l25,24.75,26.48,7" />
    <polyline class="GUNDAN_GUNDAN_WEAPONS_HUNTER_4_f" points="73.94 404.41 48.72 392.61 66.93 375.58" />
    <path class="GUNDAN_GUNDAN_WEAPONS_HUNTER_4_f" d="M203.32,131.38l-45.81-13.23L85.25,186.47s-12.18,198,45.44,284.21c36.09,0,72.63-1.18,72.63-1.18" />
    <path class="GUNDAN_GUNDAN_WEAPONS_HUNTER_4_f" d="M203.32,494.1H257.9s3.51,2.2,19.75,15.94c26.34-26.89,43.7-64.94,55-105.63" />
    <path class="GUNDAN_GUNDAN_WEAPONS_HUNTER_4_f" d="M203.32,108.07l26.47-7,25-24.75C262.37,88,265.54,93,273.08,104.73l63.75,60,22.72,2.11-7.72,16.86s7.68,97.56-12.13,191.85" />
    <polyline class="GUNDAN_GUNDAN_WEAPONS_HUNTER_4_f" points="339.7 375.58 357.92 392.61 332.69 404.41" />
    <path class="GUNDAN_GUNDAN_WEAPONS_HUNTER_4_f" d="M203.32,131.38l45.8-13.23,72.26,68.32s12.18,198-45.45,284.21c-36.07,0-72.61-1.18-72.61-1.18" />
    <path d="M155.42,90.8v2.9c.27,0,.53.06.8.11a8.37,8.37,0,0,1,2,.65L159.72,92l1.23.71-1.45,2.51a8.35,8.35,0,0,1,2.07,2.08l2.52-1.45L164.8,97l-2.52,1.45a8,8,0,0,1,.76,2.84H166v1.42H163a8.14,8.14,0,0,1-.76,2.85L164.8,107l-.71,1.23-2.52-1.45a8.35,8.35,0,0,1-2.07,2.08l1.45,2.52-1.23.71-1.46-2.52a8,8,0,0,1-2,.66,7.28,7.28,0,0,1-.8.1v2.9H154v-2.9a8.41,8.41,0,0,1-2.84-.76l-1.46,2.52-1.23-.71,1.46-2.52a8.39,8.39,0,0,1-2.08-2.08l-2.52,1.45-.71-1.23,2.51-1.44a8.34,8.34,0,0,1-.75-2.85h-2.91v-1.42h2.91a8.17,8.17,0,0,1,.75-2.84L144.63,97l.71-1.23,2.52,1.45a8.39,8.39,0,0,1,2.08-2.08l-1.46-2.51,1.23-.71,1.46,2.51A8.18,8.18,0,0,1,154,93.7V90.8h1.41m0-2.06H154a2.05,2.05,0,0,0-2,2.06v.92l-.47-.8a2.05,2.05,0,0,0-1.78-1,2,2,0,0,0-1,.28l-1.23.71a2,2,0,0,0-1,1.25,2.08,2.08,0,0,0,.2,1.56l.46.79-.8-.46a2.08,2.08,0,0,0-1-.27,2,2,0,0,0-1.78,1L142.85,96a2.05,2.05,0,0,0,.75,2.79l.81.47h-.93a2.05,2.05,0,0,0-2,2v1.42a2.05,2.05,0,0,0,2,2.06h.92l-.79.45a2.06,2.06,0,0,0-.76,2.8l.7,1.23a2.07,2.07,0,0,0,1.25,1,2.5,2.5,0,0,0,.54.07,2,2,0,0,0,1-.28l.8-.46-.46.8a2.07,2.07,0,0,0-.2,1.56,2,2,0,0,0,1,1.25l1.23.71a2,2,0,0,0,1,.27,2,2,0,0,0,1.78-1l.47-.8v.91a2.05,2.05,0,0,0,2,2.06h1.41a2.06,2.06,0,0,0,2.06-2.06v-.91l.46.8a2,2,0,0,0,1.78,1,2,2,0,0,0,1-.27l1.24-.71a2,2,0,0,0,.75-2.81l-.46-.79.79.45a2,2,0,0,0,1,.28,1.88,1.88,0,0,0,.53-.07,2,2,0,0,0,1.25-1l.71-1.23a2.08,2.08,0,0,0,.2-1.56,2,2,0,0,0-1-1.25l-.79-.45H166a2.05,2.05,0,0,0,2.05-2.06v-1.42a2.05,2.05,0,0,0-2.05-2H165l.81-.46a2.09,2.09,0,0,0,.95-1.25,2.07,2.07,0,0,0-.2-1.56l-.72-1.23a2,2,0,0,0-1.77-1,2.14,2.14,0,0,0-1,.27l-.79.46.46-.79a2,2,0,0,0-.75-2.81l-1.24-.71a2,2,0,0,0-1-.28,2.05,2.05,0,0,0-1.78,1l-.46.8V90.8a2.06,2.06,0,0,0-2.06-2.06Z" />
    <path d="M154.72,96.77a5.34,5.34,0,0,1,1.5.22,5.26,5.26,0,0,1,0,10.07,5,5,0,0,1-1.5.22,5.26,5.26,0,1,1,0-10.51m0-2a7.31,7.31,0,1,0,2.07.3,7.24,7.24,0,0,0-2.07-.3Z" />
    <path d="M70.3,170.31v2.91a6.83,6.83,0,0,1,.79.11,8.31,8.31,0,0,1,2,.65l1.46-2.52,1.23.71-1.45,2.52a8.31,8.31,0,0,1,2.07,2.07L79,175.32l.71,1.22L77.16,178a8,8,0,0,1,.76,2.84h2.91v1.42H77.92a8.08,8.08,0,0,1-.76,2.84l2.52,1.45L79,187.78l-2.52-1.45a8.35,8.35,0,0,1-2.07,2.08l1.45,2.51-1.23.72-1.46-2.52a8.31,8.31,0,0,1-2,.65c-.26,0-.52.08-.79.11v2.9H68.89v-2.9a8.41,8.41,0,0,1-2.84-.76l-1.46,2.52-1.23-.72,1.45-2.51a8.52,8.52,0,0,1-2.07-2.08l-2.52,1.45-.71-1.23L62,185.1a8.29,8.29,0,0,1-.75-2.84H58.36v-1.42h2.91A8.17,8.17,0,0,1,62,178l-2.51-1.46.71-1.22,2.52,1.44a8.48,8.48,0,0,1,2.07-2.07l-1.45-2.52,1.23-.71L66.05,174a8.18,8.18,0,0,1,2.84-.76v-2.91H70.3m0-2.05H68.89a2.05,2.05,0,0,0-2,2.05v.93l-.47-.8a2.05,2.05,0,0,0-1.78-1,2.08,2.08,0,0,0-1,.27l-1.23.71a2.06,2.06,0,0,0-.76,2.81l.46.8-.8-.46a2,2,0,0,0-1-.28,2.06,2.06,0,0,0-1.79,1l-.7,1.22a2.07,2.07,0,0,0,.75,2.8l.81.46h-.93a2.05,2.05,0,0,0-2,2.06v1.42a2.05,2.05,0,0,0,2,2.05h.92l-.79.46a2,2,0,0,0-.76,2.79l.7,1.24a2,2,0,0,0,1.25,1,2,2,0,0,0,.54.07,2,2,0,0,0,1-.27l.8-.46-.46.8a2.07,2.07,0,0,0-.2,1.56,2,2,0,0,0,1,1.24l1.23.72a2.08,2.08,0,0,0,1,.27,2.05,2.05,0,0,0,1.78-1l.47-.8v.92a2.05,2.05,0,0,0,2,2.05H70.3a2.05,2.05,0,0,0,2.06-2.05v-.92l.46.8a2.05,2.05,0,0,0,1.78,1,2.08,2.08,0,0,0,1-.27l1.24-.72a2.09,2.09,0,0,0,1-1.24,2.07,2.07,0,0,0-.21-1.56l-.46-.8.79.46a2.06,2.06,0,0,0,1,.27,1.93,1.93,0,0,0,.53-.07,2.06,2.06,0,0,0,1.25-.95l.71-1.24a2,2,0,0,0-.76-2.8l-.79-.46h.92a2.05,2.05,0,0,0,2-2.05v-1.42a2.05,2.05,0,0,0-2-2.06H79.9l.81-.46a2.06,2.06,0,0,0,.74-2.81l-.71-1.22a2,2,0,0,0-2.8-.75l-.79.45.46-.79a2.07,2.07,0,0,0,.21-1.56,2.15,2.15,0,0,0-1-1.25l-1.24-.71a2.08,2.08,0,0,0-1-.27,2.05,2.05,0,0,0-1.78,1l-.46.8v-.93a2.05,2.05,0,0,0-2.06-2.05Z" />
    <path d="M69.6,176.29a4.89,4.89,0,0,1,1.49.22,5.25,5.25,0,0,1,0,10.07,4.89,4.89,0,0,1-1.49.22,5.26,5.26,0,1,1,0-10.51m0-2a7.31,7.31,0,1,0,0,14.61,7,7,0,0,0,2.1-.31,7.3,7.3,0,0,0,0-14,7,7,0,0,0-2.07-.3Z" />
    <path d="M80,375.58v2.91a7.32,7.32,0,0,1,.8.11,8.59,8.59,0,0,1,2.05.65l1.45-2.52,1.23.71L84.1,380A8.31,8.31,0,0,1,86.17,382l2.52-1.44.71,1.22-2.52,1.46a8,8,0,0,1,.76,2.84h2.91v1.42H87.64a8.08,8.08,0,0,1-.76,2.84l2.52,1.45-.71,1.23-2.52-1.45a8.35,8.35,0,0,1-2.07,2.08l1.45,2.52-1.23.71-1.45-2.52a8.59,8.59,0,0,1-2.05.65,7.32,7.32,0,0,1-.8.11v2.9H78.61v-2.9a8.41,8.41,0,0,1-2.84-.76l-1.45,2.52-1.24-.71,1.46-2.52a8.39,8.39,0,0,1-2.08-2.08l-2.52,1.45-.7-1.23,2.5-1.45a8.29,8.29,0,0,1-.75-2.84H68.08v-1.42H71a8.17,8.17,0,0,1,.75-2.84l-2.5-1.46.7-1.22L72.46,382A8.35,8.35,0,0,1,74.54,380l-1.46-2.52,1.24-.71,1.45,2.52a8.18,8.18,0,0,1,2.84-.76v-2.91H80m0-2.05H78.61a2.05,2.05,0,0,0-2,2.05v.93l-.47-.8a2.05,2.05,0,0,0-1.78-1,2.1,2.1,0,0,0-1,.27l-1.23.71a2.06,2.06,0,0,0-.76,2.81l.46.8-.8-.46a2,2,0,0,0-1-.28,2,2,0,0,0-1.78,1l-.71,1.22a2.06,2.06,0,0,0,.76,2.8l.8.47h-.93a2,2,0,0,0-2,2.05v1.42a2.05,2.05,0,0,0,2,2.05H69l-.79.46a2,2,0,0,0-.76,2.79l.7,1.24a2,2,0,0,0,1.25,1,2,2,0,0,0,.54.07,2,2,0,0,0,1-.27l.81-.46-.47.8a2.07,2.07,0,0,0-.2,1.56,2,2,0,0,0,1,1.24l1.23.72a2.1,2.1,0,0,0,1,.27,2.05,2.05,0,0,0,1.78-1l.47-.8v.92a2.05,2.05,0,0,0,2,2.05H80a2.05,2.05,0,0,0,2.06-2.05v-.92l.46.8a2.05,2.05,0,0,0,1.78,1,2.08,2.08,0,0,0,1-.27l1.24-.72a2,2,0,0,0,.75-2.8l-.46-.8.79.46a2.09,2.09,0,0,0,1,.27,1.88,1.88,0,0,0,.53-.07,2,2,0,0,0,1.25-.95l.71-1.24a2.07,2.07,0,0,0,.2-1.56,2,2,0,0,0-1-1.24l-.78-.46h.91a2,2,0,0,0,2-2.05v-1.42a2,2,0,0,0-2-2.05h-.92l.8-.47a2,2,0,0,0,.95-1.25,2.07,2.07,0,0,0-.2-1.56l-.71-1.22a2.06,2.06,0,0,0-1.78-1,2,2,0,0,0-1,.28l-.8.45.46-.79a2.07,2.07,0,0,0,.21-1.56,2.11,2.11,0,0,0-1-1.25L85.34,375a2.08,2.08,0,0,0-1-.27,2.05,2.05,0,0,0-1.78,1l-.46.8v-.93A2.05,2.05,0,0,0,80,373.53Z" />
    <path d="M79.32,381.56a5,5,0,0,1,1.5.22,5.26,5.26,0,0,1,0,10.07,5,5,0,0,1-1.5.22,5.26,5.26,0,1,1,0-10.51m0-2.05a7.31,7.31,0,1,0,0,14.61,6.93,6.93,0,0,0,2.1-.31,7.3,7.3,0,0,0,0-14,6.91,6.91,0,0,0-2.07-.3Z" />
    <path d="M252.62,90.8v2.9a8.18,8.18,0,0,1,2.84.76L256.92,92l1.23.71-1.45,2.51a8.52,8.52,0,0,1,2.07,2.08l2.52-1.45L262,97l-2.51,1.45a8.17,8.17,0,0,1,.75,2.84h2.91v1.42h-2.91a8.34,8.34,0,0,1-.75,2.85L262,107l-.71,1.23-2.52-1.45a8.52,8.52,0,0,1-2.07,2.08l1.45,2.52-1.23.71-1.46-2.52a8.41,8.41,0,0,1-2.84.76v2.9h-1.41v-2.9a6.82,6.82,0,0,1-.79-.1,7.93,7.93,0,0,1-2-.66l-1.46,2.52-1.23-.71,1.45-2.52a8.35,8.35,0,0,1-2.07-2.08l-2.52,1.45-.71-1.23,2.52-1.44a8.14,8.14,0,0,1-.76-2.85h-2.91v-1.42h2.91a8,8,0,0,1,.76-2.84L241.83,97l.71-1.23,2.52,1.45a8.35,8.35,0,0,1,2.07-2.08l-1.45-2.51,1.23-.71,1.46,2.51a8.31,8.31,0,0,1,2-.65c.26,0,.52-.08.79-.11V90.8h1.41m0-2.06h-1.41a2.06,2.06,0,0,0-2.06,2.06v.92l-.46-.8a2.05,2.05,0,0,0-1.78-1,2,2,0,0,0-1,.28l-1.24.71a2,2,0,0,0-.75,2.81l.46.79-.79-.46a2.14,2.14,0,0,0-1-.27,2,2,0,0,0-1.77,1L240.06,96a2,2,0,0,0-.21,1.56,2.09,2.09,0,0,0,1,1.25l.81.46h-.93a2.05,2.05,0,0,0-2.05,2v1.42a2.05,2.05,0,0,0,2.05,2.06h.92l-.79.45a2,2,0,0,0-1,1.25,2.08,2.08,0,0,0,.2,1.56l.71,1.23a2.08,2.08,0,0,0,1.25,1,1.93,1.93,0,0,0,.53.07,2,2,0,0,0,1-.28l.79-.45-.46.79a2,2,0,0,0,.75,2.81l1.24.71a2,2,0,0,0,1,.27,2,2,0,0,0,1.78-1l.46-.8v.91a2.06,2.06,0,0,0,2.06,2.06h1.41a2,2,0,0,0,2-2.06v-.91l.47.8a2,2,0,0,0,1.78,1,2,2,0,0,0,1-.27l1.23-.71a2,2,0,0,0,1-1.25,2.07,2.07,0,0,0-.2-1.56l-.46-.8.8.46a2,2,0,0,0,1,.28,2.5,2.5,0,0,0,.54-.07,2.07,2.07,0,0,0,1.25-1l.7-1.23a2.06,2.06,0,0,0-.76-2.8l-.79-.45h.92a2.05,2.05,0,0,0,2.05-2.06v-1.42a2.05,2.05,0,0,0-2.05-2h-.93l.81-.47a2.05,2.05,0,0,0,.75-2.79l-.7-1.23a2.07,2.07,0,0,0-1.79-1,2.1,2.1,0,0,0-1,.27l-.8.46.46-.79a2.08,2.08,0,0,0,.2-1.56,2,2,0,0,0-1-1.25l-1.23-.71a2,2,0,0,0-1-.28,2.05,2.05,0,0,0-1.78,1l-.47.8V90.8a2,2,0,0,0-2-2.06Z" />
    <path d="M251.91,96.77a5.26,5.26,0,1,1,0,10.51,4.89,4.89,0,0,1-1.49-.22,5.26,5.26,0,0,1,1.49-10.29m0-2a7.31,7.31,0,1,0,7.31,7.31,7.31,7.31,0,0,0-7.31-7.31Z" />
    <path d="M337.74,170.31v2.91a8.18,8.18,0,0,1,2.84.76l1.46-2.52,1.23.71-1.45,2.52a8.48,8.48,0,0,1,2.07,2.07l2.52-1.44.71,1.22L344.61,178a8.17,8.17,0,0,1,.75,2.84h2.91v1.42h-2.91a8.29,8.29,0,0,1-.75,2.84l2.51,1.45-.71,1.23-2.52-1.45a8.52,8.52,0,0,1-2.07,2.08l1.45,2.51-1.23.72-1.46-2.52a8.41,8.41,0,0,1-2.84.76v2.9h-1.41v-2.9c-.27,0-.53-.06-.79-.11a8.31,8.31,0,0,1-2.05-.65L332,191.64l-1.23-.72,1.45-2.51a8.35,8.35,0,0,1-2.07-2.08l-2.52,1.45-.71-1.23,2.52-1.45a8.08,8.08,0,0,1-.76-2.84H325.8v-1.42h2.91a8,8,0,0,1,.76-2.84L327,176.54l.71-1.22,2.52,1.44a8.31,8.31,0,0,1,2.07-2.07l-1.45-2.52,1.23-.71,1.46,2.52a8.31,8.31,0,0,1,2.05-.65,6.83,6.83,0,0,1,.79-.11v-2.91h1.41m0-2.05h-1.41a2.05,2.05,0,0,0-2.06,2.05v.93l-.46-.8a2.05,2.05,0,0,0-1.78-1,2.08,2.08,0,0,0-1,.27l-1.24.71a2.09,2.09,0,0,0-.95,1.25,2,2,0,0,0,.2,1.56l.46.79-.79-.45a2,2,0,0,0-2.8.75l-.71,1.22a2,2,0,0,0,.75,2.81l.8.46h-.93a2.05,2.05,0,0,0-2.05,2.06v1.42a2.05,2.05,0,0,0,2.05,2.05h.92l-.79.46a2,2,0,0,0-.76,2.8l.71,1.24a2.06,2.06,0,0,0,1.25.95,2,2,0,0,0,.53.07,2.06,2.06,0,0,0,1-.27l.79-.46-.46.8a2.06,2.06,0,0,0,.75,2.8l1.24.72a2.08,2.08,0,0,0,1,.27,2.05,2.05,0,0,0,1.78-1l.46-.8v.92a2.05,2.05,0,0,0,2.06,2.05h1.41a2,2,0,0,0,2.05-2.05v-.92l.47.8a2.05,2.05,0,0,0,1.78,1,2.08,2.08,0,0,0,1-.27l1.24-.72a2.06,2.06,0,0,0,.75-2.8l-.46-.8.8.46a2,2,0,0,0,1,.27,2,2,0,0,0,.54-.07,2,2,0,0,0,1.25-1l.7-1.24a2,2,0,0,0-.76-2.79l-.78-.46h.91a2.05,2.05,0,0,0,2.05-2.05v-1.42a2.05,2.05,0,0,0-2.05-2.06h-.92l.8-.46a2.07,2.07,0,0,0,.75-2.8l-.7-1.22a2,2,0,0,0-2.81-.76l-.8.46.46-.8a2,2,0,0,0,.2-1.56,2.09,2.09,0,0,0-.95-1.25l-1.24-.71a2.08,2.08,0,0,0-1-.27,2.05,2.05,0,0,0-1.78,1l-.47.8v-.93a2,2,0,0,0-2.05-2.05Z" />
    <path d="M337,176.29a5.26,5.26,0,1,1,0,10.51,4.89,4.89,0,0,1-1.49-.22,5.25,5.25,0,0,1,0-10.07,4.89,4.89,0,0,1,1.49-.22m0-2a7,7,0,0,0-2.1.31,7.31,7.31,0,0,0,0,14,7,7,0,0,0,2.07.3,7.31,7.31,0,1,0,0-14.61Z" />
    <path d="M328,375.58v2.91a8.18,8.18,0,0,1,2.84.76l1.46-2.52,1.23.71L332.09,380a8.35,8.35,0,0,1,2.08,2.07l2.52-1.44.71,1.22-2.51,1.46a8.17,8.17,0,0,1,.75,2.84h2.91v1.42h-2.91a8.29,8.29,0,0,1-.75,2.84l2.51,1.45-.71,1.23-2.52-1.45a8.39,8.39,0,0,1-2.08,2.08l1.46,2.52-1.23.71-1.46-2.52a8.41,8.41,0,0,1-2.84.76v2.9h-1.41v-2.9a7.32,7.32,0,0,1-.8-.11,8.59,8.59,0,0,1-2.05-.65l-1.45,2.52-1.23-.71,1.45-2.52a8.35,8.35,0,0,1-2.07-2.08l-2.52,1.45-.71-1.23,2.52-1.45a8.08,8.08,0,0,1-.76-2.84h-2.91v-1.42H319a8,8,0,0,1,.76-2.84l-2.52-1.46.71-1.22,2.52,1.44a8.31,8.31,0,0,1,2.07-2.07l-1.45-2.52,1.23-.71,1.45,2.52a8.59,8.59,0,0,1,2.05-.65,7.32,7.32,0,0,1,.8-.11v-2.91H328m0-2.05h-1.41a2.05,2.05,0,0,0-2.06,2.05v.93l-.46-.8a2.05,2.05,0,0,0-1.78-1,2.08,2.08,0,0,0-1,.27l-1.24.71a2.15,2.15,0,0,0-1,1.25,2.07,2.07,0,0,0,.21,1.56l.46.79-.79-.45a2,2,0,0,0-2.8.75l-.72,1.22a2.07,2.07,0,0,0-.2,1.56,2,2,0,0,0,.95,1.25l.81.47h-.93a2,2,0,0,0-2.05,2.05v1.42a2.05,2.05,0,0,0,2.05,2.05H317l-.79.46a2,2,0,0,0-.76,2.8l.71,1.24a2,2,0,0,0,1.25.95,1.93,1.93,0,0,0,.53.07,2.09,2.09,0,0,0,1-.27l.79-.46-.46.8a2.07,2.07,0,0,0-.21,1.56,2.09,2.09,0,0,0,1,1.24l1.24.72a2.08,2.08,0,0,0,1,.27,2.05,2.05,0,0,0,1.78-1l.46-.8v.92a2.05,2.05,0,0,0,2.06,2.05H328a2.05,2.05,0,0,0,2.05-2.05v-.92l.47.8a2.05,2.05,0,0,0,1.78,1,2.08,2.08,0,0,0,1-.27l1.23-.72a2,2,0,0,0,1-1.24,2.07,2.07,0,0,0-.2-1.56l-.46-.8.8.46a2,2,0,0,0,1,.27,2,2,0,0,0,.54-.07,2,2,0,0,0,1.25-1l.7-1.24a2,2,0,0,0-.76-2.79l-.79-.46h.92a2.05,2.05,0,0,0,2.05-2.05v-1.42a2,2,0,0,0-2.05-2.05h-.93l.81-.47a2.07,2.07,0,0,0,.75-2.8l-.71-1.22a2,2,0,0,0-1.78-1,2,2,0,0,0-1,.28l-.8.46.46-.8a2.06,2.06,0,0,0-.76-2.81l-1.23-.71a2.08,2.08,0,0,0-1-.27,2.05,2.05,0,0,0-1.78,1l-.47.8v-.93a2.05,2.05,0,0,0-2.05-2.05Z" />
    <path d="M327.31,381.56a5.26,5.26,0,1,1,0,10.51,5,5,0,0,1-1.5-.22,5.26,5.26,0,0,1,0-10.07,5,5,0,0,1,1.5-.22m0-2.05a6.93,6.93,0,0,0-2.1.31,7.3,7.3,0,0,0,0,14,6.91,6.91,0,0,0,2.07.3,7.31,7.31,0,1,0,0-14.61Z" />
    <g class="GUNDAN_GUNDAN_WEAPONS_HUNTER_4_g">
      <polygon points="225.5 102.18 229.44 123.83 220.95 103.39 225.5 102.18" />
      <path d="M218.06,104.15l5,21.52-15.35,30.42s-9.4,41-8.15,99.4S210.13,469.7,210.13,469.7H217l6.08,25.19-74.33-.79L129,510s-20.89-20.77-39-60.13c-15-41.84-16-45.5-16-45.5l-1.8-5.53-19.79-9.67,19.79-13.63s-8.9-70.74-9.37-102S64.34,186,64.34,186v-9.71L49,166.69l21.43-1.31,69.88-53.79,10.83-34.25,25.13,23.82,27.06,7Z" />
      <path d="M262.89,89.8l20.77,36.07L332,171.46l-36.13-41.6-4-7.37s-17.88-18.75-18.59-18.75S262.89,89.8,262.89,89.8Z" />
      <path d="M352.29,180.69,337,201.46s4.75,64-5.11,124.68S304,431.33,304,431.33s24.13-52.71,32.33-98.15,13.11-122.67,13.11-122.67Z" />
      <path d="M256.49,494.1l21.6-2.21s32.93-61.57,39.3-79.54c-13.12,37.25-36,93.69-36,93.69l-2.69,4Z" />
      <path d="M307.7,201.75s-15.83,17.54-17.94,20.61c-6.59-6.77-9.49,5.94-9.49,5.94s-1.53,18.21-41.35,54.75S183.4,338.1,183.4,338.1L185,357s52.48-50.52,73.92-75.5S293,242.19,293,242.19s3.45,9.1,7.61,8.77a12.82,12.82,0,0,0,6.55-2.22S293,233.8,291.51,229.82s.43-5.56.43-5.56L299,233s11.41-10.89,12.12-18.15A21.59,21.59,0,0,0,307.7,201.75Z" />
      <path d="M249.12,118.15s45.08,51.29,61,73.08l-8.67-19.91,20.48,27.84-.56-12.69Z" />
      <path d="M322.06,246.28s-3.14,78.7-26.16,133c9.78-53.41,15.31-92.06,15.31-92.06s-28.72,148.07-54.72,183.31c15.93,0,19.44.1,19.44.1s24.8-37.7,34.42-95.1S322.06,246.28,322.06,246.28Z" />
    </g>
    <path class="GUNDAN_GUNDAN_WEAPONS_HUNTER_4_h" d="M139.37,443.66,120.82,430.4v0l-6.58-4.69-9.06,13.21a313.48,313.48,0,0,0,63.69,34.59C139.51,460.74,139.37,443.66,139.37,443.66Z" />
    <path class="GUNDAN_GUNDAN_WEAPONS_HUNTER_4_h" d="M35.48,184.62v0l6.34-21.9s-10.56-13.6,4.88-42.09a313.84,313.84,0,0,0-28.77,67l15.31,4.78Z" />
    <path class="GUNDAN_GUNDAN_WEAPONS_HUNTER_4_i" d="M140.28,47.7l.76,2.19-4.48,1.56a13.72,13.72,0,0,1,.35,4.8l4.66.88-.44,2.28-4.66-.9a13.78,13.78,0,0,1-2.09,4.33L138,66l-1.52,1.75-3.59-3.1a13.56,13.56,0,0,1-4,2.69l1.56,4.49-.72.25-1.47.51-1.56-4.49a13.17,13.17,0,0,1-4.78.35l-.9,4.67-2.29-.44.89-4.66a13.86,13.86,0,0,1-4.32-2.1l-3.1,3.6-1.76-1.53,2.51-2.89c2.13-1.24,4-2.24,5.68-3.06a8.58,8.58,0,1,0-3.84-8c-1.72.7-3.39,1.44-5.06,2.23a13,13,0,0,1,0-2.79l-4.66-.9.44-2.27,4.66.9a13.89,13.89,0,0,1,2.09-4.33l-3.59-3.1,1.52-1.76,3.6,3.1a13.57,13.57,0,0,1,4-2.69l-1.56-4.49,2.19-.76L120,41.58a13.7,13.7,0,0,1,4.8-.35l.89-4.66,2.28.43L127,41.66a14.11,14.11,0,0,1,4.32,2.11l3.1-3.6,1.75,1.51-3.1,3.6a13.52,13.52,0,0,1,2.7,4Z" />
    <path class="GUNDAN_GUNDAN_WEAPONS_HUNTER_4_j" d="M114.78,54c-1.72.7-3.39,1.44-5.06,2.23l3.22,8.87c2.13-1.24,4-2.24,5.68-3.06,3.87-2,6.21-2.83,6.21-2.83l-2.72-7.83C119.62,52.1,117.17,53,114.78,54Z" />
    <path class="GUNDAN_GUNDAN_WEAPONS_HUNTER_4_j" d="M256,476.19a133,133,0,0,1-67.9-7.56l-4-13.92s-15.2-8.64-33.21-21.42c-2.35-1.66-4.75-3.41-7.17-5.21-6.71-5-13.58-10.46-20-16.16l-9.43,13.77,6.58,4.69v0l18.55,13.26s.14,17.08,29.49,29.83c27.57,10.95,60.34,18.58,90.33,11.56Z" />
    <path class="GUNDAN_GUNDAN_WEAPONS_HUNTER_4_j" d="M49.16,197.35c1.51-8.47,3.53-17,5.68-25.07.8-2.92,1.6-5.78,2.41-8.55C63.47,142.53,70,126.32,70,126.32l-5.46-13.41a132.91,132.91,0,0,1,48.36-47.86l11.89-5.89L121.73,52l-12,4.15c-27.5,13.09-48.27,39-63,64.43-15.44,28.49-4.88,42.09-4.88,42.09l-6.34,21.9v0l-2.25,7.78,5.67,1.76Z" />
    <path class="GUNDAN_GUNDAN_WEAPONS_HUNTER_4_k" d="M159,406.45l-2.56.88a17.41,17.41,0,0,0-1-1.93l2.23-1.45a.75.75,0,0,0,.24-1.06l-.74-1.06a.83.83,0,0,0-1.12-.2l-2.23,1.47c-.47-.55-1-1.09-1.49-1.6l1.78-1.93a.73.73,0,0,0,0-1.07l-1-.83a.88.88,0,0,0-1.14.09l-1.79,2a21.05,21.05,0,0,0-1.88-1.16l1.2-2.29a.72.72,0,0,0-.35-1l-1.22-.54a.84.84,0,0,0-1.08.38l-1.22,2.3a18.49,18.49,0,0,0-2.15-.65l.54-2.48a.71.71,0,0,0-.6-.88l-1.34-.21a.82.82,0,0,0-.95.62l-.57,2.47c-.75-.06-1.52-.09-2.28-.08l-.14-2.49a.76.76,0,0,0-.84-.69l-.67.08-1.4,2.05.07,1.32a10.46,10.46,0,0,0-1.14.24l-5.1,7.43a16.25,16.25,0,0,1,4.15-2.13c7.88-2.73,16.31,1,18.86,8.34,2.17,6.23-.59,13-6.27,16.62a16.06,16.06,0,0,1-2,1.12c2.42,1.8,4.82,3.55,7.17,5.21l.29-.19a.75.75,0,0,0,.24-1.05L149.93,430a19,19,0,0,0,1.75-1.48l2,1.62a.86.86,0,0,0,1.13-.12l.92-1a.71.71,0,0,0-.07-1.06l-2-1.62A16.34,16.34,0,0,0,155,424.5l2.38,1a.79.79,0,0,0,1.08-.37L159,424a.69.69,0,0,0-.35-1l-2.35-1.07a17.53,17.53,0,0,0,.75-2.07l2.62.42a.85.85,0,0,0,.95-.61l.29-1.29a.75.75,0,0,0-.63-.89l-2.6-.41a19.41,19.41,0,0,0,.19-2.18l2.66-.23a.82.82,0,0,0,.75-.83l-.07-1.29a.77.77,0,0,0-.85-.7l-2.65.25a17.16,17.16,0,0,0-.43-2.11l2.55-.89a.79.79,0,0,0,.52-1l-.43-1.23A.77.77,0,0,0,159,406.45Z" />
    <path class="GUNDAN_GUNDAN_WEAPONS_HUNTER_4_k" d="M79.33,177.12l-2.55.89a18.16,18.16,0,0,0-1-1.92L78,174.64a.77.77,0,0,0,.23-1.08l-.74-1.06a.83.83,0,0,0-1.11-.18l-2.23,1.47c-.48-.56-1-1.1-1.49-1.6l1.78-1.93a.74.74,0,0,0-.06-1.08l-1-.84a.87.87,0,0,0-1.13.11l-1.79,2a15.35,15.35,0,0,0-1.88-1.16L69.8,167a.72.72,0,0,0-.35-1l-1.22-.54a.84.84,0,0,0-1.08.38l-1.23,2.29a16.56,16.56,0,0,0-2.14-.64l.54-2.5a.71.71,0,0,0-.61-.87l-1.33-.21a.84.84,0,0,0-1,.61L60.86,167a19.23,19.23,0,0,0-2.28-.08l-.14-2.51a.76.76,0,0,0-.85-.68l-.34,0c-.81,2.77-1.61,5.63-2.41,8.55a18.65,18.65,0,0,1,2.31-.41A14.3,14.3,0,0,1,72.38,181c2.54,7.33-1.76,15.5-9.64,18.24a16,16,0,0,1-4.58.88l8.62,2.69c.35-.18.69-.35,1-.54l.76,1.09,2.38.75h0l.54-.37a.75.75,0,0,0,.24-1.06l-1.44-2a22.78,22.78,0,0,0,1.75-1.48l2,1.61a.87.87,0,0,0,1.13-.11l.91-1a.7.7,0,0,0-.07-1.06l-2-1.61a18.3,18.3,0,0,0,1.28-1.83l2.39,1a.82.82,0,0,0,1.08-.37l.62-1.18a.69.69,0,0,0-.35-1l-2.36-1.07c.28-.68.55-1.38.76-2.07l2.61.42a.84.84,0,0,0,1-.63l.28-1.29a.73.73,0,0,0-.62-.87l-2.6-.41c.11-.73.15-1.46.19-2.18l2.65-.23a.83.83,0,0,0,.76-.85l-.08-1.28a.75.75,0,0,0-.84-.69l-2.65.25a19.59,19.59,0,0,0-.43-2.13l2.55-.88a.79.79,0,0,0,.52-1l-.43-1.22A.79.79,0,0,0,79.33,177.12Z" />
    <path class="GUNDAN_GUNDAN_WEAPONS_HUNTER_4_i" d="M41.26,227.41l44-4.79,5.57-.6-.19-11.75L71,204.15h0l-2.38-.75-1.79-.55-8.62-2.69-9-2.79v0L38.9,194.16l-5.67-1.76-15.31-4.78c-3.14-1-6.35,1.76-5.65,4.84L15.55,207l29.5,31.29Zm23.61-17.9A6.9,6.9,0,0,1,74.28,211a6.35,6.35,0,0,1-1.94,9,6.94,6.94,0,0,1-9.43-1.47A6.34,6.34,0,0,1,64.87,209.51ZM30.73,212a6.08,6.08,0,0,1-2.87-8.56,7.21,7.21,0,0,1,9.2-3.09,6.09,6.09,0,0,1,2.85,8.57A7.21,7.21,0,0,1,30.73,212Z" />
    <path class="GUNDAN_GUNDAN_WEAPONS_HUNTER_4_i" d="M136.33,369.72l-37.5,23.5L95,382.29l-3.76,42.84,6.46,13.48c1.36,2.85,5.57,3,7.43.29l9.06-13.21,9.43-13.77,5.32-7.79,5.1-7.43,1.07-1.56,1.4-2.05,11.65-17-7.14-9.33Zm-24,47.35a7.22,7.22,0,0,1-9.13,3.27,6.09,6.09,0,0,1-3.06-8.51,7.2,7.2,0,0,1,9.11-3.27A6.1,6.1,0,0,1,112.3,417.07Zm22.63-31.42a6.91,6.91,0,0,1-6.47,7,6.34,6.34,0,0,1-7.11-5.84,6.91,6.91,0,0,1,6.49-7A6.33,6.33,0,0,1,134.93,385.65Z" />
    <path class="GUNDAN_GUNDAN_WEAPONS_HUNTER_4_i" d="M92.63,225.19,90.82,222l-5.57.6,1.83,3.59a32.18,32.18,0,0,1,.62,27.92l-3,6.85L86,264.83l1.34,3.85,6.4-14A32.15,32.15,0,0,0,92.63,225.19Z" />
    <path class="GUNDAN_GUNDAN_WEAPONS_HUNTER_4_i" d="M109.41,332.27l1.35,3.87,1.33,3.85,6.63,3.47a32.19,32.19,0,0,1,16.82,22.3l.79,4,4.73-3-.54-3.61a32.11,32.11,0,0,0-17.37-23.8Z" />
    <polygon class="GUNDAN_GUNDAN_WEAPONS_HUNTER_4_j" points="109.41 332.27 110.76 336.14 99.17 340.16 74.41 268.86 86 264.83 87.34 268.68 109.41 332.27" />
    <polygon class="GUNDAN_GUNDAN_WEAPONS_HUNTER_4_l" points="87.98 347.44 90.23 353.91 104.05 355.29 107.05 355.58 116.38 352.34 112.09 339.99 110.76 336.14 99.17 340.16 87.98 347.44" />
    <polygon class="GUNDAN_GUNDAN_WEAPONS_HUNTER_4_l" points="71.04 251.87 68.86 253.96 58.88 263.61 61.12 270.08 74.41 268.86 86 264.83 84.66 260.98 80.37 248.63 71.04 251.87" />
    <polygon class="GUNDAN_GUNDAN_WEAPONS_HUNTER_4_c" points="104.05 355.29 95.04 382.29 98.83 393.21 118.31 357.89 116.38 352.34 107.05 355.58 104.05 355.29" />
    <polygon class="GUNDAN_GUNDAN_WEAPONS_HUNTER_4_c" points="41.26 227.41 45.05 238.33 68.86 253.96 71.04 251.87 80.37 248.63 78.44 243.07 41.26 227.41" />
    <path class="GUNDAN_GUNDAN_WEAPONS_HUNTER_4_l" d="M72.34,220a6.35,6.35,0,0,0,1.94-9,6.9,6.9,0,0,0-9.41-1.46,6.34,6.34,0,0,0-2,9A6.94,6.94,0,0,0,72.34,220Z" />
    <path class="GUNDAN_GUNDAN_WEAPONS_HUNTER_4_l" d="M127.84,379.82a6.91,6.91,0,0,0-6.49,7,6.34,6.34,0,0,0,7.11,5.84,6.91,6.91,0,0,0,6.47-7A6.33,6.33,0,0,0,127.84,379.82Z" />
    <path class="GUNDAN_GUNDAN_WEAPONS_HUNTER_4_l" d="M27.86,203.45A6.08,6.08,0,0,0,30.73,212a7.21,7.21,0,0,0,9.18-3.08,6.09,6.09,0,0,0-2.85-8.57A7.21,7.21,0,0,0,27.86,203.45Z" />
    <path class="GUNDAN_GUNDAN_WEAPONS_HUNTER_4_l" d="M100.11,411.83a6.09,6.09,0,0,0,3.06,8.51,7.22,7.22,0,0,0,9.13-3.27,6.1,6.1,0,0,0-3.08-8.51A7.2,7.2,0,0,0,100.11,411.83Z" />
    <line class="GUNDAN_GUNDAN_WEAPONS_HUNTER_4_m" x1="38.9" y1="194.18" x2="38.9" y2="194.16" />
    <path class="GUNDAN_GUNDAN_WEAPONS_HUNTER_4_m" d="M54.84,172.28a18.65,18.65,0,0,1,2.31-.41A14.3,14.3,0,0,1,72.38,181c2.54,7.33-1.76,15.5-9.64,18.24a16,16,0,0,1-4.58.88" />
    <path class="GUNDAN_GUNDAN_WEAPONS_HUNTER_4_m" d="M66.77,202.85h0c.35-.18.69-.35,1-.54l.76,1.09" />
    <path class="GUNDAN_GUNDAN_WEAPONS_HUNTER_4_m" d="M57.25,163.73l.34,0a.76.76,0,0,1,.85.68l.14,2.51a19.23,19.23,0,0,1,2.28.08l.56-2.49a.84.84,0,0,1,1-.61l1.33.21a.71.71,0,0,1,.61.87l-.54,2.5a16.56,16.56,0,0,1,2.14.64l1.23-2.29a.84.84,0,0,1,1.08-.38l1.22.54a.72.72,0,0,1,.35,1l-1.2,2.29a15.35,15.35,0,0,1,1.88,1.16l1.79-2a.87.87,0,0,1,1.13-.11l1,.84a.74.74,0,0,1,.06,1.08l-1.78,1.93c.52.5,1,1,1.49,1.6l2.23-1.47a.83.83,0,0,1,1.11.18l.74,1.06a.77.77,0,0,1-.23,1.08l-2.23,1.45a18.16,18.16,0,0,1,1,1.92l2.55-.89a.79.79,0,0,1,1,.47l.43,1.22a.79.79,0,0,1-.52,1l-2.55.88a19.59,19.59,0,0,1,.43,2.13l2.65-.25a.75.75,0,0,1,.84.69l.08,1.28a.83.83,0,0,1-.76.85l-2.65.23c0,.72-.08,1.45-.19,2.18l2.6.41a.73.73,0,0,1,.62.87L81,190.33a.84.84,0,0,1-1,.63l-2.61-.42c-.21.69-.48,1.39-.76,2.07l2.36,1.07a.69.69,0,0,1,.35,1l-.62,1.18a.82.82,0,0,1-1.08.37l-2.39-1A18.3,18.3,0,0,1,74.05,197l2,1.61a.7.7,0,0,1,.07,1.06l-.91,1a.86.86,0,0,1-1.13.11l-2-1.61a22.78,22.78,0,0,1-1.75,1.48l1.44,2a.75.75,0,0,1-.24,1.06l-.54.37" />
    <path class="GUNDAN_GUNDAN_WEAPONS_HUNTER_4_n" d="M39.91,208.93A7.21,7.21,0,0,1,30.73,212a6.08,6.08,0,0,1-2.87-8.56,7.21,7.21,0,0,1,9.2-3.09A6.09,6.09,0,0,1,39.91,208.93Z" />
    <line class="GUNDAN_GUNDAN_WEAPONS_HUNTER_4_n" x1="39.91" y1="208.93" x2="27.86" y2="203.45" />
    <path class="GUNDAN_GUNDAN_WEAPONS_HUNTER_4_n" d="M62.91,218.49a6.34,6.34,0,0,1,2-9A6.9,6.9,0,0,1,74.28,211a6.35,6.35,0,0,1-1.94,9A6.94,6.94,0,0,1,62.91,218.49Z" />
    <line class="GUNDAN_GUNDAN_WEAPONS_HUNTER_4_n" x1="62.91" y1="218.49" x2="74.28" y2="210.97" />
    <path class="GUNDAN_GUNDAN_WEAPONS_HUNTER_4_o" d="M118.62,62a8.58,8.58,0,1,0-3.84-8h0" />
    <path class="GUNDAN_GUNDAN_WEAPONS_HUNTER_4_o" d="M109.72,56.18a17,17,0,0,1-.06-1.88c0-.31,0-.61.07-.91l-4.66-.9.44-2.27,4.66.9a13.89,13.89,0,0,1,2.09-4.33l-3.59-3.1,1.52-1.76,3.6,3.1a13.57,13.57,0,0,1,4-2.69l-1.56-4.49,2.19-.76L120,41.58a13.7,13.7,0,0,1,4.8-.35l.89-4.66,2.28.43L127,41.66a14.11,14.11,0,0,1,4.32,2.11l3.1-3.6,1.75,1.51-3.1,3.6a13.52,13.52,0,0,1,2.7,4l4.48-1.56.76,2.19-4.48,1.56a13.72,13.72,0,0,1,.35,4.8l4.66.88-.44,2.28-4.66-.9a13.78,13.78,0,0,1-2.09,4.33L138,66l-1.52,1.75-3.59-3.1a13.56,13.56,0,0,1-4,2.69l1.56,4.49-.72.25-1.47.51-1.56-4.49a13.17,13.17,0,0,1-4.78.35l-.9,4.67-2.29-.44.89-4.66a13.86,13.86,0,0,1-4.32-2.1l-3.1,3.6-1.76-1.53,2.51-2.89" />
    <rect class="GUNDAN_GUNDAN_WEAPONS_HUNTER_4_n" x="86.45" y="264.76" width="12.27" height="75.48" transform="translate(-94.1 47.1) rotate(-19.15)" />
    <polyline class="GUNDAN_GUNDAN_WEAPONS_HUNTER_4_n" points="74.41 268.86 61.12 270.08 58.88 263.61 68.86 253.96 71.04 251.87 72.99 251.2 80.37 248.63 84.66 260.98 86 264.83" />
    <line class="GUNDAN_GUNDAN_WEAPONS_HUNTER_4_n" x1="68.86" y1="253.96" x2="45.05" y2="238.33" />
    <polyline class="GUNDAN_GUNDAN_WEAPONS_HUNTER_4_n" points="80.37 248.63 78.44 243.07 41.26 227.41" />
    <path class="GUNDAN_GUNDAN_WEAPONS_HUNTER_4_n" d="M49.16,197.35l-4.91-1.53-5.35-1.66-5.67-1.76-15.31-4.78c-3.14-1-6.35,1.76-5.65,4.84L15.55,207l29.5,31.29-2.75-7.92-1-3,10.94-1.19,33.05-3.6,5.57-.6-.19-11.75L71,204.15h0l-2.38-.75-1.79-.55h0l-8.61-2.69-9-2.79" />
    <path class="GUNDAN_GUNDAN_WEAPONS_HUNTER_4_n" d="M49.16,197.37v0c1.51-8.47,3.53-17,5.68-25.07.8-2.92,1.6-5.78,2.41-8.55C63.47,142.54,70,126.32,70,126.32l-5.46-13.41a132.91,132.91,0,0,1,48.36-47.86c2.13-1.24,4-2.24,5.68-3.06,3.87-2,6.21-2.83,6.21-2.83l-2.09-6-.63-1.82c-2.25.69-4.48,1.48-6.65,2.34l-.68.28c-1.72.7-3.39,1.44-5.06,2.23-27.5,13.09-48.27,39-63,64.43a313.84,313.84,0,0,0-28.77,67" />
    <path class="GUNDAN_GUNDAN_WEAPONS_HUNTER_4_n" d="M33.23,192.4l2.25-7.78v0l6.34-21.9s-10.56-13.6,4.88-42.09" />
    <path class="GUNDAN_GUNDAN_WEAPONS_HUNTER_4_n" d="M90.82,222l1.81,3.17a32.15,32.15,0,0,1,1.11,29.46l-6.4,14" />
    <path class="GUNDAN_GUNDAN_WEAPONS_HUNTER_4_n" d="M85.25,222.62l1.83,3.59a32.18,32.18,0,0,1,.62,27.92l-3,6.85" />
    <path class="GUNDAN_GUNDAN_WEAPONS_HUNTER_4_m" d="M129,404.13a16.25,16.25,0,0,1,4.15-2.13c7.88-2.73,16.31,1,18.86,8.34,2.17,6.23-.59,13-6.27,16.62a16.06,16.06,0,0,1-2,1.12h0" />
    <path class="GUNDAN_GUNDAN_WEAPONS_HUNTER_4_m" d="M135.15,395.14l.07,1.32a10.46,10.46,0,0,0-1.14.24" />
    <path class="GUNDAN_GUNDAN_WEAPONS_HUNTER_4_m" d="M136.55,393.09l.67-.08a.76.76,0,0,1,.84.69l.14,2.49c.76,0,1.53,0,2.28.08l.57-2.47a.82.82,0,0,1,.95-.62l1.34.21a.71.71,0,0,1,.6.88l-.54,2.48a18.49,18.49,0,0,1,2.15.65l1.22-2.3a.84.84,0,0,1,1.08-.38l1.22.54a.72.72,0,0,1,.35,1l-1.2,2.29a21.05,21.05,0,0,1,1.88,1.16l1.79-2a.88.88,0,0,1,1.14-.09l1,.83a.73.73,0,0,1,0,1.07l-1.78,1.93c.53.51,1,1.05,1.49,1.6l2.23-1.47a.83.83,0,0,1,1.12.2l.74,1.06a.75.75,0,0,1-.24,1.06l-2.23,1.45a17.41,17.41,0,0,1,1,1.93l2.56-.88a.77.77,0,0,1,1,.44l.43,1.23a.79.79,0,0,1-.52,1l-2.55.89a17.16,17.16,0,0,1,.43,2.11l2.65-.25a.77.77,0,0,1,.85.7l.07,1.29a.82.82,0,0,1-.75.83l-2.66.23a19.41,19.41,0,0,1-.19,2.18l2.6.41a.75.75,0,0,1,.63.89l-.29,1.29a.84.84,0,0,1-.95.61l-2.62-.42a17.53,17.53,0,0,1-.75,2.07l2.35,1.07a.69.69,0,0,1,.35,1l-.62,1.18a.79.79,0,0,1-1.08.37l-2.38-1a16.34,16.34,0,0,1-1.29,1.83l2,1.62a.71.71,0,0,1,.07,1.06l-.92,1a.86.86,0,0,1-1.13.12l-2-1.62a19,19,0,0,1-1.75,1.48l1.45,2.06a.75.75,0,0,1-.24,1.05l-.29.19" />
    <path class="GUNDAN_GUNDAN_WEAPONS_HUNTER_4_n" d="M109.22,408.56a7.2,7.2,0,0,0-9.11,3.27,6.09,6.09,0,0,0,3.06,8.51,7.22,7.22,0,0,0,9.13-3.27A6.1,6.1,0,0,0,109.22,408.56Z" />
    <line class="GUNDAN_GUNDAN_WEAPONS_HUNTER_4_n" x1="109.22" y1="408.56" x2="103.17" y2="420.34" />
    <path class="GUNDAN_GUNDAN_WEAPONS_HUNTER_4_n" d="M121.35,386.8a6.34,6.34,0,0,0,7.11,5.84,6.91,6.91,0,0,0,6.47-7,6.33,6.33,0,0,0-7.09-5.83A6.91,6.91,0,0,0,121.35,386.8Z" />
    <line class="GUNDAN_GUNDAN_WEAPONS_HUNTER_4_n" x1="121.35" y1="386.8" x2="134.93" y2="385.65" />
    <polyline class="GUNDAN_GUNDAN_WEAPONS_HUNTER_4_n" points="99.17 340.16 87.98 347.44 90.23 353.91 104.05 355.29 107.05 355.58 109.09 354.87 116.38 352.34 112.09 339.99 110.76 336.14" />
    <line class="GUNDAN_GUNDAN_WEAPONS_HUNTER_4_n" x1="104.05" y1="355.29" x2="95.04" y2="382.29" />
    <polyline class="GUNDAN_GUNDAN_WEAPONS_HUNTER_4_n" points="116.38 352.34 118.31 357.89 98.83 393.21" />
    <path class="GUNDAN_GUNDAN_WEAPONS_HUNTER_4_n" d="M148.2,376.07l-11.65,17-1.4,2.05-1.07,1.56-5.1,7.43-5.32,7.79-3,4.31-6.48,9.46-9.06,13.21c-1.86,2.73-6.07,2.56-7.43-.29l-6.46-13.48L95,382.29l3.79,10.93,8.9-5.58,28.6-17.92,4.73-3Z" />
    <path class="GUNDAN_GUNDAN_WEAPONS_HUNTER_4_n" d="M123.66,411.92c6.44,5.7,13.31,11.17,20,16.16,2.42,1.8,4.82,3.55,7.17,5.21,18,12.78,33.21,21.42,33.21,21.42l4,13.92a133,133,0,0,0,67.9,7.56c1.91-.29,3.62-.6,5.13-.89a74.35,74.35,0,0,0,7.56-1.83l2.13,6.14.59,1.69c-2.05.8-4.14,1.51-6.24,2.15l-.14.05q-2.89.87-5.84,1.55c-30,7-62.76-.61-90.33-11.56a313.48,313.48,0,0,1-63.69-34.59" />
    <path class="GUNDAN_GUNDAN_WEAPONS_HUNTER_4_n" d="M114.23,425.69l6.58,4.69v0l18.55,13.26s.14,17.08,29.49,29.83l.42.2" />
    <path class="GUNDAN_GUNDAN_WEAPONS_HUNTER_4_n" d="M141.06,366.74l-.54-3.61a32.11,32.11,0,0,0-17.37-23.8l-13.74-7.06" />
    <path class="GUNDAN_GUNDAN_WEAPONS_HUNTER_4_n" d="M136.33,369.72l-.79-4a32.19,32.19,0,0,0-16.82-22.3L112.09,340" />
    <line class="GUNDAN_GUNDAN_WEAPONS_HUNTER_4_p" x1="129.72" y1="72.03" x2="264.02" y2="458.82" />
    <path class="GUNDAN_GUNDAN_WEAPONS_HUNTER_4_q" d="M270.82,479.61l-4.25,3-1.4.88-.14.05q-2.89.87-5.84,1.55c-30,7-62.76-.61-90.33-11.56a313.48,313.48,0,0,1-63.69-34.59c-1.86,2.73-6.07,2.56-7.43-.29l-6.46-13.48L95,382.29l9-27-13.82-1.38L88,347.44l11.19-7.28-24.76-71.3-13.29,1.22-2.25-6.47,10-9.65L45.05,238.33,15.55,207l-3.28-14.58c-.7-3.08,2.51-5.81,5.65-4.84a313.84,313.84,0,0,1,28.77-67c14.76-25.41,35.53-51.34,63-64.43a17,17,0,0,1-.06-1.88l5.13-.55.67-.08,2.11-.21,5.17-.31S43.05,87.52,44.25,195.82c-3.79,8.46-3.12,26.36,8,30.4l-6.86,2.9-3,1.29L72.77,251a2.08,2.08,0,0,0,.22.18c1.41,1.1,9.14,7.75,4.72,16.51l3.29-.45.27-.66L106,337.79l-.62-.35c-.37.22-1.05.63-2.36,1.39l-.51.3c8.65,4,7.06,13.61,6.59,15.74l-.12.43L97.84,390.36l3-.83,6.87-1.89.47-.13c-6.16,10,4.31,24.37,12.51,28.72l.09,0C187,502,270.82,479.61,270.82,479.61Z" />
  </g>
</svg>