<svg xmlns="http://www.w3.org/2000/svg" viewBox="0 0 432 432">
  <defs>
    <style>.GUNDAN_GUNDAN_WEAPONS_MACHNIMER_5_a{isolation:isolate;}.GUNDAN_GUNDAN_WEAPONS_MACHNIMER_5_b{fill:#feb906;}.GUNDAN_GUNDAN_WEAPONS_MACHNIMER_5_c{fill:#181b22;}.GUNDAN_GUNDAN_WEAPONS_MACHNIMER_5_d{fill:#9d452d;}.GUNDAN_GUNDAN_WEAPONS_MACHNIMER_5_e{fill:#aad0b9;}.GUNDAN_GUNDAN_WEAPONS_MACHNIMER_5_f{fill:#6f8578;}.GUNDAN_GUNDAN_WEAPONS_MACHNIMER_5_g{fill:#fff;}.GUNDAN_GUNDAN_WEAPONS_MACHNIMER_5_h{fill:none;stroke:#000;stroke-linecap:round;stroke-linejoin:round;stroke-width:1.98px;}.GUNDAN_GUNDAN_WEAPONS_MACHNIMER_5_i{mix-blend-mode:multiply;opacity:0.2;}</style>
  </defs>
  <g class="GUNDAN_GUNDAN_WEAPONS_MACHNIMER_5_a">
    <path class="GUNDAN_GUNDAN_WEAPONS_MACHNIMER_5_b" d="M33.26,230a4.45,4.45,0,1,0,2.93,5.55A4.45,4.45,0,0,0,33.26,230Zm44.46,5,.93-1.32,1.68,1A96,96,0,0,1,74.24,245s-31.66-6.53-56.67,1.09a150.69,150.69,0,0,1,3.33-17.55c7.37-1.92,24.6.48,37.65.76a7.69,7.69,0,0,0,.27.9l-3,1.38L56.5,233l3-1.38a9.68,9.68,0,0,0,2.13,2.57l-1.9,2.69,1.31.93L63,235.14a9.74,9.74,0,0,0,3.14,1.16l-.31,3.29,1.61.14.31-3.28a9.37,9.37,0,0,0,3.28-.57l1.39,3,1.46-.67-1.38-3A9.26,9.26,0,0,0,75,233.07Z" />
    <path class="GUNDAN_GUNDAN_WEAPONS_MACHNIMER_5_c" d="M101.89,213l-5.1-4.08-2,4.87c-2,4.87-8.27,4.4-8.27,4.4a44,44,0,0,1-1.28,4.7h0c1.68,3,3.43,4.11,5,4.36,2.91.48,5.19-2.15,5.19-2.15l5.59,2.06Z" />
    <path class="GUNDAN_GUNDAN_WEAPONS_MACHNIMER_5_c" d="M88.48,279.54c-.72-1.65-1.53-3.37-2.36-5.17a9.52,9.52,0,0,0-2.81-3.58s-8.17,7.89-6.11,16C80.87,280.5,88,279.59,88.48,279.54Z" />
    <polygon class="GUNDAN_GUNDAN_WEAPONS_MACHNIMER_5_c" points="125.3 282.29 111.17 251.6 105.86 240.05 99.72 242.88 120.34 287.67 125.3 282.29" />
    <path class="GUNDAN_GUNDAN_WEAPONS_MACHNIMER_5_d" d="M110.93,246.35l3.28.29a9.44,9.44,0,0,0,.57,3.3l-3,1.38-.61.28-5.31-11.55-6.14,2.82L101,227.12l14.27,5.27,3,6.55a9.48,9.48,0,0,0-1.81,1.65l-2.69-1.91-.94,1.32,2.7,1.9a9.44,9.44,0,0,0-1.15,3.14l-3.29-.3Z" />
    <path class="GUNDAN_GUNDAN_WEAPONS_MACHNIMER_5_e" d="M88.48,279.54c-.72-1.65-1.53-3.37-2.36-5.17a9.52,9.52,0,0,0-2.81-3.58C78.45,267.06,71,268.86,71,268.86s-4.4,5.95.51,16.61,14.45,13,18.18,8.47C92.57,290.36,91.08,285.46,88.48,279.54Zm3.39,21.66s-15.82,3.08-24.06-14.82-.58-19.29-.58-19.29l-4-8.62a100,100,0,0,0,11-13.5,96,96,0,0,0,6.09-10.34,81.52,81.52,0,0,0,4.87-11.78c1.68,3,3.43,4.11,5,4.36l-.84,20.44-7.42,3.41L104,303.9,95,308Z" />
    <polygon class="GUNDAN_GUNDAN_WEAPONS_MACHNIMER_5_f" points="126.24 308.52 165.66 394.13 153.48 399.74 110.67 306.73 117.67 294.02 124.68 309.25 126.24 308.52" />
    <path class="GUNDAN_GUNDAN_WEAPONS_MACHNIMER_5_f" d="M110.67,306.73,104,303.9,81.94,251.06l7.42-3.41s2.91,6.53,6.85,4.72,3.51-9.5,3.51-9.5l20.62,44.8L117.67,294Zm-4.14-14.17a4.45,4.45,0,1,0-2.56-5.74A4.44,4.44,0,0,0,106.53,292.56Z" />
    <path class="GUNDAN_GUNDAN_WEAPONS_MACHNIMER_5_d" d="M117,257.6l1.91-2.69a9.55,9.55,0,0,0,3.13,1.16l-.31,3.29,1.61.14.31-3.28a10.1,10.1,0,0,0,2.43-.3l6.62,14.39L132.1,283l8.69,18.86-14.54,6.69h0l-1.56.72-7-15.22,2.67-6.35,5-5.38L111.17,251.6l.61-.28.68,1.47,3-1.39a9.24,9.24,0,0,0,2.13,2.58l-1.9,2.69Z" />
    <path class="GUNDAN_GUNDAN_WEAPONS_MACHNIMER_5_d" d="M74.24,245a100,100,0,0,1-11,13.5c-19.63-8.11-45.51,2.38-45.51,2.38s-1.55-3.56-.19-14.79C42.58,238.44,74.24,245,74.24,245Z" />
    <path class="GUNDAN_GUNDAN_WEAPONS_MACHNIMER_5_d" d="M119.78,242.23l4.78,10.4a6,6,0,0,1-4.78-10.4Z" />
    <path class="GUNDAN_GUNDAN_WEAPONS_MACHNIMER_5_e" d="M99.72,242.87s.44,7.68-3.51,9.5-6.85-4.72-6.85-4.72l.84-20.44c2.91.48,5.19-2.15,5.19-2.15l5.59,2.06Z" />
    <path class="GUNDAN_GUNDAN_WEAPONS_MACHNIMER_5_g" d="M32.76,231.32a4.45,4.45,0,1,0,2.94,5.56A4.45,4.45,0,0,0,32.76,231.32Z" />
    <path class="GUNDAN_GUNDAN_WEAPONS_MACHNIMER_5_g" d="M112.26,290a4.44,4.44,0,1,0-5.73,2.57A4.43,4.43,0,0,0,112.26,290Z" />
    <path class="GUNDAN_GUNDAN_WEAPONS_MACHNIMER_5_d" d="M62.27,229.28c1.38,0,2.69-.07,3.9-.18a15.93,15.93,0,0,0,7.55-2.48,6,6,0,0,1-11.38,2.82A1.11,1.11,0,0,1,62.27,229.28Z" />
    <path class="GUNDAN_GUNDAN_WEAPONS_MACHNIMER_5_e" d="M170.06,379.5l-4.34-9.43a2.44,2.44,0,0,0-3.23-1.19,2.43,2.43,0,0,0-1.19,3.22l4.34,9.43a2.38,2.38,0,0,0,1.37,1.26,2.43,2.43,0,0,0,3.05-3.29Zm10-8.56,1.61,3.48c-2,3.58-13.22,13.7-13.22,13.7l1.79,3.88-4.61,2.13h0l-39.42-85.61h0l14.54-6.69.27.59,17.95,39C164,352.21,180.1,370.94,180.1,370.94Zm-29.29-27.43a2.42,2.42,0,0,0,1.19-3.23l-4.34-9.43a2.38,2.38,0,0,0-1.37-1.26,2.45,2.45,0,0,0-1.86.07,2.43,2.43,0,0,0-1.19,3.22l4.35,9.44a2.43,2.43,0,0,0,3.22,1.19Zm-9.12-19.81a2.44,2.44,0,0,0,1.19-3.23l-4.34-9.42a2.38,2.38,0,0,0-1.36-1.27,2.44,2.44,0,0,0-3.06,3.3l4.34,9.42a2.44,2.44,0,0,0,3.23,1.2Z" />
    <path class="GUNDAN_GUNDAN_WEAPONS_MACHNIMER_5_d" d="M85.2,222.85a81.52,81.52,0,0,1-4.87,11.78l-1.68-1-2.7-1.9a9.38,9.38,0,0,0,1.16-3.14l3.29.3.15-1.6L77.26,227a8.92,8.92,0,0,0-.5-3.08,3.09,3.09,0,0,0,.33-.39l2.61-1.2L79,220.87l-.27.12a17,17,0,0,0,1.79-5.29l5.94,2.44a44,44,0,0,1-1.28,4.7Z" />
    <path class="GUNDAN_GUNDAN_WEAPONS_MACHNIMER_5_h" d="M35.69,236.37a4.44,4.44,0,1,1-2.93-5.56A4.44,4.44,0,0,1,35.69,236.37Z" />
    <line class="GUNDAN_GUNDAN_WEAPONS_MACHNIMER_5_h" x1="35.69" y1="236.37" x2="27.21" y2="233.76" />
    <path class="GUNDAN_GUNDAN_WEAPONS_MACHNIMER_5_h" d="M106.53,292.56a4.45,4.45,0,1,1,5.73-2.57A4.45,4.45,0,0,1,106.53,292.56Z" />
    <line class="GUNDAN_GUNDAN_WEAPONS_MACHNIMER_5_h" x1="106.53" y1="292.56" x2="109.7" y2="284.25" />
    <path class="GUNDAN_GUNDAN_WEAPONS_MACHNIMER_5_h" d="M58.55,229.27c-13-.28-30.28-2.68-37.65-.75-1.06,4.38-1.86,8.21-2.44,11.55-.39,2.2-.68,4.2-.89,6-1.36,11.23.19,14.79.19,14.79s25.88-10.49,45.51-2.37a100,100,0,0,0,11-13.51q1.29-1.91,2.42-3.77c1.4-2.29,2.62-4.49,3.67-6.57a81.06,81.06,0,0,0,4.87-11.78" />
    <path class="GUNDAN_GUNDAN_WEAPONS_MACHNIMER_5_h" d="M85.2,222.84a44.3,44.3,0,0,0,1.28-4.69l-.57-.24-5.37-2.21a17,17,0,0,1-1.79,5.3" />
    <path class="GUNDAN_GUNDAN_WEAPONS_MACHNIMER_5_h" d="M73.72,226.62a15.93,15.93,0,0,1-7.55,2.48c-1.21.11-2.52.16-3.9.18" />
    <path class="GUNDAN_GUNDAN_WEAPONS_MACHNIMER_5_h" d="M76.76,223.93a3.09,3.09,0,0,0,.33-.39" />
    <path class="GUNDAN_GUNDAN_WEAPONS_MACHNIMER_5_h" d="M126.08,255.92l6.62,14.39L132.1,283l8.69,18.86.27.59,17.95,39c5,10.8,21.09,29.53,21.09,29.53l1.61,3.48c-2,3.59-13.22,13.71-13.22,13.71l1.79,3.88-2.48,1.14-2.13,1h0l-8,3.7-4.16,1.91-42.82-93-.12-.06L104,303.91l-9,4.14-3.15-6.85S77,304.1,68.57,287.92c-.27-.49-.52-1-.76-1.54-8.25-17.9-.58-19.29-.58-19.29l-4-8.61" />
    <path class="GUNDAN_GUNDAN_WEAPONS_MACHNIMER_5_h" d="M85.2,222.84h0c1.68,3,3.43,4.11,5,4.36,2.91.48,5.19-2.15,5.19-2.15l5.59,2.06,14.27,5.27,3,6.55" />
    <line class="GUNDAN_GUNDAN_WEAPONS_MACHNIMER_5_h" x1="124.56" y1="252.63" x2="119.78" y2="242.23" />
    <path class="GUNDAN_GUNDAN_WEAPONS_MACHNIMER_5_h" d="M86.48,218.15s6.22.46,8.27-4.41l2-4.87,5.1,4.08v.14l-.83,13h0l-.06,1-1.26,15.75s.43,7.68-3.51,9.49-6.85-4.72-6.85-4.72l.84-20.43" />
    <polyline class="GUNDAN_GUNDAN_WEAPONS_MACHNIMER_5_h" points="89.36 247.65 81.94 251.06 104.01 303.9" />
    <polyline class="GUNDAN_GUNDAN_WEAPONS_MACHNIMER_5_h" points="140.79 301.83 128.38 307.54 126.25 308.52 126.24 308.53 124.67 309.25 117.66 294.02 120.34 287.67 100.03 243.57 99.72 242.88" />
    <line class="GUNDAN_GUNDAN_WEAPONS_MACHNIMER_5_h" x1="165.66" y1="394.13" x2="126.24" y2="308.52" />
    <path class="GUNDAN_GUNDAN_WEAPONS_MACHNIMER_5_h" d="M138.46,322.5l-4.34-9.42a2.44,2.44,0,0,1,3.06-3.3,2.38,2.38,0,0,1,1.36,1.27l4.34,9.42a2.44,2.44,0,0,1-1.19,3.23,2.44,2.44,0,0,1-3.23-1.2Z" />
    <path class="GUNDAN_GUNDAN_WEAPONS_MACHNIMER_5_h" d="M147.59,342.32l-4.35-9.44a2.43,2.43,0,0,1,1.19-3.22,2.45,2.45,0,0,1,1.86-.07,2.38,2.38,0,0,1,1.37,1.26l4.34,9.43a2.43,2.43,0,0,1-3.05,3.3A2.4,2.4,0,0,1,147.59,342.32Z" />
    <path class="GUNDAN_GUNDAN_WEAPONS_MACHNIMER_5_h" d="M165.64,381.53l-4.34-9.43a2.43,2.43,0,0,1,3-3.29,2.38,2.38,0,0,1,1.37,1.26l4.34,9.43a2.43,2.43,0,0,1-3.05,3.29A2.38,2.38,0,0,1,165.64,381.53Z" />
    <path class="GUNDAN_GUNDAN_WEAPONS_MACHNIMER_5_h" d="M88.48,279.54c2.6,5.92,4.09,10.82,1.17,14.4-3.73,4.58-13.27,2.19-18.18-8.47S71,268.86,71,268.86s7.49-1.8,12.35,1.93a9.52,9.52,0,0,1,2.81,3.58C87,276.17,87.76,277.89,88.48,279.54Z" />
    <polyline class="GUNDAN_GUNDAN_WEAPONS_MACHNIMER_5_h" points="99.72 242.88 100.09 242.71 105.85 240.05 106.17 240.75 116.16 262.45 125.3 282.29 120.34 287.67" />
    <line class="GUNDAN_GUNDAN_WEAPONS_MACHNIMER_5_h" x1="117.67" y1="294.02" x2="110.67" y2="306.73" />
    <path class="GUNDAN_GUNDAN_WEAPONS_MACHNIMER_5_h" d="M74.24,245s-31.66-6.53-56.67,1.09" />
    <path class="GUNDAN_GUNDAN_WEAPONS_MACHNIMER_5_h" d="M88.51,279.54h0c-.47,0-7.61,1-11.28,7.25-2.06-8.11,6.11-16,6.11-16" />
    <polygon class="GUNDAN_GUNDAN_WEAPONS_MACHNIMER_5_i" points="105.85 240.05 106.17 240.75 100.03 243.57 100.09 242.71 105.85 240.05" />
    <path class="GUNDAN_GUNDAN_WEAPONS_MACHNIMER_5_i" d="M170.28,392l-2.48,1.14-39.42-85.61,12.41-5.71.27.59,17.95,39c5,10.8,21.09,29.53,21.09,29.53l1.61,3.48c-2,3.59-13.22,13.71-13.22,13.71Z" />
    <polygon class="GUNDAN_GUNDAN_WEAPONS_MACHNIMER_5_i" points="157.64 397.83 153.48 399.74 110.66 306.74 110.54 306.69 113.39 301.77 113.41 301.76 157.64 397.83" />
    <path class="GUNDAN_GUNDAN_WEAPONS_MACHNIMER_5_i" d="M68.57,287.92c-.27-.49-.52-1-.76-1.54-8.25-17.9-.58-19.29-.58-19.29l-4-8.61c-19.63-8.12-45.51,2.37-45.51,2.37s-1.55-3.56-.19-14.79c.21-1.79.5-3.79.89-6a107.14,107.14,0,0,0,15.28.62c11.39-.61,24.53-4.36,30.15-.45s12.77,1,12.77,1l.15-.25c1.14-2,8.52-14.93,9.1-23l.57.24s6.22.46,8.27-4.41l2-4.87,5.1,4.08v.14l-.77.29-6.57,9.19-5.63,4.23-.22.16s-5.47,20.82-10.9,29.3-11.42,14-10.57,21.83A95.75,95.75,0,0,0,68.57,287.92Z" />
    <path class="GUNDAN_GUNDAN_WEAPONS_MACHNIMER_5_b" d="M126.94,255.65l1.39,3,1.45-.67-1.38-3a9.45,9.45,0,0,0,2.58-2.14l2.69,1.91.94-1.32-2.7-1.91a9.41,9.41,0,0,0,1.16-3.12l3.29.29.14-1.6-3.28-.31a9.42,9.42,0,0,0-.57-3.29l3-1.38-.68-1.47L132,242a9.31,9.31,0,0,0-2.12-2.57l1.9-2.69-1.31-.94-1.92,2.7a9.84,9.84,0,0,0-3.13-1.16l.31-3.29-1.62-.15-.3,3.29a9.76,9.76,0,0,0-3.3.57l-1.37-3-1.46.67,1.38,3a7.71,7.71,0,0,0-.77.49,9.48,9.48,0,0,0-1.81,1.65l-2.69-1.91-.94,1.32,2.7,1.9a9.44,9.44,0,0,0-1.15,3.14l-3.29-.3-.15,1.61,3.28.29a9.44,9.44,0,0,0,.57,3.3l-3,1.38.68,1.47,3-1.39a9.24,9.24,0,0,0,2.13,2.58l-1.9,2.69,1.31.93,1.91-2.69a9.55,9.55,0,0,0,3.13,1.16l-.31,3.29,1.61.14.31-3.28a10.1,10.1,0,0,0,2.43-.3C126.37,255.84,126.65,255.75,126.94,255.65Zm-2.38-2.57a6.7,6.7,0,0,1-6.6-3.78,6.55,6.55,0,0,1,1.56-7.35,7.09,7.09,0,0,1,1.63-.89,6.41,6.41,0,0,1,8.27,3,6.58,6.58,0,0,1-3,8.42A7.11,7.11,0,0,1,124.56,253.08Z" />
    <path class="GUNDAN_GUNDAN_WEAPONS_MACHNIMER_5_b" d="M75,233.07l2.7,1.91.93-1.32-2.7-1.9a9.38,9.38,0,0,0,1.16-3.14l3.29.3.15-1.6L77.26,227a8.92,8.92,0,0,0-.5-3.08,1.66,1.66,0,0,0-.06-.21l.39-.18,2.61-1.2L79,220.87l-.27.12L76,222.25a9.37,9.37,0,0,0-2.13-2.57l1.9-2.7-1.31-.92-1.91,2.69a9.74,9.74,0,0,0-3.14-1.16l.3-3.29-1.6-.15-.3,3.29a9.76,9.76,0,0,0-3.3.57l-1.38-3-1.47.67,1.39,3a9.71,9.71,0,0,0-2.57,2.13l-2.7-1.9-.93,1.32,2.7,1.9a9.6,9.6,0,0,0-1.16,3.14l-3.29-.3-.14,1.6,3.27.31a9.38,9.38,0,0,0,.3,2.39,7.69,7.69,0,0,0,.27.9l-3,1.38L56.5,233l3-1.38a9.68,9.68,0,0,0,2.13,2.57l-1.9,2.69,1.31.93L63,235.14a9.74,9.74,0,0,0,3.14,1.16l-.31,3.29,1.61.14.31-3.28a9.37,9.37,0,0,0,3.28-.57l1.39,3,1.46-.67-1.38-3A9.26,9.26,0,0,0,75,233.07Zm-13.68-3.63a2.29,2.29,0,0,1,0-.37c-1.27-3,.71-6.49,3.65-7.84s6.91-.5,8.29,2.51a10.92,10.92,0,0,1,.9,2.88,7,7,0,0,1-3.73,6.3C67.46,234.3,62.72,232.43,61.34,229.44Z" />
    <path d="M68.13,214.15l1.6.15-.3,3.29a9.74,9.74,0,0,1,3.14,1.16l1.91-2.69,1.31.92-1.9,2.7A9.37,9.37,0,0,1,76,222.25L78.75,221l.27-.12.68,1.47-2.61,1.2-.39.18a1.66,1.66,0,0,1,.06.21,8.88,8.88,0,0,1,.5,3.08l3.29.31-.15,1.6-3.29-.3A9.38,9.38,0,0,1,76,231.76l2.7,1.9L77.72,235,75,233.07a9.26,9.26,0,0,1-2.57,2.14l1.38,3-1.46.67-1.39-3a9.28,9.28,0,0,1-3.23.57h0l-.31,3.28-1.61-.14.31-3.29A9.74,9.74,0,0,1,63,235.14L61,237.83l-1.31-.93,1.9-2.69a9.68,9.68,0,0,1-2.13-2.57l-3,1.38-.67-1.47,3-1.38a7.69,7.69,0,0,1-.27-.9,9.38,9.38,0,0,1-.3-2.39L55,226.57l.14-1.6,3.29.3a9.6,9.6,0,0,1,1.16-3.14l-2.7-1.9.93-1.32,2.7,1.9a9.71,9.71,0,0,1,2.57-2.13l-1.39-3,1.47-.67,1.38,3a9.66,9.66,0,0,1,3.24-.57h.06l.3-3.29m0-1.42a1.45,1.45,0,0,0-.91.33,1.4,1.4,0,0,0-.5,1l-.2,2.07c-.4,0-.81.12-1.21.21l-.87-1.89a1.42,1.42,0,0,0-.8-.74,1.37,1.37,0,0,0-.49-.09,1.49,1.49,0,0,0-.59.13l-1.47.68a1.42,1.42,0,0,0-.7,1.89l.87,1.89a10,10,0,0,0-.94.78l-1.69-1.2a1.4,1.4,0,0,0-.82-.26,1.44,1.44,0,0,0-1.17.6l-.93,1.32a1.38,1.38,0,0,0-.24,1.06,1.41,1.41,0,0,0,.58.92l1.69,1.2a11.25,11.25,0,0,0-.42,1.15l-2.07-.19h-.13a1.38,1.38,0,0,0-.91.33,1.41,1.41,0,0,0-.51,1l-.14,1.6A1.41,1.41,0,0,0,54.84,228l2.07.2a9.85,9.85,0,0,0,.2,1.21l-1.88.87a1.41,1.41,0,0,0-.69,1.88l.67,1.47a1.45,1.45,0,0,0,.8.74,1.41,1.41,0,0,0,.49.09,1.54,1.54,0,0,0,.6-.13l1.88-.87a11.94,11.94,0,0,0,.78.95l-1.19,1.69a1.42,1.42,0,0,0,.34,2l1.31.93a1.37,1.37,0,0,0,.82.27l.24,0a1.49,1.49,0,0,0,.92-.58l1.2-1.7c.38.16.77.31,1.16.43l-.19,2.06a1.4,1.4,0,0,0,.32,1,1.37,1.37,0,0,0,1,.51l1.61.15h.13a1.43,1.43,0,0,0,1.42-1.3L69,237.8a12.23,12.23,0,0,0,1.21-.21l.86,1.89a1.43,1.43,0,0,0,1.3.83,1.53,1.53,0,0,0,.59-.13l1.47-.68a1.41,1.41,0,0,0,.69-1.89l-.86-1.88a10.08,10.08,0,0,0,.94-.79l1.7,1.2a1.43,1.43,0,0,0,.82.26l.24,0a1.38,1.38,0,0,0,.92-.58l.93-1.32a1.42,1.42,0,0,0-.34-2l-1.69-1.19c.16-.38.3-.77.42-1.16l2.07.19h.13a1.41,1.41,0,0,0,1.41-1.28l.16-1.61a1.44,1.44,0,0,0-1.29-1.55l-2.06-.19a12.23,12.23,0,0,0-.21-1.21l1.88-.87a1.43,1.43,0,0,0,.7-1.89l-.68-1.46a1.42,1.42,0,0,0-1.29-.83,1.37,1.37,0,0,0-.59.13l-.27.12-1.62.75a9,9,0,0,0-.78-.95L77,217.8a1.38,1.38,0,0,0,.24-1.06,1.41,1.41,0,0,0-.58-.92l-1.32-.93a1.41,1.41,0,0,0-2,.35l-1.19,1.69A10.14,10.14,0,0,0,71,216.5l.19-2.06a1.42,1.42,0,0,0-1.28-1.55l-1.6-.15Z" />
    <path d="M67.76,221a6,6,0,0,1,5.43,3.48,5.77,5.77,0,0,1,.53,2.17,6,6,0,0,1-3.46,5.75,5.81,5.81,0,0,1-2.49.55,6,6,0,0,1-5.43-3.48,1.11,1.11,0,0,1-.07-.16,6,6,0,0,1,3-7.76,5.85,5.85,0,0,1,2.5-.55m0-1.43h0a7.39,7.39,0,0,0-6.82,10.23,2.07,2.07,0,0,0,.11.27,7.42,7.42,0,0,0,6.72,4.3,7.27,7.27,0,0,0,3.08-.67,7.44,7.44,0,0,0,4.29-7.13,7.29,7.29,0,0,0-.66-2.69,7.42,7.42,0,0,0-6.72-4.31Z" />
    <path d="M124.08,233.92l1.62.15-.31,3.29a9.84,9.84,0,0,1,3.13,1.16l1.92-2.7,1.31.94-1.9,2.69A9.31,9.31,0,0,1,132,242l3-1.38.68,1.47-3,1.38a9.42,9.42,0,0,1,.57,3.29l3.28.31-.14,1.6-3.29-.29a9.41,9.41,0,0,1-1.16,3.12l2.7,1.91-.94,1.32L131,252.84A9.45,9.45,0,0,1,128.4,255l1.39,3-1.46.67-1.39-3c-.29.1-.57.19-.86.27a9.62,9.62,0,0,1-2.37.3h-.06l-.31,3.28-1.61-.14.31-3.29a9.55,9.55,0,0,1-3.13-1.16L117,257.6l-1.31-.93,1.9-2.69a9.24,9.24,0,0,1-2.13-2.58l-3,1.39-.68-1.47,3-1.38a9.44,9.44,0,0,1-.57-3.3l-3.28-.29.15-1.61,3.29.3a9.44,9.44,0,0,1,1.15-3.14l-2.7-1.9.94-1.32,2.69,1.91a9.48,9.48,0,0,1,1.81-1.65,7.71,7.71,0,0,1,.77-.49l-1.38-3,1.46-.67,1.37,3a9.76,9.76,0,0,1,3.25-.57h0l.3-3.29m0-1.42a1.43,1.43,0,0,0-1.41,1.29l-.19,2.07c-.41,0-.82.12-1.22.21l-.86-1.88a1.45,1.45,0,0,0-.8-.74,1.41,1.41,0,0,0-.49-.09,1.54,1.54,0,0,0-.6.13l-1.46.68a1.41,1.41,0,0,0-.69,1.88l.86,1.88a10.2,10.2,0,0,0-1,.79l-1.69-1.2a1.42,1.42,0,0,0-2,.34l-.94,1.32a1.42,1.42,0,0,0,.34,2l1.7,1.2a9.92,9.92,0,0,0-.42,1.15l-2.07-.19h-.13a1.43,1.43,0,0,0-1.42,1.3l-.15,1.61a1.46,1.46,0,0,0,.33,1,1.4,1.4,0,0,0,1,.5l2.06.19a12.23,12.23,0,0,0,.21,1.21l-1.88.87a1.41,1.41,0,0,0-.7,1.88l.67,1.47a1.45,1.45,0,0,0,.8.74,1.43,1.43,0,0,0,.5.09,1.37,1.37,0,0,0,.59-.13l1.88-.87a12.05,12.05,0,0,0,.79.95l-1.2,1.69a1.49,1.49,0,0,0-.24,1.07,1.46,1.46,0,0,0,.59.92l1.31.92a1.4,1.4,0,0,0,.82.26,1.42,1.42,0,0,0,1.16-.6l1.2-1.68a12.19,12.19,0,0,0,1.15.42l-.19,2.06a1.42,1.42,0,0,0,.32,1,1.4,1.4,0,0,0,1,.5l1.61.15h.14a1.43,1.43,0,0,0,1.41-1.29l.19-2.07c.41-.05.81-.12,1.22-.21l.86,1.89a1.43,1.43,0,0,0,1.3.82,1.37,1.37,0,0,0,.59-.13l1.46-.67a1.42,1.42,0,0,0,.74-.8,1.47,1.47,0,0,0,0-1.09l-.87-1.88a11.69,11.69,0,0,0,.95-.79l1.69,1.2a1.42,1.42,0,0,0,2-.34l.94-1.32a1.43,1.43,0,0,0,.24-1.06,1.41,1.41,0,0,0-.58-.92l-1.7-1.2a9.34,9.34,0,0,0,.43-1.15l2.07.19h.13a1.43,1.43,0,0,0,1.42-1.29l.14-1.6a1.44,1.44,0,0,0-1.28-1.55l-2.07-.19a8.28,8.28,0,0,0-.21-1.21l1.88-.87a1.42,1.42,0,0,0,.7-1.89l-.67-1.46a1.43,1.43,0,0,0-1.3-.83,1.37,1.37,0,0,0-.59.13l-1.88.87a12.05,12.05,0,0,0-.79-.95l1.2-1.69a1.42,1.42,0,0,0-.33-2l-1.32-.94a1.37,1.37,0,0,0-.82-.27l-.24,0a1.38,1.38,0,0,0-.92.58l-1.21,1.7a11.31,11.31,0,0,0-1.15-.43l.19-2.07a1.41,1.41,0,0,0-1.29-1.54l-1.61-.15Z" />
    <path d="M123.71,240.74a6,6,0,0,1,2.5,11.41,6.21,6.21,0,0,1-1.65.48,6.07,6.07,0,0,1-.85.06,6,6,0,0,1-2.5-11.4,6.07,6.07,0,0,1,2.5-.55m0-1.42h0a7.36,7.36,0,0,0-3.09.68,6.87,6.87,0,0,0-1.79,1.18,7.39,7.39,0,0,0,4.88,12.93,7.55,7.55,0,0,0,1.06-.07,7.25,7.25,0,0,0,2-.6,7.4,7.4,0,0,0-3.09-14.12Z" />
  </g>
</svg>