<svg xmlns="http://www.w3.org/2000/svg" viewBox="0 0 432 432">
  <defs>
    <style>.GUNDAN_GUNDAN_WEAPONS_MACHNIMER_6_a{isolation:isolate;}.GUNDAN_GUNDAN_WEAPONS_MACHNIMER_6_b{fill:#b7bbc5;}.GUNDAN_GUNDAN_WEAPONS_MACHNIMER_6_c{fill:#c4a337;}.GUNDAN_GUNDAN_WEAPONS_MACHNIMER_6_d{fill:#ce8e34;}.GUNDAN_GUNDAN_WEAPONS_MACHNIMER_6_e{fill:#181b22;}.GUNDAN_GUNDAN_WEAPONS_MACHNIMER_6_f{fill:#cbc0ba;}.GUNDAN_GUNDAN_WEAPONS_MACHNIMER_6_g{fill:none;stroke:#000;stroke-linecap:round;stroke-linejoin:round;stroke-width:1.64px;}.GUNDAN_GUNDAN_WEAPONS_MACHNIMER_6_h{mix-blend-mode:multiply;opacity:0.2;}</style>
  </defs>
  <g class="GUNDAN_GUNDAN_WEAPONS_MACHNIMER_6_a">
    <polygon class="GUNDAN_GUNDAN_WEAPONS_MACHNIMER_6_b" points="296.48 390.92 231.84 589.07 221.48 585.68 285.55 389.32 296.48 390.92" />
    <polygon class="GUNDAN_GUNDAN_WEAPONS_MACHNIMER_6_c" points="296.11 356.94 294.29 362.51 292.55 367.86 290.58 373.9 288.6 379.95 285.55 389.32 296.48 390.92 298.8 383.81 300.94 377.28 302.75 371.71 305.54 363.16 296.11 356.94" />
    <polygon class="GUNDAN_GUNDAN_WEAPONS_MACHNIMER_6_b" points="322.87 310.06 305.54 363.16 296.11 356.94 298.86 348.51 312.51 306.68 322.87 310.06" />
    <path class="GUNDAN_GUNDAN_WEAPONS_MACHNIMER_6_c" d="M307.83,225.21a4.82,4.82,0,0,0,3.09,6.09l1.52.49,3-9.19-1.52-.49A4.83,4.83,0,0,0,307.83,225.21Z" />
    <path class="GUNDAN_GUNDAN_WEAPONS_MACHNIMER_6_c" d="M312.25,211.65v0a4.85,4.85,0,0,0,3.09,6.09l1.52.49,3-9.19-1.52-.49A4.83,4.83,0,0,0,312.25,211.65Z" />
    <path class="GUNDAN_GUNDAN_WEAPONS_MACHNIMER_6_c" d="M322.74,195.06a4.3,4.3,0,0,0-.69-.16h0a4.83,4.83,0,0,0-5.12,2.66,3.84,3.84,0,0,0-.26.62,4.85,4.85,0,0,0,3.09,6.09l1.52.49,3-9.19Z" />
    <rect class="GUNDAN_GUNDAN_WEAPONS_MACHNIMER_6_d" x="316.1" y="222.12" width="9.67" height="14.72" transform="translate(3.23 463.41) rotate(-71.93)" />
    <rect class="GUNDAN_GUNDAN_WEAPONS_MACHNIMER_6_d" x="320.52" y="208.6" width="9.67" height="14.72" transform="translate(19.12 458.28) rotate(-71.93)" />
    <polygon class="GUNDAN_GUNDAN_WEAPONS_MACHNIMER_6_d" points="329.16 197.16 324.26 195.56 321.26 204.75 335.26 209.32 338.26 200.13 329.16 197.16" />
    <path class="GUNDAN_GUNDAN_WEAPONS_MACHNIMER_6_e" d="M349.15,234.19,345,247l-7,21.52,3.51,1.31c4.29-13,16.29-18.66,16.29-18.66l4.17-12.77Z" />
    <polygon class="GUNDAN_GUNDAN_WEAPONS_MACHNIMER_6_e" points="338.26 200.13 335.26 209.32 333.85 213.65 330.85 222.84 329.44 227.17 326.44 236.36 319.81 256.66 333.92 261.26 343.37 232.3 335.39 229.7 336.78 225.44 344.76 228.04 347.16 220.68 339.18 218.08 340.57 213.81 348.55 216.42 353.78 200.4 339.67 195.8 338.26 200.13" />
    <path class="GUNDAN_GUNDAN_WEAPONS_MACHNIMER_6_c" d="M338,268.48l-10-3.76h0l-.51-.14-4.27-1.39c-.18-.06-.34-.13-.5-.2h0l-3.76-1.23,1.58,9.8-4,12.19-7.15,21.9,3.21,1,10.36,3.38,3.2,1.05,7.14-21.89,4-12.2,7.07-6.18-2.79-1Zm-9.71,23.92a6.83,6.83,0,1,1,3.07-3.79A6.76,6.76,0,0,1,328.25,292.4Z" />
    <polygon class="GUNDAN_GUNDAN_WEAPONS_MACHNIMER_6_c" points="336.78 225.44 335.39 229.7 343.37 232.3 349.15 234.19 361.93 238.36 366.87 239.97 368.26 235.71 344.76 228.04 336.78 225.44" />
    <path class="GUNDAN_GUNDAN_WEAPONS_MACHNIMER_6_c" d="M371.1,223.78l4.95-15.18L380.16,196l-16.77-5.47-4.1,12.57-5,15.2-5.78-1.89-8-2.61-1.39,4.27,8,2.6,23.5,7.67,1.39-4.26Zm-6.87-23.85a6.85,6.85,0,0,1,9.94,8,6.74,6.74,0,0,1-3.07,3.78,6.84,6.84,0,1,1-6.87-11.83Z" />
    <path class="GUNDAN_GUNDAN_WEAPONS_MACHNIMER_6_d" d="M320.12,260.6a5.15,5.15,0,0,0,2.49,2.38h0l5.28,1.73h0a5.18,5.18,0,0,0,6-3.46l-14.1-4.6A5.15,5.15,0,0,0,320.12,260.6Z" />
    <path class="GUNDAN_GUNDAN_WEAPONS_MACHNIMER_6_d" d="M354,199.21a5,5,0,0,0-.54-2.76,5.1,5.1,0,0,0-3-2.58l-4.27-1.4a5.45,5.45,0,0,0-1.16-.24,5.68,5.68,0,0,0-1.37.06,5.21,5.21,0,0,0-4,3.51l14.11,4.6A4.55,4.55,0,0,0,354,199.21Z" />
    <path class="GUNDAN_GUNDAN_WEAPONS_MACHNIMER_6_f" d="M378.48,143.79a6.41,6.41,0,0,0-8.11-4.1,34.05,34.05,0,0,0-7.15,3.4h0c-.78.48-1.58,1-2.37,1.6a41.58,41.58,0,0,0-6.06,5.34c-.26.27-.53.58-.78.87h0c-.59.65-1.16,1.32-1.7,2a40.21,40.21,0,0,0-4.33,6.79,42.3,42.3,0,0,0-2.4,5.6c-.43-.58-.84-1.17-1.21-1.78L337,167l-2.5-5.36a42.06,42.06,0,0,0-5.1,5.51c-.67.86-1.3,1.74-1.88,2.62a42.13,42.13,0,0,0-5.08,10.73c-.17.53-.31,1.06-.45,1.58a34.51,34.51,0,0,0-1.24,9.06,6.48,6.48,0,0,0,1.27,3.78h0a4.3,4.3,0,0,1,.69.16l1.52.5,4.9,1.6a6.41,6.41,0,0,0,4.45-6.12,24.65,24.65,0,0,1,.72-5,28.67,28.67,0,0,1,1.09-3.52,29.89,29.89,0,0,1,3.28-6.31c.49-.71,1-1.42,1.62-2.13a29.73,29.73,0,0,1,3.81-3.8,53.38,53.38,0,0,0-1.24,13.79h0a67.2,67.2,0,0,0,.79,8.17,5.68,5.68,0,0,1,1.37-.06,5.45,5.45,0,0,1,1.16.24l4.27,1.4a5.1,5.1,0,0,1,3,2.58,5,5,0,0,1,.54,2.76,6.36,6.36,0,0,0,2.76-6.56c-.23-1.17-.42-2.3-.57-3.42h0a48.06,48.06,0,0,1-.34-10.64c0-.81.15-1.61.26-2.37a37.32,37.32,0,0,1,.78-3.95,31.13,31.13,0,0,1,3-7.52c.2-.39.41-.76.63-1.1a29.38,29.38,0,0,1,5.26-6.31c.39-.37.78-.71,1.18-1a29.93,29.93,0,0,1,4.42-3,22.8,22.8,0,0,1,3-1.41A6.43,6.43,0,0,0,378.48,143.79Z" />
    <path class="GUNDAN_GUNDAN_WEAPONS_MACHNIMER_6_c" d="M370.37,139.69a34.05,34.05,0,0,0-7.15,3.4h0c-.78.48-1.58,1-2.37,1.6a11.32,11.32,0,0,1,1.76-4.94,11.53,11.53,0,0,1,13.73-4.5l.54.19a12,12,0,0,1,2.36,1.37A11.56,11.56,0,0,1,367,156.31a29.93,29.93,0,0,1,4.42-3,22.8,22.8,0,0,1,3-1.41,6.42,6.42,0,0,0-4-12.19Z" />
    <path class="GUNDAN_GUNDAN_WEAPONS_MACHNIMER_6_c" d="M348,159.73a42.3,42.3,0,0,0-2.4,5.6c-.43-.58-.84-1.17-1.21-1.78L337,167l-2.5-5.36-.87-1.88L341,156.3a34.86,34.86,0,0,1-1.17-4.6,35.53,35.53,0,0,1-.46-4.45l-8.08-.71.68-8,8.08.71a31.45,31.45,0,0,1,3.17-8.65L336.55,126l4.58-6.57,2.18,1.52,4.46,3.14a31.7,31.7,0,0,1,7.05-5.9l-3.46-7.38,7.27-3.4,1.61,3.46,1.81,3.89a34.49,34.49,0,0,1,9.07-1.61l.69-8.06,5.51.47,2.47.21-.69,8.07a.33.33,0,0,1,.13,0,33.81,33.81,0,0,1,8.5,3.1l4.66-6.63,6.55,4.58-4.66,6.65a34.53,34.53,0,0,1,6,7l7.33-3.44,3.4,7.25-7.35,3.43a33.21,33.21,0,0,1,1.59,9l8.09.72-.69,8-8.09-.72a32,32,0,0,1-3.12,8.64l6.66,4.65-4.61,6.55-6.65-4.64a29.1,29.1,0,0,1-3.73,3.56,33.46,33.46,0,0,1-3.29,2.37l3.43,7.36L386,184.73l-3.45-7.33a32.82,32.82,0,0,1-9.05,1.58l-.7,8.07-7.62-.62-.36-.06.05-.56.65-7.51a31.68,31.68,0,0,1-5-1.5,29.9,29.9,0,0,1-3.61-1.64l-.74,1.06a37.32,37.32,0,0,1,.78-3.95,31.13,31.13,0,0,1,3-7.52c.2-.39.41-.76.63-1.1A21.16,21.16,0,1,0,355,134a20.71,20.71,0,0,0-2.51,4.76h0a21.09,21.09,0,0,0-.58,12.87q.18.69.42,1.35A40.21,40.21,0,0,0,348,159.73Z" />
    <path class="GUNDAN_GUNDAN_WEAPONS_MACHNIMER_6_f" d="M373.58,202.41a6.84,6.84,0,1,0-2.48,9.35,6.74,6.74,0,0,0,3.07-3.78A6.86,6.86,0,0,0,373.58,202.41Z" />
    <path class="GUNDAN_GUNDAN_WEAPONS_MACHNIMER_6_f" d="M321.39,280.57a6.84,6.84,0,1,0,9.34,2.48A6.8,6.8,0,0,0,321.39,280.57Z" />
    <path class="GUNDAN_GUNDAN_WEAPONS_MACHNIMER_6_g" d="M330.73,283.05a6.83,6.83,0,0,1,.59,5.56,6.76,6.76,0,0,1-3.07,3.79,6.84,6.84,0,1,1,2.48-9.35Z" />
    <line class="GUNDAN_GUNDAN_WEAPONS_MACHNIMER_6_g" x1="330.73" y1="283.05" x2="318.91" y2="289.92" />
    <path class="GUNDAN_GUNDAN_WEAPONS_MACHNIMER_6_g" d="M373.58,202.41a6.86,6.86,0,0,1,.59,5.57,6.74,6.74,0,0,1-3.07,3.78,6.84,6.84,0,1,1,2.48-9.35Z" />
    <line class="GUNDAN_GUNDAN_WEAPONS_MACHNIMER_6_g" x1="373.58" y1="202.41" x2="361.76" y2="209.28" />
    <line class="GUNDAN_GUNDAN_WEAPONS_MACHNIMER_6_g" x1="344.76" y1="228.04" x2="347.16" y2="220.68" />
    <line class="GUNDAN_GUNDAN_WEAPONS_MACHNIMER_6_g" x1="353.78" y1="200.4" x2="348.55" y2="216.42" />
    <line class="GUNDAN_GUNDAN_WEAPONS_MACHNIMER_6_g" x1="338.26" y1="200.13" x2="339.67" y2="195.8" />
    <line class="GUNDAN_GUNDAN_WEAPONS_MACHNIMER_6_g" x1="333.85" y1="213.65" x2="335.26" y2="209.32" />
    <line class="GUNDAN_GUNDAN_WEAPONS_MACHNIMER_6_g" x1="329.44" y1="227.17" x2="330.85" y2="222.84" />
    <line class="GUNDAN_GUNDAN_WEAPONS_MACHNIMER_6_g" x1="319.82" y1="256.66" x2="326.44" y2="236.36" />
    <line class="GUNDAN_GUNDAN_WEAPONS_MACHNIMER_6_g" x1="343.37" y1="232.3" x2="333.92" y2="261.26" />
    <path class="GUNDAN_GUNDAN_WEAPONS_MACHNIMER_6_g" d="M354,199.21a5,5,0,0,0-.54-2.76,5.1,5.1,0,0,0-3-2.58l-4.28-1.4a5.24,5.24,0,0,0-1.15-.24,5.68,5.68,0,0,0-1.37.06,5.21,5.21,0,0,0-4,3.51l14.11,4.6A4.55,4.55,0,0,0,354,199.21Z" />
    <path class="GUNDAN_GUNDAN_WEAPONS_MACHNIMER_6_g" d="M322.61,263a5.17,5.17,0,0,1-2.79-6.32L333.17,261l.75.24a5.19,5.19,0,0,1-6,3.46" />
    <path class="GUNDAN_GUNDAN_WEAPONS_MACHNIMER_6_g" d="M322.63,263c.16.07.32.14.5.2l4.27,1.39.51.14" />
    <polyline class="GUNDAN_GUNDAN_WEAPONS_MACHNIMER_6_g" points="324.26 195.56 326.81 196.39 329.16 197.16 338.26 200.13 335.26 209.32 331.6 208.12 321.26 204.75" />
    <path class="GUNDAN_GUNDAN_WEAPONS_MACHNIMER_6_g" d="M322,194.89a4.83,4.83,0,0,0-5.12,2.66,3.84,3.84,0,0,0-.26.62,4.85,4.85,0,0,0,3.09,6.09l1.52.49,3-9.19-1.52-.5a4.3,4.3,0,0,0-.69-.16" />
    <path class="GUNDAN_GUNDAN_WEAPONS_MACHNIMER_6_g" d="M312.25,211.65l-2.09-.68a7.46,7.46,0,0,1-4.32-3.7,7.43,7.43,0,0,1,8.93-10.42l2.14.7" />
    <polyline class="GUNDAN_GUNDAN_WEAPONS_MACHNIMER_6_g" points="316.85 218.27 317.93 218.62 330.85 222.84 333.85 213.65 332.71 213.28 319.85 209.08" />
    <path class="GUNDAN_GUNDAN_WEAPONS_MACHNIMER_6_g" d="M319.85,209.08l-3,9.19-1.52-.49a4.85,4.85,0,0,1-3.09-6.09v0a4.83,4.83,0,0,1,6.08-3.06Z" />
    <polyline class="GUNDAN_GUNDAN_WEAPONS_MACHNIMER_6_g" points="312.44 231.79 313.68 232.2 322.69 235.14 326.44 236.36 327.4 233.4 329.44 227.17 328.4 226.83 315.44 222.6" />
    <path class="GUNDAN_GUNDAN_WEAPONS_MACHNIMER_6_g" d="M315.44,222.6l-3,9.19-1.52-.49a4.83,4.83,0,0,1,3-9.19Z" />
    <polyline class="GUNDAN_GUNDAN_WEAPONS_MACHNIMER_6_g" points="322.87 310.06 326.07 311.11 333.21 289.22 337.19 277.02 332.79 275.58 320.43 271.55 316.45 283.74 309.3 305.64 312.51 306.68" />
    <polyline class="GUNDAN_GUNDAN_WEAPONS_MACHNIMER_6_g" points="354.33 218.31 359.29 203.11 363.39 190.54 380.16 196.01 376.05 208.6 371.1 223.78" />
    <rect class="GUNDAN_GUNDAN_WEAPONS_MACHNIMER_6_g" x="125.43" y="442.43" width="293.48" height="10.9" transform="translate(-238.03 567.7) rotate(-71.93)" />
    <polygon class="GUNDAN_GUNDAN_WEAPONS_MACHNIMER_6_g" points="371.1 223.78 372.05 224.09 370.66 228.35 347.16 220.68 339.18 218.08 340.57 213.81 348.55 216.42 354.33 218.31 371.1 223.78" />
    <polyline class="GUNDAN_GUNDAN_WEAPONS_MACHNIMER_6_g" points="349.15 234.19 343.37 232.3 335.39 229.7 336.78 225.44 344.76 228.04 368.26 235.71 366.87 239.97 361.93 238.36" />
    <rect class="GUNDAN_GUNDAN_WEAPONS_MACHNIMER_6_g" x="346.74" y="235.94" width="13.44" height="13.44" transform="translate(13.13 503.42) rotate(-71.93)" />
    <line class="GUNDAN_GUNDAN_WEAPONS_MACHNIMER_6_g" x1="337.96" y1="268.48" x2="344.98" y2="246.96" />
    <path class="GUNDAN_GUNDAN_WEAPONS_MACHNIMER_6_g" d="M341.47,269.79c4.29-13,16.29-18.66,16.29-18.66" />
    <polyline class="GUNDAN_GUNDAN_WEAPONS_MACHNIMER_6_g" points="320.43 271.55 318.85 261.75 322.61 262.98 322.63 262.99 327.91 264.71 327.94 264.72 331.94 266.22 337.96 268.48 341.47 269.79 344.26 270.84 337.19 277.02" />
    <polyline class="GUNDAN_GUNDAN_WEAPONS_MACHNIMER_6_g" points="296.11 356.94 305.54 363.16 294.29 362.51" />
    <line class="GUNDAN_GUNDAN_WEAPONS_MACHNIMER_6_g" x1="292.55" y1="367.86" x2="302.75" y2="371.71" />
    <line class="GUNDAN_GUNDAN_WEAPONS_MACHNIMER_6_g" x1="290.58" y1="373.9" x2="300.93" y2="377.28" />
    <line class="GUNDAN_GUNDAN_WEAPONS_MACHNIMER_6_g" x1="288.6" y1="379.95" x2="298.8" y2="383.81" />
    <line class="GUNDAN_GUNDAN_WEAPONS_MACHNIMER_6_g" x1="296.48" y1="390.92" x2="285.54" y2="389.32" />
    <path class="GUNDAN_GUNDAN_WEAPONS_MACHNIMER_6_g" d="M352.44,138.71A20.71,20.71,0,0,1,355,134a21.15,21.15,0,1,1,5.56,29.7" />
    <path class="GUNDAN_GUNDAN_WEAPONS_MACHNIMER_6_g" d="M352.29,152.94q-.24-.66-.42-1.35a21.09,21.09,0,0,1,.58-12.87" />
    <path class="GUNDAN_GUNDAN_WEAPONS_MACHNIMER_6_g" d="M345.56,165.33c-.43-.58-.84-1.17-1.21-1.78l-4,1.89L337,167l-2.5-5.36-.87-1.88L341,156.3a34.86,34.86,0,0,1-1.17-4.6,35.53,35.53,0,0,1-.46-4.45l-8.08-.71.68-8,8.08.71a31.45,31.45,0,0,1,3.17-8.65L336.55,126l4.58-6.57,2.18,1.52,4.46,3.14a31.7,31.7,0,0,1,7.05-5.9l-3.46-7.38,7.27-3.4,1.61,3.46,1.81,3.89a34.49,34.49,0,0,1,9.07-1.61l.69-8.06,5.51.47,2.47.21-.69,8.07a.33.33,0,0,1,.13,0,33.81,33.81,0,0,1,8.5,3.1l4.66-6.63,6.55,4.58-4.66,6.65a34.53,34.53,0,0,1,6,7l1.14-.53,6.19-2.91,3.4,7.25-7.35,3.43a33.21,33.21,0,0,1,1.59,9l8.09.72-.69,8-8.09-.72a32,32,0,0,1-3.12,8.64l6.66,4.65-4.61,6.55-6.65-4.64a29.1,29.1,0,0,1-3.73,3.56,33.46,33.46,0,0,1-3.29,2.37l3.43,7.36L386,184.73l-3.45-7.33a32.82,32.82,0,0,1-9.05,1.58l-.7,8.07-7.62-.62-.36-.06.05-.56.65-7.51a31.68,31.68,0,0,1-5-1.5,29.9,29.9,0,0,1-3.61-1.64l-.74,1.06" />
    <path class="GUNDAN_GUNDAN_WEAPONS_MACHNIMER_6_g" d="M376.87,135.44a12,12,0,0,1,2.36,1.37A11.56,11.56,0,0,1,367,156.31" />
    <path class="GUNDAN_GUNDAN_WEAPONS_MACHNIMER_6_g" d="M360.84,144.69a11.32,11.32,0,0,1,1.76-4.94,11.53,11.53,0,0,1,13.73-4.5l.51.21" />
    <path class="GUNDAN_GUNDAN_WEAPONS_MACHNIMER_6_g" d="M342.88,184.12a67.2,67.2,0,0,0,.79,8.17" />
    <path class="GUNDAN_GUNDAN_WEAPONS_MACHNIMER_6_g" d="M344.13,170.32a53.38,53.38,0,0,0-1.24,13.79" />
    <path class="GUNDAN_GUNDAN_WEAPONS_MACHNIMER_6_g" d="M354,150.91c-.59.65-1.16,1.32-1.7,2a40.21,40.21,0,0,0-4.33,6.79,42.3,42.3,0,0,0-2.4,5.6,48.05,48.05,0,0,0-1.43,5" />
    <path class="GUNDAN_GUNDAN_WEAPONS_MACHNIMER_6_g" d="M363.21,143.09c-.78.48-1.58,1-2.37,1.6a41.58,41.58,0,0,0-6.06,5.34c-.26.27-.53.58-.78.87" />
    <path class="GUNDAN_GUNDAN_WEAPONS_MACHNIMER_6_g" d="M356.19,189.23a48.06,48.06,0,0,1-.34-10.64c0-.81.15-1.61.26-2.37a37.32,37.32,0,0,1,.78-3.95,31.13,31.13,0,0,1,3-7.52c.2-.39.41-.76.63-1.1a29.38,29.38,0,0,1,5.26-6.31c.39-.37.78-.71,1.18-1a29.93,29.93,0,0,1,4.42-3,22.8,22.8,0,0,1,3-1.41,6.42,6.42,0,0,0-4-12.19,34.05,34.05,0,0,0-7.15,3.4" />
    <path class="GUNDAN_GUNDAN_WEAPONS_MACHNIMER_6_g" d="M354,199.21a6.36,6.36,0,0,0,2.76-6.56c-.23-1.17-.42-2.3-.57-3.42" />
    <path class="GUNDAN_GUNDAN_WEAPONS_MACHNIMER_6_g" d="M354,150.9h0c-.73.2-1.42.43-2.12.68" />
    <path class="GUNDAN_GUNDAN_WEAPONS_MACHNIMER_6_g" d="M356.89,172.27c-3.14-7-12.76-2-12.76-2v0a29.73,29.73,0,0,0-3.81,3.8c-.6.71-1.13,1.42-1.62,2.13a29.89,29.89,0,0,0-3.28,6.31,28.67,28.67,0,0,0-1.09,3.52,24.65,24.65,0,0,0-.72,5,6.41,6.41,0,0,1-4.45,6.12" />
    <path class="GUNDAN_GUNDAN_WEAPONS_MACHNIMER_6_g" d="M322.05,194.9h0a6.48,6.48,0,0,1-1.27-3.78,34.51,34.51,0,0,1,1.24-9.06c.14-.52.28-1.05.45-1.58a42.13,42.13,0,0,1,5.08-10.73c.58-.88,1.21-1.76,1.88-2.62a42.06,42.06,0,0,1,5.1-5.51" />
    <path class="GUNDAN_GUNDAN_WEAPONS_MACHNIMER_6_g" d="M363.21,143.09h0c.46,0,8.31.58,8.15,10.2" />
    <path class="GUNDAN_GUNDAN_WEAPONS_MACHNIMER_6_g" d="M354.78,150s9.55.38,11,7.3" />
    <path class="GUNDAN_GUNDAN_WEAPONS_MACHNIMER_6_g" d="M347.94,159.74h0c.35-.16,9.25-4.1,11.91,5" />
    <path class="GUNDAN_GUNDAN_WEAPONS_MACHNIMER_6_g" d="M355.85,178.59s-9.59-2.19-13,5.52h0" />
    <path class="GUNDAN_GUNDAN_WEAPONS_MACHNIMER_6_g" d="M356.2,189.23h0c-.42-.17-9.05-3.62-11.15,3h0" />
    <path class="GUNDAN_GUNDAN_WEAPONS_MACHNIMER_6_g" d="M329.41,167.12s8.68.28,9.29,9.13v0" />
    <path class="GUNDAN_GUNDAN_WEAPONS_MACHNIMER_6_g" d="M322,182.05s10-3.76,12.33,4" />
    <g class="GUNDAN_GUNDAN_WEAPONS_MACHNIMER_6_h">
      <path d="M328.4,226.83l-.29.49-8.74-2.85-5.69,7.73-2.76-.9a4.83,4.83,0,0,1,3-9.19Z" />
      <path d="M332.71,213.28l-.2.26-7.23-2.36-7.36,7.44-2.59-.84a4.85,4.85,0,0,1-3.09-6.09v0a4.83,4.83,0,0,1,6.08-3.06Z" />
      <path d="M401.37,128.07l-.57,1.27s-18.08-14.57-34.85-8.23-17.64,30.73-16.31,35.11c-2.36,4.2-6,6.74-9.33,9.22a31.91,31.91,0,0,0-4.77,4.09,14.8,14.8,0,0,0-1.35,1.72,50.36,50.36,0,0,0-4.57,10.18c-1.91,5.6-3.26,11.67-2.81,15,.69,2.13-2.17-.5-2.42-.71l7.21,12.44-11.86-3.86a4.85,4.85,0,0,1-3.09-6.09,3.84,3.84,0,0,1,.26-.62,4.83,4.83,0,0,1,5.12-2.66,6.48,6.48,0,0,1-1.27-3.78,34.51,34.51,0,0,1,1.24-9.06c.14-.52.28-1.05.45-1.58a42.13,42.13,0,0,1,5.08-10.73c.58-.88,1.21-1.76,1.88-2.62a42.06,42.06,0,0,1,5.1-5.51l-.87-1.88L341,156.3a34.86,34.86,0,0,1-1.17-4.6,35.53,35.53,0,0,1-.46-4.45l-8.08-.71.68-8,8.08.71a31.45,31.45,0,0,1,3.17-8.65L336.55,126l4.58-6.57,2.18,1.52,4.46,3.14a31.7,31.7,0,0,1,7.05-5.9l-3.46-7.38,7.27-3.4,1.61,3.46,1.81,3.89a34.49,34.49,0,0,1,9.07-1.61l.69-8.06,5.51.47,2.47.21-.69,8.07a.33.33,0,0,1,.13,0,33.81,33.81,0,0,1,8.5,3.1l4.66-6.63,6.55,4.58-4.66,6.65a34.53,34.53,0,0,1,6,7Z" />
      <path d="M333.34,275.07l-.55.51-5,4.74v0l-1.8,5.47-2.44,7.39-5.09,15.43-17.06,51.8-.81,2.44L298.26,370l-1.9,5.76-2.09,6.31-2.66,8.11L226.69,587.39l-5.21-1.71,91-279-3.21-1,11.13-34.09-1.58-9.8,3.76,1.23a5.17,5.17,0,0,1-2.79-6.32l6.62-20.3-3.75-1.22c2.95-2,5-3.46,5-3.46s-.12.65-.29,1.72c-.66,4.16-2,14.69,1.11,17.38,3.87,3.37,7,3.34,7,3.34l-2.34,6.9-.89,2.63-.52,1.58.18,1,.14.69Z" />
      <path d="M370,139.81s-11.7,4.56-20.7,19.44-6.56,31.19-5.72,32.52,8.37-.42,9.35,3.84c3.7,0,3.89-2,3.48-4.92s-6.56-13.93-1.63-26,23.53-21.58,23.53-21.58S376.81,136.54,370,139.81Z" />
    </g>
  </g>
</svg>