<svg xmlns="http://www.w3.org/2000/svg" viewBox="0 0 432 432">
  <defs>
    <style>.GUNDAN_GUNDAN_WEAPONS_ROGUE_4_a{isolation:isolate;}.GUNDAN_GUNDAN_WEAPONS_ROGUE_4_b{fill:#e7d485;}.GUNDAN_GUNDAN_WEAPONS_ROGUE_4_c{fill:#6d2316;}.GUNDAN_GUNDAN_WEAPONS_ROGUE_4_d{fill:#fff;}.GUNDAN_GUNDAN_WEAPONS_ROGUE_4_e{fill:#ccc;}.GUNDAN_GUNDAN_WEAPONS_ROGUE_4_f{fill:#dcaf6d;}.GUNDAN_GUNDAN_WEAPONS_ROGUE_4_g,.GUNDAN_GUNDAN_WEAPONS_ROGUE_4_h,.GUNDAN_GUNDAN_WEAPONS_ROGUE_4_i{fill:none;stroke:#000;stroke-linecap:round;stroke-linejoin:round;}.GUNDAN_GUNDAN_WEAPONS_ROGUE_4_g{stroke-width:2.12px;}.GUNDAN_GUNDAN_WEAPONS_ROGUE_4_h{stroke-width:1.49px;}.GUNDAN_GUNDAN_WEAPONS_ROGUE_4_i{stroke-width:2.22px;}.GUNDAN_GUNDAN_WEAPONS_ROGUE_4_j{mix-blend-mode:multiply;opacity:0.2;}</style>
  </defs>
  <g class="GUNDAN_GUNDAN_WEAPONS_ROGUE_4_a">
    <polygon class="GUNDAN_GUNDAN_WEAPONS_ROGUE_4_b" points="87.65 218.22 67.52 176.4 78.28 171.22 106.44 229.72 95.68 234.91 87.65 218.22" />
    <path class="GUNDAN_GUNDAN_WEAPONS_ROGUE_4_c" d="M82.07,236a5.17,5.17,0,0,0,6.3-3,4.37,4.37,0,0,0-2.75-5.88,5.17,5.17,0,0,0-6.31,2.95A4.38,4.38,0,0,0,82.07,236Zm13.61-1.11L74.11,245.29l-.24-14.83,13.78-12.24Z" />
    <path class="GUNDAN_GUNDAN_WEAPONS_ROGUE_4_c" d="M63.26,178.45l4.26-2,10.76-5.18-4.2-8.75-15,7.23a4.85,4.85,0,0,0,4.2,8.75Z" />
    <circle class="GUNDAN_GUNDAN_WEAPONS_ROGUE_4_c" cx="92.31" cy="270.91" r="6.25" transform="translate(-108.36 66.84) rotate(-25.7)" />
    <path class="GUNDAN_GUNDAN_WEAPONS_ROGUE_4_c" d="M89,291.1l14.09-6.79,24.07-11.58-13.5-28.05-7.2-15-10.76,5.19L74.11,245.29l2.16,15.5L69.61,264l14.23,29.57ZM79.9,276l3.11-1.5a10.12,10.12,0,0,1-.65-3.44l-3.44-.25.13-1.69,3.44.26a9.92,9.92,0,0,1,1.16-3.3l-2.85-1.95.94-1.4,2.86,1.95a9.75,9.75,0,0,1,2.65-2.28l-1.5-3.11,1.53-.73,1.49,3.11a9.62,9.62,0,0,1,3.44-.65l.26-3.45,1.68.13-.26,3.45a10,10,0,0,1,3.31,1.15l2-2.85,1.38,1-1.94,2.85a9.77,9.77,0,0,1,2.27,2.66l3.12-1.5.73,1.51-3.12,1.5a9.92,9.92,0,0,1,.67,3.44l3.43.27-.12,1.67-3.45-.26A10.18,10.18,0,0,1,101,275.8l2.85,1.94-.95,1.39L100,277.2a9.94,9.94,0,0,1-2.66,2.27l1.51,3.12-1.53.73-1.5-3.12a9.89,9.89,0,0,1-3.43.66l-.26,3.43-1.69-.12.27-3.44a10,10,0,0,1-3.31-1.17l-1.94,2.87-1.4-.95,2-2.85A10,10,0,0,1,83.74,276l-3.11,1.5Z" />
    <path class="GUNDAN_GUNDAN_WEAPONS_ROGUE_4_d" d="M89,291.1l14.09-6.79.18.36c41,85.14,81.72,108.2,81.72,108.2S138.19,393.35,89,291.1Z" />
    <path class="GUNDAN_GUNDAN_WEAPONS_ROGUE_4_e" d="M133.84,278.52a5.18,5.18,0,0,0-6.3,3,4.37,4.37,0,0,0,2.74,5.88,5.19,5.19,0,0,0,6.32-3A4.38,4.38,0,0,0,133.84,278.52ZM150,328.36a5.2,5.2,0,0,0,6.31-3,4.38,4.38,0,0,0-2.75-5.9,5.18,5.18,0,0,0-6.3,3A4.36,4.36,0,0,0,150,328.36Zm9.73-1.86a8.9,8.9,0,0,1-4.46,4.69L185,392.87s-40.74-23.06-81.72-108.2l-.18-.36,24.07-11.58,1.43,3a9,9,0,0,1,6.62-.51A7.7,7.7,0,0,1,140,285.52a8.91,8.91,0,0,1-4.45,4.69l12.74,26.47a8.94,8.94,0,0,1,6.61-.5A7.69,7.69,0,0,1,159.74,326.5Z" />
    <path class="GUNDAN_GUNDAN_WEAPONS_ROGUE_4_f" d="M87.42,279.56l-1.94,2.87-1.4-.95,2-2.85A10,10,0,0,1,83.74,276l-3.11,1.5L79.9,276l3.11-1.5a10.12,10.12,0,0,1-.65-3.44l-3.44-.25.13-1.69,3.44.26a9.92,9.92,0,0,1,1.16-3.3l-2.85-1.95,1-1.4,2.85,1.95a9.75,9.75,0,0,1,2.65-2.28l-1.5-3.11,1.53-.73,1.49,3.11a9.62,9.62,0,0,1,3.44-.65l.26-3.45,1.68.13-.26,3.45a10,10,0,0,1,3.31,1.15l2-2.85,1.38,1-1.94,2.85a9.77,9.77,0,0,1,2.27,2.66l3.12-1.5.73,1.51-3.12,1.5a9.92,9.92,0,0,1,.67,3.44l3.43.27-.12,1.67-3.45-.26A10.18,10.18,0,0,1,101,275.8l2.85,1.94-.95,1.39L100,277.2a9.94,9.94,0,0,1-2.66,2.27l1.51,3.12-1.53.73-1.5-3.12a9.89,9.89,0,0,1-3.43.66l-.26,3.43-1.69-.12.27-3.44A10,10,0,0,1,87.42,279.56Zm-.74-5.93a6.25,6.25,0,1,0,2.92-8.35A6.25,6.25,0,0,0,86.68,273.63Z" />
    <path class="GUNDAN_GUNDAN_WEAPONS_ROGUE_4_d" d="M82.07,236a5.17,5.17,0,0,0,6.3-3,4.37,4.37,0,0,0-2.75-5.88,5.17,5.17,0,0,0-6.31,2.95A4.38,4.38,0,0,0,82.07,236Z" />
    <path class="GUNDAN_GUNDAN_WEAPONS_ROGUE_4_f" d="M136.6,284.41a4.38,4.38,0,0,0-2.76-5.89,5.18,5.18,0,0,0-6.3,3,4.37,4.37,0,0,0,2.74,5.88A5.19,5.19,0,0,0,136.6,284.41Z" />
    <path class="GUNDAN_GUNDAN_WEAPONS_ROGUE_4_f" d="M147.27,322.47a4.36,4.36,0,0,0,2.74,5.89,5.2,5.2,0,0,0,6.31-3,4.38,4.38,0,0,0-2.75-5.9A5.18,5.18,0,0,0,147.27,322.47Z" />
    <path class="GUNDAN_GUNDAN_WEAPONS_ROGUE_4_g" d="M127.54,281.49a5.18,5.18,0,0,1,6.3-3,4.38,4.38,0,0,1,2.76,5.89,5.19,5.19,0,0,1-6.32,3A4.37,4.37,0,0,1,127.54,281.49Z" />
    <line class="GUNDAN_GUNDAN_WEAPONS_ROGUE_4_g" x1="127.54" y1="281.49" x2="136.6" y2="284.41" />
    <path class="GUNDAN_GUNDAN_WEAPONS_ROGUE_4_g" d="M79.31,230.13a5.17,5.17,0,0,1,6.31-2.95,4.37,4.37,0,0,1,2.75,5.88,5.17,5.17,0,0,1-6.3,3A4.38,4.38,0,0,1,79.31,230.13Z" />
    <line class="GUNDAN_GUNDAN_WEAPONS_ROGUE_4_g" x1="79.31" y1="230.13" x2="88.37" y2="233.06" />
    <path d="M92.47,257.52l1.68.13-.26,3.45a10,10,0,0,1,3.31,1.15l2-2.85,1.38,1-1.94,2.85a9.77,9.77,0,0,1,2.27,2.66l3.12-1.5.73,1.51-3.12,1.5a9.92,9.92,0,0,1,.67,3.44l3.43.27-.12,1.67-3.45-.26A10.18,10.18,0,0,1,101,275.8l2.85,1.94-.95,1.39L100,277.2a9.94,9.94,0,0,1-2.66,2.27l1.51,3.12-1.53.73-1.5-3.12a9.89,9.89,0,0,1-3.43.66l-.26,3.43-1.69-.12.27-3.44a10,10,0,0,1-3.31-1.17l-1.94,2.87-1.4-.95,2-2.85A10,10,0,0,1,83.74,276l-3.11,1.5L79.9,276l3.11-1.5a10.12,10.12,0,0,1-.65-3.44l-3.44-.25.13-1.69,3.44.26a9.92,9.92,0,0,1,1.16-3.3l-2.85-1.95.94-1.4,2.86,1.95a9.75,9.75,0,0,1,2.65-2.28l-1.5-3.11,1.53-.73,1.49,3.11a9.62,9.62,0,0,1,3.44-.65l.26-3.45m0-1.49a1.49,1.49,0,0,0-1,.36,1.46,1.46,0,0,0-.51,1l-.17,2.16c-.42.06-.85.14-1.26.24l-.94-1.95a1.49,1.49,0,0,0-2-.69l-1.52.73a1.48,1.48,0,0,0-.76.85,1.5,1.5,0,0,0,.06,1.14l.94,1.94c-.34.27-.67.55-1,.85l-1.79-1.23a1.46,1.46,0,0,0-.84-.26,1.24,1.24,0,0,0-.27,0,1.5,1.5,0,0,0-1,.63l-.94,1.39a1.48,1.48,0,0,0,.39,2.07l1.79,1.22c-.16.4-.31.81-.43,1.22l-2.16-.16h-.11A1.49,1.49,0,0,0,77.56,269l-.13,1.68a1.49,1.49,0,0,0,1.38,1.6l2.16.16c.06.43.14.85.24,1.27l-1.95.94a1.49,1.49,0,0,0-.7,2l.73,1.51a1.48,1.48,0,0,0,.85.76,1.41,1.41,0,0,0,.49.09,1.51,1.51,0,0,0,.65-.15l2-.94a9.78,9.78,0,0,0,.85,1l-1.23,1.8a1.48,1.48,0,0,0-.23,1.12,1.5,1.5,0,0,0,.62.95l1.4,1a1.49,1.49,0,0,0,.84.26,1.24,1.24,0,0,0,.27,0,1.47,1.47,0,0,0,1-.63l1.22-1.79a12.58,12.58,0,0,0,1.22.43L89,284.05a1.49,1.49,0,0,0,.36,1.09,1.46,1.46,0,0,0,1,.51l1.68.13h.12a1.48,1.48,0,0,0,1.48-1.37l.17-2.16q.63-.09,1.26-.24l.94,2a1.49,1.49,0,0,0,2,.69l1.52-.73a1.48,1.48,0,0,0,.76-.85,1.5,1.5,0,0,0-.06-1.14l-.94-2c.34-.26.66-.54,1-.83l1.79,1.21a1.46,1.46,0,0,0,.84.26,1.49,1.49,0,0,0,1.23-.65l1-1.39a1.5,1.5,0,0,0-.39-2.07l-1.79-1.22c.16-.4.3-.81.42-1.22l2.17.17h.11a1.47,1.47,0,0,0,1-.36,1.5,1.5,0,0,0,.51-1l.12-1.68a1.5,1.5,0,0,0-1.37-1.59l-2.17-.16c-.06-.43-.14-.86-.24-1.28l2-.94a1.49,1.49,0,0,0,.69-2l-.72-1.51a1.55,1.55,0,0,0-.85-.76,1.69,1.69,0,0,0-.5-.08,1.43,1.43,0,0,0-.64.15l-2,.94a11.14,11.14,0,0,0-.84-1l1.22-1.79a1.49,1.49,0,0,0-.38-2.06l-1.39-1a1.49,1.49,0,0,0-.84-.26l-.28,0a1.49,1.49,0,0,0-1,.63l-1.23,1.8a10.38,10.38,0,0,0-1.22-.43l.17-2.17a1.49,1.49,0,0,0-1.38-1.59L92.58,256Z" />
    <circle class="GUNDAN_GUNDAN_WEAPONS_ROGUE_4_h" cx="92.31" cy="270.91" r="6.25" />
    <line class="GUNDAN_GUNDAN_WEAPONS_ROGUE_4_i" x1="135.56" y1="290.21" x2="148.3" y2="316.68" />
    <path class="GUNDAN_GUNDAN_WEAPONS_ROGUE_4_i" d="M128.57,275.7l-1.43-3-24.07,11.58-4.88,2.35L89,291.1c42.78,88.89,83.73,100.14,93.69,101.56h0a18.75,18.75,0,0,0,2.26.2l-.06-.13-29.63-61.55" />
    <path class="GUNDAN_GUNDAN_WEAPONS_ROGUE_4_i" d="M89,291.1l-5.14,2.47L69.61,264l6.66-3.21c0-4.37,3.12-7.3,7.2-8.6a17.06,17.06,0,0,1,10.36.15l.41.12a8.37,8.37,0,0,0,2.61.28s0,0,0,0c7.42-.23,16.77-8.07,16.77-8.07l13.5,28.05" />
    <line class="GUNDAN_GUNDAN_WEAPONS_ROGUE_4_i" x1="106.44" y1="229.72" x2="113.64" y2="244.68" />
    <polyline class="GUNDAN_GUNDAN_WEAPONS_ROGUE_4_i" points="76.27 260.79 74.11 245.29 95.68 234.91" />
    <path class="GUNDAN_GUNDAN_WEAPONS_ROGUE_4_i" d="M128.57,275.7a9,9,0,0,1,6.62-.51A7.7,7.7,0,0,1,140,285.52a8.91,8.91,0,0,1-4.45,4.69" />
    <path class="GUNDAN_GUNDAN_WEAPONS_ROGUE_4_g" d="M147.27,322.47a5.18,5.18,0,0,1,6.3-3,4.38,4.38,0,0,1,2.75,5.9,5.2,5.2,0,0,1-6.31,3A4.36,4.36,0,0,1,147.27,322.47Z" />
    <line class="GUNDAN_GUNDAN_WEAPONS_ROGUE_4_g" x1="147.27" y1="322.47" x2="156.32" y2="325.4" />
    <path class="GUNDAN_GUNDAN_WEAPONS_ROGUE_4_i" d="M148.3,316.68a8.94,8.94,0,0,1,6.61-.5,7.69,7.69,0,0,1,4.83,10.32,8.9,8.9,0,0,1-4.46,4.69" />
    <path class="GUNDAN_GUNDAN_WEAPONS_ROGUE_4_i" d="M185,392.87s-40.74-23.06-81.72-108.2" />
    <polyline class="GUNDAN_GUNDAN_WEAPONS_ROGUE_4_i" points="67.52 176.4 87.65 218.22 91.34 225.89 95.68 234.91 96.32 234.6 99.18 233.22 106.44 229.72 78.28 171.22" />
    <polyline class="GUNDAN_GUNDAN_WEAPONS_ROGUE_4_g" points="74.11 245.29 73.87 230.46 87.65 218.22" />
    <path class="GUNDAN_GUNDAN_WEAPONS_ROGUE_4_i" d="M56.79,176.18a4.85,4.85,0,0,1,2.27-6.48l15-7.23,4.2,8.75-15,7.23A4.85,4.85,0,0,1,56.79,176.18Z" />
    <path class="GUNDAN_GUNDAN_WEAPONS_ROGUE_4_j" d="M78.89,243a4.36,4.36,0,0,1,.27-.59c1.16-1.81,1.35-4.62,1.09-7.47a33,33,0,0,0-.81-4.74h0a1.17,1.17,0,0,0-.06-.2,26.39,26.39,0,0,0-1-3.47c0-.11-.08-.19-.11-.28L87,218.31l.18.32,4.15,7.26,5,8.71,0,.05,2.84-1.43L70.82,174.81s-9.11,2.72-11.76-5.11l15-7.23L128.57,275.7a9,9,0,0,1,6.62-.51A7.7,7.7,0,0,1,140,285.52a8.91,8.91,0,0,1-4.45,4.69l12.74,26.47a8.94,8.94,0,0,1,6.61-.5,7.69,7.69,0,0,1,4.83,10.32,8.9,8.9,0,0,1-4.46,4.69l29.63,61.55h-.16l-2-.07h0a190.51,190.51,0,0,1-39.39-31c-18-18.47-41.43-67.26-45.09-75l-.49-1L109,280.75s2.08-12.46-2-18.46-5.71-8.72-10.15-9.54c0,0,0,0,0,0a22.45,22.45,0,0,0-2.61-.28c-4-.22-8.74.29-10.77-.27l-.2-.06C81.09,251.38,77.36,247.06,78.89,243Z" />
    <polygon class="GUNDAN_GUNDAN_WEAPONS_ROGUE_4_b" points="322.63 218.22 342.75 176.4 331.99 171.22 303.83 229.72 314.6 234.91 322.63 218.22" />
    <path class="GUNDAN_GUNDAN_WEAPONS_ROGUE_4_c" d="M331,230.13a5.17,5.17,0,0,0-6.31-2.95,4.37,4.37,0,0,0-2.75,5.88,5.18,5.18,0,0,0,6.31,3A4.38,4.38,0,0,0,331,230.13Zm-8.33-11.91,13.77,12.24-.24,14.83L314.6,234.91Z" />
    <path class="GUNDAN_GUNDAN_WEAPONS_ROGUE_4_c" d="M347,178.45l-4.26-2L332,171.22l4.21-8.75,15,7.23a4.86,4.86,0,0,1,2.47,2.77,4.8,4.8,0,0,1-.21,3.71A4.85,4.85,0,0,1,347,178.45Z" />
    <circle class="GUNDAN_GUNDAN_WEAPONS_ROGUE_4_c" cx="317.96" cy="270.91" r="6.25" transform="translate(-64.05 439.92) rotate(-64.3)" />
    <path class="GUNDAN_GUNDAN_WEAPONS_ROGUE_4_c" d="M326.43,293.57,340.66,264,334,260.79l2.15-15.5L314.6,234.91l-10.77-5.19-7.2,15-13.5,28.05,24.07,11.58,14.09,6.79Zm3.21-16.11-3.11-1.5a10,10,0,0,1-2.29,2.67l1.95,2.85-1.39.95-1.95-2.87a9.94,9.94,0,0,1-3.3,1.17l.26,3.44-1.69.12-.26-3.43a9.89,9.89,0,0,1-3.43-.66l-1.5,3.12-1.53-.73,1.51-3.12a9.94,9.94,0,0,1-2.66-2.27l-2.85,1.93-.95-1.39,2.85-1.94a10.18,10.18,0,0,1-1.15-3.31l-3.45.26-.12-1.67,3.43-.27a10.15,10.15,0,0,1,.67-3.44l-3.12-1.5.73-1.51,3.12,1.5a9.77,9.77,0,0,1,2.27-2.66l-1.94-2.85,1.39-1,1.94,2.85a10,10,0,0,1,3.31-1.15l-.26-3.45,1.68-.13.26,3.45a9.62,9.62,0,0,1,3.44.65l1.49-3.11,1.53.73-1.5,3.11a9.61,9.61,0,0,1,2.65,2.28l2.86-1.95,1,1.4L326.62,266a9.92,9.92,0,0,1,1.16,3.3l3.45-.26.12,1.69-3.44.25a10.12,10.12,0,0,1-.65,3.44l3.11,1.5Z" />
    <path class="GUNDAN_GUNDAN_WEAPONS_ROGUE_4_d" d="M321.29,291.1l-14.09-6.79-.17.36c-41,85.14-81.73,108.2-81.73,108.2S272.08,393.35,321.29,291.1Z" />
    <path class="GUNDAN_GUNDAN_WEAPONS_ROGUE_4_e" d="M273.67,284.41a5.19,5.19,0,0,0,6.32,3,4.37,4.37,0,0,0,2.74-5.88,5.18,5.18,0,0,0-6.3-3A4.38,4.38,0,0,0,273.67,284.41ZM263,322.47a5.2,5.2,0,0,0-6.31-3,4.39,4.39,0,0,0-2.75,5.9,5.2,5.2,0,0,0,6.32,3A4.38,4.38,0,0,0,263,322.47Zm-7.65-6.29a8.93,8.93,0,0,1,6.61.5l12.75-26.47a8.9,8.9,0,0,1-4.46-4.69,7.7,7.7,0,0,1,4.82-10.33,9,9,0,0,1,6.62.51l1.43-3,24.07,11.58-.17.36c-41,85.14-81.73,108.2-81.73,108.2L255,331.19a8.88,8.88,0,0,1-4.45-4.69A7.68,7.68,0,0,1,255.36,316.18Z" />
    <path class="GUNDAN_GUNDAN_WEAPONS_ROGUE_4_f" d="M319.54,280.73l.27,3.44-1.69.12-.26-3.43a9.89,9.89,0,0,1-3.43-.66l-1.5,3.12-1.53-.73,1.51-3.12a9.94,9.94,0,0,1-2.66-2.27l-2.85,1.93-.95-1.39,2.85-1.94a10.18,10.18,0,0,1-1.15-3.31l-3.45.26-.12-1.67,3.43-.27a10.15,10.15,0,0,1,.67-3.44l-3.12-1.5.73-1.51,3.12,1.5a9.77,9.77,0,0,1,2.27-2.66l-1.94-2.85,1.39-1,1.94,2.85a10,10,0,0,1,3.31-1.15l-.26-3.45,1.68-.13.26,3.45a9.62,9.62,0,0,1,3.44.65l1.49-3.11,1.53.73-1.5,3.11a9.61,9.61,0,0,1,2.65,2.28l2.86-1.95,1,1.4L326.62,266a9.92,9.92,0,0,1,1.16,3.3l3.45-.26.12,1.69-3.44.25a10.12,10.12,0,0,1-.65,3.44l3.11,1.5-.73,1.51-3.11-1.5a10,10,0,0,1-2.29,2.67l1.95,2.85-1.39.95-1.95-2.87A9.91,9.91,0,0,1,319.54,280.73Zm1.13-15.45a6.25,6.25,0,1,0,2.93,8.35A6.24,6.24,0,0,0,320.67,265.28Z" />
    <path class="GUNDAN_GUNDAN_WEAPONS_ROGUE_4_d" d="M328.21,236a5.18,5.18,0,0,1-6.31-3,4.37,4.37,0,0,1,2.75-5.88,5.17,5.17,0,0,1,6.31,2.95A4.38,4.38,0,0,1,328.21,236Z" />
    <path class="GUNDAN_GUNDAN_WEAPONS_ROGUE_4_f" d="M273.67,284.41a4.38,4.38,0,0,1,2.76-5.89,5.18,5.18,0,0,1,6.3,3,4.37,4.37,0,0,1-2.74,5.88A5.19,5.19,0,0,1,273.67,284.41Z" />
    <path class="GUNDAN_GUNDAN_WEAPONS_ROGUE_4_f" d="M263,322.47a4.38,4.38,0,0,1-2.75,5.89,5.2,5.2,0,0,1-6.31-3,4.39,4.39,0,0,1,2.75-5.9A5.2,5.2,0,0,1,263,322.47Z" />
    <path class="GUNDAN_GUNDAN_WEAPONS_ROGUE_4_g" d="M282.73,281.49a5.18,5.18,0,0,0-6.3-3,4.38,4.38,0,0,0-2.76,5.89,5.19,5.19,0,0,0,6.32,3A4.37,4.37,0,0,0,282.73,281.49Z" />
    <line class="GUNDAN_GUNDAN_WEAPONS_ROGUE_4_g" x1="282.73" y1="281.49" x2="273.67" y2="284.41" />
    <path class="GUNDAN_GUNDAN_WEAPONS_ROGUE_4_g" d="M331,230.13a5.17,5.17,0,0,0-6.31-2.95,4.37,4.37,0,0,0-2.75,5.88,5.18,5.18,0,0,0,6.31,3A4.38,4.38,0,0,0,331,230.13Z" />
    <line class="GUNDAN_GUNDAN_WEAPONS_ROGUE_4_g" x1="330.96" y1="230.13" x2="321.9" y2="233.06" />
    <path d="M317.8,257.52l.26,3.45a9.62,9.62,0,0,1,3.44.65l1.49-3.11,1.53.73-1.5,3.11a9.61,9.61,0,0,1,2.65,2.28l2.86-1.95,1,1.4L326.62,266a9.92,9.92,0,0,1,1.16,3.3l3.45-.26.12,1.69-3.44.25a10.12,10.12,0,0,1-.65,3.44l3.11,1.5-.73,1.51-3.11-1.5a10,10,0,0,1-2.29,2.67l1.95,2.85-1.39.95-1.95-2.87a9.94,9.94,0,0,1-3.3,1.17l.26,3.44-1.69.12-.26-3.43a9.89,9.89,0,0,1-3.43-.66l-1.5,3.12-1.53-.73,1.51-3.12a9.94,9.94,0,0,1-2.66-2.27l-2.85,1.93-.95-1.39,2.85-1.94a10.18,10.18,0,0,1-1.15-3.31l-3.45.26-.12-1.67,3.43-.27a10.15,10.15,0,0,1,.67-3.44l-3.12-1.5.73-1.51,3.12,1.5a9.77,9.77,0,0,1,2.27-2.66l-1.94-2.85,1.39-1,1.94,2.85a10,10,0,0,1,3.31-1.15l-.26-3.45,1.68-.13m0-1.49h-.11l-1.68.13a1.47,1.47,0,0,0-1.37,1.59l.16,2.17a10.38,10.38,0,0,0-1.22.43l-1.23-1.8a1.49,1.49,0,0,0-1-.63l-.27,0a1.52,1.52,0,0,0-.85.26l-1.38,1a1.48,1.48,0,0,0-.39,2.06l1.22,1.79a11.14,11.14,0,0,0-.84,1l-2-.94a1.43,1.43,0,0,0-.64-.15,1.57,1.57,0,0,0-.49.08,1.48,1.48,0,0,0-.85.76l-.73,1.51a1.49,1.49,0,0,0,.69,2l2,.94c-.1.42-.18.85-.24,1.28l-2.16.16a1.5,1.5,0,0,0-1.38,1.59l.12,1.68a1.5,1.5,0,0,0,.51,1,1.48,1.48,0,0,0,1,.36h.11l2.17-.17c.12.41.26.82.42,1.22l-1.79,1.22a1.5,1.5,0,0,0-.39,2.07l.95,1.39a1.5,1.5,0,0,0,1.23.65,1.46,1.46,0,0,0,.84-.26l1.79-1.21c.31.29.64.57,1,.83l-.95,2a1.5,1.5,0,0,0-.06,1.14,1.48,1.48,0,0,0,.76.85l1.52.73a1.49,1.49,0,0,0,2-.69l.94-2c.42.1.84.18,1.27.24l.16,2.16a1.48,1.48,0,0,0,1.48,1.37h.12l1.68-.13a1.5,1.5,0,0,0,1-.51,1.53,1.53,0,0,0,.35-1.09l-.16-2.15a12.39,12.39,0,0,0,1.21-.43l1.22,1.79a1.5,1.5,0,0,0,1,.63,1.27,1.27,0,0,0,.28,0,1.46,1.46,0,0,0,.83-.26l1.4-1a1.46,1.46,0,0,0,.62-.95,1.48,1.48,0,0,0-.23-1.12l-1.23-1.8a9.78,9.78,0,0,0,.85-1l1.95.94a1.51,1.51,0,0,0,.65.15,1.49,1.49,0,0,0,1.34-.85l.73-1.51a1.48,1.48,0,0,0,.06-1.13,1.45,1.45,0,0,0-.76-.85l-1.95-.94c.1-.42.18-.84.24-1.27l2.16-.16a1.49,1.49,0,0,0,1.38-1.6l-.13-1.68a1.49,1.49,0,0,0-1.48-1.38h-.12l-2.16.16a11.06,11.06,0,0,0-.43-1.22l1.8-1.22a1.5,1.5,0,0,0,.39-2.07l-.95-1.39a1.5,1.5,0,0,0-1-.63,1.24,1.24,0,0,0-.27,0,1.49,1.49,0,0,0-.84.26l-1.79,1.23c-.31-.3-.64-.58-1-.85l.94-1.94a1.5,1.5,0,0,0,.06-1.14,1.48,1.48,0,0,0-.76-.85l-1.52-.73a1.49,1.49,0,0,0-2,.69l-.93,1.95c-.42-.1-.85-.18-1.27-.24l-.16-2.16a1.51,1.51,0,0,0-.52-1,1.49,1.49,0,0,0-1-.36Z" />
    <circle class="GUNDAN_GUNDAN_WEAPONS_ROGUE_4_h" cx="317.96" cy="270.91" r="6.25" />
    <line class="GUNDAN_GUNDAN_WEAPONS_ROGUE_4_i" x1="274.72" y1="290.21" x2="261.97" y2="316.68" />
    <path class="GUNDAN_GUNDAN_WEAPONS_ROGUE_4_i" d="M281.7,275.7l1.43-3,24.07,11.58,4.88,2.35,9.21,4.44C278.51,380,237.57,391.24,227.6,392.66h0a19,19,0,0,1-2.27.2l.06-.13L255,331.19" />
    <path class="GUNDAN_GUNDAN_WEAPONS_ROGUE_4_i" d="M321.29,291.1l5.14,2.47L340.66,264,334,260.79c0-4.37-3.13-7.3-7.21-8.6a17.06,17.06,0,0,0-10.36.15l-.41.12a8.37,8.37,0,0,1-2.61.28s0,0,0,0c-7.42-.23-16.77-8.07-16.77-8.07l-13.5,28.05" />
    <line class="GUNDAN_GUNDAN_WEAPONS_ROGUE_4_i" x1="303.83" y1="229.72" x2="296.63" y2="244.68" />
    <polyline class="GUNDAN_GUNDAN_WEAPONS_ROGUE_4_i" points="334 260.79 336.16 245.29 314.6 234.91" />
    <path class="GUNDAN_GUNDAN_WEAPONS_ROGUE_4_i" d="M281.7,275.7a9,9,0,0,0-6.62-.51,7.7,7.7,0,0,0-4.82,10.33,8.9,8.9,0,0,0,4.46,4.69" />
    <path class="GUNDAN_GUNDAN_WEAPONS_ROGUE_4_g" d="M263,322.47a5.2,5.2,0,0,0-6.31-3,4.39,4.39,0,0,0-2.75,5.9,5.2,5.2,0,0,0,6.32,3A4.38,4.38,0,0,0,263,322.47Z" />
    <line class="GUNDAN_GUNDAN_WEAPONS_ROGUE_4_g" x1="263.01" y1="322.47" x2="253.95" y2="325.4" />
    <path class="GUNDAN_GUNDAN_WEAPONS_ROGUE_4_i" d="M262,316.68a8.93,8.93,0,0,0-6.61-.5,7.68,7.68,0,0,0-4.82,10.32,8.88,8.88,0,0,0,4.45,4.69" />
    <path class="GUNDAN_GUNDAN_WEAPONS_ROGUE_4_i" d="M225.3,392.87s40.75-23.06,81.73-108.2" />
    <polyline class="GUNDAN_GUNDAN_WEAPONS_ROGUE_4_i" points="342.75 176.4 322.63 218.22 318.94 225.89 314.6 234.91 313.95 234.6 311.09 233.22 303.83 229.72 331.99 171.22" />
    <polyline class="GUNDAN_GUNDAN_WEAPONS_ROGUE_4_g" points="336.16 245.29 336.4 230.46 322.63 218.22" />
    <path class="GUNDAN_GUNDAN_WEAPONS_ROGUE_4_i" d="M353.48,176.18a4.8,4.8,0,0,0,.21-3.71,4.86,4.86,0,0,0-2.47-2.77l-15-7.23L332,171.22l15,7.23A4.85,4.85,0,0,0,353.48,176.18Z" />
    <path class="GUNDAN_GUNDAN_WEAPONS_ROGUE_4_j" d="M331.38,243a4.36,4.36,0,0,0-.27-.59c-1.16-1.81-1.35-4.62-1.09-7.47a33,33,0,0,1,.81-4.74h0a1.17,1.17,0,0,1,.06-.2,28,28,0,0,1,1.05-3.47c0-.11.08-.19.11-.28l-8.79-7.91-.17.32-4.15,7.26-5,8.71,0,.05-2.84-1.43,28.36-58.41s9.11,2.72,11.77-5.11l-15-7.23L281.7,275.7a9,9,0,0,0-6.62-.51,7.7,7.7,0,0,0-4.82,10.33,8.9,8.9,0,0,0,4.46,4.69L262,316.68a8.93,8.93,0,0,0-6.61-.5,7.68,7.68,0,0,0-4.82,10.32,8.88,8.88,0,0,0,4.45,4.69l-29.63,61.55h.17l2-.07h0a190.7,190.7,0,0,0,39.4-31c18-18.47,41.42-67.26,45.08-75,.33-.67.49-1,.49-1l-11.32-4.88s-2.08-12.46,2-18.46,5.71-8.72,10.15-9.54c0,0,0,0,0,0a22.45,22.45,0,0,1,2.61-.28c4-.22,8.75.29,10.77-.27l.2-.06C329.18,251.38,332.91,247.06,331.38,243Z" />
  </g>
</svg>