<svg xmlns="http://www.w3.org/2000/svg" viewBox="0 0 432 432">
  <defs>
    <style>.GUNDAN_GUNDAN_WEAPONS_ROGUE_5_a{fill:#fff;}.GUNDAN_GUNDAN_WEAPONS_ROGUE_5_b{fill:#ccc;}.GUNDAN_GUNDAN_WEAPONS_ROGUE_5_c{fill:#4b140d;}.GUNDAN_GUNDAN_WEAPONS_ROGUE_5_d{fill:#d1b23e;}.GUNDAN_GUNDAN_WEAPONS_ROGUE_5_e{fill:none;stroke:#000;stroke-linecap:round;stroke-linejoin:round;stroke-width:1.9px;}</style>
  </defs>
  <path class="GUNDAN_GUNDAN_WEAPONS_ROGUE_5_a" d="M98.76,276.53c3.3-2.11,7.66-5.12,11.74-7.91,8.61,13.22,6.07,20.16,29.46,76.05,25.19,60.19,64.93,82.45,65.91,83-27-7.41-54.23-38.3-70.31-62.49s-10.77-40.48-18.36-52.74-17.38-18.14-24-21.93C91.78,285.63,98.76,276.53,98.76,276.53Z" />
  <path class="GUNDAN_GUNDAN_WEAPONS_ROGUE_5_b" d="M123.65,260.44c1.66,2.38,5,7.88,7.47,16.94,3.49,12.6,8.32,29,26.31,53-5.11,40.11,32,82.82,48.45,97.25h0c-1-.54-40.72-22.8-65.91-83-23.39-55.89-20.85-62.83-29.46-76.05,5.34-3.66,10.2-7,11.58-7.46A9.39,9.39,0,0,0,123.65,260.44Z" />
  <path class="GUNDAN_GUNDAN_WEAPONS_ROGUE_5_c" d="M87.28,216.51a2.19,2.19,0,1,1-.65,3A2.19,2.19,0,0,1,87.28,216.51Z" />
  <path class="GUNDAN_GUNDAN_WEAPONS_ROGUE_5_c" d="M97.05,229.52a2.19,2.19,0,1,1-.64,3A2.2,2.2,0,0,1,97.05,229.52Z" />
  <path class="GUNDAN_GUNDAN_WEAPONS_ROGUE_5_c" d="M117.38,252.32c4.45-2.5,9.1-3.28,10.53-.3,1.87,3.87-1.6,7-4.26,8.42a9.39,9.39,0,0,1-1.57.72c-1.38.49-6.24,3.8-11.58,7.46-4.08,2.79-8.44,5.8-11.74,7.91-12.17,5.69-24.7,3.88-20.49-8.55,0,0,4.57,9.46,13.79,3.5,1.55-1,3-1.87,4.25-2.67,6.43-3.9,10.07-5.74,14.12-10.75a20.19,20.19,0,0,1,1.4-1.55A25.46,25.46,0,0,1,117.38,252.32Z" />
  <path class="GUNDAN_GUNDAN_WEAPONS_ROGUE_5_d" d="M97.05,229.52a2.19,2.19,0,1,1-.64,3A2.2,2.2,0,0,1,97.05,229.52Zm14.78,27a25.46,25.46,0,0,1,5.55-4.19c-4-6.36-27.74-43.74-46.75-58.79a10.42,10.42,0,0,1-.35,1.21l2.19,1.12L71.36,198l-2.2-1.13A8.87,8.87,0,0,1,68,198.3c.11.08,3.88,2.7,9.73,9.72S88,227.92,88,227.92a60.71,60.71,0,0,1,17.85,17.83A96.87,96.87,0,0,1,111.83,256.51ZM89.66,220.18a2.19,2.19,0,1,1,.65-3A2.19,2.19,0,0,1,89.66,220.18Z" />
  <path class="GUNDAN_GUNDAN_WEAPONS_ROGUE_5_d" d="M60.25,203.77l2.33-.12h.11v-.17l-.12-2.3a10.7,10.7,0,0,0,1.55-.4,12.07,12.07,0,0,0,1.12-.47l1.34,2.08,2.05-1.32L67.28,199a9.73,9.73,0,0,0,.74-.69c.11.08,3.88,2.7,9.73,9.72S88,227.92,88,227.92a60.71,60.71,0,0,1,17.85,17.83,96.87,96.87,0,0,1,6,10.76,20.19,20.19,0,0,0-1.4,1.55c-4.05,5-7.69,6.85-14.12,10.75C88.5,247,57.17,201.13,57.17,201.13l.22-.42a10.24,10.24,0,0,0,2.74.59Z" />
  <path d="M59.92,177.75l.13,2.47a10.24,10.24,0,0,1,2.74.59l1.13-2.2,2.17,1.11L65,181.92A9.74,9.74,0,0,1,67,183.8l1.39-.9.69-.44,1.32,2-2.08,1.34a9.71,9.71,0,0,1,.87,2.67l2.47-.12.12,2.43-2.47.13a11.15,11.15,0,0,1-.23,1.52,10.07,10.07,0,0,1-.36,1.22l2.2,1.12L69.85,197l-2.2-1.13a10,10,0,0,1-1.14,1.39,8,8,0,0,1-.74.68L67.11,200l-2,1.33-1.35-2.08a9,9,0,0,1-1.11.46,8.62,8.62,0,0,1-1.55.4l.12,2.3v.17h-.1l-2.34.11-.11-2.46a10.24,10.24,0,0,1-2.74-.59l-.22.42-.91,1.78-2.18-1.11,1.13-2.2a10.26,10.26,0,0,1-1-.76,10.71,10.71,0,0,1-1.1-1.13L49.54,198l-1.32-2,2.08-1.35a9.62,9.62,0,0,1-.86-2.66l-2.47.12-.13-2.43,2.48-.13a10.22,10.22,0,0,1,.58-2.74l-2.2-1.13,1.11-2.17,2.2,1.13a10,10,0,0,1,1.88-2.08l-1.34-2.07,2.05-1.33L55,181.2a10.33,10.33,0,0,1,2.66-.86l-.12-2.47.75,0,1.68-.09m0-1.9h-.09l-1.68.09-.76,0a1.89,1.89,0,0,0-1.31.62,1.92,1.92,0,0,0-.49,1.37l0,.8-.43-.67a1.9,1.9,0,0,0-1.6-.87,2,2,0,0,0-1,.3l-2,1.33a1.89,1.89,0,0,0-.56,2.63l.43.67-.71-.37a1.9,1.9,0,0,0-2.56.82L46,184.79a1.92,1.92,0,0,0-.12,1.45,1.88,1.88,0,0,0,1,1.1l.71.37-.8,0a1.9,1.9,0,0,0-1.32.62,1.92,1.92,0,0,0-.48,1.37l.12,2.44A1.9,1.9,0,0,0,47,194h.1l.8,0-.67.43a1.89,1.89,0,0,0-.56,2.63L48,199.05a1.89,1.89,0,0,0,1.6.86,2,2,0,0,0,1-.3l.67-.44-.37.72a1.9,1.9,0,0,0,.83,2.56l2.17,1.11a1.89,1.89,0,0,0,2.55-.82l.37-.72,0,.79a1.89,1.89,0,0,0,1.89,1.81h.1l2.33-.12h.1a1.9,1.9,0,0,0,1.81-2v-.18l0-.61.43.67a2,2,0,0,0,1.2.83,2.58,2.58,0,0,0,.4,0,1.91,1.91,0,0,0,1-.31l2-1.32a2,2,0,0,0,.83-1.2A1.9,1.9,0,0,0,68.7,199l-.43-.67.71.37a1.89,1.89,0,0,0,.87.21,1.65,1.65,0,0,0,.58-.1,1.88,1.88,0,0,0,1.11-.94l1.11-2.18a1.89,1.89,0,0,0-.83-2.55l-.7-.36.79,0a1.94,1.94,0,0,0,1.32-.62,1.88,1.88,0,0,0,.48-1.37l-.12-2.44a1.89,1.89,0,0,0-1.89-1.8h-.1l-.81,0,.68-.44a1.9,1.9,0,0,0,.57-2.63l-1.33-2a1.87,1.87,0,0,0-1.59-.87,1.93,1.93,0,0,0-1,.3l-.68.44.37-.71A1.9,1.9,0,0,0,67,178l-2.17-1.11a1.88,1.88,0,0,0-.86-.21,2,2,0,0,0-.59.09,1.93,1.93,0,0,0-1.11.95l-.36.71,0-.81a1.89,1.89,0,0,0-.62-1.31,2,2,0,0,0-1.28-.49Z" />
  <path class="GUNDAN_GUNDAN_WEAPONS_ROGUE_5_c" d="M49.44,192l-2.47.12-.13-2.43,2.48-.13a10.22,10.22,0,0,1,.58-2.74l-2.2-1.13,1.11-2.17,2.2,1.13a10,10,0,0,1,1.88-2.08l-1.34-2.07,2.05-1.33L55,181.2a10.33,10.33,0,0,1,2.66-.86l-.12-2.47.75,0,1.68-.09.13,2.47a10.24,10.24,0,0,1,2.74.59l1.13-2.2,2.17,1.11L65,181.92A9.74,9.74,0,0,1,67,183.8l1.39-.9.69-.44,1.32,2-2.08,1.34a9.71,9.71,0,0,1,.87,2.67l2.47-.12.12,2.43-2.47.13a11.15,11.15,0,0,1-.23,1.52,10.07,10.07,0,0,1-.36,1.22l2.2,1.12L69.85,197l-2.2-1.13a10,10,0,0,1-1.14,1.39,8,8,0,0,1-.74.68L67.11,200l-2,1.33-1.35-2.08a9,9,0,0,1-1.11.46,8.62,8.62,0,0,1-1.55.4l.12,2.3v.17h-.1l-2.34.11-.11-2.46a10.24,10.24,0,0,1-2.74-.59l-.22.42-.91,1.78-2.18-1.11,1.13-2.2a10.26,10.26,0,0,1-1-.76,10.71,10.71,0,0,1-1.1-1.13L49.54,198l-1.32-2,2.08-1.35A9.62,9.62,0,0,1,49.44,192Zm4.14,1.73A6.71,6.71,0,1,0,56.9,184h0a6.21,6.21,0,0,0-1.39.74A6.72,6.72,0,0,0,53.58,193.69Z" />
  <path class="GUNDAN_GUNDAN_WEAPONS_ROGUE_5_e" d="M56.9,184a6.71,6.71,0,1,1-1.39.74A6.21,6.21,0,0,1,56.9,184" />
  <path class="GUNDAN_GUNDAN_WEAPONS_ROGUE_5_e" d="M57.17,201.13S88.5,247,96.31,268.81" />
  <path class="GUNDAN_GUNDAN_WEAPONS_ROGUE_5_e" d="M98.76,276.53c-12.17,5.69-24.7,3.88-20.49-8.55,0,0,4.57,9.46,13.79,3.5,1.55-1,3-1.87,4.25-2.67,6.43-3.9,10.07-5.74,14.12-10.75a20.19,20.19,0,0,1,1.4-1.55,25.46,25.46,0,0,1,5.55-4.19c4.45-2.5,9.1-3.28,10.53-.3,1.87,3.87-1.6,7-4.26,8.42a9.39,9.39,0,0,1-1.57.72c-1.38.49-6.24,3.8-11.58,7.46C106.42,271.41,102.06,274.42,98.76,276.53Z" />
  <path class="GUNDAN_GUNDAN_WEAPONS_ROGUE_5_e" d="M205.88,427.67c-16.42-14.43-53.56-57.14-48.45-97.25-18-24.06-22.82-40.44-26.31-53-2.51-9.06-5.81-14.56-7.47-16.94" />
  <path class="GUNDAN_GUNDAN_WEAPONS_ROGUE_5_e" d="M98.76,276.53s-7,9.1-5.6,14c6.66,3.79,16.44,9.66,24,21.93s2.28,28.56,18.36,52.74,43.35,55.08,70.31,62.49" />
  <path class="GUNDAN_GUNDAN_WEAPONS_ROGUE_5_e" d="M70.63,193.53c19,15.05,42.78,52.43,46.75,58.79" />
  <path class="GUNDAN_GUNDAN_WEAPONS_ROGUE_5_e" d="M68,198.3h0c.11.08,3.88,2.7,9.73,9.72S88,227.92,88,227.92a60.71,60.71,0,0,1,17.85,17.83,96.87,96.87,0,0,1,6,10.76" />
  <path class="GUNDAN_GUNDAN_WEAPONS_ROGUE_5_e" d="M110.5,268.62c8.61,13.22,6.07,20.16,29.46,76.05,25.19,60.19,64.93,82.45,65.91,83h0" />
  <path class="GUNDAN_GUNDAN_WEAPONS_ROGUE_5_a" d="M321.3,276.53c-3.3-2.11-7.67-5.12-11.75-7.91-8.6,13.22-6.07,20.16-29.46,76.05-25.19,60.19-64.93,82.45-65.9,83,26.95-7.41,54.23-38.3,70.31-62.49s10.76-40.48,18.35-52.74,17.38-18.14,24-21.93C328.27,285.63,321.3,276.53,321.3,276.53Z" />
  <path class="GUNDAN_GUNDAN_WEAPONS_ROGUE_5_b" d="M296.4,260.44a56.18,56.18,0,0,0-7.47,16.94c-3.49,12.6-8.31,29-26.3,53,5.11,40.11-32,82.82-48.46,97.25h0c1-.54,40.71-22.8,65.9-83,23.39-55.89,20.86-62.83,29.46-76.05-5.33-3.66-10.2-7-11.58-7.46A9.77,9.77,0,0,1,296.4,260.44Z" />
  <path class="GUNDAN_GUNDAN_WEAPONS_ROGUE_5_c" d="M332.77,216.51a2.18,2.18,0,1,0,.65,3A2.18,2.18,0,0,0,332.77,216.51Z" />
  <path class="GUNDAN_GUNDAN_WEAPONS_ROGUE_5_c" d="M323,229.52a2.19,2.19,0,1,0,.65,3A2.21,2.21,0,0,0,323,229.52Z" />
  <path class="GUNDAN_GUNDAN_WEAPONS_ROGUE_5_c" d="M302.67,252.32c-4.45-2.5-9.1-3.28-10.53-.3-1.87,3.87,1.6,7,4.26,8.42a9.77,9.77,0,0,0,1.57.72c1.38.49,6.25,3.8,11.58,7.46,4.08,2.79,8.45,5.8,11.75,7.91,12.16,5.69,24.7,3.88,20.48-8.55,0,0-4.56,9.46-13.79,3.5-1.55-1-3-1.87-4.25-2.67-6.43-3.9-10.07-5.74-14.11-10.75a18.45,18.45,0,0,0-1.41-1.55A25.46,25.46,0,0,0,302.67,252.32Z" />
  <path class="GUNDAN_GUNDAN_WEAPONS_ROGUE_5_d" d="M323.65,232.55a2.19,2.19,0,1,1-.65-3A2.21,2.21,0,0,1,323.65,232.55Zm-9.4,13.2a60.71,60.71,0,0,1,17.85-17.83s4.26-12.77,10.2-19.9,9.62-9.64,9.73-9.72a8.87,8.87,0,0,1-1.14-1.39l-2.2,1.13-1.11-2.18,2.2-1.12a8.81,8.81,0,0,1-.36-1.21c-19,15.05-42.77,52.43-46.75,58.79a25.46,25.46,0,0,1,5.55,4.19A96.87,96.87,0,0,1,314.25,245.75Zm15.5-28.6a2.19,2.19,0,1,1,.65,3A2.18,2.18,0,0,1,329.75,217.15Z" />
  <path class="GUNDAN_GUNDAN_WEAPONS_ROGUE_5_d" d="M359.81,203.77l-2.34-.12h-.11v-.17l.12-2.3a10.7,10.7,0,0,1-1.55-.4,10.86,10.86,0,0,1-1.11-.47l-1.35,2.08-2.05-1.32,1.34-2.08a9.73,9.73,0,0,1-.74-.69c-.11.08-3.88,2.7-9.73,9.72s-10.2,19.9-10.2,19.9a60.71,60.71,0,0,0-17.85,17.83,96.87,96.87,0,0,0-6,10.76,18.45,18.45,0,0,1,1.41,1.55c4,5,7.68,6.85,14.11,10.75,7.81-21.79,39.14-67.68,39.14-67.68l-.22-.42a10.24,10.24,0,0,1-2.74.59Z" />
  <path d="M360.13,177.75l1.68.09.76,0-.13,2.47a10.4,10.4,0,0,1,2.67.86l1.34-2.07,2.05,1.33-1.34,2.07a10,10,0,0,1,1.88,2.08l2.2-1.13,1.11,2.17-2.2,1.13a9.85,9.85,0,0,1,.58,2.74l2.48.13-.12,2.43-2.47-.12a10,10,0,0,1-.87,2.66l2.08,1.35-1.32,2-2.08-1.34a9.81,9.81,0,0,1-1.1,1.13,10.26,10.26,0,0,1-1,.76l1.13,2.2-2.17,1.11-.92-1.78-.21-.42a10.32,10.32,0,0,1-2.74.59l-.12,2.46-2.34-.11h-.1v-.17l.11-2.3a8.31,8.31,0,0,1-1.54-.4,9.77,9.77,0,0,1-1.12-.46L355,201.35,352.94,200l1.35-2.08a9.59,9.59,0,0,1-.75-.68,10,10,0,0,1-1.14-1.39L350.2,197l-1.11-2.18,2.2-1.12a12.26,12.26,0,0,1-.36-1.22,11.15,11.15,0,0,1-.23-1.52l-2.47-.13.13-2.43,2.47.12a9.68,9.68,0,0,1,.86-2.67l-2.08-1.34,1.32-2,.69.44,1.39.9a10,10,0,0,1,2.08-1.88l-1.13-2.2,2.18-1.11,1.12,2.2a10.32,10.32,0,0,1,2.74-.59l.13-2.47m0-1.9a1.91,1.91,0,0,0-1.9,1.81l0,.8-.36-.71a1.89,1.89,0,0,0-1.69-1,1.89,1.89,0,0,0-.87.21L353.1,178a1.91,1.91,0,0,0-.83,2.56l.37.71-.68-.44a1.89,1.89,0,0,0-1-.3,1.87,1.87,0,0,0-1.6.87l-1.32,2a1.9,1.9,0,0,0,.56,2.63l.68.44-.81,0h-.09a1.89,1.89,0,0,0-1.9,1.8l-.12,2.44a1.88,1.88,0,0,0,1.8,2l.79,0-.7.36a1.91,1.91,0,0,0-.83,2.55l1.11,2.18a1.88,1.88,0,0,0,1.11.94,1.69,1.69,0,0,0,.58.1,1.89,1.89,0,0,0,.87-.21l.71-.37-.43.67a1.85,1.85,0,0,0-.26,1.43,1.91,1.91,0,0,0,.82,1.2l2,1.32a1.88,1.88,0,0,0,1,.31,1.9,1.9,0,0,0,1.6-.87l.43-.67,0,.63v.16a1.9,1.9,0,0,0,1.82,2h.1l2.33.11h.09a1.9,1.9,0,0,0,1.28-.49,1.94,1.94,0,0,0,.62-1.32l0-.79.37.72a1.89,1.89,0,0,0,2.55.82l2.18-1.11a1.9,1.9,0,0,0,.82-2.56l-.37-.72.68.44a1.9,1.9,0,0,0,1,.3,1.81,1.81,0,0,0,.4,0,1.87,1.87,0,0,0,1.19-.82l1.33-2.05a1.91,1.91,0,0,0-.57-2.63l-.67-.43.8,0h.1a1.9,1.9,0,0,0,1.89-1.8l.13-2.44a1.93,1.93,0,0,0-.49-1.37,1.9,1.9,0,0,0-1.32-.62l-.8,0,.72-.37a1.87,1.87,0,0,0,.94-1.1,1.92,1.92,0,0,0-.12-1.45l-1.11-2.18a1.91,1.91,0,0,0-1.69-1,2,2,0,0,0-.87.21l-.71.36.44-.66a2,2,0,0,0,.26-1.43,1.87,1.87,0,0,0-.83-1.2l-2-1.33a2,2,0,0,0-1-.3,1.92,1.92,0,0,0-1.6.87l-.43.67,0-.8a1.9,1.9,0,0,0-1.8-2l-.75,0-1.69-.09Z" />
  <path class="GUNDAN_GUNDAN_WEAPONS_ROGUE_5_c" d="M369.75,194.62l2.08,1.35-1.32,2-2.08-1.34a9.81,9.81,0,0,1-1.1,1.13,10.26,10.26,0,0,1-1,.76l1.13,2.2-2.17,1.11-.92-1.78-.21-.42a10.32,10.32,0,0,1-2.74.59l-.12,2.46-2.34-.11h-.1v-.17l.11-2.3a8.31,8.31,0,0,1-1.54-.4,9.77,9.77,0,0,1-1.12-.46L355,201.35,352.94,200l1.35-2.08a9.59,9.59,0,0,1-.75-.68,10,10,0,0,1-1.14-1.39L350.2,197l-1.11-2.18,2.2-1.12a12.26,12.26,0,0,1-.36-1.22,11.15,11.15,0,0,1-.23-1.52l-2.47-.13.13-2.43,2.47.12a9.68,9.68,0,0,1,.86-2.67l-2.08-1.34,1.32-2,.69.44,1.39.9a10,10,0,0,1,2.08-1.88l-1.13-2.2,2.18-1.11,1.12,2.2a10.32,10.32,0,0,1,2.74-.59l.13-2.47,1.68.09.76,0-.13,2.47a10.4,10.4,0,0,1,2.67.86l1.34-2.07,2.05,1.33-1.34,2.07a10,10,0,0,1,1.88,2.08l2.2-1.13,1.11,2.17-2.2,1.13a9.85,9.85,0,0,1,.58,2.74l2.48.13-.12,2.43-2.47-.12A10,10,0,0,1,369.75,194.62Zm-5.2-9.89a6.28,6.28,0,0,0-1.4-.74h0a6.69,6.69,0,1,0,1.4.74Z" />
  <path class="GUNDAN_GUNDAN_WEAPONS_ROGUE_5_e" d="M363.15,184a6.69,6.69,0,1,0,1.4.74,6.28,6.28,0,0,0-1.4-.74" />
  <path class="GUNDAN_GUNDAN_WEAPONS_ROGUE_5_e" d="M362.88,201.13S331.55,247,323.74,268.81" />
  <path class="GUNDAN_GUNDAN_WEAPONS_ROGUE_5_e" d="M321.3,276.53c12.16,5.69,24.7,3.88,20.48-8.55,0,0-4.56,9.46-13.79,3.5-1.55-1-3-1.87-4.25-2.67-6.43-3.9-10.07-5.74-14.11-10.75a18.45,18.45,0,0,0-1.41-1.55,25.46,25.46,0,0,0-5.55-4.19c-4.45-2.5-9.1-3.28-10.53-.3-1.87,3.87,1.6,7,4.26,8.42a9.77,9.77,0,0,0,1.57.72c1.38.49,6.25,3.8,11.58,7.46C313.63,271.41,318,274.42,321.3,276.53Z" />
  <path class="GUNDAN_GUNDAN_WEAPONS_ROGUE_5_e" d="M214.17,427.67c16.42-14.43,53.57-57.14,48.46-97.25,18-24.06,22.81-40.44,26.3-53a56.18,56.18,0,0,1,7.47-16.94" />
  <path class="GUNDAN_GUNDAN_WEAPONS_ROGUE_5_e" d="M321.3,276.53s7,9.1,5.59,14c-6.66,3.79-16.44,9.66-24,21.93S300.57,341,284.5,365.17s-43.36,55.08-70.31,62.49" />
  <path class="GUNDAN_GUNDAN_WEAPONS_ROGUE_5_e" d="M349.42,193.53c-19,15.05-42.77,52.43-46.75,58.79" />
  <path class="GUNDAN_GUNDAN_WEAPONS_ROGUE_5_e" d="M352,198.3h0c-.11.08-3.88,2.7-9.73,9.72s-10.2,19.9-10.2,19.9a60.71,60.71,0,0,0-17.85,17.83,96.87,96.87,0,0,0-6,10.76" />
  <path class="GUNDAN_GUNDAN_WEAPONS_ROGUE_5_e" d="M309.55,268.62c-8.6,13.22-6.07,20.16-29.46,76.05-25.19,60.19-64.93,82.45-65.9,83h0" />
</svg>