<svg xmlns="http://www.w3.org/2000/svg" viewBox="0 0 432 432">
  <defs>
    <style>.GUNDAN_GUNDAN_WEAPONS_WARRIOR_16_a{isolation:isolate;}.GUNDAN_GUNDAN_WEAPONS_WARRIOR_16_b{fill:#181b22;}.GUNDAN_GUNDAN_WEAPONS_WARRIOR_16_c{fill:#501809;}.GUNDAN_GUNDAN_WEAPONS_WARRIOR_16_d{fill:#dcae6d;}.GUNDAN_GUNDAN_WEAPONS_WARRIOR_16_e{fill:#645333;}.GUNDAN_GUNDAN_WEAPONS_WARRIOR_16_f{fill:#a1573b;}.GUNDAN_GUNDAN_WEAPONS_WARRIOR_16_g,.GUNDAN_GUNDAN_WEAPONS_WARRIOR_16_m{fill:none;stroke:#000;stroke-linecap:round;stroke-linejoin:round;}.GUNDAN_GUNDAN_WEAPONS_WARRIOR_16_g{stroke-width:2.52px;}.GUNDAN_GUNDAN_WEAPONS_WARRIOR_16_h{fill:#b9866e;}.GUNDAN_GUNDAN_WEAPONS_WARRIOR_16_i{mix-blend-mode:multiply;opacity:0.43;}.GUNDAN_GUNDAN_WEAPONS_WARRIOR_16_j{fill:#dcaf6d;}.GUNDAN_GUNDAN_WEAPONS_WARRIOR_16_k{fill:#fff;}.GUNDAN_GUNDAN_WEAPONS_WARRIOR_16_l{fill:#4f5a69;}.GUNDAN_GUNDAN_WEAPONS_WARRIOR_16_m{stroke-width:1.84px;}</style>
  </defs>
  <g class="GUNDAN_GUNDAN_WEAPONS_WARRIOR_16_a">
    <path class="GUNDAN_GUNDAN_WEAPONS_WARRIOR_16_b" d="M157.37,354.16a153.35,153.35,0,0,1-12.15-17.82c-1.67-2.9-2.57-4.7-2.6-4.79a4.41,4.41,0,1,0-7.93,3.88c.12.25,1.34,2.71,3.59,6.52a156.1,156.1,0,0,0,12.21,17.73c1.95,2.45,4.08,5,6.37,7.49a4.41,4.41,0,0,0,6.52-5.94C161.22,358.86,159.22,356.49,157.37,354.16Z" />
    <path class="GUNDAN_GUNDAN_WEAPONS_WARRIOR_16_b" d="M276.42,248.25c-.19-.27-2.19-3.16-5.76-7.43a159.72,159.72,0,0,0-15-15.59c-1.86-1.68-3.84-3.38-5.92-5.07a4.4,4.4,0,0,0-5.54,6.85c2.1,1.7,4.09,3.44,6,5.15A151.91,151.91,0,0,1,265,247.87c2.62,3.22,4.08,5.29,4.14,5.39a4.41,4.41,0,0,0,7.26-5Z" />
    <path class="GUNDAN_GUNDAN_WEAPONS_WARRIOR_16_c" d="M123,353.77a10.71,10.71,0,0,0,12.59,17.33c.83-.6,6.27-4.57,14.9-11.42A156.1,156.1,0,0,1,138.28,342C128.92,349.44,123.22,353.62,123,353.77Z" />
    <path class="GUNDAN_GUNDAN_WEAPONS_WARRIOR_16_c" d="M250.19,232.16c-36.84,45.63-79.6,83.37-105,104.18a153.35,153.35,0,0,0,12.15,17.82c25.5-20.75,69.08-58.94,107.65-106.29A151.91,151.91,0,0,0,250.19,232.16Z" />
    <path class="GUNDAN_GUNDAN_WEAPONS_WARRIOR_16_c" d="M276.39,215.62a10.71,10.71,0,0,0-15,2.14c-1.89,2.51-3.79,5-5.72,7.47a159.72,159.72,0,0,1,15,15.59q4-5.06,7.87-10.21A10.72,10.72,0,0,0,276.39,215.62Z" />
    <path class="GUNDAN_GUNDAN_WEAPONS_WARRIOR_16_d" d="M307.42,175.1c15,23.66,24.84,83.53,20.19,128a22.51,22.51,0,0,0-7.26,37.6C310.1,381.1,288,430.52,206.69,483.41,125.38,430.52,103.28,381.1,93,340.73a22.5,22.5,0,0,0-7.25-37.6c-4.65-44.5,5.2-104.37,20.19-128,47.43-19,87.85-57.91,100.73-71.13C219.57,117.19,260,156.09,307.42,175.1Zm-2.93,175c-1.2-2.23-2.58-4.28-3.65-6.57-24-51.4-25.18-114.29,0-165.11A48.85,48.85,0,0,1,270,191.58a161.71,161.71,0,0,0-33.4-47,70.31,70.31,0,0,0-15.28-11.89,35.24,35.24,0,0,0-14.64-4.45A35.38,35.38,0,0,0,192,132.7a70.49,70.49,0,0,0-15.27,11.89,161.52,161.52,0,0,0-33.4,47,48.85,48.85,0,0,1-30.86-13.12c25.22,50.82,24,113.71,0,165.11-1.08,2.29-2.45,4.34-3.65,6.57,16.8,47.67,52.8,87.93,97.79,110.84h0C251.69,438.07,287.7,397.8,304.49,350.14Z" />
    <path class="GUNDAN_GUNDAN_WEAPONS_WARRIOR_16_e" d="M109.31,264.45a.41.41,0,0,1-.41-.4l0-.94,0,.94a.4.4,0,0,1-.41.4h0c-.33,0-.67,0-1-.06a.41.41,0,0,1-.37-.44l.08-.95L107,264a.45.45,0,0,1-.16.27.44.44,0,0,1-.25.08h0c-.33,0-.67-.1-1-.17a.4.4,0,0,1-.32-.48l.19-.93-.24.92a.41.41,0,0,1-.4.3h-.1c-.32-.08-.65-.18-1-.28a.41.41,0,0,1-.26-.52l.3-.94-.35.92a.41.41,0,0,1-.22.23.47.47,0,0,1-.17,0l-.14,0c-.31-.13-.63-.26-.93-.4a.41.41,0,0,1-.2-.54l.41-.89-.46.87a.4.4,0,0,1-.36.22.45.45,0,0,1-.19-.05c-.29-.16-.59-.32-.87-.5a.44.44,0,0,1-.19-.25.42.42,0,0,1,.05-.31l.51-.84-.55.81a.41.41,0,0,1-.27.17h-.07a.39.39,0,0,1-.23-.07c-.28-.19-.55-.39-.81-.59a.45.45,0,0,1-.16-.27.44.44,0,0,1,.09-.31l.59-.77-.63.74a.47.47,0,0,1-.28.14h0a.38.38,0,0,1-.27-.1c-.25-.22-.5-.44-.74-.68a.41.41,0,0,1,0-.58l.67-.68-.71.65a.43.43,0,0,1-.28.11h0a.44.44,0,0,1-.28-.14c-.22-.24-.44-.5-.65-.75a.38.38,0,0,1-.09-.3.42.42,0,0,1,.14-.28l.74-.59-.77.55a.41.41,0,0,1-.24.08.42.42,0,0,1-.33-.17c-.19-.27-.38-.55-.56-.83a.4.4,0,0,1,.12-.56l.8-.51-.82.46a.42.42,0,0,1-.21.06l-.11,0a.38.38,0,0,1-.24-.19c-.17-.29-.32-.59-.47-.89a.41.41,0,0,1,0-.31.43.43,0,0,1,.21-.23l.83-.41-.85.36-.16,0a.42.42,0,0,1-.38-.24c-.13-.31-.25-.62-.36-.94a.39.39,0,0,1,.25-.52l.9-.32-.92.27-.12,0a.42.42,0,0,1-.39-.3c-.09-.32-.18-.64-.25-1a.41.41,0,0,1,.31-.49l.92-.21-.93.16H93a.41.41,0,0,1-.24-.08.41.41,0,0,1-.17-.26c0-.33-.1-.66-.14-1a.44.44,0,0,1,.09-.31.49.49,0,0,1,.27-.15l1-.1-1,.05a.4.4,0,0,1-.41-.38c0-.32,0-.65,0-1a.45.45,0,0,1,.12-.31.46.46,0,0,1,.29-.13h1l-1-.05a.42.42,0,0,1-.28-.14.44.44,0,0,1-.11-.29c0-.34,0-.67.09-1a.41.41,0,0,1,.41-.36l1,.11-.94-.16a.39.39,0,0,1-.26-.17.37.37,0,0,1-.07-.3c0-.33.12-.66.2-1a.39.39,0,0,1,.39-.31h.1l.92.21-.91-.26a.41.41,0,0,1-.28-.51c.09-.32.2-.64.31-.95a.42.42,0,0,1,.21-.24.57.57,0,0,1,.18,0,.3.3,0,0,1,.13,0l.94.34-.92-.39a.41.41,0,0,1-.21-.53c.13-.31.27-.62.41-.92a.4.4,0,0,1,.24-.2.31.31,0,0,1,.13,0,.41.41,0,0,1,.18.05l.88.43-.85-.48a.39.39,0,0,1-.2-.25.43.43,0,0,1,0-.31c.17-.29.34-.58.52-.86a.44.44,0,0,1,.26-.18h.08a.46.46,0,0,1,.23.06l.81.53-.78-.57a.4.4,0,0,1-.09-.57c.19-.27.4-.54.61-.8a.4.4,0,0,1,.58-.05l.74.61-.71-.65a.39.39,0,0,1-.13-.28.41.41,0,0,1,.1-.3l.7-.72a.44.44,0,0,1,.29-.11.42.42,0,0,1,.29.12l.67.69-.63-.72a.41.41,0,0,1-.1-.3.42.42,0,0,1,.14-.28c.25-.22.51-.43.77-.63a.41.41,0,0,1,.58.07l.58.76-.54-.79a.41.41,0,0,1,.1-.57c.28-.18.56-.37.85-.54a.37.37,0,0,1,.21-.06h.1a.47.47,0,0,1,.25.19l.48.8-.44-.82a.42.42,0,0,1,.17-.56l.9-.44a.53.53,0,0,1,.17,0,.4.4,0,0,1,.37.24l.39.85-.34-.87a.41.41,0,0,1,.23-.53c.31-.12.63-.23,1-.33a.25.25,0,0,1,.12,0,.42.42,0,0,1,.39.28l.3.92-.25-.93a.45.45,0,0,1,0-.32.41.41,0,0,1,.25-.18c.32-.09.65-.17,1-.23h.08a.42.42,0,0,1,.4.33l.19.93-.14-.94a.41.41,0,0,1,.35-.46c.33-.05.66-.09,1-.11h0a.4.4,0,0,1,.4.38l.08.94,0-.94a.38.38,0,0,1,.11-.3.41.41,0,0,1,.28-.13h1a.46.46,0,0,1,.29.13.46.46,0,0,1,.11.3l0,.95.08-.95a.39.39,0,0,1,.15-.28.4.4,0,0,1,.26-.1h0c.34,0,.67.06,1,.11a.41.41,0,0,1,.27.16.39.39,0,0,1,.07.3l-.13,1,.19-.94a.41.41,0,0,1,.4-.33h.08c.32.06.65.14,1,.22a.41.41,0,0,1,.25.19.43.43,0,0,1,.05.31l-.25.93.29-.91a.42.42,0,0,1,.39-.28.27.27,0,0,1,.13,0c.32.1.64.21,1,.33a.41.41,0,0,1,.23.53l-.36.92.41-.9a.4.4,0,0,1,.37-.24.53.53,0,0,1,.17,0l.9.44a.41.41,0,0,1,.17.56l-.46.86.51-.84a.36.36,0,0,1,.25-.18h.1a.54.54,0,0,1,.21.05c.28.18.57.36.84.55a.41.41,0,0,1,.11.57l-.55.8.59-.77a.39.39,0,0,1,.32-.16.38.38,0,0,1,.25.08c.27.21.53.42.78.64a.41.41,0,0,1,0,.58l-.63.72.67-.69a.41.41,0,0,1,.28-.13h0a.4.4,0,0,1,.28.12c.24.23.48.47.7.72a.41.41,0,0,1,0,.58l-.7.64.73-.61a.41.41,0,0,1,.26-.09h0a.43.43,0,0,1,.28.15c.21.26.41.53.61.79a.43.43,0,0,1-.09.58l-.77.55.8-.51a.34.34,0,0,1,.22-.07h.08a.4.4,0,0,1,.26.18c.18.28.36.57.52.85a.45.45,0,0,1,0,.32.41.41,0,0,1-.19.24l-.82.46.84-.41a.39.39,0,0,1,.18,0,.42.42,0,0,1,.37.22c.14.3.28.61.41.91a.4.4,0,0,1,0,.32.43.43,0,0,1-.22.22l-.86.36L124,242l.14,0a.58.58,0,0,1,.18,0,.47.47,0,0,1,.21.23c.11.32.21.64.31,1a.4.4,0,0,1-.28.5l-.93.28.94-.23h.1a.4.4,0,0,1,.39.32c.08.32.15.66.2,1a.4.4,0,0,1-.33.47l-1,.17,1-.12a.41.41,0,0,1,.41.36c0,.33.07.67.08,1a.4.4,0,0,1-.38.43l-1,.06h1a.45.45,0,0,1,.29.12.4.4,0,0,1,.12.29c0,.38,0,.71,0,1a.41.41,0,0,1-.41.39l-1-.06,1,.11a.4.4,0,0,1,.36.45c0,.33-.08.67-.14,1a.41.41,0,0,1-.4.34h-.07l-.94-.17.93.22a.4.4,0,0,1,.3.49c-.07.32-.16.65-.25,1a.43.43,0,0,1-.4.29l-.11,0-.92-.27.9.32a.4.4,0,0,1,.23.21.37.37,0,0,1,0,.31c-.11.32-.23.63-.37.94a.4.4,0,0,1-.22.22.4.4,0,0,1-.15,0,.41.41,0,0,1-.16,0l-.9-.39.87.43a.41.41,0,0,1,.19.55c-.15.3-.3.6-.47.89a.4.4,0,0,1-.56.15l-.84-.48.82.53a.39.39,0,0,1,.17.25.37.37,0,0,1-.05.31c-.18.28-.37.56-.57.83a.42.42,0,0,1-.33.17.43.43,0,0,1-.24-.08l-.78-.57.75.61a.42.42,0,0,1,.14.27.4.4,0,0,1-.09.3c-.21.26-.43.51-.65.76a.41.41,0,0,1-.29.13h0a.39.39,0,0,1-.27-.11l-.71-.65.67.69a.4.4,0,0,1,.12.29.41.41,0,0,1-.13.29c-.24.23-.49.46-.74.67a.37.37,0,0,1-.26.1.41.41,0,0,1-.31-.14l-.62-.71.58.74a.41.41,0,0,1-.08.58c-.26.2-.53.4-.81.58a.4.4,0,0,1-.23.08.43.43,0,0,1-.34-.18l-.53-.79.49.82a.4.4,0,0,1-.14.56c-.28.17-.58.33-.87.49a.43.43,0,0,1-.19,0,.41.41,0,0,1-.36-.21l-.43-.83.38.85a.4.4,0,0,1-.2.54c-.3.14-.61.27-.92.39l-.15,0a.47.47,0,0,1-.16,0,.39.39,0,0,1-.22-.23l-.34-.89.29.91a.41.41,0,0,1-.26.52c-.32.1-.64.2-1,.28H113a.4.4,0,0,1-.39-.3l-.24-.93.19.94a.42.42,0,0,1-.32.48l-1,.17h-.06a.41.41,0,0,1-.24-.08.38.38,0,0,1-.16-.27l-.14-1,.08,1a.4.4,0,0,1-.09.3.39.39,0,0,1-.28.15c-.33,0-.66,0-1,.05ZM96.5,252.71a13.27,13.27,0,0,0,20.72,5.53l-3.37-3.67a8.33,8.33,0,0,1-12.59-3.35Zm22.67,3.6a13.27,13.27,0,0,0-5.49-20.85l-1.5,4.76a8.31,8.31,0,0,1,3.33,12.72ZM103,250.67a6.5,6.5,0,0,0,9.59,2.54l-2.37-2.57a3,3,0,0,1-1.35.32,3.07,3.07,0,0,1-2.52-1.34Zm11.13,1a6.5,6.5,0,0,0-2.52-9.73l-1,3.34a3,3,0,0,1,1.4,2.56,3,3,0,0,1-.39,1.48Zm-5.26-17.14a13.32,13.32,0,0,0-13.31,13.31,13.6,13.6,0,0,0,.18,2.2l4.87-1.09a8.53,8.53,0,0,1-.08-1.11,8.35,8.35,0,0,1,8.34-8.34,9.4,9.4,0,0,1,1,.07l1.08-4.87A12.71,12.71,0,0,0,108.89,234.56Zm0,6.8a6.52,6.52,0,0,0-6.51,6.51,5.78,5.78,0,0,0,.05.71l3.38-.75a3.1,3.1,0,0,1,3-3l.76-3.39A4.68,4.68,0,0,0,108.89,241.36Z" />
    <path d="M108.89,231.7h.49l0,1.46a7,7,0,0,1,.79,0l.12-1.45,1,.11L111,233.3c.26,0,.53.07.78.12l.29-1.41c.32.06.64.14,1,.22l-.37,1.41c.25.07.51.13.76.21l.44-1.38c.31.1.62.22.93.33l-.53,1.36c.24.09.49.2.73.31l.6-1.33c.3.14.59.28.88.44l-.68,1.27.68.4.76-1.25.82.53-.82,1.2c.22.15.42.31.63.47l.89-1.15c.26.19.51.4.76.62l-1,1.09c.2.18.4.35.59.54l1-1.05c.23.23.46.47.68.71l-1.08,1c.18.2.37.38.53.59l1.12-.92c.21.25.41.51.6.77l-1.18.86.45.65,1.22-.79c.17.27.34.55.5.84l-1.26.71c.13.23.25.47.36.7l1.31-.65c.14.3.28.59.41.89l-1.33.56c.1.24.18.5.27.74l1.37-.49q.16.47.3.93l-1.39.41c.08.25.14.51.2.76l1.42-.33c.07.32.13.64.19,1l-1.43.25c0,.26.09.51.12.78L125,246c0,.32.07.65.09,1l-1.46.08c0,.26,0,.52,0,.79h1.44v0c0,.33,0,.66,0,1l-1.45-.09c0,.27,0,.53-.06.79l1.44.16c0,.33-.09.65-.14,1l-1.43-.25c-.05.26-.1.52-.16.78l1.41.32c-.07.32-.15.64-.25.95l-1.38-.41c-.08.25-.17.5-.26.75l1.37.49c-.1.3-.22.61-.35.91l-1.33-.57c-.1.25-.23.48-.34.72l1.3.64q-.21.44-.45.87l-1.27-.72c-.13.23-.27.45-.41.67l1.22.79c-.17.27-.36.54-.55.81l-1.18-.87c-.15.22-.3.43-.47.64l1.12.91c-.21.26-.42.5-.65.74l-1.07-1c-.18.19-.35.39-.54.57l1,1c-.23.23-.48.45-.72.66l-1-1.1-.62.5.89,1.15c-.25.2-.52.39-.79.58l-.81-1.2c-.22.15-.45.28-.67.42l.75,1.25c-.28.16-.56.33-.85.48l-.67-1.29-.71.34.6,1.33-.9.38-.52-1.36c-.25.1-.49.19-.75.27l.45,1.38c-.31.1-.62.19-.94.27l-.36-1.41-.77.2.29,1.41c-.32.06-.65.12-1,.16l-.2-1.44c-.26,0-.52.08-.79.1l.13,1.44c-.33,0-.65.05-1,.05l0-1.45-.38,0-.41,0,0,1.45c-.32,0-.65,0-1-.05l.12-1.44-.78-.1-.21,1.44c-.32-.05-.64-.1-1-.17l.29-1.41c-.26-.05-.51-.13-.77-.19l-.37,1.4c-.31-.08-.63-.17-.94-.27l.46-1.38c-.26-.08-.5-.18-.75-.27L103,263c-.3-.11-.6-.24-.9-.38l.61-1.32c-.24-.11-.48-.22-.71-.35l-.68,1.29-.85-.49.76-1.24c-.23-.14-.46-.27-.67-.42l-.82,1.19c-.27-.18-.53-.38-.79-.58l.89-1.15c-.21-.16-.41-.32-.61-.5l-1,1.1q-.37-.32-.72-.66l1-1c-.19-.18-.36-.38-.54-.57l-1.08,1c-.22-.24-.43-.49-.64-.74l1.13-.92c-.17-.2-.32-.42-.48-.63l-1.18.86c-.19-.26-.37-.53-.55-.81l1.23-.78c-.14-.22-.28-.45-.41-.68l-1.27.72q-.24-.42-.45-.87l1.31-.64c-.12-.23-.24-.46-.35-.71l-1.32.57c-.13-.3-.25-.61-.36-.91l1.38-.49c-.09-.25-.18-.5-.26-.75l-1.39.41c-.09-.31-.17-.63-.24-.95l1.41-.32q-.09-.39-.15-.78l-1.43.25c-.06-.32-.11-.65-.14-1l1.43-.16c0-.26,0-.52,0-.79l-1.45.08c0-.31,0-.62,0-.94v0h1.44c0-.27,0-.53,0-.79L92.74,247c0-.32.05-.65.09-1l1.43.16c0-.26.08-.52.12-.78L93,245.14c0-.32.12-.65.19-1l1.42.33c.06-.26.12-.52.2-.77l-1.4-.4c.1-.32.2-.63.31-.93l1.37.49c.09-.25.17-.5.27-.75L94,241.59c.13-.3.27-.6.41-.89l1.31.65c.11-.24.23-.47.36-.7l-1.26-.72c.16-.28.33-.56.5-.83l1.23.79a7.49,7.49,0,0,1,.45-.65l-1.18-.86q.28-.39.6-.78l1.11.92c.17-.2.35-.39.53-.59L97,237a9,9,0,0,1,.68-.7l1,1c.19-.18.38-.36.58-.53l-.95-1.1c.24-.21.5-.42.75-.62l.89,1.16c.21-.16.42-.33.64-.48l-.82-1.19c.26-.18.54-.36.82-.53l.75,1.25.68-.4-.68-1.28.88-.43.6,1.33.73-.31L103,232.8l.92-.32.45,1.37c.25-.08.5-.14.76-.21l-.37-1.41c.31-.08.63-.16.95-.22l.28,1.41.78-.12-.2-1.44,1-.11.12,1.45a6.85,6.85,0,0,1,.79,0l0-1.46h.49M95.44,250.56l5.66-1.26a7.54,7.54,0,0,1-.14-1.43,7.94,7.94,0,0,1,7.93-7.93,8.37,8.37,0,0,1,1.35.12l1.27-5.66a14.11,14.11,0,0,0-2.62-.25,13.74,13.74,0,0,0-13.72,13.72,13.27,13.27,0,0,0,.27,2.69m23.77,6.34a13.68,13.68,0,0,0-5.8-22l-1.73,5.52A7.92,7.92,0,0,1,115,253l4.26,3.91m-17.12-7.82,4.16-.93a2.4,2.4,0,0,1,0-.28,2.68,2.68,0,0,1,2.67-2.67l.21,0,.92-4.17a6.9,6.9,0,0,0-7.93,8m12.11,3.22a6.84,6.84,0,0,0,1.61-4.43,6.91,6.91,0,0,0-4.44-6.45l-1.28,4.08a2.64,2.64,0,0,1,1.48,2.37,2.68,2.68,0,0,1-.5,1.55l3.13,2.88m-5.31,2.49a6.86,6.86,0,0,0,4.32-1.52l-2.88-3.15a2.63,2.63,0,0,1-3.78-1l-4.08,1.28a6.92,6.92,0,0,0,6.42,4.38m0,6.81a13.7,13.7,0,0,0,8.93-3.32L113.9,254a7.92,7.92,0,0,1-12.4-3.3L96,252.45a13.74,13.74,0,0,0,12.92,9.15m0-30.72h-.51a.78.78,0,0,0-.45.15.77.77,0,0,0-.39-.11h-.07l-1,.11a.9.9,0,0,0-.43.2.81.81,0,0,0-.31-.06l-.16,0c-.34.07-.67.14-1,.23a.83.83,0,0,0-.41.25.78.78,0,0,0-.22,0,.73.73,0,0,0-.25,0c-.33.1-.65.22-1,.34a.84.84,0,0,0-.37.3l-.13,0a.81.81,0,0,0-.34.08c-.31.14-.62.29-.92.45a.9.9,0,0,0-.34.33h0a.79.79,0,0,0-.42.12c-.3.18-.59.36-.87.56a.82.82,0,0,0-.29.37.79.79,0,0,0-.44.16c-.28.21-.54.43-.8.65a.85.85,0,0,0-.25.4.82.82,0,0,0-.42.22c-.25.24-.49.48-.72.74a.75.75,0,0,0-.2.42.9.9,0,0,0-.4.26c-.21.27-.43.54-.63.82a.9.9,0,0,1-.51.75c-.19.29-.37.58-.53.88a.95.95,0,0,1-.43.81c-.15.31-.3.62-.43.94a.76.76,0,0,0,0,.47.72.72,0,0,0-.28.38c-.12.32-.23.65-.32,1a.84.84,0,0,0,0,.47.8.8,0,0,0-.23.41c-.08.33-.15.67-.21,1a.83.83,0,0,0,.06.47.84.84,0,0,0-.19.43c0,.34-.06.68-.08,1a.79.79,0,0,0,.11.46.82.82,0,0,0-.14.45c0,.37,0,.7,0,1a.87.87,0,0,0,.16.45.78.78,0,0,0-.08.46c0,.34.08.68.14,1a.8.8,0,0,0,.21.42.84.84,0,0,0,0,.47c.08.34.16.67.26,1a.88.88,0,0,1,.28.87c.12.32.24.64.37.95a.87.87,0,0,0,.31.37.83.83,0,0,0,.07.46c.15.31.31.62.48.91a.77.77,0,0,0,.34.33.84.84,0,0,0,.13.45c.19.29.38.58.58.85a.83.83,0,0,0,.38.29.75.75,0,0,0,.18.43c.21.27.44.53.67.78a.82.82,0,0,0,.41.24A.84.84,0,0,0,97,260c.24.23.49.47.75.69a.83.83,0,0,0,.43.19.77.77,0,0,0,.28.39c.27.21.55.41.83.61a.82.82,0,0,0,.45.14.77.77,0,0,0,.32.35c.29.18.59.35.89.51a.85.85,0,0,0,.38.09h.09a.71.71,0,0,0,.35.31c.31.15.63.28.95.41a.93.93,0,0,0,.29,0,.55.55,0,0,0,.18,0,.85.85,0,0,0,.39.28l1,.29.2,0a.77.77,0,0,0,.27,0,.78.78,0,0,0,.42.22c.33.07.67.13,1,.18h.11a.86.86,0,0,0,.36-.08.82.82,0,0,0,.44.17c.33,0,.68.05,1,.06h0a.83.83,0,0,0,.44-.12.82.82,0,0,0,.43.12h0l1-.05a.9.9,0,0,0,.44-.18.85.85,0,0,0,.35.08h.11c.34,0,.68-.1,1-.17a.78.78,0,0,0,.41-.22.84.84,0,0,0,.27,0l.21,0c.33-.08.66-.18,1-.28a.86.86,0,0,0,.39-.27l.18,0a.8.8,0,0,0,.3-.06c.31-.12.63-.26.94-.4a.9.9,0,0,0,.36-.31h.08a.85.85,0,0,0,.38-.09l.89-.5a.86.86,0,0,0,.32-.36.75.75,0,0,0,.45-.14c.28-.19.56-.39.83-.6a.79.79,0,0,0,.28-.38.85.85,0,0,0,.43-.2c.26-.22.51-.45.76-.69a.93.93,0,0,0,.23-.41.91.91,0,0,0,.41-.24c.23-.25.45-.51.67-.78a.74.74,0,0,0,.18-.43.83.83,0,0,0,.38-.29c.2-.27.4-.56.58-.85a.84.84,0,0,0,.13-.45.8.8,0,0,0,.35-.33c.17-.3.33-.6.48-.91a.94.94,0,0,1,.38-.83c.13-.31.26-.64.38-1a.9.9,0,0,1,.28-.87c.1-.32.18-.66.26-1a.75.75,0,0,0,0-.47.83.83,0,0,0,.21-.43c.06-.33.11-.67.15-1a.83.83,0,0,0-.08-.47.81.81,0,0,0,.16-.44c0-.34,0-.69,0-1a.85.85,0,0,0-.15-.48.77.77,0,0,0,.12-.47c0-.34,0-.68-.08-1a.9.9,0,0,1-.13-.91c-.06-.33-.13-.67-.21-1a.8.8,0,0,0-.23-.41.87.87,0,0,0,0-.48c-.1-.32-.2-.65-.32-1a.74.74,0,0,0-.28-.37.87.87,0,0,0,0-.48c-.13-.31-.28-.62-.43-.93a.76.76,0,0,0-.32-.34.82.82,0,0,0-.1-.46c-.17-.3-.35-.6-.53-.88a.85.85,0,0,0-.37-.31.83.83,0,0,0-.15-.45q-.3-.41-.63-.81a.87.87,0,0,0-.39-.26.79.79,0,0,0-.21-.43c-.23-.25-.47-.5-.71-.73a.78.78,0,0,0-.42-.22.85.85,0,0,0-.25-.4l-.8-.65a.8.8,0,0,0-.44-.17.78.78,0,0,0-.3-.37l-.86-.56a.8.8,0,0,0-.42-.11h0a.86.86,0,0,0-.34-.34c-.3-.16-.61-.31-.92-.45a.83.83,0,0,0-.34-.07h-.13a.78.78,0,0,0-.37-.3c-.32-.12-.65-.24-1-.34a.78.78,0,0,0-.26,0,.83.83,0,0,0-.22,0,.76.76,0,0,0-.4-.25c-.33-.09-.67-.17-1-.23l-.16,0a.78.78,0,0,0-.31.06,1,1,0,0,0-.43-.2c-.34-.05-.68-.08-1-.11h-.07a.8.8,0,0,0-.4.11.72.72,0,0,0-.45-.15ZM96.1,249.57a12,12,0,0,1-.11-1.7,12.85,12.85,0,0,1,14.53-12.8l-.91,4.09a5.79,5.79,0,0,0-.72,0,8.77,8.77,0,0,0-8.75,8.75c0,.26,0,.53,0,.79l-4.08.91ZM112.68,240l1.25-4a12.87,12.87,0,0,1,5.2,19.71l-3.08-2.82a8.73,8.73,0,0,0-3.37-12.9Zm-9.88,8.09c0-.07,0-.14,0-.21a6.11,6.11,0,0,1,6.1-6.1H109l-.59,2.64a3.51,3.51,0,0,0-3,3.09l-2.62.58Zm8.26-2.93.81-2.59a6.07,6.07,0,0,1,2.21,8.52l-2-1.82a3.5,3.5,0,0,0,.29-1.39,3.45,3.45,0,0,0-1.33-2.72Zm-7.45,5.76,2.6-.82a3.48,3.48,0,0,0,2.68,1.27,3.55,3.55,0,0,0,1.25-.23l1.84,2a6,6,0,0,1-3.09.84,6.05,6.05,0,0,1-5.28-3.06ZM97.05,253l4-1.25a8.74,8.74,0,0,0,12.76,3.39l2.82,3.08A12.86,12.86,0,0,1,97.05,253Z" />
    <path class="GUNDAN_GUNDAN_WEAPONS_WARRIOR_16_e" d="M304.91,264.45a.41.41,0,0,1-.41-.4l0-.95,0,.95a.43.43,0,0,1-.12.29.44.44,0,0,1-.29.11h0c-.33,0-.67,0-1-.06a.38.38,0,0,1-.28-.14.4.4,0,0,1-.09-.3l.08-.95-.13.95a.45.45,0,0,1-.16.27.44.44,0,0,1-.25.08h-.05c-.33,0-.67-.1-1-.17a.4.4,0,0,1-.32-.48l.19-.95-.24.94a.41.41,0,0,1-.4.3h-.1c-.32-.08-.65-.18-1-.28a.41.41,0,0,1-.26-.52l.3-.94-.35.92a.41.41,0,0,1-.22.23.47.47,0,0,1-.17,0l-.14,0c-.32-.13-.63-.26-.93-.4a.37.37,0,0,1-.21-.23.42.42,0,0,1,0-.31l.41-.89-.46.87a.4.4,0,0,1-.36.22.45.45,0,0,1-.19-.05c-.29-.16-.59-.32-.87-.5a.41.41,0,0,1-.14-.56l.51-.83-.55.8a.41.41,0,0,1-.27.17h-.07a.48.48,0,0,1-.23-.07c-.28-.19-.55-.39-.81-.59a.45.45,0,0,1-.16-.27.44.44,0,0,1,.09-.31l.59-.76-.63.73a.44.44,0,0,1-.28.14h0a.38.38,0,0,1-.27-.1c-.25-.22-.5-.44-.74-.68a.41.41,0,0,1,0-.58l.66-.68-.7.65a.41.41,0,0,1-.28.11h0a.47.47,0,0,1-.29-.14c-.22-.24-.44-.5-.65-.75a.43.43,0,0,1-.09-.3.39.39,0,0,1,.15-.28l.73-.6-.77.56a.41.41,0,0,1-.24.08.42.42,0,0,1-.33-.17c-.19-.27-.38-.55-.56-.83a.4.4,0,0,1,.12-.56l.8-.51-.82.46a.42.42,0,0,1-.21.06l-.11,0a.41.41,0,0,1-.24-.19c-.17-.29-.32-.59-.47-.89a.4.4,0,0,1,.19-.54l.83-.41-.85.36a.45.45,0,0,1-.16,0,.42.42,0,0,1-.38-.24c-.13-.31-.25-.62-.36-.94a.39.39,0,0,1,.25-.52l.9-.32-.92.27-.11,0a.43.43,0,0,1-.4-.3c-.09-.32-.18-.64-.25-1a.39.39,0,0,1,.05-.31.44.44,0,0,1,.26-.18l.92-.21-.93.16h-.07a.42.42,0,0,1-.41-.34c0-.33-.1-.66-.14-1a.44.44,0,0,1,.09-.31.49.49,0,0,1,.27-.15l.95-.1-1,.05a.42.42,0,0,1-.28-.1.37.37,0,0,1-.13-.28c0-.32,0-.65,0-1a.45.45,0,0,1,.12-.31.46.46,0,0,1,.29-.13h.95l-.95-.05a.42.42,0,0,1-.28-.14.38.38,0,0,1-.1-.29c0-.34,0-.67.08-1a.39.39,0,0,1,.15-.27.41.41,0,0,1,.26-.09l1,.11-.94-.16a.39.39,0,0,1-.26-.17.37.37,0,0,1-.07-.3c.05-.33.12-.66.19-1a.43.43,0,0,1,.19-.25.39.39,0,0,1,.21-.06h.1l.92.21-.91-.26a.44.44,0,0,1-.25-.2.42.42,0,0,1,0-.31c.1-.32.2-.64.31-.95a.42.42,0,0,1,.21-.24.57.57,0,0,1,.18,0,.36.36,0,0,1,.14,0l.93.34-.92-.39a.43.43,0,0,1-.22-.22.4.4,0,0,1,0-.32c.13-.3.27-.61.41-.91a.43.43,0,0,1,.37-.23.41.41,0,0,1,.18.05l.88.43-.85-.48a.41.41,0,0,1-.16-.56c.17-.29.34-.58.52-.86a.44.44,0,0,1,.26-.18h.09a.46.46,0,0,1,.22.06l.81.53-.78-.57a.4.4,0,0,1-.09-.57c.19-.27.4-.54.61-.8a.42.42,0,0,1,.28-.14h0a.39.39,0,0,1,.25.1l.75.61-.71-.65a.41.41,0,0,1,0-.58l.7-.72a.44.44,0,0,1,.29-.11.42.42,0,0,1,.29.12l.67.69-.63-.72a.41.41,0,0,1-.1-.3.42.42,0,0,1,.14-.28c.25-.22.51-.43.77-.63a.41.41,0,0,1,.58.07l.57.75-.53-.78a.41.41,0,0,1-.07-.3.42.42,0,0,1,.18-.27c.27-.18.55-.37.84-.54a.37.37,0,0,1,.21-.06h.1a.47.47,0,0,1,.25.19l.49.81-.45-.83a.42.42,0,0,1,.17-.56l.9-.44a.53.53,0,0,1,.17,0,.4.4,0,0,1,.37.24l.39.85-.34-.87a.41.41,0,0,1,.23-.53c.31-.12.63-.23.95-.33a.25.25,0,0,1,.12,0,.42.42,0,0,1,.39.28l.29.91-.24-.92a.45.45,0,0,1,0-.32.41.41,0,0,1,.25-.18c.32-.09.65-.17,1-.23h.08a.4.4,0,0,1,.4.33l.19.95-.14-1a.41.41,0,0,1,.35-.46c.33-.05.66-.09,1-.11h0a.4.4,0,0,1,.4.38l.08.94,0-.94a.38.38,0,0,1,.11-.3.41.41,0,0,1,.28-.13h1a.46.46,0,0,1,.29.13.46.46,0,0,1,.11.3l0,1,.08-1a.42.42,0,0,1,.14-.28.45.45,0,0,1,.27-.1h0c.33,0,.67.06,1,.11a.38.38,0,0,1,.27.16.44.44,0,0,1,.08.3l-.14,1,.19-.94a.42.42,0,0,1,.4-.33h.08c.32.06.65.14,1,.22a.41.41,0,0,1,.25.19.43.43,0,0,1,0,.31l-.25.94.3-.92a.4.4,0,0,1,.38-.28.27.27,0,0,1,.13,0c.32.1.64.21,1,.33a.41.41,0,0,1,.23.53l-.36.92.41-.9a.4.4,0,0,1,.23-.21.32.32,0,0,1,.14,0,.47.47,0,0,1,.17,0l.9.44a.41.41,0,0,1,.17.56l-.45.86.5-.84a.36.36,0,0,1,.25-.18h.1a.54.54,0,0,1,.21.05c.28.18.57.36.84.55a.41.41,0,0,1,.11.57l-.55.79.59-.76a.39.39,0,0,1,.32-.16.38.38,0,0,1,.25.08c.27.21.53.42.78.64a.41.41,0,0,1,0,.58l-.63.72.67-.69a.41.41,0,0,1,.28-.13h0a.45.45,0,0,1,.29.12c.23.23.47.47.69.72a.42.42,0,0,1,0,.58l-.7.64.73-.61a.41.41,0,0,1,.26-.09h0a.43.43,0,0,1,.28.15c.21.26.41.53.61.79a.43.43,0,0,1-.09.58l-.77.55.8-.51a.34.34,0,0,1,.22-.07h.08a.4.4,0,0,1,.26.18c.18.28.36.57.52.86a.4.4,0,0,1-.16.55l-.81.46.84-.41a.39.39,0,0,1,.18,0,.3.3,0,0,1,.13,0,.43.43,0,0,1,.24.2c.14.3.28.61.41.91a.4.4,0,0,1-.21.54l-.85.36.86-.31.14,0a.42.42,0,0,1,.39.27c.11.32.21.64.31,1a.4.4,0,0,1-.28.5l-.93.28.94-.23h.1a.4.4,0,0,1,.21.07.38.38,0,0,1,.18.25c.08.32.15.65.2,1a.38.38,0,0,1-.07.31.35.35,0,0,1-.26.16l-.94.17,1-.12a.39.39,0,0,1,.26.09.43.43,0,0,1,.15.27c0,.33.07.67.08,1a.41.41,0,0,1-.1.3.37.37,0,0,1-.28.13l-1,.06h1a.45.45,0,0,1,.29.12.4.4,0,0,1,.12.29c0,.38,0,.71,0,1a.41.41,0,0,1-.41.39l-1-.06,1,.11a.43.43,0,0,1,.28.15.37.37,0,0,1,.08.3c0,.33-.08.67-.14,1a.41.41,0,0,1-.17.27.39.39,0,0,1-.23.07h-.07l-.94-.17.93.22a.4.4,0,0,1,.3.49c-.07.32-.16.65-.25,1a.43.43,0,0,1-.4.29l-.11,0-.92-.27.9.32a.4.4,0,0,1,.23.21.37.37,0,0,1,0,.31c-.11.32-.23.63-.37.94a.4.4,0,0,1-.22.22.4.4,0,0,1-.15,0,.41.41,0,0,1-.16,0l-.9-.39.88.43a.41.41,0,0,1,.18.55c-.15.3-.3.6-.47.89a.4.4,0,0,1-.56.15l-.85-.48.83.53a.39.39,0,0,1,.17.25.37.37,0,0,1-.05.31c-.18.28-.37.56-.57.83a.4.4,0,0,1-.27.16h-.06a.41.41,0,0,1-.24-.08l-.78-.58.75.62a.4.4,0,0,1,.05.57c-.21.26-.43.51-.65.76a.41.41,0,0,1-.29.13h0a.39.39,0,0,1-.27-.11l-.71-.65.67.69a.4.4,0,0,1,.12.29.41.41,0,0,1-.13.29,9.51,9.51,0,0,1-.74.67.37.37,0,0,1-.26.1.41.41,0,0,1-.31-.14l-.63-.72.59.75a.47.47,0,0,1,.08.3.4.4,0,0,1-.16.28c-.26.2-.53.4-.81.58a.36.36,0,0,1-.23.08h-.07a.39.39,0,0,1-.26-.17l-.54-.8.49.82a.41.41,0,0,1-.14.57c-.28.17-.58.33-.87.49a.41.41,0,0,1-.19,0h-.12a.48.48,0,0,1-.24-.2l-.44-.84.39.86a.39.39,0,0,1-.2.54c-.3.14-.61.27-.92.39l-.15,0a.42.42,0,0,1-.16,0,.39.39,0,0,1-.22-.23l-.34-.88.29.9a.41.41,0,0,1-.26.52c-.32.1-.64.2-1,.28h-.1a.4.4,0,0,1-.39-.3l-.24-.92.19.93a.42.42,0,0,1-.32.48l-1,.17h-.06a.4.4,0,0,1-.4-.35l-.14-.94.08.94a.4.4,0,0,1-.09.3.39.39,0,0,1-.28.15c-.33,0-.66,0-1,.05Zm-12.8-11.74a13.27,13.27,0,0,0,20.72,5.53l-3.38-3.67a8.33,8.33,0,0,1-4.95,1.64,8.42,8.42,0,0,1-7.64-5Zm22.66,3.6a13.27,13.27,0,0,0-5.49-20.85l-1.5,4.76a8.31,8.31,0,0,1,3.33,12.72Zm-16.15-5.64a6.48,6.48,0,0,0,5.88,3.71,6.41,6.41,0,0,0,3.71-1.17l-2.37-2.57a3,3,0,0,1-1.34.32,3.07,3.07,0,0,1-2.53-1.34Zm11.13,1a6.5,6.5,0,0,0-2.52-9.73l-1.05,3.34a3.05,3.05,0,0,1,1,4Zm-5.25-17.14a13.33,13.33,0,0,0-13.32,13.31,13.6,13.6,0,0,0,.18,2.2l4.87-1.09a8.53,8.53,0,0,1-.08-1.11,8.36,8.36,0,0,1,8.35-8.34,9.38,9.38,0,0,1,1,.07l1.08-4.87A12.68,12.68,0,0,0,304.5,234.56Zm0,6.8a6.52,6.52,0,0,0-6.51,6.51,5.74,5.74,0,0,0,0,.71l3.38-.75a3.1,3.1,0,0,1,3-3l.76-3.39A4.64,4.64,0,0,0,304.5,241.36Z" />
    <path d="M304.49,231.7H305l0,1.46a7,7,0,0,1,.79,0l.12-1.45,1,.11-.21,1.44c.26,0,.53.07.79.12l.28-1.41c.32.06.64.14.95.22l-.37,1.41c.25.07.51.13.76.21l.44-1.38c.31.1.63.22.93.33l-.53,1.36c.25.09.49.2.73.31l.6-1.33c.3.14.59.28.88.44l-.68,1.27.68.4.76-1.25.82.53-.82,1.2c.22.15.42.31.63.47l.89-1.15c.26.19.51.4.76.62l-1,1.09c.2.18.4.35.59.54l1-1.05c.23.23.46.47.68.71l-1.08,1c.18.2.37.38.53.59l1.12-.92c.21.25.41.51.6.77l-1.18.86.45.65,1.22-.79c.17.27.34.55.5.84l-1.26.71c.13.23.25.47.36.7l1.31-.65c.14.3.28.59.41.89l-1.33.56c.1.24.18.5.27.74l1.37-.49q.16.47.3.93l-1.39.41c.08.25.14.51.2.76l1.42-.33c.07.32.13.64.19,1l-1.43.25c0,.26.09.51.12.78l1.43-.17c0,.32.07.65.09,1l-1.46.08c0,.26,0,.52,0,.79h1.44v0c0,.33,0,.66,0,1l-1.45-.09c0,.27,0,.53-.06.79l1.44.16c0,.33-.09.65-.14,1l-1.43-.25c-.05.26-.1.52-.16.78l1.41.32c-.07.32-.15.64-.25.95l-1.38-.41c-.08.25-.17.5-.26.75l1.38.49c-.11.3-.23.61-.36.91l-1.33-.57c-.1.25-.23.48-.34.72l1.3.64q-.21.44-.45.87l-1.27-.72c-.13.23-.27.45-.41.67l1.22.79c-.17.27-.36.54-.55.81l-1.18-.87c-.15.22-.3.43-.47.64l1.12.91c-.21.26-.42.5-.65.74l-1.07-1c-.18.19-.35.39-.54.57l1,1c-.23.23-.48.45-.72.66l-.95-1.1-.62.5.89,1.15c-.25.2-.52.39-.79.58l-.81-1.2c-.22.15-.45.28-.67.42l.75,1.25c-.28.16-.56.33-.85.48l-.67-1.29-.71.34.6,1.33-.9.38-.52-1.36c-.25.1-.49.19-.75.27l.45,1.38c-.31.1-.62.19-.94.27l-.36-1.41-.77.2.29,1.41c-.32.06-.65.12-1,.16l-.2-1.44c-.26,0-.52.08-.79.1l.13,1.44c-.32,0-.65.05-1,.05l0-1.45-.37,0-.42,0,0,1.45c-.32,0-.65,0-1-.05l.12-1.44-.78-.1-.21,1.44c-.32-.05-.64-.1-1-.17l.29-1.41c-.26-.05-.51-.13-.77-.19l-.37,1.4c-.31-.08-.63-.17-.93-.27l.45-1.38c-.26-.08-.5-.18-.75-.27l-.53,1.35c-.3-.11-.6-.24-.9-.38l.61-1.32c-.24-.11-.48-.22-.71-.35l-.68,1.29-.85-.49.76-1.24c-.23-.14-.46-.27-.67-.42l-.82,1.19c-.27-.18-.53-.38-.79-.58l.89-1.15c-.21-.16-.41-.32-.61-.5l-.95,1.1q-.37-.32-.72-.66l1-1c-.19-.18-.36-.38-.54-.57l-1.08,1c-.22-.24-.43-.49-.64-.74l1.13-.92c-.17-.2-.32-.42-.48-.63l-1.18.86c-.19-.26-.37-.53-.55-.81l1.23-.78c-.14-.22-.28-.45-.41-.68l-1.27.72q-.24-.42-.45-.87l1.31-.64c-.12-.23-.24-.46-.35-.71l-1.32.57c-.13-.3-.25-.61-.36-.91l1.38-.49c-.09-.25-.18-.5-.26-.75l-1.38.41c-.1-.31-.18-.63-.25-.95l1.41-.32q-.09-.39-.15-.78l-1.43.25c-.06-.32-.11-.65-.14-1l1.43-.16c0-.26,0-.52-.05-.79l-1.45.08c0-.31,0-.62,0-.94v0h1.44c0-.27,0-.53,0-.79l-1.46-.08c0-.32.05-.65.09-1l1.43.16c0-.26.08-.52.12-.78l-1.43-.24c.05-.32.12-.65.19-1l1.42.33c.06-.26.12-.52.2-.77l-1.4-.4c.1-.32.2-.63.31-.93l1.37.49c.09-.25.17-.5.27-.75l-1.33-.56c.13-.3.27-.6.41-.89l1.31.65c.12-.24.23-.47.36-.7l-1.26-.72c.16-.28.33-.56.51-.83l1.22.79a7.49,7.49,0,0,1,.45-.65l-1.18-.86q.28-.39.6-.78l1.11.92c.17-.2.35-.39.53-.59l-1.07-1a9,9,0,0,1,.68-.7l1,1c.19-.18.38-.36.58-.53l-.95-1.1c.24-.21.5-.42.75-.62l.89,1.16c.21-.16.42-.33.64-.48l-.82-1.19c.26-.18.54-.36.82-.53l.75,1.25.68-.4-.68-1.28.88-.43.6,1.33.73-.31-.53-1.36.92-.32.45,1.37c.25-.08.5-.14.76-.21l-.37-1.41c.31-.08.63-.16.95-.22l.28,1.41.78-.12-.2-1.44,1-.11.12,1.45a6.85,6.85,0,0,1,.79,0L304,231.7h.49M291,250.56l5.66-1.26a7.54,7.54,0,0,1-.14-1.43,7.94,7.94,0,0,1,7.94-7.93,8.58,8.58,0,0,1,1.35.12l1.26-5.66a14.08,14.08,0,0,0-2.61-.25,13.74,13.74,0,0,0-13.73,13.72,13.27,13.27,0,0,0,.27,2.69m23.77,6.34a13.68,13.68,0,0,0-5.8-22l-1.73,5.52A7.92,7.92,0,0,1,310.55,253l4.26,3.91m-17.12-7.82,4.16-.93a2.4,2.4,0,0,1,0-.28,2.68,2.68,0,0,1,2.68-2.67l.2,0,.92-4.17a6.86,6.86,0,0,0-1.12-.1,6.9,6.9,0,0,0-6.81,8.13m12.11,3.22a6.84,6.84,0,0,0,1.61-4.43,6.91,6.91,0,0,0-4.44-6.45l-1.28,4.08a2.64,2.64,0,0,1,1.48,2.37,2.68,2.68,0,0,1-.5,1.55l3.13,2.88m-5.3,2.49a6.85,6.85,0,0,0,4.31-1.52l-2.88-3.15a2.64,2.64,0,0,1-1.43.43,2.67,2.67,0,0,1-2.35-1.42l-4.08,1.28a6.92,6.92,0,0,0,6.43,4.38m0,6.81a13.69,13.69,0,0,0,8.92-3.32L309.5,254a7.92,7.92,0,0,1-12.4-3.3l-5.53,1.73a13.74,13.74,0,0,0,12.93,9.15m0-30.72H304a.78.78,0,0,0-.45.15.77.77,0,0,0-.39-.11h-.07l-1,.11a.9.9,0,0,0-.43.2.81.81,0,0,0-.31-.06l-.16,0c-.34.07-.67.14-1,.23a.83.83,0,0,0-.41.25.78.78,0,0,0-.22,0,.73.73,0,0,0-.25,0c-.33.1-.65.22-1,.34a.84.84,0,0,0-.37.3l-.13,0a.84.84,0,0,0-.34.08c-.31.14-.62.29-.92.45a.9.9,0,0,0-.34.33h0a.79.79,0,0,0-.42.12c-.3.18-.59.36-.87.56a.82.82,0,0,0-.29.37.79.79,0,0,0-.44.16l-.8.65a.85.85,0,0,0-.25.4.82.82,0,0,0-.42.22c-.25.24-.49.48-.72.74a.75.75,0,0,0-.2.42.9.9,0,0,0-.4.26c-.21.27-.42.54-.62.82a.82.82,0,0,0-.16.44.89.89,0,0,0-.36.31c-.19.29-.37.58-.53.88a.78.78,0,0,0-.11.46.84.84,0,0,0-.32.35c-.15.31-.3.62-.43.94a.76.76,0,0,0-.05.47.72.72,0,0,0-.28.38c-.12.32-.23.65-.32,1a.84.84,0,0,0,0,.47.8.8,0,0,0-.23.41c-.08.33-.15.67-.21,1a.93.93,0,0,0,.06.47.84.84,0,0,0-.19.43c0,.34-.06.68-.08,1a.79.79,0,0,0,.11.46.82.82,0,0,0-.14.45c0,.37,0,.7,0,1a.87.87,0,0,0,.16.45.81.81,0,0,0-.08.46c0,.34.08.68.14,1a.8.8,0,0,0,.21.42.84.84,0,0,0,0,.47c.08.34.16.67.26,1a.88.88,0,0,1,.28.87c.12.32.24.64.37.95a.87.87,0,0,0,.31.37.83.83,0,0,0,.07.46c.15.31.31.62.48.91a.92.92,0,0,1,.47.78c.19.29.38.58.58.85a.83.83,0,0,0,.38.29.75.75,0,0,0,.18.43c.21.27.44.53.67.78a.82.82,0,0,0,.41.24.84.84,0,0,0,.23.42c.24.23.49.47.75.69a.83.83,0,0,0,.43.19.79.79,0,0,0,.28.39c.27.21.55.41.83.61a.8.8,0,0,0,.45.14.83.83,0,0,0,.32.35c.29.18.59.35.89.51a.85.85,0,0,0,.38.09H297a.81.81,0,0,0,.35.31c.31.15.63.28.95.41a.93.93,0,0,0,.29,0,.55.55,0,0,0,.18,0,.91.91,0,0,0,.39.28l1,.29.2,0a.77.77,0,0,0,.27,0,.78.78,0,0,0,.42.22c.33.07.67.13,1,.18h.11a.86.86,0,0,0,.36-.08.82.82,0,0,0,.44.17c.33,0,.68.05,1,.06h0a.83.83,0,0,0,.44-.12.82.82,0,0,0,.43.12h0l1-.05a.9.9,0,0,0,.44-.18.85.85,0,0,0,.35.08h.11c.34,0,.68-.1,1-.17a.78.78,0,0,0,.41-.22.84.84,0,0,0,.27,0l.21,0c.33-.08.66-.18,1-.28a.86.86,0,0,0,.39-.27l.18,0a.8.8,0,0,0,.3-.06c.31-.12.63-.26.94-.4a.83.83,0,0,0,.36-.31H312a.85.85,0,0,0,.38-.09l.89-.5a.89.89,0,0,1,.77-.5c.28-.19.56-.39.83-.6a.79.79,0,0,0,.28-.38.85.85,0,0,0,.43-.2c.26-.22.51-.45.76-.69a.93.93,0,0,0,.23-.41.86.86,0,0,0,.41-.24c.23-.25.45-.51.67-.78a.74.74,0,0,0,.18-.43.83.83,0,0,0,.38-.29c.2-.27.4-.56.58-.85a.84.84,0,0,0,.13-.45.8.8,0,0,0,.35-.33c.17-.3.33-.6.48-.91a.94.94,0,0,1,.38-.83c.13-.31.26-.64.38-1a.9.9,0,0,1,.28-.87c.1-.32.18-.66.26-1a.75.75,0,0,0,0-.47.83.83,0,0,0,.21-.43c.06-.33.11-.67.15-1a.84.84,0,0,0-.08-.47.81.81,0,0,0,.16-.44c0-.34,0-.69,0-1a.85.85,0,0,0-.15-.48.77.77,0,0,0,.12-.47c0-.34,0-.68-.08-1a.9.9,0,0,1-.13-.91c-.06-.33-.13-.67-.21-1a.8.8,0,0,0-.23-.41.87.87,0,0,0,0-.48c-.1-.32-.2-.65-.32-1a.74.74,0,0,0-.28-.37.87.87,0,0,0,0-.48c-.13-.31-.28-.62-.43-.93a.76.76,0,0,0-.32-.34.82.82,0,0,0-.1-.46c-.17-.3-.35-.6-.53-.88a.88.88,0,0,0-.36-.31.85.85,0,0,0-.16-.45q-.3-.41-.63-.81a.91.91,0,0,1-.6-.69c-.23-.25-.47-.5-.71-.73a.82.82,0,0,0-.42-.22.85.85,0,0,0-.25-.4l-.8-.65a.8.8,0,0,0-.44-.17.88.88,0,0,0-.3-.37l-.86-.56a.8.8,0,0,0-.42-.11h0a.86.86,0,0,0-.34-.34c-.3-.16-.61-.31-.92-.45a.83.83,0,0,0-.34-.07h-.13a.78.78,0,0,0-.37-.3c-.32-.12-.65-.24-1-.34a.78.78,0,0,0-.26,0,.83.83,0,0,0-.22,0,.76.76,0,0,0-.4-.25c-.33-.09-.67-.17-1-.23l-.16,0a.78.78,0,0,0-.31.06,1,1,0,0,0-.43-.2c-.34-.05-.68-.08-1-.11h-.07a.8.8,0,0,0-.4.11.71.71,0,0,0-.44-.15ZM291.7,249.57a13.73,13.73,0,0,1-.11-1.7,12.85,12.85,0,0,1,14.53-12.8l-.91,4.09a5.74,5.74,0,0,0-.71,0,8.76,8.76,0,0,0-8.75,8.75c0,.26,0,.53,0,.79l-4.08.91ZM308.28,240l1.25-4a12.87,12.87,0,0,1,5.2,19.71l-3.07-2.82a8.73,8.73,0,0,0-3.38-12.9Zm-9.88,8.09c0-.07,0-.14,0-.21a6.11,6.11,0,0,1,6.11-6.1h.13l-.59,2.64a3.51,3.51,0,0,0-3,3.09l-2.62.58Zm8.26-2.93.81-2.59a6.07,6.07,0,0,1,2.21,8.52l-2-1.82a3.5,3.5,0,0,0,.29-1.39,3.45,3.45,0,0,0-1.33-2.72Zm-7.45,5.76,2.6-.82a3.48,3.48,0,0,0,2.69,1.27,3.54,3.54,0,0,0,1.24-.23l1.84,2a5.94,5.94,0,0,1-3.08.84,6.05,6.05,0,0,1-5.29-3.06ZM292.65,253l4-1.25a8.73,8.73,0,0,0,12.75,3.39l2.82,3.08A12.86,12.86,0,0,1,292.65,253Z" />
    <path class="GUNDAN_GUNDAN_WEAPONS_WARRIOR_16_b" d="M320.35,340.73C310.1,381.1,288,430.52,206.69,483.41,125.38,430.52,103.28,381.1,93,340.73a22.45,22.45,0,0,1-15.23,5.94,22.72,22.72,0,0,1-6.21-.87c9.77,27.08,24.48,52.63,42,75.5,26.41,34.45,59,63.54,93.09,90.54,34.11-27,66.7-56.07,93.1-90.54,17.54-22.87,32.25-48.42,42-75.5a22.52,22.52,0,0,1-21.44-5.07Z" />
    <path class="GUNDAN_GUNDAN_WEAPONS_WARRIOR_16_b" d="M341.82,288.73a189.81,189.81,0,0,0-.47-44.69h0a193.7,193.7,0,0,0-28.26-78.89c-.94-.45-1.87-.9-2.79-1.36q-13.92-6.89-27.18-15a347.82,347.82,0,0,1-76.43-63.37,348.06,348.06,0,0,1-76.43,63.37q-13.24,8.13-27.19,15c-.91.46-1.85.91-2.78,1.36A193.86,193.86,0,0,0,72,244h0a189.28,189.28,0,0,0-.46,44.69,66,66,0,0,1-12.66-4.06,195.15,195.15,0,0,0,2.72,23.89,22.38,22.38,0,0,1,16.17-6.88,22.69,22.69,0,0,1,8,1.45c-4.65-44.5,5.2-104.37,20.19-128,47.43-19,87.85-57.91,100.73-71.13,12.88,13.22,53.3,52.12,100.73,71.13,15,23.66,24.84,83.53,20.19,128a22.64,22.64,0,0,1,8-1.45,22.4,22.4,0,0,1,16.18,6.88,199.15,199.15,0,0,0,2.72-23.89A66.23,66.23,0,0,1,341.82,288.73Z" />
    <path class="GUNDAN_GUNDAN_WEAPONS_WARRIOR_16_f" d="M300.84,343.57c1.07,2.29,2.45,4.34,3.65,6.57-16.79,47.66-52.8,87.93-97.8,110.84h0c-45-22.91-81-63.17-97.79-110.84,1.2-2.23,2.57-4.28,3.65-6.57,24-51.4,25.19-114.29,0-165.11a48.85,48.85,0,0,0,30.86,13.12,161.52,161.52,0,0,1,33.4-47A70.49,70.49,0,0,1,192,132.7a35.38,35.38,0,0,1,14.65-4.45,35.24,35.24,0,0,1,14.64,4.45,70.31,70.31,0,0,1,15.28,11.89,161.71,161.71,0,0,1,33.4,47,48.85,48.85,0,0,0,30.86-13.12C275.66,229.28,276.82,292.17,300.84,343.57Zm-22.31-113a10.71,10.71,0,0,0-17.13-12.85c-1.89,2.51-3.79,5-5.72,7.47-1.86-1.68-3.84-3.38-5.92-5.07a4.4,4.4,0,0,0-5.54,6.85c2.1,1.7,4.09,3.44,6,5.15-36.84,45.63-79.6,83.37-105,104.18-1.67-2.9-2.57-4.7-2.6-4.79a4.41,4.41,0,1,0-7.93,3.88c.12.25,1.34,2.71,3.59,6.52-9.36,7.49-15.06,11.67-15.28,11.82a10.71,10.71,0,0,0,12.59,17.33c.83-.6,6.27-4.57,14.9-11.42,1.95,2.45,4.08,5,6.37,7.49a4.41,4.41,0,0,0,6.52-5.94c-2.16-2.37-4.16-4.74-6-7.07,25.5-20.75,69.08-58.94,107.65-106.29,2.62,3.22,4.08,5.29,4.14,5.39a4.41,4.41,0,0,0,7.26-5c-.19-.27-2.19-3.16-5.76-7.43Q274.66,235.77,278.53,230.61Z" />
    <path class="GUNDAN_GUNDAN_WEAPONS_WARRIOR_16_d" d="M306,92.06a117.55,117.55,0,0,1-22.84,56.7q13.25,8.13,27.18,15c.33-.5.63-1,.93-1.49a71.38,71.38,0,0,0,5.5-11c7.32,10.51,14.12,21.61,19.09,33.41,5.66,13.39,10.95,26.6,13.95,40.83-2.87,6.21-5.61,12.32-8.42,18.49h0a189.81,189.81,0,0,1,.47,44.69,66,66,0,0,0,22.84-9.61h0C364.19,213.14,342.23,147.15,306,92.06Z" />
    <path class="GUNDAN_GUNDAN_WEAPONS_WARRIOR_16_d" d="M48.72,279.11h0a66,66,0,0,0,22.84,9.61A189.28,189.28,0,0,1,72,244h0c-2.8-6.17-5.54-12.28-8.41-18.49,3-14.23,8.29-27.44,13.94-40.83,5-11.8,11.78-22.9,19.1-33.41a71.33,71.33,0,0,0,5.49,11c.31.5.61,1,.93,1.49q13.94-6.89,27.19-15a117.55,117.55,0,0,1-22.84-56.7C71.14,147.15,49.19,213.14,48.72,279.11Z" />
    <path class="GUNDAN_GUNDAN_WEAPONS_WARRIOR_16_g" d="M206.69,85.39a348.06,348.06,0,0,1-76.43,63.37q-13.24,8.13-27.18,15c-.92.46-1.86.91-2.79,1.36" />
    <path class="GUNDAN_GUNDAN_WEAPONS_WARRIOR_16_g" d="M130.26,148.76a117.55,117.55,0,0,1-22.84-56.7c-36.28,55.09-58.23,121.08-58.7,187.05" />
    <path class="GUNDAN_GUNDAN_WEAPONS_WARRIOR_16_g" d="M48.72,279.11h0a66.53,66.53,0,0,0,22.84,9.61" />
    <path class="GUNDAN_GUNDAN_WEAPONS_WARRIOR_16_g" d="M72,244a193.86,193.86,0,0,1,28.27-78.89l5.67,10" />
    <path class="GUNDAN_GUNDAN_WEAPONS_WARRIOR_16_g" d="M71.56,288.73A189.28,189.28,0,0,1,72,244" />
    <path class="GUNDAN_GUNDAN_WEAPONS_WARRIOR_16_g" d="M71.58,345.8c9.77,27.08,24.48,52.63,42,75.5,26.41,34.45,59,63.54,93.09,90.54" />
    <path class="GUNDAN_GUNDAN_WEAPONS_WARRIOR_16_g" d="M61.62,308.57h0a195.09,195.09,0,0,1-2.72-23.9" />
    <path class="GUNDAN_GUNDAN_WEAPONS_WARRIOR_16_g" d="M103.08,163.78c-.33-.5-.63-1-.94-1.49a71.33,71.33,0,0,1-5.49-11c-7.32,10.51-14.12,21.61-19.1,33.41-5.65,13.39-10.94,26.6-13.94,40.83,2.87,6.21,5.61,12.32,8.41,18.49h0" />
    <path class="GUNDAN_GUNDAN_WEAPONS_WARRIOR_16_g" d="M206.69,128.25A35.38,35.38,0,0,0,192,132.7a70.49,70.49,0,0,0-15.27,11.89,161.52,161.52,0,0,0-33.4,47,48.85,48.85,0,0,1-30.86-13.12c25.22,50.82,24,113.71,0,165.11-1.08,2.29-2.45,4.34-3.65,6.57,16.8,47.67,52.8,87.93,97.79,110.84" />
    <path class="GUNDAN_GUNDAN_WEAPONS_WARRIOR_16_g" d="M93,340.73c10.26,40.37,32.36,89.79,113.67,142.68" />
    <path class="GUNDAN_GUNDAN_WEAPONS_WARRIOR_16_g" d="M206.69,104c-12.88,13.22-53.3,52.12-100.73,71.13-15,23.66-24.84,83.53-20.19,128" />
    <path class="GUNDAN_GUNDAN_WEAPONS_WARRIOR_16_g" d="M71.58,345.8a22.72,22.72,0,0,0,6.21.87,22.5,22.5,0,0,0,8-43.54,22.69,22.69,0,0,0-8-1.45,22.38,22.38,0,0,0-16.17,6.88s0,0,0,0" />
    <path class="GUNDAN_GUNDAN_WEAPONS_WARRIOR_16_g" d="M313.09,165.14c-.94-.45-1.87-.9-2.79-1.36q-13.92-6.89-27.18-15a347.82,347.82,0,0,1-76.43-63.37" />
    <path class="GUNDAN_GUNDAN_WEAPONS_WARRIOR_16_g" d="M364.66,279.11c-.47-66-22.43-132-58.7-187a117.55,117.55,0,0,1-22.84,56.7" />
    <path class="GUNDAN_GUNDAN_WEAPONS_WARRIOR_16_g" d="M341.82,288.73a66.53,66.53,0,0,0,22.84-9.61h0" />
    <path class="GUNDAN_GUNDAN_WEAPONS_WARRIOR_16_g" d="M341.35,244a189.81,189.81,0,0,1,.47,44.69" />
    <path class="GUNDAN_GUNDAN_WEAPONS_WARRIOR_16_g" d="M307.42,175.1l5.67-10A193.7,193.7,0,0,1,341.35,244" />
    <path class="GUNDAN_GUNDAN_WEAPONS_WARRIOR_16_g" d="M206.68,511.84c34.11-27,66.7-56.08,93.1-90.54,17.54-22.87,32.25-48.42,42-75.5" />
    <path class="GUNDAN_GUNDAN_WEAPONS_WARRIOR_16_g" d="M354.48,284.66a199.08,199.08,0,0,1-2.72,23.9h0" />
    <path class="GUNDAN_GUNDAN_WEAPONS_WARRIOR_16_g" d="M341.35,244h0c2.81-6.17,5.55-12.28,8.42-18.49-3-14.23-8.29-27.44-13.95-40.83-5-11.8-11.78-22.9-19.09-33.41a71.38,71.38,0,0,1-5.5,11c-.3.5-.6,1-.93,1.49" />
    <path class="GUNDAN_GUNDAN_WEAPONS_WARRIOR_16_g" d="M206.69,128.25a35.24,35.24,0,0,1,14.64,4.45,70.31,70.31,0,0,1,15.28,11.89,161.71,161.71,0,0,1,33.4,47,48.85,48.85,0,0,0,30.86-13.12c-25.21,50.82-24.05,113.71,0,165.11,1.07,2.29,2.45,4.34,3.65,6.57-16.79,47.66-52.8,87.93-97.8,110.84h0" />
    <path class="GUNDAN_GUNDAN_WEAPONS_WARRIOR_16_g" d="M206.69,483.41C288,430.52,310.1,381.1,320.35,340.73" />
    <path class="GUNDAN_GUNDAN_WEAPONS_WARRIOR_16_g" d="M327.61,303.13c4.65-44.5-5.2-104.37-20.19-128-47.43-19-87.85-57.91-100.73-71.13" />
    <path class="GUNDAN_GUNDAN_WEAPONS_WARRIOR_16_g" d="M351.76,308.57s0,0,0,0a22.4,22.4,0,0,0-16.18-6.88,22.5,22.5,0,1,0,6.21,44.12" />
    <path class="GUNDAN_GUNDAN_WEAPONS_WARRIOR_16_g" d="M255.68,225.23c1.93-2.46,3.83-5,5.72-7.47a10.71,10.71,0,0,1,17.13,12.85q-3.87,5.16-7.87,10.21" />
    <path class="GUNDAN_GUNDAN_WEAPONS_WARRIOR_16_g" d="M145.22,336.34c25.37-20.81,68.13-58.55,105-104.18" />
    <path class="GUNDAN_GUNDAN_WEAPONS_WARRIOR_16_g" d="M157.37,354.16c25.5-20.75,69.08-58.94,107.65-106.29" />
    <path class="GUNDAN_GUNDAN_WEAPONS_WARRIOR_16_g" d="M138.28,342c-9.36,7.49-15.06,11.67-15.28,11.82a10.71,10.71,0,0,0,12.59,17.33c.83-.6,6.27-4.57,14.9-11.42" />
    <path class="GUNDAN_GUNDAN_WEAPONS_WARRIOR_16_g" d="M157.37,354.16c1.85,2.33,3.85,4.7,6,7.07a4.41,4.41,0,0,1-6.52,5.94c-2.29-2.52-4.42-5-6.37-7.49A156.1,156.1,0,0,1,138.28,342c-2.25-3.81-3.47-6.27-3.59-6.52a4.41,4.41,0,1,1,7.93-3.88c0,.09.93,1.89,2.6,4.79A153.35,153.35,0,0,0,157.37,354.16Z" />
    <path class="GUNDAN_GUNDAN_WEAPONS_WARRIOR_16_g" d="M270.66,240.82c3.57,4.27,5.57,7.16,5.76,7.43a4.41,4.41,0,0,1-7.26,5c-.06-.1-1.52-2.17-4.14-5.39a151.91,151.91,0,0,0-14.83-15.71c-1.88-1.71-3.87-3.45-6-5.15a4.4,4.4,0,0,1,5.54-6.85c2.08,1.69,4.06,3.39,5.92,5.07A159.72,159.72,0,0,1,270.66,240.82Z" />
    <path class="GUNDAN_GUNDAN_WEAPONS_WARRIOR_16_h" d="M206.67,435.66a6.78,6.78,0,1,1,6.78-6.78A6.79,6.79,0,0,1,206.67,435.66Z" />
    <path d="M206.67,422.68a6.2,6.2,0,1,1-6.2,6.2,6.21,6.21,0,0,1,6.2-6.2m0-1.16a7.36,7.36,0,1,0,7.36,7.36,7.37,7.37,0,0,0-7.36-7.36Z" />
    <path class="GUNDAN_GUNDAN_WEAPONS_WARRIOR_16_h" d="M205.29,449.35c-.47,0-.94-.08-1.4-.14a.57.57,0,0,1-.49-.65l.17-1.28a17.62,17.62,0,0,1-2.58-.62l-.44,1.21a.53.53,0,0,1-.29.33.57.57,0,0,1-.25.06.48.48,0,0,1-.2,0c-.44-.15-.87-.32-1.3-.51a.57.57,0,0,1-.31-.32.52.52,0,0,1,0-.44l.5-1.18a17.72,17.72,0,0,1-2.31-1.31l-.74,1.05a.6.6,0,0,1-.38.24h-.1a.57.57,0,0,1-.33-.11c-.38-.27-.76-.55-1.12-.85a.56.56,0,0,1-.21-.39.54.54,0,0,1,.13-.42l.8-1a19.62,19.62,0,0,1-1.88-1.88l-1,.8a.54.54,0,0,1-.37.13h-.06a.56.56,0,0,1-.39-.21c-.29-.36-.58-.73-.84-1.11a.58.58,0,0,1,.13-.81l1-.75a18.79,18.79,0,0,1-1.31-2.31l-1.17.52a.66.66,0,0,1-.23,0,.6.6,0,0,1-.54-.34c-.18-.43-.35-.87-.51-1.31a.58.58,0,0,1,.35-.74l1.22-.43a18,18,0,0,1-.64-2.58l-1.27.17h-.08a.58.58,0,0,1-.58-.5c-.06-.46-.11-.93-.14-1.4a.6.6,0,0,1,.14-.42.62.62,0,0,1,.4-.2l1.27-.08c0-.24,0-.48,0-.72a17.08,17.08,0,0,1,.12-1.94l-1.28-.17a.55.55,0,0,1-.38-.23.59.59,0,0,1-.11-.43c.06-.46.14-.92.23-1.38a.6.6,0,0,1,.57-.46h.12l1.24.26a16.65,16.65,0,0,1,.81-2.54l-1.17-.51a.57.57,0,0,1-.3-.76c.18-.43.38-.86.6-1.27a.58.58,0,0,1,.34-.29l.17,0a.63.63,0,0,1,.27.06l1.14.59a19.9,19.9,0,0,1,1.46-2.23l-1-.8a.61.61,0,0,1-.21-.4.59.59,0,0,1,.13-.42c.29-.36.6-.72.92-1.06a.58.58,0,0,1,.42-.18.6.6,0,0,1,.4.15l.94.88a19.42,19.42,0,0,1,2-1.75l-.75-1.05a.59.59,0,0,1,.14-.81c.38-.27.77-.52,1.17-.77a.64.64,0,0,1,.3-.08h.14a.6.6,0,0,1,.36.26l.67,1.11a17.62,17.62,0,0,1,2.4-1.15l-.44-1.22a.58.58,0,0,1,.35-.74c.44-.15.89-.3,1.34-.42a.41.41,0,0,1,.16,0,.57.57,0,0,1,.28.08.62.62,0,0,1,.28.35l.34,1.23a19.26,19.26,0,0,1,2.63-.45L204.7,409a.54.54,0,0,1,.14-.42.55.55,0,0,1,.39-.2c.47,0,.94-.05,1.4-.05h0a.58.58,0,0,1,.58.58v1.27a17.89,17.89,0,0,1,2.65.26l.25-1.24a.57.57,0,0,1,.57-.46h.11c.46.09.92.2,1.37.33a.57.57,0,0,1,.4.71l-.34,1.24a19.61,19.61,0,0,1,2.48,1l.59-1.14a.57.57,0,0,1,.51-.32.68.68,0,0,1,.27.07c.41.21.82.44,1.22.68a.6.6,0,0,1,.2.8l-.67,1.11a19.3,19.3,0,0,1,2.12,1.6l.88-.94a.56.56,0,0,1,.4-.19h0a.59.59,0,0,1,.4.16c.34.31.67.65,1,1a.56.56,0,0,1,0,.81l-.94.89a19.58,19.58,0,0,1,1.61,2.11l1.1-.67a.59.59,0,0,1,.31-.09l.13,0a.56.56,0,0,1,.36.26c.24.39.48.8.69,1.22a.58.58,0,0,1-.24.78l-1.14.59a19.53,19.53,0,0,1,1,2.47l1.23-.35.16,0a.6.6,0,0,1,.29.08.57.57,0,0,1,.27.34c.13.45.24.91.34,1.37a.59.59,0,0,1-.45.68l-1.25.26a18.19,18.19,0,0,1,.28,2.65h1.27a.58.58,0,0,1,.41.17.57.57,0,0,1,.17.41c0,.51,0,1-.05,1.45a.58.58,0,0,1-.58.54l-1.32-.09a18.86,18.86,0,0,1-.45,2.62l1.24.35a.57.57,0,0,1,.4.71c-.12.45-.26.9-.42,1.34a.6.6,0,0,1-.3.33.51.51,0,0,1-.25.06.65.65,0,0,1-.19,0l-1.22-.43a18.15,18.15,0,0,1-1.14,2.4l1.1.68a.58.58,0,0,1,.2.79c-.25.4-.51.8-.78,1.17a.57.57,0,0,1-.47.25.57.57,0,0,1-.33-.11l-1-.74a18.39,18.39,0,0,1-1.76,2l.89.94a.59.59,0,0,1,0,.82c-.34.32-.7.63-1.06.93a.63.63,0,0,1-.36.13.58.58,0,0,1-.45-.22l-.81-1a19,19,0,0,1-2.23,1.46l.6,1.14a.57.57,0,0,1-.25.78c-.41.21-.84.42-1.26.6a.69.69,0,0,1-.24.05.59.59,0,0,1-.53-.35l-.51-1.17a19.56,19.56,0,0,1-2.53.81l.26,1.24a.57.57,0,0,1-.09.44.55.55,0,0,1-.36.25q-.69.15-1.38.24h-.08a.61.61,0,0,1-.35-.11.59.59,0,0,1-.23-.39l-.17-1.27a17.76,17.76,0,0,1-2,.12l-.68,0-.09,1.27a.58.58,0,0,1-.19.4.62.62,0,0,1-.38.14Zm1.38-34.88a14.41,14.41,0,1,0,14.41,14.41A14.43,14.43,0,0,0,206.67,414.47Z" />
    <path d="M206.63,408.94v1.84h0a17.59,17.59,0,0,1,3.65.37l.37-1.8c.44.09.89.19,1.32.31l-.49,1.79A18.63,18.63,0,0,1,215,412.8l.85-1.65c.4.21.8.44,1.19.67l-1,1.59a18.48,18.48,0,0,1,2.95,2.24l1.27-1.37c.33.31.66.63,1,1l-1.36,1.28a18.32,18.32,0,0,1,2.24,2.93l1.59-1c.23.39.46.78.67,1.19l-1.65.85a18,18,0,0,1,1.37,3.44l1.78-.51c.13.44.23.88.33,1.33l-1.81.37a17.88,17.88,0,0,1,.39,3.68h1.84v.05c0,.45,0,.91-.05,1.36l-1.85-.13a17.52,17.52,0,0,1-.62,3.65l1.79.5c-.13.43-.26.87-.42,1.29l-1.75-.62a18,18,0,0,1-1.59,3.34l1.59,1q-.36.58-.75,1.14l-1.52-1.07a17.87,17.87,0,0,1-2.43,2.78l1.27,1.36q-.5.46-1,.9l-1.17-1.44a18.72,18.72,0,0,1-3.09,2l.85,1.64c-.4.21-.81.41-1.23.59l-.73-1.7a17.72,17.72,0,0,1-3.53,1.13l.38,1.8c-.44.09-.9.17-1.34.23l-.26-1.84a18.29,18.29,0,0,1-2.47.19c-.41,0-.82,0-1.22-.06l-.12,1.85c-.46,0-.91-.07-1.36-.13l.25-1.84a17.94,17.94,0,0,1-3.59-.88l-.62,1.76c-.43-.15-.86-.32-1.27-.5l.73-1.7a17.9,17.9,0,0,1-3.22-1.82l-1.07,1.52c-.37-.26-.73-.54-1.08-.83l1.16-1.43a18.93,18.93,0,0,1-2.61-2.61l-1.44,1.16c-.28-.35-.56-.71-.82-1.08l1.52-1.07a18.21,18.21,0,0,1-1.83-3.22l-1.69.74c-.18-.41-.35-.84-.5-1.26l1.75-.63a17.61,17.61,0,0,1-.88-3.59l-1.84.26c-.06-.45-.11-.9-.14-1.36l1.85-.12c0-.42-.06-.84-.06-1.26a17.85,17.85,0,0,1,.18-2.44l-1.84-.25c.06-.45.14-.9.23-1.34l1.8.37a18.37,18.37,0,0,1,1.12-3.53l-1.69-.73c.18-.42.37-.83.58-1.23l1.65.85a18.75,18.75,0,0,1,2-3.1l-1.43-1.16c.28-.36.58-.7.89-1l1.37,1.27a18.4,18.4,0,0,1,2.77-2.44l-1.07-1.51c.37-.27.75-.52,1.13-.75l1,1.59a17.92,17.92,0,0,1,3.33-1.6L200,410.1c.43-.15.86-.29,1.3-.42l.5,1.79a18.23,18.23,0,0,1,3.64-.63l-.13-1.85c.45,0,.91-.05,1.36-.05m0,34.93a15,15,0,1,0-15-15,15,15,0,0,0,15,15m0-36.09h0c-.47,0-1,0-1.43.05a1.13,1.13,0,0,0-.8.4,1.16,1.16,0,0,0-.28.84l0,.73c-.54.07-1.07.16-1.6.27l-.2-.7a1.14,1.14,0,0,0-.55-.7,1.12,1.12,0,0,0-.56-.15,1.19,1.19,0,0,0-.32.05c-.46.13-.92.27-1.37.44a1.15,1.15,0,0,0-.7,1.48l.24.69c-.49.22-1,.45-1.45.7l-.39-.63a1.14,1.14,0,0,0-1-.55,1.12,1.12,0,0,0-.6.17c-.41.25-.81.51-1.2.79a1.16,1.16,0,0,0-.28,1.62l.43.6c-.42.33-.83.69-1.22,1.06l-.54-.5a1.15,1.15,0,0,0-.79-.31h0a1.14,1.14,0,0,0-.81.37c-.33.35-.64.72-.94,1.08a1.16,1.16,0,0,0,.17,1.64l.56.45c-.31.44-.61.89-.89,1.36l-.64-.33a1.17,1.17,0,0,0-1.57.49c-.22.43-.43.86-.62,1.31a1.17,1.17,0,0,0,0,.88,1.12,1.12,0,0,0,.62.64l.66.29c-.19.51-.35,1-.5,1.55l-.7-.15-.23,0a1.16,1.16,0,0,0-1.14.93c-.09.47-.17.95-.24,1.42a1.16,1.16,0,0,0,1,1.3l.71.1c0,.51-.06,1-.06,1.44v.18l-.71.05a1.15,1.15,0,0,0-1.08,1.23c0,.48.08,1,.15,1.43a1.16,1.16,0,0,0,1.15,1h.16l.72-.1c.11.53.24,1.05.39,1.57l-.69.25a1.16,1.16,0,0,0-.71,1.48c.16.45.34.9.53,1.34a1.19,1.19,0,0,0,.64.61,1.06,1.06,0,0,0,.43.08,1.22,1.22,0,0,0,.46-.09l.67-.29c.24.47.51.94.8,1.4l-.6.42a1.17,1.17,0,0,0-.28,1.62c.28.39.57.77.87,1.15a1.17,1.17,0,0,0,.79.42h.11a1.17,1.17,0,0,0,.74-.26l.56-.45c.36.39.75.77,1.14,1.14l-.45.56a1.16,1.16,0,0,0,.16,1.63c.38.31.76.6,1.15.88a1.2,1.2,0,0,0,.67.21,1.16,1.16,0,0,0,.95-.49l.42-.6c.46.29.93.55,1.41.8l-.29.67a1.17,1.17,0,0,0,0,.88,1.12,1.12,0,0,0,.62.64c.44.19.89.37,1.34.53a1.07,1.07,0,0,0,.39.07,1.16,1.16,0,0,0,1.09-.78l.25-.69c.52.15,1,.28,1.57.38l-.1.73a1.17,1.17,0,0,0,1,1.31c.47.06,1,.11,1.43.14h.08a1.14,1.14,0,0,0,1.15-1.08l.05-.71h.14c.47,0,1,0,1.48-.07l.1.72a1.17,1.17,0,0,0,.44.77,1.2,1.2,0,0,0,.71.23h.15c.48-.06,1-.14,1.42-.24a1.16,1.16,0,0,0,.9-1.37l-.14-.7c.52-.15,1-.31,1.54-.5l.29.66a1.15,1.15,0,0,0,.64.62,1.25,1.25,0,0,0,.42.08,1.1,1.1,0,0,0,.47-.1c.43-.19.87-.4,1.3-.62a1.14,1.14,0,0,0,.57-.68,1.17,1.17,0,0,0-.08-.88l-.33-.65c.46-.28.91-.57,1.35-.88l.46.56a1.13,1.13,0,0,0,.78.42h.12a1.18,1.18,0,0,0,.73-.27c.37-.3.73-.61,1.08-.94a1.16,1.16,0,0,0,.06-1.64l-.5-.54c.37-.39.73-.8,1.06-1.22l.6.43a1.17,1.17,0,0,0,1.62-.28c.28-.39.54-.8.79-1.21a1.16,1.16,0,0,0-.39-1.59l-.63-.38c.26-.48.49-1,.7-1.47l.7.25a1.27,1.27,0,0,0,.38.07,1.17,1.17,0,0,0,1.1-.78c.16-.45.31-.91.43-1.37a1.15,1.15,0,0,0-.8-1.43l-.71-.2c.12-.52.21-1.06.28-1.59l.73,0h.08a1.16,1.16,0,0,0,1.15-1.08c0-.48.05-1,.05-1.44v-.06a1.17,1.17,0,0,0-.34-.82,1.18,1.18,0,0,0-.82-.33h-.72c0-.54-.09-1.08-.17-1.61l.7-.15a1.16,1.16,0,0,0,.9-1.37c-.09-.47-.21-.94-.34-1.4a1.14,1.14,0,0,0-.55-.7,1.16,1.16,0,0,0-.57-.15,1.12,1.12,0,0,0-.31,0l-.71.19a16.09,16.09,0,0,0-.59-1.5l.64-.34a1.16,1.16,0,0,0,.5-1.56c-.23-.43-.46-.85-.71-1.25a1.16,1.16,0,0,0-1-.56,1.22,1.22,0,0,0-.61.17l-.63.39c-.31-.45-.63-.87-1-1.29l.54-.5a1.18,1.18,0,0,0,.37-.81,1.15,1.15,0,0,0-.32-.83c-.32-.35-.67-.69-1-1a1.13,1.13,0,0,0-.79-.31,1.18,1.18,0,0,0-.85.37l-.5.54c-.42-.34-.85-.67-1.29-1l.38-.64a1.16,1.16,0,0,0-.39-1.59c-.41-.25-.83-.49-1.26-.71a1.19,1.19,0,0,0-.53-.13,1,1,0,0,0-.35.06,1.16,1.16,0,0,0-.68.57l-.33.65c-.5-.22-1-.41-1.52-.59l.2-.71a1.18,1.18,0,0,0-.11-.88,1.16,1.16,0,0,0-.7-.54c-.46-.13-.93-.25-1.4-.34l-.23,0a1.16,1.16,0,0,0-1.14.93l-.14.7c-.54-.08-1.07-.13-1.61-.16v-.71a1.16,1.16,0,0,0-1.16-1.16Zm0,34.93a13.83,13.83,0,1,1,13.83-13.83,13.85,13.85,0,0,1-13.83,13.83Z" />
    <g class="GUNDAN_GUNDAN_WEAPONS_WARRIOR_16_i">
      <path d="M206.69,85.39V104S186,125,169.15,136.85c9.09-8.79,24.94-25.73,24.94-25.73S150.94,146.41,135.68,156a231.71,231.71,0,0,1-31.45,16.1l-3.18-7.28s16-8.68,33-18.8S192.44,103.76,206.69,85.39Z" />
      <path d="M96.5,107.81s4.84,39.77,13.64,52.39l-7.43,3-6.06-11.9s-16.3,17-27.89,44.57S55.4,254,55.4,254s-4.16-20,3.5-52.41S91.8,116.62,96.5,107.81Z" />
      <path d="M72.25,242.35s3.38,46.83,13.52,60.78c-17-4.24-25.63,0-25.63,0L59,285.86l12.27,2.8S68.69,252.15,72.25,242.35Z" />
      <path d="M206.69,128.25s-27.16,112.92-2.2,198.65S239.8,483.41,239.8,483.41l-33.12,28.43S137.62,457,111.56,418.61c34.25,35.18,73.65,51.25,73.65,51.25S102.9,409.49,93.83,340c16.53,37.67,42.51,61,42.51,61s-25.55-36.61-27-51.66c7.95-16.89-.62-89.6-8.18-113.41s-8.12-27.11-8.12-27.11l12.6-34.19s28.47-12.92,43-21.5S191.31,125.65,206.69,128.25Z" />
      <path d="M85.79,253.25s-2.36,34.45.87,50.24c8.22,4.72,13.32,13.33,13.56,18.86C102.07,289.86,87.71,260.29,85.79,253.25Z" />
    </g>
    <path class="GUNDAN_GUNDAN_WEAPONS_WARRIOR_16_j" d="M74.4,111.91c12.91,12.21,16.4,34.93,12.23,49-5.33,18-.83,34.86-.78,35a5.32,5.32,0,0,1,.14.89,4.27,4.27,0,0,1-2.82,4.29c-.11,0-.22.06-.31.1a4.33,4.33,0,0,1-5.3-3c0-.08-.11-.4-.23-.91a79.46,79.46,0,0,1,1-38.86c2.94-9.87,1.1-29.89-9.88-40.28A23.22,23.22,0,0,0,55.85,112l-.11-1.61-6.28.41a18.24,18.24,0,0,0-2.05-6l2.47-1.65C61.5,102.6,69.39,107.18,74.4,111.91Z" />
    <path class="GUNDAN_GUNDAN_WEAPONS_WARRIOR_16_k" d="M128,263.61s.37,17.79-1.39,28.19,12.62,17.82,12.62,17.82-11,8-4.25,22.31,12.79,8,12.79,8,3.6,3.49,15.14,49-13.23,68.52-13.23,68.52l3.79-19.65-7.05-19.63,4.56-1.63-5.31-14.77A256.9,256.9,0,0,0,135.16,362c-7.29-20.27-12.92-25.47-12.92-25.47h0l-.87-2.43,4.74-1.71-3.76-10.48-4.75,1.71-.67-1.86S109.4,269.22,88.64,243l12.23-10.52L99.67,239C108.93,264.78,128,263.61,128,263.61Z" />
    <polygon class="GUNDAN_GUNDAN_WEAPONS_WARRIOR_16_j" points="131.5 406.79 126.95 408.42 132.26 423.19 136.8 421.56 146.41 418.1 150.97 416.47 145.66 401.7 141.1 403.33 131.5 406.79" />
    <path class="GUNDAN_GUNDAN_WEAPONS_WARRIOR_16_j" d="M90.43,196.55l-4.44.26a4.27,4.27,0,0,1-2.82,4.29c-.11,0-.22.06-.31.1a4.33,4.33,0,0,1-5.3-3c0-.08-.11-.4-.23-.91l-10,.58-10.62.62-5,.28L69.93,249.7l4.54-1.63,9.61-3.45L88.64,243l12.23-10.52s-4.48-18.35.28-28.84C92.12,197.73,90.63,196.71,90.43,196.55Z" />
    <polygon class="GUNDAN_GUNDAN_WEAPONS_WARRIOR_16_j" points="116.93 321.74 112.37 323.38 102.77 326.83 98.22 328.46 103.54 343.24 108.08 341.61 117.69 338.16 122.24 336.52 122.24 336.51 121.37 334.08 126.11 332.37 122.35 321.89 117.6 323.6 116.93 321.74" />
    <polygon class="GUNDAN_GUNDAN_WEAPONS_WARRIOR_16_l" points="149.67 457.38 153.46 437.73 146.41 418.1 136.8 421.56 149.67 457.38" />
    <rect class="GUNDAN_GUNDAN_WEAPONS_WARRIOR_16_l" x="119.49" y="337.84" width="10.2" height="69.25" transform="translate(-118.6 64.06) rotate(-19.76)" />
    <rect class="GUNDAN_GUNDAN_WEAPONS_WARRIOR_16_l" x="88.32" y="243.88" width="10.2" height="83.69" transform="translate(-91.1 48.41) rotate(-19.76)" />
    <path class="GUNDAN_GUNDAN_WEAPONS_WARRIOR_16_l" d="M43.81,134.6l-3.5-5.23a18.24,18.24,0,0,1-6,2l.39,5.81,22,61.27,10.62-.62L44.41,134.2Z" />
    <line class="GUNDAN_GUNDAN_WEAPONS_WARRIOR_16_m" x1="149.67" y1="457.38" x2="136.8" y2="421.55" />
    <line class="GUNDAN_GUNDAN_WEAPONS_WARRIOR_16_m" x1="131.5" y1="406.78" x2="108.08" y2="341.61" />
    <line class="GUNDAN_GUNDAN_WEAPONS_WARRIOR_16_m" x1="141.1" y1="403.33" x2="117.68" y2="338.16" />
    <line class="GUNDAN_GUNDAN_WEAPONS_WARRIOR_16_m" x1="84.08" y1="244.62" x2="112.37" y2="323.38" />
    <line class="GUNDAN_GUNDAN_WEAPONS_WARRIOR_16_m" x1="102.77" y1="326.83" x2="74.47" y2="248.07" />
    <line class="GUNDAN_GUNDAN_WEAPONS_WARRIOR_16_m" x1="67.29" y1="197.88" x2="44.41" y2="134.2" />
    <line class="GUNDAN_GUNDAN_WEAPONS_WARRIOR_16_m" x1="56.67" y1="198.5" x2="34.66" y2="137.23" />
    <polyline class="GUNDAN_GUNDAN_WEAPONS_WARRIOR_16_m" points="146.41 418.1 136.8 421.56 132.26 423.19 126.95 408.42 131.5 406.79 141.1 403.33 145.66 401.7" />
    <polyline class="GUNDAN_GUNDAN_WEAPONS_WARRIOR_16_m" points="122.24 336.52 117.69 338.16 108.08 341.61 103.54 343.24 98.22 328.46 102.77 326.83 112.37 323.38 116.93 321.74 117.6 323.6" />
    <line class="GUNDAN_GUNDAN_WEAPONS_WARRIOR_16_m" x1="121.37" y1="334.08" x2="122.24" y2="336.51" />
    <polyline class="GUNDAN_GUNDAN_WEAPONS_WARRIOR_16_m" points="121.37 334.08 126.11 332.37 122.35 321.89 117.6 323.6" />
    <path class="GUNDAN_GUNDAN_WEAPONS_WARRIOR_16_m" d="M122.24,336.51h0s5.63,5.2,12.92,25.47a256.9,256.9,0,0,1,10.5,39.71L151,416.47l-4.56,1.63,7.05,19.63-3.79,19.65s24.77-23.05,13.23-68.52-15.14-49-15.14-49-6.06,6.34-12.79-8,4.25-22.31,4.25-22.31-14.39-7.44-12.62-17.82S128,263.61,128,263.61,108.93,264.78,99.67,239l1.2-6.56" />
    <path class="GUNDAN_GUNDAN_WEAPONS_WARRIOR_16_m" d="M77.33,197.3l-10,.58-10.62.62-5,.28L69.93,249.7l4.54-1.63,9.61-3.45L88.64,243l12.23-10.52s-4.48-18.35.28-28.84c-9-5.89-10.52-6.91-10.72-7.07l-4.44.26" />
    <path class="GUNDAN_GUNDAN_WEAPONS_WARRIOR_16_m" d="M116.93,321.74S109.4,269.22,88.64,243" />
    <path class="GUNDAN_GUNDAN_WEAPONS_WARRIOR_16_m" d="M49.88,103.1c11.62-.5,19.51,4.08,24.52,8.81,12.91,12.21,16.4,34.93,12.23,49-5.33,18-.83,34.86-.78,35a5.32,5.32,0,0,1,.14.89,4.27,4.27,0,0,1-2.82,4.29c-.11,0-.22.06-.31.1a4.33,4.33,0,0,1-5.3-3c0-.08-.11-.4-.23-.91a79.46,79.46,0,0,1,1-38.86c2.94-9.87,1.1-29.89-9.88-40.28A23.22,23.22,0,0,0,55.85,112" />
    <path class="GUNDAN_GUNDAN_WEAPONS_WARRIOR_16_j" d="M47.41,104.75l2.47-1.65,2.77-1.84L50.94,98.7l-5.24,3.5A17.81,17.81,0,0,0,40.91,98l2.78-5.65L40.93,91l-2.78,5.64a18,18,0,0,0-6.25-1.26l-.41-6.26-3.07.19.42,6.29a18,18,0,0,0-6.05,2.05L19.3,92.42l-2.55,1.71,3.49,5.23a18,18,0,0,0-4.2,4.8l-5.64-2.79L9,104.13l5.65,2.78a17.8,17.8,0,0,0-1.25,6.25l-6.28.41.21,3.07,6.28-.41a18.37,18.37,0,0,0,2,6l-5.23,3.49,1.71,2.56,5.23-3.5A18,18,0,0,0,22.2,129l-2.79,5.64L22.17,136,25,130.38a18,18,0,0,0,6.25,1.24l.41,6.28,3.06-.2,0-.47-.39-5.81a18.24,18.24,0,0,0,6-2l3.5,5.23.6-.4,2-1.31-3.49-5.23a18,18,0,0,0,4.2-4.8l5.64,2.78,1.36-2.75-5.65-2.79a17.82,17.82,0,0,0,1.24-6.24l6.28-.42L55.85,112l-.11-1.6-6.28.41A18.24,18.24,0,0,0,47.41,104.75Zm-5.64,13.8a11.39,11.39,0,1,1-5.18-15.26A11.4,11.4,0,0,1,41.77,118.55Z" />
    <path d="M31.49,89.12l.41,6.26a18,18,0,0,1,6.25,1.26L40.93,91l2.76,1.35L40.91,98a17.81,17.81,0,0,1,4.79,4.2l5.24-3.5,1.71,2.56-2.77,1.84-2.47,1.65a18.24,18.24,0,0,1,2.05,6l6.28-.41.11,1.61.09,1.45-6.28.42a17.82,17.82,0,0,1-1.24,6.24l5.65,2.79-1.36,2.75-5.64-2.78a18,18,0,0,1-4.2,4.8l3.49,5.23-2,1.31-.6.4-3.5-5.23a18.24,18.24,0,0,1-6,2l.39,5.81,0,.47-3.06.2-.41-6.28A18,18,0,0,1,25,130.38L22.17,136l-2.76-1.37L22.2,129a18,18,0,0,1-4.8-4.19l-5.23,3.5-1.71-2.56,5.23-3.49a18.37,18.37,0,0,1-2-6l-6.28.41-.21-3.07,6.28-.41a17.8,17.8,0,0,1,1.25-6.25L9,104.13l1.36-2.76L16,104.16a18,18,0,0,1,4.2-4.8l-3.49-5.23,2.55-1.71,3.49,5.23a18,18,0,0,1,6.05-2.05l-.42-6.29,3.07-.19m0-1.89h-.12l-3.07.19a1.87,1.87,0,0,0-1.3.64,1.91,1.91,0,0,0-.47,1.37l.31,4.64a19.44,19.44,0,0,0-3.4,1.15l-2.57-3.85a1.87,1.87,0,0,0-1.2-.81,2.33,2.33,0,0,0-.37,0,1.88,1.88,0,0,0-1.05.32l-2.56,1.71a1.91,1.91,0,0,0-.52,2.63L17.75,99a18.87,18.87,0,0,0-2.36,2.69l-4.16-2a1.88,1.88,0,0,0-.83-.2,1.77,1.77,0,0,0-.61.1,1.88,1.88,0,0,0-1.09,1l-1.36,2.75a1.91,1.91,0,0,0,.86,2.54l4.16,2a19.14,19.14,0,0,0-.7,3.51L7,111.69a1.88,1.88,0,0,0-1.76,2l.2,3.06a1.9,1.9,0,0,0,1.89,1.77h.12l4.62-.31a19.66,19.66,0,0,0,1.16,3.39l-3.86,2.58a1.89,1.89,0,0,0-.52,2.62l1.71,2.56a1.89,1.89,0,0,0,1.57.84,1.93,1.93,0,0,0,1.05-.32l3.85-2.57a20.68,20.68,0,0,0,2.69,2.35l-2,4.15a1.89,1.89,0,0,0,.85,2.53l2.76,1.37a1.94,1.94,0,0,0,.84.19,1.81,1.81,0,0,0,.61-.1,1.86,1.86,0,0,0,1.09-.95l2.05-4.15a19.81,19.81,0,0,0,3.51.69l.3,4.62a2,2,0,0,0,.64,1.3,1.92,1.92,0,0,0,1.25.47h.12l3.07-.21a1.88,1.88,0,0,0,1.76-2l0-.46L36.27,133a20.83,20.83,0,0,0,3.39-1.15l2.57,3.85a1.9,1.9,0,0,0,2.62.53l.6-.4,2-1.32a1.89,1.89,0,0,0,.51-2.62L45.36,128a19,19,0,0,0,2.36-2.7l4.15,2a1.92,1.92,0,0,0,.84.2,2.11,2.11,0,0,0,.61-.1,1.91,1.91,0,0,0,1.09-1l1.35-2.76a1.88,1.88,0,0,0-.86-2.53l-4.15-2a19.66,19.66,0,0,0,.7-3.51l4.62-.3a1.87,1.87,0,0,0,1.3-.64,1.91,1.91,0,0,0,.46-1.37l-.1-1.46-.1-1.61A1.89,1.89,0,0,0,57,109a1.87,1.87,0,0,0-1.25-.47h-.12l-4.62.3a20.87,20.87,0,0,0-1.16-3.39l1.09-.73,2.77-1.84a1.92,1.92,0,0,0,.8-1.21,1.88,1.88,0,0,0-.28-1.42l-1.71-2.55a1.9,1.9,0,0,0-1.58-.84,1.82,1.82,0,0,0-1,.32L46,99.7a20.2,20.2,0,0,0-2.7-2.36l2-4.15a1.92,1.92,0,0,0,.09-1.45,1.87,1.87,0,0,0-1-1.09L41.77,89.3a1.87,1.87,0,0,0-2.53.86l-2.05,4.15a20.22,20.22,0,0,0-3.51-.71l-.3-4.6a1.9,1.9,0,0,0-1.89-1.77Z" />
    <path d="M31.56,102.11a11.4,11.4,0,1,1,0,22.79,11.4,11.4,0,0,1,0-22.79m0-1.89h0a13.29,13.29,0,1,0,5.87,1.37,13.2,13.2,0,0,0-5.87-1.37Z" />
  </g>
</svg>