<svg xmlns="http://www.w3.org/2000/svg" viewBox="0 0 432 432">
  <defs>
    <style>.GUNDAN_WEAPON_WEAPON_BACK_GUNDAN_WEAPON-21_cls-1{fill:#a87042;}.GUNDAN_WEAPON_WEAPON_BACK_GUNDAN_WEAPON-21_cls-2{fill:#e1c183;}.GUNDAN_WEAPON_WEAPON_BACK_GUNDAN_WEAPON-21_cls-3{fill:#6f7170;}.GUNDAN_WEAPON_WEAPON_BACK_GUNDAN_WEAPON-21_cls-4{fill:#fff;}.GUNDAN_WEAPON_WEAPON_BACK_GUNDAN_WEAPON-21_cls-5{fill:#b27e4d;}.GUNDAN_WEAPON_WEAPON_BACK_GUNDAN_WEAPON-21_cls-6,.GUNDAN_WEAPON_WEAPON_BACK_GUNDAN_WEAPON-21_cls-7{fill:none;stroke:#000;stroke-linecap:round;stroke-linejoin:round;}.GUNDAN_WEAPON_WEAPON_BACK_GUNDAN_WEAPON-21_cls-6{stroke-width:1.36px;}.GUNDAN_WEAPON_WEAPON_BACK_GUNDAN_WEAPON-21_cls-7{stroke-width:1.45px;}</style>
  </defs>
  <g id="weapon_back" data-name="weapon back">
    <polygon class="GUNDAN_WEAPON_WEAPON_BACK_GUNDAN_WEAPON-21_cls-1" points="170.28 358.25 171.22 361.82 172.56 366.96 173.91 372.1 175.26 377.25 176.61 382.39 177.96 387.54 179.3 392.68 180.65 397.82 182 402.97 183.34 408.11 184.69 413.25 186.04 418.4 186.8 421.3 182.25 422.5 181.49 419.6 180.14 414.45 178.79 409.31 177.45 404.17 176.1 399.01 174.75 393.87 173.4 388.73 172.05 383.58 170.71 378.44 169.36 373.29 168.01 368.15 166.66 363.01 165.73 359.44 170.28 358.25" />
    <path class="GUNDAN_WEAPON_WEAPON_BACK_GUNDAN_WEAPON-21_cls-2" d="M160.49,356.28v0l12.86-3.37L191,420.21l-2,.51,23.3,88.91-9,2.35-23.29-88.91-2,.52-17.63-67.27Zm26.31,65-.76-2.89-1.35-5.16-1.34-5.14L182,403l-1.35-5.15-1.35-5.14L178,387.54l-1.35-5.15-1.35-5.14-1.35-5.15L172.56,367l-1.34-5.14-.94-3.57-4.55,1.19.93,3.57,1.35,5.14,1.35,5.14,1.35,5.15,1.34,5.14,1.35,5.15,1.35,5.14L176.1,399l1.35,5.16,1.34,5.14,1.35,5.14,1.35,5.15.76,2.9Z" />
    <path class="GUNDAN_WEAPON_WEAPON_BACK_GUNDAN_WEAPON-21_cls-2" d="M154.45,325.26l-2.14-8.18L142,277.7l-13.2-50.41,9-2.35,1.72,6.57a9.3,9.3,0,0,0-3.65,9.93l3.14,12A9.28,9.28,0,0,0,147,260.3l19,72.66-9,2.35Z" />
    <path class="GUNDAN_WEAPON_WEAPON_BACK_GUNDAN_WEAPON-21_cls-1" d="M120.57,279.58a83.68,83.68,0,0,1-3.81-8.14,26.38,26.38,0,0,1-2-11,20.39,20.39,0,0,1,.63-4.24,19.43,19.43,0,0,1,6.08-9.89,21.88,21.88,0,0,1,6.61-4.07l.32-.1,2.09,8a13.9,13.9,0,0,0-2.87,1.73h0a11.81,11.81,0,0,0-4.52,7.47,14,14,0,0,0-.17,1.53,19.36,19.36,0,0,0,1.69,8.1c.9,2.25,2.07,4.55,3.28,6.91.38.73.76,1.48,1.13,2.23A53.27,53.27,0,0,1,133.34,289a31,31,0,0,1,.69,3.65c.19,1.57.35,3.45.52,5.45.11,1.23.22,2.66.38,4.16a83,83,0,0,0,1.54,10.39c1,4.14,2.4,7.59,4.62,8.61l.08,0c2,.85,5.47-.39,9.76-3.51a4,4,0,0,1,1.38-.65l2.14,8.18a26.92,26.92,0,0,1-8.14,3.93,13.88,13.88,0,0,1-4.58.47,11,11,0,0,1-4-1c-3.58-1.64-6-4.92-7.56-8.95a56.16,56.16,0,0,1-3.1-14.14c-.27-2.36-.46-4.67-.64-6.83-.15-1.92-.31-3.73-.48-5.12,0-.32-.08-.65-.14-1a39.18,39.18,0,0,0-4-10.7C121.39,281.18,121,280.38,120.57,279.58Z" />
    <polygon class="GUNDAN_WEAPON_WEAPON_BACK_GUNDAN_WEAPON-21_cls-3" points="157.08 335.31 166.05 332.96 174.76 330.68 176.16 336.03 173.37 352.93 160.5 356.3 160.49 356.28 149.78 342.94 148.38 337.59 157.08 335.31" />
    <polygon class="GUNDAN_WEAPON_WEAPON_BACK_GUNDAN_WEAPON-21_cls-3" points="130.45 250.11 128.36 242.15 127.79 239.98 124.75 228.35 128.79 227.29 141.99 277.7 137.95 278.76 130.45 250.11" />
    <path class="GUNDAN_WEAPON_WEAPON_BACK_GUNDAN_WEAPON-21_cls-3" d="M139,253.44l-3.14-12a9.3,9.3,0,0,1,3.65-9.93,9.44,9.44,0,0,1,2.95-1.35L150.25,260a9.39,9.39,0,0,1-3.23.26A9.28,9.28,0,0,1,139,253.44Z" />
    <path class="GUNDAN_WEAPON_WEAPON_BACK_GUNDAN_WEAPON-21_cls-4" d="M-1.35,114.14c-8.26,39.24,11.42,90.28,28,124.12a17.34,17.34,0,0,1,15,28c3.07,5.28,5,8.26,5,8.26l21-17.7c-9-18.18-25.24-53.2-33.91-86.28a42.72,42.72,0,0,1-1.2-16.61l-.59-.22-1.91,3.39-1.64-.91-1.71-1,1.92-3.4a12.7,12.7,0,0,1-1.48-1.25,14.53,14.53,0,0,1-1.66-1.85l-3.37,2-1.95-3.32,3.37-2a15.15,15.15,0,0,1-1.18-4.25l-3.91,0,0-3.84,3.9,0a15.88,15.88,0,0,1,1.1-4.27L20,131.09,22,127.74l3.37,1.92a15,15,0,0,1,1.37-1.6,18.23,18.23,0,0,1,1.74-1.54l-2-3.36,3.31-2,2,3.37A15.81,15.81,0,0,1,36,123.39l0-3.89,1.19,0,2.66,0,0,3.9a15.9,15.9,0,0,1,4.28,1.12l1.92-3.39L49.41,123l-1.93,3.4a1.55,1.55,0,0,1,.24.19h0c9.93-9.33,22.5-15.48,31-18.93l-2.54-9.7-1.26-4.8-10.31,2.7A22.81,22.81,0,0,1,51.11,105c-8.84,1.83-39.3.56-39.3.56Z" />
    <path class="GUNDAN_WEAPON_WEAPON_BACK_GUNDAN_WEAPON-21_cls-5" d="M18.43,137.32l0,3.84,3.91,0a15.15,15.15,0,0,0,1.18,4.25l-3.37,2,1.95,3.32,3.37-2a14.53,14.53,0,0,0,1.66,1.85,12.7,12.7,0,0,0,1.48,1.25l-1.92,3.4,1.71,1,1.64.91L32,153.71l.59.22a16.17,16.17,0,0,0,3.69.9l0,3.88H40l.18,0v-.26l0-3.62a14.9,14.9,0,0,0,2.45-.54,7.07,7.07,0,0,0,.92-.3c.29-.11.59-.22.88-.35l2,3.36L49.64,155l-2-3.36a15.63,15.63,0,0,0,3.11-3.13l3.38,1.92,1.89-3.35-3.38-1.92a16,16,0,0,0,1.12-4.29h3.89l0-3.85-3.91,0a15.26,15.26,0,0,0-1.16-4.25l3.35-2L54,127.5l-1.12.66-2.25,1.33a14.6,14.6,0,0,0-2.9-2.92h0a1.55,1.55,0,0,0-.24-.19l1.93-3.4-3.34-1.89-1.92,3.39a15.9,15.9,0,0,0-4.28-1.12l0-3.9-2.66,0-1.19,0,0,3.89a15.81,15.81,0,0,0-4.27,1.19l-2-3.37-3.31,2,2,3.36a18.23,18.23,0,0,0-1.74,1.54,15,15,0,0,0-1.37,1.6L22,127.74,20,131.09,23.43,133a15.88,15.88,0,0,0-1.1,4.27Zm8.18,8.5a13.29,13.29,0,1,1,22.91-13.46,13.74,13.74,0,0,1,1.33,3.1,13.29,13.29,0,0,1-24.24,10.36Z" />
    <path class="GUNDAN_WEAPON_WEAPON_BACK_GUNDAN_WEAPON-21_cls-2" d="M32.56,153.93a42.72,42.72,0,0,0,1.2,16.61c8.67,33.08,24.88,68.1,33.91,86.28l7.75-6.53s-2-4.46-4.77-11.3c-2.41-6-5.42-13.78-8.2-22-3.47-10.19-6.58-21-7.78-29.75-.8-5.8-.75-10.69.59-13.88,3.58-8.55,12.94-14.28,21.05-17.8A82.14,82.14,0,0,1,90.08,151l-.71-2.7L78.72,107.64c-8.49,3.45-21.06,9.6-31,18.93a14.6,14.6,0,0,1,2.9,2.92l2.25-1.33L54,127.5l1.94,3.33-3.35,2a15.26,15.26,0,0,1,1.16,4.25l3.91,0,0,3.85H53.79a16,16,0,0,1-1.12,4.29l3.38,1.92-1.89,3.35-3.38-1.92a15.63,15.63,0,0,1-3.11,3.13l2,3.36L46.32,157l-2-3.36c-.29.13-.59.24-.88.35a7.07,7.07,0,0,1-.92.3,14.9,14.9,0,0,1-2.45.54l0,3.62v.26l-.18,0H36.28l0-3.88A16.17,16.17,0,0,1,32.56,153.93Zm9,22a5.6,5.6,0,1,1,7-3.68A5.6,5.6,0,0,1,41.61,176Zm21.46-47.22a5.6,5.6,0,1,1,7.76-1.58A5.6,5.6,0,0,1,63.07,128.74Z" />
    <path class="GUNDAN_WEAPON_WEAPON_BACK_GUNDAN_WEAPON-21_cls-2" d="M65.78,186.35c1,6.75,3.5,16,6.23,24.84-2.57-17.74,5.64-33,5.64-33l-.27-11.27c-5.51,2.9-10.65,6.78-11.8,11.49A23.24,23.24,0,0,0,65.78,186.35Z" />
    <path class="GUNDAN_WEAPON_WEAPON_BACK_GUNDAN_WEAPON-21_cls-3" d="M72,211.19c.57,1.86,1.15,3.71,1.72,5.5a26.2,26.2,0,0,1,5.15-3.4h0c-5.79-17,4.24-31.8,4.24-31.8l-1.62-16.57c-.8.34-1.62.73-2.44,1.12l-1.67.85.27,11.27S69.44,193.45,72,211.19Z" />
    <path class="GUNDAN_WEAPON_WEAPON_BACK_GUNDAN_WEAPON-21_cls-2" d="M83.11,181.48s-10,14.76-4.24,31.8c6.85-3.43,18.19-5.36,33.6,4.7L111,212.45l9-2.34-4.36-16.64c-21.92-2-29-20-31.27-29.75-.92.36-1.87.75-2.85,1.19Z" />
    <path class="GUNDAN_WEAPON_WEAPON_BACK_GUNDAN_WEAPON-21_cls-1" d="M54.67,187.25c-.8-5.8-.75-10.69.59-13.89,3.58-8.54,12.94-14.27,21.05-17.79A82.14,82.14,0,0,1,90.08,151s5.43-.3,6.42,3.46-3.83,6.46-3.83,6.46a83.58,83.58,0,0,0-8.33,2.83c-.92.36-1.87.75-2.85,1.19-.8.34-1.62.73-2.44,1.12l-1.67.85c-5.51,2.9-10.65,6.78-11.8,11.49a23.24,23.24,0,0,0,.2,8c1,6.75,3.5,16,6.23,24.84.57,1.86,1.15,3.71,1.72,5.5,2.26,7,4.47,13.37,6,17.58,1.15,3.23,1.88,5.2,1.88,5.2s5.42,12.14-6.16,10.82c0,0-2-4.46-4.77-11.3-2.41-6-5.42-13.78-8.2-22C59,206.81,55.87,196,54.67,187.25Z" />
    <path class="GUNDAN_WEAPON_WEAPON_BACK_GUNDAN_WEAPON-21_cls-3" d="M78.72,107.64l10.65,40.63,9.07-2.38L87.58,104.45h0C86.18,104.88,83,105.93,78.72,107.64Z" />
    <path class="GUNDAN_WEAPON_WEAPON_BACK_GUNDAN_WEAPON-21_cls-2" d="M76.18,97.94l2.54,9.7c4.24-1.71,7.46-2.76,8.85-3.19h0l-2.33-8.89Z" />
    <polygon class="GUNDAN_WEAPON_WEAPON_BACK_GUNDAN_WEAPON-21_cls-1" points="112.47 217.98 118.85 242.32 127.79 239.98 124.75 228.35 119.97 210.11 111.02 212.46 112.47 217.98" />
    <path class="GUNDAN_WEAPON_WEAPON_BACK_GUNDAN_WEAPON-21_cls-1" d="M120,210.11l4.78,18.24,4-1.06,9-2.35,13.85-3.62-11.15-42.59a17.06,17.06,0,0,1-7.81-3.37,3.64,3.64,0,0,1-6.68-2l-14.63,3.83,4.28,16.32Z" />
    <path class="GUNDAN_WEAPON_WEAPON_BACK_GUNDAN_WEAPON-21_cls-2" d="M109.59,170.52l1.74,6.63L126,173.32a3.51,3.51,0,0,1,.17-1,3.63,3.63,0,0,1,6.94,2.15,3.4,3.4,0,0,1-.43.9,17.06,17.06,0,0,0,7.81,3.37l11.15,42.59,5.35-1.4L144.39,172a10.23,10.23,0,0,1-12.49-7.31Z" />
    <path class="GUNDAN_WEAPON_WEAPON_BACK_GUNDAN_WEAPON-21_cls-1" d="M104.53,85.38a4.23,4.23,0,0,1,5,2.62c0,.13.09.26.12.4L110.92,93l1.32,5,1.32,5,1.32,5,1.33,5,1.32,5,1.32,5,1.32,5.05,1.33,5,1.21,4.64a3.28,3.28,0,0,1,.08.41,4.23,4.23,0,0,1-3.11,4.76l-8.22,2.15-1-3.69-1.32-5-1.33-5-1.32-5-1.32-5-1.32-5-1.33-5-1.32-5-1.32-5-1.32-5-1.32-5-1-3.69Z" />
    <path class="GUNDAN_WEAPON_WEAPON_BACK_GUNDAN_WEAPON-21_cls-3" d="M37.91,169a5.6,5.6,0,1,1,3.7,7A5.6,5.6,0,0,1,37.91,169Z" />
    <path class="GUNDAN_WEAPON_WEAPON_BACK_GUNDAN_WEAPON-21_cls-3" d="M69.26,119.39A5.61,5.61,0,1,1,61.49,121,5.61,5.61,0,0,1,69.26,119.39Z" />
    <path class="GUNDAN_WEAPON_WEAPON_BACK_GUNDAN_WEAPON-21_cls-3" d="M126.13,172.31a3.63,3.63,0,0,1,6.94,2.15,3.4,3.4,0,0,1-.43.9,3.64,3.64,0,0,1-6.68-2A3.51,3.51,0,0,1,126.13,172.31Z" />
    <polygon class="GUNDAN_WEAPON_WEAPON_BACK_GUNDAN_WEAPON-21_cls-3" points="96.31 87.53 97.28 91.23 98.6 96.27 99.92 101.31 101.25 106.36 102.56 111.4 103.89 116.45 105.21 121.5 106.53 126.54 107.85 131.59 109.18 136.64 110.5 141.68 111.46 145.37 99.14 148.6 98.44 145.89 87.58 104.45 85.25 95.56 83.99 90.76 96.31 87.53" />
    <path class="GUNDAN_WEAPON_WEAPON_BACK_GUNDAN_WEAPON-21_cls-3" d="M121.08,96.17l7.74,29.53a5.63,5.63,0,0,1-4,6.85l-3.3.86-1.33-5-1.32-5.05-1.32-5-1.32-5-1.33-5-1.32-5-1.32-5-1.32-5,3.3-.87A5.62,5.62,0,0,1,121.08,96.17Z" />
    <path class="GUNDAN_WEAPON_WEAPON_BACK_GUNDAN_WEAPON-21_cls-6" d="M47.73,126.57a14.6,14.6,0,0,1,2.9,2.92l2.25-1.33L54,127.5l1.94,3.33-3.35,2a15.26,15.26,0,0,1,1.16,4.25l3.91,0,0,3.85H53.79a16,16,0,0,1-1.12,4.29l3.38,1.92-1.89,3.35-3.38-1.92a15.63,15.63,0,0,1-3.11,3.13l2,3.36L46.32,157l-2-3.36c-.29.13-.59.24-.88.35a7.07,7.07,0,0,1-.92.3,14.9,14.9,0,0,1-2.45.54l0,3.62v.26l-.18,0H36.28l0-3.88a16.17,16.17,0,0,1-3.69-.9l-.59-.22-1.91,3.39-1.64-.91-1.71-1,1.92-3.4a12.7,12.7,0,0,1-1.48-1.25,14.53,14.53,0,0,1-1.66-1.85l-3.37,2-1.95-3.32,3.37-2a15.15,15.15,0,0,1-1.18-4.25l-3.91,0,0-3.84,3.9,0a15.88,15.88,0,0,1,1.1-4.27L20,131.09,22,127.74l3.37,1.92a15,15,0,0,1,1.37-1.6,18.23,18.23,0,0,1,1.74-1.54l-2-3.36,3.31-2,2,3.37A15.81,15.81,0,0,1,36,123.39l0-3.89,1.19,0,2.66,0,0,3.9a15.9,15.9,0,0,1,4.28,1.12l1.92-3.39L49.41,123l-1.93,3.4a1.55,1.55,0,0,1,.24.19" />
    <path class="GUNDAN_WEAPON_WEAPON_BACK_GUNDAN_WEAPON-21_cls-6" d="M26.61,145.82a13.29,13.29,0,0,0,24.24-10.36,13.74,13.74,0,0,0-1.33-3.1,13.29,13.29,0,1,0-22.91,13.46Z" />
    <path class="GUNDAN_WEAPON_WEAPON_BACK_GUNDAN_WEAPON-21_cls-6" d="M89.37,148.27l.71,2.7a82.14,82.14,0,0,0-13.77,4.6c-8.11,3.52-17.47,9.25-21.05,17.8-1.34,3.19-1.39,8.08-.59,13.88C55.87,196,59,206.81,62.45,217c2.78,8.21,5.79,16,8.2,22,2.77,6.84,4.77,11.3,4.77,11.3l-7.75,6.53-21,17.7s-1.92-3-5-8.26" />
    <path class="GUNDAN_WEAPON_WEAPON_BACK_GUNDAN_WEAPON-21_cls-6" d="M26.69,238.26c-16.62-33.84-36.3-84.88-28-124.12l13.16-8.59s30.46,1.27,39.3-.56a22.81,22.81,0,0,0,13.5-9.15l10.31-2.7,1.26,4.8" />
    <path class="GUNDAN_WEAPON_WEAPON_BACK_GUNDAN_WEAPON-21_cls-6" d="M32.56,153.93a42.72,42.72,0,0,0,1.2,16.61c8.67,33.08,24.88,68.1,33.91,86.28" />
    <path class="GUNDAN_WEAPON_WEAPON_BACK_GUNDAN_WEAPON-21_cls-6" d="M87.57,104.45c-1.39.43-4.61,1.48-8.85,3.19-8.49,3.45-21.06,9.6-31,18.93h0" />
    <path class="GUNDAN_WEAPON_WEAPON_BACK_GUNDAN_WEAPON-21_cls-6" d="M90.08,151s5.43-.3,6.42,3.46-3.83,6.46-3.83,6.46a83.58,83.58,0,0,0-8.33,2.83c-.92.36-1.87.75-2.85,1.19-.8.34-1.62.73-2.44,1.12l-1.67.85c-5.51,2.9-10.65,6.78-11.8,11.49a23.24,23.24,0,0,0,.2,8c1,6.75,3.5,16,6.23,24.84.57,1.86,1.15,3.71,1.72,5.5,2.26,7,4.47,13.37,6,17.58,1.15,3.23,1.88,5.2,1.88,5.2s5.42,12.14-6.16,10.82" />
    <path class="GUNDAN_WEAPON_WEAPON_BACK_GUNDAN_WEAPON-21_cls-6" d="M77.38,166.88l.27,11.27s-8.21,15.3-5.64,33a.08.08,0,0,0,0,.07s-8.63-3.87-9.57,5.74" />
    <path class="GUNDAN_WEAPON_WEAPON_BACK_GUNDAN_WEAPON-21_cls-6" d="M84.34,163.72c2.25,9.73,9.35,27.77,31.27,29.75" />
    <path class="GUNDAN_WEAPON_WEAPON_BACK_GUNDAN_WEAPON-21_cls-6" d="M78.88,213.29a26.2,26.2,0,0,0-5.15,3.4h0" />
    <path class="GUNDAN_WEAPON_WEAPON_BACK_GUNDAN_WEAPON-21_cls-6" d="M112.47,218c-15.41-10.06-26.75-8.13-33.6-4.7" />
    <path class="GUNDAN_WEAPON_WEAPON_BACK_GUNDAN_WEAPON-21_cls-6" d="M81.49,164.91l1.62,16.57s-10,14.76-4.24,31.8h0" />
    <polyline class="GUNDAN_WEAPON_WEAPON_BACK_GUNDAN_WEAPON-21_cls-6" points="98.44 145.89 89.37 148.27 78.72 107.64 76.18 97.94 85.25 95.56" />
    <path class="GUNDAN_WEAPON_WEAPON_BACK_GUNDAN_WEAPON-21_cls-6" d="M121.5,133.41l1.21,4.64a3.28,3.28,0,0,1,.08.41,4.23,4.23,0,0,1-3.11,4.76l-8.22,2.15L99.14,148.6l-.7-2.71L87.58,104.45l-2.33-8.89L84,90.76l12.32-3.22,8.22-2.16a4.23,4.23,0,0,1,5,2.62c0,.13.09.26.12.4L110.92,93" />
    <path class="GUNDAN_WEAPON_WEAPON_BACK_GUNDAN_WEAPON-21_cls-6" d="M120,210.11l-4.36-16.64-4.28-16.32-1.74-6.63,22.31-5.85A10.23,10.23,0,0,0,144.39,172L157,219.92l-5.35,1.4-13.85,3.62" />
    <polyline class="GUNDAN_WEAPON_WEAPON_BACK_GUNDAN_WEAPON-21_cls-6" points="124.75 228.35 119.97 210.11 111.02 212.46 112.47 217.98 118.85 242.32 127.79 239.98" />
    <path class="GUNDAN_WEAPON_WEAPON_BACK_GUNDAN_WEAPON-21_cls-6" d="M147,260.3a9.39,9.39,0,0,0,3.23-.26l-7.83-29.88a9.44,9.44,0,0,0-2.95,1.35,9.3,9.3,0,0,0-3.65,9.93l3.14,12A9.28,9.28,0,0,0,147,260.3Z" />
    <polyline class="GUNDAN_WEAPON_WEAPON_BACK_GUNDAN_WEAPON-21_cls-6" points="128.79 227.29 124.75 228.35 127.79 239.98 128.36 242.15 130.45 250.11 137.95 278.76 141.99 277.7" />
    <polyline class="GUNDAN_WEAPON_WEAPON_BACK_GUNDAN_WEAPON-21_cls-6" points="111.46 145.37 110.5 141.68 109.18 136.64 107.85 131.59 106.53 126.54 105.21 121.5 103.89 116.45 102.56 111.4 101.25 106.36 99.92 101.31 98.6 96.27 97.28 91.23 96.31 87.53" />
    <line class="GUNDAN_WEAPON_WEAPON_BACK_GUNDAN_WEAPON-21_cls-6" x1="97.62" y1="91.14" x2="109.58" y2="88" />
    <line class="GUNDAN_WEAPON_WEAPON_BACK_GUNDAN_WEAPON-21_cls-6" x1="98.94" y1="96.18" x2="110.92" y2="93.04" />
    <line class="GUNDAN_WEAPON_WEAPON_BACK_GUNDAN_WEAPON-21_cls-6" x1="100.26" y1="101.23" x2="112.24" y2="98.09" />
    <line class="GUNDAN_WEAPON_WEAPON_BACK_GUNDAN_WEAPON-21_cls-6" x1="101.58" y1="106.28" x2="113.56" y2="103.14" />
    <line class="GUNDAN_WEAPON_WEAPON_BACK_GUNDAN_WEAPON-21_cls-6" x1="102.9" y1="111.31" x2="114.88" y2="108.18" />
    <line class="GUNDAN_WEAPON_WEAPON_BACK_GUNDAN_WEAPON-21_cls-6" x1="104.23" y1="116.36" x2="116.21" y2="113.22" />
    <line class="GUNDAN_WEAPON_WEAPON_BACK_GUNDAN_WEAPON-21_cls-6" x1="105.55" y1="121.41" x2="117.53" y2="118.27" />
    <line class="GUNDAN_WEAPON_WEAPON_BACK_GUNDAN_WEAPON-21_cls-6" x1="106.87" y1="126.45" x2="118.85" y2="123.31" />
    <line class="GUNDAN_WEAPON_WEAPON_BACK_GUNDAN_WEAPON-21_cls-6" x1="108.19" y1="131.5" x2="120.17" y2="128.36" />
    <line class="GUNDAN_WEAPON_WEAPON_BACK_GUNDAN_WEAPON-21_cls-6" x1="109.52" y1="136.55" x2="121.5" y2="133.41" />
    <line class="GUNDAN_WEAPON_WEAPON_BACK_GUNDAN_WEAPON-21_cls-6" x1="110.84" y1="141.59" x2="122.79" y2="138.46" />
    <path class="GUNDAN_WEAPON_WEAPON_BACK_GUNDAN_WEAPON-21_cls-6" d="M110.92,93l3.3-.87a5.62,5.62,0,0,1,6.86,4l7.74,29.53a5.63,5.63,0,0,1-4,6.85l-3.3.86-1.33-5-1.32-5.05-1.32-5-1.32-5-1.33-5-1.32-5-1.32-5Z" />
    <line class="GUNDAN_WEAPON_WEAPON_BACK_GUNDAN_WEAPON-21_cls-6" x1="166.05" y1="332.96" x2="147.02" y2="260.3" />
    <polyline class="GUNDAN_WEAPON_WEAPON_BACK_GUNDAN_WEAPON-21_cls-6" points="157.09 335.31 154.45 325.26 152.31 317.08 141.99 277.7 128.79 227.29 137.75 224.94 139.47 231.51" />
    <line class="GUNDAN_WEAPON_WEAPON_BACK_GUNDAN_WEAPON-21_cls-6" x1="212.34" y1="509.63" x2="189.04" y2="420.72" />
    <line class="GUNDAN_WEAPON_WEAPON_BACK_GUNDAN_WEAPON-21_cls-6" x1="180.08" y1="423.07" x2="203.37" y2="511.98" />
    <path class="GUNDAN_WEAPON_WEAPON_BACK_GUNDAN_WEAPON-21_cls-6" d="M128.36,242.15l-.32.1a21.88,21.88,0,0,0-6.61,4.07,19.43,19.43,0,0,0-6.08,9.89,20.39,20.39,0,0,0-.63,4.24,26.38,26.38,0,0,0,2,11,83.68,83.68,0,0,0,3.81,8.14c.42.8.82,1.6,1.21,2.39a39.18,39.18,0,0,1,4,10.7c.06.31.1.64.14,1,.17,1.39.33,3.2.48,5.12.18,2.16.37,4.47.64,6.83a56.16,56.16,0,0,0,3.1,14.14c1.61,4,4,7.31,7.56,8.95a11,11,0,0,0,4,1,13.88,13.88,0,0,0,4.58-.47,26.92,26.92,0,0,0,8.14-3.93" />
    <path class="GUNDAN_WEAPON_WEAPON_BACK_GUNDAN_WEAPON-21_cls-6" d="M127.58,251.84a13.9,13.9,0,0,1,2.87-1.73" />
    <path class="GUNDAN_WEAPON_WEAPON_BACK_GUNDAN_WEAPON-21_cls-6" d="M152.31,317.08a4,4,0,0,0-1.38.65c-4.29,3.12-7.75,4.36-9.76,3.51l-.08,0c-2.22-1-3.64-4.47-4.62-8.61a83,83,0,0,1-1.54-10.39c-.16-1.5-.27-2.93-.38-4.16-.17-2-.33-3.88-.52-5.45a31,31,0,0,0-.69-3.65A53.27,53.27,0,0,0,129,278.09c-.37-.75-.75-1.5-1.13-2.23-1.21-2.36-2.38-4.66-3.28-6.91a19.36,19.36,0,0,1-1.69-8.1,14,14,0,0,1,.17-1.53,11.81,11.81,0,0,1,4.52-7.47" />
    <path class="GUNDAN_WEAPON_WEAPON_BACK_GUNDAN_WEAPON-21_cls-6" d="M121.43,246.32a9.69,9.69,0,0,1,6.15,5.52h0" />
    <path class="GUNDAN_WEAPON_WEAPON_BACK_GUNDAN_WEAPON-21_cls-6" d="M123.07,259.32a9.28,9.28,0,0,0-7.72-3.11" />
    <path class="GUNDAN_WEAPON_WEAPON_BACK_GUNDAN_WEAPON-21_cls-6" d="M124.59,269a7.88,7.88,0,0,0-7.83,2.49" />
    <path class="GUNDAN_WEAPON_WEAPON_BACK_GUNDAN_WEAPON-21_cls-6" d="M129,278.09c-3.6-.47-5.86,1.63-7.22,3.88" />
    <path class="GUNDAN_WEAPON_WEAPON_BACK_GUNDAN_WEAPON-21_cls-6" d="M133.34,289c-2.74-.08-5.41,1.67-7.58,3.71" />
    <path class="GUNDAN_WEAPON_WEAPON_BACK_GUNDAN_WEAPON-21_cls-6" d="M134.93,302.22a8,8,0,0,0-7.91,3.36" />
    <path class="GUNDAN_WEAPON_WEAPON_BACK_GUNDAN_WEAPON-21_cls-6" d="M136.47,312.61c-2.49,1-5.62,3.07-6.35,7.11" />
    <path class="GUNDAN_WEAPON_WEAPON_BACK_GUNDAN_WEAPON-21_cls-6" d="M141.17,321.24a9.23,9.23,0,0,0,.56,8.42" />
    <polygon class="GUNDAN_WEAPON_WEAPON_BACK_GUNDAN_WEAPON-21_cls-7" points="149.78 342.94 176.16 336.03 174.76 330.68 166.05 332.96 157.09 335.31 148.38 337.59 149.78 342.94" />
    <polyline class="GUNDAN_WEAPON_WEAPON_BACK_GUNDAN_WEAPON-21_cls-7" points="176.16 336.03 173.37 352.93 160.5 356.3 160.49 356.28 149.78 342.94" />
    <path class="GUNDAN_WEAPON_WEAPON_BACK_GUNDAN_WEAPON-21_cls-6" d="M61.49,121a5.6,5.6,0,1,0,7.76-1.59A5.6,5.6,0,0,0,61.49,121Z" />
    <line class="GUNDAN_WEAPON_WEAPON_BACK_GUNDAN_WEAPON-21_cls-6" x1="61.49" y1="120.98" x2="70.83" y2="127.16" />
    <path class="GUNDAN_WEAPON_WEAPON_BACK_GUNDAN_WEAPON-21_cls-6" d="M41.61,176a5.6,5.6,0,1,0-3.7-7A5.59,5.59,0,0,0,41.61,176Z" />
    <line class="GUNDAN_WEAPON_WEAPON_BACK_GUNDAN_WEAPON-21_cls-6" x1="41.61" y1="175.96" x2="44.91" y2="165.26" />
    <path class="GUNDAN_WEAPON_WEAPON_BACK_GUNDAN_WEAPON-21_cls-6" d="M128.53,176.85a3.64,3.64,0,0,0,4.11-1.49,3.4,3.4,0,0,0,.43-.9,3.63,3.63,0,0,0-6.94-2.15,3.51,3.51,0,0,0-.17,1A3.65,3.65,0,0,0,128.53,176.85Z" />
    <line class="GUNDAN_WEAPON_WEAPON_BACK_GUNDAN_WEAPON-21_cls-6" x1="128.53" y1="176.85" x2="130.67" y2="169.92" />
    <path class="GUNDAN_WEAPON_WEAPON_BACK_GUNDAN_WEAPON-21_cls-6" d="M76.31,155.57s9.52,1.33,2.74,10.46" />
    <path class="GUNDAN_WEAPON_WEAPON_BACK_GUNDAN_WEAPON-21_cls-6" d="M54.68,187.25s4.09-7,11.09-.9" />
    <path class="GUNDAN_WEAPON_WEAPON_BACK_GUNDAN_WEAPON-21_cls-6" d="M79.69,234.27s-7.37-2.94-9,4.72" />
    <polyline class="GUNDAN_WEAPON_WEAPON_BACK_GUNDAN_WEAPON-21_cls-6" points="182.25 422.5 180.07 423.07 178.06 423.59 160.44 356.32" />
    <polyline class="GUNDAN_WEAPON_WEAPON_BACK_GUNDAN_WEAPON-21_cls-6" points="173.37 352.93 190.99 420.21 189.04 420.72 186.8 421.3" />
    <polygon class="GUNDAN_WEAPON_WEAPON_BACK_GUNDAN_WEAPON-21_cls-6" points="182.25 422.5 186.8 421.3 186.04 418.4 184.69 413.25 183.34 408.11 182 402.97 180.65 397.82 179.3 392.68 177.96 387.54 176.61 382.39 175.26 377.25 173.91 372.1 172.56 366.96 171.22 361.82 170.28 358.25 165.73 359.44 166.66 363.01 168.01 368.15 169.36 373.29 170.71 378.44 172.05 383.58 173.4 388.73 174.75 393.87 176.1 399.01 177.45 404.17 178.79 409.31 180.14 414.45 181.49 419.6 182.25 422.5" />
    <line class="GUNDAN_WEAPON_WEAPON_BACK_GUNDAN_WEAPON-21_cls-6" x1="171.22" y1="361.82" x2="166.66" y2="363.01" />
    <line class="GUNDAN_WEAPON_WEAPON_BACK_GUNDAN_WEAPON-21_cls-6" x1="172.56" y1="366.96" x2="168.01" y2="368.15" />
    <line class="GUNDAN_WEAPON_WEAPON_BACK_GUNDAN_WEAPON-21_cls-6" x1="173.91" y1="372.1" x2="169.36" y2="373.29" />
    <line class="GUNDAN_WEAPON_WEAPON_BACK_GUNDAN_WEAPON-21_cls-6" x1="175.26" y1="377.25" x2="170.71" y2="378.44" />
    <line class="GUNDAN_WEAPON_WEAPON_BACK_GUNDAN_WEAPON-21_cls-6" x1="176.61" y1="382.39" x2="172.05" y2="383.58" />
    <line class="GUNDAN_WEAPON_WEAPON_BACK_GUNDAN_WEAPON-21_cls-6" x1="177.96" y1="387.54" x2="173.4" y2="388.73" />
    <line class="GUNDAN_WEAPON_WEAPON_BACK_GUNDAN_WEAPON-21_cls-6" x1="179.3" y1="392.68" x2="174.75" y2="393.87" />
    <line class="GUNDAN_WEAPON_WEAPON_BACK_GUNDAN_WEAPON-21_cls-6" x1="180.65" y1="397.82" x2="176.1" y2="399.01" />
    <line class="GUNDAN_WEAPON_WEAPON_BACK_GUNDAN_WEAPON-21_cls-6" x1="182" y1="402.97" x2="177.45" y2="404.17" />
    <line class="GUNDAN_WEAPON_WEAPON_BACK_GUNDAN_WEAPON-21_cls-6" x1="183.35" y1="408.11" x2="178.79" y2="409.31" />
    <line class="GUNDAN_WEAPON_WEAPON_BACK_GUNDAN_WEAPON-21_cls-6" x1="184.69" y1="413.25" x2="180.14" y2="414.45" />
    <line class="GUNDAN_WEAPON_WEAPON_BACK_GUNDAN_WEAPON-21_cls-6" x1="186.04" y1="418.41" x2="181.49" y2="419.6" />
    <path class="GUNDAN_WEAPON_WEAPON_BACK_GUNDAN_WEAPON-21_cls-6" d="M41.67,266.26a17.34,17.34,0,0,0-15-28" />
    <polyline class="GUNDAN_WEAPON_WEAPON_BACK_GUNDAN_WEAPON-21_cls-6" points="111.33 177.15 125.96 173.32 125.97 173.32" />
    <path class="GUNDAN_WEAPON_WEAPON_BACK_GUNDAN_WEAPON-21_cls-6" d="M132.64,175.36a17.06,17.06,0,0,0,7.81,3.37l11.15,42.59" />
  </g>
</svg>