<svg xmlns="http://www.w3.org/2000/svg" viewBox="0 0 432 432">
  <defs>
    <style>.GUNDAN_WEAPON_WEAPON_BACK_GUNDAN_WEAPON-14_cls-1{isolation:isolate;}.GUNDAN_WEAPON_WEAPON_BACK_GUNDAN_WEAPON-14_cls-2{fill:#181b22;}.GUNDAN_WEAPON_WEAPON_BACK_GUNDAN_WEAPON-14_cls-3{fill:#500013;}.GUNDAN_WEAPON_WEAPON_BACK_GUNDAN_WEAPON-14_cls-4{fill:#dc8c6d;}.GUNDAN_WEAPON_WEAPON_BACK_GUNDAN_WEAPON-14_cls-5{fill:#644633;}.GUNDAN_WEAPON_WEAPON_BACK_GUNDAN_WEAPON-14_cls-6{fill:#a13b41;}.GUNDAN_WEAPON_WEAPON_BACK_GUNDAN_WEAPON-14_cls-15,.GUNDAN_WEAPON_WEAPON_BACK_GUNDAN_WEAPON-14_cls-7{fill:none;stroke:#000;stroke-linecap:round;stroke-linejoin:round;}.GUNDAN_WEAPON_WEAPON_BACK_GUNDAN_WEAPON-14_cls-7{stroke-width:2.52px;}.GUNDAN_WEAPON_WEAPON_BACK_GUNDAN_WEAPON-14_cls-8{fill:#b96f6e;}.GUNDAN_WEAPON_WEAPON_BACK_GUNDAN_WEAPON-14_cls-9{opacity:0.43;mix-blend-mode:multiply;}.GUNDAN_WEAPON_WEAPON_BACK_GUNDAN_WEAPON-14_cls-10{fill:#b07438;}.GUNDAN_WEAPON_WEAPON_BACK_GUNDAN_WEAPON-14_cls-11{fill:#441c03;}.GUNDAN_WEAPON_WEAPON_BACK_GUNDAN_WEAPON-14_cls-12{fill:#d0b244;}.GUNDAN_WEAPON_WEAPON_BACK_GUNDAN_WEAPON-14_cls-13{fill:#c5c5bb;}.GUNDAN_WEAPON_WEAPON_BACK_GUNDAN_WEAPON-14_cls-14{fill:#fff;}.GUNDAN_WEAPON_WEAPON_BACK_GUNDAN_WEAPON-14_cls-15{stroke-width:1.16px;}</style>
  </defs>
  <g class="GUNDAN_WEAPON_WEAPON_BACK_GUNDAN_WEAPON-14_cls-1">
    <g id="Shield">
      <path class="GUNDAN_WEAPON_WEAPON_BACK_GUNDAN_WEAPON-14_cls-2" d="M166.68,354.16a153.35,153.35,0,0,1-12.15-17.82c-1.67-2.9-2.56-4.7-2.6-4.79a4.41,4.41,0,1,0-7.93,3.88c.12.25,1.34,2.71,3.59,6.52a157.43,157.43,0,0,0,12.21,17.73c1.95,2.45,4.08,5,6.37,7.49a4.41,4.41,0,0,0,6.52-5.94C170.53,358.86,168.53,356.49,166.68,354.16Z" />
      <path class="GUNDAN_WEAPON_WEAPON_BACK_GUNDAN_WEAPON-14_cls-2" d="M285.73,248.25c-.19-.27-2.19-3.16-5.76-7.43a159.72,159.72,0,0,0-15-15.59c-1.86-1.68-3.84-3.38-5.92-5.07a4.4,4.4,0,0,0-5.54,6.85c2.11,1.7,4.1,3.44,6,5.15a150.81,150.81,0,0,1,14.83,15.71c2.62,3.22,4.08,5.29,4.14,5.39a4.41,4.41,0,0,0,7.26-5Z" />
      <path class="GUNDAN_WEAPON_WEAPON_BACK_GUNDAN_WEAPON-14_cls-3" d="M132.31,353.77A10.71,10.71,0,0,0,144.9,371.1c.83-.6,6.27-4.57,14.9-11.42A157.43,157.43,0,0,1,147.59,342C138.23,349.44,132.53,353.62,132.31,353.77Z" />
      <path class="GUNDAN_WEAPON_WEAPON_BACK_GUNDAN_WEAPON-14_cls-3" d="M259.5,232.16c-36.84,45.63-79.6,83.37-105,104.18a153.35,153.35,0,0,0,12.15,17.82c25.51-20.75,69.08-58.94,107.65-106.29A150.81,150.81,0,0,0,259.5,232.16Z" />
      <path class="GUNDAN_WEAPON_WEAPON_BACK_GUNDAN_WEAPON-14_cls-3" d="M285.7,215.62a10.71,10.71,0,0,0-15,2.14c-1.89,2.51-3.79,5-5.72,7.47a159.72,159.72,0,0,1,15,15.59q4-5.06,7.87-10.21A10.72,10.72,0,0,0,285.7,215.62Z" />
      <path class="GUNDAN_WEAPON_WEAPON_BACK_GUNDAN_WEAPON-14_cls-4" d="M316.73,175.1c15,23.66,24.84,83.53,20.19,128a22.5,22.5,0,0,0-7.25,37.6C319.41,381.1,297.32,430.52,216,483.41,134.7,430.52,112.59,381.1,102.33,340.73a22.5,22.5,0,0,0-7.25-37.6c-4.65-44.5,5.2-104.37,20.19-128,47.43-19,87.85-57.91,100.74-71.13C228.88,117.19,269.3,156.09,316.73,175.1Zm-2.92,175c-1.21-2.23-2.59-4.28-3.66-6.57-24-51.4-25.18-114.29,0-165.11a48.85,48.85,0,0,1-30.86,13.12,161.71,161.71,0,0,0-33.4-47,70.31,70.31,0,0,0-15.28-11.89A35.24,35.24,0,0,0,216,128.25a35.29,35.29,0,0,0-14.65,4.45,70.31,70.31,0,0,0-15.28,11.89,161.71,161.71,0,0,0-33.4,47,48.85,48.85,0,0,1-30.86-13.12c25.22,50.82,24.05,113.71,0,165.11-1.07,2.29-2.45,4.34-3.64,6.57C135,397.81,171,438.07,216,461h0C261,438.07,297,397.8,313.81,350.14Z" />
      <path class="GUNDAN_WEAPON_WEAPON_BACK_GUNDAN_WEAPON-14_cls-5" d="M118.62,264.45a.41.41,0,0,1-.41-.4l0-.94,0,.94a.4.4,0,0,1-.41.4h0c-.33,0-.67,0-1-.06a.41.41,0,0,1-.37-.44l.08-.95-.13.95a.41.41,0,0,1-.16.27.43.43,0,0,1-.24.08h-.06c-.33,0-.66-.1-1-.17a.41.41,0,0,1-.32-.48l.19-.93-.24.92a.41.41,0,0,1-.39.3H114c-.32-.08-.65-.18-1-.28a.41.41,0,0,1-.26-.52l.3-.94-.35.92a.41.41,0,0,1-.22.23.45.45,0,0,1-.16,0l-.15,0-.93-.4a.37.37,0,0,1-.21-.23.42.42,0,0,1,0-.31l.41-.89-.46.87a.4.4,0,0,1-.36.22.45.45,0,0,1-.19-.05c-.29-.16-.59-.32-.87-.5a.44.44,0,0,1-.19-.25.47.47,0,0,1,0-.31l.51-.84-.55.81a.41.41,0,0,1-.26.17h-.08a.39.39,0,0,1-.23-.07c-.27-.19-.55-.39-.81-.59a.45.45,0,0,1-.16-.27.44.44,0,0,1,.09-.31l.59-.77-.63.74a.42.42,0,0,1-.28.14h0a.38.38,0,0,1-.27-.1c-.25-.22-.5-.44-.74-.68a.41.41,0,0,1,0-.58l.67-.68-.71.65a.41.41,0,0,1-.28.11h0a.47.47,0,0,1-.29-.14c-.22-.24-.44-.5-.65-.75a.43.43,0,0,1-.09-.3.39.39,0,0,1,.15-.28l.73-.59-.76.55a.46.46,0,0,1-.25.08.42.42,0,0,1-.33-.17c-.19-.27-.38-.55-.56-.83a.4.4,0,0,1,.12-.56l.8-.51-.82.46a.39.39,0,0,1-.21.06l-.1,0a.37.37,0,0,1-.25-.19c-.17-.29-.32-.59-.47-.89a.41.41,0,0,1,0-.31.43.43,0,0,1,.21-.23l.83-.41-.85.36a.45.45,0,0,1-.16,0,.42.42,0,0,1-.38-.24c-.13-.31-.25-.63-.36-.94a.4.4,0,0,1,.25-.52l.9-.32-.92.27-.11,0a.43.43,0,0,1-.4-.3c-.09-.32-.17-.64-.25-1a.41.41,0,0,1,.31-.49l.93-.21-.94.16h-.07A.41.41,0,0,1,102,251a.41.41,0,0,1-.17-.26c0-.33-.1-.66-.14-1a.44.44,0,0,1,.09-.31.49.49,0,0,1,.27-.15l1-.1-1,.05a.4.4,0,0,1-.41-.38c0-.32,0-.65,0-1a.45.45,0,0,1,.12-.31.46.46,0,0,1,.29-.13h1l-1-.05a.42.42,0,0,1-.28-.14.38.38,0,0,1-.1-.29c0-.34,0-.67.08-1a.39.39,0,0,1,.15-.27.43.43,0,0,1,.26-.09l1,.11-.94-.16a.39.39,0,0,1-.26-.17.37.37,0,0,1-.07-.3c0-.33.12-.66.2-1a.39.39,0,0,1,.39-.31h.1l.93.21-.92-.26a.41.41,0,0,1-.28-.51c.1-.32.2-.64.31-.95a.42.42,0,0,1,.21-.24.57.57,0,0,1,.18,0,.36.36,0,0,1,.14,0l.93.34-.91-.39a.4.4,0,0,1-.22-.53c.13-.31.27-.62.41-.92a.4.4,0,0,1,.24-.2.31.31,0,0,1,.13,0,.37.37,0,0,1,.18.05l.88.43-.85-.48a.39.39,0,0,1-.2-.25.48.48,0,0,1,0-.31c.17-.29.34-.58.52-.86a.44.44,0,0,1,.26-.18h.09a.46.46,0,0,1,.22.06l.81.53-.78-.57a.4.4,0,0,1-.09-.57c.19-.27.4-.54.61-.8a.4.4,0,0,1,.58-.05l.74.61-.71-.65a.39.39,0,0,1-.13-.28.41.41,0,0,1,.1-.3l.7-.72a.46.46,0,0,1,.29-.11.4.4,0,0,1,.29.12l.67.69-.63-.72a.41.41,0,0,1-.1-.3.42.42,0,0,1,.14-.28q.38-.33.78-.63a.38.38,0,0,1,.25-.09.42.42,0,0,1,.32.16l.58.76-.54-.79a.4.4,0,0,1-.06-.3.38.38,0,0,1,.17-.27c.27-.18.55-.37.84-.54a.39.39,0,0,1,.21-.06h.1a.47.47,0,0,1,.25.19l.48.8-.44-.82a.42.42,0,0,1,.17-.56l.9-.44a.53.53,0,0,1,.17,0,.39.39,0,0,1,.37.24l.39.85-.34-.87a.41.41,0,0,1,.23-.53c.31-.12.63-.23,1-.33a.25.25,0,0,1,.12,0,.4.4,0,0,1,.39.28l.3.92-.25-.93a.45.45,0,0,1,0-.32.41.41,0,0,1,.25-.18c.33-.09.65-.17,1-.23H115a.42.42,0,0,1,.4.33l.19.93-.14-.94a.41.41,0,0,1,.35-.46c.33-.05.66-.09,1-.11h0a.42.42,0,0,1,.41.38l.07.94,0-.94a.38.38,0,0,1,.11-.3.43.43,0,0,1,.28-.13h1a.46.46,0,0,1,.29.13.46.46,0,0,1,.11.3l0,.95.08-.95a.39.39,0,0,1,.15-.28.4.4,0,0,1,.26-.1h0c.34,0,.67.06,1,.11a.38.38,0,0,1,.27.16.44.44,0,0,1,.08.3l-.14.94.19-.93a.42.42,0,0,1,.4-.33h.08c.32.06.65.14,1,.22a.47.47,0,0,1,.25.19.48.48,0,0,1,0,.31l-.25.93.3-.91a.4.4,0,0,1,.39-.28.25.25,0,0,1,.12,0c.32.1.64.21,1,.33a.41.41,0,0,1,.23.53l-.36.92.41-.9a.41.41,0,0,1,.37-.24.47.47,0,0,1,.17,0l.9.44a.41.41,0,0,1,.17.56l-.45.86.5-.84a.36.36,0,0,1,.25-.18h.1a.5.5,0,0,1,.21.05c.29.18.57.36.84.55a.41.41,0,0,1,.11.57l-.55.8.59-.77a.39.39,0,0,1,.32-.16.38.38,0,0,1,.25.08c.27.21.53.42.78.64a.41.41,0,0,1,0,.58l-.63.72.67-.69a.43.43,0,0,1,.28-.13h0a.45.45,0,0,1,.29.12q.36.34.69.72a.41.41,0,0,1,0,.58l-.7.64.73-.61a.43.43,0,0,1,.26-.09h0a.43.43,0,0,1,.28.15c.21.26.41.53.61.79a.42.42,0,0,1,.07.31.38.38,0,0,1-.16.27l-.77.55.8-.51a.34.34,0,0,1,.22-.07h.09a.41.41,0,0,1,.25.18c.18.28.36.57.52.85a.45.45,0,0,1,0,.32.41.41,0,0,1-.19.24l-.82.46.84-.41a.39.39,0,0,1,.18,0,.41.41,0,0,1,.37.22c.15.3.29.61.41.91a.4.4,0,0,1-.21.54l-.86.36.87-.31.14,0a.58.58,0,0,1,.18,0,.43.43,0,0,1,.21.23c.11.32.22.64.31,1a.4.4,0,0,1-.28.5l-.93.28.94-.23h.1a.42.42,0,0,1,.4.32c.07.32.14.66.19,1a.4.4,0,0,1-.33.47l-.94.17,1-.12a.39.39,0,0,1,.26.09.43.43,0,0,1,.15.27c0,.33.07.67.09,1a.41.41,0,0,1-.39.43l-.95.06h.95a.45.45,0,0,1,.29.12.4.4,0,0,1,.12.29c0,.38,0,.71,0,1a.41.41,0,0,1-.41.39l-1-.06,1,.11a.4.4,0,0,1,.36.45c0,.33-.08.67-.14,1a.41.41,0,0,1-.4.34h-.07l-.94-.17.93.22a.4.4,0,0,1,.3.49c-.07.32-.16.65-.25,1a.43.43,0,0,1-.39.29l-.12,0-.92-.27.9.32a.39.39,0,0,1,.25.52c-.11.32-.23.63-.37.94a.4.4,0,0,1-.22.22.4.4,0,0,1-.15,0,.41.41,0,0,1-.16,0l-.9-.39.88.43a.41.41,0,0,1,.18.55c-.14.3-.3.6-.47.89a.4.4,0,0,1-.35.21.42.42,0,0,1-.21-.06l-.84-.48.82.53a.39.39,0,0,1,.17.25.37.37,0,0,1-.05.31c-.18.28-.37.56-.57.83a.4.4,0,0,1-.33.17.43.43,0,0,1-.24-.08l-.78-.57.75.61a.49.49,0,0,1,.15.27.41.41,0,0,1-.1.3c-.21.26-.43.51-.65.76a.41.41,0,0,1-.29.13h0a.39.39,0,0,1-.28-.11l-.71-.65.67.69a.4.4,0,0,1,.12.29.41.41,0,0,1-.13.29,9.51,9.51,0,0,1-.74.67.37.37,0,0,1-.26.1.41.41,0,0,1-.31-.14l-.62-.71.58.74a.41.41,0,0,1-.08.58c-.26.2-.53.4-.81.58a.4.4,0,0,1-.23.08.41.41,0,0,1-.33-.18l-.54-.79.49.82a.4.4,0,0,1-.14.56c-.28.17-.57.33-.87.49a.41.41,0,0,1-.19,0,.42.42,0,0,1-.36-.21l-.43-.83.38.85a.4.4,0,0,1-.2.54c-.3.14-.61.27-.92.39l-.15,0a.47.47,0,0,1-.16,0,.39.39,0,0,1-.22-.23l-.34-.89.29.91a.41.41,0,0,1-.26.52c-.32.1-.64.2-1,.28h-.1a.4.4,0,0,1-.39-.3l-.24-.93.19.94a.42.42,0,0,1-.32.48l-1,.17h-.06a.41.41,0,0,1-.24-.08.38.38,0,0,1-.16-.27l-.14-1,.09,1a.41.41,0,0,1-.1.3.39.39,0,0,1-.28.15c-.33,0-.66,0-1,.05Zm-12.8-11.74a13.27,13.27,0,0,0,20.72,5.53l-3.38-3.67a8.32,8.32,0,0,1-12.58-3.35Zm22.67,3.6a13.28,13.28,0,0,0-5.5-20.85l-1.5,4.76a8.31,8.31,0,0,1,3.33,12.72Zm-16.16-5.64a6.48,6.48,0,0,0,5.88,3.71,6.41,6.41,0,0,0,3.71-1.17l-2.37-2.57a3,3,0,0,1-1.34.32,3.07,3.07,0,0,1-2.53-1.34Zm11.14,1a6.49,6.49,0,0,0-2.53-9.73l-1,3.34a3.05,3.05,0,0,1,1,4Zm-5.26-17.14a13.33,13.33,0,0,0-13.32,13.31,13.6,13.6,0,0,0,.18,2.2l4.87-1.09a8.48,8.48,0,0,1-.07-1.11,8.35,8.35,0,0,1,8.34-8.34,9.38,9.38,0,0,1,1,.07l1.09-4.87A12.88,12.88,0,0,0,118.21,234.56Zm0,6.8a6.52,6.52,0,0,0-6.51,6.51,5.74,5.74,0,0,0,0,.71l3.38-.75a3.1,3.1,0,0,1,3-3l.76-3.39A4.64,4.64,0,0,0,118.21,241.36Z" />
      <path d="M118.2,231.7h.49l0,1.46a7,7,0,0,1,.79,0l.12-1.45,1,.11-.21,1.44c.27,0,.53.07.79.12l.28-1.41c.32.06.64.14,1,.22l-.37,1.41c.26.07.51.13.76.21l.45-1.38c.31.1.62.22.92.33l-.53,1.36c.25.09.49.2.73.31l.6-1.33c.3.14.59.28.88.44l-.68,1.27.69.4.75-1.25c.28.17.55.35.82.53l-.82,1.2c.22.15.43.31.63.47l.89-1.15a8.94,8.94,0,0,1,.76.62l-1,1.09c.2.18.4.35.59.54l1-1.05c.23.23.46.47.68.71l-1.07,1c.17.2.36.38.53.59l1.11-.92c.21.25.41.51.6.77l-1.18.86c.15.21.31.43.45.65l1.22-.79q.27.41.51.84l-1.27.71c.13.23.25.47.36.7l1.31-.65c.14.3.28.59.41.89l-1.33.56c.1.24.18.5.27.74l1.37-.49c.11.31.21.62.31.93l-1.4.41c.08.25.14.51.2.76l1.42-.33c.07.32.14.64.19,1l-1.43.25c0,.26.09.51.12.78l1.43-.17c0,.32.07.65.09,1l-1.46.08c0,.26,0,.52,0,.79h1.44v0c0,.33,0,.66,0,1l-1.45-.09c0,.27,0,.53-.06.79l1.44.16c0,.33-.09.65-.14,1l-1.43-.25c-.05.26-.1.52-.16.78l1.42.32c-.08.32-.16.64-.25.95l-1.39-.41c-.08.25-.17.5-.26.75l1.38.49c-.11.3-.23.61-.36.91l-1.33-.57c-.1.25-.23.48-.34.72l1.31.64c-.15.29-.3.58-.46.87l-1.27-.72c-.13.23-.26.45-.41.67l1.23.79-.56.81-1.18-.87c-.15.22-.3.43-.47.64l1.12.91c-.21.26-.42.5-.64.74l-1.08-1c-.17.19-.35.39-.54.57l1,1c-.23.23-.48.45-.72.66l-.95-1.1-.62.5.89,1.15c-.25.2-.52.39-.79.58l-.81-1.2c-.22.15-.45.28-.67.42l.75,1.25c-.28.16-.56.33-.85.48l-.67-1.29-.71.34.6,1.33c-.29.13-.59.26-.9.38l-.52-1.36c-.25.1-.49.19-.74.27l.44,1.38c-.31.1-.62.19-.94.27l-.36-1.41-.77.2.29,1.41c-.32.06-.65.12-1,.16l-.2-1.44c-.26,0-.52.08-.78.1l.12,1.44c-.32,0-.65.05-1,.05l0-1.45-.38,0-.42,0,0,1.45c-.32,0-.65,0-1-.05l.13-1.44-.79-.1-.2,1.44c-.33-.05-.65-.1-1-.17l.29-1.41c-.26-.05-.51-.13-.77-.19l-.37,1.4c-.31-.08-.63-.17-.93-.27l.45-1.38-.75-.27-.52,1.35c-.31-.11-.61-.24-.91-.38l.61-1.32c-.24-.11-.48-.22-.71-.35l-.68,1.29-.85-.49.76-1.24c-.23-.14-.45-.27-.67-.42l-.82,1.19c-.27-.18-.53-.38-.79-.58l.89-1.15c-.2-.16-.41-.32-.61-.5l-.95,1.1q-.37-.32-.72-.66l1-1c-.19-.18-.36-.38-.54-.57l-1.08,1c-.22-.24-.43-.49-.64-.74l1.13-.92c-.17-.2-.32-.42-.48-.63l-1.18.86c-.19-.26-.37-.53-.55-.81l1.23-.78c-.14-.22-.28-.45-.41-.68l-1.27.72q-.24-.42-.45-.87l1.31-.64a7.75,7.75,0,0,1-.34-.71l-1.33.57c-.13-.3-.25-.61-.36-.91l1.38-.49c-.09-.25-.18-.5-.25-.75l-1.39.41c-.1-.31-.18-.63-.25-.95l1.41-.32q-.09-.39-.15-.78l-1.43.25c-.06-.32-.1-.65-.14-1l1.43-.16c0-.26,0-.52,0-.79l-1.45.08c0-.31,0-.62,0-.94v0h1.44c0-.27,0-.53,0-.79l-1.46-.08c0-.32,0-.65.09-1l1.43.16c0-.26.08-.52.12-.78l-1.43-.24c.06-.32.12-.65.19-1l1.42.33c.06-.26.12-.52.2-.77l-1.39-.4q.13-.48.3-.93l1.37.49c.09-.25.17-.5.27-.75l-1.33-.56c.13-.3.27-.6.41-.89l1.31.65c.12-.24.23-.47.36-.7l-1.26-.72c.16-.28.33-.56.51-.83l1.22.79a7.49,7.49,0,0,1,.45-.65l-1.18-.86q.28-.39.6-.78l1.11.92c.17-.2.35-.39.53-.59l-1.07-1c.22-.24.45-.48.68-.7l1,1,.58-.53-1-1.1c.24-.21.5-.42.76-.62l.88,1.16c.21-.16.42-.33.64-.48l-.82-1.19c.27-.18.54-.36.82-.53l.75,1.25.68-.4-.67-1.28c.28-.15.58-.29.87-.43l.6,1.33.73-.31-.53-1.36.92-.32.45,1.37c.25-.08.5-.14.76-.21l-.37-1.41c.31-.08.63-.16,1-.22l.28,1.41.78-.12-.2-1.44,1-.11.12,1.45a6.85,6.85,0,0,1,.79,0l0-1.46h.48m-13.45,18.86,5.66-1.26a7.54,7.54,0,0,1-.14-1.43,7.94,7.94,0,0,1,7.94-7.93,8.58,8.58,0,0,1,1.35.12l1.26-5.66a14.08,14.08,0,0,0-2.61-.25,13.74,13.74,0,0,0-13.73,13.72,13.27,13.27,0,0,0,.27,2.69m23.77,6.34a13.69,13.69,0,0,0-5.79-22L121,240.45A7.92,7.92,0,0,1,124.26,253l4.26,3.91m-17.12-7.82,4.16-.93a2.4,2.4,0,0,1,0-.28,2.68,2.68,0,0,1,2.68-2.67l.2,0,.93-4.17a7.08,7.08,0,0,0-1.13-.1,6.9,6.9,0,0,0-6.81,8.13m12.12,3.22a6.92,6.92,0,0,0-2.83-10.88l-1.28,4.08a2.65,2.65,0,0,1,1,3.92l3.14,2.88m-5.31,2.49a6.85,6.85,0,0,0,4.31-1.52l-2.88-3.15a2.64,2.64,0,0,1-1.43.43,2.67,2.67,0,0,1-2.35-1.42l-4.08,1.28a6.92,6.92,0,0,0,6.43,4.38m0,6.81a13.67,13.67,0,0,0,8.92-3.32L123.21,254a7.92,7.92,0,0,1-12.4-3.3l-5.53,1.73a13.75,13.75,0,0,0,12.93,9.15m0-30.72h-.51a.78.78,0,0,0-.45.15.77.77,0,0,0-.39-.11h-.07l-1,.11a.9.9,0,0,0-.43.2.81.81,0,0,0-.31-.06l-.16,0c-.33.07-.67.14-1,.23a.83.83,0,0,0-.41.25.78.78,0,0,0-.22,0,.73.73,0,0,0-.25,0c-.32.1-.65.22-1,.34a.84.84,0,0,0-.37.3l-.13,0a.84.84,0,0,0-.34.08c-.31.14-.62.29-.92.45a.81.81,0,0,0-.33.33h0a.81.81,0,0,0-.42.12c-.29.18-.58.36-.87.56a.82.82,0,0,0-.29.37.79.79,0,0,0-.44.16l-.8.65a.85.85,0,0,0-.25.4.82.82,0,0,0-.42.22c-.25.24-.49.48-.72.74a.78.78,0,0,0-.2.42.9.9,0,0,0-.4.26c-.21.27-.42.54-.62.82a.82.82,0,0,0-.16.44.89.89,0,0,0-.36.31c-.19.29-.37.58-.53.88a.95.95,0,0,1-.43.81c-.15.31-.3.62-.43.94a.84.84,0,0,0-.05.47.78.78,0,0,0-.28.38c-.12.32-.22.65-.32,1a.84.84,0,0,0,0,.47.88.88,0,0,0-.23.41c-.08.33-.15.67-.21,1a.93.93,0,0,0,.06.47.75.75,0,0,0-.18.43q-.06.51-.09,1a.79.79,0,0,0,.11.46.8.8,0,0,0-.14.45c0,.37,0,.7,0,1a.91.91,0,0,0,.16.45.81.81,0,0,0-.08.46c0,.34.08.68.14,1a.8.8,0,0,0,.21.42.94.94,0,0,0,0,.47c.08.34.17.67.26,1a.88.88,0,0,1,.28.87c.12.32.24.64.38.95a.79.79,0,0,0,.3.37.83.83,0,0,0,.07.46c.15.31.31.62.48.91a.89.89,0,0,0,.34.33.84.84,0,0,0,.13.45c.19.29.38.58.58.85a.91.91,0,0,1,.56.72c.22.27.44.53.67.78a.82.82,0,0,0,.41.24.84.84,0,0,0,.23.42c.24.23.49.47.75.69a.83.83,0,0,0,.43.19.85.85,0,0,0,.28.39c.27.21.55.41.83.61a.8.8,0,0,0,.45.14.82.82,0,0,0,.32.35c.29.18.59.35.89.51a.85.85,0,0,0,.38.09h.09a.71.71,0,0,0,.35.31c.31.15.63.28,1,.41a1,1,0,0,0,.3,0,.5.5,0,0,0,.17,0,.91.91,0,0,0,.39.28l1,.29.21,0a.75.75,0,0,0,.26,0,.78.78,0,0,0,.42.22c.33.07.67.13,1,.18h.12a.85.85,0,0,0,.35-.08.82.82,0,0,0,.44.17l1,.06h0a.83.83,0,0,0,.44-.12.82.82,0,0,0,.43.12h0l1-.05a.9.9,0,0,0,.44-.18.85.85,0,0,0,.35.08h.12c.33,0,.67-.1,1-.17a.81.81,0,0,0,.42-.22.75.75,0,0,0,.26,0l.21,0c.33-.08.66-.18,1-.28a.83.83,0,0,0,.38-.27l.18,0a.8.8,0,0,0,.3-.06c.32-.12.63-.26.94-.4a.83.83,0,0,0,.36-.31h.08a.85.85,0,0,0,.38-.09l.9-.5a.77.77,0,0,0,.31-.36.73.73,0,0,0,.45-.14c.29-.19.57-.39.83-.6a1,1,0,0,1,.71-.58c.26-.22.52-.45.76-.69a.77.77,0,0,0,.23-.41.86.86,0,0,0,.41-.24c.23-.25.46-.51.67-.78a.74.74,0,0,0,.18-.43.83.83,0,0,0,.38-.29c.2-.27.4-.56.58-.85a.76.76,0,0,0,.13-.45.8.8,0,0,0,.35-.33c.17-.3.33-.6.48-.91a.94.94,0,0,1,.38-.83c.14-.31.26-.64.38-1a.9.9,0,0,1,.28-.87c.1-.32.19-.66.26-1a.75.75,0,0,0,0-.47.79.79,0,0,0,.21-.43c.06-.33.11-.67.15-1a.84.84,0,0,0-.08-.47.81.81,0,0,0,.16-.44c0-.34,0-.69,0-1a.92.92,0,0,0-.14-.48.84.84,0,0,0,.11-.47c0-.34,0-.68-.08-1a.91.91,0,0,0-.19-.44A.82.82,0,0,0,135,245c-.06-.33-.13-.67-.21-1a.8.8,0,0,0-.23-.41.87.87,0,0,0,0-.48c-.09-.32-.2-.65-.32-1a.74.74,0,0,0-.28-.37.87.87,0,0,0,0-.48c-.13-.31-.27-.62-.43-.93a.71.71,0,0,0-.32-.34.82.82,0,0,0-.1-.46c-.17-.3-.35-.6-.53-.88a.82.82,0,0,0-.36-.31.85.85,0,0,0-.16-.45q-.3-.41-.63-.81a.87.87,0,0,0-.39-.26.78.78,0,0,0-.2-.43c-.23-.25-.47-.5-.72-.73a.82.82,0,0,0-.42-.22.85.85,0,0,0-.25-.4l-.8-.65a.8.8,0,0,0-.44-.17.88.88,0,0,0-.3-.37l-.86-.56a.8.8,0,0,0-.42-.11h0a.86.86,0,0,0-.34-.34c-.3-.16-.61-.31-.92-.45a.8.8,0,0,0-.34-.07h-.13a.78.78,0,0,0-.37-.3c-.32-.12-.65-.24-1-.34a.77.77,0,0,0-.25,0,.91.91,0,0,0-.23,0,.76.76,0,0,0-.4-.25c-.33-.09-.67-.17-1-.23l-.16,0a.81.81,0,0,0-.31.06,1,1,0,0,0-.43-.2c-.34-.05-.68-.08-1-.11h-.07a.75.75,0,0,1-.84,0Zm-12.79,18.69a13.73,13.73,0,0,1-.11-1.7,12.85,12.85,0,0,1,14.53-12.8l-.91,4.09a5.74,5.74,0,0,0-.71,0,8.76,8.76,0,0,0-8.75,8.75c0,.26,0,.53,0,.79l-4.08.91ZM122,240l1.25-4a12.87,12.87,0,0,1,5.2,19.71l-3.07-2.82A8.73,8.73,0,0,0,122,240Zm-9.88,8.09v-.21a6.11,6.11,0,0,1,6.1-6.1h.13l-.59,2.64a3.51,3.51,0,0,0-3,3.09l-2.62.58Zm8.26-2.93.82-2.59a6.15,6.15,0,0,1,3.12,5.31,6.05,6.05,0,0,1-.92,3.21l-2-1.82a3.5,3.5,0,0,0,.29-1.39,3.45,3.45,0,0,0-1.33-2.72Zm-7.45,5.76,2.61-.82a3.45,3.45,0,0,0,2.68,1.27,3.54,3.54,0,0,0,1.24-.23l1.84,2a5.92,5.92,0,0,1-3.08.84,6.05,6.05,0,0,1-5.29-3.06ZM106.36,253l4-1.25a8.73,8.73,0,0,0,12.75,3.39l2.82,3.08A12.86,12.86,0,0,1,106.36,253Z" />
      <path class="GUNDAN_WEAPON_WEAPON_BACK_GUNDAN_WEAPON-14_cls-5" d="M314.22,264.45a.41.41,0,0,1-.41-.4l0-.95,0,.95a.38.38,0,0,1-.12.29.43.43,0,0,1-.28.11h0c-.33,0-.67,0-1-.06a.36.36,0,0,1-.27-.14.41.41,0,0,1-.1-.3l.08-.95-.13.95a.41.41,0,0,1-.16.27.43.43,0,0,1-.24.08h-.06c-.33,0-.66-.1-1-.17a.41.41,0,0,1-.32-.48l.19-.95-.24.94a.41.41,0,0,1-.4.3h-.1c-.32-.08-.65-.18-1-.28a.41.41,0,0,1-.26-.52l.31-.94-.36.92a.41.41,0,0,1-.22.23.45.45,0,0,1-.16,0l-.15,0c-.31-.13-.63-.26-.93-.4a.37.37,0,0,1-.21-.23.42.42,0,0,1,0-.31l.41-.89-.45.87a.42.42,0,0,1-.37.22.45.45,0,0,1-.19-.05c-.29-.16-.59-.32-.87-.5a.42.42,0,0,1-.14-.56l.51-.83-.55.8a.41.41,0,0,1-.26.17h-.08a.48.48,0,0,1-.23-.07c-.27-.19-.55-.39-.81-.59a.45.45,0,0,1-.16-.27.44.44,0,0,1,.09-.31l.59-.76-.63.73a.42.42,0,0,1-.28.14h0a.39.39,0,0,1-.27-.1c-.25-.22-.5-.44-.74-.68a.41.41,0,0,1,0-.58l.66-.68-.7.65a.39.39,0,0,1-.28.11h0a.47.47,0,0,1-.29-.14c-.22-.24-.44-.5-.65-.75a.43.43,0,0,1-.09-.3.39.39,0,0,1,.15-.28l.74-.6-.77.56a.46.46,0,0,1-.25.08.42.42,0,0,1-.33-.17c-.19-.27-.38-.55-.56-.83a.4.4,0,0,1,.12-.56l.8-.51-.82.46a.42.42,0,0,1-.21.06l-.1,0a.41.41,0,0,1-.25-.19c-.17-.29-.32-.59-.47-.89a.4.4,0,0,1,.19-.54l.83-.41-.85.36a.45.45,0,0,1-.16,0,.42.42,0,0,1-.38-.24c-.13-.31-.25-.62-.36-.94a.37.37,0,0,1,0-.31.4.4,0,0,1,.23-.21l.9-.32-.92.27-.11,0a.43.43,0,0,1-.4-.3c-.09-.32-.17-.64-.25-1a.43.43,0,0,1,.05-.31.44.44,0,0,1,.26-.18l.92-.21-.93.16h-.07a.42.42,0,0,1-.41-.34c0-.33-.1-.66-.14-1a.44.44,0,0,1,.09-.31.48.48,0,0,1,.28-.15l.95-.1-1,.05a.42.42,0,0,1-.28-.1.37.37,0,0,1-.13-.28c0-.32,0-.65,0-1a.5.5,0,0,1,.12-.31.46.46,0,0,1,.29-.13h.95l-.95-.05a.42.42,0,0,1-.28-.14.38.38,0,0,1-.1-.29c0-.34,0-.67.08-1a.39.39,0,0,1,.15-.27.43.43,0,0,1,.26-.09l1,.11-.95-.16a.41.41,0,0,1-.26-.17.37.37,0,0,1-.07-.3c.05-.33.12-.66.2-1a.41.41,0,0,1,.18-.25.39.39,0,0,1,.21-.06h.1l.92.21-.91-.26a.4.4,0,0,1-.24-.2.38.38,0,0,1,0-.31c.1-.32.2-.64.31-.95a.45.45,0,0,1,.21-.24.57.57,0,0,1,.18,0,.36.36,0,0,1,.14,0l.93.34-.91-.39a.41.41,0,0,1-.22-.54c.13-.3.27-.61.42-.91a.41.41,0,0,1,.36-.23.37.37,0,0,1,.18.05l.88.43-.85-.48a.41.41,0,0,1-.16-.56c.17-.29.34-.58.52-.86a.44.44,0,0,1,.26-.18h.09a.46.46,0,0,1,.22.06l.81.53-.78-.57a.4.4,0,0,1-.09-.57c.19-.27.4-.54.61-.8a.42.42,0,0,1,.28-.14h0a.44.44,0,0,1,.26.1l.74.61-.71-.65a.4.4,0,0,1,0-.58c.22-.24.46-.48.69-.72a.46.46,0,0,1,.29-.11.42.42,0,0,1,.29.12l.67.69-.63-.72a.41.41,0,0,1-.1-.3.42.42,0,0,1,.14-.28q.38-.33.78-.63a.38.38,0,0,1,.24-.09.42.42,0,0,1,.33.16l.58.75-.54-.78a.4.4,0,0,1-.06-.3.41.41,0,0,1,.17-.27c.27-.18.55-.37.84-.54a.39.39,0,0,1,.21-.06h.1a.44.44,0,0,1,.25.19l.49.81-.45-.83a.42.42,0,0,1,.17-.56l.9-.44a.59.59,0,0,1,.17,0,.39.39,0,0,1,.37.24l.39.85-.34-.87a.41.41,0,0,1,.23-.53c.31-.12.63-.23.95-.33a.25.25,0,0,1,.12,0,.4.4,0,0,1,.39.28l.29.91-.24-.92a.45.45,0,0,1,0-.32.41.41,0,0,1,.25-.18c.33-.09.65-.17,1-.23h.08a.4.4,0,0,1,.4.33l.19.95-.14-1a.41.41,0,0,1,.35-.46c.33-.05.66-.09,1-.11h0a.42.42,0,0,1,.41.38l.08.94,0-.94a.38.38,0,0,1,.11-.3.43.43,0,0,1,.29-.13h1a.43.43,0,0,1,.29.13.46.46,0,0,1,.11.3l0,1,.08-1a.39.39,0,0,1,.15-.28.4.4,0,0,1,.26-.1h0c.34,0,.67.06,1,.11a.38.38,0,0,1,.27.16.44.44,0,0,1,.08.3l-.14,1,.19-.94a.42.42,0,0,1,.4-.33h.08c.33.06.65.14,1,.22a.47.47,0,0,1,.25.19.43.43,0,0,1,0,.31l-.25.94.3-.92a.4.4,0,0,1,.39-.28.25.25,0,0,1,.12,0c.32.1.64.21,1,.33a.41.41,0,0,1,.23.53l-.36.92.41-.9a.4.4,0,0,1,.23-.21.35.35,0,0,1,.14,0,.47.47,0,0,1,.17,0l.9.44a.41.41,0,0,1,.17.56l-.45.86.5-.84a.38.38,0,0,1,.25-.18h.1a.5.5,0,0,1,.21.05c.28.18.57.36.84.55a.41.41,0,0,1,.11.57l-.55.79.59-.76a.39.39,0,0,1,.32-.16.38.38,0,0,1,.25.08c.27.21.53.42.78.64a.41.41,0,0,1,0,.58l-.63.72.67-.69a.43.43,0,0,1,.28-.13h0a.45.45,0,0,1,.29.12c.23.23.47.47.69.72a.36.36,0,0,1,.11.29.41.41,0,0,1-.13.29l-.7.64.73-.61a.41.41,0,0,1,.26-.09h0a.43.43,0,0,1,.28.15c.21.26.41.53.61.79a.42.42,0,0,1,.07.31.38.38,0,0,1-.16.27l-.77.55.8-.51a.34.34,0,0,1,.22-.07h.09a.38.38,0,0,1,.25.18c.18.28.36.57.52.86a.41.41,0,0,1-.15.55l-.82.46.84-.41a.39.39,0,0,1,.18,0,.27.27,0,0,1,.13,0,.4.4,0,0,1,.24.2c.15.3.28.61.42.91a.44.44,0,0,1,0,.32.4.4,0,0,1-.22.22l-.85.36.86-.31.14,0a.42.42,0,0,1,.39.27c.11.32.22.64.31,1a.4.4,0,0,1-.28.5l-.93.28.94-.23h.1a.4.4,0,0,1,.21.07.4.4,0,0,1,.19.25c.07.32.14.65.19,1a.38.38,0,0,1-.07.31.35.35,0,0,1-.26.16l-.94.17,1-.12a.39.39,0,0,1,.26.09.43.43,0,0,1,.15.27c0,.33.07.67.09,1a.46.46,0,0,1-.11.3.37.37,0,0,1-.28.13l-1,.06h1a.45.45,0,0,1,.29.12.4.4,0,0,1,.12.29c0,.38,0,.71,0,1a.41.41,0,0,1-.41.39l-1-.06,1,.11a.43.43,0,0,1,.28.15.41.41,0,0,1,.09.3c0,.33-.09.67-.15,1a.41.41,0,0,1-.17.27.37.37,0,0,1-.23.07h-.07l-.94-.17.93.22a.4.4,0,0,1,.3.49c-.07.32-.16.65-.25,1a.42.42,0,0,1-.39.29l-.12,0-.91-.27.89.32a.39.39,0,0,1,.25.52c-.11.32-.23.63-.36.94a.45.45,0,0,1-.23.22.4.4,0,0,1-.15,0,.41.41,0,0,1-.16,0l-.9-.39.88.43a.41.41,0,0,1,.18.55c-.14.3-.3.6-.47.89a.4.4,0,0,1-.35.21.42.42,0,0,1-.21-.06l-.85-.48.83.53a.39.39,0,0,1,.17.25.37.37,0,0,1-.05.31c-.18.28-.37.56-.57.83a.4.4,0,0,1-.27.16h-.06a.43.43,0,0,1-.24-.08l-.78-.58.75.62a.4.4,0,0,1,.05.57c-.21.26-.43.51-.65.76a.41.41,0,0,1-.29.13h0a.39.39,0,0,1-.28-.11l-.71-.65.67.69a.4.4,0,0,1,.12.29.45.45,0,0,1-.12.29c-.24.23-.49.46-.75.67a.37.37,0,0,1-.26.1.41.41,0,0,1-.31-.14l-.62-.72.58.75a.38.38,0,0,1,.08.3.43.43,0,0,1-.15.28c-.27.2-.54.4-.82.58a.36.36,0,0,1-.23.08h-.07a.39.39,0,0,1-.26-.17l-.54-.8.49.82a.41.41,0,0,1-.14.57c-.28.17-.57.33-.87.49a.41.41,0,0,1-.19,0h-.12a.48.48,0,0,1-.24-.2l-.44-.84.4.86a.47.47,0,0,1,0,.31.41.41,0,0,1-.22.23c-.3.14-.61.27-.92.39l-.15,0a.47.47,0,0,1-.16,0,.39.39,0,0,1-.22-.23l-.34-.88.29.9a.41.41,0,0,1-.26.52c-.32.1-.64.2-1,.28h-.11a.41.41,0,0,1-.39-.3l-.24-.92.19.93a.42.42,0,0,1-.32.48l-1,.17h-.06a.41.41,0,0,1-.4-.35l-.13-.94.08.94a.41.41,0,0,1-.1.3.39.39,0,0,1-.28.15c-.33,0-.66,0-1,.05Zm-12.8-11.74a13.27,13.27,0,0,0,20.72,5.53l-3.37-3.67a8.33,8.33,0,0,1-12.59-3.35Zm22.67,3.6a13.28,13.28,0,0,0-5.5-20.85l-1.5,4.76a8.39,8.39,0,0,1,5.06,7.65,8.29,8.29,0,0,1-1.73,5.07Zm-16.16-5.64a6.48,6.48,0,0,0,5.88,3.71,6.41,6.41,0,0,0,3.71-1.17l-2.36-2.57a3,3,0,0,1-3.88-1Zm11.14,1a6.49,6.49,0,0,0-2.53-9.73l-1.05,3.34a3.05,3.05,0,0,1,1,4Zm-5.26-17.14a13.33,13.33,0,0,0-13.32,13.31,13.6,13.6,0,0,0,.18,2.2l4.87-1.09a8.48,8.48,0,0,1-.07-1.11,8.35,8.35,0,0,1,8.34-8.34,9.38,9.38,0,0,1,1,.07l1.09-4.87A12.88,12.88,0,0,0,313.81,234.56Zm0,6.8a6.52,6.52,0,0,0-6.51,6.51,5.74,5.74,0,0,0,0,.71l3.38-.75a3.1,3.1,0,0,1,3-3l.76-3.39A4.64,4.64,0,0,0,313.81,241.36Z" />
      <path d="M313.8,231.7h.49l0,1.46a6.85,6.85,0,0,1,.79,0l.12-1.45,1,.11-.21,1.44c.27,0,.53.07.79.12L317,232c.32.06.64.14.95.22l-.37,1.41c.26.07.51.13.76.21l.45-1.38c.31.1.62.22.92.33l-.53,1.36c.25.09.49.2.73.31l.6-1.33c.3.14.59.28.88.44l-.68,1.27.69.4.75-1.25c.28.17.55.35.82.53l-.82,1.2c.22.15.43.31.63.47l.89-1.15a8.94,8.94,0,0,1,.76.62l-1,1.09c.2.18.4.35.59.54l1-1.05c.23.23.46.47.68.71l-1.07,1c.17.2.36.38.53.59l1.11-.92c.21.25.41.51.6.77l-1.18.86c.15.21.31.43.45.65l1.22-.79q.27.41.51.84l-1.27.71c.13.23.25.47.37.7l1.3-.65c.15.3.28.59.41.89l-1.33.56c.1.24.18.5.27.74l1.37-.49c.11.31.22.62.31.93l-1.39.41c.07.25.13.51.19.76l1.42-.33c.07.32.14.64.19,1l-1.43.25c0,.26.09.51.12.78l1.43-.17c0,.32.07.65.09,1l-1.46.08c0,.26,0,.52,0,.79H330v0c0,.33,0,.66,0,1l-1.45-.09c0,.27,0,.53-.06.79l1.44.16c0,.33-.08.65-.14,1l-1.43-.25c-.05.26-.1.52-.16.78l1.42.32c-.08.32-.16.64-.25.95l-1.39-.41c-.08.25-.17.5-.26.75l1.38.49c-.11.3-.23.61-.36.91l-1.33-.57c-.1.25-.23.48-.34.72l1.31.64c-.15.29-.3.58-.46.87l-1.27-.72c-.13.23-.26.45-.41.67l1.23.79-.56.81-1.18-.87c-.15.22-.3.43-.47.64l1.12.91c-.21.26-.42.5-.64.74l-1.08-1c-.17.19-.35.39-.54.57l1,1c-.23.23-.48.45-.72.66l-.95-1.1-.62.5.9,1.15c-.26.2-.53.39-.8.58l-.81-1.2c-.22.15-.45.28-.67.42l.75,1.25c-.27.16-.56.33-.85.48l-.67-1.29-.71.34.6,1.33c-.29.13-.59.26-.9.38l-.52-1.36c-.25.1-.49.19-.74.27l.44,1.38c-.31.1-.62.19-.94.27l-.36-1.41-.77.2.29,1.41c-.32.06-.65.12-1,.16l-.2-1.44c-.26,0-.52.08-.78.1l.12,1.44c-.32,0-.65.05-1,.05l0-1.45-.38,0-.42,0,0,1.45c-.33,0-.66,0-1-.05l.13-1.44-.79-.1-.2,1.44c-.33-.05-.65-.1-1-.17l.29-1.41c-.26-.05-.51-.13-.77-.19l-.36,1.4c-.32-.08-.63-.17-.94-.27l.45-1.38-.75-.27L308,263c-.31-.11-.61-.24-.91-.38l.61-1.32c-.24-.11-.48-.22-.71-.35l-.68,1.29-.85-.49.76-1.24c-.23-.14-.45-.27-.67-.42l-.82,1.19c-.27-.18-.53-.38-.79-.58l.89-1.15c-.2-.16-.41-.32-.61-.5l-.95,1.1q-.37-.32-.72-.66l1-1c-.19-.18-.36-.38-.54-.57l-1.08,1c-.22-.24-.43-.49-.64-.74l1.13-.92c-.17-.2-.32-.42-.48-.63l-1.18.86c-.19-.26-.37-.53-.55-.81l1.23-.78c-.14-.22-.28-.45-.41-.68l-1.27.72q-.24-.42-.45-.87l1.31-.64a7.75,7.75,0,0,1-.34-.71l-1.33.57c-.13-.3-.25-.61-.36-.91l1.38-.49c-.09-.25-.18-.5-.25-.75l-1.39.41c-.09-.31-.18-.63-.25-.95l1.41-.32c-.06-.26-.1-.52-.15-.78l-1.43.25c-.06-.32-.1-.65-.14-1l1.43-.16c0-.26,0-.52-.05-.79l-1.45.08c0-.31,0-.62,0-.94v0h1.44c0-.27,0-.53,0-.79l-1.45-.08c0-.32,0-.65.08-1l1.43.16.12-.78-1.43-.24c.06-.32.12-.65.19-1l1.42.33c.06-.26.12-.52.2-.77l-1.39-.4q.14-.48.3-.93l1.37.49c.09-.25.17-.5.27-.75l-1.33-.56c.13-.3.27-.6.41-.89l1.31.65c.12-.24.23-.47.36-.7l-1.26-.72c.16-.28.33-.56.51-.83l1.22.79a7.49,7.49,0,0,1,.45-.65l-1.18-.86q.29-.39.6-.78l1.11.92c.17-.2.35-.39.53-.59l-1.07-1c.22-.24.45-.48.68-.7l1,1,.58-.53-.95-1.1c.24-.21.5-.42.76-.62l.88,1.16c.21-.16.42-.33.64-.48l-.82-1.19c.27-.18.54-.36.82-.53l.75,1.25.68-.4-.67-1.28c.28-.15.58-.29.87-.43l.6,1.33.73-.31-.53-1.36.92-.32.45,1.37c.25-.08.5-.14.76-.21l-.37-1.41c.31-.08.63-.16.95-.22l.28,1.41c.26,0,.52-.08.79-.12l-.21-1.44,1-.11.12,1.45a6.85,6.85,0,0,1,.79,0l0-1.46h.48m-13.45,18.86L306,249.3a8.45,8.45,0,0,1-.14-1.43,7.94,7.94,0,0,1,7.94-7.93,8.58,8.58,0,0,1,1.35.12l1.26-5.66a14.08,14.08,0,0,0-2.61-.25,13.74,13.74,0,0,0-13.73,13.72,13.27,13.27,0,0,0,.27,2.69m23.77,6.34a13.69,13.69,0,0,0-5.79-22l-1.74,5.52A7.92,7.92,0,0,1,319.86,253l4.26,3.91M307,249.08l4.16-.93a2.4,2.4,0,0,1,0-.28,2.68,2.68,0,0,1,2.68-2.67l.2,0,.93-4.17a7.08,7.08,0,0,0-1.13-.1,6.9,6.9,0,0,0-6.81,8.13m12.12,3.22a6.9,6.9,0,0,0-2.83-10.88L315,245.5a2.65,2.65,0,0,1,1,3.92l3.14,2.88m-5.31,2.49a6.85,6.85,0,0,0,4.31-1.52l-2.88-3.15a2.64,2.64,0,0,1-1.43.43,2.67,2.67,0,0,1-2.35-1.42l-4.08,1.28a6.92,6.92,0,0,0,6.43,4.38m0,6.81a13.67,13.67,0,0,0,8.92-3.32L318.81,254a7.92,7.92,0,0,1-12.4-3.3l-5.53,1.73a13.75,13.75,0,0,0,12.93,9.15m0-30.72h-.51a.78.78,0,0,0-.45.15.74.74,0,0,0-.39-.11h-.07l-1,.11a.9.9,0,0,0-.43.2.81.81,0,0,0-.31-.06l-.16,0c-.33.07-.67.14-1,.23a.76.76,0,0,0-.4.25.91.91,0,0,0-.23,0,.73.73,0,0,0-.25,0c-.32.1-.65.22-1,.34a.84.84,0,0,0-.37.3l-.13,0a.84.84,0,0,0-.34.08c-.31.14-.62.29-.92.45a.81.81,0,0,0-.33.33h0a.81.81,0,0,0-.42.12c-.29.18-.58.36-.87.56a.82.82,0,0,0-.29.37.79.79,0,0,0-.44.16l-.8.65a.85.85,0,0,0-.25.4.82.82,0,0,0-.42.22c-.25.24-.49.48-.72.74a.75.75,0,0,0-.2.42,1,1,0,0,0-.4.26c-.21.27-.42.54-.62.82a.82.82,0,0,0-.16.44.89.89,0,0,0-.36.31c-.19.29-.37.58-.53.88a.95.95,0,0,1-.43.81c-.15.31-.3.62-.43.94a.9.9,0,0,1-.33.85c-.12.32-.22.65-.32,1a.76.76,0,0,0,0,.47.82.82,0,0,0-.24.41c-.08.33-.15.67-.21,1a.94.94,0,0,0,.06.47.75.75,0,0,0-.18.43q-.06.51-.09,1a.79.79,0,0,0,.11.46.82.82,0,0,0-.14.45c0,.37,0,.7,0,1a.91.91,0,0,0,.16.45.81.81,0,0,0-.08.46c0,.34.08.68.14,1a.8.8,0,0,0,.21.42.94.94,0,0,0,0,.47c.08.34.17.67.26,1a.88.88,0,0,1,.28.87c.12.32.24.64.38.95a.79.79,0,0,0,.3.37.83.83,0,0,0,.07.46c.15.31.32.62.48.91a.85.85,0,0,0,.35.33.75.75,0,0,0,.12.45c.19.29.38.58.58.85a.91.91,0,0,1,.56.72c.22.27.44.53.67.78a.82.82,0,0,0,.41.24.84.84,0,0,0,.23.42l.75.69a.9.9,0,0,1,.71.58c.27.21.55.41.83.61a.9.9,0,0,1,.77.49c.29.18.59.35.89.51a.85.85,0,0,0,.38.09h.09a.81.81,0,0,0,.35.31c.31.15.63.28.95.41a1,1,0,0,0,.3,0,.5.5,0,0,0,.17,0,.85.85,0,0,0,.39.28l1,.29.21,0a.75.75,0,0,0,.26,0,.78.78,0,0,0,.42.22c.33.07.67.13,1,.18h.12a.85.85,0,0,0,.35-.08.82.82,0,0,0,.44.17l1,.06h0a.83.83,0,0,1,.86,0h0l1-.05a.9.9,0,0,0,.44-.18.85.85,0,0,0,.35.08h.12c.33,0,.67-.1,1-.17a.81.81,0,0,0,.42-.22.75.75,0,0,0,.26,0l.21,0c.33-.08.66-.18,1-.28a.91.91,0,0,0,.39-.27l.17,0a.8.8,0,0,0,.3-.06c.32-.12.63-.26.94-.4a.83.83,0,0,0,.36-.31h.08a.85.85,0,0,0,.38-.09l.9-.5a.77.77,0,0,0,.31-.36.73.73,0,0,0,.45-.14q.43-.29.84-.6a.86.86,0,0,0,.27-.38.81.81,0,0,0,.43-.2c.26-.22.52-.45.76-.69a.81.81,0,0,0,.23-.41.86.86,0,0,0,.41-.24c.23-.25.46-.51.67-.78a.74.74,0,0,0,.18-.43.83.83,0,0,0,.38-.29c.2-.27.4-.56.58-.85a.76.76,0,0,0,.13-.45.8.8,0,0,0,.35-.33c.17-.3.33-.6.48-.91a.94.94,0,0,1,.38-.83c.14-.31.26-.64.38-1a.9.9,0,0,1,.28-.87c.1-.32.19-.66.26-1a.93.93,0,0,1,.18-.9c.06-.33.11-.67.15-1a.84.84,0,0,0-.08-.47.81.81,0,0,0,.16-.44c0-.34,0-.69,0-1a.92.92,0,0,0-.14-.48.84.84,0,0,0,.11-.47c0-.34,0-.68-.08-1a.91.91,0,0,0-.19-.44.82.82,0,0,0,.06-.47c-.06-.33-.13-.67-.21-1a.8.8,0,0,0-.23-.41.87.87,0,0,0,0-.48c-.09-.32-.2-.65-.32-1a.74.74,0,0,0-.28-.37.79.79,0,0,0,0-.48c-.13-.31-.27-.62-.43-.93a.71.71,0,0,0-.32-.34.82.82,0,0,0-.1-.46c-.17-.3-.35-.6-.53-.88a.82.82,0,0,0-.36-.31.85.85,0,0,0-.16-.45q-.3-.41-.63-.81a.87.87,0,0,0-.39-.26.78.78,0,0,0-.2-.43c-.23-.25-.47-.5-.72-.73a.82.82,0,0,0-.42-.22.85.85,0,0,0-.25-.4l-.8-.65a.8.8,0,0,0-.44-.17.88.88,0,0,0-.3-.37l-.86-.56a.8.8,0,0,0-.42-.11h0a.86.86,0,0,0-.34-.34c-.3-.16-.61-.31-.92-.45a.8.8,0,0,0-.34-.07h-.13a.78.78,0,0,0-.37-.3c-.32-.12-.65-.24-1-.34a.77.77,0,0,0-.25,0,.91.91,0,0,0-.23,0,.76.76,0,0,0-.4-.25c-.33-.09-.67-.17-1-.23l-.16,0a.78.78,0,0,0-.31.06,1,1,0,0,0-.43-.2c-.34-.05-.68-.08-1-.11h-.07a.75.75,0,0,1-.84,0ZM301,249.57a13.73,13.73,0,0,1-.11-1.7,12.85,12.85,0,0,1,14.53-12.8l-.91,4.09a5.74,5.74,0,0,0-.71,0,8.76,8.76,0,0,0-8.75,8.75,7,7,0,0,0,0,.79l-4.09.91ZM317.59,240l1.26-4A12.88,12.88,0,0,1,324,255.71L321,252.89a8.73,8.73,0,0,0-3.38-12.9Zm-9.88,8.09v-.21a6.11,6.11,0,0,1,6.1-6.1h.13l-.59,2.64a3.51,3.51,0,0,0-3,3.09l-2.62.58Zm8.26-2.93.82-2.59a6.15,6.15,0,0,1,3.12,5.31,6.05,6.05,0,0,1-.92,3.21l-2-1.82a3.5,3.5,0,0,0,.29-1.39,3.45,3.45,0,0,0-1.33-2.72Zm-7.45,5.76,2.61-.82a3.45,3.45,0,0,0,2.68,1.27,3.54,3.54,0,0,0,1.24-.23l1.84,2a5.92,5.92,0,0,1-3.08.84,6.05,6.05,0,0,1-5.29-3.06ZM302,253l4-1.25a8.73,8.73,0,0,0,12.75,3.39l2.82,3.08A12.86,12.86,0,0,1,302,253Z" />
      <path class="GUNDAN_WEAPON_WEAPON_BACK_GUNDAN_WEAPON-14_cls-2" d="M329.67,340.73C319.41,381.1,297.32,430.52,216,483.41,134.7,430.52,112.59,381.1,102.33,340.73a22.42,22.42,0,0,1-15.22,5.94,22.74,22.74,0,0,1-6.22-.87c9.77,27.08,24.48,52.63,42,75.5,26.41,34.45,59,63.54,93.09,90.54,34.12-27,66.7-56.07,93.11-90.54,17.53-22.87,32.24-48.42,42-75.5a22.5,22.5,0,0,1-21.43-5.07Z" />
      <path class="GUNDAN_WEAPON_WEAPON_BACK_GUNDAN_WEAPON-14_cls-2" d="M351.13,288.73a188.75,188.75,0,0,0-.47-44.69h0a193.7,193.7,0,0,0-28.26-78.89c-.93-.45-1.87-.9-2.79-1.36q-13.92-6.89-27.18-15A347.54,347.54,0,0,1,216,85.39a348.11,348.11,0,0,1-76.44,63.37q-13.24,8.13-27.18,15c-.92.46-1.86.91-2.79,1.36A193.7,193.7,0,0,0,81.34,244h0a188.75,188.75,0,0,0-.47,44.69,66,66,0,0,1-12.66-4.06,199.15,199.15,0,0,0,2.72,23.89,22.4,22.4,0,0,1,16.18-6.88,22.68,22.68,0,0,1,8,1.45c-4.65-44.5,5.2-104.37,20.19-128,47.43-19,87.85-57.91,100.74-71.13,12.87,13.22,53.29,52.12,100.72,71.13,15,23.66,24.84,83.53,20.19,128a22.68,22.68,0,0,1,8-1.45,22.4,22.4,0,0,1,16.18,6.88,199.15,199.15,0,0,0,2.72-23.89A66,66,0,0,1,351.13,288.73Z" />
      <path class="GUNDAN_WEAPON_WEAPON_BACK_GUNDAN_WEAPON-14_cls-6" d="M310.15,343.57c1.07,2.29,2.45,4.34,3.66,6.57C297,397.8,261,438.07,216,461h0c-45-22.91-81-63.17-97.78-110.84,1.19-2.23,2.57-4.28,3.64-6.57,24-51.4,25.19-114.29,0-165.11a48.85,48.85,0,0,0,30.86,13.12,161.71,161.71,0,0,1,33.4-47,70.31,70.31,0,0,1,15.28-11.89A35.29,35.29,0,0,1,216,128.25a35.24,35.24,0,0,1,14.63,4.45,70.31,70.31,0,0,1,15.28,11.89,161.71,161.71,0,0,1,33.4,47,48.85,48.85,0,0,0,30.86-13.12C285,229.28,286.13,292.17,310.15,343.57Zm-22.31-113a10.71,10.71,0,0,0-17.13-12.85c-1.89,2.51-3.79,5-5.72,7.47-1.86-1.68-3.84-3.38-5.92-5.07a4.4,4.4,0,0,0-5.54,6.85c2.11,1.7,4.1,3.44,6,5.15-36.84,45.63-79.6,83.37-105,104.18-1.67-2.9-2.56-4.7-2.6-4.79a4.41,4.41,0,1,0-7.93,3.88c.12.25,1.34,2.71,3.59,6.52-9.36,7.49-15.06,11.67-15.28,11.82A10.71,10.71,0,0,0,144.9,371.1c.83-.6,6.27-4.57,14.9-11.42,1.95,2.45,4.08,5,6.37,7.49a4.41,4.41,0,0,0,6.52-5.94c-2.16-2.37-4.16-4.74-6-7.07,25.51-20.75,69.08-58.94,107.65-106.29,2.62,3.22,4.08,5.29,4.14,5.39a4.41,4.41,0,0,0,7.26-5c-.19-.27-2.19-3.16-5.76-7.43Q284,235.77,287.84,230.61Z" />
      <path class="GUNDAN_WEAPON_WEAPON_BACK_GUNDAN_WEAPON-14_cls-4" d="M315.27,92.06a117.55,117.55,0,0,1-22.84,56.7q13.24,8.13,27.18,15c.33-.5.63-1,.94-1.49a71.33,71.33,0,0,0,5.49-11c7.32,10.51,14.12,21.61,19.09,33.41,5.66,13.39,10.95,26.6,13.95,40.83-2.87,6.21-5.61,12.32-8.42,18.49h0a188.75,188.75,0,0,1,.47,44.69A66,66,0,0,0,374,279.12h0C373.5,213.14,351.55,147.15,315.27,92.06Z" />
      <path class="GUNDAN_WEAPON_WEAPON_BACK_GUNDAN_WEAPON-14_cls-4" d="M58,279.11h0a66,66,0,0,0,22.84,9.61A188.75,188.75,0,0,1,81.34,244h0c-2.81-6.17-5.55-12.28-8.42-18.49,3-14.23,8.29-27.44,14-40.83,5-11.8,11.77-22.9,19.09-33.41a71.33,71.33,0,0,0,5.49,11c.31.5.61,1,.94,1.49q13.92-6.89,27.18-15a117.55,117.55,0,0,1-22.84-56.7C80.45,147.15,58.5,213.14,58,279.11Z" />
      <path class="GUNDAN_WEAPON_WEAPON_BACK_GUNDAN_WEAPON-14_cls-7" d="M216,85.39a348.11,348.11,0,0,1-76.44,63.37q-13.24,8.13-27.18,15c-.92.46-1.86.91-2.79,1.36" />
      <path class="GUNDAN_WEAPON_WEAPON_BACK_GUNDAN_WEAPON-14_cls-7" d="M139.57,148.76a117.55,117.55,0,0,1-22.84-56.7C80.45,147.15,58.5,213.14,58,279.11" />
      <path class="GUNDAN_WEAPON_WEAPON_BACK_GUNDAN_WEAPON-14_cls-7" d="M58,279.11h0a66.53,66.53,0,0,0,22.84,9.61" />
      <path class="GUNDAN_WEAPON_WEAPON_BACK_GUNDAN_WEAPON-14_cls-7" d="M81.34,244a193.7,193.7,0,0,1,28.26-78.89l5.67,10" />
      <path class="GUNDAN_WEAPON_WEAPON_BACK_GUNDAN_WEAPON-14_cls-7" d="M80.87,288.73A188.75,188.75,0,0,1,81.34,244" />
      <path class="GUNDAN_WEAPON_WEAPON_BACK_GUNDAN_WEAPON-14_cls-7" d="M80.89,345.8c9.77,27.08,24.48,52.63,42,75.5,26.41,34.45,59,63.54,93.09,90.54" />
      <path class="GUNDAN_WEAPON_WEAPON_BACK_GUNDAN_WEAPON-14_cls-7" d="M70.93,308.57h0a199.08,199.08,0,0,1-2.72-23.9" />
      <path class="GUNDAN_WEAPON_WEAPON_BACK_GUNDAN_WEAPON-14_cls-7" d="M112.39,163.78c-.33-.5-.63-1-.94-1.49a71.33,71.33,0,0,1-5.49-11c-7.32,10.51-14.12,21.61-19.09,33.41-5.66,13.39-11,26.6-14,40.83,2.87,6.21,5.61,12.32,8.42,18.49h0" />
      <path class="GUNDAN_WEAPON_WEAPON_BACK_GUNDAN_WEAPON-14_cls-7" d="M216,128.25a35.29,35.29,0,0,0-14.65,4.45,70.31,70.31,0,0,0-15.28,11.89,161.71,161.71,0,0,0-33.4,47,48.85,48.85,0,0,1-30.86-13.12c25.22,50.82,24.05,113.71,0,165.11-1.07,2.29-2.45,4.34-3.64,6.57C135,397.81,171,438.07,216,461" />
      <path class="GUNDAN_WEAPON_WEAPON_BACK_GUNDAN_WEAPON-14_cls-7" d="M102.33,340.73C112.59,381.1,134.7,430.52,216,483.41" />
      <path class="GUNDAN_WEAPON_WEAPON_BACK_GUNDAN_WEAPON-14_cls-7" d="M216,104c-12.89,13.22-53.31,52.12-100.74,71.13-15,23.66-24.84,83.53-20.19,128" />
      <path class="GUNDAN_WEAPON_WEAPON_BACK_GUNDAN_WEAPON-14_cls-7" d="M80.89,345.8a22.74,22.74,0,0,0,6.22.87,22.5,22.5,0,0,0,8-43.54,22.68,22.68,0,0,0-8-1.45,22.4,22.4,0,0,0-16.18,6.88s0,0,0,0" />
      <path class="GUNDAN_WEAPON_WEAPON_BACK_GUNDAN_WEAPON-14_cls-7" d="M322.4,165.14c-.93-.45-1.87-.9-2.79-1.36q-13.92-6.89-27.18-15A347.54,347.54,0,0,1,216,85.39" />
      <path class="GUNDAN_WEAPON_WEAPON_BACK_GUNDAN_WEAPON-14_cls-7" d="M374,279.11c-.47-66-22.42-132-58.7-187a117.55,117.55,0,0,1-22.84,56.7" />
      <path class="GUNDAN_WEAPON_WEAPON_BACK_GUNDAN_WEAPON-14_cls-7" d="M351.13,288.73A66.53,66.53,0,0,0,374,279.12h0" />
      <path class="GUNDAN_WEAPON_WEAPON_BACK_GUNDAN_WEAPON-14_cls-7" d="M350.66,244a188.75,188.75,0,0,1,.47,44.69" />
      <path class="GUNDAN_WEAPON_WEAPON_BACK_GUNDAN_WEAPON-14_cls-7" d="M316.73,175.1l5.67-10A193.7,193.7,0,0,1,350.66,244" />
      <path class="GUNDAN_WEAPON_WEAPON_BACK_GUNDAN_WEAPON-14_cls-7" d="M216,511.84c34.12-27,66.7-56.08,93.11-90.54,17.53-22.87,32.24-48.42,42-75.5" />
      <path class="GUNDAN_WEAPON_WEAPON_BACK_GUNDAN_WEAPON-14_cls-7" d="M363.79,284.66a199.08,199.08,0,0,1-2.72,23.9h0" />
      <path class="GUNDAN_WEAPON_WEAPON_BACK_GUNDAN_WEAPON-14_cls-7" d="M350.66,244h0c2.81-6.17,5.55-12.28,8.42-18.49-3-14.23-8.29-27.44-13.95-40.83-5-11.8-11.77-22.9-19.09-33.41a71.33,71.33,0,0,1-5.49,11c-.31.5-.61,1-.94,1.49" />
      <path class="GUNDAN_WEAPON_WEAPON_BACK_GUNDAN_WEAPON-14_cls-7" d="M216,128.25a35.24,35.24,0,0,1,14.63,4.45,70.31,70.31,0,0,1,15.28,11.89,161.71,161.71,0,0,1,33.4,47,48.85,48.85,0,0,0,30.86-13.12c-25.21,50.82-24.05,113.71,0,165.11,1.07,2.29,2.45,4.34,3.66,6.57C297,397.8,261,438.07,216,461h0" />
      <path class="GUNDAN_WEAPON_WEAPON_BACK_GUNDAN_WEAPON-14_cls-7" d="M216,483.41c81.31-52.89,103.4-102.31,113.66-142.68" />
      <path class="GUNDAN_WEAPON_WEAPON_BACK_GUNDAN_WEAPON-14_cls-7" d="M336.92,303.13c4.65-44.5-5.2-104.37-20.19-128C269.3,156.09,228.88,117.19,216,104" />
      <path class="GUNDAN_WEAPON_WEAPON_BACK_GUNDAN_WEAPON-14_cls-7" d="M361.07,308.57s0,0,0,0a22.4,22.4,0,0,0-16.18-6.88,22.46,22.46,0,0,0-22.49,22.49,22.5,22.5,0,0,0,28.7,21.63" />
      <path class="GUNDAN_WEAPON_WEAPON_BACK_GUNDAN_WEAPON-14_cls-7" d="M265,225.23c1.93-2.46,3.83-5,5.72-7.47a10.71,10.71,0,0,1,17.13,12.85Q284,235.77,280,240.82" />
      <path class="GUNDAN_WEAPON_WEAPON_BACK_GUNDAN_WEAPON-14_cls-7" d="M154.53,336.34c25.37-20.81,68.13-58.55,105-104.18" />
      <path class="GUNDAN_WEAPON_WEAPON_BACK_GUNDAN_WEAPON-14_cls-7" d="M166.68,354.16c25.51-20.75,69.08-58.94,107.65-106.29" />
      <path class="GUNDAN_WEAPON_WEAPON_BACK_GUNDAN_WEAPON-14_cls-7" d="M147.59,342c-9.36,7.49-15.06,11.67-15.28,11.82A10.71,10.71,0,0,0,144.9,371.1c.83-.6,6.27-4.57,14.9-11.42" />
      <path class="GUNDAN_WEAPON_WEAPON_BACK_GUNDAN_WEAPON-14_cls-7" d="M166.68,354.16c1.85,2.33,3.85,4.7,6,7.07a4.41,4.41,0,0,1-6.52,5.94c-2.29-2.52-4.42-5-6.37-7.49A157.43,157.43,0,0,1,147.59,342c-2.25-3.81-3.47-6.27-3.59-6.52a4.41,4.41,0,1,1,7.93-3.88c0,.09.93,1.89,2.6,4.79A153.35,153.35,0,0,0,166.68,354.16Z" />
      <path class="GUNDAN_WEAPON_WEAPON_BACK_GUNDAN_WEAPON-14_cls-7" d="M280,240.82c3.57,4.27,5.57,7.16,5.76,7.43a4.41,4.41,0,0,1-7.26,5c-.06-.1-1.52-2.17-4.14-5.39a150.81,150.81,0,0,0-14.83-15.71c-1.87-1.71-3.86-3.45-6-5.15a4.4,4.4,0,0,1,5.54-6.85c2.08,1.69,4.06,3.39,5.92,5.07A159.72,159.72,0,0,1,280,240.82Z" />
      <path class="GUNDAN_WEAPON_WEAPON_BACK_GUNDAN_WEAPON-14_cls-8" d="M216,435.66a6.78,6.78,0,1,1,6.79-6.78A6.79,6.79,0,0,1,216,435.66Z" />
      <path d="M216,422.68a6.2,6.2,0,1,1-6.2,6.2,6.21,6.21,0,0,1,6.2-6.2m0-1.16a7.36,7.36,0,1,0,7.37,7.36,7.37,7.37,0,0,0-7.37-7.36Z" />
      <path class="GUNDAN_WEAPON_WEAPON_BACK_GUNDAN_WEAPON-14_cls-8" d="M214.6,449.35c-.47,0-.94-.08-1.4-.14a.57.57,0,0,1-.49-.65l.17-1.28a17.62,17.62,0,0,1-2.58-.62l-.43,1.21a.58.58,0,0,1-.3.33.54.54,0,0,1-.25.06.48.48,0,0,1-.2,0c-.43-.15-.87-.32-1.3-.51a.61.61,0,0,1-.31-.32.56.56,0,0,1,0-.44l.51-1.18a17.83,17.83,0,0,1-2.32-1.31l-.74,1.05a.6.6,0,0,1-.38.24h-.1a.57.57,0,0,1-.33-.11c-.38-.27-.76-.55-1.12-.85a.56.56,0,0,1-.21-.39A.59.59,0,0,1,203,444l.81-1a18.64,18.64,0,0,1-1.89-1.88l-1,.8a.54.54,0,0,1-.37.13h-.05a.57.57,0,0,1-.4-.21q-.44-.54-.84-1.11a.57.57,0,0,1,.14-.81l1-.75a17.64,17.64,0,0,1-1.32-2.31l-1.17.52a.62.62,0,0,1-.23,0,.57.57,0,0,1-.53-.34c-.19-.43-.36-.87-.52-1.31A.58.58,0,0,1,197,435l1.22-.43a19.44,19.44,0,0,1-.64-2.58l-1.27.17h-.08a.57.57,0,0,1-.57-.5c-.07-.46-.12-.93-.15-1.4a.6.6,0,0,1,.14-.42.62.62,0,0,1,.4-.2l1.28-.08q0-.36,0-.72a17.08,17.08,0,0,1,.12-1.94l-1.27-.17a.57.57,0,0,1-.39-.23.59.59,0,0,1-.11-.43c.06-.46.14-.92.23-1.38a.6.6,0,0,1,.57-.46h.12l1.24.26a19.22,19.22,0,0,1,.81-2.54l-1.17-.51a.58.58,0,0,1-.3-.76c.18-.43.39-.86.6-1.27a.58.58,0,0,1,.34-.29l.17,0a.6.6,0,0,1,.27.06l1.14.59a19.9,19.9,0,0,1,1.46-2.23l-1-.8a.61.61,0,0,1-.21-.4.59.59,0,0,1,.13-.42c.29-.36.6-.72.92-1.06a.58.58,0,0,1,.42-.18.59.59,0,0,1,.4.15l.94.88a19.42,19.42,0,0,1,2-1.75l-.74-1.05a.58.58,0,0,1,.13-.81c.38-.27.78-.52,1.17-.77a.65.65,0,0,1,.31-.08h.13a.6.6,0,0,1,.36.26l.68,1.11a17,17,0,0,1,2.39-1.15l-.44-1.22a.56.56,0,0,1,0-.44.55.55,0,0,1,.33-.3c.43-.15.88-.3,1.33-.42a.45.45,0,0,1,.16,0,.57.57,0,0,1,.28.08.58.58,0,0,1,.28.35l.34,1.23a19.26,19.26,0,0,1,2.63-.45L214,409a.58.58,0,0,1,.14-.42.56.56,0,0,1,.4-.2c.46,0,.93-.05,1.39-.05h0a.58.58,0,0,1,.58.58v1.27a17.89,17.89,0,0,1,2.65.26l.25-1.24a.59.59,0,0,1,.25-.37.62.62,0,0,1,.32-.09h.12c.45.09.91.2,1.36.33a.57.57,0,0,1,.4.71l-.34,1.24a18.5,18.5,0,0,1,2.48,1l.59-1.14a.57.57,0,0,1,.51-.32.68.68,0,0,1,.27.07c.41.21.82.44,1.22.68a.6.6,0,0,1,.2.8l-.67,1.11a19.3,19.3,0,0,1,2.12,1.6l.88-.94a.56.56,0,0,1,.4-.19h0a.59.59,0,0,1,.4.16c.34.31.67.65,1,1a.57.57,0,0,1,0,.81l-1,.89a17.29,17.29,0,0,1,1.61,2.11l1.11-.67a.53.53,0,0,1,.3-.09l.13,0a.56.56,0,0,1,.36.26,13.22,13.22,0,0,1,.69,1.22.58.58,0,0,1-.24.78l-1.14.59a19.53,19.53,0,0,1,1,2.47l1.24-.35.15,0a.6.6,0,0,1,.29.08.57.57,0,0,1,.27.34c.13.45.24.91.34,1.37a.59.59,0,0,1-.45.68l-1.25.26a18.19,18.19,0,0,1,.28,2.65h1.27a.58.58,0,0,1,.58.58c0,.51,0,1-.05,1.45a.58.58,0,0,1-.19.39.55.55,0,0,1-.38.15l-1.33-.09a17.47,17.47,0,0,1-.44,2.62l1.23.35a.58.58,0,0,1,.41.71c-.13.45-.27.9-.43,1.34a.63.63,0,0,1-.29.33.57.57,0,0,1-.25.06.71.71,0,0,1-.2,0l-1.21-.43a19.57,19.57,0,0,1-1.15,2.4l1.1.68a.57.57,0,0,1,.2.79,13.21,13.21,0,0,1-.78,1.17.57.57,0,0,1-.47.25.59.59,0,0,1-.33-.11l-1.05-.74a18.39,18.39,0,0,1-1.76,2l.89.94a.58.58,0,0,1,0,.82c-.34.32-.7.63-1.06.93a.59.59,0,0,1-.36.13.58.58,0,0,1-.45-.22l-.81-1a19.77,19.77,0,0,1-2.22,1.46l.59,1.14a.57.57,0,0,1-.25.78c-.41.21-.84.42-1.26.6a.68.68,0,0,1-.23.05.59.59,0,0,1-.54-.35l-.51-1.17a19.56,19.56,0,0,1-2.53.81l.26,1.24a.61.61,0,0,1-.08.44.59.59,0,0,1-.37.25q-.69.15-1.38.24h-.08a.61.61,0,0,1-.35-.11.59.59,0,0,1-.23-.39l-.17-1.27a17.76,17.76,0,0,1-2,.12l-.68,0-.08,1.27a.64.64,0,0,1-.2.4.59.59,0,0,1-.38.14ZM216,414.47a14.41,14.41,0,1,0,14.41,14.41A14.43,14.43,0,0,0,216,414.47Z" />
      <path d="M215.94,408.94v1.84h0a17.59,17.59,0,0,1,3.65.37l.37-1.8c.44.09.89.19,1.32.31l-.49,1.79a18.63,18.63,0,0,1,3.44,1.35l.85-1.65c.4.21.8.44,1.19.67l-1,1.59a18.86,18.86,0,0,1,2.94,2.24l1.27-1.37c.33.31.66.63,1,1l-1.36,1.28a18.32,18.32,0,0,1,2.24,2.93l1.59-1c.23.39.46.78.67,1.19l-1.64.85a18.66,18.66,0,0,1,1.36,3.44l1.78-.51c.13.44.24.88.33,1.33l-1.8.37a17.88,17.88,0,0,1,.38,3.68h1.84v.05c0,.45,0,.91,0,1.36l-1.86-.13a17.52,17.52,0,0,1-.62,3.65l1.79.5c-.12.43-.26.87-.41,1.29l-1.76-.62a18,18,0,0,1-1.59,3.34l1.59,1c-.23.39-.49.77-.75,1.14l-1.51-1.07a18.48,18.48,0,0,1-2.44,2.78l1.27,1.36q-.5.46-1,.9l-1.17-1.44a18.31,18.31,0,0,1-3.09,2l.85,1.64c-.4.21-.81.41-1.22.59l-.74-1.7a17.63,17.63,0,0,1-3.52,1.13l.37,1.8c-.44.09-.89.17-1.34.23l-.25-1.84A18.44,18.44,0,0,1,216,447c-.41,0-.81,0-1.22-.06l-.12,1.85c-.46,0-.91-.07-1.36-.13l.25-1.84a17.94,17.94,0,0,1-3.59-.88l-.62,1.76c-.43-.15-.85-.32-1.27-.5l.74-1.7a18,18,0,0,1-3.23-1.82l-1.07,1.52c-.37-.26-.73-.54-1.08-.83l1.17-1.43a18.47,18.47,0,0,1-2.62-2.61l-1.44,1.16c-.28-.35-.56-.71-.82-1.08l1.52-1.07a18.21,18.21,0,0,1-1.83-3.22l-1.69.74c-.18-.41-.35-.84-.5-1.26L199,435a17.61,17.61,0,0,1-.88-3.59l-1.84.26c-.06-.45-.11-.9-.14-1.36l1.85-.12c0-.42-.06-.84-.06-1.26a19.59,19.59,0,0,1,.18-2.44l-1.84-.25c.06-.45.14-.9.23-1.34l1.8.37a17.72,17.72,0,0,1,1.13-3.53l-1.7-.73c.18-.42.38-.83.58-1.23l1.65.85a18.18,18.18,0,0,1,2-3.1l-1.44-1.16c.28-.36.59-.7.89-1l1.37,1.27a18.48,18.48,0,0,1,2.78-2.44l-1.08-1.51q.56-.41,1.14-.75l1,1.59a17.92,17.92,0,0,1,3.33-1.6l-.63-1.75c.43-.15.86-.29,1.3-.42l.5,1.79a18.23,18.23,0,0,1,3.64-.63l-.12-1.85c.44,0,.9-.05,1.35-.05m0,34.93a15,15,0,1,0-15-15,15,15,0,0,0,15,15m0-36.09h0c-.47,0-1,0-1.43.05a1.13,1.13,0,0,0-.8.4,1.16,1.16,0,0,0-.28.84l0,.73c-.54.07-1.07.16-1.6.27l-.19-.7a1.21,1.21,0,0,0-.55-.7,1.16,1.16,0,0,0-.57-.15,1.19,1.19,0,0,0-.32.05c-.46.13-.92.27-1.37.44a1.15,1.15,0,0,0-.7,1.48l.25.69c-.5.22-1,.45-1.46.7l-.38-.63a1.15,1.15,0,0,0-1-.55,1.12,1.12,0,0,0-.6.17c-.41.25-.81.51-1.2.79a1.17,1.17,0,0,0-.28,1.62l.43.6c-.42.33-.82.69-1.22,1.06l-.54-.5a1.14,1.14,0,0,0-.79-.31h0a1.14,1.14,0,0,0-.81.37c-.32.35-.64.71-.94,1.08a1.16,1.16,0,0,0,.17,1.64l.56.45c-.31.44-.61.89-.88,1.36l-.65-.33a1.15,1.15,0,0,0-.53-.13,1.17,1.17,0,0,0-1,.62c-.22.43-.42.87-.62,1.31a1.17,1.17,0,0,0,0,.88,1.15,1.15,0,0,0,.62.64l.66.29c-.19.51-.35,1-.49,1.55l-.71-.15-.23,0a1.23,1.23,0,0,0-.64.19,1.24,1.24,0,0,0-.5.74c-.09.47-.17.95-.24,1.42a1.16,1.16,0,0,0,1,1.3l.71.1c0,.51-.06,1-.06,1.44v.18l-.71.05a1.15,1.15,0,0,0-1.08,1.23c0,.48.09,1,.15,1.43a1.16,1.16,0,0,0,1.15,1h.16l.72-.1c.11.53.24,1.05.39,1.57l-.69.25a1.16,1.16,0,0,0-.71,1.48c.16.45.34.9.53,1.34a1.19,1.19,0,0,0,.64.61,1.06,1.06,0,0,0,.43.08,1.22,1.22,0,0,0,.46-.09l.67-.29c.24.47.51.94.8,1.4l-.6.42a1.17,1.17,0,0,0-.28,1.62c.28.39.57.78.88,1.15a1.17,1.17,0,0,0,1.63.16l.56-.45c.36.39.75.77,1.15,1.14l-.46.56a1.15,1.15,0,0,0,.17,1.63c.37.31.75.6,1.14.88a1.2,1.2,0,0,0,.67.21,1.14,1.14,0,0,0,.95-.49l.42-.6c.46.29.94.56,1.41.8l-.28.67a1.12,1.12,0,0,0,0,.88,1.15,1.15,0,0,0,.62.64c.44.19.89.37,1.34.53a1.07,1.07,0,0,0,.39.07,1.16,1.16,0,0,0,1.09-.78l.25-.69c.52.15,1,.28,1.57.38l-.1.73a1.17,1.17,0,0,0,1,1.31c.47.06,1,.11,1.43.14h.08a1.14,1.14,0,0,0,1.15-1.08l.05-.71H216c.48,0,1,0,1.48-.07l.1.72a1.14,1.14,0,0,0,.45.77,1.17,1.17,0,0,0,.7.23h.15c.48-.06,1-.14,1.43-.24a1.17,1.17,0,0,0,.9-1.37l-.15-.7c.52-.15,1-.31,1.54-.5l.29.66a1.15,1.15,0,0,0,.64.62,1.26,1.26,0,0,0,.43.08,1.09,1.09,0,0,0,.46-.1c.44-.19.87-.4,1.3-.62a1.14,1.14,0,0,0,.57-.68,1.17,1.17,0,0,0-.08-.88l-.33-.65c.46-.28.92-.57,1.35-.88l.46.56a1.13,1.13,0,0,0,.78.42h.12a1.18,1.18,0,0,0,.73-.27c.37-.3.74-.62,1.08-.94a1.16,1.16,0,0,0,.06-1.64l-.5-.54c.37-.39.73-.8,1.06-1.22l.6.43a1.2,1.2,0,0,0,.67.21,1.16,1.16,0,0,0,.95-.49c.28-.39.54-.8.79-1.21a1.15,1.15,0,0,0-.39-1.59l-.63-.38c.26-.48.49-1,.7-1.47l.7.25a1.34,1.34,0,0,0,.39.07,1.17,1.17,0,0,0,1.09-.78c.16-.45.31-.91.44-1.37a1.16,1.16,0,0,0-.81-1.43l-.7-.2c.11-.52.2-1.06.27-1.59l.73,0h.08a1.13,1.13,0,0,0,.76-.29,1.16,1.16,0,0,0,.39-.79c0-.48.05-1,.05-1.44v-.06a1.15,1.15,0,0,0-1.16-1.15h-.71c0-.54-.1-1.08-.17-1.61l.7-.15a1.14,1.14,0,0,0,.73-.5,1.12,1.12,0,0,0,.16-.87c-.09-.47-.21-.94-.34-1.4a1.17,1.17,0,0,0-1.12-.85,1.12,1.12,0,0,0-.31,0l-.7.19q-.27-.76-.6-1.5l.65-.34a1.16,1.16,0,0,0,.49-1.56c-.22-.43-.46-.85-.71-1.25a1.16,1.16,0,0,0-1-.56,1.22,1.22,0,0,0-.61.17l-.63.39c-.31-.45-.63-.87-1-1.29l.54-.5a1.14,1.14,0,0,0,.37-.81,1.15,1.15,0,0,0-.32-.83c-.32-.35-.67-.69-1-1a1.13,1.13,0,0,0-.79-.31,1.18,1.18,0,0,0-.85.37l-.5.54c-.41-.34-.85-.67-1.29-1l.38-.64a1.15,1.15,0,0,0-.39-1.59c-.41-.25-.83-.49-1.25-.71a1.3,1.3,0,0,0-.54-.13,1.16,1.16,0,0,0-1,.63l-.33.65c-.5-.22-1-.41-1.51-.59l.19-.71a1.13,1.13,0,0,0-.11-.88,1.16,1.16,0,0,0-.7-.54c-.46-.13-.93-.25-1.4-.34a.91.91,0,0,0-.23,0,1.16,1.16,0,0,0-1.14.93l-.14.7c-.53-.08-1.07-.13-1.61-.16v-.71a1.2,1.2,0,0,0-.35-.82,1.13,1.13,0,0,0-.82-.34Zm0,34.93a13.83,13.83,0,1,1,13.83-13.83A13.84,13.84,0,0,1,216,442.71Z" />
      <g class="GUNDAN_WEAPON_WEAPON_BACK_GUNDAN_WEAPON-14_cls-9">
        <path d="M216,85.39V104s-20.66,21-37.55,32.88c9.09-8.79,24.94-25.73,24.94-25.73S160.25,146.41,145,156a231.71,231.71,0,0,1-31.45,16.1l-3.18-7.28s16-8.68,33-18.8S201.76,103.76,216,85.39Z" />
        <path d="M105.81,107.81s4.84,39.77,13.65,52.39l-7.44,3L106,151.3s-16.3,17-27.89,44.57S64.72,254,64.72,254s-4.17-20,3.49-52.41S101.11,116.62,105.81,107.81Z" />
        <path d="M81.56,242.35s3.38,46.83,13.52,60.78c-17-4.24-25.63,0-25.63,0l-1.17-17.27,12.27,2.8S78,252.15,81.56,242.35Z" />
        <path d="M216,128.25S188.84,241.17,213.8,326.9s35.32,156.51,35.32,156.51L216,511.84S146.93,457,120.87,418.61c34.25,35.18,73.65,51.25,73.65,51.25S112.21,409.49,103.14,340c16.54,37.67,42.51,61,42.51,61s-25.55-36.61-27-51.66c7.95-16.89-.62-89.6-8.18-113.41s-8.12-27.11-8.12-27.11L115,174.59s28.47-12.92,43-21.5S200.62,125.65,216,128.25Z" />
        <path d="M95.1,253.25s-2.36,34.45.87,50.24c8.22,4.72,13.32,13.33,13.56,18.86C111.38,289.86,97,260.29,95.1,253.25Z" />
      </g>
    </g>
    <g id="weapon_back" data-name="weapon back">
      <path class="GUNDAN_WEAPON_WEAPON_BACK_GUNDAN_WEAPON-14_cls-10" d="M172.64,392.5l1.29,3.08a5.84,5.84,0,0,1,.44,2.3,5.45,5.45,0,0,1,1.43,3.1,5.53,5.53,0,0,1-10.64,2.7,6.79,6.79,0,0,1-.35-1.36c0-.15,0-.29,0-.43a5.74,5.74,0,0,1-1.33-1.93l-1.28-3.07,0,0L160,396l-.9,2.1,2.15.92a9,9,0,0,0-.37,2.61l-1.55.18-.76.09.27,2.28,2.32-.28a8.79,8.79,0,0,0,1,2.43l-1.86,1.41,1.38,1.83,1.85-1.4a9.55,9.55,0,0,0,2.08,1.62l-.91,2.15,2.11.89.91-2.14a9,9,0,0,0,2.61.37l.28,2.31,2.27-.28-.27-2.31.54-.15.54-.18a8.91,8.91,0,0,0,1.36-.64l1.29,1.72.1.13.08-.06,1.76-1.32-1.4-1.86a9.86,9.86,0,0,0,1.63-2.06l2.13.9.44-1,.46-1.08-2.14-.91a7.36,7.36,0,0,0,.25-1.13,10.41,10.41,0,0,0,.12-1.47l2.3-.29-.27-2.28-2.31.29a9.64,9.64,0,0,0-1-2.44l1.85-1.41L179,393.71l-1.86,1.39a9.85,9.85,0,0,0-2.07-1.63l.91-2.13-2.11-.9-.91,2.14Z" />
      <path class="GUNDAN_WEAPON_WEAPON_BACK_GUNDAN_WEAPON-14_cls-11" d="M162.17,396.89l1.28,3.07a5.67,5.67,0,0,0,7.43,3,5.68,5.68,0,0,0,3.49-5.12,5.84,5.84,0,0,0-.44-2.3l-1.29-3.08L147.5,332.35,137,336.73Z" />
      <path class="GUNDAN_WEAPON_WEAPON_BACK_GUNDAN_WEAPON-14_cls-12" d="M134.89,331.63a2.76,2.76,0,0,0,2.13,5.1l10.48-4.38a2.76,2.76,0,0,0-2.13-5.1Z" />
      <rect class="GUNDAN_WEAPON_WEAPON_BACK_GUNDAN_WEAPON-14_cls-13" x="125.61" y="285.37" width="11.36" height="45.85" transform="translate(-108.73 74.47) rotate(-22.68)" />
      <path class="GUNDAN_WEAPON_WEAPON_BACK_GUNDAN_WEAPON-14_cls-12" d="M115.08,284.23a2.76,2.76,0,1,0,2.13,5.1L127.69,285a2.77,2.77,0,0,0,1.48-3.62,2.74,2.74,0,0,0-1.5-1.49,2.8,2.8,0,0,0-2.11,0l-.18.08Z" />
      <polygon class="GUNDAN_WEAPON_WEAPON_BACK_GUNDAN_WEAPON-14_cls-11" points="98.69 250.29 114.98 284.27 115.08 284.23 125.38 279.93 115.56 256.43 113.33 251.09 110.86 245.2 110.85 245.21 100.58 249.5 98.69 250.29" />
      <path class="GUNDAN_WEAPON_WEAPON_BACK_GUNDAN_WEAPON-14_cls-10" d="M119.52,230.54a12.87,12.87,0,0,1-1.12,1,11.55,11.55,0,0,1-7.31,2.29l-.08,2.59a4.79,4.79,0,0,0-3.46-.29l.78-2.73a11.46,11.46,0,0,1-3.11-1.41l-5-12a3.89,3.89,0,0,1,.12-.49,1.74,1.74,0,0,1,.07-.29,8.45,8.45,0,0,1,.31-.93c0-.15.11-.3.17-.45a11.36,11.36,0,0,1,.83-1.58l-4.14-2.58-4.18-10L103.44,214a11.74,11.74,0,0,1,1.12-1,11.41,11.41,0,0,1,7.31-2.29l.58-17.35a29,29,0,0,0-20.26,7.38L90,195.41a33.53,33.53,0,0,1,5.35-3.5L92.24,184l7.79-3,3.06,7.89a37.11,37.11,0,0,1,5-.88,34.85,34.85,0,0,1,4.57-.16l1.3-8.35,8.29,1.28-1.33,8.38a34.85,34.85,0,0,1,8.78,3.89l5.32-6.59,6.51,5.23-5.31,6.63a32.94,32.94,0,0,1,5.64,7.75l7.93-3.06,3,7.82-7.92,3.05a33,33,0,0,1,.9,5.32,29.67,29.67,0,0,1,.12,4.22l8.39,1.32-.66,4.23-.66,4-8.35-1.33a35.31,35.31,0,0,1-3.89,8.79l6.58,5.31-5,6.23-.25.29-.46-.35-6.12-5a31,31,0,0,1-4.23,3.46,19,19,0,0,1-1.74,1.12c-.6.38-1.19.72-1.8,1l3,7.9-7.79,3-3.07-7.9a32.39,32.39,0,0,1-4.31.82h0l-2.24-5.34h0a29.09,29.09,0,0,0,8.57-1.89,28.61,28.61,0,0,0,9.69-6.2ZM117.05,228a7.68,7.68,0,0,0,1.22-1.52,8,8,0,0,0,1-6.17,8.47,8.47,0,0,0-.71-1.82,7.42,7.42,0,0,0-.65-1,8,8,0,0,0-11.19-1.6,6.18,6.18,0,0,0-.78.66,8,8,0,0,0-2.18,7.69,7.29,7.29,0,0,0,.7,1.81,6.15,6.15,0,0,0,.65,1,7.92,7.92,0,0,0,4.21,2.9,7.84,7.84,0,0,0,1.92.3,8,8,0,0,0,5.06-1.59A10.05,10.05,0,0,0,117.05,228Zm5.62-8.56a11.56,11.56,0,0,1-1.39,8.92L136,237.52h0a28.77,28.77,0,0,0,3.49-22.3Zm-2-4.11a10.8,10.8,0,0,1,1,1.5L137,208.67a28.86,28.86,0,0,0-17.57-14.2l-4.75,16.69A11.43,11.43,0,0,1,120.71,215.33Z" />
      <path class="GUNDAN_WEAPON_WEAPON_BACK_GUNDAN_WEAPON-14_cls-13" d="M110.22,238a3.07,3.07,0,1,1-4.09,1.45A3.07,3.07,0,0,1,110.22,238Z" />
      <path class="GUNDAN_WEAPON_WEAPON_BACK_GUNDAN_WEAPON-14_cls-13" d="M75.14,193.94A3.07,3.07,0,1,1,76.59,198,3.07,3.07,0,0,1,75.14,193.94Z" />
      <path class="GUNDAN_WEAPON_WEAPON_BACK_GUNDAN_WEAPON-14_cls-14" d="M61.88,156.92l5,11.88A52.87,52.87,0,0,0,80,176.71a37.39,37.39,0,0,1,1-9.82C70.67,167.27,61.88,156.92,61.88,156.92Z" />
      <path class="GUNDAN_WEAPON_WEAPON_BACK_GUNDAN_WEAPON-14_cls-13" d="M66.85,168.8l7.81,18.69L81,184.83a40.78,40.78,0,0,1-1-8.12A52.87,52.87,0,0,1,66.85,168.8Z" />
      <polygon class="GUNDAN_WEAPON_WEAPON_BACK_GUNDAN_WEAPON-14_cls-11" points="73.72 187.88 75.1 191.16 76.03 190.77 84.57 187.2 83.2 183.92 81.02 184.83 74.66 187.49 73.72 187.88" />
      <path class="GUNDAN_WEAPON_WEAPON_BACK_GUNDAN_WEAPON-14_cls-12" d="M80.68,196.58A3.07,3.07,0,1,0,76.59,198,3.08,3.08,0,0,0,80.68,196.58Zm32.71,42.3a4.88,4.88,0,0,1-2.54,6.33l-10.27,4.29-20.8-49.75a4.87,4.87,0,0,1-3.75-9l8.54-3.57,1.66-.69,3.72,8.9,2.24,5.35,1.18,2.84,4.18,10,2.64,6.32,5,12,1.81,4.32a5.34,5.34,0,0,1,.52-.18,4.79,4.79,0,0,1,3.46.29A4.89,4.89,0,0,1,113.39,238.88Zm-5.81,4.65a3.07,3.07,0,1,0-1.45-4.09A3.08,3.08,0,0,0,107.58,243.53Z" />
      <path class="GUNDAN_WEAPON_WEAPON_BACK_GUNDAN_WEAPON-14_cls-12" d="M73.41,193.42a55.42,55.42,0,0,1-7.62,3.09l5.31,8.67L92.4,240l5,8.1,1.33,2.18,1.89-.79-20.8-49.75a4.86,4.86,0,0,1-6.37-6.33Z" />
      <path class="GUNDAN_WEAPON_WEAPON_BACK_GUNDAN_WEAPON-14_cls-13" d="M92.4,240s-18.43,1.82-25-13.84,3.68-21,3.68-21l-5.31-8.67c-11.39,3.75-32.62,7.23-43-13.59v0c-.41,1.44-23.4,82.56,86.14,135.68-23.19-24.34-30.72-60-11.54-70.51Z" />
      <path class="GUNDAN_WEAPON_WEAPON_BACK_GUNDAN_WEAPON-14_cls-14" d="M22.76,182.94c-39.68,59.47.62,119.23,86.14,135.68C-.64,265.5,22.35,184.38,22.76,182.94Z" />
      <line class="GUNDAN_WEAPON_WEAPON_BACK_GUNDAN_WEAPON-14_cls-15" x1="121.28" y1="228.36" x2="136" y2="237.52" />
      <line class="GUNDAN_WEAPON_WEAPON_BACK_GUNDAN_WEAPON-14_cls-15" x1="119.52" y1="230.54" x2="131.59" y2="243" />
      <line class="GUNDAN_WEAPON_WEAPON_BACK_GUNDAN_WEAPON-14_cls-15" x1="121.66" y1="216.83" x2="136.95" y2="208.67" />
      <line class="GUNDAN_WEAPON_WEAPON_BACK_GUNDAN_WEAPON-14_cls-15" x1="122.67" y1="219.44" x2="139.49" y2="215.22" />
      <line class="GUNDAN_WEAPON_WEAPON_BACK_GUNDAN_WEAPON-14_cls-15" x1="114.63" y1="211.16" x2="119.38" y2="194.47" />
      <line class="GUNDAN_WEAPON_WEAPON_BACK_GUNDAN_WEAPON-14_cls-15" x1="112.45" y1="193.38" x2="111.87" y2="210.73" />
      <line class="GUNDAN_WEAPON_WEAPON_BACK_GUNDAN_WEAPON-14_cls-15" x1="107.55" y1="236.09" x2="108.33" y2="233.36" />
      <line class="GUNDAN_WEAPON_WEAPON_BACK_GUNDAN_WEAPON-14_cls-15" x1="111.01" y1="236.38" x2="111.09" y2="233.79" />
      <path class="GUNDAN_WEAPON_WEAPON_BACK_GUNDAN_WEAPON-14_cls-15" d="M100.86,217.74a3.47,3.47,0,0,0-.17.45" />
      <path class="GUNDAN_WEAPON_WEAPON_BACK_GUNDAN_WEAPON-14_cls-15" d="M139.49,215.22a28.77,28.77,0,0,1-3.49,22.3h0" />
      <path class="GUNDAN_WEAPON_WEAPON_BACK_GUNDAN_WEAPON-14_cls-15" d="M137,208.67a28.86,28.86,0,0,0-17.57-14.2" />
      <path class="GUNDAN_WEAPON_WEAPON_BACK_GUNDAN_WEAPON-14_cls-15" d="M131.59,243a28.61,28.61,0,0,1-9.69,6.2,29.09,29.09,0,0,1-8.57,1.89" />
      <path class="GUNDAN_WEAPON_WEAPON_BACK_GUNDAN_WEAPON-14_cls-15" d="M90,195.41a33.53,33.53,0,0,1,5.35-3.5L92.24,184l7.79-3,3.06,7.89a37.11,37.11,0,0,1,5-.88,34.85,34.85,0,0,1,4.57-.16l1.3-8.35,8.29,1.28-1.33,8.38a34.85,34.85,0,0,1,8.78,3.89l5.32-6.59,6.51,5.23-5.31,6.63a32.94,32.94,0,0,1,5.64,7.75l7.93-3.06,3,7.82-7.92,3.05a33,33,0,0,1,.9,5.32,29.67,29.67,0,0,1,.12,4.22l8.39,1.32-.66,4.23-.66,4-8.35-1.33a35.31,35.31,0,0,1-3.89,8.79l6.58,5.31-5,6.23-.25.29-.46-.35-6.12-5a31,31,0,0,1-4.23,3.46,19,19,0,0,1-1.74,1.12c-.6.38-1.19.72-1.8,1l3,7.9-7.79,3-3.07-7.9a32.39,32.39,0,0,1-4.31.82" />
      <line class="GUNDAN_WEAPON_WEAPON_BACK_GUNDAN_WEAPON-14_cls-15" x1="97.55" y1="213.58" x2="101.69" y2="216.16" />
      <path class="GUNDAN_WEAPON_WEAPON_BACK_GUNDAN_WEAPON-14_cls-15" d="M112.45,193.38a29,29,0,0,0-20.26,7.38" />
      <line class="GUNDAN_WEAPON_WEAPON_BACK_GUNDAN_WEAPON-14_cls-15" x1="93.37" y1="203.6" x2="103.44" y2="213.98" />
      <path class="GUNDAN_WEAPON_WEAPON_BACK_GUNDAN_WEAPON-14_cls-15" d="M104.43,226a6.15,6.15,0,0,0,.65,1,7.92,7.92,0,0,0,4.21,2.9,7.84,7.84,0,0,0,1.92.3,8,8,0,0,0,5.06-1.59,10.05,10.05,0,0,0,.78-.66,7.68,7.68,0,0,0,1.22-1.52,8,8,0,0,0,1-6.17,8.47,8.47,0,0,0-.71-1.82,7.42,7.42,0,0,0-.65-1,8,8,0,0,0-11.19-1.6,6.18,6.18,0,0,0-.78.66,8,8,0,0,0-2.18,7.69A7.29,7.29,0,0,0,104.43,226Z" />
      <path class="GUNDAN_WEAPON_WEAPON_BACK_GUNDAN_WEAPON-14_cls-15" d="M119.52,230.54a12.87,12.87,0,0,1-1.12,1,11.55,11.55,0,0,1-7.31,2.29" />
      <path class="GUNDAN_WEAPON_WEAPON_BACK_GUNDAN_WEAPON-14_cls-15" d="M122.67,219.44a11.56,11.56,0,0,1-1.39,8.92" />
      <path class="GUNDAN_WEAPON_WEAPON_BACK_GUNDAN_WEAPON-14_cls-15" d="M121.66,216.83a10.8,10.8,0,0,0-1-1.5,11.43,11.43,0,0,0-6.08-4.17" />
      <path class="GUNDAN_WEAPON_WEAPON_BACK_GUNDAN_WEAPON-14_cls-15" d="M111.87,210.73a11.41,11.41,0,0,0-7.31,2.29,11.74,11.74,0,0,0-1.12,1" />
      <path class="GUNDAN_WEAPON_WEAPON_BACK_GUNDAN_WEAPON-14_cls-15" d="M105.22,232a11.46,11.46,0,0,0,3.11,1.41" />
      <path class="GUNDAN_WEAPON_WEAPON_BACK_GUNDAN_WEAPON-14_cls-15" d="M100.19,219.9a3.89,3.89,0,0,1,.12-.49,1.74,1.74,0,0,1,.07-.29,8.45,8.45,0,0,1,.31-.93c0-.15.11-.3.17-.45a11.36,11.36,0,0,1,.83-1.58" />
      <path class="GUNDAN_WEAPON_WEAPON_BACK_GUNDAN_WEAPON-14_cls-15" d="M162.17,396.88h0l0,0L160,396l-.9,2.1,2.15.92a9,9,0,0,0-.37,2.61l-1.55.18-.76.09.27,2.28,2.32-.28a8.79,8.79,0,0,0,1,2.43l-1.86,1.41,1.38,1.83,1.85-1.4a9.55,9.55,0,0,0,2.08,1.62l-.91,2.15,2.11.89.91-2.14a9,9,0,0,0,2.61.37l.28,2.31,2.27-.28-.27-2.31.54-.15.54-.18a8.91,8.91,0,0,0,1.36-.64l1.29,1.72.1.13.08-.06,1.76-1.32-1.4-1.86a9.86,9.86,0,0,0,1.63-2.06l2.13.9.44-1,.46-1.08-2.14-.91a7.36,7.36,0,0,0,.25-1.13,10.41,10.41,0,0,0,.12-1.47l2.3-.29-.27-2.28-2.31.29a9.64,9.64,0,0,0-1-2.44l1.85-1.41L179,393.71l-1.86,1.39a9.85,9.85,0,0,0-2.07-1.63l.91-2.13-2.11-.9-.91,2.14-.29-.08" />
      <path class="GUNDAN_WEAPON_WEAPON_BACK_GUNDAN_WEAPON-14_cls-15" d="M164.78,401.88h0c0,.14,0,.28,0,.43a6.79,6.79,0,0,0,.35,1.36A5.53,5.53,0,0,0,175.8,401a5.45,5.45,0,0,0-1.43-3.1" />
      <path class="GUNDAN_WEAPON_WEAPON_BACK_GUNDAN_WEAPON-14_cls-15" d="M75.14,193.94a3.07,3.07,0,1,0,4.09-1.45A3.06,3.06,0,0,0,75.14,193.94Z" />
      <line class="GUNDAN_WEAPON_WEAPON_BACK_GUNDAN_WEAPON-14_cls-15" x1="75.14" y1="193.94" x2="80.68" y2="196.58" />
      <polyline class="GUNDAN_WEAPON_WEAPON_BACK_GUNDAN_WEAPON-14_cls-15" points="76.03 190.77 75.1 191.16 73.72 187.88 74.66 187.49 81.02 184.83 83.2 183.92 84.57 187.2" />
      <path class="GUNDAN_WEAPON_WEAPON_BACK_GUNDAN_WEAPON-14_cls-15" d="M106.13,239.44a3.07,3.07,0,1,0,4.09-1.45A3.07,3.07,0,0,0,106.13,239.44Z" />
      <line class="GUNDAN_WEAPON_WEAPON_BACK_GUNDAN_WEAPON-14_cls-15" x1="106.13" y1="239.44" x2="111.67" y2="242.08" />
      <path class="GUNDAN_WEAPON_WEAPON_BACK_GUNDAN_WEAPON-14_cls-15" d="M100.58,249.5l-20.8-49.75a4.87,4.87,0,0,1-3.75-9l8.54-3.57,1.66-.69,3.72,8.9,2.24,5.35,1.18,2.84,4.18,10,2.64,6.32,5,12,1.81,4.32a5.34,5.34,0,0,1,.52-.18,4.79,4.79,0,0,1,3.46.29,4.85,4.85,0,0,1-.16,8.83" />
      <polyline class="GUNDAN_WEAPON_WEAPON_BACK_GUNDAN_WEAPON-14_cls-15" points="65.79 196.51 71.09 205.18 92.4 240.01 97.36 248.11 98.69 250.29" />
      <polyline class="GUNDAN_WEAPON_WEAPON_BACK_GUNDAN_WEAPON-14_cls-15" points="125.38 279.93 115.56 256.43 113.33 251.09 110.86 245.2 110.85 245.21 100.58 249.5 98.69 250.29 114.98 284.27 115.08 284.23" />
      <path class="GUNDAN_WEAPON_WEAPON_BACK_GUNDAN_WEAPON-14_cls-15" d="M22.77,182.92c10.4,20.82,31.63,17.34,43,13.59a55.42,55.42,0,0,0,7.62-3.09" />
      <path class="GUNDAN_WEAPON_WEAPON_BACK_GUNDAN_WEAPON-14_cls-15" d="M97.36,248.11c-19.18,10.49-11.65,46.17,11.54,70.51C23.38,302.17-16.92,242.41,22.76,182.94" />
      <path class="GUNDAN_WEAPON_WEAPON_BACK_GUNDAN_WEAPON-14_cls-15" d="M22.77,182.92v0c-.41,1.44-23.4,82.56,86.14,135.68" />
      <path class="GUNDAN_WEAPON_WEAPON_BACK_GUNDAN_WEAPON-14_cls-15" d="M117.21,289.33,127.69,285a2.77,2.77,0,0,0,1.48-3.62,2.74,2.74,0,0,0-1.5-1.49,2.8,2.8,0,0,0-2.11,0l-.18.08-10.3,4.3a2.76,2.76,0,1,0,2.13,5.1Z" />
      <path class="GUNDAN_WEAPON_WEAPON_BACK_GUNDAN_WEAPON-14_cls-15" d="M147.5,332.35a2.76,2.76,0,0,0-2.13-5.1l-10.48,4.38a2.76,2.76,0,0,0,2.13,5.1" />
      <line class="GUNDAN_WEAPON_WEAPON_BACK_GUNDAN_WEAPON-14_cls-15" x1="127.69" y1="284.95" x2="145.37" y2="327.25" />
      <line class="GUNDAN_WEAPON_WEAPON_BACK_GUNDAN_WEAPON-14_cls-15" x1="117.21" y1="289.33" x2="134.89" y2="331.63" />
      <path class="GUNDAN_WEAPON_WEAPON_BACK_GUNDAN_WEAPON-14_cls-15" d="M74.66,187.49,66.85,168.8l-5-11.88s8.79,10.35,19.12,10a37.39,37.39,0,0,0-1,9.82,40.78,40.78,0,0,0,1,8.12" />
      <path class="GUNDAN_WEAPON_WEAPON_BACK_GUNDAN_WEAPON-14_cls-15" d="M80,176.71h0a52.87,52.87,0,0,1-13.16-7.91" />
      <path class="GUNDAN_WEAPON_WEAPON_BACK_GUNDAN_WEAPON-14_cls-15" d="M164.78,401.89a5.69,5.69,0,0,0,9.59-4,5.84,5.84,0,0,0-.44-2.3l-1.29-3.08L147.5,332.35,137,336.73l25.15,60.16,1.28,3.07A5.74,5.74,0,0,0,164.78,401.89Z" />
      <path class="GUNDAN_WEAPON_WEAPON_BACK_GUNDAN_WEAPON-14_cls-15" d="M71.1,205.18s-10.22,5.33-3.68,21S92.4,240,92.4,240" />
      <path class="GUNDAN_WEAPON_WEAPON_BACK_GUNDAN_WEAPON-14_cls-10" d="M247.1,392.5l-1.29,3.08a5.84,5.84,0,0,0-.44,2.3,5.54,5.54,0,1,0,9.21,5.8,6.16,6.16,0,0,0,.34-1.36,2.12,2.12,0,0,0,0-.43,5.76,5.76,0,0,0,1.34-1.93l1.28-3.07s0,0,0,0l2.15-.91.89,2.1-2.14.92a9,9,0,0,1,.37,2.61l1.55.18.76.09-.27,2.28-2.32-.28a8.81,8.81,0,0,1-1,2.43l1.87,1.41-1.39,1.83-1.84-1.4a9.6,9.6,0,0,1-2.09,1.62l.92,2.15-2.11.89-.91-2.14a9,9,0,0,1-2.61.37l-.28,2.31-2.27-.28.27-2.31-.54-.15-.54-.18a8.91,8.91,0,0,1-1.36-.64l-1.29,1.72-.1.13-.08-.06-1.76-1.32,1.39-1.86a10.16,10.16,0,0,1-1.62-2.06l-2.13.9-.45-1-.45-1.08,2.14-.91a8.8,8.8,0,0,1-.26-1.13,12.12,12.12,0,0,1-.11-1.47l-2.31-.29.28-2.28,2.31.29a9.28,9.28,0,0,1,1-2.44l-1.85-1.41,1.38-1.82,1.86,1.39a9.6,9.6,0,0,1,2.07-1.63l-.91-2.13,2.11-.9.91,2.14Z" />
      <path class="GUNDAN_WEAPON_WEAPON_BACK_GUNDAN_WEAPON-14_cls-11" d="M257.57,396.89,256.29,400a5.76,5.76,0,0,1-1.34,1.93,5.68,5.68,0,0,1-9.58-4,5.84,5.84,0,0,1,.44-2.3l1.29-3.08,25.14-60.15,10.48,4.38Z" />
      <path class="GUNDAN_WEAPON_WEAPON_BACK_GUNDAN_WEAPON-14_cls-12" d="M284.84,331.63a2.78,2.78,0,0,1,1.49,3.62,2.82,2.82,0,0,1-1.5,1.48,2.75,2.75,0,0,1-2.11,0l-10.48-4.38a2.76,2.76,0,0,1,2.13-5.1Z" />
      <rect class="GUNDAN_WEAPON_WEAPON_BACK_GUNDAN_WEAPON-14_cls-13" x="265.52" y="302.61" width="45.85" height="11.36" transform="translate(-107.23 455.55) rotate(-67.32)" />
      <path class="GUNDAN_WEAPON_WEAPON_BACK_GUNDAN_WEAPON-14_cls-12" d="M304.66,284.23a2.76,2.76,0,0,1,1.48,3.61,2.82,2.82,0,0,1-1.5,1.5,2.76,2.76,0,0,1-2.11,0L292.05,285a2.77,2.77,0,0,1,0-5.11,2.8,2.8,0,0,1,2.11,0l.18.08Z" />
      <polygon class="GUNDAN_WEAPON_WEAPON_BACK_GUNDAN_WEAPON-14_cls-11" points="321.04 250.29 304.76 284.27 304.66 284.23 294.36 279.93 304.18 256.43 306.41 251.09 308.87 245.2 308.89 245.21 319.16 249.5 321.04 250.29" />
      <path class="GUNDAN_WEAPON_WEAPON_BACK_GUNDAN_WEAPON-14_cls-10" d="M288.15,243a28.61,28.61,0,0,0,9.69,6.2,29.09,29.09,0,0,0,8.57,1.89h0l-2.23,5.34h0a33,33,0,0,1-4.31-.82l-3.06,7.9-7.79-3,3-7.9c-.6-.32-1.19-.66-1.79-1a20.65,20.65,0,0,1-1.75-1.12,32.21,32.21,0,0,1-4.23-3.46l-6.12,5-.45.35-.25-.29-5-6.23,6.59-5.31a35,35,0,0,1-3.89-8.79L266.79,233l-.66-4-.66-4.23,8.39-1.32a31.22,31.22,0,0,1,.11-4.22,34.19,34.19,0,0,1,.91-5.32L267,210.82l3-7.82,7.93,3.06a32.94,32.94,0,0,1,5.64-7.75l-5.32-6.63,6.52-5.23,5.32,6.59a34.69,34.69,0,0,1,8.78-3.89l-1.33-8.38,8.28-1.28,1.31,8.35a34.85,34.85,0,0,1,4.57.16,37.39,37.39,0,0,1,5,.88L319.7,181l7.8,3-3.06,7.93a34,34,0,0,1,5.35,3.5l-2.24,5.35a29,29,0,0,0-20.26-7.38l.58,17.35a11.41,11.41,0,0,1,7.31,2.29,11.6,11.6,0,0,1,1.11,1l10.07-10.38-4.17,10-4.14,2.58a11.29,11.29,0,0,1,.82,1.58,4.22,4.22,0,0,1,.18.45c.12.31.22.62.31.93a1.74,1.74,0,0,1,.07.29,3.89,3.89,0,0,1,.12.49l-5,12a11.27,11.27,0,0,1-3.1,1.41l.78,2.73a4.79,4.79,0,0,0-3.46.29l-.08-2.59a11.46,11.46,0,0,1-8.43-3.25Zm15.31-14.34a8,8,0,0,0,5.07,1.59,7.84,7.84,0,0,0,1.92-.3,7.92,7.92,0,0,0,4.21-2.9,6.15,6.15,0,0,0,.65-1,7.29,7.29,0,0,0,.7-1.81,8,8,0,0,0-1-6.18,7.92,7.92,0,0,0-1.22-1.51,6.18,6.18,0,0,0-.78-.66,8,8,0,0,0-11.19,1.6,6.59,6.59,0,0,0-.65,1,7.94,7.94,0,0,0,.26,8,7.68,7.68,0,0,0,1.22,1.52C302.93,228.23,303.2,228.45,303.46,228.66Zm-23.21-13.44a28.73,28.73,0,0,0,3.49,22.3h0l14.72-9.16a11.6,11.6,0,0,1-1.4-8.92Zm24.85-4.06-4.75-16.69a28.84,28.84,0,0,0-17.56,14.2l15.29,8.16a11.75,11.75,0,0,1,.94-1.5A11.5,11.5,0,0,1,305.1,211.16Z" />
      <path class="GUNDAN_WEAPON_WEAPON_BACK_GUNDAN_WEAPON-14_cls-13" d="M309.51,238a3.07,3.07,0,1,0,4.09,1.45A3.06,3.06,0,0,0,309.51,238Z" />
      <path class="GUNDAN_WEAPON_WEAPON_BACK_GUNDAN_WEAPON-14_cls-13" d="M344.6,193.94a3.07,3.07,0,1,0-1.45,4.09A3.07,3.07,0,0,0,344.6,193.94Z" />
      <path class="GUNDAN_WEAPON_WEAPON_BACK_GUNDAN_WEAPON-14_cls-14" d="M357.86,156.92l-5,11.88a52.87,52.87,0,0,1-13.16,7.91,37.39,37.39,0,0,0-1-9.82C349.06,167.27,357.86,156.92,357.86,156.92Z" />
      <path class="GUNDAN_WEAPON_WEAPON_BACK_GUNDAN_WEAPON-14_cls-13" d="M352.89,168.8l-7.81,18.69-6.37-2.66a40.28,40.28,0,0,0,1-8.12A52.87,52.87,0,0,0,352.89,168.8Z" />
      <polygon class="GUNDAN_WEAPON_WEAPON_BACK_GUNDAN_WEAPON-14_cls-11" points="346.01 187.88 344.64 191.16 343.71 190.77 335.17 187.2 336.54 183.92 338.71 184.83 345.08 187.49 346.01 187.88" />
      <path class="GUNDAN_WEAPON_WEAPON_BACK_GUNDAN_WEAPON-14_cls-12" d="M343.15,198a3.07,3.07,0,1,0-4.09-1.45A3.06,3.06,0,0,0,343.15,198Zm-34.42,38.35a4.79,4.79,0,0,1,3.46-.29l.52.18,1.8-4.32,5-12,2.64-6.32,4.17-10,1.19-2.84,2.24-5.35,3.72-8.9,1.66.69,8.54,3.57a4.87,4.87,0,0,1-3.75,9l-20.8,49.75-10.27-4.29a4.85,4.85,0,0,1-.16-8.83Zm4.87,3.06a3.06,3.06,0,1,0-1.44,4.09A3.06,3.06,0,0,0,313.6,239.44Z" />
      <path class="GUNDAN_WEAPON_WEAPON_BACK_GUNDAN_WEAPON-14_cls-12" d="M346.33,193.42a55.42,55.42,0,0,0,7.62,3.09l-5.31,8.67L327.34,240l-5,8.1L321,250.29l-1.88-.79L340,199.75a4.87,4.87,0,0,0,6.37-6.33Z" />
      <path class="GUNDAN_WEAPON_WEAPON_BACK_GUNDAN_WEAPON-14_cls-13" d="M327.34,240s18.43,1.82,25-13.84-3.67-21-3.67-21l5.31-8.67c11.39,3.75,32.62,7.23,43-13.59v0c.41,1.44,23.39,82.56-86.15,135.68,23.2-24.34,30.73-60,11.55-70.51Z" />
      <path class="GUNDAN_WEAPON_WEAPON_BACK_GUNDAN_WEAPON-14_cls-14" d="M397,182.94c39.68,59.47-.62,119.23-86.15,135.68C420.37,265.5,397.39,184.38,397,182.94Z" />
      <line class="GUNDAN_WEAPON_WEAPON_BACK_GUNDAN_WEAPON-14_cls-15" x1="298.46" y1="228.36" x2="283.74" y2="237.52" />
      <line class="GUNDAN_WEAPON_WEAPON_BACK_GUNDAN_WEAPON-14_cls-15" x1="300.22" y1="230.54" x2="288.15" y2="243" />
      <line class="GUNDAN_WEAPON_WEAPON_BACK_GUNDAN_WEAPON-14_cls-15" x1="298.08" y1="216.83" x2="282.79" y2="208.67" />
      <line class="GUNDAN_WEAPON_WEAPON_BACK_GUNDAN_WEAPON-14_cls-15" x1="297.06" y1="219.44" x2="280.25" y2="215.22" />
      <line class="GUNDAN_WEAPON_WEAPON_BACK_GUNDAN_WEAPON-14_cls-15" x1="305.1" y1="211.16" x2="300.35" y2="194.47" />
      <line class="GUNDAN_WEAPON_WEAPON_BACK_GUNDAN_WEAPON-14_cls-15" x1="307.29" y1="193.38" x2="307.87" y2="210.73" />
      <line class="GUNDAN_WEAPON_WEAPON_BACK_GUNDAN_WEAPON-14_cls-15" x1="312.19" y1="236.09" x2="311.41" y2="233.36" />
      <line class="GUNDAN_WEAPON_WEAPON_BACK_GUNDAN_WEAPON-14_cls-15" x1="308.73" y1="236.38" x2="308.65" y2="233.79" />
      <path class="GUNDAN_WEAPON_WEAPON_BACK_GUNDAN_WEAPON-14_cls-15" d="M318.87,217.74a2.49,2.49,0,0,1,.18.45" />
      <path class="GUNDAN_WEAPON_WEAPON_BACK_GUNDAN_WEAPON-14_cls-15" d="M280.25,215.22a28.73,28.73,0,0,0,3.49,22.3h0" />
      <path class="GUNDAN_WEAPON_WEAPON_BACK_GUNDAN_WEAPON-14_cls-15" d="M282.79,208.67a28.84,28.84,0,0,1,17.56-14.2" />
      <path class="GUNDAN_WEAPON_WEAPON_BACK_GUNDAN_WEAPON-14_cls-15" d="M288.15,243a28.61,28.61,0,0,0,9.69,6.2,29.09,29.09,0,0,0,8.57,1.89" />
      <path class="GUNDAN_WEAPON_WEAPON_BACK_GUNDAN_WEAPON-14_cls-15" d="M329.79,195.41a34,34,0,0,0-5.35-3.5L327.5,184l-7.8-3-3.05,7.89a37.39,37.39,0,0,0-5-.88,34.85,34.85,0,0,0-4.57-.16l-1.31-8.35-8.28,1.28,1.33,8.38a34.69,34.69,0,0,0-8.78,3.89l-5.32-6.59-6.52,5.23,5.32,6.63a32.94,32.94,0,0,0-5.64,7.75L270,203l-3,7.82,7.92,3.05a34.19,34.19,0,0,0-.91,5.32,31.22,31.22,0,0,0-.11,4.22l-8.39,1.32.66,4.23.66,4,8.35-1.33a35,35,0,0,0,3.89,8.79l-6.59,5.31,5,6.23.25.29.45-.35,6.12-5a32.21,32.21,0,0,0,4.23,3.46,20.65,20.65,0,0,0,1.75,1.12c.6.38,1.19.72,1.79,1l-3,7.9,7.79,3,3.06-7.9a33,33,0,0,0,4.31.82" />
      <line class="GUNDAN_WEAPON_WEAPON_BACK_GUNDAN_WEAPON-14_cls-15" x1="322.19" y1="213.58" x2="318.05" y2="216.16" />
      <path class="GUNDAN_WEAPON_WEAPON_BACK_GUNDAN_WEAPON-14_cls-15" d="M307.29,193.38a29,29,0,0,1,20.26,7.38" />
      <line class="GUNDAN_WEAPON_WEAPON_BACK_GUNDAN_WEAPON-14_cls-15" x1="326.36" y1="203.6" x2="316.29" y2="213.98" />
      <path class="GUNDAN_WEAPON_WEAPON_BACK_GUNDAN_WEAPON-14_cls-15" d="M315.31,226a6.15,6.15,0,0,1-.65,1,7.92,7.92,0,0,1-4.21,2.9,7.84,7.84,0,0,1-1.92.3,8,8,0,0,1-5.07-1.59c-.26-.21-.53-.43-.77-.66a7.68,7.68,0,0,1-1.22-1.52,7.94,7.94,0,0,1-.26-8,6.59,6.59,0,0,1,.65-1,8,8,0,0,1,11.19-1.6,6.18,6.18,0,0,1,.78.66,7.92,7.92,0,0,1,1.22,1.51,8,8,0,0,1,1,6.18A7.29,7.29,0,0,1,315.31,226Z" />
      <path class="GUNDAN_WEAPON_WEAPON_BACK_GUNDAN_WEAPON-14_cls-15" d="M300.22,230.54a11.46,11.46,0,0,0,8.43,3.25" />
      <path class="GUNDAN_WEAPON_WEAPON_BACK_GUNDAN_WEAPON-14_cls-15" d="M297.06,219.44a11.6,11.6,0,0,0,1.4,8.92" />
      <path class="GUNDAN_WEAPON_WEAPON_BACK_GUNDAN_WEAPON-14_cls-15" d="M298.08,216.83a11.75,11.75,0,0,1,.94-1.5,11.5,11.5,0,0,1,6.08-4.17" />
      <path class="GUNDAN_WEAPON_WEAPON_BACK_GUNDAN_WEAPON-14_cls-15" d="M307.87,210.73a11.41,11.41,0,0,1,7.31,2.29,11.6,11.6,0,0,1,1.11,1" />
      <path class="GUNDAN_WEAPON_WEAPON_BACK_GUNDAN_WEAPON-14_cls-15" d="M314.51,232a11.27,11.27,0,0,1-3.1,1.41" />
      <path class="GUNDAN_WEAPON_WEAPON_BACK_GUNDAN_WEAPON-14_cls-15" d="M319.55,219.9a3.89,3.89,0,0,0-.12-.49,1.74,1.74,0,0,0-.07-.29c-.09-.31-.19-.62-.31-.93a4.22,4.22,0,0,0-.18-.45,11.29,11.29,0,0,0-.82-1.58" />
      <path class="GUNDAN_WEAPON_WEAPON_BACK_GUNDAN_WEAPON-14_cls-15" d="M257.57,396.88h0s0,0,0,0l2.15-.91.89,2.1-2.14.92a9,9,0,0,1,.37,2.61l1.55.18.76.09-.27,2.28-2.32-.28a8.81,8.81,0,0,1-1,2.43l1.87,1.41-1.39,1.83-1.84-1.4a9.6,9.6,0,0,1-2.09,1.62l.92,2.15-2.11.89-.91-2.14a9,9,0,0,1-2.61.37l-.28,2.31-2.27-.28.27-2.31-.54-.15-.54-.18a8.91,8.91,0,0,1-1.36-.64l-1.29,1.72-.1.13-.08-.06-1.76-1.32,1.39-1.86a10.16,10.16,0,0,1-1.62-2.06l-2.13.9-.45-1-.45-1.08,2.14-.91a8.8,8.8,0,0,1-.26-1.13,12.12,12.12,0,0,1-.11-1.47l-2.31-.29.28-2.28,2.31.29a9.28,9.28,0,0,1,1-2.44l-1.85-1.41,1.38-1.82,1.86,1.39a9.6,9.6,0,0,1,2.07-1.63l-.91-2.13,2.11-.9.91,2.14.29-.08" />
      <path class="GUNDAN_WEAPON_WEAPON_BACK_GUNDAN_WEAPON-14_cls-15" d="M255,401.88h0a2.12,2.12,0,0,1,0,.43,6.16,6.16,0,0,1-.34,1.36,5.54,5.54,0,1,1-9.21-5.8" />
      <path class="GUNDAN_WEAPON_WEAPON_BACK_GUNDAN_WEAPON-14_cls-15" d="M344.6,193.94a3.07,3.07,0,1,1-4.09-1.45A3.06,3.06,0,0,1,344.6,193.94Z" />
      <line class="GUNDAN_WEAPON_WEAPON_BACK_GUNDAN_WEAPON-14_cls-15" x1="344.6" y1="193.94" x2="339.06" y2="196.58" />
      <polyline class="GUNDAN_WEAPON_WEAPON_BACK_GUNDAN_WEAPON-14_cls-15" points="343.71 190.77 344.64 191.16 346.01 187.88 345.08 187.49 338.71 184.83 336.54 183.92 335.17 187.2" />
      <path class="GUNDAN_WEAPON_WEAPON_BACK_GUNDAN_WEAPON-14_cls-15" d="M313.6,239.44a3.06,3.06,0,1,1-4.09-1.45A3.06,3.06,0,0,1,313.6,239.44Z" />
      <line class="GUNDAN_WEAPON_WEAPON_BACK_GUNDAN_WEAPON-14_cls-15" x1="313.6" y1="239.44" x2="308.07" y2="242.08" />
      <path class="GUNDAN_WEAPON_WEAPON_BACK_GUNDAN_WEAPON-14_cls-15" d="M319.16,249.5,340,199.75a4.87,4.87,0,0,0,3.75-9l-8.54-3.57-1.66-.69-3.72,8.9-2.24,5.35-1.19,2.84-4.17,10-2.64,6.32-5,12-1.8,4.32-.52-.18a4.79,4.79,0,0,0-3.46.29,4.85,4.85,0,0,0,.16,8.83" />
      <polyline class="GUNDAN_WEAPON_WEAPON_BACK_GUNDAN_WEAPON-14_cls-15" points="353.95 196.51 348.64 205.18 327.34 240.01 322.38 248.11 321.04 250.29" />
      <polyline class="GUNDAN_WEAPON_WEAPON_BACK_GUNDAN_WEAPON-14_cls-15" points="294.36 279.93 304.18 256.43 306.41 251.09 308.87 245.2 308.89 245.21 319.16 249.5 321.04 250.29 304.76 284.27 304.66 284.23" />
      <path class="GUNDAN_WEAPON_WEAPON_BACK_GUNDAN_WEAPON-14_cls-15" d="M397,182.92c-10.4,20.82-31.63,17.34-43,13.59a55.42,55.42,0,0,1-7.62-3.09" />
      <path class="GUNDAN_WEAPON_WEAPON_BACK_GUNDAN_WEAPON-14_cls-15" d="M322.38,248.11c19.18,10.49,11.65,46.17-11.55,70.51,85.53-16.45,125.83-76.21,86.15-135.68" />
      <path class="GUNDAN_WEAPON_WEAPON_BACK_GUNDAN_WEAPON-14_cls-15" d="M397,182.92v0c.41,1.44,23.39,82.56-86.15,135.68" />
      <path class="GUNDAN_WEAPON_WEAPON_BACK_GUNDAN_WEAPON-14_cls-15" d="M302.53,289.33,292.05,285a2.77,2.77,0,0,1,0-5.11,2.8,2.8,0,0,1,2.11,0l.18.08,10.3,4.3a2.76,2.76,0,0,1,1.48,3.61,2.82,2.82,0,0,1-1.5,1.5A2.76,2.76,0,0,1,302.53,289.33Z" />
      <path class="GUNDAN_WEAPON_WEAPON_BACK_GUNDAN_WEAPON-14_cls-15" d="M272.24,332.35a2.76,2.76,0,0,1,2.13-5.1l10.47,4.38a2.78,2.78,0,0,1,1.49,3.62,2.82,2.82,0,0,1-1.5,1.48,2.75,2.75,0,0,1-2.11,0" />
      <line class="GUNDAN_WEAPON_WEAPON_BACK_GUNDAN_WEAPON-14_cls-15" x1="292.05" y1="284.95" x2="274.37" y2="327.25" />
      <line class="GUNDAN_WEAPON_WEAPON_BACK_GUNDAN_WEAPON-14_cls-15" x1="302.53" y1="289.33" x2="284.84" y2="331.63" />
      <path class="GUNDAN_WEAPON_WEAPON_BACK_GUNDAN_WEAPON-14_cls-15" d="M345.08,187.49l7.81-18.69,5-11.88s-8.8,10.35-19.12,10a37.39,37.39,0,0,1,1,9.82,40.28,40.28,0,0,1-1,8.12" />
      <path class="GUNDAN_WEAPON_WEAPON_BACK_GUNDAN_WEAPON-14_cls-15" d="M339.72,176.71h0a52.87,52.87,0,0,0,13.16-7.91" />
      <path class="GUNDAN_WEAPON_WEAPON_BACK_GUNDAN_WEAPON-14_cls-15" d="M255,401.89a5.68,5.68,0,0,1-9.58-4,5.84,5.84,0,0,1,.44-2.3l1.29-3.08,25.14-60.15,10.48,4.38-25.15,60.16L256.29,400A5.76,5.76,0,0,1,255,401.89Z" />
      <path class="GUNDAN_WEAPON_WEAPON_BACK_GUNDAN_WEAPON-14_cls-15" d="M348.64,205.18s10.22,5.33,3.67,21-25,13.84-25,13.84" />
    </g>
  </g>
</svg>