<svg xmlns="http://www.w3.org/2000/svg" viewBox="0 0 432 432">
  <defs>
    <style>.GUNDAN_WEAPON_WEAPON_BACK_GUNDAN_WEAPON-06_cls-1{isolation:isolate;}.GUNDAN_WEAPON_WEAPON_BACK_GUNDAN_WEAPON-06_cls-2{fill:#50043d;}.GUNDAN_WEAPON_WEAPON_BACK_GUNDAN_WEAPON-06_cls-3{fill:#181b22;}.GUNDAN_WEAPON_WEAPON_BACK_GUNDAN_WEAPON-06_cls-4{fill:#fbf6fa;}.GUNDAN_WEAPON_WEAPON_BACK_GUNDAN_WEAPON-06_cls-5{fill:#4e2a4d;}.GUNDAN_WEAPON_WEAPON_BACK_GUNDAN_WEAPON-06_cls-13,.GUNDAN_WEAPON_WEAPON_BACK_GUNDAN_WEAPON-06_cls-6{fill:none;stroke:#000;stroke-linecap:round;stroke-linejoin:round;}.GUNDAN_WEAPON_WEAPON_BACK_GUNDAN_WEAPON-06_cls-6{stroke-width:2.68px;}.GUNDAN_WEAPON_WEAPON_BACK_GUNDAN_WEAPON-06_cls-7{opacity:0.43;}.GUNDAN_WEAPON_WEAPON_BACK_GUNDAN_WEAPON-06_cls-14,.GUNDAN_WEAPON_WEAPON_BACK_GUNDAN_WEAPON-06_cls-7{mix-blend-mode:multiply;}.GUNDAN_WEAPON_WEAPON_BACK_GUNDAN_WEAPON-06_cls-8{fill:#e7cc85;}.GUNDAN_WEAPON_WEAPON_BACK_GUNDAN_WEAPON-06_cls-9{fill:#85392d;}.GUNDAN_WEAPON_WEAPON_BACK_GUNDAN_WEAPON-06_cls-10{fill:#6d1a16;}.GUNDAN_WEAPON_WEAPON_BACK_GUNDAN_WEAPON-06_cls-11{fill:#ccc;}.GUNDAN_WEAPON_WEAPON_BACK_GUNDAN_WEAPON-06_cls-12{fill:#fff;}.GUNDAN_WEAPON_WEAPON_BACK_GUNDAN_WEAPON-06_cls-13{stroke-width:1.58px;}.GUNDAN_WEAPON_WEAPON_BACK_GUNDAN_WEAPON-06_cls-14{opacity:0.2;}</style>
  </defs>
  <g class="GUNDAN_WEAPON_WEAPON_BACK_GUNDAN_WEAPON-06_cls-1">
    <g id="Shield">
      <path class="GUNDAN_WEAPON_WEAPON_BACK_GUNDAN_WEAPON-06_cls-2" d="M126.93,379.63A14.22,14.22,0,0,0,124,399a13.05,13.05,0,0,0,18.71,3.08c1-.78,7.84-5.92,18.65-14.82a204.53,204.53,0,0,1-15.29-23C134.34,374,127.2,379.43,126.93,379.63Z" />
      <path class="GUNDAN_WEAPON_WEAPON_BACK_GUNDAN_WEAPON-06_cls-2" d="M318.86,200.34a13.07,13.07,0,0,0-18.75,2.77Q296.57,208,293,212.8A201.55,201.55,0,0,1,311.68,233h0c3.35-4.37,6.62-8.78,9.85-13.24A14.24,14.24,0,0,0,318.86,200.34Z" />
      <path class="GUNDAN_WEAPON_WEAPON_BACK_GUNDAN_WEAPON-06_cls-2" d="M286.08,221.8C240,281,186.48,330,154.73,357a197.42,197.42,0,0,0,15.2,23.14c31.92-26.93,86.44-76.5,134.7-137.95A192.41,192.41,0,0,0,286.08,221.8Z" />
      <path class="GUNDAN_WEAPON_WEAPON_BACK_GUNDAN_WEAPON-06_cls-3" d="M169.93,380.14A197.42,197.42,0,0,1,154.73,357c-2.1-3.76-3.22-6.09-3.27-6.2a5.42,5.42,0,0,0-7.37-2.63,5.81,5.81,0,0,0-2.54,7.65c.17.33,1.68,3.52,4.49,8.48a204.53,204.53,0,0,0,15.29,23c2.42,3.19,5.09,6.46,8,9.72a5.42,5.42,0,0,0,4.09,1.86,5.34,5.34,0,0,0,3.71-1.49,5.86,5.86,0,0,0,.35-8.08C174.73,386.24,172.22,383.16,169.93,380.14Z" />
      <path class="GUNDAN_WEAPON_WEAPON_BACK_GUNDAN_WEAPON-06_cls-3" d="M318.9,242.68c-.24-.35-2.75-4.1-7.22-9.64A201.55,201.55,0,0,0,293,212.8c-2.33-2.18-4.8-4.39-7.4-6.58a5.39,5.39,0,0,0-7.76.85,5.87,5.87,0,0,0,.81,8c2.62,2.21,5.13,4.46,7.48,6.69a192.41,192.41,0,0,1,18.55,20.39c3.29,4.18,5.12,6.89,5.2,7a5.43,5.43,0,0,0,4.53,2.47,5.25,5.25,0,0,0,3.13-1A5.85,5.85,0,0,0,318.9,242.68Z" />
      <path class="GUNDAN_WEAPON_WEAPON_BACK_GUNDAN_WEAPON-06_cls-4" d="M372.24,166.87l-7.72,16.86s7.68,97.56-12.13,191.85l18.21,17-25.22,11.8c-11.34,40.69-28.7,78.74-55,105.63-16.25-13.74-19.76-15.94-19.76-15.94H161.42s-3.51,2.2-19.76,15.94c-26.34-26.89-43.7-64.94-55-105.63L61.4,392.61l18.21-17C59.8,281.29,67.48,183.73,67.48,183.73l-7.72-16.86,22.72-2.11,63.75-60C153.78,93,156.94,88,164.49,76.29l25,24.75,26.47,7,26.47-7,25-24.75C275.06,88,278.22,93,285.77,104.73l63.75,60ZM288.61,470.68c57.64-86.2,45.45-284.21,45.45-284.21L261.8,118.15,216,131.38l-45.8-13.23L97.94,186.47s-12.19,198,45.44,284.21c36.08,0,72.62-1.18,72.62-1.18S252.54,470.68,288.61,470.68Z" />
      <path class="GUNDAN_WEAPON_WEAPON_BACK_GUNDAN_WEAPON-06_cls-5" d="M334.06,186.47s12.19,198-45.45,284.21c-36.07,0-72.61-1.18-72.61-1.18s-36.54,1.18-72.62,1.18c-57.63-86.2-45.44-284.21-45.44-284.21l72.26-68.32L216,131.38l45.8-13.23Zm-12.52,33.32a14.24,14.24,0,0,0-2.68-19.45,13.07,13.07,0,0,0-18.75,2.77Q296.57,208,293,212.8c-2.33-2.18-4.8-4.39-7.4-6.58a5.39,5.39,0,0,0-7.76.85,5.87,5.87,0,0,0,.81,8c2.62,2.21,5.13,4.46,7.48,6.69C240,281,186.48,330,154.73,357c-2.1-3.76-3.22-6.09-3.27-6.2a5.42,5.42,0,0,0-7.37-2.63,5.81,5.81,0,0,0-2.54,7.65c.17.33,1.68,3.52,4.49,8.48-11.7,9.71-18.84,15.13-19.11,15.33A14.22,14.22,0,0,0,124,399a13.05,13.05,0,0,0,18.71,3.08c1-.78,7.84-5.92,18.65-14.82,2.42,3.19,5.09,6.46,8,9.72a5.42,5.42,0,0,0,4.09,1.86,5.34,5.34,0,0,0,3.71-1.49,5.86,5.86,0,0,0,.35-8.08c-2.71-3.07-5.22-6.15-7.51-9.17,31.92-26.93,86.44-76.5,134.7-137.95,3.29,4.18,5.12,6.89,5.2,7a5.43,5.43,0,0,0,4.53,2.47,5.25,5.25,0,0,0,3.13-1,5.85,5.85,0,0,0,1.41-7.95c-.24-.35-2.75-4.1-7.22-9.64h0C315,228.66,318.31,224.25,321.54,219.79Z" />
      <path class="GUNDAN_WEAPON_WEAPON_BACK_GUNDAN_WEAPON-06_cls-6" d="M293,212.8q3.62-4.8,7.16-9.69a13.07,13.07,0,0,1,18.75-2.77,14.24,14.24,0,0,1,2.68,19.45c-3.23,4.46-6.5,8.87-9.85,13.24" />
      <path class="GUNDAN_WEAPON_WEAPON_BACK_GUNDAN_WEAPON-06_cls-6" d="M154.73,357c31.75-27,85.25-76,131.35-135.2" />
      <path class="GUNDAN_WEAPON_WEAPON_BACK_GUNDAN_WEAPON-06_cls-6" d="M169.93,380.14c31.92-26.93,86.44-76.5,134.7-137.95" />
      <path class="GUNDAN_WEAPON_WEAPON_BACK_GUNDAN_WEAPON-06_cls-6" d="M146,364.3c-11.7,9.71-18.84,15.13-19.11,15.33A14.22,14.22,0,0,0,124,399a13.05,13.05,0,0,0,18.71,3.08c1-.78,7.84-5.92,18.65-14.82" />
      <path class="GUNDAN_WEAPON_WEAPON_BACK_GUNDAN_WEAPON-06_cls-6" d="M169.93,380.14c2.29,3,4.8,6.1,7.51,9.17a5.86,5.86,0,0,1-.35,8.08,5.34,5.34,0,0,1-3.71,1.49,5.42,5.42,0,0,1-4.09-1.86c-2.87-3.26-5.54-6.53-8-9.72a204.53,204.53,0,0,1-15.29-23c-2.81-5-4.32-8.15-4.49-8.48a5.81,5.81,0,0,1,2.54-7.65,5.42,5.42,0,0,1,7.37,2.63c0,.11,1.17,2.44,3.27,6.2A197.42,197.42,0,0,0,169.93,380.14Z" />
      <path class="GUNDAN_WEAPON_WEAPON_BACK_GUNDAN_WEAPON-06_cls-6" d="M311.68,233c4.47,5.54,7,9.29,7.22,9.64a5.85,5.85,0,0,1-1.41,7.95,5.25,5.25,0,0,1-3.13,1,5.43,5.43,0,0,1-4.53-2.47c-.08-.1-1.91-2.81-5.2-7a192.41,192.41,0,0,0-18.55-20.39c-2.35-2.23-4.86-4.48-7.48-6.69a5.87,5.87,0,0,1-.81-8,5.39,5.39,0,0,1,7.76-.85c2.6,2.19,5.07,4.4,7.4,6.58A201.55,201.55,0,0,1,311.68,233Z" />
      <path class="GUNDAN_WEAPON_WEAPON_BACK_GUNDAN_WEAPON-06_cls-6" d="M86.62,404.41c11.34,40.69,28.7,78.74,55,105.63,16.25-13.74,19.76-15.94,19.76-15.94H216" />
      <path class="GUNDAN_WEAPON_WEAPON_BACK_GUNDAN_WEAPON-06_cls-6" d="M79.61,375.58C59.8,281.29,67.48,183.73,67.48,183.73l-7.72-16.86,22.72-2.11,63.75-60C153.78,93,156.94,88,164.49,76.29l25,24.75,26.47,7" />
      <polyline class="GUNDAN_WEAPON_WEAPON_BACK_GUNDAN_WEAPON-06_cls-6" points="86.63 404.41 61.4 392.61 79.61 375.58" />
      <path class="GUNDAN_WEAPON_WEAPON_BACK_GUNDAN_WEAPON-06_cls-6" d="M216,131.38l-45.8-13.23L97.94,186.47s-12.19,198,45.44,284.21c36.08,0,72.62-1.18,72.62-1.18" />
      <path class="GUNDAN_WEAPON_WEAPON_BACK_GUNDAN_WEAPON-06_cls-6" d="M216,494.1h54.58s3.51,2.2,19.76,15.94c26.34-26.89,43.7-64.94,55-105.63" />
      <path class="GUNDAN_WEAPON_WEAPON_BACK_GUNDAN_WEAPON-06_cls-6" d="M216,108.07l26.47-7,25-24.75C275.06,88,278.22,93,285.77,104.73l63.75,60,22.72,2.11-7.72,16.86s7.68,97.56-12.13,191.85" />
      <polyline class="GUNDAN_WEAPON_WEAPON_BACK_GUNDAN_WEAPON-06_cls-6" points="352.38 375.58 370.6 392.61 345.38 404.41" />
      <path class="GUNDAN_WEAPON_WEAPON_BACK_GUNDAN_WEAPON-06_cls-6" d="M216,131.38l45.8-13.23,72.26,68.32s12.19,198-45.45,284.21c-36.07,0-72.61-1.18-72.61-1.18" />
      <path d="M168.11,90.8v2.9c.27,0,.53.06.79.11a8.45,8.45,0,0,1,2,.65L172.4,92l1.24.71-1.46,2.51a8.56,8.56,0,0,1,2.08,2.08l2.51-1.45.71,1.23L175,98.48a8.41,8.41,0,0,1,.76,2.84h2.9v1.42h-2.9a8.59,8.59,0,0,1-.76,2.85l2.51,1.44-.71,1.23-2.51-1.45a8.56,8.56,0,0,1-2.08,2.08l1.46,2.52-1.24.71L171,109.6a8.06,8.06,0,0,1-2,.66,6.82,6.82,0,0,1-.79.1v2.9h-1.42v-2.9a8.47,8.47,0,0,1-2.84-.76l-1.45,2.52-1.23-.71,1.45-2.52a8.56,8.56,0,0,1-2.08-2.08L158,108.26l-.7-1.23,2.51-1.44a8.59,8.59,0,0,1-.76-2.85h-2.9v-1.42h2.9a8.41,8.41,0,0,1,.76-2.84L157.32,97l.7-1.23,2.52,1.45a8.56,8.56,0,0,1,2.08-2.08l-1.45-2.51L162.4,92l1.45,2.51a8.24,8.24,0,0,1,2.84-.76V90.8h1.42m0-2.06h-1.42a2.05,2.05,0,0,0-2.05,2.06v.92l-.46-.8a2,2,0,0,0-2.81-.75l-1.23.71a2,2,0,0,0-.75,2.81l.46.79L159,94a2.08,2.08,0,0,0-1-.27,2.05,2.05,0,0,0-1.78,1l-.7,1.23a2,2,0,0,0,.75,2.79l.8.47h-.92a2.05,2.05,0,0,0-2.06,2v1.42a2.06,2.06,0,0,0,2.06,2.06h.91l-.79.45a2.06,2.06,0,0,0-.76,2.8l.71,1.23a2.07,2.07,0,0,0,1.24,1,2.5,2.5,0,0,0,.54.07,2,2,0,0,0,1-.28l.8-.46-.46.8a2,2,0,0,0-.21,1.56,2,2,0,0,0,1,1.25l1.23.71a2.07,2.07,0,0,0,2.81-.75l.46-.8v.91a2.05,2.05,0,0,0,2.05,2.06h1.42a2.05,2.05,0,0,0,2-2.06v-.91l.46.8a2.07,2.07,0,0,0,2.81.75l1.23-.71a2,2,0,0,0,1-1.25,2,2,0,0,0-.21-1.56l-.45-.79.78.45a2,2,0,0,0,1,.28,1.88,1.88,0,0,0,.53-.07,2,2,0,0,0,1.25-1l.71-1.23a2,2,0,0,0-.75-2.81l-.79-.45h.91a2.06,2.06,0,0,0,2.06-2.06v-1.42a2.05,2.05,0,0,0-2.06-2h-.92l.8-.46a2.11,2.11,0,0,0,1-1.25,2.07,2.07,0,0,0-.21-1.56l-.71-1.23a2,2,0,0,0-1.78-1,2.08,2.08,0,0,0-1,.27l-.79.46.45-.79a2,2,0,0,0-.75-2.81l-1.23-.71a2,2,0,0,0-1-.28,2.05,2.05,0,0,0-1.78,1l-.46.8V90.8a2.05,2.05,0,0,0-2-2.06Z" />
      <path d="M167.4,96.77a5.25,5.25,0,0,1,1.5,10.29,4.9,4.9,0,0,1-1.5.22,5.26,5.26,0,0,1,0-10.51m0-2a7.3,7.3,0,1,0,2.08.3,7.32,7.32,0,0,0-2.08-.3Z" />
      <path d="M83,170.31v2.91a6.83,6.83,0,0,1,.79.11,8.45,8.45,0,0,1,2,.65l1.45-2.52,1.24.71-1.46,2.52a8.52,8.52,0,0,1,2.08,2.07l2.51-1.44.71,1.22L89.85,178a8.41,8.41,0,0,1,.76,2.84h2.9v1.42h-2.9a8.53,8.53,0,0,1-.76,2.84l2.51,1.45-.71,1.23-2.51-1.45a8.56,8.56,0,0,1-2.08,2.08l1.46,2.51-1.24.72-1.45-2.52a8.45,8.45,0,0,1-2,.65c-.26,0-.52.08-.79.11v2.9H81.57v-2.9a8.47,8.47,0,0,1-2.84-.76l-1.45,2.52L76,190.92l1.46-2.51a8.56,8.56,0,0,1-2.08-2.08l-2.52,1.45-.7-1.23,2.51-1.45a8.53,8.53,0,0,1-.76-2.84h-2.9v-1.42H74a8.41,8.41,0,0,1,.76-2.84l-2.51-1.46.7-1.22,2.52,1.44a8.52,8.52,0,0,1,2.08-2.07L76,172.17l1.24-.71L78.73,174a8.24,8.24,0,0,1,2.84-.76v-2.91H83m0-2.05H81.57a2.05,2.05,0,0,0-2,2.05v.93l-.46-.8a2.05,2.05,0,0,0-1.78-1,2.14,2.14,0,0,0-1,.27l-1.23.71a2.11,2.11,0,0,0-1,1.25,2,2,0,0,0,.21,1.56l.46.8-.81-.46a2,2,0,0,0-1-.28,2,2,0,0,0-1.78,1l-.7,1.22a2,2,0,0,0,.75,2.8l.8.46h-.92A2.06,2.06,0,0,0,69,180.84v1.42a2.05,2.05,0,0,0,2.06,2.05H72l-.79.46a2,2,0,0,0-.76,2.79l.71,1.24a2,2,0,0,0,1.24,1,2,2,0,0,0,.54.07,2.09,2.09,0,0,0,1-.27l.8-.46-.46.8a2,2,0,0,0-.21,1.56,2.06,2.06,0,0,0,1,1.24l1.23.72a2.14,2.14,0,0,0,1,.27,2.05,2.05,0,0,0,1.78-1l.46-.8v.92a2.05,2.05,0,0,0,2,2.05H83A2.05,2.05,0,0,0,85,192.78v-.92l.46.8a2.05,2.05,0,0,0,1.78,1,2.14,2.14,0,0,0,1-.27l1.23-.72a2.06,2.06,0,0,0,1-1.24,2,2,0,0,0-.21-1.56l-.46-.8.79.46a2.09,2.09,0,0,0,1,.27,1.88,1.88,0,0,0,.53-.07,2,2,0,0,0,1.25-.95l.71-1.24a2.07,2.07,0,0,0,.21-1.56,2.09,2.09,0,0,0-1-1.24l-.79-.46h.91a2.05,2.05,0,0,0,2.06-2.05v-1.42a2.06,2.06,0,0,0-2.06-2.06h-.92l.8-.46a2,2,0,0,0,1-1.25,2.08,2.08,0,0,0-.21-1.56l-.71-1.22a2.05,2.05,0,0,0-1.78-1,2,2,0,0,0-1,.28l-.79.45.45-.79a2,2,0,0,0,.21-1.56,2.11,2.11,0,0,0-1-1.25l-1.23-.71a2.14,2.14,0,0,0-1-.27,2.05,2.05,0,0,0-1.78,1l-.46.8v-.93A2.05,2.05,0,0,0,83,168.26Z" />
      <path d="M82.28,176.29a5,5,0,0,1,1.5.22,5.25,5.25,0,0,1,0,10.07,5,5,0,0,1-1.5.22,5.26,5.26,0,1,1,0-10.51m0-2a7.31,7.31,0,1,0,0,14.61,7,7,0,0,0,2.11-.31,7.31,7.31,0,0,0,0-14,7,7,0,0,0-2.08-.3Z" />
      <path d="M92.71,375.58v2.91a6.83,6.83,0,0,1,.79.11,8.45,8.45,0,0,1,2,.65L97,376.73l1.24.71L96.78,380A8.52,8.52,0,0,1,98.86,382l2.51-1.44.71,1.22-2.51,1.46a8.18,8.18,0,0,1,.76,2.84h2.9v1.42h-2.9a8.3,8.3,0,0,1-.76,2.84l2.51,1.45-.71,1.23-2.51-1.45a8.56,8.56,0,0,1-2.08,2.08l1.46,2.52-1.24.71-1.45-2.52a8.45,8.45,0,0,1-2,.65,6.83,6.83,0,0,1-.79.11v2.9H91.29v-2.9a8.47,8.47,0,0,1-2.84-.76L87,396.91l-1.23-.71,1.45-2.52a8.35,8.35,0,0,1-2.07-2.08l-2.53,1.45-.7-1.23,2.51-1.45a8.29,8.29,0,0,1-.75-2.84H80.77v-1.42h2.91a8.17,8.17,0,0,1,.75-2.84l-2.51-1.46.7-1.22L85.15,382A8.31,8.31,0,0,1,87.22,380l-1.45-2.52,1.23-.71,1.45,2.52a8.24,8.24,0,0,1,2.84-.76v-2.91h1.42m0-2.05H91.29a2.05,2.05,0,0,0-2.05,2.05v.93l-.46-.8a2.05,2.05,0,0,0-1.78-1,2.14,2.14,0,0,0-1,.27l-1.23.71a2.11,2.11,0,0,0-1,1.25,2,2,0,0,0,.21,1.56l.46.8-.81-.46a2,2,0,0,0-1-.28,2,2,0,0,0-1.78,1l-.7,1.22a2.06,2.06,0,0,0,.75,2.8l.8.47h-.92a2,2,0,0,0-2.06,2.05v1.42a2.05,2.05,0,0,0,2.06,2.05h.91l-.79.46a2.05,2.05,0,0,0-.76,2.79l.71,1.24a2.06,2.06,0,0,0,1.24,1,2,2,0,0,0,.54.07,2.09,2.09,0,0,0,1-.27l.8-.46-.46.8a2,2,0,0,0-.21,1.56,2.06,2.06,0,0,0,1,1.24l1.23.72a2.14,2.14,0,0,0,1,.27,2.05,2.05,0,0,0,1.78-1l.46-.8v.92a2.05,2.05,0,0,0,2.05,2.05h1.42a2.05,2.05,0,0,0,2.05-2.05v-.92l.46.8A2.08,2.08,0,0,0,97,399a2.1,2.1,0,0,0,1-.27l1.23-.72a2.06,2.06,0,0,0,1-1.24,2,2,0,0,0-.21-1.56l-.45-.8.78.46a2.09,2.09,0,0,0,1,.27,1.88,1.88,0,0,0,.53-.07,2,2,0,0,0,1.25-.95l.71-1.24a2.07,2.07,0,0,0,.21-1.56,2.09,2.09,0,0,0-1-1.24l-.79-.46h.91a2.05,2.05,0,0,0,2.06-2.05v-1.42a2,2,0,0,0-2.06-2.05h-.92l.8-.47a2,2,0,0,0,1-1.25,2.08,2.08,0,0,0-.21-1.56l-.71-1.22a2.05,2.05,0,0,0-1.78-1,2,2,0,0,0-1,.28l-.79.45.45-.79a2,2,0,0,0,.21-1.56,2.11,2.11,0,0,0-1-1.25L98,375a2.1,2.1,0,0,0-1-.27,2.08,2.08,0,0,0-1.79,1l-.46.8v-.93a2.05,2.05,0,0,0-2.05-2.05Z" />
      <path d="M92,381.56a4.89,4.89,0,0,1,1.49.22,5.25,5.25,0,0,1,0,10.07,4.89,4.89,0,0,1-1.49.22,5.26,5.26,0,1,1,0-10.51m0-2.05a7.31,7.31,0,1,0,0,14.61,7,7,0,0,0,2.1-.31,7.31,7.31,0,0,0,0-14,7,7,0,0,0-2.07-.3Z" />
      <path d="M265.3,90.8v2.9a8.24,8.24,0,0,1,2.85.76L269.6,92l1.23.71-1.45,2.51a8.35,8.35,0,0,1,2.07,2.08L274,95.8l.7,1.23-2.51,1.45a8.17,8.17,0,0,1,.75,2.84h2.91v1.42h-2.91a8.34,8.34,0,0,1-.75,2.85l2.51,1.44-.7,1.23-2.53-1.45a8.35,8.35,0,0,1-2.07,2.08l1.45,2.52-1.23.71-1.45-2.52a8.46,8.46,0,0,1-2.85.76v2.9h-1.41v-2.9a6.82,6.82,0,0,1-.79-.1,7.93,7.93,0,0,1-2.05-.66l-1.45,2.52-1.24-.71,1.46-2.52a8.56,8.56,0,0,1-2.08-2.08l-2.51,1.45-.71-1.23,2.51-1.44a8.36,8.36,0,0,1-.76-2.85h-2.91v-1.42h2.91a8.18,8.18,0,0,1,.76-2.84L254.52,97l.71-1.23,2.51,1.45a8.56,8.56,0,0,1,2.08-2.08l-1.46-2.51L259.6,92l1.45,2.51a8.31,8.31,0,0,1,2.05-.65c.26,0,.52-.08.79-.11V90.8h1.41m0-2.06h-1.41a2.05,2.05,0,0,0-2.05,2.06v.92l-.47-.8a2.05,2.05,0,0,0-1.78-1,2,2,0,0,0-1,.28l-1.23.71a2,2,0,0,0-1,1.25,2.08,2.08,0,0,0,.2,1.56l.46.79-.79-.46a2.08,2.08,0,0,0-1-.27,2,2,0,0,0-1.78,1L252.74,96a2.07,2.07,0,0,0-.21,1.56,2.11,2.11,0,0,0,1,1.25l.8.46h-.93a2.05,2.05,0,0,0-2.05,2v1.42a2.05,2.05,0,0,0,2.05,2.06h.92l-.79.45a2,2,0,0,0-.75,2.81l.71,1.23a2.06,2.06,0,0,0,1.24,1,2,2,0,0,0,.54.07,2,2,0,0,0,1-.28l.79-.45-.46.79a2.07,2.07,0,0,0-.2,1.56,2,2,0,0,0,1,1.25l1.23.71a2,2,0,0,0,1,.27,2,2,0,0,0,1.78-1l.47-.8v.91a2.05,2.05,0,0,0,2.05,2.06h1.41a2.06,2.06,0,0,0,2.06-2.06v-.91l.46.8a2.07,2.07,0,0,0,2.81.75l1.23-.71a2,2,0,0,0,1-1.25,2.07,2.07,0,0,0-.21-1.56l-.46-.8.8.46a2,2,0,0,0,1,.28,2.5,2.5,0,0,0,.54-.07,2.07,2.07,0,0,0,1.24-1l.7-1.23a2.07,2.07,0,0,0-.75-2.8l-.79-.45h.91a2.06,2.06,0,0,0,2.06-2.06v-1.42a2.05,2.05,0,0,0-2.06-2h-.92l.8-.47a2,2,0,0,0,.75-2.79l-.7-1.23a2.05,2.05,0,0,0-1.78-1,2.08,2.08,0,0,0-1,.27l-.81.46.46-.79a2.08,2.08,0,0,0,.21-1.56,2,2,0,0,0-1-1.25l-1.23-.71a2,2,0,0,0-2.81.75l-.46.8V90.8a2.06,2.06,0,0,0-2.06-2.06Z" />
      <path d="M264.59,96.77a5.26,5.26,0,1,1,0,10.51,4.89,4.89,0,0,1-1.49-.22,5.26,5.26,0,0,1,1.49-10.29m0-2a7.31,7.31,0,1,0,7.32,7.31,7.36,7.36,0,0,0-7.32-7.31Z" />
      <path d="M350.43,170.31v2.91a8.24,8.24,0,0,1,2.84.76l1.45-2.52,1.23.71-1.45,2.52a8.31,8.31,0,0,1,2.07,2.07l2.53-1.44.7,1.22L357.29,178a8.17,8.17,0,0,1,.75,2.84H361v1.42H358a8.29,8.29,0,0,1-.75,2.84l2.51,1.45-.7,1.23-2.53-1.45a8.35,8.35,0,0,1-2.07,2.08l1.45,2.51-1.23.72-1.45-2.52a8.47,8.47,0,0,1-2.84.76v2.9H349v-2.9c-.27,0-.53-.06-.79-.11a8.45,8.45,0,0,1-2.05-.65l-1.45,2.52-1.24-.72,1.46-2.51a8.56,8.56,0,0,1-2.08-2.08l-2.51,1.45-.71-1.23,2.51-1.45a8.3,8.3,0,0,1-.76-2.84h-2.9v-1.42h2.9a8.18,8.18,0,0,1,.76-2.84l-2.51-1.46.71-1.22,2.51,1.44a8.52,8.52,0,0,1,2.08-2.07l-1.46-2.52,1.24-.71,1.45,2.52a8.45,8.45,0,0,1,2.05-.65,6.83,6.83,0,0,1,.79-.11v-2.91h1.42m0-2.05H349a2.05,2.05,0,0,0-2.05,2.05v.93l-.47-.8a2.05,2.05,0,0,0-1.78-1,2.1,2.1,0,0,0-1,.27l-1.23.71a2.11,2.11,0,0,0-1,1.25,2.07,2.07,0,0,0,.2,1.56l.46.79-.79-.45a2,2,0,0,0-1-.28,2.05,2.05,0,0,0-1.78,1l-.71,1.22a2.08,2.08,0,0,0-.21,1.56,2,2,0,0,0,1,1.25l.8.46h-.92a2.06,2.06,0,0,0-2.06,2.06v1.42a2.05,2.05,0,0,0,2.06,2.05h.91l-.79.46a2.09,2.09,0,0,0-1,1.24,2,2,0,0,0,.21,1.56l.71,1.24a2,2,0,0,0,1.25.95,1.88,1.88,0,0,0,.53.07,2.09,2.09,0,0,0,1-.27l.78-.46-.46.8a2,2,0,0,0,.76,2.8l1.23.72a2.1,2.1,0,0,0,1,.27,2.05,2.05,0,0,0,1.78-1l.47-.8v.92a2.05,2.05,0,0,0,2.05,2.05h1.42a2.05,2.05,0,0,0,2.05-2.05v-.92l.46.8a2.05,2.05,0,0,0,1.78,1,2.14,2.14,0,0,0,1-.27l1.23-.72a2.06,2.06,0,0,0,1-1.24,2,2,0,0,0-.21-1.56l-.46-.8.8.46a2.09,2.09,0,0,0,1,.27,2,2,0,0,0,.54-.07,2.06,2.06,0,0,0,1.24-1l.71-1.24a2.05,2.05,0,0,0-.76-2.79l-.79-.46H361a2.05,2.05,0,0,0,2.06-2.05v-1.42a2.06,2.06,0,0,0-2.06-2.06H360l.8-.46a2.06,2.06,0,0,0,.75-2.8l-.7-1.22a2,2,0,0,0-1.78-1,2,2,0,0,0-1,.28l-.81.46.46-.8a2,2,0,0,0,.21-1.56,2.11,2.11,0,0,0-1-1.25l-1.23-.71a2.14,2.14,0,0,0-1-.27,2.05,2.05,0,0,0-1.78,1l-.46.8v-.93a2.05,2.05,0,0,0-2.05-2.05Z" />
      <path d="M349.71,176.29a5.26,5.26,0,1,1,0,10.51,4.89,4.89,0,0,1-1.49-.22,5.25,5.25,0,0,1,0-10.07,4.89,4.89,0,0,1,1.49-.22m0-2a7,7,0,0,0-2.1.31,7.31,7.31,0,0,0,0,14,7,7,0,0,0,2.07.3,7.31,7.31,0,1,0,0-14.61Z" />
      <path d="M340.7,375.58v2.91a8.24,8.24,0,0,1,2.85.76l1.45-2.52,1.23.71L344.78,380a8.31,8.31,0,0,1,2.07,2.07l2.53-1.44.7,1.22-2.51,1.46a8.17,8.17,0,0,1,.75,2.84h2.91v1.42h-2.91a8.29,8.29,0,0,1-.75,2.84l2.51,1.45-.7,1.23-2.53-1.45a8.35,8.35,0,0,1-2.07,2.08l1.45,2.52-1.23.71-1.45-2.52a8.46,8.46,0,0,1-2.85.76v2.9h-1.41v-2.9a6.83,6.83,0,0,1-.79-.11,8.31,8.31,0,0,1-2.05-.65L335,396.91l-1.24-.71,1.46-2.52a8.39,8.39,0,0,1-2.08-2.08l-2.51,1.45-.71-1.23,2.51-1.45a8.08,8.08,0,0,1-.76-2.84h-2.91v-1.42h2.91a8,8,0,0,1,.76-2.84l-2.51-1.46.71-1.22,2.51,1.44a8.35,8.35,0,0,1,2.08-2.07l-1.46-2.52,1.24-.71,1.45,2.52a8.31,8.31,0,0,1,2.05-.65,6.83,6.83,0,0,1,.79-.11v-2.91h1.41m0-2.05h-1.41a2.05,2.05,0,0,0-2.05,2.05v.93l-.47-.8a2.05,2.05,0,0,0-1.78-1,2.1,2.1,0,0,0-1,.27l-1.23.71a2.06,2.06,0,0,0-.76,2.81l.46.79-.79-.45a2,2,0,0,0-1-.28,2.05,2.05,0,0,0-1.78,1l-.71,1.22a2.08,2.08,0,0,0-.21,1.56,2,2,0,0,0,1,1.25l.8.47h-.93a2,2,0,0,0-2.05,2.05v1.42a2.05,2.05,0,0,0,2.05,2.05h.92l-.79.46a2.06,2.06,0,0,0-1,1.24,2,2,0,0,0,.21,1.56l.71,1.24a2,2,0,0,0,1.24.95,2,2,0,0,0,.54.07,2,2,0,0,0,1-.27l.79-.46-.46.8a2.07,2.07,0,0,0-.2,1.56,2,2,0,0,0,1,1.24l1.23.72a2.1,2.1,0,0,0,1,.27,2.05,2.05,0,0,0,1.78-1l.47-.8v.92a2.05,2.05,0,0,0,2.05,2.05h1.41a2.05,2.05,0,0,0,2.06-2.05v-.92l.46.8a2.05,2.05,0,0,0,1.78,1,2.08,2.08,0,0,0,1-.27l1.24-.72a2,2,0,0,0,.75-2.8l-.46-.8.8.46a2.09,2.09,0,0,0,1,.27,2,2,0,0,0,.54-.07,2.06,2.06,0,0,0,1.24-1l.7-1.24a2.05,2.05,0,0,0-.75-2.79l-.79-.46h.91a2.05,2.05,0,0,0,2-2.05v-1.42a2,2,0,0,0-2-2.05h-.92l.8-.47a2.06,2.06,0,0,0,.75-2.8l-.7-1.22a2,2,0,0,0-1.79-1,2,2,0,0,0-1,.28l-.81.46.46-.8a2.07,2.07,0,0,0,.21-1.56,2.11,2.11,0,0,0-1-1.25L346,375a2.08,2.08,0,0,0-1-.27,2.05,2.05,0,0,0-1.78,1l-.46.8v-.93a2.05,2.05,0,0,0-2.06-2.05Z" />
      <path d="M340,381.56a5.26,5.26,0,1,1,0,10.51,4.89,4.89,0,0,1-1.49-.22,5.25,5.25,0,0,1,0-10.07,4.89,4.89,0,0,1,1.49-.22m0-2.05a7,7,0,0,0-2.1.31,7.31,7.31,0,0,0,0,14,7,7,0,0,0,2.07.3,7.31,7.31,0,1,0,0-14.61Z" />
      <g class="GUNDAN_WEAPON_WEAPON_BACK_GUNDAN_WEAPON-06_cls-7">
        <polygon points="238.18 102.18 242.12 123.83 233.64 103.39 238.18 102.18" />
        <path d="M230.74,104.15l5,21.52L220.4,156.09s-9.4,41-8.15,99.4S222.81,469.7,222.81,469.7h6.87l6.07,25.19-74.33-.79L141.66,510s-20.89-20.77-39-60.13c-15-41.84-16-45.5-16-45.5l-1.8-5.53L65,389.21l19.79-13.63s-8.9-70.74-9.37-102S77,186,77,186v-9.71l-15.35-9.6,21.43-1.31L153,111.59l10.82-34.25,25.13,23.82,27.06,7Z" />
        <path d="M275.57,89.8l20.77,36.07,48.38,45.59-36.13-41.6-4-7.37S286.74,103.74,286,103.74,275.57,89.8,275.57,89.8Z" />
        <path d="M365,180.69l-15.26,20.77s4.74,64-5.12,124.68-27.88,105.19-27.88,105.19,24.13-52.71,32.33-98.15,13.12-122.67,13.12-122.67Z" />
        <path d="M269.17,494.1l21.6-2.21s32.93-61.57,39.31-79.54c-13.12,37.25-36,93.69-36,93.69l-2.69,4Z" />
        <path d="M320.39,201.75s-15.84,17.54-17.95,20.61c-6.58-6.77-9.49,5.94-9.49,5.94s-1.52,18.21-41.35,54.75-55.51,55.05-55.51,55.05l1.64,18.9s52.47-50.52,73.91-75.5,34.07-39.31,34.07-39.31,3.45,9.1,7.62,8.77a12.87,12.87,0,0,0,6.55-2.22s-14.22-14.94-15.69-18.92.44-5.56.44-5.56l7.06,8.77s11.42-10.89,12.12-18.15A21.62,21.62,0,0,0,320.39,201.75Z" />
        <path d="M261.8,118.15s45.09,51.29,61,73.08l-8.66-19.91,20.47,27.84-.56-12.69Z" />
        <path d="M334.74,246.28s-3.14,78.7-26.15,133c9.77-53.41,15.3-92.06,15.3-92.06s-28.72,148.07-54.72,183.31c15.93,0,19.44.1,19.44.1s24.8-37.7,34.42-95.1S334.74,246.28,334.74,246.28Z" />
      </g>
    </g>
    <g id="weapon_back" data-name="weapon back">
      <path class="GUNDAN_WEAPON_WEAPON_BACK_GUNDAN_WEAPON-06_cls-8" d="M284.67,419.65,277,417.58a3.45,3.45,0,0,0-2.63.35,3.46,3.46,0,0,0,.82,6.36l7.66,2.07a3.47,3.47,0,0,0,1.8-6.71Z" />
      <path class="GUNDAN_WEAPON_WEAPON_BACK_GUNDAN_WEAPON-06_cls-8" d="M304.23,367.24,299.64,366l-8.58-2.31-4.6-1.24a3.47,3.47,0,1,0-1.81,6.7l4.6,1.24,8.58,2.31,4.6,1.24a3.46,3.46,0,0,0,2.63-.34,3.52,3.52,0,0,0,1.63-2.11A3.48,3.48,0,0,0,304.23,367.24Z" />
      <polygon class="GUNDAN_WEAPON_WEAPON_BACK_GUNDAN_WEAPON-06_cls-9" points="276.56 417.46 277.02 417.58 284.67 419.65 285.14 419.77 297.83 372.7 289.25 370.39 276.56 417.46" />
      <rect class="GUNDAN_WEAPON_WEAPON_BACK_GUNDAN_WEAPON-06_cls-9" x="277.32" y="336.87" width="48.75" height="8.89" transform="translate(-106.38 543.77) rotate(-74.91)" />
      <path class="GUNDAN_WEAPON_WEAPON_BACK_GUNDAN_WEAPON-06_cls-10" d="M308.62,256.78l-7.28,27c.49.57,1,1.13,1.55,1.69a3.71,3.71,0,0,1-3.66,6.13L297,300l4.38,16,2.39.64,8.58,2.31,3.09.84,5.86-10.12,15.49-28.09-18.57-28Z" />
      <polygon class="GUNDAN_WEAPON_WEAPON_BACK_GUNDAN_WEAPON-06_cls-10" points="334.24 250.44 342.64 265.96 342.65 265.95 345.98 253.61 334.24 250.44" />
      <path class="GUNDAN_WEAPON_WEAPON_BACK_GUNDAN_WEAPON-06_cls-11" d="M319.78,221.4l2.5-4.31a36.37,36.37,0,0,1-3.41-2.63L315.34,218a1.51,1.51,0,0,1-2.13,0l-1-1.05s-3,3.82-3.41,6.49a2.65,2.65,0,0,0,0,1.09c.39,1.79,2.64,3.75,4.6,4.25a2.56,2.56,0,0,0,2.18-.27,62.58,62.58,0,0,0,5.18-4.8l-.4-.22A1.53,1.53,0,0,1,319.78,221.4Z" />
      <path class="GUNDAN_WEAPON_WEAPON_BACK_GUNDAN_WEAPON-06_cls-11" d="M345.83,242.07c1.68-5,5.19-9.58,9.15-13.51l-1.25.34a1.52,1.52,0,0,1-1.85-1.06L350.61,223a41.07,41.07,0,0,1-4.28.56v5a1.51,1.51,0,0,1-1.51,1.51h-2.56a1.52,1.52,0,0,1-1.51-1.51v-5a35.38,35.38,0,0,1-4.28-.57l-1.3,4.83a1.48,1.48,0,0,1-1.83,1.05l-2.48-.67a1.5,1.5,0,0,1-1.07-1.83l1.3-4.83a38.06,38.06,0,0,1-3.83-1.59l-5.59,20.73-1.61,6,4.29,1.16,9.89,2.66L346,253.61l-1.43-6.77Z" />
      <path class="GUNDAN_WEAPON_WEAPON_BACK_GUNDAN_WEAPON-06_cls-8" d="M302.89,285.5c-.54-.56-1.06-1.12-1.55-1.69a55.79,55.79,0,0,1-4.1-5.17h0a35,35,0,0,1-5.7-12.39,24.81,24.81,0,0,1-.37-9.11q.16-1.1.42-2.16a32.4,32.4,0,0,1,6-12.09,52.76,52.76,0,0,1,8.85-8.9,50.3,50.3,0,0,1,5.58-3.93,3.8,3.8,0,0,0,1.34-1.3c-2-.5-4.21-2.46-4.6-4.25a2.65,2.65,0,0,1,0-1.09,2.49,2.49,0,0,0-.4.2,55,55,0,0,0-6.26,4.33,60.61,60.61,0,0,0-8.16,7.69l0,0A42.83,42.83,0,0,0,285,251a33,33,0,0,0-1.16,5,32.21,32.21,0,0,0,.33,11.37h0a42.56,42.56,0,0,0,7.32,16,63.56,63.56,0,0,0,6,7.23,3.57,3.57,0,0,0,1.72,1,3.71,3.71,0,0,0,3.66-6.13Z" />
      <polygon class="GUNDAN_WEAPON_WEAPON_BACK_GUNDAN_WEAPON-06_cls-8" points="334.24 250.44 324.35 247.78 320.06 246.62 318.2 253.54 336.77 281.56 343 290.96 345.31 282.38 347.38 274.7 342.64 265.96 334.24 250.44" />
      <path class="GUNDAN_WEAPON_WEAPON_BACK_GUNDAN_WEAPON-06_cls-8" d="M365.83,187a17.65,17.65,0,0,0,0-2.3,22.27,22.27,0,1,0-1.67,9.68,19.58,19.58,0,0,0,.82-2.34c0-.12.08-.26.11-.38A22.16,22.16,0,0,0,365.83,187Zm-37.49-.4a4.68,4.68,0,1,1,5.74-3.3A4.66,4.66,0,0,1,328.34,186.61Zm10.25,17.82a4.68,4.68,0,1,1,5.74-3.3A4.67,4.67,0,0,1,338.59,204.43Zm7.57-28.08a4.68,4.68,0,1,1,5.74-3.3A4.67,4.67,0,0,1,346.16,176.35Zm10.26,17.83a4.68,4.68,0,1,1,5.74-3.3A4.68,4.68,0,0,1,356.42,194.18Z" />
      <path class="GUNDAN_WEAPON_WEAPON_BACK_GUNDAN_WEAPON-06_cls-8" d="M373.26,215.2l2.68.72a.88.88,0,0,1-.24.33l-1.82,1.83a1.52,1.52,0,0,1-2.12,0l-1.28-1.28-2.25-2.25a42.89,42.89,0,0,1-3.42,2.61l1.36,2.37,1.12,2a1.5,1.5,0,0,1-.55,2.05l-2.23,1.28a1.49,1.49,0,0,1-2.05-.55l-.84-1.45L360,219.92a37,37,0,0,1-3.84,1.6l-.14,0,1.29,4.83h0a1.49,1.49,0,0,1-1.06,1.83l-1.23.32-1.25.34a1.52,1.52,0,0,1-1.85-1.06L350.61,223a41.07,41.07,0,0,1-4.28.56v5a1.51,1.51,0,0,1-1.51,1.51h-2.56a1.52,1.52,0,0,1-1.51-1.51v-5a35.38,35.38,0,0,1-4.28-.57l-1.3,4.83a1.48,1.48,0,0,1-1.83,1.05l-2.48-.67a1.5,1.5,0,0,1-1.07-1.83l1.3-4.83a38.06,38.06,0,0,1-3.83-1.59l-.14-.06-2.51,4.33a1.5,1.5,0,0,1-2,.54l-1.84-1.07-.4-.22a1.53,1.53,0,0,1-.55-2.06l2.5-4.31a36.37,36.37,0,0,1-3.41-2.63L315.34,218a1.51,1.51,0,0,1-2.13,0l-1-1.05-.77-.76a1.51,1.51,0,0,1,0-2.13l3.53-3.53a39,39,0,0,1-2.6-3.42l-4.33,2.5a1.5,1.5,0,0,1-2.06-.56l-1.27-2.23a1.47,1.47,0,0,1,.55-2l4.32-2.5a38.33,38.33,0,0,1-1.65-4l-4.82,1.28a1.51,1.51,0,0,1-1.84-1.06l-.66-2.49a1.51,1.51,0,0,1,1.07-1.84l4.81-1.28a37.75,37.75,0,0,1-.55-4.27l-5,0a1.5,1.5,0,0,1-1.5-1.49v-2.58a1.52,1.52,0,0,1,1.52-1.5h5a35,35,0,0,1,.58-4.27l-4.83-1.3a1.51,1.51,0,0,1-1.07-1.85l.67-2.48a1.5,1.5,0,0,1,1.85-1.06l4.83,1.3a38.65,38.65,0,0,1,1.64-4l-4.32-2.5a1.49,1.49,0,0,1-.55-2l1.29-2.23a1.49,1.49,0,0,1,2.05-.55l4.32,2.51a39.93,39.93,0,0,1,2.63-3.43l-3.52-3.51a1.51,1.51,0,0,1,0-2.13l1.82-1.83a1.52,1.52,0,0,1,2.13,0l3.52,3.54a34.45,34.45,0,0,1,3.43-2.61l-2.49-4.34a1.49,1.49,0,0,1,.56-2.05l2.22-1.28a1.49,1.49,0,0,1,2.05.55l2.5,4.34a35.38,35.38,0,0,1,4-1.66l-1.28-4.82a1.49,1.49,0,0,1,1.06-1.83l2.49-.67a1.51,1.51,0,0,1,1.84,1.06l1.28,4.82a38,38,0,0,1,4.27-.55v-5a1.51,1.51,0,0,1,1.5-1.51H345a1.48,1.48,0,0,1,1.49,1.5v5a39.07,39.07,0,0,1,4.27.58l1.3-4.83a1.5,1.5,0,0,1,1.84-1.06l2.49.67a1.49,1.49,0,0,1,1.05,1.84l-1.3,4.83a37.11,37.11,0,0,1,4,1.65l2.5-4.32a1.5,1.5,0,0,1,2.06-.55l2.22,1.29a1.5,1.5,0,0,1,.54,2.06l-2.49,4.31a41.28,41.28,0,0,1,3.42,2.62l3.52-3.51a1.5,1.5,0,0,1,2.13,0l1.81,1.83a1.48,1.48,0,0,1,0,2.11l-3.54,3.53c.33.37.64.75.95,1.14.58.74,1.13,1.5,1.66,2.29l3.48-2,3.4.91.79,1.37A1.52,1.52,0,0,1,382,167l-4.33,2.49a39.66,39.66,0,0,1,1.65,4l4.82-1.29a1.52,1.52,0,0,1,1.84,1.07l.66,2.49a1.52,1.52,0,0,1-1.07,1.84l-.75.2-.35.09c-.56-.3-1.13-.58-1.69-.85-2-1-3.85-1.75-5.49-2.37-.78-.3-1.51-.56-2.17-.79a46.27,46.27,0,0,0-4.64-1.34l-1.77.74a28.08,28.08,0,1,0-17.58,39.67,27.47,27.47,0,0,0,7.54-3.36A26.76,26.76,0,0,0,360.9,208l-1,3.61Z" />
      <path class="GUNDAN_WEAPON_WEAPON_BACK_GUNDAN_WEAPON-06_cls-11" d="M407.92,234.16c-.19.63-.38,1.24-.58,1.85-.06.19-.13.37-.2.56s-.16.48-.25.72-.23.64-.35,1l-.32.8a49.94,49.94,0,0,1-2.39,5.16c-.2.39-.41.77-.62,1.14-.09.16-.18.33-.27.47l-.21.36c-.23.41-.47.81-.72,1.21s-.33.54-.52.81-.34.53-.52.79a59.52,59.52,0,0,1-11.42,12.68c-.24.2-.48.4-.72.58-.84.68-1.64,1.28-2.38,1.83l-.45.32c-.57.41-1.11.77-1.6,1.1l-.86.56-.89.55-.48.29L382,267l-.18.11-.17.09-.21.12,0,0a.34.34,0,0,0-.16.08h0c.35-.71,15.71-31.44,5.43-48.62l-13.35-3.6-13.34-3.59,10.54-39.08a46.27,46.27,0,0,1,4.64,1.34c.66.23,1.39.49,2.17.79,1.64.62,3.51,1.41,5.49,2.37.56.27,1.13.55,1.69.85l.26.13c1.45.77,2.94,1.63,4.45,2.6.62.39,1.24.8,1.86,1.24,9.52,6.63,18.83,17.54,19.16,34.86A57.68,57.68,0,0,1,407.92,234.16Z" />
      <path class="GUNDAN_WEAPON_WEAPON_BACK_GUNDAN_WEAPON-06_cls-12" d="M389,285.91l-7.8-18.47h0s.08-.05.16-.08l0,0,.21-.12.17-.09L382,267l.22-.11.48-.29.89-.55.86-.56c.49-.33,1-.69,1.6-1.1l.45-.32c.74-.55,1.54-1.15,2.38-1.83.24-.18.48-.38.72-.58A59.52,59.52,0,0,0,401,249c.18-.26.35-.52.52-.79s.36-.54.52-.81.49-.8.72-1.21l.21-.36.27-.47c.21-.37.42-.75.62-1.14a49.94,49.94,0,0,0,2.39-5.16l.32-.8c.12-.32.24-.64.35-1s.17-.47.25-.72.14-.37.2-.56c.2-.61.39-1.22.58-1.85a57.68,57.68,0,0,0,2.26-17.45c-.33-17.32-9.64-28.23-19.16-34.86-.62-.44-1.24-.85-1.86-1.24-1.51-1-3-1.83-4.45-2.6l-.26-.13.35-.09.75-.2a1.52,1.52,0,0,0,1.07-1.84l-.66-2.49a1.52,1.52,0,0,0-1.84-1.07l-4.82,1.29a39.66,39.66,0,0,0-1.65-4L382,167a1.52,1.52,0,0,0,.55-2.06l-.79-1.37L405.4,170s-2.77,11.24,4.63,12.21l10.86-2.38.29-.06S446.35,245.65,389,285.91Z" />
      <path class="GUNDAN_WEAPON_WEAPON_BACK_GUNDAN_WEAPON-06_cls-13" d="M357.27,226.41a1.49,1.49,0,0,1-1.06,1.83l-1.23.32-1.25.34a1.52,1.52,0,0,1-1.85-1.06L350.61,223a41.07,41.07,0,0,1-4.28.56v5a1.51,1.51,0,0,1-1.51,1.51h-2.56a1.52,1.52,0,0,1-1.51-1.51v-5c-.72-.05-1.43-.13-2.15-.23s-1.42-.2-2.13-.34l-1.3,4.83a1.48,1.48,0,0,1-1.83,1.05l-2.48-.67a1.5,1.5,0,0,1-1.07-1.83l1.3-4.83a38.06,38.06,0,0,1-3.83-1.59l-.14-.06-2.51,4.33a1.5,1.5,0,0,1-2,.54l-1.84-1.07-.4-.22a1.53,1.53,0,0,1-.55-2.06l2.5-4.31a36.37,36.37,0,0,1-3.41-2.63L315.34,218a1.51,1.51,0,0,1-2.13,0l-1-1.05-.77-.76a1.51,1.51,0,0,1,0-2.13l3.53-3.53a39,39,0,0,1-2.6-3.42l-4.33,2.5a1.5,1.5,0,0,1-2.06-.56l-1.27-2.23a1.47,1.47,0,0,1,.55-2l4.32-2.5a38.33,38.33,0,0,1-1.65-4l-4.82,1.28a1.51,1.51,0,0,1-1.84-1.06l-.66-2.49a1.51,1.51,0,0,1,1.07-1.84l4.81-1.28a37.75,37.75,0,0,1-.55-4.27l-5,0a1.5,1.5,0,0,1-1.5-1.49v-2.58a1.52,1.52,0,0,1,1.52-1.5h5a35,35,0,0,1,.58-4.27l-4.83-1.3a1.51,1.51,0,0,1-1.07-1.85l.67-2.48a1.5,1.5,0,0,1,1.85-1.06l4.83,1.3a38.65,38.65,0,0,1,1.64-4l-4.32-2.5a1.49,1.49,0,0,1-.55-2l1.29-2.23a1.49,1.49,0,0,1,2.05-.55l4.32,2.51a39.93,39.93,0,0,1,2.63-3.43l-3.52-3.51a1.51,1.51,0,0,1,0-2.13l1.82-1.83a1.52,1.52,0,0,1,2.13,0l3.52,3.54a34.45,34.45,0,0,1,3.43-2.61l-2.49-4.34a1.49,1.49,0,0,1,.56-2.05l2.22-1.28a1.49,1.49,0,0,1,2.05.55l2.5,4.34a35.38,35.38,0,0,1,4-1.66l-1.28-4.82a1.49,1.49,0,0,1,1.06-1.83l2.49-.67a1.51,1.51,0,0,1,1.84,1.06l1.28,4.82a38,38,0,0,1,4.27-.55v-5a1.51,1.51,0,0,1,1.5-1.51H345a1.48,1.48,0,0,1,1.49,1.5v5a39.07,39.07,0,0,1,4.27.58l1.3-4.83a1.5,1.5,0,0,1,1.84-1.06l2.49.67a1.4,1.4,0,0,1,.85.63,1.42,1.42,0,0,1,.2,1.21l-.33,1.23-1,3.6.76.28c1.1.41,2.18.86,3.23,1.37l2.5-4.32a1.5,1.5,0,0,1,2.06-.55l2.22,1.29a1.5,1.5,0,0,1,.54,2.06l-2.49,4.31a41.28,41.28,0,0,1,3.42,2.62l3.52-3.51a1.5,1.5,0,0,1,2.13,0l1.81,1.83a1.48,1.48,0,0,1,0,2.11l-3.54,3.53c.33.37.64.75.95,1.14.58.74,1.13,1.5,1.66,2.29l3.48-2,.86-.49a1.47,1.47,0,0,1,2,.55l.5.85.79,1.37A1.52,1.52,0,0,1,382,167l-4.33,2.49a39.66,39.66,0,0,1,1.65,4l4.82-1.29a1.52,1.52,0,0,1,1.84,1.07l.66,2.49a1.52,1.52,0,0,1-1.07,1.84l-1.1.29" />
      <path class="GUNDAN_WEAPON_WEAPON_BACK_GUNDAN_WEAPON-06_cls-13" d="M357.28,226.4,356,221.57l.14,0a35.92,35.92,0,0,0,3.83-1.6l1.66,2.89.84,1.45a1.49,1.49,0,0,0,2.05.55l2.23-1.28a1.5,1.5,0,0,0,.55-2.05l-1.12-2-1.36-2.37a42.89,42.89,0,0,0,3.42-2.61l2.25,2.25,1.28,1.28a1.52,1.52,0,0,0,2.12,0l1.82-1.83a.88.88,0,0,0,.24-.33" />
      <path class="GUNDAN_WEAPON_WEAPON_BACK_GUNDAN_WEAPON-06_cls-13" d="M369.67,175.44c-.29-.74-.62-1.46-1-2.17A28.08,28.08,0,1,0,360.9,208" />
      <path class="GUNDAN_WEAPON_WEAPON_BACK_GUNDAN_WEAPON-06_cls-13" d="M365.09,191.67a22.24,22.24,0,0,1-26.63,15.85,5.28,5.28,0,0,1-.66-.16,22.26,22.26,0,1,1,11.59-43,21.58,21.58,0,0,1,4,1.51A22.28,22.28,0,0,1,365.09,191.67Z" />
      <circle class="GUNDAN_WEAPON_WEAPON_BACK_GUNDAN_WEAPON-06_cls-13" cx="329.56" cy="182.09" r="4.68" />
      <circle class="GUNDAN_WEAPON_WEAPON_BACK_GUNDAN_WEAPON-06_cls-13" cx="339.81" cy="199.91" r="4.68" />
      <circle class="GUNDAN_WEAPON_WEAPON_BACK_GUNDAN_WEAPON-06_cls-13" cx="347.38" cy="171.83" r="4.68" />
      <circle class="GUNDAN_WEAPON_WEAPON_BACK_GUNDAN_WEAPON-06_cls-13" cx="357.63" cy="189.66" r="4.68" />
      <path class="GUNDAN_WEAPON_WEAPON_BACK_GUNDAN_WEAPON-06_cls-13" d="M291.06,363.69l-4.6-1.24a3.47,3.47,0,1,0-1.81,6.7l4.6,1.24,4.3,1.16,4.28,1.15,4.6,1.24a3.46,3.46,0,0,0,2.63-.34,3.52,3.52,0,0,0,1.63-2.11,3.48,3.48,0,0,0-2.46-4.25L299.64,366" />
      <path class="GUNDAN_WEAPON_WEAPON_BACK_GUNDAN_WEAPON-06_cls-13" d="M277,417.58a3.45,3.45,0,0,0-2.63.35,3.46,3.46,0,0,0,.82,6.36l4.31,1.16,3.35.91a3.47,3.47,0,0,0,1.8-6.71" />
      <path class="GUNDAN_WEAPON_WEAPON_BACK_GUNDAN_WEAPON-06_cls-13" d="M370.46,172.53l-.79,2.91-.48,1.81-.69,2.55-1.44,5.34-.57,2.1L365.21,192l-.63,2.31-2.53,9.41-.55,2-.6,2.24-1,3.61,13.34,3.59,2.68.72,10.67,2.88c10.28,17.18-5.08,47.91-5.43,48.62h0" />
      <path class="GUNDAN_WEAPON_WEAPON_BACK_GUNDAN_WEAPON-06_cls-13" d="M381.17,267.44l7.8,18.47c57.38-40.26,32.21-106.18,32.21-106.18l-.29.06L410,182.17c-7.4-1-4.63-12.21-4.63-12.21l-23.66-6.38-3.4-.91" />
      <path class="GUNDAN_WEAPON_WEAPON_BACK_GUNDAN_WEAPON-06_cls-13" d="M381.17,267.44h0a.34.34,0,0,1,.16-.08l0,0,.21-.12.17-.09L382,267l.22-.11.48-.29.89-.55.86-.56c.49-.33,1-.69,1.6-1.1l.45-.32c.74-.55,1.54-1.15,2.38-1.83.24-.18.48-.38.72-.58A59.52,59.52,0,0,0,401,249c.18-.26.35-.52.52-.79s.36-.54.52-.81.49-.8.72-1.21l.21-.36c.09-.14.18-.31.27-.47.21-.37.42-.75.62-1.14a49.94,49.94,0,0,0,2.39-5.16c.12-.26.22-.53.32-.8s.24-.64.35-1,.18-.48.25-.72.14-.37.2-.56c.2-.61.39-1.22.58-1.85a57.68,57.68,0,0,0,2.26-17.45c-.33-17.32-9.64-28.23-19.16-34.86-.62-.44-1.24-.85-1.86-1.24-1.51-1-3-1.83-4.45-2.6l-.26-.13c-.56-.3-1.13-.58-1.69-.85-2-1-3.85-1.75-5.49-2.37-.78-.3-1.51-.56-2.17-.79a46.27,46.27,0,0,0-4.64-1.34l-1.77.74" />
      <polyline class="GUNDAN_WEAPON_WEAPON_BACK_GUNDAN_WEAPON-06_cls-13" points="327.25 219.94 321.67 240.67 333.16 243.77 336.2 244.59 340.75 227.73" />
      <path class="GUNDAN_WEAPON_WEAPON_BACK_GUNDAN_WEAPON-06_cls-13" d="M357.27,226.41h0" />
      <path class="GUNDAN_WEAPON_WEAPON_BACK_GUNDAN_WEAPON-06_cls-13" d="M336.2,244.59l8.35,2.25,1.28-4.77c1.68-5,5.19-9.58,9.15-13.51" />
      <polyline class="GUNDAN_WEAPON_WEAPON_BACK_GUNDAN_WEAPON-06_cls-13" points="321.67 240.67 320.06 246.62 324.35 247.78 333.02 250.12 334.24 250.44 345.98 253.61 344.55 246.84" />
      <polyline class="GUNDAN_WEAPON_WEAPON_BACK_GUNDAN_WEAPON-06_cls-13" points="334.24 250.44 342.64 265.96 347.38 274.7 345.31 282.38 324.35 247.78" />
      <polyline class="GUNDAN_WEAPON_WEAPON_BACK_GUNDAN_WEAPON-06_cls-13" points="320.06 246.62 318.2 253.54 326.29 265.73 326.28 265.74 336.77 281.56 343 290.96 345.31 282.38" />
      <line class="GUNDAN_WEAPON_WEAPON_BACK_GUNDAN_WEAPON-06_cls-13" x1="345.98" y1="253.61" x2="342.65" y2="265.95" />
      <polyline class="GUNDAN_WEAPON_WEAPON_BACK_GUNDAN_WEAPON-06_cls-13" points="301.33 283.81 308.62 256.78 318.2 253.54 301.36 315.98 296.98 299.96 299.23 291.63" />
      <polyline class="GUNDAN_WEAPON_WEAPON_BACK_GUNDAN_WEAPON-06_cls-13" points="301.36 315.98 303.75 316.62 308.64 317.94 312.33 318.94 315.42 319.77 321.28 309.65 336.77 281.56" />
      <polyline class="GUNDAN_WEAPON_WEAPON_BACK_GUNDAN_WEAPON-06_cls-13" points="312.33 318.94 299.64 366 295.95 365.01 291.06 363.69 303.75 316.62" />
      <polyline class="GUNDAN_WEAPON_WEAPON_BACK_GUNDAN_WEAPON-06_cls-13" points="297.83 372.7 285.14 419.77 284.67 419.65 280.86 418.62 277.02 417.58 276.56 417.46 289.25 370.39" />
      <path class="GUNDAN_WEAPON_WEAPON_BACK_GUNDAN_WEAPON-06_cls-13" d="M312.17,216.92s-3,3.82-3.41,6.49a2.65,2.65,0,0,0,0,1.09c.39,1.79,2.64,3.75,4.6,4.25a2.56,2.56,0,0,0,2.18-.27,62.58,62.58,0,0,0,5.18-4.8" />
      <path class="GUNDAN_WEAPON_WEAPON_BACK_GUNDAN_WEAPON-06_cls-13" d="M313.37,228.75a3.8,3.8,0,0,1-1.34,1.3,50.3,50.3,0,0,0-5.58,3.93,52.76,52.76,0,0,0-8.85,8.9,32.4,32.4,0,0,0-6,12.09q-.25,1.07-.42,2.16a24.81,24.81,0,0,0,.37,9.11,35,35,0,0,0,5.7,12.39" />
      <path class="GUNDAN_WEAPON_WEAPON_BACK_GUNDAN_WEAPON-06_cls-13" d="M284.18,267.38a42.56,42.56,0,0,0,7.32,16,63.56,63.56,0,0,0,6,7.23,3.57,3.57,0,0,0,1.72,1,3.71,3.71,0,0,0,3.66-6.13c-.54-.56-1.06-1.12-1.55-1.69a55.79,55.79,0,0,1-4.1-5.17" />
      <path class="GUNDAN_WEAPON_WEAPON_BACK_GUNDAN_WEAPON-06_cls-13" d="M284.17,267.38a32.21,32.21,0,0,1-.33-11.37,33,33,0,0,1,1.16-5,42.83,42.83,0,0,1,8.92-15.32" />
      <path class="GUNDAN_WEAPON_WEAPON_BACK_GUNDAN_WEAPON-06_cls-13" d="M293.94,235.63a60.61,60.61,0,0,1,8.16-7.69,55,55,0,0,1,6.26-4.33,2.49,2.49,0,0,1,.4-.2" />
      <path class="GUNDAN_WEAPON_WEAPON_BACK_GUNDAN_WEAPON-06_cls-13" d="M302.1,227.94s-1.91,3.82,4.35,6" />
      <path class="GUNDAN_WEAPON_WEAPON_BACK_GUNDAN_WEAPON-06_cls-13" d="M297.6,242.88c-6-2.71-3.83-6.94-3.68-7.23l0,0" />
      <path class="GUNDAN_WEAPON_WEAPON_BACK_GUNDAN_WEAPON-06_cls-13" d="M285,250.88a.51.51,0,0,0,0,.09c.05.66.61,5,6.59,4" />
      <path class="GUNDAN_WEAPON_WEAPON_BACK_GUNDAN_WEAPON-06_cls-13" d="M284.17,267.38h0c5.26,4.32,7.36-1.14,7.36-1.14" />
      <path class="GUNDAN_WEAPON_WEAPON_BACK_GUNDAN_WEAPON-06_cls-13" d="M291.5,283.37c7.05,1,5.82-4.42,5.74-4.73h0" />
      <path class="GUNDAN_WEAPON_WEAPON_BACK_GUNDAN_WEAPON-06_cls-14" d="M333,250.12l.14-6.35v-.32l5.43-20.13s.23-3.65-8-7.22S308.14,189.34,314.32,174c12.83-28.11,42.53-23.51,42.53-23.51l.21-3.88.13-2.44a1.4,1.4,0,0,0-.85-.63l-2.49-.67a1.5,1.5,0,0,0-1.84,1.06l-1.3,4.83a39.07,39.07,0,0,0-4.27-.58v-5a1.48,1.48,0,0,0-1.49-1.5h-2.59a1.51,1.51,0,0,0-1.5,1.51v5a38,38,0,0,0-4.27.55l-1.28-4.82a1.51,1.51,0,0,0-1.84-1.06l-2.49.67a1.49,1.49,0,0,0-1.06,1.83l1.28,4.82a35.38,35.38,0,0,0-4,1.66l-2.5-4.34a1.49,1.49,0,0,0-2.05-.55l-2.22,1.28a1.49,1.49,0,0,0-.56,2.05l2.49,4.34a34.45,34.45,0,0,0-3.43,2.61l-3.52-3.54a1.52,1.52,0,0,0-2.13,0l-1.82,1.83a1.51,1.51,0,0,0,0,2.13l3.52,3.51a39.93,39.93,0,0,0-2.63,3.43l-4.32-2.51a1.49,1.49,0,0,0-2.05.55l-1.29,2.23a1.49,1.49,0,0,0,.55,2l4.32,2.5a38.65,38.65,0,0,0-1.64,4l-4.83-1.3a1.5,1.5,0,0,0-1.85,1.06l-.67,2.48a1.51,1.51,0,0,0,1.07,1.85l4.83,1.3a35,35,0,0,0-.58,4.27h-5a1.52,1.52,0,0,0-1.52,1.5v2.58a1.5,1.5,0,0,0,1.5,1.49l5,0a37.75,37.75,0,0,0,.55,4.27l-4.81,1.28a1.51,1.51,0,0,0-1.07,1.84l.66,2.49a1.51,1.51,0,0,0,1.84,1.06l4.82-1.28a38.33,38.33,0,0,0,1.65,4l-4.32,2.5a1.47,1.47,0,0,0-.55,2l1.27,2.23a1.5,1.5,0,0,0,2.06.56l4.33-2.5a39,39,0,0,0,2.6,3.42L311.4,214a1.51,1.51,0,0,0,0,2.13l.77.76s-3,3.82-3.41,6.49a2.49,2.49,0,0,0-.4.2,55,55,0,0,0-6.26,4.33,60.61,60.61,0,0,0-8.16,7.69l0,0A42.83,42.83,0,0,0,285,251a33,33,0,0,0-1.16,5,32.21,32.21,0,0,0,.33,11.37h0a42.56,42.56,0,0,0,7.32,16,63.56,63.56,0,0,0,6,7.23,3.57,3.57,0,0,0,1.72,1L297,300l4.38,16,2.39.64-12.69,47.07-4.6-1.24a3.47,3.47,0,1,0-1.81,6.7l4.6,1.24-12.69,47.07.46.12a3.45,3.45,0,0,0-2.63.35,3.46,3.46,0,0,0,.82,6.36l4.31,1.16c-3-3.66,1.34-6.83,1.34-6.83l12.69-47.07a4.83,4.83,0,0,1,2.38-6.48l12.71-47.13,17.64-52.2,0-.05,14.12,21.06,1.8-9.47Zm-14.82,3.42-9.58,3.24-7.28,27a55.79,55.79,0,0,1-4.1-5.17h0a35,35,0,0,1-5.7-12.39,24.81,24.81,0,0,1-.37-9.11q.16-1.1.42-2.16a32.4,32.4,0,0,1,6-12.09,52.76,52.76,0,0,1,8.85-8.9,50.3,50.3,0,0,1,5.58-3.93,3.8,3.8,0,0,0,1.34-1.3,2.56,2.56,0,0,0,2.18-.27,62.58,62.58,0,0,0,5.18-4.8l1.84,1.07a1.5,1.5,0,0,0,2-.54l2.51-4.33.14.06Z" />
      <path class="GUNDAN_WEAPON_WEAPON_BACK_GUNDAN_WEAPON-06_cls-14" d="M353.42,165.89a21.58,21.58,0,0,0-4-1.51,22.26,22.26,0,1,0-11.59,43,5.28,5.28,0,0,0,.66.16C326.56,181.75,344.85,169.87,353.42,165.89Z" />
      <path class="GUNDAN_WEAPON_WEAPON_BACK_GUNDAN_WEAPON-06_cls-14" d="M421.18,179.73l-.29.06a142,142,0,0,1-3.45,50c-8,31.11-35.4,37.44-36.24,37.63h0l7.8,18.47C446.35,245.65,421.18,179.73,421.18,179.73Z" />
      <path class="GUNDAN_WEAPON_WEAPON_BACK_GUNDAN_WEAPON-06_cls-14" d="M381.18,267.42C407.17,246.32,392,214,392,214l-30.69-8.28-2.66,3.88-5.45,8s1.1,1.38,2.93,4a37,37,0,0,0,3.84-1.6l1.65,2.89.84,1.45a1.49,1.49,0,0,0,2.05.55l2.23-1.28a1.5,1.5,0,0,0,.55-2.05l-1.12-2-1.36-2.37a42.89,42.89,0,0,0,3.42-2.61l2.25,2.25,1.28,1.28a1.52,1.52,0,0,0,2.12,0l1.82-1.83a.88.88,0,0,0,.24-.33l10.67,2.88C396.89,236,381.53,266.71,381.18,267.42Z" />
      <path class="GUNDAN_WEAPON_WEAPON_BACK_GUNDAN_WEAPON-06_cls-8" d="M394.87,197.42l.71-2.06-4.16-1.51a13.14,13.14,0,0,0,.36-4.47l4.37-.79-.38-2.13-4.38.78a12.85,12.85,0,0,0-1.92-4.07l1.55-1.32,1.83-1.55-1.39-1.64-2.3,2-1.08.91a12.8,12.8,0,0,0-3.71-2.55l.34-1,.09-.22,1.08-3-2.05-.74-1.07,3-.43,1.21a12.74,12.74,0,0,0-4.47-.37l-.59-3.21-.21-1.14-2,.35-.16,0,.78,4.33a13.13,13.13,0,0,0-4.05,1.94l-2.48-2.93-.4-.46-1.65,1.41,1.36,1.6,1.51,1.79a13.23,13.23,0,0,0-2.57,3.68l-.38-.13-1.23-.43-2.56-.91-.73,2,3.29,1.19.66.23.22.08a13,13,0,0,0-.37,4.48l-1.13.21-.23,0-3,.55.41,2.13,1.78-.34.42-.07,2.15-.4a13,13,0,0,0,1.92,4.08l-3.38,2.87,1.38,1.65,3.39-2.88a12.52,12.52,0,0,0,3.71,2.56l-1.49,4.19,2,.74,1.49-4.2a12.6,12.6,0,0,0,4.48.38l.82,4.36,2.13-.37-.8-4.37a12.93,12.93,0,0,0,4.06-1.93l2.86,3.38L391,203l-2.88-3.39a13.33,13.33,0,0,0,2.58-3.68Zm-10.61-.68a8,8,0,1,1,.93-11.35A8.06,8.06,0,0,1,384.26,196.74Z" />
      <path d="M377.06,173.51l.8,4.36c.4,0,.8-.05,1.19-.05a13.06,13.06,0,0,1,3.28.42l1.5-4.18,2.05.74L384.37,179a12.64,12.64,0,0,1,3.71,2.56l3.39-2.88,1.39,1.65-3.39,2.87a12.63,12.63,0,0,1,1.92,4.07l4.37-.78.39,2.13-4.38.79a12.48,12.48,0,0,1-.36,4.48l4.17,1.5-.72,2-4.17-1.5a12.88,12.88,0,0,1-2.57,3.68L391,203l-1.65,1.4L386.47,201a13,13,0,0,1-4.06,1.94l.79,4.37-2.13.37-.8-4.36c-.4,0-.81.05-1.22.05a13,13,0,0,1-3.27-.42l-1.49,4.19-2-.74,1.49-4.19a12.52,12.52,0,0,1-3.71-2.56l-3.38,2.87-1.4-1.64,3.39-2.87a12.57,12.57,0,0,1-1.91-4.08l-4.36.81-.41-2.14,4.37-.79a13,13,0,0,1,.38-4.48l-4.17-1.5.73-2,4.16,1.47a13.23,13.23,0,0,1,2.57-3.68l-2.87-3.39,1.65-1.4,2.87,3.38a13.26,13.26,0,0,1,4.06-1.93l-.78-4.34,2.12-.4m0-1.58a1.43,1.43,0,0,0-.29,0l-2.12.39a1.58,1.58,0,0,0-1.27,1.84l.54,3a13.77,13.77,0,0,0-1.94.92l-2-2.34a1.58,1.58,0,0,0-1.21-.56,1.59,1.59,0,0,0-1,.38l-1.65,1.4a1.58,1.58,0,0,0-.19,2.23l2,2.34a14.56,14.56,0,0,0-1.23,1.76l-2.87-1a1.69,1.69,0,0,0-.53-.09,1.58,1.58,0,0,0-1.49,1l-.73,2a1.59,1.59,0,0,0,.95,2l2.88,1a14.19,14.19,0,0,0-.19,2.15l-3,.55a1.52,1.52,0,0,0-1,.66,1.58,1.58,0,0,0-.25,1.19l.4,2.13a1.59,1.59,0,0,0,1.55,1.29,1.36,1.36,0,0,0,.29,0l3-.55a13.38,13.38,0,0,0,.92,2l-2.34,2a1.58,1.58,0,0,0-.55,1.08,1.55,1.55,0,0,0,.37,1.15l1.39,1.65a1.58,1.58,0,0,0,1.21.56,1.59,1.59,0,0,0,1-.38l2.34-2A12.81,12.81,0,0,0,371.8,203l-1,2.89a1.57,1.57,0,0,0,1,2l2,.74a1.47,1.47,0,0,0,.54.1,1.64,1.64,0,0,0,.68-.15,1.59,1.59,0,0,0,.81-.9l1-2.89A15.46,15.46,0,0,0,379,205l.56,3a1.58,1.58,0,0,0,1.55,1.3l.27,0,2.13-.37a1.59,1.59,0,0,0,1.29-1.85l-.55-3a13.82,13.82,0,0,0,1.94-.93l2,2.33a1.59,1.59,0,0,0,2.23.19l1.66-1.4a1.59,1.59,0,0,0,.18-2.23l-2-2.34a12.61,12.61,0,0,0,1.23-1.76l2.87,1a1.7,1.7,0,0,0,.54.09,1.6,1.6,0,0,0,.68-.15,1.58,1.58,0,0,0,.82-.9l.72-2.05a1.59,1.59,0,0,0-1-2l-2.88-1a13.83,13.83,0,0,0,.18-2.14l3-.54a1.59,1.59,0,0,0,1-.65,1.63,1.63,0,0,0,.26-1.19l-.39-2.13a1.57,1.57,0,0,0-1.55-1.3l-.29,0-3,.54a15.89,15.89,0,0,0-.92-2l2.33-2a1.6,1.6,0,0,0,.19-2.24l-1.4-1.64a1.57,1.57,0,0,0-1.2-.56,1.6,1.6,0,0,0-1,.38l-2.33,2a14.8,14.8,0,0,0-1.78-1.23l1-2.86a1.6,1.6,0,0,0-.95-2l-2.05-.74a1.7,1.7,0,0,0-.54-.09,1.59,1.59,0,0,0-1.49,1.05l-1,2.88a15.45,15.45,0,0,0-2.14-.18l-.55-3a1.59,1.59,0,0,0-1.56-1.3Z" />
      <path d="M379.08,182.57a8,8,0,0,1,6.11,2.82,8.06,8.06,0,0,1-.93,11.35,8,8,0,0,1-10.39-12.26,8.07,8.07,0,0,1,5.21-1.91m0-1.59h0a9.67,9.67,0,0,0-6.23,2.29,9.62,9.62,0,0,0-1.12,13.54,9.64,9.64,0,0,0,7.36,3.4,9.53,9.53,0,0,0,6.19-2.27,9.62,9.62,0,0,0-6.2-17Z" />
    </g>
  </g>
</svg>