<svg id="Jewelry" xmlns="http://www.w3.org/2000/svg" viewBox="0 0 432 432">
  <defs>
    <style>.GUNDAN_LIZARD_JEWELRY_LIZARD_JEWELRY_5_cls-1{fill:#ef9648;}.GUNDAN_LIZARD_JEWELRY_LIZARD_JEWELRY_5_cls-2{fill:#fbd157;}.GUNDAN_LIZARD_JEWELRY_LIZARD_JEWELRY_5_cls-3{fill:#b42226;}.GUNDAN_LIZARD_JEWELRY_LIZARD_JEWELRY_5_cls-4{fill:#ef3943;}.GUNDAN_LIZARD_JEWELRY_LIZARD_JEWELRY_5_cls-12,.GUNDAN_LIZARD_JEWELRY_LIZARD_JEWELRY_5_cls-13,.GUNDAN_LIZARD_JEWELRY_LIZARD_JEWELRY_5_cls-5,.GUNDAN_LIZARD_JEWELRY_LIZARD_JEWELRY_5_cls-6,.GUNDAN_LIZARD_JEWELRY_LIZARD_JEWELRY_5_cls-8{fill:none;stroke:#010101;stroke-linecap:round;}.GUNDAN_LIZARD_JEWELRY_LIZARD_JEWELRY_5_cls-5{stroke-miterlimit:10;stroke-width:0.9px;}.GUNDAN_LIZARD_JEWELRY_LIZARD_JEWELRY_5_cls-12,.GUNDAN_LIZARD_JEWELRY_LIZARD_JEWELRY_5_cls-13,.GUNDAN_LIZARD_JEWELRY_LIZARD_JEWELRY_5_cls-6,.GUNDAN_LIZARD_JEWELRY_LIZARD_JEWELRY_5_cls-8{stroke-linejoin:round;}.GUNDAN_LIZARD_JEWELRY_LIZARD_JEWELRY_5_cls-6{stroke-width:0.65px;}.GUNDAN_LIZARD_JEWELRY_LIZARD_JEWELRY_5_cls-7{fill:#d1b341;}.GUNDAN_LIZARD_JEWELRY_LIZARD_JEWELRY_5_cls-8{stroke-width:2.02px;}.GUNDAN_LIZARD_JEWELRY_LIZARD_JEWELRY_5_cls-9{fill:#010101;}.GUNDAN_LIZARD_JEWELRY_LIZARD_JEWELRY_5_cls-10{fill:#edbf39;}.GUNDAN_LIZARD_JEWELRY_LIZARD_JEWELRY_5_cls-11{fill:#ae8d2f;}.GUNDAN_LIZARD_JEWELRY_LIZARD_JEWELRY_5_cls-12{stroke-width:0.5px;}.GUNDAN_LIZARD_JEWELRY_LIZARD_JEWELRY_5_cls-13{stroke-width:0.6px;}</style>
  </defs>
  <path class="GUNDAN_LIZARD_JEWELRY_LIZARD_JEWELRY_5_cls-1" d="M313.5,201.76c-.44-16.2-14.22-12.29-11.46.91C308.85,207.1,313.5,201.76,313.5,201.76Z" />
  <path class="GUNDAN_LIZARD_JEWELRY_LIZARD_JEWELRY_5_cls-2" d="M311.71,200.72c-.39-13.88-12.19-10.53-9.83.78C307.72,205.29,311.71,200.72,311.71,200.72Z" />
  <path class="GUNDAN_LIZARD_JEWELRY_LIZARD_JEWELRY_5_cls-3" d="M301.58,223.41a2.69,2.69,0,0,0,3.8,1.64,2.69,2.69,0,0,0,4.19.55,2.67,2.67,0,0,0,4-1.2,2.68,2.68,0,0,0,3.49-2.22s3.22.13,3.12-2.51-6.72-17.91-6.72-17.91-4.65,5.34-11.46.91h-.11s-4.14,16.11-3.83,18.74S301.58,223.41,301.58,223.41Z" />
  <path class="GUNDAN_LIZARD_JEWELRY_LIZARD_JEWELRY_5_cls-4" d="M302,221.19a2.47,2.47,0,0,0,3.49,1.46,2.5,2.5,0,0,0,3.84.49,2.5,2.5,0,0,0,3.72-1.09,2.45,2.45,0,0,0,3.21-2s3,.1,2.88-2.26-6.14-16-6.14-16-4.29,4.78-10.54.83h-.1s-3.84,14.43-3.55,16.78S302,221.19,302,221.19Z" />
  <path class="GUNDAN_LIZARD_JEWELRY_LIZARD_JEWELRY_5_cls-5" d="M313.5,201.76s-4.65,5.34-11.46.91C299.28,189.47,313.06,185.56,313.5,201.76Z" />
  <path class="GUNDAN_LIZARD_JEWELRY_LIZARD_JEWELRY_5_cls-5" d="M301.93,202.68s-4.14,16.11-3.83,18.74,3.48,2,3.48,2a2.69,2.69,0,0,0,3.8,1.64,2.69,2.69,0,0,0,4.19.55,2.67,2.67,0,0,0,4-1.2,2.68,2.68,0,0,0,3.49-2.22s3.22.13,3.12-2.51-6.72-17.91-6.72-17.91" />
  <path class="GUNDAN_LIZARD_JEWELRY_LIZARD_JEWELRY_5_cls-5" d="M307.19,170.71a4.62,4.62,0,0,1,1.73,3.65" />
  <path class="GUNDAN_LIZARD_JEWELRY_LIZARD_JEWELRY_5_cls-5" d="M303.05,171.08a3.55,3.55,0,0,0-1.23,3,5.86,5.86,0,0,0,4.19,5.21l.31,3.81" />
  <line class="GUNDAN_LIZARD_JEWELRY_LIZARD_JEWELRY_5_cls-5" x1="306.85" y1="191.15" x2="306.64" y2="188.5" />
  <path class="GUNDAN_LIZARD_JEWELRY_LIZARD_JEWELRY_5_cls-5" d="M306.21,183.09a2.71,2.71,0,1,0,2.92,2.49A2.73,2.73,0,0,0,306.21,183.09Z" />
  <line class="GUNDAN_LIZARD_JEWELRY_LIZARD_JEWELRY_5_cls-5" x1="312.67" y1="207.96" x2="317.1" y2="222.18" />
  <line class="GUNDAN_LIZARD_JEWELRY_LIZARD_JEWELRY_5_cls-5" x1="310.86" y1="212.36" x2="313.61" y2="224.4" />
  <line class="GUNDAN_LIZARD_JEWELRY_LIZARD_JEWELRY_5_cls-5" x1="308.05" y1="208.32" x2="309.57" y2="225.6" />
  <line class="GUNDAN_LIZARD_JEWELRY_LIZARD_JEWELRY_5_cls-5" x1="305.96" y1="214.44" x2="305.38" y2="225.05" />
  <line class="GUNDAN_LIZARD_JEWELRY_LIZARD_JEWELRY_5_cls-5" x1="304.51" y1="207.44" x2="301.58" y2="223.41" />
  <path class="GUNDAN_LIZARD_JEWELRY_LIZARD_JEWELRY_5_cls-6" d="M302.13,170.2a2.23,2.23,0,0,1,1.71,2.07" />
  <path class="GUNDAN_LIZARD_JEWELRY_LIZARD_JEWELRY_5_cls-7" d="M179.42,322.54a2,2,0,0,1,1.32.69,2.46,2.46,0,0,1,.65,1.49,1.91,1.91,0,0,1-.62,1.54,2.24,2.24,0,0,1-1.71.58,2.82,2.82,0,0,1-.92-.28,2.78,2.78,0,0,1-.71-.58,1.71,1.71,0,0,1-.3-1.65A3,3,0,0,1,178,323a1.63,1.63,0,0,1,.64-.37A1.82,1.82,0,0,1,179.42,322.54Z" />
  <path class="GUNDAN_LIZARD_JEWELRY_LIZARD_JEWELRY_5_cls-7" d="M137.19,281.28a2.12,2.12,0,0,1,2.92.87,2.2,2.2,0,0,1,.16,1.68,2.12,2.12,0,0,1-1.09,1.25,2.28,2.28,0,0,1-1.64.1,2.12,2.12,0,0,1-.35-3.9Z" />
  <path class="GUNDAN_LIZARD_JEWELRY_LIZARD_JEWELRY_5_cls-7" d="M176.26,321.55a1.84,1.84,0,0,1,.86,1.16,2.87,2.87,0,0,1,0,1.62,1.8,1.8,0,0,1-1.18,1.19,2.4,2.4,0,0,1-1.83-.23,1.66,1.66,0,0,1-.36-.26,1.46,1.46,0,0,1-.24-.27,2.49,2.49,0,0,1-.32-.68,2.39,2.39,0,0,1,.08-1.64,2,2,0,0,1,2.12-1.18l.47.12A2.2,2.2,0,0,1,176.26,321.55Z" />
  <path class="GUNDAN_LIZARD_JEWELRY_LIZARD_JEWELRY_5_cls-7" d="M139.18,285.08a2.13,2.13,0,0,1,2.87,1,2.15,2.15,0,1,1-2.87-1Z" />
  <path class="GUNDAN_LIZARD_JEWELRY_LIZARD_JEWELRY_5_cls-7" d="M172.11,319.64a2.26,2.26,0,0,1,1.17,1.15,2.06,2.06,0,0,1,0,1.65,2.19,2.19,0,0,1-1.16,1.16,2.09,2.09,0,0,1-1.65,0,2.35,2.35,0,0,1-1.25-1.25,1.91,1.91,0,0,1,.13-1.65,2.51,2.51,0,0,1,1.23-1.08A2,2,0,0,1,172.11,319.64Z" />
  <path class="GUNDAN_LIZARD_JEWELRY_LIZARD_JEWELRY_5_cls-7" d="M141,289a2.16,2.16,0,0,1,2.85,1,2.19,2.19,0,0,1-1,2.86A2.14,2.14,0,1,1,141,289Z" />
  <path class="GUNDAN_LIZARD_JEWELRY_LIZARD_JEWELRY_5_cls-7" d="M169,317.83a1.35,1.35,0,0,1,.46.61,2.71,2.71,0,0,1,.17.68,2.76,2.76,0,0,1-.3,1.61,1.87,1.87,0,0,1-2.31.82,2.68,2.68,0,0,1-.82-.47,2.21,2.21,0,0,1-.29-2.93A2.07,2.07,0,0,1,169,317.83Z" />
  <path class="GUNDAN_LIZARD_JEWELRY_LIZARD_JEWELRY_5_cls-7" d="M142.88,292.82a2.22,2.22,0,0,1,2.89.71,2.26,2.26,0,0,1-.58,2.9,2.15,2.15,0,1,1-2.31-3.61Z" />
  <path class="GUNDAN_LIZARD_JEWELRY_LIZARD_JEWELRY_5_cls-7" d="M165.65,315.19a2.26,2.26,0,0,1,.28,3,2.15,2.15,0,1,1-3.26-2.79A2.2,2.2,0,0,1,165.65,315.19Z" />
  <path class="GUNDAN_LIZARD_JEWELRY_LIZARD_JEWELRY_5_cls-7" d="M151.09,299.72a2.13,2.13,0,0,1-.11,3v0a2.15,2.15,0,0,1-3-3.11l0,0,0,0A2.14,2.14,0,0,1,151.09,299.72Z" />
  <path class="GUNDAN_LIZARD_JEWELRY_LIZARD_JEWELRY_5_cls-7" d="M145.19,296.43a2.22,2.22,0,0,1,3,.2,2.19,2.19,0,0,1-.11,3l0,0,0,0a2.12,2.12,0,0,1-3-.16A2.09,2.09,0,0,1,145.19,296.43Z" />
  <path class="GUNDAN_LIZARD_JEWELRY_LIZARD_JEWELRY_5_cls-7" d="M162.74,312.34a2.2,2.2,0,0,1-.07,3,2.15,2.15,0,1,1-3-3.12h0A2.15,2.15,0,0,1,162.74,312.34Z" />
  <path class="GUNDAN_LIZARD_JEWELRY_LIZARD_JEWELRY_5_cls-7" d="M151,302.76a2.15,2.15,0,1,1-.12,3,2.15,2.15,0,0,1,.12-3Z" />
  <path class="GUNDAN_LIZARD_JEWELRY_LIZARD_JEWELRY_5_cls-7" d="M155.44,305.35a2.17,2.17,0,0,1,1.49.69,2.15,2.15,0,1,1-3-.12A2.21,2.21,0,0,1,155.44,305.35Z" />
  <path class="GUNDAN_LIZARD_JEWELRY_LIZARD_JEWELRY_5_cls-7" d="M158.35,308.5a2.16,2.16,0,0,1,1.38,3.73h0a2.14,2.14,0,0,1-2.9-3.16A2.23,2.23,0,0,1,158.35,308.5Z" />
  <path class="GUNDAN_LIZARD_JEWELRY_LIZARD_JEWELRY_5_cls-8" d="M137.19,281.28a2.12,2.12,0,0,0,.35,3.9,2.28,2.28,0,0,0,1.64-.1,2.12,2.12,0,0,0,1.09-1.25,2.2,2.2,0,0,0-.16-1.68A2.12,2.12,0,0,0,137.19,281.28Z" />
  <path class="GUNDAN_LIZARD_JEWELRY_LIZARD_JEWELRY_5_cls-7" d="M136.06,276.65a2.13,2.13,0,0,1,2.92.88,2.12,2.12,0,0,1-.92,2.92,2.26,2.26,0,0,1-1.65.11,2.13,2.13,0,0,1-.35-3.91Z" />
  <path class="GUNDAN_LIZARD_JEWELRY_LIZARD_JEWELRY_5_cls-8" d="M136.06,276.65a2.13,2.13,0,0,0,.35,3.91,2.26,2.26,0,0,0,1.65-.11,2.12,2.12,0,0,0,.92-2.92A2.13,2.13,0,0,0,136.06,276.65Z" />
  <path class="GUNDAN_LIZARD_JEWELRY_LIZARD_JEWELRY_5_cls-8" d="M139.18,285.08a2.15,2.15,0,1,0,2.87,1A2.13,2.13,0,0,0,139.18,285.08Z" />
  <path class="GUNDAN_LIZARD_JEWELRY_LIZARD_JEWELRY_5_cls-8" d="M141,289a2.14,2.14,0,1,0,1.89,3.85,2.19,2.19,0,0,0,1-2.86A2.16,2.16,0,0,0,141,289Z" />
  <path class="GUNDAN_LIZARD_JEWELRY_LIZARD_JEWELRY_5_cls-8" d="M142.88,292.82a2.15,2.15,0,1,0,2.31,3.61,2.26,2.26,0,0,0,.58-2.9A2.22,2.22,0,0,0,142.88,292.82Z" />
  <path class="GUNDAN_LIZARD_JEWELRY_LIZARD_JEWELRY_5_cls-8" d="M148.07,299.62a2.19,2.19,0,0,0,.11-3,2.22,2.22,0,0,0-3-.2,2.09,2.09,0,0,0-.21,3.08,2.12,2.12,0,0,0,3,.16" />
  <path class="GUNDAN_LIZARD_JEWELRY_LIZARD_JEWELRY_5_cls-8" d="M151,302.76a2.14,2.14,0,1,0-2.91-3.14l0,0,0,0a2.15,2.15,0,0,0,3,3.11" />
  <path class="GUNDAN_LIZARD_JEWELRY_LIZARD_JEWELRY_5_cls-8" d="M151,302.78a2.15,2.15,0,1,0,3.05.11,2.14,2.14,0,0,0-3.05-.11Z" />
  <path class="GUNDAN_LIZARD_JEWELRY_LIZARD_JEWELRY_5_cls-8" d="M153.77,309a2.15,2.15,0,0,0,3.16-2.91,2.17,2.17,0,0,0-1.49-.69,2.21,2.21,0,0,0-1.54.57A2.14,2.14,0,0,0,153.77,309Z" />
  <path class="GUNDAN_LIZARD_JEWELRY_LIZARD_JEWELRY_5_cls-8" d="M159.73,312.23a2.16,2.16,0,0,0-1.38-3.73,2.23,2.23,0,0,0-1.54.58" />
  <path class="GUNDAN_LIZARD_JEWELRY_LIZARD_JEWELRY_5_cls-8" d="M156.81,309.08a2.14,2.14,0,0,0,2.9,3.16" />
  <path class="GUNDAN_LIZARD_JEWELRY_LIZARD_JEWELRY_5_cls-8" d="M159.71,312.24a2.15,2.15,0,1,0,3,3.12,2.2,2.2,0,0,0,.07-3,2.15,2.15,0,0,0-3-.11h0Z" />
  <path class="GUNDAN_LIZARD_JEWELRY_LIZARD_JEWELRY_5_cls-8" d="M162.67,315.36a2.15,2.15,0,1,0,3.26,2.79,2.26,2.26,0,0,0-.28-3A2.2,2.2,0,0,0,162.67,315.36Z" />
  <path class="GUNDAN_LIZARD_JEWELRY_LIZARD_JEWELRY_5_cls-8" d="M165.93,318.15a2.21,2.21,0,0,0,.29,2.93,2.68,2.68,0,0,0,.82.47,1.87,1.87,0,0,0,2.31-.82,2.76,2.76,0,0,0,.3-1.61,2.71,2.71,0,0,0-.17-.68,1.35,1.35,0,0,0-.46-.61A2.07,2.07,0,0,0,165.93,318.15Z" />
  <path class="GUNDAN_LIZARD_JEWELRY_LIZARD_JEWELRY_5_cls-8" d="M169.35,320.73a1.91,1.91,0,0,0-.13,1.65,2.35,2.35,0,0,0,1.25,1.25,2.09,2.09,0,0,0,1.65,0,2.19,2.19,0,0,0,1.16-1.16,2.06,2.06,0,0,0,0-1.65,2.26,2.26,0,0,0-1.17-1.15,2,2,0,0,0-1.53,0A2.51,2.51,0,0,0,169.35,320.73Z" />
  <path class="GUNDAN_LIZARD_JEWELRY_LIZARD_JEWELRY_5_cls-8" d="M173.28,322.44a2.39,2.39,0,0,0-.08,1.64,2.49,2.49,0,0,0,.32.68,1.46,1.46,0,0,0,.24.27,1.66,1.66,0,0,0,.36.26,2.4,2.4,0,0,0,1.83.23,1.8,1.8,0,0,0,1.18-1.19,2.87,2.87,0,0,0,0-1.62,1.84,1.84,0,0,0-.86-1.16,2.2,2.2,0,0,0-.39-.17l-.47-.12a2,2,0,0,0-2.12,1.18Z" />
  <path class="GUNDAN_LIZARD_JEWELRY_LIZARD_JEWELRY_5_cls-8" d="M177.43,326a2.78,2.78,0,0,0,.71.58,2.82,2.82,0,0,0,.92.28,2.24,2.24,0,0,0,1.71-.58,1.91,1.91,0,0,0,.62-1.54,2.46,2.46,0,0,0-.65-1.49,2,2,0,0,0-1.32-.69,1.82,1.82,0,0,0-.74.09,1.63,1.63,0,0,0-.64.37,3,3,0,0,0-.91,1.33A1.71,1.71,0,0,0,177.43,326Z" />
  <path class="GUNDAN_LIZARD_JEWELRY_LIZARD_JEWELRY_5_cls-7" d="M295.07,323.41a2.1,2.1,0,0,0-.68,1.33,2.45,2.45,0,0,0,.34,1.58,1.9,1.9,0,0,0,1.4.9,2.22,2.22,0,0,0,1.73-.52,2.48,2.48,0,0,0,.58-.76,2.41,2.41,0,0,0,.25-.88,1.71,1.71,0,0,0-.72-1.52,3.08,3.08,0,0,0-1.51-.56,1.66,1.66,0,0,0-.73.07A2,2,0,0,0,295.07,323.41Z" />
  <path class="GUNDAN_LIZARD_JEWELRY_LIZARD_JEWELRY_5_cls-7" d="M297.07,320.78a1.85,1.85,0,0,0,0,1.44,3,3,0,0,0,.93,1.32,1.79,1.79,0,0,0,1.66.29,2.35,2.35,0,0,0,1.35-1.26,1.87,1.87,0,0,0,.15-.41,1.61,1.61,0,0,0,0-.37,2.67,2.67,0,0,0-.13-.73,2.41,2.41,0,0,0-1-1.29,2,2,0,0,0-1.64-.2,2,2,0,0,0-.77.47c-.11.11-.23.26-.32.37A2.58,2.58,0,0,0,297.07,320.78Z" />
  <path class="GUNDAN_LIZARD_JEWELRY_LIZARD_JEWELRY_5_cls-7" d="M299.35,316.8a2.29,2.29,0,0,0-.29,1.62,2.06,2.06,0,0,0,1,1.35,2.16,2.16,0,0,0,1.61.27,2.08,2.08,0,0,0,1.36-.93,2.26,2.26,0,0,0,.29-1.74,1.91,1.91,0,0,0-1-1.28,2.51,2.51,0,0,0-1.63-.15A2,2,0,0,0,299.35,316.8Z" />
  <path class="GUNDAN_LIZARD_JEWELRY_LIZARD_JEWELRY_5_cls-7" d="M300.81,313.54a1.3,1.3,0,0,0,0,.76,2.34,2.34,0,0,0,.25.66,2.69,2.69,0,0,0,1.18,1.13,1.8,1.8,0,0,0,1.66,0,2,2,0,0,0,.7-.63,2.63,2.63,0,0,0,.39-.86,2.21,2.21,0,0,0-1.46-2.56A2.08,2.08,0,0,0,300.81,313.54Z" />
  <path class="GUNDAN_LIZARD_JEWELRY_LIZARD_JEWELRY_5_cls-7" d="M302,309.44a2.25,2.25,0,0,0,1.48,2.57,2.15,2.15,0,1,0,1-4.16A2.19,2.19,0,0,0,302,309.44Z" />
  <path class="GUNDAN_LIZARD_JEWELRY_LIZARD_JEWELRY_5_cls-7" d="M302.75,305.43a2.21,2.21,0,0,0,1.81,2.42,2.15,2.15,0,1,0,.6-4.26h0A2.16,2.16,0,0,0,302.75,305.43Z" />
  <path class="GUNDAN_LIZARD_JEWELRY_LIZARD_JEWELRY_5_cls-7" d="M306.78,290.81a2.15,2.15,0,1,0,1.86,2.4,2.15,2.15,0,0,0-1.86-2.4Z" />
  <path class="GUNDAN_LIZARD_JEWELRY_LIZARD_JEWELRY_5_cls-7" d="M304.64,295.5a2.16,2.16,0,1,0,1.59-.43A2.21,2.21,0,0,0,304.64,295.5Z" />
  <path class="GUNDAN_LIZARD_JEWELRY_LIZARD_JEWELRY_5_cls-7" d="M304.1,299.76a2.18,2.18,0,0,0-.81,1.43,2.15,2.15,0,0,0,1.85,2.4h0a2.14,2.14,0,1,0-1.06-3.83Z" />
  <path class="GUNDAN_LIZARD_JEWELRY_LIZARD_JEWELRY_5_cls-8" d="M306.8,290.81a2.15,2.15,0,1,1-2.43,1.86,2.15,2.15,0,0,1,2.43-1.86Z" />
  <path class="GUNDAN_LIZARD_JEWELRY_LIZARD_JEWELRY_5_cls-8" d="M308.1,297.47a2.15,2.15,0,1,1-3.46-2,2.21,2.21,0,0,1,1.59-.43A2.16,2.16,0,0,1,308.1,297.47Z" />
  <path class="GUNDAN_LIZARD_JEWELRY_LIZARD_JEWELRY_5_cls-8" d="M305.14,303.59a2.15,2.15,0,0,1-1.85-2.4,2.18,2.18,0,0,1,.81-1.43,2.15,2.15,0,0,1,1.59-.42" />
  <path class="GUNDAN_LIZARD_JEWELRY_LIZARD_JEWELRY_5_cls-8" d="M305.69,299.34a2.14,2.14,0,1,1-.53,4.25" />
  <path class="GUNDAN_LIZARD_JEWELRY_LIZARD_JEWELRY_5_cls-8" d="M305.16,303.59a2.15,2.15,0,1,1-.6,4.26,2.21,2.21,0,0,1-1.81-2.42,2.16,2.16,0,0,1,2.39-1.84h0Z" />
  <path class="GUNDAN_LIZARD_JEWELRY_LIZARD_JEWELRY_5_cls-8" d="M304.56,307.85a2.15,2.15,0,1,1-1,4.16,2.25,2.25,0,0,1-1.48-2.57A2.19,2.19,0,0,1,304.56,307.85Z" />
  <path class="GUNDAN_LIZARD_JEWELRY_LIZARD_JEWELRY_5_cls-8" d="M303.52,312a2.21,2.21,0,0,1,1.46,2.56,2.63,2.63,0,0,1-.39.86,2,2,0,0,1-.7.63,1.8,1.8,0,0,1-1.66,0,2.69,2.69,0,0,1-1.18-1.13,2.34,2.34,0,0,1-.25-.66,1.3,1.3,0,0,1,0-.76A2.08,2.08,0,0,1,303.52,312Z" />
  <path class="GUNDAN_LIZARD_JEWELRY_LIZARD_JEWELRY_5_cls-8" d="M302.23,316.09a1.91,1.91,0,0,1,1,1.28,2.26,2.26,0,0,1-.29,1.74,2.08,2.08,0,0,1-1.36.93,2.16,2.16,0,0,1-1.61-.27,2.06,2.06,0,0,1-1-1.35,2.29,2.29,0,0,1,.29-1.62,2,2,0,0,1,1.25-.86A2.51,2.51,0,0,1,302.23,316.09Z" />
  <path class="GUNDAN_LIZARD_JEWELRY_LIZARD_JEWELRY_5_cls-8" d="M300,319.77a2.41,2.41,0,0,1,1,1.29,2.67,2.67,0,0,1,.13.73,1.61,1.61,0,0,1,0,.37,1.87,1.87,0,0,1-.15.41,2.35,2.35,0,0,1-1.35,1.26,1.79,1.79,0,0,1-1.66-.29,3,3,0,0,1-.93-1.32,1.85,1.85,0,0,1,0-1.44,2.58,2.58,0,0,1,.22-.37c.09-.11.21-.26.32-.37a2,2,0,0,1,.77-.47A2,2,0,0,1,300,319.77Z" />
  <path class="GUNDAN_LIZARD_JEWELRY_LIZARD_JEWELRY_5_cls-8" d="M298.69,325.06a2.41,2.41,0,0,1-.25.88,2.48,2.48,0,0,1-.58.76,2.22,2.22,0,0,1-1.73.52,1.9,1.9,0,0,1-1.4-.9,2.45,2.45,0,0,1-.34-1.58,2.1,2.1,0,0,1,.68-1.33,2,2,0,0,1,.66-.36,1.66,1.66,0,0,1,.73-.07,3.08,3.08,0,0,1,1.51.56A1.71,1.71,0,0,1,298.69,325.06Z" />
  <path class="GUNDAN_LIZARD_JEWELRY_LIZARD_JEWELRY_5_cls-9" d="M240.88,337.65a5.56,5.56,0,0,1-4-1.53c-.48,0-1,0-1.46,0-.79,0-1.5,0-1.91,0a4.16,4.16,0,0,1-3,.94,13.33,13.33,0,0,1-2.29-.22,6.37,6.37,0,0,1-4.06-2.24h-.65c-.9,0-1.77,0-2.26.06a4.23,4.23,0,0,1-3.07,1,13.83,13.83,0,0,1-2.24-.21,6,6,0,0,1-4.28-2.53c-1.26-.38-2.75-.7-3.47-.84a3.42,3.42,0,0,1-1.59.35,10.53,10.53,0,0,1-3.95-1c-2.57-1.07-4.09-3.12-3.7-5a2.76,2.76,0,0,1,1.31-1.86,4.07,4.07,0,0,1,2.19-.55,7.94,7.94,0,0,1,2,.29,10.67,10.67,0,0,1,4.34,2.68,24.41,24.41,0,0,1,4.47,1.24,5.86,5.86,0,0,1,2.14-.38h.26a10.34,10.34,0,0,1,4.74,1.59,12.84,12.84,0,0,1,1.32-.07,34,34,0,0,1,3.46.24h.06l.22,0h.1a5.93,5.93,0,0,1,2.12-.36H228a10.36,10.36,0,0,1,4.79,1.66h1.33a26.16,26.16,0,0,1,3,.13,5.58,5.58,0,0,1,2.1-1,12.24,12.24,0,0,1,1.71-.13,8.68,8.68,0,0,1,3.13.56,19.25,19.25,0,0,1,4.12-1,5.08,5.08,0,0,1,2.74-1.22c.35,0,.61,0,.87,0a9.26,9.26,0,0,1,4,.82,19.51,19.51,0,0,1,4.13-.65,5.34,5.34,0,0,1,1.79-1.36,9.45,9.45,0,0,1,3.19-.61,8.58,8.58,0,0,1,1.49.14,5.1,5.1,0,0,1,1.68-.87l.34-.12.28-.63c.54-1.23.62-1.42,1.08-1.57l.11,0,.2,0a1,1,0,0,1,.7.31l1.11,1.18a1,1,0,0,1,.24.88,3.23,3.23,0,0,1,.11,2.24,3.42,3.42,0,0,1,.08,1.39,4.59,4.59,0,0,1-1.9,3,1,1,0,0,1-1.1,0,1,1,0,0,1-.24-.22,6.74,6.74,0,0,1-3.61,2.07,6.51,6.51,0,0,1-1.79.26,5,5,0,0,1-3-.92,31.39,31.39,0,0,0-3.09.62c-.72,1.11-2.34,1.68-4.93,1.72h0a6.31,6.31,0,0,1-3.85-1.17c-1,.25-2,.57-2.52.74-.61,1.2-2.17,1.89-4.73,2.12Zm.19-4.43a2.62,2.62,0,0,1,.24,1.09,8,8,0,0,0,1-.13,3,3,0,0,1-.34-.93v0l-.46,0Zm-12.23.46a10,10,0,0,0,1.17.14,2.94,2.94,0,0,1-.07-.86,6.76,6.76,0,0,0-.94-.24,2.4,2.4,0,0,1,0,.46A1.78,1.78,0,0,1,228.84,333.68Zm24-2.11a3,3,0,0,1,.13.52,1.63,1.63,0,0,1,0,.54c.27,0,.54,0,.78-.06a3.33,3.33,0,0,1-.26-.92v0C253.28,331.6,253.05,331.58,252.83,331.57Zm-36.26.66a9.83,9.83,0,0,0,1.14.14,2.94,2.94,0,0,1-.07-.86,7.27,7.27,0,0,0-1-.24A2.39,2.39,0,0,1,216.57,332.23Zm47.53-2.38a3,3,0,0,1,.49,1.12,6.62,6.62,0,0,0,.89-.3,3.59,3.59,0,0,1-.54-.91l0-.07A6.8,6.8,0,0,0,264.1,329.85Zm-61.35-2.53a.81.81,0,0,0-.29,0,.68.68,0,0,0,.23.32,7.22,7.22,0,0,0,2.63,1.32,3.35,3.35,0,0,1,.15-.74A6.56,6.56,0,0,0,202.75,327.32Z" />
  <path class="GUNDAN_LIZARD_JEWELRY_LIZARD_JEWELRY_5_cls-9" d="M202.89,330.73a10.1,10.1,0,0,0,3.67.95,2.48,2.48,0,0,0,1.46-.4,41.79,41.79,0,0,1,4.09,1,5.23,5.23,0,0,0,3.91,2.43,13.18,13.18,0,0,0,2.12.19,3.19,3.19,0,0,0,2.72-.95c.42,0,2.17-.11,3.65-.06a5.44,5.44,0,0,0,3.79,2.25,12.94,12.94,0,0,0,2.17.2,3.19,3.19,0,0,0,2.67-.92,37.09,37.09,0,0,1,4.05,0,4.78,4.78,0,0,0,3.69,1.5l.57,0c2.47-.22,3.89-.89,4.26-2,.39-.14,1.89-.63,3.23-.94a5.54,5.54,0,0,0,3.61,1.22h.07c2.5,0,4-.59,4.45-1.62a33.79,33.79,0,0,1,3.79-.75,4.26,4.26,0,0,0,2.77,1,5.58,5.58,0,0,0,1.59-.24c2.29-.67,3.5-1.61,3.62-2.79.21-.13.74-.45,1.38-.8h0a.27.27,0,0,0,.08-.07.24.24,0,0,0,0-.3,3.51,3.51,0,0,0,.78-.88,2.53,2.53,0,0,1,0,.49,3.46,3.46,0,0,1-1.36,2.19h0l-.08.08a.25.25,0,0,0,.07.35.33.33,0,0,0,.14,0,.24.24,0,0,0,.14-.05h0a3.86,3.86,0,0,0,1.58-2.52,2.65,2.65,0,0,0-.12-1.29,2.47,2.47,0,0,0-.18-2.24l.05,0a.25.25,0,0,0,0-.35l-1.1-1.18a.26.26,0,0,0-.26-.07c-.14.05-.16.08-.64,1.16-.15.34-.35.79-.43,1l-.62.22a4.64,4.64,0,0,0-1.75.95,7.8,7.8,0,0,0-4.53.35,4.24,4.24,0,0,0-1.72,1.41h0a19.22,19.22,0,0,0-4.56.73A8.81,8.81,0,0,0,251,329a4.27,4.27,0,0,0-2.51,1.19,18.07,18.07,0,0,0-4.45,1.08,8.48,8.48,0,0,0-4.69-.51,4.61,4.61,0,0,0-2,1,33.78,33.78,0,0,0-4.79-.14,9.48,9.48,0,0,0-4.6-1.66,5.26,5.26,0,0,0-2.31.38l-.29,0h-.25a21.47,21.47,0,0,0-4.88-.13,9.43,9.43,0,0,0-4.59-1.63,5.09,5.09,0,0,0-2.35.43,24.27,24.27,0,0,0-4.85-1.33,9.74,9.74,0,0,0-4.19-2.67,4.65,4.65,0,0,0-3.63.18,2.09,2.09,0,0,0-1,1.39C199.3,328.08,200.65,329.8,202.89,330.73Zm39.82,2.37a2.35,2.35,0,0,0,.91,1.46,7.44,7.44,0,0,1-3.22.46.87.87,0,0,0,.17-.43,2.16,2.16,0,0,0-.76-1.89,6.45,6.45,0,0,1,2.91-.1A1.2,1.2,0,0,0,242.71,333.1Zm12.28-.05a8,8,0,0,1-3.27.23,1,1,0,0,0,.52-1.08,2.29,2.29,0,0,0-.68-1.29,6.66,6.66,0,0,1,2.69.15,1.38,1.38,0,0,0-.05.5A2.26,2.26,0,0,0,255,333.05Zm10.62-3.57a2.48,2.48,0,0,0,1.17,1.31,6.9,6.9,0,0,1-2.94,1.06,1,1,0,0,0,.08-.47,2.41,2.41,0,0,0-1.14-1.79,5.76,5.76,0,0,1,2.74-.64A1.44,1.44,0,0,0,265.61,329.48Zm-34.46,5a8.5,8.5,0,0,1-3.78-.55,1,1,0,0,0,.89-.9,2,2,0,0,0-.23-1.2,7.49,7.49,0,0,1,2.79.65,1,1,0,0,0-.15.44A2.06,2.06,0,0,0,231.15,334.53Zm-25-6.13a1.84,1.84,0,0,0,0,1.55,8.82,8.82,0,0,1-4.06-1.74,1.12,1.12,0,0,1-.44-.95.67.67,0,0,1,.5-.59c1.06-.34,3.29.64,4.21,1.37A.9.9,0,0,0,206.2,328.4Zm12.66,4.67a8.67,8.67,0,0,1-3.37-.37,1.18,1.18,0,0,0,.26-.32,1.9,1.9,0,0,0-.22-1.93,7.45,7.45,0,0,1,3,.62,1.41,1.41,0,0,0-.15.45A2.09,2.09,0,0,0,218.86,333.07Zm51.22-8.29.26.28a.79.79,0,0,0-.46.17Z" />
  <path class="GUNDAN_LIZARD_JEWELRY_LIZARD_JEWELRY_5_cls-9" d="M245.1,363.75a7.14,7.14,0,0,1-4.92-1.72c-.75,0-1.64,0-2.65,0s-1.8,0-2.27,0a4.85,4.85,0,0,1-3.38,1,16.56,16.56,0,0,1-3.77-.52,8.23,8.23,0,0,1-5.16-3.41c-1.57-.25-3.32-.47-4.25-.58a3.89,3.89,0,0,1-2.35.66,14.2,14.2,0,0,1-4.76-1.1,8,8,0,0,1-4.84-4.49c-1.62-1-3.61-2.08-4.48-2.55a2.86,2.86,0,0,1-.58.06c-2.05,0-4.43-1.79-6.07-3.29-2.66-2.44-3.61-5.53-2.32-7.5a3.2,3.2,0,0,1,2.14-1.42,4.17,4.17,0,0,1,.71-.06,7.59,7.59,0,0,1,4.32,1.71,16.06,16.06,0,0,1,4.19,5,41.9,41.9,0,0,1,4.79,2.88l.5.33a6.29,6.29,0,0,1,.77,0,9.56,9.56,0,0,1,2.32.32,15.46,15.46,0,0,1,5.6,3.22,34,34,0,0,1,5.34.94l1.35.31a7.14,7.14,0,0,1,1.86-.22,11.07,11.07,0,0,1,1.26.08,15.24,15.24,0,0,1,6,2.46c3.3.05,4.81.13,5.85.21a7.46,7.46,0,0,1,2.68-1.31,16.51,16.51,0,0,1,3-.29,12.39,12.39,0,0,1,3.27.43,28.31,28.31,0,0,1,5-1.81l.32-.1a6.68,6.68,0,0,1,3.17-2.05,15.94,15.94,0,0,1,3.78-.49,12.18,12.18,0,0,1,2.42.24,28.52,28.52,0,0,1,4.74-2.07l.35-.13a6.64,6.64,0,0,1,1.72-2.3,12.13,12.13,0,0,1,5.4-2.42,6.9,6.9,0,0,1,1.62-1.77c.15-.13.3-.25.46-.4s.05-.7.07-1l0-.57c0-.33.05-1.91.05-1.91l.74,0a5.12,5.12,0,0,1,3,1.33,3.84,3.84,0,0,1,1.45,2.27,5.62,5.62,0,0,1-.88,4.35l-.06.09c-.48.56-.89,1.06-1.15,1.38.14,1.27-.5,3.15-3.77,5.39a7.89,7.89,0,0,1-4.37,1.43,5.33,5.33,0,0,1-1.83-.31c-1.6.69-3.42,1.63-4.13,2-.57,1.61-2.6,2.82-5.91,3.52a9.73,9.73,0,0,1-1.93.2,7.51,7.51,0,0,1-3.41-.77c-1.41.54-2.91,1.2-3.58,1.5-.62,1.59-2.69,2.69-6,3.19A9.29,9.29,0,0,1,245.1,363.75Zm.1-5.55a3.12,3.12,0,0,1,.51,1.73,10.84,10.84,0,0,0,2-.4,3.71,3.71,0,0,1-.66-1.27c0-.06,0-.12-.05-.19h-.25A10.55,10.55,0,0,0,245.2,358.2Zm-16.35.67a13.81,13.81,0,0,0,2.25.42A3.23,3.23,0,0,1,231,358s0-.07,0-.1a11.29,11.29,0,0,0-1.8-.56,3.05,3.05,0,0,1-.06.8A2,2,0,0,1,228.85,358.87Zm31.53-4.72a3,3,0,0,1,.43.84,1.92,1.92,0,0,1,.11.81,12.42,12.42,0,0,0,1.64-.46,3.58,3.58,0,0,1-.68-1.21c0-.05,0-.1-.05-.15A11.16,11.16,0,0,0,260.38,354.15Zm-47.55.43a11.47,11.47,0,0,0,2.09.71A3.47,3.47,0,0,1,215,354l0-.1a11.34,11.34,0,0,0-1.81-.85A2.9,2.9,0,0,1,212.83,354.58Zm61.31-6.17a3.43,3.43,0,0,1,1.26,1.4,9.66,9.66,0,0,0,1.5-1.14,4.16,4.16,0,0,1-1.19-.92l-.13-.17A7.45,7.45,0,0,0,274.14,348.41Zm-77.25-5.56c-.09,0-.09,0-.14.09s0,.21.14.57a10.56,10.56,0,0,0,3.1,3.17,3.09,3.09,0,0,1,.6-1.07c-1.05-1.31-2.84-2.75-3.7-2.76v0Z" />
  <path class="GUNDAN_LIZARD_JEWELRY_LIZARD_JEWELRY_5_cls-9" d="M282.84,341.85a3.06,3.06,0,0,0-1.21-1.87,4.28,4.28,0,0,0-2.57-1.16c0,.46,0,.84,0,1.2,0,.16,0,.35,0,.57,0,.49-.08,1.14-.11,1.35l-.69.6a6.54,6.54,0,0,0-1.65,1.88,11.29,11.29,0,0,0-5.34,2.28,6.07,6.07,0,0,0-1.66,2.34l-.65.24a26.51,26.51,0,0,0-4.86,2.16,12.83,12.83,0,0,0-6.1.17,5.74,5.74,0,0,0-3,2l-.55.16a26.3,26.3,0,0,0-5.07,1.89,12.89,12.89,0,0,0-6.14-.21,6.34,6.34,0,0,0-2.64,1.36c-1-.09-2.47-.18-6.32-.24a14.47,14.47,0,0,0-5.89-2.46,7.56,7.56,0,0,0-3,.17l-.39-.1-.23,0,0,0-.85-.19a31.46,31.46,0,0,0-5.48-.94,14.64,14.64,0,0,0-5.49-3.23,7.42,7.42,0,0,0-3.07-.22l-.73-.48a36.61,36.61,0,0,0-4.92-2.93,15.21,15.21,0,0,0-4.08-5c-1.7-1.22-3.25-1.74-4.48-1.51a2.51,2.51,0,0,0-1.67,1.1c-1.07,1.64-.14,4.4,2.21,6.56,1.35,1.23,3.69,3.11,5.58,3.11a2.25,2.25,0,0,0,.68-.11c.53.28,3.08,1.66,5,2.85.44,1.71,2.18,3.38,4.49,4.28a13.44,13.44,0,0,0,4.49,1,3,3,0,0,0,2.13-.68c.56.06,2.94.34,4.93.67a7.35,7.35,0,0,0,4.87,3.37,16.06,16.06,0,0,0,3.6.49,3.93,3.93,0,0,0,3.06-1c.58,0,3.39-.08,5.55,0A6.37,6.37,0,0,0,245.1,363a8,8,0,0,0,1.28-.1c3.26-.48,5.21-1.55,5.56-3,.5-.22,2.47-1.11,4.23-1.77a6.56,6.56,0,0,0,3.35.85,9,9,0,0,0,1.78-.19c3.22-.68,5.13-1.85,5.45-3.31.49-.25,2.83-1.48,4.73-2.27a4.65,4.65,0,0,0,1.84.36,7.12,7.12,0,0,0,4-1.3c2.57-1.76,3.76-3.52,3.41-5,.19-.24.72-.88,1.37-1.64h0l0,0A5,5,0,0,0,282.84,341.85Zm-8,8.44a2.91,2.91,0,0,0-2-1.69,8.07,8.07,0,0,1,3.17-1.92,1.49,1.49,0,0,0,.31.58,3,3,0,0,0,1.94,1,9,9,0,0,1-3.3,2.59A1.42,1.42,0,0,0,274.82,350.29Zm-14.69,4.93a3,3,0,0,0-1.16-1.44,9.61,9.61,0,0,1,3.54-.51,1.45,1.45,0,0,0,.05.62,2.76,2.76,0,0,0,1.4,1.62,11,11,0,0,1-4.27,1.18A1.31,1.31,0,0,0,260.13,355.22Zm-16.29,2.57a9.37,9.37,0,0,1,3.91-.38,1.4,1.4,0,0,0,0,.64,2.83,2.83,0,0,0,1.35,1.72,10.13,10.13,0,0,1-4.36.91,1.25,1.25,0,0,0,.2-.55A2.7,2.7,0,0,0,243.84,357.79Zm-15.37.18a2.46,2.46,0,0,0-.19-1.54,11.52,11.52,0,0,1,3.69,1.09,1.29,1.29,0,0,0-.22.56,2.52,2.52,0,0,0,.55,2,12,12,0,0,1-5.14-1.09A1.32,1.32,0,0,0,228.47,358ZM212,354.46a2.36,2.36,0,0,0,.2-2.46,11,11,0,0,1,3.75,1.65,1.4,1.4,0,0,0-.29.52,2.58,2.58,0,0,0,.32,2.05,12.12,12.12,0,0,1-4.4-1.44A1.56,1.56,0,0,0,212,354.46Zm-10.89-8.39a2.2,2.2,0,0,0-.52,1.86,12.08,12.08,0,0,1-4.39-4.1,1.33,1.33,0,0,1-.13-1.24.82.82,0,0,1,.78-.47h0c1.4,0,3.8,2.27,4.7,3.63A1.2,1.2,0,0,0,201.15,346.07Z" />
  <path class="GUNDAN_LIZARD_JEWELRY_LIZARD_JEWELRY_5_cls-9" d="M268.59,328.25l1-2.43a3.42,3.42,0,0,1,1.84,2.41" />
  <path class="GUNDAN_LIZARD_JEWELRY_LIZARD_JEWELRY_5_cls-10" d="M220.75,333.71s2.15-.14,3.9-.06v0a2.09,2.09,0,0,1-.27-.89,1.92,1.92,0,0,1,.07-.8,10.81,10.81,0,0,0-2.68-.11c-.35.05-.65.1-.89.16A2.32,2.32,0,0,1,220.75,333.71Z" />
  <path class="GUNDAN_LIZARD_JEWELRY_LIZARD_JEWELRY_5_cls-10" d="M231.64,334.66a7.42,7.42,0,0,1-5-.83v0a1.27,1.27,0,0,1-.58-.87,1.08,1.08,0,0,1,.11-.69l-.06,0s-.73-.15-1.65-.28a1.92,1.92,0,0,0-.07.8,2.09,2.09,0,0,0,.27.89v0a5.1,5.1,0,0,0,3.69,2.24c2.21.38,4.07.3,4.69-.72a2.33,2.33,0,0,0,.14-1.73,3.87,3.87,0,0,0-1,.27,1,1,0,0,1-.22.66A.79.79,0,0,1,231.64,334.66Z" />
  <path class="GUNDAN_LIZARD_JEWELRY_LIZARD_JEWELRY_5_cls-10" d="M265.78,328.73a1,1,0,0,0,.06.65,2.09,2.09,0,0,0,1.39,1.32,1.11,1.11,0,0,0,.15-.43,1.28,1.28,0,0,0-.16-.75h0a3.4,3.4,0,0,1,.65-.67,3.12,3.12,0,0,1,.73,1.75s.65-.4,1.5-.86h0c1.16-.77,2.13-2.82,1-4.19h0c-1.12-1.42-2,.77-2.1.81a7.15,7.15,0,0,0-2.44,1.32A2.1,2.1,0,0,0,265.78,328.73Z" />
  <path class="GUNDAN_LIZARD_JEWELRY_LIZARD_JEWELRY_5_cls-11" d="M265.79,328.73a2,2,0,0,1,.79-1.06,7.5,7.5,0,0,0-4.5.31,3.93,3.93,0,0,0-1.69,1.42l.22,0a3.83,3.83,0,0,1,1.68.22A5.52,5.52,0,0,1,265.79,328.73Z" />
  <path class="GUNDAN_LIZARD_JEWELRY_LIZARD_JEWELRY_5_cls-10" d="M268.61,330.6a3.15,3.15,0,0,0-.73-1.75,3.4,3.4,0,0,0-.65.67h0a1.32,1.32,0,0,1,.15.75,1,1,0,0,1-.15.43,6,6,0,0,1-3.91,1.41,1.74,1.74,0,0,1-1.47-.7,1.5,1.5,0,0,1-.22-.53c-.16,0-.82,0-1.59,0a2.72,2.72,0,0,0,.36,1,3,3,0,0,0,.53.66,4.44,4.44,0,0,0,4.22.73C267.13,332.74,268.59,331.86,268.61,330.6Z" />
  <path class="GUNDAN_LIZARD_JEWELRY_LIZARD_JEWELRY_5_cls-10" d="M260.93,332.58a3,3,0,0,1-.53-.66,2.72,2.72,0,0,1-.36-1h0a9.62,9.62,0,0,0-2.54.35c-.33.12-.6.22-.82.32a2.6,2.6,0,0,1,.24,1.79h0A34.67,34.67,0,0,1,260.93,332.58Z" />
  <path class="GUNDAN_LIZARD_JEWELRY_LIZARD_JEWELRY_5_cls-7" d="M261.85,331.41a1.74,1.74,0,0,0,1.47.7.73.73,0,0,0,.35-.72,2.19,2.19,0,0,0-1.38-1.79,3.83,3.83,0,0,0-1.68-.22l-.22,0h0a18.61,18.61,0,0,0-4.7.76,2.22,2.22,0,0,0-1.11.75,1,1,0,0,0-.12.61,2,2,0,0,0,1,1.57,1,1,0,0,0,.26-.35,1.13,1.13,0,0,0,.07-.72h0a3.08,3.08,0,0,1,.84-.45c.22-.1.49-.2.82-.32a9.62,9.62,0,0,1,2.54-.35h0c.77,0,1.43,0,1.59,0A1.5,1.5,0,0,0,261.85,331.41Z" />
  <path class="GUNDAN_LIZARD_JEWELRY_LIZARD_JEWELRY_5_cls-11" d="M243,332.43a1.94,1.94,0,0,1,1-.85h0a8.27,8.27,0,0,0-4.63-.53,4.41,4.41,0,0,0-2,1l.23,0a4.11,4.11,0,0,1,1.66.52A6.26,6.26,0,0,1,243,332.43Z" />
  <path class="GUNDAN_LIZARD_JEWELRY_LIZARD_JEWELRY_5_cls-11" d="M251,330.77a6.55,6.55,0,0,1,3.57.14,2.22,2.22,0,0,1,1.11-.75,8.52,8.52,0,0,0-4.62-.87,3.87,3.87,0,0,0-2.44,1.17l.2,0A3.16,3.16,0,0,1,251,330.77Z" />
  <path class="GUNDAN_LIZARD_JEWELRY_LIZARD_JEWELRY_5_cls-10" d="M249,333.71a5.19,5.19,0,0,0,3.61,1.24c2.17,0,3.91-.45,4.3-1.59a2.6,2.6,0,0,0-.24-1.79,3.08,3.08,0,0,0-.84.45h0a1.13,1.13,0,0,1-.07.72,1,1,0,0,1-.26.35,7.06,7.06,0,0,1-4.53.26h0a1.69,1.69,0,0,1-1.12-1,1,1,0,0,1-.07-.49c-.33,0-1,.07-1.64.15v0a2.88,2.88,0,0,0,.09.4A2.72,2.72,0,0,0,249,333.71Z" />
  <path class="GUNDAN_LIZARD_JEWELRY_LIZARD_JEWELRY_5_cls-7" d="M250.94,333.35h0c.7-.19,1.13-.51,1-1.11a2.2,2.2,0,0,0-1-1.47,3.16,3.16,0,0,0-2.18-.34l-.2,0h0a18.42,18.42,0,0,0-4.56,1.11h0a1.94,1.94,0,0,0-1,.85h0a.94.94,0,0,0-.08.62,2,2,0,0,0,1.15,1.51,1.05,1.05,0,0,0,.24-.38,1.19,1.19,0,0,0,0-.73,3.65,3.65,0,0,1,.8-.53l.78-.38a8.5,8.5,0,0,1,2.19-.51c.68-.08,1.31-.13,1.64-.15a1,1,0,0,0,.07.49A1.69,1.69,0,0,0,250.94,333.35Z" />
  <path class="GUNDAN_LIZARD_JEWELRY_LIZARD_JEWELRY_5_cls-10" d="M248.11,332a8.5,8.5,0,0,0-2.19.51l-.78.38a2.79,2.79,0,0,1,.38,1.8s1.86-.65,3.48-1a2.72,2.72,0,0,1-.8-1.26,2.88,2.88,0,0,1-.09-.4Z" />
  <path class="GUNDAN_LIZARD_JEWELRY_LIZARD_JEWELRY_5_cls-10" d="M244.1,334.56a6.7,6.7,0,0,1-4.28.62,1.72,1.72,0,0,1-1.34-.94,1.39,1.39,0,0,1-.12-.53c-.15,0-.82-.18-1.62-.29a2.55,2.55,0,0,0,.15,1,2.79,2.79,0,0,0,.41.71,4.72,4.72,0,0,0,4.13,1.48c2.14-.19,3.81-.74,4.09-1.93a2.79,2.79,0,0,0-.38-1.8,3.65,3.65,0,0,0-.8.53,1.19,1.19,0,0,1,0,.73A1.05,1.05,0,0,1,244.1,334.56Z" />
  <path class="GUNDAN_LIZARD_JEWELRY_LIZARD_JEWELRY_5_cls-10" d="M234.07,333.28l-.89.15h0a2.33,2.33,0,0,1-.14,1.73h0a36.22,36.22,0,0,1,4.26,0h0a2.79,2.79,0,0,1-.41-.71,2.55,2.55,0,0,1-.15-1A11.34,11.34,0,0,0,234.07,333.28Z" />
  <path class="GUNDAN_LIZARD_JEWELRY_LIZARD_JEWELRY_5_cls-7" d="M233.18,333.43l.89-.15a11.34,11.34,0,0,1,2.67.14c.8.11,1.47.25,1.62.29a1.39,1.39,0,0,0,.12.53,1.72,1.72,0,0,0,1.34.94.72.72,0,0,0,.5-.62,2,2,0,0,0-1-1.95,4.11,4.11,0,0,0-1.66-.52l-.23,0a31.22,31.22,0,0,0-4.93-.15l-1.12.38-.17.14a.86.86,0,0,0-.26.55,1.83,1.83,0,0,0,.72,1.67.79.79,0,0,0,.35-.29,1,1,0,0,0,.22-.66,3.87,3.87,0,0,1,1-.27Z" />
  <path class="GUNDAN_LIZARD_JEWELRY_LIZARD_JEWELRY_5_cls-11" d="M227.58,331.63a7.38,7.38,0,0,1,3.6.81l.17-.14,1.12-.38a9.15,9.15,0,0,0-4.53-1.66,5.17,5.17,0,0,0-2.28.38,3.22,3.22,0,0,1,1.76.81Z" />
  <path class="GUNDAN_LIZARD_JEWELRY_LIZARD_JEWELRY_5_cls-7" d="M226.65,333.8c.77,0,1.29-.18,1.37-.75a1.92,1.92,0,0,0-.44-1.42l-.16-.18a3.22,3.22,0,0,0-1.76-.81l-.35,0a.74.74,0,0,0-.21,0h0a20.94,20.94,0,0,0-4.94-.13h0a2.41,2.41,0,0,0-1.28.52.91.91,0,0,0-.26.56,1.87,1.87,0,0,0,.75,1.67.92.92,0,0,0,.34-.3,1,1,0,0,0,.21-.66h0a3.64,3.64,0,0,1,1-.27c.24-.06.54-.11.89-.16a10.81,10.81,0,0,1,2.68.11c.92.13,1.65.28,1.65.28l.06,0a1.08,1.08,0,0,0-.11.69,1.27,1.27,0,0,0,.58.87l0,0Z" />
  <path class="GUNDAN_LIZARD_JEWELRY_LIZARD_JEWELRY_5_cls-11" d="M215.61,328.82a4.89,4.89,0,0,0-2.33.44l.21.08a4.22,4.22,0,0,1,1.54.89,7.28,7.28,0,0,1,3.84.75,2.41,2.41,0,0,1,1.28-.52A9,9,0,0,0,215.61,328.82Z" />
  <path class="GUNDAN_LIZARD_JEWELRY_LIZARD_JEWELRY_5_cls-10" d="M212.28,332.08a4.92,4.92,0,0,0,3.78,2.38c2.21.36,4.07.26,4.69-.75h0a2.32,2.32,0,0,0,.12-1.73,3.64,3.64,0,0,0-1,.27h0a1,1,0,0,1-.21.66.92.92,0,0,1-.34.3,7.69,7.69,0,0,1-4.52-.5,1.7,1.7,0,0,1-1.1-1.19,1.25,1.25,0,0,1,0-.52c-.15-.07-.79-.37-1.57-.67a2.14,2.14,0,0,0-.13,1,2.45,2.45,0,0,0,.21.76Z" />
  <path class="GUNDAN_LIZARD_JEWELRY_LIZARD_JEWELRY_5_cls-10" d="M208,331a44.2,44.2,0,0,1,4.32,1.05,2.45,2.45,0,0,1-.21-.76,2.14,2.14,0,0,1,.13-1,13.29,13.29,0,0,0-2.66-.79l-.95-.09A2.18,2.18,0,0,1,208,331Z" />
  <path class="GUNDAN_LIZARD_JEWELRY_LIZARD_JEWELRY_5_cls-7" d="M214.84,332.71a.79.79,0,0,0,.69-.44,1.76,1.76,0,0,0-.5-2,4.22,4.22,0,0,0-1.54-.89l-.21-.08h0a23.61,23.61,0,0,0-5-1.36,2.7,2.7,0,0,0-1.45.16.77.77,0,0,0-.42.43,1.63,1.63,0,0,0,.27,1.72,1.3,1.3,0,0,0,.43-.19.91.91,0,0,0,.4-.55h0a4.72,4.72,0,0,1,1.05,0l.95.09a13.29,13.29,0,0,1,2.66.79c.78.3,1.42.6,1.57.67a1.25,1.25,0,0,0,0,.52A1.7,1.7,0,0,0,214.84,332.71Z" />
  <path class="GUNDAN_LIZARD_JEWELRY_LIZARD_JEWELRY_5_cls-11" d="M208.59,329.45a4.72,4.72,0,0,0-1.05,0h0a.91.91,0,0,1-.4.55,1.3,1.3,0,0,1-.43.19c-.86.15-5.47-1.25-5.21-3,.3-2,4.36-.19,5.36.83a2.7,2.7,0,0,1,1.45-.16,9.43,9.43,0,0,0-4.13-2.66c-2.42-.66-4,0-4.31,1.38s1,3,3.13,3.89,4,1.28,5,.51h0A2.18,2.18,0,0,0,208.59,329.45Z" />
  <path class="GUNDAN_LIZARD_JEWELRY_LIZARD_JEWELRY_5_cls-12" d="M267.23,329.52a3.4,3.4,0,0,1,.65-.67l.65-.54a7.72,7.72,0,0,1,1.82-.86" />
  <path class="GUNDAN_LIZARD_JEWELRY_LIZARD_JEWELRY_5_cls-12" d="M268.61,330.6s.65-.4,1.5-.86h0" />
  <path class="GUNDAN_LIZARD_JEWELRY_LIZARD_JEWELRY_5_cls-12" d="M271.13,325.54l-1.1-1.18c-.09,0-.9,2-1,2.07a6,6,0,0,0-2.46,1.23,2.1,2.1,0,0,0-.8,1.07,1,1,0,0,0,.06.65,2.09,2.09,0,0,0,1.39,1.32" />
  <path class="GUNDAN_LIZARD_JEWELRY_LIZARD_JEWELRY_5_cls-12" d="M267.23,329.52a1.32,1.32,0,0,1,.15.75,1,1,0,0,1-.15.43,6,6,0,0,1-3.91,1.41,1.74,1.74,0,0,1-1.47-.7,1.5,1.5,0,0,1-.22-.53" />
  <path class="GUNDAN_LIZARD_JEWELRY_LIZARD_JEWELRY_5_cls-12" d="M262.29,329.6a5.52,5.52,0,0,1,3.5-.87" />
  <path class="GUNDAN_LIZARD_JEWELRY_LIZARD_JEWELRY_5_cls-12" d="M260,330.9a2.72,2.72,0,0,0,.36,1,3,3,0,0,0,.53.66,4.44,4.44,0,0,0,4.22.73c2-.57,3.44-1.45,3.46-2.71a3.15,3.15,0,0,0-.73-1.75h0" />
  <path class="GUNDAN_LIZARD_JEWELRY_LIZARD_JEWELRY_5_cls-12" d="M260.39,329.4a3.93,3.93,0,0,1,1.69-1.42,7.5,7.5,0,0,1,4.5-.31" />
  <path class="GUNDAN_LIZARD_JEWELRY_LIZARD_JEWELRY_5_cls-12" d="M255.83,332a3.08,3.08,0,0,1,.84-.45c.22-.1.49-.2.82-.32a9.62,9.62,0,0,1,2.54-.35h0c.77,0,1.43,0,1.59,0h0" />
  <path class="GUNDAN_LIZARD_JEWELRY_LIZARD_JEWELRY_5_cls-12" d="M256.91,333.36a34.67,34.67,0,0,1,4-.78" />
  <path class="GUNDAN_LIZARD_JEWELRY_LIZARD_JEWELRY_5_cls-12" d="M263.32,332.11a.73.73,0,0,0,.35-.72,2.19,2.19,0,0,0-1.38-1.79,3.83,3.83,0,0,0-1.68-.22l-.22,0h0a18.61,18.61,0,0,0-4.7.76,2.22,2.22,0,0,0-1.11.75,1,1,0,0,0-.12.61,2,2,0,0,0,1,1.57" />
  <path class="GUNDAN_LIZARD_JEWELRY_LIZARD_JEWELRY_5_cls-12" d="M250.94,333.35a1.69,1.69,0,0,1-1.12-1,1,1,0,0,1-.07-.49" />
  <path class="GUNDAN_LIZARD_JEWELRY_LIZARD_JEWELRY_5_cls-12" d="M255.82,332a1.13,1.13,0,0,1-.07.72,1,1,0,0,1-.26.35,7.06,7.06,0,0,1-4.53.26" />
  <path class="GUNDAN_LIZARD_JEWELRY_LIZARD_JEWELRY_5_cls-12" d="M251,330.77a6.55,6.55,0,0,1,3.57.14h0" />
  <path class="GUNDAN_LIZARD_JEWELRY_LIZARD_JEWELRY_5_cls-12" d="M256.67,331.55v0a2.6,2.6,0,0,1,.24,1.79c-.39,1.14-2.13,1.56-4.3,1.59a5.19,5.19,0,0,1-3.61-1.24,2.72,2.72,0,0,1-.8-1.26,2.88,2.88,0,0,1-.09-.4" />
  <path class="GUNDAN_LIZARD_JEWELRY_LIZARD_JEWELRY_5_cls-12" d="M248.62,330.46a3.87,3.87,0,0,1,2.44-1.17,8.52,8.52,0,0,1,4.62.87h0" />
  <path class="GUNDAN_LIZARD_JEWELRY_LIZARD_JEWELRY_5_cls-12" d="M244.34,333.45a3.65,3.65,0,0,1,.8-.53l.78-.38a8.5,8.5,0,0,1,2.19-.51c.68-.08,1.31-.13,1.64-.15H250" />
  <path class="GUNDAN_LIZARD_JEWELRY_LIZARD_JEWELRY_5_cls-12" d="M245.52,334.72s1.86-.65,3.48-1" />
  <path class="GUNDAN_LIZARD_JEWELRY_LIZARD_JEWELRY_5_cls-12" d="M250.94,333.35h0c.7-.19,1.13-.51,1-1.11a2.2,2.2,0,0,0-1-1.47,3.16,3.16,0,0,0-2.18-.34l-.2,0h0a18.42,18.42,0,0,0-4.56,1.11h0a1.94,1.94,0,0,0-1,.85h0a.94.94,0,0,0-.08.62,2,2,0,0,0,1.15,1.51h0" />
  <path class="GUNDAN_LIZARD_JEWELRY_LIZARD_JEWELRY_5_cls-12" d="M244.34,333.45a1.19,1.19,0,0,1,0,.73,1.05,1.05,0,0,1-.24.38,6.7,6.7,0,0,1-4.28.62,1.72,1.72,0,0,1-1.34-.94,1.39,1.39,0,0,1-.12-.53" />
  <path class="GUNDAN_LIZARD_JEWELRY_LIZARD_JEWELRY_5_cls-12" d="M239.29,332.61a6.26,6.26,0,0,1,3.75-.18" />
  <path class="GUNDAN_LIZARD_JEWELRY_LIZARD_JEWELRY_5_cls-12" d="M236.74,333.42a2.55,2.55,0,0,0,.15,1,2.79,2.79,0,0,0,.41.71,4.72,4.72,0,0,0,4.13,1.48c2.14-.19,3.81-.74,4.09-1.93a2.79,2.79,0,0,0-.38-1.8h0" />
  <path class="GUNDAN_LIZARD_JEWELRY_LIZARD_JEWELRY_5_cls-12" d="M237.4,332.07a4.41,4.41,0,0,1,2-1,8.27,8.27,0,0,1,4.63.53" />
  <path class="GUNDAN_LIZARD_JEWELRY_LIZARD_JEWELRY_5_cls-12" d="M233.18,333.43l.89-.15a11.34,11.34,0,0,1,2.67.14c.8.11,1.47.25,1.62.29h0" />
  <path class="GUNDAN_LIZARD_JEWELRY_LIZARD_JEWELRY_5_cls-12" d="M232.21,333.71a3.87,3.87,0,0,1,1-.27" />
  <path class="GUNDAN_LIZARD_JEWELRY_LIZARD_JEWELRY_5_cls-12" d="M233,335.18a36.22,36.22,0,0,1,4.26,0" />
  <path class="GUNDAN_LIZARD_JEWELRY_LIZARD_JEWELRY_5_cls-12" d="M239.82,335.18a.72.72,0,0,0,.5-.62,2,2,0,0,0-1-1.95,4.11,4.11,0,0,0-1.66-.52l-.23,0a31.22,31.22,0,0,0-4.93-.15l-1.12.38-.17.14a.86.86,0,0,0-.26.55,1.83,1.83,0,0,0,.72,1.67" />
  <path class="GUNDAN_LIZARD_JEWELRY_LIZARD_JEWELRY_5_cls-12" d="M231.18,332.44h0a7.38,7.38,0,0,0-3.6-.81" />
  <path class="GUNDAN_LIZARD_JEWELRY_LIZARD_JEWELRY_5_cls-12" d="M226.15,332.25a1.08,1.08,0,0,0-.11.69,1.27,1.27,0,0,0,.58.87v0a7.42,7.42,0,0,0,5,.83.79.79,0,0,0,.35-.29,1,1,0,0,0,.22-.66" />
  <path class="GUNDAN_LIZARD_JEWELRY_LIZARD_JEWELRY_5_cls-12" d="M232.47,331.93h0a9.15,9.15,0,0,0-4.53-1.66,5.17,5.17,0,0,0-2.28.38" />
  <path class="GUNDAN_LIZARD_JEWELRY_LIZARD_JEWELRY_5_cls-12" d="M224.44,331.93a1.92,1.92,0,0,0-.07.8,2.09,2.09,0,0,0,.27.89v0a5.1,5.1,0,0,0,3.69,2.24c2.21.38,4.07.3,4.69-.72a2.33,2.33,0,0,0,.14-1.73h0" />
  <path class="GUNDAN_LIZARD_JEWELRY_LIZARD_JEWELRY_5_cls-12" d="M226.09,332.21s-.73-.15-1.65-.28a10.81,10.81,0,0,0-2.68-.11c-.35.05-.65.1-.89.16a3.64,3.64,0,0,0-1,.27" />
  <path class="GUNDAN_LIZARD_JEWELRY_LIZARD_JEWELRY_5_cls-12" d="M220.75,333.71s2.15-.14,3.9-.06" />
  <path class="GUNDAN_LIZARD_JEWELRY_LIZARD_JEWELRY_5_cls-12" d="M219.36,333.21h0a1.87,1.87,0,0,1-.75-1.67.91.91,0,0,1,.26-.56,2.41,2.41,0,0,1,1.28-.52h0a20.94,20.94,0,0,1,4.94.13h0a.74.74,0,0,1,.21,0l.35,0a3.22,3.22,0,0,1,1.76.81l.16.18a1.92,1.92,0,0,1,.44,1.42c-.08.57-.6.76-1.37.75h0" />
  <path class="GUNDAN_LIZARD_JEWELRY_LIZARD_JEWELRY_5_cls-12" d="M219.91,332.25a1,1,0,0,1-.21.66.92.92,0,0,1-.34.3,7.69,7.69,0,0,1-4.52-.5,1.7,1.7,0,0,1-1.1-1.19,1.25,1.25,0,0,1,0-.52" />
  <path class="GUNDAN_LIZARD_JEWELRY_LIZARD_JEWELRY_5_cls-12" d="M215,330.23a7.28,7.28,0,0,1,3.84.75h0" />
  <path class="GUNDAN_LIZARD_JEWELRY_LIZARD_JEWELRY_5_cls-12" d="M212.28,332.08a4.92,4.92,0,0,0,3.78,2.38c2.21.36,4.07.26,4.69-.75h0a2.32,2.32,0,0,0,.12-1.73v0" />
  <path class="GUNDAN_LIZARD_JEWELRY_LIZARD_JEWELRY_5_cls-12" d="M212.2,330.33a2.14,2.14,0,0,0-.13,1,2.45,2.45,0,0,0,.21.76" />
  <path class="GUNDAN_LIZARD_JEWELRY_LIZARD_JEWELRY_5_cls-12" d="M213.28,329.26a4.89,4.89,0,0,1,2.33-.44,9,9,0,0,1,4.54,1.64h0" />
  <path class="GUNDAN_LIZARD_JEWELRY_LIZARD_JEWELRY_5_cls-12" d="M207.54,329.47a4.72,4.72,0,0,1,1.05,0l.95.09a13.29,13.29,0,0,1,2.66.79c.78.3,1.42.6,1.57.67h0" />
  <path class="GUNDAN_LIZARD_JEWELRY_LIZARD_JEWELRY_5_cls-12" d="M208,331a44.2,44.2,0,0,1,4.32,1.05h0" />
  <path class="GUNDAN_LIZARD_JEWELRY_LIZARD_JEWELRY_5_cls-12" d="M214.84,332.71a.79.79,0,0,0,.69-.44,1.76,1.76,0,0,0-.5-2,4.22,4.22,0,0,0-1.54-.89l-.21-.08h0a23.61,23.61,0,0,0-5-1.36,2.7,2.7,0,0,0-1.45.16.77.77,0,0,0-.42.43,1.63,1.63,0,0,0,.27,1.72" />
  <path class="GUNDAN_LIZARD_JEWELRY_LIZARD_JEWELRY_5_cls-12" d="M206.85,328.06c-1-1-5.06-2.78-5.36-.83-.26,1.73,4.35,3.13,5.21,3a1.3,1.3,0,0,0,.43-.19.91.91,0,0,0,.4-.55" />
  <path class="GUNDAN_LIZARD_JEWELRY_LIZARD_JEWELRY_5_cls-12" d="M208.31,327.91h0a9.43,9.43,0,0,0-4.13-2.66c-2.42-.66-4,0-4.31,1.38s1,3,3.13,3.89,4,1.28,5,.51h0a2.18,2.18,0,0,0,.63-1.57" />
  <path class="GUNDAN_LIZARD_JEWELRY_LIZARD_JEWELRY_5_cls-12" d="M270.84,327.39h0c1.12,1.37.15,3.42-1,4.19a0,0,0,0,0,0,0" />
  <path class="GUNDAN_LIZARD_JEWELRY_LIZARD_JEWELRY_5_cls-9" d="M279,342.14c.05-1.33.08-2,.11-3.32a4.11,4.11,0,0,1,3.17,1.9" />
  <path class="GUNDAN_LIZARD_JEWELRY_LIZARD_JEWELRY_5_cls-10" d="M218.39,357.46s2.89.32,5.22.72a.05.05,0,0,0,0,0,3,3,0,0,1-.24-1.17,2.6,2.6,0,0,1,.21-1,18.72,18.72,0,0,0-3.49-.66c-.48,0-.88,0-1.2,0A2.7,2.7,0,0,1,218.39,357.46Z" />
  <path class="GUNDAN_LIZARD_JEWELRY_LIZARD_JEWELRY_5_cls-10" d="M232.94,360.27c-.81.34-5-.1-6.69-1.56l0,0a1.66,1.66,0,0,1-.68-1.18,1.3,1.3,0,0,1,.23-.85l-.08-.05s-.95-.29-2.14-.62a2.6,2.6,0,0,0-.21,1,3,3,0,0,0,.24,1.17.05.05,0,0,1,0,0,6.8,6.8,0,0,0,4.74,3.34c3,.73,5.58.7,6.46-.54a2.81,2.81,0,0,0,.23-2.18,6.66,6.66,0,0,0-1.3.3,1.13,1.13,0,0,1-.32.82A1.06,1.06,0,0,1,232.94,360.27Z" />
  <path class="GUNDAN_LIZARD_JEWELRY_LIZARD_JEWELRY_5_cls-10" d="M276.17,346.31a1.24,1.24,0,0,0,.31.75,2.54,2.54,0,0,0,2.23.94,1.31,1.31,0,0,0,0-.59,1.52,1.52,0,0,0-.49-.81h0a4.82,4.82,0,0,1,.51-1.1,3.66,3.66,0,0,1,1.61,1.72s.64-.79,1.46-1.76v0c1.07-1.48,1.26-4.36-.64-5.39h0c-1.92-1.09-2,1.88-2.1,2a11.27,11.27,0,0,0-2.37,2.68A2.85,2.85,0,0,0,276.17,346.31Z" />
  <path class="GUNDAN_LIZARD_JEWELRY_LIZARD_JEWELRY_5_cls-11" d="M276.18,346.31a2.64,2.64,0,0,1,.55-1.61,10.76,10.76,0,0,0-5.33,2.23,5.53,5.53,0,0,0-1.63,2.34l.27-.09a4.91,4.91,0,0,1,2.15-.37A8,8,0,0,1,276.18,346.31Z" />
  <path class="GUNDAN_LIZARD_JEWELRY_LIZARD_JEWELRY_5_cls-10" d="M280.37,347.22a3.67,3.67,0,0,0-1.61-1.72,4.68,4.68,0,0,0-.51,1.09h0a1.48,1.48,0,0,1,.48.81,1.27,1.27,0,0,1,0,.58c-.17.71-2.36,2.88-4.36,3.42a2.24,2.24,0,0,1-2.09-.25,2.07,2.07,0,0,1-.46-.55c-.2.05-1,.3-2,.62a3.23,3.23,0,0,0,.78,1.1,3.87,3.87,0,0,0,.88.59,6,6,0,0,0,5.65-.87C279.41,350.47,280.86,348.7,280.37,347.22Z" />
  <path class="GUNDAN_LIZARD_JEWELRY_LIZARD_JEWELRY_5_cls-10" d="M271.46,352.92a3.87,3.87,0,0,1-.88-.59,3.23,3.23,0,0,1-.78-1.1h0a15.56,15.56,0,0,0-3.11,1.31c-.4.25-.72.47-1,.65a3,3,0,0,1,.79,2.11h0S269.29,353.82,271.46,352.92Z" />
  <path class="GUNDAN_LIZARD_JEWELRY_LIZARD_JEWELRY_5_cls-7" d="M272.26,351.16a2.24,2.24,0,0,0,2.09.25.93.93,0,0,0,.19-1,2.67,2.67,0,0,0-2.35-1.59,4.91,4.91,0,0,0-2.15.37l-.27.09h0a30.54,30.54,0,0,0-5.68,2.48,3.08,3.08,0,0,0-1.23,1.24,1.19,1.19,0,0,0,0,.79,2.41,2.41,0,0,0,1.73,1.63,1.18,1.18,0,0,0,.25-.52,1.26,1.26,0,0,0-.09-.9h0a5.12,5.12,0,0,1,1-.81c.25-.18.57-.4,1-.65a15.56,15.56,0,0,1,3.11-1.31h0c1-.32,1.8-.57,2-.62A2.07,2.07,0,0,0,272.26,351.16Z" />
  <path class="GUNDAN_LIZARD_JEWELRY_LIZARD_JEWELRY_5_cls-11" d="M248.12,357.17a2.78,2.78,0,0,1,1.25-1.19h0a12.5,12.5,0,0,0-6.09-.25,6,6,0,0,0-2.62,1.38l.3,0a5.67,5.67,0,0,1,2.22.59A9.21,9.21,0,0,1,248.12,357.17Z" />
  <path class="GUNDAN_LIZARD_JEWELRY_LIZARD_JEWELRY_5_cls-11" d="M258.25,353.74a9.48,9.48,0,0,1,4.61-.74,3.08,3.08,0,0,1,1.23-1.24,12.45,12.45,0,0,0-6.06.13,5.45,5.45,0,0,0-2.89,2,2.23,2.23,0,0,0,.24-.08A4.39,4.39,0,0,1,258.25,353.74Z" />
  <path class="GUNDAN_LIZARD_JEWELRY_LIZARD_JEWELRY_5_cls-10" d="M256.18,357.83a7,7,0,0,0,5.06.69c2.88-.6,5.07-1.71,5.26-3.23a3,3,0,0,0-.79-2.11,5.12,5.12,0,0,0-1,.81h0a1.26,1.26,0,0,1,.09.9,1.18,1.18,0,0,1-.25.52c-.5.6-3.73,1.83-5.88,1.53h0a2.12,2.12,0,0,1-1.66-1,1.35,1.35,0,0,1-.19-.59c-.42.09-1.23.28-2.1.51v0a4.09,4.09,0,0,0,.18.49A3.27,3.27,0,0,0,256.18,357.83Z" />
  <path class="GUNDAN_LIZARD_JEWELRY_LIZARD_JEWELRY_5_cls-7" d="M258.69,357h0c.9-.4,1.38-.91,1.14-1.63a2.71,2.71,0,0,0-1.59-1.58,4.39,4.39,0,0,0-2.87,0,2.23,2.23,0,0,1-.24.08h0a29.45,29.45,0,0,0-5.75,2.12h0a2.78,2.78,0,0,0-1.25,1.19h0a1.13,1.13,0,0,0-.05.79,2.57,2.57,0,0,0,1.69,1.75,1.13,1.13,0,0,0,.28-.51,1.41,1.41,0,0,0-.08-.91,5.17,5.17,0,0,1,1-.77c.26-.18.59-.36,1-.59a12.77,12.77,0,0,1,2.8-1c.87-.23,1.68-.42,2.1-.51a1.35,1.35,0,0,0,.19.59A2.12,2.12,0,0,0,258.69,357Z" />
  <path class="GUNDAN_LIZARD_JEWELRY_LIZARD_JEWELRY_5_cls-10" d="M254.74,355.91a12.77,12.77,0,0,0-2.8,1c-.39.23-.72.41-1,.59a3.38,3.38,0,0,1,.74,2.19s2.4-1.1,4.48-1.88a3.27,3.27,0,0,1-1.26-1.41,4.09,4.09,0,0,1-.18-.49Z" />
  <path class="GUNDAN_LIZARD_JEWELRY_LIZARD_JEWELRY_5_cls-10" d="M249.76,359.71c-.5.57-3.58,1.56-5.73,1.2a2.31,2.31,0,0,1-1.86-1.11,1.56,1.56,0,0,1-.18-.66c-.2,0-1.1-.19-2.18-.31a2.92,2.92,0,0,0,.23,1.3,3.14,3.14,0,0,0,.57.89,6.47,6.47,0,0,0,5.73,1.61c2.92-.43,5.13-1.39,5.36-2.92a3.38,3.38,0,0,0-.74-2.19,5.17,5.17,0,0,0-1,.77,1.41,1.41,0,0,1,.08.91A1.13,1.13,0,0,1,249.76,359.71Z" />
  <path class="GUNDAN_LIZARD_JEWELRY_LIZARD_JEWELRY_5_cls-10" d="M236.25,358.64c-.48.06-.87.1-1.2.16h0a2.76,2.76,0,0,1-.23,2.18h0s3.32-.1,5.78,0h0a3.14,3.14,0,0,1-.57-.89,2.92,2.92,0,0,1-.23-1.3A17.92,17.92,0,0,0,236.25,358.64Z" />
  <path class="GUNDAN_LIZARD_JEWELRY_LIZARD_JEWELRY_5_cls-7" d="M235.05,358.8c.33-.06.72-.1,1.2-.16a17.92,17.92,0,0,1,3.56.19c1.08.12,2,.27,2.18.31a1.56,1.56,0,0,0,.18.66,2.31,2.31,0,0,0,1.86,1.11.93.93,0,0,0,.65-.81,2.52,2.52,0,0,0-1.49-2.38,5.67,5.67,0,0,0-2.22-.59l-.3,0c-1.15-.1-2.61-.19-6.52-.25l-1.5.42a1.88,1.88,0,0,0-.23.16,1.07,1.07,0,0,0-.37.68,2.28,2.28,0,0,0,.89,2.15,1.06,1.06,0,0,0,.48-.35,1.13,1.13,0,0,0,.32-.82,6.66,6.66,0,0,1,1.3-.3Z" />
  <path class="GUNDAN_LIZARD_JEWELRY_LIZARD_JEWELRY_5_cls-11" d="M227.74,356.08a11.07,11.07,0,0,1,4.68,1.36,1.88,1.88,0,0,1,.23-.16l1.5-.42a14.07,14.07,0,0,0-5.82-2.46,7.27,7.27,0,0,0-3,.18,4.53,4.53,0,0,1,2.2,1.25C227.61,355.91,227.68,356,227.74,356.08Z" />
  <path class="GUNDAN_LIZARD_JEWELRY_LIZARD_JEWELRY_5_cls-7" d="M226.28,358.68c1,.12,1.74-.06,1.89-.77a2.31,2.31,0,0,0-.43-1.83c-.06-.07-.13-.17-.21-.25a4.53,4.53,0,0,0-2.2-1.25l-.45-.11-.27-.05h0a36.4,36.4,0,0,0-6.39-1.13h0a3.21,3.21,0,0,0-1.77.34,1.09,1.09,0,0,0-.45.62,2.35,2.35,0,0,0,.63,2.26,1.16,1.16,0,0,0,.52-.27,1.2,1.2,0,0,0,.4-.78h0a5.54,5.54,0,0,1,1.31-.11c.32,0,.72,0,1.2,0a17.8,17.8,0,0,1,3.49.66c1.19.32,2.14.62,2.14.62l.08.05a1.3,1.3,0,0,0-.23.85,1.66,1.66,0,0,0,.68,1.18l0,0Z" />
  <path class="GUNDAN_LIZARD_JEWELRY_LIZARD_JEWELRY_5_cls-11" d="M212.78,350.05a7,7,0,0,0-3.07-.21c.07.06.17.12.24.17a6,6,0,0,1,1.73,1.59,10.79,10.79,0,0,1,4.77,2,3.21,3.21,0,0,1,1.77-.34A14,14,0,0,0,212.78,350.05Z" />
  <path class="GUNDAN_LIZARD_JEWELRY_LIZARD_JEWELRY_5_cls-10" d="M207.63,352.94c.34,1.59,2,3.27,4.34,4.19,2.86,1.13,5.4,1.45,6.41.34h0a2.7,2.7,0,0,0,.48-2.12,5.54,5.54,0,0,0-1.31.11h0a1.2,1.2,0,0,1-.4.78,1.16,1.16,0,0,1-.52.27,10.51,10.51,0,0,1-5.84-1.92,2.21,2.21,0,0,1-1.11-1.81,1.3,1.3,0,0,1,.18-.63c-.18-.14-.93-.71-1.83-1.36a2.48,2.48,0,0,0-.45,1.16,3,3,0,0,0,0,1Z" />
  <path class="GUNDAN_LIZARD_JEWELRY_LIZARD_JEWELRY_5_cls-10" d="M202.41,350s3,1.61,5.21,3a3,3,0,0,1,0-1,2.48,2.48,0,0,1,.45-1.16,22.1,22.1,0,0,0-3.13-1.95c-.46-.21-.84-.37-1.16-.49A2.49,2.49,0,0,1,202.41,350Z" />
  <path class="GUNDAN_LIZARD_JEWELRY_LIZARD_JEWELRY_5_cls-7" d="M210.79,354.58a1,1,0,0,0,1-.31,2.2,2.2,0,0,0-.12-2.67A6,6,0,0,0,210,350c-.07-.05-.17-.11-.24-.17h0a44.8,44.8,0,0,0-5.78-3.49,3.82,3.82,0,0,0-1.85-.41.92.92,0,0,0-.68.34,2,2,0,0,0-.29,2.17,1.51,1.51,0,0,0,.61,0,1.08,1.08,0,0,0,.7-.49h0a8,8,0,0,1,1.33.43c.32.12.7.28,1.16.49a22.1,22.1,0,0,1,3.13,1.95c.9.65,1.65,1.22,1.83,1.36a1.3,1.3,0,0,0-.18.63A2.21,2.21,0,0,0,210.79,354.58Z" />
  <path class="GUNDAN_LIZARD_JEWELRY_LIZARD_JEWELRY_5_cls-11" d="M203.74,348.34a8,8,0,0,0-1.33-.43h0a1.08,1.08,0,0,1-.7.49,1.51,1.51,0,0,1-.61,0c-1.13-.19-6.29-4.09-5.24-6,1.18-2.14,5.34,1.84,6.21,3.49a3.82,3.82,0,0,1,1.85.41,14.83,14.83,0,0,0-4-5c-2.62-1.89-4.76-2-5.71-.49s-.15,4.05,2.16,6.17,4.65,3.44,6.08,2.9h0A2.49,2.49,0,0,0,203.74,348.34Z" />
  <path class="GUNDAN_LIZARD_JEWELRY_LIZARD_JEWELRY_5_cls-13" d="M278.25,346.59a4.68,4.68,0,0,1,.51-1.09c.14-.25.33-.57.57-.94a11.47,11.47,0,0,1,1.79-1.9" />
  <path class="GUNDAN_LIZARD_JEWELRY_LIZARD_JEWELRY_5_cls-13" d="M280.37,347.22s.64-.79,1.46-1.75c0,0,0,0,0,0" />
  <path class="GUNDAN_LIZARD_JEWELRY_LIZARD_JEWELRY_5_cls-13" d="M281.2,340.05l-1.78-.84c-.09.08-.18,2.81-.28,2.9a9,9,0,0,0-2.42,2.58,2.83,2.83,0,0,0-.55,1.62,1.22,1.22,0,0,0,.31.75,2.55,2.55,0,0,0,2.23.94" />
  <path class="GUNDAN_LIZARD_JEWELRY_LIZARD_JEWELRY_5_cls-13" d="M278.24,346.6a1.48,1.48,0,0,1,.48.81,1.27,1.27,0,0,1,0,.58c-.17.71-2.36,2.88-4.36,3.42a2.24,2.24,0,0,1-2.09-.25,2.07,2.07,0,0,1-.46-.55" />
  <path class="GUNDAN_LIZARD_JEWELRY_LIZARD_JEWELRY_5_cls-13" d="M272.19,348.81a8,8,0,0,1,4-2.5" />
  <path class="GUNDAN_LIZARD_JEWELRY_LIZARD_JEWELRY_5_cls-13" d="M269.8,351.23a3.23,3.23,0,0,0,.78,1.1,3.87,3.87,0,0,0,.88.59,6,6,0,0,0,5.65-.87c2.3-1.58,3.75-3.35,3.26-4.83a3.67,3.67,0,0,0-1.61-1.72h0" />
  <path class="GUNDAN_LIZARD_JEWELRY_LIZARD_JEWELRY_5_cls-13" d="M269.77,349.27a5.53,5.53,0,0,1,1.63-2.34,10.76,10.76,0,0,1,5.33-2.23" />
  <path class="GUNDAN_LIZARD_JEWELRY_LIZARD_JEWELRY_5_cls-13" d="M264.74,354a5.12,5.12,0,0,1,1-.81c.25-.18.57-.4,1-.65a15.56,15.56,0,0,1,3.11-1.31h0c1-.32,1.8-.57,2-.62l.06,0" />
  <path class="GUNDAN_LIZARD_JEWELRY_LIZARD_JEWELRY_5_cls-13" d="M266.51,355.3s2.78-1.48,4.95-2.38" />
  <path class="GUNDAN_LIZARD_JEWELRY_LIZARD_JEWELRY_5_cls-13" d="M274.35,351.41a.93.93,0,0,0,.19-1,2.67,2.67,0,0,0-2.35-1.59,4.91,4.91,0,0,0-2.15.37l-.27.09h0a30.54,30.54,0,0,0-5.68,2.48,3.08,3.08,0,0,0-1.23,1.24,1.19,1.19,0,0,0,0,.79,2.41,2.41,0,0,0,1.73,1.63" />
  <path class="GUNDAN_LIZARD_JEWELRY_LIZARD_JEWELRY_5_cls-13" d="M258.69,357a2.12,2.12,0,0,1-1.66-1,1.35,1.35,0,0,1-.19-.59" />
  <path class="GUNDAN_LIZARD_JEWELRY_LIZARD_JEWELRY_5_cls-13" d="M264.74,354a1.26,1.26,0,0,1,.09.9,1.18,1.18,0,0,1-.25.52c-.5.6-3.73,1.83-5.88,1.53" />
  <path class="GUNDAN_LIZARD_JEWELRY_LIZARD_JEWELRY_5_cls-13" d="M258.25,353.74a9.48,9.48,0,0,1,4.61-.74h0" />
  <path class="GUNDAN_LIZARD_JEWELRY_LIZARD_JEWELRY_5_cls-13" d="M265.71,353.17h0a3,3,0,0,1,.79,2.11c-.19,1.52-2.38,2.63-5.26,3.23a7,7,0,0,1-5.06-.69,3.27,3.27,0,0,1-1.26-1.41,4.09,4.09,0,0,1-.18-.49" />
  <path class="GUNDAN_LIZARD_JEWELRY_LIZARD_JEWELRY_5_cls-13" d="M255.14,353.86a5.45,5.45,0,0,1,2.89-2,12.45,12.45,0,0,1,6.06-.13h0" />
  <path class="GUNDAN_LIZARD_JEWELRY_LIZARD_JEWELRY_5_cls-13" d="M250,358.29a5.17,5.17,0,0,1,1-.77c.26-.18.59-.36,1-.59a12.77,12.77,0,0,1,2.8-1c.87-.23,1.68-.42,2.1-.51l.32-.07" />
  <path class="GUNDAN_LIZARD_JEWELRY_LIZARD_JEWELRY_5_cls-13" d="M251.7,359.71s2.4-1.1,4.48-1.88" />
  <path class="GUNDAN_LIZARD_JEWELRY_LIZARD_JEWELRY_5_cls-13" d="M258.69,357h0c.9-.4,1.38-.91,1.14-1.63a2.71,2.71,0,0,0-1.59-1.58,4.39,4.39,0,0,0-2.87,0,2.23,2.23,0,0,1-.24.08h0a29.45,29.45,0,0,0-5.75,2.12h0a2.78,2.78,0,0,0-1.25,1.19h0a1.13,1.13,0,0,0-.05.79,2.57,2.57,0,0,0,1.69,1.75h0" />
  <path class="GUNDAN_LIZARD_JEWELRY_LIZARD_JEWELRY_5_cls-13" d="M250,358.29a1.41,1.41,0,0,1,.08.91,1.13,1.13,0,0,1-.28.51c-.5.57-3.58,1.56-5.73,1.2a2.31,2.31,0,0,1-1.86-1.11,1.56,1.56,0,0,1-.18-.66" />
  <path class="GUNDAN_LIZARD_JEWELRY_LIZARD_JEWELRY_5_cls-13" d="M243.19,357.72a9.21,9.21,0,0,1,4.93-.55" />
  <path class="GUNDAN_LIZARD_JEWELRY_LIZARD_JEWELRY_5_cls-13" d="M239.81,358.83a2.92,2.92,0,0,0,.23,1.3,3.14,3.14,0,0,0,.57.89,6.47,6.47,0,0,0,5.73,1.61c2.92-.43,5.13-1.39,5.36-2.92a3.38,3.38,0,0,0-.74-2.19h0" />
  <path class="GUNDAN_LIZARD_JEWELRY_LIZARD_JEWELRY_5_cls-13" d="M240.67,357.11a6,6,0,0,1,2.62-1.38,12.5,12.5,0,0,1,6.09.25" />
  <path class="GUNDAN_LIZARD_JEWELRY_LIZARD_JEWELRY_5_cls-13" d="M235.05,358.8c.33-.06.72-.1,1.2-.16a17.92,17.92,0,0,1,3.56.19c1.08.12,2,.27,2.18.31h0" />
  <path class="GUNDAN_LIZARD_JEWELRY_LIZARD_JEWELRY_5_cls-13" d="M233.74,359.1a6.66,6.66,0,0,1,1.3-.3" />
  <path class="GUNDAN_LIZARD_JEWELRY_LIZARD_JEWELRY_5_cls-13" d="M234.82,361s3.32-.1,5.78,0" />
  <path class="GUNDAN_LIZARD_JEWELRY_LIZARD_JEWELRY_5_cls-13" d="M244,360.91a.93.93,0,0,0,.65-.81,2.52,2.52,0,0,0-1.49-2.38,5.67,5.67,0,0,0-2.22-.59l-.3,0c-1.15-.1-2.61-.19-6.52-.25l-1.5.42a1.88,1.88,0,0,0-.23.16,1.07,1.07,0,0,0-.37.68,2.28,2.28,0,0,0,.89,2.15" />
  <path class="GUNDAN_LIZARD_JEWELRY_LIZARD_JEWELRY_5_cls-13" d="M232.43,357.45h0a11.07,11.07,0,0,0-4.68-1.36" />
  <path class="GUNDAN_LIZARD_JEWELRY_LIZARD_JEWELRY_5_cls-13" d="M225.78,356.66a1.3,1.3,0,0,0-.23.85,1.66,1.66,0,0,0,.68,1.18l0,0c1.65,1.46,5.88,1.9,6.69,1.56a1.06,1.06,0,0,0,.48-.35,1.13,1.13,0,0,0,.32-.82" />
  <path class="GUNDAN_LIZARD_JEWELRY_LIZARD_JEWELRY_5_cls-13" d="M234.16,356.87h0a14.07,14.07,0,0,0-5.82-2.46,7.27,7.27,0,0,0-3,.18" />
  <path class="GUNDAN_LIZARD_JEWELRY_LIZARD_JEWELRY_5_cls-13" d="M223.56,356a2.6,2.6,0,0,0-.21,1,3,3,0,0,0,.24,1.17.05.05,0,0,1,0,0,6.8,6.8,0,0,0,4.74,3.34c3,.73,5.58.71,6.46-.54a2.76,2.76,0,0,0,.23-2.18h0" />
  <path class="GUNDAN_LIZARD_JEWELRY_LIZARD_JEWELRY_5_cls-13" d="M225.7,356.61s-.95-.29-2.14-.62a18.72,18.72,0,0,0-3.49-.66c-.48,0-.88,0-1.2,0a5.54,5.54,0,0,0-1.31.11" />
  <path class="GUNDAN_LIZARD_JEWELRY_LIZARD_JEWELRY_5_cls-13" d="M218.39,357.46s2.89.32,5.22.72" />
  <path class="GUNDAN_LIZARD_JEWELRY_LIZARD_JEWELRY_5_cls-13" d="M216.64,356.51h0a2.35,2.35,0,0,1-.63-2.26,1.09,1.09,0,0,1,.45-.62,3.21,3.21,0,0,1,1.77-.34h0a36.4,36.4,0,0,1,6.39,1.13h0l.27.05.45.11a4.53,4.53,0,0,1,2.2,1.25c.08.08.15.18.21.25a2.31,2.31,0,0,1,.43,1.83c-.15.71-.87.89-1.89.77h0" />
  <path class="GUNDAN_LIZARD_JEWELRY_LIZARD_JEWELRY_5_cls-13" d="M217.55,355.45a1.2,1.2,0,0,1-.4.78,1.16,1.16,0,0,1-.52.27,10.51,10.51,0,0,1-5.84-1.92,2.21,2.21,0,0,1-1.11-1.81,1.3,1.3,0,0,1,.18-.63" />
  <path class="GUNDAN_LIZARD_JEWELRY_LIZARD_JEWELRY_5_cls-13" d="M211.68,351.6a10.79,10.79,0,0,1,4.77,2h0" />
  <path class="GUNDAN_LIZARD_JEWELRY_LIZARD_JEWELRY_5_cls-13" d="M207.63,352.94c.34,1.59,2,3.27,4.34,4.19,2.86,1.13,5.4,1.45,6.41.34h0a2.7,2.7,0,0,0,.48-2.12v0" />
  <path class="GUNDAN_LIZARD_JEWELRY_LIZARD_JEWELRY_5_cls-13" d="M208,350.78a2.48,2.48,0,0,0-.45,1.16,3,3,0,0,0,0,1" />
  <path class="GUNDAN_LIZARD_JEWELRY_LIZARD_JEWELRY_5_cls-13" d="M209.71,349.84a7,7,0,0,1,3.07.21,14,14,0,0,1,5.44,3.23h0" />
  <path class="GUNDAN_LIZARD_JEWELRY_LIZARD_JEWELRY_5_cls-13" d="M202.41,347.91a8,8,0,0,1,1.33.43c.32.12.7.28,1.16.49a22.1,22.1,0,0,1,3.13,1.95c.9.65,1.65,1.22,1.83,1.36l0,0" />
  <path class="GUNDAN_LIZARD_JEWELRY_LIZARD_JEWELRY_5_cls-13" d="M202.41,350s3,1.61,5.21,3h0" />
  <path class="GUNDAN_LIZARD_JEWELRY_LIZARD_JEWELRY_5_cls-13" d="M210.79,354.58a1,1,0,0,0,1-.31,2.2,2.2,0,0,0-.12-2.67A6,6,0,0,0,210,350c-.07-.05-.17-.11-.24-.17h0a44.8,44.8,0,0,0-5.78-3.49,3.82,3.82,0,0,0-1.85-.41.92.92,0,0,0-.68.34,2,2,0,0,0-.29,2.17" />
  <path class="GUNDAN_LIZARD_JEWELRY_LIZARD_JEWELRY_5_cls-13" d="M202.06,345.93c-.87-1.65-5-5.63-6.21-3.49-1,1.91,4.11,5.81,5.24,6a1.51,1.51,0,0,0,.61,0,1.08,1.08,0,0,0,.7-.49" />
  <path class="GUNDAN_LIZARD_JEWELRY_LIZARD_JEWELRY_5_cls-13" d="M203.91,346.35h0a14.83,14.83,0,0,0-4-5c-2.62-1.89-4.76-2-5.71-.49s-.15,4.05,2.16,6.17,4.65,3.44,6.08,2.9h0a2.49,2.49,0,0,0,1.33-1.62" />
  <path class="GUNDAN_LIZARD_JEWELRY_LIZARD_JEWELRY_5_cls-13" d="M281.19,340h0c1.9,1,1.71,3.91.64,5.39,0,0,0,0,0,0" />
  <path class="GUNDAN_LIZARD_JEWELRY_LIZARD_JEWELRY_5_cls-7" d="M189.49,347.88a1.23,1.23,0,0,1-1.22-1.15l-.06-1.08-.24,0-.23,1.06a1.21,1.21,0,0,1-1.19,1,1.15,1.15,0,0,1-.26,0l-.86-.18a1.23,1.23,0,0,1-1-1.44l.22-1.06-.23-.08-.49,1a1.23,1.23,0,0,1-1.09.67,1.17,1.17,0,0,1-.55-.13l-.79-.4a1.22,1.22,0,0,1-.54-1.64l.48-1-.2-.14-.72.81a1.21,1.21,0,0,1-.91.41,1.26,1.26,0,0,1-.82-.32l-.65-.59a1.19,1.19,0,0,1-.41-.84,1.2,1.2,0,0,1,.31-.89l.72-.8-.17-.19-.9.59a1.22,1.22,0,0,1-.67.2,1.21,1.21,0,0,1-1-.55l-.49-.74a1.23,1.23,0,0,1,.36-1.69l.9-.59-.11-.23-1,.34a1.23,1.23,0,0,1-1.55-.79l-.27-.83a1.23,1.23,0,0,1,.78-1.55l1-.34c0-.08,0-.16,0-.24l-1.08.06a1.24,1.24,0,0,1-1.29-1.15l0-.89a1.23,1.23,0,0,1,1.16-1.29l1.07-.06a1.94,1.94,0,0,0,0-.24l-1.05-.23a1.21,1.21,0,0,1-.95-1.44l.18-.87a1.22,1.22,0,0,1,1.2-1l.25,0,1,.22c0-.07.05-.15.08-.23l-1-.49a1.19,1.19,0,0,1-.61-.71,1.25,1.25,0,0,1,.07-.93l.4-.79a1.23,1.23,0,0,1,1.09-.67,1.21,1.21,0,0,1,.56.13l1,.49.14-.21-.81-.72a1.2,1.2,0,0,1-.4-.84,1.23,1.23,0,0,1,.31-.89l.59-.65a1.21,1.21,0,0,1,.91-.41,1.25,1.25,0,0,1,.82.31l.8.72.19-.17-.59-.9a1.23,1.23,0,0,1,.35-1.69l.75-.49a1.24,1.24,0,0,1,.66-.19,1.22,1.22,0,0,1,1,.55l.59.9.22-.11-.34-1a1.24,1.24,0,0,1,.78-1.54l.85-.28a1.22,1.22,0,0,1,1.54.78l.34,1,.24,0-.06-1.08a1.23,1.23,0,0,1,1.15-1.29l.89-.05a1.24,1.24,0,0,1,1.29,1.16l.06,1.07.25,0,.22-1.05a1.23,1.23,0,0,1,1.19-1,1.09,1.09,0,0,1,.26,0l.86.18a1.23,1.23,0,0,1,.95,1.45l-.22,1.05.23.08.49-1a1.23,1.23,0,0,1,1.09-.67,1.31,1.31,0,0,1,.55.13l.79.4a1.23,1.23,0,0,1,.54,1.65l-.48,1,.2.14.72-.8a1.21,1.21,0,0,1,.91-.41,1.17,1.17,0,0,1,.82.32l.66.58a1.23,1.23,0,0,1,.09,1.73l-.72.8.17.19.9-.59a1.22,1.22,0,0,1,1.69.35l.49.74a1.24,1.24,0,0,1-.36,1.7l-.9.59a2.26,2.26,0,0,1,.11.22l1-.34a1.31,1.31,0,0,1,.38-.06,1.22,1.22,0,0,1,1.17.85l.27.84a1.22,1.22,0,0,1-.78,1.54l-1,.34c0,.08,0,.16,0,.24l1.09-.06a1.24,1.24,0,0,1,1.28,1.15l.05.89a1.23,1.23,0,0,1-1.15,1.29l-1.08.06c0,.08,0,.16,0,.25l1.06.22a1.22,1.22,0,0,1,.94,1.44l-.18.87a1.22,1.22,0,0,1-1.19,1h0a1.1,1.1,0,0,1-.26,0l-1.05-.22c0,.08,0,.16-.08.23l1,.49a1.22,1.22,0,0,1,.54,1.64l-.4.79a1.21,1.21,0,0,1-1.09.67,1.17,1.17,0,0,1-.55-.13l-1-.48a2.43,2.43,0,0,1-.14.2l.81.72a1.23,1.23,0,0,1,.09,1.73l-.59.66A1.21,1.21,0,0,1,199,343l-.8-.72-.19.17.59.9a1.22,1.22,0,0,1-.35,1.69l-.74.49a1.22,1.22,0,0,1-.67.2,1.21,1.21,0,0,1-1-.55l-.59-.91-.23.11.34,1a1.24,1.24,0,0,1-.78,1.55l-.85.27a1.22,1.22,0,0,1-.38.07,1.23,1.23,0,0,1-1.16-.84l-.34-1-.24,0,.06,1.08a1.18,1.18,0,0,1-.31.88,1.21,1.21,0,0,1-.84.41ZM189.13,323h-.51a9,9,0,0,0,.49,17.91h.51a9,9,0,0,0-.49-17.91Z" />
  <path class="GUNDAN_LIZARD_JEWELRY_LIZARD_JEWELRY_5_cls-9" d="M188.75,316.77a.51.51,0,0,1,.51.48l.1,1.72a14.52,14.52,0,0,1,1.48.11l.35-1.68a.51.51,0,0,1,.5-.41h.11l.87.18a.51.51,0,0,1,.4.61l-.35,1.68a14.53,14.53,0,0,1,1.4.49l.77-1.53a.51.51,0,0,1,.46-.28.59.59,0,0,1,.23.05l.8.4a.52.52,0,0,1,.22.7l-.77,1.53a12.58,12.58,0,0,1,1.22.84l1.15-1.28a.49.49,0,0,1,.38-.18.54.54,0,0,1,.35.14l.66.59a.52.52,0,0,1,0,.73L198.48,323a13,13,0,0,1,1,1.12l1.44-.94a.46.46,0,0,1,.28-.08.51.51,0,0,1,.43.23l.49.74a.53.53,0,0,1-.15.72l-1.44.93a13.69,13.69,0,0,1,.64,1.34l1.63-.53.16,0a.51.51,0,0,1,.49.36l.28.84a.52.52,0,0,1-.33.65l-1.63.54a11.59,11.59,0,0,1,.27,1.45l1.72-.09h0a.52.52,0,0,1,.52.48l0,.89a.51.51,0,0,1-.48.54l-1.72.1a12.13,12.13,0,0,1-.11,1.48l1.68.35a.51.51,0,0,1,.4.61l-.18.87a.51.51,0,0,1-.5.41h-.11l-1.68-.35a13.64,13.64,0,0,1-.49,1.4l1.53.77a.51.51,0,0,1,.23.69l-.4.8a.53.53,0,0,1-.46.28.53.53,0,0,1-.24-.06l-1.53-.77a12.58,12.58,0,0,1-.84,1.22l1.29,1.15a.52.52,0,0,1,0,.73l-.6.66a.52.52,0,0,1-.38.17.5.5,0,0,1-.34-.13l-1.29-1.15a11.63,11.63,0,0,1-1.12,1l.94,1.44a.51.51,0,0,1-.15.71l-.74.49a.57.57,0,0,1-.28.08.5.5,0,0,1-.43-.23l-.94-1.44a12.67,12.67,0,0,1-1.34.64l.53,1.63a.51.51,0,0,1-.32.66l-.85.27a.45.45,0,0,1-.16,0,.51.51,0,0,1-.49-.36l-.53-1.63a11.74,11.74,0,0,1-1.46.27l.09,1.72a.52.52,0,0,1-.48.55l-.89,0h0a.52.52,0,0,1-.51-.49l-.1-1.72a11.82,11.82,0,0,1-1.47-.11l-.36,1.68a.5.5,0,0,1-.5.41h-.11l-.87-.18a.53.53,0,0,1-.4-.61l.36-1.68a12.85,12.85,0,0,1-1.4-.49l-.78,1.53a.51.51,0,0,1-.46.28.46.46,0,0,1-.23-.05l-.79-.4a.52.52,0,0,1-.23-.7l.77-1.53a12.58,12.58,0,0,1-1.22-.84L180,343.56a.52.52,0,0,1-.38.17.53.53,0,0,1-.35-.13l-.65-.59a.51.51,0,0,1,0-.73l1.15-1.29a11.63,11.63,0,0,1-1-1.12l-1.44.94a.47.47,0,0,1-.28.09.52.52,0,0,1-.43-.24l-.48-.74a.51.51,0,0,1,.14-.71l1.44-.94a12.67,12.67,0,0,1-.64-1.34l-1.63.53a.51.51,0,0,1-.17,0,.51.51,0,0,1-.48-.35l-.28-.85a.52.52,0,0,1,.33-.65l1.63-.53a11.74,11.74,0,0,1-.27-1.46l-1.72.1h0a.53.53,0,0,1-.52-.49l0-.89a.51.51,0,0,1,.48-.54l1.72-.1a14.11,14.11,0,0,1,.11-1.47l-1.68-.36a.51.51,0,0,1-.4-.61l.18-.86a.52.52,0,0,1,.51-.42h.1l1.68.36a12.85,12.85,0,0,1,.49-1.4l-1.53-.78a.53.53,0,0,1-.23-.69l.4-.79a.51.51,0,0,1,.7-.23l1.53.77a12.58,12.58,0,0,1,.84-1.22l-1.28-1.15a.5.5,0,0,1,0-.73l.59-.65a.49.49,0,0,1,.38-.18.58.58,0,0,1,.35.13l1.28,1.15a13,13,0,0,1,1.12-1l-.94-1.44a.51.51,0,0,1,.15-.71l.74-.48a.51.51,0,0,1,.28-.09.5.5,0,0,1,.43.23l.94,1.44a13.69,13.69,0,0,1,1.34-.64l-.53-1.63a.52.52,0,0,1,.32-.65l.85-.28a.45.45,0,0,1,.16,0,.51.51,0,0,1,.49.36l.54,1.63a11.59,11.59,0,0,1,1.45-.27l-.09-1.72a.51.51,0,0,1,.48-.54l.89-.05h0m.36,24.87.55,0a9.67,9.67,0,0,0-.53-19.32l-.55,0a9.67,9.67,0,0,0,.53,19.32m-.36-26.28h-.11l-.88.05a1.88,1.88,0,0,0-1.33.64,1.66,1.66,0,0,0-.25.34A1.88,1.88,0,0,0,185,316a2.05,2.05,0,0,0-.61.1l-.83.27a2,2,0,0,0-1.27,1.36,2,2,0,0,0-.8-.17,1.88,1.88,0,0,0-1,.32l-.74.48a1.93,1.93,0,0,0-.84,1.22,3,3,0,0,0,0,.42,1.55,1.55,0,0,0-.31,0,1.93,1.93,0,0,0-1.44.64l-.59.66a2,2,0,0,0-.49,1.4,2.7,2.7,0,0,0,.07.41,1.94,1.94,0,0,0-1.53,1.05l-.4.79a2,2,0,0,0,.07,1.86,1.91,1.91,0,0,0-1.21,1.41l-.18.86a1.92,1.92,0,0,0,.27,1.46,2.69,2.69,0,0,0,.27.32,1.91,1.91,0,0,0-.8,1.67l0,.89a1.92,1.92,0,0,0,1,1.57,2,2,0,0,0-.35,1.82l.28.85a2.55,2.55,0,0,1,1.5,3.11l.49.75a1.94,1.94,0,0,0,1.61.87h0a2.75,2.75,0,0,0,0,.41,2,2,0,0,0,.64,1.34l.66.59a1.92,1.92,0,0,0,1.29.49,1.81,1.81,0,0,0,.52-.07,1.92,1.92,0,0,0,1,1.53l.79.4a2,2,0,0,0,.87.21,2,2,0,0,0,1-.27,1.91,1.91,0,0,0,1.39,1.2l.89.18a1.6,1.6,0,0,0,.39.05,2,2,0,0,0,1.38-.59,1.92,1.92,0,0,0,1.56.81h.11l.88,0a1.92,1.92,0,0,0,1.58-1,1.9,1.9,0,0,0,1.22.44,1.77,1.77,0,0,0,.61-.1l.83-.27a1.93,1.93,0,0,0,1.27-1.36,2,2,0,0,0,.8.17,1.87,1.87,0,0,0,1.05-.31l.75-.49a1.94,1.94,0,0,0,.87-1.63l.31,0a1.89,1.89,0,0,0,1.44-.65l.59-.65a2,2,0,0,0,.42-1.81,1.92,1.92,0,0,0,1.53-1l.4-.8a2.58,2.58,0,0,1,1.14-3.27l.18-.86a1.93,1.93,0,0,0-.54-1.77,2.21,2.21,0,0,0,.32-.29,1.91,1.91,0,0,0,.48-1.39l0-.89a2.52,2.52,0,0,1-.64-3.39l-.28-.85a1.94,1.94,0,0,0-1.36-1.26,1.87,1.87,0,0,0,.13-.4,1.9,1.9,0,0,0-.27-1.45l-.49-.74a1.92,1.92,0,0,0-1.61-.88h0a1.91,1.91,0,0,0-.6-1.74l-.68-.6a1.91,1.91,0,0,0-1.28-.49,2.25,2.25,0,0,0-.52.07,1.94,1.94,0,0,0-1-1.53l-.8-.4a2,2,0,0,0-.87-.2,1.94,1.94,0,0,0-1,.26,1.94,1.94,0,0,0-1.4-1.2l-.88-.18a1.7,1.7,0,0,0-.4,0,2,2,0,0,0-1.38.58,1.91,1.91,0,0,0-1.56-.8Zm.36,24.86a8.25,8.25,0,0,1-.45-16.49h.47a8.25,8.25,0,0,1,.45,16.49Z" />
  <path class="GUNDAN_LIZARD_JEWELRY_LIZARD_JEWELRY_5_cls-7" d="M283.66,345.89a1.21,1.21,0,0,1-1.22-1.15l-.06-1.08-.25,0-.22,1.06a1.23,1.23,0,0,1-1.2,1,1.07,1.07,0,0,1-.25,0l-.87-.17a1.23,1.23,0,0,1-.94-1.45l.22-1.06-.24-.08-.49,1a1.19,1.19,0,0,1-1.09.67,1.17,1.17,0,0,1-.55-.13l-.79-.4a1.21,1.21,0,0,1-.61-.7,1.23,1.23,0,0,1,.07-.94l.49-1-.21-.13-.72.8a1.21,1.21,0,0,1-1.72.1l-.66-.59a1.23,1.23,0,0,1-.41-.86,1.26,1.26,0,0,1,.32-.88l.71-.8-.16-.18-.91.59a1.17,1.17,0,0,1-.66.2,1.24,1.24,0,0,1-1-.55l-.48-.75a1.22,1.22,0,0,1,.35-1.69l.9-.59-.11-.23-1,.34a1.22,1.22,0,0,1-1.54-.78l-.28-.84a1.24,1.24,0,0,1,.78-1.55l1-.33c0-.08,0-.16,0-.25l-1.08.06a1.24,1.24,0,0,1-1.29-1.15l-.05-.89a1.3,1.3,0,0,1,.31-.88,1.2,1.2,0,0,1,.85-.4l1.08-.06a2,2,0,0,1,0-.25l-1.06-.22a1.24,1.24,0,0,1-.77-.53,1.2,1.2,0,0,1-.18-.92l.18-.87a1.23,1.23,0,0,1,1.2-1l.25,0,1.05.23.09-.24-1-.48a1.18,1.18,0,0,1-.61-.72,1.2,1.2,0,0,1,.07-.93l.4-.79a1.23,1.23,0,0,1,1.09-.67,1.31,1.31,0,0,1,.55.13l1,.49.14-.21-.8-.72a1.21,1.21,0,0,1-.1-1.72l.59-.66a1.23,1.23,0,0,1,1.73-.1l.8.72.19-.16-.59-.91a1.24,1.24,0,0,1-.17-.92,1.2,1.2,0,0,1,.53-.77l.74-.48a1.22,1.22,0,0,1,.67-.2,1.21,1.21,0,0,1,1,.55l.59.9.23-.11-.34-1a1.22,1.22,0,0,1,.77-1.54l.85-.28a1.22,1.22,0,0,1,1.54.78l.34,1,.25-.05-.06-1.08a1.24,1.24,0,0,1,.3-.88,1.2,1.2,0,0,1,.85-.4l.89-.05a1.23,1.23,0,0,1,1.28,1.15l.06,1.08.25,0,.22-1.06a1.22,1.22,0,0,1,1.19-1l.26,0,.87.18a1.24,1.24,0,0,1,.77.53,1.2,1.2,0,0,1,.17.92L287.7,317l.24.09.48-1a1.21,1.21,0,0,1,1.1-.67,1.29,1.29,0,0,1,.54.12l.8.41a1.19,1.19,0,0,1,.61.71,1.25,1.25,0,0,1-.07.93l-.49,1,.21.14.72-.8a1.2,1.2,0,0,1,.91-.41,1.17,1.17,0,0,1,.81.32l.66.58a1.24,1.24,0,0,1,.1,1.73l-.72.81.16.18.9-.59a1.23,1.23,0,0,1,1.7.35l.48.75a1.24,1.24,0,0,1,.18.92,1.19,1.19,0,0,1-.54.77l-.89.59.1.22,1-.33a1.22,1.22,0,0,1,1.54.78l.28.84a1.22,1.22,0,0,1-.78,1.54l-1,.34c0,.08,0,.16,0,.25l1.08-.07a1.24,1.24,0,0,1,1.28,1.16l.05.88a1.21,1.21,0,0,1-1.15,1.29l-1.08.06a2,2,0,0,1,0,.25l1.06.22a1.24,1.24,0,0,1,.95,1.45l-.19.87a1.21,1.21,0,0,1-1.19,1,1.15,1.15,0,0,1-.26,0l-1-.22-.09.24,1,.48a1.22,1.22,0,0,1,.61.71,1.2,1.2,0,0,1-.07.93l-.4.8a1.23,1.23,0,0,1-1.09.67,1.31,1.31,0,0,1-.55-.13l-1-.49c-.05.07-.1.14-.14.21l.8.72a1.23,1.23,0,0,1,.1,1.72l-.6.66a1.2,1.2,0,0,1-.91.41,1.17,1.17,0,0,1-.81-.32l-.81-.71-.18.16.59.9a1.23,1.23,0,0,1-.36,1.7l-.74.48a1.22,1.22,0,0,1-.67.2,1.21,1.21,0,0,1-1-.55l-.59-.9-.23.11.34,1a1.23,1.23,0,0,1-.78,1.54l-.84.28a1.23,1.23,0,0,1-1.55-.78l-.33-1-.25.05.06,1.08a1.22,1.22,0,0,1-1.15,1.28ZM283.29,321l-.5,0a9,9,0,0,0,.49,17.9h.5a9,9,0,0,0-.49-17.91Z" />
  <path class="GUNDAN_LIZARD_JEWELRY_LIZARD_JEWELRY_5_cls-9" d="M282.91,314.78a.52.52,0,0,1,.52.49l.09,1.72a12.13,12.13,0,0,1,1.48.1l.35-1.68a.52.52,0,0,1,.51-.41h.1l.87.18a.52.52,0,0,1,.4.62l-.35,1.68a12.81,12.81,0,0,1,1.4.48l.77-1.53a.54.54,0,0,1,.47-.28.53.53,0,0,1,.23.06l.79.4a.52.52,0,0,1,.23.69l-.78,1.53a13.16,13.16,0,0,1,1.22.84l1.15-1.28a.49.49,0,0,1,.39-.17.5.5,0,0,1,.34.13l.66.59a.52.52,0,0,1,0,.73L292.64,321a12.75,12.75,0,0,1,1,1.12l1.44-.94a.6.6,0,0,1,.28-.08.53.53,0,0,1,.44.23l.48.74a.52.52,0,0,1-.15.72l-1.43.94a12.61,12.61,0,0,1,.63,1.34l1.64-.54a.41.41,0,0,1,.16,0,.51.51,0,0,1,.49.36l.28.84a.52.52,0,0,1-.33.65l-1.64.54a13.46,13.46,0,0,1,.28,1.46l1.72-.1h0a.52.52,0,0,1,.52.49l.05.88a.52.52,0,0,1-.49.55l-1.72.09a10.42,10.42,0,0,1-.11,1.48l1.69.35a.53.53,0,0,1,.4.61l-.19.87a.51.51,0,0,1-.5.41h-.11l-1.68-.35a12.85,12.85,0,0,1-.49,1.4l1.53.77a.52.52,0,0,1,.23.7l-.4.79a.51.51,0,0,1-.46.28.59.59,0,0,1-.23,0l-1.54-.78a11.38,11.38,0,0,1-.83,1.22l1.28,1.15a.52.52,0,0,1,0,.73l-.59.66a.49.49,0,0,1-.39.17.5.5,0,0,1-.34-.13l-1.28-1.15a12.75,12.75,0,0,1-1.12,1l.94,1.44a.54.54,0,0,1-.15.72l-.74.48a.53.53,0,0,1-.72-.15l-.94-1.44a12.74,12.74,0,0,1-1.34.65l.54,1.63a.52.52,0,0,1-.33.65l-.84.28-.17,0a.54.54,0,0,1-.49-.35l-.53-1.64a13.94,13.94,0,0,1-1.46.28l.1,1.71a.52.52,0,0,1-.49.55l-.88.05h0a.52.52,0,0,1-.52-.49l-.09-1.72a12,12,0,0,1-1.48-.11l-.35,1.69a.52.52,0,0,1-.51.41l-.1,0-.87-.18a.51.51,0,0,1-.4-.61l.35-1.68a11,11,0,0,1-1.4-.49l-.78,1.53a.52.52,0,0,1-.46.29.53.53,0,0,1-.23-.06l-.79-.4a.52.52,0,0,1-.23-.69l.78-1.54a11.38,11.38,0,0,1-1.22-.83l-1.15,1.28a.54.54,0,0,1-.39.17.5.5,0,0,1-.34-.13l-.66-.59a.51.51,0,0,1,0-.73l1.14-1.28c-.34-.36-.66-.73-1-1.12l-1.43.94a.6.6,0,0,1-.28.08.53.53,0,0,1-.44-.23l-.48-.75a.51.51,0,0,1,.15-.71l1.43-.94c-.23-.43-.45-.88-.64-1.34l-1.63.54a.44.44,0,0,1-.16,0,.5.5,0,0,1-.49-.35l-.28-.84a.53.53,0,0,1,.33-.66l1.64-.53a13.94,13.94,0,0,1-.28-1.46l-1.71.1h0a.52.52,0,0,1-.52-.49l-.05-.89a.51.51,0,0,1,.49-.54l1.72-.09a12,12,0,0,1,.11-1.48l-1.69-.35a.52.52,0,0,1-.4-.61l.18-.87A.51.51,0,0,1,269,326h.1l1.69.35a12.81,12.81,0,0,1,.48-1.4l-1.52-.77a.52.52,0,0,1-.23-.7l.4-.79a.51.51,0,0,1,.46-.28.59.59,0,0,1,.23.05l1.53.78a13.16,13.16,0,0,1,.84-1.22l-1.28-1.15a.52.52,0,0,1,0-.73l.59-.66a.49.49,0,0,1,.38-.18.52.52,0,0,1,.35.14l1.28,1.15a14.82,14.82,0,0,1,1.12-1l-.94-1.43a.53.53,0,0,1,.15-.72l.75-.48a.47.47,0,0,1,.28-.09.53.53,0,0,1,.43.24l.94,1.43a12.67,12.67,0,0,1,1.34-.64l-.54-1.63a.52.52,0,0,1,.33-.65l.84-.28.16,0a.5.5,0,0,1,.49.35l.54,1.63c.47-.11,1-.2,1.46-.27l-.1-1.72a.51.51,0,0,1,.49-.54l.88-.05h0m.37,24.87.54,0a9.66,9.66,0,0,0-.53-19.31h-.54a9.67,9.67,0,0,0,.53,19.32m-.37-26.28h-.11l-.88.05a1.93,1.93,0,0,0-1.57,1,1.93,1.93,0,0,0-1.23-.44,1.87,1.87,0,0,0-.61.11l-.83.27a2,2,0,0,0-1.27,1.35,1.92,1.92,0,0,0-1.85.15l-.74.48a1.88,1.88,0,0,0-.83,1.22,2,2,0,0,0,0,.42,1.73,1.73,0,0,0-.32,0,1.92,1.92,0,0,0-1.43.65l-.59.66a1.89,1.89,0,0,0-.49,1.4,1.76,1.76,0,0,0,.07.4,1.93,1.93,0,0,0-1.53,1l-.4.79a1.93,1.93,0,0,0-.11,1.47,1.71,1.71,0,0,0,.17.39,2,2,0,0,0-1.21,1.41l-.18.86a1.94,1.94,0,0,0,.54,1.78,1.91,1.91,0,0,0-.8,1.67l.05.89a1.94,1.94,0,0,0,1,1.58,1.92,1.92,0,0,0-.34,1.81l.28.85a1.9,1.9,0,0,0,1.35,1.27,2,2,0,0,0,.15,1.84l.48.75a1.93,1.93,0,0,0,1.62.87h0a2,2,0,0,0,.62,1.75l.66.59a2.56,2.56,0,0,1,2.86,1.95l.79.4a1.82,1.82,0,0,0,.86.21,2,2,0,0,0,1-.27,1.94,1.94,0,0,0,1.39,1.2l.89.19a2.45,2.45,0,0,0,.39,0,1.92,1.92,0,0,0,1.38-.58,1.94,1.94,0,0,0,1.57.8h.1l.89-.05a1.94,1.94,0,0,0,1.33-.64,1.91,1.91,0,0,0,.24-.34,2,2,0,0,0,1.22.43,1.87,1.87,0,0,0,.62-.1l.83-.27a2,2,0,0,0,1.27-1.35,1.9,1.9,0,0,0,.79.17,1.86,1.86,0,0,0,1.05-.32l.75-.48a1.93,1.93,0,0,0,.87-1.64,1.63,1.63,0,0,0,.31,0,1.92,1.92,0,0,0,1.45-.66l.58-.64a2,2,0,0,0,.42-1.82,1.92,1.92,0,0,0,1.53-1l.4-.8a1.88,1.88,0,0,0,.11-1.47,1.63,1.63,0,0,0-.17-.38,2,2,0,0,0,1.21-1.42l.18-.86a2,2,0,0,0-.54-1.77,1.7,1.7,0,0,0,.31-.29,1.92,1.92,0,0,0,.49-1.39l0-.88a2,2,0,0,0-1-1.58,1.92,1.92,0,0,0,.34-1.81l-.28-.85a1.92,1.92,0,0,0-1.35-1.27,2.67,2.67,0,0,0,.13-.4,2,2,0,0,0-.28-1.45l-.48-.74a1.92,1.92,0,0,0-1.62-.87h0a2,2,0,0,0-.61-1.75l-.67-.6a1.93,1.93,0,0,0-1.28-.49,1.77,1.77,0,0,0-.52.08,1.93,1.93,0,0,0-1.05-1.53l-.79-.4a2,2,0,0,0-.87-.21,1.86,1.86,0,0,0-1,.27,2,2,0,0,0-1.4-1.21l-.88-.18a1.67,1.67,0,0,0-.39,0,1.93,1.93,0,0,0-1.38.58,2,2,0,0,0-1.57-.8Zm.37,24.87a8.26,8.26,0,0,1-.45-16.5h.46a8.25,8.25,0,0,1,.45,16.49l-.46,0Z" />
</svg>