<svg id="Jewelry" xmlns="http://www.w3.org/2000/svg" viewBox="0 0 432 432">
  <defs>
    <style>.GUNDAN_LIZARD_JEWELRY_LIZARD_JEWELRY_4_cls-1{fill:#86442e;stroke-width:1.91px;}.GUNDAN_LIZARD_JEWELRY_LIZARD_JEWELRY_4_cls-1,.GUNDAN_LIZARD_JEWELRY_LIZARD_JEWELRY_4_cls-11,.GUNDAN_LIZARD_JEWELRY_LIZARD_JEWELRY_4_cls-2,.GUNDAN_LIZARD_JEWELRY_LIZARD_JEWELRY_4_cls-4,.GUNDAN_LIZARD_JEWELRY_LIZARD_JEWELRY_4_cls-5,.GUNDAN_LIZARD_JEWELRY_LIZARD_JEWELRY_4_cls-8,.GUNDAN_LIZARD_JEWELRY_LIZARD_JEWELRY_4_cls-9{stroke:#010101;}.GUNDAN_LIZARD_JEWELRY_LIZARD_JEWELRY_4_cls-1,.GUNDAN_LIZARD_JEWELRY_LIZARD_JEWELRY_4_cls-11,.GUNDAN_LIZARD_JEWELRY_LIZARD_JEWELRY_4_cls-8,.GUNDAN_LIZARD_JEWELRY_LIZARD_JEWELRY_4_cls-9{stroke-miterlimit:10;}.GUNDAN_LIZARD_JEWELRY_LIZARD_JEWELRY_4_cls-2{fill:#6e2416;stroke-width:2.9px;}.GUNDAN_LIZARD_JEWELRY_LIZARD_JEWELRY_4_cls-11,.GUNDAN_LIZARD_JEWELRY_LIZARD_JEWELRY_4_cls-2,.GUNDAN_LIZARD_JEWELRY_LIZARD_JEWELRY_4_cls-4,.GUNDAN_LIZARD_JEWELRY_LIZARD_JEWELRY_4_cls-5{stroke-linecap:round;}.GUNDAN_LIZARD_JEWELRY_LIZARD_JEWELRY_4_cls-2,.GUNDAN_LIZARD_JEWELRY_LIZARD_JEWELRY_4_cls-4,.GUNDAN_LIZARD_JEWELRY_LIZARD_JEWELRY_4_cls-5{stroke-linejoin:round;}.GUNDAN_LIZARD_JEWELRY_LIZARD_JEWELRY_4_cls-3{fill:#e3aa2a;}.GUNDAN_LIZARD_JEWELRY_LIZARD_JEWELRY_4_cls-11,.GUNDAN_LIZARD_JEWELRY_LIZARD_JEWELRY_4_cls-4,.GUNDAN_LIZARD_JEWELRY_LIZARD_JEWELRY_4_cls-5{fill:none;}.GUNDAN_LIZARD_JEWELRY_LIZARD_JEWELRY_4_cls-4{stroke-width:1.17px;}.GUNDAN_LIZARD_JEWELRY_LIZARD_JEWELRY_4_cls-5{stroke-width:0.95px;}.GUNDAN_LIZARD_JEWELRY_LIZARD_JEWELRY_4_cls-6{fill:#010101;}.GUNDAN_LIZARD_JEWELRY_LIZARD_JEWELRY_4_cls-7{fill:#b9876e;}.GUNDAN_LIZARD_JEWELRY_LIZARD_JEWELRY_4_cls-8{fill:#dfca6d;}.GUNDAN_LIZARD_JEWELRY_LIZARD_JEWELRY_4_cls-11,.GUNDAN_LIZARD_JEWELRY_LIZARD_JEWELRY_4_cls-8,.GUNDAN_LIZARD_JEWELRY_LIZARD_JEWELRY_4_cls-9{stroke-width:1.42px;}.GUNDAN_LIZARD_JEWELRY_LIZARD_JEWELRY_4_cls-9{fill:#bf4027;}.GUNDAN_LIZARD_JEWELRY_LIZARD_JEWELRY_4_cls-10{fill:#fff;}</style>
  </defs>
  <path class="GUNDAN_LIZARD_JEWELRY_LIZARD_JEWELRY_4_cls-1" d="M229.75,329.13a1.89,1.89,0,0,1-.47-.06,171.37,171.37,0,0,1-41.73-16.73c-28.31-16.07-44.47-34.76-49.7-58.31-.74-3.17.53-4.91,2.56-4.91,1.06,0,.6,2.29.83,3.32,11.6,52.15,81.78,70.94,88.49,72.79,5-1.56,47.43-15.9,67.76-60.37.44-1,.11-2.77-.42-5.09,4.36,1.5,4.78,6.09,4.35,7.06-22.45,50.52-70.67,62.1-71.16,62.24A2.1,2.1,0,0,1,229.75,329.13Z" />
  <line class="GUNDAN_LIZARD_JEWELRY_LIZARD_JEWELRY_4_cls-2" x1="229.67" y1="328.89" x2="229.77" y2="336.68" />
  <path class="GUNDAN_LIZARD_JEWELRY_LIZARD_JEWELRY_4_cls-3" d="M210.56,358.13c8.67,2.92,12.93-2.17,12.93-2.17L220,365.68S218.74,365.05,210.56,358.13Z" />
  <path class="GUNDAN_LIZARD_JEWELRY_LIZARD_JEWELRY_4_cls-3" d="M231,376.59c19.38-11.45,28.17-26.49,28.11-36,0-4.45-1.86-7.68-5.46-9.58a15.48,15.48,0,0,0-7.21-2c-8.26,0-13.51,8.34-13.57,8.42l-.09.16-1.92,2.42-1.13,1.41-3-3.83-.11-.16c-.05-.09-5.22-8.42-13.55-8.42a15.48,15.48,0,0,0-7.22,2c-3.59,1.9-5.43,5.13-5.46,9.58-.06,9.7,9.12,25.19,29.38,36.74C230.19,377.09,230.62,376.85,231,376.59Zm24-48.21c15.2,8.07,5.4,35.59-25.31,52.37-30.71-16.78-40.51-44.3-25.32-52.37s24.72,7.54,24.72,7.54l.6.76.6-.76S239.89,320.32,255.08,328.38Z" />
  <path class="GUNDAN_LIZARD_JEWELRY_LIZARD_JEWELRY_4_cls-4" d="M255.08,328.38c-15.19-8.06-24.71,7.54-24.71,7.54l-.6.76-.6-.76s-9.51-15.6-24.72-7.54-5.39,35.59,25.32,52.37C260.48,364,270.28,336.45,255.08,328.38Z" />
  <path class="GUNDAN_LIZARD_JEWELRY_LIZARD_JEWELRY_4_cls-4" d="M231,376.59c-.42.26-.85.5-1.27.75-20.26-11.55-29.44-27-29.38-36.74,0-4.45,1.87-7.68,5.46-9.58a15.48,15.48,0,0,1,7.22-2c8.33,0,13.5,8.33,13.55,8.42l.11.16,3,3.83,1.13-1.41,1.92-2.42.09-.16c.06-.08,5.31-8.42,13.57-8.42a15.48,15.48,0,0,1,7.21,2c3.6,1.9,5.44,5.13,5.46,9.58C259.21,350.1,250.42,365.14,231,376.59Z" />
  <polyline class="GUNDAN_LIZARD_JEWELRY_LIZARD_JEWELRY_4_cls-4" points="230.9 340.06 232.66 345.36 228.2 350.9 230.42 355.36 223.49 367.29 232.04 373.32 231.04 376.59" />
  <path class="GUNDAN_LIZARD_JEWELRY_LIZARD_JEWELRY_4_cls-5" d="M223.49,356s-4.26,5.09-12.93,2.17c8.18,6.92,9.48,7.55,9.48,7.55Z" />
  <path class="GUNDAN_LIZARD_JEWELRY_LIZARD_JEWELRY_4_cls-3" d="M214.6,348.34a3.78,3.78,0,1,1,3.77-3.77A3.77,3.77,0,0,1,214.6,348.34Z" />
  <path class="GUNDAN_LIZARD_JEWELRY_LIZARD_JEWELRY_4_cls-6" d="M214.6,341.16a3.41,3.41,0,1,1-3.41,3.41,3.41,3.41,0,0,1,3.41-3.41m0-.73a4.14,4.14,0,1,0,4.14,4.14,4.15,4.15,0,0,0-4.14-4.14Z" />
  <path class="GUNDAN_LIZARD_JEWELRY_LIZARD_JEWELRY_4_cls-3" d="M214.6,348.1a3.53,3.53,0,1,1,3.53-3.53A3.54,3.54,0,0,1,214.6,348.1Z" />
  <path class="GUNDAN_LIZARD_JEWELRY_LIZARD_JEWELRY_4_cls-6" d="M214.6,341.4a3.17,3.17,0,1,1-3.17,3.17,3.17,3.17,0,0,1,3.17-3.17m0-.72a3.89,3.89,0,1,0,3.89,3.89,3.89,3.89,0,0,0-3.89-3.89Z" />
  <path class="GUNDAN_LIZARD_JEWELRY_LIZARD_JEWELRY_4_cls-3" d="M213.63,356.33a10.11,10.11,0,0,1-1.23-.17.36.36,0,0,1-.29-.42l.24-1.3a10.88,10.88,0,0,1-1.47-.46l-.54,1.21a.36.36,0,0,1-.33.22.32.32,0,0,1-.14,0,11.7,11.7,0,0,1-1.12-.56.34.34,0,0,1-.17-.22.39.39,0,0,1,0-.28l.66-1.15a10.24,10.24,0,0,1-1.25-.91l-.89,1a.36.36,0,0,1-.27.12.35.35,0,0,1-.25-.1,12.18,12.18,0,0,1-.87-.89.39.39,0,0,1-.09-.26.37.37,0,0,1,.12-.25l1-.88a9.9,9.9,0,0,1-.89-1.26l-1.16.63a.39.39,0,0,1-.18,0,.34.34,0,0,1-.31-.19,11.53,11.53,0,0,1-.54-1.12.34.34,0,0,1,0-.28.39.39,0,0,1,.2-.2l1.22-.5a9.71,9.71,0,0,1-.42-1.49l-1.31.22h-.06a.37.37,0,0,1-.21-.06.38.38,0,0,1-.15-.24c-.07-.41-.11-.83-.14-1.24a.39.39,0,0,1,.09-.26.33.33,0,0,1,.25-.12l1.32-.08v-.25a11.48,11.48,0,0,1,.08-1.3l-1.3-.21a.37.37,0,0,1-.3-.42c.07-.41.16-.82.27-1.22a.34.34,0,0,1,.17-.22.35.35,0,0,1,.18-.05l.09,0,1.28.35a10.07,10.07,0,0,1,.58-1.44l-1.17-.63a.36.36,0,0,1-.14-.49,9.72,9.72,0,0,1,.65-1.06.34.34,0,0,1,.3-.16.36.36,0,0,1,.2.06l1.1.75a10.08,10.08,0,0,1,1-1.17l-.9-1a.35.35,0,0,1,0-.51,9,9,0,0,1,1-.8.34.34,0,0,1,.22-.07.37.37,0,0,1,.29.14l.79,1.07a8.9,8.9,0,0,1,1.33-.78l-.53-1.21a.39.39,0,0,1,0-.28.41.41,0,0,1,.19-.2c.38-.17.78-.32,1.17-.45h.11a.33.33,0,0,1,.17,0,.37.37,0,0,1,.18.21l.4,1.26a10,10,0,0,1,1.52-.3l-.11-1.32a.35.35,0,0,1,.08-.26.34.34,0,0,1,.25-.13c.33,0,.66,0,1,0h.26a.36.36,0,0,1,.35.37l0,1.33a9.83,9.83,0,0,1,1.54.2l.32-1.28a.36.36,0,0,1,.35-.28h.09a11.74,11.74,0,0,1,1.19.37.37.37,0,0,1,.22.47l-.46,1.24a9.41,9.41,0,0,1,1.38.7l.73-1.12a.37.37,0,0,1,.3-.16.36.36,0,0,1,.2.06,9,9,0,0,1,1,.74.36.36,0,0,1,.13.24.35.35,0,0,1-.08.26l-.84,1a9.44,9.44,0,0,1,1.08,1.11l1-.82a.35.35,0,0,1,.22-.08h0a.38.38,0,0,1,.24.13c.25.33.5.67.72,1a.36.36,0,0,1,0,.27.41.41,0,0,1-.16.23l-1.13.7a8.89,8.89,0,0,1,.67,1.39l1.26-.43.11,0a.38.38,0,0,1,.35.24c.13.4.25.8.34,1.21a.36.36,0,0,1-.27.43l-1.29.3a10,10,0,0,1,.18,1.53H226a.37.37,0,0,1,.36.37c0,.43,0,.85-.06,1.27a.37.37,0,0,1-.36.32l-1.36-.14a8.89,8.89,0,0,1-.34,1.51l1.26.43a.35.35,0,0,1,.22.46,10.43,10.43,0,0,1-.47,1.16.36.36,0,0,1-.32.21.41.41,0,0,1-.16,0l-1.2-.57a9,9,0,0,1-.81,1.32l1,.82a.35.35,0,0,1,.06.5,10.53,10.53,0,0,1-.82.95.36.36,0,0,1-.26.11.35.35,0,0,1-.25-.1l-1-.92a10,10,0,0,1-1.19,1l.72,1.11a.34.34,0,0,1,.05.28.39.39,0,0,1-.15.23c-.35.22-.71.43-1.08.62a.35.35,0,0,1-.17,0,.36.36,0,0,1-.32-.19l-.61-1.18a10.42,10.42,0,0,1-1.44.55l.32,1.28a.32.32,0,0,1,0,.27.34.34,0,0,1-.22.17,12.16,12.16,0,0,1-1.23.24h-.05a.37.37,0,0,1-.36-.31l-.18-1.31a9.91,9.91,0,0,1-1.08.06h-.47L214,356a.37.37,0,0,1-.37.33Zm1-19.75a8,8,0,1,0,8,8A8,8,0,0,0,214.6,336.58Z" />
  <path class="GUNDAN_LIZARD_JEWELRY_LIZARD_JEWELRY_4_cls-6" d="M214.6,333.13h.25l0,1.68a10.32,10.32,0,0,1,2.17.29l.41-1.63a12,12,0,0,1,1.16.36l-.58,1.58a9.89,9.89,0,0,1,1.95,1l.92-1.41a9.87,9.87,0,0,1,1,.72l-1.06,1.3a10.26,10.26,0,0,1,1.53,1.56l1.32-1a9.81,9.81,0,0,1,.7,1l-1.43.89a9.38,9.38,0,0,1,.94,2l1.59-.55a9.75,9.75,0,0,1,.34,1.17l-1.64.37a9.78,9.78,0,0,1,.25,2.18H226a9.87,9.87,0,0,1-.07,1.22l-1.66-.18a10.08,10.08,0,0,1-.48,2.14l1.59.54a12.08,12.08,0,0,1-.45,1.13l-1.53-.72a9.64,9.64,0,0,1-1.14,1.87l1.33,1a11.71,11.71,0,0,1-.8.92l-1.21-1.17a10.18,10.18,0,0,1-1.68,1.39l.92,1.41a11,11,0,0,1-1.05.61l-.77-1.5a9.46,9.46,0,0,1-2,.78l.41,1.63a11.9,11.9,0,0,1-1.19.23l-.23-1.66a10.7,10.7,0,0,1-1.39.1c-.27,0-.54,0-.8,0l-.14,1.68c-.4,0-.8-.09-1.2-.16l.31-1.66a9.29,9.29,0,0,1-2.08-.64l-.68,1.54a11,11,0,0,1-1.08-.55l.83-1.46a10.07,10.07,0,0,1-1.76-1.29L206.86,353a11.63,11.63,0,0,1-.85-.87l1.27-1.11a10.13,10.13,0,0,1-1.26-1.79l-1.48.8c-.19-.35-.36-.72-.52-1.09l1.56-.64a9.3,9.3,0,0,1-.6-2.11l-1.66.28c-.07-.4-.11-.8-.14-1.2l1.68-.1c0-.2,0-.39,0-.59A10.47,10.47,0,0,1,205,343l-1.65-.27a9.71,9.71,0,0,1,.26-1.19l1.62.45a9.67,9.67,0,0,1,.81-2l-1.48-.8c.2-.35.41-.7.64-1l1.38.95A10.27,10.27,0,0,1,208,337.4l-1.15-1.24a11.67,11.67,0,0,1,.94-.77l1,1.35a9.62,9.62,0,0,1,1.89-1.1L210,334.1a11.91,11.91,0,0,1,1.13-.43l.51,1.6a9.63,9.63,0,0,1,2.15-.42l-.14-1.68c.32,0,.64,0,1,0m0,19.79a8.35,8.35,0,1,0-8.35-8.35,8.36,8.36,0,0,0,8.35,8.35m0-20.51c-.34,0-.68,0-1,0a.71.71,0,0,0-.49.25.7.7,0,0,0-.17.53l.08,1a8.74,8.74,0,0,0-.89.17l-.3-.93a.67.67,0,0,0-.35-.42.69.69,0,0,0-.34-.09.93.93,0,0,0-.22,0,11,11,0,0,0-1.2.46.71.71,0,0,0-.37.95l.39.9c-.26.14-.52.29-.78.46l-.58-.79a.74.74,0,0,0-.48-.29h-.1a.7.7,0,0,0-.44.14,12.65,12.65,0,0,0-1,.82.74.74,0,0,0,0,1l.67.72a7.56,7.56,0,0,0-.59.68l-.81-.56a.78.78,0,0,0-.41-.12.74.74,0,0,0-.6.31,11.12,11.12,0,0,0-.67,1.1.72.72,0,0,0,.29,1l.86.47q-.18.4-.33.84l-.95-.26a.63.63,0,0,0-.19,0,.71.71,0,0,0-.7.53,10.9,10.9,0,0,0-.28,1.26.73.73,0,0,0,.6.83l1,.16c0,.31,0,.61,0,.91l-1,0a.73.73,0,0,0-.68.77c0,.43.07.86.14,1.28a.75.75,0,0,0,.3.47.71.71,0,0,0,.42.14h.12l1-.17q.1.45.24.87l-.9.38a.73.73,0,0,0-.4.39.75.75,0,0,0,0,.55,12.55,12.55,0,0,0,.56,1.17.72.72,0,0,0,1,.29l.86-.47c.17.25.34.5.52.74l-.74.65a.72.72,0,0,0-.24.5.71.71,0,0,0,.18.52,11.15,11.15,0,0,0,.9.92.7.7,0,0,0,.49.19.72.72,0,0,0,.53-.23l.67-.73c.23.19.48.37.73.54l-.49.85a.71.71,0,0,0-.07.55.69.69,0,0,0,.34.44,12.37,12.37,0,0,0,1.15.58.72.72,0,0,0,.29.06.71.71,0,0,0,.66-.43l.4-.9c.28.1.57.19.86.27l-.18,1a.73.73,0,0,0,.58.85,11.05,11.05,0,0,0,1.27.17h.06a.73.73,0,0,0,.73-.66l.07-1h.14l.77,0,.13,1a.72.72,0,0,0,.29.48.68.68,0,0,0,.43.15h.1c.43-.06.86-.15,1.27-.25a.72.72,0,0,0,.52-.88l-.24-1c.29-.1.57-.2.85-.32l.45.87a.73.73,0,0,0,.64.4.76.76,0,0,0,.33-.08c.38-.2.76-.42,1.12-.65a.73.73,0,0,0,.21-1l-.54-.83q.36-.27.69-.57l.71.68a.74.74,0,0,0,.5.2h0a.68.68,0,0,0,.5-.22,11.13,11.13,0,0,0,.85-1,.75.75,0,0,0,.15-.54.77.77,0,0,0-.28-.48l-.77-.6c.16-.25.32-.51.47-.77l.89.41a.67.67,0,0,0,.31.07.71.71,0,0,0,.65-.42,12.39,12.39,0,0,0,.49-1.19.73.73,0,0,0-.45-.92l-.93-.32c.08-.29.14-.59.19-.88l1,.1H226a.7.7,0,0,0,.46-.16.73.73,0,0,0,.27-.49c0-.42.06-.86.06-1.29a.73.73,0,0,0-.72-.74h-1c0-.3-.06-.6-.11-.9l1-.22a.71.71,0,0,0,.54-.86,10.34,10.34,0,0,0-.35-1.24.7.7,0,0,0-.37-.42.71.71,0,0,0-.32-.07.59.59,0,0,0-.23,0l-.93.32c-.12-.28-.25-.55-.39-.82l.83-.52a.73.73,0,0,0,.23-1,10.51,10.51,0,0,0-.74-1.05.69.69,0,0,0-.48-.27h-.09a.69.69,0,0,0-.44.15l-.78.61c-.2-.22-.41-.44-.63-.64l.62-.77a.72.72,0,0,0,.16-.53.74.74,0,0,0-.26-.49c-.33-.27-.68-.52-1-.76a.8.8,0,0,0-.4-.11h-.15a.72.72,0,0,0-.46.32l-.53.82c-.27-.15-.54-.28-.81-.41l.34-.92a.73.73,0,0,0-.43-.93,12.72,12.72,0,0,0-1.24-.38l-.17,0a.71.71,0,0,0-.7.55l-.24.95-.9-.12,0-1a.72.72,0,0,0-.7-.74Zm0,19.78a7.63,7.63,0,1,1,7.63-7.62,7.64,7.64,0,0,1-7.63,7.62Z" />
  <path class="GUNDAN_LIZARD_JEWELRY_LIZARD_JEWELRY_4_cls-7" d="M248.37,341.89a2.35,2.35,0,1,1,2.35-2.35A2.35,2.35,0,0,1,248.37,341.89Z" />
  <path class="GUNDAN_LIZARD_JEWELRY_LIZARD_JEWELRY_4_cls-6" d="M248.37,337.38a2.16,2.16,0,1,1-2.16,2.16,2.16,2.16,0,0,1,2.16-2.16m0-.38a2.54,2.54,0,1,0,2.54,2.54,2.54,2.54,0,0,0-2.54-2.54Z" />
  <path class="GUNDAN_LIZARD_JEWELRY_LIZARD_JEWELRY_4_cls-7" d="M247.89,346.66l-.49,0a.23.23,0,0,1-.12-.08.23.23,0,0,1,0-.14l.06-.45a7.28,7.28,0,0,1-.92-.23l-.15.44a.2.2,0,0,1-.18.12H246a3.66,3.66,0,0,1-.46-.18.19.19,0,0,1-.1-.25l.18-.42a6.17,6.17,0,0,1-.82-.47l-.27.38a.2.2,0,0,1-.12.08h0a.2.2,0,0,1-.11,0l-.39-.3a.21.21,0,0,1-.07-.13.15.15,0,0,1,0-.13l.29-.36a7.06,7.06,0,0,1-.67-.67l-.36.29a.16.16,0,0,1-.12,0,.16.16,0,0,1-.14-.07c-.11-.12-.2-.26-.3-.39a.18.18,0,0,1,.05-.26l.37-.27a8.28,8.28,0,0,1-.47-.82l-.42.18-.07,0a.19.19,0,0,1-.17-.12,3.52,3.52,0,0,1-.18-.45.17.17,0,0,1,0-.14.18.18,0,0,1,.11-.1l.44-.16a5.9,5.9,0,0,1-.23-.92l-.48.06a.27.27,0,0,1-.12,0,.21.21,0,0,1-.07-.13c0-.16,0-.32-.05-.48a.18.18,0,0,1,.18-.2l.45,0c0-.1,0-.18,0-.26,0-.23,0-.46,0-.69l-.45-.06a.17.17,0,0,1-.13-.07.17.17,0,0,1,0-.14c0-.16,0-.32.08-.48a.19.19,0,0,1,.18-.15h0l.45.09a6.27,6.27,0,0,1,.29-.9l-.42-.19a.18.18,0,0,1-.1-.24,3.55,3.55,0,0,1,.21-.44.18.18,0,0,1,.16-.11l.09,0,.41.22a6.47,6.47,0,0,1,.52-.8l-.35-.29a.17.17,0,0,1-.07-.13.18.18,0,0,1,0-.14c.1-.12.21-.25.32-.36a.2.2,0,0,1,.14-.06.15.15,0,0,1,.12.05l.34.31a8.42,8.42,0,0,1,.72-.62l-.27-.38a.18.18,0,0,1,.05-.26,3.51,3.51,0,0,1,.4-.27.19.19,0,0,1,.1,0h0a.17.17,0,0,1,.12.08l.24.4a6.13,6.13,0,0,1,.86-.41l-.16-.44a.22.22,0,0,1,0-.14.16.16,0,0,1,.11-.1,4.11,4.11,0,0,1,.46-.15h0a.2.2,0,0,1,.19.14l.12.44a7.09,7.09,0,0,1,.94-.16l0-.46a.19.19,0,0,1,.05-.13.17.17,0,0,1,.13-.07l.49,0a.2.2,0,0,1,.19.19v.46a7.3,7.3,0,0,1,.94.09l.1-.44a.17.17,0,0,1,.18-.15h0l.47.11a.27.27,0,0,1,.12.09.19.19,0,0,1,0,.15l-.12.44a5.67,5.67,0,0,1,.89.35l.21-.41a.18.18,0,0,1,.11-.1h.06a.11.11,0,0,1,.08,0,3.62,3.62,0,0,1,.43.24.17.17,0,0,1,.06.25l-.24.4a6.1,6.1,0,0,1,.76.58l.32-.34a.16.16,0,0,1,.13-.06.15.15,0,0,1,.13.05c.12.11.24.22.35.34a.24.24,0,0,1,0,.13.2.2,0,0,1-.06.14l-.34.31a7.25,7.25,0,0,1,.58.76l.39-.24a.19.19,0,0,1,.1,0,.18.18,0,0,1,.16.09,4.49,4.49,0,0,1,.24.42.16.16,0,0,1,0,.15.14.14,0,0,1-.09.11l-.41.21a5.56,5.56,0,0,1,.35.88l.45-.12h.05l.09,0a.14.14,0,0,1,.09.11l.12.47a.21.21,0,0,1-.15.23l-.45.09a6,6,0,0,1,.1.95h.46a.21.21,0,0,1,.19.19c0,.18,0,.35,0,.51a.18.18,0,0,1-.19.17l-.47,0a5.77,5.77,0,0,1-.16.94l.44.12a.2.2,0,0,1,.13.24c0,.15-.09.31-.14.46a.19.19,0,0,1-.18.13h-.06l-.44-.16a5.64,5.64,0,0,1-.41.86l.4.24a.2.2,0,0,1,.08.12.17.17,0,0,1,0,.14c-.08.14-.18.28-.27.41a.2.2,0,0,1-.12.08h0a.15.15,0,0,1-.11,0l-.38-.26a7,7,0,0,1-.62.71l.31.34a.19.19,0,0,1,.05.14.18.18,0,0,1-.06.13l-.36.32a.19.19,0,0,1-.12,0h0a.21.21,0,0,1-.13-.07l-.29-.35a7.18,7.18,0,0,1-.79.52l.21.4a.2.2,0,0,1,0,.15.17.17,0,0,1-.09.11l-.44.21h-.15a.19.19,0,0,1-.1-.1l-.18-.42a6.39,6.39,0,0,1-.91.29l.09.45a.18.18,0,0,1-.14.22l-.49.08h0a.19.19,0,0,1-.19-.16l-.06-.45c-.23,0-.46,0-.7,0h-.25l0,.46a.19.19,0,0,1-.19.17Zm.48-12.15a5,5,0,1,0,5,5A5,5,0,0,0,248.37,334.51Z" />
  <path class="GUNDAN_LIZARD_JEWELRY_LIZARD_JEWELRY_4_cls-6" d="M248.36,332.59v.64h0a6.59,6.59,0,0,1,1.27.13l.13-.63c.15,0,.31.07.46.12l-.17.62a6.23,6.23,0,0,1,1.2.47l.3-.58.41.24-.34.55a6.64,6.64,0,0,1,1,.78l.44-.48.34.34-.47.44a7.15,7.15,0,0,1,.78,1l.55-.34c.08.13.16.27.23.41l-.57.3a6.26,6.26,0,0,1,.48,1.2l.62-.18c0,.15.08.31.11.46l-.63.13a6.14,6.14,0,0,1,.14,1.29h.64v0c0,.16,0,.32,0,.48l-.64,0a6.61,6.61,0,0,1-.22,1.27l.62.18c0,.15-.09.3-.14.45l-.61-.22a5.91,5.91,0,0,1-.56,1.16l.56.34c-.08.14-.17.27-.26.4l-.53-.37a7.12,7.12,0,0,1-.85,1l.44.47c-.11.11-.23.21-.35.31l-.41-.5a6.11,6.11,0,0,1-1.08.71l.3.57-.43.21-.26-.6a5.81,5.81,0,0,1-1.22.4l.13.63-.47.08-.09-.65a6.11,6.11,0,0,1-.86.07l-.43,0,0,.65-.47-.05.09-.64a6.63,6.63,0,0,1-1.26-.31l-.21.61-.44-.17.25-.59a6.5,6.5,0,0,1-1.12-.64l-.37.53-.38-.29.41-.5a6.09,6.09,0,0,1-.92-.91l-.5.41c-.1-.12-.19-.25-.28-.38l.52-.37a6.45,6.45,0,0,1-.63-1.12l-.59.26-.18-.44.61-.22a6.51,6.51,0,0,1-.3-1.25l-.64.09c0-.16,0-.32-.05-.48l.64,0c0-.15,0-.29,0-.44a6,6,0,0,1,.07-.85l-.65-.08c0-.16.05-.32.08-.47l.63.13a6.3,6.3,0,0,1,.39-1.23l-.59-.26a4.25,4.25,0,0,1,.21-.43l.57.3a5.92,5.92,0,0,1,.71-1.08l-.51-.41c.1-.12.21-.24.32-.35l.47.44a6,6,0,0,1,1-.85l-.38-.53.4-.26.34.55a5.88,5.88,0,0,1,1.16-.55L246,333a4,4,0,0,1,.45-.15l.18.62a6.6,6.6,0,0,1,1.27-.21l-.05-.65.48,0m0,12.18a5.23,5.23,0,1,0-5.22-5.23,5.23,5.23,0,0,0,5.22,5.23m0-12.55h-.5a.38.38,0,0,0-.35.41l0,.28a6,6,0,0,0-.61.1l-.07-.27a.38.38,0,0,0-.18-.23.41.41,0,0,0-.19,0l-.1,0a4.42,4.42,0,0,0-.48.15.38.38,0,0,0-.22.48l.09.27-.55.26-.15-.24a.4.4,0,0,0-.23-.17h-.09a.36.36,0,0,0-.2.06c-.14.08-.28.18-.41.27a.38.38,0,0,0-.09.53l.16.23a5.72,5.72,0,0,0-.46.4l-.21-.19a.35.35,0,0,0-.25-.1.36.36,0,0,0-.28.12l-.33.37a.38.38,0,0,0,.06.54l.21.17a5.69,5.69,0,0,0-.33.52l-.25-.13a.37.37,0,0,0-.17,0l-.12,0a.41.41,0,0,0-.22.19,4.54,4.54,0,0,0-.21.45.38.38,0,0,0,.19.5l.26.11a4.36,4.36,0,0,0-.19.58l-.27-.05h-.08a.36.36,0,0,0-.2.06.37.37,0,0,0-.17.24c0,.16-.06.33-.08.49a.38.38,0,0,0,.32.43l.28,0a4.67,4.67,0,0,0,0,.52.28.28,0,0,0,0,.09l-.28,0a.35.35,0,0,0-.26.13.37.37,0,0,0-.09.27c0,.17,0,.33.05.5a.38.38,0,0,0,.38.32h0l.28,0c0,.2.08.4.14.6l-.26.09a.38.38,0,0,0-.22.19.37.37,0,0,0,0,.29c.05.16.12.32.18.47a.41.41,0,0,0,.21.2.32.32,0,0,0,.14,0l.15,0,.25-.11c.1.18.2.36.31.53l-.23.17a.37.37,0,0,0-.09.52c.09.14.2.27.3.4a.38.38,0,0,0,.26.14h0a.36.36,0,0,0,.24-.09l.22-.17a5.81,5.81,0,0,0,.43.43l-.17.22a.33.33,0,0,0-.09.27.4.4,0,0,0,.14.26l.4.3a.34.34,0,0,0,.22.07h.06a.33.33,0,0,0,.24-.15l.17-.23a5.54,5.54,0,0,0,.53.3l-.11.26a.38.38,0,0,0,.2.5l.46.18.13,0a.38.38,0,0,0,.35-.25l.1-.27a5.66,5.66,0,0,0,.59.15l0,.28a.37.37,0,0,0,.32.42l.5.05h0a.37.37,0,0,0,.38-.35l0-.27h.07l.54,0,0,.28a.35.35,0,0,0,.14.25.39.39,0,0,0,.23.07h.05l.49-.08a.35.35,0,0,0,.24-.17.35.35,0,0,0,.06-.28l-.06-.27c.2-.05.39-.12.59-.19l.11.26a.39.39,0,0,0,.2.2l.14,0,.15,0,.45-.21a.37.37,0,0,0,.16-.51l-.12-.25c.17-.1.34-.22.51-.34l.17.22a.4.4,0,0,0,.26.14h0a.38.38,0,0,0,.24-.09l.37-.32a.39.39,0,0,0,0-.54l-.19-.2c.14-.15.27-.31.4-.46l.23.16a.44.44,0,0,0,.22.07.4.4,0,0,0,.31-.16l.27-.42a.38.38,0,0,0-.13-.52l-.24-.15a5.6,5.6,0,0,0,.27-.55l.26.09a.31.31,0,0,0,.13,0,.42.42,0,0,0,.16,0,.4.4,0,0,0,.2-.22l.15-.47a.42.42,0,0,0,0-.29.39.39,0,0,0-.22-.18l-.27-.07c0-.2.07-.4.1-.61l.28,0h0a.37.37,0,0,0,.38-.35c0-.16,0-.33,0-.5a.39.39,0,0,0-.11-.27.36.36,0,0,0-.27-.12H255a6,6,0,0,0-.06-.61l.27-.06a.38.38,0,0,0,.29-.45,4.21,4.21,0,0,0-.12-.48.37.37,0,0,0-.36-.28l-.1,0-.27.07c-.07-.19-.15-.38-.23-.57l.25-.12a.38.38,0,0,0,.16-.51c-.08-.15-.16-.3-.25-.44a.36.36,0,0,0-.32-.18.39.39,0,0,0-.2.06l-.24.14a5.58,5.58,0,0,0-.37-.48l.21-.2a.4.4,0,0,0,.12-.26.43.43,0,0,0-.1-.27l-.36-.35a.38.38,0,0,0-.53,0l-.2.2c-.15-.13-.32-.25-.48-.37l.14-.24a.35.35,0,0,0,.05-.28.46.46,0,0,0-.17-.24l-.44-.24a.39.39,0,0,0-.51.16l-.13.25a4.82,4.82,0,0,0-.57-.22l.08-.27a.4.4,0,0,0-.27-.47l-.48-.12h-.08a.37.37,0,0,0-.37.3l-.05.27-.61-.06v-.28a.36.36,0,0,0-.37-.37Zm0,12.17a4.85,4.85,0,1,1,4.85-4.85,4.86,4.86,0,0,1-4.85,4.85Z" />
  <path class="GUNDAN_LIZARD_JEWELRY_LIZARD_JEWELRY_4_cls-7" d="M240,353.1a2.35,2.35,0,1,1,2.35-2.35A2.35,2.35,0,0,1,240,353.1Z" />
  <path class="GUNDAN_LIZARD_JEWELRY_LIZARD_JEWELRY_4_cls-6" d="M240,348.59a2.16,2.16,0,1,1-2.16,2.16,2.17,2.17,0,0,1,2.16-2.16m0-.38a2.54,2.54,0,1,0,2.54,2.54,2.54,2.54,0,0,0-2.54-2.54Z" />
  <path class="GUNDAN_LIZARD_JEWELRY_LIZARD_JEWELRY_4_cls-7" d="M239.48,357.87l-.48-.05a.17.17,0,0,1-.13-.07.17.17,0,0,1,0-.14l.06-.46a6.27,6.27,0,0,1-.93-.22l-.15.44a.19.19,0,0,1-.1.1l-.08,0h-.06a4.37,4.37,0,0,1-.46-.18.24.24,0,0,1-.1-.1.2.2,0,0,1,0-.15l.18-.42a6.27,6.27,0,0,1-.83-.47l-.27.38a.18.18,0,0,1-.15.08.15.15,0,0,1-.11,0l-.39-.29a.19.19,0,0,1,0-.27l.28-.35a8.47,8.47,0,0,1-.67-.67l-.35.29a.28.28,0,0,1-.12,0h0a.21.21,0,0,1-.13-.07l-.29-.39a.19.19,0,0,1,0-.26l.38-.27a5.59,5.59,0,0,1-.47-.82l-.42.18h-.15a.19.19,0,0,1-.1-.1,4.22,4.22,0,0,1-.18-.45.14.14,0,0,1,0-.14.16.16,0,0,1,.1-.1l.44-.16a5.9,5.9,0,0,1-.23-.92l-.48.06a.19.19,0,0,1-.19-.16c0-.16,0-.32,0-.48A.2.2,0,0,1,233,351l.46,0a2.26,2.26,0,0,1,0-.26,5.32,5.32,0,0,1,0-.69l-.46-.06a.19.19,0,0,1-.16-.21c0-.16.05-.32.08-.48a.2.2,0,0,1,.08-.12.2.2,0,0,1,.11,0h0l.45.09a5.89,5.89,0,0,1,.29-.9l-.42-.19a.17.17,0,0,1-.1-.1.2.2,0,0,1,0-.15l.21-.44a.19.19,0,0,1,.17-.1l.09,0,.4.22a7.32,7.32,0,0,1,.52-.8l-.35-.29a.21.21,0,0,1-.07-.13.18.18,0,0,1,0-.14c.1-.12.21-.25.32-.36a.2.2,0,0,1,.14-.06.17.17,0,0,1,.13.05l.34.31a5.17,5.17,0,0,1,.71-.62l-.27-.38a.2.2,0,0,1,.05-.27l.4-.26.1,0h0a.2.2,0,0,1,.11.09l.25.4a5.54,5.54,0,0,1,.85-.41l-.15-.44a.18.18,0,0,1,.11-.24,3.68,3.68,0,0,1,.47-.15h.05l.09,0a.2.2,0,0,1,.09.11l.12.44a7.38,7.38,0,0,1,.94-.16l0-.46a.19.19,0,0,1,.17-.2l.49,0a.19.19,0,0,1,.19.19v.46a6,6,0,0,1,1,.09l.09-.44a.2.2,0,0,1,.18-.16h0l.48.11a.19.19,0,0,1,.13.23l-.13.45a5.31,5.31,0,0,1,.89.35l.21-.41a.2.2,0,0,1,.17-.11.16.16,0,0,1,.09,0l.42.23a.27.27,0,0,1,.09.12.17.17,0,0,1,0,.14l-.24.4a6.28,6.28,0,0,1,.76.57l.32-.34a.26.26,0,0,1,.13-.06h0a.19.19,0,0,1,.13.06l.34.34a.19.19,0,0,1,0,.27l-.34.31a7.25,7.25,0,0,1,.58.76l.4-.24a.16.16,0,0,1,.09,0h.05a.27.27,0,0,1,.12.09c.08.14.16.28.23.42a.2.2,0,0,1,0,.15.26.26,0,0,1-.1.11l-.4.21a8.48,8.48,0,0,1,.35.88l.44-.12h.05l.09,0a.18.18,0,0,1,.09.12,3.59,3.59,0,0,1,.12.47.18.18,0,0,1-.15.22l-.44.1a7.46,7.46,0,0,1,.1.95h.45a.2.2,0,0,1,.14.06.19.19,0,0,1,0,.13c0,.18,0,.35,0,.51a.24.24,0,0,1-.07.13.17.17,0,0,1-.12,0l-.48,0a6,6,0,0,1-.16.94l.45.12a.2.2,0,0,1,.13.24,4.11,4.11,0,0,1-.15.46.19.19,0,0,1-.18.13l-.06,0-.44-.15a6.13,6.13,0,0,1-.41.86l.4.24a.27.27,0,0,1,.09.12.17.17,0,0,1,0,.14c-.08.14-.17.28-.26.41a.22.22,0,0,1-.13.08h0a.15.15,0,0,1-.11,0l-.38-.26a5.17,5.17,0,0,1-.62.71l.31.34a.19.19,0,0,1,0,.27l-.37.32a.25.25,0,0,1-.12,0h0a.24.24,0,0,1-.13-.07l-.29-.36a7.25,7.25,0,0,1-.79.53l.21.4a.2.2,0,0,1,0,.15.17.17,0,0,1-.09.11l-.44.21h-.07a.19.19,0,0,1-.18-.11l-.18-.42a6,6,0,0,1-.91.29l.1.45a.19.19,0,0,1-.15.22l-.48.08h0a.2.2,0,0,1-.11,0,.17.17,0,0,1-.07-.13l-.07-.45c-.23,0-.46,0-.7,0h-.25l0,.46a.18.18,0,0,1-.06.13.2.2,0,0,1-.13,0Zm.48-12.15a5,5,0,1,0,5,5A5,5,0,0,0,240,345.72Z" />
  <path class="GUNDAN_LIZARD_JEWELRY_LIZARD_JEWELRY_4_cls-6" d="M240,343.8v.64h0a6.78,6.78,0,0,1,1.28.13l.12-.63.46.11-.17.63a5.65,5.65,0,0,1,1.2.47l.3-.58c.14.08.28.15.41.24l-.33.55a6.55,6.55,0,0,1,1,.78l.45-.48c.11.11.23.22.33.34l-.47.44a7.15,7.15,0,0,1,.78,1l.55-.34c.09.13.16.27.24.41l-.58.3A6.26,6.26,0,0,1,246,349l.62-.18.12.46-.63.13a6.86,6.86,0,0,1,.13,1.28h.64v0c0,.16,0,.32,0,.47l-.65,0a5.92,5.92,0,0,1-.22,1.27l.63.17c0,.16-.09.31-.15.46l-.61-.22a5.88,5.88,0,0,1-.55,1.16l.55.34c-.08.14-.17.27-.26.4l-.53-.38a5.63,5.63,0,0,1-.85,1l.45.48-.36.31-.41-.5a6.41,6.41,0,0,1-1.07.71l.29.57-.42.2-.26-.59a6.32,6.32,0,0,1-1.23.4l.13.62c-.15,0-.31.06-.47.09l-.08-.65a6.25,6.25,0,0,1-.87.07l-.42,0,0,.64-.47,0,.09-.64a6.53,6.53,0,0,1-1.25-.31l-.22.61-.44-.17.26-.59a6.59,6.59,0,0,1-1.13-.64l-.37.53-.38-.29.41-.5a5.6,5.6,0,0,1-.91-.91l-.5.41c-.1-.12-.2-.25-.29-.38l.53-.37a6.5,6.5,0,0,1-.64-1.12l-.59.26c-.06-.15-.12-.3-.17-.44l.61-.22a5.86,5.86,0,0,1-.31-1.25l-.64.08c0-.15,0-.31-.05-.47l.65,0c0-.15,0-.29,0-.44a6,6,0,0,1,.07-.85l-.64-.09c0-.15,0-.31.08-.46l.62.13a6.32,6.32,0,0,1,.4-1.23l-.6-.26.21-.43.57.3a6.11,6.11,0,0,1,.71-1.08l-.5-.41.31-.36.47.45a6.49,6.49,0,0,1,1-.85l-.37-.53.39-.26.34.55a6.16,6.16,0,0,1,1.16-.55l-.22-.61a4.11,4.11,0,0,1,.46-.15l.17.62a6.61,6.61,0,0,1,1.27-.22l0-.64.47,0M240,356a5.22,5.22,0,1,0-5.22-5.22A5.23,5.23,0,0,0,240,356m0-12.55h0l-.5,0a.43.43,0,0,0-.26.13.38.38,0,0,0-.09.27l0,.28a5.78,5.78,0,0,0-.6.11l-.08-.27a.38.38,0,0,0-.18-.23.41.41,0,0,0-.18-.05l-.11,0a3.68,3.68,0,0,0-.47.15.38.38,0,0,0-.23.48l.09.27-.55.26-.14-.24a.41.41,0,0,0-.24-.17h-.09a.33.33,0,0,0-.19.06l-.42.27a.38.38,0,0,0-.09.53l.16.23a5.72,5.72,0,0,0-.46.4l-.2-.19a.39.39,0,0,0-.26-.1.39.39,0,0,0-.28.12l-.33.37a.4.4,0,0,0-.08.28.4.4,0,0,0,.14.26l.22.17-.34.51-.25-.12a.34.34,0,0,0-.17-.05l-.12,0a.41.41,0,0,0-.22.19c-.07.15-.15.3-.21.45a.39.39,0,0,0,.19.5l.26.11c-.07.19-.14.39-.19.58l-.27,0h-.07a.37.37,0,0,0-.21.06.4.4,0,0,0-.16.24c0,.16-.06.33-.09.49a.39.39,0,0,0,.33.43l.27,0c0,.18,0,.35,0,.52v.09l-.27,0a.33.33,0,0,0-.26.13.38.38,0,0,0-.1.27c0,.17,0,.33.06.5a.36.36,0,0,0,.37.32h0l.28,0q.06.3.15.6l-.27.09a.36.36,0,0,0-.21.19.37.37,0,0,0,0,.29c.06.16.12.32.19.47a.39.39,0,0,0,.2.2.34.34,0,0,0,.14,0l.15,0,.26-.11a5.54,5.54,0,0,0,.3.53l-.23.16a.38.38,0,0,0-.09.53l.3.4a.4.4,0,0,0,.26.14h0a.38.38,0,0,0,.24-.09l.21-.17c.14.15.28.29.43.43l-.17.22a.36.36,0,0,0-.08.27.43.43,0,0,0,.13.26l.4.3a.44.44,0,0,0,.22.07H236a.37.37,0,0,0,.25-.15l.16-.23a5.54,5.54,0,0,0,.53.3l-.11.26a.37.37,0,0,0,.2.49l.47.19.12,0a.29.29,0,0,0,.16,0,.41.41,0,0,0,.2-.21l.09-.27.6.15,0,.28a.38.38,0,0,0,.32.42l.5.05h0a.37.37,0,0,0,.25-.09.38.38,0,0,0,.13-.26l0-.27H240l.54,0,0,.28a.38.38,0,0,0,.37.32H241a4,4,0,0,0,.5-.09.38.38,0,0,0,.29-.44l-.06-.27a5.8,5.8,0,0,0,.59-.19l.11.26a.37.37,0,0,0,.35.22l.15,0,.45-.21a.39.39,0,0,0,.16-.51l-.13-.25c.18-.11.35-.22.51-.34l.18.22a.37.37,0,0,0,.29.14.38.38,0,0,0,.24-.09,3.8,3.8,0,0,0,.37-.33.36.36,0,0,0,0-.53l-.19-.2a5.85,5.85,0,0,0,.4-.47l.23.17a.44.44,0,0,0,.22.07h.06A.41.41,0,0,0,246,355a4.94,4.94,0,0,0,.27-.42.37.37,0,0,0-.12-.52l-.24-.15c.09-.18.18-.36.26-.55l.27.09a.25.25,0,0,0,.12,0,.51.51,0,0,0,.17,0,.35.35,0,0,0,.19-.22c0-.15.11-.31.15-.47a.37.37,0,0,0,0-.29.41.41,0,0,0-.23-.18l-.27-.07a6,6,0,0,0,.1-.61l.28,0h0a.38.38,0,0,0,.25-.09.37.37,0,0,0,.12-.26c0-.17,0-.33,0-.5a.43.43,0,0,0-.11-.28.39.39,0,0,0-.27-.11h-.27a6,6,0,0,0-.07-.61l.27-.06a.37.37,0,0,0,.29-.45c0-.16-.07-.32-.11-.48a.38.38,0,0,0-.37-.28l-.1,0-.27.07c-.07-.19-.14-.38-.23-.57l.25-.13a.36.36,0,0,0,.16-.5c-.07-.15-.16-.3-.24-.44a.39.39,0,0,0-.33-.18.35.35,0,0,0-.19.06l-.24.14c-.12-.17-.24-.33-.37-.48l.2-.2a.38.38,0,0,0,0-.53c-.12-.12-.23-.24-.36-.35a.35.35,0,0,0-.25-.1.38.38,0,0,0-.28.12l-.19.2-.49-.37.15-.24a.39.39,0,0,0,0-.28.35.35,0,0,0-.17-.24c-.14-.08-.29-.17-.44-.24a.33.33,0,0,0-.17,0,.38.38,0,0,0-.34.2l-.12.25a5.77,5.77,0,0,0-.58-.22l.08-.27a.38.38,0,0,0-.26-.47l-.49-.12h-.08a.36.36,0,0,0-.2.06.35.35,0,0,0-.17.24l-.05.27-.61-.07v-.27a.38.38,0,0,0-.38-.38Zm0,12.18a4.85,4.85,0,1,1,4.85-4.85A4.85,4.85,0,0,1,240,355.6Z" />
  <circle class="GUNDAN_LIZARD_JEWELRY_LIZARD_JEWELRY_4_cls-7" cx="242.12" cy="362.13" r="1.35" />
  <path class="GUNDAN_LIZARD_JEWELRY_LIZARD_JEWELRY_4_cls-6" d="M242.12,360.88a1.25,1.25,0,1,1-1.24,1.25,1.24,1.24,0,0,1,1.24-1.25m0-.21a1.46,1.46,0,1,0,1.46,1.46,1.46,1.46,0,0,0-1.46-1.46Z" />
  <path class="GUNDAN_LIZARD_JEWELRY_LIZARD_JEWELRY_4_cls-7" d="M241.84,366.22l-.28,0a.12.12,0,0,1-.09-.13l0-.26a3.16,3.16,0,0,1-.53-.13l-.09.25a.11.11,0,0,1-.11.07h0l-.26-.1a.12.12,0,0,1-.06-.15l.11-.24-.48-.27-.15.22a.12.12,0,0,1-.09,0,.1.1,0,0,1-.07,0l-.22-.17a.11.11,0,0,1,0-.15l.16-.2a4.78,4.78,0,0,1-.39-.39l-.2.17-.07,0a.09.09,0,0,1-.08,0l-.17-.22a.11.11,0,0,1,0-.15l.22-.16a4.39,4.39,0,0,1-.27-.47l-.24.1h-.08a.12.12,0,0,1-.06-.06l-.11-.26a.1.1,0,0,1,0-.09.1.1,0,0,1,.06-.05l.25-.09a3.16,3.16,0,0,1-.13-.53l-.28,0a.07.07,0,0,1-.06,0s0,0,0-.07a2.46,2.46,0,0,1,0-.28.1.1,0,0,1,.1-.11l.26,0c0-.06,0-.1,0-.15a2.6,2.6,0,0,1,0-.4l-.26,0a.12.12,0,0,1-.1-.12,2.33,2.33,0,0,1,0-.28.11.11,0,0,1,.11-.09l.27.06a5.43,5.43,0,0,1,.17-.53l-.24-.1a.09.09,0,0,1-.06-.06.11.11,0,0,1,0-.08l.12-.26a.13.13,0,0,1,.1-.06l.05,0,.23.12a3.64,3.64,0,0,1,.3-.46l-.2-.17a.11.11,0,0,1,0-.15l.19-.21.07,0h0a.11.11,0,0,1,.07,0l.2.19a2.3,2.3,0,0,1,.41-.36l-.16-.22a.11.11,0,0,1,0-.15,1.88,1.88,0,0,1,.23-.16H240a.12.12,0,0,1,.09.05l.14.23a4.44,4.44,0,0,1,.49-.24l-.09-.25a.08.08,0,0,1,0-.08.09.09,0,0,1,.06-.06l.27-.08h0a.11.11,0,0,1,.1.08l.07.26a3.41,3.41,0,0,1,.54-.1l0-.26a.11.11,0,0,1,0-.08.1.1,0,0,1,.07,0h.28a.11.11,0,0,1,.11.11v.26a4.87,4.87,0,0,1,.55.06l0-.26s0-.05.05-.07l.06,0h0l.27.06a.12.12,0,0,1,.08.14l-.08.25a4.65,4.65,0,0,1,.52.2l.12-.23a.1.1,0,0,1,.09-.06H244l.25.14a.09.09,0,0,1,0,.14l-.13.23a3.5,3.5,0,0,1,.43.33l.18-.19a.12.12,0,0,1,.08,0h0a.11.11,0,0,1,.08,0l.19.2a.08.08,0,0,1,0,.08.09.09,0,0,1,0,.07l-.19.19a4.87,4.87,0,0,1,.33.43l.23-.14h.08s.05,0,.06.05.1.16.14.24a.11.11,0,0,1,0,.15l-.24.12a2.85,2.85,0,0,1,.2.51l.26-.07h0a.1.1,0,0,1,.1.08,2.68,2.68,0,0,1,.07.27.08.08,0,0,1,0,.08.07.07,0,0,1-.06.05l-.26,0a5.14,5.14,0,0,1,.06.55h.26a.09.09,0,0,1,.07,0,.12.12,0,0,1,0,.08c0,.1,0,.19,0,.29a.16.16,0,0,1,0,.07.11.11,0,0,1-.07,0l-.27,0a3.41,3.41,0,0,1-.1.54l.26.07a.18.18,0,0,1,.07,0,.14.14,0,0,1,0,.09,2.58,2.58,0,0,1-.08.26.1.1,0,0,1-.1.07h0l-.25-.09a3.17,3.17,0,0,1-.24.49l.23.14a.11.11,0,0,1,0,.15l-.15.24a.12.12,0,0,1-.09,0,.08.08,0,0,1-.07,0l-.21-.15a4.59,4.59,0,0,1-.36.41l.18.19a.11.11,0,0,1,0,.16l-.21.18a.09.09,0,0,1-.07,0,.12.12,0,0,1-.08,0l-.17-.21a3.52,3.52,0,0,1-.45.3l.12.24a.11.11,0,0,1-.05.14,1.42,1.42,0,0,1-.25.12h-.09l-.06-.05-.1-.24a3.45,3.45,0,0,1-.52.16l0,.26a.11.11,0,0,1-.08.13l-.29.05a.09.09,0,0,1-.07,0,.08.08,0,0,1,0-.07l0-.26a2.6,2.6,0,0,1-.4,0H242l0,.26a.1.1,0,0,1-.11.1Zm.28-7a2.9,2.9,0,1,0,2.9,2.9A2.9,2.9,0,0,0,242.12,359.23Z" />
  <path class="GUNDAN_LIZARD_JEWELRY_LIZARD_JEWELRY_4_cls-6" d="M242.11,358.13v.37h0a3.48,3.48,0,0,1,.73.07l.08-.36.26.07-.1.35a3.44,3.44,0,0,1,.69.28l.17-.34.24.14L244,359a3.68,3.68,0,0,1,.59.45l.25-.28.2.19-.28.26a3.68,3.68,0,0,1,.45.59l.32-.2.14.24-.33.17a4.12,4.12,0,0,1,.27.69l.36-.1.06.27-.36.07a3.65,3.65,0,0,1,.08.74h.37c0,.09,0,.18,0,.27l-.37,0a3.6,3.6,0,0,1-.13.73l.36.1c0,.08-.05.17-.08.26l-.35-.13a3.76,3.76,0,0,1-.32.67l.32.19-.15.23-.31-.21a3.71,3.71,0,0,1-.49.56l.26.27-.21.18-.23-.29a3.7,3.7,0,0,1-.62.41l.17.33-.25.11-.14-.34a3.47,3.47,0,0,1-.71.23l.08.36-.27,0,0-.37a4.21,4.21,0,0,1-.5,0l-.24,0,0,.38-.27,0,0-.37a2.92,2.92,0,0,1-.72-.18l-.13.36-.25-.1.15-.34a3.77,3.77,0,0,1-.65-.37l-.21.3-.22-.16.23-.29a3.65,3.65,0,0,1-.52-.52l-.29.23-.16-.21.3-.22a4,4,0,0,1-.36-.64l-.34.14a1.86,1.86,0,0,1-.1-.25l.35-.12a3,3,0,0,1-.18-.72l-.37.05,0-.27.37,0c0-.08,0-.17,0-.25a3.89,3.89,0,0,1,0-.49l-.37-.05a2.56,2.56,0,0,1,.05-.27l.36.07a3.35,3.35,0,0,1,.22-.7l-.34-.15.12-.25.33.17a3.65,3.65,0,0,1,.4-.62l-.28-.23a1.68,1.68,0,0,1,.18-.21l.27.26a3.28,3.28,0,0,1,.56-.49l-.22-.3a1.14,1.14,0,0,1,.23-.15l.19.31a5.16,5.16,0,0,1,.67-.32l-.12-.35.26-.08.1.36a3.37,3.37,0,0,1,.73-.13l0-.37h.27m0,7a3,3,0,1,0-3-3,3,3,0,0,0,3,3m0-7.22h-.28a.2.2,0,0,0-.15.08.23.23,0,0,0-.06.16l0,.16a2,2,0,0,0-.35.06l0-.16a.21.21,0,0,0-.1-.13.19.19,0,0,0-.1,0H241l-.28.09a.22.22,0,0,0-.13.28l.06.15a3.13,3.13,0,0,0-.32.15l-.09-.14a.22.22,0,0,0-.13-.1H240a.2.2,0,0,0-.11,0,1.43,1.43,0,0,0-.24.16.21.21,0,0,0-.06.3l.1.13c-.09.08-.18.15-.27.24l-.12-.12a.24.24,0,0,0-.14-.05.2.2,0,0,0-.16.07l-.19.21a.19.19,0,0,0,0,.16.28.28,0,0,0,.08.15l.12.1-.19.29-.14-.07a.18.18,0,0,0-.1,0h-.07a.17.17,0,0,0-.12.1l-.13.26a.22.22,0,0,0,.12.29l.14.06c0,.11-.08.23-.11.34l-.15,0h0a.22.22,0,0,0-.22.18c0,.09,0,.19-.05.28a.22.22,0,0,0,.19.24l.16,0c0,.1,0,.2,0,.3v.05h-.16a.21.21,0,0,0-.15.07.19.19,0,0,0-.05.16,1.43,1.43,0,0,0,0,.29.21.21,0,0,0,.21.18h0l.16,0c0,.11.05.23.08.34l-.15.06a.22.22,0,0,0-.12.11.18.18,0,0,0,0,.16c0,.09.07.18.11.27a.2.2,0,0,0,.12.12h.08a.12.12,0,0,0,.08,0l.15-.06a2.91,2.91,0,0,0,.17.3l-.13.1a.19.19,0,0,0-.09.14.23.23,0,0,0,0,.16,2,2,0,0,0,.17.23.28.28,0,0,0,.15.08h0a.24.24,0,0,0,.14-.05l.12-.1.25.25-.1.12a.3.3,0,0,0-.05.16.28.28,0,0,0,.08.15l.23.17a.2.2,0,0,0,.13,0h0a.19.19,0,0,0,.14-.09l.1-.13.3.17-.06.15a.21.21,0,0,0,.11.28l.27.11h.07A.22.22,0,0,0,241,366l0-.15.35.08,0,.16a.22.22,0,0,0,.19.24,1.36,1.36,0,0,0,.29,0h0a.23.23,0,0,0,.22-.2V366h.35l0,.16a.22.22,0,0,0,.22.18h0l.28-.05a.21.21,0,0,0,.17-.25l0-.16a2.13,2.13,0,0,0,.33-.11l.07.15a.21.21,0,0,0,.19.13.15.15,0,0,0,.09,0l.26-.12a.21.21,0,0,0,.09-.29l-.07-.15a2.9,2.9,0,0,0,.29-.19l.1.13a.21.21,0,0,0,.15.07h0a.24.24,0,0,0,.14-.05l.22-.19a.23.23,0,0,0,0-.31l-.11-.12a2.85,2.85,0,0,0,.23-.26l.13.09a.2.2,0,0,0,.13,0,.21.21,0,0,0,.17-.09c.06-.08.11-.16.16-.24a.25.25,0,0,0,0-.17.26.26,0,0,0-.1-.13l-.14-.09a2.2,2.2,0,0,0,.15-.31l.16.05h.07a.15.15,0,0,0,.09,0,.22.22,0,0,0,.11-.12l.09-.28A.22.22,0,0,0,246,363l-.16-.05a2,2,0,0,0,.06-.34h.18a.2.2,0,0,0,.14-.06.2.2,0,0,0,.07-.15,2.62,2.62,0,0,0,0-.28.23.23,0,0,0-.06-.16.23.23,0,0,0-.15-.07H246c0-.12,0-.23,0-.35l.16,0a.23.23,0,0,0,.17-.26c0-.09-.05-.19-.07-.28a.24.24,0,0,0-.21-.16h-.06l-.16,0a1.79,1.79,0,0,0-.13-.32l.15-.08a.22.22,0,0,0,.09-.29l-.14-.25a.24.24,0,0,0-.14-.1h-.05a.2.2,0,0,0-.11,0l-.14.08-.21-.28.11-.11a.2.2,0,0,0,0-.3L245,359a.2.2,0,0,0-.15-.06.26.26,0,0,0-.16.07l-.11.12-.28-.21.09-.14a.18.18,0,0,0,0-.16.21.21,0,0,0-.1-.14l-.25-.14-.1,0a.21.21,0,0,0-.19.12l-.07.14-.33-.13,0-.16a.22.22,0,0,0-.15-.26L243,358h0a.21.21,0,0,0-.12,0,.21.21,0,0,0-.1.14l0,.15c-.11,0-.23,0-.35,0v-.16a.2.2,0,0,0-.06-.15.24.24,0,0,0-.16-.07Zm0,7a2.79,2.79,0,1,1,2.79-2.78,2.79,2.79,0,0,1-2.79,2.78Z" />
  <path class="GUNDAN_LIZARD_JEWELRY_LIZARD_JEWELRY_4_cls-8" d="M150.45,166.77s-4.87.5-4.87,5.15,4.19,8,8.15,7,4.93-3.32,4.9-4.87a9.57,9.57,0,0,0-2.37-4.72,3.9,3.9,0,0,0-1.86,2.79c-.12,1.8-5.53,2.84-6,.95s2.4-4.43,2.65-4.35C151.05,167.23,150.45,166.77,150.45,166.77Z" />
  <path class="GUNDAN_LIZARD_JEWELRY_LIZARD_JEWELRY_4_cls-9" d="M147,176.32a3.89,3.89,0,0,1,3.79-.67,5,5,0,0,1,2.64,3.32,2.94,2.94,0,0,1-3.65,3C146.08,181.49,145.93,178.2,147,176.32Z" />
  <path class="GUNDAN_LIZARD_JEWELRY_LIZARD_JEWELRY_4_cls-10" d="M149.65,177.14s1.57,1,1.34,2.27a2.8,2.8,0,0,1-.86,1.7s2.3-.91,1.88-2.59S149.65,177.14,149.65,177.14Z" />
  <path class="GUNDAN_LIZARD_JEWELRY_LIZARD_JEWELRY_4_cls-11" d="M155,168.1s2.84,1.05,4.54,8.31" />
</svg>