<svg xmlns="http://www.w3.org/2000/svg" viewBox="0 0 432 432">
  <defs>
    <style>.GUNDAN_TIGER_OUTFIT_TIGER_OUTFIT_29_cls-1{isolation:isolate;}.GUNDAN_TIGER_OUTFIT_TIGER_OUTFIT_29_cls-2,.GUNDAN_TIGER_OUTFIT_TIGER_OUTFIT_29_cls-8{fill:#bdab9a;}.GUNDAN_TIGER_OUTFIT_TIGER_OUTFIT_29_cls-3{fill:#668266;}.GUNDAN_TIGER_OUTFIT_TIGER_OUTFIT_29_cls-4{fill:#b0ad6e;}.GUNDAN_TIGER_OUTFIT_TIGER_OUTFIT_29_cls-5,.GUNDAN_TIGER_OUTFIT_TIGER_OUTFIT_29_cls-6{fill:#070707;mix-blend-mode:multiply;}.GUNDAN_TIGER_OUTFIT_TIGER_OUTFIT_29_cls-5{opacity:0.3;}.GUNDAN_TIGER_OUTFIT_TIGER_OUTFIT_29_cls-6{opacity:0.4;}.GUNDAN_TIGER_OUTFIT_TIGER_OUTFIT_29_cls-7{fill:none;}.GUNDAN_TIGER_OUTFIT_TIGER_OUTFIT_29_cls-7,.GUNDAN_TIGER_OUTFIT_TIGER_OUTFIT_29_cls-8{stroke:#000;stroke-linecap:round;stroke-linejoin:round;stroke-width:1.65px;}</style>
  </defs>
  <g class="GUNDAN_TIGER_OUTFIT_TIGER_OUTFIT_29_cls-1">
    <g id="outfit">
      <path class="GUNDAN_TIGER_OUTFIT_TIGER_OUTFIT_29_cls-2" d="M283,397.51a2.08,2.08,0,1,1-2.16,2.09A2.13,2.13,0,0,1,283,397.51Z" />
      <path class="GUNDAN_TIGER_OUTFIT_TIGER_OUTFIT_29_cls-2" d="M179.22,396.44a2.09,2.09,0,1,1-2.15,2.09A2.13,2.13,0,0,1,179.22,396.44Z" />
      <path class="GUNDAN_TIGER_OUTFIT_TIGER_OUTFIT_29_cls-3" d="M280.84,406.67l-6.18,16-40.19,14.22-44.81-13.74-7.73-15.74q8.41-1.73,16.5-3.69c2.59,0,5.2,0,7.84-.1,22.16,6.17,34.74,3.66,34.74,3.66a36.21,36.21,0,0,0,12.68,1q12.48-.42,24-1.72h0Z" />
      <path class="GUNDAN_TIGER_OUTFIT_TIGER_OUTFIT_29_cls-4" d="M358.57,318.46c0,.29.1.58.15.89-14.8,28.61-40,42.29-58.49,48.57-12.76,4.35-22.29,5.15-22.86,4.92a197.16,197.16,0,0,1-19-5.6c51.66-.93,84.34-47.21,87.91-61.92C346.3,305.32,356.56,309.63,358.57,318.46Z" />
      <path class="GUNDAN_TIGER_OUTFIT_TIGER_OUTFIT_29_cls-4" d="M277.37,372.84s-19.5,3.49-58-8.32q-6.51-2.14-12.69-4.4l-3.77-1.4-2.61-1-2.06-.79-.52-.2h0l-.14-.07-2.54-1c-1.23-.49-2.44-1-3.64-1.49l-3.68-1.54c-1.56-.66-3.11-1.32-4.64-2-.83-.38-1.67-.74-2.49-1.12-2.44-1.09-4.82-2.2-7.16-3.31l-3-1.43c-1.09-.53-2.16-1.07-3.21-1.6s-2-1-2.93-1.48c-1.12-.56-2.23-1.14-3.29-1.71-1.91-1-3.76-2-5.59-3-4-2.19-7.75-4.39-11.32-6.55-.86-.54-1.72-1.06-2.55-1.59s-1.72-1.05-2.52-1.58l-2.4-1.54c-4-2.57-7.68-5.11-11.08-7.56q-2-1.39-3.79-2.78c-2-1.47-3.83-2.91-5.58-4.31-.58-.45-1.13-.9-1.67-1.35s-1.1-.88-1.63-1.31-1-.87-1.55-1.29l-1.48-1.26q-3.63-3.11-6.47-5.77l-1.1-1.05c-.73-.68-1.4-1.34-2-2L99,295.77l-.78-.78c-.44-.47-.86-.91-1.28-1.33-.72-.75-1.35-1.44-1.88-2.05-.2-.2-.36-.39-.52-.57-.66-.73-1.17-1.32-1.53-1.75a.63.63,0,0,0-.11-.12c-.35-.46-.54-.69-.54-.69s-2.75-3.52-2.75-5.32a1,1,0,0,1,0-.17c.36-1.74,6.26-3.59,11.12-10.18.47-.63.91-1.23,1.34-1.79h0c3.38-6.17,7.14-8.95,11-9.29h.08a13.89,13.89,0,0,1,1.84,0l.75,0a1.5,1.5,0,0,0,.15.25.45.45,0,0,0,.11.13s.1.08.15.13a4.35,4.35,0,0,0,2.83.31l2.46.62,0,.12c-.27.83-1.81,5.69-3.88,8.4.64.89,1.38,1.87,2.2,2.94s1.91,2.42,3,3.78c11,13.31,27.13,31.51,63,54,6.61,4.14,13.1,7.9,19.33,11.3,0,0,.27.16.82.45l.28.15,3,1.59c.24.14.48.26.72.38,1,.51,1.92,1,2.89,1.49s1.88,1,2.82,1.44l.39.2c9.59,4.8,18.46,8.73,26.34,11.88.86.36,1.73.7,2.57,1s1.68.67,2.5,1l2.43.92,2.34.86q3.28,1.2,6.2,2.19C270.27,371.28,277.37,372.84,277.37,372.84Z" />
      <path class="GUNDAN_TIGER_OUTFIT_TIGER_OUTFIT_29_cls-5" d="M198.42,356.65l-.65.08h0l-.14-.07-2.54-1c-1.23-.49-2.44-1-3.64-1.49l-3.68-1.54c-1.56-.66-3.11-1.32-4.64-2-.83-.38-1.67-.74-2.49-1.12-2.44-1.09-4.82-2.2-7.16-3.31l-3-1.43c-1.09-.53-2.16-1.07-3.21-1.6s-2-1-2.93-1.48c-1.12-.56-2.23-1.14-3.29-1.71-1.91-1-3.76-2-5.59-3-4-2.19-7.75-4.39-11.32-6.55-.86-.54-1.72-1.06-2.55-1.59s-1.72-1.05-2.52-1.58l-2.4-1.54c-4-2.57-7.68-5.11-11.08-7.56q-2-1.39-3.79-2.78c-2-1.47-3.83-2.91-5.58-4.31-.58-.45-1.13-.9-1.67-1.35s-1.1-.88-1.63-1.31-1-.87-1.55-1.29l-1.48-1.26q-3.63-3.11-6.47-5.77l-1.1-1.05c-.73-.68-1.4-1.34-2-2L99,295.77l-.78-.78c-.44-.47-.86-.91-1.28-1.33-.72-.75-1.35-1.44-1.88-2.05-.2-.2-.36-.39-.52-.57-.66-.73-1.17-1.32-1.53-1.75a.63.63,0,0,0-.11-.12c-.35-.46-.54-.69-.54-.69s-2.75-3.52-2.75-5.32a1,1,0,0,1,0-.17c.5-1.82,8.52-4.8,12.46-12h0c3.38-6.17,7.14-8.95,11-9.29h.08a15.91,15.91,0,0,1,1.84,0l.75,0a1.5,1.5,0,0,0,.15.25.45.45,0,0,0,.11.13c1,1.21,3.46.56,5.41,1.18-.27.83-1.81,5.69-3.88,8.4.64.89,1.38,1.87,2.2,2.94-1.48,3.13-3,6-4.06,7-7.23,6.89-8.68,4.32,1.06,15.35C140.59,321.81,198.42,356.65,198.42,356.65Z" />
      <path class="GUNDAN_TIGER_OUTFIT_TIGER_OUTFIT_29_cls-4" d="M346.31,305.32c-3.59,14.71-36.25,61-87.92,61.93-1.95-.66-4-1.4-6.2-2.19a350.06,350.06,0,0,1-46-20.77l.34.16h0c.23.12.49.24.77.36l.54.23c.17.08.33.15.52.22l1.21.48.66.25a62,62,0,0,0,7.57,2.2l1.07.24,1.12.23c.77.16,1.56.3,2.39.44l1.26.2c.85.13,1.74.26,2.66.36l1.39.16a123.73,123.73,0,0,0,35-1.68q2.61-.47,5.1-1.08c.61-.14,1.23-.3,1.82-.47.74-.19,1.49-.4,2.2-.62s1.43-.43,2.13-.67c38.52-12.67,49.76-49.4,51.22-55.53,0,0,0-.09-.1-.17a.65.65,0,0,0,0-.18l-2.89-3.08-3.75-4s5.84-4.82,12.91,3.41c8,8.69,13.59,9.78,14.94,15.22.09.44.17.88.25,1.32A8.63,8.63,0,0,1,346.31,305.32Z" />
      <path class="GUNDAN_TIGER_OUTFIT_TIGER_OUTFIT_29_cls-5" d="M346.31,305.32c-3.59,14.71-36.25,61-87.92,61.93-1.95-.66-4-1.4-6.2-2.19l-.87-1.48c1.86.25,61.84-8.71,83.05-59.45,3.08-13.1-6.42-13.77-8.43-15.73.1-.35-2.37-1.48-3.71-2.06l-3.75-4s5.84-4.82,12.91,3.41c8,8.69,13.59,9.78,14.94,15.22.09.44.17.88.25,1.32A8.63,8.63,0,0,1,346.31,305.32Z" />
      <path class="GUNDAN_TIGER_OUTFIT_TIGER_OUTFIT_29_cls-4" d="M300.23,367.92c-.68,1-1.37,2-2,3-19.14,27.74-33.14,36-44.5,37.35a30.15,30.15,0,0,1-6.06.1A44.83,44.83,0,0,1,241,407.3s-12.58,2.51-34.74-3.66A144.18,144.18,0,0,1,192.38,399c-3.58-1.37-7.31-2.95-11.23-4.78-37.56-17.51-72.74-68.15-99.26-92-2.21-11,10.48-13.82,10.48-13.82s35.78,46,127.06,76c38.45,11.82,57.94,8.33,57.94,8.33C277.94,373.07,287.47,372.27,300.23,367.92Z" />
      <path class="GUNDAN_TIGER_OUTFIT_TIGER_OUTFIT_29_cls-5" d="M300.23,367.92c-.68,1-1.37,2-2,3-15.5,7.32-36.6,11.68-56.17,8.88-25.71-3.68-55.56-18.58-55.56-18.58s-.16-.13-.21-.13c.1.19,1.85,2,12.58,11.84,15.26,14,23.7,23.9,48.81,35.34-21.89-2.31-37.56-17-51.22-27.51-13.49-10.31-67.35-47.26-68.68-48.16.57.52,10,9.3,26.09,28.49C170.51,380.92,192.4,399,192.4,399l0,0c-3.58-1.37-7.31-2.95-11.23-4.78-37.56-17.51-72.74-68.15-99.26-92-2.21-11,10.48-13.82,10.48-13.82s35.78,46,127.06,76c38.45,11.82,57.94,8.33,57.94,8.33C277.94,373.07,287.47,372.27,300.23,367.92Z" />
      <path class="GUNDAN_TIGER_OUTFIT_TIGER_OUTFIT_29_cls-4" d="M88.75,436.91H9c6.63-16.65,2.84-30.12,2.84-30.12,23.77,6.55,49.3,9.58,75,10v.05a23.52,23.52,0,0,0-1.68,8.53h0a20.65,20.65,0,0,0,.39,4.34.08.08,0,0,1,0,.07,19.15,19.15,0,0,0,3.13,7.15Z" />
      <path class="GUNDAN_TIGER_OUTFIT_TIGER_OUTFIT_29_cls-4" d="M234.47,436.91H88.75a19.15,19.15,0,0,1-3.13-7.15.08.08,0,0,0,0-.07,20.65,20.65,0,0,1-.39-4.34h0a23.52,23.52,0,0,1,1.68-8.53v-.05q6.56.11,13.1,0c1.4,0,2.81,0,4.21-.08,7.65-.22,15.29-.67,22.88-1.29a465.22,465.22,0,0,0,54.85-7.92l7.72,15.74Z" />
      <path class="GUNDAN_TIGER_OUTFIT_TIGER_OUTFIT_29_cls-6" d="M100,436.91c-8.35,0-11.92-.92-13.5-4.08a10.39,10.39,0,0,1-.92-3.07.08.08,0,0,0,0-.07c-.19-1.23-.3-2.68-.39-4.34h0c-4.51-7.06-36.44-6.27-36.44-6.27s4.62,6.23,19.76,13.34a62.73,62.73,0,0,1-35.62-11.24A95.06,95.06,0,0,1,29,436.91H9c6.63-16.65,2.84-30.12,2.84-30.12,23.77,6.55,49.3,9.58,75,10q6.56.11,13.1,0C93.89,421.24,94.4,429.88,100,436.91Z" />
      <path class="GUNDAN_TIGER_OUTFIT_TIGER_OUTFIT_29_cls-6" d="M171.75,431.36c-1.22,0-38.79-.11-67.55-14.72,7.65-.22,15.29-.67,22.88-1.29C140.35,427.38,170.74,431.23,171.75,431.36Z" />
      <path class="GUNDAN_TIGER_OUTFIT_TIGER_OUTFIT_29_cls-4" d="M420.8,436.91H371.46a26.82,26.82,0,0,0,3.86-14,32.8,32.8,0,0,0-.5-5.77,37.45,37.45,0,0,0-1.57-6,34.6,34.6,0,0,0-1.61-3.9c-.05-.09-.08-.17-.12-.23,6.22-.5,12.42-1.2,18.65-2.11a1.86,1.86,0,0,0,.34-.05c6.34-.93,12.7-2.12,19.12-3.58,0,0-1.56,6.84,4.33,14.26s3,10.2,3.69,13.48A37,37,0,0,0,420.8,436.91Z" />
      <path class="GUNDAN_TIGER_OUTFIT_TIGER_OUTFIT_29_cls-4" d="M280.84,406.67c32.69,1,61.81,2.64,90.68.3.92,1.79,8.1,16.5-.06,29.94h-137l40.19-14.22Z" />
      <path class="GUNDAN_TIGER_OUTFIT_TIGER_OUTFIT_29_cls-6" d="M420.8,436.91H406.5c-3.09-9-8.85-23.77-8.85-23.77A63.19,63.19,0,0,1,362,424.38a85.1,85.1,0,0,0,12.79-7.26c5.13-3.61,7-6.08,7-6.08s-3.59-.1-8.54.06c-9.79.29-24.9,1.52-27.91,6.21h0a39.65,39.65,0,0,1-.39,4.34.15.15,0,0,0,0,.07,11,11,0,0,1-.92,3.07c-1.58,3.16-5.15,4.08-13.51,4.08,5.65-7,6.16-15.67.05-20.19q6.56.15,13.1,0c9.38-.14,18.74-.63,28-1.53,6.23-.59,12.42-1.37,18.53-2.34a1.86,1.86,0,0,0,.34-.05c6.34-.93,12.7-2.12,19.12-3.58,0,0-1.56,6.84,4.33,14.26s3,10.2,3.69,13.48A37,37,0,0,0,420.8,436.91Z" />
      <path class="GUNDAN_TIGER_OUTFIT_TIGER_OUTFIT_29_cls-6" d="M279.38,431.11c1.22,0,18.22-7.9,47-22.5-7.65-.22-15.29-.67-22.88-1.29C306.6,413.39,280.39,431,279.38,431.11Z" />
      <path class="GUNDAN_TIGER_OUTFIT_TIGER_OUTFIT_29_cls-3" d="M277.74,406.56c55.56-6.15,94.64-26.29,116.54-47.76,0,0,20.12,7.33,35.42,36.95-6.77,2.17-13.45,4-20.07,5.48A266.46,266.46,0,0,1,371.52,407c-28.87,2.34-58,.73-90.68-.3Z" />
      <path class="GUNDAN_TIGER_OUTFIT_TIGER_OUTFIT_29_cls-6" d="M280.42,406.39l1.34.17c82.57-4,115.48-31.1,123.83-39.77a72.29,72.29,0,0,0-10.26-8.74C375.17,379.85,336.26,400.28,280.42,406.39Z" />
      <path class="GUNDAN_TIGER_OUTFIT_TIGER_OUTFIT_29_cls-3" d="M415,318.27a104.08,104.08,0,0,1-31.07,4.36l-1.16,0c-.51,0-1,0-1.5-.06l-1.69-.08c-1.55-.09-3-.24-4.48-.4-.85-.09-1.67-.2-2.48-.32-.41-.06-.81-.11-1.21-.18-.75-.11-1.48-.24-2.2-.38-1.17-.21-2.29-.44-3.35-.68l-1-.25c-2.34-.56-4.45-1.18-6.28-1.79,0,.29.11.59.15.89-14.8,28.61-40,42.3-58.5,48.57l-.49.74-.54.79-.54.81c-.11.14-.21.28-.31.43s-.11.16-.15.24h0q-1.31,1.89-2.58,3.66c-.2.29-.4.58-.61.86-.7,1-1.38,1.89-2.07,2.79l-.34.47c-.52.69-1,1.34-1.53,2s-1.06,1.36-1.6,2l-.86,1.06c-.26.34-.54.68-.84,1s-.4.5-.59.75l-.81.94a3.45,3.45,0,0,1-.26.28c-.21.26-.42.5-.63.74a1.8,1.8,0,0,1-.19.2c-.54.62-1.08,1.22-1.61,1.81-.75.83-1.51,1.61-2.24,2.38-2,2-3.87,3.84-5.72,5.43-.16.13-.33.28-.48.42l-.13.1-.24.2c-.66.55-1.32,1.08-2,1.57l-.48.38-.75.55a1.92,1.92,0,0,1-.17.13q-.54.4-1.05.75c-.35.25-.7.49-1,.71l-.34.22-.18.13-.61.38-.19.12-.35.21a.65.65,0,0,1-.16.09,6.62,6.62,0,0,1-.61.37l-.51.29a.6.6,0,0,1-.16.08c-.22.14-.45.26-.66.37l-.91.48-.76.36h0a4.81,4.81,0,0,1-.46.22l-.64.29-.69.29-.52.21-.08,0-1,.36-.08,0-.93.31-.36.12-.4.12-.74.21a1.67,1.67,0,0,1-.3.08l-.18,0a1.47,1.47,0,0,1-.28.08c-.59.15-1.17.27-1.74.37-.27.05-.52.1-.78.13h0l-.08,0-1,.13,1.07,0c1.58-.06,3.16-.12,4.72-.2h.39c1.47-.08,2.92-.17,4.37-.27q4.61-.3,9-.74c1.48-.14,3-.3,4.42-.45h0c55.56-6.15,94.65-26.29,116.54-47.76C408.73,344.65,415.72,329.94,415,318.27Zm-132,83.4a2.08,2.08,0,1,1,2.14-2.07A2.12,2.12,0,0,1,283,401.67Z" />
      <path class="GUNDAN_TIGER_OUTFIT_TIGER_OUTFIT_29_cls-6" d="M375.11,322.06c-7.08,17.5-20.06,37.1-70.42,51.2C284,397.36,261.56,407.19,259.62,408l-.13,0v0l.1-1.06c10.69-3.46,23.69-13.74,40.64-39.06,18.45-6.28,43.69-20,58.49-48.57-.05-.31-.11-.6-.15-.89A82.56,82.56,0,0,0,375.11,322.06Z" />
      <path class="GUNDAN_TIGER_OUTFIT_TIGER_OUTFIT_29_cls-3" d="M198.43,403.74l-1.77.42q-7.23,1.74-14.73,3.27a445.52,445.52,0,0,1-95,9.33c-25.74-.39-51.27-3.42-75-10q-5.16-1.41-10.19-3.05A169.15,169.15,0,0,1,23.57,367.1a95.46,95.46,0,0,1,12.32-13.19C66.3,380.09,122.8,403.77,198.43,403.74Z" />
      <path class="GUNDAN_TIGER_OUTFIT_TIGER_OUTFIT_29_cls-6" d="M198.43,403.74l-1.77.42C85.63,410.9,36.1,377.47,23.57,367.1a95.46,95.46,0,0,1,12.32-13.19C66.3,380.09,122.8,403.77,198.43,403.74Z" />
      <path class="GUNDAN_TIGER_OUTFIT_TIGER_OUTFIT_29_cls-3" d="M181.33,398.9a1.61,1.61,0,0,1-.1.36,1.69,1.69,0,0,0,.12-.36s0-.11,0-.16ZM205,403.28l-.44-.13-1.08-.32-.23-.07c-.68-.2-1.39-.42-2.1-.65l-.57-.18-.63-.21-.86-.28a3.59,3.59,0,0,1-.35-.12c-.28-.08-.56-.18-.83-.28h-.06l-.67-.25-1.11-.38s0,0,0,0c-.49-.16-1-.35-1.49-.54-.7-.25-1.42-.52-2.15-.81a2.79,2.79,0,0,1-.37-.14l-.35-.13c-.12-.06-.26-.1-.39-.16l-.75-.3q-2.29-.9-4.68-1.94l-1.22-.53c-.46-.21-.93-.41-1.4-.64-.68-.29-1.37-.61-2.06-.94-37.57-17.51-72.75-68.15-99.26-92l-.78.5-.21.12c-.51.3-1.2.71-2.09,1.17l-.4.21-1.3.67-.49.23-.4.19-.57.26-1.34.61-.53.22c-.89.39-1.84.78-2.87,1.17l-1.55.57-1.72.6-1.49.48-1.08.34c-1.15.34-2.35.68-3.61,1-1.77.47-3.65.89-5.62,1.28-1.28.24-2.61.47-4,.68l-2.08.3c-.65.08-1.31.17-2,.23l-1.53.16-1.18.11c-.41,0-.82.08-1.24.1l-1.08.08c-1.34.07-2.69.14-4.09.17l-1.19,0a120.4,120.4,0,0,1-28.8-3.2c0,12.31,10.65,29.11,27.18,43.34,30.41,26.19,86.91,49.87,162.54,49.84,2.59,0,5.2,0,7.84-.1Zm-23.87-3.76a.16.16,0,0,0,0,.06,1.71,1.71,0,0,1-.2.27h0a1.08,1.08,0,0,1-.22.21.41.41,0,0,1-.1.09,1.53,1.53,0,0,1-.21.14,1.77,1.77,0,0,1-.31.15,1.91,1.91,0,0,1-.34.1h-.05a1.86,1.86,0,0,1-.42.05,2.12,2.12,0,0,1-2.16-2.08,2.06,2.06,0,0,1,.1-.62,1.32,1.32,0,0,0,.08-.19,1,1,0,0,1,.09-.18.26.26,0,0,1,0-.09,1,1,0,0,1,.17-.23s0,0,0,0a1.14,1.14,0,0,1,.15-.16,2,2,0,0,1,.77-.47.78.78,0,0,1,.25-.07.12.12,0,0,1,.08,0,1.84,1.84,0,0,1,.41,0,2.13,2.13,0,0,1,2.16,2.08,1.55,1.55,0,0,1,0,.21l0,.16a1.61,1.61,0,0,1-.1.36A1.19,1.19,0,0,1,181.11,399.52Z" />
      <path class="GUNDAN_TIGER_OUTFIT_TIGER_OUTFIT_29_cls-6" d="M181.33,398.91a1.2,1.2,0,0,0,0-.38,2.17,2.17,0,0,0-4.14-.81,123.29,123.29,0,0,1-53.73-33.59c-33.95-35.81-55.86-55.32-55.86-55.32a62.67,62.67,0,0,0,14.24-6.52c26.52,23.81,61.7,74.45,99.26,92a163.77,163.77,0,0,0,23.39,8.9A142.55,142.55,0,0,1,181.33,398.91Z" />
      <path class="GUNDAN_TIGER_OUTFIT_TIGER_OUTFIT_29_cls-7" d="M92.37,288.47s-12.69,2.79-10.48,13.82c26.52,23.81,61.7,74.45,99.26,92a161.1,161.1,0,0,0,25.12,9.39c22.16,6.17,34.74,3.66,34.74,3.66" />
      <path class="GUNDAN_TIGER_OUTFIT_TIGER_OUTFIT_29_cls-7" d="M215.5,395.3S227,404,241,407.3a36.21,36.21,0,0,0,12.68,1c11.76-1.37,26.34-10.19,46.54-40.36" />
      <path class="GUNDAN_TIGER_OUTFIT_TIGER_OUTFIT_29_cls-7" d="M92.36,288.48s-2.74-3.52-2.74-5.32a1,1,0,0,1,0-.17c.36-1.74,6.26-3.59,11.12-10.18l1.33-1.79h0c4.73-6.28,7.79-8.93,11-9.29h.08a13.89,13.89,0,0,1,1.84,0l.75,0,3.24.82,2.46.62,0,.12c-.27.83-1.81,5.69-3.88,8.4" />
      <path class="GUNDAN_TIGER_OUTFIT_TIGER_OUTFIT_29_cls-7" d="M114.51,267.13c.64,1.06,1.65,2.6,3.06,4.54.64.9,1.39,1.87,2.2,2.95s1.92,2.42,3,3.78c11,13.31,27.13,31.51,63,54,6.62,4.15,13.09,7.9,19.33,11.31" />
      <path class="GUNDAN_TIGER_OUTFIT_TIGER_OUTFIT_29_cls-7" d="M92.37,288.47s35.78,46,127.06,76c38.45,11.82,57.94,8.33,57.94,8.33a197.16,197.16,0,0,1-19-5.6,344.31,344.31,0,0,1-52.47-23.11" />
      <path class="GUNDAN_TIGER_OUTFIT_TIGER_OUTFIT_29_cls-7" d="M258.39,367.25c51.66-.94,84.33-47.22,87.91-61.93a8.18,8.18,0,0,0,.27-3,8.61,8.61,0,0,0-.24-1.32c-1.35-5.44-7-6.53-14.94-15.22-7.08-8.23-12.91-3.41-12.91-3.41l3.75,4,2.89,3.08s0,.06,0,.18c-.73,2.95-11.16,42.47-51.12,55.7l-2.13.67c-.73.22-1.46.43-2.2.62s-1.21.32-1.83.47q-2.48.62-5.09,1.08a123.74,123.74,0,0,1-35,1.68l-1.4-.16c-.91-.1-1.8-.23-2.65-.36l-1.26-.2c-.83-.14-1.63-.28-2.39-.44l-1.12-.23-1.08-.24a62.36,62.36,0,0,1-7.56-2.2l-.67-.25-1.2-.48-.53-.22-.53-.23-.78-.36h0l-.63-.32c-.54-.28-.81-.44-.81-.44" />
      <path class="GUNDAN_TIGER_OUTFIT_TIGER_OUTFIT_29_cls-7" d="M277.37,372.84c.57.23,10.1-.57,22.86-4.92,18.45-6.28,43.69-20,58.49-48.57-.05-.31-.11-.6-.15-.89-2-8.83-12.27-13.14-12.27-13.14" />
      <path class="GUNDAN_TIGER_OUTFIT_TIGER_OUTFIT_29_cls-7" d="M81.89,302.29S54.37,321.13,8.7,310.55c0,12.32,10.66,29.12,27.19,43.36,30.41,26.18,86.91,49.86,162.54,49.83,2.59,0,5.2,0,7.84-.1" />
      <path class="GUNDAN_TIGER_OUTFIT_TIGER_OUTFIT_29_cls-7" d="M35.89,353.91S16.82,369.59,1.66,403.74q5,1.63,10.19,3.05c23.77,6.55,49.3,9.58,75,10a445.52,445.52,0,0,0,95-9.33q8.41-1.73,16.5-3.69" />
      <path class="GUNDAN_TIGER_OUTFIT_TIGER_OUTFIT_29_cls-7" d="M11.85,406.79S15.64,420.26,9,436.91H420.8a37.6,37.6,0,0,1-3.15-7.94c-.67-3.28,2.21-6.06-3.69-13.48s-4.33-14.26-4.33-14.26" />
      <polyline class="GUNDAN_TIGER_OUTFIT_TIGER_OUTFIT_29_cls-7" points="181.93 407.43 189.66 423.17 234.47 436.91 274.66 422.69 280.84 406.67" />
      <path class="GUNDAN_TIGER_OUTFIT_TIGER_OUTFIT_29_cls-7" d="M277.7,406.56q-11.54,1.29-24,1.72" />
      <path class="GUNDAN_TIGER_OUTFIT_TIGER_OUTFIT_29_cls-7" d="M358.57,318.46c10.76,3.6,30.56,7.36,56.44-.19.7,11.66-6.28,26.39-20.73,40.53-21.9,21.47-61,41.61-116.54,47.76" />
      <path class="GUNDAN_TIGER_OUTFIT_TIGER_OUTFIT_29_cls-7" d="M394.28,358.8s20.12,7.33,35.42,36.95c-6.77,2.17-13.45,4-20.07,5.48A266.46,266.46,0,0,1,371.52,407c-28.87,2.34-58,.73-90.68-.3l-3.1-.11h0" />
      <path class="GUNDAN_TIGER_OUTFIT_TIGER_OUTFIT_29_cls-7" d="M285.16,399.6a2.16,2.16,0,1,1-2.16-2.09A2.11,2.11,0,0,1,285.16,399.6Z" />
      <path class="GUNDAN_TIGER_OUTFIT_TIGER_OUTFIT_29_cls-7" d="M181.38,398.53a2.16,2.16,0,1,1-2.16-2.09A2.12,2.12,0,0,1,181.38,398.53Z" />
      <path class="GUNDAN_TIGER_OUTFIT_TIGER_OUTFIT_29_cls-8" d="M197.33,417.58a2.16,2.16,0,1,1-2.17-2.08A2.13,2.13,0,0,1,197.33,417.58Z" />
      <path class="GUNDAN_TIGER_OUTFIT_TIGER_OUTFIT_29_cls-8" d="M271.15,417.58A2.16,2.16,0,1,1,269,415.5,2.12,2.12,0,0,1,271.15,417.58Z" />
      <path class="GUNDAN_TIGER_OUTFIT_TIGER_OUTFIT_29_cls-7" d="M86.89,416.81s-4.84,10.81,1.86,20.1" />
      <path class="GUNDAN_TIGER_OUTFIT_TIGER_OUTFIT_29_cls-7" d="M371.42,406.79a1.85,1.85,0,0,1,.1.18c.92,1.79,8.1,16.5-.06,29.94" />
    </g>
  </g>
</svg>