<svg xmlns="http://www.w3.org/2000/svg" viewBox="0 0 432 432">
  <defs>
    <style>.GUNDAN_TIGER_OUTFIT_TIGER_OUTFIT_19_cls-1{isolation:isolate;}.GUNDAN_TIGER_OUTFIT_TIGER_OUTFIT_19_cls-2{fill:#d0b244;}.GUNDAN_TIGER_OUTFIT_TIGER_OUTFIT_19_cls-3{fill:#d5d5d5;}.GUNDAN_TIGER_OUTFIT_TIGER_OUTFIT_19_cls-4{fill:#cf9e4f;}.GUNDAN_TIGER_OUTFIT_TIGER_OUTFIT_19_cls-5{fill:#272123;}.GUNDAN_TIGER_OUTFIT_TIGER_OUTFIT_19_cls-6{fill:#622206;}.GUNDAN_TIGER_OUTFIT_TIGER_OUTFIT_19_cls-7{fill:#414572;}.GUNDAN_TIGER_OUTFIT_TIGER_OUTFIT_19_cls-8{fill:#130f06;}.GUNDAN_TIGER_OUTFIT_TIGER_OUTFIT_19_cls-9{fill:#fff;}.GUNDAN_TIGER_OUTFIT_TIGER_OUTFIT_19_cls-10{fill:none;stroke:#000;stroke-linecap:round;stroke-linejoin:round;stroke-width:1.56px;}.GUNDAN_TIGER_OUTFIT_TIGER_OUTFIT_19_cls-11{opacity:0.22;mix-blend-mode:multiply;}</style>
  </defs>
  <g class="GUNDAN_TIGER_OUTFIT_TIGER_OUTFIT_19_cls-1">
    <g id="outfit">
      <path class="GUNDAN_TIGER_OUTFIT_TIGER_OUTFIT_19_cls-2" d="M25.1,351.07c0-.37.07-.73.11-1.06a26.07,26.07,0,0,0-8.26.25A20.48,20.48,0,0,0,11,352.41a19.89,19.89,0,0,0-6.68,6,27.19,27.19,0,0,0-4,9,31.1,31.1,0,0,0-.85,4.74,32.65,32.65,0,0,0,2.39,15.2,46.5,46.5,0,0,0,5.38,9.75,60.46,60.46,0,0,0,8.07,9.25c.92-3.45,1.84-7.15,2.67-10.7a45.83,45.83,0,0,1-4.62-6.26h0a32.88,32.88,0,0,1-3.62-7.87,21.57,21.57,0,0,1-.56-11c.05-.24.11-.48.17-.73a16.51,16.51,0,0,1,3.42-6.89v0a10.21,10.21,0,0,1,2.73-2.21A11.45,11.45,0,0,1,19,359.39a17.76,17.76,0,0,1,6.24.07A52.34,52.34,0,0,1,25.1,351.07Z" />
      <path class="GUNDAN_TIGER_OUTFIT_TIGER_OUTFIT_19_cls-3" d="M43.46,305.43c5.25,1.79,4.52,9.34,2.43,14-.38-.15-.76-.3-1.2-.44-3.7-1.15-9-4.25-12-6.11C34.36,310.09,38.79,303.82,43.46,305.43Z" />
      <path class="GUNDAN_TIGER_OUTFIT_TIGER_OUTFIT_19_cls-3" d="M27.85,339.61c1.68,3.46,3.67-1.18,5.39-6.72a72.27,72.27,0,0,1,4.6-10.68c4.35,1.65,8.47,2.74,9.83,2.37a1.88,1.88,0,0,0,1-3.23s6.65-13.8,0-18.71c-6.39-4.71-13.45-.1-14,.31a23.34,23.34,0,0,1,12.81-8.78s14.46,5.28,11.34,19.55-17.54,40-34.28,27.08a34.79,34.79,0,0,1,3.32-23.44,39.79,39.79,0,0,0,4.66,2.57C30.77,324.69,26.52,336.85,27.85,339.61Z" />
      <path class="GUNDAN_TIGER_OUTFIT_TIGER_OUTFIT_19_cls-3" d="M92.81,345c-.64,2.55-1.32,4.94-2,7-2,6-8.15,11.22-13,14.58-6.73-4.47-11.2-17.74-3.13-25.43S92.81,345,92.81,345Z" />
      <path class="GUNDAN_TIGER_OUTFIT_TIGER_OUTFIT_19_cls-3" d="M64.23,349.11a20.74,20.74,0,0,0,7.19,21.39c-9.86,13.54-24.79,12.81-31.2,10.08s-14.53-17-14.53-17-.23-1.75-.43-4.09a52.34,52.34,0,0,1-.16-8.39c0-.37.07-.73.11-1.06.21-1.32.55-2.31,1.12-2.66a1.1,1.1,0,0,1,1.2.06c21,11.51,34.67-17.51,38.05-34.82S52,293.47,52,293.47c10.67-12.18,32.88-11.4,32.88-11.4,11.44,5.58,13.81,27.83,13.23,34-.36,3.94-1.79,13.19-3.68,22.1h0s-3-2.7-9.87-6.05S67.63,335.34,64.23,349.11Z" />
      <path class="GUNDAN_TIGER_OUTFIT_TIGER_OUTFIT_19_cls-2" d="M64.23,349.11a20.74,20.74,0,0,0,7.19,21.39c-9.86,13.54-24.79,12.81-31.2,10.08s-14.53-17-14.53-17-5.57,1.64-6,9.68c-.06,1.39.72,2.89,2.12,4.42h0c2.4,2.67,6.58,5.41,11.2,7.8a73.24,73.24,0,0,0,15.62,6,13.15,13.15,0,0,0,5.27.42c3.51-.87,9.58-5.43,14.1-9.14,3.36-2.74,5.86-5,5.86-5s2.17-.66,5.21-1.91v-.18c-2.08.39-6.57.54-7.67-5.14a60.44,60.44,0,0,0,6.39-3.93c-6.73-4.47-11.2-17.74-3.13-25.43S92.81,345,92.81,345c.56-2.19,1.09-4.49,1.58-6.83,0,0-3-2.7-9.87-6.05S67.63,335.34,64.23,349.11Z" />
      <path class="GUNDAN_TIGER_OUTFIT_TIGER_OUTFIT_19_cls-2" d="M43.46,305.43c-4.67-1.61-9.1,4.66-10.79,7.45,3,1.86,8.32,5,12,6.11.43.14.82.28,1.19.44C48,314.77,48.71,307.22,43.46,305.43Zm5.23-2.8c-6.38-4.71-13.45-.09-14,.32a.07.07,0,0,0,0,0,30.34,30.34,0,0,0-4.31,8.39c-3,.26-5,3.66-2.45,6a39,39,0,0,0,4.66,2.57c-1.74,4.76-6,16.92-4.66,19.68.44.91.9,1.26,1.38,1.18,1.33-.22,2.74-3.82,4-7.9a70.2,70.2,0,0,1,4.6-10.68c4.35,1.65,8.46,2.74,9.83,2.37a2.53,2.53,0,0,0,1.18-.68,1.89,1.89,0,0,0-.16-2.55S55.34,307.55,48.69,302.63Z" />
      <path class="GUNDAN_TIGER_OUTFIT_TIGER_OUTFIT_19_cls-2" d="M27.53,347.41c21,11.51,34.67-17.51,38.05-34.82S52,293.47,52,293.47a19,19,0,0,0-4.51.7s14.46,5.28,11.34,19.55-17.54,40-34.28,27.08a43.49,43.49,0,0,0,1.8,6.55A1.1,1.1,0,0,1,27.53,347.41Z" />
      <path class="GUNDAN_TIGER_OUTFIT_TIGER_OUTFIT_19_cls-2" d="M97,283a12.44,12.44,0,0,0-5-3.83c-5.57-1.91-7.06,2.87-7.06,2.87,11.44,5.58,13.81,27.83,13.23,34-.36,3.94-1.79,13.19-3.68,22.1,6.94-.42,7.69,6.9,7.69,6.9,2.92-14.23,4.74-31.9,3.8-40C104.85,295.93,101.07,287.73,97,283Z" />
      <path class="GUNDAN_TIGER_OUTFIT_TIGER_OUTFIT_19_cls-4" d="M221.88,357.26c-13.2-.23-13.72,13.87-13.72,13.87q2.47,2.14,5,4.26s-.79-16.07,14.15-14.63Q224.61,359.08,221.88,357.26Z" />
      <path class="GUNDAN_TIGER_OUTFIT_TIGER_OUTFIT_19_cls-5" d="M121.06,368.6c.83,1.23,40.65,40.36,95.46,81.11,6,4.48,12.39,9,19.1,13.44,53.44,35.58,85.56,48.35,98.42,55.16,3.69,2,5.79,3.43,6.37,4.81a11.43,11.43,0,0,1,.41,6.48H310.55c-24.62-11.55-65.25-33.09-97.82-57.59-5.3-4-10.38-8-15.14-12.16-.33-.27-.64-.55-1-.83-48-41.92-82.39-62.8-86.38-68.57-6.15,2.65-9.6-4.9-9.6-4.9,7.59-3.16,12.41-21.39,12.41-25.85C113.05,359.7,121.79,359.26,121.06,368.6Z" />
      <path class="GUNDAN_TIGER_OUTFIT_TIGER_OUTFIT_19_cls-6" d="M107.25,356.06a3,3,0,1,0,3,3A3,3,0,0,0,107.25,356.06Zm-9.88,17.62a3,3,0,1,0,3,3A3,3,0,0,0,97.37,373.68Zm15.37-15.55c-.87-2.46-3.42-5.63-5.81-8.22l-.05-.06c-1.81-2-3.51-3.58-4.31-4.33l-.48-.44s-.74-7.33-7.68-6.91h0c-.36,1.67-.72,3.32-1.11,4.93a.32.32,0,0,1,0,.09L92.81,345c-.33,1.32-.67,2.59-1,3.79-.24.84-.49,1.65-.74,2.41a.76.76,0,0,1,0,.11c-.07.23-.14.45-.22.67a17.11,17.11,0,0,1-1.61,3.38,31.47,31.47,0,0,1-5.68,6.68l0,0a54.77,54.77,0,0,1-5.66,4.5,60.92,60.92,0,0,1-6.35,3.91l0,0a9.51,9.51,0,0,0,.42,1.52c1.55,4.13,5.38,4,7.25,3.61a6,6,0,0,0,.94-.23l.06,0h.06l.61.65a50.73,50.73,0,0,0,7.09,6.09c3.55,2.48,7.8,4.52,11.53,3.83a5,5,0,0,0,1.25-.39c2.49-1,4.69-3.7,6.51-7l.11-.2a51.43,51.43,0,0,0,4.1-10.17,36.2,36.2,0,0,0,1.7-8.52A4.79,4.79,0,0,0,112.74,358.13Z" />
      <path class="GUNDAN_TIGER_OUTFIT_TIGER_OUTFIT_19_cls-4" d="M41.8,450c-.43,0-.87,0-1.32-.07a44.27,44.27,0,0,1-18.85-6h0a63.79,63.79,0,0,1-16.84-14s-1.85,1.73,0,5.72c0,0,10.86,15,30.4,18.95,14.87,3,30.53-.7,39.68-3.54,2.67-.83,4.8-1.59,6.17-2.09q.13-3,.28-6.51c-3.37,2.28-8.9,4.68-16.58,6.2A93,93,0,0,1,41.8,450Z" />
      <path class="GUNDAN_TIGER_OUTFIT_TIGER_OUTFIT_19_cls-4" d="M416.37,426.77a116,116,0,0,1-18.93,15.1c-6.4,4-13.65,7.4-20.55,8a59.49,59.49,0,0,1-23.78-3.24,58.07,58.07,0,0,1-11.51-5.24c-1,2.44-2,4.88-3.12,7.29.56.42,1.26.92,2.06,1.47a51.46,51.46,0,0,0,42.38,7c27.5-7.46,34.25-21.26,34.25-21.26C419.2,432.09,416.37,426.77,416.37,426.77Z" />
      <path class="GUNDAN_TIGER_OUTFIT_TIGER_OUTFIT_19_cls-5" d="M79.09,375.82c-3,1.25-5.21,1.91-5.21,1.91s-2.5,2.29-5.86,5c-4.52,3.71-10.59,8.27-14.1,9.14a13.15,13.15,0,0,1-5.27-.42,73.24,73.24,0,0,1-15.62-6c-4.62-2.39-8.8-5.13-11.2-7.8-.1.44-1.74,8.74-3.89,18-.83,3.55-1.75,7.25-2.67,10.7-.39,1.43-.77,2.82-1.16,4.14-3.22,1.27-8.19,3.58-8.64,5.95-.68,3.55-.68,13.49-.68,13.49a63.79,63.79,0,0,0,16.84,14h0a44.27,44.27,0,0,0,18.85,6c.45,0,.89.06,1.32.07a93,93,0,0,0,22.94-1.38c7.68-1.52,13.21-3.92,16.58-6.2q.34-7.86.83-18.66C77.65,407.18,78.49,384.7,79.09,375.82Z" />
      <path class="GUNDAN_TIGER_OUTFIT_TIGER_OUTFIT_19_cls-5" d="M415.49,417.43a27.32,27.32,0,0,0-9.38-6.58A176.76,176.76,0,0,1,396.48,368q-5.72,7.39-11.73,14.49-6.15,7.27-12.53,14.32c-6.47,7.12-13.1,14.11-19.81,21-1.29,1.31-2.58,2.62-3.85,3.93a0,0,0,0,0,0,0q-3,10-6.94,19.65a58.07,58.07,0,0,0,11.51,5.24,59.49,59.49,0,0,0,23.78,3.24c6.9-.63,14.15-4,20.55-8a116,116,0,0,0,18.93-15.1C416.16,423.5,415.71,420.71,415.49,417.43Z" />
      <ellipse class="GUNDAN_TIGER_OUTFIT_TIGER_OUTFIT_19_cls-7" cx="97.38" cy="376.68" rx="2.98" ry="2.99" />
      <path class="GUNDAN_TIGER_OUTFIT_TIGER_OUTFIT_19_cls-7" d="M110.24,359.06a3,3,0,1,0-3,3A3,3,0,0,0,110.24,359.06Z" />
      <path class="GUNDAN_TIGER_OUTFIT_TIGER_OUTFIT_19_cls-8" d="M310.45,529.56a652.85,652.85,0,0,1-72.15-39.84l-.25-.16c-3-1.91-5.91-3.85-8.82-5.82-5.65-3.81-11.18-7.73-16.5-11.73q-3.73-2.81-7.31-5.66-3.3-2.64-6.44-5.3l-1.4-1.2-1-.83c-3.19-2.79-6.33-5.48-9.39-8.08q-3.63-3.07-7.12-6c-17-14.11-31.69-25.26-43.2-33.78-13.57-10.05-22.69-16.45-25.84-19.74h0a8.7,8.7,0,0,1-.83-1c-.1,0-.2.09-.3.12-6,2.28-9.3-5-9.3-5a5,5,0,0,1-1.25.39c-3.73.69-8-1.35-11.53-3.83A50.73,50.73,0,0,1,80.76,376l-.61-.65h-.06l-.06,0c-.33.16-.63.29-.94.42-.2,2.9-.42,7.26-.47,12.39v.1c-.05,4.87.06,10.42.49,16.09,0,.74.11,1.49.18,2.24a102.26,102.26,0,0,0,2.51,15.73.19.19,0,0,0,0,.08c.11.45.22.89.34,1.33,0,.13,0,.25,0,.38s0,.28,0,.41c0,.37,0,1.07-.1,2.38,0,.15,0,.3,0,.47,0,.38,0,.81,0,1.29l0,.67q0,.58-.06,1.26L81.78,432l0,.65c0,.27,0,.55,0,.84-.07,1.65-.16,3.59-.26,5.88,0,.3,0,.6,0,.91s0,.76,0,1.15c0,.16,0,.33,0,.49l0,.5c0,.12,0,.24,0,.36q-.14,3.34-.27,6.15c-.45,10.3-.66,15.29-.66,15.29s-5.81,10.53-7.44,17.55a13.45,13.45,0,0,0-.42,3.23h0a5.67,5.67,0,0,0,.14,1.16c1.35,5.45,1.08,7.64,1.08,7.64l-4.61,12v7.5s-5.39,14.8,4,16.29H310.55Z" />
      <path class="GUNDAN_TIGER_OUTFIT_TIGER_OUTFIT_19_cls-8" d="M402.79,359.59c-2.06,2.83-4.17,5.64-6.32,8.4q-5.7,7.39-11.72,14.49-6.15,7.27-12.54,14.32-3,3.31-6.08,6.6h0c-4.51,4.85-9.1,9.65-13.72,14.41l-2.55,2.6c-.44.44-.87.89-1.3,1.33h0q-1.64,5.44-3.56,10.79-1.59,4.47-3.38,8.86-1.5,3.68-3.12,7.3l-1.31,2.84c1.25,2.92,2.33,5.45,3.52,8.28l.21.5c0,.25,0,.51,0,.78l-.21.19c-4.45,3.89-7.94,9.32-8.52,15.2s1.82,11.25,3.71,16.89h0c-1.81,3.17-3.56,6.15-4.3,9.56a16.11,16.11,0,0,0-.33,2.44c0,.11,0,.11-.09.06A30.64,30.64,0,0,1,334,518.31c-11.5-6.09-38.38-16.94-82.13-44.59l0,0q-7.77-4.9-16.26-10.55c-6.71-4.46-13.08-9-19.1-13.44a1007.76,1007.76,0,0,1-85.31-71.19c-5.47-5.15-8.89-8.54-9.87-9.6a3.1,3.1,0,0,1-.28-.32c.36-4.54-1.53-6.77-3.56-7.86h0a8.38,8.38,0,0,0-2.41-.84,9.28,9.28,0,0,0-2-.19,4.79,4.79,0,0,0-.31-1.57c-.87-2.46-3.42-5.63-5.81-8.22l-.05-.06c-1.81-2-3.51-3.58-4.31-4.33l-.48-.44c.78-3.82,1.49-7.89,2.08-12,1.62-11.07,2.41-22.11,1.73-28-.17-1.49-.42-3-.73-4.39,0-.17-.07-.34-.11-.5s-.13-.58-.2-.86l-.09-.33a43.81,43.81,0,0,0-4.63-11.53A29.37,29.37,0,0,0,97,283l.2-.18,0,0,1.32-1.18c.85-.58,1.71-1.16,2.58-1.69l.06.13C128,342.47,186.51,396.73,243,434.2l.11.07q7.19-4.93,13.93-10.5l.1-.08h0q4.23-3.49,8.27-7.2l.53-.49c.27-.25.54-.49.8-.75l.72-.69a195.65,195.65,0,0,0,22.75-25.44c22-29.34,39.57-69.16,43.23-105.73a.62.62,0,0,0,0-.09,16.12,16.12,0,0,0,2,1.76,44.43,44.43,0,0,0,8.47,4.66l.63.27c1.61.68,3.2,1.27,4.67,1.75,0-.58.08-.87.08-.87a14.24,14.24,0,0,0,2.36,1.61,5.21,5.21,0,0,0,4.22.59l.16-.05.06.44,0,.12c.31,2.24.61,4.15.93,6.46,1.61-1.17,3.46-2.7,5.08-3.87,1.05,4.37-1.73,11.44-.68,15.81a4.67,4.67,0,0,1,4.46,1.63,32.13,32.13,0,0,1,5.47,7.88l.51-.38c6.73,3.42,13.67,6.63,20.38,10.05-1,6.23-2.17,11.65-3.18,17.87C393.69,352.71,398.2,355.92,402.79,359.59Z" />
      <path class="GUNDAN_TIGER_OUTFIT_TIGER_OUTFIT_19_cls-2" d="M333.41,283.3a.62.62,0,0,1,0,.09c-3.66,36.57-21.21,76.39-43.23,105.73a195.65,195.65,0,0,1-22.75,25.44l-.72.69c-.26.26-.53.5-.8.75l-.53.49q-4,3.7-8.27,7.2h0l-.1.08q-6.74,5.55-13.93,10.5l-.11-.07c-56.44-37.47-115-91.73-141.77-154.13l-.06-.13c1.1-.71,2.21-1.41,3.31-2.09l.08-.05c2.43-1.51,4.86-3,7.29-4.66h0c4.66,15.74,13.84,29.42,24.63,41.91,5.65,6.54,11.75,12.75,17.87,18.76,13.09,12.87,40,25.3,53.86,37.31q2.47,2.14,5,4.25v0q8.9,7.56,18,14.89,3.76,3,7.56,6,2.22,1.75,4.45,3.48c2.23,1.74,4.48,3.47,6.73,5.18l.5.38.63-.73q2.56-3,5.1-6h0c1.88-2.28,3.76-4.61,5.61-7,0,0,0,0,0,0,1.85-2.35,3.69-4.75,5.49-7.17l0,0c1.41-1.89,2.81-3.79,4.18-5.72l1.18-1.64q5.31-7.5,10.34-15.32l1-1.63,1.45-2.3a.24.24,0,0,1,.06-.09q2.4-3.84,4.7-7.73l.08-.13.07-.11.83-1.43q1-1.6,1.89-3.24l1.87-3.29c.76-1.35,1.52-2.71,2.26-4.07a.64.64,0,0,1,.08-.14q4.43-8.1,8.42-16.36,2-4.11,3.87-8.24,1-2.15,1.91-4.29,3.69-8.37,6.83-16.78c.3-.79.6-1.58.88-2.37.12-.34.25-.67.37-1q.53-1.44,1-2.88t1.08-3.12c.35-1,.7-2.08,1-3.12a.19.19,0,0,1,0-.07.32.32,0,0,0,0-.06l0-.07h0l0-.09,5.14,2,.83.33Z" />
      <path class="GUNDAN_TIGER_OUTFIT_TIGER_OUTFIT_19_cls-9" d="M111.81,273.15c7.08,24,24.69,43.19,42.49,60.68,13.1,12.86,40,25.29,53.86,37.3,0,0,.52-14.1,13.72-13.87C176,326.78,111.81,273.15,111.81,273.15Z" />
      <path class="GUNDAN_TIGER_OUTFIT_TIGER_OUTFIT_19_cls-9" d="M322.79,279.08h0l0,.09h0a.25.25,0,0,0,0,.07.32.32,0,0,1,0,.06.19.19,0,0,0,0,.07q-2,6.24-4.39,12.5-3.15,8.39-6.83,16.78c-4.9,11.17-10.46,22.27-16.54,33.1q-1.85,3.28-3.76,6.53l-.83,1.43-.07.11q-2.36,4-4.78,7.86a.24.24,0,0,0-.06.09c-.83,1.32-1.65,2.63-2.49,3.93q-5,7.82-10.34,15.32-2.66,3.72-5.36,7.36l0,0q-2.72,3.65-5.49,7.17s0,0,0,0c-1.85,2.36-3.73,4.69-5.61,7h0q-2.53,3.06-5.1,6l-.63.73-.5-.38c-2.25-1.71-4.5-3.44-6.73-5.18q-2.24-1.72-4.45-3.48-3.8-3-7.56-6-9.09-7.34-18-14.89v0s-.79-16.06,14.15-14.62a165.45,165.45,0,0,0,20.43,11.12c24.54-29.28,46.91-64.7,60.9-100.29A58.86,58.86,0,0,0,318,277.1q2.34,1.09,4.76,2Z" />
      <path class="GUNDAN_TIGER_OUTFIT_TIGER_OUTFIT_19_cls-10" d="M308.62,271.59c-14,35.59-36.37,71-60.91,100.29q-8,9.5-16.59,18.41" />
      <path class="GUNDAN_TIGER_OUTFIT_TIGER_OUTFIT_19_cls-10" d="M322.8,279.07h0l0,.1a.25.25,0,0,0,0,.07.32.32,0,0,1,0,.06.19.19,0,0,0,0,.07q-2,6.24-4.39,12.5-3.15,8.39-6.83,16.78c-4.9,11.17-10.46,22.27-16.54,33.1q-1.85,3.28-3.76,6.53l-.83,1.43-.07.11q-2.36,4-4.78,7.86a.24.24,0,0,0-.06.09c-.83,1.32-1.65,2.63-2.49,3.93q-5,7.82-10.34,15.32-2.66,3.72-5.36,7.36l0,0q-2.72,3.65-5.49,7.17s0,0,0,0c-1.85,2.36-3.73,4.69-5.61,7h0q-2.53,3.06-5.1,6l-.63.73" />
      <path class="GUNDAN_TIGER_OUTFIT_TIGER_OUTFIT_19_cls-10" d="M322.73,279.31a.32.32,0,0,0,0-.06s0-.09.05-.17q-2.42-.88-4.76-2a58.86,58.86,0,0,1-9.42-5.51" />
      <path class="GUNDAN_TIGER_OUTFIT_TIGER_OUTFIT_19_cls-10" d="M213.13,375.39q-2.49-2.11-5-4.26c-13.88-12-40.76-24.44-53.86-37.3-17.8-17.49-35.41-36.7-42.49-60.68-3.58,2.43-7.13,4.49-10.69,6.79-.87.53-1.72,1.11-2.58,1.69L97,283" />
      <path class="GUNDAN_TIGER_OUTFIT_TIGER_OUTFIT_19_cls-10" d="M265.37,416.49q-7.58-5.49-15-11.16-9.71-7.36-19.24-15-9.09-7.34-18-14.89" />
      <path class="GUNDAN_TIGER_OUTFIT_TIGER_OUTFIT_19_cls-10" d="M101.12,279.94c26.78,62.49,85.44,116.83,141.94,154.33" />
      <path class="GUNDAN_TIGER_OUTFIT_TIGER_OUTFIT_19_cls-10" d="M216.52,449.71a201.47,201.47,0,0,0,24.17-13.84l.15-.1,2.22-1.5q7.19-4.93,13.93-10.5l.1-.08h0q4.23-3.49,8.27-7.2l.53-.49c.27-.25.54-.49.8-.75l.72-.69a195.65,195.65,0,0,0,22.75-25.44c22-29.34,39.57-69.16,43.23-105.73a.62.62,0,0,0,0-.09l-4.64-1.85-.83-.33-5.14-2" />
      <path class="GUNDAN_TIGER_OUTFIT_TIGER_OUTFIT_19_cls-10" d="M348.56,421.75c.43-.44.86-.89,1.3-1.33l2.55-2.6c4.62-4.76,9.21-9.56,13.72-14.41h0q3.08-3.28,6.08-6.6,6.39-7.05,12.54-14.32,6-7.11,11.72-14.49c2.15-2.76,4.26-5.57,6.32-8.4-4.59-3.67-9.1-6.88-13.69-10.56,1-6.22,2.17-11.64,3.18-17.87-6.71-3.42-13.65-6.63-20.38-10.05l-.51.38a32.13,32.13,0,0,0-5.47-7.88,4.67,4.67,0,0,0-4.46-1.63c-1-4.37,1.73-11.44.68-15.81-1.62,1.17-3.47,2.7-5.08,3.87-.32-2.31-.62-4.22-.93-6.46l0-.12-.06-.44-.16.05a11.1,11.1,0,0,1-4.22-.59l-1-.27c-.47-.14-.95-.3-1.46-.47-1.47-.48-3.06-1.07-4.67-1.75l-.63-.27a44.43,44.43,0,0,1-8.47-4.66,16.12,16.12,0,0,1-2-1.76" />
      <path class="GUNDAN_TIGER_OUTFIT_TIGER_OUTFIT_19_cls-10" d="M347.92,422.39l.62-.62" />
      <path class="GUNDAN_TIGER_OUTFIT_TIGER_OUTFIT_19_cls-10" d="M331.18,505.46c.05.05.08.05.09-.06.27-4.47,2.41-8.11,4.65-12-1.9-5.64-4.32-11-3.72-16.89s4.18-11.47,8.73-15.39l.22-.19c-.08-.2-.17-.4-.25-.59-1.27-3-2.41-5.69-3.73-8.78l1.31-2.84c1.09-2.41,2.13-4.85,3.12-7.29q3.94-9.68,6.94-19.65a0,0,0,0,1,0,0,223,223,0,0,0,9.38-57" />
      <path class="GUNDAN_TIGER_OUTFIT_TIGER_OUTFIT_19_cls-10" d="M409.65,419.93q-1.92-4.5-3.54-9.08A176.76,176.76,0,0,1,396.48,368" />
      <path class="GUNDAN_TIGER_OUTFIT_TIGER_OUTFIT_19_cls-10" d="M406.11,410.85a27.32,27.32,0,0,1,9.38,6.58c.22,3.28.67,6.07.88,9.34,0,0,2.83,5.32.8,9.14" />
      <path class="GUNDAN_TIGER_OUTFIT_TIGER_OUTFIT_19_cls-10" d="M341.6,441.42a58.07,58.07,0,0,0,11.51,5.24,59.49,59.49,0,0,0,23.78,3.24c6.9-.62,14.15-4,20.55-8a116,116,0,0,0,18.93-15.1" />
      <path class="GUNDAN_TIGER_OUTFIT_TIGER_OUTFIT_19_cls-10" d="M247.71,371.88a166.91,166.91,0,0,1-20.43-11.12q-2.67-1.68-5.4-3.5C176,326.78,111.81,273.15,111.81,273.15" />
      <path class="GUNDAN_TIGER_OUTFIT_TIGER_OUTFIT_19_cls-10" d="M21.83,377.65c-1.4-1.53-2.18-3-2.12-4.42.41-8,6-9.68,6-9.68s-.23-1.75-.43-4.09a52.34,52.34,0,0,1-.16-8.39c0-.37.07-.73.11-1.06.21-1.32.55-2.31,1.12-2.66a1.1,1.1,0,0,1,1.2.06c21,11.51,34.67-17.51,38.05-34.82S52,293.47,52,293.47c10.67-12.18,32.88-11.4,32.88-11.4s1.49-4.78,7.06-2.87A12.44,12.44,0,0,1,97,283c4.1,4.7,7.88,12.9,8.93,22.07.94,8.08-.88,25.75-3.8,40,0,0-.75-7.32-7.69-6.9" />
      <path class="GUNDAN_TIGER_OUTFIT_TIGER_OUTFIT_19_cls-10" d="M71.42,370.5c1.1,5.68,5.59,5.53,7.67,5.14a9,9,0,0,0,1-.25l-1,.43c-3,1.25-5.21,1.91-5.21,1.91s-2.5,2.29-5.86,5c-4.52,3.71-10.59,8.27-14.1,9.14a13.15,13.15,0,0,1-5.27-.42,73.24,73.24,0,0,1-15.62-6c-4.62-2.39-8.8-5.13-11.2-7.8" />
      <path class="GUNDAN_TIGER_OUTFIT_TIGER_OUTFIT_19_cls-10" d="M71.42,370.5c-9.86,13.54-24.79,12.81-31.2,10.08s-14.53-17-14.53-17" />
      <path class="GUNDAN_TIGER_OUTFIT_TIGER_OUTFIT_19_cls-10" d="M84.86,282.07c11.44,5.58,13.81,27.83,13.23,34-.36,3.94-1.79,13.19-3.68,22.1h0" />
      <path class="GUNDAN_TIGER_OUTFIT_TIGER_OUTFIT_19_cls-10" d="M77.81,366.57a60.44,60.44,0,0,1-6.39,3.93,20.74,20.74,0,0,1-7.19-21.39c3.4-13.77,13.37-20.34,20.29-17s9.87,6.05,9.87,6.05c-.49,2.34-1,4.64-1.58,6.83-.64,2.55-1.32,4.94-2,7C88.76,358,82.64,363.21,77.81,366.57Z" />
      <path class="GUNDAN_TIGER_OUTFIT_TIGER_OUTFIT_19_cls-10" d="M113.05,359.7c0,4.46-4.82,22.69-12.41,25.85a4.83,4.83,0,0,1-1.26.39c-8.33,1.55-19.23-10.57-19.23-10.57,5.24-2.25,12.38-6,15.84-11.13,2.19-3.23,4.35-10.56,6.11-19.16C102.1,345.08,113.05,355,113.05,359.7Z" />
      <path class="GUNDAN_TIGER_OUTFIT_TIGER_OUTFIT_19_cls-10" d="M92.81,345s-10-11.57-18.13-3.87-3.6,21,3.13,25.43" />
      <path class="GUNDAN_TIGER_OUTFIT_TIGER_OUTFIT_19_cls-10" d="M34.66,303a23.34,23.34,0,0,1,12.81-8.78,19,19,0,0,1,4.51-.7" />
      <path class="GUNDAN_TIGER_OUTFIT_TIGER_OUTFIT_19_cls-10" d="M26.33,347.35a43.49,43.49,0,0,1-1.8-6.55,34.79,34.79,0,0,1,3.32-23.44c-2.57-2.33-.54-5.73,2.46-6a30.33,30.33,0,0,1,4.3-8.39" />
      <path class="GUNDAN_TIGER_OUTFIT_TIGER_OUTFIT_19_cls-10" d="M30.31,311.37s.93.61,2.36,1.51c3,1.86,8.32,5,12,6.11.44.14.82.29,1.2.44a6.88,6.88,0,0,1,2.81,1.92,1.88,1.88,0,0,1-1,3.23c-1.36.37-5.48-.72-9.83-2.37-1.8-.69-3.63-1.47-5.33-2.28a39.79,39.79,0,0,1-4.66-2.57" />
      <path class="GUNDAN_TIGER_OUTFIT_TIGER_OUTFIT_19_cls-10" d="M32.67,312.88c1.69-2.79,6.12-9.06,10.79-7.45,5.25,1.79,4.52,9.34,2.43,14" />
      <path class="GUNDAN_TIGER_OUTFIT_TIGER_OUTFIT_19_cls-10" d="M34.61,303l0,0c.59-.41,7.65-5,14-.31,6.65,4.91,0,18.71,0,18.71" />
      <path class="GUNDAN_TIGER_OUTFIT_TIGER_OUTFIT_19_cls-10" d="M32.51,319.93c-1.74,4.76-6,16.92-4.66,19.68,1.68,3.46,3.67-1.18,5.39-6.72a72.27,72.27,0,0,1,4.6-10.68" />
      <path class="GUNDAN_TIGER_OUTFIT_TIGER_OUTFIT_19_cls-10" d="M47.47,294.17s14.46,5.28,11.34,19.55-17.54,40-34.28,27.08" />
      <path class="GUNDAN_TIGER_OUTFIT_TIGER_OUTFIT_19_cls-10" d="M79.09,375.64v.18c-.6,8.88-1.44,31.36,3.06,48q-.48,10.8-.83,18.66Q81.17,446,81,449c-.45,10.31-.67,15.3-.67,15.3s-8,14.45-7.86,20.77" />
      <path class="GUNDAN_TIGER_OUTFIT_TIGER_OUTFIT_19_cls-10" d="M10.08,420.64c1.17-1.35,2.58-5.24,4-10.17.39-1.32.77-2.71,1.16-4.14.92-3.45,1.84-7.15,2.67-10.7,2.15-9.23,3.79-17.53,3.89-18h0" />
      <path class="GUNDAN_TIGER_OUTFIT_TIGER_OUTFIT_19_cls-10" d="M14.11,410.47c-3.22,1.27-8.19,3.58-8.64,5.95-.68,3.55-.68,13.49-.68,13.49s-1.85,1.73,0,5.72c-3.5,10.28-9.18,30.07-14.06,49.5-.76,3-1.49,6-2.19,8.92-3.45,14.3-6.18,27.52-7,35.55H420.92" />
      <path class="GUNDAN_TIGER_OUTFIT_TIGER_OUTFIT_19_cls-10" d="M44.1,430.34c7.13-4,16.06-10.87,22.63-16.29,3.76-3.12,6.74-5.74,8.14-7" />
      <path class="GUNDAN_TIGER_OUTFIT_TIGER_OUTFIT_19_cls-10" d="M26.24,427.19s4.07,9.95,15.33,4.49c.81-.39,1.66-.84,2.53-1.32" />
      <path class="GUNDAN_TIGER_OUTFIT_TIGER_OUTFIT_19_cls-10" d="M4.79,429.91a63.79,63.79,0,0,0,16.84,14" />
      <path class="GUNDAN_TIGER_OUTFIT_TIGER_OUTFIT_19_cls-10" d="M117.48,379.67c2.32-4.72,3.37-8.31,3.58-11.07.73-9.34-8-8.9-8-8.9" />
      <path class="GUNDAN_TIGER_OUTFIT_TIGER_OUTFIT_19_cls-10" d="M100.64,385.55s3.45,7.55,9.6,4.9a10.51,10.51,0,0,0,1.57-.87" />
      <path class="GUNDAN_TIGER_OUTFIT_TIGER_OUTFIT_19_cls-10" d="M121.06,368.6c.83,1.23,40.65,40.36,95.46,81.11,6,4.48,12.39,9,19.1,13.44,53.44,35.58,85.56,48.35,98.42,55.16,3.69,2,5.79,3.43,6.37,4.81a11.43,11.43,0,0,1,.41,6.48" />
      <path class="GUNDAN_TIGER_OUTFIT_TIGER_OUTFIT_19_cls-10" d="M310.55,529.6c-24.62-11.55-65.25-33.09-97.82-57.59-5.3-4-10.38-8-15.14-12.16-.33-.27-.64-.55-1-.83-48-41.92-82.39-62.8-86.38-68.57" />
      <path class="GUNDAN_TIGER_OUTFIT_TIGER_OUTFIT_19_cls-10" d="M33,385.46c-1.53,7.49-5.36,26.43-8.27,41.47-1.36,7.06-2.53,13.27-3.13,17h0" />
      <path class="GUNDAN_TIGER_OUTFIT_TIGER_OUTFIT_19_cls-10" d="M48.65,391.48c-.91,7.8-2.89,24.7-4.55,38.86v0c-1,8.29-1.83,15.64-2.3,19.66" />
      <path class="GUNDAN_TIGER_OUTFIT_TIGER_OUTFIT_19_cls-10" d="M68,382.76c-.25,6.33-.71,18.69-1.29,31.29-.62,13.77-1.35,27.82-2,34.59" />
      <path class="GUNDAN_TIGER_OUTFIT_TIGER_OUTFIT_19_cls-10" d="M25.09,351.06h0c.58.46,16.14,12.37,32.67-6" />
      <path class="GUNDAN_TIGER_OUTFIT_TIGER_OUTFIT_19_cls-10" d="M227.28,360.76c-14.94-1.44-14.15,14.63-14.15,14.63h0" />
      <path class="GUNDAN_TIGER_OUTFIT_TIGER_OUTFIT_19_cls-10" d="M208.16,371.13s.52-14.1,13.72-13.87" />
      <path class="GUNDAN_TIGER_OUTFIT_TIGER_OUTFIT_19_cls-10" d="M235.62,463.15S268,458,290.55,442.73s50.76-56.61,41.79-51.75-31.76,32.67-45.6,40.3" />
      <path class="GUNDAN_TIGER_OUTFIT_TIGER_OUTFIT_19_cls-10" d="M361.47,312s-3.47,33.7-3.53,44.08" />
      <path class="GUNDAN_TIGER_OUTFIT_TIGER_OUTFIT_19_cls-10" d="M357.06,300s-6.81,29.57-11.14,42.11" />
      <path class="GUNDAN_TIGER_OUTFIT_TIGER_OUTFIT_19_cls-10" d="M344.56,290s-3.72,17.74-7.24,33.48c-4,18-9.59,29.07-9.59,29.07" />
      <path class="GUNDAN_TIGER_OUTFIT_TIGER_OUTFIT_19_cls-10" d="M389.1,349s-9.43,22.64-15.41,32.78" />
      <line class="GUNDAN_TIGER_OUTFIT_TIGER_OUTFIT_19_cls-10" x1="384.75" y1="382.48" x2="397.22" y2="441.51" />
      <line class="GUNDAN_TIGER_OUTFIT_TIGER_OUTFIT_19_cls-10" x1="372.22" y1="396.8" x2="376.89" y2="449.9" />
      <line class="GUNDAN_TIGER_OUTFIT_TIGER_OUTFIT_19_cls-10" x1="352.41" y1="417.82" x2="353.11" y2="446.66" />
      <path class="GUNDAN_TIGER_OUTFIT_TIGER_OUTFIT_19_cls-10" d="M12.71,362.86a10.21,10.21,0,0,1,2.73-2.21A11.45,11.45,0,0,1,19,359.39a17.76,17.76,0,0,1,6.24.07" />
      <path class="GUNDAN_TIGER_OUTFIT_TIGER_OUTFIT_19_cls-10" d="M13.3,389.37a32.88,32.88,0,0,1-3.62-7.87,21.57,21.57,0,0,1-.56-11c.05-.24.11-.48.17-.73a16.51,16.51,0,0,1,3.42-6.89" />
      <path class="GUNDAN_TIGER_OUTFIT_TIGER_OUTFIT_19_cls-10" d="M17.94,395.63a45.83,45.83,0,0,1-4.62-6.26" />
      <path class="GUNDAN_TIGER_OUTFIT_TIGER_OUTFIT_19_cls-10" d="M15.27,406.33a60.46,60.46,0,0,1-8.07-9.25,46.5,46.5,0,0,1-5.38-9.75,32.65,32.65,0,0,1-2.39-15.2,29.92,29.92,0,0,1,.85-4.74,27.19,27.19,0,0,1,4-9,19.89,19.89,0,0,1,6.68-6A20.48,20.48,0,0,1,17,350.26a26.07,26.07,0,0,1,8.26-.25" />
      <path class="GUNDAN_TIGER_OUTFIT_TIGER_OUTFIT_19_cls-10" d="M17,350.26s4.49,2,2.07,9.13h0" />
      <path class="GUNDAN_TIGER_OUTFIT_TIGER_OUTFIT_19_cls-10" d="M4.32,358.42s6.11-3.26,8.39,4.44v0" />
      <path class="GUNDAN_TIGER_OUTFIT_TIGER_OUTFIT_19_cls-10" d="M-.55,372.13s4.81-5.26,9.67-1.63" />
      <path class="GUNDAN_TIGER_OUTFIT_TIGER_OUTFIT_19_cls-10" d="M1.82,387.33s1.66-8,7.86-5.83" />
      <path class="GUNDAN_TIGER_OUTFIT_TIGER_OUTFIT_19_cls-10" d="M7.2,397.11v0c0-.59-.18-7.8,6.1-7.71h0" />
      <ellipse class="GUNDAN_TIGER_OUTFIT_TIGER_OUTFIT_19_cls-10" cx="107.25" cy="359.06" rx="2.98" ry="2.99" />
      <ellipse class="GUNDAN_TIGER_OUTFIT_TIGER_OUTFIT_19_cls-10" cx="97.38" cy="376.68" rx="2.98" ry="2.99" />
      <g class="GUNDAN_TIGER_OUTFIT_TIGER_OUTFIT_19_cls-11">
        <path d="M97.17,282.85c.32-.28,7.34-5.05,7.34-5.05s37.22,49.67,81.56,92.16,71,53.73,71,53.73l-16.4,12.18s-49.29-10.71-80.54-46.5c12.18,20.36,53.77,44.9,53.77,44.9s-50.1-27.47-71.81-51L120.4,359.76l17.06,29.61L121.34,369s.22-6.86-3.86-8.28l-4.07-1.42s-4.65-8.64-10.84-13.79c2.15-16.37,4.94-35.95,2.29-46.17A47.64,47.64,0,0,0,97.17,282.85Z" />
        <path d="M93.28,343.1s-2.16,14-9.78,18.95-12.08,8.45-12.08,8.45-9.15,10.27-18,11-15,1.08-21.15-8.66c-5.88,1-1.53,11.36-1.53,11.36S39,398.85,41.8,412.45s3.43,17.46,3.43,17.46l14.26-10.07s-7.49,16.88-12.92,23-7,7.07-7,7.07,22.36,3.47,41.73-7.07l.84-18.64s-3.72-19.07-3.63-29.42.63-18.72.63-18.72h1.63s17,19.45,26.48,2.37a10.4,10.4,0,0,0,10.94-.22l-5.14,7.38,7.44-5.88v-10s-6.15.8-9.86-1.92c-11.4-4-12.46-8.07-12.46-8.07S103.89,342.88,93.28,343.1Z" />
        <path d="M109.92,390.57c.32-.12,7.64-3.33,11.19-9.3l-1.43,8.29s79,67.23,140.4,100.93,72.53,38.69,72.53,38.69l-22.06.42s-58.25-25.25-106.93-65.29S109.92,390.57,109.92,390.57Z" />
        <path d="M236.37,463.15c1.84-.47,38.4-7.49,60.87-25.55S336.53,397,336.53,396s.7,11.5-5.35,20.54-31.83,37-49.88,44.2S256.57,470,256.57,470l-4.67,3.68Z" />
        <path d="M357.06,299.19v4.59s-.68,1.42-1.87,4.16c-2.18,5-6.07,14.49-10.63,27.79C337.62,356,325,379.54,324.63,380.27c.35-.77,11.58-25.71,17.46-50.26,5.12-21.35,6.77-34.84,7.14-38.27,0-.58.08-.87.08-.87a5,5,0,0,0,1.38,1.34,10,10,0,0,0,5.42,1.25l0,.12Z" />
        <path d="M297.17,407a195.18,195.18,0,0,0,11.49-17.59C304.8,397.36,300.88,403.67,297.17,407Z" />
        <path d="M343.93,289.72a169.14,169.14,0,0,0-9.55,36.07,250.72,250.72,0,0,1-25.72,63.62c13.66-28.11,26.59-76.69,26.91-86,.21-6.06.07-13-.11-18.31A44.43,44.43,0,0,0,343.93,289.72Z" />
        <path d="M333.41,283.3a.62.62,0,0,1,0,.09,291.65,291.65,0,0,1-21.27,69.15c-13.94,31-37.64,55.2-44.71,62l-.72.69-.8.75-.53.49-8.8-7.45s42.64-56.41,43.86-59.27,28.34-68.32,28.34-68.32Z" />
        <path d="M322.8,279.08s-5.41,14-21.87,50.22c-18.17,37-47.66,71.69-51.07,75.65l-.33.38-10.86-9h0c.57-.53,18.92-17.51,30.67-35.78s38.34-60.82,39.26-62.28c-.45.89-7.84,15.44-18.5,41.32,13-21.84,23.88-53.36,27.93-62.45Q320.38,278.19,322.8,279.08Z" />
        <path d="M366.12,403.43s4.32,23.23,6.1,30.84S375.31,450,375.31,450V414.5l7.92,34.13s3.65.89,2,8.38a241.53,241.53,0,0,0,6.41,32.14s4,3.58.81,10.86c2.41,20.64,3.23,29.59,2.68,29.59H342l-1.42-78-2.06-2.85,11.4-28.31a104.2,104.2,0,0,0,16.65-40.22,173,173,0,0,1,14.86-43.84s-10.25,36.46-12,49.13S366.12,403.43,366.12,403.43Z" />
        <path d="M61.26,326.69s7,7.1,11.8,7.51c3.28-2.51,4.37-2.39,4.37-2.39a24.07,24.07,0,0,0,7.43,7.48c2.06,5.12,8,10.51,8,10.51s-4.41,18.25-21.39,22.33c-15.8,13.61-29.68,14.23-36.81,5.52a122.61,122.61,0,0,1-8.92-13.71l-.7-4.79s-11.86-3.08-15.54,10.07,8.49,26.41,8.49,26.41l-2,8.08s-13.35-14.51-11.64-32S25,352.53,25,352.53s.14-4.71,1.13-5.67l-1.81-5.54S35.17,343.14,46,330s9.56-28,7.19-31.44c5,8.45,7.26,22.08-.2,34C55.8,332.12,61.26,326.69,61.26,326.69Z" />
        <path d="M69.59,283.82s-9.77,7.18-9.1,13a23.43,23.43,0,0,0-9.26-3.34S59.41,285.41,69.59,283.82Z" />
      </g>
    </g>
  </g>
</svg>