<svg xmlns="http://www.w3.org/2000/svg" viewBox="0 0 432 432">
  <defs>
    <style>.GUNDAN_TIGER_OUTFIT_TIGER_OUTFIT_9_cls-1{isolation:isolate;}.GUNDAN_TIGER_OUTFIT_TIGER_OUTFIT_9_cls-2{fill:#2f1c5c;}.GUNDAN_TIGER_OUTFIT_TIGER_OUTFIT_9_cls-3{fill:#885f43;}.GUNDAN_TIGER_OUTFIT_TIGER_OUTFIT_9_cls-4{fill:#fff;}.GUNDAN_TIGER_OUTFIT_TIGER_OUTFIT_9_cls-5{fill:#2a413b;}.GUNDAN_TIGER_OUTFIT_TIGER_OUTFIT_9_cls-6{fill:#fad988;}.GUNDAN_TIGER_OUTFIT_TIGER_OUTFIT_9_cls-7{fill:none;stroke:#000;stroke-linecap:round;stroke-linejoin:round;stroke-width:1.41px;}.GUNDAN_TIGER_OUTFIT_TIGER_OUTFIT_9_cls-8{opacity:0.22;mix-blend-mode:multiply;}</style>
  </defs>
  <g class="GUNDAN_TIGER_OUTFIT_TIGER_OUTFIT_9_cls-1">
    <g id="outfit">
      <path class="GUNDAN_TIGER_OUTFIT_TIGER_OUTFIT_9_cls-2" d="M75,409.91l-5.63-3a2.33,2.33,0,0,0-2.9.57,1.92,1.92,0,0,0-.88-2.59,2.33,2.33,0,0,0-3,.72L61.68,407l-3.52,5.54-1.09-.6a2.31,2.31,0,0,0-3,.73,1.94,1.94,0,0,0,.79,2.78l1.1.6L52,422.12l-.49.76a2,2,0,0,0,.8,2.78,2.3,2.3,0,0,0,2,.12,2,2,0,0,0,1.09,1.52l6.37,3.43a2.31,2.31,0,0,0,3-.73l9.52-15,1.49-2.33A1.93,1.93,0,0,0,75,409.91ZM62.08,426.19l-4.46-2.4a2.31,2.31,0,0,0-1.36-.26L59.75,418l2.46,1.33a2.34,2.34,0,0,0,3-.73,1.94,1.94,0,0,0-.8-2.78L62,414.53,66.15,408a1.33,1.33,0,0,1,.18-.38l.1-.14h0a.61.61,0,0,1-.07.17l-.22.35a1.93,1.93,0,0,0,1,2.4l3.73,2Z" />
      <path class="GUNDAN_TIGER_OUTFIT_TIGER_OUTFIT_9_cls-3" d="M67.12,410.39a1.93,1.93,0,0,1-1-2.4L62,414.53l2.46,1.33a1.94,1.94,0,0,1,.8,2.78,2.34,2.34,0,0,1-3,.73L59.75,418l-3.49,5.49a2.31,2.31,0,0,1,1.36.26l4.46,2.4,8.77-13.8Z" />
      <path class="GUNDAN_TIGER_OUTFIT_TIGER_OUTFIT_9_cls-3" d="M54.05,412.62a2.31,2.31,0,0,1,3-.73l1.09.6L61.68,407c-12.36-6.25-20.74-5.53-20.74-5.53a38.23,38.23,0,0,0-5.3,6.79c-1.36,2.26-2.65,4.55-3.86,6.81,0,0,12.73,1.37,20.25,7.1L55.94,416l-1.1-.6A1.94,1.94,0,0,1,54.05,412.62Z" />
      <path class="GUNDAN_TIGER_OUTFIT_TIGER_OUTFIT_9_cls-3" d="M82.82,424.87C80.51,423.6,74.3,415,74.3,415l-9.52,15s6.79,5.84,10.66,8c3.71,2,6.07,2.09,6.23,2.09L86,430.85h0l1.08-2.27.65-1.95A19.18,19.18,0,0,1,82.82,424.87Z" />
      <path class="GUNDAN_TIGER_OUTFIT_TIGER_OUTFIT_9_cls-4" d="M52.59,364.64l-7.8,4.74a43.41,43.41,0,0,0-.68-8.45l-7.28,7.48c1.49,5.21,2.51,9,2.48,10.51A18.36,18.36,0,0,0,26.19,385c-3.89,4.41-5.29,10.81-1.84,17.6a30.64,30.64,0,0,0-10.76,8.48s0,0,0,0h0c-4.91,6.08-7.37,13.82-6.25,21.21L17,437.67c1.65-5.59,7.31-23.46,14.78-33.56a43.58,43.58,0,0,1,3.07-3.67c4.88-5.27,11.5-10.3,17-14.08C56.61,375.4,52.59,364.64,52.59,364.64Z" />
      <path class="GUNDAN_TIGER_OUTFIT_TIGER_OUTFIT_9_cls-2" d="M64.35,362.91c-7.84-8.15-20-9.68-27.43-9.76-1.77,0-3.27,0-4.38.09.33,1.26.67,2.5,1,3.7,5.74.37,19,1.86,25.91,7.93,1.9,12.48,2.49,15,2.49,15s-4.48,2.55-10.19,6.49c-5.46,3.78-12.08,8.81-17,14.08a43.58,43.58,0,0,0-3.07,3.67c-7.47,10.1-13.13,28-14.78,33.56l-9.66-5.34L-.53,428v0c-.11-1-2.74-25.63-17.46-34l.17,12.36A49.36,49.36,0,0,1-3.5,428.76h0c.28.95.53,1.91.76,2.9,4.68,2.44,8.26,4.41,10.93,5.93,5.13,2.92,7,4.25,7,4.25l6,13.38S8.22,473.69,4.94,496.15H9s.56-2.87,1.67-7.18a125.77,125.77,0,0,1,7.49-21.6c2.27-4.82,4.95-9.23,8.06-12.26-3-5.52-4.94-9.54-6.23-12.28l.73-2.76s.92-2.63,2.58-6.75c1.92-4.72,4.84-11.39,8.51-18.3,1.21-2.26,2.5-4.55,3.86-6.81a38.23,38.23,0,0,1,5.3-6.79c10.56-10.95,26.6-17.13,26.6-17.13Z" />
      <path class="GUNDAN_TIGER_OUTFIT_TIGER_OUTFIT_9_cls-5" d="M36.83,368.41c-1-3.34-2.11-7.25-3.28-11.47-.34-1.2-.68-2.44-1-3.7a209.89,209.89,0,0,1-5.47-25c-3.67,7.25-7.34,17.67-10.76,29.11h0A48.12,48.12,0,0,1,26.19,385a18.36,18.36,0,0,1,13.12-6.09C39.34,377.46,38.32,373.62,36.83,368.41Z" />
      <path class="GUNDAN_TIGER_OUTFIT_TIGER_OUTFIT_9_cls-5" d="M-2.74,431.66c-.23-1-.48-2-.76-2.9a49.36,49.36,0,0,0-14.32-22.4l.85,65h0c2.7,4.24,6.94,7.67,13.61,6.06a66.65,66.65,0,0,1,4-12.24c6.31-14,8.12-17.05,8.12-17.05l-.53-10.52C5.52,436.07,1.94,434.1-2.74,431.66Z" />
      <path class="GUNDAN_TIGER_OUTFIT_TIGER_OUTFIT_9_cls-6" d="M52.07,349.64A38.66,38.66,0,0,1,41,340.07l-4.07,13.08c7.43.08,19.59,1.61,27.43,9.76l3.19,21.38s-16,6.18-26.6,17.13c0,0,8.38-.72,20.74,5.53l.87-1.37a2.33,2.33,0,0,1,3-.72,1.92,1.92,0,0,1,.88,2.59,2.33,2.33,0,0,1,2.9-.57l5.63,3a1.93,1.93,0,0,1,.8,2.78L74.3,415s6.21,8.58,8.52,9.85a19.18,19.18,0,0,0,4.94,1.75l4.51-13.51s3.26-24.57,3.26-31.78V363.89l.13-.86C81.63,361.31,65.4,357,52.07,349.64Z" />
      <path class="GUNDAN_TIGER_OUTFIT_TIGER_OUTFIT_9_cls-6" d="M64.78,430a2.31,2.31,0,0,1-3,.73l-6.37-3.43a2,2,0,0,1-1.09-1.52,2.3,2.3,0,0,1-2-.12,2,2,0,0,1-.8-2.78l.49-.76c-7.52-5.73-20.25-7.1-20.25-7.1-3.67,6.91-6.59,13.58-8.51,18.3,6,3.76,21.39,12.72,32.22,13.37a165.86,165.86,0,0,0,22.75,0h0c1.64-3.14,2.85-5.41,2.85-5.41l.57-1.21c-.16,0-2.52-.05-6.23-2.09C71.57,435.84,64.78,430,64.78,430Z" />
      <path class="GUNDAN_TIGER_OUTFIT_TIGER_OUTFIT_9_cls-6" d="M33.55,356.94c1.17,4.22,2.32,8.13,3.28,11.47l7.28-7.48a43.41,43.41,0,0,1,.68,8.45l7.8-4.74s4,10.76-.83,21.72c5.71-3.94,10.19-6.49,10.19-6.49s-.59-2.52-2.49-15C52.59,358.8,39.29,357.31,33.55,356.94Z" />
      <path class="GUNDAN_TIGER_OUTFIT_TIGER_OUTFIT_9_cls-6" d="M16.31,357.36C8,385.13,1.24,418.88-.53,428v0l7.82,4.33c-1.12-7.39,1.34-15.13,6.25-21.21h0s0,0,0,0a30.64,30.64,0,0,1,10.76-8.48c-3.45-6.79-2.05-13.19,1.84-17.6A48.12,48.12,0,0,0,16.31,357.36Z" />
      <path class="GUNDAN_TIGER_OUTFIT_TIGER_OUTFIT_9_cls-6" d="M279.76,454.51c-38.94-10.3-73.39-27.49-99.54-43.34-24,31.79-58.75,73.49-83.32,85,0,0-9.24,6.59-19.53,12.63H329.1C311,499,292.51,474.39,279.76,454.51Z" />
      <path class="GUNDAN_TIGER_OUTFIT_TIGER_OUTFIT_9_cls-6" d="M77.44,487.59c2.23-2.07,3.66-3.44,3.66-3.44,18.07-14,52.07-56,76.51-87.62q-5.56-3.86-10.15-7.24a12.72,12.72,0,0,1-3.07.45c-11.5.21-12.88-5.6-9.54-10.14-3.81-3.06-6.06-5-6.51-5.43a14.51,14.51,0,0,1-2.1-2.29h0a20.84,20.84,0,0,1-11.66-8.18h0a99.33,99.33,0,0,1-18.9-.67l-.13.86v17.44c0,7.21-3.26,31.78-3.26,31.78l-4.51,13.51-.65,1.95L86,430.84h0c0,4.85-.66,10.2-2.78,13.74l-.31.49a140.18,140.18,0,0,1-10.26,13.33l-2.24,9s2.74,9,7.93,15.06C77.75,483,77.5,485.15,77.44,487.59Z" />
      <path class="GUNDAN_TIGER_OUTFIT_TIGER_OUTFIT_9_cls-6" d="M217.62,379.79c-4.44-.19-9.16-.47-14-.89-1.61,2.31-3.63,5.21-6,8.57a382.14,382.14,0,0,0,58.64,29.18C244.78,401.78,228.86,386.38,217.62,379.79Z" />
      <path class="GUNDAN_TIGER_OUTFIT_TIGER_OUTFIT_9_cls-6" d="M153,356.33c1,.8,2.21,1.79,3.64,2.92,1-2,3-4.68,5.41-3.78,3.73,1.35,7.6,4.9,6.38,9.35a19.33,19.33,0,0,1-1,2.61c2.45,1.79,5.13,3.7,8,5.69,2.93-3.9,5.38-7.18,7.18-9.61-4.17-4-8.45-8.29-12-12A39.91,39.91,0,0,0,147.29,340a18.36,18.36,0,0,1,5.94,13.41A17.37,17.37,0,0,1,153,356.33Z" />
      <path class="GUNDAN_TIGER_OUTFIT_TIGER_OUTFIT_9_cls-3" d="M266.05,431.42a116.51,116.51,0,0,0-9.83-14.77h0a382.14,382.14,0,0,1-58.64-29.18c-2.14-1.28-4.2-2.57-6.22-3.83-5.84-3.67-11.14-7.21-15.89-10.52-2.89-2-5.57-3.9-8-5.69-2.77,6.32-10.48,19.28-20,21.86q4.57,3.38,10.15,7.24c6.59,4.55,14.17,9.52,22.61,14.64,26.15,15.85,60.6,33,99.54,43.34C273.67,445,268.88,436.62,266.05,431.42Z" />
      <path class="GUNDAN_TIGER_OUTFIT_TIGER_OUTFIT_9_cls-3" d="M160.31,362.11c-1.34-1-2.57-2-3.67-2.86-1.43-1.13-2.64-2.12-3.64-2.92-1.54,9.27-10.23,16.36-20.73,16.36a23,23,0,0,1-6-.81,14.51,14.51,0,0,0,2.1,2.29c.45.4,2.7,2.37,6.51,5.43,1.36,1.1,2.91,2.33,4.65,3.67C155.62,379,159.42,367.77,160.31,362.11Z" />
      <path class="GUNDAN_TIGER_OUTFIT_TIGER_OUTFIT_9_cls-4" d="M81.1,484.15s-1.43,1.37-3.66,3.44c-3.3,3.09-8.36,7.74-13.1,11.82-4.29,3.69-8.36,6.91-10.6,8.07l-1.62,1.3H77.37c10.29-6,19.53-12.63,19.53-12.63,24.57-11.49,59.3-53.19,83.32-85-8.44-5.12-16-10.09-22.61-14.64C133.17,428.11,99.17,470.19,81.1,484.15Z" />
      <path class="GUNDAN_TIGER_OUTFIT_TIGER_OUTFIT_9_cls-4" d="M182.64,363.51c-1.8,2.43-4.25,5.71-7.18,9.61,4.75,3.31,10,6.85,15.89,10.52,2,1.26,4.08,2.55,6.22,3.83,2.39-3.36,4.41-6.26,6-8.57-1.45-.13-2.91-.26-4.38-.41C197.78,377.72,190.41,371,182.64,363.51Z" />
      <path class="GUNDAN_TIGER_OUTFIT_TIGER_OUTFIT_9_cls-4" d="M303.35,265.87s-64.85,47.8-95.93,62.47c-36.9-24.37-78.2-79.08-78.2-79.08l-7.75,14.19L130,285.73c6.75,3.66,19.47,12.37,29.2,29.85a87.15,87.15,0,0,1,17.89,9.27c17.2,11.62,35,15,45.14,12.31a13.36,13.36,0,0,0,5.86-3c7.23-6.81,62.82-50.29,89.08-54,.59-1.87,1.12-3.46,1.61-4.83Z" />
      <path class="GUNDAN_TIGER_OUTFIT_TIGER_OUTFIT_9_cls-5" d="M455.89,478.08c-1.17-1.68-3.41-5.1-6.16-9.42-8-12.58-20.39-32.8-22.94-39.84,4.11-5.29,5.5-11.6,1.2-14.37s-6.61-9.2-8.94-24.12-12.25-33.62-12.25-33.62c3.34-1.71,5.33-3,5.69-4.86-1-1.18-17.26-13.26-21.25-19.18s-7.39-27.61-15.25-34.88c-1.15-5.75-7.72-6-7.72-6a24.4,24.4,0,0,0-2.57-.21L364,286.47s8-11.84,7.08-12.79-10.44-6.28-20.61-7.81-28.2,1.53-28.2,1.53-1.09.91-3.55,8c-.49,1.37-1,3-1.61,4.83-26.26,3.67-81.85,47.15-89.08,54a13.36,13.36,0,0,1-5.86,3c-10.09,2.68-27.94-.69-45.14-12.31a87.15,87.15,0,0,0-17.89-9.27c-9.73-17.48-22.45-26.19-29.2-29.85l7.9,24.75,2.64,8.23v0L147.29,340v0a39.91,39.91,0,0,1,23.38,11.53c3.52,3.67,7.8,7.93,12,12,7.77,7.5,15.14,14.21,16.57,15,1.47.15,2.93.28,4.38.41,4.87.42,9.59.7,14,.89,2.08.11,5.94,1,11.49,2.57a226.61,226.61,0,0,1,32,32.35A159.62,159.62,0,0,1,271,428.44a7,7,0,0,1,5.1-2.13,6.58,6.58,0,0,1,6.84,6.27,6.5,6.5,0,0,1-6.06,6.24c.12.22.24.43.34.65A122.87,122.87,0,0,0,287.15,456h0q2.83,4.09,6,8.13a6.9,6.9,0,0,1,6.09-3.45,6.58,6.58,0,0,1,6.83,6.27,6.43,6.43,0,0,1-5.34,6.14,190.41,190.41,0,0,0,21.84,20.72,6.93,6.93,0,0,1,6.12-3.47,6.58,6.58,0,0,1,6.83,6.27,6,6,0,0,1-2.48,4.83c7.8,5.11,15.24,8.62,21.58,9.81,22.15,4.16,47.84,1.19,50.75.84l.28,0a131.93,131.93,0,0,0,15.08-4.26c21.64-7.57,44-12.94,44-12.94S460.44,484.62,455.89,478.08Z" />
      <path class="GUNDAN_TIGER_OUTFIT_TIGER_OUTFIT_9_cls-2" d="M47.84,308.21a2.11,2.11,0,0,0-2.19-2h0a2.14,2.14,0,0,0-2.21,2c0,1.17,0,11.61,1.14,15.34A2.19,2.19,0,0,0,46.68,325a2.11,2.11,0,0,0,.6-.08,2,2,0,0,0,1.52-2.52C48,319.72,47.83,311.25,47.84,308.21Z" />
      <path class="GUNDAN_TIGER_OUTFIT_TIGER_OUTFIT_9_cls-2" d="M64.41,307.4A2.2,2.2,0,0,0,62,305.62,2.09,2.09,0,0,0,60,307.89c.07.61,2,14.94,5.56,21.29a2.22,2.22,0,0,0,2,1.09,2.16,2.16,0,0,0,1-.23,1.94,1.94,0,0,0,1-2.73C66.28,321.61,64.43,307.55,64.41,307.4Z" />
      <path class="GUNDAN_TIGER_OUTFIT_TIGER_OUTFIT_9_cls-2" d="M79.52,302a2.22,2.22,0,0,0-2.61-1.58,2,2,0,0,0-1.72,2.38c.16.71,3.84,17.28,9.28,24.34a2.28,2.28,0,0,0,1.81.87,2.34,2.34,0,0,0,1.29-.38,1.93,1.93,0,0,0,.51-2.83C83.17,318.43,79.56,302.16,79.52,302Z" />
      <path class="GUNDAN_TIGER_OUTFIT_TIGER_OUTFIT_9_cls-2" d="M107.16,323.25c-8.23-11.28-10.44-28.53-10.47-28.7a2.17,2.17,0,0,0-2.45-1.79A2.08,2.08,0,0,0,92.3,295c.09.75,2.36,18.4,11.17,30.52a2.3,2.3,0,0,0,1.84.89,2.39,2.39,0,0,0,1.24-.34A2,2,0,0,0,107.16,323.25Z" />
      <path class="GUNDAN_TIGER_OUTFIT_TIGER_OUTFIT_9_cls-5" d="M101.55,269.53s-5-2.64-9.58-.2c-1,.56-3.16,1.49-6,2.62-4.54,1.81-8,9.84-14.21,11.82a111,111,0,0,1-15.26,3.93,23.47,23.47,0,0,1-3,.29c-3.13.06-6.34-.2-9.29-.2-4.91,0-9.09.64-11.05,4.46a9.77,9.77,0,0,0-1,3c-1,5.77,1.08,18.37,8.3,30.26h0a0,0,0,0,0,0,0,54.28,54.28,0,0,0,22.6,21q3.6,1.77,7.28,3.17h0v0a118,118,0,0,0,27.29,6.68,134.19,134.19,0,0,0,14.14,1.07,17.36,17.36,0,0,1-.47-4,18.06,18.06,0,0,1,1.88-8A20.28,20.28,0,0,1,123.46,336ZM47.28,324.92a2.11,2.11,0,0,1-.6.08,2.19,2.19,0,0,1-2.12-1.47c-1.18-3.73-1.14-14.17-1.14-15.34a2.14,2.14,0,0,1,2.21-2h0a2.11,2.11,0,0,1,2.19,2c0,3,.12,11.51,1,14.19A2,2,0,0,1,47.28,324.92ZM62,305.62a2.2,2.2,0,0,1,2.46,1.78c0,.15,1.87,14.21,5.09,19.91a1.94,1.94,0,0,1-1,2.73,2.16,2.16,0,0,1-1,.23,2.22,2.22,0,0,1-2-1.09C62,322.83,60.09,308.5,60,307.89A2.09,2.09,0,0,1,62,305.62Zm32.29-12.86a2.17,2.17,0,0,1,2.45,1.79c0,.17,2.24,17.42,10.47,28.7a2,2,0,0,1-.61,2.82,2.39,2.39,0,0,1-1.24.34,2.3,2.3,0,0,1-1.84-.89C94.66,313.4,92.39,295.75,92.3,295A2.08,2.08,0,0,1,94.24,292.76Zm-17.33,7.65A2.22,2.22,0,0,1,79.52,302c0,.17,3.65,16.44,8.56,22.8a1.93,1.93,0,0,1-.51,2.83,2.34,2.34,0,0,1-1.29.38,2.28,2.28,0,0,1-1.81-.87c-5.44-7.06-9.12-23.63-9.28-24.34A2,2,0,0,1,76.91,300.41Z" />
      <path class="GUNDAN_TIGER_OUTFIT_TIGER_OUTFIT_9_cls-2" d="M354.67,511.29c-6.34-1.19-13.78-4.7-21.58-9.81a6,6,0,0,0,2.48-4.83,6.58,6.58,0,0,0-6.83-6.27,6.93,6.93,0,0,0-6.12,3.47,190.41,190.41,0,0,1-21.84-20.72,6.43,6.43,0,0,0,5.34-6.14,6.58,6.58,0,0,0-6.83-6.27,6.9,6.9,0,0,0-6.09,3.45q-3.19-4-6-8.13h0a122.87,122.87,0,0,1-9.94-16.57c-.1-.22-.22-.43-.34-.65a6.5,6.5,0,0,0,6.06-6.24,6.58,6.58,0,0,0-6.84-6.27,7,7,0,0,0-5.1,2.13,159.62,159.62,0,0,0-9.85-13.73,226.61,226.61,0,0,0-32-32.35c-5.55-1.54-9.41-2.46-11.49-2.57,11.24,6.59,27.16,22,38.59,36.86h0a116.51,116.51,0,0,1,9.83,14.77c2.83,5.2,7.62,13.6,13.71,23.09C292.51,474.39,311,499,329.1,508.78a36.53,36.53,0,0,0,9.34,3.63c23,5.19,47.17,4.08,67-.28C402.51,512.48,376.82,515.45,354.67,511.29Z" />
      <path class="GUNDAN_TIGER_OUTFIT_TIGER_OUTFIT_9_cls-2" d="M162.05,355.47c-2.43-.9-4.37,1.8-5.41,3.78,1.1.86,2.33,1.83,3.67,2.86-.89,5.66-4.69,16.85-20.81,21.16-1.74-1.34-3.29-2.57-4.65-3.67-3.34,4.54-2,10.35,9.54,10.14a12.72,12.72,0,0,0,3.07-.45c9.5-2.58,17.21-15.54,20-21.86a19.33,19.33,0,0,0,1-2.61C169.65,360.37,165.78,356.82,162.05,355.47Z" />
      <path class="GUNDAN_TIGER_OUTFIT_TIGER_OUTFIT_9_cls-2" d="M153,356.33a17.37,17.37,0,0,0,.23-2.9A18.36,18.36,0,0,0,147.29,340v0l-6.79-21.27v0l-2.64-8.23L130,285.73l-8.49-22.28-1.07-3.36-18.85,9.44L123.46,336a20.28,20.28,0,0,0-10.25,9.49,18.06,18.06,0,0,0-1.88,8,17.36,17.36,0,0,0,.47,4,134.19,134.19,0,0,1-14.14-1.07,118,118,0,0,1-27.29-6.68v0h0q-3.67-1.4-7.28-3.17a54.28,54.28,0,0,1-22.6-21,0,0,0,0,1,0,0h0c-7.22-11.89-9.27-24.49-8.3-30.26a9.77,9.77,0,0,1,1-3c-2.76-1.07-6.84-2.2-8.62-.43-2.32,2.27,2.31,30.93,16.49,48.25a38.66,38.66,0,0,0,11.08,9.57C65.4,357,81.63,361.31,95.66,363a99.33,99.33,0,0,0,18.9.67h0a20.84,20.84,0,0,0,11.66,8.18h0a23,23,0,0,0,6,.81C142.77,372.69,151.46,365.6,153,356.33Z" />
      <path class="GUNDAN_TIGER_OUTFIT_TIGER_OUTFIT_9_cls-7" d="M114.56,363.7a18.14,18.14,0,0,1-2.76-6.24,17.36,17.36,0,0,1-.47-4,18.06,18.06,0,0,1,1.88-8A20.28,20.28,0,0,1,123.46,336a22.29,22.29,0,0,1,8.81-1.79,21.78,21.78,0,0,1,15,5.84" />
      <path class="GUNDAN_TIGER_OUTFIT_TIGER_OUTFIT_9_cls-7" d="M126.23,371.88a20.84,20.84,0,0,1-11.66-8.18" />
      <path class="GUNDAN_TIGER_OUTFIT_TIGER_OUTFIT_9_cls-7" d="M147.29,340a18.36,18.36,0,0,1,5.94,13.41,17.37,17.37,0,0,1-.23,2.9c-1.54,9.27-10.23,16.36-20.73,16.36a23,23,0,0,1-6-.81" />
      <polyline class="GUNDAN_TIGER_OUTFIT_TIGER_OUTFIT_9_cls-7" points="140.5 318.73 147.29 340 147.29 340.02" />
      <polyline class="GUNDAN_TIGER_OUTFIT_TIGER_OUTFIT_9_cls-7" points="123.46 335.95 101.55 269.53 120.39 260.09 121.47 263.45 129.96 285.73 137.86 310.48 140.5 318.71" />
      <path class="GUNDAN_TIGER_OUTFIT_TIGER_OUTFIT_9_cls-7" d="M70.37,349.71a118,118,0,0,0,27.29,6.68,134.19,134.19,0,0,0,14.14,1.07" />
      <path class="GUNDAN_TIGER_OUTFIT_TIGER_OUTFIT_9_cls-7" d="M40.47,325.54a54.28,54.28,0,0,0,22.6,21q3.6,1.77,7.28,3.17" />
      <path class="GUNDAN_TIGER_OUTFIT_TIGER_OUTFIT_9_cls-7" d="M101.55,269.53s-5-2.64-9.58-.2c-1,.56-3.16,1.49-6,2.62-4.54,1.81-8,9.84-14.21,11.82a111,111,0,0,1-15.26,3.93,23.47,23.47,0,0,1-3,.29c-3.13.06-6.34-.2-9.29-.2-4.91,0-9.09.64-11.05,4.46a9.77,9.77,0,0,0-1,3c-1,5.77,1.08,18.37,8.3,30.26" />
      <path class="GUNDAN_TIGER_OUTFIT_TIGER_OUTFIT_9_cls-7" d="M33.12,292.25c-2.76-1.07-6.84-2.2-8.62-.43-2.32,2.27,2.31,30.93,16.49,48.25a38.66,38.66,0,0,0,11.08,9.57C65.4,357,81.63,361.31,95.66,363a99.33,99.33,0,0,0,18.9.67h0" />
      <path class="GUNDAN_TIGER_OUTFIT_TIGER_OUTFIT_9_cls-7" d="M121.47,263.45l7.75-14.19s41.3,54.71,78.2,79.08c4.88,3.23,9.83,6.22,14.77,8.82" />
      <path class="GUNDAN_TIGER_OUTFIT_TIGER_OUTFIT_9_cls-7" d="M130,285.73c6.75,3.66,19.47,12.37,29.2,29.85" />
      <path class="GUNDAN_TIGER_OUTFIT_TIGER_OUTFIT_9_cls-7" d="M365.7,291.59,364,286.47s8-11.84,7.08-12.79-10.44-6.28-20.61-7.81-28.2,1.53-28.2,1.53-1.09.91-3.55,8c-.49,1.37-1,3-1.61,4.83-26.26,3.67-81.85,47.15-89.08,54a13.36,13.36,0,0,1-5.86,3c-10.09,2.68-27.94-.69-45.14-12.31a87.15,87.15,0,0,0-17.89-9.27,83.32,83.32,0,0,0-21.3-5.1" />
      <path class="GUNDAN_TIGER_OUTFIT_TIGER_OUTFIT_9_cls-7" d="M207.42,328.34c31.08-14.67,95.93-62.47,95.93-62.47l15.39,9.5" />
      <path class="GUNDAN_TIGER_OUTFIT_TIGER_OUTFIT_9_cls-7" d="M147.29,340a39.91,39.91,0,0,1,23.38,11.53c3.52,3.67,7.8,7.93,12,12,7.77,7.5,15.14,14.21,16.57,15,1.47.15,2.93.28,4.38.41,4.87.42,9.59.7,14,.89,15.61.66,27.66,0,30-1.3,3.23-1.78,16.18-16.22,29.92-36.9s48.18-40.59,65.17-42" />
      <path class="GUNDAN_TIGER_OUTFIT_TIGER_OUTFIT_9_cls-7" d="M140.5,318.71v0c8.12,1.6,31,7.94,52.4,31.07" />
      <path class="GUNDAN_TIGER_OUTFIT_TIGER_OUTFIT_9_cls-7" d="M369.87,381c10.82-4.39,26-18.83,32.19-21.91,1.8-.89,3.39-1.67,4.74-2.36,3.34-1.71,5.33-3,5.69-4.86-1-1.18-17.26-13.26-21.25-19.18s-7.39-27.61-15.25-34.88c-1.15-5.75-7.72-6-7.72-6a24.4,24.4,0,0,0-2.57-.21c-5.7-.28-20.75,0-44.06,7.67-30.26,9.95-55.72,23.82-82.9,47.86-19.57,10.05-42.11,4.62-42.11,4.62s8.46,10.53,11.2,13.69" />
      <path class="GUNDAN_TIGER_OUTFIT_TIGER_OUTFIT_9_cls-7" d="M426.79,417.45s-15.28,9.39-29.29,9.39-36.74-10.18-51.85-14-30.66,0-30.66,0" />
      <path class="GUNDAN_TIGER_OUTFIT_TIGER_OUTFIT_9_cls-7" d="M256.21,416.65c-11.43-14.87-27.35-30.27-38.59-36.86,2.08.11,5.94,1,11.49,2.57,7.3,2,17.53,5.13,30.41,8.8,22.67,6.48,52-1.57,62-17.36s31.76-32.52,31.76-32.52" />
      <path class="GUNDAN_TIGER_OUTFIT_TIGER_OUTFIT_9_cls-7" d="M405.42,512.13c-19.81,4.36-44,5.47-67,.28a36.39,36.39,0,0,1-9.34-3.63C311,499,292.51,474.39,279.76,454.51c-6.09-9.49-10.88-17.89-13.71-23.09a116.51,116.51,0,0,0-9.83-14.77" />
      <path class="GUNDAN_TIGER_OUTFIT_TIGER_OUTFIT_9_cls-7" d="M406.8,356.71s9.94,18.7,12.25,33.62,4.65,21.36,8.94,24.12,2.91,9.08-1.2,14.37c2.55,7,14.92,27.26,22.94,39.84,2.75,4.32,5,7.74,6.16,9.42,4.55,6.54,8.84,16.81,8.84,16.81s-22.31,5.37-44,12.94a131.93,131.93,0,0,1-15.08,4.26" />
      <path class="GUNDAN_TIGER_OUTFIT_TIGER_OUTFIT_9_cls-7" d="M153,356.33c1,.8,2.21,1.79,3.64,2.92,1.1.86,2.33,1.83,3.67,2.86" />
      <path class="GUNDAN_TIGER_OUTFIT_TIGER_OUTFIT_9_cls-7" d="M126.23,371.88h0a14.51,14.51,0,0,0,2.1,2.29c.45.4,2.7,2.37,6.51,5.43,1.36,1.1,2.91,2.33,4.65,3.67" />
      <path class="GUNDAN_TIGER_OUTFIT_TIGER_OUTFIT_9_cls-7" d="M167.44,367.43c2.45,1.79,5.13,3.7,8,5.69,4.75,3.31,10,6.85,15.89,10.52,2,1.26,4.08,2.55,6.22,3.83a382.14,382.14,0,0,0,58.64,29.18h0" />
      <path class="GUNDAN_TIGER_OUTFIT_TIGER_OUTFIT_9_cls-7" d="M147.46,389.29q4.57,3.38,10.15,7.24c6.59,4.55,14.17,9.52,22.61,14.64,26.15,15.85,60.6,33,99.54,43.34" />
      <path class="GUNDAN_TIGER_OUTFIT_TIGER_OUTFIT_9_cls-7" d="M160.57,358.72a18.89,18.89,0,0,1-.26,3.39c-.89,5.66-4.69,16.85-20.81,21.16-.92.25-1.86.46-2.85.67" />
      <path class="GUNDAN_TIGER_OUTFIT_TIGER_OUTFIT_9_cls-7" d="M156.64,359.25c1-2,3-4.68,5.41-3.78,3.73,1.35,7.6,4.9,6.38,9.35a19.33,19.33,0,0,1-1,2.61c-2.77,6.32-10.48,19.28-20,21.86a12.72,12.72,0,0,1-3.07.45c-11.5.21-12.88-5.6-9.54-10.14" />
      <path class="GUNDAN_TIGER_OUTFIT_TIGER_OUTFIT_9_cls-7" d="M182.64,363.51c-1.8,2.43-4.25,5.71-7.18,9.61" />
      <path class="GUNDAN_TIGER_OUTFIT_TIGER_OUTFIT_9_cls-7" d="M52.12,508.78l1.62-1.3c2.24-1.16,6.31-4.38,10.6-8.07,4.74-4.08,9.8-8.73,13.1-11.82,2.23-2.07,3.66-3.44,3.66-3.44,18.07-14,52.07-56,76.51-87.62" />
      <path class="GUNDAN_TIGER_OUTFIT_TIGER_OUTFIT_9_cls-7" d="M77.37,508.78c10.29-6,19.53-12.63,19.53-12.63,24.57-11.49,59.3-53.18,83.32-85" />
      <path class="GUNDAN_TIGER_OUTFIT_TIGER_OUTFIT_9_cls-7" d="M203.59,378.9c-1.61,2.31-3.63,5.21-6,8.57" />
      <path class="GUNDAN_TIGER_OUTFIT_TIGER_OUTFIT_9_cls-7" d="M86,272s1,22.75,6.81,41.38c4.68,14.95,16.12,27.69,20.42,32.11" />
      <path class="GUNDAN_TIGER_OUTFIT_TIGER_OUTFIT_9_cls-7" d="M71.77,283.77a83,83,0,0,0,7.44,41.72,174.66,174.66,0,0,0,18.45,30.9" />
      <path class="GUNDAN_TIGER_OUTFIT_TIGER_OUTFIT_9_cls-7" d="M70.37,349.71v0h0c-13-17.32-14-48.89-13.84-62" />
      <path class="GUNDAN_TIGER_OUTFIT_TIGER_OUTFIT_9_cls-7" d="M44.17,287.79c-2.36,7.9-6,23.44-3.71,37.73h0a0,0,0,0,0,0,0" />
      <path class="GUNDAN_TIGER_OUTFIT_TIGER_OUTFIT_9_cls-7" d="M86,430.85l-4.36,9.22-.57,1.21s-1.21,2.27-2.85,5.41" />
      <path class="GUNDAN_TIGER_OUTFIT_TIGER_OUTFIT_9_cls-7" d="M91.24,396.05s-9.11-20.37-7-10.88,8.08,27.94,8.08,27.94l-4.51,13.51-.65,1.95L86,430.84" />
      <polyline class="GUNDAN_TIGER_OUTFIT_TIGER_OUTFIT_9_cls-7" points="36.79 353.58 36.92 353.15 40.99 340.07" />
      <path class="GUNDAN_TIGER_OUTFIT_TIGER_OUTFIT_9_cls-7" d="M13.54,411.12c-4.91,6.08-7.37,13.82-6.25,21.21" />
      <path class="GUNDAN_TIGER_OUTFIT_TIGER_OUTFIT_9_cls-7" d="M16.31,357.35c3.42-11.44,7.09-21.86,10.76-29.11a209.89,209.89,0,0,0,5.47,25c.33,1.26.67,2.5,1,3.7,1.17,4.22,2.32,8.13,3.28,11.47,1.49,5.21,2.51,9,2.48,10.51A18.36,18.36,0,0,0,26.19,385c-3.89,4.41-5.29,10.81-1.84,17.6a30.64,30.64,0,0,0-10.76,8.48" />
      <path class="GUNDAN_TIGER_OUTFIT_TIGER_OUTFIT_9_cls-7" d="M-.53,428c1.77-9.1,8.56-42.85,16.84-70.62" />
      <path class="GUNDAN_TIGER_OUTFIT_TIGER_OUTFIT_9_cls-7" d="M20,442.83l.73-2.76s.92-2.63,2.58-6.75c1.92-4.72,4.84-11.39,8.51-18.3,1.21-2.26,2.5-4.55,3.86-6.81a38.23,38.23,0,0,1,5.3-6.79c10.56-10.95,26.6-17.13,26.6-17.13L64.35,362.9c-7.84-8.14-20-9.67-27.43-9.75-1.77,0-3.27,0-4.38.09" />
      <path class="GUNDAN_TIGER_OUTFIT_TIGER_OUTFIT_9_cls-7" d="M33.55,356.94c5.74.37,19,1.86,25.91,7.93,1.9,12.48,2.49,15,2.49,15s-4.48,2.55-10.19,6.49c-5.46,3.78-12.08,8.81-17,14.08a43.58,43.58,0,0,0-3.07,3.67c-7.47,10.1-13.13,28-14.78,33.56" />
      <path class="GUNDAN_TIGER_OUTFIT_TIGER_OUTFIT_9_cls-7" d="M13.54,411.12h0s0,0,0,0c4.24-1.68,11.41-6.22,17.69-12.22a50.28,50.28,0,0,0,9.55-12.13,38.12,38.12,0,0,0,4-17.36,43.41,43.41,0,0,0-.68-8.45l-7.28,7.48" />
      <path class="GUNDAN_TIGER_OUTFIT_TIGER_OUTFIT_9_cls-7" d="M44.79,369.38l7.8-4.74s4,10.76-.83,21.72" />
      <path class="GUNDAN_TIGER_OUTFIT_TIGER_OUTFIT_9_cls-7" d="M26.19,385a48.12,48.12,0,0,0-9.88-27.65h0" />
      <path class="GUNDAN_TIGER_OUTFIT_TIGER_OUTFIT_9_cls-7" d="M-17,471.33l-.85-65L-18,394C-3.27,402.35-.64,427-.53,428v0l7.82,4.33L17,437.67l.91.5s.56,1.43,2.1,4.66c1.29,2.74,3.28,6.76,6.23,12.28-3.11,3-5.79,7.44-8.06,12.26A125.77,125.77,0,0,0,10.64,489C9.53,493.28,9,496.15,9,496.15h-4" />
      <path class="GUNDAN_TIGER_OUTFIT_TIGER_OUTFIT_9_cls-7" d="M4.1,508.78l.11-5.13a71.06,71.06,0,0,1,.73-7.5c3.28-22.46,16.21-40.93,16.21-40.93l-6-13.38s-1.84-1.33-7-4.25c-2.67-1.52-6.25-3.49-10.93-5.93-.23-1-.48-2-.76-2.9a49.36,49.36,0,0,0-14.32-22.4" />
      <path class="GUNDAN_TIGER_OUTFIT_TIGER_OUTFIT_9_cls-7" d="M318.81,291.53s15.32-15.24,26.92-17,25.37-.84,25.37-.84" />
      <path class="GUNDAN_TIGER_OUTFIT_TIGER_OUTFIT_9_cls-7" d="M229.11,382.36a226.61,226.61,0,0,1,32,32.35A159.62,159.62,0,0,1,271,428.44" />
      <path class="GUNDAN_TIGER_OUTFIT_TIGER_OUTFIT_9_cls-7" d="M276.87,438.82a6.5,6.5,0,0,0,6.06-6.24,6.58,6.58,0,0,0-6.84-6.27,7,7,0,0,0-5.1,2.13" />
      <path class="GUNDAN_TIGER_OUTFIT_TIGER_OUTFIT_9_cls-7" d="M261.14,414.71s36.68,6.06,63.3,17.86,64.91,15.11,83.63,0c-13.22,16.53-24.39,21.59-24.39,21.59" />
      <path class="GUNDAN_TIGER_OUTFIT_TIGER_OUTFIT_9_cls-7" d="M66.44,407.47h0l-.1.14a1.33,1.33,0,0,0-.18.38,1.93,1.93,0,0,0,1,2.4l3.73,2-8.77,13.8-4.46-2.4a2.31,2.31,0,0,0-1.36-.26" />
      <path class="GUNDAN_TIGER_OUTFIT_TIGER_OUTFIT_9_cls-7" d="M54.3,425.78a2,2,0,0,0,1.09,1.52l6.37,3.43a2.31,2.31,0,0,0,3-.73l9.52-15,1.49-2.33a1.93,1.93,0,0,0-.8-2.78l-5.63-3a2.33,2.33,0,0,0-2.9.57" />
      <path class="GUNDAN_TIGER_OUTFIT_TIGER_OUTFIT_9_cls-7" d="M59.75,418l-3.49,5.49-.9,1.41a2,2,0,0,1-1,.83h0a2.3,2.3,0,0,1-2-.12,2,2,0,0,1-.8-2.78l.49-.76L55.94,416" />
      <path class="GUNDAN_TIGER_OUTFIT_TIGER_OUTFIT_9_cls-7" d="M58.16,412.49,61.68,407l.87-1.37a2.33,2.33,0,0,1,3-.72,1.92,1.92,0,0,1,.88,2.59s0,0,0,0a.61.61,0,0,1-.07.17l-.22.35L62,414.53" />
      <path class="GUNDAN_TIGER_OUTFIT_TIGER_OUTFIT_9_cls-7" d="M55.94,416l-1.1-.6a1.94,1.94,0,0,1-.79-2.78,2.31,2.31,0,0,1,3-.73l1.09.6,3.82,2,2.46,1.33a1.94,1.94,0,0,1,.8,2.78,2.34,2.34,0,0,1-3,.73L59.75,418Z" />
      <path class="GUNDAN_TIGER_OUTFIT_TIGER_OUTFIT_9_cls-7" d="M40.94,401.42s8.38-.72,20.74,5.53" />
      <path class="GUNDAN_TIGER_OUTFIT_TIGER_OUTFIT_9_cls-7" d="M31.78,415s12.73,1.37,20.25,7.1" />
      <path class="GUNDAN_TIGER_OUTFIT_TIGER_OUTFIT_9_cls-7" d="M64.78,430s6.79,5.84,10.66,8c3.71,2,6.07,2.09,6.23,2.09h0" />
      <path class="GUNDAN_TIGER_OUTFIT_TIGER_OUTFIT_9_cls-7" d="M74.3,415s6.21,8.58,8.52,9.85a19.18,19.18,0,0,0,4.94,1.75" />
      <path class="GUNDAN_TIGER_OUTFIT_TIGER_OUTFIT_9_cls-7" d="M76.7,377.19c1.27,15.87,15.57,35.92,15.57,35.92s3.26-24.57,3.26-31.78V363.89" />
      <path class="GUNDAN_TIGER_OUTFIT_TIGER_OUTFIT_9_cls-7" d="M86,430.84h0c0,4.85-.66,10.2-2.78,13.74l-.31.49a140.18,140.18,0,0,1-10.26,13.33l-2.24,9s2.74,9,7.93,15.06c-.62.53-.87,2.68-.93,5.12" />
      <path class="GUNDAN_TIGER_OUTFIT_TIGER_OUTFIT_9_cls-7" d="M103.25,374.34s-2.92,28.74-11,38.77" />
      <path class="GUNDAN_TIGER_OUTFIT_TIGER_OUTFIT_9_cls-7" d="M72.68,458.41s21.81-7,30.92-15.54,15.63-28.34,15.63-28.34" />
      <path class="GUNDAN_TIGER_OUTFIT_TIGER_OUTFIT_9_cls-7" d="M107.16,323.25c-8.23-11.28-10.44-28.53-10.47-28.7a2.17,2.17,0,0,0-2.45-1.79A2.08,2.08,0,0,0,92.3,295c.09.75,2.36,18.4,11.17,30.52a2.3,2.3,0,0,0,1.84.89,2.39,2.39,0,0,0,1.24-.34A2,2,0,0,0,107.16,323.25Z" />
      <path class="GUNDAN_TIGER_OUTFIT_TIGER_OUTFIT_9_cls-7" d="M79.52,302a2.22,2.22,0,0,0-2.61-1.58,2,2,0,0,0-1.72,2.38c.16.71,3.84,17.28,9.28,24.34a2.28,2.28,0,0,0,1.81.87,2.34,2.34,0,0,0,1.29-.38,1.93,1.93,0,0,0,.51-2.83C83.17,318.43,79.56,302.16,79.52,302Z" />
      <path class="GUNDAN_TIGER_OUTFIT_TIGER_OUTFIT_9_cls-7" d="M64.41,307.4A2.2,2.2,0,0,0,62,305.62,2.09,2.09,0,0,0,60,307.89c.07.61,2,14.94,5.56,21.29a2.22,2.22,0,0,0,2,1.09,2.16,2.16,0,0,0,1-.23,1.94,1.94,0,0,0,1-2.73C66.28,321.61,64.43,307.55,64.41,307.4Z" />
      <path class="GUNDAN_TIGER_OUTFIT_TIGER_OUTFIT_9_cls-7" d="M47.84,308.21a2.11,2.11,0,0,0-2.19-2h0a2.14,2.14,0,0,0-2.21,2c0,1.17,0,11.61,1.14,15.34A2.19,2.19,0,0,0,46.68,325a2.11,2.11,0,0,0,.6-.08,2,2,0,0,0,1.52-2.52C48,319.72,47.83,311.25,47.84,308.21Z" />
      <g class="GUNDAN_TIGER_OUTFIT_TIGER_OUTFIT_9_cls-8">
        <path d="M129.57,249.67s24.74,46.89,35.73,58.09c24,12.94,32.32,26.5,56.89,29.4-16,3.24-41.05-5.76-54-7.77,22.23,9.71,58,24.17,81.83,7.52,23.35-20.79,41.22-30.07,62.14-34.26-30.73,18.43-50.38,44.58-64.81,58.28S200,372.52,200,372.52s32,5.67,50.87-7S275.29,345,275.29,345s-21.62,31.84-27.66,33.54-40.41,1.31-48.76-.21c-12.82-11.51-20.07-18.32-26.56-25s-17.43-12.78-25-13.22c-12.56,0-22.37,12-18,19.2s17.89,7.32,22.17,1.93c-4,6.6-8.21,8.68-8.21,8.68l8.37,6.76s-7.25,6.78-12.79,6.68c-9.61-8.32-12.61-11.61-12.61-11.61s-8.51-.85-13.75-11.91c-15.61,1.13-56.76-4.43-76.33-32.26l-8.61-13.81S22,292.35,25.17,291.33,33,292,33,292s2.19-5,12.5-4.24,18-.87,32.07-6.06,15.66-14,19.47-13.4,5.8.76,5.8.76l17.63-8.76,1.18,2.88Z" />
        <path d="M103.25,374.34s4,26.35,0,38.77c7.61-11.61,10-31.39,10-31.39s6.61,26.52-1.41,39.25a221.92,221.92,0,0,1-17.43,23.62s10.18-5.11,13.66-8.12S119.23,416,119.23,416s-4.89,24.22-11.33,33.1A200.14,200.14,0,0,1,95,465l14.14-9S106,472.9,95.53,481.78s-15.71,11.84-15.71,11.84,23.57-6.75,43.4-30.08,47.69-58.17,47.69-58.17l13.68,8.41s-7,20-27.69,41.71a352.87,352.87,0,0,1-39.34,35.62s31.55-15.49,56.92-33.72c-7.47,10.89-50.25,45.32-50.25,45.32s76.31-42.83,104.88-66c-32.22,39.07-66,72.11-66,72.11H60.76s21.49-21.57,28.84-31c-11.33,8.83-11.68,9.34-11.68,9.34l.45-4.67s-5.46-7.4-7.93-15.06l2.82-11s13.39-10.91,12.36-24.64c5.53-14.45,5.4-19.18,5.4-19.18l-5.9-11.24s-13,26.61-17.58,35.08-23.91,21.86-28.68,32.64l-3,7.38s2.83-39.95,6.57-50.55c-12.37,28.25-26.19,57.77-27.78,63.85s11.76-35.28,11.76-35.28S34.27,428.14,45.77,411s18-22.33,18-22.33l13.58-7s-3.1-13.75-1-20.7c4.25,18.86,10.47,30.89,11.42,33.87-2.14-21.76,1.84-23.06,3.32-16.67s1.21,17.88,1.21,17.88S102.34,395.38,103.25,374.34Z" />
        <path d="M228.32,382.15l12.13,16.52s12.6,11.2,28.74,35.76,22.61,47.06,61.11,65.26,83.91,9.89,99,5.29c-22.34-7.45-67.22-14.23-80.41-26.63,35.91,6.39,61.81,8.31,81.92-7.1-50.47,3.07-55.11,1.31-87.74-19.75S297.35,423,297.35,423s-16.48-18.72-33.48-26.49S228.32,382.15,228.32,382.15Z" />
        <path d="M268.85,392s19.75-6.92,34.52-14.19,31.25-39.62,49.8-50.2,35.2,4.42,35.2,4.42-19.92-4.26-36.23,9.63a200.22,200.22,0,0,0-31.82,33.84c-6.65,8.71-23.36,20.16-36.79,22.23,10.73-2.47,27.56-19.44,27.56-19.44S285.33,394.23,268.85,392Z" />
        <path d="M395.05,363.85S384.2,377.54,357,386.38a178.6,178.6,0,0,0-45.48,22.15s38.38-14.73,53.5-15,49.51-19.37,49.51-19.37-4.58-13.2-7.73-17.4A108.92,108.92,0,0,0,395.05,363.85Z" />
      </g>
    </g>
  </g>
</svg>