<svg xmlns="http://www.w3.org/2000/svg" viewBox="0 0 432 432">
  <defs>
    <style>.GUNDAN_TIGER_OUTFIT_TIGER_OUTFIT_37_cls-1{isolation:isolate;}.GUNDAN_TIGER_OUTFIT_TIGER_OUTFIT_37_cls-2{fill:#b89f75;}.GUNDAN_TIGER_OUTFIT_TIGER_OUTFIT_37_cls-3{fill:#0d0907;}.GUNDAN_TIGER_OUTFIT_TIGER_OUTFIT_37_cls-4{fill:#cfc6bf;}.GUNDAN_TIGER_OUTFIT_TIGER_OUTFIT_37_cls-5{fill:#9b8c7e;}.GUNDAN_TIGER_OUTFIT_TIGER_OUTFIT_37_cls-6{fill:#fff;}.GUNDAN_TIGER_OUTFIT_TIGER_OUTFIT_37_cls-7{fill:#0b0704;opacity:0.3;mix-blend-mode:multiply;}.GUNDAN_TIGER_OUTFIT_TIGER_OUTFIT_37_cls-8{fill:#806f5d;}.GUNDAN_TIGER_OUTFIT_TIGER_OUTFIT_37_cls-9{fill:#7d6a57;}.GUNDAN_TIGER_OUTFIT_TIGER_OUTFIT_37_cls-10{fill:#0b0605;}.GUNDAN_TIGER_OUTFIT_TIGER_OUTFIT_37_cls-11{fill:#908970;}.GUNDAN_TIGER_OUTFIT_TIGER_OUTFIT_37_cls-12{fill:none;}.GUNDAN_TIGER_OUTFIT_TIGER_OUTFIT_37_cls-12,.GUNDAN_TIGER_OUTFIT_TIGER_OUTFIT_37_cls-13{stroke:#000;stroke-linecap:round;stroke-linejoin:round;stroke-width:1.69px;}.GUNDAN_TIGER_OUTFIT_TIGER_OUTFIT_37_cls-13{fill:#baa98b;}</style>
  </defs>
  <g class="GUNDAN_TIGER_OUTFIT_TIGER_OUTFIT_37_cls-1">
    <g id="outfit">
      <path class="GUNDAN_TIGER_OUTFIT_TIGER_OUTFIT_37_cls-2" d="M372.43,383.2c-12.66,4.18-16.58-1.16-19-4.64-3.22-4.61,1.76-14.53,11.15-21.93.92-.73,1.86-1.46,2.8-2.17h0c0-.43.84-8.78-1.82-14.62h0l5.28-.08s1.37-3.42-3.73-5a19.4,19.4,0,0,0,.82-3.58c.3-2.67-.52-4-2-5h0c1.91-9.12-20.9-13.28-22.63-20.61-1.18-5-3.21-7.39-5.92-7.87a8.37,8.37,0,0,0-4.39.58,17.66,17.66,0,0,0-3.58-10.77q-.33-.42-.69-.84c-.31-.36-.64-.71-1-1.06l-.65-.63c-.3-.27-.6-.54-.92-.8a20.37,20.37,0,0,0-2.49-1.75c-.28-.17-.58-.34-.88-.5a22.54,22.54,0,0,0-7-2.36c-38,25.57-95.5,29.32-95.5,29.32h0c-41.66-10.19-67.9-22.74-84.91-32.14v0c-11.63-6.42-12.92-7.16-17.91-8.93-17.32-6.12-20.37,5.44-39.17,17.69l-.14.3c-2.19-1.08-3.21-1.67-3.21-1.67s-5.59.49-7.64,13.49c-.09,2.12,1.16,4.53,3.91,7.13,0,0-3.9,4.69-9.54,13.08q-1.71,2.55-3.6,5.53c3.1,3,9.92,8.75,21.77,15.19,2,1.11,4.19,2.23,6.49,3.35s4.54,2.26,6.56,3.36c16.77,9.14,21.53,16.42,19.07,22.25-1.2,2.86-4.15,6.25-10,8.19a273.53,273.53,0,0,0,33.58,6.09,272.49,272.49,0,0,0,56.8,1.38,183.24,183.24,0,0,0,28.22-4.63c.21.41,3.74,7.66-1.23,14.19a20.89,20.89,0,0,0,9.22-12.75s.55,25.8,6.69,32.22c.36-4.5.8-8.4,2.21-11.92a20.06,20.06,0,0,1,5.9-8,40.08,40.08,0,0,1,.37,21.9s12.29-9.36,14.34-24.87a57.4,57.4,0,0,1,2,22.53,46.71,46.71,0,0,1-4.67,16.5c6.36-5.42,11-12.9,14.27-21h0a100.45,100.45,0,0,0,5.2-17.59c7.05-6.78,10.22,2.7,8.91,7.45,6.06-7.08,8.39-2.22,6.85,2.74a8.31,8.31,0,0,1-.33.91,17.47,17.47,0,0,0,1.67-1.27c5.13-4.34,7.66-10.8,8.76-17.34a90.46,90.46,0,0,1,5.94,14c1.86,5.66,3.38,12.33,3.19,18.61,2.33-10.88,3-17.44,5-16.34s3,8.33,3,8.33,35.79-10.87,37.74-11.95,3,4.93,3,4.93,2.14-3.79,3.81-1.31.84,9.91.84,9.91a40.91,40.91,0,0,0,8.36-14.9A24.8,24.8,0,0,0,372.43,383.2Zm-89.7-43.11a93.9,93.9,0,0,1-18.05,18,93.85,93.85,0,0,0,18-18v0h0Z" />
      <path class="GUNDAN_TIGER_OUTFIT_TIGER_OUTFIT_37_cls-3" d="M391.86,440h-9.58a96.82,96.82,0,0,0-2.95-21.84,29,29,0,0,0,9.9,1.76A91.63,91.63,0,0,1,391.86,440Z" />
      <path class="GUNDAN_TIGER_OUTFIT_TIGER_OUTFIT_37_cls-4" d="M111.94,367.47c-1.2,2.86-4.15,6.25-10,8.19a24.27,24.27,0,0,1-2.39.66,43.47,43.47,0,0,1-14.09.6c-1.56-.16-3.21-.38-4.94-.66-2.46-.41-5.1-1-7.92-1.69-3-.77-6.26-1.71-9.72-2.87a83.85,83.85,0,0,1-13.24-5.56h0c-4.89-2.64-8.1-5.37-10.11-8.12v0c-5.75-7.88-1.67-16,.68-23.2,3.76-11.55,13.22-20.59,21.42-17q-1.71,2.55-3.6,5.53a78.66,78.66,0,0,0,9.36,7.55,128.23,128.23,0,0,0,12.41,7.64c1.71.93,3.51,1.88,5.42,2.82l1.07.53q3.84,1.86,7,3.64C109.73,354.5,114.38,361.7,111.94,367.47Z" />
      <path class="GUNDAN_TIGER_OUTFIT_TIGER_OUTFIT_37_cls-5" d="M67.41,330.87a4.88,4.88,0,0,1-.55.31c-23.81,1.7-17.37,34.08-17.2,34.95-4.89-2.64-8.1-5.37-10.11-8.12v0c-5.75-7.88-1.67-16,.68-23.2,3.76-11.55,13.22-20.59,21.42-17q-1.71,2.55-3.6,5.53A78.66,78.66,0,0,0,67.41,330.87Z" />
      <path class="GUNDAN_TIGER_OUTFIT_TIGER_OUTFIT_37_cls-4" d="M96.52,411.37c-1,5.23-5.52,7-11.54,9l-1.14.31a73.37,73.37,0,0,1-13.62,2,93.75,93.75,0,0,1-9.44.12l-2.31-.1a138.63,138.63,0,0,1-16.46-2c-1.34-.24-2.61-.49-3.81-.78A54.05,54.05,0,0,1,23,414.1c-13.47-8-9.11-18.5-7.14-27.53A33.29,33.29,0,0,1,23.75,371c3.63-3.8,8-5.78,12.2-4.45-.93,2.34-1.83,4.75-2.72,7.21A84.81,84.81,0,0,0,44.86,381a141.94,141.94,0,0,0,17.5,7.54l1.94.71h0c2.43.88,4.73,1.77,6.92,2.64,2.49,1,4.83,2,7,3a78.46,78.46,0,0,1,11.32,6.11C95,404.61,97.17,408,96.52,411.37Z" />
      <path class="GUNDAN_TIGER_OUTFIT_TIGER_OUTFIT_37_cls-6" d="M64.31,389.21c2.43.88,4.73,1.77,6.92,2.64l-.23.35c-12.59,13.93-6.06,30.52-6.06,30.52l-4.16.12-2.28.07,0-.17c-5.61-25.19,5.83-33.53,5.83-33.53Z" />
      <path class="GUNDAN_TIGER_OUTFIT_TIGER_OUTFIT_37_cls-6" d="M80.69,375.66a1.7,1.7,0,0,1-.15.6c-2.46-.41-5.1-1-7.92-1.69a45.94,45.94,0,0,1,12.62-33.24l.24-.22s5.46,0,7.88,4.39a6.6,6.6,0,0,1,.52,1.14C81.66,352,80.69,375.66,80.69,375.66Z" />
      <path class="GUNDAN_TIGER_OUTFIT_TIGER_OUTFIT_37_cls-5" d="M38.2,420A54.05,54.05,0,0,1,23,414.1c-13.47-8-9.11-18.5-7.14-27.53A33.29,33.29,0,0,1,23.75,371c3.63-3.8,8-5.78,12.2-4.45-.93,2.34-1.83,4.75-2.72,7.21A84.81,84.81,0,0,0,44.86,381C27,385.7,28,407.54,38.2,420Z" />
      <path class="GUNDAN_TIGER_OUTFIT_TIGER_OUTFIT_37_cls-4" d="M283.76,397.14c6.05-7.08,8.38-2.22,6.84,2.74a172.92,172.92,0,0,0-21,7.4,100.45,100.45,0,0,0,5.2-17.59C281.89,382.91,285.06,392.39,283.76,397.14Z" />
      <path class="GUNDAN_TIGER_OUTFIT_TIGER_OUTFIT_37_cls-4" d="M396.48,367.77a11.77,11.77,0,0,1-1.26,1.9l-.42.52a30.5,30.5,0,0,1-7.06,5.54c-3.08,1.87-5.88,3.4-8.42,4.62-1.17.56-2.27,1.07-3.33,1.51-1.26.53-2.45,1-3.56,1.33h0c-12.66,4.18-16.58-1.16-19-4.64-3.14-4.5,1.54-14.08,10.51-21.42l.64-.51c.93-.73,1.86-1.46,2.8-2.17h0c4.35-3.34,8.61-6.47,10.88-8.57l-.42-.39c-2.15-2-3.91-3.41-5.14-4.36,5.82-3.14,13.56,1.18,18.12,9.12C394.26,356.25,399.78,361.52,396.48,367.77Z" />
      <path class="GUNDAN_TIGER_OUTFIT_TIGER_OUTFIT_37_cls-6" d="M396.48,367.77a11.77,11.77,0,0,1-1.26,1.9l-.42.52-.71.2a90.25,90.25,0,0,0-6.68-13.77c-4.84-8.43-8.62-11.24-8.62-11.24l-.94.11c-2.15-2-3.91-3.41-5.14-4.36,5.82-3.14,13.56,1.18,18.12,9.12C394.26,356.25,399.78,361.52,396.48,367.77Z" />
      <path class="GUNDAN_TIGER_OUTFIT_TIGER_OUTFIT_37_cls-7" d="M365.94,326.15h0a13.77,13.77,0,0,0-2.55-1.29c-32.66-2.15-92.74-5.79-116.5-10.27l-1-2c-2-.3,65.36,3.45,83,2.86,13.77-.46,10.53-12,8.52-17.84,2.71.48,4.74,2.91,5.92,7.87C345,312.87,367.85,317,365.94,326.15Z" />
      <path class="GUNDAN_TIGER_OUTFIT_TIGER_OUTFIT_37_cls-4" d="M300.7,382.18a90.46,90.46,0,0,1,5.94,14c-4.7.83-9.62,1.92-14.7,3.3C297.07,395.18,299.6,388.72,300.7,382.18Z" />
      <path class="GUNDAN_TIGER_OUTFIT_TIGER_OUTFIT_37_cls-3" d="M83.85,420.71q-.43,1.73-.84,3.51-1.74,7.41-3.19,15.81h-13c.89-5.2,2.3-12.67,3.36-17.31A73.61,73.61,0,0,0,83.85,420.71Z" />
      <path class="GUNDAN_TIGER_OUTFIT_TIGER_OUTFIT_37_cls-8" d="M85.48,376.92a182.62,182.62,0,0,0-7.25,17.91q-4.12-1.87-9-3.78-3.27-1.28-6.84-2.55A141.94,141.94,0,0,1,44.86,381a84.81,84.81,0,0,1-11.63-7.17c.89-2.46,1.79-4.87,2.72-7.21q1.75-4.43,3.6-8.57c2,2.75,5.22,5.48,10.11,8.13A83.85,83.85,0,0,0,62.9,371.7c4.26,1.43,8.18,2.53,11.78,3.38A84.26,84.26,0,0,0,85.48,376.92Z" />
      <path class="GUNDAN_TIGER_OUTFIT_TIGER_OUTFIT_37_cls-3" d="M99.56,376.32h0a152.91,152.91,0,0,0-7.76,18.2c-.74,2-1.48,4.12-2.25,6.41a78.46,78.46,0,0,0-11.32-6.11,185.23,185.23,0,0,1,7.25-17.91A43.35,43.35,0,0,0,99.56,376.32Z" />
      <path class="GUNDAN_TIGER_OUTFIT_TIGER_OUTFIT_37_cls-4" d="M414.9,415.67q-.69.39-1.5.75a29.6,29.6,0,0,1-7.52,2.12,93.4,93.4,0,0,1-13.1,1.4c-1.25.05-2.43.05-3.55,0a29.05,29.05,0,0,1-9.9-1.76h0a12,12,0,0,1-7.74-8.81,8.72,8.72,0,0,1,2.44-9.13,25.46,25.46,0,0,1,7.58-4.89c1.18-.55,2.49-1.1,3.94-1.64s3.18-1.15,5-1.71c5.47-1.7,11-3.53,14.48-5l1.33-.58c-1-2.3-2-4.49-3-6.6-.06-.11-.1-.21-.16-.32h.08c6.45-.68,12.35,7.26,14,16.34C418.58,403.44,422.58,411.16,414.9,415.67Z" />
      <path class="GUNDAN_TIGER_OUTFIT_TIGER_OUTFIT_37_cls-8" d="M372.43,383.2c-12.66,4.18-16.58-1.16-19-4.64-3.14-4.5,1.54-14.08,10.51-21.42-3.44,5.41,3.38,21.16,15.37,23.21-1.17.56-2.27,1.07-3.33,1.51-1.26.53-2.45,1-3.56,1.33Z" />
      <path class="GUNDAN_TIGER_OUTFIT_TIGER_OUTFIT_37_cls-8" d="M392.78,419.94c-1.25.05-2.43.05-3.55,0a29.05,29.05,0,0,1-9.9-1.76h0a12,12,0,0,1-7.74-8.81,8.72,8.72,0,0,1,2.44-9.13,25.46,25.46,0,0,1,7.58-4.89c1.18-.55,2.49-1.1,3.94-1.64C385.55,393.71,381.89,408.7,392.78,419.94Z" />
      <path class="GUNDAN_TIGER_OUTFIT_TIGER_OUTFIT_37_cls-6" d="M414.9,415.67q-.69.39-1.5.75c1.82-25.2-8.28-29.1-8.28-29.1l-.07-.3-1.7-7.18-.08-.33c6.45-.68,12.35,7.26,14,16.34C418.58,403.44,422.58,411.16,414.9,415.67Z" />
      <path class="GUNDAN_TIGER_OUTFIT_TIGER_OUTFIT_37_cls-8" d="M416.9,440h-25A92.24,92.24,0,0,0,389.23,420a66.55,66.55,0,0,0,8.3-.29c2.52-.24,5.29-.6,8.35-1.12,1.09-.18,2.11-.38,3-.61a22.37,22.37,0,0,0,6-2.26A146,146,0,0,1,416.9,440Z" />
      <path class="GUNDAN_TIGER_OUTFIT_TIGER_OUTFIT_37_cls-4" d="M410,440a129.66,129.66,0,0,0-1.1-22.1,22.37,22.37,0,0,0,6-2.26,146,146,0,0,1,2,24.36Z" />
      <path class="GUNDAN_TIGER_OUTFIT_TIGER_OUTFIT_37_cls-8" d="M406.38,386.44c-1.26.59-3,1.26-5,2-3.14,1.13-7,2.39-10.8,3.57l-.05,0a71,71,0,0,0-9,3.35c-3.07-8.07-5.62-13.49-5.62-13.49a82.22,82.22,0,0,0,7.9-3.89q1.86-1,3.85-2.24a35.52,35.52,0,0,0,5.75-4.2,18.28,18.28,0,0,0,1.73-1.86,11.77,11.77,0,0,0,1.26-1.9,125.54,125.54,0,0,1,6.71,11.75C404.29,381.74,405.36,384,406.38,386.44Z" />
      <path class="GUNDAN_TIGER_OUTFIT_TIGER_OUTFIT_37_cls-4" d="M403.19,379.52c1.1,2.22,2.17,4.52,3.19,6.92-1.26.59-3,1.26-5,2a114.9,114.9,0,0,0-7.93-16.88,18.28,18.28,0,0,0,1.73-1.86,11.77,11.77,0,0,0,1.26-1.9A125.54,125.54,0,0,1,403.19,379.52Z" />
      <path class="GUNDAN_TIGER_OUTFIT_TIGER_OUTFIT_37_cls-9" d="M390.57,392a71,71,0,0,0-9,3.35c-3.07-8.07-5.62-13.49-5.62-13.49a82.22,82.22,0,0,0,7.9-3.89,102.26,102.26,0,0,1,6.73,14Z" />
      <path class="GUNDAN_TIGER_OUTFIT_TIGER_OUTFIT_37_cls-9" d="M398.05,440h-6.19A92.24,92.24,0,0,0,389.23,420a66.55,66.55,0,0,0,8.3-.29A111.3,111.3,0,0,1,398.05,440Z" />
      <path class="GUNDAN_TIGER_OUTFIT_TIGER_OUTFIT_37_cls-4" d="M382.28,440H236.38c-.14-1.68-.31-3.44-.51-5.25l0-.19A102.75,102.75,0,0,0,233.48,421a.15.15,0,0,1,0-.06l.18.09.11.06c2,1,3.82,2.09,5.6,3.18l.77-.54c.91-.64,1.83-1.27,2.74-1.88.45-.31.9-.61,1.36-.9.7-.47,1.41-.92,2.12-1.38a.91.91,0,0,1,.14-.07c.54-.36,1.07-.69,1.62-1,1.36-.85,2.74-1.66,4.11-2.45.25-.15.52-.3.79-.44l.5-.29a.33.33,0,0,1,.1-.06h0c2.13-1.21,4.27-2.33,6.41-3.42a46.71,46.71,0,0,1-4.67,16.5c6.36-5.42,11-12.9,14.26-21h0a171.42,171.42,0,0,1,19.55-7l1.41-.41c-.09.3-.21.61-.33.91a16.3,16.3,0,0,0,1.67-1.27c3.83-1,7.59-1.92,11.22-2.64q1.75-.36,3.48-.66c1.86,5.66,3.37,12.33,3.18,18.61,2.34-10.88,3-17.44,5-16.34s3,8.33,3,8.33,35.78-10.87,37.73-11.95,3,4.93,3,4.93,2.14-3.79,3.81-1.31.84,9.91.84,9.91a40.91,40.91,0,0,0,8.36-14.9c.78,2.05,1.62,4.31,2.46,6.74a8.72,8.72,0,0,0-2.44,9.13,12,12,0,0,0,7.74,8.81h0A96.82,96.82,0,0,1,382.28,440Z" />
      <path class="GUNDAN_TIGER_OUTFIT_TIGER_OUTFIT_37_cls-6" d="M308.62,440h-13.5c-1.83-6.11-3.85-12.2-3.85-12.2l4.84-1.32c-.29-6-3.64-16.88-6.92-26.22s-6.47-17.1-6.47-17.1l13.78,1.41,6.66,12.28-5.37,1.63,8.85,25.71-4.23.75Z" />
      <path class="GUNDAN_TIGER_OUTFIT_TIGER_OUTFIT_37_cls-7" d="M370.85,339.75l-5.28.08c-18,.21-66.89.33-82.85.21v0c-15.81,20.87-38.34,32.45-62.15,38.41a183.56,183.56,0,0,1-28.23,4.63C249.6,373.05,257.76,356.57,258,356c-1,.35-53.3,18.12-107.89,13.44,52-3.73,91.16-17.41,91.16-17.41s-61.94,1.39-88.61-7.27c86.73,2.63,124.57-4.71,124.57-4.71l-.8-.11C269,339,210.63,330.8,172,317.22c-3.37-1.19-6.59-2.41-9.6-3.68,89.14,19.19,196,16.2,196,16.2l9.55,1.43a19.4,19.4,0,0,1-.82,3.58C372.22,336.33,370.85,339.75,370.85,339.75Z" />
      <path class="GUNDAN_TIGER_OUTFIT_TIGER_OUTFIT_37_cls-7" d="M136.33,381.26l-.79.49A273.53,273.53,0,0,1,102,375.66c5.83-1.94,8.78-5.33,10-8.19,2.46-5.83-2.3-13.11-19.07-22.25-2-1.1-4.2-2.21-6.56-3.36s-4.47-2.24-6.49-3.35C68,332.07,61.15,326.3,58.05,323.32q1.89-3,3.6-5.53c5.64-8.39,9.54-13.08,9.54-13.08-2.75-2.6-4-5-3.91-7.13,2-13,7.64-13.49,7.64-13.49s1,.58,3.21,1.67l.14-.3c18.8-12.25,21.85-23.81,39.17-17.69,5,1.77,6.28,2.51,17.91,8.93v0s3.92,3.74-6.38,5.06S114.4,298,118.32,301.13a24.25,24.25,0,0,0,4.91,2.1l.13,0c15.63,5.53,61.11,18,63.6,18.67-2.35-.51-47.76-10.47-64.6-13.41-16.59-2.91-26.06,2.8-18.86,11.58.3.36.62.73,1,1.1-24.77,5.25-7.78,19.13-6.47,20.17l.08.06L127,345.26c-17,10.39,11.16,25.06,11.16,25.06S129.84,374.4,136.33,381.26Z" />
      <path class="GUNDAN_TIGER_OUTFIT_TIGER_OUTFIT_37_cls-4" d="M260,411.76c-2.15,1.09-4.3,2.22-6.43,3.43,0,0,0,0-.1.06l-.5.29c-2.18,1.23-4.37,2.54-6.52,3.91a.91.91,0,0,0-.14.07c-2.08,1.32-4.16,2.71-6.22,4.16l-.77.54a72.48,72.48,0,0,0-1.9-24,13.34,13.34,0,0,1,.71-1.54,20.24,20.24,0,0,1,5.19-6.5,40,40,0,0,1,.38,21.9,41.15,41.15,0,0,0,8.2-9.12,36.82,36.82,0,0,0,6.13-15.75A57.4,57.4,0,0,1,260,411.76Z" />
      <path class="GUNDAN_TIGER_OUTFIT_TIGER_OUTFIT_37_cls-8" d="M253.61,415.18h0s0,0-.1.06l-.5.29-.16.09-6.36,3.82a.91.91,0,0,0-.14.07c.79,4.23,2.55,13.23,4,20.51H236.59c-.22-1.75-.47-3.52-.72-5.25l0-.19c-1.05-6.93-2.23-13-2.36-13.64a.15.15,0,0,1,0-.06l.18.09.11.06c.64.36,2.44,1.4,6.35,3.83,0-.39,0-.8,0-1.19a145.14,145.14,0,0,0-2-25,20.24,20.24,0,0,1,5.19-6.5,40,40,0,0,1,.38,21.9,41.15,41.15,0,0,0,8.2-9.12Z" />
      <path class="GUNDAN_TIGER_OUTFIT_TIGER_OUTFIT_37_cls-4" d="M236.38,440h-29.2c-1.35-.4-2.71-.79-4.09-1.18l-1.9-.5c-2.7-.73-5.45-1.41-8.24-2.06l-2.1-.48c-.7-.17-1.4-.32-2.11-.46l-2.31-.5c-1.36-.28-2.71-.57-4.08-.83-2.93-.59-5.88-1.13-8.83-1.64-1.28-.22-2.57-.45-3.86-.65-5.51-.91-11-1.7-16.43-2.39l-2.58-.33c-2-.25-3.89-.47-5.81-.69l-1.85-.2-3.41-.37-1.28-.14-2.76-.27-.73-.07-1.7-.17-1.58-.14-.63-.06-.19,0-.61-.05-.23,0-1.08-.1c-2.11-.19-4.18-.35-6.21-.51-1.1-.1-2.18-.17-3.25-.25-1.86-.15-3.67-.26-5.43-.38l-2-.14h0l-3.26-.2c-.26,0-.53,0-.8-.05s-.79,0-1.18-.06c-3.89-.22-7.42-.39-10.49-.51l-.76,0c-2.93-.11-5.41-.19-7.36-.24l-1.34,0-1.48,0h-.49l-1.68,0c.28-1.19.55-2.36.83-3.51L85,420.4c6-2,10.51-3.8,11.54-9,.65-3.35-1.53-6.76-7-10.43.77-2.29,1.51-4.42,2.25-6.41,0,0,24,.55,53.75,4.17,29.5,3.58,64.71,10.17,87.91,22.19A121.32,121.32,0,0,1,236.38,440Z" />
      <path class="GUNDAN_TIGER_OUTFIT_TIGER_OUTFIT_37_cls-10" d="M372.71,341.13c1.31,1,3.22,2.59,5.56,4.75-2.27,2.1-6.53,5.23-10.88,8.57,0-.43.84-8.78-1.82-14.62l5.28-.08S371.52,340.21,372.71,341.13Z" />
      <path class="GUNDAN_TIGER_OUTFIT_TIGER_OUTFIT_37_cls-4" d="M239.35,424.22c-1.87-1.15-3.83-2.27-5.89-3.33-23.2-12-58.41-18.61-87.91-22.19-29.78-3.62-53.75-4.17-53.75-4.17a159.66,159.66,0,0,1,7.7-18.08.86.86,0,0,1,.07-.12h0a24.27,24.27,0,0,0,2.39-.66s1.68.44,4.73,1.14h0a307.89,307.89,0,0,0,37.21,5.87c22.17,2.14,50.2,2.44,76.66-4.17.2.4,3.74,7.66-1.24,14.19a20.94,20.94,0,0,0,9.22-12.75s.55,25.8,6.7,32.22c.35-4.5.8-8.4,2.2-11.92A72.48,72.48,0,0,1,239.35,424.22Z" />
      <path class="GUNDAN_TIGER_OUTFIT_TIGER_OUTFIT_37_cls-3" d="M376,381.86s2.55,5.42,5.62,13.49a25.59,25.59,0,0,0-7.58,4.89c-.85-2.43-1.68-4.69-2.46-6.74a24.8,24.8,0,0,0,.86-10.3h0C373.54,382.83,374.73,382.39,376,381.86Z" />
      <path class="GUNDAN_TIGER_OUTFIT_TIGER_OUTFIT_37_cls-8" d="M70.22,422.72c-1.06,4.64-2.47,12.11-3.36,17.31H21A178.44,178.44,0,0,1,23,414.1,53.36,53.36,0,0,0,38.1,420c1.24.28,2.54.56,3.91.8a131.21,131.21,0,0,0,19.64,2.09Q66.26,423,70.22,422.72Z" />
      <path class="GUNDAN_TIGER_OUTFIT_TIGER_OUTFIT_37_cls-11" d="M38.1,420a149.6,149.6,0,0,0,0,19.53L36.4,440H21A178.44,178.44,0,0,1,23,414.1,53.36,53.36,0,0,0,38.1,420Z" />
      <path class="GUNDAN_TIGER_OUTFIT_TIGER_OUTFIT_37_cls-11" d="M49.66,366.14c-.89,2.34-2.79,7.57-4.8,14.82a84.81,84.81,0,0,1-11.63-7.17c.89-2.46,1.79-4.87,2.72-7.21q1.75-4.43,3.6-8.57C41.56,360.76,44.77,363.49,49.66,366.14Z" />
      <path class="GUNDAN_TIGER_OUTFIT_TIGER_OUTFIT_37_cls-4" d="M70.22,422.72c-1.06,4.64-2.47,12.11-3.36,17.31H59.67c.38-5.83,1.08-11.6,2-17.17Q66.26,423,70.22,422.72Z" />
      <path class="GUNDAN_TIGER_OUTFIT_TIGER_OUTFIT_37_cls-4" d="M85.48,376.92a182.62,182.62,0,0,0-7.25,17.91q-4.12-1.87-9-3.78c2.18-7.11,4.21-12.67,5.48-16A84.26,84.26,0,0,0,85.48,376.92Z" />
      <path class="GUNDAN_TIGER_OUTFIT_TIGER_OUTFIT_37_cls-4" d="M207.18,440H79.82q1.44-8.38,3.19-15.81l1.68,0h.49l1.48,0,1.34,0c2,.05,4.43.13,7.36.24l.76,0c3.07.12,6.6.29,10.49.51l1.18.06c.27,0,.54,0,.8.05l3.26.2h0l2,.14c1.76.12,3.57.23,5.43.38,1.07.08,2.15.15,3.25.25,2,.16,4.1.32,6.21.51l1.08.1.23,0,.51.05.29,0,.63.06.62.06,1,.08,1.7.17.73.07,2.76.27,1.28.14,3.41.37,1.85.2c1.92.22,3.86.44,5.81.69l2.58.33q3.33.42,6.69.91h0a3.32,3.32,0,0,1,.44.06c1.51.21,3,.44,4.55.67l.14,0,4.59.73c1.29.2,2.57.42,3.86.65l3,.54c1.94.34,3.86.71,5.79,1.1,1.37.26,2.72.55,4.08.83l2.31.5,2.11.46,2.1.48c2.79.65,5.54,1.33,8.24,2.06l1.9.5C204.47,439.24,205.83,439.63,207.18,440Z" />
      <path class="GUNDAN_TIGER_OUTFIT_TIGER_OUTFIT_37_cls-4" d="M160.38,430.31v0c-.17,0-.31-.06-.44-.08h0c-1.52-.34.45-.3.45-.3S160.37,430.08,160.38,430.31Z" />
      <path class="GUNDAN_TIGER_OUTFIT_TIGER_OUTFIT_37_cls-6" d="M177,403.11c1,3.4-.25,26.49-.43,29.81,0,.25,0,.39,0,.39l-4.79-.85V440H160.2a93.84,93.84,0,0,0,.18-9.7c.82.16,2.24.36,4.55.65l.14,0a237.05,237.05,0,0,0-.55-29.72l5.34,1c.45-11.59-1.79-19-1.79-19l12.79.4c1.19,4.26,2.42,21.1,2.42,21.1S180.26,404,177,403.11Z" />
      <path class="GUNDAN_TIGER_OUTFIT_TIGER_OUTFIT_37_cls-9" d="M145.55,398.71l-10.86-.92s4.46,11.61,4.89,30l-1.28-.14c-1.92-.18-3.54-.33-4.89-.47l-1.26-.12-.62-.06-.63-.06-.19,0h-.1l-.51-.05-.23,0-1.08-.1s1.28,6.13,2.35,13.33H79.82q1.44-8.38,3.19-15.81c.28-1.19.55-2.36.83-3.51L85,420.4c6-2,10.51-3.8,11.54-9,.65-3.35-1.53-6.76-7-10.43.77-2.29,1.51-4.42,2.25-6.41a159.66,159.66,0,0,1,7.7-18.08l7.19.35h0a307.89,307.89,0,0,0,37.21,5.87,61.72,61.72,0,0,1,1.64,16Z" />
      <path class="GUNDAN_TIGER_OUTFIT_TIGER_OUTFIT_37_cls-12" d="M220.27,308.86s57.52-3.75,95.5-29.32c15.9,2.64,17.23,18.71,17.23,18.71" />
      <path class="GUNDAN_TIGER_OUTFIT_TIGER_OUTFIT_37_cls-12" d="M237.88,312.82s58-3.77,95.12-14.57c5-1.85,8.56-.05,10.31,7.29s24.55,11.49,22.63,20.61" />
      <path class="GUNDAN_TIGER_OUTFIT_TIGER_OUTFIT_37_cls-12" d="M367.12,334.75s-123.49.72-194.81-17.46C115.1,302.71,87,290.16,78.13,285.76c-2.19-1.09-3.22-1.67-3.22-1.67s-5.58.49-7.63,13.49c-.09,2.12,1.16,4.53,3.91,7.13,9.26,8.75,35.55,19.4,85.11,26.41,45.61,6.46,83.54,8.56,126.43,8.92,16,.12,64.85,0,82.84-.21l5.28-.08s1.36-3.42-3.73-5c1.64-5.17.85-7.24-1.18-8.59a13.77,13.77,0,0,0-2.55-1.29c-36.88-2.42-99.85-6.76-125.51-12.05q-9.23-1.89-17.61-4c-70.16-17.17-90.56-36.74-102.83-41.09-17.32-6.12-20.37,5.44-39.18,17.69" />
      <path class="GUNDAN_TIGER_OUTFIT_TIGER_OUTFIT_37_cls-12" d="M30.2,371.33a33.37,33.37,0,0,0,3,2.46c4.34,3.25,13.57,9.15,29.14,14.71,6,2.14,11.3,4.25,15.87,6.33a78.46,78.46,0,0,1,11.32,6.11c5.45,3.67,7.62,7.08,7,10.43-1,5.23-5.53,7-11.55,9l-1.12.31a73.61,73.61,0,0,1-13.63,2,119.07,119.07,0,0,1-28.21-2,56.08,56.08,0,0,1-19-6.67c-13.47-8-9.11-18.5-7.14-27.53A33.29,33.29,0,0,1,23.75,371c3.63-3.8,8-5.78,12.2-4.45" />
      <path class="GUNDAN_TIGER_OUTFIT_TIGER_OUTFIT_37_cls-12" d="M39.55,358c-5.75-7.88-1.67-16,.68-23.2,3.75-11.55,13.21-20.59,21.42-17" />
      <path class="GUNDAN_TIGER_OUTFIT_TIGER_OUTFIT_37_cls-12" d="M56,321.21s.65.77,2.05,2.11c3.09,3,9.91,8.75,21.76,15.19q3,1.67,6.49,3.35C108.39,352.58,114.7,361,112,367.47c-1.21,2.86-4.15,6.25-10,8.19a23.73,23.73,0,0,1-2.4.66,43.35,43.35,0,0,1-14.08.6,104.12,104.12,0,0,1-22.59-5.22C50,367.36,43,362.72,39.55,358" />
      <path class="GUNDAN_TIGER_OUTFIT_TIGER_OUTFIT_37_cls-12" d="M379.33,418.19a29,29,0,0,0,9.9,1.76,84.15,84.15,0,0,0,16.65-1.41,26.66,26.66,0,0,0,9-2.87c7.68-4.51,3.69-12.23,2.35-19.82-1.62-9.12-7.57-17.08-14.05-16.33" />
      <path class="GUNDAN_TIGER_OUTFIT_TIGER_OUTFIT_37_cls-12" d="M408.18,385.47a10.68,10.68,0,0,1-1.8,1A158.82,158.82,0,0,1,390.57,392a71,71,0,0,0-9,3.35,25.59,25.59,0,0,0-7.58,4.89,8.72,8.72,0,0,0-2.44,9.13,11.94,11.94,0,0,0,7.74,8.81" />
      <path class="GUNDAN_TIGER_OUTFIT_TIGER_OUTFIT_37_cls-12" d="M367.39,354.45c4.35-3.34,8.61-6.47,10.88-8.57a9.57,9.57,0,0,0,1.42-1.52" />
      <path class="GUNDAN_TIGER_OUTFIT_TIGER_OUTFIT_37_cls-12" d="M372.43,383.2c-12.66,4.18-16.58-1.16-19-4.64-3.22-4.61,1.76-14.53,11.15-21.93.92-.73,1.86-1.46,2.8-2.17" />
      <path class="GUNDAN_TIGER_OUTFIT_TIGER_OUTFIT_37_cls-12" d="M372.71,341.13c5.82-3.14,13.56,1.19,18.12,9.12,3.44,6,8.95,11.27,5.65,17.52a11.77,11.77,0,0,1-1.26,1.9,28.17,28.17,0,0,1-7.48,6.06A90.41,90.41,0,0,1,376,381.86c-1.26.53-2.45,1-3.56,1.33" />
      <path class="GUNDAN_TIGER_OUTFIT_TIGER_OUTFIT_37_cls-12" d="M33.22,373.79c.9-2.46,1.8-4.87,2.73-7.21q1.75-4.43,3.6-8.57v0" />
      <path class="GUNDAN_TIGER_OUTFIT_TIGER_OUTFIT_37_cls-12" d="M58.06,323.32q1.88-3,3.59-5.53c5.64-8.39,9.54-13.08,9.54-13.08" />
      <path class="GUNDAN_TIGER_OUTFIT_TIGER_OUTFIT_37_cls-12" d="M79.82,338.51s21.17,3.88,54.87,7.63" />
      <path class="GUNDAN_TIGER_OUTFIT_TIGER_OUTFIT_37_cls-12" d="M159.83,350.49s62.38,2.18,88.08-3.16" />
      <path class="GUNDAN_TIGER_OUTFIT_TIGER_OUTFIT_37_cls-12" d="M123,369.27s75.79,8.89,142.09-24.91" />
      <path class="GUNDAN_TIGER_OUTFIT_TIGER_OUTFIT_37_cls-12" d="M89.55,400.94c.77-2.29,1.51-4.42,2.25-6.41a152.91,152.91,0,0,1,7.76-18.2" />
      <path class="GUNDAN_TIGER_OUTFIT_TIGER_OUTFIT_37_cls-12" d="M79.82,440q1.44-8.38,3.19-15.81.4-1.79.84-3.51" />
      <path class="GUNDAN_TIGER_OUTFIT_TIGER_OUTFIT_37_cls-12" d="M70.22,422.72c-1.06,4.64-2.47,12.11-3.36,17.31" />
      <path class="GUNDAN_TIGER_OUTFIT_TIGER_OUTFIT_37_cls-12" d="M78.23,394.83a185.23,185.23,0,0,1,7.25-17.91" />
      <path class="GUNDAN_TIGER_OUTFIT_TIGER_OUTFIT_37_cls-12" d="M102,375.66s62.82,16.79,118.6,2.84c23.82-6,46.35-17.54,62.17-38.41" />
      <path class="GUNDAN_TIGER_OUTFIT_TIGER_OUTFIT_37_cls-12" d="M269.64,407.28a100.45,100.45,0,0,0,5.2-17.59,126.05,126.05,0,0,0,2.4-20.42" />
      <path class="GUNDAN_TIGER_OUTFIT_TIGER_OUTFIT_37_cls-12" d="M220.56,378.48v0c.2.4,3.75,7.66-1.23,14.19a20.89,20.89,0,0,0,9.22-12.75s.55,25.8,6.69,32.22c.36-4.5.8-8.4,2.21-11.92a20.06,20.06,0,0,1,5.9-8,40.08,40.08,0,0,1,.37,21.9s12.29-9.36,14.34-24.87a57.4,57.4,0,0,1,2,22.53,46.71,46.71,0,0,1-4.67,16.5c6.36-5.42,11-12.9,14.27-21" />
      <path class="GUNDAN_TIGER_OUTFIT_TIGER_OUTFIT_37_cls-12" d="M300.7,382.17c2-12-.65-24.16-.65-24.16" />
      <path class="GUNDAN_TIGER_OUTFIT_TIGER_OUTFIT_37_cls-12" d="M274.84,389.69c7.05-6.78,10.22,2.7,8.92,7.45,6.05-7.08,8.38-2.22,6.84,2.74a8.31,8.31,0,0,1-.33.91,17.47,17.47,0,0,0,1.67-1.27c5.13-4.34,7.66-10.8,8.76-17.34" />
      <path class="GUNDAN_TIGER_OUTFIT_TIGER_OUTFIT_37_cls-12" d="M372.43,383.19h0a24.8,24.8,0,0,1-.86,10.3,40.91,40.91,0,0,1-8.36,14.9s.84-7.4-.84-9.91-3.81,1.31-3.81,1.31-1-6-3-4.93-37.74,11.95-37.74,11.95-.92-7.21-3-8.33-2.7,5.46-5,16.34c.19-6.28-1.33-12.95-3.19-18.61a90.46,90.46,0,0,0-5.94-14h0" />
      <path class="GUNDAN_TIGER_OUTFIT_TIGER_OUTFIT_37_cls-12" d="M306.64,396.22c-4.7.83-9.62,1.92-14.7,3.3" />
      <path class="GUNDAN_TIGER_OUTFIT_TIGER_OUTFIT_37_cls-12" d="M290.6,399.88a172.92,172.92,0,0,0-21,7.4h0" />
      <path class="GUNDAN_TIGER_OUTFIT_TIGER_OUTFIT_37_cls-12" d="M260,411.76a159,159,0,0,0-20.68,12.46c-1.86-1.15-3.82-2.27-5.89-3.33C186.82,396.74,91.8,394.53,91.8,394.53" />
      <path class="GUNDAN_TIGER_OUTFIT_TIGER_OUTFIT_37_cls-12" d="M239.35,424.22a72.48,72.48,0,0,0-1.9-24v0" />
      <path class="GUNDAN_TIGER_OUTFIT_TIGER_OUTFIT_37_cls-12" d="M83,424.22s73.3.73,124.17,15.81" />
      <path class="GUNDAN_TIGER_OUTFIT_TIGER_OUTFIT_37_cls-12" d="M258,440c3.38-1.6,77.24-20.82,115.32-19.14l6.83,1" />
      <path class="GUNDAN_TIGER_OUTFIT_TIGER_OUTFIT_37_cls-12" d="M236.38,440a123.68,123.68,0,0,0-2.92-19.14" />
      <path class="GUNDAN_TIGER_OUTFIT_TIGER_OUTFIT_37_cls-12" d="M396.48,367.77a123.34,123.34,0,0,1,6.71,11.75c1.1,2.22,2.18,4.52,3.19,6.92" />
      <path class="GUNDAN_TIGER_OUTFIT_TIGER_OUTFIT_37_cls-12" d="M414.89,415.67a144.91,144.91,0,0,1,2,24.36H21A177,177,0,0,1,23,414.1" />
      <path class="GUNDAN_TIGER_OUTFIT_TIGER_OUTFIT_37_cls-12" d="M378.27,345.88c-2.34-2.16-4.25-3.74-5.56-4.75s-1.86-1.38-1.86-1.38" />
      <path class="GUNDAN_TIGER_OUTFIT_TIGER_OUTFIT_37_cls-12" d="M367.39,354.46h0c0-.43.84-8.78-1.82-14.62" />
      <path class="GUNDAN_TIGER_OUTFIT_TIGER_OUTFIT_37_cls-12" d="M391.86,440A91.63,91.63,0,0,0,389.23,420" />
      <path class="GUNDAN_TIGER_OUTFIT_TIGER_OUTFIT_37_cls-12" d="M381.61,395.35c-3.07-8.07-5.62-13.49-5.62-13.49" />
      <path class="GUNDAN_TIGER_OUTFIT_TIGER_OUTFIT_37_cls-12" d="M374,400.24c-.85-2.43-1.68-4.69-2.46-6.74" />
      <path class="GUNDAN_TIGER_OUTFIT_TIGER_OUTFIT_37_cls-12" d="M379.33,418.18h0A96.82,96.82,0,0,1,382.28,440" />
      <ellipse class="GUNDAN_TIGER_OUTFIT_TIGER_OUTFIT_37_cls-13" cx="80.97" cy="409.37" rx="4.97" ry="5.27" />
      <ellipse class="GUNDAN_TIGER_OUTFIT_TIGER_OUTFIT_37_cls-13" cx="97.93" cy="363.27" rx="4.96" ry="5.27" />
      <ellipse class="GUNDAN_TIGER_OUTFIT_TIGER_OUTFIT_37_cls-13" cx="363.95" cy="373.17" rx="4.03" ry="4.27" />
      <ellipse class="GUNDAN_TIGER_OUTFIT_TIGER_OUTFIT_37_cls-13" cx="383.71" cy="407.85" rx="4.03" ry="4.27" />
    </g>
  </g>
</svg>