<svg xmlns="http://www.w3.org/2000/svg" viewBox="0 0 432 432">
  <defs>
    <style>.GUNDAN_TIGER_OUTFIT_TIGER_OUTFIT_16_cls-1{isolation:isolate;}.GUNDAN_TIGER_OUTFIT_TIGER_OUTFIT_16_cls-2{fill:#fff;}.GUNDAN_TIGER_OUTFIT_TIGER_OUTFIT_16_cls-3{fill:#3f3e37;}.GUNDAN_TIGER_OUTFIT_TIGER_OUTFIT_16_cls-4{fill:#7fff9f;}.GUNDAN_TIGER_OUTFIT_TIGER_OUTFIT_16_cls-5{fill:#e6de24;}.GUNDAN_TIGER_OUTFIT_TIGER_OUTFIT_16_cls-6{fill:#2a2014;}.GUNDAN_TIGER_OUTFIT_TIGER_OUTFIT_16_cls-7{fill:#22211c;}.GUNDAN_TIGER_OUTFIT_TIGER_OUTFIT_16_cls-8{fill:none;stroke:#000;stroke-linecap:round;stroke-linejoin:round;stroke-width:1.86px;}.GUNDAN_TIGER_OUTFIT_TIGER_OUTFIT_16_cls-9{opacity:0.22;mix-blend-mode:multiply;}</style>
  </defs>
  <g class="GUNDAN_TIGER_OUTFIT_TIGER_OUTFIT_16_cls-1">
    <g id="outfit">
      <path class="GUNDAN_TIGER_OUTFIT_TIGER_OUTFIT_16_cls-2" d="M105.73,377.52a31.39,31.39,0,0,1-3.22-.36,33.61,33.61,0,0,1-22.13-14.52c-.52-.77-1-1.56-1.43-2.37a2.5,2.5,0,0,0-3.43-1,2.62,2.62,0,0,0-1,3.51,36.52,36.52,0,0,0,2.94,4.59,38.9,38.9,0,0,0,20.9,14.16,35.14,35.14,0,0,0,7.06,1.15.39.39,0,0,0,.15,0,2.59,2.59,0,0,0,.14-5.17Z" />
      <path class="GUNDAN_TIGER_OUTFIT_TIGER_OUTFIT_16_cls-2" d="M91.25,410c-.82.27-1.64.49-2.47.7a33,33,0,0,1-26.38-5.28c-.75-.54-1.48-1.11-2.17-1.7a2.48,2.48,0,0,0-3.56.32,2.6,2.6,0,0,0,.32,3.63,31.61,31.61,0,0,0,3.46,2.64l.83.53a38.2,38.2,0,0,0,27.08,5.21,32,32,0,0,0,4.43-1.13l.14-.05a2.6,2.6,0,0,0,1.59-2,2.36,2.36,0,0,0-.09-1.17A2.51,2.51,0,0,0,91.25,410Z" />
      <path class="GUNDAN_TIGER_OUTFIT_TIGER_OUTFIT_16_cls-2" d="M52.17,442.2c-2-1.27-4.05-2.47-6.11-3.63-10.15-5.7-20.86-10.25-31.58-14.7l-1.39,1.27c-.92.81-1.12,2.2-1.64,3.32l-.09.54,5,2.08A246.85,246.85,0,0,1,41.6,443.14c10.87,6.11,21.13,13.62,29.25,23.22,0,0,2.45,3.4,4.81,6.92l1.18.85a8.66,8.66,0,0,1,1.2-3.39,8.56,8.56,0,0,1,1.76-2c-2.31-3.87-4.48-7-4.48-7A99.85,99.85,0,0,0,52.17,442.2Z" />
      <path class="GUNDAN_TIGER_OUTFIT_TIGER_OUTFIT_16_cls-2" d="M111,347.27C109,335,103.62,323.71,99.43,312.06c-2.37-6.59-12.07-20.38-12.76-27.35a61.1,61.1,0,0,1,7.21-6.24c-.64-3.3-1.27-6.58-1.9-9.87a12.49,12.49,0,0,0-1.2-3.83,4,4,0,0,0-3.13-2.17c-2.08-.06-3.57,2-4.43,3.94-.26.58-.5,1.18-.73,1.79a40,40,0,0,0-1.63,18.89c.92,7,10.84,20.55,13,27.22l7.53,23.08,3.48,10.68a9.16,9.16,0,0,0,1.48,3.1,2.85,2.85,0,0,0,3,1,2.78,2.78,0,0,0,1.6-2.36A9.1,9.1,0,0,0,111,347.27Z" />
      <path class="GUNDAN_TIGER_OUTFIT_TIGER_OUTFIT_16_cls-3" d="M110.18,273.12c-1.05-1.57-2.21-1.16-4.06-1.05a5.51,5.51,0,0,0-4.45,3S102,316,118.05,339.72a17.31,17.31,0,0,1,10.5-6.92C110.63,306.89,110.18,273.12,110.18,273.12Z" />
      <path class="GUNDAN_TIGER_OUTFIT_TIGER_OUTFIT_16_cls-3" d="M80.86,287.22a40,40,0,0,1,1.63-18.89l-2.9,1.12c-4.18,1.62-2.79,9.31-6.49,11.87s-4.75,7-6,11.37a26.68,26.68,0,0,0-12.45,7.37A28.57,28.57,0,0,0,48,313.29c-4.08,2.4-6.86,6.64-8.76,11A45.71,45.71,0,0,0,35.51,342a24.28,24.28,0,0,0-9.41,26.22,28.38,28.38,0,0,0-7,23.49,11.79,11.79,0,0,0-2.95,6.2A45.37,45.37,0,0,0,17.58,421c-1,.9-2.07,1.92-3.1,2.89,10.72,4.45,21.43,9,31.58,14.7,2.06,1.16,4.1,2.36,6.11,3.63,3.48-.83,6.91-3.16,6.88-6.48,0-3,.05-5.93.24-8.9a129.82,129.82,0,0,1,2-16l-.83-.53A31.61,31.61,0,0,1,57,407.69a2.6,2.6,0,0,1-.32-3.63,2.48,2.48,0,0,1,3.56-.32c.69.59,1.42,1.16,2.17,1.7A139.26,139.26,0,0,1,66.22,392a133.48,133.48,0,0,1,7.84-18.43q1.62-3.15,3.42-6.24a36.52,36.52,0,0,1-2.94-4.59,2.62,2.62,0,0,1,1-3.51,2.5,2.5,0,0,1,3.43,1c.44.81.91,1.6,1.43,2.37,1.28-2,2.65-4,4.05-6a128.58,128.58,0,0,1,10-12.2c2.23-2.41,4.57-4.74,7-7l-7.53-23.08C91.7,307.77,81.78,294.18,80.86,287.22Z" />
      <path class="GUNDAN_TIGER_OUTFIT_TIGER_OUTFIT_16_cls-4" d="M288.43,350.78a18.89,18.89,0,0,0-2.76-3.27l.15-.21A26.53,26.53,0,0,1,288.43,350.78Z" />
      <path class="GUNDAN_TIGER_OUTFIT_TIGER_OUTFIT_16_cls-3" d="M254.41,422.09c-1.25-1.86-2.73-3.57-4.12-5.27-2-2.46-3.8-4.91-4.36-7.74a8.58,8.58,0,0,1-.17-1.44c-.08-1.54-.22-3.69-.27-6.19,0-.74,0-1.51,0-2.3a57.9,57.9,0,0,1,.56-8,29.09,29.09,0,0,1,2.82-9.27,14.77,14.77,0,0,1,4.89-5.54,13.23,13.23,0,0,1,4.41-1.89,26.43,26.43,0,0,1-4.88-5.84l-.25-.42A1.53,1.53,0,0,1,253,368a19.15,19.15,0,0,1-2.73-8c-.06-.4-.08-.82-.1-1.23a76.15,76.15,0,0,0-5.52,5.38,67,67,0,0,0-5.24,6.22,59,59,0,0,0-3.76,5.69,39.39,39.39,0,0,0-4.1,9.74c-.18.69-.34,1.37-.47,2.07a26.46,26.46,0,0,0-.45,4.71c0,2,0,4,.06,5.77l1.74.07a10.34,10.34,0,0,0-1.7,1,82.17,82.17,0,0,0,1.5,13.92c1.09,5.14,2.7,9,4.88,11.92v0c.45.57.87,1.1,1.34,1.6.25.27.49.56.72.85a16.39,16.39,0,0,0-4.39-.29,9.16,9.16,0,0,0-6.69,3.16,9.52,9.52,0,0,0-1.11,1.71c-3.19,6.3.23,14.81,8.28,17.22a16.83,16.83,0,0,0,5.85.61,19.26,19.26,0,0,0,8.38-2.23c.22-.12.43-.25.65-.39,5.19-3.23,7.15-9.22,7.35-16.35a12.3,12.3,0,0,0-.19-2.6A16.36,16.36,0,0,0,254.41,422.09Z" />
      <path class="GUNDAN_TIGER_OUTFIT_TIGER_OUTFIT_16_cls-3" d="M122.07,411.7a6.83,6.83,0,0,0-3.94-.63,14.89,14.89,0,0,0-3.24.72,42.22,42.22,0,0,0-19.51,13.14c0,2.24.05,4.63.14,7.17.16,4.88.34,9.3.54,13.3.29,6,.59,11,.91,15.23A88.13,88.13,0,0,1,119.81,436a13.57,13.57,0,0,0,3.13-2.77,4.36,4.36,0,0,0,.78-4,3.86,3.86,0,0,0-3.13-2.26,17,17,0,0,0,4.14-6C125.91,417.68,125.12,413.33,122.07,411.7ZM116,416.25a4.1,4.1,0,1,1-4,4.09A4.05,4.05,0,0,1,116,416.25Zm0,19.23a2.42,2.42,0,1,1,2.36-2.42A2.4,2.4,0,0,1,116,435.48Z" />
      <path class="GUNDAN_TIGER_OUTFIT_TIGER_OUTFIT_16_cls-3" d="M302.74,411.79a15.84,15.84,0,0,0-3.23-.72,6.65,6.65,0,0,0-3.94.63c-3.06,1.63-3.86,6-2.66,9.29a16.84,16.84,0,0,0,4.14,6,3.86,3.86,0,0,0-3.13,2.26,4.33,4.33,0,0,0,.77,4,13.17,13.17,0,0,0,3.13,2.77,88.25,88.25,0,0,1,22.83,24.59c.32-4.19.64-9.21.91-15.2.2-4,.38-8.42.55-13.3q.12-3.81.13-7.15v0A42.19,42.19,0,0,0,302.74,411.79Zm-1.11,4.46a4.1,4.1,0,1,1-4,4.09A4,4,0,0,1,301.63,416.25Zm0,19.23a2.42,2.42,0,1,1,2.36-2.42A2.4,2.4,0,0,1,301.63,435.48Z" />
      <path class="GUNDAN_TIGER_OUTFIT_TIGER_OUTFIT_16_cls-3" d="M131.68,332.29a24,24,0,0,0-3.13.51,17.31,17.31,0,0,0-10.5,6.92,30.56,30.56,0,0,0-4.45,9.73c-.11.39-.21.76-.32,1.14-3.2,12.08-.84,16.49-4.83,21.45-1.22,1.52-3.42,2.88-5.94,5.12a31.39,31.39,0,0,0,3.22.36,2.59,2.59,0,0,1-.14,5.17.39.39,0,0,1-.15,0,35.14,35.14,0,0,1-7.06-1.15c-4.06,5.24-8.06,13.75-9.6,29.2.83-.21,1.65-.43,2.47-.7a2.51,2.51,0,0,1,3.18,1.67,2.36,2.36,0,0,1,.09,1.17,2.6,2.6,0,0,1-1.59,2l-.14.05a32,32,0,0,1-4.43,1.13c-.1,1.56-.17,3.2-.21,4.91-.2,8.15-.25,15.32-.19,21.57.18,19.28,1.31,29.73,1.82,33.41h8.63c-.3-2.28-.86-7.19-1.44-15.33-.32-4.19-.62-9.24-.91-15.23-.2-4-.38-8.42-.54-13.3-.09-2.54-.13-4.93-.14-7.17,0-4.51.14-8.45.45-11.94,1.3-14.61,5.42-21.24,12.37-27.91,1.22-1.17,2.54-2.34,3.94-3.56,12.2-10.62,2.49-37.49,16.6-42.76,2.76-1,6.27.14,10.12,2.7.33-.2.64-.38.93-.53.66-.36,1.19-.6,1.53-.76l.16-.06.31-.13a17.43,17.43,0,0,1,5.54-1.33C142.18,333.09,138.8,331.56,131.68,332.29Z" />
      <path class="GUNDAN_TIGER_OUTFIT_TIGER_OUTFIT_16_cls-3" d="M289.43,332.89a22.94,22.94,0,0,0-3.49-.6c-7.11-.73-10.49.8-15.64,6.36a17.49,17.49,0,0,1,5.54,1.33h0a1.45,1.45,0,0,1,.23.09l.22.1c.27.12.62.28,1.08.52a3.35,3.35,0,0,1,.45.24c.29.15.59.33.93.53h0c3.85-2.56,7.34-3.73,10.1-2.7a10.35,10.35,0,0,1,4.48,3.18c-1.69-2.27-3.28-4.65-4.87-7.05C288.81,334.23,289.12,333.57,289.43,332.89Z" />
      <path class="GUNDAN_TIGER_OUTFIT_TIGER_OUTFIT_16_cls-3" d="M177.25,370.38l-2.86-3-7-7.36a19.14,19.14,0,0,1-2.72,8l-.09.17c-.05.09-.14.24-.26.42,7,9.36,12.12,17.25,12.12,17.25H231.5a39.39,39.39,0,0,1,4.1-9.74,59,59,0,0,1,3.76-5.69H177.25Z" />
      <path class="GUNDAN_TIGER_OUTFIT_TIGER_OUTFIT_16_cls-3" d="M329.47,421c-.37-14.85-2.65-24.7-5.59-31.47a35.07,35.07,0,0,0-6.11-9.74c-3.56-3.95-7-5.69-8.6-7.73-2.29-2.86-2.48-5.53-2.84-9.59h0a67.55,67.55,0,0,0-1.17-8.46,37.63,37.63,0,0,1-4.61-3.79,59.2,59.2,0,0,1-6.5-7.35c6.39,9.44,1.22,29.77,11.45,38.67,11.25,9.79,16.82,16.7,16.75,43.41v0q0,3.35-.13,7.15c-.17,4.88-.35,9.3-.55,13.3-.27,6-.59,11-.91,15.2-.58,8.17-1.13,13.08-1.42,15.36h8.62c.5-3.68,1.64-14.13,1.81-33.41C329.73,436.3,329.68,429.13,329.47,421Z" />
      <ellipse class="GUNDAN_TIGER_OUTFIT_TIGER_OUTFIT_16_cls-5" cx="116" cy="433.06" rx="2.36" ry="2.42" />
      <ellipse class="GUNDAN_TIGER_OUTFIT_TIGER_OUTFIT_16_cls-5" cx="116" cy="420.34" rx="4" ry="4.1" />
      <ellipse class="GUNDAN_TIGER_OUTFIT_TIGER_OUTFIT_16_cls-5" cx="301.63" cy="433.06" rx="2.36" ry="2.42" />
      <ellipse class="GUNDAN_TIGER_OUTFIT_TIGER_OUTFIT_16_cls-5" cx="301.63" cy="420.34" rx="4" ry="4.1" />
      <path class="GUNDAN_TIGER_OUTFIT_TIGER_OUTFIT_16_cls-5" d="M148.79,338.58c-.49,0-1,0-1.46.07a17.43,17.43,0,0,0-5.54,1.33l-.31.13-.16.06c-.34.16-.87.4-1.53.76-.29.15-.6.33-.93.53-3.85-2.56-7.36-3.73-10.12-2.7-14.11,5.27-4.4,32.14-16.6,42.76-1.4,1.22-2.72,2.39-3.94,3.56-7,6.67-11.07,13.3-12.37,27.91-.31,3.49-.46,7.43-.45,11.94a42.22,42.22,0,0,1,19.51-13.14,14.89,14.89,0,0,1,3.24-.72,16.29,16.29,0,0,1,1.29-8.25,4.58,4.58,0,0,1,2.38-2.61,28.8,28.8,0,0,0,6.1,6.55,159.26,159.26,0,0,1-1.37-40.45,19.23,19.23,0,0,0,1.68,4.41,18.68,18.68,0,0,0,16.48,10,18.26,18.26,0,0,0,8.84-2.26l.09-.05L132,347.51a19.71,19.71,0,0,0-2.71,3.19,27.19,27.19,0,0,1,2.56-3.4l.15.21a18.43,18.43,0,0,1,4.22-3l22,30.37.28.38a26.52,26.52,0,0,0,5.82-6.66c.12-.18.21-.33.26-.42l.09-.17a19.14,19.14,0,0,0,2.72-8,16.74,16.74,0,0,0,.14-2.24A19,19,0,0,0,148.79,338.58Zm-22.43,19a20.2,20.2,0,0,1,1-3.21A20.2,20.2,0,0,0,126.36,357.56Z" />
      <path class="GUNDAN_TIGER_OUTFIT_TIGER_OUTFIT_16_cls-5" d="M305.49,381.52c-10.23-8.9-5.06-29.23-11.45-38.67l-.05-.07-.58-.77-.05-.07a10.35,10.35,0,0,0-4.48-3.18c-2.76-1-6.25.14-10.1,2.7h0c-.34-.2-.64-.38-.93-.53l-.45-.24c-.46-.24-.81-.4-1.08-.52l-.16-.06-.06,0a1.45,1.45,0,0,0-.23-.09h0a17.49,17.49,0,0,0-5.54-1.33c-.48,0-1-.07-1.47-.07A18.51,18.51,0,0,0,255,344.87a19.38,19.38,0,0,0-4.87,12.9c0,.34,0,.67,0,1s0,.83.1,1.23a19.15,19.15,0,0,0,2.73,8,1.53,1.53,0,0,0,.09.17l.25.42a26.43,26.43,0,0,0,4.88,5.84c.31.27.62.55.95.82l.28-.38,22-30.37a18.48,18.48,0,0,1,4.23,3l.15-.21a26.53,26.53,0,0,1,2.61,3.48,18.89,18.89,0,0,0-2.76-3.27L264,378.45l.09.05a18.3,18.3,0,0,0,8.85,2.26,18.92,18.92,0,0,0,18.16-14.5,159.38,159.38,0,0,1-1.36,40.52,29.43,29.43,0,0,0,6.08-6.57,4.63,4.63,0,0,1,2.39,2.61,16.53,16.53,0,0,1,1.3,8.25,15.84,15.84,0,0,1,3.23.72,42.19,42.19,0,0,1,19.5,13.14C322.31,398.22,316.74,391.31,305.49,381.52Zm-15.2-27.17a19.21,19.21,0,0,1,1,3.21A19.21,19.21,0,0,0,290.29,354.35Z" />
      <path class="GUNDAN_TIGER_OUTFIT_TIGER_OUTFIT_16_cls-2" d="M366.37,405.72a54.06,54.06,0,0,0-3.31-7.47,55.37,55.37,0,0,0-4.82-7.47c-.72-.95-1.46-1.86-2.24-2.74a1.87,1.87,0,0,0-2.68-.16,2,2,0,0,0-.14,2.74c.56.63,1.1,1.28,1.63,1.95a50.68,50.68,0,0,1,3.89,5.7,49.74,49.74,0,0,1,4.11,8.78,1.9,1.9,0,0,0,1.78,1.28,1.81,1.81,0,0,0,.64-.12A2,2,0,0,0,366.37,405.72Z" />
      <path class="GUNDAN_TIGER_OUTFIT_TIGER_OUTFIT_16_cls-2" d="M347,406.76a54.1,54.1,0,0,1-2.8-6.83,52.79,52.79,0,0,1-1.45-5.2,1.89,1.89,0,0,0-2.28-1.45,1.94,1.94,0,0,0-1.41,2.33,58.54,58.54,0,0,0,2.08,7.08c.68,1.88,1.47,3.72,2.32,5.51a58.44,58.44,0,0,0,4.84,8.25,1.87,1.87,0,0,0,1.54.81,1.79,1.79,0,0,0,1.09-.37,2,2,0,0,0,.43-2.71A53.25,53.25,0,0,1,347,406.76Z" />
      <path class="GUNDAN_TIGER_OUTFIT_TIGER_OUTFIT_16_cls-6" d="M289.41,370.72a18.68,18.68,0,0,1-16.47,10,18.3,18.3,0,0,1-8.85-2.26l-.09-.05a29.5,29.5,0,0,1-4.88-3.23c-.33-.27-.64-.55-.95-.82a13.23,13.23,0,0,0-4.41,1.89,14.77,14.77,0,0,0-4.89,5.54,29.09,29.09,0,0,0-2.82,9.27,57.9,57.9,0,0,0-.56,8c0,.79,0,1.56,0,2.3,0,2.5.19,4.65.27,6.19a8.58,8.58,0,0,0,.17,1.44c.56,2.83,2.35,5.28,4.36,7.74,1.39,1.7,2.87,3.41,4.12,5.27,1.35-9.81,2.15-17.9,2.51-21.91a269.87,269.87,0,0,1,29.54,4.63A161,161,0,0,0,289.41,370.72Z" />
      <path class="GUNDAN_TIGER_OUTFIT_TIGER_OUTFIT_16_cls-6" d="M241.06,450.17a16.83,16.83,0,0,1-5.85-.61c-8.05-2.41-11.47-10.92-8.28-17.22a9.52,9.52,0,0,1,1.11-1.71,9.16,9.16,0,0,1,6.69-3.16,16.39,16.39,0,0,1,4.39.29c-.23-.29-.47-.58-.72-.85-.47-.5-.89-1-1.34-1.6v0c-2.18-2.93-3.79-6.78-4.88-11.92a82.17,82.17,0,0,1-1.5-13.92l0-1.09c-.06-1.82-.07-3.75-.06-5.77a26.46,26.46,0,0,1,.45-4.71c.13-.7.29-1.38.47-2.07H176.45s-5.08-7.89-12.12-17.25a26.52,26.52,0,0,1-5.82,6.66,28.4,28.4,0,0,1-4.89,3.23l-.09.05a18.26,18.26,0,0,1-8.84,2.26,18.68,18.68,0,0,1-16.48-10,161.18,161.18,0,0,0,2.95,34.09h0c8.27-1.87,16.5-3.27,24.57-4.29,1.05,11.44,5.34,52.43,15,75.44H241.9c3.34-8,6-18.1,8.19-28.41-.22.14-.43.27-.65.39A19.26,19.26,0,0,1,241.06,450.17Z" />
      <path class="GUNDAN_TIGER_OUTFIT_TIGER_OUTFIT_16_cls-6" d="M136.18,344.47a18.43,18.43,0,0,0-4.22,3l21.66,30.94a18.78,18.78,0,0,0,4.61-3.61Z" />
      <path class="GUNDAN_TIGER_OUTFIT_TIGER_OUTFIT_16_cls-6" d="M281.44,344.47l-22,30.37a18.73,18.73,0,0,0,4.6,3.61l21.67-30.94A18.48,18.48,0,0,0,281.44,344.47Z" />
      <path class="GUNDAN_TIGER_OUTFIT_TIGER_OUTFIT_16_cls-6" d="M127.9,406.76a28.8,28.8,0,0,1-6.1-6.55,4.58,4.58,0,0,0-2.38,2.61,16.29,16.29,0,0,0-1.29,8.25,6.83,6.83,0,0,1,3.94.63c3.05,1.63,3.84,6,2.66,9.29a17,17,0,0,1-4.14,6,3.86,3.86,0,0,1,3.13,2.26,4.36,4.36,0,0,1-.78,4,13.57,13.57,0,0,1-3.13,2.77A88.13,88.13,0,0,0,97,460.63c.58,8.14,1.14,13.05,1.44,15.33h53.91v-6.25a159.78,159.78,0,0,1-24.42-62.93Z" />
      <path class="GUNDAN_TIGER_OUTFIT_TIGER_OUTFIT_16_cls-6" d="M297.82,436a13.17,13.17,0,0,1-3.13-2.77,4.33,4.33,0,0,1-.77-4,3.86,3.86,0,0,1,3.13-2.26,16.84,16.84,0,0,1-4.14-6c-1.2-3.31-.4-7.66,2.66-9.29a6.65,6.65,0,0,1,3.94-.63,16.53,16.53,0,0,0-1.3-8.25,4.63,4.63,0,0,0-2.39-2.61,29.43,29.43,0,0,1-6.08,6.57,160.09,160.09,0,0,1-24.44,62.93V476h53.93c.29-2.28.84-7.19,1.42-15.36A88.25,88.25,0,0,0,297.82,436Z" />
      <path class="GUNDAN_TIGER_OUTFIT_TIGER_OUTFIT_16_cls-6" d="M393.66,345.49A195.4,195.4,0,0,0,340,363.78l-1.24.65a161.81,161.81,0,0,0-16.94,10.3c2.05,4.75,4.27,9.44,6.66,14a7.77,7.77,0,0,0,.87-.53c17.56-12.42,36.45-19.6,51-23.7a177.18,177.18,0,0,1,17.44-4C396.2,355.6,395.11,350.48,393.66,345.49Z" />
      <path class="GUNDAN_TIGER_OUTFIT_TIGER_OUTFIT_16_cls-6" d="M305.27,354.08a41.51,41.51,0,0,0,8.34,4.38,9.13,9.13,0,0,0,.48-1.1c.18-.49.36-1,.53-1.49,9.24-25.57,22.44-48,41.55-67-4.34-2.21-6.75-3.16-11.16-5.19-.49-.22-1-.45-1.45-.69-17.45,18.39-31.69,38.24-41.06,62-.7,1.72-1.34,3.44-2,5.17a37.63,37.63,0,0,0,4.61,3.79A.54.54,0,0,1,305.27,354.08Z" />
      <path class="GUNDAN_TIGER_OUTFIT_TIGER_OUTFIT_16_cls-7" d="M101.67,275.06a9.07,9.07,0,0,0-5.46,1.78c-.79.53-1.57,1.07-2.33,1.63a61.1,61.1,0,0,0-7.21,6.24c.69,7,10.39,20.76,12.76,27.35,4.19,11.65,9.6,23,11.53,35.21a9.1,9.1,0,0,1,.05,2.66,2.78,2.78,0,0,1-1.6,2.36,2.85,2.85,0,0,1-3-1,9.16,9.16,0,0,1-1.48-3.1l-3.48-10.68c-2.42,2.21-4.76,4.54-7,7a128.58,128.58,0,0,0-10,12.2c-1.4,1.95-2.77,3.94-4.05,6a33.61,33.61,0,0,0,22.13,14.52c2.52-2.24,4.72-3.6,5.94-5.12,4-5,1.63-9.37,4.83-21.45h0c.11-.38.21-.75.32-1.14a30.56,30.56,0,0,1,4.45-9.73C102,316,101.67,275.06,101.67,275.06Z" />
      <path class="GUNDAN_TIGER_OUTFIT_TIGER_OUTFIT_16_cls-7" d="M88.15,421c0-1.71.11-3.35.21-4.91a38.2,38.2,0,0,1-27.08-5.21,129.82,129.82,0,0,0-2,16c-.19,3-.26,5.93-.24,8.9,0,3.32-3.4,5.65-6.88,6.48a99.85,99.85,0,0,1,23.15,19.59s2.17,3.09,4.48,7a8.56,8.56,0,0,0-1.76,2,8.66,8.66,0,0,0-1.2,3.39l-1.18-.85c-2.36-3.52-4.81-6.92-4.81-6.92-8.12-9.6-18.38-17.11-29.25-23.22a246.85,246.85,0,0,0-25.28-12.06,63.45,63.45,0,0,1-8,11.43l.35-.2c.8,4.51,2.37,8.61,5.64,11.74A14.66,14.66,0,0,0,4.37,463c-1.15,3.18-.81,6.89,1.62,9.22L1.29,476H89.78c-.51-3.68-1.64-14.13-1.82-33.41C87.9,436.3,88,429.13,88.15,421Z" />
      <path class="GUNDAN_TIGER_OUTFIT_TIGER_OUTFIT_16_cls-7" d="M77.48,367.36q-1.8,3.09-3.42,6.24A133.48,133.48,0,0,0,66.22,392a139.26,139.26,0,0,0-3.82,13.41,33,33,0,0,0,26.38,5.28c1.54-15.45,5.54-24,9.6-29.2A38.9,38.9,0,0,1,77.48,367.36Z" />
      <path class="GUNDAN_TIGER_OUTFIT_TIGER_OUTFIT_16_cls-7" d="M114,270.58c-1.29.84-2.56,1.68-3.85,2.54,0,0,.45,33.77,18.37,59.68a24,24,0,0,1,3.13-.51c7.12-.73,10.5.8,15.65,6.36.48,0,1-.07,1.46-.07a19,19,0,0,1,18.75,19.19,16.74,16.74,0,0,1-.14,2.24l7,7.36c5.3-4.46,36.56-9,41.74-13.66-12.48-9.43-50.72-19.23-61.81-30.33C141.4,310.46,121.49,287.37,114,270.58Z" />
      <path class="GUNDAN_TIGER_OUTFIT_TIGER_OUTFIT_16_cls-7" d="M364.93,399.8a37.47,37.47,0,0,0,20.78,13.64,34.78,34.78,0,0,0,23.63-2.81,55.91,55.91,0,0,0-5.7-12.34c-.16-.29-.33-.56-.51-.85a133.55,133.55,0,0,0-10-13.67c-1-.1-2-.15-3-.17a70.62,70.62,0,0,0-31.86,7.18,55.37,55.37,0,0,1,4.82,7.47A5.29,5.29,0,0,1,364.93,399.8Z" />
      <path class="GUNDAN_TIGER_OUTFIT_TIGER_OUTFIT_16_cls-7" d="M327.85,476h92.84a19.32,19.32,0,0,1-4.38-20.63,6.58,6.58,0,0,1-3.6-4.09,19.88,19.88,0,0,1-.82-5.61l-.06-1.21a74.39,74.39,0,0,1-8.7.5,76.15,76.15,0,0,1-25.47-4.39,81.86,81.86,0,0,1-32.35-21.46c-.77-.82-1.5-1.65-2.23-2.49a6.23,6.23,0,0,1,.2-8.22l.17-.16c-.85-1.79-1.64-3.63-2.32-5.51-1,1-2,2-2.94,3q-5.22-8.26-9.71-17c-2.39-4.59-4.61-9.28-6.66-14q-3.31-7.62-6.06-15.5c-.72-.24-1.44-.5-2.15-.77a41.51,41.51,0,0,1-8.34-4.38.54.54,0,0,0-.12-.09,67.55,67.55,0,0,1,1.17,8.46h0c.36,4.06.55,6.73,2.84,9.59,1.64,2,5,3.78,8.6,7.73a35.07,35.07,0,0,1,6.11,9.74c2.94,6.77,5.22,16.62,5.59,31.47.21,8.15.26,15.32.19,21.57C329.49,461.83,328.35,472.28,327.85,476Z" />
      <path class="GUNDAN_TIGER_OUTFIT_TIGER_OUTFIT_16_cls-7" d="M350.77,408.58a71.71,71.71,0,0,0,30.15,20.88,66.27,66.27,0,0,0,30.3,3.34c-.17-3.4-.36-6.8-.54-10.19A44.91,44.91,0,0,1,393.61,426a44.42,44.42,0,0,1-10.13-1.17,48.13,48.13,0,0,1-26.63-17.49,6.24,6.24,0,0,1,.61-8.2,4.77,4.77,0,0,1,1.24-.86,50.68,50.68,0,0,0-3.89-5.7,65.92,65.92,0,0,0-10.62,7.36,54.1,54.1,0,0,0,2.8,6.83A5.07,5.07,0,0,1,350.77,408.58Z" />
      <path class="GUNDAN_TIGER_OUTFIT_TIGER_OUTFIT_16_cls-7" d="M327.61,280.51c-4.92-2.77-9.78-5.66-14.51-8.75-8.72,12.17-34,44.31-59.05,72.26a302.48,302.48,0,0,1-26.2,26.36h11.51a67,67,0,0,1,5.24-6.22,76.15,76.15,0,0,1,5.52-5.38c0-.34,0-.67,0-1a19.38,19.38,0,0,1,4.87-12.9,18.51,18.51,0,0,1,13.87-6.29c.5,0,1,0,1.47.07,5.15-5.56,8.53-7.09,15.64-6.36a22.94,22.94,0,0,1,3.49.6c.63-1.33,1.26-2.66,1.88-4,3.81-8.1,7.62-16.22,12.37-23.78C310,295,318.4,288,327.61,280.51Z" />
      <path class="GUNDAN_TIGER_OUTFIT_TIGER_OUTFIT_16_cls-3" d="M131.16,404.81a161.18,161.18,0,0,1-2.95-34.09,19.23,19.23,0,0,1-1.68-4.41,159.26,159.26,0,0,0,1.37,40.45v0a159.78,159.78,0,0,0,24.42,62.93V476h7.52v-5.81a160.72,160.72,0,0,1-28.66-65.34Z" />
      <path class="GUNDAN_TIGER_OUTFIT_TIGER_OUTFIT_16_cls-3" d="M289.41,370.72a162.28,162.28,0,0,1-31.63,99.43V476h7.52v-6.25a161.27,161.27,0,0,0,25.8-103.45A18.58,18.58,0,0,1,289.41,370.72Z" />
      <path class="GUNDAN_TIGER_OUTFIT_TIGER_OUTFIT_16_cls-3" d="M422.68,436.56a5.37,5.37,0,0,0-6.2-4.64q-2.61.56-5.26.88a66.27,66.27,0,0,1-30.3-3.34,71.71,71.71,0,0,1-30.15-20.88,5.07,5.07,0,0,0-3.78-1.82,53.25,53.25,0,0,0,4.36,7.42,2,2,0,0,1-.43,2.71,1.79,1.79,0,0,1-1.09.37,1.87,1.87,0,0,1-1.54-.81,58.44,58.44,0,0,1-4.84-8.25l-.17.16a6.23,6.23,0,0,0-.2,8.22c.73.84,1.46,1.67,2.23,2.49a81.86,81.86,0,0,0,32.35,21.46,76.15,76.15,0,0,0,25.47,4.39,74.39,74.39,0,0,0,8.7-.5c2.22-.26,4.43-.61,6.62-1.07A5.81,5.81,0,0,0,422.68,436.56Z" />
      <path class="GUNDAN_TIGER_OUTFIT_TIGER_OUTFIT_16_cls-3" d="M385.71,413.44a37.47,37.47,0,0,1-20.78-13.64,5.29,5.29,0,0,0-1.87-1.55,54.06,54.06,0,0,1,3.31,7.47,2,2,0,0,1-1.14,2.49,1.81,1.81,0,0,1-.64.12,1.9,1.9,0,0,1-1.78-1.28,49.74,49.74,0,0,0-4.11-8.78,4.77,4.77,0,0,0-1.24.86,6.24,6.24,0,0,0-.61,8.2,48.13,48.13,0,0,0,26.63,17.49A44.42,44.42,0,0,0,393.61,426a44.91,44.91,0,0,0,17.07-3.38c1.22-.51,2.42-1.06,3.61-1.67a6.07,6.07,0,0,0,2.52-7.74,5.1,5.1,0,0,0-7.05-2.78l-.42.21A34.78,34.78,0,0,1,385.71,413.44Z" />
      <path class="GUNDAN_TIGER_OUTFIT_TIGER_OUTFIT_16_cls-3" d="M338.92,363.75c.36,0,.71,0,1.08,0a195.4,195.4,0,0,1,53.66-18.29,1.52,1.52,0,0,1-.06-.2,48.06,48.06,0,0,0-6-13.58l.71-1.08-.39.21c2.36-4.48,5.28-10.38,2.78-14.78-.27-.51-.58-1-.87-1.49h0c-4.83-7.86-11.81-14.21-19.43-19.31-4.05-2.7-9.94-4.18-14.27-6.37-19.11,19-32.31,41.41-41.55,67-.17.49-.35,1-.53,1.49a9.13,9.13,0,0,1-.48,1.1c.71.27,1.43.53,2.15.77q2.75,7.88,6.06,15.5a161.81,161.81,0,0,1,16.94-10.3Zm29.42-45.95c-.73.46-1.44.95-2.14,1.46h0C366.9,318.75,367.61,318.26,368.34,317.8Z" />
      <path class="GUNDAN_TIGER_OUTFIT_TIGER_OUTFIT_16_cls-3" d="M331.72,277.35c-1.4,1-2.76,2.07-4.11,3.16C318.4,288,310,295,303.68,305.11c-4.75,7.56-8.56,15.68-12.37,23.78-.62,1.34-1.25,2.67-1.88,4-.31.68-.62,1.34-.94,2,1.59,2.4,3.18,4.78,4.87,7.05l.05.07a5.35,5.35,0,0,1,.58.77l.05.07a59.2,59.2,0,0,0,6.5,7.35c.62-1.73,1.26-3.45,2-5.17,9.37-23.78,23.61-43.63,41.06-62C339.58,281.15,335.73,279.2,331.72,277.35Z" />
      <path class="GUNDAN_TIGER_OUTFIT_TIGER_OUTFIT_16_cls-3" d="M340.46,393.28a1.89,1.89,0,0,1,2.28,1.45,52.79,52.79,0,0,0,1.45,5.2,65.92,65.92,0,0,1,10.62-7.36c-.53-.67-1.07-1.32-1.63-1.95a2,2,0,0,1,.14-2.74A1.87,1.87,0,0,1,356,388c.78.88,1.52,1.79,2.24,2.74a70.62,70.62,0,0,1,31.86-7.18c1,0,2,.07,3,.17a133.55,133.55,0,0,1,10,13.67c.18.29.35.56.51.85a15.4,15.4,0,0,0,3.67-9.45c.22-4.37-1.06-8.67-2.75-12.69s-3.81-7.83-5.42-11.88c-.5-1.23-.93-2.47-1.34-3.73a177.18,177.18,0,0,0-17.44,4c-14.56,4.1-33.45,11.28-51,23.7a7.77,7.77,0,0,1-.87.53q4.49,8.7,9.71,17c.95-1.05,1.93-2.07,2.94-3a58.54,58.54,0,0,1-2.08-7.08A1.94,1.94,0,0,1,340.46,393.28Z" />
      <path class="GUNDAN_TIGER_OUTFIT_TIGER_OUTFIT_16_cls-2" d="M131.18,404.81a160.72,160.72,0,0,0,28.66,65.34V476h10.9c-9.65-23-13.94-64-15-75.44C147.68,401.54,139.45,402.94,131.18,404.81Z" />
      <path class="GUNDAN_TIGER_OUTFIT_TIGER_OUTFIT_16_cls-2" d="M254.41,422.09a16.36,16.36,0,0,1,2.84,6.51,12.3,12.3,0,0,1,.19,2.6c-.2,7.13-2.16,13.12-7.35,16.35-2.15,10.31-4.85,20.44-8.19,28.41h15.88v-5.81a160.69,160.69,0,0,0,28.68-65.34,269.87,269.87,0,0,0-29.54-4.63C256.56,404.19,255.76,412.28,254.41,422.09Z" />
      <path class="GUNDAN_TIGER_OUTFIT_TIGER_OUTFIT_16_cls-2" d="M313.1,271.76c-8.72,12.17-34,44.31-59.05,72.26-4.48,5-9,9.79-13.35,14.23l0,0c-4.31,4.36-8.53,8.37-12.57,11.87l-.26.23h-50.6l-.6-.63-.81-.85-.25-.27v0c-.24-.24-.52-.54-.86-.9,0,0,0,0,0,0l-.29-.29h0c5.33-4.46,36.55-9,41.73-13.65-12.48-9.43-50.72-19.23-61.81-30.33-12.92-12.92-32.83-36-40.29-52.8a27.09,27.09,0,0,0,2.6-2.17l.05-.05a18.63,18.63,0,0,1,2-1.66l.82-1.17c.83-1.14,2.19-3,3.69-4.76,6,10.48,17.17,21.28,30.4,31.64,24.86,19.46,57.08,37.33,76.62,48.4,25.89-24.24,50.55-48.29,73.07-75.85Q308.1,268.53,313.1,271.76Z" />
      <path class="GUNDAN_TIGER_OUTFIT_TIGER_OUTFIT_16_cls-8" d="M123.21,260.78c17.38,30.16,77.09,63.07,107,80" />
      <path class="GUNDAN_TIGER_OUTFIT_TIGER_OUTFIT_16_cls-8" d="M114,270.58c7.46,16.79,27.37,39.88,40.29,52.8,11.09,11.1,49.33,20.9,61.81,30.33" />
      <path class="GUNDAN_TIGER_OUTFIT_TIGER_OUTFIT_16_cls-8" d="M62.4,405.44A139.26,139.26,0,0,1,66.22,392a133.48,133.48,0,0,1,7.84-18.43q1.62-3.15,3.42-6.24" />
      <path class="GUNDAN_TIGER_OUTFIT_TIGER_OUTFIT_16_cls-8" d="M61.27,410.86a131.77,131.77,0,0,0-2,16c-.19,3-.26,5.93-.24,8.9,0,3.32-3.4,5.65-6.88,6.48" />
      <path class="GUNDAN_TIGER_OUTFIT_TIGER_OUTFIT_16_cls-8" d="M80.38,362.64c1.28-2,2.65-4,4.05-6a128.58,128.58,0,0,1,10-12.2c2.23-2.41,4.57-4.74,7-7" />
      <path class="GUNDAN_TIGER_OUTFIT_TIGER_OUTFIT_16_cls-8" d="M93.88,278.47c-.64-3.3-1.27-6.58-1.9-9.87a12.49,12.49,0,0,0-1.2-3.83,4,4,0,0,0-3.13-2.17c-2.08-.06-3.57,2-4.43,3.94-.26.58-.5,1.18-.73,1.79a40,40,0,0,0-1.63,18.89c.92,7,10.84,20.55,13,27.22l7.53,23.08,3.48,10.68a9.16,9.16,0,0,0,1.48,3.1,2.85,2.85,0,0,0,3,1,2.78,2.78,0,0,0,1.6-2.36,9.1,9.1,0,0,0-.05-2.66C109,335,103.62,323.71,99.43,312.06c-2.37-6.59-12.07-20.38-12.76-27.35a44.42,44.42,0,0,1,1-15.88" />
      <path class="GUNDAN_TIGER_OUTFIT_TIGER_OUTFIT_16_cls-8" d="M82.49,268.33l-2.9,1.12c-4.18,1.62-2.79,9.31-6.49,11.87s-4.75,7-6,11.37a26.68,26.68,0,0,0-12.45,7.37A28.57,28.57,0,0,0,48,313.29c-4.08,2.4-6.86,6.64-8.76,11A45.71,45.71,0,0,0,35.51,342a24.28,24.28,0,0,0-9.41,26.22,28.38,28.38,0,0,0-7,23.49,11.79,11.79,0,0,0-2.95,6.2A45.37,45.37,0,0,0,17.58,421c-1,.9-2.07,1.92-3.1,2.89l-1.39,1.27c-.92.81-1.12,2.2-1.64,3.32l-.09.54" />
      <path class="GUNDAN_TIGER_OUTFIT_TIGER_OUTFIT_16_cls-8" d="M14.48,423.87c10.72,4.45,21.43,9,31.58,14.7,2.06,1.16,4.1,2.36,6.11,3.63a99.85,99.85,0,0,1,23.15,19.59s2.17,3.09,4.48,7A70.28,70.28,0,0,1,83.61,476" />
      <path class="GUNDAN_TIGER_OUTFIT_TIGER_OUTFIT_16_cls-8" d="M11.36,429l5,2.08A246.85,246.85,0,0,1,41.6,443.14c10.87,6.11,21.13,13.62,29.25,23.22,0,0,2.45,3.4,4.81,6.92" />
      <path class="GUNDAN_TIGER_OUTFIT_TIGER_OUTFIT_16_cls-8" d="M67.14,292.69s6.77,32.5,27.28,51.78" />
      <path class="GUNDAN_TIGER_OUTFIT_TIGER_OUTFIT_16_cls-8" d="M48,313.29s13.46,34.63,36.45,43.38" />
      <path class="GUNDAN_TIGER_OUTFIT_TIGER_OUTFIT_16_cls-8" d="M35.51,342S41.39,361.33,74,373.6" />
      <path class="GUNDAN_TIGER_OUTFIT_TIGER_OUTFIT_16_cls-8" d="M26.1,368.17S40.27,385.67,66.21,392" />
      <path class="GUNDAN_TIGER_OUTFIT_TIGER_OUTFIT_16_cls-8" d="M19.08,391.66s9.26,17.4,41.37,18.67" />
      <path class="GUNDAN_TIGER_OUTFIT_TIGER_OUTFIT_16_cls-8" d="M17.58,421s16.06,10,41.71,5.84" />
      <path class="GUNDAN_TIGER_OUTFIT_TIGER_OUTFIT_16_cls-8" d="M86.67,284.71a58.65,58.65,0,0,1,7.22-6.24c.49-.37,1-.72,1.5-1.08l.82-.55a9.66,9.66,0,0,1,4.81-1.79,4.7,4.7,0,0,1,.65,0,5.49,5.49,0,0,1,4.45-3c1.85-.12,3-.52,4.06,1l.43-.28c1.08-.72,2.15-1.42,3.23-2.12l.19-.13a27.09,27.09,0,0,0,2.6-2.17l.05-.05a18.63,18.63,0,0,1,2-1.66l.82-1.17c.83-1.14,2.19-3,3.69-4.76" />
      <path class="GUNDAN_TIGER_OUTFIT_TIGER_OUTFIT_16_cls-8" d="M128.55,332.8c-17.92-25.91-18.37-59.68-18.37-59.68" />
      <path class="GUNDAN_TIGER_OUTFIT_TIGER_OUTFIT_16_cls-8" d="M118.05,339.72c-16-23.74-16.38-64.66-16.38-64.66" />
      <path class="GUNDAN_TIGER_OUTFIT_TIGER_OUTFIT_16_cls-8" d="M88.78,410.72c1.54-15.45,5.54-24,9.6-29.2" />
      <path class="GUNDAN_TIGER_OUTFIT_TIGER_OUTFIT_16_cls-8" d="M89.78,476c-.51-3.68-1.64-14.13-1.82-33.41-.06-6.25,0-13.42.19-21.57,0-1.71.11-3.35.21-4.91" />
      <path class="GUNDAN_TIGER_OUTFIT_TIGER_OUTFIT_16_cls-8" d="M102.51,377.16c2.52-2.24,4.72-3.6,5.94-5.12,4-5,1.63-9.37,4.83-21.45.11-.38.21-.75.32-1.14a30.56,30.56,0,0,1,4.45-9.73,17.31,17.31,0,0,1,10.5-6.92,24,24,0,0,1,3.13-.51c7.12-.73,10.5.8,15.65,6.36" />
      <path class="GUNDAN_TIGER_OUTFIT_TIGER_OUTFIT_16_cls-8" d="M167.4,360l7,7.36,2.86,3" />
      <path class="GUNDAN_TIGER_OUTFIT_TIGER_OUTFIT_16_cls-8" d="M138.86,341.46c-3.85-2.56-7.36-3.73-10.12-2.7-14.11,5.27-4.4,32.14-16.6,42.76-1.4,1.22-2.72,2.39-3.94,3.56-7,6.67-11.07,13.3-12.37,27.91-.31,3.49-.46,7.43-.45,11.94,0,2.24.05,4.63.14,7.17.16,4.88.34,9.3.54,13.3.29,6,.59,11,.91,15.23.58,8.14,1.14,13.05,1.44,15.33" />
      <path class="GUNDAN_TIGER_OUTFIT_TIGER_OUTFIT_16_cls-8" d="M176.86,385.81h-.41s-5.08-7.89-12.12-17.25" />
      <path class="GUNDAN_TIGER_OUTFIT_TIGER_OUTFIT_16_cls-8" d="M129.25,350.7a19.71,19.71,0,0,1,2.71-3.19,18.43,18.43,0,0,1,4.22-3,18.22,18.22,0,0,1,8.51-2.09,19,19,0,0,1,18.75,19.19,18.77,18.77,0,0,1-.65,4.95h0a19.09,19.09,0,0,1-4.56,8.31,18.78,18.78,0,0,1-4.61,3.61" />
      <path class="GUNDAN_TIGER_OUTFIT_TIGER_OUTFIT_16_cls-8" d="M126.53,366.3A19.54,19.54,0,0,1,128,352.84" />
      <path class="GUNDAN_TIGER_OUTFIT_TIGER_OUTFIT_16_cls-8" d="M153.53,378.5a18.26,18.26,0,0,1-8.84,2.26,18.68,18.68,0,0,1-16.48-10,19.23,19.23,0,0,1-1.68-4.41" />
      <path class="GUNDAN_TIGER_OUTFIT_TIGER_OUTFIT_16_cls-8" d="M141.48,340.11l-.16.06" />
      <path class="GUNDAN_TIGER_OUTFIT_TIGER_OUTFIT_16_cls-8" d="M164.67,368a19,19,0,0,0,2.73-8,16.74,16.74,0,0,0,.14-2.24,19,19,0,0,0-18.75-19.19c-.49,0-1,0-1.46.07a17.43,17.43,0,0,0-5.54,1.33" />
      <path class="GUNDAN_TIGER_OUTFIT_TIGER_OUTFIT_16_cls-8" d="M141.79,340l-.31.13-.16.06c-.34.16-.87.4-1.53.76-.29.15-.6.33-.93.53a29.22,29.22,0,0,0-7.05,5.84,27.19,27.19,0,0,0-2.56,3.4c-.43.67-.85,1.39-1.24,2.14" />
      <path class="GUNDAN_TIGER_OUTFIT_TIGER_OUTFIT_16_cls-8" d="M153.53,378.5l.09-.05a28.4,28.4,0,0,0,4.89-3.23,26.52,26.52,0,0,0,5.82-6.66c.12-.18.21-.33.26-.42l.08-.17" />
      <path class="GUNDAN_TIGER_OUTFIT_TIGER_OUTFIT_16_cls-8" d="M131.18,404.81a160.72,160.72,0,0,0,28.66,65.34V476" />
      <path class="GUNDAN_TIGER_OUTFIT_TIGER_OUTFIT_16_cls-8" d="M128.21,370.72a161.18,161.18,0,0,0,2.95,34.09" />
      <path class="GUNDAN_TIGER_OUTFIT_TIGER_OUTFIT_16_cls-8" d="M127.9,406.78a159.78,159.78,0,0,0,24.42,62.93V476" />
      <path class="GUNDAN_TIGER_OUTFIT_TIGER_OUTFIT_16_cls-8" d="M126.53,366.3h0a159.26,159.26,0,0,0,1.37,40.45" />
      <path class="GUNDAN_TIGER_OUTFIT_TIGER_OUTFIT_16_cls-8" d="M97,460.63A88.13,88.13,0,0,1,119.81,436a13.57,13.57,0,0,0,3.13-2.77,4.36,4.36,0,0,0,.78-4,3.86,3.86,0,0,0-3.13-2.26,6.17,6.17,0,0,0-1,0,10.55,10.55,0,0,0-4.63,1.78A68.84,68.84,0,0,0,96.06,445.4" />
      <path class="GUNDAN_TIGER_OUTFIT_TIGER_OUTFIT_16_cls-8" d="M120.59,427a17,17,0,0,0,4.14-6c1.18-3.31.39-7.66-2.66-9.29a6.83,6.83,0,0,0-3.94-.63,14.89,14.89,0,0,0-3.24.72,42.22,42.22,0,0,0-19.51,13.14" />
      <path class="GUNDAN_TIGER_OUTFIT_TIGER_OUTFIT_16_cls-8" d="M127.9,406.78v0a28.8,28.8,0,0,1-6.1-6.55,4.58,4.58,0,0,0-2.38,2.61,16.29,16.29,0,0,0-1.29,8.25" />
      <path class="GUNDAN_TIGER_OUTFIT_TIGER_OUTFIT_16_cls-8" d="M102.51,377.16a31.39,31.39,0,0,0,3.22.36,2.59,2.59,0,0,1-.14,5.17.39.39,0,0,1-.15,0,35.14,35.14,0,0,1-7.06-1.15,38.9,38.9,0,0,1-20.9-14.16,36.52,36.52,0,0,1-2.94-4.59,2.62,2.62,0,0,1,1-3.51,2.5,2.5,0,0,1,3.43,1c.44.81.91,1.6,1.43,2.37A33.61,33.61,0,0,0,102.51,377.16Z" />
      <path class="GUNDAN_TIGER_OUTFIT_TIGER_OUTFIT_16_cls-8" d="M94.52,412.86a2.58,2.58,0,0,1-1.59,2l-.14.05a32,32,0,0,1-4.43,1.13,37.32,37.32,0,0,1-16.08-.53,37.85,37.85,0,0,1-11-4.68l-.82-.53A31.61,31.61,0,0,1,57,407.69a2.6,2.6,0,0,1-.32-3.63,2.48,2.48,0,0,1,3.56-.32c.69.59,1.42,1.16,2.17,1.7a33,33,0,0,0,26.38,5.28c.83-.21,1.65-.43,2.47-.7a2.51,2.51,0,0,1,3.18,1.67A2.36,2.36,0,0,1,94.52,412.86Z" />
      <path class="GUNDAN_TIGER_OUTFIT_TIGER_OUTFIT_16_cls-8" d="M78.86,438.51c-2-7.71-4.53-15.93-7.15-20.56" />
      <path class="GUNDAN_TIGER_OUTFIT_TIGER_OUTFIT_16_cls-8" d="M76.84,474.13a8.66,8.66,0,0,1,1.2-3.39,8.56,8.56,0,0,1,1.76-2,8.43,8.43,0,0,1,2.62-1.46,12.49,12.49,0,0,0-2.82-7.94,46.9,46.9,0,0,0,2.06-9c0-.12,0-.25.06-.36a15.49,15.49,0,0,0-1.33-9.2,12.55,12.55,0,0,0-1.53-2.25v0a30.29,30.29,0,0,0-6.47-5.26l-8.77-5.84" />
      <ellipse class="GUNDAN_TIGER_OUTFIT_TIGER_OUTFIT_16_cls-8" cx="116" cy="420.34" rx="4" ry="4.1" />
      <ellipse class="GUNDAN_TIGER_OUTFIT_TIGER_OUTFIT_16_cls-8" cx="116" cy="433.06" rx="2.36" ry="2.42" />
      <path class="GUNDAN_TIGER_OUTFIT_TIGER_OUTFIT_16_cls-8" d="M306.33,362.45c.36,4.06.55,6.73,2.84,9.59,1.64,2,5,3.79,8.6,7.73a35.07,35.07,0,0,1,6.11,9.74c2.94,6.77,5.22,16.62,5.59,31.47.21,8.15.26,15.32.19,21.57-.17,19.28-1.31,29.73-1.81,33.41" />
      <path class="GUNDAN_TIGER_OUTFIT_TIGER_OUTFIT_16_cls-8" d="M305.15,354a67.55,67.55,0,0,1,1.17,8.46" />
      <path class="GUNDAN_TIGER_OUTFIT_TIGER_OUTFIT_16_cls-8" d="M270.3,338.65c5.15-5.56,8.53-7.09,15.64-6.36a22.94,22.94,0,0,1,3.49.6" />
      <polyline class="GUNDAN_TIGER_OUTFIT_TIGER_OUTFIT_16_cls-8" points="176.86 370.38 177.25 370.38 227.85 370.38 239.36 370.38" />
      <path class="GUNDAN_TIGER_OUTFIT_TIGER_OUTFIT_16_cls-8" d="M322.24,425q0,3.35-.13,7.15c-.17,4.88-.34,9.3-.55,13.3-.27,6-.59,11-.91,15.2-.58,8.17-1.13,13.08-1.42,15.36" />
      <path class="GUNDAN_TIGER_OUTFIT_TIGER_OUTFIT_16_cls-8" d="M294,342.85c6.39,9.44,1.22,29.77,11.45,38.67,11.25,9.79,16.82,16.7,16.75,43.41" />
      <path class="GUNDAN_TIGER_OUTFIT_TIGER_OUTFIT_16_cls-8" d="M293.41,342a5.35,5.35,0,0,1,.58.77" />
      <path class="GUNDAN_TIGER_OUTFIT_TIGER_OUTFIT_16_cls-8" d="M278.78,341.46c3.85-2.56,7.34-3.73,10.1-2.7a10.35,10.35,0,0,1,4.48,3.18" />
      <line class="GUNDAN_TIGER_OUTFIT_TIGER_OUTFIT_16_cls-8" x1="231.5" y1="385.81" x2="176.86" y2="385.81" />
      <path class="GUNDAN_TIGER_OUTFIT_TIGER_OUTFIT_16_cls-8" d="M264.09,378.5a18.3,18.3,0,0,0,8.85,2.26,18.92,18.92,0,0,0,18.16-14.5,19.07,19.07,0,0,0,.57-4.69,19.48,19.48,0,0,0-2.05-8.73c-.32-.6-.65-1.18-1-1.72-.06-.12-.14-.24-.2-.34a18.89,18.89,0,0,0-2.76-3.27,18.48,18.48,0,0,0-4.23-3,18.21,18.21,0,0,0-8.5-2.09,19,19,0,0,0-18.75,19.19,18.77,18.77,0,0,0,.64,4.95h0a19.11,19.11,0,0,0,4.57,8.31,18.73,18.73,0,0,0,4.6,3.61" />
      <path class="GUNDAN_TIGER_OUTFIT_TIGER_OUTFIT_16_cls-8" d="M277.38,340.69l.45.24" />
      <path class="GUNDAN_TIGER_OUTFIT_TIGER_OUTFIT_16_cls-8" d="M276.08,340.07l.06,0,.16.06" />
      <path class="GUNDAN_TIGER_OUTFIT_TIGER_OUTFIT_16_cls-8" d="M253,368a19.15,19.15,0,0,1-2.73-8c-.06-.4-.08-.82-.1-1.23s0-.67,0-1a19.38,19.38,0,0,1,4.87-12.9,18.51,18.51,0,0,1,13.87-6.29c.5,0,1,0,1.47.07a17.49,17.49,0,0,1,5.54,1.33h0" />
      <path class="GUNDAN_TIGER_OUTFIT_TIGER_OUTFIT_16_cls-8" d="M275.85,340a1.45,1.45,0,0,1,.23.09l.22.1c.27.12.62.28,1.08.52a3.35,3.35,0,0,1,.45.24c.29.15.59.33.93.53h0a29,29,0,0,1,7,5.84,26.53,26.53,0,0,1,2.61,3.48,22.71,22.71,0,0,1,1.2,2.06" />
      <path class="GUNDAN_TIGER_OUTFIT_TIGER_OUTFIT_16_cls-8" d="M264.09,378.5l-.09-.05a29.5,29.5,0,0,1-4.88-3.23c-.33-.27-.64-.55-.95-.82a26.43,26.43,0,0,1-4.88-5.84l-.25-.42A1.53,1.53,0,0,1,253,368" />
      <path class="GUNDAN_TIGER_OUTFIT_TIGER_OUTFIT_16_cls-8" d="M289.41,370.72a162.28,162.28,0,0,1-31.63,99.43V476" />
      <path class="GUNDAN_TIGER_OUTFIT_TIGER_OUTFIT_16_cls-8" d="M291.1,366.26a161.27,161.27,0,0,1-25.8,103.45V476" />
      <path class="GUNDAN_TIGER_OUTFIT_TIGER_OUTFIT_16_cls-8" d="M320.65,460.6A88.25,88.25,0,0,0,297.82,436a13.17,13.17,0,0,1-3.13-2.77,4.33,4.33,0,0,1-.77-4,3.86,3.86,0,0,1,3.13-2.26,6.12,6.12,0,0,1,1,0,10.47,10.47,0,0,1,4.61,1.78,68.7,68.7,0,0,1,18.94,16.67" />
      <path class="GUNDAN_TIGER_OUTFIT_TIGER_OUTFIT_16_cls-8" d="M297.05,427a16.84,16.84,0,0,1-4.14-6c-1.2-3.31-.4-7.66,2.66-9.29a6.65,6.65,0,0,1,3.94-.63,15.84,15.84,0,0,1,3.23.72,42.19,42.19,0,0,1,19.5,13.14v0" />
      <path class="GUNDAN_TIGER_OUTFIT_TIGER_OUTFIT_16_cls-8" d="M289.74,406.78a29.43,29.43,0,0,0,6.08-6.57,4.63,4.63,0,0,1,2.39,2.61,16.53,16.53,0,0,1,1.3,8.25" />
      <path class="GUNDAN_TIGER_OUTFIT_TIGER_OUTFIT_16_cls-8" d="M345.31,419.07c-5.67,11.17-10.7,37.89-10.7,37.89l-.78-2.31-4.14-12.1" />
      <ellipse class="GUNDAN_TIGER_OUTFIT_TIGER_OUTFIT_16_cls-8" cx="301.63" cy="420.34" rx="4" ry="4.1" />
      <ellipse class="GUNDAN_TIGER_OUTFIT_TIGER_OUTFIT_16_cls-8" cx="301.63" cy="433.06" rx="2.36" ry="2.42" />
      <path class="GUNDAN_TIGER_OUTFIT_TIGER_OUTFIT_16_cls-8" d="M356.17,288.89c4.33,2.19,10.22,3.67,14.27,6.37,7.62,5.1,14.6,11.45,19.43,19.31.29.49.6,1,.87,1.49,2.5,4.4-.42,10.3-2.78,14.78l.39-.21-.71,1.08" />
      <path class="GUNDAN_TIGER_OUTFIT_TIGER_OUTFIT_16_cls-8" d="M340,363.78c-.37,0-.72,0-1.08,0a70.87,70.87,0,0,1-9.51-1.22,95.24,95.24,0,0,1-13.65-3.3c-.72-.24-1.44-.5-2.15-.77a41.51,41.51,0,0,1-8.34-4.38.54.54,0,0,0-.12-.09,37.63,37.63,0,0,1-4.61-3.79,59.2,59.2,0,0,1-6.5-7.35l-.05-.07-.58-.77-.05-.07c-1.69-2.27-3.28-4.65-4.87-7.05.32-.66.63-1.32.94-2,.63-1.33,1.26-2.66,1.88-4,3.81-8.1,7.62-16.22,12.37-23.78C310,295,318.4,288,327.61,280.51c1.35-1.09,2.71-2.14,4.11-3.16,4,1.85,7.86,3.8,11.84,5.66" />
      <path class="GUNDAN_TIGER_OUTFIT_TIGER_OUTFIT_16_cls-8" d="M366.19,319.26a54.48,54.48,0,0,0-9.47,9.12,87.88,87.88,0,0,0-17.8,35.37l-.16.68" />
      <path class="GUNDAN_TIGER_OUTFIT_TIGER_OUTFIT_16_cls-8" d="M389.87,314.57a23,23,0,0,0-14.59-.08,32.09,32.09,0,0,0-9.08,4.77" />
      <path class="GUNDAN_TIGER_OUTFIT_TIGER_OUTFIT_16_cls-8" d="M403.64,398.29a15.4,15.4,0,0,0,3.67-9.45c.22-4.37-1.06-8.67-2.75-12.69s-3.81-7.83-5.42-11.88c-.5-1.23-.93-2.47-1.34-3.73-1.6-4.94-2.69-10.06-4.14-15.05a1.52,1.52,0,0,1-.06-.2,48.06,48.06,0,0,0-6-13.58,27.24,27.24,0,0,0-3-3.75c-4.88-5-11.51-7.57-18.4-8.7h0" />
      <path class="GUNDAN_TIGER_OUTFIT_TIGER_OUTFIT_16_cls-8" d="M403.21,392.5c.15-3-1.93-5.78-4.54-7.18a15.08,15.08,0,0,0-5.57-1.55c-1-.1-2-.15-3-.17a70.62,70.62,0,0,0-31.86,7.18" />
      <path class="GUNDAN_TIGER_OUTFIT_TIGER_OUTFIT_16_cls-8" d="M341.13,402.69c-1,1-2,2-2.94,3q-5.22-8.26-9.71-17c-2.39-4.59-4.61-9.28-6.66-14q-3.31-7.62-6.06-15.5" />
      <path class="GUNDAN_TIGER_OUTFIT_TIGER_OUTFIT_16_cls-8" d="M314.62,355.87c0-.13-.08-.24-.12-.37" />
      <path class="GUNDAN_TIGER_OUTFIT_TIGER_OUTFIT_16_cls-8" d="M354.81,392.57a65.92,65.92,0,0,0-10.62,7.36" />
      <path class="GUNDAN_TIGER_OUTFIT_TIGER_OUTFIT_16_cls-8" d="M393.1,383.77a132.59,132.59,0,0,1,10,13.68c.18.28.35.55.51.84a55.91,55.91,0,0,1,5.7,12.34" />
      <path class="GUNDAN_TIGER_OUTFIT_TIGER_OUTFIT_16_cls-8" d="M363.06,398.25a55.37,55.37,0,0,0-4.82-7.47c-.72-.95-1.46-1.86-2.24-2.74a1.87,1.87,0,0,0-2.68-.16,2,2,0,0,0-.14,2.74c.56.64,1.1,1.28,1.63,1.95a50.68,50.68,0,0,1,3.89,5.7" />
      <path class="GUNDAN_TIGER_OUTFIT_TIGER_OUTFIT_16_cls-8" d="M347,406.76a53.25,53.25,0,0,0,4.36,7.42,2,2,0,0,1-.43,2.71,1.79,1.79,0,0,1-1.09.37,1.87,1.87,0,0,1-1.54-.81,58.44,58.44,0,0,1-4.84-8.25c-.85-1.79-1.64-3.63-2.32-5.51a58.54,58.54,0,0,1-2.08-7.08,1.94,1.94,0,0,1,1.41-2.33,1.89,1.89,0,0,1,2.28,1.45,52.79,52.79,0,0,0,1.45,5.2A54.1,54.1,0,0,0,347,406.76Z" />
      <path class="GUNDAN_TIGER_OUTFIT_TIGER_OUTFIT_16_cls-8" d="M409.34,410.63l.42-.21a5.1,5.1,0,0,1,7.05,2.78,6.07,6.07,0,0,1-2.52,7.74c-1.19.61-2.39,1.16-3.61,1.67A44.91,44.91,0,0,1,393.61,426a44.42,44.42,0,0,1-10.13-1.17,48.13,48.13,0,0,1-26.63-17.49,6.24,6.24,0,0,1,.61-8.2,4.77,4.77,0,0,1,1.24-.86,49.74,49.74,0,0,1,4.11,8.78,1.9,1.9,0,0,0,1.78,1.28,1.81,1.81,0,0,0,.64-.12,2,2,0,0,0,1.14-2.49,54.06,54.06,0,0,0-3.31-7.47,5.29,5.29,0,0,1,1.87,1.55,37.47,37.47,0,0,0,20.78,13.64A34.78,34.78,0,0,0,409.34,410.63Z" />
      <path class="GUNDAN_TIGER_OUTFIT_TIGER_OUTFIT_16_cls-8" d="M343.45,408.2l-.17.16a6.23,6.23,0,0,0-.2,8.22c.73.84,1.46,1.67,2.23,2.49a81.86,81.86,0,0,0,32.35,21.46,76.15,76.15,0,0,0,25.47,4.39,74.39,74.39,0,0,0,8.7-.5c2.22-.26,4.43-.61,6.62-1.07a5.81,5.81,0,0,0,4.23-6.79,5.37,5.37,0,0,0-6.2-4.64q-2.61.56-5.26.88a66.27,66.27,0,0,1-30.3-3.34,71.71,71.71,0,0,1-30.15-20.88,5.07,5.07,0,0,0-3.78-1.82" />
      <path class="GUNDAN_TIGER_OUTFIT_TIGER_OUTFIT_16_cls-8" d="M337.86,413.12q-2,20.76-4,41.53c-.46,4.67-.91,9.35-1.37,14a62.5,62.5,0,0,1,25.76-29.82L344.7,464.4" />
      <path class="GUNDAN_TIGER_OUTFIT_TIGER_OUTFIT_16_cls-8" d="M16.32,431.08a63.45,63.45,0,0,1-8,11.43l.35-.2c.8,4.51,2.37,8.61,5.64,11.74A14.66,14.66,0,0,0,4.37,463c-1.15,3.18-.81,6.89,1.62,9.22L1.29,476h419.4a19.32,19.32,0,0,1-4.38-20.63,6.58,6.58,0,0,1-3.6-4.09,19.88,19.88,0,0,1-.82-5.61l-.06-1.21" />
      <path class="GUNDAN_TIGER_OUTFIT_TIGER_OUTFIT_16_cls-8" d="M411.22,432.8c-.17-3.4-.36-6.8-.54-10.19" />
      <path class="GUNDAN_TIGER_OUTFIT_TIGER_OUTFIT_16_cls-8" d="M227.85,370.38A302.48,302.48,0,0,0,254.05,344c25-27.95,50.33-60.09,59.05-72.26" />
      <path class="GUNDAN_TIGER_OUTFIT_TIGER_OUTFIT_16_cls-8" d="M239.13,427.76a13.2,13.2,0,0,1,2.67,5.88,7.56,7.56,0,0,1,0,2.6,3.82,3.82,0,0,1-2.86,3.26,4.82,4.82,0,0,1-1.19.16,6.32,6.32,0,0,1-1.27-.09,11.66,11.66,0,0,1-1.83-.46" />
      <path class="GUNDAN_TIGER_OUTFIT_TIGER_OUTFIT_16_cls-8" d="M237.06,425.31c.45.57.87,1.1,1.34,1.6.25.27.49.56.72.85" />
      <path class="GUNDAN_TIGER_OUTFIT_TIGER_OUTFIT_16_cls-8" d="M250.12,358.78a76.15,76.15,0,0,0-5.52,5.38,67,67,0,0,0-5.24,6.22,59,59,0,0,0-3.76,5.69,39.39,39.39,0,0,0-4.1,9.74c-.18.69-.34,1.37-.47,2.07a26.46,26.46,0,0,0-.45,4.71c0,2,0,4,.06,5.77l0,1.09a82.17,82.17,0,0,0,1.5,13.92c1.09,5.14,2.7,9,4.88,11.92" />
      <path class="GUNDAN_TIGER_OUTFIT_TIGER_OUTFIT_16_cls-8" d="M258.17,374.4a13.23,13.23,0,0,0-4.41,1.89,14.77,14.77,0,0,0-4.89,5.54,29.09,29.09,0,0,0-2.82,9.27,57.9,57.9,0,0,0-.56,8c0,.79,0,1.56,0,2.3,0,2.5.19,4.65.27,6.19a8.58,8.58,0,0,0,.17,1.44c.56,2.83,2.35,5.28,4.36,7.74,1.39,1.7,2.87,3.41,4.12,5.27a16.36,16.36,0,0,1,2.84,6.51,12.3,12.3,0,0,1,.19,2.6c-.2,7.13-2.16,13.12-7.35,16.35-.22.14-.43.27-.65.39a19.26,19.26,0,0,1-8.38,2.23,16.83,16.83,0,0,1-5.85-.61c-8.05-2.41-11.47-10.92-8.28-17.22a9.52,9.52,0,0,1,1.11-1.71,9.16,9.16,0,0,1,6.69-3.16,16.39,16.39,0,0,1,4.39.29h0" />
      <path class="GUNDAN_TIGER_OUTFIT_TIGER_OUTFIT_16_cls-8" d="M238.94,439.51h0c1.52-5.78-2-10-4.21-12" />
      <path class="GUNDAN_TIGER_OUTFIT_TIGER_OUTFIT_16_cls-8" d="M228,430.63c3.16.84,7.57,3.06,8.44,8.94" />
      <path class="GUNDAN_TIGER_OUTFIT_TIGER_OUTFIT_16_cls-8" d="M241.8,433.64c4.36-7.52,11.34-6.51,15.45-5" />
      <path class="GUNDAN_TIGER_OUTFIT_TIGER_OUTFIT_16_cls-8" d="M237.06,425.31v0c1.82-7.83,8.55-8.81,13.23-8.47" />
      <path class="GUNDAN_TIGER_OUTFIT_TIGER_OUTFIT_16_cls-8" d="M232.18,413.37c2-2.95,6.06-6.48,13.75-4.29" />
      <path class="GUNDAN_TIGER_OUTFIT_TIGER_OUTFIT_16_cls-8" d="M245.49,401.45a20.17,20.17,0,0,0-3.74-2.56c-3.92-2-7.08-1.56-9.37-.46a10.34,10.34,0,0,0-1.7,1" />
      <path class="GUNDAN_TIGER_OUTFIT_TIGER_OUTFIT_16_cls-8" d="M231,387.88c7.47-3.05,12.42.36,15,3.22" />
      <path class="GUNDAN_TIGER_OUTFIT_TIGER_OUTFIT_16_cls-8" d="M248.87,381.83a14,14,0,0,0-3.13-2.8,18.47,18.47,0,0,0-10.14-3" />
      <path class="GUNDAN_TIGER_OUTFIT_TIGER_OUTFIT_16_cls-8" d="M253.76,376.29a27.41,27.41,0,0,0-2.12-5.52h0a13.31,13.31,0,0,0-5.81-6.13,7.27,7.27,0,0,0-1.23-.47" />
      <path class="GUNDAN_TIGER_OUTFIT_TIGER_OUTFIT_16_cls-8" d="M245.49,399.15c4,.3,7.88.66,11.43,1a269.87,269.87,0,0,1,29.54,4.63" />
      <path class="GUNDAN_TIGER_OUTFIT_TIGER_OUTFIT_16_cls-8" d="M232.38,398.43l-1.74-.07c-14.74-.45-57.45,0-74.89,2.16-8.07,1-16.3,2.42-24.57,4.29h0" />
      <path class="GUNDAN_TIGER_OUTFIT_TIGER_OUTFIT_16_cls-8" d="M155.75,400.52c1.05,11.44,5.34,52.43,15,75.44" />
      <path class="GUNDAN_TIGER_OUTFIT_TIGER_OUTFIT_16_cls-8" d="M254.41,422.09c1.35-9.81,2.15-17.9,2.51-21.91" />
      <polyline class="GUNDAN_TIGER_OUTFIT_TIGER_OUTFIT_16_cls-8" points="136.19 344.47 158.23 374.84 158.5 375.22" />
      <polyline class="GUNDAN_TIGER_OUTFIT_TIGER_OUTFIT_16_cls-8" points="131.81 347.3 131.96 347.51 153.62 378.45" />
      <polyline class="GUNDAN_TIGER_OUTFIT_TIGER_OUTFIT_16_cls-8" points="281.44 344.47 259.4 374.84 259.12 375.22" />
      <polyline class="GUNDAN_TIGER_OUTFIT_TIGER_OUTFIT_16_cls-8" points="285.82 347.3 285.67 347.51 264 378.45" />
      <path class="GUNDAN_TIGER_OUTFIT_TIGER_OUTFIT_16_cls-8" d="M174.39,367.37c5.3-4.46,36.56-9,41.74-13.66q7.13-6.33,14.1-12.89c25.89-24.25,50.54-48.31,73.07-75.86q4.8,3.57,9.8,6.8c4.73,3.09,9.59,6,14.51,8.75" />
      <path class="GUNDAN_TIGER_OUTFIT_TIGER_OUTFIT_16_cls-8" d="M300.54,350.2c.62-1.73,1.26-3.45,2-5.17,9.37-23.78,23.61-43.63,41.06-62,.48.24,1,.47,1.45.69,4.41,2,6.82,3,11.16,5.19-19.11,19-32.31,41.41-41.55,67-.17.49-.35,1-.53,1.49a9.13,9.13,0,0,1-.48,1.1" />
      <path class="GUNDAN_TIGER_OUTFIT_TIGER_OUTFIT_16_cls-8" d="M306.33,362.45h0" />
      <path class="GUNDAN_TIGER_OUTFIT_TIGER_OUTFIT_16_cls-8" d="M321.82,374.73a161.81,161.81,0,0,1,16.94-10.3l1.24-.65a195.4,195.4,0,0,1,53.66-18.29" />
      <path class="GUNDAN_TIGER_OUTFIT_TIGER_OUTFIT_16_cls-8" d="M328.48,388.76a7.77,7.77,0,0,0,.87-.53c17.56-12.42,36.45-19.6,51-23.7a177.18,177.18,0,0,1,17.44-4" />
      <g class="GUNDAN_TIGER_OUTFIT_TIGER_OUTFIT_16_cls-9">
        <path d="M87.34,269.08l-6.72,0,0,0a.26.26,0,0,0,.1-.07l2.55-1.8C84.82,265.6,86.57,267.85,87.34,269.08Z" />
        <path d="M95.7,277.37a11.25,11.25,0,0,0-2.48,1.86c-1.87-3.32-5.47-9.44-5.47-9.44s-.15-.3-.41-.71h4.2c1.78,3.35,2.33,9,2.42,9.16s1.16-.85,1.16-.85A4.12,4.12,0,0,0,95.7,277.37Z" />
        <path d="M102,274.18a8.19,8.19,0,0,1,1.94-1.52l-2.23,2.4s-.37.08-1,.24A10.67,10.67,0,0,0,102,274.18Z" />
        <path d="M118.7,266.7l-2,1.66-.05.05-2.79,2.3-2.92,2.4a3,3,0,0,0-.31-.28.86.86,0,0,0-.14-.13c1.3-.52,5.4-4.41,7.41-6Z" />
        <path d="M243.67,354.34q-1.54,2.13-3,3.91l0,0c-5.81,7.38-9.86,10.6-12.57,11.87l-.51.23c-2.43,1-3.67.35-4.11,0a.88.88,0,0,1-.19-.17l-46.65-.46-.81-.85-.25-.27v0c-.24-.24-.52-.54-.86-.9,0,0,0,0,0,0l-.28-.3-6.53-7c-1.64-17.74-14.25-23.8-21.62-22.88-3.1-9.33-21.33-10.59-21.33-10.59s-2.62.19-7.73,11.45c-4.22-6.2-16.27-2.36-16.71,0s-23,27.93-23,27.93,0,1.05-7.64,16.79-11.89,52.72-11.89,52.72L66.21,447s1-.59-2.36-23.09c3.87,6,10.37,27.27,10.37,27.27S74.67,437,74,418c10,11.79,9.57,50.66,9.57,50.66S84.53,464,88.78,448c.43,12.8,5.89,27.94,5.89,27.94s-24.32,0-26.17.14-10.8-4.52-21.9-11.59-35.93,2.41-35.93,2.41,13.51-17.7,34.91-12.66c-4.33-5.33-15.66-12.87-15.66-12.87,6.26,1.11,30.27,15.25,31.32,15.86-.76-.59-13-10.12-21.55-15.17C30.82,436.84,11.36,429,11.36,429l.92-2.7s3.75-3.89,5.3-5.33c-4.4-13.34-2.07-24.9,1.5-28.94-.69-13.84,1.74-17.76,7-23.64-2-16,3.82-20.21,9.49-26.21C35,330.82,42,316.74,47.71,313.44,49.8,301.13,60.4,294.55,67.14,293c.61-4.1,4.77-8.45,7.06-13,4.83-9.66,5.43-9.81,6.42-10.89l0,0a.35.35,0,0,1,.1-.08c4.3-3.51,5.86-3.77,9-1.92a5.11,5.11,0,0,1,1.77,2.07c1.78,3.34,2.33,9,2.42,9.16s1.16-.86,1.16-.86h.27l.31,0a10,10,0,0,0,5-2.07l.32-.25a10.76,10.76,0,0,0,.94-.87,8.26,8.26,0,0,1,1.94-1.53c2.53-1.37,4.19-1.77,6.23.13a1.08,1.08,0,0,0,.34-.08c1.3-.52,5.4-4.41,7.41-6h.82l.82-1.17c3.34,2.77,16.56,13.68,33.87,27.16C180.92,314.16,218.8,342.17,243.67,354.34Z" />
        <path d="M129.25,350.7l23.89,28s-13.52,8.09-24.12-6.62C124.22,364.84,125.31,356.66,129.25,350.7Z" />
        <path d="M128.32,380.76s21.1,18.48,46.68,18c2.58,18.79-3.89,68.27,6,77.21H98.41s-10-51.46-4.83-71.92,19.61-27.43,21.82-36.67S117.06,332.93,132,337c7.83,3.9,8.07,3.14,8.07,3.14S121.25,350.39,128.32,380.76Z" />
        <path d="M331.67,475.5s3.86-26.65,4.52-29.81,1.88-18.57,3.64-20.74,1.3,15,1.3,15l-4.25,20s11.77-20.12,14.2-21.93,7.16-1,7.16-1-3.48,4.29-8.74,10.05-14.74,22.69-14.74,22.69l16.21-8s5.69,2,0,4.14S337,476,337,476Z" />
        <path d="M322.24,476s4.25-37.89,3.48-59.71-13-28.2-13-28.2,7.7,19.81,6.47,33.7c-3.43-.45-4.92,15.76-4.92,15.76s-2.73,4-2.44,11.3c-1.92,12.12-4.45,23.51-8.53,27.3C316.35,476,322.24,476,322.24,476Z" />
        <path d="M223.08,398.21s2.27,20.94,4.77,27.61c-8.85,8.35-9.83,23.55,7.36,23.74-7.06-2.85-10.73-10-9.16-14.91s6.74-9.18,13.07-6.89c-3.61-3.55-6.27-10.67-7.33-17.32s-1.42-12.37-1.42-12.37Z" />
        <path d="M162.19,371.55s-3.41,18.14,13.41,19.1,54.77.9,54.77.9l1.07-5.48-54.89-.57-11.88-16.94Z" />
        <path d="M352.7,426.1s13,18.47,32.88,22.38,27,2.35,27,2.35l-.74-6.15s-15.53,1.46-27.43-2.15S358.62,432.34,352.7,426.1Z" />
      </g>
    </g>
  </g>
</svg>