<svg xmlns="http://www.w3.org/2000/svg" viewBox="0 0 432 432">
  <defs>
    <style>.GUNDAN_TIGER_OUTFIT_TIGER_OUTFIT_15_cls-1{isolation:isolate;}.GUNDAN_TIGER_OUTFIT_TIGER_OUTFIT_15_cls-2{fill:#fff;}.GUNDAN_TIGER_OUTFIT_TIGER_OUTFIT_15_cls-3{fill:#3f3e37;}.GUNDAN_TIGER_OUTFIT_TIGER_OUTFIT_15_cls-4{fill:#6f5d49;}.GUNDAN_TIGER_OUTFIT_TIGER_OUTFIT_15_cls-5{fill:#9a180b;}.GUNDAN_TIGER_OUTFIT_TIGER_OUTFIT_15_cls-6{fill:#2e242f;}.GUNDAN_TIGER_OUTFIT_TIGER_OUTFIT_15_cls-7{fill:none;stroke:#000;stroke-linecap:round;stroke-linejoin:round;stroke-width:1.86px;}.GUNDAN_TIGER_OUTFIT_TIGER_OUTFIT_15_cls-8{opacity:0.22;mix-blend-mode:multiply;}</style>
  </defs>
  <g class="GUNDAN_TIGER_OUTFIT_TIGER_OUTFIT_15_cls-1">
    <g id="outfit">
      <path class="GUNDAN_TIGER_OUTFIT_TIGER_OUTFIT_15_cls-2" d="M312.82,352.56a11.44,11.44,0,0,0-1.72-2.9,13.22,13.22,0,0,0-1.11-1.22,10.27,10.27,0,0,0-6.52-2.91,16.12,16.12,0,0,0-4.12.29c-1.11.21-2.11.49-2.94.72l-.17,0a16,16,0,0,0-3.55,1.7c-.5.29-1,.61-1.54,1-2.61,1.67-5.43,3.78-7.48,5.36-.93.72-1.7,1.34-2.21,1.76a2.08,2.08,0,0,0-.33,3.09l4.42,5.08.07.09s0,0,.05.05a2.73,2.73,0,0,0,1.06.73c0,.1-.1.22-.14.33l4.51,5.18a2.66,2.66,0,0,0,1.12.76,3.49,3.49,0,0,0,2.17.07c.41-.13.85-.28,1.31-.46a48.65,48.65,0,0,0,6.14-3.06c4-2.33,7.67-4.91,8.3-5.35a2.23,2.23,0,0,0,.24-.19,10,10,0,0,0,2.58-4A8.61,8.61,0,0,0,312.82,352.56Zm-5.35,4.91a5.3,5.3,0,0,1-1.21,1.93c-1.1.79-3,2.07-5.09,3.38-.87.54-1.79,1.09-2.71,1.63-1.19.69-2.38,1.33-3.47,1.85l-.65.3L292,363.82l2.54-1.5,2.72-1.6a2.13,2.13,0,0,0,.68-3.31,3.22,3.22,0,0,0-4-.56l-.07,0L288.62,360l-1.42-1.61c.82-.63,1.64-1.26,2.46-1.86s1.75-1.3,2.59-1.89c.41-.3.83-.58,1.23-.85a22.06,22.06,0,0,1,4.57-2.67l.17,0c.63-.18,1.21-.33,1.75-.46,2.73-.64,4.56-.57,6.39,1.71a5.72,5.72,0,0,1,.44.6A4.89,4.89,0,0,1,307.47,357.47Z" />
      <path class="GUNDAN_TIGER_OUTFIT_TIGER_OUTFIT_15_cls-3" d="M401.19,291.06l.78,3.33a60.63,60.63,0,0,0-4.31,7.89,27.48,27.48,0,0,0-1.4,6.82h0c-3.65.75-10.36,2.26-11,3.43s6.18,3.87,10.09,5.31c-.53,5.62-1.12,11-2.2,12.78A92.28,92.28,0,0,1,384,342.88c-3.43-1.43-9.23-3.68-10.56-3.13s2.1,7.05,3.87,10.1c-.33.33-.67.67-1,1-5.29,4.86-13.87,8.11-24.41,11.64-2.21-2.64-5.73-6.54-7.14-6.58s-2.13,6.15-2.37,9.72c-3.29,1.1,10,2.26,6.5,3.55-9.51,3.44-17,5-23.27,5.58-1.09-3.06-3.08-8.16-4.46-8.59s-4.37,5.28-5.93,8.61c-2.28-.18-4.44-.48-6.53-.81-4.09-.65-5.94-2.91-6.8-5.73,4-2.33,7.67-4.91,8.3-5.35a2.23,2.23,0,0,0,.24-.19,10,10,0,0,0,2.58-4,68,68,0,0,0,11.68,1,66.25,66.25,0,0,0,26.11-5.24c14.17-6.14,7.57-16.9,16.52-26.4,4.15-4.41,8.45-9,11.6-14.19,3.66-6.1,5.1-12.25,4.16-17.79a17.42,17.42,0,0,0-.87-3.28c3.45-.1,6.55-.31,9.2-.59Q397,291.57,401.19,291.06Z" />
      <path class="GUNDAN_TIGER_OUTFIT_TIGER_OUTFIT_15_cls-3" d="M308.91,311.21c.9-9.11-.27-19.08-1-24.14,4.16-3.64,7.65-6.26,9.59-7.66,0,0,10.36,5.8,9.11,17.72s-8,15.85-10.7,14.51-3.13-9.43,2.42-11.92c-4.19,1.07-7.83,6.62-8.25,11.57Z" />
      <path class="GUNDAN_TIGER_OUTFIT_TIGER_OUTFIT_15_cls-4" d="M293.85,356.9c-.08-.59-.15-1.15-.2-1.67a7.87,7.87,0,0,0-1.4-.62c-.84.59-1.71,1.22-2.59,1.89s-1.64,1.23-2.46,1.86l1.42,1.61Z" />
      <path class="GUNDAN_TIGER_OUTFIT_TIGER_OUTFIT_15_cls-4" d="M294.49,362.32l-2.54,1.5,2.39,2.74.65-.3C294.82,365,294.64,363.64,294.49,362.32Z" />
      <path class="GUNDAN_TIGER_OUTFIT_TIGER_OUTFIT_15_cls-4" d="M291.1,370.92l-4.51-5.18-.92-1.06s0,0-.05-.05l-.07-.09-4.42-5.08a2.08,2.08,0,0,1,.33-3.09c.51-.42,1.28-1,2.21-1.76a10.62,10.62,0,0,0-3.15,1.76,375.15,375.15,0,0,1-31.4,22.78c-1.08.73-2.18,1.43-3.26,2.12-6.6,4.22-13.21,8.19-19.77,11.92-3.83,2.18-6.31,4.27-10.11,6.27v0c-5.17,2.75-10.29,5.35-15.32,7.79a523.87,523.87,0,0,1-81.23,31.56c-4.31,1.25-7.64,2.14-9.82,2.7-1.83.48-2.85.73-3,.75-5.68,1.29-9,6.19-7.46,10.92,1.21,3.71,5.06,6.22,9.4,6.52l.9,0a12.69,12.69,0,0,0,2.84-.32c.54-.12,2.65-.61,6.1-1.52a519.83,519.83,0,0,0,85-31.29h0c5.74-2.68,11.63-5.57,17.6-8.65,6.72-3.46,12.24-7.18,19.14-11.16l0,0c2.05-1.17,4.1-2.38,6.17-3.63h0a425.91,425.91,0,0,0,45.79-31.46A2.66,2.66,0,0,1,291.1,370.92Z" />
      <path class="GUNDAN_TIGER_OUTFIT_TIGER_OUTFIT_15_cls-5" d="M246.77,374.54c-.37,2.34-.67,4.6-.91,6.73,1.08-.69,2.18-1.39,3.26-2.12A10.77,10.77,0,0,1,246.77,374.54Z" />
      <path class="GUNDAN_TIGER_OUTFIT_TIGER_OUTFIT_15_cls-5" d="M296.53,375.39a33.6,33.6,0,0,1-.83-4.1c-.46.18-.9.33-1.31.46a3.49,3.49,0,0,1-2.17-.07,425.91,425.91,0,0,1-45.79,31.46A65.12,65.12,0,0,1,261,401.52c12.28,0,37.85-2.64,39.51-19.91.1-1,.17-2.1.24-3.23C298.36,377.32,296.8,376.27,296.53,375.39Z" />
      <path class="GUNDAN_TIGER_OUTFIT_TIGER_OUTFIT_15_cls-5" d="M203.46,426.61h0c.61,4.65,1.24,9.8,1.79,15.13s1.09,10.84,1.44,16.16.57,10.66.54,15.33h26.33c0-4.66.19-9.89.56-15.33s.85-10.81,1.41-16.16c2-18.46,4.67-34.95,4.67-34.95-6.9,4-12.42,7.7-19.14,11.16C215.09,421,209.2,423.93,203.46,426.61Z" />
      <path class="GUNDAN_TIGER_OUTFIT_TIGER_OUTFIT_15_cls-5" d="M193.59,371.93c-.48,7.05-5.33,13.55-21.1,9.95s-21.08-16.44-23.9-34.13a22.79,22.79,0,0,0-32.38-17.55c25.24,1,21.59,34.14,23.24,51.41s27.24,19.91,39.52,19.91,20.37,3.38,20.37,3.38c-1.24-2.34-3.05-7.08-3.68-15.63A167.2,167.2,0,0,0,193.59,371.93Z" />
      <path class="GUNDAN_TIGER_OUTFIT_TIGER_OUTFIT_15_cls-2" d="M267.29,315.89c2.43-6.37,9.41-15.66,17-24.18-3.75,1.34-8.41,2.88-12.5,3.93-8.63,2.22-20.09,7.87-22.24,11.75,2.65,8,6.55,24.25-9.27,27.05,5.73-3.72,11.46-17.72,2.5-19.38s-9.47,15.34-10.22,19.38c-.6,3.29-2.94,26.16-7.89,39.12a27.76,27.76,0,0,1-3.6,7c-6.7-8.39-12.07-42.09-12.83-46.14-.31-1.68-.58-5.63-1.44-9.54-1.2-5.44-3.53-10.81-8.76-9.84-9,1.66-3.24,15.66,2.49,19.38-15.82-2.8-11.91-19-9.26-27.05-2.15-3.88-13.61-9.53-22.25-11.75-4.09-1.05-8.75-2.6-12.51-3.93,7.58,8.52,14.56,17.81,17,24.18,5.23,13.68,9.72,9.74,25.41,28.61s15.93,52,15.93,52l1.15,2.93c3.8-2,6.28-4.09,10.11-6.27.53-8.89,3.14-33.46,15.81-48.69C257.59,325.63,262.06,329.57,267.29,315.89Z" />
      <path class="GUNDAN_TIGER_OUTFIT_TIGER_OUTFIT_15_cls-2" d="M264.15,338.49c-10.68,6.55-15.27,22.49-17.38,36v0a10.77,10.77,0,0,0,2.35,4.61,375.15,375.15,0,0,0,31.4-22.78,10.62,10.62,0,0,1,3.15-1.76c2.05-1.58,4.87-3.69,7.48-5.36.09-.5.16-1,.24-1.5a29.14,29.14,0,0,1,.66-3c-.27-1.46-.61-3.22-1-5.34-1.83-9.53,5.31-8.84,11.13-24.32a35,35,0,0,0,.8-23.57,113.39,113.39,0,0,0-14.38,16.56C276,326,279.25,329.22,264.15,338.49Z" />
      <path class="GUNDAN_TIGER_OUTFIT_TIGER_OUTFIT_15_cls-2" d="M119.43,438.83a523.87,523.87,0,0,0,81.23-31.56c0-.31-.07-.47-.07-.47a9.77,9.77,0,0,1-1.25-1.9s-8.08-3.38-20.37-3.38-37.85-2.64-39.52-19.91,2-50.45-23.24-51.41a22.79,22.79,0,0,1,32.38,17.55c2.82,17.69,8.14,30.54,23.9,34.13s20.62-2.9,21.1-9.95c-2.28-12.93-6.94-27.31-16.94-33.44-15.11-9.27-11.87-12.45-24.46-30.37s-39.51-34.51-39.51-34.51l-1.35-2.2S97,286.35,89.81,293.09c-5.46,5.1-18.2,13.51-29,18.42A136.36,136.36,0,0,1,79.59,325c12.7,10.78,38.36,49.76,40.21,70.28C120.64,404.65,120.18,422.35,119.43,438.83Z" />
      <path class="GUNDAN_TIGER_OUTFIT_TIGER_OUTFIT_15_cls-2" d="M320.17,395.29a49.73,49.73,0,0,1,2.62-11.24c-8-1-16.89-3.38-22-5.67-.07,1.13-.14,2.21-.24,3.23-1.66,17.27-27.23,19.91-39.51,19.91a65.12,65.12,0,0,0-14.58,1.62h0c-2.07,1.25-4.12,2.46-6.17,3.63l0,0s-2.71,16.49-4.67,34.95c-.56,5.35-1.06,10.85-1.41,16.16s-.59,10.67-.56,15.33h89C321.67,460.51,318.57,413,320.17,395.29Zm-70.79,62.08a4.12,4.12,0,0,1-3.71-2,3,3,0,0,1-.32-1.33c0-1.85,1.81-3.36,4-3.36s4,1.51,4,3.36S251.6,457.37,249.38,457.37Zm0-15.95a4.12,4.12,0,0,1-3.71-2,2.92,2.92,0,0,1-.32-1.32c0-1.85,1.81-3.36,4-3.36s4,1.51,4,3.36S251.6,441.42,249.38,441.42Z" />
      <path class="GUNDAN_TIGER_OUTFIT_TIGER_OUTFIT_15_cls-2" d="M205.25,441.75c-.55-5.33-1.18-10.48-1.79-15.13a519.83,519.83,0,0,1-85,31.29c-.4,6.65-.77,12.11-1,15.33h89.8c0-4.67-.17-9.9-.54-15.33S205.82,447.08,205.25,441.75Zm-10.14,13.58a4.12,4.12,0,0,1-3.71,2c-2.22,0-4-1.51-4-3.37s1.81-3.36,4-3.36,4,1.51,4,3.36A3,3,0,0,1,195.11,455.33Zm0-15.95a4.12,4.12,0,0,1-3.71,2c-2.22,0-4-1.5-4-3.36s1.81-3.36,4-3.36,4,1.51,4,3.36A2.92,2.92,0,0,1,195.11,439.38Z" />
      <path class="GUNDAN_TIGER_OUTFIT_TIGER_OUTFIT_15_cls-5" d="M301.17,362.78a61.06,61.06,0,0,0-.17-6.73c-.2-1.39-.63-3.26-1-5.46-.54.13-1.12.28-1.75.46l-.17,0a22.06,22.06,0,0,0-4.57,2.67c-.4.27-.82.55-1.23.85a7.87,7.87,0,0,1,1.4.62c.05.52.12,1.08.2,1.67l.07,0a3.22,3.22,0,0,1,4,.56,2.13,2.13,0,0,1-.68,3.31l-2.72,1.6c.15,1.32.33,2.65.5,3.94,1.09-.52,2.28-1.16,3.47-1.85C299.38,363.87,300.3,363.32,301.17,362.78Z" />
      <path class="GUNDAN_TIGER_OUTFIT_TIGER_OUTFIT_15_cls-5" d="M317.73,335.27c-10.54,3.23-14.08,9.92-14.26,10.26a10.27,10.27,0,0,1,6.52,2.91c6.94-11,20.07-7.57,29.4-14.61s7.49-19.6-.61-26.34C347.12,323,328.56,332,317.73,335.27Z" />
      <path class="GUNDAN_TIGER_OUTFIT_TIGER_OUTFIT_15_cls-5" d="M319.16,278l-.06.21a56.09,56.09,0,0,1,8,.94c2.83.69,5.65,3.45,5.65,3.45s3.82,10.44,1.71,17.49-12.59,22.08-20.5,18.67c-3.12-1.34-4.17-4.3-3.89-7.52.43-4.95,4.06-10.5,8.25-11.56-5.54,2.49-5.15,10.57-2.42,11.92s9.46-2.6,10.7-14.51-9.1-17.72-9.1-17.72c-1.94,1.4-5.43,4-9.59,7.66.77,5.05,1.93,15,1,24.14-.56,5.43-1.86,10.57-4.42,14.14-5.05,7-5.67,14.43-5.15,20.47-1.11.21-2.11.48-2.93.72l-.17,0a15.89,15.89,0,0,0-3.55,1.69c-.16-.89-.37-2-.64-3.5s-.62-3.21-1-5.33c-1.83-9.53,5.31-8.84,11.13-24.32a35.07,35.07,0,0,0,.79-23.58,114,114,0,0,0-14.38,16.56C276,326,279.25,329.22,264.14,338.48c-10.67,6.55-15.26,22.5-17.37,36v0c-.37,2.33-.67,4.6-.91,6.72q-6.42,4.11-12.82,7.89c-1,.6-2,1.19-3,1.77l-3.94,2.27h0c0-.41,0-.86.09-1.34.12-1.65.3-3.67.58-6s.66-4.91,1.17-7.68l.21-1.11c0-.09,0-.18.05-.27s.07-.36.11-.54.11-.55.17-.83a.94.94,0,0,0,0-.16c.09-.44.19-.89.29-1.35,0-.24.11-.49.17-.73.29-1.28.61-2.57,1-3.89.08-.29.16-.58.25-.88s.09-.34.14-.51c.57-2,1.22-4,2-6,.18-.5.37-1,.57-1.51.39-1,.81-2,1.25-3l.18-.41.18-.4.18-.38.06-.12c.13-.27.26-.55.4-.82s.11-.24.17-.36a.88.88,0,0,1,.1-.22c.12-.26.25-.51.38-.75a3,3,0,0,1,.21-.4c.17-.33.34-.66.52-1a3.24,3.24,0,0,1,.17-.32l.1-.17q.44-.8.9-1.56c.24-.4.48-.8.74-1.19.06-.1.12-.2.19-.3l.3-.45.33-.5c.07-.09.13-.19.2-.29l.37-.53c.26-.37.53-.74.81-1.1.11-.16.24-.32.36-.48l.93-1.16c1.19-1.43,2.32-2.73,3.38-3.92.25-.27.49-.55.75-.82,2.14-2.34,4-4.21,5.73-5.78l.7-.63c.39-.36.77-.69,1.13-1l.1-.09.91-.78c1.76-1.49,3.27-2.67,4.61-3.8l.47-.4.45-.4.06-.05a23.27,23.27,0,0,0,3.14-3.35c.18-.23.35-.47.52-.72a1.27,1.27,0,0,0,.13-.19l.18-.26c.23-.36.47-.74.7-1.14l.38-.7a1.28,1.28,0,0,0,.11-.2c.12-.22.23-.44.34-.66l.33-.7a.67.67,0,0,0,.06-.12l.37-.81c.2-.46.4-.94.6-1.45h0l.24-.63c.28-.73.61-1.5,1-2.3.12-.24.23-.47.36-.71l.24-.47c.19-.36.39-.72.59-1.08l.4-.68v0c.62-1.07,1.32-2.17,2.08-3.31.25-.38.51-.77.78-1.15s.6-.87.92-1.31.63-.88,1-1.33.66-.89,1-1.34.68-.9,1-1.36c1.92-2.49,4-5,6.19-7.5.46-.54.94-1.08,1.41-1.61-3.75,1.34-8.41,2.88-12.5,3.92-8.64,2.22-20.09,7.88-22.25,11.76,1.23,3.73,2.74,9.24,2.4,14.35,0,.12,0,.24,0,.36,0,.45-.09.91-.16,1.36,0,.23-.07.45-.12.67s-.13.64-.22,1a5.26,5.26,0,0,1-.15.53,12.22,12.22,0,0,1-1.69,3.53l-.4.54c-.17.21-.36.43-.55.63s-.39.41-.61.61l-.22.21-.24.2c-.11.09-.23.19-.36.28l-.28.21a13.1,13.1,0,0,1-1.6,1c-.28.14-.57.28-.87.41s-.53.23-.81.33l-.73.25-.4.12c-.39.12-.79.22-1.22.32l-.49.1-.51.1c5.73-3.73,11.46-17.72,2.49-19.39s-9.46,15.34-10.21,19.39c0,.11,0,.25-.07.41l0,.22c0,.09,0,.2,0,.31-.05.32-.1.7-.16,1.12,0,.13,0,.27-.05.4,0,.31-.09.64-.14,1s-.06.52-.1.8-.08.56-.12.86c-.06.52-.14,1.07-.22,1.64-.05.38-.11.76-.16,1.16-.09.62-.18,1.27-.28,1.95l-.15,1c-.05.35-.1.7-.16,1.06s-.11.73-.17,1.1c-.08.55-.17,1.1-.26,1.67s-.24,1.46-.36,2.19c-.22,1.31-.46,2.65-.71,4-.09.46-.17.91-.26,1.37s-.23,1.15-.34,1.72l-.6,2.84c-.09.38-.18.76-.26,1.15-.2.86-.4,1.71-.61,2.55-.17.65-.34,1.29-.5,1.93-.14.46-.26.91-.39,1.37l-.24.82a.36.36,0,0,0,0,.11c-.11.37-.22.74-.34,1.1s-.15.46-.22.69l-.14.41c-.24.73-.5,1.45-.76,2.13a27.09,27.09,0,0,1-3.61,7,14.13,14.13,0,0,1-.93-1.34c-.13-.21-.26-.43-.38-.65s-.26-.46-.38-.7-.22-.41-.32-.63-.29-.59-.43-.9-.24-.52-.35-.79-.25-.61-.38-.92-.25-.63-.38-1a.69.69,0,0,1-.05-.13c-.11-.28-.22-.57-.32-.86s-.17-.45-.25-.68l-.12-.35-.36-1.06c-.36-1.08-.71-2.2-1.06-3.35-.28-1-.57-2-.84-3,0-.15-.08-.31-.13-.46-1.12-4.19-2.14-8.61-3-12.72l-.24-1.15c-.34-1.64-.66-3.22-.94-4.71-.08-.43-.16-.84-.24-1.24l-.06-.3c0-.15,0-.3-.08-.44l-.18-1c-.19-1-.36-1.93-.51-2.78,0-.21-.07-.41-.11-.61-.18-1-.33-1.84-.45-2.56,0-.09,0-.17-.05-.26s0-.18,0-.26c-.06-.35-.11-.64-.16-.89s-.06-.33-.08-.46c-.32-1.69-.59-5.64-1.44-9.54-1.2-5.44-3.54-10.82-8.77-9.85-9,1.67-3.23,15.66,2.5,19.39a19.05,19.05,0,0,1-2.22-.52l-.4-.12c-.25-.08-.5-.16-.73-.25s-.55-.22-.81-.33-.59-.27-.87-.41a13.68,13.68,0,0,1-1.31-.77,4.48,4.48,0,0,1-.44-.32,11.71,11.71,0,0,1-1.39-1.21l-.13-.13-.35-.39-.3-.38c-.11-.14-.21-.27-.3-.41a11.6,11.6,0,0,1-1.22-2.17c-.09-.21-.18-.43-.26-.65s-.11-.29-.15-.44-.1-.29-.14-.44-.12-.42-.17-.63-.06-.23-.08-.34-.05-.23-.07-.34c-.06-.27-.11-.55-.15-.83s-.07-.49-.1-.74v0c0-.26-.05-.52-.07-.78s0-.53,0-.79c0,0,0,0,0,0,0-.39,0-.79,0-1.18,0-.15,0-.31,0-.48q0-.72.09-1.44l.06-.68.12-1,.09-.6c.12-.78.27-1.56.43-2.32.12-.55.25-1.09.38-1.62s.2-.78.31-1.16.2-.75.31-1.12.29-.94.43-1.38l.21-.65c-2.15-3.88-13.61-9.54-22.24-11.76-4.09-1-8.75-2.59-12.52-3.92,7.59,8.52,14.57,17.8,17,24.17.2.52.39,1,.59,1.47l.24.55a25.22,25.22,0,0,0,3.67,6.24l.46.54.48.52.49.5c.5.5,1,1,1.55,1.44l.55.48c1.47,1.24,3.15,2.54,5.13,4.23l.92.81q.28.24.57.51c1.54,1.38,3.26,3,5.18,5,.25.25.49.51.74.78l.08.08c1.46,1.57,3,3.37,4.76,5.43l.81,1,.18.23.24.32c.07.08.13.17.2.26l.68.93.73,1.07c.3.44.59.89.87,1.34s.56.9.83,1.36.61,1.06.9,1.6.43.8.64,1.21c.49.94.95,1.9,1.39,2.87.21.46.41.92.61,1.38q.66,1.51,1.23,3.06c.19.5.37,1,.55,1.49s.36,1,.52,1.5.33,1,.48,1.49c.05.14.09.27.13.41q.18.54.33,1.08c.14.47.28.95.41,1.42.27.94.51,1.88.74,2.8a.19.19,0,0,1,0,.07q.26,1,.48,2t.45,2q.44,2,.75,3.93c.07.39.14.77.2,1.15l.15.94c.06.32.1.63.14.93s.07.45.1.68.1.67.14,1,.12.87.17,1.29.09.73.13,1.08c.09.71.16,1.4.22,2.05,0,.27.06.52.08.78.1,1,.17,2,.23,2.8a2.64,2.64,0,0,0,0,.28l0,.47c0,.19,0,.36,0,.53.12,2,.13,3.18.13,3.18l1.15,2.93h0c-2,1.08-4,2.13-6,3.16l-.12.06c-1.27.66-2.54,1.3-3.81,1.93-.86.44-1.72.86-2.57,1.28-.21.11-.42.22-.63.31l-.34.17h0l-.34.17-.26.13-.23.11-1,.48c0-.31-.07-.48-.07-.48l0,0h0l-.06-.06-.17-.2a.59.59,0,0,0-.08-.11v0l0,0-.07-.09-.11-.17-.16-.24a.43.43,0,0,1,0-.07h0v0h0l-.11-.19-.08-.13,0-.05v0h0l-.06-.11c-.06-.11-.13-.23-.19-.36h0l-.2-.39,0,0a0,0,0,0,1,0,0h0c-.05-.11-.11-.23-.16-.35s-.18-.38-.26-.59c-.16-.36-.31-.74-.47-1.16l-.24-.66c-.08-.23-.16-.46-.23-.71s-.15-.49-.23-.74-.16-.55-.24-.84-.15-.58-.22-.88a.19.19,0,0,1,0-.07c-.06-.28-.13-.57-.2-.86,0-.09,0-.19-.07-.29-.05-.26-.1-.52-.16-.8a2.38,2.38,0,0,0-.05-.26q-.1-.58-.21-1.23c-.07-.41-.14-.85-.2-1.3-.1-.71-.19-1.45-.27-2.23,0-.35-.08-.71-.11-1.07l-.09-1.11c-.27-3.55-.66-8.12-1.38-13.09,0-.11,0-.22-.05-.33-.09-.64-.19-1.28-.3-1.93l-.06-.33a2.74,2.74,0,0,0-.05-.28.77.77,0,0,1,0-.15c-.05-.32-.11-.65-.17-1,0-.08,0-.16,0-.24v0c-.05-.29-.1-.58-.16-.87-.09-.52-.19-1-.3-1.57s-.16-.82-.25-1.23-.17-.82-.26-1.23c0-.19-.09-.39-.13-.58l0-.11c-.12-.53-.25-1.07-.38-1.6l-.09-.35c0-.11-.05-.22-.08-.33-.27-1.07-.56-2.13-.87-3.17-.17-.56-.34-1.12-.52-1.67s-.43-1.3-.65-1.94-.37-1-.56-1.51-.37-.95-.56-1.41-.48-1.14-.73-1.7-.44-1-.67-1.41q-.16-.36-.36-.72l-.39-.76h0c-.19-.37-.39-.73-.6-1.09s-.41-.71-.63-1.05-.29-.46-.44-.69c0,0,0,0,0,0-.14-.23-.29-.44-.44-.66,0,0,0,0,0,0-.3-.45-.61-.87-.93-1.3s-.64-.84-1-1.24l-.51-.59c-.17-.2-.35-.39-.52-.58q-.79-.85-1.65-1.62a15.18,15.18,0,0,0-1.17-1c-.18-.15-.36-.29-.55-.42a1.38,1.38,0,0,0-.25-.19l-.42-.29,0,0c-.27-.19-.54-.37-.82-.54-2.12-1.3-3.89-2.48-5.38-3.6a.13.13,0,0,0-.07,0l0,0,0,0a33.27,33.27,0,0,1-4.18-3.68l-.39-.42c-.52-.57-1-1.14-1.44-1.73l-.32-.43c-.11-.14-.21-.29-.31-.43-.41-.58-.8-1.17-1.19-1.79-.77-1.23-1.52-2.56-2.36-4.05q-.14-.27-.3-.54c-.32-.58-.67-1.19-1-1.83a1.74,1.74,0,0,0-.11-.18s0,0,0-.05l-.21-.36-.35-.61-.53-.91c-.1-.17-.2-.35-.31-.52-.87-1.48-1.87-3.1-3-4.89l-.53-.8c-.72-1.09-1.5-2.25-2.36-3.47Q150.7,306,149,303.92c-.57-.68-1.14-1.36-1.73-2-.36-.41-.73-.82-1.1-1.22l-.75-.81-.05-.05-1.06-1.11c-.93-1-1.88-1.92-2.86-2.85-1.34-1.29-2.71-2.55-4.08-3.77l0,0c-.77-.69-1.55-1.37-2.33-2-.55-.47-1.09-.93-1.64-1.38s-1.26-1-1.88-1.54l-.81-.65c-3.15-2.52-6.16-4.76-8.79-6.64l-1.31-.93c-1.28-.9-2.45-1.7-3.47-2.39l-1-.65-.87-.57-.39-.26-.7-.45-.65-.43h0l-.18-.12-.25-.15-.17-.11-.11-.07-.09-.05h0l-.07-.12-.14-.21h0l-.12-.2-.16-.26-.25-.41c-.09-.15-.19-.3-.28-.47h0a.25.25,0,0,1,0-.07l-.1-.19-.15-.25c-.2-.35-.41-.72-.61-1.1a2,2,0,0,1-.15-.29c-.2-.38-.39-.76-.56-1.13l-.23-.54a0,0,0,0,0,0,0l-.09-.24a3.42,3.42,0,0,1-.3-1.36c.12-1.66,4.77-10.92,12.91-7.05,2.78,1.33,19.37,16.89,24.81,22.2l0,0c.87.47,14.87,8.16,26.1,10.66,11.59,2.6,33,11.92,37.11,31.27,0,.17.07.34.12.51,4.14,19.35,10.58,48.42,10.58,48.42s5.22-29.58,9.39-48.93,25.52-28.67,37.11-31.27c11.21-2.5,25.21-10.19,26.08-10.66l0,0c5.45-5.31,10.35-9.37,13.14-10.7,8.14-3.87,12.79,1.18,12.91,2.84a14,14,0,0,1-.52,3.87Z" />
      <path class="GUNDAN_TIGER_OUTFIT_TIGER_OUTFIT_15_cls-5" d="M401.19,291.06l.78,3.33a60.63,60.63,0,0,0-4.31,7.89,27.48,27.48,0,0,0-1.4,6.82h0c-3.65.75-10.36,2.26-11,3.43s6.18,3.87,10.09,5.31c-.53,5.62-1.12,11-2.2,12.78A92.28,92.28,0,0,1,384,342.88c-3.43-1.43-9.23-3.68-10.56-3.13s2.1,7.05,3.87,10.1c-.33.33-.67.67-1,1-5.29,4.86-13.87,8.11-24.41,11.64-2.21-2.64-5.73-6.54-7.14-6.58s-2.13,6.15-2.37,9.72c-3.29,1.1,10,2.26,6.5,3.55-9.51,3.44-17,5-23.27,5.58-1.09-3.06-3.08-8.16-4.46-8.59s-4.37,5.28-5.93,8.61c-2.28-.18-4.44-.48-6.53-.81-4.09-.65-5.94-2.91-6.8-5.73a48.65,48.65,0,0,1-6.14,3.06,33.6,33.6,0,0,0,.83,4.1c.27.88,1.83,1.93,4.23,3,5.14,2.29,14.06,4.67,22,5.67,2,.25,3.9.42,5.69.48-1.79-.06-3.71-.23-5.69-.48a49.73,49.73,0,0,0-2.62,11.24c-1.6,17.7,1.5,65.22,2.38,77.95H332c-.12-4.33-.45-12.77-1.46-23.63-.95-10.3,1.17-33.71,4.44-53.35.74-4.53,1.55-8.86,2.4-12.78,5.6-1.66,11.95-5.17,18.5-8.35,6.26-3-4.06-5.77,2.07-6.28,14.11-1.2,15.43-1.55,19.75-5.72.29-.28.6-.58.91-.92,4.58-4.62,12.73-14,19.86-20.46a2.72,2.72,0,0,0,.24-.24,21.31,21.31,0,0,0,4.49-6.95v0a.24.24,0,0,0,0-.09c4.26-9.63,6.4-24.22,8.17-31.35a95,95,0,0,0,2.66-13.82S409.91,290,401.19,291.06Z" />
      <path class="GUNDAN_TIGER_OUTFIT_TIGER_OUTFIT_15_cls-5" d="M312.82,352.56a8.61,8.61,0,0,1,.14,6.11,68,68,0,0,0,11.68,1,66.25,66.25,0,0,0,26.11-5.24c14.17-6.14,7.57-16.9,16.52-26.4,4.15-4.41,8.45-9,11.6-14.19,3.66-6.1,5.1-12.25,4.16-17.79a17.42,17.42,0,0,0-.87-3.28c-2.36.07-4.9.09-7.55.06a13.41,13.41,0,0,1,1.37,4c.93,5.5-1.38,10.81-3.48,14.31-2.83,4.7-6.9,9-10.83,13.19-8.51,9-1.41,19.24-14.21,24.8A59.13,59.13,0,0,1,312.82,352.56Z" />
      <path class="GUNDAN_TIGER_OUTFIT_TIGER_OUTFIT_15_cls-5" d="M79.59,325a136.36,136.36,0,0,0-18.81-13.5A51.57,51.57,0,0,1,51.21,315c19.55,14.52,41.45,39,47.58,54.92,2.2,5.68,4.36,15.45,6.19,26.39,2.58,15.52,4.43,33.37,4.63,45.27,2.18-.56,5.51-1.45,9.82-2.7.75-16.48,1.21-34.18.37-43.54C118,374.77,92.29,335.79,79.59,325Z" />
      <path class="GUNDAN_TIGER_OUTFIT_TIGER_OUTFIT_15_cls-2" d="M38.11,327.13c-1.53-.81-2.47-1.29-2.47-1.29L32,324.75l4.54-2.43-7.28-1.82,11.33-2.9s-.69-1.3-4.49-8.19C39.3,312.1,51.21,315,51.21,315c19.55,14.52,41.45,39,47.58,54.92,2.2,5.68,4.36,15.45,6.19,26.39-3.34-5.7-12.3-13.25-12.3-13.25l-8.85-8.09,8.85,3.68-2.94-3.05c-2.92-3.06-9.28-11.31-14.06-15.34a20.64,20.64,0,0,0-10.47-4.52l5.16-1.19s-.55-.87-8.78-5.07-18.61-14-18.61-14,3.81.63,15.14,6.21C53.43,335.82,42.9,329.73,38.11,327.13Z" />
      <path class="GUNDAN_TIGER_OUTFIT_TIGER_OUTFIT_15_cls-6" d="M423.58,401.52C421.76,390.05,428.4,374,428.4,374a19.55,19.55,0,0,0-9.79,8.9,102.2,102.2,0,0,1-9.54,15.75c-2.32-11.5,0-30.38,6.87-41.05-6.61.16-11.19,6.09-15.05,12.56-6.63-6.65-6-19.6-2.15-28.61a2.72,2.72,0,0,1-.24.24c-7.13,6.41-15.28,15.84-19.86,20.46-.31.34-.62.64-.91.92-4.32,4.17-5.64,4.52-19.75,5.72-6.13.51,4.19,3.25-2.07,6.28-6.55,3.18-12.9,6.69-18.5,8.35-.85,3.92-1.66,8.25-2.4,12.78-3.27,19.64-5.39,43.05-4.44,53.35,1,10.86,1.34,19.3,1.46,23.63h79.89L410.3,456.1s-3.49-12.71-1.17-19.35S425.4,413,423.58,401.52Z" />
      <path class="GUNDAN_TIGER_OUTFIT_TIGER_OUTFIT_15_cls-6" d="M106.64,442.28c.12,0,1.14-.27,3-.75-.2-11.9-2-29.75-4.63-45.27-3.34-5.7-12.3-13.25-12.3-13.25l-8.85-8.09,8.85,3.68-2.94-3.05c-2.92-3.06-9.28-11.31-14.06-15.34a20.64,20.64,0,0,0-10.47-4.52l5.16-1.19s-.55-.87-8.78-5.07-18.61-14-18.61-14,3.81.63,15.14,6.21c-4.69-5.82-15.22-11.91-20-14.51A62.5,62.5,0,0,0,33,339.83a27.71,27.71,0,0,0-13.07-5.39c7.35,7.18,11.17,26.93,2.44,35.69-3.88-6.48-8.44-12.41-15.07-12.57,6.91,10.68,9.21,29.57,6.87,41.05a100.89,100.89,0,0,1-9.52-15.75,19.59,19.59,0,0,0-9.8-8.9s6.64,16.09,4.81,27.56c-1.38,8.67,6.24,20.56,11.06,28.72h0c-1.18,7.19-3.48,21.18-4.92,29.5-2,11.56-1.65,13.49-1.65,13.49h83.2c-.3-1.75-.61-3.78-.8-5.73.19,1.95.5,4,.8,5.73h20.61c.07-2.87.24-7.54.64-13.52-4.34-.3-8.19-2.81-9.4-6.52C97.61,448.47,101,443.57,106.64,442.28ZM88.38,467.59a5.29,5.29,0,0,0-.06.8A5.29,5.29,0,0,1,88.38,467.59Zm.16-16.87-.12.55Zm-2.18,14c0,.44,0,.9.06,1.37C86.39,465.6,86.37,465.14,86.36,464.7Zm4.49-3.78a4.7,4.7,0,0,0-.17-1.17c-.15-.61-.37-1.49-.59-2.46.22,1,.44,1.85.59,2.46A4.7,4.7,0,0,1,90.85,460.92Z" />
      <path class="GUNDAN_TIGER_OUTFIT_TIGER_OUTFIT_15_cls-3" d="M306.36,352.3c-1.83-2.28-3.66-2.35-6.39-1.71.4,2.2.83,4.07,1,5.46a61.06,61.06,0,0,1,.17,6.73c2.11-1.31,4-2.59,5.09-3.38a5.3,5.3,0,0,0,1.21-1.93,4.89,4.89,0,0,0-.67-4.57A5.72,5.72,0,0,0,306.36,352.3Z" />
      <path class="GUNDAN_TIGER_OUTFIT_TIGER_OUTFIT_15_cls-3" d="M376,296.88a13.41,13.41,0,0,0-1.37-4c-15.93-.23-19.31-2.64-34.09-9.36L336.3,283h0l-3.58-.38s3.82,10.44,1.71,17.48-12.58,22.08-20.49,18.68c-3.12-1.34-4.18-4.31-3.89-7.52l-1.13-.08c-.56,5.44-1.85,10.57-4.42,14.15-5,7-5.67,14.42-5.14,20.46a16.12,16.12,0,0,1,4.12-.29c.18-.34,3.72-7,14.26-10.26,10.83-3.32,29.39-12.23,21-27.78,8.1,6.74,10,19.29.61,26.34s-22.46,3.64-29.4,14.61a13.22,13.22,0,0,1,1.11,1.22,11.44,11.44,0,0,1,1.72,2.9,59.13,59.13,0,0,0,34.64-3.38c12.8-5.56,5.7-15.78,14.21-24.8,3.93-4.17,8-8.49,10.83-13.19C374.6,307.69,376.91,302.38,376,296.88Z" />
      <path class="GUNDAN_TIGER_OUTFIT_TIGER_OUTFIT_15_cls-7" d="M216,399.46c3.8-2,6.28-4.09,10.11-6.27,6.56-3.73,13.17-7.7,19.77-11.92,1.08-.69,2.18-1.39,3.26-2.12a375.15,375.15,0,0,0,31.4-22.78,10.62,10.62,0,0,1,3.15-1.76" />
      <path class="GUNDAN_TIGER_OUTFIT_TIGER_OUTFIT_15_cls-7" d="M203.46,426.62a519.83,519.83,0,0,1-85,31.29c-3.45.91-5.56,1.4-6.1,1.52a12.69,12.69,0,0,1-2.84.32l-.9,0c-4.34-.3-8.19-2.81-9.4-6.52-1.57-4.73,1.78-9.63,7.46-10.92.12,0,1.14-.27,3-.75,2.18-.56,5.51-1.45,9.82-2.7a523.87,523.87,0,0,0,81.23-31.56c5-2.44,10.15-5,15.32-7.79" />
      <path class="GUNDAN_TIGER_OUTFIT_TIGER_OUTFIT_15_cls-7" d="M240.2,406.8c-6.9,4-12.42,7.7-19.14,11.16-6,3.08-11.86,6-17.6,8.65" />
      <path class="GUNDAN_TIGER_OUTFIT_TIGER_OUTFIT_15_cls-7" d="M246.39,403.15c-2.07,1.25-4.12,2.46-6.17,3.63" />
      <path class="GUNDAN_TIGER_OUTFIT_TIGER_OUTFIT_15_cls-7" d="M292.22,371.68a425.91,425.91,0,0,1-45.79,31.46" />
      <path class="GUNDAN_TIGER_OUTFIT_TIGER_OUTFIT_15_cls-7" d="M293.65,355.23a7.87,7.87,0,0,0-1.4-.62" />
      <path class="GUNDAN_TIGER_OUTFIT_TIGER_OUTFIT_15_cls-7" d="M240.22,406.78l0,0s-2.71,16.49-4.67,34.95c-.56,5.35-1.06,10.85-1.41,16.16s-.59,10.67-.56,15.33" />
      <path class="GUNDAN_TIGER_OUTFIT_TIGER_OUTFIT_15_cls-7" d="M293.63,281.9c-3,3-6.24,6.32-9.35,9.81-7.58,8.52-14.56,17.81-17,24.18-5.23,13.68-9.7,9.74-25.39,28.61-12.67,15.23-15.28,39.8-15.81,48.69" />
      <path class="GUNDAN_TIGER_OUTFIT_TIGER_OUTFIT_15_cls-7" d="M246.77,374.52c2.11-13.54,6.7-29.48,17.38-36,15.1-9.27,11.87-12.45,24.44-30.37A113.39,113.39,0,0,1,303,291.56c1.69-1.63,3.35-3.14,4.9-4.49,4.16-3.64,7.65-6.26,9.59-7.66,1-.76,1.64-1.15,1.64-1.15s0-.14.1-.38a14,14,0,0,0,.53-3.87c-.13-1.66-4.78-6.7-12.91-2.83-2.8,1.32-7.7,5.38-13.14,10.7" />
      <path class="GUNDAN_TIGER_OUTFIT_TIGER_OUTFIT_15_cls-7" d="M245.86,381.27c.24-2.13.54-4.39.91-6.73" />
      <polyline class="GUNDAN_TIGER_OUTFIT_TIGER_OUTFIT_15_cls-7" points="221.06 473.24 221.06 458.91 221.06 442.97 221.06 417.96" />
      <path class="GUNDAN_TIGER_OUTFIT_TIGER_OUTFIT_15_cls-7" d="M207.23,473.24c0-4.67-.17-9.9-.54-15.33s-.87-10.83-1.44-16.16-1.18-10.48-1.79-15.13h0" />
      <path class="GUNDAN_TIGER_OUTFIT_TIGER_OUTFIT_15_cls-7" d="M147.15,281.9c3,3,6.24,6.32,9.35,9.81,7.58,8.52,14.56,17.81,17,24.18,5.23,13.68,9.72,9.74,25.41,28.61s15.93,52,15.93,52l1.15,2.93v0" />
      <path class="GUNDAN_TIGER_OUTFIT_TIGER_OUTFIT_15_cls-7" d="M200.66,407.27c0-.31-.07-.47-.07-.47a9.77,9.77,0,0,1-1.25-1.9c-1.24-2.34-3.05-7.08-3.68-15.63a167.2,167.2,0,0,0-2.07-17.34c-2.28-12.93-6.94-27.31-16.94-33.44-15.11-9.27-11.87-12.45-24.46-30.37s-39.51-34.51-39.51-34.51-3.42-5.23-3.29-6.89,4.76-10.92,12.9-7.05c2.78,1.33,19.37,16.89,24.82,22.21" />
      <path class="GUNDAN_TIGER_OUTFIT_TIGER_OUTFIT_15_cls-7" d="M295,366.26c-.17-1.29-.35-2.62-.5-3.94" />
      <path class="GUNDAN_TIGER_OUTFIT_TIGER_OUTFIT_15_cls-7" d="M319.1,278.25a56.09,56.09,0,0,1,8,.94c2.83.69,5.65,3.45,5.65,3.45s1.45.17,3.57.38" />
      <path class="GUNDAN_TIGER_OUTFIT_TIGER_OUTFIT_15_cls-7" d="M374.61,292.84c-15.93-.23-19.31-2.64-34.09-9.36L336.3,283" />
      <path class="GUNDAN_TIGER_OUTFIT_TIGER_OUTFIT_15_cls-7" d="M403.24,334.54a.24.24,0,0,0,0-.09c4.26-9.63,6.4-24.22,8.17-31.35a95,95,0,0,0,2.66-13.82s-4.19.71-12.91,1.78q-4.21.51-9.83,1.13c-2.65.28-5.75.49-9.2.59" />
      <path class="GUNDAN_TIGER_OUTFIT_TIGER_OUTFIT_15_cls-7" d="M295.7,371.29a33.6,33.6,0,0,0,.83,4.1c.27.88,1.83,1.93,4.23,3,5.14,2.29,14.06,4.67,22,5.67a45.64,45.64,0,0,0,10.59.32,22.38,22.38,0,0,0,4-.89c5.6-1.66,11.95-5.17,18.5-8.35,6.26-3-4.06-5.77,2.07-6.28,14.11-1.2,15.43-1.55,19.75-5.72.29-.28.6-.58.91-.92,4.58-4.62,12.73-14,19.86-20.46a2.72,2.72,0,0,0,.24-.24,21.31,21.31,0,0,0,4.49-6.95" />
      <path class="GUNDAN_TIGER_OUTFIT_TIGER_OUTFIT_15_cls-7" d="M293.85,356.9c-.08-.59-.15-1.15-.2-1.67" />
      <path class="GUNDAN_TIGER_OUTFIT_TIGER_OUTFIT_15_cls-7" d="M292.69,348.29c-.16-.89-.37-2-.64-3.5s-.61-3.22-1-5.34c-1.83-9.53,5.31-8.84,11.13-24.32a35,35,0,0,0,.8-23.57" />
      <path class="GUNDAN_TIGER_OUTFIT_TIGER_OUTFIT_15_cls-7" d="M396.26,309.1a27.48,27.48,0,0,1,1.4-6.82,60.63,60.63,0,0,1,4.31-7.89l-.78-3.33" />
      <path class="GUNDAN_TIGER_OUTFIT_TIGER_OUTFIT_15_cls-7" d="M384,342.88a92.28,92.28,0,0,0,9.21-12.25c1.08-1.82,1.67-7.16,2.2-12.78" />
      <path class="GUNDAN_TIGER_OUTFIT_TIGER_OUTFIT_15_cls-7" d="M325.56,374.75c6.3-.54,13.76-2.14,23.27-5.58,3.53-1.29-9.79-2.45-6.5-3.55" />
      <path class="GUNDAN_TIGER_OUTFIT_TIGER_OUTFIT_15_cls-7" d="M307.87,287.07c.77,5.06,1.94,15,1,24.14-.56,5.44-1.85,10.57-4.42,14.15-5,7-5.67,14.42-5.14,20.46" />
      <path class="GUNDAN_TIGER_OUTFIT_TIGER_OUTFIT_15_cls-7" d="M301.84,368.23c.86,2.82,2.71,5.08,6.8,5.73,2.09.33,4.25.63,6.53.81" />
      <path class="GUNDAN_TIGER_OUTFIT_TIGER_OUTFIT_15_cls-7" d="M300,350.59c.4,2.2.83,4.07,1,5.46a61.06,61.06,0,0,1,.17,6.73" />
      <path class="GUNDAN_TIGER_OUTFIT_TIGER_OUTFIT_15_cls-7" d="M351.84,362.48c10.54-3.53,19.12-6.78,24.41-11.64.36-.32.7-.66,1-1" />
      <path class="GUNDAN_TIGER_OUTFIT_TIGER_OUTFIT_15_cls-7" d="M315.17,374.77c1.56-3.33,4.5-9,5.93-8.61s3.37,5.53,4.46,8.59" />
      <path class="GUNDAN_TIGER_OUTFIT_TIGER_OUTFIT_15_cls-7" d="M342.33,365.62c.24-3.57.86-9.76,2.37-9.72s4.93,3.94,7.14,6.58" />
      <path class="GUNDAN_TIGER_OUTFIT_TIGER_OUTFIT_15_cls-7" d="M377.28,349.85c-1.77-3.05-5.32-9.5-3.87-10.1s7.13,1.7,10.56,3.13" />
      <path class="GUNDAN_TIGER_OUTFIT_TIGER_OUTFIT_15_cls-7" d="M396.26,309.1h0c-3.65.75-10.36,2.26-11,3.43s6.18,3.87,10.09,5.31" />
      <path class="GUNDAN_TIGER_OUTFIT_TIGER_OUTFIT_15_cls-7" d="M60.78,311.51A136.36,136.36,0,0,1,79.59,325c12.7,10.78,38.36,49.76,40.21,70.28.84,9.36.38,27.06-.37,43.54" />
      <path class="GUNDAN_TIGER_OUTFIT_TIGER_OUTFIT_15_cls-7" d="M112.68,273.61l-1.35-2.2S97,286.35,89.81,293.09c-5.46,5.1-18.2,13.51-29,18.42A51.57,51.57,0,0,1,51.21,315c19.55,14.52,41.45,39,47.58,54.92,2.2,5.68,4.36,15.45,6.19,26.39,2.58,15.52,4.43,33.37,4.63,45.27" />
      <path class="GUNDAN_TIGER_OUTFIT_TIGER_OUTFIT_15_cls-7" d="M105,396.26c-3.34-5.7-12.3-13.25-12.3-13.25l-8.85-8.09,8.85,3.68-2.94-3.05c-2.92-3.06-9.28-11.31-14.06-15.34a20.64,20.64,0,0,0-10.47-4.52l5.16-1.19s-.55-.87-8.78-5.07-18.61-14-18.61-14,3.81.63,15.14,6.21c-4.69-5.82-15.22-11.91-20-14.51-1.53-.81-2.47-1.29-2.47-1.29L32,324.75l4.54-2.43-7.28-1.82,11.33-2.9s-.69-1.3-4.49-8.19C39.3,312.1,51.21,315,51.21,315" />
      <path class="GUNDAN_TIGER_OUTFIT_TIGER_OUTFIT_15_cls-7" d="M33,339.83a61.75,61.75,0,0,1,5.14-12.69" />
      <path class="GUNDAN_TIGER_OUTFIT_TIGER_OUTFIT_15_cls-7" d="M22.35,370.13c8.73-8.76,4.91-28.51-2.44-35.69A27.71,27.71,0,0,1,33,339.83a32.18,32.18,0,0,1,6.14,5.85A164.78,164.78,0,0,0,45.8,365.3c4.49,10.92,17.11,20.18,28.56,26.39s28.07,34,28.07,34H97.78s-1.25,15.21-4.23,19.77-5,5.18-5,5.18-1.5,6.43-2.11,11.62c-.34,2.88.27,7.47.88,11" />
      <path class="GUNDAN_TIGER_OUTFIT_TIGER_OUTFIT_15_cls-7" d="M14.15,398.61c2.34-11.48,0-30.37-6.87-41.05,6.63.16,11.19,6.09,15.07,12.57,2.8,4.72,5.27,9.74,7.85,13,6.14,7.73,20.92,18.52,30.71,24.05s24.58,38.28,24.58,38.28l3.07,5.18s1.5,6.65,2.12,9.11-.62,2.29-2.12,7.06c-.64,2,.08,4.39,1.11,6.43" />
      <path class="GUNDAN_TIGER_OUTFIT_TIGER_OUTFIT_15_cls-7" d="M10.7,430.24C5.88,422.08-1.74,410.19-.36,401.52,1.47,390.05-5.18,374-5.18,374a19.59,19.59,0,0,1,9.81,8.9,100.89,100.89,0,0,0,9.52,15.75,99.64,99.64,0,0,0,22.69,21.28c22.42,15.76,37.52,39.86,37.52,39.86s4.65,9.62,4.82,13.49" />
      <path class="GUNDAN_TIGER_OUTFIT_TIGER_OUTFIT_15_cls-7" d="M12.92,456.1s3.5-12.71,1.17-19.35a42,42,0,0,0-3.39-6.5" />
      <path class="GUNDAN_TIGER_OUTFIT_TIGER_OUTFIT_15_cls-7" d="M24.8,384.1s13.71,17.2,23.41,24,15.11,9.39,18.89,17.54" />
      <path class="GUNDAN_TIGER_OUTFIT_TIGER_OUTFIT_15_cls-7" d="M15.33,409.39s10.85,9.95,20.37,19.48,12.51,11.2,17,18.66c0,0,6.39,17.69,7.06,25.71" />
      <path class="GUNDAN_TIGER_OUTFIT_TIGER_OUTFIT_15_cls-7" d="M10.7,430.24h0c-1.18,7.19-3.48,21.18-4.92,29.5-2,11.56-1.65,13.49-1.65,13.49H343.19" />
      <path class="GUNDAN_TIGER_OUTFIT_TIGER_OUTFIT_15_cls-7" d="M409.07,398.61a102.2,102.2,0,0,0,9.54-15.75,19.55,19.55,0,0,1,9.79-8.9s-6.64,16.09-4.82,27.56-12.11,28.6-14.45,35.23,1.17,19.35,1.17,19.35l1.62,17.14h-54" />
      <path class="GUNDAN_TIGER_OUTFIT_TIGER_OUTFIT_15_cls-7" d="M357.89,473.24h-14.7c2.66-6.72,5.67-13.49,5.67-13.49s15.12-24.1,37.52-39.86c10.86-7.62,17.9-15,22.69-21.27" />
      <path class="GUNDAN_TIGER_OUTFIT_TIGER_OUTFIT_15_cls-7" d="M199.34,404.9s-8.08-3.38-20.37-3.38-37.85-2.64-39.52-19.91,2-50.45-23.24-51.41a22.79,22.79,0,0,1,32.38,17.55c2.82,17.69,8.14,30.54,23.9,34.13s20.62-2.9,21.1-9.95" />
      <line class="GUNDAN_TIGER_OUTFIT_TIGER_OUTFIT_15_cls-7" x1="336.3" y1="283.04" x2="336.29" y2="283.03" />
      <path class="GUNDAN_TIGER_OUTFIT_TIGER_OUTFIT_15_cls-7" d="M322.55,473.24c-.88-12.73-4-60.25-2.38-77.95a49.73,49.73,0,0,1,2.62-11.24" />
      <path class="GUNDAN_TIGER_OUTFIT_TIGER_OUTFIT_15_cls-7" d="M332,473.24c-.12-4.33-.45-12.77-1.46-23.63-.95-10.3,1.17-33.71,4.44-53.35.74-4.53,1.55-8.86,2.4-12.78" />
      <path class="GUNDAN_TIGER_OUTFIT_TIGER_OUTFIT_15_cls-7" d="M335,396.26c3.32-5.7,12.29-13.25,12.29-13.25l8.61-7.88" />
      <path class="GUNDAN_TIGER_OUTFIT_TIGER_OUTFIT_15_cls-7" d="M352.65,473.24c.61-3.51,1.22-8.1.88-11-.62-5.19-2.12-11.62-2.12-11.62s-2-.61-5-5.18-4.24-19.77-4.24-19.77h-4.66s-.14-27.77,11.32-34,24.08-15.47,28.56-26.39c.43-1.06.84-2.09,1.22-3.09" />
      <path class="GUNDAN_TIGER_OUTFIT_TIGER_OUTFIT_15_cls-7" d="M403.24,334.54v0" />
      <path class="GUNDAN_TIGER_OUTFIT_TIGER_OUTFIT_15_cls-7" d="M400.89,370.12c-6.63-6.65-6-19.6-2.15-28.61" />
      <path class="GUNDAN_TIGER_OUTFIT_TIGER_OUTFIT_15_cls-7" d="M409.07,398.62h0c-2.32-11.49,0-30.38,6.87-41.05-6.61.16-11.19,6.09-15.05,12.56-2.82,4.72-5.27,9.75-7.87,13-6.14,7.73-20.92,18.52-30.71,24.05s-7.82,38.28-7.82,38.28l-3.08,5.18" />
      <path class="GUNDAN_TIGER_OUTFIT_TIGER_OUTFIT_15_cls-7" d="M398.43,384.1s-13.7,17.2-23.42,24-15.11,9.39-18.88,17.54" />
      <path class="GUNDAN_TIGER_OUTFIT_TIGER_OUTFIT_15_cls-7" d="M357.89,473.24c4.11-11.56,12.64-25.71,12.64-25.71,4.48-7.46,7.47-9.12,17-18.66s20.37-19.48,20.37-19.48" />
      <path class="GUNDAN_TIGER_OUTFIT_TIGER_OUTFIT_15_cls-7" d="M286.73,365.41c0,.1-.1.22-.14.33" />
      <path class="GUNDAN_TIGER_OUTFIT_TIGER_OUTFIT_15_cls-7" d="M291.15,349.25c.09-.5.16-1,.24-1.5a29.14,29.14,0,0,1,.66-3" />
      <path class="GUNDAN_TIGER_OUTFIT_TIGER_OUTFIT_15_cls-7" d="M246.77,374.52v0a10.77,10.77,0,0,0,2.35,4.61" />
      <path class="GUNDAN_TIGER_OUTFIT_TIGER_OUTFIT_15_cls-7" d="M246.39,403.15h0A65.12,65.12,0,0,1,261,401.52c12.28,0,37.85-2.64,39.51-19.91.1-1,.17-2.1.24-3.23" />
      <path class="GUNDAN_TIGER_OUTFIT_TIGER_OUTFIT_15_cls-7" d="M147.11,281.88l0,0c.87.47,14.86,8.16,26.09,10.67,11.59,2.59,33,11.92,37.11,31.27.05.16.08.33.12.51,4.15,19.35,10.59,48.41,10.59,48.41" />
      <path class="GUNDAN_TIGER_OUTFIT_TIGER_OUTFIT_15_cls-7" d="M156.5,291.71c3.76,1.33,8.42,2.88,12.51,3.93,8.64,2.22,20.1,7.87,22.25,11.75-2.65,8-6.56,24.25,9.26,27.05-5.73-3.72-11.46-17.72-2.49-19.38,5.23-1,7.56,4.4,8.76,9.84.86,3.91,1.13,7.86,1.44,9.54.76,4.05,6.13,37.75,12.83,46.14" />
      <path class="GUNDAN_TIGER_OUTFIT_TIGER_OUTFIT_15_cls-7" d="M293.68,281.88l-.05,0c-.87.47-14.86,8.16-26.08,10.67-11.59,2.59-33,11.92-37.11,31.27s-9.38,48.92-9.38,48.92" />
      <path class="GUNDAN_TIGER_OUTFIT_TIGER_OUTFIT_15_cls-7" d="M221.06,380.58a27.76,27.76,0,0,0,3.6-7c5-13,7.29-35.83,7.89-39.12.75-4,1.25-21,10.22-19.38s3.23,15.66-2.5,19.38c15.82-2.8,11.92-19,9.27-27.05,2.15-3.88,13.61-9.53,22.24-11.75,4.09-1.05,8.75-2.59,12.5-3.93" />
      <path class="GUNDAN_TIGER_OUTFIT_TIGER_OUTFIT_15_cls-7" d="M313,358.67a68,68,0,0,0,11.68,1,66.25,66.25,0,0,0,26.11-5.24c14.17-6.14,7.57-16.9,16.52-26.4,4.15-4.41,8.45-9,11.6-14.19,3.66-6.1,5.1-12.25,4.16-17.79a17.42,17.42,0,0,0-.87-3.28c-2.36.07-4.9.09-7.55.06a13.41,13.41,0,0,1,1.37,4c.93,5.5-1.38,10.81-3.48,14.31-2.83,4.7-6.9,9-10.83,13.19-8.51,9-1.41,19.24-14.21,24.8a59.13,59.13,0,0,1-34.64,3.38" />
      <path class="GUNDAN_TIGER_OUTFIT_TIGER_OUTFIT_15_cls-7" d="M285.67,364.68l.92,1.06,4.51,5.18a2.66,2.66,0,0,0,1.12.76,3.49,3.49,0,0,0,2.17.07c.41-.13.85-.28,1.31-.46a48.65,48.65,0,0,0,6.14-3.06c4-2.33,7.67-4.91,8.3-5.35a2.23,2.23,0,0,0,.24-.19,10,10,0,0,0,2.58-4,8.61,8.61,0,0,0-.14-6.11,11.44,11.44,0,0,0-1.72-2.9,13.22,13.22,0,0,0-1.11-1.22,10.27,10.27,0,0,0-6.52-2.91,16.12,16.12,0,0,0-4.12.29c-1.11.21-2.11.49-2.94.72l-.17,0a16,16,0,0,0-3.55,1.7c-.5.29-1,.61-1.54,1-2.61,1.67-5.43,3.78-7.48,5.36-.93.72-1.7,1.34-2.21,1.76a2.08,2.08,0,0,0-.33,3.09l4.42,5.08" />
      <path class="GUNDAN_TIGER_OUTFIT_TIGER_OUTFIT_15_cls-7" d="M292,363.82l2.39,2.74.65-.3c1.09-.52,2.28-1.16,3.47-1.85.92-.54,1.84-1.09,2.71-1.63,2.11-1.31,4-2.59,5.09-3.38a5.3,5.3,0,0,0,1.21-1.93,4.89,4.89,0,0,0-.67-4.57,5.72,5.72,0,0,0-.44-.6c-1.83-2.28-3.66-2.35-6.39-1.71-.54.13-1.12.28-1.75.46l-.17,0a22.06,22.06,0,0,0-4.57,2.67c-.4.27-.82.55-1.23.85-.84.59-1.71,1.22-2.59,1.89s-1.64,1.23-2.46,1.86l1.42,1.61" />
      <path class="GUNDAN_TIGER_OUTFIT_TIGER_OUTFIT_15_cls-7" d="M292,363.82l-2.35,1.38a3.17,3.17,0,0,1-1.64.43,3.39,3.39,0,0,1-1.23-.22,2.73,2.73,0,0,1-1.06-.73s0,0-.05-.05l-.07-.09a2.15,2.15,0,0,1,.76-3.22l2.31-1.35,5.23-3.07.07,0a3.22,3.22,0,0,1,4,.56,2.13,2.13,0,0,1-.68,3.31l-2.72,1.6Z" />
      <path class="GUNDAN_TIGER_OUTFIT_TIGER_OUTFIT_15_cls-7" d="M317.46,279.41s10.36,5.8,9.11,17.72-8,15.85-10.7,14.51-3.13-9.43,2.42-11.92c-4.19,1.07-7.83,6.62-8.25,11.57-.29,3.21.77,6.18,3.89,7.52,7.91,3.4,18.37-11.63,20.49-18.68s-1.71-17.48-1.71-17.48" />
      <path class="GUNDAN_TIGER_OUTFIT_TIGER_OUTFIT_15_cls-7" d="M303.47,345.55v0c.18-.34,3.72-7,14.26-10.26,10.83-3.32,29.39-12.23,21-27.78,8.1,6.74,10,19.29.61,26.34s-22.46,3.64-29.4,14.61" />
      <g class="GUNDAN_TIGER_OUTFIT_TIGER_OUTFIT_15_cls-8">
        <path d="M112.81,263.24s37.29,27.55,50.41,49.8,27.89,22.88,35.37,43,7.43,42.74,11.35,46.58c-6.6,5.49-8.3,4.16-8.3,4.16h-1.23a9.09,9.09,0,0,1-2-2.6,85.43,85.43,0,0,0-21.16-2.84c-8.34-.07-32.28-3-36.75-15.22-1.89-7.31-2.94-22.37-3-31.53s-5.29-22.9-20.47-24.36c12.28-.38,27.47,9.05,28.72,24.19s10.71,35.86,29.39,37.11c18.3,1.24,20.17,0,20.17,0a124.38,124.38,0,0,0-2.9-25.1c-3-12.84-8-24.14-15.28-27.56s-13-11.42-17.46-18.8-23.46-31.42-34.18-38.78c-8.41-6.4-12.89-7.45-12.89-7.45s-3.92-6.59-2.68-8.14A12,12,0,0,1,112.81,263.24Z" />
        <path d="M51.21,314.42s5.1-1,6.29-1.5l1.2-.5a205.1,205.1,0,0,1,26.23,23.43c11.62,12.71,21.09,28,24,39.66s6.73,51.42,6.73,51.42v13l-6,1.62s-3.22-28.12-7.18-36.63-26.22-30.35-38.34-34.64a84.69,84.69,0,0,1,16.61,3.3s-3.2-10.34-19.53-14.9c-17-4.57-18.16-8.85-18.16-8.85s9.46,3.15,12.45,3C43.67,344,38.53,339.17,35.54,332.5c2.14-4.55,2.57-5.36,2.57-5.36l-6.35-2,5-2.69a44.41,44.41,0,0,1,12.74,4.35,90.86,90.86,0,0,0-13-8.14s2.49-1.67,10.09.78A56.28,56.28,0,0,1,38.92,311S48.94,315.15,51.21,314.42Z" />
        <path d="M22.71,369.73s17.14,22.34,34.7,29.75,38.21,40.33,38.21,40.33-1.3,9.09-7.3,10.42c-12.7-24.07-19.66-37.4-25.89-41.82-10.62-6.84-24.64-16-28.8-21.49S23,373.55,22.71,369.73Z" />
        <path d="M14.89,395.8s7.28,9.73,29.07,19.43,37.86,42.06,37.86,42.06-9.47-17.44-21.54-24.8c0,0,21.41,27.08,21.54,40.75-27.52,0-27.52-.56-27.52-.56s-16.32-26-30.39-43.1S4,393.91,1.12,384.85a117.4,117.4,0,0,0,41.1,47C59.9,443.79,66.5,453.64,66.5,453.64s-10.83-20.32-27.27-30.79a87.54,87.54,0,0,1-25.08-24.24Z" />
        <path d="M10.7,430.25s6,6.08,9.21,18.38S22.71,469,22.71,469s-8.12-14.48-12-18.72-2-7.61-2-7.76S10.7,430.25,10.7,430.25Z" />
        <path d="M56.14,379.07S65.42,386,83,393.9s21.33,31.22,22,39.94c-3.6-9.85-12.08-26.71-23.16-34.36S56.31,392.72,56.14,379.07Z" />
        <path d="M400.36,369.73s-17.13,22.34-34.69,29.75-21.47,40.33-21.47,40.33,1.3,9.09,7.31,10.42c12.69-24.07,2.91-37.4,9.13-41.82,10.63-6.84,24.64-16,28.8-21.49S400.07,373.55,400.36,369.73Z" />
        <path d="M408.19,395.8s-7.28,9.73-29.07,19.43S358,457.29,358,457.29s-7.28-17.44,4.8-24.8c0,0-4.67,27.08-4.8,40.75,27.53,0,10.78-.56,10.78-.56s16.31-26,30.39-43.1,19.91-35.67,22.78-44.73a117.38,117.38,0,0,1-41.09,47c-17.68,11.92-24.28,21.77-24.28,21.77s10.83-20.32,27.27-30.79a87.54,87.54,0,0,0,25.08-24.24Z" />
        <path d="M412.38,430.25s-6,6.08-9.21,18.38S400.36,469,400.36,469s5.61-10.37,9.5-14.6c-1.58-6.84-1.62-12.77-2-16.18C407.87,438,412.38,430.25,412.38,430.25Z" />
        <path d="M366.94,379.07S374.4,386,356.8,393.9s-21.32,31.22-21.95,39.94c3.59-9.85,12.07-26.71,23.15-34.36S366.76,392.72,366.94,379.07Z" />
        <path d="M203.46,426.61s3.4,27.73,3.52,33.44.25,13.19.25,13.19h9.7l-1.39-52.48Z" />
        <path d="M99.78,454.46s39.45-8.54,73.57-24.22,113.24-64,113.24-64l5,5.24s-51.38,38.5-89.53,55.12c28.23-16.14,36.86-26.43,36.86-26.43s-52,29.6-69.57,38.51-50.94,19.21-50.94,19.21-10.82,3.28-14.59.93S99.78,454.46,99.78,454.46Z" />
        <path d="M114.47,377a109,109,0,0,1,11.22,23.15c4,12.23,6.15,18.45,6.15,18.45s11.54,11,15,11c-17.6,6.15-27.44,9.15-27.44,9.15s1.12-18.12,1.2-25.65S119.09,383.74,114.47,377Z" />
        <path d="M269.91,310.62s-1.1,10.71-8.57,19-22.5,23.13-25.32,36.93a136.59,136.59,0,0,0-3,22.59l-7.56,4.38s3.64-24.76,8.62-36.14,15.94-22.58,21.17-26.31,10.3-9.95,11.54-14.38S269.91,310.62,269.91,310.62Z" />
        <path d="M85.73,296.5s5,5.48,19.25,14.12,16.07,14.45,16.07,14.45-18.1-11.2-26.9-14.45c13.45,13.06,25.57,18.87,33.37,44.58s.6,40,13.78,56c-18-17.27-27.09-38-35.89-51.89S81.55,319.77,60,311.84C72.75,305.19,85.73,296.5,85.73,296.5Z" />
      </g>
    </g>
  </g>
</svg>