<svg xmlns="http://www.w3.org/2000/svg" xmlns:xlink="http://www.w3.org/1999/xlink" viewBox="0 0 432 432">
  <defs>
    <style>.GUNDAN_RED_PANDA_OUTFIT_GUNDAN_RED_PANDA_OUTFIT_23_cls-1,.GUNDAN_RED_PANDA_OUTFIT_GUNDAN_RED_PANDA_OUTFIT_23_cls-5{fill:none;}.GUNDAN_RED_PANDA_OUTFIT_GUNDAN_RED_PANDA_OUTFIT_23_cls-2{isolation:isolate;}.GUNDAN_RED_PANDA_OUTFIT_GUNDAN_RED_PANDA_OUTFIT_23_cls-3{fill:#f7f739;}.GUNDAN_RED_PANDA_OUTFIT_GUNDAN_RED_PANDA_OUTFIT_23_cls-4{fill:#fff;}.GUNDAN_RED_PANDA_OUTFIT_GUNDAN_RED_PANDA_OUTFIT_23_cls-5{stroke:#000;stroke-linecap:round;stroke-linejoin:round;stroke-width:2.1px;}.GUNDAN_RED_PANDA_OUTFIT_GUNDAN_RED_PANDA_OUTFIT_23_cls-6{fill:#b22c00;}.GUNDAN_RED_PANDA_OUTFIT_GUNDAN_RED_PANDA_OUTFIT_23_cls-7{clip-path:url(#GUNDAN_RED_PANDA_OUTFIT_GUNDAN_RED_PANDA_OUTFIT_23_clip-path);}.GUNDAN_RED_PANDA_OUTFIT_GUNDAN_RED_PANDA_OUTFIT_23_cls-8{fill:#6b390b;}.GUNDAN_RED_PANDA_OUTFIT_GUNDAN_RED_PANDA_OUTFIT_23_cls-9{opacity:0.22;}.GUNDAN_RED_PANDA_OUTFIT_GUNDAN_RED_PANDA_OUTFIT_23_cls-10,.GUNDAN_RED_PANDA_OUTFIT_GUNDAN_RED_PANDA_OUTFIT_23_cls-9{mix-blend-mode:multiply;}.GUNDAN_RED_PANDA_OUTFIT_GUNDAN_RED_PANDA_OUTFIT_23_cls-10{fill:#282021;opacity:0.4;}</style>
    <clipPath id="clip-path">
      <rect class="GUNDAN_RED_PANDA_OUTFIT_GUNDAN_RED_PANDA_OUTFIT_23_cls-1" x="12.74" y="308.07" width="192.19" height="135.95" transform="translate(35.73 -8.55) rotate(5.38)" />
    </clipPath>
  </defs>
  <g class="GUNDAN_RED_PANDA_OUTFIT_GUNDAN_RED_PANDA_OUTFIT_23_cls-2">
    <g id="outfit">
      <path class="GUNDAN_RED_PANDA_OUTFIT_GUNDAN_RED_PANDA_OUTFIT_23_cls-3" d="M181.17,445.19,63.68,448.53S60,437,54.46,423.59c6.46-5.6,12.08-15.22,15.23-24.39A52.61,52.61,0,0,0,71.84,391v-.16c5.36.63,17.26,4.07,41.76,18.55,6.65,3.93,13,7.59,19,10.93C161,436.07,181.17,445.19,181.17,445.19Z" />
      <path class="GUNDAN_RED_PANDA_OUTFIT_GUNDAN_RED_PANDA_OUTFIT_23_cls-3" d="M390,400.41c-2.76,1.45-6.84,3.83-6.84,3.83a47.22,47.22,0,0,1-1.92-7.34l0-.15c-4.77.57-15.37,3.65-37.17,16.53-33.78,20-60.16,31.91-60.16,31.91H181.17s-20.16-9.12-48.51-24.91c-6-3.34-12.4-7-19-10.93-24.5-14.48-36.4-17.92-41.76-18.55V391a52.61,52.61,0,0,1-2.15,8.24s-4.58-2.67-7.7-4.29.2-9,5.19-13.69c12.34-13.58,10.71-20.9,10.6-21.34v0c-.32-.49-.62-1-.93-1.51a1.43,1.43,0,0,1,.75-2.09c7.87-1.86,15.92-6.33,17.85-17.1a338.14,338.14,0,0,0,51.42,37.5h0c108.53,63.38,186.14,8.14,215-25.89,1.73,9.58,7.17,13.56,14.17,15.22a1.26,1.26,0,0,1,.68,1.85c-.28.45-.54.9-.83,1.35a0,0,0,0,1,0,0c-.1.39-1.54,6.91,9.43,19C389.82,392.45,392.76,399,390,400.41Z" />
      <path class="GUNDAN_RED_PANDA_OUTFIT_GUNDAN_RED_PANDA_OUTFIT_23_cls-3" d="M383.14,404.24C385.93,412.39,391,421,396.7,426c-4.91,11.9-17.39,19.23-17.39,19.23H283.87s26.38-11.94,60.16-31.91c21.8-12.88,32.4-16,37.17-16.53l0,.15A47.22,47.22,0,0,0,383.14,404.24Z" />
      <path class="GUNDAN_RED_PANDA_OUTFIT_GUNDAN_RED_PANDA_OUTFIT_23_cls-4" d="M361.92,350.79c-28.87,34-106.48,89.27-215,25.89h0a338.14,338.14,0,0,1-51.42-37.5l17.66-14.74s12.78,15.39,39.26,30.88c24.29,14.21,58,27.84,98.12,27.84,54.18,0,89-45.67,89-45.67S358.91,342.78,361.92,350.79Z" />
      <path class="GUNDAN_RED_PANDA_OUTFIT_GUNDAN_RED_PANDA_OUTFIT_23_cls-5" d="M222,445.19H379.31s12.48-7.33,17.39-19.23c-5.75-5-10.77-13.57-13.56-21.72a47.22,47.22,0,0,1-1.92-7.34" />
      <path class="GUNDAN_RED_PANDA_OUTFIT_GUNDAN_RED_PANDA_OUTFIT_23_cls-5" d="M283.87,445.19s26.38-11.94,60.16-31.91c21.8-12.88,32.4-16,37.17-16.53,2.63-.3,3.49.15,3.49.15" />
      <path class="GUNDAN_RED_PANDA_OUTFIT_GUNDAN_RED_PANDA_OUTFIT_23_cls-5" d="M375.94,369.21c.29-.45.55-.9.83-1.35a1.26,1.26,0,0,0-.68-1.85c-7-1.66-12.44-5.64-14.17-15.22" />
      <path class="GUNDAN_RED_PANDA_OUTFIT_GUNDAN_RED_PANDA_OUTFIT_23_cls-5" d="M338.31,390.44a44.25,44.25,0,0,0,37.62-21.21" />
      <path class="GUNDAN_RED_PANDA_OUTFIT_GUNDAN_RED_PANDA_OUTFIT_23_cls-5" d="M375.94,369.21a0,0,0,0,1,0,0c-.1.39-1.54,6.91,9.43,19,4.46,4.22,7.4,10.74,4.62,12.18s-6.84,3.83-6.84,3.83" />
      <path class="GUNDAN_RED_PANDA_OUTFIT_GUNDAN_RED_PANDA_OUTFIT_23_cls-5" d="M361.92,436.52S375.7,425.09,393,426.05" />
      <path class="GUNDAN_RED_PANDA_OUTFIT_GUNDAN_RED_PANDA_OUTFIT_23_cls-5" d="M222,445.19H181.17L63.68,448.53S60,437,54.46,423.59c6.46-5.6,12.08-15.22,15.23-24.39A52.61,52.61,0,0,0,71.84,391" />
      <path class="GUNDAN_RED_PANDA_OUTFIT_GUNDAN_RED_PANDA_OUTFIT_23_cls-5" d="M181.17,445.19s-29.63-13.41-67.56-35.84c-24.5-14.48-36.4-17.92-41.76-18.55-2.94-.34-3.9.16-3.9.16" />
      <path class="GUNDAN_RED_PANDA_OUTFIT_GUNDAN_RED_PANDA_OUTFIT_23_cls-5" d="M77.77,359.86c-.32-.49-.62-1-.93-1.51a1.43,1.43,0,0,1,.75-2.09c7.87-1.86,15.92-6.33,17.85-17.1" />
      <path class="GUNDAN_RED_PANDA_OUTFIT_GUNDAN_RED_PANDA_OUTFIT_23_cls-5" d="M120,383.69a49.65,49.65,0,0,1-42.25-23.81" />
      <path class="GUNDAN_RED_PANDA_OUTFIT_GUNDAN_RED_PANDA_OUTFIT_23_cls-5" d="M77.77,359.86v0c.11.44,1.74,7.76-10.6,21.34-5,4.74-8.3,12.07-5.19,13.69s7.7,4.29,7.7,4.29" />
      <path class="GUNDAN_RED_PANDA_OUTFIT_GUNDAN_RED_PANDA_OUTFIT_23_cls-5" d="M93.52,435.45S78,422.62,58.61,423.69" />
      <path class="GUNDAN_RED_PANDA_OUTFIT_GUNDAN_RED_PANDA_OUTFIT_23_cls-5" d="M95.44,339.16l17.66-14.74s53.59,58.72,137.38,58.72c54.18,0,89-45.67,89-45.67s19.42,5.31,22.43,13.32C328.68,390,230.77,457.32,95.44,339.16" />
      <path class="GUNDAN_RED_PANDA_OUTFIT_GUNDAN_RED_PANDA_OUTFIT_23_cls-5" d="M152.35,396.65s17.7,3.32,34.73,18.3c2.55,2.23,4.92,4.16,7.13,5.83,12.59,9.53,19.64,10.55,19.64,10.55" />
      <path class="GUNDAN_RED_PANDA_OUTFIT_GUNDAN_RED_PANDA_OUTFIT_23_cls-5" d="M162.1,415.59s18.29-1.9,32.11,5.19" />
      <path class="GUNDAN_RED_PANDA_OUTFIT_GUNDAN_RED_PANDA_OUTFIT_23_cls-5" d="M296,427.3s22.85-20.55,43.52-22.27" />
      <path class="GUNDAN_RED_PANDA_OUTFIT_GUNDAN_RED_PANDA_OUTFIT_23_cls-6" d="M250.24,406.73s-2.7,9.35-4.32,15.92a3.44,3.44,0,0,0-1.35-.53,4.34,4.34,0,0,0-1.68,0A53.14,53.14,0,0,1,245.55,411a28.25,28.25,0,0,0,4.68-4.25Z" />
      <path class="GUNDAN_RED_PANDA_OUTFIT_GUNDAN_RED_PANDA_OUTFIT_23_cls-6" d="M262,421.61a3.43,3.43,0,0,0-1.33.61c-1.65-6-4.27-14.27-4.66-15.5a26.11,26.11,0,0,0,4.77,3.9,52.82,52.82,0,0,1,2.91,10.93A4.16,4.16,0,0,0,262,421.61Z" />
      <path class="GUNDAN_RED_PANDA_OUTFIT_GUNDAN_RED_PANDA_OUTFIT_23_cls-6" d="M263.71,421.55c2,.35,4.27,2.18,5.65,6.18a138.1,138.1,0,0,1,4.61,18.4s-6.43,4.2-12.51,1.88c-.28-9-3-19-2.31-23.25a3.86,3.86,0,0,1,1.54-2.54,3.43,3.43,0,0,1,1.33-.61A4.16,4.16,0,0,1,263.71,421.55Z" />
      <path class="GUNDAN_RED_PANDA_OUTFIT_GUNDAN_RED_PANDA_OUTFIT_23_cls-6" d="M282.72,399.94a15.46,15.46,0,0,0-13.32-12.8c-8.82-1.35-12.42,1.62-12.42,1.62a6.52,6.52,0,0,0-4.17-1.12,6.61,6.61,0,0,0-4.13,1.37s-3.68-2.76-12.45-.89a16.18,16.18,0,0,0-13,13.58,11.39,11.39,0,0,0,10.87,13.05A18.36,18.36,0,0,0,245.55,411a28.25,28.25,0,0,0,4.68-4.25h0c.54-.64.83-1,.83-1a7.31,7.31,0,0,0,2,.42,8.59,8.59,0,0,0,2-.53s.36.45,1,1.13a26.11,26.11,0,0,0,4.77,3.9,17.71,17.71,0,0,0,11.39,3C279.29,412.87,284,406.17,282.72,399.94Zm-44.39,8c-5.38,2.35-11.41-2.43-7.67-8.55s10.73-6.45,16-5.62a15.49,15.49,0,0,0,.53,8A36.17,36.17,0,0,1,238.33,408Zm29.46-.87a34.57,34.57,0,0,1-9-5.63,15.63,15.63,0,0,0,.32-8c5.21-1.14,12.21-1.22,16.1,4.68S273.23,409.13,267.79,407.1Z" />
      <path class="GUNDAN_RED_PANDA_OUTFIT_GUNDAN_RED_PANDA_OUTFIT_23_cls-6" d="M245.92,422.65a3.71,3.71,0,0,1,1.61,2.45c.8,4.2-1.68,14.35-1.74,23.37-6,2.68-12.53-1.14-12.53-1.14a140.67,140.67,0,0,1,4.14-18.66c1.28-4.08,3.47-6,5.49-6.51a4.34,4.34,0,0,1,1.68,0A3.44,3.44,0,0,1,245.92,422.65Z" />
      <path class="GUNDAN_RED_PANDA_OUTFIT_GUNDAN_RED_PANDA_OUTFIT_23_cls-5" d="M252.81,387.64a6.61,6.61,0,0,0-4.13,1.37,4.31,4.31,0,0,0-.93,1.12,11.9,11.9,0,0,0-1.13,3.67,15.49,15.49,0,0,0,.53,8,6.49,6.49,0,0,0,3.92,3.88,7.31,7.31,0,0,0,2,.42" />
      <path class="GUNDAN_RED_PANDA_OUTFIT_GUNDAN_RED_PANDA_OUTFIT_23_cls-5" d="M250.24,406.73c.54-.64.83-1,.83-1" />
      <path class="GUNDAN_RED_PANDA_OUTFIT_GUNDAN_RED_PANDA_OUTFIT_23_cls-5" d="M248.68,389s-3.68-2.76-12.45-.89a16.18,16.18,0,0,0-13,13.58,11.39,11.39,0,0,0,10.87,13.05A18.36,18.36,0,0,0,245.55,411a28.25,28.25,0,0,0,4.68-4.25" />
      <path class="GUNDAN_RED_PANDA_OUTFIT_GUNDAN_RED_PANDA_OUTFIT_23_cls-5" d="M246.62,393.8c-5.23-.83-12.23-.5-16,5.62s2.29,10.9,7.67,8.55a36.17,36.17,0,0,0,8.82-6.15" />
      <path class="GUNDAN_RED_PANDA_OUTFIT_GUNDAN_RED_PANDA_OUTFIT_23_cls-5" d="M252.81,387.64a6.52,6.52,0,0,1,4.17,1.12,4.17,4.17,0,0,1,1,1.07,11.36,11.36,0,0,1,1.21,3.6,15.63,15.63,0,0,1-.32,8,6.8,6.8,0,0,1-3.82,4.12,8.11,8.11,0,0,1-2,.53" />
      <path class="GUNDAN_RED_PANDA_OUTFIT_GUNDAN_RED_PANDA_OUTFIT_23_cls-5" d="M257,388.76s3.6-3,12.42-1.62a15.46,15.46,0,0,1,13.32,12.8c1.26,6.23-3.43,12.93-10.53,13.68a17.71,17.71,0,0,1-11.39-3,26.11,26.11,0,0,1-4.77-3.9c-.66-.68-1-1.13-1-1.13" />
      <path class="GUNDAN_RED_PANDA_OUTFIT_GUNDAN_RED_PANDA_OUTFIT_23_cls-5" d="M259.15,393.43c5.21-1.14,12.21-1.22,16.1,4.68s-2,11-7.46,9a34.57,34.57,0,0,1-9-5.63" />
      <path class="GUNDAN_RED_PANDA_OUTFIT_GUNDAN_RED_PANDA_OUTFIT_23_cls-5" d="M242.89,422.16c-2,.47-4.21,2.43-5.49,6.51a140.67,140.67,0,0,0-4.14,18.66s6.52,3.82,12.53,1.14c.06-9,2.54-19.17,1.74-23.37a3.71,3.71,0,0,0-1.61-2.45,3.44,3.44,0,0,0-1.35-.53A4.34,4.34,0,0,0,242.89,422.16Z" />
      <path class="GUNDAN_RED_PANDA_OUTFIT_GUNDAN_RED_PANDA_OUTFIT_23_cls-5" d="M245.92,422.65c1.62-6.57,4.32-15.92,4.32-15.92h0" />
      <path class="GUNDAN_RED_PANDA_OUTFIT_GUNDAN_RED_PANDA_OUTFIT_23_cls-5" d="M245.55,411a53.14,53.14,0,0,0-2.66,11.18h0" />
      <path class="GUNDAN_RED_PANDA_OUTFIT_GUNDAN_RED_PANDA_OUTFIT_23_cls-5" d="M263.71,421.55c2,.35,4.27,2.18,5.65,6.18a138.1,138.1,0,0,1,4.61,18.4s-6.43,4.2-12.51,1.88c-.28-9-3-19-2.31-23.25a3.86,3.86,0,0,1,1.54-2.54,3.43,3.43,0,0,1,1.33-.61A4.16,4.16,0,0,1,263.71,421.55Z" />
      <path class="GUNDAN_RED_PANDA_OUTFIT_GUNDAN_RED_PANDA_OUTFIT_23_cls-5" d="M260.69,422.22c-1.65-6-4.27-14.27-4.66-15.5" />
      <path class="GUNDAN_RED_PANDA_OUTFIT_GUNDAN_RED_PANDA_OUTFIT_23_cls-5" d="M260.8,410.62a52.82,52.82,0,0,1,2.91,10.93h0" />
      <path class="GUNDAN_RED_PANDA_OUTFIT_GUNDAN_RED_PANDA_OUTFIT_23_cls-5" d="M238.79,439.39s.73-11.11,5.78-17.27A50.69,50.69,0,0,1,243.05,435" />
      <path class="GUNDAN_RED_PANDA_OUTFIT_GUNDAN_RED_PANDA_OUTFIT_23_cls-5" d="M263.85,438.14s-2.69-12.24-1.83-16.53a33.59,33.59,0,0,1,4,10" />
      <g class="GUNDAN_RED_PANDA_OUTFIT_GUNDAN_RED_PANDA_OUTFIT_23_cls-7">
        <path class="GUNDAN_RED_PANDA_OUTFIT_GUNDAN_RED_PANDA_OUTFIT_23_cls-6" d="M108.82,355.43c-.14,1.55-.24,3.09-.28,4.6a62.41,62.41,0,0,0,2.22,19.34,35.93,35.93,0,0,0,5.14,11.05l.22.28a20.75,20.75,0,0,0,2.46,2.77,14.64,14.64,0,0,0,4.7,3h0a12.33,12.33,0,0,0,3.21.77l.35,0a8.56,8.56,0,0,0,1,0,13.54,13.54,0,0,0,6.26-1.77c.31-.17.61-.36.92-.55a.76.76,0,0,0,0-.15,29.18,29.18,0,0,0-.32-3c.39-1.44.86-3.18,1.43-5.27,2.56-9.42-4-9.35-7.85-25.4a38.81,38.81,0,0,1,1.51-23.77s2.59-10.66,4.78-13.9c-1.09-3.74-5.54-1.63-5.54-1.63l-2,6.33c.6-2.74,1.14-5,1.48-6.49a11.38,11.38,0,0,0-5.36-.08c-6.48,5.49-11.74,16.21-13.78,29.16C109.17,352.28,109,353.85,108.82,355.43Z" />
        <path class="GUNDAN_RED_PANDA_OUTFIT_GUNDAN_RED_PANDA_OUTFIT_23_cls-4" d="M143.86,405.43c0-.07,0-.15-.07-.23s0-.15-.09-.23l-.11-.17,0,0s0,0,0,0l0-.06s0,0,0,0a.37.37,0,0,0-.07-.12.67.67,0,0,0-.17-.2c-.26-.29-.61-.67-1-1.11A3.43,3.43,0,0,1,142,403h0c-.16-.18-.35-.36-.53-.56l0,0c-1.07-1.1-2.4-2.43-3.79-3.75l-.85-.78c-.28-.27-.56-.52-.84-.77s-.55-.5-.82-.73l-.33-.27-.18-.15-.16-.14-.33-.26-.32-.28h0a4.78,4.78,0,0,1-.42-.34,13.2,13.2,0,0,0-2.65-1.66l-.16-.07c-.72-.3-1.6-.67-2.6-1-.22-.07-.44-.12-.67-.18l-.44-.12h-.06a.47.47,0,0,0-.16,0l-.77-.15-.56-.08-.18,0h-.44a2.27,2.27,0,0,0-.45,0,4.69,4.69,0,0,0-.53,0h-.17a5.53,5.53,0,0,0-.7.07h0q-.34,0-.69.12a5.6,5.6,0,0,0-.7.2h0a8.93,8.93,0,0,0-1.17.47l-.25.11,0,0a1.28,1.28,0,0,1-.23.14l-.4.23a.05.05,0,0,1,0,0,8,8,0,0,0-.7.49c-.19.14-.38.3-.57.47a15.12,15.12,0,0,0-1.14,1.13,11.71,11.71,0,0,0-1.05,1.38,10.6,10.6,0,0,0-.77,1.38,9.41,9.41,0,0,0-.91,4.72c0,.24,0,.49.08.71s.08.47.12.7.08.38.13.57l0,.1a3.22,3.22,0,0,0,.14.44c0,.07,0,.14,0,.2.08.21.16.4.23.59.17.39.35.76.53,1.1a9.62,9.62,0,0,0,.57.88c.1.14.19.26.29.38a1,1,0,0,0,.2.22c.54.5,3.6,3.39,7.06,6.08a43.49,43.49,0,0,0,5.31,3.61l.73.37.41.2a3.81,3.81,0,0,0,.44.15,3.54,3.54,0,0,0,.45.08,3.13,3.13,0,0,0,1.1-.11,2.91,2.91,0,0,0,.86-.44l.24-.23,4.59-4.82c0-.11-.07-.23-.09-.35a2.67,2.67,0,0,0,1-.63l0-.05.08-.09,4.5-4.71h0a2.42,2.42,0,0,0,.25-.31l.19-.33a2.25,2.25,0,0,0,.2-1A3.55,3.55,0,0,0,143.86,405.43Zm-13.3,8.06-.28-.18-.27-.18h0c-.35-.23-.71-.47-1.08-.74s-.75-.53-1.13-.82L127,411h0c-.18-.16-.38-.31-.58-.47l-1.16-.93c-.2-.15-.37-.31-.56-.46h0l-.66-.54c-.87-.75-1.67-1.46-2.34-2.07s-1-.88-1.31-1.21a4.68,4.68,0,0,1-.4-.65l0-.09a4.19,4.19,0,0,1-.25-.59,1.84,1.84,0,0,1-.09-.25.24.24,0,0,1,0-.09c0-.12-.07-.25-.1-.38a3.14,3.14,0,0,1-.08-.38,5.23,5.23,0,0,1-.06-.81,5,5,0,0,1,.23-1.48,2,2,0,0,1,.12-.37l.15-.37a6.91,6.91,0,0,1,.41-.73c.08-.13.17-.26.26-.38a6.15,6.15,0,0,1,.46-.58,5.33,5.33,0,0,1,1.93-1.47,1.82,1.82,0,0,1,.39-.14h0a6.07,6.07,0,0,1,3.65.45l.75.3c.26.1.53.2.8.32l.12,0h0a20.77,20.77,0,0,1,3.91,3.07l1,1c.7.67,1.44,1.38,2.18,2.12s1.38,1.38,2.06,2.08h0l-.07.07-1.37,1.42-3.92-3.09-.56-.44-.06-.05a2.82,2.82,0,0,0-2.67-.44l-.35.15-.33.22a1.81,1.81,0,0,0-.33.29h0a2.28,2.28,0,0,0-.6,1.33,2.36,2.36,0,0,0,.91,2.06l2.34,1.83,2.17,1.72Zm-2.38-9.5a2.28,2.28,0,0,0-.6,1.33,2.32,2.32,0,0,1,.61-1.33Z" />
        <path class="GUNDAN_RED_PANDA_OUTFIT_GUNDAN_RED_PANDA_OUTFIT_23_cls-4" d="M40.3,328.44l-1,3.28a63.61,63.61,0,0,1,3.19,8.3,30,30,0,0,1,.63,7v0c3.25,1.06,9.23,3.15,9.68,4.38s-6,3.36-9.7,4.47c-.06,5.69,0,11.11.79,13A93.21,93.21,0,0,0,51.09,382c3.27-1.13,8.77-2.9,9.92-2.24s-2.57,6.92-4.47,9.83q.39.54.84,1.08C61.74,396,69.25,400,78.53,404.45c2.27-2.46,5.85-6.08,7.13-6s1.36,6.35,1.24,10c2.9,1.4-9.36,1.42-6.26,3,8.34,4.28,15,6.53,20.69,7.62,1.28-3,3.58-7.94,4.88-8.25s3.47,5.68,4.59,9.15c2.1,0,4.09-.1,6-.25a7.31,7.31,0,0,0,6.74-5.18c-3.46-2.68-6.53-5.59-7.06-6.09a1.34,1.34,0,0,1-.2-.21,10,10,0,0,1-2-4.26,56.77,56.77,0,0,1-34.06-7.49c-12.33-7.39-5.3-17.64-12.56-28-3.36-4.78-6.85-9.73-9.23-15.25C55.73,346.81,55,340.51,56.38,335a19.5,19.5,0,0,1,1.1-3.23c-3.13-.39-5.93-.87-8.32-1.39Q44.09,329.32,40.3,328.44Z" />
        <path class="GUNDAN_RED_PANDA_OUTFIT_GUNDAN_RED_PANDA_OUTFIT_23_cls-4" d="M107.76,340.94a25.9,25.9,0,0,0,1.66,9.81c1.91,4.72,5,6.42,6.71,5.7,2.63-1.13,3.74-9.21-1.08-12.2,3.72,1.43,6.51,7.33,6.43,12.34l1,0c0-.3,0-.61,0-.93.25-6.93,2.73-19.29,4.54-27.52.6-2.74,1.14-5,1.48-6.49a11.38,11.38,0,0,0-5.36-.08,15,15,0,0,0-3.08,1l-.6.4a7.45,7.45,0,0,1-1.78.9A19.43,19.43,0,0,0,107.76,340.94Z" />
        <path class="GUNDAN_RED_PANDA_OUTFIT_GUNDAN_RED_PANDA_OUTFIT_23_cls-6" d="M119.52,323s-9-3.14-16.16,2.75c-4.9,13.26-4.44,22.05,4.55,33.12s16.19,2.43,12.92-6.9c-1.41-5.48-2.55-5.23-2.55-5.23s1.68,9.19-3.26,9.84-10.67-15.79-4.54-25A37.91,37.91,0,0,1,119.52,323Z" />
        <path class="GUNDAN_RED_PANDA_OUTFIT_GUNDAN_RED_PANDA_OUTFIT_23_cls-8" d="M131.93,403.82c.12-.59.24-1.14.34-1.66a6.71,6.71,0,0,1,1.33-.5c.71.67,1.44,1.37,2.19,2.12s1.37,1.38,2.05,2.08l-1.44,1.5Z" />
        <path class="GUNDAN_RED_PANDA_OUTFIT_GUNDAN_RED_PANDA_OUTFIT_23_cls-8" d="M130.83,409.22l2.17,1.72-2.44,2.55-.56-.36C130.28,411.85,130.56,410.53,130.83,409.22Z" />
        <path class="GUNDAN_RED_PANDA_OUTFIT_GUNDAN_RED_PANDA_OUTFIT_23_cls-8" d="M300.28,517.33a9.58,9.58,0,0,1-9.19,5.74l-.82,0a11.22,11.22,0,0,1-2.56-.57c-.48-.17-2.36-.85-5.41-2.05a449,449,0,0,1-74.57-38.75h0c-5-3.19-10.07-6.6-15.22-10.21-5.81-4.05-10.49-8.26-16.4-12.86h0c-1.77-1.36-3.52-2.76-5.29-4.19l0,0-2.56-2.06c-.7-.58-1.39-1.14-2.09-1.73-1.73-1.42-3.44-2.87-5.17-4.34l-2-1.74-.88-.77-2-1.74q-2.44-2.14-4.87-4.37c-.75-.68-1.5-1.38-2.25-2.05l-2.61-2.45c-1.15-1.09-2.3-2.19-3.43-3.29l-2.75-2.69c-.91-.9-1.83-1.81-2.73-2.73-1.83-1.83-3.63-3.69-5.42-5.58a2.91,2.91,0,0,0,.86-.44l.24-.23,4.59-4.82,1-1,0-.05.08-.09,4.5-4.71h0a2.51,2.51,0,0,0,.26-.31l.19-.33a2.25,2.25,0,0,0,.2-1,3.55,3.55,0,0,0-.06-.47c0-.07,0-.15-.07-.23s0-.15-.09-.23a1.63,1.63,0,0,0-.11-.17l0,0,0-.07s0,0,0,0a.37.37,0,0,0-.07-.12.67.67,0,0,0-.17-.2c-.26-.29-.61-.67-1-1.11A3.43,3.43,0,0,1,142,403h0c-.16-.18-.35-.36-.53-.56a9.06,9.06,0,0,1,2.68,2q4.59,4.92,9.28,9.58c5.64,5.63,11.38,10.95,17.19,16,.92.82,1.85,1.61,2.77,2.39,5.62,4.81,11.28,9.38,16.9,13.68,3.29,2.53,5.35,4.84,8.62,7.17h0q6.68,4.83,13.23,9.16a453.76,453.76,0,0,0,71.06,38.69c3.81,1.63,6.77,2.81,8.7,3.56,1.62.63,2.54,1,2.64,1C299.56,507.49,302.16,512.7,300.28,517.33Z" />
        <path class="GUNDAN_RED_PANDA_OUTFIT_GUNDAN_RED_PANDA_OUTFIT_23_cls-6" d="M124.69,409.11a67.89,67.89,0,0,1,.8-6.76c.31-1.38.88-3.21,1.45-5.4.48.18,1,.39,1.55.62l.15.05a20.6,20.6,0,0,1,3.92,3.08c.34.3.69.63,1,1a6.71,6.71,0,0,0-1.33.5c-.1.52-.22,1.07-.34,1.66l-.06-.05a2.75,2.75,0,0,0-3.68.22,2.27,2.27,0,0,0,.31,3.38l2.33,1.85c-.27,1.31-.55,2.63-.83,3.91-.95-.62-2-1.36-3-2.16C126.23,410.36,125.43,409.72,124.69,409.11Z" />
        <path class="GUNDAN_RED_PANDA_OUTFIT_GUNDAN_RED_PANDA_OUTFIT_23_cls-6" d="M112.2,380c9.31,4.15,11.9,11.17,12,11.54a8.92,8.92,0,0,0-6.22,2.36c-5.29-11.63-17.58-9.33-25.42-17.22s-5-20.34,3-26.41C86.57,365.22,102.64,375.77,112.2,380Z" />
        <path class="GUNDAN_RED_PANDA_OUTFIT_GUNDAN_RED_PANDA_OUTFIT_23_cls-6" d="M128.88,418.13a37.78,37.78,0,0,1-1.15,4.05c-.32.86-1.86,1.77-4.14,2.63-4.9,1.88-13.26,3.49-20.63,3.83-.45,0-.91,0-1.35,0-.78,0-1.54,0-2.28,0a6,6,0,0,1-.6,0,28.7,28.7,0,0,1-5.44-.62,19.93,19.93,0,0,1-3.6-1.23c-4.94-2.16-10.39-6.23-16.07-10-5.42-3.6,4.25-5.46-1.29-6.5-12.75-2.42-13.92-2.88-17.46-7.44-.24-.31-.5-.63-.76-1-2.26-3.06-5.56-8-9.11-13h0c-2.3-3.24-4.71-6.5-7-9.28-.06-.09-.13-.17-.19-.25A22.07,22.07,0,0,1,34.33,372v0a.32.32,0,0,0,0-.09c-2-6.9-2.94-16.08-3.61-23.52-.06-.67-.13-1.34-.18-2-.09-1-.17-1.89-.26-2.78,0-.58-.1-1.14-.16-1.68,0-.28-.07-.54-.09-.79,0-.52-.11-1-.17-1.46s-.07-.61-.11-.89c-.07-.58-.14-1.15-.21-1.69-.15-1.36-.28-2.6-.38-3.7a74.56,74.56,0,0,1-.42-7.85l0,0,.13,0,.38.09a1.88,1.88,0,0,0,.35.1l.21.06c.14,0,.3.09.49.13,1.78.48,5.1,1.33,10,2.47l-1,3.28s.41.85,1,2.31c.15.36.31.77.49,1.2.09.22.17.44.26.69.26.71.55,1.48.84,2.33.2.56.39,1.15.58,1.77a30.14,30.14,0,0,1,.63,7h0l.64.21,1.42.48,1.54.54c.78.29,1.56.59,2.3.89a15.2,15.2,0,0,1,3.36,1.76,1.27,1.27,0,0,1,.42.5.36.36,0,0,1,0,.27.26.26,0,0,1,0,.12.73.73,0,0,1-.09.13,2.71,2.71,0,0,1-.24.25c-.2.14-.45.32-.75.49-.09.05-.2.12-.31.17l-.41.21-.2.1a.25.25,0,0,1-.11,0,26.14,26.14,0,0,1-2.54,1l-.28.11-.42.15-1.69.58-.78.25c-.64.21-1.26.39-1.82.56,0,1.43,0,2.83,0,4.16,0,.67,0,1.33,0,2,0,.33,0,.64,0,.94,0,.9.07,1.75.13,2.52.05.52.09,1,.15,1.42s.13.83.21,1.18a5,5,0,0,0,.27.87A92.65,92.65,0,0,0,51.09,382c3.27-1.13,8.77-2.9,9.93-2.24s-2.58,6.91-4.48,9.83c.27.36.55.72.84,1.07.45.54.92,1.07,1.42,1.58,4.48,4.58,11.39,8.22,19.73,12.22.74-.81,1.63-1.75,2.54-2.63.45-.44.9-.87,1.34-1.27l.06-.05c.42-.37.83-.71,1.21-1,.12-.09.22-.18.33-.25a5.33,5.33,0,0,1,.65-.44h0l.15-.08.09,0a1,1,0,0,1,.26-.12s0,0,.08,0l.11,0a1.09,1.09,0,0,1,.3,0l.15,0a.33.33,0,0,1,.1.06.52.52,0,0,1,.11.1.75.75,0,0,1,.09.09l0,0a.48.48,0,0,1,.1.17.73.73,0,0,1,0,.12.11.11,0,0,1,0,.05,2.12,2.12,0,0,1,.11.33l0,.12a.2.2,0,0,1,0,.05,1.11,1.11,0,0,1,0,.25.63.63,0,0,1,0,.09.68.68,0,0,0,0,.14,5.89,5.89,0,0,1,.11.63c0,.12,0,.22,0,.33s0,.44.08.67c.08.87.13,1.85.14,2.82,0,.13,0,.27,0,.39s0,.28,0,.43,0,.3,0,.46v.36c0,.18,0,.39,0,.59,0,.59,0,1.14,0,1.64.46.22.54.41.35.57a.5.5,0,0,1-.24.15,2.52,2.52,0,0,1-.57.19l-.24.07-.84.17-1.29.23-1.31.21-.32.05-.61.13c-1.43.3-2.3.67-1.19,1.25A94,94,0,0,0,93.51,417a57.45,57.45,0,0,0,7.82,2.09h0c1.27-3,3.58-7.93,4.88-8.24.42-.1.9.39,1.41,1.24l.14.25a47.26,47.26,0,0,1,3,7.65c2.09,0,4.09-.08,6-.24a10.54,10.54,0,0,0,1.34-.19,8.29,8.29,0,0,0,1.7-.59c.17-.08.33-.17.49-.26a5.61,5.61,0,0,0,.88-.63,8.39,8.39,0,0,0,2.34-3.51A43.49,43.49,0,0,0,128.88,418.13Z" />
        <path class="GUNDAN_RED_PANDA_OUTFIT_GUNDAN_RED_PANDA_OUTFIT_23_cls-6" d="M115.05,397.83a9.37,9.37,0,0,0-.71,6.13,56.77,56.77,0,0,1-34.06-7.49c-12.33-7.39-5.3-17.64-12.56-28-3.36-4.78-6.85-9.73-9.23-15.25C55.73,346.81,55,340.51,56.38,335a19.5,19.5,0,0,1,1.1-3.23c2.15.27,4.46.51,6.88.71a14.56,14.56,0,0,0-1.63,3.94c-1.36,5.44.24,11,1.82,14.68,2.14,5,5.43,9.66,8.62,14.19,6.91,9.79-.53,19.46,10.61,26.14A49.5,49.5,0,0,0,115.05,397.83Z" />
        <path class="GUNDAN_RED_PANDA_OUTFIT_GUNDAN_RED_PANDA_OUTFIT_23_cls-6" d="M121,398.12c1.87-2.13,3.56-2,6-1.17-.57,2.19-1.14,4-1.45,5.4a67.89,67.89,0,0,0-.8,6.76c-1.8-1.51-3.39-3-4.32-3.84a5.42,5.42,0,0,1-.92-2,5.36,5.36,0,0,1,1-4.54A4.6,4.6,0,0,1,121,398.12Z" />
        <path class="GUNDAN_RED_PANDA_OUTFIT_GUNDAN_RED_PANDA_OUTFIT_23_cls-4" d="M62.73,336.45a14.56,14.56,0,0,1,1.63-3.94c14.55,1.14,17.86-1,32-6.49l3.88-.07,0,0c2,0,3.29-.07,3.29-.07s-4.47,10.16-3.21,17.43,9.38,23.27,16.92,20.52c3-1.08,4.21-4,4.25-7.22l1,0c0,5.51.69,10.79,2.69,14.6,3.93,7.49,3.8,15,2.75,21a13.23,13.23,0,0,0-3.73-.63c-.13-.37-2.72-7.39-12-11.54-9.56-4.27-25.63-14.82-16.56-29.73-8,6.07-10.91,18.53-3,26.41s20.13,5.59,25.42,17.22a12,12,0,0,0-1.13,1.13,11.28,11.28,0,0,0-1.83,2.76,49.5,49.5,0,0,1-31.27-6.37c-11.14-6.68-3.7-16.35-10.61-26.14-3.19-4.53-6.48-9.22-8.62-14.19C63,347.43,61.37,341.89,62.73,336.45Z" />
        <path class="GUNDAN_RED_PANDA_OUTFIT_GUNDAN_RED_PANDA_OUTFIT_23_cls-5" d="M141.42,402.39l0,0a9.06,9.06,0,0,1,2.68,2q4.59,4.92,9.28,9.58c5.64,5.63,11.38,10.95,17.19,16,.92.82,1.85,1.61,2.77,2.39,5.62,4.81,11.28,9.38,16.9,13.68,3.29,2.53,5.35,4.84,8.62,7.17" />
        <path class="GUNDAN_RED_PANDA_OUTFIT_GUNDAN_RED_PANDA_OUTFIT_23_cls-5" d="M170.78,454.36l-2.56-2.06c-.7-.58-1.39-1.14-2.09-1.73-1.73-1.42-3.44-2.87-5.17-4.34l-2-1.74-.88-.77-2-1.74q-2.44-2.14-4.87-4.37c-.75-.68-1.5-1.38-2.25-2.05l-2.61-2.45c-1.15-1.09-2.3-2.18-3.43-3.29-.92-.89-1.84-1.78-2.75-2.69s-1.83-1.81-2.73-2.73c-1.83-1.83-3.63-3.69-5.42-5.58" />
        <path class="GUNDAN_RED_PANDA_OUTFIT_GUNDAN_RED_PANDA_OUTFIT_23_cls-5" d="M132.27,402.16a6.71,6.71,0,0,1,1.33-.5" />
        <path class="GUNDAN_RED_PANDA_OUTFIT_GUNDAN_RED_PANDA_OUTFIT_23_cls-5" d="M130,413.13c.28-1.28.56-2.6.83-3.91" />
        <path class="GUNDAN_RED_PANDA_OUTFIT_GUNDAN_RED_PANDA_OUTFIT_23_cls-5" d="M100.23,325.93c2,0,3.29-.07,3.29-.07s2.83-2.61,5.48-3a32,32,0,0,1,10.47,0" />
        <path class="GUNDAN_RED_PANDA_OUTFIT_GUNDAN_RED_PANDA_OUTFIT_23_cls-5" d="M64.36,332.51c14.55,1.14,17.86-1,32-6.49l3.88-.07" />
        <path class="GUNDAN_RED_PANDA_OUTFIT_GUNDAN_RED_PANDA_OUTFIT_23_cls-5" d="M34.31,372s0,0,0-.09c-3-10.05-3.55-24.9-4.48-32.21a104.09,104.09,0,0,1-1.12-14.12s3.75,1.07,11.6,2.9q3.8.87,8.86,2c2.39.52,5.19,1,8.32,1.39" />
        <path class="GUNDAN_RED_PANDA_OUTFIT_GUNDAN_RED_PANDA_OUTFIT_23_cls-5" d="M128.88,418.13a37.78,37.78,0,0,1-1.15,4.05c-.32.86-1.86,1.77-4.14,2.63-4.9,1.88-13.26,3.49-20.63,3.83-.45,0-.91,0-1.35,0-.78,0-1.54,0-2.28,0a6,6,0,0,1-.6,0,28.7,28.7,0,0,1-5.44-.62,19.93,19.93,0,0,1-3.6-1.23c-4.94-2.16-10.39-6.23-16.07-10-5.42-3.6,4.25-5.46-1.29-6.5-12.75-2.42-13.92-2.88-17.46-7.44-.24-.31-.5-.63-.76-1-2.26-3.06-5.56-8-9.11-13h0c-2.3-3.24-4.71-6.5-7-9.28-.06-.09-.13-.17-.19-.25A22.07,22.07,0,0,1,34.33,372" />
        <path class="GUNDAN_RED_PANDA_OUTFIT_GUNDAN_RED_PANDA_OUTFIT_23_cls-5" d="M131.93,403.82c.12-.59.24-1.14.34-1.66" />
        <path class="GUNDAN_RED_PANDA_OUTFIT_GUNDAN_RED_PANDA_OUTFIT_23_cls-5" d="M133.79,395.26h0l.92-3.44c.38-1.46.86-3.19,1.43-5.29,2.56-9.41-4-9.34-7.85-25.4a38.74,38.74,0,0,1,1.51-23.75l0-.13c.29-1.17,2.69-10.74,4.75-13.78-1.09-3.74-5.54-1.63-5.54-1.63l-2,6.33-1.32,4.28a131,131,0,0,0-2.52,13.84h0a90.55,90.55,0,0,0-.71,9.39c0,.33,0,.63,0,.94,0,5.5.69,10.77,2.7,14.58,3.93,7.5,3.8,15,2.75,21" />
        <path class="GUNDAN_RED_PANDA_OUTFIT_GUNDAN_RED_PANDA_OUTFIT_23_cls-5" d="M43.09,347a30,30,0,0,0-.63-7,63.61,63.61,0,0,0-3.19-8.3l1-3.28" />
        <path class="GUNDAN_RED_PANDA_OUTFIT_GUNDAN_RED_PANDA_OUTFIT_23_cls-5" d="M51.09,382a93.21,93.21,0,0,1-7.23-13.09c-.82-1.93-.85-7.35-.79-13" />
        <path class="GUNDAN_RED_PANDA_OUTFIT_GUNDAN_RED_PANDA_OUTFIT_23_cls-5" d="M101.33,419.05C95.64,418,89,415.71,80.64,411.43c-3.1-1.59,9.16-1.61,6.26-3" />
        <path class="GUNDAN_RED_PANDA_OUTFIT_GUNDAN_RED_PANDA_OUTFIT_23_cls-5" d="M123.57,414.52a7.31,7.31,0,0,1-6.74,5.18c-1.94.15-3.93.27-6,.25" />
        <path class="GUNDAN_RED_PANDA_OUTFIT_GUNDAN_RED_PANDA_OUTFIT_23_cls-5" d="M126.94,397c-.57,2.19-1.14,4-1.45,5.4a67.89,67.89,0,0,0-.8,6.76" />
        <path class="GUNDAN_RED_PANDA_OUTFIT_GUNDAN_RED_PANDA_OUTFIT_23_cls-5" d="M78.53,404.45C69.25,400,61.74,396,57.38,390.66q-.45-.54-.84-1.08" />
        <path class="GUNDAN_RED_PANDA_OUTFIT_GUNDAN_RED_PANDA_OUTFIT_23_cls-5" d="M110.8,420c-1.12-3.47-3.25-9.47-4.59-9.15s-3.6,5.26-4.88,8.25" />
        <path class="GUNDAN_RED_PANDA_OUTFIT_GUNDAN_RED_PANDA_OUTFIT_23_cls-5" d="M86.9,408.42c.12-3.61.15-9.88-1.24-10s-4.86,3.53-7.13,6" />
        <path class="GUNDAN_RED_PANDA_OUTFIT_GUNDAN_RED_PANDA_OUTFIT_23_cls-5" d="M56.54,389.58c1.9-2.91,5.74-9.1,4.47-9.83s-6.65,1.11-9.92,2.24" />
        <path class="GUNDAN_RED_PANDA_OUTFIT_GUNDAN_RED_PANDA_OUTFIT_23_cls-5" d="M43.09,347v0c3.25,1.06,9.23,3.15,9.68,4.38s-6,3.36-9.7,4.47" />
        <line class="GUNDAN_RED_PANDA_OUTFIT_GUNDAN_RED_PANDA_OUTFIT_23_cls-5" x1="100.21" y1="325.95" x2="100.23" y2="325.93" />
        <path class="GUNDAN_RED_PANDA_OUTFIT_GUNDAN_RED_PANDA_OUTFIT_23_cls-5" d="M34.31,372s0,0,0,0" />
        <path class="GUNDAN_RED_PANDA_OUTFIT_GUNDAN_RED_PANDA_OUTFIT_23_cls-5" d="M137.61,413c0,.11.07.24.09.35" />
        <path class="GUNDAN_RED_PANDA_OUTFIT_GUNDAN_RED_PANDA_OUTFIT_23_cls-5" d="M135.12,396.36c0-.44-.05-.92-.08-1.37a.37.37,0,0,0,0-.15c-.07-1.06-.16-2.06-.32-3" />
        <path class="GUNDAN_RED_PANDA_OUTFIT_GUNDAN_RED_PANDA_OUTFIT_23_cls-5" d="M114.34,404a56.77,56.77,0,0,1-34.06-7.49c-12.33-7.39-5.3-17.64-12.56-28-3.36-4.78-6.85-9.73-9.23-15.25C55.73,346.81,55,340.51,56.38,335a19.5,19.5,0,0,1,1.1-3.23c2.15.27,4.46.51,6.88.71a14.56,14.56,0,0,0-1.63,3.94c-1.36,5.44.24,11,1.82,14.68,2.14,5,5.43,9.66,8.62,14.19,6.91,9.79-.53,19.46,10.61,26.14a49.5,49.5,0,0,0,31.27,6.37" />
        <path class="GUNDAN_RED_PANDA_OUTFIT_GUNDAN_RED_PANDA_OUTFIT_23_cls-5" d="M138.65,412.35l-1,1-4.59,4.82-.24.23a2.91,2.91,0,0,1-.86.44,3.13,3.13,0,0,1-1.1.11,3.54,3.54,0,0,1-.45-.08l-.44-.14-.41-.21-.73-.37a43.49,43.49,0,0,1-5.31-3.61c-3.46-2.69-6.52-5.58-7.06-6.08a1,1,0,0,1-.2-.22c-.1-.12-.19-.24-.29-.38a9.62,9.62,0,0,1-.57-.88c-.18-.34-.36-.71-.53-1.1-.07-.19-.15-.38-.23-.59,0-.06,0-.13,0-.2a3.22,3.22,0,0,1-.14-.44l0-.1c0-.19-.1-.38-.14-.57s-.08-.46-.11-.7-.06-.47-.08-.71a9.41,9.41,0,0,1,.91-4.72,10.6,10.6,0,0,1,.77-1.38,11.71,11.71,0,0,1,1.05-1.38,15.12,15.12,0,0,1,1.14-1.13c.19-.17.38-.33.57-.47s.4-.3.59-.43l.11-.06s0,0,0,0l.4-.23.28-.16.25-.11a4,4,0,0,1,.47-.22h0l.68-.24h0a4.29,4.29,0,0,1,.7-.2q.34-.07.69-.12h0a5.53,5.53,0,0,1,.7-.07h.17a4.69,4.69,0,0,1,.53,0,2.27,2.27,0,0,1,.45,0h.44l.18,0,.56.08.77.15a.47.47,0,0,1,.16,0h.06l.44.12c.23.06.45.11.67.18,1,.31,1.88.68,2.6,1l.16.07a13.2,13.2,0,0,1,2.65,1.66,4.71,4.71,0,0,0,.42.33h0l.65.54.16.14.18.15.31.28.84.72c.28.25.56.5.84.77l.85.78c1.39,1.32,2.72,2.65,3.79,3.75l0,0c.18.2.37.38.53.56h0a3.43,3.43,0,0,0,.26.27c.42.44.77.82,1,1.11a.67.67,0,0,1,.17.2.37.37,0,0,1,.07.12s0,.05.06.08,0,0,0,0a1.48,1.48,0,0,1,.13.21c0,.08.06.16.09.23s.05.16.07.23a3.55,3.55,0,0,1,.06.47,2.25,2.25,0,0,1-.2,1l-.19.33a2.51,2.51,0,0,1-.26.31h0l-4.5,4.71" />
        <path class="GUNDAN_RED_PANDA_OUTFIT_GUNDAN_RED_PANDA_OUTFIT_23_cls-5" d="M133,410.94l-2.44,2.55-.56-.36c-.95-.62-2-1.36-3-2.16-.78-.61-1.58-1.25-2.32-1.86-1.8-1.51-3.39-3-4.32-3.84a5.42,5.42,0,0,1-.92-2,5.36,5.36,0,0,1,1-4.54,4.6,4.6,0,0,1,.46-.57c1.87-2.13,3.56-2,6-1.17.48.18,1,.39,1.55.62l.15.05a20.6,20.6,0,0,1,3.92,3.08c.34.3.69.63,1,1,.71.67,1.44,1.37,2.19,2.12s1.37,1.38,2.05,2.08l-1.44,1.5" />
        <path class="GUNDAN_RED_PANDA_OUTFIT_GUNDAN_RED_PANDA_OUTFIT_23_cls-5" d="M133,410.94l2,1.59a2.87,2.87,0,0,0,2.6.45,2.54,2.54,0,0,0,1-.63l0-.05.08-.09a2.28,2.28,0,0,0-.39-3.29l-2-1.56-4.47-3.54-.06-.05a2.75,2.75,0,0,0-3.68.22,2.27,2.27,0,0,0,.31,3.38l2.33,1.85Z" />
        <path class="GUNDAN_RED_PANDA_OUTFIT_GUNDAN_RED_PANDA_OUTFIT_23_cls-5" d="M117.73,323.91a19.46,19.46,0,0,0-10,17c0,12.07,5.77,16.61,8.39,15.5s3.74-9.21-1.08-12.19c3.72,1.43,6.5,7.32,6.42,12.33,0,3.25-1.28,6.15-4.25,7.22-7.54,2.75-15.65-13.26-16.92-20.52s3.21-17.43,3.21-17.43" />
        <path class="GUNDAN_RED_PANDA_OUTFIT_GUNDAN_RED_PANDA_OUTFIT_23_cls-5" d="M124.23,391.59h0c-.13-.37-2.72-7.39-12-11.54-9.56-4.27-25.63-14.82-16.56-29.73-8,6.07-10.91,18.53-3,26.41s20.13,5.59,25.42,17.22" />
        <g class="GUNDAN_RED_PANDA_OUTFIT_GUNDAN_RED_PANDA_OUTFIT_23_cls-9">
          <path d="M299.62,518.53s-35.16-12-64.78-30.65-97.19-74-97.19-74l-5.06,4.84s43.2,43.11,76.4,63.08c-24.2-18.64-31.09-29.72-31.09-29.72s44.61,34.21,59.77,44.68,44.63,23.68,44.63,23.68,9.55,4.22,13.21,2.18S299.62,518.53,299.62,518.53Z" />
        </g>
        <path class="GUNDAN_RED_PANDA_OUTFIT_GUNDAN_RED_PANDA_OUTFIT_23_cls-5" d="M117.74,323.91a17.76,17.76,0,0,1,2.38-1.3,12.37,12.37,0,0,1,8.44-.94c.31.09.48.16.48.16" />
        <path class="GUNDAN_RED_PANDA_OUTFIT_GUNDAN_RED_PANDA_OUTFIT_23_cls-10" d="M153.4,414l-10.49,15.81-2.75-2.69c-.91-.9-1.83-1.81-2.73-2.73-1.83-1.83-3.63-3.69-5.42-5.58a3.13,3.13,0,0,1-1.1.11,3.54,3.54,0,0,1-.45-.08l-.44-.14-.41-.21-.73-.37a37.78,37.78,0,0,1-1.15,4.05c-.32.86-1.86,1.77-4.14,2.63-4.9,1.88-13.26,3.49-20.63,3.83-.45,0-.91,0-1.35,0-.78,0-1.54,0-2.28,0a6,6,0,0,1-.6,0,28.7,28.7,0,0,1-5.44-.62,19.93,19.93,0,0,1-3.6-1.23c-4.94-2.16-10.39-6.23-16.07-10-5.42-3.6,4.25-5.46-1.29-6.5-12.75-2.42-13.92-2.88-17.46-7.44-.24-.31-.5-.63-.76-1-2.26-3.06-5.56-8-9.11-13a58.52,58.52,0,0,0,13.8,3.34,48.92,48.92,0,0,0,22.44-2.61,56.33,56.33,0,0,0,16.23-9.34A70.08,70.08,0,0,0,103.3,375a91.83,91.83,0,0,0,9.61-11.47l.14-.2a126.64,126.64,0,0,0,7.54-12.06h0l0,0c.88-1.59,1.76-3.23,2.62-4.93h0c.16-.31.33-.61.48-.94h0c.62-1.24,1.23-2.52,1.85-3.83,1.48-1.61,2.89-3,4.25-4.26l0,.13a38.74,38.74,0,0,0-1.51,23.75c3.84,16.06,10.41,16,7.85,25.4-.57,2.1-1,3.83-1.43,5.29.16,1,.25,2,.32,3a.37.37,0,0,1,0,.15c0,.45.05.93.08,1.37.27.23.55.47.82.73s.56.5.84.77l.85.78c1.39,1.32,2.72,2.65,3.79,3.75l0,0a9.06,9.06,0,0,1,2.68,2Q148.71,409.35,153.4,414Z" />
      </g>
    </g>
  </g>
</svg>