<svg xmlns="http://www.w3.org/2000/svg" viewBox="0 0 432 432">
  <defs>
    <style>.GUNDAN_RED_PANDA_OUTFIT_GUNDAN_RED_PANDA_OUTFIT_38_cls-1{isolation:isolate;}.GUNDAN_RED_PANDA_OUTFIT_GUNDAN_RED_PANDA_OUTFIT_38_cls-2,.GUNDAN_RED_PANDA_OUTFIT_GUNDAN_RED_PANDA_OUTFIT_38_cls-5{fill:none;stroke:#000;stroke-linecap:round;stroke-linejoin:round;}.GUNDAN_RED_PANDA_OUTFIT_GUNDAN_RED_PANDA_OUTFIT_38_cls-2{stroke-width:2.28px;}.GUNDAN_RED_PANDA_OUTFIT_GUNDAN_RED_PANDA_OUTFIT_38_cls-3{fill:#757551;}.GUNDAN_RED_PANDA_OUTFIT_GUNDAN_RED_PANDA_OUTFIT_38_cls-4{fill:#fff;}.GUNDAN_RED_PANDA_OUTFIT_GUNDAN_RED_PANDA_OUTFIT_38_cls-5{stroke-width:1.55px;}.GUNDAN_RED_PANDA_OUTFIT_GUNDAN_RED_PANDA_OUTFIT_38_cls-6{fill:#c24d3a;}.GUNDAN_RED_PANDA_OUTFIT_GUNDAN_RED_PANDA_OUTFIT_38_cls-7{fill:#191813;}.GUNDAN_RED_PANDA_OUTFIT_GUNDAN_RED_PANDA_OUTFIT_38_cls-8{fill:#22211b;}.GUNDAN_RED_PANDA_OUTFIT_GUNDAN_RED_PANDA_OUTFIT_38_cls-9{fill:#492a77;}.GUNDAN_RED_PANDA_OUTFIT_GUNDAN_RED_PANDA_OUTFIT_38_cls-10{fill:#535456;opacity:0.4;mix-blend-mode:multiply;}.GUNDAN_RED_PANDA_OUTFIT_GUNDAN_RED_PANDA_OUTFIT_38_cls-11{fill:#ad6863;}.GUNDAN_RED_PANDA_OUTFIT_GUNDAN_RED_PANDA_OUTFIT_38_cls-12{fill:#666662;}.GUNDAN_RED_PANDA_OUTFIT_GUNDAN_RED_PANDA_OUTFIT_38_cls-13{fill:#bf0b54;}</style>
  </defs>
  <g class="GUNDAN_RED_PANDA_OUTFIT_GUNDAN_RED_PANDA_OUTFIT_38_cls-1">
    <g id="outfit">
      <path class="GUNDAN_RED_PANDA_OUTFIT_GUNDAN_RED_PANDA_OUTFIT_38_cls-2" d="M230.26,372.11a41.31,41.31,0,0,1,17.11,17,38.83,38.83,0,0,1,4.71,18.5A35.65,35.65,0,0,1,251,417.71" />
      <path class="GUNDAN_RED_PANDA_OUTFIT_GUNDAN_RED_PANDA_OUTFIT_38_cls-2" d="M248,389.52a23.31,23.31,0,0,1,10.72-14.82" />
      <path class="GUNDAN_RED_PANDA_OUTFIT_GUNDAN_RED_PANDA_OUTFIT_38_cls-3" d="M268,433.78H248.21c-50.49-10-101.62-52.08-101.62-52.08a15.24,15.24,0,0,0-.36-3.27,71.59,71.59,0,0,0,1.61-7.15c.33-.12,7.52-2.74,19.3,7.46,12.05,10.43,9.73,20.66,24.52,24,8.57,1.9,15.9-1.67,24.76-2.17,2.52-.13,4.76-.25,7-.34C223.37,400.19,256.39,414.74,268,433.78Z" />
      <path class="GUNDAN_RED_PANDA_OUTFIT_GUNDAN_RED_PANDA_OUTFIT_38_cls-4" d="M244.48,414.6a166.55,166.55,0,0,1-15.1,10.87l-1.67-1.26c-8.5-6.43-18.33-14.63-26-21.34a569.09,569.09,0,0,1-54-54.8c-3-3.47-4.7-4.06-6.49-5.3a13.51,13.51,0,0,1-3-2.81c-1-1.24-2-2.44-2.87-3.57-4-5.05-6.94-8.89-8.59-11.15-.28-.37-.51-.69-.72-1l.18-.26h0l4.28-6.47a4.75,4.75,0,0,1,2.08,1.12,37.12,37.12,0,0,1,3.53,3.79c3.37-3.35,9.06-2.69,10.19-2.53,1,1.32,2.12,2.77,3.37,4.35h0c10.78,13.65,25.44,28,46.54,48.66,9.36,9.2,19.52,18.44,30.28,27.19,1.85,1.5,3.71,3,5.6,4.47C235.79,407.4,240.78,411.92,244.48,414.6Z" />
      <path class="GUNDAN_RED_PANDA_OUTFIT_GUNDAN_RED_PANDA_OUTFIT_38_cls-4" d="M321.25,326.46c-.18.84-.38,1.67-.59,2.51-1.49,6-4.36,12.83-6.45,18.49-11.91,32.16-34.46,61.2-51.62,76.3-1.19,1.05-2.37,2-3.52,3A172.19,172.19,0,0,1,245,437c-.37.24-.73.49-1.11.71H207.11a129.65,129.65,0,0,0,20.2-10.53A170.57,170.57,0,0,0,243.14,416c1.72-1.35,3.43-2.71,5.13-4.1,9.09-7.37,20.27-12.75,28-22.8,7-9.05,12.72-22.35,17.12-36,.07-.21.13-.41.19-.62a139,139,0,0,0,5.77-29.32c.07-.77.15-1.55.22-2.35l7-1.23c3.42.82,7.33.94,9.59,6.4C316.22,326,317.75,324.15,321.25,326.46Z" />
      <path class="GUNDAN_RED_PANDA_OUTFIT_GUNDAN_RED_PANDA_OUTFIT_38_cls-5" d="M136.2,322.43c3.37-3.35,9.06-2.69,10.19-2.53l.2,0,3.17,4.32h0c10.78,13.65,25.44,28,46.54,48.66,9.36,9.2,19.52,18.44,30.28,27.19,1.85,1.5,3.71,3,5.6,4.47,3.6,2.82,8.59,7.34,12.29,10" />
      <path class="GUNDAN_RED_PANDA_OUTFIT_GUNDAN_RED_PANDA_OUTFIT_38_cls-5" d="M126.13,324.26c6.59,9.16,48.94,60.86,103.26,101.21" />
      <path class="GUNDAN_RED_PANDA_OUTFIT_GUNDAN_RED_PANDA_OUTFIT_38_cls-5" d="M316.22,325.73c-2.26-5.28-6.17-5.33-9.59-6.12a10.61,10.61,0,0,0-7,1.23c-.08.76-.16,1.51-.26,2.25a153.06,153.06,0,0,1-5.73,28.33c-.06.19-.12.39-.19.59a112,112,0,0,1-14.84,30.81c-7.82,11.26-18.89,19.74-28.35,27.36-2.77,2.24-5.57,4.41-8.35,6.54a171.09,171.09,0,0,1-15.84,10.8c-4.34,2.61-8.22,4.68-11.39,6.26-5.46,2.7-8.81,3.92-8.81,3.92H242.6l1.1-.68a171.38,171.38,0,0,0,14.11-9.93c2.09-1.63,4.21-3.36,6.35-5.21,18.52-15.9,40.55-42,50-75.42a162.67,162.67,0,0,0,3.41-16.06" />
      <path class="GUNDAN_RED_PANDA_OUTFIT_GUNDAN_RED_PANDA_OUTFIT_38_cls-6" d="M223.37,400.19c3.11-.12,6.13-.16,9.71,0h0a113.31,113.31,0,0,1,18.14,10.67,4.79,4.79,0,0,1,3.75-1.77,4.66,4.66,0,0,1,4.75,4.55,4.42,4.42,0,0,1-1.15,3,85.41,85.41,0,0,1,8.07,7.88,4.78,4.78,0,0,1,3-1.07,4.67,4.67,0,0,1,4.75,4.56,4.48,4.48,0,0,1-2.13,3.8q.65,1,1.26,2H268C256.39,414.74,223.37,400.19,223.37,400.19Z" />
      <path class="GUNDAN_RED_PANDA_OUTFIT_GUNDAN_RED_PANDA_OUTFIT_38_cls-7" d="M248.21,433.78H190.75c-22.18-9.52-43.07-24.39-58.09-36.54a16.19,16.19,0,0,0,3.89-1.06,15.68,15.68,0,0,0,10-14.48S197.72,423.78,248.21,433.78Z" />
      <path class="GUNDAN_RED_PANDA_OUTFIT_GUNDAN_RED_PANDA_OUTFIT_38_cls-8" d="M248.21,433.78H199.77a311,311,0,0,1-63.22-37.6,15.68,15.68,0,0,0,10-14.48S197.72,423.78,248.21,433.78Z" />
      <path class="GUNDAN_RED_PANDA_OUTFIT_GUNDAN_RED_PANDA_OUTFIT_38_cls-9" d="M389.38,422.69a28.25,28.25,0,0,1-10.67,11.09H273.54c-.39-.67-.81-1.33-1.25-2a4.51,4.51,0,0,0,2.13-3.81,4.66,4.66,0,0,0-4.75-4.56,4.88,4.88,0,0,0-3,1.06c-.79-.89-1.62-1.77-2.47-2.62l-.21-.22h0c-.45-.46-.91-.91-1.36-1.35-1.32-1.28-2.67-2.51-4-3.67a4.42,4.42,0,0,0,1.15-3A4.67,4.67,0,0,0,255,409.1a4.8,4.8,0,0,0-3.75,1.77l-1-.69c-.66-.47-1.33-.92-2-1.35a109.63,109.63,0,0,0-15.19-8.62h0c-3.58-.16-6.61-.13-9.71,0-2.2.09-4.43.21-7,.34-8.86.5-16.19,4.06-24.76,2.16-14.79-3.29-12.47-13.52-24.52-23.95-11.78-10.2-19-7.59-19.3-7.46a69.07,69.07,0,0,0-1.47-29.57c9,3.58,22.93,11.15,37.85,27a36.84,36.84,0,0,1,7.41,2.18,60,60,0,0,1,16.13,9.52c11.09,9.07,23.24,12.32,42.71,10.8.38,0,.75-.05,1.13-.08q2.64-.22,5.47-.56A57.3,57.3,0,0,0,276,384.33c.88-.48,1.75-1,2.64-1.51,2.51-1.5,5.05-3.15,7.59-4.9,0,0,0,0,0,0,.49-.64,13-17,19.26-27.5,4.82-8.1,8.52-19,10-22.78.48-1.2.74-1.89.74-1.89s1.53-1.84,5,.39a49.93,49.93,0,0,1,4.82,3.56c7.22,5.84,19.72,1.37,21.1,10.56a24.1,24.1,0,0,1,.22,3c1.63.7,3.11,1.35,4.46,2h0c9.52,4.47,9.84,13.12,15.12,23.19,6,11.5,10.48,14.77,10.48,19.63a22.59,22.59,0,0,0-5.3,1.36,57,57,0,0,1,8,16.48C382.59,414.82,386.79,421.14,389.38,422.69Z" />
      <path class="GUNDAN_RED_PANDA_OUTFIT_GUNDAN_RED_PANDA_OUTFIT_38_cls-10" d="M325,363.93s-4.56,13.35-17.11,29.35S278.72,410.15,268,409.11a110.68,110.68,0,0,0-19.39-.08,111.33,111.33,0,0,0-15.49-8.82h0c4.15.21,9.06.68,15.78,1.61,19.42,2.69,42.14,3.42,61-18A173.14,173.14,0,0,0,325,363.93Z" />
      <path class="GUNDAN_RED_PANDA_OUTFIT_GUNDAN_RED_PANDA_OUTFIT_38_cls-10" d="M380,430.73l-4.9,3H273.55q-.62-1-1.26-2a4.49,4.49,0,0,0,2.13-3.8,4.67,4.67,0,0,0-4.75-4.56,4.78,4.78,0,0,0-3,1.07c-.88-1-1.77-1.93-2.69-2.85h0s34.92-19,57.87-14.77,37.25,14.78,55.05,11.05c-16.83,7.92-39.81-3.31-56.26-2.28s-21.15.55-28,8.41c22.26-4.73,25.75.82,52.73,5.42C370.28,433.74,379.07,431.14,380,430.73Z" />
      <path class="GUNDAN_RED_PANDA_OUTFIT_GUNDAN_RED_PANDA_OUTFIT_38_cls-11" d="M147.84,371.28a68.73,68.73,0,0,1-1.61,7.14,15.41,15.41,0,0,0-4.68-8.05c1.85-14.2,1.6-20.61-3.24-30.41-.27-.54-.55-1.09-.84-1.63s-.68-1.23-1-1.84a49.2,49.2,0,0,0-9.69-12,2.91,2.91,0,0,1-.44-.49h0a3.44,3.44,0,0,1-.53-.83,4,4,0,0,1-.18-2.78,2.25,2.25,0,0,1,.22-.58,3,3,0,0,1,.24-.47,3.54,3.54,0,0,1,.32-.44,2.57,2.57,0,0,1,.35-.39,3.91,3.91,0,0,1,.44-.37l0,0,0,0a1.29,1.29,0,0,1,.16-.09h0a2.23,2.23,0,0,1,.33-.2,2.67,2.67,0,0,1,.34-.15,1.68,1.68,0,0,1,.32-.09s0,0,0,0h0l.2,0a1.29,1.29,0,0,1,.4-.08,2.69,2.69,0,0,1,.4,0,4.21,4.21,0,0,1,.62,0,4.68,4.68,0,0,1,.54.1,4.75,4.75,0,0,1,2.08,1.12,37.12,37.12,0,0,1,3.53,3.79,58.66,58.66,0,0,1,5.73,8.49h0c1,1.82,1.68,2.89,2.17,3.87.06.13.13.25.18.37s.24.52.35.79l.18.46a1.58,1.58,0,0,1,.09.26,1.69,1.69,0,0,1,.1.27c.18.54.38,1.17.6,1.94,0,.13.07.26.11.4a3,3,0,0,1,.09.32c0,.16.09.31.13.47l.22.78.22.85c.55,2.05,1,4.18,1.4,6.36.14.81.27,1.62.37,2.45A67.86,67.86,0,0,1,147.84,371.28Z" />
      <path class="GUNDAN_RED_PANDA_OUTFIT_GUNDAN_RED_PANDA_OUTFIT_38_cls-8" d="M146.59,381.7a15.94,15.94,0,0,1-13.93,15.54,17.57,17.57,0,0,1-2.42.16A16.58,16.58,0,0,1,118.9,393a15.69,15.69,0,0,1-4-5.84,15.22,15.22,0,0,1-1-5.46,15.57,15.57,0,0,1,8.23-13.62,16.82,16.82,0,0,1,19.41,2.29,15.42,15.42,0,0,1,4.69,8.06A15.24,15.24,0,0,1,146.59,381.7Z" />
      <path class="GUNDAN_RED_PANDA_OUTFIT_GUNDAN_RED_PANDA_OUTFIT_38_cls-11" d="M145.6,380a13.65,13.65,0,0,1-11.92,13.3,15.79,15.79,0,0,1-2.08.14,14.18,14.18,0,0,1-9.7-3.77,13.38,13.38,0,0,1-3.42-5,13,13,0,0,1-.87-4.67,13.33,13.33,0,0,1,7-11.66,14.42,14.42,0,0,1,16.62,2,13.21,13.21,0,0,1,4,6.9A13,13,0,0,1,145.6,380Z" />
      <path class="GUNDAN_RED_PANDA_OUTFIT_GUNDAN_RED_PANDA_OUTFIT_38_cls-11" d="M118.9,393c-.05.13-.1.25-.14.38a76.17,76.17,0,0,1-7.67-1.07,74.88,74.88,0,0,1-21.75-7.74,76.39,76.39,0,0,1-15.11-10.68c-9.31-8.43-15-17.69-17.11-23.83a4.1,4.1,0,0,1,1.37-4.65,4.32,4.32,0,0,1,3.34-.72A4.44,4.44,0,0,1,64.3,346a4.13,4.13,0,0,1,.88,1.48c3.27,10.25,11.61,21.82,25.26,30.17a76.93,76.93,0,0,0,24.46,9.52h0A15.69,15.69,0,0,0,118.9,393Z" />
      <path class="GUNDAN_RED_PANDA_OUTFIT_GUNDAN_RED_PANDA_OUTFIT_38_cls-8" d="M97.3,400.46a112.35,112.35,0,0,0,18.62,3.2,59.23,59.23,0,0,0-.67,12.14,124.82,124.82,0,0,1-22.37-3.28C93.87,410,95.5,405.63,97.3,400.46Z" />
      <path class="GUNDAN_RED_PANDA_OUTFIT_GUNDAN_RED_PANDA_OUTFIT_38_cls-3" d="M190.75,433.78h-72.3a67.58,67.58,0,0,1-2.24-9.12v0c-.13-.72-.25-1.46-.34-2.22a64.39,64.39,0,0,1-.62-6.61,59.23,59.23,0,0,1,.67-12.14c0-.26.09-.51.14-.77v0a50.52,50.52,0,0,1,1.9-7.39c.24-.69.5-1.4.8-2.1l.06-.18c0-.07.05-.14.08-.2a16.35,16.35,0,0,0,7.31,3.92,16.78,16.78,0,0,0,4,.48,17.57,17.57,0,0,0,2.42-.16C147.68,409.39,168.57,424.26,190.75,433.78Z" />
      <path class="GUNDAN_RED_PANDA_OUTFIT_GUNDAN_RED_PANDA_OUTFIT_38_cls-11" d="M97.3,400.46c-1.8,5.17-3.43,9.5-4.42,12.06a6.48,6.48,0,0,1-.23.63,2.65,2.65,0,0,1-2.9,1.59,66.94,66.94,0,0,1-14.58-4.15,2.46,2.46,0,0,1-1.31-3.23l.12-.27c.77-1.8,1.51-3.45,2.2-5l3.7,1.27c-1,2.14-1.86,4.12-2.28,4.9,3.59,1.16,7.58,2.33,11.82,3.4,1.08-2.05,4.64-12.07,4.64-12.07-3.9-1.08-7.6-2.26-11-3.45,0,0-.78,1.79-1.76,4l-3.66-1.25c.75-1.6,1.4-2.95,1.93-4,.14-.3.28-.57.41-.83a2.65,2.65,0,0,1,3.28-1.25c3,1.1,8.3,3,12.42,4.2a2.49,2.49,0,0,1,1.71,3.19Z" />
      <path class="GUNDAN_RED_PANDA_OUTFIT_GUNDAN_RED_PANDA_OUTFIT_38_cls-12" d="M111.09,392.31a76.17,76.17,0,0,0,7.67,1.07c-.3.7-.56,1.41-.8,2.1a50.52,50.52,0,0,0-1.9,7.39c-.64-5.24-5-10.35-5-10.35Z" />
      <path class="GUNDAN_RED_PANDA_OUTFIT_GUNDAN_RED_PANDA_OUTFIT_38_cls-8" d="M118.45,433.78H91c.39-2.72.88-6.49,1.38-10.8,6.2.27,17,.25,23.26-.54l.25,0c.09.76.21,1.5.34,2.22v0A67.58,67.58,0,0,0,118.45,433.78Z" />
      <path class="GUNDAN_RED_PANDA_OUTFIT_GUNDAN_RED_PANDA_OUTFIT_38_cls-3" d="M141.54,370.37a16.82,16.82,0,0,0-19.41-2.29,16,16,0,0,0-6.51,6.6,15,15,0,0,0-1.72,7,15.22,15.22,0,0,0,1,5.46h0a76.93,76.93,0,0,1-24.46-9.52c-13.65-8.35-22-19.92-25.26-30.17A4.13,4.13,0,0,0,64.3,346c.13-.34,1.79-4.12,11.62-4.91a26.31,26.31,0,0,0,7.41-1.61c5.31-2.07,10.66.33,12.76-3.51a16.87,16.87,0,0,1,15.59-8.32h0s3.4-5.66,14.1-4.47a4.05,4.05,0,0,0,.52.84,3,3,0,0,0,.46.49,49.4,49.4,0,0,1,9.68,12c.65,1.12,1.28,2.28,1.87,3.47C143.15,349.76,143.4,356.17,141.54,370.37Z" />
      <path class="GUNDAN_RED_PANDA_OUTFIT_GUNDAN_RED_PANDA_OUTFIT_38_cls-12" d="M116.06,402.87v0c0,.26-.1.51-.14.77a112.35,112.35,0,0,1-18.62-3.2l.09-.24A2.49,2.49,0,0,0,95.68,397c-3.9-1.12-8.91-2.9-11.94-4l-.48-.18A2.65,2.65,0,0,0,80,394.08c-.13.26-.27.53-.41.83-5.92-2.2-10.57-4.26-13.12-5.43a104.83,104.83,0,0,1,7.78-15.59,76.39,76.39,0,0,0,15.11,10.68,74.88,74.88,0,0,0,21.75,7.74l0,.21S115.42,397.63,116.06,402.87Z" />
      <path class="GUNDAN_RED_PANDA_OUTFIT_GUNDAN_RED_PANDA_OUTFIT_38_cls-11" d="M92.36,423c-.5,4.31-1,8.08-1.38,10.8h-3.5c.63-3.65,1.48-10.63,1.52-11-4-.26-7.92-.67-11.5-1.13,0,0-.37,1.9-.84,4.28l-3.86-.48c.38-1.72.72-3.18,1-4.32h0c.08-.32.15-.63.22-.9A2.6,2.6,0,0,1,77,418.38c3.14.48,8.78,1.27,13.06,1.58a2.54,2.54,0,0,1,2.38,2.77Z" />
      <path class="GUNDAN_RED_PANDA_OUTFIT_GUNDAN_RED_PANDA_OUTFIT_38_cls-13" d="M83.76,401a1.73,1.73,0,0,1,1.09,2.22,1.81,1.81,0,0,1-1.71,1.16,2,2,0,0,1-.6-.1l-2.66-.92-3.7-1.27-2.34-.8a1.72,1.72,0,0,1-1.08-2.23,1.8,1.8,0,0,1,1.7-1.15,2.11,2.11,0,0,1,.61.1l2.57.89,3.66,1.25Z" />
      <path class="GUNDAN_RED_PANDA_OUTFIT_GUNDAN_RED_PANDA_OUTFIT_38_cls-8" d="M82.54,404.31a2,2,0,0,0,.6.1,1.81,1.81,0,0,0,1.71-1.16A1.73,1.73,0,0,0,83.76,401l-2.46-.85c1-2.22,1.76-4,1.76-4,3.4,1.19,7.1,2.37,11,3.45,0,0-3.56,10-4.64,12.07-4.24-1.07-8.23-2.24-11.82-3.4.42-.78,1.32-2.76,2.28-4.9Z" />
      <path class="GUNDAN_RED_PANDA_OUTFIT_GUNDAN_RED_PANDA_OUTFIT_38_cls-12" d="M115.87,422.41l-.25,0c-6.23.79-17.06.81-23.26.54l0-.25A2.54,2.54,0,0,0,90,420c-4.28-.31-9.92-1.1-13.06-1.58A2.69,2.69,0,0,0,74,420.27c-.07.27-.14.58-.22.9h0c-6.92-1.05-12.29-2.24-14.79-2.83a121.46,121.46,0,0,1,3.09-15.67c2.18.89,6.4,2.57,11.89,4.42l-.12.27a2.46,2.46,0,0,0,1.31,3.23c.59.27,1.21.51,1.83.75a70.34,70.34,0,0,0,12.75,3.4,2.65,2.65,0,0,0,2.9-1.59,6.48,6.48,0,0,0,.23-.63,124.82,124.82,0,0,0,22.37,3.28A64.39,64.39,0,0,0,115.87,422.41Z" />
      <path class="GUNDAN_RED_PANDA_OUTFIT_GUNDAN_RED_PANDA_OUTFIT_38_cls-8" d="M89,422.82c0,.33-.89,7.31-1.52,11H75c.17-.72.38-1.71.62-2.81.1-.51.21-1,.32-1.58l2.79.35.24,0a1.79,1.79,0,0,0,1.79-1.51,1.74,1.74,0,0,0-1.56-1.95L76.66,426c.47-2.38.84-4.28.84-4.28C81.08,422.15,85,422.56,89,422.82Z" />
      <path class="GUNDAN_RED_PANDA_OUTFIT_GUNDAN_RED_PANDA_OUTFIT_38_cls-13" d="M76.66,426l2.58.33a1.74,1.74,0,0,1,1.56,1.95A1.79,1.79,0,0,1,79,429.76l-.24,0L76,429.39l-3.9-.49-2.45-.31a1.75,1.75,0,0,1-1.57-1.94,1.8,1.8,0,0,1,1.78-1.52l.25,0,2.71.34Z" />
      <path class="GUNDAN_RED_PANDA_OUTFIT_GUNDAN_RED_PANDA_OUTFIT_38_cls-11" d="M76,429.39c-.11.54-.22,1.07-.32,1.58-.24,1.1-.45,2.09-.62,2.81H71.1c.33-1.75.66-3.38,1-4.88l3.49.45Z" />
      <path class="GUNDAN_RED_PANDA_OUTFIT_GUNDAN_RED_PANDA_OUTFIT_38_cls-8" d="M68.06,426.65a1.75,1.75,0,0,0,1.57,1.94l2.45.31c-.32,1.5-.65,3.13-1,4.88H67.64c-4.46-.61-7.84-1.22-9.6-1.56l-1.54-.35s-1.25-7.32,1.72-13.72l.78.19c2.5.59,7.87,1.78,14.79,2.83-.27,1.14-.61,2.6-1,4.32l-2.71-.34-.25,0A1.8,1.8,0,0,0,68.06,426.65Z" />
      <path class="GUNDAN_RED_PANDA_OUTFIT_GUNDAN_RED_PANDA_OUTFIT_38_cls-8" d="M72.76,399.09a1.72,1.72,0,0,0,1.08,2.23l2.34.8c-.69,1.52-1.43,3.17-2.2,5-5.49-1.85-9.71-3.53-11.89-4.42-1.08-.45-1.65-.71-1.65-.71s.69-7.61,4.56-13.17l1.45.69c2.55,1.17,7.2,3.23,13.12,5.43-.53,1.07-1.18,2.42-1.93,4L75.07,398a2.11,2.11,0,0,0-.61-.1A1.8,1.8,0,0,0,72.76,399.09Z" />
      <path class="GUNDAN_RED_PANDA_OUTFIT_GUNDAN_RED_PANDA_OUTFIT_38_cls-5" d="M184.23,368.65a164.93,164.93,0,0,1,16.57,20.83" />
      <path class="GUNDAN_RED_PANDA_OUTFIT_GUNDAN_RED_PANDA_OUTFIT_38_cls-5" d="M146.37,341.71c9,3.58,22.93,11.16,37.85,26.94" />
      <path class="GUNDAN_RED_PANDA_OUTFIT_GUNDAN_RED_PANDA_OUTFIT_38_cls-5" d="M286.2,377.9c16.58-11.45,32.83-29.16,42.56-33.41" />
      <path class="GUNDAN_RED_PANDA_OUTFIT_GUNDAN_RED_PANDA_OUTFIT_38_cls-5" d="M184.22,368.65h0c.42.07,11.47,1.85,23.53,11.71,11.09,9.07,23.24,12.32,42.72,10.8l1.12-.08q2.64-.22,5.46-.57c8.45-1,19.79-6.13,29.13-12.59" />
      <path class="GUNDAN_RED_PANDA_OUTFIT_GUNDAN_RED_PANDA_OUTFIT_38_cls-5" d="M347.39,343.25a24.1,24.1,0,0,0-.22-3c-1.38-9.19-13.88-4.72-21.1-10.56a49.93,49.93,0,0,0-4.82-3.56c-3.5-2.23-5-.39-5-.39s-.26.69-.74,1.89c-1.5,3.79-5.2,14.68-10,22.78-6.25,10.47-18.77,26.86-19.26,27.5,0,0,0,0,0,0" />
      <path class="GUNDAN_RED_PANDA_OUTFIT_GUNDAN_RED_PANDA_OUTFIT_38_cls-5" d="M163.85,364.06s13.59,7.07,22,19.61,10.79,17.62,25,17.11c2-.08,3.84-.17,5.53-.25,2.52-.13,4.76-.25,7-.34,1,0,2-.06,3-.08,2.11,0,4.27,0,6.7.09,4.15.21,9.06.68,15.78,1.61,19.42,2.69,42.14,3.42,61-18A173.14,173.14,0,0,0,325,363.93h0c4.85-7.18,13.83-17.34,22.39-20.68,13.06,5.6,13.56,13.68,19.6,25.19s10.48,14.77,10.48,19.64a22.68,22.68,0,0,0-5.31,1.35,25.18,25.18,0,0,0-12.06,10.1" />
      <path class="GUNDAN_RED_PANDA_OUTFIT_GUNDAN_RED_PANDA_OUTFIT_38_cls-5" d="M74.23,373.89a104.83,104.83,0,0,0-7.78,15.59" />
      <path class="GUNDAN_RED_PANDA_OUTFIT_GUNDAN_RED_PANDA_OUTFIT_38_cls-5" d="M58,432.22c0,1,0,1.56,0,1.56H378.71a28.17,28.17,0,0,0,10.67-11.09c-2.59-1.55-6.79-7.87-9.22-16.78a56.7,56.7,0,0,0-8-16.48" />
      <path class="GUNDAN_RED_PANDA_OUTFIT_GUNDAN_RED_PANDA_OUTFIT_38_cls-5" d="M62.09,402.67A121.46,121.46,0,0,0,59,418.34" />
      <path class="GUNDAN_RED_PANDA_OUTFIT_GUNDAN_RED_PANDA_OUTFIT_38_cls-5" d="M295.42,416s9.71-11,29.35-8.92,22.91,12.14,49.35,12.45" />
      <path class="GUNDAN_RED_PANDA_OUTFIT_GUNDAN_RED_PANDA_OUTFIT_38_cls-5" d="M288.52,429.48s8-18.1,38.08-13" />
      <path class="GUNDAN_RED_PANDA_OUTFIT_GUNDAN_RED_PANDA_OUTFIT_38_cls-5" d="M293.8,406.84s10.79-1.51,28.26-14.46S353,378,360.3,379.73" />
      <path class="GUNDAN_RED_PANDA_OUTFIT_GUNDAN_RED_PANDA_OUTFIT_38_cls-5" d="M343.1,386.79s19.08-4.36,32.42,0" />
      <path class="GUNDAN_RED_PANDA_OUTFIT_GUNDAN_RED_PANDA_OUTFIT_38_cls-5" d="M223.37,400.19s33,14.55,44.59,33.59" />
      <path class="GUNDAN_RED_PANDA_OUTFIT_GUNDAN_RED_PANDA_OUTFIT_38_cls-5" d="M273.55,433.78q-.62-1-1.26-2" />
      <path class="GUNDAN_RED_PANDA_OUTFIT_GUNDAN_RED_PANDA_OUTFIT_38_cls-5" d="M266.64,424.51a85.41,85.41,0,0,0-8.07-7.88" />
      <path class="GUNDAN_RED_PANDA_OUTFIT_GUNDAN_RED_PANDA_OUTFIT_38_cls-5" d="M251.22,410.88c-.9-.64-1.78-1.27-2.65-1.85a111.33,111.33,0,0,0-15.49-8.82" />
      <path class="GUNDAN_RED_PANDA_OUTFIT_GUNDAN_RED_PANDA_OUTFIT_38_cls-5" d="M258.57,416.63a4.42,4.42,0,0,0,1.15-3,4.66,4.66,0,0,0-4.75-4.55,4.79,4.79,0,0,0-3.75,1.77" />
      <path class="GUNDAN_RED_PANDA_OUTFIT_GUNDAN_RED_PANDA_OUTFIT_38_cls-5" d="M272.29,431.8a4.48,4.48,0,0,0,2.13-3.8,4.67,4.67,0,0,0-4.75-4.56,4.78,4.78,0,0,0-3,1.07" />
      <path class="GUNDAN_RED_PANDA_OUTFIT_GUNDAN_RED_PANDA_OUTFIT_38_cls-5" d="M146.59,381.7a15.94,15.94,0,0,1-13.93,15.54,17.57,17.57,0,0,1-2.42.16A16.58,16.58,0,0,1,118.9,393a15.69,15.69,0,0,1-4-5.84,15.22,15.22,0,0,1-1-5.46,15.57,15.57,0,0,1,8.23-13.62,16.82,16.82,0,0,1,19.41,2.29,15.42,15.42,0,0,1,4.69,8.06A15.24,15.24,0,0,1,146.59,381.7Z" />
      <path class="GUNDAN_RED_PANDA_OUTFIT_GUNDAN_RED_PANDA_OUTFIT_38_cls-5" d="M119.38,393.44l-.62-.06a76.17,76.17,0,0,1-7.67-1.07,74.88,74.88,0,0,1-21.75-7.74,76.39,76.39,0,0,1-15.11-10.68c-9.31-8.43-15-17.69-17.11-23.83a4.1,4.1,0,0,1,1.37-4.65,4.32,4.32,0,0,1,3.34-.72A4.44,4.44,0,0,1,64.3,346a4.13,4.13,0,0,1,.88,1.48c3.27,10.25,11.61,21.82,25.26,30.17a76.93,76.93,0,0,0,24.46,9.52" />
      <path class="GUNDAN_RED_PANDA_OUTFIT_GUNDAN_RED_PANDA_OUTFIT_38_cls-5" d="M141.55,370.37c1.85-14.2,1.6-20.61-3.24-30.41-.27-.54-.55-1.09-.84-1.63s-.68-1.23-1-1.84a49.2,49.2,0,0,0-9.69-12,2.91,2.91,0,0,1-.44-.49h0a3.44,3.44,0,0,1-.53-.83,4,4,0,0,1-.18-2.78,2.25,2.25,0,0,1,.22-.58,3,3,0,0,1,.24-.47,3.54,3.54,0,0,1,.32-.44,2.09,2.09,0,0,1,.35-.39,2.69,2.69,0,0,1,.44-.37l0,0,0,0a4.08,4.08,0,0,1,.5-.29,1.73,1.73,0,0,1,.34-.14h0a1.68,1.68,0,0,1,.32-.09s0,0,0,0h0a.45.45,0,0,1,.2,0,1.29,1.29,0,0,1,.4-.08.27.27,0,0,1,.13,0h.27a4.21,4.21,0,0,1,.62,0,4.68,4.68,0,0,1,.54.1,4.75,4.75,0,0,1,2.08,1.12,37.12,37.12,0,0,1,3.53,3.79,58.66,58.66,0,0,1,5.73,8.49h0c1,1.82,1.68,2.89,2.17,3.87.07.13.13.25.18.37s.24.52.35.79l.18.46a1.58,1.58,0,0,1,.09.26,1.69,1.69,0,0,1,.1.27c.18.54.38,1.17.6,1.94,0,.13.07.26.11.4a3,3,0,0,1,.09.32c0,.16.09.31.13.47l.22.78.22.85c.55,2.05,1,4.18,1.4,6.36.14.81.27,1.62.37,2.45a67.86,67.86,0,0,1-.3,20.76,68.73,68.73,0,0,1-1.61,7.14" />
      <path class="GUNDAN_RED_PANDA_OUTFIT_GUNDAN_RED_PANDA_OUTFIT_38_cls-5" d="M115.94,328.29a19.94,19.94,0,0,0-4.26-.65A16.87,16.87,0,0,0,96.09,336c-2.1,3.84-7.45,1.44-12.76,3.51a26.31,26.31,0,0,1-7.41,1.61c-9.83.79-11.49,4.57-11.62,4.91v0" />
      <path class="GUNDAN_RED_PANDA_OUTFIT_GUNDAN_RED_PANDA_OUTFIT_38_cls-5" d="M125.78,323.16c-10.7-1.19-14.1,4.47-14.1,4.47" />
      <path class="GUNDAN_RED_PANDA_OUTFIT_GUNDAN_RED_PANDA_OUTFIT_38_cls-5" d="M118,331.81s9.66,3.05,9,24.09" />
      <path class="GUNDAN_RED_PANDA_OUTFIT_GUNDAN_RED_PANDA_OUTFIT_38_cls-5" d="M117.67,339.62s7.72,13.59,4.46,28.46" />
      <path class="GUNDAN_RED_PANDA_OUTFIT_GUNDAN_RED_PANDA_OUTFIT_38_cls-5" d="M77.86,347.29s10.25,24.19,37.76,27.39" />
      <path class="GUNDAN_RED_PANDA_OUTFIT_GUNDAN_RED_PANDA_OUTFIT_38_cls-5" d="M88.91,339.62s1,17.11,20.35,26.85" />
      <path class="GUNDAN_RED_PANDA_OUTFIT_GUNDAN_RED_PANDA_OUTFIT_38_cls-5" d="M147.83,371.29h0c.33-.12,7.52-2.74,19.3,7.46,12.05,10.43,9.73,20.66,24.52,24,8.57,1.9,15.9-1.67,24.76-2.17l.47,0" />
      <path class="GUNDAN_RED_PANDA_OUTFIT_GUNDAN_RED_PANDA_OUTFIT_38_cls-5" d="M146.59,381.7s51.13,42.08,101.62,52.08" />
      <path class="GUNDAN_RED_PANDA_OUTFIT_GUNDAN_RED_PANDA_OUTFIT_38_cls-5" d="M132.66,397.24c15,12.15,35.91,27,58.09,36.54" />
      <path class="GUNDAN_RED_PANDA_OUTFIT_GUNDAN_RED_PANDA_OUTFIT_38_cls-5" d="M116.06,402.87a50.52,50.52,0,0,1,1.9-7.39c.24-.69.5-1.4.8-2.1,0-.13.09-.25.14-.38" />
      <path class="GUNDAN_RED_PANDA_OUTFIT_GUNDAN_RED_PANDA_OUTFIT_38_cls-5" d="M118.45,433.78a67.58,67.58,0,0,1-2.24-9.12v0c-.13-.72-.25-1.46-.34-2.22a64.39,64.39,0,0,1-.62-6.61,59.23,59.23,0,0,1,.67-12.14c0-.26.09-.51.14-.77" />
      <path class="GUNDAN_RED_PANDA_OUTFIT_GUNDAN_RED_PANDA_OUTFIT_38_cls-5" d="M111.05,392.52s4.37,5.11,5,10.35v0" />
      <path class="GUNDAN_RED_PANDA_OUTFIT_GUNDAN_RED_PANDA_OUTFIT_38_cls-5" d="M115.92,403.66a112.35,112.35,0,0,1-18.62-3.2" />
      <path class="GUNDAN_RED_PANDA_OUTFIT_GUNDAN_RED_PANDA_OUTFIT_38_cls-5" d="M79.57,394.91c-5.92-2.2-10.57-4.26-13.12-5.43L65,388.79" />
      <path class="GUNDAN_RED_PANDA_OUTFIT_GUNDAN_RED_PANDA_OUTFIT_38_cls-5" d="M94.06,399.62c-3.9-1.08-7.6-2.26-11-3.45" />
      <path class="GUNDAN_RED_PANDA_OUTFIT_GUNDAN_RED_PANDA_OUTFIT_38_cls-5" d="M115.25,415.8a124.82,124.82,0,0,1-22.37-3.28" />
      <path class="GUNDAN_RED_PANDA_OUTFIT_GUNDAN_RED_PANDA_OUTFIT_38_cls-5" d="M65,388.79C61.13,394.35,60.44,402,60.44,402s.57.26,1.65.71c2.18.89,6.4,2.57,11.89,4.42" />
      <path class="GUNDAN_RED_PANDA_OUTFIT_GUNDAN_RED_PANDA_OUTFIT_38_cls-5" d="M89.42,411.69c-4.24-1.07-8.23-2.24-11.82-3.4" />
      <path class="GUNDAN_RED_PANDA_OUTFIT_GUNDAN_RED_PANDA_OUTFIT_38_cls-5" d="M77.64,398.93c.75-1.6,1.4-2.95,1.93-4,.14-.3.28-.57.41-.83a2.65,2.65,0,0,1,3.28-1.25c3,1.1,8.3,3,12.42,4.2a2.49,2.49,0,0,1,1.71,3.19l-.09.24c-1.8,5.17-3.43,9.5-4.42,12.06a6.48,6.48,0,0,1-.23.63,2.65,2.65,0,0,1-2.9,1.59,66.94,66.94,0,0,1-14.58-4.15,2.46,2.46,0,0,1-1.31-3.23l.12-.27c.77-1.8,1.51-3.45,2.2-5" />
      <path class="GUNDAN_RED_PANDA_OUTFIT_GUNDAN_RED_PANDA_OUTFIT_38_cls-5" d="M94.06,399.62s-3.56,10-4.64,12.07" />
      <path class="GUNDAN_RED_PANDA_OUTFIT_GUNDAN_RED_PANDA_OUTFIT_38_cls-5" d="M79.88,403.39c-1,2.14-1.86,4.12-2.28,4.9" />
      <path class="GUNDAN_RED_PANDA_OUTFIT_GUNDAN_RED_PANDA_OUTFIT_38_cls-5" d="M83.06,396.17s-.78,1.79-1.76,4" />
      <path class="GUNDAN_RED_PANDA_OUTFIT_GUNDAN_RED_PANDA_OUTFIT_38_cls-5" d="M81.3,400.18l2.46.85a1.73,1.73,0,0,1,1.09,2.22,1.81,1.81,0,0,1-1.71,1.16,2,2,0,0,1-.6-.1l-2.66-.92-3.7-1.27-2.34-.8a1.72,1.72,0,0,1-1.08-2.23,1.8,1.8,0,0,1,1.7-1.15,2.11,2.11,0,0,1,.61.1l2.57.89Z" />
      <path class="GUNDAN_RED_PANDA_OUTFIT_GUNDAN_RED_PANDA_OUTFIT_38_cls-5" d="M115.62,422.44c-6.23.79-17.06.81-23.26.54" />
      <path class="GUNDAN_RED_PANDA_OUTFIT_GUNDAN_RED_PANDA_OUTFIT_38_cls-5" d="M89,422.82c-4-.26-7.92-.67-11.5-1.13" />
      <path class="GUNDAN_RED_PANDA_OUTFIT_GUNDAN_RED_PANDA_OUTFIT_38_cls-5" d="M67.64,433.78c-4.46-.61-7.84-1.22-9.6-1.56l-1.54-.35s-1.25-7.32,1.72-13.72l.78.19c2.49.59,7.87,1.78,14.79,2.83" />
      <path class="GUNDAN_RED_PANDA_OUTFIT_GUNDAN_RED_PANDA_OUTFIT_38_cls-5" d="M91,433.78c.39-2.72.88-6.49,1.38-10.8l0-.25A2.54,2.54,0,0,0,90,420c-4.28-.31-9.92-1.1-13.06-1.58A2.6,2.6,0,0,0,74,420.27c-.07.27-.14.58-.22.9h0c-.27,1.14-.61,2.6-1,4.32" />
      <path class="GUNDAN_RED_PANDA_OUTFIT_GUNDAN_RED_PANDA_OUTFIT_38_cls-5" d="M72.08,428.9c-.32,1.5-.65,3.13-1,4.88" />
      <path class="GUNDAN_RED_PANDA_OUTFIT_GUNDAN_RED_PANDA_OUTFIT_38_cls-5" d="M89,422.81h0c0,.33-.89,7.31-1.52,11" />
      <path class="GUNDAN_RED_PANDA_OUTFIT_GUNDAN_RED_PANDA_OUTFIT_38_cls-5" d="M76,429.39c-.35,1.72-.69,3.33-.94,4.39" />
      <path class="GUNDAN_RED_PANDA_OUTFIT_GUNDAN_RED_PANDA_OUTFIT_38_cls-5" d="M77.5,421.69s-.37,1.9-.84,4.28" />
      <path class="GUNDAN_RED_PANDA_OUTFIT_GUNDAN_RED_PANDA_OUTFIT_38_cls-5" d="M76.66,426l2.58.33a1.74,1.74,0,0,1,1.56,1.95A1.79,1.79,0,0,1,79,429.76l-.24,0L76,429.39l-3.9-.49-2.45-.31a1.75,1.75,0,0,1-1.57-1.94,1.8,1.8,0,0,1,1.78-1.52l.25,0,2.71.34Z" />
      <path class="GUNDAN_RED_PANDA_OUTFIT_GUNDAN_RED_PANDA_OUTFIT_38_cls-10" d="M137.36,336.63l-.92-.14-.59-.07-.41,0c-3.24-.27-9.46-.09-10.09,5.08v0c-10.27-5.76-22.15-9.62-28.56-4.44-.29.24-.58.51-.86.79s-.29.31-.43.47A21.49,21.49,0,0,0,91,347.48c-10.87-3.39-4.83,6.17-9.84,5.61a1.75,1.75,0,0,1-.32,0c-5.08,2.71-3,11.87,9.62,24.58.83.85,1.72,1.7,2.65,2.58-1.35,1.43-2.6,2.9-3.75,4.35A63.45,63.45,0,0,0,83.75,393a60.46,60.46,0,0,0-3.29,6.88c-.45,1.11-.85,2.2-1.22,3.3-.55,1.57-1,3.14-1.41,4.69a2.44,2.44,0,0,0-.13.44c-.26,1-.49,2-.7,3-.51,2.46-.86,4.83-1.11,7.1-.27,2.63-.38,5.1-.39,7.38,0,1.24,0,2.41.07,3.52,0,.56,0,1.12.09,1.63.06,1,.13,1.93.22,2.81H58.07s0-.54,0-1.55l-1.54-.36s-1.24-7.33,1.73-13.72l.78.2a121.55,121.55,0,0,1,3.1-15.69c-1.09-.44-1.67-.69-1.67-.69s.7-7.63,4.57-13.19c.36.18.85.42,1.46.69a105.62,105.62,0,0,1,7.77-15.58c-9.3-8.42-15-17.7-17.11-23.83a4.12,4.12,0,0,1,1.37-4.66,4.31,4.31,0,0,1,3.34-.71A4.47,4.47,0,0,1,64.3,346a4.27,4.27,0,0,1,1.15-1.49c.14-.13.29-.26.46-.39s.36-.27.57-.41a12.83,12.83,0,0,1,2.41-1.2c.34-.13.7-.25,1.08-.37a24.94,24.94,0,0,1,2.63-.63l.76-.13c.78-.13,1.64-.23,2.56-.3a29.42,29.42,0,0,0,4-.58,22.49,22.49,0,0,0,3.39-1,18.26,18.26,0,0,0,5.74-3.53c1.54-1.38,4.21.69,5.87.69a1.21,1.21,0,0,0,1-.48.81.81,0,0,0,.12-.18,16.85,16.85,0,0,1,15.58-8.33v0h0a4.08,4.08,0,0,1,.71-.88,4.48,4.48,0,0,1,.38-.37c.14-.13.29-.27.47-.41l.27-.21c.18-.14.38-.29.6-.43s.22-.15.35-.22a9.3,9.3,0,0,1,1.18-.63c.28-.14.59-.27.91-.4a19.5,19.5,0,0,1,9.21-.91,4,4,0,0,1-.18-2.78,2.25,2.25,0,0,1,.22-.58,3,3,0,0,1,.24-.47,3.54,3.54,0,0,1,.32-.44,2.57,2.57,0,0,1,.35-.39,3.91,3.91,0,0,1,.44-.37l0,0a1.22,1.22,0,0,1,.19-.12h0l.33-.19a2.67,2.67,0,0,1,.34-.15,1.31,1.31,0,0,1,.32-.1s0,0,0,0h0l.2,0a1.29,1.29,0,0,1,.4-.08.27.27,0,0,1,.13,0h.27a4.3,4.3,0,0,1,.62,0,4.68,4.68,0,0,1,.54.1,4.75,4.75,0,0,1,2.08,1.12,37.12,37.12,0,0,1,3.53,3.79,58.66,58.66,0,0,1,5.73,8.49h0C133.74,331,137.36,336.63,137.36,336.63Z" />
      <path class="GUNDAN_RED_PANDA_OUTFIT_GUNDAN_RED_PANDA_OUTFIT_38_cls-10" d="M132,433.78H118.45a67.58,67.58,0,0,1-2.24-9.12v0c-.13-.72-.25-1.46-.34-2.22a64.39,64.39,0,0,1-.62-6.61,59.23,59.23,0,0,1,.67-12.14c0-.26.09-.51.14-.77v0a50.52,50.52,0,0,1,1.9-7.39c.24-.69.5-1.4.8-2.1l.06-.18c0-.07.05-.14.08-.2a16.35,16.35,0,0,0,7.31,3.92A50.84,50.84,0,0,0,132,433.78Z" />
    </g>
  </g>
</svg>