<svg xmlns="http://www.w3.org/2000/svg" viewBox="0 0 432 432">
  <defs>
    <style>.GUNDAN_RED_PANDA_OUTFIT_GUNDAN_RED_PANDA_OUTFIT_5_cls-1{isolation:isolate;}.GUNDAN_RED_PANDA_OUTFIT_GUNDAN_RED_PANDA_OUTFIT_5_cls-2{fill:#46412a;}.GUNDAN_RED_PANDA_OUTFIT_GUNDAN_RED_PANDA_OUTFIT_5_cls-3{fill:#7763b4;}.GUNDAN_RED_PANDA_OUTFIT_GUNDAN_RED_PANDA_OUTFIT_5_cls-4{fill:#7d5b25;}.GUNDAN_RED_PANDA_OUTFIT_GUNDAN_RED_PANDA_OUTFIT_5_cls-5{fill:#fff;}.GUNDAN_RED_PANDA_OUTFIT_GUNDAN_RED_PANDA_OUTFIT_5_cls-6{fill:none;stroke:#000;stroke-linecap:round;stroke-linejoin:round;stroke-width:2.57px;}.GUNDAN_RED_PANDA_OUTFIT_GUNDAN_RED_PANDA_OUTFIT_5_cls-7{opacity:0.22;mix-blend-mode:multiply;}</style>
  </defs>
  <g class="GUNDAN_RED_PANDA_OUTFIT_GUNDAN_RED_PANDA_OUTFIT_5_cls-1">
    <g id="outfit">
      <path class="GUNDAN_RED_PANDA_OUTFIT_GUNDAN_RED_PANDA_OUTFIT_5_cls-2" d="M335,466.32a29.57,29.57,0,0,1-9.5,9.62,15.43,15.43,0,0,1-6.25,2.2c-4.44.44-7.34-3.43-9.36-8.51a51.65,51.65,0,0,1-5.2.25,58,58,0,0,1-5.9-.3,47,47,0,0,1-14.57-3.67,26.91,26.91,0,0,1-11.41-9.16,22,22,0,0,1-1.8-3.1,24.62,24.62,0,0,1-2.3-7.93,26.06,26.06,0,0,1,0-5.37c-.87-.81-1.69-1.59-2.43-2.36a39.62,39.62,0,0,1-5.52-7A29.18,29.18,0,0,1,259.2,428a205,205,0,0,1-29,2.92v49.33H334.7l.31-8.88A22.68,22.68,0,0,0,335,466.32Z" />
      <path class="GUNDAN_RED_PANDA_OUTFIT_GUNDAN_RED_PANDA_OUTFIT_5_cls-2" d="M182.59,431a39.28,39.28,0,0,1-5.53,7c-.74.77-1.56,1.55-2.43,2.36a26.06,26.06,0,0,1,0,5.37,24.37,24.37,0,0,1-2.3,7.93,21.07,21.07,0,0,1-1.8,3.1,26.82,26.82,0,0,1-11.4,9.16,47.09,47.09,0,0,1-14.58,3.67,57.81,57.81,0,0,1-5.89.3,51.65,51.65,0,0,1-5.2-.25c-2,5.08-4.92,8.95-9.36,8.51a15.48,15.48,0,0,1-6.26-2.2,29.77,29.77,0,0,1-9.5-9.62,22.68,22.68,0,0,0,0,5.08l.31,8.88h104.5V431a204.7,204.7,0,0,1-29-2.92A29.18,29.18,0,0,1,182.59,431Z" />
      <path class="GUNDAN_RED_PANDA_OUTFIT_GUNDAN_RED_PANDA_OUTFIT_5_cls-2" d="M383.47,418.08c-2.1-2.63-4.14-4.37-4.25-4.77-.2-.84-1.56-9.42-4.57-14.86a61.42,61.42,0,0,0-4.6-6.57c-3.52-4.56-7.91-9.79-10.24-12.52a78.67,78.67,0,0,0-7.68,6.5,118.36,118.36,0,0,1-17,12.92c-4,2.57-8.44,5.2-13.35,7.82,3.29,10.34,6.07,28,6.07,28,1.94,0,4,0,6.25-.14A89.93,89.93,0,0,0,383.47,418.08Z" />
      <path class="GUNDAN_RED_PANDA_OUTFIT_GUNDAN_RED_PANDA_OUTFIT_5_cls-2" d="M91.19,385.86a78.94,78.94,0,0,0-7.67-6.5c-2.32,2.73-10.16,7.47-13.69,12A60.52,60.52,0,0,0,65.24,398c-3,5.43-.93,14.51-1.13,15.35-.11.4-2.14,2.14-4.25,4.77,19.39,13.31,36.59,15.89,49.37,16.43,2.22.1,4.31.13,6.25.14,0,0,2.77-17.71,6.06-28-4.92-2.62-9.38-5.25-13.36-7.82A118.94,118.94,0,0,1,91.19,385.86Z" />
      <path class="GUNDAN_RED_PANDA_OUTFIT_GUNDAN_RED_PANDA_OUTFIT_5_cls-3" d="M354.05,372.38c-1.78,0-3.23,1.18-3.23,2.63a3.3,3.3,0,0,0,6.46,0C357.28,373.56,355.83,372.38,354.05,372.38Z" />
      <path class="GUNDAN_RED_PANDA_OUTFIT_GUNDAN_RED_PANDA_OUTFIT_5_cls-3" d="M331.48,390.41c-1.78,0-3.23,1.17-3.23,2.63s1.45,2.63,3.23,2.63a2.68,2.68,0,1,0,0-5.26Z" />
      <path class="GUNDAN_RED_PANDA_OUTFIT_GUNDAN_RED_PANDA_OUTFIT_5_cls-3" d="M111.86,390.41c-1.79,0-3.23,1.17-3.23,2.63s1.44,2.63,3.23,2.63a2.68,2.68,0,1,0,0-5.26Z" />
      <path class="GUNDAN_RED_PANDA_OUTFIT_GUNDAN_RED_PANDA_OUTFIT_5_cls-3" d="M89.28,372.38A2.69,2.69,0,1,0,92.51,375,3,3,0,0,0,89.28,372.38Z" />
      <path class="GUNDAN_RED_PANDA_OUTFIT_GUNDAN_RED_PANDA_OUTFIT_5_cls-3" d="M388.18,429.7a12.92,12.92,0,0,0-.31-3.06l-1.1.39a3.43,3.43,0,0,0-.68.3c-.25.14-25.73,14.75-57.91,14.15-.12.93-.24,1.91-.31,2.91a6.61,6.61,0,0,0,.5,2.93h1.71a130.23,130.23,0,0,0,59.84-15.07l.5-.17C389.73,431.31,389,430.5,388.18,429.7Z" />
      <path class="GUNDAN_RED_PANDA_OUTFIT_GUNDAN_RED_PANDA_OUTFIT_5_cls-3" d="M115.16,441.48c-32.19.6-57.67-14-57.92-14.15a3.19,3.19,0,0,0-.68-.3l-1.09-.39a12,12,0,0,0-.31,3.06c-.8.8-1.55,1.61-2.24,2.39l.5.17a130.22,130.22,0,0,0,59.83,15.07H115a6.76,6.76,0,0,0,.5-2.93C115.4,443.39,115.28,442.41,115.16,441.48Z" />
      <path class="GUNDAN_RED_PANDA_OUTFIT_GUNDAN_RED_PANDA_OUTFIT_5_cls-3" d="M304.51,464a51,51,0,0,1-5.91-.32,36,36,0,0,1-11.29-3,20.52,20.52,0,0,1-7.83-6.2,18.28,18.28,0,0,1-1.8-3,19.3,19.3,0,0,1-1.54-4.62q-.11-.5-.18-1a37.56,37.56,0,0,0,7.79,3.5,52.67,52.67,0,0,0,10.74,2.21,61.87,61.87,0,0,0,6.8.36c1.66,0,3-.06,4.07-.12A26.62,26.62,0,0,1,305,446a57.86,57.86,0,0,1-9.09-.16,44.72,44.72,0,0,1-9.44-1.89,28.31,28.31,0,0,1-7.78-3.78l-.64-.46c-.6-.46-1.18-.91-1.71-1.35a29.45,29.45,0,0,1,2.58-7.12,41.52,41.52,0,0,1,3.56-5.76,49.29,49.29,0,0,1,3.12-3.86c-2,.64-4.11,1.24-6.2,1.84-1.53.42-3.08.82-4.64,1.22a42.9,42.9,0,0,0-3,5.29c-.45.93-.85,1.88-1.22,2.88a31.91,31.91,0,0,1-3.25-4.34c-.43-.7-.77-1.33-1-1.86-2.31.48-4.64.93-7,1.34a29.18,29.18,0,0,0,1.55,2.92,39.62,39.62,0,0,0,5.52,7c.74.77,1.56,1.55,2.43,2.36a26.06,26.06,0,0,0,0,5.37,24.62,24.62,0,0,0,2.3,7.93,22,22,0,0,0,1.8,3.1,26.91,26.91,0,0,0,11.41,9.16,47,47,0,0,0,14.57,3.67,58,58,0,0,0,5.9.3,51.65,51.65,0,0,0,5.2-.25A50.57,50.57,0,0,1,308,463.9C307.05,464,305.86,464,304.51,464Z" />
      <path class="GUNDAN_RED_PANDA_OUTFIT_GUNDAN_RED_PANDA_OUTFIT_5_cls-3" d="M176.07,428.55a31.91,31.91,0,0,1-3.25,4.34c-.36-1-.77-1.95-1.21-2.88a44.27,44.27,0,0,0-3-5.29c-1.56-.4-3.11-.8-4.63-1.22-2.1-.6-4.17-1.2-6.2-1.84.89,1,2,2.3,3.12,3.86a42.49,42.49,0,0,1,3.56,5.76,30.32,30.32,0,0,1,2.58,7.12c-.54.44-1.12.89-1.72,1.35l-.64.46a28.39,28.39,0,0,1-7.77,3.78,44.93,44.93,0,0,1-9.45,1.89,57.73,57.73,0,0,1-9.08.16,26.63,26.63,0,0,1-.42,5.83c1,.06,2.42.12,4.07.12a61.63,61.63,0,0,0,6.8-.36,52.54,52.54,0,0,0,10.74-2.21,37.32,37.32,0,0,0,7.79-3.5q-.08.49-.18,1a18.71,18.71,0,0,1-3.33,7.6,20.62,20.62,0,0,1-7.84,6.2,36,36,0,0,1-11.28,3,51.12,51.12,0,0,1-5.91.32c-1.36,0-2.55,0-3.51-.11a54.91,54.91,0,0,1-1.88,5.73,51.65,51.65,0,0,0,5.2.25,57.81,57.81,0,0,0,5.89-.3,47.09,47.09,0,0,0,14.58-3.67,26.82,26.82,0,0,0,11.4-9.16,21.07,21.07,0,0,0,1.8-3.1,24.37,24.37,0,0,0,2.3-7.93,26.06,26.06,0,0,0,0-5.37c.87-.81,1.69-1.59,2.43-2.36a39.28,39.28,0,0,0,5.53-7,29.18,29.18,0,0,0,1.55-2.92c-2.39-.41-4.72-.86-7-1.34C176.85,427.22,176.5,427.85,176.07,428.55Z" />
      <path class="GUNDAN_RED_PANDA_OUTFIT_GUNDAN_RED_PANDA_OUTFIT_5_cls-3" d="M261.39,369.69c.71-2.77.06-6-3.18-9.18-.11-.12-.23-.23-.36-.35h0A19.39,19.39,0,0,0,255,358a28.89,28.89,0,0,0-14.62-4.54,32.55,32.55,0,0,0-4.23.16,33.07,33.07,0,0,0-6.9,1.47h0c-.87.28-1.7.59-2.46.91a3.52,3.52,0,0,0-2.29-.92c-.82,0-7.28.33-8,.92-.77-.32-1.6-.63-2.47-.91h0a33,33,0,0,0-6.89-1.47,32.62,32.62,0,0,0-4.23-.16,28.12,28.12,0,0,0-7.95,1.39,27.8,27.8,0,0,0-6.67,3.15,19.52,19.52,0,0,0-2.84,2.17h0c-.13.12-.25.23-.36.35-3.23,3.14-3.89,6.41-3.17,9.18a9.18,9.18,0,0,0,1.86,3.62,13.7,13.7,0,0,0,2.78,2.48A18,18,0,0,0,191,378c.53.19,1.09.37,1.65.51a22.27,22.27,0,0,0,5.47.68,22,22,0,0,0,9.16-2l4.4-2.09.86-.42a51.08,51.08,0,0,0-2.23,9.09,5.1,5.1,0,0,1,1.79-.05,5.3,5.3,0,0,1,1.43.38l.32.16a48.67,48.67,0,0,1,2.88-10.79c.11-.26.21-.51.3-.71.57.38,6.88.58,7.52.58a3.28,3.28,0,0,0,1.84-.58c.08.2.19.45.29.71a48,48,0,0,1,2.89,10.79l.32-.16a5.2,5.2,0,0,1,1.43-.38,5,5,0,0,1,1.78.05,52.06,52.06,0,0,0-2.22-9.09c.28.14.57.27.85.42,1.59.76,3.12,1.49,4.41,2.09a20.9,20.9,0,0,0,3.69,1.32,21.16,21.16,0,0,0,5.47.7,22.19,22.19,0,0,0,5.46-.68c.56-.14,1.12-.32,1.66-.51a18.22,18.22,0,0,0,4.37-2.18,13.63,13.63,0,0,0,2.77-2.48A9.07,9.07,0,0,0,261.39,369.69Zm-51.67-.42-2.22,1c-1.18.54-2.47,1.14-3.84,1.79a13.6,13.6,0,0,1-1.84.69,13.77,13.77,0,0,1-7.78-.1,9.08,9.08,0,0,1-4.31-2.63,3.59,3.59,0,0,1-.93-2.62,6.08,6.08,0,0,1,2.55-3.85c.16-.11.3-.23.44-.34l1-.66a21.21,21.21,0,0,1,3.95-2,20,20,0,0,1,7.24-1.34,24.25,24.25,0,0,1,9,1.8c.35.13.67.28,1,.41a14.88,14.88,0,0,0-.24,2.72,15.05,15.05,0,0,0,.32,3.14C212.75,367.88,211.34,368.52,209.72,369.27Zm43.88.78a9,9,0,0,1-4.31,2.63,13.74,13.74,0,0,1-7.77.1,14.25,14.25,0,0,1-1.85-.69c-1.37-.65-2.65-1.25-3.83-1.79l-2.23-1-4.22-1.95a14.4,14.4,0,0,0,.33-3.14,15.82,15.82,0,0,0-.24-2.72c.3-.13.62-.28,1-.41a24.31,24.31,0,0,1,9-1.8,20.07,20.07,0,0,1,7.24,1.34,20.83,20.83,0,0,1,3.94,2c.3.2.62.42.95.66l.44.34a6.08,6.08,0,0,1,2.55,3.85A3.59,3.59,0,0,1,253.6,370.05Z" />
      <path class="GUNDAN_RED_PANDA_OUTFIT_GUNDAN_RED_PANDA_OUTFIT_5_cls-2" d="M230.84,374.63c.28.14.57.27.85.42,1.59.76,3.12,1.49,4.41,2.09a20.9,20.9,0,0,0,3.69,1.32,21.16,21.16,0,0,0,5.47.7,22.19,22.19,0,0,0,5.46-.68c.56-.14,1.12-.32,1.66-.51,2.45,5.11,8.74,18,11.88,22.51,3.95,5.7,8.18,8.25,15.32,8.25,2.84,0,7.43-3.54,12.83-8.59,4.71-4.39,10-9.94,15.37-15.29a30.27,30.27,0,0,0,15.59,12.43c-4.61,3.4-16.66,11.34-36.45,17.7q-2.79.91-5.76,1.75h0a206.43,206.43,0,0,1-56.63,7.45c-22.81,0-47.34-3.19-62.32-7.45h0q-3-.84-5.76-1.75c-19.79-6.36-31.84-14.3-36.45-17.7a30.24,30.24,0,0,0,15.58-12.43c5.33,5.35,10.66,10.9,15.38,15.29,5.39,5.05,10,8.59,12.82,8.59,7.15,0,11.37-2.55,15.33-8.25,3.14-4.52,9.43-17.4,11.88-22.51.53.19,1.09.37,1.65.51a22.27,22.27,0,0,0,5.47.68,22,22,0,0,0,9.16-2l4.4-2.09.86-.42a51.08,51.08,0,0,0-2.23,9.09h0a5.78,5.78,0,0,0-1,.32c-2.82,1.24-5,5.08-7.25,10.45A76.89,76.89,0,0,0,197.81,409a7.13,7.13,0,0,0,2.11.94,15.77,15.77,0,0,0,3.62.55,33.23,33.23,0,0,0,4.47-.14c1.18-.12,2.31-.28,3.29-.45s1.83-.36,2.46-.51c-.68-2.51,1.31-10.83,1.42-16.31,0-2.49.28-4.53.13-6.08a3.21,3.21,0,0,0-1.5-2.77,48.67,48.67,0,0,1,2.88-10.79c.11-.26.21-.51.3-.71.57.38,6.88.58,7.52.58a3.28,3.28,0,0,0,1.84-.58c.08.2.19.45.29.71a48,48,0,0,1,2.89,10.79A3.19,3.19,0,0,0,228,387c-.16,1.55.08,3.59.13,6.08.1,5.48,2.09,13.8,1.41,16.31.63.15,1.48.34,2.47.51s2.11.33,3.28.45a33.28,33.28,0,0,0,4.47.14,15.69,15.69,0,0,0,3.62-.55,7.19,7.19,0,0,0,2.12-.94,77.36,77.36,0,0,0-4.22-14.48c-2.22-5.37-4.43-9.21-7.25-10.45a5.28,5.28,0,0,0-1-.32h0A52.06,52.06,0,0,0,230.84,374.63Z" />
      <path class="GUNDAN_RED_PANDA_OUTFIT_GUNDAN_RED_PANDA_OUTFIT_5_cls-4" d="M376,372.61a25.51,25.51,0,0,1-4.94-.14c-4-.47-3.59-2.13-7.18-3.74-5.33-2.4-14.22-5.15-17.16-7.36h0a47.47,47.47,0,0,0-19.83,6.68c-5.48,3.4-12.29,9.95-19.11,16.8a30.27,30.27,0,0,0,15.59,12.43c-4.61,3.4-16.66,11.34-36.45,17.7q-2.79.91-5.76,1.75h0a206.43,206.43,0,0,1-56.63,7.45c-22.81,0-47.34-3.19-62.32-7.45h0q-3-.84-5.76-1.75c-19.79-6.36-31.84-14.3-36.45-17.7a30.24,30.24,0,0,0,15.58-12.43c-6.82-6.85-13.63-13.4-19.11-16.8a47.43,47.43,0,0,0-19.82-6.68h0c-2.94,2.21-12.18,5.89-17.51,8.29-3.59,1.61-2.84,2.34-6.83,2.81a25.53,25.53,0,0,1-4.94.14c-3.6,7.5-2.66,14.05,2.5,18.78,3.53-4.56,11.37-9.3,13.69-12a78.94,78.94,0,0,1,7.67,6.5,118.94,118.94,0,0,0,17,12.92c4,2.57,8.44,5.2,13.36,7.82q3,1.59,6.17,3.14,2.1,1,4.32,2.05a18,18,0,0,0,.64,19.24c.31.48.61,1,.88,1.41.81,1.31,1.49,2.55,2.06,3.71h0a24.48,24.48,0,0,1,2.78,9.88,57.73,57.73,0,0,0,9.08-.16,44.93,44.93,0,0,0,9.45-1.89,28.39,28.39,0,0,0,7.77-3.78l.64-.46c.6-.46,1.18-.91,1.72-1.35a30.32,30.32,0,0,0-2.58-7.12,42.49,42.49,0,0,0-3.56-5.76c-1.14-1.56-2.23-2.86-3.12-3.86,2,.64,4.1,1.24,6.2,1.84,1.52.42,3.07.82,4.63,1.22a44.27,44.27,0,0,1,3,5.29c.44.93.85,1.88,1.21,2.88a31.91,31.91,0,0,0,3.25-4.34c.43-.7.78-1.33,1-1.86,2.31.48,4.64.93,7,1.34a204.7,204.7,0,0,0,29,2.92c1.88.05,9.47.08,11.38.08s3.81,0,5.69-.08a205,205,0,0,0,29-2.92c2.38-.41,4.71-.86,7-1.34.27.53.61,1.16,1,1.86a31.91,31.91,0,0,0,3.25,4.34c.37-1,.77-1.95,1.22-2.88a42.9,42.9,0,0,1,3-5.29c1.56-.4,3.11-.8,4.64-1.22,2.09-.6,4.16-1.2,6.2-1.84a49.29,49.29,0,0,0-3.12,3.86,41.52,41.52,0,0,0-3.56,5.76,29.45,29.45,0,0,0-2.58,7.12c.53.44,1.11.89,1.71,1.35l.64.46a28.31,28.31,0,0,0,7.78,3.78,44.72,44.72,0,0,0,9.44,1.89A57.86,57.86,0,0,0,305,446a24.45,24.45,0,0,1,2.77-9.88h0c.57-1.16,1.25-2.4,2.06-3.71.27-.46.57-.93.88-1.41a18,18,0,0,0,.64-19.24q2.22-1,4.33-2.05,3.19-1.55,6.16-3.14c4.91-2.62,9.38-5.25,13.35-7.82a118.36,118.36,0,0,0,17-12.92,78.67,78.67,0,0,1,7.68-6.5c2.33,2.73,6.72,8,10.24,12.52C375.22,387.15,379.6,380.11,376,372.61Zm-286.73,5A2.69,2.69,0,1,1,92.51,375,3,3,0,0,1,89.28,377.65Zm22.58,18c-1.79,0-3.23-1.17-3.23-2.63s1.44-2.63,3.23-2.63a2.68,2.68,0,1,1,0,5.26Zm219.62,0c-1.78,0-3.23-1.17-3.23-2.63s1.45-2.63,3.23-2.63a2.68,2.68,0,1,1,0,5.26Zm22.57-18a3,3,0,0,1-3.23-2.64c0-1.45,1.45-2.63,3.23-2.63s3.23,1.18,3.23,2.63A3,3,0,0,1,354.05,377.65Z" />
      <path class="GUNDAN_RED_PANDA_OUTFIT_GUNDAN_RED_PANDA_OUTFIT_5_cls-5" d="M234.06,384.05a5.28,5.28,0,0,0-1-.32h0a5,5,0,0,0-1.78-.05,5.2,5.2,0,0,0-1.43.38l-.32.16A3.19,3.19,0,0,0,228,387c-.16,1.55.08,3.59.13,6.08.1,5.48,2.09,13.8,1.41,16.31.63.15,1.48.34,2.47.51s2.11.33,3.28.45a33.28,33.28,0,0,0,4.47.14,15.69,15.69,0,0,0,3.62-.55,7.19,7.19,0,0,0,2.12-.94,77.36,77.36,0,0,0-4.22-14.48C239.09,389.13,236.88,385.29,234.06,384.05Z" />
      <path class="GUNDAN_RED_PANDA_OUTFIT_GUNDAN_RED_PANDA_OUTFIT_5_cls-5" d="M215.18,393.06c0-2.49.28-4.53.13-6.08a3.21,3.21,0,0,0-1.5-2.77l-.32-.16a5.3,5.3,0,0,0-1.43-.38,5.1,5.1,0,0,0-1.79.05h0a5.78,5.78,0,0,0-1,.32c-2.82,1.24-5,5.08-7.25,10.45A76.89,76.89,0,0,0,197.81,409a7.13,7.13,0,0,0,2.11.94,15.77,15.77,0,0,0,3.62.55,33.23,33.23,0,0,0,4.47-.14c1.18-.12,2.31-.28,3.29-.45s1.83-.36,2.46-.51C213.08,406.86,215.07,398.54,215.18,393.06Z" />
      <path class="GUNDAN_RED_PANDA_OUTFIT_GUNDAN_RED_PANDA_OUTFIT_5_cls-5" d="M135.61,436.16h0c-.57-1.16-1.25-2.4-2.06-3.71-.27-.46-.57-.93-.88-1.41a18,18,0,0,1-.64-19.24q-2.22-1-4.32-2.05-3.19-1.55-6.17-3.14c-3.29,10.34-6.06,28-6.06,28-1.94,0-4,0-6.25-.14-12.78-.54-30-3.12-49.37-16.43a21.22,21.22,0,0,0-4.39,8.56l1.09.39a3.19,3.19,0,0,1,.68.3c.25.14,25.73,14.75,57.92,14.15.12.93.24,1.91.31,2.91a6.76,6.76,0,0,1-.5,2.93h-1.72a130.22,130.22,0,0,1-59.83-15.07l-.5-.17a48.38,48.38,0,0,0-7.85,11.46l4.44,1c6.36,1.46,18.51,4.25,29.33,6.85,14.87,3.58,31.64.31,33.07,0l.07,0h0a65.51,65.51,0,0,0-3.68,14.9h0a29.77,29.77,0,0,0,9.5,9.62,15.48,15.48,0,0,0,6.26,2.2c4.44.44,7.33-3.43,9.36-8.51a54.91,54.91,0,0,0,1.88-5.73c.58-2.18,1.07-4.37,1.51-6.38s.86-3.86,1.14-5.65a26.63,26.63,0,0,0,.42-5.83A24.48,24.48,0,0,0,135.61,436.16Zm-12.55,29c-.53,2.62-2.12,4.59-3.51,4.39s-2.08-2.47-1.55-5.09,2.12-4.59,3.53-4.39S123.61,462.59,123.06,465.21Zm4.45-19.39c-.55,2.62-2.12,4.59-3.53,4.39s-2.08-2.47-1.54-5.09,2.12-4.59,3.52-4.4S128,443.2,127.51,445.82Z" />
      <path class="GUNDAN_RED_PANDA_OUTFIT_GUNDAN_RED_PANDA_OUTFIT_5_cls-5" d="M213.13,431v49.33H230.2V431c-1.88.05-3.77.08-5.69.08S215,431,213.13,431Z" />
      <path class="GUNDAN_RED_PANDA_OUTFIT_GUNDAN_RED_PANDA_OUTFIT_5_cls-5" d="M390.42,432.09l-.5.17a130.23,130.23,0,0,1-59.84,15.07h-1.71a6.61,6.61,0,0,1-.5-2.93c.07-1,.19-2,.31-2.91,32.18.6,57.66-14,57.91-14.15a3.43,3.43,0,0,1,.68-.3l1.1-.39a21.11,21.11,0,0,0-4.4-8.56,89.93,89.93,0,0,1-49.36,16.43c-2.23.1-4.31.13-6.25.14,0,0-2.78-17.71-6.07-28q-3,1.59-6.16,3.14-2.11,1-4.33,2.05a18,18,0,0,1-.64,19.24c-.31.48-.61,1-.88,1.41-.81,1.31-1.49,2.55-2.06,3.71h0A24.45,24.45,0,0,0,305,446a26.62,26.62,0,0,0,.41,5.83c.29,1.79.71,3.64,1.15,5.65s.92,4.2,1.51,6.38a50.57,50.57,0,0,0,1.88,5.73c2,5.08,4.92,8.95,9.36,8.51a15.43,15.43,0,0,0,6.25-2.2,29.57,29.57,0,0,0,9.5-9.62h0a64.92,64.92,0,0,0-3.68-14.9h0l.07,0c1.43.28,18.19,3.55,33.06,0,10.83-2.6,23-5.39,29.33-6.85l4.44-1A48.1,48.1,0,0,0,390.42,432.09Zm-71.08,18.12c-1.39.2-3-1.77-3.51-4.39s.14-4.91,1.55-5.1,3,1.78,3.51,4.4S320.75,450,319.34,450.21Zm4.44,19.39c-1.4.2-3-1.77-3.52-4.39s.15-4.9,1.55-5.09,3,1.77,3.51,4.39S325.18,469.41,323.78,469.6Z" />
      <path class="GUNDAN_RED_PANDA_OUTFIT_GUNDAN_RED_PANDA_OUTFIT_5_cls-5" d="M194,372.68a13.77,13.77,0,0,0,7.78.1,13.6,13.6,0,0,0,1.84-.69c1.37-.65,2.66-1.25,3.84-1.79-5.75-2.09-11.12-4.36-16.15-6.72a6.08,6.08,0,0,0-2.55,3.85,3.59,3.59,0,0,0,.93,2.62A9.08,9.08,0,0,0,194,372.68Z" />
      <path class="GUNDAN_RED_PANDA_OUTFIT_GUNDAN_RED_PANDA_OUTFIT_5_cls-5" d="M253.6,370.05a3.59,3.59,0,0,0,.93-2.62,6.08,6.08,0,0,0-2.55-3.85c-5,2.36-10.39,4.63-16.14,6.72,1.18.54,2.46,1.14,3.83,1.79a14.25,14.25,0,0,0,1.85.69,13.74,13.74,0,0,0,7.77-.1A9,9,0,0,0,253.6,370.05Z" />
      <path class="GUNDAN_RED_PANDA_OUTFIT_GUNDAN_RED_PANDA_OUTFIT_5_cls-5" d="M186.59,375.79a13.7,13.7,0,0,1-2.78-2.48,9.18,9.18,0,0,1-1.86-3.62c-.72-2.77-.06-6,3.17-9.18C150.64,342.7,140,322.46,140,322.46l-9.53,1.7L126,328.07s-18.93,4.33-20.91,5.86c-1.23.95-9.87,2.06-7.46,5.56-2.36,1.28-.59,6.31-3.91,6.77-5.13.74-2.69,3.41-7.06,8.86-5.13,8.6-5.42,10.8-5.42,10.8l-2.17,3.74c5.33-2.4,14.57-6.08,17.51-8.29h0a47.43,47.43,0,0,1,19.82,6.68c5.48,3.4,12.29,9.95,19.11,16.8,5.33,5.35,10.66,10.9,15.38,15.29,5.39,5.05,10,8.59,12.82,8.59,7.15,0,11.37-2.55,15.33-8.25,3.14-4.52,9.43-17.4,11.88-22.51A18,18,0,0,1,186.59,375.79Z" />
      <path class="GUNDAN_RED_PANDA_OUTFIT_GUNDAN_RED_PANDA_OUTFIT_5_cls-5" d="M326.89,368.05a47.47,47.47,0,0,1,19.83-6.68h0c2.94,2.21,11.83,5,17.16,7.36l2.48-3.18s-4.59-1.83-9.72-10.43c-4.37-5.45-1-12.27-6.13-13a17.81,17.81,0,0,1-7.23-2.25c2.4-3.49-2.09-4.53-3.32-5.48-2-1.53-20.12-7-20.12-7l-4.47-3.91L309,321.13s-16.33,21.57-50.81,39.38c3.24,3.14,3.89,6.41,3.18,9.18a9.07,9.07,0,0,1-1.87,3.62,13.63,13.63,0,0,1-2.77,2.48,18.22,18.22,0,0,1-4.37,2.18c2.45,5.11,8.74,18,11.88,22.51,3.95,5.7,8.18,8.25,15.32,8.25,2.84,0,7.43-3.54,12.83-8.59,4.71-4.39,10-9.94,15.37-15.29C314.6,378,321.41,371.45,326.89,368.05Z" />
      <path class="GUNDAN_RED_PANDA_OUTFIT_GUNDAN_RED_PANDA_OUTFIT_5_cls-4" d="M213.86,361.46c-.3-.13-.62-.28-1-.41a24.25,24.25,0,0,0-9-1.8,20,20,0,0,0-7.24,1.34,21.21,21.21,0,0,0-3.95,2l-1,.66c-.14.11-.28.23-.44.34,5,2.36,10.4,4.63,16.15,6.72l2.22-1c1.62-.75,3-1.39,4.22-1.95a15.05,15.05,0,0,1-.32-3.14A14.88,14.88,0,0,1,213.86,361.46Z" />
      <path class="GUNDAN_RED_PANDA_OUTFIT_GUNDAN_RED_PANDA_OUTFIT_5_cls-4" d="M250.59,362.58a20.83,20.83,0,0,0-3.94-2,20.07,20.07,0,0,0-7.24-1.34,24.31,24.31,0,0,0-9,1.8c-.34.13-.66.28-1,.41a15.82,15.82,0,0,1,.24,2.72,14.4,14.4,0,0,1-.33,3.14l4.22,1.95,2.23,1c5.75-2.09,11.12-4.36,16.14-6.72l-.44-.34C251.21,363,250.89,362.78,250.59,362.58Z" />
      <path class="GUNDAN_RED_PANDA_OUTFIT_GUNDAN_RED_PANDA_OUTFIT_5_cls-4" d="M203,353.45a32.62,32.62,0,0,1,4.23.16c-15.91-8.08-41.71-22.63-56.58-33.53A55.2,55.2,0,0,1,140,322.46s10.61,20.24,45.09,38.05c.11-.12.23-.23.36-.35h0a19.52,19.52,0,0,1,2.84-2.17,27.8,27.8,0,0,1,6.67-3.15A28.12,28.12,0,0,1,203,353.45Z" />
      <path class="GUNDAN_RED_PANDA_OUTFIT_GUNDAN_RED_PANDA_OUTFIT_5_cls-4" d="M296.08,318.28c-14.87,10.89-44,27.25-59.92,35.33a32.55,32.55,0,0,1,4.23-.16A28.89,28.89,0,0,1,255,358a19.39,19.39,0,0,1,2.83,2.17h0c.13.12.25.23.36.35C292.69,342.7,309,321.13,309,321.13A84.94,84.94,0,0,1,296.08,318.28Z" />
      <path class="GUNDAN_RED_PANDA_OUTFIT_GUNDAN_RED_PANDA_OUTFIT_5_cls-6" d="M213.81,384.21a48.67,48.67,0,0,1,2.88-10.79c.11-.26.21-.51.3-.71" />
      <path class="GUNDAN_RED_PANDA_OUTFIT_GUNDAN_RED_PANDA_OUTFIT_5_cls-6" d="M210.27,383.72a51.08,51.08,0,0,1,2.23-9.09" />
      <path class="GUNDAN_RED_PANDA_OUTFIT_GUNDAN_RED_PANDA_OUTFIT_5_cls-6" d="M199.92,409.92a7.13,7.13,0,0,1-2.11-.94A76.89,76.89,0,0,1,202,394.5c2.23-5.37,4.43-9.21,7.25-10.45a5.78,5.78,0,0,1,1-.32h0a5.1,5.1,0,0,1,1.79-.05,5.3,5.3,0,0,1,1.43.38l.32.16a3.21,3.21,0,0,1,1.5,2.77c.15,1.55-.08,3.59-.13,6.08-.11,5.48-2.1,13.8-1.42,16.31-.63.15-1.48.34-2.46.51s-2.11.33-3.29.45a33.23,33.23,0,0,1-4.47.14A15.77,15.77,0,0,1,199.92,409.92Z" />
      <path class="GUNDAN_RED_PANDA_OUTFIT_GUNDAN_RED_PANDA_OUTFIT_5_cls-6" d="M207.5,370.3c-5.75-2.09-11.12-4.36-16.15-6.72" />
      <path class="GUNDAN_RED_PANDA_OUTFIT_GUNDAN_RED_PANDA_OUTFIT_5_cls-6" d="M207.18,353.61c-15.91-8.08-41.71-22.63-56.58-33.53A55.2,55.2,0,0,1,140,322.46s10.61,20.24,45.09,38.05" />
      <path class="GUNDAN_RED_PANDA_OUTFIT_GUNDAN_RED_PANDA_OUTFIT_5_cls-6" d="M140,322.46l-9.53,1.7L126,328.07s-18.93,4.33-20.91,5.86c-1.23.95-9.87,2.06-7.46,5.56,1.45,2.12,18.07,9.59,21.69,11.49,5.89,3.09,18.75,7.68,31.58,10.82,8,2,16,3.35,22.25,3.44" />
      <path class="GUNDAN_RED_PANDA_OUTFIT_GUNDAN_RED_PANDA_OUTFIT_5_cls-6" d="M79.1,369.66l2.17-3.74s.29-2.2,5.42-10.8c4.37-5.45,1.93-8.12,7.06-8.86,3.32-.46,1.55-5.49,3.91-6.77" />
      <path class="GUNDAN_RED_PANDA_OUTFIT_GUNDAN_RED_PANDA_OUTFIT_5_cls-6" d="M96.61,361.37a44.08,44.08,0,0,0-10.34,0" />
      <path class="GUNDAN_RED_PANDA_OUTFIT_GUNDAN_RED_PANDA_OUTFIT_5_cls-6" d="M186.59,375.79c-4.62,11.9-15.33,32.94-22.84,32.94-2.83,0-7.43-3.54-12.82-8.59-4.72-4.39-10.05-9.94-15.38-15.29-6.82-6.85-13.63-13.4-19.11-16.8a47.43,47.43,0,0,0-19.82-6.68" />
      <path class="GUNDAN_RED_PANDA_OUTFIT_GUNDAN_RED_PANDA_OUTFIT_5_cls-6" d="M163.75,408.73c7.15,0,11.37-2.55,15.33-8.25,3.14-4.52,9.43-17.4,11.88-22.51" />
      <path class="GUNDAN_RED_PANDA_OUTFIT_GUNDAN_RED_PANDA_OUTFIT_5_cls-6" d="M112.91,357s35.66,17.43,38,43.16" />
      <path class="GUNDAN_RED_PANDA_OUTFIT_GUNDAN_RED_PANDA_OUTFIT_5_cls-6" d="M96.62,361.37h0c-2.94,2.21-12.18,5.89-17.51,8.29-3.59,1.61-2.84,2.34-6.83,2.81a25.53,25.53,0,0,1-4.94.14c-3.6,7.5-2.66,14.05,2.5,18.78" />
      <path class="GUNDAN_RED_PANDA_OUTFIT_GUNDAN_RED_PANDA_OUTFIT_5_cls-6" d="M71.22,375.1a2.67,2.67,0,0,1,1.44-.47c1.68-.15,5,.46,10.86,4.73a78.94,78.94,0,0,1,7.67,6.5,118.94,118.94,0,0,0,17,12.92c4,2.57,8.44,5.2,13.36,7.82q3,1.59,6.17,3.14,2.1,1,4.32,2.05a211.32,211.32,0,0,0,25.76,9.87c2,.64,4.1,1.24,6.2,1.84,1.52.42,3.07.82,4.63,1.22q4.17,1,8.49,2c2.31.48,4.64.93,7,1.34a204.7,204.7,0,0,0,29,2.92c1.88.05,9.47.08,11.38.08" />
      <path class="GUNDAN_RED_PANDA_OUTFIT_GUNDAN_RED_PANDA_OUTFIT_5_cls-6" d="M83.52,379.36c-2.32,2.73-10.16,7.47-13.69,12A60.52,60.52,0,0,0,65.24,398c-3,5.43-.93,14.51-1.13,15.35-.11.4-2.14,2.14-4.25,4.77" />
      <path class="GUNDAN_RED_PANDA_OUTFIT_GUNDAN_RED_PANDA_OUTFIT_5_cls-6" d="M111.91,451.44c-1.43.28-18.2,3.55-33.07,0-10.82-2.6-23-5.39-29.33-6.85l-4.44-1a48.38,48.38,0,0,1,7.85-11.46" />
      <path class="GUNDAN_RED_PANDA_OUTFIT_GUNDAN_RED_PANDA_OUTFIT_5_cls-6" d="M55.47,426.64a21.22,21.22,0,0,1,4.39-8.56c19.39,13.31,36.59,15.89,49.37,16.43,2.22.1,4.31.13,6.25.14-1,1.61-.68,4.05-.32,6.83.12.93.24,1.91.31,2.91a6.76,6.76,0,0,1-.5,2.93,11.18,11.18,0,0,1-3,4.09" />
      <path class="GUNDAN_RED_PANDA_OUTFIT_GUNDAN_RED_PANDA_OUTFIT_5_cls-6" d="M88.57,412.55c.3.41,7.38,10,9.35,15.53" />
      <path class="GUNDAN_RED_PANDA_OUTFIT_GUNDAN_RED_PANDA_OUTFIT_5_cls-6" d="M88.56,412.54h0c.24.11,4.24,2,10.29,8.58a115.66,115.66,0,0,1,10.37,13.38" />
      <path class="GUNDAN_RED_PANDA_OUTFIT_GUNDAN_RED_PANDA_OUTFIT_5_cls-6" d="M115.16,441.48c-32.19.6-57.67-14-57.92-14.15a3.19,3.19,0,0,0-.68-.3l-1.09-.39a12,12,0,0,0-.31,3.06c-.8.8-1.55,1.61-2.24,2.39l.5.17a130.22,130.22,0,0,0,59.83,15.07H115" />
      <path class="GUNDAN_RED_PANDA_OUTFIT_GUNDAN_RED_PANDA_OUTFIT_5_cls-6" d="M132,411.79a18,18,0,0,0,.64,19.24c.31.48.61,1,.88,1.41.81,1.31,1.49,2.55,2.06,3.71" />
      <path class="GUNDAN_RED_PANDA_OUTFIT_GUNDAN_RED_PANDA_OUTFIT_5_cls-6" d="M117.82,475.94c8.32-.6,12.08-12.41,14.58-22.53s-1.67-15.59-6.11-25.33c-3.3-7.22-.32-14.87,1.42-18.34" />
      <path class="GUNDAN_RED_PANDA_OUTFIT_GUNDAN_RED_PANDA_OUTFIT_5_cls-6" d="M138,451.87c1,.06,2.42.12,4.07.12a61.63,61.63,0,0,0,6.8-.36,52.54,52.54,0,0,0,10.74-2.21,37.32,37.32,0,0,0,7.79-3.5c.6-.35,1.17-.72,1.74-1.12.37-.25.74-.51,1.09-.79,1.65-1.25,3.11-2.47,4.43-3.66.87-.81,1.69-1.59,2.43-2.36a39.28,39.28,0,0,0,5.53-7,29.18,29.18,0,0,0,1.55-2.92" />
      <path class="GUNDAN_RED_PANDA_OUTFIT_GUNDAN_RED_PANDA_OUTFIT_5_cls-6" d="M138.39,446a57.73,57.73,0,0,0,9.08-.16,44.93,44.93,0,0,0,9.45-1.89,28.39,28.39,0,0,0,7.77-3.78l.64-.46c.6-.46,1.18-.91,1.72-1.35a50.65,50.65,0,0,0,4.76-4.41c.36-.38.7-.74,1-1.1a31.91,31.91,0,0,0,3.25-4.34c.43-.7.78-1.33,1-1.86" />
      <path class="GUNDAN_RED_PANDA_OUTFIT_GUNDAN_RED_PANDA_OUTFIT_5_cls-6" d="M167.05,438.4a30.32,30.32,0,0,0-2.58-7.12,42.49,42.49,0,0,0-3.56-5.76c-1.14-1.56-2.23-2.86-3.12-3.86" />
      <path class="GUNDAN_RED_PANDA_OUTFIT_GUNDAN_RED_PANDA_OUTFIT_5_cls-6" d="M172.82,432.89c-.36-1-.77-1.95-1.21-2.88a44.27,44.27,0,0,0-3-5.29" />
      <path class="GUNDAN_RED_PANDA_OUTFIT_GUNDAN_RED_PANDA_OUTFIT_5_cls-6" d="M135.55,384.85A30.24,30.24,0,0,1,120,397.28a31.41,31.41,0,0,1-11.79,1.5" />
      <path class="GUNDAN_RED_PANDA_OUTFIT_GUNDAN_RED_PANDA_OUTFIT_5_cls-6" d="M224.51,424.18c-22.81,0-47.34-3.19-62.32-7.45h0q-3-.84-5.76-1.75c-19.79-6.36-31.84-14.3-36.45-17.7" />
      <path class="GUNDAN_RED_PANDA_OUTFIT_GUNDAN_RED_PANDA_OUTFIT_5_cls-6" d="M112,404.91c-1,8.74,3.48,29.74,3.48,29.74s2.77-17.71,6.06-28" />
      <path class="GUNDAN_RED_PANDA_OUTFIT_GUNDAN_RED_PANDA_OUTFIT_5_cls-6" d="M150.93,361.8s16.51,11.92,20.86,23.51" />
      <path class="GUNDAN_RED_PANDA_OUTFIT_GUNDAN_RED_PANDA_OUTFIT_5_cls-6" d="M130.5,324.16s4.06,7.56,7,10.11" />
      <path class="GUNDAN_RED_PANDA_OUTFIT_GUNDAN_RED_PANDA_OUTFIT_5_cls-6" d="M107.2,333S118,345.54,133.78,349a130.2,130.2,0,0,1,28.16,9.62" />
      <polyline class="GUNDAN_RED_PANDA_OUTFIT_GUNDAN_RED_PANDA_OUTFIT_5_cls-6" points="213.13 480.28 213.13 473.31 213.13 456.57 213.13 439.83 213.13 430.95" />
      <path class="GUNDAN_RED_PANDA_OUTFIT_GUNDAN_RED_PANDA_OUTFIT_5_cls-6" d="M137.15,419.85s-2.3,7.69-3.6,12.59" />
      <path class="GUNDAN_RED_PANDA_OUTFIT_GUNDAN_RED_PANDA_OUTFIT_5_cls-6" d="M138.41,427s-1.82,5.6-2.8,9.16h0" />
      <ellipse class="GUNDAN_RED_PANDA_OUTFIT_GUNDAN_RED_PANDA_OUTFIT_5_cls-6" cx="89.28" cy="375.01" rx="3.23" ry="2.63" />
      <path class="GUNDAN_RED_PANDA_OUTFIT_GUNDAN_RED_PANDA_OUTFIT_5_cls-6" d="M115.07,393a3,3,0,0,1-3.21,2.63c-1.79,0-3.23-1.17-3.23-2.63s1.44-2.63,3.23-2.63A3,3,0,0,1,115.07,393Z" />
      <path class="GUNDAN_RED_PANDA_OUTFIT_GUNDAN_RED_PANDA_OUTFIT_5_cls-6" d="M185.48,360.16c-.13.12-.25.23-.36.35-3.23,3.14-3.89,6.41-3.17,9.18a9.18,9.18,0,0,0,1.86,3.62,13.7,13.7,0,0,0,2.78,2.48A18,18,0,0,0,191,378c.53.19,1.09.37,1.65.51a22.27,22.27,0,0,0,5.47.68,22,22,0,0,0,9.16-2l4.4-2.09.86-.42c1.06-.51,2.12-1,3.13-1.54l1.11-.57" />
      <path class="GUNDAN_RED_PANDA_OUTFIT_GUNDAN_RED_PANDA_OUTFIT_5_cls-6" d="M214.07,355.08a33,33,0,0,0-6.89-1.47,32.62,32.62,0,0,0-4.23-.16,28.12,28.12,0,0,0-7.95,1.39,27.8,27.8,0,0,0-6.67,3.15,19.52,19.52,0,0,0-2.84,2.17" />
      <path class="GUNDAN_RED_PANDA_OUTFIT_GUNDAN_RED_PANDA_OUTFIT_5_cls-6" d="M216.54,356c-.77-.32-1.6-.63-2.47-.91" />
      <path class="GUNDAN_RED_PANDA_OUTFIT_GUNDAN_RED_PANDA_OUTFIT_5_cls-6" d="M213.94,367.32c-1.19.56-2.6,1.2-4.22,1.95l-2.22,1c-1.18.54-2.47,1.14-3.84,1.79a13.6,13.6,0,0,1-1.84.69,13.77,13.77,0,0,1-7.78-.1,9.08,9.08,0,0,1-4.31-2.63,3.59,3.59,0,0,1-.93-2.62,6.08,6.08,0,0,1,2.55-3.85c.16-.11.3-.23.44-.34l1-.66a21.21,21.21,0,0,1,3.95-2,20,20,0,0,1,7.24-1.34,24.25,24.25,0,0,1,9,1.8c.35.13.67.28,1,.41" />
      <path class="GUNDAN_RED_PANDA_OUTFIT_GUNDAN_RED_PANDA_OUTFIT_5_cls-6" d="M214.07,355.08h0c.83,1.8,1.13,4.12-1.18,6" />
      <path class="GUNDAN_RED_PANDA_OUTFIT_GUNDAN_RED_PANDA_OUTFIT_5_cls-6" d="M203,353.45c1.42,1.25,2.85,3.32,1,5.8" />
      <path class="GUNDAN_RED_PANDA_OUTFIT_GUNDAN_RED_PANDA_OUTFIT_5_cls-6" d="M195,354.84c1,1.38,2.31,3.6,1.69,5.75" />
      <path class="GUNDAN_RED_PANDA_OUTFIT_GUNDAN_RED_PANDA_OUTFIT_5_cls-6" d="M185.48,360.16h0c2.49-.27,5.21.2,6.3,3.08" />
      <path class="GUNDAN_RED_PANDA_OUTFIT_GUNDAN_RED_PANDA_OUTFIT_5_cls-6" d="M182,369.69c1.65-2,4.76-2.33,6.85-2.26" />
      <path class="GUNDAN_RED_PANDA_OUTFIT_GUNDAN_RED_PANDA_OUTFIT_5_cls-6" d="M192.61,378.48a5.28,5.28,0,0,1,1.43-5.8" />
      <path class="GUNDAN_RED_PANDA_OUTFIT_GUNDAN_RED_PANDA_OUTFIT_5_cls-6" d="M203.54,378.46a6.42,6.42,0,0,1-1.72-5.68" />
      <path class="GUNDAN_RED_PANDA_OUTFIT_GUNDAN_RED_PANDA_OUTFIT_5_cls-6" d="M209.72,369.27a12.65,12.65,0,0,0,.21,1.9h0a8.5,8.5,0,0,0,1.7,3.88" />
      <path class="GUNDAN_RED_PANDA_OUTFIT_GUNDAN_RED_PANDA_OUTFIT_5_cls-6" d="M176.07,428.55c2,0,4.79.45,6.52,2.4" />
      <path class="GUNDAN_RED_PANDA_OUTFIT_GUNDAN_RED_PANDA_OUTFIT_5_cls-6" d="M164.47,431.28a10.39,10.39,0,0,1,7.14-1.27" />
      <path class="GUNDAN_RED_PANDA_OUTFIT_GUNDAN_RED_PANDA_OUTFIT_5_cls-6" d="M160.91,425.52a10,10,0,0,1,3.08-2" />
      <path class="GUNDAN_RED_PANDA_OUTFIT_GUNDAN_RED_PANDA_OUTFIT_5_cls-6" d="M199.92,409.91s4.08-16,9.35-25.85" />
      <path class="GUNDAN_RED_PANDA_OUTFIT_GUNDAN_RED_PANDA_OUTFIT_5_cls-6" d="M203.54,410.47s5.14-20.12,8.52-26.8" />
      <path class="GUNDAN_RED_PANDA_OUTFIT_GUNDAN_RED_PANDA_OUTFIT_5_cls-6" d="M213.49,384.06s-5.88,18.85-5.48,26.26" />
      <path class="GUNDAN_RED_PANDA_OUTFIT_GUNDAN_RED_PANDA_OUTFIT_5_cls-6" d="M211.3,409.87s.93-16.22,4-22.89" />
      <path class="GUNDAN_RED_PANDA_OUTFIT_GUNDAN_RED_PANDA_OUTFIT_5_cls-6" d="M226.35,372.71c.08.2.19.45.29.71a48,48,0,0,1,2.89,10.79" />
      <path class="GUNDAN_RED_PANDA_OUTFIT_GUNDAN_RED_PANDA_OUTFIT_5_cls-6" d="M230.84,374.63a52.06,52.06,0,0,1,2.22,9.09" />
      <path class="GUNDAN_RED_PANDA_OUTFIT_GUNDAN_RED_PANDA_OUTFIT_5_cls-6" d="M243.41,409.92a7.19,7.19,0,0,0,2.12-.94,77.36,77.36,0,0,0-4.22-14.48c-2.22-5.37-4.43-9.21-7.25-10.45a5.28,5.28,0,0,0-1-.32h0a5,5,0,0,0-1.78-.05,5.2,5.2,0,0,0-1.43.38l-.32.16A3.19,3.19,0,0,0,228,387c-.16,1.55.08,3.59.13,6.08.1,5.48,2.09,13.8,1.41,16.31.63.15,1.48.34,2.47.51s2.11.33,3.28.45a33.28,33.28,0,0,0,4.47.14A15.69,15.69,0,0,0,243.41,409.92Z" />
      <path class="GUNDAN_RED_PANDA_OUTFIT_GUNDAN_RED_PANDA_OUTFIT_5_cls-6" d="M252,363.58c-5,2.36-10.39,4.63-16.14,6.72" />
      <path class="GUNDAN_RED_PANDA_OUTFIT_GUNDAN_RED_PANDA_OUTFIT_5_cls-6" d="M258.21,360.51C292.69,342.7,309,321.13,309,321.13a84.94,84.94,0,0,1-12.94-2.85c-14.87,10.89-44,27.25-59.92,35.33" />
      <path class="GUNDAN_RED_PANDA_OUTFIT_GUNDAN_RED_PANDA_OUTFIT_5_cls-6" d="M309,321.13l6.36,2.33,4.47,3.91s18.15,5.48,20.12,7c1.23.95,5.72,2,3.32,5.48C341.82,342,327.59,349.08,324,351c-5.89,3.09-18.74,7.68-31.56,10.82-8,2-16,3.35-22.26,3.44" />
      <path class="GUNDAN_RED_PANDA_OUTFIT_GUNDAN_RED_PANDA_OUTFIT_5_cls-6" d="M343.29,339.86a17.81,17.81,0,0,0,7.23,2.25c5.14.74,1.76,7.56,6.13,13,5.13,8.6,9.72,10.43,9.72,10.43l-2.48,3.18" />
      <path class="GUNDAN_RED_PANDA_OUTFIT_GUNDAN_RED_PANDA_OUTFIT_5_cls-6" d="M346.72,361.37a47.47,47.47,0,0,0-19.83,6.68c-5.48,3.4-12.29,9.95-19.11,16.8-5.32,5.35-10.66,10.9-15.37,15.29-5.4,5.05-10,8.59-12.83,8.59-7.51,0-18.21-21-22.83-32.94" />
      <path class="GUNDAN_RED_PANDA_OUTFIT_GUNDAN_RED_PANDA_OUTFIT_5_cls-6" d="M357.06,361.34a44,44,0,0,0-10.33,0" />
      <path class="GUNDAN_RED_PANDA_OUTFIT_GUNDAN_RED_PANDA_OUTFIT_5_cls-6" d="M252.38,378c2.45,5.11,8.74,18,11.88,22.51,3.95,5.7,8.18,8.25,15.32,8.25" />
      <path class="GUNDAN_RED_PANDA_OUTFIT_GUNDAN_RED_PANDA_OUTFIT_5_cls-6" d="M330.43,357s-35.68,17.43-38,43.16" />
      <path class="GUNDAN_RED_PANDA_OUTFIT_GUNDAN_RED_PANDA_OUTFIT_5_cls-6" d="M370.05,391.88c5.17-4.73,9.55-11.77,6-19.27a25.51,25.51,0,0,1-4.94-.14c-4-.47-3.59-2.13-7.18-3.74-5.33-2.4-14.22-5.15-17.16-7.36h0" />
      <path class="GUNDAN_RED_PANDA_OUTFIT_GUNDAN_RED_PANDA_OUTFIT_5_cls-6" d="M372.11,375.1a2.62,2.62,0,0,0-1.44-.47c-1.69-.15-5,.45-10.86,4.73a78.67,78.67,0,0,0-7.68,6.5,118.36,118.36,0,0,1-17,12.92c-4,2.57-8.44,5.2-13.35,7.82q-3,1.59-6.16,3.14-2.11,1-4.33,2.05a210.52,210.52,0,0,1-25.75,9.87c-2,.64-4.11,1.24-6.2,1.84-1.53.42-3.08.82-4.64,1.22q-4.15,1-8.49,2c-2.31.48-4.64.93-7,1.34a205,205,0,0,1-29,2.92c-1.88.05-3.77.08-5.69.08" />
      <path class="GUNDAN_RED_PANDA_OUTFIT_GUNDAN_RED_PANDA_OUTFIT_5_cls-6" d="M383.47,418.08c-2.1-2.63-4.14-4.37-4.25-4.77-.2-.84-1.56-9.42-4.57-14.86a61.42,61.42,0,0,0-4.6-6.57c-3.52-4.56-7.91-9.79-10.24-12.52" />
      <path class="GUNDAN_RED_PANDA_OUTFIT_GUNDAN_RED_PANDA_OUTFIT_5_cls-6" d="M331.33,451.41a11.09,11.09,0,0,1-3-4.09,6.61,6.61,0,0,1-.5-2.93c.07-1,.19-2,.31-2.91.35-2.78.7-5.22-.32-6.83,1.94,0,4,0,6.25-.14a89.93,89.93,0,0,0,49.36-16.43,21.11,21.11,0,0,1,4.4,8.56" />
      <path class="GUNDAN_RED_PANDA_OUTFIT_GUNDAN_RED_PANDA_OUTFIT_5_cls-6" d="M390.42,432.09a48.1,48.1,0,0,1,7.84,11.46l-4.44,1c-6.36,1.46-18.5,4.25-29.33,6.85-14.87,3.58-31.63.31-33.06,0" />
      <path class="GUNDAN_RED_PANDA_OUTFIT_GUNDAN_RED_PANDA_OUTFIT_5_cls-6" d="M345.42,428.08c2-5.52,9.05-15.12,9.35-15.53" />
      <path class="GUNDAN_RED_PANDA_OUTFIT_GUNDAN_RED_PANDA_OUTFIT_5_cls-6" d="M334.11,434.51a113.41,113.41,0,0,1,10.37-13.38c6-6.58,10-8.47,10.29-8.58h0" />
      <path class="GUNDAN_RED_PANDA_OUTFIT_GUNDAN_RED_PANDA_OUTFIT_5_cls-6" d="M328.37,447.32h1.71a130.23,130.23,0,0,0,59.84-15.07l.5-.17c-.69-.78-1.44-1.59-2.24-2.39a12.92,12.92,0,0,0-.31-3.06l-1.1.39a3.43,3.43,0,0,0-.68.3c-.25.14-25.73,14.75-57.91,14.15" />
      <path class="GUNDAN_RED_PANDA_OUTFIT_GUNDAN_RED_PANDA_OUTFIT_5_cls-6" d="M335,466.31h0a29.57,29.57,0,0,1-9.5,9.62,15.43,15.43,0,0,1-6.25,2.2c-4.44.44-7.34-3.43-9.36-8.51A50.57,50.57,0,0,1,308,463.9c-.59-2.18-1.07-4.37-1.51-6.38s-.86-3.86-1.15-5.65A26.62,26.62,0,0,1,305,446a24.45,24.45,0,0,1,2.77-9.88h0c.57-1.16,1.25-2.4,2.06-3.71.27-.46.57-.93.88-1.41a18,18,0,0,0,.64-19.24" />
      <path class="GUNDAN_RED_PANDA_OUTFIT_GUNDAN_RED_PANDA_OUTFIT_5_cls-6" d="M315.63,409.74c1.74,3.47,4.71,11.12,1.41,18.34-4.44,9.74-8.59,15.21-6.1,25.33s6.26,21.93,14.57,22.53" />
      <path class="GUNDAN_RED_PANDA_OUTFIT_GUNDAN_RED_PANDA_OUTFIT_5_cls-6" d="M259.2,428a29.18,29.18,0,0,0,1.55,2.92,39.62,39.62,0,0,0,5.52,7c.74.77,1.56,1.55,2.43,2.36,1.32,1.19,2.79,2.41,4.43,3.66.36.28.73.54,1.1.79.57.4,1.14.77,1.73,1.12a37.56,37.56,0,0,0,7.79,3.5,52.67,52.67,0,0,0,10.74,2.21,61.87,61.87,0,0,0,6.8.36c1.66,0,3-.06,4.07-.12" />
      <path class="GUNDAN_RED_PANDA_OUTFIT_GUNDAN_RED_PANDA_OUTFIT_5_cls-6" d="M266.22,426.69c.27.53.61,1.16,1,1.86a31.91,31.91,0,0,0,3.25,4.34c.31.36.66.72,1,1.1a49.65,49.65,0,0,0,4.77,4.41c.53.44,1.11.89,1.71,1.35l.64.46a28.31,28.31,0,0,0,7.78,3.78,44.72,44.72,0,0,0,9.44,1.89A57.86,57.86,0,0,0,305,446" />
      <path class="GUNDAN_RED_PANDA_OUTFIT_GUNDAN_RED_PANDA_OUTFIT_5_cls-6" d="M285.55,421.66a49.29,49.29,0,0,0-3.12,3.86,41.52,41.52,0,0,0-3.56,5.76,29.45,29.45,0,0,0-2.58,7.12" />
      <path class="GUNDAN_RED_PANDA_OUTFIT_GUNDAN_RED_PANDA_OUTFIT_5_cls-6" d="M274.71,424.72a42.9,42.9,0,0,0-3,5.29c-.45.93-.85,1.88-1.22,2.88" />
      <path class="GUNDAN_RED_PANDA_OUTFIT_GUNDAN_RED_PANDA_OUTFIT_5_cls-6" d="M335.15,398.78h0a31.28,31.28,0,0,1-11.77-1.5,30.27,30.27,0,0,1-15.59-12.43" />
      <path class="GUNDAN_RED_PANDA_OUTFIT_GUNDAN_RED_PANDA_OUTFIT_5_cls-6" d="M323.37,397.28c-4.61,3.4-16.66,11.34-36.45,17.7q-2.79.91-5.76,1.75h0a206.43,206.43,0,0,1-56.63,7.45" />
      <path class="GUNDAN_RED_PANDA_OUTFIT_GUNDAN_RED_PANDA_OUTFIT_5_cls-6" d="M321.79,406.6c3.29,10.34,6.07,28,6.07,28s4.48-21,3.47-29.74" />
      <path class="GUNDAN_RED_PANDA_OUTFIT_GUNDAN_RED_PANDA_OUTFIT_5_cls-6" d="M292.41,361.8s-16.52,11.92-20.86,23.51" />
      <path class="GUNDAN_RED_PANDA_OUTFIT_GUNDAN_RED_PANDA_OUTFIT_5_cls-6" d="M315.38,323.46s-12.32,11.38-15.23,13.93" />
      <path class="GUNDAN_RED_PANDA_OUTFIT_GUNDAN_RED_PANDA_OUTFIT_5_cls-6" d="M337.89,333.48S325.37,345.54,309.55,349a130.2,130.2,0,0,0-28.16,9.62" />
      <polyline class="GUNDAN_RED_PANDA_OUTFIT_GUNDAN_RED_PANDA_OUTFIT_5_cls-6" points="230.21 430.95 230.21 439.83 230.21 456.57 230.21 473.31 230.21 480.28" />
      <path class="GUNDAN_RED_PANDA_OUTFIT_GUNDAN_RED_PANDA_OUTFIT_5_cls-6" d="M306.18,419.85s2.29,7.69,3.6,12.59" />
      <path class="GUNDAN_RED_PANDA_OUTFIT_GUNDAN_RED_PANDA_OUTFIT_5_cls-6" d="M304.92,427s1.82,5.61,2.79,9.17" />
      <ellipse class="GUNDAN_RED_PANDA_OUTFIT_GUNDAN_RED_PANDA_OUTFIT_5_cls-6" cx="354.05" cy="375.01" rx="3.23" ry="2.63" />
      <ellipse class="GUNDAN_RED_PANDA_OUTFIT_GUNDAN_RED_PANDA_OUTFIT_5_cls-6" cx="331.48" cy="393.04" rx="3.23" ry="2.63" />
      <path class="GUNDAN_RED_PANDA_OUTFIT_GUNDAN_RED_PANDA_OUTFIT_5_cls-6" d="M229.48,361.46c.3-.13.62-.28,1-.41a24.31,24.31,0,0,1,9-1.8,20.07,20.07,0,0,1,7.24,1.34,20.83,20.83,0,0,1,3.94,2c.3.2.62.42.95.66l.44.34a6.08,6.08,0,0,1,2.55,3.85,3.59,3.59,0,0,1-.93,2.62,9,9,0,0,1-4.31,2.63,13.74,13.74,0,0,1-7.77.1,14.25,14.25,0,0,1-1.85-.69c-1.37-.65-2.65-1.25-3.83-1.79l-2.23-1-4.22-1.95" />
      <path class="GUNDAN_RED_PANDA_OUTFIT_GUNDAN_RED_PANDA_OUTFIT_5_cls-6" d="M229.26,355.09c-.87.28-1.7.59-2.46.91" />
      <path class="GUNDAN_RED_PANDA_OUTFIT_GUNDAN_RED_PANDA_OUTFIT_5_cls-6" d="M257.84,360.16A19.39,19.39,0,0,0,255,358a28.89,28.89,0,0,0-14.62-4.54,32.55,32.55,0,0,0-4.23.16,33.07,33.07,0,0,0-6.9,1.47" />
      <path class="GUNDAN_RED_PANDA_OUTFIT_GUNDAN_RED_PANDA_OUTFIT_5_cls-6" d="M226.6,372.52l1.1.57,3.14,1.54c.28.14.57.27.85.42,1.59.76,3.12,1.49,4.41,2.09a20.9,20.9,0,0,0,3.69,1.32,21.16,21.16,0,0,0,5.47.7,22.19,22.19,0,0,0,5.46-.68c.56-.14,1.12-.32,1.66-.51a18.22,18.22,0,0,0,4.37-2.18,13.63,13.63,0,0,0,2.77-2.48,9.07,9.07,0,0,0,1.87-3.62c.71-2.77.06-6-3.18-9.18-.11-.12-.23-.23-.36-.35" />
      <path class="GUNDAN_RED_PANDA_OUTFIT_GUNDAN_RED_PANDA_OUTFIT_5_cls-6" d="M230.44,361.05c-2.31-1.84-2-4.16-1.18-6h0" />
      <path class="GUNDAN_RED_PANDA_OUTFIT_GUNDAN_RED_PANDA_OUTFIT_5_cls-6" d="M239.41,359.25c-1.87-2.48-.44-4.55,1-5.8" />
      <path class="GUNDAN_RED_PANDA_OUTFIT_GUNDAN_RED_PANDA_OUTFIT_5_cls-6" d="M246.65,360.59c-.62-2.15.64-4.37,1.69-5.75" />
      <path class="GUNDAN_RED_PANDA_OUTFIT_GUNDAN_RED_PANDA_OUTFIT_5_cls-6" d="M251.54,363.24c1.1-2.88,3.81-3.35,6.3-3.08h0" />
      <path class="GUNDAN_RED_PANDA_OUTFIT_GUNDAN_RED_PANDA_OUTFIT_5_cls-6" d="M254.53,367.43c2.1-.07,5.2.23,6.86,2.26" />
      <path class="GUNDAN_RED_PANDA_OUTFIT_GUNDAN_RED_PANDA_OUTFIT_5_cls-6" d="M249.29,372.68a5.28,5.28,0,0,1,1.43,5.8" />
      <path class="GUNDAN_RED_PANDA_OUTFIT_GUNDAN_RED_PANDA_OUTFIT_5_cls-6" d="M241.52,372.78a6.45,6.45,0,0,1-1.73,5.68" />
      <path class="GUNDAN_RED_PANDA_OUTFIT_GUNDAN_RED_PANDA_OUTFIT_5_cls-6" d="M231.69,375.05a8.42,8.42,0,0,0,1.71-3.88h0a11.38,11.38,0,0,0,.2-1.9" />
      <path class="GUNDAN_RED_PANDA_OUTFIT_GUNDAN_RED_PANDA_OUTFIT_5_cls-6" d="M260.75,431c1.72-1.95,4.56-2.37,6.51-2.4" />
      <path class="GUNDAN_RED_PANDA_OUTFIT_GUNDAN_RED_PANDA_OUTFIT_5_cls-6" d="M271.73,430a10.4,10.4,0,0,1,7.14,1.27" />
      <path class="GUNDAN_RED_PANDA_OUTFIT_GUNDAN_RED_PANDA_OUTFIT_5_cls-6" d="M279.35,423.5a10.09,10.09,0,0,1,3.08,2" />
      <path class="GUNDAN_RED_PANDA_OUTFIT_GUNDAN_RED_PANDA_OUTFIT_5_cls-6" d="M243.41,409.91s-4.07-16-9.35-25.85" />
      <path class="GUNDAN_RED_PANDA_OUTFIT_GUNDAN_RED_PANDA_OUTFIT_5_cls-6" d="M239.79,410.47s-5.13-20.12-8.51-26.8" />
      <path class="GUNDAN_RED_PANDA_OUTFIT_GUNDAN_RED_PANDA_OUTFIT_5_cls-6" d="M229.85,384.06s5.88,18.85,5.47,26.26" />
      <path class="GUNDAN_RED_PANDA_OUTFIT_GUNDAN_RED_PANDA_OUTFIT_5_cls-6" d="M232,409.87s-.93-16.22-4-22.89" />
      <path class="GUNDAN_RED_PANDA_OUTFIT_GUNDAN_RED_PANDA_OUTFIT_5_cls-6" d="M229.48,361.46a15.82,15.82,0,0,1,.24,2.72,14.4,14.4,0,0,1-.33,3.14,8.78,8.78,0,0,1-2.79,5.2l-.25.19a3.28,3.28,0,0,1-1.84.58c-.64,0-6.95-.2-7.52-.58l-.25-.19a8.73,8.73,0,0,1-2.8-5.2,15.05,15.05,0,0,1-.32-3.14,14.88,14.88,0,0,1,.24-2.72,9.37,9.37,0,0,1,2.68-5.46c.69-.59,7.15-.92,8-.92a3.52,3.52,0,0,1,2.29.92A9.49,9.49,0,0,1,229.48,361.46Z" />
      <path class="GUNDAN_RED_PANDA_OUTFIT_GUNDAN_RED_PANDA_OUTFIT_5_cls-6" d="M197.41,436a2.28,2.28,0,0,1-.27,1.08,3.43,3.43,0,0,1-3.1,1.68c-1.85,0-3.37-1.24-3.37-2.76s1.52-2.75,3.37-2.75S197.41,434.47,197.41,436Z" />
      <path class="GUNDAN_RED_PANDA_OUTFIT_GUNDAN_RED_PANDA_OUTFIT_5_cls-6" d="M252.66,436c0,1.52-1.51,2.76-3.37,2.76a3.43,3.43,0,0,1-3.09-1.68,2.29,2.29,0,0,1-.28-1.08c0-1.52,1.51-2.75,3.37-2.75S252.66,434.47,252.66,436Z" />
      <g class="GUNDAN_RED_PANDA_OUTFIT_GUNDAN_RED_PANDA_OUTFIT_5_cls-7">
        <path d="M147.35,321.25s22.82,21.07,39.24,28.2C163,338.67,151.1,332.23,151.1,332.23s31.69,20.48,39.72,24.33c.53,4.1,3.32,1.86,3.9,4.89s8.23,4.82,8.23,4.82l7.54,2.64-3,1.39a198.42,198.42,0,0,1-44.17-23c-22.86-15.8-23.3-24.87-23.3-24.87Z" />
        <path d="M130.2,324.42l-4,3.69-19.52,5.09s-2.75.41-2.42,2.78-6.61,3.78-6.61,3.78-1,6-5.92,6.79-.95,4.13-4,7.23-6.5,12.14-6.5,12.14l-2.4,3.84s-1.16,2.62-5.91,2.62a32.89,32.89,0,0,0-5.63.23s-2.67,6.26.5,11.61,1.65,6.84,1.65,6.84-1.52,7.71-2.81,12.05-1.86,9.58-3.4,11.2-7.07,6.94-8.11,15a99.2,99.2,0,0,0-10,14l4.34,1.22s.54,3.39-1.53,4.7-6.37,3.74-7.19,6.21c6.61-2.08,24.56-2.08,24.56-2.08S38.8,461,38.67,461.21,35.5,465,35.5,465v5.78l-2.87,9.52h93.8l2-3.3s2.41-6,5-15.1,3.51-22.21-.78-30-3.39-18.1-2.07-20.82c16.09,5.77,51.61,22.07,106.16,19.44-17-1.27-55.6-4.64-76.1-14.25,54.21,8.74,96.1,5.37,96.1,5.37s-57.39-8-66.08-16.75,7.48-25.73,7.48-25.73-12.42-1.79-15.64-7.91,2.32-10.46,2.32-10.46-27.76-16.75-39.49-26.26-4.63-11.24-4.63-11.24Z" />
        <path d="M181,427.57s-8.32,11.95-17.06,16.14-25.57,4.64-25.57,4.64l-.41,3.52s21.07,1.28,31.09-7.12,13.9-12.93,15.35-16.44A12,12,0,0,0,181,427.57Z" />
        <path d="M165.73,424s7.88,12.26,4.78,23.36-19.81,22.49-36,17.53l.72-.75s21.22,1.87,29.29-11-2.18-27.06-7.63-32C163.53,423.16,165.73,424,165.73,424Z" />
        <path d="M298.42,319.45s-58.65,40-35.62,27.91,25.52-13.76,25.52-13.76l-33.15,24.11,3,2.8s43.74-27,50.81-39.95A29.74,29.74,0,0,0,298.42,319.45Z" />
        <path d="M311.3,411.79a16,16,0,0,1-.17,17.85c-6.3,9.31-7.22,17.27-5,26.21s4.82,21.27,10.83,22.1,8-1.66,8-1.66S314,473,311.75,461.37s-4.06-21.47,1.09-29.8,5.25-16.87,2.5-21.83C314.23,410.42,311.3,411.79,311.3,411.79Z" />
      </g>
    </g>
  </g>
</svg>