<svg xmlns="http://www.w3.org/2000/svg" viewBox="0 0 432 432">
  <defs>
    <style>.GUNDAN_RED_PANDA_OUTFIT_GUNDAN_RED_PANDA_OUTFIT_10_cls-1{isolation:isolate;}.GUNDAN_RED_PANDA_OUTFIT_GUNDAN_RED_PANDA_OUTFIT_10_cls-2{fill:#fff;}.GUNDAN_RED_PANDA_OUTFIT_GUNDAN_RED_PANDA_OUTFIT_10_cls-3{fill:#eaaea2;}.GUNDAN_RED_PANDA_OUTFIT_GUNDAN_RED_PANDA_OUTFIT_10_cls-4{fill:#6f3d33;}.GUNDAN_RED_PANDA_OUTFIT_GUNDAN_RED_PANDA_OUTFIT_10_cls-5{fill:#d76b46;}.GUNDAN_RED_PANDA_OUTFIT_GUNDAN_RED_PANDA_OUTFIT_10_cls-6{fill:#0f2327;}.GUNDAN_RED_PANDA_OUTFIT_GUNDAN_RED_PANDA_OUTFIT_10_cls-7{fill:#746b46;}.GUNDAN_RED_PANDA_OUTFIT_GUNDAN_RED_PANDA_OUTFIT_10_cls-8{fill:none;stroke:#000;stroke-linecap:round;stroke-linejoin:round;stroke-width:2px;}.GUNDAN_RED_PANDA_OUTFIT_GUNDAN_RED_PANDA_OUTFIT_10_cls-9{opacity:0.22;mix-blend-mode:multiply;}</style>
  </defs>
  <g class="GUNDAN_RED_PANDA_OUTFIT_GUNDAN_RED_PANDA_OUTFIT_10_cls-1">
    <g id="outfit">
      <path class="GUNDAN_RED_PANDA_OUTFIT_GUNDAN_RED_PANDA_OUTFIT_10_cls-2" d="M305.48,380.69A8.94,8.94,0,0,0,304,378.3a9.31,9.31,0,0,0-1-1,9,9,0,0,0-5.63-2.4,14.09,14.09,0,0,0-3.55.23c-1,.18-1.82.4-2.53.6l-.15,0a13.66,13.66,0,0,0-3.06,1.4c-.43.24-.88.51-1.33.79-2.25,1.39-4.68,3.13-6.45,4.44-.8.59-1.46,1.1-1.91,1.45a1.67,1.67,0,0,0-.28,2.55l3.81,4.2a.42.42,0,0,1,.06.08s0,0,0,0a2.49,2.49,0,0,0,.92.6c0,.08-.08.18-.12.27l3.88,4.29a2.35,2.35,0,0,0,1,.62,2.94,2.94,0,0,0,1,.18,3,3,0,0,0,.84-.12c.36-.11.74-.23,1.13-.38a42.76,42.76,0,0,0,5.3-2.53c3.48-1.92,6.62-4.06,7.16-4.42l.21-.16a8.11,8.11,0,0,0,2.22-3.32A6.81,6.81,0,0,0,305.48,380.69Zm-4.61,4.06a4.53,4.53,0,0,1-1.05,1.6c-.94.64-2.57,1.7-4.39,2.79-.75.44-1.54.9-2.33,1.34-1,.57-2.05,1.1-3,1.53l-.55.25L287.48,390l2.19-1.23,2.35-1.33a1.73,1.73,0,0,0,.59-2.73,2.88,2.88,0,0,0-3.43-.46l-.06,0-4.52,2.54-1.21-1.34c.7-.52,1.41-1,2.11-1.54s1.51-1.06,2.24-1.55c.36-.25.71-.49,1.06-.71a20,20,0,0,1,3.94-2.21l.15,0,1.51-.38c2.35-.53,3.94-.47,5.51,1.41a5.09,5.09,0,0,1,.38.5A3.92,3.92,0,0,1,300.87,384.75Z" />
      <path class="GUNDAN_RED_PANDA_OUTFIT_GUNDAN_RED_PANDA_OUTFIT_10_cls-3" d="M381.71,329.87l.67,2.75a50.52,50.52,0,0,0-3.72,6.52,21.77,21.77,0,0,0-1.21,5.64h0c-3.14.61-8.93,1.86-9.46,2.83s5.33,3.2,8.7,4.38c-.45,4.65-1,9.06-1.89,10.57a77.65,77.65,0,0,1-7.94,10.12c-3-1.18-8-3-9.11-2.59s1.8,5.83,3.33,8.35c-.28.28-.58.55-.89.82-4.56,4-12,6.7-21.05,9.62-1.91-2.18-4.95-5.41-6.16-5.44s-1.83,5.08-2,8c-2.84.91,8.65,1.88,5.6,2.93A81.51,81.51,0,0,1,316.47,399c-.94-2.53-2.66-6.74-3.85-7.1s-3.76,4.37-5.11,7.11c-2-.14-3.83-.39-5.63-.66-3.53-.54-5.13-2.41-5.87-4.74,3.48-1.92,6.62-4.06,7.16-4.42l.21-.16a8.11,8.11,0,0,0,2.22-3.32,60.58,60.58,0,0,0,10.08.83,59.44,59.44,0,0,0,22.52-4.32c12.22-5.08,6.53-14,14.25-21.83,3.58-3.63,7.29-7.4,10-11.72,3.16-5,4.4-10.12,3.59-14.7a14.69,14.69,0,0,0-.75-2.71c3-.08,5.64-.26,7.92-.49C376.46,330.46,379.28,330.15,381.71,329.87Z" />
      <path class="GUNDAN_RED_PANDA_OUTFIT_GUNDAN_RED_PANDA_OUTFIT_10_cls-3" d="M302.11,346.52a82.67,82.67,0,0,0-.9-19.95c3.59-3,.77-.81,2.44-2,0,0,14.77.42,13.69,10.28s-6.87,13.09-9.23,12-2.69-7.8,2.09-9.86c-3.62.88-6.75,5.47-7.12,9.56Z" />
      <path class="GUNDAN_RED_PANDA_OUTFIT_GUNDAN_RED_PANDA_OUTFIT_10_cls-4" d="M289.12,384.28q-.11-.73-.18-1.38a6,6,0,0,0-1.2-.51c-.73.49-1.48,1-2.24,1.55s-1.41,1-2.11,1.54l1.21,1.34Z" />
      <path class="GUNDAN_RED_PANDA_OUTFIT_GUNDAN_RED_PANDA_OUTFIT_10_cls-4" d="M289.67,388.76,287.48,390l2.07,2.27.55-.25C290,390.94,289.8,389.85,289.67,388.76Z" />
      <path class="GUNDAN_RED_PANDA_OUTFIT_GUNDAN_RED_PANDA_OUTFIT_10_cls-4" d="M286.74,395.87l-3.88-4.29-.8-.87s0,0,0,0a.42.42,0,0,0-.06-.08l-3.81-4.2a1.67,1.67,0,0,1,.28-2.55c.45-.35,1.11-.86,1.91-1.45a9.25,9.25,0,0,0-2.72,1.45,325.81,325.81,0,0,1-27.08,18.83c-.93.6-1.88,1.18-2.81,1.74-5.7,3.49-11.4,6.78-17,9.86-3.31,1.8-5.45,3.53-8.72,5.18h0q-6.71,3.42-13.22,6.44A463.2,463.2,0,0,1,138.67,452c-3.71,1-6.59,1.78-8.47,2.24l-2.56.62c-4.9,1.06-7.79,5.11-6.44,9,1,3.05,4.37,5.13,8.12,5.38.25,0,.51,0,.77,0a11.56,11.56,0,0,0,2.45-.27c.46-.1,2.28-.51,5.26-1.25a462.74,462.74,0,0,0,73.35-25.86h0c4.95-2.22,10-4.6,15.18-7.15,5.8-2.86,10.57-5.93,16.52-9.23h0q2.65-1.46,5.32-3h0a367.77,367.77,0,0,0,39.49-26A2.35,2.35,0,0,1,286.74,395.87Z" />
      <path class="GUNDAN_RED_PANDA_OUTFIT_GUNDAN_RED_PANDA_OUTFIT_10_cls-5" d="M248.51,398.86c-.32,1.93-.58,3.8-.78,5.55.93-.56,1.88-1.14,2.81-1.74A8.83,8.83,0,0,1,248.51,398.86Z" />
      <path class="GUNDAN_RED_PANDA_OUTFIT_GUNDAN_RED_PANDA_OUTFIT_10_cls-5" d="M291.43,399.56a28,28,0,0,1-.72-3.39c-.39.15-.77.27-1.13.38a3,3,0,0,1-.84.12,2.94,2.94,0,0,1-1-.18,367.77,367.77,0,0,1-39.49,26,58.93,58.93,0,0,1,12.57-1.34c10.6,0,32.65-2.18,34.08-16.45.09-.84.15-1.74.21-2.67C293,401.15,291.66,400.29,291.43,399.56Z" />
      <path class="GUNDAN_RED_PANDA_OUTFIT_GUNDAN_RED_PANDA_OUTFIT_10_cls-5" d="M211.15,441.89h0c.53,3.84,1.07,8.09,1.55,12.5s.93,9,1.24,13.36.49,8.8.47,12.66h22.71c0-3.85.16-8.17.48-12.66s.73-8.94,1.21-13.36c1.7-15.26,4-28.89,4-28.89-5.95,3.3-10.72,6.37-16.52,9.23C221.18,437.29,216.1,439.67,211.15,441.89Z" />
      <path class="GUNDAN_RED_PANDA_OUTFIT_GUNDAN_RED_PANDA_OUTFIT_10_cls-5" d="M202.64,396.7c-.41,5.82-4.59,11.2-18.2,8.22s-18.18-13.58-20.62-28.2-17.9-19.31-27.93-14.51c21.77.79,18.63,28.21,20.05,42.49s23.49,16.45,34.09,16.45a51.56,51.56,0,0,1,17.57,2.79c-1.07-1.93-2.63-5.85-3.17-12.91A136.28,136.28,0,0,0,202.64,396.7Z" />
      <path class="GUNDAN_RED_PANDA_OUTFIT_GUNDAN_RED_PANDA_OUTFIT_10_cls-6" d="M266.21,350.39c2.09-5.27,8.12-12.95,14.66-20-3.24,1.11-7.26,2.39-10.78,3.25-7.45,1.83-17.34,6.51-19.19,9.72,2.28,6.61,5.65,20-8,22.35,4.94-3.08,9.88-14.65,2.15-16s-8.16,12.68-8.82,16c-.51,2.71-2.53,21.62-6.8,32.32a22.45,22.45,0,0,1-3.11,5.81c-5.78-6.94-10.41-34.79-11.06-38.13-.27-1.39-.51-4.66-1.24-7.88-1-4.5-3.05-8.95-7.56-8.14-7.74,1.37-2.79,12.94,2.15,16-13.65-2.32-10.28-15.74-8-22.35-1.86-3.21-11.74-7.89-19.19-9.72-3.53-.86-7.55-2.15-10.79-3.25,6.54,7,12.56,14.72,14.65,20,4.51,11.3,8.38,8,21.92,23.64S221,417,221,417l1,2.42c3.27-1.65,5.41-3.38,8.72-5.18.45-7.35,2.7-27.65,13.63-40.24C257.84,358.43,261.7,361.69,266.21,350.39Z" />
      <path class="GUNDAN_RED_PANDA_OUTFIT_GUNDAN_RED_PANDA_OUTFIT_10_cls-6" d="M263.5,369.06c-9.21,5.41-13.17,18.59-15,29.78v0a8.83,8.83,0,0,0,2,3.81,325.81,325.81,0,0,0,27.08-18.83,9.25,9.25,0,0,1,2.72-1.45c1.77-1.31,4.2-3.05,6.45-4.44.08-.41.14-.82.21-1.23a20.39,20.39,0,0,1,.57-2.45l-.88-4.41c-1.57-7.88,4.59-7.31,9.61-20.1a27.78,27.78,0,0,0,.68-19.48A95.85,95.85,0,0,0,284.58,344C273.74,358.78,276.53,361.4,263.5,369.06Z" />
      <path class="GUNDAN_RED_PANDA_OUTFIT_GUNDAN_RED_PANDA_OUTFIT_10_cls-6" d="M138.67,452c.65-13.61,1.05-28.24.32-36s-5.9-19-12.32-29.61l-.09-.14a158.18,158.18,0,0,0-16.69-22.86l-.63-.69q-.63-.69-1.29-1.38c-.16-.17-.32-.34-.49-.5q-1.71-1.69-3.17-2.9a121.31,121.31,0,0,0-13.13-9.33c-1.16-.71-2.2-1.31-3.09-1.82l.45-.2c4.81-2.06,12.53-7,22.21-11.24,8.73-3.82,22.08-8.37,28.64-12.61l2.83,5.4s13.87,1,24.71,15.84S175,361.4,188,369.06c8.63,5.07,12.65,16.95,14.61,27.64-.41,5.82-4.59,11.19-18.2,8.22s-18.18-13.58-20.62-28.2-17.9-19.31-27.93-14.51c21.77.79,18.63,28.21,20.05,42.49s23.5,16.45,34.09,16.45a51.56,51.56,0,0,1,17.57,2.79,7.84,7.84,0,0,0,1.08,1.57s0,.14.06.39A463.2,463.2,0,0,1,138.67,452Z" />
      <path class="GUNDAN_RED_PANDA_OUTFIT_GUNDAN_RED_PANDA_OUTFIT_10_cls-6" d="M311.82,416a40,40,0,0,1,2.26-9.28,79,79,0,0,1-19-4.69c-.06.93-.12,1.83-.21,2.67-1.43,14.27-23.48,16.45-34.08,16.45a58.93,58.93,0,0,0-12.57,1.34h0q-2.67,1.54-5.32,3h0s-2.34,13.63-4,28.89c-.48,4.42-.91,9-1.21,13.36s-.51,8.81-.48,12.66h76.75C313.11,469.91,310.44,430.63,311.82,416Zm-61.06,51.31a3.56,3.56,0,0,1-3.19-1.69,2.26,2.26,0,0,1-.29-1.1c0-1.53,1.56-2.77,3.48-2.77s3.48,1.24,3.48,2.77S252.68,467.31,250.76,467.31Zm0-13.18a3.56,3.56,0,0,1-3.19-1.69,2.25,2.25,0,0,1-.29-1.09c0-1.53,1.56-2.78,3.48-2.78s3.48,1.25,3.48,2.78S252.68,454.13,250.76,454.13Z" />
      <path class="GUNDAN_RED_PANDA_OUTFIT_GUNDAN_RED_PANDA_OUTFIT_10_cls-5" d="M295.43,389.14a48.32,48.32,0,0,0-.14-5.57c-.17-1.15-.54-2.68-.89-4.51l-1.51.38-.15,0a20,20,0,0,0-3.94,2.21c-.35.22-.7.46-1.06.71a6,6,0,0,1,1.2.51q.07.64.18,1.38l.06,0a2.88,2.88,0,0,1,3.43.46,1.73,1.73,0,0,1-.59,2.73l-2.35,1.33c.13,1.09.28,2.18.43,3.25.95-.43,2-1,3-1.53C293.89,390,294.68,389.58,295.43,389.14Z" />
      <path class="GUNDAN_RED_PANDA_OUTFIT_GUNDAN_RED_PANDA_OUTFIT_10_cls-5" d="M309.72,366.4c-9.1,2.67-12.15,8.2-12.31,8.49a9,9,0,0,1,5.63,2.4c6-9.07,17.31-6.26,25.36-12.08s6.46-16.2-.52-21.77C335.07,356.3,319.06,363.66,309.72,366.4Z" />
      <path class="GUNDAN_RED_PANDA_OUTFIT_GUNDAN_RED_PANDA_OUTFIT_10_cls-5" d="M324.12,337.36c-1.84,5.83-10.86,18.25-17.68,15.44-2.69-1.11-3.6-3.56-3.36-6.22.37-4.09,3.51-8.68,7.12-9.56-4.78,2.06-4.45,8.74-2.09,9.85s8.16-2.14,9.23-12-13.68-10.27-13.68-10.27c-1.68,1.15,1.14-1.05-2.45,2a96.56,96.56,0,0,1,1.11,11,61.62,61.62,0,0,1-.21,9c-.48,4.49-1.6,8.74-3.81,11.69a23.64,23.64,0,0,0-4.44,16.91c-1,.18-1.82.4-2.53.6l-.15,0a13.66,13.66,0,0,0-3.06,1.4c-.13-.74-.32-1.69-.55-2.89s-.53-2.66-.87-4.41c-1.58-7.88,4.58-7.31,9.6-20.1a29.35,29.35,0,0,0,2.08-12.22,25.7,25.7,0,0,0-1.4-7.26A95.85,95.85,0,0,0,284.58,344c-10.84,14.82-8.05,17.44-21.08,25.1-9.21,5.41-13.17,18.59-15,29.78v0c-.32,1.93-.57,3.8-.78,5.55-5.69,3.49-11.4,6.78-17,9.86a96.5,96.5,0,0,1,3.3-19.69c2-7.13,5.23-14.68,10.33-20.55a91.73,91.73,0,0,1,8.5-8.69c7-6.19,10-6.48,13.41-15,2.09-5.26,8.11-12.94,14.65-20-3.23,1.11-7.25,2.39-10.78,3.25-7.45,1.83-17.34,6.51-19.19,9.71,2,5.78,4.81,16.75-3.58,21a15.9,15.9,0,0,1-4.41,1.38c4.94-3.08,9.88-14.65,2.15-16-4.5-.8-6.53,3.64-7.57,8.14-.74,3.22-1,6.48-1.24,7.88-.45,2.37-2.06,17.15-5.31,28-.47,1.55-1,3-1.5,4.35a22.15,22.15,0,0,1-3.11,5.81c-2-2.39-3.83-7.24-5.44-12.72-3-10.47-5.19-23.22-5.62-25.41-.27-1.39-.5-4.66-1.24-7.88-1-4.5-3.05-8.95-7.56-8.14-7.73,1.37-2.79,12.94,2.15,16a13,13,0,0,1-6.67-2.9c-5.57-4.93-3.11-14.28-1.32-19.46-1.86-3.2-11.74-7.88-19.19-9.71-3.53-.86-7.55-2.15-10.79-3.25,6.54,7,12.56,14.72,14.65,20,3,7.42,5.64,8.57,11,12.89A84.22,84.22,0,0,1,207.22,374c4.58,5.28,7.64,11.92,9.67,18.39A94.31,94.31,0,0,1,221,417l1,2.42h0q-6.71,3.42-13.22,6.44c0-.25-.06-.39-.06-.39a7.84,7.84,0,0,1-1.08-1.57c-1.07-1.93-2.63-5.85-3.17-12.91a133.67,133.67,0,0,0-1.79-14.33c-2-10.69-6-22.57-14.61-27.64-13-7.66-10.24-10.28-21.1-25.1s-24.71-15.84-24.71-15.84-2.95-4.32-2.84-5.69a2,2,0,0,1,.06-.28c.62-1.75,5.46-6.88,12.05-5.84,2.44.38,5.89,1.43,10.19,5.18.29.25.58.51.87.79l0,0c.75.39,12.82,6.74,22.51,8.81,10,2.15,28.43,9.85,32,25.84,0,.14.06.28.1.42,3.58,16,9.13,40,9.13,40s4.47-24.24,8.06-40.23c0-.07,0-.13,0-.2,3.57-16,22-23.69,32-25.84,9.67-2.07,21.74-8.42,22.49-8.81l0,0c4.7-4.4,3.09-3.38,5.5-4.48,7-3.19,11,1,11.14,2.35a11,11,0,0,1-.45,3.19l-.57.23.48.09s-.34-3.19,2.09-2.62a83.55,83.55,0,0,1,9.42,3.83,4.75,4.75,0,0,1,1.07.66C319.52,327,325.66,332.41,324.12,337.36Z" />
      <path class="GUNDAN_RED_PANDA_OUTFIT_GUNDAN_RED_PANDA_OUTFIT_10_cls-5" d="M381.71,329.87l.67,2.75a50.52,50.52,0,0,0-3.72,6.52,21.77,21.77,0,0,0-1.21,5.64h0c-3.14.61-8.93,1.86-9.46,2.83s5.33,3.2,8.7,4.38c-.45,4.65-1,9.06-1.89,10.57a77.65,77.65,0,0,1-7.94,10.12c-3-1.18-8-3-9.11-2.59s1.8,5.83,3.33,8.35c-.28.28-.58.55-.89.82-4.56,4-12,6.7-21.05,9.62-1.91-2.18-4.95-5.41-6.16-5.44s-1.83,5.08-2,8c-2.84.91,8.65,1.88,5.6,2.93A81.51,81.51,0,0,1,316.47,399c-.94-2.53-2.66-6.74-3.85-7.1s-3.76,4.37-5.11,7.11c-2-.15-3.83-.39-5.63-.66-3.53-.54-5.13-2.41-5.87-4.74a42.76,42.76,0,0,1-5.3,2.53,28,28,0,0,0,.72,3.39c.23.73,1.58,1.59,3.65,2.47a79,79,0,0,0,19,4.69c1.71.2,3.37.34,4.91.39-1.54-.05-3.2-.19-4.91-.39a40,40,0,0,0-2.26,9.28c-1.38,14.63,1.29,53.91,2.05,64.42h8.18c-.1-3.57-.38-10.55-1.25-19.52-.83-8.51,1-27.87,3.82-44.09.64-3.75,1.34-7.33,2.08-10.56,4.83-1.37,10.3-4.28,15.95-6.9,5.4-2.51-3.5-4.78,1.78-5.2,12.17-1,13.32-1.27,17-4.73.25-.22.52-.48.79-.75,3.95-3.82,11-11.62,17.12-16.91a2,2,0,0,0,.21-.2,17.59,17.59,0,0,0,3.87-5.74l0,0a.64.64,0,0,0,0-.07c3.68-8,5.52-20,7.05-25.91a75,75,0,0,0,2.29-11.43S389.23,329,381.71,329.87Z" />
      <path class="GUNDAN_RED_PANDA_OUTFIT_GUNDAN_RED_PANDA_OUTFIT_10_cls-5" d="M305.48,380.69a6.81,6.81,0,0,1,.12,5.05,60.58,60.58,0,0,0,10.08.83,59.44,59.44,0,0,0,22.52-4.32c12.22-5.08,6.53-14,14.25-21.83,3.58-3.63,7.29-7.4,10-11.72,3.16-5,4.4-10.12,3.59-14.7a14.69,14.69,0,0,0-.75-2.71c-2.05.06-4.23.08-6.52,0a10.74,10.74,0,0,1,1.18,3.34c.8,4.54-1.19,8.93-3,11.82-2.45,3.89-5.95,7.45-9.34,10.9-7.34,7.46-1.22,15.91-12.26,20.49A53,53,0,0,1,305.48,380.69Z" />
      <path class="GUNDAN_RED_PANDA_OUTFIT_GUNDAN_RED_PANDA_OUTFIT_10_cls-5" d="M104.31,357.92a117.91,117.91,0,0,0-16.22-11.15,46.29,46.29,0,0,1-8.27,2.84c16.87,12,35.76,32.25,41.05,45.38,1.89,4.7,3.76,12.78,5.34,21.82a273.31,273.31,0,0,1,4,37.41c1.88-.46,4.76-1.2,8.47-2.24.65-13.61,1.05-28.24.32-36C137.39,399,115.27,366.84,104.31,357.92Z" />
      <path class="GUNDAN_RED_PANDA_OUTFIT_GUNDAN_RED_PANDA_OUTFIT_10_cls-6" d="M68.53,359.68c-1.32-.68-2.13-1.07-2.13-1.07l-3.17-.9,3.92-2-6.28-1.5,9.77-2.4s-.59-1.07-3.87-6.77c2.79,2.23,13,4.58,13,4.58,16.87,12,35.76,32.25,41.05,45.38,1.89,4.7,3.76,12.78,5.34,21.82-2.88-4.72-10.61-10.95-10.61-10.95L108,399.17l7.64,3-2.54-2.52c-2.52-2.53-8-9.34-12.13-12.68a18.25,18.25,0,0,0-9-3.73l4.45-1s-.48-.73-7.57-4.2-16.06-11.57-16.06-11.57,3.28.52,13.06,5.14C81.74,366.86,72.66,361.83,68.53,359.68Z" />
      <path class="GUNDAN_RED_PANDA_OUTFIT_GUNDAN_RED_PANDA_OUTFIT_10_cls-7" d="M401,421.15c-1.57-9.48,4.15-22.77,4.15-22.77a16.75,16.75,0,0,0-8.44,7.35,82.24,82.24,0,0,1-8.23,13c-2-9.5,0-25.11,5.93-33.92-5.7.12-9.65,5-13,10.37-5.72-5.49-5.21-16.2-1.86-23.64a2,2,0,0,1-.21.2c-6.14,5.29-13.17,13.09-17.12,16.91-.27.27-.54.53-.79.75-3.72,3.46-4.87,3.74-17,4.73-5.28.42,3.62,2.69-1.78,5.2-5.65,2.62-11.12,5.53-15.95,6.9-.74,3.23-1.44,6.81-2.08,10.56C321.8,433,320,452.39,320.8,460.9c.87,9,1.15,16,1.25,19.52H391l-1.4-14.16s-3-10.5-1-16S402.59,430.63,401,421.15Z" />
      <path class="GUNDAN_RED_PANDA_OUTFIT_GUNDAN_RED_PANDA_OUTFIT_10_cls-7" d="M127.64,454.84l2.56-.62a273.31,273.31,0,0,0-4-37.41c-2.88-4.72-10.61-10.95-10.61-10.95L108,399.17l7.64,3-2.54-2.52c-2.52-2.53-8-9.34-12.13-12.68a18.25,18.25,0,0,0-9-3.73l4.45-1s-.48-.73-7.57-4.2-16.06-11.57-16.06-11.57,3.28.52,13.06,5.14c-4.05-4.81-13.13-9.84-17.26-12a50.05,50.05,0,0,0-4.43,10.49,24.39,24.39,0,0,0-11.27-4.45c6.34,5.93,9.64,22.25,2.1,29.49-3.34-5.35-7.28-10.26-13-10.38,6,8.82,7.94,24.43,5.92,33.92a82.51,82.51,0,0,1-8.21-13,16.75,16.75,0,0,0-8.46-7.35s5.73,13.29,4.16,22.77c-1.19,7.17,5.38,17,9.54,23.74h0c-1,5.94-3,17.5-4.24,24.38-1.71,9.55-1.43,11.14-1.43,11.14H111c-.27-1.45-.53-3.12-.69-4.73.16,1.61.42,3.28.69,4.73h17.77c.06-2.37.21-6.23.56-11.17-3.75-.25-7.07-2.33-8.12-5.38C119.85,460,122.74,455.9,127.64,454.84Zm-15.75,20.91a4.89,4.89,0,0,0,0,.66A4.89,4.89,0,0,1,111.89,475.75Zm.14-13.94c0,.08-.06.24-.11.46C112,462.05,112,461.89,112,461.81Zm-1.88,11.55c0,.37,0,.75,0,1.14C110.17,474.11,110.15,473.73,110.15,473.36Zm3.87-3.12a3.76,3.76,0,0,0-.14-1c-.14-.51-.32-1.24-.52-2,.2.8.38,1.53.52,2A3.76,3.76,0,0,1,114,470.24Z" />
      <path class="GUNDAN_RED_PANDA_OUTFIT_GUNDAN_RED_PANDA_OUTFIT_10_cls-3" d="M299.91,380.47c-1.57-1.88-3.16-1.94-5.51-1.41.35,1.83.72,3.36.89,4.51a48.32,48.32,0,0,1,.14,5.57c1.82-1.09,3.45-2.15,4.39-2.79a4.53,4.53,0,0,0,1.05-1.6,3.92,3.92,0,0,0-.58-3.78A5.09,5.09,0,0,0,299.91,380.47Z" />
      <path class="GUNDAN_RED_PANDA_OUTFIT_GUNDAN_RED_PANDA_OUTFIT_10_cls-3" d="M360,334.68a10.74,10.74,0,0,0-1.18-3.34c-13.74-.19-22.49,2.19-35.24-3.37l-3.64-.36h0c-1.83-.18-1.37-.5-1.37-.5s7.41,4.44,5.59,10.27-10.85,18.24-17.67,15.43c-2.7-1.11-3.6-3.56-3.36-6.22l-1-.06c-.48,4.49-1.6,8.74-3.81,11.69a23.64,23.64,0,0,0-4.44,16.91,14.09,14.09,0,0,1,3.55-.23c.16-.29,3.21-5.82,12.31-8.49,9.34-2.74,25.35-10.1,18.16-23,7,5.57,8.59,15.95.52,21.77s-19.37,3-25.36,12.08a9.31,9.31,0,0,1,1,1,8.94,8.94,0,0,1,1.48,2.39,53,53,0,0,0,29.88-2.8c11-4.58,4.92-13,12.26-20.49,3.39-3.45,6.89-7,9.34-10.9C358.77,343.61,360.76,339.22,360,334.68Z" />
      <path class="GUNDAN_RED_PANDA_OUTFIT_GUNDAN_RED_PANDA_OUTFIT_10_cls-8" d="M222,419.45c3.27-1.65,5.41-3.38,8.72-5.18,5.65-3.08,11.35-6.37,17-9.86.93-.56,1.88-1.14,2.81-1.74a325.81,325.81,0,0,0,27.08-18.83,9.25,9.25,0,0,1,2.72-1.45" />
      <path class="GUNDAN_RED_PANDA_OUTFIT_GUNDAN_RED_PANDA_OUTFIT_10_cls-8" d="M211.15,441.9a462.74,462.74,0,0,1-73.35,25.86c-3,.74-4.8,1.15-5.26,1.25a11.56,11.56,0,0,1-2.45.27c-.26,0-.52,0-.77,0-3.75-.25-7.07-2.33-8.12-5.38-1.35-3.92,1.54-8,6.44-9l2.56-.62c1.88-.46,4.76-1.2,8.47-2.24a463.2,463.2,0,0,0,70.07-26.08q6.51-3,13.22-6.44" />
      <path class="GUNDAN_RED_PANDA_OUTFIT_GUNDAN_RED_PANDA_OUTFIT_10_cls-8" d="M242.85,425.51c-5.95,3.3-10.72,6.37-16.52,9.23-5.15,2.55-10.23,4.93-15.18,7.15" />
      <path class="GUNDAN_RED_PANDA_OUTFIT_GUNDAN_RED_PANDA_OUTFIT_10_cls-8" d="M248.18,422.5q-2.67,1.54-5.32,3" />
      <path class="GUNDAN_RED_PANDA_OUTFIT_GUNDAN_RED_PANDA_OUTFIT_10_cls-8" d="M287.71,396.49a367.77,367.77,0,0,1-39.49,26" />
      <path class="GUNDAN_RED_PANDA_OUTFIT_GUNDAN_RED_PANDA_OUTFIT_10_cls-8" d="M288.94,382.89a6.61,6.61,0,0,0-1.2-.5" />
      <path class="GUNDAN_RED_PANDA_OUTFIT_GUNDAN_RED_PANDA_OUTFIT_10_cls-8" d="M242.86,425.5h0s-2.34,13.63-4,28.89c-.48,4.42-.91,9-1.21,13.36s-.51,8.81-.48,12.66" />
      <path class="GUNDAN_RED_PANDA_OUTFIT_GUNDAN_RED_PANDA_OUTFIT_10_cls-8" d="M288.93,322.3c-2.62,2.45-5.38,5.22-8.06,8.1-6.54,7-12.57,14.72-14.66,20-4.51,11.3-8.37,8-21.9,23.64-10.93,12.59-13.18,32.89-13.63,40.24" />
      <path class="GUNDAN_RED_PANDA_OUTFIT_GUNDAN_RED_PANDA_OUTFIT_10_cls-8" d="M248.51,398.84c1.82-11.19,5.78-24.37,15-29.78,13-7.66,10.24-10.28,21.08-25.1A95.85,95.85,0,0,1,297,330.28c1.47-1.35,2.89-2.59,4.23-3.71,3.59-3,.77-.81,2.44-2,.9-.63,1.42-.95,1.42-.95l.08-.32a11.29,11.29,0,0,0,.46-3.19c-.11-1.38-4.12-5.54-11.14-2.35-2.41,1.1-.81.08-5.5,4.48" />
      <path class="GUNDAN_RED_PANDA_OUTFIT_GUNDAN_RED_PANDA_OUTFIT_10_cls-8" d="M247.73,404.41c.2-1.75.46-3.62.78-5.55" />
      <path class="GUNDAN_RED_PANDA_OUTFIT_GUNDAN_RED_PANDA_OUTFIT_10_cls-8" d="M162.58,322.3c2.62,2.45,5.39,5.22,8.07,8.1,6.54,7,12.56,14.72,14.65,20,4.51,11.3,8.38,8,21.92,23.64S221,417,221,417l1,2.42h0" />
      <path class="GUNDAN_RED_PANDA_OUTFIT_GUNDAN_RED_PANDA_OUTFIT_10_cls-8" d="M162.55,322.28c-.29-.28-.58-.54-.87-.79-4.3-3.75-7.75-4.8-10.19-5.18-6.59-1-11.43,4.09-12.05,5.84a2,2,0,0,0-.06.28c-.11,1.37,2.84,5.69,2.84,5.69s13.87,1,24.71,15.84S175,361.4,188,369.06c8.63,5.07,12.65,16.95,14.61,27.64A133.67,133.67,0,0,1,204.43,411c.54,7.06,2.1,11,3.17,12.91a7.84,7.84,0,0,0,1.08,1.57s0,.14.06.39" />
      <path class="GUNDAN_RED_PANDA_OUTFIT_GUNDAN_RED_PANDA_OUTFIT_10_cls-8" d="M290.1,392c-.15-1.07-.3-2.16-.43-3.25" />
      <path class="GUNDAN_RED_PANDA_OUTFIT_GUNDAN_RED_PANDA_OUTFIT_10_cls-8" d="M358.78,331.34c-13.74-.19-26.94,1.07-39.68-4.49" />
      <path class="GUNDAN_RED_PANDA_OUTFIT_GUNDAN_RED_PANDA_OUTFIT_10_cls-8" d="M383.48,365.8a.64.64,0,0,0,0-.07c3.68-8,5.52-20,7.05-25.91a75,75,0,0,0,2.29-11.43s-3.61.59-11.13,1.48c-2.43.28-5.25.59-8.49.93-2.28.23-5,.41-7.92.49" />
      <path class="GUNDAN_RED_PANDA_OUTFIT_GUNDAN_RED_PANDA_OUTFIT_10_cls-8" d="M290.71,396.17a28,28,0,0,0,.72,3.39c.23.73,1.58,1.59,3.65,2.47a79,79,0,0,0,19,4.69,41.25,41.25,0,0,0,9.14.26,20.42,20.42,0,0,0,3.48-.73c4.83-1.37,10.3-4.28,15.95-6.9,5.4-2.51-3.5-4.78,1.78-5.2,12.17-1,13.32-1.27,17-4.73.25-.22.52-.48.79-.75,3.95-3.82,11-11.62,17.12-16.91a2,2,0,0,0,.21-.2,17.59,17.59,0,0,0,3.87-5.74" />
      <path class="GUNDAN_RED_PANDA_OUTFIT_GUNDAN_RED_PANDA_OUTFIT_10_cls-8" d="M289.12,384.28c-.07-.49-.13-.95-.18-1.39" />
      <path class="GUNDAN_RED_PANDA_OUTFIT_GUNDAN_RED_PANDA_OUTFIT_10_cls-8" d="M288.12,377.16c-.13-.74-.32-1.69-.55-2.89l-.88-4.41c-1.57-7.88,4.59-7.31,9.61-20.1a27.78,27.78,0,0,0,.68-19.48" />
      <path class="GUNDAN_RED_PANDA_OUTFIT_GUNDAN_RED_PANDA_OUTFIT_10_cls-8" d="M377.45,344.78a21.77,21.77,0,0,1,1.21-5.64,50.52,50.52,0,0,1,3.72-6.52l-.67-2.75" />
      <path class="GUNDAN_RED_PANDA_OUTFIT_GUNDAN_RED_PANDA_OUTFIT_10_cls-8" d="M366.86,372.69a77.65,77.65,0,0,0,7.94-10.12c.93-1.51,1.44-5.92,1.89-10.57" />
      <path class="GUNDAN_RED_PANDA_OUTFIT_GUNDAN_RED_PANDA_OUTFIT_10_cls-8" d="M316.47,399a81.51,81.51,0,0,0,20.07-4.62c3-1.05-8.44-2-5.6-2.93" />
      <path class="GUNDAN_RED_PANDA_OUTFIT_GUNDAN_RED_PANDA_OUTFIT_10_cls-8" d="M301.21,326.57a82.67,82.67,0,0,1,.9,19.95c-.48,4.49-1.6,8.74-3.81,11.69a23.64,23.64,0,0,0-4.44,16.91" />
      <path class="GUNDAN_RED_PANDA_OUTFIT_GUNDAN_RED_PANDA_OUTFIT_10_cls-8" d="M296,393.64c.74,2.33,2.34,4.2,5.87,4.74,1.8.27,3.66.52,5.63.66" />
      <path class="GUNDAN_RED_PANDA_OUTFIT_GUNDAN_RED_PANDA_OUTFIT_10_cls-8" d="M294.4,379.06c.35,1.83.72,3.36.89,4.51a48.32,48.32,0,0,1,.14,5.57" />
      <path class="GUNDAN_RED_PANDA_OUTFIT_GUNDAN_RED_PANDA_OUTFIT_10_cls-8" d="M339.14,388.89c9.09-2.92,16.49-5.6,21.05-9.62.31-.27.61-.54.89-.82" />
      <path class="GUNDAN_RED_PANDA_OUTFIT_GUNDAN_RED_PANDA_OUTFIT_10_cls-8" d="M307.51,399c1.35-2.74,3.88-7.47,5.11-7.11s2.91,4.57,3.85,7.1" />
      <path class="GUNDAN_RED_PANDA_OUTFIT_GUNDAN_RED_PANDA_OUTFIT_10_cls-8" d="M330.94,391.48c.21-3,.73-8.07,2-8s4.25,3.26,6.16,5.44" />
      <path class="GUNDAN_RED_PANDA_OUTFIT_GUNDAN_RED_PANDA_OUTFIT_10_cls-8" d="M361.08,378.45c-1.53-2.52-4.59-7.85-3.33-8.35s6.14,1.41,9.11,2.59" />
      <path class="GUNDAN_RED_PANDA_OUTFIT_GUNDAN_RED_PANDA_OUTFIT_10_cls-8" d="M377.45,344.78h0c-3.14.61-8.93,1.86-9.46,2.83s5.33,3.2,8.7,4.38" />
      <path class="GUNDAN_RED_PANDA_OUTFIT_GUNDAN_RED_PANDA_OUTFIT_10_cls-8" d="M88.09,346.77a117.91,117.91,0,0,1,16.22,11.15c11,8.92,33.08,41.12,34.68,58.08.73,7.74.33,22.37-.32,36" />
      <path class="GUNDAN_RED_PANDA_OUTFIT_GUNDAN_RED_PANDA_OUTFIT_10_cls-8" d="M139.47,323.07c-8.77,3.32-20,8.44-28.72,12.26-9.68,4.23-17.4,9.18-22.21,11.24l-.45.2-.63.27h0a44.1,44.1,0,0,1-7.62,2.57c16.86,12,35.76,32.25,41,45.38,1.89,4.7,3.76,12.78,5.34,21.82a273.15,273.15,0,0,1,4,37.41" />
      <path class="GUNDAN_RED_PANDA_OUTFIT_GUNDAN_RED_PANDA_OUTFIT_10_cls-8" d="M126.21,416.81c-2.88-4.72-10.61-10.95-10.61-10.95L108,399.17l7.64,3-2.54-2.52c-2.52-2.53-8-9.34-12.13-12.68a18.25,18.25,0,0,0-9-3.73l4.45-1s-.48-.73-7.57-4.2-16.06-11.57-16.06-11.57,3.28.52,13.06,5.14c-4.05-4.81-13.13-9.84-17.26-12-1.32-.68-2.13-1.07-2.13-1.07l-3.17-.9,3.92-2-6.28-1.5,9.77-2.4s-.59-1.07-3.87-6.77c2.79,2.23,13,4.58,13,4.58" />
      <path class="GUNDAN_RED_PANDA_OUTFIT_GUNDAN_RED_PANDA_OUTFIT_10_cls-8" d="M64.1,370.17a49.76,49.76,0,0,1,4.43-10.49" />
      <path class="GUNDAN_RED_PANDA_OUTFIT_GUNDAN_RED_PANDA_OUTFIT_10_cls-8" d="M54.93,395.21c7.54-7.24,4.24-23.56-2.1-29.49a24.39,24.39,0,0,1,11.27,4.45A27.52,27.52,0,0,1,69.4,375a131.87,131.87,0,0,0,5.77,16.22C79,400.25,89.92,407.9,99.8,413S124,441.13,124,441.13h-4s-1.08,12.57-3.65,16.33-4.31,4.29-4.31,4.29-1.29,5.31-1.81,9.6c-.3,2.38.23,6.17.76,9.07" />
      <path class="GUNDAN_RED_PANDA_OUTFIT_GUNDAN_RED_PANDA_OUTFIT_10_cls-8" d="M47.86,418.75c2-9.49,0-25.1-5.92-33.92,5.71.12,9.65,5,13,10.38,2.42,3.9,4.55,8.05,6.77,10.74,5.3,6.4,18,15.31,26.5,19.88s21.2,31.63,21.2,31.63l2.64,4.29s1.3,5.49,1.84,7.53-.54,1.89-1.84,5.83c-.55,1.68.08,3.63,1,5.31" />
      <path class="GUNDAN_RED_PANDA_OUTFIT_GUNDAN_RED_PANDA_OUTFIT_10_cls-8" d="M44.89,444.89c-4.16-6.75-10.73-16.57-9.54-23.74,1.57-9.48-4.16-22.77-4.16-22.77a16.75,16.75,0,0,1,8.46,7.35,82.51,82.51,0,0,0,8.21,13,84.78,84.78,0,0,0,19.57,17.59c19.34,13,32.37,32.94,32.37,32.94s4,8,4.16,11.14" />
      <path class="GUNDAN_RED_PANDA_OUTFIT_GUNDAN_RED_PANDA_OUTFIT_10_cls-8" d="M57.05,406.76S68.87,421,77.24,426.63s13,7.77,16.29,14.5" />
      <path class="GUNDAN_RED_PANDA_OUTFIT_GUNDAN_RED_PANDA_OUTFIT_10_cls-8" d="M48.88,427.66s9.36,8.22,17.57,16.1S77.24,453,81.12,459.18c0,0,5.5,14.62,6.08,21.24" />
      <path class="GUNDAN_RED_PANDA_OUTFIT_GUNDAN_RED_PANDA_OUTFIT_10_cls-8" d="M388.5,418.75a82.24,82.24,0,0,0,8.23-13,16.75,16.75,0,0,1,8.44-7.35s-5.72,13.29-4.15,22.77-10.45,23.64-12.47,29.12,1,16,1,16l1.4,14.16h-46.6" />
      <path class="GUNDAN_RED_PANDA_OUTFIT_GUNDAN_RED_PANDA_OUTFIT_10_cls-8" d="M344.36,480.42H331.67c2.3-5.55,4.9-11.14,4.9-11.14s13-19.92,32.36-32.94a85,85,0,0,0,19.57-17.58" />
      <path class="GUNDAN_RED_PANDA_OUTFIT_GUNDAN_RED_PANDA_OUTFIT_10_cls-8" d="M207.6,423.94A51.56,51.56,0,0,0,190,421.15c-10.6,0-32.65-2.18-34.09-16.45s1.72-41.7-20.05-42.49c10-4.8,25.5-.12,27.93,14.51s7,25.23,20.62,28.2,17.79-2.4,18.2-8.22" />
      <line class="GUNDAN_RED_PANDA_OUTFIT_GUNDAN_RED_PANDA_OUTFIT_10_cls-8" x1="319.9" y1="327.61" x2="319.89" y2="327.6" />
      <path class="GUNDAN_RED_PANDA_OUTFIT_GUNDAN_RED_PANDA_OUTFIT_10_cls-8" d="M313.87,480.42c-.76-10.52-3.43-49.79-2.05-64.42a40,40,0,0,1,2.26-9.28" />
      <path class="GUNDAN_RED_PANDA_OUTFIT_GUNDAN_RED_PANDA_OUTFIT_10_cls-8" d="M322.05,480.42c-.1-3.57-.38-10.55-1.25-19.52-.83-8.51,1-27.87,3.82-44.09.64-3.75,1.34-7.33,2.08-10.56" />
      <path class="GUNDAN_RED_PANDA_OUTFIT_GUNDAN_RED_PANDA_OUTFIT_10_cls-8" d="M324.62,416.81c2.86-4.72,10.61-10.95,10.61-10.95l7.42-6.51" />
      <path class="GUNDAN_RED_PANDA_OUTFIT_GUNDAN_RED_PANDA_OUTFIT_10_cls-8" d="M339.84,480.42a35.75,35.75,0,0,0,.76-9.07c-.54-4.29-1.83-9.6-1.83-9.6s-1.72-.51-4.29-4.29-3.65-16.33-3.65-16.33h-4s-.13-22.95,9.76-28.1,20.77-12.78,24.63-21.81c.37-.87.73-1.73,1.06-2.55" />
      <path class="GUNDAN_RED_PANDA_OUTFIT_GUNDAN_RED_PANDA_OUTFIT_10_cls-8" d="M383.48,365.8l0,0" />
      <path class="GUNDAN_RED_PANDA_OUTFIT_GUNDAN_RED_PANDA_OUTFIT_10_cls-8" d="M381.45,395.2c-5.72-5.49-5.21-16.2-1.86-23.64" />
      <path class="GUNDAN_RED_PANDA_OUTFIT_GUNDAN_RED_PANDA_OUTFIT_10_cls-8" d="M388.5,418.76h0c-2-9.5,0-25.11,5.93-33.92-5.7.12-9.65,5-13,10.37-2.44,3.9-4.55,8.06-6.79,10.75-5.3,6.4-18,15.31-26.49,19.88s-6.75,31.63-6.75,31.63l-2.65,4.29" />
      <path class="GUNDAN_RED_PANDA_OUTFIT_GUNDAN_RED_PANDA_OUTFIT_10_cls-8" d="M379.32,406.76s-11.81,14.21-20.2,19.87-13,7.77-16.28,14.5" />
      <path class="GUNDAN_RED_PANDA_OUTFIT_GUNDAN_RED_PANDA_OUTFIT_10_cls-8" d="M344.36,480.42c3.54-9.55,10.9-21.24,10.9-21.24,3.86-6.17,6.45-7.54,14.66-15.42s17.56-16.1,17.56-16.1" />
      <path class="GUNDAN_RED_PANDA_OUTFIT_GUNDAN_RED_PANDA_OUTFIT_10_cls-8" d="M283,391.31c0,.08-.08.18-.12.27" />
      <path class="GUNDAN_RED_PANDA_OUTFIT_GUNDAN_RED_PANDA_OUTFIT_10_cls-8" d="M286.79,378c.08-.41.14-.82.21-1.23a20.39,20.39,0,0,1,.57-2.45" />
      <path class="GUNDAN_RED_PANDA_OUTFIT_GUNDAN_RED_PANDA_OUTFIT_10_cls-8" d="M248.51,398.84v0a8.83,8.83,0,0,0,2,3.81" />
      <path class="GUNDAN_RED_PANDA_OUTFIT_GUNDAN_RED_PANDA_OUTFIT_10_cls-8" d="M248.18,422.5h0a58.93,58.93,0,0,1,12.57-1.34c10.6,0,32.65-2.18,34.08-16.45.09-.84.15-1.74.21-2.67" />
      <path class="GUNDAN_RED_PANDA_OUTFIT_GUNDAN_RED_PANDA_OUTFIT_10_cls-8" d="M162.54,322.28l0,0c.75.39,12.82,6.74,22.51,8.81,10,2.15,28.43,9.85,32,25.84,0,.14.06.28.1.43,3.58,16,9.13,40,9.13,40" />
      <path class="GUNDAN_RED_PANDA_OUTFIT_GUNDAN_RED_PANDA_OUTFIT_10_cls-8" d="M170.65,330.4c3.24,1.1,7.26,2.39,10.79,3.25,7.45,1.83,17.33,6.51,19.19,9.72-2.29,6.61-5.66,20,8,22.35-4.94-3.08-9.89-14.65-2.15-16,4.51-.81,6.52,3.64,7.56,8.14.73,3.22,1,6.49,1.24,7.88.65,3.34,5.28,31.19,11.06,38.13" />
      <path class="GUNDAN_RED_PANDA_OUTFIT_GUNDAN_RED_PANDA_OUTFIT_10_cls-8" d="M289,322.28l0,0c-.75.39-12.82,6.74-22.49,8.81-10,2.15-28.44,9.85-32,25.84s-8.09,40.44-8.09,40.44" />
      <path class="GUNDAN_RED_PANDA_OUTFIT_GUNDAN_RED_PANDA_OUTFIT_10_cls-8" d="M226.33,403.85a22.45,22.45,0,0,0,3.11-5.81c4.27-10.7,6.29-29.61,6.8-32.32.66-3.34,1.09-17.39,8.82-16s2.79,12.94-2.15,16c13.64-2.32,10.27-15.74,8-22.35,1.85-3.21,11.74-7.89,19.19-9.72,3.52-.86,7.54-2.14,10.78-3.25" />
      <path class="GUNDAN_RED_PANDA_OUTFIT_GUNDAN_RED_PANDA_OUTFIT_10_cls-8" d="M305.6,385.74a60.58,60.58,0,0,0,10.08.83,59.44,59.44,0,0,0,22.52-4.32c12.22-5.08,6.53-14,14.25-21.83,3.58-3.63,7.29-7.4,10-11.72,3.16-5,4.4-10.12,3.59-14.7a14.69,14.69,0,0,0-.75-2.71c-2.05.06-4.23.08-6.52,0a10.74,10.74,0,0,1,1.18,3.34c.8,4.54-1.19,8.93-3,11.82-2.45,3.89-5.95,7.45-9.34,10.9-7.34,7.46-1.22,15.91-12.26,20.49a53,53,0,0,1-29.88,2.8" />
      <path class="GUNDAN_RED_PANDA_OUTFIT_GUNDAN_RED_PANDA_OUTFIT_10_cls-8" d="M282.06,390.71l.8.87,3.88,4.29a2.35,2.35,0,0,0,1,.62,2.94,2.94,0,0,0,1,.18,3,3,0,0,0,.84-.12c.36-.11.74-.23,1.13-.38a42.76,42.76,0,0,0,5.3-2.53c3.48-1.92,6.62-4.06,7.16-4.42l.21-.16a8.11,8.11,0,0,0,2.22-3.32,6.81,6.81,0,0,0-.12-5.05A8.94,8.94,0,0,0,304,378.3a9.31,9.31,0,0,0-1-1,9,9,0,0,0-5.63-2.4,14.09,14.09,0,0,0-3.55.23c-1,.18-1.82.4-2.53.6l-.15,0a13.66,13.66,0,0,0-3.06,1.4c-.43.24-.88.51-1.33.79-2.25,1.39-4.68,3.13-6.45,4.44-.8.59-1.46,1.1-1.91,1.45a1.67,1.67,0,0,0-.28,2.55l3.81,4.2" />
      <path class="GUNDAN_RED_PANDA_OUTFIT_GUNDAN_RED_PANDA_OUTFIT_10_cls-8" d="M287.48,390l2.07,2.27.55-.25c.95-.43,2-1,3-1.53.79-.44,1.58-.9,2.33-1.34,1.82-1.09,3.45-2.15,4.39-2.79a4.53,4.53,0,0,0,1.05-1.6,3.92,3.92,0,0,0-.58-3.78,5.09,5.09,0,0,0-.38-.5c-1.57-1.88-3.16-1.94-5.51-1.41l-1.51.38-.15,0a20,20,0,0,0-3.94,2.21c-.35.22-.7.46-1.06.71-.73.49-1.48,1-2.24,1.55s-1.41,1-2.11,1.54l1.21,1.34" />
      <path class="GUNDAN_RED_PANDA_OUTFIT_GUNDAN_RED_PANDA_OUTFIT_10_cls-8" d="M287.48,390l-2,1.15a2.78,2.78,0,0,1-1.41.35,3.11,3.11,0,0,1-1.06-.18,2.49,2.49,0,0,1-.92-.6s0,0,0,0a.42.42,0,0,0-.06-.08,1.74,1.74,0,0,1,.65-2.66l2-1.11,4.52-2.54.06,0a2.88,2.88,0,0,1,3.43.46,1.73,1.73,0,0,1-.59,2.73l-2.35,1.33Z" />
      <path class="GUNDAN_RED_PANDA_OUTFIT_GUNDAN_RED_PANDA_OUTFIT_10_cls-8" d="M303.65,324.61s14.77.42,13.69,10.28-6.87,13.09-9.23,12-2.69-7.8,2.09-9.86c-3.62.88-6.75,5.47-7.12,9.56-.24,2.66.66,5.11,3.36,6.22,6.82,2.81,16.33-9.48,17.67-15.43,2.47-10.92-18.49-16.93-18.49-16.93" />
      <path class="GUNDAN_RED_PANDA_OUTFIT_GUNDAN_RED_PANDA_OUTFIT_10_cls-8" d="M297.41,374.89h0c.16-.29,3.21-5.82,12.31-8.49,9.34-2.74,25.35-10.1,18.16-23,7,5.57,8.59,15.95.52,21.77s-19.37,3-25.36,12.08" />
      <g class="GUNDAN_RED_PANDA_OUTFIT_GUNDAN_RED_PANDA_OUTFIT_10_cls-9">
        <path d="M142.34,319.55s22.79,10.09,34.1,28.48S200.5,366.94,207,383.59s6.41,35.31,9.79,38.48c-5.69,4.54-7.16,3.44-7.16,3.44h-1.05a7.43,7.43,0,0,1-1.7-2.14A76.53,76.53,0,0,0,188.58,421c-7.2-.06-27.84-2.49-31.7-12.58-1.63-6-2.53-18.49-2.55-26.05s-4.56-18.93-17.66-20.14c10.59-.31,23.7,7.48,24.77,20s9.24,29.64,25.35,30.67c15.79,1,17.4,0,17.4,0a98.14,98.14,0,0,0-2.5-20.74c-2.55-10.61-6.9-19.95-13.18-22.78s-11.22-9.44-15.06-15.54-12.33-19-21.58-25.12c-7.25-5.29-9.65-.41-9.65-.41s-3.38-5.44-2.31-6.72A10.28,10.28,0,0,1,142.34,319.55Z" />
        <path d="M79.82,349.17s4.4-.84,5.44-1.24l1-.41a175.3,175.3,0,0,1,22.63,19.36c10,10.51,18.18,23.13,20.69,32.78s5.8,42.49,5.8,42.49v10.73l-5.21,1.34S127.42,431,124,423.94s-22.61-25.08-33.07-28.62a75.45,75.45,0,0,1,14.32,2.73s-2.75-8.55-16.84-12.32c-14.66-3.77-15.67-7.31-15.67-7.31s8.17,2.6,10.74,2.5c-10.16-7.3-14.59-11.29-17.18-16.81,1.85-3.75,2.22-4.43,2.22-4.43L63.05,358l4.33-2.23a39.56,39.56,0,0,1,11,3.6,78.88,78.88,0,0,0-11.16-6.73s2.14-1.38,8.69.65a47.14,47.14,0,0,1-6.67-6.92S77.87,349.77,79.82,349.17Z" />
        <path d="M55.25,394.88S70,413.34,85.18,419.46s33,33.33,33,33.33-1.13,7.52-6.3,8.62c-11-19.9-17-30.91-22.33-34.56-9.17-5.66-21.25-13.19-24.84-17.76S55.51,398,55.25,394.88Z" />
        <path d="M48.5,416.42s6.28,8.05,25.08,16.06,32.65,34.76,32.65,34.76-8.16-14.41-18.58-20.49c0,0,18.47,22.38,18.58,33.67-23.74,0-23.74-.46-23.74-.46s-14.07-21.49-26.21-35.62-17.18-29.48-19.65-37c8.16,16.24,20.19,29,35.44,38.85s21,18,21,18-9.35-16.79-23.53-25.44a74,74,0,0,1-21.63-20Z" />
        <path d="M84.08,402.6s8,5.69,23.19,12.25,18.39,25.8,18.94,33c-3.11-8.14-10.42-22.07-20-28.4S84.23,413.88,84.08,402.6Z" />
        <path d="M381,394.88s-14.78,18.46-29.92,24.58-18.52,33.33-18.52,33.33,1.12,7.52,6.3,8.62c10.95-19.9,2.51-30.91,7.88-34.56,9.17-5.66,21.26-13.19,24.84-17.76S380.74,398,381,394.88Z" />
        <path d="M387.74,416.42s-6.28,8.05-25.07,16.06-18.21,34.76-18.21,34.76-6.28-14.41,4.13-20.49c0,0-4,22.38-4.13,33.67,23.74,0,9.29-.46,9.29-.46s14.07-21.49,26.21-35.62,17.18-29.48,19.66-37c-8.17,16.24-20.2,29-35.45,38.85s-20.95,18-20.95,18,9.35-16.79,23.53-25.44a73.86,73.86,0,0,0,21.63-20Z" />
        <path d="M352.16,402.6s6.44,5.69-8.74,12.25-18.4,25.8-18.94,33c3.1-8.14,10.42-22.07,20-28.4S352,413.88,352.16,402.6Z" />
        <path d="M121.72,464.9s34-7.06,63.46-20S282.86,392,282.86,392l4.32,4.33S242.86,428.16,210,441.9c24.34-13.34,31.79-21.85,31.79-21.85s-44.87,24.47-60,31.83-43.94,15.88-43.94,15.88-9.33,2.7-12.58.76S121.72,464.9,121.72,464.9Z" />
        <path d="M134.39,400.92a88.89,88.89,0,0,1,9.69,19.13c3.43,10.11,5.3,15.25,5.3,15.25s10,9.12,13,9.13c-15.18,5.08-23.67,7.55-23.67,7.55s1-15,1-21.19S138.38,406.46,134.39,400.92Z" />
        <path d="M268.47,346a30,30,0,0,1-7.39,15.71c-6.44,6.85-19.41,19.12-21.84,30.52a108.12,108.12,0,0,0-2.57,18.67l-6.52,3.62s3.15-20.46,7.44-29.87,13.75-18.66,18.26-21.74,8.88-8.23,10-11.88S268.47,346,268.47,346Z" />
        <path d="M157.54,429.13c-15.43-14.21-23.31-31.29-30.87-42.74l-.09-.14c-4-6.09-9.58-14.93-16.69-22.86l-.63-.69q-.63-.69-1.29-1.38c-.16-.17-.32-.34-.49-.5a57.14,57.14,0,0,0-16.3-12.23A37.86,37.86,0,0,0,87.46,347l.63-.27.45-.2c4.81-2.06,12.53-7,22.21-11.24A129.9,129.9,0,0,0,126.21,346C138.11,353,140,357.67,140.06,358c-.48-.28-15.72-9.29-23.19-11.93,6.53,6.07,12.69,10.25,18,16.52,4.15,4.88,7.8,11,10.75,20.32C152.38,404.11,146.17,416,157.54,429.13Z" />
      </g>
    </g>
  </g>
</svg>