<svg xmlns="http://www.w3.org/2000/svg" viewBox="0 0 432 432">
  <defs>
    <style>.GUNDAN_CAT_OUTFIT_CAT_OUTFIT_26_cls-1{isolation:isolate;}.GUNDAN_CAT_OUTFIT_CAT_OUTFIT_26_cls-2{fill:#843b2d;}.GUNDAN_CAT_OUTFIT_CAT_OUTFIT_26_cls-3{opacity:0.22;mix-blend-mode:multiply;}.GUNDAN_CAT_OUTFIT_CAT_OUTFIT_26_cls-4{fill:#5b1910;}.GUNDAN_CAT_OUTFIT_CAT_OUTFIT_26_cls-5{fill:#2c1f1a;}.GUNDAN_CAT_OUTFIT_CAT_OUTFIT_26_cls-6{fill:#b27422;}.GUNDAN_CAT_OUTFIT_CAT_OUTFIT_26_cls-7{fill:none;stroke:#000;stroke-linecap:round;stroke-linejoin:round;stroke-width:2px;}</style>
  </defs>
  <g class="GUNDAN_CAT_OUTFIT_CAT_OUTFIT_26_cls-1">
    <g id="Outfit">
      <path class="GUNDAN_CAT_OUTFIT_CAT_OUTFIT_26_cls-2" d="M273.58,304.4c2.15-9.28,12.14-8.46,13.31.16a182.43,182.43,0,0,1-138.8-6.8s.75-5.64,4.22-8.67,7.32,1.77,7.21,7.11c4-7.88,15.14-6.86,14.53,4.53,4.08-7.06,15.75-7.62,15.75,4.71,4.85-8.56,13-8.42,14.1,2.75,4.84-7.9,11.94-6.53,15.08,2.56,2-8.82,13.22-8.43,14.43,1.26,2.92-9.09,11-10,13.82-1.51,4.24-8.69,11.23-8.26,14.86-2.59C265.72,299.23,268.83,299.8,273.58,304.4Z" />
      <path class="GUNDAN_CAT_OUTFIT_CAT_OUTFIT_26_cls-2" d="M108.3,427.69c-14.09,1.47-28.48,1.46-42.28-1.2A71.13,71.13,0,0,1,58,424.4c1.16-16.89-16.51-21.12-19.47-33C36.69,384.2,52,377.59,52,377.59c-3.35-1.83-6.47-3.37-9-4.79-10.39-5.73-6.6-13,1.82-16.42s11.1-7.27,11.1-7.27a25.31,25.31,0,0,1-2.24-10C53.87,324,79.3,326.51,88.35,327c2.36.13,4.72.11,6.94,0a69.8,69.8,0,0,1,4.19,11.59c5,18.34,5.08,37.29,4.35,56.29-.11.63-.2,1.3-.3,2C101.89,407.77,104.66,417.44,108.3,427.69Z" />
      <path class="GUNDAN_CAT_OUTFIT_CAT_OUTFIT_26_cls-3" d="M95.29,327.07a72.56,72.56,0,0,1,4.19,11.59c-8-2.32-40.29-6-38.07,7.19,1.64,9.74-1,14.58-2,15.91-.08-1.48-.93-5.42-.93-5.42s-13,7.6-2,16C68.82,381.7,77.78,390.55,80,407.13c-2.14-9.51-10.72-17.29-18.3-22.73,0,0-15.82,5.17-4.48,17A31.6,31.6,0,0,1,66,426.49,76.16,76.16,0,0,1,58,424.4c1.16-16.89-16.51-21.12-19.47-33C36.69,384.2,52,377.59,52,377.59c-3.35-1.83-6.47-3.37-9-4.79-10.39-5.73-6.6-13,1.82-16.42s11.1-7.27,11.1-7.27a25.31,25.31,0,0,1-2.24-10C53.87,324,79.3,326.51,88.35,327,90.71,327.16,93.07,327.14,95.29,327.07Z" />
      <path class="GUNDAN_CAT_OUTFIT_CAT_OUTFIT_26_cls-4" d="M108.29,427.69a53.76,53.76,0,0,0,3,5.18c-17.89,1.86-35.72,2-53.29-2.28V424.4C73.84,429.59,91.84,429.52,108.29,427.69Z" />
      <path class="GUNDAN_CAT_OUTFIT_CAT_OUTFIT_26_cls-4" d="M106.17,326.06c4.16,19.3,2.5,40,.17,59.48a46.73,46.73,0,0,0-2.52,9.41c.88-22.6,1.09-47.11-8.54-67.88a20,20,0,0,0-1.38-2.6s3.3.56,11.67-.68C105.79,324.52,106,325.28,106.17,326.06Z" />
      <path class="GUNDAN_CAT_OUTFIT_CAT_OUTFIT_26_cls-2" d="M238.16,326.19c-18.49,21.38-39.3,40.78-64.4,53.1-15.3,7.51-31.41,13.33-48.56,16.12-2.83.46-5.47.78-7.81,1a86.33,86.33,0,0,1-13.86.48c.09-.68.19-1.34.3-2a47.83,47.83,0,0,1,2.52-9.41s1.08-8.42,1.7-19.55a225.74,225.74,0,0,0,.16-24.61,89.7,89.7,0,0,0-2-15.32c13.37-2.06,28-8.23,36.46-19.34h0c23.26,10,46.86,17.27,72.22,19.17A189.34,189.34,0,0,0,238.16,326.19Z" />
      <path class="GUNDAN_CAT_OUTFIT_CAT_OUTFIT_26_cls-3" d="M117.39,396.43a87.84,87.84,0,0,1-13.86.48c.09-.68.19-1.34.3-2a47.83,47.83,0,0,1,2.52-9.41s1.08-8.42,1.7-19.55c.54-1,.81-1.51,1.36-2.51C109.92,375.08,113.35,385.6,117.39,396.43Z" />
      <path class="GUNDAN_CAT_OUTFIT_CAT_OUTFIT_26_cls-3" d="M238.16,326.19c-18.49,21.38-39.3,40.78-64.4,53.1-15.3,7.51-31.37,13.27-48.56,16.12,25.42-6.8,52.08-16.3,68.27-38.43-18.81,7.26-47.93,12.38-66.07,1.57,26.17-1.9,51.8-5.26,75.24-17.88-15.95,2.95-36.72.92-49.5-9.84,20,4.34,41.36,3.23,61.54.5l-.26,0c-19.92-1.28-40.54-3.24-59.84-8.93-13.12,7.86-30.15,20.32-46.37,19a89.7,89.7,0,0,0-2-15.32c13.37-2.06,28-8.23,36.46-19.34h0c23.26,10,46.86,17.27,72.22,19.17A189.34,189.34,0,0,0,238.16,326.19Z" />
      <path class="GUNDAN_CAT_OUTFIT_CAT_OUTFIT_26_cls-4" d="M146.64,297.06s.5.26,1.45.7a182.27,182.27,0,0,0,138.8,6.8l.59-.24a40.93,40.93,0,0,0,7.26,9.22s-.48.24-1.42.66c-12.46,5.48-26,8.45-39.27,10.5-4.83.75-10.26,1.19-15.89,1.49-33.08,1.74-65.22-6.55-95.53-19.48-.68-.3-1.35-.61-2-.94C140.6,305.77,145.53,301.09,146.64,297.06Z" />
      <path class="GUNDAN_CAT_OUTFIT_CAT_OUTFIT_26_cls-2" d="M111.25,432.87c2.36,3.63,4.62,7.41,6.72,11.33l-.45.23s-5,2.1-6.89-3.32c.25,6.82-5.45,7.45-10.16,1.81-.08,3.68-4.7,8.16-9.33.46-4.33,8.36-11.18,4.49-12.62-.8,0,5.77-6.15,7.69-9.66,1.16-1.77,4.76-9.45,4-7.76-2.58A5.93,5.93,0,0,1,58,442c-2.52,0-4.57-1.89-3.55-5A17.41,17.41,0,0,1,58,430.59C75.53,434.89,93.36,434.73,111.25,432.87Z" />
      <path class="GUNDAN_CAT_OUTFIT_CAT_OUTFIT_26_cls-5" d="M294.73,459.71q-9.35.57-18.69.9h0a4.53,4.53,0,0,0-4.38-2.86c-10.09.33-20.3.47-30.39.4a4.65,4.65,0,0,0-4.36,3c-11.5-.26-23-.66-34.45-1.19,18.55-9.33,36.73-20.73,48.56-38.28a6.23,6.23,0,0,0,4.86,2.26,6.4,6.4,0,0,0,4.86-2.36C268,437.11,280.49,450.35,294.73,459.71Z" />
      <path class="GUNDAN_CAT_OUTFIT_CAT_OUTFIT_26_cls-6" d="M260.73,413.61a6.14,6.14,0,0,1,1.42,4,6.31,6.31,0,0,1-1.42,4,6.4,6.4,0,0,1-4.86,2.36,6.2,6.2,0,0,1-6.27-6.21,6.35,6.35,0,0,1,6.27-6.34A6.15,6.15,0,0,1,260.73,413.61Z" />
      <path class="GUNDAN_CAT_OUTFIT_CAT_OUTFIT_26_cls-5" d="M250.19,420.35a5.71,5.71,0,0,0,.83,1.31c-11.84,17.55-30.21,29.52-48.57,38.28A137,137,0,0,1,183.54,467c-3.41,1-7,2-10.7,2.86-14.25,3.32-28.58,4.44-43.18,5a116.06,116.06,0,0,0-10.82-29.05L118,444.2c-2.11-3.91-4.37-7.7-6.72-11.33a36,36,0,0,1-3-5.18c-4-9.4-6.64-19.75-4.77-30.78a83,83,0,0,0,13.86-.49c19.92-2.08,38.22-8.64,56.37-17.13h0c26.55,6,57.25,15.1,77.26,34.41h0a6.25,6.25,0,0,0-.84,6.63Z" />
      <path class="GUNDAN_CAT_OUTFIT_CAT_OUTFIT_26_cls-3" d="M260.06,413.46l-.07.09a6.19,6.19,0,0,0-4.86-2.25,6.93,6.93,0,0,0-1.66.24c2.3-10-2.4-19.58-6.3-28.38C256.08,390.18,259.82,402.51,260.06,413.46Z" />
      <path class="GUNDAN_CAT_OUTFIT_CAT_OUTFIT_26_cls-4" d="M338.74,333.11c3.46,24.51,5.48,52.92-4.8,76.06,5.91-24.27.72-55.71-7.58-79a16.5,16.5,0,0,0-.9-2c10.13,1.57,13.1,3.76,13.1,3.76S338.63,332.35,338.74,333.11Z" />
      <path class="GUNDAN_CAT_OUTFIT_CAT_OUTFIT_26_cls-2" d="M325.46,328.18c8.3,23.29,14.39,56.72,8.48,81a42.91,42.91,0,0,0-15-30.57h0c-7.7-6.94-17-12.21-25.51-17.7-14.89-9.59-28.83-21.41-39.37-36.19h0c13.43-2.3,28.14-5.71,40.69-11.16C305.19,319.72,312.79,323.79,325.46,328.18Z" />
      <path class="GUNDAN_CAT_OUTFIT_CAT_OUTFIT_26_cls-2" d="M378,348.49c1.32,11.4,13.49,13,14.86,22.27.6,4.06-1.42,7.59-10.62,12.72,4.2,2.27,10.55,7.29,9.35,11.91-3,11.44-21.43,14.09-20.17,31.09h0c-14.17,4.64-30.05,4.85-44.77,3.8,3.7-7.67,6.66-14.79,7.34-21.11,10.28-23.14,8.26-51.55,4.8-76.06,0,0,11.93,3.52,23.48,3.07C372.47,335.78,381.68,338.31,378,348.49Z" />
      <path class="GUNDAN_CAT_OUTFIT_CAT_OUTFIT_26_cls-4" d="M371.37,426.48v6.19c-15.71,3.7-31.41,3.95-47.45,3,.92-1.84,1.82-3.63,2.68-5.42C341.32,431.33,357.2,431.12,371.37,426.48Z" />
      <path class="GUNDAN_CAT_OUTFIT_CAT_OUTFIT_26_cls-5" d="M333.94,409.17c-.68,6.32-3.64,13.44-7.34,21.11-.17.36-.34.71-.53,1.07q-1,2.14-2.15,4.35c-1.63,3.24-3.31,6.62-5,10-.23.47-.47.95-.7,1.43h0c-1.78,3.69-3.48,7.44-5,11.25A97.41,97.41,0,0,0,310,468a101.46,101.46,0,0,1-15.26-8.24c-14.23-9.36-26.77-22.6-34-38.15a6.63,6.63,0,0,0,.9-1.51,6.44,6.44,0,0,0,.52-2.48,6.14,6.14,0,0,0-1.42-4c14.31-17,35.62-32.53,58.19-35h0A42.84,42.84,0,0,1,333.94,409.17Z" />
      <path class="GUNDAN_CAT_OUTFIT_CAT_OUTFIT_26_cls-3" d="M250.19,420.35a5.39,5.39,0,0,0,.83,1.31c-11.84,17.55-30.21,29.52-48.57,38.28A137,137,0,0,1,183.54,467c-3.41,1-7,2-10.7,2.86-14.25,3.32-28.58,4.44-43.18,5a116.06,116.06,0,0,0-10.82-29.05L118,444.2c-2.11-3.91-4.37-7.7-6.72-11.33a36,36,0,0,1-3-5.18c-4-9.4-6.64-19.75-4.77-30.78a87.28,87.28,0,0,0,13.86-.49,107.82,107.82,0,0,0,20.2,30.65C165.4,456.72,222.52,443.44,250.19,420.35Z" />
      <path class="GUNDAN_CAT_OUTFIT_CAT_OUTFIT_26_cls-3" d="M326.07,431.35q-1,2.14-2.15,4.35c-1.63,3.24-3.31,6.62-5,10-.23.47-.47.95-.7,1.43h0c-1.78,3.69-3.48,7.44-5,11.25A97.41,97.41,0,0,0,310,468a101.46,101.46,0,0,1-15.26-8.24c-14.23-9.36-26.77-22.6-34-38.15a6.1,6.1,0,0,0,.9-1.51C282.86,433.15,301.58,439.63,326.07,431.35Z" />
      <path class="GUNDAN_CAT_OUTFIT_CAT_OUTFIT_26_cls-7" d="M142.63,306.71c-.68-.3-1.35-.61-2-.94,0,0,4.93-4.68,6-8.71,0,0,.5.26,1.45.7a182.43,182.43,0,0,0,138.8,6.8l.59-.24a40.93,40.93,0,0,0,7.26,9.22s-.48.24-1.42.66c-12.55,5.45-25.84,8.2-39.27,10.5-4.92.69-10.23,1.21-15.89,1.49C205,328.08,172.94,319.64,142.63,306.71Z" />
      <path class="GUNDAN_CAT_OUTFIT_CAT_OUTFIT_26_cls-7" d="M59.34,362c-.24-5.1-2-9-3.49-12.84a25.49,25.49,0,0,1-2.24-10C53.87,324,79.3,326.51,88.34,327c2.36.13,4.72.11,6.94,0" />
      <path class="GUNDAN_CAT_OUTFIT_CAT_OUTFIT_26_cls-7" d="M142.63,306.72c-8.45,11.11-23.08,17.28-36.46,19.34" />
      <path class="GUNDAN_CAT_OUTFIT_CAT_OUTFIT_26_cls-7" d="M55.85,349.11s-2.68,3.84-11.09,7.27-12.21,10.69-1.82,16.42c2.56,1.42,5.68,3,9,4.79,12.39,6.77,24.16,17,28.27,31.07" />
      <path class="GUNDAN_CAT_OUTFIT_CAT_OUTFIT_26_cls-7" d="M108.29,427.69c-16.45,1.83-34.45,1.9-50.33-3.29,1.15-16.89-16.51-21.12-19.47-33C36.69,384.2,52,377.59,52,377.59" />
      <path class="GUNDAN_CAT_OUTFIT_CAT_OUTFIT_26_cls-7" d="M58,424.4v6.19c17.57,4.3,35.4,4.14,53.29,2.28" />
      <path class="GUNDAN_CAT_OUTFIT_CAT_OUTFIT_26_cls-7" d="M58,430.59a17.41,17.41,0,0,0-3.55,6.46c-1,3.09,1,4.95,3.55,5a5.84,5.84,0,0,0,3.14-.87c-1.69,6.58,6,7.34,7.76,2.58,3.51,6.53,9.62,4.61,9.66-1.16,1.44,5.29,8.29,9.16,12.62.8,4.63,7.7,9.25,3.22,9.33-.46,4.71,5.64,10.41,5,10.16-1.81,1.86,5.42,6.89,3.32,6.89,3.32" />
      <path class="GUNDAN_CAT_OUTFIT_CAT_OUTFIT_26_cls-7" d="M326.59,430.28h0c14.72,1.05,30.6.84,44.77-3.8h0c-1.26-17,17.21-19.65,20.17-31.09,1.2-4.62-5.15-9.64-9.35-11.91" />
      <path class="GUNDAN_CAT_OUTFIT_CAT_OUTFIT_26_cls-7" d="M323.92,435.7c16,.92,31.74.67,47.45-3v-6.19" />
      <path class="GUNDAN_CAT_OUTFIT_CAT_OUTFIT_26_cls-7" d="M371.37,432.67a17.41,17.41,0,0,1,3.55,6.46c1.11,3.36-1.37,5.25-4.18,5a6.1,6.1,0,0,1-2.5-.85c1.69,6.57-6,7.34-7.76,2.57-3.5,6.54-9.61,4.61-9.66-1.17-1.44,5.29-8.29,9.17-12.63.8-4.62,7.71-9.25,3.22-9.33-.44-4.05,4.84-8.83,5.06-9.92.67" />
      <path class="GUNDAN_CAT_OUTFIT_CAT_OUTFIT_26_cls-7" d="M318.24,447.11c.23-.48.46-.95.7-1.43,1.65-3.4,3.35-6.73,5-10,.92-1.84,1.82-3.63,2.68-5.42,3.7-7.67,6.66-14.79,7.34-21.11" />
      <path class="GUNDAN_CAT_OUTFIT_CAT_OUTFIT_26_cls-7" d="M103.82,395c.88-22.6,1-46.81-8.54-67.88a24.73,24.73,0,0,0-1.38-2.6s3.3.56,11.67-.68c.22.73.42,1.49.6,2.27,4.16,19.3,2.5,40,.17,59.48a46.73,46.73,0,0,0-2.52,9.41c-.11.63-.21,1.28-.3,2-1.86,11,1.14,20.53,4.77,30.78a53.76,53.76,0,0,0,3,5.18c2.36,3.63,4.62,7.41,6.72,11.33.29.53.58,1.07.86,1.62a109.76,109.76,0,0,1,10.82,29.05c3.43,15.38,2.27,29.84-.52,45.18,17,.68,33.91,1,50.87,1.23,3.25,0,6.55.06,9.87.09" />
      <path class="GUNDAN_CAT_OUTFIT_CAT_OUTFIT_26_cls-7" d="M103.52,396.91c24.63.84,48.24-7.34,70.24-17.62,25.33-13,45.9-31.72,64.4-53.1" />
      <path class="GUNDAN_CAT_OUTFIT_CAT_OUTFIT_26_cls-7" d="M223.16,333.74c-25.57,23.56-63.23,27.42-96.24,24.76" />
      <path class="GUNDAN_CAT_OUTFIT_CAT_OUTFIT_26_cls-7" d="M213.92,333.75c-19.8,4.23-41.67,4.22-60.78-2.92" />
      <path class="GUNDAN_CAT_OUTFIT_CAT_OUTFIT_26_cls-7" d="M318.94,378.6a42.91,42.91,0,0,1,15,30.57c5.91-24.27.72-55.71-7.58-79a16.5,16.5,0,0,0-.9-2c10.13,1.57,13.1,3.76,13.1,3.76s.07.41.18,1.17c3.46,24.51,5.48,52.92-4.8,76.06" />
      <path class="GUNDAN_CAT_OUTFIT_CAT_OUTFIT_26_cls-7" d="M254.05,324.71c10.54,14.78,24.48,26.6,39.37,36.19,8.51,5.49,17.81,10.76,25.51,17.7" />
      <path class="GUNDAN_CAT_OUTFIT_CAT_OUTFIT_26_cls-7" d="M294.74,313.54a243.33,243.33,0,0,0,30.72,14.64" />
      <path class="GUNDAN_CAT_OUTFIT_CAT_OUTFIT_26_cls-7" d="M264,328.63a159.82,159.82,0,0,0,36.56,20" />
      <path class="GUNDAN_CAT_OUTFIT_CAT_OUTFIT_26_cls-7" d="M273.24,327.16c15.59,3.87,31.35,6.62,47.25,8.92" />
      <path class="GUNDAN_CAT_OUTFIT_CAT_OUTFIT_26_cls-7" d="M338.74,333.11s11.93,3.52,23.48,3.07c10.25-.4,19.46,2.13,15.74,12.31a26.94,26.94,0,0,1-2.09,4.3c-8.1,13.77-8.37,24.9-8.37,24.9" />
      <path class="GUNDAN_CAT_OUTFIT_CAT_OUTFIT_26_cls-7" d="M354.41,408.47c4.76-8.88,12.4-17.42,21.57-21.77,2.37-1.13,4.44-2.22,6.22-3.22,9.2-5.13,11.22-8.66,10.62-12.72-1.37-9.24-13.54-10.87-14.86-22.27" />
      <path class="GUNDAN_CAT_OUTFIT_CAT_OUTFIT_26_cls-7" d="M260.73,413.61a6.14,6.14,0,0,1,1.42,4,6.31,6.31,0,0,1-1.42,4,6.4,6.4,0,0,1-4.86,2.36,6.24,6.24,0,0,1-4.85-10.2,6.3,6.3,0,0,1,4.85-2.35A6.15,6.15,0,0,1,260.73,413.61Z" />
      <path class="GUNDAN_CAT_OUTFIT_CAT_OUTFIT_26_cls-7" d="M173.76,379.3c26.55,6,57.25,15.1,77.25,34.41" />
      <path class="GUNDAN_CAT_OUTFIT_CAT_OUTFIT_26_cls-7" d="M260.73,413.61c14.32-17,35.63-32.53,58.2-35h0" />
      <path class="GUNDAN_CAT_OUTFIT_CAT_OUTFIT_26_cls-7" d="M251,421.66c-11.83,17.55-30,28.95-48.56,38.28A154.67,154.67,0,0,1,183.53,467q-5.11,1.55-10.69,2.86c-14.25,3.32-28.58,4.44-43.19,5h0" />
      <path class="GUNDAN_CAT_OUTFIT_CAT_OUTFIT_26_cls-7" d="M310,468h0a101.46,101.46,0,0,1-15.26-8.24c-14.24-9.36-26.77-22.6-34-38.15" />
      <path class="GUNDAN_CAT_OUTFIT_CAT_OUTFIT_26_cls-7" d="M148.09,297.76s.75-5.64,4.22-8.67,7.32,1.77,7.21,7.11c4-7.88,15.14-6.86,14.53,4.53,4.08-7.06,15.75-7.62,15.75,4.71,4.85-8.56,13-8.42,14.1,2.75,4.84-7.9,11.94-6.53,15.08,2.56,2-8.82,13.22-8.43,14.43,1.26,2.92-9.09,11-10,13.82-1.51,4.24-8.69,11.23-8.26,14.86-2.59,3.63-8.68,6.74-8.11,11.49-3.51,2.15-9.28,12.14-8.46,13.31.16" />
    </g>
  </g>
</svg>