<?xml version="1.0" encoding="utf-8"?>
<!-- Generator: Adobe Illustrator 25.2.0, SVG Export Plug-In . SVG Version: 6.00 Build 0)  -->
<svg version="1.1" id="Layer_1" xmlns="http://www.w3.org/2000/svg" xmlns:xlink="http://www.w3.org/1999/xlink" x="0px" y="0px" viewBox="0 0 432 432" style="enable-background:new 0 0 432 432;" xml:space="preserve">
<style type="text/css">
	.st0{fill:#221D21;}
	.st1{fill:#442A13;}
	.st2{fill:#351D0B;}
	.st3{fill:#603229;}
	.st4{fill:#B27422;stroke:#000000;stroke-width:2;stroke-linecap:round;stroke-linejoin:round;}
	.st5{fill:#80492A;}
	.st6{fill:#331C16;}
	.st7{opacity:0.22;enable-background:new    ;}
	.st8{fill:#D2D2D4;}
	.st9{fill:none;stroke:#000000;stroke-width:2;stroke-linecap:round;stroke-linejoin:round;}
	.st10{fill:#0C0605;}
	.st11{fill:#B27422;}
	.st12{fill:none;stroke:#000000;stroke-width:1.59;stroke-linecap:round;stroke-linejoin:round;}
	.st13{fill:none;stroke:#000000;stroke-width:1.9986;stroke-linecap:round;stroke-linejoin:round;stroke-miterlimit:10;}
</style>
<g>
	<g id="Outfit">
		<path class="st0" d="M122.12,428.6C115,432,104.44,440,104.44,440c-0.11-1.8-0.14-3.71-0.24-6.06c5.84-2.19,7.82-4.83,7.82-4.83&#xD;&#xA;			C115.39,429.46,118.8,429.29,122.12,428.6z" />
		<path class="st1" d="M112,429.12c0,0-2,2.64-7.82,4.83c-5.28,2-13.72,3.62-26.7,2.6L75,436.33l-0.93-0.09L71.76,436l-0.74-0.09&#xD;&#xA;			l-1.24-0.15l-0.5-0.07l-1.16-0.16h-0.26l-1.17-0.17h-0.24l-1.11-0.18l-0.49-0.09l0,0L64.32,435l-0.25-0.05l-0.36-0.07l-0.36-0.06&#xD;&#xA;			H63.2l-0.39-0.08l-0.33-0.07l-0.88-0.18l-0.34-0.08l-0.83-0.18l-0.24-0.06h-0.11l-0.57-0.13l-1-0.26l-0.24-0.06h-0.09&#xD;&#xA;			c-0.32-0.09-0.64-0.17-1-0.27l-0.44-0.12l-0.43-0.13h-0.12l-1-0.3l-0.9-0.3l0,0l-0.6-0.21c-0.32-0.11-0.62-0.23-0.92-0.35&#xD;&#xA;			c-0.6-0.23-1.16-0.47-1.69-0.71l-0.81-0.38l-0.2-0.1l-0.23-0.12l-0.33-0.17l-0.33-0.18l-0.22-0.12c-0.29-0.16-0.58-0.33-0.85-0.5&#xD;&#xA;			l-0.21-0.14l-0.27-0.17l-0.3-0.2l-0.14-0.1l-0.4-0.28l-0.46-0.35l-0.17-0.14c-0.29-0.24-0.56-0.48-0.82-0.72&#xD;&#xA;			c-1.84-1.6-2.99-3.84-3.21-6.26c-0.43-5.45,1.43-21.18,6-34.29c0.8-2.32,1.71-4.6,2.75-6.83l0.21-0.71&#xD;&#xA;			c2.65,1.45,6.44,4.42,11.52,10.45C66.06,394,69.78,399,74,404.12c0.45,0.56,0.92,1.12,1.4,1.68s0.87,1,1.32,1.54&#xD;&#xA;			s0.71,0.82,1.08,1.23l0.78,0.86c0.63,0.7,1.28,1.39,1.94,2.08s1.43,1.47,2.17,2.19c0.29,0.29,0.58,0.57,0.88,0.84&#xD;&#xA;			c1.6,1.53,3.28,3,5,4.36c0.53,0.42,1.06,0.82,1.6,1.21l0.93,0.67c0.08,0.06,0.16,0.12,0.25,0.17c0.3,0.22,0.6,0.42,0.9,0.62&#xD;&#xA;			c1.39,0.93,2.82,1.8,4.31,2.6l1,0.53c0.89,0.45,1.79,0.87,2.71,1.26c0.44,0.19,0.88,0.37,1.33,0.54s1,0.4,1.58,0.58&#xD;&#xA;			c0.13,0.05,0.26,0.1,0.39,0.13c0.51,0.18,1,0.34,1.55,0.49l0.58,0.17c0.6,0.17,1.21,0.32,1.82,0.46c0.31,0.08,0.65,0.15,1,0.21&#xD;&#xA;			c0.68,0.15,1.38,0.27,2.08,0.38l1.2,0.17L112,429.12z" />
		<path class="st2" d="M74,404.12c-4.33,0.92-14.23,5-14.35,23.18c0.03,2.18-0.49,4.33-1.53,6.25l0,0c-0.32-0.09-0.64-0.17-1-0.27&#xD;&#xA;			l-0.44-0.12l-0.43-0.13h-0.12l-1-0.3l-0.9-0.3l0,0l-0.6-0.21c-0.32-0.11-0.62-0.23-0.92-0.35c-0.6-0.23-1.16-0.47-1.69-0.71&#xD;&#xA;			l-0.81-0.38l-0.2-0.1l-0.23-0.12l-0.33-0.17l-0.33-0.18l-0.22-0.12c-0.29-0.16-0.58-0.33-0.85-0.5l-0.21-0.14l-0.27-0.17l-0.3-0.2&#xD;&#xA;			l-0.14-0.1l-0.4-0.28l-0.46-0.35l-0.17-0.14c-0.29-0.24-0.56-0.48-0.82-0.72c-1.84-1.6-2.99-3.84-3.21-6.26&#xD;&#xA;			c-0.43-5.45,1.43-21.18,6-34.29c0.8-2.32,1.71-4.6,2.75-6.83l0.21-0.71c2.65,1.45,6.44,4.42,11.52,10.45&#xD;&#xA;			C66.06,394,69.78,399,74,404.12z" />
		<path class="st1" d="M173.73,364.3l-9.42,13.4l10.76,4.6c0,0,2.23,0.89,6.18,2.25c-9.05,15.25-26.64,30.45-43.55,38.62l0,0&#xD;&#xA;			c-1.54,0.63-3.07,1.29-4.58,2c-1.96,0.82-3.96,1.53-6,2.14c-1.64,0.5-3.31,0.91-5,1.24c-3.32,0.69-6.73,0.87-10.1,0.52&#xD;&#xA;			c-24.47-3-38.21-25.93-49.43-39.31c-5.08-6-8.87-9-11.52-10.45l-0.21,0.71c-1.04,2.23-1.95,4.51-2.75,6.83&#xD;&#xA;			c0,0-8.74-1.79-3.21-15.83c1.77-4.52,2.91-7.17,3.64-8.72c1-2.18,1.22-2.18,1.22-2.18s8.55,7.41,29.33,16.5&#xD;&#xA;			c14.77,6.47,34.66,4,51.23-1.66c6.26-2.11,12.28-4.84,18-8.15c17.55-10.35,28.54-29.49,26.5-47.72c2.87,4.17,17.61,23.64,12.44,50&#xD;&#xA;			C179.6,366.69,173.73,364.3,173.73,364.3z" />
		<path class="st3" d="M339.21,420.94c-0.47,2.31-1.06,4.59-1.76,6.84c-22.25-8.29-38-1.36-55.49,10.37&#xD;&#xA;			c-8,5.34-15.32,9.52-23.48,11.06c-1.32,0.25-2.66,0.42-4,0.52c-1.42,0.11-2.85,0.13-4.28,0.07c-8.19-0.31-17.46-3.34-28.91-10.24&#xD;&#xA;			c-27.82-16.78-60.16-19.23-88.19-5.78c0,0-16.79,8.14-27.07,15.11c-0.9-2.88-1.43-5.87-1.59-8.88c0,0,10.53-8,17.68-11.41l0,0&#xD;&#xA;			l0.48-0.09h0.17l0.65-0.14l0.9-0.21l0.44-0.11c0.31-0.07,0.63-0.16,0.94-0.25l1.36-0.39c0.44-0.12,0.88-0.26,1.32-0.41&#xD;&#xA;			s0.6-0.19,0.9-0.3l0.52-0.18l0.6-0.21l0.28-0.1l1-0.38l1.41-0.56c1.51-0.61,3.04-1.28,4.58-2l0,0c26.92-11.08,57.28-8,83.59,7.83&#xD;&#xA;			c27.82,16.78,42.73,10.63,60.67-1.41S316,411.62,339.21,420.94z" />
		<path class="st1" d="M148.33,366.86c-4.74,2.75-9.7,5.09-14.84,7c-1,0.4-2.1,0.78-3.17,1.15c-16.57,5.67-36.46,8.13-51.23,1.66&#xD;&#xA;			c-20.78-9.09-29.33-16.5-29.33-16.5s-0.2,0-1.22,2.18c-3.7-3-3.36-8.9,4.6-17.4c12.07-12.88,23.35-16.95,43.69-21.69l1.56-0.38&#xD;&#xA;			c1.68-0.43,3.4-0.92,5.14-1.47l0,0c14.63-4.57,31-13,40.08-19.52c2.81-2,5.83-3.53,7-5l0.51,0.19l1.34,0.51&#xD;&#xA;			c14.19,5.56,20.44,12.75,22.39,21.57l0,0C176.87,337.37,165.88,356.51,148.33,366.86z" />
		<path class="st2" d="M129.59,425.81c-0.78,0.54-1.62,1.05-2.51,1.55c-1.64,0.5-3.31,0.91-5,1.24c-3.32,0.69-6.73,0.87-10.1,0.52&#xD;&#xA;			c-24.47-3-38.21-25.93-49.43-39.31c-5.08-6-8.87-9-11.52-10.45l-0.21,0.71c-1.04,2.23-1.95,4.51-2.75,6.83&#xD;&#xA;			c0,0-8.74-1.79-3.21-15.83c1.77-4.52,2.91-7.17,3.64-8.72c-3.7-3-3.36-8.9,4.6-17.4c12.11-12.88,23.39-16.95,43.73-21.69&#xD;&#xA;			l1.56-0.38c-10.34,4.7-19.89,19.46-8.48,32.75c13.33,15.52,30.94,20.15,43.52,17.5c-1.07,0.56-2.11,1.19-3.11,1.88&#xD;&#xA;			C114.78,385.61,93.83,416.69,129.59,425.81z" />
		<ellipse class="st4" cx="176.71" cy="374.33" rx="3.2" ry="3.15" />
		<path class="st5" d="M343,397.84c-0.85-0.52-1.7-1-2.53-1.5c-28.7-16.55-53.22-12.53-96.57-15.94&#xD;&#xA;			c-19.24-1.68-38.23-5.47-56.64-11.3c-7.67-2.41-13.54-4.8-13.54-4.8l-9.42,13.4l10.76,4.6c0,0,2.23,0.89,6.18,2.25&#xD;&#xA;			c10.93,3.75,35.16,11.1,62.66,13.27c43.29,3.42,67.8-0.6,96.44,15.86c-0.11,1.05-0.25,2.13-0.43,3.24h0.11c0,0,1,0.25,2.68-1.16&#xD;&#xA;			C344,409.42,343,397.84,343,397.84z M176.7,377.48c-1.74-0.02-3.13-1.45-3.11-3.19c0.02-1.74,1.45-3.13,3.19-3.11&#xD;&#xA;			c1.72,0.02,3.11,1.43,3.11,3.15c-0.01,1.75-1.43,3.16-3.18,3.15L176.7,377.48z" />
		<path class="st6" d="M337.45,427.78c-5.29,17.34-15.94,33-15.94,33s-0.45,0.66-1.17,1.86c-3.34,5.58-5.93,11.58-7.71,17.84&#xD;&#xA;			c-4.36,20.65-1.34,51.86-1.34,51.86h-52.72v-82.62l-0.09-0.51c8.16-1.54,15.52-5.72,23.48-11.06&#xD;&#xA;			C299.43,426.42,315.2,419.49,337.45,427.78z" />
		<path class="st7" d="M337.45,427.78c-5.29,17.34-15.94,33-15.94,33s-0.45,0.66-1.17,1.86c-18.45,11.79-41.44,13.96-61.77,5.84&#xD;&#xA;			v-18.76l-0.09-0.51c8.16-1.54,15.52-5.72,23.48-11.06C299.43,426.42,315.2,419.49,337.45,427.78z" />
		<path class="st8" d="M51.09,431.12c0.53,0.24,1.09,0.48,1.69,0.71C52.19,431.6,51.62,431.37,51.09,431.12z" />
		<path class="st7" d="M51.09,431.12c0.53,0.24,1.09,0.48,1.69,0.71C52.19,431.6,51.62,431.37,51.09,431.12z" />
		<path class="st6" d="M250.2,449.8v82.53H124.93c1.67-18.33,0.33-39.8-10.39-62.92c-0.76-1.65-1.47-3.18-2.12-4.62l0,0&#xD;&#xA;			c-2.47-5.16-4.61-10.47-6.42-15.9c10.28-7,27.07-15.11,27.07-15.11c28-13.45,60.37-11,88.19,5.78&#xD;&#xA;			C232.74,446.46,242,449.49,250.2,449.8z" />
		<path class="st7" d="M221.29,439.56c11.45,6.9,20.72,9.93,28.91,10.24v19c-13.26,6.19-55.13,21.81-94-5.86&#xD;&#xA;			c6.27,24-0.94,69.42-0.94,69.42h-30.33c1.67-18.33,0.33-39.8-10.39-62.92c-0.76-1.65-1.47-3.18-2.12-4.62l0,0&#xD;&#xA;			c-2.47-5.17-4.61-10.49-6.42-15.93c10.28-7,27.07-15.11,27.07-15.11C161.13,420.33,193.47,422.78,221.29,439.56z" />
		<path class="st9" d="M50.86,380.07c-1.04,2.23-1.95,4.51-2.75,6.83c-4.54,13.11-6.4,28.84-6,34.29c0.22,2.42,1.37,4.66,3.21,6.26&#xD;&#xA;			c0.26,0.24,0.53,0.48,0.82,0.72l0.17,0.14l0.46,0.35l0.4,0.28l0.14,0.1l0.3,0.2l0.27,0.17l0.21,0.14c0.27,0.17,0.56,0.34,0.85,0.5&#xD;&#xA;			l0.22,0.12l0.33,0.18l0.33,0.17l0.23,0.12l0.2,0.1l0.81,0.38c0.53,0.24,1.09,0.48,1.69,0.71c0.3,0.12,0.6,0.24,0.92,0.35l0.6,0.21&#xD;&#xA;			l0,0l0.9,0.3l1,0.3h0.12l0.43,0.13l0.44,0.12l1,0.26l0,0h0.09l0.24,0.06l1,0.26l0.57,0.13h0.11l0.24,0.06l0.83,0.18l0.34,0.08&#xD;&#xA;			l0.88,0.18l0.33,0.07l0.39,0.08h0.15l0.36,0.07l0.36,0.07l0.25,0.05l0.53,0.09l0,0l0.49,0.09l1.11,0.18h0.24l1.17,0.17h0.26&#xD;&#xA;			l1.16,0.16l0.5,0.07L71,435.7l0.74,0.09l2.26,0.24l0.93,0.09l2.55,0.22c13,1,21.42-0.61,26.7-2.6c5.84-2.19,7.82-4.83,7.82-4.83" />
		<path class="st9" d="M137.7,423.17c16.91-8.16,34.5-23.37,43.55-38.62" />
		<path class="st9" d="M46.33,378.09c0,0,1.51-0.5,4.74,1.27c2.65,1.45,6.44,4.42,11.52,10.45c11.22,13.38,25,36.33,49.43,39.31&#xD;&#xA;			c3.37,0.35,6.78,0.17,10.1-0.52c3.77-0.76,7.45-1.89,11-3.38c1.51-0.61,3.04-1.28,4.58-2" />
		<path class="st9" d="M174.83,319.14c2.87,4.17,17.61,23.64,12.44,50" />
		<path class="st9" d="M48.11,386.9c0,0-8.74-1.79-3.21-15.83c1.78-4.52,2.91-7.17,3.64-8.72c1-2.18,1.22-2.18,1.22-2.18&#xD;&#xA;			s8.55,7.41,29.33,16.5s51.71,0.54,69.24-9.81s28.54-29.49,26.5-47.72l0,0c-2-8.82-8.2-16-22.39-21.57&#xD;&#xA;			c-0.6-0.24-1.21-0.47-1.84-0.7c-5.25,7.05-33.43,21.67-53.77,26.4s-31.62,8.8-43.69,21.73c-8,8.5-8.3,14.42-4.6,17.4" />
		<path class="st9" d="M112.42,464.79c0.65,1.44,1.36,3,2.12,4.62c10.73,23.12,12.07,44.59,10.39,62.92h186.36&#xD;&#xA;			c0,0-3-31.21,1.34-51.86c1.97-6.97,4.97-13.61,8.88-19.7c0,0,10.65-15.65,15.94-33c0.7-2.26,1.3-4.55,1.77-6.84&#xD;&#xA;			c0.15-0.69,0.27-1.37,0.39-2.06s0.22-1.32,0.32-2c0.17-1.11,0.31-2.19,0.42-3.24" />
		<path class="st9" d="M340.35,413.68c-28.64-16.46-53.15-12.44-96.44-15.86c-27.5-2.17-51.73-9.52-62.66-13.27&#xD;&#xA;			c-3.95-1.36-6.18-2.25-6.18-2.25l-10.76-4.6l9.42-13.4c0,0,5.87,2.39,13.54,4.8c18.41,5.83,37.4,9.62,56.64,11.3&#xD;&#xA;			c43.36,3.41,67.87-0.61,96.57,15.94c0.84,0.48,1.68,1,2.53,1.5" />
		<path class="st9" d="M343,397.84c0,0,0.95,11.58-0.3,17.94c-1.68,1.41-2.68,1.16-2.68,1.16" />
		<path class="st9" d="M133.1,425.22c1.51-0.73,3.04-1.4,4.58-2l0,0c26.92-11.08,57.29-8,83.59,7.83&#xD;&#xA;			c27.82,16.78,42.74,10.63,60.67-1.41s34.08-18,57.26-8.65" />
		<path class="st9" d="M337.45,427.78c-22.25-8.29-38-1.36-55.49,10.37c-8,5.34-15.32,9.52-23.48,11.06c-1.32,0.25-2.66,0.42-4,0.52&#xD;&#xA;			c-1.43,0.11-2.86,0.13-4.29,0.07c-8.19-0.31-17.46-3.34-28.91-10.24c-27.82-16.78-60.16-19.23-88.19-5.78&#xD;&#xA;			c0,0-16.79,8.14-27.07,15.11" />
		<path class="st9" d="M104.44,440c0,0,10.54-8,17.68-11.41l0,0" />
		<ellipse class="st9" cx="176.71" cy="374.33" rx="3.2" ry="3.15" />
		<path class="st10" d="M118.44,396.38c-4.49-2.23-9.94-0.4-12.18,4.09c-0.35,0.69-0.61,1.42-0.77,2.18l0,0&#xD;&#xA;			c-1.02,4.91,2.13,9.72,7.04,10.74s9.72-2.13,10.74-7.04c0.84-4.04-1.15-8.13-4.84-9.97L118.44,396.38z M109.88,402.44&#xD;&#xA;			c1.02-2.18,3.45-3.32,5.78-2.72l0,0c0.38,0.1,0.75,0.24,1.09,0.43c2.44,1.29,3.37,4.32,2.08,6.76s-4.32,3.37-6.76,2.08&#xD;&#xA;			C109.71,407.74,108.75,404.86,109.88,402.44L109.88,402.44z" />
		<path class="st11" d="M115.29,390.39h-0.05l-0.22-3.47L114,387l-2.38,0.14l0.22,3.48c-1.3,0.24-2.56,0.67-3.75,1.26l-1-1.55&#xD;&#xA;			l-0.9-1.36l-2.87,1.91l1.93,2.91c-1.01,0.87-1.89,1.88-2.61,3l-2.1-1.05l-1-0.51l-1.53,3.08l3.13,1.55&#xD;&#xA;			c-0.46,1.25-0.72,2.55-0.79,3.88l-3.49,0.21l0.22,3.43l3.48-0.21c0.24,1.3,0.67,2.56,1.27,3.74l-2.91,1.92l1.9,2.87l2.9-1.92&#xD;&#xA;			c0.87,1.01,1.88,1.88,3,2.6l-1.56,3.13l3.09,1.53l1.55-3.13c0.53,0.19,1.08,0.35,1.63,0.47c0.73,0.17,1.48,0.28,2.23,0.32&#xD;&#xA;			l0.2,3.23v0.24h0.16l3.27-0.21l-0.22-3.47c1.3-0.24,2.56-0.66,3.75-1.25l1.93,2.89l2.86-1.9l-1.92-2.9&#xD;&#xA;			c0.44-0.38,0.85-0.79,1.24-1.22c0.51-0.54,0.96-1.12,1.36-1.74l3.13,1.54l1.53-3.08l-3.12-1.54c0.44-1.25,0.71-2.56,0.78-3.88&#xD;&#xA;			l3.48-0.21l-0.22-3.43l-3.48,0.21c-0.24-1.3-0.66-2.56-1.25-3.74l2.91-1.93l-1.91-2.87l-2.9,1.93c-0.88-1-1.89-1.88-3-2.61&#xD;&#xA;			l1.56-3.12l-3.08-1.53l-1.56,3.12C117.92,390.77,116.61,390.49,115.29,390.39z M106.29,400.47c2.24-4.49,7.69-6.32,12.18-4.08&#xD;&#xA;			c4.49,2.24,6.32,7.69,4.08,12.18s-7.69,6.32-12.18,4.08c-3.7-1.84-5.69-5.94-4.84-9.99l0,0c0.15-0.76,0.39-1.49,0.73-2.19H106.29z&#xD;&#xA;			" />
		<path class="st12" d="M105.5,402.66c-1.03,4.91,2.12,9.73,7.04,10.76s9.73-2.12,10.76-7.04c1.03-4.91-2.12-9.73-7.04-10.76&#xD;&#xA;			c-4.05-0.85-8.16,1.15-10,4.85c-0.35,0.69-0.61,1.42-0.77,2.18" />
		<path class="st12" d="M115.29,390.39c1.3,0.08,2.58,0.34,3.81,0.78l1.56-3.12l3.08,1.53l-1.56,3.12c1.11,0.73,2.12,1.61,3,2.61&#xD;&#xA;			l2.9-1.93l1.91,2.87l-2.91,1.93c0.59,1.18,1.01,2.44,1.25,3.74l3.48-0.21l0.22,3.43l-3.48,0.21c-0.07,1.32-0.34,2.63-0.78,3.88&#xD;&#xA;			l3.12,1.54l-1.53,3.08l-3.13-1.54c-0.4,0.62-0.85,1.2-1.36,1.74c-0.39,0.43-0.8,0.84-1.24,1.22l1.92,2.9l-2.86,1.9l-1.93-2.89&#xD;&#xA;			c-1.19,0.59-2.45,1.01-3.75,1.25l0.22,3.47l-3.27,0.21h-0.16v-0.24l-0.2-3.23c-0.75-0.04-1.5-0.15-2.23-0.32&#xD;&#xA;			c-0.55-0.12-1.1-0.28-1.63-0.47l-1.6,3.15l-3.09-1.53l1.56-3.13c-1.12-0.72-2.13-1.59-3-2.6l-2.9,1.92l-1.9-2.87l2.91-1.92&#xD;&#xA;			c-0.6-1.18-1.03-2.44-1.27-3.74l-3.48,0.21l-0.22-3.43l3.49-0.21c0.07-1.33,0.33-2.63,0.79-3.88l-3.13-1.55l1.53-3.08l1,0.51&#xD;&#xA;			l2.1,1.05c0.72-1.12,1.6-2.13,2.61-3l-1.93-2.91l2.87-1.91l0.9,1.36l1,1.55c1.19-0.59,2.45-1.02,3.75-1.26l-0.22-3.48L114,387&#xD;&#xA;			l1.06-0.07l0.22,3.47L115.29,390.39z" />
		<path class="st12" d="M115.66,399.72c-2.33-0.6-4.76,0.54-5.78,2.72c-1.17,2.5-0.09,5.48,2.41,6.65c2.5,1.17,5.48,0.09,6.65-2.41&#xD;&#xA;			c1.13-2.41,0.17-5.29-2.19-6.54C116.41,399.95,116.04,399.81,115.66,399.72" />
		<circle class="st4" cx="67.9" cy="359.6" r="2.48" />
		<circle class="st4" cx="57.6" cy="353.16" r="2.48" />
		<circle class="st4" cx="79.95" cy="367.14" r="2.48" />
		<circle class="st4" cx="92.39" cy="371.61" r="2.48" />
		<circle class="st4" cx="105.77" cy="373.64" r="2.48" />
		<circle class="st4" cx="120.19" cy="371.91" r="2.48" />
		<circle class="st4" cx="133.32" cy="367.8" r="2.48" />
		<circle class="st4" cx="144.84" cy="362.18" r="2.48" />
		<circle class="st4" cx="155.08" cy="353.84" r="2.48" />
		<circle class="st4" cx="164.39" cy="343.25" r="2.48" />
		<circle class="st4" cx="169.34" cy="332.51" r="2.48" />
		<circle class="st4" cx="169.84" cy="319.94" r="2.48" />
		<circle class="st4" cx="163.23" cy="310.63" r="2.48" />
		<circle class="st4" cx="152.83" cy="303.86" r="2.48" />
	</g>
</g>
<path class="st13" d="M240.65,403.27c4.48,5.32,9.58,6.83,9.03,29.07" />
<path class="st13" d="M249,418.03c0,0-0.7-10.35,7.23-16.46" />
</svg>