<svg xmlns="http://www.w3.org/2000/svg" viewBox="0 0 432 432">
  <defs>
    <style>.GUNDAN_CAT_OUTFIT_CAT_OUTFIT_19_cls-1{isolation:isolate;}.GUNDAN_CAT_OUTFIT_CAT_OUTFIT_19_cls-2{fill:#923804;}.GUNDAN_CAT_OUTFIT_CAT_OUTFIT_19_cls-3{opacity:0.22;mix-blend-mode:multiply;}.GUNDAN_CAT_OUTFIT_CAT_OUTFIT_19_cls-4{fill:#e2af10;}.GUNDAN_CAT_OUTFIT_CAT_OUTFIT_19_cls-5,.GUNDAN_CAT_OUTFIT_CAT_OUTFIT_19_cls-6,.GUNDAN_CAT_OUTFIT_CAT_OUTFIT_19_cls-7{fill:none;stroke:#000;stroke-linecap:round;stroke-linejoin:round;}.GUNDAN_CAT_OUTFIT_CAT_OUTFIT_19_cls-5{stroke-width:2px;}.GUNDAN_CAT_OUTFIT_CAT_OUTFIT_19_cls-6{stroke-width:0.54px;}.GUNDAN_CAT_OUTFIT_CAT_OUTFIT_19_cls-7{stroke-width:0.49px;}</style>
  </defs>
  <g class="GUNDAN_CAT_OUTFIT_CAT_OUTFIT_19_cls-1">
    <g id="Outfit">
      <path class="GUNDAN_CAT_OUTFIT_CAT_OUTFIT_19_cls-2" d="M396.35,522.58H216.42l-1.73-1H129.48s0-1.65,0-4.34c.05-7.19.2-21.83.52-32.37a25.23,25.23,0,0,0-.79-6.18q-.18-.77-.42-1.53v0c0-.06,0-.2-.05-.41a18.9,18.9,0,0,1,0-3.37l0-.4q0-.63.15-1.32a.34.34,0,0,0,0-.1c.07-.46.15-.95.25-1.46.05-.28.11-.56.18-.86s.12-.59.2-.89a.85.85,0,0,0,0-.17c0-.06,0-.13,0-.19l.09-.34a2.33,2.33,0,0,1,.07-.25c0-.2.11-.4.17-.6s.12-.41.19-.61a1.42,1.42,0,0,1,.07-.22c.06-.2.13-.39.19-.59s.11-.31.17-.47.17-.49.27-.73.15-.41.23-.62.15-.36.23-.55.19-.48.3-.72.23-.53.36-.79.15-.35.23-.52l.1-.2c.18-.38.37-.77.57-1.15l.17-.32.19-.37c0-.1.1-.2.16-.3l.06-.09c.13-.25.27-.51.43-.76s.29-.52.45-.78.31-.52.47-.78a1,1,0,0,0,.08-.14l.16-.26.1-.14.14-.22.62-1c.11-.16.23-.33.33-.49l.16-.23.49-.69c.18-.25.36-.51.55-.76l.14-.18v0l.58-.76.05-.05.41-.53c.09-.1.17-.21.26-.32s.25-.3.37-.46.17-.21.25-.31l.07-.08,0,0c.09-.13.2-.25.3-.37l.4-.46.41-.48.58-.66c.36-.39.72-.79,1.1-1.19.13-.14.26-.29.4-.43a.94.94,0,0,1,.1-.1l.63-.65.15-.15.74-.74.2-.2.7-.68.64-.61.34-.31.75-.69.25-.22.7-.63c1.25-1.1,2.57-2.21,4-3.33l.61-.47q1.92-1.5,4.05-3l.86-.6,1.33-.9.77-.52.78-.51.3-.2.05,0q2.17-1.41,4.54-2.82l3.24-1.9,2.08-1.2,2.25-1.28,2-1.11c5.32-3,11-6,16.84-9.17l6.68-3.56,4.94-2.64,4.14-2.21q4.2-2.25,8.43-4.55l3.08-1.68,3.23-1.79c8.41-4.66,16.76-9.47,24.69-14.44l3-1.87q4.4-2.82,8.57-5.7l2.33-1.63.42-.3c7.58-10.81,13.35-19.07,13.35-19.07a186.91,186.91,0,0,1,10.24-18.33c4.09-6.43,9.79-15.21,14.55-21.36.05-.07.1-.15.16-.22,2,1.55,3.63,2.77,4.65,3.58,0,0,11.64,5.72,26.84,11.87,4.67,1.88,9.63,3.62,14.07,5.8l.19,1.13a30.23,30.23,0,0,1,9.08,5.17h0A32.37,32.37,0,0,1,364,355.22c.06.16.13.31.19.47,3.95,9.73,5.16,19.32,6.57,35.33.21,2.38.4,5,.55,7.73.19,3.25.34,6.79.45,10.68l.66.66c3,23.39,9.91,34.61,15.65,42,5.94,7.7,6,13.32,3.19,14.64s-2,7.37-2,7.37,0,.19,0,.52c-.1,3.33-.47,21.7,3.32,30.12A42.61,42.61,0,0,1,396.35,522.58Z" />
      <path class="GUNDAN_CAT_OUTFIT_CAT_OUTFIT_19_cls-2" d="M143.28,522.58H27.55s-1.76-3.07,4.4-13.53,7.71-28.3,6.83-38.65c-.12-1.63-1.55-3.16-5-7s2.14-9.25,7-15.42S49.2,433,52.07,422.32c-.22-.3-.44-.59-.65-.89q.67-2.71,1.28-5.29l.76.53C58.9,420.45,67,426,76.05,432.28l9,6.22,25.25,17.38,8.1,5.57,11,7.54h0l11.84,8.13,2,44.42Z" />
      <path class="GUNDAN_CAT_OUTFIT_CAT_OUTFIT_19_cls-3" d="M345.43,503.78a18.56,18.56,0,0,0-5,3.8c-4.42,4.86-3.18,10.55-.86,15H304.1c.11-3.82.29-9.24.44-13.86v-.12c.16-4.86.28-8.83.25-9.15v0a55.71,55.71,0,0,1,.37-13.63c.39-2.66.92-5,1.4-7l-.21.07s-.35.21-1,.52c-3.6,1.7-16.41,6.56-32.84-.86-19.49-8.79-37.68-7.49-58.64,2.18-.95.44-1.91.84-2.86,1.21-20.14,7.84-41.05,1.43-41.05,1.43s-4.69,23.81-1.71,38.24c-3.53-.47-10.46,0-12.22,0H129.48s0-1.65,0-4.34c.05-7.19.2-21.83.52-32.37a25.23,25.23,0,0,0-.79-6.18q-.18-.77-.42-1.53v0c-.15-1-3-21.72,29.11-43.8a82.35,82.35,0,0,0,17,4.55c35.67,5.59,52.18-10.56,71.67-9.91a67.1,67.1,0,0,1,13.28,2c15.62,3.73,31.77,10.87,46.44,6,16.06-5.39,26.75-28.33,27.43-40,0,.11.06.23.1.34,0-1.81,0-2.82,0-2.82s5.9,18.83.45,39.37c-3.8,14.32-2,33.79,3,50.82q.7,2.42,1.51,4.76A96.44,96.44,0,0,0,345.43,503.78Z" />
      <path class="GUNDAN_CAT_OUTFIT_CAT_OUTFIT_19_cls-4" d="M243.63,349.68c-8.58,6.17-18.1,12.12-27.95,17.85-25.78-6.63-46.54-23.39-60.24-37.5A162,162,0,0,1,137,307.61l-.16-.11s12.87-14.1,16-28.4c0,0,1.34,7.83,8.87,18.41h0A106,106,0,0,0,175,312.71,125.9,125.9,0,0,0,186,322h0C199.47,332.24,218.09,342.3,243.63,349.68Z" />
      <path class="GUNDAN_CAT_OUTFIT_CAT_OUTFIT_19_cls-3" d="M175,312.71C151.42,308.53,155.44,330,155.44,330A162,162,0,0,1,137,307.61l-.16-.11s12.87-14.1,16-28.4c0,0,1.34,7.83,8.87,18.41h0A106,106,0,0,0,175,312.71Z" />
      <path class="GUNDAN_CAT_OUTFIT_CAT_OUTFIT_19_cls-2" d="M215.68,367.53c-20.23,11.75-41.86,22.58-59.62,32.54q-4.77,2.67-9.13,5.26l-1.14.69-1.12.69c-3.34,2.07-6.35,4.13-9.07,6.18l-.87.66c-1.18.9-2.3,1.81-3.37,2.7q-2.16,1.81-4,3.59l-.89.86c-.6.58-1.19,1.17-1.74,1.75l-.73.76-.6.66-.53.59c-.88,1-1.69,1.94-2.44,2.89-.28.34-.54.68-.8,1-.6.79-1.16,1.57-1.69,2.34-.21.3-.41.59-.6.89-.52.79-1,1.56-1.45,2.32-.21.35-.4.7-.59,1s-.38.68-.55,1c-.74,1.41-1.36,2.76-1.88,4-.1.24-.19.48-.28.72s-.23.6-.33.89a36.61,36.61,0,0,0-1.17,4,121.7,121.7,0,0,0,6.75,14.7l.61,1.11c3.94,7,8.45,13.5,10.82,17.21a25.23,25.23,0,0,1,.79,6.18s-5.93-3.58-14.65-9.37c-6.76-4.48-15.19-10.28-23.85-16.76h0c-2.43-1.82-4.89-3.69-7.33-5.61-5.06-4-10.06-8.12-14.7-12.3q-1.89-1.69-3.69-3.4a115.82,115.82,0,0,1-13.73-15.08c-.22-.3-.44-.59-.65-.89q.67-2.71,1.28-5.29c2.47-10.53,4.06-19.34,5.34-27.45a.19.19,0,0,0,0-.08c1.29-8.29,2.27-15.86,3.5-23.77.13-.84.28-1.66.45-2.48a0,0,0,0,1,0,0c3.15-15.65,12.53-26.92,29.15-31.73,11.2-3.24,31.72-10,45.86-23,0,0,2.06,3.19,5.94,8.15,2.93,3.72,6.88,8.44,11.77,13.54l.71.73C169.14,344.14,189.9,360.9,215.68,367.53Z" />
      <path class="GUNDAN_CAT_OUTFIT_CAT_OUTFIT_19_cls-3" d="M154.73,329.3c-15.21,12.18-21.33,11.87-47.38,24.08C80.93,365.76,71.51,399.12,77,431.16l-.91,1.12a96.65,96.65,0,0,0-6.56,8.52c-3.16,4.71-6.22,10.53-6.88,16.45-1.31,11.72-7.28,23.12-1.19,34.56-14.88,19,7.12,30.77,7.12,30.77h-41s-1.76-3.07,4.4-13.53,7.71-28.3,6.83-38.65c-.12-1.63-1.55-3.16-5-7s2.14-9.25,7-15.42S49.2,433,52.07,422.32c-.22-.3-.44-.59-.65-.89q.67-2.71,1.28-5.29c2.47-10.53,4.06-19.34,5.34-27.45a.19.19,0,0,0,0-.08c1.29-8.29,2.27-15.86,3.5-23.77.13-.84.28-1.66.45-2.48a0,0,0,0,1,0,0c3.15-15.65,12.53-26.92,29.15-31.73,11.2-3.24,31.72-10,45.86-23,0,0,2.06,3.19,5.94,8.15C145.89,319.48,149.84,324.2,154.73,329.3Z" />
      <path class="GUNDAN_CAT_OUTFIT_CAT_OUTFIT_19_cls-3" d="M131.36,416.25c-11.44,9.6-16.73,18.59-19.13,25.37-4-10.81-6.77-24.27-6-42.19a.49.49,0,0,0,0-.12,45.48,45.48,0,0,1,.4-6s0,0,0,0a56,56,0,0,1,4.63-16.43C112.89,391.12,120,405.15,131.36,416.25Z" />
      <path class="GUNDAN_CAT_OUTFIT_CAT_OUTFIT_19_cls-4" d="M304.11,318.15s-.1.25-.27.71a1.34,1.34,0,0,0-.07.18c-.21.53-.5,1.28-.86,2.18-.13.3-.26.63-.39,1-2.2,5.41-6.36,15.1-10.49,21.77l0,0c-6.75,10.39-17.74,20.24-30.84,29.56l-.42.3-2.33,1.63q-4.17,2.89-8.57,5.7l-3,1.87c-7.92,5-16.27,9.79-24.69,14.44L219,399.28,215.89,401q-4.23,2.31-8.43,4.55l-4.14,2.21-4.94,2.64-6.68,3.56c-5.86,3.14-11.52,6.19-16.84,9.17l-2,1.11-2.25,1.28-2.08,1.2-3.24,1.9q-2.37,1.41-4.54,2.82l-.05,0-.3.2-.78.51-.77.52-1.33.9-.86.6q-2.13,1.51-4.05,3l-.61.47c-1.42,1.12-2.74,2.23-4,3.33-.24.2-.47.41-.7.63l-.25.22-.75.69-.34.31c-.21.19-.41.38-.61.59l0,0c-.24.22-.47.45-.7.68l-.2.2-.74.74c-.05.05-.11.1-.15.15-.22.22-.43.43-.63.65a.94.94,0,0,0-.1.1,1.49,1.49,0,0,0-.12.14,2.51,2.51,0,0,0-.28.29c-.38.4-.74.8-1.1,1.19l-.23.27-.35.39-.41.48-.4.46c-.12.13-.23.27-.33.4l-.07.08c-.09.1-.17.21-.25.31s-.25.31-.37.46l-.26.32-.46.58-.58.76-.15.21c-.19.26-.38.51-.55.76l-.49.69-.16.23-.33.49-.62,1c-.09.12-.16.24-.24.36l-.16.26a1,1,0,0,1-.08.14c-.52.82-1,1.62-1.41,2.41-.06.1-.11.2-.16.3s-.25.46-.36.69c-.21.39-.4.77-.57,1.15l-.1.2c-.21.44-.41.88-.59,1.31q-.17.36-.3.72c-.08.19-.16.37-.23.55-.25.62-.47,1.23-.67,1.82-.1.28-.19.54-.26.81s-.13.41-.19.61-.12.41-.17.6a2.33,2.33,0,0,0-.07.25,2.46,2.46,0,0,0-.09.34,1.8,1.8,0,0,0,0,.19,1.36,1.36,0,0,0,0,.17,31,31,0,0,0-.63,3.21.38.38,0,0,0,0,.1,21.42,21.42,0,0,0-.18,5.09c0,.21,0,.35.05.41v0q.24.76.42,1.53c-2.49-3.91-7.36-10.89-11.43-18.32a121.7,121.7,0,0,1-6.75-14.7,36.61,36.61,0,0,1,1.17-4c.1-.29.21-.59.33-.89s.18-.48.28-.72c.52-1.28,1.14-2.63,1.88-4,.17-.34.36-.68.55-1s.38-.69.59-1c.44-.76.93-1.53,1.45-2.32.19-.29.39-.59.6-.89.53-.77,1.09-1.55,1.69-2.34.26-.34.52-.67.8-1,.75-1,1.56-1.92,2.44-2.89.17-.2.35-.4.53-.59l.6-.66.73-.76c.55-.58,1.14-1.17,1.74-1.75l.89-.86a93.09,93.09,0,0,1,7.4-6.29l.87-.66c2.72-2.05,5.73-4.11,9.07-6.18l1.12-.69,1.14-.69c19.11-11.38,44.9-23.95,68.75-37.8,9.85-5.73,19.37-11.68,27.95-17.85C257,340.11,268,330,274.51,319.3h0q1.22-2,2.2-4a116.06,116.06,0,0,0,4-16.66,51.28,51.28,0,0,0,.58-5.88c.11.37.23.73.36,1.09,3.06,8.4,11.85,16,17.78,20.69C301.43,316.12,303.09,317.34,304.11,318.15Z" />
      <path class="GUNDAN_CAT_OUTFIT_CAT_OUTFIT_19_cls-3" d="M128.81,477.1v0q.24.76.42,1.53c-2.49-3.91-7.36-10.89-11.43-18.32a121.7,121.7,0,0,1-6.75-14.7,36.61,36.61,0,0,1,1.17-4c2.4-6.78,7.69-15.77,19.13-25.37a66.08,66.08,0,0,0,25.17,18C125.91,456,128.66,476.15,128.81,477.1Z" />
      <path d="M57.31,367c0,.44,0,.67-.16.52S57.12,367.21,57.31,367Z" />
      <path class="GUNDAN_CAT_OUTFIT_CAT_OUTFIT_19_cls-5" d="M106.88,390.92c-.08.81-.16,1.61-.22,2.4,0,0,0,0,0,0q-.27,3.06-.4,6a.49.49,0,0,1,0,.12c-.79,17.92,2,31.38,6,42.19" />
      <path class="GUNDAN_CAT_OUTFIT_CAT_OUTFIT_19_cls-5" d="M274.52,319.3q1.22-2,2.2-4a116.06,116.06,0,0,0,4-16.66,51.28,51.28,0,0,0,.58-5.88c3.51,11.64,13.36,18.39,17.59,21.73l5.2,3.63S296.94,337.05,292,344c-21.83,33.59-88,61.54-126.69,84.59-39.9,23.75-36.66,47.49-36.5,48.52v0" />
      <path class="GUNDAN_CAT_OUTFIT_CAT_OUTFIT_19_cls-5" d="M111.06,445.64a36.61,36.61,0,0,1,1.17-4c3.3-9.32,12-22.8,34.7-36.29,19.11-11.38,44.9-23.95,68.75-37.8,9.85-5.73,19.37-11.68,27.95-17.85C257,340.11,268,330,274.51,319.3" />
      <path class="GUNDAN_CAT_OUTFIT_CAT_OUTFIT_19_cls-5" d="M161.71,297.51c-7.53-10.58-8.87-18.41-8.87-18.41-3.11,14.3-16,28.4-16,28.4l.16.11s30.6,47.57,78.66,59.92" />
      <path class="GUNDAN_CAT_OUTFIT_CAT_OUTFIT_19_cls-5" d="M186,322a113,113,0,0,1-24.24-24.53" />
      <path class="GUNDAN_CAT_OUTFIT_CAT_OUTFIT_19_cls-5" d="M243.64,349.68h0C218.09,342.3,199.47,332.24,186,322" />
      <path class="GUNDAN_CAT_OUTFIT_CAT_OUTFIT_19_cls-5" d="M74.9,339.18c5.37-5.61,14.55-8.76,27-12,0,0,28.35-10.56,34.92-19.79" />
      <path class="GUNDAN_CAT_OUTFIT_CAT_OUTFIT_19_cls-5" d="M359.15,348.27a16.94,16.94,0,0,0-1.81-1.91" />
      <path class="GUNDAN_CAT_OUTFIT_CAT_OUTFIT_19_cls-5" d="M330.68,372s.84,3.61,1.65,9.19c1.8,12.41,3.43,34.56-4.78,48.12" />
      <path class="GUNDAN_CAT_OUTFIT_CAT_OUTFIT_19_cls-5" d="M305.45,475c.68-9.12,13.27-20.56,22.1-45.69" />
      <path class="GUNDAN_CAT_OUTFIT_CAT_OUTFIT_19_cls-5" d="M65.23,438c-5,7.1-7.19,18.16-9.66,29.89-1.39,6.59-3.1,11-5.08,13.63-1.53,2-3.23,3-5.08,3-4.21,0-6.52-12.46-6.63-14.09s-1.55-3.16-5-7,2.14-9.25,7-15.42S49.2,433,52.07,422.32q.74-2.74,1.39-5.65a260.45,260.45,0,0,0,4.58-28,.19.19,0,0,0,0-.08c.36-3.08.68-6.24,1-9.46a96.39,96.39,0,0,1,3-16.79,0,0,0,0,1,0,0c4.65-16.8,12.31-22.6,12.86-23.12l0,0" />
      <path class="GUNDAN_CAT_OUTFIT_CAT_OUTFIT_19_cls-5" d="M359.15,348.27a64.63,64.63,0,0,1,5.07,7.42c6.22,10.78,5.69,22.5,6.57,35.33.17,2.46.34,5,.55,7.73s.46,5.63.79,8.68c.1.9.2,1.79.32,2.66,3,23.39,9.91,34.61,15.65,42,5.94,7.7,6,13.32,3.19,14.64s-2,7.37-2,7.37,0,.19,0,.52c-.09,1.57-.57,6.32-3.06,8.51-3,2.65-7.6-1-7.6-1" />
      <path class="GUNDAN_CAT_OUTFIT_CAT_OUTFIT_19_cls-5" d="M332.33,381.22s.21-4.91,8.1-13.31c10-10.68,21.41-8.08,16.91-21.55a17.7,17.7,0,0,0-3-4.23h0a32.11,32.11,0,0,0-9.27-6.3c-4.44-2.18-9.4-3.92-14.07-5.8-15.2-6.15-26.84-11.87-26.84-11.87" />
      <path class="GUNDAN_CAT_OUTFIT_CAT_OUTFIT_19_cls-6" d="M218.74,258.33s-35.14-17.71-114.6,21.55" />
      <path class="GUNDAN_CAT_OUTFIT_CAT_OUTFIT_19_cls-6" d="M218.74,263a33.32,33.32,0,0,0-4.51-.22,77.19,77.19,0,0,0-11,.86l-.7.1h0c-9.58,1.43-23.19,4.86-40.17,12.75h0l-.07,0c-2.12,1-4.29,2-6.51,3.17q-1.59.8-3.21,1.65h0l-.2.1h0a261.38,261.38,0,0,0-28.19,17.39" />
      <path class="GUNDAN_CAT_OUTFIT_CAT_OUTFIT_19_cls-6" d="M218.74,268.1s-3,.91-8,2.88h0l-.08,0h0a201.1,201.1,0,0,0-35,18.09l-.25.16-.1.07c-3.26,2.12-6.57,4.43-9.89,6.92l-.87.66" />
      <path class="GUNDAN_CAT_OUTFIT_CAT_OUTFIT_19_cls-6" d="M113.35,287.4a237.88,237.88,0,0,1,39.54-17.07h0l.07,0a204.3,204.3,0,0,1,47.65-9.67l.6,0h.21a111.78,111.78,0,0,1,17.16-.14" />
      <path class="GUNDAN_CAT_OUTFIT_CAT_OUTFIT_19_cls-7" d="M270.28,255.56a110.2,110.2,0,0,1,77.91,8.14" />
      <path class="GUNDAN_CAT_OUTFIT_CAT_OUTFIT_19_cls-7" d="M270.6,259.73c23.22.84,44.91,11.08,65.65,20.63" />
      <path class="GUNDAN_CAT_OUTFIT_CAT_OUTFIT_19_cls-7" d="M270.05,269.06c22.1,6.52,41.1,22.52,57.43,39.34" />
      <path class="GUNDAN_CAT_OUTFIT_CAT_OUTFIT_19_cls-7" d="M270.6,264.4a139.45,139.45,0,0,1,61.86,30" />
    </g>
  </g>
</svg>