<svg xmlns="http://www.w3.org/2000/svg" viewBox="0 0 432 432">
  <defs>
    <style>.GUNDAN_CAT_OUTFIT_CAT_OUTFIT_14_cls-1{isolation:isolate;}.GUNDAN_CAT_OUTFIT_CAT_OUTFIT_14_cls-2{fill:#fff;}.GUNDAN_CAT_OUTFIT_CAT_OUTFIT_14_cls-3{fill:#814e00;}.GUNDAN_CAT_OUTFIT_CAT_OUTFIT_14_cls-4{fill:#838d00;}.GUNDAN_CAT_OUTFIT_CAT_OUTFIT_14_cls-5{fill:#452115;}.GUNDAN_CAT_OUTFIT_CAT_OUTFIT_14_cls-6{fill:#002d3a;}.GUNDAN_CAT_OUTFIT_CAT_OUTFIT_14_cls-7{fill:#928c85;}.GUNDAN_CAT_OUTFIT_CAT_OUTFIT_14_cls-8{fill:#b9fedb;}.GUNDAN_CAT_OUTFIT_CAT_OUTFIT_14_cls-10,.GUNDAN_CAT_OUTFIT_CAT_OUTFIT_14_cls-9{fill:none;stroke:#000;stroke-linecap:round;stroke-linejoin:round;}.GUNDAN_CAT_OUTFIT_CAT_OUTFIT_14_cls-9{stroke-width:2px;}.GUNDAN_CAT_OUTFIT_CAT_OUTFIT_14_cls-10{stroke-width:2.09px;}.GUNDAN_CAT_OUTFIT_CAT_OUTFIT_14_cls-11{opacity:0.22;mix-blend-mode:multiply;}</style>
  </defs>
  <g class="GUNDAN_CAT_OUTFIT_CAT_OUTFIT_14_cls-1">
    <g id="Outfit">
      <path class="GUNDAN_CAT_OUTFIT_CAT_OUTFIT_14_cls-2" d="M266.1,425.46a4.06,4.06,0,1,1-4.16,4.08A4.1,4.1,0,0,1,266.1,425.46Z" />
      <path class="GUNDAN_CAT_OUTFIT_CAT_OUTFIT_14_cls-3" d="M327.17,408.31v-5.76h-5.93a23,23,0,0,0-1.73-6.4l5.13-2.91-2.92-5-5.14,2.91a24.14,24.14,0,0,0-4.76-4.71l3-5.05-3.51-2-1.57-.9-3,5a25,25,0,0,0-6.53-1.73V376l-5.9,0v5.86a24.92,24.92,0,0,0-6.56,1.69l-3-5.09-5.13,2.87,3,5.11a23.55,23.55,0,0,0-4.81,4.7l-5.21-3-3,5,5.22,3a23.26,23.26,0,0,0-1.76,6.44h-6v5.81h6a22.33,22.33,0,0,0,.76,3.67,20.79,20.79,0,0,0,1,2.77l-5.22,2.95,3,5,5.21-3a23.82,23.82,0,0,0,4.81,4.7l-3,5.09,4.91,2.76.43-.22,2.78-4.74a23.9,23.9,0,0,0,3.68,1.17,22.81,22.81,0,0,0,2.88.51v5.87l5.9,0V429a24.18,24.18,0,0,0,6.53-1.72l3,5.05,5.08-2.91-3-5a24.36,24.36,0,0,0,4.76-4.7l5.14,2.91,2.92-5-5.13-2.92a22.88,22.88,0,0,0,1.73-6.39Zm-10.25,2.14h0a20,20,0,1,1,.65-5A20.29,20.29,0,0,1,316.91,410.45Z" />
      <path class="GUNDAN_CAT_OUTFIT_CAT_OUTFIT_14_cls-3" d="M297.26,385.44a20,20,0,1,0,19.65,25h0a20,20,0,0,0-19.66-25Zm15.2,25.35v0a16.24,16.24,0,0,1-14.66,10.49,16.32,16.32,0,0,1-8.16-1.85l-.39-.21c-.2-.11-.4-.22-.6-.35l-.57-.36A15.81,15.81,0,0,1,281,404.89a15.41,15.41,0,0,1,2.31-7.62,16.14,16.14,0,0,1,6.05-5.75h0a16.13,16.13,0,0,1,7.33-2,16.36,16.36,0,0,1,3.79.33h0a16,16,0,0,1,12.89,16.08A15.32,15.32,0,0,1,312.46,410.79Z" />
      <path class="GUNDAN_CAT_OUTFIT_CAT_OUTFIT_14_cls-4" d="M287.75,427.36a22.85,22.85,0,0,0,3.68,1.17c-2.21,1.29-4.37,2.48-6.46,3.57Z" />
      <path class="GUNDAN_CAT_OUTFIT_CAT_OUTFIT_14_cls-5" d="M279.63,429.56l3-5.09a23.82,23.82,0,0,1-4.81-4.7l-5.21,3-3-5,5.22-2.95a20.79,20.79,0,0,1-1-2.77,55.48,55.48,0,0,1-5,2.95,37,37,0,0,0-6.62,4.21h0a20.58,20.58,0,0,0-4.6,5.08s0,0,0,0a10.29,10.29,0,0,0-1.6,7.22,9.44,9.44,0,0,0,6,6.89h0a13.29,13.29,0,0,0,1.61.57l.13,0h0a7.24,7.24,0,0,0,2.35.12h0c.47,0,1-.11,1.52-.21l.14,0a44.52,44.52,0,0,0,8.68-2.79c2.5-1,5.22-2.3,8.08-3.78Zm-13.52,4a4.06,4.06,0,1,1,4.14-4.06A4.09,4.09,0,0,1,266.11,433.57Z" />
      <path class="GUNDAN_CAT_OUTFIT_CAT_OUTFIT_14_cls-5" d="M300.53,389.86a16.24,16.24,0,1,1-3.8-.33,17,17,0,0,1,3.79.33Z" />
      <path class="GUNDAN_CAT_OUTFIT_CAT_OUTFIT_14_cls-5" d="M333.1,392.83a72,72,0,0,1-7.88,9.72h-4a22.89,22.89,0,0,0-1.74-6.39l5.14-2.92-2.93-5-5.13,2.91a23.87,23.87,0,0,0-4.77-4.7l3-5.06-3.52-2c2.15-2.16,3.89-3.94,5.05-5.14C321.88,382.22,326.54,388.78,333.1,392.83Z" />
      <path class="GUNDAN_CAT_OUTFIT_CAT_OUTFIT_14_cls-3" d="M395.4,414.08l.33,2s-1.4.94-3.45,2.45c-3.87,2.84,2.35,7.69-1.14,12.13S371.57,444,360.36,450c1.67-3.07,3.22-6.22,4.72-9.41l2-4.29c14.61-9.12,12.8-19.75,22.67-32.33C389.76,403.94,395.06,412.1,395.4,414.08Z" />
      <path class="GUNDAN_CAT_OUTFIT_CAT_OUTFIT_14_cls-3" d="M390.56,382.1c4.74.61,2.92,6,2.92,6a29,29,0,0,1-5.8,2.48c-1.58.54-3.53,1.14-5.93,1.77q-2.22.59-5,1.2c-4.73,1.05-10.67,2.12-18.09,3.1-11.7,1.54-19.48,0-25.6-3.8-6.56-4.05-11.22-10.61-16.78-18.57-1.44-2-2.93-4.18-4.53-6.4-7.15-9.89-3.19-22.36-2.45-32a74.62,74.62,0,0,1,2.73-15.26c3.07-4.58,6.65,1.76,5.8,4.09a4.2,4.2,0,0,0-.19.69c-1,4.23-3.07,22.23,3.93,35.12a85.94,85.94,0,0,0,17.11,22.09s10.81-12.64,22-12.57,18.51,14.48,18.51,14.48S387.48,382.17,390.56,382.1Z" />
      <path class="GUNDAN_CAT_OUTFIT_CAT_OUTFIT_14_cls-6" d="M419,512.2l-10.57.18-145.27,2.38c-.49-2.25-1.19-5.42-2-9.21-1.62-7.64,0-20.06,0-20.06s26.45,14.73,54.85,3.93c23.68-9,35.55-23.24,44.31-39.45,11.21-5.94,27.37-15,30.78-19.32s-2.73-9.29,1.14-12.13a60.79,60.79,0,0,1,3.45,14.11s8.3,31.54,11.61,44.51,5.07,12.28,8.15,19.5A52.37,52.37,0,0,1,419,512.2Z" />
      <path class="GUNDAN_CAT_OUTFIT_CAT_OUTFIT_14_cls-7" d="M368.44,335.35c21.48,18.69,22.12,46.75,22.12,46.75-3.08.07-11.33,2.37-11.33,2.37s-7.36-14.42-18.51-14.48-22,12.57-22,12.57a85.94,85.94,0,0,1-17.11-22.09c-7-12.89-4.94-30.89-3.93-35.12C325.66,323.74,349.9,319.24,368.44,335.35Z" />
      <path class="GUNDAN_CAT_OUTFIT_CAT_OUTFIT_14_cls-5" d="M381.75,392.33c-.77,9.68-7.29,28.25-7.29,28.25l-7.37,15.69-2,4.29c-1.5,3.19-3.05,6.34-4.72,9.41-8.76,16.21-20.63,30.45-44.31,39.45-28.4,10.8-54.85-3.93-54.85-3.93s-1.2-2.81-2.67-7c14.67,8.93,39.38,14,53.44,7.32,13.22-6.3,27.71-14.6,39.78-31.35h0a101.59,101.59,0,0,0,6.77-10.83c.59-1.1,1.17-2.2,1.72-3.33h0c9-17.78,14.4-37.92,16.52-46.72Q379.54,392.92,381.75,392.33Z" />
      <path class="GUNDAN_CAT_OUTFIT_CAT_OUTFIT_14_cls-7" d="M387.68,390.56c-1.58.54-3.53,1.14-5.93,1.77-.77,9.68-7.29,28.25-7.29,28.25l-7.37,15.69c14.61-9.12,12.8-19.75,22.67-32.33.72-.91,1.43-1.84,2.14-2.78C390.52,399.29,392.66,393.37,387.68,390.56Z" />
      <path class="GUNDAN_CAT_OUTFIT_CAT_OUTFIT_14_cls-7" d="M358.7,396.63c-11.7,1.54-19.48,0-25.6-3.8a72,72,0,0,1-7.88,9.72h1.95v5.75h-5.93a23.05,23.05,0,0,1-1.74,6.4l5.14,2.91-2.93,5-5.13-2.9a24.37,24.37,0,0,1-4.77,4.69l3,5.05-5.09,2.9-3-5.05A24,24,0,0,1,300.2,429v5.87l-5.9,0V429a22.65,22.65,0,0,1-2.87-.51c-2.21,1.29-4.37,2.48-6.46,3.57l-.21.35-.23-.13c-9.53,4.92-17.52,7.6-20.91,6.65-4.19-1.17-7-4-7.66-7.47-.9-5,2.61-11.38,12.86-16.57a55.48,55.48,0,0,0,5-2.95,21.14,21.14,0,0,1-.76-3.67h-6v-5.8h6a22.9,22.9,0,0,1,1.75-6.44l-5.21-2.95,3-5,5.21,3a23.81,23.81,0,0,1,4.81-4.7l-3-5.1,5.13-2.87,3,5.09a24.75,24.75,0,0,1,6.55-1.69v-5.86l5.9,0v5.85a24.76,24.76,0,0,1,6.53,1.74l3-5.05,1.57.9c2.15-2.16,3.89-3.94,5.05-5.14-1.44-2-2.93-4.18-4.53-6.4-7.15-9.89-3.19-22.36-2.45-32-2.56-.92,3.56-2,1-3.34,0,0-13.47,7.78-21.7,17.67v0c-.48.91-20.81,30.11-25.07,42.9-4,12.07-6.1,15.71-9,21.31h0c-1.23,7.27-1.5,12.85-.56,17.48.07.4.16.8.26,1.2,1.34,5.22,4.37,9.24,9.49,13.24,9.85,7.7,50.67,13.78,80.19,1.69a164.15,164.15,0,0,0,16.39-7.75h0c9-17.78,14.4-37.92,16.52-46.72C372.06,394.58,366.12,395.65,358.7,396.63Z" />
      <path class="GUNDAN_CAT_OUTFIT_CAT_OUTFIT_14_cls-6" d="M129,324.93c2.1,3.44,37.13,56.26,89.39,56.47,36.78.15,85-52.66,85-52.66h0c-1.78-1-3.37-2-4.68-2.84,5.24-6,7.07-5,9.69-2.18s1.82,8.78,1.82,8.78-13.47,7.78-21.7,17.67v0c-11.51,13.85-35,31.67-57.54,37.47a59.41,59.41,0,0,1-15,1.92,54.48,54.48,0,0,1-10.8-1.11c-25.05-5.06-60.53-26.56-70.89-42.21h0c-6.36-9.59-16.74-18-16.74-18s2.32-6.9,7.24-8.33a5.72,5.72,0,0,1,6.93,2.5C130.37,323.17,130.76,324,129,324.93Z" />
      <path class="GUNDAN_CAT_OUTFIT_CAT_OUTFIT_14_cls-2" d="M303.46,328.73h0s-48.27,52.81-85,52.66c-23.54-.09-43-10.66-57.42-22.57-16.19-13.34-29.12-29.35-31.51-33.16l-.46-.74c1.74-.9,1.35-1.76,2.79-2.52,3.55-1.88,1.56-3.25,1.26-3.44.58.26,10.7,4.4,21.1,8.27l.35.13c15.45,5.74,38,13,57.21,14.91h.13l1.29.12h.14a25.85,25.85,0,0,0-.4,4.58c0,.31,0,.63,0,.95a21.21,21.21,0,0,0,2.48,9.85c1.28,2.19,3,3.52,4.79,3.53a4.59,4.59,0,0,0,3.16-1.37h0c2.44-2.27,4.12-7.11,4.12-12.74a26.46,26.46,0,0,0-.4-4.64c32.42-1.9,69.85-18.66,70.87-19.12-.17.13-1.32,1.05.84,2.42C300.09,326.71,301.69,327.7,303.46,328.73Z" />
      <path class="GUNDAN_CAT_OUTFIT_CAT_OUTFIT_14_cls-2" d="M304.31,306.64v4l-7.05,12.67-.11.24a.77.77,0,0,0-.13.32h0l-8.08,18.46-61.65,1.84h-.64l-8.1.24-5.19.16-.07-2.17h-.14l-1.29-.12h-.13c-19.24-1.9-41.76-9.17-57.21-14.91l-.35-.13c-10.12-3.76-20-7.78-21-8.23l-.07,0h0s-.07-12.31.74-16.78c.65-3.54,11-4.94,15.3-5.38L146.69,304l.47.17a21,21,0,0,1,2.28.76l0-.05,3.83,1.31L172,312.6l.62.38h0c.54.31,1.42.8,2.66,1.4l0,0c5.33,1.58,11.2,3.1,17.39,4.33a147.81,147.81,0,0,0,26.84,3q3.41,0,6.83,0a284.5,284.5,0,0,0,39.28-3.95h.06l.29-.05c8.35-1.4,15.59-2.91,20.88-4.11a2.75,2.75,0,0,1-.15-.36c-1.25-3.05-3.66-11-4.44-13.67l1.73-.38,7.64.41S303.27,302.85,304.31,306.64Z" />
      <path class="GUNDAN_CAT_OUTFIT_CAT_OUTFIT_14_cls-2" d="M154.52,327.37c15.22,5.4,37.8,12.48,57.34,14.92h-.13C192.49,340.38,170,333.11,154.52,327.37Z" />
      <path class="GUNDAN_CAT_OUTFIT_CAT_OUTFIT_14_cls-2" d="M218.5,333.32c-2.43,1.09-4.4,4.57-5.21,9.1h-.14C213.9,336.39,216.22,333.7,218.5,333.32Z" />
      <path class="GUNDAN_CAT_OUTFIT_CAT_OUTFIT_14_cls-2" d="M267,321.57a48.26,48.26,0,0,1-6.22,1.77C264.46,322.37,266.73,321.67,267,321.57Z" />
      <path class="GUNDAN_CAT_OUTFIT_CAT_OUTFIT_14_cls-2" d="M288.58,350.18c-11.51,13.85-35,31.67-57.54,37.47,6.51,15.65-1.2,18.53-2.52,25.91-1.4,7.82.17,10.7-1.42,21.59s0,16.45,0,16.45c11.37-7.05,20.46-13.7,24.47-16.72l2.23-1.7a53.51,53.51,0,0,1,1.35-19.9l-.13.09c2.65-5.06,4.72-9,8.49-20.29C267.77,380.29,288.1,351.09,288.58,350.18Z" />
      <path class="GUNDAN_CAT_OUTFIT_CAT_OUTFIT_14_cls-6" d="M231,387.65c6.51,15.65-1.2,18.53-2.52,25.91-1.4,7.82.17,10.7-1.42,21.59s0,16.45,0,16.45c-5.1,3.16-10.64,6.38-16.39,9.41l-1-.89a45.64,45.64,0,0,0-1-10.08c-1.2-6.12.68-9.88,2.79-20.62s-1.23-12.95-4.05-23.51a72.3,72.3,0,0,1-2.18-17.45,54.48,54.48,0,0,0,10.8,1.11A59.41,59.41,0,0,0,231,387.65Z" />
      <path class="GUNDAN_CAT_OUTFIT_CAT_OUTFIT_14_cls-8" d="M227.47,347.22c0,5.63-1.68,10.47-4.12,12.74h0a4.59,4.59,0,0,1-3.16,1.37c-1.83,0-3.51-1.34-4.79-3.53a21.21,21.21,0,0,1-2.48-9.85c0-.32,0-.64,0-.95a25.85,25.85,0,0,1,.4-4.58c.81-4.53,2.78-8,5.21-9.1h0a3.93,3.93,0,0,1,1.67-.36c3.2,0,5.91,4.05,6.89,9.62A26.46,26.46,0,0,1,227.47,347.22Z" />
      <path class="GUNDAN_CAT_OUTFIT_CAT_OUTFIT_14_cls-2" d="M207.45,405.91c2.82,10.56,6.17,12.78,4.05,23.51s-4,14.5-2.79,20.62a45.64,45.64,0,0,1,1,10.08c-6.5-5.89-16.62-16.47-27-32.84-14.76-23.24-44.36-61.84-48.32-81,10.36,15.65,45.84,37.15,70.89,42.21A72.3,72.3,0,0,0,207.45,405.91Z" />
      <path class="GUNDAN_CAT_OUTFIT_CAT_OUTFIT_14_cls-6" d="M209.72,460.12l1,.89a174.69,174.69,0,0,1-18,8.24c-7.89-6.91-10-9.08-11.3-14.29-1.42-5.7-9.48-7.25-16.73-13.61s-31-30.18-38.89-47.42S106.22,378.24,105,360.25c1-8.83,1.81-28.33,2.18-28.91h0c2.09-1,8.4-2,10.45-3.09,0,0,10.38,8.41,16.74,18h0c4,19.19,33.56,57.79,48.32,81C193.1,443.65,203.22,454.23,209.72,460.12Z" />
      <path class="GUNDAN_CAT_OUTFIT_CAT_OUTFIT_14_cls-6" d="M192.76,469.25c-1.25.49-2.49.94-3.73,1.37a236.2,236.2,0,0,1-48,10.94c-7.59-28.95-36.62-72.2-46.61-93.92-10.44-22.69-4.67-40.42-4.67-40.42s1.42-4.66,13.74-10.08c3.4-1.48-.65-3.62,3.73-5.8-.37.58-1.21,20.08-2.18,28.91,1.22,18,12.88,16.4,20.84,33.68s31.63,41,38.89,47.42S180,449.26,181.46,455C182.76,460.17,184.87,462.34,192.76,469.25Z" />
      <path class="GUNDAN_CAT_OUTFIT_CAT_OUTFIT_14_cls-6" d="M97.94,517.47l-49.37.73-12.07.2,8.14-37.85-7.85-37.18s-1.85-5.21,1.47-8.45S43.4,420,43.4,420s4.48-.91,6-6.83,7.1-30.27,10.4-36.51,14.46-22.59,14.46-22.59l.49.05c-.69,6.55,8.48,33.38,21.52,53.37C108,425.58,120.79,456.17,127,474.7a9.22,9.22,0,0,0-2.84,10.59,117.3,117.3,0,0,0,4.64,11.44s1.32.1,3.87.06l.63,2.87v17.23Z" />
      <path class="GUNDAN_CAT_OUTFIT_CAT_OUTFIT_14_cls-2" d="M127,474.7c-6.21-18.53-19-49.12-30.78-67.21-13-20-22.21-46.82-21.52-53.37.1-1,.18-1.49.18-1.49l14.83-5.41S83.94,365,94.38,387.64c10,21.72,39,65,46.61,93.92-5.86.73-10,1-11.51,1.1C128.85,480.39,128,477.7,127,474.7Z" />
      <path class="GUNDAN_CAT_OUTFIT_CAT_OUTFIT_14_cls-9" d="M138.87,302.51c2.17-.36,6.42,1,7.82,1.47l.47.17a21,21,0,0,1,2.28.76l.42.17.08,0h0c.94.42,2.14.95,3.55,1.55l.83.35h0a216.82,216.82,0,0,0,21.46,7.62l0,0c5.33,1.58,11.2,3.1,17.39,4.33a147.81,147.81,0,0,0,26.84,3q3.4,0,6.83,0A284.5,284.5,0,0,0,266.16,318h.06l.29-.05c8.35-1.4,15.59-2.91,20.88-4.11,5.87-1.33,9.36-2.28,9.36-2.28" />
      <path class="GUNDAN_CAT_OUTFIT_CAT_OUTFIT_14_cls-9" d="M282.8,299.33l9.37.5s11.74,3.32,12.65,7.14S298,323.45,298,323.45h0c-.2.09-1.78.8-4.45,1.9-11,4.53-40.32,15.69-66.42,17.22" />
      <path class="GUNDAN_CAT_OUTFIT_CAT_OUTFIT_14_cls-9" d="M149.08,296.79c-4.29.44-14.65,1.84-15.3,5.38C133,306.64,133,319,133,319h0l.08,0c1.1.46,10.92,4.47,21,8.22l.35.13c15.45,5.74,38,13,57.21,14.91h.13l1.29.12h.14" />
      <path class="GUNDAN_CAT_OUTFIT_CAT_OUTFIT_14_cls-9" d="M303.46,328.73c-1.77-1-3.37-2-4.68-2.85-2.16-1.37-1-2.29-.84-2.42h0" />
      <path class="GUNDAN_CAT_OUTFIT_CAT_OUTFIT_14_cls-9" d="M309.34,335.83a23.7,23.7,0,0,0,1-3.34" />
      <path class="GUNDAN_CAT_OUTFIT_CAT_OUTFIT_14_cls-9" d="M303.46,325v3.74h0s-48.27,52.81-85,52.66c-52.26-.21-87.29-53-89.39-56.47l-.1-.17" />
      <path class="GUNDAN_CAT_OUTFIT_CAT_OUTFIT_14_cls-9" d="M129,324.93c1.74-.9,1.35-1.76,2.79-2.52,3.55-1.88,1.56-3.25,1.26-3.44h0" />
      <path class="GUNDAN_CAT_OUTFIT_CAT_OUTFIT_14_cls-9" d="M107.18,331.34c-4.38,2.18-.33,4.32-3.73,5.8-12.32,5.42-13.74,10.08-13.74,10.08S83.94,365,94.38,387.64c10,21.72,39,65,46.61,93.92" />
      <path class="GUNDAN_CAT_OUTFIT_CAT_OUTFIT_14_cls-9" d="M117.64,328.24c-2,1.05-8.36,2.05-10.45,3.09" />
      <path class="GUNDAN_CAT_OUTFIT_CAT_OUTFIT_14_cls-9" d="M317.68,325.35a4.2,4.2,0,0,1,.19-.69c.85-2.33-2.73-8.67-5.8-4.09a74.62,74.62,0,0,0-2.73,15.26c-.74,9.67-4.7,22.14,2.45,32,1.6,2.22,3.09,4.36,4.53,6.4,5.56,8,10.22,14.52,16.78,18.57,6.12,3.77,13.9,5.34,25.6,3.8,7.42-1,13.36-2.05,18.09-3.1q2.74-.61,5-1.2c2.4-.63,4.35-1.23,5.93-1.77a29,29,0,0,0,5.8-2.48s1.82-5.37-2.92-6c-3.08.07-11.33,2.37-11.33,2.37s-7.36-14.42-18.51-14.48-22,12.57-22,12.57a85.94,85.94,0,0,1-17.11-22.09C314.61,347.58,316.67,329.58,317.68,325.35Z" />
      <path class="GUNDAN_CAT_OUTFIT_CAT_OUTFIT_14_cls-9" d="M317.68,325.35c8-1.61,32.22-6.11,50.76,10,21.48,18.69,22.12,46.75,22.12,46.75" />
      <path class="GUNDAN_CAT_OUTFIT_CAT_OUTFIT_14_cls-9" d="M288.59,350.16c8.23-9.89,21.7-17.67,21.7-17.67s.8-6-1.82-8.78-4.45-3.85-9.69,2.18" />
      <path class="GUNDAN_CAT_OUTFIT_CAT_OUTFIT_14_cls-9" d="M134.38,346.25c10.36,15.65,45.84,37.15,70.89,42.21a54.48,54.48,0,0,0,10.8,1.11,59.41,59.41,0,0,0,15-1.92c22.56-5.8,46-23.62,57.54-37.47" />
      <path class="GUNDAN_CAT_OUTFIT_CAT_OUTFIT_14_cls-9" d="M131.81,322.41a5.72,5.72,0,0,0-6.93-2.5c-4.92,1.43-7.24,8.33-7.24,8.33s10.38,8.41,16.74,18" />
      <path class="GUNDAN_CAT_OUTFIT_CAT_OUTFIT_14_cls-9" d="M129.48,482.66c-.63-2.27-1.47-5-2.48-8-6.21-18.53-19-49.12-30.78-67.21-13-20-22.21-46.82-21.52-53.37.1-1,.18-1.49.18-1.49l14.83-5.41" />
      <path class="GUNDAN_CAT_OUTFIT_CAT_OUTFIT_14_cls-9" d="M387.68,390.56c5,2.81,2.84,8.73,4.22,10.6-.71.94-1.42,1.87-2.14,2.78-9.87,12.58-8.06,23.21-22.67,32.33" />
      <path class="GUNDAN_CAT_OUTFIT_CAT_OUTFIT_14_cls-9" d="M360.26,440.26A164.15,164.15,0,0,1,343.87,448c-29.52,12.09-70.34,6-80.19-1.69-5.12-4-8.15-8-9.49-13.24-.1-.4-.19-.8-.26-1.2-.94-4.63-.67-10.21.56-17.48" />
      <path class="GUNDAN_CAT_OUTFIT_CAT_OUTFIT_14_cls-9" d="M389.76,403.94s5.3,8.16,5.64,10.14l.33,2s-1.4.94-3.45,2.45c-3.87,2.84,2.35,7.69-1.14,12.13S371.57,444,360.36,450" />
      <path class="GUNDAN_CAT_OUTFIT_CAT_OUTFIT_14_cls-9" d="M254.49,414.4h0c2.92-5.6,5-9.24,9-21.31,4.26-12.79,24.59-42,25.07-42.9v0" />
      <path class="GUNDAN_CAT_OUTFIT_CAT_OUTFIT_14_cls-9" d="M381.75,392.33c-.77,9.68-7.29,28.25-7.29,28.25l-7.37,15.69-2,4.29c-1.5,3.19-3.05,6.34-4.72,9.41-8.76,16.21-20.63,30.45-44.31,39.45-28.4,10.8-54.85-3.93-54.85-3.93s-1.2-2.81-2.67-7c-1-2.79-2.07-6.19-3-9.8a73.43,73.43,0,0,1-2.14-11.42c-.07-.78-.14-1.51-.19-2.22-.86-11,.19-14.55.19-14.55" />
      <path class="GUNDAN_CAT_OUTFIT_CAT_OUTFIT_14_cls-9" d="M376.79,393.53c-2.12,8.8-7.53,28.94-16.52,46.72h0c-.55,1.13-1.13,2.23-1.72,3.33a101.59,101.59,0,0,1-6.77,10.83h0c-12.07,16.75-26.56,25.05-39.78,31.35-14.06,6.69-38.77,1.61-53.44-7.32" />
      <path class="GUNDAN_CAT_OUTFIT_CAT_OUTFIT_14_cls-9" d="M210.71,461l-1-.89c-6.5-5.89-16.62-16.47-27-32.84-14.76-23.24-44.36-61.84-48.32-81h0" />
      <path class="GUNDAN_CAT_OUTFIT_CAT_OUTFIT_14_cls-9" d="M107.19,331.33h0c-.37.58-1.21,20.08-2.18,28.91,1.22,18,12.88,16.4,20.84,33.68s31.63,41,38.89,47.42S180,449.26,181.46,455c1.3,5.21,3.41,7.38,11.3,14.29" />
      <path class="GUNDAN_CAT_OUTFIT_CAT_OUTFIT_14_cls-9" d="M205.27,388.46a72.3,72.3,0,0,0,2.18,17.45c2.82,10.56,6.17,12.78,4.05,23.51s-4,14.5-2.79,20.62a45.64,45.64,0,0,1,1,10.08" />
      <path class="GUNDAN_CAT_OUTFIT_CAT_OUTFIT_14_cls-9" d="M231,387.65c6.51,15.65-1.2,18.53-2.52,25.91-1.4,7.82.17,10.7-1.42,21.59s0,16.45,0,16.45" />
      <path class="GUNDAN_CAT_OUTFIT_CAT_OUTFIT_14_cls-9" d="M392.28,418.52a60.79,60.79,0,0,1,3.45,14.11s8.3,31.54,11.61,44.51,5.07,12.28,8.15,19.5A52.37,52.37,0,0,1,419,512.2l-10.57.18-145.27,2.38-114.55,1.88-15.33.25-35.36.58-49.37.73-12.07.2,8.14-37.85-7.85-37.18s-1.85-5.21,1.47-8.45S43.4,420,43.4,420s4.48-.91,6-6.83,7.1-30.27,10.4-36.51,14.46-22.59,14.46-22.59" />
      <path class="GUNDAN_CAT_OUTFIT_CAT_OUTFIT_14_cls-9" d="M316.9,410.45a20,20,0,1,1,.65-5,19.85,19.85,0,0,1-.64,5" />
      <path class="GUNDAN_CAT_OUTFIT_CAT_OUTFIT_14_cls-9" d="M291.43,428.53a22.65,22.65,0,0,0,2.87.51v5.87l5.9,0V429a24,24,0,0,0,6.53-1.72l3,5.05,5.09-2.9-3-5.05a24.37,24.37,0,0,0,4.77-4.69l5.13,2.9,2.93-5-5.14-2.91a23.05,23.05,0,0,0,1.74-6.4h5.93v-5.75h-5.93a22.89,22.89,0,0,0-1.74-6.39l5.14-2.92-2.93-5-5.13,2.91a23.87,23.87,0,0,0-4.77-4.7l3-5.06-3.52-2-1.57-.9-3,5.05a24.76,24.76,0,0,0-6.53-1.74V376l-5.9,0v5.86a24.75,24.75,0,0,0-6.55,1.69l-3-5.09-5.13,2.87,3,5.1a23.81,23.81,0,0,0-4.81,4.7l-5.21-3-3,5,5.21,2.95a22.9,22.9,0,0,0-1.75,6.44h-6v5.8h6a21.14,21.14,0,0,0,.76,3.67,20.25,20.25,0,0,0,1,2.77l-5.21,2.95,3,5,5.21-2.94a24,24,0,0,0,4.81,4.69l-3,5.09,4.9,2.76.23.13.21-.35,2.78-4.74A22.85,22.85,0,0,0,291.43,428.53Z" />
      <path class="GUNDAN_CAT_OUTFIT_CAT_OUTFIT_14_cls-9" d="M300.53,389.86a16.24,16.24,0,1,1-3.8-.33,17,17,0,0,1,3.79.33" />
      <path class="GUNDAN_CAT_OUTFIT_CAT_OUTFIT_14_cls-9" d="M316.32,374.26c-1.16,1.2-2.9,3-5.05,5.14" />
      <path class="GUNDAN_CAT_OUTFIT_CAT_OUTFIT_14_cls-9" d="M333.1,392.83a72,72,0,0,1-7.88,9.72" />
      <path class="GUNDAN_CAT_OUTFIT_CAT_OUTFIT_14_cls-9" d="M300.53,389.86h0" />
      <path class="GUNDAN_CAT_OUTFIT_CAT_OUTFIT_14_cls-9" d="M291.43,428.53c-2.21,1.29-4.37,2.48-6.46,3.57l-.44.22c-9.53,4.92-17.52,7.6-20.91,6.65-4.19-1.17-7-4-7.66-7.47-.9-5,2.61-11.38,12.86-16.57a55.48,55.48,0,0,0,5-2.95" />
      <line class="GUNDAN_CAT_OUTFIT_CAT_OUTFIT_14_cls-9" x1="316.91" y1="410.45" x2="316.9" y2="410.45" />
      <path class="GUNDAN_CAT_OUTFIT_CAT_OUTFIT_14_cls-9" d="M263.62,423.84s-7.83,13.55,8,8.9" />
      <path class="GUNDAN_CAT_OUTFIT_CAT_OUTFIT_14_cls-9" d="M270.25,429.51a4.16,4.16,0,1,1-4.15-4.05A4.12,4.12,0,0,1,270.25,429.51Z" />
      <path class="GUNDAN_CAT_OUTFIT_CAT_OUTFIT_14_cls-9" d="M227.47,347.22c0,5.63-1.68,10.47-4.12,12.74h0a4.59,4.59,0,0,1-3.16,1.37c-1.83,0-3.51-1.34-4.79-3.53a21.21,21.21,0,0,1-2.48-9.85c0-.32,0-.64,0-.95a25.85,25.85,0,0,1,.4-4.58c.81-4.53,2.78-8,5.21-9.1h0a3.93,3.93,0,0,1,1.67-.36c3.2,0,5.91,4.05,6.89,9.62A26.46,26.46,0,0,1,227.47,347.22Z" />
      <path class="GUNDAN_CAT_OUTFIT_CAT_OUTFIT_14_cls-10" d="M282.8,299.33a91.09,91.09,0,0,0,4.59,14.5" />
      <g class="GUNDAN_CAT_OUTFIT_CAT_OUTFIT_14_cls-11">
        <path d="M83.94,517.7s5.11-11.42,2.92-34.07-1.65-33.89-1.65-33.89,6.71,35.82,8.59,43.06c1.94-28.68-1.22-73.4-1.22-73.4V408.3s9.71,42.72,13.35,59.19,7.29,43.62,7.29,43.62l1.9,6.08Z" />
        <path d="M100.2,338.62s-1.35,18.48,1,33.37,35.57,38.25,42,53.8a112.41,112.41,0,0,0,15.59,26.38s16.22,13.2,16.58,13.44,7.12,7.15,7.12,7.15l10.22-3.51s-6.51-5.29-9-10.49-4.82-7.24-4.82-7.24a66.31,66.31,0,0,1-12.26-8.75c-7.05-6.14-14.92-21.58-22.72-45.14a164.87,164.87,0,0,0-21.68-42.08l-5.38-23.26-1-3L107,331.8,105.52,336Z" />
        <path d="M311.35,323.22s.89-4.29,2.45-4.16-1.08,12.7-.09,20.62,6.89,30.19,12.78,35.81,18.17,12.77,24,12.23,18.15-4.15,22.17-2.7,11.91,1.82,14.47,1.49,4.22,2.12,4.22,2.12a161,161,0,0,1-22.26,7c-12.88,3.09-33.54,1-41.58-7.21s-19-22.87-19.49-29.6,1.79-26.36,1.79-26.36Z" />
        <path d="M309.3,324.9A65.77,65.77,0,0,1,299,336.63c-6.23,5.49-14.42,14.44-20.39,19.45s-13.4,14.25-25.22,18.59-25.73,10.12-31.1,11.86-25.34-4.36-30.47-5.74-16.13-5.16-21.9-13.69S136,351.2,132.78,343.71s-14.47-16.5-14.47-16.5v1.61s24.17,25.49,30.61,32.07,15.93,10.47,21.22,14.78,11.73,11.24,18.89,14.22,12.19,7.07,20.18,11.32,10.49,19.35,9.61,27.71-2,24-1.87,24.48,0,5.22,0,5.22l7.08-6.29s1.16-23.69,2.36-28.85,1.37-6.75,2.65-11.22,4-6.23,3.91-13a34.64,34.64,0,0,0-1.55-10.75,192.09,192.09,0,0,0,21.76-10c10.58-5.78,33-23.95,33-23.95s16.24-11.46,20.46-14.33,5.52-12.3,5.52-12.3Z" />
        <path d="M289.39,391.51s-1.87,14.1,7.34,19,15.73.28,15.73.28-7.93,17.27-23.22,8.45S281.42,396.09,289.39,391.51Z" />
        <path d="M262.19,419.15c1.93-1.29,4.22,2,4.45,2.68s5.8,1.65,7,4.35,1.75,5.8,2.75,6.81,3.92.66,3.92.66-5.81,4.62-12.7,5.27-11.95-3.15-11.68-7.42S257,422.62,262.19,419.15Z" />
        <path d="M266.64,384.05s-11.28,4.44-16.32,14.93-12.54,41-12,35.95,5.41-36.3,5.41-36.3L232.89,433.7,230,447.36l-1.63,3.44,24.46-17.72s.44-12.15,1-15.76,1.71-4.89,1.71-4.89Z" />
        <path d="M164,390s15.12,13.34,20.8,28.89S195,444.45,195,444.45L189.09,415V400.57l15.25,51.18,3.46,6.59s1.13-2.87.92-8.78,2.59-13.21,3.45-17.19-.84-14.77-.84-14.77l-11-18S206.22,413,206.22,424s-.91,23.3-.91,23.3-8.35-43.38-21.88-65.2c2,19.49,2,27.47,2,27.47s-22.28-28.11-27.79-38.89-7.51-10.79-7.51-10.79l11,25.12Z" />
        <path d="M223.34,360a6,6,0,0,1-8-2.16c-1.38-1.94-2.35-5-2.48-9.57V348c0-.32,0-.64,0-.95a35.24,35.24,0,0,1,.26-4.59c.75-6,3.07-8.71,5.35-9.09h0a3.54,3.54,0,0,1,1.68.14S216,355.87,223.34,360Z" />
        <path d="M248.59,371s-17,14.73-46.72,8.49c-14.81-3.11-29.47-11.93-40.88-20.69-11.71-9-23-18.86-24.64-21.42-3.18-5.07-6.89-11.68-6.89-11.68l0-.06c.08-.31.51-1.68,1.65-1.84,1.29-.18,3.8-1.09,2.77-4.14,0,0,9.88,3.87,20.27,7.55l.35.13c15.22,5.4,37.8,12.48,57.34,14.92h-.13c-26.24-1.27-61.07-8.68-61.07-8.68S168.9,355,174,360.33s26,15.74,43.77,15.22A130.53,130.53,0,0,0,248.59,371Z" />
        <path d="M267,321.57a48.26,48.26,0,0,1-6.22,1.77C264.46,322.37,266.73,321.67,267,321.57Z" />
        <path d="M316.61,336s6.93,18.25,14.51,27.24,17.25-8.67,34.52,1.79,23.83,8.38,23.83,8.38l1.52,8.75s-9.73-.27-12.18,2.3c-7.81-11.86-11.52-16.79-23.26-13.68a31.75,31.75,0,0,0-17.68,12.77S314.1,359.59,316.61,336Z" />
        <path d="M263.76,439s12.55.9,41.13,0c28.33-.92,40.14-7.65,51.44-18.69a225.88,225.88,0,0,0,18-19.5s-7.79,30.48-14,39.48c-19.39,8.91-32.13,15.15-53.16,14.58s-39.91-4.41-43.92-7.76-9-14-9-14l1.64.09A8.31,8.31,0,0,0,263.76,439Z" />
        <path d="M389.23,392.35s-7.55,6.41-8.08,6.73-6.48,21.07-8.11,24.54-4.76,11.88-4.76,11.88l9.81-9.12s-2.46,8.81-5.55,11.4a62.6,62.6,0,0,1-8.14,5.36l-1.58,4.67a77.21,77.21,0,0,0,15.65-8c8.35-5.48,11.62-11.76,10.19-14.66s-.34-9.61-.34-9.61L388,405.46l3.39-4.3L389.42,392Z" />
      </g>
      <line class="GUNDAN_CAT_OUTFIT_CAT_OUTFIT_14_cls-10" x1="149.08" y1="296.79" x2="146.69" y2="303.98" />
    </g>
  </g>
</svg>