<svg xmlns="http://www.w3.org/2000/svg" viewBox="0 0 432 432">
  <defs>
    <style>.GUNDAN_CAT_OUTFIT_CAT_OUTFIT_7_cls-1{isolation:isolate;}.GUNDAN_CAT_OUTFIT_CAT_OUTFIT_7_cls-2{fill:#492406;}.GUNDAN_CAT_OUTFIT_CAT_OUTFIT_7_cls-11,.GUNDAN_CAT_OUTFIT_CAT_OUTFIT_7_cls-2,.GUNDAN_CAT_OUTFIT_CAT_OUTFIT_7_cls-6{stroke:#000;stroke-linecap:round;stroke-linejoin:round;}.GUNDAN_CAT_OUTFIT_CAT_OUTFIT_7_cls-11,.GUNDAN_CAT_OUTFIT_CAT_OUTFIT_7_cls-2{stroke-width:1.63px;}.GUNDAN_CAT_OUTFIT_CAT_OUTFIT_7_cls-3{fill:#b27422;}.GUNDAN_CAT_OUTFIT_CAT_OUTFIT_7_cls-4{fill:#2e2226;}.GUNDAN_CAT_OUTFIT_CAT_OUTFIT_7_cls-13,.GUNDAN_CAT_OUTFIT_CAT_OUTFIT_7_cls-5{opacity:0.22;mix-blend-mode:multiply;}.GUNDAN_CAT_OUTFIT_CAT_OUTFIT_7_cls-11,.GUNDAN_CAT_OUTFIT_CAT_OUTFIT_7_cls-6{fill:none;}.GUNDAN_CAT_OUTFIT_CAT_OUTFIT_7_cls-6{stroke-width:2px;}.GUNDAN_CAT_OUTFIT_CAT_OUTFIT_7_cls-7{fill:#ffffe9;}.GUNDAN_CAT_OUTFIT_CAT_OUTFIT_7_cls-8{fill:#c67e29;}.GUNDAN_CAT_OUTFIT_CAT_OUTFIT_7_cls-9{fill:#7f4510;}.GUNDAN_CAT_OUTFIT_CAT_OUTFIT_7_cls-10{fill:#cf764a;}.GUNDAN_CAT_OUTFIT_CAT_OUTFIT_7_cls-12{opacity:0.2;mix-blend-mode:darken;}</style>
  </defs>
  <g class="GUNDAN_CAT_OUTFIT_CAT_OUTFIT_7_cls-1">
    <g id="Outfit">
      <path class="GUNDAN_CAT_OUTFIT_CAT_OUTFIT_7_cls-2" d="M69.69,356.62a36.4,36.4,0,0,1,3.49-14.24c3.56-7.67,19.19,10.16,19.19,10.94S86.54,366.53,86.1,367" />
      <path class="GUNDAN_CAT_OUTFIT_CAT_OUTFIT_7_cls-3" d="M257.54,419.71a2.49,2.49,0,1,1-2.48,2.49A2.48,2.48,0,0,1,257.54,419.71Z" />
      <path class="GUNDAN_CAT_OUTFIT_CAT_OUTFIT_7_cls-3" d="M262.52,403.48A2.49,2.49,0,1,1,260,406,2.48,2.48,0,0,1,262.52,403.48Z" />
      <path class="GUNDAN_CAT_OUTFIT_CAT_OUTFIT_7_cls-3" d="M208.58,419.71a2.49,2.49,0,1,1-2.48,2.49A2.48,2.48,0,0,1,208.58,419.71Z" />
      <path class="GUNDAN_CAT_OUTFIT_CAT_OUTFIT_7_cls-3" d="M198,403.48a2.49,2.49,0,1,1-2.49,2.49A2.49,2.49,0,0,1,198,403.48Z" />
      <path class="GUNDAN_CAT_OUTFIT_CAT_OUTFIT_7_cls-4" d="M385.77,518.91c-1.54-13.1-8.47-21.47-7.81-45.58s2.75-48.77.88-73.65c-1.33-17.66-8.37-36.32-15.7-47.59a39.88,39.88,0,0,0-5.93-7.39,15.29,15.29,0,0,0-2.81-2.14,40.24,40.24,0,0,0-4.61-2.15l-.1,0c-6.47-2.67-16.77-6.11-26.91-10.39-8.26-3.49-16.42-7.54-22.3-12.17-2.67-5.26-2,.22-3.45,1.05-.67.36-2.79-3.24-4.11-3.9a8,8,0,0,1-1.52-1l0,0-.12-.09a29.64,29.64,0,0,1-3.81-4h-.06c.66,7.25-1.3,23.86-8.81,46.28l-.24.72-.06.16c-.61,1.83-1.27,3.69-2,5.59,0,.07-.05.15-.09.23-.24.66-.49,1.33-.74,2q-.68,1.78-1.44,3.63c-1.4,3.38-3,6.94-4.81,10.67l-1.56,3.25v0c-7.49,15.56-16.78,33.86-21.42,54.41,1.12-.08,2.22-.19,3.28-.32h0a42.86,42.86,0,0,0,4.64-.82h0a2.34,2.34,0,0,1,.88-.17,2.49,2.49,0,0,1,2.48,2.49,2.18,2.18,0,0,1,0,.25,2.49,2.49,0,0,1-2.47,2.24l-.83.2c-.51.13-1,.24-1.55.35q-2.09.42-4.23.69s0,0,0,0c-1.13.15-2.26.27-3.4.36,0,.18-.08.35-.11.53l-.45,2.09c0,.22-.09.43-.13.64q-.77,3.66-1.5,7.41a44.33,44.33,0,0,0,6.24-.72h0a2.39,2.39,0,0,1,1-.2,2.49,2.49,0,1,1,0,5,41.25,41.25,0,0,1-4.3.81h0c-1.3.17-2.6.29-3.89.37-.25,1.35-.49,2.7-.72,4.07-.19,1-.37,2.07-.54,3.11s-.4,2.35-.6,3.54v0c.34,0,.69,0,1,0s.71,0,1.06-.05a31.87,31.87,0,0,0,3.36-.33h0a2.31,2.31,0,0,1,.83-.15,2.51,2.51,0,0,1,2.49,2.49,2.48,2.48,0,0,1-2.49,2.48l-1.5.21h0a49.45,49.45,0,0,1-5.58.37q-.53,3.39-1,6.87c-.21-2.16-.54-4.46-1-6.88a60.1,60.1,0,0,1-7.52-.57,2.49,2.49,0,0,1-2.49-2.48,2.38,2.38,0,0,1,.14-.81,2.48,2.48,0,0,1,2.35-1.68,2.1,2.1,0,0,1,.56.07h0c1,.11,3.23.33,5.87.44-.78-3.4-1.77-7-2.95-10.71a75.88,75.88,0,0,1-9.64-1.17h0a2.49,2.49,0,0,1,.28-5,2.12,2.12,0,0,1,.57.07h0c1.11.15,3.72.46,7,.69-.42-1.21-.86-2.43-1.33-3.67-.23-.62-.46-1.25-.7-1.87s-.48-1.26-.73-1.89c-.36-.9-.72-1.81-1.1-2.72-.06-.16-.12-.32-.19-.48-1.46-.12-2.82-.26-4.07-.4-3.93-.45-6.7-.95-7.47-1.09h0l-.17,0h0a2,2,0,0,1-.67-.24,2.45,2.45,0,0,1-1.36-2.2,2.49,2.49,0,0,1,2.49-2.49,1.73,1.73,0,0,1,.32,0l.23,0h.05c.47.06,1.5.19,2.95.35s3.29.35,5.41.52q-.89-2-1.83-4.05c-.69-1.49-1.41-3-2.15-4.51h0c-1.13-2.34-2.33-4.7-3.57-7.08-.38-.73-.77-1.46-1.17-2.2a275.8,275.8,0,0,0-30.13-45c-.28-.34-.56-.67-.82-1-8.32-10.56-13.43-24.53-18.78-33h0c-5.2-8.21-8.94-14.67-11.55-19.91-.14-.26-.26-.52-.39-.77a52.32,52.32,0,0,1-4.6-12.38,20.25,20.25,0,0,1,.53-10.48c-2.6,4.31-4.16,9.45-5.49,14.43-1,3.65-1.81,7.2-2.85,10.28A32.46,32.46,0,0,1,141,324h-.05l-.16,0-1.12.35c-4.88,1.5-22.85,7.11-46.59,15.24-4.13,1.42-7.61,2.56-10.61,3.7q-1.17.45-2.25.9l-.24.1h0c-.91.38-1.78.78-2.6,1.19A24.73,24.73,0,0,0,66.09,356.4c-5.72,10-18.19,48.46-17.31,84.79s-.22,59.23-5.28,75.74c-.88,5.94-4.85,10.13,7,28.4h70.24a26.26,26.26,0,0,0,2.31-11,27.42,27.42,0,0,0-2-10.21c-.5-1.24-1-2.68-1.52-4.27l-.14-.42c-.09-.29-.18-.59-.28-.9l0-.08c-.32-1.06-.65-2.18-1-3.35-.89-3.17-1.77-6.71-2.59-10.41-.18-.8-.35-1.6-.52-2.41s-.4-1.9-.59-2.86c-.32-1.65-.64-3.32-.94-5l-.24-1.42c0-.12,0-.23-.06-.34-.11-.65-.22-1.29-.32-1.93,0-.23-.08-.45-.11-.68-.54-3.43-1-6.81-1.32-10-.12-1.08-.21-2.14-.3-3.17-.05-.57-.09-1.12-.12-1.67l0-.44c0-.42,0-.82-.07-1.22-.08-1.67-.11-3.25-.09-4.7l.49.83q.39.64.75,1.29c.07.12.14.24.2.36,9.64,16.93,13.56,31.78,11.77,36.71l-.3.83c-.1.26-.2.52-.29.78h0l-.27.75h0a9.06,9.06,0,0,0-.61,5.2c0,.17.08.34.13.51v0a.27.27,0,0,0,0,.12,3.28,3.28,0,0,0,.17.5,5.27,5.27,0,0,0,.19.51l.06.14.14.32c.12.25.25.5.39.76h0s0,0,0,0l0,0c.06.12.13.24.21.37l.07.12a.56.56,0,0,0,0,.08l.16.27,0,.07.16.24.06.1h0v0l0,0c.1.16.21.31.32.47l.09.12.06.09h0a1.88,1.88,0,0,0,.12.18l.43.57h0v0c0,.05.08.1.12.16s.31.4.48.6.3.37.47.56l.18.21.05.06h0l0,0,.14.16c.08.08.15.17.22.25l.07.08.27.31h0l.27.3.56.61h0l.13.11,0,0h0l.06,0,0,0h0v0l.07,0,.08.05,0,0h0l0,0,.05,0h0l0,0,.22.11s0,0,0,0l0,0,.06,0,.14.06.22.11h0l.09.05.12,0,.08,0h0l.14.06.08,0h0l.05,0h0a0,0,0,0,1,0,0h0l.05,0,0,0,.07,0,.07,0,.06,0,0,0,.14,0,.05,0,.11,0h.05l.17.06.14.05h.05l.13,0,.24.08h0l.08,0h0l.09,0,.06,0,.21.07.05,0,.11,0h.06l0,0,.36.11.21.07.43.13.38.12c.73.22,1.53.44,2.4.68l.56.15.45.12.08,0,.39.1.41.11.08,0,.35.09.13,0,.27.07.24.06.89.21.11,0h.05l.31.07.29.07.17,0,.08,0,.13,0h.05l.51.12.3.07.08,0,.51.11.54.12.25.05h0l.36.08.41.09.38.08.15,0,1.32.28,1.1.22.11,0h0l.46.09h0l.56.11.26,0,1.36.26h0l.35.07.29,0,.52.09.23,0h0l.38.07,1.05.19,1.59.28,1.39.23h0l.15,0,.37.06a2.25,2.25,0,0,0,.36.06l1.23.2.85.14h0l.13,0,.91.14.12,0,.33,0h0l.54.08.5.08.22,0,.26,0,.23,0,.21,0,.68.1,1.73.25.48.07h.11l.22,0,.73.1h.23l.19,0,.47.06.24,0,.31,0,.2,0,1,.13,1.12.14h.11l1,.12.65.08.49.06,2.14.25.7.08h.11l1.17.13.23,0,.46.05a1.55,1.55,0,0,0,.31,0l.23,0,.2,0h0l.72.07.35,0h.06l1.05.1.5,0,.24,0,1.55.14,1.06.1,1.2.11.46,0h.13l.49,0,2,.17h0l.58.05.32,0h.14l.44,0h.31l1.07.08,1.14.08.85.06.35,0,.94.06.29,0h.1l.81.05,3,.18,1.26.07,1.2.06h.21l2.28.11.85,0h0l.9,0,1.35,0h0l.77,0,1.39.05h0l.9,0h0l2,.06a.75.75,0,0,1,.15,0l.89,0,.77,0h.54l1,0h1.21l4.19,0q3.27,0,6.6,0c1.31,0,2.63,0,3.94-.06l3.63-.08h.68l2.89-.1,4-.16,1.06,0h.06l.44,0h.47c2.46-.13,4.94-.27,7.43-.45h.05c1.35-.09,2.71-.19,4.07-.31l2.56-.21.3,0,.3,0,1.24-.1h0l.55-.06,1.9-.18,1.82-.18h0l.67-.08.19,0,.2,0,.19,0,1.59-.17.46,0,1-.11.4,0,.23,0,.48-.05,3.23-.4h0c1.45-.18,2.9-.38,4.35-.58h0c1.45-.2,2.9-.42,4.36-.64h0c1.29-.19,2.59-.4,3.89-.61l.49-.08.34-.06,4-.68.1,0,1.32-.24h0l1-.18.38-.07,2.62-.5h0l.13,0,2.25-.45.3-.06,1.91-.39.13,0,.1,0,.44-.09,1.4-.31.25-.05.77-.17.27-.06,1.25-.28.57-.13q3.17-.72,6.32-1.51c5.95-9.91,7.6-11,4.05-18-.11-.21-.21-.43-.3-.65a3.54,3.54,0,0,1-.16-.34c0-.11-.1-.22-.14-.33l-.06-.16c-.11-.26-.21-.52-.31-.79a0,0,0,0,0,0,0,1.21,1.21,0,0,1-.05-.18c-.1-.27-.19-.55-.27-.83a18.64,18.64,0,0,1-.57-2.45c0-.15-.05-.3-.07-.46s0-.05,0-.08,0-.34-.07-.51a2.34,2.34,0,0,1,0-.26q-.06-.45-.09-.93a6,6,0,0,1-.05-.61c0-.34,0-.69,0-1.05a0,0,0,0,0,0,0v-.56a.66.66,0,0,0,0-.14c0-.08,0-.16,0-.25a0,0,0,0,1,0,0,5.63,5.63,0,0,1,0-.71.25.25,0,0,1,0-.08.33.33,0,0,1,0-.14.66.66,0,0,1,0-.2c0-.34,0-.68.07-1a1.41,1.41,0,0,1,0-.2v-.06a.06.06,0,0,1,0,0c0-.43.08-.86.14-1.3a.69.69,0,0,1,0-.13l0-.24c0-.16.05-.32.08-.49s.07-.48.11-.73c0,0,0-.09,0-.13s.06-.38.1-.57.06-.3.1-.46.09-.48.15-.72c.13-.59.27-1.19.44-1.81l.09-.33c.05-.19.1-.39.16-.59s.14-.51.22-.77c0-.05,0-.11.05-.17.09-.31.19-.63.3-.95a2.67,2.67,0,0,1,.09-.26c.07-.23.15-.47.23-.71s.17-.47.26-.71c.34-.95.71-1.92,1.13-2.92l.15-.37.08-.18c.12-.29.24-.57.37-.86l.09-.2c.06-.14.13-.28.19-.43l.14-.3h0l.3-.64c0-.12.11-.23.17-.35.19-.41.4-.84.61-1.26.42-.84.88-1.7,1.39-2.61v0a137,137,0,0,0,2.41,26.4c2.75,14.31.22,23.67-3.63,32.91a37.55,37.55,0,0,0-2.36,7.34c-.61,3.3.05,4.33.05,4.33h62S387.31,532,385.77,518.91ZM262.52,403.48A2.49,2.49,0,1,1,260,406,2.48,2.48,0,0,1,262.52,403.48Zm-5,16.23a2.49,2.49,0,1,1-2.48,2.49A2.48,2.48,0,0,1,257.54,419.71Zm-49,0a2.48,2.48,0,0,1,2.49,2.49,2.4,2.4,0,0,1-.37,1.29.05.05,0,0,1,0,.05,2.35,2.35,0,0,1-1.12.94l-.05,0a2.32,2.32,0,0,1-.92.18,2.49,2.49,0,0,1,0-5ZM198,403.48a2.49,2.49,0,1,1-2.49,2.49A2.49,2.49,0,0,1,198,403.48Z" />
      <path class="GUNDAN_CAT_OUTFIT_CAT_OUTFIT_7_cls-5" d="M369.66,545.33H317.3s-1.55-2.42,2.31-11.67,6.38-18.6,3.63-32.91a136.09,136.09,0,0,1-2.41-26.42c8-14.41,26.09-37.88,16.61-74.65,0,0,15.36,25.52,3.64,61-6.12,21-3.31,37,1.81,54s13.05,24.11,18.83,26.92c-1-15.68,8.24-16,3.8-28.55.28.41,5.39,8,4,13.14S365.53,539.42,369.66,545.33Z" />
      <path class="GUNDAN_CAT_OUTFIT_CAT_OUTFIT_7_cls-5" d="M338.07,402.24v0a0,0,0,0,1,0,0,65.94,65.94,0,0,1-1,16.05,46.25,46.25,0,0,1-7.63,18.31c-7.06,9.87-17.7,15.6-29.26,17.66-1.25.23-2.5.41-3.77.55a59.59,59.59,0,0,1-6.69.34,61.25,61.25,0,0,1-20.47-3.67c-1.71-.62-3.39-1.2-5-1.72h0c-3-.95-5.85-1.74-8.66-2.39h0a92.3,92.3,0,0,0-11.18-1.89,82.57,82.57,0,0,0-15.69-.19,107.9,107.9,0,0,0-27,6.18q-4.74,1.66-9.62,3.66-2.53,1-5.16,1.87h0q-3.37,1.1-6.86,1.86a82.38,82.38,0,0,1-9,1.52h0c-20.1,2.23-39.64-3-45.39-14.86-9-18.56-3.35-33.05,1.26-40.66.29-.47.57-.91.84-1.33,4.7-7.18,26.86-17.7,40.4-18.77a31.68,31.68,0,0,1,22.22,6.7l0,0v0a.11.11,0,0,1,0-.05.35.35,0,0,1-.05-.08L190,391l-.4-.6a46.51,46.51,0,0,0-11.09-10.69c-.29-.15-.58-.29-.87-.41s-.8-.34-1.21-.49c-7-2.48-15.28-.25-21.94,2.65l-.26.11a88.64,88.64,0,0,0-11.75,6.46c-.13.07-.26.14-.38.22-2.79,1.64-11.1,6.45-14.77,3l0,0c-1-1-1.59-3.43-1.89-6.5v0c-.86-8.64.42-22.2.42-22.2a35.63,35.63,0,0,1,4.36-9.6c5.39-8.3,15.29-15.73,31.74-13.95,1.5.16,3.06.4,4.67.72-5.2-8.21-8.94-14.67-11.55-19.91-.14-.26-.26-.52-.39-.77a52.32,52.32,0,0,1-4.6-12.38,20.25,20.25,0,0,1,.53-10.48c-2.6,4.31-4.16,9.45-5.49,14.43-1,3.65-1.81,7.2-2.85,10.28A32.46,32.46,0,0,1,141,324h-.05l-.16,0-1.12.35c-4.88,1.5-22.85,7.11-46.59,15.24-4.13,1.42-7.61,2.56-10.61,3.7q-1.17.45-2.25.9l-.24.1h0c-.91.38-1.78.78-2.6,1.19A24.73,24.73,0,0,0,66.09,356.4c-5.72,10-18.19,48.46-17.31,84.79s-.22,59.23-5.28,75.74c-.88,5.94-4.85,10.13,7,28.4h50.22a20.27,20.27,0,0,0,.61-2.87,31.12,31.12,0,0,0,.07-8.08,0,0,0,0,1,0,0,57.18,57.18,0,0,0-6.62-20.19c-2.37-4.34-5-7.75-7.29-9.35,4.64,32.12-4,36.1-8.64,36.1a7.6,7.6,0,0,1-2.59-.43s-6-9.93-4.24-27.57c.21-2,.51-4.13.94-6.34,4.19-21.58,3.3-32.37-4.4-57.25s6.63-80.6,13.9-79.78c2.22.26,4.35,1.82,6.33,4.29,4.45,5.53,8.11,15.58,10.18,25.47a.09.09,0,0,1,0,.05.07.07,0,0,1,0,.05l.06.27s0,0,0,0h0c-.09.3-.18.59-.25.88h0L98.42,402c0,.12-.07.25-.1.37h0l-.24.84c0,.17-.1.34-.14.5s-.11.4-.16.6-.11.39-.16.59c-.15.55-.29,1.1-.43,1.64-.25,1-.49,2-.71,2.93-.12.49-.22,1-.32,1.49-.08.35-.15.69-.21,1a63.3,63.3,0,0,0-1.29,10.64c-.33,10.47,2.47,20.18,9.36,33.77l.1.2,0,0,.47.72s0,0,0,0c.84,1.27,1.58,2.43,2.23,3.5a50.84,50.84,0,0,1,3.68,7.05c.13.32.24.61.33.89h0a0,0,0,0,0,0,0l.49.83q.39.64.75,1.29c.07.12.14.24.2.36,9.64,16.93,13.56,31.78,11.77,36.71l-.3.83c-.1.26-.2.52-.29.78h0l-.27.75h0a9.06,9.06,0,0,0-.61,5.2c0,.17.08.34.13.51a.74.74,0,0,0,0,.14,3.28,3.28,0,0,0,.17.5,5.27,5.27,0,0,0,.19.51l.06.14.14.32c.12.25.25.5.39.76h0s0,0,0,0l0,0,.12.2a1,1,0,0,0,.09.17l.07.12a.56.56,0,0,0,0,.08h0l.06.1s.06.11.09.17l0,.07.16.24.06.1v0l0,0c.1.16.21.31.32.47l.09.12.06.09.13.18.43.57,0,0c0,.05.08.1.12.16s.31.4.48.6.3.37.47.56l.18.21,0,.06h0s0,0,0,0h0l0,0,.14.16c.08.08.15.17.22.25l.07.08.27.31.28.3.56.61h0l.13.11,0,0h0l.06,0,0,0h0v0l.07,0,.08.05,0,0h0l0,0,.05,0h0l0,0,.22.11s0,0,0,0l0,0,.06,0,.14.06.22.11h0l.09.05.12,0,.08,0h0l.14.06.08,0h0l.05,0h0a0,0,0,0,1,0,0h0l.05,0,0,0,.07,0,.07,0,.06,0,0,0,.14,0,.05,0,.11,0h.05l.17.06.14.05h.05l.13,0,.24.08h0l.08,0h0l.09,0,.06,0,.21.07.05,0,.11,0h.06l0,0,.36.11.21.07.43.13.38.12c.73.22,1.53.44,2.4.68l.56.15.45.12.08,0,.39.1.41.11.08,0,.35.09.13,0,.27.07.24.06.89.21.11,0h.05l.31.07.29.07.17,0,.08,0,.13,0h.05l.51.12.3.07.08,0,.51.11.54.12.25.05h0l.36.08.41.09.38.08.15,0,1.32.28,1.1.22.11,0h0l.46.09h0l.56.11.26,0,1.36.26h0l.35.07.29,0,.52.09.23,0h0l.38.07,1.05.19,1.59.28,1.39.23h0l.15,0,.37.06a2.25,2.25,0,0,0,.36.06l1.23.2.85.14h0l.13,0,.91.14.12,0,.33,0h0l.54.08.5.08.22,0,.26,0,.23,0,.21,0,.68.1,1.73.25.48.07h.11l.22,0,.73.1h.23l.19,0,.47.06.24,0,.31,0,.2,0,1,.13,1.12.14h.11l1,.12.65.08.49.06,2.14.25.7.08h.11l1.17.13.23,0,.46.05a1.55,1.55,0,0,0,.31,0l.23,0,.2,0h0l.72.07.35,0h.06l1.05.1.5,0,.24,0,1.55.14,1.06.1,1.2.11.46,0h.13l.49,0,2,.17h0l.58.05.32,0h.14l.44,0h.31l1.07.08,1.14.08.85.06.35,0,.94.06.29,0h.1l.81.05,3,.18,1.26.07,1.2.06h.21l2.28.11.85,0h0l.9,0,1.35,0h0l.77,0,1.39.05h0l.9,0h0l2,.06a.75.75,0,0,1,.15,0l.89,0,.77,0h.39c.78-.39,1.55-.8,2.34-1.22-8.17-.65-15.39-1.53-21.76-2.58-2-.32-3.85-.66-5.66-1l-.29-.06-.57-.11c-1.17-.23-2.3-.47-3.4-.71-2.36-.53-4.57-1.09-6.65-1.66h0l-.19,0c-8.82-2.45-15.16-5.3-19.7-8.2-14.21-9.09-10.9-18.73-10.9-18.73a57.71,57.71,0,0,0,6.11.68,101.73,101.73,0,0,0,22-1l.12,0c1.88-.3,3.83-.66,5.82-1.09,1.53-.33,3.09-.71,4.67-1.14l.26-.07.13,0c1.13-.3,2.28-.64,3.44-1l2.17-.68c22.57-7,46.51-12.76,58-9.72,36.77,22.44,61.42,11.69,64.08,10.4h0l.23-.11a26.49,26.49,0,0,1,.25-5.82l0-.25s0-.09,0-.13a47.44,47.44,0,0,1,4-13.25,58.75,58.75,0,0,1,4.85-8.55h0l0,0C334.17,463,346.82,421.91,338.07,402.24Z" />
      <path class="GUNDAN_CAT_OUTFIT_CAT_OUTFIT_7_cls-6" d="M287.32,309.51c0,.12,0,.25.05.39.74,8.16-1.83,28.17-11.9,55-7,18.62-22.72,43.1-29.25,72" />
      <path class="GUNDAN_CAT_OUTFIT_CAT_OUTFIT_7_cls-6" d="M150.56,296.12c-2.9,9.7.82,35.43,35.62,77.53A275.21,275.21,0,0,1,225,436.51" />
      <path class="GUNDAN_CAT_OUTFIT_CAT_OUTFIT_7_cls-6" d="M190.25,391.43c-10.79-17-23.81-17.95-45.44-4.74-16.41,10-19.07,3.63-19.18,1.65C125.49,386,122.32,365.08,141,324c3.32-7.3,4.37-19.26,9.57-27.9" />
      <path class="GUNDAN_CAT_OUTFIT_CAT_OUTFIT_7_cls-6" d="M265.68,390.14c5.28-15.91,15.61-19.36,35.8-13.08,15.32,4.77,16.18-.94,15.86-2.57s-8.81-29.9-20.56-53.06c-5-9.9,1.18,1.18-9.35-11.54" />
      <path class="GUNDAN_CAT_OUTFIT_CAT_OUTFIT_7_cls-6" d="M141,324s-20,6.06-47.92,15.64c-14.76,5.06-21.25,6.71-27,16.73s-18.19,48.47-17.31,84.8-.22,59.23-5.28,75.74c-.88,5.94-4.85,10.13,7,28.4h70.24a27.38,27.38,0,0,0,.33-21.24c-4.62-11.56-10.46-40-10.24-55.27" />
      <path class="GUNDAN_CAT_OUTFIT_CAT_OUTFIT_7_cls-6" d="M337.44,399.68c9.48,36.77-8.6,60.24-16.61,74.65-.51.91-1,1.77-1.39,2.61-.54,1.08-1,2.15-1.5,3.19-.21.47-.41.95-.6,1.41-.41,1-.79,2-1.13,2.92-.18.48-.34,1-.49,1.42s-.27.81-.39,1.21c0,.06,0,.12-.05.17-.14.46-.27.91-.39,1.36-.2.73-.37,1.44-.52,2.14q-.09.36-.15.72c-.09.39-.16.78-.22,1.16s-.16,1-.22,1.46a.69.69,0,0,0,0,.13c-.06.45-.11.9-.15,1.34v0a28.8,28.8,0,0,0-.12,3.17.54.54,0,0,0,0,.22c0,.36,0,.71,0,1.05a6,6,0,0,0,.05.61q0,.48.09.93c.05.45.11.88.19,1.31a18.64,18.64,0,0,0,.57,2.45,18,18,0,0,0,.7,2,14.36,14.36,0,0,0,.6,1.32c3.55,7,1.9,8.06-4.05,18-3.06.77-6.13,1.48-9.19,2.15-.7.16-1.39.31-2.09.45l-2.14.44c-.89.19-1.79.37-2.68.54l-2.67.51c-.89.17-1.79.34-2.68.49-80.5,14.4-156.89-2.22-161.74-6.56-8.26-8.81-6.28-11.45-4.41-16.63s-2.53-21.25-13.21-39.19c-21.35-35.23-16.73-52.62-11.78-69.14" />
      <path class="GUNDAN_CAT_OUTFIT_CAT_OUTFIT_7_cls-6" d="M320.83,474.33v0a137,137,0,0,0,2.41,26.4c2.75,14.31.22,23.67-3.63,32.91a37.55,37.55,0,0,0-2.36,7.34c-.61,3.3.05,4.33.05,4.33h62s8-13.32,6.49-26.42-8.47-21.47-7.81-45.58,2.75-48.77.88-73.65c-1.33-17.66-8.37-36.32-15.7-47.59a39.88,39.88,0,0,0-5.93-7.39,15.29,15.29,0,0,0-2.81-2.14,40.24,40.24,0,0,0-4.61-2.15l-.1,0c-6.47-2.67-16.77-6.11-26.91-10.39-8.26-3.49-16.42-7.54-22.3-12.17" />
      <path class="GUNDAN_CAT_OUTFIT_CAT_OUTFIT_7_cls-6" d="M200.46,406a2.49,2.49,0,1,1-2.49-2.49A2.49,2.49,0,0,1,200.46,406Z" />
      <path class="GUNDAN_CAT_OUTFIT_CAT_OUTFIT_7_cls-6" d="M265,406a2.49,2.49,0,1,1-2.48-2.49A2.48,2.48,0,0,1,265,406Z" />
      <path class="GUNDAN_CAT_OUTFIT_CAT_OUTFIT_7_cls-6" d="M211.07,422.2a2.49,2.49,0,1,1-2.49-2.49A2.48,2.48,0,0,1,211.07,422.2Z" />
      <path class="GUNDAN_CAT_OUTFIT_CAT_OUTFIT_7_cls-6" d="M260,422.2a2.49,2.49,0,1,1-2.49-2.49A2.48,2.48,0,0,1,260,422.2Z" />
      <path class="GUNDAN_CAT_OUTFIT_CAT_OUTFIT_7_cls-7" d="M322.64,410.9a2.71,2.71,0,0,1-1.68,3.58,47.83,47.83,0,0,1-6.53,1.86,35.33,35.33,0,0,1-7.12.75,28.81,28.81,0,0,1-12-2.54c-7.86-3.54-12.74-10.05-15.44-14.85a36,36,0,0,1-2.72-5.95,2.72,2.72,0,0,1,2-3.44,3,3,0,0,1,3.69,1.83,32.16,32.16,0,0,0,2.53,5.35c2.33,4,6.36,9.32,12.59,12.11A24.4,24.4,0,0,0,312.7,411a38.18,38.18,0,0,0,6.1-1.7A3,3,0,0,1,322.64,410.9Z" />
      <path class="GUNDAN_CAT_OUTFIT_CAT_OUTFIT_7_cls-7" d="M273.12,421.17c2.32,4,6.36,9.32,12.57,12.12a24.35,24.35,0,0,0,14.78,1.43,39.29,39.29,0,0,0,6.11-1.69,3,3,0,0,1,3.83,1.56,2.7,2.7,0,0,1-1.68,3.58A46.44,46.44,0,0,1,302.2,440a35.48,35.48,0,0,1-7.12.75,28.8,28.8,0,0,1-12-2.53c-7.86-3.55-12.74-10.07-15.43-14.86a36.71,36.71,0,0,1-2.74-5.95,2.75,2.75,0,0,1,2-3.45,3,3,0,0,1,3.7,1.83A31.2,31.2,0,0,0,273.12,421.17Z" />
      <path class="GUNDAN_CAT_OUTFIT_CAT_OUTFIT_7_cls-8" d="M275,416.64a6.51,6.51,0,0,1-1.88,4.53,31.2,31.2,0,0,1-2.53-5.35,3,3,0,0,0-3.7-1.83,2.75,2.75,0,0,0-2,3.45,36.71,36.71,0,0,0,2.74,5.95h0a6.78,6.78,0,1,1,7.36-6.76Z" />
      <path class="GUNDAN_CAT_OUTFIT_CAT_OUTFIT_7_cls-8" d="M307.65,428.85a6.77,6.77,0,1,1,0,13.5A7.4,7.4,0,0,1,302.2,440a46.44,46.44,0,0,0,6.53-1.86,2.7,2.7,0,0,0,1.68-3.58,3,3,0,0,0-3.83-1.56,39.29,39.29,0,0,1-6.11,1.69A7.08,7.08,0,0,1,307.65,428.85Z" />
      <path class="GUNDAN_CAT_OUTFIT_CAT_OUTFIT_7_cls-8" d="M319.88,405.15a6.77,6.77,0,1,1,0,13.51,7.44,7.44,0,0,1-5.45-2.32,47.83,47.83,0,0,0,6.53-1.86,2.71,2.71,0,0,0,1.68-3.58,3,3,0,0,0-3.84-1.57,38.18,38.18,0,0,1-6.1,1.7A7.09,7.09,0,0,1,319.88,405.15Z" />
      <path class="GUNDAN_CAT_OUTFIT_CAT_OUTFIT_7_cls-8" d="M287.23,392.94a6.46,6.46,0,0,1-1.89,4.55,32.16,32.16,0,0,1-2.53-5.35,3,3,0,0,0-3.69-1.83,2.72,2.72,0,0,0-2,3.44,36,36,0,0,0,2.72,5.95,6.78,6.78,0,1,1,7.36-6.76Z" />
      <path class="GUNDAN_CAT_OUTFIT_CAT_OUTFIT_7_cls-9" d="M313.43,416.53l1-.19h0Zm-25.12,71.22a6.52,6.52,0,0,1-1.06.82,5.21,5.21,0,0,1-1.05.54,1.69,1.69,0,0,1-.37.15,5.28,5.28,0,0,1-.77.24,7.58,7.58,0,0,1-1.86.23,7.42,7.42,0,0,1-5.46-2.32c-.61.13-1.21.24-1.81.33l-.8.12-.78.09-.67.07h0l-1.27.09c-.59,0-1.17.05-1.75.05-.85,0-1.69,0-2.51-.11a28.25,28.25,0,0,1-9.49-2.42,29.91,29.91,0,0,1-7.63-5l-.88-.81-.16-.16a27.24,27.24,0,0,1-1.9-2c-.06-.05-.1-.11-.15-.16l-.64-.75-.16-.21c-.26-.3-.5-.61-.72-.91s-.51-.67-.75-1-.58-.81-.84-1.21c-.13-.19-.26-.39-.37-.58-.26-.4-.5-.78-.73-1.16l-.12-.2-.39-.69h0a8.12,8.12,0,0,1-1.41-.15,5.2,5.2,0,0,1-.68-.17,4.38,4.38,0,0,1-.64-.22,2.17,2.17,0,0,1-.35-.15,7.14,7.14,0,0,1-1.88-1.24l-.05,0h0l-.25-.26a1.37,1.37,0,0,1-.17-.17l-.1-.12a4,4,0,0,1-.37-.47,3.7,3.7,0,0,1-.36-.55,4.25,4.25,0,0,1-.31-.6A6.32,6.32,0,0,1,236,464a1.1,1.1,0,0,1,0-.26,6.64,6.64,0,0,1,3.65-5.61h0a7.62,7.62,0,0,1,6.07-.47,6.7,6.7,0,0,1,1.55.74,5.72,5.72,0,0,1,.57.39c.18.14.35.29.51.44a6.41,6.41,0,0,1,1,8.34,6.57,6.57,0,0,1-.79,1c.09.16.18.32.28.48a1.4,1.4,0,0,0,.1.16c.49.82,1.06,1.68,1.7,2.56.07.1.14.21.22.31l.16.21c.34.44.69.89,1.06,1.33l.36.43,0,0,.19.21.36.4a3.83,3.83,0,0,0,.28.29l.25.27.61.61c.29.28.59.56.9.83a22.57,22.57,0,0,0,2.82,2.19c.34.22.69.44,1.05.65s.71.41,1.08.61h0c.37.2.74.38,1.13.56s.73.32,1.1.45a19.84,19.84,0,0,0,2.26.73,20.35,20.35,0,0,0,2.32.49c.42.06.85.11,1.28.15l.34,0h.35a.29.29,0,0,0,.13,0c.14,0,.29,0,.44,0a27.72,27.72,0,0,0,5.18-.26c.45-.07.91-.14,1.37-.23a6.12,6.12,0,0,1,.3-1.21l0-.09a3.45,3.45,0,0,1,.2-.48,3.1,3.1,0,0,1,.27-.51s0,0,0-.05a3.66,3.66,0,0,1,.31-.49c.09-.13.19-.26.29-.38a2.09,2.09,0,0,1,.24-.28l.12-.13a2.5,2.5,0,0,1,.23-.23,6.94,6.94,0,0,1,1.18-.9l.29-.17a3.17,3.17,0,0,1,.41-.21,3,3,0,0,1,.41-.18h0a5,5,0,0,1,.65-.23l.06,0a2.62,2.62,0,0,1,.38-.09,2.16,2.16,0,0,1,.44-.1c.2,0,.39-.06.59-.08a5.37,5.37,0,0,1,.7,0h.07a5.85,5.85,0,0,1,.73,0h0c.22,0,.44.05.65.09a7.31,7.31,0,0,1,1.49.43c.18.08.37.16.54.25h0a4.67,4.67,0,0,1,.49.27,1.64,1.64,0,0,1,.22.14,3.88,3.88,0,0,1,.33.23,6.84,6.84,0,0,1,1,.92,1.07,1.07,0,0,1,.14.16,5.62,5.62,0,0,1,.87,1.29,3,3,0,0,1,.21.45.36.36,0,0,1,0,.09,3.84,3.84,0,0,1,.27.83.15.15,0,0,1,0,.09,1.31,1.31,0,0,1,.06.27,3.22,3.22,0,0,1,.09.76c0,.14,0,.29,0,.43A6.49,6.49,0,0,1,288.31,487.75ZM301.8,462.5a5.94,5.94,0,0,1-.78,1.08,7.45,7.45,0,0,1-5.59,2.46,7.88,7.88,0,0,1-1.2-.09,6.41,6.41,0,0,1-.76-.16,7.37,7.37,0,0,1-2.39-1.11,6.64,6.64,0,0,1-1.09-1h0c-1.23.26-2.43.44-3.62.57l-.35,0a30.82,30.82,0,0,1-3.16.16,28.84,28.84,0,0,1-12-2.54,29.28,29.28,0,0,1-5.36-3.15,37.29,37.29,0,0,1-9.93-11.46c-.05-.08-.1-.16-.14-.24h0a7.13,7.13,0,0,1-7-5.28h0a5.92,5.92,0,0,1-.18-1.47,3.55,3.55,0,0,1,0-.46,2.82,2.82,0,0,1,.08-.65,3.6,3.6,0,0,1,.15-.63,2.64,2.64,0,0,1,.2-.6,6.33,6.33,0,0,1,.58-1.13,3.06,3.06,0,0,1,.21-.29,2,2,0,0,1,.17-.23,2.6,2.6,0,0,1,.37-.45l.11-.11a4.61,4.61,0,0,1,.4-.37,3.49,3.49,0,0,1,.49-.39,6.76,6.76,0,0,1,1-.63l.41-.19a7.15,7.15,0,0,1,2.28-.58,6,6,0,0,1,.74,0,7.39,7.39,0,0,1,6,3,6.61,6.61,0,0,1,.37.55h0c.11.19.21.39.3.58a6.37,6.37,0,0,1,.06,5.13,5.67,5.67,0,0,1-.33.65,6.77,6.77,0,0,1-1.05,1.39h0c.29.5.61,1,1,1.56s.72,1.08,1.12,1.63c.19.28.4.56.62.84l.65.81a29,29,0,0,0,3.13,3.27l.91.77.94.73c.65.47,1.32.93,2,1.35a24.58,24.58,0,0,0,2.23,1.15,23.52,23.52,0,0,0,12,1.82q1.35-.14,2.73-.39a4.91,4.91,0,0,1,.17-.78,3.13,3.13,0,0,1,.18-.57,0,0,0,0,1,0,0c.06-.17.14-.34.22-.51a1.34,1.34,0,0,1,.12-.24,3.64,3.64,0,0,1,.23-.39,3.13,3.13,0,0,1,.29-.42,3.27,3.27,0,0,1,.28-.37l0,0a3.88,3.88,0,0,1,.39-.42,8.61,8.61,0,0,1,1-.81h0a3.76,3.76,0,0,1,.5-.31,3.81,3.81,0,0,1,.57-.29,3.38,3.38,0,0,1,.52-.22l.16-.06a4.42,4.42,0,0,1,.48-.15l.1,0a4.15,4.15,0,0,1,.48-.11l.16,0a6.17,6.17,0,0,1,.62-.08c.22,0,.45,0,.68,0a6.74,6.74,0,0,1,1.43.14l.22,0,.48.12a5.08,5.08,0,0,1,.69.23,4.79,4.79,0,0,1,.56.26.51.51,0,0,1,.15.07,4.4,4.4,0,0,1,.52.3,6.18,6.18,0,0,1,.53.36l.19.16a3.27,3.27,0,0,1,.35.3,4.25,4.25,0,0,1,.47.48l.05.05h0a5.52,5.52,0,0,1,.73,1,3.64,3.64,0,0,1,.3.59,6.17,6.17,0,0,1,.58,2.63A6.32,6.32,0,0,1,301.8,462.5ZM314,438.82a7.25,7.25,0,0,1-6.37,3.53A7.4,7.4,0,0,1,302.2,440h0c-1.22.24-2.42.43-3.6.56a32.29,32.29,0,0,1-3.51.19h-.15c-.33,0-.66,0-1,0a1.34,1.34,0,0,1-.28,0,43.87,43.87,0,0,1-1.32-.09,4.93,4.93,0,0,1-.54,0h-.11l-.65-.09-.94-.14c-.58-.09-1.16-.2-1.73-.33-.41-.09-.82-.19-1.22-.31l-.89-.26-.59-.19a25,25,0,0,1-2.6-1,32,32,0,0,1-11.8-9.43c-.42-.53-.82-1.05-1.19-1.58h0c-.48-.66-.92-1.33-1.32-2s-.78-1.26-1.12-1.86l-.36,0a5.25,5.25,0,0,1-1-.12,7.14,7.14,0,0,1-2.9-1.21,6.58,6.58,0,0,1-.82-.66h0a5.07,5.07,0,0,1-.46-.47h0a6.11,6.11,0,0,1-.41-.51h0q-.19-.27-.36-.54h0a6.28,6.28,0,0,1-.86-3.19,7.27,7.27,0,0,1,14.5,0,6.47,6.47,0,0,1-1.46,4.07,5.87,5.87,0,0,1-.41.46c.14.25.29.51.45.77.32.52.66,1.06,1,1.61a34.64,34.64,0,0,0,3.34,4.14,25,25,0,0,0,7.75,5.6l.79.34.45.17h0c.32.12.63.23.95.33s.67.21,1,.3l.3.08,1,.23h0l.68.13.28,0,.41.07.3,0,.42.06.43,0a25.18,25.18,0,0,0,5.27-.06c.73-.07,1.47-.18,2.22-.31l.22,0h0a6.54,6.54,0,0,1,1.12-2.83,7.22,7.22,0,0,1,.8-.94,7.6,7.6,0,0,1,10.38-.12,6.41,6.41,0,0,1,1.25,8Zm5.86-20.16a7.85,7.85,0,0,1-2-.25,6.18,6.18,0,0,1-.73-.23,7.13,7.13,0,0,1-1.66-.88,6.64,6.64,0,0,1-1.09-1h0l-1,.2c-.34.06-.67.12-1,.16s-.66.1-1,.14-.66.08-1,.1a30.82,30.82,0,0,1-3.16.16h-.14l-1,0a1.22,1.22,0,0,1-.27,0,11.69,11.69,0,0,1-1.19-.08.69.69,0,0,1-.25,0c-.39,0-.77-.07-1.14-.13a1.27,1.27,0,0,1-.28,0,7,7,0,0,1-.78-.13c-.36-.05-.71-.12-1.06-.19l-.17,0-1-.24-.7-.19c-.39-.1-.77-.22-1.15-.35s-.76-.25-1.13-.4c-.57-.21-1.13-.44-1.69-.69a30,30,0,0,1-4.11-2.28,33.16,33.16,0,0,1-4.57-3.69,39.55,39.55,0,0,1-6.76-8.89,6.77,6.77,0,1,1,.11-13.51,7.47,7.47,0,0,1,5.59,2.46,7.08,7.08,0,0,1,.78,1.08,6.38,6.38,0,0,1,.37,5.69,5.77,5.77,0,0,1-.27.56,6.82,6.82,0,0,1-1.12,1.5h0l.46.77c.31.52.66,1.05,1,1.59.27.39.56.79.86,1.19s.66.87,1,1.31a30.44,30.44,0,0,0,3.11,3.25l.91.77c.3.25.62.49.94.73a23.11,23.11,0,0,0,4.26,2.51c.36.16.73.32,1.1.45a19.84,19.84,0,0,0,2.26.73c.38.1.76.19,1.14.26l.05,0,.76.14.62.1.33,0c.26,0,.53.07.8.09a25.09,25.09,0,0,0,5.12,0c.46,0,.93-.1,1.41-.17l1.18-.2a6.57,6.57,0,0,1,1.51-3.32,7.44,7.44,0,0,1,5.68-2.56,6.77,6.77,0,1,1,0,13.51Zm-6.45-2.13,1-.19h0Zm-50.84,4.86a5.78,5.78,0,0,0,.82.66A6.58,6.58,0,0,1,262.59,421.39Zm88.56-82.33v0a12.86,12.86,0,0,0,3.42-6.11c.11-.41.21-.84.29-1.28s.11-.66.14-1h0c1.28-1.91,1.69-3.76,0-4.91-4.64-3.12-37.86-1.62-52.36-5.21a13.81,13.81,0,0,0-6.44.88c-1.48.68,0-11.43-1.3-10.66h0l-.38-.29a.14.14,0,0,1,0,.06l-.21.58h0L292.92,315l-1,2.8-1.29,3.69c-.05.16-.11.31-.16.46-3.71,10.62-8.09,23.37-11.9,34.25-.09.25-.18.49-.26.74l-.06.16c-.67,1.93-1.33,3.8-2,5.59,0,.07-.05.15-.09.23-.66,1.89-1.3,3.69-1.9,5.35-1.37,3.84-2.54,7-3.38,9.14a27.15,27.15,0,0,1-1.21,2.79.93.93,0,0,1-.14.22l-.34.37-.06.06v0h0v0h0l-.05.06-.41.44-.14.15-.44.47h0l-.06.07-.13.14-.09.09-.05.06,0,0,0,.05-1.92,2a.71.71,0,0,1-.12.13l-.25.26-.14.13c-.11.13-.23.25-.35.38l-.5.52-.48.5-.43.45-1.36,1.42-.17.18-.18.18h0l-.36.36-.94,1-1.16,1.19-.44.45h0c-.21.22-.43.45-.66.67l-.4.41-.65.66L256,394.46h0c-.91.92-1.84,1.86-2.78,2.78s-1.88,1.89-2.83,2.83h0l-.37.38h0c-1.16,1.16-2.34,2.31-3.52,3.47h0c-1.18,1.17-2.38,2.33-3.58,3.49l-1,1-.26.25h0c-1.21,1.18-2.43,2.34-3.65,3.51s-2.45,2.33-3.68,3.49h0l-.07.08-.07.06h0l-1,1-.48.45-1.13,1.07-1.13,1.05c-.16.16-.32.3-.48.45l-1.78,1.66-.44.41-1,.91-1.58,1.46-2.83,2.6h0l-1.23,1.12-.88.82-2.11,1.91-.1.09-.13.12-.12.1h0l0,0-.59.53-.83.75h0L214.38,434l-.11.1-.46.41-.46.4-.15.13-.36.34h0l-.89.79q-.49.45-1,.87h0l-.26.23,0,0h0s0,0,0,0l-.12.1-1.06.94c-.61.54-1.22,1.06-1.81,1.57-.18.17-.35.32-.52.46-.82.72-1.64,1.42-2.44,2.11l-.36.31h0l0,0-.2.16-.44.38-.83.71c-2.1,1.79-4.13,3.48-6.06,5.07h0l-1,.82h0l-.12.1h0a1,1,0,0,0-.19.17h0l-.2.16-.42.34c-.73.6-1.45,1.17-2.15,1.73l-.16.13h0l-.37.3h0l-.3.24-1,.8-.52.41-.71.55-.38.29h0a2.92,2.92,0,0,0-.29.23h0l0,0-.33.24c-.11.09-.22.17-.34.28h0l-.23.16-.07.06-.64.48-.37.27-.25.19h0q-.3.24-.6.45h0l-.16.13h0l-2,1.41-.18.12-1.07.74h0c.05.66.1,1.34.16,2v.06s0,0,0,0,0,.13,0,.2v.05c.34,4.42.77,10.43,1.27,17.36.43,6.17.91,13.07,1.41,20.21.72,10.63,1.48,21.81,2.17,31.95.08,1.24.16,2.45.24,3.65v0h0l.58.05.32,0h.19l.54.05,3.22.23L194,536c3.12.21,6.32.38,9.59.53l.42,0,1.06,0,1.2,0q3.6.14,7.3.22h.13l2.2,0,4,0q8.76,0,18-.27c1.11,0,2.23-.08,3.35-.13,3.35-.15,6.74-.34,10.15-.58,1.27-.09,2.54-.18,3.82-.29q4.52-.36,9.08-.82l.76-.09q3.88-.4,7.79-.9l4.1-.54.26,0c1.35-.19,2.7-.38,4.06-.59q4.53-.69,9.09-1.5c.89-.15,1.79-.32,2.68-.49l2.67-.51c.89-.17,1.79-.35,2.68-.54l1.91-.39.23,0c.7-.14,1.39-.29,2.09-.45q3-.66,6-1.38c1.06-.25,2.11-.5,3.16-.77,5.95-9.91,7.6-11,4.05-18-.17-.32-.32-.65-.46-1,0-.11-.1-.22-.14-.33l-.06-.16c-.11-.26-.21-.52-.31-.79a0,0,0,0,0,0,0c-.11-.33-.22-.66-.32-1a18.64,18.64,0,0,1-.57-2.45l-.09-.54c0-.11,0-.23,0-.35s0-.28-.05-.42q-.06-.45-.09-.93a6,6,0,0,1-.05-.61c0-.34,0-.69,0-1.05a0,0,0,0,0,0,0,.61.61,0,0,1,0-.14h0v-.42c0-.13,0-.26,0-.39a0,0,0,0,1,0,0,0,0,0,0,1,0,0,5.32,5.32,0,0,1,0-.69,1.62,1.62,0,0,1,0-.22.32.32,0,0,1,0-.14v-.06c0-.34,0-.68.07-1a1.41,1.41,0,0,1,0-.2v-.06a.06.06,0,0,1,0,0c0-.43.08-.86.14-1.3a.69.69,0,0,1,0-.13l0-.24c.05-.4.11-.81.19-1.22,0,0,0-.09,0-.13s.06-.38.1-.57.06-.3.1-.46.09-.48.15-.72.16-.7.25-1.06.12-.5.19-.75.05-.22.08-.33.11-.39.17-.59.14-.51.22-.77c0-.05,0-.11.05-.17.09-.31.19-.63.3-.95h0c0-.08.05-.17.08-.26s.15-.47.23-.71.17-.47.26-.71c.34-.95.72-1.92,1.13-2.92l.15-.37h0c.05-.11.1-.22.14-.33s.19-.47.3-.71l.09-.2c.06-.14.13-.28.2-.43l.13-.3h0c.09-.21.19-.42.29-.64h0a3.52,3.52,0,0,1,.16-.35c.19-.41.4-.84.61-1.26.42-.84.88-1.7,1.39-2.61s1-1.73,1.52-2.65l.56-1c.12-.2.25-.4.37-.61s.36-.6.53-.9.25-.42.38-.63a2.54,2.54,0,0,0,.16-.28c.18-.31.36-.62.55-.93l.54-.9c.44-.75.89-1.5,1.33-2.28.2-.34.39-.68.58-1,.11-.18.22-.37.32-.56s.33-.57.48-.86l.27-.5.29-.52c.3-.55.6-1.1.9-1.67l.14-.27c.27-.51.54-1,.8-1.54.16-.3.31-.6.46-.9s.31-.61.45-.92.32-.65.47-1,.31-.65.46-1,.45-1,.67-1.48.44-1,.66-1.51c.13-.3.26-.62.39-.93s.26-.63.38-.95l.48-1.24a1.22,1.22,0,0,1,.07-.17c.17-.44.34-.88.49-1.33s.32-.91.47-1.37l.11-.3q.18-.5.33-1c.15-.45.29-.91.43-1.37q.33-1.08.63-2.19c.14-.53.28-1.07.41-1.61.08-.29.15-.58.21-.88s.13-.51.18-.76.12-.51.17-.77l.18-.85a.3.3,0,0,0,0-.1l.15-.81c0-.11.05-.21.07-.32q.19-1,.36-2.13c.21-1.35.39-2.74.53-4.15,0-.08,0-.15,0-.23l0-.44c.05-.53.09-1.07.12-1.61a.88.88,0,0,0,0-.17c0-.06,0-.11,0-.17,0-.36,0-.72.06-1.09s0-.72,0-1.09,0-1,0-1.53c0-1.06,0-2.12,0-3.21a.86.86,0,0,0,0-.16q0-.75-.06-1.5c0-.37,0-.74-.07-1.12v0a3.74,3.74,0,0,1-.14-1.75c-.09-1-.21-2.07-.35-3.13s-.34-2.45-.56-3.7c-.07-.41-.15-.83-.23-1.25a.68.68,0,0,0,0-.19h0c-.05-.28-.11-.57-.17-.85q-.17-.84-.36-1.68l0-.15h0l-.27-1.17c-.11-.45-.22-.89-.34-1.34h0c0-.4-1-8.77.5-13.48.09-.54,3.46-21.05,13.33-34.87a17.85,17.85,0,0,1,5.93-6.62c.22-.13.45-.25.68-.36A14.41,14.41,0,0,0,351.15,339.06Z" />
      <path class="GUNDAN_CAT_OUTFIT_CAT_OUTFIT_7_cls-10" d="M287,353a114.18,114.18,0,0,1-16.87,26.82,3.65,3.65,0,0,1-.27.3l-.22.24-.45.47v0l-.05.06-.56.59-.72.77-2.42,2.56-.49.51-.5.52-.48.5-1.79,1.87-.36.36-1.3,1.34-1.16,1.19-.45.45c-.21.22-.43.45-.66.67l-1.05,1.07L256,394.46c-1.83,1.85-3.71,3.73-5.62,5.62l-.38.38c-2.33,2.3-4.71,4.63-7.12,7l-1,1-.26.25q-3.65,3.51-7.34,7a.3.3,0,0,1-.08.08l-.07.06-1,1-.48.45-1.13,1.07-1.13,1.05c-.16.16-.32.3-.48.45l-1.78,1.66-.44.41-1,.91-1.58,1.46-2.83,2.6-4.23,3.85-.1.09-.13.12-.12.1h0l0,0-.59.53-.83.75-2,1.77-.46.41-.46.4-1.41,1.26q-.49.45-1,.87l-.45.39-1.06.94c-.61.54-1.22,1.06-1.81,1.57-.18.17-.35.32-.52.46-.82.72-1.64,1.42-2.44,2.11l-.36.31,0,0-.2.16-.44.38-.83.71c-2.1,1.79-4.13,3.48-6.06,5.07l-.88.73-.26.2h0l-.2.16-.2.16-.42.34c-.73.6-1.45,1.17-2.15,1.73l-.17.14-.38.29-.3.24-1,.8-.52.41-.71.55-.36.28-.18.13-.05,0-.07.06,0,0-.08.07-.27.2-.35.27-.23.16-.07.06-.64.48-.07.06-1,.72-.06.05-.13.08h0l-.17.12-2,1.41-.18.12-1.08.74c.05.66.1,1.34.16,2,0,0,0,.05,0,.08s0,.13,0,.2l.06.78c0,.43.07.86.11,1.3.07.94.15,1.91.23,2.9,1.64,20.3,4.45,53.78,5.59,68.34l-.32,0-.58-.05c-3-.24-5.87-.51-8.68-.79l-1.13-.12-.21,0-7-75.47v0a.45.45,0,0,1,0-.08l0-.15c0-.16.1-.43.22-.86,0-.12.06-.27.1-.43s.16-.62.26-1c0-.17.09-.36.14-.55.41-1.61,1.76-3.08,6.6-7l.92-.73,1-.79.53-.41,1.12-.88,1.22-.95,1.3-1,1.4-1.08c.48-.38,1-.77,1.51-1.17l1.59-1.23,3.06-2.37,1.66-1.29,1.75-1.35c2.38-1.85,5-3.89,7.91-6.16l1.26-1,1.28-1a.47.47,0,0,0,.12-.09c.39-.31.79-.63,1.18-1l2.43-2c1.37-1.14,2.74-2.31,4.13-3.51l2-1.78c2.88-2.53,5.8-5.17,8.73-7.9q1.77-1.63,3.56-3.33c.76-.71,1.52-1.43,2.27-2.16h0l2.27-2.18,2.27-2.2L237,399.3l.73-.71.89-.88h0l1-1c.88-.87,1.76-1.74,2.63-2.62l1.14-1.14c.25-.25.51-.5.75-.75l.73-.74,1.59-1.61c.53-.54,1-1.08,1.58-1.61l1-1,1-1v0c12.11-12.4,23.43-24.59,32.47-34.21C284,352.33,285.47,352.67,287,353Z" />
      <path class="GUNDAN_CAT_OUTFIT_CAT_OUTFIT_7_cls-10" d="M253.11,382.5s17.2-18.18,29-49.55c6.05-15.63,2.52-25.06,3.29-28.38,7.49-2.78,10.56,6.64,10.51,9.72s-1.66,28-13.63,48-28,29.16-28,29.16Z" />
      <path class="GUNDAN_CAT_OUTFIT_CAT_OUTFIT_7_cls-10" d="M250,386.24c-1.69,1.73-3.4,3.46-5.11,5.2-.15-.11-.33-.25-.52-.41s-.2-.16-.31-.25c-.51-.39-1.15-.89-1.89-1.48l-.81-.64c-2.23-1.76-5.22-4.16-8.67-6.94l-1.76-1.41h0c-1.79-1.46-3.68-3-5.63-4.6l-2-1.62-1-.82c-1.88-1.56-3.79-3.14-5.71-4.76-8.05-6.77-16.11-13.82-21.65-19.33a60.83,60.83,0,0,1-5.77-6.4c-9.69-17.11,1.08-33.32-3.65-38.36-3.06-3.26-3.64-4.05-12.3-5.35a30.39,30.39,0,0,1-7.8-2.23c-4.69-3.24-10.26-7.45-14.65-11.08h0l-.05,0v0h0c-1.84-4.29-.69-6.77.65-8.12a3,3,0,0,0,2.14-1.38h0a181.3,181.3,0,0,0,17.18,15.48c1.72,1.34,13.8,2.68,15.9,4,13.91,8.45-.35,30.5,8.52,42.64,4,5.39,15.55,15.72,27.19,25.52,1.9,1.6,3.82,3.2,5.7,4.75C237.78,376.61,246.69,383.65,250,386.24Z" />
      <path class="GUNDAN_CAT_OUTFIT_CAT_OUTFIT_7_cls-9" d="M244.87,391.44l-6.27,6.27h0c-10.56,10.39-21.4,20.65-32.9,29.92h0c-9.06,7.21-17.67,13.69-26.59,20.71-6.2,4.83-7.54,6.17-8.31,10.81,1.39,14.53,5.75,60.25,7.2,75.49-14.09-1.45-34.61-4.56-46.07-8.42a13.47,13.47,0,0,1-3.43-1.59c-8.26-8.81-6.28-11.45-4.41-16.63,1.83-32-43.09-65.36-25.27-107.38l.37-.17c-.5-3.62-.59-8.41-1.43-11.93-.22-.95.77-5.52.52-6.44A85.75,85.75,0,0,0,89.06,360h0c-4.08-6.68-9.35-13.28-15.88-17.57.46-.83,2.28-2,5-3.47-.16,5.41,7.07,12.17,9.84,12.94-2.32.88,38.45-11.94,52.11-18.38,1.07-4.05,1.78-11.67-1.25-14.75h0l-.22-.18h0c-.38-.27-.81-.55-1.29-.85h0c-1.1-.7-2.5-1.37-3.79-2l.75-.35,9.94-4.8,6.31-24s.07-.36.16-.83l.05.06h0c23.65,24.37,41,3.27,34.14,35.31-.33,16,5.1,23.7,10,28.11,13.69,13.36,34.29,29.89,49.93,42.27Z" />
      <path class="GUNDAN_CAT_OUTFIT_CAT_OUTFIT_7_cls-10" d="M140.15,320.13a.1.1,0,0,1,0,0c-.47-1.23-3.52-2.95-6.58-4.41-3.31-1.58-6.63-2.85-6.63-2.85-14.5,3.58-44.09,18.05-48.73,21.18-1.69,1.14-1.28,3,0,4.9h0c1,9,9.82,12.92,9.82,12.92a371,371,0,0,0,52.12-18.38c1.49-4.06.67-9.88.22-12.27C140.26,320.63,140.17,320.25,140.15,320.13Z" />
      <path class="GUNDAN_CAT_OUTFIT_CAT_OUTFIT_7_cls-11" d="M78.19,338.91c-2.73,1.42-4.55,2.63-5,3.46" />
      <path class="GUNDAN_CAT_OUTFIT_CAT_OUTFIT_7_cls-11" d="M250,386.24c-3.29-2.6-12.2-9.63-22-17.73l-5.7-4.75c-11.63-9.8-23.23-20.13-27.19-25.53-8.87-12.13,6.45-36.25-8.52-42.63-5.87-2.5-15.63-3.78-17.35-5.12a137.94,137.94,0,0,1-15.73-14.32h0a6,6,0,0,0-2.14,1.38c-1.34,1.35-2.49,3.83-.65,8.12h0v0c0,.26-.07.54-.12.84-.93,6.34-5.45,21.37-5.86,23.65l-.05.26-10.37,4.87-.75.36h0" />
      <path class="GUNDAN_CAT_OUTFIT_CAT_OUTFIT_7_cls-11" d="M244.87,391.44c-.15-.11-.33-.25-.52-.41s-.2-.16-.31-.25c-.51-.39-1.15-.89-1.89-1.48l-.81-.64c-2.23-1.76-5.22-4.16-8.67-6.94l-1.76-1.41h0c-1.79-1.46-3.68-3-5.63-4.6-.65-.53-1.3-1.06-2-1.62l-1-.82c-1.88-1.56-3.79-3.14-5.71-4.76-8.05-6.77-16.11-13.82-21.65-19.33a60.83,60.83,0,0,1-5.77-6.4c-9.69-17.11,1.08-33.32-3.65-38.36-3.06-3.26-3.64-4.05-12.3-5.35a30.39,30.39,0,0,1-7.8-2.23,19.42,19.42,0,0,1-5.16-3.18l-1.17-.81c-.88-.6-1.72-1.2-2.5-1.8-.18-.12-.35-.25-.51-.38a37.58,37.58,0,0,1-4.2-3.62,7.24,7.24,0,0,1-.6-.67c-.19-.21-.36-.42-.51-.62h0l-.05-.06h0" />
      <path class="GUNDAN_CAT_OUTFIT_CAT_OUTFIT_7_cls-11" d="M100.39,410.54c-.33-2.9-.65-5.71-1-8.43l-.21-1.65c0-.24-.07-.47-.11-.71h0l-.21-1.43c-.22-1.42.1-4-.16-5.36-.14-.73-.29-1.45-.44-2.15s-.33-1.53-.51-2.27c-.23-.95.76-5.52.51-6.44s-.5-1.81-.76-2.69c-.52-1.75-1.08-3.43-1.66-5-.72-2-1.49-3.91-2.28-5.71-.32-.72-.65-1.42-1-2.1s-.58-1.18-.87-1.76-.58-1.13-.88-1.68-.59-1.08-.89-1.61l-.9-1.53h0c-.3-.5-.6-1-.9-1.45a2.39,2.39,0,0,1-.13-.21c-.26-.4-.52-.8-.78-1.18L86.48,356l-.13-.18c-.3-.43-.6-.84-.9-1.25s-.68-.91-1-1.35-.67-.85-1-1.25l-.5-.6-1-1.12c-.32-.37-.63-.71-.94-1.05l-.46-.49-.46-.47-.88-.88-.42-.42c-.56-.53-1.09-1-1.58-1.45l-.89-.76-.53-.43-.26-.21-.66-.51-.16-.12-.25-.18-.07,0-.1-.07a12.35,12.35,0,0,0-1.13-.76" />
      <path class="GUNDAN_CAT_OUTFIT_CAT_OUTFIT_7_cls-11" d="M178,534.65l-7.2-75.49.07-.26c0-.16.1-.43.22-.86,0-.12.06-.27.1-.43s.16-.62.26-1a2.68,2.68,0,0,0,.07-.27c0-.09,0-.18.07-.28.41-1.61,1.76-3.08,6.6-7l.92-.73,1-.79.53-.41,1.12-.88,1.22-.95,1.3-1,1.4-1.08c.48-.38,1-.77,1.51-1.17l1.59-1.23,3.06-2.37,1.66-1.29,1.75-1.35c2.38-1.85,5-3.89,7.91-6.16l1.26-1c.43-.33.85-.67,1.28-1l.12-.1c.39-.31.79-.63,1.18-1l2.43-2c1.37-1.14,2.74-2.31,4.13-3.51l2-1.78c2.88-2.53,5.8-5.17,8.73-7.9q1.77-1.63,3.56-3.33c1.52-1.43,3-2.88,4.55-4.34l2.27-2.2L237,399.3l2.64-2.61c.88-.87,1.76-1.74,2.63-2.62l1.13-1.13h0l1.48-1.49,3.17-3.22,1-1,1-1h0v0" />
      <path class="GUNDAN_CAT_OUTFIT_CAT_OUTFIT_7_cls-11" d="M250,386.24l0,0q1.59-1.87,3.11-3.72l0-.05c3.55-4.32,6.78-8.46,9.68-12.47,0,0,0,0,0,0,9.65-13.31,15.8-25.13,19.2-37a.14.14,0,0,0,0-.06,88.15,88.15,0,0,0,3.34-24.07c0-1.41,0-2.83-.06-4.27a7.31,7.31,0,0,1,1.73-.4s7.58-.56,9.12,9.18c-.34,5.95-1.42,14.95-1.42,14.95A106.78,106.78,0,0,1,287,353a114.18,114.18,0,0,1-16.87,26.82l-.27.3-.22.24-.4.43,0,0,0,0v0l-.05.06-.56.59-.72.77-2.42,2.56-.49.51-.5.52-.48.5-1.79,1.87-.36.36-1.3,1.34-1.16,1.19-.45.45c-.21.22-.43.45-.66.67l-1.05,1.07L256,394.46c-1.83,1.85-3.71,3.73-5.62,5.62l-.38.38c-2.33,2.3-4.71,4.63-7.12,7l-1,1-.26.25q-3.65,3.51-7.34,7a.3.3,0,0,1-.08.08l-.07.06h0l-1,1-.48.45-1.13,1.07-1.13,1.05c-.16.16-.32.3-.48.45l-1.78,1.66-.44.41-1,.91-1.58,1.46-2.83,2.6-4.23,3.85-.1.09-.13.12-.12.1h0l0,0-.59.53-.83.75-2,1.77-.46.41-.46.4-.51.47-.9.79q-.49.45-1,.87l-.3.27-1.21,1.06c-.61.54-1.22,1.06-1.81,1.57-.18.17-.35.32-.52.46-.82.72-1.64,1.42-2.44,2.11l-.36.31,0,0-.2.16-.44.38-.83.71c-2.1,1.79-4.13,3.48-6.06,5.07l-.88.73-.26.21-.2.16-.2.16-.42.34c-.73.6-1.45,1.17-2.15,1.73l-.17.13h0l-.38.29-.3.24-1,.8-.52.41-.71.55-.36.28h0l-.15.12-.05,0-.11.08-.08.07-.27.2-.35.27-.23.16-.07.06-.64.48-.07.06-.56.4-.42.32-.06.05a.51.51,0,0,0-.13.09l-.17.12-2,1.41-.18.12-1.08.74c.05.66.1,1.34.16,2v.06a1.64,1.64,0,0,1,0,.22v.05l.06.73c0,.43.07.86.11,1.3.07.94.15,1.91.23,2.9,1.81,23.2,4.7,60.51,5.27,68.32" />
      <path class="GUNDAN_CAT_OUTFIT_CAT_OUTFIT_7_cls-11" d="M285.34,397.49a6.46,6.46,0,0,0,1.89-4.55,7.27,7.27,0,1,0-7.36,6.76" />
      <path class="GUNDAN_CAT_OUTFIT_CAT_OUTFIT_7_cls-11" d="M312.7,411a7.09,7.09,0,0,1,7.18-5.88,6.77,6.77,0,1,1,0,13.51,7.44,7.44,0,0,1-5.45-2.32" />
      <path class="GUNDAN_CAT_OUTFIT_CAT_OUTFIT_7_cls-11" d="M314.43,416.34a35.33,35.33,0,0,1-7.12.75,28.81,28.81,0,0,1-12-2.54c-7.86-3.54-12.74-10.05-15.44-14.85a36,36,0,0,1-2.72-5.95,2.72,2.72,0,0,1,2-3.44,3,3,0,0,1,3.69,1.83,32.16,32.16,0,0,0,2.53,5.35c2.33,4,6.36,9.32,12.59,12.11A24.4,24.4,0,0,0,312.7,411a38.18,38.18,0,0,0,6.1-1.7,3,3,0,0,1,3.84,1.57,2.71,2.71,0,0,1-1.68,3.58A47.83,47.83,0,0,1,314.43,416.34Z" />
      <path class="GUNDAN_CAT_OUTFIT_CAT_OUTFIT_7_cls-11" d="M273.11,421.18h0a6.51,6.51,0,0,0,1.88-4.53,7.27,7.27,0,1,0-7.36,6.76" />
      <path class="GUNDAN_CAT_OUTFIT_CAT_OUTFIT_7_cls-11" d="M300.47,434.72a7.08,7.08,0,0,1,7.18-5.87,6.77,6.77,0,1,1,0,13.5A7.4,7.4,0,0,1,302.2,440" />
      <path class="GUNDAN_CAT_OUTFIT_CAT_OUTFIT_7_cls-11" d="M302.2,440a35.48,35.48,0,0,1-7.12.75,28.8,28.8,0,0,1-12-2.53c-7.86-3.55-12.74-10.07-15.43-14.86a36.71,36.71,0,0,1-2.74-5.95,2.75,2.75,0,0,1,2-3.45,3,3,0,0,1,3.7,1.83,31.2,31.2,0,0,0,2.53,5.35c2.32,4,6.36,9.32,12.57,12.12a24.35,24.35,0,0,0,14.78,1.43,39.29,39.29,0,0,0,6.11-1.69,3,3,0,0,1,3.83,1.56,2.7,2.7,0,0,1-1.68,3.58A46.44,46.44,0,0,1,302.2,440Z" />
      <path class="GUNDAN_CAT_OUTFIT_CAT_OUTFIT_7_cls-11" d="M140.15,320.13a3.12,3.12,0,0,1,.21,1.06c.14,2.4-1.7,5.15-1.7,5.15s-50.49,19.8-52.27,19.52c-1.13-.17-6-3.63-8.19-6.94" />
      <path class="GUNDAN_CAT_OUTFIT_CAT_OUTFIT_7_cls-11" d="M78.2,338.91c-1.28-1.9-1.69-3.76,0-4.9,4.64-3.13,34.23-17.6,48.73-21.18,0,0,3.32,1.27,6.63,2.85,3.06,1.46,6.11,3.18,6.58,4.41" />
      <path class="GUNDAN_CAT_OUTFIT_CAT_OUTFIT_7_cls-11" d="M140.14,320.09a.1.1,0,0,0,0,0c0,.12.11.5.21,1.06.45,2.39,1.27,8.21-.22,12.27A371,371,0,0,1,88,351.84s-8.85-3.93-9.82-12.92h0" />
      <path class="GUNDAN_CAT_OUTFIT_CAT_OUTFIT_7_cls-10" d="M361.15,332.28h0c-.18.27-.39.54-.6.82l.46.19c-.08.44-.18.87-.29,1.28a15.4,15.4,0,0,1-3.42,6.11l0,0,0,0a15.17,15.17,0,0,1-1.33,1.33,19.19,19.19,0,0,1-4.56,3.12l0,0-.2,0H351l-.61-.11-.47-.09-.46-.09c-.76-.15-1.73-.35-2.91-.61l-1-.21-.74-.17-1.9-.43-.91-.21-1.29-.31h-.05l-1.39-.34-.35-.09c-.42-.1-.84-.2-1.27-.32l-.33-.08-.65-.17-.24-.06-2.42-.64-1.34-.36-.4-.11-.61-.17-3.05-.86L326.2,339l-2.11-.64c-3.5-1.08-7.2-2.3-11-3.66q-2.42-.87-4.91-1.82l-2.39-.93-1.68-.67c-1-.42-2.1-.85-3.15-1.3l-.3-.13c-1-.42-2-.84-3-1.29l0-.08a16.74,16.74,0,0,1-.82-5.35c0-1,0-1.89.09-2.76a.13.13,0,0,1,0-.06c.07-1,.19-1.93.31-2.71,0-.06,0-.12,0-.17.07-.44.14-.83.2-1.15s.09-.46.13-.63.07-.35.09-.42v0a6.94,6.94,0,0,1,2.77-2.41h.06l.33-.19.25-.15h0c1.34-.77,2.91-1.53,4.39-2.21,2.86-1.31,5.41-2.28,5.41-2.28,14.5,3.59,45.66,16.36,50.3,19.48C362.84,328.52,362.43,330.37,361.15,332.28Z" />
      <path class="GUNDAN_CAT_OUTFIT_CAT_OUTFIT_7_cls-12" d="M360.72,334.58a12.86,12.86,0,0,1-3.42,6.11l0,0,0,0c-.47.46-.95.89-1.43,1.29a32.92,32.92,0,0,1-4.46,3.16l0,0-.2,0-.1,0h0c-1.08-.22-5.09-1.06-13-2.91l-.33-.08-.33-.08c-1.41-.33-3-.75-4.65-1.23l-.4-.11-.61-.17-.16-.05c-5.43-1.58-12-3.76-18.6-6.16-4.14-1.51-8.32-3.09-12.29-4.67l-3-1.23-.3-.12c-.64-.86-.74-2.92-.68-4.77.05-1.41.19-2.7.25-3.22a.13.13,0,0,1,0-.06c0-.12,0-.19,0-.19s.15-1.19.29-2.52c0-.06,0-.12,0-.17.07-.65.13-1.33.17-1.9,0-.1,0-.2,0-.3,0-.83,1.48-1.73,3-2.45h.06l.34-.15a32.12,32.12,0,0,1,3.11-1.21s7.5,2.42,8.28,2.69,11.64,4.87,18.55,7.72S359.81,334,359.81,334,360.72,334.47,360.72,334.58Z" />
      <path class="GUNDAN_CAT_OUTFIT_CAT_OUTFIT_7_cls-11" d="M302,322.46l-2.9-1s-1.84-2.74-1.7-5.15a2.9,2.9,0,0,1,.22-1.05" />
      <path class="GUNDAN_CAT_OUTFIT_CAT_OUTFIT_7_cls-11" d="M297.63,315.16a6.94,6.94,0,0,1,2.77-2.41h.06l.33-.19.25-.15h0c1.34-.77,2.91-1.53,4.39-2.21,2.86-1.31,5.41-2.28,5.41-2.28,14.5,3.59,45.66,16.36,50.3,19.48,1.69,1.15,1.28,3,0,4.91" />
      <path class="GUNDAN_CAT_OUTFIT_CAT_OUTFIT_7_cls-11" d="M300.93,330c1.05.45,2.11.88,3.15,1.3l1.68.67,2.39.93q2.49.94,4.91,1.82c3.83,1.36,7.53,2.58,11,3.66l2.11.64,2.45.73,2.89.81.16.05.61.17.4.11,1.34.36,2.42.64.24.06,1.31.33.94.24.35.09,1.39.34h.05l1.29.31.91.21,1.9.43.74.17,1,.21c1.18.26,2.15.46,2.91.61l.46.09.47.09.61.11h.11l.2,0,0,0a19.19,19.19,0,0,0,4.56-3.12,15.17,15.17,0,0,0,1.33-1.33l0,0,0,0a15.4,15.4,0,0,0,3.42-6.11c.11-.41.21-.84.29-1.28s.11-.66.14-1c-.18.27-.39.54-.6.82s-.48.58-.74.87c-2.42,2.71-5.92,5.11-6.85,5.25s-12-3.55-24-7.6c-6.95-2.35-14.16-4.82-19.75-6.75L302,322.41" />
      <path class="GUNDAN_CAT_OUTFIT_CAT_OUTFIT_7_cls-11" d="M300.94,330c-1.1-.46-2.2-.93-3.3-1.42-1.49-4.07-.67-9.88-.22-12.28.11-.56.19-.93.22-1.05v0" />
      <path class="GUNDAN_CAT_OUTFIT_CAT_OUTFIT_7_cls-11" d="M338,386.19c.09-.54,3.46-21.05,13.33-34.87a37,37,0,0,1,5.93-6.62c.22-.13.45-.25.68-.36a13.92,13.92,0,0,0-2-2.28l-.07-.06" />
      <g class="GUNDAN_CAT_OUTFIT_CAT_OUTFIT_7_cls-13">
        <path d="M156.14,291.92l-.85,21.74S171,323.3,181.64,332.4c-9.3-2.89-33.46-17.14-33.46-17.14l-7.62,7.12s-.6-3-1.9-3.84-5.1-2.86-5.1-2.86l11.13-5.22,5.87-24Z" />
        <path d="M166.58,533.28l-1.08-.14-2.32-.33q-3.44-.49-6.59-1l-2.07-.35a176.34,176.34,0,0,1-20.88-4.65l-1.21-.38-.51-.18-.73-.26-.05,0-.65-.25,0,0-.31-.13a6.5,6.5,0,0,1-1.65-.91c-8.26-8.81-6.28-11.45-4.41-16.63s-2.53-21.25-13.21-39.19c-2.39-3.95-4.46-7.67-6.23-11.19a2.6,2.6,0,0,0-.91-1.85c-12.7-26.17-9.11-41.09-4.92-55.15l.37-.17c0-.24-.06-.49-.1-.73h0c-.07-.48-.14-.94-.22-1.41-.22-1.42.1-4-.16-5.36-.14-.73-.28-1.45-.44-2.15s-.33-1.53-.51-2.27c-.22-.95.77-5.52.52-6.44s-.5-1.81-.76-2.69c-.13-.44-.26-.87-.4-1.3-.4-1.29-.82-2.53-1.26-3.75-.72-2-1.49-3.91-2.28-5.71-.32-.72-.65-1.42-1-2.1s-.58-1.18-.87-1.76-.58-1.13-.88-1.68-.59-1.08-.89-1.61l-.9-1.53h0c-.3-.5-.6-1-.9-1.45a2.39,2.39,0,0,1-.13-.21c-.26-.4-.52-.8-.78-1.18L86.48,356l-.13-.18c-.3-.43-.6-.84-.9-1.25s-.67-.91-1-1.35-.67-.85-1-1.25l-.5-.6-1-1.12c-.32-.37-.63-.71-.94-1.05l-.46-.49-.46-.47-.88-.88-.42-.42c-.56-.53-1.09-1-1.58-1.45-.31-.28-.61-.53-.89-.76a2.75,2.75,0,0,1-.26-.22l-.27-.21-.26-.21-.66-.51-.16-.12-.25-.18-.07,0-.1-.07a12.35,12.35,0,0,0-1.13-.76c.46-.83,2.28-2,5-3.47h0a14.94,14.94,0,0,0,3.7,8.23A19.74,19.74,0,0,0,88,351.84h0s17-5,39-13.08c-7.73,7.79-12.46,18.8-12.83,28.62,22.79,27.42-.65,85.24,57.4,88.65-.05.19-.1.38-.14.55-.1.4-.18.73-.26,1s-.08.31-.1.43c-.12.43-.18.7-.22.86l0,.15a.45.45,0,0,0,0,.08v0l2.12,22.19c-2.88.31-5.82.5-8.83.55C152.57,482.55,144.9,511.94,166.58,533.28Z" />
        <path d="M158,292.1v26.76A52.63,52.63,0,0,0,141,327c0-.16,0-.31,0-.46a37.88,37.88,0,0,0-.4-4.12h0a.39.39,0,0,1,0-.12c-.05-.37-.11-.7-.17-1,0,0,0,0,0-.06v0a2.88,2.88,0,0,0-.2-1.05v0a1.86,1.86,0,0,0-.38-.58,6.38,6.38,0,0,0-.87-.8h0l-.22-.18h0c-.38-.27-.81-.55-1.29-.85h0a37.32,37.32,0,0,0-3.53-1.87h0l-.16-.09-.07,0h0l.75-.35,9.94-4.8,6.31-24s.05-.3.16-.81v0l.05.06h0c.15.2.32.41.51.62s.38.45.6.67a36.57,36.57,0,0,0,4.2,3.62c.16.13.33.26.51.38C157.05,291.39,157.53,291.75,158,292.1Z" />
        <path d="M335,447.34a102.85,102.85,0,0,1-5.36,11.71c-3.16,6-6.41,11-8.78,15.28-.51.91-1,1.77-1.39,2.61s-.74,1.51-1.07,2.25c-7.8,1.88-17.54,1.94-29.52-.42q-4.08-.79-8.53-2c-2.29-.61-4.66-1.31-7.1-2.08A86.48,86.48,0,0,0,248.93,469a82.17,82.17,0,0,0-10.72-.2c-18.89.8-35.73,7.37-54.23,10.88-.5-6.93-.93-12.94-1.27-17.36v-.05c0-.07,0-.13,0-.2s0,0,0,0V462c-.06-.7-.11-1.38-.16-2l1.08-.74.18-.12,2-1.41a1.09,1.09,0,0,1,.17-.13c.2-.14.41-.29.61-.45l.63-.46.64-.48.07-.06.23-.16.35-.28.33-.24,0,0,.31-.24.39-.29.71-.55.52-.41,1-.8.3-.24.38-.3.17-.13c.7-.56,1.42-1.13,2.15-1.73l.42-.34.2-.16.2-.17.13-.1c17.26-5.58,33.6-12.11,52.58-10.12a68.3,68.3,0,0,1,14,3,82.69,82.69,0,0,1,11,4.42,83.52,83.52,0,0,0,17.93,6.59,44.55,44.55,0,0,0,9.92,1.21c20.37,0,31-17,38.38-45,.14,1.06.26,2.1.35,3.13a3.74,3.74,0,0,0,.14,1.75v0A75.1,75.1,0,0,1,335,447.34Z" />
        <path d="M135.38,317.16s4.87,3.57-.56,5.41-28.7,11.91-35.31,14.25-17,5.89-17,5.89l-1.81-.86-1.59-.18s2.51,8.42,8.87,10.17c15.42-3.24,42.73-13.66,51.28-18.49,2-3,1.69-9.33,1.69-9.33s-.84-5-2.06-5.69A15.8,15.8,0,0,0,135.38,317.16Z" />
        <path d="M267.75,382.35s-34.82,41.53-49.81,55.22a321.14,321.14,0,0,1-29.38,23.69L194.31,536l-9.58-.73s-10-69.9-3.57-79.82,78.15-69.65,105-99.61c2.2,3.13.74,3.65.74,3.65l-2.95,5Z" />
      </g>
      <path class="GUNDAN_CAT_OUTFIT_CAT_OUTFIT_7_cls-11" d="M99.1,399.68s0,0,0,0h0l-.27.9c-4.19,14.06-7.78,29,4.92,55.15.29.61.59,1.23.91,1.85,1.77,3.52,3.84,7.24,6.23,11.19,10.68,17.94,15.09,34,13.21,39.19s-3.85,7.82,4.41,16.63a6.5,6.5,0,0,0,1.65.91l.31.13,0,0,.65.25,0,0,.73.26.51.18,1.21.38a176.34,176.34,0,0,0,20.88,4.65l2.07.35q3.15.53,6.59,1l2.32.33,2.39.32,2.44.31,1,.12c1.34.17,2.7.32,4.09.48l2.4.26.21,0,1.13.12c2.81.28,5.69.55,8.67.79h0l.58.05.32,0h.19l.54.05,3.22.23L194,536c3.12.21,6.32.38,9.59.53l.42,0,1.06,0,1.2,0q3.6.14,7.3.22h.13l2.2,0,4,0q8.76,0,18-.27c1.11,0,2.23-.08,3.35-.13,3.35-.15,6.74-.34,10.15-.58,1.27-.09,2.54-.18,3.82-.29q4.52-.36,9.08-.82l.76-.09q3.88-.4,7.79-.9l4.1-.54.26,0c1.35-.19,2.7-.38,4.06-.59q4.53-.69,9.09-1.5c.89-.15,1.79-.32,2.68-.49l2.67-.51c.89-.17,1.79-.35,2.68-.54l1.91-.39.23,0c.7-.14,1.39-.29,2.09-.45q3-.66,6-1.38c1.06-.25,2.11-.5,3.16-.77h0c5.95-9.91,7.6-11,4.05-18a14.36,14.36,0,0,1-.6-1.32,18,18,0,0,1-.7-2,18.64,18.64,0,0,1-.57-2.45l-.09-.54c0-.25-.07-.51-.1-.77s-.07-.61-.09-.93a6,6,0,0,1,0-.61c0-.34,0-.69,0-1.05a.47.47,0,0,1,0-.17.09.09,0,0,0,0-.05c0-.12,0-.25,0-.37s0-.26,0-.39a0,0,0,0,1,0,0,0,0,0,0,1,0,0c0-.35,0-.69,0-1v-.06c0-.34,0-.68.07-1,0-.07,0-.15,0-.23v-.07c0-.43.09-.86.15-1.3a.69.69,0,0,1,0-.13c.06-.48.13-1,.22-1.46s.13-.77.22-1.16.09-.48.15-.72.15-.7.24-1.06.12-.5.19-.75l.09-.33c.12-.45.25-.9.39-1.36,0-.05,0-.11,0-.17.09-.31.19-.63.3-.95l.09-.26c.15-.47.31-.94.49-1.42.34-.95.72-1.92,1.13-2.92l.15-.37c.05-.11.1-.22.14-.33s.21-.47.31-.71l.28-.63c0-.1.09-.2.14-.31l.3-.64c.25-.53.51-1.07.78-1.61.42-.84.88-1.7,1.39-2.61,1-1.78,2.13-3.7,3.35-5.76a2.54,2.54,0,0,0,.16-.28l1.09-1.83c.44-.75.89-1.5,1.33-2.28.2-.34.39-.68.58-1,.11-.18.22-.37.32-.56s.33-.57.48-.86.38-.68.56-1c.31-.55.61-1.11.91-1.67s.63-1.2.93-1.81c.16-.3.31-.6.46-.9s.31-.61.45-.92.32-.65.47-1c.62-1.29,1.22-2.61,1.79-4,.13-.3.26-.62.39-.93s.26-.63.38-.95.33-.82.49-1.24l.06-.17c.17-.44.34-.88.49-1.33s.4-1.11.58-1.67q.18-.5.33-1c.15-.45.29-.91.43-1.37q.33-1.08.63-2.19c.29-1.06.56-2.15.8-3.25.07-.25.12-.51.17-.77s.13-.56.18-.85a.3.3,0,0,0,0-.1c.08-.37.15-.75.22-1.13.13-.7.26-1.41.36-2.13.22-1.35.4-2.74.53-4.15,0-.08,0-.15,0-.23.07-.73.13-1.47.17-2.22,0-.06,0-.11,0-.17l.06-1.09a73.2,73.2,0,0,0-.09-8.61v0c0-.58-.09-1.16-.14-1.75-.2-2.22-.5-4.5-.92-6.83-.07-.41-.15-.83-.23-1.25a.68.68,0,0,0,0-.19c-.05-.28-.11-.57-.18-.86-.1-.55-.23-1.12-.36-1.68l0-.15c-.09-.39-.18-.78-.28-1.17s-.21-.89-.33-1.34h0c0-.4-1-8.77.5-13.48" />
    </g>
  </g>
</svg>