<svg xmlns="http://www.w3.org/2000/svg" viewBox="0 0 432 432">
  <defs>
    <style>.GUNDAN_CAT_OUTFIT_CAT_OUTFIT_15_cls-1{isolation:isolate;}.GUNDAN_CAT_OUTFIT_CAT_OUTFIT_15_cls-2{fill:#d89840;}.GUNDAN_CAT_OUTFIT_CAT_OUTFIT_15_cls-3{fill:#2e2226;}.GUNDAN_CAT_OUTFIT_CAT_OUTFIT_15_cls-4{opacity:0.22;mix-blend-mode:multiply;}.GUNDAN_CAT_OUTFIT_CAT_OUTFIT_15_cls-5{fill:#6e534a;}.GUNDAN_CAT_OUTFIT_CAT_OUTFIT_15_cls-6{fill:#2c1f1a;}.GUNDAN_CAT_OUTFIT_CAT_OUTFIT_15_cls-7{fill:#332d2a;}.GUNDAN_CAT_OUTFIT_CAT_OUTFIT_15_cls-8{fill:none;stroke:#000;stroke-linecap:round;stroke-linejoin:round;stroke-width:2px;}</style>
  </defs>
  <g class="GUNDAN_CAT_OUTFIT_CAT_OUTFIT_15_cls-1">
    <g id="Outfit">
      <path class="GUNDAN_CAT_OUTFIT_CAT_OUTFIT_15_cls-2" d="M272.27,421.56a2.13,2.13,0,0,1-.39,1.22l-1.05,1.5-9,12.79-2,2.89h0l-.85,1.21a2.15,2.15,0,0,1-3.52-2.47l.85-1.21,2-2.89L267.17,422l1.19-1.7a2.15,2.15,0,0,1,3.91,1.24Z" />
      <path class="GUNDAN_CAT_OUTFIT_CAT_OUTFIT_15_cls-3" d="M277.49,382.93c-13.65,25.87-15.58,33.64-11,38.43q.33.34.69.66l-6.29,9-2.54,3.62c-4-.95-9.63,2-13.49,7.52-3.38,4.83-4.48,10.25-3.15,13.86l-9.17,8.59h0c-3.76-1.76-9.83,0-14.74,4.59-4.63,4.33-6.81,9.88-5.75,13.75a5.51,5.51,0,0,0,.34,1l-10,8.74h0c-3.7-1.89-9.83-.35-14.9,4.06s-7.54,10.56-5.95,14.48l-9.64,7.94a7.48,7.48,0,0,0-2.6-.82c-3.53-.47-8.14,1-12.2,4.29H130.52s0-1.65,0-4.34c0-7.19.2-21.83.52-32.37a25.23,25.23,0,0,0-.79-6.18q-.18-.76-.42-1.53a.08.08,0,0,0,0,0c-.15-1-3-21.72,29.11-43.8q3.42-2.35,7.39-4.72c38.73-23.05,104.86-51,126.69-84.59C289,357.14,283.62,371.33,277.49,382.93Z" />
      <path class="GUNDAN_CAT_OUTFIT_CAT_OUTFIT_15_cls-4" d="M317.24,458.53c-9.84,17.94-9.85,21.32-9.85,21.33s-14.38,8.46-33.86-.34-37.68-7.49-58.64,2.18c-.95.44-1.91.84-2.86,1.21-20.14,7.84-41.05,1.43-41.05,1.43s-4.71,19.52-1.73,33.95c-3.53-.47-8.14,1-12.2,4.29H130.52s0-1.65,0-4.34c0-7.19.2-21.83.52-32.37a25.23,25.23,0,0,0-.79-6.18q-.18-.76-.42-1.53a.08.08,0,0,0,0,0c-.15-1-3-21.72,29.11-43.8a82.35,82.35,0,0,0,17,4.55c35.67,5.59,52.18-10.56,71.67-9.91a67.1,67.1,0,0,1,13.28,2c15.62,3.73,31.77,10.87,46.44,5.95,16.06-5.39,21.85-28.33,22.53-40C330.19,419.32,330.13,438.38,317.24,458.53Z" />
      <path class="GUNDAN_CAT_OUTFIT_CAT_OUTFIT_15_cls-3" d="M381.93,445c-8.54,17.26-25.43,29.75-41,38.16a174,174,0,0,1-34,13.93v22.82c0,1.72,0,2.72,0,2.72H174.14l10.09-8.32c3.73,1.71,9.69.14,14.63-4.18s7.44-10.27,6.07-14.21l10.33-9c3.78,1.52,9.65-.27,14.41-4.74.24-.22.47-.45.7-.69l.16-.16c.25-.25.48-.51.71-.77l.09-.1.12-.14c.18-.21.36-.43.52-.64a.83.83,0,0,0,.12-.16c.23-.28.43-.56.62-.84s.39-.55.57-.84l.06-.09c.2-.33.4-.66.57-1s.29-.54.42-.81l0-.08c.14-.3.27-.6.38-.89s.17-.43.24-.63a5,5,0,0,0,.16-.51,4.74,4.74,0,0,0,.15-.5c0-.17.09-.34.13-.51l0-.15.06-.28c0-.17,0-.33.08-.49v0a5.26,5.26,0,0,0,.07-.67c0-.23,0-.45,0-.68a7.57,7.57,0,0,0-.48-2.73l9-8.42c4.07,2.22,10.61-.76,14.95-7,3.86-5.5,4.75-11.76,2.47-15.25l3.46-4.94h0l5.49-7.84c9.51,3.79,25.65-3,41.12-26.73a242.39,242.39,0,0,0,27.93-59.47l5,1.7a32.5,32.5,0,0,1,18.82,18.27c5.34,13.11,8.26,22.46,9.14,52.41C372.58,410.46,370.85,424.41,381.93,445Z" />
      <path class="GUNDAN_CAT_OUTFIT_CAT_OUTFIT_15_cls-4" d="M341.15,483.11a174,174,0,0,1-34,13.93v5.78c-.06-.84-.13-1.69-.21-2.53-1.91-21.46,2.24-25.92,8.46-38.4C336.34,428.28,329.78,392,329.78,392s11,21.31,5.51,41.85S330.5,463.8,341.15,483.11Z" />
      <path class="GUNDAN_CAT_OUTFIT_CAT_OUTFIT_15_cls-4" d="M317.24,458.53c-9.84,17.94-9.85,21.32-9.85,21.33s-14.38,8.46-33.86-.34c-13-5.87-25.46-7.24-38.53-4.61a9.9,9.9,0,0,0,.47-7.2l9-8.42c4.07,2.22,10.61-.76,14.95-7,3.86-5.5,4.75-11.76,2.47-15.25l3.47-4.95c14.21,3.85,28.71,9.27,42,4.82,16.06-5.39,21.85-28.33,22.53-40C330.19,419.32,330.13,438.38,317.24,458.53Z" />
      <path d="M329.85,396.91c0-1.63-.05-3.29-.07-5A26.8,26.8,0,0,1,329.85,396.91Z" />
      <path class="GUNDAN_CAT_OUTFIT_CAT_OUTFIT_15_cls-2" d="M321.28,332.59a1.81,1.81,0,1,1-2.07-1.51A1.82,1.82,0,0,1,321.28,332.59Z" />
      <path class="GUNDAN_CAT_OUTFIT_CAT_OUTFIT_15_cls-2" d="M329.49,321a5.35,5.35,0,0,1-3.93,5.16c-2.5-1-4.57-2-6.31-2.91a5.3,5.3,0,0,1-.5-2.25,5.37,5.37,0,0,1,10.74,0Z" />
      <path class="GUNDAN_CAT_OUTFIT_CAT_OUTFIT_15_cls-2" d="M313.16,353.35a1.81,1.81,0,1,1-2.07-1.52A1.8,1.8,0,0,1,313.16,353.35Z" />
      <path class="GUNDAN_CAT_OUTFIT_CAT_OUTFIT_15_cls-2" d="M317.22,343a1.81,1.81,0,1,1-2.07-1.52A1.82,1.82,0,0,1,317.22,343Z" />
      <circle class="GUNDAN_CAT_OUTFIT_CAT_OUTFIT_15_cls-2" cx="299.07" cy="379.73" r="1.81" />
      <path class="GUNDAN_CAT_OUTFIT_CAT_OUTFIT_15_cls-2" d="M278.62,405.34a5.37,5.37,0,1,1-5.37,5.36A5.36,5.36,0,0,1,278.62,405.34Z" />
      <path class="GUNDAN_CAT_OUTFIT_CAT_OUTFIT_15_cls-2" d="M293.47,387.55a1.82,1.82,0,1,1-1.81,1.82A1.81,1.81,0,0,1,293.47,387.55Z" />
      <path class="GUNDAN_CAT_OUTFIT_CAT_OUTFIT_15_cls-2" d="M287.88,397.19a1.82,1.82,0,1,1-1.81,1.81A1.81,1.81,0,0,1,287.88,397.19Z" />
      <circle class="GUNDAN_CAT_OUTFIT_CAT_OUTFIT_15_cls-2" cx="305.48" cy="367.36" r="5.37" />
      <path class="GUNDAN_CAT_OUTFIT_CAT_OUTFIT_15_cls-5" d="M244.67,350.71c-8.58,6.17-18.1,12.12-27.95,17.85-25.78-6.63-46.54-23.39-60.24-37.5a162,162,0,0,1-18.42-22.42h0s11.92-14,15-28.29c0,0,2.13,7.61,9.66,18.19h0A106,106,0,0,0,176,313.74a125.9,125.9,0,0,0,11,9.33h0C200.51,333.27,219.13,343.33,244.67,350.71Z" />
      <path class="GUNDAN_CAT_OUTFIT_CAT_OUTFIT_15_cls-4" d="M176,313.74a55.31,55.31,0,0,1-19.52,17.32,162,162,0,0,1-18.42-22.42h0s11.92-14,15-28.29c0,0,2.13,7.61,9.66,18.19h0A106,106,0,0,0,176,313.74Z" />
      <path class="GUNDAN_CAT_OUTFIT_CAT_OUTFIT_15_cls-2" d="M250.63,314.24v10.45a7.93,7.93,0,1,1-15.86,0V314.24a8,8,0,0,1,.2-1.79,7.93,7.93,0,0,1,15.66,1.79ZM247,324.16v-9.39a4.27,4.27,0,0,0-8.54,0v9.39a4.27,4.27,0,0,0,8.54,0Z" />
      <path class="GUNDAN_CAT_OUTFIT_CAT_OUTFIT_15_cls-6" d="M162.76,298.54c.83.34,36.21,14.43,72.21,13.91a8,8,0,0,0-.2,1.79v10.45a7.91,7.91,0,0,0,1.51,4.66c-17.85.43-35.65-2.82-49.27-6.28h0A113,113,0,0,1,162.76,298.54Z" />
      <path class="GUNDAN_CAT_OUTFIT_CAT_OUTFIT_15_cls-7" d="M339.88,338.08A242.39,242.39,0,0,1,312,397.55c-15.47,23.69-31.61,30.52-41.12,26.73l1.05-1.5a2.13,2.13,0,0,0,.39-1.22,2.15,2.15,0,0,0-3.91-1.24l-1.19,1.7q-.36-.31-.69-.66c-4.57-4.79-2.64-12.56,11-38.43C283.62,371.33,289,357.14,293,345h0c5-14.92,8-26.7,8-26.7s.26-4.18,5.57-2.42c3.64,1.21,5.33,3.66,12.61,7.39,1.74.9,3.81,1.87,6.31,2.91,2.26.95,4.87,1.95,7.91,3,4.71,1.78,7.48,3.76,9.11,5.52,2.6,2.8,2.29,5,2.29,5Zm-20.12-3.42a1.81,1.81,0,1,0-2.06-1.52A1.82,1.82,0,0,0,319.76,334.66ZM315.71,345a1.82,1.82,0,1,0-2.07-1.52A1.82,1.82,0,0,0,315.71,345Zm-4.06,10.37a1.81,1.81,0,1,0-2.07-1.51A1.8,1.8,0,0,0,311.65,355.41Zm-.8,11.95a5.37,5.37,0,1,0-5.37,5.37A5.37,5.37,0,0,0,310.85,367.36Zm-10,12.37a1.81,1.81,0,1,0-1.81,1.81A1.81,1.81,0,0,0,300.88,379.73Zm-5.59,9.64a1.82,1.82,0,1,0-1.82,1.81A1.81,1.81,0,0,0,295.29,389.37Zm-5.6,9.63a1.81,1.81,0,1,0-1.81,1.82A1.81,1.81,0,0,0,289.69,399ZM284,410.7a5.37,5.37,0,1,0-5.36,5.37A5.36,5.36,0,0,0,284,410.7Z" />
      <path class="GUNDAN_CAT_OUTFIT_CAT_OUTFIT_15_cls-6" d="M247,314.77v9.39a4.27,4.27,0,0,1-8.54,0v-9.39a4.27,4.27,0,0,1,8.54,0Z" />
      <path class="GUNDAN_CAT_OUTFIT_CAT_OUTFIT_15_cls-6" d="M280.77,297.5c-1.25,8.3-3,18.86-3,18.86q-1,2-2.2,4h0a80,80,0,0,1-25.77,7.93,7.93,7.93,0,0,0,.85-3.57V314.24a8,8,0,0,0-.56-2.94C261.43,309.65,271.37,303.89,280.77,297.5Z" />
      <path class="GUNDAN_CAT_OUTFIT_CAT_OUTFIT_15_cls-3" d="M216.72,368.56C192.87,382.41,167.08,395,148,406.36a118.9,118.9,0,0,0-15.57,10.92c-11.44,9.6-16.73,18.59-19.13,25.37a36.61,36.61,0,0,0-1.17,4,121.7,121.7,0,0,0,6.75,14.7c4.07,7.43,8.94,14.41,11.43,18.32a25.23,25.23,0,0,1,.79,6.18s-5.93-3.58-14.65-9.37c-6.76-4.48-15.19-10.28-23.85-16.76h0c-15.37-11.49-31.45-25.12-40.1-37.28,6.06-24.33,7.49-39.64,10.13-56.59S74.7,336.69,92.2,331.63c11.2-3.24,31.72-10,45.86-23a162,162,0,0,0,18.42,22.42C170.18,345.17,190.94,361.93,216.72,368.56Z" />
      <path class="GUNDAN_CAT_OUTFIT_CAT_OUTFIT_15_cls-4" d="M79.65,397.26c-1,25.77,12.92,62.48,12.92,62.48h0c-15.37-11.49-31.45-25.12-40.1-37.28,6.06-24.33,7.49-39.64,10.13-56.59S74.7,336.69,92.2,331.63c11.2-3.24,31.72-10,45.86-23a162,162,0,0,0,18.42,22.42c-12.3,6.84-27.26,10.75-43.14,15.82C85.43,355.8,80.65,371.48,79.65,397.26Z" />
      <path class="GUNDAN_CAT_OUTFIT_CAT_OUTFIT_15_cls-4" d="M113.27,442.65a36.61,36.61,0,0,0-1.17,4,121.7,121.7,0,0,0,6.75,14.7c4.07,7.43,8.94,14.41,11.43,18.32a25.23,25.23,0,0,1,.79,6.18s-5.93-3.58-14.65-9.37a240.28,240.28,0,0,1-7-29.38c-2.41-13.94-4-30.9-2.17-46.71a55.88,55.88,0,0,1,5-22.49c1.6,14.23,8.75,28.26,20.07,39.36C121,426.88,115.67,435.87,113.27,442.65Z" />
      <path class="GUNDAN_CAT_OUTFIT_CAT_OUTFIT_15_cls-5" d="M301.07,318.31s-3,11.78-8,26.7h0c-21.83,33.59-88,61.54-126.69,84.59q-4.78,2.85-8.78,5.69C127,457,129.7,477.18,129.85,478.13a.08.08,0,0,1,0,0q.24.76.42,1.53c-2.49-3.91-7.36-10.89-11.43-18.32a121.7,121.7,0,0,1-6.75-14.7,36.61,36.61,0,0,1,1.17-4c2.4-6.78,7.69-15.77,19.13-25.37A118.9,118.9,0,0,1,148,406.36c19.11-11.38,44.9-23.95,68.75-37.8,9.85-5.73,19.37-11.68,27.95-17.85,13.32-9.57,24.38-19.7,30.88-30.38h0q1.21-2,2.2-4s1.76-10.56,3-18.86a51.28,51.28,0,0,0,.58-5.88C284.86,303.26,296.84,315,301.07,318.31Z" />
      <path class="GUNDAN_CAT_OUTFIT_CAT_OUTFIT_15_cls-4" d="M129.85,478.13a.08.08,0,0,1,0,0q.24.76.42,1.53c-2.49-3.91-7.36-10.89-11.43-18.32a121.7,121.7,0,0,1-6.75-14.7,36.61,36.61,0,0,1,1.17-4c2.4-6.78,7.69-15.77,19.13-25.37a66.08,66.08,0,0,0,25.17,18C127,457,129.7,477.18,129.85,478.13Z" />
      <path class="GUNDAN_CAT_OUTFIT_CAT_OUTFIT_15_cls-5" d="M131.07,485.87c-.32,10.54-.47,25.18-.52,32.37h0a377.18,377.18,0,0,1-44.05-24.56A250.45,250.45,0,0,1,57,471.49a128.72,128.72,0,0,1-18.14-19.42,193.9,193.9,0,0,0,13.65-29.61c8.65,12.15,24.72,25.78,40.1,37.28h0C112.41,474.58,131.07,485.87,131.07,485.87Z" />
      <path class="GUNDAN_CAT_OUTFIT_CAT_OUTFIT_15_cls-4" d="M75.94,467.71c-1.53,8,6.32,20.14,10.53,26A250.45,250.45,0,0,1,57,471.49a128.72,128.72,0,0,1-18.14-19.42,193.9,193.9,0,0,0,13.65-29.61c8.65,12.15,24.72,25.78,40.1,37.28C92.08,459.65,78,457.12,75.94,467.71Z" />
      <path d="M58.35,368c0,.44,0,.67-.16.52S58.16,368.24,58.35,368Z" />
      <path class="GUNDAN_CAT_OUTFIT_CAT_OUTFIT_15_cls-8" d="M130.52,518.24S87.5,498.67,57,471.49a128.72,128.72,0,0,1-18.14-19.42,193.9,193.9,0,0,0,13.65-29.61" />
      <path class="GUNDAN_CAT_OUTFIT_CAT_OUTFIT_15_cls-8" d="M131.07,485.87s-58.79-35.56-78.61-63.41c6.06-24.33,7.49-39.64,10.13-56.59S74.7,336.69,92.2,331.63c11.2-3.24,31.72-10,45.86-23" />
      <path class="GUNDAN_CAT_OUTFIT_CAT_OUTFIT_15_cls-8" d="M113.27,442.65c-4.55-12.46-7.61-28.43-5.35-50.7" />
      <path class="GUNDAN_CAT_OUTFIT_CAT_OUTFIT_15_cls-8" d="M307.19,522.58s0-1,0-2.72c0-6.37-.18-22.58-.53-34,0-21.25,28.92-37,23.14-93.92" />
      <path class="GUNDAN_CAT_OUTFIT_CAT_OUTFIT_15_cls-8" d="M129.86,478.16a.08.08,0,0,0,0,0c-.16-1-3.4-24.77,36.5-48.52,38.73-23.05,104.86-51,126.69-84.59" />
      <path class="GUNDAN_CAT_OUTFIT_CAT_OUTFIT_15_cls-8" d="M275.56,320.33q1.21-2,2.2-4s1.76-10.56,3-18.86a51.28,51.28,0,0,0,.58-5.88c3.51,11.64,15.49,23.35,19.72,26.69" />
      <path class="GUNDAN_CAT_OUTFIT_CAT_OUTFIT_15_cls-8" d="M112.1,446.67a36.61,36.61,0,0,1,1.17-4c3.3-9.32,12-22.8,34.7-36.29,19.11-11.38,44.9-23.95,68.75-37.8,9.85-5.73,19.37-11.68,27.95-17.85,13.32-9.57,24.38-19.7,30.88-30.38" />
      <path class="GUNDAN_CAT_OUTFIT_CAT_OUTFIT_15_cls-8" d="M162.75,298.54c-7.53-10.58-9.66-18.19-9.66-18.19-3.11,14.3-15,28.29-15,28.29h0s30.6,47.57,78.66,59.92" />
      <path class="GUNDAN_CAT_OUTFIT_CAT_OUTFIT_15_cls-8" d="M187,323.07a113,113,0,0,1-24.24-24.53" />
      <path class="GUNDAN_CAT_OUTFIT_CAT_OUTFIT_15_cls-8" d="M244.68,350.71h0c-25.54-7.38-44.16-17.44-57.66-27.64" />
      <path class="GUNDAN_CAT_OUTFIT_CAT_OUTFIT_15_cls-8" d="M344.87,339.78s.31-2.25-2.29-5c-1.63-1.76-4.4-3.74-9.11-5.52-3-1.07-5.65-2.07-7.91-3-2.5-1-4.57-2-6.31-2.91-7.28-3.73-9-6.18-12.61-7.39-5.31-1.76-5.57,2.42-5.57,2.42s-3,11.78-8,26.7h0c-4.06,12.12-9.42,26.31-15.55,37.91-13.65,25.87-15.58,33.64-11,38.43q.33.34.69.66" />
      <path class="GUNDAN_CAT_OUTFIT_CAT_OUTFIT_15_cls-8" d="M340.13,337.25c-.07.25-.16.52-.25.83A242.39,242.39,0,0,1,312,397.55c-15.47,23.69-31.61,30.52-41.12,26.73" />
      <path class="GUNDAN_CAT_OUTFIT_CAT_OUTFIT_15_cls-8" d="M339.88,338.08l5,1.7a32.5,32.5,0,0,1,18.82,18.27c5.34,13.11,8.26,22.46,9.14,52.41,0,0-1.73,14,9.35,34.49a119.36,119.36,0,0,0,14.7,21.1,116.67,116.67,0,0,1-17.12,18.5c-32,28-72.59,35.31-72.59,35.31V497s56.69-15.08,75-52.09" />
      <path class="GUNDAN_CAT_OUTFIT_CAT_OUTFIT_15_cls-8" d="M249.78,328.26a7.93,7.93,0,0,1-15-3.57V314.24a8,8,0,0,1,.2-1.79,7.93,7.93,0,0,1,15.66,1.79v10.45A7.93,7.93,0,0,1,249.78,328.26Z" />
      <path class="GUNDAN_CAT_OUTFIT_CAT_OUTFIT_15_cls-8" d="M242.7,328.42a4.27,4.27,0,0,1-4.27-4.26v-9.39a4.27,4.27,0,0,1,8.54,0v9.39A4.27,4.27,0,0,1,242.7,328.42Z" />
      <path class="GUNDAN_CAT_OUTFIT_CAT_OUTFIT_15_cls-8" d="M280.77,297.5c-9.4,6.39-19.34,12.15-30.7,13.8" />
      <path class="GUNDAN_CAT_OUTFIT_CAT_OUTFIT_15_cls-8" d="M162.75,298.54h0c.83.34,36.21,14.43,72.21,13.91" />
      <path class="GUNDAN_CAT_OUTFIT_CAT_OUTFIT_15_cls-8" d="M187,323.07h0c13.62,3.46,31.42,6.71,49.27,6.28" />
      <path class="GUNDAN_CAT_OUTFIT_CAT_OUTFIT_15_cls-8" d="M275.56,320.33h0a80,80,0,0,1-25.77,7.93" />
      <path class="GUNDAN_CAT_OUTFIT_CAT_OUTFIT_15_cls-8" d="M259.84,440l-.85,1.21a2.15,2.15,0,0,1-3.52-2.47l.85-1.21,2-2.89L267.17,422l1.19-1.7a2.15,2.15,0,1,1,3.52,2.46l-1.05,1.5-9,12.79-2,2.89Z" />
      <path class="GUNDAN_CAT_OUTFIT_CAT_OUTFIT_15_cls-8" d="M284,410.7a5.37,5.37,0,1,1-5.36-5.36A5.36,5.36,0,0,1,284,410.7Z" />
      <circle class="GUNDAN_CAT_OUTFIT_CAT_OUTFIT_15_cls-8" cx="305.48" cy="367.36" r="5.37" />
      <path class="GUNDAN_CAT_OUTFIT_CAT_OUTFIT_15_cls-8" d="M325.56,326.19a5.36,5.36,0,1,0-6.81-5.16,5.3,5.3,0,0,0,.5,2.25" />
      <path class="GUNDAN_CAT_OUTFIT_CAT_OUTFIT_15_cls-8" d="M289.69,399a1.81,1.81,0,1,1-1.81-1.81A1.82,1.82,0,0,1,289.69,399Z" />
      <path class="GUNDAN_CAT_OUTFIT_CAT_OUTFIT_15_cls-8" d="M295.29,389.37a1.82,1.82,0,1,1-1.82-1.82A1.81,1.81,0,0,1,295.29,389.37Z" />
      <circle class="GUNDAN_CAT_OUTFIT_CAT_OUTFIT_15_cls-8" cx="299.07" cy="379.73" r="1.81" />
      <path class="GUNDAN_CAT_OUTFIT_CAT_OUTFIT_15_cls-8" d="M313.16,353.35a1.81,1.81,0,1,1-2.07-1.52A1.8,1.8,0,0,1,313.16,353.35Z" />
      <path class="GUNDAN_CAT_OUTFIT_CAT_OUTFIT_15_cls-8" d="M317.22,343a1.81,1.81,0,1,1-2.07-1.52A1.82,1.82,0,0,1,317.22,343Z" />
      <path class="GUNDAN_CAT_OUTFIT_CAT_OUTFIT_15_cls-8" d="M321.28,332.59a1.81,1.81,0,1,1-2.07-1.51A1.82,1.82,0,0,1,321.28,332.59Z" />
      <path d="M329.85,396.91c0-1.63-.05-3.29-.07-5A26.8,26.8,0,0,1,329.85,396.91Z" />
      <path d="M329.85,396.91c0-1.63-.05-3.29-.07-5A26.8,26.8,0,0,1,329.85,396.91Z" />
    </g>
  </g>
</svg>