<svg xmlns="http://www.w3.org/2000/svg" viewBox="0 0 432 432">
  <defs>
    <style>.BUNTAI_OWL_OUTFIT_BUNTAI_OWL_OUTFIT_32_a{isolation:isolate;}.BUNTAI_OWL_OUTFIT_BUNTAI_OWL_OUTFIT_32_b{fill:#fff;}.BUNTAI_OWL_OUTFIT_BUNTAI_OWL_OUTFIT_32_c{fill:#6c236f;}.BUNTAI_OWL_OUTFIT_BUNTAI_OWL_OUTFIT_32_d{fill:#e4d2bc;}.BUNTAI_OWL_OUTFIT_BUNTAI_OWL_OUTFIT_32_e{fill:#5aa;}.BUNTAI_OWL_OUTFIT_BUNTAI_OWL_OUTFIT_32_f{fill:#fffbf0;}.BUNTAI_OWL_OUTFIT_BUNTAI_OWL_OUTFIT_32_g{fill:#23564d;}.BUNTAI_OWL_OUTFIT_BUNTAI_OWL_OUTFIT_32_h{fill:#262431;}.BUNTAI_OWL_OUTFIT_BUNTAI_OWL_OUTFIT_32_i,.BUNTAI_OWL_OUTFIT_BUNTAI_OWL_OUTFIT_32_k,.BUNTAI_OWL_OUTFIT_BUNTAI_OWL_OUTFIT_32_l{fill:none;stroke:#000;stroke-linecap:round;stroke-linejoin:round;}.BUNTAI_OWL_OUTFIT_BUNTAI_OWL_OUTFIT_32_i{stroke-width:1.57px;}.BUNTAI_OWL_OUTFIT_BUNTAI_OWL_OUTFIT_32_j{opacity:0.43;mix-blend-mode:multiply;}.BUNTAI_OWL_OUTFIT_BUNTAI_OWL_OUTFIT_32_k{stroke-width:2.02px;}.BUNTAI_OWL_OUTFIT_BUNTAI_OWL_OUTFIT_32_l{stroke-width:1.4px;}</style>
  </defs>
  <g class="BUNTAI_OWL_OUTFIT_BUNTAI_OWL_OUTFIT_32_a">
    <path class="BUNTAI_OWL_OUTFIT_BUNTAI_OWL_OUTFIT_32_b" d="M367.56,453h-51l-.11-.06.11-.2,0-.09A53.75,53.75,0,0,0,322.51,436v0l.16-1a52.71,52.71,0,0,0,.65-7.42c0-.43,0-.85,0-1.27s0-.66,0-1,0-.58,0-.87c0-.58,0-1.13-.07-1.68a58.56,58.56,0,0,0-1.56-10.26l-.19-.15-.58-.47a42.92,42.92,0,0,0-13.74-6.94A55.8,55.8,0,0,0,261.7,411,68.18,68.18,0,0,0,244,427a44.19,44.19,0,0,1,3.59-11.63c2.51-5.31,6-9.83,8.71-15,.22-.4.42-.8.63-1.21q5-5.37,10.47-10.17c6.17-5.46,12.92-10.45,20.15-13.14a50.7,50.7,0,0,1,6.45,1,28.45,28.45,0,0,1,13.33,6.81,11.4,11.4,0,0,0,.19,3.14c.77,3.87,3.43,6.74,6.15,9a40.1,40.1,0,0,0,7.71,4.93c.7.34,1.41.66,2.13.95a36.06,36.06,0,0,0,25.32,1,29.46,29.46,0,0,0,8-4.07A240.35,240.35,0,0,1,367.56,453Z" />
    <path class="BUNTAI_OWL_OUTFIT_BUNTAI_OWL_OUTFIT_32_c" d="M331.91,342.66c-.56,3.22-2.06,7.4-6,8.67-6.66,2.17-19.15-9.06-19.15-9.06s-6.34,15.32-15.08,17.23S260.94,343,245.86,346.4c.18-.07.34-.14.52-.23a9.63,9.63,0,0,0,4.12-4.35,6.09,6.09,0,0,0,4.4,3.37,5.1,5.1,0,0,0,4.72-2,5,5,0,0,0,8.11.12,5.31,5.31,0,0,0,6.31,0,8.21,8.21,0,0,0,2.87-6.84,3,3,0,0,0,4.36.19,4.49,4.49,0,0,0,2.17,2.69,3.28,3.28,0,0,0,3.09-.07,13.18,13.18,0,0,1,2.37-1.46,8,8,0,0,1,2.29,0,4.81,4.81,0,0,0,3.59-1.51,6.69,6.69,0,0,0,1.91-3.9,4.67,4.67,0,0,0,5.05-1.48,7.22,7.22,0,0,0,1.44-6c1.55,1,3.27,2,5,1.57a4.94,4.94,0,0,0,3.22-4.25,5.51,5.51,0,0,0-.12-2.07,22.11,22.11,0,0,1,6.45,5.22c2.55,2.85,4.74,6.15,7.1,9.23A75.45,75.45,0,0,0,331.91,342.66Z" />
    <path class="BUNTAI_OWL_OUTFIT_BUNTAI_OWL_OUTFIT_32_d" d="M240.13,346.29c0,.55,0,1.09-.08,1.63,0,.26-.06.53-.1.79a12.34,12.34,0,0,1-1.84,5,5.4,5.4,0,0,1-4.34,2.73c-2.21,0-4.15-1.78-5.29-4.48a13.54,13.54,0,0,1-.86-2.93h0a15.82,15.82,0,0,1-.22-2.71,12.75,12.75,0,0,1,2.66-8.25,5,5,0,0,1,3.71-1.88,4.73,4.73,0,0,1,3.33,1.5h0C238.92,339.44,240.13,342.64,240.13,346.29Z" />
    <path class="BUNTAI_OWL_OUTFIT_BUNTAI_OWL_OUTFIT_32_e" d="M323.35,426.25c0,.42,0,.84,0,1.27a52.71,52.71,0,0,1-.65,7.42l-.16,1v0a53.75,53.75,0,0,1-5.86,16.67l0,.09-.11.2a45,45,0,0,1-6.63,9.06c-20.61,22.21-61.09,9.82-65.26,3.56-.78-1.17-1.52-2.37-2.22-3.56h0c-2.45-4.17-4.38-8.17-5.06-9.64-.19-.39-.28-.6-.28-.6a75.13,75.13,0,0,0-3.51-7.29A80.75,80.75,0,0,1,244,427h0A68.18,68.18,0,0,1,261.7,411a55.8,55.8,0,0,1,45.48-6.14,42.92,42.92,0,0,1,13.74,6.94l.58.47.19.15a58.56,58.56,0,0,1,1.56,10.26c0,.55.05,1.1.07,1.68,0,.29,0,.57,0,.87S323.35,425.93,323.35,426.25Z" />
    <path class="BUNTAI_OWL_OUTFIT_BUNTAI_OWL_OUTFIT_32_e" d="M233.52,444.48c-1.05,2.36-2,4.8-2.84,7.29A35.25,35.25,0,0,1,223.57,462c-9.45,9.5-24.3,13.29-42.72,11.63A119,119,0,0,1,139.27,462a47.68,47.68,0,0,1-15.83-27.07,43.93,43.93,0,0,1-.81-7.58c0-.41,0-.81,0-1.21s0-.77,0-1.15c0-1.26.12-2.53.25-3.78a47,47,0,0,1,1.79-8.76c.32-.21.63-.42,1-.62a58.3,58.3,0,0,1,16.94-6.94A83,83,0,0,1,198.72,411,80.44,80.44,0,0,1,220.53,427h0A79.94,79.94,0,0,1,233.52,444.48Z" />
    <path class="BUNTAI_OWL_OUTFIT_BUNTAI_OWL_OUTFIT_32_f" d="M312.19,312.67a10.88,10.88,0,0,1-2.67,4.3,4.94,4.94,0,0,1,.36.44,5,5,0,0,1,.4.54,3.21,3.21,0,0,1,.19.31,7.37,7.37,0,0,1,.54,1.09,3.56,3.56,0,0,1,.13.39l.06.24a2.5,2.5,0,0,1,.07.26,5.51,5.51,0,0,1,.12,2.07,4.93,4.93,0,0,1-3.22,4.25,3.54,3.54,0,0,1-.85.11,1.72,1.72,0,0,1-.32,0h-.24a4.1,4.1,0,0,1-.48-.1l-.41-.12-.06,0-.2-.08a8.15,8.15,0,0,1-1-.46h0c-.48-.26-.95-.56-1.41-.85a2.56,2.56,0,0,1,.05.27,7.18,7.18,0,0,1-1.49,5.72,2.08,2.08,0,0,1-.21.21l-.17.18a4.67,4.67,0,0,1-.84.64l-.07,0h0a4.46,4.46,0,0,1-.92.41l-.42.12a4.17,4.17,0,0,1-.49.08,4,4,0,0,1-.49,0h0a3.15,3.15,0,0,1-.53,0,5.12,5.12,0,0,1-.54-.1h0l-.34-.1a2.7,2.7,0,0,1-.07.41l0,.16-.06.25a1.82,1.82,0,0,1-.07.25h0c0,.11-.07.22-.11.33s-.1.28-.16.41a0,0,0,0,1,0,0l0,0a4.51,4.51,0,0,1-.22.44l0,.07c-.07.13-.15.26-.23.38a.61.61,0,0,1-.07.1,2.43,2.43,0,0,1-.14.2,5.43,5.43,0,0,1-.69.83,4.79,4.79,0,0,1-3.58,1.51l-.4,0-.4-.05-.4,0-.31,0h0l-.39,0a2.66,2.66,0,0,0-.39.07,13.18,13.18,0,0,0-2.37,1.46,2.53,2.53,0,0,1-.37.18l-.19.06-.18.06h0a3.25,3.25,0,0,1-2.31-.24.87.87,0,0,1-.18-.11l0,0,0,0a4.43,4.43,0,0,1-.42-.29l-.34-.31-.13-.14,0,0a1.79,1.79,0,0,1-.22-.25h0a.71.71,0,0,1-.1-.14,2.39,2.39,0,0,1-.21-.34l-.05-.07h0a1.68,1.68,0,0,1-.15-.3h0s0,0,0,0a2,2,0,0,1-.11-.26l0-.07-.09-.26a3.15,3.15,0,0,1-1,.64h0l0,0-.07,0-.09,0h0a1.1,1.1,0,0,1-.26.06l-.27,0h-.29l-.28,0-.16,0-.15,0a2.93,2.93,0,0,1-.89-.34l-.18-.11-.05,0-.07-.06-.12-.09-.16-.14-.19-.19a9.4,9.4,0,0,1,0,1.4.5.5,0,0,1,0,.12c0,.27-.08.54-.13.8h0c-.05.22-.11.44-.17.65a1.83,1.83,0,0,1-.08.25h0c-.06.19-.13.38-.2.57s-.08.19-.13.29-.08.18-.13.27a7.37,7.37,0,0,1-.43.78l-.15.22a5.5,5.5,0,0,1-.47.61l-.29.31a6.64,6.64,0,0,1-.64.55,4.53,4.53,0,0,1-.46.3l-.28.16a3.39,3.39,0,0,1-.39.18l-.19.08h0l-.2.06-.4.11-.21,0-.27,0h-.09l-.36,0a5.54,5.54,0,0,1-1.94-.21h0l-.39-.14-.37-.17h0a5.33,5.33,0,0,1-.72-.44,5.25,5.25,0,0,1-4.08,2,4.7,4.7,0,0,1-2.12-.54l-.17-.09-.09-.06-.08,0-.18-.11-.06,0-.05,0h0a2.37,2.37,0,0,1-.3-.23,5.34,5.34,0,0,1-.44-.39l-.2-.21c-.07-.07-.13-.15-.2-.23a.71.71,0,0,1-.12-.13,4.94,4.94,0,0,1-.54.57s0,0,0,0l0,0c-.11.11-.23.21-.34.3a2.55,2.55,0,0,1-.28.21,1.5,1.5,0,0,1-.23.15,3.92,3.92,0,0,1-.53.29l-.05,0-.23.1h0l0,0-.18.06-.06,0-.41.11h0l-.15,0a1.08,1.08,0,0,1-.19,0l-.14,0H256l-.36,0a5.81,5.81,0,0,1-.72-.05,1.91,1.91,0,0,1-.33-.06l-.33-.08L254,345s0,0,0,0l-.09,0-.27-.11c-.11,0-.21-.1-.32-.15l-.3-.17-.3-.19-.18-.13-.29-.23,0,0-.21-.18a3.59,3.59,0,0,1-.39-.39l-.08-.08a.39.39,0,0,1-.08-.1,2.17,2.17,0,0,1-.24-.29l-.05-.07a.36.36,0,0,1-.07-.1,5.39,5.39,0,0,1-.33-.5l0,0a3.35,3.35,0,0,1-.21-.36,12.34,12.34,0,0,1-.81,1.37,11.47,11.47,0,0,1-1,1.2c-.17.18-.35.35-.53.51a2.69,2.69,0,0,1-.32.27,2.75,2.75,0,0,1-.26.22l0,0-.06,0c-.19.14-.39.27-.59.39a6,6,0,0,1-.55.31h0a3.91,3.91,0,0,1-.51.24h-.06a7.36,7.36,0,0,1-3.61.52l-.58-.09-.22,0-.5-.13a4.73,4.73,0,0,1-.84,1.25c.05-.54.08-1.08.08-1.63,0-.3,0-.59,0-.88a3.71,3.71,0,0,0,0-.47c0-.19,0-.37-.05-.56-.06-.46-.13-.91-.22-1.35a6,6,0,0,0-.15-.61c0-.17-.09-.35-.14-.52-.14-.44-.29-.86-.46-1.26a6.11,6.11,0,0,0-.27-.58,6.24,6.24,0,0,0-.44-.81c-.09-.15-.18-.29-.28-.43v0c-.09-.14-.2-.28-.3-.41a6.51,6.51,0,0,0-.65-.73,4,4,0,0,1,3.82.52,4.79,4.79,0,0,1,2.39-4.68,3.59,3.59,0,0,1,4.46,1.55,2.82,2.82,0,0,1,2-2.36,2.27,2.27,0,0,1,2.48,1.35,6,6,0,0,1-.54-2.59,3.71,3.71,0,0,1,.76-2.57,1.7,1.7,0,0,1,2.15-.47,4.74,4.74,0,0,1,.86-3.84,2.82,2.82,0,0,1,3-1.25,8.17,8.17,0,0,1,2.27-6.61,7.62,7.62,0,0,1,5.75-2.26,12.87,12.87,0,0,1,5.94,1.93c.05-.41.64-.71,1-.88a1.5,1.5,0,0,1,1-.12,3.15,3.15,0,0,1,2.2,2.12,8.08,8.08,0,0,1,.69-6.81,5.46,5.46,0,0,1,5.19-2.92,5.86,5.86,0,0,1,3.08-3.85,3.24,3.24,0,0,1,2.25-.15,2.89,2.89,0,0,1,1.74,1.67,7.44,7.44,0,0,1,.38-4.88,5.55,5.55,0,0,1,3.13-3.14,7.81,7.81,0,0,1,1.73-4,14.26,14.26,0,0,0,5,5.29c2.28-1.44,5.55,1.44,3.22,5.51a2.73,2.73,0,0,1,2.12.63,5,5,0,0,1,1.13,5.75C309.05,309.32,311.84,310.49,312.19,312.67Z" />
    <path class="BUNTAI_OWL_OUTFIT_BUNTAI_OWL_OUTFIT_32_f" d="M230.07,338c-.13.15-.25.3-.37.46l-.33.46,0,.06-.23.37c-.14.24-.27.5-.4.76s-.14.3-.2.45-.17.41-.24.61-.17.48-.24.73a0,0,0,0,0,0,0l-.15.55c0,.14-.07.28-.1.42s-.07.28-.09.43-.09.48-.12.72-.09.77-.11,1.16c0,.2,0,.41,0,.62a.49.49,0,0,0,0,.12.2.2,0,0,0,0,.11v.19a15.4,15.4,0,0,0,.21,2.58s0,.09,0,.13h-.18a4.56,4.56,0,0,1-1-.37,1.71,1.71,0,0,1-.23-.13h0a2.3,2.3,0,0,1-.33-.21l-.08-.05a1.84,1.84,0,0,1-.22-.17.39.39,0,0,1-.1-.08h0l0,0h0l-.27-.27a3,3,0,0,1-.34-.38,3.83,3.83,0,0,1-.4-.59l-.49.1h0l-.38.07-.25,0-.4,0a10.68,10.68,0,0,1-1.13.05,9.84,9.84,0,0,1-1.43-.11,4.89,4.89,0,0,1-.53-.09,8.92,8.92,0,0,1-1.44-.36h0s0,0,0,0c-.22-.07-.43-.15-.65-.24a6,6,0,0,1-.58-.26c-.18-.09-.37-.18-.55-.29l-.39-.22-.53-.35-.07-.05-.32-.24-.31-.25h0l-.13-.1-.32-.29-.3-.29a8.37,8.37,0,0,1-.57-.62c-.15-.18-.3-.37-.44-.56a9,9,0,0,1-.56-.81l0,.05,0,.06c-.12.19-.26.37-.4.55a3.74,3.74,0,0,1-.27.31,6.45,6.45,0,0,1-.59.58,6.24,6.24,0,0,1-.65.5,2.64,2.64,0,0,1-.35.23l-.32.19a5.85,5.85,0,0,1-.56.28h0a3.33,3.33,0,0,1-.4.16h0a7.25,7.25,0,0,1-1.78.44,7,7,0,0,1-5.82-2,7.07,7.07,0,0,1-5,2.13,7.15,7.15,0,0,1-5.05-2,7.82,7.82,0,0,1-7.79,0,7.57,7.57,0,0,1-3.54-6.84,4.25,4.25,0,0,1-2.83,1l-.38,0-.38-.05c-.14,0-.28-.06-.41-.09l-.34-.11h-.08a2,2,0,0,1-.22-.09l-.26-.13a3.74,3.74,0,0,1-.49-.32c0,.06,0,.12-.07.17s0,0,0,0l0,0a2.44,2.44,0,0,1-.14.28,2.75,2.75,0,0,1-.17.29l-.08.13c-.07.11-.16.22-.24.33l0,0-.27.29a4.61,4.61,0,0,1-.4.37,3.58,3.58,0,0,1-.39.29l0,0a4.92,4.92,0,0,1-.82.43l-.13.05-.12,0h0l-.38.11-.39.08-.19,0-.2,0-.4,0a4.07,4.07,0,0,1-.5,0l-.17,0a4,4,0,0,1-.5-.1,2.14,2.14,0,0,1-.34-.09,3.41,3.41,0,0,1-.48-.18,16.94,16.94,0,0,0-2.92-1.46l-.39-.06-.26,0h-.13c-.68,0-1.37.12-2.06.13a6.7,6.7,0,0,1-4.43-1.51,6,6,0,0,1-.53-.48l-.26-.27-.06-.07a3.47,3.47,0,0,1-.34-.42,5.59,5.59,0,0,1-.57-.89,2.2,2.2,0,0,1-.15-.31c-.06-.13-.12-.27-.17-.41h0v0a5.09,5.09,0,0,1-.26-1l-.29.07-.14,0-.43.08h0a2.71,2.71,0,0,1-.41,0l-.43,0a6.39,6.39,0,0,1-1.23-.11,5.45,5.45,0,0,1-1-.29.65.65,0,0,1-.22-.08,5,5,0,0,1-.87-.42,5.72,5.72,0,0,1-1.13-.82,6.23,6.23,0,0,1-2-4.55c0-.14,0-.28,0-.42a2.11,2.11,0,0,1,0-.25c0-.14,0-.27.05-.41s0,0,0,0,0-.21.07-.32l-.62.32c-.19.1-.39.2-.6.29l-.72.33h0l-.37.15-.45.16h0a3.8,3.8,0,0,1-.55.16h0l-.2.05h0l-.27.05a2.7,2.7,0,0,1-.41.07l-.29,0h-.19a4,4,0,0,1-.6,0,.83.83,0,0,1-.22,0,4.51,4.51,0,0,1-.53-.08,5.24,5.24,0,0,1-4-4.25,4.65,4.65,0,0,1,.14-2.07,3.71,3.71,0,0,1,.16-.47,1.59,1.59,0,0,1,.12-.27,1.4,1.4,0,0,1,.15-.3,2.75,2.75,0,0,1,.17-.29c.05-.1.11-.2.17-.3l.18-.28a2.48,2.48,0,0,1,.19-.26,9.32,9.32,0,0,1,.66-.75l.08-.07v0h0l.27-.26-.36-.32c-.62-4.82,4-3,4-3s.85-4.77,3.12-5.31a1.69,1.69,0,0,1,.55-.05c-1.39-2.27.35-6.29,3.44-5.15-1.63-4.8.58-5.33,3.37-6a10.91,10.91,0,0,0,4.84-2.86,7.07,7.07,0,0,1,1.39,3.14,6.42,6.42,0,0,1,3.87,3.14,6.13,6.13,0,0,1,.46,4.88,3.36,3.36,0,0,1,2.16-1.67,4.85,4.85,0,0,1,2.77.15,6.28,6.28,0,0,1,3.8,3.85,7.2,7.2,0,0,1,6.41,2.92,6.78,6.78,0,0,1,.85,6.82,3.63,3.63,0,0,1,2.72-2.13,2.25,2.25,0,0,1,1.26.12c.39.17,1.13.47,1.19.88a18.56,18.56,0,0,1,7.32-1.93,10.72,10.72,0,0,1,7.11,2.26,7.3,7.3,0,0,1,2.79,6.61,3.89,3.89,0,0,1,3.65,1.25c.87,1,1.57,2.61,1.07,3.84a2.44,2.44,0,0,1,2.65.47,3.26,3.26,0,0,1,.94,2.57,4.94,4.94,0,0,1-.68,2.59,3,3,0,0,1,3.07-1.35,3.08,3.08,0,0,1,2.46,2.36,5,5,0,0,1,5.51-1.55,4.65,4.65,0,0,1,2.95,4.68,6,6,0,0,1,5.3-.31Z" />
    <path class="BUNTAI_OWL_OUTFIT_BUNTAI_OWL_OUTFIT_32_g" d="M359.19,375.83a19.45,19.45,0,0,1-15.36,3.93c3.29-1.09,7.64-5.33,9.39-7.78a51.61,51.61,0,0,1-6.12-5.65s-6.56,1-10.74.58-7.69-.58-7.69-.58a62.17,62.17,0,0,0,8.66-4.12,15.25,15.25,0,0,1,4.43-2.35c-2.72-3.65-5.23-7.55-7.68-11.49a13.08,13.08,0,0,1-5.47,7.47,12.55,12.55,0,0,1-11,.91,21.83,21.83,0,0,1-9.35-7.36c-2.21,7.77-8.17,13.53-14.81,15.25s-13.75-.35-19.44-4.83c-5.52-4.35-12.11-6.14-18.41-8.41a46.76,46.76,0,0,0-10-2.66,22.26,22.26,0,0,0-5.65,0,12.34,12.34,0,0,1-1.84,5,20.43,20.43,0,0,0,2.34,4.7,29.18,29.18,0,0,0,9.48,8.45,58,58,0,0,0,12.82,5.8,54.72,54.72,0,0,0,9,2c5.26.72,10.59.66,15.86,1.16a50.43,50.43,0,0,1,6.45,1,28.45,28.45,0,0,1,13.33,6.81,13.94,13.94,0,0,1,1.92-6.06,15.37,15.37,0,0,1,6.37-5.75c-4,2-5.81,8.59-4.59,13.65a16.91,16.91,0,0,0,5.69,8.59,29,29,0,0,0,17.13,7.37,28,28,0,0,0,17.71-5.06,24.4,24.4,0,0,0,9.66-12.64,20.47,20.47,0,0,0,.88-6.54A28.91,28.91,0,0,1,359.19,375.83Z" />
    <path class="BUNTAI_OWL_OUTFIT_BUNTAI_OWL_OUTFIT_32_g" d="M227.48,349h0a32.23,32.23,0,0,0-8.83-.23,68.58,68.58,0,0,0-12.39,2.66c-7.78,2.27-15.92,4.06-22.73,8.41-7,4.48-15.81,6.56-24,4.83s-15.56-7.48-18.3-15.25a26.77,26.77,0,0,1-11.53,7.36,18.78,18.78,0,0,1-13.56-.91,13.78,13.78,0,0,1-6.75-7.47c-3,3.94-6.12,7.84-9.48,11.49a20.56,20.56,0,0,1,5.47,2.35c3.14,1.72,10.7,4.12,10.7,4.12s-4.34.13-9.5.58-13.26-.58-13.26-.58A60.59,60.59,0,0,1,85.74,372c2.16,2.45,7.53,6.69,11.59,7.78a27.81,27.81,0,0,1-19-3.93c-1.2.5-2.42.94-3.65,1.33a16.57,16.57,0,0,0,1.07,6.54c2.11,5.48,6.75,9.74,11.94,12.64a40.38,40.38,0,0,0,43-2.31c3.09-2.2,6-5,7-8.59,1.51-5.06-.71-11.62-5.66-13.65a18.06,18.06,0,0,1,7.86,5.75,12,12,0,0,1,2.37,6.06,38.69,38.69,0,0,1,16.46-6.81,76.48,76.48,0,0,1,8-1c6.52-.5,13.1-.44,19.59-1.16a82.65,82.65,0,0,0,26.91-7.83c4.37-2.14,8.63-4.74,11.71-8.45a18.29,18.29,0,0,0,3.51-6.45,13.54,13.54,0,0,1-.86-2.93A.58.58,0,0,0,227.48,349Z" />
    <path class="BUNTAI_OWL_OUTFIT_BUNTAI_OWL_OUTFIT_32_c" d="M217.65,346.17l.64.23c-18.61-3.43-45.81,15-56.58,13.1s-18.62-17.23-18.62-17.23-15.42,11.23-23.65,9.06c-4.85-1.27-6.7-5.45-7.39-8.67a82.45,82.45,0,0,0,8.74-8c2.93-3.08,5.62-6.38,8.77-9.23a27.27,27.27,0,0,1,8-5.22,4.51,4.51,0,0,0-.14,2.07,5.24,5.24,0,0,0,4,4.25c2.12.44,4.24-.56,6.16-1.57a6.25,6.25,0,0,0,1.78,6,6.65,6.65,0,0,0,6.24,1.48,6.3,6.3,0,0,0,2.35,3.9,6.69,6.69,0,0,0,4.42,1.51,12.37,12.37,0,0,1,2.85,0,17.31,17.31,0,0,1,2.92,1.46,4.84,4.84,0,0,0,6.48-2.62,4.37,4.37,0,0,0,5.39-.19,7.57,7.57,0,0,0,3.55,6.84,7.82,7.82,0,0,0,7.79,0,7.12,7.12,0,0,0,5,2,7,7,0,0,0,5-2.12,7.07,7.07,0,0,0,5.83,2,7.55,7.55,0,0,0,5.44-3.37A10.79,10.79,0,0,0,217.65,346.17Z" />
    <path class="BUNTAI_OWL_OUTFIT_BUNTAI_OWL_OUTFIT_32_b" d="M220.53,427A80.44,80.44,0,0,0,198.72,411a83,83,0,0,0-56.15-6.14,58.3,58.3,0,0,0-16.94,6.94c-.33.2-.64.41-1,.62a47,47,0,0,0-1.79,8.76c-.13,1.25-.22,2.52-.25,3.78,0,.38,0,.76,0,1.15s0,.8,0,1.21a43.93,43.93,0,0,0,.81,7.58A47.32,47.32,0,0,0,131.11,453H68a200.71,200.71,0,0,1,13.17-54.5,40.33,40.33,0,0,0,9.91,4.07,54.33,54.33,0,0,0,31.24-1,52.16,52.16,0,0,0,12.16-5.89c3.37-2.22,6.65-5.09,7.6-9a9.49,9.49,0,0,0,.23-3.14l0,0h0a38.68,38.68,0,0,1,16.41-6.77,75.83,75.83,0,0,1,8-1c8.93,2.69,17.27,7.68,24.88,13.14q6.69,4.8,12.93,10.17c.25.41.51.81.77,1.21,3.36,5.14,7.67,9.66,10.77,15a37.66,37.66,0,0,1,4.15,10.44h0C220.36,426.15,220.45,426.55,220.53,427Z" />
    <path class="BUNTAI_OWL_OUTFIT_BUNTAI_OWL_OUTFIT_32_h" d="M271.73,374.67a54.72,54.72,0,0,1-9-2,58.31,58.31,0,0,1-5.78,26.5Q262,393.79,267.44,389c6.17-5.46,12.92-10.45,20.15-13.14C282.32,375.33,277,375.39,271.73,374.67Z" />
    <path class="BUNTAI_OWL_OUTFIT_BUNTAI_OWL_OUTFIT_32_h" d="M204.57,399.14l.77,1.22c3.36,5.14,7.67,9.65,10.77,15A38.36,38.36,0,0,1,220.53,427h0a79.62,79.62,0,0,1,13,17.53A81.15,81.15,0,0,1,244,427h0a44.19,44.19,0,0,1,3.59-11.63c2.51-5.31,6-9.82,8.72-15,.21-.41.42-.81.62-1.22C227,413,204.57,399.14,204.57,399.14Z" />
    <path class="BUNTAI_OWL_OUTFIT_BUNTAI_OWL_OUTFIT_32_h" d="M197.44,372.64a81.63,81.63,0,0,1-11.09,2c-6.49.72-13.07.66-19.59,1.16,8.93,2.69,17.27,7.68,24.88,13.14q6.69,4.8,12.93,10.17A49.3,49.3,0,0,1,197.44,372.64Z" />
    <path class="BUNTAI_OWL_OUTFIT_BUNTAI_OWL_OUTFIT_32_d" d="M359.19,375.83c.55-5.1-4.23-6.3-6-3.85s-6.1,6.69-9.39,7.78A19.45,19.45,0,0,0,359.19,375.83Z" />
    <path class="BUNTAI_OWL_OUTFIT_BUNTAI_OWL_OUTFIT_32_d" d="M366.26,378.4a25.31,25.31,0,0,1-4.12-1.24,20.47,20.47,0,0,1-.88,6.54,24.4,24.4,0,0,1-9.66,12.64,28,28,0,0,1-17.71,5.06A29,29,0,0,1,316.76,394a16.91,16.91,0,0,1-5.69-8.59c-1.22-5.06.58-11.62,4.59-13.65a15.37,15.37,0,0,0-6.37,5.75,13.94,13.94,0,0,0-1.92,6.06,11.9,11.9,0,0,0,.19,3.15c.77,3.86,3.43,6.73,6.16,9,10.16,8.26,23.35,10.84,35.15,6.87a29.71,29.71,0,0,0,8-4.06,23.86,23.86,0,0,0,4.64-4.36A22.14,22.14,0,0,0,366.26,378.4Z" />
    <path class="BUNTAI_OWL_OUTFIT_BUNTAI_OWL_OUTFIT_32_d" d="M336.36,366.91c4.18.45,10.74-.58,10.74-.58h0c-.58-6.1-3-7.06-5.34-6.46a15.25,15.25,0,0,0-4.43,2.35,62.17,62.17,0,0,1-8.66,4.12S332.18,366.46,336.36,366.91Z" />
    <path class="BUNTAI_OWL_OUTFIT_BUNTAI_OWL_OUTFIT_32_d" d="M317.64,356.75a12.55,12.55,0,0,0,11-.91,13.08,13.08,0,0,0,5.47-7.47,14.26,14.26,0,0,0,.59-3.15c-.93-.82-1.86-1.67-2.76-2.56-.56,3.22-2.06,7.4-6,8.67-6.66,2.17-19.15-9.06-19.15-9.06s-6.34,15.32-15.08,17.23S260.94,343,245.86,346.4h-.05a7.43,7.43,0,0,1-4.92.26,4.5,4.5,0,0,1-.84,1.25c0,.26-.06.53-.1.79a22.26,22.26,0,0,1,5.65,0,46.76,46.76,0,0,1,10,2.66c6.3,2.27,12.89,4.06,18.41,8.41,5.69,4.48,12.8,6.56,19.44,4.83s12.6-7.48,14.81-15.25A21.83,21.83,0,0,0,317.64,356.75Z" />
    <path class="BUNTAI_OWL_OUTFIT_BUNTAI_OWL_OUTFIT_32_d" d="M224.43,346.67a11.23,11.23,0,0,1-6.08-.26h-.06c-18.61-3.43-45.81,15-56.59,13.1s-18.61-17.23-18.61-17.23-15.42,11.23-23.65,9.06c-4.85-1.27-6.7-5.45-7.39-8.67-1.11.89-2.25,1.74-3.41,2.56a12,12,0,0,0,.72,3.15,13.78,13.78,0,0,0,6.75,7.47,18.78,18.78,0,0,0,13.56.91,26.77,26.77,0,0,0,11.53-7.36c2.74,7.77,10.09,13.53,18.3,15.25s17-.35,24-4.83c6.81-4.35,14.95-6.14,22.73-8.41a68.58,68.58,0,0,1,12.39-2.66,32.23,32.23,0,0,1,8.83.23A4.84,4.84,0,0,1,224.43,346.67Z" />
    <path class="BUNTAI_OWL_OUTFIT_BUNTAI_OWL_OUTFIT_32_d" d="M142.11,386.74c-1,3.87-4.23,6.74-7.6,9a52.16,52.16,0,0,1-12.16,5.89,54.33,54.33,0,0,1-31.24,1,40.33,40.33,0,0,1-9.91-4.07c-.49-.27-1-.57-1.43-.89h0a26.76,26.76,0,0,1-4.27-3.45,19.38,19.38,0,0,1-5.83-15.76l1.31-.25a38.19,38.19,0,0,0,3.78-1,16.49,16.49,0,0,0,1.07,6.53c2.11,5.49,6.75,9.75,11.94,12.65a40.44,40.44,0,0,0,43-2.31,22.83,22.83,0,0,0,4.92-4.58,12.3,12.3,0,0,0,2.09-4A12.52,12.52,0,0,0,136,375s0,0,0,0l-.21-.27a9,9,0,0,0-3.33-2.73,21.74,21.74,0,0,1,3,1.52h0a16,16,0,0,1,4.54,4.07,12.45,12.45,0,0,1,.92,1.43,11.76,11.76,0,0,1,1.42,4.37l0,.26A9.49,9.49,0,0,1,142.11,386.74Z" />
    <path class="BUNTAI_OWL_OUTFIT_BUNTAI_OWL_OUTFIT_32_d" d="M106.55,366.91c5.16-.45,9.5-.58,9.5-.58s-7.56-2.4-10.7-4.12a20.56,20.56,0,0,0-5.47-2.35c-2.94-.6-5.88.36-6.59,6.46h0S101.38,367.36,106.55,366.91Z" />
    <path class="BUNTAI_OWL_OUTFIT_BUNTAI_OWL_OUTFIT_32_d" d="M97.33,379.76c-4.06-1.09-9.43-5.33-11.59-7.78s-8.06-1.25-7.36,3.85A27.81,27.81,0,0,0,97.33,379.76Z" />
    <path class="BUNTAI_OWL_OUTFIT_BUNTAI_OWL_OUTFIT_32_i" d="M227.48,349a.58.58,0,0,1,.14,0" />
    <path class="BUNTAI_OWL_OUTFIT_BUNTAI_OWL_OUTFIT_32_i" d="M218.35,346.41a11.23,11.23,0,0,0,6.08.26,4.84,4.84,0,0,0,3,2.3" />
    <path class="BUNTAI_OWL_OUTFIT_BUNTAI_OWL_OUTFIT_32_i" d="M218.3,346.4c-.22-.07-.43-.15-.65-.24a6,6,0,0,1-.58-.26c-.18-.09-.37-.18-.55-.29l-.39-.22-.53-.35-.07-.05-.32-.24-.31-.25h0l-.13-.1-.32-.29-.3-.29c-.2-.2-.39-.41-.57-.62s-.3-.37-.44-.56a9,9,0,0,1-.56-.81l0,.05,0,.06c-.12.19-.26.37-.4.55a3.74,3.74,0,0,1-.27.31,6.45,6.45,0,0,1-.59.58,6.24,6.24,0,0,1-.65.5,2.64,2.64,0,0,1-.35.23l-.32.19a5.85,5.85,0,0,1-.56.28h0a3.33,3.33,0,0,1-.4.16h0a7.25,7.25,0,0,1-1.78.44,7,7,0,0,1-5.82-2,7.07,7.07,0,0,1-5,2.13,7.15,7.15,0,0,1-5.05-2,7.82,7.82,0,0,1-7.79,0,7.57,7.57,0,0,1-3.54-6.84,4.25,4.25,0,0,1-2.83,1l-.38,0-.38-.05c-.14,0-.28-.06-.41-.09l-.34-.11h-.08a2,2,0,0,1-.22-.09l-.26-.13a3.74,3.74,0,0,1-.49-.32c0,.06,0,.12-.07.17s0,0,0,0l0,0a2.44,2.44,0,0,1-.14.28,2.75,2.75,0,0,1-.17.29l-.08.13-.24.33,0,0-.27.29a4.61,4.61,0,0,1-.4.37,3.58,3.58,0,0,1-.39.29l0,0a4.92,4.92,0,0,1-.82.43l-.13.05-.12,0h0l-.38.11-.39.08-.19,0-.2,0-.4,0-.5,0-.17,0a4,4,0,0,1-.5-.1,2.14,2.14,0,0,1-.34-.09,3.94,3.94,0,0,1-.48-.18,16.94,16.94,0,0,0-2.92-1.46l-.39-.06-.26,0h-.13c-.68,0-1.37.12-2.06.13a6.7,6.7,0,0,1-4.43-1.51,6,6,0,0,1-.53-.48l-.26-.27-.06-.07c-.12-.14-.24-.28-.34-.42a5.59,5.59,0,0,1-.57-.89,2.2,2.2,0,0,1-.15-.31c-.06-.13-.12-.27-.17-.41h0v0a5.09,5.09,0,0,1-.26-1l-.29.07-.14,0-.43.08h0a2.85,2.85,0,0,1-.41,0l-.43,0a6.39,6.39,0,0,1-1.23-.11,5.45,5.45,0,0,1-1-.29.65.65,0,0,1-.22-.08,5,5,0,0,1-.87-.42,5.72,5.72,0,0,1-1.13-.82,6.23,6.23,0,0,1-2-4.55c0-.14,0-.28,0-.42a2.11,2.11,0,0,1,0-.25c0-.14,0-.27.05-.41s0,0,0,0,0-.21.07-.32l-.62.32c-.19.1-.39.2-.6.29l-.72.33h0l-.37.15-.45.16h0a3.8,3.8,0,0,1-.55.16h0l-.2.05h0l-.27.05a2.7,2.7,0,0,1-.41.07l-.29,0h-.19a4,4,0,0,1-.6,0,.83.83,0,0,1-.22,0,4.51,4.51,0,0,1-.53-.08,5.24,5.24,0,0,1-4-4.25,4.65,4.65,0,0,1,.14-2.07,3.71,3.71,0,0,1,.16-.47,1.59,1.59,0,0,1,.12-.27,1.4,1.4,0,0,1,.15-.3,3.21,3.21,0,0,1,.34-.59l.18-.28a2.48,2.48,0,0,1,.19-.26,9.32,9.32,0,0,1,.66-.75l.08-.07v0h0l.27-.26-.36-.32" />
    <path class="BUNTAI_OWL_OUTFIT_BUNTAI_OWL_OUTFIT_32_i" d="M158.67,294.28a7.07,7.07,0,0,1,1.39,3.14,6.42,6.42,0,0,1,3.87,3.14,6.13,6.13,0,0,1,.46,4.88,3.36,3.36,0,0,1,2.16-1.67,4.85,4.85,0,0,1,2.77.15,6.28,6.28,0,0,1,3.8,3.85,7.2,7.2,0,0,1,6.41,2.92,6.78,6.78,0,0,1,.85,6.82,3.63,3.63,0,0,1,2.72-2.13,2.25,2.25,0,0,1,1.26.12c.39.17,1.13.47,1.19.88a18.56,18.56,0,0,1,7.32-1.93,10.72,10.72,0,0,1,7.11,2.26,7.3,7.3,0,0,1,2.79,6.61,3.89,3.89,0,0,1,3.65,1.25c.87,1,1.57,2.61,1.07,3.84a2.44,2.44,0,0,1,2.65.47,3.26,3.26,0,0,1,.94,2.57,4.94,4.94,0,0,1-.68,2.59,3,3,0,0,1,3.07-1.35,3.08,3.08,0,0,1,2.46,2.36,5,5,0,0,1,5.51-1.55,4.65,4.65,0,0,1,2.95,4.68,6,6,0,0,1,5.3-.31l.38.17" />
    <path class="BUNTAI_OWL_OUTFIT_BUNTAI_OWL_OUTFIT_32_i" d="M137.53,320.24a27.27,27.27,0,0,0-8,5.22c-3.15,2.85-5.84,6.15-8.77,9.23a82.45,82.45,0,0,1-8.74,8c-1.11.89-2.25,1.74-3.41,2.56a12,12,0,0,0,.72,3.15,13.78,13.78,0,0,0,6.75,7.47,18.78,18.78,0,0,0,13.56.91,26.77,26.77,0,0,0,11.53-7.36c2.74,7.77,10.09,13.53,18.3,15.25s17-.35,24-4.83c6.81-4.35,14.95-6.14,22.73-8.41a68.58,68.58,0,0,1,12.39-2.66,32.23,32.23,0,0,1,8.83.23h0l.14,0" />
    <path class="BUNTAI_OWL_OUTFIT_BUNTAI_OWL_OUTFIT_32_i" d="M85.74,372a60.59,60.59,0,0,0,7.55-5.65" />
    <path class="BUNTAI_OWL_OUTFIT_BUNTAI_OWL_OUTFIT_32_i" d="M109.36,348.37c-3,3.94-6.12,7.84-9.48,11.49" />
    <path class="BUNTAI_OWL_OUTFIT_BUNTAI_OWL_OUTFIT_32_i" d="M78.38,375.83c-1.2.5-2.42.94-3.65,1.33" />
    <path class="BUNTAI_OWL_OUTFIT_BUNTAI_OWL_OUTFIT_32_i" d="M132.1,371.78l.37.17a9,9,0,0,1,3.33,2.73l.21.27s0,0,0,0a12.52,12.52,0,0,1,1.75,10.47,12.3,12.3,0,0,1-2.09,4,22.83,22.83,0,0,1-4.92,4.58,40.44,40.44,0,0,1-43,2.31c-5.19-2.9-9.83-7.16-11.94-12.65a16.49,16.49,0,0,1-1.07-6.53,38.19,38.19,0,0,1-3.78,1l-1.31.25a19.38,19.38,0,0,0,5.83,15.76,26.76,26.76,0,0,0,4.27,3.45h0c.47.32.94.62,1.43.89a40.33,40.33,0,0,0,9.91,4.07,54.33,54.33,0,0,0,31.24-1,52.16,52.16,0,0,0,12.16-5.89c3.37-2.22,6.65-5.09,7.6-9a9.49,9.49,0,0,0,.23-3.14l0-.26a11.76,11.76,0,0,0-1.42-4.37,12.45,12.45,0,0,0-.92-1.43,17.58,17.58,0,0,0-7.5-5.59" />
    <path class="BUNTAI_OWL_OUTFIT_BUNTAI_OWL_OUTFIT_32_i" d="M81.2,398.51A200.71,200.71,0,0,0,68,453h63.08" />
    <path class="BUNTAI_OWL_OUTFIT_BUNTAI_OWL_OUTFIT_32_i" d="M142.34,383.6a38.69,38.69,0,0,1,16.46-6.81,76.48,76.48,0,0,1,8-1c6.52-.5,13.1-.44,19.59-1.16a82.65,82.65,0,0,0,26.91-7.83c4.37-2.14,8.63-4.74,11.71-8.45a18.29,18.29,0,0,0,3.51-6.45" />
    <path class="BUNTAI_OWL_OUTFIT_BUNTAI_OWL_OUTFIT_32_i" d="M230.68,451.77A35.25,35.25,0,0,1,223.57,462c-9.45,9.5-24.3,13.29-42.72,11.63A119,119,0,0,1,139.27,462a47.68,47.68,0,0,1-15.83-27.07,43.93,43.93,0,0,1-.81-7.58c0-.41,0-.81,0-1.21s0-.77,0-1.15c0-1.26.12-2.53.25-3.78a47,47,0,0,1,1.79-8.76c.18-.61.38-1.21.59-1.81v0a47.62,47.62,0,0,1,2.87-6.55" />
    <path class="BUNTAI_OWL_OUTFIT_BUNTAI_OWL_OUTFIT_32_i" d="M122.88,421.22a28.76,28.76,0,0,1-2.4-15.27" />
    <path class="BUNTAI_OWL_OUTFIT_BUNTAI_OWL_OUTFIT_32_i" d="M220.53,427a79.62,79.62,0,0,1,13,17.53,75.13,75.13,0,0,1,3.51,7.29s2.26,5,5.34,10.24" />
    <path class="BUNTAI_OWL_OUTFIT_BUNTAI_OWL_OUTFIT_32_i" d="M124.67,412.46a57.15,57.15,0,0,1,17.9-7.55A83,83,0,0,1,198.72,411,80.44,80.44,0,0,1,220.53,427" />
    <path class="BUNTAI_OWL_OUTFIT_BUNTAI_OWL_OUTFIT_32_i" d="M197.44,372.64a49.3,49.3,0,0,0,7.13,26.5l.77,1.22c3.36,5.14,7.67,9.65,10.77,15A38.36,38.36,0,0,1,220.53,427h0" />
    <path class="BUNTAI_OWL_OUTFIT_BUNTAI_OWL_OUTFIT_32_i" d="M166.76,375.83c8.93,2.69,17.27,7.68,24.88,13.14q6.69,4.8,12.93,10.17S227,413,257,399.14" />
    <path class="BUNTAI_OWL_OUTFIT_BUNTAI_OWL_OUTFIT_32_i" d="M218.35,346.41h-.06c-18.61-3.43-45.81,15-56.58,13.1s-18.62-17.23-18.62-17.23-15.42,11.23-23.65,9.06c-4.85-1.27-6.7-5.45-7.39-8.67" />
    <path class="BUNTAI_OWL_OUTFIT_BUNTAI_OWL_OUTFIT_32_i" d="M93.29,366.33s8.09,1,13.26.58,9.5-.58,9.5-.58-7.56-2.4-10.7-4.12a20.56,20.56,0,0,0-5.47-2.35c-2.94-.6-5.88.36-6.59,6.46Z" />
    <path class="BUNTAI_OWL_OUTFIT_BUNTAI_OWL_OUTFIT_32_i" d="M78.38,375.83a27.81,27.81,0,0,0,19,3.93c-4.06-1.09-9.43-5.33-11.59-7.78S77.68,370.73,78.38,375.83Z" />
    <path class="BUNTAI_OWL_OUTFIT_BUNTAI_OWL_OUTFIT_32_i" d="M312.19,312.67a10.88,10.88,0,0,1-2.67,4.3,4.94,4.94,0,0,1,.36.44,5,5,0,0,1,.4.54c.07.1.13.21.19.31a7.37,7.37,0,0,1,.54,1.09,3.56,3.56,0,0,1,.13.39l.06.24a2.5,2.5,0,0,1,.07.26,5.51,5.51,0,0,1,.12,2.07,4.93,4.93,0,0,1-3.22,4.25,3.54,3.54,0,0,1-.85.11,1.72,1.72,0,0,1-.32,0h-.24a4.1,4.1,0,0,1-.48-.1l-.41-.12-.06,0-.2-.08a8.15,8.15,0,0,1-1-.46h0c-.48-.26-.95-.56-1.41-.85a2.56,2.56,0,0,1,.05.27,7.18,7.18,0,0,1-1.49,5.72,2.08,2.08,0,0,1-.21.21l-.17.18a4.67,4.67,0,0,1-.84.64l-.07,0h0l-.05,0h0l-.14.08a2.85,2.85,0,0,1-.72.31l-.42.12a4.17,4.17,0,0,1-.49.08,4,4,0,0,1-.49,0h0a3.15,3.15,0,0,1-.53,0l-.27,0-.27-.06h0l-.34-.1a2.7,2.7,0,0,1-.07.41l0,.16-.06.25a1.82,1.82,0,0,1-.07.25h0c0,.11-.07.22-.11.33s-.07.2-.11.29a1,1,0,0,1,0,.1v0a0,0,0,0,1,0,0l0,0a4.51,4.51,0,0,1-.22.44l0,.07c-.07.13-.15.26-.23.38a.61.61,0,0,1-.07.1,2.43,2.43,0,0,1-.14.2,5.43,5.43,0,0,1-.69.83,4.79,4.79,0,0,1-3.58,1.51l-.4,0-.4-.05-.4,0-.31,0h0l-.38,0-.16,0-.23.05a13.18,13.18,0,0,0-2.37,1.46,2.53,2.53,0,0,1-.37.18l-.19.06-.17.06h-.05a3.25,3.25,0,0,1-2.31-.24.87.87,0,0,1-.18-.11l0,0,0,0a2.11,2.11,0,0,1-.27-.18l-.08,0,0,0,0,0h0l-.34-.31-.13-.14,0,0a1.79,1.79,0,0,1-.22-.25h0a.71.71,0,0,1-.1-.14,2.39,2.39,0,0,1-.21-.34l-.05-.07h0a1.68,1.68,0,0,1-.15-.3h0s0,0,0,0a2,2,0,0,1-.11-.26l0-.07-.09-.26a3.25,3.25,0,0,1-.47.36s0,0,0,0a3.4,3.4,0,0,1-.5.26h-.11l-.07,0-.09,0h0a1.1,1.1,0,0,1-.26.06l-.27,0h-.29l-.28,0-.16,0-.15,0a2.93,2.93,0,0,1-.89-.34l-.18-.11-.05,0-.07-.06-.12-.09-.16-.14-.19-.19a9.4,9.4,0,0,1,0,1.4.5.5,0,0,1,0,.12c0,.27-.08.54-.13.8h0c-.05.22-.11.44-.17.65s-.05.17-.08.25h0c-.06.19-.13.38-.2.57s-.08.19-.13.29-.08.18-.13.27a7.37,7.37,0,0,1-.43.78l-.15.22-.2.27a2.88,2.88,0,0,1-.27.34l-.29.31a6.64,6.64,0,0,1-.64.55l-.18.11-.28.19-.28.16a3.39,3.39,0,0,1-.39.18l-.19.08h0l-.2.06-.4.11-.21,0-.27,0-.09,0h-.18a4.94,4.94,0,0,1-.86,0h-.09l-.14,0-.3,0h0l-.1,0h-.05l-.43-.12-.11,0h0l-.39-.14c-.12-.06-.25-.11-.37-.18h0a5.33,5.33,0,0,1-.72-.44,5.25,5.25,0,0,1-4.08,2,4.7,4.7,0,0,1-2.12-.54l-.17-.09-.09-.06-.08,0-.18-.11-.11-.08h0a2.37,2.37,0,0,1-.3-.23,5.34,5.34,0,0,1-.44-.39l-.2-.21c-.07-.07-.13-.15-.2-.23a.71.71,0,0,1-.12-.13,4.94,4.94,0,0,1-.54.57s0,0,0,0l0,0c-.11.11-.23.21-.34.3a2.55,2.55,0,0,1-.28.21l-.23.15-.11.07-.11.06-.15.08-.16.08-.05,0-.23.1h0l0,0-.18.06-.06,0-.41.11h0l-.15,0a.86.86,0,0,1-.17,0h0l-.14,0H256l-.36,0a5.81,5.81,0,0,1-.72-.05,1.91,1.91,0,0,1-.33-.06l-.33-.08L254,345s0,0,0,0l-.09,0-.27-.11c-.11,0-.21-.1-.32-.15l-.3-.17-.3-.19-.18-.13-.29-.23,0,0-.21-.18a3.59,3.59,0,0,1-.39-.39l-.08-.08a.39.39,0,0,1-.08-.1l-.12-.14-.12-.15-.05-.07a.36.36,0,0,1-.07-.1,5.39,5.39,0,0,1-.33-.5l0,0a3.35,3.35,0,0,1-.21-.36,12.34,12.34,0,0,1-.81,1.37,11.47,11.47,0,0,1-1,1.2c-.15.16-.3.31-.46.46l0,0,0,0a2.69,2.69,0,0,1-.32.27l-.26.22,0,0-.06,0c-.19.14-.39.27-.59.39l-.55.31h0a3.91,3.91,0,0,1-.51.24" />
    <path class="BUNTAI_OWL_OUTFIT_BUNTAI_OWL_OUTFIT_32_i" d="M240.05,347.92a4.5,4.5,0,0,0,.84-1.25,7.43,7.43,0,0,0,4.92-.26" />
    <path class="BUNTAI_OWL_OUTFIT_BUNTAI_OWL_OUTFIT_32_i" d="M237.11,337.66a4,4,0,0,1,3.82.52,4.79,4.79,0,0,1,2.39-4.68,3.59,3.59,0,0,1,4.46,1.55,2.82,2.82,0,0,1,2-2.36,2.27,2.27,0,0,1,2.48,1.35,6,6,0,0,1-.54-2.59,3.71,3.71,0,0,1,.76-2.57,1.7,1.7,0,0,1,2.15-.47,4.74,4.74,0,0,1,.86-3.84,2.82,2.82,0,0,1,3-1.25,8.17,8.17,0,0,1,2.27-6.61,7.62,7.62,0,0,1,5.75-2.26,12.87,12.87,0,0,1,5.94,1.93c.05-.41.64-.71,1-.88a1.5,1.5,0,0,1,1-.12,3.15,3.15,0,0,1,2.2,2.12,8.08,8.08,0,0,1,.69-6.81,5.46,5.46,0,0,1,5.19-2.92,5.86,5.86,0,0,1,3.08-3.85,3.24,3.24,0,0,1,2.25-.15,2.89,2.89,0,0,1,1.74,1.67,7.44,7.44,0,0,1,.38-4.88,5.55,5.55,0,0,1,3.13-3.14,7.81,7.81,0,0,1,1.73-4" />
    <path class="BUNTAI_OWL_OUTFIT_BUNTAI_OWL_OUTFIT_32_i" d="M311.27,320.24a22.11,22.11,0,0,1,6.45,5.22c2.55,2.85,4.74,6.15,7.1,9.23a75.45,75.45,0,0,0,7.09,8c.9.89,1.83,1.74,2.76,2.56a14.26,14.26,0,0,1-.59,3.15,13.08,13.08,0,0,1-5.47,7.47,12.55,12.55,0,0,1-11,.91,21.83,21.83,0,0,1-9.35-7.36c-2.21,7.77-8.17,13.53-14.81,15.25s-13.75-.35-19.44-4.83c-5.52-4.35-12.11-6.14-18.41-8.41a46.76,46.76,0,0,0-10-2.66,22.26,22.26,0,0,0-5.65,0" />
    <path class="BUNTAI_OWL_OUTFIT_BUNTAI_OWL_OUTFIT_32_i" d="M347.1,366.33a51.61,51.61,0,0,0,6.12,5.65" />
    <path class="BUNTAI_OWL_OUTFIT_BUNTAI_OWL_OUTFIT_32_i" d="M341.76,359.86c-2.72-3.65-5.23-7.55-7.68-11.49" />
    <path class="BUNTAI_OWL_OUTFIT_BUNTAI_OWL_OUTFIT_32_i" d="M362.14,377.16a28.91,28.91,0,0,1-2.95-1.33h0" />
    <path class="BUNTAI_OWL_OUTFIT_BUNTAI_OWL_OUTFIT_32_i" d="M356.89,398.52a29.71,29.71,0,0,1-8,4.06c-11.8,4-25,1.39-35.15-6.87-2.73-2.22-5.39-5.1-6.16-9a11.9,11.9,0,0,1-.19-3.15,13.94,13.94,0,0,1,1.92-6.06,15.37,15.37,0,0,1,6.37-5.75c-4,2-5.81,8.59-4.59,13.65a16.91,16.91,0,0,0,5.69,8.59,29,29,0,0,0,17.13,7.37,28,28,0,0,0,17.71-5.06,24.4,24.4,0,0,0,9.66-12.64,20.47,20.47,0,0,0,.88-6.54,25.31,25.31,0,0,0,4.12,1.24,22.14,22.14,0,0,1-4.73,15.76,23.86,23.86,0,0,1-4.64,4.36" />
    <path class="BUNTAI_OWL_OUTFIT_BUNTAI_OWL_OUTFIT_32_i" d="M356.89,398.52A240.16,240.16,0,0,1,367.56,453H316.61" />
    <path class="BUNTAI_OWL_OUTFIT_BUNTAI_OWL_OUTFIT_32_i" d="M238.11,353.69a20.43,20.43,0,0,0,2.34,4.7,29.18,29.18,0,0,0,9.48,8.45,58,58,0,0,0,12.82,5.8,54.72,54.72,0,0,0,9,2c5.26.72,10.59.66,15.86,1.16a50.43,50.43,0,0,1,6.45,1,28.45,28.45,0,0,1,13.33,6.81" />
    <path class="BUNTAI_OWL_OUTFIT_BUNTAI_OWL_OUTFIT_32_i" d="M309.86,462a45,45,0,0,0,6.63-9.06l.11-.2,0-.09A53.75,53.75,0,0,0,322.51,436v0l.16-1a52.71,52.71,0,0,0,.65-7.42c0-.43,0-.85,0-1.27s0-.66,0-1,0-.58,0-.87c0-.58,0-1.13-.07-1.68a58.56,58.56,0,0,0-1.56-10.26c-.15-.59-.3-1.17-.46-1.76l0-.07h0a51.72,51.72,0,0,0-2.32-6.54" />
    <path class="BUNTAI_OWL_OUTFIT_BUNTAI_OWL_OUTFIT_32_i" d="M325.08,406a34.84,34.84,0,0,1-1.94,15.27" />
    <path class="BUNTAI_OWL_OUTFIT_BUNTAI_OWL_OUTFIT_32_i" d="M244,427A68.18,68.18,0,0,1,261.7,411a55.76,55.76,0,0,1,45.48-6.13,42.19,42.19,0,0,1,14.51,7.55" />
    <path class="BUNTAI_OWL_OUTFIT_BUNTAI_OWL_OUTFIT_32_i" d="M230.68,451.77c.84-2.49,1.79-4.93,2.84-7.29A81.15,81.15,0,0,1,244,427" />
    <path class="BUNTAI_OWL_OUTFIT_BUNTAI_OWL_OUTFIT_32_i" d="M244,427h0a44.19,44.19,0,0,1,3.59-11.63c2.51-5.31,6-9.82,8.72-15,.21-.41.42-.81.62-1.22a58.31,58.31,0,0,0,5.78-26.5" />
    <path class="BUNTAI_OWL_OUTFIT_BUNTAI_OWL_OUTFIT_32_i" d="M257,399.14Q262,393.79,267.44,389c6.17-5.46,12.92-10.45,20.15-13.14" />
    <path class="BUNTAI_OWL_OUTFIT_BUNTAI_OWL_OUTFIT_32_i" d="M331.91,342.66c-.56,3.22-2.06,7.4-6,8.67-6.66,2.17-19.15-9.06-19.15-9.06s-6.34,15.32-15.08,17.23S260.94,343,245.86,346.4h-.05" />
    <path class="BUNTAI_OWL_OUTFIT_BUNTAI_OWL_OUTFIT_32_i" d="M347.1,366.33s-6.56,1-10.74.58-7.69-.58-7.69-.58a62.17,62.17,0,0,0,8.66-4.12,15.25,15.25,0,0,1,4.43-2.35c2.39-.6,4.76.36,5.34,6.46Z" />
    <path class="BUNTAI_OWL_OUTFIT_BUNTAI_OWL_OUTFIT_32_i" d="M359.19,375.83a19.45,19.45,0,0,1-15.36,3.93c3.29-1.09,7.64-5.33,9.39-7.78S359.74,370.73,359.19,375.83Z" />
    <path class="BUNTAI_OWL_OUTFIT_BUNTAI_OWL_OUTFIT_32_i" d="M237.11,337.66c1.81,1.78,3,5,3,8.63,0,.55,0,1.09-.08,1.63,0,.26-.06.53-.1.79a12.34,12.34,0,0,1-1.84,5,5.4,5.4,0,0,1-4.34,2.73c-2.21,0-4.15-1.78-5.29-4.48a13.54,13.54,0,0,1-.86-2.93h0a15.82,15.82,0,0,1-.22-2.71,12.75,12.75,0,0,1,2.66-8.25,5,5,0,0,1,3.71-1.88,4.73,4.73,0,0,1,3.33,1.5Z" />
    <g class="BUNTAI_OWL_OUTFIT_BUNTAI_OWL_OUTFIT_32_j">
      <path d="M230.68,451.77A45.72,45.72,0,0,1,228.84,462h-5.27c-9.45,9.5-24.3,13.29-42.72,11.63A119,119,0,0,1,139.27,462a47.74,47.74,0,0,1-8.16-9H68a200.71,200.71,0,0,1,13.17-54.5c-.49-.27-1-.57-1.43-.89,1,.53,22.49,11.76,42.84,3.4-.08.19-.17.37-.26.57-.66,1.43-1.32,2.88-1.87,4.42-1.86,5.21-2.51,11.49,2.15,21.54a1.21,1.21,0,0,1,0-.19c0-.41,0-.81,0-1.21s0-.77,0-1.15c0-1.37.11-2.64.23-3.84a36.66,36.66,0,0,1,2.4-10.51v0s.12.43.37,1.21c2,6.53,13.16,37.52,42.49,45.6C201,466.49,230.68,451.77,230.68,451.77Z" />
      <path d="M76.08,376.49s10.23,14.29,27,17.28,36.43-10.14,32.33-20.31c5.49,13.16-.38,22-16.26,27.36s-38.57-.09-43.37-10.9S71,378.15,71,378.15Z" />
      <path d="M80.6,371.25s1.45,7.88,15.62,8.15c-14.15-.2-17.84-3.57-17.84-3.57S78.21,372.33,80.6,371.25Z" />
      <path d="M93.38,365.68S96.1,367,103.63,367s9.88-.55,9.88-.55-9.27-1.57-13.63-2.66-5.23-2-5.23-2Z" />
      <path d="M220.27,425.76s-19.65-22.23-51.12-28.1-40.87,3.79-40.87,3.79,7.93-10.94,31.36-9.85S206.93,403.67,220.27,425.76Z" />
      <path d="M227,349.63s-13.84,12.75-28.13,16.1-30.72,3.81-44.92,9.18c13.19-6.38,29.08-9.66,29.08-9.66s-24.65,3-33.6,7.39-8.53,6.28-8.53,6.28l1.51,4.65s6.62-8.82,32.69-8.18,41.32-10.5,46.42-13.61a18,18,0,0,0,7-8.72Z" />
      <path d="M232.48,336.37s-2.87,8.1-1.29,13.17,4.78,6.25,4.78,6.25-6.49,2.55-8.35-6.78C226.78,342.84,228,337.14,232.48,336.37Z" />
      <path d="M228.48,343.29V349a3,3,0,0,1-.87-.1,7.33,7.33,0,0,1-2.12-.92h0l0,0h0a11.46,11.46,0,0,1-1.5-1.14h0a13.09,13.09,0,0,1-9-2.27h0l-.13-.1a8.73,8.73,0,0,1-2.22-2.52c-.12-.2-.23-.4-.33-.61-3.64,4.57-6.41,4.54-10.9,1.95-5.47,2.44-6.11-2.49-9.89-.1s-10,1.74-11.46-6.63a6.14,6.14,0,0,1-4.34.76h-.08a4.07,4.07,0,0,1-1-.37h0v0c0,.24-.16,2-2.72,2.56l-.12,0h0a7.86,7.86,0,0,1-1.57.17,7.08,7.08,0,0,1-1.16-.06c-2.15-.22-3.16-1.23-4.5-1.81h0a4.8,4.8,0,0,0-2.85-.28c-2.61.43-4.69-2.25-5.72-3.95h0v0c-.25-.39-.42-.71-.55-1l-.17-.36s-7.47,2.34-7.2-7l-.43.16c-.67.25-1.29.46-1.87.62h-.05c-4.35,1.21-6.51.09-7.65-2.86a4.85,4.85,0,0,1,.25-4.17c.05-.1.11-.2.17-.3l.18-.28a2.48,2.48,0,0,1,.19-.26,5.31,5.31,0,0,1,.66-.75l.08-.07,0,0c0-.2-.07-.4-.09-.58-.62-4.82,4-3,4-3s.85-4.77,3.12-5.31a15.48,15.48,0,0,0,3.58,5.23c10.42.18,16.51,4.91,17.43,6.7s7.92,5.87,9.63,6.23,12.32-1.09,19,3,12.18,7.32,12.92,7.77,5.9,2.06,7.1,2.71.74,1.27,6.36,1.36c2.9.05,4.41.57,5.2,1.08a1.1,1.1,0,0,1,.21.14A1.59,1.59,0,0,1,228.48,343.29Z" />
      <path d="M109.36,344.7s4.07,14.88,15.88,9.81,17.61-7.69,17.61-7.69,11.36,14.68,17.26,15.84,8.2,2.45,8.2,2.45l-.18.62s-13.38-.65-17.86-5-6.81-6.39-9-11.12c-3.88,4.34-12.84,10.71-22.77,7.17S108.54,346.44,109.36,344.7Z" />
      <path d="M322.52,436v0a89.68,89.68,0,0,1-5.86,16.67l0,.09V453l-.11-.06a45,45,0,0,1-6.63,9.06c-20.61,22.21-61.09,9.82-65.26,3.56-.78-1.17-1.52-2.37-2.22-3.56h-4.65a55.72,55.72,0,0,1-1.48-10.24s.37.23,1.06.6c4.88,2.66,26.16,13,49.35,5.07,23.64-8.08,32.61-39.07,34.26-45.6.19-.78.28-1.21.28-1.21l0,.07a45,45,0,0,1,1.91,10.49c0,.5.08,1,.11,1.53s.05,1.1.07,1.68c0,.29,0,.57,0,.87s0,.59,0,.89v0c0,.45,0,.9,0,1.37v0c0-.09.07-.18.11-.26A32.57,32.57,0,0,1,322.52,436Z" />
      <path d="M341.17,403.77a24.51,24.51,0,0,1-3.56.32C338.83,404,340,403.93,341.17,403.77Z" />
      <path d="M360.84,376.49s-8.24,14.29-21.77,17.28S309.71,383.63,313,373.46c-4.42,13.16.31,22,13.11,27.36s31.08-.09,34.95-10.9,3.9-11.77,3.9-11.77Z" />
      <path d="M357.2,371.25s-1.17,7.88-12.59,8.15c11.4-.2,14.38-3.57,14.38-3.57S359.13,372.33,357.2,371.25Z" />
      <path d="M346.9,365.68s-2.19,1.27-8.26,1.31-8-.55-8-.55,7.47-1.57,11-2.66,4.22-2,4.22-2Z" />
      <path d="M244.64,425.76s15.84-22.23,41.2-28.1,32.93,3.79,32.93,3.79-6.39-10.94-25.27-9.85S255.39,403.67,244.64,425.76Z" />
      <path d="M239.24,349.63s11.15,12.75,22.67,16.1,24.75,3.81,36.2,9.18c-10.63-6.38-23.43-9.66-23.43-9.66s19.86,3,27.07,7.39,6.88,6.28,6.88,6.28l-1.22,4.65s-5.34-8.82-26.35-8.18-33.29-10.5-37.41-13.61-5.63-8.72-5.63-8.72Z" />
      <path d="M234.8,336.37s2.31,8.1,1,13.17-3.85,6.25-3.85,6.25,5.23,2.55,6.72-6.78C239.39,342.84,238.38,337.14,234.8,336.37Z" />
      <path d="M311.2,320a6,6,0,0,1-.15,3.1c-.95,3-2.75,4.13-6.44,2.77h0c-.43-.16-.88-.35-1.36-.58h0l-.24-.11c.08,3.18-.56,5-1.45,6l-.17.18a3.29,3.29,0,0,1-.84.64l-.07,0h0l-.05,0h0a4.45,4.45,0,0,1-3.19.09s-.05.15-.15.39h0a13.9,13.9,0,0,1-.83,1.7v0a0,0,0,0,1,0,0l0,0c-.92,1.62-2.4,3.49-4.18,3.12a3.17,3.17,0,0,0-2.29.28h0c-1.12.6-2,1.69-3.87,1.85h-.05a4.42,4.42,0,0,1-.64,0,4.84,4.84,0,0,1-1.85-.37l0,0,0,0a.3.3,0,0,1-.11-.06,2.69,2.69,0,0,1-1.39-1.53h0a2.36,2.36,0,0,1-.15-.78l-.17.1a2.88,2.88,0,0,1-1.07.37h-.08a4.21,4.21,0,0,1-3.08-.84l0,.19c-.06.42-.14.83-.23,1.21a.5.5,0,0,1,0,.12c-.62,2.76-1.72,4.5-3,5.43l-.28.19-.28.16a3.39,3.39,0,0,1-.39.18l-.19.08h0l-.2.06-.4.11-.21,0-.27,0h-.09l-.36,0a5.33,5.33,0,0,1-3.28-1.21c-3-2.39-3.57,2.54-8,.1l-.19.13c-.23.16-.45.31-.66.44,0,0,0,0,0,0l0,0c-3.1,1.94-5.19,1.6-7.88-2.57a8.63,8.63,0,0,1-.43.92,8.27,8.27,0,0,1-4.32,4h0a9.75,9.75,0,0,1-4.69.61.46.46,0,0,1-.07.07,8.57,8.57,0,0,1-1.61,1.41,4,4,0,0,1-1.27.61h0a1.87,1.87,0,0,1-.7.11v-5.68a1.65,1.65,0,0,1,.67-.91,3.55,3.55,0,0,1,.82-.48,8.77,8.77,0,0,1,3.37-.6c4.53-.09,4.16-.72,5.13-1.36s5.13-2.25,5.72-2.71,5.06-3.7,10.41-7.77,13.9-2.63,15.28-3,7-4.43,7.76-6.23,5.65-6.52,14.05-6.7c2-2.27,3.24-5.93,3.9-8.65a5,5,0,0,1,1.13,5.75c2.78-1.32,5.57-.15,5.92,2a1.09,1.09,0,0,1,0,.26,13,13,0,0,1-2.4,4.28l0,0a6,6,0,0,1,1.21,2.12,3.56,3.56,0,0,1,.13.39Z" />
      <path d="M334,344.7s-3.28,14.88-12.79,9.81-14.2-7.69-14.2-7.69-9.16,14.68-13.91,15.84-6.6,2.45-6.6,2.45l.14.62s10.79-.65,14.39-5,5.49-6.39,7.24-11.12c3.13,4.34,10.35,10.71,18.35,7.17S334.68,346.44,334,344.7Z" />
      <path d="M323.34,401c2.37,6.34,5,13,.1,26.24,0-.32-.05-.63-.08-.93,0-.05,0-.1,0-.15v0l-1.15-9.87-1-5.66.26-12.12s3.54,5.17,15.38,5.57h.62A28.89,28.89,0,0,1,323.34,401Z" />
    </g>
    <path class="BUNTAI_OWL_OUTFIT_BUNTAI_OWL_OUTFIT_32_k" d="M233.52,405.18a21.43,21.43,0,0,0-5-10.91" />
    <path class="BUNTAI_OWL_OUTFIT_BUNTAI_OWL_OUTFIT_32_k" d="M234.85,394.27s-2.46,3.49-2.85,5.53" />
    <path class="BUNTAI_OWL_OUTFIT_BUNTAI_OWL_OUTFIT_32_l" d="M158.67,294.28a10.91,10.91,0,0,1-4.84,2.86c-2.79.64-5,1.17-3.37,6-3.09-1.14-4.83,2.88-3.44,5.15a1.69,1.69,0,0,0-.55.05c-2.27.54-3.12,5.31-3.12,5.31s-4.63-1.79-4,3c0,.18,0,.38.09.58h0" />
    <path class="BUNTAI_OWL_OUTFIT_BUNTAI_OWL_OUTFIT_32_l" d="M294.76,293.46a14.26,14.26,0,0,0,5,5.29c2.28-1.44,5.55,1.44,3.22,5.51a2.73,2.73,0,0,1,2.12.63,5,5,0,0,1,1.13,5.75c2.78-1.32,5.57-.15,5.92,2a1.09,1.09,0,0,1,0,.26c.09,1.23-.57,2.74-2.4,4.28l0,0" />
  </g>
</svg>