<svg xmlns="http://www.w3.org/2000/svg" viewBox="0 0 432 432">
  <defs>
    <style>.BUNTAI_OWL_OUTFIT_BUNTAI_OWL_OUTFIT_22_a{isolation:isolate;}.BUNTAI_OWL_OUTFIT_BUNTAI_OWL_OUTFIT_22_b{fill:#5883dd;}.BUNTAI_OWL_OUTFIT_BUNTAI_OWL_OUTFIT_22_c{fill:#eebe90;}.BUNTAI_OWL_OUTFIT_BUNTAI_OWL_OUTFIT_22_d{fill:#0f0f18;}.BUNTAI_OWL_OUTFIT_BUNTAI_OWL_OUTFIT_22_e{fill:#1b1b24;}.BUNTAI_OWL_OUTFIT_BUNTAI_OWL_OUTFIT_22_f{fill:#200b3e;}.BUNTAI_OWL_OUTFIT_BUNTAI_OWL_OUTFIT_22_g{fill:#fff;}.BUNTAI_OWL_OUTFIT_BUNTAI_OWL_OUTFIT_22_h{fill:none;stroke:#000;stroke-linecap:round;stroke-linejoin:round;stroke-width:1.86px;}.BUNTAI_OWL_OUTFIT_BUNTAI_OWL_OUTFIT_22_i{opacity:0.43;mix-blend-mode:multiply;}</style>
  </defs>
  <g class="BUNTAI_OWL_OUTFIT_BUNTAI_OWL_OUTFIT_22_a">
    <path class="BUNTAI_OWL_OUTFIT_BUNTAI_OWL_OUTFIT_22_b" d="M249.65,412.81a1.89,1.89,0,0,0,2.47-.2l1.15-1.27c0,2.59-2.44,7.22-6.53,11.73s-8.61,7.59-11.41,8l-.06,0a1.5,1.5,0,0,0-.57-1.63l0,0a1.88,1.88,0,0,0-2.07-.09c-.05-2.59,2.44-7.48,6.54-12s8.61-7.6,11.41-8l-1.14,1.26A1.51,1.51,0,0,0,249.65,412.81Z" />
    <path class="BUNTAI_OWL_OUTFIT_BUNTAI_OWL_OUTFIT_22_c" d="M260,404a12.85,12.85,0,0,1-1.6-1.16,9.38,9.38,0,0,1-1-1l-.48.52-.24.27h0l0,0,0,0-3.22,3.54a6.67,6.67,0,0,0-2.37-.34c-4.74.14-10.69,4.89-14.69,9.31-5,5.45-9.17,12.92-6.42,17.05l-2.06,2.26a7,7,0,0,0-2.44-.37c-4.73.13-10.69,4.89-14.69,9.3-3.46,3.81-6.55,8.61-7.15,12.56,1.29-.17,2.57-.33,3.82-.47a28.37,28.37,0,0,1,6.18-9.94c4.09-4.51,8.61-7.59,11.41-8l.05,0-1.16,1.28a1.5,1.5,0,0,0,.24,2.24v0a1.87,1.87,0,0,0,2.46-.21l1.13-1.23c0,2.61-2.49,7.18-6.54,11.63a42.27,42.27,0,0,1-3.09,3.06q2.86-.27,5.53-.46c.14-.15.28-.29.41-.44a35.58,35.58,0,0,0,6.28-9.23c1.63-3.8,1.23-6.2.24-7.7l2.13-2.33a6.69,6.69,0,0,0,2.28.31c4.72-.14,10.68-4.9,14.68-9.31a35.41,35.41,0,0,0,6.27-9.22c1.66-3.86,1.23-6.26.22-7.76l3.31-3.64Zm-13.23,19.11c-.32.35-.64.69-1,1s-.57.58-.86.86-.84.82-1.28,1.2l-.26.23q-1.05.93-2.07,1.68c-.19.14-.37.28-.56.4a16.24,16.24,0,0,1-1.66,1.09c-.23.14-.46.28-.69.4l-.68.34a2,2,0,0,1-.33.15l-.62.26a1.86,1.86,0,0,1-.31.1l-.29.1a4.71,4.71,0,0,1-.57.14l-.26.06-.06,0a1.5,1.5,0,0,0-.57-1.63l0,0a1.86,1.86,0,0,0-2.06-.09c-.06-2.59,2.43-7.48,6.52-12s8.62-7.58,11.42-8l-1.14,1.26a1.51,1.51,0,0,0,.23,2.25,1.89,1.89,0,0,0,2.47-.2l1.15-1.27C253.32,413.93,250.83,418.55,246.74,423.07Z" />
    <path class="BUNTAI_OWL_OUTFIT_BUNTAI_OWL_OUTFIT_22_d" d="M310.34,314.93h0l-1.64-1.8s3.1-2.52,6.5,1.37l-1.48,4a93.57,93.57,0,0,1-5.5,11.6c-3.89,7-21.91,32.94-42.59,50.27-4.41,3.9-6.91,8.72-6.84,13.21a8,8,0,0,0,2.62,6.21,10,10,0,0,0,7.56,2.12c5.26-.48,10.79-4.13,15.58-10.27,8.92-11.44,35.08-42.49,51.27-51.94.38-.23.75-.44,1.12-.63l3-1.5c2,2.1,2.89,4.46,1.83,7.14l-2.55-2.15c-14.32,7.67-40.16,37.48-51,51.42-10,12.85-21.48,14-28.18,9.94a11.71,11.71,0,0,1-1.61-1.15,9.27,9.27,0,0,1-1-1c-5.21-5.69-3.89-16.35,5.19-24.37,19.6-16.39,37.38-41.39,41.69-49.15A83,83,0,0,0,310.34,314.93Z" />
    <path class="BUNTAI_OWL_OUTFIT_BUNTAI_OWL_OUTFIT_22_e" d="M339.53,337.21l-.39-.37-.35-.32c-.3-.27-.62-.54-1-.8h0l0,0h0c-.38-.31-.79-.59-1.2-.89a45.85,45.85,0,0,0-4.37-2.68q-.76-.44-1.53-.93a46.06,46.06,0,0,1-8.85-7.92,59.22,59.22,0,0,1-5.58-7.35,12.84,12.84,0,0,0-1.08-1.44l-1.47,4a95.77,95.77,0,0,1-5.5,11.61l-.23.4c-.07.14-.16.29-.25.44l-.28.47-.24.4c-.34.55-.72,1.16-1.15,1.83l-.41.64q-.76,1.17-1.68,2.52l-.37.54c-1.2,1.75-2.58,3.71-4.13,5.82-.18.26-.38.53-.59.8s-.46.62-.7.94-.47.65-.72,1c-.49.65-1,1.31-1.51,2l-.67.86c-1.85,2.41-3.87,4.92-6,7.48-.69.83-1.39,1.66-2.12,2.5l-1.54,1.79q-1.8,2.06-3.69,4.11l-1.21,1.31c-2.3,2.48-4.7,4.93-7.17,7.31-.52.49-1,1-1.56,1.48s-1,1-1.57,1.46l-1.47,1.33c-1.1,1-2.2,1.94-3.32,2.88-4.41,3.9-6.91,8.72-6.85,13.21a8,8,0,0,0,2.63,6.21A10.08,10.08,0,0,0,269,402c5.26-.49,10.8-4.14,15.58-10.28.58-.76,1.25-1.59,2-2.51l1-1.2c1.75-2.15,3.8-4.64,6.08-7.34l1.23-1.45c2.61-3.06,5.47-6.34,8.5-9.68.19-.22.38-.43.58-.64a3.08,3.08,0,0,1,.3-.33l1.26-1.38a.22.22,0,0,1,.06-.07s0-.05.06-.06,0-.05.06-.07h0c3-3.27,6.12-6.53,9.24-9.65l1.48-1.47c.43-.43.86-.84,1.29-1.25l1.39-1.35,1.38-1.3c.62-.57,1.23-1.14,1.84-1.69.76-.7,1.52-1.37,2.27-2,.45-.39.89-.78,1.33-1.15s1.14-1,1.7-1.42a66.77,66.77,0,0,1,8.28-5.9c.38-.23.75-.44,1.12-.63l3-1.5ZM269.1,396.83a4.51,4.51,0,1,1,4.93-4.5A4.73,4.73,0,0,1,269.1,396.83Zm9.07-13.08a2,2,0,1,1,2.19-2A2.1,2.1,0,0,1,278.17,383.75Zm18.58-25.82a4.52,4.52,0,1,1-4.93,4.5A4.74,4.74,0,0,1,296.75,357.93Zm-11.35,17a.34.34,0,0,1-.11-.07.51.51,0,0,1-.13-.09,1.91,1.91,0,0,1-.46-.48.72.72,0,0,1-.12-.21,1.11,1.11,0,0,1-.12-.27,2.06,2.06,0,0,1-.07-.29,1.42,1.42,0,0,1,0-.29,1.9,1.9,0,0,1,.11-.63,2.29,2.29,0,0,1,.1-.23.6.6,0,0,1,.09-.15,2.07,2.07,0,0,1,.17-.24s0,0,0,0a1.47,1.47,0,0,1,.22-.21h0a.94.94,0,0,1,.12-.09.36.36,0,0,1,.12-.08,1.49,1.49,0,0,1,.44-.21,1.11,1.11,0,0,1,.26-.07l.11,0a2.73,2.73,0,0,1,.41,0,2,2,0,1,1,0,4l-.25,0a1.57,1.57,0,0,1-.24,0l-.24-.07-.22-.08ZM306.47,353a2.11,2.11,0,0,1-2.25-1.95,2.08,2.08,0,0,1,2.14-2.05,2,2,0,1,1,.11,4Zm8.16-8.7a2.12,2.12,0,0,1-2.25-2,2.09,2.09,0,0,1,2.13-2,2.13,2.13,0,0,1,2.26,1.95A2.09,2.09,0,0,1,314.63,344.3Zm9.73-10.52a1.76,1.76,0,0,1-.09.2.85.85,0,0,1-.13.22l0,0a1.93,1.93,0,0,1-.27.3l-.06.06-.14.11-.11.07-.25.14-.27.1a1.91,1.91,0,0,1-.68.12,2.13,2.13,0,0,1-2.26-1.95v0a2.11,2.11,0,0,1,0-.25.58.58,0,0,1,0-.19.42.42,0,0,1,0-.15.47.47,0,0,1,.06-.15,1.58,1.58,0,0,1,.2-.36.83.83,0,0,1,.12-.16c.05,0,.09-.1.14-.14a2.09,2.09,0,0,1,.32-.25.77.77,0,0,1,.18-.1l.16-.08a2.46,2.46,0,0,1,.58-.16l.28,0a2.13,2.13,0,0,1,2.26,1.95v.14a.64.64,0,0,1,0,.2,1.32,1.32,0,0,1-.07.3h0Z" />
    <path class="BUNTAI_OWL_OUTFIT_BUNTAI_OWL_OUTFIT_22_b" d="M358.32,358.09A74.64,74.64,0,0,1,332,394.47c0,.37-.08.74-.13,1.1-.09.58-.19,1.17-.32,1.74,0,.19-.09.37-.14.55s-.18.66-.28,1a.66.66,0,0,1-.05.15,4.76,4.76,0,0,1-.19.53.69.69,0,0,1-.05.13,5.49,5.49,0,0,1-.21.51c0,.1-.08.2-.13.3s-.19.39-.29.58a1.29,1.29,0,0,1-.18.32,6.21,6.21,0,0,1-.35.6,54.92,54.92,0,0,1,.56,7.7c0,.24,0,.5,0,.77v.14l0,1c0,.36,0,.72-.05,1.09s-.07.86-.11,1.3q0,.27-.06.57l-.06.63c0,.05,0,.09,0,.14,0,.27-.06.55-.1.82s-.09.63-.14,1A42.45,42.45,0,0,1,326,429c-3.64,7.5-9.95,14.79-20.22,21-17.65,6.27-27.11,4.6-44.21,3.56a265.22,265.22,0,0,0-38,.32c.14-.15.28-.29.41-.44a35.58,35.58,0,0,0,6.28-9.23c1.63-3.8,1.23-6.2.24-7.7l2.13-2.33a6.69,6.69,0,0,0,2.28.31c4.72-.14,10.68-4.9,14.68-9.31a35.41,35.41,0,0,0,6.27-9.22c1.66-3.86,1.23-6.26.22-7.76l3.31-3.64L260,404a15.35,15.35,0,0,0,9.35,2,20,20,0,0,0,6.32-1.67.35.35,0,0,0,.14-.06c4.09-1.81,8.35-5.09,12.37-10.25s10.12-12.52,16.92-20.13c11.53-12.88,25.1-26.46,34.11-31.29l2.55,2.14v0c2.59,2.18,5.31,4.49,8.37,7.17A63.47,63.47,0,0,0,358.32,358.09Z" />
    <path class="BUNTAI_OWL_OUTFIT_BUNTAI_OWL_OUTFIT_22_b" d="M310.34,314.93a84,84,0,0,1-6.1,13.38c-2.95,5.3-12.2,18.67-24,31.83l-.07.08a175.47,175.47,0,0,1-17.6,17.23,28.5,28.5,0,0,0-3.79,4.05,25.9,25.9,0,0,0-1.78,2.68l-.36.64,0,.05a20.17,20.17,0,0,0-1.36,3.17c-1.76,5.28-1,10.41,2.12,13.78l-.48.52-.24.27h0l0,0-3.25,3.57a6.67,6.67,0,0,0-2.37-.34c-4.74.14-10.69,4.89-14.69,9.31-5,5.45-9.17,12.92-6.42,17.05l-2.06,2.26a7,7,0,0,0-2.44-.37c-4.73.13-10.69,4.89-14.69,9.3-3.46,3.81-6.55,8.61-7.15,12.56-1.37.17-2.77.35-4.19.55a115.83,115.83,0,0,1-26.18.73,72.28,72.28,0,0,1-22.76-5.55l-.09,0A25.35,25.35,0,0,1,147.2,450c-1.59-1-3.07-1.94-4.47-3a.1.1,0,0,0,0,0,.14.14,0,0,1,0-.06c0-.07.07-.17.12-.31a1,1,0,0,1,.07-.2c.07-.17.14-.38.24-.61s.11-.29.19-.46.14-.33.22-.52.16-.38.25-.59a85.55,85.55,0,0,1,5.62-10.39c.25-.42.52-.84.8-1.26a123.06,123.06,0,0,1,7.3-10.16l.45-.55c2.3-2.86,4.92-5.89,7.9-9l.43-.45,1.22-1.26q1.23-1.26,2.55-2.55l.23-.22c1.22-1.19,2.49-2.4,3.83-3.61l1.34-1.22c.45-.41.91-.82,1.38-1.22.92-.82,1.88-1.64,2.86-2.47l1.48-1.24,1.52-1.24,1.57-1.24,1.55-1.22c.58-.46,1.18-.91,1.78-1.37l1.57-1.17,1.44-1.06,1.46-1.05c.77-.55,1.56-1.11,2.36-1.66,10.7-7.42,26.52-15.39,43.42-24.6l3.85-2.11,2-1.13,2-1.1,2-1.12,1.76-1,.27-.15,4.89-2.84.82-.48,2.76-1.65,2.43-1.48.84-.52,2-1.21c3.19-2,6.35-4.05,9.44-6.17l2-1.4,2.68-1.9c.83-.59,1.65-1.2,2.47-1.81l.47-.35,2-1.5c1-.74,1.93-1.49,2.88-2.26.76-.59,1.5-1.2,2.24-1.8l.81-.69c.55-.45,1.11-.92,1.65-1.4a3.27,3.27,0,0,0,.35-.3c.78-.67,1.55-1.35,2.32-2s1.36-1.24,2-1.87,1.31-1.23,1.95-1.85l.07-.07q.94-.93,1.86-1.86c2.16-2.2,4.22-4.45,6.14-6.76.46-.55.9-1.1,1.34-1.65l0-.05c.44-.55.87-1.11,1.3-1.66l.38.42.78.83,1.63,1.81Z" />
    <path class="BUNTAI_OWL_OUTFIT_BUNTAI_OWL_OUTFIT_22_c" d="M322.22,331.14a2.1,2.1,0,0,0-2.14,2.05,2.14,2.14,0,0,0,2.26,2,2.1,2.1,0,0,0,2.14-2.06A2.12,2.12,0,0,0,322.22,331.14Z" />
    <path class="BUNTAI_OWL_OUTFIT_BUNTAI_OWL_OUTFIT_22_c" d="M306.36,349a2,2,0,1,0,2.25,1.95A2.09,2.09,0,0,0,306.36,349Z" />
    <path class="BUNTAI_OWL_OUTFIT_BUNTAI_OWL_OUTFIT_22_c" d="M269.1,387.84a4.51,4.51,0,1,0,4.93,4.49A4.73,4.73,0,0,0,269.1,387.84Z" />
    <path class="BUNTAI_OWL_OUTFIT_BUNTAI_OWL_OUTFIT_22_c" d="M314.52,340.29a2.09,2.09,0,0,0-2.14,2,2.13,2.13,0,0,0,2.25,2,2.1,2.1,0,0,0,2.14-2.06A2.13,2.13,0,0,0,314.52,340.29Z" />
    <path class="BUNTAI_OWL_OUTFIT_BUNTAI_OWL_OUTFIT_22_c" d="M326.88,320.91a6.43,6.43,0,0,0-5.05,2.36,46.06,46.06,0,0,0,8.85,7.92,5.56,5.56,0,0,0,2.48-4.56A6,6,0,0,0,326.88,320.91Z" />
    <path class="BUNTAI_OWL_OUTFIT_BUNTAI_OWL_OUTFIT_22_c" d="M286.56,371.24a2,2,0,1,0,2.2,2A2.11,2.11,0,0,0,286.56,371.24Z" />
    <path class="BUNTAI_OWL_OUTFIT_BUNTAI_OWL_OUTFIT_22_c" d="M278.17,379.74a2,2,0,1,0,2.19,2A2.11,2.11,0,0,0,278.17,379.74Z" />
    <path class="BUNTAI_OWL_OUTFIT_BUNTAI_OWL_OUTFIT_22_c" d="M296.75,357.93a4.52,4.52,0,1,0,4.93,4.51A4.73,4.73,0,0,0,296.75,357.93Z" />
    <path class="BUNTAI_OWL_OUTFIT_BUNTAI_OWL_OUTFIT_22_f" d="M375.93,364.31c-3.66,21.59-21.51,41.68-46.21,52.78h0c.05-.32.1-.63.14-1s.09-.63.12-1a45.62,45.62,0,0,0,.31-4.77c0-.27,0-.53,0-.77a54.92,54.92,0,0,0-.56-7.7c.12-.2.25-.4.35-.6a11.4,11.4,0,0,0,.86-1.84,19.3,19.3,0,0,0,1.11-5,74.64,74.64,0,0,0,26.28-36.38,46.66,46.66,0,0,0,9.35,4.57A24.83,24.83,0,0,0,375.93,364.31Z" />
    <path class="BUNTAI_OWL_OUTFIT_BUNTAI_OWL_OUTFIT_22_f" d="M306.43,310.45c.37.49.67.86,1.1,1.41-.43.55-.86,1.11-1.3,1.66l0,.05c-.44.55-.88,1.1-1.34,1.65-1.92,2.31-4,4.56-6.14,6.76q-.91.93-1.86,1.86l-.07.07c-.64.62-1.29,1.24-1.95,1.85s-1.34,1.26-2,1.87l-.24.21c-.68.62-1.37,1.23-2.08,1.83a3.27,3.27,0,0,1-.35.3c-.54.47-1.1.94-1.65,1.4l-.81.69c-.74.6-1.48,1.2-2.24,1.8-.95.77-1.91,1.52-2.88,2.26l-2,1.5-.47.35c-.81.61-1.64,1.21-2.47,1.81l-2.68,1.9-2,1.4c-3.09,2.12-6.25,4.17-9.44,6.17l-2,1.21-.84.52c-.8.5-1.62,1-2.43,1.48l-2.76,1.65-.82.48c-1.44.85-2.89,1.69-4.33,2.51-.19.1-.37.21-.56.33l-.27.15-1.76,1-2,1.12-2,1.1-2,1.13L237.91,364c-16.9,9.21-32.72,17.18-43.42,24.6-.8.55-1.59,1.11-2.36,1.66l-1.46,1.05-1.44,1.06-1.57,1.17c-.6.46-1.2.91-1.78,1.37l-1.55,1.22-1.57,1.24-1.52,1.24-1.48,1.24c-1,.83-1.94,1.65-2.86,2.47-.47.4-.93.81-1.38,1.22l-1.34,1.22c-1.33,1.21-2.6,2.42-3.83,3.61l-.23.22q-1.32,1.29-2.55,2.55l-1.22,1.26-.43.45c-3,3.14-5.6,6.17-7.9,9l-.45.55a123.06,123.06,0,0,0-7.3,10.16c-.28.42-.55.84-.8,1.26a85.55,85.55,0,0,0-5.62,10.39c-.09.21-.18.4-.25.59s-.16.36-.22.52-.13.32-.19.46-.17.44-.24.61a1,1,0,0,0-.07.2c0,.14-.09.24-.12.31a.14.14,0,0,0,0,.06.1.1,0,0,1,0,0,51,51,0,0,1-11.81-11.49h0a.81.81,0,0,1,.05-.14c.05-.1.13-.26.22-.46s.06-.11.08-.17c.2-.42.48-1,.86-1.75l.31-.58c.5-1,1.13-2.12,1.9-3.46.19-.32.38-.66.59-1,.3-.52.63-1.06,1-1.62.11-.19.23-.38.35-.57,1.55-2.51,3.49-5.44,5.85-8.68.34-.46.68-.93,1-1.41,2.19-3,4.73-6.13,7.63-9.47.35-.41.72-.82,1.09-1.23q3.41-3.88,7.5-8l1.87-1.84c.63-.62,1.28-1.24,1.94-1.86,1.89-1.79,3.87-3.59,6-5.4.51-.46,1-.91,1.58-1.36,2.25-1.92,4.63-3.86,7.12-5.78l1.31-1,1.87-1.4c.61-.46,1.23-.91,1.85-1.36s1.26-.91,1.9-1.37l1.93-1.35c1.44-1,3-2,4.59-3,.88-.56,1.79-1.12,2.72-1.68,4.73-2.88,10.07-5.85,15.8-8.95l1.93-1.05,1.94-1,.84-.45c-24.25-13.25-50.66-29.07-67.33-49.58-.58-.71,1.63-.39,1.06-1.11h0l5.56-7,5.34-8c18.68,24.14,45.3,41.86,72.57,56.48,25.15-13.77,49.13-29.19,65.32-50.9L302,305Z" />
    <path class="BUNTAI_OWL_OUTFIT_BUNTAI_OWL_OUTFIT_22_f" d="M123.24,401.94h0a14.77,14.77,0,0,1-2-5.41h0c-25.44-14.71-32.88-38.43-32.88-38.43-11.71,6.52-19.79,6.22-19.79,6.22,4.25,22.32,25,48.26,54.82,53.34A50.86,50.86,0,0,1,123.24,401.94Z" />
    <path class="BUNTAI_OWL_OUTFIT_BUNTAI_OWL_OUTFIT_22_g" d="M214.53,358.09l-.84.45c-10.47,5.63-19.85,10.81-27,15.76a199.15,199.15,0,0,0-23.52,19c-21.05,19.91-30.1,37.6-31.92,41.46-.22.46-.34.73-.35.77a41.53,41.53,0,0,1-6.78-14.27c-.32-1.22-.58-2.43-.79-3.65a50.86,50.86,0,0,1-.11-15.71v0a11.7,11.7,0,0,1-1.08-2.08,16.67,16.67,0,0,1-1-3.32h0c-.9-.53-1.78-1.06-2.65-1.61q-1.92-1.21-3.69-2.49C94.5,377.8,88.32,358.09,88.32,358.09a72.09,72.09,0,0,0,9.26-6.17c16.4-12.81,26.42-20.71,49.3-43.1l.32-.31C163.87,329,190.28,344.84,214.53,358.09Z" />
    <path class="BUNTAI_OWL_OUTFIT_BUNTAI_OWL_OUTFIT_22_h" d="M306.43,310.45l1.1,1.41c-.43.55-.86,1.11-1.3,1.66l0,.05c-.44.55-.88,1.1-1.34,1.65-1.92,2.31-4,4.56-6.14,6.76q-.91.93-1.86,1.86l-.07.07c-.64.62-1.29,1.24-1.95,1.85s-1.34,1.26-2,1.87-1.54,1.37-2.32,2a3.27,3.27,0,0,1-.35.3c-.55.48-1.1.95-1.65,1.4l-.81.69c-.74.6-1.48,1.21-2.24,1.8-.95.77-1.91,1.52-2.88,2.26l-2,1.5-.47.35c-.82.61-1.64,1.22-2.47,1.81l-2.68,1.9-2,1.4c-3.09,2.12-6.25,4.17-9.44,6.17l-2,1.21-.84.52-2.43,1.48-2.76,1.65-.82.48-4.89,2.84-.27.15-1.76,1-2,1.12-2,1.1-2,1.13L237.91,364c-16.9,9.21-32.72,17.18-43.42,24.6-.8.55-1.59,1.11-2.36,1.66l-1.46,1.05-1.44,1.06-1.57,1.17c-.6.46-1.2.91-1.78,1.37s-1,.8-1.55,1.22-1.05.82-1.57,1.24l-1.52,1.24c-.5.41-1,.82-1.48,1.24-1,.82-1.94,1.64-2.86,2.47-.47.4-.93.81-1.38,1.22s-.91.81-1.34,1.22c-1.34,1.21-2.61,2.42-3.83,3.61l-.23.22q-1.32,1.29-2.55,2.55l-1.22,1.26-.43.45c-3,3.14-5.6,6.17-7.9,9l-.45.55a123.06,123.06,0,0,0-7.3,10.16c-.28.42-.55.84-.8,1.26a85.55,85.55,0,0,0-5.62,10.39c-.09.21-.18.4-.25.59s-.16.36-.22.52-.13.32-.19.46-.17.44-.24.61a1,1,0,0,0-.07.2c0,.14-.09.24-.12.31a.14.14,0,0,0,0,.06.1.1,0,0,1,0,0h0" />
    <path class="BUNTAI_OWL_OUTFIT_BUNTAI_OWL_OUTFIT_22_h" d="M130.91,435.58h0c.22-.49,14.1-32.35,55.8-61.27,7.31-5.08,17-10.4,27.83-16.21,5.49-3,11.28-6,17.19-9.27,25.15-13.77,49.13-29.19,65.32-50.9" />
    <path class="BUNTAI_OWL_OUTFIT_BUNTAI_OWL_OUTFIT_22_h" d="M214.53,358.09c-24.25-13.25-50.66-29.07-67.33-49.58a10.86,10.86,0,0,0,1.06-1.11" />
    <path class="BUNTAI_OWL_OUTFIT_BUNTAI_OWL_OUTFIT_22_h" d="M159.17,292.34c18.67,24.14,45.28,41.86,72.56,56.48" />
    <polyline class="BUNTAI_OWL_OUTFIT_BUNTAI_OWL_OUTFIT_22_h" points="297.05 297.92 302 305 306.43 310.45" />
    <polyline class="BUNTAI_OWL_OUTFIT_BUNTAI_OWL_OUTFIT_22_h" points="159.16 292.34 153.82 300.37 148.26 307.39 148.26 307.4" />
    <path class="BUNTAI_OWL_OUTFIT_BUNTAI_OWL_OUTFIT_22_h" d="M147.2,308.51l-.32.31c-22.88,22.39-32.9,30.29-49.3,43.1a72.09,72.09,0,0,1-9.26,6.17,55.29,55.29,0,0,1-9.8,4.34l-.1,0a31.71,31.71,0,0,1-9.9,1.85q.2,1.05.45,2.1c2.84,12.13,10.41,25.08,21.52,35l.17.14A68.77,68.77,0,0,0,108,412.94c.61.28,1.22.54,1.84.79h0c1,.41,2,.79,3,1.15a58.66,58.66,0,0,0,5.88,1.78h0c1.3.33,2.61.61,4,.85.22.05.45.09.67.12" />
    <path class="BUNTAI_OWL_OUTFIT_BUNTAI_OWL_OUTFIT_22_h" d="M88.32,358.09s7.44,23.72,32.88,38.43" />
    <path class="BUNTAI_OWL_OUTFIT_BUNTAI_OWL_OUTFIT_22_h" d="M307.53,311.86l.38.42.78.83,1.63,1.81h0" />
    <path class="BUNTAI_OWL_OUTFIT_BUNTAI_OWL_OUTFIT_22_h" d="M329.7,417.1h0c24.7-11.1,42.55-31.19,46.21-52.78a24.83,24.83,0,0,1-8.26-1.65,46.66,46.66,0,0,1-9.35-4.57,63.47,63.47,0,0,1-8.22-6.17c-3.06-2.68-5.78-5-8.37-7.17" />
    <path class="BUNTAI_OWL_OUTFIT_BUNTAI_OWL_OUTFIT_22_h" d="M339.18,342.59l2.55,2.15" />
    <path class="BUNTAI_OWL_OUTFIT_BUNTAI_OWL_OUTFIT_22_h" d="M332,394.47a74.56,74.56,0,0,0,26.28-36.38" />
    <path class="BUNTAI_OWL_OUTFIT_BUNTAI_OWL_OUTFIT_22_h" d="M123.24,401.93a70.26,70.26,0,0,1,8.5-24.48" />
    <path class="BUNTAI_OWL_OUTFIT_BUNTAI_OWL_OUTFIT_22_h" d="M123.24,401.94a50.86,50.86,0,0,0,.11,15.71q.16.92.36,1.83c.05.27.11.53.18.8a2.27,2.27,0,0,0,.06.25c0,.26.12.51.19.77s.15.57.23.86v0c.16.57.33,1.13.52,1.69.35,1.05.73,2.1,1.18,3.14.1.27.22.52.33.78l.47,1a41.59,41.59,0,0,0,2.34,4.25c.16.25.32.51.49.76.38.58.79,1.17,1.21,1.74h0a51,51,0,0,0,11.81,11.49c1.4,1,2.88,2,4.47,3a25.35,25.35,0,0,0,3.12,1.62l.09,0a58.78,58.78,0,0,0,6.8,2.52l1.15.33.07,0,1.35.37.74.18c1.32.33,2.74.65,4.25.94.68.13,1.38.26,2.1.38,1.81.3,3.75.56,5.83.76l.47.05,1.24.1,2,.14,1,.05c.22,0,.43,0,.65,0l.93,0a120.5,120.5,0,0,0,20.37-1.09c1.42-.2,2.82-.38,4.19-.55s2.57-.33,3.82-.47q5.64-.67,10.68-1.13,2.86-.27,5.53-.46a265.22,265.22,0,0,1,38-.32c17.1,1,26.56,2.71,44.21-3.56,10.27-6.22,16.58-13.51,20.22-21a42.45,42.45,0,0,0,3.71-11.93c.05-.32.1-.63.14-1s.08-.55.1-.82c0-.05,0-.09,0-.14l.06-.63q0-.3.06-.57c0-.44.08-.87.11-1.3s0-.73.05-1.09l0-1v-.14c0-.27,0-.53,0-.77a54.92,54.92,0,0,0-.56-7.7,70.24,70.24,0,0,0-8.48-24.5" />
    <path class="BUNTAI_OWL_OUTFIT_BUNTAI_OWL_OUTFIT_22_h" d="M121.43,384.11a37.22,37.22,0,0,0-.22,12.41,14.77,14.77,0,0,0,2,5.41h0" />
    <path class="BUNTAI_OWL_OUTFIT_BUNTAI_OWL_OUTFIT_22_h" d="M331.53,384.11a39.16,39.16,0,0,1,.51,10.36,16.68,16.68,0,0,1-2.32,7.47" />
    <path class="BUNTAI_OWL_OUTFIT_BUNTAI_OWL_OUTFIT_22_h" d="M339.9,337.6l-3,1.5c-.37.19-.74.4-1.12.63-16.19,9.45-42.35,40.5-51.27,51.94-4.79,6.14-10.32,9.79-15.58,10.27a10,10,0,0,1-7.56-2.12,8,8,0,0,1-2.62-6.21c-.07-4.49,2.43-9.31,6.84-13.21,20.68-17.33,38.7-43.26,42.59-50.27a93.57,93.57,0,0,0,5.5-11.6l1.48-4" />
    <path class="BUNTAI_OWL_OUTFIT_BUNTAI_OWL_OUTFIT_22_h" d="M310.34,314.92h0a83,83,0,0,1-6.1,13.37c-4.31,7.76-22.09,32.76-41.69,49.15-9.08,8-10.4,18.68-5.19,24.37a9.27,9.27,0,0,0,1,1A11.71,11.71,0,0,0,260,404c6.7,4.09,18.16,2.91,28.18-9.94,10.87-13.94,36.71-43.75,51-51.42" />
    <path class="BUNTAI_OWL_OUTFIT_BUNTAI_OWL_OUTFIT_22_h" d="M308.68,313.11s3.1-2.52,6.5,1.37a12.25,12.25,0,0,1,1.07,1.44,60,60,0,0,0,5.58,7.35,46.06,46.06,0,0,0,8.85,7.92c.51.33,1,.64,1.53.92a31.88,31.88,0,0,1,7.69,5.49c2,2.1,2.89,4.46,1.83,7.14h0" />
    <path class="BUNTAI_OWL_OUTFIT_BUNTAI_OWL_OUTFIT_22_h" d="M330.68,331.19a5.56,5.56,0,0,0,2.48-4.56,6,6,0,0,0-6.28-5.72,6.43,6.43,0,0,0-5.05,2.36" />
    <path class="BUNTAI_OWL_OUTFIT_BUNTAI_OWL_OUTFIT_22_h" d="M274,392.33a5,5,0,1,1-4.93-4.49A4.73,4.73,0,0,1,274,392.33Z" />
    <path class="BUNTAI_OWL_OUTFIT_BUNTAI_OWL_OUTFIT_22_h" d="M280.36,381.75a2.2,2.2,0,1,1-2.19-2A2.1,2.1,0,0,1,280.36,381.75Z" />
    <path class="BUNTAI_OWL_OUTFIT_BUNTAI_OWL_OUTFIT_22_h" d="M288.76,373.24a2.21,2.21,0,1,1-2.2-2A2.11,2.11,0,0,1,288.76,373.24Z" />
    <path class="BUNTAI_OWL_OUTFIT_BUNTAI_OWL_OUTFIT_22_h" d="M308.61,351a2.09,2.09,0,0,1-2.14,2.05,2,2,0,1,1,2.14-2.05Z" />
    <path class="BUNTAI_OWL_OUTFIT_BUNTAI_OWL_OUTFIT_22_h" d="M324.48,333.09a2.1,2.1,0,0,1-2.14,2.06,2.14,2.14,0,0,1-2.26-2,2.1,2.1,0,0,1,2.14-2.05A2.12,2.12,0,0,1,324.48,333.09Z" />
    <path class="BUNTAI_OWL_OUTFIT_BUNTAI_OWL_OUTFIT_22_h" d="M316.77,342.24a2.1,2.1,0,0,1-2.14,2.06,2.13,2.13,0,0,1-2.25-2,2.09,2.09,0,0,1,2.14-2A2.13,2.13,0,0,1,316.77,342.24Z" />
    <path class="BUNTAI_OWL_OUTFIT_BUNTAI_OWL_OUTFIT_22_h" d="M301.68,362.44a4.95,4.95,0,1,1-4.93-4.51A4.73,4.73,0,0,1,301.68,362.44Z" />
    <path class="BUNTAI_OWL_OUTFIT_BUNTAI_OWL_OUTFIT_22_h" d="M253.36,406.21a6.63,6.63,0,0,0-2.37-.34c-4.74.14-10.69,4.9-14.69,9.31-5,5.45-9.17,12.92-6.42,17.05l0,0" />
    <path class="BUNTAI_OWL_OUTFIT_BUNTAI_OWL_OUTFIT_22_h" d="M256.08,408.24c1,1.49,1.44,3.91-.22,7.75a35.11,35.11,0,0,1-6.27,9.23c-4,4.41-10,9.17-14.68,9.31a6.69,6.69,0,0,1-2.28-.31" />
    <path class="BUNTAI_OWL_OUTFIT_BUNTAI_OWL_OUTFIT_22_h" d="M250.56,409.3c-2.8.43-7.32,3.51-11.41,8s-6.59,9.41-6.54,12" />
    <path class="BUNTAI_OWL_OUTFIT_BUNTAI_OWL_OUTFIT_22_h" d="M253.27,411.34c0,2.59-2.44,7.22-6.53,11.73s-8.61,7.59-11.41,8" />
    <path class="BUNTAI_OWL_OUTFIT_BUNTAI_OWL_OUTFIT_22_h" d="M257.36,401.82l-4,4.39-2.8,3.09-1.14,1.26a1.51,1.51,0,0,0,.23,2.25,1.89,1.89,0,0,0,2.47-.2l1.15-1.27,2.81-3.1L260,404" />
    <path class="BUNTAI_OWL_OUTFIT_BUNTAI_OWL_OUTFIT_22_h" d="M227.66,439.69l-1.12,1.23a1.86,1.86,0,0,1-2.46.2h0a1.51,1.51,0,0,1-.23-2.25l1.16-1.28,2.82-3.1,2.06-2.26,2.35-2.59a1.57,1.57,0,0,1,.38-.31,1.88,1.88,0,0,1,2.07.09l0,0a1.5,1.5,0,0,1,.57,1.63,1.54,1.54,0,0,1-.34.61l-2.3,2.54-2.13,2.33Z" />
    <g class="BUNTAI_OWL_OUTFIT_BUNTAI_OWL_OUTFIT_22_i">
      <path d="M258.76,381.5s-24.44,5.22-42.61,10.11S180,409.3,180,409.3s19.86-2.84,34.53-8.95,35.06-10.62,35.06-10.62l6.32-1.89A11.3,11.3,0,0,1,258.76,381.5Z" />
      <path d="M222.85,402.62s15.83-.28,24-.8,8.91,0,8.91,0l.86-.23v1l-2.15,1.76s-10.68.13-20.74,0-24.46,0-23.55.05S222.85,402.62,222.85,402.62Z" />
      <path d="M126.79,361.74s-7.59,29.72-4,40.87l-8.35-15.19s1.58,14.94,0,17.82-4.59,8.5-4.59,8.5,9.45,3.51,12.84,3.79c4.11,11.1,13.3,32.59,40,38.45,17.09,3,32.35,1,40.84,0-31.36-9.47-37.68-43.4-37.68-43.4l-2.67-19.24S137,388.08,126.79,361.74Z" />
      <path d="M78.52,362.43s8,20.66,21.79,30.6l17.81,12.83L112.76,415a79.36,79.36,0,0,1-22.1-13.43C79.24,392,71,377.72,68.53,364.31A78.73,78.73,0,0,0,78.52,362.43Z" />
      <path d="M224,353l-9.48,5.09-.84.45S181,340.48,164.9,326.74a165.84,165.84,0,0,1-18-17.92l.32-.31a7.48,7.48,0,0,0,1.06-1.11h0l5.56-7h0s8.39,13.29,26.18,28.15S224,353,224,353Z" />
      <path d="M307.53,311.86l.38.42a132.88,132.88,0,0,1-10.52,11.17c-1.46,1.39-3,2.79-4.59,4.18l-.24.21c-10.69,9.32-24.67,18.93-42.21,29.26-.19.1-.37.21-.56.33l-.27.15q-13.52,7.94-29.85,16.48a243.09,243.09,0,0,0-49.32,34.35l-.23.22c-1.69,1.53-3.11,2.88-4.25,4-2.27,2.21-3.46,3.5-3.46,3.5l-.57-5.64a18.55,18.55,0,0,1,3.08-4.65c2.8-3.48,8.09-9,17.89-17.1,18.82-15.47,38.92-26.07,71.53-44.68,24.15-13.78,39.78-30.7,47.66-39.05l4.43,5.45C306.75,310.93,306.89,311,307.53,311.86Z" />
      <path d="M289.25,356.24s-6.61,12.81-3.16,20,19.51-9.34,19.51-9.34l.81,4.82s-16.66,27.6-30.77,32.58-19.7-.38-21.15-7.5.14-11.57,10-20.55a173.36,173.36,0,0,0,15.75-16.14C280.65,359.67,289.25,356.24,289.25,356.24Z" />
      <path d="M337.82,335.71a118.12,118.12,0,0,1-13.34-4.57c-7.37-3.12-9.91-6.78-9.91-6.78s4,5.95,8.77,8.78a39.33,39.33,0,0,0,9.29,4L335.4,339l3.11-1.1Z" />
      <path d="M375.93,364.31c-3.66,21.59-21.51,41.68-46.21,52.78,0-.31.09-.62.12-.94s.09-.63.12-1,.08-.85.11-1.27c.1-1.25.16-2.44.2-3.5,0-.27,0-.53,0-.77.05-2,0-3.39,0-3.39s10.25-3.77,21-15.07,16.37-28.53,16.37-28.53A24.83,24.83,0,0,0,375.93,364.31Z" />
      <path d="M323.15,379.74s5.74,13.18,7.13,22.88a56.73,56.73,0,0,0-.56-28.83,92,92,0,0,1,0,18.54S328.12,384.64,323.15,379.74Z" />
      <path d="M326,429c-3.64,7.5-9.95,14.79-20.22,21-17.65,6.27-27.11,4.6-44.21,3.56h0s38.51.12,52.58-19.32a44.32,44.32,0,0,0,7-38.86A68.88,68.88,0,0,1,326,429Z" />
    </g>
  </g>
</svg>