<svg xmlns="http://www.w3.org/2000/svg" viewBox="0 0 432 432">
  <defs>
    <style>.BUNTAI_OWL_OUTFIT_BUNTAI_OWL_OUTFIT_39_a{isolation:isolate;}.BUNTAI_OWL_OUTFIT_BUNTAI_OWL_OUTFIT_39_b{fill:#64001b;}.BUNTAI_OWL_OUTFIT_BUNTAI_OWL_OUTFIT_39_c{fill:#fff;}.BUNTAI_OWL_OUTFIT_BUNTAI_OWL_OUTFIT_39_d{fill:#ab3449;}.BUNTAI_OWL_OUTFIT_BUNTAI_OWL_OUTFIT_39_e{fill:#233a3e;}.BUNTAI_OWL_OUTFIT_BUNTAI_OWL_OUTFIT_39_f{fill:#c68c53;}.BUNTAI_OWL_OUTFIT_BUNTAI_OWL_OUTFIT_39_g{fill:#531f40;}.BUNTAI_OWL_OUTFIT_BUNTAI_OWL_OUTFIT_39_h,.BUNTAI_OWL_OUTFIT_BUNTAI_OWL_OUTFIT_39_j,.BUNTAI_OWL_OUTFIT_BUNTAI_OWL_OUTFIT_39_k{fill:none;stroke:#000;stroke-linecap:round;stroke-linejoin:round;}.BUNTAI_OWL_OUTFIT_BUNTAI_OWL_OUTFIT_39_h{stroke-width:1.7px;}.BUNTAI_OWL_OUTFIT_BUNTAI_OWL_OUTFIT_39_i{opacity:0.43;mix-blend-mode:multiply;}.BUNTAI_OWL_OUTFIT_BUNTAI_OWL_OUTFIT_39_j{stroke-width:1.92px;}.BUNTAI_OWL_OUTFIT_BUNTAI_OWL_OUTFIT_39_k{stroke-width:1.66px;}</style>
  </defs>
  <g class="BUNTAI_OWL_OUTFIT_BUNTAI_OWL_OUTFIT_39_a">
    <path class="BUNTAI_OWL_OUTFIT_BUNTAI_OWL_OUTFIT_39_b" d="M255.5,356.45v2.84h-9.13v-2.84a4.42,4.42,0,0,1,1.34-3.14,4.64,4.64,0,0,1,3.23-1.3A4.5,4.5,0,0,1,255.5,356.45Z" />
    <path class="BUNTAI_OWL_OUTFIT_BUNTAI_OWL_OUTFIT_39_c" d="M242.08,385.11a26.63,26.63,0,0,1-.9,3.51c-.4,1,.57,1.81,2.25,2.38a104.49,104.49,0,0,1-12.62,24.52q-1.8,2.55-3.81,5-2.44,3-5.23,5.81c-1.87-1.88-3.61-3.82-5.24-5.81q-2-2.48-3.81-5A104.05,104.05,0,0,1,200.11,391c1.68-.57,2.64-1.36,2.24-2.38a27.44,27.44,0,0,1-1-4c3-.44,10-5.2,14.7-6.61s10.49.29,14.75,3.25S242.08,385.11,242.08,385.11Z" />
    <path class="BUNTAI_OWL_OUTFIT_BUNTAI_OWL_OUTFIT_39_d" d="M256.17,366c.23,2.33.49,4.84.69,6.76.49,4.85,4.68,16.79,1.19,18.44a9.61,9.61,0,0,1-2.66.63,29.76,29.76,0,0,1-3.69.2,35.35,35.35,0,0,1-5.62-.44,16.67,16.67,0,0,1-2.65-.63,104.49,104.49,0,0,1-12.62,24.52c16.9,4.52,30.54,3.25,40.62-3.79,16.35-11.43,19.16-35.16,19.64-42.81h0Q273.58,368.23,256.17,366Z" />
    <path class="BUNTAI_OWL_OUTFIT_BUNTAI_OWL_OUTFIT_39_d" d="M197.45,391.63a35.26,35.26,0,0,1-5.62.44,29.87,29.87,0,0,1-3.69-.2,9.53,9.53,0,0,1-2.65-.63c-3.5-1.65.69-13.59,1.19-18.44.19-1.92.45-4.43.68-6.76q-17.38,2.18-34.9,2.87h0c.48,7.65,3.29,31.38,19.64,42.81,10.08,7,23.72,8.31,40.62,3.79A104.05,104.05,0,0,1,200.11,391,16.81,16.81,0,0,1,197.45,391.63Z" />
    <path class="BUNTAI_OWL_OUTFIT_BUNTAI_OWL_OUTFIT_39_e" d="M195.67,334.32a45.94,45.94,0,0,0,16.56,8.06,37,37,0,0,0,6.13,1c.43,0,.86.07,1.3.09.63,0,1.26,0,1.88,0,1.21,0,2.42-.06,3.63-.17a37.91,37.91,0,0,0,6.1-1.09,48.35,48.35,0,0,0,16.35-8.06h0q2.55-1.87,5.06-4.12a2.45,2.45,0,0,0,.15-3.53,2.61,2.61,0,0,0-3.63-.15q-2.43,2.16-4.87,3.95a43.12,43.12,0,0,1-14.4,7.08,33.16,33.16,0,0,1-6.11,1,30.73,30.73,0,0,1-3.84,0l-.28,0a33,33,0,0,1-6.12-.92,41.22,41.22,0,0,1-14.45-7h0a37,37,0,0,1-4.62-4,2.61,2.61,0,0,0-3.62-.22,2.47,2.47,0,0,0-.22,3.54A38.66,38.66,0,0,0,195.67,334.32Z" />
    <path class="BUNTAI_OWL_OUTFIT_BUNTAI_OWL_OUTFIT_39_e" d="M392,423.43c-1.5-2.91-13.77-17.62-22.6-31.75h0c-1.77-6.65-11.49-27.62-14.51-34.06a65.27,65.27,0,0,1-19,8.28c-12,3.18-24.65,3.51-37.11,3.25-.58,0-1.16,0-1.73,0-.47,8.36-3.4,34.23-22.14,47.34-7.2,5.05-15.83,7.57-25.82,7.57A80,80,0,0,1,227,420.54q-2.44,3-5.23,5.81c-1.87-1.88-3.61-3.82-5.24-5.81A80,80,0,0,1,194.4,424c-10,0-18.62-2.52-25.82-7.57-18.73-13.11-21.67-39-22.13-47.34-.58,0-1.16,0-1.73,0-12.46.26-25.09-.07-37.11-3.25a65.33,65.33,0,0,1-19-8.28c-3,6.44-12.73,27.41-14.51,34.06h0C65.3,405.81,53,420.52,51.52,423.43s-2.69,20.41-2.69,20.41h78A48.86,48.86,0,0,0,133.2,451H310.34a48.78,48.78,0,0,0,6.35-7.12h78S393.51,426.35,392,423.43Z" />
    <path class="BUNTAI_OWL_OUTFIT_BUNTAI_OWL_OUTFIT_39_f" d="M190.06,327.86a2.34,2.34,0,0,0,0,.38,2.46,2.46,0,0,0,.64,1.66l.14.16.13.13.47.47.12.12a46.23,46.23,0,0,0,4.14,3.54,7,7,0,0,1-3.07.7,6.84,6.84,0,0,1-.91-.06l-.29,0-.1,0h0l-.4-.08-.12,0h0l-.24-.07-.26-.08-.1,0h0l0,0a2,2,0,0,1-.14.25s0,0,0,.05c-.13.23-.27.47-.42.7a.05.05,0,0,0,0,0l-.45.67-.34.47-.49.63c-.24.31-.5.62-.77.93l-.36.39a24.22,24.22,0,0,1-2.51,2.43,5.85,5.85,0,0,1-.54.45c-.21.18-.43.35-.65.52l-.1.08-.68.51-.48.33c-.16.12-.33.23-.5.34l-.45.29c-.19.13-.38.25-.58.36a2.5,2.5,0,0,1-.35.21l-.83.47c-.36.2-.71.38-1.08.55a4.85,4.85,0,0,1-.61.29c-.23.11-.46.22-.68.31l-.3.13c-.42.18-.84.34-1.27.49-.26.1-.52.18-.79.27a22.58,22.58,0,0,1-6.8,1.1,20,20,0,0,1-9-2.13,32,32,0,0,1-4.61-2.94l-.09-.07c-1-.78-2.14-1.65-3.26-2.59L149.59,339c-2-1.78-4.14-3.76-6.26-5.84l0,0,0,0h0s0,0,0,0c-2-1.94-3.93-4-5.83-6h0c-.93-1-1.85-2-2.74-2.94,1.36-1.07,2.65-2.16,3.88-3.29.72.79,1.47,1.58,2.21,2.39h0c7.2,7.67,15.25,15.44,20.46,18a15.33,15.33,0,0,0,11.83.73,22,22,0,0,0,4.65-2.13c.24-.15.48-.29.71-.45a16.56,16.56,0,0,0,1.37-.94l.65-.49c.21-.17.41-.33.61-.51h0l.59-.51.56-.53c.19-.17.37-.34.54-.52a16.7,16.7,0,0,0,2.86-3.78,2.35,2.35,0,0,1,.75-.87,6.57,6.57,0,0,1-.71-3,7,7,0,0,1,13.91,0,6.37,6.37,0,0,1-.42,2.32,35.93,35.93,0,0,1-4.61-4,2.63,2.63,0,0,0-3.63-.21l-.19.19a1.68,1.68,0,0,0-.18.21,1.34,1.34,0,0,0-.17.27.55.55,0,0,0-.08.15l0,.08c0,.06,0,.12-.07.17a.08.08,0,0,0,0,0A2.34,2.34,0,0,0,190.06,327.86Z" />
    <path class="BUNTAI_OWL_OUTFIT_BUNTAI_OWL_OUTFIT_39_f" d="M312.9,320l-.27.28c-.17.19-.35.37-.53.56l-2.44,2.56c-.2.2-.4.41-.58.61l-2.37,2.47-.61.64c-2,2.11-4.05,4.23-6.12,6.24l0,0-.42.4-.1.11a117.77,117.77,0,0,1-9.12,8.11l-.08.06a35.76,35.76,0,0,1-5.57,3.66,20,20,0,0,1-9,2.13c-.49,0-1,0-1.48-.06H274c-.47,0-.94-.1-1.41-.17a22.86,22.86,0,0,1-2.38-.49l-.78-.22-.2-.05-.11,0h0l-.15,0-.11,0-.07,0-.91-.33a26.5,26.5,0,0,1-2.83-1.22l-.11-.05-.29-.16h0a28,28,0,0,1-10.71-9.66v0c-.15-.22-.27-.46-.4-.68l-.12,0-.11,0-.13,0-.42.12-.44.1-.08,0h-.1a3.4,3.4,0,0,1-.46.06l-.16,0h-.5a6.94,6.94,0,0,1-3.31-.82c.32-.23.63-.47,1-.72l.95-.74c.63-.5,1.26-1,1.89-1.55l1.26-1.11a1.42,1.42,0,0,1,.12-.13,2.16,2.16,0,0,0,.27-.33,1.76,1.76,0,0,0,.14-.23c0-.11.1-.22.14-.33a2.25,2.25,0,0,0,.08-.24,1.74,1.74,0,0,0,.06-.45.69.69,0,0,0,0-.13,2.57,2.57,0,0,0-.09-.67,2.44,2.44,0,0,0-.58-1,2.63,2.63,0,0,0-3.64-.15c-.81.72-1.62,1.42-2.43,2.07s-1.62,1.28-2.44,1.88a6.4,6.4,0,0,1-.35-2.11,6.67,6.67,0,0,1,2-4.79,1.54,1.54,0,0,1,.19-.17,5.83,5.83,0,0,1,.78-.61l.08-.05.13-.09.07,0,.35-.2.41-.2.3-.12a2.86,2.86,0,0,1,.41-.15l.28-.09.08,0,.44-.1.22,0,.24,0,.23,0a5.53,5.53,0,0,1,.71,0,5.37,5.37,0,0,1,.7,0h0l.34,0,.3.05.08,0,.13,0,.1,0,.29.08.12,0,.6.21,0,0c.18.08.37.16.55.26l.34.19a6.49,6.49,0,0,1,.55.36,7,7,0,0,1,.92.8,3.45,3.45,0,0,1,.26.28c.16.18.3.37.44.56s.2.31.29.47l.11.19a1.74,1.74,0,0,1,.1.19c0,.1.1.2.14.3a6,6,0,0,1,.32.93v0a.06.06,0,0,1,0,0,.64.64,0,0,1,0,.07s0,0,0,0a1.1,1.1,0,0,1,.06.26,5.58,5.58,0,0,1,.09.59,5.32,5.32,0,0,1,0,.69,6.7,6.7,0,0,1-.71,3,2.42,2.42,0,0,1,.74.87,12.37,12.37,0,0,0,.84,1.37c.22.31.46.63.72.95s.54.65.84,1c.15.16.3.33.46.49.35.35.72.7,1.1,1.05s.69.6,1.06.89l.15.13.3.22.35.27c.45.33.89.65,1.37.94.23.16.47.3.71.45a22.25,22.25,0,0,0,4.65,2.13,15.32,15.32,0,0,0,11.83-.73,23.21,23.21,0,0,0,2.64-1.58c.57-.38,1.15-.8,1.75-1.26,1-.76,2.05-1.61,3.13-2.54a175.65,175.65,0,0,0,13-12.69c1.38-1.47,4.63-4.83,6.69-7C310.59,317.46,311.72,318.74,312.9,320Z" />
    <path class="BUNTAI_OWL_OUTFIT_BUNTAI_OWL_OUTFIT_39_f" d="M242.08,385.11c.22-1,.44-2.15.66-3.4-.07,0-4.5,0-9.06-4.31s-14.87-6.45-19.56-3.35-13.51,6.71-13.51,6.71c.26,1.42.51,2.75.75,3.89,3-.44,10-5.2,14.7-6.61s10.49.29,14.75,3.25S242.08,385.11,242.08,385.11Z" />
    <path class="BUNTAI_OWL_OUTFIT_BUNTAI_OWL_OUTFIT_39_f" d="M231.27,342.27a37.91,37.91,0,0,1-6.1,1.09c1.52,5.26,3.41,10.52,7.31,14.39,3.52,3.49,8.19,5.39,13.14,6.56.45-3,.75-5,.75-5v-1c-3.72-.95-7.08-2.38-9.49-4.77C234.07,350.75,232.49,346.47,231.27,342.27Z" />
    <path class="BUNTAI_OWL_OUTFIT_BUNTAI_OWL_OUTFIT_39_f" d="M216.54,420.53A79.75,79.75,0,0,1,194.41,424c-10,0-18.62-2.52-25.83-7.57-.51-.36-1-.72-1.5-1.1l-1.21-1-.47-.4-.15-.13c-.33-.28-.64-.57-.95-.85l0,0c-.44-.41-.86-.82-1.28-1.24s-1-1-1.41-1.48c-.91-1-1.76-2.05-2.57-3.11s-1.55-2.16-2.26-3.27l-.52-.83c-.34-.56-.67-1.13-1-1.69s-.47-.85-.69-1.28l-.66-1.29c-.15-.29-.29-.58-.42-.86-.27-.58-.53-1.16-.79-1.73s-.49-1.16-.73-1.74-.45-1.15-.67-1.73-.47-1.29-.69-1.94c-.65-1.92-1.2-3.82-1.67-5.66-.15-.61-.3-1.22-.44-1.82-.41-1.79-.74-3.5-1-5.11-.08-.47-.15-.94-.22-1.4s-.13-.9-.19-1.33-.11-.85-.16-1.26c0-.21-.05-.41-.07-.61,0-.39-.08-.78-.12-1.15,0-.18,0-.36-.05-.54-.1-1.07-.17-2-.21-2.79-.57,0-1.15,0-1.73,0l-2.91.05-3.25,0h-.09l-2.15,0c-.56,0-1.12,0-1.67,0l-1.83,0-1.28,0-1.61-.06-2.06-.11-1.78-.12-.58,0-.59-.05-.34,0-.77-.07-.63-.06-.63-.06-1.25-.13-.49-.06-.48-.05h-.11l-.76-.1-.92-.12-.11,0-.22,0-1.19-.17-1.3-.2h0l-.09,0h0c-.3,0-.59-.1-.88-.15l-.89-.16-2.08-.42h-.09l-.07,0-.4-.08-1.32-.3-.19-.05-.56-.13-1.5-.38-1.62-.45-1.08-.33-1-.32-.21-.07-.72-.24-.72-.25-1.62-.59-1-.38-1-.41-.3-.12-1.13-.5c-.48-.21-1-.43-1.41-.65-.24-.1-.48-.21-.71-.33l-.72-.35-.22-.12-.94-.49-.17-.09c-.32-.17-.64-.34-1-.52l-.06,0h0c-.38-.21-.75-.43-1.12-.65l-.67-.41-.42-.26-.38-.23-.71-.46c-1.2-.79-2.37-1.62-3.49-2.5a45.24,45.24,0,0,1-8.43-8.5,2.34,2.34,0,0,1-.2-.27l-.2-.27,0-.05,0,0,0,0h0a58.81,58.81,0,0,0,7.51-.39h0a42.3,42.3,0,0,0,7.63,6.59l0,0a58.17,58.17,0,0,0,17.76,7.9c8.15,2.16,17.2,3.13,29.32,3.13,1.87,0,3.85,0,6-.07A405.85,405.85,0,0,0,188,359.91c0,.14,0,.3,0,.47l0,.28q0,.29-.06.63c-.08.78-.17,1.74-.27,2.79-.06.63-.12,1.29-.19,2q-4.35.56-8.7,1c-1.14.11-2.25.23-3.39.33l-.45,0-.4,0-.7.07-3.79.33-.22,0-2.18.17h0l-1,.07-.93.08-.64,0-1.14.07-2.37.16-.9.05-3.11.17c-.95.05-1.88.1-2.83.13-.21,0-.42,0-.64,0l-.35,0-.69,0-.44,0h0c0,.24,0,.49.05.76s.07.81.1,1.26.06.67.1,1c0,.14,0,.28.05.42l.06.6c.06.56.14,1.14.22,1.74a1.87,1.87,0,0,1,0,.25c0,.32.09.64.14,1s.06.42.1.64,0,.27.07.4a2,2,0,0,0,0,.24c.06.41.14.82.22,1.24.05.25.09.51.14.77l.15.77c.16.78.33,1.58.53,2.4.09.38.18.76.28,1.15s.12.49.19.74c.14.5.27,1,.42,1.52a1.09,1.09,0,0,0,0,.17c.18.61.37,1.22.56,1.84.13.43.28.86.43,1.3.3.9.63,1.8,1,2.71a2.49,2.49,0,0,0,.11.29c.18.44.36.89.55,1.33l.06.14c.19.44.38.87.58,1.3s.33.7.5,1.05a.54.54,0,0,0,0,.11,2.06,2.06,0,0,0,.12.26l.06.1c.22.44.44.87.67,1.3.11.22.23.44.35.66l.37.66a.56.56,0,0,0,0,.08c.13.23.26.46.4.69l.42.69a.11.11,0,0,1,0,.05l.3.47c.09.15.19.3.29.45l.17.26c.14.22.29.43.44.64s.37.53.56.79c0,0,0,0,0,0l.34.45c.12.18.26.36.4.54l.29.36c.2.26.39.5.61.75a3.31,3.31,0,0,0,.25.3c.34.41.69.81,1.06,1.2l.49.51a.47.47,0,0,0,.14.14c.22.24.45.48.69.71l.24.23.48.45,0,0,.56.49a2.75,2.75,0,0,0,.26.22l.22.2a1.49,1.49,0,0,0,.14.12l.92.74.17.14.16.12c.38.29.76.58,1.16.85s.73.51,1.11.74,1,.61,1.47.89.8.45,1.21.66l.06,0c.75.39,1.51.75,2.29,1.07a2.07,2.07,0,0,0,.34.15l.73.29.19.07.16.05a.72.72,0,0,0,.2.09l.78.27.19.06.09,0,.1,0,1.28.4,1.26.33.71.17.42.1c.35.08.69.15,1.05.21l.88.16.3.06,1.21.18,1.45.17a1.55,1.55,0,0,1,.31,0l1.08.08h.25l.29,0,.77,0,.74,0q1.22,0,2.46,0h.15c.63,0,1.27,0,1.92-.07h.08c.36,0,.73,0,1.09-.07.67-.05,1.36-.11,2-.19l.27,0c.66-.07,1.32-.16,2-.26.87-.12,1.76-.26,2.66-.42l.52-.09.49-.1,1.18-.24.78-.16.86-.19.76-.18,1.16-.29.07,0,.19,0,.44-.11.07,0h0l.5-.13C213.93,417.23,215.19,418.89,216.54,420.53Z" />
    <path class="BUNTAI_OWL_OUTFIT_BUNTAI_OWL_OUTFIT_39_f" d="M206.65,353.55c-2.41,2.39-5.76,3.82-9.49,4.77v1s.3,2,.75,5c5-1.17,9.62-3.07,13.14-6.56,3.89-3.86,5.78-9.11,7.31-14.36a37,37,0,0,1-6.13-1C211,346.54,209.45,350.78,206.65,353.55Z" />
    <path class="BUNTAI_OWL_OUTFIT_BUNTAI_OWL_OUTFIT_39_f" d="M219.7,338.47a33.16,33.16,0,0,1-6.12-.93c1.24-4.69,1.95-8.84.58-12.06-1.58-3.73-6-6.36-11.17-9.18l-43.76-23.83a45,45,0,0,0,2.11-5.71Q183.68,298.9,206,311.07c5.53,3,11.45,6.41,13.87,12.12C221.91,328,221,333.35,219.7,338.47Z" />
    <path class="BUNTAI_OWL_OUTFIT_BUNTAI_OWL_OUTFIT_39_f" d="M369.45,343.49l.43,0-.07.09c-.38.51-3.78,4-4.19,4.51a.61.61,0,0,1-.07.1,46,46,0,0,1-6.28,6.2,54,54,0,0,1-4.38,3.2l-.76.49h0l-.25.16-.06,0-.78.48-.32.19,0,0-.35.21-.09.05h0c-.07.05-.15.08-.23.13h0l0,0h-.06l-.55.32-.56.3-.77.41-.48.25L349,361l-.92.45-1,.48-1,.44-.62.27-.33.14-1,.4-.06,0-1.33.51-1.27.47-.16,0c-.14.06-.3.11-.45.16s-.39.14-.58.19l-.26.09-.73.23a2.65,2.65,0,0,1-.37.12l-.53.17c-.83.25-1.67.49-2.5.71l-1.09.28-.54.13-.27.07-1.14.26-.87.2-.37.07-.85.17-.43.09-.13,0-.16,0a1.47,1.47,0,0,1-.29.05l-.11,0-.11,0h-.1l-.56.11-.29.05-.09,0-.18,0-.23,0-.06,0H328l-.14,0-.1,0-.13,0-.4.06a2.7,2.7,0,0,1-.41.06l-.47.08-.46.06-.67.1-.66.09-.14,0-.14,0-1.07.13-1.09.12-1.36.15-1.37.12-1.19.1-.49,0h-.34l-.48,0a3.29,3.29,0,0,1-.45,0l-.4,0-.42,0-.83.05h-.31l-.43,0-.69,0-.53,0-1,0-1,0-.79,0h-1.17c-.56,0-1.12,0-1.68,0H305q-3.11,0-6.19-.07c-.58,0-1.16,0-1.73,0-.46,8.36-3.4,34.23-22.13,47.34-7.2,5.05-15.84,7.57-25.82,7.57A79.69,79.69,0,0,1,227,420.53c.34-.41.66-.82,1-1.24,1-1.24,1.91-2.5,2.81-3.77l.43.1h0l2,.51c1.22.29,2.41.55,3.59.78l.28.06.51.09a66.5,66.5,0,0,0,8.86,1l.53,0h.65c.48,0,.95,0,1.43,0h1.36c.37,0,.74,0,1.11,0,.13,0,.27,0,.4,0a2.41,2.41,0,0,0,.38,0l.3,0a4.53,4.53,0,0,0,.53-.05l.69-.06.24,0c.38,0,.75-.08,1.13-.13l1.11-.16c.34,0,.67-.1,1-.17l.4-.07.86-.17,1.11-.26.5-.13.59-.15.41-.12c.3-.09.59-.17.88-.27a3.33,3.33,0,0,0,.51-.16l.24-.08.21-.07.32-.12c.41-.14.82-.3,1.23-.47l.39-.15.21-.09c.31-.12.62-.26.93-.41l.91-.43.06,0,.07,0c.48-.23.95-.48,1.42-.74.23-.12.44-.25.67-.39s.66-.39,1-.6l.18-.11.1-.07c.3-.19.6-.38.89-.6s.6-.43.9-.65l.59-.46.29-.22c.35-.28.71-.58,1-.88l.2-.18c.28-.24.55-.48.81-.73l.4-.38.92-.93c.19-.2.38-.39.56-.6l.06-.06.75-.84.18-.22c.15-.17.3-.34.44-.52l.6-.75c.44-.56.86-1.13,1.27-1.71l.39-.56s0,0,0-.06l.24-.37.07-.11q.18-.25.33-.51a1.3,1.3,0,0,0,.1-.15c.06-.09.12-.18.17-.27a.18.18,0,0,0,.05-.08s0,0,0,0a0,0,0,0,0,0,0s0,0,0,0h0c.3-.46.57-1,.85-1.45a4,4,0,0,0,.28-.5c.06-.1.12-.2.17-.3a3.72,3.72,0,0,0,.19-.34l.34-.65h0c.27-.53.55-1.06.81-1.63.15-.29.28-.58.4-.87s.39-.87.58-1.3.36-.87.53-1.3.39-1,.57-1.49.33-.92.48-1.37q.17-.44.3-.87c.1-.32.21-.64.3-.95s.16-.52.23-.78l.21-.69c.05-.17.1-.34.14-.5s.08-.32.13-.48.11-.4.16-.61.17-.65.25-1c0-.12.05-.23.08-.34s.11-.45.17-.68c.14-.57.26-1.13.38-1.68.06-.29.12-.58.17-.87s.11-.55.16-.83c0-.13,0-.26.08-.38s.06-.29.08-.44.09-.54.14-.8.08-.47.11-.7.08-.45.11-.67a.88.88,0,0,1,0-.16c.06-.37.11-.72.16-1.06s.1-.78.15-1.15c.09-.75.17-1.46.23-2.11,0-.2,0-.39.05-.57s0-.34,0-.5,0-.35.05-.53,0-.13,0-.19c0-.27,0-.52.05-.76h0q-17.5-.68-34.9-2.87h0c-.06-.61-.12-1.2-.17-1.77-.19-1.9-.34-3.51-.42-4.36A405.84,405.84,0,0,0,299,363.15c2.19,0,4.17.07,6,.07,12.12,0,21.17-1,29.33-3.13A58.09,58.09,0,0,0,352.4,352h0l.05,0s0,0,0,0l0,0h0a72.6,72.6,0,0,0,9.94-9h0Q366,343.34,369.45,343.49Z" />
    <path class="BUNTAI_OWL_OUTFIT_BUNTAI_OWL_OUTFIT_39_f" d="M292,286.62c.07.17.91,2.22,2.42,5.36l-1.6,1-7.61,4.82L240.55,316.3l-1,.53-.94.52a35.79,35.79,0,0,0-6.43,4.35l-.59.57a11.1,11.1,0,0,0-1.08,1.22c-.16.21-.31.42-.45.64a8.74,8.74,0,0,0-.72,1.35c-.1.23-.18.45-.26.68a6.73,6.73,0,0,0-.21.77,8.7,8.7,0,0,0-.18,1l-.06.53a28,28,0,0,0,1.26,8.95c-.51.14-1,.26-1.52.37a29.38,29.38,0,0,1-3.19.51c-.46.06-.93.11-1.39.14h0c-1.31-5.11-2.19-10.46-.16-15.25,2.43-5.71,8.34-9.12,13.87-12.12,15.31-8.34,30.63-10.83,45.94-19.17,1-.52,2-1.19,3.23-1.93.18-.11.37-.22.56-.35,1.51-1,3.12-2,4.73-3.09v.08Z" />
    <path class="BUNTAI_OWL_OUTFIT_BUNTAI_OWL_OUTFIT_39_b" d="M201.36,384.65c-.24-1.14-.49-2.47-.75-3.89-1-5.28-2-12-2.7-16.45-.45-3-.75-5-.75-5v-2.84a4.38,4.38,0,0,0-1.34-3.14,4.64,4.64,0,0,0-3.23-1.3,4.5,4.5,0,0,0-4.56,4.44v2.84s0,.23-.07.63c-.1,1.1-.33,3.5-.6,6.12-.23,2.33-.49,4.84-.68,6.76-.5,4.85-4.69,16.79-1.19,18.44a9.53,9.53,0,0,0,2.65.63,29.87,29.87,0,0,0,3.69.2,35.26,35.26,0,0,0,5.62-.44,16.81,16.81,0,0,0,2.66-.63c1.68-.57,2.64-1.36,2.24-2.38A27.44,27.44,0,0,1,201.36,384.65Z" />
    <path class="BUNTAI_OWL_OUTFIT_BUNTAI_OWL_OUTFIT_39_b" d="M256.86,372.8c-.2-1.92-.46-4.43-.69-6.76-.26-2.62-.49-5-.6-6.12,0-.4-.07-.63-.07-.63h-9.13s-.3,2-.75,5c-.73,4.77-1.87,12-2.88,17.4-.22,1.25-.44,2.4-.66,3.4a26.63,26.63,0,0,1-.9,3.51c-.4,1,.57,1.81,2.25,2.38a16.67,16.67,0,0,0,2.65.63,35.35,35.35,0,0,0,5.62.44,29.76,29.76,0,0,0,3.69-.2,9.61,9.61,0,0,0,2.66-.63C261.54,389.59,257.35,377.65,256.86,372.8Z" />
    <path class="BUNTAI_OWL_OUTFIT_BUNTAI_OWL_OUTFIT_39_g" d="M212.24,342.38a44.18,44.18,0,0,1-2.2,6.1c-.22.48-.46.95-.71,1.41a15.46,15.46,0,0,1-2.67,3.66h0a15.22,15.22,0,0,1-4.25,2.92,27.37,27.37,0,0,1-5.23,1.85v-1.87a4.15,4.15,0,0,0-.21-1.32,4,4,0,0,0-.28-.67,4.24,4.24,0,0,0-.56-.84l-.3-.31a4.65,4.65,0,0,0-6.45,0,4.52,4.52,0,0,0-1.13,1.82,4.44,4.44,0,0,0-.2,1.32v2.88s0,.11,0,.21v0a1.68,1.68,0,0,1,0,.2s0,.09,0,.14a405.85,405.85,0,0,1-43.36,3.24c-2.2,0-4.18.07-6,.07-12.12,0-21.17-1-29.32-3.13a58.17,58.17,0,0,1-17.76-7.9l0,0a42.3,42.3,0,0,1-7.63-6.59c17.06-1.91,37.1-10.57,50.87-21.48.89,1,1.81,1.95,2.74,2.94h0c1.9,2,3.87,4,5.83,6l.06.07,0,0c2.12,2.08,4.22,4.06,6.26,5.84l1.32,1.14c1.12.94,2.21,1.81,3.26,2.59l.09.07a32,32,0,0,0,4.61,2.94,20,20,0,0,0,9,2.13,22.58,22.58,0,0,0,6.8-1.1c.27-.09.53-.17.79-.27l.1,0,.68-.25.49-.2.3-.13.19-.08.21-.1.26-.12a5.18,5.18,0,0,0,.63-.3c.37-.17.72-.35,1.08-.55l.83-.47a2.5,2.5,0,0,0,.35-.21c.2-.11.39-.23.58-.36l.45-.29c.17-.11.34-.22.5-.34l.48-.33.68-.51.1-.08c.22-.17.44-.34.65-.52a5.85,5.85,0,0,0,.54-.45,24.22,24.22,0,0,0,2.51-2.43l.36-.39c.27-.31.53-.62.77-.93s.34-.42.49-.63l.34-.47.45-.67a.05.05,0,0,1,0,0c.15-.23.29-.47.42-.7,0,0,0,0,0-.05a2,2,0,0,0,.14-.25l0,0h0l.1,0,.26.08.24.07h0l.12,0,.4.08h0l.1,0,.29,0,.17,0H192c.2,0,.41,0,.62,0a7,7,0,0,0,3.07-.7c.47.36,1,.72,1.5,1.09s1.08.74,1.66,1.11A44.89,44.89,0,0,0,212.24,342.38Z" />
    <path class="BUNTAI_OWL_OUTFIT_BUNTAI_OWL_OUTFIT_39_g" d="M309.5,316.15c-2.06,2.19-5.31,5.55-6.69,7a175.65,175.65,0,0,1-13,12.69c-1.08.92-2.13,1.78-3.13,2.54-.6.45-1.18.88-1.75,1.26a23.21,23.21,0,0,1-2.64,1.58,15.32,15.32,0,0,1-11.83.73,22.25,22.25,0,0,1-4.65-2.13c-.24-.15-.48-.29-.71-.45-.48-.29-.92-.61-1.37-.94l-.35-.27-.45-.35c-.37-.29-.72-.59-1.06-.89s-.75-.7-1.1-1.05c-.16-.16-.31-.33-.46-.49-.3-.32-.58-.65-.84-1s-.5-.64-.72-.95a12.37,12.37,0,0,1-.84-1.37,2.42,2.42,0,0,0-.74-.87,6.7,6.7,0,0,0,.71-3,5.12,5.12,0,0,0,0-.69,5.58,5.58,0,0,0-.09-.59,1.1,1.1,0,0,0-.06-.26.8.8,0,0,0,0-.15.56.56,0,0,0,0-.12,3.39,3.39,0,0,0-.17-.51,1.75,1.75,0,0,0-.12-.32c0-.1-.09-.2-.14-.3a1.74,1.74,0,0,0-.1-.19,5.52,5.52,0,0,0-.4-.66,8.08,8.08,0,0,0-.74-.88,2.9,2.9,0,0,0-.36-.34,5.3,5.3,0,0,0-.52-.42,3.7,3.7,0,0,0-.55-.36l-.34-.19a5.52,5.52,0,0,0-.55-.26l0,0a6.08,6.08,0,0,0-.6-.21h0l-.4-.11a3,3,0,0,0-.52-.1c-.14,0-.28,0-.44-.06a5.27,5.27,0,0,0-.7,0,5.43,5.43,0,0,0-.71,0,3.7,3.7,0,0,0-.48.07,3,3,0,0,0-.43.08l-.23.06-.36.11a2.86,2.86,0,0,0-.41.15,6.43,6.43,0,0,0-.71.32l-.35.2a2.63,2.63,0,0,0-.41.27,4.85,4.85,0,0,0-.61.49,1.1,1.1,0,0,0-.23.2,6.67,6.67,0,0,0-2,4.79,6.4,6.4,0,0,0,.35,2.11h0a46.57,46.57,0,0,1-9,5.19,37.54,37.54,0,0,1-3.9,1.44c-.51.16-1,.31-1.53.44h0a28,28,0,0,1-1.26-8.95l.06-.53a8.7,8.7,0,0,1,.18-1c.06-.26.13-.52.21-.77,0-.07,0-.15.07-.22l.19-.46a8.74,8.74,0,0,1,.72-1.35c.14-.22.29-.43.45-.64a11.1,11.1,0,0,1,1.08-1.22h0c.19-.19.38-.38.59-.56a35.79,35.79,0,0,1,6.43-4.35l.94-.52,1-.53,44.65-18.47,7.61-4.83,1.6-1A121.2,121.2,0,0,0,309.5,316.15Z" />
    <path class="BUNTAI_OWL_OUTFIT_BUNTAI_OWL_OUTFIT_39_g" d="M316.89,323.74c10.67,9.13,28.78,16.77,45.59,19.1a72.6,72.6,0,0,1-9.94,9h0l0,0s0,0,0,0l-.05,0h0a58.09,58.09,0,0,1-18.08,8.13c-8.16,2.16-17.21,3.13-29.33,3.13-1.87,0-3.85,0-6-.07a405.84,405.84,0,0,1-43.37-3.24c-.05-.4-.07-.62-.07-.62v-2.84a4.51,4.51,0,0,0-4.57-4.44,4.62,4.62,0,0,0-3.22,1.3l-.3.31a4.24,4.24,0,0,0-.56.84,4,4,0,0,0-.28.67,4.15,4.15,0,0,0-.21,1.32v1.87a27.37,27.37,0,0,1-5.23-1.85,15.22,15.22,0,0,1-4.25-2.92c-2.82-2.8-4.4-7.09-5.61-11.28a48.16,48.16,0,0,0,16.34-8.07h0a6.94,6.94,0,0,0,3.31.82h.5l.16,0a3.4,3.4,0,0,0,.46-.06h.1l.08,0,.44-.1.42-.12.13,0,.11,0,.12,0c.13.22.25.46.4.68v0a28,28,0,0,0,10.71,9.66h0l.29.16.11.05a26.5,26.5,0,0,0,2.83,1.22l1,.35.11,0,.15.05.11,0,.2.05.78.22a22.86,22.86,0,0,0,2.38.49c.47.07.94.13,1.41.17h.24c.49,0,1,.06,1.48.06a20,20,0,0,0,9-2.13,35.76,35.76,0,0,0,5.57-3.66l.08-.06a117.77,117.77,0,0,0,9.12-8.11l.1-.11.42-.4,0,0c2.07-2,4.13-4.13,6.12-6.24l.61-.64,2.37-2.47c.19-.21.39-.41.58-.61l2.44-2.56c.18-.19.36-.37.53-.56l.27-.28A54.48,54.48,0,0,0,316.89,323.74Z" />
    <path class="BUNTAI_OWL_OUTFIT_BUNTAI_OWL_OUTFIT_39_g" d="M213.58,337.54a41.31,41.31,0,0,1-14.45-7h0a6.37,6.37,0,0,0,.42-2.32,7,7,0,0,0-13.91,0,6.57,6.57,0,0,0,.71,3,2.35,2.35,0,0,0-.75.87,16.7,16.7,0,0,1-2.86,3.78c-.17.18-.35.35-.54.52-.36.35-.75.69-1.15,1h0c-.4.34-.82.67-1.26,1a16.56,16.56,0,0,1-1.37.94c-.23.16-.47.3-.71.45a22,22,0,0,1-4.65,2.13,15.33,15.33,0,0,1-11.83-.73c-5.21-2.6-13.26-10.37-20.46-18h0c-.74-.81-1.49-1.6-2.21-2.39.42-.36.83-.75,1.23-1.13a90.42,90.42,0,0,0,14.62-18,75.86,75.86,0,0,0,4.84-9.22L203,316.3c5.18,2.82,9.59,5.45,11.17,9.18C215.53,328.7,214.82,332.85,213.58,337.54Z" />
    <path class="BUNTAI_OWL_OUTFIT_BUNTAI_OWL_OUTFIT_39_h" d="M197.91,364.31c5-1.17,9.62-3.07,13.14-6.56,3.89-3.86,5.78-9.11,7.31-14.36" />
    <path class="BUNTAI_OWL_OUTFIT_BUNTAI_OWL_OUTFIT_39_h" d="M187.37,366q-4.35.56-8.7,1c-1.14.11-2.25.23-3.39.33l-.45,0-.4,0-.7.07-3.79.33-.22,0-2.18.17h0l-1,.07-.93.08-.64,0-1.14.07-2.37.16-.9.05-3.11.17c-.95.05-1.88.1-2.83.13-.21,0-.42,0-.64,0l-.35,0-.69,0-.44,0h0c-2,.08-4,.14-6,.19-.57,0-1.15,0-1.73,0l-2.91.05-3.25,0h-.09l-2.15,0c-.56,0-1.12,0-1.67,0l-1.83,0h-.2l-.66,0-.42,0-1.61-.06-2.06-.11-1.78-.12-.58,0-.59-.05h-.08l-.26,0-.77-.07-.63-.06-.63-.06-1.25-.13-.49-.06-.5-.06h-.11l-.11,0-.63-.07-.92-.12-.11,0-.22,0-1.19-.17-1.3-.2-.13,0c-.3,0-.59-.1-.88-.15l-.89-.16-.71-.13-.69-.14-.34-.07-.34-.08h-.09l-.07,0-.4-.08-1.32-.3-.19-.05-.29-.06-.27-.07-1.5-.38-1.62-.45-1.08-.33-1-.32-.21-.07-.72-.24-.72-.25-1.62-.59-1-.38-1-.41-.3-.12-1.13-.5c-.48-.21-1-.43-1.41-.65-.24-.1-.48-.21-.71-.33l-.72-.35-.22-.12-.94-.49-.17-.09c-.32-.17-.64-.34-1-.52l-.08,0h0c-.38-.21-.75-.43-1.12-.65l-.67-.41-.42-.26-.38-.23-.71-.46c-1.2-.79-2.37-1.62-3.49-2.5a45.24,45.24,0,0,1-8.43-8.5,2.34,2.34,0,0,1-.2-.27l-.2-.27,0-.05,0,0,0,0" />
    <path class="BUNTAI_OWL_OUTFIT_BUNTAI_OWL_OUTFIT_39_h" d="M161.34,286.76Q183.68,298.9,206,311.07c5.53,3,11.45,6.41,13.87,12.12,2,4.79,1.15,10.16-.17,15.28" />
    <path class="BUNTAI_OWL_OUTFIT_BUNTAI_OWL_OUTFIT_39_h" d="M159.23,292.47,203,316.3c5.18,2.82,9.59,5.45,11.17,9.18,1.37,3.22.66,7.37-.58,12.06" />
    <path class="BUNTAI_OWL_OUTFIT_BUNTAI_OWL_OUTFIT_39_h" d="M188,359.91a405.85,405.85,0,0,1-43.36,3.24c-2.2,0-4.18.07-6,.07-12.12,0-21.17-1-29.32-3.13a58.17,58.17,0,0,1-17.76-7.9l0,0a42.3,42.3,0,0,1-7.63-6.59h0" />
    <path class="BUNTAI_OWL_OUTFIT_BUNTAI_OWL_OUTFIT_39_h" d="M197.16,358.32c3.73-.95,7.08-2.38,9.49-4.77,2.8-2.77,4.37-7,5.58-11.17" />
    <path class="BUNTAI_OWL_OUTFIT_BUNTAI_OWL_OUTFIT_39_h" d="M199.13,330.56a6.57,6.57,0,0,0,.42-2.31,7,7,0,0,0-13.92,0,6.69,6.69,0,0,0,.71,3,7,7,0,0,0,6.25,3.78,7,7,0,0,0,3.08-.7" />
    <path class="BUNTAI_OWL_OUTFIT_BUNTAI_OWL_OUTFIT_39_h" d="M138.54,320.81c.72.79,1.47,1.58,2.21,2.39h0c7.2,7.67,15.25,15.44,20.46,18a15.33,15.33,0,0,0,11.83.73,22,22,0,0,0,4.65-2.13c.24-.15.48-.29.71-.45a16.56,16.56,0,0,0,1.37-.94l.65-.49c.21-.17.41-.33.61-.51h0l.59-.51.56-.53c.19-.17.37-.34.54-.52a16.7,16.7,0,0,0,2.86-3.78,2.35,2.35,0,0,1,.75-.87" />
    <path class="BUNTAI_OWL_OUTFIT_BUNTAI_OWL_OUTFIT_39_h" d="M190.08,334.56a2,2,0,0,1-.14.25s0,0,0,.05c-.13.23-.27.47-.42.7a.05.05,0,0,0,0,0l-.45.67-.34.47-.49.63c-.24.31-.5.62-.77.93l-.36.39a24.22,24.22,0,0,1-2.51,2.43,5.85,5.85,0,0,1-.54.45c-.21.18-.43.35-.65.52l-.1.08-.68.51-.48.33c-.16.12-.33.23-.5.34l-.45.29c-.19.13-.38.25-.58.36a2.5,2.5,0,0,1-.35.21l-.83.47c-.36.2-.71.38-1.08.55a3.82,3.82,0,0,1-.54.26c-.25.12-.5.24-.75.34l-.3.13-.49.2-.68.25-.1,0c-.26.1-.52.18-.79.27a22.58,22.58,0,0,1-6.8,1.1,20,20,0,0,1-9-2.13,32,32,0,0,1-4.61-2.94l-.09-.07c-1-.78-2.14-1.65-3.26-2.59L149.59,339c-2-1.78-4.14-3.76-6.26-5.84l0,0,0,0h0s0,0,0,0c-2-1.94-3.93-4-5.83-6h0c-.93-1-1.85-2-2.74-2.94" />
    <path class="BUNTAI_OWL_OUTFIT_BUNTAI_OWL_OUTFIT_39_h" d="M221.77,426.35c-1.87-1.88-3.61-3.82-5.24-5.81q-2-2.48-3.81-5A104.05,104.05,0,0,1,200.11,391" />
    <path class="BUNTAI_OWL_OUTFIT_BUNTAI_OWL_OUTFIT_39_h" d="M74.13,391.68C65.3,405.81,53,420.52,51.52,423.43s-2.69,20.41-2.69,20.41h78" />
    <path class="BUNTAI_OWL_OUTFIT_BUNTAI_OWL_OUTFIT_39_h" d="M88.64,357.61c-3,6.44-12.73,27.41-14.51,34.05" />
    <path class="BUNTAI_OWL_OUTFIT_BUNTAI_OWL_OUTFIT_39_h" d="M124.86,372A104.7,104.7,0,0,0,118,396c-2.34,14.46-2.08,32.91,8.84,47.83A48.86,48.86,0,0,0,133.2,451" />
    <path class="BUNTAI_OWL_OUTFIT_BUNTAI_OWL_OUTFIT_39_h" d="M116.81,373.18S113.69,388.68,118,396" />
    <path class="BUNTAI_OWL_OUTFIT_BUNTAI_OWL_OUTFIT_39_h" d="M116.86,407.41s-7.34-20.93-10.16-20-1,10-1,10" />
    <path class="BUNTAI_OWL_OUTFIT_BUNTAI_OWL_OUTFIT_39_h" d="M74.13,391.68v0c.55-.55,19-19.13,20.75-17.21S86.7,390,86.7,390" />
    <path class="BUNTAI_OWL_OUTFIT_BUNTAI_OWL_OUTFIT_39_h" d="M152.46,368.92c.48,7.65,3.29,31.38,19.64,42.81,10.08,7,23.72,8.31,40.62,3.79" />
    <path class="BUNTAI_OWL_OUTFIT_BUNTAI_OWL_OUTFIT_39_h" d="M146.45,369.1c.46,8.36,3.4,34.23,22.13,47.34,7.2,5.05,15.84,7.57,25.82,7.57a80,80,0,0,0,22.13-3.47" />
    <line class="BUNTAI_OWL_OUTFIT_BUNTAI_OWL_OUTFIT_39_h" x1="192.59" y1="335.02" x2="192.59" y2="352.01" />
    <path class="BUNTAI_OWL_OUTFIT_BUNTAI_OWL_OUTFIT_39_h" d="M197.16,359.29H188v-2.84a4.5,4.5,0,0,1,4.56-4.44,4.64,4.64,0,0,1,3.23,1.3,4.38,4.38,0,0,1,1.34,3.14v2.84Z" />
    <path class="BUNTAI_OWL_OUTFIT_BUNTAI_OWL_OUTFIT_39_h" d="M197.16,359.29s.3,2,.75,5c.69,4.49,1.74,11.17,2.7,16.45.26,1.42.51,2.75.75,3.89a27.44,27.44,0,0,0,1,4c.4,1-.56,1.81-2.24,2.38a18,18,0,0,1-2.66.63,35.26,35.26,0,0,1-5.62.44,29.87,29.87,0,0,1-3.69-.2,9.53,9.53,0,0,1-2.65-.63c-3.5-1.65.69-13.59,1.19-18.44.19-1.92.45-4.43.68-6.76.27-2.62.5-5,.6-6.12,0-.4.07-.63.07-.63" />
    <path class="BUNTAI_OWL_OUTFIT_BUNTAI_OWL_OUTFIT_39_h" d="M188.14,391.87c-.82-6.9,1.84-26.13,2.78-32.58" />
    <path class="BUNTAI_OWL_OUTFIT_BUNTAI_OWL_OUTFIT_39_h" d="M191.83,392.07c-.21-7.83.82-25.72,1.25-32.78" />
    <path class="BUNTAI_OWL_OUTFIT_BUNTAI_OWL_OUTFIT_39_h" d="M194.87,359.29c.59,7.45,2,25.68,2.58,32.34" />
    <path class="BUNTAI_OWL_OUTFIT_BUNTAI_OWL_OUTFIT_39_h" d="M292,286.53c-1.61,1.06-3.22,2.13-4.73,3.09-.19.13-.38.24-.56.35-1.18.74-2.27,1.41-3.23,1.93-15.31,8.34-30.63,10.83-45.94,19.17-5.53,3-11.44,6.41-13.87,12.12-2,4.79-1.15,10.14.16,15.25h0" />
    <path class="BUNTAI_OWL_OUTFIT_BUNTAI_OWL_OUTFIT_39_h" d="M369.88,343.51l-.07.09c-.38.51-3.78,4-4.19,4.51a.61.61,0,0,1-.07.1,46,46,0,0,1-6.28,6.2,54,54,0,0,1-4.38,3.2l-.76.49h0l-.25.16-.06,0c-.26.17-.52.32-.78.48l-.32.19,0,0-.35.21-.09.05h0c-.07.05-.15.08-.23.13h0l0,0h0l-.05,0-.55.32-.56.3-.77.41-.48.25L349,361l-.92.45-1,.48-1,.44-.62.27-.33.14h0l-.95.39-.06,0-1.33.51-1.27.47-.16,0c-.14.06-.3.11-.45.16s-.39.14-.58.19l-.26.09-.73.23a2.65,2.65,0,0,1-.37.12l-.53.17c-.83.25-1.67.49-2.5.71-.36.1-.72.2-1.09.28l-.54.13-.27.07-1.14.26-.87.2-.37.07-.85.17-.43.09-.13,0-.16,0a1.47,1.47,0,0,1-.29.05l-.11,0-.11,0h-.1l-.56.11-.29.05-.09,0-.41.06H328l-.14,0-.1,0-.13,0-.4.06a2.7,2.7,0,0,1-.41.06l-.47.08-.46.06-.67.1-.66.09-.14,0-.14,0-1.07.13-1.09.12-1.36.15-1.37.12-1.19.1-.49,0h-.34l-.48,0a3.29,3.29,0,0,1-.45,0l-.4,0-.42,0-.83.05h-.31l-.43,0-.69,0-.53,0-1,0-1,0-.79,0h-1.17c-.56,0-1.12,0-1.68,0H305q-3.11,0-6.19-.07c-.58,0-1.16,0-1.73,0q-3-.08-6-.19-17.5-.68-34.9-2.87h0" />
    <path class="BUNTAI_OWL_OUTFIT_BUNTAI_OWL_OUTFIT_39_h" d="M225.17,343.36c1.52,5.26,3.41,10.52,7.31,14.39,3.52,3.49,8.19,5.39,13.14,6.56" />
    <path class="BUNTAI_OWL_OUTFIT_BUNTAI_OWL_OUTFIT_39_h" d="M231.27,342.27c1.22,4.2,2.8,8.48,5.61,11.28,2.41,2.39,5.77,3.82,9.49,4.77" />
    <path class="BUNTAI_OWL_OUTFIT_BUNTAI_OWL_OUTFIT_39_h" d="M255.58,359.91A405.84,405.84,0,0,0,299,363.15c2.19,0,4.17.07,6,.07,12.12,0,21.17-1,29.33-3.13A58.09,58.09,0,0,0,352.4,352h0l.05,0s0,0,0,0l0,0h0a72.6,72.6,0,0,0,9.94-9h0" />
    <path class="BUNTAI_OWL_OUTFIT_BUNTAI_OWL_OUTFIT_39_h" d="M229.93,337.43a28,28,0,0,1-1.26-8.95l.06-.53a8.7,8.7,0,0,1,.18-1,9.09,9.09,0,0,1,.47-1.45,8.74,8.74,0,0,1,.72-1.35c.14-.22.29-.43.45-.64a11.1,11.1,0,0,1,1.08-1.22l.59-.57a35.79,35.79,0,0,1,6.43-4.35l.94-.52,1-.53,44.65-18.48,7.61-4.82,1.6-1" />
    <path class="BUNTAI_OWL_OUTFIT_BUNTAI_OWL_OUTFIT_39_h" d="M244.33,330.36a6.49,6.49,0,0,1-.35-2.11,7,7,0,0,1,13.92,0,6.56,6.56,0,0,1-.71,3,6.91,6.91,0,0,1-3.73,3.32,7,7,0,0,1-2.52.46,7.12,7.12,0,0,1-3.32-.81" />
    <path class="BUNTAI_OWL_OUTFIT_BUNTAI_OWL_OUTFIT_39_h" d="M312.9,320l-.27.28c-.17.19-.35.37-.53.56l-2.44,2.56c-.19.2-.39.4-.58.61l-2.37,2.47-.61.64c-2,2.11-4.05,4.23-6.12,6.24l0,0-.42.4-.1.11a117.77,117.77,0,0,1-9.12,8.11l-.08.06a35.76,35.76,0,0,1-5.57,3.66,20,20,0,0,1-9,2.13c-.49,0-1,0-1.48-.06H274c-.47,0-.94-.1-1.41-.17a22.86,22.86,0,0,1-2.38-.49l-.78-.22-.2-.05-.11,0-.22-.07c-.35-.11-.69-.23-1-.35a26.5,26.5,0,0,1-2.83-1.22l-.11-.05-.29-.16h0a28,28,0,0,1-10.71-9.66v0c-.15-.22-.27-.46-.4-.68" />
    <path class="BUNTAI_OWL_OUTFIT_BUNTAI_OWL_OUTFIT_39_h" d="M309.5,316.15c-2.06,2.19-5.31,5.55-6.69,7a175.65,175.65,0,0,1-13,12.69c-1.08.93-2.13,1.78-3.13,2.54-.6.46-1.18.88-1.75,1.26a23.21,23.21,0,0,1-2.64,1.58,15.32,15.32,0,0,1-11.83.73,22.25,22.25,0,0,1-4.65-2.13c-.24-.15-.48-.29-.71-.45-.48-.29-.92-.61-1.37-.94l-.35-.27-.3-.22-.15-.13c-.37-.29-.72-.59-1.06-.89s-.75-.7-1.1-1.05c-.16-.16-.31-.33-.46-.49-.3-.32-.58-.65-.84-1s-.5-.64-.72-.95a12.37,12.37,0,0,1-.84-1.37,2.42,2.42,0,0,0-.74-.87" />
    <path class="BUNTAI_OWL_OUTFIT_BUNTAI_OWL_OUTFIT_39_h" d="M243.43,391a104.49,104.49,0,0,1-12.62,24.52q-1.8,2.55-3.81,5-2.44,3-5.23,5.81" />
    <path class="BUNTAI_OWL_OUTFIT_BUNTAI_OWL_OUTFIT_39_h" d="M369.4,391.66c-1.77-6.64-11.49-27.61-14.51-34.05" />
    <path class="BUNTAI_OWL_OUTFIT_BUNTAI_OWL_OUTFIT_39_h" d="M316.69,443.84h78s-1.2-17.49-2.7-20.41-13.77-17.62-22.6-31.75" />
    <path class="BUNTAI_OWL_OUTFIT_BUNTAI_OWL_OUTFIT_39_h" d="M326.67,407.41c.42,12-1.77,25.21-10,36.43a48.78,48.78,0,0,1-6.35,7.12H133.2" />
    <path class="BUNTAI_OWL_OUTFIT_BUNTAI_OWL_OUTFIT_39_h" d="M318.67,372a104.7,104.7,0,0,1,6.86,24,91.87,91.87,0,0,1,1.14,11.39" />
    <path class="BUNTAI_OWL_OUTFIT_BUNTAI_OWL_OUTFIT_39_h" d="M326.72,373.18s3.13,15.5-1.19,22.83" />
    <path class="BUNTAI_OWL_OUTFIT_BUNTAI_OWL_OUTFIT_39_h" d="M326.67,407.41h0c.18-.52,7.37-20.91,10.17-19.94s1,10,1,10" />
    <path class="BUNTAI_OWL_OUTFIT_BUNTAI_OWL_OUTFIT_39_h" d="M369.41,391.68v0c-.55-.55-19-19.13-20.74-17.21S356.83,390,356.83,390" />
    <path class="BUNTAI_OWL_OUTFIT_BUNTAI_OWL_OUTFIT_39_h" d="M230.81,415.52c16.9,4.52,30.54,3.25,40.62-3.79,16.35-11.43,19.16-35.16,19.64-42.81" />
    <path class="BUNTAI_OWL_OUTFIT_BUNTAI_OWL_OUTFIT_39_h" d="M227,420.54A80,80,0,0,0,249.13,424c10,0,18.62-2.52,25.82-7.57,18.74-13.11,21.67-39,22.14-47.34" />
    <line class="BUNTAI_OWL_OUTFIT_BUNTAI_OWL_OUTFIT_39_h" x1="250.94" y1="335.02" x2="250.94" y2="352.01" />
    <path class="BUNTAI_OWL_OUTFIT_BUNTAI_OWL_OUTFIT_39_h" d="M246.37,359.29h9.13v-2.84a4.5,4.5,0,0,0-4.56-4.44,4.64,4.64,0,0,0-3.23,1.3,4.42,4.42,0,0,0-1.34,3.14v2.84Z" />
    <path class="BUNTAI_OWL_OUTFIT_BUNTAI_OWL_OUTFIT_39_h" d="M255.5,359.29s0,.23.07.63c.11,1.1.34,3.5.6,6.12.23,2.33.49,4.84.69,6.76.49,4.85,4.68,16.79,1.19,18.44a9.61,9.61,0,0,1-2.66.63,29.76,29.76,0,0,1-3.69.2,35.35,35.35,0,0,1-5.62-.44,17.84,17.84,0,0,1-2.65-.63c-1.68-.57-2.65-1.36-2.25-2.38a26.63,26.63,0,0,0,.9-3.51c.22-1,.44-2.15.66-3.4,1-5.41,2.15-12.63,2.88-17.4.45-3,.75-5,.75-5" />
    <path class="BUNTAI_OWL_OUTFIT_BUNTAI_OWL_OUTFIT_39_h" d="M252.61,359.29c.94,6.45,3.6,25.68,2.78,32.58" />
    <path class="BUNTAI_OWL_OUTFIT_BUNTAI_OWL_OUTFIT_39_h" d="M250.45,359.29c.44,7.06,1.47,24.95,1.25,32.78" />
    <path class="BUNTAI_OWL_OUTFIT_BUNTAI_OWL_OUTFIT_39_h" d="M246.08,391.63c.53-6.66,2-24.89,2.58-32.34" />
    <path class="BUNTAI_OWL_OUTFIT_BUNTAI_OWL_OUTFIT_39_h" d="M225.17,343.36c-1.21.11-2.42.17-3.63.17-.62,0-1.25,0-1.88,0-.44,0-.87-.05-1.3-.09a37,37,0,0,1-6.13-1,45.94,45.94,0,0,1-16.56-8.06,38.66,38.66,0,0,1-5-4.41,2.47,2.47,0,0,1,.22-3.54,2.61,2.61,0,0,1,3.62.22,37,37,0,0,0,4.62,4h0a41.22,41.22,0,0,0,14.45,7,33,33,0,0,0,6.12.92l.28,0a30.73,30.73,0,0,0,3.84,0,33.16,33.16,0,0,0,6.11-1,43.12,43.12,0,0,0,14.4-7.08q2.44-1.78,4.87-3.95a2.61,2.61,0,0,1,3.63.15,2.45,2.45,0,0,1-.15,3.53q-2.51,2.25-5.06,4.12h0a48.35,48.35,0,0,1-16.35,8.06A37.91,37.91,0,0,1,225.17,343.36Z" />
    <path class="BUNTAI_OWL_OUTFIT_BUNTAI_OWL_OUTFIT_39_h" d="M200.61,380.76s8.82-3.6,13.51-6.71,15-1,19.56,3.35,9,4.31,9.06,4.31" />
    <path class="BUNTAI_OWL_OUTFIT_BUNTAI_OWL_OUTFIT_39_h" d="M242.08,385.11s-7-.86-11.27-3.82-10.05-4.66-14.75-3.25-11.65,6.17-14.7,6.61" />
    <g class="BUNTAI_OWL_OUTFIT_BUNTAI_OWL_OUTFIT_39_i">
      <path d="M154.39,301.69c-3.35,7.34-8,15.31-13.63,21.51h0c-5.16-1.29-3.44,3.57-3.35,3.84-.62.41-25.91,16.91-45.93,25.15l0,0c-5-2.94-7.31.9-6.26,2.94a31.31,31.31,0,0,1-5-4.29,32.8,32.8,0,0,1-3.43-4.21,2.34,2.34,0,0,1-.2-.27l-.2-.27,0-.05,0,0s0,0,0,0a58.81,58.81,0,0,0,7.51-.39h0c17.06-1.91,37.1-10.57,50.87-21.48,1.36-1.07,2.65-2.16,3.88-3.29.42-.36.83-.75,1.23-1.13A90.42,90.42,0,0,0,154.39,301.69Z" />
      <path d="M89.36,358.07s-6.75,13.84-10.1,20.3a85.35,85.35,0,0,0-5.42,13.77S54.07,420.37,52,422.6s-3.19,21.24-3.19,21.24h25.3S82.4,428,92.88,405.32s10.08-13.59,5.79,4.37c16.66-32.63,17-42.08,17-42.08s-11.44-2.64-19.4-6S89.36,358.07,89.36,358.07Z" />
      <path d="M124.86,372s-3,36.13,12.13,55.21S191.26,458.1,221.68,440V451H133.2a52.7,52.7,0,0,1-14.77-28.76c-4.34-15.52-7.45-28.66-7.45-28.66l4.74,7.42s-2.83-11.93-1.18-23.42c1.24,9.35,4.4,13.46,4.4,13.46S121.57,376.38,124.86,372Z" />
      <path d="M154,368.85s8.58,27.93,24.75,36.28S209,409.86,209,409.86l3.18,5.79s-22.4,6.91-36.17-1.54S154.15,393.65,154,368.85Z" />
      <path d="M143.24,333s12.76,17.23,21.44,18.65,20.13-4.78,25.74-17.45c-6.58,8.3-12.35,12.74-20.73,13.4S151.88,342.61,143.24,333Z" />
      <path d="M362.49,342.84q3.54.5,7,.65c-1.45,1.77-3.1,3.7-3.83,4.62a.61.61,0,0,1-.07.1,34.2,34.2,0,0,1-6.28,6.2c-.32.24-.64.47-1,.7,1-1.95-1.12-5.61-5.75-3.23h-.05s0,0,0,0l-.05,0h0l-.42.23c-19.74-8.12-44.6-24.28-45.88-25.11l-.06,0s1.94-5.1-3.23-3.88a.35.35,0,0,1-.11,0c-8.34-9.13-14.41-16.23-17.5-25.37h0c-.76-2.24-1.33-4.24-1.72-5.92h0s0,0,0,0c1-.57,2.13-1.2,3.24-1.88.18-.11.37-.22.56-.35,1.58-1,3.19-2,4.72-3,.07.17.91,2.22,2.42,5.36a121.2,121.2,0,0,0,15.09,24.17c1.09,1.31,2.22,2.59,3.4,3.81a54.48,54.48,0,0,0,4,3.78c10.67,9.13,28.78,16.77,45.59,19.1Z" />
      <path d="M354.08,358.07s6.76,13.84,10.1,20.3a85.92,85.92,0,0,1,5.43,13.77s19.76,28.23,21.81,30.46,3.2,21.24,3.2,21.24h-25.3S361,428,350.56,405.32s-10.08-13.59-5.79,4.37c-16.66-32.63-17-42.08-17-42.08s11.45-2.64,19.4-6S354.08,358.07,354.08,358.07Z" />
      <path d="M318.58,372s3,36.13-12.12,55.21S252.18,458.1,221.77,440V451h88.48A52.72,52.72,0,0,0,325,422.2c4.35-15.52,7.46-28.66,7.46-28.66L327.72,401s2.83-11.93,1.19-23.42c-1.25,9.35-4.41,13.46-4.41,13.46S321.87,376.38,318.58,372Z" />
      <path d="M289.49,368.85s-8.58,27.93-24.74,36.28-30.34,4.73-30.34,4.73l-3.19,5.79s22.4,6.91,36.17-1.54S289.29,393.65,289.49,368.85Z" />
      <path d="M300.21,333s-12.76,17.23-21.44,18.65-20.14-4.78-25.75-17.45c6.59,8.3,12.35,12.74,20.73,13.4S291.56,342.61,300.21,333Z" />
    </g>
    <path class="BUNTAI_OWL_OUTFIT_BUNTAI_OWL_OUTFIT_39_j" d="M221.68,372.65s-.6-6-4.13-9.34" />
    <path class="BUNTAI_OWL_OUTFIT_BUNTAI_OWL_OUTFIT_39_j" d="M225.81,363.31s-3.86,3.38-4.58,6.95" />
    <path class="BUNTAI_OWL_OUTFIT_BUNTAI_OWL_OUTFIT_39_k" d="M161.34,286.76a45,45,0,0,1-2.11,5.71,75.86,75.86,0,0,1-4.84,9.22,90.42,90.42,0,0,1-14.62,18c-.4.38-.81.77-1.23,1.13-1.23,1.13-2.52,2.22-3.88,3.29-13.77,10.91-33.81,19.57-50.87,21.48h0a58.81,58.81,0,0,1-7.51.39h0" />
    <path class="BUNTAI_OWL_OUTFIT_BUNTAI_OWL_OUTFIT_39_k" d="M292,286.53v.08h0c.07.17.91,2.22,2.42,5.36a121.2,121.2,0,0,0,15.09,24.17c1.09,1.31,2.22,2.59,3.4,3.81a54.48,54.48,0,0,0,4,3.78c10.67,9.13,28.78,16.77,45.59,19.1h0q3.54.5,7,.65l.43,0" />
  </g>
</svg>