<svg xmlns="http://www.w3.org/2000/svg" viewBox="0 0 432 432">
  <defs>
    <style>.BUNTAI_OWL_OUTFIT_BUNTAI_OWL_OUTFIT_24_a{isolation:isolate;}.BUNTAI_OWL_OUTFIT_BUNTAI_OWL_OUTFIT_24_b{fill:#fff3c2;}.BUNTAI_OWL_OUTFIT_BUNTAI_OWL_OUTFIT_24_c{fill:#b1dd6a;}.BUNTAI_OWL_OUTFIT_BUNTAI_OWL_OUTFIT_24_d{fill:#36529f;}.BUNTAI_OWL_OUTFIT_BUNTAI_OWL_OUTFIT_24_e{fill:#c9a976;}.BUNTAI_OWL_OUTFIT_BUNTAI_OWL_OUTFIT_24_f,.BUNTAI_OWL_OUTFIT_BUNTAI_OWL_OUTFIT_24_g,.BUNTAI_OWL_OUTFIT_BUNTAI_OWL_OUTFIT_24_i{fill:none;stroke:#000;stroke-linecap:round;stroke-linejoin:round;}.BUNTAI_OWL_OUTFIT_BUNTAI_OWL_OUTFIT_24_f{stroke-width:1.46px;}.BUNTAI_OWL_OUTFIT_BUNTAI_OWL_OUTFIT_24_g{stroke-width:1.56px;}.BUNTAI_OWL_OUTFIT_BUNTAI_OWL_OUTFIT_24_h{opacity:0.43;mix-blend-mode:multiply;}.BUNTAI_OWL_OUTFIT_BUNTAI_OWL_OUTFIT_24_i{stroke-width:1.73px;}</style>
  </defs>
  <g class="BUNTAI_OWL_OUTFIT_BUNTAI_OWL_OUTFIT_24_a">
    <path class="BUNTAI_OWL_OUTFIT_BUNTAI_OWL_OUTFIT_24_b" d="M357.85,409.91c-2.55,1.75-5.05,3.53-7.49,5.31l-.44.31c-.27.21-.56.42-.84.62h0a367.24,367.24,0,0,0-51.22,46q-1.23-1.89-2.48-3.75-.58-.89-1.2-1.77l-.55-.8c-.44-.64-.88-1.29-1.34-1.93l-.42-.59-.32-.46a2.48,2.48,0,0,0-.19-.26,5,5,0,0,0-.33-.47c-.26-.38-.53-.75-.8-1.13-.44-.61-.87-1.22-1.33-1.82s-.88-1.22-1.34-1.83c-.77-1-1.55-2.07-2.33-3.1l-.79-1-.26-.34c-.26-.35-.53-.69-.8-1l-.26-.33c-.6-.78-1.2-1.54-1.82-2.31l-.19-.25-.17-.21-1.31-1.63c-.55-.67-1.09-1.34-1.65-2l0,0c-.13-.18-.28-.34-.43-.52l-1.19-1.44c-.55-.66-1.12-1.32-1.68-2-.21-.25-.42-.5-.64-.74-.54-.65-1.09-1.29-1.66-1.93s-1.15-1.33-1.74-2l-1.54-1.73-.41-.45c-.61-.69-1.23-1.37-1.85-2.05l-.77-.84c-1.13-1.22-2.26-2.43-3.41-3.64l-.14-.15c-.42-.44-.83-.88-1.25-1.31A3.83,3.83,0,0,0,261,416c-.25-.27-.51-.53-.77-.8q-1.79-1.85-3.59-3.66c-1.23-1.24-2.46-2.46-3.7-3.68l-.14-.13a.93.93,0,0,0-.14-.14l-.17-.17-.08-.08L252,407l-1.39-1.33c0-.06-.11-.11-.17-.17l-.92-.88-.1-.09c-.26-.26-.53-.52-.81-.77l-.23-.23,0,0-.67-.63-.25-.24-.09-.08-.49-.46-1.32-1.23L244,399.43l.87-.66q3.46-2.62,7-5.16t7-5l0,0,0,0c1.11-.77,2.23-1.53,3.35-2.28s2.07-1.4,3.11-2.08,2.17-1.43,3.25-2.13q3.24-2.1,6.51-4.13,6.08-3.78,12.18-7.29l2.6-1.48,3.48-2q2.3-1.27,4.59-2.51c1.08-.58,2.17-1.16,3.25-1.72q3.24-1.71,6.47-3.34h0l3.22-1.6h0l1.42-.69c.78-.39,1.57-.76,2.36-1.14l.24-.12,1.67-.8c7-3.28,13.81-6.26,20.5-8.92,2.28,5.21,7.67,17.83,12.19,31.37.59,1.77,1.16,3.56,1.7,5.34C354.24,393.7,356.61,404.07,357.85,409.91Z" />
    <path class="BUNTAI_OWL_OUTFIT_BUNTAI_OWL_OUTFIT_24_b" d="M299.55,464.81h0l-.45,0-1,.06h-.06c-14.3.79-27.53-1.89-54.1-1.28-5,.11-10.57.35-16.67.75-2,.14-4.14.29-6.32.46q-5.78.45-12.22,1.12c-1.43.14-2.89.29-4.37.46l-4.8.53a161,161,0,0,1-19.42,1.16s-1.24-1.79-3.6-4.94c-.69-.92-1.48-2-2.36-3.1l-.68-.87c-.2-.26-.4-.5-.6-.77l-1.1-1.39-2.43-3-.32-.39-.34-.4a3.15,3.15,0,0,0-.24-.3l-.51-.62-.6-.73-.34-.41c-.36-.43-.71-.86-1.09-1.3l-.74-.88c-.5-.6-1-1.19-1.54-1.81l-3.28-3.78-2.66-3q-.82-.93-1.71-1.89l-1.77-1.93q-1.78-2-3.71-4l-1.93-2c-1.94-2-4-4.09-6.09-6.18l-.06-.06,0,0-.18-.18,0,0-2.3-2.26-2.41-2.32L135,417.23l-2.53-2.35c-.85-.79-1.71-1.58-2.59-2.37s-1.75-1.58-2.65-2.37l-.36-.31c-.77-.69-1.55-1.37-2.34-2.06-2.74-2.37-5.57-4.76-8.48-7.13-1.88-1.53-3.77-3-5.73-4.55h0c-.8-.62-1.61-1.25-2.43-1.87s-1.56-1.19-2.35-1.77c-.45-.34-.9-.69-1.36-1-1.22-.9-2.45-1.81-3.7-2.69-.43-.32-.86-.63-1.3-.93l-1.84-1.31-.06,0c-.45-.32-.9-.64-1.36-1-.9-.63-1.8-1.24-2.72-1.86s-2-1.3-2.93-1.94c-1.27-.85-2.56-1.67-3.85-2.49,2.83-6.36,9.27-20.4,15.32-29.93a51.85,51.85,0,0,1,3.13-4.37c6.74-8.56,16.92-17.27,21.68-21.16,2.7,1.11,5.43,2.29,8.19,3.52l1.61.73c1.74.78,3.48,1.59,5.24,2.42l.09.05.72.34,2,1c1.94.92,3.87,1.88,5.83,2.87h0l2.17,1.11.73.37,1.46.76,1.46.76,1.47.78,1.46.78q2.85,1.53,5.7,3.12l1.52.86c1.37.76,2.73,1.54,4.11,2.33l3.29,1.93c1.09.65,2.19,1.3,3.29,2,.92.55,1.84,1.11,2.75,1.68,2.66,1.62,5.31,3.28,8,5L189,357l1,.65.51.33.4.26.45.3.45.29.91.61.11.06.21.15.11.07.16.1.08.06c.15.1.31.19.46.3l.3.21.35.23.2.14,2.16,1.46.05,0,.81.55.8.56q1.92,1.31,3.83,2.66l2.22,1.57c.67.47,1.35.95,2,1.44l3,2.15c.84.61,1.67,1.23,2.5,1.85l.29.22.3.22,2.86,2.16,2.85,2.19c1.32,1,2.63,2.06,3.93,3.1.93.72,1.84,1.46,2.74,2.19q1.74,1.41,3.47,2.83t3.44,2.88l.78.66.78.66,2.66,2.29c1.76,1.53,3.52,3.09,5.26,4.66.88.78,1.74,1.58,2.61,2.37l1.59,1.47.63.58c.24.21.46.43.69.65l.49.46.87.82c.14.13.28.25.41.39.28.25.55.51.81.77l.1.09c.28.25.54.51.8.76l.12.12c.06.06.12.11.17.17l1.17,1.11.22.22.34.33.08.08.11.12.06.05a.93.93,0,0,1,.14.14l.14.13.71.7c.54.53,1.08,1.06,1.61,1.6l1.38,1.38c.69.68,1.37,1.38,2.06,2.08.25.26.51.52.75.78l.78.8c.26.27.52.53.77.8a3.83,3.83,0,0,1,.28.29c.42.43.83.87,1.25,1.31l.14.15c1.15,1.21,2.28,2.42,3.41,3.64l.77.84.84.92c.34.38.68.75,1,1.13l.41.45,1.54,1.73c.59.66,1.17,1.32,1.74,2s1.12,1.28,1.66,1.93c.22.24.43.49.64.74.56.66,1.13,1.32,1.68,2l1.19,1.44c.15.17.29.34.43.52l0,0c.56.67,1.1,1.34,1.65,2l1.31,1.63,1.11,1.41,1.07,1.36.26.33c.27.34.54.68.8,1l.26.34.79,1,.78,1,1.55,2.07c.46.61.9,1.22,1.34,1.83s.89,1.21,1.33,1.82l.81,1.13.51.73.32.46.42.59c.27.37.53.75.78,1.13s.37.53.56.8l.55.8q.61.89,1.2,1.77,1.25,1.86,2.48,3.75C298.44,463.05,299,463.93,299.55,464.81Z" />
    <path class="BUNTAI_OWL_OUTFIT_BUNTAI_OWL_OUTFIT_24_c" d="M246.36,342.39c2.12,0,3.83,3.1,3.83,6.91s-1.71,6.92-3.83,6.92-3.82-3.09-3.82-6.92S244.25,342.39,246.36,342.39Z" />
    <path class="BUNTAI_OWL_OUTFIT_BUNTAI_OWL_OUTFIT_24_d" d="M349.25,422.84a40.17,40.17,0,0,1-.6,5.17c-2.07,11.33-9.45,23.16-27.36,32.54a94.74,94.74,0,0,1-21.74,4.27h0c-.55-.88-1.12-1.76-1.7-2.64a366.86,366.86,0,0,1,51.23-46c.05.52.09,1,.12,1.55A43.77,43.77,0,0,1,349.25,422.84Z" />
    <path class="BUNTAI_OWL_OUTFIT_BUNTAI_OWL_OUTFIT_24_d" d="M310.3,355.6c-.08-.44-.15-.89-.22-1.34a.2.2,0,0,1,0-.05c-.06-.43-.12-.88-.17-1.32l-.12-1.41q-.06-.8-.09-1.59a.27.27,0,0,0-.12-.18l-.14-.09-.09-.05-.19-.11-.1,0-.19-.11c-.14-.08-.24-.17-.24-.26,0-.42,0-.86-.05-1.32h0c-.06-1.18-.15-2.45-.26-3.73,0-.32-.05-.64-.08-1-.17-2-.38-3.88-.56-5.46v-.08c0-.27-.06-.53-.09-.77s-.05-.4-.07-.58c-.06-.52-.11-1-.16-1.33l0-.23c0-.16,0-.29-.05-.4s0-.2,0-.27a1.73,1.73,0,0,0,0-.14c.07-.39.14-.8.21-1.22s.16-.86.25-1.3.16-.78.24-1.19c0-.17.07-.34.11-.52.07-.35.15-.71.23-1.07s.24-1,.43-1.7a.11.11,0,0,0,0-.05l0-.12c0-.16.09-.34.14-.51s.08-.31.13-.47c.39-1.4.84-2.95,1.21-4.23h0l-.06-.08c-.65-.81-1.38-1.75-2.22-2.83a53.34,53.34,0,0,1-6.26-10.66l-.36.16-1.67.73c-2.21,1-4.35,1.95-6.42,2.95-.61.28-1.21.58-1.8.87l-2,1-1.82.94-1.16.62c-.77.41-1.53.82-2.28,1.24L283,317l-1.58.9c-.94.54-1.87,1.08-2.77,1.63l-1.15.69-.51.32-1.61,1-1.58,1-1,.62-.94.62c-.62.41-1.23.83-1.83,1.25l-1.77,1.23c-.58.41-1.15.81-1.7,1.22-1.68,1.22-3.26,2.43-4.76,3.6l-1.46,1.17-1.05.86-.34.28-.34.29-1,.84c-.16.14-.31.29-.48.42l-.16.13-1.25,1.09-.15.14-.45.4L254,337.74c-.37.34-.74.68-1.09,1l-.39.37-.39.37-.75.72h0l.27.3.09.1.17.22,0,0c.06.09.13.17.2.26l.2.28.07.09s0,0,0,0l.12.2c.09.14.18.28.26.43s.25.45.36.68a1.14,1.14,0,0,1,.1.19c.1.21.19.42.28.64a9.33,9.33,0,0,1,.34.93c.08.24.15.49.22.74a.29.29,0,0,1,0,.1l.09.39a16.84,16.84,0,0,1,.23,1.26c0,.17.05.35.07.52s0,.49.06.74c0,.1,0,.21,0,.31v0c0,.2,0,.4,0,.61s0,.5,0,.74,0,.2,0,.3,0,.14,0,.21a1.49,1.49,0,0,1,0,.21l-.06.56c0,.4-.12.8-.2,1.18,0,.06,0,.11,0,.17s0,.13,0,.19,0,.21-.07.31,0,0,0,.06c-.08.33-.18.64-.28.95a12.61,12.61,0,0,1-.53,1.3l-.19.42c-.1.19-.2.36-.3.53l-.12.21,0,0-.13.2c-.09.14-.17.27-.26.39l-.09.13a3.44,3.44,0,0,1-.28.36,2.48,2.48,0,0,1-.25.3l-.32.36a8.31,8.31,0,0,1-.68.65h0l0,0-.28.23,0,0h0l-.23.16-.09.07h0a6.59,6.59,0,0,1-1,.58l-.36.14,0,0-.21.07-.14.05-.15.05-.15,0-.22.06h0a6,6,0,0,1-.61.09l-.16,0h-1.07a4.85,4.85,0,0,1-.55-.08l-.36-.08-.43-.13-.12,0h0l-.18-.07-.23-.1-.34-.16-.1,0c-.14-.08-.29-.16-.42-.25l-.22-.13-.24-.18-.05,0a7.61,7.61,0,0,1-1.3-1.19l0,0,0,0-.07-.09L241,358l-.09-.11-.09-.1a.21.21,0,0,1,0-.06l-.05-.07-.08-.1c-.14-.18-.27-.36-.39-.55a1.76,1.76,0,0,1-.12-.2c-.07-.1-.13-.21-.2-.32s-.2-.35-.29-.54a2.4,2.4,0,0,1-.11-.23.8.8,0,0,1-.08-.16l0-.06a0,0,0,0,1,0,0l-.1-.21a11.3,11.3,0,0,1-.41-1.07c-.05-.14-.09-.28-.13-.43a2.45,2.45,0,0,1-.08-.29c-.07-.22-.12-.45-.17-.67l-.12-.53c0-.1,0-.19-.05-.29a1,1,0,0,1,0-.24s0,0,0,0a.29.29,0,0,0,0-.09c0-.11,0-.21,0-.31a.71.71,0,0,1,0-.14c0-.19,0-.37-.05-.55s0-.05,0-.08a.11.11,0,0,0,0,0h0v-.07s0,0,0,0h0a.15.15,0,0,1,0-.07.06.06,0,0,1,0,0v0a.76.76,0,0,1,0-.15V350a.16.16,0,0,1,0-.07h0s0,0,0,0h0v-.09a0,0,0,0,0,0,0s0,0,0,0,0,0,0,0h0s0,0,0,0h0s0,0,0,0h0s0,0,0,0,0,0,0,0,0,0,0,0,0,0,0,0h0v-.07a.28.28,0,0,1,0-.09.06.06,0,0,1,0,0v-.08h0v-.11h0s0,0,0,0h0v0h0V349c0-.07,0-.13,0-.2v-.13a4.21,4.21,0,0,1,0-.62,1.23,1.23,0,0,1,0-.19v0a.14.14,0,0,1,0-.09,1.24,1.24,0,0,1,0-.27s0,0,0,0,0,0,0,0a.53.53,0,0,1,0-.13s0,0,0,0,0-.23.05-.34.07-.46.12-.68l.09-.4s0,0,0,0a2.49,2.49,0,0,1,.09-.37h0a.13.13,0,0,0,0-.06,3,3,0,0,1,.12-.43,3.88,3.88,0,0,1,.14-.45,6.08,6.08,0,0,1,.21-.6,7.89,7.89,0,0,1,.44-1,6.36,6.36,0,0,1,.3-.58h0c0-.05.05-.11.08-.16L240,342a9.49,9.49,0,0,1,1.32-1.77.81.81,0,0,1,.16-.16,2.08,2.08,0,0,1,.21-.21v0l-.11-.11h0c-.84-.81-1.73-1.62-2.62-2.42-.24-.22-.48-.44-.72-.64-3.83-3.42-8-6.78-12.16-9.95l-1.41-1.06c-1.25-.93-2.49-1.85-3.72-2.74-.3-.23-.61-.45-.92-.66l-.53-.39-.38-.28-.9-.64h0l-.45-.31-.45-.32-.07-.05-.81-.57h0l-1-.7-.76-.53c-.29-.21-.59-.41-.89-.61l-.88-.61-.4-.27q-.6-.42-1.2-.81l-1.85-1.24-.67-.45-.22-.15-.61-.4-1.77-1.17-2.17-1.41a2.12,2.12,0,0,0-.2-.12.82.82,0,0,0-.2-.12l-.22-.15-.19-.12-.26-.17-.14-.09c-1.77-1.13-3.2-2-4.18-2.63l-.17-.09a1.37,1.37,0,0,0-.2-.13l-.84-.51-.15-.1-.09-.05h0c-1.18-.76-2.5-1.53-3.88-2.28-.46-.26-.93-.5-1.4-.75-1.91-1-3.89-2-5.79-2.83-1.46-.68-2.88-1.3-4.16-1.86h0l-1.47-.64h0l-.67-.29h0l-.95-.4c-1.91-.79-3.12-1.25-3.12-1.25h0l-1.07-.37-2.61-.86-1.4-.44c-1.11-.34-2.28-.69-3.48-1-2.36-.66-4.86-1.29-7.41-1.81C157,298,155.15,303.86,147.78,313c0,.12.07.23.1.35s.12.42.17.64c.1.37.18.74.28,1.1s.14.62.2.92c.15.68.28,1.37.4,2.05.06.33.13.66.17,1s.11.66.16,1c0,0,0,0,0,.08,0,.23.06.45.08.67s.07.5.1.75c.24,1.79.41,3.55.53,5.26h0c.2,2.89.26,5.59.26,7.85h0l2.17,1.11.73.38,1.46.75,1.46.77,1.47.77,1.46.78q2.85,1.53,5.7,3.12l1.52.86c1.37.76,2.73,1.54,4.11,2.33l3.29,1.93,3.29,2c.92.56,1.84,1.12,2.75,1.69q4,2.43,8,5L189,357l1,.64.51.34.4.26.45.29h0l.1.06.1.06.25.17.91.6a.41.41,0,0,1,.11.07l.21.15.11.07.16.1.08.06c.15.1.31.19.46.3l.3.21.06,0,.2.13a.1.1,0,0,0,0,0l0,0,.2.14,2.16,1.46s0,0,.05,0l.81.55.8.55c1.28.88,2.56,1.76,3.83,2.67l2.22,1.57c.67.47,1.35.95,2,1.44,1,.71,2,1.43,3,2.16L212,373l.29.22.3.23,2.86,2.15,2.85,2.19c1.32,1,2.63,2.06,3.93,3.1.93.72,1.84,1.46,2.74,2.19q1.74,1.41,3.47,2.83l3.44,2.87.78.67.78.66,2.66,2.29c1.76,1.53,3.52,3.09,5.26,4.66.88.78,1.74,1.58,2.61,2.37l.87-.66q3.46-2.62,7-5.16t7-5h0l0,0h0c1.11-.77,2.23-1.53,3.35-2.28s2.07-1.4,3.11-2.08,2.17-1.43,3.25-2.13q3.24-2.1,6.51-4.13,6.08-3.78,12.18-7.29l2.6-1.48,3.48-2q2.3-1.27,4.59-2.51c1.08-.58,2.17-1.16,3.25-1.72q3.24-1.73,6.47-3.34h0l3.22-1.61A20.13,20.13,0,0,1,310.3,355.6Zm-66.79,12.48a1.27,1.27,0,0,1,.22-.25l.19-.19.24-.19a3,3,0,0,1,.47-.27l.15-.08a3.84,3.84,0,0,1,.6-.2h0l.33-.06a3.18,3.18,0,0,1,.62-.06,4.07,4.07,0,0,1,.5,0l.48.09.34.11a2.25,2.25,0,0,1,.45.19,1.79,1.79,0,0,1,.24.12l.17.11a2.6,2.6,0,0,1,.36.3.8.8,0,0,1,.13.13,2.34,2.34,0,0,1,.45.69.49.49,0,0,0,0,.11,1.3,1.3,0,0,1,.11.43,1.43,1.43,0,0,1,0,.29c0,1.43-1.48,2.59-3.3,2.59h-.23l-.23,0-.27,0a1.89,1.89,0,0,1-.41-.1l-.23-.07-.34-.14a2.69,2.69,0,0,1-.29-.16,1.51,1.51,0,0,1-.26-.18.7.7,0,0,1-.19-.16,1,1,0,0,1-.18-.17.93.93,0,0,1-.16-.18,2.1,2.1,0,0,1-.47-1,2.57,2.57,0,0,1,0-.64,2.46,2.46,0,0,1,.07-.29.82.82,0,0,1,.1-.26,1.86,1.86,0,0,1,.1-.2A1.5,1.5,0,0,1,243.51,368.08Zm-.58,18.27.24-.47.12-.22,0,0,.12-.19.07-.11.08-.1.32-.42a8.41,8.41,0,0,1,.67-.77l0,0,.15-.14c.12-.12.23-.23.34-.32l.23-.21.06-.06.38-.33c.24-.2.41-.32.45-.35l.31.31c.21.23.4.45.58.68a8.56,8.56,0,0,1,.55.77.05.05,0,0,1,0,0c.09.13.17.26.24.38l.14.28,0,.06a1,1,0,0,1,.08.14c0,.06,0,.11.07.16s.08.17.11.25a3.52,3.52,0,0,1,.13.43l0,.12a3,3,0,0,1,.1.49.13.13,0,0,1,0,.06,1.67,1.67,0,0,1,0,.31.74.74,0,0,1,0,.21,2.9,2.9,0,0,1-.07.6.5.5,0,0,1,0,.12,2,2,0,0,1-.14.41,3.07,3.07,0,0,1-.17.31,2.75,2.75,0,0,1-.15.25l-.15.2a1.49,1.49,0,0,1-.17.18,1.93,1.93,0,0,1-.3.27.38.38,0,0,1-.11.08l-.3.2-.26.14-.28.12-.28.08-.24.07-.15,0-.28,0-.22,0-.36,0-.23,0-.23-.05-.25-.06-.23-.09s0,0,0,0a2.55,2.55,0,0,1-.39-.24,1.22,1.22,0,0,1-.17-.15,2.91,2.91,0,0,1-.4-.48,1.92,1.92,0,0,1-.18-.31,1.39,1.39,0,0,1-.12-.28,2.44,2.44,0,0,1-.15-1.22c0-.1,0-.2,0-.3a1.6,1.6,0,0,1,.05-.21h0a.7.7,0,0,1,0-.12h0C242.81,386.66,242.87,386.5,242.93,386.35Zm-8-8.42.22,0a4,4,0,0,1,.5-.06l.28,0h.85a8.24,8.24,0,0,1,.94.11l.44.08.12,0a14.77,14.77,0,0,1,2.53.8l-.11.08a5.5,5.5,0,0,1-.48.34l-.23.15-.42.26-.26.15L239,380l-.07,0-.15.08-.09.05-.44.19c-.14.07-.3.13-.45.19l-.15.06-.18.06q-.34.12-.72.21l-.43.1h-.09l-.43.06h-.51l-.43,0h-.05a.91.91,0,0,1-.23,0h0l-.24,0a4.12,4.12,0,0,1-.47-.13l-.23-.09-.23-.11a1.27,1.27,0,0,1-.27-.18,1.14,1.14,0,0,1-.15-.16l0,0s0,0,0-.06a.25.25,0,0,1,0-.07h0a.44.44,0,0,1-.06-.16,0,0,0,0,0,0,0,1.36,1.36,0,0,1,0-.2.87.87,0,0,1,.05-.31l0-.1a.89.89,0,0,1,.08-.17.62.62,0,0,1,.11-.17,1.37,1.37,0,0,1,.31-.33l.15-.12a2.2,2.2,0,0,1,.3-.19c.12-.06.24-.13.37-.18A3.78,3.78,0,0,1,235,377.93Zm-1-18.14v0c0,.05,0,.18-.07.38a3.21,3.21,0,0,1-.08.34s0,0,0,.06-.06.23-.09.36a2.25,2.25,0,0,1-.08.24q-.07.24-.18.51a1.43,1.43,0,0,1-.09.27l-.12.27a2.14,2.14,0,0,1-.1.22l-.11.22-.06.13c-.05.09-.1.19-.16.28a6.49,6.49,0,0,1-.36.55,1.56,1.56,0,0,1-.2.27,1.69,1.69,0,0,1-.22.26,1.79,1.79,0,0,1-.27.28,2.44,2.44,0,0,1-.29.27l-.15.12-.16.12-.34.22a1.51,1.51,0,0,1-.28.15,2.28,2.28,0,0,1-.45.2,1.52,1.52,0,0,1-.28.09,1.89,1.89,0,0,1-.34.09l-.21,0-.41.05h-.55c-3.38-.07-4.13-6.13,5.66-6Zm-11.53-6.05a1.4,1.4,0,0,1,.09-.29,1.54,1.54,0,0,1,.17-.34,1,1,0,0,1,.1-.17,1.09,1.09,0,0,1,.13-.17,2,2,0,0,1,.19-.22l.29-.28a3.51,3.51,0,0,1,.4-.27,1.76,1.76,0,0,1,.38-.21,3.89,3.89,0,0,1,.51-.21,5.72,5.72,0,0,1,.84-.2l.38,0h.1a2.26,2.26,0,0,1,.37,0c.22,0,.45,0,.68,0a9.62,9.62,0,0,1,1.23.18c.19,0,.38.08.58.14a15.12,15.12,0,0,1,3.09,1.22l0,0a15.51,15.51,0,0,1-2.28,1.79l-.4.25a5.76,5.76,0,0,1-.6.33.19.19,0,0,1-.1.05c-.21.11-.42.21-.64.3l-.26.11a3.75,3.75,0,0,1-.47.17,2.77,2.77,0,0,1-.41.12l-.29.07a4.5,4.5,0,0,1-.51.08,4,4,0,0,1-.6,0,3.94,3.94,0,0,1-1.71-.35,5.86,5.86,0,0,1-.55-.3l-.17-.12a.94.94,0,0,1-.24-.25.36.36,0,0,1-.07-.1,1.14,1.14,0,0,1-.15-.29.66.66,0,0,1-.06-.2.36.36,0,0,1,0-.11,1.43,1.43,0,0,1,0-.29A2,2,0,0,1,222.41,353.74ZM259.88,380a.62.62,0,0,1-.1.22l0,.06a.27.27,0,0,1-.1.11s0,0,0,0l-.07.06,0,0a1.37,1.37,0,0,1-.2.13l-.11.05a.45.45,0,0,0-.12.06l-.23.08a1.7,1.7,0,0,1-.32.1h-.06l-.24.05a1.88,1.88,0,0,1-.33.05h-.06l-.42,0h-.33l-.19,0-.45-.06h-.05l-.29-.07s0,0,0,0l-.36-.09-.44-.13-.6-.22a12.17,12.17,0,0,1-1.66-.84l-.28-.17c-.36-.23-.63-.42-.77-.53h0l-.09-.06h0l.68-.26.65-.22c.21-.07.41-.13.62-.18s.35-.1.52-.13l.12,0,.65-.12a5.94,5.94,0,0,1,.71-.08,2.75,2.75,0,0,1,.4,0h.71a5.16,5.16,0,0,1,1.36.25l.32.13a1.82,1.82,0,0,1,.31.16,1.41,1.41,0,0,1,.29.18,2.09,2.09,0,0,1,.22.2l.16.16a1.16,1.16,0,0,1,.22.34.36.36,0,0,1,0,.11l0,.07s0,0,0,.06a.31.31,0,0,1,0,.13.71.71,0,0,1,0,.14A.69.69,0,0,1,259.88,380Zm6.69-15.54a.32.32,0,0,1,0,.09,1.19,1.19,0,0,1-.12.22,2.14,2.14,0,0,1-.13.19l0,0a.44.44,0,0,1-.09.11l-.05,0,0,0a.17.17,0,0,1-.06.06l0,0,0,0-.05,0-.13.08a2.82,2.82,0,0,1-.38.21h-.05a1.25,1.25,0,0,1-.25.09l-.2,0-.21,0h-.34l-.43,0a4.45,4.45,0,0,1-1.84-.54,4.28,4.28,0,0,1-.42-.26,2.88,2.88,0,0,1-.39-.3,2.44,2.44,0,0,1-.29-.27l-.25-.26a4,4,0,0,1-.26-.32,3.46,3.46,0,0,1-.22-.31,3.28,3.28,0,0,1-.2-.31,4.49,4.49,0,0,1-.24-.42,5.35,5.35,0,0,1-.39-.85c-.09-.21-.16-.41-.22-.6a6.49,6.49,0,0,1-.24-.83c0-.13-.06-.25-.08-.34s0-.12,0-.17a.74.74,0,0,1,0-.12.08.08,0,0,1,0,0,.24.24,0,0,0,0-.07c.37,0,.73,0,1.07,0h.27l.46,0q.43,0,.84.09l.82.13.74.17.57.17a6.76,6.76,0,0,1,1.4.63l.18.11.09.06.19.13.07.06a2.55,2.55,0,0,1,.3.26,1.14,1.14,0,0,1,.16.15h0a1.92,1.92,0,0,1,.26.32,1.5,1.5,0,0,1,.15.23s0,0,0,0a.21.21,0,0,1,0,.06v0a1,1,0,0,1,.07.15A2.19,2.19,0,0,1,266.57,364.46Zm3.76-9.84a1.05,1.05,0,0,1-.05.19,1.77,1.77,0,0,1-.31.49s0,0,0,0a2.13,2.13,0,0,1-.32.26l-.27.17a3.93,3.93,0,0,1-.52.23h0a1.31,1.31,0,0,1-.28.09l-.22.05a2.14,2.14,0,0,1-.35.06.29.29,0,0,1-.13,0l-.45,0H267l-.23,0-.16,0-.26,0-.1,0-.18,0-.51-.15h0c-.19-.06-.39-.13-.58-.21l-.57-.26-.2-.09-.35-.19c-.18-.09-.35-.2-.52-.3l-.43-.27-.06,0a1.1,1.1,0,0,1-.14-.09l-.3-.22c-.3-.21-.57-.42-.8-.61s-.38-.32-.51-.44l-.05,0-.13-.12-.11-.11,0,0a17.42,17.42,0,0,1,1.63-.74,12.27,12.27,0,0,1,1.34-.44.9.9,0,0,1,.22-.06,4.37,4.37,0,0,1,.49-.12l.61-.11.55-.06a7.61,7.61,0,0,1,1.17,0l.23,0,.21,0a3.66,3.66,0,0,1,.63.14,1.61,1.61,0,0,1,.29.09l.28.1a3.63,3.63,0,0,1,.65.35,4,4,0,0,1,.44.35l.18.18a1.24,1.24,0,0,1,.18.22,2.11,2.11,0,0,1,.18.27,1.19,1.19,0,0,1,.12.22,2.6,2.6,0,0,1,.13.36,1.16,1.16,0,0,1,0,.18,2,2,0,0,1,0,.59A1.16,1.16,0,0,1,270.33,354.62Z" />
    <path class="BUNTAI_OWL_OUTFIT_BUNTAI_OWL_OUTFIT_24_d" d="M180.16,468.11C153.3,468,140,460.55,140,460.55c-1.81-.95-3.52-1.92-5.11-2.93a55.51,55.51,0,0,1-13.51-11.36,39,39,0,0,1-8.66-17.7c-.12-.66-.24-1.33-.34-2,0-.33-.09-.67-.14-1s-.07-.66-.1-1c0-.06,0-.12,0-.18h0a42.48,42.48,0,0,1,0-7.13c.11-1.45.27-2.87.51-4.25h0a11.83,11.83,0,0,1-1.41-2.44,16.27,16.27,0,0,1-.91-2.9,31,31,0,0,1,.11-11.6c2,1.51,3.86,3,5.73,4.56q3.17,2.58,6.19,5.16c.77.65,1.54,1.31,2.29,2l2.14,1.86c.18.18.37.34.57.51l2.65,2.37,3.38,3.09,1.73,1.63c1,.93,2,1.87,3,2.8l1.91,1.85c.86.83,1.7,1.65,2.52,2.48l.05,0c5.69,5.64,10.79,11.05,15.27,16l.9,1c2.37,2.66,4.57,5.19,6.57,7.56l.74.88c3,3.53,5.5,6.67,7.57,9.32l.68.87c.88,1.14,1.67,2.18,2.37,3.1C178.92,466.32,180.16,468.11,180.16,468.11Z" />
    <path class="BUNTAI_OWL_OUTFIT_BUNTAI_OWL_OUTFIT_24_e" d="M357.68,421.74h0a32.48,32.48,0,0,1-7.22,1l-1.13.14h-.06a43.92,43.92,0,0,0-.05-5.14h.11l.66-.07a23.34,23.34,0,0,0,6.17-.8s2.19.51,2.47,2.15A3.05,3.05,0,0,1,357.68,421.74Z" />
    <path class="BUNTAI_OWL_OUTFIT_BUNTAI_OWL_OUTFIT_24_e" d="M316.62,355.36l-1.91.91c-.79.38-1.58.75-2.36,1.14l-1.42.69h0a20.13,20.13,0,0,1-.62-2.49c-.08-.44-.15-.89-.22-1.34a.2.2,0,0,1,0-.05c-.06-.43-.12-.88-.17-1.32l-.12-1.41q-.06-.8-.09-1.59a.27.27,0,0,0-.12-.18l-.14-.09-.09-.05-.19-.11-.1,0-.19-.11c-.14-.08-.24-.17-.24-.26,0-.42,0-.86-.05-1.32h0c-.06-1.18-.15-2.45-.26-3.73,0-.32-.05-.64-.08-1-.17-2-.38-3.88-.56-5.46,0,0,0,0,0-.06v0c0-.27-.06-.53-.09-.77s-.05-.4-.07-.58c-.06-.52-.11-1-.16-1.33l0-.23c0-.16,0-.29-.05-.4s0-.2,0-.27a1.73,1.73,0,0,0,0-.14c.07-.39.14-.8.21-1.22s.17-.85.25-1.3.16-.78.24-1.19c0-.17.07-.34.11-.52.07-.35.15-.71.23-1.07s.24-1,.43-1.7a.11.11,0,0,0,0-.05l0-.12c0-.16.09-.34.14-.51s.08-.31.13-.47c.39-1.4.84-2.95,1.21-4.23,2,2.5,3.21,3.83,4.57,4.52-.55,2.17-1.09,4.42-1.29,5.63,0,0,.52,4.81,1.22,10.44.5,4,1.09,8.43,1.65,11.83v0c.07.36.12.7.18,1l.09.49Z" />
    <path class="BUNTAI_OWL_OUTFIT_BUNTAI_OWL_OUTFIT_24_e" d="M260.77,352.87s5.1,5.12,8.87,2.71C271.88,354.15,269,348.67,260.77,352.87Z" />
    <path class="BUNTAI_OWL_OUTFIT_BUNTAI_OWL_OUTFIT_24_e" d="M258.79,359.79s.81,6.13,5.66,6C267.84,365.75,268.58,359.69,258.79,359.79Z" />
    <path class="BUNTAI_OWL_OUTFIT_BUNTAI_OWL_OUTFIT_24_e" d="M251.86,378.84s4.28,3.4,7.44,1.8C261.18,379.69,258.75,376,251.86,378.84Z" />
    <path class="BUNTAI_OWL_OUTFIT_BUNTAI_OWL_OUTFIT_24_e" d="M299.88,303.32l-.12.05c-.21.1-.41.2-.61.28l-.8.37-1.44.68c-1.4.67-2.82,1.38-4.25,2.11l-2.11,1.1q-2.16,1.14-4.33,2.36l-1.44.82-.72.42c-.6.33-1.19.67-1.78,1l-1.74,1-1.51.9-.24.15c-.7.41-1.39.84-2.08,1.27h0a.36.36,0,0,0-.12.08c-1.15.7-2.3,1.42-3.42,2.13q-2.18,1.38-4.26,2.76l-1.44,1-2,1.38c-.68.45-1.34.91-2,1.36l-2.87,2-.92.66-1.95,1.41c-1.27.93-2.47,1.84-3.59,2.7-.56.43-1.11.85-1.63,1.27l-.77.61-1.06.87-.25.21-.26.22-.79.66-.74.64c-.21.2-.42.38-.62.56-.61.56-1.14,1-1.6,1.52h0c-.46-.48-.94-1-1.44-1.46l-1.5-1.48c-1-1-2.09-2-3.19-3L239,330.85l-.42-.37c-1.06-.92-2.14-1.85-3.24-2.76l-1.1-.92-1.78-1.44-.9-.71-.32-.25c-.49-.39-1-.78-1.48-1.16s-.75-.59-1.13-.88-.74-.58-1.12-.86c-.75-.57-1.5-1.14-2.25-1.69l-.89-.66-.88-.66-.66-.47-.65-.48c-.43-.32-.87-.64-1.3-.94-9.74-7-17.74-12-17.74-12-.44-.29-.89-.57-1.35-.85-.28-.18-.57-.36-.87-.53-.86-.52-1.74-1-2.64-1.52l-1.52-.83c-2.06-1.11-4.14-2.15-6.08-3.08l-1.57-.75-.86-.39-.46-.22-.69-.32-1.08-.49c-.34-.15-.67-.29-1-.44h0l-1.68-.73h0l-.43-.19-.33-.15-.33-.13-.56-.23-.05,0-.06,0-.15-.06,0,0-.41-.13-.3-.1h0l-.73-.25-.76-.25-3.23-1-2-.61c-.41-.12-.82-.25-1.24-.36l-1.2-.35c-.82-.24-1.66-.47-2.51-.69l-.8-.22-1.13-.29-1.57-.39-.48-.12c-1-.25-2.12-.5-3.19-.73l-.67-.14s-.41,1.62-1.39,4.26c2.55.52,5.05,1.15,7.41,1.81,1.2.33,2.37.68,3.48,1l1.4.44,2.61.86,1.07.37h0s1.21.46,3.12,1.25l.95.4h0l.67.29h0l1.47.64h0c1.28.56,2.7,1.18,4.16,1.86,1.9.87,3.88,1.83,5.79,2.83.47.25.94.49,1.4.75,1.38.75,2.7,1.52,3.88,2.28h0l.09.05.15.1.84.51.37.22c1,.61,2.41,1.5,4.18,2.63l.14.09.26.17.19.12.22.15a.82.82,0,0,1,.2.12,2.12,2.12,0,0,1,.2.12l2.17,1.41,1.77,1.17.61.41a1.64,1.64,0,0,1,.22.14l.67.45,1.85,1.24q.6.39,1.2.81l.4.28.88.6.89.62.76.52,1,.7h0l.81.57.07.05.45.32.45.32h0l.9.64.38.28c.48.33,1,.69,1.45,1.05,1.23.89,2.47,1.81,3.72,2.74l1.41,1.06c4.16,3.17,8.33,6.53,12.16,9.95.24.2.48.42.72.64.9.8,1.77,1.6,2.62,2.42h0l.11.11h0l0,0a2.08,2.08,0,0,0-.21.21,1.21,1.21,0,0,0-.16.16A9.49,9.49,0,0,0,240,342l-.08.13s-.05.11-.08.16h0a6.36,6.36,0,0,0-.3.58,7.89,7.89,0,0,0-.44,1c-.07.19-.15.39-.21.6a3.88,3.88,0,0,0-.14.45,3,3,0,0,0-.12.43,1.34,1.34,0,0,0-.07.27l0,.17s0,0,0,0l-.09.4,0,.16a2.74,2.74,0,0,0,0,.28,2,2,0,0,0,0,.24l0,.22s0,.08,0,.12v0a.53.53,0,0,0,0,.13s0,0,0,0,0,0,0,0a1.09,1.09,0,0,0,0,.18l0,.09a.14.14,0,0,0,0,.09v0a1.21,1.21,0,0,0,0,.19.37.37,0,0,0,0,.11,2.91,2.91,0,0,0,0,.52s0,.08,0,.12,0,.13,0,.2v.13h0v0h0v0h0v.4s0,0,0,0,0,0,0,0,0,0,0,0,0,0,0,0,0,0,0,0h0s0,0,0,0h0s0,0,0,0,0,0,0,0,0,0,0,0a0,0,0,0,1,0,0v.09h0s0,0,0,0h0a.16.16,0,0,0,0,.07v.06a.13.13,0,0,0,0,.06v.12a.06.06,0,0,0,0,0,.15.15,0,0,0,0,.07v0h0v0h0v.06s0,.05,0,.08,0,.36.05.55a.71.71,0,0,0,0,.14c0,.1,0,.2,0,.31s0,.06,0,.09h0a1,1,0,0,0,0,.24c0,.1,0,.19.05.29l.12.53c0,.22.1.45.17.67a2.45,2.45,0,0,0,.08.29c0,.15.08.29.13.43a11.3,11.3,0,0,0,.41,1.07l.09.21,0,0,0,.06a.8.8,0,0,0,.08.16,2.4,2.4,0,0,0,.11.23c.09.19.19.37.29.54s.13.22.2.32a1.76,1.76,0,0,0,.12.2c.12.19.25.37.39.55l.08.1.05.07,0,.06.08.1.09.11.12.15.05.05,0,0a7.61,7.61,0,0,0,1.3,1.19l.05,0a4.63,4.63,0,0,0,.46.31c.13.09.28.17.42.25l.1,0,.17.09.17.07.23.1.15,0h.06l.12,0,.43.13.36.08a4.85,4.85,0,0,0,.55.08h1.07l.16,0a6,6,0,0,0,.61-.09h0l.22-.06.3-.08.14-.05.24-.09.36-.14a6.59,6.59,0,0,0,1-.58h0l.09-.07.23-.16h0l0,0,.28-.23,0,0h0a8.31,8.31,0,0,0,.68-.65l.32-.36a2.48,2.48,0,0,0,.25-.3l.28-.36.09-.13.27-.39a1.51,1.51,0,0,1,.12-.2l0,0,.12-.21c.08-.13.15-.27.22-.41a4.53,4.53,0,0,0,.27-.54,12.61,12.61,0,0,0,.53-1.3c.1-.31.2-.62.28-.95,0,0,0,0,0-.06a3.06,3.06,0,0,0,.1-.41s0,0,0-.06v0c0-.06,0-.11,0-.17.08-.38.15-.78.2-1.18l.06-.56a1.49,1.49,0,0,0,0-.21s0-.05,0-.08v-.13c0-.1,0-.2,0-.3s0-.5,0-.74,0-.41,0-.61v-.07c0-.08,0-.17,0-.26,0-.25,0-.5-.06-.74s0-.35-.07-.52a16.84,16.84,0,0,0-.23-1.26l-.06-.29,0-.1a.29.29,0,0,0,0-.1c-.07-.25-.14-.5-.22-.74a9.33,9.33,0,0,0-.34-.93c-.09-.22-.18-.43-.28-.64a1.14,1.14,0,0,0-.1-.19c-.11-.23-.23-.46-.36-.68s-.17-.29-.26-.43l-.12-.2s0,0,0,0h0l-.06-.09-.2-.28c-.07-.09-.14-.17-.2-.26l0,0-.17-.22h0l-.08-.1-.28-.3h0l.75-.72.39-.37.39-.36,1.09-1,1.16-1.05.45-.4.15-.13c.41-.36.82-.73,1.25-1.09l.16-.14c.17-.13.32-.28.48-.42l1-.84.34-.28.34-.29,1.05-.86,1.46-1.17c1.5-1.17,3.08-2.38,4.76-3.6.55-.41,1.12-.81,1.7-1.22l1.77-1.23c.6-.42,1.21-.84,1.83-1.25l.94-.62,1-.63,1.58-1,1.61-1,.51-.31,1.15-.69c.9-.55,1.83-1.09,2.77-1.63L283,317c.4-.23.81-.47,1.22-.68.75-.42,1.51-.84,2.28-1.24l1.16-.62,1.82-.94,2-1c.59-.29,1.19-.59,1.8-.87,2.07-1,4.21-2,6.42-2.95l1.67-.73.36-.16C300.49,305.16,299.88,303.32,299.88,303.32ZM250.17,350v.11a1,1,0,0,1,0,.16c0,.14,0,.28,0,.42s0,.06,0,.08a.28.28,0,0,0,0,.09s0,.07,0,.11a.59.59,0,0,1,0,.14,2,2,0,0,1,0,.24v.05c-.07.37-.15.73-.25,1.07l0,0a8.77,8.77,0,0,1-.15.5,1.8,1.8,0,0,1-.08.21,6.29,6.29,0,0,1-.35.79c-.06.13-.13.24-.2.36a2.39,2.39,0,0,1-.13.21,1.27,1.27,0,0,1-.13.19s0,0,0,0-.18.24-.28.35a2.76,2.76,0,0,1-.29.3,2.46,2.46,0,0,1-.25.22,1.25,1.25,0,0,1-.24.16h0l-.18.1a1.8,1.8,0,0,1-.38.16h0l-.08,0-.18,0h-.07l-.09,0h-.49l-.09,0h-.2a.11.11,0,0,1-.08,0,.17.17,0,0,1-.1,0l-.1,0a.67.67,0,0,1-.23-.1l-.17-.1a1.48,1.48,0,0,1-.39-.28l-.24-.21a2.86,2.86,0,0,1-.42-.5,2.35,2.35,0,0,1-.19-.25,2.26,2.26,0,0,1-.16-.26,0,0,0,0,1,0,0l0-.05-.05-.07a4.59,4.59,0,0,1-.24-.5l0,0a9.14,9.14,0,0,1-.42-1.15c-.06-.18-.1-.36-.14-.53s-.11-.5-.15-.76c0,0,0-.05,0-.08,0-.21-.06-.43-.08-.65a.41.41,0,0,1,0-.11.13.13,0,0,1,0-.06,3.25,3.25,0,0,1,0-.33c0-.23,0-.47,0-.71s0-.64,0-.95a2,2,0,0,1,0-.34s0,0,0,0a10.84,10.84,0,0,1,.23-1.35A5.43,5.43,0,0,1,243,346l.12-.35a2,2,0,0,1,.12-.34,6.41,6.41,0,0,1,.51-1.05s0,0,0-.08a1.27,1.27,0,0,1,.13-.22l.16-.21.13-.19h0l0,0h0l0-.05.12-.13s0,0,.05-.05l.12-.12a1.19,1.19,0,0,1,.18-.15,1.56,1.56,0,0,1,.2-.16,1.59,1.59,0,0,1,.27-.18l.06,0c.1,0,.2-.1.3-.13h0a.84.84,0,0,1,.26-.07l.07,0h0l.12,0a1.36,1.36,0,0,1,.29,0c2.11,0,3.82,3.1,3.82,6.91C250.19,349.54,250.18,349.78,250.17,350Z" />
    <path class="BUNTAI_OWL_OUTFIT_BUNTAI_OWL_OUTFIT_24_e" d="M246.35,366.78c-1.81,0-3.29,1.17-3.29,2.6s1.48,2.59,3.29,2.59,3.29-1.16,3.29-2.59S248.16,366.78,246.35,366.78Z" />
    <path class="BUNTAI_OWL_OUTFIT_BUNTAI_OWL_OUTFIT_24_e" d="M243.46,389.76c2.09,2.09,8.7-1.05,2.75-7.18C246.21,382.58,240.46,386.75,243.46,389.76Z" />
    <path class="BUNTAI_OWL_OUTFIT_BUNTAI_OWL_OUTFIT_24_e" d="M233.4,380.64c3.16,1.6,7.44-1.8,7.44-1.8C234,376,231.52,379.69,233.4,380.64Z" />
    <path class="BUNTAI_OWL_OUTFIT_BUNTAI_OWL_OUTFIT_24_e" d="M228.27,365.82c4.84.1,5.66-6,5.66-6C224.13,359.69,224.88,365.75,228.27,365.82Z" />
    <path class="BUNTAI_OWL_OUTFIT_BUNTAI_OWL_OUTFIT_24_e" d="M231.94,352.87c-8.2-4.2-11.11,1.28-8.86,2.71C226.85,358,231.94,352.87,231.94,352.87Z" />
    <path class="BUNTAI_OWL_OUTFIT_BUNTAI_OWL_OUTFIT_24_e" d="M144.42,331.79c0-.38,0-.78,0-1.19,0-.2,0-.41,0-.63s0-.25,0-.38,0-.21,0-.32,0-.48,0-.73h0l0-.73c0-.38,0-.76-.05-1.15s0-.79-.07-1.19,0-.66-.07-1c-.08-.88-.17-1.79-.29-2.7q-.07-.63-.18-1.26c-.06-.42-.13-.84-.21-1.27s-.15-.85-.24-1.27a62.38,62.38,0,0,0,4.52-4.94c0,.12.07.23.1.35s.12.42.17.64c.1.37.18.74.28,1.1s.14.62.2.92c.15.68.28,1.37.4,2.05.06.33.13.66.17,1s.11.66.16,1,.07.5.1.75.07.5.1.75c.24,1.79.41,3.55.53,5.26h0c.2,2.89.26,5.59.26,7.85C148.29,333.67,146.36,332.71,144.42,331.79Z" />
    <path class="BUNTAI_OWL_OUTFIT_BUNTAI_OWL_OUTFIT_24_e" d="M112.55,413h0c-.18,1-.31,2.1-.42,3.17l-.09,1.08h-.12s-12,2.36-31.27-4.81h0c-.16-.15-2.07-1.85-1.54-4s3.32-2.59,3.52-2.63c18.1,7.47,28.52,4.71,28.52,4.71A11.65,11.65,0,0,0,112.55,413Z" />
    <path class="BUNTAI_OWL_OUTFIT_BUNTAI_OWL_OUTFIT_24_f" d="M116.07,400.64A59,59,0,0,0,112.55,413" />
    <path class="BUNTAI_OWL_OUTFIT_BUNTAI_OWL_OUTFIT_24_f" d="M349.08,416.16c.05.52.09,1,.12,1.55a43.77,43.77,0,0,1,.05,5.13,40.17,40.17,0,0,1-.6,5.17c-2.07,11.33-9.45,23.16-27.36,32.54a94.74,94.74,0,0,1-21.74,4.27l-.45,0-1,.06h-.06c-14.3.79-27.54-1.89-54.1-1.28-5,.11-10.57.35-16.67.75-2,.14-4.15.29-6.33.46q-5.78.45-12.22,1.12c-1.43.14-2.89.29-4.36.46s-3.17.34-4.8.53a161.14,161.14,0,0,1-19.42,1.16C153.3,468,140,460.55,140,460.55c-1.81-.95-3.52-1.92-5.11-2.93a55.51,55.51,0,0,1-13.51-11.36,39,39,0,0,1-8.66-17.7c-.12-.66-.24-1.33-.34-2,0-.33-.1-.67-.14-1s-.07-.66-.1-1c0-.06,0-.12,0-.18h0a42.48,42.48,0,0,1,0-7.13c.11-1.45.27-2.87.51-4.25" />
    <path class="BUNTAI_OWL_OUTFIT_BUNTAI_OWL_OUTFIT_24_f" d="M112.56,413a0,0,0,0,0,0,0h0a11.83,11.83,0,0,1-1.41-2.44,16.12,16.12,0,0,1-.91-2.91,31.19,31.19,0,0,1,.11-11.59" />
    <path class="BUNTAI_OWL_OUTFIT_BUNTAI_OWL_OUTFIT_24_f" d="M180.16,468.11s-1.24-1.79-3.6-4.94c-.69-.92-1.48-2-2.36-3.1l-.68-.87c-.2-.26-.4-.5-.6-.77l-1.1-1.39-2.43-3-.32-.39-.34-.4a3.15,3.15,0,0,0-.24-.3l-.51-.62-.6-.73-.34-.41c-.36-.43-.71-.86-1.09-1.3l-.74-.88c-.5-.6-1-1.19-1.54-1.81l-3.28-3.78-2.66-3q-.82-.93-1.71-1.89l-1.77-1.93q-1.78-2-3.71-4l0,0-.16-.17-.77-.81c-.32-.33-.64-.65-1-1-1.89-2-3.86-4-5.92-6l-.17-.17-.06-.06,0,0-.18-.18,0,0-2.3-2.26-2.41-2.32L135,417.23l-2.53-2.35c-.85-.79-1.71-1.58-2.59-2.37s-1.75-1.58-2.65-2.37l-.36-.31c-.77-.69-1.55-1.37-2.34-2.06-2.74-2.37-5.57-4.76-8.48-7.13l-2.83-2.28c-1-.76-1.92-1.52-2.9-2.27h0c-.8-.62-1.61-1.25-2.43-1.87s-1.56-1.19-2.35-1.77c-.45-.34-.9-.69-1.36-1-1.22-.9-2.45-1.81-3.7-2.69-.43-.32-.86-.63-1.3-.93l-1.84-1.31-.06,0c-.45-.32-.9-.64-1.36-1-.9-.63-1.8-1.24-2.72-1.86s-2-1.3-2.93-1.94c-1.27-.85-2.56-1.67-3.85-2.49" />
    <path class="BUNTAI_OWL_OUTFIT_BUNTAI_OWL_OUTFIT_24_f" d="M299.55,464.81c-.55-.88-1.11-1.76-1.69-2.64q-1.23-1.89-2.48-3.75-.58-.89-1.2-1.77l-.55-.8c-.19-.27-.37-.54-.56-.8s-.51-.76-.78-1.13l-.42-.59-.32-.46a2.48,2.48,0,0,0-.19-.26,5,5,0,0,0-.33-.47c-.26-.38-.53-.75-.8-1.13-.44-.61-.87-1.22-1.33-1.82s-.88-1.22-1.34-1.83L286,445.29l-.78-1-.79-1-.26-.34c-.26-.35-.52-.69-.8-1l-.26-.33-1.07-1.36-.94-1.2-.17-.21-1.31-1.63c-.55-.67-1.09-1.34-1.65-2l0,0c-.13-.18-.28-.34-.43-.52l-1.19-1.44c-.55-.66-1.12-1.32-1.68-2-.21-.25-.42-.5-.64-.74-.54-.65-1.09-1.29-1.66-1.93s-1.15-1.33-1.74-2l-1.54-1.73-.41-.45c-.33-.38-.67-.75-1-1.13l-.84-.92-.77-.84c-1.13-1.22-2.26-2.43-3.41-3.64l-.14-.15c-.42-.44-.83-.88-1.25-1.31A3.83,3.83,0,0,0,261,416c-.25-.27-.51-.53-.77-.8l-.78-.8c-.24-.26-.5-.52-.75-.78-.69-.7-1.37-1.4-2.06-2.08l-1.38-1.38c-.53-.54-1.07-1.07-1.61-1.6l-.71-.7-.14-.13a.93.93,0,0,0-.14-.14l-.06-.05-.11-.12-.08-.08L252,407l-.22-.22-1.17-1.11c0-.06-.11-.11-.17-.17l-.12-.12c-.26-.25-.52-.51-.8-.76l-.1-.09c-.26-.26-.53-.52-.81-.77l-.23-.23-.18-.16-.78-.74-.09-.08-.49-.46c-.23-.22-.45-.44-.69-.65l-.63-.58c-.53-.5-1.05-1-1.59-1.47-.87-.79-1.73-1.59-2.61-2.37-1.74-1.57-3.5-3.13-5.26-4.66l-2.66-2.29-.78-.66-.78-.66q-1.71-1.46-3.44-2.88T225,383.08c-.9-.73-1.81-1.47-2.74-2.19-1.3-1-2.61-2.08-3.93-3.1l-2.85-2.19-2.86-2.16-.3-.22L212,373c-.83-.62-1.66-1.24-2.5-1.85l-3-2.15c-.66-.49-1.34-1-2-1.44L202.3,366q-1.91-1.35-3.83-2.66l-.8-.56-.81-.55-.05,0-2.16-1.46-.2-.14,0,0-.31-.2-.3-.21c-.15-.11-.31-.2-.46-.3l-.08-.06-.16-.1-.11-.07-.21-.15-.11-.06-.91-.61-.25-.17-.1-.06-.1-.07-.45-.29-.4-.26-.51-.33-1-.65-1.32-.85c-2.66-1.73-5.31-3.39-8-5-.91-.57-1.83-1.13-2.75-1.68-1.1-.67-2.2-1.32-3.29-2l-3.29-1.93c-1.38-.79-2.74-1.57-4.11-2.33l-1.52-.86q-2.85-1.59-5.7-3.12l-1.46-.78-1.47-.78-1.46-.76-1.46-.76-.73-.37-2.17-1.11h0c-2-1-3.89-2-5.83-2.87l-2-1-.72-.34-.09-.05c-1.76-.83-3.5-1.64-5.24-2.42l-1.61-.73c-2.76-1.23-5.49-2.41-8.19-3.52" />
    <path class="BUNTAI_OWL_OUTFIT_BUNTAI_OWL_OUTFIT_24_f" d="M244,399.43l.87-.66q3.46-2.62,7-5.16t7-5l0,0,0,0c1.11-.77,2.23-1.53,3.35-2.28s2.07-1.4,3.11-2.08,2.17-1.43,3.25-2.13q3.24-2.1,6.51-4.13,6.08-3.78,12.18-7.29c.87-.5,1.73-1,2.6-1.48l3.48-2q2.3-1.27,4.59-2.51c1.08-.58,2.17-1.16,3.25-1.72q3.24-1.71,6.47-3.34h0l3.22-1.6h0l1.42-.69c1.42-.7,2.85-1.39,4.27-2.06,7-3.28,13.81-6.26,20.5-8.92" />
    <path class="BUNTAI_OWL_OUTFIT_BUNTAI_OWL_OUTFIT_24_f" d="M357.85,409.91c-2.55,1.75-5.05,3.53-7.49,5.31l-.44.31c-.27.21-.56.42-.84.62h0a367.24,367.24,0,0,0-51.22,46" />
    <path class="BUNTAI_OWL_OUTFIT_BUNTAI_OWL_OUTFIT_24_f" d="M111.92,417.27s-12,2.36-31.27-4.81h0" />
    <path class="BUNTAI_OWL_OUTFIT_BUNTAI_OWL_OUTFIT_24_f" d="M82.62,405.86c18.1,7.47,28.52,4.71,28.52,4.71" />
    <path class="BUNTAI_OWL_OUTFIT_BUNTAI_OWL_OUTFIT_24_f" d="M349.31,417.71l.66-.07a23.34,23.34,0,0,0,6.17-.8s2.31.58,2.45,2.06a2.88,2.88,0,0,1-.91,2.84h0a32.48,32.48,0,0,1-7.22,1l-1.13.14" />
    <path class="BUNTAI_OWL_OUTFIT_BUNTAI_OWL_OUTFIT_24_f" d="M144.42,331.79c0-.38,0-.78,0-1.19,0-.2,0-.41,0-.63v-.12c0-.19,0-.38,0-.58s0-.48,0-.73h0l0-.73c0-.38,0-.76-.05-1.15s0-.79-.07-1.19-.05-.66-.07-1c-.08-.88-.17-1.79-.29-2.7q-.07-.63-.18-1.26c-.06-.42-.13-.85-.21-1.27s-.14-.85-.24-1.27" />
    <path class="BUNTAI_OWL_OUTFIT_BUNTAI_OWL_OUTFIT_24_f" d="M147.78,313c0,.12.07.23.1.35s.12.42.17.64c.1.37.18.74.28,1.1s.14.62.2.92c.15.68.28,1.37.4,2.05.06.33.13.66.17,1s.11.66.16,1c0,0,0,0,0,.08,0,.23.06.45.08.67s.07.5.1.75c.24,1.79.41,3.55.53,5.26h0c.2,2.89.26,5.59.26,7.85" />
    <path class="BUNTAI_OWL_OUTFIT_BUNTAI_OWL_OUTFIT_24_f" d="M310.92,358.1h0a20.13,20.13,0,0,1-.62-2.49c-.08-.44-.16-.89-.22-1.34a.2.2,0,0,1,0-.05c-.09-.33-.65-2.11-1.21-4.91-.1-.49-.19-1-.29-1.58h0a61.79,61.79,0,0,1-.91-10.17v-.06a53.26,53.26,0,0,1,1-10.72.11.11,0,0,0,0-.05l0-.12a43,43,0,0,1,1.42-5.3" />
    <path class="BUNTAI_OWL_OUTFIT_BUNTAI_OWL_OUTFIT_24_f" d="M316.62,355.36h0l-.09-.49c-.06-.33-.12-.67-.18-1v0c-.56-3.17-1.22-7.38-1.65-11.83a65.21,65.21,0,0,1,.07-16.07h0s0,0,0,0" />
    <path class="BUNTAI_OWL_OUTFIT_BUNTAI_OWL_OUTFIT_24_f" d="M161.12,288l.67.14c1.07.23,2.14.48,3.19.73l.48.12,1.57.39c.65.16,1.29.33,1.93.51.85.22,1.69.45,2.51.69l1.2.35c.42.11.83.24,1.24.36l2,.61,3.23,1,.76.25.73.24h0l.3.11.4.14h0l.15.06.11,0,.56.23.66.28.43.19h0l1.68.73h0c.31.15.64.29,1,.44l1.08.49.69.32.46.21.86.4,1.57.75c1.94.93,4,2,6.08,3.08l1.52.83c.9.49,1.78,1,2.64,1.52.3.17.59.35.87.53.46.28.91.56,1.35.85,0,0,8,5,17.74,12,.43.3.87.62,1.3.94s.87.64,1.31,1,.59.43.88.65l.89.66c.75.55,1.5,1.12,2.25,1.69s1.5,1.14,2.25,1.73c.49.39,1,.77,1.48,1.17l.32.25.9.71,1.78,1.45,1.1.91c1.1.9,2.18,1.83,3.24,2.75l.42.38,1.26,1.11c1.1,1,2.17,2,3.19,3l1.5,1.48c.49.49,1,1,1.43,1.47h0" />
    <path class="BUNTAI_OWL_OUTFIT_BUNTAI_OWL_OUTFIT_24_f" d="M241.75,339.85l-.11-.11h0c-.85-.82-1.72-1.62-2.62-2.42-.24-.22-.48-.44-.72-.64-3.83-3.42-8-6.78-12.16-9.95l-1.41-1.06c-1.25-.93-2.49-1.85-3.72-2.74-.48-.36-1-.72-1.45-1.05l-.38-.28-.9-.64h0l-.45-.31-.45-.32-.07-.05-.81-.57h0l-1-.7-.76-.53c-.29-.21-.59-.41-.89-.61l-.88-.61-.4-.27q-.6-.42-1.2-.81l-1.85-1.24-.67-.45-.22-.15-2.38-1.57-2.17-1.41a2.12,2.12,0,0,0-.2-.12l-.42-.27-.19-.12-.26-.17-.14-.09c-1.77-1.13-3.2-2-4.18-2.63l-.37-.22-.84-.51-.15-.1-.09-.05h0c-1.18-.76-2.5-1.53-3.88-2.28-.46-.26-.93-.5-1.4-.75-1.91-1-3.89-2-5.79-2.83-1.46-.68-2.88-1.3-4.16-1.86h0l-1.47-.64h0l-.67-.29h0l-.95-.4c-1.91-.79-3.12-1.25-3.12-1.25h0l-1.07-.37c-2.2-.75-4.75-1.56-7.49-2.32-2.36-.66-4.86-1.29-7.41-1.81" />
    <line class="BUNTAI_OWL_OUTFIT_BUNTAI_OWL_OUTFIT_24_f" x1="246.36" y1="337.88" x2="246.36" y2="337.89" />
    <path class="BUNTAI_OWL_OUTFIT_BUNTAI_OWL_OUTFIT_24_f" d="M246.38,337.88h0c.46-.47,1-1,1.6-1.52.2-.18.41-.36.62-.56l.74-.64.79-.66.26-.22.25-.21,1.06-.87.77-.61c.52-.42,1.07-.84,1.63-1.27,1.12-.86,2.32-1.77,3.59-2.7l1.95-1.41.92-.66,2.87-2c.65-.45,1.31-.91,2-1.36l2-1.38,1.44-1q2.09-1.38,4.26-2.76c1.12-.71,2.27-1.43,3.42-2.13a.36.36,0,0,1,.12-.08h0c.69-.43,1.38-.86,2.08-1.27l.24-.15,1.51-.9,1.74-1,1.78-1,.72-.41,1.44-.82q2.17-1.22,4.33-2.35l2.11-1.11c1.43-.73,2.85-1.44,4.25-2.11l1.44-.68.8-.37.61-.28.12-.05" />
    <path class="BUNTAI_OWL_OUTFIT_BUNTAI_OWL_OUTFIT_24_f" d="M251.35,340.23h0l.75-.72.39-.37.39-.37c.35-.34.72-.68,1.09-1l1.16-1.05.45-.4.15-.14,1.25-1.09.16-.13c.17-.13.32-.28.48-.42l1-.84.34-.29.34-.28,1.05-.86,1.46-1.17c1.5-1.17,3.08-2.38,4.76-3.6.55-.41,1.12-.81,1.7-1.22l1.77-1.23c.6-.42,1.21-.84,1.83-1.25l.94-.62,1-.62,1.58-1,1.61-1,.51-.32,1.15-.69c.9-.55,1.83-1.09,2.77-1.63L283,317l1.22-.68c.75-.42,1.51-.83,2.28-1.24l1.16-.62,1.82-.94,2-1c.59-.29,1.19-.59,1.8-.87,2.07-1,4.21-2,6.42-2.95l1.67-.73.36-.16" />
    <path class="BUNTAI_OWL_OUTFIT_BUNTAI_OWL_OUTFIT_24_f" d="M251.34,340.23a13.33,13.33,0,0,1,3.24,9.07c0,6.32-3.69,11.43-8.22,11.43s-8.21-5.11-8.21-11.43a13.08,13.08,0,0,1,3.6-9.45,6.71,6.71,0,0,1,4.59-2h0A6.82,6.82,0,0,1,251.34,340.23Z" />
    <path class="BUNTAI_OWL_OUTFIT_BUNTAI_OWL_OUTFIT_24_f" d="M250.19,349.3c0,3.83-1.71,6.92-3.83,6.92s-3.82-3.09-3.82-6.92,1.71-6.91,3.82-6.91S250.19,345.49,250.19,349.3Z" />
    <path class="BUNTAI_OWL_OUTFIT_BUNTAI_OWL_OUTFIT_24_f" d="M231.94,352.87c-8.2-4.2-11.11,1.28-8.86,2.71C226.85,358,231.94,352.87,231.94,352.87Z" />
    <path class="BUNTAI_OWL_OUTFIT_BUNTAI_OWL_OUTFIT_24_f" d="M233.93,359.79c-9.8-.1-9.05,6-5.66,6C233.11,365.92,233.93,359.79,233.93,359.79Z" />
    <path class="BUNTAI_OWL_OUTFIT_BUNTAI_OWL_OUTFIT_24_f" d="M260.77,352.87c8.2-4.2,11.11,1.28,8.87,2.71C265.87,358,260.77,352.87,260.77,352.87Z" />
    <path class="BUNTAI_OWL_OUTFIT_BUNTAI_OWL_OUTFIT_24_f" d="M258.79,359.79c9.79-.1,9,6,5.66,6C259.6,365.92,258.79,359.79,258.79,359.79Z" />
    <ellipse class="BUNTAI_OWL_OUTFIT_BUNTAI_OWL_OUTFIT_24_f" cx="246.35" cy="369.38" rx="3.29" ry="2.59" />
    <path class="BUNTAI_OWL_OUTFIT_BUNTAI_OWL_OUTFIT_24_f" d="M240.84,378.84c-6.89-2.81-9.32.85-7.44,1.8C236.56,382.24,240.84,378.84,240.84,378.84Z" />
    <path class="BUNTAI_OWL_OUTFIT_BUNTAI_OWL_OUTFIT_24_f" d="M251.86,378.84c6.89-2.81,9.32.85,7.44,1.8C256.14,382.24,251.86,378.84,251.86,378.84Z" />
    <path class="BUNTAI_OWL_OUTFIT_BUNTAI_OWL_OUTFIT_24_f" d="M246.21,382.58c5.95,6.13-.66,9.27-2.75,7.18C240.46,386.75,246.21,382.58,246.21,382.58Z" />
    <path class="BUNTAI_OWL_OUTFIT_BUNTAI_OWL_OUTFIT_24_g" d="M80.65,412.46h0c-.16-.15-2.07-1.84-1.54-4s3.32-2.59,3.52-2.63h0" />
    <g class="BUNTAI_OWL_OUTFIT_BUNTAI_OWL_OUTFIT_24_h">
      <path d="M244,463.63c-5,.11-10.57.35-16.67.75-2,.14-4.14.29-6.32.46q-5.78.45-12.22,1.12c-1.43.14-2.89.29-4.37.46l-4.8.53a161,161,0,0,1-19.42,1.16C153.3,468,140,460.55,140,460.55c-1.8-.95-3.51-1.92-5.11-2.93a55.63,55.63,0,0,1-13.5-11.36,38.76,38.76,0,0,1-8.66-17.7c-.13-.66-.25-1.33-.34-2-.06-.33-.1-.67-.14-1s-.08-.66-.1-1c0-.06,0-.12,0-.18,4.12,6.06,22,29,55.9,27.91-8.71-9.84-17-19.1-25.29-27.69l-.17-.17-.06-.06,0,0-.18-.18,0,0c-14.25-14.75-28.5-27.49-44.84-37.65l-.06,0c-4-2.49-7.67-4.75-11-6.81l.18-.43c2.83-6.36,9.27-20.4,15.32-29.93a51.85,51.85,0,0,1,3.13-4.37c28.8,17.54,79.24,50.77,95.5,77.44-10.11-17.28-11.66-19.92-11.88-20.32C190.08,403.71,228.17,444.58,244,463.63Z" />
      <path d="M350.09,422.19l.35.52-.68.09-.29,0h-.22a38.33,38.33,0,0,1-.6,5.16c-2.07,11.33-9.44,23.16-27.36,32.54a94.64,94.64,0,0,1-21.74,4.27l-.45,0c-3.62-5.46-11.07-16.36-22.77-31.72,2.67-14.42,60.29-48.05,61.8-48.91l-19.81,22.25c8.53-7.25,20.35-15.44,32.69-23.33,3.23,10.56,5.6,20.93,6.84,26.77-2.55,1.75-5.05,3.53-7.49,5.31l-.44.24v.07l.06,2.1h0Z" />
      <path d="M258.9,388.61l-13.28,10.82-.8-.66c-5.08-4.23-33.43-27.58-51.48-38.92l-.09-.06-.15-.1c-19.27-12.08-49.53-28.2-51.41-29.2l.72.34,2,1c0-1.21,0-2.56,0-4a6.16,6.16,0,0,0,5.61-1s45.14,21.91,57.62,31.64,32.26,37.05,41.77,33.61l9.49-3.42Z" />
      <path d="M244.24,343.55s-.19,5.72,1.86,8.26,2.15,2.44,2.58,3a3.88,3.88,0,0,1-1.51,5l-2.86.58s-6.46-4.88-6.16-11.38,4.24-11.65,7.46-11.11l3.23.54S244.76,339.61,244.24,343.55Z" />
    </g>
    <path class="BUNTAI_OWL_OUTFIT_BUNTAI_OWL_OUTFIT_24_i" d="M86.26,379.66l.18-.43c2.83-6.36,9.27-20.4,15.32-29.93a51.85,51.85,0,0,1,3.13-4.37c6.74-8.56,16.92-17.27,21.68-21.16" />
    <path class="BUNTAI_OWL_OUTFIT_BUNTAI_OWL_OUTFIT_24_i" d="M357.85,409.91c-1.24-5.84-3.61-16.21-6.84-26.77-.54-1.78-1.11-3.57-1.7-5.34-4.52-13.54-9.91-26.16-12.19-31.37" />
    <path class="BUNTAI_OWL_OUTFIT_BUNTAI_OWL_OUTFIT_24_i" d="M314.78,325.9h0c-1.36-.69-2.57-2-4.57-4.52h0l-.06-.08c-.65-.81-1.38-1.75-2.22-2.83a53.34,53.34,0,0,1-6.26-10.66c-1.17-2.64-1.78-4.48-1.78-4.48" />
    <path class="BUNTAI_OWL_OUTFIT_BUNTAI_OWL_OUTFIT_24_i" d="M161.12,288s-.41,1.62-1.39,4.26A106.87,106.87,0,0,1,147.78,313a62.38,62.38,0,0,1-4.52,4.94" />
  </g>
</svg>