<svg xmlns="http://www.w3.org/2000/svg" viewBox="0 0 432 432">
  <defs>
    <style>.BUNTAI_OWL_OUTFIT_BUNTAI_OWL_OUTFIT_25_a{isolation:isolate;}.BUNTAI_OWL_OUTFIT_BUNTAI_OWL_OUTFIT_25_b,.BUNTAI_OWL_OUTFIT_BUNTAI_OWL_OUTFIT_25_f{fill:#fff;}.BUNTAI_OWL_OUTFIT_BUNTAI_OWL_OUTFIT_25_c{fill:#c27b5c;}.BUNTAI_OWL_OUTFIT_BUNTAI_OWL_OUTFIT_25_d{opacity:0.64;}.BUNTAI_OWL_OUTFIT_BUNTAI_OWL_OUTFIT_25_e,.BUNTAI_OWL_OUTFIT_BUNTAI_OWL_OUTFIT_25_g{fill:#923516;}.BUNTAI_OWL_OUTFIT_BUNTAI_OWL_OUTFIT_25_f{opacity:0.51;}.BUNTAI_OWL_OUTFIT_BUNTAI_OWL_OUTFIT_25_g,.BUNTAI_OWL_OUTFIT_BUNTAI_OWL_OUTFIT_25_i{mix-blend-mode:multiply;}.BUNTAI_OWL_OUTFIT_BUNTAI_OWL_OUTFIT_25_h{fill:none;stroke:#000;stroke-linecap:round;stroke-linejoin:round;stroke-width:1.73px;}.BUNTAI_OWL_OUTFIT_BUNTAI_OWL_OUTFIT_25_i{opacity:0.43;}</style>
  </defs>
  <g class="BUNTAI_OWL_OUTFIT_BUNTAI_OWL_OUTFIT_25_a">
    <path class="BUNTAI_OWL_OUTFIT_BUNTAI_OWL_OUTFIT_25_b" d="M219.37,345.85c-6.26,3.2-12.6,6.19-18.88,8.84-24.69-21.56-40.37-43.83-47-53.24,1.61-4,5.11-6.3,5.63-9.38C164.68,297.46,191.19,324.34,219.37,345.85Z" />
    <path class="BUNTAI_OWL_OUTFIT_BUNTAI_OWL_OUTFIT_25_b" d="M301.77,305.66c-24.92,26.74-52.59,43.56-76.36,57.17l-2,1.13c-2.26,1.29-4.48,2.54-6.64,3.75h0c-5.7-4.14-11.14-8.53-16.28-13,6.28-2.65,12.62-5.64,18.88-8.84,36.28-18.49,68.42-43.08,78.16-50.55C298.27,298.6,300.71,302.19,301.77,305.66Z" />
    <path class="BUNTAI_OWL_OUTFIT_BUNTAI_OWL_OUTFIT_25_c" d="M120,462.55H53S61.88,411.89,73.42,388c5.35-11.1,13.68-21.82,22.44-31.43,0,0-2.61,42.63,8.78,58.09S112.26,449.84,120,462.55Z" />
    <path class="BUNTAI_OWL_OUTFIT_BUNTAI_OWL_OUTFIT_25_c" d="M183.37,390s0,0,0,0l-.89,1c-.31.35-.63.72-.92,1.08s-.62.73-.91,1.1-.6.74-.89,1.12-.59.77-.87,1.16l-.9,1.22c-.28.37-.55.76-.81,1.14s-.56.8-.83,1.21-.55.81-.82,1.22c-2,3.09-3.91,6.32-5.66,9.59-.24.44-.46.88-.69,1.32l-.07.13a.64.64,0,0,1-.08.14c-.06.14-.14.28-.2.41-.23.44-.46.88-.68,1.32l-.66,1.33q-1.29,2.65-2.48,5.28c-.2.44-.4.88-.58,1.32-1.16,2.62-2.23,5.2-3.21,7.68-.32.84-.64,1.66-.94,2.47s-.71,1.88-1,2.78c-.16.44-.32.86-.46,1.28-.31.84-.6,1.66-.87,2.47-.55,1.58-1,3.09-1.5,4.5-.13.37-.24.74-.35,1.09-.33,1-.63,2-.9,2.89,0,.14-.09.29-.13.44-.14.44-.25.86-.37,1.27a2.25,2.25,0,0,0-.08.24c-.2.7-.39,1.35-.55,1.93h0c-.27,1-.49,1.75-.64,2.32,0,.22-.1.4-.14.55-.08.32-.12.5-.12.5l-.39,2,0,.1-.68,3.41-.66,3.33,0,.17H120l-.06-.11,0-.09-.5-.86c-.14-.25-.27-.52-.4-.78-.32-.62-.62-1.27-.89-1.92a.42.42,0,0,1,0-.1c-.44-1.06-.83-2.15-1.18-3.28-.07-.22-.14-.46-.2-.69s-.14-.47-.2-.7-.14-.47-.2-.71c-.12-.48-.24-1-.35-1.44s-.23-1-.34-1.48l-.15-.74c-.16-.74-.3-1.49-.44-2.26,0-.25-.1-.51-.14-.76s-.11-.61-.16-.92c-.13-.71-.25-1.44-.37-2.17-.27-1.62-.54-3.27-.83-4.92-.08-.45-.17-.9-.25-1.35-.4-2.2-.85-4.4-1.41-6.61l-.39-1.44c-.22-.8-.46-1.59-.72-2.39-.08-.26-.17-.51-.26-.78s-.09-.29-.14-.42l-.24-.66c-.06-.16-.12-.34-.19-.5s-.19-.52-.3-.78c-.32-.81-.67-1.62-1-2.41-.2-.43-.41-.85-.62-1.27l-.1-.19c-.12-.25-.26-.5-.4-.75-.27-.5-.55-1-.86-1.5-.14-.25-.3-.5-.46-.75l-.35-.55c-.36-.55-.75-1.11-1.15-1.65-11.39-15.46-8.78-58.09-8.78-58.09,8.22-9,16.82-17.06,23.74-23.55l.05,0,.08-.07c1-.84,7.61-6.34,14.4-12.45.2.42.41.84.62,1.27h0l.09.18.56,1.14c.07.16.15.33.24.49l.81,1.62c.11.22.22.46.34.68s.2.4.31.6c2.86,5.62,6.43,12.22,10.68,19.2l0,.08.05.07s0,.06,0,.09l.09.14c.5.83,1,1.66,1.54,2.49l.89,1.42c.59.94,1.2,1.88,1.82,2.83l.94,1.43,1,1.43c.71,1.07,1.45,2.14,2.19,3.22l.78,1.1c.55.8,1.12,1.59,1.7,2.38a.16.16,0,0,0,0,.07c.45.63.91,1.26,1.38,1.88.28.38.56.76.85,1.13.41.56.83,1.12,1.26,1.67l.4.51c.43.57.87,1.14,1.31,1.7l.12.15c.41.52.83,1.05,1.26,1.56l.57.73q2,2.46,4.12,4.88l1.57,1.77.89,1,1.6,1.71.33.36c.64.68,1.3,1.36,2,2l.25.26c.55.57,1.12,1.13,1.69,1.68l.92.9,1.08,1,1,.9C182,388.81,182.7,389.4,183.37,390Z" />
    <path class="BUNTAI_OWL_OUTFIT_BUNTAI_OWL_OUTFIT_25_c" d="M216.78,367.71c-.31.18-.61.35-.92.51l-2.25,1.28c-.38.21-.76.42-1.13.64-4,2.26-7.84,4.43-11.39,6.51L198.76,378c-1.91,1.15-3.74,2.27-5.48,3.38l-1.06.71-.51.36h0c-.3.21-.61.43-.9.66l-.16.11c-.4.3-.8.61-1.19.94s-.82.68-1.22,1-.83.72-1.23,1.1-.8.75-1.2,1.14c-.08.07-.15.16-.23.24-.7.68-1.39,1.41-2.07,2.16l-.12.13c-.67-.6-1.33-1.19-2-1.8l-1-.9-1.08-1-.92-.9c-.57-.55-1.14-1.12-1.69-1.68l-.25-.26c-.66-.67-1.32-1.35-2-2l-.33-.36-1.6-1.71-.89-1-1.57-1.77q-2.1-2.42-4.12-4.88l-.57-.73c-.43-.51-.85-1-1.26-1.56l-.12-.15c-.44-.56-.88-1.13-1.31-1.7l-.4-.51c-.43-.56-.85-1.11-1.26-1.67-.29-.37-.57-.75-.85-1.13l-1.38-1.88a.16.16,0,0,1,0-.07c-.57-.79-1.14-1.58-1.7-2.38l-.78-1.1c-.74-1.08-1.48-2.15-2.19-3.22l-1-1.43-.94-1.43c-.62-1-1.23-1.89-1.82-2.83l-.89-1.42c-.53-.83-1-1.66-1.54-2.49l-.09-.14s0-.06,0-.09l-.05-.07,0-.08c-4.25-7-7.82-13.58-10.68-19.2-.1-.19-.2-.4-.31-.6s-.23-.46-.34-.68l-.81-1.62-.24-.49-.65-1.32h0c-.21-.43-.42-.85-.62-1.27l.05,0c2.26-2,4.54-4.13,6.64-6.16s3.8-3.71,5.29-5.34c2.37-2.58,6.14-4.23,7.43-7.44,6.58,9.41,22.26,31.68,47,53.24,5.14,4.49,10.58,8.88,16.28,13Z" />
    <path class="BUNTAI_OWL_OUTFIT_BUNTAI_OWL_OUTFIT_25_c" d="M317.3,324.22c-1.3,1.44-2.67,2.95-4.09,4.5-.36.41-.74.81-1.12,1.22s-1,1.08-1.48,1.61L309.23,333c-3.89,4.18-8.08,8.53-12.44,12.86-.6.59-1.2,1.2-1.81,1.79-1.77,1.74-3.56,3.47-5.36,5.16-.73.69-1.45,1.36-2.18,2-1.36,1.27-2.72,2.51-4.1,3.72l-1.6,1.42c-.65.57-1.3,1.14-1.95,1.69l-.25.21c-.79.68-1.58,1.34-2.36,2h0q-1.29,1.08-2.58,2.1l-1.7,1.35c-.85.67-1.7,1.31-2.54,1.93-.63.49-1.27.94-1.9,1.4l-.87.63c-2.32,1.65-4.77,3.3-7.31,5l-1.07.71-1.07.71h0l-1.48.95a2,2,0,0,1-.24.16l-1.31.84-1.32.86-.47.31c-.51.32-1,.64-1.52,1-3.57,2.29-7.25,4.66-10.95,7.15-.52.33-1,.69-1.56,1l-1.94,1.32c-1.39,1-2.79,1.93-4.18,2.92q-1,.72-2,1.47l-1.41,1-1.57,1.18c-1.56,1.17-3.11,2.36-4.64,3.6l-.06.05c-1,.83-2.06,1.67-3.08,2.53-.52.42-1,.86-1.52,1.3l-1.52,1.32c-.5.44-1,.89-1.48,1.35s-1,.9-1.49,1.37l-.13.12c-1.43,1.34-2.82,2.72-4.19,4.14-.47.48-.94,1-1.4,1.47-1.39,1.48-2.75,3-4.06,4.58-.89,1.05-1.75,2.13-2.6,3.22l-1.22,1.62c-.36.48-.71.95-1,1.43-.14.19-.27.37-.39.56-.28.38-.55.76-.81,1.15l-.25.38c-.37.53-.73,1.07-1.07,1.61s-.75,1.18-1.12,1.78-.73,1.2-1.08,1.8-.71,1.22-1,1.84-.67,1.22-1,1.83a.91.91,0,0,0-.09.17c-.29.55-.57,1.11-.84,1.67a2.2,2.2,0,0,0-.15.31c-.23.45-.45.9-.66,1.36-.12.25-.24.5-.35.75-.22.47-.44.95-.64,1.43a2.33,2.33,0,0,0-.11.28c-.29.64-.57,1.3-.83,2-.6,1.49-1.18,3-1.69,4.57-.18.49-.34,1-.51,1.5-.07.23-.15.48-.22.72-.16.51-.32,1-.47,1.54s-.32,1.1-.46,1.66q-.18.6-.33,1.2l-.33,1.32c-.05.23-.11.47-.17.71-.11.48-.22,1-.32,1.46-.22,1-.42,2-.6,3H151.31l0-.17.66-3.33.68-3.41,0-.16.38-1.92s.13-.55.4-1.54c0-.09,0-.19.08-.29l.42-1.54h0c0-.15.08-.3.12-.45a4.19,4.19,0,0,1,.14-.47l.29-1c.23-.81.49-1.68.79-2.63.21-.7.44-1.44.69-2.21s.45-1.41.69-2.16c.12-.37.24-.74.37-1.12l.39-1.14c.13-.38.26-.78.4-1.17.27-.81.56-1.63.87-2.47.14-.42.3-.84.46-1.28.57-1.59,1.2-3.24,1.86-4.93.16-.42.33-.84.5-1.27.33-.86.69-1.72,1.05-2.6.18-.43.37-.87.55-1.31l.56-1.32c.22-.5.43-1,.66-1.5l.52-1.18c1-2.24,2.07-4.5,3.2-6.75l.68-1.32c.06-.13.14-.27.2-.41a.64.64,0,0,0,.08-.14,2.39,2.39,0,0,1,.12-.22c.2-.41.42-.82.64-1.23.44-.81.88-1.63,1.34-2.44l1.2-2.1c.08-.15.17-.29.26-.44.42-.71.84-1.41,1.27-2.11,0-.05.07-.1.1-.16.49-.79,1-1.57,1.49-2.34,1.08-1.64,2.2-3.25,3.36-4.79l.87-1.16.89-1.12c.3-.37.6-.74.91-1.1s.61-.73.92-1.08l.89-1s0,0,0,0l.12-.12h0c.68-.75,1.37-1.48,2.07-2.16.08-.08.15-.17.23-.24l.6-.58.6-.56.25-.23c.21-.21.44-.39.65-.58l0,0a3.47,3.47,0,0,1,.29-.25c.4-.35.8-.7,1.22-1s.79-.63,1.19-.94l.16-.11.9-.66h0l.51-.36,1.06-.71c1.74-1.11,3.57-2.23,5.48-3.38l2.33-1.38c3.55-2.08,7.36-4.25,11.39-6.51l3.38-1.92c.31-.16.61-.33.92-.51,2.16-1.21,4.38-2.46,6.64-3.75l2-1.13c23.77-13.61,51.44-30.43,76.36-57.17a23.11,23.11,0,0,0,5,8.93C308.54,316.46,312.29,319.73,317.3,324.22Z" />
    <path class="BUNTAI_OWL_OUTFIT_BUNTAI_OWL_OUTFIT_25_c" d="M390.65,444.83,398,462.55H337.66c7.77-12.71,4-32.49,15.38-47.93,6.29-8.54,8.31-25.39,8.86-38.76,6.33,10.85,11.93,22.36,14.77,32.18C383.66,432.23,390.65,444.83,390.65,444.83Z" />
    <path class="BUNTAI_OWL_OUTFIT_BUNTAI_OWL_OUTFIT_25_c" d="M361.9,375.86c0,.41,0,.84-.06,1.27,0,.2,0,.4,0,.61,0,.64-.07,1.28-.11,1.91-.08,1.32-.18,2.67-.29,4s-.23,2.59-.38,3.89c0,.05,0,.09,0,.15-.07.62-.15,1.23-.22,1.85s-.17,1.33-.27,2-.19,1.33-.3,2-.17,1.11-.28,1.66c-.15.9-.32,1.8-.51,2.69-.09.45-.18.91-.29,1.36s-.25,1.09-.38,1.64a58.12,58.12,0,0,1-1.67,5.63c-.4,1.14-.84,2.24-1.3,3.26l-.26.55a25.91,25.91,0,0,1-1.4,2.62c-.17.29-.35.56-.54.84s-.38.56-.58.83l-.55.77a33.9,33.9,0,0,0-2.05,3.3,6.64,6.64,0,0,0-.38.7q-.23.39-.42.81c-.14.27-.27.54-.4.81s-.19.38-.28.57c-.37.82-.72,1.64-1,2.47l-.24.65a1.21,1.21,0,0,0-.05.14c-.06.14-.11.28-.16.42-.11.31-.22.62-.32.93h0c-.55,1.6-1,3.21-1.41,4.83-.11.4-.2.8-.29,1.21l-.05.18c-.12.53-.24,1.07-.35,1.6s-.26,1.24-.38,1.86c-.19,1-.36,2-.53,2.94-.1.53-.19,1.06-.28,1.58,0,.26-.09.53-.13.79-.08.52-.17,1.05-.26,1.57,0,.15,0,.31-.07.45s-.07.4-.11.59a.49.49,0,0,1,0,.12c-.48,2.86-1,5.65-1.62,8.32l-.24.94c-.16.64-.34,1.27-.53,1.89-.1.34-.21.69-.32,1l0,0c-.09.29-.18.56-.29.85s-.2.57-.32.86-.2.52-.31.77-.22.55-.34.81l-.36.78c-.08.16-.16.33-.25.49-.31.63-.65,1.24-1,1.84H184.18c.18-1,.38-2,.6-3,.1-.49.21-1,.32-1.46.06-.24.12-.48.17-.71l.33-1.32q.15-.6.33-1.2c.14-.56.29-1.11.46-1.66s.31-1,.47-1.54c.07-.24.15-.49.22-.72.17-.5.33-1,.51-1.5.51-1.55,1.09-3.08,1.69-4.57.27-.66.54-1.32.83-2a2.33,2.33,0,0,1,.11-.28c.21-.48.43-1,.64-1.43.11-.25.23-.5.35-.75.21-.46.43-.91.66-1.36a2.2,2.2,0,0,1,.15-.31c.27-.56.55-1.12.84-1.67A.91.91,0,0,1,193,437c.32-.61.65-1.22,1-1.83l1-1.84c.35-.6.71-1.21,1.08-1.8s.74-1.19,1.12-1.78.71-1.08,1.07-1.61l.25-.38c.27-.39.53-.77.81-1.15.12-.19.25-.37.39-.56.33-.48.68-.95,1-1.43L202,423c.85-1.09,1.71-2.17,2.6-3.22.33-.4.66-.79,1-1.17.66-.78,1.34-1.54,2-2.29.34-.38.68-.75,1-1.12s.93-1,1.4-1.47c1.37-1.42,2.77-2.79,4.19-4.14l.13-.12,1.49-1.37,1.48-1.35,1.52-1.32c.5-.44,1-.87,1.52-1.3,1-.85,2.05-1.7,3.08-2.53l.06-.05q2.3-1.85,4.64-3.6l1.57-1.18,1.41-1q1-.75,2-1.47c1.39-1,2.79-2,4.18-2.92l1.94-1.32,1.56-1c3.7-2.49,7.38-4.86,10.95-7.15.51-.34,1-.66,1.52-1l.47-.31,1.32-.86,1.31-.84a2,2,0,0,0,.24-.16l1.48-.95h0l1.07-.71,1.07-.71c2.54-1.67,5-3.32,7.31-5l.87-.63c.63-.46,1.27-.91,1.9-1.4.84-.62,1.69-1.26,2.54-1.93l1.7-1.35q1.29-1,2.58-2.1h0c.78-.65,1.57-1.3,2.35-2l.25-.21c.65-.55,1.3-1.12,1.95-1.69s1.06-.93,1.6-1.42c1.38-1.21,2.74-2.45,4.1-3.72.73-.67,1.45-1.34,2.18-2,1.8-1.69,3.59-3.42,5.36-5.16.61-.59,1.21-1.19,1.81-1.79,4.36-4.33,8.55-8.68,12.44-12.86l1.38-1.48c.5-.53,1-1.08,1.48-1.61s.76-.81,1.12-1.22c1.42-1.55,2.79-3.06,4.09-4.5a404.83,404.83,0,0,1,30.15,29.51h0A262.75,262.75,0,0,1,361.9,375.86Z" />
    <g class="BUNTAI_OWL_OUTFIT_BUNTAI_OWL_OUTFIT_25_d">
      <path class="BUNTAI_OWL_OUTFIT_BUNTAI_OWL_OUTFIT_25_e" d="M277.75,369.56c-4.46,3.89-5.8,4.68-8.1,5a11,11,0,0,1-2.57,0c-1.22,1.13-4.9,4.46-7.5,5.68a17.71,17.71,0,0,1-6.6-3.82,38.79,38.79,0,0,1-9.33-1c-5.77-1.65-8.67-5.52-8.52-8.2a1.25,1.25,0,0,1,.13-.52c.92-2,6.4-1.11,6.4-1.11l.24-.08c-.35-.64-.76-1.46-1.14-2.35a12.28,12.28,0,0,1-1.14-4.24c-.06-3.07,1.83-5.29,2.93-5.39a4.62,4.62,0,0,0,2.46-.57c.48-.33,3.81,1,6.62,3a14.77,14.77,0,0,1,1.25,1,11.22,11.22,0,0,1,1.66,1.64,38.67,38.67,0,0,1,3.54,4.93,3,3,0,0,1-.15-1.78,10,10,0,0,1,2-2.36h0a29.53,29.53,0,0,1,5.77-4.44h0a6.34,6.34,0,0,1,1.4-.62c3-.88,6.32-.4,7.54,1.85a5.69,5.69,0,0,1-.17,6.31,15.1,15.1,0,0,0-1.28,1.83c1.46-.59,3.19-1.27,4.8-1.83,3.77-1.3,5.15-2.36,5.49-2.22S282.21,365.67,277.75,369.56Z" />
      <path class="BUNTAI_OWL_OUTFIT_BUNTAI_OWL_OUTFIT_25_f" d="M251.63,355.88s-.46.5-2.91-.7-4.36-1.16-6.4.33-1.56,7.56-1.56,7.56a12.28,12.28,0,0,1-1.14-4.24c-.06-3.07,1.83-5.29,2.93-5.39a4.62,4.62,0,0,0,2.46-.57C245.49,352.54,248.82,353.9,251.63,355.88Z" />
      <path class="BUNTAI_OWL_OUTFIT_BUNTAI_OWL_OUTFIT_25_f" d="M261.05,358.48a35.18,35.18,0,0,1,6.94-3.33c2.66-.69,5.28.15,6.1,1.16s1.12,1,1.12,1-.73-2.46-2.52-3a8.73,8.73,0,0,0-6.24.11,15,15,0,0,0-3.32,2.33Z" />
      <path class="BUNTAI_OWL_OUTFIT_BUNTAI_OWL_OUTFIT_25_f" d="M254.16,367.63A16.58,16.58,0,0,0,260,366.1c2.83-1.39,2.92-1.38,2.92-1.38a4.22,4.22,0,0,1,3.73,0A14.83,14.83,0,0,1,270.7,368s-1-3.37-2.44-4a6.22,6.22,0,0,0-6,0c-3,1.35-4.28,2.08-5.42,2.51S254.16,367.63,254.16,367.63Z" />
      <path class="BUNTAI_OWL_OUTFIT_BUNTAI_OWL_OUTFIT_25_f" d="M237.4,365.42a18.15,18.15,0,0,1,6.25,1.41,17.65,17.65,0,0,0,3.09,1.3l4.41.24,1,.47-.46-.74s-1.5-2-3.24-1.85a11.88,11.88,0,0,1-5.18-.41A15.57,15.57,0,0,0,237.4,365.42Z" />
      <path class="BUNTAI_OWL_OUTFIT_BUNTAI_OWL_OUTFIT_25_f" d="M280.65,361.49l-9.75,3.67a15.55,15.55,0,0,0,5.44-.91,42.19,42.19,0,0,0,4.85-2.39l1.5-1.33Z" />
      <path class="BUNTAI_OWL_OUTFIT_BUNTAI_OWL_OUTFIT_25_g" d="M277.75,369.56c-4.46,3.89-5.8,4.68-8.1,5a12.21,12.21,0,0,1-4.65-.46h0a35.74,35.74,0,0,1-4.6,2.18,8.78,8.78,0,0,1-2.07.05l-.06,0c-2.5.15-9.88.42-14.62-.92-5.77-1.65-8.67-5.52-8.52-8.2a1.25,1.25,0,0,1,.13-.52,26.85,26.85,0,0,1,2.14,2.7,9.69,9.69,0,0,0,3.44,2.89,22.82,22.82,0,0,1-2.23-2.77c-.64-1.07,2.29.48,2.29.48a8.73,8.73,0,0,0,6.27,2.46,12.36,12.36,0,0,0,6.18-1.56l.34-.73s1.94.19,2,.26a11.12,11.12,0,0,1,4,.52c1.62.74,3.24-1.53,5.7-1.7s2.23,2,3.76,1.5c2.05,0,6.84-2.52,8.51-4.11s5.82-6.41,5.82-6.41C283.84,360.28,282.21,365.67,277.75,369.56Z" />
      <path class="BUNTAI_OWL_OUTFIT_BUNTAI_OWL_OUTFIT_25_g" d="M275.34,358.93a31,31,0,0,1-3.24,2.7,34.6,34.6,0,0,1-3,1.75c-.1,0-2.32-1.41-3.07-1.34s-2.52.52-2.52.52l-2.81.54a3.36,3.36,0,0,1-1.14-.16,3.67,3.67,0,0,0-1.28-.06l-.47-.38s-1.68-2-2.94-3.4a22.89,22.89,0,0,0-3.11-2.94,53.43,53.43,0,0,1,3.34,4.67c-2.48-1.35-6.9-4.08-8.06-3.66s0,3.44-.77,4.71A8.62,8.62,0,0,1,244,364c-.06.08-.24,2.09-.24,2.09s3.75-.85,8.62,2l10.49-4.31c1.63-.66,3.91-.93,4.87,0a6.32,6.32,0,0,0,2.21,1.55,28.2,28.2,0,0,0,3.9-1.86,10.52,10.52,0,0,0,1.65-3.32A1.79,1.79,0,0,0,275.34,358.93Z" />
      <path class="BUNTAI_OWL_OUTFIT_BUNTAI_OWL_OUTFIT_25_g" d="M265.73,374.12a32,32,0,0,1-4.75,3,6,6,0,0,1-2.69.54l-3.37-.06s4.28,2.65,5,2.41a67.1,67.1,0,0,0,5.79-4.16c1.43-1.11,1.91-1.51,1.91-1.51Z" />
      <path class="BUNTAI_OWL_OUTFIT_BUNTAI_OWL_OUTFIT_25_e" d="M277.14,392.52c5.84.45,7.38.28,9.41-.86a10.94,10.94,0,0,0,2.06-1.57c1.64.18,6.53.64,9.34.06a18.32,18.32,0,0,0,3.13-7.06,40.54,40.54,0,0,0,6.94-6.47c3.71-4.81,3.83-9.69,2.17-11.77a1.61,1.61,0,0,0-.41-.34c-1.9-1.07-5.81,3-5.81,3l-.24.08a24.4,24.4,0,0,0-.43-2.59,12,12,0,0,0-1.52-4.11c-1.72-2.52-4.52-3.17-5.47-2.59a4.72,4.72,0,0,1-2.31,1c-.59,0-2.49,3.13-3.62,6.42-.17.51-.34,1-.46,1.54a11.72,11.72,0,0,0-.39,2.32,41,41,0,0,0,0,6.12,3,3,0,0,0-.9-1.53,9.81,9.81,0,0,0-3-.7h0a29.14,29.14,0,0,0-7.22-.1h0a6.17,6.17,0,0,0-1.49.35c-3,1.11-5.34,3.49-5,6s1.81,4.52,3.77,5a14.36,14.36,0,0,1,2.08.71c-1.52.4-3.31.89-4.93,1.4-3.8,1.23-5.52,1.21-5.71,1.53S271.31,392.07,277.14,392.52Z" />
      <path class="BUNTAI_OWL_OUTFIT_BUNTAI_OWL_OUTFIT_25_f" d="M290.38,365.71s.66.13,1.95-2.32,2.86-3.56,5.36-3.59S303.3,365,303.3,365a12,12,0,0,0-1.52-4.11c-1.72-2.52-4.52-3.17-5.47-2.59a4.72,4.72,0,0,1-2.31,1C293.41,359.31,291.51,362.42,290.38,365.71Z" />
      <path class="BUNTAI_OWL_OUTFIT_BUNTAI_OWL_OUTFIT_25_f" d="M284.27,373.5a34.36,34.36,0,0,0-7.53,1.49c-2.55,1.05-4.18,3.3-4.26,4.62s-.32,1.5-.32,1.5-.82-2.42.3-4a9,9,0,0,1,5.1-3.67,14.91,14.91,0,0,1,4-.12Z" />
      <path class="BUNTAI_OWL_OUTFIT_BUNTAI_OWL_OUTFIT_25_f" d="M295.1,376.74a16.71,16.71,0,0,1-5.58,2.26,28.31,28.31,0,0,0-3.15.65,4.32,4.32,0,0,0-3,2.26,15.49,15.49,0,0,0-1.43,5.07s-1.15-3.3-.33-4.69a6.34,6.34,0,0,1,4.81-3.62c3.19-.71,4.65-.91,5.83-1.25S295.1,376.74,295.1,376.74Z" />
      <path class="BUNTAI_OWL_OUTFIT_BUNTAI_OWL_OUTFIT_25_f" d="M307.36,364.84a18.78,18.78,0,0,0-4.23,4.91,18.62,18.62,0,0,1-1.75,2.92L298,375.52l-.52,1-.05-.88s.05-2.53,1.55-3.45a12.08,12.08,0,0,0,3.95-3.45A16.26,16.26,0,0,1,307.36,364.84Z" />
      <path class="BUNTAI_OWL_OUTFIT_BUNTAI_OWL_OUTFIT_25_f" d="M270.16,387.76l10-2.93a15.69,15.69,0,0,1-4.92,2.55,41.57,41.57,0,0,1-5.3,1l-2-.17Z" />
      <path class="BUNTAI_OWL_OUTFIT_BUNTAI_OWL_OUTFIT_25_g" d="M277.14,392.52c5.84.45,7.38.28,9.41-.86a12.79,12.79,0,0,0,3.49-3.18h0a38.64,38.64,0,0,0,5-1,9.11,9.11,0,0,0,1.7-1.22l0-.06c2.1-1.39,8.22-5.62,11.28-9.56,3.71-4.81,3.83-9.69,2.17-11.77a1.61,1.61,0,0,0-.41-.34,28.48,28.48,0,0,0-.18,3.47,10.13,10.13,0,0,1-1.11,4.41,23,23,0,0,0,.21-3.58c-.1-1.25-1.58,1.78-1.58,1.78a9.07,9.07,0,0,1-3.65,5.76,12.53,12.53,0,0,1-5.89,2.47l-.69-.39s-1.47,1.33-1.46,1.41a11.4,11.4,0,0,0-3,2.86c-.88,1.56-3.5.71-5.59,2.05s-.65,3-2.17,3.49c-1.67,1.21-7,2.09-9.24,1.81s-8.39-1.67-8.39-1.67C266.89,388.7,271.31,392.07,277.14,392.52Z" />
      <path class="BUNTAI_OWL_OUTFIT_BUNTAI_OWL_OUTFIT_25_g" d="M273,382.48a22.06,22.06,0,0,0,7.62-.18c.1,0,1.06-2.54,1.72-2.94s2.33-1.09,2.33-1.09l2.58-1.27a3.68,3.68,0,0,0,.83-.81,3.92,3.92,0,0,1,1-.82l.16-.59s.21-2.63.42-4.52a22.51,22.51,0,0,1,.82-4.25,53.76,53.76,0,0,0,0,5.78c1.23-2.58,3.23-7.45,4.41-7.82s1.94,2.81,3.33,3.35a8.49,8.49,0,0,0,3.06.38c.09,0,1.39,1.55,1.39,1.55s-3.52,1.56-5.79,6.84c-4.56,1.18-9.26,2.39-10.95,2.85s-3.7,1.6-4,2.92a6.18,6.18,0,0,1-.89,2.57,26.34,26.34,0,0,1-4.22.86,10.11,10.11,0,0,1-3.24-1.69A1.79,1.79,0,0,1,273,382.48Z" />
      <path class="BUNTAI_OWL_OUTFIT_BUNTAI_OWL_OUTFIT_25_g" d="M289.48,389a33.19,33.19,0,0,0,5.59-.4,6.14,6.14,0,0,0,2.49-1.2l2.68-2.07s-1.93,4.71-2.61,4.92a63.18,63.18,0,0,1-7.07.13c-1.8,0-2.42-.06-2.42-.06Z" />
      <path class="BUNTAI_OWL_OUTFIT_BUNTAI_OWL_OUTFIT_25_e" d="M302.26,412.83s-1.09.67-3.64,4.27-9.52,10.93-18.5,11a44.54,44.54,0,0,1-9.59-1.07c-.71,7.38-5.27,13.69-10.75,18.28-.65-.21-3.27-5.94-4.36-8.43a6.45,6.45,0,0,1-4.25,1.39c-5.53-.72-11.75-1.78-21.22,2.41v0a20.31,20.31,0,0,1,4.32-8.32.45.45,0,0,0-.11,0c-3.18-.46-8.82-1.47-11.68-3.09-4.12-2.33-6.21-12.82-5.87-13.13s7.5-.38,12.58-1.5c1-.23,2-.46,3-.64a1.15,1.15,0,0,1-.14-.17c-2.39-3-3.46-7.28-3.3-11.48a7.73,7.73,0,0,1,1.6-4.34h0a15.54,15.54,0,0,1,5.74-4.46h0c.81-.39,1.35-.59,1.35-.59l3.52,2.4c3.52,2.41,6.87,2.13,12.38,3.55a21.79,21.79,0,0,1,8.18,4.58c.7-4.8,3.09-7.27,8.06-10.32s11-5.58,12.64-4.21,2.8,0,3.2,0a8.89,8.89,0,0,1,5,8.83,2.64,2.64,0,0,0,0,.28A27.32,27.32,0,0,1,289,404.5a57.46,57.46,0,0,1-2.62,6.43l-.11.23c.92-.26,1.79-.45,2.58-.6C294.28,409.57,302.26,412.83,302.26,412.83Z" />
      <path class="BUNTAI_OWL_OUTFIT_BUNTAI_OWL_OUTFIT_25_f" d="M290.45,397.71a2.64,2.64,0,0,0,0,.28c-.05.19-.11.39-.18.59-1.24-5.55-4.83-6.47-9.37-6.86s-10.34,3-13.33,5.54-6.52,10-6.52,10a23.56,23.56,0,0,0-5.31-3.54,72.66,72.66,0,0,0-13.94-5.36,9.56,9.56,0,0,1-5.66-4.9c.81-.39,1.35-.59,1.35-.59l3.52,2.4c3.52,2.41,6.87,2.13,12.38,3.55a21.79,21.79,0,0,1,8.18,4.58c.7-4.8,3.09-7.27,8.06-10.32s11-5.58,12.64-4.21,2.8,0,3.2,0A8.89,8.89,0,0,1,290.45,397.71Z" />
      <path class="BUNTAI_OWL_OUTFIT_BUNTAI_OWL_OUTFIT_25_f" d="M269.93,417.56s5.92-2.27,10.16-3.36a59.84,59.84,0,0,1,6.08-1.32,16,16,0,0,1,5.53-.77c2.82.19,7,.56,7,.56l2.47-.23s-6.9-2.43-11.08-2-12.87,3.72-15.49,4.6A17.06,17.06,0,0,0,269.93,417.56Z" />
      <path class="BUNTAI_OWL_OUTFIT_BUNTAI_OWL_OUTFIT_25_f" d="M220.06,415.9a108.65,108.65,0,0,0,12.94-.56c6.82-.73,17.8,3.31,20.11,4.06-7.51-3.71-10.77-6.25-15.83-5.86S221.87,415.76,220.06,415.9Z" />
      <path class="BUNTAI_OWL_OUTFIT_BUNTAI_OWL_OUTFIT_25_f" d="M255.63,421.59s-4.76,4.47-8.54,5.65-8.89,1.95-12.21,4.61a28.48,28.48,0,0,1,9.93-5.55c3.11-1.12,8.17-3.13,9.93-5.17A4.34,4.34,0,0,0,255.63,421.59Z" />
      <path class="BUNTAI_OWL_OUTFIT_BUNTAI_OWL_OUTFIT_25_g" d="M293.35,414.46c-2.12,1.47-2.08,4.35-9,7.53s-16.39,3.62-19.5,3.12c.36.24.75.48,1.15.7a47.85,47.85,0,0,0,14.13,2.27c9-.05,16-7.37,18.5-11s3.64-4.28,3.64-4.28S295.45,413,293.35,414.46Z" />
      <path class="BUNTAI_OWL_OUTFIT_BUNTAI_OWL_OUTFIT_25_g" d="M234.63,413.56c7.22-1.1,9.29,1.32,18.09,5.39-1.69-3.09-13.12-7.34-16.87-10s-5.38-10.57-5.47-11a7.83,7.83,0,0,0-1.6,4.34c-.16,4.2.91,8.52,3.3,11.48A17,17,0,0,0,234.63,413.56Z" />
      <path class="BUNTAI_OWL_OUTFIT_BUNTAI_OWL_OUTFIT_25_g" d="M245.39,426.11a25,25,0,0,0,8.27-4.23l-8.8,2.54a37,37,0,0,1-13.36,1.24c-7.46-.66-14.88-9.61-14.88-9.61-.34.32,1.75,10.81,5.87,13.14,2.86,1.62,8.5,2.63,11.68,3.09C237.13,429.27,240.06,427.79,245.39,426.11Z" />
      <path class="BUNTAI_OWL_OUTFIT_BUNTAI_OWL_OUTFIT_25_g" d="M270.19,427.13l-5.54-1.57s-.37.68-1,1.66c.24-.44.47-.85.63-1.22-.59-.26-8.34,6.73-11.61,8.22s-7.42,1.06-13.66,1.67a13,13,0,0,0-9.09,4.73l0,0c9.48-4.19,15.7-3.13,21.23-2.41,2.33.3,5.08-1.67,7.5-4.22l.23,1.68a10.6,10.6,0,0,1-1.06,6.24s1.14,3.59,2.63,2.76,7-7.68,8.91-13.2C270.45,426.79,270.19,427.13,270.19,427.13Z" />
      <path class="BUNTAI_OWL_OUTFIT_BUNTAI_OWL_OUTFIT_25_g" d="M259.56,421.3c2.46-.82,4.16-2.39,3.82-3.5a8.14,8.14,0,0,0,1.44.51c2,.31,13.69-3.9,19.94-6.65.6-.26,1.14-.52,1.63-.74a57.37,57.37,0,0,0,2.6-6.41c-6.68,4.84-17,9.18-17,9.18s.32-.41,4.16-5c5.65-5.43,5.57-8,2.48-8.72-1.26.36-3.93,4.5-11.08,10.15,5.25-7.07-.53-8.14-.53-8.14a41.78,41.78,0,0,0-2.63,6.25,29.29,29.29,0,0,1-4.64,7.85.85.85,0,0,0,.38.75,9.28,9.28,0,0,0-1.89.43c-2.47.82-4.18,2.39-3.82,3.51S257.1,422.12,259.56,421.3Z" />
      <path class="BUNTAI_OWL_OUTFIT_BUNTAI_OWL_OUTFIT_25_e" d="M379.49,430.8s-1.09.67-3.64,4.27-9.51,10.93-18.5,11a44.61,44.61,0,0,1-9.59-1.07c-.71,7.38-5.26,13.69-10.74,18.28-.66-.21-3.27-5.94-4.37-8.43a6.44,6.44,0,0,1-4.24,1.39c-5.54-.72-11.75-1.78-21.23,2.41v0a20.43,20.43,0,0,1,4.32-8.32s-.08,0-.1,0c-3.19-.46-8.83-1.47-11.68-3.09-4.13-2.33-6.22-12.82-5.88-13.13s7.5-.38,12.59-1.5c1-.23,2-.46,3-.64-.05-.05-.09-.11-.14-.17-2.39-3-3.46-7.28-3.3-11.48a7.83,7.83,0,0,1,1.6-4.34h0a15.39,15.39,0,0,1,5.74-4.46h0c.8-.39,1.35-.59,1.35-.59l3.52,2.4c3.51,2.41,6.86,2.13,12.37,3.55a21.71,21.71,0,0,1,8.18,4.58c.71-4.8,3.09-7.27,8.06-10.32s11-5.58,12.64-4.21,2.81,0,3.2,0a8.87,8.87,0,0,1,5,8.83c0,.09,0,.19,0,.28a27.32,27.32,0,0,1-1.43,6.51,56.9,56.9,0,0,1-2.61,6.43l-.12.23c.92-.26,1.79-.45,2.58-.6C371.51,427.54,379.49,430.8,379.49,430.8Z" />
      <path class="BUNTAI_OWL_OUTFIT_BUNTAI_OWL_OUTFIT_25_f" d="M367.68,415.68c0,.09,0,.19,0,.28s-.11.39-.18.59c-1.24-5.55-4.83-6.47-9.37-6.86s-10.34,3-13.33,5.54-6.51,10-6.51,10a23.9,23.9,0,0,0-5.31-3.54A73,73,0,0,0,319,416.32a9.51,9.51,0,0,1-5.65-4.9c.8-.39,1.35-.59,1.35-.59l3.52,2.4c3.51,2.41,6.86,2.13,12.37,3.55a21.71,21.71,0,0,1,8.18,4.58c.71-4.8,3.09-7.27,8.06-10.32s11-5.58,12.64-4.21,2.81,0,3.2,0A8.87,8.87,0,0,1,367.68,415.68Z" />
      <path class="BUNTAI_OWL_OUTFIT_BUNTAI_OWL_OUTFIT_25_f" d="M347.16,435.53s5.93-2.27,10.16-3.35a58.49,58.49,0,0,1,6.09-1.33,15.93,15.93,0,0,1,5.53-.77c2.81.19,7,.56,7,.56l2.48-.23s-6.91-2.43-11.09-2-12.87,3.72-15.49,4.6A17.25,17.25,0,0,0,347.16,435.53Z" />
      <path class="BUNTAI_OWL_OUTFIT_BUNTAI_OWL_OUTFIT_25_f" d="M297.29,433.87a108.65,108.65,0,0,0,12.94-.56c6.83-.73,17.81,3.31,20.11,4.06-7.5-3.71-10.77-6.25-15.83-5.86S299.11,433.73,297.29,433.87Z" />
      <path class="BUNTAI_OWL_OUTFIT_BUNTAI_OWL_OUTFIT_25_g" d="M370.58,432.43c-2.12,1.47-2.08,4.35-9,7.53s-16.4,3.62-19.51,3.12c.37.24.76.48,1.16.7a47.71,47.71,0,0,0,14.12,2.27c9-.05,16-7.37,18.51-11s3.63-4.28,3.63-4.28S372.68,431,370.58,432.43Z" />
      <path class="BUNTAI_OWL_OUTFIT_BUNTAI_OWL_OUTFIT_25_g" d="M311.87,431.53c7.21-1.1,9.28,1.32,18.09,5.39-1.7-3.08-13.12-7.34-16.88-10s-5.38-10.57-5.47-11a7.77,7.77,0,0,0-1.6,4.33c-.16,4.2.91,8.52,3.3,11.48A17.17,17.17,0,0,0,311.87,431.53Z" />
      <path class="BUNTAI_OWL_OUTFIT_BUNTAI_OWL_OUTFIT_25_g" d="M336.79,439.27c2.46-.82,4.17-2.39,3.82-3.5a8.44,8.44,0,0,0,1.44.51c2,.32,13.7-3.9,19.94-6.65.61-.26,1.14-.51,1.63-.74a56.59,56.59,0,0,0,2.6-6.41c-6.68,4.84-17,9.18-17,9.18s.31-.41,4.15-5c5.66-5.43,5.57-8,2.48-8.72-1.26.36-3.93,4.5-11.07,10.15,5.24-7.06-.53-8.14-.53-8.14a42.34,42.34,0,0,0-2.64,6.25,29.29,29.29,0,0,1-4.64,7.85.85.85,0,0,0,.39.75,9.52,9.52,0,0,0-1.9.43c-2.47.82-4.18,2.39-3.82,3.51S334.33,440.09,336.79,439.27Z" />
    </g>
    <path class="BUNTAI_OWL_OUTFIT_BUNTAI_OWL_OUTFIT_25_h" d="M151.31,462.55l0-.17.66-3.33.68-3.41,0-.16.38-1.92s.13-.55.4-1.54c0-.09,0-.19.08-.29l.42-1.54h0c0-.15.08-.3.12-.45a4.19,4.19,0,0,1,.14-.47c.09-.32.18-.66.29-1,.23-.81.49-1.68.79-2.63.21-.7.44-1.44.69-2.21s.45-1.41.69-2.16c.12-.37.24-.74.37-1.12s.26-.75.39-1.14.26-.78.4-1.17c.27-.81.56-1.62.87-2.47.14-.42.29-.84.46-1.28.57-1.59,1.2-3.24,1.86-4.93.16-.42.33-.84.5-1.27.33-.86.69-1.72,1.05-2.6.18-.43.37-.87.55-1.31l.56-1.32c.22-.5.43-1,.66-1.5l.52-1.18c1-2.24,2.07-4.5,3.2-6.75l.68-1.32c.06-.13.14-.27.2-.41a.64.64,0,0,0,.08-.14,2.39,2.39,0,0,1,.12-.22c.2-.41.42-.82.64-1.23.44-.81.88-1.63,1.34-2.44s.79-1.4,1.2-2.1c.08-.15.17-.29.26-.44.41-.71.83-1.41,1.27-2.11,0-.05.07-.1.1-.16.49-.79,1-1.56,1.49-2.34,1.08-1.64,2.2-3.25,3.36-4.79l.87-1.16.89-1.12c.3-.37.6-.74.91-1.1s.61-.73.92-1.08l.89-1s0,0,0,0l.12-.12h0c.68-.75,1.37-1.48,2.07-2.16.08-.08.15-.17.23-.24l.6-.58.6-.56.25-.23c.21-.21.44-.39.65-.58l0,0a3.47,3.47,0,0,1,.29-.25c.4-.35.8-.7,1.22-1s.79-.63,1.19-.94l.16-.12.9-.65h0l.51-.36c.35-.25.71-.48,1.06-.71,1.74-1.11,3.57-2.23,5.48-3.38l2.33-1.38c3.55-2.08,7.36-4.25,11.39-6.51l3.38-1.92c.31-.16.61-.33.92-.51,2.16-1.21,4.38-2.46,6.64-3.75l2-1.13c23.77-13.61,51.44-30.43,76.36-57.17" />
    <path class="BUNTAI_OWL_OUTFIT_BUNTAI_OWL_OUTFIT_25_h" d="M155.75,462.55H398l-7.32-17.72s-7-12.6-14-36.79c-2.83-9.82-8.44-21.33-14.76-32.18a262.75,262.75,0,0,0-14.45-22.13h0" />
    <path class="BUNTAI_OWL_OUTFIT_BUNTAI_OWL_OUTFIT_25_h" d="M184.18,462.55c.18-1,.38-2,.6-3,.1-.49.21-1,.32-1.46.06-.24.11-.48.17-.71l.33-1.32q.15-.6.33-1.2c.14-.56.29-1.11.46-1.66s.31-1,.47-1.54c.07-.24.15-.49.22-.72.17-.5.33-1,.51-1.5.51-1.55,1.09-3.08,1.69-4.57.27-.66.54-1.32.83-2a2.33,2.33,0,0,1,.11-.28c.21-.48.43-1,.64-1.43.11-.25.23-.5.35-.75.21-.46.43-.91.66-1.36a2.2,2.2,0,0,1,.15-.31c.27-.56.55-1.12.84-1.67A.91.91,0,0,1,193,437c.32-.61.65-1.22,1-1.83l1-1.84c.35-.6.71-1.21,1.08-1.8s.74-1.19,1.12-1.78.71-1.08,1.07-1.61l.25-.38c.27-.39.53-.77.81-1.15.12-.19.25-.37.39-.56.33-.48.68-.95,1-1.43L202,423c.85-1.09,1.71-2.17,2.6-3.22.33-.4.66-.79,1-1.17.66-.77,1.34-1.54,2-2.29.34-.38.68-.75,1-1.12s.93-1,1.4-1.47c1.37-1.42,2.77-2.79,4.19-4.14l.13-.12,1.49-1.37,1.48-1.35,1.52-1.32c.5-.44,1-.87,1.52-1.3,1-.85,2.05-1.7,3.08-2.53l.06-.05q2.3-1.85,4.64-3.6l1.57-1.18,1.41-1q1-.75,2-1.47c1.39-1,2.79-2,4.18-2.92l1.94-1.32,1.56-1c3.7-2.49,7.38-4.86,10.95-7.15.51-.34,1-.66,1.52-1l.47-.31,1.32-.86,1.31-.84a2,2,0,0,0,.24-.16l1.48-.95h0l1.07-.71,1.07-.71c2.54-1.67,5-3.32,7.31-5l.87-.63c.63-.45,1.27-.91,1.9-1.4.84-.62,1.69-1.26,2.54-1.93l1.7-1.35q1.29-1,2.58-2.1h0c.78-.65,1.57-1.3,2.35-2l.25-.21c.65-.55,1.3-1.12,1.95-1.69l1.6-1.42c1.38-1.21,2.74-2.45,4.1-3.72.73-.67,1.45-1.34,2.18-2,1.8-1.69,3.59-3.42,5.36-5.16.61-.59,1.21-1.19,1.81-1.79,4.36-4.33,8.55-8.68,12.44-12.86l1.38-1.48c.5-.53,1-1.08,1.48-1.61s.76-.81,1.12-1.22c1.42-1.55,2.79-3.06,4.09-4.5" />
    <path class="BUNTAI_OWL_OUTFIT_BUNTAI_OWL_OUTFIT_25_h" d="M216.78,367.71h0c-5.7-4.14-11.14-8.53-16.28-13-24.69-21.56-40.37-43.83-47-53.24" />
    <path class="BUNTAI_OWL_OUTFIT_BUNTAI_OWL_OUTFIT_25_h" d="M119.73,332.87l-.08.07-.05,0c-6.92,6.49-15.52,14.53-23.74,23.55-8.77,9.62-17.09,20.33-22.44,31.43C61.88,411.89,53,462.55,53,462.55H155.75" />
    <path class="BUNTAI_OWL_OUTFIT_BUNTAI_OWL_OUTFIT_25_h" d="M183.37,390c-.67-.6-1.33-1.19-2-1.8l-1-.9-1.08-1-.92-.9c-.57-.55-1.14-1.12-1.69-1.68l-.25-.26c-.66-.67-1.32-1.35-2-2l-.33-.36-1.6-1.71-.89-1-1.57-1.77q-2.1-2.42-4.12-4.88l-.57-.73c-.43-.51-.85-1-1.26-1.56l-.12-.15c-.44-.56-.88-1.13-1.31-1.7l-.4-.51c-.43-.55-.85-1.11-1.26-1.67-.29-.37-.57-.75-.85-1.13-.47-.62-.93-1.25-1.38-1.88a.16.16,0,0,1,0-.07c-.58-.79-1.15-1.58-1.7-2.38-.27-.37-.52-.73-.78-1.1-.74-1.08-1.48-2.15-2.19-3.22-.33-.47-.64-.95-1-1.43l-.94-1.43c-.62-1-1.23-1.89-1.82-2.83-.3-.48-.6-.94-.89-1.42-.52-.83-1-1.66-1.54-2.49,0-.08-.1-.15-.14-.23l-.05-.07,0-.08c-4.25-7-7.82-13.58-10.68-19.2l-.31-.6c-.12-.22-.23-.46-.34-.68l-.81-1.62-.24-.49-.56-1.14-.09-.19c-.21-.43-.42-.85-.62-1.27" />
    <path class="BUNTAI_OWL_OUTFIT_BUNTAI_OWL_OUTFIT_25_h" d="M159.17,292.07c5.51,5.39,32,32.27,60.2,53.78" />
    <path class="BUNTAI_OWL_OUTFIT_BUNTAI_OWL_OUTFIT_25_h" d="M297.53,295.3c-9.74,7.47-41.88,32.06-78.16,50.55-6.26,3.2-12.6,6.19-18.88,8.84" />
    <path class="BUNTAI_OWL_OUTFIT_BUNTAI_OWL_OUTFIT_25_h" d="M132.09,391.74c-6.41,16.09-10.77,40.37-.31,70.81" />
    <path class="BUNTAI_OWL_OUTFIT_BUNTAI_OWL_OUTFIT_25_h" d="M145.1,369.57s-7.32,7.85-13,22.16" />
    <path class="BUNTAI_OWL_OUTFIT_BUNTAI_OWL_OUTFIT_25_h" d="M136.16,369.57s-4.58,15.5-4.07,22.16h0" />
    <path class="BUNTAI_OWL_OUTFIT_BUNTAI_OWL_OUTFIT_25_h" d="M325.59,391.74c6.41,16.09,10.76,40.37.3,70.81" />
    <path class="BUNTAI_OWL_OUTFIT_BUNTAI_OWL_OUTFIT_25_h" d="M312.58,369.57s7.31,7.85,13,22.16" />
    <path class="BUNTAI_OWL_OUTFIT_BUNTAI_OWL_OUTFIT_25_h" d="M321.51,369.57s4.58,15.5,4.08,22.16h0" />
    <path class="BUNTAI_OWL_OUTFIT_BUNTAI_OWL_OUTFIT_25_h" d="M119.6,333l.13-.11c1-.83,7.61-6.33,14.4-12.45,4.4-3.95,8.89-8.16,12-11.53,2.37-2.58,6.14-4.23,7.43-7.44,1.61-4,5.11-6.3,5.63-9.38" />
    <path class="BUNTAI_OWL_OUTFIT_BUNTAI_OWL_OUTFIT_25_h" d="M347.48,353.77l0,0a404.83,404.83,0,0,0-30.15-29.51c-5-4.49-8.76-7.76-10.53-9.63a23.11,23.11,0,0,1-5-8.93c-1.06-3.47-3.5-7.06-4.24-10.36" />
    <g class="BUNTAI_OWL_OUTFIT_BUNTAI_OWL_OUTFIT_25_i">
      <path d="M236.58,356.53S215.89,376,202.24,391.16s-24.8,71.39-24.8,71.39H151.31A174.65,174.65,0,0,1,169,411.48c13.77-25.26,24.21-32.36,43.48-41.34Z" />
      <path d="M199.83,377.36a67.45,67.45,0,0,0-7.05,4l0,0c-3.48,2.27-7.34,5.29-9.25,8.52h0a1.88,1.88,0,0,0-.12.18h0l0,0a180.13,180.13,0,0,1-35.41-44.18s0-.06,0-.09l-.05-.07,0-.08c-6.11-10.71-11.54-21.18-13.6-25.22,2.26-2,4.54-4.13,6.64-6.16,3.21,6.61,11.92,23.56,22.81,36.72,12.38,15,31.66,24.32,35.51,26.1Z" />
      <path d="M128.79,372.36s-.79,16.24.27,28.28l3.61-10.79s-.68-16,1.43-26.92c-2.76,14.54-2.79,18.53-2.79,18.53Z" />
      <path d="M328.89,400.53s1.49-9.77,0-17.15-2.24-15.67-2.24-15.67-.16,9.71,0,13a17,17,0,0,1-.19,4.61l-3-8.55L318,367.08s4,12.32,5,15.5,2.63,9.16,2.63,9.16Z" />
      <path d="M95.6,379.16s.12,22.63,7.94,34,8.49,27.22,10.32,34.38a75.58,75.58,0,0,0,6.16,15H99.22s-6.33-22.19-9-37-1.67-25.77-1.33-27.7S95.6,379.16,95.6,379.16Z" />
      <path d="M128.79,401.61s2.18,18.52,9.8,35.76,14.5,22.68,14.5,22.68v2.5H131.34a112.63,112.63,0,0,1-5.56-28.46C125.07,419.33,126.75,406.24,128.79,401.61Z" />
    </g>
  </g>
</svg>