<svg xmlns="http://www.w3.org/2000/svg" viewBox="0 0 432 432">
  <defs>
    <style>.BUNTAI_OWL_OUTFIT_BUNTAI_OWL_OUTFIT_10_a{isolation:isolate;}.BUNTAI_OWL_OUTFIT_BUNTAI_OWL_OUTFIT_10_b{fill:#fff;}.BUNTAI_OWL_OUTFIT_BUNTAI_OWL_OUTFIT_10_c{fill:#777c60;}.BUNTAI_OWL_OUTFIT_BUNTAI_OWL_OUTFIT_10_d,.BUNTAI_OWL_OUTFIT_BUNTAI_OWL_OUTFIT_10_g{fill:none;stroke:#000;stroke-linecap:round;stroke-linejoin:round;}.BUNTAI_OWL_OUTFIT_BUNTAI_OWL_OUTFIT_10_d{stroke-width:1.69px;}.BUNTAI_OWL_OUTFIT_BUNTAI_OWL_OUTFIT_10_e{opacity:0.22;mix-blend-mode:multiply;}.BUNTAI_OWL_OUTFIT_BUNTAI_OWL_OUTFIT_10_f{fill:#282f26;}.BUNTAI_OWL_OUTFIT_BUNTAI_OWL_OUTFIT_10_g{stroke-width:1.86px;}</style>
  </defs>
  <g class="BUNTAI_OWL_OUTFIT_BUNTAI_OWL_OUTFIT_10_a">
    <path class="BUNTAI_OWL_OUTFIT_BUNTAI_OWL_OUTFIT_10_b" d="M242.84,448.78l-34.23.53c-1.27-2.93-2.73-6.28-4.43-10.13q-2.22-5-4.45-9.61c-13.37-27.64-26.65-44.16-38.42-65.07-10.77-19.14-18-41.88-20.22-49.29a125.09,125.09,0,0,0,8.84-9.06,93.74,93.74,0,0,0,6.58-8.23h0l.27-.2a234.12,234.12,0,0,0,21.54,56.59c9.39,14.06,30.79,34.1,45.74,58.76,2.14,3.53,4.26,7.16,6.33,10.87s4,7.35,5.94,11.15l.27.54C238.77,439.9,240.86,444.29,242.84,448.78Z" />
    <path class="BUNTAI_OWL_OUTFIT_BUNTAI_OWL_OUTFIT_10_c" d="M208.61,449.31l-45.29.7-24.44.39-15.53.24h-1l-44.16.69-1.33-3.88-3.08-8.95-2.75-8,.09-.19.1-.22.15-.32h0l0-.05c0-.1.1-.22.16-.35l.19-.41,0-.07.43-.91c.17-.39.37-.81.59-1.28.08-.18.17-.38.27-.58l.09-.2.6-1.27c.06-.15.14-.3.21-.46l.44-.94c.07-.16.15-.33.23-.49.31-.66.64-1.36,1-2.08l1-2.23,1-2.14c.82-1.74,1.69-3.57,2.58-5.44l1.08-2.24c0-.09.09-.19.14-.28l.87-1.81c.94-1.94,1.88-3.89,2.81-5.77.22-.44.43-.9.63-1.37s.38-.88.55-1.34.31-.82.46-1.24a4.27,4.27,0,0,0,.18-.54c.12-.33.23-.67.34-1l.06-.19c.26-.84.51-1.71.73-2.59s.38-1.51.54-2.28c.1-.45.19-.9.28-1.35.23-1.1.42-2.22.6-3.34.08-.53.16-1.07.23-1.6s.15-1.11.22-1.66c0-.1,0-.2,0-.3.09-.79.18-1.58.26-2.37s.15-1.56.21-2.33c0-.52.08-1,.11-1.53v0c.75-1.66,1.51-3.28,2.28-4.89,9.34-19.68,19.47-35.75,28.25-40.75.92-.52,1.82-1.06,2.7-1.61,1.62-1,3.18-2,4.69-3.07h0a111.11,111.11,0,0,0,11.21-8.9l1.38-1.26c2.22,7.41,9.45,30.15,20.22,49.29,11.77,20.91,25.05,37.43,38.42,65.07q2.24,4.59,4.45,9.61C205.88,443,207.34,446.38,208.61,449.31Z" />
    <path class="BUNTAI_OWL_OUTFIT_BUNTAI_OWL_OUTFIT_10_c" d="M363.81,429.87c1.54,6.27,2.91,12,4.05,17l-40.33.63h-1.1l-1.87,0-.73,0h-.68l-18.72.29-61.59,1c-2-4.49-4.07-8.88-6.23-13.16l-.27-.54.64-.61,1.36-1.29,1.45-1.39,1.14-1.11,2-1.94c.5-.49,1-1,1.54-1.51,3.44-3.41,7.26-7.29,11.19-11.45l2-2.08,1-1.05,1-1.07,2-2.16,1-1.09,1.62-1.81.34-.39c2.93-3.33,5.81-6.73,8.54-10.15.91-1.14,1.81-2.28,2.68-3.42l.11-.15c.55-.71,1.08-1.42,1.61-2.13l.12-.17c.52-.7,1-1.4,1.53-2.09l.14-.2,0,0c.65-.91,1.28-1.81,1.9-2.71,1.67-2.46,3.2-4.88,4.55-7.24.27-.46.52-.92.77-1.37s.53-1,.77-1.45l.59-1.16c.08-.16.16-.32.23-.48.19-.37.36-.74.52-1.11s.45-1,.65-1.46c.55-1.29,1.1-2.59,1.66-3.88.18-.44.37-.87.56-1.3,1.24-2.85,2.49-5.7,3.76-8.5.26-.6.53-1.19.79-1.78,2.06-4.53,4.1-8.94,6.06-13.08.24-.49.47-1,.7-1.47,0-.09.09-.18.13-.27l.81-1.71c3.23-6.78,6.14-12.68,8.29-17,.23-.48.46-.93.68-1.37l.76-1.51c.63.73,1.29,1.47,2,2.24,5.49,6.25,11.91,13.53,18.18,20.53.33.37.67.78,1,1.23h0c2.79,3.65,5.72,9.7,8.67,17.2,4.59,11.63,9.21,26.77,13.36,41.84v0s0,0,0,0c2.65,9.6,5.1,19.18,7.22,27.82Z" />
    <path class="BUNTAI_OWL_OUTFIT_BUNTAI_OWL_OUTFIT_10_b" d="M309.83,314.87l3.57,4.06-.76,1.51c-.22.44-.45.89-.68,1.37-2.15,4.32-5.06,10.22-8.29,17l-.81,1.71c0,.09-.08.18-.13.27-.23.48-.46,1-.7,1.47-2,4.14-4,8.55-6.06,13.08-.26.59-.53,1.18-.79,1.78-1.27,2.8-2.52,5.65-3.76,8.5-.19.43-.38.86-.56,1.3-.56,1.29-1.11,2.59-1.66,3.88-.2.48-.42,1-.65,1.46s-.33.74-.52,1.11c-.07.16-.15.32-.23.48l-.59,1.16-.77,1.45c-.25.45-.5.91-.77,1.37-1.35,2.36-2.88,4.78-4.55,7.24-.62.9-1.25,1.8-1.9,2.71l0,0a2.43,2.43,0,0,0-.14.2c-.5.69-1,1.39-1.53,2.09l-.12.17c-.53.71-1.06,1.42-1.61,2.13l-.11.15q-1.32,1.71-2.68,3.42c-2.73,3.42-5.61,6.82-8.54,10.15l-.34.39-1.62,1.81-1,1.09-2,2.16-1,1.07-1,1.05-2,2.08c-3.93,4.16-7.75,8-11.19,11.45-.52.51-1,1-1.54,1.51l-2,1.94-1.14,1.11-1.45,1.39L237,434.47l-.64.61c-1.92-3.8-3.91-7.52-5.94-11.15s-4.19-7.34-6.33-10.87c56.58-50.5,70.95-85.34,73.6-93.52A48.89,48.89,0,0,0,300.15,304l.46.28h0C300.86,304.56,304.48,308.74,309.83,314.87Z" />
    <path class="BUNTAI_OWL_OUTFIT_BUNTAI_OWL_OUTFIT_10_d" d="M236.34,435.08l.64-.61,1.36-1.29,1.45-1.39,1.14-1.11,2-1.94c.5-.49,1-1,1.54-1.51,3.44-3.41,7.26-7.29,11.19-11.45l2-2.08,1-1.05,1-1.07,2-2.16,1-1.09,1.62-1.81.34-.39c2.93-3.33,5.81-6.73,8.54-10.15q1.37-1.71,2.68-3.42l.11-.15c.55-.71,1.08-1.42,1.61-2.13l.12-.17c.52-.7,1-1.4,1.53-2.09l.14-.2,0,0c.65-.91,1.28-1.81,1.9-2.71,1.67-2.46,3.2-4.88,4.55-7.24.27-.46.52-.92.77-1.37l.77-1.45.59-1.16c.08-.16.16-.32.23-.48.19-.37.36-.74.52-1.11s.45-1,.65-1.46c.55-1.29,1.1-2.59,1.66-3.88.18-.44.37-.87.56-1.3,1.24-2.85,2.49-5.7,3.76-8.5.26-.6.53-1.19.79-1.78,2.06-4.53,4.1-8.94,6.06-13.08.24-.49.47-1,.7-1.47,0-.09.09-.18.13-.27l.81-1.71c3.23-6.78,6.14-12.68,8.29-17,.23-.48.46-.93.68-1.37l.76-1.51" />
    <path class="BUNTAI_OWL_OUTFIT_BUNTAI_OWL_OUTFIT_10_d" d="M300.62,304.28h0l-.46-.28" />
    <path class="BUNTAI_OWL_OUTFIT_BUNTAI_OWL_OUTFIT_10_d" d="M156.79,297.71l-.27.2h0" />
    <path class="BUNTAI_OWL_OUTFIT_BUNTAI_OWL_OUTFIT_10_d" d="M141.09,315.21c2.22,7.41,9.45,30.15,20.22,49.29,11.77,20.91,25.05,37.43,38.42,65.07q2.24,4.59,4.45,9.61c1.7,3.85,3.16,7.2,4.43,10.13" />
    <path class="BUNTAI_OWL_OUTFIT_BUNTAI_OWL_OUTFIT_10_d" d="M300.15,304a48.82,48.82,0,0,1-2.48,15.54c-2.65,8.18-17,43-73.6,93.52" />
    <path class="BUNTAI_OWL_OUTFIT_BUNTAI_OWL_OUTFIT_10_d" d="M156.79,297.71a234,234,0,0,0,21.54,56.59c9.39,14.06,30.79,34.11,45.74,58.76,4.23,7,8.38,14.34,12.27,22,2.26,4.46,4.44,9,6.5,13.7" />
    <path class="BUNTAI_OWL_OUTFIT_BUNTAI_OWL_OUTFIT_10_d" d="M90.57,375.69h0c0,.51-.07,1-.11,1.53-.06.77-.13,1.55-.21,2.33s-.16,1.58-.26,2.37c0,.1,0,.2,0,.3-.06.55-.14,1.11-.22,1.66s-.15,1.07-.23,1.6c-.18,1.12-.37,2.24-.6,3.34-.08.45-.18.9-.28,1.35q-.24,1.15-.54,2.28c-.22.88-.47,1.75-.73,2.59l-.06.19c-.11.35-.22.69-.34,1a4.27,4.27,0,0,1-.18.54c-.14.42-.3.84-.46,1.24s-.36.9-.55,1.34-.41.93-.63,1.37c-.93,1.88-1.87,3.83-2.81,5.77l-.87,1.81c0,.09-.1.19-.14.28l-1.08,2.24c-.89,1.87-1.76,3.7-2.58,5.44l-1,2.14-1,2.23-1,2.08c-.08.16-.16.33-.23.49l-.44.94c-.07.16-.15.31-.21.46l-.6,1.27-.09.2c-.1.2-.19.4-.27.58-.22.47-.42.89-.59,1.28l-.43.91,0,.07-.19.41c-.06.13-.12.25-.16.35l0,.05h0l-.15.32c0,.09-.08.16-.1.22l-.09.19,2.75,8,3.08,8.95,1.33,3.88,44.16-.69h1l15.53-.24,24.44-.39,45.29-.7,34.23-.53,61.59-1,18.72-.29h.68l.73,0,1.87,0h1.1l40.33-.63" />
    <path class="BUNTAI_OWL_OUTFIT_BUNTAI_OWL_OUTFIT_10_d" d="M327.53,447.47c5.67-10.32,9.64-18.93,9.64-18.93" />
    <path class="BUNTAI_OWL_OUTFIT_BUNTAI_OWL_OUTFIT_10_d" d="M326.43,447.48c7-26.5,8.95-58.45,8.95-58.45" />
    <path class="BUNTAI_OWL_OUTFIT_BUNTAI_OWL_OUTFIT_10_d" d="M322.85,420.19s1.58,16.36.3,27.34" />
    <path class="BUNTAI_OWL_OUTFIT_BUNTAI_OWL_OUTFIT_10_d" d="M107.61,355.39s8,64.69,14.41,93.57C115,438.53,111.09,417,111.09,417" />
    <g class="BUNTAI_OWL_OUTFIT_BUNTAI_OWL_OUTFIT_10_e">
      <path d="M363.81,429.86a92.45,92.45,0,0,1-9-13.85c-2.55,4.89-14.69,20.7-19.63,27.08,3.19-4.5,9.43-14.88,14.67-33.11-3-9-8.06-32.45-11.46-49.17-1.89,3.74-4.12,13.57-6.18,24.48-3.51,18.56-6.53,40.21-6.53,40.21-.46-8.81,4-32.08,7.51-54.59,0,0,0,0,0,0,1.32-8.52,2.53-16.92,3.29-24.39l-2-2.17-19.26-20.56-1.48-1.58S308,328.09,304.93,340c-2.34,9.13-10.44,23.48-18.49,36.44-2.47,4-4.93,7.8-7.22,11.32l0,0-.14.2c-3.16,4.81-8.61,11.38-14.59,18.11l-.34.39-1.62,1.81-1,1.09-2,2.16-1,1.07c-11.09,12.09-22,23-22,23l-6.21-11.69s15.71-13.79,36.65-35.11c17.86-18.19,37.41-61.57,42.78-73.95l3.57,4.06c.63.73,1.29,1.47,2,2.24,5.49,6.25,11.91,13.53,18.18,20.53.33.37.67.78,1,1.23h0c2.79,3.65,5.72,9.7,8.67,17.2,4.59,11.63,9.21,26.77,13.36,41.84v0s0,0,0,0C359.24,411.64,361.69,421.22,363.81,429.86Z" />
      <path d="M226.55,447.46l-17.94-1.66s-3.8-7-8.88-16.23c-8.35-15.14-20.18-36.11-24.19-41-6.45-7.82-7.34-9.94-7.34-9.94s-18.85-21.5-28.58-36.39a46.67,46.67,0,0,1-5.25-9.79c-.11,18.63,5.4,28.23,7.41,31.12a10.45,10.45,0,0,0,.73,1l-.52.54A204.71,204.71,0,0,0,128.22,381a47.81,47.81,0,0,0-4.42,6.8c-4.16,8.3-7.25,14.33-7.25,14.33s1,15.35,2.27,27.69l0,.24c.3,2.95.64,5.72,1,8,0,0,0,.05,0,.08s0,.06,0,.09a41.36,41.36,0,0,0,1.06,5.42v0a.19.19,0,0,1,0,.08c-7.8-22.88-9.85-36.79-9.85-36.79a78.7,78.7,0,0,0-.44,21.65h0a1,1,0,0,0,0,.16h0a36.79,36.79,0,0,0,1.59,6.72c-8.42-16.72-10.56-20.84-10.56-20.84L83.64,438.51l-6.81,8.95-2.78-8.95-2.71-8.74h0l0-.05c.67-1.13,11.48-19.53,18.09-39.59a61.38,61.38,0,0,0,3.39-19.32c9.34-19.68,19.47-35.75,28.25-40.75.92-.52,1.82-1.06,2.7-1.61,1.62-1,3.18-2,4.69-3.07h0a111.11,111.11,0,0,0,11.21-8.9l1.38-1.26a125.09,125.09,0,0,0,8.84-9.06c3.88,11,15,41.19,26.41,59.22a76,76,0,0,1-5.7-6.31c5.94,8.66,14.08,20.52,24.05,35C216.71,425.94,226.55,447.46,226.55,447.46Z" />
    </g>
    <path class="BUNTAI_OWL_OUTFIT_BUNTAI_OWL_OUTFIT_10_f" d="M164.82,454.16H66.37s-1.88,2.66-2-1.19v0c.87-4.35,2-9.21,3.46-14.44a436.14,436.14,0,0,1,22.7-62.8v0c.75-1.66,1.51-3.28,2.28-4.89,9.34-19.68,19.47-35.75,28.25-40.75.92-.52,1.82-1.06,2.7-1.61,1.62-1,3.18-2,4.69-3.07h0a111.11,111.11,0,0,0,11.21-8.9,187.94,187.94,0,0,0-.09,25.8c.43,7.08,1.18,14.24,2.16,21.33l.21,1.5c5.4,37.66,17.16,73.09,21.33,84.91C164.27,452.69,164.82,454.16,164.82,454.16Z" />
    <path class="BUNTAI_OWL_OUTFIT_BUNTAI_OWL_OUTFIT_10_f" d="M367.86,446.83c.35,1.52.68,3,1,4.31H303.48c.32-.95.64-2.06.95-3.32,5.7-23.13,9.48-95,10.81-124.07q.08-1.37.12-2.58c5.49,6.25,11.91,13.53,18.18,20.53.33.37.67.78,1,1.23h0c2.79,3.65,5.72,9.7,8.67,17.2,4.59,11.63,9.21,26.77,13.36,41.84v0s0,0,0,0c2.65,9.6,5.1,19.18,7.22,27.82h0C365.35,436.14,366.72,441.91,367.86,446.83Z" />
    <path class="BUNTAI_OWL_OUTFIT_BUNTAI_OWL_OUTFIT_10_d" d="M164.82,454.16H66.37s-1.88,2.66-2-1.19v0c.87-4.35,2-9.21,3.46-14.44a436.14,436.14,0,0,1,22.7-62.8v0c.75-1.66,1.51-3.28,2.28-4.89,9.34-19.68,19.47-35.75,28.25-40.75.92-.52,1.82-1.06,2.7-1.61,1.62-1,3.18-2,4.69-3.07h0a111.11,111.11,0,0,0,11.21-8.9,187.94,187.94,0,0,0-.09,25.8c.43,7.08,1.18,14.24,2.16,21.33l.21,1.5c5.4,37.66,17.16,73.09,21.33,84.91C164.27,452.69,164.82,454.16,164.82,454.16Z" />
    <path class="BUNTAI_OWL_OUTFIT_BUNTAI_OWL_OUTFIT_10_d" d="M367.86,446.83c.35,1.52.68,3,1,4.31H303.48c.32-.95.64-2.06.95-3.32,5.7-23.13,9.48-95,10.81-124.07q.08-1.37.12-2.58" />
    <path class="BUNTAI_OWL_OUTFIT_BUNTAI_OWL_OUTFIT_10_d" d="M322.85,451.15h0c.28-1,.54-2,.8-3.08l0-.09c0-.15.07-.29.11-.45,4.19-17.12,6.83-40.75,8.46-62.23.38-5,.7-9.78,1-14.38,0,0,0,0,0,0,.62-10.36,1-19.61,1.26-26.56,0-.47,0-.93,0-1.37h0" />
    <path class="BUNTAI_OWL_OUTFIT_BUNTAI_OWL_OUTFIT_10_d" d="M139.76,454.16c-.3-1.24-.59-2.49-.88-3.76-4.77-21.11-8.23-46.5-10.66-69.36-2-19-3.35-36.29-4.12-47.89q-.16-2.55-.3-4.71" />
    <path class="BUNTAI_OWL_OUTFIT_BUNTAI_OWL_OUTFIT_10_d" d="M114.14,376.25s1.46,54,10.41,77.91c-12.89-20-17-33.43-17-33.43" />
    <path class="BUNTAI_OWL_OUTFIT_BUNTAI_OWL_OUTFIT_10_d" d="M322.85,418s1.16,18.51.8,30c9.84-29.18,13.52-59.25,13.52-59.25" />
    <path class="BUNTAI_OWL_OUTFIT_BUNTAI_OWL_OUTFIT_10_d" d="M337.17,428.33s-9.26,18-13.52,19.74" />
    <g class="BUNTAI_OWL_OUTFIT_BUNTAI_OWL_OUTFIT_10_e">
      <path d="M128.49,325.37l-4.12,7.57-.27.21-7.54,5.76-9.1,7.52-9,13.52,6.67,58.12,5.54,10.8h0l.41.8,0,0,4.51,8.8H67.87a436.14,436.14,0,0,1,22.7-62.8v0c.75-1.66,1.51-3.28,2.28-4.89,9.34-19.68,19.47-35.75,28.25-40.75.92-.52,1.82-1.06,2.7-1.61C125.42,327.46,127,326.43,128.49,325.37Z" />
      <path d="M343.21,360.14c4.59,11.63,9.21,26.77,13.36,41.84l-12.82-31.85Z" />
    </g>
    <path class="BUNTAI_OWL_OUTFIT_BUNTAI_OWL_OUTFIT_10_g" d="M300.61,304.27l-.46-.48.82.9a4,4,0,0,0,.27.31q2.89,3.42,5.78,6.64c.06.07.12.15.19.22,8.06,9.05,15.92,17.25,23.79,26.69q1.47,1.71,2.77,3.42l.77,1c.46.62.91,1.25,1.34,1.87A70.79,70.79,0,0,1,344,360.55c7.74,21.27,13.39,42.55,18.58,64.36,0,0,0,.11,0,.16.37,1.56.74,3.12,1.1,4.68,1.33,5.65,2.63,11.34,3.94,17.08.32,1.43.64,2.87,1,4.31" />
    <path class="BUNTAI_OWL_OUTFIT_BUNTAI_OWL_OUTFIT_10_g" d="M156.52,297.91h0a93.74,93.74,0,0,1-6.58,8.23,125.09,125.09,0,0,1-8.84,9.06l-1.38,1.26a111.11,111.11,0,0,1-11.21,8.9h0c-1.51,1.06-3.07,2.09-4.69,3.07-.88.55-1.78,1.09-2.7,1.61-8.78,5-18.91,21.07-28.25,40.75-.77,1.61-1.53,3.23-2.28,4.89h0a436.14,436.14,0,0,0-22.7,62.8c-1.42,5.23-2.59,10.09-3.46,14.44h0" />
  </g>
</svg>