<svg xmlns="http://www.w3.org/2000/svg" viewBox="0 0 432 432">
  <defs>
    <style>.BUNTAI_OWL_OUTFIT_BUNTAI_OWL_OUTFIT_13_a{isolation:isolate;}.BUNTAI_OWL_OUTFIT_BUNTAI_OWL_OUTFIT_13_b{fill:#464857;}.BUNTAI_OWL_OUTFIT_BUNTAI_OWL_OUTFIT_13_c{fill:#c0b7d3;}.BUNTAI_OWL_OUTFIT_BUNTAI_OWL_OUTFIT_13_d{fill:#e0fda1;}.BUNTAI_OWL_OUTFIT_BUNTAI_OWL_OUTFIT_13_e{fill:none;stroke-width:1.61px;}.BUNTAI_OWL_OUTFIT_BUNTAI_OWL_OUTFIT_13_e,.BUNTAI_OWL_OUTFIT_BUNTAI_OWL_OUTFIT_13_g{stroke:#000;stroke-linecap:round;stroke-linejoin:round;}.BUNTAI_OWL_OUTFIT_BUNTAI_OWL_OUTFIT_13_f{opacity:0.43;mix-blend-mode:multiply;}.BUNTAI_OWL_OUTFIT_BUNTAI_OWL_OUTFIT_13_g{fill:#fff;stroke-width:1.5px;}</style>
  </defs>
  <g class="BUNTAI_OWL_OUTFIT_BUNTAI_OWL_OUTFIT_13_a">
    <path class="BUNTAI_OWL_OUTFIT_BUNTAI_OWL_OUTFIT_13_b" d="M132.71,467h-30.8c-3.48-62.49,7.58-80,25.82-117.54C127.5,350.89,115.12,428.28,132.71,467Z" />
    <path class="BUNTAI_OWL_OUTFIT_BUNTAI_OWL_OUTFIT_13_c" d="M277.9,419.06c2,9.61,4.8,17.39,9.43,24.5C296.05,457,303.93,467,303.93,467H161.37a359.12,359.12,0,0,1,8.47-35.3v0c3-10.46,6.94-22.62,12-36.28q1.32-3.6,2.63-6.95c2,1,4.06,2,6.18,2.92s4.35,1.77,6.61,2.53A105.1,105.1,0,0,0,231,399.33a106.6,106.6,0,0,0,27.35-3.51,94.76,94.76,0,0,0,15.83-5.71C275.2,401.53,276.24,411,277.9,419.06Z" />
    <path class="BUNTAI_OWL_OUTFIT_BUNTAI_OWL_OUTFIT_13_d" d="M274.2,390.11a91.55,91.55,0,0,1-8.66,3.51c-1.09.39-2.2.76-3.33,1.1s-2.55.76-3.84,1.11c-2.64.69-5.33,1.29-8.08,1.78h0q-3.09.56-6.25.93a109.59,109.59,0,0,1-26.27,0c-1.14-.14-2.26-.29-3.37-.47-2.25-.34-4.46-.76-6.63-1.24l-.05,0a97.28,97.28,0,0,1-10.48-2.92c-1.31-.44-2.6-.91-3.86-1.41l-.06,0c-.91-.36-1.8-.73-2.69-1.1-2.11-.9-4.18-1.89-6.18-2.92,2.91-7.48,5.68-14,8.29-19.66,1-2.22,2-4.29,3-6.24h0c2-4.11,3.93-7.66,5.68-10.74l0,0c2.21-3.84,4.16-6.92,5.88-9.39a70.66,70.66,0,0,1,4.59-6,27.49,27.49,0,0,1,2.57-2.66l-.54-1.57c5.42-1.66,10.21-3.55,13-3.55h0a5.6,5.6,0,0,0,.54.17l.41.14,1.85-.08,3.3-.15.71,0,3.11-.14h0l.18-.07.16-.07c7.15,1.32,7.42,2.57,13,5.56h0a206.81,206.81,0,0,1,11,18c6,11,11.77,24.41,12.79,36.38C274.09,388.89,274.15,389.5,274.2,390.11Z" />
    <path class="BUNTAI_OWL_OUTFIT_BUNTAI_OWL_OUTFIT_13_b" d="M177.82,327.82c11.71,2.09,24.17,4.71,31,5.31l1.29.1c1.31-.33,2.6-.7,3.86-1.09l.54,1.57a26.07,26.07,0,0,0-2.56,2.65,67.27,67.27,0,0,0-4.6,6c-1.72,2.46-3.68,5.54-5.88,9.38l0,0c-1.75,3.08-3.65,6.63-5.68,10.74h0c-1,2-2,4-3,6.23-2.61,5.66-5.38,12.18-8.29,19.67q-1.3,3.35-2.63,6.95c-5,13.66-8.95,25.82-12,36.28v0a359.12,359.12,0,0,0-8.47,35.3H132.71c-17.59-38.72-5.21-116.11-5-117.54C109.49,387,98.43,404.51,101.91,467H63.7s-1.43-2.53-1.71-17.07S78.25,407,78.25,407s-.76-13.09,7-19.4,9.59-22.13,9.59-22.13,5.45-5.26,13.67-19.37,20.92-25.91,20.92-25.91l2.55.16c2.56.15,13.42,4.1,27,4.9,3.28.19,7.25.69,11.53,1.36C172.87,327,175.32,327.38,177.82,327.82Z" />
    <path class="BUNTAI_OWL_OUTFIT_BUNTAI_OWL_OUTFIT_13_b" d="M226.93,328.58c-2.79,0-7.58,1.89-13,3.55-1.27.4-2.55.77-3.87,1.1l-1.28-.11c-.55,0-1.15-.1-1.77-.18l-1-.13c-1-.13-2.11-.29-3.26-.47l-1.43-.23-.35-.06-1.26-.21c-2.71-.47-5.66-1-8.73-1.58l-2.94-.55-3.58-.67-2.19-.41-.38-.07-.73-.14-1.3-.23-2-.37-2.78-.47-.93-.16-.86-.14-2.73-.45c-4.28-.67-8.25-1.17-11.54-1.37-1.4-.08-2.76-.19-4.09-.34-.29,0-.59-.06-.88-.1-.47-.05-.93-.1-1.39-.17l-1.43-.19-.95-.14-.87-.14-2.18-.37-.25,0c-1.65-.31-3.21-.63-4.65-1l-1.11-.26-2.38-.58-.52-.12-2.62-.67-.91-.23a20.81,20.81,0,0,0-2.81-.58l-1.18-.07-.48,0h-.11l-.56-.05h-.21s.85-6.48,3-6.79c3.41-7.74,7.45-8.21,12.14-10.58a15.73,15.73,0,0,0,6.59-6.17,58.38,58.38,0,0,1,6.62-.74c-.31.77-.64,1.53-1,2.28l-.45,1h0c-.28.75-.57,1.5-.87,2.23l.8.95c.33.35.7.75,1.15,1.19a1.14,1.14,0,0,0,.11.11,77.58,77.58,0,0,0,7.87,6.39l0,0a112.27,112.27,0,0,0,12.8,7.54,109,109,0,0,0,30.61,9.93l.15,0q3.5.48,7.18.7c.21,0,.41,0,.62,0Q222.09,328.57,226.93,328.58Z" />
    <path class="BUNTAI_OWL_OUTFIT_BUNTAI_OWL_OUTFIT_13_b" d="M237.55,324.71a17.75,17.75,0,0,0-.49,3.66l-.35,0c-1,0-1.94.09-3,.11l-.7,0q-1.62.06-3.3.06h-1.91c.88-.48,1.53-.8,1.94-1a1.36,1.36,0,0,1,0-1,1.23,1.23,0,0,1,.23-.4c.06-.37.13-.74.22-1.13a1.64,1.64,0,0,1,2-1.2,1.57,1.57,0,0,1,1.25,1.87c0,.17-.08.35-.11.52h0l.53.25a18.62,18.62,0,0,1,.45-2.5,1.65,1.65,0,0,1,2-1.19A1.58,1.58,0,0,1,237.55,324.71Z" />
    <path class="BUNTAI_OWL_OUTFIT_BUNTAI_OWL_OUTFIT_13_b" d="M324.28,317v0l0,0h0l0,.05h0a.5.5,0,0,1-.07.08.48.48,0,0,1-.09.11l0,.05h0s0,0,0,0l0,.06,0,0-.11.13a.36.36,0,0,0-.08.09,1.79,1.79,0,0,0-.13.14l0,0-.07.07c-.45.5-1.11,1.18-1.95,2l-.24.23-.18.16c-.13.1-.25.22-.39.34l-.29.26-.3.26-.28.23-.31.26-.08.05c-.45.37-.93.74-1.44,1.12l-.53.38-.55.39-.27.18-.43.29-.45.29c-.2.12-.39.25-.59.36l-.93.56-1,.55h0l-.11.05c-.33.18-.66.36-1,.53l-.18.09-1,.46-.3.14-1.2.51q-.62.25-1.26.48l-1.07.37-.14,0-.74.23-.9.26-.41.11-.27.07-.26.07-.54.12c-.12,0-.26.06-.38.09-.5.11-1,.21-1.51.29l-.55.1-.28.06a2.57,2.57,0,0,0-.4.07c-.64.11-1.21.23-1.75.35l-.53.11-.4.09c-.1,0-.19.05-.29.06l-.4.09c-.54.12-1.07.25-1.61.35l-.66.14-.53.1c-.19,0-.37.07-.56.09l-.83.14h-.09l-.34.05-.51.07-.82.11-.27,0H291l-.61.07-.53,0-.55.05-.63.06-1.35.1-1.5.11c-5.25.34-10.56.62-15.39.86-13.53,1-15.38,1.06-20.22.84-5.59-3-5.86-4.24-13-5.56q3.19-.18,6.14-.45h0c3.88-.35,7.46-.84,10.77-1.43l.73-.13c1.71-.32,3.53-.7,5.42-1.12a4.24,4.24,0,0,0,.46-.1,104.78,104.78,0,0,0,14.6-4.59c3-1.18,5.53-2.34,7.78-3.4a144.63,144.63,0,0,0,17.36-9.74l0,0h0l.19-.12a60,60,0,0,1-3.3-8.28c-.06-.16-.1-.33-.16-.49-.18-.42-.34-.85-.51-1.28l-.39-1.05,4-.36a3.33,3.33,0,0,0-.51,1.38,2.24,2.24,0,0,0,0,.68c.36,1.43,2.6,2.87,11.29,1.58,2-.28.21,7.38.21,7.38a45.77,45.77,0,0,0,7.09,3.89c2.84,1.06,3.69,2.22,3.69,2.22Z" />
    <path class="BUNTAI_OWL_OUTFIT_BUNTAI_OWL_OUTFIT_13_b" d="M377.52,467H303.93s-7.88-10-16.6-23.44c-4.63-7.11-7.46-14.89-9.43-24.5-1.66-8.11-2.7-17.53-3.7-28.95-.05-.61-.11-1.22-.16-1.84-1-12-6.81-25.37-12.78-36.37a205.87,205.87,0,0,0-11-18h0c4.84.23,6.69.2,20.22-.84,4.83-.24,10.14-.52,15.39-.86,9.64-.63,10.14-1.44,16.17-2.47A38.46,38.46,0,0,0,324.28,317h0s12.06,11.79,18,21.9S347,356,354.38,365.68s5.18,27.8,8.31,39.6,10.77,21.49,11.63,23.17,6,25.07,6,25.07L378.86,467Z" />
    <path class="BUNTAI_OWL_OUTFIT_BUNTAI_OWL_OUTFIT_13_e" d="M156.64,302.8s.25.26.74.72a1.14,1.14,0,0,0,.11.11,77.58,77.58,0,0,0,7.87,6.39l0,0a98.26,98.26,0,0,0,40.66,17.06" />
    <path class="BUNTAI_OWL_OUTFIT_BUNTAI_OWL_OUTFIT_13_e" d="M227,328.58h2.81c1.12,0,2.22,0,3.3-.06l.7,0c1,0,2-.07,3-.11l.35,0h.16" />
    <path class="BUNTAI_OWL_OUTFIT_BUNTAI_OWL_OUTFIT_13_e" d="M304.73,304.05,302.58,306s-.66.48-1.87,1.28l-.19.12h0l0,0a144.63,144.63,0,0,1-17.36,9.74c-2.25,1.06-4.82,2.22-7.78,3.4" />
    <path class="BUNTAI_OWL_OUTFIT_BUNTAI_OWL_OUTFIT_13_e" d="M206.05,327.1c.9.15,1.82.3,2.75.41l.15,0q3.5.48,7.18.7c.21,0,.41,0,.62,0,3.55.2,6.95.3,10.18.31" />
    <path class="BUNTAI_OWL_OUTFIT_BUNTAI_OWL_OUTFIT_13_e" d="M237.22,328.36q3.19-.18,6.14-.45h0c3.88-.35,7.46-.84,10.77-1.43l.73-.13c1.9-.34,3.7-.72,5.42-1.12a4.24,4.24,0,0,0,.46-.1,104.78,104.78,0,0,0,14.6-4.59" />
    <path class="BUNTAI_OWL_OUTFIT_BUNTAI_OWL_OUTFIT_13_e" d="M227,328.58h0c-2.79,0-7.58,1.89-13,3.55-1.27.4-2.55.77-3.87,1.1l-1.28-.11c-5.94-.51-16.22-2.59-26.53-4.49l-.38-.07-4.05-.74-3.68-.62h0l-.86-.14-2.73-.45c-4.28-.67-8.25-1.17-11.54-1.37a98.39,98.39,0,0,1-12-1.5c-1.65-.31-3.21-.63-4.65-1l-1.11-.26c-4.67-1.08-8-2.09-9.24-2.18l-1.66-.1h-.1l-.78-.06s.85-6.48,3-6.79c3.41-7.74,7.45-8.21,12.14-10.58a15.73,15.73,0,0,0,6.59-6.17,58.38,58.38,0,0,1,6.62-.74" />
    <path class="BUNTAI_OWL_OUTFIT_BUNTAI_OWL_OUTFIT_13_e" d="M296.35,296.14l4-.36a3.33,3.33,0,0,0-.51,1.38,2.24,2.24,0,0,0,0,.68c.36,1.43,2.6,2.87,11.29,1.58,2-.28.21,7.38.21,7.38a45.77,45.77,0,0,0,7.09,3.89c2.84,1.06,3.69,2.22,3.69,2.22l2.13,4.11v0l0,0h0l0,.05h0a.5.5,0,0,1-.07.08.48.48,0,0,1-.09.11l0,.05h0l-.06.08h0v0l-.11.13a.36.36,0,0,0-.08.09,1.66,1.66,0,0,1-.13.14l0,0-.07.07c-.45.5-1.11,1.18-1.95,2l-.24.23-.18.16c-.13.1-.25.22-.39.34l-.29.26-.3.26-.28.23-.31.26-.08.05c-.45.37-.93.74-1.44,1.12l-.53.38-.55.39-.27.18-.43.29-.45.29c-.2.12-.39.25-.59.36l-.93.56-1,.55h0l-.11.05c-.33.18-.66.36-1,.53l-.18.09-1,.46-.3.14-1.2.51q-.62.25-1.26.48l-1.07.37-.14,0-.74.23-.9.26-.41.11-.27.07-.26.07-.54.12c-.12,0-.26.06-.38.09-.5.11-1,.21-1.51.29l-.55.1-.28.06a2.57,2.57,0,0,0-.4.07c-.64.11-1.21.23-1.75.35l-.53.11-.4.09c-.1,0-.19.05-.29.06l-.4.09c-.54.12-1.07.25-1.61.35l-.66.14-.53.1c-.19,0-.37.07-.56.09l-.83.14h-.09l-.34.05-.51.07-.82.11-.45,0-.61.07-.53,0-.55.05-.63.06-1.35.1-1.5.11c-5.25.34-10.56.62-15.39.86-13.53,1-15.38,1.06-20.22.84-5.59-3-5.86-4.24-13-5.56" />
    <path class="BUNTAI_OWL_OUTFIT_BUNTAI_OWL_OUTFIT_13_e" d="M227,328.58a5.6,5.6,0,0,0,.54.17l.41.14,1.85-.08,3.3-.15.71,0,3.11-.14h0l.18-.07.16-.07" />
    <path class="BUNTAI_OWL_OUTFIT_BUNTAI_OWL_OUTFIT_13_e" d="M169.84,431.66c3-10.46,6.94-22.62,12-36.28q1.32-3.6,2.63-6.95c2.91-7.49,5.68-14,8.29-19.67,1-2.21,2-4.28,3-6.23h0c2-4.11,3.93-7.66,5.68-10.74l0,0c2.2-3.84,4.16-6.92,5.88-9.38a67.27,67.27,0,0,1,4.6-6,26.07,26.07,0,0,1,2.56-2.65l.22-.2h0l5.37-3.34" />
    <path class="BUNTAI_OWL_OUTFIT_BUNTAI_OWL_OUTFIT_13_e" d="M161.37,467a359.12,359.12,0,0,1,8.47-35.3" />
    <path class="BUNTAI_OWL_OUTFIT_BUNTAI_OWL_OUTFIT_13_e" d="M132.71,467h-69s-1.43-2.53-1.71-17.07S78.25,407,78.25,407s-.76-13.09,7-19.4,9.59-22.13,9.59-22.13,5.45-5.26,13.67-19.37,20.92-25.91,20.92-25.91" />
    <path class="BUNTAI_OWL_OUTFIT_BUNTAI_OWL_OUTFIT_13_e" d="M324.29,317s12.06,11.79,18,21.9S347,356,354.38,365.68s5.18,27.8,8.31,39.6,10.77,21.49,11.63,23.17,6,25.07,6,25.07L378.86,467H134" />
    <path class="BUNTAI_OWL_OUTFIT_BUNTAI_OWL_OUTFIT_13_e" d="M250.23,333.92h0a205.87,205.87,0,0,1,11,18c6,11,11.76,24.41,12.78,36.37,0,.62.11,1.23.16,1.84,1,11.42,2,20.84,3.7,28.95,2,9.61,4.8,17.39,9.43,24.5C296.05,457,303.93,467,303.93,467" />
    <path class="BUNTAI_OWL_OUTFIT_BUNTAI_OWL_OUTFIT_13_e" d="M177.82,327.82S171.61,334,160,360.59,148.12,407,148.12,407" />
    <path class="BUNTAI_OWL_OUTFIT_BUNTAI_OWL_OUTFIT_13_e" d="M170.51,326.6s-15.15,23-21.11,38.76" />
    <path class="BUNTAI_OWL_OUTFIT_BUNTAI_OWL_OUTFIT_13_e" d="M127.74,349.45a198.94,198.94,0,0,1,11-20.14" />
    <path class="BUNTAI_OWL_OUTFIT_BUNTAI_OWL_OUTFIT_13_e" d="M85.24,467C82.49,439.52,90,403.7,90,403.7" />
    <path class="BUNTAI_OWL_OUTFIT_BUNTAI_OWL_OUTFIT_13_e" d="M285.83,332.21h0c.25.32,8.34,10.82,24.26,41" />
    <path class="BUNTAI_OWL_OUTFIT_BUNTAI_OWL_OUTFIT_13_e" d="M275.44,341.58S308.83,396.12,310.1,467" />
    <path class="BUNTAI_OWL_OUTFIT_BUNTAI_OWL_OUTFIT_13_e" d="M184.45,388.43c2,1,4.06,2,6.18,2.92s4.35,1.77,6.61,2.53A105.1,105.1,0,0,0,231,399.33a106.6,106.6,0,0,0,27.35-3.51,94.76,94.76,0,0,0,15.83-5.71" />
    <path class="BUNTAI_OWL_OUTFIT_BUNTAI_OWL_OUTFIT_13_e" d="M197.24,393.88a266.09,266.09,0,0,0,.91,41.95" />
    <path class="BUNTAI_OWL_OUTFIT_BUNTAI_OWL_OUTFIT_13_e" d="M190.63,391.35s-1.69,42.73,4.83,63.9" />
    <path class="BUNTAI_OWL_OUTFIT_BUNTAI_OWL_OUTFIT_13_e" d="M258.37,395.82s2.35,33.61-8.08,54.11" />
    <path class="BUNTAI_OWL_OUTFIT_BUNTAI_OWL_OUTFIT_13_e" d="M277.9,419.06s.7,17.71-9.74,33.66" />
    <path class="BUNTAI_OWL_OUTFIT_BUNTAI_OWL_OUTFIT_13_e" d="M169.84,431.66v0A47,47,0,0,0,175.16,454" />
    <path class="BUNTAI_OWL_OUTFIT_BUNTAI_OWL_OUTFIT_13_e" d="M127.74,349.45h0c-.23,1.43-12.61,78.82,5,117.54H134" />
    <path class="BUNTAI_OWL_OUTFIT_BUNTAI_OWL_OUTFIT_13_e" d="M358.8,467c-.5-39-29.48-75.65-29.48-75.65" />
    <g class="BUNTAI_OWL_OUTFIT_BUNTAI_OWL_OUTFIT_13_f">
      <path d="M156.29,299.13h0c-.28.75-.57,1.5-.87,2.23-.38-.47-.54-.72-.54-.72l1.75-2.62a1.13,1.13,0,0,0,.1.13Z" />
      <path d="M157.49,303.63a77.58,77.58,0,0,0,7.87,6.39A59,59,0,0,1,157.49,303.63Z" />
      <path d="M216.75,328.27a7.33,7.33,0,0,0-.93.09,48.39,48.39,0,0,1-6.87-.82q3.5.48,7.18.7C216.34,328.24,216.54,328.26,216.75,328.27Z" />
      <path d="M243.38,327.9c3.88-.35,7.46-.84,10.77-1.43-7,1.29-12,1.77-12,1.77l1.2-.33Z" />
      <path d="M300.5,307.39c-.32.29-3.35,2.84-18.11,10.42-6.5,3.33-14.49,5.69-21.63,7.31a104.78,104.78,0,0,0,14.6-4.59c3-1.18,5.53-2.34,7.78-3.4A144.63,144.63,0,0,0,300.5,307.39Z" />
      <path d="M182.25,328.63s-19.91,37.86-23,70.7c-.15-20.73.72-30.79.72-30.79s-11.35,27.06-8.69,61.36,3.84,37.1,3.84,37.1h-9.3s-6.2-50.07,2.66-82.48A234.54,234.54,0,0,1,173.25,327Z" />
      <path d="M147.43,322.76s-16.55,31.6-16.1,55,1.2,60.32,4.3,72.18,5.16,17.66,5.16,17.66H113.2c.71-81.24.39-80.37,12.41-113.64a219.15,219.15,0,0,1,16.65-31.19Z" />
      <path d="M130.32,320.18s-26.3,32.25-28.85,46a358.06,358.06,0,0,0-6.66,61.43C94.22,455.41,96.38,467,96.38,467H63.7a47.29,47.29,0,0,1,2.76-35c4.71-9.41,6.4-17,11.79-25-.38-9,3.51-16.14,7.19-19.65,6.78-6.47,8.25-20,8.94-22.34C103.56,355.8,119.58,325.73,130.32,320.18Z" />
      <path d="M279.2,348.34s1.76,15.6,8.7,45,9.15,48.42,9.15,48.42-10.61-22.67-16.68-36.56c1.48,23.95,6.91,36.5,9.14,41.63S303.93,467,303.93,467h6.16s-.65-26.82-4.34-61.3a266,266,0,0,0-14.17-61.39s6,26.61,6.39,39.59c-14.79-39.31-22.53-42.32-22.53-42.32Z" />
      <path d="M285.83,332.21s28.82,44.34,33.11,65.07c.83-22.79-14.54-66.63-14.54-66.63Z" />
      <path d="M330.14,391.35C350,420.69,350.38,420.92,358,439.3c7.23,17.38,9.45,27.7,9,27.7H358.8S339.43,421.24,330.14,391.35Z" />
      <path d="M184.07,389.41s-21.58,57.49-22.86,78.47H214.7s-5.39-30.95-6-51.57c-2.17,30-2.67,41.36-2.67,41.36s-5.93-31.2,1.71-60.85C198.44,394.27,184.07,389.41,184.07,389.41Z" />
      <path d="M244,398.55a181.5,181.5,0,0,1-8.81,47.22,137.87,137.87,0,0,0,15.06-48.15Z" />
    </g>
    <polyline class="BUNTAI_OWL_OUTFIT_BUNTAI_OWL_OUTFIT_13_e" points="153.51 299.13 155.43 301.38 156.24 302.33 156.64 302.8" />
    <path class="BUNTAI_OWL_OUTFIT_BUNTAI_OWL_OUTFIT_13_g" d="M266.63,425.47a1.67,1.67,0,0,1-1.36-.69c-4.37-6.15-3.9-14.59-3.35-24.37.56-10,1.2-21.33-2.8-33.67-7.79-24-21.4-33-21.54-33.05a1.54,1.54,0,0,1-.46-2.19,1.69,1.69,0,0,1,2.28-.44c.6.38,14.73,9.64,22.86,34.74,4.17,12.88,3.52,24.52,2.95,34.78-.54,9.58-1,17.15,2.78,22.42a1.55,1.55,0,0,1-.43,2.2A1.76,1.76,0,0,1,266.63,425.47Z" />
    <path class="BUNTAI_OWL_OUTFIT_BUNTAI_OWL_OUTFIT_13_g" d="M221,422.28a1.64,1.64,0,0,1-1.56-1.06c-.31-.85-7.58-21.19-4.67-38.15,1.23-7.14,3.87-14.54,6.42-21.69,3.49-9.8,6.78-19.05,6.1-26.45a1.65,1.65,0,0,1,3.28-.28c.74,8.07-2.66,17.63-6.27,27.75-2.51,7-5.1,14.3-6.28,21.19-2.77,16.15,4.46,36.39,4.53,36.59a1.57,1.57,0,0,1-1,2A1.68,1.68,0,0,1,221,422.28Z" />
    <path class="BUNTAI_OWL_OUTFIT_BUNTAI_OWL_OUTFIT_13_g" d="M247.71,344.07l0-.05c-.55-1.12-1-1.92-1.18-2.34a52.88,52.88,0,0,0-6.86-10.46h0a1.21,1.21,0,0,0-.16-.16,22.67,22.67,0,0,0-2.43-2.39l-.18-.16a.57.57,0,0,0-.16-.11,17.16,17.16,0,0,0-2.81-1.9l-.53-.25h0a12.87,12.87,0,0,0-1.44-.6c-.69-.24,0,.7-.41,1.25a2.58,2.58,0,0,0-.37.54c-.14.33-1.47-.15-1.35.16-.41.2-1.06.52-1.94,1h0l-.31.16c-.94.51-2.1,1.17-3.44,2a88.55,88.55,0,0,0-13.18,10c-.72.64-1.43,1.32-2.16,2-8.33,8.07-13.5,20.83-11.29,27.87a8,8,0,0,0,.33.86,6.15,6.15,0,0,0,4.51,3.75c7.4,1.5,11.08-7.5,15-17,1-2.54,2.1-5.17,3.25-7.61,2.56-5.43,4.69-9.54,6.86-12.27h0a11.82,11.82,0,0,1,3.2-3h0l.07-.05c.17-.09.33-.19.49-.26a6.41,6.41,0,0,1,2.59-.62h.1c.09,0,.17,0,.31.2a5.22,5.22,0,0,1,.74,2.59h0a16.89,16.89,0,0,1,.07,1.95h0c-.08,7-3.06,19.78-7.4,30.48a18.44,18.44,0,0,0,7.23,22.73,14.39,14.39,0,0,0,7.59,2.28,13.44,13.44,0,0,0,9.49-4.06C263.41,379.25,251.89,352.65,247.71,344.07Zm-14-12.8c-.19,0-.39,0-.59,0h0a9.86,9.86,0,0,0-3.21.82h0l-.21.1c-4.5,2.14-7.64,7.44-12.18,17.1-1.19,2.53-2.27,5.19-3.32,7.76-3.37,8.25-6.53,16.05-11.23,15.09a3,3,0,0,1-2.38-2.43,12.44,12.44,0,0,1-.14-5.48v0h0a34,34,0,0,1,5.13-12.5v0a39.08,39.08,0,0,1,5.48-6.68,83.72,83.72,0,0,1,18.74-13.86l.43-.23c.84-.42,1.31-.63,1.33-.64a1.65,1.65,0,0,0,.88-.94c.2.11.4.22.59.35a6.92,6.92,0,0,1,.78.51c.35.25.69.51,1,.8l.84.76a3.34,3.34,0,0,0-1.78-.5h-.21Zm15.78,57.15c-3.65,3.59-8.49,4.09-12.95,1.33a15.34,15.34,0,0,1-5.93-18.92c3.8-9.37,7.66-23.64,7.55-32.14h0a11.76,11.76,0,0,0-1.08-5.48l.2.23.65.78,0,0h0a53.9,53.9,0,0,1,5.61,8.86C249.71,354.75,258.84,379.21,249.48,388.42Z" />
    <path class="BUNTAI_OWL_OUTFIT_BUNTAI_OWL_OUTFIT_13_g" d="M234.93,339.18h0a1.52,1.52,0,0,1-.46.41,1.61,1.61,0,0,1-.87.24,1.65,1.65,0,0,1-1.39-.72,14.88,14.88,0,0,1-1.55-3.45l-.09-.3a16.27,16.27,0,0,1-.42-1.67c-.1-.5-.19-1-.26-1.57,0-.31-.07-.64-.09-1a20.16,20.16,0,0,1,0-2.35,1.69,1.69,0,0,0,0-.23,21.34,21.34,0,0,1,.28-2.4c.06-.37.13-.74.22-1.13a1.64,1.64,0,0,1,2-1.2,1.57,1.57,0,0,1,1.25,1.87c0,.17-.08.35-.11.52a16.25,16.25,0,0,0-.3,2.28c0,.06,0,.1,0,.14,0,.35,0,.7,0,1,0,.56,0,1.1.08,1.61a17,17,0,0,0,.61,3.13,13.48,13.48,0,0,0,1.15,2.78h0l.12.19A1.53,1.53,0,0,1,234.93,339.18Z" />
    <path class="BUNTAI_OWL_OUTFIT_BUNTAI_OWL_OUTFIT_13_g" d="M238.37,338.58a.72.72,0,0,1-.22.1h0a1,1,0,0,1-.34.11,1.66,1.66,0,0,1-1.7-.72,17,17,0,0,1-2.21-6.81c-.05-.34-.07-.69-.1-1.06s-.05-1,0-1.57v-.14c0-.64.06-1.31.14-2a18.62,18.62,0,0,1,.45-2.5,1.65,1.65,0,0,1,2-1.19,1.58,1.58,0,0,1,1.23,1.91,17.75,17.75,0,0,0-.49,3.66v.06a1.77,1.77,0,0,0,0,.23,17.38,17.38,0,0,0,.19,2.69,15.5,15.5,0,0,0,.57,2.5c0,.13.08.27.13.39h0a10.91,10.91,0,0,0,1,2.16A1.53,1.53,0,0,1,238.37,338.58Z" />
    <path class="BUNTAI_OWL_OUTFIT_BUNTAI_OWL_OUTFIT_13_e" d="M157.72,295.89c-.31.77-.64,1.53-1,2.28l-.45,1" />
    <path class="BUNTAI_OWL_OUTFIT_BUNTAI_OWL_OUTFIT_13_e" d="M297.25,298.47c-.18-.42-.34-.85-.51-1.28l-.39-1.05" />
    <path class="BUNTAI_OWL_OUTFIT_BUNTAI_OWL_OUTFIT_13_e" d="M155.43,301.38c.3-.73.59-1.48.87-2.23h0" />
    <path class="BUNTAI_OWL_OUTFIT_BUNTAI_OWL_OUTFIT_13_e" d="M300.71,307.24a60,60,0,0,1-3.3-8.28c-.06-.16-.1-.33-.16-.49" />
  </g>
</svg>