<svg xmlns="http://www.w3.org/2000/svg" viewBox="0 0 432 432">
  <defs>
    <style>.GUNDAN_RAT_BODY_RAT_BODY_39_cls-1{isolation:isolate;}.GUNDAN_RAT_BODY_RAT_BODY_39_cls-2{fill:#7c2a20;}.GUNDAN_RAT_BODY_RAT_BODY_39_cls-3{fill:#988c85;}.GUNDAN_RAT_BODY_RAT_BODY_39_cls-4{fill:#fff;}.GUNDAN_RAT_BODY_RAT_BODY_39_cls-5{fill:#db4c22;}.GUNDAN_RAT_BODY_RAT_BODY_39_cls-6,.GUNDAN_RAT_BODY_RAT_BODY_39_cls-7,.GUNDAN_RAT_BODY_RAT_BODY_39_cls-9{fill:none;stroke:#000;stroke-linecap:round;}.GUNDAN_RAT_BODY_RAT_BODY_39_cls-6,.GUNDAN_RAT_BODY_RAT_BODY_39_cls-7{stroke-linejoin:round;}.GUNDAN_RAT_BODY_RAT_BODY_39_cls-6{stroke-width:2px;}.GUNDAN_RAT_BODY_RAT_BODY_39_cls-7{stroke-width:0.54px;}.GUNDAN_RAT_BODY_RAT_BODY_39_cls-8{fill:#ff5959;}.GUNDAN_RAT_BODY_RAT_BODY_39_cls-9{stroke-miterlimit:10;stroke-width:1.55px;}.GUNDAN_RAT_BODY_RAT_BODY_39_cls-10{opacity:0.22;mix-blend-mode:multiply;}</style>
  </defs>
  <g class="GUNDAN_RAT_BODY_RAT_BODY_39_cls-1">
    <g id="Body">
      <path class="GUNDAN_RAT_BODY_RAT_BODY_39_cls-2" d="M302.57,433v1.82H110.47a148.57,148.57,0,0,1,6.36-31c.17-.54.34-1.09.5-1.64,5-16.93,6.57-34.52,12.13-45.26,1.72-3.33,6.4-6.19,12-8.63,6.93-2.74,15.05-5.33,20.48-7.09l1.16-.37c8.18-3.15,10.1-5.25,11.36-6.73,1.47-1.74,2.82-6.79,3.35-9l0,0v0c.07-.28.16-.61.25-1v0c.35-1.38.83-3.3,1.26-5.34.1-.43.19-.87.27-1.3h0c.09-.44.17-.87.25-1.3v0c0-.19.07-.38.1-.56.09-.52.17-1,.24-1.55.17-1.19.32-2.4.46-3.57.22-1.75.4-3.4.53-4.73,0-.16,0-.31,0-.46s0-.3.05-.44h0l-.31,0h0c-1.48-.26-3-.55-4.5-.87l-1.51-.34c-1.54-.36-3.07-.76-4.58-1.2l-1.43-.45-.33-.12-.16-.06a.17.17,0,0,1-.1,0l-.24-.08-.24-.09h0a19.23,19.23,0,0,1-2.31-1.05c-.37-.2-.74-.41-1.1-.63s-.71-.46-1.06-.7l-.39-.28a.9.9,0,0,1-.2-.14,1.46,1.46,0,0,1-.21-.16l-.15-.1a1.3,1.3,0,0,1-.23-.18L162,298a.16.16,0,0,1-.08-.06l-.71-.58-.67-.61h0l-.06-.06h0l-.55-.54c-.53-.51-1-1.05-1.51-1.61-.24-.28-.48-.56-.71-.85s-.46-.57-.69-.87h0c-.18-.24-.36-.47-.53-.71h0l-.74-1.08a.61.61,0,0,0-.07-.1c-.25-.38-.5-.78-.74-1.17h0c-.15-.25-.3-.5-.44-.76l-.39-.67h0c-.29-.53-.57-1.05-.84-1.59h0l-.39-.8h0c-.13-.27-.25-.54-.37-.82l-.05-.09v0c0-.09-.08-.18-.11-.27q-.21-.46-.39-.93h0c-.16-.38-.31-.76-.45-1.13s-.31-.81-.45-1.22-.3-.89-.44-1.34c-.08-.24-.15-.49-.23-.74a2.58,2.58,0,0,0-.08-.26s0,0,0,0,0,0,0-.07c-.14-.5-.27-1-.39-1.48s-.24-1-.35-1.52c-.18-.83-.32-1.65-.44-2.45l0-.2c-.05-.34-.09-.67-.13-1s-.07-.58-.09-.87-.06-.75-.08-1.12a1.62,1.62,0,0,1,0-.22c0-.21,0-.4,0-.6v-.17c0-.11,0-.2,0-.31v-.08a21.71,21.71,0,0,1,.27-3.65c0-.09,0-.18.05-.27a.22.22,0,0,1,0-.08c.13-.77.26-1.56.4-2.36,0-.1,0-.21.05-.31.12-.73.25-1.48.38-2.24s.25-1.54.37-2.32c.07-.44.14-.89.2-1.34s.1-.63.14-.94c.22-1.47.42-3,.58-4.43.11-1,.21-2,.29-2.94q0-.39.06-.78v0a60.15,60.15,0,0,0,.18-6.25c0-.31,0-.64,0-1s0-.9-.08-1.34c0-.29,0-.57-.07-.85a.51.51,0,0,0,0-.13c0-.25-.05-.48-.08-.72-.07-.63-.16-1.25-.28-1.85a2.7,2.7,0,0,0-.08-.41c-.05-.32-.12-.63-.2-.94h0a4.77,4.77,0,0,0-.13-.51.61.61,0,0,0,0-.13.19.19,0,0,1,0-.07c0-.13-.06-.26-.1-.38h0c-.08-.29-.17-.56-.27-.84a16.09,16.09,0,0,0-1.09-2.39l0,0h0a8.38,8.38,0,0,0-.46-.75,20.28,20.28,0,0,0-1.33-1.9,0,0,0,0,1,0,0l-.26-.35c-.13-.16-.26-.32-.41-.48a1,1,0,0,0-.17-.2c-.19-.24-.4-.47-.62-.7-.06-.08-.13-.15-.2-.23l-.06-.06h0l-.37-.39-.24-.26c-.14-.14-.27-.29-.42-.43s-.22-.23-.34-.34l-.1-.1-.24-.23c-.23-.23-.46-.46-.7-.68l-.7-.66h0c-.23-.23-.47-.45-.71-.67l-.72-.66-1.92-1.77c-.54-.5-1.08-1-1.61-1.53l0,0h0s0,0,0,0c-.33-.32-.66-.65-1-1s-.74-.76-1.09-1.15-.65-.73-1-1.1l-.46-.56-.43-.57c-.22-.29-.43-.59-.63-.89l-.32-.48c-.11-.16-.21-.33-.31-.5l-.27-.49a4.67,4.67,0,0,1-.27-.49c-.17-.33-.33-.67-.49-1s-.25-.56-.36-.85c-.4-.92-.77-1.93-1.11-3q-.13-.42-.27-.87c-.15-.5-.3-1-.44-1.55-.1-.37-.19-.75-.29-1.13s-.13-.55-.19-.83l-.24-1.16c-.08-.37-.16-.75-.22-1.13h0c-.05-.26-.1-.51-.14-.78-.17-1-.31-2-.43-3,0-.22,0-.44-.07-.66s-.07-.66-.09-1c0-.15,0-.31,0-.48,0-.4-.07-.81-.09-1.21a0,0,0,0,1,0,0l0-.56c0-.34,0-.68,0-1,0-.08,0-.17,0-.26s0-.27,0-.41v-.16c0-.32,0-.64,0-1s0-.88,0-1.32h0c0-.45,0-.89.06-1.34v0c0-1.08.15-2.14.28-3.18h0c0-.26.07-.51.1-.76l.12-.74c0-.34.11-.68.18-1h0a27.13,27.13,0,0,1,2.07-6.55c.15-.31.31-.6.47-.87s.36-.5.54-.72.19-.22.29-.32h0a5.3,5.3,0,0,1,.63-.54l.33-.23a4.75,4.75,0,0,1,.59-.31l.11,0a3.59,3.59,0,0,1,.76-.26l.12,0,.27-.06a5,5,0,0,1,.66-.08h.19a1.88,1.88,0,0,1,.34,0,8.72,8.72,0,0,1,2.21.27l.18,0,.15,0a5.62,5.62,0,0,1,.55.15c.21.06.41.13.62.21l.08,0,.11,0c.27.1.55.2.82.32s.28.12.42.18l.09.05.33.14c.27.12.54.26.81.4l.25.14.07,0c.48.25,1,.52,1.45.82h.05l.08,0c.24.15.49.3.74.47l.3.19,1.13.76c.52.37,1,.75,1.58,1.16l.38.28.25.2h0c.25.19.48.37.72.58h0l.5.4a.86.86,0,0,0,.14.13l.07.06c.63.52,1.25,1.06,1.86,1.61l.84.77c.54.5,1.08,1,1.6,1.53h0l.07.07h0l.72.72.69.7.06.07c.68.7,1.32,1.39,1.91,2.08q.48.54.93,1.08l.27.31c.53.65,1,1.28,1.5,1.89l.08.1,0,0,0,0,.41.55h0c1.33,1.82,2.77,3.57,4.25,5.23l.74.81c1.24,1.36,2.51,2.64,3.76,3.82.5.47,1,.93,1.49,1.37s1,.86,1.46,1.27l1.42,1.16A35,35,0,0,0,179,205.3a7.6,7.6,0,0,0,1.67.68l.33.06h.11a4.26,4.26,0,0,0,.63,0h.21l.23,0,.5-.06.55-.08.6-.11.43-.08,1.21-.25,1.32-.31.74-.17.62-.15a2,2,0,0,0,.26-.06l1.42-.35.82-.21,2.26-.56,1-.23,1-.23,1-.24.11,0,1.28-.29.62-.13,1-.22.49-.1.52-.1.54-.11.47-.08,1-.19,1-.16.16,0c.88-.14,1.74-.26,2.6-.36h.1l.23,0,.85-.08.42,0,.53,0q.47,0,.93-.06c.24,0,.49,0,.73,0s.49,0,.74,0l.84,0h.23l.46,0,.4,0h.27l1.14.08.26,0,.91.09c.3,0,.61.06.9.1l.89.13c.3,0,.59.07.88.12l1.41.25a1.7,1.7,0,0,0,.31.06c.28,0,.56.1.83.16l1.61.35.69.16.82.21.72.19c.38.09.74.19,1.09.29h0l.86.25,1.72.53.42.14h0c.95.31,1.62.56,1.94.68l.18.07h0a67,67,0,0,0,20.92-13.69c.68-.66,1.33-1.35,2-2.06s1.27-1.46,1.87-2.23a124.15,124.15,0,0,0,9-13.63l.43-.68.41-.66.41-.61h0l.4-.57a15.27,15.27,0,0,1,1.57-2,5.28,5.28,0,0,1,3.54-1.9,5.09,5.09,0,0,1,1.62.12,4.48,4.48,0,0,1,2.19,1.28,9.49,9.49,0,0,1,1.53,2l.35.61h0a20,20,0,0,1,1.24,2.86c.18.53.36,1.08.52,1.65h0l0,.06q.12.44.24.9l.18.74c0,.19.09.39.13.6.08.39.16.79.23,1.2l.12.7q.08.39.12.81c0,.2.06.41.08.62a.59.59,0,0,0,0,.13.61.61,0,0,1,0,.15l.06.52c0,.27.07.56.09.84,0,.49.08,1,.11,1.5.06.92.09,1.84.09,2.78v.11q0,.82,0,1.65h0c0,.34,0,.67,0,1s0,.45,0,.68,0,.44-.05.66,0,.31,0,.46c0,.4-.08.78-.13,1.17s-.13,1-.21,1.49a.77.77,0,0,1,0,.15c-.08.49-.17,1-.26,1.45l0,.15v0c0,.09-.05.19-.07.28l-.12.58c-.05.22-.1.43-.16.64l-.27,1.07c-.14.49-.29,1-.45,1.46s-.23.67-.35,1h0c-.41,1.12-.89,2.22-1.41,3.3a.38.38,0,0,1-.06.13.09.09,0,0,1,0,.06c-.13.27-.26.54-.4.81-.46.91-.95,1.81-1.48,2.68s-.93,1.52-1.42,2.26l-.75,1.1c-.25.36-.5.72-.76,1.07s-.52.7-.79,1.05l-.4.51-.63.79-.63.78-.81.95c-.67.76-1.34,1.48-2,2.18q-.78.82-1.56,1.56l-.51.49h0a.3.3,0,0,0-.08.08l-.14.12-.69.64c-.79.71-1.56,1.36-2.29,1.95l-.87.68c-.42.31-.83.61-1.23.88l-.64.42-.61.38-.05,0c-.35.2-.68.38-1,.53a7.25,7.25,0,0,1-1,.41h0c0,.1.07.19.1.29.17.48.33,1,.48,1.45a0,0,0,0,1,0,0,1.61,1.61,0,0,1,.09.29s0,0,0,0c.14.41.26.83.37,1.25s.23.88.34,1.33h0c.08.29.14.57.21.87a2.56,2.56,0,0,1,.05.27c.12.51.23,1,.32,1.55a.13.13,0,0,1,0,.06c.12.61.23,1.23.32,1.84.06.38.12.76.17,1.15.12.82.21,1.63.3,2.45.06.58.11,1.16.16,1.74a2.45,2.45,0,0,1,0,.27c.06.71.11,1.41.15,2.11l0,.58c0,.63.06,1.25.08,1.87s0,1.23,0,1.83,0,1,0,1.47c0,1.48,0,2.89,0,4.22-.06,7.69,4.95,16.37,4.48,25.93,0,.22,0,.44-.05.66a5.7,5.7,0,0,1-.06.58c0,.3-.08.6-.13.91h0c0,.17-.05.35-.08.52s0,.22-.07.33a.09.09,0,0,1,0,.07h0a.5.5,0,0,1,0,.12h0a1,1,0,0,0,0,.17c-.1.49-.22,1-.37,1.5l0,.12v0a.75.75,0,0,1-.05.16c-.05.19-.12.4-.19.61s-.15.5-.24.75l-.3.83c-.05.12-.1.25-.14.38h0l-.27.67c-.08.19-.16.38-.25.57-.23.54-.49,1.08-.76,1.62l-.07.14c-.14.26-.28.53-.43.79a2.25,2.25,0,0,1-.12.21q-.15.28-.33.57a.6.6,0,0,1-.09.15l-.22.37-.17.27a1.17,1.17,0,0,1-.16.25l-.16.24q-.22.36-.48.72h0s0,0,0,0a.21.21,0,0,0,0,.06.83.83,0,0,1-.12.16c-.21.3-.43.61-.66.91s-.46.6-.7.9l-.7.84a1.19,1.19,0,0,1-.15.18l-.68.75-.11.13-.08.09-.17.18-.37.37c-.26.27-.53.53-.81.79l-.43.4c-.24.23-.49.44-.74.66h0l-.69.57-.71.57h0c-.55.43-1.11.83-1.7,1.22l-.6.4c-.6.39-1.21.76-1.85,1.1l-.66.36h0s0,0,0,0,0,0,0,0q-.45.24-.9.45a.91.91,0,0,1-.22.11l-.08,0h0l-.12.06c-.67.32-1.36.62-2.08.9-.37.15-.76.29-1.15.43l-1.18.39-.16.06h0a6,6,0,0,1-.69.2l-.43.12c-.53.15-1.08.29-1.63.41h0l-.44.29A23.05,23.05,0,0,1,234,309.6h0c0,.12,0,.24,0,.37h0a49.24,49.24,0,0,0,.43,5.48l.06.38c.07.44.15.85.24,1.22,0,.18.09.35.14.51l.79,3.1-1.51-.7s.43,1.81,1.05,4.18c0,0,2.2,7.9,4.1,10.13,1.25,1.49,2.52,3.3,10.7,6.45,10,3.24,30.77,11.79,33.83,16.69,6,10.94,6.95,28.87,12.4,46.3S302.57,433,302.57,433Z" />
      <path class="GUNDAN_RAT_BODY_RAT_BODY_39_cls-3" d="M129.25,176.46c-.13.21-3.37,10.85-1.64,20.33s2.6,14.84,9.82,20.14S151,232.14,151,232.14l-.25-6.08-3.18-7.44,4,1.07-2.69-5.44s8.09,4.09,10.48,5.16c-2.45-3.57-2.16-4-2.16-4l8.49,3.38s-5.87-7.73-8.14-11.73-5.74-15-11.17-22.76-11.67-11.07-14.11-10.66A4,4,0,0,0,129.25,176.46Z" />
      <path class="GUNDAN_RAT_BODY_RAT_BODY_39_cls-3" d="M278,176.27s-2.68-6.29-6.65-5.59-5.88,13-8.38,20-5.61,16.76-10.2,21-5.47,5.6-5.47,5.6l7.19-2.6-1.27,4,3.08-1.09-.34,3.68.77.28-2.79,2.8.81,3a73.76,73.76,0,0,0,14.39-12.12c6.53-7.28,11.07-21.08,10.6-28.31S278,176.27,278,176.27Z" />
      <path class="GUNDAN_RAT_BODY_RAT_BODY_39_cls-4" d="M262.4,282.75c-2.39,1.64-7.31,4.52-11.72,5.51h0a12.4,12.4,0,0,1-3.35.33,8.52,8.52,0,0,0-1.45-1.35s0,0,0,0h0a12.92,12.92,0,0,0-3.73-2.06c-1.37-.48-2.52-.81-3.42-1s-1.51-.35-1.78-.4l-.12,0h0v0l-.16,0-.06-.25h0l0-.17h0l-.27-1.24c0,.33.05.63.06.89,0,.58.05.95.05.95l-.08.05c-.17.1-.6.33-1.23.64,0,0,0,0,0,0a28.68,28.68,0,0,1-2.9,1.19l-.07,0-.25.08h0a40.57,40.57,0,0,0-4.26,1.8h0l-.07,0h0a12.29,12.29,0,0,1-3.93-.74h0a24.15,24.15,0,0,1-2.38-1l-.12-.05c-.14-.07-.28-.13-.42-.21l-.29-.14h0a20.4,20.4,0,0,1-2-1.13,6.44,6.44,0,0,1-.58-.42h0a1.51,1.51,0,0,1-.22-.19.69.69,0,0,1-.13-.21,2.34,2.34,0,0,1-.15-.52,5.8,5.8,0,0,1-.13-.83l-.34.76-.42,1c-5.95.35-13.87,1.48-20,5.81a21.72,21.72,0,0,0-3.5,3.1h0s-6.05-.9-19.09-.73a17.88,17.88,0,0,1-1.94-.08c-10.7-1-19.58-10.71-21.58-13.07,0,0,0,0,0,0l-.4-.49a.11.11,0,0,0,0,0,1.21,1.21,0,0,0,0,.18l.08.26c.11.36.23.72.35,1.09a44.62,44.62,0,0,0,2.07,4.85l.05.09a40.39,40.39,0,0,0,8.6,11.58,31.9,31.9,0,0,0,6,4.38l.07,0,.65.35h0a31.14,31.14,0,0,0,5.62,2.28c2.89.85,5.32,1.44,7.34,1.84l.37.08c6,1.16,8.23.67,8.23.67h2s-.14,1.7-.39,4.09h0A117.78,117.78,0,0,1,189,323.74q-.19.72-.33,1.29v0c-8,24.32-28.14,37.78-33.2,62-3.91,18.66-1.79,39.25-.61,47.72H261.7c5.53-23.2-2.07-48.31-13.69-66.66-14.24-22.49-17.64-43-17.65-43.06h0a22.53,22.53,0,0,1-.34-3.2c0-1.78-.33-4.46-.59-6.42-.18-1.45-.34-2.51-.34-2.51l3.07-1.84L234,310l.06,0,.11,0,2-.88.07,0,5.41-2.37.15-.06c.32-.14,1.18-.51,2.4-1.15h0l1.19-.65a41.61,41.61,0,0,0,6.07-4.22,35,35,0,0,0,4-3.91l0,0c.62-.71,1.22-1.47,1.8-2.26a1.23,1.23,0,0,0,.17-.25,33.76,33.76,0,0,0,2.23-3.71l1.78-3.31c-.05,0-.22.21-.5.45l-.06.06h0c-.46.39-1.19,1-2.17,1.69a31,31,0,0,0,3.16-4.49h0v0a16.7,16.7,0,0,0,1.15-2.48Z" />
      <path class="GUNDAN_RAT_BODY_RAT_BODY_39_cls-5" d="M220.67,279.52s-2.89,3.49-3,4.48,5.63,3.29,8.25,3.8,8.37-3.12,9.7-3.46,1.25-2,.26-3.3-3.43-2.21-7.47-1.78S221.72,279.26,220.67,279.52Z" />
      <path d="M223.62,283.61a7.12,7.12,0,0,0-1.81,2.27c-.7-.34-1.55-.68-2.38-1a5.8,5.8,0,0,1,2.33-2.06C223,282.47,225.26,282.34,223.62,283.61Z" />
      <path d="M230,283.61a7.12,7.12,0,0,1,1.81,2.27c.7-.34,1.55-.68,2.38-1a5.8,5.8,0,0,0-2.33-2.06C230.63,282.47,228.4,282.34,230,283.61Z" />
      <path class="GUNDAN_RAT_BODY_RAT_BODY_39_cls-6" d="M236.67,308h0c17.94-4.1,25.66-19.26,26.1-28.28.47-9.56-4.54-18.24-4.48-25.93s-.06-18.06-3.3-27c4.63-1.57,17.3-12.67,22.2-25.86,3-8,2.81-18.37.79-25.53l0-.06c-1.29-4.57-3.35-7.85-5.83-8.4-6.38-1.4-7.72,7.6-17.39,19.89s-24.77,18-24.77,18-11-4.36-21.31-4S184.21,206.5,181,206s-13.49-8.39-20.57-18.09S135,162.08,130,172.74a27.21,27.21,0,0,0-2.07,6.56c-2,10.37.26,23.43,3.82,30.41,4.37,8.56,16.17,13.8,18.79,23s.15,22.28-1.59,32.59,5.17,31.8,19.94,36.52a89.25,89.25,0,0,0,12.36,2.91,139.87,139.87,0,0,0,19.88,1.89" />
      <path class="GUNDAN_RAT_BODY_RAT_BODY_39_cls-6" d="M193.41,298.57a37.73,37.73,0,0,0,7.69,8,31.24,31.24,0,0,0,32.87,3,23.11,23.11,0,0,0,2.7-1.58h0c9.33-6.37,9.76-14.33,9.76-14.33" />
      <path class="GUNDAN_RAT_BODY_RAT_BODY_39_cls-6" d="M140.9,400.82a121.38,121.38,0,0,1,4.37,33.95" />
      <path class="GUNDAN_RAT_BODY_RAT_BODY_39_cls-6" d="M272,405.89s-2.22,18.64-1.44,28.88" />
      <path class="GUNDAN_RAT_BODY_RAT_BODY_39_cls-6" d="M181.22,304.71h0c0,.14,0,.29-.05.44s0,.3,0,.46c-.13,1.33-.31,3-.53,4.73-.14,1.17-.29,2.38-.46,3.57-.07.51-.15,1-.24,1.55,0,.18-.07.37-.1.56h0c-.08.43-.16.87-.25,1.3h0l-.27,1.3c-.43,2-.91,4-1.26,5.34v0c-.09.36-.18.69-.25,1v0c-.67,2.33-2.3,7.79-3.32,9-1.26,1.48-3.18,3.58-11.36,6.73l-1.16.37c-5.64,1.79-13.71,4.13-20.48,7.09-5.56,2.44-10.24,5.3-12,8.63-5.56,10.74-7.09,28.33-12.13,45.26-.16.55-.33,1.1-.5,1.64a148.57,148.57,0,0,0-6.36,31h192.1V433s-.91-11.8-6.36-29.22-6.38-35.36-12.4-46.3C280.75,352.53,260,344,250,340.74c-8.18-3.15-9.45-5-10.7-6.45-1.9-2.23-3.19-6.79-3.19-6.79-.33-1.15-.64-2.3-.91-3.34-.62-2.37-1.05-4.18-1.05-4.18l1.51.7-.93-3.61c-.11-.48-.21-1-.3-1.6A49.24,49.24,0,0,1,234,310h0c0-.13,0-.25,0-.37h0" />
      <path class="GUNDAN_RAT_BODY_RAT_BODY_39_cls-6" d="M247.32,217.27c.47-.14,8-2.42,10.17-4.29a75.33,75.33,0,0,1-5.33,6.05l6.2-2.19-3.58,4.69,3.67-.87-4.92,3.67" />
      <path class="GUNDAN_RAT_BODY_RAT_BODY_39_cls-6" d="M247.3,217.28h0c.51-.41,10.2-8.15,13.49-20.85,3.38-13,6.35-24.81,10.08-26,3.52-1.09,6.72,4.32,7.08,4.94l0,.06" />
      <path class="GUNDAN_RAT_BODY_RAT_BODY_39_cls-6" d="M127.9,179.3c2.42-6.5,5.57-6.64,12-2.53s12.29,16.75,16.95,28.63,13.05,16.78,13.05,16.78-10-4.88-14.89-9.2c3.24,4.94,4.72,7,4.72,7s-7.69-2.27-12.67-6.55c3.06,4.11,5.33,7.51,5.33,7.51a31.36,31.36,0,0,1-5.94-3c3.84,7,5,9.7,5,9.7" />
      <path class="GUNDAN_RAT_BODY_RAT_BODY_39_cls-6" d="M233.07,279.13c-1.66-.59-4.3.26-6.24.26s-4.58-.85-6.24-.26-3.91,4.87-3.91,4.87a11.75,11.75,0,0,1,2.57.79l.18.07c.83.34,1.68.68,2.38,1a5.5,5.5,0,0,1,1.4.87c.61.61,3.62,1.05,3.62,1.05s3-.44,3.62-1.05a5.5,5.5,0,0,1,1.4-.87c.7-.34,1.55-.68,2.38-1l.18-.07A11.75,11.75,0,0,1,237,284S234.73,279.72,233.07,279.13Z" />
      <path class="GUNDAN_RAT_BODY_RAT_BODY_39_cls-6" d="M226.83,287.8s.57,7.1-.3,11.39c-8.65,5.24-10.22,6.29-10.22,6.29" />
      <path class="GUNDAN_RAT_BODY_RAT_BODY_39_cls-6" d="M234,304.34s-3.75-3.71-7.42-5.15" />
      <path class="GUNDAN_RAT_BODY_RAT_BODY_39_cls-6" d="M237,284s-1.34-7.88-4.07-13.13" />
      <path class="GUNDAN_RAT_BODY_RAT_BODY_39_cls-6" d="M216.68,284s.5-10.56,1.61-12.66" />
      <path class="GUNDAN_RAT_BODY_RAT_BODY_39_cls-7" d="M212.34,292.19s-16.31-.58-30.64-7.45-30-14.45-53.8-2.8" />
      <path class="GUNDAN_RAT_BODY_RAT_BODY_39_cls-7" d="M127.14,313.63s18.21-15.61,40.23-18.06,38.1,2.25,45,1.07" />
      <path class="GUNDAN_RAT_BODY_RAT_BODY_39_cls-7" d="M199,293s-14.94-5.32-36.13-5-22.43,6.8-40.81,6.45" />
      <path class="GUNDAN_RAT_BODY_RAT_BODY_39_cls-7" d="M205.3,299.19s-15.8-1.46-36.25,4.11S143.53,318.56,139,320.4" />
      <path class="GUNDAN_RAT_BODY_RAT_BODY_39_cls-7" d="M239,291.26s10.61-1.34,18.59-6.38,25.43-15.75,43.63-7.54" />
      <path class="GUNDAN_RAT_BODY_RAT_BODY_39_cls-7" d="M239.84,296s9.55.53,25.75-3.79,32.39-4.34,40.66,2.67" />
      <path class="GUNDAN_RAT_BODY_RAT_BODY_39_cls-7" d="M239,300.5s22.64-.62,38.71,2.35a60.71,60.71,0,0,1,35.13,20.71" />
      <path class="GUNDAN_RAT_BODY_RAT_BODY_39_cls-7" d="M237.39,303.3s18.76,2.41,33.44,10.33,18.52,10.49,18.52,10.49" />
      <path class="GUNDAN_RAT_BODY_RAT_BODY_39_cls-4" d="M205.77,256.84a26.19,26.19,0,0,0-15.67-10.66c-4.66,4.07-4.07,11.3-3.55,13.1C190.86,261.79,197.73,262.6,205.77,256.84Z" />
      <path class="GUNDAN_RAT_BODY_RAT_BODY_39_cls-6" d="M205.77,256.84a26.19,26.19,0,0,0-15.67-10.66c-4.66,4.07-4.07,11.3-3.55,13.1C190.86,261.79,197.73,262.6,205.77,256.84Z" />
      <path class="GUNDAN_RAT_BODY_RAT_BODY_39_cls-8" d="M194.46,249.82a4.83,4.83,0,1,0,4.95,4.83A4.89,4.89,0,0,0,194.46,249.82Z" />
      <ellipse cx="194.46" cy="254.65" rx="2.39" ry="2.33" />
      <ellipse class="GUNDAN_RAT_BODY_RAT_BODY_39_cls-4" cx="193.15" cy="252.58" rx="1.09" ry="1.06" />
      <ellipse class="GUNDAN_RAT_BODY_RAT_BODY_39_cls-9" cx="194.46" cy="254.65" rx="4.95" ry="4.83" />
      <path class="GUNDAN_RAT_BODY_RAT_BODY_39_cls-4" d="M233.73,256.84s2.89-8.06,13.44-10.39c4.66,4.08,4,10.59,3.49,12.4C246.35,261.35,241.77,262.6,233.73,256.84Z" />
      <path class="GUNDAN_RAT_BODY_RAT_BODY_39_cls-6" d="M233.73,256.84s2.89-8.06,13.44-10.39c4.66,4.08,4,10.59,3.49,12.4C246.35,261.35,241.77,262.6,233.73,256.84Z" />
      <path class="GUNDAN_RAT_BODY_RAT_BODY_39_cls-8" d="M243,249.82a4.83,4.83,0,1,1-4.95,4.83A4.9,4.9,0,0,1,243,249.82Z" />
      <ellipse cx="243.04" cy="254.65" rx="2.39" ry="2.33" />
      <ellipse class="GUNDAN_RAT_BODY_RAT_BODY_39_cls-4" cx="244.35" cy="252.58" rx="1.09" ry="1.06" />
      <ellipse class="GUNDAN_RAT_BODY_RAT_BODY_39_cls-9" cx="243.04" cy="254.65" rx="4.95" ry="4.83" />
      <g class="GUNDAN_RAT_BODY_RAT_BODY_39_cls-10">
        <path d="M262.4,282.8s-5.92,10-17,13.2c-11-4.77-13.17-5.64-18.27-5.9-8.24-.09-24.82,2-33,9.09-7.52.61-31.46-7.09-36.53-23.3s-2.62-35.95-4.11-42.15-7.88-9-7.88-9,7.09,6.56,6.26,18.31-4.93,26.25-2.49,34.08,5.25,17.29,16.08,23.09,23.41,5.57,23.41,5.57l12.9,1.51s9,5.56,19.53,5.63a52.54,52.54,0,0,0,14.33-3.6l3.84-2.05a29.51,29.51,0,0,0,14.77-9.13C260.69,290.71,262.16,284.22,262.4,282.8Z" />
        <path d="M234.41,315.47l.06.38c-3.74,3.79-9.93,7.07-18.67,6.95a40.44,40.44,0,0,1-20.56-6.43s.22,4.18-1.87,12.6-7.76,17.56-18.61,21.82S159,359,154.23,366.9c-4.4,7.24-8.72,37-8.73,38.91,0-.84-5.3-4.08,4.85-10.86-7.74,11.72-1.92,29-1.2,39.82H110.47a148.57,148.57,0,0,1,6.36-31c.17-.54.34-1.09.5-1.64,5-16.93,6.57-34.52,12.13-45.26,1.72-3.33,6.4-6.19,12-8.63,6.93-2.74,15.05-5.33,20.48-7.09l1.16-.37c8.18-3.15,10.1-5.25,11.36-6.73,1.47-1.74,2.82-6.79,3.35-9l0,0v0c.07-.28.16-.61.25-1v0c.35-1.38.83-3.3,1.26-5.34.1-.43.19-.87.27-1.3h0c.09-.44.17-.87.25-1.3v0c0-.19.07-.38.1-.56.09-.52.17-1,.24-1.55.17-1.19.32-2.4.46-3.57.22-1.75.4-3.4.53-4.73,0-.16,0-.31,0-.46s0-.3.05-.44h0l-.31,0h0c-1.48-.26-3-.55-4.5-.87l-1.51-.34c-1.54-.36-3.07-.76-4.58-1.2l-1.43-.45-.33-.12-.16-.06a.17.17,0,0,1-.1,0l-.24-.08-.24-.09h0a19.23,19.23,0,0,1-2.31-1.05c-.37-.2-.74-.41-1.1-.63s-.71-.46-1.06-.7l-.39-.28a.9.9,0,0,1-.2-.14,1.46,1.46,0,0,1-.21-.16l-.15-.1a1.3,1.3,0,0,1-.23-.18L162,298a.16.16,0,0,1-.08-.06l-.71-.58-.67-.61h0l-.06-.06h0l-.55-.54c-.53-.51-1-1.05-1.51-1.61-.24-.28-.48-.56-.71-.85s-.46-.57-.69-.87h0c-.18-.24-.36-.47-.53-.71h0l-.74-1.08a.61.61,0,0,0-.07-.1c-.25-.38-.5-.78-.74-1.17h0c-.15-.25-.3-.5-.44-.76l1.29-.91s21.79,9.93,44,15.25c12.81,3.06,35.3,0,36.48,5A23.05,23.05,0,0,1,234,309.6h0c0,.12,0,.24,0,.37h0A49.24,49.24,0,0,0,234.41,315.47Z" />
        <path d="M274.43,397.61s-5,22.95-2.6,37.16h5.82s-4.87-11.37,3.22-26.29c-5.86,7-7,10.93-7,10.93S274.28,403.28,274.43,397.61Z" />
        <path d="M234.88,317.51c.09-.21.42-.94.82-1.81A11.71,11.71,0,0,1,234.88,317.51Z" />
        <path d="M126.92,183.5s2.84,15.42,6.81,23.68,17.17,22.67,17.17,22.67l.31-2.23-3.42-8.48,3.68,1-1.7-4.17,9.16,3.22-1.26-3.61,8.37,4.56S157.41,209.7,154.7,200,144.3,178.06,138,175.62s-8.3-.18-8.3-.18Z" />
        <path d="M143.44,172.1s6.2,6.33,13,14.89,16.78,19.22,22.63,21.58,7,0,17-2.91c16-4.72,34.55.06,34.55.06s-13.43-6.23-24.35-4.66a220.82,220.82,0,0,0-24.38,5.42s-6.29-3-14.77-11.54S147.81,173.28,143.44,172.1Z" />
        <path d="M273.84,171.13s-1.26,20.93-4.06,28.62A53.16,53.16,0,0,1,262.65,213s5.47-4.32,7.31-9.13a63.55,63.55,0,0,1-10,16.87,73.74,73.74,0,0,1-5.49,5.74l-.76-2.13,2.27-2.39,0-2.06.59-2.43-3.34,1,2.29-4.2-5.4,2,.1-1.7s5.74-4.35,9.32-15.75,7.71-24.93,9.91-27.41A2.82,2.82,0,0,1,273.84,171.13Z" />
        <path d="M218.29,281.74c.05,0,5.42.82,8.54.84a42.76,42.76,0,0,0,8.11-1.22l1.71,3.12s-3.72,1.32-6.15,2.23a30.94,30.94,0,0,1-4.61,1.35,7.31,7.31,0,0,1-2.22-.67,32.54,32.54,0,0,0-3.4-1.82,9.8,9.8,0,0,1-2-.66c0-.13-1.26-.68-1.26-.68Z" />
      </g>
    </g>
  </g>
</svg>