<svg xmlns="http://www.w3.org/2000/svg" viewBox="0 0 432 432">
  <defs>
    <style>.BUNTAI_TURTLE_OUTFIT_TURTLE_OUTFIT_23_cls-1{isolation:isolate;}.BUNTAI_TURTLE_OUTFIT_TURTLE_OUTFIT_23_cls-2{fill:#f4b645;}.BUNTAI_TURTLE_OUTFIT_TURTLE_OUTFIT_23_cls-3{fill:#85ff43;}.BUNTAI_TURTLE_OUTFIT_TURTLE_OUTFIT_23_cls-4{fill:#873233;}.BUNTAI_TURTLE_OUTFIT_TURTLE_OUTFIT_23_cls-5{fill:#fff;}.BUNTAI_TURTLE_OUTFIT_TURTLE_OUTFIT_23_cls-6{fill:#403c56;}.BUNTAI_TURTLE_OUTFIT_TURTLE_OUTFIT_23_cls-7,.BUNTAI_TURTLE_OUTFIT_TURTLE_OUTFIT_23_cls-8{fill:none;stroke:#000;stroke-linecap:round;stroke-linejoin:round;}.BUNTAI_TURTLE_OUTFIT_TURTLE_OUTFIT_23_cls-7{stroke-width:1.91px;}.BUNTAI_TURTLE_OUTFIT_TURTLE_OUTFIT_23_cls-8{stroke-width:2px;}.BUNTAI_TURTLE_OUTFIT_TURTLE_OUTFIT_23_cls-9{opacity:0.43;mix-blend-mode:multiply;}</style>
  </defs>
  <g class="BUNTAI_TURTLE_OUTFIT_TURTLE_OUTFIT_23_cls-1">
    <g id="outfit">
      <path class="BUNTAI_TURTLE_OUTFIT_TURTLE_OUTFIT_23_cls-2" d="M78.74,425.71c3.65,5.44-28,15.88-28,15.88l-7.65-12S75.08,420.27,78.74,425.71Z" />
      <path class="BUNTAI_TURTLE_OUTFIT_TURTLE_OUTFIT_23_cls-2" d="M62.11,450.48l-.14-.06c-.38-.14-6.44-.29-6.81-.44a96.07,96.07,0,0,1-22-12.4c-2.93-2.18-5.78-4.56-8.61-7.14a26.87,26.87,0,0,1,4.17-10.73,31.24,31.24,0,0,1,4.56-5.46c1.77,2.76,3.53,5.54,5.3,8.31q2.24,3.51,4.48,7l7.65,12c1.64,2.57,9,5.14,10.61,7.7Z" />
      <path class="BUNTAI_TURTLE_OUTFIT_TURTLE_OUTFIT_23_cls-3" d="M196.21,420.41q1.64,1.2,3.24,2.43a15.84,15.84,0,0,1-3.57,4.62c-1-.66-2-1.32-3-2A15.71,15.71,0,0,0,196.21,420.41Z" />
      <path class="BUNTAI_TURTLE_OUTFIT_TURTLE_OUTFIT_23_cls-3" d="M227.15,445.77c.78,1.84,1.53,3.67,2.24,5.53-10.87-8.35-22-16.33-33.51-23.84a15.84,15.84,0,0,0,3.57-4.62Q213.82,433.72,227.15,445.77Z" />
      <path class="BUNTAI_TURTLE_OUTFIT_TURTLE_OUTFIT_23_cls-2" d="M185.14,406.57c.56-3,5.62-2.46,5.25.88a2.57,2.57,0,0,1-2.91,2.15A2.8,2.8,0,0,1,185.14,406.57Z" />
      <path class="BUNTAI_TURTLE_OUTFIT_TURTLE_OUTFIT_23_cls-3" d="M196.21,420.41v0a15.84,15.84,0,0,1-3.3,5l-.06.06a456,456,0,0,0-53.2-29.63,369,369,0,0,0-89.57-29.2c-.33-2.92-.68-5.85-1-8.77q-.46-3.92-.91-7.81a416.67,416.67,0,0,1,57,18.87c.42.16.83.33,1.24.51,1.14.47,2.27,1,3.39,1.43q11.19,4.75,22.11,10.18,2.64,1.31,5.26,2.65c12,6.14,23.68,12.84,35,20.09,1.08.68,2.14,1.36,3.19,2.05,1.54,1,3.09,2,4.62,3.05l3.34,2.26.43.3,2,1.36q4,2.75,7.85,5.58c.11.09.22.16.32.25.41.29.81.59,1.2.89Z" />
      <path class="BUNTAI_TURTLE_OUTFIT_TURTLE_OUTFIT_23_cls-2" d="M159.37,388.37a2.79,2.79,0,0,0,2.33,3,2.57,2.57,0,0,0,2.91-2.15C165,385.9,159.92,385.36,159.37,388.37Z" />
      <path class="BUNTAI_TURTLE_OUTFIT_TURTLE_OUTFIT_23_cls-2" d="M140.91,362.36a10.56,10.56,0,0,0-6.49,2,10,10,0,0,0-3,4.67,17.77,17.77,0,0,0,.43,12q2.64,1.31,5.26,2.65a13.45,13.45,0,0,1-3.1-9.08,9.8,9.8,0,0,1,7.52-8.49,11.55,11.55,0,0,1,11.39,4.17,9.59,9.59,0,0,1,.18,11.38c3.24-3.34,3.32-9,.59-13A15.47,15.47,0,0,0,140.91,362.36Z" />
      <path class="BUNTAI_TURTLE_OUTFIT_TURTLE_OUTFIT_23_cls-2" d="M161.86,376.43a20,20,0,0,1,12.84,13.39,16.88,16.88,0,0,1-2.59,14l3.19,2.05A17.32,17.32,0,0,0,178,389.15,20.66,20.66,0,0,0,161.86,376.43Z" />
      <path class="BUNTAI_TURTLE_OUTFIT_TURTLE_OUTFIT_23_cls-2" d="M200.32,408.94a20.63,20.63,0,0,0-16.14-12.71A20,20,0,0,1,197,409.6a16.87,16.87,0,0,1-.81,10.81q1.64,1.2,3.24,2.43A17.4,17.4,0,0,0,200.32,408.94Z" />
      <path class="BUNTAI_TURTLE_OUTFIT_TURTLE_OUTFIT_23_cls-4" d="M234.72,467.63h-37.5l0,0A100.23,100.23,0,0,0,167.63,442c-11.29-6.4-23.73-10.59-35.07-16.91-10.7-6-20.79-14.5-24.84-25.46-.24-.66-.47-1.32-.66-2l-.88.07c-10.2.73-20.93-1.84-30.73-5.37-10.07-3.63-19.92-8.09-30.31-10.62a63.17,63.17,0,0,0-14.45-1.91l-1.17-1.11c.63-1.06,1.66-2.08,2.28-3.15-.07-.3-.14-.62-.21-.93-.86-3.69-1.7-7.38-2.55-11.07q10.55,1.2,21,3.14a369,369,0,0,1,89.57,29.2,456,456,0,0,1,53.2,29.63l3,2,2.83,1.87,1.07.72,1.43,1c.42.28.85.56,1.27.86l3,2,.72.49s0,0,0,0h0q11.81,8.14,23.17,16.89h0A161.87,161.87,0,0,1,234.72,467.63Z" />
      <path class="BUNTAI_TURTLE_OUTFIT_TURTLE_OUTFIT_23_cls-4" d="M226.89,445.18c-.1-.24-.2-.47-.31-.71s-.22-.52-.34-.77c-.26-.59-.53-1.19-.8-1.78q-1.5-3.3-3.17-6.55c-.37-.72-.74-1.44-1.12-2.16-.17-.33-.35-.67-.54-1-.37-.71-.76-1.42-1.16-2.13s-.79-1.41-1.19-2.11q-1.2-2.1-2.48-4.19c-.52-.86-1.05-1.71-1.59-2.56h0c-.18-.29-.37-.58-.56-.87-.35-.56-.71-1.12-1.08-1.67h0s0,0,0,0c-.49-.76-1-1.51-1.52-2.26-.11-.17-.23-.33-.34-.49-.51-.75-1-1.49-1.56-2.23l-1.72-2.37h0c-.44-.59-.88-1.18-1.33-1.76s-1.05-1.37-1.58-2L203.3,406c-.44-.56-.89-1.11-1.34-1.66q-4.07-5-8.53-9.63t-9.22-9c-.73-.68-1.48-1.33-2.22-2l-1.36-1.18c-.45-.4-.9-.78-1.36-1.17s-1.09-.93-1.65-1.39l-.31-.25-.15-.12c-.15-.13-.3-.26-.46-.38-2-1.62-4-3.2-6-4.72q-1.4-1-2.82-2.07l-1.05-.75c-.39-.29-.79-.57-1.19-.85l-1.72-1.17c-.75-.52-1.51-1-2.28-1.54l-1.19-.78c-.57-.38-1.16-.74-1.75-1.11l-1.77-1.1c-.81-.5-1.62-1-2.44-1.47h0c-.8-.48-1.6-1-2.41-1.41l-.18-.11-.33-.18-1.82-1q-4.87-2.71-9.92-5.11c-1.51.53-3,1.1-4.51,1.68h0l-.69.28-.51.21-.38.16c-.25.09-.49.19-.73.3l-1.68.71-2,.89h0l-.62.27q-2.19,1-4.32,2.08l-2.13,1.09-.15.07-.06,0h0l-.07.05-.08,0-.54.29,0,0-.07,0-.14.07,0,0-.65.34,0,0,0,0-.11.06-.62.33a1.27,1.27,0,0,0-.23.12l-.1.06c-.67.37-1.33.75-2,1.13l-.29.16h0l-1.16.68-.05,0h0l-.76.47-1.13.68c-.9.56-1.79,1.13-2.68,1.71l-.38.25-.38.26-.57.37h0l0,0,0,0c1.63.7,3.25,1.4,4.87,2.12l1.56.69,1.36.61.17.08.38.17h0l1.37.63,1,.47c1.19.54,2.37,1.09,3.56,1.65l.07,0,3.86,1.84c1.28.61,2.56,1.24,3.84,1.87l-.12-.34c-.13-.34-.25-.69-.35-1l-.13-.46c-.07-.26-.14-.53-.2-.79s-.16-.72-.22-1.08-.08-.48-.11-.73a1.1,1.1,0,0,1,0-.18v-.13c0-.05,0-.09,0-.13,0-.2,0-.4-.05-.61a3.71,3.71,0,0,1,0-.47v-.3a.08.08,0,0,1,0-.08c0-.12,0-.23,0-.35v0s0,0,0,0,0-.34,0-.5l0-.57a1.15,1.15,0,0,1,0-.19.13.13,0,0,1,0-.06c0-.1,0-.2,0-.29l0-.25.06-.45c0-.12,0-.24.05-.36a1.23,1.23,0,0,1,0-.2l.06-.28,0-.14,0-.13a12.07,12.07,0,0,1,.3-1.22c0-.09,0-.17.07-.26s.08-.27.12-.39.16-.44.25-.66.18-.44.28-.65a5.25,5.25,0,0,1,.31-.63c.07-.14.15-.28.23-.41a4.11,4.11,0,0,1,.24-.39,7.06,7.06,0,0,1,.57-.78,2.51,2.51,0,0,1,.26-.31h0a3.31,3.31,0,0,1,.26-.27l.08-.08.09-.09a4.09,4.09,0,0,1,.44-.39l.27-.2.11-.09a1.5,1.5,0,0,1,.23-.15,6.44,6.44,0,0,1,.63-.36l.18-.09,0,0,.08,0,.28-.13.39-.17a3.1,3.1,0,0,1,.4-.13.2.2,0,0,1,.11,0l.31-.1.12,0a3.89,3.89,0,0,1,.49-.12l.32-.07a4,4,0,0,1,.5-.09l.5-.07.66-.07c.29,0,.58,0,.88,0a13.56,13.56,0,0,1,2,.12l.62.09c.2,0,.4.06.6.11a12.76,12.76,0,0,1,1.48.36l.55.17.31.11.49.19.73.31a2.83,2.83,0,0,1,.36.16,3,3,0,0,1,.36.18c.24.12.47.25.7.38s.45.27.67.41.51.34.75.52.52.4.77.61.42.36.62.56.43.43.63.65a5.2,5.2,0,0,1,.38.44.18.18,0,0,1,.05.07c.11.13.22.26.32.4s.25.34.37.51.31.48.45.73a4.25,4.25,0,0,1,.29.56l.15.31a8.58,8.58,0,0,1,.5,1.27,2.77,2.77,0,0,1,.12.41q.1.34.18.69a5.72,5.72,0,0,1,.11.57v0a.57.57,0,0,1,0,.18q.06.39.09.78c0,.28,0,.53,0,.8a10.33,10.33,0,0,1-.2,2.08,5,5,0,0,1-.12.53.93.93,0,0,1,0,.13,2.1,2.1,0,0,1-.06.24,5.08,5.08,0,0,1-.17.51,5.21,5.21,0,0,1-.2.5c-.07.17-.15.35-.23.52s-.09.17-.14.26a2,2,0,0,1-.14.25c-.08.14-.17.28-.26.42s-.25.36-.38.53a1.46,1.46,0,0,1-.16.19,5.34,5.34,0,0,1-.39.44,7.78,7.78,0,0,0,.65-1c.11-.2.21-.4.3-.61s.1-.22.14-.33a4.76,4.76,0,0,0,.19-.53l0-.12,0,0a6.4,6.4,0,0,0,.25-1.07s0-.09,0-.13a.3.3,0,0,0,0-.1,6.36,6.36,0,0,0,.08-.75,9.52,9.52,0,0,0,0-1.77,10.13,10.13,0,0,0-.18-1.08,7.49,7.49,0,0,0-.24-.9,5.37,5.37,0,0,0-.21-.56,2.26,2.26,0,0,0-.13-.33c-.08-.2-.18-.4-.28-.6a8.9,8.9,0,0,0-.85-1.37c-.13-.17-.27-.34-.41-.5a9.68,9.68,0,0,0-1.3-1.26l-.11-.09-.3-.23a6.42,6.42,0,0,0-.6-.42l-.17-.11-.71-.41a6.67,6.67,0,0,0-.76-.37,4.4,4.4,0,0,0-.5-.21,6.42,6.42,0,0,0-.84-.29,2.77,2.77,0,0,0-.41-.12l-.52-.13h-.06l-.47-.1-.13,0a6.05,6.05,0,0,0-.83-.1l-.15,0h-1.41q-.36,0-.72.06c-.24,0-.47.07-.71.12l-.28.06-.27.07h0l-.45.13a1.63,1.63,0,0,0-.31.11l-.21.07h0l-.15.06-.22.09c-.19.08-.38.16-.57.26h0l-.24.14-.24.14c-.25.15-.5.31-.74.48l-.15.1-.13.11c-.07.06-.15.11-.22.18l-.06.05h0v0l0,0a5.82,5.82,0,0,0-.45.4l-.09.08q-.24.24-.45.48a2.66,2.66,0,0,0-.26.31c-.06.07-.12.13-.17.2l-.22.29c-.12.16-.23.32-.34.49,0,0,0,.06-.06.08s0,0,0,.05-.2.33-.29.5l-.1.18a0,0,0,0,1,0,0c-.05.09-.1.2-.15.3a.08.08,0,0,0,0,0l-.12.28a.09.09,0,0,0,0,.06l-.18.46a.47.47,0,0,1,0,.09c-.07.21-.13.42-.19.63h0c-.06.24-.11.47-.16.71h0c0,.22-.06.44-.08.66a.22.22,0,0,0,0,.08c0,.28,0,.56,0,.85s0,.41,0,.62,0,.27,0,.41v.06l0,.2,0,.18a2.7,2.7,0,0,0,0,.28l0,.2a2.25,2.25,0,0,0,0,.22,1.43,1.43,0,0,0,0,.22c0,.1,0,.21.07.32a4.26,4.26,0,0,1,.11.42.49.49,0,0,0,0,.11c.09.28.19.56.3.85s.17.43.27.64c.16.37.33.73.52,1.09s.41.74.64,1.09l.48.72a.25.25,0,0,0,0,.07h0l.37.51c1,.52,2,1,3,1.58l.24.13,1.69.89.31.16c.91.47,1.81,1,2.71,1.45l.94.51.63.34.84.46c.41.22.82.44,1.22.67l1,.56c.74.4,1.47.81,2.2,1.23,1.17.66,2.34,1.32,3.5,2s2.52,1.46,3.77,2.19h0l4.33,2.59.31.18.17.11.34.21a5.39,5.39,0,0,1,.6.37q3.6,2.19,7.14,4.46h0a1,1,0,0,0,.12-.19l.14-.19a3.11,3.11,0,0,0,.25-.38c.14-.22.27-.44.4-.66s.25-.45.37-.68l.35-.71c.2-.46.39-.93.56-1.41l0-.08,0-.09c.09-.28.18-.57.26-.87l.06-.19h0l.09-.38c.09-.38.17-.76.23-1.14s.08-.48.11-.72a.43.43,0,0,1,0-.11h0c0-.07,0-.14,0-.2v-.06a2.28,2.28,0,0,0,0-.26c0-.33.05-.66.06-1s0-.72,0-1.08c0-.14,0-.27,0-.41s0-.4-.05-.6a1.53,1.53,0,0,0,0-.3l0-.26v0c0-.12,0-.25-.05-.38h0l-.06-.29a.24.24,0,0,0,0-.08c0-.14,0-.28-.08-.41s-.05-.26-.08-.39-.07-.26-.1-.39c-.1-.38-.21-.75-.34-1.12s-.18-.52-.28-.77-.21-.51-.32-.76a17.14,17.14,0,0,0-1.18-2.24c0-.08-.09-.16-.14-.23l-.16-.25L172,384c-.26-.36-.52-.71-.8-1.06-.11-.14-.22-.28-.34-.41l-.1-.11-.31-.35c-.11-.13-.23-.25-.36-.38a1.25,1.25,0,0,0-.16-.17c-.14-.16-.3-.3-.44-.45l-.24-.23a22.83,22.83,0,0,0-2.07-1.7l-.25-.18-.44-.29h0l-.43-.27-.39-.24-.4-.23c-.13-.08-.27-.15-.41-.22a3,3,0,0,0-.4-.21l-.55-.26-.09-.05-.19-.09-.24-.1-.13-.05-.31-.13c-.34-.14-.68-.26-1-.38l.91.15.89.19.9.24a18.57,18.57,0,0,1,2.78,1l.79.38.34.18c.34.17.67.36,1,.56s.44.26.65.4.29.19.43.29l.11.08c.36.24.7.5,1,.77.18.13.36.28.53.43s.49.41.72.63c.43.4.84.8,1.23,1.23.24.27.48.54.71.82s.49.6.71.91l.3.42a15.59,15.59,0,0,1,.84,1.33l.24.43c.16.29.31.58.45.88s.13.3.2.46l.14.3c.06.15.12.29.17.44l.06.17c.08.21.16.43.23.65s.13.42.19.64a2,2,0,0,1,.09.35,8.68,8.68,0,0,1,.23,1l0,.18c0,.08,0,.17,0,.25.05.3.09.59.12.89a10.69,10.69,0,0,1,.1,1.26c0,.51,0,1,0,1.51,0,.3,0,.59-.06.89,0,.11,0,.22,0,.32a.57.57,0,0,0,0,.13v0s0,.06,0,.09v0l-.06.44,0,.16c0,.05,0,.1,0,.14l-.09.46,0,.12a.2.2,0,0,0,0,.07q-.06.32-.15.63c0,.15-.09.3-.13.45a.29.29,0,0,1,0,.09c-.08.29-.17.57-.27.86s-.2.56-.31.84l-.06.15,0,0h0a.36.36,0,0,1,0,.09,3,3,0,0,1-.18.41c-.11.23-.22.46-.34.69a8.52,8.52,0,0,1-.46.84l-.16.26a2.26,2.26,0,0,1-.16.26l-.28.42-.3.41a.1.1,0,0,0,0,0l-.16.23-.07.1-.05.07,0,0,0,0-.1.12,1.06.7,1.28.84,2.7,1.8.16.11.37.25h0l1.68,1.14.69.47.44.3.65.45,2.15,1.49c.82.56,1.64,1.14,2.45,1.72l.08.06,1,.68.86.61.35.25.3.22.72.52.2.14.09.07.11.09a.05.05,0,0,1,0,0l0,0h0a.38.38,0,0,1,.11.08l0,0,.45.32,0,0h0l0,0,.14.11.17.12.16.12.6.44.45.33,0,0,.06.05s0,0,0,0h0l0,0,.3.22.17.12.06.05.65.48c.11-.26.22-.52.31-.79,0-.1.08-.2.11-.29a1.8,1.8,0,0,0,.09-.28l.06-.19a1.39,1.39,0,0,0,.06-.19c0-.17.1-.33.14-.5a5,5,0,0,0,.12-.49c.1-.4.18-.8.25-1.21v0c0-.32.1-.64.13-1a.07.07,0,0,0,0-.05c0-.11,0-.21,0-.31s0,0,0,0l0-.46c0-.31,0-.63,0-.94v-.24c0-.14,0-.29,0-.42v-.25a.13.13,0,0,0,0-.06,2.11,2.11,0,0,1,0-.25v-.08c0-.24,0-.49-.08-.73a4.5,4.5,0,0,0-.08-.51c0-.26-.09-.51-.14-.79s-.06-.29-.1-.44a.74.74,0,0,0,0-.14,1.17,1.17,0,0,1-.05-.2l-.15-.56a15.77,15.77,0,0,0-.83-2.2c-.1-.22-.21-.45-.32-.67s-.11-.22-.17-.33l-.18-.32c-.05-.1-.11-.2-.17-.3a2.61,2.61,0,0,0-.17-.28l-.36-.59-.21-.31a20.9,20.9,0,0,0-1.71-2.17s0,0,0,0l-.42-.44q-.21-.23-.42-.42c-.29-.28-.58-.56-.89-.82a.5.5,0,0,0-.14-.12l-.43-.37a15.92,15.92,0,0,0-1.52-1.11s0,0,0,0,0,0,0,0,0,0-.05,0a4.94,4.94,0,0,0-.42-.27c-.23-.15-.47-.3-.71-.43l-.27-.15c-.32-.18-.64-.34-1-.5s-.68-.32-1-.45l-.55-.21a.31.31,0,0,0-.12-.05c-.18-.08-.35-.14-.52-.2l.47.07.47.09c.3.05.58.11.87.18l.13,0c.43.11.87.23,1.3.37.22.07.43.14.64.23l.63.24.19.07.43.18.77.36c.26.12.51.26.76.39q.75.41,1.47.87l.39.24.18.13c.55.39,1.09.8,1.62,1.24q.44.36.84.75c.22.2.43.41.64.62l.16.16c.26.27.52.55.75.83s.48.58.71.88.4.54.59.81.27.39.39.59.34.54.49.81.31.56.45.84.23.47.34.71.28.67.41,1,.13.37.19.56a2.91,2.91,0,0,1,.12.39c.07.21.13.42.18.64a10.66,10.66,0,0,1,.25,1.12c0,.15.06.31.08.46.06.31.1.63.13.95a1,1,0,0,1,0,.17c0,.11,0,.23,0,.34,0,.34,0,.68,0,1,0,.17,0,.34,0,.51s0,.33,0,.49a.49.49,0,0,1,0,.12c0,.24,0,.49,0,.74s0,.49-.08.73-.07.54-.12.8a7,7,0,0,1-.16.77.27.27,0,0,1,0,.12,2.22,2.22,0,0,1-.09.37s0,0,0,0,0,0,0,.07h0c0,.07-.05.16-.08.24s0,.09,0,.14a.75.75,0,0,1-.05.16c-.06.22-.13.44-.21.65a1.06,1.06,0,0,1-.09.25.06.06,0,0,1,0,0,5.12,5.12,0,0,1-.25.65s0,.06,0,.08a1.47,1.47,0,0,1-.1.22c-.06.15-.12.29-.19.43s-.2.44-.31.66h0l3.4,2.6.67.52h0l.51.4,1,.78h0c.65.51,1.29,1,1.93,1.53l1.16.92.16.13,1.44,1.16,0,0,.11.09.82.67c.88.71,1.76,1.43,2.63,2.16.28.22.56.45.83.69l1.11.92c.34.28.68.56,1,.85l.34.28.34.29,2.47,2.11.58.5.76.66,0,0a.13.13,0,0,0,.07.06l0,0a0,0,0,0,0,0,0l0,0,0,0,0,0h.07l0,0,0,0,.08.06.54.49c.32.27.65.55,1,.85.56.48,1.11,1,1.67,1.47.39.34.79.69,1.18,1.05l1.54,1.37C227.06,445.56,227,445.37,226.89,445.18Zm-65-58.79a2.43,2.43,0,0,1,.38,0l.31.05.31.08a1.48,1.48,0,0,1,.29.12l.39.21.28.23a1.85,1.85,0,0,1,.14.14,3.25,3.25,0,0,1,.23.29.57.57,0,0,1,.08.13.75.75,0,0,1,.1.2s0,.09.05.14l.06.15a1,1,0,0,1,0,.16,2.62,2.62,0,0,1,.06.57c0,.11,0,.23,0,.35a1.43,1.43,0,0,1,0,.22.9.9,0,0,1-.06.22,1.8,1.8,0,0,1-.08.21.75.75,0,0,1-.1.2,1.85,1.85,0,0,1-.25.37,1.29,1.29,0,0,1-.16.17,2.28,2.28,0,0,1-.34.29l-.25.16-.05,0-.08,0-.12.05-.06,0-.13,0s0,0,0,0l-.11,0,0,0-.07,0h-.08l-.28,0h0a2.65,2.65,0,0,1-.56,0l-.24-.05a1.23,1.23,0,0,1-.37-.12H161l0,0a3.62,3.62,0,0,1-.43-.24s0,0,0,0l-.12-.1,0,0-.18-.14a1.29,1.29,0,0,1-.23-.24,2.56,2.56,0,0,1-.2-.26,1.44,1.44,0,0,1-.19-.31,2.72,2.72,0,0,1-.11-.25,0,0,0,0,0,0,0,1.11,1.11,0,0,1-.07-.22c0-.11-.05-.21-.07-.31a2.25,2.25,0,0,1,0-.52.49.49,0,0,1,0-.17,2.7,2.7,0,0,1,.12-.43l.06-.13.08-.16a.71.71,0,0,1,.08-.15,2.34,2.34,0,0,1,.24-.31l.05,0s0,0,0,0a1.64,1.64,0,0,1,.25-.21l.1-.07.09-.06.2-.11h0l.38-.14a2.59,2.59,0,0,1,.4-.09h.08A2.43,2.43,0,0,1,161.9,386.39ZM185.11,407v-.15a.45.45,0,0,1,0-.12v0a.49.49,0,0,0,0-.12,1.65,1.65,0,0,1,.14-.46,3.21,3.21,0,0,1,.24-.45l.14-.18.08-.09.09-.09a.27.27,0,0,1,.08-.07h0l.13-.1a2.5,2.5,0,0,1,.35-.21,2.39,2.39,0,0,1,.37-.15h0l.08,0,.18-.05.32-.05a3.27,3.27,0,0,1,.7,0,.76.76,0,0,1,.21,0,3.58,3.58,0,0,1,.56.16l.14.06a1.87,1.87,0,0,1,.39.22l.25.19.22.22a2.35,2.35,0,0,1,.19.25c.06.09.11.18.16.27a1.09,1.09,0,0,1,.1.25.5.5,0,0,1,0,.13,2,2,0,0,1,.05.28,2.72,2.72,0,0,1,0,.76.68.68,0,0,1,0,.19,1.05,1.05,0,0,1-.06.24,1.17,1.17,0,0,1-.09.24.6.6,0,0,1-.08.16,1.53,1.53,0,0,1-.19.3,2,2,0,0,1-.19.22l-.13.12a2.32,2.32,0,0,1-.25.21.55.55,0,0,1-.14.09l-.14.08-.24.12a1.73,1.73,0,0,1-.32.11l-.12,0-.12,0-.15,0h-.3a1.87,1.87,0,0,1-.35,0,2.11,2.11,0,0,1-.48-.12l-.26-.11a2,2,0,0,1-.32-.18,3.55,3.55,0,0,1-.31-.23,1.07,1.07,0,0,1-.19-.18,1.54,1.54,0,0,1-.17-.19l-.19-.26c-.06-.09-.11-.18-.16-.27a1.07,1.07,0,0,1-.1-.22,1.25,1.25,0,0,1-.09-.25,1.05,1.05,0,0,1-.05-.19,2,2,0,0,1,0-.24,0,0,0,0,1,0,0,.66.66,0,0,0,0-.14Z" />
      <path class="BUNTAI_TURTLE_OUTFIT_TURTLE_OUTFIT_23_cls-5" d="M197.22,467.63H29.75l-.44-8.57c0-.92,0-1.83,0-2.74v0c0-.5,0-1,.06-1.49.07-1.16.18-2.29.33-3.42,0-.32.09-.65.14-1,.09-.61.22-1.23.33-1.84.07-.41.16-.81.25-1.22,0,0,0-.08,0-.11.11-.48.23-1,.34-1.44s.17-.72.27-1.08c0-.13.06-.27.1-.4.25-.93.51-1.86.81-2.78.12-.44.27-.87.4-1.31s.29-.87.42-1.31l.45-1.31a95.3,95.3,0,0,0,22,12.39c.37.16,6.44.3,6.82.46l.13.05-.75-1.18-5.72-.05c-1.63-2.55-3.27-5.1-4.89-7.66,0,0,1.43-.57,3.57-1.52h0c.68-.3,7.12-.64,7.92-1,.26-.12.54-.24.82-.38l.62-.3.51-.24c.37-.18.75-.37,1.14-.54s.63-.32.94-.49c1-.5,2-1,3-1.57l.76-.42,1-.6.83-.5c.23-.13.45-.27.68-.42l1-.62.47-.3a29.71,29.71,0,0,0,2.46-1.86l.34-.33c.12-.1.23-.19.33-.29h0a12.91,12.91,0,0,0,1-1.08c.07-.1.16-.19.22-.29a1.1,1.1,0,0,0,.09-.14l.26-.41c.08-.15.14-.28.2-.42a2.38,2.38,0,0,0,.15-.55,1,1,0,0,0,0-.24s0,0,0,0a1.75,1.75,0,0,0,0-.56.17.17,0,0,0,0-.07l-.06-.21a2.69,2.69,0,0,0-.24-.48,3.62,3.62,0,0,0-2.14-1.33,3.28,3.28,0,0,0-.45-.11l-.14,0a1.59,1.59,0,0,0-.39-.07l-.4-.05a1.09,1.09,0,0,0-.26,0,14.7,14.7,0,0,0-2-.06c-.41,0-.84,0-1.28.05a2.42,2.42,0,0,0-.47,0l-.48,0h-.13c-.12,0-.22,0-.33,0-.33,0-.68.07-1,.13s-.58.06-.87.12-.42.05-.63.09-.36.05-.53.09-.57.1-.86.15h-.09l-.38.08c-.8.16-1.6.32-2.4.5-.19,0-.37.09-.56.12-.62.15-6.93.29-7.53.45h0l-.18,0L55,426l-.32.08a5,5,0,0,0-.52.14l-.65.16-.54.15c-1,.25-1.87.51-2.74.76l-.59.18c-.38.11-.76.21-1.1.32-.14,0-.26.08-.4.12-.66.2-1.28.39-1.82.57l-.34.11-1.21.39-.62.21-1.07.37-4.47-7c.08-.21.14-.43.22-.64.31-.93.61-1.87.92-2.8.76-2.24,1.56-4.49,2.27-6.72-3.28-2.76-6.31-5.21-9.6-8,.64-.91,1.37-1.79,2.08-2.65s1.43-1.75,2.08-2.66c-1.19-3.79,5.54-8.52,2.56-11.35s-5.63-5.3-8.46-8h0a64.54,64.54,0,0,1,14.45,1.92c10.38,2.53,20.23,7,30.3,10.62,9.09,3.28,19,5.72,28.49,5.48h.56c.27,0,.54,0,.79,0l.44,0a3.42,3.42,0,0,1,.44,0c.3,0,.59,0,.88-.06.1.34.21.67.32,1s.24.66.35,1c0,.06,0,.1.06.15q.19.53.42,1.05a1.12,1.12,0,0,0,.1.22q.28.72.63,1.41a2.81,2.81,0,0,0,.19.39l0,.05a1.79,1.79,0,0,0,.12.24c.16.32.33.64.51,1s.36.64.55,1l0,.08.2.32c0,.05.06.09.09.15l.28.44c.09.13.17.28.26.41l.15.23c.15.24.32.47.49.7a2,2,0,0,0,.26.41,1.56,1.56,0,0,0,.16.2,2,2,0,0,1,.12.19l.08.1.68.9a2.31,2.31,0,0,0,.14.19l.09.1c.47.6,1,1.2,1.48,1.77l.29.33,0,0,.07.08h0l0,0c.15.17.28.33.43.49l.26.28c.6.63,1.21,1.25,1.84,1.86.46.45.94.89,1.42,1.32l.11.1q.67.62,1.38,1.2c.15.13.31.27.48.4.37.31.75.62,1.14.92l.85.67,1.21.9.34.24.51.36,0,0,.4.28a2.63,2.63,0,0,0,.41.27,1.59,1.59,0,0,0,.21.15l.1.08a1.94,1.94,0,0,0,.24.15l.17.11.83.56.71.45,1.05.66.65.4.51.3c.66.4,1.32.77,2,1.15,11.33,6.31,23.78,10.51,35.07,16.91.38.21.76.44,1.13.66l.28.16.36.23a.94.94,0,0,1,.24.13l.46.28c.33.18.64.38,1,.57l.52.34c.51.31,1,.63,1.51,1l.87.58.09.07c.26.16.53.34.78.53l0,0c.19.12.38.26.58.4l.41.28a.72.72,0,0,1,.15.11c.6.42,1.2.85,1.8,1.3.33.24.64.48,1,.74s.64.47.94.72l.58.46a2.43,2.43,0,0,1,.25.2,1,1,0,0,1,.2.15l.05.05.06.05c.19.15.38.3.56.46.4.31.8.65,1.19,1a1.24,1.24,0,0,1,.22.19l.49.41a.32.32,0,0,0,.09.08s0,0,0,0c.2.16.38.31.56.48s.36.32.53.49.32.26.48.41.19.16.29.26l.18.16,1.2,1.11a6.6,6.6,0,0,1,.54.51c.07.08.15.14.23.22s.32.3.47.46a.79.79,0,0,1,.19.17l1.08,1.09a.81.81,0,0,0,.1.09l.26.26c.24.24.48.48.7.73s.36.36.53.55.53.56.78.84a5,5,0,0,1,.38.42,6,6,0,0,1,.49.52c.14.14.26.3.39.44s.27.3.4.46h0l.06.05s0,0,0,0,0,0,0,0,0,0,0,0a1.49,1.49,0,0,0,.12.14,4.36,4.36,0,0,1,.35.4l.4.45c.14.16.26.31.38.47a1,1,0,0,1,.18.22,9.72,9.72,0,0,1,.73.88,1.16,1.16,0,0,1,.2.24l.12.13a1.34,1.34,0,0,1,.11.14c.25.31.5.62.73.93a1.06,1.06,0,0,1,.19.24,3.68,3.68,0,0,1,.3.39l0,0s0,0,0,0Z" />
      <path class="BUNTAI_TURTLE_OUTFIT_TURTLE_OUTFIT_23_cls-5" d="M346,427.64c.17,10.88-2.14,21.66-8.67,31h0a45.57,45.57,0,0,1-6.3,7.26,114.06,114.06,0,0,1-20.47,1.74H249.74l-1.29-1.06c-.85-.71-1.7-1.42-2.56-2.12l.28-.3q-6.24-6.45-12.8-12.62-3.08-2.91-6.22-5.76c-.56-1.29-1.12-2.57-1.71-3.85a170.68,170.68,0,0,0-9.65-18.15q-3.15-5.14-6.69-10.1-3.39-4.79-7.13-9.33-4.08-5-8.53-9.63a178.86,178.86,0,0,0-14.17-13.34q-4.19-3.57-8.62-6.86h0s41.5-14.34,95.13-11.14A184.14,184.14,0,0,1,289,365.55c4.6.72,8.88,1.59,12.83,2.52,16.61,3.93,27.22,9,29.87,10.4l.3.14.34.19h0c1.14,2.33,2.32,4.86,3.48,7.57h0c.06.14.13.28.18.41a.09.09,0,0,0,0,.06c.31.74.63,1.5.95,2.28.06.14.13.29.19.45,1.63,4,3.21,8.36,4.54,12.89.46,1.52.88,3.06,1.28,4.63A90.4,90.4,0,0,1,346,427.64Z" />
      <path class="BUNTAI_TURTLE_OUTFIT_TURTLE_OUTFIT_23_cls-2" d="M342,364.45s0,.05,0,.08c-.2,1.48-.42,2.94-.67,4.42h0a.43.43,0,0,1,0,.11l0,.11a156.56,156.56,0,0,1-3.56,17.88c-.23.77-.46,1.46-.69,2.09l-.21-.52q-.21-.54-.48-1.14l-.27-.62a.14.14,0,0,1,0-.06c-.05-.1-.09-.21-.14-.32l0-.09h0c-1-2.26-2.39-5-3.84-7.76h0c-1.37-2.7-2.85-5.42-4.14-7.81l0,0c-1.95-3.59-3.53-6.36-3.86-7a.25.25,0,0,0,0-.07l0-.07-.31-.14c.31-3.55.55-7.11.69-10.67q.14-3.13.18-6.28l.38.29c2.38,1.87,4.67,3.84,6.88,5.94.43.39.85.8,1.27,1.22s.75.75,1.11,1.13q2.79,2.85,5.28,5.94C340.29,362.18,341.17,363.31,342,364.45Z" />
      <path class="BUNTAI_TURTLE_OUTFIT_TURTLE_OUTFIT_23_cls-6" d="M301.86,368.07h0c-1-.24-2-.47-3-.69s-2.08-.45-3.15-.66c-2.14-.42-4.36-.82-6.66-1.18l0-.41q-6.7-10.2-12.9-20.68c-6.22-10.49-8.63-17.8-14.06-28.65h0c-1.24-2.46-2.45-4.91-3.63-7.39q2.52-.45,5-1c2.15,1.75,4.47,3.5,6.91,5.25h0c6.72,17.55,13.63,32.21,25.33,48.28l6.1,7.13Z" />
      <path class="BUNTAI_TURTLE_OUTFIT_TURTLE_OUTFIT_23_cls-6" d="M183.5,305c-.88,2.48-1.79,4.93-2.73,7.4h0q-6.12,16.26-13.53,32-4.91,10.49-10.35,20.68-3.55-2.19-7.2-4.2a207.75,207.75,0,0,0,24-58C176.92,303.76,180.2,304.44,183.5,305Z" />
      <path class="BUNTAI_TURTLE_OUTFIT_TURTLE_OUTFIT_23_cls-4" d="M262.12,315.81a31.29,31.29,0,0,1-6.92,11c8.13,7,12.84,10.66,21,17.69C270,334,267.54,326.66,262.12,315.81Z" />
      <path class="BUNTAI_TURTLE_OUTFIT_TURTLE_OUTFIT_23_cls-4" d="M167.24,344.46q10.9-10.54,21.81-21.08a37.11,37.11,0,0,1-8.28-10.95Q174.65,328.69,167.24,344.46Z" />
      <path class="BUNTAI_TURTLE_OUTFIT_TURTLE_OUTFIT_23_cls-2" d="M122.17,363.51l-.15.06h0l-.06,0h0l-.08,0a.18.18,0,0,0-.07.05l-.54.29-.09.05-.14.07,0,0c-.49.25-1,.52-1.46.78a1.27,1.27,0,0,0-.23.12l-.1.06c-.67.37-1.33.75-2,1.13l-.29.16h0l-1.16.68-.05,0h0l-.76.47-1.13.68c-.9.56-1.79,1.13-2.68,1.71l-.38.25-.38.26-.57.37h0v0l0,0h0l-2-.85-1.39-.59-.62-.25-.62-.25h0c-.2-.69-.4-1.39-.59-2.08s-.38-1.4-.56-2.1c-.14-.51-.27-1-.4-1.55-.23-.88-.44-1.76-.65-2.64-.17-.71-.33-1.41-.48-2.11-.11-.49-.22-1-.32-1.47-.26-1.2-.5-2.41-.72-3.62-.14-.74-.28-1.49-.41-2.24s-.21-1.24-.31-1.85c-.05-.26-.09-.52-.13-.78-.09-.56-.17-1.12-.25-1.68s-.14-.94-.2-1.41-.15-1-.21-1.53-.15-1.16-.22-1.75l-.18-1.64c-.19-1.8-.36-3.61-.49-5.41,2.4-1.44,4.84-2.85,7.28-4.24l6.56-3.74c1.47-.84,3-1.68,4.41-2.53q0,.93.09,1.86c0,.28,0,.56,0,.82q.06,1.26.15,2.52a2.28,2.28,0,0,0,0,.27c0,.76.1,1.51.16,2.26s.1,1.35.16,2c0,.15,0,.3,0,.43.09,1,.18,2,.28,3.05,0,0,0,.06,0,.08.09.89.18,1.77.29,2.65,0,.31.06.62.1.93.11.95.23,1.92.35,2.87.08.62.16,1.25.25,1.88a1.88,1.88,0,0,0,0,.33c.15,1.14.31,2.28.49,3.41l.09.63c.1.59.19,1.18.29,1.77Q121,358,122.17,363.51Z" />
      <path class="BUNTAI_TURTLE_OUTFIT_TURTLE_OUTFIT_23_cls-4" d="M332.37,378.8l-.22-.12-.13-.06h0l0,0,0,0,0,0-.05,0,0,0-.07,0h0l-.26-.13-.06,0-.36-.18-.23-.11-.22-.11-.23-.11-.13-.06a.61.61,0,0,0-.14-.07l-.28-.13-.27-.13-.61-.28-.11-.05c-.18-.08-.36-.18-.55-.25l-.63-.28-.33-.14-.31-.14-.75-.32h0l-.27-.11-.49-.2-.79-.34-.62-.24-.67-.27-.45-.18-.77-.3-.62-.23-.54-.2-.12-.05-.86-.31-.15-.06-.08,0h0l0,0h0l-1.19-.42-.61-.22-.66-.22-.31-.11-1-.34-.81-.26-.56-.18s-.05,0-.07,0l-.78-.25-1.72-.53-.12,0-.2-.06-.52-.15-.61-.18-1.16-.34-.8-.23h0l-.54-.15-1.06-.29-.32-.08-.29-.09-1.05-.27-.42-.11-3-.75-6.11-7.13c-11.7-16.07-18.61-30.73-25.33-48.28,3.23,2.31,6.69,4.61,10.32,6.88,11.52,7.21,23.85,13.39,35.15,20.87q2.16,1.43,4.28,2.94l.81.58c1.18.85,2.34,1.72,3.48,2.63q0,3.15-.18,6.28c-.14,3.56-.38,7.12-.69,10.67l.31.14,0,.07a.25.25,0,0,1,0,.07c.12.17.35.52.67,1l.3.48c.29.46.63,1,1,1.66.16.25.31.52.47.79.3.5.61,1,.93,1.61.2.36.42.73.64,1.12.33.57.66,1.18,1,1.81l.52.95C330.42,374.92,331.38,376.78,332.37,378.8Z" />
      <path class="BUNTAI_TURTLE_OUTFIT_TURTLE_OUTFIT_23_cls-4" d="M173.67,303a207.42,207.42,0,0,1-24,58c-1.16-.65-2.33-1.28-3.51-1.9l-.81-.42q-2.77-1.44-5.6-2.79c-1.51.53-3,1.1-4.51,1.68h0l-.69.27-.51.21-.38.16c-.25.09-.49.19-.73.3l-1.25.52-.43.19-2,.89h0l-.62.27q-2.19,1-4.32,2.08l-2.13,1.09q-1.19-5.56-2.09-11.15c-.1-.59-.19-1.18-.29-1.77l-.09-.63c-.18-1.13-.34-2.27-.49-3.41a1.88,1.88,0,0,1,0-.33c-.09-.63-.17-1.26-.25-1.88-.12-.95-.23-1.92-.35-2.87,0-.31-.08-.62-.1-.93-.11-.88-.2-1.76-.29-2.65,0,0,0-.05,0-.08-.1-1-.19-2-.28-3.05,0-.13,0-.28,0-.43-.06-.67-.11-1.34-.16-2s-.11-1.5-.16-2.26a2.28,2.28,0,0,1,0-.27q-.09-1.26-.15-2.52c0-.26,0-.54,0-.82q-.06-.93-.09-1.86c2.83-1.64,5.64-3.31,8.4-5,2.36-1.47,4.6-2.84,6.72-4.14l.82-.51c.7-.42,1.39-.84,2.06-1.26,8.53-5.28,15.1-9.75,20.32-16.66.51.23,1,.46,1.55.67A111.5,111.5,0,0,0,173.67,303Z" />
      <path class="BUNTAI_TURTLE_OUTFIT_TURTLE_OUTFIT_23_cls-6" d="M246.17,464.15l-.28.3q-8.13-6.72-16.5-13.14h0q-11.37-8.74-23.17-16.89h0s0,0,0,0l-.72-.49c-1-.69-2-1.36-3-2-.42-.3-.85-.58-1.27-.86s-1-.65-1.43-1l-1.07-.72-2.83-1.87-3-2a456,456,0,0,0-53.2-29.63,369,369,0,0,0-89.57-29.2c-.33-2.92-.68-5.85-1-8.77q-.46-3.92-.91-7.81a416.67,416.67,0,0,1,57,18.87c.42.16.83.33,1.24.51,1.14.47,2.27,1,3.39,1.43q11.19,4.75,22.11,10.18,2.64,1.31,5.26,2.65c12,6.14,23.68,12.84,35,20.09,1.08.68,2.14,1.36,3.19,2.05,1.54,1,3.09,2,4.62,3.05l3.34,2.26.43.3,2,1.36q4,2.75,7.85,5.58c.11.09.22.16.32.25.41.29.81.59,1.2.89l1.19.86c1.09.8,2.17,1.61,3.24,2.42,1.36,1,2.72,2.08,4.08,3.14,1,.78,2,1.58,3,2.38,2.18,1.73,4.34,3.47,6.48,5.24l2.07,1.72c1,.81,1.94,1.63,2.92,2.47s1.93,1.65,2.9,2.48c0,0,0,0,.05.05l0,.05q3.08,2.67,6.11,5.41t6.22,5.76Q239.93,457.7,246.17,464.15Z" />
      <path class="BUNTAI_TURTLE_OUTFIT_TURTLE_OUTFIT_23_cls-7" d="M246.17,464.15q-6.24-6.45-12.8-12.62-3.08-2.91-6.22-5.76-13.31-12-27.7-22.93-1.6-1.23-3.24-2.43Q186,412.82,175.3,405.86l-3.19-2.05q-17-10.86-35-20.09-2.62-1.35-5.26-2.65-10.91-5.42-22.11-10.18l-3.38-1.43c-.41-.18-.83-.34-1.25-.51a416.67,416.67,0,0,0-57-18.87" />
      <path class="BUNTAI_TURTLE_OUTFIT_TURTLE_OUTFIT_23_cls-7" d="M29,363.52q10.55,1.2,21,3.14a369,369,0,0,1,89.57,29.2,456,456,0,0,1,53.2,29.63l3,2,2.83,1.87,1.07.72c.48.31.95.62,1.43,1s.85.56,1.27.86c1,.66,2,1.33,3,2l.72.49s0,0,0,0h0q11.81,8.14,23.17,16.89" />
      <path class="BUNTAI_TURTLE_OUTFIT_TURTLE_OUTFIT_23_cls-7" d="M48.14,350.08q.45,3.9.91,7.81c.34,2.92.69,5.85,1,8.77" />
      <path class="BUNTAI_TURTLE_OUTFIT_TURTLE_OUTFIT_23_cls-7" d="M29,363.53c.86,3.68,1.7,7.36,2.56,11.06.06.31.14.62.21.93-.62,1.07-1.65,2.09-2.27,3.15.39.37.77.75,1.16,1.1,2.83,2.69,5.61,5.28,8.46,8s-3.75,7.56-2.56,11.35c-.64.91-1.37,1.78-2.08,2.66s-1.44,1.74-2.08,2.65c3.29,2.76,6.32,5.21,9.6,8-.71,2.23-1.51,4.48-2.27,6.72-.31.93-.61,1.87-.92,2.8-.08.21-.14.43-.22.64" />
      <path class="BUNTAI_TURTLE_OUTFIT_TURTLE_OUTFIT_23_cls-7" d="M62.11,450.48l-.14-.06c-.38-.14-6.44-.29-6.81-.44a96.07,96.07,0,0,1-22-12.4c-2.93-2.18-5.78-4.56-8.61-7.14a26.87,26.87,0,0,1,4.17-10.73,31.24,31.24,0,0,1,4.56-5.46c1.77,2.76,3.53,5.54,5.3,8.31q2.24,3.51,4.48,7l7.65,12c1.64,2.57,9,5.14,10.61,7.7Z" />
      <path class="BUNTAI_TURTLE_OUTFIT_TURTLE_OUTFIT_23_cls-7" d="M105.45,439.4c-10.12-14.21-21-28.27-35.8-37.9a117,117,0,0,0,16,21.58" />
      <path class="BUNTAI_TURTLE_OUTFIT_TURTLE_OUTFIT_23_cls-7" d="M51.28,420.43c-.32-6.52-4.9-12.92-11.26-15.68" />
      <path class="BUNTAI_TURTLE_OUTFIT_TURTLE_OUTFIT_23_cls-7" d="M30.69,379.78a63.33,63.33,0,0,1,14.46,1.91c10.38,2.53,20.23,7,30.3,10.62s21.15,6.25,31.61,5.31c3.5,11.92,14.16,21.13,25.5,27.45s23.78,10.51,35.07,16.91a99.64,99.64,0,0,1,29.59,25.65" />
      <path class="BUNTAI_TURTLE_OUTFIT_TURTLE_OUTFIT_23_cls-7" d="M139.77,355.83a134.42,134.42,0,0,0-17.6,7.68,1.14,1.14,0,0,0-.29.15,126.67,126.67,0,0,0-12.15,7.23" />
      <path class="BUNTAI_TURTLE_OUTFIT_TURTLE_OUTFIT_23_cls-7" d="M139.77,355.83q5.05,2.4,9.92,5.11,3.65,2,7.2,4.2c4.73,2.91,9.33,6,13.76,9.37q4.42,3.28,8.62,6.86a178.86,178.86,0,0,1,14.17,13.34q4.45,4.67,8.53,9.63,3.74,4.56,7.14,9.33,3.52,4.95,6.68,10.1a171.65,171.65,0,0,1,9.65,18.15c.59,1.28,1.15,2.56,1.71,3.85" />
      <path class="BUNTAI_TURTLE_OUTFIT_TURTLE_OUTFIT_23_cls-7" d="M122.17,363.51q-1.19-5.56-2.09-11.15c-.1-.59-.19-1.18-.29-1.77l-.09-.63c-.18-1.13-.34-2.27-.49-3.41a1.88,1.88,0,0,1,0-.33c-.09-.63-.17-1.26-.25-1.88-.12-.95-.24-1.92-.35-2.87,0-.31-.08-.62-.1-.93-.11-.88-.2-1.76-.29-2.65,0,0,0-.05,0-.08-.1-1-.19-2-.28-3.05,0-.13,0-.28,0-.43-.06-.67-.11-1.34-.16-2s-.11-1.5-.16-2.26a2.28,2.28,0,0,1,0-.27q-.09-1.26-.15-2.52c0-.26,0-.54,0-.82q-.06-.93-.09-1.86" />
      <path class="BUNTAI_TURTLE_OUTFIT_TURTLE_OUTFIT_23_cls-7" d="M99,335.09c.13,1.8.3,3.61.49,5.41l.18,1.64c.07.59.14,1.17.22,1.75s.13,1,.21,1.53.12.94.2,1.41.16,1.12.25,1.68c0,.26.08.52.13.78.1.61.2,1.23.31,1.85s.27,1.5.41,2.24c.22,1.21.46,2.42.72,3.62.1.49.21,1,.32,1.47.15.7.31,1.4.48,2.11.21.88.42,1.76.65,2.64.12.52.26,1,.4,1.55.18.7.36,1.4.56,2.1s.39,1.39.59,2.08" />
      <path class="BUNTAI_TURTLE_OUTFIT_TURTLE_OUTFIT_23_cls-7" d="M183.5,305l-1.14-.21-1.13-.21-.38-.07-.24,0-.41-.08-.32-.07h-.09l-.13,0-1.09-.23c-.84-.17-1.68-.36-2.53-.55l-.38-.09c-.66-.15-1.33-.3-2-.47a111.5,111.5,0,0,1-16.58-5.32c-.52-.21-1-.44-1.55-.67" />
      <path class="BUNTAI_TURTLE_OUTFIT_TURTLE_OUTFIT_23_cls-7" d="M180.77,312.43q-6.12,16.26-13.53,32-4.91,10.49-10.35,20.68" />
      <path class="BUNTAI_TURTLE_OUTFIT_TURTLE_OUTFIT_23_cls-7" d="M183.5,305c-.88,2.48-1.79,4.93-2.73,7.4" />
      <path class="BUNTAI_TURTLE_OUTFIT_TURTLE_OUTFIT_23_cls-7" d="M149.69,360.94a207.75,207.75,0,0,0,24-58" />
      <path class="BUNTAI_TURTLE_OUTFIT_TURTLE_OUTFIT_23_cls-7" d="M180.77,312.42h0a37.11,37.11,0,0,0,8.28,10.95q-10.92,10.53-21.81,21.08" />
      <path class="BUNTAI_TURTLE_OUTFIT_TURTLE_OUTFIT_23_cls-7" d="M106.35,369.46a104.14,104.14,0,0,1,1.07-23.85,183.15,183.15,0,0,0,14.46,18.05" />
      <path class="BUNTAI_TURTLE_OUTFIT_TURTLE_OUTFIT_23_cls-7" d="M143.77,322a107.94,107.94,0,0,1-10.61-7.06" />
      <path class="BUNTAI_TURTLE_OUTFIT_TURTLE_OUTFIT_23_cls-7" d="M323.59,363.51c.31-3.55.55-7.11.69-10.67q.14-3.13.18-6.28" />
      <path class="BUNTAI_TURTLE_OUTFIT_TURTLE_OUTFIT_23_cls-7" d="M337.21,389.59l.51-2.54,3.56-17.88,0-.11,0-.11c.25-1.48.47-2.94.67-4.42,0,0,0,0,0-.08" />
      <path class="BUNTAI_TURTLE_OUTFIT_TURTLE_OUTFIT_23_cls-7" d="M263.5,307.41q-2.5.55-5,1" />
      <path class="BUNTAI_TURTLE_OUTFIT_TURTLE_OUTFIT_23_cls-7" d="M262.12,315.8c-1.25-2.46-2.46-4.91-3.64-7.39" />
      <path class="BUNTAI_TURTLE_OUTFIT_TURTLE_OUTFIT_23_cls-7" d="M289.08,365.14q-6.72-10.2-12.91-20.68c-6.22-10.49-8.63-17.8-14.05-28.65" />
      <path class="BUNTAI_TURTLE_OUTFIT_TURTLE_OUTFIT_23_cls-7" d="M301.86,368.08h0l-6.1-7.13c-11.7-16.07-18.61-30.73-25.33-48.28h0" />
      <path class="BUNTAI_TURTLE_OUTFIT_TURTLE_OUTFIT_23_cls-7" d="M276.17,344.46c-8.13-7-12.84-10.67-21-17.69a31.29,31.29,0,0,0,6.92-11h0" />
      <path class="BUNTAI_TURTLE_OUTFIT_TURTLE_OUTFIT_23_cls-7" d="M337.3,458.63c6.53-9.33,8.84-20.11,8.67-31A90.4,90.4,0,0,0,343,407.11c-.4-1.57-.82-3.11-1.28-4.63-1.33-4.53-2.91-8.87-4.54-12.89-.06-.16-.13-.31-.19-.45-.32-.78-.64-1.54-.95-2.28a.09.09,0,0,1,0-.06c-.05-.13-.12-.27-.18-.41h0c-1.16-2.71-2.34-5.24-3.48-7.57" />
      <path class="BUNTAI_TURTLE_OUTFIT_TURTLE_OUTFIT_23_cls-7" d="M339.38,361.08c.36,2.62.62,5.24.74,7.86,0,.17,0,.34,0,.52" />
      <path class="BUNTAI_TURTLE_OUTFIT_TURTLE_OUTFIT_23_cls-7" d="M331.72,352.79q-3.68,5.59-7.82,10.86l0,.07a.25.25,0,0,1,0,.07c.12.17.35.52.67,1l.3.48c.29.46.63,1,1,1.66l.47.79c.3.5.61,1,.93,1.61l.64,1.12c.33.57.66,1.18,1,1.81l.52.95c.9,1.67,1.86,3.53,2.85,5.55" />
      <path class="BUNTAI_TURTLE_OUTFIT_TURTLE_OUTFIT_23_cls-7" d="M125,467.63a55.81,55.81,0,0,1-12.63-13.38,55,55,0,0,1-6.91-14.84h0a64,64,0,0,1-2-9,83.35,83.35,0,0,1-.38-19.44" />
      <path class="BUNTAI_TURTLE_OUTFIT_TURTLE_OUTFIT_23_cls-7" d="M131.84,381.07a17.77,17.77,0,0,1-.43-12,10,10,0,0,1,3-4.67,10.56,10.56,0,0,1,6.49-2,15.47,15.47,0,0,1,12.77,6.34c2.73,4,2.65,9.66-.59,13a9.59,9.59,0,0,0-.18-11.38,11.55,11.55,0,0,0-11.39-4.17,9.8,9.8,0,0,0-7.52,8.49,13.45,13.45,0,0,0,3.1,9.08" />
      <path class="BUNTAI_TURTLE_OUTFIT_TURTLE_OUTFIT_23_cls-7" d="M172.11,403.81a16.88,16.88,0,0,0,2.59-14,20,20,0,0,0-12.84-13.39A20.66,20.66,0,0,1,178,389.15a17.32,17.32,0,0,1-2.71,16.71" />
      <path class="BUNTAI_TURTLE_OUTFIT_TURTLE_OUTFIT_23_cls-7" d="M164.61,389.24a2.57,2.57,0,0,1-2.91,2.15,2.79,2.79,0,0,1-2.33-3C159.92,385.36,165,385.9,164.61,389.24Z" />
      <path class="BUNTAI_TURTLE_OUTFIT_TURTLE_OUTFIT_23_cls-7" d="M196.21,420.41A16.87,16.87,0,0,0,197,409.6a20,20,0,0,0-12.84-13.37,20.63,20.63,0,0,1,16.14,12.71,17.4,17.4,0,0,1-.87,13.9" />
      <path class="BUNTAI_TURTLE_OUTFIT_TURTLE_OUTFIT_23_cls-7" d="M190.39,407.45a2.57,2.57,0,0,1-2.91,2.15,2.8,2.8,0,0,1-2.34-3C185.7,403.57,190.76,404.11,190.39,407.45Z" />
      <path class="BUNTAI_TURTLE_OUTFIT_TURTLE_OUTFIT_23_cls-7" d="M170.66,374.5s41.5-14.34,95.13-11.14A184.14,184.14,0,0,1,289,365.55c4.6.72,8.88,1.59,12.83,2.53,19,4.48,30.1,10.5,30.51,10.72h0" />
      <path class="BUNTAI_TURTLE_OUTFIT_TURTLE_OUTFIT_23_cls-7" d="M179.28,381.36s99.36-20.14,156.59,5h0" />
      <path class="BUNTAI_TURTLE_OUTFIT_TURTLE_OUTFIT_23_cls-7" d="M298.89,391.15c5.93.94,11.93,2.12,17.95,3.58a200.35,200.35,0,0,1,24.93,7.75" />
      <path class="BUNTAI_TURTLE_OUTFIT_TURTLE_OUTFIT_23_cls-7" d="M193.44,394.71s49.53-12.42,105.44-3.56" />
      <path class="BUNTAI_TURTLE_OUTFIT_TURTLE_OUTFIT_23_cls-7" d="M209.11,413.67s63-13.86,89.77-22.52h0" />
      <path class="BUNTAI_TURTLE_OUTFIT_TURTLE_OUTFIT_23_cls-7" d="M215.79,423.77s34,4.76,70.11.73c20.22-2.26,41.13-7.26,57.14-17.38" />
      <path class="BUNTAI_TURTLE_OUTFIT_TURTLE_OUTFIT_23_cls-7" d="M316.84,394.73S301,414.07,285.9,424.5" />
      <path class="BUNTAI_TURTLE_OUTFIT_TURTLE_OUTFIT_23_cls-7" d="M225.44,441.92s39.25,9.55,70.83,5.42c1.61-.19,3.2-.44,4.76-.72,30.84-5.58,43.86-17.91,44.94-19l.07-.08" />
      <path class="BUNTAI_TURTLE_OUTFIT_TURTLE_OUTFIT_23_cls-7" d="M97.23,411s1.13,14.35,6.24,19.44" />
      <path class="BUNTAI_TURTLE_OUTFIT_TURTLE_OUTFIT_23_cls-7" d="M43.1,429.58s32-9.31,35.64-3.87-28,15.88-28,15.88" />
      <path class="BUNTAI_TURTLE_OUTFIT_TURTLE_OUTFIT_23_cls-8" d="M342,364.45c-.84-1.14-1.72-2.27-2.63-3.37A83.7,83.7,0,0,0,333,354c-.42-.42-.84-.83-1.27-1.22-2.21-2.1-4.5-4.07-6.88-5.94l-.38-.29c-1.14-.91-2.3-1.78-3.48-2.63l-.81-.58q-2.12-1.52-4.28-2.94c-11.3-7.48-23.63-13.66-35.15-20.87-3.63-2.27-7.09-4.57-10.32-6.88h0c-2.44-1.75-4.76-3.5-6.91-5.25" />
      <path class="BUNTAI_TURTLE_OUTFIT_TURTLE_OUTFIT_23_cls-8" d="M155.54,297c-5.63,7.46-12.84,12.07-22.38,17.92-2.37,1.46-4.88,3-7.54,4.65s-5.57,3.4-8.4,5c-3.64,2.11-7.31,4.18-11,6.27-2.44,1.39-4.88,2.8-7.28,4.24" />
      <g class="BUNTAI_TURTLE_OUTFIT_TURTLE_OUTFIT_23_cls-9">
        <path d="M197.22,467.63H29.75l-.44-8.57c0-.92,0-1.83,0-2.74,5.59,1.9,20,3.44,33.38,3.15a143.5,143.5,0,0,1-27-8.17l13.08-.52h0l12.78-.29H62l0-.05-.62-1.13-5.72-.05-3.93-7.17a20.56,20.56,0,0,0,2.61-2h0c1.89-1.72,9.82-4.35,9.89-7.27.1-5.09-2.62-6.63-2.62-6.63l-6.22-.23h0l-15.61-6.82c.76-2.24,1.56-4.49,2.27-6.72-3.28-2.76-6.31-5.21-9.6-8,0,0,12.69,3,15.79,7.2l.07.1c-1.68-4.62.21-14.89.21-14.89,13,11.21,12.32,11.25,26,20.88,8.6,6.07,10.14,7.47,10.4,7.74L72.08,408,72,405.36v0l-.1-2.33,0,0s.06.05.11.07a.4.4,0,0,1,.13.11,2.33,2.33,0,0,1,.28.19l.33.24c.78.59,2,1.52,3.56,2.69l.21.16.26.2,0,0a0,0,0,0,0,0,0l.1.07A129.11,129.11,0,0,1,91,419.23a85.33,85.33,0,0,1,9.89,12.85c-1.16-2-8.33-14.84-8.77-20.31,3.82,7.82,6.66,11.85,8.36,13.84v0a9.35,9.35,0,0,0,1.88,1.83l.81.84h0c4,4.1,21.8,21.82,39.61,27.54C163,462.35,197.22,467.63,197.22,467.63Z" />
        <path d="M66.92,454.25c-4.52-1.11-14.38-2.28-18.21-3.46a175.39,175.39,0,0,1-17.59-6.5c.25-.93.51-1.86.81-2.78.12-.44.26-.87.4-1.31s.29-.87.43-1.31l.44-1.31c-2.93-2.18-5.78-4.56-8.61-7.14a26.87,26.87,0,0,1,4.17-10.73c6,8.13,17,22.37,26.4,30.27.21.17,6.13.35,6.33.52A34,34,0,0,0,66.92,454.25Z" />
        <path d="M232.7,470l-35.48-2.34,0,0c-.4-.44-7.58-8.29-16.42-16.69-7.6-7.22-16.42-14.85-23.24-18.56-14.08-7.65-35.85-16.05-49.82-32.75-.52-.63-1-1.27-1.54-1.93-.37-.47-.73-1-1.09-1.45-37.91-10.75-52.33-20.46-65.43-21.44-2.84-.21-5.56-.26-8.07-.2-.86-3.69-1.7-7.38-2.55-11.07q10.55,1.2,21,3.14c-.33-2.92-.68-5.85-1-8.77,13.7,3.35,40.81,10.43,61,18.54,20.38,8.19,61.59,34.87,82.83,49l3,2,2.81,1.89,1.07.72,1.43,1,1.27.86,3,2,.72.49,0,0h0c-1.62-.84-53.73-27.49-77.44-34.69,45.13,24.92,89.35,58.79,101,67.92C231.67,469.14,232.7,470,232.7,470Z" />
        <path d="M152.69,327.07a155.68,155.68,0,0,1-20.35-11.67l.82-.51c.7-.42,1.39-.84,2.06-1.26A103.94,103.94,0,0,0,152.69,327.07Z" />
        <path d="M221.24,440.52l-.08-.06,0,0,0,0H221l0,0,0,0a0,0,0,0,1,0,0l0,0a.13.13,0,0,1-.07-.06l0,0c-5.56-4.56-12.62-10.51-21.4-17.27h0c-1-.82-2.11-1.63-3.21-2.46h0l-1.17-.88-.05,0s0,0,0,0l-.06-.05,0,0-.45-.33-.6-.44-.16-.12-.17-.12-.14-.11,0,0h0l0,0-.45-.32,0,0a.38.38,0,0,0-.11-.08h0l0,0a.05.05,0,0,0,0,0,1.56,1.56,0,0,0-.2-.16c-5.14-3.82-10.8-7.82-17-11.9h0c-1-.7-2.09-1.39-3.18-2.08h0a381,381,0,0,0-35.49-20.4h0c-1.65-.81-3.31-1.65-5-2.47-6.91-3.37-14.22-6.68-21.92-9.87h0c-1.14-.47-2.27-.94-3.43-1.4l-.62-.25-.62-.25h0c-.2-.69-.4-1.39-.59-2.08s-.38-1.4-.56-2.1c-.14-.51-.27-1-.4-1.55-.23-.88-.44-1.76-.65-2.64-.17-.71-.33-1.41-.48-2.11-.11-.49-.22-1-.32-1.47-.26-1.2-.5-2.41-.72-3.62-.14-.74-.28-1.49-.41-2.24s-.21-1.24-.31-1.85c-.05-.26-.09-.52-.13-.78-.09-.56-.17-1.12-.25-1.68s-.14-.94-.2-1.41-.15-1-.21-1.53-.15-1.16-.22-1.75l-.18-1.64c-.19-1.8-.36-3.61-.49-5.41,2.4-1.44,4.84-2.85,7.28-4.24l6.56-3.74c1.33,12.22,4,27.12,9.36,36.4.59,1.41,3.79,4,8.74,7.39,1,.73,2.15,1.47,3.34,2.27h0c6.72,4.49,15.61,10.1,25.25,16.41a0,0,0,0,1,0,0c.91.59,1.83,1.19,2.75,1.81h0c3.94,2.61,8,5.31,12,8.09h0l3.37,2.34h0c2.49,1.75,5,3.51,7.41,5.29h0c1.11.8,2.19,1.61,3.28,2.41h0q4.6,3.42,8.93,6.89v0q1.77,1.41,3.45,2.83h0C209.38,426.5,216.66,433.71,221.24,440.52Z" />
        <path d="M346,427.64h0c0,.72,0,1.45,0,2.17,0,.3,0,.6,0,.9,0,.1,0,.21,0,.31,0,.47,0,.93-.06,1.4l-.06.91c0,.31,0,.62-.07.92s-.08.9-.13,1.35-.07.65-.11,1-.08.65-.13,1-.05.39-.08.58c-.07.44-.14.89-.22,1.34h0l-.15.8c0,.13-.05.26-.08.4-.1.48-.2,1-.31,1.44,0,.08,0,.15-.05.23-.08.32-.15.64-.23.95h0c-.16.63-.34,1.26-.52,1.88s-.39,1.25-.6,1.87c-.07.22-.15.44-.23.65s-.16.46-.25.69-.27.7-.41,1.05-.34.85-.53,1.28c-.26.61-.53,1.2-.83,1.8q-.21.45-.45.9c-.3.59-.62,1.18-1,1.76s-.56,1-.86,1.43c-.41.68-.86,1.35-1.32,2h0L337,459s-.06.1-.1.14l-.22.3-.08.12h0c-.11.16-.23.31-.35.47l-.35.46-.18.24-.56.69c-.5.61-1,1.22-1.57,1.82-.27.3-.55.59-.84.89-.57.59-1.15,1.17-1.76,1.74h0c-.62.6-1.27,1.17-1.94,1.73H249.18l-.73-1.06h0l-2.33-3.4,8.79-4.3h0c.4,0,10-.44,23.84-10.46h0c10.66-3.58,26.72-10.23,40-29.16.79-.73,1.49-1.36,2.12-1.93h0c4.3-4,5.08-5.27,9-18.93h0c4.05-2.51,6.19-9.18,6.19-9.18s-.36-1.15-1.13-3.17c-.7-1.85-1.76-4.41-3.18-7.5h0c-1.06-2.3-2.35-4.88-3.85-7.67l0,0c.05-.1.11-.19.16-.28a81.64,81.64,0,0,0,6.1-15.35q2.79,2.85,5.28,5.94c.91,1.1,1.79,2.23,2.63,3.37,0,0,0,.05,0,.08-.2,1.48-.42,2.94-.67,4.42l0,.11,0,.11a156.56,156.56,0,0,1-3.56,17.88l-.51,2.54c1.64,4,3.21,8.36,4.55,12.89.45,1.52.88,3.07,1.28,4.64,0,.09,0,.18.07.27.18.74.36,1.48.53,2.23.1.45.2.89.29,1.34a.43.43,0,0,1,0,.11c.08.31.15.63.21.94,0,.14,0,.28.08.42l0,.13c.14.71.28,1.43.4,2.15s.29,1.71.42,2.57A80,80,0,0,1,346,427.64Z" />
        <path d="M179.67,304.3s-16.23,39.6-20.74,49.48l-4.5,9.88,2.71,1s11.48-23.21,18.3-38.36S183.5,305,183.5,305Z" />
      </g>
    </g>
  </g>
</svg>