<svg xmlns="http://www.w3.org/2000/svg" viewBox="0 0 432 432">
  <defs>
    <style>.BUNTAI_TURTLE_OUTFIT_TURTLE_OUTFIT_5_cls-1{isolation:isolate;}.BUNTAI_TURTLE_OUTFIT_TURTLE_OUTFIT_5_cls-2{fill:#23212b;}.BUNTAI_TURTLE_OUTFIT_TURTLE_OUTFIT_5_cls-3{fill:#bbb092;}.BUNTAI_TURTLE_OUTFIT_TURTLE_OUTFIT_5_cls-4{fill:#463933;}.BUNTAI_TURTLE_OUTFIT_TURTLE_OUTFIT_5_cls-5{fill:#41464c;}.BUNTAI_TURTLE_OUTFIT_TURTLE_OUTFIT_5_cls-6{fill:#9a4952;}.BUNTAI_TURTLE_OUTFIT_TURTLE_OUTFIT_5_cls-7{fill:#fff;}.BUNTAI_TURTLE_OUTFIT_TURTLE_OUTFIT_5_cls-8{fill:#cabba8;}.BUNTAI_TURTLE_OUTFIT_TURTLE_OUTFIT_5_cls-9{fill:none;stroke:#000;stroke-linecap:round;stroke-linejoin:round;stroke-width:1.9px;}.BUNTAI_TURTLE_OUTFIT_TURTLE_OUTFIT_5_cls-10{opacity:0.43;mix-blend-mode:multiply;}</style>
  </defs>
  <g class="BUNTAI_TURTLE_OUTFIT_TURTLE_OUTFIT_5_cls-1">
    <g id="outfit">
      <path class="BUNTAI_TURTLE_OUTFIT_TURTLE_OUTFIT_5_cls-2" d="M304.32,433.67c1.33,2-.34,22.92-.12,30s-.33,21.94-4,23.82c-2.4,1.24-7.52.44-10.77-.26,6.11-17.23,5.94-45.19,4.74-58.66C297.4,429.83,303.35,432.24,304.32,433.67Z" />
      <path class="BUNTAI_TURTLE_OUTFIT_TURTLE_OUTFIT_5_cls-2" d="M133.86,414.66a5.37,5.37,0,0,0-1,3.06c0,3.51,3.53,6.37,7.88,6.37s7.88-2.86,7.88-6.37-3.52-6.38-7.88-6.38a3,3,0,0,0-.43,0c-1.78-2.73-3.45-5.61-5-8.51,3.67.8,6.25,6.61,16.79,9.6,11.87,3.35,50.88.95,50.88.95s39,2.4,50.87-.95c10.54-3,13.12-8.8,16.79-9.6-1.54,2.9-3.21,5.78-5,8.51a3,3,0,0,0-.43,0c-4.36,0-7.88,2.86-7.88,6.38s3.52,6.37,7.88,6.37,7.88-2.86,7.88-6.37a5.34,5.34,0,0,0-1-3.05c1.57-2.37,3.06-4.84,4.43-7.33a13.71,13.71,0,0,1-.32,9.54c7.2,4.86,11.94,7.49,12.39,10.13.14.86.41,6.33.34,13.85-36.65-8.82-86-9.17-86-9.17s-49.35.35-86,9.17c-.07-7.52.2-13,.34-13.85.45-2.64,5.2-5.27,12.39-10.13a13.74,13.74,0,0,1-.32-9.55C130.82,409.82,132.29,412.29,133.86,414.66Z" />
      <path class="BUNTAI_TURTLE_OUTFIT_TURTLE_OUTFIT_5_cls-2" d="M289,440.86a231,231,0,0,1-1.5,25.48c-21.37-7.62-84.49-9.66-84.49-9.66s-63.12,2-84.5,9.66a231,231,0,0,1-1.5-25.48c36.65-8.82,86-9.17,86-9.17S252.36,432,289,440.86Z" />
      <path class="BUNTAI_TURTLE_OUTFIT_TURTLE_OUTFIT_5_cls-2" d="M111.86,428.6c-1.19,13.47-1.37,41.43,4.74,58.66-3.25.7-8.37,1.5-10.77.26-3.67-1.88-4.23-16.72-4-23.82s-1.45-28.06-.11-30C102.68,432.24,108.63,429.83,111.86,428.6Z" />
      <path class="BUNTAI_TURTLE_OUTFIT_TURTLE_OUTFIT_5_cls-3" d="M272.17,414.67a5.34,5.34,0,0,1,1,3.05c0,3.51-3.53,6.37-7.88,6.37s-7.88-2.86-7.88-6.37,3.52-6.38,7.88-6.38a3,3,0,0,1,.43,0c-.8,1.23-1.63,2.42-2.48,3.59-1.07,1.47-.47,3.36,1.35,4.23a4.35,4.35,0,0,0,1.93.43,4.09,4.09,0,0,0,3.3-1.51C270.6,417,271.41,415.83,272.17,414.67Z" />
      <path class="BUNTAI_TURTLE_OUTFIT_TURTLE_OUTFIT_5_cls-3" d="M140.77,411.34c4.36,0,7.88,2.86,7.88,6.38s-3.52,6.37-7.88,6.37-7.88-2.86-7.88-6.37a5.37,5.37,0,0,1,1-3.06c.78,1.17,1.58,2.33,2.39,3.44a4.1,4.1,0,0,0,3.29,1.51,4.43,4.43,0,0,0,2-.43c1.8-.87,2.4-2.76,1.33-4.23-.85-1.17-1.68-2.36-2.48-3.59A3,3,0,0,1,140.77,411.34Z" />
      <path class="BUNTAI_TURTLE_OUTFIT_TURTLE_OUTFIT_5_cls-3" d="M308.77,432.22c-1.12-3.41-15.06-7.7-15.06-7.7a14,14,0,0,0-.74-3.44c-1.86-3.66-11.05-9.53-11.05-9.53s1.47-6.71-1.73-11.08c-1.11,2.27-2.3,4.58-3.59,6.86h0a13.71,13.71,0,0,1-.32,9.54c7.2,4.86,11.94,7.49,12.39,10.13.14.86.41,6.33.34,13.85a231,231,0,0,1-1.5,25.48c-1.21,9.8-3.28,19.11-6.81,24.69v.81h6.82l.39-.82c3.87,1,11.35,2.6,14.18,1.81a6,6,0,0,0,2.82-1.8c2.12-2.24,3.31-6,3.63-9.35C309,477.09,309.88,435.64,308.77,432.22ZM304.2,463.7c.23,7.1-.33,21.94-4,23.82-2.4,1.24-7.52.44-10.77-.26,6.11-17.23,5.94-45.19,4.74-58.66,3.23,1.23,9.18,3.64,10.15,5.07C305.65,435.64,304,456.59,304.2,463.7Z" />
      <path class="BUNTAI_TURTLE_OUTFIT_TURTLE_OUTFIT_5_cls-3" d="M265.6,399.2c-4.3,3.66-10,8.3-16.46,9.29-2.34.36-9.1.61-16.75.79-3.08.07-6.32.13-9.48.17-10.42.17-19.89.21-19.89.21s-10.94-.05-22.26-.25c-10.25-.16-20.81-.45-23.87-.92-6.45-1-12.16-5.63-16.46-9.29-3.11-2.64-5.25-3.88-8.36-2.89,1,2.15,2.11,4.35,3.27,6.54h0c3.67.8,6.25,6.61,16.79,9.6,11.87,3.35,50.88.95,50.88.95s39,2.4,50.87-.95c10.54-3,13.12-8.8,16.79-9.6h0c1.16-2.19,2.26-4.39,3.28-6.54C270.85,395.32,268.71,396.56,265.6,399.2Z" />
      <path class="BUNTAI_TURTLE_OUTFIT_TURTLE_OUTFIT_5_cls-3" d="M129.75,416.88a13.74,13.74,0,0,1-.32-9.55c-1.27-2.28-2.47-4.6-3.58-6.87-3.21,4.37-1.74,11.09-1.74,11.09s-9.19,5.87-11,9.53a14,14,0,0,0-.74,3.44s-13.94,4.29-15.06,7.7c0,.08-.05.17-.08.28-1,4.95-.12,44.69.31,49.18.32,3.32,1.51,7.11,3.63,9.35a6,6,0,0,0,2.82,1.8c2.83.79,10.32-.86,14.19-1.81.12.28.25.55.38.82h6.82V491c-3.53-5.58-5.6-14.89-6.81-24.69a231,231,0,0,1-1.5-25.48c-.07-7.52.2-13,.34-13.85C117.81,424.37,122.56,421.74,129.75,416.88Zm-23.92,70.64c-3.67-1.88-4.23-16.72-4-23.82s-1.45-28.06-.11-30c1-1.43,6.91-3.84,10.14-5.07-1.19,13.47-1.37,41.43,4.74,58.66C113.35,488,108.23,488.76,105.83,487.52Z" />
      <path class="BUNTAI_TURTLE_OUTFIT_TURTLE_OUTFIT_5_cls-4" d="M287.82,382.46c-.17.44-.33.91-.51,1.38-1.7,4.53-4.1,10.46-7.12,16.63-1.11,2.27-2.3,4.58-3.59,6.86h0c-1.37,2.49-2.86,5-4.43,7.33-.76,1.16-1.57,2.32-2.38,3.43a4.09,4.09,0,0,1-3.3,1.51,4.35,4.35,0,0,1-1.93-.43c-1.82-.87-2.42-2.76-1.35-4.23.85-1.17,1.68-2.36,2.48-3.59,1.78-2.73,3.45-5.61,5-8.51h0c1.16-2.19,2.26-4.39,3.28-6.54,2.86-6.08,5.11-11.81,6.63-15.95,1.41-3.87,2.19-6.34,2.21-6.42.51-1.66,2.59-2.66,4.64-2.25s3.29,2.09,2.79,3.73C290.13,375.75,289.29,378.43,287.82,382.46Z" />
      <path class="BUNTAI_TURTLE_OUTFIT_TURTLE_OUTFIT_5_cls-4" d="M142.82,415c1.07,1.47.47,3.36-1.33,4.23a4.43,4.43,0,0,1-2,.43,4.1,4.1,0,0,1-3.29-1.51c-.81-1.11-1.61-2.27-2.39-3.44-1.57-2.37-3-4.84-4.43-7.33-1.27-2.28-2.47-4.6-3.58-6.87-3-6.18-5.42-12.09-7.11-16.62-.19-.47-.36-.94-.51-1.38h0c-1.47-4-2.3-6.7-2.4-7-.51-1.65.74-3.33,2.77-3.74s4.13.59,4.64,2.25c0,.08.8,2.55,2.21,6.42,1.52,4.14,3.77,9.87,6.64,15.95,1,2.15,2.11,4.35,3.27,6.54h0c1.54,2.9,3.21,5.78,5,8.51C141.14,412.59,142,413.78,142.82,415Z" />
      <path class="BUNTAI_TURTLE_OUTFIT_TURTLE_OUTFIT_5_cls-5" d="M308.54,481.68c.45-4.59,1.34-46,.23-49.46A9.17,9.17,0,0,0,310,431h0c.14.8,6.2,37.25,8.77,41s1.88,19,1.88,19H304.91C307,488.79,308.22,485,308.54,481.68Z" />
      <path class="BUNTAI_TURTLE_OUTFIT_TURTLE_OUTFIT_5_cls-5" d="M318.78,472c-2.57-3.8-8.63-40.25-8.77-41h0c9.9-5.93,19.9-31.29,25.46-49.63S346,358.68,346,358.68c-.22.8.44,11.87,5.23,20.31s11.46,26.26,12.45,36.15c0,0,10.13.63,10.46,3.87s-2,5.94-.44,8.81,6.11,9.71,5.68,14.57,3,18.07,8.33,24.37S392,477,392,477l-1.34,6.89,2.82,7.13h-72.8S321.38,475.87,318.78,472Z" />
      <path class="BUNTAI_TURTLE_OUTFIT_TURTLE_OUTFIT_5_cls-5" d="M287.29,321.14l6.57,3.19a201.09,201.09,0,0,1-3.33,21.76c-2.56,12.41-9.13,19.33-11.69,26.35a7,7,0,0,0,1.76,7.92c-1.52,4.14-3.77,9.87-6.63,15.95-3.12-1-5.26.25-8.37,2.89-4.3,3.66-10,8.3-16.46,9.29-2.34.36-9.1.61-16.75.79C232.39,409.28,275.76,350.8,287.29,321.14Z" />
      <path class="BUNTAI_TURTLE_OUTFIT_TURTLE_OUTFIT_5_cls-5" d="M310,431a9.17,9.17,0,0,1-1.24,1.25c-1.12-3.41-15.06-7.7-15.06-7.7a14,14,0,0,0-.74-3.44c-1.86-3.66-11.05-9.53-11.05-9.53s1.47-6.71-1.73-11.08c3-6.17,5.42-12.1,7.12-16.63a10,10,0,0,0,7-.35c5.48-2.51,10.29-14.75,14.07-26.8,2.8-8.9,3-16.59,1.95-21.29,0,0,10.78,8.08,13.45,8.71s4.89,1.8,4.68,5c10.12,5.67,17.79,8.73,17.57,9.54,0,0-5,4.31-10.57,22.66S319.91,425,310,431Z" />
      <path class="BUNTAI_TURTLE_OUTFIT_TURTLE_OUTFIT_5_cls-5" d="M97.18,432.5c-.91,3.38-10,36.84-10.82,40.25-.7,3.11-2.07,15.06-2.43,18.28H12.57l2.82-7.13L14.05,477s-1.11-4,4.23-10.25,8.79-19.51,8.35-24.37,4.11-11.69,5.66-14.57-.77-5.58-.43-8.81,10.45-3.87,10.45-3.87c1-9.89,7.68-27.69,12.47-36.15s5.44-19.51,5.22-20.31c0,0,5,4.31,10.56,22.66S86.12,425,96,431a9.17,9.17,0,0,0,1.24,1.25C97.23,432.3,97.21,432.39,97.18,432.5Z" />
      <path class="BUNTAI_TURTLE_OUTFIT_TURTLE_OUTFIT_5_cls-5" d="M137.76,369.17c12.29,15.62,42.24,39.62,43,40.24-10.25-.16-20.81-.45-23.87-.92-6.45-1-12.16-5.63-16.46-9.29-3.11-2.64-5.25-3.88-8.36-2.89-2.87-6.08-5.12-11.81-6.64-15.95a7,7,0,0,0,1.76-7.92c-2.56-7-9.13-13.94-11.69-26.35-1.26-6.16-2.1-11.58-2.61-15.46C113.26,331.32,125.48,353.59,137.76,369.17Z" />
      <path class="BUNTAI_TURTLE_OUTFIT_TURTLE_OUTFIT_5_cls-5" d="M96,431c-9.9-5.93-19.89-31.29-25.46-49.63S60,358.68,60,358.68c-.22-.81,7.46-3.87,17.58-9.54-.23-3.23,2-4.4,4.67-5s13.44-8.71,13.44-8.71c-1.07,4.7-.85,12.39,2,21.29,3.78,12.05,8.59,24.29,14.07,26.8a10,10,0,0,0,7,.35c1.69,4.53,4.1,10.44,7.11,16.62-3.21,4.37-1.74,11.09-1.74,11.09s-9.19,5.87-11,9.53a14,14,0,0,0-.74,3.44s-13.94,4.29-15.06,7.7A9.17,9.17,0,0,1,96,431Z" />
      <path class="BUNTAI_TURTLE_OUTFIT_TURTLE_OUTFIT_5_cls-6" d="M308.78,331.64a9.7,9.7,0,0,1,1.56,3.76c1.07,4.7.85,12.39-1.95,21.29-3.78,12.05-8.59,24.29-14.07,26.8a10,10,0,0,1-7,.35c.18-.47.34-.94.51-1.38a9.85,9.85,0,0,0,1.92-.49c6.24-2.34,17-33.82,18.8-42.17a17.7,17.7,0,0,0,.23-8.16Z" />
      <path class="BUNTAI_TURTLE_OUTFIT_TURTLE_OUTFIT_5_cls-6" d="M308.77,331.64a17.7,17.7,0,0,1-.23,8.16c-1.78,8.35-12.56,39.83-18.8,42.17a9.85,9.85,0,0,1-1.92.49c1.47-4,2.31-6.71,2.42-7,.5-1.64-.74-3.32-2.79-3.73s-4.13.59-4.64,2.25c0,.08-.8,2.55-2.21,6.42a7,7,0,0,1-1.76-7.92c2.56-7,9.13-13.94,11.69-26.35a201.09,201.09,0,0,0,3.33-21.76s3.34-2.25,8.79.54C305.88,326.52,308,328.53,308.77,331.64Z" />
      <path class="BUNTAI_TURTLE_OUTFIT_TURTLE_OUTFIT_5_cls-6" d="M116.29,382c-6.24-2.34-17-33.82-18.8-42.17a17.7,17.7,0,0,1-.23-8.16c.79-3.11,2.89-5.12,6.12-6.77,5.45-2.79,8.79-.54,8.79-.54s.19,2.36.71,6.28v0c.51,3.88,1.35,9.3,2.61,15.46,2.56,12.41,9.13,19.33,11.69,26.35a7,7,0,0,1-1.76,7.92c-1.41-3.87-2.19-6.34-2.21-6.42-.51-1.66-2.59-2.66-4.64-2.25s-3.28,2.09-2.77,3.74c.1.33.93,3,2.4,7A9.85,9.85,0,0,1,116.29,382Z" />
      <path class="BUNTAI_TURTLE_OUTFIT_TURTLE_OUTFIT_5_cls-6" d="M118.74,383.84a10,10,0,0,1-7-.35c-5.48-2.51-10.29-14.75-14.07-26.8-2.8-8.9-3-16.59-2-21.29a9.7,9.7,0,0,1,1.56-3.76h0a17.7,17.7,0,0,0,.23,8.16c1.78,8.35,12.56,39.83,18.8,42.17a9.85,9.85,0,0,0,1.92.49h0C118.38,382.9,118.55,383.37,118.74,383.84Z" />
      <path class="BUNTAI_TURTLE_OUTFIT_TURTLE_OUTFIT_5_cls-7" d="M208.73,389.13c-43-25.48-83-67.92-84.12-69.12.31,1,6.51,28.14,54.67,58.51l31,21.94q3.51-3.24,6.91-6.62c33.86-33.49,59.63-74.74,60.56-76.26C276.28,319.3,230.43,373.61,208.73,389.13Z" />
      <path class="BUNTAI_TURTLE_OUTFIT_TURTLE_OUTFIT_5_cls-8" d="M277.75,317.54l0,0c-.93,1.52-26.7,42.77-60.56,76.26q-3.41,3.39-6.91,6.62l-31-21.94C131.12,348.15,124.92,321,124.61,320v0l-12.43,4.34s.19,2.36.71,6.28v0c.37.69,12.59,23,24.87,38.54s42.24,39.62,43,40.24c11.32.2,22.26.25,22.26.25s9.47,0,19.89-.21c3.16,0,6.4-.1,9.48-.17,0,0,43.37-58.48,54.9-88.14Z" />
      <path class="BUNTAI_TURTLE_OUTFIT_TURTLE_OUTFIT_5_cls-9" d="M310,431c.14.8,6.2,37.25,8.77,41s1.88,19,1.88,19" />
      <path class="BUNTAI_TURTLE_OUTFIT_TURTLE_OUTFIT_5_cls-9" d="M83.93,491c.36-3.22,1.73-15.17,2.43-18.28.78-3.41,9.91-36.87,10.82-40.25" />
      <path class="BUNTAI_TURTLE_OUTFIT_TURTLE_OUTFIT_5_cls-9" d="M277.72,317.58c-1.44,1.72-47.29,56-69,71.55" />
      <path class="BUNTAI_TURTLE_OUTFIT_TURTLE_OUTFIT_5_cls-9" d="M124.61,320c1.14,1.2,41.15,43.64,84.12,69.12q4.23,2.5,8.43,4.71" />
      <path class="BUNTAI_TURTLE_OUTFIT_TURTLE_OUTFIT_5_cls-9" d="M232.39,409.28s43.37-58.48,54.9-88.14" />
      <path class="BUNTAI_TURTLE_OUTFIT_TURTLE_OUTFIT_5_cls-9" d="M293.86,324.33l-6.57-3.19-9.54-3.6,0,0c-.93,1.52-26.7,42.77-60.56,76.26q-3.41,3.39-6.91,6.62" />
      <path class="BUNTAI_TURTLE_OUTFIT_TURTLE_OUTFIT_5_cls-9" d="M180.77,409.42h0c-.76-.62-30.71-24.62-43-40.24s-24.5-37.85-24.87-38.54" />
      <path class="BUNTAI_TURTLE_OUTFIT_TURTLE_OUTFIT_5_cls-9" d="M112.17,324.33,124.6,320v0c.31,1,6.51,28.14,54.67,58.51l31,21.94,12.66,9,.28.21" />
      <path class="BUNTAI_TURTLE_OUTFIT_TURTLE_OUTFIT_5_cls-9" d="M203,431.69s49.34.35,86,9.17h0" />
      <path class="BUNTAI_TURTLE_OUTFIT_TURTLE_OUTFIT_5_cls-9" d="M272.17,414.66h0a5.34,5.34,0,0,1,1,3.05c0,3.51-3.53,6.37-7.88,6.37s-7.88-2.86-7.88-6.37,3.52-6.38,7.88-6.38a3,3,0,0,1,.43,0" />
      <path class="BUNTAI_TURTLE_OUTFIT_TURTLE_OUTFIT_5_cls-9" d="M270.68,402.85c-1.54,2.9-3.21,5.78-5,8.51-.8,1.23-1.63,2.42-2.48,3.59-1.07,1.47-.47,3.36,1.35,4.23a4.35,4.35,0,0,0,1.93.43,4.09,4.09,0,0,0,3.3-1.51c.81-1.11,1.62-2.27,2.38-3.43,1.57-2.37,3.06-4.84,4.43-7.33" />
      <path class="BUNTAI_TURTLE_OUTFIT_TURTLE_OUTFIT_5_cls-9" d="M276.6,407.33c1.29-2.28,2.48-4.59,3.59-6.86,3-6.17,5.42-12.1,7.12-16.63.18-.47.34-.94.51-1.38,1.47-4,2.31-6.71,2.42-7,.5-1.64-.74-3.32-2.79-3.73s-4.13.59-4.64,2.25c0,.08-.8,2.55-2.21,6.42-1.52,4.14-3.77,9.87-6.63,15.95-1,2.15-2.12,4.35-3.28,6.54" />
      <path class="BUNTAI_TURTLE_OUTFIT_TURTLE_OUTFIT_5_cls-9" d="M346,358.68s-5,4.31-10.57,22.66S319.91,425,310,431" />
      <path class="BUNTAI_TURTLE_OUTFIT_TURTLE_OUTFIT_5_cls-9" d="M310,431c.53.46,13.16,11.39,21.3,14.91" />
      <path class="BUNTAI_TURTLE_OUTFIT_TURTLE_OUTFIT_5_cls-9" d="M310,431h0a68.61,68.61,0,0,0,22.33,23.54c14.83,9.23,2.46,8.4-8.19,1.21" />
      <path class="BUNTAI_TURTLE_OUTFIT_TURTLE_OUTFIT_5_cls-9" d="M368.7,421.19s-18.4,12.35-31.45,13.68" />
      <path class="BUNTAI_TURTLE_OUTFIT_TURTLE_OUTFIT_5_cls-9" d="M310.34,335.4s10.78,8.08,13.45,8.71,4.89,1.8,4.68,5c10.12,5.67,17.79,8.73,17.57,9.54s.44,11.87,5.23,20.31,11.46,26.26,12.45,36.15c0,0,10.13.63,10.46,3.87s-2,5.94-.44,8.81,6.11,9.71,5.68,14.57,3,18.07,8.33,24.37S392,477,392,477l-1.34,6.89,2.82,7.13H304.85" />
      <path class="BUNTAI_TURTLE_OUTFIT_TURTLE_OUTFIT_5_cls-9" d="M287.8,382.46h0a9.85,9.85,0,0,0,1.92-.49c6.24-2.34,17-33.82,18.8-42.17a17.7,17.7,0,0,0,.23-8.16c-.79-3.11-2.89-5.12-6.12-6.77-5.45-2.79-8.79-.54-8.79-.54a201.09,201.09,0,0,1-3.33,21.76c-2.56,12.41-9.13,19.33-11.69,26.35a7,7,0,0,0,1.76,7.92" />
      <path class="BUNTAI_TURTLE_OUTFIT_TURTLE_OUTFIT_5_cls-9" d="M312.11,408.76s.62,18.43-3.34,23.46" />
      <path class="BUNTAI_TURTLE_OUTFIT_TURTLE_OUTFIT_5_cls-9" d="M287.29,383.84h0a10,10,0,0,0,7-.35c5.48-2.51,10.29-14.75,14.07-26.8,2.8-8.9,3-16.59,1.95-21.29a9.7,9.7,0,0,0-1.56-3.76" />
      <path class="BUNTAI_TURTLE_OUTFIT_TURTLE_OUTFIT_5_cls-9" d="M320.56,385.29S318.13,421.09,310,431a9.17,9.17,0,0,1-1.24,1.25" />
      <path class="BUNTAI_TURTLE_OUTFIT_TURTLE_OUTFIT_5_cls-9" d="M289.43,487.26c3.25.7,8.37,1.5,10.77.26,3.67-1.88,4.23-16.72,4-23.82s1.45-28.06.12-30c-1-1.43-6.92-3.84-10.15-5.07" />
      <path class="BUNTAI_TURTLE_OUTFIT_TURTLE_OUTFIT_5_cls-9" d="M287.91,491c3.87,1,11.35,2.6,14.18,1.81a6,6,0,0,0,2.82-1.8c2.12-2.24,3.31-6,3.63-9.35.45-4.59,1.34-46,.23-49.46s-15.06-7.7-15.06-7.7" />
      <path class="BUNTAI_TURTLE_OUTFIT_TURTLE_OUTFIT_5_cls-9" d="M276.6,407.33h0a13.71,13.71,0,0,1-.32,9.54c7.2,4.86,11.94,7.49,12.39,10.13.14.86.41,6.33.34,13.85a231,231,0,0,1-1.5,25.48c-1.21,9.8-3.28,19.11-6.81,24.69" />
      <path class="BUNTAI_TURTLE_OUTFIT_TURTLE_OUTFIT_5_cls-9" d="M203,413.4s39,2.4,50.87-.95c10.54-3,13.12-8.8,16.79-9.6h0" />
      <path class="BUNTAI_TURTLE_OUTFIT_TURTLE_OUTFIT_5_cls-9" d="M280.18,400.46a0,0,0,0,0,0,0c3.2,4.37,1.73,11.08,1.73,11.08s9.19,5.87,11.05,9.53a14,14,0,0,1,.74,3.44c.17,1.13.32,2.51.46,4.08,1.2,13.47,1.37,41.43-4.74,58.66-.47,1.32-1,2.58-1.52,3.76l-.39.82h-169" />
      <path class="BUNTAI_TURTLE_OUTFIT_TURTLE_OUTFIT_5_cls-9" d="M203,409.66s9.47,0,19.89-.21c3.16,0,6.4-.1,9.48-.17,7.65-.18,14.41-.43,16.75-.79,6.45-1,12.16-5.63,16.46-9.29,3.11-2.64,5.25-3.88,8.37-2.89" />
      <path class="BUNTAI_TURTLE_OUTFIT_TURTLE_OUTFIT_5_cls-9" d="M203,431.69s-49.35.35-86,9.17h0" />
      <path class="BUNTAI_TURTLE_OUTFIT_TURTLE_OUTFIT_5_cls-9" d="M140.34,411.36a3,3,0,0,1,.43,0c4.36,0,7.88,2.86,7.88,6.38s-3.52,6.37-7.88,6.37-7.88-2.86-7.88-6.37a5.37,5.37,0,0,1,1-3.06" />
      <path class="BUNTAI_TURTLE_OUTFIT_TURTLE_OUTFIT_5_cls-9" d="M135.35,402.85c1.54,2.9,3.21,5.78,5,8.51.8,1.23,1.63,2.42,2.48,3.59,1.07,1.47.47,3.36-1.33,4.23a4.43,4.43,0,0,1-2,.43,4.1,4.1,0,0,1-3.29-1.51c-.81-1.11-1.61-2.27-2.39-3.44-1.57-2.37-3-4.84-4.43-7.33-1.27-2.28-2.47-4.6-3.58-6.87-3-6.18-5.42-12.09-7.11-16.62-.19-.47-.36-.94-.51-1.38" />
      <path class="BUNTAI_TURTLE_OUTFIT_TURTLE_OUTFIT_5_cls-9" d="M118.21,382.46c-1.47-4-2.3-6.7-2.4-7-.51-1.65.74-3.33,2.77-3.74s4.13.59,4.64,2.25c0,.08.8,2.55,2.21,6.42,1.52,4.14,3.77,9.87,6.64,15.95,1,2.15,2.11,4.35,3.27,6.54" />
      <path class="BUNTAI_TURTLE_OUTFIT_TURTLE_OUTFIT_5_cls-9" d="M60,358.68s5,4.31,10.56,22.66S86.12,425,96,431" />
      <path class="BUNTAI_TURTLE_OUTFIT_TURTLE_OUTFIT_5_cls-9" d="M96,431c-.53.46-13.16,11.39-21.28,14.91" />
      <path class="BUNTAI_TURTLE_OUTFIT_TURTLE_OUTFIT_5_cls-9" d="M96,431h0a68.61,68.61,0,0,1-22.33,23.54c-14.83,9.23-2.44,8.4,8.2,1.21" />
      <path class="BUNTAI_TURTLE_OUTFIT_TURTLE_OUTFIT_5_cls-9" d="M37.35,421.19s18.38,12.35,31.43,13.68" />
      <path class="BUNTAI_TURTLE_OUTFIT_TURTLE_OUTFIT_5_cls-9" d="M95.69,335.4s-10.78,8.08-13.44,8.71-4.9,1.8-4.67,5c-10.12,5.67-17.8,8.73-17.58,9.54s-.45,11.87-5.22,20.31-11.46,26.26-12.47,36.15c0,0-10.12.63-10.45,3.87s2,5.94.43,8.81-6.11,9.71-5.66,14.57-3,18.07-8.35,24.37S14.05,477,14.05,477l1.34,6.89L12.57,491h88.62" />
      <path class="BUNTAI_TURTLE_OUTFIT_TURTLE_OUTFIT_5_cls-9" d="M125.43,380.36a7,7,0,0,0,1.76-7.92c-2.56-7-9.13-13.94-11.69-26.35-1.26-6.16-2.1-11.58-2.61-15.46v0c-.52-3.92-.71-6.28-.71-6.28s-3.34-2.25-8.79.54c-3.23,1.65-5.33,3.66-6.12,6.77a17.7,17.7,0,0,0,.23,8.16c1.78,8.35,12.56,39.83,18.8,42.17a9.85,9.85,0,0,0,1.92.49h0" />
      <path class="BUNTAI_TURTLE_OUTFIT_TURTLE_OUTFIT_5_cls-9" d="M93.92,408.76s-.61,18.43,3.34,23.46" />
      <path class="BUNTAI_TURTLE_OUTFIT_TURTLE_OUTFIT_5_cls-9" d="M97.25,331.64a9.7,9.7,0,0,0-1.56,3.76c-1.07,4.7-.85,12.39,2,21.29,3.78,12.05,8.59,24.29,14.07,26.8a10,10,0,0,0,7,.35" />
      <path class="BUNTAI_TURTLE_OUTFIT_TURTLE_OUTFIT_5_cls-9" d="M85.47,385.29S87.9,421.09,96,431a9.17,9.17,0,0,0,1.24,1.25" />
      <path class="BUNTAI_TURTLE_OUTFIT_TURTLE_OUTFIT_5_cls-9" d="M111.86,428.6c-3.23,1.23-9.18,3.64-10.14,5.07-1.34,2,.33,22.92.11,30s.33,21.94,4,23.82c2.4,1.24,7.52.44,10.77-.26" />
      <path class="BUNTAI_TURTLE_OUTFIT_TURTLE_OUTFIT_5_cls-9" d="M112.32,424.52s-13.94,4.29-15.06,7.7c0,.08-.05.17-.08.28-1,4.95-.12,44.69.31,49.18.32,3.32,1.51,7.11,3.63,9.35a6,6,0,0,0,2.82,1.8c2.83.79,10.32-.86,14.19-1.81" />
      <path class="BUNTAI_TURTLE_OUTFIT_TURTLE_OUTFIT_5_cls-9" d="M125.33,491c-3.53-5.58-5.6-14.89-6.81-24.69a231,231,0,0,1-1.5-25.48c-.07-7.52.2-13,.34-13.85.45-2.64,5.2-5.27,12.39-10.13a13.74,13.74,0,0,1-.32-9.55" />
      <path class="BUNTAI_TURTLE_OUTFIT_TURTLE_OUTFIT_5_cls-9" d="M135.34,402.85h0c3.67.8,6.25,6.61,16.79,9.6,11.87,3.35,50.88.95,50.88.95" />
      <path class="BUNTAI_TURTLE_OUTFIT_TURTLE_OUTFIT_5_cls-9" d="M118.51,491.84c-.13-.27-.26-.54-.38-.82-.55-1.18-1.06-2.44-1.53-3.76-6.11-17.23-5.93-45.19-4.74-58.66.14-1.57.29-3,.46-4.08a14,14,0,0,1,.74-3.44c1.86-3.66,11-9.53,11-9.53s-1.47-6.72,1.74-11.09" />
      <path class="BUNTAI_TURTLE_OUTFIT_TURTLE_OUTFIT_5_cls-9" d="M132.07,396.31c3.11-1,5.25.25,8.36,2.89,4.3,3.66,10,8.3,16.46,9.29,3.06.47,13.62.76,23.87.92,11.32.2,22.26.25,22.26.25" />
      <g class="BUNTAI_TURTLE_OUTFIT_TURTLE_OUTFIT_5_cls-10">
        <path d="M116.47,322.77s25.29,40.16,45.46,57.31,51.49,28.88,50.58,29.2-32.55-.52-32.55-.52-33.4-29-49.74-50.22-17.56-29.65-17.56-29.65l.58-4.44Z" />
        <path d="M76.76,349.6s8.19,5.9,11.46,12-2.75-14.38-2.75-14.38l-1-3.24s-4-1.93-5,1.14A9.5,9.5,0,0,1,76.76,349.6Z" />
        <path d="M96,337.4s.64,17.5,5.1,27,6.6,18.24,12.44,19.74,5.18-.27,5.18-.27-1.76,2-6.57-8.2S96,337.4,96,337.4Z" />
        <path d="M33,419s-1.19,4.91,3.12,13.18,21.5,23,21.5,23-5-13-5.78-18.61a48.68,48.68,0,0,1-.63-7.56s-14.72-8.72-15.09-10.79.27-2.26-.38-2.06A7.75,7.75,0,0,0,33,419Z" />
        <path d="M108.89,429.77s-3.32,3.78-3.47,5.1-1.93,16.9,0,28.65a161.77,161.77,0,0,0,5.78,23.26c.42,1.28-4.89,2.87,1,2.15l5.86-.72s-5.64-26.61-6.38-35.84.21-23.77.21-23.77Z" />
        <path d="M98.29,430.86s-3.18-1.87-5.37-15.3-7-43.28-9-36.44,5.47,41.37,5.47,41.37-7.21-26-11.39-33.27-3.28,3.53-3.28,3.53,8.77,31.19,9.2,31.6,5.32,7.84,5.32,7.84S70.42,415,67.6,413.22s15.45,18.17,16.33,18.47S85.47,438,85.47,438,59,466,54.92,474.91s28.85-15.71,33.3-22.19-7.57,19.79-7.57,19.79l-6.52,16.42s18.61-31.53,19.76-34.64,2.83-7.54,2.83-7.54-1.21,31.12,1.08,38,3.32,6.25,3.32,6.25a239.59,239.59,0,0,1-3-31.91c-.44-17.66.45-24.54.45-24.54Z" />
        <path d="M313.76,430.86s3.18-1.87,5.37-15.3,7.05-43.28,9-36.44-5.47,41.37-5.47,41.37,7.21-26,11.39-33.27,3.28,3.53,3.28,3.53-8.77,31.19-9.2,31.6-5.33,7.84-5.33,7.84,18.84-15.24,21.66-17S329,431.39,328.12,431.69s-1.54,6.29-1.54,6.29,26.48,28.06,30.55,36.93-28.85-15.71-33.3-22.19,7.57,19.79,7.57,19.79l6.52,16.42s-18.61-31.53-19.76-34.64-2.84-7.54-2.84-7.54,1.22,31.12-1.07,38-3.32,6.25-3.32,6.25a239.59,239.59,0,0,0,3-31.91c.44-17.66-.45-24.54-.45-24.54Z" />
        <path d="M205.3,409.65s-3.8,2.06-.69,4.58c-5,6.58-2.67,18-2.67,18s-6.85,11.79-1.37,24.55c-5.86,25.81-2.12,36.27-2.12,36.27H126.34s-7.93-14.64-6.79-27.06c17.46-1.74,62.89-6.18,76.64-7.6-14.38-.86-65.4,4.3-65.4,4.3l-12.56,2.4-.1-20.62s40.39-9.72,79.84-12.24c-48.35,1.57-80.95,8.64-80.95,8.64l.58-14.58,12.15-9.4-1.63-7.22,1.4-3s-13.86-30.87-13.2-33,3.12-1.38,3.12-1.38,4.52,16.43,10.08,26.14,12.17,20.44,12.17,20.44,3.4-.54.62-4.69-6.16-9.91-6.16-9.91,15.18,9.66,24.74,10.09,14-4.58,19.43-4.75S205.3,409.65,205.3,409.65Z" />
      </g>
    </g>
  </g>
</svg>