<svg xmlns="http://www.w3.org/2000/svg" xmlns:xlink="http://www.w3.org/1999/xlink" viewBox="0 0 432 432">
  <defs>
    <style>.GUNDAN_DESERT_FOX_OUTFIT_DESERT_FOX_OUTFIT_37_cls-1,.GUNDAN_DESERT_FOX_OUTFIT_DESERT_FOX_OUTFIT_37_cls-13,.GUNDAN_DESERT_FOX_OUTFIT_DESERT_FOX_OUTFIT_37_cls-3,.GUNDAN_DESERT_FOX_OUTFIT_DESERT_FOX_OUTFIT_37_cls-7{fill:none;}.GUNDAN_DESERT_FOX_OUTFIT_DESERT_FOX_OUTFIT_37_cls-2{isolation:isolate;}.GUNDAN_DESERT_FOX_OUTFIT_DESERT_FOX_OUTFIT_37_cls-13,.GUNDAN_DESERT_FOX_OUTFIT_DESERT_FOX_OUTFIT_37_cls-3,.GUNDAN_DESERT_FOX_OUTFIT_DESERT_FOX_OUTFIT_37_cls-7{stroke:#000;stroke-linecap:round;stroke-linejoin:round;}.GUNDAN_DESERT_FOX_OUTFIT_DESERT_FOX_OUTFIT_37_cls-3{stroke-width:1.69px;}.GUNDAN_DESERT_FOX_OUTFIT_DESERT_FOX_OUTFIT_37_cls-4{fill:#100b0a;opacity:0.3;}.GUNDAN_DESERT_FOX_OUTFIT_DESERT_FOX_OUTFIT_37_cls-14,.GUNDAN_DESERT_FOX_OUTFIT_DESERT_FOX_OUTFIT_37_cls-4,.GUNDAN_DESERT_FOX_OUTFIT_DESERT_FOX_OUTFIT_37_cls-9{mix-blend-mode:multiply;}.GUNDAN_DESERT_FOX_OUTFIT_DESERT_FOX_OUTFIT_37_cls-5{fill:#aa3d3d;}.GUNDAN_DESERT_FOX_OUTFIT_DESERT_FOX_OUTFIT_37_cls-6{fill:#e3e4e2;}.GUNDAN_DESERT_FOX_OUTFIT_DESERT_FOX_OUTFIT_37_cls-7{stroke-width:1.65px;}.GUNDAN_DESERT_FOX_OUTFIT_DESERT_FOX_OUTFIT_37_cls-8{fill:#f25d4d;}.GUNDAN_DESERT_FOX_OUTFIT_DESERT_FOX_OUTFIT_37_cls-9{fill:#0c0808;opacity:0.4;}.GUNDAN_DESERT_FOX_OUTFIT_DESERT_FOX_OUTFIT_37_cls-10{clip-path:url(#GUNDAN_DESERT_FOX_OUTFIT_DESERT_FOX_OUTFIT_37_clip-path);}.GUNDAN_DESERT_FOX_OUTFIT_DESERT_FOX_OUTFIT_37_cls-11{fill:#fff;}.GUNDAN_DESERT_FOX_OUTFIT_DESERT_FOX_OUTFIT_37_cls-12{fill:#611f2c;}.GUNDAN_DESERT_FOX_OUTFIT_DESERT_FOX_OUTFIT_37_cls-13{stroke-width:1.78px;}.GUNDAN_DESERT_FOX_OUTFIT_DESERT_FOX_OUTFIT_37_cls-14{opacity:0.22;}</style>
    <clipPath id="clip-path">
      <rect class="GUNDAN_DESERT_FOX_OUTFIT_DESERT_FOX_OUTFIT_37_cls-1" x="45.97" y="345.5" width="129.06" height="90.1" />
    </clipPath>
  </defs>
  <g class="GUNDAN_DESERT_FOX_OUTFIT_DESERT_FOX_OUTFIT_37_cls-2">
    <g id="outfit">
      <path class="GUNDAN_DESERT_FOX_OUTFIT_DESERT_FOX_OUTFIT_37_cls-3" d="M147.82,418.92l-.11-.29a46.55,46.55,0,0,1-1.67-6.95v0a43.36,43.36,0,0,1,1.14-20.09,32,32,0,0,1,3.93-8.08" />
      <path class="GUNDAN_DESERT_FOX_OUTFIT_DESERT_FOX_OUTFIT_37_cls-3" d="M233,389.9s0-6.91,6.85-12.73" />
      <path class="GUNDAN_DESERT_FOX_OUTFIT_DESERT_FOX_OUTFIT_37_cls-3" d="M142.68,389.53s2.85,3.52,3.26,7.14" />
      <path class="GUNDAN_DESERT_FOX_OUTFIT_DESERT_FOX_OUTFIT_37_cls-3" d="M292.3,418.63c.16-.48.5-1.54.87-3,1.23-5,2.82-14.79-.48-24.49h0a32,32,0,0,0-3.66-7.43l-.12-.19" />
      <path class="GUNDAN_DESERT_FOX_OUTFIT_DESERT_FOX_OUTFIT_37_cls-3" d="M294.08,396.68a11.5,11.5,0,0,1,.34-1.65,18.34,18.34,0,0,1,2.92-5.5" />
      <path class="GUNDAN_DESERT_FOX_OUTFIT_DESERT_FOX_OUTFIT_37_cls-3" d="M293.88,412.28s-.29,4.69.35,6.35" />
      <path class="GUNDAN_DESERT_FOX_OUTFIT_DESERT_FOX_OUTFIT_37_cls-4" d="M289,383.68s6.27,22.48-6.28,34.95c18.77,0,15.51.35,15.51.35a22.58,22.58,0,0,1,1.48-17.65c-2.61.73-4,4.8-4,4.8s-.51-11.74,4.49-19.4c-3.42,1.82-6.32,8.83-6.32,8.83S291.74,387,289,383.68Z" />
      <path class="GUNDAN_DESERT_FOX_OUTFIT_DESERT_FOX_OUTFIT_37_cls-3" d="M230,419a36.69,36.69,0,0,0,4.4-17.87c0-10.36-3.86-19.42-9.62-24.43" />
      <path class="GUNDAN_DESERT_FOX_OUTFIT_DESERT_FOX_OUTFIT_37_cls-5" d="M328.76,407.2c-.16-.45-.31-.89-.45-1.33.14.44.29.88.45,1.33,0,0,3-1.69,5.08-2.7s-.12-5.62-3.43-8.6c-8.13-8.53-7.06-13.12-7-13.4h0c.21-.32.41-.64.61-1a.86.86,0,0,0-.5-1.3A15.76,15.76,0,0,1,312,367.7c-21.39,24-77.84,64.76-158.28,20.06h0a250.68,250.68,0,0,1-38.1-26.44c-1.44,7.59-7.4,10.75-13.23,12.06a1,1,0,0,0-.56,1.47c.23.36.45.72.69,1.06v0c.08.31,1.28,5.47-7.86,15-3.7,3.34-6.15,8.51-3.84,9.66s5.7,3,5.7,3c-2.33,6.47-6.5,13.26-11.28,17.2,4.08,9.43,14.46,15.24,14.46,15.24H325.93s9.24-5.17,12.88-13.57C334.55,419,330.84,412.94,328.76,407.2ZM327.34,402v-.07h0Zm-68.7,32.56,1.85-.84Zm41.14-21c-10.95,6.16-20.86,11.23-28.53,15l-3.15,1.53-2.86,1.36-2.54,1.2,2.54-1.2,2.86-1.36,3.15-1.53c7.67-3.77,17.58-8.84,28.53-15,4-2.28,7.56-4.12,10.62-5.6C307.34,409.46,303.82,411.3,299.78,413.58Zm11.75-6.15c1.11-.52,2.15-1,3.13-1.43C313.68,406.43,312.64,406.91,311.53,407.43Zm4.1-1.85c.63-.27,1.23-.52,1.81-.75C316.86,405.06,316.26,405.31,315.63,405.58Z" />
      <path class="GUNDAN_DESERT_FOX_OUTFIT_DESERT_FOX_OUTFIT_37_cls-6" d="M312,367.7c-21.39,24-77.84,64.76-158.28,20.06h0a250.68,250.68,0,0,1-38.1-26.44l11.25-11s11.3,11.42,30.93,22.35c18,10,43,19.63,72.72,19.63,40.15,0,70.83-36.51,70.83-36.51S309.74,362,312,367.7Z" />
      <path class="GUNDAN_DESERT_FOX_OUTFIT_DESERT_FOX_OUTFIT_37_cls-7" d="M209.37,436.08H325.93s9.24-5.17,12.88-13.57c-4.26-3.51-8-9.57-10.05-15.31a33.08,33.08,0,0,1-1.42-5.18" />
      <path class="GUNDAN_DESERT_FOX_OUTFIT_DESERT_FOX_OUTFIT_37_cls-7" d="M255.2,436.08s19.54-8.42,44.58-22.5c16.15-9.09,24-11.26,27.55-11.67a5.38,5.38,0,0,1,2.59.11" />
      <path class="GUNDAN_DESERT_FOX_OUTFIT_DESERT_FOX_OUTFIT_37_cls-7" d="M323.43,382.49c.21-.32.41-.64.61-1a.86.86,0,0,0-.5-1.3A15.76,15.76,0,0,1,312,367.7" />
      <path class="GUNDAN_DESERT_FOX_OUTFIT_DESERT_FOX_OUTFIT_37_cls-7" d="M295.54,397.46a33.38,33.38,0,0,0,27.88-15" />
      <path class="GUNDAN_DESERT_FOX_OUTFIT_DESERT_FOX_OUTFIT_37_cls-7" d="M323.43,382.49h0c-.07.28-1.14,4.87,7,13.4,3.31,3,5.49,7.58,3.43,8.6s-5.08,2.7-5.08,2.7" />
      <path class="GUNDAN_DESERT_FOX_OUTFIT_DESERT_FOX_OUTFIT_37_cls-7" d="M313,430s10.21-8.06,23-7.38" />
      <path class="GUNDAN_DESERT_FOX_OUTFIT_DESERT_FOX_OUTFIT_37_cls-7" d="M209.37,436.08H99.64s-10.38-5.81-14.46-15.24c4.78-3.94,8.95-10.73,11.28-17.2a36,36,0,0,0,1.6-5.81" />
      <path class="GUNDAN_DESERT_FOX_OUTFIT_DESERT_FOX_OUTFIT_37_cls-7" d="M179.08,436.08s-22-9.46-50.06-25.28c-18.16-10.21-27-12.64-31-13.08a6.08,6.08,0,0,0-2.9.11" />
      <path class="GUNDAN_DESERT_FOX_OUTFIT_DESERT_FOX_OUTFIT_37_cls-7" d="M102.45,375.89c-.24-.34-.46-.7-.69-1.06a1,1,0,0,1,.56-1.47c5.83-1.31,11.79-4.47,13.23-12.06" />
      <path class="GUNDAN_DESERT_FOX_OUTFIT_DESERT_FOX_OUTFIT_37_cls-7" d="M133.77,392.7a37.47,37.47,0,0,1-31.31-16.79" />
      <path class="GUNDAN_DESERT_FOX_OUTFIT_DESERT_FOX_OUTFIT_37_cls-7" d="M102.45,375.89v0c.08.31,1.28,5.47-7.86,15-3.7,3.34-6.15,8.51-3.84,9.66s5.7,3,5.7,3" />
      <path class="GUNDAN_DESERT_FOX_OUTFIT_DESERT_FOX_OUTFIT_37_cls-7" d="M114.12,429.21s-11.47-9-25.87-8.29" />
      <path class="GUNDAN_DESERT_FOX_OUTFIT_DESERT_FOX_OUTFIT_37_cls-7" d="M115.55,361.3l11.25-11s41.55,42,103.65,42c40.15,0,70.83-36.51,70.83-36.51S309.74,362,312,367.7c-24.64,27.64-96.13,76.93-196.42-6.4" />
      <path class="GUNDAN_DESERT_FOX_OUTFIT_DESERT_FOX_OUTFIT_37_cls-7" d="M157.73,401.84a61.37,61.37,0,0,1,25.73,12.91c1.89,1.57,3.65,2.93,5.28,4.11,9.34,6.72,14.56,7.44,14.56,7.44" />
      <path class="GUNDAN_DESERT_FOX_OUTFIT_DESERT_FOX_OUTFIT_37_cls-7" d="M165,415.2s13.55-1.34,23.79,3.66" />
      <path class="GUNDAN_DESERT_FOX_OUTFIT_DESERT_FOX_OUTFIT_37_cls-7" d="M264.16,423.46s16.93-14.49,32.26-15.71" />
      <path class="GUNDAN_DESERT_FOX_OUTFIT_DESERT_FOX_OUTFIT_37_cls-8" d="M235.17,408.93s-1.7,6.67-2.69,11.35a2.84,2.84,0,0,0-1-.33,3.09,3.09,0,0,0-1.24.08,35.89,35.89,0,0,1,1.61-8,20.11,20.11,0,0,0,3.33-3.14Z" />
      <path class="GUNDAN_DESERT_FOX_OUTFIT_DESERT_FOX_OUTFIT_37_cls-8" d="M244.37,419.06a2.65,2.65,0,0,0-1,.47c-1.41-4.16-3.61-9.93-3.94-10.78a19.53,19.53,0,0,0,3.66,2.6,35.69,35.69,0,0,1,2.49,7.61A3.41,3.41,0,0,0,244.37,419.06Z" />
      <path class="GUNDAN_DESERT_FOX_OUTFIT_DESERT_FOX_OUTFIT_37_cls-8" d="M245.61,419c1.53.19,3.24,1.42,4.38,4.19A93.73,93.73,0,0,1,254,436s-4.62,3.15-9.2,1.7c-.49-6.34-2.83-13.3-2.45-16.31a2.69,2.69,0,0,1,1.06-1.84,2.65,2.65,0,0,1,1-.47A3.41,3.41,0,0,1,245.61,419Z" />
      <path class="GUNDAN_DESERT_FOX_OUTFIT_DESERT_FOX_OUTFIT_37_cls-8" d="M259,403.17a11.28,11.28,0,0,0-10.28-8.62c-6.57-.69-9.14,1.52-9.14,1.52a5.81,5.81,0,0,0-6.14.42s-2.81-1.84-9.25-.25a11.59,11.59,0,0,0-9.19,10c-.61,4.47,3.19,8.85,8.46,8.87a14,14,0,0,0,8.36-3,20.11,20.11,0,0,0,3.33-3.14h0c.38-.46.58-.75.58-.75a6,6,0,0,0,1.47.24,6.78,6.78,0,0,0,1.44-.44s.29.31.8.77a19.53,19.53,0,0,0,3.66,2.6,13.53,13.53,0,0,0,8.52,1.77C256.88,412.38,260.14,407.52,259,403.17Zm-32.62,7c-3.9,1.81-8.53-1.37-5.95-5.8s7.74-4.87,11.64-4.44a10.35,10.35,0,0,0,.65,5.63A27,27,0,0,1,226.39,410.17Zm21.79-1.51a26.12,26.12,0,0,1-6.82-3.69,10.53,10.53,0,0,0,0-5.68c3.82-1,9-1.23,12.06,2.81S252.27,409.93,248.18,408.66Z" />
      <path class="GUNDAN_DESERT_FOX_OUTFIT_DESERT_FOX_OUTFIT_37_cls-8" d="M232.48,420.28a2.6,2.6,0,0,1,1.26,1.68c.74,2.93-.78,10.16-.54,16.52-4.36,2.07-9.31-.42-9.31-.42a93.92,93.92,0,0,1,2.47-13.28c.82-2.92,2.38-4.36,3.86-4.75a3.09,3.09,0,0,1,1.24-.08A2.84,2.84,0,0,1,232.48,420.28Z" />
      <path class="GUNDAN_DESERT_FOX_OUTFIT_DESERT_FOX_OUTFIT_37_cls-7" d="M236.46,395.4a5,5,0,0,0-3,1.09,3,3,0,0,0-.65.82,7.8,7.8,0,0,0-.72,2.62,10.35,10.35,0,0,0,.65,5.63,4.66,4.66,0,0,0,3,2.62,6,6,0,0,0,1.47.24" />
      <path class="GUNDAN_DESERT_FOX_OUTFIT_DESERT_FOX_OUTFIT_37_cls-7" d="M235.17,408.93c.38-.46.58-.75.58-.75" />
      <path class="GUNDAN_DESERT_FOX_OUTFIT_DESERT_FOX_OUTFIT_37_cls-7" d="M233.45,396.49s-2.81-1.84-9.25-.25a11.59,11.59,0,0,0-9.19,10c-.61,4.47,3.19,8.85,8.46,8.87a14,14,0,0,0,8.36-3,20.11,20.11,0,0,0,3.33-3.14" />
      <path class="GUNDAN_DESERT_FOX_OUTFIT_DESERT_FOX_OUTFIT_37_cls-7" d="M232.08,399.93c-3.9-.43-9.07,0-11.64,4.44s2.05,7.61,5.95,5.8a27,27,0,0,0,6.34-4.61" />
      <path class="GUNDAN_DESERT_FOX_OUTFIT_DESERT_FOX_OUTFIT_37_cls-7" d="M236.46,395.4a5,5,0,0,1,3.13.67,2.8,2.8,0,0,1,.74.72,7.74,7.74,0,0,1,1,2.5,10.53,10.53,0,0,1,0,5.68,4.81,4.81,0,0,1-2.7,3,6.78,6.78,0,0,1-1.44.44" />
      <path class="GUNDAN_DESERT_FOX_OUTFIT_DESERT_FOX_OUTFIT_37_cls-7" d="M239.59,396.07s2.57-2.21,9.14-1.52A11.28,11.28,0,0,1,259,403.17c1.13,4.35-2.13,9.21-7.37,9.95a13.53,13.53,0,0,1-8.52-1.77,19.53,19.53,0,0,1-3.66-2.6c-.51-.46-.8-.77-.8-.77" />
      <path class="GUNDAN_DESERT_FOX_OUTFIT_DESERT_FOX_OUTFIT_37_cls-7" d="M241.35,399.29c3.82-1,9-1.23,12.06,2.81s-1.14,7.83-5.23,6.56a26.12,26.12,0,0,1-6.82-3.69" />
      <path class="GUNDAN_DESERT_FOX_OUTFIT_DESERT_FOX_OUTFIT_37_cls-7" d="M230.22,420c-1.48.39-3,1.83-3.86,4.75a93.92,93.92,0,0,0-2.47,13.28s5,2.49,9.31.42c-.24-6.36,1.28-13.59.54-16.52a2.6,2.6,0,0,0-1.26-1.68,2.84,2.84,0,0,0-1-.33A3.09,3.09,0,0,0,230.22,420Z" />
      <path class="GUNDAN_DESERT_FOX_OUTFIT_DESERT_FOX_OUTFIT_37_cls-7" d="M232.48,420.28c1-4.68,2.69-11.35,2.69-11.35h0" />
      <path class="GUNDAN_DESERT_FOX_OUTFIT_DESERT_FOX_OUTFIT_37_cls-7" d="M231.83,412.07a35.89,35.89,0,0,0-1.61,8h0" />
      <path class="GUNDAN_DESERT_FOX_OUTFIT_DESERT_FOX_OUTFIT_37_cls-7" d="M245.61,419c1.53.19,3.24,1.42,4.38,4.19A93.73,93.73,0,0,1,254,436s-4.62,3.15-9.2,1.7c-.49-6.34-2.83-13.3-2.45-16.31a2.69,2.69,0,0,1,1.06-1.84,2.65,2.65,0,0,1,1-.47A3.41,3.41,0,0,1,245.61,419Z" />
      <path class="GUNDAN_DESERT_FOX_OUTFIT_DESERT_FOX_OUTFIT_37_cls-7" d="M243.4,419.53c-1.41-4.16-3.61-9.93-3.94-10.78" />
      <path class="GUNDAN_DESERT_FOX_OUTFIT_DESERT_FOX_OUTFIT_37_cls-7" d="M243.12,411.35a35.69,35.69,0,0,1,2.49,7.61h0" />
      <path class="GUNDAN_DESERT_FOX_OUTFIT_DESERT_FOX_OUTFIT_37_cls-7" d="M227.73,432.29s.19-7.85,3.73-12.34a34.06,34.06,0,0,1-.71,9.14" />
      <path class="GUNDAN_DESERT_FOX_OUTFIT_DESERT_FOX_OUTFIT_37_cls-7" d="M246.24,430.65s-2.38-8.54-1.87-11.59a22.88,22.88,0,0,1,3.26,6.93" />
      <path class="GUNDAN_DESERT_FOX_OUTFIT_DESERT_FOX_OUTFIT_37_cls-9" d="M185.57,417.54c-7.69-6-32.17-12.27-38.3-5.47a39.13,39.13,0,0,0-4.14,6.44A74.82,74.82,0,0,0,137,436.08H99.64s-10.38-5.81-14.46-15.24c4.78-3.94,8.95-10.73,11.28-17.2,0,0-3.39-1.88-5.7-3s.14-6.32,3.84-9.66c9.14-9.58,7.94-14.74,7.86-15v0c-.24-.34-.46-.7-.69-1.06a1,1,0,0,1,.56-1.47c5.83-1.31,11.79-4.47,13.23-12.06l11.25-11s11.3,11.42,30.93,22.35h0c-10.61,4.34-4.27,14.71-4,15.07h0c-.61-.19-8.45-2.52-1.74,10.95C161.38,399.69,166.86,400.57,185.57,417.54Z" />
      <g class="GUNDAN_DESERT_FOX_OUTFIT_DESERT_FOX_OUTFIT_37_cls-10">
        <path class="GUNDAN_DESERT_FOX_OUTFIT_DESERT_FOX_OUTFIT_37_cls-8" d="M109.2,377c0,1,0,2.05.1,3.05a40.75,40.75,0,0,0,2.7,12.62,23.71,23.71,0,0,0,4.14,7l.16.16a13.52,13.52,0,0,0,1.82,1.68,9.84,9.84,0,0,0,3.33,1.7h0a7.78,7.78,0,0,0,2.19.31h.23c.24,0,.46,0,.69,0a9.29,9.29,0,0,0,4.07-1.56l.58-.42a.36.36,0,0,0,0-.1,19.25,19.25,0,0,0-.4-2c.17-1,.37-2.16.62-3.57,1.12-6.37-3.27-5.92-6.85-16.27a25.37,25.37,0,0,1-.48-15.78s1.06-7.19,2.31-9.47c-1-2.4-3.8-.73-3.8-.73l-.91,4.3c.23-1.85.44-3.38.58-4.38a7.91,7.91,0,0,0-3.59.28c-4,4-6.83,11.43-7.38,20.1C109.23,374.84,109.2,375.89,109.2,377Z" />
        <path class="GUNDAN_DESERT_FOX_OUTFIT_DESERT_FOX_OUTFIT_37_cls-11" d="M135.77,407.76a.47.47,0,0,0-.06-.15.91.91,0,0,0-.07-.14.53.53,0,0,0-.09-.11v0h0l0,0a0,0,0,0,0,0,0,.21.21,0,0,0-.06-.08.34.34,0,0,0-.12-.12l-.76-.66-.19-.17h0l-.39-.33h0c-.79-.67-1.76-1.46-2.77-2.24l-.62-.47-.61-.45c-.2-.16-.4-.29-.59-.43l-.24-.16-.13-.09-.12-.08-.23-.15-.24-.16h0l-.3-.2a9.3,9.3,0,0,0-1.88-.94l-.11,0c-.5-.15-1.11-.34-1.8-.48a3.4,3.4,0,0,0-.46-.08l-.3-.05h0l-.11,0-.52-.05-.39,0h-.12l-.29,0a1.48,1.48,0,0,0-.3,0l-.36,0h-.11a3.73,3.73,0,0,0-.46.09h0a3.74,3.74,0,0,0-.45.12l-.46.17h0a5.87,5.87,0,0,0-.75.38l-.16.09,0,0-.15.1-.25.18,0,0a5.07,5.07,0,0,0-.44.37c-.12.1-.24.22-.36.34s-.46.52-.68.82a7.58,7.58,0,0,0-.62,1,6.74,6.74,0,0,0-.43,1,6.08,6.08,0,0,0-.31,3.16c0,.16.06.32.1.47s.08.3.13.45a2.29,2.29,0,0,0,.12.37.25.25,0,0,0,0,.07l.12.28a.69.69,0,0,1,.05.13c.06.13.13.25.19.37s.28.48.42.69.3.39.44.55l.22.23a.86.86,0,0,0,.14.13c.4.3,2.63,2,5.11,3.58a29.07,29.07,0,0,0,3.78,2.05l.51.2.29.1a1.47,1.47,0,0,0,.3.08l.31,0a1.92,1.92,0,0,0,.72-.14,2,2,0,0,0,.55-.34l.15-.17,2.76-3.47c0-.07-.06-.14-.08-.22a1.73,1.73,0,0,0,.66-.48s0,0,0,0a.43.43,0,0,1,0-.07l2.72-3.39h0a1.76,1.76,0,0,0,.14-.23,1.63,1.63,0,0,0,.11-.23,1.52,1.52,0,0,0,.07-.64A1.63,1.63,0,0,0,135.77,407.76Zm-8.38,6.14-.2-.09-.2-.11h0c-.25-.13-.51-.27-.77-.43s-.54-.3-.81-.47l-.55-.34h0l-.43-.27-.83-.54-.4-.27h0l-.48-.32L121,409.83c-.38-.27-.7-.52-1-.72a3.15,3.15,0,0,1-.31-.4.15.15,0,0,1,0-.06,1.81,1.81,0,0,1-.2-.37.8.8,0,0,1-.08-.16s0,0,0-.06l-.09-.24c0-.08-.06-.16-.08-.25a3.89,3.89,0,0,1-.09-.53,3.4,3.4,0,0,1,.06-1,1.29,1.29,0,0,1,.06-.25c0-.08,0-.17.08-.25a3.74,3.74,0,0,1,.22-.51l.15-.27c.09-.14.17-.27.28-.41a3.43,3.43,0,0,1,1.2-1.09l.24-.12h0a4.13,4.13,0,0,1,2.47.08l.52.15a3.8,3.8,0,0,1,.55.16l.09,0h0a13.93,13.93,0,0,1,2.81,1.78l.76.58,1.59,1.26c.5.4,1,.83,1.51,1.25h0l0,.05-.82,1-2.82-1.79-.4-.26,0,0a1.89,1.89,0,0,0-1.81-.12l-.23.12-.2.16a1.07,1.07,0,0,0-.2.22h0a1.43,1.43,0,0,0-.32.91,1.55,1.55,0,0,0,.74,1.3l1.68,1.07,1.56,1Zm-2.19-6.11a1.43,1.43,0,0,0-.32.91,1.44,1.44,0,0,1,.33-.91Z" />
        <path class="GUNDAN_DESERT_FOX_OUTFIT_DESERT_FOX_OUTFIT_37_cls-6" d="M61.69,363.39l-.49,2.23a41.33,41.33,0,0,1,2.66,5.28,19.68,19.68,0,0,1,.86,4.56h0c2.24.5,6.37,1.51,6.75,2.29s-3.81,2.59-6.21,3.55c.33,3.76.69,7.34,1.35,8.56a63.21,63.21,0,0,0,5.66,8.19c2.12-.95,5.68-2.46,6.5-2.1s-1.29,4.73-2.38,6.77c.2.22.41.44.63.65,3.25,3.26,8.53,5.43,15,7.79,1.36-1.76,3.53-4.37,4.4-4.4s1.3,4.12,1.45,6.5c2,.74-6.17,1.52-4,2.38a52.83,52.83,0,0,0,14.31,3.74c.67-2.05,1.9-5.47,2.75-5.75s2.68,3.53,3.64,5.75c1.41-.12,2.73-.31,4-.54a4.88,4.88,0,0,0,4.18-3.83c-2.48-1.56-4.72-3.29-5.1-3.58a.64.64,0,0,1-.15-.13,6.63,6.63,0,0,1-1.59-2.69,37.56,37.56,0,0,1-7.18.68,38,38,0,0,1-16.06-3.5c-8.71-4.11-4.65-11.31-10.16-17.67a57.15,57.15,0,0,1-7.13-9.49,18.81,18.81,0,0,1-2.56-11.9,13.59,13.59,0,0,1,.54-2.2c-2.12-.06-4-.2-5.66-.39C65.43,363.88,63.41,363.62,61.69,363.39Z" />
        <path class="GUNDAN_DESERT_FOX_OUTFIT_DESERT_FOX_OUTFIT_37_cls-6" d="M107.57,367.45a17.37,17.37,0,0,0,1.73,6.37c1.58,3,3.75,3.93,4.85,3.34,1.68-.91,1.92-6.31-1.49-8,2.58.72,4.81,4.43,5.08,7.75l.69-.05c0-.21,0-.41,0-.62-.27-4.59.61-12.9,1.3-18.44.23-1.85.44-3.38.58-4.38a7.91,7.91,0,0,0-3.59.28,10.38,10.38,0,0,0-2,.87c-.12.11-.25.2-.37.3a5.35,5.35,0,0,1-1.13.71A12.83,12.83,0,0,0,107.57,367.45Z" />
        <path class="GUNDAN_DESERT_FOX_OUTFIT_DESERT_FOX_OUTFIT_37_cls-8" d="M114.31,354.89s-6.23-1.51-10.63,2.82c-2.44,9.05-1.58,14.82,5.12,21.57s11,.6,8.21-5.35c-1.29-3.53-2-3.3-2-3.3s1.7,6-1.57,6.7-8.12-9.76-4.61-16.22A25.37,25.37,0,0,1,114.31,354.89Z" />
        <path class="GUNDAN_DESERT_FOX_OUTFIT_DESERT_FOX_OUTFIT_37_cls-12" d="M127.69,407.44c0-.4.09-.77.13-1.12a4.42,4.42,0,0,1,.85-.41c.52.4,1.06.82,1.6,1.26l1.51,1.25-.87,1.08Z" />
        <path class="GUNDAN_DESERT_FOX_OUTFIT_DESERT_FOX_OUTFIT_37_cls-12" d="M127.3,411.07l1.56,1-1.47,1.83-.4-.2C127.1,412.84,127.2,412,127.3,411.07Z" />
        <path class="GUNDAN_DESERT_FOX_OUTFIT_DESERT_FOX_OUTFIT_37_cls-12" d="M247.4,471.87a6.44,6.44,0,0,1-5.79,4.36,5,5,0,0,1-.55,0,7.6,7.6,0,0,1-1.75-.21c-.33-.08-1.62-.42-3.74-1a304.06,304.06,0,0,1-52.29-20.93h0c-3.53-1.8-7.15-3.72-10.83-5.79-4.14-2.31-7.53-4.8-11.77-7.46h0c-1.26-.79-2.52-1.6-3.8-2.44h0l-1.84-1.2-1.51-1q-1.86-1.25-3.72-2.54l-1.47-1c-.21-.14-.43-.29-.64-.45l-1.43-1q-1.77-1.28-3.54-2.59l-1.63-1.21-1.9-1.45-2.5-2c-.67-.53-1.33-1.07-2-1.6l-2-1.63c-1.34-1.1-2.66-2.22-4-3.35a2,2,0,0,0,.55-.34l.15-.17,2.76-3.47.58-.7s0,0,0,0a.43.43,0,0,1,0-.07l2.72-3.39h0a1.82,1.82,0,0,0,.15-.23,1.63,1.63,0,0,0,.11-.23,1.52,1.52,0,0,0,.07-.64,1.63,1.63,0,0,0-.07-.3.47.47,0,0,0-.06-.15.91.91,0,0,0-.07-.14l-.09-.11v0l0,0a0,0,0,0,0,0,0,.21.21,0,0,0-.06-.08.34.34,0,0,0-.12-.12l-.76-.66-.19-.17h0l-.39-.33a6.25,6.25,0,0,1,1.93,1.16q3.36,3,6.8,5.75c4.12,3.36,8.3,6.52,12.5,9.5q1,.74,2,1.41c4.05,2.83,8.13,5.49,12.15,8,2.36,1.46,3.89,2.86,6.22,4.19h0c3.18,1.85,6.33,3.59,9.42,5.22a306.89,306.89,0,0,0,49.95,21.12c2.65.83,4.7,1.43,6,1.8,1.12.32,1.76.48,1.83.5C246.3,465.43,248.36,468.7,247.4,471.87Z" />
        <path class="GUNDAN_DESERT_FOX_OUTFIT_DESERT_FOX_OUTFIT_37_cls-8" d="M123.19,411.38c0-1.66-.06-3.28.1-4.51.13-.93.39-2.18.64-3.65l1.07.31.11,0a13.66,13.66,0,0,1,2.81,1.79q.37.27.75.57a4.42,4.42,0,0,0-.85.41c0,.35-.08.72-.13,1.12l0,0a1.88,1.88,0,0,0-2.45.37,1.5,1.5,0,0,0,.43,2.22l1.67,1.07c-.1.88-.2,1.77-.31,2.63-.67-.35-1.4-.78-2.14-1.24C124.29,412.11,123.72,411.73,123.19,411.38Z" />
        <path class="GUNDAN_DESERT_FOX_OUTFIT_DESERT_FOX_OUTFIT_37_cls-8" d="M113,393c6.48,2.16,8.65,6.64,8.77,6.87a6.08,6.08,0,0,0-4,1.94c-4.26-7.34-12.33-5.06-18.07-9.78s-4.61-13.11.37-17.62C94.94,384.79,106.35,390.75,113,393Z" />
        <path class="GUNDAN_DESERT_FOX_OUTFIT_DESERT_FOX_OUTFIT_37_cls-8" d="M126.56,417.07a24.14,24.14,0,0,1-.52,2.75c-.15.58-1.13,1.28-2.6,2a50.81,50.81,0,0,1-13.55,3.8c-.3.05-.61.08-.9.11-.52.07-1,.11-1.53.14-.13,0-.26,0-.4,0a19.2,19.2,0,0,1-3.68-.07,13.65,13.65,0,0,1-2.48-.59c-3.44-1.12-7.34-3.46-11.37-5.59-3.85-2,2.5-3.87-1.27-4.21-8.68-.8-9.49-1-12.15-3.82-.18-.19-.37-.39-.56-.61-1.71-1.88-4.23-4.94-6.92-8h0c-1.75-2-3.56-4-5.29-5.68l-.14-.16a14.34,14.34,0,0,1-2.76-4.65v0l0-.05c-1.81-4.43-3-10.44-3.9-15.3-.09-.44-.17-.88-.25-1.29L55.92,374c-.07-.37-.15-.74-.22-1.09,0-.18-.08-.36-.11-.52-.06-.34-.13-.66-.2-.95s-.09-.4-.14-.58c-.08-.38-.16-.75-.24-1.1-.19-.89-.35-1.7-.49-2.42a48.89,48.89,0,0,1-.77-5.15h.12l.25,0a.86.86,0,0,0,.24,0l.15,0,.34.06c1.22.2,3.49.55,6.84,1l-.49,2.24s.34.53.83,1.46c.12.22.26.48.4.76s.15.28.22.43c.22.45.46,1,.71,1.49.17.36.33.73.5,1.13a19.68,19.68,0,0,1,.86,4.57h0l.44.1,1,.23,1.07.27c.53.13,1.08.28,1.59.44a10.12,10.12,0,0,1,2.36.95.89.89,0,0,1,.31.3.28.28,0,0,1,0,.18.19.19,0,0,1,0,.08.33.33,0,0,1-.06.1,1.5,1.5,0,0,1-.14.18c-.12.1-.28.23-.47.36l-.19.14-.27.16a1.48,1.48,0,0,1-.13.08l-.06,0c-.48.28-1,.57-1.64.85l-.18.09-.27.12-1.1.49-.5.21-1.18.48c.08.95.16,1.87.25,2.75,0,.44.09.88.14,1.29,0,.21.06.42.08.61.07.59.16,1.15.25,1.66.06.34.12.65.19.93a5.87,5.87,0,0,0,.21.76,3.8,3.8,0,0,0,.23.56,61.51,61.51,0,0,0,5.67,8.19c2.11-.95,5.67-2.46,6.49-2.1s-1.29,4.72-2.38,6.77c.21.22.42.44.64.65a13.47,13.47,0,0,0,1,.95c3.28,2.75,8.13,4.72,14,6.84.45-.58,1-1.25,1.53-1.89.28-.32.55-.63.82-.92l0,0c.25-.27.51-.52.74-.74.08-.06.14-.13.21-.19a4.93,4.93,0,0,1,.4-.33h0l.1-.06.05,0a.56.56,0,0,1,.17-.09l.05,0,.08,0a.43.43,0,0,1,.19,0h.11l.07,0,.08.05.06.06v0l.09.1,0,.08s0,0,0,0a1.36,1.36,0,0,1,.1.21.69.69,0,0,1,0,.08s0,0,0,0a.49.49,0,0,1,0,.16.11.11,0,0,1,0,.06l0,.09a4,4,0,0,1,.11.41c0,.08,0,.14,0,.22s.06.28.1.43c.11.57.2,1.21.27,1.85a2.45,2.45,0,0,0,0,.27l0,.27c0,.1,0,.2,0,.31s0,.16,0,.24,0,.26,0,.39c0,.38.06.75.08,1.08.32.12.38.24.27.35a.27.27,0,0,1-.15.12,1.63,1.63,0,0,1-.37.16l-.16.06-.55.16-.84.23-.87.23-.21.05-.4.13c-.94.28-1.5.58-.72.89a64,64,0,0,0,9,2.85,40.35,40.35,0,0,0,5.36.89h0c.67-2,1.9-5.45,2.75-5.74.27-.09.63.21,1,.73l.11.16a31.31,31.31,0,0,1,2.51,4.86c1.4-.11,2.73-.31,4-.53a7.24,7.24,0,0,0,.89-.22,5.82,5.82,0,0,0,1.1-.49l.31-.2a4.13,4.13,0,0,0,.55-.47,5.53,5.53,0,0,0,1.34-2.46A29.07,29.07,0,0,0,126.56,417.07Z" />
        <path class="GUNDAN_DESERT_FOX_OUTFIT_DESERT_FOX_OUTFIT_37_cls-8" d="M116,404.54a6.17,6.17,0,0,0-.09,4.08,37.56,37.56,0,0,1-7.18.68,38,38,0,0,1-16.06-3.5c-8.71-4.11-4.65-11.31-10.16-17.67a57.15,57.15,0,0,1-7.13-9.49,18.81,18.81,0,0,1-2.56-11.9,13.59,13.59,0,0,1,.54-2.2c1.45,0,3,.07,4.64,0a9.6,9.6,0,0,0-.84,2.71c-.57,3.67.85,7.23,2.14,9.57A54.67,54.67,0,0,0,86,385.69c5.23,6,.87,12.87,8.73,16.58A33.6,33.6,0,0,0,116,404.54Z" />
        <path class="GUNDAN_DESERT_FOX_OUTFIT_DESERT_FOX_OUTFIT_37_cls-6" d="M120,404.36c1.12-1.52,2.25-1.57,3.93-1.14-.25,1.47-.51,2.72-.64,3.65-.16,1.23-.07,2.85-.1,4.51-1.3-.88-2.45-1.74-3.13-2.26a3.51,3.51,0,0,1-.74-1.3,3.47,3.47,0,0,1,.41-3.05A3.21,3.21,0,0,1,120,404.36Z" />
        <path class="GUNDAN_DESERT_FOX_OUTFIT_DESERT_FOX_OUTFIT_37_cls-6" d="M77.19,367.29a9.6,9.6,0,0,1,.84-2.71c9.8-.15,11.88-1.76,21-6.26l2.6-.29h0c1.3-.14,2.2-.26,2.2-.26s-2.35,7-1.06,11.7,7.74,14.77,12.61,12.5c1.91-.9,2.56-2.89,2.39-5l.69,0c.34,3.63,1.14,7.07,2.72,9.46A21.15,21.15,0,0,1,124.31,400a9,9,0,0,0-2.53-.19c-.12-.23-2.29-4.71-8.77-6.87-6.66-2.22-18.07-8.18-13-18.59-5,4.51-6.12,12.91-.37,17.62s13.81,2.44,18.07,9.78c-.22.25-.46.52-.68.82a7.73,7.73,0,0,0-1,1.94,33.6,33.6,0,0,1-21.31-2.27c-7.86-3.71-3.5-10.55-8.73-16.58a54.67,54.67,0,0,1-6.66-8.83C78,374.52,76.62,371,77.19,367.29Z" />
        <path class="GUNDAN_DESERT_FOX_OUTFIT_DESERT_FOX_OUTFIT_37_cls-13" d="M134,405.91h0a6.25,6.25,0,0,1,1.93,1.16q3.36,3,6.8,5.75c4.12,3.36,8.3,6.52,12.5,9.5q1,.74,2,1.41c4.05,2.83,8.13,5.49,12.15,8,2.36,1.46,3.89,2.86,6.22,4.19" />
        <path class="GUNDAN_DESERT_FOX_OUTFIT_DESERT_FOX_OUTFIT_37_cls-13" d="M156.85,438.37l-1.84-1.2-1.51-1q-1.86-1.25-3.72-2.54l-1.47-1c-.21-.14-.43-.29-.64-.45l-1.43-1q-1.77-1.28-3.54-2.59l-1.63-1.21-1.9-1.45-2.5-2-2-1.6-2-1.63c-1.34-1.1-2.66-2.22-4-3.35" />
        <path class="GUNDAN_DESERT_FOX_OUTFIT_DESERT_FOX_OUTFIT_37_cls-13" d="M127.82,406.32a4.42,4.42,0,0,1,.85-.41" />
        <path class="GUNDAN_DESERT_FOX_OUTFIT_DESERT_FOX_OUTFIT_37_cls-13" d="M127,413.7c.11-.86.21-1.75.31-2.63" />
        <path class="GUNDAN_DESERT_FOX_OUTFIT_DESERT_FOX_OUTFIT_37_cls-13" d="M101.6,358c1.3-.14,2.2-.26,2.2-.26a8.62,8.62,0,0,1,3.47-2.31,21.68,21.68,0,0,1,7-.62" />
        <path class="GUNDAN_DESERT_FOX_OUTFIT_DESERT_FOX_OUTFIT_37_cls-13" d="M78,364.58c9.8-.15,11.88-1.76,21-6.26l2.6-.29" />
        <path class="GUNDAN_DESERT_FOX_OUTFIT_DESERT_FOX_OUTFIT_37_cls-13" d="M60.42,392.48a.15.15,0,0,0,0-.06c-2.62-6.44-3.94-16.2-5-21a67.73,67.73,0,0,1-1.64-9.25s2.57.48,7.94,1.19c1.72.23,3.74.49,6,.76,1.63.19,3.54.33,5.66.39" />
        <path class="GUNDAN_DESERT_FOX_OUTFIT_DESERT_FOX_OUTFIT_37_cls-13" d="M126.56,417.07a24.14,24.14,0,0,1-.52,2.75c-.15.58-1.13,1.28-2.6,2a50.81,50.81,0,0,1-13.55,3.8c-.3.05-.61.08-.9.11-.52.07-1,.11-1.53.14-.13,0-.26,0-.4,0a19.2,19.2,0,0,1-3.68-.07,13.65,13.65,0,0,1-2.48-.59c-3.44-1.12-7.34-3.46-11.37-5.59-3.85-2,2.5-3.87-1.27-4.21-8.68-.8-9.49-1-12.15-3.82-.18-.19-.37-.39-.56-.61-1.71-1.88-4.23-4.94-6.92-8h0c-1.75-2-3.56-4-5.29-5.68l-.14-.16a14.34,14.34,0,0,1-2.76-4.65" />
        <path class="GUNDAN_DESERT_FOX_OUTFIT_DESERT_FOX_OUTFIT_37_cls-13" d="M127.69,407.44c0-.4.09-.77.13-1.12" />
        <path class="GUNDAN_DESERT_FOX_OUTFIT_DESERT_FOX_OUTFIT_37_cls-13" d="M128.4,401.68h0c.1-.59.23-1.36.4-2.33s.37-2.16.62-3.58c1.12-6.37-3.27-5.91-6.84-16.27a25.29,25.29,0,0,1-.49-15.77.6.6,0,0,1,0-.08c.12-.79,1.12-7.26,2.31-9.39-1-2.4-3.81-.73-3.81-.73l-.91,4.3-.61,2.9a83.52,83.52,0,0,0-.82,9.29h0a59.33,59.33,0,0,0,.12,6.24c0,.22,0,.41.05.62.34,3.63,1.14,7.07,2.72,9.45a21.19,21.19,0,0,1,3.16,13.7" />
        <path class="GUNDAN_DESERT_FOX_OUTFIT_DESERT_FOX_OUTFIT_37_cls-13" d="M64.72,375.46a19.68,19.68,0,0,0-.86-4.56,41.33,41.33,0,0,0-2.66-5.28l.49-2.23" />
        <path class="GUNDAN_DESERT_FOX_OUTFIT_DESERT_FOX_OUTFIT_37_cls-13" d="M72.27,398.06a63.21,63.21,0,0,1-5.66-8.19c-.66-1.22-1-4.8-1.35-8.56" />
        <path class="GUNDAN_DESERT_FOX_OUTFIT_DESERT_FOX_OUTFIT_37_cls-13" d="M108.19,419.39a52.83,52.83,0,0,1-14.31-3.74c-2.17-.86,6-1.64,4-2.38" />
        <path class="GUNDAN_DESERT_FOX_OUTFIT_DESERT_FOX_OUTFIT_37_cls-13" d="M122.78,415a4.88,4.88,0,0,1-4.18,3.83c-1.29.23-2.61.42-4,.54" />
        <path class="GUNDAN_DESERT_FOX_OUTFIT_DESERT_FOX_OUTFIT_37_cls-13" d="M123.93,403.22c-.25,1.47-.51,2.72-.64,3.65-.16,1.23-.07,2.85-.1,4.51" />
        <path class="GUNDAN_DESERT_FOX_OUTFIT_DESERT_FOX_OUTFIT_37_cls-13" d="M92,411.17c-6.48-2.36-11.76-4.53-15-7.79-.22-.21-.43-.43-.63-.65" />
        <path class="GUNDAN_DESERT_FOX_OUTFIT_DESERT_FOX_OUTFIT_37_cls-13" d="M114.58,419.39c-1-2.22-2.77-6-3.64-5.75s-2.08,3.7-2.75,5.75" />
        <path class="GUNDAN_DESERT_FOX_OUTFIT_DESERT_FOX_OUTFIT_37_cls-13" d="M97.88,413.27c-.15-2.38-.53-6.53-1.45-6.5s-3,2.64-4.4,4.4" />
        <path class="GUNDAN_DESERT_FOX_OUTFIT_DESERT_FOX_OUTFIT_37_cls-13" d="M76.39,402.73c1.09-2,3.27-6.36,2.38-6.77s-4.38,1.15-6.5,2.1" />
        <path class="GUNDAN_DESERT_FOX_OUTFIT_DESERT_FOX_OUTFIT_37_cls-13" d="M64.72,375.46h0c2.24.5,6.37,1.51,6.75,2.29s-3.81,2.59-6.21,3.55" />
        <line class="GUNDAN_DESERT_FOX_OUTFIT_DESERT_FOX_OUTFIT_37_cls-13" x1="101.59" y1="358.03" x2="101.6" y2="358.02" />
        <path class="GUNDAN_DESERT_FOX_OUTFIT_DESERT_FOX_OUTFIT_37_cls-13" d="M60.42,392.48v0" />
        <path class="GUNDAN_DESERT_FOX_OUTFIT_DESERT_FOX_OUTFIT_37_cls-13" d="M132.07,413.13c0,.07.06.15.08.22" />
        <path class="GUNDAN_DESERT_FOX_OUTFIT_DESERT_FOX_OUTFIT_37_cls-13" d="M129.36,402.32c-.05-.29-.1-.6-.14-.9a.36.36,0,0,0,0-.1c-.11-.69-.24-1.35-.4-2" />
        <path class="GUNDAN_DESERT_FOX_OUTFIT_DESERT_FOX_OUTFIT_37_cls-13" d="M115.94,408.62a37.56,37.56,0,0,1-7.18.68,38,38,0,0,1-16.06-3.5c-8.71-4.11-4.65-11.31-10.16-17.67a57.15,57.15,0,0,1-7.13-9.49,18.81,18.81,0,0,1-2.56-11.9,13.59,13.59,0,0,1,.54-2.2c1.45,0,3,.07,4.64,0a9.6,9.6,0,0,0-.84,2.71c-.57,3.67.85,7.23,2.14,9.57A54.67,54.67,0,0,0,86,385.69c5.23,6,.87,12.87,8.74,16.58a33.56,33.56,0,0,0,21.3,2.27" />
        <path class="GUNDAN_DESERT_FOX_OUTFIT_DESERT_FOX_OUTFIT_37_cls-13" d="M132.73,412.65l-.58.7-2.76,3.47-.15.17a2,2,0,0,1-.55.34,1.92,1.92,0,0,1-.72.14l-.31,0-.3-.07a2.12,2.12,0,0,1-.29-.11l-.51-.2a29.07,29.07,0,0,1-3.78-2.05c-2.48-1.56-4.71-3.28-5.11-3.58a.86.86,0,0,1-.14-.13c-.08-.07-.14-.15-.22-.23s-.28-.34-.44-.55-.28-.44-.42-.69-.13-.24-.19-.37a.69.69,0,0,0-.05-.13l-.12-.28a.25.25,0,0,1,0-.07c0-.12-.09-.24-.13-.37s-.08-.29-.12-.45-.07-.31-.1-.47a6.08,6.08,0,0,1,.31-3.16,6.74,6.74,0,0,1,.43-1,7.58,7.58,0,0,1,.62-1c.22-.3.46-.57.68-.82s.24-.24.36-.34.25-.22.37-.32l.07-.05,0,0,.25-.18.18-.12.16-.09a1.78,1.78,0,0,1,.3-.17h0l.44-.2h0a3.61,3.61,0,0,1,.46-.17,3.74,3.74,0,0,1,.45-.12h0a3.73,3.73,0,0,1,.46-.09h.11l.36,0a1.48,1.48,0,0,1,.3,0l.29,0h.12l.39,0,.52.05.11,0h0l.3.05a3.4,3.4,0,0,1,.46.08c.69.14,1.3.33,1.8.48l.11,0a9.3,9.3,0,0,1,1.88.94l.3.19h0c.16.09.31.2.47.31l.12.08.13.09.23.16.6.43.61.45.62.47c1,.78,2,1.57,2.77,2.24h0l.39.33h0l.19.17.76.66a.34.34,0,0,1,.12.12.21.21,0,0,1,.06.08s0,0,0,.05h0l.1.14a.91.91,0,0,1,.07.14.47.47,0,0,1,.06.15,1.63,1.63,0,0,1,.07.3,1.52,1.52,0,0,1-.07.64,1.63,1.63,0,0,1-.11.23,1.82,1.82,0,0,1-.15.23h0l-2.72,3.39" />
        <path class="GUNDAN_DESERT_FOX_OUTFIT_DESERT_FOX_OUTFIT_37_cls-13" d="M128.86,412.07l-1.47,1.83-.4-.2c-.67-.35-1.4-.78-2.14-1.24-.56-.35-1.13-.73-1.66-1.08-1.3-.88-2.45-1.74-3.13-2.26a3.51,3.51,0,0,1-.74-1.3,3.47,3.47,0,0,1,.41-3.05,3.21,3.21,0,0,1,.27-.41c1.12-1.52,2.25-1.57,3.93-1.14l1.07.31.11,0a13.66,13.66,0,0,1,2.81,1.79q.37.27.75.57c.52.4,1.06.82,1.6,1.26l1.51,1.25-.87,1.08" />
        <path class="GUNDAN_DESERT_FOX_OUTFIT_DESERT_FOX_OUTFIT_37_cls-13" d="M128.86,412.07l1.44.93a2,2,0,0,0,1.77.13,1.63,1.63,0,0,0,.65-.48l0,0a.25.25,0,0,0,0-.07,1.5,1.5,0,0,0-.46-2.15l-1.42-.9-3.22-2.06,0,0a1.88,1.88,0,0,0-2.45.37,1.5,1.5,0,0,0,.43,2.22l1.67,1.07Z" />
        <path class="GUNDAN_DESERT_FOX_OUTFIT_DESERT_FOX_OUTFIT_37_cls-13" d="M113.17,355.6a12.84,12.84,0,0,0-5.6,11.86c.76,8,4.9,10.6,6.58,9.7s1.92-6.31-1.49-8c2.58.71,4.82,4.42,5.08,7.73.17,2.15-.48,4.14-2.39,5-4.87,2.27-11.3-7.78-12.61-12.5s1.06-11.7,1.06-11.7" />
        <path class="GUNDAN_DESERT_FOX_OUTFIT_DESERT_FOX_OUTFIT_37_cls-13" d="M121.78,399.85h0c-.12-.23-2.29-4.71-8.77-6.87-6.66-2.22-18.07-8.18-13-18.59-5,4.51-6.12,12.91-.37,17.62s13.81,2.44,18.07,9.78" />
        <g class="GUNDAN_DESERT_FOX_OUTFIT_DESERT_FOX_OUTFIT_37_cls-14">
          <path d="M247,472.71s-24.26-5.71-45.24-16.2-69.64-42.81-69.64-42.81l-3.08,3.51s31.6,25.76,55.05,36.88c-17.35-10.8-22.66-17.69-22.66-17.69s32,19.81,42.78,25.77S235.57,475,235.57,475s6.65,2.19,9,.62S247,472.71,247,472.71Z" />
        </g>
        <path class="GUNDAN_DESERT_FOX_OUTFIT_DESERT_FOX_OUTFIT_37_cls-13" d="M113.18,355.6a10.46,10.46,0,0,1,1.51-1,8.45,8.45,0,0,1,5.58-1.15l.33.08" />
        <path class="GUNDAN_DESERT_FOX_OUTFIT_DESERT_FOX_OUTFIT_37_cls-9" d="M142.69,412.83l-6,11.08c-.67-.53-1.33-1.07-2-1.6l-2-1.63c-1.34-1.1-2.66-2.22-4-3.35a1.92,1.92,0,0,1-.72.14l-.31,0-.3-.07a2.12,2.12,0,0,1-.29-.11l-.51-.2a24.14,24.14,0,0,1-.52,2.75c-.15.58-1.13,1.28-2.6,2a50.81,50.81,0,0,1-13.55,3.8c-.3.05-.61.08-.9.11-.52.07-1,.11-1.53.14-.13,0-.26,0-.4,0a19.2,19.2,0,0,1-3.68-.07,13.65,13.65,0,0,1-2.48-.59c-3.44-1.12-7.34-3.46-11.37-5.59-3.85-2,2.5-3.87-1.27-4.21-8.68-.8-9.49-1-12.15-3.82-.18-.19-.37-.39-.56-.61-1.71-1.88-4.23-4.94-6.92-8a39.31,39.31,0,0,0,9.44,1.34,33.35,33.35,0,0,0,10.63-1.48,34.35,34.35,0,0,0,4.21-1.63,37.59,37.59,0,0,0,10.26-7.17,46.29,46.29,0,0,0,3.57-3.86,60.32,60.32,0,0,0,5.7-8.16l.08-.14a85.57,85.57,0,0,0,4.29-8.42h0s0,0,0,0c.49-1.1,1-2.24,1.44-3.41h0c.09-.21.18-.42.27-.65h0c.34-.86.67-1.74,1-2.64a39.8,39.8,0,0,1,2.57-3.08.6.6,0,0,0,0,.08,25.29,25.29,0,0,0,.49,15.77c3.57,10.36,8,9.9,6.84,16.27-.25,1.42-.46,2.59-.62,3.58.16.63.29,1.29.4,2a.36.36,0,0,1,0,.1c0,.3.09.61.14.9.19.14.39.27.59.43l.61.45.62.47c1,.78,2,1.57,2.77,2.24h0a6.25,6.25,0,0,1,1.93,1.16Q139.25,410.05,142.69,412.83Z" />
      </g>
    </g>
  </g>
</svg>