<svg xmlns="http://www.w3.org/2000/svg" viewBox="0 0 432 432">
  <defs>
    <style>.GUNDAN_DESERT_FOX_OUTFIT_DESERT_FOX_OUTFIT_9_cls-1{isolation:isolate;}.GUNDAN_DESERT_FOX_OUTFIT_DESERT_FOX_OUTFIT_9_cls-2{fill:#fff;}.GUNDAN_DESERT_FOX_OUTFIT_DESERT_FOX_OUTFIT_9_cls-3{fill:#eaded0;}.GUNDAN_DESERT_FOX_OUTFIT_DESERT_FOX_OUTFIT_9_cls-4{fill:#6f5d49;}.GUNDAN_DESERT_FOX_OUTFIT_DESERT_FOX_OUTFIT_9_cls-5{fill:#d7af71;}.GUNDAN_DESERT_FOX_OUTFIT_DESERT_FOX_OUTFIT_9_cls-6{fill:#272123;}.GUNDAN_DESERT_FOX_OUTFIT_DESERT_FOX_OUTFIT_9_cls-7{fill:#70745d;}.GUNDAN_DESERT_FOX_OUTFIT_DESERT_FOX_OUTFIT_9_cls-8{fill:none;stroke:#000;stroke-linecap:round;stroke-linejoin:round;stroke-width:2px;}.GUNDAN_DESERT_FOX_OUTFIT_DESERT_FOX_OUTFIT_9_cls-9{opacity:0.22;mix-blend-mode:multiply;}</style>
  </defs>
  <g class="GUNDAN_DESERT_FOX_OUTFIT_DESERT_FOX_OUTFIT_9_cls-1">
    <g id="outfit">
      <path class="GUNDAN_DESERT_FOX_OUTFIT_DESERT_FOX_OUTFIT_9_cls-2" d="M261.7,375.9a2,2,0,0,0-2.36-.32l0,0-3.11,1.78-1.38.78a1.22,1.22,0,0,0-.45,1.86l0,.05,0,0a1.56,1.56,0,0,0,.64.42,1.93,1.93,0,0,0,.73.13,2,2,0,0,0,1-.25l1.4-.8,1.51-.87,1.62-.92A1.22,1.22,0,0,0,261.7,375.9Zm8.88-2.8a6.35,6.35,0,0,0-1-1.68,9.07,9.07,0,0,0-.66-.71A6.18,6.18,0,0,0,265,369a9.74,9.74,0,0,0-2.45.17c-.66.12-1.26.28-1.75.41l-.1,0a9.66,9.66,0,0,0-2.11,1c-.3.18-.61.36-.92.56-1.55,1-3.23,2.19-4.45,3.1l-1.31,1a1.18,1.18,0,0,0-.2,1.79l2.63,2.94,0,.05,0,0a1.56,1.56,0,0,0,.64.42l-.09.19,2.68,3a1.7,1.7,0,0,0,.67.44,2.06,2.06,0,0,0,.7.12,2,2,0,0,0,.59-.08,8.11,8.11,0,0,0,.78-.27,28.18,28.18,0,0,0,3.65-1.77c2.4-1.34,4.56-2.84,4.94-3.09l.14-.11a5.81,5.81,0,0,0,1.54-2.33A4.81,4.81,0,0,0,270.58,373.1Zm-3.18,2.84a3.22,3.22,0,0,1-.72,1.12c-.65.45-1.77,1.19-3,1.95-.51.31-1.06.63-1.61.94-.71.4-1.41.77-2.06,1.07l-.39.18-1.42-1.59,1.51-.87,1.62-.92a1.22,1.22,0,0,0,.4-1.92,2,2,0,0,0-2.36-.32l0,0-3.11,1.78-.84-.94,1.45-1.08,1.55-1.09.73-.49a13.56,13.56,0,0,1,2.72-1.55l.1,0,1-.26c1.62-.37,2.72-.33,3.8,1a3.49,3.49,0,0,1,.26.35A2.74,2.74,0,0,1,267.4,375.94Z" />
      <path class="GUNDAN_DESERT_FOX_OUTFIT_DESERT_FOX_OUTFIT_9_cls-3" d="M323.16,337.51l.46,1.93a35,35,0,0,0-2.57,4.57,16.1,16.1,0,0,0-.83,3.94h0c-2.17.43-6.16,1.3-6.52,2s3.68,2.24,6,3.07c-.32,3.26-.66,6.34-1.31,7.4a54.34,54.34,0,0,1-5.47,7.09c-2.05-.83-5.5-2.13-6.29-1.82s1.25,4.09,2.3,5.85c-.19.19-.4.39-.61.57-3.15,2.82-8.25,4.7-14.52,6.74-1.32-1.53-3.41-3.79-4.25-3.81s-1.27,3.56-1.41,5.62c-2,.64,6,1.32,3.87,2.06a56,56,0,0,1-13.85,3.23c-.64-1.77-1.83-4.72-2.65-5s-2.6,3-3.53,5c-1.36-.11-2.64-.28-3.88-.47a4.54,4.54,0,0,1-4.05-3.32c2.4-1.34,4.56-2.84,4.94-3.09l.14-.11a5.81,5.81,0,0,0,1.54-2.33,41.36,41.36,0,0,0,6.95.59,40.51,40.51,0,0,0,15.53-3c8.43-3.56,4.5-9.78,9.83-15.28a50.05,50.05,0,0,0,6.9-8.21c2.18-3.53,3-7.09,2.48-10.29a10.26,10.26,0,0,0-.52-1.9c2.05-.06,3.89-.18,5.47-.35Q320.66,337.82,323.16,337.51Z" />
      <path class="GUNDAN_DESERT_FOX_OUTFIT_DESERT_FOX_OUTFIT_9_cls-3" d="M268.26,349.17a58.84,58.84,0,0,0-.62-14c2.48-2.11,4.55-3.63,5.71-4.44,0,0,6.16,3.36,5.41,10.26s-4.74,9.17-6.36,8.39-1.86-5.46,1.44-6.9c-2.5.62-4.66,3.83-4.91,6.7Z" />
      <path class="GUNDAN_DESERT_FOX_OUTFIT_DESERT_FOX_OUTFIT_9_cls-4" d="M259.3,375.61c-.05-.34-.09-.67-.12-1a5.08,5.08,0,0,0-.83-.36c-.5.35-1,.71-1.55,1.1l-1.45,1.07.84.94Z" />
      <path class="GUNDAN_DESERT_FOX_OUTFIT_DESERT_FOX_OUTFIT_9_cls-4" d="M259.68,378.75l-1.51.86,1.42,1.59L260,381C259.87,380.28,259.77,379.51,259.68,378.75Z" />
      <path class="GUNDAN_DESERT_FOX_OUTFIT_DESERT_FOX_OUTFIT_9_cls-4" d="M257.66,383.72l-2.68-3-.55-.61s0,0,0,0l0-.05-2.63-2.94a1.18,1.18,0,0,1,.2-1.79l1.31-1a6.53,6.53,0,0,0-1.87,1,226.55,226.55,0,0,1-18.68,13.19c-.64.42-1.3.82-1.94,1.22q-5.9,3.66-11.76,6.9c-2.28,1.26-3.76,2.47-6,3.63h0c-3.08,1.59-6.13,3.09-9.12,4.51A315.67,315.67,0,0,1,155.53,423c-2.56.73-4.54,1.25-5.84,1.57l-1.76.43c-3.39.75-5.38,3.59-4.44,6.32a6.14,6.14,0,0,0,5.59,3.77,4.87,4.87,0,0,0,.54,0,8.14,8.14,0,0,0,1.68-.18c.32-.07,1.58-.36,3.63-.88A314.94,314.94,0,0,0,205.52,416h0c3.42-1.55,6.92-3.21,10.47-5,4-2,7.29-4.15,11.39-6.46h0c1.22-.68,2.44-1.38,3.67-2.1h0a254.86,254.86,0,0,0,27.24-18.21A1.6,1.6,0,0,1,257.66,383.72Z" />
      <path class="GUNDAN_DESERT_FOX_OUTFIT_DESERT_FOX_OUTFIT_9_cls-5" d="M231.29,385.82c-.22,1.35-.4,2.66-.54,3.89.64-.4,1.3-.8,1.94-1.22A6.31,6.31,0,0,1,231.29,385.82Z" />
      <path class="GUNDAN_DESERT_FOX_OUTFIT_DESERT_FOX_OUTFIT_9_cls-5" d="M260.89,386.31a21.8,21.8,0,0,1-.49-2.37c-.27.1-.54.19-.78.26a2,2,0,0,1-.59.09,2.07,2.07,0,0,1-.7-.13,254.86,254.86,0,0,1-27.24,18.21,39.42,39.42,0,0,1,8.67-.94c7.31,0,22.52-1.53,23.5-11.52.06-.59.11-1.22.15-1.87C262,387.42,261.05,386.82,260.89,386.31Z" />
      <path class="GUNDAN_DESERT_FOX_OUTFIT_DESERT_FOX_OUTFIT_9_cls-5" d="M205.52,415.94h0c.37,2.69.74,5.67,1.07,8.75s.65,6.28.86,9.36.34,6.16.32,8.87h15.66c0-2.7.11-5.73.33-8.87s.51-6.26.84-9.36c1.17-10.68,2.78-20.22,2.78-20.22-4.1,2.31-7.38,4.46-11.39,6.46C212.44,412.73,208.94,414.39,205.52,415.94Z" />
      <path class="GUNDAN_DESERT_FOX_OUTFIT_DESERT_FOX_OUTFIT_9_cls-5" d="M199.66,384.31c-.29,4.07-3.18,7.84-12.56,5.76s-12.54-9.52-14.22-19.75-12.34-13.52-19.26-10.16c15,.55,12.84,19.75,13.83,29.75s16.2,11.52,23.51,11.52a35.07,35.07,0,0,1,12.11,1.95c-.73-1.35-1.81-4.1-2.18-9A98.55,98.55,0,0,0,199.66,384.31Z" />
      <path class="GUNDAN_DESERT_FOX_OUTFIT_DESERT_FOX_OUTFIT_9_cls-6" d="M243.5,351.88c1.44-3.69,5.6-9.06,10.11-14-2.23.77-5,1.67-7.44,2.27-5.14,1.28-11.95,4.56-13.23,6.8,1.57,4.64,3.9,14-5.51,15.65,3.4-2.15,6.81-10.25,1.48-11.21s-5.63,8.87-6.08,11.21c-.36,1.91-1.75,15.14-4.69,22.64a15.67,15.67,0,0,1-2.15,4.06c-4-4.85-7.18-24.35-7.63-26.7-.18-1-.34-3.26-.85-5.51-.72-3.16-2.11-6.26-5.22-5.7-5.33,1-1.92,9.06,1.49,11.21-9.41-1.62-7.09-11-5.51-15.65-1.28-2.24-8.1-5.52-13.24-6.8-2.43-.6-5.21-1.5-7.44-2.27,4.51,4.93,8.66,10.3,10.1,14,3.11,7.91,5.79,5.63,15.12,16.56s9.48,30.1,9.48,30.1l.69,1.7c2.25-1.16,3.73-2.37,6-3.63.31-5.14,1.86-19.36,9.4-28.17C237.73,357.51,240.39,359.79,243.5,351.88Z" />
      <path class="GUNDAN_DESERT_FOX_OUTFIT_DESERT_FOX_OUTFIT_9_cls-6" d="M241.63,365c-6.35,3.78-9.08,13-10.34,20.84v0a6.31,6.31,0,0,0,1.4,2.67,226.55,226.55,0,0,0,18.68-13.19,6.53,6.53,0,0,1,1.87-1c1.22-.91,2.9-2.13,4.45-3.1.06-.29.1-.58.15-.86a14.91,14.91,0,0,1,.39-1.72c-.16-.84-.37-1.86-.6-3.09-1.09-5.51,3.16-5.11,6.62-14.07a19.74,19.74,0,0,0,.47-13.64,66.47,66.47,0,0,0-8.55,9.58C248.69,357.75,250.61,359.59,241.63,365Z" />
      <path class="GUNDAN_DESERT_FOX_OUTFIT_DESERT_FOX_OUTFIT_9_cls-6" d="M155.53,423a315.67,315.67,0,0,0,48.33-18.25c0-.18,0-.28,0-.28a5.41,5.41,0,0,1-.75-1.1A35.07,35.07,0,0,0,191,401.43c-7.31,0-22.52-1.53-23.51-11.52s1.18-29.2-13.83-29.75c6.92-3.36,17.58-.09,19.26,10.16s4.84,17.67,14.22,19.75,12.27-1.69,12.56-5.76c-1.36-7.49-4.13-15.81-10.09-19.35-9-5.37-7.06-7.21-14.54-17.58a53.83,53.83,0,0,0-17.27-15.33l-1.37-2.57s-14.19,5.31-18.48,9.21c-3.24,2.95-10.82,7.81-17.27,10.66a80.59,80.59,0,0,1,11.2,7.81c7.55,6.24,22.81,28.79,23.91,40.66C156.25,403.24,156,413.48,155.53,423Z" />
      <path class="GUNDAN_DESERT_FOX_OUTFIT_DESERT_FOX_OUTFIT_9_cls-6" d="M275,397.82a27.84,27.84,0,0,1,1.56-6.5A54,54,0,0,1,263.41,388c0,.65-.09,1.28-.15,1.87-1,10-16.19,11.51-23.5,11.51a39.91,39.91,0,0,0-8.65.94h-.05c-1.23.72-2.45,1.42-3.67,2.1h0s-1.61,9.54-2.78,20.22c-.33,3.1-.63,6.28-.84,9.36s-.34,6.17-.33,8.87h52.94C275.85,435.56,274,408.06,275,397.82Zm-42.12,35.92a2.43,2.43,0,0,1-2.2-1.18,1.61,1.61,0,0,1-.2-.77,2.45,2.45,0,1,1,2.4,1.95Zm0-9.22a2.45,2.45,0,0,1-2.2-1.18,1.67,1.67,0,0,1-.2-.77,2.45,2.45,0,1,1,2.4,1.95Z" />
      <path class="GUNDAN_DESERT_FOX_OUTFIT_DESERT_FOX_OUTFIT_9_cls-6" d="M207.69,438.63v-.1c-.05-1.44-.13-2.94-.24-4.47-.16-2.31-.37-4.68-.61-7-.06-.61-.13-1.21-.2-1.82,0-.17,0-.34,0-.51-.3-2.82-.64-5.56-1-8.06-.05-.39-.08-.63-.09-.69q-4.26,1.94-8.35,3.66c-6.6,2.78-12.79,5.14-18.35,7.1-10.75,3.8-19.18,6.14-23.76,7.31l-.07,0-.06,0c0,.14,0,.28,0,.41-.24,3.66-.44,6.66-.56,8.46h53.42v-.76C207.77,441,207.74,439.85,207.69,438.63Zm-10.05-17.92a2.71,2.71,0,0,1,.71-.09,2.22,2.22,0,0,1,2.4,1.95,1.67,1.67,0,0,1-.2.77,2.45,2.45,0,0,1-2.2,1.18,2.22,2.22,0,0,1-2.4-1.95A2.05,2.05,0,0,1,197.64,420.71Zm.71,9.14a2.21,2.21,0,0,1,2.4,1.94,1.61,1.61,0,0,1-.2.77,2.43,2.43,0,0,1-2.2,1.18,2,2,0,1,1,0-3.89Z" />
      <path class="GUNDAN_DESERT_FOX_OUTFIT_DESERT_FOX_OUTFIT_9_cls-5" d="M263.65,379a33.88,33.88,0,0,0-.1-3.9c-.12-.8-.37-1.88-.61-3.15l-1,.26-.1,0a13.35,13.35,0,0,0-2.72,1.54l-.73.49a5.08,5.08,0,0,1,.83.36c0,.3.07.63.12,1l0,0a2,2,0,0,1,2.36.32,1.22,1.22,0,0,1-.4,1.92l-1.62.93c.09.76.19,1.53.3,2.28.65-.31,1.35-.68,2.06-1.08C262.59,379.65,263.14,379.32,263.65,379Z" />
      <path class="GUNDAN_DESERT_FOX_OUTFIT_DESERT_FOX_OUTFIT_9_cls-5" d="M273.51,363.1c-6.28,1.86-8.38,5.73-8.49,5.93a6.24,6.24,0,0,1,3.88,1.68c4.13-6.34,11.94-4.37,17.49-8.45s4.46-11.34-.36-15.24C291,356,280,361.17,273.51,363.1Z" />
      <path class="GUNDAN_DESERT_FOX_OUTFIT_DESERT_FOX_OUTFIT_9_cls-5" d="M274,330l.33.06a34.6,34.6,0,0,1,4.74.55,8.91,8.91,0,0,1,3.36,2s2.27,6,1,10.12a14.34,14.34,0,0,1-.81,1.95l-.29.55c-.13.26-.28.52-.44.78s-.37.61-.56.92l-.21.32-.1.14a24.65,24.65,0,0,1-2,2.63l-.06.06-.19.2-.42.44-.43.42a3.45,3.45,0,0,1-.28.26c-.13.12-.26.24-.4.35s-.42.35-.64.51-.32.24-.49.35a8.34,8.34,0,0,1-1,.6l-.45.2-.24.09a4.06,4.06,0,0,1-.73.22l-.28.05h-.06l-.28,0a3.71,3.71,0,0,1-1.77-.27,4,4,0,0,1-2.31-4.36c.25-2.86,2.41-6.07,4.91-6.69-3.3,1.44-3.07,6.12-1.44,6.9s5.63-1.5,6.36-8.4-5.41-10.25-5.41-10.25c-1.16.81-3.23,2.33-5.71,4.43a59,59,0,0,1,.62,14c-.33,3.15-1.1,6.12-2.63,8.19a16.73,16.73,0,0,0-3.06,11.84c-.66.12-1.26.28-1.75.41l-.1,0a9.66,9.66,0,0,0-2.11,1c-.09-.51-.22-1.18-.38-2s-.37-1.86-.6-3.09c-1.09-5.51,3.16-5.11,6.62-14.07a19.74,19.74,0,0,0,.47-13.64,65.94,65.94,0,0,0-8.55,9.58c-7.48,10.37-5.56,12.21-14.54,17.57-6.35,3.79-9.08,13-10.34,20.85v0c-.22,1.35-.4,2.66-.54,3.89q-3.19,2-6.38,3.84l-.48.28-.76.43h0l-1.22.69L219,396.61c0-.26,0-.55.06-.86s0-.35,0-.54q.07-.84.18-1.86c0-.3.07-.61.11-.93a.41.41,0,0,0,0-.11,0,0,0,0,0,0,0q0-.43.12-.9l0-.22q.1-.77.24-1.59c0-.14,0-.28.07-.42l.06-.33.15-.83h0c0-.08,0-.15,0-.23.09-.47.19-1,.3-1.46,0-.14.07-.28.1-.43s.08-.37.13-.56l.12-.51c0-.07,0-.14.05-.21s0,0,0-.06l0-.09c.06-.26.12-.52.19-.77l.09-.32.12-.44c.07-.27.15-.54.23-.81l0-.13c.15-.52.31-1,.49-1.57l0-.12s0-.09,0-.14a2.32,2.32,0,0,1,.16-.44,1,1,0,0,1,.08-.23,1.76,1.76,0,0,1,.1-.3c0-.1.07-.21.11-.31a3.25,3.25,0,0,1,.15-.4c.06-.18.13-.35.2-.52.14-.37.29-.74.45-1.1h0l.12-.3.28-.64c.09-.21.19-.41.29-.62s.19-.42.3-.62.26-.53.4-.78a.22.22,0,0,1,.05-.08q.34-.69.75-1.35c0-.08.09-.16.14-.23l.31-.51a26.6,26.6,0,0,1,2.39-3.27l.53-.62.26-.29.27-.3.51-.56.24-.27c.25-.28.5-.56.76-.82l.23-.24a2.44,2.44,0,0,1,.27-.29l.13-.13.3-.31h0l.2-.21.21-.2,0,0h0l.33-.34.32-.29.26-.26.24-.24.1-.09q.56-.51,1.08-1l.18-.15.19-.16c1.63-1.42,2.93-2.36,4-3.3l.24-.21,0,0,0,0a9.33,9.33,0,0,0,.85-.81,4.43,4.43,0,0,0,.37-.39,4,4,0,0,0,.38-.44l.27-.34a12.87,12.87,0,0,0,1.14-1.79c.16-.29.31-.6.47-.94s.3-.66.45-1c.07-.16.13-.32.2-.49l.15-.37.15-.34a24.56,24.56,0,0,1,1.21-2.28s0,0,0-.05h0c.16-.26.32-.52.49-.78s.35-.54.53-.81.37-.54.57-.82.39-.56.6-.84.41-.56.63-.84l.22-.3q.34-.46.72-.93c.36-.46.74-.93,1.13-1.4s.78-.94,1.19-1.41h0l1.2-1.38c.42-.48.85-.95,1.28-1.42-2.23.77-5,1.67-7.44,2.27-5.14,1.28-11.95,4.56-13.23,6.8,1.57,4.64,3.9,14-5.51,15.65,3.4-2.15,6.81-10.25,1.48-11.21s-5.63,8.87-6.08,11.21c0,.18-.08.46-.13.82,0,.17,0,.35-.08.56s0,.19,0,.3c0,.31-.09.65-.14,1s-.11.79-.17,1.24c-.14,1-.31,2.15-.51,3.38,0,.35-.11.71-.17,1.07,0,.18-.06.37-.1.56-.2,1.24-.43,2.55-.7,3.86,0,0,0,0,0,0a2.74,2.74,0,0,1-.05.28c0,.24-.09.48-.15.72-.1.5-.21,1-.32,1.48s-.21.93-.33,1.39-.17.74-.27,1.1c0,0,0,0,0,.06-.08.34-.17.68-.26,1l0,.09-.09.32-.09.29s0,.05,0,.07c-.1.33-.2.65-.29,1l0,.09c0,.11-.08.22-.11.33s0,.09-.05.13-.09.28-.14.42l-.12.33s0,0,0,.06a1.52,1.52,0,0,0-.09.25c-.06.14-.11.28-.16.41a15.67,15.67,0,0,1-2.15,4.06c-4-4.85-7.18-24.36-7.63-26.7-.18-1-.34-3.26-.85-5.52-.72-3.15-2.11-6.26-5.22-5.69-5.33,1-1.92,9.06,1.49,11.21-9.41-1.62-7.09-11-5.51-15.65-1.28-2.24-8.1-5.52-13.24-6.8-2.43-.6-5.21-1.5-7.44-2.27,4.51,4.93,8.66,10.3,10.1,14,3.11,7.91,5.79,5.63,15.12,16.55s9.48,30.11,9.48,30.11l.69,1.7q-1.81.94-3.6,1.83h0q-2.28,1.14-4.53,2.21l-.18.09-.18.08,0,0h0l-.07,0,0,0-.43.2c0-.17,0-.27,0-.27a5.84,5.84,0,0,1-.75-1.1h0c-.1-.19-.21-.4-.32-.65s-.15-.34-.23-.53-.23-.6-.35-.95c0-.13-.09-.27-.13-.41s-.09-.29-.13-.44-.09-.3-.13-.46l-.12-.49c-.13-.55-.26-1.14-.36-1.79,0-.24-.09-.5-.12-.76s-.07-.45-.09-.69-.05-.38-.07-.57q-.07-.61-.12-1.29c0-.51-.09-1.06-.14-1.64,0-.35-.06-.71-.1-1.09-.12-1.29-.28-2.7-.49-4.18l-.18-1.19a2.34,2.34,0,0,0,0-.26c0-.08,0-.17-.05-.26,0-.27-.09-.54-.13-.81s-.06-.4-.1-.61l-.06-.27v0s0-.06,0-.1,0,0,0-.07c0-.24-.09-.48-.14-.72,0-.07,0-.14,0-.21-.06-.3-.12-.59-.19-.88a.29.29,0,0,0,0-.09.32.32,0,0,0,0-.14v0a2.46,2.46,0,0,0-.07-.29c0-.12-.05-.24-.08-.36a.36.36,0,0,1,0-.1l-.09-.38c-.08-.3-.15-.6-.23-.9l-.18-.64-.18-.64c-.12-.42-.25-.85-.38-1.26-.08-.23-.15-.46-.23-.69l-.25-.69a30.65,30.65,0,0,0-1.51-3.51c-.16-.32-.32-.63-.49-.94a2.12,2.12,0,0,0-.12-.2q-.23-.42-.48-.81c-.16-.26-.32-.51-.49-.76s-.5-.7-.76-1-.48-.6-.74-.88l-.12-.15-.35-.36c-.15-.16-.31-.31-.47-.46a13.52,13.52,0,0,0-1.79-1.43l-.07,0-.48-.31c-1.27-.76-2.33-1.45-3.22-2.1l-.06,0a17.89,17.89,0,0,1-3.63-3.46c-.2-.26-.4-.53-.58-.8-.32-.46-.62-.94-.93-1.45l-.59-1c-.16-.26-.32-.54-.49-.83l-.25-.43c-.08-.15-.17-.3-.26-.45l0-.07c-.39-.68-.83-1.42-1.33-2.22l-.4-.64c-.76-1.2-1.66-2.54-2.76-4.07-.6-.83-1.21-1.62-1.83-2.38l-.59-.72q-1.28-1.48-2.55-2.79l-.32-.32a53.47,53.47,0,0,0-4.54-4.09l0,0-.55-.44c-1.27-1-2.44-1.83-3.44-2.5l-.79-.51c-.62-.41-1.16-.73-1.57-1l-.24-.14-.81-.44,0-.08,0-.05s0,0,0,0c-.11-.17-.3-.46-.52-.82a.25.25,0,0,1,0-.07l0-.09-.09-.13c-.09-.16-.18-.31-.26-.47l-.1-.17q-.18-.31-.33-.63a3.52,3.52,0,0,1-.16-.35A1.65,1.65,0,0,1,156,329s0,0,0-.06-.05-.14-.07-.2a1.82,1.82,0,0,1-.08-.29,1,1,0,0,1,0-.28v-.06c.07-1,2.84-6.32,7.68-4.08,1.65.77,5.28,5.13,8.52,8.21h0c.52.28,8.85,4.72,15.53,6.17,6.89,1.51,19.61,6.9,22.08,18.1l.06.29c2.47,11.2,6.3,28,6.3,28s3.11-17.12,5.59-28.31,15.18-16.59,22.07-18.1c6.68-1.45,15-5.89,15.52-6.17h0c3.23-3.08,6.15-5.43,7.81-6.19,4.84-2.24,7.61.67,7.68,1.64a7.78,7.78,0,0,1-.31,2.23Z" />
      <path class="GUNDAN_DESERT_FOX_OUTFIT_DESERT_FOX_OUTFIT_9_cls-5" d="M323.16,337.51l.46,1.93a35,35,0,0,0-2.57,4.57,16.1,16.1,0,0,0-.83,3.94h0c-2.17.43-6.16,1.3-6.52,2s3.68,2.24,6,3.07c-.32,3.26-.66,6.34-1.31,7.4a54.34,54.34,0,0,1-5.47,7.09c-2.05-.83-5.5-2.13-6.29-1.82s1.25,4.09,2.3,5.85c-.19.19-.4.39-.61.57-3.15,2.82-8.25,4.7-14.52,6.74-1.32-1.53-3.41-3.79-4.25-3.81s-1.27,3.56-1.41,5.62c-2,.64,6,1.32,3.87,2.06a56,56,0,0,1-13.85,3.23c-.64-1.77-1.83-4.72-2.65-5s-2.6,3-3.53,5c-1.36-.11-2.64-.28-3.88-.47a4.54,4.54,0,0,1-4.05-3.32,29.67,29.67,0,0,1-3.65,1.78,21.8,21.8,0,0,0,.49,2.37c.16.51,1.09,1.11,2.52,1.73a53.49,53.49,0,0,0,13.11,3.28c1.18.15,2.32.24,3.38.28-1.06,0-2.2-.13-3.38-.28a27.84,27.84,0,0,0-1.56,6.5c-.95,10.24.89,37.74,1.41,45.11H282c-.07-2.51-.26-7.39-.86-13.68-.57-5.95.69-19.5,2.63-30.86.44-2.63.93-5.13,1.44-7.4,3.33-1,7.1-3,11-4.83,3.72-1.76-2.42-3.34,1.23-3.64,8.39-.69,9.18-.89,11.75-3.31.17-.16.36-.33.54-.53,2.73-2.67,7.58-8.13,11.82-11.84l.14-.13a12.46,12.46,0,0,0,2.67-4h0s0,0,0-.05c2.53-5.57,3.8-14,4.85-18.14a53.86,53.86,0,0,0,1.59-8S328.35,336.89,323.16,337.51Z" />
      <path class="GUNDAN_DESERT_FOX_OUTFIT_DESERT_FOX_OUTFIT_9_cls-5" d="M270.58,373.1a4.81,4.81,0,0,1,.09,3.53,41.36,41.36,0,0,0,6.95.59,40.51,40.51,0,0,0,15.53-3c8.43-3.56,4.5-9.78,9.83-15.28a50.05,50.05,0,0,0,6.9-8.21c2.18-3.53,3-7.09,2.48-10.29a10.26,10.26,0,0,0-.52-1.9c-1.41,0-2.92.05-4.5,0a7.86,7.86,0,0,1,.82,2.34c.55,3.18-.82,6.26-2.07,8.28a47.82,47.82,0,0,1-6.44,7.63c-5.07,5.22-.84,11.14-8.46,14.35A36.13,36.13,0,0,1,270.58,373.1Z" />
      <path class="GUNDAN_DESERT_FOX_OUTFIT_DESERT_FOX_OUTFIT_9_cls-5" d="M232.84,420.63a2.21,2.21,0,0,0-2.4,1.94,1.64,1.64,0,0,0,.2.77,2.45,2.45,0,0,0,2.2,1.18,2,2,0,1,0,0-3.89Z" />
      <path class="GUNDAN_DESERT_FOX_OUTFIT_DESERT_FOX_OUTFIT_9_cls-5" d="M232.84,429.85a2.21,2.21,0,0,0-2.4,1.94,1.61,1.61,0,0,0,.2.77,2.43,2.43,0,0,0,2.2,1.18,2,2,0,1,0,0-3.89Z" />
      <path class="GUNDAN_DESERT_FOX_OUTFIT_DESERT_FOX_OUTFIT_9_cls-5" d="M198.35,420.63a2,2,0,1,0,0,3.89,2.45,2.45,0,0,0,2.2-1.18,1.64,1.64,0,0,0,.2-.77A2.21,2.21,0,0,0,198.35,420.63Z" />
      <path class="GUNDAN_DESERT_FOX_OUTFIT_DESERT_FOX_OUTFIT_9_cls-5" d="M198.35,429.85a2,2,0,1,0,0,3.89,2.43,2.43,0,0,0,2.2-1.18,1.61,1.61,0,0,0,.2-.77A2.21,2.21,0,0,0,198.35,429.85Z" />
      <path class="GUNDAN_DESERT_FOX_OUTFIT_DESERT_FOX_OUTFIT_9_cls-5" d="M131.84,357.16a80.59,80.59,0,0,0-11.2-7.81,31.47,31.47,0,0,1-5.69,2c11.63,8.4,24.66,22.57,28.31,31.77,1.3,3.29,2.59,8.95,3.68,15.28a194.51,194.51,0,0,1,2.75,26.19c1.3-.32,3.28-.84,5.84-1.57.45-9.53.72-19.77.22-25.19C154.65,386,139.39,363.4,131.84,357.16Z" />
      <path class="GUNDAN_DESERT_FOX_OUTFIT_DESERT_FOX_OUTFIT_9_cls-6" d="M107.15,358.39c-.9-.48-1.46-.75-1.46-.75L103.5,357l2.7-1.41-4.33-1.05,6.74-1.68s-.4-.75-2.67-4.74c1.93,1.56,9,3.21,9,3.21,11.63,8.4,24.66,22.57,28.31,31.77,1.3,3.29,2.59,8.95,3.68,15.28-2-3.31-7.32-7.67-7.32-7.67L134.35,386l5.27,2.12-1.75-1.76c-1.74-1.77-5.52-6.54-8.37-8.88a12.43,12.43,0,0,0-6.22-2.61l3.07-.69s-.33-.51-5.22-2.94-11.08-8.1-11.08-8.1,2.27.37,9,3.6C116.27,363.41,110,359.89,107.15,358.39Z" />
      <path class="GUNDAN_DESERT_FOX_OUTFIT_DESERT_FOX_OUTFIT_9_cls-7" d="M336.48,401.43c-1.09-6.64,2.86-15.95,2.86-15.95a11.6,11.6,0,0,0-5.82,5.15,58.25,58.25,0,0,1-5.67,9.11c-1.39-6.65,0-17.58,4.08-23.75-3.93.09-6.65,3.52-8.95,7.27-3.94-3.85-3.6-11.34-1.28-16.55l-.14.13c-4.24,3.71-9.09,9.17-11.82,11.84-.18.2-.37.37-.54.53-2.57,2.42-3.36,2.62-11.75,3.31-3.65.3,2.49,1.88-1.23,3.64-3.9,1.84-7.67,3.87-11,4.83-.51,2.27-1,4.77-1.44,7.4-1.94,11.36-3.2,24.91-2.63,30.86.6,6.29.79,11.17.86,13.68h47.53l-1-9.92s-2.08-7.35-.7-11.2S337.56,408.06,336.48,401.43Z" />
      <path class="GUNDAN_DESERT_FOX_OUTFIT_DESERT_FOX_OUTFIT_9_cls-7" d="M138.27,434.49c.06.24.11.46.16.63C138.38,434.94,138.33,434.73,138.27,434.49Zm5.59-2.34a4.67,4.67,0,0,1-.37-.82c-.94-2.74,1-5.57,4.44-6.32l1.76-.43a194.8,194.8,0,0,0-2.75-26.2c-2-3.3-7.32-7.66-7.32-7.66L134.35,386l5.26,2.12-1.74-1.75c-1.74-1.77-5.52-6.54-8.37-8.88a12.43,12.43,0,0,0-6.22-2.61l3.06-.69c0-.07-.63-.66-5.21-2.94-4.89-2.43-11.08-8.1-11.08-8.1s2.27.37,9,3.6c-2.79-3.37-9.06-6.89-11.91-8.4h0l0,.06a1.71,1.71,0,0,0-.13.23c0,.08-.08.15-.12.24l-.05.09h0a.41.41,0,0,0,0,.09c-.34.66-.74,1.47-1.14,2.37a30,30,0,0,0-1.53,4.25,16.67,16.67,0,0,0-7.77-3.12c4.31,4.1,6.57,15.26,1.67,20.42a2.39,2.39,0,0,1-.22.23c-2.31-3.75-5-7.18-9-7.27,4.11,6.18,5.47,17.11,4.08,23.75a58,58,0,0,1-5.66-9.11,11.6,11.6,0,0,0-5.84-5.15s4,9.31,2.87,15.94c-.82,5,3.71,11.9,6.58,16.62h0s0,.25-.11.64l0,.18c0,.09,0,.18,0,.27l0,.18a3.06,3.06,0,0,0,0,.32c-.13.69-.27,1.53-.4,2.34,0,.18-.07.37-.1.55L89.84,424c0,.14,0,.28-.07.42s-.06.32-.08.47a.74.74,0,0,0,0,.12.44.44,0,0,0,0,.1.08.08,0,0,1,0,0c-.08.49-.16,1-.25,1.49-.52,3-1,6.14-1.47,8.47-1.17,6.69-1,7.81-1,7.81H148.7c0-1.66.14-4.37.38-7.83l-.22,0A6.4,6.4,0,0,1,143.86,432.15Z" />
      <path class="GUNDAN_DESERT_FOX_OUTFIT_DESERT_FOX_OUTFIT_9_cls-3" d="M266.74,373c-1.08-1.32-2.18-1.36-3.8-1,.24,1.27.49,2.35.61,3.15a33.88,33.88,0,0,1,.1,3.9c1.26-.76,2.38-1.5,3-1.95a3.12,3.12,0,0,0,.72-1.12,2.73,2.73,0,0,0-.4-2.64A2.11,2.11,0,0,0,266.74,373Z" />
      <path class="GUNDAN_DESERT_FOX_OUTFIT_DESERT_FOX_OUTFIT_9_cls-3" d="M308.16,340.88a7.86,7.86,0,0,0-.82-2.34c-9.47-.13-11.48-1.52-20.28-5.41l-2.51-.26h0c-1.27-.12-2.13-.22-2.13-.22s2.27,6.05,1,10.12-7.49,12.78-12.2,10.81a4,4,0,0,1-2.31-4.35l-.67-.05c-.33,3.15-1.1,6.12-2.63,8.19a16.73,16.73,0,0,0-3.06,11.84A9.74,9.74,0,0,1,265,369c.11-.2,2.21-4.07,8.49-5.93C280,361.17,291,356,286,347c4.82,3.9,5.93,11.16.36,15.24s-13.36,2.11-17.49,8.45a9.07,9.07,0,0,1,.66.71,6.35,6.35,0,0,1,1,1.68,36.13,36.13,0,0,0,20.61-2c7.62-3.21,3.39-9.13,8.46-14.35a47.82,47.82,0,0,0,6.44-7.63C307.34,347.14,308.71,344.06,308.16,340.88Z" />
      <path class="GUNDAN_DESERT_FOX_OUTFIT_DESERT_FOX_OUTFIT_9_cls-8" d="M213,400.24c2.25-1.16,3.73-2.37,6-3.63q5.85-3.24,11.76-6.9c.64-.4,1.3-.8,1.94-1.22a226.55,226.55,0,0,0,18.68-13.19,6.53,6.53,0,0,1,1.87-1" />
      <path class="GUNDAN_DESERT_FOX_OUTFIT_DESERT_FOX_OUTFIT_9_cls-8" d="M205.52,416a314.94,314.94,0,0,1-50.59,18.11c-2.05.52-3.31.81-3.63.88a8.14,8.14,0,0,1-1.68.18,4.87,4.87,0,0,1-.54,0,6.14,6.14,0,0,1-5.59-3.77c-.94-2.73,1-5.57,4.44-6.32l1.76-.43c1.3-.32,3.28-.84,5.84-1.57a315.67,315.67,0,0,0,48.33-18.25c3-1.42,6-2.92,9.12-4.51" />
      <path class="GUNDAN_DESERT_FOX_OUTFIT_DESERT_FOX_OUTFIT_9_cls-8" d="M227.38,404.48c-4.1,2.31-7.38,4.46-11.39,6.46-3.55,1.79-7.05,3.45-10.47,5" />
      <path class="GUNDAN_DESERT_FOX_OUTFIT_DESERT_FOX_OUTFIT_9_cls-8" d="M231.06,402.37c-1.23.72-2.45,1.42-3.67,2.1" />
      <path class="GUNDAN_DESERT_FOX_OUTFIT_DESERT_FOX_OUTFIT_9_cls-8" d="M258.33,384.16a254.86,254.86,0,0,1-27.24,18.21" />
      <path class="GUNDAN_DESERT_FOX_OUTFIT_DESERT_FOX_OUTFIT_9_cls-8" d="M259.18,374.64a5.08,5.08,0,0,0-.83-.36" />
      <path class="GUNDAN_DESERT_FOX_OUTFIT_DESERT_FOX_OUTFIT_9_cls-8" d="M227.39,404.47h0s-1.61,9.54-2.78,20.22c-.33,3.1-.63,6.28-.84,9.36s-.34,6.17-.33,8.87" />
      <path class="GUNDAN_DESERT_FOX_OUTFIT_DESERT_FOX_OUTFIT_9_cls-8" d="M259.17,332.21c-1.81,1.72-3.71,3.66-5.56,5.68-4.51,4.93-8.67,10.3-10.11,14-3.11,7.91-5.77,5.63-15.11,16.56-7.54,8.81-9.09,23-9.4,28.17" />
      <path class="GUNDAN_DESERT_FOX_OUTFIT_DESERT_FOX_OUTFIT_9_cls-8" d="M259.2,332.2c3.23-3.08,6.15-5.43,7.81-6.19,4.84-2.24,7.61.67,7.68,1.64a7.78,7.78,0,0,1-.31,2.23,1.71,1.71,0,0,1-.06.22s-.36.23-1,.67c-1.16.81-3.23,2.33-5.71,4.43-.92.79-1.91,1.66-2.92,2.6a65.94,65.94,0,0,0-8.55,9.58c-7.48,10.37-5.56,12.21-14.54,17.57-6.35,3.79-9.08,13-10.34,20.85" />
      <path class="GUNDAN_DESERT_FOX_OUTFIT_DESERT_FOX_OUTFIT_9_cls-8" d="M230.75,389.71c.14-1.23.32-2.54.54-3.89" />
      <polyline class="GUNDAN_DESERT_FOX_OUTFIT_DESERT_FOX_OUTFIT_9_cls-8" points="215.99 442.93 215.99 434.64 215.99 425.41 215.99 410.94" />
      <path class="GUNDAN_DESERT_FOX_OUTFIT_DESERT_FOX_OUTFIT_9_cls-8" d="M207.77,442.93c0-2.71-.1-5.73-.32-8.87s-.52-6.27-.86-9.36-.7-6.06-1.07-8.75h0" />
      <path class="GUNDAN_DESERT_FOX_OUTFIT_DESERT_FOX_OUTFIT_9_cls-8" d="M172,332.21c1.81,1.72,3.72,3.66,5.57,5.68,4.51,4.93,8.66,10.3,10.1,14,3.11,7.91,5.79,5.63,15.12,16.56s9.48,30.1,9.48,30.1l.69,1.7h0" />
      <path class="GUNDAN_DESERT_FOX_OUTFIT_DESERT_FOX_OUTFIT_9_cls-8" d="M203.86,404.76c0-.18,0-.28,0-.28a5.41,5.41,0,0,1-.75-1.1c-.73-1.35-1.81-4.1-2.18-9a98.55,98.55,0,0,0-1.23-10c-1.36-7.49-4.13-15.81-10.09-19.35-9-5.37-7.06-7.21-14.54-17.58a53.72,53.72,0,0,0-17.27-15.32s-2-3-2-4,2.84-6.32,7.68-4.08c1.65.77,5.28,5.13,8.52,8.21" />
      <path class="GUNDAN_DESERT_FOX_OUTFIT_DESERT_FOX_OUTFIT_9_cls-8" d="M260,381c-.11-.75-.21-1.52-.3-2.28" />
      <path class="GUNDAN_DESERT_FOX_OUTFIT_DESERT_FOX_OUTFIT_9_cls-8" d="M274.32,330.1a34.6,34.6,0,0,1,4.74.55,8.91,8.91,0,0,1,3.36,2s.86.1,2.13.22" />
      <path class="GUNDAN_DESERT_FOX_OUTFIT_DESERT_FOX_OUTFIT_9_cls-8" d="M307.34,338.54c-9.47-.13-11.48-1.52-20.28-5.41l-2.51-.26" />
      <path class="GUNDAN_DESERT_FOX_OUTFIT_DESERT_FOX_OUTFIT_9_cls-8" d="M324.38,362.67s0,0,0-.05c2.53-5.57,3.8-14,4.85-18.14a53.86,53.86,0,0,0,1.59-8s-2.49.41-7.68,1q-2.51.3-5.85.65c-1.58.17-3.42.29-5.47.35" />
      <path class="GUNDAN_DESERT_FOX_OUTFIT_DESERT_FOX_OUTFIT_9_cls-8" d="M260.4,383.94a21.8,21.8,0,0,0,.49,2.37c.16.51,1.09,1.11,2.52,1.73a53.49,53.49,0,0,0,13.11,3.28,28,28,0,0,0,6.3.19,14,14,0,0,0,2.4-.52c3.33-1,7.1-3,11-4.83,3.72-1.76-2.42-3.34,1.23-3.64,8.39-.69,9.18-.89,11.75-3.31a6.65,6.65,0,0,0,.54-.53c2.73-2.67,7.58-8.13,11.82-11.84l.14-.13a12.46,12.46,0,0,0,2.67-4" />
      <path class="GUNDAN_DESERT_FOX_OUTFIT_DESERT_FOX_OUTFIT_9_cls-8" d="M259.3,375.61c-.05-.34-.09-.67-.12-1" />
      <path class="GUNDAN_DESERT_FOX_OUTFIT_DESERT_FOX_OUTFIT_9_cls-8" d="M258.61,370.63c-.09-.52-.22-1.19-.38-2s-.37-1.86-.6-3.09c-1.09-5.51,3.16-5.11,6.62-14.07a19.74,19.74,0,0,0,.47-13.64" />
      <path class="GUNDAN_DESERT_FOX_OUTFIT_DESERT_FOX_OUTFIT_9_cls-8" d="M320.22,348a16.1,16.1,0,0,1,.83-3.94,35,35,0,0,1,2.57-4.57l-.46-1.93" />
      <path class="GUNDAN_DESERT_FOX_OUTFIT_DESERT_FOX_OUTFIT_9_cls-8" d="M312.92,367.5a54.34,54.34,0,0,0,5.47-7.09c.65-1.06,1-4.14,1.31-7.4" />
      <path class="GUNDAN_DESERT_FOX_OUTFIT_DESERT_FOX_OUTFIT_9_cls-8" d="M278.16,385.94A56,56,0,0,0,292,382.71c2.1-.74-5.83-1.42-3.87-2.06" />
      <path class="GUNDAN_DESERT_FOX_OUTFIT_DESERT_FOX_OUTFIT_9_cls-8" d="M267.64,335.21a58.84,58.84,0,0,1,.62,14c-.33,3.15-1.1,6.12-2.63,8.19a16.73,16.73,0,0,0-3.06,11.84" />
      <path class="GUNDAN_DESERT_FOX_OUTFIT_DESERT_FOX_OUTFIT_9_cls-8" d="M264.05,382.16a4.54,4.54,0,0,0,4.05,3.32c1.24.19,2.52.36,3.88.47" />
      <path class="GUNDAN_DESERT_FOX_OUTFIT_DESERT_FOX_OUTFIT_9_cls-8" d="M262.94,372c.24,1.27.49,2.35.61,3.15a33.88,33.88,0,0,1,.1,3.9" />
      <path class="GUNDAN_DESERT_FOX_OUTFIT_DESERT_FOX_OUTFIT_9_cls-8" d="M293.8,378.84c6.27-2,11.37-3.92,14.52-6.74.21-.18.42-.38.61-.57" />
      <path class="GUNDAN_DESERT_FOX_OUTFIT_DESERT_FOX_OUTFIT_9_cls-8" d="M272,386c.93-1.93,2.68-5.23,3.53-5s2,3.2,2.65,5" />
      <path class="GUNDAN_DESERT_FOX_OUTFIT_DESERT_FOX_OUTFIT_9_cls-8" d="M288.14,380.65c.14-2.06.51-5.65,1.41-5.62s2.93,2.28,4.25,3.81" />
      <path class="GUNDAN_DESERT_FOX_OUTFIT_DESERT_FOX_OUTFIT_9_cls-8" d="M308.93,371.53c-1.05-1.76-3.16-5.5-2.3-5.85s4.24,1,6.29,1.82" />
      <path class="GUNDAN_DESERT_FOX_OUTFIT_DESERT_FOX_OUTFIT_9_cls-8" d="M320.22,348h0c-2.17.43-6.16,1.3-6.52,2s3.68,2.24,6,3.07" />
      <path class="GUNDAN_DESERT_FOX_OUTFIT_DESERT_FOX_OUTFIT_9_cls-8" d="M120.64,349.35a80.59,80.59,0,0,1,11.2,7.81c7.55,6.24,22.81,28.79,23.91,40.66.5,5.42.23,15.66-.22,25.19" />
      <path class="GUNDAN_DESERT_FOX_OUTFIT_DESERT_FOX_OUTFIT_9_cls-8" d="M149.69,424.58a194.51,194.51,0,0,0-2.75-26.19c-1.09-6.33-2.38-12-3.68-15.28-3.65-9.2-16.68-23.37-28.31-31.77a31.47,31.47,0,0,0,5.69-2c6.45-2.85,14-7.71,17.27-10.66a126.71,126.71,0,0,1,18.33-9.16" />
      <path class="GUNDAN_DESERT_FOX_OUTFIT_DESERT_FOX_OUTFIT_9_cls-8" d="M146.94,398.39c-2-3.31-7.32-7.67-7.32-7.67L134.35,386l5.27,2.12-1.75-1.76c-1.74-1.77-5.52-6.54-8.37-8.88a12.43,12.43,0,0,0-6.22-2.61l3.07-.69s-.33-.51-5.22-2.94-11.08-8.1-11.08-8.1,2.27.37,9,3.6c-2.79-3.37-9.06-6.89-11.91-8.39-.9-.48-1.46-.75-1.46-.75L103.5,357l2.7-1.41-4.33-1.05,6.74-1.68s-.4-.75-2.67-4.74c1.93,1.56,9,3.21,9,3.21" />
      <path class="GUNDAN_DESERT_FOX_OUTFIT_DESERT_FOX_OUTFIT_9_cls-8" d="M104.1,365.73a35.85,35.85,0,0,1,3.05-7.34" />
      <path class="GUNDAN_DESERT_FOX_OUTFIT_DESERT_FOX_OUTFIT_9_cls-8" d="M97.78,383.26c5.19-5.06,2.92-16.49-1.45-20.65a16.67,16.67,0,0,1,7.77,3.12,19,19,0,0,1,3.66,3.39,93,93,0,0,0,4,11.35c2.67,6.32,10.18,11.68,17,15.27s16.7,19.68,16.7,19.68h-2.77s-.74,8.8-2.51,11.43-3,3-3,3-.89,3.72-1.26,6.72a25.27,25.27,0,0,0,.53,6.36" />
      <path class="GUNDAN_DESERT_FOX_OUTFIT_DESERT_FOX_OUTFIT_9_cls-8" d="M92.9,399.74c1.39-6.64,0-17.57-4.08-23.75,3.94.09,6.65,3.52,9,7.27a78.48,78.48,0,0,0,4.67,7.53c3.65,4.47,12.45,10.71,18.27,13.91s14.63,22.15,14.63,22.15l1.82,3s.89,3.85,1.26,5.27-.37,1.33-1.26,4.09a5.07,5.07,0,0,0,.66,3.72" />
      <path class="GUNDAN_DESERT_FOX_OUTFIT_DESERT_FOX_OUTFIT_9_cls-8" d="M90.85,418c-2.87-4.72-7.4-11.6-6.58-16.61,1.09-6.64-2.87-15.95-2.87-15.95a11.6,11.6,0,0,1,5.84,5.15,52.91,52.91,0,0,0,19.16,21.43c13.34,9.12,22.32,23.06,22.32,23.06s2.77,5.57,2.87,7.81" />
      <path class="GUNDAN_DESERT_FOX_OUTFIT_DESERT_FOX_OUTFIT_9_cls-8" d="M92.17,433s2.08-7.35.7-11.2a24.8,24.8,0,0,0-2-3.76" />
      <path class="GUNDAN_DESERT_FOX_OUTFIT_DESERT_FOX_OUTFIT_9_cls-8" d="M99.24,391.35s8.15,9.95,13.93,13.91,9,5.44,11.23,10.16" />
      <path class="GUNDAN_DESERT_FOX_OUTFIT_DESERT_FOX_OUTFIT_9_cls-8" d="M93.61,406s6.45,5.76,12.11,11.28,7.45,6.48,10.12,10.79c0,0,3.79,10.24,4.19,14.88" />
      <path class="GUNDAN_DESERT_FOX_OUTFIT_DESERT_FOX_OUTFIT_9_cls-8" d="M90.85,418h0c-.7,4.16-2.07,12.25-2.93,17.07-1.17,6.69-1,7.81-1,7.81H288.65" />
      <path class="GUNDAN_DESERT_FOX_OUTFIT_DESERT_FOX_OUTFIT_9_cls-8" d="M327.85,399.74a58.25,58.25,0,0,0,5.67-9.11,11.6,11.6,0,0,1,5.82-5.15s-3.95,9.31-2.86,15.95-7.21,16.55-8.6,20.38.7,11.2.7,11.2l1,9.92H297.4" />
      <path class="GUNDAN_DESERT_FOX_OUTFIT_DESERT_FOX_OUTFIT_9_cls-8" d="M297.4,442.93h-8.75c1.59-3.89,3.37-7.81,3.37-7.81s9-13.94,22.33-23.06a58.82,58.82,0,0,0,13.5-12.31" />
      <path class="GUNDAN_DESERT_FOX_OUTFIT_DESERT_FOX_OUTFIT_9_cls-8" d="M203.07,403.38A35.07,35.07,0,0,0,191,401.43c-7.31,0-22.52-1.53-23.51-11.52s1.18-29.2-13.83-29.75c6.92-3.36,17.58-.09,19.26,10.16s4.84,17.67,14.22,19.75,12.27-1.69,12.56-5.76" />
      <line class="GUNDAN_DESERT_FOX_OUTFIT_DESERT_FOX_OUTFIT_9_cls-8" x1="284.55" y1="332.87" x2="284.55" y2="332.86" />
      <path class="GUNDAN_DESERT_FOX_OUTFIT_DESERT_FOX_OUTFIT_9_cls-8" d="M276.37,442.93c-.52-7.37-2.36-34.87-1.41-45.11a27.84,27.84,0,0,1,1.56-6.5" />
      <path class="GUNDAN_DESERT_FOX_OUTFIT_DESERT_FOX_OUTFIT_9_cls-8" d="M282,442.93c-.07-2.51-.26-7.39-.86-13.68-.57-5.95.69-19.5,2.63-30.86.44-2.63.93-5.13,1.44-7.4" />
      <path class="GUNDAN_DESERT_FOX_OUTFIT_DESERT_FOX_OUTFIT_9_cls-8" d="M283.78,398.39c2-3.31,7.32-7.67,7.32-7.67l5.12-4.56" />
      <path class="GUNDAN_DESERT_FOX_OUTFIT_DESERT_FOX_OUTFIT_9_cls-8" d="M294.28,442.93a25.75,25.75,0,0,0,.53-6.36c-.38-3-1.27-6.72-1.27-6.72s-1.19-.36-3-3-2.52-11.43-2.52-11.43h-2.77s-.08-16.07,6.73-19.68,14.33-8.95,17-15.27c.25-.61.5-1.21.72-1.79" />
      <path class="GUNDAN_DESERT_FOX_OUTFIT_DESERT_FOX_OUTFIT_9_cls-8" d="M324.38,362.67h0" />
      <path class="GUNDAN_DESERT_FOX_OUTFIT_DESERT_FOX_OUTFIT_9_cls-8" d="M323,383.26c-3.94-3.85-3.6-11.34-1.28-16.55" />
      <path class="GUNDAN_DESERT_FOX_OUTFIT_DESERT_FOX_OUTFIT_9_cls-8" d="M327.85,399.75h0c-1.39-6.65,0-17.58,4.08-23.75-3.93.09-6.65,3.52-8.95,7.27-1.68,2.73-3.14,5.64-4.68,7.53-3.66,4.47-12.45,10.71-18.27,13.91s-4.66,22.15-4.66,22.15l-1.83,3" />
      <path class="GUNDAN_DESERT_FOX_OUTFIT_DESERT_FOX_OUTFIT_9_cls-8" d="M321.51,391.35s-8.15,9.95-13.93,13.91-9,5.44-11.23,10.16" />
      <path class="GUNDAN_DESERT_FOX_OUTFIT_DESERT_FOX_OUTFIT_9_cls-8" d="M297.4,442.93a99.36,99.36,0,0,1,7.52-14.88c2.66-4.31,4.44-5.28,10.11-10.79S327.14,406,327.14,406" />
      <path class="GUNDAN_DESERT_FOX_OUTFIT_DESERT_FOX_OUTFIT_9_cls-8" d="M255.07,380.53l-.09.19" />
      <path class="GUNDAN_DESERT_FOX_OUTFIT_DESERT_FOX_OUTFIT_9_cls-8" d="M257.69,371.18c.06-.29.1-.58.15-.86a14.91,14.91,0,0,1,.39-1.72" />
      <path class="GUNDAN_DESERT_FOX_OUTFIT_DESERT_FOX_OUTFIT_9_cls-8" d="M231.29,385.8v0a6.31,6.31,0,0,0,1.4,2.67" />
      <path class="GUNDAN_DESERT_FOX_OUTFIT_DESERT_FOX_OUTFIT_9_cls-8" d="M231.06,402.37h0a39.42,39.42,0,0,1,8.67-.94c7.31,0,22.52-1.53,23.5-11.52.06-.59.11-1.22.15-1.87" />
      <path class="GUNDAN_DESERT_FOX_OUTFIT_DESERT_FOX_OUTFIT_9_cls-8" d="M172,332.2h0c.52.28,8.85,4.72,15.53,6.17,6.89,1.51,19.61,6.9,22.08,18.1l.06.29c2.47,11.2,6.3,28,6.3,28" />
      <path class="GUNDAN_DESERT_FOX_OUTFIT_DESERT_FOX_OUTFIT_9_cls-8" d="M177.59,337.89c2.23.77,5,1.67,7.44,2.27,5.14,1.28,12,4.56,13.24,6.8-1.58,4.64-3.9,14,5.51,15.65-3.41-2.15-6.82-10.25-1.49-11.21,3.11-.56,4.5,2.54,5.22,5.7.51,2.25.67,4.54.85,5.51.45,2.35,3.65,21.85,7.63,26.7" />
      <path class="GUNDAN_DESERT_FOX_OUTFIT_DESERT_FOX_OUTFIT_9_cls-8" d="M259.2,332.2h0c-.52.28-8.84,4.72-15.52,6.17-6.89,1.51-19.61,6.9-22.07,18.1S216,384.79,216,384.79" />
      <path class="GUNDAN_DESERT_FOX_OUTFIT_DESERT_FOX_OUTFIT_9_cls-8" d="M216,389.31a15.67,15.67,0,0,0,2.15-4.06c2.94-7.5,4.33-20.73,4.69-22.64.45-2.34.75-12.17,6.08-11.21s1.92,9.06-1.48,11.21c9.41-1.62,7.08-11,5.51-15.65,1.28-2.24,8.09-5.52,13.23-6.8,2.44-.6,5.21-1.5,7.44-2.27" />
      <path class="GUNDAN_DESERT_FOX_OUTFIT_DESERT_FOX_OUTFIT_9_cls-8" d="M270.67,376.63a41.36,41.36,0,0,0,6.95.59,40.51,40.51,0,0,0,15.53-3c8.43-3.56,4.5-9.78,9.83-15.28a50.05,50.05,0,0,0,6.9-8.21c2.18-3.53,3-7.09,2.48-10.29a10.26,10.26,0,0,0-.52-1.9c-1.41,0-2.92.05-4.5,0a7.86,7.86,0,0,1,.82,2.34c.55,3.18-.82,6.26-2.07,8.28a47.82,47.82,0,0,1-6.44,7.63c-5.07,5.22-.84,11.14-8.46,14.35a36.13,36.13,0,0,1-20.61,2" />
      <path class="GUNDAN_DESERT_FOX_OUTFIT_DESERT_FOX_OUTFIT_9_cls-8" d="M254.43,380.11l.55.61,2.68,3a1.6,1.6,0,0,0,.67.44,2.07,2.07,0,0,0,.7.13,2,2,0,0,0,.59-.09c.24-.07.51-.16.78-.26a29.67,29.67,0,0,0,3.65-1.78c2.4-1.34,4.56-2.84,4.94-3.09l.14-.11a5.81,5.81,0,0,0,1.54-2.33,4.81,4.81,0,0,0-.09-3.53,6.35,6.35,0,0,0-1-1.68,9.07,9.07,0,0,0-.66-.71A6.24,6.24,0,0,0,265,369a9.74,9.74,0,0,0-2.45.17c-.66.12-1.26.28-1.75.42l-.1,0a9.31,9.31,0,0,0-2.11,1c-.3.17-.61.35-.92.55-1.55,1-3.23,2.19-4.45,3.1l-1.31,1a1.18,1.18,0,0,0-.2,1.79l2.63,2.94" />
      <path class="GUNDAN_DESERT_FOX_OUTFIT_DESERT_FOX_OUTFIT_9_cls-8" d="M258.17,379.61l1.42,1.59L260,381c.65-.31,1.35-.68,2.06-1.08.55-.3,1.1-.63,1.61-.94,1.26-.76,2.38-1.5,3-1.95a3.12,3.12,0,0,0,.72-1.12,2.73,2.73,0,0,0-.4-2.64,2.11,2.11,0,0,0-.26-.35c-1.08-1.32-2.18-1.36-3.8-1l-1,.26-.1,0a13.35,13.35,0,0,0-2.72,1.54l-.73.49c-.5.35-1,.71-1.55,1.1l-1.45,1.07.84.94" />
      <path class="GUNDAN_DESERT_FOX_OUTFIT_DESERT_FOX_OUTFIT_9_cls-8" d="M258.17,379.61l-1.4.8a1.87,1.87,0,0,1-1,.25,1.93,1.93,0,0,1-.73-.13,1.56,1.56,0,0,1-.64-.42s0,0,0,0l0-.05a1.22,1.22,0,0,1,.45-1.86l1.38-.78,3.11-1.78,0,0a2,2,0,0,1,2.36.32,1.22,1.22,0,0,1-.4,1.92l-1.62.93Z" />
      <path class="GUNDAN_DESERT_FOX_OUTFIT_DESERT_FOX_OUTFIT_9_cls-8" d="M273.35,330.77s6.16,3.36,5.41,10.26-4.74,9.17-6.36,8.39-1.86-5.46,1.44-6.9c-2.5.62-4.66,3.83-4.91,6.7a4,4,0,0,0,2.31,4.35c4.71,2,10.93-6.73,12.2-10.81s-1-10.12-1-10.12" />
      <path class="GUNDAN_DESERT_FOX_OUTFIT_DESERT_FOX_OUTFIT_9_cls-8" d="M265,369h0c.11-.2,2.21-4.07,8.49-5.93C280,361.17,291,356,286,347c4.82,3.9,5.93,11.16.36,15.24s-13.36,2.11-17.49,8.45" />
      <path class="GUNDAN_DESERT_FOX_OUTFIT_DESERT_FOX_OUTFIT_9_cls-8" d="M200.55,423.34a44,44,0,0,0,6,1.36c1.7.27,3.49.47,5.35.59q2,.12,4.05.12c1.39,0,1.95,0,3.26-.12,1.87-.12,3.66-.32,5.35-.59a43.63,43.63,0,0,0,6-1.36" />
      <path class="GUNDAN_DESERT_FOX_OUTFIT_DESERT_FOX_OUTFIT_9_cls-8" d="M200.75,422.57a1.64,1.64,0,0,1-.2.77,2.45,2.45,0,0,1-2.2,1.18,2,2,0,1,1,2.4-1.95Z" />
      <path class="GUNDAN_DESERT_FOX_OUTFIT_DESERT_FOX_OUTFIT_9_cls-8" d="M235.24,422.57a2.21,2.21,0,0,1-2.4,1.95,2.45,2.45,0,0,1-2.2-1.18,1.64,1.64,0,0,1-.2-.77,2.45,2.45,0,0,1,4.8,0Z" />
      <path class="GUNDAN_DESERT_FOX_OUTFIT_DESERT_FOX_OUTFIT_9_cls-8" d="M200.55,432.56a44.89,44.89,0,0,0,6.9,1.5c1.43.2,2.94.36,4.49.45,1.32.09,2.67.13,4.05.13s1.95,0,3.26-.13c1.56-.1,3.07-.25,4.51-.45a44.61,44.61,0,0,0,6.88-1.5" />
      <path class="GUNDAN_DESERT_FOX_OUTFIT_DESERT_FOX_OUTFIT_9_cls-8" d="M200.75,431.79a1.61,1.61,0,0,1-.2.77,2.43,2.43,0,0,1-2.2,1.18,2,2,0,1,1,2.4-1.95Z" />
      <path class="GUNDAN_DESERT_FOX_OUTFIT_DESERT_FOX_OUTFIT_9_cls-8" d="M235.24,431.79a2.21,2.21,0,0,1-2.4,1.95,2.43,2.43,0,0,1-2.2-1.18,1.61,1.61,0,0,1-.2-.77,2.45,2.45,0,0,1,4.8,0Z" />
      <g class="GUNDAN_DESERT_FOX_OUTFIT_DESERT_FOX_OUTFIT_9_cls-9">
        <path d="M157.84,326.06s15.94,11.3,23.75,24.17,16.59,13.24,21,24.9,4.42,24.72,6.75,26.94c-3.93,3.18-4.94,2.41-4.94,2.41h-.73a5.24,5.24,0,0,1-1.17-1.5A51.76,51.76,0,0,0,190,401.34c-5,0-19.21-1.75-21.87-8.81-1.12-4.23-1.74-12.95-1.76-18.25s-3.14-13.25-12.18-14.09c7.31-.22,16.35,5.24,17.09,14s6.37,20.76,17.48,21.48c10.89.72,12,0,12,0A69.43,69.43,0,0,0,199,381.14c-1.76-7.44-4.76-14-9.09-15.95s-7.74-6.61-10.39-10.88-14-18.18-20.33-22.44c-5-3.7-1.43.33-1.43.33s-2.33-3.82-1.6-4.71A7,7,0,0,1,157.84,326.06Z" />
        <path d="M115,351s3-.59,3.74-.87l.72-.29A121.13,121.13,0,0,1,135,363.43c6.92,7.35,12.55,16.19,14.27,22.95s4,29.75,4,29.75v7.51l-3.6.94s-1.91-16.27-4.27-21.2-15.6-17.56-22.81-20a51.61,51.61,0,0,1,9.88,1.91s-1.9-6-11.62-8.62c-10.11-2.65-10.8-5.13-10.8-5.13s5.63,1.83,7.41,1.76c-7-5.11-10.07-7.91-11.85-11.77,1.27-2.63,1.52-3.1,1.52-3.1l-3.77-1.18,3-1.56a27.05,27.05,0,0,1,7.59,2.52,54.67,54.67,0,0,0-7.71-4.71s1.48-1,6,.45a32.65,32.65,0,0,1-4.6-4.84S113.6,351.45,115,351Z" />
        <path d="M98,383s10.19,12.93,20.64,17.22,22.73,23.33,22.73,23.33-.77,5.27-4.34,6c-7.56-13.94-11.7-21.65-15.4-24.21-6.33-4-14.66-9.23-17.14-12.43S98.17,385.24,98,383Z" />
        <path d="M93.34,398.12s4.33,5.63,17.3,11.24,22.52,24.34,22.52,24.34-5.63-10.09-12.82-14.35c0,0,12.74,15.67,12.82,23.58-16.37,0-16.37-.33-16.37-.33s-9.71-15.05-18.08-24.94S86.86,397,85.15,391.78A68.57,68.57,0,0,0,109.6,419c10.52,6.9,14.45,12.6,14.45,12.6s-6.45-11.76-16.23-17.82a51.36,51.36,0,0,1-14.92-14Z" />
        <path d="M90.85,418.05s3.59,3.52,5.48,10.64A42.68,42.68,0,0,1,98,440.44s-4.84-8.38-7.15-10.82-1.21-4.41-1.2-4.5S90.85,418.05,90.85,418.05Z" />
        <path d="M117.88,388.44a95.46,95.46,0,0,0,16,8.58c10.48,4.59,12.69,18.06,13.07,23.11-2.14-5.7-7.19-15.46-13.78-19.88S118,396.34,117.88,388.44Z" />
        <path d="M322.67,383S312.47,396,302,400.25s-12.77,23.33-12.77,23.33.78,5.27,4.35,6c7.55-13.94,1.73-21.65,5.44-24.21,6.32-4,14.65-9.23,17.13-12.43S322.49,385.24,322.67,383Z" />
        <path d="M327.32,398.12S323,403.75,310,409.36s-12.56,24.34-12.56,24.34-4.34-10.09,2.85-14.35c0,0-2.78,15.67-2.85,23.58,16.37,0,6.41-.33,6.41-.33s9.7-15.05,18.07-24.94S333.8,397,335.51,391.78A68.57,68.57,0,0,1,311.06,419c-10.52,6.9-14.44,12.6-14.44,12.6s6.44-11.76,16.22-17.82a51.36,51.36,0,0,0,14.92-14Z" />
        <path d="M329.81,418.05s-3.59,3.52-5.48,10.64a42.86,42.86,0,0,0-1.66,11.75s4.83-8.38,7.14-10.82,1.21-4.41,1.2-4.5S329.81,418.05,329.81,418.05Z" />
        <path d="M302.78,388.44s4.44,4-6,8.58-12.69,18.06-13.06,23.11c2.14-5.7,7.18-15.46,13.78-19.88S302.68,396.34,302.78,388.44Z" />
        <path d="M205.52,415.94s2,16.05,2.1,19.36.15,7.63.15,7.63h5.77l-.83-30.37Z" />
        <path d="M143.84,432.06s23.47-4.94,43.77-14S255,381,255,381l3,3S227.39,406.34,204.7,416c16.79-9.34,21.92-15.29,21.92-15.29s-30.94,17.13-41.38,22.28-30.31,11.12-30.31,11.12-6.44,1.89-8.68.53S143.84,432.06,143.84,432.06Z" />
        <path d="M152.58,387.26a62.39,62.39,0,0,1,6.68,13.4c2.37,7.07,3.66,10.67,3.66,10.67s6.86,6.39,8.94,6.39c-10.47,3.56-16.33,5.29-16.33,5.29s.67-10.48.72-14.84S155.33,391.14,152.58,387.26Z" />
        <path d="M178.83,426.71s8.58,5.4,13.67,9.09a33.28,33.28,0,0,0,8.8,4.8l8.23,2-.78.33H154.12l.81-8.71s9.94-2.56,15.23-4.37S178.83,426.71,178.83,426.71Z" />
        <path d="M245.05,348.83a21.13,21.13,0,0,1-5.09,11c-4.44,4.8-13.38,13.38-15.06,21.37a76.92,76.92,0,0,0-1.77,13.07l-4.5,2.54s2.17-14.33,5.13-20.92,9.48-13.06,12.59-15.22,6.13-5.76,6.87-8.32A7.73,7.73,0,0,1,245.05,348.83Z" />
        <path d="M135.48,340.66s3,3.17,11.46,8.17,9.56,8.36,9.56,8.36-10.77-6.48-16-8.36c8,7.56,15.22,10.92,19.86,25.79s.35,23.17,8.2,32.39c-10.69-10-16.12-22-21.36-30s-14.19-22.87-27-27.45C127.76,345.69,135.48,340.66,135.48,340.66Z" />
      </g>
    </g>
  </g>
</svg>