<svg xmlns="http://www.w3.org/2000/svg" viewBox="0 0 432 432">
  <defs>
    <style>.GUNDAN_DESERT_FOX_OUTFIT_DESERT_FOX_OUTFIT_2_cls-1{isolation:isolate;}.GUNDAN_DESERT_FOX_OUTFIT_DESERT_FOX_OUTFIT_2_cls-2{fill:#c49e4d;}.GUNDAN_DESERT_FOX_OUTFIT_DESERT_FOX_OUTFIT_2_cls-3{fill:#885f43;}.GUNDAN_DESERT_FOX_OUTFIT_DESERT_FOX_OUTFIT_2_cls-4{fill:#fff;}.GUNDAN_DESERT_FOX_OUTFIT_DESERT_FOX_OUTFIT_2_cls-5{fill:#931810;}.GUNDAN_DESERT_FOX_OUTFIT_DESERT_FOX_OUTFIT_2_cls-6{fill:#6c7e72;}.GUNDAN_DESERT_FOX_OUTFIT_DESERT_FOX_OUTFIT_2_cls-7{fill:none;stroke:#000;stroke-linecap:round;stroke-linejoin:round;stroke-width:2px;}.GUNDAN_DESERT_FOX_OUTFIT_DESERT_FOX_OUTFIT_2_cls-8{opacity:0.22;mix-blend-mode:multiply;}</style>
  </defs>
  <g class="GUNDAN_DESERT_FOX_OUTFIT_DESERT_FOX_OUTFIT_2_cls-1">
    <g id="outfit">
      <path class="GUNDAN_DESERT_FOX_OUTFIT_DESERT_FOX_OUTFIT_2_cls-2" d="M134.19,404.66l-3-1.6a1.25,1.25,0,0,0-1.54.3,1,1,0,0,0-.46-1.37,1.23,1.23,0,0,0-1.6.38l-.45.72L125.31,406l-.58-.32a1.21,1.21,0,0,0-1.59.39,1,1,0,0,0,.42,1.47l.57.31-2.06,3.24-.25.4a1,1,0,0,0,.42,1.47,1.21,1.21,0,0,0,1,.07,1.06,1.06,0,0,0,.58.8l3.35,1.81a1.22,1.22,0,0,0,1.6-.38l5-7.92.79-1.24A1,1,0,0,0,134.19,404.66Zm-6.81,8.61L125,412a1.18,1.18,0,0,0-.71-.13l1.84-2.9,1.3.7a1.23,1.23,0,0,0,1.59-.39,1,1,0,0,0-.42-1.47l-1.3-.7,2.2-3.46a.93.93,0,0,1,.09-.2l.06-.08h0l0,.09-.12.19a1,1,0,0,0,.51,1.27l2,1.06Z" />
      <path class="GUNDAN_DESERT_FOX_OUTFIT_DESERT_FOX_OUTFIT_2_cls-3" d="M130,404.92a1,1,0,0,1-.51-1.27l-2.2,3.46,1.3.7a1,1,0,0,1,.42,1.47,1.23,1.23,0,0,1-1.59.39l-1.3-.7-1.84,2.9a1.18,1.18,0,0,1,.71.13l2.36,1.27L132,406Z" />
      <path class="GUNDAN_DESERT_FOX_OUTFIT_DESERT_FOX_OUTFIT_2_cls-3" d="M123.14,406.1a1.21,1.21,0,0,1,1.59-.39l.58.32,1.86-2.94c-6.53-3.3-10.94-2.92-10.94-2.92a20,20,0,0,0-2.8,3.59c-.72,1.2-1.4,2.41-2,3.61,0,0,6.72.72,10.68,3.75l2.06-3.24-.57-.31A1,1,0,0,1,123.14,406.1Z" />
      <path class="GUNDAN_DESERT_FOX_OUTFIT_DESERT_FOX_OUTFIT_2_cls-3" d="M138.31,412.58c-1.22-.68-4.49-5.21-4.49-5.21l-5,7.92a48.2,48.2,0,0,0,5.62,4.22,7.48,7.48,0,0,0,3.29,1.1l2.3-4.87h0l.57-1.2.34-1A10.2,10.2,0,0,1,138.31,412.58Z" />
      <path class="GUNDAN_DESERT_FOX_OUTFIT_DESERT_FOX_OUTFIT_2_cls-4" d="M99,419.3l.27,5.57s-1,1.63-4.28,9a35.74,35.74,0,0,0-2.09,6.47,71.44,71.44,0,0,0-1.5,9.92c-.11,1.38-.14,2.22-.14,2.22V457h5.57l.07-2.71a34.65,34.65,0,0,1,.38-4c1.73-11.88,8.55-21.65,8.55-21.65l-3.16-7.08S101.66,420.85,99,419.3Z" />
      <path class="GUNDAN_DESERT_FOX_OUTFIT_DESERT_FOX_OUTFIT_2_cls-4" d="M122.37,380.72l-4.11,2.5a23.63,23.63,0,0,0-.36-4.47l-3.84,4a32.17,32.17,0,0,1,1.31,5.56,9.63,9.63,0,0,0-6.92,3.22,8,8,0,0,0-1,9.31,16.13,16.13,0,0,0-5.68,4.49h0a14.65,14.65,0,0,0-3.3,11.22l5.09,2.82c.87-2.95,3.86-12.4,7.8-17.74a21.72,21.72,0,0,1,1.62-2,56.65,56.65,0,0,1,8.94-7.44A16.66,16.66,0,0,0,122.37,380.72Z" />
      <path class="GUNDAN_DESERT_FOX_OUTFIT_DESERT_FOX_OUTFIT_2_cls-2" d="M128.57,379.8c-4.13-4.31-10.55-5.12-14.46-5.16-.94,0-1.73,0-2.31.05.17.66.35,1.32.53,1.95,3,.2,10,1,13.66,4.2,1,6.6,1.32,7.93,1.32,7.93s-2.37,1.35-5.38,3.44a56.65,56.65,0,0,0-8.94,7.44,21.72,21.72,0,0,0-1.62,2c-3.94,5.34-6.93,14.79-7.8,17.74l-5.09-2.82-4.13-2.29h0c0-.54-1.44-13.56-9.2-18l.08,6.54a26,26,0,0,1,7.56,11.84h0c.15.51.28,1,.4,1.54,2.47,1.29,4.36,2.33,5.77,3.13,2.7,1.55,3.67,2.25,3.67,2.25l3.16,7.08S99,438.4,97.24,450.28h2.13s.29-1.52.88-3.8a66.05,66.05,0,0,1,3.94-11.42,22.7,22.7,0,0,1,4.26-6.49c-1.56-2.92-2.61-5.05-3.29-6.49l.39-1.47s.48-1.39,1.36-3.57c1-2.49,2.55-6,4.48-9.67.64-1.2,1.32-2.41,2-3.61a20,20,0,0,1,2.8-3.59c5.56-5.79,14-9.06,14-9.06Z" />
      <path class="GUNDAN_DESERT_FOX_OUTFIT_DESERT_FOX_OUTFIT_2_cls-5" d="M114.06,382.71c-.51-1.76-1.11-3.84-1.73-6.07-.18-.63-.36-1.29-.53-1.95-1.16-4.27-6.51-11-7.1-15.27-1.94,3.83.34,11.39-1.46,17.44h0a25.58,25.58,0,0,1,5.21,14.62,9.63,9.63,0,0,1,6.92-3.22A32.17,32.17,0,0,0,114.06,382.71Z" />
      <path class="GUNDAN_DESERT_FOX_OUTFIT_DESERT_FOX_OUTFIT_2_cls-5" d="M93.19,416.17c-.12-.52-.25-1-.4-1.54a26,26,0,0,0-7.56-11.84l.46,34.36h0c1.42,2.24,3.66,4,7.17,3.2A35.74,35.74,0,0,1,95,433.89c3.33-7.39,4.28-9,4.28-9L99,419.3C97.55,418.5,95.66,417.46,93.19,416.17Z" />
      <path class="GUNDAN_DESERT_FOX_OUTFIT_DESERT_FOX_OUTFIT_2_cls-3" d="M123.9,424.12c-5.71-.35-13.81-5.08-17-7.08-.88,2.18-1.36,3.57-1.36,3.57l-.39,1.47c.68,1.44,1.73,3.57,3.29,6.49a22.7,22.7,0,0,0-4.26,6.49c16.65,1.78,27.73-2.91,27.73-2.91.24-.55.54-1.19.88-1.9.93-1.95,2.16-4.31,3.1-6.13A87.18,87.18,0,0,1,123.9,424.12Z" />
      <path class="GUNDAN_DESERT_FOX_OUTFIT_DESERT_FOX_OUTFIT_2_cls-6" d="M122.1,372.78a20.33,20.33,0,0,1-5.85-5.06l-2.14,6.92c3.91,0,10.33.85,14.46,5.16l1.68,11.31s-8.46,3.27-14,9.06c0,0,4.41-.38,10.94,2.92l.45-.72a1.23,1.23,0,0,1,1.6-.38,1,1,0,0,1,.46,1.37,1.25,1.25,0,0,1,1.54-.3l3,1.6a1,1,0,0,1,.42,1.47l-.79,1.24s3.27,4.53,4.49,5.21a10.2,10.2,0,0,0,2.61.92l2.38-7.14s1.71-13,1.71-16.81v-9.23l.07-.46A65.51,65.51,0,0,1,122.1,372.78Z" />
      <path class="GUNDAN_DESERT_FOX_OUTFIT_DESERT_FOX_OUTFIT_2_cls-6" d="M128.8,415.29a1.22,1.22,0,0,1-1.6.38l-3.35-1.81a1.06,1.06,0,0,1-.58-.8,1.21,1.21,0,0,1-1-.07,1,1,0,0,1-.42-1.47l.25-.4c-4-3-10.68-3.75-10.68-3.75-1.93,3.65-3.47,7.18-4.48,9.67,3.18,2,11.28,6.73,17,7.08a87.18,87.18,0,0,0,12,0h0l1.5-2.86.31-.65a7.48,7.48,0,0,1-3.29-1.1A48.2,48.2,0,0,1,128.8,415.29Z" />
      <path class="GUNDAN_DESERT_FOX_OUTFIT_DESERT_FOX_OUTFIT_2_cls-6" d="M112.33,376.64c.62,2.23,1.22,4.31,1.73,6.07l3.84-4a23.63,23.63,0,0,1,.36,4.47l4.11-2.5a16.66,16.66,0,0,1-.44,11.49c3-2.09,5.38-3.44,5.38-3.44s-.31-1.33-1.32-7.93C122.37,377.63,115.36,376.84,112.33,376.64Z" />
      <path class="GUNDAN_DESERT_FOX_OUTFIT_DESERT_FOX_OUTFIT_2_cls-6" d="M103.24,376.87c-4.37,14.68-7.95,32.54-8.89,37.35h0l4.13,2.29a14.65,14.65,0,0,1,3.3-11.22h0a16.13,16.13,0,0,1,5.68-4.49,8,8,0,0,1,1-9.31A25.58,25.58,0,0,0,103.24,376.87Z" />
      <path class="GUNDAN_DESERT_FOX_OUTFIT_DESERT_FOX_OUTFIT_2_cls-6" d="M253.57,428.25C233,422.81,200,413.71,186.21,405.33c-12.67,16.82-27.51,38.87-40.47,44.95,0,0-4.88,3.49-10.3,6.68H279.59C270,451.8,260.29,438.77,253.57,428.25Z" />
      <path class="GUNDAN_DESERT_FOX_OUTFIT_DESERT_FOX_OUTFIT_2_cls-6" d="M135.48,445.75l1.92-1.82c9.53-7.38,24-29.64,36.89-46.35-2-1.35-3.75-2.64-5.36-3.83a6.28,6.28,0,0,1-1.62.24c-6.06.12-6.79-3-5-5.36-2-1.62-3.19-2.66-3.43-2.87-.42-.38,2.68-.79,2.37-1.22h0a10.94,10.94,0,0,1-6.15-4.32h0a52,52,0,0,1-10-.36l-.07.46v9.23c0,3.81-1.71,16.81-1.71,16.81l-2.38,7.14-.34,1-.57,1.2h0c0,2.57-.35,5.4-1.47,7.27l-.16.26a75,75,0,0,1-5.41,7.05l-1.19,4.76a25.71,25.71,0,0,0,4.19,8C135.64,443.32,135.51,444.46,135.48,445.75Z" />
      <path class="GUNDAN_DESERT_FOX_OUTFIT_DESERT_FOX_OUTFIT_2_cls-6" d="M220.79,388.73c-2.34-.1-4.82-.25-7.4-.47-.84,1.22-1.91,2.76-3.17,4.53a201.51,201.51,0,0,0,30.93,15.44C235.12,400.36,226.72,392.21,220.79,388.73Z" />
      <path class="GUNDAN_DESERT_FOX_OUTFIT_DESERT_FOX_OUTFIT_2_cls-6" d="M171.85,376.32c.53.42,1.17.95,1.92,1.54.56-1,1.57-2.47,2.86-2,2,.72,4,2.6,3.36,4.95a9.66,9.66,0,0,1-.52,1.38c1.29.95,2.71,2,4.23,3,1.55-2.06,2.84-3.8,3.79-5.08-2.2-2.14-4.46-4.39-6.32-6.33a21,21,0,0,0-12.32-6.1,9.77,9.77,0,0,1,3.13,7.1A8.62,8.62,0,0,1,171.85,376.32Z" />
      <path class="GUNDAN_DESERT_FOX_OUTFIT_DESERT_FOX_OUTFIT_2_cls-3" d="M246.34,416a61.61,61.61,0,0,0-5.19-7.81h0a201.51,201.51,0,0,1-30.93-15.44c-1.13-.68-2.21-1.36-3.28-2-3.08-1.95-20.74-3.82-23.24-5.57-1.52-1.05-2.94-2.06-4.23-3-1.46,3.34-5.52,10.2-10.54,11.56,1.61,1.19,3.4,2.48,5.36,3.83,3.47,2.41,7.47,5,11.92,7.75,13.79,8.38,46.82,17.48,67.36,22.92C250.36,423.24,247.83,418.79,246.34,416Z" />
      <path class="GUNDAN_DESERT_FOX_OUTFIT_DESERT_FOX_OUTFIT_2_cls-3" d="M175.71,379.38l-1.94-1.52c-.75-.59-1.39-1.12-1.92-1.54-.8,4.9-5.39,8.65-10.93,8.65-1.1,0,1.31-.15.3-.43.31.43-2.79.84-2.37,1.22.24.21,1.42,1.25,3.43,2.87.72.58,1.54,1.23,2.45,1.94C173.24,388.29,175.24,382.37,175.71,379.38Z" />
      <path class="GUNDAN_DESERT_FOX_OUTFIT_DESERT_FOX_OUTFIT_2_cls-4" d="M137.4,443.93l-1.92,1.82c-1.75,1.64-4.41,4.09-6.91,6.25a38.9,38.9,0,0,1-5.59,4.27l-.86.69h13.32c5.42-3.19,10.3-6.68,10.3-6.68,13-6.08,27.8-28.13,40.47-44.95-4.45-2.71-8.45-5.34-11.92-7.75C161.4,414.29,146.93,436.55,137.4,443.93Z" />
      <path class="GUNDAN_DESERT_FOX_OUTFIT_DESERT_FOX_OUTFIT_2_cls-4" d="M187.49,380.12c-1,1.28-2.24,3-3.79,5.08,2.5,1.75,20.16,3.62,23.24,5.57,1.07.66,2.15,1.34,3.28,2,1.26-1.77,2.33-3.31,3.17-4.53l-2.31-.22C210.33,387.63,191.58,384.09,187.49,380.12Z" />
      <path class="GUNDAN_DESERT_FOX_OUTFIT_DESERT_FOX_OUTFIT_2_cls-4" d="M265.39,324.24s-33.58,29.52-50,37.27c-19.45-12.89-52.13-36-52.13-36l-6.7,4,2.38,7.47c3.56,1.94,11,8.59,16.14,17.84a45.25,45.25,0,0,1,9.44,4.9c9.07,6.14,33.35,7.93,38.66,6.51a7.15,7.15,0,0,0,3.1-1.58c3.81-3.61,36.95-32.07,50.81-34,.31-1,.59-1.82.85-2.55Z" />
      <path class="GUNDAN_DESERT_FOX_OUTFIT_DESERT_FOX_OUTFIT_2_cls-5" d="M336,440.72c-.61-.89-1.79-2.7-3.24-5-4.23-6.65-10.76-17.35-12.1-21.08,2.17-2.79,2.9-6.13.63-7.59s-3.48-4.87-4.71-12.76-6.46-17.79-6.46-17.79c1.75-.9,2.8-1.6,3-2.57-.55-.62-2.16-7-4.27-10.14s-5.42-15.14-9.57-19c-.6-3-4.07-3.17-4.07-3.17s-.46-.07-1.35-.11l-.89-2.71s4.21-6.26,3.73-6.76-2-3.32-7.4-4.13a65.75,65.75,0,0,1-9.55-2.2s-.54-1.44-1.83,2.29c-.26.73-.54,1.57-.85,2.55-13.86,1.95-47,30.41-50.81,34a7.15,7.15,0,0,1-3.1,1.58c-5.31,1.42-29.59-.37-38.66-6.51a45.25,45.25,0,0,0-9.44-4.9c-5.13-9.25-12.58-15.9-16.14-17.84l.7,13.09,1.39,4.36h0l7.8,13.29h0a21,21,0,0,1,12.32,6.1c1.86,1.94,4.12,4.19,6.32,6.33,4.09,4,22.84,7.51,23.59,7.92l2.31.22c2.58.22,5.06.37,7.4.47a35.75,35.75,0,0,1,6.07,1.36,119.61,119.61,0,0,1,16.89,17.11,87.88,87.88,0,0,1,5.19,7.26,3.71,3.71,0,0,1,2.69-1.12,3.47,3.47,0,0,1,3.61,3.32A3.43,3.43,0,0,1,252,420a2.91,2.91,0,0,1,.18.35,65.52,65.52,0,0,0,5.24,8.76h0c1,1.45,2.06,2.88,3.19,4.31a3.61,3.61,0,0,1,3.21-1.83,3.47,3.47,0,0,1,3.6,3.32,3.39,3.39,0,0,1-2.82,3.24,100.85,100.85,0,0,0,11.52,11,3.65,3.65,0,0,1,3.23-1.83,3.47,3.47,0,0,1,3.6,3.32,3.19,3.19,0,0,1-1.31,2.55c4.12,2.7,4.57,4.56,7.91,5.19,11.69,2.2,18.3.63,19.83.44l.14,0a70.56,70.56,0,0,0,8-2.25c11.41-4,23.18-6.85,23.18-6.85A58,58,0,0,0,336,440.72Z" />
      <path class="GUNDAN_DESERT_FOX_OUTFIT_DESERT_FOX_OUTFIT_2_cls-2" d="M115.65,348.83a1.12,1.12,0,0,0-1.15-1.09h0a1.13,1.13,0,0,0-1.17,1.07c0,.62,0,6.14.6,8.12a1.16,1.16,0,0,0,1.12.78,1.25,1.25,0,0,0,.32,0,1.06,1.06,0,0,0,.8-1.33C115.72,354.91,115.65,350.43,115.65,348.83Z" />
      <path class="GUNDAN_DESERT_FOX_OUTFIT_DESERT_FOX_OUTFIT_2_cls-2" d="M124.39,348.4a1.16,1.16,0,0,0-1.3-.94,1.11,1.11,0,0,0-1,1.19c0,.33,1.05,7.91,2.94,11.26a1.16,1.16,0,0,0,1,.59,1.19,1.19,0,0,0,.54-.13,1,1,0,0,0,.49-1.44C125.38,355.91,124.4,348.47,124.39,348.4Z" />
      <path class="GUNDAN_DESERT_FOX_OUTFIT_DESERT_FOX_OUTFIT_2_cls-2" d="M132.36,345.54a1.16,1.16,0,0,0-1.38-.84,1.08,1.08,0,0,0-.91,1.26c.09.37,2,9.14,4.9,12.87a1.2,1.2,0,0,0,1,.46,1.19,1.19,0,0,0,.67-.2,1,1,0,0,0,.28-1.5C134.29,354.23,132.38,345.62,132.36,345.54Z" />
      <path class="GUNDAN_DESERT_FOX_OUTFIT_DESERT_FOX_OUTFIT_2_cls-2" d="M146.93,356.78c-4.33-6-5.5-15.09-5.51-15.18a1.15,1.15,0,0,0-1.29-1,1.11,1.11,0,0,0-1,1.19c.05.39,1.24,9.73,5.89,16.14a1.2,1.2,0,0,0,1,.47,1.31,1.31,0,0,0,.66-.18A1,1,0,0,0,146.93,356.78Z" />
      <path class="GUNDAN_DESERT_FOX_OUTFIT_DESERT_FOX_OUTFIT_2_cls-5" d="M145.49,331.39a5.87,5.87,0,0,0-5.05-.11c-.54.29-1.67.79-3.16,1.38-2.39,1-5.74,2.19-9,3.23a57.62,57.62,0,0,1-8.05,2.08,11.5,11.5,0,0,1-1.6.16c-1.65,0-3.35-.11-4.9-.11-2.59,0-4.8.34-5.83,2.36a5,5,0,0,0-.51,1.59c-.51,3.06.57,9.72,4.38,16h0c2.59,4.3,10.65,10.45,16.13,13.14a41.77,41.77,0,0,0,3.84,1.68h0a62.54,62.54,0,0,0,14.4,3.53,70.45,70.45,0,0,0,7.46.57,8.87,8.87,0,0,1-.25-2.13,9.6,9.6,0,0,1,1-4.23,10.74,10.74,0,0,1,5.41-5Zm-30.13,26.27a1.25,1.25,0,0,1-.32,0,1.16,1.16,0,0,1-1.12-.78c-.62-2-.6-7.5-.6-8.12a1.13,1.13,0,0,1,1.17-1.07h0a1.12,1.12,0,0,1,1.15,1.09c0,1.6.07,6.08.51,7.5A1.06,1.06,0,0,1,115.36,357.66Zm7.73-10.2a1.16,1.16,0,0,1,1.3.94c0,.07,1,7.51,2.68,10.53a1,1,0,0,1-.49,1.44,1.19,1.19,0,0,1-.54.13,1.16,1.16,0,0,1-1-.59c-1.89-3.35-2.9-10.93-2.94-11.26A1.11,1.11,0,0,1,123.09,347.46Zm17-6.81a1.15,1.15,0,0,1,1.29,1c0,.09,1.18,9.21,5.51,15.18a1,1,0,0,1-.31,1.49,1.31,1.31,0,0,1-.66.18,1.2,1.2,0,0,1-1-.47c-4.65-6.41-5.84-15.75-5.89-16.14A1.11,1.11,0,0,1,140.13,340.65ZM131,344.7a1.16,1.16,0,0,1,1.38.84c0,.08,1.93,8.69,4.52,12a1,1,0,0,1-.28,1.5,1.19,1.19,0,0,1-.67.2,1.2,1.2,0,0,1-1-.46c-2.87-3.73-4.81-12.5-4.9-12.87A1.08,1.08,0,0,1,131,344.7Z" />
      <path class="GUNDAN_DESERT_FOX_OUTFIT_DESERT_FOX_OUTFIT_2_cls-2" d="M289.6,458.29c-3.34-.63-3.79-2.49-7.91-5.19a3.19,3.19,0,0,0,1.31-2.55,3.47,3.47,0,0,0-3.6-3.32,3.65,3.65,0,0,0-3.23,1.83,100.85,100.85,0,0,1-11.52-11,3.39,3.39,0,0,0,2.82-3.24,3.47,3.47,0,0,0-3.6-3.32,3.61,3.61,0,0,0-3.21,1.83c-1.13-1.43-2.19-2.86-3.19-4.31h0a65.52,65.52,0,0,1-5.24-8.76A2.91,2.91,0,0,0,252,420a3.43,3.43,0,0,0,3.2-3.29,3.47,3.47,0,0,0-3.61-3.32,3.71,3.71,0,0,0-2.69,1.12,87.88,87.88,0,0,0-5.19-7.26,119.61,119.61,0,0,0-16.89-17.11,35.75,35.75,0,0,0-6.07-1.36c5.93,3.48,14.33,11.63,20.36,19.5h0a61.61,61.61,0,0,1,5.19,7.81c1.49,2.75,4,7.2,7.23,12.21,6.72,10.52,16.46,23.55,26,28.71a18.89,18.89,0,0,0,4.93,1.92c12.11,2.75,14.46,2.16,24.91-.15C307.9,458.92,301.29,460.49,289.6,458.29Z" />
      <path class="GUNDAN_DESERT_FOX_OUTFIT_DESERT_FOX_OUTFIT_2_cls-2" d="M176.63,375.86c-1.29-.47-2.3,1-2.86,2l1.94,1.52c-.47,3-2.47,8.91-11,11.19-.91-.71-1.73-1.36-2.45-1.94-1.76,2.4-1,5.48,5,5.36a6.28,6.28,0,0,0,1.62-.24c5-1.36,9.08-8.22,10.54-11.56a9.66,9.66,0,0,0,.52-1.38C180.64,378.46,178.59,376.58,176.63,375.86Z" />
      <path class="GUNDAN_DESERT_FOX_OUTFIT_DESERT_FOX_OUTFIT_2_cls-2" d="M171.85,376.32a8.62,8.62,0,0,0,.13-1.53,9.77,9.77,0,0,0-3.13-7.1h0l-7.8-13.29h0L159.66,350l-.7-13.09-2.38-7.47-.57-1.77-10.52,3.7,14.26,34.15a10.74,10.74,0,0,0-5.41,5,9.6,9.6,0,0,0-1,4.23,8.87,8.87,0,0,0,.25,2.13,70.45,70.45,0,0,1-7.46-.57,62.54,62.54,0,0,1-14.4-3.53h0a41.77,41.77,0,0,1-3.84-1.68c-5.48-2.69-13.54-8.84-16.13-13.14h0c-3.81-6.29-4.89-13-4.38-16a5,5,0,0,1,.51-1.59c-1.46-.56-3.61-1.16-4.55-.23-1.22,1.21,5.43,18.41,12.91,27.57a20.33,20.33,0,0,0,5.85,5.06,65.51,65.51,0,0,0,23,7.08,52,52,0,0,0,10,.36h0a10.94,10.94,0,0,0,6.15,4.32h0c1,.28-1.4.43-.3.43C166.46,385,171.05,381.22,171.85,376.32Z" />
      <path class="GUNDAN_DESERT_FOX_OUTFIT_DESERT_FOX_OUTFIT_2_cls-7" d="M155.05,380.22a9.59,9.59,0,0,1-1.45-3.3,8.87,8.87,0,0,1-.25-2.13,9.6,9.6,0,0,1,1-4.23,10.74,10.74,0,0,1,5.41-5c1.41-.61-.49-.94,1.17-.94a11.52,11.52,0,0,1,7.93,3.08" />
      <path class="GUNDAN_DESERT_FOX_OUTFIT_DESERT_FOX_OUTFIT_2_cls-7" d="M161.21,384.54a10.94,10.94,0,0,1-6.15-4.32" />
      <path class="GUNDAN_DESERT_FOX_OUTFIT_DESERT_FOX_OUTFIT_2_cls-7" d="M168.85,367.69a9.77,9.77,0,0,1,3.13,7.1,8.62,8.62,0,0,1-.13,1.53c-.8,4.9-5.39,8.65-10.93,8.65-1.1,0,1.31-.15.3-.43" />
      <polyline class="GUNDAN_DESERT_FOX_OUTFIT_DESERT_FOX_OUTFIT_2_cls-7" points="161.05 354.39 168.84 367.69 168.84 367.69" />
      <polyline class="GUNDAN_DESERT_FOX_OUTFIT_DESERT_FOX_OUTFIT_2_cls-7" points="159.75 365.54 145.49 331.39 156.01 327.69 156.58 329.46 158.96 336.93 159.66 350.02 161.05 354.38" />
      <path class="GUNDAN_DESERT_FOX_OUTFIT_DESERT_FOX_OUTFIT_2_cls-7" d="M131.74,372.82a62.54,62.54,0,0,0,14.4,3.53,70.45,70.45,0,0,0,7.46.57" />
      <path class="GUNDAN_DESERT_FOX_OUTFIT_DESERT_FOX_OUTFIT_2_cls-7" d="M111.77,358c2.59,4.3,10.65,10.45,16.13,13.14a41.77,41.77,0,0,0,3.84,1.68" />
      <path class="GUNDAN_DESERT_FOX_OUTFIT_DESERT_FOX_OUTFIT_2_cls-7" d="M145.49,331.39a5.87,5.87,0,0,0-5.05-.11c-.54.29-1.67.79-3.16,1.38-2.39,1-5.74,2.19-9,3.23a57.62,57.62,0,0,1-8.05,2.08,11.5,11.5,0,0,1-1.6.16c-1.65,0-3.35-.11-4.9-.11-2.59,0-4.8.34-5.83,2.36a5,5,0,0,0-.51,1.59c-.51,3.06.57,9.72,4.38,16" />
      <path class="GUNDAN_DESERT_FOX_OUTFIT_DESERT_FOX_OUTFIT_2_cls-7" d="M107.89,340.38c-1.46-.56-3.61-1.16-4.55-.23-1.22,1.21,5.43,18.41,12.91,27.57a20.33,20.33,0,0,0,5.85,5.06,65.51,65.51,0,0,0,23,7.08,52,52,0,0,0,10,.36h0" />
      <path class="GUNDAN_DESERT_FOX_OUTFIT_DESERT_FOX_OUTFIT_2_cls-7" d="M156.58,329.46l6.7-4s32.68,23.15,52.13,36c2.58,1.72,5.19,3.29,7.79,4.67" />
      <path class="GUNDAN_DESERT_FOX_OUTFIT_DESERT_FOX_OUTFIT_2_cls-7" d="M159,336.93c3.56,1.94,11,8.59,16.14,17.84" />
      <path class="GUNDAN_DESERT_FOX_OUTFIT_DESERT_FOX_OUTFIT_2_cls-7" d="M293.9,341.54l-.89-2.71s4.21-6.26,3.73-6.76-2-3.32-7.4-4.13a65.75,65.75,0,0,1-9.55-2.2s-.54-1.44-1.84,2.29c-.25.73-.53,1.57-.84,2.55-13.86,1.95-47,30.41-50.81,34a7.15,7.15,0,0,1-3.1,1.58c-5.31,1.42-29.59-.37-38.66-6.51a45.25,45.25,0,0,0-9.44-4.9c-4.93-1.88-13.28-4.54-15.44-4.75" />
      <path class="GUNDAN_DESERT_FOX_OUTFIT_DESERT_FOX_OUTFIT_2_cls-7" d="M215.41,361.51c16.4-7.75,50-37.27,50-37.27L278,328" />
      <path class="GUNDAN_DESERT_FOX_OUTFIT_DESERT_FOX_OUTFIT_2_cls-7" d="M168.85,367.69a21,21,0,0,1,12.32,6.1c1.86,1.94,4.12,4.19,6.32,6.33,4.09,4,22.84,7.51,23.59,7.92l2.31.22c2.58.22,5.06.37,7.4.47,8.24.35,14.59,0,15.83-.69,1.7-.94,8.54-8.58,15.78-19.52s23.88-22,32.85-22.76" />
      <path class="GUNDAN_DESERT_FOX_OUTFIT_DESERT_FOX_OUTFIT_2_cls-7" d="M161.05,354.38h0c4.28.84,35.41,6.24,46.71,18.48" />
      <path class="GUNDAN_DESERT_FOX_OUTFIT_DESERT_FOX_OUTFIT_2_cls-7" d="M297.62,389.36c5.7-2.32,6.78-10,10-11.59,1-.47,1.79-.88,2.51-1.25,1.75-.9,2.8-1.6,3-2.57-.55-.62-2.16-7-4.27-10.14s-5.42-15.14-9.57-19c-.6-3-4.07-3.17-4.07-3.17s-.46-.07-1.35-.11c-3-.15-7.48,0-19.77,4.06-16,5.26-27.86,13.13-42.2,25.85-10.32,5.32-22.21,2.44-22.21,2.44s4.47,5.57,5.91,7.24" />
      <path class="GUNDAN_DESERT_FOX_OUTFIT_DESERT_FOX_OUTFIT_2_cls-7" d="M320.7,408.65s-8.06,5-15.45,5-9-5.39-16.93-7.39a38.12,38.12,0,0,0-16.17,0" />
      <path class="GUNDAN_DESERT_FOX_OUTFIT_DESERT_FOX_OUTFIT_2_cls-7" d="M241.15,408.23c-6-7.87-14.43-16-20.36-19.5a35.75,35.75,0,0,1,6.07,1.36c3.85,1.08,9.24,2.71,16,4.65,12,3.43,27.45-.83,32.7-9.18s16.75-17.2,16.75-17.2" />
      <path class="GUNDAN_DESERT_FOX_OUTFIT_DESERT_FOX_OUTFIT_2_cls-7" d="M309.43,458.73c-10.45,2.31-12.8,2.9-24.91.15a18.89,18.89,0,0,1-4.93-1.92c-9.56-5.16-19.3-18.19-26-28.71-3.21-5-5.74-9.46-7.23-12.21a61.61,61.61,0,0,0-5.19-7.81" />
      <path class="GUNDAN_DESERT_FOX_OUTFIT_DESERT_FOX_OUTFIT_2_cls-7" d="M310.16,376.52s5.24,9.89,6.46,17.79,2.45,11.29,4.71,12.76,1.54,4.8-.63,7.59c1.34,3.73,7.87,14.43,12.1,21.08,1.45,2.28,2.63,4.09,3.24,5a58,58,0,0,1,4.67,8.89s-11.77,2.84-23.18,6.85a70.56,70.56,0,0,1-8,2.25" />
      <path class="GUNDAN_DESERT_FOX_OUTFIT_DESERT_FOX_OUTFIT_2_cls-7" d="M171.85,376.32c.53.42,1.17.95,1.92,1.54l1.94,1.52" />
      <path class="GUNDAN_DESERT_FOX_OUTFIT_DESERT_FOX_OUTFIT_2_cls-7" d="M161.21,384.54h0c.31.43-2.79.84-2.37,1.22.24.21,1.42,1.25,3.43,2.87.72.58,1.54,1.23,2.45,1.94" />
      <path class="GUNDAN_DESERT_FOX_OUTFIT_DESERT_FOX_OUTFIT_2_cls-7" d="M179.47,382.19c1.29.95,2.71,2,4.23,3,2.5,1.75,20.16,3.62,23.24,5.57,1.07.66,2.15,1.34,3.28,2a201.51,201.51,0,0,0,30.93,15.44h0" />
      <path class="GUNDAN_DESERT_FOX_OUTFIT_DESERT_FOX_OUTFIT_2_cls-7" d="M168.93,393.75c1.61,1.19,3.4,2.48,5.36,3.83,3.47,2.41,7.47,5,11.92,7.75,13.79,8.38,46.82,17.48,67.36,22.92" />
      <path class="GUNDAN_DESERT_FOX_OUTFIT_DESERT_FOX_OUTFIT_2_cls-7" d="M175.85,377.58a10.14,10.14,0,0,1-.14,1.8c-.47,3-2.47,8.91-11,11.19-.48.13-1,.25-1.5.35" />
      <path class="GUNDAN_DESERT_FOX_OUTFIT_DESERT_FOX_OUTFIT_2_cls-7" d="M173.77,377.86c.56-1,1.57-2.47,2.86-2,2,.72,4,2.6,3.36,4.95a9.66,9.66,0,0,1-.52,1.38c-1.46,3.34-5.52,10.2-10.54,11.56a6.28,6.28,0,0,1-1.62.24c-6.06.12-6.79-3-5-5.36" />
      <path class="GUNDAN_DESERT_FOX_OUTFIT_DESERT_FOX_OUTFIT_2_cls-7" d="M187.49,380.12c-1,1.28-2.24,3-3.79,5.08" />
      <path class="GUNDAN_DESERT_FOX_OUTFIT_DESERT_FOX_OUTFIT_2_cls-7" d="M122.12,457l.86-.69a38.9,38.9,0,0,0,5.59-4.27c2.5-2.16,5.16-4.61,6.91-6.25l1.92-1.82c9.53-7.38,24-29.64,36.89-46.35" />
      <path class="GUNDAN_DESERT_FOX_OUTFIT_DESERT_FOX_OUTFIT_2_cls-7" d="M135.44,457c5.42-3.19,10.3-6.68,10.3-6.68,13-6.08,27.8-28.13,40.47-44.95" />
      <path class="GUNDAN_DESERT_FOX_OUTFIT_DESERT_FOX_OUTFIT_2_cls-7" d="M213.39,388.26c-.84,1.22-1.91,2.76-3.17,4.53" />
      <path class="GUNDAN_DESERT_FOX_OUTFIT_DESERT_FOX_OUTFIT_2_cls-7" d="M137.28,332.66a51.22,51.22,0,0,0,2.08,18.88c2.47,7.9,12.71,16.68,15,19" />
      <path class="GUNDAN_DESERT_FOX_OUTFIT_DESERT_FOX_OUTFIT_2_cls-7" d="M128.27,335.89A44,44,0,0,0,132.2,358c4,8.3,11.91,15.74,13.94,18.39" />
      <path class="GUNDAN_DESERT_FOX_OUTFIT_DESERT_FOX_OUTFIT_2_cls-7" d="M131.74,372.82h0c-6.86-9.16-11.61-27.91-11.52-34.84" />
      <path class="GUNDAN_DESERT_FOX_OUTFIT_DESERT_FOX_OUTFIT_2_cls-7" d="M113.72,338c-1.25,4.18-3.18,12.4-2,20h0" />
      <path class="GUNDAN_DESERT_FOX_OUTFIT_DESERT_FOX_OUTFIT_2_cls-7" d="M135.9,424.12c-.94,1.82-2.17,4.18-3.1,6.13-.34.71-.64,1.35-.88,1.9a9.61,9.61,0,0,0-.56,1.49,5.62,5.62,0,0,0,0,2.69l-2.16,2.32s-.38,2.54-.64,5.45a31.5,31.5,0,0,0-.12,7.19l.13.71" />
      <path class="GUNDAN_DESERT_FOX_OUTFIT_DESERT_FOX_OUTFIT_2_cls-7" d="M140,415.74l-2.3,4.87-.31.65-1.5,2.86" />
      <path class="GUNDAN_DESERT_FOX_OUTFIT_DESERT_FOX_OUTFIT_2_cls-7" d="M142.75,397.33s-4.8-10.77-3.71-5.75,4.26,14.78,4.26,14.78l-2.38,7.14-.34,1-.57,1.2" />
      <polyline class="GUNDAN_DESERT_FOX_OUTFIT_DESERT_FOX_OUTFIT_2_cls-7" points="114.04 374.87 114.11 374.64 116.25 367.72" />
      <path class="GUNDAN_DESERT_FOX_OUTFIT_DESERT_FOX_OUTFIT_2_cls-7" d="M101.78,405.3a14.65,14.65,0,0,0-3.3,11.22" />
      <path class="GUNDAN_DESERT_FOX_OUTFIT_DESERT_FOX_OUTFIT_2_cls-7" d="M103.24,376.86c1.8-6.05-.48-13.61,1.46-17.44.59,4.26,5.94,11,7.1,15.27.17.66.35,1.32.53,1.95.62,2.23,1.22,4.31,1.73,6.07a32.17,32.17,0,0,1,1.31,5.56,9.63,9.63,0,0,0-6.92,3.22,8,8,0,0,0-1,9.31,16.13,16.13,0,0,0-5.68,4.49" />
      <path class="GUNDAN_DESERT_FOX_OUTFIT_DESERT_FOX_OUTFIT_2_cls-7" d="M94.35,414.22c.94-4.81,4.52-22.67,8.89-37.35" />
      <path class="GUNDAN_DESERT_FOX_OUTFIT_DESERT_FOX_OUTFIT_2_cls-7" d="M105.16,422.08l.39-1.47s.48-1.39,1.36-3.57c1-2.49,2.55-6,4.48-9.67.64-1.2,1.32-2.41,2-3.61a20,20,0,0,1,2.8-3.59c5.56-5.79,14-9.06,14-9.06l-1.68-11.31c-4.13-4.31-10.55-5.12-14.46-5.16-.94,0-1.73,0-2.31.05" />
      <path class="GUNDAN_DESERT_FOX_OUTFIT_DESERT_FOX_OUTFIT_2_cls-7" d="M112.33,376.64c3,.2,10,1,13.66,4.2,1,6.6,1.32,7.93,1.32,7.93s-2.37,1.35-5.38,3.44a56.65,56.65,0,0,0-8.94,7.44,21.72,21.72,0,0,0-1.62,2c-3.94,5.34-6.93,14.79-7.8,17.74" />
      <path class="GUNDAN_DESERT_FOX_OUTFIT_DESERT_FOX_OUTFIT_2_cls-7" d="M101.78,405.3h0a33.33,33.33,0,0,0,9.33-6.47,26.39,26.39,0,0,0,5-6.41,20.36,20.36,0,0,0,2.09-9.19,23.63,23.63,0,0,0-.36-4.47l-3.84,4" />
      <path class="GUNDAN_DESERT_FOX_OUTFIT_DESERT_FOX_OUTFIT_2_cls-7" d="M118.26,383.22l4.11-2.5a16.66,16.66,0,0,1-.44,11.49" />
      <path class="GUNDAN_DESERT_FOX_OUTFIT_DESERT_FOX_OUTFIT_2_cls-7" d="M108.45,391.49a25.58,25.58,0,0,0-5.21-14.62h0" />
      <path class="GUNDAN_DESERT_FOX_OUTFIT_DESERT_FOX_OUTFIT_2_cls-7" d="M85.69,437.15l-.46-34.36-.08-6.54c7.76,4.41,9.15,17.43,9.2,18h0l4.13,2.29,5.09,2.82.48.27s.3.76,1.11,2.47c.68,1.44,1.73,3.57,3.29,6.49a22.7,22.7,0,0,0-4.26,6.49,66.05,66.05,0,0,0-3.94,11.42c-.59,2.28-.88,3.8-.88,3.8H97.24" />
      <path class="GUNDAN_DESERT_FOX_OUTFIT_DESERT_FOX_OUTFIT_2_cls-7" d="M96.79,457l.07-2.71a34.44,34.44,0,0,1,.38-4c1.73-11.88,8.55-21.65,8.55-21.65l-3.16-7.08s-1-.7-3.67-2.25c-1.41-.8-3.3-1.84-5.77-3.13-.12-.52-.25-1-.4-1.53a26,26,0,0,0-7.56-11.85" />
      <path class="GUNDAN_DESERT_FOX_OUTFIT_DESERT_FOX_OUTFIT_2_cls-7" d="M278,336.58s2.73-3.13,8.84-4.07a38.69,38.69,0,0,1,9.91-.44" />
      <path class="GUNDAN_DESERT_FOX_OUTFIT_DESERT_FOX_OUTFIT_2_cls-7" d="M252,420a2.91,2.91,0,0,1,.18.35,65.52,65.52,0,0,0,5.24,8.76h0c1,1.44,2.06,2.88,3.19,4.3" />
      <path class="GUNDAN_DESERT_FOX_OUTFIT_DESERT_FOX_OUTFIT_2_cls-7" d="M226.86,390.09a119.61,119.61,0,0,1,16.89,17.11,87.88,87.88,0,0,1,5.19,7.26" />
      <path class="GUNDAN_DESERT_FOX_OUTFIT_DESERT_FOX_OUTFIT_2_cls-7" d="M252,420a3.43,3.43,0,0,0,3.2-3.29,3.47,3.47,0,0,0-3.61-3.32,3.71,3.71,0,0,0-2.69,1.12" />
      <path class="GUNDAN_DESERT_FOX_OUTFIT_DESERT_FOX_OUTFIT_2_cls-7" d="M264.65,438.1a3.39,3.39,0,0,0,2.82-3.24,3.47,3.47,0,0,0-3.6-3.32,3.63,3.63,0,0,0-3.21,1.82" />
      <path class="GUNDAN_DESERT_FOX_OUTFIT_DESERT_FOX_OUTFIT_2_cls-7" d="M243.75,407.2s19.34,3.21,33.38,9.45,23.82,8,33.7,0c-7,8.74-5.93,11.42-5.93,11.42" />
      <path class="GUNDAN_DESERT_FOX_OUTFIT_DESERT_FOX_OUTFIT_2_cls-7" d="M129.68,403.37h0l-.06.08a.93.93,0,0,0-.09.2,1,1,0,0,0,.51,1.27l2,1.06-4.62,7.29L125,412a1.18,1.18,0,0,0-.71-.13" />
      <path class="GUNDAN_DESERT_FOX_OUTFIT_DESERT_FOX_OUTFIT_2_cls-7" d="M123.27,413.06a1.06,1.06,0,0,0,.58.8l3.35,1.81a1.22,1.22,0,0,0,1.6-.38l5-7.92.79-1.24a1,1,0,0,0-.42-1.47l-3-1.6a1.25,1.25,0,0,0-1.54.3" />
      <path class="GUNDAN_DESERT_FOX_OUTFIT_DESERT_FOX_OUTFIT_2_cls-7" d="M126.15,409l-1.84,2.9-.48.74a1.09,1.09,0,0,1-.55.44h0a1.21,1.21,0,0,1-1-.07,1,1,0,0,1-.42-1.47l.25-.4,2.06-3.24" />
      <path class="GUNDAN_DESERT_FOX_OUTFIT_DESERT_FOX_OUTFIT_2_cls-7" d="M125.31,406l1.86-2.94.45-.72a1.23,1.23,0,0,1,1.6-.38,1,1,0,0,1,.46,1.37h0l0,.09-.12.19-2.2,3.46" />
      <path class="GUNDAN_DESERT_FOX_OUTFIT_DESERT_FOX_OUTFIT_2_cls-7" d="M124.13,407.88l-.57-.31a1,1,0,0,1-.42-1.47,1.21,1.21,0,0,1,1.59-.39l.58.32,2,1.08,1.3.7a1,1,0,0,1,.42,1.47,1.23,1.23,0,0,1-1.59.39l-1.3-.7Z" />
      <path class="GUNDAN_DESERT_FOX_OUTFIT_DESERT_FOX_OUTFIT_2_cls-7" d="M116.23,400.17s4.41-.38,10.94,2.92" />
      <path class="GUNDAN_DESERT_FOX_OUTFIT_DESERT_FOX_OUTFIT_2_cls-7" d="M111.39,407.37s6.72.72,10.68,3.75" />
      <path class="GUNDAN_DESERT_FOX_OUTFIT_DESERT_FOX_OUTFIT_2_cls-7" d="M135.9,424.12h0a87.18,87.18,0,0,1-12,0c-5.71-.35-13.81-5.08-17-7.08" />
      <path class="GUNDAN_DESERT_FOX_OUTFIT_DESERT_FOX_OUTFIT_2_cls-7" d="M131.92,432.15s-11.08,4.69-27.73,2.91" />
      <path class="GUNDAN_DESERT_FOX_OUTFIT_DESERT_FOX_OUTFIT_2_cls-7" d="M128.8,415.29a48.2,48.2,0,0,0,5.62,4.22,7.48,7.48,0,0,0,3.29,1.1h0" />
      <path class="GUNDAN_DESERT_FOX_OUTFIT_DESERT_FOX_OUTFIT_2_cls-7" d="M133.82,407.37s3.27,4.53,4.49,5.21a10.2,10.2,0,0,0,2.61.92" />
      <path class="GUNDAN_DESERT_FOX_OUTFIT_DESERT_FOX_OUTFIT_2_cls-7" d="M135.09,387.35c.67,8.4,8.21,19,8.21,19s1.71-13,1.71-16.81v-9.23" />
      <path class="GUNDAN_DESERT_FOX_OUTFIT_DESERT_FOX_OUTFIT_2_cls-7" d="M140,415.73h0c0,2.57-.35,5.4-1.47,7.27l-.16.26a75,75,0,0,1-5.41,7.05l-1.19,4.76a25.71,25.71,0,0,0,4.19,8c-.33.28-.46,1.42-.49,2.71" />
      <path class="GUNDAN_DESERT_FOX_OUTFIT_DESERT_FOX_OUTFIT_2_cls-7" d="M279.59,457H91.22V452.5s0-.84.14-2.22a71.44,71.44,0,0,1,1.5-9.92A35.74,35.74,0,0,1,95,433.89c3.33-7.39,4.28-9,4.28-9L99,419.3" />
      <path class="GUNDAN_DESERT_FOX_OUTFIT_DESERT_FOX_OUTFIT_2_cls-7" d="M149.09,385.85s-1.54,15.2-5.79,20.51" />
      <path class="GUNDAN_DESERT_FOX_OUTFIT_DESERT_FOX_OUTFIT_2_cls-7" d="M133,430.32s11.5-3.68,16.3-8.22,8.24-15,8.24-15" />
      <path class="GUNDAN_DESERT_FOX_OUTFIT_DESERT_FOX_OUTFIT_2_cls-7" d="M138.54,423a18.64,18.64,0,0,0,6.7-4.3" />
      <path class="GUNDAN_DESERT_FOX_OUTFIT_DESERT_FOX_OUTFIT_2_cls-7" d="M146.94,356.78c-4.34-6-5.51-15.09-5.52-15.18a1.15,1.15,0,0,0-1.29-1,1.11,1.11,0,0,0-1,1.19c.05.39,1.24,9.73,5.89,16.14a1.2,1.2,0,0,0,1,.47,1.31,1.31,0,0,0,.66-.18A1,1,0,0,0,146.94,356.78Z" />
      <path class="GUNDAN_DESERT_FOX_OUTFIT_DESERT_FOX_OUTFIT_2_cls-7" d="M132.36,345.54a1.16,1.16,0,0,0-1.38-.84,1.08,1.08,0,0,0-.91,1.26c.09.37,2,9.14,4.9,12.87a1.2,1.2,0,0,0,1,.46,1.19,1.19,0,0,0,.67-.2,1,1,0,0,0,.28-1.5C134.29,354.23,132.38,345.62,132.36,345.54Z" />
      <path class="GUNDAN_DESERT_FOX_OUTFIT_DESERT_FOX_OUTFIT_2_cls-7" d="M124.39,348.4a1.16,1.16,0,0,0-1.3-.94,1.11,1.11,0,0,0-1,1.19c0,.33,1.05,7.91,2.94,11.26a1.16,1.16,0,0,0,1,.59,1.19,1.19,0,0,0,.54-.13,1,1,0,0,0,.49-1.44C125.38,355.91,124.4,348.47,124.39,348.4Z" />
      <path class="GUNDAN_DESERT_FOX_OUTFIT_DESERT_FOX_OUTFIT_2_cls-7" d="M115.65,348.83a1.12,1.12,0,0,0-1.15-1.09h0a1.13,1.13,0,0,0-1.17,1.07c0,.62,0,6.14.6,8.12a1.16,1.16,0,0,0,1.12.78,1.25,1.25,0,0,0,.32,0,1.06,1.06,0,0,0,.8-1.33C115.72,354.91,115.65,350.43,115.65,348.83Z" />
      <path class="GUNDAN_DESERT_FOX_OUTFIT_DESERT_FOX_OUTFIT_2_cls-7" d="M243,425.09s-15.18,17-21.84,20.66a47.83,47.83,0,0,1-14.62,4.78l7.61-6.95" />
      <path class="GUNDAN_DESERT_FOX_OUTFIT_DESERT_FOX_OUTFIT_2_cls-7" d="M154.34,457s4.06-3.67,21.9-15.53a116.13,116.13,0,0,1,35.57-15.7" />
      <g class="GUNDAN_DESERT_FOX_OUTFIT_DESERT_FOX_OUTFIT_2_cls-8">
        <path d="M163.1,325.74s9.07,19,14.87,24.95c12.68,6.84,31.91,14,44.86,15.55-8.44,1.71-36.5-3.05-43.32-4.12,11.73,5.14,45.44,12.79,58,4,12.31-11,20.22-16.45,31.25-18.66-16.21,9.75-25,24.12-32.66,31.36s-25,6.13-25,6.13,16.86,3,26.83-3.71,12.88-10.87,12.88-10.87-11.4,16.84-14.59,17.74-21.31.69-25.71-.12c-6.77-6.08-25.45-9.68-28.87-13.24s-9.19-6.76-13.19-7c-6.63,0-11.8,6.35-9.49,10.15s9.43,3.88,11.69,1a12,12,0,0,1-4.33,4.6l4.42,3.57s-3.82,3.59-6.75,3.54c-5.07-4.4-3.17-6.15-3.17-6.15s-4.5-.44-7.26-6.29c-8.23.59-34.14-4.39-44.47-19.11l-4.54-7.3s-2.94-11.29-1.25-11.83a7.77,7.77,0,0,1,4.13.37s1.15-2.67,6.59-2.24,9.52-.46,16.91-3.21,9.78-4.38,11.78-4.07,3.06.41,3.06.41l9.89-3.34.62,1.52Z" />
        <path d="M148.72,385.9s2.1,13.94,0,20.51c4-6.14,5.25-16.6,5.25-16.6s3.49,14-.74,20.76A117.73,117.73,0,0,1,144,423.06s5.36-2.7,7.2-4.29,5.91-10.83,5.91-10.83-2.58,12.81-6,17.51-6.79,8.41-6.79,8.41l7.45-4.78s-1.69,9-7.18,13.65a61,61,0,0,1-8.29,6.27,52.33,52.33,0,0,0,22.89-15.91c10.46-12.34,21.68-30.77,21.68-30.77l7.21,4.45s-3.7,10.6-14.6,22.06-17.28,18.84-17.28,18.84,13.18-8.19,26.56-17.84c-3.94,5.76-23,24-23,24s51.64-22.66,66.71-34.94c-17,20.67-49.65,38.15-49.65,38.15H126.31s11.34-11.41,15.21-16.39c-6,4.67-6.16,4.94-6.16,4.94l.24-2.47a32.9,32.9,0,0,1-4.19-8l1.49-5.79s7.06-5.77,6.52-13c2.92-7.64,2.85-10.14,2.85-10.14l-3.11-6s-6.86,14.07-9.28,18.56S117.27,430.33,114.76,436l-1.56,3.91s1.49-21.14,3.46-26.74C110.14,428.14,102.85,443.76,102,447s6.2-18.66,6.2-18.66,4.13-13.95,10.2-23,9.5-11.81,9.5-11.81l7.16-3.69s-1.63-7.27-.55-10.95a103.69,103.69,0,0,0,6,17.92c-1.13-11.51,1-12.2,1.75-8.82a49.7,49.7,0,0,1,.64,9.46S148.24,397,148.72,385.9Z" />
        <path d="M226.07,390l6.4,8.74s6.64,5.92,15.15,18.92,11.93,24.89,32.23,34.52,33.84,5.23,41.78,2.8c-11.78-3.95-25-7.53-32-14.09,18.95,3.38,22.19,4.4,32.8-3.75-26.62,1.62-18.65.69-35.86-10.45s-24.1-15.07-24.1-15.07-8.69-9.9-17.65-14S226.07,390,226.07,390Z" />
        <path d="M247.44,395.27s10.42-3.67,18.21-7.51,16.48-21,26.26-26.55,15.1,2.33,15.1,2.33-7-2.25-15.64,5.1a106,106,0,0,0-16.78,17.9c-3.51,4.6-12.32,10.66-19.4,11.76C260.85,397,269.72,388,269.72,388S256.14,396.42,247.44,395.27Z" />
        <path d="M310.53,380.35s-5.72,7.25-20.06,11.92S270,404,270,404s16.77-7.79,24.74-8,19.17-10.25,19.17-10.25-2.41-7-4.07-9.2C306.64,378.19,310.53,380.35,310.53,380.35Z" />
      </g>
    </g>
  </g>
</svg>