<svg xmlns="http://www.w3.org/2000/svg" viewBox="0 0 432 432">
  <defs>
    <style>.GUNDAN_DESERT_FOX_OUTFIT_DESERT_FOX_OUTFIT_7_cls-1{isolation:isolate;}.GUNDAN_DESERT_FOX_OUTFIT_DESERT_FOX_OUTFIT_7_cls-2{fill:#969d4c;}.GUNDAN_DESERT_FOX_OUTFIT_DESERT_FOX_OUTFIT_7_cls-3{fill:#4c3a10;}.GUNDAN_DESERT_FOX_OUTFIT_DESERT_FOX_OUTFIT_7_cls-4{fill:#293324;}.GUNDAN_DESERT_FOX_OUTFIT_DESERT_FOX_OUTFIT_7_cls-5{fill:#58421e;}.GUNDAN_DESERT_FOX_OUTFIT_DESERT_FOX_OUTFIT_7_cls-6{fill:#170c0b;}.GUNDAN_DESERT_FOX_OUTFIT_DESERT_FOX_OUTFIT_7_cls-7{fill:#fff;}.GUNDAN_DESERT_FOX_OUTFIT_DESERT_FOX_OUTFIT_7_cls-8{fill:#777147;}.GUNDAN_DESERT_FOX_OUTFIT_DESERT_FOX_OUTFIT_7_cls-9{fill:none;stroke:#000;stroke-linecap:round;stroke-linejoin:round;stroke-width:2px;}.GUNDAN_DESERT_FOX_OUTFIT_DESERT_FOX_OUTFIT_7_cls-10{opacity:0.22;mix-blend-mode:multiply;}</style>
  </defs>
  <g class="GUNDAN_DESERT_FOX_OUTFIT_DESERT_FOX_OUTFIT_7_cls-1">
    <g id="outfit">
      <path class="GUNDAN_DESERT_FOX_OUTFIT_DESERT_FOX_OUTFIT_7_cls-2" d="M218.25,410.94a5.59,5.59,0,0,1-.08,1.65c-.35,1.88-1,5.3-1.88,8.41v0a6.28,6.28,0,0,0-.72,2.41v0a21.93,21.93,0,0,1-1,2.51l.45.19c1.5.64,3.81,1.21,5.12-.48,1.53.44,3.31.9,5.19,1.35,0,0-1,3.17-3.6,3.65-1.42.26-6.38-.24-10.83-1.06-.6-.12-1.19-.23-1.77-.36-.37-8.84,3.23-23.68,3.23-23.68,1,.1,2.07.2,3.16.33,4.72.55,9.76,1.36,11.34,2,3,1.28,1.89,5.14,1.89,5.14l-.83.05a18,18,0,0,0-4.33.61,2.86,2.86,0,0,0-1.66-2.64A6.21,6.21,0,0,0,218.25,410.94Z" />
      <path class="GUNDAN_DESERT_FOX_OUTFIT_DESERT_FOX_OUTFIT_7_cls-3" d="M205.53,406.68c.24-.74.48-1.19.67-1.28.49-.23,3-.13,6.16.17,0,0-3.6,14.84-3.23,23.68-2.9-.61-5.33-1.35-6-2.08-.77-.88-.49-5.34.17-10,.17-1.14.35-2.3.55-3.41A52.79,52.79,0,0,1,205.53,406.68Z" />
      <path class="GUNDAN_DESERT_FOX_OUTFIT_DESERT_FOX_OUTFIT_7_cls-2" d="M264.56,406.68h-.43a21.38,21.38,0,0,0-11.54,3.62,19.27,19.27,0,0,0-2.57,2,19.55,19.55,0,0,0-6.34,14.36,16.46,16.46,0,0,0,.18,2.55,17.93,17.93,0,0,0,.78,3.46,20.71,20.71,0,0,0,18.23,14l0-1.24a17.46,17.46,0,0,1-14.32-16.17c0-.33,0-.67,0-1a17.57,17.57,0,0,1,5.28-12.63,13.55,13.55,0,0,1,1.69-1.44,16.19,16.19,0,0,1,6.38-2.93,14.39,14.39,0,0,1,2.28-.32c.39,0,.78-.05,1.18-.05l.18-.3c.22-1.27.46-2.54.73-3.83C265.68,406.7,265.12,406.68,264.56,406.68Z" />
      <path class="GUNDAN_DESERT_FOX_OUTFIT_DESERT_FOX_OUTFIT_7_cls-3" d="M265.31,410.88c-.4,0-.79,0-1.18.05a14.39,14.39,0,0,0-2.28.32,16.19,16.19,0,0,0-6.38,2.93,13.55,13.55,0,0,0-1.69,1.44,17.57,17.57,0,0,0-5.28,12.63c0,.33,0,.67,0,1a17.46,17.46,0,0,0,14.32,16.17,183.19,183.19,0,0,1,2.6-34.54Z" />
      <path class="GUNDAN_DESERT_FOX_OUTFIT_DESERT_FOX_OUTFIT_7_cls-3" d="M263.68,404a25,25,0,0,0-17.6,7,21.91,21.91,0,0,0-5.25,8.12,19.51,19.51,0,0,0-.93,3.47,20.53,20.53,0,0,0-.05,6.93c1.7,10.48,11.33,18.56,23.08,18.89,0-.61,0-1.22-.06-1.83a20.71,20.71,0,0,1-18.23-14,17.93,17.93,0,0,1-.78-3.46,16.46,16.46,0,0,1-.18-2.55A19.55,19.55,0,0,1,250,412.34a19.27,19.27,0,0,1,2.57-2,21.38,21.38,0,0,1,11.54-3.62h.43c.56,0,1.12,0,1.66.07.16-.84.33-1.68.53-2.52A23.87,23.87,0,0,0,263.68,404Z" />
      <path class="GUNDAN_DESERT_FOX_OUTFIT_DESERT_FOX_OUTFIT_7_cls-4" d="M154.82,403.2h0c4.6,2.57,33.29,8,47.85,10.58-4.73.07-34.5,0-45.93-2.48l-.33-.07q.56,3.13,1,6.23c.63.15,1.44.33,2.4.53,4.79,1,31.16,2.45,39.73,2.49h0c1.29-1.1,2.56-2.2,3.83-3.32.17-1.14.35-2.3.55-3.41a52.79,52.79,0,0,1,1.65-7.08c-18.37-4.1-48.66-10.42-53.16-12.95C153.31,396.89,154.11,400.05,154.82,403.2Z" />
      <path class="GUNDAN_DESERT_FOX_OUTFIT_DESERT_FOX_OUTFIT_7_cls-4" d="M229.12,413l-.37,0-.83.05a18,18,0,0,0-4.33.61h0c-1.84.57-2.67,1.54-2.67,3a5.45,5.45,0,0,0,.55,3c-.31-.08-.58-.15-.82-.23a3.35,3.35,0,0,0-4.36,1.54v0c-.23.84-.46,1.66-.72,2.41h0a3.82,3.82,0,0,0,0,.66,12.9,12.9,0,0,0,1.26.51c.87.32,2,.68,3.34,1.06,1.53.44,3.31.9,5.19,1.35a103.4,103.4,0,0,0,14.52,2.58,20.53,20.53,0,0,1,.05-6.93s-9.82-1.21-15.8-2.39a102.82,102.82,0,0,0,16.72-1.08h0a21.91,21.91,0,0,1,5.25-8.12S234.68,412.64,229.12,413Z" />
      <path class="GUNDAN_DESERT_FOX_OUTFIT_DESERT_FOX_OUTFIT_7_cls-5" d="M157.37,417.47q-.41-3.09-1-6.23c0-.21-.07-.43-.1-.66h0A25.29,25.29,0,0,0,151,404.4l-.61-.49a151.44,151.44,0,0,1-.92,60.39h8.18c.42-3.42.76-7.14,1-11.13h0c.28-4.67.4-9.69.3-15A186.67,186.67,0,0,0,157.37,417.47Z" />
      <path class="GUNDAN_DESERT_FOX_OUTFIT_DESERT_FOX_OUTFIT_7_cls-5" d="M271.39,403.9c-.21.16-.41.33-.61.5a25.15,25.15,0,0,0-5.29,6.18,2.68,2.68,0,0,0-.05.3,183.19,183.19,0,0,0-2.6,34.54l0,1.24c0,.61,0,1.22.06,1.83.2,5.76.64,11.08,1.21,15.81h8.17A151.68,151.68,0,0,1,271.39,403.9Z" />
      <path class="GUNDAN_DESERT_FOX_OUTFIT_DESERT_FOX_OUTFIT_7_cls-6" d="M338.85,457.65a17.15,17.15,0,0,1-1.68-2.21,3.09,3.09,0,0,1-.49-2.57c.47-1.14,0-2.41-.54-3.53-.88-2-1.83-3.92-2.71-5.89a3.26,3.26,0,0,0,.08-3.9c-.49-.69-1.25-1.19-1.8-1.83a6.73,6.73,0,0,1-1.21-4.7c0-.68.09-1.36.13-2a.81.81,0,0,0-.1.09,16.06,16.06,0,0,1-7.11,3.62,5.37,5.37,0,0,1-3.3-2.41s0,0,0-.05c-6.49,4-13.17,7.91-20.6,10.08a42.69,42.69,0,0,1-11,1.75,3.75,3.75,0,0,1-.21,1.88,5.47,5.47,0,0,1-2.24,2.15,9.65,9.65,0,0,1,2.89,4c.78,2.05-.1,4.59-.37,6.75a9.71,9.71,0,0,0,0,3.09,13,13,0,0,0,.92,2.37H341.2A10.89,10.89,0,0,0,338.85,457.65Z" />
      <path class="GUNDAN_DESERT_FOX_OUTFIT_DESERT_FOX_OUTFIT_7_cls-6" d="M135.74,448.1A5.47,5.47,0,0,1,133.5,446a3.64,3.64,0,0,1-.2-1.88,42.69,42.69,0,0,1-11-1.75c-7.44-2.17-14.11-6.06-20.61-10.08l0,.05a5.3,5.3,0,0,1-3.28,2.41,16,16,0,0,1-7.12-3.62l-.1-.09c0,.68.11,1.35.14,2a6.73,6.73,0,0,1-1.22,4.7c-.56.64-1.3,1.14-1.8,1.83a3.26,3.26,0,0,0,.08,3.9c-.88,2-1.83,3.91-2.7,5.89-.51,1.12-1,2.39-.55,3.53a3.05,3.05,0,0,1-.48,2.57,16.37,16.37,0,0,1-1.69,2.21,11,11,0,0,0-2.35,6.65h51.76a13,13,0,0,0,.91-2.37,9.16,9.16,0,0,0,0-3.09c-.26-2.16-1.13-4.7-.36-6.75A9.73,9.73,0,0,1,135.74,448.1Z" />
      <path class="GUNDAN_DESERT_FOX_OUTFIT_DESERT_FOX_OUTFIT_7_cls-7" d="M324.86,424.55a3.11,3.11,0,1,0,3.37,3.09A3.23,3.23,0,0,0,324.86,424.55Z" />
      <path class="GUNDAN_DESERT_FOX_OUTFIT_DESERT_FOX_OUTFIT_7_cls-7" d="M96.69,424.55a3.1,3.1,0,1,0,3.35,3.09A3.24,3.24,0,0,0,96.69,424.55Z" />
      <path class="GUNDAN_DESERT_FOX_OUTFIT_DESERT_FOX_OUTFIT_7_cls-5" d="M334.08,413.51c-.27-.71-.64-1.52-1.44-1.71a2.18,2.18,0,0,0-1.45.27,5.26,5.26,0,0,0-1.15.74,19.81,19.81,0,0,0,1.63,4.06,11.85,11.85,0,0,1-4.39,4.3A25.69,25.69,0,0,1,320,423.8a8.07,8.07,0,0,0-.87,2.06,116,116,0,0,1-13.39,6.91,48.31,48.31,0,0,1-14.32,3.71,41.43,41.43,0,0,0-.35-6.68,9,9,0,0,0-.78-2.92,3.89,3.89,0,0,0-2.34-2,4.13,4.13,0,0,0-3.9,1.28,8.56,8.56,0,0,0-1.81,3.64c-.2.69-.37,1.39-.51,2.09a31.17,31.17,0,0,0-.54,3.86,25.13,25.13,0,0,1-6.93-2.74c.12,2.69.25,5.38.36,8.06a27.23,27.23,0,0,0,13,3h.83a43.13,43.13,0,0,0,11-1.75c7.43-2.17,14.1-6.06,20.59-10.08l0,0a5.31,5.31,0,0,0,3.29,2.41,15.76,15.76,0,0,0,7.11-3.62l.11-.08h0a44.41,44.41,0,0,0,5.29-5.6l1.67-2C336.36,420.11,335.32,416.79,334.08,413.51Zm-9.22,17.23a3.11,3.11,0,1,1,3.36-3.1A3.24,3.24,0,0,1,324.86,430.74Z" />
      <path class="GUNDAN_DESERT_FOX_OUTFIT_DESERT_FOX_OUTFIT_7_cls-5" d="M140.58,435.76a28.78,28.78,0,0,0-1.05-5.95,8.54,8.54,0,0,0-1.8-3.64,4.13,4.13,0,0,0-3.9-1.28,3.84,3.84,0,0,0-2.34,2,8.74,8.74,0,0,0-.79,2.92,42.6,42.6,0,0,0-.34,6.68A48.46,48.46,0,0,1,116,432.77a116,116,0,0,1-13.39-6.91h0a8.34,8.34,0,0,0-.86-2.05,25.41,25.41,0,0,1-7.26-2.63,11.9,11.9,0,0,1-4.23-4,1.75,1.75,0,0,1-.18-.29,19.47,19.47,0,0,0,1.63-4.06,5.44,5.44,0,0,0-1.14-.74,2.2,2.2,0,0,0-1.46-.27c-.79.19-1.17,1-1.43,1.71-1.24,3.28-2.29,6.6-3.52,9.88l.27.32,1.4,1.67a45.3,45.3,0,0,0,5.3,5.61.39.39,0,0,0,.1.08,15.74,15.74,0,0,0,7.12,3.62,5.29,5.29,0,0,0,3.28-2.41l0,0,.25.15c6.42,4,13,7.79,20.35,9.93.72.21,1.44.4,2.18.58a41.59,41.59,0,0,0,8.83,1.17,27.55,27.55,0,0,0,13.85-3c.12-2.68.25-5.37.36-8.06A25,25,0,0,1,140.58,435.76Zm-43.9-5a3.11,3.11,0,1,1,3.36-3.1A3.24,3.24,0,0,1,96.68,430.74Z" />
      <path class="GUNDAN_DESERT_FOX_OUTFIT_DESERT_FOX_OUTFIT_7_cls-7" d="M215.54,424.1a3.82,3.82,0,0,1,0-.66,21.42,21.42,0,0,1-1,2.52l.45.19c1.5.64,3.81,1.21,5.12-.48-1.32-.38-2.47-.74-3.34-1.06A12.9,12.9,0,0,1,215.54,424.1Z" />
      <path class="GUNDAN_DESERT_FOX_OUTFIT_DESERT_FOX_OUTFIT_7_cls-7" d="M221.93,411.08a6.21,6.21,0,0,0-3.68-.14,5.59,5.59,0,0,1-.08,1.65c-.35,1.88-1,5.3-1.88,8.41a3.35,3.35,0,0,1,4.36-1.54c.24.08.51.15.82.23a5.45,5.45,0,0,1-.55-3c0-1.44.83-2.41,2.67-3h0A2.86,2.86,0,0,0,221.93,411.08Z" />
      <path class="GUNDAN_DESERT_FOX_OUTFIT_DESERT_FOX_OUTFIT_7_cls-7" d="M203.16,427.17c-.77-.88-.49-5.34.17-10-1.27,1.12-2.54,2.22-3.83,3.32h0c-7.28,6.21-32.71,12.12-40.55,17.7.1,5.28,0,10.3-.3,15,12.2-6.89,41.56-14.79,52.25-23.55-.6-.12-1.19-.23-1.77-.36C206.23,428.64,203.8,427.9,203.16,427.17Z" />
      <path class="GUNDAN_DESERT_FOX_OUTFIT_DESERT_FOX_OUTFIT_7_cls-7" d="M286.53,337.21c-12.11,29.76-33,51.18-57.42,75.82l-.36,0s.06-.21.12-.55c.19-1.11.33-3.61-2-4.59a16.27,16.27,0,0,0-2.6-.7c-2.31-.47-5.59-1-8.73-1.32q1.83-1.77,3.61-3.57l.66-.65.29-.3C207.31,393,190,382.43,174.4,370.74c-13.63-10.23-25.86-21.33-32.38-32.61-.15-.26-.3-.52-.44-.78a1.23,1.23,0,0,1-.14-.25,9.29,9.29,0,0,1,3.34-1.73c.63-.2,1.29-.38,1.94-.56,2.19-.6,4.37-1.21,5.64-2.71l.11.15a.94.94,0,0,0,.09.12,35.21,35.21,0,0,0,4.7,5.47l.06.06a187.22,187.22,0,0,0,25.92,23c7.49,5.57,15.45,11,22.61,15.72,2.35,1.55,4.62,3,6.75,4.4l2.94,1.86.64.4c7.39,4.67,12.58,7.76,13.24,8.15l.05,0h0q7.62-8.37,14.57-17.19c.77-1,1.53-1.94,2.28-2.93l.15-.19c.64-.83,1.32-1.68,2-2.54l1-.9.39-.8c9.54-11.24,19.79-22,26.28-33.65,2,2.16,7.81,1.72,10,3.68C286.33,337,286.43,337.12,286.53,337.21Z" />
      <path class="GUNDAN_DESERT_FOX_OUTFIT_DESERT_FOX_OUTFIT_7_cls-7" d="M249.94,366.91c-.49.57-1,1.14-1.42,1.7l-2,2.54-.15.19L244,374.25c-.43-.18-.86-.35-1.29-.5a1.89,1.89,0,0,0-.21-.09c-.4-.14-.79-.28-1.19-.4l-.13,0c-.47-.15-.94-.29-1.42-.41s-.95-.25-1.43-.35-.95-.21-1.43-.29-1-.17-1.44-.23l-1.24-.16-.39,0-1.18-.1h0c-.82-.06-1.64-.09-2.46-.1a47.94,47.94,0,0,0-6,.28c-1,.11-1.89.23-2.8.37h-.07c-.75.11-1.49.24-2.2.39l-1.41.28-1.25.29-1.39.34-1.12.3a61.8,61.8,0,0,0-7.43,2.55l0,0-.14.05-.25.11-8.3-5.42S225.76,358.15,249.94,366.91Z" />
      <path class="GUNDAN_DESERT_FOX_OUTFIT_DESERT_FOX_OUTFIT_7_cls-6" d="M244.06,374.28c-4-1.3-10.36-3-16.22-2.94-7.21.05-16.08,3.94-21.44,5,6.55,5.73,15.88,10.08,23.1,15.09Q237.11,383.11,244.06,374.28Z" />
      <path class="GUNDAN_DESERT_FOX_OUTFIT_DESERT_FOX_OUTFIT_7_cls-6" d="M240.83,419.2h0a102.82,102.82,0,0,1-16.72,1.08c6,1.18,15.8,2.39,15.8,2.39A19.51,19.51,0,0,1,240.83,419.2Z" />
      <path class="GUNDAN_DESERT_FOX_OUTFIT_DESERT_FOX_OUTFIT_7_cls-6" d="M293,341.52c-1.93-1.43-4.64-2.71-6.43-4.31-12.12,29.76-33,51.18-57.42,75.83,5.56-.4,17-2,17-2a25,25,0,0,1,17.6-7,23.87,23.87,0,0,1,3.07.19A146.63,146.63,0,0,1,271.22,388c3-8.89,14.27-18.46,17.5-27.29C290.84,355,298.13,345.35,293,341.52Z" />
      <path class="GUNDAN_DESERT_FOX_OUTFIT_DESERT_FOX_OUTFIT_7_cls-6" d="M202.67,413.79c-14.56-2.63-43.25-8-47.85-10.58.56,2.46,1,4.92,1.48,7.36h0c.15.24.29.49.43.73C168.17,413.75,197.94,413.86,202.67,413.79Z" />
      <path class="GUNDAN_DESERT_FOX_OUTFIT_DESERT_FOX_OUTFIT_7_cls-6" d="M239.85,429.6A103.4,103.4,0,0,1,225.33,427s-1,3.17-3.6,3.65c-1.42.26-6.38-.24-10.83-1.06-10.69,8.76-40.05,16.66-52.25,23.55h0c-.23,4-.57,7.71-1,11.13H264.14c-.57-4.73-1-10.05-1.21-15.81C251.18,448.16,241.55,440.08,239.85,429.6Z" />
      <path class="GUNDAN_DESERT_FOX_OUTFIT_DESERT_FOX_OUTFIT_7_cls-6" d="M199.5,420.49c-8.57,0-34.94-1.51-39.73-2.49-1-.2-1.77-.38-2.4-.53A186.67,186.67,0,0,1,159,438.19C166.79,432.61,192.22,426.7,199.5,420.49Z" />
      <path class="GUNDAN_DESERT_FOX_OUTFIT_DESERT_FOX_OUTFIT_7_cls-6" d="M205.53,406.68c.24-.74.48-1.19.67-1.28.49-.23,3-.13,6.16.17,1,.1,2.07.2,3.16.33,1.54-1.49,3.07-3,4.56-4.52-24.21-15.94-65-39.59-78.5-64l-.36-.06c-1.89,1.7-1,5.57-3,7.09-5.16,3.82-1.53,12.11.6,17.89,3.22,8.83,8.74,16.86,11.75,25.75q1,2.85,1.8,5.7h0C156.87,396.26,187.16,402.58,205.53,406.68Z" />
      <path class="GUNDAN_DESERT_FOX_OUTFIT_DESERT_FOX_OUTFIT_7_cls-8" d="M330,412.82c-1.33-4.62-1.23-9.69-.85-14.52.54-7,2.33-14.47-.17-21.09-1.37-3.63-3.72-6.88-6-10.07-1-1.36-1.71-3-2.7-4.4a11.8,11.8,0,0,1-7.73-2.05c-2.28-1.42.7-4.56-1.45-6.12-2.33-1.7-1.27-4.4-4-5.42,0-.1-.06-.21-.09-.31a7.21,7.21,0,0,0-4.74-4.51c.71-1.67-.24-3.38-1.12-5a6.92,6.92,0,0,0-4.41-3.26,14.91,14.91,0,0,0-5.72.13l-4.31.66a3.24,3.24,0,0,1-.13.33c1.79,1.6,4.5,2.88,6.43,4.31,5.16,3.83-2.13,13.43-4.25,19.21-3.23,8.83-14.48,18.4-17.5,27.29a146.63,146.63,0,0,0-4.47,16.21c-.2.84-.37,1.68-.53,2.52-.27,1.29-.51,2.56-.73,3.83a25.15,25.15,0,0,1,5.29-6.18c.2-.17.4-.34.61-.5a27.66,27.66,0,0,1,2.76-1.85,27.66,27.66,0,0,0-2.76,1.85,151.68,151.68,0,0,0,.92,60.4h17.14a13,13,0,0,1-.92-2.37,9.71,9.71,0,0,1,0-3.09c.27-2.16,1.15-4.7.37-6.75a9.65,9.65,0,0,0-2.89-4,5.47,5.47,0,0,0,2.24-2.15,3.75,3.75,0,0,0,.21-1.88,27.58,27.58,0,0,1-13.86-3q-.18-4-.37-8.06a25.07,25.07,0,0,0,6.94,2.74,30,30,0,0,1,1-5.95,8.56,8.56,0,0,1,1.81-3.64,4.15,4.15,0,0,1,3.9-1.28,3.86,3.86,0,0,1,2.34,2,8.72,8.72,0,0,1,.78,2.92,40.38,40.38,0,0,1,.35,6.68,48.31,48.31,0,0,0,14.32-3.71,116,116,0,0,0,13.39-6.91,8.85,8.85,0,0,1,.87-2.06,25.69,25.69,0,0,0,7.27-2.63,11.82,11.82,0,0,0,4.39-4.29A20.27,20.27,0,0,1,330,412.82Z" />
      <path class="GUNDAN_DESERT_FOX_OUTFIT_DESERT_FOX_OUTFIT_7_cls-8" d="M156.3,410.57c-.44-2.44-.92-4.9-1.48-7.36h0c-.71-3.15-1.51-6.31-2.45-9.47h0q-.83-2.85-1.8-5.7c-3-8.89-8.53-16.92-11.75-25.75-2.13-5.78-5.76-14.07-.6-17.89,2-1.52,1.11-5.39,3-7.09l-4.75-.71c-1.89-.3-1,1.69-2.82,2.14a6.86,6.86,0,0,0-4.4,3.26,6,6,0,0,0-.3,5.2,7.23,7.23,0,0,0-4.73,4.52c0,.1-.07.2-.1.3h0a31.89,31.89,0,0,0-7.67,4.09c-2.16,1.57-4.09,3.4-6.36,4.83a11.91,11.91,0,0,1-7.73,2.05c-1,1.36-1.71,3-2.71,4.39-2.32,3.2-4.67,6.44-6,10.07-2.5,6.62-1.54,13.86-1,20.86.37,4.83.47,9.89-.86,14.51a20.36,20.36,0,0,1-1.63,4.07,11.78,11.78,0,0,0,4.4,4.29,25.52,25.52,0,0,0,7.26,2.63,8.67,8.67,0,0,1,.87,2.06h0A115.16,115.16,0,0,0,116,432.77a48.31,48.31,0,0,0,14.32,3.71,42.67,42.67,0,0,1,.35-6.68,8.51,8.51,0,0,1,.79-2.92,3.82,3.82,0,0,1,2.33-2,4.15,4.15,0,0,1,3.9,1.28,8.56,8.56,0,0,1,1.81,3.64,29.53,29.53,0,0,1,1,6,25.34,25.34,0,0,0,6.93-2.75q-.16,4-.36,8.06a27.52,27.52,0,0,1-13.85,3,3.64,3.64,0,0,0,.2,1.88,5.47,5.47,0,0,0,2.24,2.15,9.73,9.73,0,0,0-2.89,4c-.77,2.05.1,4.59.36,6.75a9.16,9.16,0,0,1,0,3.09,13,13,0,0,1-.91,2.37h17.13a151.44,151.44,0,0,0,.92-60.39,28.81,28.81,0,0,0-2.75-1.86,28.81,28.81,0,0,1,2.75,1.86l.61.49A25.29,25.29,0,0,1,156.3,410.57Z" />
      <path class="GUNDAN_DESERT_FOX_OUTFIT_DESERT_FOX_OUTFIT_7_cls-9" d="M156.31,410.58c0,.23.07.45.1.66q.56,3.13,1,6.23A186.67,186.67,0,0,1,159,438.19c.1,5.28,0,10.3-.3,15" />
      <path class="GUNDAN_DESERT_FOX_OUTFIT_DESERT_FOX_OUTFIT_7_cls-9" d="M154.82,403.21c.56,2.46,1,4.92,1.48,7.36" />
      <path class="GUNDAN_DESERT_FOX_OUTFIT_DESERT_FOX_OUTFIT_7_cls-9" d="M152.37,393.73c.94,3.16,1.74,6.32,2.45,9.47" />
      <path class="GUNDAN_DESERT_FOX_OUTFIT_DESERT_FOX_OUTFIT_7_cls-9" d="M229.49,391.46h0c-.76-.45-25.31-15-46.23-30.56a187.22,187.22,0,0,1-25.92-23l-.06-.06c-2.8-3-4.37-5-4.79-5.59l-.11-.15c-5.93,2.21-8.11,2.47-10.92,5l-.23.19c-1.88,1.69-1,5.57-3,7.09-5.15,3.82-1.52,12.11.61,17.89,3.22,8.83,8.73,16.86,11.75,25.75q1,2.85,1.79,5.7" />
      <path class="GUNDAN_DESERT_FOX_OUTFIT_DESERT_FOX_OUTFIT_7_cls-9" d="M124.12,352c0-.1.06-.2.1-.3a7.23,7.23,0,0,1,4.73-4.52,6,6,0,0,1,.3-5.2,6.86,6.86,0,0,1,4.4-3.26c1.86-.45.93-2.44,2.82-2.14l4.75.71.36.06" />
      <path class="GUNDAN_DESERT_FOX_OUTFIT_DESERT_FOX_OUTFIT_7_cls-9" d="M156.74,411.31c-.14-.24-.28-.49-.43-.73h0A25.29,25.29,0,0,0,151,404.4l-.61-.49a28.81,28.81,0,0,0-2.75-1.86,36.18,36.18,0,0,0-7.68-3.23,96.3,96.3,0,0,0-12.23-2.93c-3.37-8.05-3.62-16.88-3.82-25.5l-.3-12.41a18.66,18.66,0,0,1,.5-6" />
      <path class="GUNDAN_DESERT_FOX_OUTFIT_DESERT_FOX_OUTFIT_7_cls-9" d="M124.12,352h0a31.89,31.89,0,0,0-7.67,4.09c-2.16,1.57-4.09,3.4-6.36,4.83a11.91,11.91,0,0,1-7.73,2.05c-1,1.36-1.71,3-2.71,4.39-2.32,3.2-4.67,6.44-6,10.07-2.5,6.62-1.54,13.86-1,20.86.37,4.83.47,9.89-.86,14.51a20.36,20.36,0,0,1-1.63,4.07" />
      <path class="GUNDAN_DESERT_FOX_OUTFIT_DESERT_FOX_OUTFIT_7_cls-9" d="M102.65,425.86a8.67,8.67,0,0,0-.87-2.06,25.52,25.52,0,0,1-7.26-2.63,11.78,11.78,0,0,1-4.4-4.29,7.14,7.14,0,0,1-.53-1.16" />
      <path class="GUNDAN_DESERT_FOX_OUTFIT_DESERT_FOX_OUTFIT_7_cls-9" d="M91.75,412.81a6.27,6.27,0,0,0-1.15-.74,2.2,2.2,0,0,0-1.46-.27c-.78.19-1.17,1-1.43,1.71-1.23,3.28-2.29,6.6-3.52,9.89l1.68,2A44.49,44.49,0,0,0,91.16,431l.1.09a16,16,0,0,0,7.12,3.62,5.3,5.3,0,0,0,3.28-2.41l0-.05a7.82,7.82,0,0,0,1-6.38" />
      <path class="GUNDAN_DESERT_FOX_OUTFIT_DESERT_FOX_OUTFIT_7_cls-9" d="M147.51,433q-.16,4-.36,8.06a27.52,27.52,0,0,1-13.85,3,42.69,42.69,0,0,1-11-1.75c-7.44-2.17-14.11-6.06-20.61-10.08" />
      <path class="GUNDAN_DESERT_FOX_OUTFIT_DESERT_FOX_OUTFIT_7_cls-9" d="M147.65,402.05c1,4.88.8,10,.58,15L147.51,433" />
      <path class="GUNDAN_DESERT_FOX_OUTFIT_DESERT_FOX_OUTFIT_7_cls-9" d="M102.65,425.86h0A115.16,115.16,0,0,0,116,432.77a48.31,48.31,0,0,0,14.32,3.71c.91.08,1.83.12,2.75.13a31.81,31.81,0,0,0,7.47-.84,25.34,25.34,0,0,0,6.93-2.75h0" />
      <path class="GUNDAN_DESERT_FOX_OUTFIT_DESERT_FOX_OUTFIT_7_cls-9" d="M130.36,436.48a42.67,42.67,0,0,1,.35-6.68,8.51,8.51,0,0,1,.79-2.92,3.82,3.82,0,0,1,2.33-2,4.15,4.15,0,0,1,3.9,1.28,8.56,8.56,0,0,1,1.81,3.64,29.53,29.53,0,0,1,1,6" />
      <path class="GUNDAN_DESERT_FOX_OUTFIT_DESERT_FOX_OUTFIT_7_cls-9" d="M91.16,431c0,.68.11,1.35.14,2a6.73,6.73,0,0,1-1.22,4.7c-.56.64-1.3,1.14-1.8,1.83a3.26,3.26,0,0,0,.08,3.9c-.88,2-1.83,3.91-2.7,5.89-.51,1.12-1,2.39-.55,3.53a3.05,3.05,0,0,1-.48,2.57,16.37,16.37,0,0,1-1.69,2.21,11,11,0,0,0-2.35,6.65H341.2a10.89,10.89,0,0,0-2.35-6.65,17.15,17.15,0,0,1-1.68-2.21,3.09,3.09,0,0,1-.49-2.57c.47-1.14,0-2.41-.54-3.53-.88-2-1.83-3.92-2.71-5.89a3.26,3.26,0,0,0,.08-3.9c-.49-.69-1.25-1.19-1.8-1.83a6.73,6.73,0,0,1-1.21-4.7c0-.68.09-1.36.13-2" />
      <path class="GUNDAN_DESERT_FOX_OUTFIT_DESERT_FOX_OUTFIT_7_cls-9" d="M150.4,403.91a151.44,151.44,0,0,1-.92,60.39" />
      <path class="GUNDAN_DESERT_FOX_OUTFIT_DESERT_FOX_OUTFIT_7_cls-9" d="M129,347.18s-.82,19.52,4.64,28.66" />
      <path class="GUNDAN_DESERT_FOX_OUTFIT_DESERT_FOX_OUTFIT_7_cls-9" d="M266.75,404.23A146.63,146.63,0,0,1,271.22,388c3-8.89,14.27-18.46,17.5-27.29,2.12-5.78,9.41-15.38,4.25-19.21-1.93-1.43-4.64-2.71-6.43-4.31-.1-.09-.21-.17-.31-.27-2.2-2-8.05-1.52-10-3.68" />
      <path class="GUNDAN_DESERT_FOX_OUTFIT_DESERT_FOX_OUTFIT_7_cls-9" d="M286.23,336.94l.44-.06,4.31-.66a14.91,14.91,0,0,1,5.72-.13,6.92,6.92,0,0,1,4.41,3.26c.88,1.6,1.83,3.31,1.12,5a7.21,7.21,0,0,1,4.74,4.51c0,.1.07.21.09.31.6,1.92-3.09,5.28-3.14,7.29-.1,4.13-5.11,9.58-5.21,13.72-.21,8.62-1.29,17.68-4.65,25.73a95.49,95.49,0,0,0-12.23,2.93,36.18,36.18,0,0,0-7.68,3.23,27.66,27.66,0,0,0-2.76,1.85c-.21.16-.41.33-.61.5a25.15,25.15,0,0,0-5.29,6.18l-.18.3" />
      <path class="GUNDAN_DESERT_FOX_OUTFIT_DESERT_FOX_OUTFIT_7_cls-9" d="M331.67,416.88a20.27,20.27,0,0,1-1.63-4.06c-1.33-4.62-1.23-9.69-.85-14.52.54-7,2.33-14.47-.17-21.09-1.37-3.63-3.72-6.88-6-10.07-1-1.36-1.71-3-2.7-4.4a11.8,11.8,0,0,1-7.73-2.05c-2.28-1.42.7-4.56-1.45-6.12-2.33-1.7-1.27-4.4-4-5.42" />
      <path class="GUNDAN_DESERT_FOX_OUTFIT_DESERT_FOX_OUTFIT_7_cls-9" d="M332.2,415.72a9.37,9.37,0,0,1-.53,1.16,11.82,11.82,0,0,1-4.39,4.29A25.69,25.69,0,0,1,320,423.8a8.85,8.85,0,0,0-.87,2.06,7.82,7.82,0,0,0,1,6.38s0,0,0,.05a5.37,5.37,0,0,0,3.3,2.41,16.06,16.06,0,0,0,7.11-3.62.81.81,0,0,1,.1-.09h0a43.7,43.7,0,0,0,5.29-5.6l1.67-2c-1.23-3.29-2.27-6.61-3.5-9.89-.28-.71-.65-1.52-1.45-1.71a2.2,2.2,0,0,0-1.45.27,5.83,5.83,0,0,0-1.15.75" />
      <path class="GUNDAN_DESERT_FOX_OUTFIT_DESERT_FOX_OUTFIT_7_cls-9" d="M274.27,433q.19,4,.37,8.06a27.58,27.58,0,0,0,13.86,3,42.69,42.69,0,0,0,11-1.75c7.43-2.17,14.11-6.06,20.6-10.08" />
      <path class="GUNDAN_DESERT_FOX_OUTFIT_DESERT_FOX_OUTFIT_7_cls-9" d="M274.15,402.05c-1,4.88-.81,10-.59,15q.36,8,.71,15.95" />
      <path class="GUNDAN_DESERT_FOX_OUTFIT_DESERT_FOX_OUTFIT_7_cls-9" d="M319.14,425.86a116,116,0,0,1-13.39,6.91,48.31,48.31,0,0,1-14.32,3.71c-.91.08-1.82.12-2.74.13a31.27,31.27,0,0,1-7.48-.85,25.07,25.07,0,0,1-6.94-2.74h0" />
      <path class="GUNDAN_DESERT_FOX_OUTFIT_DESERT_FOX_OUTFIT_7_cls-9" d="M281.21,435.76a30,30,0,0,1,1-5.95,8.56,8.56,0,0,1,1.81-3.64,4.15,4.15,0,0,1,3.9-1.28,3.86,3.86,0,0,1,2.34,2,8.72,8.72,0,0,1,.78,2.92,40.38,40.38,0,0,1,.35,6.68" />
      <path class="GUNDAN_DESERT_FOX_OUTFIT_DESERT_FOX_OUTFIT_7_cls-9" d="M272.31,464.3a151.68,151.68,0,0,1-.92-60.4" />
      <path class="GUNDAN_DESERT_FOX_OUTFIT_DESERT_FOX_OUTFIT_7_cls-9" d="M302.23,344.33s-7.74,22.14-13.19,31.28" />
      <path class="GUNDAN_DESERT_FOX_OUTFIT_DESERT_FOX_OUTFIT_7_cls-9" d="M220.08,401.39c-24.21-15.95-65-39.6-78.5-64a1.19,1.19,0,0,1-.13-.25" />
      <path class="GUNDAN_DESERT_FOX_OUTFIT_DESERT_FOX_OUTFIT_7_cls-9" d="M199.5,420.49c1.29-1.1,2.56-2.2,3.83-3.32" />
      <path class="GUNDAN_DESERT_FOX_OUTFIT_DESERT_FOX_OUTFIT_7_cls-9" d="M159,438.19c7.84-5.58,33.27-11.49,40.55-17.7" />
      <path class="GUNDAN_DESERT_FOX_OUTFIT_DESERT_FOX_OUTFIT_7_cls-9" d="M276.22,333.26c-6.49,11.62-16.74,22.41-26.28,33.65-.49.57-1,1.14-1.42,1.7-.71.86-1.39,1.71-2,2.54l-.15.19c-.75,1-1.51,2-2.28,2.93q-6.94,8.84-14.57,17.19-1.62,1.79-3.29,3.56h0c-.23.26-.46.51-.7.76l-.33.34q-2.34,2.49-4.76,4.93l-.32.33-.29.3-.66.65q-1.78,1.8-3.61,3.57" />
      <path class="GUNDAN_DESERT_FOX_OUTFIT_DESERT_FOX_OUTFIT_7_cls-9" d="M229.12,413c24.46-24.65,45.3-46.07,57.42-75.83a3.24,3.24,0,0,0,.13-.33" />
      <path class="GUNDAN_DESERT_FOX_OUTFIT_DESERT_FOX_OUTFIT_7_cls-9" d="M210.9,429.61c-10.69,8.76-40.05,16.66-52.25,23.55h0" />
      <path class="GUNDAN_DESERT_FOX_OUTFIT_DESERT_FOX_OUTFIT_7_cls-9" d="M262.84,445.42a17.46,17.46,0,0,1-14.32-16.17c0-.33,0-.67,0-1a17.57,17.57,0,0,1,5.28-12.63,13.55,13.55,0,0,1,1.69-1.44,16.19,16.19,0,0,1,6.38-2.93,14.39,14.39,0,0,1,2.28-.32c.39,0,.78-.05,1.18-.05h.13" />
      <path class="GUNDAN_DESERT_FOX_OUTFIT_DESERT_FOX_OUTFIT_7_cls-9" d="M262.87,446.66a20.71,20.71,0,0,1-18.23-14,17.93,17.93,0,0,1-.78-3.46,16.42,16.42,0,0,1-.18-2.54A19.56,19.56,0,0,1,250,412.34a19.27,19.27,0,0,1,2.57-2,21.38,21.38,0,0,1,11.54-3.62h.43c.56,0,1.12,0,1.66.07" />
      <path class="GUNDAN_DESERT_FOX_OUTFIT_DESERT_FOX_OUTFIT_7_cls-9" d="M266.75,404.23c-.2.84-.37,1.68-.53,2.52-.27,1.29-.51,2.56-.73,3.83a2.68,2.68,0,0,0-.05.3,183.19,183.19,0,0,0-2.6,34.54l0,1.24c0,.61,0,1.22.06,1.83-11.75-.33-21.38-8.41-23.08-18.89a20.53,20.53,0,0,1,.05-6.93,19.51,19.51,0,0,1,.93-3.47,21.91,21.91,0,0,1,5.25-8.12,25,25,0,0,1,17.6-7A23.87,23.87,0,0,1,266.75,404.23Z" />
      <path class="GUNDAN_DESERT_FOX_OUTFIT_DESERT_FOX_OUTFIT_7_cls-9" d="M221.48,419.7l.6.15c.6.14,1.28.29,2,.43,6,1.18,15.8,2.39,15.8,2.39" />
      <path class="GUNDAN_DESERT_FOX_OUTFIT_DESERT_FOX_OUTFIT_7_cls-9" d="M216.29,421a3.35,3.35,0,0,1,4.36-1.54c.24.08.51.15.82.23" />
      <path class="GUNDAN_DESERT_FOX_OUTFIT_DESERT_FOX_OUTFIT_7_cls-9" d="M215.56,423.43a6.28,6.28,0,0,1,.72-2.41" />
      <path class="GUNDAN_DESERT_FOX_OUTFIT_DESERT_FOX_OUTFIT_7_cls-9" d="M239.85,429.6A103.4,103.4,0,0,1,225.33,427c-1.88-.45-3.66-.91-5.19-1.35-1.32-.38-2.47-.74-3.34-1.06a12.9,12.9,0,0,1-1.26-.51,3.69,3.69,0,0,1,0-.65" />
      <path class="GUNDAN_DESERT_FOX_OUTFIT_DESERT_FOX_OUTFIT_7_cls-9" d="M223.59,413.72a18,18,0,0,1,4.33-.61l.83-.05.37,0c5.56-.4,17-2,17-2" />
      <path class="GUNDAN_DESERT_FOX_OUTFIT_DESERT_FOX_OUTFIT_7_cls-9" d="M221.48,419.7h0a5.45,5.45,0,0,1-.55-3c0-1.44.83-2.41,2.67-3" />
      <path class="GUNDAN_DESERT_FOX_OUTFIT_DESERT_FOX_OUTFIT_7_cls-9" d="M240.82,419.2a102.82,102.82,0,0,1-16.72,1.08h0" />
      <path class="GUNDAN_DESERT_FOX_OUTFIT_DESERT_FOX_OUTFIT_7_cls-9" d="M228.75,413.06s1.16-3.86-1.89-5.14c-1.58-.66-6.62-1.47-11.34-2-1.09-.13-2.15-.23-3.16-.33-3.14-.3-5.67-.4-6.16-.17-.19.09-.43.54-.67,1.28a52.79,52.79,0,0,0-1.65,7.08c-.2,1.11-.38,2.27-.55,3.41-.66,4.66-.94,9.12-.17,10,.64.73,3.07,1.47,6,2.08.58.13,1.17.24,1.77.36,4.45.82,9.41,1.32,10.83,1.06,2.58-.48,3.6-3.65,3.6-3.65" />
      <path class="GUNDAN_DESERT_FOX_OUTFIT_DESERT_FOX_OUTFIT_7_cls-9" d="M215.83,407.73a3.74,3.74,0,0,1,2.42,3.21,5.59,5.59,0,0,1-.08,1.65c-.35,1.88-1,5.3-1.88,8.41v0c-.23.84-.46,1.66-.72,2.41v0a21.93,21.93,0,0,1-1,2.51,5.82,5.82,0,0,1-.69,1.16h0a1.72,1.72,0,0,1-.7.6" />
      <path class="GUNDAN_DESERT_FOX_OUTFIT_DESERT_FOX_OUTFIT_7_cls-9" d="M218.25,410.94a6.21,6.21,0,0,1,3.68.14,2.86,2.86,0,0,1,1.66,2.64h0" />
      <path class="GUNDAN_DESERT_FOX_OUTFIT_DESERT_FOX_OUTFIT_7_cls-9" d="M220.14,425.67c-1.31,1.69-3.62,1.12-5.12.48l-.45-.19" />
      <path class="GUNDAN_DESERT_FOX_OUTFIT_DESERT_FOX_OUTFIT_7_cls-9" d="M212.36,405.57s-3.6,14.84-3.23,23.68" />
      <path class="GUNDAN_DESERT_FOX_OUTFIT_DESERT_FOX_OUTFIT_7_cls-9" d="M205.53,406.68h0c-18.37-4.1-48.66-10.42-53.16-12.95h0" />
      <path class="GUNDAN_DESERT_FOX_OUTFIT_DESERT_FOX_OUTFIT_7_cls-9" d="M202.67,413.79c-4.73.07-34.5,0-45.93-2.48l-.33-.07" />
      <path class="GUNDAN_DESERT_FOX_OUTFIT_DESERT_FOX_OUTFIT_7_cls-9" d="M203.88,413.76l-1.21,0" />
      <path class="GUNDAN_DESERT_FOX_OUTFIT_DESERT_FOX_OUTFIT_7_cls-9" d="M199.5,420.49h0c-8.57,0-34.94-1.51-39.73-2.49-1-.2-1.77-.38-2.4-.53" />
      <path class="GUNDAN_DESERT_FOX_OUTFIT_DESERT_FOX_OUTFIT_7_cls-9" d="M202.69,413.8h0c-14.56-2.63-43.26-8-47.85-10.58h0" />
      <polyline class="GUNDAN_DESERT_FOX_OUTFIT_DESERT_FOX_OUTFIT_7_cls-9" points="252.58 410.3 252.59 410.31 255.46 414.17" />
      <line class="GUNDAN_DESERT_FOX_OUTFIT_DESERT_FOX_OUTFIT_7_cls-9" x1="250.02" y1="412.34" x2="253.78" y2="415.62" />
      <polyline class="GUNDAN_DESERT_FOX_OUTFIT_DESERT_FOX_OUTFIT_7_cls-9" points="248.53 429.25 243.86 429.25 243.85 429.25" />
      <line class="GUNDAN_DESERT_FOX_OUTFIT_DESERT_FOX_OUTFIT_7_cls-9" x1="248.88" y1="431.95" x2="244.64" y2="432.71" />
      <line class="GUNDAN_DESERT_FOX_OUTFIT_DESERT_FOX_OUTFIT_7_cls-9" x1="260.12" y1="407.14" x2="261.85" y2="411.25" />
      <line class="GUNDAN_DESERT_FOX_OUTFIT_DESERT_FOX_OUTFIT_7_cls-9" x1="264.13" y1="406.69" x2="264.13" y2="410.92" />
      <path class="GUNDAN_DESERT_FOX_OUTFIT_DESERT_FOX_OUTFIT_7_cls-9" d="M100,427.64a3.37,3.37,0,1,1-3.35-3.09A3.23,3.23,0,0,1,100,427.64Z" />
      <path class="GUNDAN_DESERT_FOX_OUTFIT_DESERT_FOX_OUTFIT_7_cls-9" d="M328.23,427.64a3.37,3.37,0,1,1-3.37-3.09A3.25,3.25,0,0,1,328.23,427.64Z" />
      <g class="GUNDAN_DESERT_FOX_OUTFIT_DESERT_FOX_OUTFIT_7_cls-10">
        <path d="M138.72,341a18.73,18.73,0,0,0-4.49,7.55c-1.64,5-1.23,15.33,3.13,23.72-6.25-15.47-6.45-23.58-6.45-23.58a7,7,0,0,1-1.17-5.94c-2.43,2.47-.79,6.5-.79,6.5s-1.62-.56-3.52,1.76-1.6,3.45-1.6,3.45a13.85,13.85,0,0,0-6.65,2.66c-3.23,2.41-9.28,8.57-15,7.43-3.18,5-7.82,11.43-9.09,15.38s-1.45,12.3-.82,16.71.93,16.22-2.09,20.69l-1.12-4.38s-.61-1.16-3.5,7.18l-1.28,4.09s5.12,7.18,9.48,9.23c3.81,2,4.32,1.73,4.32,1.73A5.62,5.62,0,0,0,102.5,431c7.55,5.35,25.22,11.88,29.07,12-14.07,0-19.14-.85-19.14-.85a46.55,46.55,0,0,1,9.83,4.63c-8.52.5-10,.67-10,.67s6.59,7.43,13.65,10l6.41,1.23s-6.61,4.8-17.53,5.64h38.93s4.73-40.62-1.23-57.51c-4.5-4-4.57-26.15-2.34-35,5.3,13.1,54.52,35,54.52,35s-39.16-13.3-48.46-34.22S138.72,341,138.72,341Z" />
        <path d="M146.22,333.94,141.15,339s14.09,23,24,31.87,45.61,28.73,54,31.47l7.07-7.3s-44.21-15-57.9-30.51A197.58,197.58,0,0,1,146.22,333.94Z" />
        <path d="M203.62,411.69s4.92-3,6.61.58c-1.13,6.48-1.64,13.07-1.64,13.07a12.54,12.54,0,0,0,7,3c4.23.35,4.95-1.48,4.95-1.48l3.81.87s-.31,3.43-5.89,3.57-16-1.85-16.57-4.44S203.62,411.69,203.62,411.69Z" />
        <path d="M203.56,410.51s-39.38-5.49-45.1-8.72l-5.72-3.24,1.58,6.28s12.87,6,19.83,7.73,27,2,27,2l1.65-.23Z" />
        <path d="M202.51,416.27s-26.74,1.05-33.28.49-13-1.54-13-1.54l.92,3s12.3,2.61,18.06,2.79,23.7.18,23.7.18l3.55-3Z" />
        <path d="M204.28,426.26s-20.72,3.51-29.07,8.3-16.77,10.68-16.77,10.68l0,7.91S194,442.8,200.53,437.4s9.5-7,9.5-7S204.79,428.63,204.28,426.26Z" />
        <path d="M251.6,417.44s.25,13,10.12,18.44a52.61,52.61,0,0,0-.09,9.83s-11.76-2.24-13.6-12.52C246.91,427.94,247,423.25,251.6,417.44Z" />
        <path d="M281.8,399.43s-3,16-1.93,23.43a77.82,77.82,0,0,0,3.37,13.94s5,4.69,4.38,7.56c-6.07.43-12.76-.8-14.28-3.14-.5-18.93-2-34.91-.48-38.22A87.59,87.59,0,0,1,281.8,399.43Z" />
        <path d="M268.91,412.19s-4.71,20.81-5.17,33.19S265,464.53,265,464.53h9.18a112.65,112.65,0,0,1-5.58-31.76C268.35,416.13,268.91,412.19,268.91,412.19Z" />
        <path d="M282.72,336.82s-29.41,44.59-44.2,58S223.12,408,223.12,408s3.77.36,4.41,2.25a9.61,9.61,0,0,1,.6,3S237.38,405,243,397.71s26.75-32.58,30.31-39.3c3.82-7.22,7.39-8.47,11.86-19.1Z" />
        <path d="M286.78,340.22s7.85,1.08,8.88,4.41-2.3,9.33-5.08,15.85-9,11.41-11.4,18.11-5.8,12.91-6.34,16.28-1.21-8.1-.11-11.76c1.49-4.38,11.84-14,13.84-19s9-14,7.17-18S286.75,341,286.78,340.22Z" />
      </g>
      <path class="GUNDAN_DESERT_FOX_OUTFIT_DESERT_FOX_OUTFIT_7_cls-9" d="M244.06,374.27l0,0c-16.41-6.91-36.05,1.42-38,2.28l-.16.08" />
      <path class="GUNDAN_DESERT_FOX_OUTFIT_DESERT_FOX_OUTFIT_7_cls-9" d="M244.06,374.27l0,0c-16.41-6.91-36.05,1.42-38,2.28l-.16.08" />
      <path class="GUNDAN_DESERT_FOX_OUTFIT_DESERT_FOX_OUTFIT_7_cls-9" d="M249.94,366.91c-24.18-8.76-52.23,4.2-52.23,4.2" />
    </g>
  </g>
</svg>