<svg xmlns="http://www.w3.org/2000/svg" viewBox="0 0 432 432">
  <defs>
    <style>.BUNTAI_BUNTAI_WEAPONS_EVOKER_4_cls-1{fill:#3f6635;}.BUNTAI_BUNTAI_WEAPONS_EVOKER_4_cls-2{fill:#d8b95e;}.BUNTAI_BUNTAI_WEAPONS_EVOKER_4_cls-3{fill:#b26444;}.BUNTAI_BUNTAI_WEAPONS_EVOKER_4_cls-4,.BUNTAI_BUNTAI_WEAPONS_EVOKER_4_cls-5{fill:none;stroke:#000;stroke-linecap:round;stroke-linejoin:round;}.BUNTAI_BUNTAI_WEAPONS_EVOKER_4_cls-4{stroke-width:2.43px;}.BUNTAI_BUNTAI_WEAPONS_EVOKER_4_cls-5{stroke-width:1.06px;}</style>
  </defs>
  <g id="Layer_11" data-name="Layer 11">
    <path class="BUNTAI_BUNTAI_WEAPONS_EVOKER_4_cls-1" d="M87.55,219.57c-.06-3.77-.58-5,4-9.07,1.81-1.65,3.18-3.17,4.45-4.48v0c1.87-2,3.56-3.43,6.3-4l1-.22h0c4.09-.79,7.34-.92,9.38-.47l2.16.49h0v0c-.1.47-1.29,6.09-1.52,7.55,0,.38-.09.68-.13.91-.09.66-.1.7-.1.7a23.31,23.31,0,0,1-2.13,5.7,19.83,19.83,0,0,1-3.58,5c-4.48,4.44-7.74,4.9-10.28,4.52s-6.54-2.5-7.74-2.51A5.62,5.62,0,0,0,86,225.15a3.11,3.11,0,0,1-1.44.74l-.33-1.36A5.24,5.24,0,0,0,87.55,219.57Z" />
    <path class="BUNTAI_BUNTAI_WEAPONS_EVOKER_4_cls-1" d="M105.26,122.28s-.07-6.31,1.78-9.19,6.34-6,6.71-6.28a0,0,0,0,1,0,0s.36-.24,7.93-1.94a18.54,18.54,0,0,1,3-.38h0c7.32-.39,15.35,3,18.21,5.59h0c-1-.16-3.08,1.46-4.72,3-.6.56-1.11,1.11-1.54,1.52-.12.13-.28.27-.44.44-.89.79-2.41,2-4,3.13h0c-2.07,1.54-4.24,3.11-5.23,4-1.89,1.59-5.22,2.44-8.13,2.88s-7.24-2-11.61-2.62c-2.26,2.4-4.14,7.6-4.14,7.6a2.56,2.56,0,0,0-.47,0c-.12-.21-.24-.44-.39-.66,0,0,0,0,0,0a1.3,1.3,0,0,0,0-.22C102.43,127.69,105.26,122.28,105.26,122.28Z" />
    <path class="BUNTAI_BUNTAI_WEAPONS_EVOKER_4_cls-1" d="M52.58,143.29s0,0,0-.29c0-.09,0-.2,0-.36.08-.58.18-2.86.2-3.08h0l.89,0a9.77,9.77,0,0,1,3.59,1.17l.38.2a4.67,4.67,0,0,1,2,2.21h0c.35.64.72,1.38,1.25,2.2,1.34,2.07,1,2.48.59,3.93a2.06,2.06,0,0,0,.61,2.13c-.15.13-.26.28-.39.41a.8.8,0,0,1-.2-.21v0a2.27,2.27,0,0,0-1.13-.91c-.48-.11-2.25.3-3.27.18s-2.24-.65-3.51-2.83a8,8,0,0,1-.87-2.31A9.36,9.36,0,0,1,52.58,143.29Z" />
    <path class="BUNTAI_BUNTAI_WEAPONS_EVOKER_4_cls-2" d="M76,144a12.85,12.85,0,0,1,.51-3.09c-1.49-.87-.16-6.37.07-6.56L78.75,132s3.09-2.81,5.15-2.71c1.59.08,4.52,2.09,7.21,3.77.79.49,1.55,1,2.26,1.34,3.1,1.66,6.77,6.64,6.77,6.64s3.46,3.48,0,5.79c0,0,1.66,5.2-3,7.57.35,1.53.06,3.58-1.19,4.42h0a22.19,22.19,0,0,1-5.63-1,23.5,23.5,0,0,1-5.34-2.28,22.09,22.09,0,0,1-8.12-8.91S75.79,146.47,76,144Z" />
    <path class="BUNTAI_BUNTAI_WEAPONS_EVOKER_4_cls-3" d="M51.23,170.38a11.51,11.51,0,0,0,2.86.64,8.85,8.85,0,0,0,3.08-.54c3.77-1.3,8.2-4.61,8.3-7.51.1-3.77-7.23-6.5-7-7.44s.88-1.09,3.28-3.69a1.35,1.35,0,0,0,.28.22l.27-.49a1.42,1.42,0,0,1-.16-.14,3,3,0,0,1,.24-.28c2.93-3.28,8.29-1.28,11.86-.67,1-.44,1.86-1.89,2.53-3.81a22.09,22.09,0,0,0,8.12,8.91,23.5,23.5,0,0,0,5.34,2.28,22.19,22.19,0,0,0,5.63,1c-.31,4.27-4,11.56-9.44,15.56-3.48,2.58-6,3.53-8.26,3.85,0,0-1.27,11.46-.88,15.07a17.57,17.57,0,0,0,.83,4.47,45.8,45.8,0,0,1,1.48,6.15h0a22.68,22.68,0,0,1,.27,2.53c1.31.93,2.27,1.46,2.63,1.22.79-.52,7.8-10.4,8.7-11.4s1.09,5.8,1.09,5.8a141.36,141.36,0,0,0-7.16,12.78,6.33,6.33,0,0,1-2.81,2.95,5.35,5.35,0,0,1,.84,1c.88,1.3,1.83,3.77-.24,7.06a46.45,46.45,0,0,0,1.91,15.31,22.51,22.51,0,0,0,2.55,5.52c3.42,5.08,5,10.92,1.15,16.4q-.16.24-.3.48c-3.4,5.59-.86,15.26-.86,15.26s.48,1.27,1.22,3c1.22,2.83,3.15,6.89,4.85,8.68,2.76,2.9,2.89,7,1.94,10.39a5.52,5.52,0,0,0-.4,2.18c.06,1.19.75,3.34,2.49,10.93.65,2.84,1.45,6.43,2.42,11,1.67,8,4.22,22.19,7,38.31,4.43,25.89,9.39,56.74,12.24,74.67.79,5,1.43,9,1.84,11.63,1.74,11.18,5.17,15.9,8,19.81,1.67,2.34,3.11,4.38,3.83,7.33,1.93,7.9.54,14.55-8,16.15s-14.51-7.41-14.31-12.71,3-9.91,1.86-22.6c-.45-5.26-2.94-18.65-6.22-34.92v0c-4.62-22.95-10.79-51.62-15-71.23C83.8,318,78.83,294.77,78.83,294.77s-7.91-9.55-9.17-14S72.5,271,72.5,271s-.24-2.66-1.41-11.85S64.92,241.39,62.22,238s.72-7.18.72-7.18a18.19,18.19,0,0,1-2-.93c-3.21-1.77-4.29-3.94-3.22-6.91a34.25,34.25,0,0,0,1.07-3.86c.54-2.47.81-4.63.81-4.63a63.1,63.1,0,0,1-6.38-3.76c-4.18-3.11-.36-7.44-.36-7.44a8.1,8.1,0,0,0-.61-1.69,12.52,12.52,0,0,0-.7-1.32c-.83-1.45,1.32-2.79,2-5.53h0a7,7,0,0,0,0-3.08c-.68-3.42-3.3-5.51-5.82-7.17-1.14-.75-2.27-1.43-3.19-2.1-2.93-2.18-5-7.72-2.11-11.67C44.65,167.67,48.06,169.34,51.23,170.38Zm72.25,316.09c2.76-.51,4.49-3.69,3.85-7.09s-3.39-5.74-6.15-5.23-4.5,3.69-3.87,7.1S120.71,487,123.48,486.47Z" />
    <path class="BUNTAI_BUNTAI_WEAPONS_EVOKER_4_cls-3" d="M16.27,122.35c1-2,4.26.47,4.12-2.69s4.15-14.3,8.34-16.63A33.82,33.82,0,0,0,40.5,91.58C43.87,86.32,51.76,83.85,60,84.5a8.57,8.57,0,0,1,3.43,1c5.65,2.95,8.11,11.36,11.21,12.78l1.5.67h0c5.09,2.31,16.79,7.91,18.72,13.8,2.13,6.57,3.55,10.76,7.33,16.46-.11.75,0,.73.41.7,2.36,4.54-1,9.43-2.45,11.11,0,0-3.67-5-6.77-6.64-.71-.38-1.47-.85-2.26-1.34-2.69-1.68-5.62-3.69-7.21-3.77-2.06-.1-5.15,2.71-5.15,2.71a52.17,52.17,0,0,1-6.4-12.31c-2.38-6.91-7.85-7.52-14.58-11.9s-9.43.49-14.83,6.12-12.06,3.08-14,10.34a13.31,13.31,0,0,0,.55,8c1.48,4.41,4.23,8.73,4.81,13,.9,6.61-3.42,11.89-3.69,12.21,2.39-9.44-3.9-15.88-9.77-21.14S15.28,124.34,16.27,122.35Z" />
    <path class="BUNTAI_BUNTAI_WEAPONS_EVOKER_4_cls-4" d="M59.63,214.44s-.27,2.16-.81,4.63a34.25,34.25,0,0,1-1.07,3.86c-1.07,3,0,5.14,3.22,6.91a18.19,18.19,0,0,0,2,.93" />
    <path class="BUNTAI_BUNTAI_WEAPONS_EVOKER_4_cls-4" d="M78.75,132a52.17,52.17,0,0,1-6.4-12.31c-2.38-6.91-7.85-7.52-14.58-11.9s-9.43.49-14.83,6.12-12.06,3.08-14,10.34a13.31,13.31,0,0,0,.55,8c1.48,4.41,4.23,8.73,4.81,13,.9,6.61-3.42,11.89-3.69,12.21" />
    <path class="BUNTAI_BUNTAI_WEAPONS_EVOKER_4_cls-4" d="M53.56,194.7c-.66,2.74-2.81,4.08-2,5.53a12.52,12.52,0,0,1,.7,1.32,8.1,8.1,0,0,1,.61,1.69s-3.82,4.33.36,7.44a63.1,63.1,0,0,0,6.38,3.76" />
    <path class="BUNTAI_BUNTAI_WEAPONS_EVOKER_4_cls-4" d="M76.81,146.67c-.67,1.92-1.5,3.37-2.53,3.81-3.57-.61-8.93-2.61-11.86.67a3,3,0,0,0-.24.28c-.15.13-.26.28-.39.41-2.4,2.6-3,2.81-3.28,3.69s7.06,3.67,7,7.44c-.1,2.9-4.53,6.21-8.3,7.51a8.85,8.85,0,0,1-3.08.54,11.51,11.51,0,0,1-2.86-.64c-3.17-1-6.58-2.71-8.78.29-2.87,4-.82,9.49,2.11,11.67.92.67,2,1.35,3.19,2.1,2.52,1.66,5.14,3.75,5.82,7.17a7,7,0,0,1,0,3.08" />
    <path class="BUNTAI_BUNTAI_WEAPONS_EVOKER_4_cls-4" d="M76.13,99c5.09,2.31,16.79,7.91,18.72,13.8,2.13,6.57,3.55,10.76,7.33,16.46,0,0,0,0,0,0,.15.23.27.45.39.66,2.36,4.54-1,9.43-2.45,11.11" />
    <path class="BUNTAI_BUNTAI_WEAPONS_EVOKER_4_cls-4" d="M30.55,157.46v0c2.39-9.44-3.9-15.88-9.77-21.14s-5.51-12-4.52-14,4.26.47,4.12-2.69,4.15-14.3,8.34-16.63A33.82,33.82,0,0,0,40.5,91.58C43.87,86.32,51.76,83.85,60,84.5a8.57,8.57,0,0,1,3.43,1c5.65,2.95,8.11,11.36,11.21,12.78l1.5.67" />
    <path class="BUNTAI_BUNTAI_WEAPONS_EVOKER_4_cls-4" d="M74.41,178.4c-.56,0-1.14,0-1.73,0-4.08,0-6.1,3.85-6.1,3.85" />
    <path class="BUNTAI_BUNTAI_WEAPONS_EVOKER_4_cls-4" d="M95.9,158.83c-.31,4.27-4,11.56-9.44,15.56-3.48,2.58-6,3.53-8.26,3.85a22,22,0,0,1-3.77.16" />
    <path class="BUNTAI_BUNTAI_WEAPONS_EVOKER_4_cls-4" d="M79.63,203.94a22.68,22.68,0,0,1,.27,2.53" />
    <path class="BUNTAI_BUNTAI_WEAPONS_EVOKER_4_cls-4" d="M78.2,178.24s-1.27,11.46-.88,15.07a17.57,17.57,0,0,0,.83,4.47,45.8,45.8,0,0,1,1.48,6.15" />
    <path class="BUNTAI_BUNTAI_WEAPONS_EVOKER_4_cls-4" d="M82.35,217.82a6.33,6.33,0,0,0,2.81-2.95,141.36,141.36,0,0,1,7.16-12.78s-.18-6.78-1.09-5.8-7.91,10.88-8.7,11.4c-.36.24-1.32-.28-2.63-1.22" />
    <path class="BUNTAI_BUNTAI_WEAPONS_EVOKER_4_cls-4" d="M106.05,422.73c3.28,16.27,5.77,29.66,6.22,34.92,1.11,12.69-1.67,17.29-1.86,22.6s5.76,14.31,14.31,12.71,9.95-8.25,8-16.15c-.72-2.95-2.16-5-3.83-7.33-2.78-3.91-6.21-8.63-8-19.81-.41-2.62-1-6.61-1.84-11.62-2.85-17.94-7.81-48.79-12.24-74.68-2.74-16.12-5.29-30.31-7-38.31-1-4.59-1.77-8.18-2.42-11-1.74-7.59-2.43-9.74-2.49-10.93a5.52,5.52,0,0,1,.4-2.18c1-3.43.82-7.49-1.94-10.39-1.7-1.79-3.63-5.85-4.85-8.68-.74-1.72-1.22-3-1.22-3s-2.54-9.67.86-15.26q.13-.24.3-.48c3.84-5.48,2.27-11.32-1.15-16.4a22.51,22.51,0,0,1-2.55-5.52A46.45,46.45,0,0,1,83,225.9c2.07-3.29,1.12-5.76.24-7.06a5.35,5.35,0,0,0-.84-1" />
    <path class="BUNTAI_BUNTAI_WEAPONS_EVOKER_4_cls-4" d="M62.94,230.77s-3.41,3.72-.72,7.18,7.71,12,8.87,21.22S72.5,271,72.5,271s-4.1,5.4-2.84,9.79,9.17,14,9.17,14S83.8,318,91,351.48c4.24,19.61,10.41,48.28,15,71.23" />
    <path class="BUNTAI_BUNTAI_WEAPONS_EVOKER_4_cls-4" d="M95.9,158.83a22.19,22.19,0,0,1-5.63-1,23.5,23.5,0,0,1-5.34-2.28,22.09,22.09,0,0,1-8.12-8.91s-1-.2-.78-2.63a12.85,12.85,0,0,1,.51-3.09L78,142.14h0c2.16,1.8,6.09,5,7.1,5.79,1.42,1,9.22,4.23,10.8,4.64h0v0c.59.15,1,.88,1.23,1.81.35,1.53.06,3.58-1.19,4.42Z" />
    <path class="BUNTAI_BUNTAI_WEAPONS_EVOKER_4_cls-4" d="M76.54,141c-1.49-.87-.16-6.37.07-6.56s1.57.4,2.3.65,2.42,2.35,10.17,7,11,4.76,11,4.76,1.66,5.2-3,7.57" />
    <path class="BUNTAI_BUNTAI_WEAPONS_EVOKER_4_cls-4" d="M76.61,134.39,78.75,132s3.09-2.81,5.15-2.71c1.59.08,4.52,2.09,7.21,3.77.79.49,1.55,1,2.26,1.34,3.1,1.66,6.77,6.64,6.77,6.64s3.46,3.48,0,5.79" />
    <path class="BUNTAI_BUNTAI_WEAPONS_EVOKER_4_cls-5" d="M29.44,132.21s-7.84-10.68-2.68-16.54,11.12-3.53,16.05-11c.12-.2.26-.39.38-.59,5-8.19,14.49-12,20.13-5.56S71.6,109.37,79,114.13s4.87,15.16,4.87,15.16" />
    <path class="BUNTAI_BUNTAI_WEAPONS_EVOKER_4_cls-5" d="M63.4,85.51c-4.63.8-9.66,2.18-12.22,4.43-5.45,4.84-5.41,8.33-8.37,14.71" />
    <path class="BUNTAI_BUNTAI_WEAPONS_EVOKER_4_cls-5" d="M91.11,133.06c3-5.77.72-9.66-5-19.11-5.58-9.17-9.7-14.63-10-15h0" />
    <path class="BUNTAI_BUNTAI_WEAPONS_EVOKER_4_cls-5" d="M90.27,157.86s-3.46,7.44-7.06,11.92-4.09,6.54-8.78,8.62h0" />
    <path class="BUNTAI_BUNTAI_WEAPONS_EVOKER_4_cls-5" d="M74.28,150.48s6.22,9.45,5.4,12.88-7.65,2.8-15.11,8.09c-7.24,5.12-7.39-.62-7.4-1v0" />
    <path class="BUNTAI_BUNTAI_WEAPONS_EVOKER_4_cls-5" d="M48,185.16a6,6,0,0,1-.22-.72c-1.85-6.22,1.43-11.51,3.48-14.06" />
    <path class="BUNTAI_BUNTAI_WEAPONS_EVOKER_4_cls-5" d="M53.56,194.69h0c0,.24,1,5.1,7.12,6.53,6.28,1.46,13.63-1.47,18.95,2.7h0" />
    <path class="BUNTAI_BUNTAI_WEAPONS_EVOKER_4_cls-5" d="M52.89,203.24a70.88,70.88,0,0,1,12.85,10.48C72.26,220.41,76.8,226.26,83,225.9" />
    <path class="BUNTAI_BUNTAI_WEAPONS_EVOKER_4_cls-5" d="M83.19,218.84a20.23,20.23,0,0,1-5.41-3.37c-5.83-5-20.55-16-25.5-13.92" />
    <path class="BUNTAI_BUNTAI_WEAPONS_EVOKER_4_cls-5" d="M81.89,244.3a12.79,12.79,0,0,0-.47-2c-1.25-4-4.65-9.07-12.68-15a104.51,104.51,0,0,1-9.92-8.26" />
    <path class="BUNTAI_BUNTAI_WEAPONS_EVOKER_4_cls-5" d="M88.26,263.61l0,0s-8.83-5-11-12.45c-1.85-6.24-7.28-21-16.22-21.34" />
    <path class="BUNTAI_BUNTAI_WEAPONS_EVOKER_4_cls-5" d="M88.62,281.86s-7.85-3-11.81-8.51S72.5,271,72.5,271" />
    <path class="BUNTAI_BUNTAI_WEAPONS_EVOKER_4_cls-5" d="M95,303.11c-9.09-7.59-16.18-8.34-16.18-8.34" />
    <path class="BUNTAI_BUNTAI_WEAPONS_EVOKER_4_cls-5" d="M97.5,314s-5.9-7.08-10-8.76,2.1,24,7.64,44.43c.9,3.31,2.09,7.75,3.45,12.87,7,26.5,18.69,71.26,18.69,71.26l1.85,4.21" />
    <path class="BUNTAI_BUNTAI_WEAPONS_EVOKER_4_cls-5" d="M106.89,363.35v0c-.11.49-2,8.25-3.08,8.2-.34,0-1.52-3.93-3-9.55-3.56-13.21-8.9-35.95-9.13-40.21-.33-6.08,4.3,1.91,7.72,18" />
    <path class="BUNTAI_BUNTAI_WEAPONS_EVOKER_4_cls-5" d="M128.47,469.8c-9.34-2.36-10.66-15.05-18.3-35.62-1.35-3.61-2.74-7.5-4.12-11.45v0" />
    <path class="BUNTAI_BUNTAI_WEAPONS_EVOKER_4_cls-4" d="M96,206c-1.27,1.31-2.64,2.83-4.45,4.48-4.56,4.11-4,5.3-4,9.07a5.24,5.24,0,0,1-3.3,5l.33,1.36a3.11,3.11,0,0,0,1.44-.74,5.62,5.62,0,0,1,3.36-1.48c1.2,0,5.22,2.16,7.74,2.51s5.8-.08,10.28-4.52a19.83,19.83,0,0,0,3.58-5,23.31,23.31,0,0,0,2.13-5.7s0,0,.1-.7c0-.23.08-.53.13-.91.23-1.46,1.42-7.08,1.52-7.55" />
    <path class="BUNTAI_BUNTAI_WEAPONS_EVOKER_4_cls-4" d="M114.87,201.76h0l-2.16-.49c-2-.45-5.29-.32-9.38.47h0l-1,.22c-2.74.6-4.43,2.06-6.3,4" />
    <path class="BUNTAI_BUNTAI_WEAPONS_EVOKER_4_cls-4" d="M94,218.55c-3.6,2.7-6.9,4.95-8,6.6" />
    <path class="BUNTAI_BUNTAI_WEAPONS_EVOKER_4_cls-4" d="M114.87,201.76v0A50.82,50.82,0,0,0,102,211.59c-.07.09-.17.18-.24.26A54.45,54.45,0,0,1,94,218.53" />
    <path class="BUNTAI_BUNTAI_WEAPONS_EVOKER_4_cls-4" d="M111,216.64c-2.08,1.29-6.25,2-9,2s-7.94-.06-7.94-.06v0A91.14,91.14,0,0,1,96,206v0" />
    <path class="BUNTAI_BUNTAI_WEAPONS_EVOKER_4_cls-4" d="M103.32,201.75a34.61,34.61,0,0,0-1.57,10.1s8.25-.73,11.45-1.61" />
    <path class="BUNTAI_BUNTAI_WEAPONS_EVOKER_4_cls-5" d="M61.58,151.6a2.27,2.27,0,0,0-1.13-.91c-.48-.11-2.25.3-3.27.17s-2.24-.64-3.51-2.82a8,8,0,0,1-.87-2.31,9.36,9.36,0,0,1-.22-2.44s0,0,0-.29c0-.09,0-.2,0-.36.08-.58.18-2.86.2-3.08" />
    <path class="BUNTAI_BUNTAI_WEAPONS_EVOKER_4_cls-5" d="M59.73,143.17c.35.64.72,1.38,1.25,2.2,1.34,2.07,1,2.48.59,3.93a2.06,2.06,0,0,0,.61,2.13,1.42,1.42,0,0,0,.16.14l-.27.49a1.35,1.35,0,0,1-.28-.22.8.8,0,0,1-.2-.21" />
    <path class="BUNTAI_BUNTAI_WEAPONS_EVOKER_4_cls-5" d="M52.85,139.55l.89,0a9.77,9.77,0,0,1,3.59,1.17l.38.2a4.67,4.67,0,0,1,2,2.21" />
    <path class="BUNTAI_BUNTAI_WEAPONS_EVOKER_4_cls-5" d="M59.18,148.22a18,18,0,0,1,2.4,3.38v0" />
    <path class="BUNTAI_BUNTAI_WEAPONS_EVOKER_4_cls-5" d="M52.85,139.55h0a20.36,20.36,0,0,1,4,5.14l.07.12a24.24,24.24,0,0,0,2.27,3.4" />
    <path class="BUNTAI_BUNTAI_WEAPONS_EVOKER_4_cls-5" d="M59.73,143.16h0a38.07,38.07,0,0,1-.54,5.06h0l-1.1-.28c-.63-.15-1.4-.35-2-.51a8.52,8.52,0,0,1-3.31-1.7" />
    <path class="BUNTAI_BUNTAI_WEAPONS_EVOKER_4_cls-5" d="M57.33,140.75a13.78,13.78,0,0,1-.44,4.07A39.19,39.19,0,0,1,52.61,143" />
    <path class="BUNTAI_BUNTAI_WEAPONS_EVOKER_4_cls-4" d="M142.88,110.05c-1-.16-3.08,1.46-4.72,3-.6.56-1.11,1.11-1.54,1.52-.12.13-.28.27-.44.44-.89.79-2.41,2-4,3.13h0c-2.07,1.54-4.24,3.11-5.23,4-1.89,1.59-5.22,2.44-8.13,2.88s-7.24-2-11.61-2.62c-2.26,2.4-4.14,7.6-4.14,7.6a2.56,2.56,0,0,0-.47,0c-.4,0-.52,0-.41-.7a1.3,1.3,0,0,0,0-.22c.22-1.32,3.05-6.73,3.05-6.73s-.07-6.31,1.78-9.19,6.34-6,6.71-6.28" />
    <path class="BUNTAI_BUNTAI_WEAPONS_EVOKER_4_cls-4" d="M113.78,106.79s.36-.24,7.93-1.94a18.54,18.54,0,0,1,3-.38h0c7.32-.39,15.35,3,18.21,5.59" />
    <path class="BUNTAI_BUNTAI_WEAPONS_EVOKER_4_cls-4" d="M142.92,110.06h0c-.51-.14-8.91-2.42-14.27-2.48a7.35,7.35,0,0,0-1.27.11c-3,.56-7.47,3-11.3,5.45a46.69,46.69,0,0,0-7.78,6l-.32.37a27.39,27.39,0,0,1-2.68,2.82" />
    <path class="BUNTAI_BUNTAI_WEAPONS_EVOKER_4_cls-4" d="M132.17,118.13s-9.37,1.27-12.56,1.8-9.35-1.08-11.67-.47c0,0,1.17-5.36,2.5-7.42s3.08-4.88,3.31-5.23a0,0,0,0,1,0,0v0" />
    <path class="BUNTAI_BUNTAI_WEAPONS_EVOKER_4_cls-4" d="M124.71,104.47s-5.43,3.66-6.68,4.61-2,4-2,4,4.85,1.63,6.5,2.2,10.5-1.15,11.39-.89,2.25.56,2.25.56" />
    <path class="BUNTAI_BUNTAI_WEAPONS_EVOKER_4_cls-4" d="M138.17,113.05h0c-.44-.18-7.4-3.13-8-3.38s-2.86-2-2.86-2" />
  </g>
</svg>