<svg xmlns="http://www.w3.org/2000/svg" viewBox="0 0 432 432">
  <defs>
    <style>.BUNTAI_BUNTAI_WEAPONS_HUNTER_5_cls-1{isolation:isolate;}.BUNTAI_BUNTAI_WEAPONS_HUNTER_5_cls-2{fill:#653d57;}.BUNTAI_BUNTAI_WEAPONS_HUNTER_5_cls-3{fill:#ffbf74;}.BUNTAI_BUNTAI_WEAPONS_HUNTER_5_cls-4{fill:#d34659;}.BUNTAI_BUNTAI_WEAPONS_HUNTER_5_cls-5{fill:#f3cf6e;}.BUNTAI_BUNTAI_WEAPONS_HUNTER_5_cls-6{fill:#e97576;}.BUNTAI_BUNTAI_WEAPONS_HUNTER_5_cls-7{fill:#fff0d1;}.BUNTAI_BUNTAI_WEAPONS_HUNTER_5_cls-8{fill:#a0675c;}.BUNTAI_BUNTAI_WEAPONS_HUNTER_5_cls-10,.BUNTAI_BUNTAI_WEAPONS_HUNTER_5_cls-12,.BUNTAI_BUNTAI_WEAPONS_HUNTER_5_cls-13,.BUNTAI_BUNTAI_WEAPONS_HUNTER_5_cls-14,.BUNTAI_BUNTAI_WEAPONS_HUNTER_5_cls-16,.BUNTAI_BUNTAI_WEAPONS_HUNTER_5_cls-9{fill:none;stroke:#000;stroke-linecap:round;stroke-linejoin:round;}.BUNTAI_BUNTAI_WEAPONS_HUNTER_5_cls-9{stroke-width:1.02px;}.BUNTAI_BUNTAI_WEAPONS_HUNTER_5_cls-10{stroke-width:2.16px;}.BUNTAI_BUNTAI_WEAPONS_HUNTER_5_cls-11{opacity:0.25;mix-blend-mode:multiply;}.BUNTAI_BUNTAI_WEAPONS_HUNTER_5_cls-12,.BUNTAI_BUNTAI_WEAPONS_HUNTER_5_cls-13{stroke-width:2.03px;}.BUNTAI_BUNTAI_WEAPONS_HUNTER_5_cls-12{stroke-dasharray:7.72 7.72;}.BUNTAI_BUNTAI_WEAPONS_HUNTER_5_cls-14{stroke-width:0.94px;}.BUNTAI_BUNTAI_WEAPONS_HUNTER_5_cls-15{fill:#a31a31;}.BUNTAI_BUNTAI_WEAPONS_HUNTER_5_cls-16{stroke-width:1.26px;}</style>
  </defs>
  <g class="BUNTAI_BUNTAI_WEAPONS_HUNTER_5_cls-1">
    <g id="weapons_back" data-name="weapons back">
      <path class="BUNTAI_BUNTAI_WEAPONS_HUNTER_5_cls-2" d="M89.53,286.39,106.31,337a17.19,17.19,0,0,0-3.87,1h0l-.37.15c-.33.14-.65.28-1,.44-2.7,1.34-5.81,3-8.44,4.38a12.28,12.28,0,0,0,.44-1.25,6.87,6.87,0,0,0,.22-.81,9.58,9.58,0,0,0,.24-1.09c.07-.37.13-.75.17-1.14a23.3,23.3,0,0,0,.2-3.58c0-.31,0-.64,0-1a1.06,1.06,0,0,0,0-.25c-.05-1.39-.18-2.79-.36-4.2-.08-.69-.2-1.38-.31-2.06,0-.08,0-.17,0-.26-.09-.58-.21-1.15-.32-1.7v-.05c-.07-.34-.15-.69-.22-1s-.13-.6-.2-.89c-.13-.57-.26-1.15-.4-1.69s-.19-.78-.3-1.16-.26-.95-.37-1.38c-.89-3.06-1.65-5.09-1.65-5.09s0-.18-.15-.51c-.28-.88-.91-2.85-1.87-5.31a75.14,75.14,0,0,0-3.85-8.34,43.55,43.55,0,0,0-3.74-5.74h0A19.32,19.32,0,0,0,75,289.74c3-.45,6.43-1,9.39-1.54.48-.09,1-.2,1.42-.33h0A17.27,17.27,0,0,0,89.53,286.39Z" />
      <path class="BUNTAI_BUNTAI_WEAPONS_HUNTER_5_cls-3" d="M114.36,339.53c-.32.47-3,.77-6.59,1.84-1.17.36-2.43.8-3.75,1.35-5.36,2.25-11.9,6.68-13.52,7.37s-3.69-3.94-3.69-3.94,2.55-1.4,5.84-3.18c2.63-1.41,5.74-3,8.44-4.38l1-.44.37-.15h0a17.19,17.19,0,0,1,3.87-1,20.73,20.73,0,0,1,7.22.07S114.79,338.93,114.36,339.53Z" />
      <path class="BUNTAI_BUNTAI_WEAPONS_HUNTER_5_cls-3" d="M95.27,282a20.73,20.73,0,0,1-5.74,4.37,17.27,17.27,0,0,1-3.73,1.48h0c-.46.13-.94.24-1.42.33-3,.54-6.44,1.09-9.39,1.54-3.7.54-6.58.94-6.58.94s-1.11-4.95.6-5.36,9.61-.78,15.25-2.18c1.39-.35,2.67-.76,3.81-1.17,3.53-1.28,5.85-2.64,6.38-2.47C95.15,279.74,95.27,282,95.27,282Z" />
      <path class="BUNTAI_BUNTAI_WEAPONS_HUNTER_5_cls-4" d="M89.74,397.53c-8.55-15.32-14.22-31.26-12.42-40.7,3.83,1.13,7.54,2,11,2.72C88.29,359.55,81.36,375.13,89.74,397.53Z" />
      <path class="BUNTAI_BUNTAI_WEAPONS_HUNTER_5_cls-4" d="M61.57,279.05h0c-2.33,2.61-4.76,5.53-7.17,8.73-7.09-6.5-12.08-22.67-14.38-40.05C46.71,270.71,61.57,279.05,61.57,279.05Z" />
      <path class="BUNTAI_BUNTAI_WEAPONS_HUNTER_5_cls-5" d="M107.61,362.06a64.66,64.66,0,0,0-3.22,12.09h0c-2.22,12.07-3.22,28.67-.41,40.91a37.66,37.66,0,0,0,1.93,6.26,159.76,159.76,0,0,1-16.16-23.77v0c-8.38-22.4-1.45-38-1.45-38,.68.14,1.34.28,2,.38v0A121.66,121.66,0,0,0,107.61,362.06Z" />
      <path class="BUNTAI_BUNTAI_WEAPONS_HUNTER_5_cls-5" d="M75.57,265.49a120.1,120.1,0,0,0-12.62,12v0c-.47.48-.91,1-1.37,1.51h0S46.71,270.71,40,247.74v0A159.71,159.71,0,0,1,38.76,219a38.36,38.36,0,0,0,2.2,6.18c5.08,11.48,15.8,24.2,24.79,32.54h0A65,65,0,0,0,75.57,265.49Z" />
      <path class="BUNTAI_BUNTAI_WEAPONS_HUNTER_5_cls-6" d="M126.89,441.26c1.06,3.4,1.94,6.37,2.54,8.43s.91,3.08.91,3.08-15.08-25.24-26.36-37.7c-2.81-12.24-1.81-28.84.41-40.91-.84,12.23,6,28.73,10.85,35.77,1.52,2.2,3.56,7.23,5.66,13.1S125.17,435.68,126.89,441.26Z" />
      <path class="BUNTAI_BUNTAI_WEAPONS_HUNTER_5_cls-6" d="M53.06,222.55c.33,8.54,4.7,25.86,12.69,35.16-9-8.34-19.71-21.06-24.79-32.54,1.6-16.73-1.42-46-1.42-46s.43,1.12,1.12,3,1.82,4.92,3,8.28c2,5.5,4.27,12.2,6.1,18.19S53,219.88,53.06,222.55Z" />
      <path class="BUNTAI_BUNTAI_WEAPONS_HUNTER_5_cls-7" d="M151,444.71A73.57,73.57,0,0,0,138.4,433c-1.27-.93-2.52-1.8-3.73-2.6v0c-2.2-1.45-4.28-2.66-6.12-3.67A66.47,66.47,0,0,0,120.9,423c-2.1-5.87-4.14-10.9-5.66-13.1-4.84-7-11.69-23.54-10.85-35.77h0a64.66,64.66,0,0,1,3.22-12.09A121.66,121.66,0,0,1,90.3,360v0c-2.46-4.53.21-9.84.21-9.84,1.62-.69,8.16-5.12,13.52-7.37,1.32-.55,2.58-1,3.75-1.35v0s11.2,17.15,11.39,29.78a29.31,29.31,0,0,1-.38,5.07c-1.26,8.13-4.68,12.95,6.08,26q1.59,1.92,3.61,4.1,3.18,3.4,5.81,6.84c1,1.2,1.84,2.4,2.7,3.59h0A101.12,101.12,0,0,1,151,444.71Z" />
      <path class="BUNTAI_BUNTAI_WEAPONS_HUNTER_5_cls-7" d="M66.41,204.08h0c0,1.47,0,3,0,4.49-.05,2.88-.23,5.87-.57,8.95-.22,2-.36,3.79-.44,5.45-.84,16.88,4.78,18.7,10.65,24.46a28.32,28.32,0,0,1,3.34,3.84c7.4,10.23,8.68,30.68,8.68,30.68h0c-1.14.41-2.42.82-3.81,1.17-5.64,1.4-13.54,1.77-15.25,2.18,0,0-5.31-2.67-6-7.77v0a120.1,120.1,0,0,1,12.62-12,65,65,0,0,1-9.82-7.77h0c-8-9.3-12.36-26.62-12.69-35.16-.1-2.67-1.47-7.92-3.3-13.88a68,68,0,0,0,3.93-7.51h0c.88-1.91,1.82-4.13,2.71-6.61h0c.49-1.37,1-2.82,1.43-4.32a73.49,73.49,0,0,0,3.11-16.91A101.14,101.14,0,0,1,66.41,204.08Z" />
      <path class="BUNTAI_BUNTAI_WEAPONS_HUNTER_5_cls-8" d="M201.34,528.21a22.66,22.66,0,0,0,1.12-3c1.49-4.88,2.25-11.76,1-15.3a9.68,9.68,0,0,0-3.12-4.12,18,18,0,0,0-2.57-1.84,27.7,27.7,0,0,0-2.88-1.54c-.92-.43-1.88-.84-2.9-1.23-1.64-.63-3.42-1.22-5.28-1.74-7.52-2.09-10.63-13.92-21.57-20.82a30,30,0,0,0-5.44-2.7c-10.4-3.93-23.61-28.49-30.27-26.28-.6-2.06-1.48-5-2.54-8.43-1.72-5.58-3.88-12.33-6-18.23a66.47,66.47,0,0,1,7.64,3.69c1.84,1,3.92,2.22,6.12,3.67v0c1.21.8,2.46,1.67,3.73,2.6a73.57,73.57,0,0,1,12.6,11.7,60.31,60.31,0,0,1,4.71,6.37c12.5,19.56,27.26,37.87,41.23,44.26,1.49.67,2.86,1.34,4.12,2,.58.33,1.13.64,1.66,1a20.75,20.75,0,0,1,4.4,3.46C212,507.1,211.18,514.43,201.34,528.21Z" />
      <path class="BUNTAI_BUNTAI_WEAPONS_HUNTER_5_cls-8" d="M71.78,94a21.27,21.27,0,0,1-1.46,5.41c-.23.57-.48,1.16-.75,1.76h0c-.59,1.3-1.3,2.66-2.07,4.08l-.2.37c-7.21,13.53-8.06,36.84-6.39,59.78a59.87,59.87,0,0,1,0,7.92,73.49,73.49,0,0,1-3.11,16.91c-.46,1.5-.94,2.95-1.43,4.32h0c-.89,2.48-1.83,4.7-2.71,6.61h0a68,68,0,0,1-3.93,7.51c-1.83-6-4.14-12.69-6.1-18.19-1.18-3.36-2.25-6.26-3-8.28,6.66-2.21,2.57-29.8,8.55-39.16A30.4,30.4,0,0,0,52,137.62c4.65-12.08.07-23.41,4.84-29.59a55,55,0,0,0,3.2-4.54c.58-.93,1.11-1.83,1.59-2.72s1-2,1.38-3a19,19,0,0,0,1-3,9.73,9.73,0,0,0,0-5.17C62.85,86,58.13,81,54,78a25.67,25.67,0,0,0-2.66-1.7C67.49,81.44,72.55,86.79,71.78,94Z" />
      <path class="BUNTAI_BUNTAI_WEAPONS_HUNTER_5_cls-9" d="M43.66,190.48c17.47-15,8.88-50.54,8.32-52.75,0,0,0-.07,0-.11" />
      <path class="BUNTAI_BUNTAI_WEAPONS_HUNTER_5_cls-9" d="M42.41,187S57.07,169.5,52,137.62" />
      <path class="BUNTAI_BUNTAI_WEAPONS_HUNTER_5_cls-9" d="M57.82,190.18c1.62,4.24,4.41,10,8.59,13.9h0" />
      <path class="BUNTAI_BUNTAI_WEAPONS_HUNTER_5_cls-9" d="M56.39,194.53h0c2,4.71,5.23,10.64,10,14" />
      <path class="BUNTAI_BUNTAI_WEAPONS_HUNTER_5_cls-9" d="M56.15,211.6a3.56,3.56,0,0,1-.83-1.64,1.15,1.15,0,0,1,2-1c1.28,1.74,2.44,5.79-.54,6.35-3.3-.49-4.68-5.36-4-8.25.77-4,4.79-4,6.89-1C63,209.72,62,220.14,65.39,223" />
      <path class="BUNTAI_BUNTAI_WEAPONS_HUNTER_5_cls-9" d="M76,247.44a51.83,51.83,0,0,1,5.46,24.64A13.2,13.2,0,0,1,80,278.65c-1.19,1.94-3.56,3.32-5.75,2.68a5.81,5.81,0,0,1-3.63-4.24,5.31,5.31,0,0,1-.07-3,3,3,0,0,1,2-2.07c1.51-.36,3,.89,3.53,2.34A3.24,3.24,0,0,1,76,277a1.94,1.94,0,0,1-2.26.92,1.38,1.38,0,0,1-.51-2.17" />
      <line class="BUNTAI_BUNTAI_WEAPONS_HUNTER_5_cls-9" x1="60" y1="103.49" x2="67.3" y2="105.6" />
      <line class="BUNTAI_BUNTAI_WEAPONS_HUNTER_5_cls-9" x1="61.59" y1="100.76" x2="69.56" y2="101.14" />
      <line class="BUNTAI_BUNTAI_WEAPONS_HUNTER_5_cls-9" x1="62.97" y1="97.81" x2="70.32" y2="99.38" />
      <line class="BUNTAI_BUNTAI_WEAPONS_HUNTER_5_cls-9" x1="63.94" y1="94.8" x2="71.77" y2="93.97" />
      <line class="BUNTAI_BUNTAI_WEAPONS_HUNTER_5_cls-10" x1="97.92" y1="311.67" x2="89.53" y2="286.39" />
      <path class="BUNTAI_BUNTAI_WEAPONS_HUNTER_5_cls-10" d="M89.73,314.39s0-.18-.15-.51c-.28-.88-.91-2.85-1.87-5.31a75.14,75.14,0,0,0-3.85-8.34,43.55,43.55,0,0,0-3.74-5.74h0A19.32,19.32,0,0,0,75,289.74" />
      <path class="BUNTAI_BUNTAI_WEAPONS_HUNTER_5_cls-10" d="M95.27,282a20.73,20.73,0,0,1-5.74,4.37,17.27,17.27,0,0,1-3.73,1.48h0c-.46.13-.94.24-1.42.33-3,.54-6.44,1.09-9.39,1.54-3.7.54-6.58.94-6.58.94s-1.11-4.95.6-5.36,9.61-.78,15.25-2.18c1.39-.35,2.67-.76,3.81-1.17,3.53-1.28,5.85-2.64,6.38-2.47C95.15,279.74,95.27,282,95.27,282Z" />
      <path class="BUNTAI_BUNTAI_WEAPONS_HUNTER_5_cls-10" d="M65.75,257.71c-9-8.34-19.71-21.06-24.8-32.54A39.27,39.27,0,0,1,38.76,219,159.71,159.71,0,0,0,40,247.71" />
      <path class="BUNTAI_BUNTAI_WEAPONS_HUNTER_5_cls-10" d="M40,247.74c2.3,17.38,7.29,33.55,14.38,40.05,2.41-3.2,4.84-6.12,7.17-8.73.46-.52.9-1,1.37-1.51" />
      <path class="BUNTAI_BUNTAI_WEAPONS_HUNTER_5_cls-10" d="M65.75,257.72a65,65,0,0,0,9.82,7.77,120.1,120.1,0,0,0-12.62,12" />
      <path class="BUNTAI_BUNTAI_WEAPONS_HUNTER_5_cls-10" d="M65.75,257.72h0c-8-9.3-12.36-26.62-12.69-35.16-.1-2.67-1.47-7.92-3.3-13.88s-4.14-12.69-6.1-18.19c-1.18-3.36-2.25-6.26-3-8.28s-1.12-3-1.12-3,3,29.25,1.41,46" />
      <path class="BUNTAI_BUNTAI_WEAPONS_HUNTER_5_cls-10" d="M40,247.71v0c6.68,23,21.54,31.31,21.54,31.31" />
      <path class="BUNTAI_BUNTAI_WEAPONS_HUNTER_5_cls-10" d="M63,277.53v0c.74,5.1,6,7.77,6,7.77" />
      <path class="BUNTAI_BUNTAI_WEAPONS_HUNTER_5_cls-10" d="M60.93,173.3a102,102,0,0,1,4.9,44.23C63,243.34,72,241,79.38,251.28S88.06,282,88.06,282" />
      <path class="BUNTAI_BUNTAI_WEAPONS_HUNTER_5_cls-10" d="M40.66,182.2c6.66-2.21,2.57-29.8,8.55-39.16A30.4,30.4,0,0,0,52,137.62c4.65-12.08.07-23.41,4.84-29.59a55,55,0,0,0,3.2-4.54c.58-.93,1.11-1.83,1.59-2.72s1-2,1.38-3a19,19,0,0,0,1-3,9.73,9.73,0,0,0,0-5.17C62.85,86,58.13,81,54,78a25.67,25.67,0,0,0-2.66-1.7C67.49,81.44,72.55,86.79,71.78,94a21.27,21.27,0,0,1-1.46,5.41c-.23.57-.48,1.16-.75,1.76h0c-.59,1.3-1.3,2.66-2.07,4.08l-.2.37c-7.21,13.53-8.06,36.84-6.39,59.78a59.87,59.87,0,0,1,0,7.92,73.49,73.49,0,0,1-3.11,16.91c-.46,1.5-.94,2.95-1.43,4.32h0c-.89,2.48-1.83,4.7-2.71,6.61h0a68,68,0,0,1-3.93,7.51" />
      <line class="BUNTAI_BUNTAI_WEAPONS_HUNTER_5_cls-10" x1="106.31" y1="336.96" x2="97.92" y2="311.67" />
      <path class="BUNTAI_BUNTAI_WEAPONS_HUNTER_5_cls-10" d="M92.65,343a12.28,12.28,0,0,0,.44-1.25,6.87,6.87,0,0,0,.22-.81,10.64,10.64,0,0,0,.24-1.09c.07-.37.13-.75.17-1.14a23.3,23.3,0,0,0,.2-3.58c0-.33,0-.64,0-1a1.06,1.06,0,0,0,0-.25,39.66,39.66,0,0,0-.36-4.2c-.08-.69-.2-1.38-.31-2.06,0-.08,0-.17,0-.26-.1-.56-.2-1.13-.32-1.7v-.05c-.07-.34-.15-.69-.22-1s-.13-.6-.2-.89c-.13-.57-.26-1.15-.4-1.69l-.3-1.16c-.13-.49-.26-.95-.37-1.38-.89-3.06-1.65-5.09-1.65-5.09" />
      <path class="BUNTAI_BUNTAI_WEAPONS_HUNTER_5_cls-10" d="M114.36,339.53c-.32.47-3,.77-6.59,1.84-1.17.36-2.43.8-3.75,1.35-5.36,2.25-11.9,6.68-13.52,7.37s-3.69-3.94-3.69-3.94,2.55-1.4,5.84-3.18c2.63-1.41,5.74-3,8.44-4.38l1-.44.37-.15h0a17.19,17.19,0,0,1,3.87-1,20.73,20.73,0,0,1,7.22.07S114.79,338.93,114.36,339.53Z" />
      <path class="BUNTAI_BUNTAI_WEAPONS_HUNTER_5_cls-10" d="M104.39,374.16c-2.22,12.07-3.22,28.67-.41,40.91a37.66,37.66,0,0,0,1.93,6.26,159.76,159.76,0,0,1-16.16-23.77" />
      <path class="BUNTAI_BUNTAI_WEAPONS_HUNTER_5_cls-10" d="M89.74,397.53c-8.55-15.32-14.22-31.26-12.42-40.7,3.83,1.13,7.54,2,11,2.72.68.14,1.34.28,2,.38" />
      <path class="BUNTAI_BUNTAI_WEAPONS_HUNTER_5_cls-10" d="M104.39,374.15a64.66,64.66,0,0,1,3.22-12.09A121.66,121.66,0,0,1,90.3,360" />
      <path class="BUNTAI_BUNTAI_WEAPONS_HUNTER_5_cls-10" d="M104.39,374.15h0c-.84,12.23,6,28.73,10.85,35.77,1.52,2.2,3.56,7.23,5.66,13.1s4.27,12.65,6,18.23c1.06,3.4,1.94,6.37,2.54,8.43s.91,3.08.91,3.08-15.08-25.24-26.36-37.7" />
      <path class="BUNTAI_BUNTAI_WEAPONS_HUNTER_5_cls-10" d="M89.75,397.56v0c-8.38-22.4-1.45-38-1.45-38" />
      <path class="BUNTAI_BUNTAI_WEAPONS_HUNTER_5_cls-10" d="M90.3,360v0c-2.46-4.52.21-9.84.21-9.84" />
      <path class="BUNTAI_BUNTAI_WEAPONS_HUNTER_5_cls-10" d="M107.78,341.39s11.2,17.15,11.39,29.78-8.35,16.13,9.31,35.15A102.08,102.08,0,0,1,151,444.71" />
      <path class="BUNTAI_BUNTAI_WEAPONS_HUNTER_5_cls-10" d="M129.43,449.69C136.09,447.48,149.3,472,159.7,476a30,30,0,0,1,5.44,2.7c10.94,6.9,14.05,18.73,21.57,20.82,1.86.52,3.64,1.11,5.28,1.74,1,.39,2,.8,2.9,1.23a27.7,27.7,0,0,1,2.88,1.54,18,18,0,0,1,2.57,1.84,9.68,9.68,0,0,1,3.12,4.12c1.25,3.54.49,10.42-1,15.3a22.66,22.66,0,0,1-1.12,3c9.84-13.78,10.69-21.11,5.78-26.4a20.75,20.75,0,0,0-4.4-3.46c-.53-.33-1.08-.64-1.66-1-1.26-.7-2.63-1.37-4.12-2-14-6.39-28.73-24.7-41.23-44.26a60.31,60.31,0,0,0-4.71-6.37A73.57,73.57,0,0,0,138.4,433c-1.27-.93-2.52-1.8-3.73-2.6v0c-2.2-1.45-4.28-2.66-6.12-3.67A66.47,66.47,0,0,0,120.9,423" />
      <path class="BUNTAI_BUNTAI_WEAPONS_HUNTER_5_cls-10" d="M80.1,294.49h0a53.69,53.69,0,0,0,7-2.63c1.23-.55,2.43-1.16,3.62-1.82" />
      <path class="BUNTAI_BUNTAI_WEAPONS_HUNTER_5_cls-10" d="M83.86,300.23a42.75,42.75,0,0,0,9.42-2.54" />
      <path class="BUNTAI_BUNTAI_WEAPONS_HUNTER_5_cls-10" d="M95.33,303.89a50.39,50.39,0,0,1-7.62,4.68" />
      <path class="BUNTAI_BUNTAI_WEAPONS_HUNTER_5_cls-10" d="M98.39,313.09a34.27,34.27,0,0,1-8.81.79" />
      <path class="BUNTAI_BUNTAI_WEAPONS_HUNTER_5_cls-10" d="M99.22,315.59a33.92,33.92,0,0,1-7.84,3.89" />
      <path class="BUNTAI_BUNTAI_WEAPONS_HUNTER_5_cls-10" d="M102.62,325.84a38.81,38.81,0,0,1-9.75-.23" />
      <path class="BUNTAI_BUNTAI_WEAPONS_HUNTER_5_cls-10" d="M103.59,328.77a49.54,49.54,0,0,1-9.69,5.11" />
      <path class="BUNTAI_BUNTAI_WEAPONS_HUNTER_5_cls-9" d="M137,416.75h0c-1,5.64.18,11.91,1.42,16.27" />
      <path class="BUNTAI_BUNTAI_WEAPONS_HUNTER_5_cls-9" d="M134.29,413.15c-1.8,5.59-.87,12.29.37,17.24h0" />
      <path class="BUNTAI_BUNTAI_WEAPONS_HUNTER_5_cls-9" d="M124.87,402.22c-1,4.31,6,12,5.51,17,.14,3.68-3.07,6.11-6.1,3.33-2.24-1.92-4.06-6.65-1.7-9,2.72-1.33,4.22,2.6,4.23,4.76a1.16,1.16,0,0,1-2.23.41,3.44,3.44,0,0,1-.31-1.8" />
      <path class="BUNTAI_BUNTAI_WEAPONS_HUNTER_5_cls-9" d="M99.6,355.27a1.37,1.37,0,0,1-.89-2,1.92,1.92,0,0,1,2.36-.61,3.2,3.2,0,0,1,1.63,2c.46,1.46,0,3.37-1.43,4a3,3,0,0,1-2.85-.46,5.34,5.34,0,0,1-1.72-2.42,5.79,5.79,0,0,1,.37-5.57c1.38-1.82,4.1-2.14,6.21-1.29a13,13,0,0,1,5.15,4.36,51.88,51.88,0,0,1,10.36,23" />
      <polyline class="BUNTAI_BUNTAI_WEAPONS_HUNTER_5_cls-10" points="71.77 93.97 207.12 501.81 200.34 505.83" />
      <g class="BUNTAI_BUNTAI_WEAPONS_HUNTER_5_cls-11">
        <path d="M66.58,94.35a1,1,0,0,1,0,.17,24.68,24.68,0,0,1-.38,4,22.5,22.5,0,0,1-.58,2.45,29.27,29.27,0,0,1-1.39,3.75C61.41,111,57,116.17,56.52,126.07a204,204,0,0,1-2.6,22.69q-.49,3.12-1,6.17c-.66,4.12-1.27,8.12-1.67,12,0,0,0,0,0,0-.69,6.47-1.26,12.17-1.64,16.09l-.54,5.67,4.6,12.47h0a21.12,21.12,0,0,0,3.87-4,22.26,22.26,0,0,0,1.95-3,22.78,22.78,0,0,0,2.61-7.44c-.29,3.8-.72,7.14-1.2,10.15-.27,1.7-.56,3.3-.83,4.82s-.5,2.71-.75,4c-.35,1.89-.68,3.7-1,5.49-.17,1.21-.32,2.39-.41,3.59h0a44.72,44.72,0,0,0,1.63,16.37c4.42,16,18.78,31.56,21.9,39.08a7.26,7.26,0,0,1,.39,1.05,55.25,55.25,0,0,1,2.36,11.89s4.48.73,1.55,4.73h0l6.09,18.35,2.23,6.72-4.38,1.45s0-.18-.15-.51c-.28-.88-.91-2.85-1.87-5.31a75.14,75.14,0,0,0-3.85-8.34,43.55,43.55,0,0,0-3.74-5.74h0A19.32,19.32,0,0,0,75,289.74c-3.7.54-6.58.94-6.58.94s-1.11-4.95.6-5.36c0,0-5.31-2.67-6-7.77-.47.48-.91,1-1.37,1.51-2.33,2.61-4.76,5.53-7.17,8.73-7.09-6.5-12.08-22.67-14.38-40.05v0A159.71,159.71,0,0,1,38.76,219a38.36,38.36,0,0,0,2.2,6.18c1.6-16.73-1.42-46-1.42-46s.43,1.12,1.12,3c6.66-2.21,2.57-29.8,8.55-39.16A30.4,30.4,0,0,0,52,137.62c4.65-12.08.07-23.41,4.84-29.59a55,55,0,0,0,3.2-4.54c.58-.93,1.11-1.83,1.59-2.72s1-2,1.38-3a19,19,0,0,0,1-3,9.73,9.73,0,0,0,0-5.17C62.85,86,58.13,81,54,78,54,78,66.69,81.49,66.58,94.35Z" />
        <path d="M202.46,525.26c1.49-4.88,2.25-11.76,1-15.3a9.68,9.68,0,0,0-3.12-4.12,18,18,0,0,0-2.57-1.84,27.7,27.7,0,0,0-2.88-1.54c-.92-.43-1.88-.84-2.9-1.23-1.64-.63-3.42-1.22-5.28-1.74-7.52-2.09-10.63-13.92-21.57-20.82a30,30,0,0,0-5.44-2.7c-10.4-3.93-23.61-28.49-30.27-26.28.58,1.93.91,3.08.91,3.08s-15.08-25.24-26.36-37.7a37.66,37.66,0,0,0,1.93,6.26,159.76,159.76,0,0,1-16.16-23.77v0c-8.55-15.32-14.22-31.26-12.42-40.7,3.83,1.13,7.54,2,11,2.72.68.14,1.34.28,2,.38-2.46-4.53.21-9.84.21-9.84-1.62.7-3.69-3.94-3.69-3.94s2.55-1.4,5.84-3.18a12.28,12.28,0,0,0,.44-1.25,6.87,6.87,0,0,0,.22-.81,9.58,9.58,0,0,0,.24-1.09c.07-.37.13-.75.17-1.14a23.3,23.3,0,0,0,.2-3.58c0-.31,0-.64,0-1a1.06,1.06,0,0,0,0-.25c-.05-1.39-.18-2.79-.36-4.2-.08-.69-.2-1.38-.31-2.06,0-.08,0-.17,0-.26-.09-.58-.21-1.15-.32-1.7v-.05c-.07-.34-.15-.69-.22-1s-.13-.6-.2-.89c-.13-.57-.26-1.15-.4-1.69l-.3-1.16c-.13-.49-.26-.95-.37-1.38-.89-3.06-1.65-5.09-1.65-5.09l4.38-1.45.26.8L102.43,338h0c4.74,1.45,1.58,4.72,1.58,4.72a55.33,55.33,0,0,1,5.22,10.94,7.93,7.93,0,0,1,.31,1.06h0c2,7.9-.24,28.92,5.81,44.43a44.49,44.49,0,0,0,8.47,14.09h0c.79.91,1.62,1.77,2.48,2.63h0c1.29,1.28,2.63,2.52,4,3.83,1,.88,2,1.78,3,2.75s2.31,2.17,3.54,3.36v0c2.18,2.13,4.53,4.53,7,7.4a23.31,23.31,0,0,0-6.53-4.4,24.16,24.16,0,0,0-3.37-1.23,21.23,21.23,0,0,0-5.5-.9l3.76,12.74,3.82,4.23c2.65,2.92,6.5,7.14,10.92,11.91l0,0c2.64,2.84,5.52,5.68,8.51,8.61,0,0,0,0,0,0s0,0,0,0l4.41,4.27A204.46,204.46,0,0,1,175.7,485.2c6.29,7.66,12.92,9.15,19,12.52a27.79,27.79,0,0,1,3.36,2.17,21.81,21.81,0,0,1,1.93,1.62,26.31,26.31,0,0,1,2.69,3l.1.13C210.51,514.86,202.46,525.26,202.46,525.26Z" />
      </g>
      <path class="BUNTAI_BUNTAI_WEAPONS_HUNTER_5_cls-5" d="M369.51,276.8q-31.72,99.72-63.43,199.45L302.34,488a23.25,23.25,0,0,1-9.66-2.52,29.58,29.58,0,0,1-11.31-10.73A41.26,41.26,0,0,1,276,461.38c-2.15-9.86-1.31-20.1-.23-30.14,6.83-64.1,22.16-127,41.41-188.58a25.24,25.24,0,0,0,4,4.37l.69.59c7.19,6,16.15,9.39,24.79,13.27a84.26,84.26,0,0,1,12.62,6.74A51.06,51.06,0,0,1,369.51,276.8Z" />
      <circle class="BUNTAI_BUNTAI_WEAPONS_HUNTER_5_cls-7" cx="333.23" cy="242.37" r="6.3" />
      <path class="BUNTAI_BUNTAI_WEAPONS_HUNTER_5_cls-4" d="M375.61,243.13a54.13,54.13,0,0,0-6.24-6.61,50.52,50.52,0,0,0-5.29-4.11c-1.26-.86-2.56-1.64-3.88-2.39s-2.85-1.56-4.3-2.27h0q-2.07-1-4.17-2t-4.21-1.86c-1.38-.61-2.77-1.2-4.14-1.82a93,93,0,0,1-11.07-5.68,45.67,45.67,0,0,1-5.43-3.86q-5,15-9.72,30.09a25.24,25.24,0,0,0,4,4.37l.69.59.83.67.55.43c.46.36.93.7,1.4,1s.95.67,1.44,1,.75.49,1.14.72.67.43,1,.64l.29.16.44.27.1.05a1.19,1.19,0,0,0,.25.13v0c1.94,1.11,3.95,2.12,6,3.09h0c.27.14.56.27.84.39l.41.2c.19.09.38.18.56.25,1.84.85,3.69,1.66,5.54,2.46l2.35,1,1.63.73c2.75,1.24,5.47,2.53,8.09,4l1.5.86c.51.3,1,.6,1.52.92s1,.65,1.51,1a51.06,51.06,0,0,1,10.24,9.17q4.64-14.58,9.28-29.16A54.62,54.62,0,0,0,375.61,243.13Zm-43.23,5.48a6.3,6.3,0,1,1,7.1-5.39A6.32,6.32,0,0,1,332.38,248.61Z" />
      <path class="BUNTAI_BUNTAI_WEAPONS_HUNTER_5_cls-12" d="M281.45,463.27c.69-17.38,3.71-41.09,8-72.77C296,342.9,316.28,268,319.85,255" />
      <line class="BUNTAI_BUNTAI_WEAPONS_HUNTER_5_cls-13" x1="320.87" y1="251.26" x2="321.86" y2="247.62" />
      <path class="BUNTAI_BUNTAI_WEAPONS_HUNTER_5_cls-14" d="M338,288.86a3.13,3.13,0,0,1-3.58.12,3.8,3.8,0,0,1-1.66-3.27,4.7,4.7,0,0,1,3.52-4.27,5.46,5.46,0,0,1,5.35,1.82,6.52,6.52,0,0,1,1.28,5.59,7.77,7.77,0,0,1-6.25,5.77,8.7,8.7,0,0,1-8-3.19,9.85,9.85,0,0,1-1.7-8.54,10.68,10.68,0,0,1,6.3-7.09,10.86,10.86,0,0,1,9.47.8,13.32,13.32,0,0,1,5.89,9.73,23.52,23.52,0,0,1-1.8,11.51,38.43,38.43,0,0,1-9.16,13.65c-4.63,4.42-10.43,7.75-14,13.08-5.49,8.22-8.77,17.6-10.76,27.28a228.54,228.54,0,0,0-5.17,45c-.1,15.27-.94,31.2-8.39,44.53-.78,1.38-2.15,2.94-3.64,2.4-1.28-.46-1.57-2.12-1.57-3.49a31.78,31.78,0,0,1,7.42-20.13" />
      <path class="BUNTAI_BUNTAI_WEAPONS_HUNTER_5_cls-14" d="M312.05,386.94c5.54-10.38,12.7-19.89,17.6-30.6s7.37-23.28,3-34.21a72,72,0,0,0-18.44,48.12" />
      <path class="BUNTAI_BUNTAI_WEAPONS_HUNTER_5_cls-14" d="M290.69,452.71c-2.25,2.82-.11,7.51,3.34,8.55s7.25-.83,9.55-3.61,3.41-6.32,4.48-9.76l44.48-143.78c3-9.74,5.91-20.81.87-29.68a18.73,18.73,0,0,0-34.77,12.34c2.23,13.39,7.33,26.56.59,38.34-3.24,5.67-7.9,10.39-11.68,15.71-9.4,13.25-11.83,30.59-8.66,46.53,1.88,9.47,6.05,19.27,2.94,28.42a11,11,0,0,1-3.37,5.2,6,6,0,0,1-5.89,1c-2.43-1-3.61-3.89-3.59-6.52a7.45,7.45,0,0,1,3-6.32c2.07-1.3,5.27-.79,6.33,1.4s-1.24,5.32-3.54,4.51" />
      <path class="BUNTAI_BUNTAI_WEAPONS_HUNTER_5_cls-4" d="M378.05,167.93l-.69,2.39L373,163.41c.75-3.41,1-7.07-.41-9.65,4.85,7.77,6,12.27,6,12.27Z" />
      <path class="BUNTAI_BUNTAI_WEAPONS_HUNTER_5_cls-4" d="M376.2,174.33l-1.68,5.85-4.72-7.65a46.2,46.2,0,0,0,3.19-9.12l4.37,6.91Z" />
      <path class="BUNTAI_BUNTAI_WEAPONS_HUNTER_5_cls-15" d="M382.58,176.21l-8.06,4,1.68-5.85,7-2C382.75,174.61,382.58,176.21,382.58,176.21Z" />
      <path class="BUNTAI_BUNTAI_WEAPONS_HUNTER_5_cls-15" d="M385.1,165.8a39.49,39.49,0,0,0-1.9,6.55l-7,2,1.16-4,.69-2.39,7-2.13Z" />
      <path class="BUNTAI_BUNTAI_WEAPONS_HUNTER_5_cls-15" d="M385.08,165.8l-7,2.13.54-1.9s3.38-3.19,11.6-7.2c-2.31,1.3-3.95,4-5.09,7Z" />
      <line class="BUNTAI_BUNTAI_WEAPONS_HUNTER_5_cls-16" x1="374.52" y1="180.19" x2="360.2" y2="230.02" />
      <path class="BUNTAI_BUNTAI_WEAPONS_HUNTER_5_cls-16" d="M372.58,153.76c4.85,7.77,6,12.27,6,12.27" />
      <path class="BUNTAI_BUNTAI_WEAPONS_HUNTER_5_cls-16" d="M372.54,153.7a4.47,4.47,0,0,0-.48-.77Z" />
      <path class="BUNTAI_BUNTAI_WEAPONS_HUNTER_5_cls-16" d="M372.54,153.7l0,.06" />
      <path class="BUNTAI_BUNTAI_WEAPONS_HUNTER_5_cls-16" d="M374.52,180.18l-4.72-7.65a46.2,46.2,0,0,0,3.19-9.12c.75-3.41,1-7.07-.41-9.65" />
      <path class="BUNTAI_BUNTAI_WEAPONS_HUNTER_5_cls-16" d="M390.19,158.83c-8.22,4-11.6,7.2-11.6,7.2l-.54,1.9-.69,2.39-1.16,4-1.68,5.85,8.06-4s.17-1.6.62-3.86a39.49,39.49,0,0,1,1.9-6.55c1.14-2.94,2.78-5.67,5.09-7" />
      <path class="BUNTAI_BUNTAI_WEAPONS_HUNTER_5_cls-16" d="M390.25,158.79a4.75,4.75,0,0,1,.82-.39Z" />
      <path class="BUNTAI_BUNTAI_WEAPONS_HUNTER_5_cls-16" d="M390.25,158.79l-.06,0" />
      <line class="BUNTAI_BUNTAI_WEAPONS_HUNTER_5_cls-16" x1="372.99" y1="163.41" x2="377.36" y2="170.32" />
      <line class="BUNTAI_BUNTAI_WEAPONS_HUNTER_5_cls-16" x1="383.2" y1="172.35" x2="376.2" y2="174.33" />
      <line class="BUNTAI_BUNTAI_WEAPONS_HUNTER_5_cls-16" x1="385.08" y1="165.8" x2="378.05" y2="167.93" />
      <path class="BUNTAI_BUNTAI_WEAPONS_HUNTER_5_cls-4" d="M360.25,163.44l-.69,2.39-4.37-6.91c.75-3.41,1-7.07-.41-9.65,4.85,7.77,6,12.27,6,12.27Z" />
      <path class="BUNTAI_BUNTAI_WEAPONS_HUNTER_5_cls-4" d="M358.41,169.84l-1.69,5.85L352,168a46.2,46.2,0,0,0,3.19-9.12l4.37,6.91Z" />
      <path class="BUNTAI_BUNTAI_WEAPONS_HUNTER_5_cls-15" d="M364.78,171.71l-8.06,4,1.69-5.85,7-2C365,170.12,364.78,171.71,364.78,171.71Z" />
      <path class="BUNTAI_BUNTAI_WEAPONS_HUNTER_5_cls-15" d="M367.3,161.31a40.47,40.47,0,0,0-1.9,6.55l-7,2,1.15-4,.69-2.39,7-2.13Z" />
      <path class="BUNTAI_BUNTAI_WEAPONS_HUNTER_5_cls-15" d="M367.29,161.31l-7,2.13.54-1.9s3.38-3.19,11.6-7.2c-2.31,1.3-3.94,4-5.09,7Z" />
      <path class="BUNTAI_BUNTAI_WEAPONS_HUNTER_5_cls-16" d="M343.38,222.11l1.5-5.26,5.85-20.35,1.81-6.25v0l1.82-6.3v0l1.13-3.88,1.23-4.31" />
      <path class="BUNTAI_BUNTAI_WEAPONS_HUNTER_5_cls-16" d="M354.78,149.27c4.85,7.77,6,12.27,6,12.27" />
      <path class="BUNTAI_BUNTAI_WEAPONS_HUNTER_5_cls-16" d="M354.75,149.21a4.54,4.54,0,0,0-.49-.77Z" />
      <path class="BUNTAI_BUNTAI_WEAPONS_HUNTER_5_cls-16" d="M354.75,149.21s0,0,0,.06" />
      <path class="BUNTAI_BUNTAI_WEAPONS_HUNTER_5_cls-16" d="M356.72,175.69,352,168a46.2,46.2,0,0,0,3.19-9.12c.75-3.41,1-7.07-.41-9.65" />
      <path class="BUNTAI_BUNTAI_WEAPONS_HUNTER_5_cls-16" d="M372.39,154.34c-8.22,4-11.6,7.2-11.6,7.2l-.54,1.9-.69,2.39-1.15,4-1.69,5.85,8.06-4s.17-1.59.62-3.85a40.47,40.47,0,0,1,1.9-6.55c1.15-2.94,2.78-5.67,5.09-7" />
      <path class="BUNTAI_BUNTAI_WEAPONS_HUNTER_5_cls-16" d="M372.46,154.3a4.14,4.14,0,0,1,.82-.39Z" />
      <path class="BUNTAI_BUNTAI_WEAPONS_HUNTER_5_cls-16" d="M372.46,154.3l-.07,0" />
      <line class="BUNTAI_BUNTAI_WEAPONS_HUNTER_5_cls-16" x1="355.19" y1="158.92" x2="359.56" y2="165.83" />
      <line class="BUNTAI_BUNTAI_WEAPONS_HUNTER_5_cls-16" x1="365.4" y1="167.86" x2="358.41" y2="169.84" />
      <line class="BUNTAI_BUNTAI_WEAPONS_HUNTER_5_cls-16" x1="367.29" y1="161.31" x2="360.25" y2="163.44" />
      <path class="BUNTAI_BUNTAI_WEAPONS_HUNTER_5_cls-4" d="M346.14,168.32l-.69,2.4-4.37-6.92c.76-3.4,1-7.06-.41-9.64,4.85,7.77,6,12.26,6,12.26Z" />
      <path class="BUNTAI_BUNTAI_WEAPONS_HUNTER_5_cls-4" d="M344.3,174.73l-1.69,5.85-4.72-7.65a46.44,46.44,0,0,0,3.19-9.13l4.37,6.92Z" />
      <path class="BUNTAI_BUNTAI_WEAPONS_HUNTER_5_cls-15" d="M350.67,176.6l-8.06,4,1.69-5.85,7-2C350.84,175,350.67,176.6,350.67,176.6Z" />
      <path class="BUNTAI_BUNTAI_WEAPONS_HUNTER_5_cls-15" d="M353.19,166.2a40.19,40.19,0,0,0-1.9,6.55l-7,2,1.15-4,.69-2.4,7-2.12Z" />
      <path class="BUNTAI_BUNTAI_WEAPONS_HUNTER_5_cls-15" d="M353.18,166.2l-7,2.12.55-1.9s3.37-3.19,11.59-7.2c-2.31,1.3-3.94,4-5.09,7Z" />
      <polyline class="BUNTAI_BUNTAI_WEAPONS_HUNTER_5_cls-16" points="342.61 180.58 333.86 211.01 332.31 216.43" />
      <path class="BUNTAI_BUNTAI_WEAPONS_HUNTER_5_cls-16" d="M340.67,154.16c4.85,7.77,6,12.26,6,12.26" />
      <path class="BUNTAI_BUNTAI_WEAPONS_HUNTER_5_cls-16" d="M340.64,154.1a4.17,4.17,0,0,0-.49-.77Z" />
      <path class="BUNTAI_BUNTAI_WEAPONS_HUNTER_5_cls-16" d="M340.64,154.1a.09.09,0,0,1,0,.06" />
      <path class="BUNTAI_BUNTAI_WEAPONS_HUNTER_5_cls-16" d="M342.61,180.58l-4.72-7.65a46.44,46.44,0,0,0,3.19-9.13c.76-3.4,1-7.06-.41-9.64" />
      <path class="BUNTAI_BUNTAI_WEAPONS_HUNTER_5_cls-16" d="M358.28,159.22c-8.22,4-11.59,7.2-11.59,7.2l-.55,1.9-.69,2.4-1.15,4-1.69,5.85,8.06-4s.17-1.6.62-3.85a40.19,40.19,0,0,1,1.9-6.55c1.15-2.94,2.78-5.68,5.09-7" />
      <path class="BUNTAI_BUNTAI_WEAPONS_HUNTER_5_cls-16" d="M358.35,159.19a4.14,4.14,0,0,1,.82-.39Z" />
      <path class="BUNTAI_BUNTAI_WEAPONS_HUNTER_5_cls-16" d="M358.35,159.19s-.05,0-.07,0" />
      <line class="BUNTAI_BUNTAI_WEAPONS_HUNTER_5_cls-16" x1="341.08" y1="163.8" x2="345.45" y2="170.72" />
      <line class="BUNTAI_BUNTAI_WEAPONS_HUNTER_5_cls-16" x1="351.29" y1="172.75" x2="344.3" y2="174.73" />
      <line class="BUNTAI_BUNTAI_WEAPONS_HUNTER_5_cls-16" x1="353.18" y1="166.2" x2="346.14" y2="168.32" />
      <path class="BUNTAI_BUNTAI_WEAPONS_HUNTER_5_cls-4" d="M388.29,205.77l-.8,2.36-4-7.11c.92-3.37,1.33-7,.05-9.66,4.47,8,5.43,12.54,5.43,12.54Z" />
      <path class="BUNTAI_BUNTAI_WEAPONS_HUNTER_5_cls-4" d="M386.15,212.08l-2,5.77L379.84,210a46.16,46.16,0,0,0,3.61-9l4,7.11Z" />
      <path class="BUNTAI_BUNTAI_WEAPONS_HUNTER_5_cls-15" d="M392.43,214.25l-8.24,3.6,2-5.77,7.08-1.64C392.67,212.66,392.43,214.25,392.43,214.25Z" />
      <path class="BUNTAI_BUNTAI_WEAPONS_HUNTER_5_cls-15" d="M395.43,204a40.52,40.52,0,0,0-2.2,6.46l-7.08,1.64,1.34-4,.8-2.36,7.13-1.79Z" />
      <path class="BUNTAI_BUNTAI_WEAPONS_HUNTER_5_cls-15" d="M395.42,204l-7.13,1.79.64-1.87s3.52-3,11.92-6.64c-2.37,1.18-4.13,3.84-5.42,6.72Z" />
      <line class="BUNTAI_BUNTAI_WEAPONS_HUNTER_5_cls-16" x1="384.19" y1="217.84" x2="375.61" y2="243.13" />
      <path class="BUNTAI_BUNTAI_WEAPONS_HUNTER_5_cls-16" d="M383.5,191.36c4.47,8,5.43,12.54,5.43,12.54" />
      <path class="BUNTAI_BUNTAI_WEAPONS_HUNTER_5_cls-16" d="M383.47,191.3a4.45,4.45,0,0,0-.45-.79Z" />
      <path class="BUNTAI_BUNTAI_WEAPONS_HUNTER_5_cls-16" d="M383.47,191.3s0,0,0,.06" />
      <path class="BUNTAI_BUNTAI_WEAPONS_HUNTER_5_cls-16" d="M384.19,217.85,379.84,210a46.16,46.16,0,0,0,3.61-9c.92-3.37,1.33-7,.05-9.66" />
      <path class="BUNTAI_BUNTAI_WEAPONS_HUNTER_5_cls-16" d="M400.85,197.26c-8.4,3.61-11.92,6.64-11.92,6.64l-.64,1.87-.8,2.36-1.34,4-2,5.77,8.24-3.6s.24-1.59.8-3.81a40.52,40.52,0,0,1,2.2-6.46c1.29-2.88,3.05-5.54,5.42-6.72" />
      <path class="BUNTAI_BUNTAI_WEAPONS_HUNTER_5_cls-16" d="M400.92,197.22a4.5,4.5,0,0,1,.84-.35Z" />
      <path class="BUNTAI_BUNTAI_WEAPONS_HUNTER_5_cls-16" d="M400.92,197.22l-.07,0" />
      <line class="BUNTAI_BUNTAI_WEAPONS_HUNTER_5_cls-16" x1="383.45" y1="201.02" x2="387.49" y2="208.13" />
      <line class="BUNTAI_BUNTAI_WEAPONS_HUNTER_5_cls-16" x1="393.23" y1="210.44" x2="386.15" y2="212.08" />
      <line class="BUNTAI_BUNTAI_WEAPONS_HUNTER_5_cls-16" x1="395.42" y1="203.98" x2="388.29" y2="205.77" />
      <path class="BUNTAI_BUNTAI_WEAPONS_HUNTER_5_cls-4" d="M368.92,175.15l-.8,2.36-4-7.11c.92-3.37,1.33-7,.05-9.66,4.47,8,5.43,12.54,5.43,12.54Z" />
      <path class="BUNTAI_BUNTAI_WEAPONS_HUNTER_5_cls-4" d="M366.78,181.46l-2,5.77-4.36-7.87a46.56,46.56,0,0,0,3.62-9l4,7.11Z" />
      <path class="BUNTAI_BUNTAI_WEAPONS_HUNTER_5_cls-15" d="M373.05,183.63l-8.23,3.6,2-5.77,7.08-1.65C373.3,182,373.05,183.63,373.05,183.63Z" />
      <path class="BUNTAI_BUNTAI_WEAPONS_HUNTER_5_cls-15" d="M376.06,173.36a39.78,39.78,0,0,0-2.2,6.45l-7.08,1.65,1.34-4,.8-2.36,7.13-1.79Z" />
      <path class="BUNTAI_BUNTAI_WEAPONS_HUNTER_5_cls-15" d="M376.05,173.36l-7.13,1.79.64-1.87s3.52-3,11.92-6.65c-2.37,1.19-4.13,3.85-5.42,6.73Z" />
      <polyline class="BUNTAI_BUNTAI_WEAPONS_HUNTER_5_cls-16" points="351.74 225.79 353.48 220.66 360.19 200.87 361.72 196.35 363.9 189.94 364.82 187.23" />
      <path class="BUNTAI_BUNTAI_WEAPONS_HUNTER_5_cls-16" d="M364.13,160.74c4.47,8,5.43,12.54,5.43,12.54" />
      <path class="BUNTAI_BUNTAI_WEAPONS_HUNTER_5_cls-16" d="M364.1,160.68a4.45,4.45,0,0,0-.45-.79Z" />
      <path class="BUNTAI_BUNTAI_WEAPONS_HUNTER_5_cls-16" d="M364.1,160.68l0,.06" />
      <path class="BUNTAI_BUNTAI_WEAPONS_HUNTER_5_cls-16" d="M364.82,187.23l-4.36-7.87a46.56,46.56,0,0,0,3.62-9c.92-3.37,1.33-7,.05-9.66" />
      <path class="BUNTAI_BUNTAI_WEAPONS_HUNTER_5_cls-16" d="M381.48,166.63c-8.4,3.62-11.92,6.65-11.92,6.65l-.64,1.87-.8,2.36-1.34,4-2,5.77,8.23-3.6s.25-1.59.81-3.82a39.78,39.78,0,0,1,2.2-6.45c1.29-2.88,3.05-5.54,5.42-6.73" />
      <path class="BUNTAI_BUNTAI_WEAPONS_HUNTER_5_cls-16" d="M381.55,166.6a4.4,4.4,0,0,1,.83-.35Z" />
      <path class="BUNTAI_BUNTAI_WEAPONS_HUNTER_5_cls-16" d="M381.55,166.6s-.05,0-.07,0" />
      <line class="BUNTAI_BUNTAI_WEAPONS_HUNTER_5_cls-16" x1="364.08" y1="170.4" x2="368.12" y2="177.51" />
      <line class="BUNTAI_BUNTAI_WEAPONS_HUNTER_5_cls-16" x1="373.86" y1="179.81" x2="366.78" y2="181.46" />
      <line class="BUNTAI_BUNTAI_WEAPONS_HUNTER_5_cls-16" x1="376.05" y1="173.36" x2="368.92" y2="175.15" />
      <path class="BUNTAI_BUNTAI_WEAPONS_HUNTER_5_cls-4" d="M387,184.6l-.8,2.36-4-7.12c.91-3.36,1.33-7,0-9.65,4.48,8,5.43,12.54,5.43,12.54Z" />
      <path class="BUNTAI_BUNTAI_WEAPONS_HUNTER_5_cls-4" d="M384.86,190.91l-1.95,5.76-4.36-7.86a46.48,46.48,0,0,0,3.62-9l4,7.12Z" />
      <path class="BUNTAI_BUNTAI_WEAPONS_HUNTER_5_cls-15" d="M391.14,193.08l-8.23,3.59,1.95-5.76,7.09-1.65C391.39,191.49,391.14,193.08,391.14,193.08Z" />
      <path class="BUNTAI_BUNTAI_WEAPONS_HUNTER_5_cls-15" d="M394.15,182.81a39.78,39.78,0,0,0-2.2,6.45l-7.09,1.65,1.35-3.95.8-2.36,7.13-1.79Z" />
      <path class="BUNTAI_BUNTAI_WEAPONS_HUNTER_5_cls-15" d="M394.14,182.81,387,184.6l.63-1.87s3.53-3,11.93-6.65c-2.37,1.19-4.14,3.85-5.42,6.73Z" />
      <line class="BUNTAI_BUNTAI_WEAPONS_HUNTER_5_cls-16" x1="382.9" y1="196.67" x2="369.37" y2="236.52" />
      <path class="BUNTAI_BUNTAI_WEAPONS_HUNTER_5_cls-16" d="M382.21,170.19c4.48,8,5.43,12.54,5.43,12.54" />
      <path class="BUNTAI_BUNTAI_WEAPONS_HUNTER_5_cls-16" d="M382.18,170.13a3.91,3.91,0,0,0-.45-.79Z" />
      <path class="BUNTAI_BUNTAI_WEAPONS_HUNTER_5_cls-16" d="M382.18,170.13a.09.09,0,0,1,0,.06" />
      <path class="BUNTAI_BUNTAI_WEAPONS_HUNTER_5_cls-16" d="M382.91,196.67l-4.36-7.86a46.48,46.48,0,0,0,3.62-9c.91-3.36,1.33-7,0-9.65" />
      <path class="BUNTAI_BUNTAI_WEAPONS_HUNTER_5_cls-16" d="M399.57,176.08c-8.4,3.62-11.93,6.65-11.93,6.65L387,184.6l-.8,2.36-1.35,3.95-1.95,5.76,8.23-3.59s.25-1.59.81-3.82a39.78,39.78,0,0,1,2.2-6.45c1.28-2.88,3.05-5.54,5.42-6.73" />
      <path class="BUNTAI_BUNTAI_WEAPONS_HUNTER_5_cls-16" d="M399.63,176.05a4.8,4.8,0,0,1,.84-.35Z" />
      <path class="BUNTAI_BUNTAI_WEAPONS_HUNTER_5_cls-16" d="M399.63,176.05s0,0-.06,0" />
      <line class="BUNTAI_BUNTAI_WEAPONS_HUNTER_5_cls-16" x1="382.17" y1="179.84" x2="386.21" y2="186.96" />
      <line class="BUNTAI_BUNTAI_WEAPONS_HUNTER_5_cls-16" x1="391.95" y1="189.26" x2="384.86" y2="190.91" />
      <line class="BUNTAI_BUNTAI_WEAPONS_HUNTER_5_cls-16" x1="394.14" y1="182.81" x2="387.01" y2="184.6" />
      <path class="BUNTAI_BUNTAI_WEAPONS_HUNTER_5_cls-4" d="M358.61,191.27l-.8,2.36-4-7.11c.92-3.37,1.33-7,.05-9.66,4.47,8,5.43,12.54,5.43,12.54Z" />
      <path class="BUNTAI_BUNTAI_WEAPONS_HUNTER_5_cls-4" d="M356.47,197.58l-2,5.77-4.35-7.87a46.16,46.16,0,0,0,3.61-9l4,7.11Z" />
      <path class="BUNTAI_BUNTAI_WEAPONS_HUNTER_5_cls-15" d="M362.75,199.75l-8.24,3.6,2-5.77,7.08-1.65C363,198.16,362.75,199.75,362.75,199.75Z" />
      <path class="BUNTAI_BUNTAI_WEAPONS_HUNTER_5_cls-15" d="M365.75,189.48a39.78,39.78,0,0,0-2.2,6.45l-7.08,1.65,1.34-4,.8-2.36,7.13-1.79Z" />
      <path class="BUNTAI_BUNTAI_WEAPONS_HUNTER_5_cls-15" d="M365.74,189.48l-7.13,1.79.64-1.87s3.52-3,11.92-6.65c-2.37,1.19-4.13,3.85-5.42,6.73Z" />
      <polyline class="BUNTAI_BUNTAI_WEAPONS_HUNTER_5_cls-16" points="354.51 203.34 349.26 218.8 347.52 223.93" />
      <path class="BUNTAI_BUNTAI_WEAPONS_HUNTER_5_cls-16" d="M353.82,176.86c4.47,8,5.43,12.54,5.43,12.54" />
      <path class="BUNTAI_BUNTAI_WEAPONS_HUNTER_5_cls-16" d="M353.79,176.8a4.45,4.45,0,0,0-.45-.79Z" />
      <path class="BUNTAI_BUNTAI_WEAPONS_HUNTER_5_cls-16" d="M353.79,176.8a.09.09,0,0,1,0,.06" />
      <path class="BUNTAI_BUNTAI_WEAPONS_HUNTER_5_cls-16" d="M354.51,203.35l-4.35-7.87a46.16,46.16,0,0,0,3.61-9c.92-3.37,1.33-7,.05-9.66" />
      <path class="BUNTAI_BUNTAI_WEAPONS_HUNTER_5_cls-16" d="M371.17,182.75c-8.4,3.62-11.92,6.65-11.92,6.65l-.64,1.87-.8,2.36-1.34,4-2,5.77,8.24-3.6s.24-1.59.8-3.82a39.78,39.78,0,0,1,2.2-6.45c1.29-2.88,3.05-5.54,5.42-6.73" />
      <path class="BUNTAI_BUNTAI_WEAPONS_HUNTER_5_cls-16" d="M371.24,182.72a4.7,4.7,0,0,1,.83-.35Z" />
      <path class="BUNTAI_BUNTAI_WEAPONS_HUNTER_5_cls-16" d="M371.24,182.72s-.05,0-.07,0" />
      <line class="BUNTAI_BUNTAI_WEAPONS_HUNTER_5_cls-16" x1="353.77" y1="186.52" x2="357.81" y2="193.63" />
      <line class="BUNTAI_BUNTAI_WEAPONS_HUNTER_5_cls-16" x1="363.55" y1="195.93" x2="356.47" y2="197.58" />
      <line class="BUNTAI_BUNTAI_WEAPONS_HUNTER_5_cls-16" x1="365.74" y1="189.48" x2="358.61" y2="191.27" />
      <path class="BUNTAI_BUNTAI_WEAPONS_HUNTER_5_cls-13" d="M378.79,247.64a51.32,51.32,0,0,0-9.42-11.12,50.52,50.52,0,0,0-5.29-4.11c-1.26-.86-2.56-1.64-3.88-2.39s-2.85-1.56-4.3-2.27h0q-2.07-1-4.17-2t-4.21-1.86c-1.38-.61-2.77-1.2-4.14-1.82a93,93,0,0,1-11.07-5.68,45.67,45.67,0,0,1-5.43-3.86" />
      <path class="BUNTAI_BUNTAI_WEAPONS_HUNTER_5_cls-13" d="M317.16,242.66a25.24,25.24,0,0,0,4,4.37l.69.59c10.84,9.1,25.66,12.08,37.41,20a51.06,51.06,0,0,1,10.24,9.17" />
      <path class="BUNTAI_BUNTAI_WEAPONS_HUNTER_5_cls-13" d="M378.79,247.64l-9.28,29.16q-31.72,99.72-63.43,199.45L302.34,488" />
      <path class="BUNTAI_BUNTAI_WEAPONS_HUNTER_5_cls-13" d="M302.34,488a23.25,23.25,0,0,1-9.66-2.52,29.58,29.58,0,0,1-11.31-10.73A41.26,41.26,0,0,1,276,461.38c-2.15-9.86-1.31-20.1-.23-30.14,6.83-64.1,22.16-127,41.41-188.58q4.71-15.1,9.72-30.09" />
      <circle class="BUNTAI_BUNTAI_WEAPONS_HUNTER_5_cls-13" cx="333.23" cy="242.37" r="6.3" />
      <g class="BUNTAI_BUNTAI_WEAPONS_HUNTER_5_cls-11">
        <path d="M355.9,227.74h0l-9.25,33.14s-1,2-2.73,5.53c-1.13,2.36-2.59,5.4-4.25,8.93-.89,1.87-1.82,3.88-2.81,6s-2.09,4.53-3.18,7c-.8,1.71-1.6,3.5-2.4,5.3-2.91,6.51-5.92,13.47-8.77,20.43v0c-2,5-4,10.07-5.75,14.9h0a192.17,192.17,0,0,0-5.85,18.38s-5.15,24.51-9.49,50.52c-1.34,7.91-2.58,16-3.57,23.53-.27,2-.53,4-.75,5.86h0c-.73,6.09-1.26,11.69-1.47,16.42-.25,5.19-.13,9.33.49,11.91a46.34,46.34,0,0,0,1.77,5.72,62.12,62.12,0,0,0,8.2,14.93L302.34,488a23.25,23.25,0,0,1-9.66-2.52,29.58,29.58,0,0,1-11.31-10.73A41.26,41.26,0,0,1,276,461.38c-2.15-9.86-1.31-20.1-.23-30.14,6.83-64.1,22.16-127,41.41-188.58q4.71-15.1,9.72-30.09a45.67,45.67,0,0,0,5.43,3.86,93,93,0,0,0,11.07,5.68c1.37.62,2.76,1.21,4.14,1.82s2.81,1.23,4.21,1.86S354.52,227.07,355.9,227.74Z" />
      </g>
    </g>
  </g>
</svg>