<svg id="weapons_back" data-name="weapons back" xmlns="http://www.w3.org/2000/svg" viewBox="0 0 432 432">
  <defs>
    <style>.BUNTAI_BUNTAI_WEAPONS_ROGUE_1_cls-1{fill:#ad7d2f;}.BUNTAI_BUNTAI_WEAPONS_ROGUE_1_cls-2{fill:#a52918;}.BUNTAI_BUNTAI_WEAPONS_ROGUE_1_cls-3{fill:#fff;}.BUNTAI_BUNTAI_WEAPONS_ROGUE_1_cls-4{fill:#ccc;}.BUNTAI_BUNTAI_WEAPONS_ROGUE_1_cls-5,.BUNTAI_BUNTAI_WEAPONS_ROGUE_1_cls-6{fill:none;stroke:#000;stroke-linecap:round;stroke-linejoin:round;}.BUNTAI_BUNTAI_WEAPONS_ROGUE_1_cls-5{stroke-width:1.85px;}.BUNTAI_BUNTAI_WEAPONS_ROGUE_1_cls-6{stroke-width:2.12px;}</style>
  </defs>
  <path class="BUNTAI_BUNTAI_WEAPONS_ROGUE_1_cls-1" d="M41.82,143.7l-13.34,7.52L27,148.66s-3.61-7.16,3.3-11,10,3.54,10,3.54Z" />
  <path class="BUNTAI_BUNTAI_WEAPONS_ROGUE_1_cls-2" d="M82.76,216.4l-2-3.49-4.63-8.22-3.68-6.54-3.68-6.52L62.8,181l-2.34-4.15-2.74-4.86-2.52-4.49-2.9-5.15-4.88-8.66-5.6-9.94-13.34,7.52,3.11,5.54,4.32,7.65.64,1.15L43,177l3.76,6.66,3.93,7,5,9,4.39,7.8,3.09,5.49,2.61,4.63,3.6,6.38Z" />
  <path class="BUNTAI_BUNTAI_WEAPONS_ROGUE_1_cls-1" d="M100.77,219,67.34,237.84s4.18-10.19,2.18-13.73l-.1-.2,13.34-7.51C89.35,220.84,100.77,219,100.77,219Z" />
  <path class="BUNTAI_BUNTAI_WEAPONS_ROGUE_1_cls-2" d="M51.67,254a4.08,4.08,0,1,1-.23-7.22l15.9-8.95L100.77,219,116,210.46a4.24,4.24,0,0,1,2.13-3.34,4.2,4.2,0,0,1,4.12,7.31,4.24,4.24,0,0,1-4,.09L94.12,228.1l-16.55,9.32L53.73,250.85A4.09,4.09,0,0,1,51.67,254Z" />
  <path class="BUNTAI_BUNTAI_WEAPONS_ROGUE_1_cls-3" d="M236.34,489.39C179.2,467.12,133,417.77,115.37,359c-5.63-18.75-8.5-38.23-13.8-57.07s-13.38-37.54-27.48-51.12a29.51,29.51,0,0,0,3.45-12.52,66,66,0,0,1,11.93,10.3c12,13.14,18.86,30.16,23.45,47.33s7.12,34.87,11.75,52C140,404.86,177.5,454.82,228.42,483.54l0,0C231,485.56,233.66,487.51,236.34,489.39Z" />
  <path class="BUNTAI_BUNTAI_WEAPONS_ROGUE_1_cls-4" d="M228.42,483.54C177.5,454.82,140,404.86,124.67,347.91c-4.63-17.17-7.16-34.85-11.75-52s-11.47-34.19-23.45-47.33a66,66,0,0,0-11.93-10.3c0-.28,0-.55,0-.82l16.55-9.32c13.17,16,21.72,35.79,27.73,55.78,7.6,25.23,11.75,51.43,19.85,76.51A256.39,256.39,0,0,0,228.42,483.54Z" />
  <path class="BUNTAI_BUNTAI_WEAPONS_ROGUE_1_cls-5" d="M77.54,238.24c0-.28,0-.55,0-.82" />
  <path class="BUNTAI_BUNTAI_WEAPONS_ROGUE_1_cls-5" d="M236.34,489.39C179.2,467.12,133,417.77,115.37,359c-5.63-18.75-8.5-38.23-13.8-57.07s-13.38-37.54-27.48-51.12a29.51,29.51,0,0,0,3.45-12.52,66,66,0,0,1,11.93,10.3c12,13.14,18.86,30.16,23.45,47.33s7.12,34.87,11.75,52C140,404.86,177.5,454.82,228.42,483.54" />
  <path class="BUNTAI_BUNTAI_WEAPONS_ROGUE_1_cls-6" d="M67.34,237.84l-15.9,8.95a4.07,4.07,0,1,0,2.29,4.06l23.84-13.43,16.55-9.32,24.12-13.58a4.19,4.19,0,0,0,5.55-5.8,4.2,4.2,0,0,0-5.71-1.6,4.24,4.24,0,0,0-2.13,3.34L100.77,219Z" />
  <path class="BUNTAI_BUNTAI_WEAPONS_ROGUE_1_cls-5" d="M94.12,228.1c13.17,16,21.72,35.79,27.73,55.78,7.6,25.23,11.75,51.43,19.85,76.51a256.39,256.39,0,0,0,86.72,123.15l0,0c2.58,2,5.2,3.94,7.88,5.82" />
  <path class="BUNTAI_BUNTAI_WEAPONS_ROGUE_1_cls-5" d="M67.34,237.84s4.18-10.19,2.18-13.73l-.1-.2-3.6-6.38-2.61-4.63-3.09-5.49-4.39-7.8-5-9-3.93-7L43,177l-6.44-11.44-.64-1.15-4.32-7.65-3.11-5.54L27,148.66s-3.61-7.16,3.3-11,10,3.54,10,3.54l1.44,2.55,5.6,9.94,4.88,8.66,2.9,5.15,2.52,4.49,2.74,4.86L62.8,181l6,10.68,3.68,6.52,3.68,6.54,4.63,8.22,2,3.49" />
  <path class="BUNTAI_BUNTAI_WEAPONS_ROGUE_1_cls-5" d="M100.77,219s-11.42,1.83-18-2.61" />
  <line class="BUNTAI_BUNTAI_WEAPONS_ROGUE_1_cls-5" x1="69.42" y1="223.91" x2="82.76" y2="216.4" />
  <line class="BUNTAI_BUNTAI_WEAPONS_ROGUE_1_cls-5" x1="65.82" y1="217.53" x2="80.8" y2="212.91" />
  <path class="BUNTAI_BUNTAI_WEAPONS_ROGUE_1_cls-5" d="M63.21,212.9l7.23-4.58,5.73-3.63" />
  <polyline class="BUNTAI_BUNTAI_WEAPONS_ROGUE_1_cls-5" points="70.44 208.32 61.71 207.55 60.12 207.41" />
  <line class="BUNTAI_BUNTAI_WEAPONS_ROGUE_1_cls-5" x1="61.71" y1="207.55" x2="72.49" y2="198.15" />
  <polyline class="BUNTAI_BUNTAI_WEAPONS_ROGUE_1_cls-5" points="68.81 191.63 63.5 194.86 55.73 199.61" />
  <polyline class="BUNTAI_BUNTAI_WEAPONS_ROGUE_1_cls-5" points="63.5 194.86 56.95 192.72 50.68 190.65" />
  <line class="BUNTAI_BUNTAI_WEAPONS_ROGUE_1_cls-5" x1="56.95" y1="192.72" x2="62.8" y2="180.95" />
  <polyline class="BUNTAI_BUNTAI_WEAPONS_ROGUE_1_cls-5" points="46.75 183.66 49.75 182.16 60.46 176.8" />
  <line class="BUNTAI_BUNTAI_WEAPONS_ROGUE_1_cls-5" x1="49.75" y1="182.16" x2="57.72" y2="171.94" />
  <line class="BUNTAI_BUNTAI_WEAPONS_ROGUE_1_cls-5" x1="42.99" y1="177" x2="55.2" y2="167.45" />
  <polyline class="BUNTAI_BUNTAI_WEAPONS_ROGUE_1_cls-5" points="47.42 153.64 42.33 158.4 35.91 164.41" />
  <line class="BUNTAI_BUNTAI_WEAPONS_ROGUE_1_cls-5" x1="36.55" y1="165.56" x2="52.3" y2="162.3" />
  <line class="BUNTAI_BUNTAI_WEAPONS_ROGUE_1_cls-5" x1="31.59" y1="156.76" x2="42.33" y2="158.4" />
  <line class="BUNTAI_BUNTAI_WEAPONS_ROGUE_1_cls-5" x1="28.48" y1="151.22" x2="41.82" y2="143.7" />
  <path class="BUNTAI_BUNTAI_WEAPONS_ROGUE_1_cls-1" d="M409.64,143.7,423,151.22l1.44-2.56s3.61-7.16-3.3-11-10.05,3.54-10.05,3.54Z" />
  <path class="BUNTAI_BUNTAI_WEAPONS_ROGUE_1_cls-2" d="M368.69,216.4l2-3.49,4.63-8.22,3.68-6.54,3.67-6.52,6-10.68L391,176.8l2.74-4.86,2.53-4.49,2.9-5.15,4.88-8.66,5.6-9.94L423,151.22l-3.12,5.54-4.31,7.65-.64,1.15L408.46,177l-3.75,6.66-3.94,7-5,9-4.4,7.8-3.09,5.49-2.61,4.63L382,223.91Z" />
  <path class="BUNTAI_BUNTAI_WEAPONS_ROGUE_1_cls-1" d="M350.68,219l33.44,18.83s-4.18-10.19-2.19-13.73l.11-.2-13.35-7.51C362.11,220.84,350.68,219,350.68,219Z" />
  <path class="BUNTAI_BUNTAI_WEAPONS_ROGUE_1_cls-2" d="M399.78,254a4.08,4.08,0,1,0,.23-7.22l-15.89-8.95L350.68,219l-15.18-8.55a4.19,4.19,0,1,0-6.24,4,4.24,4.24,0,0,0,4,.09l24.11,13.58,16.56,9.32,23.84,13.43A4.08,4.08,0,0,0,399.78,254Z" />
  <path class="BUNTAI_BUNTAI_WEAPONS_ROGUE_1_cls-3" d="M215.12,489.39c57.13-22.27,103.32-71.62,121-130.44,5.63-18.75,8.5-38.23,13.8-57.07s13.38-37.54,27.48-51.12a29.37,29.37,0,0,1-3.45-12.52A65.65,65.65,0,0,0,362,248.54c-12,13.14-18.86,30.16-23.45,47.33s-7.12,34.87-11.76,52C311.44,404.86,274,454.82,223,483.54l0,0C220.42,485.56,217.8,487.51,215.12,489.39Z" />
  <path class="BUNTAI_BUNTAI_WEAPONS_ROGUE_1_cls-4" d="M223,483.54c50.92-28.72,88.4-78.68,103.74-135.63,4.64-17.17,7.17-34.85,11.76-52S350,261.68,362,248.54a65.65,65.65,0,0,1,11.93-10.3c0-.28,0-.55,0-.82l-16.56-9.32c-13.17,16-21.72,35.79-27.72,55.78-7.6,25.23-11.75,51.43-19.85,76.51A256.39,256.39,0,0,1,223,483.54Z" />
  <path class="BUNTAI_BUNTAI_WEAPONS_ROGUE_1_cls-5" d="M373.92,238.24c0-.28,0-.55,0-.82" />
  <path class="BUNTAI_BUNTAI_WEAPONS_ROGUE_1_cls-5" d="M215.12,489.39c57.13-22.27,103.32-71.62,121-130.44,5.63-18.75,8.5-38.23,13.8-57.07s13.38-37.54,27.48-51.12a29.37,29.37,0,0,1-3.45-12.52A65.65,65.65,0,0,0,362,248.54c-12,13.14-18.86,30.16-23.45,47.33s-7.12,34.87-11.76,52C311.44,404.86,274,454.82,223,483.54" />
  <path class="BUNTAI_BUNTAI_WEAPONS_ROGUE_1_cls-6" d="M384.12,237.84,400,246.79a4.08,4.08,0,1,1-2.28,4.06l-23.84-13.43-16.56-9.32-24.11-13.58a4.19,4.19,0,0,1-5.55-5.8,4.19,4.19,0,0,1,7.83,1.74L350.68,219Z" />
  <path class="BUNTAI_BUNTAI_WEAPONS_ROGUE_1_cls-5" d="M357.33,228.1c-13.17,16-21.72,35.79-27.72,55.78-7.6,25.23-11.75,51.43-19.85,76.51A256.39,256.39,0,0,1,223,483.54l0,0c-2.58,2-5.2,3.94-7.88,5.82" />
  <path class="BUNTAI_BUNTAI_WEAPONS_ROGUE_1_cls-5" d="M384.12,237.84s-4.18-10.19-2.19-13.73l.11-.2,3.59-6.38,2.61-4.63,3.09-5.49,4.4-7.8,5-9,3.94-7,3.75-6.66,6.45-11.44.64-1.15,4.31-7.65,3.12-5.54,1.44-2.56s3.61-7.16-3.3-11-10.05,3.54-10.05,3.54l-1.43,2.55-5.6,9.94-4.88,8.66-2.9,5.15-2.53,4.49L391,176.8,388.66,181l-6,10.68L379,198.15l-3.68,6.54-4.63,8.22-2,3.49" />
  <path class="BUNTAI_BUNTAI_WEAPONS_ROGUE_1_cls-5" d="M350.68,219s11.43,1.83,18-2.61" />
  <line class="BUNTAI_BUNTAI_WEAPONS_ROGUE_1_cls-5" x1="382.04" y1="223.91" x2="368.69" y2="216.4" />
  <line class="BUNTAI_BUNTAI_WEAPONS_ROGUE_1_cls-5" x1="385.63" y1="217.53" x2="370.66" y2="212.91" />
  <path class="BUNTAI_BUNTAI_WEAPONS_ROGUE_1_cls-5" d="M388.24,212.9,381,208.32l-5.73-3.63" />
  <polyline class="BUNTAI_BUNTAI_WEAPONS_ROGUE_1_cls-5" points="381.02 208.32 389.75 207.55 391.33 207.41" />
  <line class="BUNTAI_BUNTAI_WEAPONS_ROGUE_1_cls-5" x1="389.75" y1="207.55" x2="378.97" y2="198.15" />
  <polyline class="BUNTAI_BUNTAI_WEAPONS_ROGUE_1_cls-5" points="382.64 191.63 387.95 194.86 395.73 199.61" />
  <polyline class="BUNTAI_BUNTAI_WEAPONS_ROGUE_1_cls-5" points="387.95 194.86 394.51 192.72 400.77 190.65" />
  <line class="BUNTAI_BUNTAI_WEAPONS_ROGUE_1_cls-5" x1="394.51" y1="192.72" x2="388.66" y2="180.95" />
  <polyline class="BUNTAI_BUNTAI_WEAPONS_ROGUE_1_cls-5" points="404.71 183.66 401.71 182.16 390.99 176.8" />
  <line class="BUNTAI_BUNTAI_WEAPONS_ROGUE_1_cls-5" x1="401.71" y1="182.16" x2="393.73" y2="171.94" />
  <line class="BUNTAI_BUNTAI_WEAPONS_ROGUE_1_cls-5" x1="408.46" y1="177" x2="396.26" y2="167.45" />
  <polyline class="BUNTAI_BUNTAI_WEAPONS_ROGUE_1_cls-5" points="404.04 153.64 409.13 158.4 415.55 164.41" />
  <line class="BUNTAI_BUNTAI_WEAPONS_ROGUE_1_cls-5" x1="414.91" y1="165.56" x2="399.16" y2="162.3" />
  <line class="BUNTAI_BUNTAI_WEAPONS_ROGUE_1_cls-5" x1="419.86" y1="156.76" x2="409.13" y2="158.4" />
  <line class="BUNTAI_BUNTAI_WEAPONS_ROGUE_1_cls-5" x1="422.98" y1="151.22" x2="409.64" y2="143.7" />
</svg>