<svg xmlns="http://www.w3.org/2000/svg" xmlns:xlink="http://www.w3.org/1999/xlink" viewBox="0 0 432 432">
  <defs>
    <style>.GUNDAN_ARMADILLO_OUTFIT_GUNDAN_ARMADILLO_OUTFIT-26_cls-1,.GUNDAN_ARMADILLO_OUTFIT_GUNDAN_ARMADILLO_OUTFIT-26_cls-11,.GUNDAN_ARMADILLO_OUTFIT_GUNDAN_ARMADILLO_OUTFIT-26_cls-5{fill:none;}.GUNDAN_ARMADILLO_OUTFIT_GUNDAN_ARMADILLO_OUTFIT-26_cls-2{isolation:isolate;}.GUNDAN_ARMADILLO_OUTFIT_GUNDAN_ARMADILLO_OUTFIT-26_cls-3{fill:#1a1e1d;}.GUNDAN_ARMADILLO_OUTFIT_GUNDAN_ARMADILLO_OUTFIT-26_cls-4{fill:#e8eae9;}.GUNDAN_ARMADILLO_OUTFIT_GUNDAN_ARMADILLO_OUTFIT-26_cls-11,.GUNDAN_ARMADILLO_OUTFIT_GUNDAN_ARMADILLO_OUTFIT-26_cls-5{stroke:#000;stroke-linecap:round;stroke-linejoin:round;}.GUNDAN_ARMADILLO_OUTFIT_GUNDAN_ARMADILLO_OUTFIT-26_cls-5{stroke-width:1.65px;}.GUNDAN_ARMADILLO_OUTFIT_GUNDAN_ARMADILLO_OUTFIT-26_cls-6{fill:#b2296a;}.GUNDAN_ARMADILLO_OUTFIT_GUNDAN_ARMADILLO_OUTFIT-26_cls-7{fill:#292929;opacity:0.4;}.GUNDAN_ARMADILLO_OUTFIT_GUNDAN_ARMADILLO_OUTFIT-26_cls-12,.GUNDAN_ARMADILLO_OUTFIT_GUNDAN_ARMADILLO_OUTFIT-26_cls-7{mix-blend-mode:multiply;}.GUNDAN_ARMADILLO_OUTFIT_GUNDAN_ARMADILLO_OUTFIT-26_cls-8{clip-path:url(#GUNDAN_ARMADILLO_OUTFIT_GUNDAN_ARMADILLO_OUTFIT-26_clip-path);}.GUNDAN_ARMADILLO_OUTFIT_GUNDAN_ARMADILLO_OUTFIT-26_cls-9{fill:#fff;}.GUNDAN_ARMADILLO_OUTFIT_GUNDAN_ARMADILLO_OUTFIT-26_cls-10{fill:#6f1e2d;}.GUNDAN_ARMADILLO_OUTFIT_GUNDAN_ARMADILLO_OUTFIT-26_cls-11{stroke-width:1.78px;}.GUNDAN_ARMADILLO_OUTFIT_GUNDAN_ARMADILLO_OUTFIT-26_cls-12{opacity:0.22;}</style>
    <clipPath id="clip-path">
      <rect class="GUNDAN_ARMADILLO_OUTFIT_GUNDAN_ARMADILLO_OUTFIT-26_cls-1" x="-5" y="325.87" width="172.55" height="110.77" />
    </clipPath>
  </defs>
  <g class="GUNDAN_ARMADILLO_OUTFIT_GUNDAN_ARMADILLO_OUTFIT-26_cls-2">
    <g id="outfit">
      <path class="GUNDAN_ARMADILLO_OUTFIT_GUNDAN_ARMADILLO_OUTFIT-26_cls-3" d="M173,437.23H66.75s-13.88-7.14-19.34-18.73c6.39-4.85,12-13.2,15.09-21.14a41.81,41.81,0,0,0,2.13-7.15v-.14c5.31.54,17.1,3.52,41.38,16.09,6.58,3.41,12.92,6.57,18.88,9.47C153,429.33,173,437.23,173,437.23Z" />
      <path class="GUNDAN_ARMADILLO_OUTFIT_GUNDAN_ARMADILLO_OUTFIT-26_cls-3" d="M388.21,396.06c-2.75,1.25-6.79,3.32-6.79,3.32a36.78,36.78,0,0,1-1.89-6.36l0-.13c-4.73.49-15.24,3.16-36.84,14.33a681.24,681.24,0,0,1-67.95,30H173s-20-7.9-48.06-21.6c-6-2.9-12.3-6.06-18.88-9.47C81.74,393.59,70,390.61,64.64,390.07v.14a41.81,41.81,0,0,1-2.13,7.15S58,395,54.87,393.63s.19-7.76,5.15-11.87c12.21-11.78,10.6-18.12,10.49-18.5v0c-.31-.43-.61-.87-.92-1.31a1.19,1.19,0,0,1,.75-1.81c7.79-1.61,15.77-5.49,17.68-14.83a338.07,338.07,0,0,0,51,32.52h0C246.55,432.78,331.8,382.54,360.4,353c1.71,8.31,7.11,11.76,14,13.2a1,1,0,0,1,.67,1.6c-.27.39-.53.79-.82,1.17v0c-.1.34-1.53,6,9.35,16.48C388.05,389.16,391,394.81,388.21,396.06Z" />
      <path class="GUNDAN_ARMADILLO_OUTFIT_GUNDAN_ARMADILLO_OUTFIT-26_cls-3" d="M381.42,399.38c2.77,7.07,7.74,14.51,13.44,18.83-4.87,10.33-17.23,16.68-17.23,16.68l-102.91,2.34a681.24,681.24,0,0,0,67.95-30c21.6-11.17,32.11-13.84,36.84-14.33l0,.13A36.78,36.78,0,0,0,381.42,399.38Z" />
      <path class="GUNDAN_ARMADILLO_OUTFIT_GUNDAN_ARMADILLO_OUTFIT-26_cls-4" d="M360.4,353c-28.6,29.51-113.85,79.75-221.39,24.8h0A338.07,338.07,0,0,1,88,345.29l18.33-11.37s11.83,11.93,38.07,25.36c24.07,12.32,57.5,24.14,97.22,24.14,53.69,0,103.25-44.18,103.25-44.18S357.42,346.08,360.4,353Z" />
      <path class="GUNDAN_ARMADILLO_OUTFIT_GUNDAN_ARMADILLO_OUTFIT-26_cls-5" d="M213.45,437.23h61.27l102.91-2.34s12.36-6.35,17.23-16.68c-5.7-4.32-10.67-11.76-13.44-18.83a36.78,36.78,0,0,1-1.89-6.36" />
      <path class="GUNDAN_ARMADILLO_OUTFIT_GUNDAN_ARMADILLO_OUTFIT-26_cls-5" d="M274.72,437.23a681.24,681.24,0,0,0,67.95-30c21.6-11.17,32.11-13.84,36.84-14.33,2.6-.27,3.45.13,3.45.13" />
      <path class="GUNDAN_ARMADILLO_OUTFIT_GUNDAN_ARMADILLO_OUTFIT-26_cls-5" d="M374.29,369c.29-.38.55-.78.82-1.17a1,1,0,0,0-.67-1.6c-6.93-1.44-12.33-4.89-14-13.2" />
      <path class="GUNDAN_ARMADILLO_OUTFIT_GUNDAN_ARMADILLO_OUTFIT-26_cls-5" d="M337,387.41s23.2,1.15,37.27-18.39" />
      <path class="GUNDAN_ARMADILLO_OUTFIT_GUNDAN_ARMADILLO_OUTFIT-26_cls-5" d="M374.29,369v0c-.1.34-1.53,6,9.35,16.48,4.42,3.66,7.33,9.31,4.58,10.56s-6.79,3.32-6.79,3.32" />
      <path class="GUNDAN_ARMADILLO_OUTFIT_GUNDAN_ARMADILLO_OUTFIT-26_cls-5" d="M360.4,427.37s13.65-9.91,30.8-9.08" />
      <path class="GUNDAN_ARMADILLO_OUTFIT_GUNDAN_ARMADILLO_OUTFIT-26_cls-5" d="M213.45,437.23H66.75s-13.88-7.14-19.34-18.73c6.39-4.85,12-13.2,15.09-21.14a41.81,41.81,0,0,0,2.13-7.15" />
      <path class="GUNDAN_ARMADILLO_OUTFIT_GUNDAN_ARMADILLO_OUTFIT-26_cls-5" d="M173,437.23S143.6,425.61,106,406.16C81.74,393.59,70,390.61,64.64,390.07c-2.91-.3-3.87.14-3.87.14" />
      <path class="GUNDAN_ARMADILLO_OUTFIT_GUNDAN_ARMADILLO_OUTFIT-26_cls-5" d="M70.5,363.24c-.31-.43-.61-.87-.92-1.31a1.19,1.19,0,0,1,.75-1.81c7.79-1.61,15.77-5.49,17.68-14.83" />
      <path class="GUNDAN_ARMADILLO_OUTFIT_GUNDAN_ARMADILLO_OUTFIT-26_cls-5" d="M112.37,383.91s-26.06,1.3-41.86-20.65" />
      <path class="GUNDAN_ARMADILLO_OUTFIT_GUNDAN_ARMADILLO_OUTFIT-26_cls-5" d="M70.5,363.24v0c.11.38,1.72,6.72-10.5,18.5-4.95,4.11-8.22,10.46-5.14,11.87s7.63,3.73,7.63,3.73" />
      <path class="GUNDAN_ARMADILLO_OUTFIT_GUNDAN_ARMADILLO_OUTFIT-26_cls-5" d="M86.11,428.78s-15.34-11.12-34.59-10.19" />
      <path class="GUNDAN_ARMADILLO_OUTFIT_GUNDAN_ARMADILLO_OUTFIT-26_cls-5" d="M88,345.29l18.33-11.37s52.27,49.5,135.29,49.5c53.69,0,103.25-44.18,103.25-44.18s12.54,6.84,15.52,13.79C327.46,387,222.1,447.75,88,345.29" />
      <path class="GUNDAN_ARMADILLO_OUTFIT_GUNDAN_ARMADILLO_OUTFIT-26_cls-5" d="M144.4,395.14A85.41,85.41,0,0,1,178.82,411q3.78,2.89,7.05,5.06c12.49,8.26,19.47,9.14,19.47,9.14" />
      <path class="GUNDAN_ARMADILLO_OUTFIT_GUNDAN_ARMADILLO_OUTFIT-26_cls-5" d="M154.06,411.56s18.12-1.64,31.81,4.51" />
      <path class="GUNDAN_ARMADILLO_OUTFIT_GUNDAN_ARMADILLO_OUTFIT-26_cls-5" d="M286.71,421.71s31-20.15,51.47-21.65" />
      <path class="GUNDAN_ARMADILLO_OUTFIT_GUNDAN_ARMADILLO_OUTFIT-26_cls-6" d="M247.94,403.85s-2.27,8.21-3.6,14a3.71,3.71,0,0,0-1.36-.41,4.71,4.71,0,0,0-1.66.1,41.16,41.16,0,0,1,2.16-9.79,26,26,0,0,0,4.45-3.86Z" />
      <path class="GUNDAN_ARMADILLO_OUTFIT_GUNDAN_ARMADILLO_OUTFIT-26_cls-6" d="M260.24,416.31a3.77,3.77,0,0,0-1.29.57c-1.89-5.11-4.83-12.2-5.27-13.25a25.6,25.6,0,0,0,4.89,3.2,41.81,41.81,0,0,1,3.34,9.36A4.64,4.64,0,0,0,260.24,416.31Z" />
      <path class="GUNDAN_ARMADILLO_OUTFIT_GUNDAN_ARMADILLO_OUTFIT-26_cls-6" d="M261.91,416.19c2,.23,4.32,1.74,5.85,5.14a108.33,108.33,0,0,1,5.35,15.78s-6.18,3.88-12.31,2.09c-.65-7.8-3.78-16.36-3.27-20.06a3.3,3.3,0,0,1,1.42-2.26,3.77,3.77,0,0,1,1.29-.57A4.64,4.64,0,0,1,261.91,416.19Z" />
      <path class="GUNDAN_ARMADILLO_OUTFIT_GUNDAN_ARMADILLO_OUTFIT-26_cls-6" d="M279.81,396.77c-1.5-5.36-6-9.85-13.73-10.6-8.79-.84-12.23,1.87-12.23,1.87a8.34,8.34,0,0,0-8.2.52s-3.76-2.26-12.37-.31C225.69,390,221.81,395,221,400.5s4.25,10.87,11.31,10.9a19.74,19.74,0,0,0,11.17-3.69,26,26,0,0,0,4.45-3.86h0c.51-.57.78-.92.78-.92a7.92,7.92,0,0,0,2,.29,9.17,9.17,0,0,0,1.93-.53,13.44,13.44,0,0,0,1.06.94,25.6,25.6,0,0,0,4.89,3.2A19.56,19.56,0,0,0,270,409C277,408.09,281.32,402.12,279.81,396.77Zm-43.6,8.6c-5.22,2.23-11.4-1.68-8-7.12s10.35-6,15.57-5.46a11.82,11.82,0,0,0,.86,6.92A35.69,35.69,0,0,1,236.21,405.37Zm29.13-1.85a35.44,35.44,0,0,1-9.12-4.54,11.86,11.86,0,0,0,0-7c5.11-1.18,12-1.51,16.13,3.45S270.8,405.08,265.34,403.52Z" />
      <path class="GUNDAN_ARMADILLO_OUTFIT_GUNDAN_ARMADILLO_OUTFIT-26_cls-6" d="M244.34,417.81a3.25,3.25,0,0,1,1.7,2.06c1,3.61-1,12.5-.72,20.31-5.84,2.55-12.46-.52-12.46-.52a107.2,107.2,0,0,1,3.31-16.32c1.09-3.59,3.17-5.37,5.15-5.84a4.71,4.71,0,0,1,1.66-.1A3.71,3.71,0,0,1,244.34,417.81Z" />
      <path class="GUNDAN_ARMADILLO_OUTFIT_GUNDAN_ARMADILLO_OUTFIT-26_cls-5" d="M249.68,387.22a7.14,7.14,0,0,0-4,1.34,3.86,3.86,0,0,0-.88,1,9.48,9.48,0,0,0-1,3.23,11.82,11.82,0,0,0,.86,6.92,6.13,6.13,0,0,0,4,3.22,7.92,7.92,0,0,0,2,.29" />
      <path class="GUNDAN_ARMADILLO_OUTFIT_GUNDAN_ARMADILLO_OUTFIT-26_cls-5" d="M247.94,403.85c.51-.57.78-.92.78-.92" />
      <path class="GUNDAN_ARMADILLO_OUTFIT_GUNDAN_ARMADILLO_OUTFIT-26_cls-5" d="M245.65,388.56s-3.76-2.26-12.37-.31C225.69,390,221.81,395,221,400.5s4.25,10.87,11.31,10.9a19.74,19.74,0,0,0,11.17-3.69,26,26,0,0,0,4.45-3.86" />
      <path class="GUNDAN_ARMADILLO_OUTFIT_GUNDAN_ARMADILLO_OUTFIT-26_cls-5" d="M243.82,392.79c-5.22-.53-12.14,0-15.57,5.46s2.74,9.35,8,7.12a35.69,35.69,0,0,0,8.47-5.66" />
      <path class="GUNDAN_ARMADILLO_OUTFIT_GUNDAN_ARMADILLO_OUTFIT-26_cls-5" d="M249.68,387.22a7.19,7.19,0,0,1,4.17.82,3.81,3.81,0,0,1,1,.89A9.25,9.25,0,0,1,256.2,392a11.86,11.86,0,0,1,0,7,6.16,6.16,0,0,1-3.6,3.71,9.17,9.17,0,0,1-1.93.53" />
      <path class="GUNDAN_ARMADILLO_OUTFIT_GUNDAN_ARMADILLO_OUTFIT-26_cls-5" d="M253.85,388s3.44-2.71,12.23-1.87c7.74.75,12.23,5.24,13.73,10.6S277,408.09,270,409a19.56,19.56,0,0,1-11.4-2.18,25.6,25.6,0,0,1-4.89-3.2,13.44,13.44,0,0,1-1.06-.94" />
      <path class="GUNDAN_ARMADILLO_OUTFIT_GUNDAN_ARMADILLO_OUTFIT-26_cls-5" d="M256.2,392c5.11-1.18,12-1.51,16.13,3.45s-1.53,9.63-7,8.07a35.44,35.44,0,0,1-9.12-4.54" />
      <path class="GUNDAN_ARMADILLO_OUTFIT_GUNDAN_ARMADILLO_OUTFIT-26_cls-5" d="M241.32,417.5c-2,.47-4.06,2.25-5.15,5.84a107.2,107.2,0,0,0-3.31,16.32s6.62,3.07,12.46.52c-.33-7.81,1.7-16.7.72-20.31a3.25,3.25,0,0,0-1.7-2.06,3.71,3.71,0,0,0-1.36-.41A4.71,4.71,0,0,0,241.32,417.5Z" />
      <path class="GUNDAN_ARMADILLO_OUTFIT_GUNDAN_ARMADILLO_OUTFIT-26_cls-5" d="M244.34,417.81c1.33-5.75,3.6-14,3.6-14h0" />
      <path class="GUNDAN_ARMADILLO_OUTFIT_GUNDAN_ARMADILLO_OUTFIT-26_cls-5" d="M243.48,407.71a41.16,41.16,0,0,0-2.16,9.79h0" />
      <path class="GUNDAN_ARMADILLO_OUTFIT_GUNDAN_ARMADILLO_OUTFIT-26_cls-5" d="M261.91,416.19c2,.23,4.32,1.74,5.85,5.14a108.33,108.33,0,0,1,5.35,15.78s-6.18,3.88-12.31,2.09c-.65-7.8-3.78-16.36-3.27-20.06a3.3,3.3,0,0,1,1.42-2.26,3.77,3.77,0,0,1,1.29-.57A4.64,4.64,0,0,1,261.91,416.19Z" />
      <path class="GUNDAN_ARMADILLO_OUTFIT_GUNDAN_ARMADILLO_OUTFIT-26_cls-5" d="M259,416.88c-1.89-5.11-4.83-12.2-5.27-13.25" />
      <path class="GUNDAN_ARMADILLO_OUTFIT_GUNDAN_ARMADILLO_OUTFIT-26_cls-5" d="M258.57,406.83a41.81,41.81,0,0,1,3.34,9.36h0" />
      <path class="GUNDAN_ARMADILLO_OUTFIT_GUNDAN_ARMADILLO_OUTFIT-26_cls-5" d="M238,432.58s.25-9.66,5-15.18a38.38,38.38,0,0,1-.95,11.24" />
      <path class="GUNDAN_ARMADILLO_OUTFIT_GUNDAN_ARMADILLO_OUTFIT-26_cls-5" d="M262.75,430.56s-3.18-10.5-2.51-14.25a27.34,27.34,0,0,1,4.37,8.52" />
      <path class="GUNDAN_ARMADILLO_OUTFIT_GUNDAN_ARMADILLO_OUTFIT-26_cls-7" d="M181.63,414.44c-10.29-7.32-43-15.09-51.2-6.73a47.52,47.52,0,0,0-5.53,7.92,86.66,86.66,0,0,0-8.18,21.6h-50s-13.88-7.14-19.34-18.73c6.39-4.85,12-13.2,15.09-21.14,0,0-4.54-2.32-7.63-3.73s.19-7.76,5.15-11.87c12.21-11.78,10.6-18.12,10.49-18.5v0c-.31-.43-.61-.87-.92-1.31a1.19,1.19,0,0,1,.75-1.81c7.79-1.61,15.77-5.49,17.68-14.83l18.33-11.37s11.83,11.93,38.07,25.36h0c-14.17,5.35-5.69,18.09-5.4,18.54h0c-.82-.25-11.3-3.11-2.33,13.46C149.28,392.5,156.61,393.57,181.63,414.44Z" />
      <g class="GUNDAN_ARMADILLO_OUTFIT_GUNDAN_ARMADILLO_OUTFIT-26_cls-8">
        <path class="GUNDAN_ARMADILLO_OUTFIT_GUNDAN_ARMADILLO_OUTFIT-26_cls-6" d="M79.53,364.53c0,1.27,0,2.53.13,3.75a46.85,46.85,0,0,0,3.61,15.53,29.26,29.26,0,0,0,5.53,8.57l.22.2a17.82,17.82,0,0,0,2.43,2.06,13.46,13.46,0,0,0,4.46,2.1h0a11.74,11.74,0,0,0,2.94.38h.31a9.07,9.07,0,0,0,.91-.06,12.94,12.94,0,0,0,5.45-1.92l.77-.51a.5.5,0,0,0,0-.12,22.34,22.34,0,0,0-.54-2.44c.22-1.2.5-2.65.83-4.39,1.5-7.83-4.37-7.27-9.15-20a28.76,28.76,0,0,1-.65-19.4s1.41-8.84,3.1-11.64c-1.29-2.95-5.09-.9-5.09-.9L93.55,341c.31-2.26.59-4.15.78-5.37a11.27,11.27,0,0,0-4.8.34c-5.33,4.95-9.13,14-9.87,24.71C79.57,362,79.53,363.23,79.53,364.53Z" />
        <path class="GUNDAN_ARMADILLO_OUTFIT_GUNDAN_ARMADILLO_OUTFIT-26_cls-9" d="M115.05,402.42a1.42,1.42,0,0,0-.08-.18,1.14,1.14,0,0,0-.1-.19l-.11-.13,0,0s0,0,0,0l0,0s0,0,0,0l-.08-.09a.75.75,0,0,0-.16-.15l-1-.82-.25-.2h0l-.53-.41h0c-1-.82-2.34-1.8-3.7-2.75l-.82-.58-.82-.55c-.26-.2-.53-.37-.8-.54l-.31-.19-.17-.11-.16-.1-.31-.18a2.49,2.49,0,0,0-.32-.2h0l-.4-.25a12.75,12.75,0,0,0-2.51-1.15l-.14,0c-.68-.19-1.49-.42-2.41-.59l-.62-.1-.4-.06h0l-.15,0-.7-.06-.51,0h-.16l-.39,0a2.77,2.77,0,0,0-.41,0l-.47.05h-.15c-.2,0-.42.06-.62.11h0q-.3.06-.6.15a5.64,5.64,0,0,0-.62.21h0a7.61,7.61,0,0,0-1,.47l-.21.11,0,0-.19.13-.34.22,0,0c-.2.14-.4.29-.59.45s-.31.28-.47.43a11.24,11.24,0,0,0-.92,1,11.81,11.81,0,0,0-.83,1.2,8.46,8.46,0,0,0-.57,1.18,6.93,6.93,0,0,0-.41,3.9c0,.19.08.39.13.57s.11.37.17.56.1.3.16.45l0,.08a3.54,3.54,0,0,0,.16.34c0,.06,0,.11.07.16s.17.32.25.47.38.58.57.84a8.49,8.49,0,0,0,.58.68,4,4,0,0,0,.3.28,1,1,0,0,0,.19.16c.52.37,3.51,2.48,6.82,4.4a38.89,38.89,0,0,0,5,2.52l.69.24.38.13a2.71,2.71,0,0,0,.41.09,2.83,2.83,0,0,0,.41,0,2.91,2.91,0,0,0,1-.17,2.63,2.63,0,0,0,.73-.42l.19-.2,3.71-4.27c0-.09-.09-.18-.12-.27a2.32,2.32,0,0,0,.88-.59l0,0,.06-.09,3.63-4.16h0a1.65,1.65,0,0,0,.19-.27l.14-.28a1.55,1.55,0,0,0,.11-.79A2.24,2.24,0,0,0,115.05,402.42ZM103.84,410l-.26-.12-.26-.13h0l-1-.53c-.35-.17-.72-.37-1.08-.57l-.73-.43h0l-.57-.33-1.11-.66-.54-.34h0l-.64-.39L95.31,405,94,404.08a4.62,4.62,0,0,1-.41-.49l0-.07a4.91,4.91,0,0,1-.27-.47,1.14,1.14,0,0,1-.1-.19l0-.07-.12-.3a1.85,1.85,0,0,1-.11-.31,3.26,3.26,0,0,1-.12-.65,3.69,3.69,0,0,1,.08-1.22A1.22,1.22,0,0,1,93,400c0-.1.07-.21.11-.32a5,5,0,0,1,.3-.62c.06-.11.13-.22.2-.33a5.3,5.3,0,0,1,.36-.51,4.73,4.73,0,0,1,1.61-1.34,1.92,1.92,0,0,1,.33-.14h0a6,6,0,0,1,3.3.09l.69.18c.24.06.5.12.75.2l.11,0h0a19.26,19.26,0,0,1,3.76,2.19l1,.71c.68.49,1.4,1,2.12,1.55s1.36,1,2,1.53h0l-.06.06-1.1,1.26-3.77-2.2-.53-.32-.06,0a2.76,2.76,0,0,0-2.42-.15l-.31.15a2.69,2.69,0,0,0-.27.2,1.72,1.72,0,0,0-.27.27h0a1.68,1.68,0,0,0-.42,1.12,1.88,1.88,0,0,0,1,1.6l2.24,1.31,2.09,1.23Zm-2.92-7.52a1.68,1.68,0,0,0-.42,1.12,1.71,1.71,0,0,1,.43-1.12Z" />
        <path class="GUNDAN_ARMADILLO_OUTFIT_GUNDAN_ARMADILLO_OUTFIT-26_cls-4" d="M16,347.87l-.64,2.74a49.5,49.5,0,0,1,3.55,6.49,22.42,22.42,0,0,1,1.15,5.61h0c3,.61,8.52,1.85,9,2.82s-5.08,3.18-8.29,4.36c.43,4.63.91,9,1.8,10.52a76.39,76.39,0,0,0,7.57,10.07c2.82-1.17,7.59-3,8.68-2.58s-1.72,5.81-3.17,8.32c.26.27.55.54.84.81,4.35,4,11.4,6.67,20.07,9.57,1.82-2.17,4.71-5.38,5.87-5.41s1.74,5.06,1.94,8c2.71.91-8.24,1.87-5.34,2.92a75.39,75.39,0,0,0,19.13,4.6c.89-2.52,2.53-6.72,3.67-7.07s3.59,4.35,4.88,7.08c1.87-.15,3.64-.39,5.36-.67a6.32,6.32,0,0,0,5.59-4.71c-3.32-1.91-6.3-4-6.82-4.4a1.56,1.56,0,0,1-.2-.16,8.09,8.09,0,0,1-2.12-3.3,56,56,0,0,1-9.61.83A54.51,54.51,0,0,1,57.47,400c-11.65-5.05-6.22-13.9-13.58-21.72-3.41-3.62-7-7.37-9.54-11.67-3-5-4.19-10.07-3.42-14.63a14.73,14.73,0,0,1,.72-2.7c-2.84-.08-5.38-.25-7.56-.49Q19.47,348.29,16,347.87Z" />
        <path class="GUNDAN_ARMADILLO_OUTFIT_GUNDAN_ARMADILLO_OUTFIT-26_cls-4" d="M77.35,352.86a20,20,0,0,0,2.31,7.83c2.11,3.68,5,4.83,6.49,4.11,2.25-1.12,2.57-7.76-2-9.81,3.44.88,6.43,5.44,6.78,9.52l.93-.06c0-.25-.05-.5-.06-.76-.36-5.64.81-15.86,1.74-22.68.31-2.26.59-4.15.78-5.37a11.27,11.27,0,0,0-4.8.34,14.28,14.28,0,0,0-2.67,1.07c-.16.13-.33.25-.5.37a6.76,6.76,0,0,1-1.52.86S76.32,343.06,77.35,352.86Z" />
        <path class="GUNDAN_ARMADILLO_OUTFIT_GUNDAN_ARMADILLO_OUTFIT-26_cls-6" d="M86.36,337.42s-8.33-1.86-14.21,3.46C68.89,352,70,359.1,79,367.4s14.68.73,11-6.58c-1.72-4.34-2.72-4.06-2.72-4.06s2.27,7.33-2.09,8.24S74.3,353,79,345.06A31.84,31.84,0,0,1,86.36,337.42Z" />
        <path class="GUNDAN_ARMADILLO_OUTFIT_GUNDAN_ARMADILLO_OUTFIT-26_cls-10" d="M104.25,402c.06-.49.12-.94.17-1.37a6.2,6.2,0,0,1,1.15-.51c.69.49,1.4,1,2.13,1.55l2,1.53-1.16,1.33Z" />
        <path class="GUNDAN_ARMADILLO_OUTFIT_GUNDAN_ARMADILLO_OUTFIT-26_cls-10" d="M103.73,406.48l2.08,1.23-2,2.26-.52-.25C103.46,408.66,103.6,407.57,103.73,406.48Z" />
        <path class="GUNDAN_ARMADILLO_OUTFIT_GUNDAN_ARMADILLO_OUTFIT-26_cls-10" d="M264.29,481.24c-1,3.05-4.16,5.11-7.73,5.35-.25,0-.49,0-.74,0a11,11,0,0,1-2.33-.26c-.45-.1-2.18-.51-5-1.25a429.27,429.27,0,0,1-69.91-25.74h0c-4.71-2.21-9.55-4.58-14.46-7.12-5.54-2.84-10.08-5.89-15.74-9.17h0c-1.7-1-3.38-2-5.08-3h0c-.82-.49-1.65-1-2.46-1.48s-1.35-.81-2-1.24c-1.67-1-3.32-2.06-5-3.12l-2-1.26-.85-.56-1.91-1.26q-2.37-1.56-4.73-3.17l-2.18-1.5-2.54-1.78c-1.12-.8-2.24-1.6-3.35-2.41l-2.68-2-2.67-2c-1.78-1.35-3.55-2.73-5.31-4.12a2.63,2.63,0,0,0,.73-.42l.19-.2,3.71-4.27.76-.86,0,0,.06-.09,3.63-4.16h0a1.71,1.71,0,0,0,.2-.27l.14-.28a1.55,1.55,0,0,0,.11-.79,2.24,2.24,0,0,0-.1-.37,1.42,1.42,0,0,0-.08-.18,1.14,1.14,0,0,0-.1-.19l-.11-.13,0,0,0-.05s0,0,0,0l-.08-.09a.75.75,0,0,0-.16-.15l-1-.82-.25-.2h0l-.53-.41a8.48,8.48,0,0,1,2.58,1.43c3,2.43,6,4.79,9.09,7.07q8.28,6.19,16.72,11.68c.89.6,1.79,1.17,2.68,1.74,5.42,3.47,10.87,6.74,16.25,9.8,3.16,1.8,5.19,3.52,8.31,5.16h0q6.38,3.4,12.6,6.41a430,430,0,0,0,66.78,26c3.54,1,6.28,1.77,8.07,2.22,1.51.4,2.35.6,2.44.62C262.82,473.32,265.58,477.34,264.29,481.24Z" />
        <path class="GUNDAN_ARMADILLO_OUTFIT_GUNDAN_ARMADILLO_OUTFIT-26_cls-6" d="M98.23,406.86a52.72,52.72,0,0,1,.14-5.54c.17-1.14.52-2.67.84-4.49l1.45.38.14,0a19.48,19.48,0,0,1,3.76,2.2l1,.7a6.2,6.2,0,0,0-1.15.51c0,.43-.11.88-.17,1.37l-.06,0a2.65,2.65,0,0,0-3.26.46,1.75,1.75,0,0,0,.56,2.72l2.24,1.32c-.13,1.09-.27,2.18-.41,3.24-.91-.43-1.88-1-2.86-1.52C99.71,407.76,99,407.3,98.23,406.86Z" />
        <path class="GUNDAN_ARMADILLO_OUTFIT_GUNDAN_ARMADILLO_OUTFIT-26_cls-6" d="M84.62,384.23c8.67,2.66,11.57,8.16,11.72,8.44a8.47,8.47,0,0,0-5.36,2.4c-5.71-9-16.5-6.23-24.17-12s-6.15-16.12.5-21.66C60.46,374.17,75.71,381.5,84.62,384.23Z" />
        <path class="GUNDAN_ARMADILLO_OUTFIT_GUNDAN_ARMADILLO_OUTFIT-26_cls-6" d="M102.73,413.86a30.69,30.69,0,0,1-.68,3.38c-.21.71-1.51,1.57-3.48,2.45a72.72,72.72,0,0,1-18.12,4.68l-1.21.13c-.69.08-1.37.13-2,.17l-.54,0a29.15,29.15,0,0,1-4.92-.09,19.72,19.72,0,0,1-3.32-.73c-4.59-1.37-9.81-4.25-15.2-6.87-5.15-2.5,3.34-4.75-1.7-5.18-11.6-1-12.69-1.27-16.24-4.69-.24-.24-.49-.48-.75-.75-2.28-2.31-5.65-6.07-9.25-9.85h0c-2.33-2.45-4.76-4.91-7.07-7l-.19-.19a17.67,17.67,0,0,1-3.69-5.72v0a.21.21,0,0,0,0-.07c-2.41-5.44-4-12.82-5.21-18.8-.11-.55-.22-1.08-.32-1.59-.17-.78-.32-1.53-.47-2.24-.09-.47-.19-.92-.29-1.35,0-.23-.1-.44-.14-.64-.09-.41-.18-.81-.27-1.17s-.12-.48-.19-.71c-.11-.47-.22-.92-.32-1.36-.25-1.08-.47-2.08-.65-3a55.07,55.07,0,0,1-1-6.33h0l.12,0,.34.05.33,0,.19,0,.45.07c1.63.25,4.67.69,9.15,1.24l-.65,2.74s.44.66,1.11,1.8c.16.28.34.59.53.94.1.17.2.34.3.53.29.55.61,1.16.94,1.82.23.45.45.91.67,1.4a22.52,22.52,0,0,1,1.15,5.61h0l.59.12c.41.08.85.18,1.31.29l1.43.32c.71.17,1.44.35,2.12.54a15,15,0,0,1,3.16,1.17,1,1,0,0,1,.41.38.28.28,0,0,1,0,.22.21.21,0,0,1,0,.1A.41.41,0,0,1,29,366a1.74,1.74,0,0,1-.19.22,5.88,5.88,0,0,1-.63.45l-.26.17-.35.2-.17.1-.09,0c-.64.34-1.39.69-2.19,1l-.24.11-.37.15L23,369l-.67.27c-.56.22-1.09.41-1.58.59.12,1.16.22,2.3.34,3.38.06.54.12,1.08.19,1.58,0,.26.07.52.1.76.1.72.21,1.41.33,2,.08.42.16.8.25,1.14a8.91,8.91,0,0,0,.29.94,4.54,4.54,0,0,0,.31.69,75.49,75.49,0,0,0,7.57,10.07c2.82-1.17,7.59-3,8.68-2.58s-1.72,5.81-3.17,8.32c.27.27.55.54.84.8.45.41.91.8,1.4,1.17,4.39,3.38,10.87,5.8,18.67,8.41.59-.71,1.31-1.54,2-2.33l1.09-1.13,0,0c.35-.33.69-.63,1-.91L61,402a5.37,5.37,0,0,1,.55-.4h0l.13-.08.07,0,.22-.11.07,0,.1,0a.85.85,0,0,1,.26-.05l.15,0,.09,0a.41.41,0,0,1,.11.07l.08.07,0,0a.69.69,0,0,1,.11.13l0,.09,0,0a1.58,1.58,0,0,1,.13.26l0,.09s0,0,0,0a.65.65,0,0,1,.07.21.25.25,0,0,1,0,.07l0,.11a3.65,3.65,0,0,1,.15.5l.06.26c0,.17.09.36.13.54.15.7.27,1.49.36,2.28l0,.32c0,.11,0,.22,0,.34s0,.24,0,.37,0,.21,0,.3,0,.32,0,.48c0,.47.07.93.1,1.33.43.14.52.29.36.44a.47.47,0,0,1-.2.14,2.35,2.35,0,0,1-.49.2l-.21.07-.74.2-1.13.28c-.39.09-.79.18-1.16.28l-.28.07L60,411c-1.25.35-2,.71-1,1.1a89.94,89.94,0,0,0,12,3.49,56.42,56.42,0,0,0,7.17,1.1h0c.89-2.51,2.53-6.7,3.67-7.05.37-.12.84.25,1.36.89a1.46,1.46,0,0,1,.16.19,38.07,38.07,0,0,1,3.35,6c1.88-.14,3.65-.38,5.37-.65a9.77,9.77,0,0,0,1.18-.26,8.66,8.66,0,0,0,1.47-.61c.14-.08.28-.16.41-.25a4.21,4.21,0,0,0,.74-.58,6.51,6.51,0,0,0,1.79-3A38.89,38.89,0,0,0,102.73,413.86Z" />
        <path class="GUNDAN_ARMADILLO_OUTFIT_GUNDAN_ARMADILLO_OUTFIT-26_cls-6" d="M88.66,398.45a7.06,7.06,0,0,0-.12,5,56,56,0,0,1-9.61.83A54.51,54.51,0,0,1,57.47,400c-11.65-5.05-6.22-13.9-13.58-21.72-3.41-3.62-7-7.37-9.54-11.67-3-5-4.19-10.07-3.42-14.63a14.73,14.73,0,0,1,.72-2.7c1.94.06,4,.08,6.21.05a11.11,11.11,0,0,0-1.13,3.33c-.76,4.52,1.14,8.89,2.86,11.77,2.33,3.86,5.67,7.41,8.9,10.85,7,7.41,1.16,15.82,11.69,20.39A48.52,48.52,0,0,0,88.66,398.45Z" />
        <path class="GUNDAN_ARMADILLO_OUTFIT_GUNDAN_ARMADILLO_OUTFIT-26_cls-4" d="M94,398.24c1.5-1.88,3-1.94,5.24-1.41-.32,1.82-.67,3.35-.84,4.49a52.72,52.72,0,0,0-.14,5.54c-1.73-1.08-3.28-2.13-4.18-2.78a4.31,4.31,0,0,1-1-1.59,4,4,0,0,1,.55-3.76A5.25,5.25,0,0,1,94,398.24Z" />
        <path class="GUNDAN_ARMADILLO_OUTFIT_GUNDAN_ARMADILLO_OUTFIT-26_cls-4" d="M36.73,352.66a11.11,11.11,0,0,1,1.13-3.33c13.1-.18,15.87-2.17,28-7.7l3.47-.36h0c1.75-.17,2.94-.31,2.94-.31s-3.14,8.59-1.4,14.38,10.34,18.16,16.84,15.36c2.57-1.1,3.44-3.54,3.2-6.19l.93-.05c.46,4.46,1.52,8.69,3.63,11.63a24.29,24.29,0,0,1,4.23,16.83,13.26,13.26,0,0,0-3.39-.24c-.15-.28-3-5.78-11.72-8.44-8.91-2.73-24.16-10.06-17.31-22.85-6.65,5.54-8.19,15.87-.5,21.66s18.46,3,24.17,12a11.24,11.24,0,0,0-.92,1,9.17,9.17,0,0,0-1.4,2.38,48.52,48.52,0,0,1-28.48-2.78c-10.53-4.57-4.69-13-11.69-20.39-3.23-3.44-6.57-7-8.9-10.85C37.87,361.55,36,357.18,36.73,352.66Z" />
        <path class="GUNDAN_ARMADILLO_OUTFIT_GUNDAN_ARMADILLO_OUTFIT-26_cls-11" d="M112.61,400.14h0a8.48,8.48,0,0,1,2.58,1.43c3,2.43,6,4.79,9.09,7.07q8.28,6.19,16.72,11.68c.89.6,1.79,1.17,2.68,1.74,5.42,3.47,10.87,6.74,16.25,9.8,3.16,1.8,5.19,3.52,8.31,5.16" />
        <path class="GUNDAN_ARMADILLO_OUTFIT_GUNDAN_ARMADILLO_OUTFIT-26_cls-11" d="M143.23,440.05l-2.46-1.48c-.67-.41-1.34-.81-2-1.24-1.67-1-3.32-2.06-5-3.12l-2-1.26-.85-.56-1.91-1.26q-2.37-1.56-4.73-3.17l-2.18-1.5-2.54-1.78c-1.12-.8-2.24-1.59-3.35-2.41-.89-.65-1.79-1.3-2.68-2l-2.67-2c-1.78-1.35-3.55-2.73-5.31-4.12" />
        <path class="GUNDAN_ARMADILLO_OUTFIT_GUNDAN_ARMADILLO_OUTFIT-26_cls-11" d="M104.42,400.65a6.2,6.2,0,0,1,1.15-.51" />
        <path class="GUNDAN_ARMADILLO_OUTFIT_GUNDAN_ARMADILLO_OUTFIT-26_cls-11" d="M103.32,409.72c.14-1.06.28-2.15.41-3.24" />
        <path class="GUNDAN_ARMADILLO_OUTFIT_GUNDAN_ARMADILLO_OUTFIT-26_cls-11" d="M69.36,341.26c1.75-.17,2.94-.31,2.94-.31a11.58,11.58,0,0,1,4.64-2.84,31.52,31.52,0,0,1,9.37-.77" />
        <path class="GUNDAN_ARMADILLO_OUTFIT_GUNDAN_ARMADILLO_OUTFIT-26_cls-11" d="M37.86,349.33c13.1-.18,15.87-2.17,28-7.7l3.47-.36" />
        <path class="GUNDAN_ARMADILLO_OUTFIT_GUNDAN_ARMADILLO_OUTFIT-26_cls-11" d="M14.32,383.63a.36.36,0,0,0,0-.07c-3.5-7.92-5.26-19.92-6.71-25.79A77.69,77.69,0,0,1,5.39,346.4S8.83,347,16,347.87q3.46.42,8.09.92c2.18.24,4.72.41,7.56.49" />
        <path class="GUNDAN_ARMADILLO_OUTFIT_GUNDAN_ARMADILLO_OUTFIT-26_cls-11" d="M102.73,413.86a30.69,30.69,0,0,1-.68,3.38c-.21.71-1.51,1.57-3.48,2.45a72.72,72.72,0,0,1-18.12,4.68l-1.21.13c-.69.08-1.37.13-2,.17l-.54,0a29.15,29.15,0,0,1-4.92-.09,19.72,19.72,0,0,1-3.32-.73c-4.59-1.37-9.81-4.25-15.2-6.87-5.15-2.5,3.34-4.75-1.7-5.18-11.6-1-12.69-1.27-16.24-4.69-.24-.24-.49-.48-.75-.75-2.28-2.31-5.65-6.07-9.25-9.85h0c-2.33-2.45-4.76-4.91-7.07-7l-.19-.19a17.67,17.67,0,0,1-3.69-5.72" />
        <path class="GUNDAN_ARMADILLO_OUTFIT_GUNDAN_ARMADILLO_OUTFIT-26_cls-11" d="M104.25,402c.06-.49.12-.94.17-1.37" />
        <path class="GUNDAN_ARMADILLO_OUTFIT_GUNDAN_ARMADILLO_OUTFIT-26_cls-11" d="M105.19,394.94h0c.14-.73.32-1.68.54-2.87s.5-2.65.84-4.39c1.49-7.84-4.38-7.27-9.16-20a28.8,28.8,0,0,1-.65-19.39.65.65,0,0,0,0-.1c.16-1,1.5-8.92,3.08-11.54-1.29-3-5.09-.9-5.09-.9L93.55,341l-.82,3.57A98.59,98.59,0,0,0,91.64,356h0a68,68,0,0,0,.16,7.67c0,.26,0,.5.07.76.46,4.46,1.52,8.69,3.63,11.62a24.34,24.34,0,0,1,4.23,16.84" />
        <path class="GUNDAN_ARMADILLO_OUTFIT_GUNDAN_ARMADILLO_OUTFIT-26_cls-11" d="M20.06,362.71a22.42,22.42,0,0,0-1.15-5.61,49.5,49.5,0,0,0-3.55-6.49l.64-2.74" />
        <path class="GUNDAN_ARMADILLO_OUTFIT_GUNDAN_ARMADILLO_OUTFIT-26_cls-11" d="M30.16,390.49a76.39,76.39,0,0,1-7.57-10.07c-.89-1.5-1.37-5.89-1.8-10.52" />
        <path class="GUNDAN_ARMADILLO_OUTFIT_GUNDAN_ARMADILLO_OUTFIT-26_cls-11" d="M78.18,416.71a75.39,75.39,0,0,1-19.13-4.6c-2.9-1.05,8-2,5.34-2.92" />
        <path class="GUNDAN_ARMADILLO_OUTFIT_GUNDAN_ARMADILLO_OUTFIT-26_cls-11" d="M97.68,411.34a6.32,6.32,0,0,1-5.59,4.71c-1.72.28-3.49.52-5.36.67" />
        <path class="GUNDAN_ARMADILLO_OUTFIT_GUNDAN_ARMADILLO_OUTFIT-26_cls-11" d="M99.21,396.83c-.32,1.82-.67,3.35-.84,4.49a52.72,52.72,0,0,0-.14,5.54" />
        <path class="GUNDAN_ARMADILLO_OUTFIT_GUNDAN_ARMADILLO_OUTFIT-26_cls-11" d="M56.58,406.61c-8.67-2.9-15.72-5.57-20.07-9.57-.29-.27-.58-.54-.84-.81" />
        <path class="GUNDAN_ARMADILLO_OUTFIT_GUNDAN_ARMADILLO_OUTFIT-26_cls-11" d="M86.73,416.72c-1.29-2.73-3.71-7.44-4.88-7.08s-2.78,4.55-3.67,7.07" />
        <path class="GUNDAN_ARMADILLO_OUTFIT_GUNDAN_ARMADILLO_OUTFIT-26_cls-11" d="M64.39,409.19c-.2-2.93-.7-8-1.94-8s-4.05,3.24-5.87,5.41" />
        <path class="GUNDAN_ARMADILLO_OUTFIT_GUNDAN_ARMADILLO_OUTFIT-26_cls-11" d="M35.67,396.23c1.45-2.51,4.37-7.82,3.17-8.32s-5.86,1.41-8.68,2.58" />
        <path class="GUNDAN_ARMADILLO_OUTFIT_GUNDAN_ARMADILLO_OUTFIT-26_cls-11" d="M20.06,362.71h0c3,.61,8.52,1.85,9,2.82s-5.08,3.18-8.29,4.36" />
        <line class="GUNDAN_ARMADILLO_OUTFIT_GUNDAN_ARMADILLO_OUTFIT-26_cls-11" x1="69.35" y1="341.27" x2="69.36" y2="341.26" />
        <path class="GUNDAN_ARMADILLO_OUTFIT_GUNDAN_ARMADILLO_OUTFIT-26_cls-11" d="M14.32,383.63v0" />
        <path class="GUNDAN_ARMADILLO_OUTFIT_GUNDAN_ARMADILLO_OUTFIT-26_cls-11" d="M110.1,409c0,.09.08.18.12.27" />
        <path class="GUNDAN_ARMADILLO_OUTFIT_GUNDAN_ARMADILLO_OUTFIT-26_cls-11" d="M106.47,395.72c-.06-.35-.12-.73-.18-1.1a.43.43,0,0,0,0-.12,24.32,24.32,0,0,0-.54-2.44" />
        <path class="GUNDAN_ARMADILLO_OUTFIT_GUNDAN_ARMADILLO_OUTFIT-26_cls-11" d="M88.54,403.48a56,56,0,0,1-9.61.83A54.51,54.51,0,0,1,57.47,400c-11.65-5.05-6.22-13.9-13.58-21.72-3.41-3.62-7-7.37-9.54-11.67-3-5-4.19-10.07-3.42-14.63a14.73,14.73,0,0,1,.72-2.7c1.94.06,4,.08,6.21.05a11.11,11.11,0,0,0-1.13,3.33c-.76,4.52,1.14,8.89,2.86,11.77,2.33,3.86,5.67,7.41,8.9,10.85,7,7.41,1.16,15.82,11.69,20.39a48.52,48.52,0,0,0,28.48,2.78" />
        <path class="GUNDAN_ARMADILLO_OUTFIT_GUNDAN_ARMADILLO_OUTFIT-26_cls-11" d="M111,408.43l-.76.86-3.71,4.27-.19.2a2.63,2.63,0,0,1-.73.42,2.91,2.91,0,0,1-1,.17,2.83,2.83,0,0,1-.41,0l-.41-.08a3.57,3.57,0,0,1-.38-.14l-.69-.24a38.89,38.89,0,0,1-5-2.52c-3.31-1.92-6.3-4-6.82-4.4a1,1,0,0,1-.19-.16,4,4,0,0,1-.3-.28,8.49,8.49,0,0,1-.58-.68q-.29-.39-.57-.84c-.08-.15-.17-.3-.25-.47s0-.1-.07-.16a3.54,3.54,0,0,1-.16-.34l0-.08c-.06-.15-.12-.3-.17-.45s-.11-.37-.16-.56-.09-.38-.13-.57a6.93,6.93,0,0,1,.41-3.9,8.46,8.46,0,0,1,.57-1.18,11.81,11.81,0,0,1,.83-1.2,11.24,11.24,0,0,1,.92-1c.16-.15.31-.3.47-.43a6.12,6.12,0,0,1,.5-.39l.09-.06,0,0,.34-.22.23-.15.21-.11a4.1,4.1,0,0,1,.41-.22s0,0,0,0l.58-.24h0a4.11,4.11,0,0,1,.62-.21q.3-.09.6-.15h0c.2-.05.42-.08.62-.11h.15l.47-.05a2.77,2.77,0,0,1,.41,0l.39,0h.16l.51,0,.7.06.15,0h0l.4.06.62.1c.92.17,1.73.4,2.41.59l.14,0a12.75,12.75,0,0,1,2.51,1.15l.4.24h0l.63.38.16.1.17.11.3.2c.27.17.54.34.81.53l.82.55.82.58c1.36.95,2.66,1.93,3.7,2.75h0l.53.41h0l.25.2,1,.82a.75.75,0,0,1,.16.15l.08.09.06.06s0,0,0,0a1,1,0,0,1,.13.16,1.14,1.14,0,0,1,.1.19,1.42,1.42,0,0,1,.08.18,1.48,1.48,0,0,1,0,1.16l-.14.28a1.71,1.71,0,0,1-.2.27h0l-3.63,4.16" />
        <path class="GUNDAN_ARMADILLO_OUTFIT_GUNDAN_ARMADILLO_OUTFIT-26_cls-11" d="M105.81,407.71l-2,2.26-.52-.25c-.91-.43-1.88-1-2.86-1.52-.75-.44-1.51-.9-2.23-1.34-1.73-1.08-3.28-2.13-4.18-2.78a4.44,4.44,0,0,1-1-1.59,4,4,0,0,1,.55-3.76,5.25,5.25,0,0,1,.37-.49c1.5-1.88,3-1.94,5.24-1.41l1.45.38.14,0a19.48,19.48,0,0,1,3.76,2.2l1,.7c.69.49,1.4,1,2.13,1.55l2,1.53-1.16,1.33" />
        <path class="GUNDAN_ARMADILLO_OUTFIT_GUNDAN_ARMADILLO_OUTFIT-26_cls-11" d="M105.81,407.71l1.93,1.14a2.57,2.57,0,0,0,1.35.35,2.66,2.66,0,0,0,1-.18,2.23,2.23,0,0,0,.88-.6l0,0a.2.2,0,0,0,.06-.07,1.77,1.77,0,0,0-.62-2.65l-1.9-1.11-4.3-2.53-.06,0a2.65,2.65,0,0,0-3.26.46,1.75,1.75,0,0,0,.56,2.72l2.24,1.32Z" />
        <path class="GUNDAN_ARMADILLO_OUTFIT_GUNDAN_ARMADILLO_OUTFIT-26_cls-11" d="M84.84,338.28s-8.52,4.78-7.49,14.58,6.55,13,8.8,11.94,2.57-7.76-2-9.81c3.44.88,6.43,5.44,6.78,9.51.24,2.65-.63,5.09-3.2,6.19-6.5,2.8-15.1-9.56-16.84-15.36S72.3,341,72.3,341" />
        <path class="GUNDAN_ARMADILLO_OUTFIT_GUNDAN_ARMADILLO_OUTFIT-26_cls-11" d="M96.34,392.68h0c-.15-.28-3-5.78-11.72-8.44-8.91-2.73-24.16-10.06-17.31-22.85-6.65,5.54-8.19,15.87-.5,21.66s18.46,3,24.17,12" />
        <g class="GUNDAN_ARMADILLO_OUTFIT_GUNDAN_ARMADILLO_OUTFIT-26_cls-12">
          <path d="M263.8,482.26s-32.43-7-60.49-19.91-93.09-52.63-93.09-52.63L106.1,414s42.24,31.67,73.6,45.34c-23.21-13.27-30.3-21.74-30.3-21.74s42.76,24.35,57.19,31.68,41.88,15.8,41.88,15.8,8.9,2.69,12,.76S263.8,482.26,263.8,482.26Z" />
        </g>
        <path class="GUNDAN_ARMADILLO_OUTFIT_GUNDAN_ARMADILLO_OUTFIT-26_cls-11" d="M84.84,338.28a16.09,16.09,0,0,1,2-1.23,12.1,12.1,0,0,1,7.47-1.41l.44.09" />
        <path class="GUNDAN_ARMADILLO_OUTFIT_GUNDAN_ARMADILLO_OUTFIT-26_cls-7" d="M124.3,408.65l-8,13.62-2.68-2-2.67-2c-1.78-1.35-3.55-2.73-5.31-4.12a2.91,2.91,0,0,1-1,.17,2.83,2.83,0,0,1-.41,0l-.41-.08a3.57,3.57,0,0,1-.38-.14l-.69-.24a30.69,30.69,0,0,1-.68,3.38c-.21.71-1.51,1.57-3.48,2.45a72.72,72.72,0,0,1-18.12,4.68l-1.21.13c-.69.08-1.37.13-2,.17l-.54,0a29.15,29.15,0,0,1-4.92-.09,19.72,19.72,0,0,1-3.32-.73c-4.59-1.37-9.81-4.25-15.2-6.87-5.15-2.5,3.34-4.75-1.7-5.18-11.6-1-12.69-1.27-16.24-4.69-.24-.24-.49-.48-.75-.75-2.28-2.31-5.65-6.07-9.25-9.85a57.05,57.05,0,0,0,12.62,1.65,48.57,48.57,0,0,0,14.21-1.82,47,47,0,0,0,5.63-2,51,51,0,0,0,13.72-8.81,62.57,62.57,0,0,0,4.77-4.74,74.63,74.63,0,0,0,7.62-10l.11-.17a101.46,101.46,0,0,0,5.73-10.36h0s0,0,0,0c.65-1.35,1.3-2.75,1.92-4.19h0c.12-.26.25-.53.36-.8h0c.44-1.06.88-2.14,1.33-3.25q1.77-2.13,3.44-3.78a.65.65,0,0,1,0,.1,28.8,28.8,0,0,0,.65,19.39c4.78,12.74,10.65,12.17,9.16,20-.34,1.74-.62,3.18-.84,4.39a24.32,24.32,0,0,1,.54,2.44.43.43,0,0,1,0,.12c.06.37.12.75.18,1.1.27.17.54.34.8.54l.82.55.82.58c1.36.95,2.66,1.93,3.7,2.75h0a8.48,8.48,0,0,1,2.58,1.43C118.21,404,121.25,406.37,124.3,408.65Z" />
      </g>
    </g>
  </g>
</svg>