<svg id="outfit" xmlns="http://www.w3.org/2000/svg" viewBox="0 0 432 432">
  <defs>
    <style>.GUNDAN_ARMADILLO_OUTFIT_GUNDAN_ARMADILLO_OUTFIT-25_cls-1{fill:#214943;}.GUNDAN_ARMADILLO_OUTFIT_GUNDAN_ARMADILLO_OUTFIT-25_cls-2{fill:#4b7c7d;}.GUNDAN_ARMADILLO_OUTFIT_GUNDAN_ARMADILLO_OUTFIT-25_cls-3{fill:#366664;}.GUNDAN_ARMADILLO_OUTFIT_GUNDAN_ARMADILLO_OUTFIT-25_cls-4,.GUNDAN_ARMADILLO_OUTFIT_GUNDAN_ARMADILLO_OUTFIT-25_cls-5{fill:none;}.GUNDAN_ARMADILLO_OUTFIT_GUNDAN_ARMADILLO_OUTFIT-25_cls-14,.GUNDAN_ARMADILLO_OUTFIT_GUNDAN_ARMADILLO_OUTFIT-25_cls-4,.GUNDAN_ARMADILLO_OUTFIT_GUNDAN_ARMADILLO_OUTFIT-25_cls-5{stroke:#000;stroke-linecap:round;stroke-linejoin:round;}.GUNDAN_ARMADILLO_OUTFIT_GUNDAN_ARMADILLO_OUTFIT-25_cls-14,.GUNDAN_ARMADILLO_OUTFIT_GUNDAN_ARMADILLO_OUTFIT-25_cls-4{stroke-width:1.69px;}.GUNDAN_ARMADILLO_OUTFIT_GUNDAN_ARMADILLO_OUTFIT-25_cls-5{stroke-width:1.64px;}.GUNDAN_ARMADILLO_OUTFIT_GUNDAN_ARMADILLO_OUTFIT-25_cls-6{fill:#515151;}.GUNDAN_ARMADILLO_OUTFIT_GUNDAN_ARMADILLO_OUTFIT-25_cls-7{fill:#ddd;}.GUNDAN_ARMADILLO_OUTFIT_GUNDAN_ARMADILLO_OUTFIT-25_cls-8{fill:#bababa;}.GUNDAN_ARMADILLO_OUTFIT_GUNDAN_ARMADILLO_OUTFIT-25_cls-9{fill:#fff;}.GUNDAN_ARMADILLO_OUTFIT_GUNDAN_ARMADILLO_OUTFIT-25_cls-10{fill:#a8a8a8;}.GUNDAN_ARMADILLO_OUTFIT_GUNDAN_ARMADILLO_OUTFIT-25_cls-11{fill:#a5a5a5;}.GUNDAN_ARMADILLO_OUTFIT_GUNDAN_ARMADILLO_OUTFIT-25_cls-12{fill:#39443d;}.GUNDAN_ARMADILLO_OUTFIT_GUNDAN_ARMADILLO_OUTFIT-25_cls-13{fill:#898989;}.GUNDAN_ARMADILLO_OUTFIT_GUNDAN_ARMADILLO_OUTFIT-25_cls-14{fill:#3384ff;}</style>
  </defs>
  <path class="GUNDAN_ARMADILLO_OUTFIT_GUNDAN_ARMADILLO_OUTFIT-25_cls-1" d="M165.82,232.2s-5.3,36.64-8.23,42.15-10.66-22.12-10.66-22.12Z" />
  <path class="GUNDAN_ARMADILLO_OUTFIT_GUNDAN_ARMADILLO_OUTFIT-25_cls-1" d="M310.52,279.69l-6.5,6.09-12.36,11.56a53.58,53.58,0,0,1-5.56-6c1.11-2,2.2-4.11,3.23-6.17-1.16-10.06-1.79-17.57-1.79-17.57a109.28,109.28,0,0,0,1.6-16.65l1.42,6.37s.77-4.62,1.35-11.2c-.05-.75-.08-1.5-.12-2.26a67.48,67.48,0,0,1,6.6-3.77Z" />
  <path class="GUNDAN_ARMADILLO_OUTFIT_GUNDAN_ARMADILLO_OUTFIT-25_cls-2" d="M223.14,334.46h0l.8.5Zm11,6.37-.51-.27-.1-.05.41.23.2.1.67.35Zm2.95,1.52.08,0,.08,0Zm.23.12h0Zm0,0h0Zm-.15-.07.08,0-.16-.09Zm-3.54-1.84-.1-.05.41.23.2.1.67.35-.67-.36Zm90.61-71.43-.06-.51c0-.14,0-.29-.05-.44s-.06-.42-.1-.63-.13-.69-.21-1c0-.2-.08-.39-.13-.59l-.09-.42c0-.14-.08-.28-.11-.43a50.16,50.16,0,0,0-2-5.77c0-.11-.08-.21-.13-.32-.17-.42-.35-.84-.53-1.27-.12-.28-.24-.56-.37-.84-.37-.85-.77-1.72-1.18-2.62-.18-.39-.36-.79-.55-1.19h0c-.19-.4-.38-.81-.58-1.22-.27-.57-.53-1.14-.81-1.72-.82-1.74-1.7-3.58-2.6-5.52q-.19-.41-.36-.81c-.46-1-.89-2.1-1.29-3.19-.16-.42-.31-.85-.45-1.28q-.34-1-.66-2c-.11-.37-.22-.73-.31-1.1-.22-.75-.43-1.51-.61-2.28-.12-.48-.24-1-.34-1.46-.17-.71-.33-1.43-.46-2.16-.1-.45-.19-.9-.27-1.36-.15-.79-.28-1.6-.41-2.4-.08-.48-.15-1-.22-1.46-.19-1.28-.35-2.56-.49-3.85-.13-1.11-.24-2.21-.34-3.32-.22-2.46-.39-4.92-.52-7.36-.07-1.19-.13-2.37-.18-3.55v-.05c-.05-1.19-.1-2.37-.14-3.54,0-.66-.06-1.31-.08-2,0-1-.07-2-.11-2.93-.1-2.6-.2-5.12-.35-7.52l-.09-1.53c0-.31-.05-.62-.07-.92-2.66.33-5.35.46-8,.65a69.23,69.23,0,0,1-6.24-13.6A64.3,64.3,0,0,1,289.94,163a52.73,52.73,0,0,0,8.93-1.8c-.21-.33-.38-.56-.48-.71l-.13-.17C286.78,146,277,137.13,267.17,131.94h0c-14.15-7.5-28.29-7.35-47.42-5.08-31.94,3.8-53.7,35-54.29,35.89l.38.05a63.48,63.48,0,0,0,9.93.57,58.52,58.52,0,0,1-4.37,11.34,65.92,65.92,0,0,1-5,8.31c-1.11,1.59-2.34,3.21-3.7,4.84-.45.54-.92,1.08-1.4,1.63l-.27,0c-1.3-.13-2.6-.23-3.9-.31-1.41,2.14-2.89,4.37-4.44,6.65-.31.47-.63.95-1,1.42-2.26,3.33-4.66,6.77-7.13,10.22-.61.84-1.22,1.69-1.84,2.53-.31.46-.66.91-1,1.37-.12.15-.24.32-.35.47l-.8,1.08q-1.29,1.74-2.6,3.46c-.15.19-.28.37-.43.55l-.21.28c-.07.09-.15.18-.22.28l-.47.6c-.15.21-.31.41-.47.62s-.2.27-.31.4c-.52.67-1.05,1.34-1.58,2s-1.05,1.33-1.59,2-.84,1-1.27,1.55a3.68,3.68,0,0,1-.31.38c-.52.63-1.05,1.27-1.58,1.89s-.94,1.12-1.38,1.66-.87,1.09-1.27,1.62c-1.06,1.38-2,2.73-2.85,4,0,0,0,0,0,0h0c-.53.82-1,1.63-1.45,2.41-.09.14-.17.29-.25.44-.41.75-.78,1.5-1.12,2.23,0,.11-.1.21-.14.32l0,.1a.14.14,0,0,1,0,.06v0c-.18.39-.34.79-.49,1.17,0,0,0,0,0,.05-.14.38-.28.75-.41,1.13a23.23,23.23,0,0,0-.93,3.79h0a1.57,1.57,0,0,0,0,.37,3.25,3.25,0,0,0-.06.45c0,.14,0,.28,0,.41s0,.24,0,.36,0,.22,0,.32a19,19,0,0,0,.2,4.07c0,.21.07.43.1.64.12.6.25,1.18.41,1.77a28.08,28.08,0,0,0,1.93,5,85,85,0,0,0,6.88,11l1.13,1.62c.25.35.5.71.75,1.05.49.71,1,1.43,1.5,2.15s1,1.49,1.56,2.25,1.06,1.54,1.58,2.34c14,20.8,16.93,31.11,16.93,31.11s.47.37,1.41,1c.21.15.47.32.74.52l1.27.85.69.47,1.22.79,1.18.75,1.05.66.56.35.15.09c.25.14.5.3.74.45l.85.51a.07.07,0,0,0,0,0l.39.23.1.06.14.09.22.12c.05,0,.09.06.15.08l.07.05.11.07.12.07.17.1a.75.75,0,0,1,.15.09.55.55,0,0,1,.15.08l.51.29c.78.46,1.6.93,2.47,1.41l1.08.59,1.1.6c.53.3,1.09.59,1.66.89l1.25.66c1,.53,2.06,1.06,3.14,1.61l2.43,1.19.78.38c1.19.57,2.43,1.15,3.7,1.73a.61.61,0,0,1,.14.07l1.22.54.32.14a.7.7,0,0,1,.17.09l.19.08.37.16.82.36c.44.21.88.4,1.33.59l1.58.67.27.12c.78.33,1.55.65,2.35,1,.15.07.32.13.48.19l.17.08.33.12.05,0c.27.11.54.23.82.33l.84.33,1,.4,1,.41c1.16.45,2.36.89,3.56,1.33l2.07.75c1.12.4,2.25.8,3.39,1.18.5.18,1,.34,1.51.51l1.69.55,2.07.66c.75.25,1.51.48,2.26.7,1,.32,2.08.63,3.12.93l.82.24,1.23.34,1.53.43c1.6.44,3.22.86,4.88,1.28.66.17,1.33.34,2,.49.47.13,1,.24,1.43.35l1.7.4,2.32.52.91.2c2,.42,4,.83,6,1.22.79.16,1.58.31,2.39.44l.24.05.76.14.43.07.34.06.63.11,2.13.35,2.79.44,6.65-1.09h0l24.27-4h0l.08,0c2-.54,33.9-9.3,36.6-17.72,2.66-8.27-3.29-28.85,3.71-40.26a15.39,15.39,0,0,1,1.13-1.64c.39-.49.74-1,1.07-1.45s.63-1,.91-1.43a18.26,18.26,0,0,0,1-2c.05-.1.09-.2.14-.31l.09-.22c0-.09.07-.18.1-.26a2,2,0,0,1,.1-.26.33.33,0,0,1,0-.13c.05-.15.1-.29.14-.44q.22-.72.39-1.41c.05-.23.09-.45.14-.69.06-.39.11-.79.15-1.19,0-.14,0-.28,0-.41A18.09,18.09,0,0,0,324.28,269.13Zm-34.94,16.06c-1,2.06-2.12,4.13-3.24,6.17A311.31,311.31,0,0,1,264.42,325c-14.29,17.61-22.13,19.39-22.48,19.53l-.06.14h0l-.53-.25-.59-.28h0l-1.14-.54h0l-.7-.34h0l-.94-.46-.52-.26h0l-.07,0-.16-.09h0q-.56-.27-1.11-.57a3.17,3.17,0,0,1-.41-.21l0,0,0,0-.12-.06,0,0a2.1,2.1,0,0,1-.26-.13,1.27,1.27,0,0,1-.23-.12l-.67-.36-.51-.27-.1-.05h0l-.91-.49-.92-.5s0,0-.07,0c-.8-.43-1.6-.88-2.39-1.33l-1.17-.68-1.16-.68c-.38-.23-.77-.45-1.13-.68l-.26-.15-.86-.53-.75-.46-.8-.51h0c-.24-.14-.46-.29-.69-.44s-.47-.29-.7-.45-.55-.34-.82-.53l-.18-.12-.63-.42c-.33-.21-.65-.42-1-.64l-1-.65c-.38-.25-.74-.5-1.11-.76-.56-.38-1.11-.77-1.66-1.17s-.81-.58-1.22-.89c-.77-.56-1.53-1.13-2.29-1.7q-2.25-1.71-4.4-3.47c-.71-.59-1.42-1.18-2.11-1.77-.46-.39-.92-.77-1.36-1.17s-.92-.79-1.37-1.2c-1-.88-2-1.78-2.93-2.68s-1.89-1.8-2.81-2.71l-1.37-1.36c-1-1-1.9-1.95-2.82-2.93-.1-.11-.21-.22-.31-.34-.33-.35-.65-.7-1-1.06q-2.64-2.89-5-5.81-1.2-1.45-2.34-2.91c-.38-.49-.76-1-1.12-1.46l-1.1-1.44q-1.1-1.49-2.13-2.94c-.3-.41-.58-.82-.86-1.23q-1.83-2.62-3.47-5.21c-.24-.35-.45-.71-.67-1.06s-.45-.7-.66-1.06-.5-.81-.73-1.21l-.12-.19c-.57-.94-1.11-1.88-1.64-2.79-.34-.61-.69-1.21-1-1.81-.56-1-1.1-2-1.61-3s-1-1.95-1.5-2.9c-1-1.92-1.85-3.8-2.67-5.62l-.55-1.23c-.53-1.22-1-2.4-1.51-3.56-.16-.39-.33-.78-.48-1.17h0c-.29-.72-.56-1.42-.83-2.11l0-.08s0-.05,0-.08l-.47-1.23-.24-.65c-.17-.46-.33-.92-.49-1.36s-.24-.66-.35-1c-.06-.16-.12-.33-.17-.49s-.11-.33-.17-.49c-.14-.44-.29-.87-.43-1.29s-.21-.65-.31-1l-.49-1.54h0l.58-.74.27-.35q.17-.19.33-.42c.27-.34.54-.67.78-1l1.71-2.24.49-.65c.48-.66,1-1.36,1.56-2.1l.33-.45a.08.08,0,0,1,0,0h0c.18-.26.38-.52.58-.79,1.11-1.52,2.28-3.15,3.44-4.81.47-.67.94-1.36,1.4-2,.68-1,1.35-2,2-3l.73-1.13c.24-.37.47-.74.7-1.11s.45-.73.66-1.09.43-.71.63-1.06c.35-.6.7-1.21,1.06-1.85s.73-1.29,1.1-2c3-5.42,6.3-12,9.34-18.33.38-.79.75-1.59,1.12-2.37,1.85-3.94,3.55-7.75,4.95-11.1l1.64-3.9,1.11-2.57h0q.87-2,1.83-3.9c.18-.39.38-.78.58-1.16s.42-.82.64-1.23a0,0,0,0,0,0,0c.44-.81.9-1.62,1.38-2.42s1-1.59,1.53-2.37q.39-.57.81-1.14l.61-.81c.51-.67,1.05-1.32,1.6-2,.32-.36.64-.72,1-1.07l.05-.05c.31-.33.64-.66,1-1l.53-.51c.26-.25.53-.49.8-.73s.57-.51.86-.75.78-.64,1.19-.95l.16-.12c.35-.27.72-.53,1.09-.79l.26-.18c.22-.16.46-.32.69-.47l.09-.06c.55-.36,1.11-.71,1.69-1,.93-.54,1.9-1.06,2.93-1.55.52-.25,1.05-.49,1.6-.73l1.13-.47q.57-.24,1.17-.45l.24-.09.91-.32c.38-.13.78-.27,1.18-.39s1.06-.33,1.6-.49,1.18-.33,1.79-.48l1.39-.34,1.43-.31c1-.21,2-.39,3-.56a35.91,35.91,0,0,1,7.22-.46c.66,0,1.31.05,2,.11l1.06.11c1.06.12,2.11.28,3.16.5l1.05.23a4.05,4.05,0,0,1,.5.12c.49.11,1,.24,1.47.38s1,.28,1.46.45.7.23,1,.36c.7.24,1.39.5,2.07.79,1.06.44,2.11.92,3.15,1.45l.93.49c.67.36,1.33.74,2,1.14.33.19.66.39,1,.6a53.28,53.28,0,0,1,7,5.36l.09.08.62.57.22.2.86.83.44.44c.41.4.8.81,1.19,1.23l.08.08q.45.47.87,1c.51.55,1,1.11,1.48,1.69l.15.18c.4.48.8,1,1.19,1.47h0c.15.2.31.39.45.59.37.47.72.95,1.08,1.44l.1.14c.47.65.93,1.31,1.38,2s.72,1.09,1.06,1.65.7,1.12,1,1.69c.45.76.89,1.53,1.31,2.32s.84,1.58,1.25,2.4a81,81,0,0,1,4.67,11.62c.28.91.56,1.83.81,2.75.65,2.32,1.2,4.71,1.65,7.14l.3,1.28a31.76,31.76,0,0,1,.69,3.65s0,0,0,0c1.75,10.18,1.79,20.73,2.21,29.69,0,.76.08,1.51.12,2.26,0,.41,0,.83.08,1.25s.07,1.05.12,1.57c0,.35.05.69.08,1,.05.56.1,1.11.16,1.65,0,.15,0,.3,0,.44,0,.38.09.75.14,1.11a34.9,34.9,0,0,0,1.27,6.11c.09.3.19.59.3.88a5.9,5.9,0,0,0,.25.63,10.79,10.79,0,0,0,.64,1.37c.07.13.14.25.2.38.24.44.46.89.68,1.34.15.29.3.59.43.89s.4.85.59,1.27A100.83,100.83,0,0,1,289.34,285.19Z" />
  <path class="GUNDAN_ARMADILLO_OUTFIT_GUNDAN_ARMADILLO_OUTFIT-25_cls-3" d="M286.82,313.13c.19-.32,3.28-5.64,5.65-16.73-10,21.76-19,34.86-19,34.86l-19.24,14.79-22,16.91-17.56-18.83L217,340.6l4.75-7c.92.6,1.86,1.19,2.8,1.78a.27.27,0,0,1,.1.06c1.51.92,3.06,1.84,4.63,2.74.78.45,1.59.9,2.39,1.33a.1.1,0,0,0,.07,0c.6.33,1.21.67,1.84,1,.42.24.85.46,1.28.68,1.55.81,3.14,1.61,4.76,2.38.74.37,1.5.72,2.26,1.08l.06-.14h0c.35-.14,8.19-1.92,22.48-19.53a311.31,311.31,0,0,0,21.68-33.62c1.11-2,2.2-4.11,3.23-6.17a100.24,100.24,0,0,0,7.57-19.13c-.54-1.19-1.1-2.37-1.71-3.5,3,2.78,3.93,9.42,7.71,21.95C298.85,297.56,287.27,312.55,286.82,313.13Z" />
  <path class="GUNDAN_ARMADILLO_OUTFIT_GUNDAN_ARMADILLO_OUTFIT-25_cls-3" d="M267.16,131.94c-14.15-7.5-28.29-7.35-47.42-5.08-31.94,3.8-53.7,35-54.29,35.89l.38.05a63.48,63.48,0,0,0,9.93.57,58.52,58.52,0,0,1-4.37,11.34,65.92,65.92,0,0,1-5,8.31c-.5.71-1,1.42-1.57,2.14l-.39.51c-.56.73-1.13,1.46-1.74,2.19h0c-.46.54-.92,1.09-1.4,1.63l-.27,0c-1.3-.13-2.6-.23-3.9-.31-2.68-.17-5.37-.29-8-.57-.2.36-.4.7-.59,1L142.3,201q-1.32,2.43-2.64,4.8l-1.72,3.14-6.44,11.75c-3,5.45-5.55,10.15-7.39,13.52,0,0,0,0,0,0h0c-.53.82-1,1.63-1.45,2.41-.09.14-.17.29-.25.44-.41.75-.78,1.5-1.12,2.23,0,.11-.1.21-.14.32l0,.1a.14.14,0,0,1,0,.06v0c-.18.39-.34.79-.49,1.17,0,0,0,0,0,.05-.14.38-.28.75-.41,1.13a23.23,23.23,0,0,0-.93,3.79h0a1.57,1.57,0,0,0,0,.37,3.25,3.25,0,0,0-.06.45c0,.14,0,.28,0,.41s0,.24,0,.36,0,.22,0,.32a19,19,0,0,0,.2,4.07c0,.21.07.43.1.64.12.6.25,1.18.41,1.77a28.08,28.08,0,0,0,1.93,5,85,85,0,0,0,6.88,11l1.13,1.62c.25.35.5.71.75,1.05.49.71,1,1.43,1.5,2.15s1,1.49,1.56,2.25,1.06,1.54,1.58,2.34c14,20.8,16.93,31.11,16.93,31.11s.47.37,1.41,1c.21.15.47.32.74.52l1.27.85.69.47,1.22.79,1.18.75,1.05.66.56.35.15.09c.25.14.5.3.74.45l.85.51a.07.07,0,0,0,0,0l.39.23.1.06.14.09.22.12c.05,0,.09.06.15.08l.07.05.11.07.12.07.17.1a.75.75,0,0,1,.15.09.55.55,0,0,1,.15.08l.51.29c.78.46,1.6.93,2.47,1.41l1.08.59,1.1.6c.53.3,1.09.59,1.66.89l1.25.66c1,.53,2.06,1.06,3.14,1.61l2.43,1.19.78.38c1.19.57,2.43,1.15,3.7,1.73a.61.61,0,0,1,.14.07l1.22.54.32.14a.7.7,0,0,1,.17.09l.19.08.37.16.82.36c.44.21.88.4,1.33.59l1.58.67.27.12c.78.33,1.55.65,2.35,1,.15.07.32.13.48.19l.5.2.05,0c.27.11.54.23.82.33l.84.33,6-2.67s-30.65-20-48.22-48.66c-5.39-8.78-8.33-15.89-9.42-22-2.44-13.73,4.6-22.17,14.29-32.62,14-15.07,27.18-45.22,27.18-45.22s.26,14-7.39,26a72.44,72.44,0,0,0,12.63-20.63,58.62,58.62,0,0,0,3-9.82c.24-1.22.41-2.32.52-3.27.08-.17,11.13-23.23,37-27.38-11.45-3.4-26.09,2.22-26.09,2.22S221.34,124.13,267.16,131.94Z" />
  <path class="GUNDAN_ARMADILLO_OUTFIT_GUNDAN_ARMADILLO_OUTFIT-25_cls-4" d="M124.11,234.17s0,0,0,0c-.53.82-1,1.63-1.46,2.41-.09.14-.16.29-.24.44-.42.75-.79,1.5-1.12,2.23a2.22,2.22,0,0,0-.14.32.24.24,0,0,0,0,.1l0,.06v0c-.19.39-.35.79-.5,1.17a.09.09,0,0,0,0,.05c-.15.38-.29.75-.42,1.13a22.19,22.19,0,0,0-.92,3.79s0,0,0,0a2.38,2.38,0,0,0-.06.37,3.26,3.26,0,0,0,0,.45c0,.14,0,.28,0,.41a2.33,2.33,0,0,0,0,.36c0,.1,0,.22,0,.32a18.35,18.35,0,0,0,.21,4.07c0,.21.06.43.09.64.12.6.26,1.18.42,1.77a28.08,28.08,0,0,0,1.93,5,84.82,84.82,0,0,0,6.87,11c.38.53.75,1.07,1.13,1.62l.75,1.05,1.51,2.15,1.55,2.25q.8,1.14,1.59,2.34C149,300.55,152,310.86,152,310.86s.47.37,1.4,1l.75.52c.37.26.8.54,1.27.85.21.15.44.31.69.47l1.21.79,1.19.75,1.05.66.64.39a.18.18,0,0,0,.07.05c.25.14.49.3.74.45l.84.51.06,0,.39.23.1.06.14.09.21.12.16.08a.18.18,0,0,0,.07.05l.11.07.11.07.18.1a1.19,1.19,0,0,1,.15.09l.14.08.51.29c.78.46,1.61.93,2.48,1.41l1.07.59,1.1.6c.54.3,1.1.59,1.66.89l1.26.66c1,.53,2.06,1.06,3.13,1.61l2.44,1.19.78.38c1.19.57,2.43,1.15,3.7,1.73l.14.07,1.22.54.12.06.56.25.36.16.82.36c.44.21.89.4,1.33.59l1.59.67.27.12c.77.33,1.55.65,2.34,1l.66.27.32.12.05,0c1.2.5,2.45,1,3.71,1.47s2.36.89,3.56,1.33c.69.25,1.38.51,2.08.75,1.11.4,2.24.8,3.39,1.18.49.18,1,.34,1.51.51s1.12.37,1.69.55,1.37.45,2.07.66,1.5.48,2.26.7q1.55.48,3.12.93l.82.24,1.22.34h0l1.54.42c1.59.44,3.22.86,4.88,1.28.66.17,1.33.34,2,.49.47.13.95.24,1.44.35l1.7.4,2.31.52.92.2q3,.63,6,1.22c.8.16,1.59.31,2.39.44l.25.05.76.14.43.07.33.06.64.11,2.13.35,2.78.44q-2.88-1.22-5.64-2.5l-1.12-.53h0l-1.16-.55-.7-.34h0l-1-.46-.51-.26h0a1.93,1.93,0,0,1-.24-.13c-.36-.18-.74-.37-1.11-.57a4,4,0,0,1-.41-.21,1.05,1.05,0,0,1-.26-.13,16,16,0,0,1-.49-.25c-.23-.11-.45-.23-.67-.35-.83-.43-1.64-.87-2.46-1.32,0,0,0,0-.06,0-.81-.43-1.6-.88-2.39-1.33l-1.17-.68-1.17-.68-1.13-.68c-.17-.09-.33-.2-.49-.29l-2.18-1.35-.7-.45c-.24-.14-.46-.29-.69-.45s-.55-.34-.82-.53l-.82-.53c-.64-.43-1.28-.86-1.91-1.3-.37-.25-.74-.5-1.1-.76-.56-.38-1.11-.77-1.66-1.17s-.81-.58-1.22-.88q-4.64-3.39-8.8-6.95c-.47-.39-.92-.77-1.37-1.17l-1.37-1.2c-2-1.77-3.9-3.57-5.73-5.38-.47-.46-.93-.91-1.37-1.37-1-1-1.9-1.95-2.82-2.93l-1.29-1.4q-2.64-2.89-5-5.81c-.81-1-1.58-1.94-2.34-2.91-.38-.49-.76-1-1.13-1.46s-.74-1-1.09-1.44q-1.1-1.49-2.13-2.94-.45-.62-.87-1.23c-1.21-1.75-2.37-3.49-3.46-5.21-.24-.35-.46-.71-.68-1.06s-.44-.7-.65-1.06-.58-.94-.85-1.4c-.57-.94-1.11-1.88-1.65-2.79l-1-1.81c-2.22-4-4.13-7.86-5.77-11.5-.2-.42-.37-.82-.55-1.23-.54-1.22-1.05-2.4-1.52-3.56l-.48-1.17c-.29-.72-.56-1.43-.83-2.12l-.06-.16c-.16-.41-.31-.82-.46-1.23-.09-.21-.16-.43-.25-.65-.16-.46-.32-.92-.48-1.36s-.24-.66-.35-1-.23-.66-.34-1-.29-.86-.43-1.29c-.29-.87-.56-1.71-.8-2.51a94.62,94.62,0,0,1-2.94-11.69" />
  <path class="GUNDAN_ARMADILLO_OUTFIT_GUNDAN_ARMADILLO_OUTFIT-25_cls-4" d="M296.9,266.06a100.24,100.24,0,0,1-7.57,19.13c-1,2.06-2.12,4.13-3.23,6.17A311.31,311.31,0,0,1,264.42,325c-14.29,17.61-22.13,19.39-22.48,19.53" />
  <path class="GUNDAN_ARMADILLO_OUTFIT_GUNDAN_ARMADILLO_OUTFIT-25_cls-4" d="M241.94,344.51h0" />
  <path class="GUNDAN_ARMADILLO_OUTFIT_GUNDAN_ARMADILLO_OUTFIT-25_cls-5" d="M289.13,250.93v0l1.42,6.37s.77-4.62,1.35-11.2" />
  <path class="GUNDAN_ARMADILLO_OUTFIT_GUNDAN_ARMADILLO_OUTFIT-25_cls-5" d="M287.54,267.62c.51-2.84.87-5.64,1.12-8.32.28-3,.42-5.78.48-8.33" />
  <path class="GUNDAN_ARMADILLO_OUTFIT_GUNDAN_ARMADILLO_OUTFIT-25_cls-5" d="M164.33,242.12h0c-.83,4.73-1.92,10.9-3,17" />
  <path class="GUNDAN_ARMADILLO_OUTFIT_GUNDAN_ARMADILLO_OUTFIT-25_cls-5" d="M289.33,285.19c-1.16-10.06-1.79-17.57-1.79-17.57" />
  <path class="GUNDAN_ARMADILLO_OUTFIT_GUNDAN_ARMADILLO_OUTFIT-25_cls-4" d="M302.9,284.51v0a103.89,103.89,0,0,0-3.13-11.06h0a.11.11,0,0,1,0-.05c-.81-2.34-1.75-4.86-2.85-7.3-.26-.59-.54-1.18-.83-1.77s-.56-1.16-.87-1.73c-.06-.13-.13-.25-.2-.38a10.79,10.79,0,0,1-.64-1.37,5.9,5.9,0,0,1-.25-.63c-.11-.29-.21-.58-.3-.88a34.9,34.9,0,0,1-1.27-6.11c-.05-.36-.1-.73-.14-1.11,0-.14,0-.29,0-.44-.06-.54-.11-1.09-.16-1.65,0-.34-.06-.68-.08-1-.05-.52-.09-1.05-.12-1.57s-.05-.84-.08-1.25c0-.75-.07-1.5-.12-2.26-.42-9-.46-19.51-2.21-29.69,0,0,0,0,0,0-.2-1.22-.44-2.44-.69-3.65l-.3-1.28a82.16,82.16,0,0,0-7.13-21.51c-.41-.82-.82-1.61-1.25-2.4s-.86-1.56-1.31-2.32c-.68-1.14-1.38-2.26-2.1-3.34a63.66,63.66,0,0,0-5.84-7.51q-.42-.49-.87-1c-.42-.44-.84-.88-1.27-1.31l-.44-.44-.86-.83-.93-.85a49.36,49.36,0,0,0-14.07-9c-.68-.29-1.37-.55-2.07-.79q-.52-.19-1-.36c-1-.32-2-.6-2.93-.83a4.05,4.05,0,0,0-.5-.12,37.18,37.18,0,0,0-14.46-.49c-1,.17-2,.35-3,.56s-1.91.41-2.82.65c-.61.15-1.21.31-1.79.48s-1.08.32-1.6.49c-.8.25-1.58.52-2.33.8s-1.56.6-2.3.92a40.45,40.45,0,0,0-6.22,3.32c-.27.18-.53.35-.78.53q-1.42,1-2.7,2c-.29.24-.58.49-.86.75a41.07,41.07,0,0,0-7.87,9.62c-.48.8-.94,1.61-1.38,2.42a0,0,0,0,1,0,0c-1.1,2-2.1,4.16-3,6.29h0l-1.11,2.57-1.64,3.9c-1.4,3.35-3.1,7.16-4.95,11.1-.37.78-.74,1.58-1.12,2.37-3,6.37-6.36,12.91-9.34,18.33-.74,1.35-1.47,2.63-2.16,3.82-.81,1.4-1.73,2.88-2.72,4.39-2.16,3.33-4.61,6.8-6.83,9.84-.2.27-.4.53-.58.79h0a.08.08,0,0,0,0,0l-.33.45c-.54.74-1.08,1.44-1.56,2.1l-.49.65-1.71,2.24c-.29.37-.55.7-.78,1q-.17.23-.33.42l-.27.35-.58.74h0" />
  <path class="GUNDAN_ARMADILLO_OUTFIT_GUNDAN_ARMADILLO_OUTFIT-25_cls-4" d="M121.05,239.78v0c.12-.22,1.22-2.26,3-5.57,0,0,0,0,0,0,4.91-9,15-27.36,24.43-44.54.19-.35.39-.69.59-1" />
  <path class="GUNDAN_ARMADILLO_OUTFIT_GUNDAN_ARMADILLO_OUTFIT-25_cls-5" d="M175.76,163.37a63.48,63.48,0,0,1-9.93-.57l-.38-.05" />
  <path class="GUNDAN_ARMADILLO_OUTFIT_GUNDAN_ARMADILLO_OUTFIT-25_cls-5" d="M161.33,189.49l-.27,0c-1.3-.13-2.6-.23-3.9-.31-2.68-.17-5.37-.29-8-.57" />
  <path class="GUNDAN_ARMADILLO_OUTFIT_GUNDAN_ARMADILLO_OUTFIT-25_cls-5" d="M307.05,188.52c-2.66.33-5.35.46-8,.65" />
  <path class="GUNDAN_ARMADILLO_OUTFIT_GUNDAN_ARMADILLO_OUTFIT-25_cls-5" d="M298.87,161.22a52.73,52.73,0,0,1-8.93,1.8" />
  <path class="GUNDAN_ARMADILLO_OUTFIT_GUNDAN_ARMADILLO_OUTFIT-25_cls-5" d="M154.14,196.53a73,73,0,0,0,7.19-7,71.53,71.53,0,0,0,5.1-6.47,65.92,65.92,0,0,0,5-8.31,58.52,58.52,0,0,0,4.37-11.34,30.28,30.28,0,0,0,.66-3" />
  <path class="GUNDAN_ARMADILLO_OUTFIT_GUNDAN_ARMADILLO_OUTFIT-25_cls-5" d="M304.19,196.75a72.43,72.43,0,0,1-5.17-7.58,69.23,69.23,0,0,1-6.24-13.6A64.3,64.3,0,0,1,289.94,163a38.91,38.91,0,0,1-.31-6.18" />
  <path class="GUNDAN_ARMADILLO_OUTFIT_GUNDAN_ARMADILLO_OUTFIT-25_cls-4" d="M165.44,162.76h0c.59-.86,22.35-32.09,54.29-35.89,32.38-3.84,50.44-1.62,78.52,33.48l.13.17c.1.15.27.38.48.71" />
  <path class="GUNDAN_ARMADILLO_OUTFIT_GUNDAN_ARMADILLO_OUTFIT-25_cls-4" d="M307.05,188.52c1.22,16.15,0,38.63,7.39,55.26q.17.41.36.81c1.2,2.58,2.35,5,3.42,7.23l1.13,2.43c.55,1.2,1.06,2.34,1.54,3.46.18.43.36.85.53,1.27.05.11.09.21.13.32a50.16,50.16,0,0,1,2,5.77c.07.29.15.57.21.85.12.55.23,1.09.33,1.63,0,.21.06.42.1.63s0,.3.05.44l.06.51a18.09,18.09,0,0,1,0,3.12l0,.41c-.05.39-.1.79-.16,1.19-.05.24-.09.46-.14.69q-.17.69-.39,1.41c0,.15-.09.29-.14.44a.33.33,0,0,0,0,.13c-.07.17-.13.34-.21.51a5.09,5.09,0,0,1-.22.54,18.26,18.26,0,0,1-1,2c-.28.47-.58.95-.91,1.43s-.69,1-1.07,1.45c-8.74,11-.68,35.89-3.46,44.58s-38.08,15.06-38.08,15.06l-24.27,4h0l-6.67,1.09" />
  <path class="GUNDAN_ARMADILLO_OUTFIT_GUNDAN_ARMADILLO_OUTFIT-25_cls-6" d="M378.21,437.93h-8.95a75,75,0,0,0-2.76-18.49,29.7,29.7,0,0,0,9.26,1.49A71.06,71.06,0,0,1,378.21,437.93Z" />
  <path class="GUNDAN_ARMADILLO_OUTFIT_GUNDAN_ARMADILLO_OUTFIT-25_cls-7" d="M146.61,376.5c-1.13,2.42-3.89,5.29-9.34,6.93-.7.21-1.44.39-2.24.55a44.42,44.42,0,0,1-13.17.51c-1.46-.13-3-.31-4.62-.56q-3.45-.51-7.4-1.42c-2.83-.65-5.86-1.45-9.1-2.44a83.08,83.08,0,0,1-12.37-4.7h0c-4.58-2.24-7.58-4.55-9.46-6.88h0c-5.37-6.68-1.57-13.53.63-19.65,3.52-9.78,12.36-17.43,20-14.39q-1.59,2.16-3.36,4.68a72.32,72.32,0,0,0,8.76,6.4,123.72,123.72,0,0,0,11.6,6.46q2.39,1.18,5.07,2.39c.33.16.67.3,1,.45q3.58,1.57,6.59,3.08C144.54,365.51,148.89,371.61,146.61,376.5Z" />
  <path class="GUNDAN_ARMADILLO_OUTFIT_GUNDAN_ARMADILLO_OUTFIT-25_cls-8" d="M105,345.51l-.52.26c-22.27,1.44-16.25,28.85-16.08,29.59-4.58-2.24-7.58-4.55-9.46-6.88h0c-5.37-6.68-1.57-13.53.63-19.65,3.52-9.78,12.36-17.43,20-14.39q-1.59,2.16-3.36,4.68A72.32,72.32,0,0,0,105,345.51Z" />
  <path class="GUNDAN_ARMADILLO_OUTFIT_GUNDAN_ARMADILLO_OUTFIT-25_cls-7" d="M132.18,413.67c-1,4.42-5.16,5.94-10.79,7.64-.34.09-.69.18-1.06.26a75,75,0,0,1-12.74,1.7c-2.71.16-5.64.2-8.83.1l-2.16-.08a142.56,142.56,0,0,1-15.39-1.67c-1.25-.2-2.44-.42-3.56-.66a53.6,53.6,0,0,1-14.24-5c-12.6-6.73-8.53-15.67-6.68-23.31a27.2,27.2,0,0,1,7.41-13.16c3.39-3.22,7.45-4.9,11.4-3.77-.87,2-1.71,4-2.55,6.11a83.28,83.28,0,0,0,10.88,6.07,141.89,141.89,0,0,0,16.37,6.38l1.81.6h0q3.41,1.13,6.48,2.24c2.33.85,4.51,1.68,6.54,2.52a76.72,76.72,0,0,1,10.59,5.17C130.76,407.94,132.8,410.83,132.18,413.67Z" />
  <path class="GUNDAN_ARMADILLO_OUTFIT_GUNDAN_ARMADILLO_OUTFIT-25_cls-9" d="M102.06,394.9q3.41,1.13,6.48,2.24l-.22.29a24.14,24.14,0,0,0-5.66,25.84l-3.9.1-2.13.06,0-.14c-5.25-21.33,5.45-28.39,5.45-28.39Z" />
  <path class="GUNDAN_ARMADILLO_OUTFIT_GUNDAN_ARMADILLO_OUTFIT-25_cls-9" d="M117.38,383.43a1.26,1.26,0,0,1-.14.5q-3.45-.51-7.4-1.42c-.66-16.36,10.12-26.65,11.8-28.15l.22-.19s5.11,0,7.37,3.72a6.64,6.64,0,0,1,.49,1C118.29,363.37,117.38,383.43,117.38,383.43Z" />
  <path class="GUNDAN_ARMADILLO_OUTFIT_GUNDAN_ARMADILLO_OUTFIT-25_cls-8" d="M77.65,421a53.6,53.6,0,0,1-14.24-5c-12.6-6.73-8.53-15.67-6.68-23.31a27.2,27.2,0,0,1,7.41-13.16c3.39-3.22,7.45-4.9,11.4-3.77-.87,2-1.71,4-2.55,6.11a83.28,83.28,0,0,0,10.88,6.07C67.17,391.93,68.08,410.42,77.65,421Z" />
  <path class="GUNDAN_ARMADILLO_OUTFIT_GUNDAN_ARMADILLO_OUTFIT-25_cls-7" d="M307.28,401.62c5.66-6,7.84-1.89,6.4,2.32a173.65,173.65,0,0,0-19.61,6.26,77.13,77.13,0,0,0,4.86-14.9C305.54,389.57,308.5,397.59,307.28,401.62Z" />
  <path class="GUNDAN_ARMADILLO_OUTFIT_GUNDAN_ARMADILLO_OUTFIT-25_cls-7" d="M382.54,376.75a10.6,10.6,0,0,1-1.18,1.61l-.4.44a28.23,28.23,0,0,1-6.59,4.69c-2.89,1.58-5.51,2.88-7.88,3.91-1.1.48-2.13.9-3.11,1.28-1.18.44-2.29.82-3.33,1.12h0c-11.84,3.54-15.51-1-17.76-3.93-2.94-3.81,1.44-11.92,9.82-18.13l.61-.43c.86-.62,1.74-1.24,2.61-1.84h0c4.07-2.83,8.06-5.48,10.18-7.25l-.4-.34c-2-1.66-3.65-2.89-4.8-3.69,5.44-2.65,12.68,1,16.94,7.72C380.46,367,385.63,371.46,382.54,376.75Z" />
  <path class="GUNDAN_ARMADILLO_OUTFIT_GUNDAN_ARMADILLO_OUTFIT-25_cls-9" d="M382.54,376.75a10.6,10.6,0,0,1-1.18,1.61l-.4.44-.66.17a73.12,73.12,0,0,0-6.25-11.67c-4.52-7.13-8.05-9.51-8.05-9.51l-.89.09c-2-1.66-3.65-2.89-4.8-3.69,5.44-2.65,12.68,1,16.94,7.72C380.46,367,385.63,371.46,382.54,376.75Z" />
  <path class="GUNDAN_ARMADILLO_OUTFIT_GUNDAN_ARMADILLO_OUTFIT-25_cls-2" d="M354,341.51h0a14.07,14.07,0,0,0-2.39-1.1,721,721,0,0,1-78.79-8.69c-2.87-.49-5.67-1-8.42-1.5,0,0,36.25-3.2,71-12.35a8.55,8.55,0,0,1,4.1-.48c2.54.4,4.43,2.46,5.54,6.66C346.61,330.27,355.77,333.78,354,341.51Z" />
  <path class="GUNDAN_ARMADILLO_OUTFIT_GUNDAN_ARMADILLO_OUTFIT-25_cls-3" d="M354,341.51h0a14.07,14.07,0,0,0-2.39-1.1,721,721,0,0,1-78.79-8.69l-.95-1.66C270,329.82,315,333,331.49,332.5c12.87-.39,9.84-10.16,8-15.1,2.54.4,4.43,2.46,5.54,6.66C346.61,330.27,355.77,333.78,354,341.51Z" />
  <path class="GUNDAN_ARMADILLO_OUTFIT_GUNDAN_ARMADILLO_OUTFIT-25_cls-7" d="M323.12,389a73.32,73.32,0,0,1,5.55,11.89c-4.39.7-9,1.62-13.74,2.79C319.73,400,322.09,394.48,323.12,389Z" />
  <path class="GUNDAN_ARMADILLO_OUTFIT_GUNDAN_ARMADILLO_OUTFIT-25_cls-6" d="M120.33,421.57c-.26,1-.53,2-.78,3q-1.64,6.27-3,13.39H104.45c.83-4.4,2.15-10.73,3.14-14.66A75,75,0,0,0,120.33,421.57Z" />
  <path class="GUNDAN_ARMADILLO_OUTFIT_GUNDAN_ARMADILLO_OUTFIT-25_cls-10" d="M121.86,384.49a149.24,149.24,0,0,0-6.78,15.17q-3.85-1.59-8.45-3.2-3-1.08-6.39-2.16a141.89,141.89,0,0,1-16.37-6.38A83.28,83.28,0,0,1,73,381.85c.84-2.09,1.68-4.13,2.55-6.11,1.1-2.5,2.22-4.91,3.37-7.26,1.88,2.33,4.88,4.64,9.46,6.89a83.08,83.08,0,0,0,12.37,4.7c4,1.22,7.65,2.15,11,2.87A85.46,85.46,0,0,0,121.86,384.49Z" />
  <path class="GUNDAN_ARMADILLO_OUTFIT_GUNDAN_ARMADILLO_OUTFIT-25_cls-6" d="M135,384h0a123.62,123.62,0,0,0-7.26,15.42c-.69,1.68-1.39,3.48-2.1,5.42a77.3,77.3,0,0,0-10.59-5.17,149.24,149.24,0,0,1,6.78-15.17A44.42,44.42,0,0,0,135,384Z" />
  <path class="GUNDAN_ARMADILLO_OUTFIT_GUNDAN_ARMADILLO_OUTFIT-25_cls-7" d="M399.76,417.3a13,13,0,0,1-1.4.64,30.47,30.47,0,0,1-7,1.8,96.59,96.59,0,0,1-12.25,1.18c-1.18,0-2.28,0-3.32,0a29.75,29.75,0,0,1-9.26-1.49h0c-5.1-1.83-6.51-5-7.24-7.46s-.6-5.08,2.28-7.73a24.21,24.21,0,0,1,7.09-4.14c1.1-.47,2.33-.94,3.69-1.39s3-1,4.69-1.45c5.12-1.44,10.28-3,13.54-4.22l1.25-.48c-.92-1.95-1.86-3.8-2.84-5.6l-.15-.26h.07c6-.58,11.56,6.14,13.07,13.83C403.21,407,406.94,413.48,399.76,417.3Z" />
  <path class="GUNDAN_ARMADILLO_OUTFIT_GUNDAN_ARMADILLO_OUTFIT-25_cls-10" d="M360.05,389.81c-11.84,3.54-15.51-1-17.76-3.93-2.94-3.81,1.44-11.92,9.82-18.13-3.21,4.58,3.17,17.92,14.38,19.65-1.1.48-2.13.9-3.11,1.28-1.18.44-2.29.82-3.33,1.12Z" />
  <path class="GUNDAN_ARMADILLO_OUTFIT_GUNDAN_ARMADILLO_OUTFIT-25_cls-10" d="M379.08,420.92c-1.18,0-2.28,0-3.32,0a29.75,29.75,0,0,1-9.26-1.49h0c-5.1-1.83-6.51-5-7.24-7.46s-.6-5.08,2.28-7.73a24.21,24.21,0,0,1,7.09-4.14c1.1-.47,2.33-.94,3.69-1.39C372.32,398.71,368.89,411.41,379.08,420.92Z" />
  <path class="GUNDAN_ARMADILLO_OUTFIT_GUNDAN_ARMADILLO_OUTFIT-25_cls-9" d="M399.76,417.3a13,13,0,0,1-1.4.64c1.7-21.34-7.75-24.64-7.75-24.64l-.06-.26L389,387l-.08-.27c6-.58,11.56,6.14,13.07,13.83C403.21,407,406.94,413.48,399.76,417.3Z" />
  <path class="GUNDAN_ARMADILLO_OUTFIT_GUNDAN_ARMADILLO_OUTFIT-25_cls-10" d="M401.63,437.93H378.22a71.09,71.09,0,0,0-2.46-17,69.35,69.35,0,0,0,7.75-.25c2.37-.2,5-.51,7.82-.94,1-.16,2-.33,2.84-.52a22.54,22.54,0,0,0,5.59-1.92A112.11,112.11,0,0,1,401.63,437.93Z" />
  <path class="GUNDAN_ARMADILLO_OUTFIT_GUNDAN_ARMADILLO_OUTFIT-25_cls-7" d="M395.2,437.93a99.58,99.58,0,0,0-1-18.71,22.54,22.54,0,0,0,5.59-1.92,112.11,112.11,0,0,1,1.87,20.63Z" />
  <path class="GUNDAN_ARMADILLO_OUTFIT_GUNDAN_ARMADILLO_OUTFIT-25_cls-10" d="M391.8,392.56c-1.19.49-2.78,1.06-4.64,1.66-2.94,1-6.53,2-10.1,3H377a69.74,69.74,0,0,0-8.38,2.84c-2.87-6.83-5.25-11.42-5.25-11.42a79.94,79.94,0,0,0,7.38-3.3c1.16-.57,2.36-1.2,3.61-1.89a33.89,33.89,0,0,0,5.37-3.56,17.48,17.48,0,0,0,1.62-1.57,10.6,10.6,0,0,0,1.18-1.61,103.2,103.2,0,0,1,6.27,9.95C389.84,388.58,390.84,390.52,391.8,392.56Z" />
  <path class="GUNDAN_ARMADILLO_OUTFIT_GUNDAN_ARMADILLO_OUTFIT-25_cls-7" d="M388.81,386.7c1,1.88,2,3.82,3,5.86-1.19.49-2.78,1.06-4.64,1.66a94,94,0,0,0-7.42-14.29,17.48,17.48,0,0,0,1.62-1.57,10.6,10.6,0,0,0,1.18-1.61A103.2,103.2,0,0,1,388.81,386.7Z" />
  <path class="GUNDAN_ARMADILLO_OUTFIT_GUNDAN_ARMADILLO_OUTFIT-25_cls-11" d="M377,397.26a69.74,69.74,0,0,0-8.38,2.84c-2.87-6.83-5.25-11.42-5.25-11.42a79.94,79.94,0,0,0,7.38-3.3,83.38,83.38,0,0,1,6.3,11.87Z" />
  <path class="GUNDAN_ARMADILLO_OUTFIT_GUNDAN_ARMADILLO_OUTFIT-25_cls-11" d="M384,437.93h-5.78a71.09,71.09,0,0,0-2.46-17,69.35,69.35,0,0,0,7.75-.25A84.74,84.74,0,0,1,384,437.93Z" />
  <path class="GUNDAN_ARMADILLO_OUTFIT_GUNDAN_ARMADILLO_OUTFIT-25_cls-7" d="M369.26,437.93H263c-.13-1.42-.29-2.91-.48-4.44l0-.17a79,79,0,0,0-2.2-11.55.18.18,0,0,1,0,0l.16.08.11.05c1.83.86,3.57,1.77,5.23,2.69l.72-.46,2.56-1.59c.43-.26.84-.52,1.27-.76.66-.39,1.32-.78,2-1.16l.12-.06c.51-.31,1-.59,1.52-.87,1.27-.72,2.56-1.4,3.84-2.07l.74-.38L279,417l.09-.05h0c2-1,4-2,6-2.9a36.6,36.6,0,0,1-4.37,14c5.95-4.59,10.26-10.92,13.34-17.76h0a171.45,171.45,0,0,1,18.29-5.92l1.32-.34c-.08.25-.2.51-.31.77a17.91,17.91,0,0,0,1.56-1.08c3.58-.89,7.1-1.63,10.49-2.24,1.09-.2,2.18-.38,3.26-.55,1.73,4.79,3.15,10.43,3,15.75,2.19-9.21,2.79-14.76,4.71-13.83s2.79,7.05,2.79,7.05,3.31-9.21,5.13-10.12,2.8,4.18,2.8,4.18,2-3.22,3.56-1.11.79,8.39.79,8.39a34.26,34.26,0,0,0,7.81-12.61c.73,1.73,1.51,3.64,2.3,5.7-2.88,2.65-3,5.25-2.28,7.73s2.14,5.63,7.24,7.46h0A75,75,0,0,1,369.26,437.93Z" />
  <path class="GUNDAN_ARMADILLO_OUTFIT_GUNDAN_ARMADILLO_OUTFIT-25_cls-9" d="M330.53,437.93H317.9c-1.71-5.17-3.6-10.33-3.6-10.33l4.53-1.12c-.27-5.1-3.4-14.29-6.47-22.2s-6.05-14.48-6.05-14.48L319.2,391l6.22,10.39-5,1.38,8.28,21.77-4,.64Z" />
  <path class="GUNDAN_ARMADILLO_OUTFIT_GUNDAN_ARMADILLO_OUTFIT-25_cls-2" d="M358.57,353l-4.94.06c-16.81.18-32.39.28-47.32.18l-5.88,0c-37.73-.44-71.78-2.3-112.35-7.5-20.57-2.63-36.87-5.88-49.37-9.32-15.67-4.31-25.4-8.93-30.22-13-2.57-2.2-3.73-4.25-3.65-6,1.92-11,7.14-11.42,7.14-11.42s1,.49,3,1.41c5.44,2.45,18.63,7.86,42.17,14.79l.12,0,2.35.68,4.84,1.39q6.28,1.76,13.44,3.64L182.4,329l1.37.34,1.19.31c2.56.64,5.2,1.3,7.92,2l.21.06,6.32,1.5,3.39.79.26.06c66.7,15.39,152,14.78,152,14.78C359.85,350.13,358.57,353,358.57,353Z" />
  <path class="GUNDAN_ARMADILLO_OUTFIT_GUNDAN_ARMADILLO_OUTFIT-25_cls-2" d="M355.9,345.28c0,.14,0,.27,0,.42s0,0,0,.06a2.51,2.51,0,0,1,0,.27c0,.22-.08.46-.14.71s-.14.58-.23.9-.11.36-.17.56-.12.39-.19.59h0s-85.32.61-152-14.78l-.26-.06h0l-5-1.17-3.16-.75-1.79-.43-.23-.06-1.61-.39-2.29-.56-1.83-.45-.42-.11-2.22-.56-.48-.13-.69-.17-3.14-.8-2-.52q-7.17-1.87-13.45-3.64l-3.85-1.11-1-.28-2.34-.68-.11,0a0,0,0,0,0,0,0c-1.62-.48-3.18-.94-4.7-1.41l-.16-.05q-3.86-1.15-7.31-2.27l-.14-.05c-1.18-.37-2.33-.74-3.44-1.11l-.63-.21-1.3-.43-2.48-.84q-1.81-.6-3.48-1.2c-3-1.06-5.72-2-8.06-2.93l-2-.77-1.09-.43-1.44-.58-.68-.27-1.14-.47c-1.68-.69-3-1.28-4.11-1.76h0l.13-.25a43.87,43.87,0,0,0,9.22-7.21c.55-.57,1.07-1.13,1.56-1.67l.72-.82c.82-.95,1.57-1.86,2.27-2.73l.3-.37c.4-.49.78-1,1.16-1.41.57-.68,1.13-1.31,1.69-1.89l.28-.28.28-.28c3.09-2.94,6.54-4.15,13.52-1.91a29.72,29.72,0,0,1,3,1.2l.88.41c1.1.51,2.29,1.11,3.59,1.79l1.18.61.2.11,1.09.58,1,.53c2.23,1.18,4.71,2.51,7.49,3.94,1.23.64,2.53,1.3,3.89,2h0l1.51.75q1.93,1,4.05,2l1.23.58,1.31.61c.58.28,1.18.55,1.78.82q3,1.38,6.36,2.8l3,1.25c2,.83,4.14,1.68,6.36,2.53l1.67.64q3.58,1.36,7.51,2.74c.85.3,1.71.6,2.58.89l.7.24c1.08.36,2.17.73,3.29,1.09.86.29,1.72.56,2.6.84l.15.05q4.88,1.56,10.21,3.08l.23.06h0a20,20,0,0,0,6.48,4.58,11.07,11.07,0,0,0,1.6.52c.65,2.93,3.48,5.27,10.13,5.27,4.55,0,6.16-2.5,6.71-4.08h0l1.77.39.23.05,3.14.67.76.16,3,.61.08,0L258,329l2.09.41,2.11.41,2.14.41q3.09.57,6.28,1.13l2.14.37q3,.52,6.17,1l2.34.37,4.39.67q15.07,2.23,32.33,4l5.81.56.91.08,7.29.64,2.85.22,1.39.11c3.57.27,7.22.53,10.93.77l4.39.27a13.59,13.59,0,0,1,2.38,1.1,4.48,4.48,0,0,1,.8.59A3.59,3.59,0,0,1,355.9,345.28Z" />
  <path class="GUNDAN_ARMADILLO_OUTFIT_GUNDAN_ARMADILLO_OUTFIT-25_cls-2" d="M335.35,317.88c-34.71,9.15-71,12.35-71,12.35l-2.14-.41-2.11-.41L258,329l-1.05-.21-.08,0-3-.61-.76-.16c-1.06-.22-2.11-.44-3.14-.67l-.23-.05-1.77-.39h0l-.07,0H248c1.86-.16,35.65-3.33,70.17-24.37.38.06.75.12,1.11.2l.62.13c.34.06.67.14,1,.23.56.16,1.1.33,1.63.51a21.63,21.63,0,0,1,2.23.93,19.51,19.51,0,0,1,3.05,1.82l.66.51c.21.17.42.34.62.52s.39.35.58.53a18.21,18.21,0,0,1,1.55,1.65c.15.18.3.37.44.56a4.11,4.11,0,0,1,.27.35c.15.2.29.39.42.59l.38.58c.16.25.31.5.45.74.25.44.48.86.67,1.26.1.2.19.4.28.59A16.81,16.81,0,0,1,335.35,317.88Z" />
  <path class="GUNDAN_ARMADILLO_OUTFIT_GUNDAN_ARMADILLO_OUTFIT-25_cls-3" d="M335.35,317.88c-34.72,9.15-71,12.35-71,12.35q-7.62-1.44-14.63-3c2.87-.36,31.07-3.88,56.56-9.21,19.43-4.08,19.74-10.39,18.42-13.58A19.87,19.87,0,0,1,335.35,317.88Z" />
  <path class="GUNDAN_ARMADILLO_OUTFIT_GUNDAN_ARMADILLO_OUTFIT-25_cls-2" d="M306.31,353.27v0c-14.79,17.67-35.85,27.47-58.13,32.52a188,188,0,0,1-26.39,3.92,281.58,281.58,0,0,1-53.12-1.16,279.58,279.58,0,0,1-31.4-5.16c5.45-1.64,8.21-4.51,9.34-6.93,2.3-4.94-2.16-11.11-17.84-18.84q-2.84-1.4-6.13-2.85c-2.16-.95-4.19-1.89-6.07-2.84-11.08-5.45-17.46-10.33-20.36-12.86q1.77-2.52,3.36-4.68c5.28-7.1,8.92-11.07,8.92-11.07,4.82,4.11,14.55,8.73,30.22,13,12.5,3.44,28.8,6.69,49.37,9.32,40.57,5.2,74.62,7.06,112.35,7.5Z" />
  <path class="GUNDAN_ARMADILLO_OUTFIT_GUNDAN_ARMADILLO_OUTFIT-25_cls-3" d="M358.57,353l-4.94.06c-16.81.18-32.39.28-47.32.18v0c-14.79,17.67-35.85,27.47-58.13,32.52a188,188,0,0,1-26.39,3.92c53.55-8.53,61.18-22.49,61.41-22.93-1,.29-49.85,15.34-100.9,11.38,48.64-3.16,85.25-14.75,85.25-14.75s-57.92,1.18-82.86-6.15c81.1,2.22,116.49-4,116.49-4l-.75-.09c-7-.86-61.54-7.77-97.63-19.27-3.16-1-6.16-2-9-3.12,83.36,16.25,153.1,13.72,153.1,13.72l8.93,1.21a14.44,14.44,0,0,1-.77,3C359.85,350.13,358.57,353,358.57,353Z" />
  <path class="GUNDAN_ARMADILLO_OUTFIT_GUNDAN_ARMADILLO_OUTFIT-25_cls-3" d="M169.41,388.17l-.74.42a279.58,279.58,0,0,1-31.4-5.16c5.45-1.64,8.21-4.51,9.34-6.93,2.3-4.94-2.16-11.11-17.84-18.84q-2.84-1.4-6.13-2.85c-2.16-.95-4.19-1.89-6.07-2.84-11.08-5.45-17.46-10.33-20.36-12.86q1.77-2.52,3.36-4.68c5.28-7.1,8.92-11.07,8.92-11.07-2.57-2.2-3.73-4.25-3.65-6,1.92-11,7.14-11.42,7.14-11.42s1,.49,3,1.41l.12-.25c17.59-10.38,14.8-23.76,31-18.57,4.66,1.5,11.5,5.71,22.37,11.15h0s3.67,3.18-6,4.29-13.63,13.72-10,16.39a23.65,23.65,0,0,0,4.59,1.77l.12,0c14.62,4.68,57.15,15.23,59.47,15.81-2.19-.44-44.66-8.87-60.4-11.36-15.52-2.46-24.38,2.37-17.64,9.81.28.3.58.62.91.93-23.15,4.44-7.27,16.19-6,17.08l.07,0,27.06,3.23c-15.92,8.79,10.43,21.22,10.43,21.22S163.34,382.36,169.41,388.17Z" />
  <path class="GUNDAN_ARMADILLO_OUTFIT_GUNDAN_ARMADILLO_OUTFIT-25_cls-7" d="M285.09,414c-2,.92-4,1.88-6,2.91,0,0,0,0-.09.05l-.47.24c-2,1.05-4.08,2.15-6.1,3.32l-.12.06c-2,1.11-3.89,2.29-5.82,3.51l-.72.46a55.7,55.7,0,0,0-1.78-20.3,12.46,12.46,0,0,1,.67-1.31,17.5,17.5,0,0,1,4.85-5.5,30.86,30.86,0,0,1,.35,18.55,36.56,36.56,0,0,0,7.67-7.73,29.59,29.59,0,0,0,5.74-13.33A44.1,44.1,0,0,1,285.09,414Z" />
  <path class="GUNDAN_ARMADILLO_OUTFIT_GUNDAN_ARMADILLO_OUTFIT-25_cls-10" d="M279.08,416.89h0s0,0-.09.05l-.47.24-.14.08-6,3.24-.12.06c.74,3.57,2.38,11.19,3.7,17.36H263.17c-.21-1.48-.44-3-.68-4.44l0-.17c-1-5.86-2.08-11-2.2-11.55a.18.18,0,0,1,0,0l.16.08.11.05c.59.31,2.28,1.19,5.93,3.25,0-.34,0-.68,0-1a112.07,112.07,0,0,0-1.83-21.15,17.5,17.5,0,0,1,4.85-5.5,30.86,30.86,0,0,1,.35,18.55,36.56,36.56,0,0,0,7.67-7.73Z" />
  <path class="GUNDAN_ARMADILLO_OUTFIT_GUNDAN_ARMADILLO_OUTFIT-25_cls-7" d="M263,437.93H235.66c-1.26-.34-2.52-.67-3.82-1l-1.77-.42q-3.8-.93-7.71-1.75l-2-.4c-.66-.14-1.31-.28-2-.4l-2.16-.41c-1.27-.25-2.53-.49-3.81-.71-2.74-.5-5.5-.95-8.26-1.39-1.2-.18-2.4-.38-3.61-.55-5.15-.77-10.29-1.44-15.36-2-.81-.11-1.61-.2-2.42-.28-1.82-.21-3.64-.4-5.43-.59l-1.73-.17-3.19-.31-1.2-.11-2.58-.24-.68-.06L166.4,427l-1.48-.12-.59-.05-.18,0-.57,0-.21,0-1-.08c-2-.17-3.91-.31-5.8-.44l-3-.21-5.08-.33-1.9-.11h0l-3.05-.17-.75,0-1.1-.05c-3.64-.19-6.94-.34-9.81-.44l-.71,0c-2.74-.09-5.06-.16-6.88-.2l-1.26,0-1.38,0h-.46l-1.57,0c.26-1,.52-2,.78-3,.37-.08.72-.17,1.06-.26,5.63-1.7,9.83-3.22,10.79-7.64.62-2.84-1.42-5.73-6.51-8.84.71-1.94,1.41-3.74,2.1-5.42,0,0,22.42.46,50.27,3.52,27.58,3,60.51,8.62,82.21,18.79A95.28,95.28,0,0,1,263,437.93Z" />
  <path class="GUNDAN_ARMADILLO_OUTFIT_GUNDAN_ARMADILLO_OUTFIT-25_cls-12" d="M360.31,354.19c1.22.85,3,2.19,5.2,4-2.12,1.77-6.11,4.42-10.18,7.25,0-.36.79-7.44-1.7-12.38l4.94-.06S359.2,353.41,360.31,354.19Z" />
  <path class="GUNDAN_ARMADILLO_OUTFIT_GUNDAN_ARMADILLO_OUTFIT-25_cls-7" d="M265.75,424.54c-1.75-1-3.58-1.92-5.5-2.82C238.55,411.55,205.62,406,178,402.93c-27.85-3.06-50.27-3.52-50.27-3.52A127.74,127.74,0,0,1,135,384.1L135,384h0c.8-.16,1.54-.34,2.24-.55,0,0,1.57.37,4.42,1h0a314.45,314.45,0,0,0,34.8,5c20.73,1.81,46.95,2.06,71.68-3.54.19.34,3.5,6.48-1.15,12,7.39-4.35,8.62-10.79,8.62-10.79s.52,21.83,6.26,27.27c.34-3.81.75-7.11,2.06-10.09A55.7,55.7,0,0,1,265.75,424.54Z" />
  <path class="GUNDAN_ARMADILLO_OUTFIT_GUNDAN_ARMADILLO_OUTFIT-25_cls-3" d="M298.93,395.3a77.13,77.13,0,0,1-4.86,14.9h0C291,417,286.67,423.37,280.72,428a36.6,36.6,0,0,0,4.37-14,44.11,44.11,0,0,0-1.85-19.07c-1.91,13.13-13.4,21.06-13.4,21.06a30.86,30.86,0,0,0-.35-18.55,17.11,17.11,0,0,0-5.51,6.81c-1.32,3-1.73,6.28-2.07,10.09-5.75-5.44-6.26-27.27-6.26-27.27s-1.23,6.44-8.62,10.79c4.65-5.54,1.34-11.68,1.15-12,22.27-5.05,43.34-14.85,58.14-32.52v0c14.92.1,30.49,0,47.31-.18,2.49,4.94,1.74,12,1.7,12.38h0c-.88.6-1.75,1.22-2.62,1.84-8.78,6.26-13.43,14.66-10.42,18.56,2.25,2.95,5.92,7.47,17.75,3.93a18.85,18.85,0,0,1-.8,8.73,34.26,34.26,0,0,1-7.81,12.61s.78-6.27-.79-8.39-3.57,1.11-3.57,1.11-1-5.1-2.79-4.18-5.14,10.12-5.14,10.12-.86-6.11-2.78-7.05-2.52,4.62-4.7,13.83c.18-5.32-1.25-11-3-15.75A73.32,73.32,0,0,0,323.12,389c-1,5.53-3.39,11-8.19,14.68a17.91,17.91,0,0,1-1.56,1.08c.12-.26.22-.52.31-.77,1.44-4.21-.74-8.32-6.4-2.32C308.5,397.59,305.54,389.57,298.93,395.3Z" />
  <path class="GUNDAN_ARMADILLO_OUTFIT_GUNDAN_ARMADILLO_OUTFIT-25_cls-6" d="M363.38,388.68s2.38,4.59,5.25,11.42a24.35,24.35,0,0,0-7.09,4.14c-.79-2.06-1.57-4-2.3-5.7a18.85,18.85,0,0,0,.8-8.73h0C361.09,389.5,362.19,389.12,363.38,388.68Z" />
  <path class="GUNDAN_ARMADILLO_OUTFIT_GUNDAN_ARMADILLO_OUTFIT-25_cls-10" d="M107.59,423.27c-1,3.93-2.31,10.26-3.14,14.66H61.6A135.92,135.92,0,0,1,63.41,416a53,53,0,0,0,14.14,5c1.16.24,2.38.48,3.66.68a135.38,135.38,0,0,0,18.36,1.77Q103.89,423.5,107.59,423.27Z" />
  <path class="GUNDAN_ARMADILLO_OUTFIT_GUNDAN_ARMADILLO_OUTFIT-25_cls-13" d="M77.55,420.94a116.94,116.94,0,0,0,0,16.54c-.53.15-1,.29-1.56.45H61.6A135.92,135.92,0,0,1,63.41,416,53,53,0,0,0,77.55,420.94Z" />
  <path class="GUNDAN_ARMADILLO_OUTFIT_GUNDAN_ARMADILLO_OUTFIT-25_cls-13" d="M88.37,375.37a131.43,131.43,0,0,0-4.5,12.55A83.28,83.28,0,0,1,73,381.85c.84-2.09,1.68-4.13,2.55-6.11,1.1-2.5,2.22-4.91,3.37-7.26C80.79,370.81,83.79,373.12,88.37,375.37Z" />
  <path class="GUNDAN_ARMADILLO_OUTFIT_GUNDAN_ARMADILLO_OUTFIT-25_cls-7" d="M107.59,423.27c-1,3.93-2.31,10.26-3.14,14.66H97.72a142.19,142.19,0,0,1,1.85-14.54Q103.89,423.5,107.59,423.27Z" />
  <path class="GUNDAN_ARMADILLO_OUTFIT_GUNDAN_ARMADILLO_OUTFIT-25_cls-7" d="M121.86,384.49a149.24,149.24,0,0,0-6.78,15.17q-3.85-1.59-8.45-3.2c2-6,4-10.73,5.13-13.52A85.46,85.46,0,0,0,121.86,384.49Z" />
  <path class="GUNDAN_ARMADILLO_OUTFIT_GUNDAN_ARMADILLO_OUTFIT-25_cls-7" d="M235.66,437.93H116.57q1.35-7.11,3-13.39l1.57,0h.46l1.38,0,1.26,0c1.82,0,4.14.11,6.88.2l.71,0c2.87.1,6.17.25,9.81.44l1.1.05.75,0,3.05.17h0l1.9.11,5.08.33,3,.21c1.89.13,3.83.27,5.8.44l1,.08.21,0,.48,0,.27,0,.59.05.59.05.89.07,1.59.14.68.06,2.58.24,1.2.11,3.19.31,1.73.17c1.79.19,3.61.38,5.43.59.81.08,1.62.18,2.42.28,2.07.24,4.16.49,6.25.77h0l.41.05,4.26.56.13,0,4.29.62c1.21.17,2.4.36,3.61.55l2.84.46c1.81.29,3.61.6,5.42.93,1.28.22,2.54.46,3.81.71l2.16.41,2,.4,2,.4q3.91.83,7.71,1.75l1.77.42C233.14,437.26,234.4,437.59,235.66,437.93Z" />
  <path class="GUNDAN_ARMADILLO_OUTFIT_GUNDAN_ARMADILLO_OUTFIT-25_cls-7" d="M191.9,429.7v0l-.41-.07h0c-1.42-.29.42-.26.42-.26S191.89,429.5,191.9,429.7Z" />
  <path class="GUNDAN_ARMADILLO_OUTFIT_GUNDAN_ARMADILLO_OUTFIT-25_cls-9" d="M207.44,406.67c.91,2.88-.24,22.43-.41,25.24,0,.21,0,.33,0,.33l-4.47-.72v6.41H191.73a68.82,68.82,0,0,0,.17-8.21c.77.13,2.09.3,4.26.54l.13,0a180.35,180.35,0,0,0-.52-25.16l5,.8a49.06,49.06,0,0,0-1.68-16.08l12,.35c1.11,3.6,2.27,17.86,2.27,17.86S210.49,407.42,207.44,406.67Z" />
  <path class="GUNDAN_ARMADILLO_OUTFIT_GUNDAN_ARMADILLO_OUTFIT-25_cls-11" d="M178,402.94l-10.16-.78s4.17,9.83,4.57,25.37l-1.2-.11-4.57-.41-1.17-.1-.59-.05-.59-.05-.18,0h-.09l-.48,0-.21,0-1-.08s1.2,5.18,2.2,11.28h-48q1.35-7.11,3-13.39c.26-1,.52-2,.78-3,.37-.08.72-.17,1.06-.26,5.63-1.7,9.83-3.22,10.79-7.64.62-2.84-1.42-5.73-6.51-8.84.71-1.94,1.41-3.74,2.1-5.42A127.74,127.74,0,0,1,135,384.1l6.72.29h0a314.45,314.45,0,0,0,34.8,5A47.38,47.38,0,0,1,178,402.93Z" />
  <path class="GUNDAN_ARMADILLO_OUTFIT_GUNDAN_ARMADILLO_OUTFIT-25_cls-4" d="M247.91,326.87s34.73-2.73,70.25-24.38c14.87,2.23,17.19,15.39,17.19,15.39" />
  <path class="GUNDAN_ARMADILLO_OUTFIT_GUNDAN_ARMADILLO_OUTFIT-25_cls-4" d="M264.38,330.23s36.25-3.2,71-12.35c4.64-1.56,8,0,9.64,6.18s10.78,9.72,9,17.45" />
  <path class="GUNDAN_ARMADILLO_OUTFIT_GUNDAN_ARMADILLO_OUTFIT-25_cls-4" d="M247.91,326.87l.07,0h0l1.77.39.23.05,3.14.67.76.16,3,.61.08,0L258,329l2.09.41,2.11.41,2.14.41q3.09.57,6.28,1.13l2.14.37q3,.52,6.17,1l2.34.37c1.44.23,2.91.45,4.39.67q15.07,2.23,32.33,4l5.81.56.91.08,7.29.64,2.85.22,1.39.11c3.57.27,7.22.53,10.93.77l4.39.27a13.59,13.59,0,0,1,2.38,1.1,4.48,4.48,0,0,1,.8.59,3.64,3.64,0,0,1,1.12,3.17c0,.14,0,.27,0,.42a.13.13,0,0,1,0,.06l0,.27c0,.22-.08.46-.14.71s-.14.58-.23.9-.11.36-.17.56-.13.39-.2.59" />
  <path class="GUNDAN_ARMADILLO_OUTFIT_GUNDAN_ARMADILLO_OUTFIT-25_cls-4" d="M202.8,334l.26.06c66.7,15.39,152,14.78,152,14.78h0a6.31,6.31,0,0,1,2.76,1.42,2.39,2.39,0,0,1,.22.23l.18.23a4.29,4.29,0,0,1,.26.45,2.54,2.54,0,0,1,.06,1.91l-4.93.06c-16.82.18-32.4.28-47.32.18l-5.88,0a0,0,0,0,0,0,0l-5.26-.08c-2.45,0-4.9-.08-7.33-.13-3.65-.07-7.28-.17-10.89-.28l-2-.06-5.23-.18c-5.14-.2-10.26-.43-15.4-.71l-5.56-.31-.6,0c-2.4-.15-4.81-.3-7.22-.47l-3.63-.26-7.47-.57-3.5-.3c-1.24-.11-2.47-.21-3.7-.33l-3.72-.34-5.31-.52-3.32-.34c-2.16-.22-4.33-.46-6.52-.7q-5.76-.64-11.7-1.38l-4-.5-2.55-.33-1.73-.24c-1.72-.23-3.41-.47-5.06-.71l-3.13-.47-2-.3-2.15-.34-3.57-.6q-4-.69-7.68-1.39l-1.42-.28-1.52-.3-1.67-.34c-1.65-.34-3.25-.68-4.81-1-1.05-.23-2.07-.46-3.07-.7-2.77-.65-5.4-1.3-7.88-2l-.62-.17-.56-.15c-3.92-1.08-7.46-2.18-10.65-3.28l-1.78-.63-1-.37-1.73-.66-.23-.09c-1-.37-1.86-.74-2.74-1.12a47.43,47.43,0,0,1-12.07-6.89,14,14,0,0,1-2.52-2.71,7.33,7.33,0,0,1-.4-.63,5.79,5.79,0,0,1-.51-1.16c0-.12-.07-.23-.1-.34a3.84,3.84,0,0,1-.13-1.2c.12-.69.25-1.33.4-1.94s.29-1.18.46-1.71c.08-.27.16-.52.25-.77a13.75,13.75,0,0,1,2.9-5.13,2.64,2.64,0,0,1,.29-.29A5.16,5.16,0,0,1,112,305.9h0l1.51.72.15.07,1.34.61h0c1.07.48,2.43,1.07,4.11,1.76l1.14.47.68.27,1.44.58,1.09.43,2,.77c2.34.89,5,1.87,8.06,2.93l3.48,1.2,2.48.84,1.3.43.63.21,3.44,1.11.14.05c2.3.73,4.73,1.49,7.31,2.27l.16.05,4.25,1.27.45.14a0,0,0,0,1,0,0l3.44,1q8.76,2.52,19.33,5.27l3.14.8,1.17.3,2.22.56.42.1h0l1.83.45,2.29.56,1.61.39.23.06,1.79.43,3.16.75,5,1.17h0" />
  <path class="GUNDAN_ARMADILLO_OUTFIT_GUNDAN_ARMADILLO_OUTFIT-25_cls-4" d="M223.06,320.6h0c-47.31-13.5-67-28.93-76.93-32.1-16.2-5.19-13.42,8.19-31,18.57" />
  <path class="GUNDAN_ARMADILLO_OUTFIT_GUNDAN_ARMADILLO_OUTFIT-25_cls-5" d="M223.05,320.59h0a20,20,0,0,0,6.48,4.58,11.07,11.07,0,0,0,1.6.52" />
  <path class="GUNDAN_ARMADILLO_OUTFIT_GUNDAN_ARMADILLO_OUTFIT-25_cls-5" d="M231.14,325.7c.65,2.93,3.48,5.27,10.13,5.27,4.55,0,6.16-2.5,6.71-4.08a0,0,0,0,0,0,0,4.85,4.85,0,0,0,.29-1.23" />
  <path class="GUNDAN_ARMADILLO_OUTFIT_GUNDAN_ARMADILLO_OUTFIT-25_cls-4" d="M70.17,379.76A29.56,29.56,0,0,0,73,381.85c4.05,2.74,12.69,7.74,27.25,12.45,5.59,1.81,10.57,3.6,14.84,5.36a77.3,77.3,0,0,1,10.59,5.17c5.09,3.11,7.13,6,6.51,8.84-1,4.42-5.16,5.94-10.79,7.64-.34.09-.69.18-1.06.26a75,75,0,0,1-12.74,1.7,122.08,122.08,0,0,1-26.38-1.65A56.43,56.43,0,0,1,63.41,416c-12.6-6.73-8.52-15.67-6.69-23.31a27.37,27.37,0,0,1,7.42-13.16c3.39-3.22,7.45-4.9,11.41-3.77" />
  <path class="GUNDAN_ARMADILLO_OUTFIT_GUNDAN_ARMADILLO_OUTFIT-25_cls-4" d="M78.91,368.47c-5.38-6.68-1.56-13.53.63-19.65,3.51-9.78,12.36-17.43,20-14.39" />
  <path class="GUNDAN_ARMADILLO_OUTFIT_GUNDAN_ARMADILLO_OUTFIT-25_cls-4" d="M94.31,337.33s.6.65,1.9,1.78c2.89,2.53,9.27,7.41,20.36,12.86,1.88.95,3.91,1.89,6.07,2.84,20.65,9.08,26.54,16.16,24,21.69-1.13,2.42-3.88,5.29-9.34,6.93-.7.21-1.44.39-2.24.55a44.42,44.42,0,0,1-13.17.51,105.29,105.29,0,0,1-21.12-4.42c-12.11-3.67-18.6-7.6-21.83-11.59" />
  <path class="GUNDAN_ARMADILLO_OUTFIT_GUNDAN_ARMADILLO_OUTFIT-25_cls-4" d="M366.5,419.44a29.7,29.7,0,0,0,9.26,1.49,87.54,87.54,0,0,0,15.57-1.19,26.76,26.76,0,0,0,8.43-2.44c7.18-3.82,3.44-10.35,2.19-16.78-1.52-7.72-7.08-14.46-13.14-13.82" />
  <path class="GUNDAN_ARMADILLO_OUTFIT_GUNDAN_ARMADILLO_OUTFIT-25_cls-4" d="M393.48,391.74a12,12,0,0,1-1.68.82c-3.07,1.27-8.95,3.06-14.79,4.7a70.36,70.36,0,0,0-8.38,2.84,24.35,24.35,0,0,0-7.09,4.14c-2.88,2.65-3,5.25-2.28,7.73s2.13,5.63,7.24,7.46" />
  <path class="GUNDAN_ARMADILLO_OUTFIT_GUNDAN_ARMADILLO_OUTFIT-25_cls-4" d="M355.33,365.47c4.07-2.83,8.06-5.48,10.18-7.25a8.55,8.55,0,0,0,1.32-1.29" />
  <path class="GUNDAN_ARMADILLO_OUTFIT_GUNDAN_ARMADILLO_OUTFIT-25_cls-4" d="M360,389.81c-11.83,3.54-15.5-1-17.75-3.93-3-3.9,1.64-12.3,10.42-18.56.87-.62,1.74-1.24,2.62-1.84" />
  <path class="GUNDAN_ARMADILLO_OUTFIT_GUNDAN_ARMADILLO_OUTFIT-25_cls-4" d="M360.31,354.19c5.44-2.65,12.68,1,16.94,7.72,3.22,5.08,8.38,9.55,5.29,14.84a10.6,10.6,0,0,1-1.18,1.61,26.18,26.18,0,0,1-7,5.13,88.71,88.71,0,0,1-11,5.19c-1.19.44-2.29.82-3.34,1.12" />
  <path class="GUNDAN_ARMADILLO_OUTFIT_GUNDAN_ARMADILLO_OUTFIT-25_cls-4" d="M73,381.85c.84-2.09,1.68-4.13,2.56-6.11,1.08-2.5,2.21-4.91,3.36-7.26h0" />
  <path class="GUNDAN_ARMADILLO_OUTFIT_GUNDAN_ARMADILLO_OUTFIT-25_cls-4" d="M96.21,339.11c1.17-1.68,2.3-3.24,3.37-4.68,5.27-7.1,8.92-11.07,8.92-11.07" />
  <path class="GUNDAN_ARMADILLO_OUTFIT_GUNDAN_ARMADILLO_OUTFIT-25_cls-4" d="M116.57,352s19.79,3.29,51.31,6.47" />
  <path class="GUNDAN_ARMADILLO_OUTFIT_GUNDAN_ARMADILLO_OUTFIT-25_cls-4" d="M191.38,362.12s58.34,1.84,82.37-2.68" />
  <path class="GUNDAN_ARMADILLO_OUTFIT_GUNDAN_ARMADILLO_OUTFIT-25_cls-4" d="M156.91,378s70.88,7.53,132.87-21.09" />
  <path class="GUNDAN_ARMADILLO_OUTFIT_GUNDAN_ARMADILLO_OUTFIT-25_cls-4" d="M125.67,404.83c.71-1.94,1.41-3.74,2.1-5.42A123.62,123.62,0,0,1,135,384" />
  <path class="GUNDAN_ARMADILLO_OUTFIT_GUNDAN_ARMADILLO_OUTFIT-25_cls-4" d="M116.57,437.93q1.34-7.11,3-13.39c.25-1,.52-2,.78-3" />
  <path class="GUNDAN_ARMADILLO_OUTFIT_GUNDAN_ARMADILLO_OUTFIT-25_cls-4" d="M107.59,423.27c-1,3.93-2.31,10.26-3.14,14.66" />
  <path class="GUNDAN_ARMADILLO_OUTFIT_GUNDAN_ARMADILLO_OUTFIT-25_cls-4" d="M115.08,399.66a149.24,149.24,0,0,1,6.78-15.17" />
  <path class="GUNDAN_ARMADILLO_OUTFIT_GUNDAN_ARMADILLO_OUTFIT-25_cls-4" d="M137.27,383.43s58.74,14.21,110.91,2.4c22.27-5.05,43.34-14.85,58.14-32.52" />
  <path class="GUNDAN_ARMADILLO_OUTFIT_GUNDAN_ARMADILLO_OUTFIT-25_cls-4" d="M294.07,410.2a77.13,77.13,0,0,0,4.86-14.9A96.38,96.38,0,0,0,301.18,378" />
  <path class="GUNDAN_ARMADILLO_OUTFIT_GUNDAN_ARMADILLO_OUTFIT-25_cls-4" d="M248.18,385.82h0c.19.34,3.5,6.48-1.15,12,7.39-4.35,8.62-10.79,8.62-10.79s.51,21.83,6.26,27.27c.34-3.81.75-7.11,2.07-10.09a17.11,17.11,0,0,1,5.51-6.81,30.86,30.86,0,0,1,.35,18.55s11.49-7.93,13.4-21.06A44.11,44.11,0,0,1,285.09,414a36.6,36.6,0,0,1-4.37,14c5.95-4.59,10.26-10.92,13.34-17.76" />
  <path class="GUNDAN_ARMADILLO_OUTFIT_GUNDAN_ARMADILLO_OUTFIT-25_cls-4" d="M323.12,388.94c1.89-10.12-.61-20.46-.61-20.46" />
  <path class="GUNDAN_ARMADILLO_OUTFIT_GUNDAN_ARMADILLO_OUTFIT-25_cls-4" d="M298.93,395.3c6.61-5.73,9.57,2.29,8.35,6.32,5.66-6,7.84-1.89,6.4,2.32-.09.25-.19.51-.31.77a17.91,17.91,0,0,0,1.56-1.08c4.8-3.68,7.16-9.15,8.19-14.68" />
  <path class="GUNDAN_ARMADILLO_OUTFIT_GUNDAN_ARMADILLO_OUTFIT-25_cls-4" d="M360,389.8h0a18.85,18.85,0,0,1-.8,8.73,34.26,34.26,0,0,1-7.81,12.61s.78-6.27-.79-8.39-3.57,1.11-3.57,1.11-1-5.1-2.79-4.18-5.14,10.12-5.14,10.12-.86-6.11-2.78-7.05-2.52,4.62-4.7,13.83c.18-5.32-1.25-11-3-15.75A73.32,73.32,0,0,0,323.12,389h0" />
  <path class="GUNDAN_ARMADILLO_OUTFIT_GUNDAN_ARMADILLO_OUTFIT-25_cls-4" d="M328.67,400.84c-4.39.7-9,1.62-13.74,2.79" />
  <path class="GUNDAN_ARMADILLO_OUTFIT_GUNDAN_ARMADILLO_OUTFIT-25_cls-4" d="M313.68,403.94a173.65,173.65,0,0,0-19.61,6.26h0" />
  <path class="GUNDAN_ARMADILLO_OUTFIT_GUNDAN_ARMADILLO_OUTFIT-25_cls-4" d="M285.09,414a154.45,154.45,0,0,0-19.34,10.55c-1.74-1-3.58-1.92-5.51-2.82-43.61-20.45-132.47-22.31-132.47-22.31" />
  <path class="GUNDAN_ARMADILLO_OUTFIT_GUNDAN_ARMADILLO_OUTFIT-25_cls-4" d="M265.75,424.54a55.82,55.82,0,0,0-1.77-20.3v0" />
  <path class="GUNDAN_ARMADILLO_OUTFIT_GUNDAN_ARMADILLO_OUTFIT-25_cls-4" d="M119.55,424.54s68.54.62,116.11,13.39" />
  <path class="GUNDAN_ARMADILLO_OUTFIT_GUNDAN_ARMADILLO_OUTFIT-25_cls-4" d="M283.2,437.93c3.16-1.35,42.08-17.63,77.69-16.21l6.38.88" />
  <path class="GUNDAN_ARMADILLO_OUTFIT_GUNDAN_ARMADILLO_OUTFIT-25_cls-4" d="M263,437.93a95.31,95.31,0,0,0-2.74-16.21" />
  <path class="GUNDAN_ARMADILLO_OUTFIT_GUNDAN_ARMADILLO_OUTFIT-25_cls-4" d="M382.54,376.75a101.29,101.29,0,0,1,6.27,9.95c1,1.88,2,3.82,3,5.86" />
  <path class="GUNDAN_ARMADILLO_OUTFIT_GUNDAN_ARMADILLO_OUTFIT-25_cls-4" d="M399.76,417.3a112.11,112.11,0,0,1,1.87,20.63h-340A135.91,135.91,0,0,1,63.41,416" />
  <path class="GUNDAN_ARMADILLO_OUTFIT_GUNDAN_ARMADILLO_OUTFIT-25_cls-4" d="M365.51,358.22c-2.19-1.84-4-3.18-5.2-4s-1.74-1.16-1.74-1.16" />
  <path class="GUNDAN_ARMADILLO_OUTFIT_GUNDAN_ARMADILLO_OUTFIT-25_cls-4" d="M355.33,365.48h0c0-.36.79-7.44-1.7-12.38" />
  <path class="GUNDAN_ARMADILLO_OUTFIT_GUNDAN_ARMADILLO_OUTFIT-25_cls-4" d="M378.21,437.93a71.06,71.06,0,0,0-2.45-17" />
  <path class="GUNDAN_ARMADILLO_OUTFIT_GUNDAN_ARMADILLO_OUTFIT-25_cls-4" d="M368.63,400.1c-2.87-6.83-5.25-11.42-5.25-11.42" />
  <path class="GUNDAN_ARMADILLO_OUTFIT_GUNDAN_ARMADILLO_OUTFIT-25_cls-4" d="M361.54,404.24c-.79-2.06-1.57-4-2.3-5.7" />
  <path class="GUNDAN_ARMADILLO_OUTFIT_GUNDAN_ARMADILLO_OUTFIT-25_cls-4" d="M366.5,419.43h0a75,75,0,0,1,2.76,18.49" />
  <ellipse class="GUNDAN_ARMADILLO_OUTFIT_GUNDAN_ARMADILLO_OUTFIT-25_cls-14" cx="117.64" cy="411.97" rx="4.64" ry="4.46" />
  <ellipse class="GUNDAN_ARMADILLO_OUTFIT_GUNDAN_ARMADILLO_OUTFIT-25_cls-14" cx="133.5" cy="372.94" rx="4.64" ry="4.46" />
  <ellipse class="GUNDAN_ARMADILLO_OUTFIT_GUNDAN_ARMADILLO_OUTFIT-25_cls-14" cx="352.11" cy="381.32" rx="3.76" ry="3.62" />
  <ellipse class="GUNDAN_ARMADILLO_OUTFIT_GUNDAN_ARMADILLO_OUTFIT-25_cls-14" cx="370.6" cy="410.69" rx="3.76" ry="3.62" />
</svg>