<svg id="outfit" xmlns="http://www.w3.org/2000/svg" viewBox="0 0 432 432">
  <defs>
    <style>.GUNDAN_ARMADILLO_OUTFIT_GUNDAN_ARMADILLO_OUTFIT-01_cls-1{fill:#5a7a83;}.GUNDAN_ARMADILLO_OUTFIT_GUNDAN_ARMADILLO_OUTFIT-01_cls-2{fill:#32565e;}.GUNDAN_ARMADILLO_OUTFIT_GUNDAN_ARMADILLO_OUTFIT-01_cls-3{fill:#fff;}.GUNDAN_ARMADILLO_OUTFIT_GUNDAN_ARMADILLO_OUTFIT-01_cls-4{fill:#494478;}.GUNDAN_ARMADILLO_OUTFIT_GUNDAN_ARMADILLO_OUTFIT-01_cls-5{fill:#161813;}.GUNDAN_ARMADILLO_OUTFIT_GUNDAN_ARMADILLO_OUTFIT-01_cls-6{fill:#1d1f1a;}.GUNDAN_ARMADILLO_OUTFIT_GUNDAN_ARMADILLO_OUTFIT-01_cls-7{fill:#201e1a;}.GUNDAN_ARMADILLO_OUTFIT_GUNDAN_ARMADILLO_OUTFIT-01_cls-8{fill:none;stroke:#000;stroke-linecap:round;stroke-linejoin:round;stroke-width:1.64px;}</style>
  </defs>
  <path class="GUNDAN_ARMADILLO_OUTFIT_GUNDAN_ARMADILLO_OUTFIT-01_cls-1" d="M344.77,371.27c1.94.6,1.68,4.4-.57,8.47s-5.67,6.89-7.59,6.29h0l-3-.94-28.5-8.85-14.32-4.45c1.94.61,5.34-2.21,7.61-6.28s2.49-7.87.55-8.47L311.62,361l27.54,8.54,5.59,1.74Z" />
  <path class="GUNDAN_ARMADILLO_OUTFIT_GUNDAN_ARMADILLO_OUTFIT-01_cls-1" d="M336.53,394.71c1.93.61,1.68,4.41-.58,8.48a19,19,0,0,1-2.21,3.2c-1.91,2.23-4,3.51-5.38,3.09l-1.26-.4-3.81-1.18-29.39-9.12-1.9-.59-9.5-2.95c1.94.61,5.34-2.21,7.6-6.28s2.5-7.87.56-8.47l10.85,3.36,28.86,8.95h0l6.15,1.9Z" />
  <path class="GUNDAN_ARMADILLO_OUTFIT_GUNDAN_ARMADILLO_OUTFIT-01_cls-1" d="M325.92,420.26c1.68.51,1.71,3.41.25,6.81-.24.55-.51,1.11-.82,1.67-2.26,4.06-5.67,6.87-7.59,6.27h0l-8.57-2.65-29.89-9.28-7.4-2.29c1.94.6,5.35-2.21,7.61-6.29s2.5-7.87.55-8.48l8.34,2.59,29.63,9.2,7.89,2.45Z" />
  <path class="GUNDAN_ARMADILLO_OUTFIT_GUNDAN_ARMADILLO_OUTFIT-01_cls-1" d="M312,444.86c1.94.6,1.68,4.4-.57,8.47-1.65,2.95-3.88,5.25-5.72,6.05a2.68,2.68,0,0,1-1.87.24h0l-6.8-2.11-5.36-1.66-30.49-9.46-3.21-1c1.94.6,5.35-2.22,7.61-6.29s2.5-7.87.55-8.47l5.1,1.58,1.28.4,30.05,9.33,9.43,2.93Z" />
  <path class="GUNDAN_ARMADILLO_OUTFIT_GUNDAN_ARMADILLO_OUTFIT-01_cls-2" d="M298.89,357c1.94.6,1.7,4.4-.55,8.47s-5.67,6.89-7.61,6.28-1.69-4.39.57-8.46S297,356.44,298.89,357Z" />
  <path class="GUNDAN_ARMADILLO_OUTFIT_GUNDAN_ARMADILLO_OUTFIT-01_cls-2" d="M290.66,380.49c1.94.6,1.69,4.39-.56,8.47s-5.66,6.89-7.6,6.28c-1.17-.36-1.55-1.88-1.17-3.92a15.32,15.32,0,0,1,1.74-4.55C285.31,382.7,288.72,379.88,290.66,380.49Z" />
  <path class="GUNDAN_ARMADILLO_OUTFIT_GUNDAN_ARMADILLO_OUTFIT-01_cls-2" d="M280,406c1.95.61,1.7,4.4-.55,8.48s-5.67,6.89-7.61,6.29-1.69-4.4.57-8.48S278.1,405.42,280,406Z" />
  <path class="GUNDAN_ARMADILLO_OUTFIT_GUNDAN_ARMADILLO_OUTFIT-01_cls-2" d="M266.14,430.63c1.95.6,1.7,4.39-.55,8.47s-5.67,6.89-7.61,6.29-1.69-4.39.57-8.47S264.2,430,266.14,430.63Z" />
  <path class="GUNDAN_ARMADILLO_OUTFIT_GUNDAN_ARMADILLO_OUTFIT-01_cls-3" d="M322.48,306.8c-2.93-1.59-5.18-5.08-9.48-7.19-24.56,45.19-73.17,79.59-73.8,80.09-50.18-27.83-105.29-76.54-107-78.39,1.48,2.13,53.95,63.06,105.52,93.6,10.91-.23,21.58-.82,30.66-1.92q-5.19-1.8-10.41-4C293.23,349.7,322.48,306.8,322.48,306.8Z" />
  <path class="GUNDAN_ARMADILLO_OUTFIT_GUNDAN_ARMADILLO_OUTFIT-01_cls-4" d="M327.1,409.08l-3.81-1.18c-1.65,3.25-3.4,6.55-5.28,9.91l7.89,2.45Z" />
  <path class="GUNDAN_ARMADILLO_OUTFIT_GUNDAN_ARMADILLO_OUTFIT-01_cls-4" d="M325.35,428.74c-2.26,4.06-5.67,6.87-7.59,6.27h0l-8.57-2.65c-2.07,3.18-4.26,6.38-6.6,9.58l9.43,2.93h0c1.94.6,1.68,4.4-.57,8.47-1.65,2.95-3.88,5.25-5.72,6.05a148.63,148.63,0,0,1-2.65,21.67l19.31.07c-.17-11.26,2.84-27.45,4.05-42.74a61.85,61.85,0,0,0-.27-11.31C325.93,427.62,325.66,428.18,325.35,428.74Z" />
  <path class="GUNDAN_ARMADILLO_OUTFIT_GUNDAN_ARMADILLO_OUTFIT-01_cls-4" d="M238,411c16.76,0,30.66,9.17,33.25,21.17l1.28.4q3.51-4.67,6.76-9.53l-7.4-2.29c-1.94-.61-1.69-4.4.57-8.48s5.65-6.89,7.59-6.29l8.34,2.59c1.91-3.28,3.75-6.57,5.52-9.83l-1.9-.59-11.14.09s-26,2.8-51.55,2.8A432.19,432.19,0,0,1,178.47,398c-.54,4.31-6.4,52.77.07,82.7l51.06.16c3.76-3.64,9.87-9.91,19.53-20.73A43.64,43.64,0,0,1,238,461.51c-18.6,0-33.68-11.3-33.68-25.24S219.39,411,238,411Z" />
  <path class="GUNDAN_ARMADILLO_OUTFIT_GUNDAN_ARMADILLO_OUTFIT-01_cls-4" d="M148.4,388.9l-1.68,1.23c-.36.26-.73.52-1.11.75,0,0-2.78,7.14-5.35,16.71,0,0,0,0,0,0v0c-2.53,9.42-4.85,21.17-4.09,30.73,1.2,15,4.12,30.93,4.06,42.16l29.46.09c-6.54-32-.19-81.3.12-83.62a2.33,2.33,0,0,1,.1-.44c-3.28-.66-5.64-1.37-6.74-2.11C159.38,392,152.32,389.9,148.4,388.9Z" />
  <path class="GUNDAN_ARMADILLO_OUTFIT_GUNDAN_ARMADILLO_OUTFIT-01_cls-5" d="M320,338.58s-2.86,9-8.34,22.41l27.54,8.54a180.16,180.16,0,0,0,5.42-19.87C342.4,349.37,325.32,342.31,320,338.58Z" />
  <path class="GUNDAN_ARMADILLO_OUTFIT_GUNDAN_ARMADILLO_OUTFIT-01_cls-5" d="M301.51,383.85l28.86,8.95c1.14-2.65,2.21-5.23,3.18-7.71l-28.5-8.85C303.93,378.71,302.75,381.26,301.51,383.85Z" />
  <path class="GUNDAN_ARMADILLO_OUTFIT_GUNDAN_ARMADILLO_OUTFIT-01_cls-5" d="M288.38,408.61l29.63,9.2c1.88-3.36,3.63-6.66,5.28-9.91l-29.39-9.12C292.13,402,290.29,405.33,288.38,408.61Z" />
  <path class="GUNDAN_ARMADILLO_OUTFIT_GUNDAN_ARMADILLO_OUTFIT-01_cls-5" d="M272.52,432.61l30.05,9.33c2.34-3.2,4.53-6.4,6.6-9.58l-29.89-9.28Q276,427.94,272.52,432.61Z" />
  <path class="GUNDAN_ARMADILLO_OUTFIT_GUNDAN_ARMADILLO_OUTFIT-01_cls-5" d="M135,394.09a50.81,50.81,0,0,1-14-.71s.61,5.73-14.07,13.66c-3.69-3.63-20.92-8.7-20.92-8.7s-.38-2.86-1.14-10.5C77.8,381,64.41,376.65,64.41,376.65l-5.65,2s-5.37,6.18-10.9,11.52c-3.1,3-6.24,5.72-8.5,6.95-6.29,3.45-6.12,10.71-6.12,10.71S42.4,418.72,48.32,424c1-3.19,4.37-11.93,5.83-15.74a193.53,193.53,0,0,1,28.94,4.87c19.39,5.17,28.35,19.19,32.77,30.15l-.76,1.53s3.28,4.64,16,.6h0a62.89,62.89,0,0,1-.44-13.7,203.26,203.26,0,0,1,3.49-20.29c-3,.19-5.33-1.57-3.14-3.81C133,405.55,134.27,399.39,135,394.09Z" />
  <path class="GUNDAN_ARMADILLO_OUTFIT_GUNDAN_ARMADILLO_OUTFIT-01_cls-6" d="M333.74,406.39c-1.91,2.23-4,3.51-5.38,3.09l-1.26-.4-1.2,11.18h0c1.68.51,1.71,3.41.25,6.81a61.85,61.85,0,0,1,.27,11.31c-1.21,15.29-4.22,31.48-4.05,42.74l5.25,0a42.38,42.38,0,0,1-.25-11.42c.27-1.7.68-3.91,1.16-6.43,1.59-8.48,3.94-20.53,3.57-29.25a.41.41,0,0,1,0-.11,14.85,14.85,0,0,1-.13-2c-.07-3.38.38-8,.38-8C332.87,415,333.74,406.39,333.74,406.39Z" />
  <path class="GUNDAN_ARMADILLO_OUTFIT_GUNDAN_ARMADILLO_OUTFIT-01_cls-6" d="M281.33,391.32l-2.18-.05c-3.21.68-6.85,1.25-10.79,1.72-9.08,1.1-19.75,1.69-30.66,1.92-30.89.64-63.45-1.74-65.72-4.27s-8.66-5-12.32-6.25c1.75-36.68-34.79-53.51-34.79-53.51l-3.23-4.46-10.8-8.35-2.53,7.13c6.72,1.71,16.07,4.73,16.07,4.73l-6.1,5s17.35,7.36,24.62,17,14,31.64,14,31.64-.89-.18-8.53,5.36c3.92,1,11,3.06,14.74,5.56,1.1.74,3.46,1.45,6.74,2.11a2.33,2.33,0,0,0-.1.44c-.31,2.32-6.66,51.61-.12,83.62h0l8.86,0c-6.47-29.93-.61-78.39-.07-82.7a432.19,432.19,0,0,0,50.84,3.12c25.52,0,51.55-2.8,51.55-2.8l11.14-.09-9.5-2.95C281.33,394.88,281,393.36,281.33,391.32Z" />
  <path class="GUNDAN_ARMADILLO_OUTFIT_GUNDAN_ARMADILLO_OUTFIT-01_cls-6" d="M131,407.59c-2.19,2.24.12,4,3.14,3.81a203.26,203.26,0,0,0-3.49,20.29,62.89,62.89,0,0,0,.44,13.7c1.1,9.3,3.33,19.11,4.12,24.33.1.64.16,1.3.2,2a46.33,46.33,0,0,1-.36,8.84l5.17,0c.06-11.23-2.86-27.13-4.06-42.16-.76-9.56,1.56-21.31,4.09-30.73v0h0c2.57-9.57,5.35-16.71,5.35-16.71A24.87,24.87,0,0,1,135,394.09C134.27,399.39,133,405.55,131,407.59Z" />
  <path class="GUNDAN_ARMADILLO_OUTFIT_GUNDAN_ARMADILLO_OUTFIT-01_cls-7" d="M411.54,459.62s-4.46-8.53-7.65-14.76S387.17,418,386.28,415s5.62-12.61,5.62-12.61-2.56-3.45-4.09-5.16S379.39,383.62,378,378s.39-17.48.39-18.63.76-5.83.76-5.83a33.87,33.87,0,0,0-6.12-6.67c-3.33-2.56-12.63-17.4-12.63-17.4h0a169.43,169.43,0,0,1-11.76,17.4,8.66,8.66,0,0,1-4,2.8,180.16,180.16,0,0,1-5.42,19.87l5.59,1.74h0c1.94.6,1.68,4.4-.57,8.47s-5.67,6.89-7.59,6.29h0l-3-.94c-1,2.48-2,5.06-3.18,7.71h0l6.15,1.9h0c1.93.61,1.68,4.41-.58,8.48a19,19,0,0,1-2.21,3.2s-.87,8.58-1.38,17.57c0,0-.45,4.58-.38,8,.06.64.11,1.31.13,2a.41.41,0,0,0,0,.11c.37,8.72-2,20.77-3.57,29.25-.48,2.52-.89,4.73-1.16,6.43a42.38,42.38,0,0,0,.25,11.42l86.45.31Z" />
  <path class="GUNDAN_ARMADILLO_OUTFIT_GUNDAN_ARMADILLO_OUTFIT-01_cls-7" d="M322.48,306.8S293.23,349.7,258,389q5.22,2.24,10.41,4c3.94-.47,7.58-1,10.79-1.72l2.18.05a15.32,15.32,0,0,1,1.74-4.55c2.24-4.07,5.65-6.89,7.59-6.28l10.85,3.36c1.24-2.59,2.42-5.14,3.54-7.61l-14.32-4.45c-1.94-.6-1.69-4.39.57-8.46s5.65-6.89,7.59-6.29L311.62,361c5.48-13.41,8.34-22.41,8.34-22.41.63-3.83,2.16-19.2,2.16-19.2l5.43-5.84S330.63,311.21,322.48,306.8Z" />
  <path class="GUNDAN_ARMADILLO_OUTFIT_GUNDAN_ARMADILLO_OUTFIT-01_cls-7" d="M132.18,301.31l-.05-.06a59.82,59.82,0,0,0-9.45,5.07c-3.18,2.39-8.54,1.24-11.47,3.34s-.16,5.26-.16,5.26l-.21,3.15,10.8,8.35,3.23,4.46s36.54,16.83,34.79,53.51c3.66,1.21,10,3.6,12.32,6.25s34.83,4.91,65.72,4.27C186.13,364.37,133.66,303.44,132.18,301.31Z" />
  <path class="GUNDAN_ARMADILLO_OUTFIT_GUNDAN_ARMADILLO_OUTFIT-01_cls-7" d="M135.19,469.72c-.79-5.22-3-15-4.12-24.33h0c-12.68,4-16-.6-16-.6-.29.6-.67,1.35-1.08,2.18s-.86,1.75-1.33,2.69c.47-.94.92-1.85,1.33-2.69s.79-1.58,1.08-2.18l.76-1.53c-4.42-11-13.38-25-32.77-30.15a193.53,193.53,0,0,0-28.94-4.87c-1.46,3.81-4.82,12.55-5.83,15.74h0a18.5,18.5,0,0,0-1,7s1,6.38-1.36,9.06-6,5.85-6,5.85l-2.21,5.36a102.81,102.81,0,0,0-6,21.53c-1.7,9-.77,7.33-.77,7.33l73.29.25,30.63.12a46.33,46.33,0,0,0,.36-8.84C135.35,471,135.29,470.36,135.19,469.72Zm-27.29-9.83c.14-.42.3-.84.46-1.23C108.2,459.05,108,459.47,107.9,459.89Zm2.53-5.63c.27-.56.56-1.16.87-1.78C111,453.1,110.7,453.7,110.43,454.26Z" />
  <path class="GUNDAN_ARMADILLO_OUTFIT_GUNDAN_ARMADILLO_OUTFIT-01_cls-1" d="M332.12,308.64l-4.57,4.9-5.43,5.84s-1.53,15.37-2.16,19.2c5.36,3.73,22.44,10.79,24.62,11.08a8.66,8.66,0,0,0,4-2.8,169.43,169.43,0,0,0,11.76-17.4,25.93,25.93,0,0,0,3-7.19C351.85,310.8,332.12,308.64,332.12,308.64Z" />
  <path class="GUNDAN_ARMADILLO_OUTFIT_GUNDAN_ARMADILLO_OUTFIT-01_cls-2" d="M348.87,346.55l-.24.31a8.66,8.66,0,0,1-4.05,2.8c-2.17-.29-19.26-7.35-24.62-11.08.63-3.83,2.17-19.2,2.17-19.2l5.43-5.84,4.09-4.39c-1.68,8.61-4.55,21.9-7.19,27.13C332.3,341.9,342,345,348.87,346.55Z" />
  <path class="GUNDAN_ARMADILLO_OUTFIT_GUNDAN_ARMADILLO_OUTFIT-01_cls-1" d="M238,411c-18.6,0-33.68,11.3-33.68,25.23s15.08,25.24,33.68,25.24a43.64,43.64,0,0,0,11.14-1.42c3.52-3.94,7.52-8.48,12.06-13.7l-3.21-1c-1.94-.6-1.69-4.39.57-8.47s5.65-6.89,7.59-6.29l5.1,1.58C268.65,420.21,254.75,411,238,411Z" />
  <path class="GUNDAN_ARMADILLO_OUTFIT_GUNDAN_ARMADILLO_OUTFIT-01_cls-1" d="M156.93,383.54s-.89-.18-8.52,5.36l-1.68,1.23c-.37.26-.73.52-1.11.75a24.91,24.91,0,0,1-10.57,3.21,50.76,50.76,0,0,1-14-.71s.6,5.73-14.07,13.66c-3.7-3.63-20.93-8.7-20.93-8.7s-.37-2.86-1.13-10.5C77.8,381,64.42,376.65,64.42,376.65l-5.65,2s.81-6.18,5.38-15.05a26.32,26.32,0,0,1-5.38-4.15c-.94-3.25,1.31-13.58,9.22-17.59,1.19,0,2.5.1,3.84.23,2.9.28,5.91.73,8,1.08l.29.05a166.73,166.73,0,0,1,28.13-18l0-.05c6.71,1.71,16.06,4.73,16.06,4.73l-6.1,5s17.35,7.36,24.62,17S156.93,383.54,156.93,383.54Z" />
  <path class="GUNDAN_ARMADILLO_OUTFIT_GUNDAN_ARMADILLO_OUTFIT-01_cls-2" d="M156.93,383.54s-.89-.18-8.52,5.36l-1.68,1.23c-.37.26-.73.52-1.11.75a24.91,24.91,0,0,1-10.57,3.21,50.76,50.76,0,0,1-14-.71s.6,5.73-14.07,13.66a13.27,13.27,0,0,0-3-2l16.39-17.71a97,97,0,0,0,15.09-.76c6.09-1,19.34-9.35,19.34-9.35C156.14,381,156.93,383.54,156.93,383.54Z" />
  <path class="GUNDAN_ARMADILLO_OUTFIT_GUNDAN_ARMADILLO_OUTFIT-01_cls-4" d="M91.47,363.79c-.14,1.08-.19,1.75-.19,1.75s3.48,9.29,16.16,6.62,15.4-11.72,15.4-11.72-1-1.66-2.44-3.71c-2-2.92-4.68-6.61-6-7.25a18.24,18.24,0,0,0-4.25-1.08,29.23,29.23,0,0,0-5-.34c-4.54.08-9.53,1.36-12.15,5.57C92.24,357.41,91.71,361.52,91.47,363.79Z" />
  <path class="GUNDAN_ARMADILLO_OUTFIT_GUNDAN_ARMADILLO_OUTFIT-01_cls-4" d="M79.88,343.18c-9.15,5.9-15.73,20.43-15.73,20.43a26.32,26.32,0,0,1-5.38-4.15c-.94-3.25,1.31-13.58,9.22-17.59,1.19,0,2.5.1,3.84.23C74.73,342.38,77.74,342.83,79.88,343.18Z" />
  <path class="GUNDAN_ARMADILLO_OUTFIT_GUNDAN_ARMADILLO_OUTFIT-01_cls-8" d="M132.18,301.31c1.48,2.13,53.95,63.06,105.52,93.6" />
  <path class="GUNDAN_ARMADILLO_OUTFIT_GUNDAN_ARMADILLO_OUTFIT-01_cls-8" d="M108.31,325.2l2.53-7.13.21-3.15s-2.78-3.16.16-5.26,8.29-1,11.47-3.34a59.82,59.82,0,0,1,9.45-5.07" />
  <path class="GUNDAN_ARMADILLO_OUTFIT_GUNDAN_ARMADILLO_OUTFIT-01_cls-8" d="M64.15,363.61a78.21,78.21,0,0,1,8.56-13.11,47.29,47.29,0,0,1,7.46-7.27,166.73,166.73,0,0,1,28.13-18v-.05c6.72,1.71,16.07,4.73,16.07,4.73l-6.1,5s17.35,7.36,24.62,17,14,31.64,14,31.64-.89-.18-8.53,5.36l-1.68,1.23c-.36.26-.73.52-1.11.75A24.87,24.87,0,0,1,135,394.09a50.81,50.81,0,0,1-14-.71s.61,5.73-14.07,13.66c-3.69-3.63-20.92-8.7-20.92-8.7s-.38-2.86-1.14-10.5C77.8,381,64.41,376.65,64.41,376.65l-5.65,2s.82-6.18,5.39-15.05" />
  <path class="GUNDAN_ARMADILLO_OUTFIT_GUNDAN_ARMADILLO_OUTFIT-01_cls-8" d="M80.17,343.23c-2.15-.36-5.32-.84-8.34-1.13-1.34-.13-2.66-.21-3.84-.23-7.91,4-10.16,14.34-9.23,17.59a26.37,26.37,0,0,0,5.39,4.15" />
  <path class="GUNDAN_ARMADILLO_OUTFIT_GUNDAN_ARMADILLO_OUTFIT-01_cls-8" d="M62.4,354.84c1.43-6.1,6.25-10.45,9.43-12.74" />
  <path class="GUNDAN_ARMADILLO_OUTFIT_GUNDAN_ARMADILLO_OUTFIT-01_cls-8" d="M91.47,363.79c-.14,1.08-.19,1.75-.19,1.75s3.48,9.29,16.16,6.62,15.4-11.72,15.4-11.72-1-1.66-2.44-3.71c-2-2.92-4.68-6.61-6-7.25a18.24,18.24,0,0,0-4.25-1.08,29.23,29.23,0,0,0-5-.34c-4.54.08-9.53,1.36-12.15,5.57C92.24,357.41,91.71,361.52,91.47,363.79Z" />
  <path class="GUNDAN_ARMADILLO_OUTFIT_GUNDAN_ARMADILLO_OUTFIT-01_cls-8" d="M115,352.66s-3.51,8.41-11.74,8.13l-.83-.05a11.37,11.37,0,0,1-4.76-1.47A10.74,10.74,0,0,1,93,353.63" />
  <path class="GUNDAN_ARMADILLO_OUTFIT_GUNDAN_ARMADILLO_OUTFIT-01_cls-8" d="M91.47,363.79s5.4,5.17,12.74,4.6,14.7-6.3,16.19-11.66" />
  <line class="GUNDAN_ARMADILLO_OUTFIT_GUNDAN_ARMADILLO_OUTFIT-01_cls-8" x1="105.13" y1="348.06" x2="97.66" y2="359.27" />
  <line class="GUNDAN_ARMADILLO_OUTFIT_GUNDAN_ARMADILLO_OUTFIT-01_cls-8" x1="110.17" y1="348.4" x2="102.42" y2="360.74" />
  <path class="GUNDAN_ARMADILLO_OUTFIT_GUNDAN_ARMADILLO_OUTFIT-01_cls-8" d="M48.32,424c-5.92-5.26-15.08-16.14-15.08-16.14s-.17-7.26,6.12-10.71c2.26-1.23,5.4-4,8.5-6.95,5.53-5.34,10.9-11.52,10.9-11.52" />
  <path class="GUNDAN_ARMADILLO_OUTFIT_GUNDAN_ARMADILLO_OUTFIT-01_cls-8" d="M37.84,407s6.94.24,16.31,1.2a193.53,193.53,0,0,1,28.94,4.87c19.39,5.17,28.35,19.19,32.77,30.15,4.25-6.11,4.54-19,4.54-19" />
  <path class="GUNDAN_ARMADILLO_OUTFIT_GUNDAN_ARMADILLO_OUTFIT-01_cls-8" d="M169.66,480.63l-29.46-.09-5.17,0-30.63-.12-73.29-.25s-.93,1.71.77-7.33a102.81,102.81,0,0,1,6-21.53l2.21-5.36s3.57-3.18,6-5.85S47.36,431,47.36,431a18.5,18.5,0,0,1,1-7h0c1-3.19,4.37-11.93,5.83-15.74" />
  <path class="GUNDAN_ARMADILLO_OUTFIT_GUNDAN_ARMADILLO_OUTFIT-01_cls-8" d="M360.39,329.46s9.3,14.84,12.63,17.4a33.87,33.87,0,0,1,6.12,6.67s-.76,4.68-.76,5.83-1.8,13-.39,18.63,8.29,17.49,9.82,19.21,4.09,5.16,4.09,5.16-6.51,9.56-5.62,12.61,14.42,23.66,17.61,29.89,7.65,14.76,7.65,14.76l2.55,21.83-86.45-.31-5.25,0-19.31-.07-8.87,0-27.69-.09-36.92-.12-51.06-.16" />
  <path class="GUNDAN_ARMADILLO_OUTFIT_GUNDAN_ARMADILLO_OUTFIT-01_cls-8" d="M156.93,383.54s1.09.3,2.73.85c3.66,1.21,10,3.6,12.32,6.24s34.83,4.92,65.72,4.28c10.91-.23,21.58-.82,30.66-1.92,3.94-.47,7.58-1,10.79-1.72l2.18.05" />
  <path class="GUNDAN_ARMADILLO_OUTFIT_GUNDAN_ARMADILLO_OUTFIT-01_cls-8" d="M148.4,388.9c3.92,1,11,3.06,14.74,5.56,1.1.74,3.46,1.45,6.74,2.11,2.41.5,5.32.95,8.59,1.39a432.19,432.19,0,0,0,50.84,3.12c25.52,0,51.55-2.8,51.55-2.8l11.14-.09" />
  <path class="GUNDAN_ARMADILLO_OUTFIT_GUNDAN_ARMADILLO_OUTFIT-01_cls-8" d="M140.24,407.62v0h0c2.57-9.57,5.35-16.71,5.35-16.71" />
  <path class="GUNDAN_ARMADILLO_OUTFIT_GUNDAN_ARMADILLO_OUTFIT-01_cls-8" d="M140.2,480.54c.06-11.23-2.86-27.13-4.06-42.16-.76-9.56,1.56-21.31,4.09-30.73" />
  <path class="GUNDAN_ARMADILLO_OUTFIT_GUNDAN_ARMADILLO_OUTFIT-01_cls-8" d="M140.26,407.59s0,0,0,0v0a7.68,7.68,0,0,1-6.11,3.75c-3,.19-5.33-1.57-3.14-3.81,2-2,3.29-8.2,4.06-13.5" />
  <path class="GUNDAN_ARMADILLO_OUTFIT_GUNDAN_ARMADILLO_OUTFIT-01_cls-8" d="M134.12,411.4a203.26,203.26,0,0,0-3.49,20.29,62.89,62.89,0,0,0,.44,13.7c1.1,9.3,3.33,19.11,4.12,24.33.1.64.16,1.3.2,2a46.33,46.33,0,0,1-.36,8.84" />
  <path class="GUNDAN_ARMADILLO_OUTFIT_GUNDAN_ARMADILLO_OUTFIT-01_cls-8" d="M326.17,427.07a61.85,61.85,0,0,1,.27,11.31c-1.21,15.29-4.22,31.48-4.05,42.74" />
  <path class="GUNDAN_ARMADILLO_OUTFIT_GUNDAN_ARMADILLO_OUTFIT-01_cls-8" d="M332,431.92c.06.64.11,1.31.13,2" />
  <path class="GUNDAN_ARMADILLO_OUTFIT_GUNDAN_ARMADILLO_OUTFIT-01_cls-8" d="M116.87,406.44s12.27,28-1,36.82c0,0-4.63-5.26-15-7.93s-19-2.11-16.45-.68S97,444.79,97,444.79" />
  <path class="GUNDAN_ARMADILLO_OUTFIT_GUNDAN_ARMADILLO_OUTFIT-01_cls-8" d="M88.38,406.44S78.12,391.5,47.86,390.18" />
  <path class="GUNDAN_ARMADILLO_OUTFIT_GUNDAN_ARMADILLO_OUTFIT-01_cls-8" d="M159.66,384.39c1.75-36.68-34.79-53.51-34.79-53.51l-3.23-4.46-10.8-8.35" />
  <path class="GUNDAN_ARMADILLO_OUTFIT_GUNDAN_ARMADILLO_OUTFIT-01_cls-8" d="M121.64,326.42l2.74,3.51s-27.51,9.74-36,19.43" />
  <line class="GUNDAN_ARMADILLO_OUTFIT_GUNDAN_ARMADILLO_OUTFIT-01_cls-8" x1="118.28" y1="334.89" x2="124.87" y2="330.88" />
  <path class="GUNDAN_ARMADILLO_OUTFIT_GUNDAN_ARMADILLO_OUTFIT-01_cls-8" d="M268.36,393q-5.19-1.8-10.41-4a199.67,199.67,0,0,1-18.75-9.26c-50.18-27.83-105.29-76.54-107-78.39l-.05-.06" />
  <path class="GUNDAN_ARMADILLO_OUTFIT_GUNDAN_ARMADILLO_OUTFIT-01_cls-8" d="M332.12,308.64s-5.62,23.83-7.66,27.64c14.63,8.8,24.16,10.58,24.16,10.58a169.43,169.43,0,0,0,11.76-17.4,25.93,25.93,0,0,0,3-7.19C351.85,310.8,332.12,308.64,332.12,308.64Z" />
  <path class="GUNDAN_ARMADILLO_OUTFIT_GUNDAN_ARMADILLO_OUTFIT-01_cls-8" d="M332.12,308.64l-4.57,4.9-5.43,5.84s-1.53,15.37-2.16,19.2c5.36,3.73,22.44,10.79,24.62,11.08a8.66,8.66,0,0,0,4-2.8" />
  <path class="GUNDAN_ARMADILLO_OUTFIT_GUNDAN_ARMADILLO_OUTFIT-01_cls-8" d="M324.46,336.28l-4.5,2.3s-2.86,9-8.34,22.41" />
  <path class="GUNDAN_ARMADILLO_OUTFIT_GUNDAN_ARMADILLO_OUTFIT-01_cls-8" d="M293.9,398.78c-1.77,3.26-3.61,6.55-5.52,9.83" />
  <path class="GUNDAN_ARMADILLO_OUTFIT_GUNDAN_ARMADILLO_OUTFIT-01_cls-8" d="M279.28,423.08q-3.24,4.86-6.76,9.53" />
  <path class="GUNDAN_ARMADILLO_OUTFIT_GUNDAN_ARMADILLO_OUTFIT-01_cls-8" d="M305.05,376.24c-1.12,2.47-2.3,5-3.54,7.61" />
  <path class="GUNDAN_ARMADILLO_OUTFIT_GUNDAN_ARMADILLO_OUTFIT-01_cls-8" d="M339.16,369.53a180.16,180.16,0,0,0,5.42-19.87" />
  <path class="GUNDAN_ARMADILLO_OUTFIT_GUNDAN_ARMADILLO_OUTFIT-01_cls-8" d="M323.29,407.9c-1.65,3.25-3.4,6.55-5.28,9.91" />
  <path class="GUNDAN_ARMADILLO_OUTFIT_GUNDAN_ARMADILLO_OUTFIT-01_cls-8" d="M309.17,432.36c-2.07,3.18-4.26,6.38-6.6,9.58" />
  <path class="GUNDAN_ARMADILLO_OUTFIT_GUNDAN_ARMADILLO_OUTFIT-01_cls-8" d="M330.37,392.8c1.14-2.65,2.21-5.23,3.18-7.71" />
  <path class="GUNDAN_ARMADILLO_OUTFIT_GUNDAN_ARMADILLO_OUTFIT-01_cls-8" d="M298.89,357c1.94.6,1.7,4.4-.55,8.47s-5.67,6.89-7.61,6.28-1.69-4.39.57-8.46S297,356.44,298.89,357Z" />
  <path class="GUNDAN_ARMADILLO_OUTFIT_GUNDAN_ARMADILLO_OUTFIT-01_cls-8" d="M336.61,386c1.92.6,5.33-2.21,7.59-6.29s2.51-7.87.57-8.47" />
  <polyline class="GUNDAN_ARMADILLO_OUTFIT_GUNDAN_ARMADILLO_OUTFIT-01_cls-8" points="290.73 371.79 305.05 376.24 333.56 385.09 336.59 386.03" />
  <polyline class="GUNDAN_ARMADILLO_OUTFIT_GUNDAN_ARMADILLO_OUTFIT-01_cls-8" points="298.89 357.04 311.63 360.99 339.16 369.53 344.75 371.27" />
  <path class="GUNDAN_ARMADILLO_OUTFIT_GUNDAN_ARMADILLO_OUTFIT-01_cls-8" d="M290.66,380.49c1.94.6,1.69,4.39-.56,8.47s-5.66,6.89-7.6,6.28c-1.17-.36-1.55-1.88-1.17-3.92a15.32,15.32,0,0,1,1.74-4.55C285.31,382.7,288.72,379.88,290.66,380.49Z" />
  <path class="GUNDAN_ARMADILLO_OUTFIT_GUNDAN_ARMADILLO_OUTFIT-01_cls-8" d="M328.36,409.48c1.37.42,3.47-.86,5.38-3.09a19,19,0,0,0,2.21-3.2c2.26-4.07,2.51-7.87.58-8.48" />
  <polyline class="GUNDAN_ARMADILLO_OUTFIT_GUNDAN_ARMADILLO_OUTFIT-01_cls-8" points="282.5 395.24 292 398.19 293.9 398.78 323.29 407.9 327.1 409.08 328.36 409.48" />
  <polyline class="GUNDAN_ARMADILLO_OUTFIT_GUNDAN_ARMADILLO_OUTFIT-01_cls-8" points="290.66 380.49 301.51 383.86 330.37 392.8 330.37 392.81 336.52 394.71" />
  <path class="GUNDAN_ARMADILLO_OUTFIT_GUNDAN_ARMADILLO_OUTFIT-01_cls-8" d="M280,406c1.95.61,1.7,4.4-.55,8.48s-5.67,6.89-7.61,6.29-1.69-4.4.57-8.48S278.1,405.42,280,406Z" />
  <path class="GUNDAN_ARMADILLO_OUTFIT_GUNDAN_ARMADILLO_OUTFIT-01_cls-8" d="M317.76,435c1.92.6,5.33-2.21,7.59-6.27.31-.56.58-1.12.82-1.67,1.46-3.4,1.43-6.3-.25-6.81" />
  <polyline class="GUNDAN_ARMADILLO_OUTFIT_GUNDAN_ARMADILLO_OUTFIT-01_cls-8" points="271.88 420.79 279.28 423.08 309.17 432.36 317.74 435.01" />
  <polyline class="GUNDAN_ARMADILLO_OUTFIT_GUNDAN_ARMADILLO_OUTFIT-01_cls-8" points="280.04 406.02 288.38 408.61 318 417.81 325.9 420.26 327.1 409.08" />
  <path class="GUNDAN_ARMADILLO_OUTFIT_GUNDAN_ARMADILLO_OUTFIT-01_cls-8" d="M266.14,430.63c1.95.6,1.7,4.39-.55,8.47s-5.67,6.89-7.61,6.29-1.69-4.39.57-8.47S264.2,430,266.14,430.63Z" />
  <polyline class="GUNDAN_ARMADILLO_OUTFIT_GUNDAN_ARMADILLO_OUTFIT-01_cls-8" points="266.14 430.63 271.24 432.21 272.52 432.61 302.57 441.94 312 444.87" />
  <path class="GUNDAN_ARMADILLO_OUTFIT_GUNDAN_ARMADILLO_OUTFIT-01_cls-8" d="M346.49,341.83a3.32,3.32,0,0,1-.82-.12C340.15,340,330.4,335.3,330,335.1a1.42,1.42,0,0,1-.63-2.27,2.64,2.64,0,0,1,3-.48c.1,0,9.81,4.77,14.94,6.31,1.12.33,1.66,1.29,1.21,2.13A2.3,2.3,0,0,1,346.49,341.83Z" />
  <path class="GUNDAN_ARMADILLO_OUTFIT_GUNDAN_ARMADILLO_OUTFIT-01_cls-8" d="M239.19,379.71h0c.63-.5,49.24-34.9,73.8-80.09,4.3,2.11,6.55,5.6,9.48,7.19,8.15,4.41,5.07,6.74,5.07,6.74" />
  <path class="GUNDAN_ARMADILLO_OUTFIT_GUNDAN_ARMADILLO_OUTFIT-01_cls-8" d="M322.48,306.8S293.23,349.7,258,389" />
  <path class="GUNDAN_ARMADILLO_OUTFIT_GUNDAN_ARMADILLO_OUTFIT-01_cls-8" d="M386.88,402.36s-7.58,24-23.47,35.65c0,0,15.4-6.41,16.42-7.46" />
  <path class="GUNDAN_ARMADILLO_OUTFIT_GUNDAN_ARMADILLO_OUTFIT-01_cls-8" d="M343.83,396s-4.46,18.72-11.47,28c.51-9,1.38-17.57,1.38-17.57" />
  <path class="GUNDAN_ARMADILLO_OUTFIT_GUNDAN_ARMADILLO_OUTFIT-01_cls-8" d="M357,371.79s-9.15,41.36-24.61,52.17c0,0-.45,4.58-.38,8a14.85,14.85,0,0,0,.13,2,.41.41,0,0,0,0,.11,4.41,4.41,0,0,0,.24,1c.89,2.14.74,6.59.74,6.59s-.86,7.9,1.26,9.87" />
  <path class="GUNDAN_ARMADILLO_OUTFIT_GUNDAN_ARMADILLO_OUTFIT-01_cls-8" d="M334.52,471.16s2.54-6.15,3.31-8.81l.78-2.65-5.51-7.2s.45-.35,1.26-1a135.8,135.8,0,0,0,21.34-22.55" />
  <path class="GUNDAN_ARMADILLO_OUTFIT_GUNDAN_ARMADILLO_OUTFIT-01_cls-8" d="M178.47,398c-.54,4.31-6.4,52.77.07,82.7l-8.86,0h0c-6.54-32-.19-81.3.12-83.62a2.33,2.33,0,0,1,.1-.44" />
  <path class="GUNDAN_ARMADILLO_OUTFIT_GUNDAN_ARMADILLO_OUTFIT-01_cls-8" d="M249.13,460.09A43.64,43.64,0,0,1,238,461.51c-18.6,0-33.68-11.3-33.68-25.24S219.39,411,238,411c16.76,0,30.66,9.17,33.25,21.17" />
  <path class="GUNDAN_ARMADILLO_OUTFIT_GUNDAN_ARMADILLO_OUTFIT-01_cls-8" d="M40.23,407.15a21.32,21.32,0,0,0,4,6.8" />
  <path class="GUNDAN_ARMADILLO_OUTFIT_GUNDAN_ARMADILLO_OUTFIT-01_cls-8" d="M154.81,377.21s-13.25,8.33-19.34,9.35a97,97,0,0,1-15.09.76L104,405" />
  <path class="GUNDAN_ARMADILLO_OUTFIT_GUNDAN_ARMADILLO_OUTFIT-01_cls-8" d="M120.75,307.31s34.33,27.41,43.51,41.16,20.92,28.47,20.16,25.79-5.88-17.53-5.88-17.53" />
  <path class="GUNDAN_ARMADILLO_OUTFIT_GUNDAN_ARMADILLO_OUTFIT-01_cls-8" d="M111.05,314.92s14.29,5.64,20.23,9.65,21.66,22.29,21.66,22.29l-6-12" />
  <path class="GUNDAN_ARMADILLO_OUTFIT_GUNDAN_ARMADILLO_OUTFIT-01_cls-8" d="M212,394.71s-11.23-14.77-14.8-18.47-2.81,4.17-2.81,4.17" />
  <path class="GUNDAN_ARMADILLO_OUTFIT_GUNDAN_ARMADILLO_OUTFIT-01_cls-8" d="M313.32,325.2S287,363.94,281.78,371.88s-17,19.58-17,19.58" />
  <path class="GUNDAN_ARMADILLO_OUTFIT_GUNDAN_ARMADILLO_OUTFIT-01_cls-8" d="M40.05,445.93s28.6-18.66,29.32-15.38S56.81,447,56.81,447" />
  <path class="GUNDAN_ARMADILLO_OUTFIT_GUNDAN_ARMADILLO_OUTFIT-01_cls-8" d="M379.14,353.53S367.33,394.58,357,405s-23.49,22.28-23.49,22.28,22.66-8.1,34.23-20.16" />
  <path class="GUNDAN_ARMADILLO_OUTFIT_GUNDAN_ARMADILLO_OUTFIT-01_cls-8" d="M64.41,376.65s-6.68,9.84-9.69,14.08c-5.73,4.37-6.64,5-6.86,7.58S54.94,404,51.37,408" />
  <path class="GUNDAN_ARMADILLO_OUTFIT_GUNDAN_ARMADILLO_OUTFIT-01_cls-8" d="M138.92,412.86s16.67,3.51,28.74,4.15" />
  <path class="GUNDAN_ARMADILLO_OUTFIT_GUNDAN_ARMADILLO_OUTFIT-01_cls-8" d="M136.19,427.68s20,2.89,30.85,2.48" />
</svg>