<svg xmlns="http://www.w3.org/2000/svg" viewBox="0 0 432 432">
  <defs>
    <style>.GUNDAN_LIZARD_OUTFIT_LIZARD_OUTFIT_12_cls-1{isolation:isolate;}.GUNDAN_LIZARD_OUTFIT_LIZARD_OUTFIT_12_cls-2{fill:#fff;}.GUNDAN_LIZARD_OUTFIT_LIZARD_OUTFIT_12_cls-3{fill:#5e9340;}.GUNDAN_LIZARD_OUTFIT_LIZARD_OUTFIT_12_cls-4{fill:#3f312d;}.GUNDAN_LIZARD_OUTFIT_LIZARD_OUTFIT_12_cls-5{fill:#cfd7d4;}.GUNDAN_LIZARD_OUTFIT_LIZARD_OUTFIT_12_cls-6{fill:#1e1019;}.GUNDAN_LIZARD_OUTFIT_LIZARD_OUTFIT_12_cls-7{fill:#62c6c2;}.GUNDAN_LIZARD_OUTFIT_LIZARD_OUTFIT_12_cls-8{fill:none;stroke:#010101;stroke-linecap:round;stroke-linejoin:round;stroke-width:1.74px;}.GUNDAN_LIZARD_OUTFIT_LIZARD_OUTFIT_12_cls-9{opacity:0.22;mix-blend-mode:multiply;}.GUNDAN_LIZARD_OUTFIT_LIZARD_OUTFIT_12_cls-10{fill:#010101;}</style>
  </defs>
  <g class="GUNDAN_LIZARD_OUTFIT_LIZARD_OUTFIT_12_cls-1">
    <g id="Outfit">
      <path class="GUNDAN_LIZARD_OUTFIT_LIZARD_OUTFIT_12_cls-2" d="M209.44,364.12c3.28,3.06,24.57,6.08,27.94,9.06Q241.19,368,245,362.9c-4.75.87-27.48,1.31-32.18,1.31C211.71,364.21,210.58,364.19,209.44,364.12Z" />
      <path class="GUNDAN_LIZARD_OUTFIT_LIZARD_OUTFIT_12_cls-2" d="M297.38,264.21c-16.45,25.9-34.71,57.61-57.61,78.61-29.89-20.26-76-60.17-100.43-85.9-2.07,1.88-12.26,9.68-14.33,11.55l.34.13a9.79,9.79,0,0,1,3.74,3.68c2.95,4.31,7.5,14.39,9.87,19,17.91,22.12,44.34,48.24,65.28,68,8.68,1.11,35.82.51,44.83-1.77,1.44-1.92,2.87-3.83,4.33-5.75,12.72-16.89,32.22-38,45.28-54.7a127.54,127.54,0,0,1,10.44-18.42,9.84,9.84,0,0,1,3.75-3.69l.33-.13C309.79,271.72,300.8,267.31,297.38,264.21Z" />
      <path class="GUNDAN_LIZARD_OUTFIT_LIZARD_OUTFIT_12_cls-3" d="M304,357.66c-1.88-5.42,2.89-13.65.51-14.91a3.68,3.68,0,0,0-.85-.32h0c-.24-1.93-.55-3.71-.9-5.29-.26-1.22-.54-2.33-.81-3.3a4.82,4.82,0,0,0,1.42-1.35,4.22,4.22,0,0,0,.71-2.3.93.93,0,0,0,0-.24,4.37,4.37,0,0,0-2.69-3.72,4.87,4.87,0,0,0-2.08-.44,4.6,4.6,0,0,0-4.77,4.4,3.93,3.93,0,0,0,.12,1c-2.18,2-4.43,4-6.75,5.78-7.28,5.72-21.76,14.6-29.83,17.7-.68.28-1.38.53-2.06.77-2.27.81-4.57,1.51-6.88,2.09-9,2.28-36.15,2.88-44.83,1.77a61.36,61.36,0,0,1-8-1.54c-8.87-2.34-17.28-6.74-24.71-10.62A133.74,133.74,0,0,1,159.06,340c-2.31-1.54-11.45-8.3-13.45-10.16a1.54,1.54,0,0,0,0-.37,4.6,4.6,0,0,0-4.78-4.4,5,5,0,0,0-2.08.44,4.4,4.4,0,0,0-2.69,3.71,2.09,2.09,0,0,0,0,.25,4.08,4.08,0,0,0,.71,2.29,4.61,4.61,0,0,0,1.42,1.36c-.28,1-.55,2.08-.81,3.3-.35,1.58-.66,3.36-.9,5.29h0a3.68,3.68,0,0,0-.85.32c-2.38,1.26,2.69,10.22.81,15.64a90.87,90.87,0,0,0-3.56,14.61,5.91,5.91,0,0,0,1.79,1,11.71,11.71,0,0,0,3.05.55,23.69,23.69,0,0,0,3.77-.14c.72-.09,1.42-.2,2.06-.32l.71-.14c.84-.17,1.55-.36,2.08-.51-.57-2.54,1.11-10.93,1.2-16.48,0-2.5-6.68-9.64-6.82-11.21a3.41,3.41,0,0,0-1.26-2.8,56.68,56.68,0,0,1,1.66-8.36,4.48,4.48,0,0,0,1.47-.31,55.11,55.11,0,0,1,1.21,6.66,3.41,3.41,0,0,0-1.26,2.79c-.13,1.56,7,8.72,7,11.22.09,5.53,1.77,13.93,1.2,16.46a19.86,19.86,0,0,0,2.08.53c.82.17,1.77.33,2.77.45a22.46,22.46,0,0,0,3.08.15,5.1,5.1,0,0,0,.68,0,11.14,11.14,0,0,0,3.07-.54,5.74,5.74,0,0,0,1.78-.95,89.63,89.63,0,0,0-3.56-14.63c-.31-.9-.62-1.74-.94-2.56h0c-1.57-4.06-10.12-12-12.1-13.06a5.21,5.21,0,0,0-.84-.33c-.14-1.17-.32-2.3-.52-3.35,2,1.53,11.09,8,13.24,9.3,3.25,1.94,6.56,3.68,9.69,5.31,7.66,4,16.33,8.54,25.76,11a68.39,68.39,0,0,0,14.46,2.16c1.14.07,2.27.09,3.41.09,4.7,0,27.43-.44,32.18-1.31a82.81,82.81,0,0,0,12.64-3.37l1.27-.47c7.55-2.81,21.53-11.13,28.47-16.12,2.12-1.52,4.2-3.13,6.22-4.85-.12.74-.24,1.52-.33,2.31a4.57,4.57,0,0,0-.84.33c-2,1-10.23,8.26-11.8,12.32h0c-.32.82-.63,1.66-.94,2.56a89,89,0,0,0-3.55,14.63,5.63,5.63,0,0,0,1.78.95,11,11,0,0,0,3.06.54,5.15,5.15,0,0,0,.68,0,22.68,22.68,0,0,0,3.09-.15c1-.12,1.94-.28,2.76-.45a19.22,19.22,0,0,0,2.08-.53c-.57-2.53,1.11-10.93,1.2-16.46,0-2.5,6.86-8.93,6.72-10.49a3.42,3.42,0,0,0-1.25-2.79,56.38,56.38,0,0,1,1.06-6.07c0-.2.1-.4.15-.58a2.69,2.69,0,0,0,.34.12,4.68,4.68,0,0,0,1.13.18,59.42,59.42,0,0,1,1.66,8.36c-.84.57-7.79,5.87-7.89,7.16-.13,1.56.08,3.62.11,6.12.1,5.55,1.77,13.94,1.2,16.48.54.15,1.24.34,2.08.51l.72.14c.63.12,1.34.23,2,.32a23.69,23.69,0,0,0,3.77.14,11.71,11.71,0,0,0,3.05-.55,5.91,5.91,0,0,0,1.79-1A89.65,89.65,0,0,0,304,357.66Z" />
      <path class="GUNDAN_LIZARD_OUTFIT_LIZARD_OUTFIT_12_cls-4" d="M171.58,347.11c7.43,3.88,15.84,8.28,24.71,10.62a61.36,61.36,0,0,0,8,1.54c-20.94-19.76-47.37-45.88-65.28-68C146,305,157.44,324.88,159.06,340A133.74,133.74,0,0,0,171.58,347.11Z" />
      <path class="GUNDAN_LIZARD_OUTFIT_LIZARD_OUTFIT_12_cls-4" d="M258,354.64c8.07-3.1,22.55-12,29.83-17.7a123.44,123.44,0,0,1,10.84-39.89c-13.06,16.68-32.56,37.81-45.28,54.7-1.46,1.92-2.89,3.83-4.33,5.75,2.31-.58,4.61-1.28,6.88-2.09C256.63,355.17,257.33,354.92,258,354.64Z" />
      <path class="GUNDAN_LIZARD_OUTFIT_LIZARD_OUTFIT_12_cls-4" d="M281.69,371.77a5.15,5.15,0,0,1-.68,0,11,11,0,0,1-3.06-.54,5.63,5.63,0,0,1-1.78-.95,89,89,0,0,1,3.55-14.63c.31-.9.62-1.74.94-2.56h0c0-1.91,6.66-8.19,6.75-10.11-6.94,5-20.92,13.31-28.47,16.12l-1.27.47A82.81,82.81,0,0,1,245,362.9q-3.84,5.13-7.65,10.28c-3.37-3-24.66-6-27.94-9.06A68.39,68.39,0,0,1,195,362c-9.43-2.49-18.1-7-25.76-11-3.13-1.63-6.44-3.37-9.69-5.31q.24,3.72.22,7.44h0c.32.82.63,1.66.94,2.56a89.63,89.63,0,0,1,3.56,14.63,5.74,5.74,0,0,1-1.78.95,11.14,11.14,0,0,1-3.07.54,5.1,5.1,0,0,1-.68,0c-3.35,33.27-14.75,66-32.45,95.15H314.14C296.44,437.74,285,405,281.69,371.77Z" />
      <path class="GUNDAN_LIZARD_OUTFIT_LIZARD_OUTFIT_12_cls-2" d="M382.12,413.05h0a5.42,5.42,0,0,0-2.45-2,9.69,9.69,0,0,0-6.94-.3c-3.43,1.12-6.67,4.15-9.28,8.84a1.55,1.55,0,0,0,.41,2,13.88,13.88,0,0,0,2.86,1.54c.91.41,1.93.83,3,1.24-.72,1.4-1.48,2.83-2.11,3.84a1.58,1.58,0,0,0,.67,2.26,1.94,1.94,0,0,0,.88.22,1.85,1.85,0,0,0,1.56-.84c.71-1.15,1.56-2.74,2.35-4.24l2.61.92c1.71.58,3.11,1,3.76,1.24a1.74,1.74,0,0,0,.59.1,1.79,1.79,0,0,0,1.69-1.1C382.16,425.69,385.21,417.36,382.12,413.05Zm-3.23,11.06-1.55-.52-2.74-.95c.41-.82.67-1.37.7-1.45a1.59,1.59,0,0,0-.92-2.16,1.83,1.83,0,0,0-2.35.83s-.31.63-.77,1.54c-1.11-.41-2.09-.81-2.9-1.16l-.94-.42a19.36,19.36,0,0,1,3-3.74,7.94,7.94,0,0,1,5.35-2.48,6.22,6.22,0,0,1,2.38.49c1.34.56,1.77,2.29,1.71,4.31A22.48,22.48,0,0,1,378.89,424.11Z" />
      <path class="GUNDAN_LIZARD_OUTFIT_LIZARD_OUTFIT_12_cls-2" d="M67.68,410.79a9.69,9.69,0,0,0-6.94.3,5.48,5.48,0,0,0-2.45,2h0c-3.09,4.31,0,12.64.38,13.74a1.81,1.81,0,0,0,1.69,1.1,1.84,1.84,0,0,0,.6-.1c.64-.21,2-.66,3.75-1.24l2.61-.92c.78,1.5,1.64,3.09,2.35,4.24a1.85,1.85,0,0,0,1.56.84,2,2,0,0,0,.89-.22,1.59,1.59,0,0,0,.67-2.26c-.64-1-1.4-2.44-2.12-3.84,1.09-.41,2.12-.83,3-1.24a14.46,14.46,0,0,0,2.86-1.54,1.55,1.55,0,0,0,.4-2C74.35,414.94,71.11,411.91,67.68,410.79Zm4.38,9.45c-.82.35-1.81.75-2.92,1.17l-.75-1.55A1.84,1.84,0,0,0,66,419a1.58,1.58,0,0,0-.92,2.16c0,.08.3.63.7,1.45l-2.74.95-1.55.52a22,22,0,0,1-1-5.71c-.06-2,.37-3.75,1.71-4.31a6.15,6.15,0,0,1,2.38-.49A7.93,7.93,0,0,1,70,416.08a19,19,0,0,1,3,3.74Z" />
      <path class="GUNDAN_LIZARD_OUTFIT_LIZARD_OUTFIT_12_cls-5" d="M372,419.86a1.83,1.83,0,0,1,2.35-.83,1.59,1.59,0,0,1,.92,2.16c0,.08-.29.63-.7,1.45l2.74.95c.91-1.7,1.76-3.44,2.55-5.19.06-2-.37-3.75-1.71-4.31a6.22,6.22,0,0,0-2.38-.49,7.94,7.94,0,0,0-5.35,2.48c-.66,1.4-1.35,2.78-2.09,4.16.81.35,1.79.75,2.9,1.16C371.72,420.49,372,419.89,372,419.86Z" />
      <path class="GUNDAN_LIZARD_OUTFIT_LIZARD_OUTFIT_12_cls-5" d="M62.24,414.09c-1.34.56-1.77,2.29-1.71,4.31.79,1.75,1.64,3.49,2.54,5.19l2.74-.95c-.4-.82-.67-1.37-.7-1.45A1.58,1.58,0,0,1,66,419a1.84,1.84,0,0,1,2.36.83l.75,1.55c1.11-.42,2.1-.82,2.92-1.17-.74-1.38-1.44-2.76-2.1-4.16a7.93,7.93,0,0,0-5.34-2.48A6.15,6.15,0,0,0,62.24,414.09Z" />
      <path class="GUNDAN_LIZARD_OUTFIT_LIZARD_OUTFIT_12_cls-5" d="M383.5,382.18c-1.68.18-3.25.89-4.91,1.22a84.09,84.09,0,0,1-5.86,27.39,9.69,9.69,0,0,1,6.94.3,5.42,5.42,0,0,1,2.45,2A90.71,90.71,0,0,0,388.19,383,8.87,8.87,0,0,0,383.5,382.18Z" />
      <path class="GUNDAN_LIZARD_OUTFIT_LIZARD_OUTFIT_12_cls-5" d="M375.7,426.55l-2.61-.92c-.79,1.5-1.64,3.09-2.35,4.24a1.85,1.85,0,0,1-1.56.84,1.94,1.94,0,0,1-.88-.22,1.58,1.58,0,0,1-.67-2.26c.63-1,1.39-2.44,2.11-3.84-1.09-.41-2.11-.83-3-1.24a87.93,87.93,0,0,1-6.85,10,210.36,210.36,0,0,1-19.4-62.4,14.57,14.57,0,0,1-10.06-3.9s-.08-.07-.12-.12a218.86,218.86,0,0,0,22.86,74q2.07,4,4.31,8,5.27,9.3,11.46,18.16h11.47a215.36,215.36,0,0,1-15.87-24.79A97.26,97.26,0,0,0,375.7,426.55Z" />
      <path class="GUNDAN_LIZARD_OUTFIT_LIZARD_OUTFIT_12_cls-5" d="M67.68,410.79a84.09,84.09,0,0,1-5.86-27.39c-1.65-.33-3.23-1-4.91-1.22a8.87,8.87,0,0,0-4.69.8A90.71,90.71,0,0,0,58.29,413a5.48,5.48,0,0,1,2.45-2A9.69,9.69,0,0,1,67.68,410.79Z" />
      <path class="GUNDAN_LIZARD_OUTFIT_LIZARD_OUTFIT_12_cls-5" d="M99.94,370.78a210.07,210.07,0,0,1-19.4,62.4,87.84,87.84,0,0,1-6.84-10c-.91.41-1.94.83-3,1.24.72,1.4,1.48,2.83,2.12,3.84a1.59,1.59,0,0,1-.67,2.26,2,2,0,0,1-.89.22,1.85,1.85,0,0,1-1.56-.84c-.71-1.15-1.57-2.74-2.35-4.24l-2.61.92A97.33,97.33,0,0,0,75.9,442.13,216.8,216.8,0,0,1,60,466.92H71.5q6.18-8.85,11.45-18.16c1.49-2.64,2.94-5.3,4.31-8a218.63,218.63,0,0,0,22.86-74l-.12.12A14.55,14.55,0,0,1,99.94,370.78Z" />
      <path class="GUNDAN_LIZARD_OUTFIT_LIZARD_OUTFIT_12_cls-6" d="M378.89,424.11a22.48,22.48,0,0,0,1-5.71c-.79,1.75-1.64,3.49-2.55,5.19Z" />
      <path class="GUNDAN_LIZARD_OUTFIT_LIZARD_OUTFIT_12_cls-6" d="M368.36,420.24c.74-1.38,1.43-2.76,2.09-4.16a19.36,19.36,0,0,0-3,3.74Z" />
      <path class="GUNDAN_LIZARD_OUTFIT_LIZARD_OUTFIT_12_cls-6" d="M72.06,420.24l.93-.42a19,19,0,0,0-3-3.74C70.62,417.48,71.32,418.86,72.06,420.24Z" />
      <path class="GUNDAN_LIZARD_OUTFIT_LIZARD_OUTFIT_12_cls-6" d="M63.07,423.59c-.9-1.7-1.75-3.44-2.54-5.19a22,22,0,0,0,1,5.71Z" />
      <path class="GUNDAN_LIZARD_OUTFIT_LIZARD_OUTFIT_12_cls-6" d="M399.86,383.66a13.68,13.68,0,0,0-4.72,2.27c-.89.66-2.26.11-3.23-.44s-1.76-1.33-2.69-1.94a9.34,9.34,0,0,0-1-.57A90.71,90.71,0,0,1,382.12,413h0c3.09,4.31,0,12.64-.38,13.74a1.79,1.79,0,0,1-1.69,1.1,1.74,1.74,0,0,1-.59-.1c-.65-.21-2-.66-3.76-1.24a97.26,97.26,0,0,1-11.18,15.58,215.36,215.36,0,0,0,15.87,24.79h33.23A243.38,243.38,0,0,0,399.86,383.66Z" />
      <path class="GUNDAN_LIZARD_OUTFIT_LIZARD_OUTFIT_12_cls-6" d="M353.15,440.78a218.86,218.86,0,0,1-22.86-74,16.32,16.32,0,0,1-1.21-1.28,18,18,0,0,0-3.75-3.69c-2.49-1.57-5.68-1.67-8.69-2.2a13.85,13.85,0,0,1-4-1.21c-2.55-1.28-4.23-3.61-5.63-6s4-9.18,1.95-11.09a38.41,38.41,0,0,0-6.28-4.2c.35,1.58.66,3.36.9,5.29h0a3.68,3.68,0,0,1,.85.32c2.38,1.26-2.39,9.49-.51,14.91a89.65,89.65,0,0,1,3.56,14.61,5.91,5.91,0,0,1-1.79,1,11.71,11.71,0,0,1-3.05.55,23.69,23.69,0,0,1-3.77-.14c-.71-.09-1.42-.2-2-.32,4.87,33.67,16.66,66.14,38,93.6h34.05q-6.19-8.85-11.46-18.16Q355.23,444.8,353.15,440.78Z" />
      <path class="GUNDAN_LIZARD_OUTFIT_LIZARD_OUTFIT_12_cls-6" d="M366.72,423.15a13.88,13.88,0,0,1-2.86-1.54,1.55,1.55,0,0,1-.41-2c2.61-4.69,5.85-7.72,9.28-8.84a84.09,84.09,0,0,0,5.86-27.39,4.76,4.76,0,0,1-.52.1,8.32,8.32,0,0,1-5.42-.86c-2-1.21-3.06-3.47-5.12-4.62a6.3,6.3,0,0,0-1.4-.56,14.41,14.41,0,0,0-5.48-.06c-2.32.28-4.8.62-6.94-.26s-3.42-2.7-5-4.23q-.25-.26-.51-.48c-1.5-1.34-3.47-2.39-5.44-1.94a10.69,10.69,0,0,1-2.33.29,210.36,210.36,0,0,0,19.4,62.4A87.93,87.93,0,0,0,366.72,423.15Z" />
      <path class="GUNDAN_LIZARD_OUTFIT_LIZARD_OUTFIT_12_cls-6" d="M77,419.63a1.55,1.55,0,0,1-.4,2,14.46,14.46,0,0,1-2.86,1.54,87.84,87.84,0,0,0,6.84,10,210.07,210.07,0,0,0,19.4-62.4,10.69,10.69,0,0,1-2.33-.29c-1.84-.43-3.7.48-5.16,1.69-.27.23-.54.48-.79.73-1.54,1.53-2.88,3.36-5,4.23s-4.62.54-6.94.26-4.86-.49-6.88.62a7.67,7.67,0,0,0-.73.48c-1.6,1.22-2.63,3.09-4.39,4.14a8.31,8.31,0,0,1-5.42.86,5.27,5.27,0,0,1-.52-.1,84.09,84.09,0,0,0,5.86,27.39C71.11,411.91,74.35,414.94,77,419.63Z" />
      <path class="GUNDAN_LIZARD_OUTFIT_LIZARD_OUTFIT_12_cls-6" d="M64.71,426.55c-1.71.58-3.11,1-3.75,1.24a1.84,1.84,0,0,1-.6.1,1.81,1.81,0,0,1-1.69-1.1c-.42-1.1-3.47-9.43-.38-13.74h0A90.71,90.71,0,0,1,52.22,383a9.19,9.19,0,0,0-1,.57c-.94.61-1.71,1.39-2.7,1.94s-2.34,1.1-3.22.44a13.82,13.82,0,0,0-4.73-2.27,243.62,243.62,0,0,0-13.76,83.26H60A216.8,216.8,0,0,0,75.9,442.13,97.33,97.33,0,0,1,64.71,426.55Z" />
      <path class="GUNDAN_LIZARD_OUTFIT_LIZARD_OUTFIT_12_cls-6" d="M135.65,342a3.68,3.68,0,0,1,.85-.32h0c.24-1.93.55-3.71.9-5.29a37.57,37.57,0,0,0-6.28,4.2c-2,1.91,3.65,9.48,2.25,11.82s-3.08,4.68-5.63,6a13.76,13.76,0,0,1-4,1.21c-3,.53-6.2.63-8.69,2.2a14.28,14.28,0,0,0-3.18,3c-.57.66-1.15,1.33-1.78,1.94a218.63,218.63,0,0,1-22.86,74c-1.37,2.68-2.82,5.34-4.31,8q-5.26,9.3-11.45,18.16h34c21.36-27.46,33.16-59.93,38-93.6-.64.12-1.34.23-2.06.32a23.69,23.69,0,0,1-3.77.14,11.71,11.71,0,0,1-3.05-.55,5.91,5.91,0,0,1-1.79-1,90.87,90.87,0,0,1,3.56-14.61C138.34,352.24,133.27,343.28,135.65,342Z" />
      <path class="GUNDAN_LIZARD_OUTFIT_LIZARD_OUTFIT_12_cls-3" d="M394.59,366a11,11,0,0,0-1.17-1.2,38.78,38.78,0,0,1-5.56,1.44,8.35,8.35,0,0,1,3.87,2,6.89,6.89,0,0,1,2.34,4.52,3.84,3.84,0,0,1-.51,2.31,3.63,3.63,0,0,1-2,1.44,5.35,5.35,0,0,1-5.28-1.44.63.63,0,0,0-.84,0,.5.5,0,0,0-.09.72,7.1,7.1,0,0,0,2.86,2.17,6.85,6.85,0,0,0,3.87.41,6.11,6.11,0,0,0,3.49-2,6.22,6.22,0,0,0,1.4-3.56A9.71,9.71,0,0,0,394.59,366Z" />
      <path class="GUNDAN_LIZARD_OUTFIT_LIZARD_OUTFIT_12_cls-3" d="M327.16,345.12c.58.9-5.67,6.26-5.61,7.28a3.74,3.74,0,0,1-.52,2.3,3.54,3.54,0,0,1-2,1.45,5.38,5.38,0,0,1-5.28-1.44.64.64,0,0,0-.85,0,.52.52,0,0,0-.08.73,7.26,7.26,0,0,0,2.86,2.17A7,7,0,0,0,317,358a6.83,6.83,0,0,0,2.59,0,6.21,6.21,0,0,0,3.5-2,6.29,6.29,0,0,0,1.39-3.56,8.1,8.1,0,0,0,0-1.21C323.14,350.66,328.45,345.73,327.16,345.12Z" />
      <path class="GUNDAN_LIZARD_OUTFIT_LIZARD_OUTFIT_12_cls-3" d="M373.39,366.66a8.79,8.79,0,0,1,.95.76,7,7,0,0,1,2.34,4.52,3.84,3.84,0,0,1-.51,2.31,3.58,3.58,0,0,1-2,1.44,5.35,5.35,0,0,1-5.29-1.44.61.61,0,0,0-.83,0,.5.5,0,0,0-.09.72,6.84,6.84,0,0,0,1.27,1.25,7.33,7.33,0,0,0,1.59.92,6.82,6.82,0,0,0,3.86.41,6,6,0,0,0,3.51-2,6.35,6.35,0,0,0,1.39-3.56,9,9,0,0,0-1.16-5C376.74,367,375.07,366.85,373.39,366.66Z" />
      <path class="GUNDAN_LIZARD_OUTFIT_LIZARD_OUTFIT_12_cls-3" d="M336.38,356.18a7.49,7.49,0,0,1,1.41,1.05,6.93,6.93,0,0,1,2.34,4.52,3.93,3.93,0,0,1-.51,2.31,3.65,3.65,0,0,1-2,1.44,5.38,5.38,0,0,1-5.29-1.44.65.65,0,0,0-.85,0,.52.52,0,0,0-.08.73c.09.11.18.23.28.33a7.07,7.07,0,0,0,2.59,1.84,6.73,6.73,0,0,0,3.86.4,6.07,6.07,0,0,0,3.49-1.95A6.17,6.17,0,0,0,343,361.8a8.64,8.64,0,0,0-.4-3.28C340.53,357.77,338.45,357,336.38,356.18Z" />
      <path class="GUNDAN_LIZARD_OUTFIT_LIZARD_OUTFIT_12_cls-3" d="M354.65,362.47c-1.64-.49-3.27-1-4.9-1.54a2.32,2.32,0,0,0,1.09.59l.31,0a8.29,8.29,0,0,1,4.7,2.16,6.85,6.85,0,0,1,2.35,4.52,3.76,3.76,0,0,1-.51,2.29,3.66,3.66,0,0,1-2,1.46,5.4,5.4,0,0,1-5.29-1.44.63.63,0,0,0-.84,0,.52.52,0,0,0-.08.73,8.17,8.17,0,0,0,.91.95,7,7,0,0,0,2,1.21,6.79,6.79,0,0,0,3.88.41,6.09,6.09,0,0,0,3.49-2,6.32,6.32,0,0,0,1.39-3.56,8.73,8.73,0,0,0-.77-4.19C358.43,363.6,356.52,363.05,354.65,362.47Z" />
      <path class="GUNDAN_LIZARD_OUTFIT_LIZARD_OUTFIT_12_cls-3" d="M126.64,354.71a5.38,5.38,0,0,1-5.28,1.44,3.54,3.54,0,0,1-2-1.45,3.74,3.74,0,0,1-.52-2.3c.06-1-6.49-7.11-5.91-8-1.3.61-2.6,1.19-3.9,1.76,0,.4,6.88,5.89,6.91,6.3a5.83,5.83,0,0,0,4.88,5.53,6.83,6.83,0,0,0,2.59,0,6.17,6.17,0,0,0,1.28-.38,7.26,7.26,0,0,0,2.86-2.17.51.51,0,0,0-.08-.73A.64.64,0,0,0,126.64,354.71Z" />
      <path class="GUNDAN_LIZARD_OUTFIT_LIZARD_OUTFIT_12_cls-3" d="M108.06,364.06a5.36,5.36,0,0,1-5.28,1.44,3.68,3.68,0,0,1-2-1.44,3.85,3.85,0,0,1-.5-2.31,7,7,0,0,1,2.33-4.52,7.49,7.49,0,0,1,1.41-1.05c-2.07.82-4.15,1.59-6.24,2.34a8.64,8.64,0,0,0-.41,3.28,5.79,5.79,0,0,0,4.88,5.52,6.72,6.72,0,0,0,3.86-.4,7.19,7.19,0,0,0,2.88-2.17.53.53,0,0,0-.09-.73A.65.65,0,0,0,108.06,364.06Z" />
      <path class="GUNDAN_LIZARD_OUTFIT_LIZARD_OUTFIT_12_cls-3" d="M90,370.55A5.4,5.4,0,0,1,84.71,372a3.6,3.6,0,0,1-2-1.46,3.7,3.7,0,0,1-.52-2.29,6.85,6.85,0,0,1,2.35-4.52,8.32,8.32,0,0,1,4.7-2.16l.31,0a2.32,2.32,0,0,0,1.09-.59c-1.63.53-3.26,1.05-4.89,1.54-1.88.58-3.78,1.13-5.7,1.63a8.72,8.72,0,0,0-.76,4.19,6.24,6.24,0,0,0,1.38,3.56,6.08,6.08,0,0,0,3.5,2,6.77,6.77,0,0,0,3.87-.41,7.35,7.35,0,0,0,2.28-1.5,7.21,7.21,0,0,0,.58-.66.51.51,0,0,0-.08-.73A.63.63,0,0,0,90,370.55Z" />
      <path class="GUNDAN_LIZARD_OUTFIT_LIZARD_OUTFIT_12_cls-3" d="M71.52,374.25a5.35,5.35,0,0,1-5.29,1.44,3.52,3.52,0,0,1-2-1.44,3.77,3.77,0,0,1-.52-2.31,6.92,6.92,0,0,1,2.35-4.52,9.76,9.76,0,0,1,.94-.76c-1.67.19-3.35.3-5,.33a8.86,8.86,0,0,0-1.16,5,6.26,6.26,0,0,0,1.38,3.56,6,6,0,0,0,3.51,2,6.81,6.81,0,0,0,3.24-.18,4.62,4.62,0,0,0,.62-.23,7.08,7.08,0,0,0,2.86-2.17.51.51,0,0,0-.08-.72A.63.63,0,0,0,71.52,374.25Z" />
      <path class="GUNDAN_LIZARD_OUTFIT_LIZARD_OUTFIT_12_cls-3" d="M54.13,375.12a5.37,5.37,0,0,1-5.29,1.44,3.63,3.63,0,0,1-2-1.44,3.91,3.91,0,0,1-.51-2.31,6.93,6.93,0,0,1,2.34-4.52,8.35,8.35,0,0,1,3.87-2A38.31,38.31,0,0,1,47,364.84a10.17,10.17,0,0,0-1.17,1.2,9.67,9.67,0,0,0-2.4,6.83,6.29,6.29,0,0,0,1.4,3.56,6.13,6.13,0,0,0,3.5,2,6.82,6.82,0,0,0,3.86-.41,7.1,7.1,0,0,0,2.86-2.17.5.5,0,0,0-.09-.72A.61.61,0,0,0,54.13,375.12Z" />
      <path class="GUNDAN_LIZARD_OUTFIT_LIZARD_OUTFIT_12_cls-2" d="M408.57,379.58c-3-1.62-4.82-4.57-6.49-7.37-1.76-3-3.87-5.68-5.88-8.47-.91.41-1.83.77-2.78,1.1a11,11,0,0,1,1.17,1.2,9.71,9.71,0,0,1,2.39,6.83,6.22,6.22,0,0,1-1.4,3.56,6.11,6.11,0,0,1-3.49,2,6.85,6.85,0,0,1-3.87-.41,7.1,7.1,0,0,1-2.86-2.17.5.5,0,0,1,.09-.72.63.63,0,0,1,.84,0,5.35,5.35,0,0,0,5.28,1.44,3.63,3.63,0,0,0,2-1.44,3.84,3.84,0,0,0,.51-2.31,6.89,6.89,0,0,0-2.34-4.52,8.35,8.35,0,0,0-3.87-2,43.21,43.21,0,0,1-6.39.7c-1,0-2,0-3,0a9,9,0,0,1,1.16,5,6.35,6.35,0,0,1-1.39,3.56,6,6,0,0,1-3.51,2,6.82,6.82,0,0,1-3.86-.41,7.33,7.33,0,0,1-1.59-.92,6.84,6.84,0,0,1-1.27-1.25.5.5,0,0,1,.09-.72.61.61,0,0,1,.83,0,5.35,5.35,0,0,0,5.29,1.44,3.58,3.58,0,0,0,2-1.44,3.84,3.84,0,0,0,.51-2.31,7,7,0,0,0-2.34-4.52,8.79,8.79,0,0,0-.95-.76,88.27,88.27,0,0,1-13.05-2.56,8.73,8.73,0,0,1,.77,4.19,6.32,6.32,0,0,1-1.39,3.56,6.09,6.09,0,0,1-3.49,2,6.79,6.79,0,0,1-3.88-.41,7,7,0,0,1-2-1.21,8.17,8.17,0,0,1-.91-.95.52.52,0,0,1,.08-.73.63.63,0,0,1,.84,0A5.4,5.4,0,0,0,355.7,372a3.66,3.66,0,0,0,2-1.46,3.76,3.76,0,0,0,.51-2.29,6.85,6.85,0,0,0-2.35-4.52,8.29,8.29,0,0,0-4.7-2.16l-.31,0a2.32,2.32,0,0,1-1.09-.59c-2.39-.77-4.77-1.58-7.12-2.41a8.64,8.64,0,0,1,.4,3.28,6.17,6.17,0,0,1-1.39,3.57,6.07,6.07,0,0,1-3.49,1.95,6.73,6.73,0,0,1-3.86-.4,7.07,7.07,0,0,1-2.59-1.84c-.1-.1-.19-.22-.28-.33a.52.52,0,0,1,.08-.73.65.65,0,0,1,.85,0,5.38,5.38,0,0,0,5.29,1.44,3.65,3.65,0,0,0,2-1.44,3.93,3.93,0,0,0,.51-2.31,6.93,6.93,0,0,0-2.34-4.52,7.49,7.49,0,0,0-1.41-1.05c-.85-.31-1.67-.64-2.51-1v0c-.79-.29-1.58-.61-2.36-.93h0c-2.37-1-4.71-2-7.05-3a8.1,8.1,0,0,1,0,1.21,6.29,6.29,0,0,1-1.39,3.56,6.21,6.21,0,0,1-3.5,2,6.83,6.83,0,0,1-2.59,0,7,7,0,0,1-1.28-.38,7.26,7.26,0,0,1-2.86-2.17.52.52,0,0,1,.08-.73.64.64,0,0,1,.85,0,5.38,5.38,0,0,0,5.28,1.44,3.54,3.54,0,0,0,2-1.45,3.74,3.74,0,0,0,.52-2.3c-.06-1,6.19-6.38,5.61-7.28a255.7,255.7,0,0,1-23.84-12.64,4.82,4.82,0,0,1-1.42,1.35c.27,1,.55,2.08.81,3.3a38.41,38.41,0,0,1,6.28,4.2c2,1.91-3.35,8.75-1.95,11.09s3.08,4.68,5.63,6a13.85,13.85,0,0,0,4,1.21c3,.53,6.2.63,8.69,2.2a18,18,0,0,1,3.75,3.69,16.32,16.32,0,0,0,1.21,1.28c0,.05.09.08.12.12a14.57,14.57,0,0,0,10.06,3.9,10.69,10.69,0,0,0,2.33-.29c2-.45,3.94.6,5.44,1.94q.25.22.51.48c1.54,1.53,2.88,3.36,5,4.23s4.62.54,6.94.26a14.41,14.41,0,0,1,5.48.06,6.3,6.3,0,0,1,1.4.56c2.06,1.15,3.11,3.41,5.12,4.62a8.32,8.32,0,0,0,5.42.86,4.76,4.76,0,0,0,.52-.1c1.66-.33,3.23-1,4.91-1.22a8.87,8.87,0,0,1,4.69.8,9.34,9.34,0,0,1,1,.57c.93.61,1.71,1.39,2.69,1.94s2.34,1.1,3.23.44a13.68,13.68,0,0,1,4.72-2.27,10.31,10.31,0,0,1,6.08.19,2.91,2.91,0,0,0,3.36-1.07A2.34,2.34,0,0,0,408.57,379.58Z" />
      <path class="GUNDAN_LIZARD_OUTFIT_LIZARD_OUTFIT_12_cls-2" d="M136.79,331.74A253.43,253.43,0,0,1,113,344.39c-.58.9,6,7,5.91,8a3.74,3.74,0,0,0,.52,2.3,3.54,3.54,0,0,0,2,1.45,5.38,5.38,0,0,0,5.28-1.44.64.64,0,0,1,.85,0,.51.51,0,0,1,.08.73,7.26,7.26,0,0,1-2.86,2.17,6.17,6.17,0,0,1-1.28.38,6.83,6.83,0,0,1-2.59,0,5.83,5.83,0,0,1-4.88-5.53c0-.41-6.95-5.9-6.91-6.3-2.34,1,2.24,7.13-.13,8.1h0c-.78.32-1.56.64-2.35.93l0,0c-.83.33-1.66.66-2.51,1a7.49,7.49,0,0,0-1.41,1.05,7,7,0,0,0-2.33,4.52,3.85,3.85,0,0,0,.5,2.31,3.68,3.68,0,0,0,2,1.44,5.36,5.36,0,0,0,5.28-1.44.65.65,0,0,1,.85,0,.53.53,0,0,1,.09.73,7.19,7.19,0,0,1-2.88,2.17,6.72,6.72,0,0,1-3.86.4,5.79,5.79,0,0,1-4.88-5.52,8.64,8.64,0,0,1,.41-3.28c-2.36.83-4.74,1.64-7.13,2.41a2.32,2.32,0,0,1-1.09.59l-.31,0a8.32,8.32,0,0,0-4.7,2.16,6.85,6.85,0,0,0-2.35,4.52,3.7,3.7,0,0,0,.52,2.29,3.6,3.6,0,0,0,2,1.46A5.4,5.4,0,0,0,90,370.55a.63.63,0,0,1,.84,0,.51.51,0,0,1,.08.73,7.21,7.21,0,0,1-.58.66,7.35,7.35,0,0,1-2.28,1.5,6.77,6.77,0,0,1-3.87.41,6.08,6.08,0,0,1-3.5-2,6.24,6.24,0,0,1-1.38-3.56,8.72,8.72,0,0,1,.76-4.19,88.27,88.27,0,0,1-13,2.56,9.76,9.76,0,0,0-.94.76,6.92,6.92,0,0,0-2.35,4.52,3.77,3.77,0,0,0,.52,2.31,3.52,3.52,0,0,0,2,1.44,5.35,5.35,0,0,0,5.29-1.44.63.63,0,0,1,.84,0,.51.51,0,0,1,.08.72,7.08,7.08,0,0,1-2.86,2.17,4.62,4.62,0,0,1-.62.23,6.81,6.81,0,0,1-3.24.18,6,6,0,0,1-3.51-2A6.26,6.26,0,0,1,60.83,372,8.86,8.86,0,0,1,62,367c-1,0-2,0-3,0a43.35,43.35,0,0,1-6.4-.7,8.35,8.35,0,0,0-3.87,2,6.93,6.93,0,0,0-2.34,4.52,3.91,3.91,0,0,0,.51,2.31,3.63,3.63,0,0,0,2,1.44,5.37,5.37,0,0,0,5.29-1.44.61.61,0,0,1,.83,0,.5.5,0,0,1,.09.72A7.1,7.1,0,0,1,52.19,378a6.82,6.82,0,0,1-3.86.41,6.13,6.13,0,0,1-3.5-2,6.29,6.29,0,0,1-1.4-3.56,9.67,9.67,0,0,1,2.4-6.83,10.17,10.17,0,0,1,1.17-1.2c-1-.33-1.88-.69-2.79-1.1-2,2.79-4.11,5.51-5.87,8.47-1.68,2.8-3.5,5.75-6.5,7.37a2.34,2.34,0,0,0-.73,3.2,2.91,2.91,0,0,0,3.36,1.07,10.32,10.32,0,0,1,6.08-.19,13.82,13.82,0,0,1,4.73,2.27c.88.66,2.26.11,3.22-.44s1.76-1.33,2.7-1.94a9.19,9.19,0,0,1,1-.57,8.87,8.87,0,0,1,4.69-.8c1.68.18,3.26.89,4.91,1.22a5.27,5.27,0,0,0,.52.1,8.31,8.31,0,0,0,5.42-.86c1.76-1.05,2.79-2.92,4.39-4.14a7.67,7.67,0,0,1,.73-.48c2-1.11,4.55-.92,6.88-.62s4.8.62,6.94-.26,3.42-2.7,5-4.23c.25-.25.52-.5.79-.73,1.46-1.21,3.32-2.12,5.16-1.69a10.69,10.69,0,0,0,2.33.29,14.55,14.55,0,0,0,10.06-3.9l.12-.12c.63-.61,1.21-1.28,1.78-1.94a14.28,14.28,0,0,1,3.18-3c2.49-1.57,5.69-1.67,8.69-2.2a13.76,13.76,0,0,0,4-1.21c2.55-1.28,4.23-3.61,5.63-6s-4.29-9.91-2.25-11.82a37.57,37.57,0,0,1,6.28-4.2c.26-1.22.53-2.34.81-3.3A4.61,4.61,0,0,1,136.79,331.74Z" />
      <path class="GUNDAN_LIZARD_OUTFIT_LIZARD_OUTFIT_12_cls-7" d="M393.16,359.17c-26.1,13.7-73.36-20-89.15-29.23a.93.93,0,0,1,0,.24,4.22,4.22,0,0,1-.71,2.3,255.7,255.7,0,0,0,23.84,12.64c1.29.61-4,5.54-2.72,6.12,2.34,1,4.68,2,7.05,3h0c.78.32,1.57.64,2.36.93v0c.84.33,1.66.66,2.51,1,2.07.82,4.15,1.59,6.25,2.34,2.35.83,4.73,1.64,7.12,2.41,1.63.53,3.26,1.05,4.9,1.54,1.87.58,3.78,1.13,5.69,1.63a88.27,88.27,0,0,0,13.05,2.56c1.68.19,3.35.3,5,.33,1,0,2,0,3,0a43.21,43.21,0,0,0,6.39-.7,38.78,38.78,0,0,0,5.56-1.44c.95-.33,1.87-.69,2.78-1.1C395.14,362.25,394.1,360.75,393.16,359.17Z" />
      <path class="GUNDAN_LIZARD_OUTFIT_LIZARD_OUTFIT_12_cls-7" d="M292.46,340.73a4.57,4.57,0,0,1,.84-.33c.09-.79.21-1.57.33-2.31-2,1.72-4.1,3.33-6.22,4.85-.09,1.92-6.75,8.2-6.75,10.11C282.23,349,290.47,341.78,292.46,340.73Z" />
      <path class="GUNDAN_LIZARD_OUTFIT_LIZARD_OUTFIT_12_cls-7" d="M146.29,336.32c.2,1.05.38,2.18.52,3.35a5.21,5.21,0,0,1,.84.33c2,1.05,10.53,9,12.1,13.06q0-3.72-.22-7.44C157.38,344.32,148.33,337.85,146.29,336.32Z" />
      <path class="GUNDAN_LIZARD_OUTFIT_LIZARD_OUTFIT_12_cls-7" d="M135,306.52a82.66,82.66,0,0,1,3.78,19,5,5,0,0,1,2.08-.44,4.6,4.6,0,0,1,4.78,4.4,1.54,1.54,0,0,1,0,.37c2,1.86,11.14,8.62,13.45,10.16-1.62-15.1-13-35-20.1-48.71-2.37-4.6-6.92-14.68-9.87-19a9.79,9.79,0,0,0-3.74-3.68l-.34-.13c-1.62-.59-3.75-.23-4.53,1.19-1.08,2-1.36,8.6-3.67,9.47C125.44,286.27,126.6,281.26,135,306.52Z" />
      <path class="GUNDAN_LIZARD_OUTFIT_LIZARD_OUTFIT_12_cls-7" d="M294.47,330.18a4.6,4.6,0,0,1,4.77-4.4,4.87,4.87,0,0,1,2.08.44,83.84,83.84,0,0,1,3.78-19,59.93,59.93,0,0,1,18.2-27.39C321,279,318.81,278,317.74,276c-.78-1.43-2.91-1.78-4.54-1.2l-.33.13a9.84,9.84,0,0,0-3.75,3.69,127.54,127.54,0,0,0-10.44,18.42,123.44,123.44,0,0,0-10.84,39.89c2.32-1.8,4.57-3.74,6.75-5.78A3.93,3.93,0,0,1,294.47,330.18Z" />
      <path class="GUNDAN_LIZARD_OUTFIT_LIZARD_OUTFIT_12_cls-7" d="M296.13,373.18c-.84-.17-1.54-.36-2.08-.51.57-2.54-1.1-10.93-1.2-16.48,0-2.5-.24-4.56-.11-6.12.1-1.29,7.05-6.59,7.89-7.16a59.42,59.42,0,0,0-1.66-8.36,4.68,4.68,0,0,1-1.13-.18,5.5,5.5,0,0,1-.49.46,56.38,56.38,0,0,0-1.06,6.07,3.42,3.42,0,0,1,1.25,2.79c.14,1.56-6.69,8-6.72,10.49-.09,5.53-1.77,13.93-1.2,16.46a19.22,19.22,0,0,1-2.08.53c-.82.17-1.77.33-2.76.45a22.68,22.68,0,0,1-3.09.15c3.35,33.27,14.75,66,32.45,95.15h20.73c-21.36-27.46-33.15-59.93-38-93.6Z" />
      <path class="GUNDAN_LIZARD_OUTFIT_LIZARD_OUTFIT_12_cls-7" d="M152.87,371.17a19.86,19.86,0,0,1-2.08-.53c.57-2.53-1.11-10.93-1.2-16.46,0-2.5-7.16-9.66-7-11.22a3.41,3.41,0,0,1,1.26-2.79,55.11,55.11,0,0,0-1.21-6.66,4.48,4.48,0,0,1-1.47.31,56.68,56.68,0,0,0-1.66,8.36,3.41,3.41,0,0,1,1.26,2.8c.14,1.57,6.86,8.71,6.82,11.21-.09,5.55-1.77,13.94-1.2,16.48-.53.15-1.24.34-2.08.51l-.71.14c-4.87,33.67-16.67,66.14-38,93.6h20.73c17.7-29.18,29.1-61.88,32.45-95.15a22.46,22.46,0,0,1-3.08-.15C154.64,371.5,153.69,371.34,152.87,371.17Z" />
      <path class="GUNDAN_LIZARD_OUTFIT_LIZARD_OUTFIT_12_cls-7" d="M106.56,355.19c.79-.29,1.57-.61,2.35-.93h0c2.37-1-2.21-7.06.13-8.1,1.3-.57,2.6-1.15,3.9-1.76a253.43,253.43,0,0,0,23.84-12.65,4.08,4.08,0,0,1-.71-2.29,2.09,2.09,0,0,1,0-.25c-15.79,9.25-62.74,43.67-88.84,30-.93,1.58-2,3.08-3,4.57.91.41,1.83.77,2.79,1.1a38.31,38.31,0,0,0,5.55,1.44,43.35,43.35,0,0,0,6.4.7c1,0,2,0,3,0,1.68,0,3.36-.14,5-.33a88.27,88.27,0,0,0,13-2.56c1.92-.5,3.82-1.05,5.7-1.63,1.63-.49,3.26-1,4.89-1.54,2.39-.77,4.77-1.58,7.13-2.41,2.09-.75,4.17-1.52,6.24-2.34.85-.31,1.68-.64,2.51-1Z" />
      <path class="GUNDAN_LIZARD_OUTFIT_LIZARD_OUTFIT_12_cls-6" d="M397.15,308.43a32.78,32.78,0,0,0-10.06-6.78,32,32,0,0,0-12,14.06c-1.33,3.17-2.07,6.53-3.31,9.74-1.76,4.54-4.74,9-10.59,10.37a15.41,15.41,0,0,1-9.59-.94c-12.8-5.52-25.23-12-35.38-20.66-4.5-3.85-6-9.78-3.41-14.84a35.93,35.93,0,0,1,8.48-11,40.92,40.92,0,0,1,8.78-5.81c-1-.46-2-.92-3-1.36-1.18-.5-2.48-.93-3.73-1.39a59.93,59.93,0,0,0-18.2,27.39,83.84,83.84,0,0,0-3.78,19,4.37,4.37,0,0,1,2.69,3.72c15.79,9.24,63.05,42.93,89.15,29.23,2.46-7.78,11.54-20,11.8-28.12S403,314.47,397.15,308.43Z" />
      <path class="GUNDAN_LIZARD_OUTFIT_LIZARD_OUTFIT_12_cls-6" d="M116.81,279.13c-1.26.46-2.55.89-3.73,1.39-1,.44-2,.89-3,1.36a41.17,41.17,0,0,1,8.78,5.81,36,36,0,0,1,8.48,11c2.56,5.05,1.09,11-3.41,14.84-10.16,8.68-22.58,15.14-35.38,20.66a15.43,15.43,0,0,1-9.6.94c-5.85-1.39-8.82-5.83-10.58-10.37-1.25-3.21-2-6.57-3.32-9.74a32,32,0,0,0-12-14.06A32.78,32.78,0,0,0,43,307.7c-5.88,6-8.07,14.51-7.81,22.61s9.65,21.08,12.1,28.86c26.1,13.7,73.05-20.72,88.84-30a4.4,4.4,0,0,1,2.69-3.71,82.66,82.66,0,0,0-3.78-19C126.6,281.26,125.44,286.27,116.81,279.13Z" />
      <path class="GUNDAN_LIZARD_OUTFIT_LIZARD_OUTFIT_12_cls-7" d="M79.8,306.72h1.59a9.09,9.09,0,0,0,0,1.17l-1.6.37a.48.48,0,0,0-.41.51l.12.72a.45.45,0,0,0,.56.31l1.61-.38a9.44,9.44,0,0,0,.42,1.16l-1.51.73a.48.48,0,0,0-.26.62l.35.68a.52.52,0,0,0,.67.17l1.53-.76a11.14,11.14,0,0,0,.78,1l-1.3,1.1a.45.45,0,0,0-.07.67l.57.58a.55.55,0,0,0,.74,0l1.3-1.12c.35.3.72.57,1.1.84l-1,1.39a.46.46,0,0,0,.15.68l.75.42a.55.55,0,0,0,.73-.17l1-1.42c.43.2.88.37,1.35.54l-.52,1.59a.51.51,0,0,0,.35.63l.87.23a.55.55,0,0,0,.67-.36l.49-1.62a14.3,14.3,0,0,0,1.5.18l0,1.68a.53.53,0,0,0,.54.52h.91a.53.53,0,0,0,.54-.52v-1.68a14.24,14.24,0,0,0,1.48-.18l.49,1.62A.56.56,0,0,0,97,319l.88-.23a.48.48,0,0,0,.34-.63l-.51-1.59c.46-.17.92-.34,1.36-.54l1,1.42a.54.54,0,0,0,.73.17l.75-.42a.47.47,0,0,0,.14-.68l-1-1.39a13.62,13.62,0,0,0,1.12-.84l1.3,1.12a.54.54,0,0,0,.73,0l.56-.58a.45.45,0,0,0-.06-.67l-1.3-1.1a8.45,8.45,0,0,0,.78-1l1.53.76a.52.52,0,0,0,.67-.17l.34-.68a.47.47,0,0,0-.25-.62l-1.52-.73a9.44,9.44,0,0,0,.42-1.16l1.62.38a.45.45,0,0,0,.56-.31l.12-.72a.48.48,0,0,0-.41-.51l-1.6-.37a7.58,7.58,0,0,0,0-1.17h1.58a.39.39,0,0,0,.42-.41l-.1-.69a.51.51,0,0,0-.53-.4H105.1c-.09-.38-.18-.76-.3-1.12l1.43-.33a.34.34,0,0,0,.27-.47l-.29-.63a.52.52,0,0,0-.59-.26l-1.43.32a8.14,8.14,0,0,0-.6-1l1.22-.61a.31.31,0,0,0,.11-.49l-.44-.54a.55.55,0,0,0-.63-.13l-1.22.6a9.37,9.37,0,0,0-.86-.81l1-.84a.29.29,0,0,0-.06-.48l-.56-.42a.54.54,0,0,0-.62,0l-1,.81a9.76,9.76,0,0,0-1-.61l.66-1a.32.32,0,0,0-.19-.46l-.66-.29a.5.5,0,0,0-.58.12l-.67,1c-.37-.14-.76-.26-1.16-.37l.33-1.07c.06-.18-.09-.35-.31-.4l-.71-.14c-.23,0-.47.06-.51.23l-.35,1.06c-.41-.06-.81-.1-1.22-.12v-1.1c0-.18-.19-.32-.43-.32H93c-.24,0-.43.14-.43.32v1.1c-.41,0-.82.06-1.22.12L91,295.84a.45.45,0,0,0-.51-.23l-.72.14c-.23.05-.36.22-.31.4l.32,1.07c-.39.11-.78.23-1.16.37l-.66-1a.51.51,0,0,0-.58-.12l-.65.29a.31.31,0,0,0-.19.46l.65,1a11,11,0,0,0-1,.61l-1-.81a.54.54,0,0,0-.62,0l-.57.42a.29.29,0,0,0,0,.48l.95.84a10.87,10.87,0,0,0-.86.81L82.8,300a.52.52,0,0,0-.61.13l-.45.54a.3.3,0,0,0,.1.49l1.22.61a9.58,9.58,0,0,0-.59,1L81,302.41a.53.53,0,0,0-.59.26l-.28.63a.33.33,0,0,0,.26.47l1.45.33a7.11,7.11,0,0,0-.3,1.12H80a.51.51,0,0,0-.52.4l-.1.69A.38.38,0,0,0,79.8,306.72Zm4.69-.76c.36-4,4.3-7,8.84-7s8.48,3,8.84,7c.38,4.35-3.57,8.16-8.84,8.16S84.11,310.31,84.49,306Z" />
      <path class="GUNDAN_LIZARD_OUTFIT_LIZARD_OUTFIT_12_cls-7" d="M335.3,301.86l1.22.61a8.42,8.42,0,0,0-.6,1l-1.44-.32a.5.5,0,0,0-.58.26l-.29.63a.33.33,0,0,0,.26.47l1.44.33A10.24,10.24,0,0,0,335,306h-1.56a.51.51,0,0,0-.52.4l-.1.69a.39.39,0,0,0,.42.41h1.58a7.58,7.58,0,0,0,.05,1.17l-1.61.37a.48.48,0,0,0-.4.51l.12.72a.44.44,0,0,0,.56.31l1.61-.38a9.39,9.39,0,0,0,.41,1.16l-1.51.73a.46.46,0,0,0-.25.62l.35.68a.51.51,0,0,0,.67.17l1.53-.76a8.45,8.45,0,0,0,.78,1l-1.31,1.1a.46.46,0,0,0-.06.67l.57.59a.56.56,0,0,0,.73,0l1.3-1.13a11.54,11.54,0,0,0,1.11.84l-1,1.4a.47.47,0,0,0,.15.67l.75.43a.56.56,0,0,0,.73-.18l.94-1.42c.45.2.9.37,1.37.54l-.52,1.59a.48.48,0,0,0,.35.63l.87.23a.54.54,0,0,0,.66-.36l.5-1.62a12.13,12.13,0,0,0,1.49.18v1.68a.52.52,0,0,0,.52.52h.92a.53.53,0,0,0,.54-.52l0-1.68a12.13,12.13,0,0,0,1.49-.18l.49,1.62a.55.55,0,0,0,.66.36l.89-.23a.49.49,0,0,0,.34-.63l-.51-1.59c.47-.17.92-.34,1.35-.54l1,1.42a.55.55,0,0,0,.72.18l.76-.43a.44.44,0,0,0,.14-.67l-.95-1.4a12.78,12.78,0,0,0,1.1-.84l1.3,1.13a.56.56,0,0,0,.73,0l.57-.59a.45.45,0,0,0-.07-.67l-1.29-1.1c.27-.33.54-.67.78-1l1.53.76a.5.5,0,0,0,.66-.17l.36-.68a.49.49,0,0,0-.27-.62l-1.51-.73a9.44,9.44,0,0,0,.42-1.16l1.62.38a.44.44,0,0,0,.55-.31l.13-.72a.5.5,0,0,0-.42-.51l-1.59-.37a9.09,9.09,0,0,0,0-1.17h1.59a.39.39,0,0,0,.42-.41l-.1-.69a.53.53,0,0,0-.53-.4h-1.56a8.39,8.39,0,0,0-.3-1.12l1.45-.33A.34.34,0,0,0,360,304l-.29-.63a.53.53,0,0,0-.6-.26l-1.42.32a10,10,0,0,0-.6-1l1.22-.61a.3.3,0,0,0,.11-.49l-.46-.54a.53.53,0,0,0-.62-.13l-1.22.6a9.33,9.33,0,0,0-.85-.81l1-.84a.29.29,0,0,0-.05-.48l-.57-.42a.53.53,0,0,0-.61,0l-1,.81a9.76,9.76,0,0,0-1-.61l.65-1a.32.32,0,0,0-.19-.46l-.66-.29a.5.5,0,0,0-.58.12l-.65,1c-.39-.14-.77-.26-1.16-.37l.32-1.07c.05-.18-.1-.35-.32-.4l-.71-.14a.46.46,0,0,0-.52.23l-.33,1.06c-.41-.06-.81-.1-1.23-.12v-1.1a.39.39,0,0,0-.43-.32h-.72c-.24,0-.43.14-.43.32v1.1a11.72,11.72,0,0,0-1.22.12l-.35-1.06a.45.45,0,0,0-.51-.23l-.71.14c-.23,0-.37.22-.31.4l.32,1.07c-.39.11-.79.23-1.16.37l-.67-1a.49.49,0,0,0-.57-.12l-.66.29a.31.31,0,0,0-.19.46l.66,1a9.76,9.76,0,0,0-1,.61l-1-.81a.53.53,0,0,0-.61,0l-.57.42a.29.29,0,0,0-.06.48l1,.84c-.3.25-.58.53-.86.81l-1.22-.6a.54.54,0,0,0-.62.13l-.44.54A.3.3,0,0,0,335.3,301.86Zm2.64,4.83c.35-4,4.29-7,8.84-7s8.48,3,8.84,7c.38,4.35-3.57,8.16-8.84,8.16S337.56,311,337.94,306.69Z" />
      <path class="GUNDAN_LIZARD_OUTFIT_LIZARD_OUTFIT_12_cls-7" d="M382.62,299.9a27.43,27.43,0,0,0-12.77,13.72c-1.1,2.7-1.7,5.55-2.71,8.28-1.44,3.85-3.88,7.62-8.65,8.81a12.29,12.29,0,0,1-7.84-.8c-10.46-4.69-20.62-10.18-28.92-17.55a10.62,10.62,0,0,1-2.79-12.61,30.73,30.73,0,0,1,6.93-9.3,33.78,33.78,0,0,1,8.84-5.74q-2.31-1.06-4.64-2.1a40.92,40.92,0,0,0-8.78,5.81,35.93,35.93,0,0,0-8.48,11c-2.56,5.06-1.09,11,3.41,14.84,10.15,8.68,22.58,15.14,35.38,20.66a15.41,15.41,0,0,0,9.59.94c5.85-1.39,8.83-5.83,10.59-10.37,1.24-3.21,2-6.57,3.31-9.74a32,32,0,0,1,12-14.06A47.58,47.58,0,0,0,382.62,299.9Z" />
      <path class="GUNDAN_LIZARD_OUTFIT_LIZARD_OUTFIT_12_cls-7" d="M118.82,287.69a41.17,41.17,0,0,0-8.78-5.81c-1.56.69-3.1,1.39-4.64,2.1a33.69,33.69,0,0,1,8.84,5.74,30.46,30.46,0,0,1,6.92,9.3,10.62,10.62,0,0,1-2.78,12.61c-8.31,7.37-18.46,12.86-28.93,17.55a12.19,12.19,0,0,1-7.83.79c-4.78-1.18-7.22-5-8.65-8.8-1-2.73-1.62-5.58-2.72-8.28a27.41,27.41,0,0,0-12.76-13.72A47.58,47.58,0,0,0,53,300.92,32,32,0,0,1,65,315c1.33,3.17,2.07,6.53,3.32,9.74,1.76,4.54,4.73,9,10.58,10.37a15.43,15.43,0,0,0,9.6-.94c12.8-5.52,25.22-12,35.38-20.66,4.5-3.85,6-9.79,3.41-14.84A36,36,0,0,0,118.82,287.69Z" />
      <path class="GUNDAN_LIZARD_OUTFIT_LIZARD_OUTFIT_12_cls-5" d="M346.78,299.68c-4.55,0-8.49,3-8.84,7-.38,4.35,3.56,8.16,8.84,8.16s9.22-3.81,8.84-8.16C355.26,302.7,351.31,299.68,346.78,299.68Z" />
      <path class="GUNDAN_LIZARD_OUTFIT_LIZARD_OUTFIT_12_cls-5" d="M93.33,299c-4.54,0-8.48,3-8.84,7-.38,4.35,3.56,8.16,8.84,8.16s9.22-3.81,8.84-8.16C101.81,302,97.87,299,93.33,299Z" />
      <path class="GUNDAN_LIZARD_OUTFIT_LIZARD_OUTFIT_12_cls-5" d="M380.58,299.23c-6.19-1.88-12.64-2.9-19-4.36-9.46-2.2-18.17-6.17-26.9-10.16a33.78,33.78,0,0,0-8.84,5.74,30.73,30.73,0,0,0-6.93,9.3,10.62,10.62,0,0,0,2.79,12.61c8.3,7.37,18.46,12.86,28.92,17.55a12.29,12.29,0,0,0,7.84.8c4.77-1.19,7.21-5,8.65-8.81,1-2.73,1.61-5.58,2.71-8.28a27.43,27.43,0,0,1,12.77-13.72C382,299.66,381.26,299.44,380.58,299.23ZM355.18,315a12.78,12.78,0,0,1-1.1.84l.95,1.4a.44.44,0,0,1-.14.67l-.76.43a.55.55,0,0,1-.72-.18l-1-1.42c-.43.2-.88.37-1.35.54l.51,1.59a.49.49,0,0,1-.34.63l-.89.23a.55.55,0,0,1-.66-.36l-.49-1.62a12.13,12.13,0,0,1-1.49.18l0,1.68a.53.53,0,0,1-.54.52h-.92a.52.52,0,0,1-.52-.52v-1.68a12.13,12.13,0,0,1-1.49-.18l-.5,1.62a.54.54,0,0,1-.66.36l-.87-.23a.48.48,0,0,1-.35-.63l.52-1.59c-.47-.17-.92-.34-1.37-.54l-.94,1.42a.56.56,0,0,1-.73.18l-.75-.43a.47.47,0,0,1-.15-.67l1-1.4a11.54,11.54,0,0,1-1.11-.84l-1.3,1.13a.56.56,0,0,1-.73,0l-.57-.59a.46.46,0,0,1,.06-.67l1.31-1.1a8.45,8.45,0,0,1-.78-1l-1.53.76a.51.51,0,0,1-.67-.17l-.35-.68a.46.46,0,0,1,.25-.62l1.51-.73a9.39,9.39,0,0,1-.41-1.16l-1.61.38a.44.44,0,0,1-.56-.31l-.12-.72a.48.48,0,0,1,.4-.51l1.61-.37a7.58,7.58,0,0,1-.05-1.17h-1.58a.39.39,0,0,1-.42-.41l.1-.69a.51.51,0,0,1,.52-.4H335a10.24,10.24,0,0,1,.3-1.12l-1.44-.33a.33.33,0,0,1-.26-.47l.29-.63a.5.5,0,0,1,.58-.26l1.44.32a8.42,8.42,0,0,1,.6-1l-1.22-.61a.3.3,0,0,1-.11-.49l.44-.54a.54.54,0,0,1,.62-.13l1.22.6c.28-.28.56-.56.86-.81l-1-.84a.29.29,0,0,1,.06-.48l.57-.42a.53.53,0,0,1,.61,0l1,.81a9.76,9.76,0,0,1,1-.61l-.66-1a.31.31,0,0,1,.19-.46l.66-.29a.49.49,0,0,1,.57.12l.67,1c.37-.14.77-.26,1.16-.37l-.32-1.07c-.06-.18.08-.35.31-.4l.71-.14a.45.45,0,0,1,.51.23l.35,1.06a11.72,11.72,0,0,1,1.22-.12v-1.1c0-.18.19-.32.43-.32h.72a.39.39,0,0,1,.43.32v1.1c.42,0,.82.06,1.23.12l.33-1.06a.46.46,0,0,1,.52-.23l.71.14c.22,0,.37.22.32.4l-.32,1.07c.39.11.77.23,1.16.37l.65-1a.5.5,0,0,1,.58-.12l.66.29a.32.32,0,0,1,.19.46l-.65,1a9.76,9.76,0,0,1,1,.61l1-.81a.53.53,0,0,1,.61,0l.57.42a.29.29,0,0,1,.05.48l-1,.84a9.33,9.33,0,0,1,.85.81l1.22-.6a.53.53,0,0,1,.62.13l.46.54a.3.3,0,0,1-.11.49l-1.22.61a10,10,0,0,1,.6,1l1.42-.32a.53.53,0,0,1,.6.26l.29.63a.34.34,0,0,1-.26.47l-1.45.33a8.39,8.39,0,0,1,.3,1.12h1.56a.53.53,0,0,1,.53.4l.1.69a.39.39,0,0,1-.42.41h-1.59a9.09,9.09,0,0,1,0,1.17l1.59.37a.5.5,0,0,1,.42.51l-.13.72a.44.44,0,0,1-.55.31l-1.62-.38a9.44,9.44,0,0,1-.42,1.16l1.51.73a.49.49,0,0,1,.27.62l-.36.68a.5.5,0,0,1-.66.17l-1.53-.76c-.24.36-.51.7-.78,1l1.29,1.1a.45.45,0,0,1,.07.67l-.57.59a.56.56,0,0,1-.73,0Z" />
      <path class="GUNDAN_LIZARD_OUTFIT_LIZARD_OUTFIT_12_cls-5" d="M114.24,289.72A33.69,33.69,0,0,0,105.4,284c-8.73,4-17.44,8-26.9,10.16-6.33,1.46-12.78,2.48-19,4.36-.68.21-1.36.43-2,.67a27.41,27.41,0,0,1,12.76,13.72c1.1,2.7,1.7,5.55,2.72,8.28,1.43,3.84,3.87,7.62,8.65,8.8a12.19,12.19,0,0,0,7.83-.79c10.47-4.69,20.62-10.18,28.93-17.55A10.62,10.62,0,0,0,121.16,299,30.46,30.46,0,0,0,114.24,289.72Zm-7.41,18.54a.48.48,0,0,1,.41.51l-.12.72a.45.45,0,0,1-.56.31l-1.62-.38a9.44,9.44,0,0,1-.42,1.16l1.52.73a.47.47,0,0,1,.25.62l-.34.68a.52.52,0,0,1-.67.17l-1.53-.76a8.45,8.45,0,0,1-.78,1l1.3,1.1a.45.45,0,0,1,.06.67l-.56.58a.54.54,0,0,1-.73,0l-1.3-1.12a13.62,13.62,0,0,1-1.12.84l1,1.39a.47.47,0,0,1-.14.68l-.75.42a.54.54,0,0,1-.73-.17L99,316c-.44.2-.9.37-1.36.54l.51,1.59a.48.48,0,0,1-.34.63L97,319a.56.56,0,0,1-.67-.36L95.79,317a14.24,14.24,0,0,1-1.48.18v1.68a.53.53,0,0,1-.54.52h-.91a.53.53,0,0,1-.54-.52l0-1.68a14.3,14.3,0,0,1-1.5-.18l-.49,1.62a.55.55,0,0,1-.67.36l-.87-.23a.51.51,0,0,1-.35-.63l.52-1.59c-.47-.17-.92-.34-1.35-.54l-1,1.42a.55.55,0,0,1-.73.17l-.75-.42a.46.46,0,0,1-.15-.68l1-1.39c-.38-.27-.75-.54-1.1-.84l-1.3,1.12a.55.55,0,0,1-.74,0l-.57-.58a.45.45,0,0,1,.07-.67l1.3-1.1a11.14,11.14,0,0,1-.78-1l-1.53.76a.52.52,0,0,1-.67-.17l-.35-.68a.48.48,0,0,1,.26-.62l1.51-.73a9.44,9.44,0,0,1-.42-1.16l-1.61.38a.45.45,0,0,1-.56-.31l-.12-.72a.48.48,0,0,1,.41-.51l1.6-.37a9.09,9.09,0,0,1,0-1.17H79.8a.38.38,0,0,1-.42-.41l.1-.69a.51.51,0,0,1,.52-.4h1.57a7.11,7.11,0,0,1,.3-1.12l-1.45-.33a.33.33,0,0,1-.26-.47l.28-.63a.53.53,0,0,1,.59-.26l1.44.32a9.58,9.58,0,0,1,.59-1l-1.22-.61a.3.3,0,0,1-.1-.49l.45-.54a.52.52,0,0,1,.61-.13l1.22.6a10.87,10.87,0,0,1,.86-.81l-.95-.84a.29.29,0,0,1,0-.48l.57-.42a.54.54,0,0,1,.62,0l1,.81a11,11,0,0,1,1-.61l-.65-1a.31.31,0,0,1,.19-.46l.65-.29a.51.51,0,0,1,.58.12l.66,1c.38-.14.77-.26,1.16-.37l-.32-1.07c-.05-.18.08-.35.31-.4l.72-.14a.45.45,0,0,1,.51.23l.34,1.06c.4-.06.81-.1,1.22-.12v-1.1c0-.18.19-.32.43-.32h.72c.24,0,.43.14.43.32v1.1c.41,0,.81.06,1.22.12l.35-1.06c0-.17.28-.27.51-.23l.71.14c.22.05.37.22.31.4l-.33,1.07c.4.11.79.23,1.16.37l.67-1a.5.5,0,0,1,.58-.12l.66.29a.32.32,0,0,1,.19.46l-.66,1a9.76,9.76,0,0,1,1,.61l1-.81a.54.54,0,0,1,.62,0l.56.42a.29.29,0,0,1,.06.48l-1,.84a9.37,9.37,0,0,1,.86.81l1.22-.6a.55.55,0,0,1,.63.13l.44.54a.31.31,0,0,1-.11.49l-1.22.61a8.14,8.14,0,0,1,.6,1l1.43-.32a.52.52,0,0,1,.59.26l.29.63a.34.34,0,0,1-.27.47l-1.43.33c.12.36.21.74.3,1.12h1.55a.51.51,0,0,1,.53.4l.1.69a.39.39,0,0,1-.42.41h-1.58a7.58,7.58,0,0,1,0,1.17Z" />
      <path class="GUNDAN_LIZARD_OUTFIT_LIZARD_OUTFIT_12_cls-8" d="M139.34,256.92c-2.07,1.88-12.26,9.68-14.33,11.55" />
      <path class="GUNDAN_LIZARD_OUTFIT_LIZARD_OUTFIT_12_cls-8" d="M126.27,466.92c17.7-29.18,29.1-61.88,32.45-95.15" />
      <path class="GUNDAN_LIZARD_OUTFIT_LIZARD_OUTFIT_12_cls-8" d="M137.4,336.4a37.57,37.57,0,0,0-6.28,4.2c-2,1.91,3.65,9.48,2.25,11.82s-3.08,4.68-5.63,6a13.76,13.76,0,0,1-4,1.21c-3,.53-6.2.63-8.69,2.2a14.28,14.28,0,0,0-3.18,3c-.57.66-1.15,1.33-1.78,1.94l-.12.12a14.55,14.55,0,0,1-10.06,3.9,10.69,10.69,0,0,1-2.33-.29c-1.84-.43-3.7.48-5.16,1.69-.27.23-.54.48-.79.73-1.54,1.53-2.88,3.36-5,4.23s-4.62.54-6.94.26-4.86-.49-6.88.62a7.67,7.67,0,0,0-.73.48c-1.6,1.22-2.63,3.09-4.39,4.14a8.31,8.31,0,0,1-5.42.86,5.27,5.27,0,0,1-.52-.1c-1.65-.33-3.23-1-4.91-1.22a8.87,8.87,0,0,0-4.69.8,9.19,9.19,0,0,0-1,.57c-.94.61-1.71,1.39-2.7,1.94s-2.34,1.1-3.22.44a13.82,13.82,0,0,0-4.73-2.27,10.32,10.32,0,0,0-6.08.19,2.91,2.91,0,0,1-3.36-1.07,2.34,2.34,0,0,1,.73-3.2c3-1.62,4.82-4.57,6.5-7.37,1.76-3,3.86-5.68,5.87-8.47,1.07-1.49,2.11-3,3-4.57-2.45-7.78-11.84-20.75-12.1-28.85S37.08,313.74,43,307.7A32.78,32.78,0,0,1,53,300.92a47.58,47.58,0,0,1,4.47-1.75c.67-.24,1.35-.46,2-.67,6.2-1.88,12.65-2.9,19-4.36C88,291.94,96.67,288,105.4,284c1.54-.71,3.08-1.41,4.64-2.1,1-.47,2-.92,3-1.36,1.18-.5,2.47-.93,3.73-1.39,2.31-.87,2.59-7.49,3.67-9.47.78-1.42,2.91-1.78,4.53-1.19l.34.13a9.79,9.79,0,0,1,3.74,3.68c2.95,4.31,7.5,14.39,9.87,19C146,305,157.44,324.88,159.06,340" />
      <path class="GUNDAN_LIZARD_OUTFIT_LIZARD_OUTFIT_12_cls-8" d="M159.53,345.62q.24,3.72.22,7.44" />
      <path class="GUNDAN_LIZARD_OUTFIT_LIZARD_OUTFIT_12_cls-8" d="M116.81,279.13c8.63,7.14,9.79,2.13,18.19,27.39a82.66,82.66,0,0,1,3.78,19" />
      <path class="GUNDAN_LIZARD_OUTFIT_LIZARD_OUTFIT_12_cls-8" d="M105.54,466.92c21.36-27.46,33.16-59.93,38-93.6" />
      <path class="GUNDAN_LIZARD_OUTFIT_LIZARD_OUTFIT_12_cls-8" d="M139.07,342h0c0,.23,0,.47,0,.7" />
      <path class="GUNDAN_LIZARD_OUTFIT_LIZARD_OUTFIT_12_cls-8" d="M47.25,359.17c26.1,13.7,73.05-20.72,88.84-30" />
      <path class="GUNDAN_LIZARD_OUTFIT_LIZARD_OUTFIT_12_cls-8" d="M105.4,284a33.69,33.69,0,0,1,8.84,5.74,30.46,30.46,0,0,1,6.92,9.3,10.62,10.62,0,0,1-2.78,12.61c-8.31,7.37-18.46,12.86-28.93,17.55a12.19,12.19,0,0,1-7.83.79c-4.78-1.18-7.22-5-8.65-8.8-1-2.73-1.62-5.58-2.72-8.28a27.41,27.41,0,0,0-12.76-13.72" />
      <path class="GUNDAN_LIZARD_OUTFIT_LIZARD_OUTFIT_12_cls-8" d="M110,281.88a41.17,41.17,0,0,1,8.78,5.81,36,36,0,0,1,8.48,11c2.56,5.05,1.09,11-3.41,14.84-10.16,8.68-22.58,15.14-35.38,20.66a15.43,15.43,0,0,1-9.6.94c-5.85-1.39-8.82-5.83-10.58-10.37-1.25-3.21-2-6.57-3.32-9.74a32,32,0,0,0-12-14.06" />
      <path class="GUNDAN_LIZARD_OUTFIT_LIZARD_OUTFIT_12_cls-8" d="M40.55,383.66a243.62,243.62,0,0,0-13.76,83.26H413.62" />
      <path class="GUNDAN_LIZARD_OUTFIT_LIZARD_OUTFIT_12_cls-8" d="M71.5,466.92q6.18-8.85,11.45-18.16c1.49-2.64,2.94-5.3,4.31-8a218.63,218.63,0,0,0,22.86-74" />
      <path class="GUNDAN_LIZARD_OUTFIT_LIZARD_OUTFIT_12_cls-8" d="M60,466.92A216.8,216.8,0,0,0,75.9,442.13c1.61-2.95,3.17-5.94,4.64-8.95a210.07,210.07,0,0,0,19.4-62.4" />
      <path class="GUNDAN_LIZARD_OUTFIT_LIZARD_OUTFIT_12_cls-8" d="M72.06,420.24c-.74-1.38-1.44-2.76-2.1-4.16" />
      <path class="GUNDAN_LIZARD_OUTFIT_LIZARD_OUTFIT_12_cls-8" d="M63.07,423.59c-.9-1.7-1.75-3.44-2.54-5.19" />
      <path class="GUNDAN_LIZARD_OUTFIT_LIZARD_OUTFIT_12_cls-8" d="M75.9,442.13a97.33,97.33,0,0,1-11.19-15.58" />
      <path class="GUNDAN_LIZARD_OUTFIT_LIZARD_OUTFIT_12_cls-8" d="M80.54,433.18a87.84,87.84,0,0,1-6.84-10" />
      <path class="GUNDAN_LIZARD_OUTFIT_LIZARD_OUTFIT_12_cls-8" d="M61.82,383.4a84.09,84.09,0,0,0,5.86,27.39" />
      <path class="GUNDAN_LIZARD_OUTFIT_LIZARD_OUTFIT_12_cls-8" d="M58.29,413A90.71,90.71,0,0,1,52.22,383" />
      <path class="GUNDAN_LIZARD_OUTFIT_LIZARD_OUTFIT_12_cls-8" d="M145.61,329.82a1.54,1.54,0,0,0,0-.37,4.6,4.6,0,0,0-4.78-4.4,5,5,0,0,0-2.08.44,4.4,4.4,0,0,0-2.69,3.71,2.09,2.09,0,0,0,0,.25,4.08,4.08,0,0,0,.71,2.29,4.61,4.61,0,0,0,1.42,1.36,5.08,5.08,0,0,0,2.65.73h.28a4.48,4.48,0,0,0,1.47-.31.64.64,0,0,0,.18-.06" />
      <ellipse class="GUNDAN_LIZARD_OUTFIT_LIZARD_OUTFIT_12_cls-8" cx="66.78" cy="300.88" rx="2.75" ry="1.51" />
      <path class="GUNDAN_LIZARD_OUTFIT_LIZARD_OUTFIT_12_cls-8" d="M107.87,289.06c0,.83-1.23,1.5-2.75,1.5s-2.75-.67-2.75-1.5,1.23-1.5,2.75-1.5S107.87,288.23,107.87,289.06Z" />
      <path class="GUNDAN_LIZARD_OUTFIT_LIZARD_OUTFIT_12_cls-8" d="M84.31,324.94a2.73,2.73,0,1,1-2.72-2.5A2.62,2.62,0,0,1,84.31,324.94Z" />
      <path class="GUNDAN_LIZARD_OUTFIT_LIZARD_OUTFIT_12_cls-8" d="M120.07,304.88a2.72,2.72,0,1,1-2.71-2.5A2.62,2.62,0,0,1,120.07,304.88Z" />
      <path class="GUNDAN_LIZARD_OUTFIT_LIZARD_OUTFIT_12_cls-8" d="M113,344.39a253.43,253.43,0,0,0,23.84-12.65" />
      <path class="GUNDAN_LIZARD_OUTFIT_LIZARD_OUTFIT_12_cls-8" d="M108.91,354.26h0c2.37-1-2.21-7.06.13-8.1" />
      <path class="GUNDAN_LIZARD_OUTFIT_LIZARD_OUTFIT_12_cls-8" d="M104,356.18c.85-.31,1.68-.64,2.51-1l0,0" />
      <path class="GUNDAN_LIZARD_OUTFIT_LIZARD_OUTFIT_12_cls-8" d="M90.66,360.93c2.39-.77,4.77-1.58,7.13-2.41" />
      <path class="GUNDAN_LIZARD_OUTFIT_LIZARD_OUTFIT_12_cls-8" d="M67,366.66a88.27,88.27,0,0,0,13-2.56" />
      <path class="GUNDAN_LIZARD_OUTFIT_LIZARD_OUTFIT_12_cls-8" d="M52.55,366.28a43.35,43.35,0,0,0,6.4.7c1,0,2,0,3,0" />
      <path class="GUNDAN_LIZARD_OUTFIT_LIZARD_OUTFIT_12_cls-8" d="M44.21,363.74c.91.41,1.83.77,2.79,1.1" />
      <path class="GUNDAN_LIZARD_OUTFIT_LIZARD_OUTFIT_12_cls-8" d="M52.55,366.28a8.35,8.35,0,0,0-3.87,2,6.93,6.93,0,0,0-2.34,4.52,3.91,3.91,0,0,0,.51,2.31,3.63,3.63,0,0,0,2,1.44,5.37,5.37,0,0,0,5.29-1.44.61.61,0,0,1,.83,0,.5.5,0,0,1,.09.72A7.1,7.1,0,0,1,52.19,378a6.82,6.82,0,0,1-3.86.41,6.13,6.13,0,0,1-3.5-2,6.29,6.29,0,0,1-1.4-3.56,9.67,9.67,0,0,1,2.4-6.83,10.17,10.17,0,0,1,1.17-1.2A38.31,38.31,0,0,0,52.55,366.28Z" />
      <path class="GUNDAN_LIZARD_OUTFIT_LIZARD_OUTFIT_12_cls-8" d="M67,366.66a9.76,9.76,0,0,0-.94.76,6.92,6.92,0,0,0-2.35,4.52,3.77,3.77,0,0,0,.52,2.31,3.52,3.52,0,0,0,2,1.44,5.35,5.35,0,0,0,5.29-1.44.63.63,0,0,1,.84,0,.51.51,0,0,1,.08.72,7.08,7.08,0,0,1-2.86,2.17,6.56,6.56,0,0,1-.62.23,6.81,6.81,0,0,1-3.24.18,6.08,6.08,0,0,1-3.51-2A6.26,6.26,0,0,1,60.83,372,8.86,8.86,0,0,1,62,367C63.67,367,65.35,366.85,67,366.66Z" />
      <path class="GUNDAN_LIZARD_OUTFIT_LIZARD_OUTFIT_12_cls-8" d="M90.66,360.93a2.32,2.32,0,0,1-1.09.59l-.31,0a8.32,8.32,0,0,0-4.7,2.16,6.85,6.85,0,0,0-2.35,4.52,3.7,3.7,0,0,0,.52,2.29,3.6,3.6,0,0,0,2,1.46A5.4,5.4,0,0,0,90,370.55a.63.63,0,0,1,.84,0,.51.51,0,0,1,.08.73,7.21,7.21,0,0,1-.58.66,7.35,7.35,0,0,1-2.28,1.5,6.77,6.77,0,0,1-3.87.41,6.08,6.08,0,0,1-3.5-2,6.24,6.24,0,0,1-1.38-3.56,8.72,8.72,0,0,1,.76-4.19c1.92-.5,3.82-1.05,5.7-1.63C87.4,362,89,361.46,90.66,360.93Z" />
      <path class="GUNDAN_LIZARD_OUTFIT_LIZARD_OUTFIT_12_cls-8" d="M108.91,354.26c-.78.32-1.56.64-2.35.93" />
      <path class="GUNDAN_LIZARD_OUTFIT_LIZARD_OUTFIT_12_cls-8" d="M109,364.75a7.23,7.23,0,0,1-2.87,2.17,6.77,6.77,0,0,1-3.87.4,5.79,5.79,0,0,1-4.88-5.52,8.64,8.64,0,0,1,.41-3.28c2.09-.75,4.17-1.52,6.24-2.34a7.49,7.49,0,0,0-1.41,1.05,7,7,0,0,0-2.33,4.52,3.85,3.85,0,0,0,.5,2.31,3.68,3.68,0,0,0,2,1.44,5.36,5.36,0,0,0,5.28-1.44.65.65,0,0,1,.85,0A.53.53,0,0,1,109,364.75Z" />
      <path class="GUNDAN_LIZARD_OUTFIT_LIZARD_OUTFIT_12_cls-8" d="M113,344.39c-.58.9,6,7,5.91,8a3.74,3.74,0,0,0,.52,2.3,3.54,3.54,0,0,0,2,1.45,5.38,5.38,0,0,0,5.28-1.44.64.64,0,0,1,.85,0,.51.51,0,0,1,.08.73,7.26,7.26,0,0,1-2.86,2.17,6.17,6.17,0,0,1-1.28.38,6.83,6.83,0,0,1-2.59,0,5.83,5.83,0,0,1-4.88-5.53c0-.41-6.95-5.9-6.91-6.3C110.35,345.58,111.65,345,113,344.39Z" />
      <path class="GUNDAN_LIZARD_OUTFIT_LIZARD_OUTFIT_12_cls-8" d="M139.48,342.18a56.68,56.68,0,0,1,1.66-8.36" />
      <path class="GUNDAN_LIZARD_OUTFIT_LIZARD_OUTFIT_12_cls-8" d="M138.21,333.1c-.28,1-.55,2.08-.81,3.3-.35,1.58-.66,3.36-.9,5.29" />
      <path class="GUNDAN_LIZARD_OUTFIT_LIZARD_OUTFIT_12_cls-8" d="M134.69,373.23a5.91,5.91,0,0,1-1.79-1,90.87,90.87,0,0,1,3.56-14.61c1.88-5.42-3.19-14.38-.81-15.64a3.68,3.68,0,0,1,.85-.32h0a3.33,3.33,0,0,1,1.51-.05,3.88,3.88,0,0,1,1.06.32.38.38,0,0,1,.13.06c.11.05.19.11.28.16a3.41,3.41,0,0,1,1.26,2.8c.14,1.57,6.86,8.71,6.82,11.21-.09,5.55-1.77,13.94-1.2,16.48-.53.15-1.24.34-2.08.51l-.71.14c-.64.12-1.34.23-2.06.32a23.69,23.69,0,0,1-3.77.14A11.71,11.71,0,0,1,134.69,373.23Z" />
      <path class="GUNDAN_LIZARD_OUTFIT_LIZARD_OUTFIT_12_cls-8" d="M134.69,373.22s6.17-13.11,1-31.19" />
      <path class="GUNDAN_LIZARD_OUTFIT_LIZARD_OUTFIT_12_cls-8" d="M137.74,373.78s2.45-18.59.27-32.14" />
      <path class="GUNDAN_LIZARD_OUTFIT_LIZARD_OUTFIT_12_cls-8" d="M139.2,342l-.17.64c-.85,3.39,2.18,24.3,2.48,30.95" />
      <path class="GUNDAN_LIZARD_OUTFIT_LIZARD_OUTFIT_12_cls-8" d="M144.28,373.17s1.79-16.11-3.54-28.19" />
      <path class="GUNDAN_LIZARD_OUTFIT_LIZARD_OUTFIT_12_cls-8" d="M143.82,340.17a55.11,55.11,0,0,0-1.21-6.66" />
      <path class="GUNDAN_LIZARD_OUTFIT_LIZARD_OUTFIT_12_cls-8" d="M146.81,339.67c-.14-1.17-.32-2.3-.52-3.35" />
      <path class="GUNDAN_LIZARD_OUTFIT_LIZARD_OUTFIT_12_cls-8" d="M162.47,371.2a5.52,5.52,0,0,0,1.78-.94,89.63,89.63,0,0,0-3.56-14.63c-.31-.9-.62-1.74-.94-2.56h0c-1.57-4.06-10.12-12-12.1-13.06a5.21,5.21,0,0,0-.84-.33,3.64,3.64,0,0,0-.87-.11,3.55,3.55,0,0,0-.64.06,3.91,3.91,0,0,0-1.21.38l-.27.17a3.41,3.41,0,0,0-1.26,2.79c-.13,1.56,7,8.72,7,11.22.09,5.53,1.77,13.93,1.2,16.46a19.86,19.86,0,0,0,2.08.53c.82.17,1.77.33,2.77.45a22.46,22.46,0,0,0,3.08.15,5.1,5.1,0,0,0,.68,0A10.79,10.79,0,0,0,162.47,371.2Z" />
      <path class="GUNDAN_LIZARD_OUTFIT_LIZARD_OUTFIT_12_cls-8" d="M162.47,371.19s-1.12-5.21-2.89-11.52h0c-1.35-4.82-10-15.37-11.93-19.65" />
      <path class="GUNDAN_LIZARD_OUTFIT_LIZARD_OUTFIT_12_cls-8" d="M159.4,371.75s-.16-.79-.46-2.13h0c-1.2-5.39-11.35-24.59-13.64-30" />
      <path class="GUNDAN_LIZARD_OUTFIT_LIZARD_OUTFIT_12_cls-8" d="M144.09,340s11.89,24.12,11.55,31.6" />
      <path class="GUNDAN_LIZARD_OUTFIT_LIZARD_OUTFIT_12_cls-8" d="M152.87,371.16s3.77-19.86-10.31-28.2" />
      <path class="GUNDAN_LIZARD_OUTFIT_LIZARD_OUTFIT_12_cls-8" d="M70.67,424.39c1.09-.41,2.12-.83,3-1.24a14.46,14.46,0,0,0,2.86-1.54,1.55,1.55,0,0,0,.4-2c-2.61-4.69-5.85-7.72-9.28-8.84a9.69,9.69,0,0,0-6.94.3,5.48,5.48,0,0,0-2.45,2h0c-3.09,4.31,0,12.64.38,13.74a1.81,1.81,0,0,0,1.69,1.1,1.84,1.84,0,0,0,.6-.1c.64-.21,2-.66,3.75-1.24l2.61-.92" />
      <path class="GUNDAN_LIZARD_OUTFIT_LIZARD_OUTFIT_12_cls-8" d="M69.14,421.41c1.11-.42,2.1-.82,2.92-1.17l.93-.42a19,19,0,0,0-3-3.74,7.93,7.93,0,0,0-5.34-2.48,6.15,6.15,0,0,0-2.38.49c-1.34.56-1.77,2.29-1.71,4.31a22,22,0,0,0,1,5.71l1.55-.52c.93-.32,1.86-.64,2.74-1" />
      <path class="GUNDAN_LIZARD_OUTFIT_LIZARD_OUTFIT_12_cls-8" d="M70.67,424.39c.72,1.4,1.48,2.83,2.12,3.84a1.59,1.59,0,0,1-.67,2.26,2,2,0,0,1-.89.22,1.85,1.85,0,0,1-1.56-.84c-.71-1.15-1.57-2.74-2.35-4.24-.57-1.11-1.11-2.18-1.51-3s-.67-1.36-.7-1.44A1.58,1.58,0,0,1,66,419a1.84,1.84,0,0,1,2.36.83l.75,1.55C69.56,422.24,70.1,423.31,70.67,424.39Z" />
      <path class="GUNDAN_LIZARD_OUTFIT_LIZARD_OUTFIT_12_cls-8" d="M106.83,308.26l-1.6-.37a7.58,7.58,0,0,0,0-1.17h1.58a.39.39,0,0,0,.42-.41l-.1-.69a.51.51,0,0,0-.53-.4H105.1c-.09-.38-.18-.76-.3-1.12l1.43-.33a.34.34,0,0,0,.27-.47l-.29-.63a.52.52,0,0,0-.59-.26l-1.43.32a8.14,8.14,0,0,0-.6-1l1.22-.61a.31.31,0,0,0,.11-.49l-.44-.54a.55.55,0,0,0-.63-.13l-1.22.6a9.37,9.37,0,0,0-.86-.81l1-.84a.29.29,0,0,0-.06-.48l-.56-.42a.54.54,0,0,0-.62,0l-1,.81a9.76,9.76,0,0,0-1-.61l.66-1a.32.32,0,0,0-.19-.46l-.66-.29a.5.5,0,0,0-.58.12l-.67,1c-.37-.14-.76-.26-1.16-.37l.33-1.07c.06-.18-.09-.35-.31-.4l-.71-.14c-.23,0-.47.06-.51.23l-.35,1.06c-.41-.06-.81-.1-1.22-.12v-1.1c0-.18-.19-.32-.43-.32H93c-.24,0-.43.14-.43.32v1.1c-.41,0-.82.06-1.22.12L91,295.84a.45.45,0,0,0-.51-.23l-.72.14c-.23.05-.36.22-.31.4l.32,1.07c-.39.11-.78.23-1.16.37l-.66-1a.51.51,0,0,0-.58-.12l-.65.29a.31.31,0,0,0-.19.46l.65,1a11,11,0,0,0-1,.61l-1-.81a.54.54,0,0,0-.62,0l-.57.42a.29.29,0,0,0,0,.48l.95.84a10.87,10.87,0,0,0-.86.81L82.8,300a.52.52,0,0,0-.61.13l-.45.54a.3.3,0,0,0,.1.49l1.22.61a9.58,9.58,0,0,0-.59,1L81,302.41a.53.53,0,0,0-.59.26l-.28.63a.33.33,0,0,0,.26.47l1.45.33a7.11,7.11,0,0,0-.3,1.12H80a.51.51,0,0,0-.52.4l-.1.69a.38.38,0,0,0,.42.41h1.59a9.09,9.09,0,0,0,0,1.17l-1.6.37a.48.48,0,0,0-.41.51l.12.72a.45.45,0,0,0,.56.31l1.61-.38a9.44,9.44,0,0,0,.42,1.16l-1.51.73a.48.48,0,0,0-.26.62l.35.68a.52.52,0,0,0,.67.17l1.53-.76a11.14,11.14,0,0,0,.78,1l-1.3,1.1a.45.45,0,0,0-.07.67l.57.58a.55.55,0,0,0,.74,0l1.3-1.12c.35.3.72.57,1.1.84l-1,1.39a.46.46,0,0,0,.15.68l.75.42a.55.55,0,0,0,.73-.17l1-1.42c.43.2.88.37,1.35.54l-.52,1.59a.5.5,0,0,0,.35.63l.87.23a.55.55,0,0,0,.67-.36l.49-1.62a14.3,14.3,0,0,0,1.5.18l0,1.68a.53.53,0,0,0,.54.52h.91a.53.53,0,0,0,.54-.52v-1.68a14.24,14.24,0,0,0,1.48-.18l.49,1.62A.56.56,0,0,0,97,319l.88-.23a.48.48,0,0,0,.34-.63l-.51-1.59c.46-.17.92-.34,1.36-.54l1,1.42a.54.54,0,0,0,.73.17l.75-.42a.47.47,0,0,0,.14-.68l-1-1.39a13.62,13.62,0,0,0,1.12-.84l1.3,1.12a.54.54,0,0,0,.73,0l.56-.58a.45.45,0,0,0-.06-.67l-1.3-1.1a8.45,8.45,0,0,0,.78-1l1.53.76a.52.52,0,0,0,.67-.17l.34-.68a.47.47,0,0,0-.25-.62l-1.52-.73a9.44,9.44,0,0,0,.42-1.16l1.62.38a.45.45,0,0,0,.56-.31l.12-.72A.48.48,0,0,0,106.83,308.26Z" />
      <path class="GUNDAN_LIZARD_OUTFIT_LIZARD_OUTFIT_12_cls-8" d="M93.33,314.12c-5.28,0-9.22-3.81-8.84-8.16.36-4,4.3-7,8.84-7s8.48,3,8.84,7C102.55,310.31,98.6,314.12,93.33,314.12Z" />
      <path class="GUNDAN_LIZARD_OUTFIT_LIZARD_OUTFIT_12_cls-8" d="M100.34,306c-.23-3.2-3.36-5.64-7-5.64s-6.78,2.44-7,5.64c-.24,3.41,2.88,6.34,7,6.34S100.58,309.38,100.34,306Z" />
      <path class="GUNDAN_LIZARD_OUTFIT_LIZARD_OUTFIT_12_cls-8" d="M93.33,301.05a1.19,1.19,0,1,1,0,2.33,1.28,1.28,0,0,1-1.41-1.17A1.3,1.3,0,0,1,93.33,301.05Z" />
      <path class="GUNDAN_LIZARD_OUTFIT_LIZARD_OUTFIT_12_cls-8" d="M88.7,307.23A1.28,1.28,0,0,1,87.29,306a1.44,1.44,0,0,1,1.53-1.24A1.3,1.3,0,0,1,90.23,306,1.45,1.45,0,0,1,88.7,307.23Z" />
      <path class="GUNDAN_LIZARD_OUTFIT_LIZARD_OUTFIT_12_cls-8" d="M93.33,311.4A1.43,1.43,0,0,1,91.8,310a1.54,1.54,0,1,1,1.53,1.37Z" />
      <path class="GUNDAN_LIZARD_OUTFIT_LIZARD_OUTFIT_12_cls-8" d="M98,307.23A1.44,1.44,0,0,1,96.43,306a1.31,1.31,0,0,1,1.42-1.24A1.47,1.47,0,0,1,99.38,306,1.31,1.31,0,0,1,98,307.23Z" />
      <path class="GUNDAN_LIZARD_OUTFIT_LIZARD_OUTFIT_12_cls-8" d="M313.2,274.81c-3.41-3.09-12.4-7.5-15.82-10.6" />
      <path class="GUNDAN_LIZARD_OUTFIT_LIZARD_OUTFIT_12_cls-8" d="M281.69,371.77c3.35,33.27,14.75,66,32.45,95.15" />
      <path class="GUNDAN_LIZARD_OUTFIT_LIZARD_OUTFIT_12_cls-8" d="M287.41,342.94c-.09,1.92-6.75,8.2-6.75,10.11" />
      <path class="GUNDAN_LIZARD_OUTFIT_LIZARD_OUTFIT_12_cls-8" d="M287.84,336.94a123.44,123.44,0,0,1,10.84-39.89,127.54,127.54,0,0,1,10.44-18.42,9.84,9.84,0,0,1,3.75-3.69l.33-.13c1.63-.58,3.76-.23,4.54,1.2,1.07,2,3.25,3,5.56,3.85,1.25.46,2.55.89,3.73,1.39,1,.44,2,.9,3,1.36q2.32,1,4.64,2.1c8.73,4,17.44,8,26.9,10.16,6.33,1.46,12.78,2.48,19,4.36.68.21,1.37.43,2,.67a47.58,47.58,0,0,1,4.47,1.75,32.78,32.78,0,0,1,10.06,6.78c5.87,6,8.06,14.51,7.81,22.62s-9.34,20.34-11.8,28.12c.94,1.58,2,3.08,3,4.57,2,2.79,4.12,5.51,5.88,8.47,1.67,2.8,3.49,5.75,6.49,7.37a2.34,2.34,0,0,1,.73,3.2,2.91,2.91,0,0,1-3.36,1.07,10.31,10.31,0,0,0-6.08-.19,13.68,13.68,0,0,0-4.72,2.27c-.89.66-2.26.11-3.23-.44s-1.76-1.33-2.69-1.94a9.34,9.34,0,0,0-1-.57,8.87,8.87,0,0,0-4.69-.8c-1.68.18-3.25.89-4.91,1.22a4.76,4.76,0,0,1-.52.1,8.32,8.32,0,0,1-5.42-.86c-2-1.21-3.06-3.47-5.12-4.62a6.3,6.3,0,0,0-1.4-.56,14.61,14.61,0,0,0-5.48-.06c-2.32.28-4.8.62-6.94-.26s-3.42-2.7-5-4.23q-.25-.26-.51-.48c-1.5-1.33-3.47-2.39-5.44-1.94a10.69,10.69,0,0,1-2.33.29,14.57,14.57,0,0,1-10.06-3.9s-.08-.07-.12-.12a16.32,16.32,0,0,1-1.21-1.28,18,18,0,0,0-3.75-3.69c-2.49-1.57-5.68-1.67-8.69-2.2a13.85,13.85,0,0,1-4-1.21c-2.55-1.28-4.23-3.61-5.63-6s4-9.18,1.95-11.09a38.41,38.41,0,0,0-6.28-4.2" />
      <path class="GUNDAN_LIZARD_OUTFIT_LIZARD_OUTFIT_12_cls-8" d="M301.32,326.22a83.84,83.84,0,0,1,3.78-19,59.93,59.93,0,0,1,18.2-27.39" />
      <path class="GUNDAN_LIZARD_OUTFIT_LIZARD_OUTFIT_12_cls-8" d="M296.85,373.32c4.87,33.67,16.66,66.14,38,93.6" />
      <path class="GUNDAN_LIZARD_OUTFIT_LIZARD_OUTFIT_12_cls-8" d="M301.07,343.41l0-.71h0" />
      <path class="GUNDAN_LIZARD_OUTFIT_LIZARD_OUTFIT_12_cls-8" d="M304,329.94c15.79,9.24,63.05,42.93,89.15,29.23" />
      <path class="GUNDAN_LIZARD_OUTFIT_LIZARD_OUTFIT_12_cls-8" d="M382.62,299.9a27.43,27.43,0,0,0-12.77,13.72c-1.1,2.7-1.7,5.55-2.71,8.28-1.44,3.85-3.88,7.62-8.65,8.81a12.29,12.29,0,0,1-7.84-.8c-10.46-4.69-20.62-10.18-28.92-17.55a10.62,10.62,0,0,1-2.79-12.61,30.73,30.73,0,0,1,6.93-9.3,33.78,33.78,0,0,1,8.84-5.74" />
      <path class="GUNDAN_LIZARD_OUTFIT_LIZARD_OUTFIT_12_cls-8" d="M387.09,301.65a32,32,0,0,0-12,14.06c-1.33,3.17-2.07,6.53-3.31,9.74-1.76,4.54-4.74,9-10.59,10.37a15.41,15.41,0,0,1-9.59-.94c-12.8-5.52-25.23-12-35.38-20.66-4.5-3.85-6-9.79-3.41-14.84a35.93,35.93,0,0,1,8.48-11,40.92,40.92,0,0,1,8.78-5.81" />
      <path class="GUNDAN_LIZARD_OUTFIT_LIZARD_OUTFIT_12_cls-8" d="M399.86,383.66a243.38,243.38,0,0,1,13.76,83.26" />
      <path class="GUNDAN_LIZARD_OUTFIT_LIZARD_OUTFIT_12_cls-8" d="M340.47,370.78a210.36,210.36,0,0,0,19.4,62.4q2.22,4.51,4.65,8.95a215.36,215.36,0,0,0,15.87,24.79" />
      <path class="GUNDAN_LIZARD_OUTFIT_LIZARD_OUTFIT_12_cls-8" d="M330.29,366.76a218.86,218.86,0,0,0,22.86,74q2.07,4,4.31,8,5.27,9.3,11.46,18.16" />
      <path class="GUNDAN_LIZARD_OUTFIT_LIZARD_OUTFIT_12_cls-8" d="M370.45,416.08c-.66,1.4-1.35,2.78-2.09,4.16" />
      <path class="GUNDAN_LIZARD_OUTFIT_LIZARD_OUTFIT_12_cls-8" d="M379.89,418.4c-.79,1.75-1.64,3.49-2.55,5.19" />
      <path class="GUNDAN_LIZARD_OUTFIT_LIZARD_OUTFIT_12_cls-8" d="M375.7,426.55a97.26,97.26,0,0,1-11.18,15.58" />
      <path class="GUNDAN_LIZARD_OUTFIT_LIZARD_OUTFIT_12_cls-8" d="M366.72,423.15a87.93,87.93,0,0,1-6.85,10" />
      <path class="GUNDAN_LIZARD_OUTFIT_LIZARD_OUTFIT_12_cls-8" d="M372.73,410.79a84.09,84.09,0,0,0,5.86-27.39" />
      <path class="GUNDAN_LIZARD_OUTFIT_LIZARD_OUTFIT_12_cls-8" d="M388.19,383A90.71,90.71,0,0,1,382.12,413" />
      <path class="GUNDAN_LIZARD_OUTFIT_LIZARD_OUTFIT_12_cls-8" d="M297.84,334.37a4.68,4.68,0,0,0,1.13.18,1.23,1.23,0,0,0,.27,0,5.15,5.15,0,0,0,2.66-.74,4.82,4.82,0,0,0,1.42-1.35,4.22,4.22,0,0,0,.71-2.3.93.93,0,0,0,0-.24,4.37,4.37,0,0,0-2.69-3.72,4.87,4.87,0,0,0-2.08-.44,4.6,4.6,0,0,0-4.77,4.4,3.93,3.93,0,0,0,.12,1" />
      <ellipse class="GUNDAN_LIZARD_OUTFIT_LIZARD_OUTFIT_12_cls-8" cx="373.32" cy="301.61" rx="2.75" ry="1.51" />
      <path class="GUNDAN_LIZARD_OUTFIT_LIZARD_OUTFIT_12_cls-8" d="M332.23,289.79c0,.83,1.23,1.5,2.75,1.5s2.76-.67,2.76-1.5-1.24-1.5-2.76-1.5S332.23,289,332.23,289.79Z" />
      <path class="GUNDAN_LIZARD_OUTFIT_LIZARD_OUTFIT_12_cls-8" d="M355.8,325.67a2.73,2.73,0,1,0,2.71-2.5A2.62,2.62,0,0,0,355.8,325.67Z" />
      <path class="GUNDAN_LIZARD_OUTFIT_LIZARD_OUTFIT_12_cls-8" d="M320,305.61a2.73,2.73,0,1,0,2.72-2.49A2.62,2.62,0,0,0,320,305.61Z" />
      <path class="GUNDAN_LIZARD_OUTFIT_LIZARD_OUTFIT_12_cls-8" d="M393.42,364.84c.95-.33,1.87-.69,2.78-1.1" />
      <path class="GUNDAN_LIZARD_OUTFIT_LIZARD_OUTFIT_12_cls-8" d="M378.43,367c1,0,2,0,3,0a43.21,43.21,0,0,0,6.39-.7" />
      <path class="GUNDAN_LIZARD_OUTFIT_LIZARD_OUTFIT_12_cls-8" d="M360.34,364.1a88.27,88.27,0,0,0,13.05,2.56" />
      <path class="GUNDAN_LIZARD_OUTFIT_LIZARD_OUTFIT_12_cls-8" d="M342.63,358.52c2.35.83,4.73,1.64,7.12,2.41" />
      <path class="GUNDAN_LIZARD_OUTFIT_LIZARD_OUTFIT_12_cls-8" d="M333.86,355.19v0c.84.33,1.66.66,2.51,1" />
      <path class="GUNDAN_LIZARD_OUTFIT_LIZARD_OUTFIT_12_cls-8" d="M324.44,351.24c2.34,1,4.68,2,7.05,3h0" />
      <path class="GUNDAN_LIZARD_OUTFIT_LIZARD_OUTFIT_12_cls-8" d="M303.32,332.48a255.7,255.7,0,0,0,23.84,12.64" />
      <path class="GUNDAN_LIZARD_OUTFIT_LIZARD_OUTFIT_12_cls-8" d="M387.86,366.28a8.35,8.35,0,0,1,3.87,2,6.89,6.89,0,0,1,2.34,4.52,3.84,3.84,0,0,1-.51,2.31,3.63,3.63,0,0,1-2,1.44,5.35,5.35,0,0,1-5.28-1.44.63.63,0,0,0-.84,0,.5.5,0,0,0-.09.72,7.1,7.1,0,0,0,2.86,2.17,6.85,6.85,0,0,0,3.87.41,6.11,6.11,0,0,0,3.49-2,6.22,6.22,0,0,0,1.4-3.56,9.71,9.71,0,0,0-2.39-6.83,11,11,0,0,0-1.17-1.2A38.78,38.78,0,0,1,387.86,366.28Z" />
      <path class="GUNDAN_LIZARD_OUTFIT_LIZARD_OUTFIT_12_cls-8" d="M373.39,366.66a8.79,8.79,0,0,1,.95.76,7,7,0,0,1,2.34,4.52,3.84,3.84,0,0,1-.51,2.31,3.58,3.58,0,0,1-2,1.44,5.35,5.35,0,0,1-5.29-1.44.61.61,0,0,0-.83,0,.5.5,0,0,0-.09.72,6.84,6.84,0,0,0,1.27,1.25,7.33,7.33,0,0,0,1.59.92,6.82,6.82,0,0,0,3.86.41,6.08,6.08,0,0,0,3.51-2,6.35,6.35,0,0,0,1.39-3.56,9,9,0,0,0-1.16-5C376.74,367,375.07,366.85,373.39,366.66Z" />
      <path class="GUNDAN_LIZARD_OUTFIT_LIZARD_OUTFIT_12_cls-8" d="M349.75,360.93a2.32,2.32,0,0,0,1.09.59l.31,0a8.29,8.29,0,0,1,4.7,2.16,6.85,6.85,0,0,1,2.35,4.52,3.76,3.76,0,0,1-.51,2.29,3.66,3.66,0,0,1-2,1.46,5.4,5.4,0,0,1-5.29-1.44.63.63,0,0,0-.84,0,.52.52,0,0,0-.08.73,8.17,8.17,0,0,0,.91.95,7,7,0,0,0,2,1.21,6.79,6.79,0,0,0,3.88.41,6.09,6.09,0,0,0,3.49-2,6.32,6.32,0,0,0,1.39-3.56,8.73,8.73,0,0,0-.77-4.19c-1.91-.5-3.82-1.05-5.69-1.63C353,362,351.38,361.46,349.75,360.93Z" />
      <path class="GUNDAN_LIZARD_OUTFIT_LIZARD_OUTFIT_12_cls-8" d="M333.86,355.19c-.79-.29-1.58-.61-2.36-.93" />
      <path class="GUNDAN_LIZARD_OUTFIT_LIZARD_OUTFIT_12_cls-8" d="M336.38,356.18a7.49,7.49,0,0,1,1.41,1.05,6.93,6.93,0,0,1,2.34,4.52,3.93,3.93,0,0,1-.51,2.31,3.65,3.65,0,0,1-2,1.44,5.38,5.38,0,0,1-5.29-1.44.65.65,0,0,0-.85,0,.52.52,0,0,0-.08.73c.09.11.18.23.28.33a7.07,7.07,0,0,0,2.59,1.84,6.73,6.73,0,0,0,3.86.4,6.07,6.07,0,0,0,3.49-1.95A6.17,6.17,0,0,0,343,361.8a8.64,8.64,0,0,0-.4-3.28C340.53,357.77,338.45,357,336.38,356.18Z" />
      <path class="GUNDAN_LIZARD_OUTFIT_LIZARD_OUTFIT_12_cls-8" d="M327.16,345.12c.58.9-5.67,6.26-5.61,7.28a3.74,3.74,0,0,1-.52,2.3,3.54,3.54,0,0,1-2,1.45,5.38,5.38,0,0,1-5.28-1.44.64.64,0,0,0-.85,0,.52.52,0,0,0-.08.73,7.26,7.26,0,0,0,2.86,2.17A7,7,0,0,0,317,358a6.83,6.83,0,0,0,2.59,0,6.21,6.21,0,0,0,3.5-2,6.29,6.29,0,0,0,1.39-3.56,8.1,8.1,0,0,0,0-1.21C323.14,350.66,328.45,345.73,327.16,345.12Z" />
      <path class="GUNDAN_LIZARD_OUTFIT_LIZARD_OUTFIT_12_cls-8" d="M299,334.55a58,58,0,0,1,1.66,8.36" />
      <path class="GUNDAN_LIZARD_OUTFIT_LIZARD_OUTFIT_12_cls-8" d="M303.61,342.42c-.24-1.93-.55-3.71-.9-5.29-.26-1.22-.54-2.33-.81-3.3" />
      <path class="GUNDAN_LIZARD_OUTFIT_LIZARD_OUTFIT_12_cls-8" d="M305.72,373.23a5.91,5.91,0,0,0,1.79-1A89.65,89.65,0,0,0,304,357.66c-1.88-5.42,2.89-13.65.51-14.91a3.68,3.68,0,0,0-.85-.32h0a3.47,3.47,0,0,0-1.51-.05,4.15,4.15,0,0,0-1.06.31l-.15.07-.26.16c-.84.57-7.79,5.87-7.89,7.16-.13,1.56.08,3.62.11,6.12.1,5.55,1.77,13.94,1.2,16.48.54.15,1.24.34,2.08.51l.72.14c.63.12,1.34.23,2,.32a23.69,23.69,0,0,0,3.77.14A11.71,11.71,0,0,0,305.72,373.23Z" />
      <path class="GUNDAN_LIZARD_OUTFIT_LIZARD_OUTFIT_12_cls-8" d="M305.72,373.22s-5.69-19-1.26-30.46" />
      <path class="GUNDAN_LIZARD_OUTFIT_LIZARD_OUTFIT_12_cls-8" d="M302.67,373.78s-5.54-17.33-.57-31.41" />
      <path class="GUNDAN_LIZARD_OUTFIT_LIZARD_OUTFIT_12_cls-8" d="M300.89,342.76l.17.65c-6.26,13.09-1.86,23.56-2.16,30.21" />
      <path class="GUNDAN_LIZARD_OUTFIT_LIZARD_OUTFIT_12_cls-8" d="M296.13,373.17s-.79-16.37-3.39-23.1" />
      <path class="GUNDAN_LIZARD_OUTFIT_LIZARD_OUTFIT_12_cls-8" d="M297.5,334.25c-.05.18-.1.38-.15.58a56.38,56.38,0,0,0-1.06,6.07" />
      <path class="GUNDAN_LIZARD_OUTFIT_LIZARD_OUTFIT_12_cls-8" d="M293.63,338.09c-.12.74-.24,1.52-.33,2.31" />
      <path class="GUNDAN_LIZARD_OUTFIT_LIZARD_OUTFIT_12_cls-8" d="M297.54,343.69c.14,1.56-6.69,8-6.72,10.49-.09,5.53-1.77,13.93-1.2,16.46a19.22,19.22,0,0,1-2.08.53c-.82.17-1.77.33-2.76.45a22.68,22.68,0,0,1-3.09.15,5.15,5.15,0,0,1-.68,0,10.65,10.65,0,0,1-3.06-.55,5.41,5.41,0,0,1-1.78-.94,89,89,0,0,1,3.55-14.63c.31-.9.62-1.74.94-2.56h0c1.57-4.06,9.81-11.27,11.8-12.32a4.57,4.57,0,0,1,.84-.33,3.58,3.58,0,0,1,.87-.11,4.62,4.62,0,0,1,.63.06,4.1,4.1,0,0,1,1.21.38,2.61,2.61,0,0,1,.28.17A3.42,3.42,0,0,1,297.54,343.69Z" />
      <path class="GUNDAN_LIZARD_OUTFIT_LIZARD_OUTFIT_12_cls-8" d="M278,371.19s3.32-20.41,14.51-30.45" />
      <path class="GUNDAN_LIZARD_OUTFIT_LIZARD_OUTFIT_12_cls-8" d="M281,371.75s.17-.79.47-2.13h0c1.19-5.39,3.72-20.18,13.32-29.26" />
      <path class="GUNDAN_LIZARD_OUTFIT_LIZARD_OUTFIT_12_cls-8" d="M296,340.74s-12.64,15.66-11.23,30.87" />
      <path class="GUNDAN_LIZARD_OUTFIT_LIZARD_OUTFIT_12_cls-8" d="M287.54,371.16s-1.41-20.8,10-27.47" />
      <path class="GUNDAN_LIZARD_OUTFIT_LIZARD_OUTFIT_12_cls-8" d="M373.09,425.63l2.61.92c1.71.58,3.11,1,3.76,1.24a1.74,1.74,0,0,0,.59.1,1.79,1.79,0,0,0,1.69-1.1c.42-1.1,3.47-9.43.38-13.74h0a5.42,5.42,0,0,0-2.45-2,9.69,9.69,0,0,0-6.94-.3c-3.43,1.12-6.67,4.15-9.28,8.84a1.55,1.55,0,0,0,.41,2,13.88,13.88,0,0,0,2.86,1.54c.91.41,1.93.83,3,1.24" />
      <path class="GUNDAN_LIZARD_OUTFIT_LIZARD_OUTFIT_12_cls-8" d="M374.6,422.63c.88.32,1.82.64,2.74,1l1.55.52a22.48,22.48,0,0,0,1-5.71c.06-2-.37-3.75-1.71-4.31a6.22,6.22,0,0,0-2.38-.49,7.94,7.94,0,0,0-5.35,2.48,19.36,19.36,0,0,0-3,3.74l.94.42c.81.35,1.79.75,2.9,1.16h0" />
      <path class="GUNDAN_LIZARD_OUTFIT_LIZARD_OUTFIT_12_cls-8" d="M369.74,424.39c-.72,1.4-1.48,2.83-2.11,3.84a1.58,1.58,0,0,0,.67,2.26,1.94,1.94,0,0,0,.88.22,1.85,1.85,0,0,0,1.56-.84c.71-1.15,1.56-2.74,2.35-4.24.58-1.11,1.11-2.18,1.51-3s.67-1.36.7-1.44a1.59,1.59,0,0,0-.92-2.16,1.83,1.83,0,0,0-2.35.83s-.31.63-.77,1.54S370.32,423.31,369.74,424.39Z" />
      <path class="GUNDAN_LIZARD_OUTFIT_LIZARD_OUTFIT_12_cls-8" d="M360.27,309l-1.59-.37a9.09,9.09,0,0,0,0-1.17h1.59a.39.39,0,0,0,.42-.41l-.1-.69a.53.53,0,0,0-.53-.4h-1.56a8.39,8.39,0,0,0-.3-1.12l1.45-.33A.34.34,0,0,0,360,304l-.29-.63a.53.53,0,0,0-.6-.26l-1.42.32a10,10,0,0,0-.6-1l1.22-.61a.3.3,0,0,0,.11-.49l-.46-.54a.53.53,0,0,0-.62-.13l-1.22.6a9.33,9.33,0,0,0-.85-.81l1-.84a.29.29,0,0,0-.05-.48l-.57-.42a.53.53,0,0,0-.61,0l-1,.81a9.76,9.76,0,0,0-1-.61l.65-1a.32.32,0,0,0-.19-.46l-.66-.29a.5.5,0,0,0-.58.12l-.65,1c-.39-.14-.77-.26-1.16-.37l.32-1.07c.05-.18-.1-.35-.32-.4l-.71-.14a.46.46,0,0,0-.52.23l-.33,1.06c-.41-.06-.81-.1-1.23-.12v-1.1a.39.39,0,0,0-.43-.32h-.72c-.24,0-.43.14-.43.32v1.1a11.72,11.72,0,0,0-1.22.12l-.35-1.06a.45.45,0,0,0-.51-.23l-.71.14c-.23,0-.37.22-.31.4l.32,1.07c-.39.11-.79.23-1.16.37l-.67-1a.49.49,0,0,0-.57-.12l-.66.29a.31.31,0,0,0-.19.46l.66,1a9.76,9.76,0,0,0-1,.61l-1-.81a.53.53,0,0,0-.61,0l-.57.42a.29.29,0,0,0-.06.48l1,.84c-.3.25-.58.53-.86.81l-1.22-.6a.54.54,0,0,0-.62.13l-.44.54a.3.3,0,0,0,.11.49l1.22.61a8.42,8.42,0,0,0-.6,1l-1.44-.32a.5.5,0,0,0-.58.26l-.29.63a.33.33,0,0,0,.26.47l1.44.33A10.24,10.24,0,0,0,335,306h-1.56a.51.51,0,0,0-.52.4l-.1.69a.39.39,0,0,0,.42.41h1.58a7.58,7.58,0,0,0,.05,1.17l-1.61.37a.48.48,0,0,0-.4.51l.12.72a.44.44,0,0,0,.56.31l1.61-.38a9.39,9.39,0,0,0,.41,1.16l-1.51.73a.46.46,0,0,0-.25.62l.35.68a.51.51,0,0,0,.67.17l1.53-.76a8.45,8.45,0,0,0,.78,1l-1.31,1.1a.46.46,0,0,0-.06.67l.57.59a.56.56,0,0,0,.73,0l1.3-1.13a11.54,11.54,0,0,0,1.11.84l-1,1.4a.47.47,0,0,0,.15.67l.75.43a.56.56,0,0,0,.73-.18l.94-1.42c.45.2.9.37,1.37.54l-.52,1.59a.48.48,0,0,0,.35.63l.87.23a.54.54,0,0,0,.66-.36l.5-1.62a12.13,12.13,0,0,0,1.49.18v1.68a.52.52,0,0,0,.52.52h.92a.53.53,0,0,0,.54-.52l0-1.68a12.13,12.13,0,0,0,1.49-.18l.49,1.62a.55.55,0,0,0,.66.36l.89-.23a.49.49,0,0,0,.34-.63l-.51-1.59c.47-.17.92-.34,1.35-.54l1,1.42a.55.55,0,0,0,.72.18l.76-.43a.44.44,0,0,0,.14-.67l-.95-1.4a12.78,12.78,0,0,0,1.1-.84l1.3,1.13a.56.56,0,0,0,.73,0l.57-.59a.45.45,0,0,0-.07-.67l-1.29-1.1c.27-.33.54-.67.78-1l1.53.76a.5.5,0,0,0,.66-.17l.36-.68a.49.49,0,0,0-.27-.62l-1.51-.73a9.44,9.44,0,0,0,.42-1.16l1.62.38a.44.44,0,0,0,.55-.31l.13-.72A.5.5,0,0,0,360.27,309Z" />
      <path class="GUNDAN_LIZARD_OUTFIT_LIZARD_OUTFIT_12_cls-8" d="M346.78,314.85c-5.28,0-9.22-3.81-8.84-8.16.35-4,4.29-7,8.84-7s8.48,3,8.84,7C356,311,352.05,314.85,346.78,314.85Z" />
      <path class="GUNDAN_LIZARD_OUTFIT_LIZARD_OUTFIT_12_cls-8" d="M353.78,306.7c-.22-3.2-3.35-5.64-7-5.64s-6.78,2.44-7,5.64c-.24,3.41,2.89,6.35,7,6.35S354,310.11,353.78,306.7Z" />
      <path class="GUNDAN_LIZARD_OUTFIT_LIZARD_OUTFIT_12_cls-8" d="M346.78,301.78a1.32,1.32,0,0,1,1.41,1.16,1.3,1.3,0,0,1-1.41,1.18,1.32,1.32,0,0,1-1.43-1.18A1.34,1.34,0,0,1,346.78,301.78Z" />
      <path class="GUNDAN_LIZARD_OUTFIT_LIZARD_OUTFIT_12_cls-8" d="M342.14,308a1.3,1.3,0,0,1-1.41-1.26,1.46,1.46,0,0,1,1.53-1.24,1.32,1.32,0,0,1,1.42,1.24A1.45,1.45,0,0,1,342.14,308Z" />
      <path class="GUNDAN_LIZARD_OUTFIT_LIZARD_OUTFIT_12_cls-8" d="M346.78,312.13a1.37,1.37,0,1,1,1.53-1.37A1.44,1.44,0,0,1,346.78,312.13Z" />
      <path class="GUNDAN_LIZARD_OUTFIT_LIZARD_OUTFIT_12_cls-8" d="M351.41,308a1.44,1.44,0,0,1-1.53-1.26,1.3,1.3,0,0,1,1.41-1.24,1.45,1.45,0,0,1,1.53,1.24A1.29,1.29,0,0,1,351.41,308Z" />
      <path class="GUNDAN_LIZARD_OUTFIT_LIZARD_OUTFIT_12_cls-8" d="M237.38,373.18c-3.37-3-24.66-6-27.94-9.06" />
      <path class="GUNDAN_LIZARD_OUTFIT_LIZARD_OUTFIT_12_cls-8" d="M139,291.27c17.91,22.12,44.34,48.24,65.28,68" />
      <path class="GUNDAN_LIZARD_OUTFIT_LIZARD_OUTFIT_12_cls-8" d="M249.07,357.5c1.44-1.92,2.87-3.83,4.33-5.75,12.72-16.89,32.22-38,45.28-54.7" />
      <path class="GUNDAN_LIZARD_OUTFIT_LIZARD_OUTFIT_12_cls-8" d="M152.36,466.92c21.79-31.58,62.11-62.82,85-93.74Q241.19,368,245,362.9" />
      <path class="GUNDAN_LIZARD_OUTFIT_LIZARD_OUTFIT_12_cls-8" d="M253.4,351.75q-6.89-4.35-13.63-8.93c-29.89-20.26-76-60.17-100.43-85.9" />
      <path class="GUNDAN_LIZARD_OUTFIT_LIZARD_OUTFIT_12_cls-8" d="M239.77,342.82c22.9-21,41.16-52.71,57.61-78.61" />
      <path class="GUNDAN_LIZARD_OUTFIT_LIZARD_OUTFIT_12_cls-8" d="M297.84,334.37c-.14.15-.31.3-.49.46-1.21,1.12-2.45,2.22-3.72,3.26-2,1.72-4.1,3.33-6.22,4.85-6.94,5-20.92,13.31-28.47,16.12l-1.27.47A82.81,82.81,0,0,1,245,362.9c-4.75.87-27.48,1.31-32.18,1.31-1.14,0-2.27,0-3.41-.09A68.39,68.39,0,0,1,195,362c-9.43-2.49-18.1-7-25.76-11-3.13-1.63-6.44-3.37-9.69-5.31-2.15-1.3-11.2-7.77-13.24-9.3-1.2-.91-2.38-1.86-3.5-2.87a4.38,4.38,0,0,0,2.82-3.63c2,1.86,11.14,8.62,13.45,10.16a133.74,133.74,0,0,0,12.52,7.13c7.43,3.88,15.84,8.28,24.71,10.62a61.36,61.36,0,0,0,8,1.54c8.68,1.11,35.82.51,44.83-1.77,2.31-.58,4.61-1.28,6.88-2.09.68-.24,1.38-.49,2.06-.77,8.07-3.1,22.55-12,29.83-17.7,2.32-1.8,4.57-3.74,6.75-5.78a4.54,4.54,0,0,0,2.91,3.09A2.69,2.69,0,0,0,297.84,334.37Z" />
      <path class="GUNDAN_LIZARD_OUTFIT_LIZARD_OUTFIT_12_cls-8" d="M197.7,425.53q-3.91,4.89-7.85,9.77" />
      <path class="GUNDAN_LIZARD_OUTFIT_LIZARD_OUTFIT_12_cls-8" d="M213.63,412.15c-2.85,2.67-5.69,5.36-8.52,8" />
      <path class="GUNDAN_LIZARD_OUTFIT_LIZARD_OUTFIT_12_cls-8" d="M238.2,387.89c-1.94,2.86-10.61,11.27-12.54,14.13" />
      <path class="GUNDAN_LIZARD_OUTFIT_LIZARD_OUTFIT_12_cls-8" d="M249.66,372c-2.14,3-4.3,5.91-6.44,8.86" />
      <path class="GUNDAN_LIZARD_OUTFIT_LIZARD_OUTFIT_12_cls-8" d="M258.94,359.06l-3.83,5.35" />
      <path class="GUNDAN_LIZARD_OUTFIT_LIZARD_OUTFIT_12_cls-8" d="M284.56,328.17l-9.83,13.72" />
      <path class="GUNDAN_LIZARD_OUTFIT_LIZARD_OUTFIT_12_cls-8" d="M201.25,371.79c2.2,2.23,4.37,4.46,6.55,6.72" />
      <path class="GUNDAN_LIZARD_OUTFIT_LIZARD_OUTFIT_12_cls-8" d="M190.78,361.24l4.41,4.43" />
      <path class="GUNDAN_LIZARD_OUTFIT_LIZARD_OUTFIT_12_cls-8" d="M175.23,345.79l5.56,5.51" />
      <path class="GUNDAN_LIZARD_OUTFIT_LIZARD_OUTFIT_12_cls-8" d="M159.79,330.57c3.05,3,6.07,6,9.11,9" />
      <path class="GUNDAN_LIZARD_OUTFIT_LIZARD_OUTFIT_12_cls-8" d="M213.11,382.45s6.49,6,10,7.9" />
      <g class="GUNDAN_LIZARD_OUTFIT_LIZARD_OUTFIT_12_cls-9">
        <path class="GUNDAN_LIZARD_OUTFIT_LIZARD_OUTFIT_12_cls-10" d="M125,268.47l12-9.48s14.46,32.5,32.59,52.23,71.62,46.28,71.62,46.28l1,1.4s-31.54,1.82-38.43.06c0,0-26.74-26.6-33.68-34.33s-30.78-32.5-30.78-32.5S128.63,269.73,125,268.47Z" />
        <path class="GUNDAN_LIZARD_OUTFIT_LIZARD_OUTFIT_12_cls-10" d="M30.77,379.69a72.67,72.67,0,0,0,10.43-2.06c3.63-1.2,10.6-1.51,12.93-2.51s4-.71,10.62-1.19,14.31-3.37,20.41-6.15-2.13-.72,11.6-5S113,358,116.45,356.18s3.22-7.56,7.67-10.61a50.21,50.21,0,0,0,7.95-7s-1,3-1.74,3.35,2.25,15.22-3.78,16.93-9,.19-13.65,4.79-6.74,6.47-10.88,7-5.39-1.09-8.39.7-4.4,6.6-8.75,6.54-8.67-2.6-13.62,1.39-4.58,5.59-12,3.09c-4.12-.83-5.91.08-9.3,2.12s-3.18,2.11-6.88.19-6.06-1.72-8.22-1S29.37,383.92,30.77,379.69Z" />
        <path class="GUNDAN_LIZARD_OUTFIT_LIZARD_OUTFIT_12_cls-10" d="M40.29,384.4s-14.41,38.68-13.5,82.52H76.73a505.6,505.6,0,0,0,32.37-50.08c-16.79,20.31-29,30.56-29,30.56S102,420.82,116,391.06s14.16-34.21,14.16-34.21-12,16.23-26.1,26.55-37,26.33-37,26.33-4.55-12.88-4.62-19.25-.43-6.82-.43-6.82a15.84,15.84,0,0,0-6.29-1.43c-3.11.09-3.46,1.5-6.6,2.84s-3.57.64-6.06-.38S40.29,384.4,40.29,384.4Z" />
        <path class="GUNDAN_LIZARD_OUTFIT_LIZARD_OUTFIT_12_cls-10" d="M154.19,371.41A206.71,206.71,0,0,1,137,426.84C123.24,455.6,115,466.92,115,466.92h26.9a353.72,353.72,0,0,0,20.55-62.05c7.46-33.44,7.81-52.9,7.81-52.9l-10.45-6.18-.19,6.36s4.62,12.77,4.7,18.23c-2.49,1.37-6.67,1.41-6.67,1.41Z" />
        <path class="GUNDAN_LIZARD_OUTFIT_LIZARD_OUTFIT_12_cls-10" d="M310,272S289,297.14,277.18,313.32s-30.74,34.08-30.74,34.08l-10.23,8.37L216.9,359.6s28.7-1.13,32.17-2.1c12.48-16.53,48.77-59.38,48.77-59.38s10-19.8,15-23.18A39.11,39.11,0,0,0,310,272Z" />
        <path class="GUNDAN_LIZARD_OUTFIT_LIZARD_OUTFIT_12_cls-10" d="M175.23,466.92l27.66-17.47c17.35-10.95,67.66-41.89,67.66-41.89s-20.4,28.05-28.26,37.66-32.85,19.41-32.85,19.41l-5.31,2.29Z" />
        <path class="GUNDAN_LIZARD_OUTFIT_LIZARD_OUTFIT_12_cls-10" d="M288.19,410.29s-4.44,12.64-7.36,19-15.46,24.6-15.46,24.6l-6.43,9s19.62-16.51,22.95-20.72L291,430.71l3.13-5.42-5.26-16.23Z" />
        <path class="GUNDAN_LIZARD_OUTFIT_LIZARD_OUTFIT_12_cls-10" d="M257,368.65s-48.63,29.41-61.84,52.6-33.48,45.67-33.48,45.67l4.32.59s32-38.36,45.19-56.72S257,368.65,257,368.65Z" />
        <path class="GUNDAN_LIZARD_OUTFIT_LIZARD_OUTFIT_12_cls-10" d="M298.9,373.64s8.83,22.48,17.13,37.95,20.08,31,33.57,41.51,19.32,13.82,19.32,13.82H314.14S297,437.16,292.23,420.5s-9-33.48-10-43.73c5.85,20.31,22,65,38.28,77.1-23.18-42.85-30.87-82.71-30.87-82.71s.34-6.34.53-9.54,8-16.49,7.64-17.93a14.36,14.36,0,0,0-.95-2.56l-.88-.23,1.83-6.82,1.25.95,1.8,7.73s-7.85,5.19-8,7.59.09,8.35.45,12.41S294.44,373,294.44,373Z" />
        <path class="GUNDAN_LIZARD_OUTFIT_LIZARD_OUTFIT_12_cls-10" d="M43.8,306.88s.2,24.55,7.57,31.73,33.11,6.27,49,0,37.29-22.9,37.29-22.9l1.43,9.34s.56,7.34,6.38,6.16c-1.83,3-5.57,3.88-8.95.71-5.06,3.42-18.17,18.36-33,24.58s-36.5,11-45.21,10.07a69.66,69.66,0,0,1-14.12-2.83l3-4.57s-12.94-19.27-11.9-31.54S41.1,309.1,43.8,306.88Z" />
      </g>
    </g>
  </g>
</svg>