<svg xmlns="http://www.w3.org/2000/svg" viewBox="0 0 432 432">
  <defs>
    <style>.GUNDAN_LIZARD_OUTFIT_LIZARD_OUTFIT_6_cls-1{isolation:isolate;}.GUNDAN_LIZARD_OUTFIT_LIZARD_OUTFIT_6_cls-2{fill:#404147;}.GUNDAN_LIZARD_OUTFIT_LIZARD_OUTFIT_6_cls-3{fill:#5db466;}.GUNDAN_LIZARD_OUTFIT_LIZARD_OUTFIT_6_cls-4{fill:#4c7d7c;}.GUNDAN_LIZARD_OUTFIT_LIZARD_OUTFIT_6_cls-5{fill:#fff;}.GUNDAN_LIZARD_OUTFIT_LIZARD_OUTFIT_6_cls-6,.GUNDAN_LIZARD_OUTFIT_LIZARD_OUTFIT_6_cls-7{fill:none;stroke:#010101;stroke-width:1.28px;}.GUNDAN_LIZARD_OUTFIT_LIZARD_OUTFIT_6_cls-6{stroke-linecap:round;stroke-linejoin:round;}.GUNDAN_LIZARD_OUTFIT_LIZARD_OUTFIT_6_cls-7{stroke-miterlimit:10;}.GUNDAN_LIZARD_OUTFIT_LIZARD_OUTFIT_6_cls-8{opacity:0.22;mix-blend-mode:multiply;}.GUNDAN_LIZARD_OUTFIT_LIZARD_OUTFIT_6_cls-9{fill:#010101;}</style>
  </defs>
  <g class="GUNDAN_LIZARD_OUTFIT_LIZARD_OUTFIT_6_cls-1">
    <g id="Outfit">
      <path class="GUNDAN_LIZARD_OUTFIT_LIZARD_OUTFIT_6_cls-2" d="M337.8,450c-2.27,4.49-5.71,9.22-9.69,12.12a13.91,13.91,0,0,1-6.38,2.77c-4.53.56-7.48-4.32-9.54-10.72a43.16,43.16,0,0,1-5.31.31,48.66,48.66,0,0,1-6-.37A40.9,40.9,0,0,1,286,449.49a29.34,29.34,0,0,1-11.64-11.55,28.4,28.4,0,0,1-1.83-3.89,36.59,36.59,0,0,1-2.35-10,41.39,41.39,0,0,1,0-6.77c-.89-1-1.73-2-2.48-3a49.65,49.65,0,0,1-5.63-8.87,36.47,36.47,0,0,1-1.58-3.68,171.36,171.36,0,0,1-29.57,3.68v62.18H337.48l.32-11.2A35,35,0,0,0,337.8,450Zm-87.43,7.43a3.42,3.42,0,0,1-3.15-2.11,3.36,3.36,0,0,1-.28-1.37,3.44,3.44,0,1,1,3.43,3.48Zm0-21.09a3.42,3.42,0,0,1-3.15-2.11,3.36,3.36,0,0,1-.28-1.37,3.44,3.44,0,1,1,3.43,3.48Zm0-21.09a3.48,3.48,0,0,1-3.43-3.48,3.44,3.44,0,1,1,3.43,3.48Z" />
      <path class="GUNDAN_LIZARD_OUTFIT_LIZARD_OUTFIT_6_cls-2" d="M182.34,405.43a49.65,49.65,0,0,1-5.63,8.87c-.76,1-1.59,2-2.48,3a41.39,41.39,0,0,1,0,6.77,37,37,0,0,1-2.35,10,28.4,28.4,0,0,1-1.83,3.89,29.4,29.4,0,0,1-11.64,11.55,40.9,40.9,0,0,1-14.86,4.63,48.78,48.78,0,0,1-6,.37,43.16,43.16,0,0,1-5.31-.31c-2.06,6.4-5,11.28-9.54,10.72a13.87,13.87,0,0,1-6.38-2.77c-4-2.9-7.42-7.63-9.69-12.12a35,35,0,0,0,0,6.4l.31,11.2H213.49V405.43a171.36,171.36,0,0,1-29.57-3.68C183.54,402.77,183,404,182.34,405.43ZM194,408.31a3.46,3.46,0,0,1,3.43,3.47,3.57,3.57,0,0,1-.28,1.37,3.42,3.42,0,0,1-3.15,2.11,3.48,3.48,0,0,1,0-6.95Zm0,21.09a3.46,3.46,0,0,1,3.43,3.47,3.53,3.53,0,0,1-.28,1.37,3.42,3.42,0,0,1-3.15,2.11,3.48,3.48,0,0,1,0-7Zm0,21.1a3.45,3.45,0,0,1,3.43,3.46,3.53,3.53,0,0,1-.28,1.37,3.42,3.42,0,0,1-3.15,2.11,3.47,3.47,0,0,1,0-6.94Z" />
      <path class="GUNDAN_LIZARD_OUTFIT_LIZARD_OUTFIT_6_cls-2" d="M387.23,389.22c-2.15-3.32-4.23-5.52-4.34-6-.2-1.06,1.7-11.88-1.37-18.73a79.85,79.85,0,0,0-4.69-8.28c-3.59-5.74-8.07-12.34-10.44-15.79a84.76,84.76,0,0,0-7.83,8.2c-3.87,4.53-13,10.24-20.63,16.29-4.05,3.23-8.61,6.55-13.61,9.85,3.35,13,6.18,35.36,6.18,35.36,2,0,4.11-.06,6.38-.18C349.91,409.24,367.46,406,387.23,389.22Z" />
      <path class="GUNDAN_LIZARD_OUTFIT_LIZARD_OUTFIT_6_cls-2" d="M337.48,467.61h77.78l-1.27-6.5-1.91-6.62v-6.36c-3.39-3.5-4-6.21-4.95-10.42s-5.88-7.71-7.78-9.2c-1.24-1-1.52-3.93-1.57-5.93-6.48,1.84-18.87,5.35-29.91,8.64-15.17,4.5-32.27.39-33.72,0l-.08,0h0A98.33,98.33,0,0,1,337.8,450v0a35,35,0,0,1,0,6.4Z" />
      <path class="GUNDAN_LIZARD_OUTFIT_LIZARD_OUTFIT_6_cls-2" d="M106.6,450a98.33,98.33,0,0,1,3.75-18.77h0l-.08,0c-1.45.36-18.55,4.47-33.72,0-11-3.29-23.43-6.8-29.91-8.64,0,2-.33,5-1.57,5.93-1.91,1.49-6.86,5-7.78,9.2s-1.56,6.92-5,10.42v6.36l-1.91,6.62-1.27,6.5h77.77l-.31-11.2a35,35,0,0,1,0-6.4Z" />
      <path class="GUNDAN_LIZARD_OUTFIT_LIZARD_OUTFIT_6_cls-2" d="M82.85,348.6A89.91,89.91,0,0,0,75,340.4c-2.37,3.45-6.85,10.05-10.45,15.79a79.43,79.43,0,0,0-4.68,8.28c-3.08,6.85,1.81,17.67,1.61,18.73-.11.5-2.19,2.7-4.34,6,19.77,16.76,37.32,20,50.35,20.7,2.27.12,4.4.15,6.38.18,0,0,2.83-22.33,6.18-35.36-5-3.3-9.57-6.62-13.63-9.85C98.85,358.84,86.71,353.13,82.85,348.6Z" />
      <path class="GUNDAN_LIZARD_OUTFIT_LIZARD_OUTFIT_6_cls-3" d="M360.51,331.61a3.32,3.32,0,1,0,3.29,3.32A3.31,3.31,0,0,0,360.51,331.61Z" />
      <path class="GUNDAN_LIZARD_OUTFIT_LIZARD_OUTFIT_6_cls-3" d="M334.19,354.33a3.32,3.32,0,1,0,3.29,3.32A3.31,3.31,0,0,0,334.19,354.33Z" />
      <path class="GUNDAN_LIZARD_OUTFIT_LIZARD_OUTFIT_6_cls-3" d="M323.4,423.29c-.56-3.31-2.16-5.78-3.59-5.55s-2.13,3.13-1.57,6.43,2.16,5.78,3.58,5.54S324,426.59,323.4,423.29Z" />
      <path class="GUNDAN_LIZARD_OUTFIT_LIZARD_OUTFIT_6_cls-3" d="M124.58,417.74c-1.42-.23-3,2.24-3.58,5.55s.15,6.17,1.57,6.42,3-2.24,3.59-5.54S126,418,124.58,417.74Z" />
      <path class="GUNDAN_LIZARD_OUTFIT_LIZARD_OUTFIT_6_cls-3" d="M110.21,354.33a3.32,3.32,0,1,0,3.27,3.32A3.3,3.3,0,0,0,110.21,354.33Z" />
      <path class="GUNDAN_LIZARD_OUTFIT_LIZARD_OUTFIT_6_cls-3" d="M80.91,331.61a3.32,3.32,0,1,0,3.29,3.32A3.32,3.32,0,0,0,80.91,331.61Z" />
      <path class="GUNDAN_LIZARD_OUTFIT_LIZARD_OUTFIT_6_cls-3" d="M392,403.85a18.93,18.93,0,0,0-.31-3.86l-1.12.49a4.64,4.64,0,0,0-.69.38c-.26.19-26.24,18.6-59.07,17.84-.12,1.17-.24,2.41-.32,3.67a10.25,10.25,0,0,0,.51,3.69h1.75c32.62,0,57.71-16.67,61-19l.51-.22C393.6,405.89,392.84,404.87,392,403.85Z" />
      <path class="GUNDAN_LIZARD_OUTFIT_LIZARD_OUTFIT_6_cls-3" d="M113.57,418.7c-32.83.76-58.82-17.65-59.07-17.84a4.64,4.64,0,0,0-.69-.38L52.69,400a19.66,19.66,0,0,0-.32,3.86c-.81,1-1.57,2-2.28,3l.51.22c3.32,2.31,28.41,19,61,19h1.74a9.83,9.83,0,0,0,.51-3.69C113.81,421.11,113.69,419.87,113.57,418.7Z" />
      <path class="GUNDAN_LIZARD_OUTFIT_LIZARD_OUTFIT_6_cls-3" d="M306.69,447.1a44.54,44.54,0,0,1-6-.4,31.74,31.74,0,0,1-11.51-3.76,22.41,22.41,0,0,1-8-7.82,24.78,24.78,0,0,1-1.83-3.76,27.51,27.51,0,0,1-1.57-5.82c-.07-.41-.13-.83-.18-1.24a34.86,34.86,0,0,0,7.94,4.4,44.48,44.48,0,0,0,11,2.8,53.37,53.37,0,0,0,6.94.45c1.69,0,3.09-.07,4.15-.16a41,41,0,0,1-.42-7.34,47.77,47.77,0,0,1-9.27-.2,38.47,38.47,0,0,1-9.63-2.38,27.58,27.58,0,0,1-7.93-4.76l-.66-.59c-.6-.58-1.2-1.14-1.74-1.71a43,43,0,0,1,2.63-9,55.76,55.76,0,0,1,3.63-7.26c1.16-2,2.27-3.61,3.18-4.87-2.07.81-4.19,1.57-6.32,2.32-1.56.52-3.14,1-4.73,1.54a60.72,60.72,0,0,0-3.05,6.66c-.45,1.18-.86,2.38-1.23,3.63a41.63,41.63,0,0,1-3.32-5.46c-.44-.88-.79-1.68-1.06-2.35-2.35.61-4.73,1.17-7.16,1.69a36.47,36.47,0,0,0,1.58,3.68,49.65,49.65,0,0,0,5.63,8.87c.75,1,1.59,2,2.48,3a41.39,41.39,0,0,0,0,6.77,36.59,36.59,0,0,0,2.35,10,28.4,28.4,0,0,0,1.83,3.89A29.34,29.34,0,0,0,286,449.49a40.9,40.9,0,0,0,14.86,4.63,48.66,48.66,0,0,0,6,.37,43.16,43.16,0,0,0,5.31-.31c-.74-2.28-1.37-4.74-1.92-7.22C309.29,447,308.07,447.1,306.69,447.1Z" />
      <path class="GUNDAN_LIZARD_OUTFIT_LIZARD_OUTFIT_6_cls-3" d="M175.7,402.41a41.63,41.63,0,0,1-3.32,5.46c-.37-1.25-.79-2.45-1.23-3.63a60.72,60.72,0,0,0-3.05-6.66c-1.59-.5-3.17-1-4.73-1.54-2.13-.75-4.25-1.51-6.32-2.32.91,1.26,2,2.91,3.18,4.87a55.76,55.76,0,0,1,3.63,7.26,43,43,0,0,1,2.63,9c-.54.57-1.14,1.13-1.74,1.71l-.66.59a27.58,27.58,0,0,1-7.93,4.76,38.47,38.47,0,0,1-9.63,2.38,47.77,47.77,0,0,1-9.27.2,41,41,0,0,1-.42,7.34c1,.09,2.46.16,4.15.16a53.37,53.37,0,0,0,6.94-.45,44.59,44.59,0,0,0,10.95-2.8,34.86,34.86,0,0,0,7.94-4.4c0,.41-.11.83-.18,1.24a27.51,27.51,0,0,1-1.57,5.82,24.78,24.78,0,0,1-1.83,3.76,22.41,22.41,0,0,1-8,7.82,31.8,31.8,0,0,1-11.51,3.76,44.54,44.54,0,0,1-6,.4c-1.38,0-2.6-.06-3.58-.14-.55,2.48-1.18,4.94-1.92,7.22a43.16,43.16,0,0,0,5.31.31,48.78,48.78,0,0,0,6-.37,40.9,40.9,0,0,0,14.86-4.63A29.4,29.4,0,0,0,170,437.94a28.4,28.4,0,0,0,1.83-3.89,37,37,0,0,0,2.35-10,41.39,41.39,0,0,0,0-6.77c.89-1,1.72-2,2.48-3a49.65,49.65,0,0,0,5.63-8.87c.69-1.42,1.2-2.66,1.58-3.68-2.43-.52-4.81-1.08-7.16-1.69C176.49,400.73,176.14,401.53,175.7,402.41Z" />
      <path class="GUNDAN_LIZARD_OUTFIT_LIZARD_OUTFIT_6_cls-3" d="M262.71,328.22a13.42,13.42,0,0,0-3.24-11.57l-.36-.44h0a21.22,21.22,0,0,0-2.89-2.73,26.52,26.52,0,0,0-6.8-4,24.31,24.31,0,0,0-8.11-1.75A25.42,25.42,0,0,0,237,308a28.18,28.18,0,0,0-7,1.85h0c-.89.35-1.74.75-2.52,1.15a3.2,3.2,0,0,0-2.33-1.16c-.84,0-7.43.41-8.13,1.16-.78-.4-1.63-.8-2.52-1.15h0a28.18,28.18,0,0,0-7-1.85,25.42,25.42,0,0,0-4.31-.21A24.31,24.31,0,0,0,195,309.5a26.52,26.52,0,0,0-6.8,4,21.22,21.22,0,0,0-2.89,2.73h0l-.36.44a13.42,13.42,0,0,0-3.24,11.57,12.81,12.81,0,0,0,1.9,4.57,15.41,15.41,0,0,0,2.83,3.12,17.25,17.25,0,0,0,4.46,2.74,15.08,15.08,0,0,0,1.69.65,18.7,18.7,0,0,0,5.57.86,18,18,0,0,0,5.58-.88,18.82,18.82,0,0,0,3.76-1.67L212,335l.88-.53a77.55,77.55,0,0,0-2.27,11.45,4.44,4.44,0,0,1,1.82-.06,4.73,4.73,0,0,1,1.46.48,2,2,0,0,1,.32.21,73.4,73.4,0,0,1,2.94-13.61c.11-.33.22-.64.31-.89.58.47,7,.73,7.67.73A3,3,0,0,0,227,332c.09.25.2.56.31.89a72.75,72.75,0,0,1,2.93,13.61,2.66,2.66,0,0,1,.33-.21,4.73,4.73,0,0,1,1.46-.48,4.44,4.44,0,0,1,1.82.06,77.55,77.55,0,0,0-2.27-11.45c.29.17.58.34.87.53l4.5,2.63a18.82,18.82,0,0,0,3.76,1.67,18,18,0,0,0,5.58.88,18.7,18.7,0,0,0,5.57-.86,15.08,15.08,0,0,0,1.69-.65,17.25,17.25,0,0,0,4.46-2.74,15.41,15.41,0,0,0,2.83-3.12A12.81,12.81,0,0,0,262.71,328.22ZM210,327.69c-.72.4-1.47.83-2.27,1.3-1.2.68-2.52,1.44-3.91,2.25A11.34,11.34,0,0,1,194,332a9.17,9.17,0,0,1-4.4-3.32,5.24,5.24,0,0,1-.95-3.29,8,8,0,0,1,2.6-4.85c.16-.15.3-.3.45-.43.34-.31.67-.59,1-.84a20.5,20.5,0,0,1,4-2.51,17.09,17.09,0,0,1,7.38-1.69,20.93,20.93,0,0,1,9.15,2.27c.35.17.68.35,1,.52a25,25,0,0,0-.24,3.43,22.75,22.75,0,0,0,.33,4Zm44.75,1a9.22,9.22,0,0,1-4.4,3.32,11.34,11.34,0,0,1-9.81-.75c-1.4-.81-2.71-1.57-3.91-2.25-.8-.47-1.55-.9-2.27-1.3l-4.3-2.45a22.75,22.75,0,0,0,.33-4,25,25,0,0,0-.24-3.43c.3-.17.63-.35,1-.52a20.89,20.89,0,0,1,9.14-2.27,17.1,17.1,0,0,1,7.39,1.69,20.5,20.5,0,0,1,4,2.51c.3.25.63.53,1,.84.15.13.29.28.45.43a8,8,0,0,1,2.6,4.85A5.24,5.24,0,0,1,254.77,328.67Z" />
      <path class="GUNDAN_LIZARD_OUTFIT_LIZARD_OUTFIT_6_cls-2" d="M231.55,334.45c.29.17.58.34.87.53l4.5,2.63a18.82,18.82,0,0,0,3.76,1.67,18,18,0,0,0,5.58.88,18.7,18.7,0,0,0,5.57-.86,15.08,15.08,0,0,0,1.69-.65c2.5,6.45,8.91,22.69,12.12,28.38,4,7.18,8.34,10.39,15.63,10.39,2.89,0,7.58-4.46,13.08-10.82,4.81-5.53,10.25-12.53,15.68-19.27,2.33,4.51,7.33,12.08,15.89,15.66-4.7,4.29-17,14.3-37.17,22.32q-2.83,1.14-5.88,2.2h0c-15.28,5.37-34.49,9.39-57.76,9.39s-48.28-4-63.56-9.39h0q-3-1.06-5.88-2.2c-20.18-8-32.47-18-37.17-22.32,8.56-3.58,13.56-11.15,15.89-15.66,5.43,6.74,10.87,13.74,15.68,19.27,5.5,6.36,10.19,10.82,13.08,10.82,7.29,0,11.6-3.21,15.63-10.39,3.21-5.69,9.62-21.93,12.12-28.38a15.08,15.08,0,0,0,1.69.65,18.7,18.7,0,0,0,5.57.86,18,18,0,0,0,5.58-.88,18.82,18.82,0,0,0,3.76-1.67L212,335l.88-.53a77.55,77.55,0,0,0-2.27,11.45v0a4.79,4.79,0,0,0-1,.4c-2.88,1.57-5.13,6.41-7.4,13.17a116.93,116.93,0,0,0-4.3,18.25,7.18,7.18,0,0,0,2.16,1.19,13.14,13.14,0,0,0,3.7.68,26.57,26.57,0,0,0,4.55-.17c1.2-.15,2.36-.35,3.35-.56s1.87-.46,2.52-.65c-.7-3.16,1.33-13.65,1.44-20.55,0-3.14.29-5.71.13-7.66-.12-1.6-.52-2.78-1.53-3.49a73.4,73.4,0,0,1,2.94-13.61c.11-.33.22-.64.31-.89.58.47,7,.73,7.67.73A3,3,0,0,0,227,332c.09.25.2.56.31.89a72.75,72.75,0,0,1,2.93,13.61c-1,.71-1.4,1.89-1.53,3.49-.15,2,.09,4.52.14,7.66.11,6.9,2.14,17.39,1.44,20.55.65.19,1.51.43,2.52.65s2.15.41,3.35.56a26.57,26.57,0,0,0,4.55.17,13.07,13.07,0,0,0,3.69-.68,7.11,7.11,0,0,0,2.17-1.19,116.93,116.93,0,0,0-4.3-18.25c-2.27-6.76-4.52-11.6-7.4-13.17a4.79,4.79,0,0,0-1-.4v0A77.55,77.55,0,0,0,231.55,334.45Z" />
      <path class="GUNDAN_LIZARD_OUTFIT_LIZARD_OUTFIT_6_cls-4" d="M307.56,431.79c-1.06.09-2.46.16-4.15.16a53.37,53.37,0,0,1-6.94-.45,44.48,44.48,0,0,1-11-2.8,34.86,34.86,0,0,1-7.94-4.4c.05.41.11.83.18,1.24a27.51,27.51,0,0,0,1.57,5.82,24.78,24.78,0,0,0,1.83,3.76,22.41,22.41,0,0,0,8,7.82,31.74,31.74,0,0,0,11.51,3.76,44.54,44.54,0,0,0,6,.4c1.38,0,2.6-.06,3.58-.14-.6-2.75-1.09-5.5-1.54-8S307.85,434.06,307.56,431.79Z" />
      <path class="GUNDAN_LIZARD_OUTFIT_LIZARD_OUTFIT_6_cls-4" d="M147.93,431.5A53.37,53.37,0,0,1,141,432c-1.69,0-3.1-.07-4.15-.16-.29,2.27-.72,4.59-1.17,7.13s-.95,5.29-1.54,8c1,.08,2.2.14,3.58.14a44.54,44.54,0,0,0,6-.4,31.8,31.8,0,0,0,11.51-3.76,22.41,22.41,0,0,0,8-7.82,24.78,24.78,0,0,0,1.83-3.76,27.51,27.51,0,0,0,1.57-5.82c.07-.41.13-.83.18-1.24a34.86,34.86,0,0,1-7.94,4.4A44.59,44.59,0,0,1,147.93,431.5Z" />
      <path class="GUNDAN_LIZARD_OUTFIT_LIZARD_OUTFIT_6_cls-4" d="M382.9,331.9a20.79,20.79,0,0,1-5-.18,34.63,34.63,0,0,1-11.7-4.24c-5.44-3-13.41-7-16.41-9.75h0a42.37,42.37,0,0,0-20.22,8.43c-5.59,4.29-12.53,12.53-19.49,21.16,2.33,4.52,7.33,12.09,15.89,15.67-4.7,4.29-17,14.3-37.17,22.32q-2.83,1.14-5.88,2.2h0c-15.28,5.37-34.49,9.39-57.76,9.39s-48.28-4-63.56-9.39h0q-3-1.06-5.88-2.2c-20.18-8-32.47-18-37.17-22.32,8.56-3.58,13.56-11.15,15.89-15.67-7-8.63-13.9-16.87-19.49-21.16-7.15-5.48-20.77-7.66-26.49-8.43h0a69.14,69.14,0,0,1-13.11,9.75,34.68,34.68,0,0,1-11.71,4.24,20.75,20.75,0,0,1-5,.18c-3.67,9.46.8,18.33,6.07,24.29,3.6-5.74,8.08-12.34,10.45-15.79a89.91,89.91,0,0,1,7.82,8.2c3.86,4.53,16,10.24,23.6,16.29,4.06,3.23,8.61,6.55,13.63,9.85,2,1.33,4.12,2.66,6.29,3.95,1.43.89,2.9,1.74,4.41,2.59a27.28,27.28,0,0,0,.65,24.25c.32.6.62,1.2.9,1.78.83,1.65,1.52,3.21,2.1,4.68h0a36.46,36.46,0,0,1,2.83,12.45,47.77,47.77,0,0,0,9.27-.2,38.47,38.47,0,0,0,9.63-2.38,27.58,27.58,0,0,0,7.93-4.76l.66-.59c.6-.58,1.2-1.14,1.74-1.71a43,43,0,0,0-2.63-9,55.76,55.76,0,0,0-3.63-7.26c-1.16-2-2.27-3.61-3.18-4.87,2.07.81,4.19,1.57,6.32,2.32,1.56.52,3.14,1,4.73,1.54a60.72,60.72,0,0,1,3.05,6.66c.44,1.18.86,2.38,1.23,3.63a41.63,41.63,0,0,0,3.32-5.46c.44-.88.79-1.68,1.06-2.35,2.35.61,4.73,1.17,7.16,1.69a171.36,171.36,0,0,0,29.57,3.68c1.92.06,9.66.1,11.61.1s3.89,0,5.81-.1a171.36,171.36,0,0,0,29.57-3.68c2.43-.52,4.81-1.08,7.16-1.69.27.67.62,1.47,1.06,2.35a41.63,41.63,0,0,0,3.32,5.46c.37-1.25.78-2.45,1.23-3.63a60.72,60.72,0,0,1,3.05-6.66c1.59-.5,3.17-1,4.73-1.54,2.13-.75,4.25-1.51,6.32-2.32-.91,1.26-2,2.91-3.18,4.87a55.76,55.76,0,0,0-3.63,7.26,43,43,0,0,0-2.63,9c.54.57,1.14,1.13,1.74,1.71l.66.59a27.58,27.58,0,0,0,7.93,4.76,38.47,38.47,0,0,0,9.63,2.38,47.77,47.77,0,0,0,9.27.2A36.46,36.46,0,0,1,310,412h0c.58-1.47,1.27-3,2.1-4.68.28-.58.58-1.18.9-1.78a27.31,27.31,0,0,0,.65-24.25c1.51-.85,3-1.7,4.41-2.59,2.17-1.29,4.26-2.62,6.29-3.95,5-3.3,9.56-6.62,13.61-9.85,7.61-6.05,16.76-11.76,20.63-16.29a84.76,84.76,0,0,1,7.83-8.2c2.37,3.45,6.85,10.05,10.44,15.79C382.1,350.23,386.57,341.36,382.9,331.9Zm-302,6.35a3.32,3.32,0,1,1,3.29-3.32A3.31,3.31,0,0,1,80.91,338.25ZM110.21,361a3.32,3.32,0,1,1,3.27-3.32A3.3,3.3,0,0,1,110.21,361Zm224,0a3.32,3.32,0,1,1,3.29-3.32A3.31,3.31,0,0,1,334.19,361Zm26.32-22.72a3.32,3.32,0,1,1,3.29-3.32A3.3,3.3,0,0,1,360.51,338.25Z" />
      <path class="GUNDAN_LIZARD_OUTFIT_LIZARD_OUTFIT_6_cls-5" d="M234.84,346.32a4.79,4.79,0,0,0-1-.4v0a4.44,4.44,0,0,0-1.82-.06,4.73,4.73,0,0,0-1.46.48,2.66,2.66,0,0,0-.33.21c-1,.71-1.4,1.89-1.53,3.49-.15,2,.09,4.52.14,7.66.11,6.9,2.14,17.39,1.44,20.55.65.19,1.51.43,2.52.65s2.15.41,3.35.56a26.57,26.57,0,0,0,4.55.17,13.07,13.07,0,0,0,3.69-.68,7.11,7.11,0,0,0,2.17-1.19,116.93,116.93,0,0,0-4.3-18.25C240,352.73,237.72,347.89,234.84,346.32Z" />
      <path class="GUNDAN_LIZARD_OUTFIT_LIZARD_OUTFIT_6_cls-5" d="M215.58,357.68c0-3.14.29-5.71.13-7.66-.12-1.6-.52-2.78-1.53-3.49a2,2,0,0,0-.32-.21,4.73,4.73,0,0,0-1.46-.48,4.44,4.44,0,0,0-1.82.06v0a4.79,4.79,0,0,0-1,.4c-2.88,1.57-5.13,6.41-7.4,13.17a116.93,116.93,0,0,0-4.3,18.25,7.18,7.18,0,0,0,2.16,1.19,13.14,13.14,0,0,0,3.7.68,26.57,26.57,0,0,0,4.55-.17c1.2-.15,2.36-.35,3.35-.56s1.87-.46,2.52-.65C213.44,375.07,215.47,364.58,215.58,357.68Z" />
      <path class="GUNDAN_LIZARD_OUTFIT_LIZARD_OUTFIT_6_cls-5" d="M134.43,412h0c-.58-1.47-1.27-3-2.1-4.68-.28-.58-.58-1.18-.9-1.78a27.28,27.28,0,0,1-.65-24.25c-1.51-.85-3-1.7-4.41-2.59-2.17-1.29-4.28-2.62-6.29-3.95-3.35,13-6.18,35.36-6.18,35.36-2,0-4.11-.06-6.38-.18-13-.68-30.58-3.94-50.35-20.7A29.38,29.38,0,0,0,52.69,400l1.12.49a4.64,4.64,0,0,1,.69.38c.25.19,26.24,18.6,59.07,17.84.12,1.17.24,2.41.31,3.67a9.83,9.83,0,0,1-.51,3.69h-1.74c-32.62,0-57.71-16.67-61-19l-.51-.22a63.57,63.57,0,0,0-8,14.44l4.53,1.27c6.48,1.84,18.87,5.35,29.91,8.64,15.17,4.5,32.27.39,33.72,0l.08,0h0A98.33,98.33,0,0,0,106.6,450v0c2.27,4.49,5.71,9.22,9.69,12.12a13.87,13.87,0,0,0,6.38,2.77c4.53.56,7.48-4.32,9.54-10.72.74-2.28,1.37-4.74,1.92-7.22.59-2.75,1.09-5.5,1.54-8s.88-4.86,1.17-7.13a41,41,0,0,0,.42-7.34A36.46,36.46,0,0,0,134.43,412Zm-12.8,36.61c-.54,3.31-2.16,5.78-3.58,5.54s-2.12-3.12-1.58-6.42,2.16-5.78,3.6-5.54S122.19,445.3,121.63,448.61Zm4.53-24.44c-.56,3.3-2.16,5.78-3.59,5.54s-2.13-3.12-1.57-6.42,2.16-5.78,3.58-5.55S126.71,420.87,126.16,424.17Z" />
      <path class="GUNDAN_LIZARD_OUTFIT_LIZARD_OUTFIT_6_cls-5" d="M213.49,405.43v62.18h17.42V405.43c-1.92.06-3.85.1-5.81.1S215.41,405.49,213.49,405.43Z" />
      <path class="GUNDAN_LIZARD_OUTFIT_LIZARD_OUTFIT_6_cls-5" d="M250.37,408.31a3.46,3.46,0,0,0-3.43,3.47,3.48,3.48,0,0,0,3.43,3.48,3.48,3.48,0,0,0,0-6.95Z" />
      <path class="GUNDAN_LIZARD_OUTFIT_LIZARD_OUTFIT_6_cls-5" d="M250.37,429.4a3.46,3.46,0,0,0-3.43,3.47,3.36,3.36,0,0,0,.28,1.37,3.42,3.42,0,0,0,3.15,2.11,3.48,3.48,0,0,0,0-7Z" />
      <path class="GUNDAN_LIZARD_OUTFIT_LIZARD_OUTFIT_6_cls-5" d="M194,429.4a3.48,3.48,0,0,0,0,7,3.42,3.42,0,0,0,3.15-2.11,3.53,3.53,0,0,0,.28-1.37A3.46,3.46,0,0,0,194,429.4Z" />
      <path class="GUNDAN_LIZARD_OUTFIT_LIZARD_OUTFIT_6_cls-5" d="M194,408.31a3.48,3.48,0,0,0,0,6.95,3.42,3.42,0,0,0,3.15-2.11,3.57,3.57,0,0,0,.28-1.37A3.46,3.46,0,0,0,194,408.31Z" />
      <path class="GUNDAN_LIZARD_OUTFIT_LIZARD_OUTFIT_6_cls-5" d="M394.31,406.87l-.51.22c-3.32,2.31-28.41,19-61,19H331a10.25,10.25,0,0,1-.51-3.69c.08-1.26.2-2.5.32-3.67,32.83.76,58.81-17.65,59.07-17.84a4.64,4.64,0,0,1,.69-.38l1.12-.49a29.38,29.38,0,0,0-4.48-10.77c-19.77,16.76-37.32,20-50.35,20.7-2.27.12-4.4.15-6.38.18,0,0-2.83-22.33-6.18-35.36-2,1.33-4.12,2.66-6.29,3.95-1.43.89-2.9,1.74-4.41,2.59a27.31,27.31,0,0,1-.65,24.25c-.32.6-.62,1.2-.9,1.78-.83,1.65-1.52,3.21-2.1,4.68h0a36.46,36.46,0,0,0-2.83,12.45,41,41,0,0,0,.42,7.34c.29,2.27.72,4.59,1.17,7.13s.94,5.29,1.54,8c.55,2.48,1.18,4.94,1.92,7.22,2.06,6.4,5,11.28,9.54,10.72a13.91,13.91,0,0,0,6.38-2.77c4-2.9,7.42-7.63,9.69-12.12v0a98.33,98.33,0,0,0-3.75-18.77h0l.08,0c1.45.36,18.55,4.47,33.72,0,11-3.29,23.43-6.8,29.91-8.64l4.53-1.27A63.57,63.57,0,0,0,394.31,406.87Zm-72.49,22.84c-1.42.24-3-2.24-3.58-5.54s.14-6.18,1.57-6.43,3,2.24,3.59,5.55S323.25,429.46,321.82,429.71Zm4.53,24.44c-1.43.24-3-2.23-3.6-5.54s.16-6.17,1.58-6.42,3,2.23,3.59,5.54S327.77,453.9,326.35,454.15Z" />
      <path class="GUNDAN_LIZARD_OUTFIT_LIZARD_OUTFIT_6_cls-5" d="M194,332a11.34,11.34,0,0,0,9.81-.75c1.39-.81,2.71-1.57,3.91-2.25a178.45,178.45,0,0,1-16.47-8.46,8,8,0,0,0-2.6,4.85,5.24,5.24,0,0,0,.95,3.29A9.17,9.17,0,0,0,194,332Z" />
      <path class="GUNDAN_LIZARD_OUTFIT_LIZARD_OUTFIT_6_cls-5" d="M254.77,328.67a5.24,5.24,0,0,0,.95-3.29,8,8,0,0,0-2.6-4.85A178.45,178.45,0,0,1,236.65,329c1.2.68,2.51,1.44,3.91,2.25a11.34,11.34,0,0,0,9.81.75A9.22,9.22,0,0,0,254.77,328.67Z" />
      <path class="GUNDAN_LIZARD_OUTFIT_LIZARD_OUTFIT_6_cls-5" d="M186.42,335.91a15.41,15.41,0,0,1-2.83-3.12,12.81,12.81,0,0,1-1.9-4.57,13.42,13.42,0,0,1,3.24-11.57c-35.17-22.45-56.76-53.55-56.76-53.55l1.05,7.74-4.56,4.92s-19.31,5.47-21.33,7.39c-1.25,1.2-1.36,5.25,1.09,9.66-2.4,1.62-.59,8-4,8.55-5.23.93-17.73,1.64-22.18,8.5-5.24,10.84-5.53,13.62-5.53,13.62l2.53,4a69.14,69.14,0,0,0,13.11-9.75h0c5.72.77,19.34,2.95,26.49,8.43,5.59,4.29,12.53,12.53,19.49,21.16,5.43,6.75,10.87,13.75,15.68,19.28,5.5,6.36,10.19,10.82,13.08,10.82,7.29,0,11.6-3.21,15.63-10.39,3.21-5.69,9.62-21.93,12.12-28.38A17.25,17.25,0,0,1,186.42,335.91Z" />
      <path class="GUNDAN_LIZARD_OUTFIT_LIZARD_OUTFIT_6_cls-5" d="M329.52,326.16a42.37,42.37,0,0,1,20.22-8.43h0c3,2.8,11,6.73,16.41,9.75l2.52-4s-.29-2.78-5.52-13.62c-4.46-6.86-14-7.57-19.2-8.5-3.39-.59-7.4-3-9.8-4.61,2.45-4.41,2.34-8.46,1.09-9.66-2-1.93-18.56-8.11-18.56-8.11l-4.56-4.92,1.05-7.74s-18.54,27.88-53.71,50.33a13.42,13.42,0,0,1,3.24,11.57,12.81,12.81,0,0,1-1.9,4.57,15.41,15.41,0,0,1-2.83,3.12,17.25,17.25,0,0,1-4.46,2.74c2.5,6.45,8.91,22.69,12.12,28.38,4,7.18,8.34,10.39,15.63,10.39,2.89,0,7.58-4.46,13.08-10.82,4.81-5.53,10.25-12.53,15.68-19.28C317,338.69,323.93,330.45,329.52,326.16Z" />
      <path class="GUNDAN_LIZARD_OUTFIT_LIZARD_OUTFIT_6_cls-4" d="M214.23,317.85c-.3-.17-.63-.35-1-.52a20.93,20.93,0,0,0-9.15-2.27,17.09,17.09,0,0,0-7.38,1.69,20.5,20.5,0,0,0-4,2.51c-.3.25-.63.53-1,.84-.15.13-.29.28-.45.43A178.45,178.45,0,0,0,207.75,329c.8-.47,1.55-.9,2.27-1.3l4.3-2.45a22.75,22.75,0,0,1-.33-4A25,25,0,0,1,214.23,317.85Z" />
      <path class="GUNDAN_LIZARD_OUTFIT_LIZARD_OUTFIT_6_cls-4" d="M251.7,319.26a20.5,20.5,0,0,0-4-2.51,17.1,17.1,0,0,0-7.39-1.69,20.89,20.89,0,0,0-9.14,2.27c-.35.17-.68.35-1,.52a25,25,0,0,1,.24,3.43,22.75,22.75,0,0,1-.33,4l4.3,2.45c.72.4,1.47.83,2.27,1.3a178.45,178.45,0,0,0,16.47-8.46c-.16-.15-.3-.3-.45-.43C252.33,319.79,252,319.51,251.7,319.26Z" />
      <path class="GUNDAN_LIZARD_OUTFIT_LIZARD_OUTFIT_6_cls-4" d="M203.11,307.75a25.42,25.42,0,0,1,4.31.21C191.2,297.77,154.2,271.2,139,257.47a97,97,0,0,0-10.87,5.63s21.59,31.1,56.76,53.55l.36-.44h0a21.22,21.22,0,0,1,2.89-2.73,26.52,26.52,0,0,1,6.8-4A24.31,24.31,0,0,1,203.11,307.75Z" />
      <path class="GUNDAN_LIZARD_OUTFIT_LIZARD_OUTFIT_6_cls-4" d="M297.6,262.44C282.43,276.17,253.2,297.77,237,308a25.42,25.42,0,0,1,4.31-.21,24.31,24.31,0,0,1,8.11,1.75,26.52,26.52,0,0,1,6.8,4,21.22,21.22,0,0,1,2.89,2.73h0l.36.44c35.17-22.45,53.71-50.33,53.71-50.33S303,264.72,297.6,262.44Z" />
      <path class="GUNDAN_LIZARD_OUTFIT_LIZARD_OUTFIT_6_cls-6" d="M214.18,346.53a73.4,73.4,0,0,1,2.94-13.61c.11-.33.22-.64.31-.89" />
      <path class="GUNDAN_LIZARD_OUTFIT_LIZARD_OUTFIT_6_cls-6" d="M210.58,345.9a77.55,77.55,0,0,1,2.27-11.45" />
      <path class="GUNDAN_LIZARD_OUTFIT_LIZARD_OUTFIT_6_cls-6" d="M200,378.93a7.18,7.18,0,0,1-2.16-1.19,116.93,116.93,0,0,1,4.3-18.25c2.27-6.76,4.52-11.6,7.4-13.17a4.79,4.79,0,0,1,1-.4v0a4.44,4.44,0,0,1,1.82-.06,4.73,4.73,0,0,1,1.46.48,2,2,0,0,1,.32.21c1,.71,1.41,1.89,1.53,3.49.16,2-.08,4.52-.13,7.66-.11,6.9-2.14,17.39-1.44,20.55-.65.19-1.51.43-2.52.65s-2.15.41-3.35.56a26.57,26.57,0,0,1-4.55.17A13.14,13.14,0,0,1,200,378.93Z" />
      <path class="GUNDAN_LIZARD_OUTFIT_LIZARD_OUTFIT_6_cls-6" d="M207.75,329a178.45,178.45,0,0,1-16.47-8.46" />
      <path class="GUNDAN_LIZARD_OUTFIT_LIZARD_OUTFIT_6_cls-6" d="M207.42,308C191.2,297.77,154.2,271.2,139,257.47a97,97,0,0,0-10.87,5.63s21.59,31.1,56.76,53.55" />
      <path class="GUNDAN_LIZARD_OUTFIT_LIZARD_OUTFIT_6_cls-6" d="M128.17,263.1l1.05,7.74-4.56,4.92s-19.31,5.47-21.33,7.39c-1.25,1.2-1.36,5.25,1.09,9.66,1.48,2.69,9.73,9.44,13.42,11.83,6,3.89,19.13,9.69,32.21,13.64,8.15,2.47,16.29,4.22,22.7,4.34" />
      <path class="GUNDAN_LIZARD_OUTFIT_LIZARD_OUTFIT_6_cls-6" d="M75.26,327.48l-2.53-4s.29-2.78,5.53-13.62c4.45-6.86,16.95-7.57,22.18-8.5,3.39-.59,1.58-6.93,4-8.55" />
      <path class="GUNDAN_LIZARD_OUTFIT_LIZARD_OUTFIT_6_cls-6" d="M88.37,317.73a36.41,36.41,0,0,0-10.54,0" />
      <path class="GUNDAN_LIZARD_OUTFIT_LIZARD_OUTFIT_6_cls-6" d="M186.42,335.91c-4.71,15-15.63,41.51-23.29,41.51-2.89,0-7.58-4.46-13.08-10.82-4.81-5.53-10.25-12.53-15.68-19.27-7-8.64-13.9-16.88-19.49-21.17-7.15-5.48-20.77-7.66-26.49-8.43" />
      <path class="GUNDAN_LIZARD_OUTFIT_LIZARD_OUTFIT_6_cls-6" d="M163.13,377.42c7.29,0,11.6-3.21,15.63-10.39,3.21-5.69,9.62-21.93,12.12-28.38" />
      <path class="GUNDAN_LIZARD_OUTFIT_LIZARD_OUTFIT_6_cls-6" d="M111.27,312.21s36.38,22,38.78,54.39" />
      <path class="GUNDAN_LIZARD_OUTFIT_LIZARD_OUTFIT_6_cls-6" d="M88.39,317.73h0a69.14,69.14,0,0,1-13.11,9.75,34.68,34.68,0,0,1-11.71,4.24,20.75,20.75,0,0,1-5,.18c-3.67,9.46.8,18.33,6.07,24.29" />
      <path class="GUNDAN_LIZARD_OUTFIT_LIZARD_OUTFIT_6_cls-6" d="M62.48,335a2.42,2.42,0,0,1,1.47-.59c1.71-.19,5.11.58,11.08,5.95a89.91,89.91,0,0,1,7.82,8.2c3.86,4.53,16,10.24,23.6,16.29,4.06,3.23,8.61,6.55,13.63,9.85,2,1.33,4.12,2.66,6.29,3.95,1.43.89,2.9,1.74,4.41,2.59a190.46,190.46,0,0,0,26.27,12.44c2.07.81,4.19,1.57,6.32,2.32,1.56.52,3.14,1,4.73,1.54,2.83.88,5.72,1.72,8.66,2.48,2.35.61,4.73,1.17,7.16,1.69a170.39,170.39,0,0,0,29.57,3.68c1.92.06,9.66.1,11.61.1" />
      <path class="GUNDAN_LIZARD_OUTFIT_LIZARD_OUTFIT_6_cls-6" d="M75,340.4c-2.37,3.45-6.85,10.05-10.45,15.79a79.43,79.43,0,0,0-4.68,8.28c-3.08,6.85,1.81,17.67,1.61,18.73-.11.5-2.19,2.7-4.34,6" />
      <path class="GUNDAN_LIZARD_OUTFIT_LIZARD_OUTFIT_6_cls-6" d="M110.25,431.25c-1.45.36-18.55,4.47-33.72,0-11-3.29-23.43-6.8-29.91-8.64l-4.53-1.27a63.57,63.57,0,0,1,8-14.44" />
      <path class="GUNDAN_LIZARD_OUTFIT_LIZARD_OUTFIT_6_cls-6" d="M52.69,400a29.38,29.38,0,0,1,4.48-10.77c19.77,16.76,37.32,20,50.35,20.7,2.27.12,4.4.15,6.38.18-1.05,2-.7,5.09-.33,8.6.12,1.17.24,2.41.31,3.67a9.83,9.83,0,0,1-.51,3.69,14.07,14.07,0,0,1-3,5.16" />
      <path class="GUNDAN_LIZARD_OUTFIT_LIZARD_OUTFIT_6_cls-6" d="M415.26,467.61H29.14l1.27-6.5,1.91-6.62v-6.36c3.39-3.5,4-6.21,5-10.42s5.87-7.71,7.78-9.2c1.24-1,1.52-3.93,1.57-5.93" />
      <path class="GUNDAN_LIZARD_OUTFIT_LIZARD_OUTFIT_6_cls-6" d="M106.6,450a98.33,98.33,0,0,1,3.75-18.77" />
      <path class="GUNDAN_LIZARD_OUTFIT_LIZARD_OUTFIT_6_cls-6" d="M102.58,441c-1.91-.25-19.86,6-25.8,6.68-5.76.62,31.31-15.43,33.47-16.38l.08,0h0" />
      <path class="GUNDAN_LIZARD_OUTFIT_LIZARD_OUTFIT_6_cls-6" d="M86.45,382.25c.3.51,7.53,12.6,9.53,19.57" />
      <path class="GUNDAN_LIZARD_OUTFIT_LIZARD_OUTFIT_6_cls-6" d="M86.44,382.23v0c.24.13,4.32,2.51,10.49,10.8a144.76,144.76,0,0,1,10.58,16.87" />
      <path class="GUNDAN_LIZARD_OUTFIT_LIZARD_OUTFIT_6_cls-7" d="M113.57,418.7c-32.83.76-58.82-17.65-59.07-17.84a4.64,4.64,0,0,0-.69-.38L52.69,400a19.66,19.66,0,0,0-.32,3.86c-.81,1-1.57,2-2.28,3l.51.22c3.32,2.31,28.41,19,61,19h1.74" />
      <path class="GUNDAN_LIZARD_OUTFIT_LIZARD_OUTFIT_6_cls-6" d="M134.43,412a36.46,36.46,0,0,1,2.83,12.45,41,41,0,0,1-.42,7.34c-.29,2.27-.72,4.59-1.17,7.13s-.95,5.29-1.54,8c-.55,2.48-1.18,4.94-1.92,7.22-2.06,6.4-5,11.28-9.54,10.72a13.87,13.87,0,0,1-6.38-2.77c-4-2.9-7.42-7.63-9.69-12.12v0" />
      <path class="GUNDAN_LIZARD_OUTFIT_LIZARD_OUTFIT_6_cls-6" d="M130.78,381.28a27.28,27.28,0,0,0,.65,24.25c.32.6.62,1.2.9,1.78.83,1.65,1.52,3.21,2.1,4.68" />
      <path class="GUNDAN_LIZARD_OUTFIT_LIZARD_OUTFIT_6_cls-6" d="M116.29,462.13c8.48-.76,12.31-15.64,14.86-28.39s-1.7-19.65-6.23-31.92c-3.36-9.1-.32-18.75,1.45-23.13" />
      <path class="GUNDAN_LIZARD_OUTFIT_LIZARD_OUTFIT_6_cls-6" d="M126.16,424.17c-.56,3.3-2.16,5.78-3.59,5.54s-2.13-3.12-1.57-6.42,2.16-5.78,3.58-5.55S126.71,420.87,126.16,424.17Z" />
      <path class="GUNDAN_LIZARD_OUTFIT_LIZARD_OUTFIT_6_cls-7" d="M136.84,431.79c1,.09,2.46.16,4.15.16a53.37,53.37,0,0,0,6.94-.45,44.59,44.59,0,0,0,10.95-2.8,34.86,34.86,0,0,0,7.94-4.4c.61-.45,1.19-.91,1.77-1.41.38-.32.76-.65,1.12-1,1.68-1.58,3.17-3.12,4.52-4.61.89-1,1.72-2,2.48-3a49.65,49.65,0,0,0,5.63-8.87c.69-1.42,1.2-2.66,1.58-3.68" />
      <path class="GUNDAN_LIZARD_OUTFIT_LIZARD_OUTFIT_6_cls-7" d="M137.26,424.45a47.77,47.77,0,0,0,9.27-.2,38.47,38.47,0,0,0,9.63-2.38,27.58,27.58,0,0,0,7.93-4.76l.66-.59c.6-.58,1.2-1.14,1.74-1.71a55.31,55.31,0,0,0,4.86-5.54c.37-.48.72-.95,1-1.4a41.63,41.63,0,0,0,3.32-5.46c.44-.88.79-1.68,1.06-2.35" />
      <path class="GUNDAN_LIZARD_OUTFIT_LIZARD_OUTFIT_6_cls-7" d="M166.49,414.81a43,43,0,0,0-2.63-9,55.76,55.76,0,0,0-3.63-7.26c-1.16-2-2.27-3.61-3.18-4.87" />
      <path class="GUNDAN_LIZARD_OUTFIT_LIZARD_OUTFIT_6_cls-7" d="M172.38,407.87c-.37-1.25-.79-2.45-1.23-3.63a60.72,60.72,0,0,0-3.05-6.66" />
      <path class="GUNDAN_LIZARD_OUTFIT_LIZARD_OUTFIT_6_cls-7" d="M166.82,424.3c0,.41-.11.83-.18,1.24a27.51,27.51,0,0,1-1.57,5.82,24.78,24.78,0,0,1-1.83,3.76,22.41,22.41,0,0,1-8,7.82,31.8,31.8,0,0,1-11.51,3.76,44.54,44.54,0,0,1-6,.4c-1.38,0-2.6-.06-3.58-.14" />
      <path class="GUNDAN_LIZARD_OUTFIT_LIZARD_OUTFIT_6_cls-7" d="M132.21,454.18a43.16,43.16,0,0,0,5.31.31,48.78,48.78,0,0,0,6-.37,40.9,40.9,0,0,0,14.86-4.63A29.4,29.4,0,0,0,170,437.94a28.4,28.4,0,0,0,1.83-3.89,37,37,0,0,0,2.35-10,41.39,41.39,0,0,0,0-6.77" />
      <path class="GUNDAN_LIZARD_OUTFIT_LIZARD_OUTFIT_6_cls-6" d="M134.37,347.33C132,351.84,127,359.41,118.48,363a26.35,26.35,0,0,1-12,1.9" />
      <path class="GUNDAN_LIZARD_OUTFIT_LIZARD_OUTFIT_6_cls-6" d="M225.1,396.9c-23.27,0-48.28-4-63.56-9.39h0q-3-1.06-5.88-2.2c-20.18-8-32.47-18-37.17-22.32" />
      <path class="GUNDAN_LIZARD_OUTFIT_LIZARD_OUTFIT_6_cls-6" d="M110.35,372.61c-1,11,3.55,37.49,3.55,37.49s2.83-22.33,6.18-35.36" />
      <path class="GUNDAN_LIZARD_OUTFIT_LIZARD_OUTFIT_6_cls-6" d="M150.05,318.28s16.84,15,21.28,29.63" />
      <path class="GUNDAN_LIZARD_OUTFIT_LIZARD_OUTFIT_6_cls-6" d="M129.22,270.84s4.14,9.53,7.11,12.74" />
      <path class="GUNDAN_LIZARD_OUTFIT_LIZARD_OUTFIT_6_cls-6" d="M105.46,282s11,15.78,27.1,20.07a117.29,117.29,0,0,1,28.72,12.12" />
      <polyline class="GUNDAN_LIZARD_OUTFIT_LIZARD_OUTFIT_6_cls-6" points="213.49 467.61 213.49 458.81 213.49 437.72 213.49 416.63 213.49 405.43" />
      <path class="GUNDAN_LIZARD_OUTFIT_LIZARD_OUTFIT_6_cls-6" d="M136,391.44s-2.34,9.69-3.67,15.87" />
      <path class="GUNDAN_LIZARD_OUTFIT_LIZARD_OUTFIT_6_cls-6" d="M137.29,400.44s-1.86,7.06-2.86,11.55h0" />
      <ellipse class="GUNDAN_LIZARD_OUTFIT_LIZARD_OUTFIT_6_cls-6" cx="80.91" cy="334.93" rx="3.29" ry="3.32" />
      <path class="GUNDAN_LIZARD_OUTFIT_LIZARD_OUTFIT_6_cls-6" d="M113.48,357.65a3.29,3.29,0,1,1-3.27-3.32A3.3,3.3,0,0,1,113.48,357.65Z" />
      <path class="GUNDAN_LIZARD_OUTFIT_LIZARD_OUTFIT_6_cls-6" d="M185.29,316.21l-.36.44a13.42,13.42,0,0,0-3.24,11.57,12.81,12.81,0,0,0,1.9,4.57,15.41,15.41,0,0,0,2.83,3.12,17.25,17.25,0,0,0,4.46,2.74,15.08,15.08,0,0,0,1.69.65,18.7,18.7,0,0,0,5.57.86,18,18,0,0,0,5.58-.88,18.82,18.82,0,0,0,3.76-1.67L212,335l.88-.53c1.08-.65,2.16-1.31,3.19-1.95.39-.24.77-.47,1.13-.71" />
      <path class="GUNDAN_LIZARD_OUTFIT_LIZARD_OUTFIT_6_cls-6" d="M214.45,309.81a28.18,28.18,0,0,0-7-1.85,25.42,25.42,0,0,0-4.31-.21A24.31,24.31,0,0,0,195,309.5a26.52,26.52,0,0,0-6.8,4,21.22,21.22,0,0,0-2.89,2.73" />
      <path class="GUNDAN_LIZARD_OUTFIT_LIZARD_OUTFIT_6_cls-6" d="M217,311c-.78-.4-1.63-.8-2.52-1.15" />
      <path class="GUNDAN_LIZARD_OUTFIT_LIZARD_OUTFIT_6_cls-6" d="M214.32,325.24l-4.3,2.45c-.72.4-1.47.83-2.27,1.3-1.2.68-2.52,1.44-3.91,2.25A11.36,11.36,0,0,1,194,332a9.19,9.19,0,0,1-4.39-3.32,5.24,5.24,0,0,1-.95-3.29,8,8,0,0,1,2.6-4.85c.16-.15.3-.3.45-.43.34-.31.67-.59,1-.84a20.5,20.5,0,0,1,4-2.51,17.09,17.09,0,0,1,7.38-1.69,20.93,20.93,0,0,1,9.15,2.27c.35.17.68.35,1,.52" />
      <path class="GUNDAN_LIZARD_OUTFIT_LIZARD_OUTFIT_6_cls-6" d="M214.45,309.81h0c.85,2.27,1.16,5.19-1.2,7.51" />
      <path class="GUNDAN_LIZARD_OUTFIT_LIZARD_OUTFIT_6_cls-6" d="M203.11,307.75c1.44,1.58,2.9,4.19,1,7.31" />
      <path class="GUNDAN_LIZARD_OUTFIT_LIZARD_OUTFIT_6_cls-6" d="M195,309.5c1.07,1.74,2.35,4.55,1.72,7.25" />
      <path class="GUNDAN_LIZARD_OUTFIT_LIZARD_OUTFIT_6_cls-6" d="M185.29,316.21h0c2.53-.34,5.3.25,6.42,3.89" />
      <path class="GUNDAN_LIZARD_OUTFIT_LIZARD_OUTFIT_6_cls-6" d="M181.69,328.22c1.68-2.55,4.85-2.93,7-2.84" />
      <path class="GUNDAN_LIZARD_OUTFIT_LIZARD_OUTFIT_6_cls-6" d="M192.57,339.3A7.73,7.73,0,0,1,194,332" />
      <path class="GUNDAN_LIZARD_OUTFIT_LIZARD_OUTFIT_6_cls-6" d="M203.72,339.28a9.42,9.42,0,0,1-1.76-7.17" />
      <path class="GUNDAN_LIZARD_OUTFIT_LIZARD_OUTFIT_6_cls-6" d="M210,327.69a16.6,16.6,0,0,0,.21,2.4h0A12,12,0,0,0,212,335" />
      <path class="GUNDAN_LIZARD_OUTFIT_LIZARD_OUTFIT_6_cls-6" d="M146.53,424.25a7.62,7.62,0,0,1,1.4,7.25" />
      <path class="GUNDAN_LIZARD_OUTFIT_LIZARD_OUTFIT_6_cls-6" d="M156.16,421.87a8.41,8.41,0,0,1,2.72,6.83" />
      <path class="GUNDAN_LIZARD_OUTFIT_LIZARD_OUTFIT_6_cls-6" d="M168.59,422.89A9.72,9.72,0,0,0,167,420s0,0,0,0a13.6,13.6,0,0,0-2.91-2.84" />
      <path class="GUNDAN_LIZARD_OUTFIT_LIZARD_OUTFIT_6_cls-6" d="M171.35,409.27a10.54,10.54,0,0,1,5.36,5" />
      <path class="GUNDAN_LIZARD_OUTFIT_LIZARD_OUTFIT_6_cls-6" d="M175.7,402.41c2,0,4.88.56,6.64,3" />
      <path class="GUNDAN_LIZARD_OUTFIT_LIZARD_OUTFIT_6_cls-6" d="M166.64,425.54c1.91-1.55,4.66-3,7.57-1.49" />
      <path class="GUNDAN_LIZARD_OUTFIT_LIZARD_OUTFIT_6_cls-6" d="M163.86,405.85c1.82-1.2,4.54-2.43,7.29-1.61" />
      <path class="GUNDAN_LIZARD_OUTFIT_LIZARD_OUTFIT_6_cls-6" d="M160.23,398.59a10.31,10.31,0,0,1,3.14-2.55" />
      <path class="GUNDAN_LIZARD_OUTFIT_LIZARD_OUTFIT_6_cls-6" d="M200,378.91s4.16-20.22,9.54-32.58" />
      <path class="GUNDAN_LIZARD_OUTFIT_LIZARD_OUTFIT_6_cls-6" d="M203.72,379.61s5.23-25.35,8.68-33.77" />
      <path class="GUNDAN_LIZARD_OUTFIT_LIZARD_OUTFIT_6_cls-6" d="M213.86,346.33s-6,23.77-5.59,33.1" />
      <path class="GUNDAN_LIZARD_OUTFIT_LIZARD_OUTFIT_6_cls-6" d="M211.62,378.87s.95-20.45,4.09-28.85" />
      <path class="GUNDAN_LIZARD_OUTFIT_LIZARD_OUTFIT_6_cls-6" d="M227,332c.09.25.2.56.31.89a72.75,72.75,0,0,1,2.93,13.61" />
      <path class="GUNDAN_LIZARD_OUTFIT_LIZARD_OUTFIT_6_cls-6" d="M231.55,334.45a77.55,77.55,0,0,1,2.27,11.45" />
      <path class="GUNDAN_LIZARD_OUTFIT_LIZARD_OUTFIT_6_cls-6" d="M244.37,378.93a7.11,7.11,0,0,0,2.17-1.19,116.93,116.93,0,0,0-4.3-18.25c-2.27-6.76-4.52-11.6-7.4-13.17a4.79,4.79,0,0,0-1-.4v0a4.44,4.44,0,0,0-1.82-.06,4.73,4.73,0,0,0-1.46.48,2.66,2.66,0,0,0-.33.21c-1,.71-1.4,1.89-1.53,3.49-.15,2,.09,4.52.14,7.66.11,6.9,2.14,17.39,1.44,20.55.65.19,1.51.43,2.52.65s2.15.41,3.35.56a26.57,26.57,0,0,0,4.55.17A13.07,13.07,0,0,0,244.37,378.93Z" />
      <path class="GUNDAN_LIZARD_OUTFIT_LIZARD_OUTFIT_6_cls-6" d="M253.12,320.53A178.45,178.45,0,0,1,236.65,329" />
      <path class="GUNDAN_LIZARD_OUTFIT_LIZARD_OUTFIT_6_cls-6" d="M259.47,316.65c35.17-22.45,53.71-50.33,53.71-50.33s-10.2-1.6-15.58-3.88C282.43,276.17,253.2,297.77,237,308" />
      <path class="GUNDAN_LIZARD_OUTFIT_LIZARD_OUTFIT_6_cls-6" d="M313.18,266.32l-1.05,7.74,4.56,4.92s16.54,6.18,18.56,8.11c1.25,1.2,1.36,5.25-1.09,9.66a22.73,22.73,0,0,1-7.62,7.89c-6,3.89-19.11,9.69-32.19,13.64-8.15,2.47-16.29,4.22-22.7,4.34" />
      <path class="GUNDAN_LIZARD_OUTFIT_LIZARD_OUTFIT_6_cls-6" d="M334.16,296.75c2.4,1.62,6.41,4,9.8,4.61,5.23.93,14.74,1.64,19.2,8.5,5.23,10.84,5.52,13.62,5.52,13.62l-2.52,4" />
      <path class="GUNDAN_LIZARD_OUTFIT_LIZARD_OUTFIT_6_cls-6" d="M349.74,317.73a42.37,42.37,0,0,0-20.22,8.43c-5.59,4.29-12.53,12.53-19.49,21.17-5.43,6.74-10.87,13.74-15.68,19.27-5.5,6.36-10.19,10.82-13.08,10.82-7.66,0-18.58-26.51-23.29-41.51" />
      <path class="GUNDAN_LIZARD_OUTFIT_LIZARD_OUTFIT_6_cls-6" d="M363.58,317.7a68.53,68.53,0,0,0-13.83,0" />
      <path class="GUNDAN_LIZARD_OUTFIT_LIZARD_OUTFIT_6_cls-6" d="M253.52,338.65c2.5,6.45,8.91,22.69,12.12,28.38,4,7.18,8.34,10.39,15.63,10.39" />
      <path class="GUNDAN_LIZARD_OUTFIT_LIZARD_OUTFIT_6_cls-6" d="M333.13,312.21s-36.39,22-38.78,54.39" />
      <path class="GUNDAN_LIZARD_OUTFIT_LIZARD_OUTFIT_6_cls-6" d="M376.83,356.19c5.27-6,9.74-14.83,6.07-24.29a20.79,20.79,0,0,1-5-.18,34.63,34.63,0,0,1-11.7-4.24c-5.44-3-13.41-7-16.41-9.75h0" />
      <path class="GUNDAN_LIZARD_OUTFIT_LIZARD_OUTFIT_6_cls-6" d="M378.93,335a2.38,2.38,0,0,0-1.47-.59c-1.72-.19-5.12.57-11.07,5.95a84.76,84.76,0,0,0-7.83,8.2c-3.87,4.53-13,10.24-20.63,16.29-4.05,3.23-8.61,6.55-13.61,9.85-2,1.33-4.12,2.66-6.29,3.95-1.43.89-2.9,1.74-4.41,2.59a190.46,190.46,0,0,1-26.27,12.44c-2.07.81-4.19,1.57-6.32,2.32-1.56.52-3.14,1-4.73,1.54-2.83.88-5.72,1.72-8.66,2.48-2.35.61-4.73,1.17-7.16,1.69a170.39,170.39,0,0,1-29.57,3.68c-1.92.06-3.85.1-5.81.1" />
      <path class="GUNDAN_LIZARD_OUTFIT_LIZARD_OUTFIT_6_cls-6" d="M387.23,389.22c-2.15-3.32-4.23-5.52-4.34-6-.2-1.06,1.7-11.88-1.37-18.73a79.85,79.85,0,0,0-4.69-8.28c-3.59-5.74-8.07-12.34-10.44-15.79" />
      <path class="GUNDAN_LIZARD_OUTFIT_LIZARD_OUTFIT_6_cls-6" d="M334.05,431.22a14.17,14.17,0,0,1-3-5.16,10.25,10.25,0,0,1-.51-3.69c.08-1.26.2-2.5.32-3.67.36-3.51.72-6.58-.33-8.6,2,0,4.11-.06,6.38-.18,13-.68,30.58-3.94,50.35-20.7A29.38,29.38,0,0,1,391.71,400" />
      <path class="GUNDAN_LIZARD_OUTFIT_LIZARD_OUTFIT_6_cls-6" d="M394.31,406.87a63.57,63.57,0,0,1,8,14.44l-4.53,1.27c-6.48,1.84-18.87,5.35-29.91,8.64-15.17,4.5-32.27.39-33.72,0" />
      <path class="GUNDAN_LIZARD_OUTFIT_LIZARD_OUTFIT_6_cls-6" d="M397.78,422.58c.05,2,.33,5,1.57,5.93,1.9,1.49,6.86,5,7.78,9.2s1.56,6.92,4.95,10.42v6.36l1.91,6.62,1.27,6.5" />
      <path class="GUNDAN_LIZARD_OUTFIT_LIZARD_OUTFIT_6_cls-6" d="M334.05,431.22A98.33,98.33,0,0,1,337.8,450" />
      <path class="GUNDAN_LIZARD_OUTFIT_LIZARD_OUTFIT_6_cls-6" d="M334.05,431.22h0l.08,0c2.16.95,39.23,17,33.46,16.38-5.93-.64-23.88-6.93-25.79-6.68" />
      <path class="GUNDAN_LIZARD_OUTFIT_LIZARD_OUTFIT_6_cls-6" d="M348.41,401.82c2-7,9.23-19.06,9.54-19.57" />
      <path class="GUNDAN_LIZARD_OUTFIT_LIZARD_OUTFIT_6_cls-6" d="M336.88,409.92a144.76,144.76,0,0,1,10.58-16.87c6.16-8.29,10.25-10.67,10.49-10.8v0" />
      <path class="GUNDAN_LIZARD_OUTFIT_LIZARD_OUTFIT_6_cls-7" d="M331,426.06h1.75c32.62,0,57.71-16.67,61-19l.51-.22c-.71-1-1.47-2-2.29-3a18.93,18.93,0,0,0-.31-3.86l-1.12.49a4.64,4.64,0,0,0-.69.38c-.26.19-26.24,18.6-59.07,17.84" />
      <path class="GUNDAN_LIZARD_OUTFIT_LIZARD_OUTFIT_6_cls-6" d="M337.8,450v0c-2.27,4.49-5.71,9.22-9.69,12.12a13.91,13.91,0,0,1-6.38,2.77c-4.53.56-7.48-4.32-9.54-10.72-.74-2.28-1.37-4.74-1.92-7.22-.6-2.75-1.09-5.5-1.54-8s-.88-4.86-1.17-7.13a41,41,0,0,1-.42-7.34A36.46,36.46,0,0,1,310,412h0c.58-1.47,1.27-3,2.1-4.68.28-.58.58-1.18.9-1.78a27.31,27.31,0,0,0,.65-24.25" />
      <path class="GUNDAN_LIZARD_OUTFIT_LIZARD_OUTFIT_6_cls-6" d="M318,378.69c1.77,4.38,4.81,14,1.44,23.13-4.52,12.27-8.76,19.17-6.23,31.92s6.39,27.63,14.87,28.39" />
      <path class="GUNDAN_LIZARD_OUTFIT_LIZARD_OUTFIT_6_cls-6" d="M318.24,424.17c.55,3.3,2.16,5.78,3.58,5.54s2.14-3.12,1.58-6.42-2.16-5.78-3.59-5.55S317.68,420.87,318.24,424.17Z" />
      <path class="GUNDAN_LIZARD_OUTFIT_LIZARD_OUTFIT_6_cls-7" d="M260.48,401.75a36.47,36.47,0,0,0,1.58,3.68,49.65,49.65,0,0,0,5.63,8.87c.75,1,1.59,2,2.48,3,1.35,1.49,2.84,3,4.52,4.61.36.35.74.68,1.11,1,.59.5,1.17,1,1.78,1.41a34.86,34.86,0,0,0,7.94,4.4,44.48,44.48,0,0,0,11,2.8,53.37,53.37,0,0,0,6.94.45c1.69,0,3.09-.07,4.15-.16" />
      <path class="GUNDAN_LIZARD_OUTFIT_LIZARD_OUTFIT_6_cls-7" d="M267.64,400.06c.27.67.62,1.47,1.06,2.35a41.63,41.63,0,0,0,3.32,5.46c.31.45.66.92,1,1.4a54.06,54.06,0,0,0,4.86,5.54c.54.57,1.14,1.13,1.74,1.71l.66.59a27.58,27.58,0,0,0,7.93,4.76,38.47,38.47,0,0,0,9.63,2.38,47.77,47.77,0,0,0,9.27.2" />
      <path class="GUNDAN_LIZARD_OUTFIT_LIZARD_OUTFIT_6_cls-7" d="M287.35,393.72c-.91,1.26-2,2.91-3.18,4.87a55.76,55.76,0,0,0-3.63,7.26,43,43,0,0,0-2.63,9" />
      <path class="GUNDAN_LIZARD_OUTFIT_LIZARD_OUTFIT_6_cls-7" d="M276.3,397.58a60.72,60.72,0,0,0-3.05,6.66c-.45,1.18-.86,2.38-1.23,3.63" />
      <path class="GUNDAN_LIZARD_OUTFIT_LIZARD_OUTFIT_6_cls-7" d="M310.27,447c-1,.08-2.2.14-3.58.14a44.54,44.54,0,0,1-6-.4,31.74,31.74,0,0,1-11.51-3.76,22.41,22.41,0,0,1-8-7.82,24.78,24.78,0,0,1-1.83-3.76,27.51,27.51,0,0,1-1.57-5.82c-.07-.41-.13-.83-.18-1.24" />
      <path class="GUNDAN_LIZARD_OUTFIT_LIZARD_OUTFIT_6_cls-7" d="M270.17,417.28a41.39,41.39,0,0,0,0,6.77,36.59,36.59,0,0,0,2.35,10,28.4,28.4,0,0,0,1.83,3.89A29.34,29.34,0,0,0,286,449.49a40.9,40.9,0,0,0,14.86,4.63,48.66,48.66,0,0,0,6,.37,43.16,43.16,0,0,0,5.31-.31" />
      <path class="GUNDAN_LIZARD_OUTFIT_LIZARD_OUTFIT_6_cls-6" d="M338,364.89h0a26.29,26.29,0,0,1-12-1.9c-8.56-3.58-13.56-11.15-15.89-15.66" />
      <path class="GUNDAN_LIZARD_OUTFIT_LIZARD_OUTFIT_6_cls-6" d="M325.92,363c-4.7,4.29-17,14.3-37.17,22.32q-2.83,1.14-5.88,2.2h0c-15.28,5.37-34.49,9.39-57.76,9.39" />
      <path class="GUNDAN_LIZARD_OUTFIT_LIZARD_OUTFIT_6_cls-6" d="M324.32,374.74c3.35,13,6.18,35.36,6.18,35.36s4.58-26.47,3.55-37.49" />
      <path class="GUNDAN_LIZARD_OUTFIT_LIZARD_OUTFIT_6_cls-6" d="M294.35,318.28s-16.85,15-21.28,29.63" />
      <path class="GUNDAN_LIZARD_OUTFIT_LIZARD_OUTFIT_6_cls-6" d="M312.13,274.06s-6.91,10.25-9.89,13.45" />
      <path class="GUNDAN_LIZARD_OUTFIT_LIZARD_OUTFIT_6_cls-6" d="M333.13,286s-5.17,11.84-21.29,16.13a117.47,117.47,0,0,0-28.73,12.12" />
      <polyline class="GUNDAN_LIZARD_OUTFIT_LIZARD_OUTFIT_6_cls-6" points="230.91 405.43 230.91 416.63 230.91 437.72 230.91 458.81 230.91 467.61" />
      <path class="GUNDAN_LIZARD_OUTFIT_LIZARD_OUTFIT_6_cls-6" d="M308.4,391.44s2.33,9.69,3.67,15.87" />
      <path class="GUNDAN_LIZARD_OUTFIT_LIZARD_OUTFIT_6_cls-6" d="M307.11,400.44S309,407.51,310,412" />
      <ellipse class="GUNDAN_LIZARD_OUTFIT_LIZARD_OUTFIT_6_cls-6" cx="360.51" cy="334.93" rx="3.29" ry="3.32" />
      <ellipse class="GUNDAN_LIZARD_OUTFIT_LIZARD_OUTFIT_6_cls-6" cx="334.19" cy="357.65" rx="3.29" ry="3.32" />
      <path class="GUNDAN_LIZARD_OUTFIT_LIZARD_OUTFIT_6_cls-6" d="M230.17,317.85c.3-.17.63-.35,1-.52a20.89,20.89,0,0,1,9.14-2.27,17.1,17.1,0,0,1,7.39,1.69,20.5,20.5,0,0,1,4,2.51c.3.25.63.53,1,.84.15.13.29.28.45.43a8,8,0,0,1,2.6,4.85,5.24,5.24,0,0,1-.95,3.29,9.22,9.22,0,0,1-4.4,3.32,11.34,11.34,0,0,1-9.81-.75c-1.4-.81-2.71-1.57-3.91-2.25-.8-.47-1.55-.9-2.27-1.3l-4.3-2.45" />
      <path class="GUNDAN_LIZARD_OUTFIT_LIZARD_OUTFIT_6_cls-6" d="M230,309.82c-.89.35-1.74.75-2.52,1.15" />
      <path class="GUNDAN_LIZARD_OUTFIT_LIZARD_OUTFIT_6_cls-6" d="M259.09,316.21a21.22,21.22,0,0,0-2.89-2.73,26.52,26.52,0,0,0-6.8-4,24.31,24.31,0,0,0-8.11-1.75A25.42,25.42,0,0,0,237,308a28.18,28.18,0,0,0-7,1.85" />
      <path class="GUNDAN_LIZARD_OUTFIT_LIZARD_OUTFIT_6_cls-6" d="M227.23,331.79c.36.24.74.47,1.13.71,1,.64,2.11,1.3,3.19,1.95.29.17.58.34.87.53l4.5,2.63a18.82,18.82,0,0,0,3.76,1.67,18,18,0,0,0,5.58.88,18.7,18.7,0,0,0,5.57-.86,15.08,15.08,0,0,0,1.69-.65,17.25,17.25,0,0,0,4.46-2.74,15.41,15.41,0,0,0,2.83-3.12,12.81,12.81,0,0,0,1.9-4.57,13.42,13.42,0,0,0-3.24-11.57l-.36-.44" />
      <path class="GUNDAN_LIZARD_OUTFIT_LIZARD_OUTFIT_6_cls-6" d="M231.15,317.33c-2.36-2.32-2.05-5.24-1.2-7.51h0" />
      <path class="GUNDAN_LIZARD_OUTFIT_LIZARD_OUTFIT_6_cls-6" d="M240.29,315.06c-1.9-3.12-.45-5.73,1-7.31" />
      <path class="GUNDAN_LIZARD_OUTFIT_LIZARD_OUTFIT_6_cls-6" d="M247.68,316.75c-.63-2.7.65-5.51,1.72-7.25" />
      <path class="GUNDAN_LIZARD_OUTFIT_LIZARD_OUTFIT_6_cls-6" d="M252.67,320.1c1.12-3.64,3.89-4.23,6.42-3.89h0" />
      <path class="GUNDAN_LIZARD_OUTFIT_LIZARD_OUTFIT_6_cls-6" d="M255.72,325.38c2.13-.09,5.3.29,7,2.84" />
      <path class="GUNDAN_LIZARD_OUTFIT_LIZARD_OUTFIT_6_cls-6" d="M250.37,332a7.71,7.71,0,0,1,1.46,7.31" />
      <path class="GUNDAN_LIZARD_OUTFIT_LIZARD_OUTFIT_6_cls-6" d="M242.44,332.11a9.46,9.46,0,0,1-1.76,7.17" />
      <path class="GUNDAN_LIZARD_OUTFIT_LIZARD_OUTFIT_6_cls-6" d="M232.42,335a11.92,11.92,0,0,0,1.74-4.89h0a16.6,16.6,0,0,0,.21-2.4" />
      <path class="GUNDAN_LIZARD_OUTFIT_LIZARD_OUTFIT_6_cls-6" d="M296.47,431.5a7.62,7.62,0,0,1,1.4-7.25" />
      <path class="GUNDAN_LIZARD_OUTFIT_LIZARD_OUTFIT_6_cls-6" d="M285.52,428.7a8.41,8.41,0,0,1,2.72-6.83" />
      <path class="GUNDAN_LIZARD_OUTFIT_LIZARD_OUTFIT_6_cls-6" d="M280.31,417.11A13.6,13.6,0,0,0,277.4,420s0,0,0,0a10,10,0,0,0-1.6,2.93" />
      <path class="GUNDAN_LIZARD_OUTFIT_LIZARD_OUTFIT_6_cls-6" d="M267.69,414.3a10.54,10.54,0,0,1,5.36-5" />
      <path class="GUNDAN_LIZARD_OUTFIT_LIZARD_OUTFIT_6_cls-6" d="M262.06,405.43c1.76-2.46,4.65-3,6.64-3" />
      <path class="GUNDAN_LIZARD_OUTFIT_LIZARD_OUTFIT_6_cls-6" d="M270.19,424.05c2.91-1.46,5.66-.06,7.57,1.49" />
      <path class="GUNDAN_LIZARD_OUTFIT_LIZARD_OUTFIT_6_cls-6" d="M273.25,404.24c2.75-.82,5.47.41,7.29,1.61" />
      <path class="GUNDAN_LIZARD_OUTFIT_LIZARD_OUTFIT_6_cls-6" d="M281,396a10.43,10.43,0,0,1,3.14,2.55" />
      <path class="GUNDAN_LIZARD_OUTFIT_LIZARD_OUTFIT_6_cls-6" d="M244.37,378.91s-4.15-20.22-9.53-32.58" />
      <path class="GUNDAN_LIZARD_OUTFIT_LIZARD_OUTFIT_6_cls-6" d="M240.68,379.61s-5.23-25.35-8.68-33.77" />
      <path class="GUNDAN_LIZARD_OUTFIT_LIZARD_OUTFIT_6_cls-6" d="M230.54,346.33s6,23.77,5.59,33.1" />
      <path class="GUNDAN_LIZARD_OUTFIT_LIZARD_OUTFIT_6_cls-6" d="M232.78,378.87s-.95-20.45-4.1-28.85" />
      <path class="GUNDAN_LIZARD_OUTFIT_LIZARD_OUTFIT_6_cls-6" d="M230.17,317.85a25,25,0,0,1,.24,3.43,22.75,22.75,0,0,1-.33,4c-.5,2.94-1.54,5.32-2.85,6.55L227,332a3,3,0,0,1-1.87.73c-.65,0-7.09-.26-7.67-.73l-.26-.24c-1.32-1.23-2.35-3.61-2.85-6.55a22.75,22.75,0,0,1-.33-4,25,25,0,0,1,.24-3.43c.44-3,1.44-5.51,2.74-6.88.7-.75,7.29-1.16,8.13-1.16a3.2,3.2,0,0,1,2.33,1.16A13.13,13.13,0,0,1,230.17,317.85Z" />
      <path class="GUNDAN_LIZARD_OUTFIT_LIZARD_OUTFIT_6_cls-6" d="M197.18,413.15a59.17,59.17,0,0,0,16.31,3.48c1.88.14,9.63.22,11.61.22s3.92-.08,5.81-.22a59.17,59.17,0,0,0,16.31-3.48" />
      <path class="GUNDAN_LIZARD_OUTFIT_LIZARD_OUTFIT_6_cls-6" d="M197.46,411.78a3.57,3.57,0,0,1-.28,1.37,3.42,3.42,0,0,1-3.16,2.11,3.48,3.48,0,1,1,3.44-3.48Z" />
      <path class="GUNDAN_LIZARD_OUTFIT_LIZARD_OUTFIT_6_cls-6" d="M253.81,411.78a3.46,3.46,0,0,1-3.44,3.48,3.48,3.48,0,0,1-3.43-3.48,3.44,3.44,0,1,1,6.87,0Z" />
      <path class="GUNDAN_LIZARD_OUTFIT_LIZARD_OUTFIT_6_cls-6" d="M197.46,432.87a3.53,3.53,0,0,1-.28,1.37,3.42,3.42,0,0,1-3.16,2.11,3.48,3.48,0,1,1,3.44-3.48Z" />
      <path class="GUNDAN_LIZARD_OUTFIT_LIZARD_OUTFIT_6_cls-6" d="M253.81,432.87a3.46,3.46,0,0,1-3.44,3.48,3.42,3.42,0,0,1-3.15-2.11,3.36,3.36,0,0,1-.28-1.37,3.44,3.44,0,1,1,6.87,0Z" />
      <g class="GUNDAN_LIZARD_OUTFIT_LIZARD_OUTFIT_6_cls-8">
        <path class="GUNDAN_LIZARD_OUTFIT_LIZARD_OUTFIT_6_cls-9" d="M136.2,258.93c31.3,33.15,32,34,50.22,43.79C162.31,289.12,150.23,281,150.23,281s32.32,25.81,40.51,30.66c.54,5.17,3.39,2.35,4,6.17s8.39,6.07,8.39,6.07l7.69,3.34L207.75,329s-21.73-9-45-28.95-34.54-36.94-34.54-36.94Z" />
        <path class="GUNDAN_LIZARD_OUTFIT_LIZARD_OUTFIT_6_cls-9" d="M128.91,271.17l-4.07,4.65-19.9,6.41a3.1,3.1,0,0,0-2.48,3.5,41.42,41.42,0,0,0,2,7.42s-1,7.62-6,8.57-16,2.54-19,6.45-6.64,15.31-6.64,15.31l2.3,4.13s-5.93,4-10.77,4-5.75.29-5.75.29-2.72,7.9.52,14.64a55.9,55.9,0,0,0,5.19,9.24s-5.06,9.09-6.38,14.56,4.38,12.08,2.81,14.12-7.22,8.74-8.28,18.91A129.56,129.56,0,0,0,42.19,421l4.43,1.54s.54,4.27-1.57,5.93-6.49,4.7-7.33,7.82c6.75-2.62,25.05-2.62,25.05-2.62s-27.08,9.57-27.21,9.85-3.24,4.76-3.24,4.76v7.28l-2.92,12h95.66l2.07-4.17s2.47-7.61,5.08-19,3.59-28-.79-37.75-3.46-22.82-2.11-26.25c16.41,7.28,52.64,27.81,108.27,24.5-17.36-1.59-56.7-5.85-77.61-18,55.29,11,98,6.76,98,6.76s-58.53-10.08-67.39-21.11,7.62-32.43,7.62-32.43-12.66-2.26-16-10A12.17,12.17,0,0,1,184.62,317s-28.31-21.11-40.26-33.1-15.5-19.76-15.5-19.76Z" />
        <path class="GUNDAN_LIZARD_OUTFIT_LIZARD_OUTFIT_6_cls-9" d="M180.74,401.18s-8.49,15.05-17.41,20.33-26.08,5.85-26.08,5.85l-.41,4.43s21.49,1.61,31.7-9,14.18-16.29,15.66-20.72A10.07,10.07,0,0,0,180.74,401.18Z" />
        <path class="GUNDAN_LIZARD_OUTFIT_LIZARD_OUTFIT_6_cls-9" d="M165.15,396.63s8,15.45,4.88,29.44-20.21,28.35-36.69,22.1l.73-.95s21.65,2.36,29.88-13.85-2.23-34.1-7.79-40.35C162.9,395.61,165.15,396.63,165.15,396.63Z" />
        <path class="GUNDAN_LIZARD_OUTFIT_LIZARD_OUTFIT_6_cls-9" d="M300.33,263.5s-59.67,51.78-36.18,36.58,26-17.35,26-17.35l-33.81,30.4,3.1,3.52s46.16-34.07,53.38-50.33C308.71,266.65,300.33,263.5,300.33,263.5Z" />
        <path class="GUNDAN_LIZARD_OUTFIT_LIZARD_OUTFIT_6_cls-9" d="M313.62,381.28a24.12,24.12,0,0,1-.18,22.5c-6.42,11.74-7.36,21.77-5.14,33s4.91,26.8,11.05,27.85,8.13-2.09,8.13-2.09-11.07-4.2-13.41-18.81-4.13-27,1.12-37.55,5.36-21.27,2.54-27.53C316.61,379.55,313.62,381.28,313.62,381.28Z" />
        <path class="GUNDAN_LIZARD_OUTFIT_LIZARD_OUTFIT_6_cls-9" d="M175.7,467.61s13.49-8.78,32.55-19.44,28.28-11,32.43-13.49,20.37-14.75,19.8-8.61-20.87,28.42-20.87,28.42l11.67-.37,25-.15s-14.66,1.49-25.93,5.06a98.57,98.57,0,0,0-19.46,8.58Z" />
      </g>
    </g>
  </g>
</svg>