<svg xmlns="http://www.w3.org/2000/svg" xmlns:xlink="http://www.w3.org/1999/xlink" viewBox="0 0 432 432">
  <defs>
    <style>.GUNDAN_LIZARD_OUTFIT_LIZARD_OUTFIT_19_cls-1,.GUNDAN_LIZARD_OUTFIT_LIZARD_OUTFIT_19_cls-11,.GUNDAN_LIZARD_OUTFIT_LIZARD_OUTFIT_19_cls-12{fill:none;}.GUNDAN_LIZARD_OUTFIT_LIZARD_OUTFIT_19_cls-2{isolation:isolate;}.GUNDAN_LIZARD_OUTFIT_LIZARD_OUTFIT_19_cls-3{clip-path:url(#GUNDAN_LIZARD_OUTFIT_LIZARD_OUTFIT_19_clip-path);}.GUNDAN_LIZARD_OUTFIT_LIZARD_OUTFIT_19_cls-4{fill:#fff;}.GUNDAN_LIZARD_OUTFIT_LIZARD_OUTFIT_19_cls-5{fill:#815b27;}.GUNDAN_LIZARD_OUTFIT_LIZARD_OUTFIT_19_cls-6{fill:#758e3e;}.GUNDAN_LIZARD_OUTFIT_LIZARD_OUTFIT_19_cls-7{fill:#452819;}.GUNDAN_LIZARD_OUTFIT_LIZARD_OUTFIT_19_cls-8{fill:#062339;}.GUNDAN_LIZARD_OUTFIT_LIZARD_OUTFIT_19_cls-9{fill:#938d86;}.GUNDAN_LIZARD_OUTFIT_LIZARD_OUTFIT_19_cls-10{fill:#c5e3d8;}.GUNDAN_LIZARD_OUTFIT_LIZARD_OUTFIT_19_cls-11,.GUNDAN_LIZARD_OUTFIT_LIZARD_OUTFIT_19_cls-12{stroke:#010101;stroke-linecap:round;stroke-linejoin:round;}.GUNDAN_LIZARD_OUTFIT_LIZARD_OUTFIT_19_cls-11{stroke-width:2px;}.GUNDAN_LIZARD_OUTFIT_LIZARD_OUTFIT_19_cls-12{stroke-width:2.09px;}.GUNDAN_LIZARD_OUTFIT_LIZARD_OUTFIT_19_cls-13{opacity:0.22;mix-blend-mode:multiply;}.GUNDAN_LIZARD_OUTFIT_LIZARD_OUTFIT_19_cls-14{fill:#010101;}</style>
    <clipPath id="clip-path">
      <rect class="GUNDAN_LIZARD_OUTFIT_LIZARD_OUTFIT_19_cls-1" y="139.17" width="432" height="331.2" />
    </clipPath>
  </defs>
  <g class="GUNDAN_LIZARD_OUTFIT_LIZARD_OUTFIT_19_cls-2">
    <g id="Outfit">
      <g class="GUNDAN_LIZARD_OUTFIT_LIZARD_OUTFIT_19_cls-3">
        <path class="GUNDAN_LIZARD_OUTFIT_LIZARD_OUTFIT_19_cls-4" d="M281,391.06a4.06,4.06,0,1,1-4.16,4.07A4.08,4.08,0,0,1,281,391.06Z" />
        <path class="GUNDAN_LIZARD_OUTFIT_LIZARD_OUTFIT_19_cls-5" d="M342,373.91v-5.76h-5.93a23,23,0,0,0-1.73-6.4l5.13-2.91-2.92-5-5.14,2.91a24.14,24.14,0,0,0-4.76-4.71l3-5.05-3.51-2-1.57-.9-3,5a25,25,0,0,0-6.53-1.73v-5.86l-5.9,0v5.86a24.92,24.92,0,0,0-6.56,1.69l-3-5.09-5.13,2.87,3,5.11a23.55,23.55,0,0,0-4.81,4.7l-5.21-3-3,5,5.22,3a23.26,23.26,0,0,0-1.76,6.44h-6v5.81h6a22.33,22.33,0,0,0,.76,3.67,20.79,20.79,0,0,0,1,2.77l-5.22,2.95,3,5,5.21-2.95a23.82,23.82,0,0,0,4.81,4.7l-3,5.09,4.91,2.76.43-.22,2.78-4.74a23.9,23.9,0,0,0,3.68,1.17,22.81,22.81,0,0,0,2.88.51v5.87l5.9,0v-5.87a24.18,24.18,0,0,0,6.53-1.72l3,5.05,5.08-2.91-3-5a24.36,24.36,0,0,0,4.76-4.7l5.14,2.91,2.92-5-5.13-2.92a22.88,22.88,0,0,0,1.73-6.39Zm-10.25,2.14h0a20,20,0,1,1,.65-5A20.29,20.29,0,0,1,331.75,376.05Z" />
        <path class="GUNDAN_LIZARD_OUTFIT_LIZARD_OUTFIT_19_cls-5" d="M312.1,351a20,20,0,1,0,19.65,25h0a20,20,0,0,0-19.66-25Zm15.2,25.35v0a16.24,16.24,0,0,1-14.66,10.49,16.32,16.32,0,0,1-8.16-1.85l-.39-.21c-.2-.11-.4-.22-.6-.35l-.57-.36a15.81,15.81,0,0,1-7.05-13.65,15.41,15.41,0,0,1,2.31-7.62,16.14,16.14,0,0,1,6.05-5.75h0a16.13,16.13,0,0,1,7.33-2,16.36,16.36,0,0,1,3.79.33h0a16,16,0,0,1,12.89,16.08A15.32,15.32,0,0,1,327.3,376.39Z" />
        <path class="GUNDAN_LIZARD_OUTFIT_LIZARD_OUTFIT_19_cls-6" d="M302.59,393a23.9,23.9,0,0,0,3.68,1.17c-2.2,1.29-4.36,2.48-6.46,3.57Z" />
        <path class="GUNDAN_LIZARD_OUTFIT_LIZARD_OUTFIT_19_cls-7" d="M294.47,395.16l3-5.09a23.82,23.82,0,0,1-4.81-4.7l-5.21,2.95-3-5,5.22-2.95a20.79,20.79,0,0,1-1-2.77,55.48,55.48,0,0,1-5,2.95,37,37,0,0,0-6.62,4.21h0a20.58,20.58,0,0,0-4.6,5.08s0,0,0,.05a10.29,10.29,0,0,0-1.6,7.22,9.44,9.44,0,0,0,6,6.89h0a13.29,13.29,0,0,0,1.61.57l.13,0h0a7.24,7.24,0,0,0,2.35.12h0c.47,0,1-.11,1.52-.21l.14,0a44.52,44.52,0,0,0,8.68-2.79c2.5-1,5.22-2.3,8.08-3.78Zm-13.52,4a4.06,4.06,0,1,1,4.14-4.06A4.09,4.09,0,0,1,281,399.17Z" />
        <path class="GUNDAN_LIZARD_OUTFIT_LIZARD_OUTFIT_19_cls-7" d="M315.37,355.46a16.24,16.24,0,1,1-3.8-.33,16.36,16.36,0,0,1,3.79.33Z" />
        <path class="GUNDAN_LIZARD_OUTFIT_LIZARD_OUTFIT_19_cls-7" d="M347.94,358.43a71.1,71.1,0,0,1-7.87,9.72h-4a23,23,0,0,0-1.73-6.4l5.13-2.91-2.92-5-5.14,2.91a23.92,23.92,0,0,0-4.77-4.71l3-5.05-3.51-2c2.14-2.16,3.88-3.94,5-5.14C336.72,347.81,341.38,354.38,347.94,358.43Z" />
        <path class="GUNDAN_LIZARD_OUTFIT_LIZARD_OUTFIT_19_cls-5" d="M410.24,379.67l.33,2s-1.4.94-3.45,2.45c-3.87,2.85,2.35,7.69-1.13,12.14s-19.57,13.37-30.78,19.31c1.66-3.06,3.22-6.21,4.71-9.4l2-4.3c14.61-9.11,12.79-19.74,22.67-32.33C404.61,369.53,409.91,377.69,410.24,379.67Z" />
        <path class="GUNDAN_LIZARD_OUTFIT_LIZARD_OUTFIT_19_cls-5" d="M405.41,347.7c4.74.6,2.91,6,2.91,6a28.67,28.67,0,0,1-5.79,2.48c-1.58.53-3.54,1.14-5.94,1.77q-2.22.58-5,1.2c-4.73,1-10.67,2.12-18.09,3.09-11.7,1.55-19.48,0-25.6-3.79-6.56-4.05-11.22-10.62-16.78-18.57-1.43-2-2.92-4.18-4.52-6.4-7.16-9.89-3.19-22.37-2.45-32a74.43,74.43,0,0,1,2.72-15.26c3.08-4.57,6.65,1.77,5.8,4.1,0,.15-.12.38-.19.69-1,4.22-3.06,22.23,3.93,35.12a86.19,86.19,0,0,0,17.11,22.09s10.81-12.64,22-12.58,18.51,14.48,18.51,14.48S402.33,347.77,405.41,347.7Z" />
        <path class="GUNDAN_LIZARD_OUTFIT_LIZARD_OUTFIT_19_cls-8" d="M433.86,477.8l-10.57.17L278,480.36c-.5-2.25-1.19-5.42-2-9.21-1.61-7.64,0-20.06,0-20.06S302.5,465.81,330.9,455c23.68-9,35.55-23.24,44.31-39.46,11.21-5.94,27.37-14.94,30.78-19.31s-2.74-9.29,1.13-12.14a60.31,60.31,0,0,1,3.45,14.11s8.3,31.54,11.61,44.52,5.07,12.27,8.16,19.5A52.12,52.12,0,0,1,433.86,477.8Z" />
        <path class="GUNDAN_LIZARD_OUTFIT_LIZARD_OUTFIT_19_cls-9" d="M383.28,301c21.49,18.69,22.13,46.75,22.13,46.75-3.08.07-11.34,2.36-11.34,2.36s-7.36-14.41-18.51-14.48-22,12.58-22,12.58a86.19,86.19,0,0,1-17.11-22.09c-7-12.89-4.93-30.9-3.93-35.12C340.51,289.34,364.75,284.83,383.28,301Z" />
        <path class="GUNDAN_LIZARD_OUTFIT_LIZARD_OUTFIT_19_cls-7" d="M396.59,357.93c-.77,9.68-7.28,28.25-7.28,28.25l-7.37,15.68-2,4.3c-1.49,3.19-3.05,6.34-4.71,9.4C366.45,431.78,354.58,446,330.9,455c-28.4,10.79-54.86-3.93-54.86-3.93s-1.2-2.81-2.66-7c14.67,8.92,39.38,14,53.43,7.32,13.23-6.3,27.72-14.61,39.78-31.35h0a100.76,100.76,0,0,0,6.77-10.84c.6-1.1,1.17-2.2,1.72-3.32h0c9-17.78,14.41-37.92,16.52-46.72Q394.38,358.52,396.59,357.93Z" />
        <path class="GUNDAN_LIZARD_OUTFIT_LIZARD_OUTFIT_19_cls-5" d="M375.1,405.86c-.55,1.12-1.12,2.22-1.72,3.32A100.76,100.76,0,0,1,366.61,420h0l-2.4,1.22L356,424.82c-9.49,3.08-35.35,12.86-50.08,6.28s-22.23-7.23-32.61-17.64a25,25,0,0,1-5.12-7.39,27.13,27.13,0,0,1-1.8-5.59c1.44-1.09,2.23-1.71,2.23-1.71l.4-.1c1.34,5.23,4.37,9.25,9.48,13.24,9.85,7.71,50.67,13.79,80.19,1.7A163.1,163.1,0,0,0,375.1,405.86Z" />
        <path class="GUNDAN_LIZARD_OUTFIT_LIZARD_OUTFIT_19_cls-8" d="M364.19,421.25l2.4-1.22c-12.06,16.74-26.55,25.05-39.78,31.35-14.05,6.69-38.76,1.6-53.43-7.32-1-2.79-2.08-6.2-3-9.8a73.59,73.59,0,0,1-2.15-11.43c-.07-.77-.14-1.51-.19-2.21-.86-11,.19-14.55.19-14.55a25,25,0,0,0,5.12,7.39c10.38,10.41,17.81,11,32.61,17.64s40.59-3.2,50.08-6.28Z" />
        <path class="GUNDAN_LIZARD_OUTFIT_LIZARD_OUTFIT_19_cls-9" d="M402.53,356.16c-1.58.53-3.54,1.14-5.94,1.77-.77,9.68-7.28,28.25-7.28,28.25l-7.37,15.68c14.61-9.11,12.79-19.74,22.67-32.33l2.14-2.77C405.37,364.89,407.5,359,402.53,356.16Z" />
        <path class="GUNDAN_LIZARD_OUTFIT_LIZARD_OUTFIT_19_cls-9" d="M373.54,362.22c-11.7,1.55-19.48,0-25.6-3.79a71.1,71.1,0,0,1-7.87,9.72H342v5.76h-5.93a22.88,22.88,0,0,1-1.73,6.39l5.13,2.92-2.92,5-5.14-2.91a24.14,24.14,0,0,1-4.77,4.7l3,5L324.55,398l-3-5.05a24.18,24.18,0,0,1-6.53,1.72v5.87l-5.9,0v-5.87a22.5,22.5,0,0,1-2.88-.51c-2.2,1.29-4.36,2.48-6.46,3.57l-.21.35-.22-.13c-9.54,4.92-17.52,7.6-20.92,6.65-4.19-1.17-7-4-7.65-7.47-.91-5,2.61-11.38,12.85-16.57a55.48,55.48,0,0,0,5-2.95,22.33,22.33,0,0,1-.76-3.67h-6V368.1h6a23.26,23.26,0,0,1,1.76-6.44l-5.22-3,3-5,5.22,3a23.55,23.55,0,0,1,4.81-4.7l-3-5.11L299.6,344l3,5.09a24.92,24.92,0,0,1,6.56-1.69v-5.86l5.9,0v5.86a25,25,0,0,1,6.53,1.73l3-5,1.57.9c2.14-2.16,3.88-3.94,5-5.14-1.43-2-2.92-4.18-4.52-6.4-7.16-9.89-3.19-22.37-2.45-32-2.56-.91,3.55-2,.94-3.34,0,0-13.47,7.78-21.7,17.68v0c-.48.91-20.81,30.11-25.07,42.9-4,12.07-6.1,15.71-9,21.3h0c-1.24,7.28-1.51,12.86-.57,17.48q.12.61.27,1.2c1.34,5.23,4.37,9.25,9.48,13.24,9.85,7.71,50.67,13.79,80.19,1.7a163.1,163.1,0,0,0,16.39-7.75h0c9-17.78,14.41-37.92,16.52-46.72C386.9,360.17,381,361.25,373.54,362.22Z" />
        <path class="GUNDAN_LIZARD_OUTFIT_LIZARD_OUTFIT_19_cls-8" d="M119,286.38c2.1,3.44,61,63.52,113.24,63.73,36.77.15,86.08-55.77,86.08-55.77h0c-1.77-1-3.37-2-4.68-2.85,5.25-6,7.08-5,9.7-2.18s1.81,8.78,1.81,8.78-13.47,7.78-21.7,17.68v0c-11.51,13.85-36,34.77-58.57,40.57a58.57,58.57,0,0,1-15,1.92,55.34,55.34,0,0,1-10.81-1.1c-25-5.06-84.37-33.82-94.73-49.47h0c-6.36-9.6-16.74-18-16.74-18s2.32-6.91,7.24-8.33a5.72,5.72,0,0,1,6.93,2.5C120.33,284.62,120.72,285.48,119,286.38Z" />
        <path class="GUNDAN_LIZARD_OUTFIT_LIZARD_OUTFIT_19_cls-4" d="M318.3,294.33h0S269,350.26,232.21,350.11c-23.54-.09-66.83-17.92-81.27-29.83-16.19-13.34-29.11-29.35-31.5-33.16l-.46-.74c1.74-.9,1.35-1.76,2.79-2.52,3.55-1.88,1.56-3.25,1.26-3.44.58.26,10.69,4.4,21.09,8.27l.35.13c15.45,5.74,61.82,20.27,81.06,22.17h.13l1.29.12h.14a25.85,25.85,0,0,0-.4,4.58c0,.31,0,.63,0,1a21.21,21.21,0,0,0,2.48,9.85c1.28,2.19,3,3.52,4.79,3.53a4.59,4.59,0,0,0,3.16-1.37h0c2.44-2.27,4.12-7.11,4.12-12.74a26.46,26.46,0,0,0-.4-4.64c32.42-1.9,70.89-21.77,71.91-22.23-.17.13-1.32,1.05.84,2.42C314.93,292.31,316.53,293.3,318.3,294.33Z" />
        <path class="GUNDAN_LIZARD_OUTFIT_LIZARD_OUTFIT_19_cls-4" d="M319.15,272.24v4l-7,12.68-.11.24a.77.77,0,0,0-.13.32h0l-8.08,18.46-62.69,4.95h-.64l-8.1.24-5.19.16-.07-2.17H227l-1.29-.12h-.13c-19.24-1.9-65.61-16.43-81.06-22.17l-.35-.13c-10.12-3.76-20-7.78-21-8.23l-.07,0h0s-.07-12.31.74-16.78c.65-3.54,11-4.94,15.3-5.38l-2.39,7.19.47.17s1,.26,2,.65c78.16,47.08,163.13,13.18,163.13,13.18A91.78,91.78,0,0,1,297.66,265l1.23-.27,7.64.41S318.11,268.45,319.15,272.24Z" />
        <path class="GUNDAN_LIZARD_OUTFIT_LIZARD_OUTFIT_19_cls-4" d="M144.47,288.82c15.22,5.4,61.65,19.74,81.19,22.18h-.13C206.29,309.09,159.92,294.56,144.47,288.82Z" />
        <path class="GUNDAN_LIZARD_OUTFIT_LIZARD_OUTFIT_19_cls-4" d="M232.3,302c-2.43,1.09-4.4,4.57-5.21,9.1H227C227.7,305.1,230,302.41,232.3,302Z" />
        <path class="GUNDAN_LIZARD_OUTFIT_LIZARD_OUTFIT_19_cls-4" d="M281.87,287.17a48.26,48.26,0,0,1-6.22,1.77C279.3,288,281.57,287.27,281.87,287.17Z" />
        <path class="GUNDAN_LIZARD_OUTFIT_LIZARD_OUTFIT_19_cls-4" d="M303.42,315.78c-11.51,13.85-36,34.77-58.57,40.57,6.51,15.65-1.2,18.54-2.52,25.91-1.41,7.82.17,10.71-1.43,21.59s0,16.46,0,16.46c11.37-7.05,21.5-16.81,25.51-19.83l2.23-1.71A53.71,53.71,0,0,1,270,378.88l-.13.09c2.66-5.06,4.73-9,8.49-20.29C282.61,345.89,302.94,316.69,303.42,315.78Z" />
        <path class="GUNDAN_LIZARD_OUTFIT_LIZARD_OUTFIT_19_cls-8" d="M268.21,422.83a73.59,73.59,0,0,0,2.15,11.43c-14.14,12.37-39.6,22.91-39.6,22.91V443.64c24.68-10.59,35-21,37.26-23C268.07,421.32,268.14,422.06,268.21,422.83Z" />
        <path class="GUNDAN_LIZARD_OUTFIT_LIZARD_OUTFIT_19_cls-7" d="M119.44,444.11c1.55-.09,5.65-.37,11.5-1.1,11.39-1.38,44.92,2.82,63.6-3.68,1.24-.43,2.48-.88,3.73-1.37,6-2.32,20.38-5.17,26.24-8.24s11.3-6.25,16.39-9.41c11.37-7.05,21.5-16.81,25.51-19.83a27.13,27.13,0,0,0,1.8,5.59s-1,3.57-.19,14.55c-2.29,2-12.58,12.43-37.26,23-3.55,1.53-7.42,3.12-11.65,4.78-1.82.72-12,1.44-14,2.19-24.14,9.13-58.58,5.46-70.76,6.83-5.16.58-9.12.76-11.76.8s-3.86-.06-3.86-.06a116.93,116.93,0,0,1-4.64-11.45A9.19,9.19,0,0,1,117,436.15C118,439.15,118.81,441.84,119.44,444.11Z" />
        <path class="GUNDAN_LIZARD_OUTFIT_LIZARD_OUTFIT_19_cls-8" d="M244.85,356.35c6.51,15.65-1.2,18.54-2.52,25.91-1.41,7.82.17,10.71-1.43,21.59s0,16.46,0,16.46c-5.09,3.16-10.63,6.38-16.39,9.41l-1-.89a45.64,45.64,0,0,0-1-10.08c-1.2-6.12.67-9.88,2.79-20.62s-1.23-12.95-4.05-23.51a72.44,72.44,0,0,1-2.19-17.45,55.34,55.34,0,0,0,10.81,1.1A58.57,58.57,0,0,0,244.85,356.35Z" />
        <path class="GUNDAN_LIZARD_OUTFIT_LIZARD_OUTFIT_19_cls-10" d="M241.27,315.93c0,5.63-1.68,10.47-4.12,12.74h0A4.59,4.59,0,0,1,234,330c-1.83,0-3.51-1.34-4.79-3.53a21.21,21.21,0,0,1-2.48-9.85c0-.32,0-.64,0-1a25.85,25.85,0,0,1,.4-4.58c.81-4.53,2.78-8,5.21-9.1,0,0,0,0,0,0a3.93,3.93,0,0,1,1.67-.36c3.2,0,5.91,4.05,6.89,9.62A26.46,26.46,0,0,1,241.27,315.93Z" />
        <path class="GUNDAN_LIZARD_OUTFIT_LIZARD_OUTFIT_19_cls-4" d="M221.26,374.62c2.82,10.56,6.16,12.77,4.05,23.51s-4,14.5-2.79,20.62a45.64,45.64,0,0,1,1,10.08c-6.51-5.89-24.92-16.47-35.32-32.84-14.76-23.24-59.91-69.1-63.87-88.29,10.36,15.65,69.69,44.41,94.73,49.47A72.44,72.44,0,0,0,221.26,374.62Z" />
        <path class="GUNDAN_LIZARD_OUTFIT_LIZARD_OUTFIT_19_cls-8" d="M223.53,428.83l1,.89c-5.86,3.07-20.23,5.92-26.24,8.24-7.89-6.91-25.55-16.34-26.85-21.55-1.42-5.7-9.48-7.25-16.73-13.61s-31-30.18-38.89-47.42S96.17,339.68,95,321.7c1-8.83,1.81-28.33,2.18-28.91h0c2.09-1,8.39-2,10.45-3.09,0,0,10.38,8.4,16.74,18h0c4,19.19,49.11,65.05,63.87,88.29C198.61,412.36,217,422.94,223.53,428.83Z" />
        <path class="GUNDAN_LIZARD_OUTFIT_LIZARD_OUTFIT_19_cls-8" d="M198.27,438c-1.25.49-2.49.94-3.73,1.37-18.68,6.5-52.21,2.3-63.6,3.68-7.58-28.95-36.62-72.2-46.61-93.93-10.43-22.68-4.66-40.41-4.66-40.41s1.41-4.66,13.74-10.08c3.39-1.48-.65-3.62,3.73-5.8-.37.58-1.22,20.08-2.18,28.91,1.21,18,12.88,16.4,20.84,33.68s31.63,41,38.89,47.42,15.31,7.91,16.73,13.61C172.72,421.62,190.38,431.05,198.27,438Z" />
        <path class="GUNDAN_LIZARD_OUTFIT_LIZARD_OUTFIT_19_cls-8" d="M87.9,478.92l-49.37.73-12.07.2L34.6,442l-7.86-37.18s-1.84-5.21,1.48-8.45,5.14-14.92,5.14-14.92,4.47-.91,6-6.83,7.1-30.27,10.4-36.51,14.46-22.59,14.46-22.59l.49.05C64,322.12,73.14,349,86.18,368.94,98,387,110.75,417.62,117,436.15a9.19,9.19,0,0,0-2.84,10.58,116.93,116.93,0,0,0,4.64,11.45s1.32.1,3.86.06l.63,2.87v17.23Z" />
        <path class="GUNDAN_LIZARD_OUTFIT_LIZARD_OUTFIT_19_cls-4" d="M117,436.15c-6.21-18.53-19-49.12-30.78-67.21-13-20-22.21-46.82-21.52-53.37.1-1,.18-1.49.18-1.49l14.83-5.41s-5.77,17.73,4.66,40.41c10,21.73,39,65,46.61,93.93-5.85.73-10,1-11.5,1.1C118.81,441.84,118,439.15,117,436.15Z" />
        <path class="GUNDAN_LIZARD_OUTFIT_LIZARD_OUTFIT_19_cls-11" d="M297.64,264.93l9.37.5s11.74,3.32,12.65,7.14-6.86,16.48-6.86,16.48h0c-.2.09-1.78.8-4.45,1.9-11,4.53-41.36,18.8-67.46,20.33" />
        <path class="GUNDAN_LIZARD_OUTFIT_LIZARD_OUTFIT_19_cls-11" d="M139,258.24c-4.29.44-14.65,1.84-15.3,5.38-.81,4.47-.74,16.78-.74,16.78h0l.08.05c1.1.46,10.92,4.47,21,8.22l.35.13c15.45,5.74,61.82,20.27,81.06,22.17h.13l1.29.12h.14" />
        <path class="GUNDAN_LIZARD_OUTFIT_LIZARD_OUTFIT_19_cls-11" d="M318.3,294.33c-1.77-1-3.37-2-4.68-2.85-2.16-1.37-1-2.29-.84-2.42h0" />
        <path class="GUNDAN_LIZARD_OUTFIT_LIZARD_OUTFIT_19_cls-11" d="M324.19,301.42a25.27,25.27,0,0,0,.94-3.34" />
        <path class="GUNDAN_LIZARD_OUTFIT_LIZARD_OUTFIT_19_cls-11" d="M318.3,290.58v3.75h0S269,350.26,232.22,350.11C180,349.9,121.08,289.82,119,286.38a1.06,1.06,0,0,0-.1-.17" />
        <path class="GUNDAN_LIZARD_OUTFIT_LIZARD_OUTFIT_19_cls-11" d="M119,286.38c1.74-.9,1.35-1.76,2.79-2.52,3.55-1.88,1.56-3.25,1.26-3.44h0" />
        <path class="GUNDAN_LIZARD_OUTFIT_LIZARD_OUTFIT_19_cls-11" d="M97.14,292.79c-4.38,2.18-.34,4.32-3.73,5.8C81.08,304,79.67,308.67,79.67,308.67s-5.77,17.73,4.66,40.41c10,21.73,39,65,46.61,93.93" />
        <path class="GUNDAN_LIZARD_OUTFIT_LIZARD_OUTFIT_19_cls-11" d="M107.6,289.69c-2.06,1.05-8.36,2.05-10.45,3.09" />
        <path class="GUNDAN_LIZARD_OUTFIT_LIZARD_OUTFIT_19_cls-11" d="M332.52,291c.07-.31.14-.54.19-.69.85-2.33-2.72-8.67-5.8-4.1a74.43,74.43,0,0,0-2.72,15.26c-.74,9.67-4.71,22.15,2.45,32,1.6,2.22,3.09,4.36,4.52,6.4,5.56,7.95,10.22,14.52,16.78,18.57,6.12,3.77,13.9,5.34,25.6,3.79,7.42-1,13.36-2.05,18.09-3.09q2.75-.61,5-1.2c2.4-.63,4.36-1.24,5.94-1.77a28.67,28.67,0,0,0,5.79-2.48s1.83-5.38-2.91-6c-3.08.07-11.34,2.36-11.34,2.36s-7.36-14.41-18.51-14.48-22,12.58-22,12.58a86.19,86.19,0,0,1-17.11-22.09C329.46,313.18,331.52,295.17,332.52,291Z" />
        <path class="GUNDAN_LIZARD_OUTFIT_LIZARD_OUTFIT_19_cls-11" d="M332.52,291c8-1.61,32.23-6.12,50.76,10,21.49,18.69,22.13,46.75,22.13,46.75" />
        <path class="GUNDAN_LIZARD_OUTFIT_LIZARD_OUTFIT_19_cls-11" d="M303.43,315.76c8.23-9.9,21.7-17.68,21.7-17.68s.8-5.95-1.81-8.78-4.45-3.84-9.7,2.18" />
        <path class="GUNDAN_LIZARD_OUTFIT_LIZARD_OUTFIT_19_cls-11" d="M124.34,307.7c10.36,15.65,69.69,44.41,94.73,49.47a55.34,55.34,0,0,0,10.81,1.1,58.57,58.57,0,0,0,15-1.92c22.55-5.8,47.06-26.72,58.57-40.57" />
        <path class="GUNDAN_LIZARD_OUTFIT_LIZARD_OUTFIT_19_cls-11" d="M121.77,283.86a5.72,5.72,0,0,0-6.93-2.5c-4.92,1.42-7.24,8.33-7.24,8.33s10.38,8.4,16.74,18" />
        <path class="GUNDAN_LIZARD_OUTFIT_LIZARD_OUTFIT_19_cls-11" d="M268.64,398.77s-.79.62-2.23,1.71c-4,3-14.14,12.78-25.51,19.83-5.09,3.16-10.63,6.38-16.39,9.41s-20.23,5.92-26.24,8.24c-1.25.49-2.49.94-3.73,1.37-18.68,6.5-52.21,2.3-63.6,3.68-5.85.73-10,1-11.5,1.1l-.68,0" />
        <path class="GUNDAN_LIZARD_OUTFIT_LIZARD_OUTFIT_19_cls-11" d="M268,420.62c-2.29,2-12.58,12.43-37.26,23-3.55,1.53-7.42,3.12-11.65,4.78-1.82.72-12,1.44-14,2.19-24.14,9.13-58.58,5.46-70.76,6.83-5.16.58-9.12.76-11.76.8s-3.86-.06-3.86-.06a116.93,116.93,0,0,1-4.64-11.45A9.19,9.19,0,0,1,117,436.15l0,0" />
        <path class="GUNDAN_LIZARD_OUTFIT_LIZARD_OUTFIT_19_cls-11" d="M119.44,444.11c-.63-2.27-1.47-5-2.48-8-6.21-18.53-19-49.12-30.78-67.21-13-20-22.21-46.82-21.52-53.37.1-1,.18-1.49.18-1.49l14.83-5.41" />
        <path class="GUNDAN_LIZARD_OUTFIT_LIZARD_OUTFIT_19_cls-11" d="M402.53,356.16c5,2.81,2.84,8.73,4.22,10.6l-2.14,2.77c-9.88,12.59-8.06,23.22-22.67,32.33" />
        <path class="GUNDAN_LIZARD_OUTFIT_LIZARD_OUTFIT_19_cls-11" d="M375.1,405.86a163.1,163.1,0,0,1-16.39,7.75c-29.52,12.09-70.34,6-80.19-1.7-5.11-4-8.14-8-9.48-13.24q-.15-.59-.27-1.2c-.94-4.62-.67-10.2.57-17.48" />
        <path class="GUNDAN_LIZARD_OUTFIT_LIZARD_OUTFIT_19_cls-11" d="M404.61,369.53s5.3,8.16,5.63,10.14l.33,2s-1.4.94-3.45,2.45c-3.87,2.85,2.35,7.69-1.13,12.14s-19.57,13.37-30.78,19.31" />
        <path class="GUNDAN_LIZARD_OUTFIT_LIZARD_OUTFIT_19_cls-11" d="M269.34,380h0c2.91-5.59,5-9.23,9-21.3,4.26-12.79,24.59-42,25.07-42.9v0" />
        <path class="GUNDAN_LIZARD_OUTFIT_LIZARD_OUTFIT_19_cls-11" d="M266.41,400.48a27.13,27.13,0,0,0,1.8,5.59,25,25,0,0,0,5.12,7.39c10.38,10.41,17.81,11,32.61,17.64s40.59-3.2,50.08-6.28l8.17-3.57,2.4-1.22" />
        <path class="GUNDAN_LIZARD_OUTFIT_LIZARD_OUTFIT_19_cls-11" d="M396.59,357.93c-.77,9.68-7.28,28.25-7.28,28.25l-7.37,15.68-2,4.3c-1.49,3.19-3.05,6.34-4.71,9.4C366.45,431.78,354.58,446,330.9,455c-28.4,10.79-54.86-3.93-54.86-3.93s-1.2-2.81-2.66-7c-1-2.79-2.08-6.2-3-9.8a73.59,73.59,0,0,1-2.15-11.43c-.07-.77-.14-1.51-.19-2.21-.86-11,.19-14.55.19-14.55" />
        <path class="GUNDAN_LIZARD_OUTFIT_LIZARD_OUTFIT_19_cls-11" d="M391.63,359.13c-2.11,8.8-7.52,28.94-16.52,46.72h0c-.55,1.12-1.12,2.22-1.72,3.32A100.76,100.76,0,0,1,366.61,420h0c-12.06,16.74-26.55,25.05-39.78,31.35-14.05,6.69-38.76,1.6-53.43-7.32" />
        <path class="GUNDAN_LIZARD_OUTFIT_LIZARD_OUTFIT_19_cls-11" d="M224.51,429.72l-1-.89c-6.51-5.89-24.92-16.47-35.32-32.84-14.76-23.24-59.91-69.1-63.87-88.29h0" />
        <path class="GUNDAN_LIZARD_OUTFIT_LIZARD_OUTFIT_19_cls-11" d="M97.15,292.78h0c-.37.58-1.22,20.08-2.18,28.91,1.21,18,12.88,16.4,20.84,33.68s31.63,41,38.89,47.42,15.31,7.91,16.73,13.61c1.3,5.21,19,14.64,26.85,21.55" />
        <path class="GUNDAN_LIZARD_OUTFIT_LIZARD_OUTFIT_19_cls-11" d="M219.07,357.17a72.44,72.44,0,0,0,2.19,17.45c2.82,10.56,6.16,12.77,4.05,23.51s-4,14.5-2.79,20.62a45.64,45.64,0,0,1,1,10.08" />
        <path class="GUNDAN_LIZARD_OUTFIT_LIZARD_OUTFIT_19_cls-11" d="M244.85,356.35c6.51,15.65-1.2,18.54-2.52,25.91-1.41,7.82.17,10.71-1.43,21.59s0,16.46,0,16.46" />
        <path class="GUNDAN_LIZARD_OUTFIT_LIZARD_OUTFIT_19_cls-11" d="M407.12,384.11a60.31,60.31,0,0,1,3.45,14.11s8.3,31.54,11.61,44.52,5.07,12.27,8.16,19.5a52.12,52.12,0,0,1,3.52,15.56l-10.57.17L278,480.36l-139.44-2.27-15.34.25-35.35.58-49.37.73-12.07.2L34.6,442l-7.86-37.18s-1.84-5.21,1.48-8.45,5.14-14.92,5.14-14.92,4.47-.91,6-6.83,7.1-30.27,10.4-36.51,14.46-22.59,14.46-22.59" />
        <path class="GUNDAN_LIZARD_OUTFIT_LIZARD_OUTFIT_19_cls-11" d="M331.75,376.05a20,20,0,1,1,.65-5,20.29,20.29,0,0,1-.65,5" />
        <path class="GUNDAN_LIZARD_OUTFIT_LIZARD_OUTFIT_19_cls-11" d="M306.27,394.13a22.5,22.5,0,0,0,2.88.51v5.87l5.9,0v-5.87a24.18,24.18,0,0,0,6.53-1.72l3,5.05,5.08-2.91-3-5a24.14,24.14,0,0,0,4.77-4.7l5.14,2.91,2.92-5-5.13-2.92a22.88,22.88,0,0,0,1.73-6.39H342v-5.76h-5.93a23,23,0,0,0-1.73-6.4l5.13-2.91-2.92-5-5.14,2.91a23.92,23.92,0,0,0-4.77-4.71l3-5.05-3.51-2-1.57-.9-3,5a25,25,0,0,0-6.53-1.73v-5.86l-5.9,0v5.86a24.92,24.92,0,0,0-6.56,1.69l-3-5.09-5.13,2.87,3,5.11a23.55,23.55,0,0,0-4.81,4.7l-5.22-3-3,5,5.22,3a23.26,23.26,0,0,0-1.76,6.44h-6v5.81h6a22.33,22.33,0,0,0,.76,3.67,20.79,20.79,0,0,0,1,2.77l-5.22,2.95,3,5,5.22-2.95a23.82,23.82,0,0,0,4.81,4.7l-3,5.09,4.91,2.76.22.13.21-.35,2.78-4.74A23.9,23.9,0,0,0,306.27,394.13Z" />
        <path class="GUNDAN_LIZARD_OUTFIT_LIZARD_OUTFIT_19_cls-11" d="M315.37,355.46a16.24,16.24,0,1,1-3.8-.33,16.36,16.36,0,0,1,3.79.33" />
        <path class="GUNDAN_LIZARD_OUTFIT_LIZARD_OUTFIT_19_cls-11" d="M331.16,339.86c-1.16,1.2-2.9,3-5,5.14" />
        <path class="GUNDAN_LIZARD_OUTFIT_LIZARD_OUTFIT_19_cls-11" d="M347.94,358.43a71.1,71.1,0,0,1-7.87,9.72" />
        <path class="GUNDAN_LIZARD_OUTFIT_LIZARD_OUTFIT_19_cls-11" d="M315.37,355.46h0" />
        <path class="GUNDAN_LIZARD_OUTFIT_LIZARD_OUTFIT_19_cls-11" d="M306.27,394.13c-2.2,1.29-4.36,2.48-6.46,3.57l-.43.22c-9.54,4.92-17.52,7.6-20.92,6.65-4.19-1.17-7-4-7.65-7.47-.91-5,2.61-11.38,12.85-16.57a55.48,55.48,0,0,0,5-2.95" />
        <line class="GUNDAN_LIZARD_OUTFIT_LIZARD_OUTFIT_19_cls-11" x1="331.76" y1="376.05" x2="331.75" y2="376.05" />
        <path class="GUNDAN_LIZARD_OUTFIT_LIZARD_OUTFIT_19_cls-11" d="M278.46,389.43s-7.82,13.56,8,8.91" />
        <path class="GUNDAN_LIZARD_OUTFIT_LIZARD_OUTFIT_19_cls-11" d="M285.09,395.11a4.15,4.15,0,1,1-4.14-4.05A4.12,4.12,0,0,1,285.09,395.11Z" />
        <path class="GUNDAN_LIZARD_OUTFIT_LIZARD_OUTFIT_19_cls-11" d="M241.27,315.93c0,5.63-1.68,10.47-4.12,12.74h0A4.59,4.59,0,0,1,234,330c-1.83,0-3.51-1.34-4.79-3.53a21.21,21.21,0,0,1-2.48-9.85c0-.32,0-.64,0-1a25.85,25.85,0,0,1,.4-4.58c.81-4.53,2.78-8,5.21-9.1,0,0,0,0,0,0a3.93,3.93,0,0,1,1.67-.36c3.2,0,5.91,4.05,6.89,9.62A26.46,26.46,0,0,1,241.27,315.93Z" />
        <path class="GUNDAN_LIZARD_OUTFIT_LIZARD_OUTFIT_19_cls-11" d="M87.9,397.27s4.11,40.56,3,49.66S89.5,458,89.5,458l-1.6,20.88-5.36-41.27" />
        <path class="GUNDAN_LIZARD_OUTFIT_LIZARD_OUTFIT_19_cls-12" d="M138,265.55l1.15.7c78.16,47.08,163.13,13.18,163.13,13.18A91.78,91.78,0,0,1,297.66,265a.43.43,0,0,0,0-.11" />
        <g class="GUNDAN_LIZARD_OUTFIT_LIZARD_OUTFIT_19_cls-13">
          <path class="GUNDAN_LIZARD_OUTFIT_LIZARD_OUTFIT_19_cls-14" d="M73.9,479.15s5.11-11.42,2.92-34.07-1.65-33.89-1.65-33.89,6.7,35.82,8.58,43.06c2-28.68-1.21-73.4-1.21-73.4v-11.1s9.71,42.72,13.34,59.19,7.29,43.62,7.29,43.62l1.9,6.08Z" />
          <path class="GUNDAN_LIZARD_OUTFIT_LIZARD_OUTFIT_19_cls-14" d="M33.37,447.69s8.73-6,11.8-10.32.8-28.78.8-28.78.42,21.56-2.4,24.26a14.92,14.92,0,0,1-6.81,3.42l-1.85,4.91Z" />
          <path class="GUNDAN_LIZARD_OUTFIT_LIZARD_OUTFIT_19_cls-14" d="M90.15,300.07s-1.34,18.48,1,33.37,35.57,38.25,42,53.8a112.38,112.38,0,0,0,15.58,26.37s16.23,13.21,16.59,13.45,7.12,7.15,7.12,7.15L198.27,438s-22.06-12.55-24.55-17.75-4.81-7.24-4.81-7.24a66.31,66.31,0,0,1-12.26-8.75c-7.05-6.14-14.92-21.58-22.72-45.14A164.72,164.72,0,0,0,112.24,317l-5.37-23.26-1-3L97,293.25l-1.51,4.16Z" />
          <path class="GUNDAN_LIZARD_OUTFIT_LIZARD_OUTFIT_19_cls-14" d="M200.32,453.06a33.81,33.81,0,0,1,20.41,4.23A135.17,135.17,0,0,0,236,465.44l3,1.09,23.61-17.39,9.63-8.46s-2.67-11.62-2.9-16.14c-4.17,8.84-15.77,17.14-15.77,17.14l-22.81,7.75-5.34-3Z" />
          <path class="GUNDAN_LIZARD_OUTFIT_LIZARD_OUTFIT_19_cls-14" d="M274.74,414.84l10.35,34.76,6.17,2-5.38-28.89S278.46,418.86,274.74,414.84Z" />
          <path class="GUNDAN_LIZARD_OUTFIT_LIZARD_OUTFIT_19_cls-14" d="M395.35,404.2s5,46.95,10.06,61.48,6.23,12.48,6.23,12.48-5.32-19.68-6.54-30.6-2.61-48.15-2.61-48.15Z" />
          <path class="GUNDAN_LIZARD_OUTFIT_LIZARD_OUTFIT_19_cls-14" d="M388.08,409.22s-.45,25.25,0,35,2.12,28.43,2.12,28.43.13-51.67,2.74-67.2A30.32,30.32,0,0,0,388.08,409.22Z" />
          <path class="GUNDAN_LIZARD_OUTFIT_LIZARD_OUTFIT_19_cls-14" d="M366.78,428.84s.71,10.05.59,14.94,1.35,22.87,1.35,22.87l2.36,12.18s-.23-31.2,0-40.76,0-15.43,0-15.43A39.29,39.29,0,0,1,366.78,428.84Z" />
          <path class="GUNDAN_LIZARD_OUTFIT_LIZARD_OUTFIT_19_cls-14" d="M381.94,478.65s-4.7-32.68-1.68-58.84c-.84,25.28,7.62,58.74,7.62,58.74Z" />
          <path class="GUNDAN_LIZARD_OUTFIT_LIZARD_OUTFIT_19_cls-14" d="M415.83,418.28s2.62,26.74,3.28,34.81,6,24.85,6,24.85l8.79-.14a114.55,114.55,0,0,0-3.21-14.8c-2-6.57-5.75-9.91-8-19.05S415.83,418.28,415.83,418.28Z" />
          <path class="GUNDAN_LIZARD_OUTFIT_LIZARD_OUTFIT_19_cls-14" d="M326.19,288.82s.9-4.29,2.45-4.17-1.07,12.71-.09,20.62,6.89,30.2,12.78,35.81,18.17,12.78,24,12.24,18.15-4.15,22.17-2.7,11.92,1.81,14.47,1.49,4.22,2.12,4.22,2.12a161,161,0,0,1-22.26,7c-12.87,3.08-33.54.95-41.58-7.22s-19-22.86-19.48-29.59,1.78-26.36,1.78-26.36Z" />
          <path class="GUNDAN_LIZARD_OUTFIT_LIZARD_OUTFIT_19_cls-14" d="M324.15,290.49a65.46,65.46,0,0,1-10.33,11.74c-6.23,5.48-14.42,14.44-20.39,19.45s-13.4,14.25-25.22,18.58-26.76,13.23-32.13,15-33.64-4.35-38.77-5.73-31.68-12.42-37.45-20.95S126,312.64,122.74,305.16s-14.48-16.5-14.48-16.5v1.61s24.18,25.49,30.62,32.07,15.93,10.46,21.22,14.78,27.29,18.49,34.44,21.48S215,365.67,223,369.92s10.49,19.35,9.61,27.71-2,24-1.87,24.48,0,5.21,0,5.21l7.07-6.28s1.17-23.7,2.37-28.86,1.37-6.74,2.65-11.21,4-6.23,3.91-13a34.64,34.64,0,0,0-1.55-10.75S257.4,350,268,344.17s33-23.95,33-23.95,16.23-11.46,20.45-14.32S327,293.6,327,293.6Z" />
          <path class="GUNDAN_LIZARD_OUTFIT_LIZARD_OUTFIT_19_cls-14" d="M304.24,357.11s-1.87,14.1,7.33,19,15.73.27,15.73.27-7.93,17.27-23.22,8.46S296.26,361.69,304.24,357.11Z" />
          <path class="GUNDAN_LIZARD_OUTFIT_LIZARD_OUTFIT_19_cls-14" d="M277,384.75c1.93-1.29,4.22,2,4.46,2.67s5.79,1.66,7,4.35,1.75,5.8,2.74,6.82,3.93.66,3.93.66-5.82,4.61-12.71,5.26-12-3.14-11.67-7.41S271.82,388.21,277,384.75Z" />
          <path class="GUNDAN_LIZARD_OUTFIT_LIZARD_OUTFIT_19_cls-14" d="M281.49,349.65s-12.32,7.55-17.36,18-12.54,41.05-12,35.95,5.41-36.3,5.41-36.3L246.7,402.41l-2.89,13.66-1.63,3.44,25.5-20.83s.44-12.15,1-15.76,1.72-4.89,1.72-4.89Z" />
          <path class="GUNDAN_LIZARD_OUTFIT_LIZARD_OUTFIT_19_cls-14" d="M153.93,351.42s30.67,20.6,36.35,36.15,10.25,25.59,10.25,25.59l-5.93-29.45V369.28l23.54,51.18,3.47,6.59s1.12-2.88.92-8.78,2.59-13.21,3.45-17.19-.84-14.77-.84-14.77l-11-18S220,381.65,220,392.68s-.92,23.31-.92,23.31-16.64-43.39-30.17-65.2C191,370.28,191,378.26,191,378.26s-37.83-35.37-43.34-46.15-7.52-10.79-7.52-10.79l11.05,25.12Z" />
          <path class="GUNDAN_LIZARD_OUTFIT_LIZARD_OUTFIT_19_cls-14" d="M237.14,328.67a6,6,0,0,1-7.95-2.16c-1.38-1.94-2.35-5-2.48-9.57v-.28c0-.32,0-.64,0-1a35.24,35.24,0,0,1,.26-4.59c.75-6,3.07-8.71,5.35-9.09,0,0,0,0,0,0a3.54,3.54,0,0,1,1.68.14S229.8,324.58,237.14,328.67Z" />
          <path class="GUNDAN_LIZARD_OUTFIT_LIZARD_OUTFIT_19_cls-14" d="M263.43,336.63s-18,17.84-47.76,11.6c-14.81-3.11-53.32-19.19-64.73-28-11.71-9-23-18.86-24.63-21.42-3.18-5.07-6.89-11.68-6.89-11.68a.32.32,0,0,0,0-.06c.08-.31.51-1.68,1.65-1.84s3.8-1.09,2.77-4.14c0,0,9.87,3.87,20.26,7.55l.35.13c15.22,5.4,61.65,19.74,81.19,22.18h-.13c-26.24-1.27-84.92-15.94-84.92-15.94s18.24,21.44,23.34,26.73,49.84,23,67.62,22.48A84.56,84.56,0,0,0,263.43,336.63Z" />
          <path class="GUNDAN_LIZARD_OUTFIT_LIZARD_OUTFIT_19_cls-14" d="M331.45,301.61s6.94,18.25,14.52,27.23,17.25-8.66,34.51,1.79S404.31,339,404.31,339l1.52,8.75s-9.73-.27-12.18,2.29c-7.8-11.86-11.51-16.78-23.26-13.68a31.75,31.75,0,0,0-17.67,12.78S328.94,325.19,331.45,301.61Z" />
          <path class="GUNDAN_LIZARD_OUTFIT_LIZARD_OUTFIT_19_cls-14" d="M278.6,404.6s12.55.9,41.13,0c28.33-.93,40.14-7.66,51.45-18.69a226.6,226.6,0,0,0,18-19.5s-7.78,30.48-14,39.48c-19.39,8.9-32.13,15.15-53.16,14.58S282,416,278,412.67s-9-14-9-14l1.63.09A8.31,8.31,0,0,0,278.6,404.6Z" />
          <path class="GUNDAN_LIZARD_OUTFIT_LIZARD_OUTFIT_19_cls-14" d="M404.08,357.94s-7.55,6.42-8.09,6.73-6.48,21.07-8.11,24.54-4.75,11.89-4.75,11.89l9.81-9.12s-2.46,8.81-5.56,11.4a62.79,62.79,0,0,1-8.13,5.36l-1.59,4.67a77,77,0,0,0,15.65-8c8.36-5.48,11.62-11.76,10.19-14.65s-.34-9.61-.34-9.61l-.33-10.13,3.38-4.29-1.95-9.22Z" />
        </g>
        <line class="GUNDAN_LIZARD_OUTFIT_LIZARD_OUTFIT_19_cls-12" x1="139.03" y1="258.24" x2="137.96" y2="265.55" />
      </g>
    </g>
  </g>
</svg>