<svg xmlns="http://www.w3.org/2000/svg" viewBox="0 0 432 432">
  <defs>
    <style>.BUNTAI_PEACOCK_OUTFIT_PEACOCK_OUTFIT_15_a{isolation:isolate;}.BUNTAI_PEACOCK_OUTFIT_PEACOCK_OUTFIT_15_b{fill:#676358;}.BUNTAI_PEACOCK_OUTFIT_PEACOCK_OUTFIT_15_c{fill:none;stroke:#000;stroke-linecap:round;stroke-linejoin:round;stroke-width:1.32px;}.BUNTAI_PEACOCK_OUTFIT_PEACOCK_OUTFIT_15_d{opacity:0.22;mix-blend-mode:multiply;}.BUNTAI_PEACOCK_OUTFIT_PEACOCK_OUTFIT_15_e{fill:#fff;}.BUNTAI_PEACOCK_OUTFIT_PEACOCK_OUTFIT_15_f{opacity:0.32;}</style>
  </defs>
  <g class="BUNTAI_PEACOCK_OUTFIT_PEACOCK_OUTFIT_15_a">
    <path class="BUNTAI_PEACOCK_OUTFIT_PEACOCK_OUTFIT_15_b" d="M329.45,430.58l-4,10.38-34.71.53h-.88l-2.58,0-63.34,1-27,.41L94.06,444.48l-5.65-16.07s5.93-12.56,11.15-22.93,9-29,8.69-33,2.53-15.57,2.53-15.57,5.37-.5,6.78-1.5,10.87-10.72,13.13-11.89,12.7-5.94,12.7-5.94l1.27-1.67a53.52,53.52,0,0,1,2.61-4.77c.21,0,6.21-3.59,6.21-3.59.69-.38,1.35-.79,2-1.21.95,3.54,5.91,16.24,9.38,26.14,4.16,11.87,12.47,23.66,26,37.84a117.54,117.54,0,0,1,18,24.62A112.29,112.29,0,0,0,223.51,402c8.59-8.75,28.33-28.34,28.33-28.34s-.77.25,6.93-8.57C267.6,355,276.14,345.79,276.16,340a31,31,0,0,0-1.4-7.6l2.88-.25,4.32,6.65s9.51,6,11.73,7.16,4.07,9.92,4.07,9.92,3.91,0,5.61,1.63,1.5,8.53,4,10.67c2.54,18.2,6.37,29.12,12.3,43S329.45,430.58,329.45,430.58Z" />
    <path class="BUNTAI_PEACOCK_OUTFIT_PEACOCK_OUTFIT_15_c" d="M274.27,332.42l3.37-.3,4.32,6.65a302.87,302.87,0,0,1-14.51,43.61c-7.07,16.38-38,39.73-48.63,49.56" />
    <path class="BUNTAI_PEACOCK_OUTFIT_PEACOCK_OUTFIT_15_c" d="M197,442.91c-1-2.26-2.16-4.84-3.5-7.81-11.72-25.94-23.37-39.67-33.68-57.58s-16.38-39.92-16.38-39.92l1.27-1.67a53.52,53.52,0,0,1,2.61-4.77c.21,0,6.21-3.59,6.21-3.59a26.07,26.07,0,0,0,2.45-1.54" />
    <path class="BUNTAI_PEACOCK_OUTFIT_PEACOCK_OUTFIT_15_c" d="M274.27,332.42s2.56,3.85.37,10.43c-2.09,6.31-20.88,33.18-65.5,72.11" />
    <path class="BUNTAI_PEACOCK_OUTFIT_PEACOCK_OUTFIT_15_c" d="M155.93,326a186.28,186.28,0,0,0,17.27,43.62c7.4,10.84,24.15,26.3,35.94,45.31,3.33,5.39,6.61,11.05,9.68,17q2.67,5.15,5.12,10.56" />
    <path class="BUNTAI_PEACOCK_OUTFIT_PEACOCK_OUTFIT_15_c" d="M143.39,337.6s-10.45,4.77-12.7,5.94S119,354.43,117.56,355.43s-6.78,1.5-6.78,1.5-2.81,11.55-2.53,15.57-3.46,22.6-8.69,33-11.15,22.93-11.15,22.93l5.65,16.07L197,442.91l27-.41,63.34-1,2.58,0h.88l34.71-.53,4-10.38s-3.81-5.52-9.74-19.41-9.76-24.82-12.3-43c-2.54-2.14-2.35-9-4-10.67s-5.61-1.63-5.61-1.63-1.84-8.79-4.07-9.92S282,338.77,282,338.77" />
    <path class="BUNTAI_PEACOCK_OUTFIT_PEACOCK_OUTFIT_15_c" d="M290.74,441.49c4.47-7.95,7.6-14.59,7.6-14.59" />
    <path class="BUNTAI_PEACOCK_OUTFIT_PEACOCK_OUTFIT_15_c" d="M289.86,441.5c5.53-20.43,7.07-45.07,7.07-45.07" />
    <path class="BUNTAI_PEACOCK_OUTFIT_PEACOCK_OUTFIT_15_c" d="M287.05,420.45s1.24,12.62.23,21.09" />
    <path class="BUNTAI_PEACOCK_OUTFIT_PEACOCK_OUTFIT_15_c" d="M117.42,370.49s6.14,49.88,11.23,72.14c-5.51-8-8.62-24.6-8.62-24.6" />
    <g class="BUNTAI_PEACOCK_OUTFIT_PEACOCK_OUTFIT_15_d">
      <path d="M285.35,336.67s-25.8,43.15-42.32,59.6-28.9,27.07-28.9,27.07l4.9,9s25.89-25.32,33.6-36.88,21.23-27.63,23.64-36.83,4.1-13.76,4.1-13.76c14.67,20,13.38,18.22,13.88,18.75-2.19,21-5.44,51.55-4.94,60.93,0,0,6-42.1,10-49.88,2.68,12.88,6.7,31,9,37.91-5.82,19.83-13.23,27.62-13.23,27.62s18.61-18.21,21.15-23c6.57,12,11.79,16.92,11.79,16.92l1.38-3.57S321,415.8,317.73,405.22c-6.88-12.84-10.11-36.9-10.11-36.9a32.38,32.38,0,0,1-5.79-7.54c-2.29-4.31.16-4.48-1.57-4.67s-3.18-.39-3.18-.39,1.06-6.57-2.33-9.21-9.87-3.64-10.89-5.73S285.35,336.67,285.35,336.67Z" />
      <path d="M149.78,329.31s10.7,31.64,21.85,48.88c-7.34-7-13.27-17.41-13.27-17.41s10.24,14.9,27.6,39.51,25.13,41.2,25.13,41.2L197,440.21s-21-38.08-26.09-44.11-5.79-7.66-5.79-7.66-19.17-26.32-22.24-35.61c-.11,17.58,2.12,24.73,2.12,24.73s-11.61,11.55-14.89,18-5.72,11-5.72,11,1.76,27.24,3.52,32.31c-6.2-17.75-7.83-28.54-7.83-28.54s-2.32,12.89.92,22c-6.63-12.89-8.33-16.07-8.33-16.07L93,441.49l-4.33-13.65A173.61,173.61,0,0,0,103,397.27c5.38-16,5.27-24.35,5.27-24.35s-.86-12.06,2.53-16c5.19-.86,6.57,0,13-7.53,7.78-6.24,9.6-7.61,16.94-9.54,6.85-2.26,2.68-2.26,2.68-2.26L147,331Z" />
    </g>
    <path class="BUNTAI_PEACOCK_OUTFIT_PEACOCK_OUTFIT_15_e" d="M136.68,338.7s6.95,52.43,4.1,76.36S134.22,445,134.22,445H143s6.07-11.08,9.66-32.3,1.45-49,1.36-53.78c-.18-18.2-4.46-26-4.21-29.59-3.55,0-7.32,2.75-7.32,2.75s1.56,4.49-1,4.82S138.13,337.21,136.68,338.7Z" />
    <path class="BUNTAI_PEACOCK_OUTFIT_PEACOCK_OUTFIT_15_e" d="M273.38,331.63s-3.21-.89,2.38,30.24,2,82.61,2,82.61h4.68s1.77-28.3,2.75-49.8,10.58-50.26,10.24-51.26-5.62-1-7.63-3.39-.46-5.4-1.7-6.53-6.21-3.39-6.21-3.39A49,49,0,0,0,273.38,331.63Z" />
    <path class="BUNTAI_PEACOCK_OUTFIT_PEACOCK_OUTFIT_15_c" d="M136.68,338.7s6.95,52.43,4.1,76.36S134.22,445,134.22,445H143s6.07-11.08,9.66-32.3,1.45-49,1.36-53.78c-.18-18.2-4.46-26-4.21-29.59-3.55,0-7.32,2.75-7.32,2.75s1.56,4.49-1,4.82S138.13,337.21,136.68,338.7Z" />
    <path class="BUNTAI_PEACOCK_OUTFIT_PEACOCK_OUTFIT_15_c" d="M273.38,331.63s-4.34-1,2.34,30.24c6.61,30.93,1.91,82.61,1.91,82.61h4.67s1.82-28.3,2.82-49.8,10.64-50.26,10.3-51.26-5.62-1-7.62-3.39-.45-5.4-1.7-6.53-6.2-3.39-6.2-3.39A49,49,0,0,0,273.38,331.63Z" />
    <path class="BUNTAI_PEACOCK_OUTFIT_PEACOCK_OUTFIT_15_f" d="M144.31,335.12s-.06,15.52-.7,28.63c0,0-1.58-13-.94-18.76,1.11,11.61,9.72,28.1,8.09,46.05s-6.9,45-8.17,48.48A39.9,39.9,0,0,0,141,445l2-.5s8.87-26,11.69-45.17-.29-39-.35-45.85-5-21.61-4.43-24a8.6,8.6,0,0,0-4.75,1.31s5.9,27.56,5.69,37.68c-2-27.2-8.34-35.56-8.34-35.56Z" />
    <path class="BUNTAI_PEACOCK_OUTFIT_PEACOCK_OUTFIT_15_f" d="M274.41,331.7s-1.92,8.86,1.33,28.55c-.54-11.06,2.55-7.65,2.55-7.65s1.66,7.64,3.6,25-1.23,54.36-1,58.5c.27-28.62,5.11-62.76,4.5-73.06s-.78-18.83-.78-18.83-2.39,43.94-1.93,56.12c.43-29,12.39-57.19,12.39-57.19s-9.86-.44-9-9.6a4.17,4.17,0,0,0-2.47-1.25c1.08,8.2-2.13,30.31-1.11,38.85-5-25.42-1.7-40.06-1.7-40.06l-.9-.65-3.13.54Z" />
  </g>
</svg>