<svg xmlns="http://www.w3.org/2000/svg" viewBox="0 0 432 432">
  <defs>
    <style>.BUNTAI_PEACOCK_OUTFIT_PEACOCK_OUTFIT_27_a{isolation:isolate;}.BUNTAI_PEACOCK_OUTFIT_PEACOCK_OUTFIT_27_b{fill:#11294d;}.BUNTAI_PEACOCK_OUTFIT_PEACOCK_OUTFIT_27_c{fill:#567a8a;}.BUNTAI_PEACOCK_OUTFIT_PEACOCK_OUTFIT_27_d{fill:#fff;}.BUNTAI_PEACOCK_OUTFIT_PEACOCK_OUTFIT_27_e{fill:#ffd9b8;}.BUNTAI_PEACOCK_OUTFIT_PEACOCK_OUTFIT_27_f{fill:#d3a67c;}.BUNTAI_PEACOCK_OUTFIT_PEACOCK_OUTFIT_27_g,.BUNTAI_PEACOCK_OUTFIT_PEACOCK_OUTFIT_27_i{fill:none;}.BUNTAI_PEACOCK_OUTFIT_PEACOCK_OUTFIT_27_g{stroke:#000;stroke-linecap:round;stroke-linejoin:round;stroke-width:1.21px;}.BUNTAI_PEACOCK_OUTFIT_PEACOCK_OUTFIT_27_h{opacity:0.43;mix-blend-mode:multiply;}</style>
  </defs>
  <g class="BUNTAI_PEACOCK_OUTFIT_PEACOCK_OUTFIT_27_a">
    <path class="BUNTAI_PEACOCK_OUTFIT_PEACOCK_OUTFIT_27_b" d="M147.58,356.55h0c-.11.22-.21.45-.31.68s-.2.45-.31.68l-.51,1.19c-.24.57-.47,1.16-.7,1.75-.16.42-.32.83-.47,1.26s-.35,1-.51,1.44h0c-1.07,3.1-2,6.29-2.72,9.28-.17.64-.32,1.26-.46,1.87-.46,2-.85,3.78-1.18,5.42v.06c-.06.26-.1.52-.15.77h0c-.36,1.85-.62,3.4-.81,4.54,0,.11,0,.22,0,.32a1.55,1.55,0,0,1,0,.21c0,.16,0,.31-.07.45l0,.16c-.08.57-.13.88-.13.88a1.21,1.21,0,0,0,0,.14v0c-.33.82-.64,1.65-.94,2.48-.09.26-.18.51-.26.77-.38,1.1-.73,2.22-1,3.35-1.17,1-1.79,1.82-1.64,2.39a1.28,1.28,0,0,0,.84,1,45.11,45.11,0,0,0-.7,4.8l0,.3c0,.17,0,.34,0,.51-.08,1.23-.11,2.46-.08,3.69,0,.79.06,1.59.13,2.38.05.59.12,1.17.21,1.75a.31.31,0,0,0,0,.1c0,.35.1.68.16,1a29.84,29.84,0,0,0,.66,3c.21.75.45,1.49.72,2.21h0l-.22.07-.42.14a39.58,39.58,0,0,0-5.31-.27l-.66,0h-.3l-.49,0h-.21l-.66,0-.5,0h-.45c-.19,0-.37,0-.57,0l-.51,0-1.61.08-1.55.08-1.65.09-.85,0-1.32.06c-3.44.16-7.08.3-10.1.33h-1.56l-.57,0-.81,0c-.65,0-1.28-.09-1.88-.16l-1-.12-1-.16h0l-.88-.17-.41-.1a12.26,12.26,0,0,1-1.28-.37l-.36-.13-.38-.16a1.56,1.56,0,0,1-.26-.11,4.12,4.12,0,0,1-.47-.25l-.19-.13,0,0-.21-.17a1.84,1.84,0,0,1-.2-.19,1.56,1.56,0,0,1-.16-.2,1,1,0,0,1-.11-.2.8.8,0,0,1-.07-.2.76.76,0,0,1,0-.21,1.49,1.49,0,0,1,.49-1c2.29-2.36,5.32-6.56,4.28-10.76s-4-10.7,3.62-11.92c.33-.05.66-.11,1-.18s-5.73-2.53-5.52-2.58c.53-.11,1-.23,1.54-.37a32,32,0,0,0,5.84-2.14c-4-5.41-5.39-9-7.63-11.66A6.77,6.77,0,0,1,99.77,370a5.44,5.44,0,0,1,0-.57s0,0,0,0,0-.3,0-.46a4.21,4.21,0,0,1,.11-.58,1.74,1.74,0,0,1,.05-.22,2.54,2.54,0,0,1,.1-.37.21.21,0,0,1,0-.12,1.6,1.6,0,0,1,.1-.31.51.51,0,0,1,.07-.17l.15-.39.15-.33a8.48,8.48,0,0,1,1.55-2.21l.2-.21a3.73,3.73,0,0,1,.3-.26,3.54,3.54,0,0,1,.42-.35l.1-.07a2.42,2.42,0,0,1,.42-.29l.4-.25.26-.13.38-.18c2.92-1.28,7.21-.06,11.54,1.2a52,52,0,0,0-3.36-6.58h0l-.24-.43s0,0,0,0a27,27,0,0,1-3.12-7.63c-1.33-6.84,12.39-8.66,21-8.46s12.89-3.83,12.89-3.83A40.17,40.17,0,0,0,147.58,356.55Z" />
    <path class="BUNTAI_PEACOCK_OUTFIT_PEACOCK_OUTFIT_27_c" d="M288.76,393.41a9.34,9.34,0,0,1-.88,7.06,10.18,10.18,0,0,1-2.95,3.29,11.49,11.49,0,0,1-6.76,2.15c-6,0-10.92-4.48-10.92-10a9.62,9.62,0,0,1,3.35-7.22,11.39,11.39,0,0,1,7.57-2.8h.21a11,11,0,0,1,9.76,5.93A9.23,9.23,0,0,1,288.76,393.41Z" />
    <path class="BUNTAI_PEACOCK_OUTFIT_PEACOCK_OUTFIT_27_d" d="M327.92,403.68c-.74,3.79-8.12,11.31-18.74,10.83-6.44-.28-3-3-12.58-6.24-4.26-1.44-8.29-3-11.66-4.51h0a10.11,10.11,0,0,0,.88-.71,10.66,10.66,0,0,0,1.55-1.74,9,9,0,0,0,.52-.84,9.34,9.34,0,0,0,.88-7.06l.27,0h.09c.93.08,2.09.14,3.51.14h.05l2.1-.06c3.43-.15-6-.65-.06-1.84,16.67-3.32,18.73-10.63,18.73-10.63s3-3.25,5.1-2c1.53.87,2.15,6-1,10.87a6.72,6.72,0,0,1,1.65,1c.22.34-.37,4.74-.37,4.74a49.34,49.34,0,0,0,7.16,7A8.6,8.6,0,0,0,327.92,403.68Z" />
    <path class="BUNTAI_PEACOCK_OUTFIT_PEACOCK_OUTFIT_27_e" d="M254.18,369.8l5.7-4c4.2,4.28,10.47,9.32,13.86,12.89,3.11,3.27,4.23,5.76,4.64,7.18h-.21a11.39,11.39,0,0,0-7.57,2.8c-3.12-3.5-10.3-10.92-17.39-13.63a4.59,4.59,0,0,0-1.23-3.71Z" />
    <path class="BUNTAI_PEACOCK_OUTFIT_PEACOCK_OUTFIT_27_b" d="M278.47,375c6.7,5.55,10.24,12,9.67,16.76a9.23,9.23,0,0,1,.62,1.61,40.88,40.88,0,0,0,6,.13,60.15,60.15,0,0,0-2.08-6s-2.51-18.38-8.48-31c0,0-2.51-5.22-7.08-4.07s-12,9.89-12,9.89A144.17,144.17,0,0,0,278.47,375Z" />
    <path class="BUNTAI_PEACOCK_OUTFIT_PEACOCK_OUTFIT_27_b" d="M296.6,408.27a31.53,31.53,0,0,1-2,9.57,30.69,30.69,0,0,1-7.6,11,76.64,76.64,0,0,1-10,7.67c-16.23,9.33-38.35,3.4-57.68-3.91-17.12,15.3-64.49,3.91-64.49,3.91a76.64,76.64,0,0,1-10-7.67,31.08,31.08,0,0,1-7.43-10.59l.38-.21.34-.18.21-.12.24-.13.27-.14.61-.32.34-.18.24-.13,1.63-.84.49-.25.28-.14.49-.25.84-.43.84-.42c1.09-.55,2.31-1.16,3.64-1.81l.69-.34,4.54-2.19,1.5-.71,4.05-1.88,1.52-.7,1.44-.65,1.48-.67.52-.23c1.09-.49,2.2-1,3.35-1.49l2.32-1c1.18-.52,2.39-1,3.61-1.56l3.77-1.58c.64-.26,1.29-.54,1.95-.8l1.21-.5c1.13-.46,2.27-.93,3.43-1.39l.3-.12,1.9-.76,1.93-.76,1.77-.68,1.49-.56,2.07-.74,1.78-.63,1.71-.57c.86-.29,1.73-.58,2.59-.85l2.85-.89,2.85-.84L207,389l1.06-.29c3.46-.95,6.86-1.8,10.14-2.57l.11,0c1.47-.34,2.91-.66,4.33-1l1.27-.28,1.38-.29,2.1-.42c2.58-.51,5-1,7.3-1.36h0c2-.34,3.78-.64,5.46-.9l1.34-.21.87-.12,1.66-.24c5-.72,8-1,8-1a17.51,17.51,0,0,0,1.18-5.28c7.09,2.71,14.27,10.13,17.39,13.63a9.62,9.62,0,0,0-3.35,7.22c0,5.54,4.89,10,10.92,10a11.53,11.53,0,0,0,6.2-1.77l.21-.14c.12-.07.24-.16.35-.24h0C288.31,405.27,292.34,406.83,296.6,408.27Z" />
    <path class="BUNTAI_PEACOCK_OUTFIT_PEACOCK_OUTFIT_27_e" d="M217.11,339.92c-.05-.11-.1-.21-.16-.32s-.09-.17-.14-.26a1.35,1.35,0,0,0-.15-.26c0-.09-.11-.17-.17-.26a6,6,0,0,0-.45-.58c-.07-.09-.15-.17-.22-.25a1.88,1.88,0,0,0-.24-.25c-.19-.19-.39-.38-.6-.56s-.43-.35-.65-.51a7.57,7.57,0,0,0-.76-.49l-.41-.22a7.91,7.91,0,0,0-.84-.37l-.33-.1-.33-.09a3.87,3.87,0,0,0-.68-.12,4,4,0,0,0-3.33,1.14,2.64,2.64,0,0,0-.29,3.07,3.18,3.18,0,0,0,3,1.4c-.28,1.54-2.27,2.51-4,2.52a5.2,5.2,0,0,1-4.21-2.25,6.86,6.86,0,0,1-1.06-4.49,8.57,8.57,0,0,1,.78-2.88c-4.21-2.66-13.35-4.56-21-7.1l-1.69-.6c-.84-.33-1.68-.68-2.53-1-.56-.25-1.12-.51-1.67-.78-1.36-.66-2.71-1.37-4-2.12-1.75-1-3.44-2.06-5.05-3.12-.4-.26-.79-.53-1.18-.8-.72-.49-1.42-1-2.09-1.47-1.77,2.25-3.73,4.65-5.75,6.93-.26.3-.53.59-.8.88l0,2.47-12.7,9.71a40.19,40.19,0,0,0,4.21,19.8h0q-.45,1-.87,1.95c-.08.18-.16.36-.23.55l0,0-.21.53a.61.61,0,0,0,0,.12c-.09.2-.17.41-.24.61a1.17,1.17,0,0,0-.09.24l-.12.3a1.34,1.34,0,0,0-.07.18l0,.12a.88.88,0,0,0-.05.15c-.11.25-.2.51-.29.77-.18.48-.34,1-.51,1.44h0c-.29.83-.56,1.68-.83,2.52s-.44,1.44-.65,2.16-.44,1.55-.65,2.32c-.14.54-.29,1.08-.42,1.61l-.09.36c0,.06,0,.13-.05.19-.33,1.29-.62,2.54-.89,3.73-.06.24-.11.48-.16.71s-.06.26-.08.38-.09.41-.13.61l-.06.27-.09.45c-.08.41-.16.8-.24,1.19a.13.13,0,0,0,0,.06h0v.1l0,.2v0l0,.2-.06.28h0l.22-.22c2.14-2.09,4.89-4.89,7.68-8l.12-.13c.17-.21.36-.41.54-.62l.08-.09.21-.25c.57-.65,1.14-1.32,1.7-2,.32-.38.63-.77.94-1.15,1.45-1.79,2.84-3.62,4.07-5.46l.18-.27h0l0,0a.57.57,0,0,0,.08-.13l0,0,.21-.32c.29-.43.55-.86.79-1.29.11-.19.21-.38.32-.56l.31-.56s0,0,0,0a4,4,0,0,0,.24-.46c.11-.19.2-.38.29-.57s.17-.38.26-.56c.23-.49.44-1,.64-1.46a1.42,1.42,0,0,1,.05-.16s0,0,0,0a27,27,0,0,0,1.17-3.69c.06-.22.11-.44.15-.67s.1-.45.14-.67.08-.44.12-.65c0,0,0-.07,0-.11s0-.23,0-.34v0c0-.16.05-.31.07-.46s0-.3,0-.45a1.66,1.66,0,0,1,0-.22v0c0-.07,0-.13,0-.2a17.37,17.37,0,0,0,.05-2.48c0-.29,0-.57-.06-.85,0-.11,0-.21,0-.32s0-.09,0-.14a.3.3,0,0,0,0-.1.85.85,0,0,0,0-.23.77.77,0,0,0,0-.15.59.59,0,0,0,0-.14l0-.13,0-.13c0-.14-.06-.28-.1-.42s-.05-.22-.08-.33-.07-.22-.1-.32-.07-.2-.11-.31h0a5.83,5.83,0,0,0-.23-.58c-.09-.19-.18-.37-.28-.54a.06.06,0,0,0,0,0,.36.36,0,0,0-.07-.1l0,0a3.17,3.17,0,0,0-.23-.36l-.29-.37h0l-.12-.12-.11-.13-.12-.1a.22.22,0,0,0-.07-.06l-.12-.1h0l0,0h0l0,0,0,0h0s0,0,0,0l0,0h0a2.77,2.77,0,0,0-.37-.22L158,340l0,0-.33-.12h0l-.34-.08h-.06a0,0,0,0,0,0,0H157a3.33,3.33,0,0,0-.55,0,7,7,0,0,0-1.9.38c-.19.06-.36.13-.53.2l-.34.17a3.13,3.13,0,0,0-.36.19,8.67,8.67,0,0,0-2.36,2l-.36.46a3.46,3.46,0,0,0-.22.31c-.14.2-.28.4-.4.6s-.23.39-.33.58l-.28.54a2.72,2.72,0,0,0-.11.25h0c0,.08-.07.16-.1.23s-.17.41-.23.57a1.21,1.21,0,0,0,0,.14l-.05.13h0a3.41,3.41,0,0,1,.1-.43c0-.05,0-.09,0-.15a2.73,2.73,0,0,1,.11-.4c.06-.22.14-.47.22-.74a1.8,1.8,0,0,1,.09-.28,5.14,5.14,0,0,1,.2-.59q.12-.35.27-.72c.07-.19.15-.38.24-.58s.16-.37.24-.56.26-.55.41-.84.29-.54.45-.81.24-.41.37-.61.26-.41.41-.6a10.13,10.13,0,0,1,.76-1A9.83,9.83,0,0,1,154,337a1.84,1.84,0,0,1,.22-.17,1.66,1.66,0,0,1,.3-.22l.26-.17s0,0,.06,0l.21-.14a6.65,6.65,0,0,1,1.14-.54,5.27,5.27,0,0,1,.6-.2,6,6,0,0,1,1.15-.22l.21,0c.22,0,.45,0,.68,0l.34,0,.24,0h.08a4.34,4.34,0,0,1,.54.09l.53.14.05,0c.17.06.35.13.52.21a5.43,5.43,0,0,1,1.06.62l.48.38c.16.14.31.29.46.44s.22.23.32.35a9.44,9.44,0,0,1,1.14,1.63,7.67,7.67,0,0,1,.36.7,6.36,6.36,0,0,1,.34.75l.3.79c.05.13.1.27.14.41.12.35.22.71.31,1.09s.14.55.19.83a16.37,16.37,0,0,1,.31,1.92q.06.45.09.9c0,.44.06.89.07,1.34a29.38,29.38,0,0,1-3.45,14.43A80.55,80.55,0,0,1,146.63,383s0,.26,0,.68c0,.14,0,.28,0,.44s0,.4,0,.62,0,.46,0,.7c0,.56.09,1.17.14,1.74l.06.77h0l1.23-.65,1.32-.68c.76-.39,1.53-.79,2.31-1.17l2.87-1.42,1.32-.62c.27-.14.54-.26.8-.38,1-.5,2.07-1,3.07-1.42,2.51-1.14,4.88-2.16,6.89-3,10.95-4.37,25.44-7.26,25.44-7.26,0-.19,0-.39-.05-.58v-.12c0-.15,0-.31,0-.46a11.43,11.43,0,0,1,0-1.17c0-.36.07-.72.13-1.08,0-.16.06-.32.1-.49s.08-.35.13-.52.13-.46.21-.68.22-.59.35-.88.28-.56.44-.84h0l.19-.3,0,0c.15-.22.31-.44.48-.65l.05-.07.08-.09a1.49,1.49,0,0,0,.12-.14l.2-.22h0a4.17,4.17,0,0,1,.37-.36l0,0,.12-.09.35-.28c.12-.09.25-.17.38-.25s.5-.29.76-.42l.39-.19c.21-.1.43-.2.65-.28s.68-.29,1-.41l.58-.22c.52-.2,1-.39,1.53-.6a5.38,5.38,0,0,0,.55-.24l.17-.08.16-.08h0l.32-.16,0,0,0,0,.08,0a8.51,8.51,0,0,0,.9-.57,3.62,3.62,0,0,0,.42-.36c.13-.13.26-.26.38-.4s.22-.29.32-.44a5.89,5.89,0,0,0,.47-.85l.12-.26c.1-.22.19-.46.27-.69s.17-.46.24-.7h0c0-.08.05-.16.07-.24v0a.19.19,0,0,0,0-.07l.3-1,.18-.54,0-.1a.14.14,0,0,1,0-.06l.08-.21c0-.1.07-.18.1-.27a.47.47,0,0,1,.05-.1,3.54,3.54,0,0,1,.16-.34,2.21,2.21,0,0,1,.18-.34,3.35,3.35,0,0,1,.21-.36,3.19,3.19,0,0,1,.26-.38c1.23-1.6,3.3-2.43,5.22-3.27.48-.21,1-.44,1.44-.69.24-.12.47-.24.7-.38a7.39,7.39,0,0,0,.66-.42l.49-.37.41-.35.26-.27.11-.12.14-.15.13-.18.19-.27a1,1,0,0,0,.08-.14l0,0a.56.56,0,0,0,.05-.08v0l.06-.09.06-.12h0A4.92,4.92,0,0,0,217.11,339.92Zm-66.7,16c0-.05,0-.1,0-.16a.25.25,0,0,1,0-.08,2.09,2.09,0,0,1,0-.25c0-.22,0-.46.07-.7l0-.22s0-.06,0-.1l.06-.36c0-.21.08-.41.13-.62l.12-.49a3.18,3.18,0,0,1,.09-.33l.12-.41c.09-.27.18-.53.28-.79s.17-.42.26-.62a10.18,10.18,0,0,1,.86-1.58,2.62,2.62,0,0,1,.24-.34l.14-.18a1,1,0,0,1,.13-.16c.09-.11.19-.21.28-.31l.19-.18a1.19,1.19,0,0,1,.18-.15,2.14,2.14,0,0,1,.26-.19,2.07,2.07,0,0,1,.72-.32l.1,0H155a1.1,1.1,0,0,1,.4.08.89.89,0,0,1,.25.14.05.05,0,0,1,0,0,1.12,1.12,0,0,1,.21.18,1,1,0,0,1,.16.2.57.57,0,0,1,.12.18l.12.22a5.15,5.15,0,0,1,.2.52,9.9,9.9,0,0,1-.06,4.78c-.06.23-.12.47-.19.7s-.12.43-.19.64-.1.32-.16.47a2.33,2.33,0,0,1-.11.28c-.06.17-.12.32-.19.47s-.19.42-.29.62-.2.39-.31.57-.21.35-.32.51a5.92,5.92,0,0,1-.35.48h0l0,0-.15.18,0,0a5.11,5.11,0,0,1-.57.55l-.23.16-.21.13-.14.07-.17.07-.23.07a1.33,1.33,0,0,1-.28,0h-.07a1.51,1.51,0,0,1-.37-.07,1.68,1.68,0,0,1-.86-.83.89.89,0,0,1-.08-.17,1.21,1.21,0,0,1-.09-.2c-.06-.16-.11-.33-.16-.5l-.06-.25a.69.69,0,0,1,0-.13,8.72,8.72,0,0,1-.12-1.51Zm-1.62-9.41h0a.06.06,0,0,1,0,0Z" />
    <path class="BUNTAI_PEACOCK_OUTFIT_PEACOCK_OUTFIT_27_f" d="M156.4,353.7c.76-3.43.12-6.26-1.44-6.32s-3.45,2.65-4.22,6.08-.13,6.25,1.43,6.32S155.62,357.12,156.4,353.7Z" />
    <path class="BUNTAI_PEACOCK_OUTFIT_PEACOCK_OUTFIT_27_f" d="M278.47,375a144.17,144.17,0,0,1-13.36-12.67s7.46-8.73,12-9.89,7.08,4.07,7.08,4.07a37.74,37.74,0,0,0,1.72-3.92c-5.36-8.86-19.35-1.7-30.12,7.78.52,1.46,2.05,3.34,4.06,5.39,4.2,4.28,10.47,9.32,13.86,12.89,3.11,3.27,4.23,5.76,4.64,7.18a11,11,0,0,1,9.76,5.93C288.71,387.09,285.17,380.59,278.47,375Z" />
    <path class="BUNTAI_PEACOCK_OUTFIT_PEACOCK_OUTFIT_27_f" d="M262.18,320.92,262,321a30.06,30.06,0,0,1-6.45,3c-8.71,2.71-13.22,6.42-13.22,6.42a5.41,5.41,0,0,0-2.87-.75,8.09,8.09,0,0,0-2.33.36,8,8,0,0,0-1.06.4,9.35,9.35,0,0,0-1.53.81,5.25,5.25,0,0,0-.49.33l-.27.2-.09.06-.11.1a3.72,3.72,0,0,0-.53.45,3.84,3.84,0,0,0-.3.28,8.85,8.85,0,0,0-1,1.15l-.09.12a10.5,10.5,0,0,0-.75,1.09l-.23.4s0,0,0,0-.16.28-.23.43l-.21.44a11.85,11.85,0,0,0-.82,2.59h-6.66a10,10,0,0,0-1.11-2.59,11.11,11.11,0,0,0-1.73-2.2c-.16-.17-.34-.33-.51-.49l-.31-.26a3.07,3.07,0,0,0-.29-.24,2.92,2.92,0,0,0-.29-.23l-.41-.3a13.55,13.55,0,0,0-1.67-1c-.16-.09-.33-.17-.5-.25a1.34,1.34,0,0,0-.24-.12l-.59-.26-.69-.27c-.23-.09-.46-.17-.7-.24a14.46,14.46,0,0,0-1.43-.4,14.26,14.26,0,0,0-3.14-.36,9.35,9.35,0,0,0-3.85.75s-6.09-3.71-17.82-6.42c-7.23-1.67-13.72-6.35-20.07-10.08-2.12-1.25-5.34-1.28-4.72,2.78h0c.67.48,1.37,1,2.09,1.47.39.27.78.54,1.18.8,1.61,1.06,3.3,2.12,5.05,3.12,1.31.75,2.66,1.46,4,2.12.55.27,1.11.53,1.67.78.85.37,1.69.72,2.53,1l1.69.6c7.68,2.54,16.82,4.44,21,7.1a8.57,8.57,0,0,0-.78,2.88,6.86,6.86,0,0,0,1.06,4.49,5.2,5.2,0,0,0,4.21,2.25c1.69,0,3.68-1,4-2.52a3.18,3.18,0,0,1-3-1.4,2.64,2.64,0,0,1,.29-3.07,4,4,0,0,1,3.33-1.14,3.87,3.87,0,0,1,.68.12l.33.09.33.1a7.91,7.91,0,0,1,.84.37l.41.22a7.57,7.57,0,0,1,.76.49c.22.16.44.33.65.51s.41.37.6.56a1.88,1.88,0,0,1,.24.25c.07.08.15.16.22.25a6,6,0,0,1,.45.58c.06.09.12.17.17.26a1.35,1.35,0,0,1,.15.26c.05.09.1.17.14.26s.11.21.16.32a4.92,4.92,0,0,1,0,4.08h0l-.06.12-.06.09v0a.56.56,0,0,1-.05.08l0,0a1,1,0,0,1-.08.14l-.19.27-.13.18a5.18,5.18,0,0,1-.51.54l-.41.35-.49.37a7.39,7.39,0,0,1-.66.42,6.8,6.8,0,0,1-.7.38c-.47.25-1,.48-1.44.69-1.92.84-4,1.67-5.22,3.27a3.19,3.19,0,0,0-.26.38,3.35,3.35,0,0,0-.21.36,2.21,2.21,0,0,0-.18.34,3.54,3.54,0,0,0-.16.34.47.47,0,0,0-.05.1c0,.09-.07.17-.1.27l-.08.21a.14.14,0,0,0,0,.06l0,.1-.18.54-.3,1a.19.19,0,0,1,0,.07v0c0,.08-.05.16-.07.24h0c-.07.24-.15.47-.24.7s-.17.47-.27.69l-.12.26a5.89,5.89,0,0,1-.47.85,5.12,5.12,0,0,1-.7.84,3.62,3.62,0,0,1-.42.36,8.51,8.51,0,0,1-.9.57l-.08,0,0,0,0,0-.32.16h0l-.14.08h0l-.17.08a5.38,5.38,0,0,1-.55.24c-.5.21-1,.4-1.53.6l-.58.22c-.35.12-.69.26-1,.41s-.44.18-.65.28l-.39.19c-.26.13-.52.27-.76.42s-.26.16-.38.25l-.35.28-.12.09,0,0a4.17,4.17,0,0,0-.37.36h0l-.2.22a1.49,1.49,0,0,1-.12.14l-.08.09-.05.07c-.17.21-.33.43-.48.65l0,0-.19.3h0c-.16.28-.31.56-.44.84s-.24.58-.35.88-.15.45-.21.68-.09.35-.13.52-.07.33-.1.49c-.06.36-.1.72-.13,1.08s0,.62,0,.93,0,.47,0,.7,0,.47.05.7c0,0-14.49,2.89-25.44,7.26-2,.8-4.38,1.82-6.89,3L156.85,383c-.26.12-.53.24-.8.38l-1.32.62-2.87,1.42-2.31,1.17-1.32.68-1.23.65h0l-.06-.77c-.05-.57-.1-1.18-.14-1.74,0-.24,0-.48,0-.7s0-.43,0-.62,0-.3,0-.44c0-.42,0-.68,0-.68a80.55,80.55,0,0,0,16.6-20.65,29.38,29.38,0,0,0,3.45-14.43c0-.45,0-.9-.07-1.34s-.05-.6-.09-.9a16.37,16.37,0,0,0-.31-1.92c-.05-.28-.12-.56-.19-.83s-.19-.74-.31-1.09c0-.14-.09-.28-.14-.41l-.3-.79a6.36,6.36,0,0,0-.34-.75c-.11-.24-.24-.47-.36-.7a9.44,9.44,0,0,0-1.14-1.63c-.1-.12-.21-.24-.32-.35s-.3-.3-.46-.44l-.48-.38a5.43,5.43,0,0,0-1.06-.62c-.17-.08-.35-.15-.52-.21l-.05,0-.53-.14a4.34,4.34,0,0,0-.54-.09h-.08l-.24,0-.34,0c-.23,0-.46,0-.68,0l-.21,0a6,6,0,0,0-1.15.22,5.27,5.27,0,0,0-.6.2,6.65,6.65,0,0,0-1.14.54l-.21.14s0,0-.06,0l-.26.17a1.66,1.66,0,0,0-.3.22,1.84,1.84,0,0,0-.22.17,9.83,9.83,0,0,0-1.27,1.23,12,12,0,0,0-.76,1c-.15.19-.28.4-.41.6s-.25.4-.37.61-.31.54-.45.81-.28.57-.41.84-.17.37-.24.56-.17.39-.24.58-.19.49-.27.72-.14.4-.2.59a1.8,1.8,0,0,0-.09.28c-.08.27-.16.52-.22.74a2.73,2.73,0,0,0-.11.4c0,.06,0,.1,0,.15a3.41,3.41,0,0,0-.1.43h0l.05-.13a1.21,1.21,0,0,1,0-.14c.06-.16.13-.35.23-.57s.06-.15.1-.23a1.87,1.87,0,0,1,.12-.25l.28-.54c.1-.19.21-.38.33-.58s.26-.4.4-.6a2.18,2.18,0,0,1,.22-.31l.36-.46a8.67,8.67,0,0,1,2.36-2l.36-.19.34-.17c.17-.07.34-.14.53-.2a7,7,0,0,1,1.9-.38,3.33,3.33,0,0,1,.55,0h.21a0,0,0,0,1,0,0h.06l.34.08h0a1.85,1.85,0,0,1,.33.12l0,0,.16.07a2.77,2.77,0,0,1,.37.22h0l0,0s0,0,0,0h0l0,0,0,0h0l0,0h0l.12.1a.22.22,0,0,1,.07.06l.12.1.11.13.12.12h0l.29.37a3.17,3.17,0,0,1,.23.36l0,0a.36.36,0,0,1,.07.1.06.06,0,0,1,0,0c.1.17.19.35.28.54a5.83,5.83,0,0,1,.23.58h0c0,.11.08.2.11.31s.07.21.1.32.06.22.08.33.07.28.1.42l0,.13,0,.13a.59.59,0,0,1,0,.14.77.77,0,0,1,0,.15.85.85,0,0,1,0,.23.3.3,0,0,1,0,.1c0,.05,0,.09,0,.14s0,.21,0,.32c0,.28.05.56.06.85a17.37,17.37,0,0,1-.05,2.48v.06a.59.59,0,0,0,0,.14v0a1.66,1.66,0,0,0,0,.22c0,.2-.05.41-.08.61l0,.3v0c0,.11,0,.23,0,.34s0,.07,0,.11c0,.21-.07.43-.12.65s-.08.45-.14.67-.09.45-.15.67a27,27,0,0,1-1.17,3.69s0,0,0,0h0a1.42,1.42,0,0,0-.05.16c-.2.49-.41,1-.64,1.46-.09.18-.17.37-.26.56s-.18.38-.29.57a4,4,0,0,1-.24.46s0,0,0,0l-.31.56c-.11.18-.21.37-.32.56-.24.43-.5.86-.79,1.29l-.21.32,0,0a.57.57,0,0,1-.08.13l0,0h0l-.18.27c-1.23,1.84-2.62,3.67-4.07,5.46-.31.38-.62.77-.94,1.15-.56.67-1.13,1.34-1.7,2l-.21.25-.08.09c-.18.21-.37.41-.54.62l-.12.13c-2.79,3.14-5.54,5.94-7.68,8l-.22.22h0l0,0c-.09.46-.17.91-.25,1.33,0,.21-.08.41-.11.61-.08.41-.14.79-.21,1.15l0,.18q0,.28-.09.54h0c0,.21-.07.42-.1.61a2.51,2.51,0,0,0,0,.27v0l0,.17,0,.16h0l-.05.31c0,.05,0,.09,0,.14l0,.16c-.08.57-.13.88-.13.88a1.21,1.21,0,0,1,0,.14v.06c0,.06-.05.13-.07.18h0c-.1.26-.21.53-.31.8l-.3.8c0,.07-.05.13-.07.2-.15.4-.29.81-.43,1.22l-.12.35c-.08.22-.15.45-.22.68s-.05.16-.07.24l0,.06c-.08.25-.16.5-.23.75l0,.09c-.12.39-.23.78-.34,1.18l-.38.33-.33.32-.14.14-.14.15h0l0,0a.86.86,0,0,1-.07.1,2.18,2.18,0,0,0-.53.88l0,.08a1.24,1.24,0,0,0,0,.18,1,1,0,0,0,0,.17,3,3,0,0,0,.12.36h0l0,0h0a.57.57,0,0,0,.08.13h0s0,0,0,0a.18.18,0,0,0,.05.07,1.32,1.32,0,0,0,.53.36,3.25,3.25,0,0,0,1.77,0,.28.28,0,0,1,0,.06l0,.15q0,.14-.06.36c0,.15,0,.33-.07.54s0,.42-.07.66a33.44,33.44,0,0,0-.09,5.76c.05.79.13,1.62.26,2.47h0q0,.33.12.66c.09.55.21,1.1.34,1.67q.12.51.27,1c.09.34.2.68.31,1s.23.69.36,1a26.86,26.86,0,0,0-2.78,2.1c.21.75.45,1.5.72,2.22,0,.09.07.19.1.28l.06.14h0c.05.13.11.26.17.39l.38-.21h0c.21-.12.51-.28.89-.47l.16-.09,1.13-.59.06,0,.32-.16.05,0,.39-.2.41-.21,1-.49.28-.15.49-.25c.27-.14.55-.27.84-.43l.21-.1,1-.49,1.3-.65,3.2-1.58.35-.17.19-.09,1.11-.54,1.16-.56.92-.43c2.34-1.12,4.91-2.32,7.69-3.58l.41-.19.69-.32,1.48-.67.52-.23,3.35-1.49,2.32-1,1.19-.51c1.6-.69,3.24-1.38,4.92-2.09l1.27-.54,1.95-.8,3.29-1.34,1.35-.55.29-.11,1.91-.76,1.93-.77,1.42-.54.35-.14,1.07-.39,1.42-.52,1.07-.39.36-.12,1.43-.5c.57-.2,1.13-.39,1.7-.57l.62-.21.54-.18,1.43-.46c1-.31,1.91-.61,2.85-.89l1.84-.55.66-.19L207,389l.88-.24,1.93-.53.24-.06,1.68-.44,1.9-.48c1.26-.32,2.51-.62,3.74-.91l.83-.2.11,0,.2,0,.16,0h0l.59-.13,1.2-.28.18,0c1.1-.24,2.18-.48,3.25-.7l1.18-.25,1.62-.33,1.52-.3c1.82-.36,3.56-.68,5.23-1l1.22-.22h0l.63-.11c1.85-.31,3.58-.59,5.18-.83h.09l.24,0,.11,0H241l1.51-.23,1.49-.22,1.52-.21.26,0,.18,0,.38-.05.77-.1.26,0,.16,0,.88-.1.79-.1.15,0,1.47-.17h0l.57-.06h.06l.24,0h.09l.18,0h0s0-.08.07-.16v0c0-.1.08-.23.13-.38l.05-.15c0-.08.06-.17.09-.28.12-.35.24-.78.36-1.26l.12-.5a10.51,10.51,0,0,0,.23-1.29,2.91,2.91,0,0,0,0-.31c0-.31.06-.62.07-.92a4.6,4.6,0,0,0-1.22-3.71c.06-3-.27-6.11-1.85-8.34s-4.43-2.49-6.28-4.34a7.68,7.68,0,0,1-1.66-3.7,14.47,14.47,0,0,0-1.24-4,9.51,9.51,0,0,0-3.87-3.27,7.48,7.48,0,0,1-3.57-3.68,6.47,6.47,0,0,1,0-4.08c.05-.16.11-.33.17-.48a6.65,6.65,0,0,1,.43-.89,7.91,7.91,0,0,1,.44-.68q.19-.27.39-.51a8.32,8.32,0,0,1,.63-.69,5.27,5.27,0,0,1,.57-.49,3.3,3.3,0,0,1,.3-.22,4.83,4.83,0,0,1,.62-.37l.24-.1a1.25,1.25,0,0,1,.25-.09,2.15,2.15,0,0,1,.5-.12,2.53,2.53,0,0,1,2.48,1.14,3.3,3.3,0,0,1,.48,1.76c0,.11,0,.22,0,.33a1,1,0,0,1,0,.25,3.53,3.53,0,0,1-.22.72,1.24,1.24,0,0,1-.1.2.79.79,0,0,1-.14.23,1.54,1.54,0,0,1-.23.29l-.11.11a2.32,2.32,0,0,1-.25.21,1.89,1.89,0,0,1-1.38.37,3.05,3.05,0,0,0,2.94,2.52,3.73,3.73,0,0,0,3.12-2.25,8.82,8.82,0,0,0,.78-4.49,10.74,10.74,0,0,0-.57-2.89c3.11-2.65,9.9-4.55,15.6-7.1.52-.23,1-.47,1.52-.71l1.19-.58q.64-.31,1.26-.66c.41-.22.81-.44,1.2-.67C265.59,320.18,262.43,320.91,262.18,320.92ZM144,410a24.73,24.73,0,0,1-2.63-13.53c2.65-1.13,6.23-2.91,10.9-5.21,0,.28-.25,8.55,2.68,12.66C150.28,406.31,146.71,408.32,144,410Zm18.28-9.79-3,1.48a22.53,22.53,0,0,1-2.17-12.8c3.3-1.55,7.15-3.11,11.11-4.6l1.71-.64h0a18.66,18.66,0,0,0,2.71,11.6C168.84,397,165.39,398.64,162.29,400.16Zm14.58-6.8a20.26,20.26,0,0,1-2.32-11.4c6.67-2.34,13-4.35,17.15-5.6,0,0,1,6.33,3.62,10.41A193.59,193.59,0,0,0,176.87,393.36Zm62.35-36.75c.36.78.62,1.65.91,2.48,0,.12.08.25.13.37a11.6,11.6,0,0,0,.44,1.08,5.64,5.64,0,0,0,.7,1.13,1.55,1.55,0,0,0,.25.26,4.62,4.62,0,0,0,1.06.83c.18.1.36.2.55.29.35.18.71.33,1.08.49l.58.25.58.28a6,6,0,0,1,.55.31,7.91,7.91,0,0,1,3.2,4.58,9.86,9.86,0,0,1-.28,6,395.2,395.2,0,0,0-48.57,10.27c-2.66-4.06-4.1-10.27-4.1-10.27a6.4,6.4,0,0,1-.5-1.25,3.45,3.45,0,0,1-.12-.43,3.82,3.82,0,0,1-.09-.44,6.61,6.61,0,0,1-.11-.88,7.41,7.41,0,0,1,.1-1.76,6.79,6.79,0,0,1,.34-1.27,2.83,2.83,0,0,1,.16-.36,5.12,5.12,0,0,1,.25-.53,5.39,5.39,0,0,1,.3-.52,1.67,1.67,0,0,1,.16-.24.47.47,0,0,1,.06-.09l.27-.36a4.82,4.82,0,0,1,.36-.43l.11-.12.12-.12a6.58,6.58,0,0,1,.79-.71,1,1,0,0,1,.16-.14l.37-.25a6.12,6.12,0,0,1,.57-.37c.21-.12.42-.24.64-.34,2.07-1,4.6-1.22,6.26-2.71l.27-.26a6.47,6.47,0,0,0,.47-.57,6.2,6.2,0,0,0,.44-.69l.2-.36c.13-.24.24-.49.36-.74s.34-.76.52-1.13a14.73,14.73,0,0,1,.68-1.31c2.66-4.33,9-5.72,12-9.85a8.67,8.67,0,0,0,1.55-3.82h6.22a10.68,10.68,0,0,0,1.15,3.82C232.55,350.89,237.25,352.28,239.22,356.61Zm-90.44-10.07h0v0A.06.06,0,0,0,148.78,346.54Z" />
    <path class="BUNTAI_PEACOCK_OUTFIT_PEACOCK_OUTFIT_27_e" d="M287.74,347.12c-.38,2.31-.78,2.76-1.8,5.51-5.36-8.87-19.35-1.71-30.12,7.77.52,1.47,2.06,3.35,4.06,5.4l-5.7,4L252,371.33c.06-3-.27-6.11-1.85-8.34s-4.43-2.49-6.28-4.34a7.68,7.68,0,0,1-1.66-3.7,14.47,14.47,0,0,0-1.24-4,9.51,9.51,0,0,0-3.87-3.27,7.48,7.48,0,0,1-3.57-3.68,6.47,6.47,0,0,1,0-4.08c.05-.16.11-.33.17-.48.13-.31.28-.61.43-.89a7.91,7.91,0,0,1,.44-.68q.19-.27.39-.51a8.32,8.32,0,0,1,.63-.69,6.68,6.68,0,0,1,.57-.49,3.3,3.3,0,0,1,.3-.22,4.83,4.83,0,0,1,.62-.37l.24-.1a1.25,1.25,0,0,1,.25-.09,2.15,2.15,0,0,1,.5-.12,2.53,2.53,0,0,1,2.48,1.14,3.3,3.3,0,0,1,.48,1.76c0,.11,0,.22,0,.33a1,1,0,0,1,0,.25c0,.13,0,.25-.08.37s-.08.24-.13.36a.72.72,0,0,1-.11.19.79.79,0,0,1-.14.23,1.63,1.63,0,0,1-.23.29l-.11.11a2.32,2.32,0,0,1-.25.21,1.89,1.89,0,0,1-1.38.37,3.05,3.05,0,0,0,2.94,2.52,3.73,3.73,0,0,0,3.12-2.25,8.82,8.82,0,0,0,.78-4.49,10.74,10.74,0,0,0-.57-2.89c3.11-2.65,9.9-4.55,15.6-7.1.52-.23,1-.47,1.52-.71l1.19-.58q.64-.31,1.26-.66c.41-.21.81-.44,1.2-.67a.56.56,0,0,1,0,.12c1.47,1.58,3.93,4,6.63,6.65s4.3,5.37,6.65,7.55C281.82,341.14,285.81,345.62,287.74,347.12Z" />
    <path class="BUNTAI_PEACOCK_OUTFIT_PEACOCK_OUTFIT_27_g" d="M147,387.9a214.53,214.53,0,0,1,19.82-9.31c10.95-4.37,25.43-7.26,25.43-7.26a10.4,10.4,0,0,1,2.49-8.34c2.12-2.21,6-2.48,8.46-4.33a6.93,6.93,0,0,0,2.23-3.71,12.12,12.12,0,0,1,1.67-4c1.23-1.6,3.3-2.43,5.22-3.28s3.93-1.9,4.81-3.68a4.92,4.92,0,0,0,0-4.08,8.09,8.09,0,0,0-2.78-3.24,7.1,7.1,0,0,0-3.35-1.39,3.91,3.91,0,0,0-3.33,1.13,2.63,2.63,0,0,0-.29,3.07,3.18,3.18,0,0,0,3,1.4c-.29,1.54-2.27,2.51-4,2.53a5.19,5.19,0,0,1-4.21-2.26,6.83,6.83,0,0,1-1.06-4.48,8.39,8.39,0,0,1,.78-2.89,6.89,6.89,0,0,1,2.38-2.79,6.14,6.14,0,0,1,1-.54,11.24,11.24,0,0,1,7-.38,14.68,14.68,0,0,1,9.36,6.28,9.82,9.82,0,0,1,1.11,2.58,10,10,0,0,1,.25,4,8.88,8.88,0,0,1-1.55,3.83c-3,4.13-9.31,5.52-12,9.84-1,1.67-1.45,3.71-2.94,5.06-1.66,1.5-4.19,1.75-6.26,2.72a8.39,8.39,0,0,0-4.32,4.57,7.51,7.51,0,0,0,.38,6s-1.76.51-4.6,1.38c-4.11,1.25-10.49,3.25-17.15,5.59-1.52.53-3.06,1.08-4.59,1.65-4.56,1.68-9.05,3.47-12.82,5.23l-1.29.62-3.58,1.76c-4.66,2.29-8.24,4.08-10.89,5.2a20,20,0,0,1-3.61,1.26,3.15,3.15,0,0,1-1.77,0,1.28,1.28,0,0,1-.84-1c-.15-.57.47-1.39,1.64-2.39A67,67,0,0,1,147,387.9Z" />
    <path class="BUNTAI_PEACOCK_OUTFIT_PEACOCK_OUTFIT_27_g" d="M162.64,316.74h0c.67.48,1.37,1,2.09,1.47.39.27.78.54,1.18.8,1.61,1.07,3.3,2.13,5.05,3.12,1.31.75,2.66,1.46,4,2.12.55.27,1.11.53,1.67.78.85.38,1.69.73,2.53,1l1.69.6c7.68,2.54,16.82,4.44,21,7.1" />
    <path class="BUNTAI_PEACOCK_OUTFIT_PEACOCK_OUTFIT_27_g" d="M167.36,314c6,4.28,12.84,8.41,20.07,10.08,11.73,2.71,17.82,6.42,17.82,6.42" />
    <path class="BUNTAI_PEACOCK_OUTFIT_PEACOCK_OUTFIT_27_g" d="M143.36,336.74s-4.26,4-12.89,3.83-22.35,1.62-21,8.46a27,27,0,0,0,3.12,7.63s0,0,0,0l.24.43h0a52,52,0,0,1,3.36,6.58" />
    <path class="BUNTAI_PEACOCK_OUTFIT_PEACOCK_OUTFIT_27_g" d="M109.35,401.65a9.27,9.27,0,0,0,4.56-1.82h0a11.86,11.86,0,0,0,3.43-3.94c1-1.89-6.24-6.95-8.3-9.74-4-5.41-5.39-9-7.63-11.66A6.77,6.77,0,0,1,99.77,370a5.44,5.44,0,0,1,0-.57s0,0,0,0,0-.3,0-.46a4.21,4.21,0,0,1,.11-.58,1.74,1.74,0,0,1,.05-.22,2.24,2.24,0,0,1,.1-.37.21.21,0,0,1,0-.12,1.6,1.6,0,0,1,.1-.31.51.51,0,0,1,.07-.17,2.26,2.26,0,0,1,.15-.39c0-.11.09-.22.15-.33a8.48,8.48,0,0,1,1.55-2.21l.2-.21a3.73,3.73,0,0,1,.3-.26,3.54,3.54,0,0,1,.42-.35l.1-.07a2.42,2.42,0,0,1,.42-.29l.4-.25.26-.13.38-.18c2.92-1.28,7.21-.06,11.54,1.2a62.64,62.64,0,0,0,6.21,1.61c3.44.61,7.51-.39,10.37-1.37h0a34.85,34.85,0,0,0,3.57-1.43" />
    <path class="BUNTAI_PEACOCK_OUTFIT_PEACOCK_OUTFIT_27_g" d="M109,386.15a32,32,0,0,1-5.84,2.14c-.49.14-1,.26-1.54.37-.21,0,5.74,2.54,5.52,2.58s-.65.13-1,.18c-7.6,1.22-4.65,7.72-3.62,11.92s-2,8.4-4.28,10.76a1.49,1.49,0,0,0-.49,1,.76.76,0,0,0,0,.21.8.8,0,0,0,.07.2.78.78,0,0,0,.11.2,1.56,1.56,0,0,0,.16.2,1.84,1.84,0,0,0,.2.19c.06.06.14.11.21.17l0,0,.19.13a4.12,4.12,0,0,0,.47.25l.26.11.38.16a3.82,3.82,0,0,0,.36.13,12.26,12.26,0,0,0,1.28.37l.41.1.88.17h0l1,.16,1,.12c.6.07,1.23.13,1.88.16l.81,0,.57,0h1.56c3,0,6.66-.17,10.1-.33l1.32-.06.85,0,1.65-.09,1.55-.08,1.61-.08.51,0c.2,0,.38,0,.57,0h.45l.5,0,.66,0h.21l.49,0h.3l.66,0a39.58,39.58,0,0,1,5.31.27" />
    <path class="BUNTAI_PEACOCK_OUTFIT_PEACOCK_OUTFIT_27_g" d="M129.34,401.65s-4.53-10.87-3.15-11.79c.88-.57,5.63,7.41,9,13.42" />
    <path class="BUNTAI_PEACOCK_OUTFIT_PEACOCK_OUTFIT_27_g" d="M148.77,346.58c.1-.54,2.47-11.43,10-11.36,7.75.07,10.84,15.1,4.43,27.09A80.77,80.77,0,0,1,146.63,383s.18,3,.36,4.94" />
    <path class="BUNTAI_PEACOCK_OUTFIT_PEACOCK_OUTFIT_27_g" d="M140.23,381c4.28-4.18,11.22-11.37,15.91-18.45,7.24-10.9,6-23.16.3-22.82-5.5.33-7.55,6.5-7.67,6.89a0,0,0,0,0,0,0" />
    <path class="BUNTAI_PEACOCK_OUTFIT_PEACOCK_OUTFIT_27_g" d="M156.89,323.68l.05.05a45.54,45.54,0,0,0,10.86,8.78" />
    <path class="BUNTAI_PEACOCK_OUTFIT_PEACOCK_OUTFIT_27_g" d="M156.4,353.7c-.78,3.42-2.67,6.15-4.23,6.08s-2.21-2.9-1.43-6.32,2.66-6.15,4.22-6.08S157.16,350.27,156.4,353.7Z" />
    <path class="BUNTAI_PEACOCK_OUTFIT_PEACOCK_OUTFIT_27_g" d="M119.73,417.91a106.48,106.48,0,0,0,14-10.93" />
    <path class="BUNTAI_PEACOCK_OUTFIT_PEACOCK_OUTFIT_27_g" d="M265.59,324.06c-.39.23-.79.46-1.2.67s-.83.45-1.26.66l-1.19.58c-.49.24-1,.48-1.52.71-5.7,2.55-12.49,4.45-15.6,7.1" />
    <path class="BUNTAI_PEACOCK_OUTFIT_PEACOCK_OUTFIT_27_g" d="M262.18,320.92,262,321a30.06,30.06,0,0,1-6.45,3c-8.71,2.71-13.22,6.42-13.22,6.42" />
    <path class="BUNTAI_PEACOCK_OUTFIT_PEACOCK_OUTFIT_27_g" d="M272.18,330.83c-.71.59-1.42,1.16-2.06,1.68,0,0-9.63,6.29-16.21,7.85" />
    <path class="BUNTAI_PEACOCK_OUTFIT_PEACOCK_OUTFIT_27_g" d="M294.78,393.53c0-.11-.06-.22-.1-.33h0c-.14-.47-.28-.94-.43-1.4-.24-.72-.48-1.44-.74-2.15-.1-.3-.21-.59-.32-.88s-.32-.83-.49-1.24c0,0-2.5-18.38-8.48-31a33,33,0,0,0,1.72-3.91c1-2.75,1.42-3.2,1.8-5.51" />
    <path class="BUNTAI_PEACOCK_OUTFIT_PEACOCK_OUTFIT_27_g" d="M136,397.67a45.11,45.11,0,0,0-.7,4.8l0,.3c0,.17,0,.34,0,.51-.08,1.23-.11,2.46-.08,3.69,0,.78.06,1.57.13,2.35a.34.34,0,0,0,0,.1c0,.27.05.54.08.81s.07.6.12.89a.25.25,0,0,0,0,.08,3.89,3.89,0,0,0,.08.51,4.5,4.5,0,0,0,.08.51c.05.33.12.67.19,1s.12.6.19.89.18.73.28,1.09c.21.75.45,1.49.72,2.21.05.15.11.29.16.43s.11.27.17.4a31.08,31.08,0,0,0,7.43,10.59,76.64,76.64,0,0,0,10,7.67s47.37,11.39,64.49-3.91c19.33,7.31,41.45,13.24,57.68,3.91a76.64,76.64,0,0,0,10-7.67,30.69,30.69,0,0,0,7.6-11,31.53,31.53,0,0,0,2-9.57" />
    <path class="BUNTAI_PEACOCK_OUTFIT_PEACOCK_OUTFIT_27_g" d="M136.81,394.28c.11-.4.22-.79.34-1.18l0-.09c.07-.25.15-.5.23-.75l0-.06c0-.08,0-.16.07-.24s.14-.46.22-.68l.12-.35c.14-.41.28-.82.43-1.22,0-.07,0-.13.07-.2l.3-.8c.1-.27.21-.54.31-.8h0s0-.12.07-.18v0h0v0a1.21,1.21,0,0,0,0-.14s.05-.31.13-.88l0-.16c0-.05,0-.09,0-.14l.05-.31h0l0-.16,0-.17v0a2.51,2.51,0,0,1,0-.27c0-.19.07-.4.1-.61h0q0-.25.09-.54l0-.18c.07-.36.13-.74.21-1.15,0-.2.07-.4.11-.61.08-.42.16-.87.25-1.33h0l.06-.28.1-.51v0h0a.13.13,0,0,1,0-.06c.07-.39.15-.78.24-1.19l.09-.45.06-.27c0-.2.08-.4.13-.61s0-.25.08-.38.1-.47.16-.71c.27-1.19.56-2.44.89-3.73,0-.06,0-.13.05-.19.15-.65.33-1.3.51-2s.42-1.54.65-2.32.42-1.44.65-2.16.54-1.69.83-2.52h0c.17-.48.33-1,.51-1.44.09-.26.18-.52.29-.77a.88.88,0,0,1,.05-.15l0-.12a1.34,1.34,0,0,1,.07-.18l.12-.3a1.17,1.17,0,0,1,.09-.24c.07-.2.15-.41.24-.61a.61.61,0,0,1,0-.12l.23-.56c.07-.19.15-.37.23-.55q.42-1,.87-1.95h0a40.19,40.19,0,0,1-4.21-19.8l12.7-9.71,0-2.47" />
    <path class="BUNTAI_PEACOCK_OUTFIT_PEACOCK_OUTFIT_27_g" d="M119.85,349.85s18-4.4,23.51-13.1" />
    <path class="BUNTAI_PEACOCK_OUTFIT_PEACOCK_OUTFIT_27_g" d="M137.36,418.24h0a474.16,474.16,0,0,1,50.35-22.89c30.1-11.78,64.32-15,64.32-15a17.56,17.56,0,0,0,1.17-5.28,4.59,4.59,0,0,0-1.23-3.71c.07-3-.26-6.11-1.84-8.34s-4.43-2.48-6.29-4.33A7.71,7.71,0,0,1,242.2,355a14.64,14.64,0,0,0-1.24-4,9.57,9.57,0,0,0-3.88-3.28,7.46,7.46,0,0,1-3.56-3.68,6.47,6.47,0,0,1,0-4.08,7.78,7.78,0,0,1,2.06-3.24,4.64,4.64,0,0,1,2.48-1.39,2.51,2.51,0,0,1,2.48,1.13,3.39,3.39,0,0,1,.21,3.07,2.2,2.2,0,0,1-2.21,1.4,3.07,3.07,0,0,0,2.94,2.53,3.73,3.73,0,0,0,3.12-2.26,8.78,8.78,0,0,0,.78-4.48,10.66,10.66,0,0,0-.57-2.89,6.83,6.83,0,0,0-1.77-2.79,4.51,4.51,0,0,0-.72-.54,6.34,6.34,0,0,0-5.19-.38,11.4,11.4,0,0,0-6.95,6.28,11.6,11.6,0,0,0-.82,2.58,13.44,13.44,0,0,0-.19,4,10.59,10.59,0,0,0,1.15,3.83c2.22,4.13,6.92,5.52,8.89,9.84.76,1.67,1.07,3.71,2.18,5.06s3.11,1.75,4.65,2.72a7.86,7.86,0,0,1,3.2,4.57,9.86,9.86,0,0,1-.28,6,395.2,395.2,0,0,0-48.57,10.27q-2.55.74-5.08,1.51a193.59,193.59,0,0,0-18.45,6.59c-1.43.61-2.83,1.22-4.2,1.85-5.11,2.38-9.54,4.52-13.36,6.44q-2.33,1.17-4.35,2.22c-4.68,2.44-8.25,4.46-11,6.08-2.15,1.29-3.75,2.34-4.91,3.14a25.62,25.62,0,0,0-2.78,2.11" />
    <line class="BUNTAI_PEACOCK_OUTFIT_PEACOCK_OUTFIT_27_g" x1="229.18" y1="342.94" x2="222.96" y2="342.94" />
    <line class="BUNTAI_PEACOCK_OUTFIT_PEACOCK_OUTFIT_27_g" x1="229.37" y1="338.94" x2="222.71" y2="338.94" />
    <path class="BUNTAI_PEACOCK_OUTFIT_PEACOCK_OUTFIT_27_g" d="M288.76,393.41a9.34,9.34,0,0,1-.88,7.06,10.18,10.18,0,0,1-2.95,3.29,11.49,11.49,0,0,1-6.76,2.15c-6,0-10.92-4.48-10.92-10a9.62,9.62,0,0,1,3.35-7.22,11.39,11.39,0,0,1,7.57-2.8h.21a11,11,0,0,1,9.76,5.93A9.23,9.23,0,0,1,288.76,393.41Z" />
    <path class="BUNTAI_PEACOCK_OUTFIT_PEACOCK_OUTFIT_27_g" d="M284.22,356.55s-2.51-5.22-7.08-4.07-12,9.89-12,9.89A144.17,144.17,0,0,0,278.47,375c6.7,5.55,10.24,12,9.67,16.76" />
    <path class="BUNTAI_PEACOCK_OUTFIT_PEACOCK_OUTFIT_27_g" d="M285.94,352.63c-5.36-8.86-19.35-1.7-30.12,7.78.52,1.46,2.05,3.34,4.06,5.39,4.2,4.28,10.47,9.32,13.86,12.89,3.11,3.27,4.23,5.76,4.64,7.18" />
    <polyline class="BUNTAI_PEACOCK_OUTFIT_PEACOCK_OUTFIT_27_g" points="251.99 371.33 254.18 369.8 259.88 365.8" />
    <path class="BUNTAI_PEACOCK_OUTFIT_PEACOCK_OUTFIT_27_g" d="M253.21,375c7.09,2.71,14.27,10.13,17.39,13.63" />
    <path class="BUNTAI_PEACOCK_OUTFIT_PEACOCK_OUTFIT_27_g" d="M254.18,369.8s11.23,7.81,14.91,13" />
    <path class="BUNTAI_PEACOCK_OUTFIT_PEACOCK_OUTFIT_27_g" d="M299.44,401s3.17-.48,12.39-5.83a16.76,16.76,0,0,0,5.73-5.31c3.14-4.83,2.52-10,1-10.87-2.14-1.22-5.1,2-5.1,2s-2.06,7.31-18.73,10.63c-6,1.19,3.49,1.69.06,1.85a40.88,40.88,0,0,1-6-.13" />
    <path class="BUNTAI_PEACOCK_OUTFIT_PEACOCK_OUTFIT_27_g" d="M284.93,403.76h0c3.37,1.51,7.4,3.07,11.66,4.51,9.56,3.26,6.14,6,12.58,6.24,10.62.48,18-7,18.74-10.83a8.6,8.6,0,0,1-1.92-1.1,49.34,49.34,0,0,1-7.16-7s.59-4.4.37-4.74a6.72,6.72,0,0,0-1.65-1" />
    <path class="BUNTAI_PEACOCK_OUTFIT_PEACOCK_OUTFIT_27_g" d="M317.67,402.66s-7,4.06-21.71,2.78c-5-.44,4.47-1.33.59-2.3a89.48,89.48,0,0,1-8.67-2.67" />
    <path class="BUNTAI_PEACOCK_OUTFIT_PEACOCK_OUTFIT_27_g" d="M196.3,375s1.43,6.22,4.1,10.27" />
    <path class="BUNTAI_PEACOCK_OUTFIT_PEACOCK_OUTFIT_27_g" d="M191.7,376.37s1,6.32,3.62,10.4" />
    <path class="BUNTAI_PEACOCK_OUTFIT_PEACOCK_OUTFIT_27_g" d="M174.55,382a20.26,20.26,0,0,0,2.32,11.4" />
    <path class="BUNTAI_PEACOCK_OUTFIT_PEACOCK_OUTFIT_27_g" d="M170,383.61a18.66,18.66,0,0,0,2.71,11.6" />
    <path class="BUNTAI_PEACOCK_OUTFIT_PEACOCK_OUTFIT_27_g" d="M157.14,388.84a22.46,22.46,0,0,0,2.17,12.81" />
    <path class="BUNTAI_PEACOCK_OUTFIT_PEACOCK_OUTFIT_27_g" d="M152.27,391.21h0c0,.27-.24,8.54,2.69,12.65" />
    <path class="BUNTAI_PEACOCK_OUTFIT_PEACOCK_OUTFIT_27_g" d="M141.38,396.42A24.72,24.72,0,0,0,144,410" />
    <path class="BUNTAI_PEACOCK_OUTFIT_PEACOCK_OUTFIT_27_g" d="M137.77,397.68a32.2,32.2,0,0,0-.07,10h0a26.9,26.9,0,0,0,1.4,5.4" />
    <path class="BUNTAI_PEACOCK_OUTFIT_PEACOCK_OUTFIT_27_g" d="M156.09,324.57s0,0,0,0c.27-.29.54-.58.8-.88,2-2.28,4-4.68,5.75-6.93h0c-.62-4.06,2.51-4.29,4.72-2.78" />
    <path class="BUNTAI_PEACOCK_OUTFIT_PEACOCK_OUTFIT_27_g" d="M287.74,347.13h0c-1.93-1.5-5.92-6-8.91-8.74-2.35-2.18-4.06-5.05-6.65-7.55s-5.16-5.07-6.63-6.65a.56.56,0,0,0,0-.12c0-3.94-3.16-3.15-3.41-3.14h0" />
    <g class="BUNTAI_PEACOCK_OUTFIT_PEACOCK_OUTFIT_27_h">
      <path d="M136.8,361.56a17.41,17.41,0,0,1-4,2.39,18.69,18.69,0,0,1-3.07,1,21.93,21.93,0,0,1-13.51-1.28,52,52,0,0,0-3.36-6.58c.58.85,2.46,2.67,8,3.68A65,65,0,0,0,133.47,362Z" />
      <path d="M113.91,399.83h0a39.72,39.72,0,0,0-5.36-8.29,19.34,19.34,0,0,0-5.35-3.25,32,32,0,0,0,5.84-2.14c-4-5.41-5.39-9-7.63-11.66A6.77,6.77,0,0,1,99.77,370a5.44,5.44,0,0,1,0-.57s0,0,0,0,0-.3,0-.46a4.21,4.21,0,0,1,.11-.58,1.74,1.74,0,0,1,.05-.22,2.54,2.54,0,0,1,.1-.37.21.21,0,0,1,0-.12,1.6,1.6,0,0,1,.1-.31.51.51,0,0,1,.07-.17l.15-.39a36.57,36.57,0,0,0,4.82,3.36c4.94,2.91,8.5,11.16,9.53,17.53A28.42,28.42,0,0,1,113.91,399.83Z" />
      <path d="M135.53,403.19s-8.33-13.53-8.94-13.24,4,14.87,4,14.87-.8-7,.45-5.89,1.06,15,6.17,18.91C134.43,412.34,135.53,403.19,135.53,403.19Z" />
      <polyline class="BUNTAI_PEACOCK_OUTFIT_PEACOCK_OUTFIT_27_i" points="131.21 409.28 130.65 409.76 130.16 410.17 121.06 417.85" />
      <path d="M102.87,417.72h0c3.15-.8,7.26-1.81,10.75-2.61,6.65-1.51,16.93-5.57,17.57-5.83h0Z" />
      <path d="M147.58,356.55s-6.88,8.56-13.19,12.72a56,56,0,0,1-14.54,6.3s13.24-2.23,17.93-5.89a63.45,63.45,0,0,0,7-6.13Z" />
      <path d="M189.91,341.17C170.8,338.67,156.07,327,156.07,327l0-2.47c.27-.29.54-.58.8-.88l.05.05c.62.64,1.31,1.32,2.05,2.07C165.86,332.64,181.87,339,189.91,341.17Z" />
      <path d="M296.6,408.27a31.53,31.53,0,0,1-2,9.57,30.69,30.69,0,0,1-7.6,11,76.64,76.64,0,0,1-10,7.67c-16.23,9.33-38.35,3.4-57.68-3.91-17.12,15.3-64.49,3.91-64.49,3.91a76.64,76.64,0,0,1-10-7.67,31.08,31.08,0,0,1-7.43-10.59c-.06-.13-.12-.27-.17-.4l.55.19c4.27,1.45,32.85,10.9,50.9,10.16a106.7,106.7,0,0,0,33.88-6.91s33,13.73,65.35-2.79C293.85,415.39,296.6,408.27,296.6,408.27Z" />
      <path d="M327.92,403.68c-.74,3.79-8.12,11.31-18.74,10.83-6.44-.28-3-3-12.58-6.24l-9.24-7L287,401l.88-.57,0,0c.82.37,1.52,6.81,12.89,5.42l1.73-.23h0a80.4,80.4,0,0,0,19-5.21s-2.59,5.84-8,6.93a35.21,35.21,0,0,1-11.38,0s-.05,5.68,10.65,3.31A24.88,24.88,0,0,0,326,402.58,8.6,8.6,0,0,0,327.92,403.68Z" />
      <path d="M277.08,385.92s-4.66,4-5.12,8.37,5.73,10,13.85,8.76c-3.17,3.13-12.39,4.77-16.71-1.81S268.61,387.43,277.08,385.92Z" />
      <path d="M270,357.28s7.83,6.25,11.29,11.29c-3.39-7.76-4.75-11-4.75-11s6.38,7.74,9.25,14.84,6.87,21.19,6.87,21.19l-3.65-.15-1-1.64s.06-5.87-3.48-10.2-17.47-15.73-19-19.14A58.49,58.49,0,0,1,270,357.28Z" />
      <path d="M234.66,382.79s-10.52,7.6-15.83,9.84a222.09,222.09,0,0,0-54,19.82s20.64-13,32.16-17.34a180.06,180.06,0,0,1,20-6.27l1.18-2.71Z" />
      <path d="M217.12,344s-2.79,5.09-6.48,7.4-3.34,6.36-5.39,7.72a51.86,51.86,0,0,1-6.9,3.34c-.33.11-4.84,2.07-4.84,2.07s1.93-2.88,7.5-4.33a12,12,0,0,0,5-7.19c.62-2.63,2-4.12,5.05-5.1S215.56,345.34,217.12,344Z" />
      <path d="M141.29,339.29s-9.94,6.21-17.75,7.48S113.47,349,113.47,349a33.8,33.8,0,0,0,11.17-.6C129.69,347,137.41,343.94,141.29,339.29Z" />
      <path d="M158.56,340.25a14,14,0,0,1,3.94,13.33C160.62,362,146,378.8,145,380.13s-2.34,9.82-2.34,9.82l-5.44,3.41,1.8-5.46,1.39-7.77s15.21-12.75,19.12-24.47C161.35,349.16,161.59,343.05,158.56,340.25Z" />
      <path d="M153.45,348.07s-1.24,5.56-.58,7.86,1.42,2.51,1.42,2.51-2.54,3.32-3.6,0S153.45,348.07,153.45,348.07Z" />
    </g>
  </g>
</svg>