<svg xmlns="http://www.w3.org/2000/svg" viewBox="0 0 432 432">
  <defs>
    <style>.BUNTAI_PEACOCK_OUTFIT_PEACOCK_OUTFIT_24_a{isolation:isolate;}.BUNTAI_PEACOCK_OUTFIT_PEACOCK_OUTFIT_24_b{fill:#131223;}.BUNTAI_PEACOCK_OUTFIT_PEACOCK_OUTFIT_24_c{fill:#eebe90;}.BUNTAI_PEACOCK_OUTFIT_PEACOCK_OUTFIT_24_d{fill:#0f0f18;}.BUNTAI_PEACOCK_OUTFIT_PEACOCK_OUTFIT_24_e{fill:#1b1b24;}.BUNTAI_PEACOCK_OUTFIT_PEACOCK_OUTFIT_24_f{fill:#8d1926;}.BUNTAI_PEACOCK_OUTFIT_PEACOCK_OUTFIT_24_g{fill:#fff;}.BUNTAI_PEACOCK_OUTFIT_PEACOCK_OUTFIT_24_h{fill:none;stroke:#000;stroke-linecap:round;stroke-linejoin:round;stroke-width:1.36px;}.BUNTAI_PEACOCK_OUTFIT_PEACOCK_OUTFIT_24_i{opacity:0.43;mix-blend-mode:multiply;}</style>
  </defs>
  <g class="BUNTAI_PEACOCK_OUTFIT_PEACOCK_OUTFIT_24_a">
    <path class="BUNTAI_PEACOCK_OUTFIT_PEACOCK_OUTFIT_24_b" d="M230.9,410a1.62,1.62,0,0,0,2-.16l.94-.95c0,1.95-2,5.43-5.32,8.82s-7,5.71-9.28,6h-.05a1.09,1.09,0,0,0-.46-1.23l0,0a1.64,1.64,0,0,0-1.68-.07c0-1.95,2-5.62,5.31-9s7-5.71,9.29-6l-.92.94A1.08,1.08,0,0,0,230.9,410Z" />
    <path class="BUNTAI_PEACOCK_OUTFIT_PEACOCK_OUTFIT_24_c" d="M239.3,403.34a12.4,12.4,0,0,1-1.31-.87,9.77,9.77,0,0,1-.82-.74l-.39.39-.19.2h0l0,0L233.92,405a5.78,5.78,0,0,0-1.93-.26c-3.85.11-8.7,3.69-12,7-4,4.1-7.47,9.72-5.23,12.82l-1.68,1.71a5.73,5.73,0,0,0-2-.28c-3.85.1-8.7,3.68-12,7-2.81,2.87-5.34,6.48-5.82,9.45,1.05-.13,2.09-.25,3.11-.35a21.21,21.21,0,0,1,5-7.48c3.33-3.39,7-5.71,9.28-6l0,0-.94,1a1.08,1.08,0,0,0,.19,1.69h0a1.61,1.61,0,0,0,2-.16l.91-.92c0,2-2,5.4-5.31,8.74a33.21,33.21,0,0,1-2.52,2.31c1.55-.14,3-.25,4.5-.35l.33-.33a26.44,26.44,0,0,0,5.11-6.95c1.33-2.85,1-4.66.2-5.78l1.73-1.76a6,6,0,0,0,1.86.24c3.84-.11,8.68-3.69,11.94-7a26.35,26.35,0,0,0,5.1-6.94c1.36-2.9,1-4.71.19-5.83l2.68-2.74Zm-10.77,14.37c-.26.27-.52.53-.79.77l-.69.65c-.35.31-.69.61-1.05.9a1.73,1.73,0,0,1-.21.17c-.57.47-1.13.89-1.68,1.27a4.53,4.53,0,0,1-.46.3c-.46.31-.91.58-1.35.82l-.56.3-.55.25a1.59,1.59,0,0,1-.27.12,5.27,5.27,0,0,1-.51.19.81.81,0,0,1-.25.08l-.24.08a4.24,4.24,0,0,1-.46.1l-.21,0h-.05a1.09,1.09,0,0,0-.46-1.23l0,0a1.66,1.66,0,0,0-1.68-.07c0-1.94,2-5.62,5.31-9s7-5.71,9.29-6l-.92.94a1.09,1.09,0,0,0,.18,1.7,1.62,1.62,0,0,0,2-.16l.94-.95C233.89,410.84,231.86,414.32,228.53,417.71Z" />
    <path class="BUNTAI_PEACOCK_OUTFIT_PEACOCK_OUTFIT_24_b" d="M210.1,431.3a1.61,1.61,0,0,0,2-.16l.91-.92c0,2-2,5.4-5.32,8.74a31.31,31.31,0,0,1-2.51,2.31q-4.1.35-8.7.85a21.31,21.31,0,0,1,5-7.48c3.33-3.39,7-5.71,9.28-6l0,0-.94,1a1.08,1.08,0,0,0,.19,1.69Z" />
    <path class="BUNTAI_PEACOCK_OUTFIT_PEACOCK_OUTFIT_24_d" d="M280.29,336.37h0L278.94,335s2.52-1.9,5.28,1l-1.2,3a67.47,67.47,0,0,1-4.47,8.73c-3.17,5.27-17.84,24.78-34.66,37.81-3.59,2.94-5.62,6.56-5.57,9.94a5.86,5.86,0,0,0,2.13,4.68,8.73,8.73,0,0,0,6.16,1.59c4.27-.36,8.78-3.11,12.67-7.73,7.26-8.6,28.55-32,41.73-39.07.31-.17.61-.33.91-.47l2.42-1.13c1.59,1.58,2.35,3.36,1.49,5.37l-2.08-1.62c-11.65,5.78-32.67,28.2-41.52,38.69-8.16,9.66-17.48,10.55-22.93,7.47a10.22,10.22,0,0,1-1.31-.86,9.77,9.77,0,0,1-.82-.74c-4.23-4.28-3.16-12.3,4.23-18.33,16-12.34,30.41-31.14,33.92-37A61.62,61.62,0,0,0,280.29,336.37Z" />
    <path class="BUNTAI_PEACOCK_OUTFIT_PEACOCK_OUTFIT_24_e" d="M304,353.13c-.1-.1-.21-.19-.32-.28l-.28-.24c-.25-.2-.51-.41-.79-.6h0v0h0c-.32-.23-.64-.44-1-.67-1.1-.71-2.32-1.38-3.56-2-.41-.21-.83-.44-1.24-.7a36,36,0,0,1-7.2-5.95,45.33,45.33,0,0,1-4.54-5.53,9.49,9.49,0,0,0-.88-1.08l-1.2,3a68.81,68.81,0,0,1-4.47,8.73l-.19.31-.21.33c-.06.11-.14.23-.22.35l-.2.3c-.27.42-.59.88-.94,1.38-.1.16-.22.32-.33.48-.41.59-.87,1.22-1.36,1.9-.1.13-.2.27-.31.4-1,1.32-2.1,2.79-3.35,4.38l-.48.6-.57.71-.59.73-1.23,1.49-.54.65c-1.52,1.81-3.15,3.7-4.9,5.63l-1.72,1.88-1.26,1.34c-1,1-2,2.06-3,3.09l-1,1c-1.88,1.86-3.83,3.71-5.83,5.49l-1.28,1.12-1.27,1.1-1.2,1c-.9.74-1.79,1.46-2.7,2.16-3.59,2.94-5.62,6.56-5.57,9.94a5.83,5.83,0,0,0,2.14,4.68,8.69,8.69,0,0,0,6.15,1.59c4.27-.36,8.78-3.11,12.67-7.73.48-.57,1-1.19,1.62-1.88.25-.3.51-.59.78-.9,1.42-1.62,3.09-3.5,4.95-5.53l1-1.09c2.13-2.3,4.46-4.77,6.92-7.28l.48-.49a2.72,2.72,0,0,1,.24-.24l1-1,0-.05.05,0a.23.23,0,0,1,.05-.05h0c2.44-2.46,5-4.92,7.52-7.27.4-.37.8-.74,1.21-1.1s.69-.64,1-.95l1.14-1,1.12-1,1.49-1.27c.62-.52,1.24-1,1.85-1.52l1.09-.86c.46-.37.92-.72,1.38-1.07A54.54,54.54,0,0,1,301,355c.3-.17.61-.33.91-.48l2.42-1.12ZM246.73,398c-2.21,0-4-1.51-4-3.39s1.8-3.38,4-3.38,4,1.51,4,3.38S248.94,398,246.73,398Zm7.38-9.84a1.53,1.53,0,1,1,0-3,1.53,1.53,0,1,1,0,3Zm15.12-19.43c2.21,0,4,1.52,4,3.39s-1.8,3.39-4,3.39-4-1.52-4-3.39S267,368.71,269.23,368.71ZM260,381.51l-.08-.05a.41.41,0,0,1-.11-.07,1.63,1.63,0,0,1-.38-.36.86.86,0,0,1-.1-.16.72.72,0,0,1-.09-.2.79.79,0,0,1-.06-.22,1.64,1.64,0,0,1,0-.22,1.36,1.36,0,0,1,.09-.48,1.19,1.19,0,0,1,.08-.16.42.42,0,0,1,.08-.12,1.1,1.1,0,0,1,.14-.18s0,0,0,0a.93.93,0,0,1,.18-.16h0l.1-.07.09-.06a1.46,1.46,0,0,1,.36-.16l.22-.05.08,0a1.87,1.87,0,0,1,.34,0,1.53,1.53,0,1,1,0,3h-.21l-.19,0-.2-.05-.18-.06ZM277.14,365a1.7,1.7,0,0,1-1.84-1.47,1.66,1.66,0,0,1,1.75-1.55,1.69,1.69,0,0,1,1.83,1.47A1.65,1.65,0,0,1,277.14,365Zm6.64-6.55a1.7,1.7,0,0,1-1.84-1.47,1.66,1.66,0,0,1,1.74-1.55,1.7,1.7,0,0,1,1.84,1.47A1.65,1.65,0,0,1,283.78,358.46Zm7.92-7.91a1.09,1.09,0,0,1-.08.15.7.7,0,0,1-.1.16l0,0a2.28,2.28,0,0,1-.22.22l0,0-.12.08s-.06,0-.08.06l-.2.1a1.19,1.19,0,0,1-.22.08,1.73,1.73,0,0,1-.56.09,1.7,1.7,0,0,1-1.84-1.46v0a1.1,1.1,0,0,1,0-.18.8.8,0,0,1,0-.15l0-.11,0-.12a2,2,0,0,1,.17-.27.53.53,0,0,1,.1-.12l.11-.1a1.64,1.64,0,0,1,.25-.19l.15-.07a.59.59,0,0,1,.14-.06,1.73,1.73,0,0,1,.46-.12l.24,0a1.68,1.68,0,0,1,1.83,1.47v.1a.88.88,0,0,1,0,.16.79.79,0,0,1-.06.22h0S291.7,350.53,291.7,350.55Z" />
    <path class="BUNTAI_PEACOCK_OUTFIT_PEACOCK_OUTFIT_24_b" d="M319.33,368.84a56.07,56.07,0,0,1-21.39,27.36c0,.28-.06.55-.1.82-.07.44-.16.88-.26,1.32l-.11.41c-.07.25-.15.5-.24.73a.21.21,0,0,1,0,.11,2.74,2.74,0,0,1-.15.4.42.42,0,0,1,0,.1c-.05.13-.11.26-.17.38a2.29,2.29,0,0,1-.1.23l-.24.44a2,2,0,0,1-.14.23,5,5,0,0,1-.29.45,37.85,37.85,0,0,1,.45,5.8c0,.18,0,.37,0,.58v.1l0,.79c0,.27,0,.54,0,.82s-.05.64-.09,1c0,.14,0,.28,0,.43s0,.32-.06.48a.34.34,0,0,0,0,.1c0,.2-.06.41-.08.62l-.12.71a30,30,0,0,1-3,9c-3,5.64-8.1,11.12-16.45,15.8-14.36,4.72-22.06,3.46-36,2.68a234.21,234.21,0,0,0-30.92.24l.33-.33a26.44,26.44,0,0,0,5.11-6.95c1.33-2.85,1-4.66.2-5.78l1.73-1.76a6,6,0,0,0,1.86.24c3.84-.11,8.68-3.69,11.94-7a26.35,26.35,0,0,0,5.1-6.94c1.36-2.9,1-4.71.19-5.83l2.68-2.74.48-.48a13.31,13.31,0,0,0,7.61,1.52,17.27,17.27,0,0,0,5.14-1.25l.12,0a26.66,26.66,0,0,0,10.06-7.71c3.28-3.89,8.24-9.43,13.77-15.15,9.38-9.69,20.43-19.91,27.76-23.54l2.07,1.62h0c2.11,1.64,4.32,3.38,6.81,5.39A52.5,52.5,0,0,0,319.33,368.84Z" />
    <path class="BUNTAI_PEACOCK_OUTFIT_PEACOCK_OUTFIT_24_b" d="M280.29,336.37a61.62,61.62,0,0,1-5,10.06c-2.4,4-9.92,14-19.54,23.95l-.06.06a139.46,139.46,0,0,1-14.32,13,21.65,21.65,0,0,0-3.08,3,19.66,19.66,0,0,0-1.46,2c-.1.16-.19.32-.28.48l0,0a14.12,14.12,0,0,0-1.11,2.38c-1.43,4-.79,7.83,1.72,10.37l-.39.39-.19.2h0L233.92,405a5.78,5.78,0,0,0-1.93-.26c-3.85.11-8.7,3.69-12,7-4,4.1-7.47,9.72-5.23,12.82l-1.68,1.71a5.73,5.73,0,0,0-2-.28c-3.85.1-8.7,3.68-12,7-2.81,2.87-5.34,6.48-5.82,9.45-1.11.13-2.25.26-3.41.41a100.66,100.66,0,0,1-21.3.55,62.75,62.75,0,0,1-18.52-4.17l-.08,0a22,22,0,0,1-2.54-1.22c-1.29-.72-2.5-1.46-3.64-2.23l0,0a.11.11,0,0,1,0-.05l.1-.23a.58.58,0,0,1,.06-.15c0-.13.11-.28.19-.46s.09-.22.15-.34l.18-.4c.06-.14.14-.28.21-.44a64.14,64.14,0,0,1,4.57-7.82c.21-.31.42-.63.65-1a96.29,96.29,0,0,1,5.94-7.64c.12-.13.24-.28.37-.41,1.87-2.16,4-4.43,6.43-6.79l.35-.34,1-1,2.07-1.92.19-.16c1-.9,2-1.81,3.11-2.72l1.1-.92c.36-.31.74-.61,1.12-.92.75-.61,1.53-1.23,2.33-1.85l1.21-.93,1.23-.94,1.28-.93c.41-.31.84-.62,1.26-.92l1.45-1,1.28-.88,1.17-.8c.39-.26.78-.53,1.18-.78l1.92-1.26c8.71-5.58,21.59-11.57,35.34-18.5l3.13-1.59,1.66-.85,1.61-.83,1.61-.84,1.43-.75.23-.12c1.32-.7,2.65-1.41,4-2.13l.67-.36,2.25-1.25q1-.54,2-1.11l.68-.39c.53-.29,1.06-.6,1.59-.91,2.59-1.5,5.16-3,7.67-4.64.56-.34,1.11-.69,1.66-1.05l2.18-1.43,2-1.36.38-.27c.54-.37,1.08-.74,1.61-1.12.79-.56,1.57-1.12,2.35-1.7.62-.45,1.22-.9,1.82-1.36l.66-.52c.45-.34.9-.69,1.34-1.05a2.92,2.92,0,0,0,.29-.23c.63-.5,1.26-1,1.88-1.53s1.11-.93,1.65-1.4,1.08-.93,1.59-1.4l.06-.05c.52-.47,1-.93,1.51-1.4q2.64-2.48,5-5.09c.37-.41.73-.82,1.09-1.24l0,0,1.06-1.26.31.32.63.63,1.33,1.36Z" />
    <path class="BUNTAI_PEACOCK_OUTFIT_PEACOCK_OUTFIT_24_c" d="M290,348.56a1.66,1.66,0,0,0-1.75,1.55,1.7,1.7,0,0,0,1.84,1.46,1.64,1.64,0,0,0,1.74-1.54A1.68,1.68,0,0,0,290,348.56Z" />
    <path class="BUNTAI_PEACOCK_OUTFIT_PEACOCK_OUTFIT_24_c" d="M277.05,362a1.65,1.65,0,0,0-1.74,1.55,1.68,1.68,0,0,0,1.83,1.47,1.65,1.65,0,0,0,1.74-1.55A1.69,1.69,0,0,0,277.05,362Z" />
    <path class="BUNTAI_PEACOCK_OUTFIT_PEACOCK_OUTFIT_24_c" d="M246.73,391.21c-2.22,0-4,1.51-4,3.38s1.8,3.39,4,3.39,4-1.52,4-3.39S248.94,391.21,246.73,391.21Z" />
    <path class="BUNTAI_PEACOCK_OUTFIT_PEACOCK_OUTFIT_24_c" d="M283.69,355.44a1.66,1.66,0,0,0-1.75,1.55,1.7,1.7,0,0,0,1.84,1.47,1.65,1.65,0,0,0,1.74-1.55A1.69,1.69,0,0,0,283.69,355.44Z" />
    <path class="BUNTAI_PEACOCK_OUTFIT_PEACOCK_OUTFIT_24_c" d="M293.75,340.86a5.39,5.39,0,0,0-4.11,1.78,36.36,36.36,0,0,0,7.2,5.95,4.08,4.08,0,0,0,2-3.42C298.86,342.8,296.57,340.86,293.75,340.86Z" />
    <path class="BUNTAI_PEACOCK_OUTFIT_PEACOCK_OUTFIT_24_c" d="M260.94,378.72a1.53,1.53,0,1,0,1.78,1.51A1.66,1.66,0,0,0,260.94,378.72Z" />
    <path class="BUNTAI_PEACOCK_OUTFIT_PEACOCK_OUTFIT_24_c" d="M254.11,385.12a1.53,1.53,0,1,0,0,3,1.53,1.53,0,1,0,0-3Z" />
    <path class="BUNTAI_PEACOCK_OUTFIT_PEACOCK_OUTFIT_24_c" d="M269.23,368.71c-2.22,0-4,1.52-4,3.39s1.79,3.38,4,3.38,4-1.51,4-3.38S271.44,368.71,269.23,368.71Z" />
    <path class="BUNTAI_PEACOCK_OUTFIT_PEACOCK_OUTFIT_24_f" d="M333.66,373.51c-3,16.24-17.5,31.35-37.6,39.71h0l.12-.71c0-.24.06-.48.09-.72a31.44,31.44,0,0,0,.26-3.59c0-.21,0-.4,0-.58a37.85,37.85,0,0,0-.45-5.8,5,5,0,0,0,.29-.45A8.89,8.89,0,0,0,297,400a13.2,13.2,0,0,0,.9-3.79,56.07,56.07,0,0,0,21.39-27.36,39.15,39.15,0,0,0,7.61,3.43A21.6,21.6,0,0,0,333.66,373.51Z" />
    <path class="BUNTAI_PEACOCK_OUTFIT_PEACOCK_OUTFIT_24_f" d="M278.85,333c-.27.35-.56.71-.85,1.06l-1.06,1.26,0,0c-.36.42-.72.83-1.09,1.24q-2.35,2.61-5,5.09c-.49.47-1,.93-1.51,1.4l-.06.05c-.52.47-1.05.93-1.59,1.4s-1.09.94-1.65,1.4l-.19.16c-.56.46-1.12.92-1.69,1.37a2.92,2.92,0,0,1-.29.23c-.44.36-.89.71-1.34,1.05l-.66.52c-.6.46-1.2.91-1.82,1.36-.78.58-1.56,1.14-2.35,1.7l-1.61,1.12-.38.27c-.66.46-1.34.91-2,1.36l-2.18,1.43c-.55.36-1.1.71-1.66,1.05-2.51,1.6-5.08,3.14-7.67,4.64-.53.31-1.06.62-1.59.91l-.68.39q-1,.57-2,1.11l-2.25,1.25-.67.36c-1.17.64-2.35,1.27-3.52,1.89l-.45.24-.23.12-1.43.75-1.61.84-1.61.83-1.66.85-3.13,1.59c-13.75,6.93-26.63,12.92-35.34,18.5l-1.92,1.26-1.18.78-1.17.8-1.28.88-1.45,1c-.42.3-.85.61-1.26.92l-1.28.93-1.23.94-1.21.93c-.8.62-1.58,1.24-2.33,1.85-.38.31-.76.61-1.12.92l-1.1.92c-1.07.91-2.11,1.82-3.11,2.72l-.19.16-2.07,1.92c-.34.32-.67.63-1,1l-.35.34c-2.43,2.36-4.56,4.63-6.43,6.79-.13.13-.25.28-.37.41A96.29,96.29,0,0,0,150,424.9c-.23.32-.44.64-.65,1a64.14,64.14,0,0,0-4.57,7.82c-.07.16-.15.3-.21.44l-.18.4c-.06.12-.1.23-.15.34s-.14.33-.19.46a.58.58,0,0,0-.06.15l-.1.23a.11.11,0,0,0,0,.05l0,0a40.4,40.4,0,0,1-9.61-8.65h0s0-.05.05-.11l.17-.35.07-.12c.16-.32.4-.76.7-1.32l.25-.44c.41-.72.92-1.59,1.55-2.6l.48-.75c.24-.39.51-.8.79-1.22l.29-.43c1.27-1.89,2.84-4.09,4.76-6.52l.85-1.07c1.79-2.22,3.86-4.61,6.22-7.12.28-.31.58-.62.88-.93,1.85-1.94,3.89-3.95,6.11-6l1.51-1.39,1.58-1.4c1.54-1.34,3.15-2.7,4.85-4.06.42-.35.86-.68,1.29-1,1.84-1.44,3.77-2.9,5.79-4.35l1.07-.76,1.52-1,1.51-1,1.54-1,1.57-1c1.18-.75,2.43-1.51,3.74-2.27.72-.42,1.46-.85,2.21-1.27,3.85-2.16,8.2-4.4,12.86-6.73l1.57-.79,1.58-.79.69-.33c-19.74-10-41.23-21.88-54.8-37.3-.47-.54,1.57-1.53,1.11-2.07h0l8.6-7.52,6-3.41c15.2,18.16,30.93,32.32,53.12,43.32,20.46-10.36,34.66-21,47.83-37.35l6.9,2.55Z" />
    <path class="BUNTAI_PEACOCK_OUTFIT_PEACOCK_OUTFIT_24_f" d="M128,401.82h0a10.51,10.51,0,0,1-1.65-4.07h0c-20.71-11.06-26.76-28.91-26.76-28.91-9.53,4.91-16.11,4.68-16.11,4.68,3.46,16.79,20.38,36.3,44.62,40.13A35.32,35.32,0,0,1,128,401.82Z" />
    <path class="BUNTAI_PEACOCK_OUTFIT_PEACOCK_OUTFIT_24_g" d="M202.33,368.84l-.69.33c-8.52,4.24-16.16,8.14-22,11.85a162,162,0,0,0-19.14,14.33c-17.13,15-24.48,28.28-26,31.19-.18.35-.27.55-.29.58a30.51,30.51,0,0,1-5.51-10.73c-.26-.92-.47-1.84-.64-2.75a35.32,35.32,0,0,1-.09-11.82h0a8.64,8.64,0,0,1-.88-1.57,12.52,12.52,0,0,1-.78-2.5h0c-.74-.39-1.45-.79-2.16-1.21-1-.61-2-1.23-3-1.87-16.56-11-21.59-25.82-21.59-25.82a60.24,60.24,0,0,0,7.53-4.65c13.36-9.63,21.51-15.58,40.12-32.42l.26-.23C161.1,347,182.59,358.86,202.33,368.84Z" />
    <path class="BUNTAI_PEACOCK_OUTFIT_PEACOCK_OUTFIT_24_h" d="M278.85,333c-.27.35-.56.71-.85,1.06l-1.06,1.26,0,0c-.36.42-.72.83-1.09,1.24q-2.35,2.61-5,5.09c-.49.47-1,.93-1.51,1.4l-.06.05c-.51.47-1,.93-1.58,1.4s-1.1.94-1.66,1.4-1.25,1-1.88,1.53a2.92,2.92,0,0,1-.29.23c-.44.36-.89.71-1.34,1.05l-.66.52c-.6.46-1.2.91-1.82,1.36-.78.58-1.56,1.14-2.35,1.7-.53.38-1.07.75-1.61,1.12l-.38.27-2,1.36-2.18,1.43c-.55.36-1.1.71-1.66,1.05-2.51,1.6-5.08,3.14-7.67,4.64-.53.31-1.06.62-1.59.91l-.68.39q-1,.57-2,1.11l-2.25,1.25-.67.36c-1.32.72-2.65,1.43-4,2.13l-.23.12-1.43.75-1.61.84-1.61.83-1.66.85-3.13,1.59c-13.75,6.93-26.63,12.92-35.34,18.5l-1.92,1.26c-.4.25-.79.52-1.18.78l-1.17.8-1.28.88-1.45,1c-.43.3-.85.61-1.26.92s-.85.62-1.28.93-.83.62-1.23.94-.82.61-1.21.93c-.8.61-1.58,1.23-2.33,1.85-.38.31-.76.61-1.12.92l-1.1.92c-1.08.91-2.12,1.82-3.11,2.72l-.19.16-2.07,1.92-1,1-.35.34c-2.43,2.36-4.56,4.63-6.43,6.79l-.37.41A96.29,96.29,0,0,0,150,424.9c-.23.32-.44.64-.65,1a64.14,64.14,0,0,0-4.57,7.82c-.07.16-.15.3-.21.44l-.18.4c-.06.12-.1.23-.15.34s-.14.33-.19.46a.58.58,0,0,0-.06.15l-.1.23a.11.11,0,0,0,0,.05l0,0h0" />
    <path class="BUNTAI_PEACOCK_OUTFIT_PEACOCK_OUTFIT_24_h" d="M134.28,427.12h0c.18-.37,11.47-24.34,45.4-46.09,5.95-3.82,13.85-7.83,22.65-12.2,4.47-2.22,9.18-4.54,14-7,20.47-10.36,34.66-21,47.83-37.35" />
    <path class="BUNTAI_PEACOCK_OUTFIT_PEACOCK_OUTFIT_24_h" d="M202.33,368.84c-19.74-10-41.23-21.88-54.8-37.3a5.87,5.87,0,0,1,1.11-2.07" />
    <path class="BUNTAI_PEACOCK_OUTFIT_PEACOCK_OUTFIT_24_h" d="M163.2,318.55c15.2,18.15,30.92,32.31,53.12,43.31" />
    <polyline class="BUNTAI_PEACOCK_OUTFIT_PEACOCK_OUTFIT_24_h" points="264.15 324.51 271.05 327.06 278.86 332.99" />
    <polyline class="BUNTAI_PEACOCK_OUTFIT_PEACOCK_OUTFIT_24_h" points="163.2 318.54 157.24 321.95 148.64 329.47 148.64 329.47" />
    <path class="BUNTAI_PEACOCK_OUTFIT_PEACOCK_OUTFIT_24_h" d="M147.53,331.54l-.26.23c-18.61,16.84-26.76,22.79-40.12,32.42a60.24,60.24,0,0,1-7.53,4.65,46.87,46.87,0,0,1-8,3.26l-.08,0a27.53,27.53,0,0,1-8,1.39c.11.53.23,1.06.36,1.58,2.32,9.13,8.48,18.87,17.52,26.36l.13.11a56.47,56.47,0,0,0,14.11,8.53q.74.32,1.5.6h0c.79.31,1.6.59,2.42.86q2.34.78,4.78,1.34s0,0,0,0c1.06.24,2.13.46,3.22.64l.55.09" />
    <path class="BUNTAI_PEACOCK_OUTFIT_PEACOCK_OUTFIT_24_h" d="M99.62,368.83s6,17.85,26.76,28.91" />
    <path class="BUNTAI_PEACOCK_OUTFIT_PEACOCK_OUTFIT_24_h" d="M278,334.05l.31.32.63.63,1.33,1.36h0" />
    <path class="BUNTAI_PEACOCK_OUTFIT_PEACOCK_OUTFIT_24_h" d="M296,413.22h0c20.1-8.36,34.62-23.47,37.6-39.71a21.6,21.6,0,0,1-6.72-1.24,39.15,39.15,0,0,1-7.61-3.43,52.5,52.5,0,0,1-6.69-4.65c-2.49-2-4.7-3.75-6.81-5.39" />
    <path class="BUNTAI_PEACOCK_OUTFIT_PEACOCK_OUTFIT_24_h" d="M303.75,357.17l2.08,1.62" />
    <path class="BUNTAI_PEACOCK_OUTFIT_PEACOCK_OUTFIT_24_h" d="M297.94,396.2a56,56,0,0,0,21.39-27.37" />
    <path class="BUNTAI_PEACOCK_OUTFIT_PEACOCK_OUTFIT_24_h" d="M128,401.81A50.42,50.42,0,0,1,135,383.4" />
    <path class="BUNTAI_PEACOCK_OUTFIT_PEACOCK_OUTFIT_24_h" d="M128,401.82a35.32,35.32,0,0,0,.09,11.82c.09.46.18.91.29,1.37,0,.2.09.4.14.6s0,.13.05.2.1.38.16.58l.18.64,0,0c.12.43.26.85.42,1.27.28.79.59,1.58,1,2.37l.28.58.38.76a29,29,0,0,0,1.91,3.2q.18.28.39.57c.31.44.64.87,1,1.31h0a40.19,40.19,0,0,0,9.61,8.65c1.14.77,2.35,1.51,3.64,2.23a22,22,0,0,0,2.54,1.22l.08,0a49.63,49.63,0,0,0,5.53,1.89l.94.25,0,0,1.1.27.61.14c1.07.25,2.22.49,3.45.71l1.71.28c1.48.23,3.06.42,4.74.58l.39,0,1,.08,1.61.11.83,0,.53,0,.75,0a106.5,106.5,0,0,0,16.58-.83c1.16-.15,2.3-.28,3.41-.41s2.09-.25,3.11-.35q4.59-.51,8.69-.85c1.55-.14,3-.25,4.5-.35a234.21,234.21,0,0,1,30.92-.24c13.91.78,21.61,2,36-2.68,8.35-4.68,13.49-10.16,16.45-15.8a30,30,0,0,0,3-9l.12-.71c0-.21.06-.42.08-.62a.34.34,0,0,1,0-.1c0-.16,0-.32.06-.48s0-.29,0-.43c0-.33.06-.65.09-1s0-.55,0-.82l0-.79v-.1c0-.21,0-.4,0-.58a37.85,37.85,0,0,0-.45-5.8,50.51,50.51,0,0,0-6.9-18.42" />
    <path class="BUNTAI_PEACOCK_OUTFIT_PEACOCK_OUTFIT_24_h" d="M126.56,388.41a25.81,25.81,0,0,0-.17,9.33,10.51,10.51,0,0,0,1.65,4.07h0" />
    <path class="BUNTAI_PEACOCK_OUTFIT_PEACOCK_OUTFIT_24_h" d="M297.53,388.41a27,27,0,0,1,.41,7.79,11.86,11.86,0,0,1-1.88,5.62" />
    <path class="BUNTAI_PEACOCK_OUTFIT_PEACOCK_OUTFIT_24_h" d="M304.34,353.42l-2.42,1.13c-.3.14-.6.3-.91.47-13.18,7.11-34.47,30.47-41.73,39.07-3.89,4.62-8.4,7.37-12.67,7.73a8.73,8.73,0,0,1-6.16-1.59,5.86,5.86,0,0,1-2.13-4.68c0-3.38,2-7,5.57-9.94,16.82-13,31.49-32.54,34.66-37.81a67.47,67.47,0,0,0,4.47-8.73l1.2-3" />
    <path class="BUNTAI_PEACOCK_OUTFIT_PEACOCK_OUTFIT_24_h" d="M280.29,336.36h0a61.62,61.62,0,0,1-5,10.06c-3.51,5.83-18,24.63-33.92,37-7.39,6-8.46,14.05-4.23,18.33a9.77,9.77,0,0,0,.82.74,10.22,10.22,0,0,0,1.31.86c5.45,3.08,14.77,2.19,22.93-7.47,8.85-10.49,29.87-32.91,41.52-38.69" />
    <path class="BUNTAI_PEACOCK_OUTFIT_PEACOCK_OUTFIT_24_h" d="M278.94,335s2.52-1.9,5.28,1a8.51,8.51,0,0,1,.87,1.08,46.23,46.23,0,0,0,4.55,5.53,36.36,36.36,0,0,0,7.2,5.95c.42.26.83.49,1.25.7a25.79,25.79,0,0,1,6.25,4.13c1.59,1.58,2.35,3.36,1.49,5.37h0" />
    <path class="BUNTAI_PEACOCK_OUTFIT_PEACOCK_OUTFIT_24_h" d="M296.84,348.59a4.08,4.08,0,0,0,2-3.42c0-2.37-2.29-4.31-5.11-4.31a5.39,5.39,0,0,0-4.11,1.78" />
    <path class="BUNTAI_PEACOCK_OUTFIT_PEACOCK_OUTFIT_24_h" d="M250.74,394.59c0,1.87-1.8,3.39-4,3.39s-4-1.52-4-3.39,1.8-3.38,4-3.38S250.74,392.72,250.74,394.59Z" />
    <path class="BUNTAI_PEACOCK_OUTFIT_PEACOCK_OUTFIT_24_h" d="M255.89,386.63a1.81,1.81,0,0,1-3.57,0,1.81,1.81,0,0,1,3.57,0Z" />
    <path class="BUNTAI_PEACOCK_OUTFIT_PEACOCK_OUTFIT_24_h" d="M262.72,380.23a1.81,1.81,0,1,1-1.78-1.51A1.66,1.66,0,0,1,262.72,380.23Z" />
    <path class="BUNTAI_PEACOCK_OUTFIT_PEACOCK_OUTFIT_24_h" d="M278.88,363.46a1.65,1.65,0,0,1-1.74,1.55,1.68,1.68,0,0,1-1.83-1.47,1.65,1.65,0,0,1,1.74-1.55A1.69,1.69,0,0,1,278.88,363.46Z" />
    <path class="BUNTAI_PEACOCK_OUTFIT_PEACOCK_OUTFIT_24_h" d="M291.79,350a1.64,1.64,0,0,1-1.74,1.54,1.7,1.7,0,0,1-1.84-1.46,1.66,1.66,0,0,1,1.75-1.55A1.68,1.68,0,0,1,291.79,350Z" />
    <path class="BUNTAI_PEACOCK_OUTFIT_PEACOCK_OUTFIT_24_h" d="M285.52,356.91a1.65,1.65,0,0,1-1.74,1.55,1.7,1.7,0,0,1-1.84-1.47,1.66,1.66,0,0,1,1.75-1.55A1.69,1.69,0,0,1,285.52,356.91Z" />
    <path class="BUNTAI_PEACOCK_OUTFIT_PEACOCK_OUTFIT_24_h" d="M273.24,372.1c0,1.87-1.8,3.38-4,3.38s-4-1.51-4-3.38,1.79-3.39,4-3.39S273.24,370.23,273.24,372.1Z" />
    <path class="BUNTAI_PEACOCK_OUTFIT_PEACOCK_OUTFIT_24_h" d="M233.92,405a6,6,0,0,0-1.93-.26c-3.85.11-8.7,3.69-12,7-4,4.1-7.45,9.72-5.22,12.82l0,0" />
    <path class="BUNTAI_PEACOCK_OUTFIT_PEACOCK_OUTFIT_24_h" d="M236.13,406.56c.82,1.12,1.18,2.94-.17,5.83a26.64,26.64,0,0,1-5.11,6.94c-3.26,3.32-8.1,6.9-11.95,7a5.67,5.67,0,0,1-1.85-.23" />
    <path class="BUNTAI_PEACOCK_OUTFIT_PEACOCK_OUTFIT_24_h" d="M231.64,407.36c-2.28.32-5.95,2.64-9.29,6s-5.35,7.08-5.31,9" />
    <path class="BUNTAI_PEACOCK_OUTFIT_PEACOCK_OUTFIT_24_h" d="M233.85,408.89c0,1.95-2,5.43-5.32,8.82s-7,5.71-9.28,6" />
    <path class="BUNTAI_PEACOCK_OUTFIT_PEACOCK_OUTFIT_24_h" d="M237.17,401.73l-3.25,3.3-2.28,2.33-.92.94a1.08,1.08,0,0,0,.18,1.7,1.62,1.62,0,0,0,2-.16l.94-.95,2.28-2.33,3.17-3.23" />
    <path class="BUNTAI_PEACOCK_OUTFIT_PEACOCK_OUTFIT_24_h" d="M213,430.22l-.91.92a1.61,1.61,0,0,1-2,.16h0a1.08,1.08,0,0,1-.19-1.69l.94-1,2.3-2.33,1.67-1.7,1.92-1.94a1,1,0,0,1,.31-.24,1.64,1.64,0,0,1,1.68.07l0,0a1.09,1.09,0,0,1,.46,1.23,1.21,1.21,0,0,1-.28.45l-1.87,1.91-1.73,1.76Z" />
    <path class="BUNTAI_PEACOCK_OUTFIT_PEACOCK_OUTFIT_24_h" d="M213.14,426.3a6.4,6.4,0,0,0-2-.28c-3.85.11-8.7,3.69-12,7-2.82,2.86-5.34,6.47-5.82,9.44" />
    <path class="BUNTAI_PEACOCK_OUTFIT_PEACOCK_OUTFIT_24_h" d="M215.32,427.86c.8,1.12,1.13,2.93-.2,5.79a26.57,26.57,0,0,1-5.11,6.94l-.33.33" />
    <path class="BUNTAI_PEACOCK_OUTFIT_PEACOCK_OUTFIT_24_h" d="M210.8,428.61c-2.28.32-6,2.64-9.28,6a21.31,21.31,0,0,0-5,7.48" />
    <path class="BUNTAI_PEACOCK_OUTFIT_PEACOCK_OUTFIT_24_h" d="M213,430.14v.08c0,2-2,5.4-5.32,8.74a31.31,31.31,0,0,1-2.51,2.31" />
    <g class="BUNTAI_PEACOCK_OUTFIT_PEACOCK_OUTFIT_24_i">
      <path d="M238.32,386.44s-19.9,3.93-34.68,7.61-29.41,13.31-29.41,13.31,16.16-2.14,28.1-6.74,28.53-8,28.53-8l5.14-1.42A8.16,8.16,0,0,1,238.32,386.44Z" />
      <path d="M209.1,402.33s12.88-.21,19.54-.6,7.25,0,7.25,0l.7-.17v.76l-1.75,1.32s-8.69.1-16.88,0-19.9,0-19.16.05S209.1,402.33,209.1,402.33Z" />
      <path d="M130.92,371.58s-6.17,22.36-3.26,30.74l-6.79-11.42s1.29,11.23,0,13.4-3.74,6.39-3.74,6.39,7.7,2.64,10.45,2.86c3.34,8.35,10.82,24.51,32.57,28.92,13.9,2.24,26.32.75,33.23,0-25.52-7.12-30.66-32.65-30.66-32.65l-2.18-14.47S139.22,391.39,130.92,371.58Z" />
      <path d="M91.65,372.1s6.51,15.54,17.73,23l14.49,9.65-4.36,6.89a66.45,66.45,0,0,1-18-10.1c-9.29-7.25-16-18-18-28.05A70.31,70.31,0,0,0,91.65,372.1Z" />
      <path d="M210,365l-7.71,3.83-.69.33s-26.58-13.58-39.71-23.92a130.23,130.23,0,0,1-14.66-13.48l.26-.23a6.62,6.62,0,0,1,1.11-2.07h0l8.6-7.52h0s2.51,13.46,17,24.64S210,365,210,365Z" />
      <path d="M278,334.05l.31.32a100.6,100.6,0,0,1-8.56,8.4c-1.19,1.05-2.43,2.1-3.74,3.15l-.19.16c-8.7,7-20.08,14.24-34.35,22l-.45.24-.23.12q-11,6-24.28,12.4a198.38,198.38,0,0,0-40.14,25.84l-.19.16c-1.37,1.16-2.53,2.17-3.46,3-1.84,1.66-2.81,2.62-2.81,2.62l-.46-4.24a13.85,13.85,0,0,1,2.5-3.49c2.28-2.62,6.59-6.81,14.56-12.87,15.31-11.63,31.67-19.61,58.21-33.61,19.65-10.36,29.92-24.92,36.33-31.21l7.8,5.93C278.58,333.34,278.29,333.7,278,334.05Z" />
      <path d="M263.13,367.44s-5.38,9.64-2.58,15.07,15.88-7,15.88-7l.66,3.63s-13.56,20.76-25,24.5-16-.28-17.21-5.63.11-8.71,8.12-15.46a136.23,136.23,0,0,0,12.82-12.14C256.12,370,263.13,367.44,263.13,367.44Z" />
      <path d="M302.65,352a102.36,102.36,0,0,1-10.86-3.44c-6-2.34-8.06-5.1-8.06-5.1s3.24,4.48,7.13,6.61a33.45,33.45,0,0,0,7.56,3l2.26,1.41,2.53-.82Z" />
      <path d="M333.66,373.51c-3,16.24-17.5,31.35-37.6,39.71,0-.24.07-.47.1-.71s.06-.48.09-.72.07-.64.1-1c.08-.94.13-1.83.16-2.63,0-.21,0-.4,0-.58,0-1.52,0-2.55,0-2.55s8.34-2.84,17.1-11.33,13.33-21.47,13.33-21.47A21.6,21.6,0,0,0,333.66,373.51Z" />
      <path d="M290.71,385.12s4.67,9.92,5.8,17.21a39.58,39.58,0,0,0-.45-21.68,64.31,64.31,0,0,1,0,13.94S294.76,388.8,290.71,385.12Z" />
      <path d="M293,422.2c-3,5.64-8.1,11.12-16.45,15.8-14.36,4.72-22.06,3.46-36,2.68h0s31.33.09,42.78-14.53c11.27-14.39,5.86-28.79,5.69-29.24A48.26,48.26,0,0,1,293,422.2Z" />
    </g>
  </g>
</svg>