<svg xmlns="http://www.w3.org/2000/svg" viewBox="0 0 432 432">
  <defs>
    <style>.BUNTAI_PEACOCK_OUTFIT_PEACOCK_OUTFIT_16_a{isolation:isolate;}.BUNTAI_PEACOCK_OUTFIT_PEACOCK_OUTFIT_16_b{fill:#843f00;}.BUNTAI_PEACOCK_OUTFIT_PEACOCK_OUTFIT_16_c{fill:#d16e15;}.BUNTAI_PEACOCK_OUTFIT_PEACOCK_OUTFIT_16_d{fill:#001d37;}.BUNTAI_PEACOCK_OUTFIT_PEACOCK_OUTFIT_16_e{fill:#371a00;}.BUNTAI_PEACOCK_OUTFIT_PEACOCK_OUTFIT_16_f{fill:#004584;}.BUNTAI_PEACOCK_OUTFIT_PEACOCK_OUTFIT_16_g{fill:#fff;}.BUNTAI_PEACOCK_OUTFIT_PEACOCK_OUTFIT_16_h{fill:none;stroke:#000;stroke-linecap:round;stroke-linejoin:round;stroke-width:1.52px;}.BUNTAI_PEACOCK_OUTFIT_PEACOCK_OUTFIT_16_i{opacity:0.43;mix-blend-mode:multiply;}</style>
  </defs>
  <g class="BUNTAI_PEACOCK_OUTFIT_PEACOCK_OUTFIT_16_a">
    <path class="BUNTAI_PEACOCK_OUTFIT_PEACOCK_OUTFIT_16_b" d="M261.45,351.75a48.34,48.34,0,0,1,2.88-5.46,2.88,2.88,0,0,1,3.91-.88,2.72,2.72,0,0,1,.91,3.81,40.83,40.83,0,0,0-2.09,3.92c-2.09,4.39-6.05,10-8.2,21.07-.6,3.11-1.12,6.48-1.5,10.08a2.82,2.82,0,0,1-2.82,2.48l-.29,0a2.78,2.78,0,0,1-2.54-3c.41-3.84,1-7.41,1.6-10.72C255.41,362.16,259.21,356.59,261.45,351.75Z" />
    <path class="BUNTAI_PEACOCK_OUTFIT_PEACOCK_OUTFIT_16_c" d="M261.66,422.58a352.89,352.89,0,0,1-52.08,4.25,352.89,352.89,0,0,1-52.08-4.25c-4.59-.69-8.25-1.34-10.71-1.8l-2.55,4.57s3.53,1.12,9.83,2.54a258.1,258.1,0,0,0,111,0c6.31-1.42,9.83-2.54,9.83-2.54l-2.56-4.57C269.9,421.24,266.24,421.89,261.66,422.58Z" />
    <path class="BUNTAI_PEACOCK_OUTFIT_PEACOCK_OUTFIT_16_c" d="M209.58,404.53s34.68.41,55.51-.25c6.9-.2,12.27-.54,14.36-1-2-1.66-4.17-3.9-4.17-3.9-3.31.19-7.72.4-12.94.58-6,.21-13.17.37-20.89.37H177.71c-7.72,0-14.84-.16-20.89-.37-5.22-.18-9.63-.39-12.94-.58,0,0-2.19,2.24-4.17,3.9,2.09.5,7.46.84,14.36,1C174.89,404.94,209.58,404.53,209.58,404.53Z" />
    <path class="BUNTAI_PEACOCK_OUTFIT_PEACOCK_OUTFIT_16_d" d="M281.62,392.92c8.59-5.71,10.31-15.48,10.31-15.48h0l1.16,1.18c-.92,2.67.71,6.25,2.81,9.87h0s-1.71,6.7-9.43,12.68a37.65,37.65,0,0,1-7.54,4.5l.51-2.43c-2-1.66-4.17-3.9-4.17-3.9,4.22-.24,6.63-.43,6.63-.43Z" />
    <path class="BUNTAI_PEACOCK_OUTFIT_PEACOCK_OUTFIT_16_d" d="M330.75,431.76c.2.27.4.51.57.74a28.69,28.69,0,0,1-20.29,10c-13.14.65-20.8-.63-20.8-.63-3.82-1.64-6.57-3.13-6.57-3.13s-2-3.43-2.13-3.7c0-.08,0-1,.05-2.57.9.22,14.11,3.43,24.06-.84,10.31-4.43,19.58-13.68,19.58-13.68s2.2,5.32,3.55,6.91l1.34,1.59A5.48,5.48,0,0,0,330.75,431.76Z" />
    <path class="BUNTAI_PEACOCK_OUTFIT_PEACOCK_OUTFIT_16_d" d="M127.22,377.44s1.72,9.77,10.32,15.48h0l-.3,6s2.42.19,6.63.43c0,0-2.19,2.24-4.17,3.9l.52,2.43h0a37.65,37.65,0,0,1-7.55-4.5c-7.72-6-9.41-12.68-9.41-12.68h0c2.1-3.62,3.73-7.2,2.81-9.87Z" />
    <path class="BUNTAI_PEACOCK_OUTFIT_PEACOCK_OUTFIT_16_d" d="M137.56,432.46c0,1.52.09,2.49.06,2.57-.09.27-2.13,3.7-2.13,3.7s-2.74,1.48-6.56,3.13h0c-.31.05-7.92,1.26-20.8.63a28.71,28.71,0,0,1-20.29-10l.58-.74a5.51,5.51,0,0,0,.64-5.32l1.34-1.59c1.35-1.59,3.55-6.91,3.55-6.91s9.27,9.25,19.57,13.68C123.43,435.88,136.59,432.71,137.56,432.46Z" />
    <path class="BUNTAI_PEACOCK_OUTFIT_PEACOCK_OUTFIT_16_c" d="M295.91,378.13s-.57,3,4.63,9.35,7,16.49,9.36,18.84,24.62,9.89,24.62,9.89L333,419.29a29.8,29.8,0,0,1-7.77-1.35,36.38,36.38,0,0,1-7.44-3.39,44.74,44.74,0,0,0-12.48-5.18,69.91,69.91,0,0,0-5-13.48c-1.23-2.29-2.94-4.85-4.42-7.4-2.1-3.62-3.73-7.2-2.81-9.87a15,15,0,0,1,2.81-.5Z" />
    <path class="BUNTAI_PEACOCK_OUTFIT_PEACOCK_OUTFIT_16_c" d="M295.91,378.12a15,15,0,0,0-2.81.5l-1.16-1.18h0c-1.71-1.7-4.17-4.83-6.66-6.77a9.17,9.17,0,0,1-2.61-10.78c1.09.19,2.35.35,3.81.48-1.82,3.66,1.48,8.45,5,10.86S295.82,377.89,295.91,378.12Z" />
    <path class="BUNTAI_PEACOCK_OUTFIT_PEACOCK_OUTFIT_16_c" d="M286.47,360.37c-1.46-.13-2.72-.29-3.81-.48-4.12-.75-6-2.1-7.68-5.05-2.2-3.73.24-4.89.24-4.89h0c1.12-.5,2.32-1.15,3.58-1.85,0,0,1,9.18,8.39,12.33h0Z" />
    <path class="BUNTAI_PEACOCK_OUTFIT_PEACOCK_OUTFIT_16_c" d="M123.26,378.12a15,15,0,0,1,2.8.5c.92,2.67-.71,6.25-2.81,9.87-1.48,2.55-3.18,5.11-4.42,7.4a69.56,69.56,0,0,0-5,13.48,44.73,44.73,0,0,0-12.49,5.18,36.38,36.38,0,0,1-7.44,3.39,29.87,29.87,0,0,1-7.77,1.35h0l-1.53-3.08s22.29-7.54,24.63-9.89,4.16-12.48,9.36-18.84,4.64-9.35,4.64-9.35Z" />
    <path class="BUNTAI_PEACOCK_OUTFIT_PEACOCK_OUTFIT_16_c" d="M127.22,377.44l-1.16,1.18a15,15,0,0,0-2.8-.5,16.42,16.42,0,0,1,5.19-6.89c3.5-2.41,6.81-7.2,5-10.86,1.46-.13,2.72-.29,3.81-.48a9.17,9.17,0,0,1-2.61,10.78A98.37,98.37,0,0,0,127.22,377.44Z" />
    <path class="BUNTAI_PEACOCK_OUTFIT_PEACOCK_OUTFIT_16_c" d="M137.25,359.89c-1.09.19-2.35.35-3.81.48l-.73.05h0c7.39-3.15,11.39-12.33,11.39-12.33h0c1.26.7,2.46,1.34,3.58,1.85h0s-.56,1.16-2.76,4.89C143.19,357.79,141.36,359.14,137.25,359.89Z" />
    <path class="BUNTAI_PEACOCK_OUTFIT_PEACOCK_OUTFIT_16_c" d="M298.3,353.53a2,2,0,1,1-.07,4,33.3,33.3,0,0,0-6.84.52,1.85,1.85,0,0,1-.56.08,2,2,0,0,1-1.95-1.44,2,2,0,0,1,1.39-2.44A36.73,36.73,0,0,1,298.3,353.53Z" />
    <path class="BUNTAI_PEACOCK_OUTFIT_PEACOCK_OUTFIT_16_c" d="M311.14,374a2,2,0,0,1,.93,2.67,2,2,0,0,1-1.81,1.1,2,2,0,0,1-.88-.21,32.87,32.87,0,0,0-8.65-2.21,2,2,0,1,1,.28-3.95A36.56,36.56,0,0,1,311.14,374Z" />
    <path class="BUNTAI_PEACOCK_OUTFIT_PEACOCK_OUTFIT_16_c" d="M326.12,405.66a2,2,0,0,1,.92,2.65,2.07,2.07,0,0,1-1.83,1.1,2,2,0,0,1-.89-.21,68.23,68.23,0,0,0-9.31-3.56,2,2,0,0,1-1.39-2.44,2,2,0,0,1,2.51-1.35A68.4,68.4,0,0,1,326.12,405.66Z" />
    <path class="BUNTAI_PEACOCK_OUTFIT_PEACOCK_OUTFIT_16_c" d="M105.53,403.2a2,2,0,0,1-1.39,2.44,68.42,68.42,0,0,0-9.3,3.56,2,2,0,0,1-2.72-.89,2,2,0,0,1,.92-2.65,68,68,0,0,1,10-3.81A2,2,0,0,1,105.53,403.2Z" />
    <path class="BUNTAI_PEACOCK_OUTFIT_PEACOCK_OUTFIT_16_c" d="M129.63,354.2a2,2,0,0,1,1.4,2.44,2,2,0,0,1-2,1.44,1.83,1.83,0,0,1-.55-.08,33.35,33.35,0,0,0-6.84-.52,2,2,0,1,1-.07-4A36.61,36.61,0,0,1,129.63,354.2Z" />
    <path class="BUNTAI_PEACOCK_OUTFIT_PEACOCK_OUTFIT_16_c" d="M120.31,373.25a2,2,0,0,1-1.88,2.11,32.74,32.74,0,0,0-8.65,2.21,2,2,0,0,1-.89.21,2,2,0,0,1-1.8-1.1A2,2,0,0,1,108,374a36.8,36.8,0,0,1,10.14-2.6A2,2,0,0,1,120.31,373.25Z" />
    <path class="BUNTAI_PEACOCK_OUTFIT_PEACOCK_OUTFIT_16_e" d="M247.27,362.32c7.09-6.61,11.45-11.52,11.45-11.52h0s1.08.43,2.72.95c-2.24,4.84-6,10.41-8.14,21.25l-.46-.08Z" />
    <path class="BUNTAI_PEACOCK_OUTFIT_PEACOCK_OUTFIT_16_e" d="M291.93,377.44s-1.72,9.77-10.31,15.48c-.1-2.19,2.73-5.2,2.53-9.31A135.4,135.4,0,0,0,261.23,375c-1.13-.31-1.42-.58-2.36-.82h0c2.15-11.1,6.11-16.68,8.2-21.07h0c2,.34,3.32-1.89,5.09-2.17a12.66,12.66,0,0,0,3.06-1h0s-2.44,1.16-.24,4.89c1.73,3,3.56,4.3,7.68,5.05a9.17,9.17,0,0,0,2.61,10.78C287.76,372.61,290.22,375.74,291.93,377.44Z" />
    <path class="BUNTAI_PEACOCK_OUTFIT_PEACOCK_OUTFIT_16_e" d="M281.58,432.38c0-3.44-.23-9.61-2.51-14.68,0,0,5.64-9.54,7.53-16.4l-.12-.13c7.72-6,9.43-12.68,9.43-12.68h0c1.48,2.55,3.19,5.11,4.42,7.4a69.91,69.91,0,0,1,5,13.48,44.74,44.74,0,0,1,12.48,5.18,36.38,36.38,0,0,0,7.44,3.39s-9.27,9.25-19.58,13.68c-9.95,4.27-23.16,1.06-24.06.84A.11.11,0,0,0,281.58,432.38Z" />
    <path class="BUNTAI_PEACOCK_OUTFIT_PEACOCK_OUTFIT_16_e" d="M286.48,401.17l.12.13c-1.89,6.86-7.53,16.4-7.53,16.4,2.28,5.07,2.54,11.24,2.51,14.68l-.05.07h.05c0,1.52-.07,2.49-.05,2.57l-1.22,3.13s-.19,4.61-.19,4.73-1.52,2.18-1.7,2.73,1.51,3.78,2.36,6.18.66,3.41,0,8.66,0,7.37,0,7.37l-17.78.56c8.79-16.22,11.92-43,11.92-43l-2.56-4.57c2.26-.42,3.5-.68,3.5-.68l3.08-14.43A37.65,37.65,0,0,0,286.48,401.17Z" />
    <path class="BUNTAI_PEACOCK_OUTFIT_PEACOCK_OUTFIT_16_e" d="M156.16,468.39l-17.78-.56s.66-2.12,0-7.37-.85-6.26,0-8.66,2.55-5.62,2.37-6.18S139,443,139,442.89s-.19-4.73-.19-4.73L137.62,435c0-.08,0-1-.06-2.57h.06l-.06-.07c0-3.44.24-9.61,2.52-14.68,0,0-5.62-9.54-7.52-16.4l.11-.13a37.65,37.65,0,0,0,7.55,4.5h0l3.06,14.43s1.25.26,3.5.68l-2.55,4.57S147.36,452.17,156.16,468.39Z" />
    <path class="BUNTAI_PEACOCK_OUTFIT_PEACOCK_OUTFIT_16_e" d="M140.08,417.7c-2.28,5.07-2.54,11.24-2.52,14.68v.08c-1,.25-14.13,3.42-24-.84-10.3-4.43-19.57-13.68-19.57-13.68a36.38,36.38,0,0,0,7.44-3.39,44.73,44.73,0,0,1,12.49-5.18,69.56,69.56,0,0,1,5-13.48c1.24-2.29,2.94-4.85,4.42-7.4h0s1.69,6.7,9.41,12.68l-.11.13C134.46,408.16,140.08,417.7,140.08,417.7Z" />
    <path class="BUNTAI_PEACOCK_OUTFIT_PEACOCK_OUTFIT_16_e" d="M160.29,374.21c-.94.24-2,.51-3.11.82-5.91,1.62-10.38,4.32-19.18,8.58-.2,4.11-.35,7.12-.45,9.31h0c-8.6-5.71-10.32-15.48-10.32-15.48a98.37,98.37,0,0,1,7.42-6.77,9.17,9.17,0,0,0,2.61-10.78c4.11-.75,5.94-2.1,7.67-5.05,2.2-3.73,2.76-4.89,2.76-4.89h0a12.8,12.8,0,0,0,3.06,1c1.77.28.1.13,2.1-.21A98.23,98.23,0,0,1,160.29,374.21Z" />
    <path class="BUNTAI_PEACOCK_OUTFIT_PEACOCK_OUTFIT_16_e" d="M171.89,362.32l-5.58,10.6-.47.08a102.74,102.74,0,0,0-7.39-23.63c1.65-.52,2.73-1,2.73-1A54.41,54.41,0,0,0,171.89,362.32Z" />
    <path class="BUNTAI_PEACOCK_OUTFIT_PEACOCK_OUTFIT_16_f" d="M320.55,385.18c-5.12-2.84-15.47-7.74-20.79-7.39-1.64.1-2.9.22-3.85.33-.09-.23-1.05-4.55-4.46-6.89s-6.8-7.2-5-10.86l.72.05c6.62.34,11.45-2.78,17.68-1.78,0,0,4.47,1.66,9.86,11.2S323,383.52,320.55,385.18Zm-19.82-9.82a32.87,32.87,0,0,1,8.65,2.21,2,2,0,0,0,.88.21,2,2,0,0,0,1.81-1.1,2,2,0,0,0-.93-2.67,36.56,36.56,0,0,0-10.13-2.6,2,2,0,1,0-.28,3.95Z" />
    <path class="BUNTAI_PEACOCK_OUTFIT_PEACOCK_OUTFIT_16_f" d="M295.91,378.12c.95-.11,2.21-.23,3.85-.33,5.32-.35,15.67,4.55,20.79,7.39,0,0,9.44,18.36,14,31h0s-22.28-7.54-24.62-9.89-4.16-12.48-9.36-18.84-4.63-9.35-4.63-9.35ZM327,408.31a2,2,0,0,0-.92-2.65,68.4,68.4,0,0,0-10-3.81,2,2,0,0,0-2.51,1.35,2,2,0,0,0,1.39,2.44,68.23,68.23,0,0,1,9.31,3.56,2,2,0,0,0,.89.21A2.07,2.07,0,0,0,327,408.31Z" />
    <path class="BUNTAI_PEACOCK_OUTFIT_PEACOCK_OUTFIT_16_f" d="M304.87,358.64c-6.23-1-11.06,2.12-17.68,1.78h0c-7.38-3.15-8.39-12.33-8.39-12.33,5.27-2.92,11.46-6.77,16-5.28C294.78,342.81,301.11,352.56,304.87,358.64ZM291.39,358a33.3,33.3,0,0,1,6.84-.52,2,2,0,1,0,.07-4,36.73,36.73,0,0,0-8,.67,2,2,0,0,0-1.39,2.44,2,2,0,0,0,1.95,1.44A1.85,1.85,0,0,0,291.39,358Z" />
    <path class="BUNTAI_PEACOCK_OUTFIT_PEACOCK_OUTFIT_16_f" d="M264.33,346.29a48.34,48.34,0,0,0-2.88,5.46c-1.64-.52-2.72-.95-2.72-.95s.28-.35,3.4-3.18,16.74-17,16.74-17-1.3,2.45,4.95,2.32,5.57-3.39,10.11-1.87.85,11.74.85,11.74h0c-4.52-1.49-10.71,2.36-16,5.28-1.26.7-2.46,1.35-3.58,1.85a12.66,12.66,0,0,1-3.06,1c-1.77.28-3.09,2.51-5.09,2.17h0a40.83,40.83,0,0,1,2.09-3.92,2.72,2.72,0,0,0-.91-3.81A2.88,2.88,0,0,0,264.33,346.29Z" />
    <path class="BUNTAI_PEACOCK_OUTFIT_PEACOCK_OUTFIT_16_f" d="M123.26,378.12h0s.56,3-4.64,9.35-7,16.49-9.36,18.84-24.63,9.89-24.63,9.89c4.54-12.67,14-31,14-31,5.11-2.84,15.46-7.74,20.78-7.39C121,377.89,122.3,378,123.26,378.12Zm-19.12,27.52a2,2,0,0,0,1.39-2.44,2,2,0,0,0-2.51-1.35,68,68,0,0,0-10,3.81,2,2,0,0,0-.92,2.65,2,2,0,0,0,2.72.89A68.42,68.42,0,0,1,104.14,405.64Z" />
    <path class="BUNTAI_PEACOCK_OUTFIT_PEACOCK_OUTFIT_16_f" d="M119.4,377.79c-5.32-.35-15.67,4.55-20.78,7.39-2.48-1.66.43-5.8,5.81-15.34s9.87-11.2,9.87-11.2c6.22-1,11.78,2.12,18.41,1.78l.73-.05c1.82,3.66-1.49,8.45-5,10.86a16.42,16.42,0,0,0-5.19,6.89C122.3,378,121,377.89,119.4,377.79Zm-9.62-.22a32.74,32.74,0,0,1,8.65-2.21,2,2,0,1,0-.28-3.95A36.8,36.8,0,0,0,108,374a2,2,0,0,0-.92,2.67,2,2,0,0,0,1.8,1.1A2,2,0,0,0,109.78,377.57Z" />
    <path class="BUNTAI_PEACOCK_OUTFIT_PEACOCK_OUTFIT_16_f" d="M128.52,358a1.83,1.83,0,0,0,.55.08,2,2,0,0,0,2-1.44,2,2,0,0,0-1.4-2.44,36.61,36.61,0,0,0-8-.67,2,2,0,1,0,.07,4A33.35,33.35,0,0,1,128.52,358Zm4.19,2.42h0c-6.63.34-12.19-2.78-18.41-1.78,3.75-6.08,13.82-15.83,13.82-15.83,4.51-1.49,10.7,2.36,16,5.28h0S140.1,357.27,132.71,360.42Z" />
    <path class="BUNTAI_PEACOCK_OUTFIT_PEACOCK_OUTFIT_16_f" d="M147,330.62s7.64,11.78,10.76,14.61,3.4,3.18,3.4,3.18-1.08.44-2.73,1a49.29,49.29,0,0,0-2.87-5.47,2.89,2.89,0,0,0-3.91-.88,2.74,2.74,0,0,0-.91,3.82,40.9,40.9,0,0,1,2.08,3.92c-2,.34-.33.49-2.1.21a12.8,12.8,0,0,1-3.06-1c-1.12-.51-2.32-1.15-3.58-1.85-5.28-2.92-11.47-6.77-16-5.28,0,0-3.69-10.23.85-11.74s9.86,3.33,16.1,3.46S147,330.62,147,330.62Z" />
    <path class="BUNTAI_PEACOCK_OUTFIT_PEACOCK_OUTFIT_16_g" d="M278.87,330.62s-13.62,14.16-16.74,17-3.4,3.18-3.4,3.18h0s-4.36,4.91-11.45,11.52l-19.09.3c24.57-14.07,36.56-27.56,41.66-31.71S278.87,330.62,278.87,330.62Z" />
    <path class="BUNTAI_PEACOCK_OUTFIT_PEACOCK_OUTFIT_16_g" d="M190.24,362.62l-18.35-.3a54.41,54.41,0,0,1-10.71-13.91s-.28-.35-3.4-3.18S147,330.62,147,330.62s3.92-3.85,9,.29S165.65,348.55,190.24,362.62Z" />
    <path class="BUNTAI_PEACOCK_OUTFIT_PEACOCK_OUTFIT_16_b" d="M167.45,383.72a2.78,2.78,0,0,1-2.53,3l-.31,0a2.8,2.8,0,0,1-2.81-2.48c-.38-3.6-.9-7-1.51-10.08a98.23,98.23,0,0,0-7.45-23.45,40.9,40.9,0,0,0-2.08-3.92,2.74,2.74,0,0,1,.91-3.82,2.89,2.89,0,0,1,3.91.88,49.29,49.29,0,0,1,2.87,5.47A102.74,102.74,0,0,1,165.84,373C166.48,376.31,167,379.88,167.45,383.72Z" />
    <path class="BUNTAI_PEACOCK_OUTFIT_PEACOCK_OUTFIT_16_f" d="M274.92,425.35s-3.13,26.82-11.92,43c-3,.33-6,.62-9,.88,4.65-5.75-.54-5.58.88-9.45s10.22-31.92,10.22-31.92h0C271.4,426.47,274.92,425.35,274.92,425.35Z" />
    <path class="BUNTAI_PEACOCK_OUTFIT_PEACOCK_OUTFIT_16_f" d="M279.45,403.24l-.51,2.43-3.08,14.43s-1.24.26-3.5.68c-2.46.46-6.12,1.11-10.7,1.8l3.43-18.29h0C272,404.08,277.36,403.74,279.45,403.24Z" />
    <path class="BUNTAI_PEACOCK_OUTFIT_PEACOCK_OUTFIT_16_f" d="M281.62,392.92l.29,6s-2.41.19-6.63.43c-3.31.19-7.72.4-12.94.58-.67-4.43-1.11-24.89-1.11-24.89a135.4,135.4,0,0,1,22.92,8.58C284.35,387.72,281.52,390.73,281.62,392.92Z" />
    <path class="BUNTAI_PEACOCK_OUTFIT_PEACOCK_OUTFIT_16_f" d="M139.71,403.24c2.09.5,7.46.84,14.36,1h0l3.43,18.29c-4.59-.69-8.25-1.34-10.71-1.8-2.25-.42-3.5-.68-3.5-.68l-3.06-14.43Z" />
    <path class="BUNTAI_PEACOCK_OUTFIT_PEACOCK_OUTFIT_16_f" d="M164.29,459.82c1.41,3.87-3.77,3.7.88,9.45-3-.26-6-.55-9-.88-8.8-16.22-11.92-43-11.92-43s3.53,1.12,9.83,2.54h0S162.87,455.94,164.29,459.82Z" />
    <path class="BUNTAI_PEACOCK_OUTFIT_PEACOCK_OUTFIT_16_f" d="M157.18,375s.31,20.46-.36,24.89c-5.22-.18-9.63-.39-12.94-.58-4.21-.24-6.63-.43-6.63-.43l.3-6c.1-2.19.25-5.2.45-9.31C146.8,379.35,151.27,376.65,157.18,375Z" />
    <path class="BUNTAI_PEACOCK_OUTFIT_PEACOCK_OUTFIT_16_f" d="M265.09,427.89h0s-8.8,28-10.22,31.92,3.77,3.7-.88,9.45c-22.39,2-44.41,2.25-44.41,2.25s-22-.29-44.41-2.25c-4.65-5.75.53-5.58-.88-9.45s-10.22-31.92-10.22-31.92h0a258.1,258.1,0,0,0,111,0Z" />
    <path class="BUNTAI_PEACOCK_OUTFIT_PEACOCK_OUTFIT_16_f" d="M265.09,404.28h0l-3.43,18.29a352.89,352.89,0,0,1-52.08,4.25,352.89,352.89,0,0,1-52.08-4.25l-3.43-18.29h0c20.82.66,55.51.25,55.51.25S244.26,404.94,265.09,404.28Z" />
    <path class="BUNTAI_PEACOCK_OUTFIT_PEACOCK_OUTFIT_16_f" d="M261.23,375s.44,20.46,1.11,24.89c-6,.21-13.17.37-20.89.37H177.71c-7.72,0-14.84-.16-20.89-.37.67-4.43.36-24.89.36-24.89,1.13-.31,2.17-.58,3.11-.82.61,3.11,1.13,6.48,1.51,10.08a2.8,2.8,0,0,0,2.81,2.48l.31,0a2.78,2.78,0,0,0,2.53-3c-.42-3.84-1-7.41-1.61-10.72l.47-.08,5.58-10.6,18.35.3,19.34.26h0l18.6-.26,19.09-.3,5.58,10.6.46.08c-.64,3.31-1.19,6.88-1.6,10.72a2.78,2.78,0,0,0,2.54,3l.29,0a2.82,2.82,0,0,0,2.82-2.48c.38-3.6.9-7,1.5-10.08h0C259.81,374.45,260.1,374.72,261.23,375Z" />
    <path class="BUNTAI_PEACOCK_OUTFIT_PEACOCK_OUTFIT_16_h" d="M209.57,366.1s-18.62.49-28.47,0" />
    <path class="BUNTAI_PEACOCK_OUTFIT_PEACOCK_OUTFIT_16_h" d="M117.87,422.15s15,3.91,19.69,10.24l.06.06" />
    <path class="BUNTAI_PEACOCK_OUTFIT_PEACOCK_OUTFIT_16_h" d="M103,401.84a69.33,69.33,0,0,0-10,3.82,1.94,1.94,0,0,0-.91,2.65,2.07,2.07,0,0,0,2.71.89,66.17,66.17,0,0,1,9.3-3.55,2,2,0,0,0,1.39-2.45A2,2,0,0,0,103,401.84Z" />
    <path class="BUNTAI_PEACOCK_OUTFIT_PEACOCK_OUTFIT_16_h" d="M118.15,371.41A36.76,36.76,0,0,0,108,374a2,2,0,0,0-.92,2.66,2,2,0,0,0,1.8,1.1,1.88,1.88,0,0,0,.89-.21,33.14,33.14,0,0,1,8.65-2.22,2,2,0,0,0,1.88-2.09A2,2,0,0,0,118.15,371.41Z" />
    <path class="BUNTAI_PEACOCK_OUTFIT_PEACOCK_OUTFIT_16_h" d="M129.63,354.2a36.61,36.61,0,0,0-8-.67,2,2,0,1,0,.08,4,32,32,0,0,1,6.85.52,1.71,1.71,0,0,0,.55.09,2,2,0,0,0,1.95-1.45A2,2,0,0,0,129.63,354.2Z" />
    <path class="BUNTAI_PEACOCK_OUTFIT_PEACOCK_OUTFIT_16_h" d="M127.22,377.44s1.72,9.77,10.32,15.48" />
    <path class="BUNTAI_PEACOCK_OUTFIT_PEACOCK_OUTFIT_16_h" d="M123.25,388.5s1.7,6.69,9.42,12.66a37.38,37.38,0,0,0,7.54,4.51" />
    <path class="BUNTAI_PEACOCK_OUTFIT_PEACOCK_OUTFIT_16_h" d="M87.82,432.5a28.75,28.75,0,0,0,20.3,10,109.4,109.4,0,0,0,20.76-.62" />
    <path class="BUNTAI_PEACOCK_OUTFIT_PEACOCK_OUTFIT_16_h" d="M93.94,417.94s9.27,9.26,19.56,13.67c9.94,4.27,23.09,1.1,24.06.85h.06" />
    <path class="BUNTAI_PEACOCK_OUTFIT_PEACOCK_OUTFIT_16_h" d="M135.49,438.73s2-3.42,2.13-3.7c0-.08,0-1-.06-2.57v-.07c0-3.45.24-9.62,2.53-14.69" />
    <path class="BUNTAI_PEACOCK_OUTFIT_PEACOCK_OUTFIT_16_h" d="M129.3,405.36s7.19,9.3,10.79,12.34c0,0-5.63-9.54-7.53-16.41" />
    <path class="BUNTAI_PEACOCK_OUTFIT_PEACOCK_OUTFIT_16_h" d="M93.94,417.94s-2.19,5.31-3.54,6.91l-1.35,1.58a5.5,5.5,0,0,1-.65,5.32c-.2.28-.39.53-.58.75A10.83,10.83,0,0,1,85.29,435a43.85,43.85,0,0,1-1.84,8.22,13.05,13.05,0,0,1-2.92,4.28s-1.2,4.84-1.35,5.95a38.68,38.68,0,0,1-1.4,4.55l-1.71,9.82H132a6.48,6.48,0,0,0,2.12-5.38,71.41,71.41,0,0,0-1.13-7.51l1.49-3.14s.86-5.25,1.06-8.91,0-4.16,0-4.16-2.74,1.48-6.56,3.12h0l0,0a57.27,57.27,0,0,1-12.53,4c-8.51,1.38-16.31,8.65-15.74,8.78s10.48-1.92,10.48-1.92" />
    <line class="BUNTAI_PEACOCK_OUTFIT_PEACOCK_OUTFIT_16_h" x1="86.16" y1="419.29" x2="86.19" y2="419.33" />
    <line class="BUNTAI_PEACOCK_OUTFIT_PEACOCK_OUTFIT_16_h" x1="84.63" y1="416.21" x2="86.16" y2="419.29" />
    <path class="BUNTAI_PEACOCK_OUTFIT_PEACOCK_OUTFIT_16_h" d="M123.25,378.12s.57,3-4.62,9.36-7,16.5-9.37,18.85S85.32,416,84.64,416.2" />
    <path class="BUNTAI_PEACOCK_OUTFIT_PEACOCK_OUTFIT_16_h" d="M123.25,378.12c.1-.24,1.8-4.55,5.19-6.89s6.82-7.19,5-10.85" />
    <path class="BUNTAI_PEACOCK_OUTFIT_PEACOCK_OUTFIT_16_h" d="M144.1,348.09s-4,9.18-11.39,12.32" />
    <path class="BUNTAI_PEACOCK_OUTFIT_PEACOCK_OUTFIT_16_h" d="M126.07,378.61c.91,2.68-.72,6.26-2.83,9.89-1.48,2.54-3.17,5.1-4.41,7.39a70.41,70.41,0,0,0-5,13.48,45.26,45.26,0,0,0-12.48,5.17,35.42,35.42,0,0,1-7.44,3.4,29.8,29.8,0,0,1-7.78,1.35" />
    <path class="BUNTAI_PEACOCK_OUTFIT_PEACOCK_OUTFIT_16_h" d="M84.63,416.21h0c4.55-12.68,14-31,14-31" />
    <path class="BUNTAI_PEACOCK_OUTFIT_PEACOCK_OUTFIT_16_h" d="M137.25,359.87v0a9.17,9.17,0,0,1-2.61,10.78,96.29,96.29,0,0,0-7.42,6.77l-1.15,1.17a16.29,16.29,0,0,0-2.82-.49c-1-.12-2.21-.24-3.85-.33-5.32-.35-15.67,4.55-20.79,7.39-2.47-1.66.44-5.81,5.83-15.35s9.86-11.2,9.86-11.2" />
    <path class="BUNTAI_PEACOCK_OUTFIT_PEACOCK_OUTFIT_16_h" d="M128.12,342.81s-10.07,9.74-13.82,15.82c6.22-1,11.78,2.13,18.41,1.79l.73,0c1.47-.14,2.72-.29,3.81-.49,4.12-.74,5.94-2.1,7.67-5.05,2.2-3.73,2.77-4.9,2.77-4.9" />
    <path class="BUNTAI_PEACOCK_OUTFIT_PEACOCK_OUTFIT_16_h" d="M147,330.62h0a0,0,0,0,1,0,0c.11.16.62,1,1.39,2.11,2.36,3.53,7.07,10.4,9.35,12.46,3.12,2.84,3.41,3.18,3.41,3.18s-1.09.43-2.74,1" />
    <path class="BUNTAI_PEACOCK_OUTFIT_PEACOCK_OUTFIT_16_h" d="M152.83,350.76c-2,.34-.32.49-2.08.21a12.52,12.52,0,0,1-3.06-1c-1.12-.51-2.33-1.14-3.59-1.85-5.28-2.92-11.47-6.77-16-5.28,0,0-3.69-10.22.84-11.75s9.87,3.34,16.11,3.47c3,.06,3.55-.82,3.36-1.76a5,5,0,0,0-1.39-2.11" />
    <path class="BUNTAI_PEACOCK_OUTFIT_PEACOCK_OUTFIT_16_h" d="M165.84,373c.64,3.3,1.2,6.88,1.61,10.7a2.8,2.8,0,0,1-2.54,3.05h-.3a2.81,2.81,0,0,1-2.81-2.48c-.38-3.6-.9-7-1.51-10.08a97.67,97.67,0,0,0-7.46-23.45,42.67,42.67,0,0,0-2.07-3.92,2.74,2.74,0,0,1,.91-3.82,2.88,2.88,0,0,1,3.91.89,45.62,45.62,0,0,1,2.87,5.46A102,102,0,0,1,165.84,373Z" />
    <path class="BUNTAI_PEACOCK_OUTFIT_PEACOCK_OUTFIT_16_h" d="M131,334.94c3.47-2,9.36,3.87,13.12,7.59s6.18,4.29,6.18,4.29" />
    <line class="BUNTAI_PEACOCK_OUTFIT_PEACOCK_OUTFIT_16_h" x1="144.24" y1="425.35" x2="146.79" y2="420.78" />
    <path class="BUNTAI_PEACOCK_OUTFIT_PEACOCK_OUTFIT_16_h" d="M157.18,375s.3,20.48-.35,24.9c-1.46,2.29-2.66,4.2-2.76,4.37l3.42,18.29h0l-3.42,5.3h0s8.8,28,10.22,31.92-3.76,3.7.89,9.45" />
    <path class="BUNTAI_PEACOCK_OUTFIT_PEACOCK_OUTFIT_16_h" d="M209.57,433.92a255.72,255.72,0,0,1-55.5-6c-6.3-1.42-9.83-2.54-9.83-2.54s3.12,26.82,11.92,43c3,.32,6,.62,9,.88,22.37,2,44.39,2.24,44.39,2.24" />
    <path class="BUNTAI_PEACOCK_OUTFIT_PEACOCK_OUTFIT_16_h" d="M139.7,403.24l.52,2.43,3.07,14.43s1.25.26,3.5.68c2.46.45,6.12,1.11,10.7,1.8a354.52,354.52,0,0,0,52.08,4.25" />
    <path class="BUNTAI_PEACOCK_OUTFIT_PEACOCK_OUTFIT_16_h" d="M209.57,404.53s-34.68.41-55.5-.24c-6.9-.22-12.27-.55-14.37-1.05,2-1.66,4.18-3.9,4.18-3.9" />
    <path class="BUNTAI_PEACOCK_OUTFIT_PEACOCK_OUTFIT_16_h" d="M161.19,348.41a54.22,54.22,0,0,0,10.7,13.91" />
    <path class="BUNTAI_PEACOCK_OUTFIT_PEACOCK_OUTFIT_16_h" d="M147,330.62s3.92-3.85,9,.29,9.6,17.63,34.19,31.72" />
    <path class="BUNTAI_PEACOCK_OUTFIT_PEACOCK_OUTFIT_16_h" d="M209.57,400.29H177.72c-7.73,0-14.85-.16-20.89-.37-5.23-.18-9.64-.39-13-.58-4.21-.24-6.63-.43-6.63-.43l.3-6c.1-2.19.25-5.2.45-9.3,8.8-4.27,13.28-7,19.18-8.6l3.11-.81" />
    <path class="BUNTAI_PEACOCK_OUTFIT_PEACOCK_OUTFIT_16_h" d="M165.84,373l.47-.09,5.58-10.6,18.35.31,19.33.25" />
    <path class="BUNTAI_PEACOCK_OUTFIT_PEACOCK_OUTFIT_16_h" d="M209.57,366.1s21.62.49,31.48,0" />
    <path class="BUNTAI_PEACOCK_OUTFIT_PEACOCK_OUTFIT_16_h" d="M301.3,422.15s-15,3.91-19.72,10.24a.13.13,0,0,0,0,.06" />
    <path class="BUNTAI_PEACOCK_OUTFIT_PEACOCK_OUTFIT_16_h" d="M316.14,401.84a70.24,70.24,0,0,1,10,3.82,2,2,0,0,1,.91,2.65,2.06,2.06,0,0,1-1.82,1.09,2,2,0,0,1-.9-.2,66,66,0,0,0-9.31-3.55,2,2,0,0,1-1.39-2.45A2,2,0,0,1,316.14,401.84Z" />
    <path class="BUNTAI_PEACOCK_OUTFIT_PEACOCK_OUTFIT_16_h" d="M301,371.41A36.52,36.52,0,0,1,311.14,374a2,2,0,0,1,.93,2.66,2,2,0,0,1-1.81,1.1,1.9,1.9,0,0,1-.88-.21,33.14,33.14,0,0,0-8.65-2.22,2,2,0,0,1-1.89-2.09A2,2,0,0,1,301,371.41Z" />
    <path class="BUNTAI_PEACOCK_OUTFIT_PEACOCK_OUTFIT_16_h" d="M290.27,354.2a36.69,36.69,0,0,1,8-.67,2,2,0,1,1-.07,4,32,32,0,0,0-6.84.52,1.88,1.88,0,0,1-.57.09,2.05,2.05,0,0,1-1.95-1.45A2,2,0,0,1,290.27,354.2Z" />
    <path class="BUNTAI_PEACOCK_OUTFIT_PEACOCK_OUTFIT_16_h" d="M291.93,377.44s-1.72,9.77-10.31,15.48" />
    <path class="BUNTAI_PEACOCK_OUTFIT_PEACOCK_OUTFIT_16_h" d="M295.9,388.5s-1.7,6.7-9.41,12.66a37.38,37.38,0,0,1-7.56,4.51" />
    <path class="BUNTAI_PEACOCK_OUTFIT_PEACOCK_OUTFIT_16_h" d="M331.32,432.5a28.68,28.68,0,0,1-20.28,10c-13.14.65-20.8-.64-20.8-.64" />
    <path class="BUNTAI_PEACOCK_OUTFIT_PEACOCK_OUTFIT_16_h" d="M325.22,417.94s-9.27,9.26-19.57,13.67c-10,4.28-23.17,1.07-24.07.85h0" />
    <path class="BUNTAI_PEACOCK_OUTFIT_PEACOCK_OUTFIT_16_h" d="M283.66,438.73s-2-3.42-2.12-3.7c0-.08,0-1,0-2.57a.08.08,0,0,0,0-.07c0-3.45-.23-9.62-2.51-14.69" />
    <path class="BUNTAI_PEACOCK_OUTFIT_PEACOCK_OUTFIT_16_h" d="M289.86,405.36s-7.19,9.3-10.79,12.34c0,0,5.64-9.54,7.53-16.41" />
    <path class="BUNTAI_PEACOCK_OUTFIT_PEACOCK_OUTFIT_16_h" d="M325.22,417.94s2.2,5.31,3.55,6.91l1.35,1.58a5.5,5.5,0,0,0,.63,5.32c.2.28.4.53.57.75a11.06,11.06,0,0,0,2.55,2.51,43,43,0,0,0,1.84,8.22,13.3,13.3,0,0,0,2.91,4.28s1.21,4.84,1.35,5.95a37.91,37.91,0,0,0,1.42,4.55l1.71,9.82H287.2a6.48,6.48,0,0,1-2.12-5.38,74.49,74.49,0,0,1,1.13-7.51l-1.48-3.14s-.85-5.25-1.07-8.91,0-4.16,0-4.16,2.75,1.49,6.58,3.12a57,57,0,0,0,12.57,4c8.5,1.38,16.3,8.65,15.75,8.78s-10.5-1.92-10.5-1.92" />
    <polyline class="BUNTAI_PEACOCK_OUTFIT_PEACOCK_OUTFIT_16_h" points="334.52 416.21 332.99 419.29 332.97 419.33" />
    <path class="BUNTAI_PEACOCK_OUTFIT_PEACOCK_OUTFIT_16_h" d="M295.9,378.12s-.56,3,4.64,9.36,7,16.5,9.35,18.85,23.94,9.65,24.62,9.87" />
    <path class="BUNTAI_PEACOCK_OUTFIT_PEACOCK_OUTFIT_16_h" d="M295.9,378.12c-.08-.24-1-4.55-4.45-6.89s-6.8-7.19-5-10.85" />
    <path class="BUNTAI_PEACOCK_OUTFIT_PEACOCK_OUTFIT_16_h" d="M278.79,348.09s1,9.18,8.4,12.32" />
    <path class="BUNTAI_PEACOCK_OUTFIT_PEACOCK_OUTFIT_16_h" d="M333,419.29h0a29.73,29.73,0,0,1-7.77-1.35,35.7,35.7,0,0,1-7.45-3.4,45.13,45.13,0,0,0-12.48-5.17,69.31,69.31,0,0,0-5-13.48c-1.23-2.29-2.94-4.85-4.42-7.39-2.1-3.63-3.72-7.21-2.81-9.89" />
    <path class="BUNTAI_PEACOCK_OUTFIT_PEACOCK_OUTFIT_16_h" d="M320.54,385.18s9.44,18.34,14,31h0" />
    <path class="BUNTAI_PEACOCK_OUTFIT_PEACOCK_OUTFIT_16_h" d="M304.86,358.63s4.48,1.67,9.87,11.2,8.29,13.69,5.81,15.35c-5.11-2.84-15.46-7.74-20.77-7.39-1.64.09-2.91.21-3.87.33a15.6,15.6,0,0,0-2.8.49l-1.17-1.17c-.85-.85-1.89-2.06-3-3.3a29.51,29.51,0,0,0-3.63-3.47,9.18,9.18,0,0,1-2.6-10.78v0" />
    <path class="BUNTAI_PEACOCK_OUTFIT_PEACOCK_OUTFIT_16_h" d="M294.78,342.81s6.32,9.74,10.08,15.82c-6.21-1-11.05,2.13-17.67,1.79l-.73,0c-1.45-.14-2.71-.29-3.8-.49-4.12-.74-6-2.1-7.69-5.05-2-3.41-.14-4.69.2-4.88" />
    <path class="BUNTAI_PEACOCK_OUTFIT_PEACOCK_OUTFIT_16_h" d="M278.87,330.62l0,0c-.13.31-.81,2.39,5,2.29,6.23-.15,5.56-3.4,10.11-1.89s.85,11.75.85,11.75a6.85,6.85,0,0,0-2.18-.32c-4.21,0-9.33,3.12-13.81,5.6-1.26.71-2.46,1.35-3.58,1.85l0,0a12.66,12.66,0,0,1-3,1c-1.77.28-3.09,2.51-5.09,2.18" />
    <path class="BUNTAI_PEACOCK_OUTFIT_PEACOCK_OUTFIT_16_h" d="M261.45,351.75c-1.65-.52-2.72-.95-2.72-.95s.28-.35,3.4-3.19,16.18-16.41,16.72-16.95" />
    <path class="BUNTAI_PEACOCK_OUTFIT_PEACOCK_OUTFIT_16_h" d="M253.31,373c-.64,3.3-1.19,6.88-1.6,10.7a2.79,2.79,0,0,0,2.53,3.05h.3a2.83,2.83,0,0,0,2.83-2.48c.38-3.6.9-7,1.5-10.08,2.13-11.1,6.1-16.67,8.19-21.06a37.83,37.83,0,0,1,2.09-3.93,2.72,2.72,0,0,0-.91-3.81,2.89,2.89,0,0,0-3.92.88,51.54,51.54,0,0,0-2.87,5.46C259.21,356.58,255.41,362.15,253.31,373Z" />
    <path class="BUNTAI_PEACOCK_OUTFIT_PEACOCK_OUTFIT_16_h" d="M292,335c-2-.14-6.47.81-13.26,7.52a46.2,46.2,0,0,1-9.18,6.67" />
    <path class="BUNTAI_PEACOCK_OUTFIT_PEACOCK_OUTFIT_16_h" d="M292,335c1.61.88,1.58.11,0,0Z" />
    <path class="BUNTAI_PEACOCK_OUTFIT_PEACOCK_OUTFIT_16_h" d="M291.87,334.94l.14.07h0" />
    <line class="BUNTAI_PEACOCK_OUTFIT_PEACOCK_OUTFIT_16_h" x1="274.92" y1="425.35" x2="272.37" y2="420.78" />
    <path class="BUNTAI_PEACOCK_OUTFIT_PEACOCK_OUTFIT_16_h" d="M261.23,375s.44,20.48,1.11,24.9c1.45,2.29,2.64,4.2,2.75,4.37l-3.43,18.29h0l3.43,5.3h0s-8.8,28-10.21,31.92,3.76,3.7-.89,9.45" />
    <path class="BUNTAI_PEACOCK_OUTFIT_PEACOCK_OUTFIT_16_h" d="M209.57,433.92a255.77,255.77,0,0,0,55.52-6c6.31-1.42,9.83-2.54,9.83-2.54s-3.13,26.82-11.91,43c-3,.32-6,.62-9,.88-22.38,2-44.42,2.24-44.42,2.24" />
    <path class="BUNTAI_PEACOCK_OUTFIT_PEACOCK_OUTFIT_16_h" d="M279.45,403.24l-.52,2.43-3.07,14.43s-1.24.26-3.49.68c-2.47.45-6.13,1.11-10.71,1.8a354.43,354.43,0,0,1-52.09,4.25" />
    <path class="BUNTAI_PEACOCK_OUTFIT_PEACOCK_OUTFIT_16_h" d="M209.57,404.53s34.69.41,55.52-.24c6.89-.22,12.27-.55,14.36-1.05-2-1.66-4.17-3.9-4.17-3.9" />
    <path class="BUNTAI_PEACOCK_OUTFIT_PEACOCK_OUTFIT_16_h" d="M258.72,350.8s-4.36,4.91-11.46,11.52" />
    <path class="BUNTAI_PEACOCK_OUTFIT_PEACOCK_OUTFIT_16_h" d="M278.87,330.62s-3.92-3.85-9,.29-17.09,17.63-41.66,31.72" />
    <path class="BUNTAI_PEACOCK_OUTFIT_PEACOCK_OUTFIT_16_h" d="M258.87,374.21c.94.24,1.23.51,2.36.81a135.24,135.24,0,0,1,22.93,8.6c.19,4.1-2.65,7.11-2.54,9.3l.3,6s-2.42.19-6.64.43c-3.31.19-7.73.4-12.94.58-6,.21-13.16.37-20.89.37H209.58" />
    <path class="BUNTAI_PEACOCK_OUTFIT_PEACOCK_OUTFIT_16_h" d="M209.58,362.88l18.6-.25,19.08-.31,5.59,10.6.46.09h0" />
    <path class="BUNTAI_PEACOCK_OUTFIT_PEACOCK_OUTFIT_16_h" d="M144.71,424.51c-1.91-1.54-4.62-6.81-4.62-6.81" />
    <path class="BUNTAI_PEACOCK_OUTFIT_PEACOCK_OUTFIT_16_h" d="M279.07,417.7s-2.5,5.09-4.83,6.45" />
    <path class="BUNTAI_PEACOCK_OUTFIT_PEACOCK_OUTFIT_16_h" d="M137.62,435s3.13-7.58,6.62-9.68" />
    <g class="BUNTAI_PEACOCK_OUTFIT_PEACOCK_OUTFIT_16_i">
      <path d="M272.84,420.19s2.17,1.86,3,8S277,440.47,277,441.48s-3.47,16.31-3.47,16.31,5.64-12.71,5.07-20.55a111.87,111.87,0,0,0-1.23-11.36l-.75-3.3s2.33-2.36,3.39-3.29a6.25,6.25,0,0,0,1.52-2.51l.38-7.92s-3.78,5.84-3.78,6.7-.76,5.22-.76,5.22L276,419.32Z" />
      <path d="M265.05,357.75c7.76,4,11.29,2.67,11.29,2.67s4.8,11.6,7.4,14.17,4.39,8.51,4.39,8.51v2.08s4-6.29,3.8-6.56a13.6,13.6,0,0,1-.71-1.88s-11.45-5.31-8.86-16.85c-3.81-1.32-5.83-5.19-7.14-10.23-3.87,1.72-8.38,4-8.38,4Z" />
      <path d="M281.91,433.37s14.75,2,23.07,1,16.46-6.49,16.46-6.49-4.92,7.05-18.63,9.07c14.18-.55,23.54-4.46,23.54-4.46s-2.19,5.57-13.43,7-16,1.29-17,1.29-6.75.55-6.75.55,8.85,3.11,15,4.74,8.79,4.05,8.79,4.05-13.89-2.37-19.19-2.86-7.75-.76-7.75-.76h-1.51l-.91-6.18-1.65-3.77Z" />
      <path d="M282.53,431.29s1.46-2.66,10.73-5.41,18.72-4.55,18.15-2.81-15.9,4.82-20.86,7.24-5.35,3.52-5.35,3.52l-2.54-1.13Z" />
      <path d="M279.45,417.37s9.07-10,12.48-13.09,4.45,1.39,4.45,1.39L283.66,420.1s14.71-8.24,15.56-8.45,3.59,3.91,3.59,3.91-10.92,2-15.39,4.54-5.51,5.78-5.51,5.78Z" />
      <path d="M209.58,362.88v3.22s-1.75,31.29-2.46,33.82l-4,4.67,1,22.19-4.49,7.05,3.92,27.92h-32s31.35,2.77,34,3.18,4.55,4,0,4.34-2.69,2.25-2.69,2.25l-46.71-3.13s-9.27-18.39-11.92-26.54-2.5-11.54-2.5-11.54l-2-10.3,2.89-3.15s-4.52-9.86-5.35-12.68c2.77.53-6.45-7.12-10-14.37,4.16,3.87,7.47,6.91,7.47,6.91l.9.36-3-4.16s-2.39-3.87-1.93-3.53,6.21,5.26,6.21,5.26l1.17-.21V383.61l21.56-9.22.73-1.39s-2.67-12-5.74-18.38-4.85-9.66-4.78-9.87a26.29,26.29,0,0,1,2.34-1.94s4.73,7.51,8.18,20.9,4.39,21.74,5.62,22.09,1.53-3.35.07-12c5.49-10.66,6.48-11.47,6.48-11.47Z" />
      <path d="M153.81,377.19s-4.75-.28-7-2.6S143,363.71,143,363.71s3.88,5.58,8.89,7.72,5.72,3.6,5.72,3.6Z" />
      <path d="M137.25,333.21s5.56,4.6,10.43,5.8a58.36,58.36,0,0,1-3.8-5.16Z" />
      <path d="M94.93,419.32l1.77,2.83s-3.23,10.15-4.32,12l-1.09,1.81-3-3.16a5.18,5.18,0,0,0,.66-2.45,23,23,0,0,1,.22-3.6,12.18,12.18,0,0,1,1.51-2.2l3.28-5.19Z" />
      <path d="M104.27,413l-1.76-3.32s-2.76-1.85-2.93-2.48-1.14.14.72-4.48,6.85-18.08,11-23.28c3.12-3.36,3-3.73,3-3.73s.35-3.32,2.71-4.79,8.6-11.16,8.6-11.16l.71-2.09s-1.46-3,.9-3.88,6.63-8.36,10-9.35c-5.11-2.27,6.43,4.05,10,5.3s4.79,2.46,5.52.81c-.79-3.5-2-3.69-2-3.69s-.18,1-4.2-2.47-11.56-11.09-14.93-9.5a8.07,8.07,0,0,0-4.22,4.76l.41,3.47s-7.23,8.06-9.95,11.16a48.69,48.69,0,0,1-4,4.18,71.84,71.84,0,0,0-10.36,12,30.33,30.33,0,0,0-5.13,15.19l-8.95,18.76L85,416.33l1,3,1.28.72s6.57-1.75,9.92-2.77S104.27,413,104.27,413Z" />
      <path d="M134.19,433.13c-.64.1-10.77,3-17.85,1.14s-14.74-7.83-14.74-7.83,3.83,8.06,12.41,11.15c-12.06-2.65-17.31-5.14-17.31-5.14s6.37,8.85,21.17,10.44c7.84-.21,10.6-.79,12.44-1.64s6-1.79,5.82-2.52,1.49-3.7,1.49-3.7l-1.06-2.27Z" />
      <path d="M139.71,417.38s-7.38-9.6-10.41-13.47-5.51-5.28-5.51-2.74,1.85,3.43,7,9.65,7.73,6.88,7.73,6.88-11.56-4.61-14.32-6.54,1.48,2.77,6.48,5.81a57.85,57.85,0,0,0,8.2,4.27l-4.14,8s-15.15-7.26-20.19-8.09-5.53.35-5.53.35,11.28,2.8,16.88,5.82,7.71,4.06,7.71,4.06l4,1.35,1.47-9.69s1.15-4,1.18-4.17.31-1.2.31-1.2Z" />
    </g>
  </g>
</svg>