<svg xmlns="http://www.w3.org/2000/svg" viewBox="0 0 432 432">
  <defs>
    <style>.BUNTAI_PEACOCK_OUTFIT_PEACOCK_OUTFIT_37_a{isolation:isolate;}.BUNTAI_PEACOCK_OUTFIT_PEACOCK_OUTFIT_37_b{fill:#101229;}.BUNTAI_PEACOCK_OUTFIT_PEACOCK_OUTFIT_37_c{fill:#d99d8b;}.BUNTAI_PEACOCK_OUTFIT_PEACOCK_OUTFIT_37_d{fill:none;stroke:#000;stroke-linecap:round;stroke-linejoin:round;stroke-width:1.28px;}.BUNTAI_PEACOCK_OUTFIT_PEACOCK_OUTFIT_37_e{opacity:0.43;mix-blend-mode:multiply;}</style>
  </defs>
  <g class="BUNTAI_PEACOCK_OUTFIT_PEACOCK_OUTFIT_37_a">
    <path class="BUNTAI_PEACOCK_OUTFIT_PEACOCK_OUTFIT_37_b" d="M292,384.29a.13.13,0,0,1,0,.06,28.1,28.1,0,0,1-1.81,5.09c-1.07-2.53-2.14-4.78-3.1-6.67a27.11,27.11,0,0,0,.64-3.43l.09-.76c0-.37.07-.74.1-1.11q.09-1.1.12-2.22c0-.25,0-.5,0-.75v0c.12-12.42-4.4-27.49-8.22-31.28l-.14-.16c-.22-.23-.48-.51-.79-.8-.15-.16-.31-.31-.48-.48-.52-.49-1.11-1-1.77-1.64-.43-.4-.9-.82-1.38-1.25-1-.87-2-1.79-3.08-2.73-5.33-4.69-11.31-9.74-11.48-9.95l-1.58-2-.07,0c-8.29,4.58-15.39,10.61-21.77,14.58-.62.39-1.22.75-1.82,1.1s-1.06.59-1.59.86-.89.44-1.32.64c-.28.13-.57.25-.85.36s-.61.25-.92.35-.58.2-.87.29-.63.18-.94.26c.06,5.85-.63,12.09-3.41,14.94a6.79,6.79,0,0,1-9.81,0c-2.71-2.78-3.4-8.82-3.35-14.59-1-.16-2-.35-3-.55s-1.94-.42-2.88-.66l-1-.27-.37-.1-.28-.07c-.61-.17-1.22-.35-1.82-.54l-.7-.22h0l-1.26-.42-.72-.23c-.65-.22-1.3-.45-1.94-.69a108,108,0,0,1-12.59-5.82l-2.22-1.19-1.5-.82c-3.64-2-7.32-4.16-11.17-6.33-2-1.12-4.66-2.57-5.21-2.86h0l-.08,0-.52,1c-2.16,4.33-21.62,15.32-23.85,17.67-.72,2.32-2.23,11.24-2.23,21.1,0,.58,0,1.16,0,1.74s0,1.19.05,1.78,0,1.08.08,1.62.09,1.31.14,2v0c0,.15,0,.29,0,.44,0,.33.06.65.1,1s.07.7.12,1.05.11.92.18,1.37.14.9.22,1.35c0,.28.09.56.15.83s.11.61.18.91.08.41.13.61c.09.41.18.81.29,1.21.15.6.31,1.2.49,1.78q.07.28.18.57c.12.4.25.78.39,1.16a.94.94,0,0,0,.06.15c.18.52.39,1,.6,1.53h0c-.6,1.18-1.24,2.51-1.89,3.95h0c-.28.6-.55,1.21-.82,1.85l0,.05a.36.36,0,0,0,0,.09v0h0l-.09-.17a40.62,40.62,0,0,1-4.22-11.27s0,0,0-.07a57.14,57.14,0,0,1-1.11-6.89.09.09,0,0,1,0-.05c-1.69-16.19,2.41-32.32,2.41-32.32s21.5-12.67,23.77-17.24c0,0,2.31-6.89,6.46-6.25,9.38,5.84,33.06,22.16,51,23.89,0,0-1.11,16,2.86,16s2.94-15.94,2.94-15.94,21.18-12.26,34-22.11l0,0c.39-.2,4.16-2,6.06,4.38,0,0,16.49,15.06,19.89,18.72C289.36,345.52,296,368.43,292,384.29Z" />
    <path class="BUNTAI_PEACOCK_OUTFIT_PEACOCK_OUTFIT_37_c" d="M287,382.76c1,1.89,2,4.15,3.1,6.67,6.08,14.4,11.95,37.61-4.13,52.67H143.55c-16.24-15.2-10.1-38.72-4-53.08h0c1-2.23,1.92-4.24,2.78-6h0c-6.09-14.19-2.44-38.15-1.2-42.19,2.24-2.34,21.7-13.33,23.86-17.67l.51-1s3.25,2.22,5.5,3.42c13.48,7.18,25.19,14.78,41.31,17.42,0,5.77.63,11.8,3.34,14.59a6.8,6.8,0,0,0,9.81,0c2.78-2.84,3.47-9.08,3.41-14.93,8.51-2.07,18-11.82,30.06-18.49l1.58,2c.27.33,15.58,13.08,19.07,16.85l.15.15C284.49,347.9,290.32,369.91,287,382.76Z" />
    <path class="BUNTAI_PEACOCK_OUTFIT_PEACOCK_OUTFIT_37_d" d="M139.59,389c-6.14,14.36-12.28,37.88,4,53.08H286c16.08-15.06,10.21-38.27,4.13-52.67-1.07-2.52-2.14-4.78-3.1-6.67-2-3.92-3.51-6.28-3.51-6.28" />
    <path class="BUNTAI_PEACOCK_OUTFIT_PEACOCK_OUTFIT_37_d" d="M142.37,383c-.86,1.73-1.82,3.74-2.78,6" />
    <path class="BUNTAI_PEACOCK_OUTFIT_PEACOCK_OUTFIT_37_d" d="M146,376.48s-1.58,2.47-3.65,6.56" />
    <path class="BUNTAI_PEACOCK_OUTFIT_PEACOCK_OUTFIT_37_d" d="M142.37,383h0c-6.09-14.19-2.44-38.15-1.2-42.19,2.24-2.34,21.7-13.33,23.86-17.67l.51-1s3.81,2.25,6.06,3.46c12.92,7,24.63,14.74,40.75,17.38,0,5.77.63,11.8,3.34,14.59a6.8,6.8,0,0,0,9.81,0c2.78-2.84,3.47-9.08,3.41-14.93,8.51-2.07,18-11.82,30.06-18.49l1.58,2c.27.33,15.58,13.08,19.07,16.85l.15.15c4.72,4.71,10.55,26.72,7.25,39.57" />
    <polyline class="BUNTAI_PEACOCK_OUTFIT_PEACOCK_OUTFIT_37_d" points="139.59 389.01 139.59 389.02 139.59 389.02" />
    <path class="BUNTAI_PEACOCK_OUTFIT_PEACOCK_OUTFIT_37_d" d="M166.79,314.77c9.38,5.84,33.06,22.16,51,23.89,0,0-1.11,16,2.86,16s2.94-15.94,2.94-15.94,21.18-12.26,34-22.11l0,0" />
    <path class="BUNTAI_PEACOCK_OUTFIT_PEACOCK_OUTFIT_37_d" d="M263.63,321S280.12,336,283.52,339.7c5.84,5.82,12.46,28.73,8.43,44.59a.13.13,0,0,1,0,.06,28.1,28.1,0,0,1-1.81,5.09" />
    <path class="BUNTAI_PEACOCK_OUTFIT_PEACOCK_OUTFIT_37_d" d="M160.33,321c-2.27,4.57-23.77,17.24-23.77,17.24s-4.1,16.13-2.41,32.32a59.15,59.15,0,0,0,1.13,7,40.62,40.62,0,0,0,4.22,11.27l.09.17" />
    <path class="BUNTAI_PEACOCK_OUTFIT_PEACOCK_OUTFIT_37_d" d="M160.33,321s2.31-6.89,6.46-6.25" />
    <path class="BUNTAI_PEACOCK_OUTFIT_PEACOCK_OUTFIT_37_d" d="M263.63,321c-1.9-6.39-5.67-4.58-6.06-4.38l0,0" />
    <g class="BUNTAI_PEACOCK_OUTFIT_PEACOCK_OUTFIT_37_e">
      <path d="M249.64,386.61s-30.53,4-48.18,7.63S174,399.36,174,399.36s32.38-10.87,43-12.75S249.64,386.61,249.64,386.61Z" />
      <path d="M256.71,387.78s-27.46,4.87-39,7.07-20.5,4-20.5,4,28.35-4.39,37.2-5.54S256.71,387.78,256.71,387.78Z" />
      <path d="M143.67,380.56S139,368.8,139.32,362.9a94.64,94.64,0,0,0,.27,13.3,34,34,0,0,1-3.4-9.92,102.06,102.06,0,0,1-1.39-10.23s-1.6,11.75-.11,19a62,62,0,0,0,4.9,13.95Z" />
      <path d="M293,376.81c-.55,4-1.16,8.6-1.21,8.95v0c-.92,2.59-1.68,4.27-1.68,4.27l-3.58-8.46s4.05-17.94,3.81-23.84c.27,8.67-.23,19.47-.23,19.47a36.08,36.08,0,0,0,2.62-8A38.82,38.82,0,0,1,293,376.81Z" />
      <path d="M290.12,389.43s-1,29.68-14,36.75-42.89,11.46-56.07,6.09h-.09c-15,5.37-49,1-63.86-6.09s-15.59-39.44-15.59-39.44-8.12,19.77-7.35,33.05,10.43,22.31,10.43,22.31H287.06a38.28,38.28,0,0,0,9.16-22.31C296.89,406.51,290.12,389.43,290.12,389.43Z" />
    </g>
  </g>
</svg>