<svg xmlns="http://www.w3.org/2000/svg" viewBox="0 0 432 432">
  <defs>
    <style>.BUNTAI_PEACOCK_OUTFIT_PEACOCK_OUTFIT_26_a{isolation:isolate;}.BUNTAI_PEACOCK_OUTFIT_PEACOCK_OUTFIT_26_b{fill:#4fa8ff;}.BUNTAI_PEACOCK_OUTFIT_PEACOCK_OUTFIT_26_c{fill:#e74aff;}.BUNTAI_PEACOCK_OUTFIT_PEACOCK_OUTFIT_26_d{fill:#c6ceff;}.BUNTAI_PEACOCK_OUTFIT_PEACOCK_OUTFIT_26_e{fill:#fff;}.BUNTAI_PEACOCK_OUTFIT_PEACOCK_OUTFIT_26_f{fill:#7c6f58;}.BUNTAI_PEACOCK_OUTFIT_PEACOCK_OUTFIT_26_g,.BUNTAI_PEACOCK_OUTFIT_PEACOCK_OUTFIT_26_i{fill:none;stroke:#000;stroke-linecap:round;stroke-linejoin:round;}.BUNTAI_PEACOCK_OUTFIT_PEACOCK_OUTFIT_26_g{stroke-width:1.23px;}.BUNTAI_PEACOCK_OUTFIT_PEACOCK_OUTFIT_26_h{opacity:0.43;mix-blend-mode:multiply;}.BUNTAI_PEACOCK_OUTFIT_PEACOCK_OUTFIT_26_i{stroke-width:1.46px;}</style>
  </defs>
  <g class="BUNTAI_PEACOCK_OUTFIT_PEACOCK_OUTFIT_26_a">
    <path class="BUNTAI_PEACOCK_OUTFIT_PEACOCK_OUTFIT_26_b" d="M123.89,412.5c2.36,3.5-18.08,10.23-18.08,10.23l-5-7.74S121.53,409,123.89,412.5Z" />
    <path class="BUNTAI_PEACOCK_OUTFIT_PEACOCK_OUTFIT_26_b" d="M113.15,428.45l-.09,0c-.25-.09-4.17-.19-4.4-.28a61.87,61.87,0,0,1-14.19-8,67.05,67.05,0,0,1-5.56-4.6,17,17,0,0,1,2.69-6.9,19.74,19.74,0,0,1,3-3.53L98,410.47l2.89,4.52,5,7.74c1,1.65,5.79,3.3,6.85,5C112.82,427.94,113,428.19,113.15,428.45Z" />
    <path class="BUNTAI_PEACOCK_OUTFIT_PEACOCK_OUTFIT_26_c" d="M199.79,409.09q1.07.77,2.1,1.56a10.09,10.09,0,0,1-2.31,3l-2-1.27A10.15,10.15,0,0,0,199.79,409.09Z" />
    <path class="BUNTAI_PEACOCK_OUTFIT_PEACOCK_OUTFIT_26_c" d="M219.79,425.42c.51,1.18,1,2.36,1.44,3.56-7-5.38-14.23-10.52-21.65-15.35a10.09,10.09,0,0,0,2.31-3Q211.18,417.66,219.79,425.42Z" />
    <path class="BUNTAI_PEACOCK_OUTFIT_PEACOCK_OUTFIT_26_b" d="M192.65,400.17c.35-1.93,3.62-1.59,3.39.57a1.67,1.67,0,0,1-1.89,1.38A1.79,1.79,0,0,1,192.65,400.17Z" />
    <path class="BUNTAI_PEACOCK_OUTFIT_PEACOCK_OUTFIT_26_c" d="M199.79,409.09h0a10.33,10.33,0,0,1-2.13,3.22l0,0a294.68,294.68,0,0,0-34.38-19.09,238.74,238.74,0,0,0-57.87-18.8l-.66-5.65c-.2-1.68-.39-3.36-.59-5a269.11,269.11,0,0,1,36.8,12.15l.81.33c.74.3,1.46.61,2.19.92q7.23,3.07,14.28,6.56c1.14.56,2.27,1.13,3.4,1.71,7.74,4,15.3,8.27,22.62,12.93l2.06,1.32,3,2,2.16,1.45.28.2c.43.29.86.58,1.28.88,1.7,1.17,3.38,2.37,5.06,3.59a1.16,1.16,0,0,1,.21.16l.78.57C199.29,408.71,199.54,408.9,199.79,409.09Z" />
    <path class="BUNTAI_PEACOCK_OUTFIT_PEACOCK_OUTFIT_26_b" d="M176,388.45a1.81,1.81,0,0,0,1.51,1.95,1.67,1.67,0,0,0,1.88-1.39C179.62,386.86,176.35,386.51,176,388.45Z" />
    <path class="BUNTAI_PEACOCK_OUTFIT_PEACOCK_OUTFIT_26_b" d="M164.07,371.7a6.78,6.78,0,0,0-4.2,1.29,6.4,6.4,0,0,0-1.94,3,11.37,11.37,0,0,0,.27,7.75c1.14.56,2.27,1.13,3.4,1.71a8.66,8.66,0,0,1-2-5.85,6.32,6.32,0,0,1,4.86-5.47,7.46,7.46,0,0,1,7.36,2.69,6.15,6.15,0,0,1,.12,7.32,6.77,6.77,0,0,0,.38-8.37A10,10,0,0,0,164.07,371.7Z" />
    <path class="BUNTAI_PEACOCK_OUTFIT_PEACOCK_OUTFIT_26_b" d="M177.6,380.76a12.88,12.88,0,0,1,8.3,8.62,10.8,10.8,0,0,1-1.68,9l2.06,1.32A11.08,11.08,0,0,0,188,389,13.35,13.35,0,0,0,177.6,380.76Z" />
    <path class="BUNTAI_PEACOCK_OUTFIT_PEACOCK_OUTFIT_26_b" d="M202.46,401.7A13.35,13.35,0,0,0,192,393.51a12.89,12.89,0,0,1,8.3,8.61,10.74,10.74,0,0,1-.53,7q1.07.77,2.1,1.56A11.19,11.19,0,0,0,202.46,401.7Z" />
    <path class="BUNTAI_PEACOCK_OUTFIT_PEACOCK_OUTFIT_26_d" d="M224.68,439.5H200.45l0,0a64.26,64.26,0,0,0-19.1-16.5c-7.3-4.13-15.34-6.83-22.66-10.89-6.91-3.84-13.43-9.34-16-16.4-.16-.43-.3-.85-.43-1.29l-.57,0c-6.59.48-13.52-1.18-19.85-3.45-6.51-2.34-12.87-5.21-19.58-6.84a41.14,41.14,0,0,0-9.34-1.24c-.26-.23-.5-.47-.76-.71.41-.68,1.07-1.34,1.47-2l-.13-.59c-.56-2.38-1.1-4.76-1.65-7.13,4.54.51,9.08,1.19,13.59,2a238.74,238.74,0,0,1,57.87,18.8,294.68,294.68,0,0,1,34.38,19.09l2,1.26,1.83,1.21.7.46.91.62c.28.18.55.36.83.56l1.92,1.29.46.32h0q7.63,5.25,15,10.88h0A105.07,105.07,0,0,1,224.68,439.5Z" />
    <path class="BUNTAI_PEACOCK_OUTFIT_PEACOCK_OUTFIT_26_d" d="M219.62,425c-.3-.7-.61-1.4-.93-2.11a110.15,110.15,0,0,0-6.24-11.68q-2-3.33-4.32-6.51t-4.61-6q-2.62-3.19-5.51-6.2c-.58-.6-1.16-1.2-1.75-1.79l-.45-.45c-.74-.73-1.49-1.45-2.25-2.17h0l-.43-.4c-.6-.56-1.21-1.12-1.83-1.66q-.24-.23-.48-.42c-.64-.58-1.29-1.14-1.95-1.69h0c-.4-.34-.8-.68-1.2-1-.2-.18-.4-.34-.61-.5l-1.21-1c-.37-.3-.75-.59-1.13-.88s-.94-.71-1.41-1.07h0c-.55-.41-1.1-.82-1.65-1.21a.24.24,0,0,0-.09-.06l-1.11-.79c-.56-.41-1.13-.8-1.7-1.18s-1.37-.92-2.06-1.36h0c-.75-.49-1.5-1-2.27-1.43l-1.15-.69-.43-.25h0l-.72-.42c-.78-.46-1.56-.9-2.34-1.33l-1.58-.86c-.53-.29-1.06-.57-1.6-.84s-1.06-.55-1.6-.81h0l-1.62-.79L162,368l-1,.37-.61.23-.42.17-1,.42-1.78.76c-.48.21-1,.43-1.45.66l-1,.47-1.39.68-1.38.7-.19.1-.41.22-.42.22-.14.07-.24.13-.58.32-.62.35-.08,0-.06,0c-.39.21-.77.44-1.16.67,0,0,0,0-.05,0l-.29.17a2.38,2.38,0,0,0-.3.18c-1.17.7-2.33,1.43-3.46,2.19l0,0,1.23.54,1.53.67,2.7,1.2c.69.3,1.39.62,2.08.94s1.38.63,2.06,1,1.22.57,1.83.87l.46.22,2.39,1.16-.08-.21h0c0-.08-.05-.15-.07-.22s-.1-.29-.14-.44a3.31,3.31,0,0,1-.12-.42,10.19,10.19,0,0,1-.34-1.8c0-.26,0-.51-.06-.77a.75.75,0,0,1,0-.15h0v-.28s0,0,0,0v-.33c0-.15,0-.3,0-.45s0-.06,0-.09l0-.29c0-.11,0-.22,0-.34s0-.24.05-.36.05-.24.08-.36a.53.53,0,0,1,0-.12s0,0,0,0a1.31,1.31,0,0,1,.06-.27.09.09,0,0,1,0-.05c0-.16.08-.32.13-.47a1.83,1.83,0,0,1,.08-.25c.07-.19.14-.38.22-.57a4,4,0,0,1,.21-.47c.06-.11.11-.22.17-.32a3.87,3.87,0,0,1,.34-.55l.11-.15a2.07,2.07,0,0,1,.19-.25l.21-.23a2.66,2.66,0,0,1,.23-.24l.26-.23a3.58,3.58,0,0,1,.45-.31,4.73,4.73,0,0,1,1-.49,6.28,6.28,0,0,1,1.07-.31,8.32,8.32,0,0,1,.85-.13l.42,0,.43,0a9.48,9.48,0,0,1,2,.18l.39.08a10.93,10.93,0,0,1,1.12.31c.2.07.39.14.57.22l.65.29,0,0c.16.08.32.16.48.26a3.64,3.64,0,0,1,.39.23l.4.27.44.32c.19.15.38.31.55.47a4.16,4.16,0,0,1,.42.42c.14.15.28.31.41.47s.28.36.41.55a7.3,7.3,0,0,1,1.23,4.69,6.29,6.29,0,0,1-.18,1.07,4.26,4.26,0,0,1-.15.47c0,.1-.07.21-.11.31s0,0,0,0-.11.26-.17.39a2.56,2.56,0,0,1-.22.39.2.2,0,0,1-.05.09l-.11.17a1.79,1.79,0,0,1-.2.28l-.18.22a.42.42,0,0,1-.11.13l-.08.08a4.69,4.69,0,0,0,.6-1,3.05,3.05,0,0,0,.13-.32,3.33,3.33,0,0,0,.16-.51,2.29,2.29,0,0,0,.07-.28,4.49,4.49,0,0,0,.1-.64,6.24,6.24,0,0,0,0-1.06c0-.14,0-.28,0-.41s-.05-.28-.07-.42-.06-.27-.1-.41a3.17,3.17,0,0,0-.12-.41,2.74,2.74,0,0,0-.15-.4,4.9,4.9,0,0,0-.38-.76c0-.08-.09-.16-.14-.24l-.25-.36c-.06-.07-.11-.15-.18-.22a2,2,0,0,0-.19-.22,7.23,7.23,0,0,0-.8-.76q-.33-.25-.69-.48l-.46-.27-.48-.23-.49-.2-.45-.15-.46-.12-.58-.11-.58-.07-.52,0a6.07,6.07,0,0,0-.85.06,4.62,4.62,0,0,0-.63.11l-.4.11-.38.13-.28.11a6.53,6.53,0,0,0-.7.35l-.23.14a5.15,5.15,0,0,0-.45.32,2.67,2.67,0,0,0-.36.31.19.19,0,0,0-.07.06c-.12.11-.23.22-.34.34a3.33,3.33,0,0,0-.25.28,4.35,4.35,0,0,0-.32.43,1.44,1.44,0,0,0-.18.25c-.09.14-.17.28-.25.43s0,0,0,.05l-.08.18a5.51,5.51,0,0,0-.37,1c0,.15-.08.3-.11.46s0,.33,0,.49a4.58,4.58,0,0,0,0,.53v0c0,.13,0,.26,0,.39l0,.29a5.81,5.81,0,0,0,.09.58,2.21,2.21,0,0,0,0,.25,0,0,0,0,0,0,0,1.06,1.06,0,0,0,0,.19c0,.09.05.18.07.27s.1.3.14.44,0,.12.08.19a9.9,9.9,0,0,0,.79,1.6,1.07,1.07,0,0,0,.13.21l.16.24a2.68,2.68,0,0,0,.18.28h0a2.43,2.43,0,0,0,.24.32q2.89,1.49,5.76,3h0l1.29.7.34.19,2,1.13c.68.37,1.36.76,2,1.14q2.84,1.62,5.62,3.3c1.86,1.13,3.7,2.27,5.53,3.44a.57.57,0,0,0,.08-.13l0-.07a.38.38,0,0,0,.09-.13c.11-.16.21-.33.31-.49a10.17,10.17,0,0,0,.73-1.48l.07-.18c0-.1.08-.19.11-.29h0s0,0,0-.06,0,0,0-.05l.06-.19a.76.76,0,0,0,.06-.2c0-.07.05-.16.07-.24a2,2,0,0,0,.06-.23c0-.11.05-.21.07-.32a3.55,3.55,0,0,0,.09-.47c0-.12,0-.24.05-.36a.5.5,0,0,0,0-.12,0,0,0,0,1,0,0,.86.86,0,0,1,0-.16.91.91,0,0,0,0-.17l0-.41a.41.41,0,0,0,0-.11c0-.07,0-.14,0-.21v-.2c0-.11,0-.22,0-.33s0-.22,0-.34a2.11,2.11,0,0,1,0-.25,5.14,5.14,0,0,0-.06-.55,7.58,7.58,0,0,0-.18-.95,2.86,2.86,0,0,0-.07-.28c0-.13-.07-.26-.11-.39a5.66,5.66,0,0,0-.27-.79,3.38,3.38,0,0,0-.18-.44,8,8,0,0,0-.57-1.13,4.34,4.34,0,0,0-.28-.46c-.06-.1-.12-.2-.19-.3a11.35,11.35,0,0,0-1.31-1.64c-.14-.15-.28-.29-.43-.43a3.61,3.61,0,0,0-.35-.33,10.92,10.92,0,0,0-1.62-1.25l-.25-.16a6.11,6.11,0,0,0-.61-.36,6.82,6.82,0,0,0-.66-.34,4.94,4.94,0,0,0-.57-.26s0,0,0,0q-.42-.18-.87-.33a12.68,12.68,0,0,1,1.85.4c.23.07.46.14.69.23a11.52,11.52,0,0,1,1.61.7l.57.31h0l0,0,.27.16.2.13.42.26h0l.28.2.07.05.12.09,0,0a.71.71,0,0,1,.14.1l.05,0h0l.14.12.42.34.06.06,0,0h0l.11.1,0,0h0a.57.57,0,0,1,.11.11,4,4,0,0,1,.3.29.08.08,0,0,1,0,.05,1.88,1.88,0,0,1,.24.25,1.62,1.62,0,0,1,.18.2.12.12,0,0,1,0,.05l.12.13c.14.16.27.32.4.49a4.22,4.22,0,0,1,.27.36.64.64,0,0,1,.1.13l.16.23.11.17a1,1,0,0,1,.12.19.09.09,0,0,1,0,.06.07.07,0,0,1,0,.06,11.76,11.76,0,0,1,.57,1s0,0,0,0,.08.17.12.26.18.42.26.63.11.31.16.47,0,.1.05.16a.13.13,0,0,1,0,.06c.06.19.1.38.15.57s.07.32.11.48.06.32.08.48.05.42.08.63,0,.71,0,1.07,0,.47,0,.69a.22.22,0,0,1,0,.08,1.24,1.24,0,0,1,0,.27.38.38,0,0,1,0,.15,1.11,1.11,0,0,1,0,.17.19.19,0,0,1,0,.08.68.68,0,0,0,0,.14,8.17,8.17,0,0,1-.17.86c0,.14-.06.27-.1.41a4,4,0,0,1-.15.49.14.14,0,0,1,0,.06l-.09.28a.11.11,0,0,1,0,.08,4.94,4.94,0,0,1-.19.49,8.76,8.76,0,0,1-.39.82,3.62,3.62,0,0,1-.24.43,9.32,9.32,0,0,1-.84,1.24l-.08.1.78.51.11.07.6.39c.08.06.16.1.23.16l.63.42c.22.14.44.28.65.43h0l.41.28c1.09.73,2.18,1.47,3.26,2.22l.44.31.34.23,1.57,1.11a1.33,1.33,0,0,1,.19.14.05.05,0,0,1,0,0c.47.33.94.66,1.41,1l.2.15c.17.11.33.23.49.35l.19.13.18.13h0l.1.08.11.08.74.55a.16.16,0,0,1,.08.06l.21.15.51.37a10.29,10.29,0,0,0,.62-1.95c0-.15.06-.3.08-.45a.25.25,0,0,0,0-.07s0-.05,0-.07h0l0-.2a10.46,10.46,0,0,0,.1-1.57v-.17c0-.16,0-.32,0-.49s0-.42-.07-.63-.05-.39-.09-.59,0-.17-.05-.25-.08-.34-.12-.51a10.57,10.57,0,0,0-.48-1.44,10.78,10.78,0,0,0-.68-1.36c-.09-.15-.18-.3-.28-.45l-.24-.36a10.28,10.28,0,0,0-.7-.93c-.14-.17-.29-.34-.44-.5s-.35-.37-.54-.55l-.36-.34a8.64,8.64,0,0,0-.88-.72l-.25-.18a1.15,1.15,0,0,0-.19-.14,2.92,2.92,0,0,0-.37-.24,1.17,1.17,0,0,0-.3-.19s0,0-.06,0a.13.13,0,0,0-.07,0s0,0,0,0l-.49-.28-.3-.15a3.55,3.55,0,0,0-.44-.21,10.5,10.5,0,0,0-1.21-.48,13.33,13.33,0,0,1,10.44,8.19c.08.21.15.43.21.65a2.45,2.45,0,0,1,.08.29,3.59,3.59,0,0,1,.12.47,6.44,6.44,0,0,1,.17,1,10.39,10.39,0,0,1,.09,1.58c0,.13,0,.26,0,.39a.66.66,0,0,1,0,.14,1.21,1.21,0,0,1,0,.19c0,.1,0,.2,0,.3a1.1,1.1,0,0,1,0,.18s0,.08,0,.12a5.07,5.07,0,0,1-.09.54c0,.11,0,.23-.07.35s-.07.31-.11.46,0,0,0,0v0a1,1,0,0,1-.05.16c-.07.27-.16.54-.25.8,0,0,0,0,0,0l0,.06-.09.22a2.55,2.55,0,0,1-.13.29l-.08.2c-.07.17-.16.34-.24.5h0l2.31,1.76.33.25c.68.52,1.35,1,2,1.58l2,1.6,1.84,1.5a3.11,3.11,0,0,1,.28.23l.33.27,1.55,1.29.46.38.22.19c.83.7,1.66,1.4,2.48,2.12l.09.08h0v0s0,0,0,0l.43.37.1.08c1.13,1,2.26,2,3.37,3C219.73,425.28,219.68,425.16,219.62,425Zm-40.24-36s0,.07,0,.1,0,.08,0,.1a0,0,0,0,1,0,0,.56.56,0,0,1,0,.12,1,1,0,0,1-.09.21l0,.08a.22.22,0,0,1-.05.08l0,0a1.17,1.17,0,0,1-.15.16,1.07,1.07,0,0,1-.16.14,1.45,1.45,0,0,1-.38.22.48.48,0,0,1-.18.06h0l-.08,0H178l-.16,0h0a1.45,1.45,0,0,1-.36,0,.83.83,0,0,1-.27-.07l-.06,0a.29.29,0,0,1-.1,0l-.09,0-.06,0,0,0-.08,0,0,0-.13-.1-.08-.06-.05-.06,0,0,0,0,0,0a.75.75,0,0,1-.13-.18l-.1-.15v0l0,0a.2.2,0,0,0,0-.08l0-.09h0a1.44,1.44,0,0,1-.09-.79C176.35,386.5,179.62,386.85,179.38,389Zm13.25,11.52a.33.33,0,0,1,0-.1v-.1c0-.05,0-.1,0-.16a1.41,1.41,0,0,1,.23-.56,1.29,1.29,0,0,1,.38-.39,1.62,1.62,0,0,1,.48-.24.87.87,0,0,1,.28-.05,1.66,1.66,0,0,1,.7,0l.29.08a1.71,1.71,0,0,1,.33.17,1.42,1.42,0,0,1,.28.22l.11.12a.77.77,0,0,1,.14.21.75.75,0,0,1,.08.18,1,1,0,0,1,.07.21l0,.18a1.4,1.4,0,0,1,0,.41,1,1,0,0,1,0,.23.56.56,0,0,1,0,.12,1.59,1.59,0,0,1-.15.29,1,1,0,0,1-.23.28l-.14.12a1.54,1.54,0,0,1-.39.23l-.08,0a.66.66,0,0,1-.2.06l-.11,0h-.11a1.63,1.63,0,0,1-.38,0h0a1.11,1.11,0,0,1-.3-.08h0l-.12-.05-.15-.08h0l-.17-.11a.27.27,0,0,1-.08-.07l-.09-.07h0a.92.92,0,0,1-.14-.14,1.79,1.79,0,0,1-.2-.26.43.43,0,0,0,0-.07h0a.08.08,0,0,1,0-.05.89.89,0,0,1-.08-.17.43.43,0,0,1-.05-.16.35.35,0,0,1,0-.14.06.06,0,0,1,0,0,.09.09,0,0,1,0-.05h0a0,0,0,0,0,0,0Z" />
    <path class="BUNTAI_PEACOCK_OUTFIT_PEACOCK_OUTFIT_26_e" d="M200.45,439.5H92.24L92,434c0-.6,0-1.18,0-1.77v0c0-.32,0-.64,0-.95,0-.75.12-1.48.22-2.21,0-.2.06-.42.09-.63.06-.39.14-.79.21-1.19s.1-.52.16-.78a.22.22,0,0,0,0-.08l.22-.92.18-.7.06-.26c.16-.6.34-1.2.52-1.79l.27-.84.27-.85c.09-.27.19-.55.28-.84a61.74,61.74,0,0,0,14.2,8c.24.1,4.16.2,4.4.3l.09,0c-.16-.25-.33-.5-.49-.76l-3.69,0c-1-1.64-2.12-3.29-3.16-4.93,0,0,.92-.37,2.3-1h0c.44-.19,4.6-.41,5.12-.66l.52-.24.4-.19.33-.16.74-.35.61-.31c.64-.33,1.28-.66,1.92-1,.17-.09.33-.19.5-.27l.66-.39.54-.32.44-.27.61-.4.31-.2a18.07,18.07,0,0,0,1.58-1.2l.22-.2.22-.2h0a6.47,6.47,0,0,0,.63-.69,1.33,1.33,0,0,0,.14-.19s0-.06.06-.09l.17-.26.13-.27a2.42,2.42,0,0,0,.1-.36.77.77,0,0,0,0-.15v0a1.09,1.09,0,0,0,0-.36.06.06,0,0,0,0,0l0-.14a1.53,1.53,0,0,0-.16-.31,2.29,2.29,0,0,0-1.38-.85l-.29-.08-.09,0-.25,0-.26,0h-.17a9.22,9.22,0,0,0-1.31,0l-.82,0-.31,0-.3,0h-.09l-.21,0c-.22,0-.44,0-.66.08a5.21,5.21,0,0,0-.55.08,2.52,2.52,0,0,0-.41.06l-.35.05-.55.1h-.06l-.25.05-1.55.32-.36.08c-.4.09-4.48.19-4.87.29h0l-.12,0-.12,0-.21.05-.33.09-.42.1-.35.1c-.62.16-1.21.33-1.77.49l-.38.11-.71.21-.26.08-1.18.36-.22.08-.78.25-.4.13-.69.24L98,410.46c0-.13.09-.27.14-.41l.6-1.8c.49-1.45,1-2.9,1.47-4.33-2.13-1.78-4.09-3.35-6.21-5.13.42-.59.88-1.16,1.35-1.71s.92-1.12,1.34-1.71c-.77-2.44,3.58-5.49,1.65-7.31s-3.63-3.42-5.47-5.15h0a41.71,41.71,0,0,1,9.34,1.24c6.71,1.63,13.07,4.5,19.58,6.84,5.87,2.11,12.26,3.68,18.4,3.53h.37a4.26,4.26,0,0,0,.51,0h.28a1.46,1.46,0,0,1,.29,0l.57-.05c.06.23.13.44.2.65s.16.43.23.64a.39.39,0,0,0,0,.09c.08.23.17.45.27.68l.06.15c.13.3.26.6.41.9l.12.25,0,0a.8.8,0,0,0,.08.16c.1.21.21.41.33.62s.22.42.35.62l0,.05.12.21.06.09.18.29c.06.08.11.18.17.26l.1.15.31.45a1.16,1.16,0,0,0,.18.27l.09.13.09.12.05.06.44.58a.47.47,0,0,0,.09.12l0,.07c.3.38.63.77,1,1.14l.19.21a0,0,0,0,0,0,0l0,.05h0l0,0,.29.31.17.18c.38.41.77.81,1.18,1.2s.61.57.92.85l.07.06q.44.4.9.78c.09.08.19.17.3.25l.74.6.55.43.78.57.22.16.33.23,0,0,.26.18.27.18.13.09.07,0,.15.1.11.07.54.36.46.29c.22.14.45.29.68.42l.42.26.32.19c.43.26.86.5,1.3.75C166,416.15,174,418.85,181.33,423c.25.13.49.28.73.42l.18.11.23.14a.65.65,0,0,1,.16.09l.3.17.61.38.34.21c.33.2.65.41,1,.62l.56.37.06.05c.17.1.34.22.51.34h0l.38.26.26.18.1.07c.39.27.78.55,1.16.84l.63.48.61.46c.13.09.25.2.37.29l.17.13.12.1,0,0,0,0c.13.09.25.19.37.29s.51.42.77.63l.14.12.31.27.06.05h0l.36.31.34.31a4,4,0,0,1,.31.27,1.45,1.45,0,0,1,.19.17l.11.1c.27.23.52.47.78.71l.35.33.15.14.3.3a.43.43,0,0,1,.12.11l.7.7.06.06.17.16.46.47.34.36.5.54.25.27.32.34c.08.09.16.19.25.28l.25.29h0l0,0s0,0,0,0,0,0,0,0h0l.08.09c.08.09.16.17.23.26l.26.29a3.15,3.15,0,0,1,.24.3.53.53,0,0,1,.12.14c.17.19.33.38.47.57a1,1,0,0,1,.13.16l.08.08.07.09.47.6a.79.79,0,0,1,.12.15,1.64,1.64,0,0,1,.2.26,0,0,0,0,1,0,0v0Z" />
    <path class="BUNTAI_PEACOCK_OUTFIT_PEACOCK_OUTFIT_26_d" d="M234.38,439.5h-9.7A105.07,105.07,0,0,0,221.23,429q5.42,4.14,10.67,8.47c.55.45,1.1.9,1.65,1.37C233.83,439,234.1,439.26,234.38,439.5Z" />
    <path class="BUNTAI_PEACOCK_OUTFIT_PEACOCK_OUTFIT_26_e" d="M296.56,413.74c.12,7-1.38,13.95-5.6,20h0a29.78,29.78,0,0,1-4.06,4.68,74.62,74.62,0,0,1-13.23,1.12H234.38c-.28-.24-.55-.46-.83-.68-.55-.47-1.1-.92-1.65-1.37l.18-.2q-4-4.14-8.27-8.12-2-1.87-4-3.71c-.36-.83-.73-1.66-1.1-2.48a112.15,112.15,0,0,0-6.24-11.69q-2-3.31-4.32-6.51c-1.47-2.05-3-4.05-4.61-6-1.76-2.13-3.59-4.2-5.52-6.2a116.27,116.27,0,0,0-9.15-8.59c-1.8-1.53-3.67-3-5.57-4.42h0s26.81-9.24,61.47-7.18a120,120,0,0,1,15,1.41c3,.47,5.74,1,8.29,1.63a89.34,89.34,0,0,1,19.3,6.69l.2.1.22.12h0c.74,1.5,1.5,3.13,2.25,4.88h0l.12.27a.06.06,0,0,0,0,0c.21.48.41,1,.62,1.46l.12.3c1.06,2.59,2.07,5.38,2.94,8.3.29,1,.56,2,.82,3A57.7,57.7,0,0,1,296.56,413.74Z" />
    <path class="BUNTAI_PEACOCK_OUTFIT_PEACOCK_OUTFIT_26_b" d="M296,359.12a2.8,2.8,0,0,1,0,.41c0,.6,0,1.19,0,1.79v.26c0,.66,0,1.32-.07,2s-.44,1.32-.49,2-.72,1.51-.78,2.22-.13,1.41-.21,2.12c-.11,1.05-.24,2.11-.39,3.16s-.27,1.9-.43,2.85h0s0,.09,0,.14a100.65,100.65,0,0,1-2.3,11.52c-.15.49-.3.94-.45,1.34-.16-.43-.38-.92-.62-1.47,0,0,0,0,0,0l-.12-.27h0c-.66-1.45-1.54-3.2-2.46-5h0c-.9-1.73-1.85-3.5-2.69-5v0c-1.16-2.12-2.11-3.8-2.43-4.37l-.06-.1a.05.05,0,0,0,0,0l0,0v0h0l-.2-.1q.58-6.54.58-13.14c0-1.06,0-2.12,0-3.18a.11.11,0,0,0,0-.08c0-.84,0-1.69-.08-2.53,0-.38,0-.77-.05-1.15,0-1-.09-2-.17-3s-.13-1.87-.21-2.81q0-.3-.06-.6c-.07-.86-.15-1.71-.25-2.56,0-.18,0-.35-.05-.52-.11-1-.24-2-.37-3.05l0-.24-.09-.65c4.84,3.25,11,6.69,13.1,8l.92.61c.15,1.32.27,2.65.37,4,0,.44.07.88.09,1.32,0,.64.07,1.28.1,1.92,0,.17,0,.33,0,.5,0,.4,0,.8,0,1.2,0,.24,0,.49,0,.74v.41C296,358.14,296,358.63,296,359.12Z" />
    <path class="BUNTAI_PEACOCK_OUTFIT_PEACOCK_OUTFIT_26_f" d="M264.12,370.79l3.94,4.59c-2.55-.6-5.31-1.16-8.28-1.63l0-.26q-4.33-6.57-8.34-13.32c-4-6.76-5.57-11.47-9.08-18.45h0c-.8-1.58-1.58-3.16-2.35-4.76,2.08-.37,4.15-.81,6.19-1.32C251.08,348.79,255.67,359.21,264.12,370.79Z" />
    <path class="BUNTAI_PEACOCK_OUTFIT_PEACOCK_OUTFIT_26_f" d="M191.58,334.77c-.56,1.6-1.15,3.18-1.76,4.76h0q-4,10.47-8.74,20.63-3.18,6.75-6.69,13.32-2.29-1.41-4.65-2.7a133.69,133.69,0,0,0,15.5-37.35C187.34,334,189.46,334.39,191.58,334.77Z" />
    <path class="BUNTAI_PEACOCK_OUTFIT_PEACOCK_OUTFIT_26_d" d="M242.38,341.72a20.18,20.18,0,0,1-4.47,7.06c5.26,4.52,8.3,6.86,13.55,11.39C247.45,353.41,245.89,348.7,242.38,341.72Z" />
    <path class="BUNTAI_PEACOCK_OUTFIT_PEACOCK_OUTFIT_26_d" d="M181.08,360.17l14.09-13.58a23.74,23.74,0,0,1-5.35-7Q185.86,350,181.08,360.17Z" />
    <path class="BUNTAI_PEACOCK_OUTFIT_PEACOCK_OUTFIT_26_b" d="M152,372.44a1.11,1.11,0,0,0-.19.09c-.56.29-1.11.59-1.66.89l-.75.42c-.53.29-1.05.6-1.57.9s-1.32.8-2,1.21-1.25.8-1.88,1.22l0,0c-.73-.31-1.45-.62-2.19-.92l-.81-.33a104.25,104.25,0,0,1-4.15-33.64q4-3.39,8.29-6.45,1.86-1.34,3.75-2.6v.08A150.56,150.56,0,0,0,152,372.44Z" />
    <path class="BUNTAI_PEACOCK_OUTFIT_PEACOCK_OUTFIT_26_d" d="M287.78,382.28h0l0,0-.14-.07h-.05l0,0h0l-.09-.05h0l-.17-.08c-.86-.44-2.65-1.29-5.26-2.32l-.15-.06-.68-.26-1.27-.48-.2-.07-.48-.17c-.89-.32-1.84-.64-2.86-1l-.91-.29-.95-.29-1-.29-.5-.14-.13,0-.9-.25-.53-.14-1.07-.29-2.24-.55-3.95-4.59c-8.45-11.57-13-22-17.9-35.16,3.54-.88,7.73-3.45,11-4.88,3.73-1.63,5.35-2.92,7.41-5.64,0,0,9.43,8.47,12.05,10.74l4.58,3.09c0,.21.07.43.1.65l0,.24c.13,1,.26,2,.37,3.05,0,.17,0,.34.05.52.1.85.18,1.7.25,2.56q0,.3.06.6c.08.94.15,1.87.21,2.81s.13,2,.17,3c0,.39,0,.77.05,1.15,0,.84.06,1.69.08,2.53a.11.11,0,0,1,0,.08c0,1.06,0,2.12,0,3.18q0,6.6-.58,13.14l.2.1h0v0h0s0,0,0,0a.05.05,0,0,1,0,0l.06.1.08.1c.26.41.77,1.2,1.44,2.33.1.16.19.33.3.51l.09.16.62,1.08C285.79,378.4,286.76,380.21,287.78,382.28Z" />
    <path class="BUNTAI_PEACOCK_OUTFIT_PEACOCK_OUTFIT_26_d" d="M185.24,333.44a133.63,133.63,0,0,1-15.5,37.34l-1.58-.86c-.53-.29-1.06-.57-1.6-.84l-1.6-.8h0l-1.62-.78L162,368l-1,.37-.61.23h0l-.42.16-1,.42-1.78.76q-.76.33-1.53.69c-.32.14-.63.29-.93.44-.47.22-.93.44-1.39.68l-1.38.7a150.45,150.45,0,0,1-3.15-39.1h0a.93.93,0,0,0,.05-.1l.72-.72,1.62-1.63c3.07-3.07,7.34-7.38,9.45-9.5A50.15,50.15,0,0,0,174.53,330,71.78,71.78,0,0,0,185.24,333.44Z" />
    <path class="BUNTAI_PEACOCK_OUTFIT_PEACOCK_OUTFIT_26_f" d="M232.08,437.25l-.18.2q-5.25-4.33-10.67-8.47h0q-7.33-5.62-15-10.88h0l-.46-.32q-1-.66-1.92-1.29c-.28-.2-.55-.38-.83-.56s-.61-.42-.91-.62l-.7-.46-1.83-1.21-2-1.26a294.68,294.68,0,0,0-34.38-19.09,238.74,238.74,0,0,0-57.87-18.8l-.66-5.65c-.2-1.68-.39-3.36-.59-5a269.11,269.11,0,0,1,36.8,12.15l.81.33c.74.3,1.46.61,2.19.92q7.23,3.07,14.28,6.56c1.14.56,2.27,1.13,3.4,1.71,7.74,4,15.3,8.27,22.62,12.93l2.06,1.32,3,2,2.16,1.45.28.2c.43.29.86.58,1.28.88,1.7,1.17,3.38,2.37,5.06,3.59a1.16,1.16,0,0,1,.21.16l.78.57c.26.18.51.37.76.56q1.07.77,2.1,1.56l2.64,2c.66.5,1.31,1,2,1.53,1.41,1.11,2.81,2.24,4.19,3.37l1.33,1.11c.64.52,1.26,1.05,1.89,1.59l1.87,1.6s0,0,0,0l0,0c1.33,1.15,2.64,2.31,3.95,3.49s2.69,2.46,4,3.71Q228,433.1,232.08,437.25Z" />
    <path class="BUNTAI_PEACOCK_OUTFIT_PEACOCK_OUTFIT_26_g" d="M232.08,437.26q-4-4.15-8.27-8.13-2-1.87-4-3.71-8.59-7.76-17.9-14.77-1-.79-2.1-1.56-6.58-4.89-13.51-9.38l-2.06-1.32c-7.32-4.66-14.88-9-22.62-12.93-1.13-.58-2.26-1.15-3.4-1.71q-7-3.48-14.28-6.56l-2.19-.92-.81-.33a269.11,269.11,0,0,0-36.8-12.15" />
    <path class="BUNTAI_PEACOCK_OUTFIT_PEACOCK_OUTFIT_26_g" d="M91.78,372.45c4.54.51,9.08,1.19,13.59,2a238.74,238.74,0,0,1,57.87,18.8,294.68,294.68,0,0,1,34.38,19.09l2,1.26,1.83,1.21.7.46c.3.2.61.4.91.62s.55.36.83.56q1,.63,1.92,1.29l.46.32h0q7.63,5.25,15,10.88" />
    <path class="BUNTAI_PEACOCK_OUTFIT_PEACOCK_OUTFIT_26_g" d="M234.38,439.5c-.82-.69-1.65-1.37-2.48-2.05q-5.25-4.33-10.67-8.47" />
    <path class="BUNTAI_PEACOCK_OUTFIT_PEACOCK_OUTFIT_26_g" d="M104.12,363.79c.2,1.67.39,3.35.59,5l.66,5.65" />
    <path class="BUNTAI_PEACOCK_OUTFIT_PEACOCK_OUTFIT_26_g" d="M285.62,439.5H92.23L92,434c0-.6,0-1.18,0-1.77v0c0-.32,0-.64,0-.95,0-.75.12-1.48.22-2.21,0-.2.06-.41.09-.63.06-.39.14-.79.21-1.19s.1-.52.16-.78v-.07c.07-.32.15-.63.22-.94l.18-.69c0-.08,0-.17.07-.26.15-.6.32-1.19.51-1.79.09-.28.17-.56.27-.84l.27-.84.29-.85" />
    <path class="BUNTAI_PEACOCK_OUTFIT_PEACOCK_OUTFIT_26_g" d="M91.78,372.45c.55,2.37,1.09,4.74,1.65,7.12,0,.2.09.4.13.6-.4.69-1.07,1.35-1.47,2l.75.71c1.84,1.73,3.63,3.4,5.47,5.15s-2.42,4.87-1.65,7.31c-.42.59-.88,1.14-1.34,1.71s-.93,1.12-1.35,1.71c2.12,1.78,4.08,3.35,6.21,5.13-.46,1.43-1,2.88-1.47,4.33l-.6,1.8c0,.14-.09.28-.14.41" />
    <path class="BUNTAI_PEACOCK_OUTFIT_PEACOCK_OUTFIT_26_g" d="M113.15,428.45l-.09,0c-.25-.09-4.17-.19-4.4-.28a61.87,61.87,0,0,1-14.19-8,67.05,67.05,0,0,1-5.56-4.6,17,17,0,0,1,2.69-6.9,19.74,19.74,0,0,1,3-3.53L98,410.47l2.89,4.52,5,7.74c1,1.65,5.79,3.3,6.85,5C112.82,427.94,113,428.19,113.15,428.45Z" />
    <path class="BUNTAI_PEACOCK_OUTFIT_PEACOCK_OUTFIT_26_g" d="M141.15,421.32c-6.53-9.16-13.56-18.21-23.13-24.42a75.4,75.4,0,0,0,10.31,13.9" />
    <path class="BUNTAI_PEACOCK_OUTFIT_PEACOCK_OUTFIT_26_g" d="M106.15,409.1A12.13,12.13,0,0,0,98.88,399" />
    <path class="BUNTAI_PEACOCK_OUTFIT_PEACOCK_OUTFIT_26_g" d="M92.85,382.92a41.13,41.13,0,0,1,9.34,1.23c6.71,1.63,13.07,4.5,19.58,6.84s13.67,4,20.42,3.41c2.27,7.68,9.15,13.62,16.48,17.69S174,418.85,181.33,423a64.3,64.3,0,0,1,19.12,16.52" />
    <path class="BUNTAI_PEACOCK_OUTFIT_PEACOCK_OUTFIT_26_g" d="M163.33,367.49A85.87,85.87,0,0,0,152,372.44a1.11,1.11,0,0,0-.19.09,82.31,82.31,0,0,0-7.85,4.66" />
    <path class="BUNTAI_PEACOCK_OUTFIT_PEACOCK_OUTFIT_26_g" d="M163.33,367.49q3.25,1.54,6.41,3.3,2.35,1.29,4.65,2.7c3.05,1.87,6,3.89,8.89,6q2.86,2.13,5.57,4.42a118.2,118.2,0,0,1,9.16,8.59c1.92,2,3.75,4.07,5.51,6.2,1.61,2,3.14,4,4.61,6s3,4.3,4.32,6.51a110.29,110.29,0,0,1,6.24,11.69c.37.82.74,1.65,1.1,2.48" />
    <path class="BUNTAI_PEACOCK_OUTFIT_PEACOCK_OUTFIT_26_g" d="M221.23,429h0a102.57,102.57,0,0,1,3.45,10.52" />
    <path class="BUNTAI_PEACOCK_OUTFIT_PEACOCK_OUTFIT_26_g" d="M148.81,333.25v.08A150.53,150.53,0,0,0,152,372.44" />
    <path class="BUNTAI_PEACOCK_OUTFIT_PEACOCK_OUTFIT_26_g" d="M136.77,342.3a104.25,104.25,0,0,0,4.15,33.64" />
    <path class="BUNTAI_PEACOCK_OUTFIT_PEACOCK_OUTFIT_26_g" d="M148.86,333.23h-.05q-1.89,1.26-3.75,2.6-4.27,3.06-8.29,6.45" />
    <path class="BUNTAI_PEACOCK_OUTFIT_PEACOCK_OUTFIT_26_g" d="M191.59,334.77l-1.87-.36-.47-.09h0l-.12,0c-.23-.05-.47-.09-.7-.15-1.07-.22-2.12-.46-3.17-.71A71.78,71.78,0,0,1,174.53,330a50.15,50.15,0,0,1-13.88-8.64" />
    <path class="BUNTAI_PEACOCK_OUTFIT_PEACOCK_OUTFIT_26_g" d="M148.86,333.22a.93.93,0,0,1-.05.1" />
    <path class="BUNTAI_PEACOCK_OUTFIT_PEACOCK_OUTFIT_26_g" d="M189.82,339.54q-4,10.47-8.74,20.63-3.18,6.75-6.69,13.32" />
    <path class="BUNTAI_PEACOCK_OUTFIT_PEACOCK_OUTFIT_26_g" d="M191.58,334.77c-.56,1.6-1.15,3.18-1.76,4.76" />
    <path class="BUNTAI_PEACOCK_OUTFIT_PEACOCK_OUTFIT_26_g" d="M169.74,370.79a133.69,133.69,0,0,0,15.5-37.35" />
    <path class="BUNTAI_PEACOCK_OUTFIT_PEACOCK_OUTFIT_26_g" d="M189.82,339.53h0a23.74,23.74,0,0,0,5.35,7l-14.09,13.58" />
    <path class="BUNTAI_PEACOCK_OUTFIT_PEACOCK_OUTFIT_26_g" d="M141.73,376.27a67.59,67.59,0,0,1,.69-15.36,119.13,119.13,0,0,0,9.35,11.62" />
    <path class="BUNTAI_PEACOCK_OUTFIT_PEACOCK_OUTFIT_26_g" d="M149.58,332.5l.14.16a69.51,69.51,0,0,0,16.2,13" />
    <path class="BUNTAI_PEACOCK_OUTFIT_PEACOCK_OUTFIT_26_g" d="M282.11,372.43q.58-6.54.58-13.14c0-1.06,0-2.12,0-3.18a.11.11,0,0,0,0-.08c0-.84,0-1.69-.08-2.53,0-.38,0-.77-.05-1.15,0-1-.09-2-.17-3s-.13-1.87-.21-2.81q0-.3-.06-.6c-.07-.86-.15-1.71-.25-2.56,0-.18,0-.35-.05-.52-.11-1-.24-2-.37-3.05l0-.24c0-.22-.06-.44-.1-.65" />
    <path class="BUNTAI_PEACOCK_OUTFIT_PEACOCK_OUTFIT_26_g" d="M295.31,347.58c.15,1.32.27,2.65.37,4,0,.44.07.88.09,1.32,0,.64.07,1.28.1,1.92,0,.17,0,.33,0,.5,0,.4,0,.8,0,1.2,0,.24,0,.49,0,.74v.41c0,.5,0,1,0,1.48a2.8,2.8,0,0,1,0,.41c0,.6,0,1.19,0,1.79v.26c0,.66-1.47,7.64-1.55,8.35-.11,1.05-.24,2.11-.39,3.16s-.27,1.9-.43,2.85l0,.14-2.3,11.52-.33,1.63" />
    <path class="BUNTAI_PEACOCK_OUTFIT_PEACOCK_OUTFIT_26_g" d="M240,337q3.14-.57,6.19-1.33c3.54-.88,7.73-3.45,11-4.88,3.73-1.63,5.35-2.92,7.41-5.64" />
    <path class="BUNTAI_PEACOCK_OUTFIT_PEACOCK_OUTFIT_26_g" d="M242.38,341.71c-.8-1.58-1.58-3.16-2.35-4.76" />
    <path class="BUNTAI_PEACOCK_OUTFIT_PEACOCK_OUTFIT_26_g" d="M259.8,373.49q-4.33-6.57-8.34-13.32c-4-6.76-5.57-11.47-9.08-18.45" />
    <path class="BUNTAI_PEACOCK_OUTFIT_PEACOCK_OUTFIT_26_g" d="M246.22,335.63c4.86,13.16,9.45,23.58,17.9,35.16l3.94,4.59" />
    <path class="BUNTAI_PEACOCK_OUTFIT_PEACOCK_OUTFIT_26_g" d="M251.46,360.17c-5.25-4.53-8.29-6.87-13.55-11.39a20.18,20.18,0,0,0,4.47-7.06h0" />
    <path class="BUNTAI_PEACOCK_OUTFIT_PEACOCK_OUTFIT_26_g" d="M291,433.7c4.22-6,5.72-12.95,5.6-20a57.7,57.7,0,0,0-1.89-13.22c-.26-1-.53-2-.82-3-.87-2.92-1.88-5.71-2.94-8.3l-.12-.3c-.21-.49-.41-1-.62-1.46a.06.06,0,0,1,0,0l-.12-.27h0c-.75-1.75-1.51-3.38-2.25-4.88" />
    <path class="BUNTAI_PEACOCK_OUTFIT_PEACOCK_OUTFIT_26_g" d="M292.8,376.27c0-.11,0-.23,0-.33a70.11,70.11,0,0,0-2.58-15,97.88,97.88,0,0,1-7.91,11.62,93.74,93.74,0,0,1,5.48,9.76" />
    <path class="BUNTAI_PEACOCK_OUTFIT_PEACOCK_OUTFIT_26_g" d="M276.7,335.84a57.94,57.94,0,0,1-11.86,9.83" />
    <path class="BUNTAI_PEACOCK_OUTFIT_PEACOCK_OUTFIT_26_g" d="M153.78,439.5a35.87,35.87,0,0,1-8.16-8.62,35.49,35.49,0,0,1-4.47-9.56h0a40.32,40.32,0,0,1-1.27-5.8,53.64,53.64,0,0,1-.25-12.52" />
    <path class="BUNTAI_PEACOCK_OUTFIT_PEACOCK_OUTFIT_26_g" d="M158.2,383.75a11.37,11.37,0,0,1-.27-7.75,6.4,6.4,0,0,1,1.94-3,6.78,6.78,0,0,1,4.2-1.29,10,10,0,0,1,8.25,4.08,6.77,6.77,0,0,1-.38,8.37,6.15,6.15,0,0,0-.12-7.32,7.46,7.46,0,0,0-7.36-2.69,6.32,6.32,0,0,0-4.86,5.47,8.66,8.66,0,0,0,2,5.85" />
    <path class="BUNTAI_PEACOCK_OUTFIT_PEACOCK_OUTFIT_26_g" d="M184.22,398.39a10.8,10.8,0,0,0,1.68-9,12.88,12.88,0,0,0-8.3-8.62A13.35,13.35,0,0,1,188,389a11.08,11.08,0,0,1-1.76,10.76" />
    <path class="BUNTAI_PEACOCK_OUTFIT_PEACOCK_OUTFIT_26_g" d="M179.38,389a1.67,1.67,0,0,1-1.88,1.39,1.81,1.81,0,0,1-1.51-1.95C176.35,386.51,179.62,386.86,179.38,389Z" />
    <path class="BUNTAI_PEACOCK_OUTFIT_PEACOCK_OUTFIT_26_g" d="M199.79,409.09a10.74,10.74,0,0,0,.53-7,12.89,12.89,0,0,0-8.3-8.61,13.35,13.35,0,0,1,10.44,8.19,11.19,11.19,0,0,1-.57,8.95" />
    <path class="BUNTAI_PEACOCK_OUTFIT_PEACOCK_OUTFIT_26_g" d="M196,400.74a1.67,1.67,0,0,1-1.89,1.38,1.79,1.79,0,0,1-1.5-1.95C193,398.24,196.27,398.58,196,400.74Z" />
    <path class="BUNTAI_PEACOCK_OUTFIT_PEACOCK_OUTFIT_26_g" d="M183.29,379.52s26.81-9.24,61.47-7.18a120.36,120.36,0,0,1,15,1.41c3,.47,5.73,1,8.28,1.63,12.25,2.89,19.45,6.76,19.72,6.91h0" />
    <path class="BUNTAI_PEACOCK_OUTFIT_PEACOCK_OUTFIT_26_g" d="M188.86,383.94s64.2-13,101.18,3.23h0" />
    <path class="BUNTAI_PEACOCK_OUTFIT_PEACOCK_OUTFIT_26_g" d="M266.14,390.24c3.83.61,7.71,1.36,11.6,2.3a130.38,130.38,0,0,1,16.11,5" />
    <path class="BUNTAI_PEACOCK_OUTFIT_PEACOCK_OUTFIT_26_g" d="M198,392.53s32-8,68.13-2.29" />
    <path class="BUNTAI_PEACOCK_OUTFIT_PEACOCK_OUTFIT_26_g" d="M208.13,404.74s40.72-8.92,58-14.5h0" />
    <path class="BUNTAI_PEACOCK_OUTFIT_PEACOCK_OUTFIT_26_g" d="M212.45,411.25a206.22,206.22,0,0,0,45.3.47c13.07-1.46,26.57-4.68,36.92-11.2" />
    <path class="BUNTAI_PEACOCK_OUTFIT_PEACOCK_OUTFIT_26_g" d="M277.74,392.54s-10.26,12.46-20,19.18" />
    <path class="BUNTAI_PEACOCK_OUTFIT_PEACOCK_OUTFIT_26_g" d="M218.69,422.94s25.36,6.15,45.76,3.49c1-.13,2.07-.29,3.08-.47,19.92-3.59,28.34-11.53,29-12.21l.05-.05" />
    <path class="BUNTAI_PEACOCK_OUTFIT_PEACOCK_OUTFIT_26_g" d="M264.45,426.44c9.35,3.9,26.1,7.18,26.5,7.26h0" />
    <path class="BUNTAI_PEACOCK_OUTFIT_PEACOCK_OUTFIT_26_g" d="M223.81,429.12s25,10.38,49.85,10.38a74.62,74.62,0,0,0,13.23-1.12" />
    <path class="BUNTAI_PEACOCK_OUTFIT_PEACOCK_OUTFIT_26_g" d="M135.84,403s.73,9.24,4,12.52" />
    <path class="BUNTAI_PEACOCK_OUTFIT_PEACOCK_OUTFIT_26_g" d="M100.86,415s20.67-6,23-2.49-18.08,10.23-18.08,10.23" />
    <path class="BUNTAI_PEACOCK_OUTFIT_PEACOCK_OUTFIT_26_g" d="M145.62,430.88a36.25,36.25,0,0,1-11.64-8.3c-5.79-6-5.87,1.08-5.7,1.43" />
    <path class="BUNTAI_PEACOCK_OUTFIT_PEACOCK_OUTFIT_26_g" d="M148.86,333.22l.72-.72c2.95-2.95,8.56-8.6,11.07-11.13" />
    <path class="BUNTAI_PEACOCK_OUTFIT_PEACOCK_OUTFIT_26_g" d="M295.31,347.58s-7.81-4.49-14-8.65l-4.58-3.09c-2.62-2.27-12.05-10.74-12.05-10.74" />
    <g class="BUNTAI_PEACOCK_OUTFIT_PEACOCK_OUTFIT_26_h">
      <path d="M200.45,439.5H92.24L92,434c0-.6,0-1.18,0-1.77,3.61,1.22,12.92,2.22,21.57,2A93,93,0,0,1,96,429l8.45-.33h0l8.26-.19h.33l0,0-.4-.73-3.69,0L106.43,423a13,13,0,0,0,1.68-1.29h0c1.22-1.11,6.34-2.8,6.39-4.68.06-3.28-1.69-4.27-1.69-4.27l-4-.15h0l-10.09-4.39c.49-1.45,1-2.9,1.47-4.33-2.13-1.78-4.09-3.35-6.21-5.13,0,0,8.2,1.93,10.2,4.63l0,.07c-1.08-3,.13-9.59.13-9.59,8.39,7.22,8,7.24,16.8,13.45a74.73,74.73,0,0,1,6.72,5l-8.28-11.25-.07-1.69v0l-.06-1.5,0,0s0,0,.07,0a.18.18,0,0,1,.09.07l.18.12.21.16c.51.38,1.32,1,2.3,1.73l.14.1.16.13,0,0h0l.06.05a83,83,0,0,1,9.12,8,55.67,55.67,0,0,1,6.39,8.27c-.75-1.3-5.38-9.56-5.67-13.08a43.5,43.5,0,0,0,5.4,8.92h0a5.71,5.71,0,0,0,1.22,1.18l.52.55h0c2.55,2.64,14.08,14.05,25.59,17.74C178.35,436.09,200.45,439.5,200.45,439.5Z" />
      <path d="M116.25,430.88c-2.91-.71-9.29-1.47-11.76-2.23a111,111,0,0,1-11.36-4.19c.15-.6.32-1.19.51-1.79l.27-.84.27-.84.29-.85a67.05,67.05,0,0,1-5.56-4.6,17,17,0,0,1,2.69-6.9c3.88,5.23,11,14.4,17.06,19.49.13.11,4,.22,4.09.33A22,22,0,0,0,116.25,430.88Z" />
      <path d="M223.38,441l-22.93-1.5,0,0c-.25-.28-4.89-5.34-10.6-10.75-4.91-4.65-10.62-9.56-15-12-9.1-4.93-23.17-10.34-32.19-21.09-.34-.41-.67-.82-1-1.25s-.47-.61-.7-.93c-24.49-6.92-33.82-13.17-42.28-13.81a48.89,48.89,0,0,0-5.21-.12c-.56-2.38-1.1-4.76-1.65-7.13,4.54.51,9.08,1.19,13.59,2l-.66-5.65c8.85,2.16,26.37,6.71,39.43,11.94s39.79,22.46,53.52,31.56l1.94,1.29,1.81,1.22.7.46.91.62.83.56,1.92,1.29.46.32,0,0h0c-1.05-.54-34.72-17.7-50-22.34,29.16,16.05,57.73,37.87,65.26,43.75Z" />
      <path d="M171.68,349c-16.78-8.1-22.82-15.75-22.82-15.75l.72-.72,1.62-1.63C156.07,336.48,164.44,344.81,171.68,349Z" />
      <path d="M216,422l-.13-.11,0,0c-3.61-2.95-8.22-6.82-13.94-11.21-.68-.53-1.37-1.05-2.08-1.59L198.25,408a1.16,1.16,0,0,0-.21-.16c-3.51-2.61-7.4-5.37-11.68-8.19-.67-.45-1.36-.9-2.06-1.34a245.33,245.33,0,0,0-22.94-13.15c-1.07-.53-2.14-1.07-3.24-1.6-4.46-2.17-9.19-4.3-14.17-6.35-.73-.31-1.47-.61-2.22-.91l-.81-.32a104.25,104.25,0,0,1-4.15-33.64q4-3.39,8.29-6.45s.21,25.06,6.9,36.59c.38.91,2.45,2.56,5.64,4.76l2.16,1.46c4.34,2.89,10.09,6.51,16.32,10.57h0l1.79,1.17h0c2.55,1.68,5.15,3.42,7.77,5.21l2.19,1.5c1.61,1.13,3.21,2.26,4.79,3.41l2.13,1.56c2,1.48,3.91,3,5.77,4.45h0c.76.61,1.51,1.22,2.24,1.83C208.31,413,213,417.65,216,422Z" />
      <path d="M291,433.7a29.87,29.87,0,0,1-4.07,4.67h0c-.4.39-.82.75-1.25,1.11H234l-.47-.68h0L232,436.6l5.68-2.77s6.27-.14,15.41-6.74h0c6.88-2.3,17.27-6.58,25.85-18.78l1.36-1.25h0c2.78-2.56,3.29-3.39,5.8-12.19,2.62-1.62,4-5.92,4-5.92s-.24-.74-.73-2h0c-.46-1.19-1.14-2.84-2.07-4.83h0c-.67-1.48-1.51-3.13-2.48-4.92v0a1.51,1.51,0,0,0,.09-.18h0c2.22-4,4-9.73,5.44-15.33,1.45-5.77,3.45-11.36,4-14.62l.92.61c.15,1.32.27,2.65.37,4,0,.44.07.88.09,1.32,0,.64.07,1.28.1,1.92,0,.17,0,.33,0,.5,0,.4,0,.8,0,1.2,0,.24,0,.49,0,.74v.41c0,.5,0,1,0,1.48a2.8,2.8,0,0,1,0,.41c0,.6,0,1.19,0,1.79v.26c0,.66,0,1.32-.07,2a5.22,5.22,0,0,1-.49,2c-.3.64-.34,1-.78,2.22-.06.7-.13,1.41-.21,2.12-.11,1.05-.24,2.11-.39,3.16s-.27,1.9-.43,2.85l0,.14a100.65,100.65,0,0,1-2.3,11.52l-.33,1.63c1.06,2.59,2.07,5.38,2.94,8.3.29,1,.57,2,.82,3h0a58.1,58.1,0,0,1,1.9,13.21C296.68,420.74,295.18,427.69,291,433.7Z" />
      <path d="M189.11,334.3s-10.49,25.51-13.4,31.87l-2.91,6.36,1.75.65s7.42-14.95,11.82-24.71,5.21-13.7,5.21-13.7Z" />
    </g>
    <path class="BUNTAI_PEACOCK_OUTFIT_PEACOCK_OUTFIT_26_i" d="M222.55,372.45a19.31,19.31,0,0,0-6.63-7.63" />
    <path class="BUNTAI_PEACOCK_OUTFIT_PEACOCK_OUTFIT_26_i" d="M224,364.82a18.16,18.16,0,0,0-3.12,4.76" />
  </g>
</svg>