<svg xmlns="http://www.w3.org/2000/svg" viewBox="0 0 432 432">
  <defs>
    <style>.BUNTAI_PEACOCK_OUTFIT_PEACOCK_OUTFIT_3_a{isolation:isolate;}.BUNTAI_PEACOCK_OUTFIT_PEACOCK_OUTFIT_3_b{fill:#16324a;}.BUNTAI_PEACOCK_OUTFIT_PEACOCK_OUTFIT_3_c{fill:#b6c1c3;}.BUNTAI_PEACOCK_OUTFIT_PEACOCK_OUTFIT_3_d{fill:#e3992c;}.BUNTAI_PEACOCK_OUTFIT_PEACOCK_OUTFIT_3_e{fill:#16364d;}.BUNTAI_PEACOCK_OUTFIT_PEACOCK_OUTFIT_3_f{fill:#fff;}.BUNTAI_PEACOCK_OUTFIT_PEACOCK_OUTFIT_3_g{fill:#457d98;}.BUNTAI_PEACOCK_OUTFIT_PEACOCK_OUTFIT_3_h{fill:#493e2a;}.BUNTAI_PEACOCK_OUTFIT_PEACOCK_OUTFIT_3_i{fill:#3d3938;}.BUNTAI_PEACOCK_OUTFIT_PEACOCK_OUTFIT_3_j{fill:none;stroke:#000;stroke-linecap:round;stroke-linejoin:round;stroke-width:1.69px;}.BUNTAI_PEACOCK_OUTFIT_PEACOCK_OUTFIT_3_k{opacity:0.43;mix-blend-mode:multiply;}</style>
  </defs>
  <g class="BUNTAI_PEACOCK_OUTFIT_PEACOCK_OUTFIT_3_a">
    <path class="BUNTAI_PEACOCK_OUTFIT_PEACOCK_OUTFIT_3_b" d="M148.81,307.08l-10.18,4.47-2.54-4.33c-3.79-6.37-.51-7.61-.51-7.61,5.77.32,12.95,5.31,12.95,5.31C148.6,305.64,148.69,306.36,148.81,307.08Z" />
    <path class="BUNTAI_PEACOCK_OUTFIT_PEACOCK_OUTFIT_3_c" d="M160,320.5c-2-3.28-5.14-5.22-9.38-1.34s.81,12.93.81,12.93l-1.53,2h-2.57a126.56,126.56,0,0,1-8.34-9.62l4.25-4.86s-2-3.5-4.6-8l10.18-4.47c-.12-.72-.21-1.44-.28-2.16-.44-5,.41-9.78,4.09-11.05,5.83-2,11.94,5.56,19,14.31a50.62,50.62,0,0,1-4.19,4.27c-1.13,1.05-2.22,2-3,2.69.89,1.11,1.47,1.79,1.47,1.79l-4.08,4a8.13,8.13,0,0,1,.37,3.1C161.46,322.85,160.72,321.68,160,320.5Z" />
    <path class="BUNTAI_PEACOCK_OUTFIT_PEACOCK_OUTFIT_3_c" d="M113.45,426.44,106.92,405s2,1.15,4.2,2.69a21.15,21.15,0,0,0-.19,4.72,1.57,1.57,0,0,0,1.55,1.42h.15a1.58,1.58,0,0,0,1.41-1.72,14.88,14.88,0,0,1,0-2.22c1.59,1.32,2.9,2.69,3.19,3.79.89,3.21-.47,13.25-1,16.54S103.48,438,96.58,434h0C104.64,433.1,113.45,426.44,113.45,426.44Z" />
    <path class="BUNTAI_PEACOCK_OUTFIT_PEACOCK_OUTFIT_3_c" d="M104.55,397.15l-.43-1.41c4.09-.1,10.34-1,10.41-1.87.06-.49-.69-7.17-1.64-15.45,0,0,2,1.36,4.17,3.05a20.14,20.14,0,0,0-1.39,4.74A1.57,1.57,0,0,0,117,388h.18a1.56,1.56,0,0,0,1.56-1.38,13.68,13.68,0,0,1,.81-3c2.47,2.37,2.72,5.48,1.55,9s-2.18,12.62-4.92,12.88a3.07,3.07,0,0,1-1.48-.36c.41-1.9.83-3.3.84-3.33a1.56,1.56,0,0,0-3-.9c0,.11-.33,1.09-.67,2.52A80.65,80.65,0,0,1,104.55,397.15Z" />
    <path class="BUNTAI_PEACOCK_OUTFIT_PEACOCK_OUTFIT_3_c" d="M120.51,367.28a1.56,1.56,0,0,0,1.06,1.94,1.3,1.3,0,0,0,.44.06,1.57,1.57,0,0,0,1.5-1.12,14.59,14.59,0,0,1,.71-1.88c1.46,1.45,2.66,2.84,2.84,3.58.5,2.1-1.77,7.11-2.5,9.52-.6,2-1.17,4.16-4.1,2.1h0c.6-1.32,1.2-2.48,1.55-3.1a1.57,1.57,0,0,0-2.74-1.53c0,.1-.6,1.08-1.26,2.47-4.7-4.72-5.74-6.35-5.74-6.35h0l-.12-1.07h0l6.76-1.94-.9-8.38s0-.31,0-.86c0,0,1.8,1.49,3.8,3.3A20.24,20.24,0,0,0,120.51,367.28Z" />
    <path class="BUNTAI_PEACOCK_OUTFIT_PEACOCK_OUTFIT_3_c" d="M147.32,334.05c3.11,2.95,2,6-2.63,10.47s-5.81,6.24-7.35,5.53a11.77,11.77,0,0,1-2.43-2.52c1.65-1.69,3.1-3,3.13-3a1.57,1.57,0,1,0-2.09-2.33c-.1.09-1.39,1.25-2.95,2.82-2.24-3.06-4.53-6.61-5-8l11-12.56A126.56,126.56,0,0,0,147.32,334.05Z" />
    <path class="BUNTAI_PEACOCK_OUTFIT_PEACOCK_OUTFIT_3_c" d="M134.87,351.41c1.22,2.46.3,4.87-1.93,8.22s-2.67,4.94-4.93,4.31a5.92,5.92,0,0,1-1.9-1.16c.9-1.47,1.65-2.52,1.67-2.55a1.56,1.56,0,0,0-2.53-1.84c0,.08-.68.93-1.47,2.17a33.94,33.94,0,0,1-4.33-5.66,9.81,9.81,0,0,0,4.11-1.85c.06-.57,1-5.47,2.3-11.38,0,0,2.8,2.63,5.31,5.26a30.52,30.52,0,0,0-2.82,3.54,1.57,1.57,0,0,0,.45,2.16,1.53,1.53,0,0,0,.86.25,1.55,1.55,0,0,0,1.31-.7,26.42,26.42,0,0,1,2.32-2.93A12.67,12.67,0,0,1,134.87,351.41Z" />
    <path class="BUNTAI_PEACOCK_OUTFIT_PEACOCK_OUTFIT_3_d" d="M160,320.5c-2-3.28-5.14-5.22-9.38-1.34s.81,12.93.81,12.93l1.7-2.18s-2.36-5.87.86-8.29,7.07,3.05,7.93,2.78a.48.48,0,0,0,.3-.38C161.46,322.85,160.72,321.68,160,320.5Z" />
    <path class="BUNTAI_PEACOCK_OUTFIT_PEACOCK_OUTFIT_3_d" d="M136.09,307.22c-3.79-6.37-.51-7.61-.51-7.61a6.68,6.68,0,0,0-4.21.94c-5.54,3.69-3.89,5.62-3.89,5.62s7,11.05,10.69,13.72c-6.49,6.66-9.69,10.6-9.89,10.84.67-2.91,1.33-5.6,1.89-7.66a28.08,28.08,0,0,1-12.64-7.21c.69-.75,1.51-1.58,2.37-2.44-.24-.16-4.15-2.58-7.29,0s-1.6,6.74-1.6,6.74,9.13,5.78,14.32,7.29l-4.42,22.6-2.37,1.1c.2-2.78.44-5.48.73-7.14.82-4.72.92-7.49-1.33-7.62a50.43,50.43,0,0,1-13.73-3.45c.54-.89,1.17-2,1.82-3.2,0,0-8.48.88-8,4.63l.4,2.33a57.58,57.58,0,0,0,17.22,3.69s-1.16,19.27,0,27.05c-1.89.59-3.12.93-3.89,1.12-.57-5-1.13-10-1.57-14.1a115.42,115.42,0,0,1-12.85-.87,44.12,44.12,0,0,1-.38-4.4s-8.84,1.81-8.84,4.63a8.28,8.28,0,0,0,1.37,4.65,83.43,83.43,0,0,0,15.93,1.83,248.15,248.15,0,0,1,4.74,29.7l-7.37,1.33-3-9.9-6.06.46a27.56,27.56,0,0,1-3.25,0l-.26-6.14c-3.63.55-10.2,3.45-10.48,9.29,0,.55,0,1.29,0,2.19,0,0,8,3.13,15.14,1.29,3.5,8.65,9.21,27.06,11.93,36-10.82,4.79-22.79,2-22.79,2,1.2,6.5,2.54,7.55,8.57,7.53.81,0,1.71,0,2.72-.06a10.86,10.86,0,0,0,1.27-.1c8.06-.89,16.87-7.55,16.87-7.55L106.92,405l-2.37-7.81-.43-1.41c4.09-.1,10.34-1,10.41-1.87.06-.49-.69-7.17-1.64-15.45h0c-.2-1.76-.41-3.59-.63-5.45l-.12-1.07h0l6.76-1.94-.9-8.38s0-.31,0-.86h0c0-1.13.14-3.26.27-5.68a8,8,0,0,0,1.14-.12,9.81,9.81,0,0,0,4.11-1.85c.06-.57,1-5.47,2.3-11.38.2-1,.41-1.95.63-2.95L128,337l11-12.56,4.25-4.86s-2-3.5-4.6-8Z" />
    <path class="BUNTAI_PEACOCK_OUTFIT_PEACOCK_OUTFIT_3_b" d="M94.88,388.56c3.5,8.65,9.21,27.06,11.93,36-10.82,4.79-22.79,2-22.79,2-1.24-6.69-4-30.6-4.28-39.35C79.74,387.27,87.7,390.4,94.88,388.56Z" />
    <path class="BUNTAI_PEACOCK_OUTFIT_PEACOCK_OUTFIT_3_b" d="M138.17,319.89c-6.49,6.66-9.69,10.6-9.89,10.84.67-2.91,1.33-5.6,1.89-7.66a28.08,28.08,0,0,1-12.64-7.21c.69-.75,1.51-1.58,2.37-2.44h0c3.46-3.46,7.57-7.25,7.57-7.25S134.47,317.22,138.17,319.89Z" />
    <path class="BUNTAI_PEACOCK_OUTFIT_PEACOCK_OUTFIT_3_b" d="M125.33,327.45l-4.42,22.6-2.37,1.1c.2-2.78.44-5.48.73-7.14.82-4.72.92-7.49-1.33-7.62a50.43,50.43,0,0,1-13.73-3.45c.54-.89,1.17-2,1.82-3.2,2.33-4.27,5-9.58,5-9.58S120.14,325.94,125.33,327.45Z" />
    <path class="BUNTAI_PEACOCK_OUTFIT_PEACOCK_OUTFIT_3_b" d="M115.65,340.39s-1.16,19.27,0,27.05c-1.89.59-3.12.93-3.89,1.12-.57-5-1.13-10-1.57-14.1a115.42,115.42,0,0,1-12.85-.87,44.12,44.12,0,0,1-.38-4.4,38.81,38.81,0,0,1,1.47-12.49A57.58,57.58,0,0,0,115.65,340.39Z" />
    <path class="BUNTAI_PEACOCK_OUTFIT_PEACOCK_OUTFIT_3_b" d="M110.16,390l-7.37,1.33-3-9.9-6.06.46a27.56,27.56,0,0,1-3.25,0l-.26-6.14-.72-17.32a83.43,83.43,0,0,0,15.93,1.83A248.15,248.15,0,0,1,110.16,390Z" />
    <path class="BUNTAI_PEACOCK_OUTFIT_PEACOCK_OUTFIT_3_e" d="M183.64,426.84v17.89H145.38s-1.23-7.31-2.19-26.58,4.17-24.53,10.59-29.8a20.63,20.63,0,0,0,1.89-1.72h0c.4,0,13.23-.42,28-.74V397.6l-3.43-3.22a1.93,1.93,0,0,0-2.72.1,1.91,1.91,0,0,0-.51,1.3,1.89,1.89,0,0,0,.61,1.41L181,400.4l-3.21,3.43a1.93,1.93,0,0,0,.1,2.72,1.9,1.9,0,0,0,1.31.52,1.92,1.92,0,0,0,1.4-.61l3-3.23v18L180.21,418a1.92,1.92,0,0,0-2.62,2.81L181,424l-3.21,3.44a1.92,1.92,0,0,0,1.41,3.23,1.88,1.88,0,0,0,1.4-.61Z" />
    <path class="BUNTAI_PEACOCK_OUTFIT_PEACOCK_OUTFIT_3_f" d="M189.89,355.17v12.27a6.26,6.26,0,0,1-12.51,0V353.07a20.45,20.45,0,0,0,4.69,2C183,355.22,186,355.23,189.89,355.17Zm-3,11.47a3.27,3.27,0,1,0-3.27,3.28A3.28,3.28,0,0,0,186.91,366.64Z" />
    <path class="BUNTAI_PEACOCK_OUTFIT_PEACOCK_OUTFIT_3_d" d="M183.64,363.37a3.28,3.28,0,1,0,3.27,3.27A3.27,3.27,0,0,0,183.64,363.37Z" />
    <path class="BUNTAI_PEACOCK_OUTFIT_PEACOCK_OUTFIT_3_d" d="M242.1,363.37a3.28,3.28,0,1,0,3.27,3.27A3.27,3.27,0,0,0,242.1,363.37Z" />
    <path class="BUNTAI_PEACOCK_OUTFIT_PEACOCK_OUTFIT_3_e" d="M272,388.35c6.42,5.27,11.54,10.53,10.59,29.8s-2.19,26.58-2.19,26.58H183.64V426.84l.19-.2,3.43,3.22a1.92,1.92,0,0,0,2.62-2.81l-3.43-3.22,3.21-3.43a1.92,1.92,0,0,0-2.81-2.63l-3.21,3.44v-18l.19-.21,3.43,3.22a1.92,1.92,0,0,0,2.62-2.81l-3.43-3.21,3.21-3.44a1.92,1.92,0,0,0-2.81-2.62l-3.21,3.44V385.89c9.91-.22,20.67-.4,29.07-.41H213c20.88,0,56.36,1.12,57,1.15h0A23.77,23.77,0,0,0,272,388.35Z" />
    <path class="BUNTAI_PEACOCK_OUTFIT_PEACOCK_OUTFIT_3_d" d="M287.26,406.94c-.68-16.26-7.17-18.86-12.71-24.12s-7.38-9.57-7.38-15.58c0-4.57.07-10.37-2.2-15.65l-.07,0c-.52.88-1,1.71-1.58,2.47a20.29,20.29,0,0,1-1.87,2.37,67.19,67.19,0,0,1,.73,13.1c0,3.4,1.32,8,4,12.21-16.45-.23-50.3-1.19-53.23-1.27-2.2.06-36.7,1-53.34,1.27,2.65-4.24,4-8.81,4-12.21s-.12-8.83.73-13.1a22.65,22.65,0,0,1-1.87-2.37c-.57-.83-1.13-1.64-1.65-2.43-2.26,5.28-2.19,11.08-2.19,15.65,0,6-1.85,10.32-7.38,15.58s-12,7.86-12.71,24.12c-.2,4.62-.24,9.27-.19,13.67.1,7.68.51,14.61,1,19.31a.21.21,0,0,0,0,.07l0,0c.11,1.16.23,2.17.35,3,.09.68.19,1.26.28,1.74h5.47s-1.23-7.31-2.19-26.58,4.17-24.53,10.59-29.8a20.63,20.63,0,0,0,1.89-1.72h0c.4,0,13.23-.42,28-.74,9.91-.22,20.67-.4,29.07-.41H213c20.88,0,56.36,1.12,57,1.15h0a23.77,23.77,0,0,0,1.9,1.72c6.42,5.27,11.54,10.53,10.59,29.8s-2.19,26.58-2.19,26.58h5.47a.31.31,0,0,0,0-.07.38.38,0,0,1,0-.1.36.36,0,0,0,0-.1c.07-.43.15-.91.23-1.47.12-.86.24-1.88.35-3l0,0a.25.25,0,0,0,0-.09h0c.47-4.7.88-11.62,1-19.29C287.5,416.22,287.46,411.56,287.26,406.94Z" />
    <path class="BUNTAI_PEACOCK_OUTFIT_PEACOCK_OUTFIT_3_d" d="M177.38,353.07a20.45,20.45,0,0,0,4.69,2c.9.12,4,.13,7.82.07,8.75-.13,21.63-.57,23-.61h0c1.83.06,14.35.49,22.9.61,3.87.06,6.92.05,7.82-.07a20.48,20.48,0,0,0,4.7-2c2.73-1.39,5.92-3,8.31-3a33.9,33.9,0,0,0,2.8-5c-4.51-1.31-10.57,4-15.66,5.61h0a8.41,8.41,0,0,1-2.77.42c-2.78-.11-8.39-.45-13.9-.8-6.51-.4-12.86-.82-14.18-.92h-.07c-1,.07-7.57.5-14.29.92-5.51.35-11.13.69-13.91.8a8.18,8.18,0,0,1-2.74-.41h0c-5.09-1.59-11.16-6.93-15.67-5.61a33.9,33.9,0,0,0,2.8,5C171.46,350.08,174.65,351.68,177.38,353.07Z" />
    <path class="BUNTAI_PEACOCK_OUTFIT_PEACOCK_OUTFIT_3_g" d="M212.92,380.43c-2.2.06-36.7,1-53.34,1.27,2.65-4.24,4-8.81,4-12.21s-.12-8.83.73-13.1A10,10,0,0,0,166,357.9a6.52,6.52,0,0,0,5,1.32,3,3,0,0,0,2.55-2.24c.2-1.3-.79-2.43-1.66-3.41a32.13,32.13,0,0,1-2.73-3.52c2.39,0,5.58,1.63,8.31,3v14.37a6.26,6.26,0,0,0,12.51,0V355.17c8.75-.13,21.63-.57,23-.61h0c1.83.06,14.35.49,22.9.61v12.27a6.26,6.26,0,0,0,12.52,0V353.07c2.73-1.39,5.92-3,8.31-3a32.13,32.13,0,0,1-2.73,3.52c-.87,1-1.87,2.11-1.67,3.41a3,3,0,0,0,2.55,2.24,6.54,6.54,0,0,0,5-1.32,9.9,9.9,0,0,0,1.66-1.51,67.19,67.19,0,0,1,.73,13.1c0,3.4,1.32,8,4,12.21C249.7,381.47,215.85,380.51,212.92,380.43Z" />
    <path class="BUNTAI_PEACOCK_OUTFIT_PEACOCK_OUTFIT_3_f" d="M248.36,353.07v14.37a6.26,6.26,0,0,1-12.52,0V355.17c3.87.06,6.92.05,7.82-.07A20.48,20.48,0,0,0,248.36,353.07Zm-3,13.57a3.27,3.27,0,1,0-3.27,3.28A3.27,3.27,0,0,0,245.37,366.64Z" />
    <path class="BUNTAI_PEACOCK_OUTFIT_PEACOCK_OUTFIT_3_h" d="M169.07,350.05a34.08,34.08,0,0,1-5.24-12.62,91.11,91.11,0,0,1-1.92-13c-.86.27-4.69-5.2-7.93-2.78s-.86,8.29-.86,8.29a42.66,42.66,0,0,0,7.64,21.68c.52.79,1.08,1.6,1.65,2.43a22.65,22.65,0,0,0,1.87,2.37A10,10,0,0,0,166,357.9a6.52,6.52,0,0,0,5,1.32,3,3,0,0,0,2.55-2.24c.2-1.3-.79-2.43-1.66-3.41A32.13,32.13,0,0,1,169.07,350.05Z" />
    <path class="BUNTAI_PEACOCK_OUTFIT_PEACOCK_OUTFIT_3_h" d="M136,342.19c-.1.09-1.39,1.25-2.95,2.82h0c-.59.58-1.22,1.23-1.83,1.91a30.52,30.52,0,0,0-2.82,3.54,1.57,1.57,0,0,0,.45,2.16,1.53,1.53,0,0,0,.86.25,1.55,1.55,0,0,0,1.31-.7,26.42,26.42,0,0,1,2.32-2.93c.54-.6,1.09-1.18,1.62-1.72,1.65-1.69,3.1-3,3.13-3a1.57,1.57,0,1,0-2.09-2.33Z" />
    <path class="BUNTAI_PEACOCK_OUTFIT_PEACOCK_OUTFIT_3_h" d="M114.53,399.8a1.54,1.54,0,0,0-1.94,1c0,.11-.33,1.09-.67,2.52-.28,1.21-.59,2.72-.8,4.29a21.15,21.15,0,0,0-.19,4.72,1.57,1.57,0,0,0,1.55,1.42h.15a1.58,1.58,0,0,0,1.41-1.72,14.88,14.88,0,0,1,0-2.22,33.48,33.48,0,0,1,.71-4.78c.41-1.9.83-3.3.84-3.33A1.55,1.55,0,0,0,114.53,399.8Z" />
    <path class="BUNTAI_PEACOCK_OUTFIT_PEACOCK_OUTFIT_3_h" d="M121.41,376.24a1.58,1.58,0,0,0-2.14.6c0,.1-.6,1.08-1.26,2.47-.3.65-.64,1.39-1,2.16a20.14,20.14,0,0,0-1.39,4.74A1.57,1.57,0,0,0,117,388h.18a1.56,1.56,0,0,0,1.56-1.38,13.68,13.68,0,0,1,.81-3c.27-.71.57-1.42.87-2.1h0c.6-1.32,1.2-2.48,1.55-3.1A1.58,1.58,0,0,0,121.41,376.24Z" />
    <path class="BUNTAI_PEACOCK_OUTFIT_PEACOCK_OUTFIT_3_h" d="M127.44,358.05a1.57,1.57,0,0,0-2.19.34c0,.08-.68.93-1.47,2.17a37.68,37.68,0,0,0-1.94,3.45,20.24,20.24,0,0,0-1.33,3.27,1.56,1.56,0,0,0,1.06,1.94,1.3,1.3,0,0,0,.44.06,1.57,1.57,0,0,0,1.5-1.12,14.59,14.59,0,0,1,.71-1.88,30.29,30.29,0,0,1,1.89-3.5c.9-1.47,1.65-2.52,1.67-2.55A1.56,1.56,0,0,0,127.44,358.05Z" />
    <path class="BUNTAI_PEACOCK_OUTFIT_PEACOCK_OUTFIT_3_h" d="M186.45,423.83l3.21-3.43a1.92,1.92,0,0,0-2.81-2.63l-3.21,3.44L180.21,418a1.92,1.92,0,0,0-2.62,2.81L181,424l-3.21,3.44a1.92,1.92,0,0,0,1.41,3.23,1.88,1.88,0,0,0,1.4-.61l3-3.23v-.37l.19.17,3.43,3.22a1.92,1.92,0,0,0,2.62-2.81Z" />
    <path class="BUNTAI_PEACOCK_OUTFIT_PEACOCK_OUTFIT_3_h" d="M186.45,400.22l3.21-3.44a1.92,1.92,0,0,0-2.81-2.62l-3.21,3.44-3.43-3.22a1.93,1.93,0,0,0-2.72.1,1.91,1.91,0,0,0-.51,1.3,1.89,1.89,0,0,0,.61,1.41L181,400.4l-3.21,3.43a1.93,1.93,0,0,0,.1,2.72,1.9,1.9,0,0,0,1.31.52,1.92,1.92,0,0,0,1.4-.61l3-3.23v-.38l.19.17,3.43,3.22a1.92,1.92,0,0,0,2.62-2.81Z" />
    <path class="BUNTAI_PEACOCK_OUTFIT_PEACOCK_OUTFIT_3_h" d="M271.53,321.6a24.6,24.6,0,0,0-4-1.09A13.79,13.79,0,0,1,266,320l-.22.52c-.74,1.23-1.5,2.46-2.28,3.67l.36.23a91.11,91.11,0,0,1-1.92,13,33.88,33.88,0,0,1-5.23,12.62,32.13,32.13,0,0,1-2.73,3.52c-.87,1-1.87,2.11-1.67,3.41a3,3,0,0,0,2.55,2.24,6.54,6.54,0,0,0,5-1.32,9.9,9.9,0,0,0,1.66-1.51,20.29,20.29,0,0,0,1.87-2.37c.54-.76,1.06-1.59,1.58-2.47,5.13-8.71,9.54-22.7,10.18-25.43A6.43,6.43,0,0,0,271.53,321.6Z" />
    <path class="BUNTAI_PEACOCK_OUTFIT_PEACOCK_OUTFIT_3_f" d="M167.47,312.45c-1.13,1.05-2.22,2-3,2.69.89,1.11,1.47,1.79,1.47,1.79l-4.08,4a8.13,8.13,0,0,1,.37,3.1,231.38,231.38,0,0,0,19.73,26.65h0a8.18,8.18,0,0,0,2.74.41c2.78-.11,8.4-.45,13.91-.8-3.72-4.46-7.41-9-11.09-13.45Q177.48,324.65,167.47,312.45Z" />
    <path class="BUNTAI_PEACOCK_OUTFIT_PEACOCK_OUTFIT_3_f" d="M256.14,314.65c-6.43,7.84-11.46,14.35-17.91,22.19-3.68,4.49-7.37,9-11.09,13.45,5.51.35,11.12.69,13.9.8a8.41,8.41,0,0,0,2.77-.42h0a223.69,223.69,0,0,0,19.65-26.5c.78-1.21,1.54-2.44,2.28-3.67L266,320C262.65,318.66,258.54,317.46,256.14,314.65Z" />
    <path class="BUNTAI_PEACOCK_OUTFIT_PEACOCK_OUTFIT_3_i" d="M112.89,378.42s2,1.36,4.17,3.05c.31-.77.65-1.51,1-2.16-4.7-4.72-5.74-6.35-5.74-6.35h0c.22,1.86.43,3.69.63,5.45Z" />
    <path class="BUNTAI_PEACOCK_OUTFIT_PEACOCK_OUTFIT_3_i" d="M111.12,407.65c.21-1.57.52-3.08.8-4.29a80.65,80.65,0,0,1-7.37-6.21l2.37,7.81S108.9,406.11,111.12,407.65Z" />
    <path class="BUNTAI_PEACOCK_OUTFIT_PEACOCK_OUTFIT_3_i" d="M131.17,346.93c.61-.68,1.24-1.33,1.83-1.91h0c-2.24-3.06-4.53-6.61-5-8l-1.52,1.73c-.22,1-.43,2-.63,2.95C125.86,341.67,128.66,344.3,131.17,346.93Z" />
    <path class="BUNTAI_PEACOCK_OUTFIT_PEACOCK_OUTFIT_3_i" d="M123.78,360.56a33.94,33.94,0,0,1-4.33-5.66,8,8,0,0,1-1.14.12c-.13,2.42-.22,4.55-.27,5.68h0s1.8,1.49,3.8,3.3A37.68,37.68,0,0,1,123.78,360.56Z" />
    <path class="BUNTAI_PEACOCK_OUTFIT_PEACOCK_OUTFIT_3_i" d="M161.91,324.4a91.11,91.11,0,0,0,1.92,13,34.11,34.11,0,0,0,2.44,7.63c4.51-1.32,10.58,4,15.67,5.61A231.38,231.38,0,0,1,162.21,324,.48.48,0,0,1,161.91,324.4Z" />
    <path class="BUNTAI_PEACOCK_OUTFIT_PEACOCK_OUTFIT_3_i" d="M153.12,329.91l-1.7,2.18-1.53,2h-2.57c3.11,2.95,2,6-2.63,10.47s-5.81,6.24-7.35,5.53a11.77,11.77,0,0,1-2.43-2.52c-.53.54-1.08,1.12-1.62,1.72a12.67,12.67,0,0,1,1.58,2.16c1.22,2.46.3,4.87-1.93,8.22s-2.67,4.94-4.93,4.31a5.92,5.92,0,0,1-1.9-1.16,30.29,30.29,0,0,0-1.89,3.5c1.46,1.45,2.66,2.84,2.84,3.58.5,2.1-1.77,7.11-2.5,9.52-.6,2-1.17,4.16-4.1,2.1-.3.68-.6,1.39-.87,2.1,2.47,2.37,2.72,5.48,1.55,9s-2.18,12.62-4.92,12.88a3.07,3.07,0,0,1-1.48-.36,33.48,33.48,0,0,0-.71,4.78c1.59,1.32,2.9,2.69,3.19,3.79.89,3.21-.47,13.25-1,16.54S103.48,438,96.58,434h0a10.86,10.86,0,0,1-1.27.1c-1,0-1.91.06-2.72.06a16,16,0,0,1-4.32,7.65,46.81,46.81,0,0,0,22.28,5.52c5.81,0,11.58-1.07,17.3-2.14L139.63,443c-.12-.86-.24-1.87-.35-3v0c-.48-4.7-.89-11.63-1-19.31,0-4.4,0-9.05.19-13.67.68-16.26,7.17-18.86,12.71-24.12s7.38-9.57,7.38-15.58c0-4.57-.07-10.37,2.19-15.65A42.66,42.66,0,0,1,153.12,329.91Z" />
    <path class="BUNTAI_PEACOCK_OUTFIT_PEACOCK_OUTFIT_3_i" d="M332.71,429.77l.37-3.07c-1.76-2.48-1.5-5.81-2.27-8.75a24.44,24.44,0,0,0-1.73-4.25l-5-10.37c-3.72-7.73-10.2-15.56-8.91-24a9.7,9.7,0,0,0-.05-4.7,9.59,9.59,0,0,0-2.12-3.13c-2.11-2.38-3.58-5.37-5.69-7.74l-.19.2a159.57,159.57,0,0,0-.1-19.19l-.18-.05a24.78,24.78,0,0,1-7-3.21,5.63,5.63,0,0,0-2.63-4.18,19.25,19.25,0,0,0-4.66-2.05,79.2,79.2,0,0,1-17.53-9.12c-.64,2.73-5.05,16.72-10.18,25.43l.07,0c2.27,5.28,2.2,11.08,2.2,15.65,0,6,1.85,10.32,7.38,15.58s12,7.86,12.71,24.12c.2,4.62.24,9.28.18,13.67-.1,7.67-.51,14.59-1,19.29.23-.5.46-1,.68-1.48-.08.38-.15.73-.23,1.08-.3,1.45-.54,2.63-.72,3.51l11.7,2.17c5.72,1.07,11.48,2.13,17.3,2.14a46.81,46.81,0,0,0,22.28-5.52A16,16,0,0,1,332.71,429.77Z" />
    <path class="BUNTAI_PEACOCK_OUTFIT_PEACOCK_OUTFIT_3_i" d="M243.81,350.67c5.09-1.6,11.15-6.92,15.66-5.61a34.08,34.08,0,0,0,2.43-7.63,91.11,91.11,0,0,0,1.92-13l-.36-.23A223.69,223.69,0,0,1,243.81,350.67Z" />
    <path class="BUNTAI_PEACOCK_OUTFIT_PEACOCK_OUTFIT_3_j" d="M114,409.85a14.88,14.88,0,0,0,0,2.22,1.58,1.58,0,0,1-1.41,1.72h-.15a1.57,1.57,0,0,1-1.55-1.42,21.15,21.15,0,0,1,.19-4.72c.21-1.57.52-3.08.8-4.29.34-1.43.63-2.41.67-2.52a1.56,1.56,0,0,1,3,.9s-.43,1.43-.84,3.33A33.48,33.48,0,0,0,114,409.85Z" />
    <path class="BUNTAI_PEACOCK_OUTFIT_PEACOCK_OUTFIT_3_j" d="M120.46,381.48c-.3.68-.6,1.39-.87,2.1a13.68,13.68,0,0,0-.81,3,1.56,1.56,0,0,1-1.56,1.38H117a1.57,1.57,0,0,1-1.37-1.74,20.14,20.14,0,0,1,1.39-4.74c.31-.77.65-1.51,1-2.16.66-1.39,1.21-2.37,1.26-2.47a1.57,1.57,0,0,1,2.74,1.53c-.35.62-1,1.78-1.55,3.1" />
    <path class="BUNTAI_PEACOCK_OUTFIT_PEACOCK_OUTFIT_3_j" d="M124.22,366.28a14.59,14.59,0,0,0-.71,1.88,1.57,1.57,0,0,1-1.5,1.12,1.3,1.3,0,0,1-.44-.06,1.56,1.56,0,0,1-1.06-1.94,20.24,20.24,0,0,1,1.33-3.27,37.68,37.68,0,0,1,1.94-3.45c.79-1.24,1.42-2.09,1.47-2.17a1.56,1.56,0,0,1,2.53,1.84s-.77,1.08-1.67,2.55A30.29,30.29,0,0,0,124.22,366.28Z" />
    <path class="BUNTAI_PEACOCK_OUTFIT_PEACOCK_OUTFIT_3_j" d="M133,345c1.56-1.57,2.85-2.73,2.95-2.82a1.57,1.57,0,1,1,2.09,2.33s-1.48,1.32-3.13,3c-.53.54-1.08,1.12-1.62,1.72a26.42,26.42,0,0,0-2.32,2.93,1.55,1.55,0,0,1-1.31.7,1.53,1.53,0,0,1-.86-.25,1.57,1.57,0,0,1-.45-2.16,30.52,30.52,0,0,1,2.82-3.54c.61-.68,1.24-1.33,1.83-1.91" />
    <path class="BUNTAI_PEACOCK_OUTFIT_PEACOCK_OUTFIT_3_j" d="M114,409.85c1.59,1.32,2.9,2.69,3.19,3.79.89,3.21-.47,13.25-1,16.54S103.48,438,96.58,434" />
    <path class="BUNTAI_PEACOCK_OUTFIT_PEACOCK_OUTFIT_3_j" d="M111.12,407.65c-2.22-1.54-4.2-2.69-4.2-2.69" />
    <path class="BUNTAI_PEACOCK_OUTFIT_PEACOCK_OUTFIT_3_j" d="M112.89,378.42s2,1.36,4.17,3.05" />
    <path class="BUNTAI_PEACOCK_OUTFIT_PEACOCK_OUTFIT_3_j" d="M104.55,397.15a80.65,80.65,0,0,0,7.37,6.21" />
    <path class="BUNTAI_PEACOCK_OUTFIT_PEACOCK_OUTFIT_3_j" d="M119.59,383.58c2.47,2.37,2.72,5.48,1.55,9s-2.18,12.62-4.92,12.88a3.07,3.07,0,0,1-1.48-.36" />
    <path class="BUNTAI_PEACOCK_OUTFIT_PEACOCK_OUTFIT_3_j" d="M124.22,366.28c1.46,1.45,2.66,2.84,2.84,3.58.5,2.1-1.77,7.11-2.5,9.52-.6,2-1.17,4.16-4.1,2.1h0" />
    <path class="BUNTAI_PEACOCK_OUTFIT_PEACOCK_OUTFIT_3_j" d="M112.27,373s1,1.63,5.74,6.35" />
    <path class="BUNTAI_PEACOCK_OUTFIT_PEACOCK_OUTFIT_3_j" d="M121.84,364c-2-1.81-3.8-3.3-3.8-3.3" />
    <path class="BUNTAI_PEACOCK_OUTFIT_PEACOCK_OUTFIT_3_j" d="M133.29,349.25a12.67,12.67,0,0,1,1.58,2.16c1.22,2.46.3,4.87-1.93,8.22s-2.67,4.94-4.93,4.31a5.92,5.92,0,0,1-1.9-1.16" />
    <path class="BUNTAI_PEACOCK_OUTFIT_PEACOCK_OUTFIT_3_j" d="M119.45,354.9a33.94,33.94,0,0,0,4.33,5.66" />
    <path class="BUNTAI_PEACOCK_OUTFIT_PEACOCK_OUTFIT_3_j" d="M125.86,341.67s2.8,2.63,5.31,5.26" />
    <path class="BUNTAI_PEACOCK_OUTFIT_PEACOCK_OUTFIT_3_j" d="M128,337c.46,1.41,2.75,5,5,8h0" />
    <path class="BUNTAI_PEACOCK_OUTFIT_PEACOCK_OUTFIT_3_j" d="M139,324.43a126.56,126.56,0,0,0,8.34,9.62c3.11,2.95,2,6-2.63,10.47s-5.81,6.24-7.35,5.53a11.77,11.77,0,0,1-2.43-2.52" />
    <path class="BUNTAI_PEACOCK_OUTFIT_PEACOCK_OUTFIT_3_j" d="M181.94,350.67A231.38,231.38,0,0,1,162.21,324c-.75-1.17-1.49-2.34-2.22-3.52-2-3.28-5.14-5.22-9.38-1.34s.81,12.93.81,12.93" />
    <path class="BUNTAI_PEACOCK_OUTFIT_PEACOCK_OUTFIT_3_j" d="M286.11,443l.08,0,11.7,2.17c5.72,1.07,11.48,2.13,17.3,2.14a46.81,46.81,0,0,0,22.28-5.52,16,16,0,0,1-4.76-12l.37-3.07c-1.76-2.48-1.5-5.81-2.27-8.75a24.44,24.44,0,0,0-1.73-4.25l-5-10.37c-3.72-7.73-10.2-15.56-8.91-24a9.7,9.7,0,0,0-.05-4.7,9.59,9.59,0,0,0-2.12-3.13c-2.11-2.38-3.58-5.37-5.69-7.74l-.19.2a159.57,159.57,0,0,0-.1-19.19l-.18-.05a24.78,24.78,0,0,1-7-3.21,5.63,5.63,0,0,0-2.63-4.18,19.25,19.25,0,0,0-4.66-2.05,79.2,79.2,0,0,1-17.53-9.12,6.43,6.43,0,0,0-3.55-4.52,24.6,24.6,0,0,0-4-1.09A13.79,13.79,0,0,1,266,320c-3.31-1.32-7.42-2.52-9.82-5.33" />
    <path class="BUNTAI_PEACOCK_OUTFIT_PEACOCK_OUTFIT_3_j" d="M161.91,324.4a91.11,91.11,0,0,0,1.92,13,34.08,34.08,0,0,0,5.24,12.62,32.13,32.13,0,0,0,2.73,3.52c.87,1,1.86,2.11,1.66,3.41a3,3,0,0,1-2.55,2.24,6.52,6.52,0,0,1-5-1.32,10,10,0,0,1-1.67-1.51,22.65,22.65,0,0,1-1.87-2.37c-.57-.83-1.13-1.64-1.65-2.43a42.66,42.66,0,0,1-7.64-21.68" />
    <path class="BUNTAI_PEACOCK_OUTFIT_PEACOCK_OUTFIT_3_j" d="M128,410.65c.59,5.55,2.92,10.74,5.22,15.83q3,6.72,6.07,13.44a.21.21,0,0,0,0,.07l0,0-14.34-14.37" />
    <path class="BUNTAI_PEACOCK_OUTFIT_PEACOCK_OUTFIT_3_j" d="M84,426.62s12,2.75,22.79-2" />
    <path class="BUNTAI_PEACOCK_OUTFIT_PEACOCK_OUTFIT_3_j" d="M119.91,313.42c3.46-3.46,7.57-7.25,7.57-7.25s-1.65-1.93,3.89-5.62a6.68,6.68,0,0,1,4.21-.94c5.77.32,12.95,5.31,12.95,5.31" />
    <path class="BUNTAI_PEACOCK_OUTFIT_PEACOCK_OUTFIT_3_j" d="M117.53,315.86c.69-.75,1.51-1.58,2.37-2.44" />
    <path class="BUNTAI_PEACOCK_OUTFIT_PEACOCK_OUTFIT_3_j" d="M167.47,312.45q10,12.19,20,24.39c3.68,4.49,7.37,9,11.09,13.45" />
    <path class="BUNTAI_PEACOCK_OUTFIT_PEACOCK_OUTFIT_3_j" d="M150.34,313.28a36.51,36.51,0,0,1-1.53-6.2c-.12-.72-.21-1.44-.28-2.16-.44-5,.41-9.78,4.09-11.05,5.83-2,11.94,5.56,19,14.31a50.62,50.62,0,0,1-4.19,4.27c-1.13,1.05-2.22,2-3,2.69" />
    <line class="BUNTAI_PEACOCK_OUTFIT_PEACOCK_OUTFIT_3_j" x1="130.89" y1="393.14" x2="137.16" y2="411.5" />
    <path class="BUNTAI_PEACOCK_OUTFIT_PEACOCK_OUTFIT_3_j" d="M155.68,386.63c.4,0,13.23-.42,28-.74,9.91-.22,20.67-.4,29.07-.41" />
    <path class="BUNTAI_PEACOCK_OUTFIT_PEACOCK_OUTFIT_3_j" d="M183.64,397.6l3.21-3.44a1.92,1.92,0,0,1,2.81,2.62l-3.21,3.44" />
    <path class="BUNTAI_PEACOCK_OUTFIT_PEACOCK_OUTFIT_3_j" d="M181,400.4l-3.21,3.43a1.93,1.93,0,0,0,.1,2.72,1.9,1.9,0,0,0,1.31.52,1.92,1.92,0,0,0,1.4-.61l3-3.23.19-.21" />
    <path class="BUNTAI_PEACOCK_OUTFIT_PEACOCK_OUTFIT_3_j" d="M181,400.4l-3.42-3.21a1.89,1.89,0,0,1-.61-1.41,1.91,1.91,0,0,1,.51-1.3,1.93,1.93,0,0,1,2.72-.1l3.43,3.22,2.81,2.62,3.43,3.21a1.92,1.92,0,0,1-2.62,2.81L183.83,403l-.19-.17Z" />
    <path class="BUNTAI_PEACOCK_OUTFIT_PEACOCK_OUTFIT_3_j" d="M183.64,421.21l3.21-3.44a1.92,1.92,0,0,1,2.81,2.63l-3.21,3.43" />
    <path class="BUNTAI_PEACOCK_OUTFIT_PEACOCK_OUTFIT_3_j" d="M181,424l-3.21,3.44a1.92,1.92,0,0,0,1.41,3.23,1.88,1.88,0,0,0,1.4-.61l3-3.23.19-.2" />
    <path class="BUNTAI_PEACOCK_OUTFIT_PEACOCK_OUTFIT_3_j" d="M181,424l-3.42-3.2a1.9,1.9,0,0,1-.61-1.41,1.91,1.91,0,0,1,3.23-1.4l3.43,3.21,2.81,2.62,3.43,3.22a1.92,1.92,0,0,1-2.62,2.81l-3.43-3.22-.19-.17Z" />
    <path class="BUNTAI_PEACOCK_OUTFIT_PEACOCK_OUTFIT_3_j" d="M186.91,366.64a3.27,3.27,0,1,1-3.27-3.27A3.29,3.29,0,0,1,186.91,366.64Z" />
    <path class="BUNTAI_PEACOCK_OUTFIT_PEACOCK_OUTFIT_3_j" d="M189.89,355.17v12.27a6.26,6.26,0,0,1-12.51,0V353.07" />
    <polyline class="BUNTAI_PEACOCK_OUTFIT_PEACOCK_OUTFIT_3_j" points="183.64 385.89 183.64 397.6 183.64 402.85 183.64 403.23 183.64 421.21 183.64 426.47 183.64 426.84 183.64 444.73 183.64 445.3" />
    <path class="BUNTAI_PEACOCK_OUTFIT_PEACOCK_OUTFIT_3_j" d="M213,380.43h-.11c-2.2.06-36.7,1-53.34,1.27" />
    <path class="BUNTAI_PEACOCK_OUTFIT_PEACOCK_OUTFIT_3_j" d="M138.29,420.61s-.52-3.79-1.13-9.11c-.75-6.57-1.61-15.45-1.76-22.32-.28-12.44.41-15.86-.82-15.45,0,0-3.28,2.28-1.87,10.85" />
    <path class="BUNTAI_PEACOCK_OUTFIT_PEACOCK_OUTFIT_3_j" d="M145.38,444.73s-1.23-7.31-2.19-26.58,4.17-24.53,10.59-29.8a20.63,20.63,0,0,0,1.89-1.72h0a28.36,28.36,0,0,0,3.9-4.93c2.65-4.24,4-8.81,4-12.21s-.12-8.83.73-13.1" />
    <path class="BUNTAI_PEACOCK_OUTFIT_PEACOCK_OUTFIT_3_j" d="M212.94,354.56H213" />
    <path class="BUNTAI_PEACOCK_OUTFIT_PEACOCK_OUTFIT_3_j" d="M169.07,350.05c2.39,0,5.58,1.63,8.31,3a20.45,20.45,0,0,0,4.69,2c.9.12,4,.13,7.82.07,8.75-.13,21.63-.57,23-.61" />
    <line class="BUNTAI_PEACOCK_OUTFIT_PEACOCK_OUTFIT_3_j" x1="148.81" y1="307.08" x2="138.63" y2="311.55" />
    <path class="BUNTAI_PEACOCK_OUTFIT_PEACOCK_OUTFIT_3_j" d="M79.74,387.27s8,3.13,15.14,1.29c3.5,8.65,9.21,27.06,11.93,36" />
    <path class="BUNTAI_PEACOCK_OUTFIT_PEACOCK_OUTFIT_3_j" d="M89.49,358.47a83.43,83.43,0,0,0,15.93,1.83,248.15,248.15,0,0,1,4.74,29.7l-7.37,1.33" />
    <path class="BUNTAI_PEACOCK_OUTFIT_PEACOCK_OUTFIT_3_j" d="M119.91,313.42h0c-.24-.16-4.15-2.58-7.29,0s-1.6,6.74-1.6,6.74-2.65,5.31-5,9.58c-.65,1.19-1.28,2.31-1.82,3.2a50.43,50.43,0,0,0,13.73,3.45c2.25.13,2.15,2.9,1.33,7.62-.29,1.66-.53,4.36-.73,7.14-.08,1.3-.16,2.62-.23,3.87-.13,2.42-.22,4.55-.27,5.68h0c0,.55,0,.86,0,.86l.9,8.38-6.76,1.94" />
    <path class="BUNTAI_PEACOCK_OUTFIT_PEACOCK_OUTFIT_3_j" d="M127.48,306.17s7,11.05,10.69,13.72c-6.49,6.66-9.69,10.6-9.89,10.84h0" />
    <path class="BUNTAI_PEACOCK_OUTFIT_PEACOCK_OUTFIT_3_j" d="M84,380.61a18.14,18.14,0,0,0,6.45,1.32,27.56,27.56,0,0,0,3.25,0l6.06-.46,3,9.9,1.33,4.41.43,1.41,2.37,7.81,6.53,21.48s-8.81,6.66-16.87,7.55a10.86,10.86,0,0,1-1.27.1c-1,0-1.91.06-2.72.06-6,0-7.37-1-8.57-7.53-1.24-6.69-4-30.6-4.28-39.35,0-.9,0-1.64,0-2.19.28-5.84,6.85-8.74,10.48-9.29" />
    <path class="BUNTAI_PEACOCK_OUTFIT_PEACOCK_OUTFIT_3_j" d="M90.47,381.93l-.26-6.14-.72-17.32a8.28,8.28,0,0,1-1.37-4.65c0-2.82,8.84-4.63,8.84-4.63" />
    <path class="BUNTAI_PEACOCK_OUTFIT_PEACOCK_OUTFIT_3_j" d="M104.12,395.74c4.09-.1,10.34-1,10.41-1.87.06-.49-.69-7.17-1.64-15.45h0c-.2-1.76-.41-3.59-.63-5.45l-.12-1.07c-.12-1.11-.26-2.22-.38-3.33-.57-5-1.13-10-1.57-14.1a115.42,115.42,0,0,1-12.85-.87c-2.15-.24-3.62-.43-3.62-.43" />
    <path class="BUNTAI_PEACOCK_OUTFIT_PEACOCK_OUTFIT_3_j" d="M98.43,336.7a57.58,57.58,0,0,0,17.22,3.69s-1.16,19.27,0,27.05c-1.89.59-3.12.93-3.89,1.12" />
    <path class="BUNTAI_PEACOCK_OUTFIT_PEACOCK_OUTFIT_3_j" d="M97.34,353.59a44.12,44.12,0,0,1-.38-4.4,38.81,38.81,0,0,1,1.47-12.49l-.4-2.33c-.48-3.75,8-4.63,8-4.63" />
    <path class="BUNTAI_PEACOCK_OUTFIT_PEACOCK_OUTFIT_3_j" d="M111,320.16s9.13,5.78,14.32,7.29l-4.42,22.6-2.37,1.1" />
    <path class="BUNTAI_PEACOCK_OUTFIT_PEACOCK_OUTFIT_3_j" d="M118.31,355a8,8,0,0,0,1.14-.12,9.81,9.81,0,0,0,4.11-1.85c.06-.57,1-5.47,2.3-11.38.2-1,.41-1.95.63-2.95.58-2.67,1.2-5.42,1.79-8,.67-2.91,1.33-5.6,1.89-7.66a28.08,28.08,0,0,1-12.64-7.21c-.71-.68-1.08-1.12-1.08-1.12" />
    <path class="BUNTAI_PEACOCK_OUTFIT_PEACOCK_OUTFIT_3_j" d="M126.49,338.72,128,337l11-12.56,4.25-4.86s-2-3.5-4.6-8l-2.54-4.33c-3.79-6.37-.51-7.61-.51-7.61" />
    <path class="BUNTAI_PEACOCK_OUTFIT_PEACOCK_OUTFIT_3_j" d="M157.18,297c-6,.95,3.47,13.46,7.27,18.16.89,1.11,1.47,1.79,1.47,1.79l-4.08,4a8.13,8.13,0,0,1,.37,3.1.48.48,0,0,1-.3.38c-.86.27-4.69-5.2-7.93-2.78s-.86,8.29-.86,8.29l-1.7,2.18-1.53,2h-2.57" />
    <path class="BUNTAI_PEACOCK_OUTFIT_PEACOCK_OUTFIT_3_j" d="M285.83,444.73H139.91c-.09-.48-.19-1.06-.28-1.74-.12-.86-.24-1.87-.35-3v0c-.48-4.7-.89-11.63-1-19.31,0-4.4,0-9.05.19-13.67.68-16.26,7.17-18.86,12.71-24.12s7.38-9.57,7.38-15.58c0-4.57-.07-10.37,2.19-15.65" />
    <path class="BUNTAI_PEACOCK_OUTFIT_PEACOCK_OUTFIT_3_j" d="M213,349.37H213" />
    <path class="BUNTAI_PEACOCK_OUTFIT_PEACOCK_OUTFIT_3_j" d="M166.27,345.06c4.51-1.32,10.58,4,15.67,5.61h0a8.18,8.18,0,0,0,2.74.41c2.78-.11,8.4-.45,13.91-.8,6.72-.42,13.28-.85,14.29-.92" />
    <path class="BUNTAI_PEACOCK_OUTFIT_PEACOCK_OUTFIT_3_j" d="M243.81,350.67a223.69,223.69,0,0,0,19.65-26.5c.78-1.21,1.54-2.44,2.28-3.67" />
    <path class="BUNTAI_PEACOCK_OUTFIT_PEACOCK_OUTFIT_3_j" d="M263.82,324.4a91.11,91.11,0,0,1-1.92,13,33.88,33.88,0,0,1-5.23,12.62,32.13,32.13,0,0,1-2.73,3.52c-.87,1-1.87,2.11-1.67,3.41a3,3,0,0,0,2.55,2.24,6.54,6.54,0,0,0,5-1.32,9.9,9.9,0,0,0,1.66-1.51,20.29,20.29,0,0,0,1.87-2.37c.54-.76,1.06-1.59,1.58-2.47,5.13-8.71,9.54-22.7,10.18-25.43" />
    <path class="BUNTAI_PEACOCK_OUTFIT_PEACOCK_OUTFIT_3_j" d="M286.46,439.9a.25.25,0,0,1,0,.09l0,0,.45-.44,13.88-13.92" />
    <path class="BUNTAI_PEACOCK_OUTFIT_PEACOCK_OUTFIT_3_j" d="M297.74,410.65c-.59,5.55-2.91,10.74-5.21,15.83l-5.39,11.93" />
    <path class="BUNTAI_PEACOCK_OUTFIT_PEACOCK_OUTFIT_3_j" d="M227.14,350.29c3.72-4.46,7.41-9,11.09-13.45,6.45-7.84,11.48-14.35,17.91-22.19" />
    <path class="BUNTAI_PEACOCK_OUTFIT_PEACOCK_OUTFIT_3_j" d="M306.87,344.68c-.83,3.61-2.59,11.82-4.76,22.08-5,23.49-12.07,57.67-15,71.65h0c-.08.38-.15.73-.23,1.09-.3,1.44-.54,2.62-.72,3.5-.14.68-.24,1.17-.31,1.45" />
    <path class="BUNTAI_PEACOCK_OUTFIT_PEACOCK_OUTFIT_3_j" d="M285.83,444.73a.31.31,0,0,0,0-.07.38.38,0,0,1,0-.1.36.36,0,0,0,0-.1c.07-.43.15-.91.23-1.47.12-.86.24-1.88.35-3v-.05h0c.47-4.7.88-11.62,1-19.29.06-4.39,0-9.05-.18-13.67-.68-16.26-7.17-18.86-12.71-24.12s-7.38-9.57-7.38-15.58c0-4.57.07-10.37-2.2-15.65" />
    <path class="BUNTAI_PEACOCK_OUTFIT_PEACOCK_OUTFIT_3_j" d="M259.47,345.06c-4.51-1.31-10.57,4-15.66,5.61h0a8.41,8.41,0,0,1-2.77.42c-2.78-.11-8.39-.45-13.9-.8-6.51-.4-12.86-.82-14.18-.92h-.25" />
    <path class="BUNTAI_PEACOCK_OUTFIT_PEACOCK_OUTFIT_3_j" d="M270.06,386.63c-.67,0-36.15-1.14-57-1.15h-.32" />
    <path class="BUNTAI_PEACOCK_OUTFIT_PEACOCK_OUTFIT_3_j" d="M238.83,366.64a3.27,3.27,0,1,0,3.27-3.27A3.28,3.28,0,0,0,238.83,366.64Z" />
    <path class="BUNTAI_PEACOCK_OUTFIT_PEACOCK_OUTFIT_3_j" d="M248.36,353.07v14.37a6.26,6.26,0,0,1-12.52,0V355.17" />
    <path class="BUNTAI_PEACOCK_OUTFIT_PEACOCK_OUTFIT_3_j" d="M212.71,380.43h.21c2.93.08,36.78,1,53.23,1.27h0" />
    <path class="BUNTAI_PEACOCK_OUTFIT_PEACOCK_OUTFIT_3_j" d="M287.44,420.61s2.62-19,2.89-31.43-.4-15.86.82-15.45c0,0,3.29,2.28,1.87,10.85" />
    <path class="BUNTAI_PEACOCK_OUTFIT_PEACOCK_OUTFIT_3_j" d="M280.36,444.73s1.23-7.31,2.19-26.58-4.17-24.53-10.59-29.8a23.77,23.77,0,0,1-1.9-1.72h0a28.42,28.42,0,0,1-3.91-4.93c-2.65-4.24-4-8.81-4-12.21a67.19,67.19,0,0,0-.73-13.1" />
    <path class="BUNTAI_PEACOCK_OUTFIT_PEACOCK_OUTFIT_3_j" d="M256.67,350.05c-2.39,0-5.58,1.63-8.31,3a20.48,20.48,0,0,1-4.7,2c-.9.12-3.95.13-7.82.07-8.55-.12-21.07-.55-22.9-.61h-.23" />
    <g class="BUNTAI_PEACOCK_OUTFIT_PEACOCK_OUTFIT_3_k">
      <path d="M263.78,324.86s-3.92,11.43-7.11,15.19a44.18,44.18,0,0,1-5.45,5.53,18.51,18.51,0,0,0-1.29,2.2c.2-.1,3.94-2.36,6.74-2.54s3,.34,3.23,0,3.62-11.66,3.76-15.74S263.78,324.86,263.78,324.86Z" />
      <path d="M288.82,415.11c.2-.67-1.18-9.61-.36-28.39s.64-38.87,2.37-30.33,1.12,26.86,1.61,32.06S293.61,400,293.61,400s3-25,6-33.38,3.56-7.33,3.56-7.33-10.63,51.13-10.69,51.34l-2.89,10.59s4-9.11,8.75-20.68,7-13.93,7-13.93-3.05,16.46-4.12,21-6.18,13.16-6.38,13.63-5.5,12.37-5.5,12.37,2.06-3.39,9.9-8,12.85-9,11.57-6.9-10.5,13.76-13.27,15.22-9.34,6.08-9.34,6.08S287.37,420.18,288.82,415.11Z" />
      <path d="M143.23,390.71a46,46,0,0,0,1-8.4c.09-4.43-3.19-25.92-3.19-25.92s5.37,17.71,5.83,20.83.78,8.26.78,8.26l-1,1.6Z" />
      <path d="M149.08,338.16s-2.84,11,2.45,19.57,7,9.12,7,9.12-.53-9.64,2.36-15a127.43,127.43,0,0,1-8.45-21.1l-2.41,3.69-2.25.14A2.58,2.58,0,0,1,149.08,338.16Z" />
      <path d="M213,349.36s-2.05,3.09,0,5.19c-1.65,14.26-3.29,23.51-1.92,25.93-3.14,3.77-.51,5.58-.51,5.58s-3.59,18.1-4,32.68a123.24,123.24,0,0,0,2.19,26.56H139.91s-4.27-37.08,0-48,11.3-14.51,11.3-14.51,9.77-6.55,10.65-15.68,2.44-12.24,2.44-12.24,5.7.79,5.83-1.67a6.88,6.88,0,0,0-1.47-4.37l-1.17-3.62s6.37,2.49,11.63,4.3,15,1.51,17.49,1.13S213,349.36,213,349.36Z" />
      <path d="M138.27,434.68s-2.05-5.28-6.38-17.4-6.51-18.22-6.51-18.22,4,17.4,6.74,25.28-1.91,3.06-1.91,3.06L119,420.61s17,18.22,18.78,20.86l2.17,3.26Z" />
      <path d="M137.16,411.5s-8.27-10-9.73-21.51,5.19,1.38,5.9,3.56-2.42-9.61-2.16-14.24a35.19,35.19,0,0,1,2.16-9.39s1.11,9.43,2.89,17.35a90.62,90.62,0,0,1,2.05,11.61l.87,1.68Z" />
      <path d="M118,365s4.45,9.1,5.27,9.91,1.25,4.48,1.25,4.48l-1.25,2.32-2.4.3s1.44-4.92,1-5.12a11.54,11.54,0,0,0-2.67,0l-1,2.47s-4.15-4.07-4.44-4.41-1.58-2.74-1.58-2.74l4.8-1.09,1.87-2.26Z" />
      <path d="M125.53,344.66s2.29,11.72,4,13.39,1.37,4.67,1.37,4.67l-2.67,2-1.77-1.6s2-4.15,1.29-4.61-2.76.18-3.44,1.24l-1,1.57-3.21-5.66,3.45-2.74Z" />
      <path d="M138.63,325.22s3.74,8.62,3.12,14.94a23.32,23.32,0,0,1-3.12,10l-2.29-1-.93-1.86,3.22-3.94-.89-.88s-.81-.53-2.33.54a22.07,22.07,0,0,0-2.5,2.05L128,337Z" />
      <path d="M87.84,434.61s7.48.53,12.44-1.38,6.56-2.71,6.56-2.71l3.32-1.51S99.87,399.29,99,395.28,96.94,382,96.94,382l2.06.31s1.45-23.22,6.35-28L101.2,354s3.36-13.92,9.81-19.11l-3.49-.75s7-11.15,18.34-13.13l-3.8-1.51s7.79-7.89,15.68-9.45c-3.19-6.17-2.88-10.43-2.88-10.43s-7.38.81-7.38,7.47c-5.94,4.73-7.58,6.34-7.58,6.34s-5.22-3.15-7.84,1.32a8.66,8.66,0,0,0-1,6.26l-5.67,8.91s-6.88-.27-7.31,4.46a70,70,0,0,1-1.62,9.39l.53,6.44a8.37,8.37,0,0,0-2.86,0c-1.61.27-6.51,1.92-5.5,6.35s1.22,19.32,1.22,19.32a11.63,11.63,0,0,0-8.52,6.06c-2.68,5.42-1,10.11-.86,17.08s3.44,27.46,4.29,30.63S86.61,434.36,87.84,434.61Z" />
    </g>
  </g>
</svg>