<svg xmlns="http://www.w3.org/2000/svg" viewBox="0 0 432 432">
  <defs>
    <style>.BUNTAI_PEACOCK_OUTFIT_PEACOCK_OUTFIT_20_a{isolation:isolate;}.BUNTAI_PEACOCK_OUTFIT_PEACOCK_OUTFIT_20_b{fill:#fffcf1;}.BUNTAI_PEACOCK_OUTFIT_PEACOCK_OUTFIT_20_c{fill:#631113;}.BUNTAI_PEACOCK_OUTFIT_PEACOCK_OUTFIT_20_d{fill:#3a594a;}.BUNTAI_PEACOCK_OUTFIT_PEACOCK_OUTFIT_20_e{fill:#c9a976;}.BUNTAI_PEACOCK_OUTFIT_PEACOCK_OUTFIT_20_f,.BUNTAI_PEACOCK_OUTFIT_PEACOCK_OUTFIT_20_g{fill:none;stroke:#000;stroke-linecap:round;stroke-linejoin:round;}.BUNTAI_PEACOCK_OUTFIT_PEACOCK_OUTFIT_20_f{stroke-width:1.48px;}.BUNTAI_PEACOCK_OUTFIT_PEACOCK_OUTFIT_20_g{stroke-width:1.28px;}.BUNTAI_PEACOCK_OUTFIT_PEACOCK_OUTFIT_20_h{opacity:0.43;mix-blend-mode:multiply;}</style>
  </defs>
  <g class="BUNTAI_PEACOCK_OUTFIT_PEACOCK_OUTFIT_20_a">
    <path class="BUNTAI_PEACOCK_OUTFIT_PEACOCK_OUTFIT_20_b" d="M332.73,381a186.56,186.56,0,0,0-37.36,23.9l-.3.24-.57.46h0a261.49,261.49,0,0,0-34.83,34.65A225.69,225.69,0,0,0,245,418.43a258.38,258.38,0,0,0-22-25.38l.59-.5q4.73-3.94,9.55-7.63l0,0a277.57,277.57,0,0,1,35.37-23c1.29-.69,2.58-1.39,3.87-2.06a196,196,0,0,1,38.7-15.65c3.38,3,8,8.77,12.93,17.88A167,167,0,0,1,332.73,381Z" />
    <path class="BUNTAI_PEACOCK_OUTFIT_PEACOCK_OUTFIT_20_b" d="M260.83,442.29h0l-.31,0-.66.05h-.05c-9.72.59-18.72-1.43-36.78-1-3.42.08-7.18.27-11.33.56l-4.3.35q-3.92.35-8.3.85c-1,.1-2,.21-3,.34l-3.27.4a98.38,98.38,0,0,1-13.2.87s-.84-1.35-2.45-3.72l-1.6-2.33-.47-.66-.4-.57-.75-1.05-1.65-2.27-.22-.29-.23-.31-.16-.22-.35-.47-.41-.55-.23-.31-.74-1c-.17-.21-.33-.43-.5-.66L168.45,429c-1.25-1.61-2.59-3.31-4-5.09l-1.16-1.42c-2.74-3.34-5.81-6.91-9.18-10.61l0,0s0,0,0,0a.71.71,0,0,0-.12-.13l0,0c-.51-.57-1-1.13-1.56-1.7l-1.64-1.75L149,406.45l-1.72-1.77-1.76-1.78-1.8-1.78c-2.43-2.38-5-4.78-7.61-7.16-1.27-1.15-2.56-2.29-3.89-3.43l-1.66-1.41c-.53-.45-1.06-.9-1.59-1.33L128,387c-.83-.68-1.66-1.36-2.51-2l-.89-.7-1.25-1,0,0-.92-.71-1.85-1.4c-.66-.5-1.33-1-2-1.47-1.07-.79-2.16-1.55-3.26-2.32l-.76-.53-1.48-1-.52-.35-1.74-1.15-1.71-1.1q-2.07-1.32-4.19-2.58c-.39-.24-.8-.47-1.2-.7l0,0-.5-.29L102.1,369l0,0h0l-1-.56-1-.57a.38.38,0,0,1,.06-.13c2.24-4.7,4.47-8.95,6.65-12.76l.47-.82c.08-.15.17-.3.26-.45.22-.39.45-.77.67-1.15.62-1,1.23-2.05,1.84-3,.24-.38.47-.75.71-1.11.37-.58.73-1.15,1.1-1.71l.45-.68c.48-.73,1-1.44,1.45-2.13l.72-1h0l.77-1.06c.5-.7,1-1.37,1.5-2l.66-.85c.4-.51.8-1,1.2-1.49.26-.33.53-.64.78-.94l.93-1.08.39-.44c1.37-1.53,2.65-2.82,3.83-3.9l.35-.31c.58-.52,1.13-1,1.66-1.38l1.57.53,1.36.48,1.72.63,1.73.66,1.54.6,1.16.47c4.26,1.73,8.69,3.73,13.22,6l1.1.54c1.18.6,2.37,1.2,3.56,1.83l.06,0,.49.25,1.36.72q2,1,4,2.17l2,1.11,2,1.15c.67.38,1.33.78,2,1.17q1.92,1.16,3.87,2.35l1,.65c.93.57,1.86,1.16,2.79,1.75,1.49,1,3,1.94,4.48,2.94.62.41,1.25.83,1.87,1.26q2.71,1.83,5.41,3.77l1.58,1.13,1.84,1.35.3.21.11.08.05,0,.11.09c.14.09.27.19.41.3l.37.28L191,365l0,0,1.1.83,2.61,2,1.5,1.18c.46.36.92.72,1.37,1.09l2,1.62,1.7,1.39.4.33c1.3,1.08,2.6,2.17,3.88,3.28.9.77,1.79,1.54,2.68,2.33l1.86,1.65q2.37,2.11,4.69,4.3c.36.32.71.66,1.06,1q3.63,3.44,7.16,7c.37.37.73.73,1.08,1.11l.43.43.47.49.93,1,.83.87.07.07c.18.19.35.38.54.57l.08.09.12.13.79.84.15.16.23.25.13.15a.83.83,0,0,1,.13.14l.58.63,1.1,1.2c.78.86,1.56,1.73,2.33,2.61.18.2.36.39.52.59.36.4.7.8,1.05,1.2a2,2,0,0,1,.19.22l.85,1a.52.52,0,0,1,.1.11c.78.91,1.55,1.82,2.31,2.74l1.1,1.33,1,1.19c.35.43.71.86,1.05,1.3l1.19,1.5c.38.48.76,1,1.13,1.45l.43.56,1.14,1.49.81,1.08c.11.15.21.28.31.43.38.5.75,1,1.12,1.51.56.76,1.11,1.52,1.65,2.29.25.34.49.68.73,1l.9,1.27.53.78c.18.25.36.51.53.77l1.06,1.56c.31.45.61.91.91,1.37l.9,1.38c.18.28.37.56.55.85l.57.89.28.44c.18.29.36.57.53.86l.38.6.38.6.81,1.34q.86,1.39,1.68,2.82C260.07,441,260.45,441.63,260.83,442.29Z" />
    <path class="BUNTAI_PEACOCK_OUTFIT_PEACOCK_OUTFIT_20_c" d="M224.67,350.1c1.44,0,2.6,2.33,2.6,5.2s-1.16,5.21-2.6,5.21-2.6-2.33-2.6-5.21S223.23,350.1,224.67,350.1Z" />
    <path class="BUNTAI_PEACOCK_OUTFIT_PEACOCK_OUTFIT_20_d" d="M294.61,410.68a30.88,30.88,0,0,1-.4,3.9c-1.41,8.53-6.42,17.43-18.6,24.5a59.07,59.07,0,0,1-14.78,3.22h0c-.38-.66-.76-1.33-1.16-2a261.49,261.49,0,0,1,34.83-34.65c0,.39.06.78.08,1.17A33.07,33.07,0,0,1,294.61,410.68Z" />
    <path class="BUNTAI_PEACOCK_OUTFIT_PEACOCK_OUTFIT_20_d" d="M264.12,323.78h0c-.58.25-2.15.5-2.71.76s-1.12.51-1.67.78-1.1.52-1.64.79-1.07.52-1.6.8-.91.46-1.35.7-1.06.56-1.58.84c-1,.55-2,1.12-3,1.69a57.33,57.33,0,0,0-4.87,3.33l-1.24.85-1.21.86c-.4.28-.79.57-1.17.85-.58.43-1.14.85-1.69,1.28s-.87.67-1.29,1a99.68,99.68,0,0,0-8.36,7.38l-.72.72c-.7.71-1.36,1.4-2,2.05a7.62,7.62,0,0,1,.85,1.25c0,.06.07.13.11.2a7.66,7.66,0,0,1,.51,1.17.36.36,0,0,1,0,.09s0,0,0,0a4,4,0,0,1,.15.45,5.27,5.27,0,0,1,.19.68c.06.27.12.55.17.83a.5.5,0,0,1,0,.12l.09.74c0,.42.06.84.06,1.28,0,.19,0,.37,0,.55l0,.54c0,.18,0,.36-.05.53l-.06.4c0,.22-.07.44-.12.65s-.11.49-.18.73-.14.48-.22.71-.18.48-.28.71a8.78,8.78,0,0,1-.78,1.42l-.3.41a5,5,0,0,1-.43.49,3.51,3.51,0,0,1-.34.33l-.12.1-.38.29-.36.23a4.81,4.81,0,0,1-.46.22l-.34.13-.33.08-.34.06-.45,0-.45,0h-.06l-.19,0a1.1,1.1,0,0,1-.26-.06,3.09,3.09,0,0,1-.43-.14h0l-.36-.17a2.68,2.68,0,0,1-.33-.18l-.07,0h0l-.25-.17-.24-.19-.13-.12-.17-.15-.16-.16-.22-.24-.21-.25c-.09-.12-.18-.23-.26-.35a3.87,3.87,0,0,1-.21-.34q-.22-.36-.42-.75a7.77,7.77,0,0,1-.38-.88c0-.12-.09-.24-.13-.36a11.78,11.78,0,0,1-.59-2.95c0-.05,0-.1,0-.15h0a.57.57,0,0,1,0-.13.53.53,0,0,1,0-.13v-.1h0s0,0,0,0h0c0-.08,0-.15,0-.22a.49.49,0,0,1,0-.12h0a.34.34,0,0,1,0-.1v-.09h0v0s0,0,0,0v-.07a.86.86,0,0,1,0-.16c0-.16,0-.32,0-.48a.22.22,0,0,1,0-.08c0-.1,0-.21,0-.31,0-.27.06-.53.1-.78,0-.09,0-.18.05-.26a2,2,0,0,1,.06-.32c0-.06,0-.13,0-.19l0-.12v0c0-.13.06-.27.1-.39a7.24,7.24,0,0,1,.25-.79c.09-.25.19-.5.3-.74a.16.16,0,0,1,0-.07h0a1.77,1.77,0,0,1,.15-.31l.06-.13a.06.06,0,0,1,0,0s0,0,0,0l0,0c.08-.15.16-.29.25-.43s.16-.26.25-.38a6,6,0,0,1,.66-.81l-.08-.08h0c-.34-.36-.69-.71-1-1.07l-1.15-1.15-.18-.18L218,344.65l-1.12-1.07-.07-.06c-.79-.74-1.6-1.48-2.41-2.2-1.26-1.12-2.54-2.22-3.81-3.28L209.32,337c-1.69-1.39-3.36-2.72-5-4l-1.19-.92h0c-.39-.31-.78-.6-1.16-.89l0,0-1.09-.82-2.45-1.81-.57-.42-1.06-.76c-.15-.1-.29-.21-.42-.31-3.12-2.23-5.14-3.57-5.14-3.57-5.24-3.74-14.6-7.76-14.6-7.76a83.48,83.48,0,0,0-9.91-3.17c-1.43,1.85-3.1,4-4.67,6l-.78,1-.86,1.13c-.62.79-1.19,1.53-1.68,2.17l-1.22,1.58-.21.27-.51.66,0,0h0a1.73,1.73,0,0,1,.38.64c.1.31.19.62.29.95s.21.79.31,1.19c0,.16.08.32.11.48s.13.56.19.84.09.46.14.69c.1.51.19,1,.27,1.54,0,.25.09.49.12.74s.07.49.1.73.1.76.14,1.13c.17,1.35.28,2.69.36,4,.14,2.18.18,4.21.18,5.92l2,1.11,2,1.15c.67.38,1.33.78,2,1.17,1.28.77,2.58,1.55,3.87,2.35l1,.65c.93.57,1.86,1.16,2.8,1.75,1.48,1,3,1.94,4.47,2.94.62.41,1.25.83,1.87,1.26,1.81,1.22,3.61,2.48,5.42,3.77l1.57,1.13c.62.44,1.23.89,1.85,1.35l.29.21.11.08.05,0,.11.09a3.91,3.91,0,0,1,.41.3l.38.28L191,365s0,0,0,0l1.1.83,2.61,2,1.5,1.18c.46.36.92.72,1.37,1.09l2,1.62,1.7,1.39.4.33q2,1.62,3.89,3.28c.89.77,1.78,1.54,2.67,2.33.63.54,1.25,1.1,1.86,1.65q2.37,2.11,4.7,4.3l1.06,1q3.62,3.44,7.16,7l.59-.5c3.14-2.63,6.33-5.18,9.54-7.63l0,0a276.78,276.78,0,0,1,35.36-23c-1.63-5.67-.49-15.3-.49-15.3.1-.6.2-1.24.32-1.9s.19-1.08.3-1.64c.49-2.55.16-4.41,1.05-7.23.11-.35.22-.7.34-1.05q.36-1.05.75-2.07c.13-.34.27-.68.41-1A45.09,45.09,0,0,1,264.12,323.78Zm-41.59,46.05a1.31,1.31,0,0,1,.12-.27c0-.06.08-.13.12-.18a1.63,1.63,0,0,1,.17-.2,1.55,1.55,0,0,1,.45-.36l.13-.07.08,0a2.37,2.37,0,0,1,.34-.13,2.45,2.45,0,0,1,.37-.08,2,2,0,0,1,.35,0,2,2,0,1,1,0,3.91,2.33,2.33,0,0,1-1.72-.72,1.46,1.46,0,0,1-.16-.19l-.13-.2a1,1,0,0,1-.11-.23,1.55,1.55,0,0,1-.07-.23.07.07,0,0,1,0-.05,2,2,0,0,1,0-.34,1.87,1.87,0,0,1,0-.34.07.07,0,0,1,0-.05Zm-.39,14.08a2.33,2.33,0,0,1,.08-.36,3.27,3.27,0,0,1,.28-.71,5.64,5.64,0,0,1,.31-.53,9.51,9.51,0,0,1,1.76-1.95,5.5,5.5,0,0,1,1.65,3.47,2.22,2.22,0,0,1,0,.37,2.25,2.25,0,0,1-.24.77,1.92,1.92,0,0,1-.18.31,2,2,0,0,1-.3.34,2.42,2.42,0,0,1-1.17.59l-.18,0a1.57,1.57,0,0,1-.53,0,.35.35,0,0,1-.14,0h0a.76.76,0,0,1-.2-.06A1.15,1.15,0,0,1,223,386a.53.53,0,0,1-.14-.12.43.43,0,0,1-.12-.11A2.13,2.13,0,0,1,222.14,383.91Zm-3.78-7.12.46.07a2.87,2.87,0,0,1,.38.08l.42.11.4.13a8.93,8.93,0,0,1,.89.37h0s0,0,0,0l-.14.11a9.71,9.71,0,0,1-1.6,1l-.28.12-.33.13a5.12,5.12,0,0,1-.67.19,2.88,2.88,0,0,1-2-.25C214.85,378.33,215.67,376.5,218.36,376.79ZM216,364.31a8,8,0,0,1-.43,1.16c-.07.14-.14.28-.22.42a4.2,4.2,0,0,1-.92,1.14,2.34,2.34,0,0,1-.41.29l-.22.12a1.15,1.15,0,0,1-.23.1,2.91,2.91,0,0,1-1.17.2c-2.3-.05-2.81-4.61,3.85-4.54A7.8,7.8,0,0,1,216,364.31Zm-7.61-5.56a1.14,1.14,0,0,1,.06-.25,1.84,1.84,0,0,1,.32-.62,1.78,1.78,0,0,1,.22-.26.34.34,0,0,1,.09-.08,1.64,1.64,0,0,1,.26-.2,1.31,1.31,0,0,1,.36-.21l.26-.11a2.38,2.38,0,0,1,.57-.15,1.65,1.65,0,0,1,.32,0,4.34,4.34,0,0,1,1.12.05,5.31,5.31,0,0,1,.88.21l.48.16.37.15.18.08a3.92,3.92,0,0,1,.47.22,5.89,5.89,0,0,1,.55.29s-2.76,3.07-5.18,2.43l-.16-.05-.16-.06h0s0,0,0,0l-.15-.07a1,1,0,0,1-.24-.14l-.09-.06-.11-.09a.09.09,0,0,1-.06-.06s0,0,0,0a.13.13,0,0,1-.06-.07.42.42,0,0,1-.09-.14.31.31,0,0,1-.06-.13h0a.25.25,0,0,1,0-.11.25.25,0,0,1,0-.07.13.13,0,0,1,0-.06A1.3,1.3,0,0,1,208.36,358.75Zm25.11,20.15a2.88,2.88,0,0,1-2,.25,5.12,5.12,0,0,1-.67-.19l-.33-.13-.28-.12a9.71,9.71,0,0,1-1.6-1l-.14-.11s0,0,0,0h0c.31-.14.61-.26.89-.37a8.12,8.12,0,0,1,.82-.24,2.87,2.87,0,0,1,.38-.08l.46-.07C233.66,376.5,234.48,378.33,233.47,378.9Zm5-12.48h0v0a2.29,2.29,0,0,1-.07.28h0a0,0,0,0,0,0,0l-.12.24h0a1.08,1.08,0,0,1-.18.24,1.53,1.53,0,0,1-1.12.5h-.28a2.23,2.23,0,0,1-.27,0,2.59,2.59,0,0,1-.42-.09l-.2-.07-.21-.09a3,3,0,0,1-1-.76c-.06-.06-.11-.13-.16-.19a4.63,4.63,0,0,1-.59-.94c-.05-.1-.1-.2-.14-.3s-.12-.28-.17-.42-.08-.24-.11-.35,0,0,0-.05-.06-.2-.08-.3a.14.14,0,0,1,0-.06c0-.11-.06-.22-.08-.32-.07-.34-.1-.56-.1-.56h.18l.67,0a5.41,5.41,0,0,1,.59,0h.08a6.77,6.77,0,0,1,1,.16l.11,0h0a3.23,3.23,0,0,1,.47.14h0l.42.16h0a3.2,3.2,0,0,1,.37.19,2.77,2.77,0,0,1,.34.2h0a4.91,4.91,0,0,1,.41.33.43.43,0,0,1,.11.12h0A2.09,2.09,0,0,1,238.5,366.42Zm2.46-7.11a.75.75,0,0,1-.08.24l0,.08a.76.76,0,0,1-.23.3l-.11.09-.09.06a2.18,2.18,0,0,1-.42.23.62.62,0,0,1-.19.07l-.09,0a2,2,0,0,1-.35.07,2.75,2.75,0,0,1-.81,0,3.28,3.28,0,0,1-.41-.08,5.67,5.67,0,0,1-1.7-.77l-.4-.27-.16-.11a7.12,7.12,0,0,1-.57-.46c-.35-.3-.6-.55-.74-.69a.29.29,0,0,1-.08-.08l0,0h0a5.89,5.89,0,0,1,.55-.29,8.85,8.85,0,0,1,1-.45l.48-.16a5,5,0,0,1,.79-.19l.3,0a.62.62,0,0,1,.19,0,2,2,0,0,1,.34,0,1.58,1.58,0,0,1,.31,0l.22,0h.09l.2,0h0a.47.47,0,0,1,.16,0,.92.92,0,0,1,.27.08,2.12,2.12,0,0,1,.48.22,2.45,2.45,0,0,1,.35.26,1,1,0,0,1,.21.21,2.05,2.05,0,0,1,.48.84,1.85,1.85,0,0,1,0,.23,1.64,1.64,0,0,1,0,.22A1.55,1.55,0,0,1,241,359.31Z" />
    <path class="BUNTAI_PEACOCK_OUTFIT_PEACOCK_OUTFIT_20_d" d="M179.66,444.77c-18.26,0-27.33-5.69-27.33-5.69-1.23-.71-2.39-1.45-3.48-2.21a39.32,39.32,0,0,1-9.18-8.55A30.69,30.69,0,0,1,133.78,415c-.08-.5-.16-1-.23-1.5,0-.25-.06-.5-.09-.75s-.05-.5-.07-.74a.62.62,0,0,1,0-.13h0a35.7,35.7,0,0,1,0-5.37c.08-1.09.19-2.16.35-3.2h0a9.1,9.1,0,0,1-1-1.83,13.4,13.4,0,0,1-.62-2.19,25.72,25.72,0,0,1,.08-8.73c1.33,1.14,2.62,2.28,3.89,3.43,1.43,1.3,2.84,2.59,4.21,3.89.53.49,1,1,1.56,1.48l1.45,1.41.39.38,1.8,1.78c.78.78,1.54,1.56,2.3,2.33l1.18,1.22,2,2.12c.44.46.87.93,1.3,1.39q.87.93,1.71,1.86s0,0,0,0c3.87,4.24,7.34,8.32,10.38,12.07l.62.76c1.61,2,3.1,3.91,4.47,5.69.17.22.33.45.5.66,2,2.66,3.74,5,5.14,7l.47.66,1.6,2.33C178.82,443.42,179.66,444.77,179.66,444.77Z" />
    <path class="BUNTAI_PEACOCK_OUTFIT_PEACOCK_OUTFIT_20_e" d="M315.27,404.3a2,2,0,0,1-1.24,1.77c-10,4.42-15.74,4.12-18.61,4.51-.5.08-.77.1-.77.1h0a33.07,33.07,0,0,0,0-3.86h.07l.46-.06c2.25-.31,7.71.08,16.81-4.2a2.46,2.46,0,0,1,3.05.75A1.82,1.82,0,0,1,315.27,404.3Z" />
    <path class="BUNTAI_PEACOCK_OUTFIT_PEACOCK_OUTFIT_20_e" d="M272.43,359.86l-1.93,1-1.94,1.05h0c-1.63-5.67-.49-15.3-.49-15.3.1-.6.2-1.24.32-1.9s.19-1.08.3-1.64c.49-2.55.16-4.41,1.05-7.23.11-.35.22-.7.34-1.05q.36-1.05.75-2.07c.13-.34.27-.68.41-1,0,0,2.49-1.12,3.21,2.07-1.72,4.21-1.65,7.84-2.11,11.15C272.34,344.94,271.47,354,272.43,359.86Z" />
    <path class="BUNTAI_PEACOCK_OUTFIT_PEACOCK_OUTFIT_20_e" d="M234.46,358s3.48,3.85,6,2C242,359,240,354.82,234.46,358Z" />
    <path class="BUNTAI_PEACOCK_OUTFIT_PEACOCK_OUTFIT_20_e" d="M233.12,363.2s.55,4.62,3.85,4.54C239.27,367.69,239.77,363.13,233.12,363.2Z" />
    <path class="BUNTAI_PEACOCK_OUTFIT_PEACOCK_OUTFIT_20_e" d="M228.41,377.54s2.9,2.57,5.06,1.36C234.75,378.18,233.09,375.43,228.41,377.54Z" />
    <path class="BUNTAI_PEACOCK_OUTFIT_PEACOCK_OUTFIT_20_e" d="M261,320.73h0a123.17,123.17,0,0,0-15.27,8.77l-1.68,1.12a133.13,133.13,0,0,0-16.44,13.18l-.58.53-.78.75-.58.58q-.19.18-.36.36l-.63.68h0c-10.12-11.78-29.4-25.05-29.4-25.05l-1.13-.79c-1.15-.78-2.39-1.55-3.64-2.28-5-2.91-10-5.19-10-5.19-3-1.14-7.15-2.56-11.45-3.69,0,0-2.42-.26-2.31,2.85a83.48,83.48,0,0,1,9.91,3.17s9.36,4,14.6,7.76c0,0,2,1.34,5.14,3.57.13.1.27.21.42.31l1.06.76.57.42,2.45,1.81,1.09.82,0,0c.38.28.77.57,1.16.89h0l1.19.92c1.61,1.25,3.28,2.58,5,4l1.27,1.06c1.27,1.06,2.55,2.16,3.81,3.28.81.72,1.62,1.46,2.41,2.2l.07.06c.75.7,1.49,1.41,2.21,2.12l.18.18,1.15,1.15c.35.36.7.71,1,1.07h0l.08.08a6,6,0,0,0-.66.81c-.09.12-.17.25-.25.38s-.17.28-.25.43l0,0s0,0,0,0a.06.06,0,0,0,0,0l-.06.13-.15.31h0a.16.16,0,0,0,0,.07c-.11.24-.21.49-.3.74a7.24,7.24,0,0,0-.25.79c0,.12-.07.26-.1.39v0l0,.12c0,.06,0,.13,0,.19a2,2,0,0,0-.06.32c0,.08,0,.17-.05.26,0,.25-.07.51-.1.78,0,.1,0,.21,0,.31a.22.22,0,0,0,0,.08c0,.16,0,.32,0,.48a.86.86,0,0,0,0,.16v.12h0v.32c0,.07,0,.14,0,.22h0s0,0,0,0h0v.1a.53.53,0,0,0,0,.13.57.57,0,0,0,0,.13h0c0,.05,0,.1,0,.15a11.78,11.78,0,0,0,.59,2.95c0,.12.08.24.13.36a7.77,7.77,0,0,0,.38.88q.2.39.42.75a3.28,3.28,0,0,0,.2.31l.27.38.21.25.22.24.16.16.17.15.13.12.24.19.25.17.07,0,.33.18.36.17h0a3.09,3.09,0,0,0,.43.14,3.58,3.58,0,0,0,.45.09h.06l.45,0,.45,0,.34-.06.33-.08.34-.13a4.81,4.81,0,0,0,.46-.22l.36-.23.38-.29.12-.1a3.51,3.51,0,0,0,.34-.33,5,5,0,0,0,.43-.49l.3-.41a8.78,8.78,0,0,0,.78-1.42c.1-.23.2-.47.28-.71s.16-.47.22-.71.13-.48.18-.73.09-.43.12-.65l.06-.4c0-.17,0-.35.05-.53l0-.54c0-.18,0-.36,0-.55,0-.44,0-.86-.06-1.28l-.09-.74a.5.5,0,0,0,0-.12c-.05-.28-.11-.56-.17-.83a5.27,5.27,0,0,0-.19-.68,2,2,0,0,0-.07-.23.83.83,0,0,0-.08-.22s0,0,0,0a.36.36,0,0,0,0-.09,7.66,7.66,0,0,0-.51-1.17c0-.07-.07-.14-.11-.2a7.62,7.62,0,0,0-.85-1.25c.6-.65,1.26-1.34,2-2.05l.72-.72a99.68,99.68,0,0,1,8.36-7.38c.42-.34.85-.68,1.29-1s1.11-.85,1.69-1.28c.38-.28.77-.57,1.17-.85l1.21-.86,1.24-.85a57.33,57.33,0,0,1,4.87-3.33c1-.57,2-1.14,3-1.69.52-.28,1.05-.57,1.58-.84s.89-.47,1.35-.7,1.06-.54,1.6-.8,1.09-.54,1.64-.79,1.11-.53,1.67-.78,2.13-.51,2.71-.76h0C264.61,321,261.2,320.75,261,320.73Zm-33.75,35a1.62,1.62,0,0,1,0,.22c0,.19,0,.37-.05.56s-.07.52-.12.76a.66.66,0,0,1,0,.15c0,.15-.07.29-.1.43a3.57,3.57,0,0,1-.1.35l0,0a5.81,5.81,0,0,1-.48,1.06,1.74,1.74,0,0,1-.11.18h0a3.85,3.85,0,0,1-.33.42h0l0,0-.13.12a1.5,1.5,0,0,1-.25.19l-.1.06-.23.11a.7.7,0,0,1-.22.07l-.27,0c-1.44,0-2.6-2.33-2.6-5.21,0-.14,0-.28,0-.42s0-.21,0-.31a2.45,2.45,0,0,1,0-.27c0-.06,0-.11,0-.17a.06.06,0,0,1,0,0,.28.28,0,0,1,0-.09s0,0,0-.06l0-.19a.13.13,0,0,1,0-.06,5.31,5.31,0,0,1,.12-.6c.05-.19.09-.38.15-.56l.09-.26c0-.12.09-.24.14-.36a3.71,3.71,0,0,1,.24-.49l.12-.21.17-.24h0c.07-.08.13-.16.2-.23h0l.08-.07a.13.13,0,0,1,.07-.06.75.75,0,0,1,.14-.12l.21-.15a1.06,1.06,0,0,1,.21-.11h0a1,1,0,0,1,.25-.07l.07,0h.2c1.44,0,2.6,2.33,2.6,5.2C227.27,355.44,227.27,355.57,227.26,355.7Z" />
    <path class="BUNTAI_PEACOCK_OUTFIT_PEACOCK_OUTFIT_20_e" d="M224.66,368.47a2,2,0,1,0,2.24,1.95A2.11,2.11,0,0,0,224.66,368.47Z" />
    <path class="BUNTAI_PEACOCK_OUTFIT_PEACOCK_OUTFIT_20_e" d="M222.7,385.77c1.42,1.57,5.91-.79,1.87-5.41C224.57,380.36,220.66,383.5,222.7,385.77Z" />
    <path class="BUNTAI_PEACOCK_OUTFIT_PEACOCK_OUTFIT_20_e" d="M215.86,378.9c2.15,1.21,5-1.36,5-1.36C216.23,375.43,214.58,378.18,215.86,378.9Z" />
    <path class="BUNTAI_PEACOCK_OUTFIT_PEACOCK_OUTFIT_20_e" d="M212.37,367.74c3.29.08,3.85-4.54,3.85-4.54C209.56,363.13,210.07,367.69,212.37,367.74Z" />
    <path class="BUNTAI_PEACOCK_OUTFIT_PEACOCK_OUTFIT_20_e" d="M214.87,358c-5.58-3.17-7.56,1-6,2C211.4,361.84,214.87,358,214.87,358Z" />
    <path class="BUNTAI_PEACOCK_OUTFIT_PEACOCK_OUTFIT_20_e" d="M155.36,342.11c0-.91,0-1.92,0-3a42.2,42.2,0,0,0-1.94-12.06,1.67,1.67,0,0,1,1.24-2.11,2.27,2.27,0,0,1,.62-.09,2.1,2.1,0,0,1,1.49.61,1.73,1.73,0,0,1,.38.64c.1.31.2.63.28.95s.22.79.32,1.19c0,.16.07.32.11.48s.13.56.19.84.09.46.14.69c.1.51.19,1,.27,1.54l.12.74c0,.25.07.49.1.73s.1.76.14,1.13c.16,1.35.28,2.69.36,4,.14,2.18.18,4.21.18,5.92Q157.33,343.16,155.36,342.11Z" />
    <path class="BUNTAI_PEACOCK_OUTFIT_PEACOCK_OUTFIT_20_e" d="M107.27,394.85a3.09,3.09,0,0,0-3.85.95A2.24,2.24,0,0,0,103,397a2.48,2.48,0,0,0,1.58,2.24,89,89,0,0,0,28.66,7.21h.08c.07-1.09.19-2.16.35-3.2h0a9.35,9.35,0,0,1-1-1.83A73.37,73.37,0,0,1,107.27,394.85Z" />
    <path class="BUNTAI_PEACOCK_OUTFIT_PEACOCK_OUTFIT_20_f" d="M136.1,394a47.27,47.27,0,0,0-2.4,9.31" />
    <path class="BUNTAI_PEACOCK_OUTFIT_PEACOCK_OUTFIT_20_f" d="M294.5,405.65c0,.39.06.78.08,1.17a33.07,33.07,0,0,1,0,3.86,30.88,30.88,0,0,1-.4,3.9c-1.41,8.53-6.42,17.43-18.6,24.5a59.07,59.07,0,0,1-14.78,3.22l-.31,0-.66.05h-.05c-9.72.59-18.72-1.43-36.78-1-3.42.08-7.18.27-11.33.56l-4.3.35q-3.92.35-8.3.85c-1,.1-2,.21-3,.34l-3.27.4a98.38,98.38,0,0,1-13.2.87c-18.26,0-27.33-5.69-27.33-5.69-1.23-.71-2.39-1.45-3.48-2.21a39.32,39.32,0,0,1-9.18-8.55A30.69,30.69,0,0,1,133.78,415c-.08-.5-.16-1-.23-1.5q-.06-.37-.09-.75c0-.24-.05-.5-.07-.74a.62.62,0,0,1,0-.13h0a35.7,35.7,0,0,1,0-5.37c.08-1.09.19-2.16.35-3.2" />
    <path class="BUNTAI_PEACOCK_OUTFIT_PEACOCK_OUTFIT_20_f" d="M133.71,403.3h0a9.35,9.35,0,0,1-1-1.83,13.4,13.4,0,0,1-.62-2.19,25.72,25.72,0,0,1,.08-8.73" />
    <path class="BUNTAI_PEACOCK_OUTFIT_PEACOCK_OUTFIT_20_f" d="M260.83,442.29c-.38-.66-.76-1.33-1.16-2q-.82-1.43-1.68-2.82l-.81-1.34-.38-.6-.38-.6c-.17-.29-.35-.57-.53-.86l-.28-.44-.57-.89c-.18-.29-.37-.57-.55-.85l-.9-1.38c-.3-.46-.6-.92-.91-1.37l-1.06-1.56c-.17-.26-.35-.52-.53-.77l-.53-.78c-.3-.42-.59-.85-.9-1.27s-.48-.69-.73-1c-.54-.77-1.09-1.53-1.65-2.29-.37-.51-.74-1-1.12-1.51-.1-.15-.2-.28-.31-.43l-.81-1.08-1.14-1.49-.43-.56c-.37-.49-.75-1-1.13-1.45s-.79-1-1.19-1.5-.7-.87-1.05-1.3l-1-1.19-1.1-1.33c-.76-.92-1.53-1.83-2.31-2.74a.52.52,0,0,0-.1-.11l-.85-1a2,2,0,0,0-.19-.22c-.35-.4-.69-.8-1.05-1.2-.16-.2-.34-.39-.52-.59-.77-.88-1.55-1.75-2.33-2.61l-1.1-1.2-.58-.63a.83.83,0,0,0-.13-.14l-.13-.15-.23-.25-.15-.16-.79-.84-.12-.13-.08-.09c-.18-.19-.35-.38-.54-.57l-.07-.07-.83-.87-.93-1-.47-.49-.43-.43c-.35-.38-.71-.74-1.08-1.11q-3.53-3.58-7.16-7c-.35-.33-.7-.67-1.06-1q-2.33-2.19-4.69-4.3l-1.86-1.65c-.89-.79-1.78-1.56-2.68-2.33-1.28-1.11-2.58-2.2-3.88-3.28l-.4-.33-1.7-1.39-2-1.62c-.45-.37-.91-.73-1.37-1.09l-1.5-1.18-2.61-2L191,365l0,0-1.47-1.1-.37-.28c-.14-.11-.27-.21-.41-.3l-.11-.09-.05,0-.11-.08-.3-.21c-.61-.46-1.23-.91-1.84-1.35l-1.58-1.13q-2.7-1.94-5.41-3.77c-.62-.43-1.25-.85-1.87-1.26-1.49-1-3-2-4.48-2.94-.93-.59-1.86-1.18-2.79-1.75l-1-.65q-1.95-1.2-3.87-2.35c-.67-.39-1.33-.79-2-1.17l-2-1.15-2-1.11q-2-1.12-4-2.17l-1.36-.72-.49-.25-.06,0c-1.19-.63-2.38-1.23-3.56-1.83l-1.1-.54c-4.53-2.25-9-4.25-13.22-6l-1.16-.47-1.54-.6-1.73-.66-1.72-.63-1.36-.48-1.57-.53c-.53.4-1.08.86-1.66,1.38l-.35.31c-1.18,1.08-2.46,2.37-3.83,3.9l-.39.44-.93,1.08c-.25.3-.52.61-.78.94-.4.48-.8,1-1.2,1.49l-.66.85c-.49.65-1,1.32-1.5,2l-.77,1.06h0l-.72,1c-.49.69-1,1.4-1.45,2.13l-.45.68c-.37.56-.73,1.13-1.1,1.71-.24.36-.47.73-.71,1.11-.61,1-1.22,2-1.84,3-.22.38-.45.76-.67,1.15-.09.15-.18.3-.26.45l-.47.82c-2.18,3.81-4.41,8.06-6.65,12.76a.38.38,0,0,0-.06.13l1,.57,1,.56h0l0,0,1.05.61.5.29,0,0c.4.23.81.46,1.2.7q2.11,1.26,4.19,2.58l1.71,1.1,1.74,1.15.52.35,1.48,1,.76.53c1.1.77,2.19,1.53,3.26,2.32.67.48,1.34,1,2,1.47l1.85,1.4.92.71,0,0,1.25,1,.89.7c.85.67,1.68,1.35,2.51,2l.93.77c.53.43,1.06.88,1.59,1.33l1.66,1.41c1.33,1.14,2.62,2.28,3.89,3.43,2.65,2.38,5.18,4.78,7.61,7.16l1.8,1.78,1.76,1.78,1.72,1.77,1.67,1.76,1.64,1.75c.53.57,1.05,1.13,1.56,1.7l0,0a.71.71,0,0,1,.12.13s0,0,0,0l0,0c3.37,3.7,6.44,7.27,9.18,10.61l1.16,1.42c1.45,1.78,2.79,3.48,4,5.09l1.05,1.36c.17.23.33.45.5.66l.74,1,.23.31.41.55.35.47.16.22.23.31.22.29,1.65,2.27.75,1.05.4.57.47.66,1.6,2.33c1.61,2.37,2.45,3.72,2.45,3.72" />
    <path class="BUNTAI_PEACOCK_OUTFIT_PEACOCK_OUTFIT_20_f" d="M259.67,440.3a261.49,261.49,0,0,1,34.83-34.65h0l.57-.46.3-.24A186.56,186.56,0,0,1,332.73,381a167,167,0,0,0-8.67-19c-5-9.11-9.55-14.89-12.93-17.88a196,196,0,0,0-38.7,15.65c-1.28.67-2.58,1.37-3.87,2.06a277.57,277.57,0,0,0-35.37,23l0,0q-4.81,3.68-9.55,7.63l-.59.5" />
    <path class="BUNTAI_PEACOCK_OUTFIT_PEACOCK_OUTFIT_20_f" d="M132.74,401.45a73.37,73.37,0,0,1-25.47-6.6,3.09,3.09,0,0,0-3.85.95A2.24,2.24,0,0,0,103,397a2.48,2.48,0,0,0,1.58,2.24,89,89,0,0,0,28.66,7.21" />
    <path class="BUNTAI_PEACOCK_OUTFIT_PEACOCK_OUTFIT_20_f" d="M294.65,410.68s.27,0,.77-.1c2.87-.39,8.56-.09,18.61-4.51a2,2,0,0,0,1.24-1.77,1.82,1.82,0,0,0-.3-1,2.46,2.46,0,0,0-3.05-.75c-9.1,4.28-14.56,3.89-16.81,4.2l-.46.06" />
    <path class="BUNTAI_PEACOCK_OUTFIT_PEACOCK_OUTFIT_20_f" d="M155.36,342.11c0-.91,0-1.92,0-3a42.2,42.2,0,0,0-1.94-12.06,1.67,1.67,0,0,1,1.24-2.11,2.27,2.27,0,0,1,.62-.09,2.1,2.1,0,0,1,1.49.61,1.73,1.73,0,0,1,.38.64c.1.31.2.63.28.95s.22.79.32,1.19c0,.16.08.32.11.48s.13.56.19.84.09.46.14.69c.1.51.19,1,.27,1.54l.12.74c0,.25.07.49.1.73s.1.76.14,1.13c.16,1.35.28,2.69.36,4,.14,2.18.18,4.21.18,5.92" />
    <path class="BUNTAI_PEACOCK_OUTFIT_PEACOCK_OUTFIT_20_f" d="M268.56,361.93h0c-1.63-5.67-.49-15.3-.49-15.3.1-.6.2-1.24.32-1.9s.19-1.08.3-1.64c.49-2.55.16-4.41,1.05-7.23.1-.35.22-.7.34-1.05q.35-1.05.75-2.07c.13-.34.27-.68.41-1" />
    <path class="BUNTAI_PEACOCK_OUTFIT_PEACOCK_OUTFIT_20_f" d="M272.43,359.86c-1-5.85-.09-14.92-.09-14.92.46-3.31.39-6.94,2.11-11.15" />
    <path class="BUNTAI_PEACOCK_OUTFIT_PEACOCK_OUTFIT_20_f" d="M169,309.69h0c4.3,1.13,8.41,2.55,11.45,3.69,0,0,5,2.28,10,5.19,1.25.73,2.49,1.5,3.64,2.28l1.13.79s19.28,13.27,29.4,25.05" />
    <path class="BUNTAI_PEACOCK_OUTFIT_PEACOCK_OUTFIT_20_f" d="M166.72,312.55a83.48,83.48,0,0,1,9.91,3.17s9.36,4,14.6,7.76c0,0,2,1.34,5.14,3.57.13.1.27.21.42.31l1.06.76.57.42,2.45,1.81,1.09.82,0,0c.38.29.77.58,1.16.89h0l1.19.92c1.61,1.25,3.28,2.58,5,4l1.27,1.06c1.27,1.06,2.55,2.16,3.81,3.28.81.72,1.62,1.46,2.41,2.2l.07.06c.75.7,1.49,1.41,2.21,2.12l.18.18,1.15,1.15c.35.36.7.71,1,1.07h0l.08.08" />
    <line class="BUNTAI_PEACOCK_OUTFIT_PEACOCK_OUTFIT_20_f" x1="224.67" y1="346.7" x2="224.67" y2="346.7" />
    <path class="BUNTAI_PEACOCK_OUTFIT_PEACOCK_OUTFIT_20_f" d="M224.68,346.7l.63-.68q.16-.18.36-.36l.58-.58.78-.75.58-.53a133.13,133.13,0,0,1,16.44-13.18l1.68-1.12A123.17,123.17,0,0,1,261,320.73h0" />
    <path class="BUNTAI_PEACOCK_OUTFIT_PEACOCK_OUTFIT_20_f" d="M228.06,348.47c.6-.65,1.26-1.34,2-2.05l.72-.72a99.68,99.68,0,0,1,8.36-7.38c.42-.34.85-.68,1.29-1s1.11-.85,1.69-1.28c.38-.28.77-.57,1.17-.85l1.21-.86c.4-.29.82-.57,1.24-.85a57.33,57.33,0,0,1,4.87-3.33c1-.57,2-1.14,3-1.69.52-.28,1.05-.57,1.58-.84s.9-.48,1.35-.7,1.06-.54,1.6-.8,1.09-.54,1.64-.79,1.11-.53,1.67-.78,2.13-.51,2.71-.76h0" />
    <path class="BUNTAI_PEACOCK_OUTFIT_PEACOCK_OUTFIT_20_f" d="M228.05,348.47a10.65,10.65,0,0,1,2.2,6.83c0,4.76-2.5,8.61-5.58,8.61s-5.59-3.85-5.59-8.61a10.41,10.41,0,0,1,2.46-7.11,4.29,4.29,0,0,1,3.11-1.49h0A4.44,4.44,0,0,1,228.05,348.47Z" />
    <path class="BUNTAI_PEACOCK_OUTFIT_PEACOCK_OUTFIT_20_f" d="M227.27,355.3c0,2.88-1.16,5.21-2.6,5.21s-2.6-2.33-2.6-5.21,1.16-5.2,2.6-5.2S227.27,352.43,227.27,355.3Z" />
    <path class="BUNTAI_PEACOCK_OUTFIT_PEACOCK_OUTFIT_20_f" d="M214.87,358c-5.58-3.17-7.56,1-6,2C211.4,361.84,214.87,358,214.87,358Z" />
    <path class="BUNTAI_PEACOCK_OUTFIT_PEACOCK_OUTFIT_20_f" d="M216.22,363.2c-6.66-.07-6.15,4.49-3.85,4.54C215.66,367.82,216.22,363.2,216.22,363.2Z" />
    <path class="BUNTAI_PEACOCK_OUTFIT_PEACOCK_OUTFIT_20_f" d="M234.46,358c5.58-3.17,7.56,1,6,2C237.94,361.84,234.46,358,234.46,358Z" />
    <path class="BUNTAI_PEACOCK_OUTFIT_PEACOCK_OUTFIT_20_f" d="M233.12,363.2c6.65-.07,6.15,4.49,3.85,4.54C233.67,367.82,233.12,363.2,233.12,363.2Z" />
    <ellipse class="BUNTAI_PEACOCK_OUTFIT_PEACOCK_OUTFIT_20_f" cx="224.66" cy="370.42" rx="2.24" ry="1.95" />
    <path class="BUNTAI_PEACOCK_OUTFIT_PEACOCK_OUTFIT_20_f" d="M220.91,377.54c-4.68-2.11-6.33.64-5,1.36C218,380.11,220.91,377.54,220.91,377.54Z" />
    <path class="BUNTAI_PEACOCK_OUTFIT_PEACOCK_OUTFIT_20_f" d="M228.41,377.54c4.68-2.11,6.34.64,5.06,1.36C231.31,380.11,228.41,377.54,228.41,377.54Z" />
    <path class="BUNTAI_PEACOCK_OUTFIT_PEACOCK_OUTFIT_20_f" d="M224.57,380.36c4,4.62-.45,7-1.87,5.41C220.66,383.5,224.57,380.36,224.57,380.36Z" />
    <path class="BUNTAI_PEACOCK_OUTFIT_PEACOCK_OUTFIT_20_g" d="M274.45,333.79c-.72-3.19-3.21-2.07-3.21-2.07a45.09,45.09,0,0,1-7.12-7.94h0c.5-2.74-2.91-3-3.1-3h0" />
    <path class="BUNTAI_PEACOCK_OUTFIT_PEACOCK_OUTFIT_20_f" d="M156.79,325.4l0,0" />
    <path class="BUNTAI_PEACOCK_OUTFIT_PEACOCK_OUTFIT_20_f" d="M156.74,325.46h0l10-12.89c-.11-3.11,2.31-2.85,2.31-2.85h0" />
    <g class="BUNTAI_PEACOCK_OUTFIT_PEACOCK_OUTFIT_20_h">
      <path d="M223,441.4c-3.42.08-7.18.27-11.33.56l-4.3.35q-3.92.35-8.3.85c-1,.1-2,.21-3,.34l-3.27.4a98.38,98.38,0,0,1-13.2.87c-18.26,0-27.33-5.69-27.33-5.69-1.23-.71-2.39-1.45-3.48-2.21a39.32,39.32,0,0,1-9.18-8.55A30.69,30.69,0,0,1,133.78,415c-.08-.5-.16-1-.23-1.5,0-.25-.06-.5-.09-.75s-.05-.5-.07-.74a.62.62,0,0,1,0-.13c2.8,4.56,15,21.85,38,21-6-7.45-11.64-14.47-17.31-21l0,0s0,0,0,0a.71.71,0,0,0-.12-.13c-9.69-11.12-19.39-20.73-30.51-28.38l0,0c-9.93-6.84-17-11.49-21.23-14.26l0,0h0l-2-1.26c2.24-4.7,4.47-8.95,6.65-12.76l.47-.82c.08-.15.17-.3.26-.45.22-.39.45-.77.67-1.15.62-1,1.23-2.05,1.84-3,.24-.38.47-.75.71-1.11.37-.58.73-1.15,1.1-1.71l.45-.68c.48-.73,1-1.44,1.45-2.13l.72-1s63.22,38.78,79,67.47L185.32,395C186.22,396.06,212.27,427,223,441.4Z" />
      <path d="M295.18,410.2s.09.13.24.38c-.5.08-.77.1-.77.1h0a30.88,30.88,0,0,1-.4,3.9c-1.41,8.53-6.42,17.43-18.6,24.5a59.07,59.07,0,0,1-14.78,3.22l-.31,0C258.06,438.2,253,430,245,418.43c1.81-10.86,41-36.19,42-36.83l-13.46,16.75c12.69-11.94,36.08-27.26,50.47-36.26a167,167,0,0,1,8.67,19,186.56,186.56,0,0,0-37.36,23.9l-.3.18v.06l0,1.58Z" />
      <path d="M233.19,384.9l-9,8.15s-.18-.18-.54-.5c-3.45-3.18-22.72-20.77-35-29.31l-.05,0-.11-.08c-13.1-9.09-33.67-21.23-35-22l.49.25,1.36.72c0-.91,0-1.92,0-3a3.91,3.91,0,0,0,3.82-.75s30.68,16.49,39.17,23.82,21.93,27.91,28.4,25.32l6.45-2.58Z" />
      <path d="M223.23,351s-.13,4.31,1.26,6.22,1.46,1.84,1.75,2.26a3.1,3.1,0,0,1-1,3.75l-1.95.44s-4.39-3.68-4.18-8.57,2.88-8.78,5.07-8.37l2.19.4A4.81,4.81,0,0,0,223.23,351Z" />
    </g>
    <path class="BUNTAI_PEACOCK_OUTFIT_PEACOCK_OUTFIT_20_f" d="M156.74,325.46h0l10-12.89c-.11-3.11,2.31-2.85,2.31-2.85h0" />
  </g>
</svg>