<svg xmlns="http://www.w3.org/2000/svg" xmlns:xlink="http://www.w3.org/1999/xlink" viewBox="0 0 432 432">
  <defs>
    <style>.BUNTAI_WALRUS_OUTFIT_BUNTAI_WALRUS_OUTFIT-06_cls-1,.BUNTAI_WALRUS_OUTFIT_BUNTAI_WALRUS_OUTFIT-06_cls-8{fill:none;}.BUNTAI_WALRUS_OUTFIT_BUNTAI_WALRUS_OUTFIT-06_cls-2{isolation:isolate;}.BUNTAI_WALRUS_OUTFIT_BUNTAI_WALRUS_OUTFIT-06_cls-3{clip-path:url(#BUNTAI_WALRUS_OUTFIT_BUNTAI_WALRUS_OUTFIT-06_clip-path);}.BUNTAI_WALRUS_OUTFIT_BUNTAI_WALRUS_OUTFIT-06_cls-4{fill:#451912;}.BUNTAI_WALRUS_OUTFIT_BUNTAI_WALRUS_OUTFIT-06_cls-5{fill:#523926;}.BUNTAI_WALRUS_OUTFIT_BUNTAI_WALRUS_OUTFIT-06_cls-6{fill:#5e191e;}.BUNTAI_WALRUS_OUTFIT_BUNTAI_WALRUS_OUTFIT-06_cls-7{fill:#100a16;}.BUNTAI_WALRUS_OUTFIT_BUNTAI_WALRUS_OUTFIT-06_cls-8{stroke:#000;stroke-linecap:round;stroke-linejoin:round;stroke-width:1.93px;}.BUNTAI_WALRUS_OUTFIT_BUNTAI_WALRUS_OUTFIT-06_cls-9{opacity:0.43;mix-blend-mode:multiply;}</style>
    <clipPath id="clip-path">
      <path class="BUNTAI_WALRUS_OUTFIT_BUNTAI_WALRUS_OUTFIT-06_cls-1" d="M-6.89-3.42v441H443.29v-441Zm321.36,270.9a.93.93,0,0,1-.59.21,1,1,0,0,1-.68-.28,25,25,0,0,1-4.38-6.56c-.48,8.51-1.27,18.22-2.5,23.12a1,1,0,0,1-.94.73h-.14a1,1,0,0,1-.82-1c.07-2.06.16-5.08.18-8.62a52.61,52.61,0,0,1-2,7.72c.07,6.19-.69,7.94-.77,8.12a1,1,0,0,1-.87.54h-.08a1,1,0,0,1-.85-.7,54.24,54.24,0,0,0-6.15-12.86l-3.59-2.16c-.63,3-1.3,6-2,9-.37,17.11-1,41.18-1.77,58.86a198.36,198.36,0,0,1-5.17,36.19.05.05,0,0,1,0,0c-.08.38-.18.76-.26,1.14l-.41,1.62c-3.93,16-10.43,33.75-13.44,33.75-2.42,0-2.54-1.74-3.05-9.06l-.4-5.52a1.11,1.11,0,0,1,0-.17c-.41-5.35-1-11.16-1.7-17.67-.1-.94-.21-2-.32-3l-.05-.53c-.07-.67-.13-1.37-.2-2.08l-.09-1c0-.43-.08-.86-.12-1.31l-.13-1.46c-.39-4.49-.8-9.82-1.22-15.86l-.22-3.14c0-.12,0-.18,0-.23-.25-3.7-.51-7.61-.76-11.61l-.18-2.88c-.19-2.91-.37-5.86-.54-8.83-.07-.94-.12-1.9-.18-2.86v-.25c-.38-6.48-.75-13-1.1-19.21l.95-.17-1,.06c0-.06,0-.12,0-.17a.86.86,0,0,1,0-.16s0-.09,0-.13v-.26c0-.14,0-.24,0-.31s0-.27,0-.42V308l0-.5a.66.66,0,0,1,0-.14c0-.17,0-.43,0-.68l0-.52c-.31-5.66-.6-11.06-.86-16l-.14-2.64c-.21-4-.4-7.7-.55-10.89l-.17-3.36c-.29-5.9-.46-9.45-.46-9.45l-.54-9.16a18.64,18.64,0,0,1-2.21,1.44l-.07,0h0a22.3,22.3,0,0,1-7.52,2.43,29,29,0,0,1-3.94.27,30.26,30.26,0,0,1-9.77-1.58l-.08,0a24.67,24.67,0,0,1-8.79-5.1l-.24.19-.44.34-.16.13-.09.06-.06,0-.71.52c-.08,4.76-.19,10.72-.33,17.42l-.08,4.11c-.06,3.41-.14,7-.22,10.61l-.06,2.58c0,1.1,0,2.2-.07,3.32-.12,5-.25,10.12-.38,15.18l-.1,3.69c-.17,6.26-.36,12.44-.56,18.29,0,.56,0,1.13-.05,1.69l-.12,3.41c0,.84-.06,1.67-.1,2.49l-.2,5c0,.75-.06,1.48-.1,2.2v.14c-.17,3.75-.41,7.42-.73,11,0,.37-.06.74-.1,1.1s-.05.7-.09,1.07a2.11,2.11,0,0,0,0,.32c-.06.58-.11,1.09-.17,1.61-.08.8-.16,1.61-.26,2.42-.31,2.82-.68,5.73-1.13,8.86a4.19,4.19,0,0,1-.08.56c-.11.76-.22,1.53-.34,2.28-.23,1.51-.46,3-.71,4.46l-.06.34c-.17,1-.34,2-.52,3-2.79,15.6-6.23,27.62-8.42,32.6-1,2.35-1.75,3.22-2.66,3.22-1.33,0-2.41-.74-3.31-2.28a7.16,7.16,0,0,1-.35-.66,27.35,27.35,0,0,1-1.67-4.87.19.19,0,0,0,0-.07c-.11-.48-.23-1-.36-1.52l.91-.34-.93.24s0-.1,0-.11c0-.19-.08-.41-.13-.62C195.21,401,194.14,393.76,193,384l-.08-.71c-.06-.55-.12-1.11-.17-1.68s-.11-1-.16-1.51a.53.53,0,0,1,0-.15c-.54-5.39-1.1-12.27-1.73-21.12,0-.26,0-.49,0-.72-.06-.83-.12-1.65-.17-2.48l0-.38c-.09-1.2-.17-2.44-.25-3.68,0-.31,0-.65-.07-1q-.21-3-.4-6.07l-.15-2.29c-.05-.72-.09-1.43-.13-2.12,0-.49-.07-1-.1-1.53l-.12-1.91a1.68,1.68,0,0,1,0-.2c0-.08,0-.25,0-.4s0-.4,0-.64c0-.51-.08-1.05-.11-1.59l0-.75c-.08-1.25-.16-2.52-.23-3.78,0-.59-.08-1.21-.12-1.82-.21-3.73-.43-7.47-.64-11.15-.06-1-.12-2.06-.17-3.09-.13-2.16-.25-4.31-.36-6.42-.05-.81-.09-1.6-.14-2.4l0-.81c-.17-3.1-.33-6.14-.48-9.05l-.08-1.45c-.06-1.22-.13-2.41-.18-3.57l-.08-1.39-.09-1.76,0-.73c-.05-.92-.09-1.82-.13-2.7,0-.47,0-.93-.07-1.4a1.47,1.47,0,0,1,0-.27l-.19-3.82v-.11l-.23-4.78c0-.32,0-.61,0-.91l0-.79-1.43.58-1.34.51a3.05,3.05,0,0,1-.29.11l-.25.09-1,.36-.18.07-.29.1-.22.07-.15,0-.13.05-.1,0-.27.08h0l0,0-.11,0-.23.06h0l-.33.11h0l-.23.08a.88.88,0,0,1-.15,0l-.26.07-.16,0-.24.08-.13,0h0l-11,4.43a47.92,47.92,0,0,0-9.2,12.85,1,1,0,0,1-.78.58h-.11a1,1,0,0,1-.78-.4c-.22-.3-1.29-2.1-1.2-8.19a49,49,0,0,1-4-11.39c0,5.08.13,9.48.28,12.2a1,1,0,0,1-.76,1l-.2,0a1,1,0,0,1-.9-.63c-1.93-5.15-3.14-15.57-3.85-24.38a34.29,34.29,0,0,1-3.65,4.62,22.51,22.51,0,0,1-3.76,3.21.91.91,0,0,1-.54.17,1,1,0,0,1-.73-.33,1,1,0,0,1,0-1.28,17.85,17.85,0,0,0,2.82-4.47v0c4.09-8.93,3.82-22.41,3.7-28.16v-.53a26.44,26.44,0,0,1,3.94-13.81,83.21,83.21,0,0,1,3.71-15.81l-.09-.17a1,1,0,0,1-.13-.47,1,1,0,0,1,.82-.94,2.44,2.44,0,0,0,.1-.24,14.72,14.72,0,0,1,3-4.29c.08-.27.16-.55.24-.85l.32-1c.27-.88.57-1.81.89-2.72s.66-1.77,1-2.5l.13-.27c.06-.14.12-.26.18-.38v0c0-.16,0-.33,0-.49a1.1,1.1,0,0,1,0-.18c-.1-1.55-.17-3.3-.21-5.56v-1.34c0-1.76,0-3.7,0-5.84v-.25c0-.4,0-.78,0-1.17v-.47c0-1.34,0-2.51-.12-3.58s-.19-2.12-.35-3.13c0,0,0-.1,0-.12-.18-1.18-.4-2.35-.69-3.72-.14-.63-.27-1.25-.41-1.87a1.42,1.42,0,0,1,0-.2l-.23-1.1s0-.1,0-.11v0a1.13,1.13,0,0,1,0-.18v0a.7.7,0,0,1,0-.14l-.19-1s0,0,0-.06a44.1,44.1,0,0,1-.64-5.67l0-.67c-.05-1.73,0-3.5.12-5.42.51-7.72,3.1-13.73,8.15-18.92.23-.24.48-.49.73-.73a52.12,52.12,0,0,1,8.85-6.71,31.48,31.48,0,0,1,5.13-9.79,1.46,1.46,0,0,1,.15-.2,31.86,31.86,0,0,1,10.58-8.9c15.19-7.94,35.31-16.16,56.36-9.18l3.7.51c15.92,2.16,28.48,3.87,36,17.3a37.94,37.94,0,0,1,2.32,4.9l.19.16q.41.34.81.72l0,0,0,0c.58.52,1.18,1,1.76,1.58a82,82,0,0,1,7.67,7.88c.26.32.47.58.66.83s.42.53.61.79l.21.29c.11.17.23.33.33.49a14.06,14.06,0,0,1,.89,1.47l.12.21c3.22,6.08,4.55,8.6,3.49,24.53,0,.55-.07,1.1-.1,1.64s-.07,1.07-.09,1.6-.06,1-.09,1.55v.05h0c-.06,1-.11,2-.16,3-.25,5.42-.4,10.79-.45,16,0,.6,0,1.2,0,1.8,0,2.15,0,4.26,0,6.31,0,1.33,0,2.62.06,3.9h0c0,1.3.06,2.59.1,3.84,0,.24,0,.45,0,.65a.92.92,0,0,1,0,.16c0,.23,0,.47,0,.69,0,.48,0,.9.05,1.32l0,.62a5.73,5.73,0,0,1,.38.62l0,.06.38.68a5.64,5.64,0,0,1,.26.55,1.17,1.17,0,0,1,.1.2c.06.14.12.26.17.4l.08.19c0,.09.1.25.16.4s.11.32.15.45.1.3.16.5.17.65.26,1l.12.46.13.55c.17.73.33,1.44.49,2.17.07.33.14.69.2,1,.11.53.19,1,.27,1.44a0,0,0,0,0,0,0,.09.09,0,0,0,0,.05c.05.27.1.56.14.83l0,.11v0c.1.55.19,1.11.27,1.66s.16,1.09.25,1.66.13.94.19,1.42a7.07,7.07,0,0,1,.09.72c.05.33.09.7.13,1.07l.06.47s0,.08,0,.12l.11.95v.11c.05.42.1.93.15,1.43l0,.29a36.27,36.27,0,0,1,2.62,13.71v.52c-.09,6.81-.33,24.89,4.39,32.82A1,1,0,0,1,314.47,267.48Z" />
    </clipPath>
  </defs>
  <g class="BUNTAI_WALRUS_OUTFIT_BUNTAI_WALRUS_OUTFIT-06_cls-2">
    <g id="outfit">
      <g class="BUNTAI_WALRUS_OUTFIT_BUNTAI_WALRUS_OUTFIT-06_cls-3">
        <path class="BUNTAI_WALRUS_OUTFIT_BUNTAI_WALRUS_OUTFIT-06_cls-4" d="M77.25,333.71c14.11-7.55,10.78-21.89,10.66-22.4,8,3.1,14.84,4.56,20.13,3.92,7.34,6.69,10.8,15.67,21.68,25.66h0a52.68,52.68,0,0,0,6,7.65s-58,3.13-68.23,2S39.62,323.5,39.62,323.5A208.41,208.41,0,0,0,77.25,333.71Z" />
        <path class="BUNTAI_WALRUS_OUTFIT_BUNTAI_WALRUS_OUTFIT-06_cls-4" d="M112.06,290.44h0c-3.41-12.57-6.3-27.27-15.92-40.11,6.14,2.2,11.68,4.18,12.42,4.41,1.71.54-6.38,0,2.5,2.7,7.27,2.21,15.67,4.24,24.9,6.48,5.41,11.08,15.85,35.31,18.57,62.31a76.53,76.53,0,0,0-6.54-4l3.23,4C134.48,310.82,119.7,297.38,112.06,290.44Z" />
        <path class="BUNTAI_WALRUS_OUTFIT_BUNTAI_WALRUS_OUTFIT-06_cls-5" d="M30.74,276.8q-4.12-3.06-8.29-6.28c-1-7.55-1.22-16,1.95-24L9.59,220.26l30.24,8.59c6.9-4.36,16.29-8,28.94-10.57,0,0,3.46,3.5,8.54,9.2s12.1,13.87,18.82,22.84c9.62,12.84,12.51,27.54,15.92,40.11h0a32.25,32.25,0,0,1,1.26,11.91c-.9,8.09,1.31,12.11-5.28,12.88-5.29.64-12.16-.82-20.13-3.92.12.51,3.45,14.85-10.66,22.4A208.41,208.41,0,0,1,39.62,323.5a154.31,154.31,0,0,1-17.13-7.33c-1.62-.85-3.29-1.73-5-2.62-9.53-4.86-20.37-9.71-29.53-8.46C.32,288,30.74,276.8,30.74,276.8Z" />
        <path class="BUNTAI_WALRUS_OUTFIT_BUNTAI_WALRUS_OUTFIT-06_cls-5" d="M148,344.26l4,3.52a2.66,2.66,0,0,0,1.79.68,2.53,2.53,0,0,0,1.8-.75,2.36,2.36,0,0,0-.24-3.43l-3.64-3.2,6.88-5.88-7.33-9,0,0-3.23-4a76.53,76.53,0,0,1,6.54,4h0a44.4,44.4,0,0,1,10,8.83,9.65,9.65,0,0,1,2.08,5.32c.37,5.46-4.21,11.05-10.92,15.21-2.92,1.8-6.17,1.75-9.44.5-3.62-1.36-7.24-4.17-10.46-7.54a52.68,52.68,0,0,1-6-7.65h0c-.44-.66-.84-1.33-1.22-2a127.74,127.74,0,0,0,13.19,10.74Z" />
        <path class="BUNTAI_WALRUS_OUTFIT_BUNTAI_WALRUS_OUTFIT-06_cls-5" d="M-5.72,302.32l-6.17,3.05s8.78,12.95,9,13.23,5.41,6.34,5.41,6.34l7.65,10.87,3.9,4.11L17.64,312Z" />
        <path class="BUNTAI_WALRUS_OUTFIT_BUNTAI_WALRUS_OUTFIT-06_cls-5" d="M142.32,336.08a2.61,2.61,0,0,1,3.59-.09l5.79,5.09,3.64,3.2a2.36,2.36,0,0,1,.24,3.43,2.53,2.53,0,0,1-1.8.75,2.66,2.66,0,0,1-1.79-.68l-4-3.52-5.43-4.76A2.35,2.35,0,0,1,142.32,336.08Z" />
        <path class="BUNTAI_WALRUS_OUTFIT_BUNTAI_WALRUS_OUTFIT-06_cls-4" d="M108,315.23c6.59-.77,4.38-4.79,5.28-12.88a32.25,32.25,0,0,0-1.26-11.91c7.64,6.94,22.42,20.38,39.15,35.77l0,0,7.33,9-6.88,5.88L145.91,336a2.61,2.61,0,0,0-3.59.09,2.35,2.35,0,0,0,.24,3.42l5.43,4.76-6.3,5.39a127.74,127.74,0,0,1-13.19-10.74c.38.65.78,1.32,1.22,2C118.84,330.9,115.38,321.92,108,315.23Z" />
        <path class="BUNTAI_WALRUS_OUTFIT_BUNTAI_WALRUS_OUTFIT-06_cls-4" d="M155.67,355.59c6.71-4.16,11.29-9.75,10.92-15.21,23.26,21.52,94.29,85.34,106.87,98.15v.2l-36.1,0c-12.85-12.28-75.77-68.41-91.13-82.6C149.5,357.34,152.75,357.39,155.67,355.59Z" />
        <path class="BUNTAI_WALRUS_OUTFIT_BUNTAI_WALRUS_OUTFIT-06_cls-6" d="M88.87,223.14l-11.56,4.34c5.21,5.8,12.1,13.87,18.82,22.84,6.14,2.2,11.68,4.18,12.42,4.41,1.71.54-6.38,0,2.5,2.7,7.27,2.21,15.67,4.24,24.9,6.48,2,.5-4.79,1-2.66,1.53,11.73,2.89,10.78,7.11,10.78,7.11l35.59,7.85c-6.67-4.42-26.4-17.35-48.74-30.26-27.55-15.94-25.16-16.2-25.16-16.2l-21.6-15.66Z" />
        <path class="BUNTAI_WALRUS_OUTFIT_BUNTAI_WALRUS_OUTFIT-06_cls-6" d="M344.52,239.86l.74.06h0c.27.34.69.71,1.05,1.08a.93.93,0,0,1,.14.14,2.41,2.41,0,0,1,.46.62.5.5,0,0,1,.05.13c.1.3,0,.58-.45.81l-2.6,1.33c-1.87,1-3.81,2-5.79,3l-.09,0c-.49.27-1,.52-1.48.78-.21.1-.43.2-.63.32l-3,1.56-1.48.76c-.74.39-1.49.77-2.23,1.17a2.29,2.29,0,0,1-.27.14h0c-.27.15-.55.3-.82.43l-2.2,1.16a.53.53,0,0,1-.1.06l-1.54.82-.52.27-2.1,1.13-3.23,1.76-1.37.75c-1.95,1.09-3.77,2.11-5.36,3.05l-1.59.95-1.05.65-.45.27-.43.27c-.4.25-.8.51-1.21.75q-1.22.75-2.52,1.47l-.08.05c-.83.47-1.69.93-2.55,1.38l-1.53.79-2.52,1.25c-2.88,1.41-5.84,2.79-8.73,4.18l-2.56,1.24-.3.15-.15.07-.22.12-.69.34h0l-1.34.69-.45.23-.45.23-1.51.81-1.47.82-.62.36c-.2.11-.41.23-.61.36l-.46.27,0,0-.13.08c-.27.17-.54.32-.79.49l-.08.05h0c-.26.17-.52.33-.78.51,0,0,0,0-.06,0l-.7.47-.35.24-1.1.81-.22.17a5.32,5.32,0,0,0-.47.36,3.88,3.88,0,0,0-.31.26c-.28.21-.55.44-.81.66l-.8.72v0l-.31.3-.3.3-.14.14a.76.76,0,0,0-.09.09c-.13.13-.25.27-.37.41l-.16.17,0,0-.1.12a.45.45,0,0,1-.11.13h0a.24.24,0,0,1-.08.09,1.84,1.84,0,0,0-.17.22l-.12.14-.12.14v0a.1.1,0,0,0-.05.07.09.09,0,0,1,0,.05.09.09,0,0,0,0,.05.34.34,0,0,0-.08.09c-.06.07-.12.13-.17.2q-.29.39-.6.75l0,0c-.11.12-.23.25-.36.37a3.65,3.65,0,0,1-.27.3l-.14.12-.06.06-.15.15c-.19.18-.38.34-.57.5l-.22.18-.05,0c-.2.16-.41.32-.63.47l-.06.05-.05,0-.05,0c-.16.1-.31.22-.48.31l-.34.21-.35.2,0,0-.1,0c-.23.13-.47.25-.7.36l-.28.14-.16.07-.27.12-.45.19-.26.11-.18.07h0l-.44.15-.44.15-.32.11-.41.11h0l-.16,0-.93.24-.22,0-.73.16-.48.09H258c-.25,0-.51.09-.77.12l-.09,0h0l-.16,0-1.26.16c-.51,0-1,.09-1.5.11h0l-.8,0c-.79,0-1.57,0-2.32,0l-.76,0c-.52,0-1,0-1.51-.09l-.76-.07q-1.12-.12-2.1-.27l-.62-.1-.48-.1-.45-.09-.65-.14-.61-.16-.47-.15-.26-.12h0a.6.6,0,0,1-.16-.08c-1.73-1.07-19.42-4.58-19.42-4.58h0l-5,.17h0L199,288l-5.09-1.79-9.1-3.19-.05,0-1.79-.63-.91-.3-2.39-1.61h0l-1-.69-.37-.23-1.5-1-1.14-.75c-.32-.22-.66-.43-1-.66-.7-.46-1.43-.95-2.23-1.46L169.9,274l-2-1.31-1.11-.71-1.37-.87c-7.23-4.61-16.31-10.28-26.22-16.17l-2-1.2-2.37-1.39-1.21-.72c-.87-.49-1.74-1-2.62-1.51L127.2,248a1,1,0,0,1-.17-.1l-1.09-.62-2.16-1.23-1.07-.6-.38-.21-.06,0-.12-.08-.7-.38-.8-.45-1.23-.67-1.18-.65c-.22-.14-.46-.25-.68-.38l-.68-.37-.86-.47-1.65-.89c-.46-.23-.91-.47-1.35-.71l-.91-.48-2.71-1.4h0l-1.06-.54-2.13-1-.92-.44-.42-.19-.39-.18-.73-.32h0l-.38-.17c-.42-.2-.81-.35-1.15-.5l-.57-.23.39,0h.34l.47,0,3.67-.07,1.06,0-.38-.14a3.18,3.18,0,0,0-.33-.11h0l-.26-.08-.19-.06-.15-.05-.13,0-.11,0h-.08l-.07,0h0l-.15-.1,0,0-11.15-8.07s0,0,0,0l-1-.69h0l-2.21-1.6-7.1-5.15s10.4-7.74,12.56-7.83H97l.26,0,.32,0,1.39-.19.46-.07h.09L100,210l.25,0,.68-.11,1.59-.28.76-.13,3.36-.61h0l.23,0h0c.48-.09.52-.17.3-.25l-.15,0-.27-.05-.27,0-.73-.09h0l-.71-.06-.34,0-.94-.06,4.77-3.35h0l2.23-1.57.31-.21s-.37-.37-.86-.93l0,0c-1.28-1.42-3.33-4.12-2.27-5.27a1.3,1.3,0,0,1,.49-.34,17,17,0,0,1,5.79-1.17h0l-.35-3.78,4-.53,2.77-1.76h0l.22-.2.15,0c.37.07-2.08,1-1.37,1.28a1.84,1.84,0,0,0,.25.09h0l.51.19c.54.2,1.15.44,1.86.74l.07,0c1.4.59,3.17,1.38,5.4,2.41,1.43.66,3.25,1.54,5.42,2.59l1.94.93c1.41.67,2.93,1.41,4.55,2.2l.05,0,.06,0c.26.14.54.27.81.4l2.41,1.16c22.56,10.91,59,28.4,70,30.48a46.54,46.54,0,0,1,9.73,3c5.26,2.28,9.75,5.16,14,7.53a37.12,37.12,0,0,0,8.68,3.76c9.43,2.43,37.1-6.55,39.08-6.55.24,0,1.14,0,2.55.09l.48,0,.83,0,6.37.26.75,0,6.3.22.91,0c.26,0,.51,0,.77,0l2.21.06,1.75.05,1.63,0,4.12.1,1.67,0h.45l5.36.06c1.9,0,3.76,0,5.57,0l2.3,0c1.65,0,3.24-.06,4.74-.11h.09c1.28,0,2.62-.16,3.88-.28l.93-.09h.09l1.1-.11.27,0,1-.11,1-.1h.11l.71-.1c.45,0,.86-.11,1.25-.18l.8-.15C344.77,239.12,344.61,239.75,344.52,239.86Z" />
        <path class="BUNTAI_WALRUS_OUTFIT_BUNTAI_WALRUS_OUTFIT-06_cls-6" d="M348,237.55a5.4,5.4,0,0,1-2,1.31c.13.06-.5,1-.43,1.07h-.24l0,0a.44.44,0,0,1-.1-.15.34.34,0,0,1-.08-.14.42.42,0,0,1,0-.49l.11-.12h0l.15-.09.2-.1.39-.2Z" />
        <path class="BUNTAI_WALRUS_OUTFIT_BUNTAI_WALRUS_OUTFIT-06_cls-6" d="M348.73,237.13l-.78.42A2.57,2.57,0,0,1,348.73,237.13Z" />
        <path class="BUNTAI_WALRUS_OUTFIT_BUNTAI_WALRUS_OUTFIT-06_cls-6" d="M350.94,236l.22-.11-.2.11-.64.33C350.52,236.21,350.74,236.11,350.94,236Z" />
        <path class="BUNTAI_WALRUS_OUTFIT_BUNTAI_WALRUS_OUTFIT-06_cls-6" d="M351.91,235.5l-.54.28Z" />
        <path class="BUNTAI_WALRUS_OUTFIT_BUNTAI_WALRUS_OUTFIT-06_cls-6" d="M424.1,346.66c-.74,3.07-5.54,12.72-7.66,16.91l-1,2S386.54,345.48,364.61,336l0,0-.1,0c-2.07-.9-4.07-1.7-6-2.38-5.26-1.88-9.36-3.48-12.55-4.84-2.89-1.23-5-2.28-6.68-3.17l-.29-.17c-.49-.27-.92-.52-1.31-.77l-.08-.05,0,0a14.12,14.12,0,0,1-3.43-2.8l-.67-.79c-.72-.82-8-3.19-16-5.71-8.81-2.76-18.57-5.7-21.65-6.94h0a7.23,7.23,0,0,1-.68-.3l-.19-.09-.51-.23c-4.68-2.06-25.17-9.53-34.33-12.85l-1-.35-3.45-1.25h0l0-.17c.42,0,.84-.09,1.26-.16l.16,0h0a8.55,8.55,0,0,0,.86-.14H258l.48-.09.73-.16.22-.05q.46-.11.93-.24l.17-.05h0L261,292l.76-.26.44-.15h0l.18-.07.26-.1h0a1.15,1.15,0,0,0,.17-.06l.55-.25.16-.07a9,9,0,0,0,1-.5l.1-.05,0,0a2.08,2.08,0,0,0,.35-.2l.34-.21a3.56,3.56,0,0,0,.48-.31l.05,0,.05,0,.06-.05a5.73,5.73,0,0,0,.63-.47l.05,0,.22-.18c.19-.16.38-.32.57-.5l.15-.15a1.12,1.12,0,0,0,.2-.18,3.65,3.65,0,0,0,.27-.3c.13-.12.25-.25.36-.37l0,0q.31-.36.6-.75a2.92,2.92,0,0,1,.23-.29.24.24,0,0,1,.08-.1.1.1,0,0,1,.05-.07v0l.12-.14a3.05,3.05,0,0,1,.29-.36.24.24,0,0,0,.08-.09.55.55,0,0,1,.13-.14l.1-.12,0,0a7.13,7.13,0,0,1,.53-.58.76.76,0,0,1,.09-.09l.14-.14.3-.3.31-.3v0l.8-.72c.36-.31.73-.62,1.12-.92.15-.12.31-.25.47-.36l.22-.17,1.1-.81.35-.24.7-.47s0,0,.06,0l.79-.51.08,0c.25-.17.52-.32.79-.49l.13-.08,0,0,1.07-.63.62-.36,1.47-.82,1.51-.81.45-.23,1.79-.92h0l.69-.34.22-.12.15-.07.3-.15,2.56-1.24c2.89-1.39,5.85-2.77,8.73-4.18l2.52-1.25,1.53-.79c.86-.45,1.72-.91,2.55-1.38l.08-.05q1.31-.72,2.52-1.47c.41-.24.81-.5,1.21-.75l.43-.27,1-.63c3.88-2.47,9.11-5.78,14.63-9.26l21-13.28c4.5-2.84,7.78-4.92,8.65-5.51l.18-.11h.07l.75.41a15.21,15.21,0,0,1,1.67,1.09l.28.23.21.17a6.5,6.5,0,0,1,.94,1l.12.16a8.18,8.18,0,0,1,.92,1.78c.07.14.13.29.2.43l0,.05a3.72,3.72,0,0,0,.21.39c.08.13.17.26.26.39a.94.94,0,0,0,.1.14l.06.08a7.36,7.36,0,0,0,1.38,1.31l.07,0a6.87,6.87,0,0,0,.69.47l.32.21c.16.1.33.2.51.29l.51.29c.25.14.52.27.8.41,1.13.56,2.53,1.17,4.28,1.85,14,5.4,19,9.38,19,9.38l.21.3.17.23a.09.09,0,0,0,0,.05l.12.16h0s0,0,0,0l0,.05h0l0,.07h0a.18.18,0,0,1,.05.07l.08.11c.56.78,1.38,1.91,2.27,3.12l.31.42c.42.57.85,1.16,1.28,1.72a.86.86,0,0,0,.07.1l.56.72.4.53c.31.4.6.77.88,1.11l.39.48.25.3.41.47.37.42c.1.11.2.24.31.38l.28.35q.38.45.81,1c.16.22.34.45.52.68l.15.19.63.82c.65.84,1.35,1.76,2.09,2.68l1,1.21c.38.48.76.95,1.16,1.41l.21.26a38.67,38.67,0,0,0,3.38,3.67q.36.33.69.6h0a.05.05,0,0,0,0,0,3.49,3.49,0,0,0,.35.26,3.14,3.14,0,0,0,.35.24,1.37,1.37,0,0,1,.47.46.83.83,0,0,1,.09.16.9.9,0,0,1,.12.24,1.06,1.06,0,0,1,.09.25s0,0,0,.07h0v0a3.37,3.37,0,0,1,.12.48,4.37,4.37,0,0,1,.09.56,9.86,9.86,0,0,1,.07,1.26c0,5.43-2.94,15-3.07,15.38l-.18.17,10,9.86.62.6s-2.25,6.76-3.35,11l0,.13c-.15.61-.28,1.16-.38,1.63l-.78,3.78,5.52,5.4s1.4,2.05,3,4.73l.13.23c1.93,3.29,4.07,7.46,4.25,10A3.34,3.34,0,0,1,424.1,346.66Z" />
        <path class="BUNTAI_WALRUS_OUTFIT_BUNTAI_WALRUS_OUTFIT-06_cls-7" d="M14.43,340.24c1.15-10.57,2.27-20.17,3-26.69,1.73.89,3.4,1.77,5,2.62a154.31,154.31,0,0,0,17.13,7.33s17.69,26,27.92,27.09,68.23-2,68.23-2c3.22,3.37,6.84,6.18,10.46,7.54,15.36,14.19,78.28,70.32,91.13,82.6L9.49,438.53C9.84,426,12.21,360.63,14.43,340.24Z" />
        <path class="BUNTAI_WALRUS_OUTFIT_BUNTAI_WALRUS_OUTFIT-06_cls-7" d="M164.51,335.06a44.4,44.4,0,0,0-10-8.83h0c-2.72-27-13.16-51.23-18.57-62.31,2,.5-4.79,1-2.66,1.53,11.73,2.89,10.78,7.11,10.78,7.11l35.59,7.85h0l2.39,1.61.91.31,10.94,3.84L199,288l23.71-.81s17.69,3.51,19.43,4.58c1,.61,7.09,1.88,13.51,1.26l0,.17s36,13,39.47,14.78,36.74,11.16,38.33,13c1.21,1.37,2.24,3.37,12.51,7.77,3.18,1.36,7.29,2.95,12.55,4.84,22.21,7.91,56.91,32,56.91,32l-3.17,73.35-78.69-.06h0l-60.14-.09v-.2c-12.58-12.81-83.61-76.63-106.87-98.15A9.65,9.65,0,0,0,164.51,335.06Z" />
        <path class="BUNTAI_WALRUS_OUTFIT_BUNTAI_WALRUS_OUTFIT-06_cls-8" d="M354.13,234.28h0l-.18.11c-.24.14-.65.37-1.21.66l-.48.26-.32.16-.54.28-.21.11-.22.11c-.2.11-.42.21-.62.33l-.05,0-.63.32-.49.25L349,237l-.09.05,0,0h-.05L346,238.59l-.39.2-.2.1a.72.72,0,0,0-.28.22.43.43,0,0,0,0,.49,1,1,0,0,0,.08.14,1.3,1.3,0,0,0,.1.15l0,0c.27.34.69.71,1.05,1.08a.93.93,0,0,1,.14.14,2.41,2.41,0,0,1,.46.62.43.43,0,0,1,.05.13c.1.3,0,.58-.45.81l-2.6,1.33c-1.87,1-3.81,2-5.79,3l-.09,0c-.49.27-1,.52-1.48.78-.21.1-.43.2-.63.32l-3,1.56-1.48.76c-.74.4-1.48.78-2.23,1.17a2.29,2.29,0,0,1-.27.14h0c-.27.15-.55.3-.82.43l-2.2,1.16a.53.53,0,0,1-.1.06l-1.54.82-.52.27-2.1,1.13-3.23,1.76-1.37.75c-1.95,1.09-3.77,2.11-5.36,3.05l-1.59.95-1.05.65-.45.27-.43.27c-.4.26-.8.51-1.21.75q-1.22.76-2.52,1.47l-.08.05q-1.25.71-2.55,1.38l-1.53.79-2.52,1.25c-2.88,1.41-5.84,2.79-8.73,4.18l-2.56,1.24-.3.15-.15.07-.22.12-.69.34h0l-1.34.69-.45.23-.45.23-1.51.81-1.47.82-.62.36c-.2.11-.41.23-.61.36l-.46.27,0,0-.13.08c-.27.17-.54.32-.79.49l-.08.05h0c-.26.17-.52.33-.78.51,0,0,0,0-.06,0-.24.15-.47.3-.7.47l-.35.24-1.1.81-.22.17a5.32,5.32,0,0,0-.47.36,3.88,3.88,0,0,0-.31.26c-.28.21-.55.44-.81.66l-.8.72v0l-.31.3-.3.3-.14.14a.76.76,0,0,0-.09.09c-.13.13-.25.27-.37.41l-.16.17,0,0-.1.12a.45.45,0,0,1-.11.13h0a.24.24,0,0,1-.08.09,1.84,1.84,0,0,0-.17.22l-.12.14-.12.14v0a0,0,0,0,1,0,0l0,0a.09.09,0,0,1,0,.05l0,0a0,0,0,0,0,0,0,.34.34,0,0,0-.08.09c-.06.07-.12.13-.17.2-.19.25-.38.51-.6.75l0,0c-.11.12-.23.25-.36.37a3.65,3.65,0,0,1-.27.3l-.14.12-.06.06-.15.15c-.19.18-.38.34-.57.5l-.22.18-.05,0c-.2.16-.41.32-.63.47l-.06.05-.05,0-.05,0c-.16.1-.31.22-.48.31l-.34.21-.35.2,0,0-.1,0c-.23.13-.47.25-.7.36l-.28.14-.16.07-.27.12-.28.13-.17.07-.26.1-.18.07h0l-.44.15-.44.15-.32.11-.41.11h0l-.16,0-.93.24-.22,0-.73.16-.48.09H258c-.25,0-.51.09-.77.12l-.09,0h-.09l-.12,0-1.26.16c-.51,0-1,.09-1.5.11h0l-.8,0c-.79,0-1.57,0-2.32,0l-.76,0c-.52,0-1,0-1.51-.09l-.76-.07q-1.12-.12-2.1-.27l-.62-.1-.48-.1-.45-.09-.65-.14-.61-.16-.47-.15-.26-.12h0a.4.4,0,0,1-.16-.08c-1.73-1.07-19.42-4.58-19.42-4.58h0l-5,.17h0L199,288l-5.09-1.79-9.1-3.19-.05,0-1.79-.63-.91-.3-2.39-1.61" />
        <path class="BUNTAI_WALRUS_OUTFIT_BUNTAI_WALRUS_OUTFIT-06_cls-8" d="M345.47,238.93l-.26,0h0l-.65.13-.8.15c-.39.07-.8.13-1.25.18l-.71.1h-.11l-1,.1-1,.11-.27,0-1.1.11h-.09l-.93.09c-1.26.12-2.6.23-3.88.28h-.09c-1.5.05-3.09.08-4.74.11l-2.3,0c-1.81,0-3.67,0-5.57,0l-5.36-.06h-.45l-1.67,0-4.12-.1-1.63,0-1.75-.05-2.21-.06c-.26,0-.51,0-.77,0l-.91,0-6.3-.22-.75,0-6.37-.26-.83,0-.48,0c-1.41-.06-2.31-.09-2.55-.09-2,0-29.65,9-39.08,6.55a37.12,37.12,0,0,1-8.68-3.76c-4.25-2.37-8.74-5.25-14-7.53a46.54,46.54,0,0,0-9.73-3c-11-2.08-47.47-19.57-70-30.48L140.59,200c-.27-.13-.55-.26-.81-.4l-.06,0-.05,0c-1.62-.79-3.14-1.53-4.55-2.2l-1.94-.93c-2.17-1-4-1.93-5.42-2.59-2.23-1-4-1.82-5.4-2.41l-.07,0a2.7,2.7,0,0,1-1.29-2.31s-.1,0-.15,0" />
        <path class="BUNTAI_WALRUS_OUTFIT_BUNTAI_WALRUS_OUTFIT-06_cls-8" d="M117.86,191l-4,.53.35,3.78h0a17,17,0,0,0-5.79,1.17,1.3,1.3,0,0,0-.49.34c-1.06,1.15,1,3.85,2.27,5.27l0,0c.49.56.86.93.86.93l-.31.21-2.23,1.57h0l-4.77,3.35.94.06.34,0,.71.06h0l.73.09.27,0,.27.05.15,0c.22.08.18.16-.3.25h0l-.23,0h0l-3.36.61-.76.13-1.59.28-.68.11-.25,0-.41.07h-.09l-.46.07-1.39.19-.32,0-.26,0h-.31c-2.16.09-12.56,7.83-12.56,7.83l7.1,5.15,2.21,1.6h0l1,.69s0,0,0,0l11.15,8.07,0,0,.15.1h0l.07,0H106l.11,0,.13,0,.15,0,.19.06.26.08h0a3.18,3.18,0,0,1,.33.11l.38.14-1.06,0-3.67.07-.47,0H102l-.39,0,.57.23c.34.15.73.3,1.15.5l.38.17h0l.73.32.39.18.42.19.92.44,2.13,1,1.06.54h0l2.71,1.4.91.48,1.35.72c.53.28,1.08.59,1.65.88l.86.47.68.37c.22.13.46.24.68.38l1.18.65,1.23.67.8.45.82.46.06,0,.38.21,1.07.6,2.16,1.23,1.09.62a1,1,0,0,0,.17.1l3.73,2.14c.88.51,1.75,1,2.62,1.51l1.21.72,2.37,1.39,2,1.2c9.91,5.89,19,11.56,26.22,16.17l1.37.87,1.11.71,2,1.31,2.47,1.6c.8.51,1.53,1,2.23,1.46.36.23.7.44,1,.66l1.14.75,1.5,1,.37.23,1,.69" />
        <path class="BUNTAI_WALRUS_OUTFIT_BUNTAI_WALRUS_OUTFIT-06_cls-8" d="M354.13,234.28h0v0" />
        <path class="BUNTAI_WALRUS_OUTFIT_BUNTAI_WALRUS_OUTFIT-06_cls-8" d="M405.26,298.19l.18-.16s4.16-13.33,2.79-17.71a0,0,0,0,0,0,0s0,0,0-.06h0a2,2,0,0,0-.78-1.1,6.56,6.56,0,0,1-.73-.53h0c-3.5-2.83-9.71-11.68-11.55-13.69-1.54-1.65-5.21-6.72-6.83-9l-.13-.18-.13-.17h0l-.52-.74s-5-4-19-9.38c-12.29-4.75-7.47-6.32-11.89-9.69a18.4,18.4,0,0,0-2.42-1.51" />
        <polyline class="BUNTAI_WALRUS_OUTFIT_BUNTAI_WALRUS_OUTFIT-06_cls-8" points="120.85 189 120.85 189.04 120.63 189.24 117.86 191.01" />
        <path class="BUNTAI_WALRUS_OUTFIT_BUNTAI_WALRUS_OUTFIT-06_cls-8" d="M371.76,265.44c.54.36,20.61,20.08,33.5,32.75l10.63,10.46s-3,9-3.78,12.78l-.77,3.78,5.51,5.4s8.27,12.07,7.3,16-8.68,18.89-8.68,18.89-34.7-24.12-56.91-32c-5.26-1.89-9.37-3.48-12.55-4.84-10.27-4.4-11.3-6.4-12.51-7.77-1.59-1.8-34.86-11.16-38.33-13s-39.47-14.78-39.47-14.78" />
        <path class="BUNTAI_WALRUS_OUTFIT_BUNTAI_WALRUS_OUTFIT-06_cls-8" d="M96.13,250.32c6.14,2.2,11.68,4.18,12.42,4.41,1.71.54-6.38,0,2.5,2.7,7.27,2.21,15.67,4.24,24.9,6.48,2,.5-4.79,1-2.66,1.53,11.73,2.89,10.78,7.11,10.78,7.11l35.59,7.85h0" />
        <polyline class="BUNTAI_WALRUS_OUTFIT_BUNTAI_WALRUS_OUTFIT-06_cls-8" points="84.16 218.28 88.87 223.14 77.31 227.48" />
        <path class="BUNTAI_WALRUS_OUTFIT_BUNTAI_WALRUS_OUTFIT-06_cls-8" d="M211.46,255.9l-.12-.07L147.5,215.94" />
        <path class="BUNTAI_WALRUS_OUTFIT_BUNTAI_WALRUS_OUTFIT-06_cls-8" d="M111,203.06s8.48,6.4,33.08,17.2c23.83,10.46,64.69,34.09,67.22,35.57" />
        <path class="BUNTAI_WALRUS_OUTFIT_BUNTAI_WALRUS_OUTFIT-06_cls-8" d="M96.72,210.45s37.78,22.41,64.46,33.48" />
        <path class="BUNTAI_WALRUS_OUTFIT_BUNTAI_WALRUS_OUTFIT-06_cls-8" d="M222.73,287.14s-27.37-11.79-35.51-17S149,253.92,149,253.92" />
        <path class="BUNTAI_WALRUS_OUTFIT_BUNTAI_WALRUS_OUTFIT-06_cls-8" d="M344.89,239.47c-.29.25-28,14.11-38.7,19.13C295.85,263.46,269.33,269,269.33,269" />
        <path class="BUNTAI_WALRUS_OUTFIT_BUNTAI_WALRUS_OUTFIT-06_cls-8" d="M87.91,311.29C72.14,305.15,52,292.54,30.74,276.8q-4.12-3.06-8.29-6.28c-1-7.55-1.22-16,1.95-24" />
        <path class="BUNTAI_WALRUS_OUTFIT_BUNTAI_WALRUS_OUTFIT-06_cls-8" d="M112.06,290.44a32.25,32.25,0,0,1,1.26,11.91c-.9,8.09,1.31,12.11-5.28,12.88-5.29.64-12.16-.82-20.13-3.92" />
        <path class="BUNTAI_WALRUS_OUTFIT_BUNTAI_WALRUS_OUTFIT-06_cls-8" d="M39.83,228.85c6.9-4.36,16.29-8,28.94-10.57,0,0,3.46,3.5,8.54,9.2s12.1,13.87,18.82,22.84c9.62,12.84,12.51,27.54,15.92,40.11" />
        <polygon class="BUNTAI_WALRUS_OUTFIT_BUNTAI_WALRUS_OUTFIT-06_cls-8" points="9.59 220.26 39.83 228.85 99 298.93 24.4 246.55 9.59 220.26" />
        <line class="BUNTAI_WALRUS_OUTFIT_BUNTAI_WALRUS_OUTFIT-06_cls-8" x1="99" y1="298.93" x2="9.59" y2="220.26" />
        <path class="BUNTAI_WALRUS_OUTFIT_BUNTAI_WALRUS_OUTFIT-06_cls-8" d="M14.43,340.24c-6-5.19-11.91-15.3-11.91-15.3s-6.36-6.21-14.58-19.85C.32,288,30.74,276.8,30.74,276.8" />
        <path class="BUNTAI_WALRUS_OUTFIT_BUNTAI_WALRUS_OUTFIT-06_cls-8" d="M-12.06,305.09c9.16-1.25,20,3.6,29.53,8.46,1.73.89,3.4,1.77,5,2.62a154.31,154.31,0,0,0,17.13,7.33,208.41,208.41,0,0,0,37.63,10.21c14.11-7.55,10.78-21.89,10.66-22.4v0" />
        <polyline class="BUNTAI_WALRUS_OUTFIT_BUNTAI_WALRUS_OUTFIT-06_cls-8" points="151.7 341.08 158.58 335.2 151.25 326.23" />
        <path class="BUNTAI_WALRUS_OUTFIT_BUNTAI_WALRUS_OUTFIT-06_cls-8" d="M129.72,340.89c-.68-.68-1-.87-1.59-1.5,8,7.22,13.56,10.26,13.56,10.26l6.3-5.39" />
        <path class="BUNTAI_WALRUS_OUTFIT_BUNTAI_WALRUS_OUTFIT-06_cls-8" d="M154.52,326.23a44.4,44.4,0,0,1,10,8.83,9.65,9.65,0,0,1,2.08,5.32c.37,5.46-4.21,11.05-10.92,15.21-2.92,1.8-6.17,1.75-9.44.5-3.62-1.36-7.24-4.17-10.46-7.54a52.68,52.68,0,0,1-6-7.65" />
        <path class="BUNTAI_WALRUS_OUTFIT_BUNTAI_WALRUS_OUTFIT-06_cls-8" d="M151.21,326.21l-3.78-3.48a29.34,29.34,0,0,1,7.09,3.49" />
        <path class="BUNTAI_WALRUS_OUTFIT_BUNTAI_WALRUS_OUTFIT-06_cls-8" d="M166.58,340.37h0c23.26,21.52,94.29,85.34,106.87,98.15" />
        <path class="BUNTAI_WALRUS_OUTFIT_BUNTAI_WALRUS_OUTFIT-06_cls-8" d="M112.05,290.43h0c7.64,6.94,22.42,20.38,39.15,35.77l0,0" />
        <path class="BUNTAI_WALRUS_OUTFIT_BUNTAI_WALRUS_OUTFIT-06_cls-8" d="M148,344.26l4,3.52a2.66,2.66,0,0,0,1.79.68,2.53,2.53,0,0,0,1.8-.75,2.36,2.36,0,0,0-.24-3.43l-3.64-3.2L145.91,336a2.61,2.61,0,0,0-3.59.09,2.35,2.35,0,0,0,.24,3.42Z" />
        <path class="BUNTAI_WALRUS_OUTFIT_BUNTAI_WALRUS_OUTFIT-06_cls-8" d="M237.36,438.69c-12.85-12.28-75.77-68.41-91.13-82.6" />
        <path class="BUNTAI_WALRUS_OUTFIT_BUNTAI_WALRUS_OUTFIT-06_cls-8" d="M108,315.23c7.34,6.69,10.8,15.67,21.68,25.66h0" />
        <path class="BUNTAI_WALRUS_OUTFIT_BUNTAI_WALRUS_OUTFIT-06_cls-8" d="M154.52,326.23h0c-2.72-27-13.16-51.23-18.57-62.31" />
        <path class="BUNTAI_WALRUS_OUTFIT_BUNTAI_WALRUS_OUTFIT-06_cls-8" d="M135.77,348.55s-58,3.13-68.23,2S39.62,323.5,39.62,323.5" />
        <path class="BUNTAI_WALRUS_OUTFIT_BUNTAI_WALRUS_OUTFIT-06_cls-8" d="M67.46,363.87,60.6,439.39s8.69-52.56,10.22-61.93,5.77-26.64,5.77-26.64" />
        <path class="BUNTAI_WALRUS_OUTFIT_BUNTAI_WALRUS_OUTFIT-06_cls-8" d="M344.26,353.56c1.63,5.27,12,83.5,12.66,85.26a.15.15,0,0,1,0,.06v-.06c-.08-.32-.19-2.23-2.9-13.7-2.5-10.63-5.42-82.88-8-96.46" />
        <path class="BUNTAI_WALRUS_OUTFIT_BUNTAI_WALRUS_OUTFIT-06_cls-8" d="M415.47,365.53l-3.17,73.35-78.69-.06h0l-60.14-.09-36.1,0L9.49,438.53c.35-12.58,2.72-77.9,4.94-98.29,1.15-10.57,2.27-20.17,3-26.69" />
        <g class="BUNTAI_WALRUS_OUTFIT_BUNTAI_WALRUS_OUTFIT-06_cls-9">
          <path d="M113.08,194.71s24.16,13.49,44.56,22.35,39.92,18.86,39.92,18.86l-25.5-10s55,41.19,74.19,47.37c-53.8-17.71-72.54-30.5-97.26-42.31s-43.39-22.7-43.39-22.7l5.44-4.36-1.84-3.8-1.53-3.86Z" />
          <path d="M341.67,239.56h.11l-.43.16c-11.1,4.16-21.87,11.76-32.74,17.63-.89.47-1.78.94-2.67,1.38h0l-.22.1c-10.39,5.14-21.38,8.06-33.77,9.65a.08.08,0,0,0-.07,0h-.09A228.2,228.2,0,0,1,249,270.08c17.21-.83,55.52-17.5,56.74-18-.86.18-21.4,4.59-59,7.2,13.34-1.4,32.34-9.77,40-11.92,6.57-1.86,22.48-5.57,28.55-7h0l1-.23c4.25.09,11,.15,16.23-.09,2.32-.11,4.79-.2,7.14-.27l1-.11Z" />
          <path d="M243.91,259.44c.92,0,1.88-.09,2.87-.19Z" />
          <path d="M368.36,250.59s15.08,14.86,15.95,15.29,6.45,13.28,6.45,13.28l-29.94-25.3L380,273.36s11.46,24.25,11.68,24.83,8.31,14.29,8.31,14.29l-49.28-36s47.75,41,49.71,44.39,9.95,14,9.95,14l6.25,29s8-14.23,7.64-18.33-8-16.74-9-17.48a27.74,27.74,0,0,1-2.62-1.9c-.33-.42-.5-4.75-.5-4.75l3.15-13.4-9.1-9.84s3.42-15.41,2-18a229.83,229.83,0,0,1-14.81-17.73c-4.86-6.25-5.35-6.93-5.35-6.93l-16.73-5Z" />
          <path d="M349.45,248.08s-28.22,13.26-32.15,18-12.39,11.95-12.82,13.36-3.14,11.52-3.61,12.79l-5.57,15L259.18,294.4s7-3.91,11-9.14,9.7-6.63,14.94-10,23.75-10.4,30.16-17.29S349.45,248.08,349.45,248.08Z" />
          <path d="M364.81,336S358,332.19,348,325.44s-38.13-22.63-38.13-22.63,8.45,13.78,9,14.48,18.24,6.9,18.75,7.21,12.61,7.55,17.86,9.38A40.69,40.69,0,0,0,364.81,336Z" />
          <path d="M153.7,255.67s5.87,2.72,19,12.14,18.84,12.23,20.44,13.35,11.81,6,11.81,6l13.92-1.67S202,279.33,193.33,274s-14-9.47-17.19-10.08S153.7,255.67,153.7,255.67Z" />
          <path d="M91.61,222.88c.58.23,16.24,17.52,19.45,19.91s15.59,10,14.13,9.7S89.61,233,89.61,233s19.52,15.32,24.91,18.55,6.17,7.6,7.62,8.09,9.54,4.32,9.54,4.32,10.37,2.63,13,9.38c27.37,5.43,32.25,6.51,32.25,6.51s-35.65-24.18-49.47-31.65a137.29,137.29,0,0,1-21.85-14.33Z" />
          <path d="M30.74,227.19c.16,0,58,62.74,57.17,62S49.77,240.63,49.6,240.42l-9.77-11.57Z" />
          <path d="M63.78,219.38s41.83,56.23,44.39,73.77S92.43,312.05,60.36,297c-6.73.72-16.64-4.52-26,1.9s-23.6,9.4-23.6,9.4l-8.1-1.09L-9.23,304.9l-2.2,1.24L8.9,334.25l5.46,6.65,3.72-27s12.56,8.61,36.77,14.69,23.37,4.63,23.37,4.63,13-5.51,8.42-22.38c15.57,5.9,27.1,11.7,26.81-1.6-.33-15.64-1.4-32.21-15.31-56.16-16.58-21.95-29.37-34.75-29.37-34.75Z" />
          <path d="M126.82,262.33s5.36,32.64,5.8,46.19c10.67,10.41.84,26-22.47,10.78,6.55,9.94-4.37,15.42-13,18.51s-48.24-2.12-48.24-2.12,7.62,13.54,21.52,15.07c34.15-.63,66.15-1.35,66.15-1.35l4.6.24s1.17,3.63,8.6,2.08,14-3.27,14-3.27,3.15-8.53,3.15-8.85-5-8.06-6.55-8.87-7.09-5.3-7.09-5.3-1.64-19.92-7.74-38.35-9-21.95-9-21.95Z" />
          <path d="M139.34,265.44s.68,14.18,20,21.7,53.49,22.07,53.49,22.07l25.72,10.84S180,306.26,176.92,305.83s66.45,31.35,74.09,38.45,102,73.93,102,73.93l-3.75-52.1,1.38-17.65,1.86-9.55,3.28,16.56,10.54-18.76s-9.81-4.46-23.23-11.29a74.53,74.53,0,0,0-26.89-7.51s-41.3-20.79-60.52-24.76c-12-.28-34.62-5.2-38.88-6s-15.41.88-28.19-3-20.21-5.91-20.21-5.91l-25-6.81S145.48,264.06,139.34,265.44Z" />
        </g>
      </g>
    </g>
  </g>
</svg>