<svg xmlns="http://www.w3.org/2000/svg" xmlns:xlink="http://www.w3.org/1999/xlink" viewBox="0 0 432 432">
  <defs>
    <style>.BUNTAI_WALRUS_OUTFIT_BUNTAI_WALRUS_OUTFIT-39_cls-1,.BUNTAI_WALRUS_OUTFIT_BUNTAI_WALRUS_OUTFIT-39_cls-10{fill:none;}.BUNTAI_WALRUS_OUTFIT_BUNTAI_WALRUS_OUTFIT-39_cls-2{isolation:isolate;}.BUNTAI_WALRUS_OUTFIT_BUNTAI_WALRUS_OUTFIT-39_cls-3{clip-path:url(#BUNTAI_WALRUS_OUTFIT_BUNTAI_WALRUS_OUTFIT-39_clip-path);}.BUNTAI_WALRUS_OUTFIT_BUNTAI_WALRUS_OUTFIT-39_cls-4{fill:#5883dd;}.BUNTAI_WALRUS_OUTFIT_BUNTAI_WALRUS_OUTFIT-39_cls-5{fill:#eebe90;}.BUNTAI_WALRUS_OUTFIT_BUNTAI_WALRUS_OUTFIT-39_cls-6{fill:#0f0f18;}.BUNTAI_WALRUS_OUTFIT_BUNTAI_WALRUS_OUTFIT-39_cls-7{fill:#1b1b24;}.BUNTAI_WALRUS_OUTFIT_BUNTAI_WALRUS_OUTFIT-39_cls-8{fill:#200b3e;}.BUNTAI_WALRUS_OUTFIT_BUNTAI_WALRUS_OUTFIT-39_cls-9{fill:#fff;}.BUNTAI_WALRUS_OUTFIT_BUNTAI_WALRUS_OUTFIT-39_cls-10{stroke:#000;stroke-linecap:round;stroke-linejoin:round;stroke-width:1.93px;}.BUNTAI_WALRUS_OUTFIT_BUNTAI_WALRUS_OUTFIT-39_cls-11{opacity:0.43;mix-blend-mode:multiply;}</style>
    <clipPath id="clip-path">
      <path class="BUNTAI_WALRUS_OUTFIT_BUNTAI_WALRUS_OUTFIT-39_cls-1" d="M-6.89-3.42v441H443.29v-441Zm321.36,270.9a.93.93,0,0,1-.59.21,1,1,0,0,1-.68-.28,25,25,0,0,1-4.38-6.56c-.48,8.51-1.27,18.22-2.5,23.12a1,1,0,0,1-.94.73h-.14a1,1,0,0,1-.82-1c.07-2.06.16-5.08.18-8.62a52.61,52.61,0,0,1-2,7.72c.07,6.19-.69,7.94-.77,8.12a1,1,0,0,1-.87.54h-.08a1,1,0,0,1-.85-.7,54.24,54.24,0,0,0-6.15-12.86l-3.59-2.16c-.63,3-1.3,6-2,9-.37,17.11-1,41.18-1.77,58.86a198.36,198.36,0,0,1-5.17,36.19.05.05,0,0,1,0,0c-.08.38-.18.76-.26,1.14l-.41,1.62c-3.93,16-10.43,33.75-13.44,33.75-2.42,0-2.54-1.74-3.05-9.06l-.4-5.52a1.11,1.11,0,0,1,0-.17c-.41-5.35-1-11.16-1.7-17.67-.1-.94-.21-2-.32-3l-.05-.53c-.07-.67-.13-1.37-.2-2.08l-.09-1c0-.43-.08-.86-.12-1.31l-.13-1.46c-.39-4.49-.8-9.82-1.22-15.86l-.22-3.14c0-.12,0-.18,0-.23-.25-3.7-.51-7.61-.76-11.61l-.18-2.88c-.19-2.91-.37-5.86-.54-8.83-.07-.94-.12-1.9-.18-2.86v-.25c-.38-6.48-.75-13-1.1-19.21l.95-.17-1,.06c0-.06,0-.12,0-.17a.86.86,0,0,1,0-.16s0-.09,0-.13v-.26c0-.14,0-.24,0-.31s0-.27,0-.42V308l0-.5a.66.66,0,0,1,0-.14c0-.17,0-.43,0-.68l0-.52c-.31-5.66-.6-11.06-.86-16l-.14-2.64c-.21-4-.4-7.7-.55-10.89l-.17-3.36c-.29-5.9-.46-9.45-.46-9.45l-.54-9.16a18.64,18.64,0,0,1-2.21,1.44l-.07,0h0a22.3,22.3,0,0,1-7.52,2.43,29,29,0,0,1-3.94.27,30.26,30.26,0,0,1-9.77-1.58l-.08,0a24.67,24.67,0,0,1-8.79-5.1l-.24.19-.44.34-.16.13-.09.06-.06,0-.71.52c-.08,4.76-.19,10.72-.33,17.42l-.08,4.11c-.06,3.41-.14,7-.22,10.61l-.06,2.58c0,1.1,0,2.2-.07,3.32-.12,5-.25,10.12-.38,15.18l-.1,3.69c-.17,6.26-.36,12.44-.56,18.29,0,.56,0,1.13-.05,1.69l-.12,3.41c0,.84-.06,1.67-.1,2.49l-.2,5c0,.75-.06,1.48-.1,2.2v.14c-.17,3.75-.41,7.42-.73,11,0,.37-.06.74-.1,1.1s-.05.7-.09,1.07a2.11,2.11,0,0,0,0,.32c-.06.58-.11,1.09-.17,1.61-.08.8-.16,1.61-.26,2.42-.31,2.82-.68,5.73-1.13,8.86a4.19,4.19,0,0,1-.08.56c-.11.76-.22,1.53-.34,2.28-.23,1.51-.46,3-.71,4.46l-.06.34c-.17,1-.34,2-.52,3-2.79,15.6-6.23,27.62-8.42,32.6-1,2.35-1.75,3.22-2.66,3.22-1.33,0-2.41-.74-3.31-2.28a7.16,7.16,0,0,1-.35-.66,27.35,27.35,0,0,1-1.67-4.87.19.19,0,0,0,0-.07c-.11-.48-.23-1-.36-1.52l.91-.34-.93.24s0-.1,0-.11c0-.19-.08-.41-.13-.62C195.21,401,194.14,393.76,193,384l-.08-.71c-.06-.55-.12-1.11-.17-1.68s-.11-1-.16-1.51a.53.53,0,0,1,0-.15c-.54-5.39-1.1-12.27-1.73-21.12,0-.26,0-.49,0-.72-.06-.83-.12-1.65-.17-2.48l0-.38c-.09-1.2-.17-2.44-.25-3.68,0-.31,0-.65-.07-1q-.21-3-.4-6.07l-.15-2.29c-.05-.72-.09-1.43-.13-2.12,0-.49-.07-1-.1-1.53l-.12-1.91a1.68,1.68,0,0,1,0-.2c0-.08,0-.25,0-.4s0-.4,0-.64c0-.51-.08-1.05-.11-1.59l0-.75c-.08-1.25-.16-2.52-.23-3.78,0-.59-.08-1.21-.12-1.82-.21-3.73-.43-7.47-.64-11.15-.06-1-.12-2.06-.17-3.09-.13-2.16-.25-4.31-.36-6.42-.05-.81-.09-1.6-.14-2.4l0-.81c-.17-3.1-.33-6.14-.48-9.05l-.08-1.45c-.06-1.22-.13-2.41-.18-3.57l-.08-1.39-.09-1.76,0-.73c-.05-.92-.09-1.82-.13-2.7,0-.47,0-.93-.07-1.4a1.47,1.47,0,0,1,0-.27l-.19-3.82v-.11l-.23-4.78c0-.32,0-.61,0-.91l0-.79-1.43.58-1.34.51a3.05,3.05,0,0,1-.29.11l-.25.09-1,.36-.18.07-.29.1-.22.07-.15,0-.13.05-.1,0-.27.08h0l0,0-.11,0-.23.06h0l-.33.11h0l-.23.08a.88.88,0,0,1-.15,0l-.26.07-.16,0-.24.08-.13,0h0l-11,4.43a47.92,47.92,0,0,0-9.2,12.85,1,1,0,0,1-.78.58h-.11a1,1,0,0,1-.78-.4c-.22-.3-1.29-2.1-1.2-8.19a49,49,0,0,1-4-11.39c0,5.08.13,9.48.28,12.2a1,1,0,0,1-.76,1l-.2,0a1,1,0,0,1-.9-.63c-1.93-5.15-3.14-15.57-3.85-24.38a34.29,34.29,0,0,1-3.65,4.62,22.51,22.51,0,0,1-3.76,3.21.91.91,0,0,1-.54.17,1,1,0,0,1-.73-.33,1,1,0,0,1,0-1.28,17.85,17.85,0,0,0,2.82-4.47v0c4.09-8.93,3.82-22.41,3.7-28.16v-.53a26.44,26.44,0,0,1,3.94-13.81,83.21,83.21,0,0,1,3.71-15.81l-.09-.17a1,1,0,0,1-.13-.47,1,1,0,0,1,.82-.94,2.44,2.44,0,0,0,.1-.24,14.72,14.72,0,0,1,3-4.29c.08-.27.16-.55.24-.85l.32-1c.27-.88.57-1.81.89-2.72s.66-1.77,1-2.5l.13-.27c.06-.14.12-.26.18-.38v0c0-.16,0-.33,0-.49a1.1,1.1,0,0,1,0-.18c-.1-1.55-.17-3.3-.21-5.56v-1.34c0-1.76,0-3.7,0-5.84v-.25c0-.4,0-.78,0-1.17v-.47c0-1.34,0-2.51-.12-3.58s-.19-2.12-.35-3.13c0,0,0-.1,0-.12-.18-1.18-.4-2.35-.69-3.72-.14-.63-.27-1.25-.41-1.87a1.42,1.42,0,0,1,0-.2l-.23-1.1s0-.1,0-.11v0a1.13,1.13,0,0,1,0-.18v0a.7.7,0,0,1,0-.14l-.19-1s0,0,0-.06a44.1,44.1,0,0,1-.64-5.67l0-.67c-.05-1.73,0-3.5.12-5.42.51-7.72,3.1-13.73,8.15-18.92.23-.24.48-.49.73-.73a52.12,52.12,0,0,1,8.85-6.71,31.48,31.48,0,0,1,5.13-9.79,1.46,1.46,0,0,1,.15-.2,31.86,31.86,0,0,1,10.58-8.9c15.19-7.94,35.31-16.16,56.36-9.18l3.7.51c15.92,2.16,28.48,3.87,36,17.3a37.94,37.94,0,0,1,2.32,4.9l.19.16q.41.34.81.72l0,0,0,0c.58.52,1.18,1,1.76,1.58a82,82,0,0,1,7.67,7.88c.26.32.47.58.66.83s.42.53.61.79l.21.29c.11.17.23.33.33.49a14.06,14.06,0,0,1,.89,1.47l.12.21c3.22,6.08,4.55,8.6,3.49,24.53,0,.55-.07,1.1-.1,1.64s-.07,1.07-.09,1.6-.06,1-.09,1.55v.05h0c-.06,1-.11,2-.16,3-.25,5.42-.4,10.79-.45,16,0,.6,0,1.2,0,1.8,0,2.15,0,4.26,0,6.31,0,1.33,0,2.62.06,3.9h0c0,1.3.06,2.59.1,3.84,0,.24,0,.45,0,.65a.92.92,0,0,1,0,.16c0,.23,0,.47,0,.69,0,.48,0,.9.05,1.32l0,.62a5.73,5.73,0,0,1,.38.62l0,.06.38.68a5.64,5.64,0,0,1,.26.55,1.17,1.17,0,0,1,.1.2c.06.14.12.26.17.4l.08.19c0,.09.1.25.16.4s.11.32.15.45.1.3.16.5.17.65.26,1l.12.46.13.55c.17.73.33,1.44.49,2.17.07.33.14.69.2,1,.11.53.19,1,.27,1.44a0,0,0,0,0,0,0,.09.09,0,0,0,0,.05c.05.27.1.56.14.83l0,.11v0c.1.55.19,1.11.27,1.66s.16,1.09.25,1.66.13.94.19,1.42a7.07,7.07,0,0,1,.09.72c.05.33.09.7.13,1.07l.06.47s0,.08,0,.12l.11.95v.11c.05.42.1.93.15,1.43l0,.29a36.27,36.27,0,0,1,2.62,13.71v.52c-.09,6.81-.33,24.89,4.39,32.82A1,1,0,0,1,314.47,267.48Z" />
    </clipPath>
  </defs>
  <g class="BUNTAI_WALRUS_OUTFIT_BUNTAI_WALRUS_OUTFIT-39_cls-2">
    <g id="outfit">
      <g class="BUNTAI_WALRUS_OUTFIT_BUNTAI_WALRUS_OUTFIT-39_cls-3">
        <path class="BUNTAI_WALRUS_OUTFIT_BUNTAI_WALRUS_OUTFIT-39_cls-4" d="M254.15,385.11a2.76,2.76,0,0,0,3.77-.34l1.76-2c.08,4.16-3.72,11.59-10,18.84s-13.13,12.2-17.4,12.89l-.1,0a2.47,2.47,0,0,0-.86-2.62l0,0a2.77,2.77,0,0,0-3.16-.15c-.07-4.16,3.72-12,10-19.28s13.14-12.2,17.4-12.89l-1.72,2A2.51,2.51,0,0,0,254.15,385.11Z" />
        <path class="BUNTAI_WALRUS_OUTFIT_BUNTAI_WALRUS_OUTFIT-39_cls-5" d="M268.93,370.22c-.31-.23-.61-.46-.9-.7l-.59-.5-.6-.57c-.16-.16-.32-.32-.47-.49h0a4.23,4.23,0,0,1-.45-.5l-.73.83-.36.43-.05.05-5,5.75a7.37,7.37,0,0,0-.71-.23l-.39-.09-.19-.05-.39-.07-.22,0h0l-.4-.06h-.37l-.61,0h-.31l-.81.06c-.32,0-.64.08-1,.14l-.45.09c-.24.05-.49.11-.73.18a7.67,7.67,0,0,0-.74.22l-.71.24-.79.3-.59.25-.71.33c-.45.22-.91.46-1.37.71l-.79.44-.74.46-.75.47-.17.12-.38.26-.19.12-.25.18-.22.15-1,.75c-.23.18-.47.35-.7.54l-.32.25-1.11.9-.19.15-.34.29-.91.79-1.39,1.27c-.45.43-.9.86-1.34,1.3l-.66.66c-1.08,1.11-2.11,2.23-3.06,3.34-7.56,8.75-14,20.75-9.79,27.39l-3.15,3.63a10,10,0,0,0-3.71-.6l-.81.06h-.12a3.11,3.11,0,0,0-.44.06l-.41.07-.45.09a16.71,16.71,0,0,0-3.11,1l-.52.22a29.9,29.9,0,0,0-4.17,2.3l-.45.3-.78.53q-.33.22-.66.48c-.64.46-1.27.95-1.9,1.46l-.72.59h0c-.23.2-.46.39-.69.6a3.82,3.82,0,0,0-.32.27c-.14.11-.27.23-.4.35l-.12.11a1.71,1.71,0,0,0-.2.18l0,0-.25.22a.57.57,0,0,0-.11.11q-.34.3-.69.63l-.1.1a.27.27,0,0,0-.08.07c-.81.77-1.6,1.55-2.36,2.34l-.1.11h0l-.24.26-1,1.06v0h0c-.4.44-.8.89-1.18,1.33l-.12.15c-.25.3-.51.6-.76.91s-.71.86-1.06,1.3c-.87,1.11-1.71,2.25-2.5,3.41-.15.21-.29.42-.43.64s-.45.67-.66,1c-.52.8-1,1.61-1.46,2.43a1.74,1.74,0,0,0-.15.26c-.22.4-.44.8-.65,1.2l-.33.65c-.22.44-.43.87-.62,1.3s-.39.87-.56,1.3-.34.86-.49,1.28-.29.85-.42,1.27-.18.62-.26.93-.15.62-.22.93-.15.8-.21,1.2c2-.28,3.91-.53,5.82-.76h0c.08-.27.16-.55.25-.83a4.59,4.59,0,0,1,.17-.48l.18-.5c.07-.2.15-.4.24-.61s.16-.42.26-.63.23-.55.37-.83.33-.72.52-1.09.39-.78.61-1.18a.21.21,0,0,1,0-.06l.24-.44c.52-1,1.11-1.93,1.75-2.92.45-.7.94-1.41,1.45-2.12s1-1.43,1.6-2.14,1.14-1.42,1.75-2.13c.29-.34.59-.67.88-1s.47-.53.71-.78c.44-.49.9-1,1.37-1.43l.6-.61c.2-.21.4-.4.6-.59.59-.58,1.19-1.12,1.78-1.65a46.34,46.34,0,0,1,4.22-3.35l1-.66a21,21,0,0,1,5-2.51l.65-.18.62-.12.07.06-.82,1-.94,1.1a1.13,1.13,0,0,0-.1.13,1.77,1.77,0,0,0-.17.24,2.26,2.26,0,0,0-.17.35,1.81,1.81,0,0,0-.09.31,2.32,2.32,0,0,0-.06.38,2.28,2.28,0,0,0,.13,1,1.47,1.47,0,0,0,.15.34,1.28,1.28,0,0,0,.11.2,2.78,2.78,0,0,0,.26.34,2.68,2.68,0,0,0,.3.28v0a2.75,2.75,0,0,0,3.75-.33l1.71-2h0a1.41,1.41,0,0,1,0,.2,1.34,1.34,0,0,0,0,.2,2,2,0,0,1,0,.42c0,.18,0,.36-.07.55s-.1.53-.16.81c-.13.56-.3,1.14-.51,1.76s-.46,1.26-.75,1.93c-.16.38-.34.77-.53,1.16s-.4.79-.61,1.2-.44.82-.68,1.24-.49.84-.75,1.26h0c-.51.85-1.08,1.71-1.7,2.59-.3.44-.62.89-1,1.33-.64.89-1.34,1.79-2.07,2.68-.37.45-.74.89-1.13,1.34-1.56,1.79-3.14,3.45-4.71,4.93,2.9-.29,5.71-.53,8.42-.75h0c.22-.24.42-.46.62-.7a67.56,67.56,0,0,0,5.69-7.55c.41-.63.8-1.25,1.16-1.87s.72-1.24,1-1.85l.4-.76a1,1,0,0,1,.07-.15h0l.09-.19.05-.1c.13-.27.27-.54.39-.81l.15-.33c.19-.41.37-.81.53-1.21,2.49-6.11,1.88-10,.37-12.36l3.25-3.76a9.46,9.46,0,0,0,3.47.5c.17,0,.34,0,.51,0l.38,0a5.58,5.58,0,0,0,.57-.08,5.86,5.86,0,0,0,.58-.1l.31-.07a3.34,3.34,0,0,0,.43-.1c.24-.06.47-.12.71-.2s.49-.16.74-.25.35-.12.53-.19l.55-.22.55-.24.55-.25q.56-.27,1.11-.57c.37-.19.75-.4,1.12-.62l.74-.45h0l.14-.08.55-.35.33-.22.4-.27.07,0h0l.41-.28.33-.23h0c.38-.28.77-.56,1.15-.86l.39-.3c.7-.54,1.39-1.11,2.07-1.7.21-.17.41-.35.61-.53,1.3-1.15,2.56-2.35,3.73-3.57.27-.27.52-.53.77-.8s.59-.63.87-.94.41-.45.6-.67l.58-.66a68.67,68.67,0,0,0,5.68-7.55c.4-.63.79-1.25,1.16-1.87s.71-1.24,1-1.84c.64-1.22,1.21-2.41,1.68-3.56q.45-1.11.78-2.13c.22-.67.39-1.32.53-1.93.86-3.9.2-6.57-1-8.39l5-5.85h0l.89-1Zm-9.43,14.36c-.06.31-.13.63-.22.95,0,.16-.08.33-.14.5-.09.34-.2.68-.33,1-.23.64-.5,1.32-.82,2q-.15.36-.33.72l-.34.7c-.56,1.12-1.23,2.29-2,3.5l-.79,1.22c-.18.28-.37.55-.56.83l-.58.83c-.32.45-.64.89-1,1.34q-.77,1-1.59,2c-.37.45-.74.9-1.13,1.35-.7.81-1.41,1.6-2.13,2.35l-.66.67c-.32.34-.64.67-1,1s-.75.74-1.13,1.09-.71.66-1.06,1c-.67.6-1.34,1.17-2,1.68l-.4.32a34.53,34.53,0,0,1-3.86,2.69l-.53.31-.3.16c-.38.21-.75.4-1.12.57l-.11.05-.16.08c-.27.13-.54.24-.8.34a2.85,2.85,0,0,1-.46.17l-.45.16a6.41,6.41,0,0,1-.86.22l-.41.09-.06,0h0a2.33,2.33,0,0,0,0-1.2,2.14,2.14,0,0,0-.25-.65,1,1,0,0,0-.13-.22l0,0a.61.61,0,0,0-.12-.16,2,2,0,0,0-.36-.36l0,0a3.11,3.11,0,0,0-.38-.25,2.43,2.43,0,0,0-.37-.16l-.09,0a2.09,2.09,0,0,0-.34-.08.11.11,0,0,0-.08,0,2,2,0,0,0-.42,0,2.73,2.73,0,0,0-.76.1,2.35,2.35,0,0,0-.37.14,1.51,1.51,0,0,0-.28.15l-.06,0h0a9.9,9.9,0,0,1,.17-1.87c0-.17.07-.34.11-.52a20,20,0,0,1,.93-3c.13-.32.26-.65.41-1,.07-.16.13-.32.21-.48s.14-.32.22-.49c.29-.61.6-1.24.94-1.88l0,0,.69-1.26c.3-.52.62-1.05.95-1.58l.52-.82c.2-.31.41-.62.62-.93s.3-.45.47-.68c.48-.68,1-1.36,1.49-2,.35-.46.71-.91,1.08-1.37s.73-.91,1.12-1.36c.78-.9,1.57-1.77,2.37-2.6.4-.41.8-.82,1.2-1.21s.79-.79,1.19-1.16q1.2-1.12,2.37-2.1c.35-.29.68-.57,1-.83l.22-.18c.36-.28.72-.56,1.08-.81s.6-.44.9-.64l.69-.47c.23-.16.46-.3.69-.44l.68-.41.33-.19c.35-.2.69-.39,1-.55l.26-.13.72-.33q.3-.14.6-.24a10.26,10.26,0,0,1,1.65-.51,3.28,3.28,0,0,1,.41-.08h0l-1.73,2a3.28,3.28,0,0,0-.27.38,1.4,1.4,0,0,0-.15.3c0,.1-.08.21-.11.31a1.78,1.78,0,0,0-.07.39,2.28,2.28,0,0,0,0,.26,2,2,0,0,0,.05.48,1,1,0,0,0,.06.23,1.55,1.55,0,0,0,.08.23,1.47,1.47,0,0,0,.1.22,1,1,0,0,0,.13.22,2.37,2.37,0,0,0,.32.39,2.09,2.09,0,0,0,.22.2,2.7,2.7,0,0,0,.81.45,2.36,2.36,0,0,0,.44.11,2.71,2.71,0,0,0,.4,0h0l.34,0a3,3,0,0,0,.43-.09,1.14,1.14,0,0,0,.26-.09,2,2,0,0,0,.36-.17,2.55,2.55,0,0,0,.47-.34l.21-.22,1.75-2h0A8.8,8.8,0,0,1,259.5,384.58Z" />
        <path class="BUNTAI_WALRUS_OUTFIT_BUNTAI_WALRUS_OUTFIT-39_cls-4" d="M215.15,430.59a2.75,2.75,0,0,0,3.75-.33l1.71-2c0,4.19-3.79,11.53-10,18.68a67.79,67.79,0,0,1-4.71,4.93q-7.69.72-16.31,1.81c1.23-4.34,4.59-10.33,9.44-16,6.24-7.25,13.13-12.19,17.4-12.89l.08.06L214.78,427a2.5,2.5,0,0,0,.36,3.6Z" />
        <path class="BUNTAI_WALRUS_OUTFIT_BUNTAI_WALRUS_OUTFIT-39_cls-6" d="M346.73,227.88v0h0l-2.49-2.9s4.72-4,9.9,2.2l-2.25,6.5a156.56,156.56,0,0,1-8.39,18.65c-5.93,11.24-33.43,52.91-65,80.74-6.71,6.27-10.53,14-10.43,21.22,0,4.18,1.46,7.72,4,10a14.82,14.82,0,0,0,11.53,3.41c8-.78,16.47-6.65,23.77-16.51,13.6-18.37,53.51-68.26,78.21-83.44.59-.36,1.15-.69,1.72-1l4.53-2.41c3,3.38,4.41,7.18,2.79,11.47l-3.89-3.45c-21.84,12.33-61.25,60.21-77.84,82.61-15.29,20.64-32.77,22.54-43,16a18.69,18.69,0,0,1-2.44-1.86,16.28,16.28,0,0,1-1.54-1.57c-7.94-9.15-5.93-26.27,7.92-39.15,29.9-26.33,57-66.49,63.6-78.94A138.9,138.9,0,0,0,346.73,227.88Z" />
        <path class="BUNTAI_WALRUS_OUTFIT_BUNTAI_WALRUS_OUTFIT-39_cls-7" d="M391.25,263.67c-.19-.21-.39-.41-.59-.6l-.44-.43c-.27-.26-.54-.51-.83-.76l-.73-.61h0v0h0c-.59-.49-1.2-1-1.83-1.43s-1.05-.76-1.59-1.13l-1.21-.81-.7-.44c-1-.66-2.09-1.31-3.16-1.93-.79-.45-1.56-.95-2.34-1.49-.29-.2-.58-.4-.87-.62l-.71-.52-.5-.38c-.2-.15-.41-.31-.61-.48s-.53-.42-.8-.65c-.87-.71-1.74-1.47-2.6-2.27-.57-.52-1.14-1.06-1.7-1.62-1.54-1.51-3-3.11-4.48-4.76-.42-.47-.83-.95-1.23-1.43a95.51,95.51,0,0,1-8.52-11.8,20.25,20.25,0,0,0-1.63-2.3h0l-1,3-1.2,3.47c-.18.5-.38,1-.61,1.62l-.53,1.36c-.19.48-.39,1-.61,1.5-.28.69-.58,1.41-.91,2.17-.73,1.71-1.57,3.59-2.53,5.61l-.73,1.51c-.25.52-.51,1.05-.78,1.58-.53,1.07-1.1,2.17-1.69,3.3-.5.95-1.15,2.11-2,3.46-.13.23-.27.46-.41.69-.39.66-.81,1.36-1.27,2.1l-.28.47-.3.47c-2.69,4.32-6.3,9.8-10.64,16-.14.21-.3.42-.45.64l-1.1,1.55c-.11.15-.22.31-.34.46q-2,2.82-4.23,5.79c-.62.84-1.26,1.7-1.92,2.56-1.92,2.54-3.93,5.15-6,7.78h0a0,0,0,0,1,0,0c-.27.32-.53.65-.79,1l-1.19,1.49c-.39.5-.8,1-1.21,1.5l-1.17,1.43a.13.13,0,0,0-.06.07c-.37.46-.75.91-1.13,1.37l-.75.89q-2.39,2.86-4.88,5.72c-.6.7-1.22,1.4-1.84,2.1l-.41.45c-.43.5-.87,1-1.32,1.48l-.4.45c-.31.35-.63.71-1,1.06-.59.66-1.19,1.31-1.8,2s-1.2,1.3-1.81,1.94-1.05,1.11-1.58,1.66c-.7.75-1.42,1.49-2.15,2.22s-1.6,1.63-2.41,2.44c-1.68,1.68-3.39,3.33-5.11,4.94l-2.13,2c-1,.9-1.95,1.78-2.94,2.65l-.61.59c-.2.19-.4.38-.59.59-.39.39-.77.79-1.15,1.2s-.73.82-1.07,1.24-.62.76-.91,1.14L274,338c-.29.39-.58.79-.85,1.18l0,0c-.29.42-.57.84-.84,1.27s-.56.91-.81,1.37-.46.85-.68,1.27c-.41.84-.79,1.69-1.11,2.54-.11.28-.21.56-.31.85-.16.45-.3.9-.43,1.36l-.18.68c-.06.22-.11.45-.16.68a20,20,0,0,0-.48,3.22,4,4,0,0,0,0,.49q0,.51,0,1a2.62,2.62,0,0,0,0,.28c0,.2,0,.39,0,.58s0,.64.07,1,.07.65.12,1,.12.71.2,1.05.13.52.2.78.07.26.11.39.13.38.2.57a1.46,1.46,0,0,0,.07.19c.08.22.17.44.27.65s.15.33.23.49.29.57.46.85.17.28.26.41a10.62,10.62,0,0,0,1.8,2.09,14.82,14.82,0,0,0,11.53,3.41c.5,0,1-.12,1.51-.21s1.26-.25,1.89-.42l.57-.16c.49-.14,1-.31,1.47-.49l.89-.35.89-.39.89-.42,1-.53a32.87,32.87,0,0,0,3.78-2.42q1.14-.83,2.25-1.77c1-.84,2-1.75,2.95-2.72.49-.49,1-1,1.45-1.51.72-.78,1.43-1.6,2.13-2.45l.7-.87c.47-.58.93-1.18,1.39-1.8l.37-.5c.52-.72,1.1-1.48,1.7-2.28.31-.4.63-.81.95-1.24.48-.63,1-1.26,1.46-1.92l.87-1.13c.58-.76,1.19-1.55,1.83-2.36,1.27-1.63,2.61-3.35,4-5.14l2.55-3.18c.18-.24.37-.47.56-.71l.15-.19c.37-.47.75-.94,1.15-1.42l.87-1.07.89-1.09c2.56-3.15,5.29-6.44,8.12-9.78l3.09-3.61c.14-.18.29-.35.43-.52l.46-.52c.14-.18.29-.35.45-.52l1.93-2.23,0-.06,0,0a.21.21,0,0,1,0-.06l.05,0a.18.18,0,0,1,0-.07l0,0h0l1.72-2c.84-1,1.7-1.93,2.57-2.9s1.74-1.94,2.61-2.9c.61-.67,1.22-1.35,1.84-2q1.77-1.92,3.56-3.83c.67-.72,1.35-1.43,2-2.14s1.34-1.42,2-2.11l.52-.53c.83-.86,1.66-1.73,2.5-2.57.52-.54,1.05-1.07,1.59-1.6l.52-.52c1.29-1.29,2.58-2.55,3.86-3.76q.87-.84,1.74-1.65c.61-.58,1.21-1.14,1.81-1.68l1.2-1.09c.82-.75,1.63-1.47,2.44-2.17l.89-.78,1.06-.9c.85-.72,1.7-1.42,2.53-2.08l1.36-1.08.38-.3c.67-.52,1.34-1,2-1.51.8-.59,1.59-1.16,2.36-1.68.5-.35,1-.68,1.49-1s1-.64,1.47-.94,1.15-.69,1.71-1l4.54-2.41C391.64,264.08,391.45,263.87,391.25,263.67ZM289.14,357.32a7.28,7.28,0,0,1-1.11.88c-.2.13-.41.25-.62.36a4.93,4.93,0,0,1-.66.3,5.13,5.13,0,0,1-.69.25,7.73,7.73,0,0,1-4.47,0h0a5.54,5.54,0,0,1-.68-.25,3.93,3.93,0,0,1-.66-.3,6.44,6.44,0,0,1-.63-.36,7.28,7.28,0,0,1-1.11-.88,5.77,5.77,0,0,1-.42-.44,2.09,2.09,0,0,1-.14-.17l-.07-.08a2,2,0,0,1-.29-.38,4.3,4.3,0,0,1-.29-.45l0-.05c-.08-.13-.15-.27-.22-.41s-.15-.31-.22-.48a6.07,6.07,0,0,1-.33-1l-.06-.26a1.26,1.26,0,0,1,0-.27c0-.18-.05-.36-.07-.54,0,0,0,0,0,0,0-.18,0-.37,0-.55s0-.37,0-.55h0c0-.18,0-.36.07-.54,0,0,0,0,0,0s0,0,0,0a1.43,1.43,0,0,1,0-.22l.06-.26a4.42,4.42,0,0,1,.14-.52,5.59,5.59,0,0,1,.22-.57h0a2.26,2.26,0,0,1,.17-.35,6.38,6.38,0,0,1,.74-1.19c.1-.14.21-.27.32-.4a6,6,0,0,1,.43-.44,4.25,4.25,0,0,1,.46-.4,2.51,2.51,0,0,1,.24-.19,2,2,0,0,1,.25-.18,1.67,1.67,0,0,1,.28-.18,6.65,6.65,0,0,1,.58-.33,6,6,0,0,1,.58-.26,6.32,6.32,0,0,1,.61-.22l.24-.07a4.56,4.56,0,0,1,.64-.14,4.92,4.92,0,0,1,.67-.1,6.51,6.51,0,0,1,.77,0,7.38,7.38,0,0,1,7.52,7.22A7.06,7.06,0,0,1,289.14,357.32Zm8.51-18.9a3.42,3.42,0,0,1-2.37-.94,3.07,3.07,0,0,1-.41-.47,3,3,0,0,1-.31-.55,2.89,2.89,0,0,1-.27-1.25,3,3,0,0,1,.27-1.26,2.43,2.43,0,0,1,.31-.54s0,0,0,0a2.61,2.61,0,0,1,.41-.47,3.61,3.61,0,0,1,.3-.25,1.81,1.81,0,0,1,.32-.22l.22-.12.22-.11a3.26,3.26,0,0,1,.63-.18,3.34,3.34,0,0,1,1.36,0,3.26,3.26,0,0,1,.63.18,5.12,5.12,0,0,1,.57.3,2.69,2.69,0,0,1,.41.33,2.13,2.13,0,0,1,.3.3,1.5,1.5,0,0,1,.19.25,3.26,3.26,0,0,1,.24.4,2,2,0,0,1,.17.43c0,.1.06.2.08.3a.67.67,0,0,1,0,.24,1,1,0,0,1,0,.17,1.14,1.14,0,0,1,0,.26A3.27,3.27,0,0,1,297.65,338.42Zm20.87-34.9a2.91,2.91,0,0,1,0-.31.16.16,0,0,1,0-.1c0-.11,0-.22.05-.34l0-.13a6.09,6.09,0,0,1,.17-.61,4.62,4.62,0,0,1,.23-.62l0,0a4.65,4.65,0,0,1,.32-.63,5.43,5.43,0,0,1,.35-.57l.1-.14a5.07,5.07,0,0,1,.36-.45,7.82,7.82,0,0,1,1-1,6.86,6.86,0,0,1,1.2-.78,5.58,5.58,0,0,1,.66-.3,7.67,7.67,0,0,1,5.85,0,4.93,4.93,0,0,1,.66.3h0a7.17,7.17,0,0,1,1.19.78,4.8,4.8,0,0,1,.53.47,4.75,4.75,0,0,1,.38.4c.07.08.14.15.2.23a.05.05,0,0,1,0,0,3.9,3.9,0,0,1,.31.4,6.84,6.84,0,0,1,1.09,2.41l.06.26a1.55,1.55,0,0,1,0,.21,0,0,0,0,1,0,.05s0,0,0,0c0,.18.05.36.07.54,0,0,0,0,0,0,0,.18,0,.37,0,.55s0,.37,0,.55h0c0,.18,0,.36-.07.54,0,0,0,0,0,0s0,0,0,0a1.43,1.43,0,0,1,0,.22l-.06.26a3.12,3.12,0,0,1-.14.5c0,.1-.07.21-.11.31a6.81,6.81,0,0,1-1.14,2,3,3,0,0,1-.24.28,4.75,4.75,0,0,1-.38.4c-.19.18-.39.35-.6.52l-.51.36a5.63,5.63,0,0,1-.62.37c-.21.11-.44.21-.66.3s-.46.17-.69.24a4.21,4.21,0,0,1-.72.18,6,6,0,0,1-.74.11,6.51,6.51,0,0,1-.77,0,7.38,7.38,0,0,1-7.52-7.23A4.87,4.87,0,0,1,318.52,303.52Zm-9.63,20.86-.2-.11a.39.39,0,0,1-.17-.11.77.77,0,0,1-.19-.14,1.94,1.94,0,0,1-.26-.23,1,1,0,0,1-.17-.18,2.67,2.67,0,0,1-.53-.83,1,1,0,0,1-.07-.15c0-.12-.08-.25-.11-.38a2.63,2.63,0,0,1-.06-.48,1.79,1.79,0,0,1,0-.23,2.26,2.26,0,0,1,0-.26l0-.26a2,2,0,0,1,.05-.24l.06-.21a1.72,1.72,0,0,1,.11-.29.41.41,0,0,1,.05-.09.76.76,0,0,1,.09-.18s0,0,0,0a.76.76,0,0,1,.13-.2.71.71,0,0,1,.1-.14s0,0,0,0l.07-.09.07-.08a.62.62,0,0,1,.14-.14s0,0,0,0l.12-.11a0,0,0,0,1,0,0h0s0,0,0,0l.09-.08h0l.08-.05a.38.38,0,0,1,.13-.09l0,0h0l0,0a.33.33,0,0,1,.13-.07l.11-.06h0a.88.88,0,0,1,.22-.1l0,0,.13,0,.2-.07h0l.2-.05.12,0h0a3.24,3.24,0,0,1,1.34,0h.08a1.05,1.05,0,0,1,.24.06h0a3.14,3.14,0,0,1,1.12.58h0l0,0a1.2,1.2,0,0,1,.2.18,3.11,3.11,0,0,1,1,2.27,2.19,2.19,0,0,1,0,.36,1.86,1.86,0,0,1-.09.47,1.42,1.42,0,0,1-.07.22,1.88,1.88,0,0,1-.12.3,1.82,1.82,0,0,1-.15.27,3.19,3.19,0,0,1-.3.42,1.58,1.58,0,0,1-.22.23,1.3,1.3,0,0,1-.22.19,1.09,1.09,0,0,1-.17.13.91.91,0,0,1-.16.11,3.1,3.1,0,0,1-.51.27,3.32,3.32,0,0,1-1.3.26l-.34,0h-.05a1.26,1.26,0,0,1-.28-.05h-.09a1.5,1.5,0,0,1-.36-.11,2.68,2.68,0,0,1-.34-.13Zm35.18-38.24a.73.73,0,0,1,0,.25,1.09,1.09,0,0,1-.07.3c0,.07,0,.14-.07.22a2.55,2.55,0,0,1-.29.57l-.14.21a2.9,2.9,0,0,1-.48.51,2.23,2.23,0,0,1-.24.19,3.1,3.1,0,0,1-.76.41l-.19.07-.3.08a3.51,3.51,0,0,1-.66.08,3.29,3.29,0,0,1-3.44-3.13.91.91,0,0,1,0-.17s0,0,0,0a.24.24,0,0,1,0-.12,0,0,0,0,1,0,0,1,1,0,0,1,0-.17,2.11,2.11,0,0,1,.1-.5l.11-.3a3.1,3.1,0,0,1,.7-1,3.27,3.27,0,0,1,.35-.3c.13-.09.26-.18.4-.26a3.35,3.35,0,0,1,.47-.21l.25-.07a2.71,2.71,0,0,1,.41-.09,3.13,3.13,0,0,1,.44,0h.1a2.63,2.63,0,0,1,.49,0h0a3.41,3.41,0,0,1,.46.1,3.45,3.45,0,0,1,.79.35.42.42,0,0,1,.12.08,1.94,1.94,0,0,1,.29.21.64.64,0,0,1,.15.13.54.54,0,0,1,.15.15,3.07,3.07,0,0,1,.79,1.46,2.5,2.5,0,0,1,.05.29,1.66,1.66,0,0,1,0,.32A1.89,1.89,0,0,1,344.07,286.14Zm7.73-11.38-.34-.17-.37-.25a3.13,3.13,0,0,1-.55-.54l-.12-.16-.11-.16a2.21,2.21,0,0,1-.18-.34,3,3,0,0,1-.21-.59,4.48,4.48,0,0,1-.08-.64,3,3,0,0,1,0-.43,2,2,0,0,1,0-.24A1.31,1.31,0,0,1,350,271a.5.5,0,0,1,0-.13.78.78,0,0,1,.05-.14,1.89,1.89,0,0,1,.11-.25,2.28,2.28,0,0,1,.17-.3,1.88,1.88,0,0,1,.16-.23,3.17,3.17,0,0,1,.3-.34,1.74,1.74,0,0,1,.29-.25,1.61,1.61,0,0,1,.3-.21l.06,0,.31-.16a2.39,2.39,0,0,1,.37-.15,4.29,4.29,0,0,1,.6-.13h.13l.25,0h.12a3.68,3.68,0,0,1,.58.05,2.79,2.79,0,0,1,.39.1l.37.13.09,0,.24.13a2.2,2.2,0,0,1,.32.21.18.18,0,0,1,.07.05l.18.15s0,0,.05,0l.22.22s0,0,0,0a3.44,3.44,0,0,1,.28.36c.08.13.16.26.23.4a1.88,1.88,0,0,1,.12.3,3.45,3.45,0,0,1,.12.46,3.54,3.54,0,0,1,0,.48c0,.12,0,.24,0,.36a.9.9,0,0,1,0,.28l-.06.27c0,.08-.05.17-.08.26s-.07.16-.11.25l-.12.23-.15.23a3.16,3.16,0,0,1-.82.81l-.1.07a.3.3,0,0,1-.11.06l-.26.14a2.41,2.41,0,0,1-.53.2l-.28.07-.25,0a2,2,0,0,1-.34,0,3,3,0,0,1-.42,0,2.76,2.76,0,0,1-.4-.06l-.39-.11ZM368,258.48a2,2,0,0,1-.18.32c-.08.12-.16.24-.25.35l0,0-.32.32-.1.09a.27.27,0,0,1-.08.07l-.16.12-.28.16-.19.1-.32.12-.25.08-.21,0h-.05a.64.64,0,0,1-.2,0H365a3.64,3.64,0,0,1-1-.13,3.41,3.41,0,0,1-1.68-1.11l-.15-.2a2.39,2.39,0,0,1-.13-.21,2.51,2.51,0,0,1-.26-.58,2,2,0,0,1-.08-.26,3.4,3.4,0,0,1-.09-.64,2.75,2.75,0,0,1,0-.41v-.06a.9.9,0,0,1,0-.16,1.22,1.22,0,0,1,.06-.26.56.56,0,0,1,0-.12,2.41,2.41,0,0,1,.08-.25,2.09,2.09,0,0,1,.14-.3s0,0,0,0a2.25,2.25,0,0,1,.24-.36,2.17,2.17,0,0,1,.32-.36l.11-.11a2.63,2.63,0,0,1,.37-.29l.27-.16.25-.13h0a2.84,2.84,0,0,1,.49-.17h.07l.38-.07a2,2,0,0,1,.34,0h.41s0,0,0,0l.36,0h.05l.06,0a2.52,2.52,0,0,1,.39.12,1.39,1.39,0,0,1,.28.12.19.19,0,0,1,.08,0h0l.11.07a.38.38,0,0,1,.15.09l0,0h0l.2.14h0l.06.05.17.14a1.36,1.36,0,0,1,.12.12l.09.1s0,0,0,0a1.55,1.55,0,0,1,.19.24l.06.08a.6.6,0,0,1,.09.15s0,0,0,0a2.15,2.15,0,0,1,.14.26h0l0,.08a3.05,3.05,0,0,1,.17.51,2.93,2.93,0,0,1,.05.29,0,0,0,0,0,0,0c0,.1,0,.21,0,.32v.22a1.76,1.76,0,0,1,0,.33.85.85,0,0,1,0,.17.75.75,0,0,1,0,.16.74.74,0,0,1,0,.14h0A2.78,2.78,0,0,1,368,258.48Z" />
        <path class="BUNTAI_WALRUS_OUTFIT_BUNTAI_WALRUS_OUTFIT-39_cls-4" d="M410.54,319.25h0A119.27,119.27,0,0,1,388,348.73c-.84.79-1.71,1.58-2.59,2.36-1.76,1.55-3.61,3.08-5.54,4.56,0,.36-.07.71-.11,1.07s-.07.56-.11.84-.13.83-.2,1.25c0,0,0,0,0,0-.08.46-.17.92-.27,1.37,0,.15-.06.3-.1.45a1.08,1.08,0,0,1-.05.21c-.06.28-.13.55-.21.82a1.6,1.6,0,0,1,0,.21c-.08.26-.15.51-.23.75a.35.35,0,0,1,0,.12h0a2.25,2.25,0,0,0-.08.24,1.27,1.27,0,0,1-.06.18,1.31,1.31,0,0,1-.09.28c0,.09-.07.18-.1.26h0s0,0,0,0a.08.08,0,0,1,0,0c-.08.22-.16.44-.25.66s-.2.5-.31.74-.23.5-.35.74l-.09.2a1.26,1.26,0,0,1-.13.26,2.36,2.36,0,0,1-.15.25l-.25.48c-.1.17-.19.33-.29.48a92,92,0,0,1,.86,12.37c0,.4,0,.81,0,1.24v.23c0,.55,0,1.12-.05,1.67s-.05,1.16-.07,1.75-.1,1.39-.16,2.08c0,.31-.05.61-.09.92s0,.34-.05.51,0,.34,0,.51a1.92,1.92,0,0,0,0,.22c0,.43-.1.88-.15,1.33s-.14,1-.21,1.51a70.67,70.67,0,0,1-5.67,19.16c-5.55,12.06-15.18,23.77-30.84,33.76-26.92,10.07-41.35,7.39-67.43,5.72a383.82,383.82,0,0,0-58,.51h0c.22-.24.42-.46.62-.7a67.56,67.56,0,0,0,5.69-7.55c.41-.63.8-1.25,1.16-1.87s.72-1.24,1-1.85l.4-.76.08-.15.09-.19.05-.1c.13-.27.27-.54.39-.81l.15-.33c.19-.41.37-.81.53-1.21,2.49-6.11,1.88-10,.37-12.36l3.25-3.76a9.46,9.46,0,0,0,3.47.5c.17,0,.34,0,.51,0l.38,0a3.72,3.72,0,0,0,.57-.08,5.86,5.86,0,0,0,.58-.1l.31-.07a3.34,3.34,0,0,0,.43-.1c.24-.06.47-.12.71-.2s.49-.16.74-.25.35-.12.53-.19l.55-.22c.18-.07.37-.15.55-.24l.55-.25q.56-.27,1.11-.57c.37-.19.75-.4,1.12-.62l.74-.45.14-.09.55-.35.33-.22.4-.27.07,0,.41-.29.33-.23,0,0c.38-.28.77-.56,1.15-.86l.39-.3c.7-.54,1.39-1.11,2.07-1.7.21-.17.41-.35.61-.53,1.3-1.15,2.56-2.35,3.73-3.57.27-.27.52-.53.77-.8s.59-.63.87-.94.41-.45.6-.67l.58-.66a68.67,68.67,0,0,0,5.68-7.55c.41-.63.8-1.25,1.16-1.87s.72-1.24,1-1.84c.64-1.22,1.21-2.41,1.68-3.56q.45-1.11.78-2.13c.22-.67.39-1.32.53-1.93.86-3.9.2-6.57-1-8.39l5-5.85h0l.89-1a22.09,22.09,0,0,0,13.21,3.33l.94-.06h.16l.67-.08.54-.07.93-.15q.46-.07.93-.18c.32-.06.63-.13,1-.22a29,29,0,0,0,3.3-1c.34-.12.69-.25,1-.4s.83-.35,1.24-.54l.14-.06c.72-.33,1.43-.69,2.15-1.08l.78-.44c.44-.26.89-.53,1.33-.81l.77-.49q.48-.31,1-.66c.36-.25.71-.5,1.07-.77s1-.73,1.44-1.12.67-.55,1-.84l.11-.1c.34-.28.68-.58,1-.89l.15-.14c.65-.59,1.29-1.21,1.94-1.86l.33-.34c.23-.23.47-.48.7-.73q1.5-1.58,3-3.38c.35-.43.71-.88,1.06-1.33s.78-1,1.16-1.52c2.35-3.17,5.15-6.85,8.31-10.87l2.06-2.63,1.1-1.38c.49-.63,1-1.27,1.52-1.91l.75-.93q1.72-2.16,3.55-4.38c2.42-3,4.94-6,7.56-9.09.31-.38.63-.77,1-1.15v0c4.4-5.17,9-10.4,13.61-15.47l1.74-1.9c1.81-2,3.62-3.9,5.44-5.79,1.65-1.74,3.31-3.44,4.95-5.09l1.71-1.71c2.55-2.54,5.07-4.94,7.53-7.18l.82-.74,1.61-1.44c.53-.47,1.07-.94,1.59-1.38l.79-.67.86-.73c1-.84,2-1.64,3-2.4.25-.2.5-.4.75-.58.74-.57,1.47-1.11,2.19-1.63.24-.18.47-.35.71-.51l.71-.49,1.38-.92c.46-.3.91-.59,1.35-.85l.66-.4.64-.37c1.29,1.15,2.57,2.29,3.89,3.45v0h0c.41,1,11.77,28.12,14.81,38.82C409.78,315.84,410.15,317.41,410.54,319.25Z" />
        <path class="BUNTAI_WALRUS_OUTFIT_BUNTAI_WALRUS_OUTFIT-39_cls-4" d="M346.73,227.87a138.28,138.28,0,0,1-9.3,21.49c-4.5,8.52-18.61,30-36.64,51.14l-.11.13a275.82,275.82,0,0,1-26.85,27.68,44.42,44.42,0,0,0-5.78,6.5,39,39,0,0,0-2.72,4.31c-.19.34-.36.68-.54,1l0,.07a31.26,31.26,0,0,0-2.07,5.09c-2.7,8.48-1.5,16.72,3.22,22.14l-.73.83-.36.43h0l-.05,0-4.95,5.75a9.4,9.4,0,0,0-3.63-.56c-7.22.23-16.3,7.87-22.4,15-7.58,8.76-14,20.75-9.8,27.39l-3.14,3.63a10,10,0,0,0-3.71-.6c-7.23.22-16.32,7.87-22.42,14.95-5.27,6.12-10,13.82-10.91,20.17q-3.12.41-6.38.88a167,167,0,0,1-39.94,1.17c-17.14-1.69-28.7-6.06-34.72-8.91l-.13-.08a38.41,38.41,0,0,1-4.77-2.6c-2.42-1.54-4.69-3.12-6.82-4.77l0-.07a.58.58,0,0,1,0-.1l.18-.49a1.74,1.74,0,0,1,.11-.32c.1-.28.21-.61.36-1s.18-.47.29-.73.21-.55.34-.85.25-.61.39-1A139.84,139.84,0,0,1,101.33,419c.39-.66.79-1.34,1.22-2,3-4.89,6.67-10.39,11.14-16.32l.68-.88c3.51-4.6,7.51-9.47,12.06-14.5l.66-.73c.61-.67,1.22-1.35,1.85-2,1.25-1.36,2.56-2.72,3.89-4.09l.36-.37c1.86-1.91,3.8-3.85,5.83-5.8l2-2c.68-.66,1.39-1.31,2.1-2q2.13-2,4.36-4l2.27-2,2.32-2c.79-.67,1.58-1.34,2.39-2s1.58-1.32,2.37-1.95,1.8-1.47,2.72-2.21l2.39-1.88,2.2-1.69c.72-.57,1.46-1.14,2.22-1.69,1.17-.89,2.38-1.78,3.59-2.67,16.33-11.93,40.46-24.72,66.24-39.52,1.95-1.11,3.9-2.24,5.87-3.38l3.12-1.82c1-.58,2-1.17,3-1.77s2-1.2,3-1.8l2.69-1.6.42-.25q3.74-2.26,7.45-4.55l1.26-.79c1.4-.86,2.8-1.76,4.21-2.65q1.86-1.17,3.71-2.37l1.28-.83q1.49-1,3-1.95c4.86-3.21,9.68-6.51,14.39-9.91,1-.74,2.07-1.49,3.1-2.24,1.37-1,2.73-2,4.09-3.06s2.52-1.93,3.77-2.91l.72-.56c1-.8,2-1.59,3-2.41,1.48-1.18,3-2.38,4.4-3.63,1.15-.95,2.28-1.92,3.41-2.9.41-.36.83-.72,1.24-1.11.84-.72,1.68-1.47,2.51-2.24a4.77,4.77,0,0,0,.54-.48c1.19-1.07,2.37-2.17,3.53-3.27s2.09-2,3.1-3,2-2,3-3l.12-.11c1-1,1.9-2,2.83-3q5-5.3,9.37-10.87c.7-.88,1.37-1.76,2-2.65l.06-.07c.68-.89,1.33-1.78,2-2.67l.59.67,1.18,1.34c.84,1,1.67,2,2.5,2.9Z" />
        <path class="BUNTAI_WALRUS_OUTFIT_BUNTAI_WALRUS_OUTFIT-39_cls-5" d="M364.86,253.91a3.29,3.29,0,0,0-3.27,3.3,3.33,3.33,0,0,0,3.44,3.14,3.22,3.22,0,1,0-.17-6.44Z" />
        <path class="BUNTAI_WALRUS_OUTFIT_BUNTAI_WALRUS_OUTFIT-39_cls-5" d="M340.66,282.6a3.22,3.22,0,1,0,3.44,3.13A3.28,3.28,0,0,0,340.66,282.6Z" />
        <path class="BUNTAI_WALRUS_OUTFIT_BUNTAI_WALRUS_OUTFIT-39_cls-5" d="M283.83,345a7.23,7.23,0,1,0,7.52,7.22A7.38,7.38,0,0,0,283.83,345Z" />
        <path class="BUNTAI_WALRUS_OUTFIT_BUNTAI_WALRUS_OUTFIT-39_cls-5" d="M353.1,268.61a3.22,3.22,0,1,0,3.44,3.13A3.3,3.3,0,0,0,353.1,268.61Z" />
        <path class="BUNTAI_WALRUS_OUTFIT_BUNTAI_WALRUS_OUTFIT-39_cls-5" d="M372,237.48a9.64,9.64,0,0,0-7.71,3.78A71.57,71.57,0,0,0,377.76,254a9,9,0,0,0,3.78-7.32A9.39,9.39,0,0,0,372,237.48Z" />
        <path class="BUNTAI_WALRUS_OUTFIT_BUNTAI_WALRUS_OUTFIT-39_cls-5" d="M310.46,318.33a3.22,3.22,0,1,0,3.35,3.21A3.29,3.29,0,0,0,310.46,318.33Z" />
        <path class="BUNTAI_WALRUS_OUTFIT_BUNTAI_WALRUS_OUTFIT-39_cls-5" d="M297.66,332a3.22,3.22,0,1,0,3.34,3.23A3.3,3.3,0,0,0,297.66,332Z" />
        <path class="BUNTAI_WALRUS_OUTFIT_BUNTAI_WALRUS_OUTFIT-39_cls-5" d="M326,297a7.24,7.24,0,1,0,7.52,7.23A7.38,7.38,0,0,0,326,297Z" />
        <path class="BUNTAI_WALRUS_OUTFIT_BUNTAI_WALRUS_OUTFIT-39_cls-8" d="M420,360.05A140.52,140.52,0,0,1,376.29,392h0c.07-.5.15-1,.21-1.51s.13-1,.18-1.55c0-.17,0-.34,0-.51s0-.34.05-.51.06-.61.09-.92c.11-1.28.19-2.56.23-3.83,0-.63,0-1.27.05-1.9,0-.43,0-.84,0-1.24a92,92,0,0,0-.86-12.37c.19-.31.38-.64.54-1s.25-.47.37-.71.24-.49.35-.74.21-.49.31-.74.17-.44.25-.66l0-.09h0l.19-.54a1.27,1.27,0,0,0,.06-.18,2.25,2.25,0,0,0,.08-.24h0a.05.05,0,0,1,0,0c.09-.27.17-.55.24-.83a1.6,1.6,0,0,0,0-.21c.08-.27.15-.54.21-.82a1.08,1.08,0,0,0,.05-.21c0-.14.07-.29.1-.45.1-.45.19-.91.27-1.37s.13-.74.18-1.11a1,1,0,0,0,0-.17c0-.28.08-.56.11-.84s.08-.71.11-1.07c1.93-1.48,3.78-3,5.54-4.56.88-.78,1.75-1.57,2.59-2.36a119.27,119.27,0,0,0,22.58-29.47c1.27,5.89,2.78,14.51,4.79,23.47C416.64,348.57,418.15,354.56,420,360.05Z" />
        <path class="BUNTAI_WALRUS_OUTFIT_BUNTAI_WALRUS_OUTFIT-39_cls-8" d="M344.05,220.67c-.52.75-1.07,1.51-1.61,2.27s-1.3,1.78-2,2.67l-.06.07c-.67.89-1.34,1.77-2,2.65Q334,233.91,329,239.2c-.93,1-1.88,2-2.83,3l-.12.11c-1,1-2,2-3,3s-2,2-3.1,3a2.82,2.82,0,0,1-.36.33c-1,1-2.09,2-3.17,2.94a4.77,4.77,0,0,1-.54.48c-.83.76-1.67,1.51-2.51,2.24-.41.39-.83.75-1.24,1.11-1.13,1-2.26,1.94-3.41,2.9-1.45,1.25-2.92,2.45-4.4,3.63-1,.81-2,1.61-3,2.41l-.72.56c-1.24,1-2.51,1.94-3.77,2.91s-2.72,2-4.09,3.06c-1,.75-2.06,1.5-3.1,2.24-4.71,3.4-9.53,6.7-14.39,9.91q-1.49,1-3,1.95l-1.28.83c-1.23.81-2.47,1.59-3.71,2.37-1.39.89-2.81,1.79-4.21,2.65l-1.26.79c-2.19,1.36-4.4,2.71-6.59,4l-.86.53-.42.25-2.69,1.6c-1,.6-2,1.21-3,1.8l-3,1.77-3.12,1.82c-2,1.14-3.91,2.26-5.87,3.38-25.78,14.8-49.91,27.59-66.24,39.52-1.21.89-2.42,1.78-3.59,2.67-.76.57-1.5,1.12-2.22,1.69l-2.2,1.69-2.39,1.88c-.92.74-1.83,1.47-2.72,2.21s-1.6,1.3-2.37,1.95-1.6,1.33-2.39,2l-2.32,2-2.27,2q-2.24,2-4.36,4c-.71.65-1.42,1.3-2.1,2l-2,2c-2,1.95-4,3.89-5.83,5.8l-.36.37c-1.33,1.37-2.64,2.73-3.89,4.09-.63.67-1.25,1.35-1.85,2l-.66.73c-4.55,5-8.55,9.9-12.06,14.5l-.68.88c-4.47,5.93-8.16,11.43-11.14,16.32-.43.68-.83,1.36-1.22,2a139.84,139.84,0,0,0-8.56,16.69c-.14.34-.28.65-.39,1s-.24.58-.34.85-.2.5-.29.73-.26.7-.36,1a1.74,1.74,0,0,0-.11.32l-.18.49a.58.58,0,0,0,0,.1l0,.07a80.17,80.17,0,0,1-18-18.46h0s0-.11.09-.23.19-.42.33-.75c0-.08.08-.17.12-.26.3-.68.74-1.63,1.32-2.81l.46-.94c.77-1.54,1.73-3.39,2.91-5.55.29-.52.58-1.06.89-1.61l1.49-2.61c.18-.3.35-.6.54-.91,2.37-4,5.33-8.74,8.93-13.93q.77-1.12,1.59-2.28c3.35-4.73,7.22-9.84,11.65-15.2.54-.66,1.09-1.33,1.66-2,3.47-4.15,7.28-8.44,11.44-12.82q1.39-1.47,2.85-3c1-1,2-2,3-3,2.88-2.87,5.9-5.77,9.09-8.67.79-.74,1.6-1.46,2.42-2.2,3.43-3.08,7.06-6.19,10.86-9.28l2-1.63c.94-.76,1.88-1.5,2.85-2.25s1.87-1.47,2.82-2.19,1.92-1.46,2.9-2.19,2-1.46,2.94-2.18q3.3-2.42,7-4.87,2-1.33,4.14-2.7c7.22-4.62,15.37-9.39,24.11-14.38,1-.55,1.94-1.12,2.93-1.67l3-1.69,1.27-.72c-37-21.29-82.37-47.9-107.79-80.84,2-2.13,1.45-2,3.17-3.38h0l10-11.06L116.63,195c28.49,38.78,68.58,63.86,110.18,87.34,38.37-22.11,78.32-46.92,103-81.79l8.31,9.84Z" />
        <path class="BUNTAI_WALRUS_OUTFIT_BUNTAI_WALRUS_OUTFIT-39_cls-8" d="M61.49,392.88h0l-.25-.05-.26,0-.51-.1h-.1l-1-.2c-.65-.13-1.3-.27-1.94-.42l-1.5-.36c-.47-.11-.94-.23-1.4-.36a.7.7,0,0,0-.14,0l-2.1-.58-.28-.09c-.72-.2-1.43-.42-2.13-.65s-1.49-.48-2.23-.74l-2.2-.8-1.66-.64c-.89-.36-1.78-.73-2.66-1.12l-.21-.08h-.05c-.47-.21-.95-.41-1.41-.63s-.9-.41-1.35-.63l-.34-.17c-.84-.4-1.68-.81-2.51-1.25-.46-.23-.91-.47-1.36-.71l-.34-.19c-.53-.28-1.05-.57-1.56-.86l-.09,0c-.59-.33-1.17-.66-1.74-1s-1.16-.69-1.73-1c-1.2-.74-2.38-1.51-3.54-2.3-.55-.37-1.09-.75-1.63-1.13s-1.11-.79-1.66-1.2q-2.47-1.82-4.83-3.78c-.47-.38-.93-.77-1.39-1.17-.11-.08-.21-.17-.3-.25-.39-.33-.77-.67-1.14-1q-1-.91-2-1.86l-.29-.26-.25-.23-.48-.46c-.15-.14-.3-.28-.44-.43l-1.2-1.17c-.48-.47-.95-.95-1.42-1.44s-.93-1-1.39-1.46-.92-1-1.37-1.48c-.91-1-1.79-2-2.65-3l-.83-1-.3-.35h0c3.16-6.7,6.16-13.8,8.68-20.23h0c3-7.76,5.38-14.53,6.47-18.38.11-.37.22-.77.35-1.18l.53.88c.17.31.35.61.54.92h0c.42.7.85,1.41,1.31,2.12q.33.54.69,1.08c.46.73.94,1.47,1.45,2.21s1,1.49,1.55,2.25,1.23,1.73,1.88,2.6c.43.57.86,1.15,1.31,1.72.67.87,1.36,1.75,2.08,2.62.28.35.56.69.86,1s.73.88,1.11,1.31.56.65.84,1,.82.93,1.24,1.38.71.79,1.08,1.18a118.25,118.25,0,0,0,10.28,9.83l1.36,1.13,1.53,1.23c.51.41,1,.82,1.56,1.22l.53.4,1.08.81c.37.28.76.56,1.14.82,1.11.82,2.25,1.61,3.42,2.38.66.44,1.32.88,2,1.3s1.35.86,2,1.28h0c.07.37.13.74.21,1.11s.16.73.25,1.09c.18.71.38,1.4.61,2.08,0,.14.09.28.14.41s.14.38.22.57h0a.58.58,0,0,0,.05.14,3.89,3.89,0,0,0,.21.51c.08.21.17.41.26.6s.09.2.14.3q.21.47.45.9c.17.33.36.64.55.95v0A91.34,91.34,0,0,0,60.47,380c0,1.54.05,3.12.14,4.69,0,.1,0,.2,0,.31.06,1,.14,2,.24,3a1.79,1.79,0,0,0,0,.23c.08.74.16,1.48.26,2.23.07.54.15,1.08.23,1.63C61.4,392.34,61.45,392.61,61.49,392.88Z" />
        <path class="BUNTAI_WALRUS_OUTFIT_BUNTAI_WALRUS_OUTFIT-39_cls-9" d="M200.58,297.21l-1.28.72-1.78,1-4.12,2.34-1.9,1.09-1,.57-.35.2-1.58.92-.91.52-2,1.15-2.83,1.65-.72.43-1.35.8-1,.57-.38.23-2,1.21-.15.09-.46.28-.78.47-1.16.71-.63.39-2.2,1.36-.31.2c-.83.51-1.64,1-2.44,1.54q-2.13,1.36-4.14,2.7l-.28.19-.09.05a.66.66,0,0,0-.17.12c-1.05.7-2.07,1.4-3.07,2.09l-1.32.93c-.71.5-1.4,1-2.08,1.49h0c-1,.72-2,1.45-2.94,2.18l-1.25.94c-.55.41-1.1.82-1.64,1.25s-.83.63-1.24.95l-.18.14-.2.16-.16.12c-.69.53-1.37,1.07-2.05,1.61-.13.09-.26.2-.39.31l-1.77,1.41c-.57.45-1.13.91-1.69,1.37l-1.06.88a1.3,1.3,0,0,0-.23.18l-.45.37-1.54,1.28-2.58,2.19c-.8.69-1.59,1.37-2.38,2.07l-.15.13-1.86,1.64-1.82,1.64q-1.65,1.49-3.24,3-3.66,3.42-7,6.8l-1.49,1.5c-.22.21-.43.43-.64.65l-.83.83h0q-1.68,1.71-3.27,3.41l-1.12,1.19q-2.67,2.85-5.13,5.64c-.43.48-.85.95-1.26,1.43l0,.06c-.32.36-.63.71-.93,1.07s-.56.65-.83,1q-.87,1-1.71,2c-.57.67-1.12,1.33-1.66,2l-1.25,1.53-2,2.48-1.17,1.49c-.67.85-1.31,1.69-2,2.52l-1.29,1.71-1.3,1.74-1.27,1.75c-.76,1.06-1.51,2.1-2.23,3.13-.5.7-1,1.4-1.44,2.08-.21.32-.43.63-.65,1l-1.56,2.34-.33.49-.72,1.1c-.19.31-.39.61-.58.91l-.43.66c-.12.2-.25.39-.37.58l-.57.91c0,.08-.09.16-.14.23-.27.42-.53.83-.77,1.24l-.87,1.42c-.12.21-.25.41-.36.61l-.37.61c-.19.31-.37.62-.55.93l-1.08,1.85-.36.63-.59,1c-.31.56-.61,1.09-.89,1.61h0l-.14.26-.28.51c-.1.2-.21.39-.31.58l-.11.2-.39.74-.33.63a.59.59,0,0,0,0,.08l-.31.58c-.08.16-.16.31-.23.46l-.15.29-.54,1.08-.13.26c-.05.09-.09.18-.13.26l0,0c0,.12-.11.23-.16.34s-.23.46-.33.68l-.18.37-.35.72a.72.72,0,0,1-.09.2l-.06.14c0,.08-.07.16-.11.23l0,.08c-.1.2-.18.39-.26.56s0,.11-.07.16l-.24.54-.23.54c-.48-.69-1-1.39-1.4-2.1-.29-.43-.55-.85-.81-1.28l0-.06c-.12-.19-.23-.38-.34-.57l-.19-.32c-.26-.45-.53-.9-.78-1.35s-.64-1.16-.94-1.74-.55-1.05-.81-1.58-.58-1.22-.86-1.84-.49-1.09-.71-1.63-.35-.82-.51-1.24-.33-.84-.49-1.26-.28-.74-.42-1.12c-.31-.89-.61-1.78-.89-2.67-.15-.45-.28-.9-.41-1.35-.27-.94-.51-1.87-.74-2.8-.11-.42-.21-.83-.3-1.24,0-.13-.06-.28-.09-.41-.09-.39-.18-.79-.26-1.18,0,0,0-.07,0-.11-.1-.49-.19-1-.28-1.46s-.17-1-.25-1.47c-.27-1.63-.48-3.26-.64-4.87v0c-.11-1.07-.19-2.14-.25-3.2a89.47,89.47,0,0,1,.71-17.14v0c-.19-.31-.38-.62-.55-.95l0-.06q-.23-.41-.42-.84a9.19,9.19,0,0,1-.38-.85c-.09-.21-.18-.43-.26-.65a.08.08,0,0,1,0,0h0c-.15-.38-.29-.77-.42-1.16s-.18-.56-.25-.84-.17-.59-.25-.89c0-.06,0-.12-.05-.18-.18-.72-.34-1.46-.47-2.2h0c-.69-.42-1.37-.84-2-1.27s-1.34-.86-2-1.3c-1.17-.77-2.31-1.56-3.42-2.38-.38-.26-.77-.54-1.14-.82l-1.08-.8L48,352c-.53-.4-1-.81-1.56-1.22l-1.53-1.23-1.36-1.13a118.25,118.25,0,0,1-10.28-9.83c-.37-.39-.73-.78-1.08-1.18s-.83-.91-1.24-1.38l-.84-1c-.38-.43-.75-.87-1.11-1.31s-.58-.69-.86-1c-.72-.87-1.41-1.75-2.08-2.62-.45-.58-.88-1.15-1.31-1.72-.65-.87-1.28-1.74-1.88-2.6s-1.05-1.51-1.55-2.25-1-1.48-1.45-2.21l-.69-1.08-1.31-2.12h0c-.37-.62-.72-1.22-1.06-1.82.09-.31.2-.63.3-1,3.36-10.18,13.22-28.95,17.63-34.11,10.2-12.59,21.93-26.72,43.08-49.17,3-3.16,6.15-6.49,9.53-10l3.51-3.64,1.43-1.47c.17-.16.33-.33.49-.5q3.07,4,6.51,7.83l0,0c14.18,15.9,32.74,30.25,52.18,43.17a1.07,1.07,0,0,0,.22.15C168.08,278.42,185.07,288.28,200.58,297.21Z" />
        <path class="BUNTAI_WALRUS_OUTFIT_BUNTAI_WALRUS_OUTFIT-39_cls-10" d="M344.05,220.67c-.52.75-1.07,1.51-1.61,2.27s-1.3,1.78-2,2.67l-.06.07c-.67.89-1.34,1.77-2,2.65Q334,233.91,329,239.2c-.93,1-1.87,2-2.83,3l-.12.11c-1,1-2,2-3,3s-2,2-3.1,3-2.34,2.2-3.53,3.27a4.77,4.77,0,0,1-.54.48c-.83.77-1.67,1.52-2.51,2.24-.41.39-.83.75-1.24,1.11-1.13,1-2.26,1.95-3.41,2.9-1.45,1.25-2.92,2.45-4.4,3.63-1,.82-2,1.61-3,2.41l-.72.56c-1.25,1-2.51,2-3.77,2.91s-2.72,2-4.09,3.06c-1,.75-2.06,1.5-3.1,2.24-4.71,3.4-9.53,6.7-14.39,9.91q-1.49,1-3,1.95l-1.28.83q-1.85,1.2-3.71,2.37c-1.41.89-2.81,1.79-4.21,2.65l-1.26.79q-3.72,2.28-7.45,4.55l-.42.25-2.69,1.6c-1,.6-2,1.21-3,1.8s-2,1.19-3,1.77l-3.12,1.82c-2,1.14-3.92,2.27-5.87,3.38-25.78,14.8-49.91,27.59-66.24,39.52-1.21.89-2.42,1.78-3.59,2.67-.76.55-1.5,1.12-2.22,1.69l-2.2,1.69-2.39,1.88c-.92.74-1.83,1.47-2.72,2.21s-1.6,1.28-2.37,1.95-1.6,1.32-2.39,2-1.55,1.32-2.32,2-1.53,1.31-2.26,2c-1.5,1.32-2.95,2.64-4.37,4-.71.65-1.42,1.3-2.1,2s-1.38,1.3-2,2c-2,1.95-4,3.89-5.83,5.8l-.36.37c-1.33,1.37-2.64,2.73-3.89,4.09-.63.67-1.24,1.35-1.85,2l-.66.73c-4.55,5-8.55,9.9-12.06,14.5-.22.3-.45.59-.68.88-4.47,5.93-8.16,11.43-11.14,16.32-.43.68-.83,1.36-1.22,2a139.84,139.84,0,0,0-8.56,16.69c-.14.34-.28.65-.39,1s-.24.58-.34.85-.2.5-.29.73-.26.7-.36,1a1.74,1.74,0,0,0-.11.32l-.18.49a.58.58,0,0,0,0,.1l0,.07,0,0" />
        <path class="BUNTAI_WALRUS_OUTFIT_BUNTAI_WALRUS_OUTFIT-39_cls-10" d="M73,421.68v0c.33-.78,21.5-52,85.11-98.42,11.16-8.16,26-16.7,42.45-26,8.38-4.75,17.22-9.7,26.22-14.9,38.38-22.11,78.32-46.92,103-81.79" />
        <path class="BUNTAI_WALRUS_OUTFIT_BUNTAI_WALRUS_OUTFIT-39_cls-10" d="M200.58,297.21c-37-21.29-82.37-47.9-107.79-80.84A39.18,39.18,0,0,1,96,213" />
        <path class="BUNTAI_WALRUS_OUTFIT_BUNTAI_WALRUS_OUTFIT-39_cls-10" d="M116.64,195c28.48,38.77,68.57,63.85,110.17,87.34" />
        <polyline class="BUNTAI_WALRUS_OUTFIT_BUNTAI_WALRUS_OUTFIT-39_cls-10" points="329.82 200.52 338.13 210.36 344.05 220.67" />
        <polyline class="BUNTAI_WALRUS_OUTFIT_BUNTAI_WALRUS_OUTFIT-39_cls-10" points="116.63 194.97 105.94 201.92 95.96 212.98 95.96 212.99" />
        <path class="BUNTAI_WALRUS_OUTFIT_BUNTAI_WALRUS_OUTFIT-39_cls-10" d="M1.29,356h0c.09.12.19.23.29.35l.83,1c.86,1,1.74,2,2.65,3,.45.5.9,1,1.37,1.48s.91,1,1.39,1.46.94,1,1.42,1.44l1.2,1.17c.14.15.29.29.44.43l.48.46.25.23.29.26q1,.94,2,1.86c.37.33.75.67,1.14,1,.09.08.19.17.3.25.46.4.92.79,1.39,1.17q2.36,2,4.83,3.78c.55.41,1.1.81,1.66,1.2s1.08.76,1.63,1.13c1.16.79,2.34,1.56,3.54,2.3.57.36,1.15.71,1.73,1s1.15.68,1.74,1l.09,0c.51.3,1,.58,1.56.86l.34.19c.45.24.9.48,1.36.71.83.44,1.67.85,2.51,1.25l.34.17q.68.33,1.35.63c.46.22.94.42,1.41.63h.05l.21.08c.88.39,1.77.76,2.66,1.12l1.66.64,2.2.8c.74.26,1.48.5,2.23.74s1.41.45,2.13.65l.28.09,2.1.58a.7.7,0,0,1,.14,0c.46.13.93.25,1.4.36l1.5.36c.64.15,1.29.29,1.94.42l1.1.21.51.1.26,0,.25,0" />
        <path class="BUNTAI_WALRUS_OUTFIT_BUNTAI_WALRUS_OUTFIT-39_cls-10" d="M92.78,216.37c-.16.17-.32.34-.49.5l-1.43,1.47L87.35,222c-3.38,3.51-6.54,6.84-9.53,10-21.15,22.45-32.88,36.58-43.08,49.17" />
        <path class="BUNTAI_WALRUS_OUTFIT_BUNTAI_WALRUS_OUTFIT-39_cls-10" d="M16.8,316.24l.53.88c.17.31.35.61.54.92h0c.42.7.85,1.41,1.31,2.12q.33.54.69,1.08c.46.73.94,1.47,1.45,2.21s1,1.49,1.55,2.25,1.23,1.73,1.88,2.6c.43.57.86,1.15,1.31,1.72.67.87,1.36,1.75,2.08,2.62.28.35.56.69.86,1s.73.88,1.11,1.31.56.65.84,1,.82.93,1.24,1.38.71.79,1.08,1.18a118.25,118.25,0,0,0,10.28,9.83l1.36,1.13,1.53,1.23c.51.41,1,.82,1.56,1.22l.53.4,1.08.81c.37.28.76.56,1.14.82,1.11.82,2.25,1.61,3.42,2.38.66.44,1.32.88,2,1.3s1.35.86,2,1.28" />
        <path class="BUNTAI_WALRUS_OUTFIT_BUNTAI_WALRUS_OUTFIT-39_cls-10" d="M342.44,222.94l.59.67,1.18,1.34c.84,1,1.67,2,2.5,2.9h0" />
        <path class="BUNTAI_WALRUS_OUTFIT_BUNTAI_WALRUS_OUTFIT-39_cls-10" d="M394.61,275.77h0" />
        <path class="BUNTAI_WALRUS_OUTFIT_BUNTAI_WALRUS_OUTFIT-39_cls-10" d="M420,360.05A140.52,140.52,0,0,1,376.29,392h0" />
        <path class="BUNTAI_WALRUS_OUTFIT_BUNTAI_WALRUS_OUTFIT-39_cls-10" d="M390.72,272.3l3.89,3.45" />
        <path class="BUNTAI_WALRUS_OUTFIT_BUNTAI_WALRUS_OUTFIT-39_cls-10" d="M379.83,355.65c1.93-1.48,3.78-3,5.54-4.56.88-.78,1.75-1.57,2.59-2.36a119.27,119.27,0,0,0,22.58-29.47h0" />
        <path class="BUNTAI_WALRUS_OUTFIT_BUNTAI_WALRUS_OUTFIT-39_cls-10" d="M61.32,367.62a116.78,116.78,0,0,1,13-39.32" />
        <path class="BUNTAI_WALRUS_OUTFIT_BUNTAI_WALRUS_OUTFIT-39_cls-10" d="M61.32,367.64a85.91,85.91,0,0,0,.18,25.24c.16,1,.34,2,.54,2.93.07.43.17.86.27,1.29,0,.13,0,.28.09.41.09.41.19.82.3,1.24s.23.91.34,1.37a.25.25,0,0,1,0,.07c.24.91.51,1.81.79,2.71.53,1.69,1.12,3.38,1.8,5.05.16.42.34.83.51,1.24s.47,1.09.72,1.63a65.66,65.66,0,0,0,3.57,6.83c.24.41.48.81.74,1.21.58.94,1.2,1.88,1.84,2.81h0a80.17,80.17,0,0,0,18,18.46c2.13,1.65,4.4,3.23,6.82,4.77a38.41,38.41,0,0,0,4.77,2.6l.13.08a84.92,84.92,0,0,0,10.37,4c.58.18,1.16.36,1.76.53l.1,0c.68.2,1.36.4,2.07.59.37.11.75.2,1.13.3,2,.53,4.17,1,6.48,1.51,1,.2,2.1.41,3.2.6,2.77.48,5.73.9,8.88,1.23l.73.07,1.88.17,3,.23,1.55.08,1,0,1.41.06a174.2,174.2,0,0,0,31.09-1.76q3.25-.48,6.38-.88,3-.42,5.83-.76,8.61-1.08,16.3-1.8c2.91-.29,5.72-.53,8.42-.75a383.82,383.82,0,0,1,58-.51c26.08,1.67,40.51,4.35,67.43-5.72,15.66-10,25.29-21.7,30.84-33.76A70.32,70.32,0,0,0,376.27,392c.08-.5.15-1,.21-1.51s.12-.9.15-1.33a1.46,1.46,0,0,0,0-.22c0-.35.06-.68.1-1s.06-.61.09-.92c.06-.69.11-1.39.16-2.08s.05-1.17.08-1.75,0-1.12.05-1.67v-.23c0-.43,0-.84,0-1.24a92.05,92.05,0,0,0-.85-12.37,116.66,116.66,0,0,0-12.94-39.34" />
        <path class="BUNTAI_WALRUS_OUTFIT_BUNTAI_WALRUS_OUTFIT-39_cls-10" d="M58.56,339s-2,10.43-.33,19.93a24.49,24.49,0,0,0,3.09,8.68h0a0,0,0,0,1,0,0" />
        <path class="BUNTAI_WALRUS_OUTFIT_BUNTAI_WALRUS_OUTFIT-39_cls-10" d="M379.06,339a65.72,65.72,0,0,1,.77,16.64,27.76,27.76,0,0,1-3.53,12" />
        <path class="BUNTAI_WALRUS_OUTFIT_BUNTAI_WALRUS_OUTFIT-39_cls-10" d="M391.82,264.28l-4.53,2.41c-.57.32-1.13.65-1.72,1-24.7,15.18-64.61,65.07-78.21,83.44-7.3,9.86-15.75,15.73-23.77,16.51a14.82,14.82,0,0,1-11.53-3.41c-2.54-2.26-4-5.8-4-10-.1-7.22,3.72-14.95,10.43-21.22,31.55-27.83,59.05-69.5,65-80.74a156.56,156.56,0,0,0,8.39-18.65l2.25-6.5" />
        <path class="BUNTAI_WALRUS_OUTFIT_BUNTAI_WALRUS_OUTFIT-39_cls-10" d="M346.73,227.86v0a138.9,138.9,0,0,1-9.3,21.48c-6.58,12.45-33.7,52.61-63.6,78.94-13.85,12.88-15.86,30-7.92,39.15a16.28,16.28,0,0,0,1.54,1.57,18.69,18.69,0,0,0,2.44,1.86c10.22,6.57,27.7,4.67,43-16,16.59-22.4,56-70.28,77.84-82.61" />
        <path class="BUNTAI_WALRUS_OUTFIT_BUNTAI_WALRUS_OUTFIT-39_cls-10" d="M344.21,225s4.72-4,9.9,2.2a21.79,21.79,0,0,1,1.63,2.31,95.51,95.51,0,0,0,8.52,11.8A71.57,71.57,0,0,0,377.76,254c.78.54,1.55,1,2.34,1.49,4.45,2.61,8.82,5.5,11.72,8.8s4.41,7.18,2.79,11.47v0" />
        <path class="BUNTAI_WALRUS_OUTFIT_BUNTAI_WALRUS_OUTFIT-39_cls-10" d="M377.76,254a9,9,0,0,0,3.78-7.32,9.39,9.39,0,0,0-9.57-9.19,9.64,9.64,0,0,0-7.71,3.78" />
        <path class="BUNTAI_WALRUS_OUTFIT_BUNTAI_WALRUS_OUTFIT-39_cls-10" d="M291.35,352.21a7.53,7.53,0,1,1-7.52-7.22A7.37,7.37,0,0,1,291.35,352.21Z" />
        <path class="BUNTAI_WALRUS_OUTFIT_BUNTAI_WALRUS_OUTFIT-39_cls-10" d="M301,335.21a3.35,3.35,0,1,1-3.34-3.23A3.27,3.27,0,0,1,301,335.21Z" />
        <path class="BUNTAI_WALRUS_OUTFIT_BUNTAI_WALRUS_OUTFIT-39_cls-10" d="M313.81,321.54a3.36,3.36,0,1,1-3.35-3.22A3.29,3.29,0,0,1,313.81,321.54Z" />
        <path class="BUNTAI_WALRUS_OUTFIT_BUNTAI_WALRUS_OUTFIT-39_cls-10" d="M344.1,285.73a3.36,3.36,0,1,1-3.44-3.13A3.29,3.29,0,0,1,344.1,285.73Z" />
        <path class="BUNTAI_WALRUS_OUTFIT_BUNTAI_WALRUS_OUTFIT-39_cls-10" d="M368.3,257.05a3.3,3.3,0,0,1-3.27,3.3,3.33,3.33,0,0,1-3.44-3.14,3.36,3.36,0,0,1,6.71-.16Z" />
        <path class="BUNTAI_WALRUS_OUTFIT_BUNTAI_WALRUS_OUTFIT-39_cls-10" d="M356.54,271.74a3.35,3.35,0,1,1-3.44-3.13A3.28,3.28,0,0,1,356.54,271.74Z" />
        <path class="BUNTAI_WALRUS_OUTFIT_BUNTAI_WALRUS_OUTFIT-39_cls-10" d="M333.52,304.18A7.53,7.53,0,1,1,326,297,7.4,7.4,0,0,1,333.52,304.18Z" />
        <path class="BUNTAI_WALRUS_OUTFIT_BUNTAI_WALRUS_OUTFIT-39_cls-10" d="M259.82,374.51a9.76,9.76,0,0,0-3.63-.56c-7.22.23-16.3,7.87-22.41,15-7.56,8.75-14,20.75-9.79,27.39l0,.06" />
        <path class="BUNTAI_WALRUS_OUTFIT_BUNTAI_WALRUS_OUTFIT-39_cls-10" d="M264,377.77c1.54,2.39,2.2,6.27-.33,12.45A57.22,57.22,0,0,1,254.06,405c-6.11,7.08-15.19,14.72-22.4,14.95a9.61,9.61,0,0,1-3.46-.5" />
        <path class="BUNTAI_WALRUS_OUTFIT_BUNTAI_WALRUS_OUTFIT-39_cls-10" d="M255.53,379.47c-4.26.69-11.15,5.64-17.4,12.89s-10,15.12-10,19.28" />
        <path class="BUNTAI_WALRUS_OUTFIT_BUNTAI_WALRUS_OUTFIT-39_cls-10" d="M259.68,382.74c.08,4.16-3.72,11.59-10,18.84s-13.13,12.2-17.4,12.89" />
        <path class="BUNTAI_WALRUS_OUTFIT_BUNTAI_WALRUS_OUTFIT-39_cls-10" d="M265.91,367.45l-6.09,7.06-4.29,5-1.72,2a2.51,2.51,0,0,0,.34,3.62,2.76,2.76,0,0,0,3.77-.34l1.76-2,4.28-5,5.93-6.89" />
        <path class="BUNTAI_WALRUS_OUTFIT_BUNTAI_WALRUS_OUTFIT-39_cls-10" d="M220.61,428.28l-1.71,2a2.75,2.75,0,0,1-3.75.33v0a2.5,2.5,0,0,1-.36-3.6l1.77-2.07,4.3-5L224,416.3l3.59-4.16a2.27,2.27,0,0,1,.58-.5,2.77,2.77,0,0,1,3.16.15l0,0a2.47,2.47,0,0,1,.86,2.62,2.39,2.39,0,0,1-.52,1l-3.49,4.07L225,423.25Z" />
        <path class="BUNTAI_WALRUS_OUTFIT_BUNTAI_WALRUS_OUTFIT-39_cls-10" d="M220.85,419.93a10,10,0,0,0-3.72-.6c-7.22.22-16.31,7.87-22.41,14.95-5.27,6.12-10,13.82-10.91,20.17" />
        <path class="BUNTAI_WALRUS_OUTFIT_BUNTAI_WALRUS_OUTFIT-39_cls-10" d="M225,423.25c1.5,2.39,2.12,6.25-.38,12.36A57.22,57.22,0,0,1,215,450.43l-.63.7" />
        <path class="BUNTAI_WALRUS_OUTFIT_BUNTAI_WALRUS_OUTFIT-39_cls-10" d="M216.47,424.84c-4.27.7-11.16,5.64-17.4,12.89-4.85,5.64-8.21,11.63-9.44,16" />
        <path class="BUNTAI_WALRUS_OUTFIT_BUNTAI_WALRUS_OUTFIT-39_cls-10" d="M220.61,428.11v.17c0,4.19-3.79,11.53-10,18.68a67.79,67.79,0,0,1-4.71,4.93" />
        <g class="BUNTAI_WALRUS_OUTFIT_BUNTAI_WALRUS_OUTFIT-39_cls-11">
          <path d="M268.06,334.81s-37.3,8.39-65,16.24-55.13,28.42-55.13,28.42,30.29-4.56,52.67-14.38S254.08,348,254.08,348l9.64-3A18.63,18.63,0,0,1,268.06,334.81Z" />
          <path d="M213.28,368.73s24.15-.45,36.64-1.28,13.58,0,13.58,0l1.32-.36v1.63l-3.28,2.82s-16.3.21-31.64,0-37.32,0-35.93.09S213.28,368.73,213.28,368.73Z" />
          <path d="M66.73,303.07s-11.57,47.74-6.11,65.65l-12.73-24.4s2.41,24,0,28.62-7,13.65-7,13.65,14.42,5.64,19.59,6.1c6.26,17.83,20.29,52.34,61,61.76,26.08,4.79,49.35,1.61,62.3,0-47.83-15.21-57.48-69.72-57.48-69.72l-4.07-30.9S82.29,345.37,66.73,303.07Z" />
          <path d="M53.51,374l-8,14.38-.07.12-.12.21a74.22,74.22,0,0,1-7.22-3.33l-.34-.17a129.8,129.8,0,0,1-25.86-17.81l-.29-.26-.25-.23A98.15,98.15,0,0,1,1.19,356.27c0-.07.07-.15.1-.23h0c3.16-6.7,6.16-13.8,8.68-20.23a80.91,80.91,0,0,0,16.36,17.52L48.6,370.22Z" />
          <path d="M215,289l-14.46,8.18-1.27.72s-49.83-29-74.44-51.09c-11.9-10.68-26.22-22.18-32.57-30l.49-.5c1.76-1.76,2.2-2.43,3.17-3.38h0l10-11.06h0s14.84,23.91,42,47.79S215,289,215,289Z" />
          <path d="M342.44,222.94l.59.67A208.72,208.72,0,0,1,327,241.56q-3.33,3.36-7,6.72a2.82,2.82,0,0,1-.36.33c-16.31,15-37.64,30.41-64.38,47l-.86.53-.42.25q-20.61,12.74-45.53,26.47A371.6,371.6,0,0,0,133.19,378l-.36.37c-2.57,2.45-4.74,4.62-6.48,6.4-3.47,3.56-5.27,5.62-5.27,5.62l-.88-9.06s.75-2.33,4.7-7.47c4.28-5.59,12.34-14.52,27.29-27.47,28.71-24.85,59.38-41.88,109.12-71.77,36.84-22.13,64.8-50.87,76.82-64.29l5.92,10.31C343.53,221.42,343,222.18,342.44,222.94Z" />
          <path d="M314.56,294.23s-10.08,20.58-4.83,32.18,29.78-15,29.78-15l1.23,7.73s-25.41,44.34-46.94,52.33-30.05-.6-32.26-12,.21-18.59,15.22-33a275.26,275.26,0,0,0,24-25.93C301.43,299.74,314.56,294.23,314.56,294.23Z" />
          <path d="M388.65,261.26a176.27,176.27,0,0,1-20.35-7.35c-11.24-5-15.11-10.9-15.11-10.9s6.06,9.57,13.37,14.12a58.55,58.55,0,0,0,14.17,6.37l4.23,3,4.75-1.76Z" />
          <path d="M420,360.05A140.52,140.52,0,0,1,376.29,392c.08-.5.14-1,.19-1.5s.13-1,.18-1.55c0-.17,0-.34,0-.51l.12-1.54c.16-2,.25-3.91.3-5.62,0-.43,0-.84,0-1.24.07-3.23,0-5.43,0-5.43s15.63-6.07,32.06-24.21a85.42,85.42,0,0,0,6.12-7.65C416.64,348.57,418.15,354.56,420,360.05Z" />
          <path d="M366.27,332s8.75,21.18,10.87,36.75a95.67,95.67,0,0,0-.84-46.3c1.65,13.75,0,29.78,0,29.78S373.86,339.85,366.27,332Z" />
          <path d="M370.6,411.15c-5.55,12.06-15.18,23.77-30.84,33.76-26.92,10.07-41.35,7.39-67.43,5.72h0s58.74.19,80.21-31c21.12-30.73,11-61.49,10.67-62.44A115.88,115.88,0,0,1,370.6,411.15Z" />
        </g>
        <path class="BUNTAI_WALRUS_OUTFIT_BUNTAI_WALRUS_OUTFIT-39_cls-10" d="M420,360.05c-1.8-5.49-3.31-11.48-4.62-17.32-2-9-3.52-17.58-4.79-23.47h0c-.39-1.84-.76-3.41-1.11-4.65-3-10.7-14.4-37.84-14.81-38.82h0v0" />
        <path class="BUNTAI_WALRUS_OUTFIT_BUNTAI_WALRUS_OUTFIT-39_cls-10" d="M34.74,281.15c-4.41,5.16-14.27,23.93-17.63,34.11-.1.33-.21.65-.3,1v0c-.13.41-.24.81-.35,1.18C15.36,321.27,13,328,10,335.8h0C7.46,342.24,4.46,349.34,1.3,356h0c0,.08-.07.16-.1.23" />
      </g>
    </g>
  </g>
</svg>