<svg xmlns="http://www.w3.org/2000/svg" xmlns:xlink="http://www.w3.org/1999/xlink" viewBox="0 0 432 432">
  <defs>
    <style>.BUNTAI_WALRUS_OUTFIT_BUNTAI_WALRUS_OUTFIT-55_cls-1,.BUNTAI_WALRUS_OUTFIT_BUNTAI_WALRUS_OUTFIT-55_cls-6{fill:none;}.BUNTAI_WALRUS_OUTFIT_BUNTAI_WALRUS_OUTFIT-55_cls-2{isolation:isolate;}.BUNTAI_WALRUS_OUTFIT_BUNTAI_WALRUS_OUTFIT-55_cls-3{clip-path:url(#BUNTAI_WALRUS_OUTFIT_BUNTAI_WALRUS_OUTFIT-55_clip-path);}.BUNTAI_WALRUS_OUTFIT_BUNTAI_WALRUS_OUTFIT-55_cls-4{fill:#fff8f5;}.BUNTAI_WALRUS_OUTFIT_BUNTAI_WALRUS_OUTFIT-55_cls-5{fill:#23567a;}.BUNTAI_WALRUS_OUTFIT_BUNTAI_WALRUS_OUTFIT-55_cls-6{stroke:#000;stroke-linecap:round;stroke-linejoin:round;stroke-width:2.53px;}.BUNTAI_WALRUS_OUTFIT_BUNTAI_WALRUS_OUTFIT-55_cls-7{opacity:0.43;mix-blend-mode:multiply;}</style>
    <clipPath id="clip-path">
      <path class="BUNTAI_WALRUS_OUTFIT_BUNTAI_WALRUS_OUTFIT-55_cls-1" d="M-6.89-3.42v441H443.29v-441Zm321.36,270.9a.93.93,0,0,1-.59.21,1,1,0,0,1-.68-.28,25,25,0,0,1-4.38-6.56c-.48,8.51-1.27,18.22-2.5,23.12a1,1,0,0,1-.94.73h-.14a1,1,0,0,1-.82-1c.07-2.06.16-5.08.18-8.62a52.61,52.61,0,0,1-2,7.72c.07,6.19-.69,7.94-.77,8.12a1,1,0,0,1-.87.54h-.08a1,1,0,0,1-.85-.7,54.24,54.24,0,0,0-6.15-12.86l-3.59-2.16c-.63,3-1.3,6-2,9-.37,17.11-1,41.18-1.77,58.86a198.36,198.36,0,0,1-5.17,36.19.05.05,0,0,1,0,0c-.08.38-.18.76-.26,1.14l-.41,1.62c-3.93,16-10.43,33.75-13.44,33.75-2.42,0-2.54-1.74-3.05-9.06l-.4-5.52a1.11,1.11,0,0,1,0-.17c-.41-5.35-1-11.16-1.7-17.67-.1-.94-.21-2-.32-3l-.05-.53c-.07-.67-.13-1.37-.2-2.08l-.09-1c0-.43-.08-.86-.12-1.31l-.13-1.46c-.39-4.49-.8-9.82-1.22-15.86l-.22-3.14c0-.12,0-.18,0-.23-.25-3.7-.51-7.61-.76-11.61l-.18-2.88c-.19-2.91-.37-5.86-.54-8.83-.07-.94-.12-1.9-.18-2.86v-.25c-.38-6.48-.75-13-1.1-19.21l.95-.17-1,.06c0-.06,0-.12,0-.17a.86.86,0,0,1,0-.16s0-.09,0-.13v-.26c0-.14,0-.24,0-.31s0-.27,0-.42V308l0-.5a.66.66,0,0,1,0-.14c0-.17,0-.43,0-.68l0-.52c-.31-5.66-.6-11.06-.86-16l-.14-2.64c-.21-4-.4-7.7-.55-10.89l-.17-3.36c-.29-5.9-.46-9.45-.46-9.45l-.54-9.16a18.64,18.64,0,0,1-2.21,1.44l-.07,0h0a22.3,22.3,0,0,1-7.52,2.43,29,29,0,0,1-3.94.27,30.26,30.26,0,0,1-9.77-1.58l-.08,0a24.67,24.67,0,0,1-8.79-5.1l-.24.19-.44.34-.16.13-.09.06-.06,0-.71.52c-.08,4.76-.19,10.72-.33,17.42l-.08,4.11c-.06,3.41-.14,7-.22,10.61l-.06,2.58c0,1.1,0,2.2-.07,3.32-.12,5-.25,10.12-.38,15.18l-.1,3.69c-.17,6.26-.36,12.44-.56,18.29,0,.56,0,1.13-.05,1.69l-.12,3.41c0,.84-.06,1.67-.1,2.49l-.2,5c0,.75-.06,1.48-.1,2.2v.14c-.17,3.75-.41,7.42-.73,11,0,.37-.06.74-.1,1.1s-.05.7-.09,1.07a2.11,2.11,0,0,0,0,.32c-.06.58-.11,1.09-.17,1.61-.08.8-.16,1.61-.26,2.42-.31,2.82-.68,5.73-1.13,8.86a4.19,4.19,0,0,1-.08.56c-.11.76-.22,1.53-.34,2.28-.23,1.51-.46,3-.71,4.46l-.06.34c-.17,1-.34,2-.52,3-2.79,15.6-6.23,27.62-8.42,32.6-1,2.35-1.75,3.22-2.66,3.22-1.33,0-2.41-.74-3.31-2.28a7.16,7.16,0,0,1-.35-.66,27.35,27.35,0,0,1-1.67-4.87.19.19,0,0,0,0-.07c-.11-.48-.23-1-.36-1.52l.91-.34-.93.24s0-.1,0-.11c0-.19-.08-.41-.13-.62C195.21,401,194.14,393.76,193,384l-.08-.71c-.06-.55-.12-1.11-.17-1.68s-.11-1-.16-1.51a.53.53,0,0,1,0-.15c-.54-5.39-1.1-12.27-1.73-21.12,0-.26,0-.49,0-.72-.06-.83-.12-1.65-.17-2.48l0-.38c-.09-1.2-.17-2.44-.25-3.68,0-.31,0-.65-.07-1q-.21-3-.4-6.07l-.15-2.29c-.05-.72-.09-1.43-.13-2.12,0-.49-.07-1-.1-1.53l-.12-1.91a1.68,1.68,0,0,1,0-.2c0-.08,0-.25,0-.4s0-.4,0-.64c0-.51-.08-1.05-.11-1.59l0-.75c-.08-1.25-.16-2.52-.23-3.78,0-.59-.08-1.21-.12-1.82-.21-3.73-.43-7.47-.64-11.15-.06-1-.12-2.06-.17-3.09-.13-2.16-.25-4.31-.36-6.42-.05-.81-.09-1.6-.14-2.4l0-.81c-.17-3.1-.33-6.14-.48-9.05l-.08-1.45c-.06-1.22-.13-2.41-.18-3.57l-.08-1.39-.09-1.76,0-.73c-.05-.92-.09-1.82-.13-2.7,0-.47,0-.93-.07-1.4a1.47,1.47,0,0,1,0-.27l-.19-3.82v-.11l-.23-4.78c0-.32,0-.61,0-.91l0-.79-1.43.58-1.34.51a3.05,3.05,0,0,1-.29.11l-.25.09-1,.36-.18.07-.29.1-.22.07-.15,0-.13.05-.1,0-.27.08h0l0,0-.11,0-.23.06h0l-.33.11h0l-.23.08a.88.88,0,0,1-.15,0l-.26.07-.16,0-.24.08-.13,0h0l-11,4.43a47.92,47.92,0,0,0-9.2,12.85,1,1,0,0,1-.78.58h-.11a1,1,0,0,1-.78-.4c-.22-.3-1.29-2.1-1.2-8.19a49,49,0,0,1-4-11.39c0,5.08.13,9.48.28,12.2a1,1,0,0,1-.76,1l-.2,0a1,1,0,0,1-.9-.63c-1.93-5.15-3.14-15.57-3.85-24.38a34.29,34.29,0,0,1-3.65,4.62,22.51,22.51,0,0,1-3.76,3.21.91.91,0,0,1-.54.17,1,1,0,0,1-.73-.33,1,1,0,0,1,0-1.28,17.85,17.85,0,0,0,2.82-4.47v0c4.09-8.93,3.82-22.41,3.7-28.16v-.53a26.44,26.44,0,0,1,3.94-13.81,83.21,83.21,0,0,1,3.71-15.81l-.09-.17a1,1,0,0,1-.13-.47,1,1,0,0,1,.82-.94,2.44,2.44,0,0,0,.1-.24,14.72,14.72,0,0,1,3-4.29c.08-.27.16-.55.24-.85l.32-1c.27-.88.57-1.81.89-2.72s.66-1.77,1-2.5l.13-.27c.06-.14.12-.26.18-.38v0c0-.16,0-.33,0-.49a1.1,1.1,0,0,1,0-.18c-.1-1.55-.17-3.3-.21-5.56v-1.34c0-1.76,0-3.7,0-5.84v-.25c0-.4,0-.78,0-1.17v-.47c0-1.34,0-2.51-.12-3.58s-.19-2.12-.35-3.13c0,0,0-.1,0-.12-.18-1.18-.4-2.35-.69-3.72-.14-.63-.27-1.25-.41-1.87a1.42,1.42,0,0,1,0-.2l-.23-1.1s0-.1,0-.11v0a1.13,1.13,0,0,1,0-.18v0a.7.7,0,0,1,0-.14l-.19-1s0,0,0-.06a44.1,44.1,0,0,1-.64-5.67l0-.67c-.05-1.73,0-3.5.12-5.42.51-7.72,3.1-13.73,8.15-18.92.23-.24.48-.49.73-.73a52.12,52.12,0,0,1,8.85-6.71,31.48,31.48,0,0,1,5.13-9.79,1.46,1.46,0,0,1,.15-.2,31.86,31.86,0,0,1,10.58-8.9c15.19-7.94,35.31-16.16,56.36-9.18l3.7.51c15.92,2.16,28.48,3.87,36,17.3a37.94,37.94,0,0,1,2.32,4.9l.19.16q.41.34.81.72l0,0,0,0c.58.52,1.18,1,1.76,1.58a82,82,0,0,1,7.67,7.88c.26.32.47.58.66.83s.42.53.61.79l.21.29c.11.17.23.33.33.49a14.06,14.06,0,0,1,.89,1.47l.12.21c3.22,6.08,4.55,8.6,3.49,24.53,0,.55-.07,1.1-.1,1.64s-.07,1.07-.09,1.6-.06,1-.09,1.55v.05h0c-.06,1-.11,2-.16,3-.25,5.42-.4,10.79-.45,16,0,.6,0,1.2,0,1.8,0,2.15,0,4.26,0,6.31,0,1.33,0,2.62.06,3.9h0c0,1.3.06,2.59.1,3.84,0,.24,0,.45,0,.65a.92.92,0,0,1,0,.16c0,.23,0,.47,0,.69,0,.48,0,.9.05,1.32l0,.62a5.73,5.73,0,0,1,.38.62l0,.06.38.68a5.64,5.64,0,0,1,.26.55,1.17,1.17,0,0,1,.1.2c.06.14.12.26.17.4l.08.19c0,.09.1.25.16.4s.11.32.15.45.1.3.16.5.17.65.26,1l.12.46.13.55c.17.73.33,1.44.49,2.17.07.33.14.69.2,1,.11.53.19,1,.27,1.44a0,0,0,0,0,0,0,.09.09,0,0,0,0,.05c.05.27.1.56.14.83l0,.11v0c.1.55.19,1.11.27,1.66s.16,1.09.25,1.66.13.94.19,1.42a7.07,7.07,0,0,1,.09.72c.05.33.09.7.13,1.07l.06.47s0,.08,0,.12l.11.95v.11c.05.42.1.93.15,1.43l0,.29a36.27,36.27,0,0,1,2.62,13.71v.52c-.09,6.81-.33,24.89,4.39,32.82A1,1,0,0,1,314.47,267.48Z" />
    </clipPath>
  </defs>
  <g class="BUNTAI_WALRUS_OUTFIT_BUNTAI_WALRUS_OUTFIT-55_cls-2">
    <g id="outfit">
      <g class="BUNTAI_WALRUS_OUTFIT_BUNTAI_WALRUS_OUTFIT-55_cls-3">
        <path class="BUNTAI_WALRUS_OUTFIT_BUNTAI_WALRUS_OUTFIT-55_cls-4" d="M239.31,329.78c-5.31,7.06-10.9,14.38-16.71,21.79l-.42-.33c-2-1.52-4-3.11-6-4.74-14.74-12-29.89-26.37-41.64-38.06q-1.58-1.54-2.82-2.82c-7.89-7.93-13.92-14.29-16.75-17.31l-.11-.12-.68-.71a.07.07,0,0,1,0-.05l-.94-1h0c.25-.81.49-1.63.73-2.45s.4-1.42.58-2.13.37-1.44.55-2.16c.09-.36.18-.72.26-1.08.18-.74.34-1.49.5-2.24,0-.17.07-.34.11-.51s.07-.33.11-.5h0c.08-.4.16-.8.23-1.2s.14-.7.2-1.05.09-.46.13-.7l.27-1.55c.1-.57.19-1.14.28-1.72a.15.15,0,0,0,0-.07,1.57,1.57,0,0,0,0-.23c0-.28.09-.56.13-.85,0,0,0-.08,0-.13s0-.16,0-.24l0-.22,0-.24c0-.26.08-.53.11-.8.11-.74.2-1.49.29-2.24l.06-.48.15-1.24c0-.17,0-.34.05-.51,0-.39.09-.77.12-1.15,0-.17,0-.33,0-.49l.06-.59c.07-.74.14-1.47.2-2.2,0,0,7.38,7.68,18.17,18.28h0C194.25,292.92,220.77,317.78,239.31,329.78Z" />
        <path class="BUNTAI_WALRUS_OUTFIT_BUNTAI_WALRUS_OUTFIT-55_cls-4" d="M295.06,284h0c-.18.36-2.87,5.8-7.49,14.56a.08.08,0,0,1,0,0c-7.11,13.49-18.79,34.84-32.92,57.69a.21.21,0,0,0,0,.06l-.06.1c-7.44,12-15.55,24.45-24,36.37a3.55,3.55,0,0,0-.23.31,386.4,386.4,0,0,1-25.56,32.42l-.12.14c-4.34,4.87-8.7,9.4-13,13.49H150.85v-.43l-.9-.63-1-.75-.69-.53c-.29-.21-.57-.44-.85-.66q4.81-4.5,9.67-9.33h0c18-17.92,36.26-38.84,53.2-59.75.45-.54.89-1.09,1.32-1.63q5.63-7,11-13.87c5.81-7.41,11.4-14.73,16.71-21.79,10.09-13.44,19.18-26,26.8-36.82.77-1.08,1.51-2.14,2.24-3.18q1.65-2.34,3.19-4.56l2-2.88,1.91-2.76,2.67-3.88c7.8-11.38,12.3-18.28,12.3-18.28,0,.38.07.76.11,1.14,0,.56.1,1.12.16,1.68l.09.93c.09.84.18,1.68.29,2.52a1.94,1.94,0,0,0,0,.24q.19,1.56.42,3.12c.15,1.09.32,2.17.5,3.25.09.54.18,1.08.28,1.62l.12.68v0a.09.09,0,0,1,0,.05c0,.13.05.25.07.38.08.45.17.9.26,1.35l.12.63c.05.19.08.39.13.58.14.71.3,1.42.46,2.13s.28,1.22.43,1.82.24,1,.38,1.51c.17.7.36,1.4.56,2.1l.06.2s0,0,0,.05Z" />
        <path class="BUNTAI_WALRUS_OUTFIT_BUNTAI_WALRUS_OUTFIT-55_cls-4" d="M153.21,286.41s37.08,40.31,69.39,65.16c-23.16,29.57-49.67,60.7-75.23,84.58C106,403.63,120,336,142.43,307.81A66.4,66.4,0,0,0,153.21,286.41Z" />
        <path class="BUNTAI_WALRUS_OUTFIT_BUNTAI_WALRUS_OUTFIT-55_cls-4" d="M295.77,286.41c2.52,8,6,15.39,10.8,21.39,23,28.92,37.18,99.54-8.44,130.93v.42H191.53C242.06,391.56,295.06,284,295.06,284,295.28,284.78,295.52,285.6,295.77,286.41Z" />
        <path class="BUNTAI_WALRUS_OUTFIT_BUNTAI_WALRUS_OUTFIT-55_cls-5" d="M158.55,257.42c-.06.73-.13,1.46-.2,2.2l-.06.59c0,.16,0,.32,0,.49s-.05.51-.07.76-.07.6-.1.9l-.15,1.24-.06.48c-.09.75-.18,1.5-.29,2.24,0,.27-.07.54-.11.8,0,0,0,.08,0,.12a.49.49,0,0,1,0,.12l0,.22c0,.08,0,.16,0,.24s0,.09,0,.13c0,.29-.09.57-.13.85a1.57,1.57,0,0,1,0,.23.15.15,0,0,1,0,.07c-.09.58-.18,1.15-.28,1.72l-.27,1.55c0,.24-.09.47-.13.7s-.13.7-.2,1.05l-.24,1.19h0c0,.17-.06.34-.1.51s-.08.34-.11.51c-.07.35-.15.69-.23,1l-.06.27-.21.94c-.09.36-.17.72-.26,1.08-.18.72-.36,1.45-.55,2.16s-.39,1.42-.59,2.13-.47,1.64-.72,2.45h0a.06.06,0,0,0,0,0h0c0,.08-.05.15-.07.23-.1.29-.19.58-.28.87,0,.05,0,.1-.05.14l-.06.19-.12.34c-.08.25-.17.51-.26.76s-.12.37-.19.55l-.08.23c-.06.18-.13.35-.2.53s-.13.37-.2.55-.14.37-.21.55-.1.29-.16.43-.16.42-.25.63-.2.51-.31.76a1.34,1.34,0,0,1-.07.18c-.24.59-.49,1.17-.75,1.75a2.44,2.44,0,0,1-.1.24c-.17.37-.34.73-.5,1.09l-.06.12,0,.06,0,.06c-.08.18-.17.36-.26.54l-.28.58-.09.17-.09.17c-.07.15-.15.3-.23.45a1.51,1.51,0,0,1-.09.18c-.13.26-.26.51-.4.76l-.18.33h0l-.32.58-.36.65-.37.65,0,0c-.12.21-.25.42-.38.62s-.4.66-.61,1l-.15.24c-.13.21-.27.42-.41.63s-.45.67-.68,1c-.11.17-.23.33-.35.5l-.49.68c-.33.46-.68.91-1,1.35-.65.82-1.3,1.68-1.94,2.57l-.54.76,0,0c-.27.38-.53.76-.79,1.15s-.56.84-.84,1.28-.43.67-.64,1-.43.68-.64,1l-1,1.74c-.31.54-.62,1.09-.92,1.65-.09.16-.18.32-.26.48-.36.66-.71,1.32-1.05,2s-.59,1.15-.87,1.74c-.6,1.23-1.19,2.48-1.75,3.77-.27.62-.54,1.24-.8,1.87s-.47,1.13-.69,1.7c-.16.41-.33.82-.49,1.24s-.33.83-.48,1.25c-.27.7-.53,1.43-.78,2.15s-.51,1.44-.75,2.18h0c-.24.73-.48,1.47-.71,2.22s-.46,1.48-.68,2.23-.34,1.2-.5,1.8-.29,1.06-.42,1.59a2.17,2.17,0,0,0-.07.24c-.13.49-.25,1-.38,1.5l0,.15c-.2.78-.38,1.58-.56,2.38a.36.36,0,0,0,0,.1l-.33,1.51c-.12.6-.25,1.2-.36,1.8s-.23,1.21-.34,1.81-.18,1-.26,1.48c-.12.72-.23,1.45-.34,2.18-.07.44-.13.87-.19,1.31,0,.2-.06.4-.08.6s-.07.52-.1.78c0,.1,0,.2,0,.3s0,.36-.07.55,0,.22,0,.34,0,.22,0,.34,0,.1,0,.15q-.07.57-.12,1.14a.13.13,0,0,0,0,.06c0,.4-.08.8-.11,1.2q0,.33-.06.66a.22.22,0,0,0,0,.08c-.05.57-.1,1.15-.13,1.72,0,.07,0,.13,0,.2a1.5,1.5,0,0,0,0,.22c0,.22,0,.44,0,.66v.08a3006207564713.14,3006207564713.14,0,0,0,0,.34,2.73,2.73,0,0,0,0,.41l0,.57v0c0,.07,0,.14,0,.21s0,.41,0,.61c0,.56,0,1.11-.06,1.67v0h0c0,.21,0,.43,0,.64,0,.66,0,1.33,0,2v.22c0,.25,0,.51,0,.77,0,.5,0,1,0,1.5s0,.84,0,1.26,0,.61,0,.92l0,.7c0,.09,0,.19,0,.28a.31.31,0,0,0,0,.1.71.71,0,0,0,0,.14,1,1,0,0,0,0,.17s0,0,0,0a.49.49,0,0,0,0,.17v.08c0,.13,0,.27,0,.4,0,.54.07,1.08.11,1.62a.38.38,0,0,1,0,.1.08.08,0,0,1,0,0v0c0,.05,0,.11,0,.16l0,.46c0,.44.09.87.13,1.3,0,.06,0,.11,0,.16s0,.15,0,.21c0,.47.1.92.16,1.37l.09.74a2.51,2.51,0,0,0,0,.27c0,.14,0,.28,0,.41s0,.34.07.51.06.49.1.73h0c0,.12,0,.23,0,.35s0,.29.07.43,0,.36.09.55l0,.18c0,.26.08.51.13.77l0,.19s0,0,0,0a.36.36,0,0,0,0,.1v0a.36.36,0,0,0,0,.1,0,0,0,0,0,0,0,.13.13,0,0,0,0,.06l0,.2c0,.13,0,.26.08.4a.13.13,0,0,0,0,.06.09.09,0,0,0,0,.05v0s0,0,0,0h0a1,1,0,0,0,0,.17c0,.12,0,.24.07.36.12.63.26,1.26.4,1.89,0,0,0,0,0,.06l.09.41c0,.18.08.36.13.53s0,.2.07.3,0,0,0,.06l.09.39c0,.12.06.23.08.34s.07.28.11.41.07.28.11.41h0c.07.28.14.56.22.83,0,0,0,.05,0,.08a1.82,1.82,0,0,1,.07.25.83.83,0,0,1,0,.15,0,0,0,0,1,0,0,.17.17,0,0,0,0,.07s0,0,0,0,0,0,0,.05a.19.19,0,0,1,0,.07c.08.27.15.53.23.79.12.43.25.86.38,1.29l.08.26a0,0,0,0,1,0,0s0,0,0,.06l.06.19,0,.05.45,1.37v0c.08.24.16.47.25.7s.15.44.23.65a0,0,0,0,0,0,0c.12.36.25.71.39,1.06l.07.19c0,.15.11.29.17.43q.36,1,.78,1.92a3.89,3.89,0,0,0,.16.38l.16.37c.18.42.37.85.57,1.27,0,0,0,0,0,0l0,.08,0,.07,0,.06,0,0a.09.09,0,0,0,0,.06l0,.06s0,0,0,0a.72.72,0,0,0,.09.2c.07.17.15.33.23.49s.24.51.37.76.15.3.23.45.24.48.37.72.23.45.35.69.23.43.36.64.08.16.13.24a.2.2,0,0,0,0,.08c.28.51.57,1,.88,1.54,0,0,0,0,0,.05a.25.25,0,0,0,.05.08.6.6,0,0,0,.09.15c.06.1.12.21.19.31a1.74,1.74,0,0,0,.15.26l.19.32.09.15.1.14,0,.07h0l0,0v0l.14.21,0,.07,0,.05.07.09.24.38,0,.05h0l0,0h0v0l0,0,.06.08c.08.13.16.26.25.38a4.56,4.56,0,0,0,.27.39,3.11,3.11,0,0,0,.25.38l.13.18a.66.66,0,0,0,.12.17c.18.29.39.57.6.86a3,3,0,0,0,.18.25c.07.1.14.21.22.31l.05.07.28.37.32.42c.21.29.43.57.65.86l0,0c.32.41.66.83,1,1.23.18.23.37.45.56.67l0,0c.26.3.51.6.78.89l.3.34c.1.12.21.23.31.34a6,6,0,0,0,.42.46l.35.37a.86.86,0,0,0,.13.14l.13.14h0s0,0,0,0l0,0c.2.22.41.43.62.64.36.37.72.73,1.09,1.08l.24.23.17.16.07.06a2.13,2.13,0,0,0,.22.21l.12.12.11.11.07.06.31.28c.17.17.35.33.53.48l.53.47h0c.17.16.32.29.49.43a3.07,3.07,0,0,0,.29.24q.19.18.39.33l.3.26.06,0,.13.1.32.26c.26.22.52.42.78.63h0c.28.22.56.45.85.66l.69.53,1,.75.9.62v.44H88.53l-13.42.18-63.06.81,12.42-62.28,1.58-.58.13,0c8-2.95,17.3-6.54,26-9.93a.35.35,0,0,1,.16-.08c3.62-1.41,7.14-2.81,10.45-4.11,9.38-3.72,16.95-6.8,19.79-7.94l1.17-.47,0,0s0-.07,0-.11v-.1a.06.06,0,0,1,0,0c0-.25-.05-.48-.08-.71s0-.49-.08-.72c-.09-.87-.17-1.76-.26-2.66,0-.26,0-.51-.06-.78-.26-3-.48-5.88-.64-8.74,0-.6-.07-1.19-.09-1.78,0-.43,0-.84,0-1.27s0-1-.06-1.51l0-.75c0-.23,0-.46,0-.69v-.06c0-.81,0-1.61-.08-2.41s0-1.77,0-2.64c0-3.46,0-6.83.1-10.09,0-1.05.08-2.1.12-3.13s.09-2.06.14-3.06c.2-3.37.46-6.61.76-9.72.29-2.85.62-5.59,1-8.21.18-1.29.36-2.56.55-3.79,0-.24.07-.49.12-.73.43-2.72-2.06-12.45-5.14-23.4a.89.89,0,0,1,0-.14c-2.64-9.35-5.7-19.56-7.76-27l.12-.14c3.6-4.31,7.36-8.42,11.29-12.48C93,218,103.4,208.56,114.76,197.25l.12-.12a21.82,21.82,0,0,0,2.06-2.58c1-1.42,2.16-3.15,3.44-5C131.83,213.43,147.9,245.25,158.55,257.42Z" />
        <path class="BUNTAI_WALRUS_OUTFIT_BUNTAI_WALRUS_OUTFIT-55_cls-5" d="M278.13,275.7c-.85,1.24-1.74,2.54-2.67,3.88l-1.91,2.76-2,2.88q-1.55,2.22-3.19,4.56c-.73,1-1.47,2.1-2.24,3.18-7.62,10.79-16.71,23.38-26.8,36.82-18.54-12-45.06-36.86-62.58-54.07C177.8,276.28,229.6,303.5,278.13,275.7Z" />
        <path class="BUNTAI_WALRUS_OUTFIT_BUNTAI_WALRUS_OUTFIT-55_cls-5" d="M406.42,439.75l-7-.09h0l-38.92-.51H298.13v-.41l.51-.36.51-.36,1.07-.77.9-.7c.32-.23.64-.48.95-.75s.54-.43.81-.65l.13-.1h0l.92-.77q.9-.78,1.77-1.59c.29-.26.58-.53.86-.81l.84-.82c.28-.28.56-.56.82-.84a1.8,1.8,0,0,0,.19-.2c.13-.12.25-.25.36-.37l.25-.27c.21-.23.43-.45.63-.68l.33-.37c.2-.22.4-.44.59-.67l.59-.69c.19-.21.37-.43.55-.66s.54-.66.8-1l.07-.08c.3-.37.58-.75.87-1.13.48-.64,1-1.3,1.42-2s.71-1.05,1.06-1.58.79-1.24,1.17-1.87l.48-.8c.08-.13.16-.26.23-.39l.24-.42q.4-.7.78-1.41c.35-.64.68-1.29,1-2,.09-.17.18-.35.26-.53.17-.35.35-.71.51-1.08s.23-.48.34-.73.23-.49.33-.74l.06-.13c.24-.56.48-1.11.7-1.67s.51-1.28.76-1.93c.07-.18.14-.37.2-.55l.13-.36q.35-.94.66-1.92c.1-.3.2-.59.29-.89.17-.53.33-1.07.49-1.61s.25-.84.36-1.26l.12-.41a2,2,0,0,1,.09-.33l.09-.35c.1-.38.2-.77.29-1.15.17-.71.33-1.41.49-2.12.08-.39.17-.78.24-1.17a1.4,1.4,0,0,0,.06-.28l.09-.47c0-.14.06-.28.09-.43l.06-.33c.13-.69.25-1.39.36-2.08l.09-.55a.28.28,0,0,0,0-.09c.07-.45.14-.9.2-1.35l.18-1.36c0-.15,0-.3.05-.45s.06-.45.08-.67l.12-1.12.06-.63c.05-.54.1-1.08.14-1.62,0-.1,0-.2,0-.3.05-.62.09-1.25.12-1.88,0-.4,0-.81.06-1.21l0-.7c0-.64,0-1.27.05-1.91s0-1.41,0-2.11,0-1.51,0-2.26v0c0-.74,0-1.49-.07-2.23,0-.29,0-.59-.05-.88s0-.83-.07-1.24c0,0,0,0,0,0,0-.44-.05-.88-.09-1.31s-.08-1.1-.13-1.64c0-.15,0-.3,0-.44,0-.35-.06-.69-.1-1l-.15-1.44v0c0-.06,0-.11,0-.17l0-.2c-.07-.6-.14-1.21-.22-1.8l-.3-2.17c-.1-.69-.21-1.38-.33-2.06-.05-.28-.09-.56-.14-.84,0-.08,0-.16,0-.24s-.07-.4-.11-.6a.43.43,0,0,0,0-.05l0-.18s0,0,0,0l-.15-.78c0-.2-.07-.4-.11-.59-.12-.6-.23-1.19-.36-1.78h0c-.16-.79-.34-1.57-.51-2.35h0c-.13-.59-.28-1.18-.42-1.76-.05-.22-.11-.43-.16-.65l0-.06c-.05-.22-.1-.44-.16-.66-.13-.5-.25-1-.39-1.5-.21-.77-.42-1.53-.64-2.28-.88-3-1.86-6-2.92-8.8-.53-1.43-1.09-2.82-1.66-4.19l-.87-2h0c-.07-.17-.15-.34-.22-.5l-.05-.11a.69.69,0,0,0-.05-.13l-.2-.42c-.2-.45-.4-.89-.61-1.32-.13-.28-.26-.56-.4-.84a2,2,0,0,1-.1-.21l-.12-.26a.31.31,0,0,1,0-.1l-.6-1.18L315,321h0l-.24-.46s0-.07-.05-.1,0,0,0-.05l-.66-1.24h0a.83.83,0,0,0-.07-.13l-.29-.52c-.21-.39-.43-.77-.64-1.15-.68-1.18-1.37-2.32-2.07-3.43a71.75,71.75,0,0,0-4.37-6.15c-.21-.27-.43-.54-.63-.82l-.62-.84c-.2-.28-.41-.56-.61-.85l-.59-.87h0c-.23-.34-.45-.68-.67-1s-.45-.7-.66-1.06-.36-.6-.54-.91-.48-.84-.71-1.27-.57-1.05-.84-1.58-.54-1.08-.8-1.62-.41-.86-.6-1.3-.33-.72-.49-1.09c-.05-.12-.1-.24-.16-.36l-.49-1.2q-.28-.67-.54-1.35c-.22-.55-.42-1.09-.62-1.64s-.43-1.19-.63-1.79-.4-1.2-.59-1.8h0c-.19-.58-.35-1.16-.52-1.75l0-.08c-.06-.2-.11-.4-.18-.6v0c0-.13-.07-.26-.11-.39l0-.14s0,0,0-.05l-.06-.2c-.2-.7-.39-1.4-.56-2.1-.13-.5-.26-1-.38-1.51s-.29-1.21-.43-1.82-.32-1.42-.46-2.13c-.05-.19-.08-.39-.13-.58l-.12-.63c-.09-.45-.17-.9-.26-1.35,0-.13-.05-.25-.07-.38a.09.09,0,0,0,0-.05v0l-.12-.68c-.1-.54-.19-1.08-.28-1.62-.18-1.08-.35-2.17-.5-3.25s-.29-2.08-.42-3.12a1.94,1.94,0,0,1,0-.24c-.11-.84-.2-1.68-.29-2.52l-.09-.93c-.06-.56-.11-1.12-.16-1.68,0-.38-.07-.76-.1-1.14,6.53-7.47,25.43-40.78,37-61.06l5.72,9.38C352.56,233.6,362.93,241,376,276.11c1.72,4.63,3.22,9.36,4.55,14.16l0,.12c-.36,1.3-.72,2.61-1.09,3.93-.2.76-.42,1.52-.63,2.29-.4,1.42-.79,2.85-1.19,4.28l-1.38,4.92c-.34,1.22-.69,2.43-1,3.64s-.61,2.15-.9,3.22-.58,2.08-.86,3.11c-1.25,4.52-2.44,8.91-3.5,13l-.24.94c-.09.32-.17.63-.24.94-.24.93-.46,1.84-.68,2.73-.08.3-.15.6-.22.89l-.21.88c-.12.51-.24,1-.35,1.49-.81,3.48-1.45,6.62-1.88,9.31,0,.22-.07.43-.1.63s-.07.42-.09.63c-.09.6-.16,1.18-.22,1.74l-.06.59c0,.27,0,.52-.07.78-.08.9-.16,1.79-.25,2.66,0,.23,0,.46-.08.72s0,.46-.08.71a.06.06,0,0,1,0,0v.1s0,.07,0,.11l.05,0,.88.35.82.34,2.83,1.15.1,0c3.48,1.39,8.65,3.48,14.69,5.88,3.14,1.25,6.52,2.58,10,3.95Q400.49,403.08,406.42,439.75Z" />
        <path class="BUNTAI_WALRUS_OUTFIT_BUNTAI_WALRUS_OUTFIT-55_cls-5" d="M210.43,367.22c-30.82-23.6-69.57-68.71-70-69.17l2.91-3c.38.45,38.86,45.24,69.34,68.58Z" />
        <path class="BUNTAI_WALRUS_OUTFIT_BUNTAI_WALRUS_OUTFIT-55_cls-5" d="M210.13,442.19l-2.21-3.6c56.66-41.55,95.88-144,96.27-145l3.67,1.65C307.47,296.25,267.8,399.91,210.13,442.19Z" />
        <path class="BUNTAI_WALRUS_OUTFIT_BUNTAI_WALRUS_OUTFIT-55_cls-6" d="M96.82,439.15c-6-12.12-19.18-41.45-17.53-62.57A84.21,84.21,0,0,1,84.48,355v0a1.14,1.14,0,0,0,.09-.26c8.22-22.47,22.89-44.44,22.89-44.44" />
        <path class="BUNTAI_WALRUS_OUTFIT_BUNTAI_WALRUS_OUTFIT-55_cls-6" d="M120.38,189.6c11.45,23.83,27.52,55.65,38.17,67.82-.06.73-.13,1.46-.2,2.2l-.06.59c0,.16,0,.32,0,.49,0,.38-.07.76-.12,1.15-.06.58-.13,1.17-.2,1.75l-.06.48c-.09.75-.18,1.5-.29,2.24,0,.27-.07.54-.11.8,0,0,0,.08,0,.12,0,.2-.06.39-.08.58s0,.09,0,.13c0,.29-.09.57-.13.85a1.57,1.57,0,0,1,0,.23.15.15,0,0,1,0,.07c-.09.58-.18,1.15-.28,1.72l-.27,1.55c0,.24-.09.47-.13.7s-.13.7-.2,1.05l-.24,1.19h0c-.14.68-.29,1.37-.44,2.05l-.06.27c-.32,1.4-.66,2.79-1,4.18-.19.71-.39,1.42-.59,2.13s-.47,1.64-.72,2.45h0a.06.06,0,0,0,0,0h0c0,.08-.05.15-.07.23-.1.29-.19.58-.28.87,0,.05,0,.1-.05.14l-.06.19-.12.34c-.08.25-.17.51-.26.76s-.12.37-.19.55l-.08.23c-.06.18-.13.35-.2.53s-.13.37-.2.55-.14.37-.21.55-.1.29-.16.43-.16.42-.25.63-.2.51-.31.76a1.34,1.34,0,0,1-.07.18c-.24.59-.49,1.17-.75,1.75s-.4.89-.61,1.33a.61.61,0,0,1,0,.12l0,.06,0,.06c-.08.18-.17.36-.26.54s-.19.39-.29.58a1.3,1.3,0,0,1-.08.17l-.09.17c-.07.15-.15.3-.23.45a1.51,1.51,0,0,1-.09.18c-.13.26-.26.51-.4.76l-.18.33h0l-.32.58-.36.65-.38.64s0,0,0,0c-.12.21-.25.42-.38.62s-.4.66-.61,1l-.15.24c-.13.21-.27.42-.41.63s-.45.67-.68,1c-.11.17-.23.33-.35.5l-.49.68c-.33.46-.68.91-1,1.35-.65.82-1.3,1.68-1.94,2.57l-.54.76,0,0c-.27.38-.53.76-.79,1.15s-.56.84-.84,1.28-.43.67-.64,1-.43.68-.64,1l-1,1.74c-.31.54-.62,1.09-.92,1.65-.09.16-.18.32-.26.48-.36.66-.71,1.32-1.05,2s-.59,1.15-.87,1.74c-.6,1.23-1.19,2.48-1.75,3.77-.27.62-.54,1.24-.8,1.87s-.47,1.13-.69,1.7c-.16.41-.33.82-.49,1.24s-.33.83-.48,1.25c-.27.71-.53,1.43-.78,2.15s-.51,1.45-.75,2.18h0c-.24.73-.48,1.47-.71,2.22s-.46,1.48-.68,2.23-.34,1.2-.5,1.8-.29,1.06-.42,1.59a2.17,2.17,0,0,0-.07.24c-.13.49-.25,1-.38,1.5l0,.15c-.2.78-.38,1.58-.56,2.38a.36.36,0,0,0,0,.1l-.33,1.51c-.12.6-.25,1.2-.36,1.8s-.23,1.21-.34,1.81-.18,1-.26,1.48c-.12.72-.23,1.45-.34,2.18-.07.44-.13.87-.19,1.31,0,.2-.06.4-.08.6s-.07.52-.1.78c0,.1,0,.2,0,.3s0,.36-.07.55a1.79,1.79,0,0,0,0,.23,1.1,1.1,0,0,0,0,.18c0,.14,0,.28-.05.42q-.07.57-.12,1.14a.13.13,0,0,0,0,.06c0,.4-.08.8-.11,1.2q0,.33-.06.66a.22.22,0,0,0,0,.08c-.05.57-.1,1.15-.13,1.72,0,.07,0,.13,0,.2a1.5,1.5,0,0,0,0,.22c0,.22,0,.44,0,.66v.08a3006207564713.14,3006207564713.14,0,0,0,0,.34,2.73,2.73,0,0,0,0,.41l0,.57v0c0,.07,0,.14,0,.21s0,.41,0,.61c0,.56,0,1.11-.06,1.67v0h0c0,.21,0,.43,0,.64,0,.66,0,1.33,0,2v.22c0,.25,0,.51,0,.77,0,.5,0,1,0,1.5s0,.84,0,1.26,0,.61,0,.92l0,.7c0,.09,0,.19,0,.28a.31.31,0,0,0,0,.1.17.17,0,0,0,0,.1,1.21,1.21,0,0,0,0,.19.06.06,0,0,0,0,0,.49.49,0,0,0,0,.17v.08c0,.13,0,.27,0,.4,0,.54.07,1.08.11,1.62a.38.38,0,0,1,0,.1.08.08,0,0,1,0,0v0c0,.65.11,1.29.17,1.92,0,.06,0,.11,0,.16s0,.15,0,.21c0,.46.1.92.16,1.37l.09.74a2.51,2.51,0,0,0,0,.27c0,.14,0,.28,0,.41s0,.34.07.51,0,.25.06.38,0,.24,0,.36,0,.23,0,.35,0,.29.07.43,0,.36.09.55l0,.18c0,.26.08.51.13.77l0,.19s0,0,0,0a.36.36,0,0,0,0,.1v0s0,0,0,.05,0,.05,0,.08a.13.13,0,0,0,0,.06l0,.2c0,.13,0,.26.08.4a.13.13,0,0,0,0,.06.09.09,0,0,0,0,.05v0s0,0,0,0h0a1,1,0,0,0,0,.17c0,.12,0,.24.07.36.12.63.26,1.26.4,1.89,0,0,0,0,0,.06l.09.41c0,.18.08.36.13.53s0,.2.07.3,0,0,0,.06l.09.39c0,.12.06.23.08.34s.07.28.11.41.07.28.11.41h0c.07.28.14.56.22.83,0,0,0,.05,0,.08s.1.34.14.5,0,.06,0,.09a.19.19,0,0,1,0,.07c.08.27.15.53.23.79.12.43.25.86.38,1.29l.08.23s0,0,0,.06,0,0,0,.06l.06.19,0,.05.45,1.37v0c.08.24.16.47.25.7s.15.44.23.65a0,0,0,0,0,0,0c.12.36.25.71.39,1.06l.07.19c0,.15.11.29.17.43q.36,1,.78,1.92a3.89,3.89,0,0,0,.16.38l.16.37c.18.42.37.85.57,1.27,0,0,0,0,0,0l0,.08,0,.07,0,.06,0,0a.09.09,0,0,0,0,.06l0,.06s0,0,0,0a.72.72,0,0,0,.09.2c.07.17.15.33.23.49s.24.51.37.76.15.3.23.45.24.48.37.72.23.45.35.69.23.43.36.64.08.16.13.24a.2.2,0,0,0,0,.08c.28.51.57,1,.88,1.54,0,0,0,0,0,.05a.25.25,0,0,0,.05.08.6.6,0,0,0,.09.15c.06.1.12.21.19.31a1.74,1.74,0,0,0,.15.26l.19.32.09.15.18.28.14.21,0,.07,0,.05.12.19h0l0,.05.22.35,0,0,.06.08c.08.13.16.26.25.38a4.56,4.56,0,0,0,.27.39,3.11,3.11,0,0,0,.25.38l.13.18a.66.66,0,0,0,.12.17c.18.29.39.57.6.86a3,3,0,0,0,.18.25c.07.1.14.21.22.31l.05.07.28.37c.1.14.2.28.32.42s.43.57.65.86l0,0c.32.41.66.83,1,1.23.18.23.37.45.56.67l0,0c.26.3.51.6.78.89l.3.34c.1.12.21.23.31.34a6,6,0,0,0,.42.46l.35.37a.86.86,0,0,0,.13.14l.13.14,0,0,0,0c.2.22.41.43.62.64.36.37.72.73,1.09,1.08l.24.23.17.16.07.06a2.13,2.13,0,0,0,.22.21l.12.12.11.11.07.06.31.28c.17.17.35.33.53.48l.53.47h0c.17.16.32.29.49.43a3.07,3.07,0,0,0,.29.24q.19.18.39.33l.3.26.06,0,.13.1.32.26c.26.22.52.42.78.63h0c.28.22.56.45.85.66l.69.53,1,.75.9.62" />
        <path class="BUNTAI_WALRUS_OUTFIT_BUNTAI_WALRUS_OUTFIT-55_cls-6" d="M327.43,196.36c-11.56,20.28-30.46,53.59-37,61.06,0,.38.06.76.1,1.14,0,.56.1,1.12.16,1.68l.09.93c.09.84.18,1.68.29,2.52a1.94,1.94,0,0,0,0,.24q.19,1.56.42,3.12c.15,1.08.32,2.17.5,3.25.09.54.18,1.08.28,1.62l.12.68v0a.09.09,0,0,1,0,.05c0,.13.05.25.07.38.09.45.17.9.26,1.35l.12.63c.05.19.08.39.13.58.14.71.3,1.42.46,2.13s.28,1.22.43,1.82.25,1,.38,1.51q.27,1.05.57,2.1l0,.2s0,0,0,.05l0,.14c0,.13.07.26.11.39h0c.07.2.12.4.18.6l0,.08c.17.59.33,1.17.52,1.75h0c.19.6.39,1.2.59,1.8s.41,1.19.63,1.79.4,1.09.62,1.64.35.9.54,1.35l.49,1.2c.06.12.11.24.16.36.16.37.32.73.49,1.09s.39.87.6,1.3.53,1.08.8,1.62.55,1.06.84,1.58.47.85.71,1.27.35.61.54.91.43.71.66,1.06.44.69.67,1h0l.59.87c.2.29.41.57.61.85l.62.84c.2.28.42.55.63.82a71.75,71.75,0,0,1,4.37,6.15c.7,1.11,1.39,2.25,2.07,3.43.21.38.43.76.64,1.15l.29.52a.83.83,0,0,1,.07.13c.17.3.33.61.49.92.07.12.14.24.2.37s0,.07.05.1l.24.46c.14.25.27.5.39.76.22.43.43.85.64,1.28,0,.09.09.17.13.26a2,2,0,0,0,.1.21c.14.28.27.56.4.84.21.43.41.87.61,1.32l.25.55.05.11c.07.16.15.33.22.5.3.67.59,1.35.88,2,.57,1.37,1.13,2.76,1.66,4.19,1.06,2.84,2,5.78,2.92,8.8.42,1.46.82,2.94,1.19,4.44a.74.74,0,0,1,0,.14c.19.77.38,1.55.56,2.33s.35,1.56.52,2.35h0c.13.59.24,1.18.36,1.78,0,.19.07.39.11.59l.15.78s0,0,0,0l0,.18a.43.43,0,0,1,0,.05c0,.2.07.4.11.6s0,.16,0,.24c.05.28.09.56.14.84.12.68.23,1.37.33,2.06l.3,2.17c.08.59.15,1.2.22,1.8l0,.2c0,.06,0,.11,0,.17v0l.15,1.44c0,.34.07.68.1,1,0,.14,0,.29,0,.44.05.54.09,1.09.13,1.64s.06.87.09,1.31c0,0,0,0,0,0,0,.41.06.83.07,1.24s0,.59.05.88c0,.74,0,1.49.07,2.23v0c0,.75,0,1.51,0,2.26s0,1.41,0,2.11,0,1.27-.05,1.91l0,.7c0,.4,0,.81-.06,1.21,0,.63-.07,1.26-.12,1.88,0,.1,0,.2,0,.3,0,.54-.09,1.08-.14,1.62l-.06.63-.12,1.12c0,.22,0,.45-.08.67s0,.3-.05.45l-.18,1.36c-.06.45-.13.9-.2,1.35a.28.28,0,0,1,0,.09l-.09.55c-.11.69-.23,1.39-.36,2.08l-.06.33c0,.15-.05.29-.09.43l-.09.47a1.4,1.4,0,0,1-.06.28c-.07.39-.16.78-.24,1.17-.16.71-.32,1.41-.49,2.12-.09.38-.19.77-.29,1.15l-.09.35a2,2,0,0,0-.09.33l-.12.41q-.17.63-.36,1.26c-.16.54-.32,1.08-.49,1.61-.09.3-.19.59-.29.89q-.32,1-.66,1.92l-.13.36c-.06.18-.13.37-.2.55-.25.65-.5,1.29-.76,1.93s-.46,1.11-.7,1.67l-.06.13c-.1.25-.22.49-.33.74s-.23.49-.34.73-.34.73-.51,1.08c-.08.18-.17.36-.26.53-.33.66-.66,1.31-1,2q-.37.7-.78,1.41l-.24.42c-.07.13-.15.26-.23.39l-.48.8c-.38.63-.77,1.26-1.17,1.87s-.7,1.06-1.06,1.58-.94,1.32-1.42,2c-.29.38-.57.76-.87,1.13l-.07.08c-.26.34-.53.67-.8,1s-.36.45-.55.66l-.59.69c-.19.23-.39.45-.59.67l-.33.37c-.2.23-.42.45-.63.68l-.25.27c-.11.12-.23.25-.36.37a1.8,1.8,0,0,1-.19.2l-.82.84-.84.82c-.28.28-.57.55-.86.81q-.87.81-1.77,1.59l-.92.78-.13.1c-.27.22-.54.45-.81.65s-.63.52-.95.75l-.9.7-1.07.77-.51.36-.51.36" />
        <path class="BUNTAI_WALRUS_OUTFIT_BUNTAI_WALRUS_OUTFIT-55_cls-6" d="M24.47,377.86l1.58-.58.13,0c8-2.95,17.3-6.54,26-9.93a.35.35,0,0,1,.16-.08c3.62-1.41,7.14-2.81,10.45-4.11,9.38-3.72,16.95-6.8,19.79-7.94l1.17-.47,0,0s0-.07,0-.11v-.1a.06.06,0,0,1,0,0c0-.25-.05-.48-.08-.71s0-.49-.08-.72c-.09-.87-.17-1.76-.26-2.66,0-.26,0-.51-.06-.78-.26-3-.48-5.88-.64-8.74,0-.6-.07-1.19-.09-1.78,0-.43,0-.86,0-1.27s0-1-.06-1.51l0-.75c0-.17,0-.33,0-.49a1.09,1.09,0,0,0,0-.18v0c0-.82,0-1.64-.07-2.45s0-1.77,0-2.64c0-3.46,0-6.83.1-10.09,0-1.05.07-2.1.12-3.13s.09-2.06.14-3.06c.2-3.37.46-6.61.76-9.72.29-2.85.62-5.59,1-8.21.18-1.29.36-2.56.55-3.79,0-.24.07-.49.12-.73.43-2.72-2.06-12.45-5.14-23.4a.89.89,0,0,1,0-.14c-2.64-9.35-5.7-19.56-7.76-27" />
        <path class="BUNTAI_WALRUS_OUTFIT_BUNTAI_WALRUS_OUTFIT-55_cls-6" d="M352.18,439.15c6-12.12,19.16-41.45,17.53-62.57A85,85,0,0,0,364.52,355s0,0,0,0a1.61,1.61,0,0,0-.09-.26c-8.21-22.47-22.87-44.44-22.87-44.44" />
        <path class="BUNTAI_WALRUS_OUTFIT_BUNTAI_WALRUS_OUTFIT-55_cls-6" d="M380.56,290.27l0,.12c-.36,1.3-.72,2.61-1.09,3.93-.2.76-.42,1.52-.63,2.29-.4,1.42-.79,2.85-1.19,4.28l-1.38,4.92c-.34,1.22-.69,2.43-1,3.64s-.61,2.15-.9,3.22-.58,2.08-.86,3.11c-1.25,4.52-2.44,8.91-3.5,13l-.24.94c-.09.32-.17.63-.24.94-.24.93-.46,1.84-.68,2.73-.08.3-.15.6-.22.89l-.21.88c-.12.51-.24,1-.35,1.49-.81,3.48-1.45,6.62-1.88,9.31,0,.22-.07.43-.1.63s-.07.42-.09.63c-.09.6-.16,1.18-.22,1.74l-.06.59c0,.27,0,.52-.07.78-.08.9-.16,1.79-.25,2.66,0,.23,0,.46-.08.72s0,.46-.08.71a.06.06,0,0,1,0,0v.1s0,.07,0,.11l.05,0,.88.35.82.34,2.83,1.15.1,0c3.48,1.39,8.65,3.48,14.69,5.88,3.14,1.25,6.52,2.58,10,3.95" />
        <path class="BUNTAI_WALRUS_OUTFIT_BUNTAI_WALRUS_OUTFIT-55_cls-6" d="M147.37,436.15q4.81-4.5,9.67-9.33h0c18-17.92,36.26-38.84,53.2-59.75.45-.54.89-1.09,1.32-1.63q5.63-7,11-13.87c5.81-7.41,11.4-14.73,16.71-21.79,10.09-13.44,19.18-26,26.8-36.82l2.24-3.18q1.65-2.34,3.19-4.56l2-2.88,1.91-2.76,2.67-3.88c7.8-11.38,12.3-18.28,12.3-18.28" />
        <path class="BUNTAI_WALRUS_OUTFIT_BUNTAI_WALRUS_OUTFIT-55_cls-6" d="M295.06,284s-53,107.61-103.53,155.2" />
        <path class="BUNTAI_WALRUS_OUTFIT_BUNTAI_WALRUS_OUTFIT-55_cls-6" d="M176.73,275.71c17.52,17.22,44.05,42.07,62.58,54.07" />
        <path class="BUNTAI_WALRUS_OUTFIT_BUNTAI_WALRUS_OUTFIT-55_cls-6" d="M158.55,257.42s7.38,7.68,18.17,18.28" />
        <path class="BUNTAI_WALRUS_OUTFIT_BUNTAI_WALRUS_OUTFIT-55_cls-6" d="M153.21,286.41s37.08,40.31,69.39,65.16" />
        <path class="BUNTAI_WALRUS_OUTFIT_BUNTAI_WALRUS_OUTFIT-55_cls-6" d="M278.13,275.7c-48.53,27.8-100.33.58-101.4,0h0" />
        <g class="BUNTAI_WALRUS_OUTFIT_BUNTAI_WALRUS_OUTFIT-55_cls-7">
          <path d="M193.49,440.39h-118l-.37-1.06c-2-5.76-11.62-33.52-13.22-43.75l-6.41,20.2s-8.49-38,7.34-52.66l19.82-7.28,0-.66c-.07-2.23-.32-10-.19-20.15a1.09,1.09,0,0,0,0-.18v0a.08.08,0,0,0,0,0c.11-9.24.19-20.51,1.61-31.46a50.54,50.54,0,0,0,.36-7.8c-.2-8.66-2.11-18.49-4.47-27.92a.89.89,0,0,1,0-.14c-2.57-10.21-5.65-19.94-7.64-27.17,3.6-4.31,7.36-8.42,11.29-12.48,3.63,25.33,16.78,76.54,20.17,88.39v0c-2.22,26.46,2.6,55.94,19.33,80a100.89,100.89,0,0,0,34,30.61h0a115,115,0,0,0,11.29,5.56,135.77,135.77,0,0,0,20,6.77c1.2.32,2.42.62,3.65.89C192.5,440.17,193,440.28,193.49,440.39Z" />
          <path d="M364.41,354.72l19.91,6.83s3.37,13.65,8.93,40.59,6.17,38.25,6.17,38.25H351s16.34-36.06,17.82-47.17S368.76,362.7,364.41,354.72Z" />
          <path d="M292.42,272.6s-37.58,70.44-80,115.47-48.9,48.08-48.9,48.08,14.74,2.47,15.21,2.58S192,440.05,192,440.05s37.46-40.54,62.58-83.73,40.67-71.67,40.67-71.67Z" />
          <path d="M152.58,285.8l3.47-10.48S174.23,301,190.67,314s37.63,29.17,37.63,29.17l-6.37,8.44s-38-33.43-50.2-45.95S152.58,285.8,152.58,285.8Z" />
        </g>
        <path class="BUNTAI_WALRUS_OUTFIT_BUNTAI_WALRUS_OUTFIT-55_cls-6" d="M394.55,366.42q5.94,36.66,11.87,73.33c.07.41.13.82.2,1.23H11.88c.06-.28.11-.56.17-.84l12.42-62.28" />
        <path class="BUNTAI_WALRUS_OUTFIT_BUNTAI_WALRUS_OUTFIT-55_cls-6" d="M72.13,240.42l.12-.14c3.6-4.31,7.36-8.42,11.29-12.48C93,218,103.4,208.56,114.76,197.25l.12-.12a21.82,21.82,0,0,0,2.06-2.58c1-1.42,2.16-3.15,3.44-5,11.45,23.83,27.52,55.65,38.17,67.82,0,0,7.38,7.68,18.17,18.28h0c1.07.57,52.87,27.79,101.4,0,7.8-11.38,12.3-18.28,12.3-18.28,0,.38.07.76.11,1.14,0-.38-.07-.76-.1-1.14,6.53-7.47,25.43-40.78,37-61.06l5.72,9.38C352.56,233.6,362.93,241,376,276.11c1.72,4.63,3.22,9.36,4.55,14.16" />
      </g>
    </g>
  </g>
</svg>