<svg xmlns="http://www.w3.org/2000/svg" xmlns:xlink="http://www.w3.org/1999/xlink" viewBox="0 0 432 432">
  <defs>
    <style>.BUNTAI_WALRUS_OUTFIT_BUNTAI_WALRUS_OUTFIT-49_cls-1,.BUNTAI_WALRUS_OUTFIT_BUNTAI_WALRUS_OUTFIT-49_cls-10,.BUNTAI_WALRUS_OUTFIT_BUNTAI_WALRUS_OUTFIT-49_cls-8{fill:none;}.BUNTAI_WALRUS_OUTFIT_BUNTAI_WALRUS_OUTFIT-49_cls-2{isolation:isolate;}.BUNTAI_WALRUS_OUTFIT_BUNTAI_WALRUS_OUTFIT-49_cls-3{clip-path:url(#BUNTAI_WALRUS_OUTFIT_BUNTAI_WALRUS_OUTFIT-49_clip-path);}.BUNTAI_WALRUS_OUTFIT_BUNTAI_WALRUS_OUTFIT-49_cls-4{fill:#fff3c2;}.BUNTAI_WALRUS_OUTFIT_BUNTAI_WALRUS_OUTFIT-49_cls-5{fill:#b1dd6a;}.BUNTAI_WALRUS_OUTFIT_BUNTAI_WALRUS_OUTFIT-49_cls-6{fill:#36529f;}.BUNTAI_WALRUS_OUTFIT_BUNTAI_WALRUS_OUTFIT-49_cls-7{fill:#c9a976;}.BUNTAI_WALRUS_OUTFIT_BUNTAI_WALRUS_OUTFIT-49_cls-10,.BUNTAI_WALRUS_OUTFIT_BUNTAI_WALRUS_OUTFIT-49_cls-8{stroke:#000;stroke-linecap:round;stroke-linejoin:round;}.BUNTAI_WALRUS_OUTFIT_BUNTAI_WALRUS_OUTFIT-49_cls-8{stroke-width:1.97px;}.BUNTAI_WALRUS_OUTFIT_BUNTAI_WALRUS_OUTFIT-49_cls-9{opacity:0.43;mix-blend-mode:multiply;}.BUNTAI_WALRUS_OUTFIT_BUNTAI_WALRUS_OUTFIT-49_cls-10{stroke-width:1.93px;}</style>
    <clipPath id="clip-path">
      <path class="BUNTAI_WALRUS_OUTFIT_BUNTAI_WALRUS_OUTFIT-49_cls-1" d="M-6.89-3.42v441H443.29v-441Zm321.36,270.9a.93.93,0,0,1-.59.21,1,1,0,0,1-.68-.28,25,25,0,0,1-4.38-6.56c-.48,8.51-1.27,18.22-2.5,23.12a1,1,0,0,1-.94.73h-.14a1,1,0,0,1-.82-1c.07-2.06.16-5.08.18-8.62a52.61,52.61,0,0,1-2,7.72c.07,6.19-.69,7.94-.77,8.12a1,1,0,0,1-.87.54h-.08a1,1,0,0,1-.85-.7,54.24,54.24,0,0,0-6.15-12.86l-3.59-2.16c-.63,3-1.3,6-2,9-.37,17.11-1,41.18-1.77,58.86a198.36,198.36,0,0,1-5.17,36.19.05.05,0,0,1,0,0c-.08.38-.18.76-.26,1.14l-.41,1.62c-3.93,16-10.43,33.75-13.44,33.75-2.42,0-2.54-1.74-3.05-9.06l-.4-5.52a1.11,1.11,0,0,1,0-.17c-.41-5.35-1-11.16-1.7-17.67-.1-.94-.21-2-.32-3l-.05-.53c-.07-.67-.13-1.37-.2-2.08l-.09-1c0-.43-.08-.86-.12-1.31l-.13-1.46c-.39-4.49-.8-9.82-1.22-15.86l-.22-3.14c0-.12,0-.18,0-.23-.25-3.7-.51-7.61-.76-11.61l-.18-2.88c-.19-2.91-.37-5.86-.54-8.83-.07-.94-.12-1.9-.18-2.86v-.25c-.38-6.48-.75-13-1.1-19.21l.95-.17-1,.06c0-.06,0-.12,0-.17a.86.86,0,0,1,0-.16s0-.09,0-.13v-.26c0-.14,0-.24,0-.31s0-.27,0-.42V308l0-.5a.66.66,0,0,1,0-.14c0-.17,0-.43,0-.68l0-.52c-.31-5.66-.6-11.06-.86-16l-.14-2.64c-.21-4-.4-7.7-.55-10.89l-.17-3.36c-.29-5.9-.46-9.45-.46-9.45l-.54-9.16a18.64,18.64,0,0,1-2.21,1.44l-.07,0h0a22.3,22.3,0,0,1-7.52,2.43,29,29,0,0,1-3.94.27,30.26,30.26,0,0,1-9.77-1.58l-.08,0a24.67,24.67,0,0,1-8.79-5.1l-.24.19-.44.34-.16.13-.09.06-.06,0-.71.52c-.08,4.76-.19,10.72-.33,17.42l-.08,4.11c-.06,3.41-.14,7-.22,10.61l-.06,2.58c0,1.1,0,2.2-.07,3.32-.12,5-.25,10.12-.38,15.18l-.1,3.69c-.17,6.26-.36,12.44-.56,18.29,0,.56,0,1.13-.05,1.69l-.12,3.41c0,.84-.06,1.67-.1,2.49l-.2,5c0,.75-.06,1.48-.1,2.2v.14c-.17,3.75-.41,7.42-.73,11,0,.37-.06.74-.1,1.1s-.05.7-.09,1.07a2.11,2.11,0,0,0,0,.32c-.06.58-.11,1.09-.17,1.61-.08.8-.16,1.61-.26,2.42-.31,2.82-.68,5.73-1.13,8.86a4.19,4.19,0,0,1-.08.56c-.11.76-.22,1.53-.34,2.28-.23,1.51-.46,3-.71,4.46l-.06.34c-.17,1-.34,2-.52,3-2.79,15.6-6.23,27.62-8.42,32.6-1,2.35-1.75,3.22-2.66,3.22-1.33,0-2.41-.74-3.31-2.28a7.16,7.16,0,0,1-.35-.66,27.35,27.35,0,0,1-1.67-4.87.19.19,0,0,0,0-.07c-.11-.48-.23-1-.36-1.52l.91-.34-.93.24s0-.1,0-.11c0-.19-.08-.41-.13-.62C195.21,401,194.14,393.76,193,384l-.08-.71c-.06-.55-.12-1.11-.17-1.68s-.11-1-.16-1.51a.53.53,0,0,1,0-.15c-.54-5.39-1.1-12.27-1.73-21.12,0-.26,0-.49,0-.72-.06-.83-.12-1.65-.17-2.48l0-.38c-.09-1.2-.17-2.44-.25-3.68,0-.31,0-.65-.07-1q-.21-3-.4-6.07l-.15-2.29c-.05-.72-.09-1.43-.13-2.12,0-.49-.07-1-.1-1.53l-.12-1.91a1.68,1.68,0,0,1,0-.2c0-.08,0-.25,0-.4s0-.4,0-.64c0-.51-.08-1.05-.11-1.59l0-.75c-.08-1.25-.16-2.52-.23-3.78,0-.59-.08-1.21-.12-1.82-.21-3.73-.43-7.47-.64-11.15-.06-1-.12-2.06-.17-3.09-.13-2.16-.25-4.31-.36-6.42-.05-.81-.09-1.6-.14-2.4l0-.81c-.17-3.1-.33-6.14-.48-9.05l-.08-1.45c-.06-1.22-.13-2.41-.18-3.57l-.08-1.39-.09-1.76,0-.73c-.05-.92-.09-1.82-.13-2.7,0-.47,0-.93-.07-1.4a1.47,1.47,0,0,1,0-.27l-.19-3.82v-.11l-.23-4.78c0-.32,0-.61,0-.91l0-.79-1.43.58-1.34.51a3.05,3.05,0,0,1-.29.11l-.25.09-1,.36-.18.07-.29.1-.22.07-.15,0-.13.05-.1,0-.27.08h0l0,0-.11,0-.23.06h0l-.33.11h0l-.23.08a.88.88,0,0,1-.15,0l-.26.07-.16,0-.24.08-.13,0h0l-11,4.43a47.92,47.92,0,0,0-9.2,12.85,1,1,0,0,1-.78.58h-.11a1,1,0,0,1-.78-.4c-.22-.3-1.29-2.1-1.2-8.19a49,49,0,0,1-4-11.39c0,5.08.13,9.48.28,12.2a1,1,0,0,1-.76,1l-.2,0a1,1,0,0,1-.9-.63c-1.93-5.15-3.14-15.57-3.85-24.38a34.29,34.29,0,0,1-3.65,4.62,22.51,22.51,0,0,1-3.76,3.21.91.91,0,0,1-.54.17,1,1,0,0,1-.73-.33,1,1,0,0,1,0-1.28,17.85,17.85,0,0,0,2.82-4.47v0c4.09-8.93,3.82-22.41,3.7-28.16v-.53a26.44,26.44,0,0,1,3.94-13.81,83.21,83.21,0,0,1,3.71-15.81l-.09-.17a1,1,0,0,1-.13-.47,1,1,0,0,1,.82-.94,2.44,2.44,0,0,0,.1-.24,14.72,14.72,0,0,1,3-4.29c.08-.27.16-.55.24-.85l.32-1c.27-.88.57-1.81.89-2.72s.66-1.77,1-2.5l.13-.27c.06-.14.12-.26.18-.38v0c0-.16,0-.33,0-.49a1.1,1.1,0,0,1,0-.18c-.1-1.55-.17-3.3-.21-5.56v-1.34c0-1.76,0-3.7,0-5.84v-.25c0-.4,0-.78,0-1.17v-.47c0-1.34,0-2.51-.12-3.58s-.19-2.12-.35-3.13c0,0,0-.1,0-.12-.18-1.18-.4-2.35-.69-3.72-.14-.63-.27-1.25-.41-1.87a1.42,1.42,0,0,1,0-.2l-.23-1.1s0-.1,0-.11v0a1.13,1.13,0,0,1,0-.18v0a.7.7,0,0,1,0-.14l-.19-1s0,0,0-.06a44.1,44.1,0,0,1-.64-5.67l0-.67c-.05-1.73,0-3.5.12-5.42.51-7.72,3.1-13.73,8.15-18.92.23-.24.48-.49.73-.73a52.12,52.12,0,0,1,8.85-6.71,31.48,31.48,0,0,1,5.13-9.79,1.46,1.46,0,0,1,.15-.2,31.86,31.86,0,0,1,10.58-8.9c15.19-7.94,35.31-16.16,56.36-9.18l3.7.51c15.92,2.16,28.48,3.87,36,17.3a37.94,37.94,0,0,1,2.32,4.9l.19.16q.41.34.81.72l0,0,0,0c.58.52,1.18,1,1.76,1.58a82,82,0,0,1,7.67,7.88c.26.32.47.58.66.83s.42.53.61.79l.21.29c.11.17.23.33.33.49a14.06,14.06,0,0,1,.89,1.47l.12.21c3.22,6.08,4.55,8.6,3.49,24.53,0,.55-.07,1.1-.1,1.64s-.07,1.07-.09,1.6-.06,1-.09,1.55v.05h0c-.06,1-.11,2-.16,3-.25,5.42-.4,10.79-.45,16,0,.6,0,1.2,0,1.8,0,2.15,0,4.26,0,6.31,0,1.33,0,2.62.06,3.9h0c0,1.3.06,2.59.1,3.84,0,.24,0,.45,0,.65a.92.92,0,0,1,0,.16c0,.23,0,.47,0,.69,0,.48,0,.9.05,1.32l0,.62a5.73,5.73,0,0,1,.38.62l0,.06.38.68a5.64,5.64,0,0,1,.26.55,1.17,1.17,0,0,1,.1.2c.06.14.12.26.17.4l.08.19c0,.09.1.25.16.4s.11.32.15.45.1.3.16.5.17.65.26,1l.12.46.13.55c.17.73.33,1.44.49,2.17.07.33.14.69.2,1,.11.53.19,1,.27,1.44a0,0,0,0,0,0,0,.09.09,0,0,0,0,.05c.05.27.1.56.14.83l0,.11v0c.1.55.19,1.11.27,1.66s.16,1.09.25,1.66.13.94.19,1.42a7.07,7.07,0,0,1,.09.72c.05.33.09.7.13,1.07l.06.47s0,.08,0,.12l.11.95v.11c.05.42.1.93.15,1.43l0,.29a36.27,36.27,0,0,1,2.62,13.71v.52c-.09,6.81-.33,24.89,4.39,32.82A1,1,0,0,1,314.47,267.48Z" />
    </clipPath>
  </defs>
  <g class="BUNTAI_WALRUS_OUTFIT_BUNTAI_WALRUS_OUTFIT-49_cls-2">
    <g id="outfit">
      <g class="BUNTAI_WALRUS_OUTFIT_BUNTAI_WALRUS_OUTFIT-49_cls-3">
        <path class="BUNTAI_WALRUS_OUTFIT_BUNTAI_WALRUS_OUTFIT-49_cls-4" d="M398.41,358.52c-8.41,6.16-16.39,12.57-23.92,19.06-.18.15-.35.31-.54.46s-.69.61-1,.9v0a492.66,492.66,0,0,0-63.58,67.27c-1-1.84-2-3.67-3.07-5.48l-1.49-2.59c-.23-.39-.46-.79-.69-1.17-.54-.95-1.1-1.89-1.66-2.83l-.52-.86c-.25-.43-.51-.86-.77-1.29l-.27-.44c-.33-.56-.66-1.11-1-1.65l-.82-1.34c-.55-.89-1.1-1.78-1.66-2.67-.27-.45-.55-.89-.83-1.33-1-1.52-1.92-3-2.9-4.53-.32-.5-.64-1-1-1.5-.54-.83-1.09-1.66-1.64-2.48s-.88-1.33-1.33-2c-1.16-1.73-2.33-3.46-3.52-5.17l-.51-.74q-1.53-2.21-3.07-4.38l-2.09-2.91-.79-1.08c-.67-1-1.36-1.88-2.06-2.82l-.73-1c-.15-.21-.3-.42-.46-.62s-.3-.41-.46-.61q-.72-1-1.47-1.95c-.8-1.06-1.6-2.12-2.42-3.17l-.3-.4c-.67-.86-1.33-1.72-2-2.57h0c-.55-.69-1.09-1.39-1.63-2.08-.86-1.09-1.72-2.17-2.59-3.24l-.19-.23-1.54-1.91-.35-.43c-.64-.77-1.27-1.56-1.92-2.33l-.94-1.14q-2.12-2.57-4.26-5.07c-.67-.78-1.33-1.56-2-2.34l-1.05-1.21a2.91,2.91,0,0,0-.24-.27l-.24-.29c-.15-.16-.29-.33-.43-.49l-.27-.31-.72-.81c-.3-.36-.62-.71-.94-1.07l-.15-.17c-.16-.18-.31-.37-.48-.55s-.17-.19-.26-.29l-.37-.41-.9-1-.18-.19c-.7-.79-1.41-1.58-2.13-2.36-.29-.32-.56-.64-.86-.95l-.78-.85c-.65-.72-1.3-1.42-2-2.14h0q.54-.47,1.08-1,8.61-7.66,17.42-14.83H261c1.19-1,2.39-1.93,3.58-2.88q3.85-3.07,7.73-6l1.53-1.17,2.43-1.83,1.21-.91c.4-.31.81-.61,1.21-.9l3.19-2.35,3.6-2.61,3.75-2.66c1.59-1.12,3.19-2.23,4.78-3.32l3.32-2.26q8-5.37,15.88-10.27l.68-.42c1.22-.76,2.44-1.5,3.66-2.24l4-2.41c1.33-.79,2.66-1.56,4-2.34h0l1.77-1c.59-.34,1.17-.68,1.77-1s1.18-.67,1.76-1,1.18-.67,1.77-1a391.12,391.12,0,0,1,45.59-21.78c4.3,12,11.18,32.44,14.56,49.61.11.54.21,1.08.31,1.61C396,335.29,397.61,349.61,398.41,358.52Z" />
        <path class="BUNTAI_WALRUS_OUTFIT_BUNTAI_WALRUS_OUTFIT-49_cls-4" d="M311.43,450.09h0a5.07,5.07,0,0,1-.56,0l-1.21.09h-.08c-17.75,1.15-34.18-2.76-67.15-1.87-6.26.16-13.12.51-20.69,1.09-2.54.21-5.15.42-7.85.68q-7.17.64-15.17,1.63-2.66.32-5.42.67c-1.94.25-3.93.5-6,.78a171.29,171.29,0,0,1-24.11,1.69s-1.53-2.62-4.47-7.22q-1.29-2-2.93-4.53l-.85-1.28-.74-1.11-.67-1c-.23-.34-.47-.68-.7-1l-2.16-3.19-.85-1.22-.4-.57c-.14-.19-.28-.4-.41-.59s-.2-.28-.3-.43c-.21-.3-.41-.61-.64-.91s-.49-.71-.75-1.07l-.42-.6c-.44-.62-.88-1.25-1.35-1.9l-.92-1.29-1.91-2.65c-1.3-1.78-2.66-3.63-4.08-5.52L137.34,417c-.63-.84-1.28-1.69-1.94-2.55l-2.12-2.77c-.63-.81-1.26-1.63-1.91-2.45-.47-.6-.94-1.21-1.43-1.82s-.74-.94-1.12-1.42c-.76-1-1.54-1.93-2.33-2.91q-4.71-5.85-10-12a.71.71,0,0,1-.07-.09.34.34,0,0,0-.06-.06,2.32,2.32,0,0,0-.21-.25l-.06-.07-.31-.35c-.83-1-1.68-2-2.54-2.94l-3-3.4-.2-.22c-.93-1.06-1.89-2.12-2.86-3.19s-2.08-2.29-3.14-3.44-2.12-2.3-3.21-3.45-2.18-2.31-3.29-3.47q-3-3.18-6.2-6.35-1.87-1.89-3.8-3.77t-3.88-3.77c-2.33-2.23-4.68-4.45-7.11-6.66h0c-1-.91-2-1.83-3-2.73l-2.91-2.6c-.56-.5-1.13-1-1.7-1.48-1.51-1.32-3-2.64-4.58-3.94l-1.62-1.36c-.76-.64-1.52-1.28-2.29-1.9a.12.12,0,0,0-.07,0q-.84-.71-1.68-1.38c-1.12-.91-2.25-1.82-3.38-2.71s-2.42-1.92-3.64-2.85c-2-1.53-3.95-3-5.95-4.5-.46-.35-.93-.69-1.4-1-.89-.66-1.79-1.31-2.69-2l-1-.68c-1.06-.75-2.11-1.5-3.18-2.23s-2.07-1.44-3.12-2.14c-.82-.56-1.64-1.11-2.47-1.65,2.81-11.2,7.77-28.08,15.14-42.94,1.58-3.19,3.23-6.24,4.9-9.14a186.31,186.31,0,0,1,20.69-29l2,.78c1,.41,2.09.83,3.16,1.28s1.86.77,2.8,1.17l2.12.9c7.79,3.36,15.87,7.25,24.15,11.61.67.35,1.35.7,2,1.06q3.23,1.72,6.5,3.54l.11.08.14.08.75.41c.83.45,1.67.93,2.49,1.4,2.41,1.35,4.81,2.75,7.24,4.2,1.2.71,2.41,1.44,3.61,2.17s2.42,1.47,3.62,2.22,2.43,1.51,3.64,2.28q3.52,2.23,7.07,4.56l.95.63.16.1.27.18.51.35c.85.55,1.7,1.12,2.55,1.69s1.69,1.14,2.55,1.72q3.06,2.08,6.12,4.24l2.05,1.45.5.36c1,.69,1.95,1.39,2.91,2.1,3.3,2.37,6.59,4.8,9.89,7.32l2.88,2.19,1.13.88c.74.57,1.49,1.15,2.23,1.74.19.13.36.27.54.42l.2.14.1.09.08.06s0,0,.07.06l.05,0c.25.18.5.38.74.58l.09.07.29.22.31.26c.89.7,1.79,1.41,2.68,2.13l0,0s0,0,0,0l2,1.61q2.37,1.92,4.76,3.9l2.75,2.29,1.25,1.05L196,310l1.84,1.56,1.83,1.59c1,.89,2.07,1.78,3.1,2.7.24.2.48.42.74.65q1.78,1.56,3.55,3.15l3.54,3.21c.82.74,1.63,1.48,2.44,2.24l2.44,2.28c1.14,1.06,2.28,2.13,3.4,3.21,1.44,1.36,2.88,2.74,4.3,4.13s2.86,2.79,4.27,4.21c.64.63,1.3,1.28,1.94,1.93q6.62,6.66,13.07,13.62h0c.66.72,1.31,1.42,2,2.14l.78.85c.3.31.57.63.86.95.57.62,1.13,1.24,1.69,1.87.21.23.41.46.62.68l.9,1,.12.14.25.27c.08.1.17.19.26.29s.32.37.48.55l.15.17a2.32,2.32,0,0,1,.21.25l.73.82.72.81.27.31c.14.16.28.33.43.49l.24.29a2.91,2.91,0,0,1,.24.27l1.05,1.21c.68.78,1.34,1.56,2,2.34q2.14,2.5,4.26,5.07l.94,1.14c.65.77,1.28,1.56,1.92,2.33l.35.43,1.54,1.91.19.23c.87,1.07,1.73,2.15,2.59,3.24.54.69,1.08,1.39,1.63,2.08h0c.67.85,1.33,1.71,2,2.57l.3.4c.49.63,1,1.27,1.46,1.91l1,1.26,1,1.27.51.68c.16.2.31.4.46.61l.46.62.73,1c.7.94,1.39,1.87,2.06,2.82l.79,1.08,2.09,2.91,1.48,2.09c.19.28.39.55.57.82q.52.74,1,1.47l.51.74.51.73c1,1.48,2,2.95,3,4.44.45.67.9,1.33,1.33,2s1.1,1.65,1.64,2.48c.33.5.65,1,1,1.5s.66,1,1,1.5l1.92,3c.28.44.56.88.83,1.33l.83,1.34.83,1.33.82,1.34c.34.54.67,1.09,1,1.65l.27.44c.26.43.52.86.77,1.29l.52.86c.33.55.65,1.11,1,1.66.23.38.46.78.69,1.17s.46.78.69,1.17l1.49,2.59c1,1.81,2.06,3.64,3.07,5.48C310.05,447.51,310.75,448.81,311.43,450.09Z" />
        <path class="BUNTAI_WALRUS_OUTFIT_BUNTAI_WALRUS_OUTFIT-49_cls-5" d="M245.42,271.1c2.62,0,4.74,4.53,4.74,10.11s-2.12,10.11-4.74,10.11-4.75-4.52-4.75-10.11S242.79,271.1,245.42,271.1Z" />
        <path class="BUNTAI_WALRUS_OUTFIT_BUNTAI_WALRUS_OUTFIT-49_cls-6" d="M373.12,388.73a65.54,65.54,0,0,1-.74,7.56c-2.57,16.56-11.73,33.85-34,47.57a101.94,101.94,0,0,1-27,6.24h0c-.69-1.28-1.39-2.58-2.11-3.86A493.2,493.2,0,0,1,372.91,379c.06.77.12,1.53.15,2.28A74.86,74.86,0,0,1,373.12,388.73Z" />
        <path class="BUNTAI_WALRUS_OUTFIT_BUNTAI_WALRUS_OUTFIT-49_cls-6" d="M335.09,208.5l-.24.12c-.45.22-.9.44-1.35.68l-.95.48c-2.74,1.4-26.42,14.89-29,16.36-.75.42-1.49.85-2.22,1.28s-1.62,1-2.42,1.43l-2.26,1.37-1.45.91c-.95.6-1.9,1.19-2.82,1.81-.51.32-1,.65-1.52,1-.67.43-1.32.87-2,1.31-1.17.79-2.31,1.58-3.43,2.38-.7.49-1.39,1-2.07,1.48-1.35,1-2.67,2-4,2.95-.8.6-1.58,1.22-2.35,1.82s-1.53,1.22-2.28,1.82l-2.19,1.8c-.72.6-1.43,1.19-2.12,1.79-2.08,1.78-4.05,3.55-5.9,5.26l-1.81,1.7c-.59.58-1.17,1.13-1.73,1.69l-.85.83-.82.81c-.27.28-.53.55-.8.81L257,262c-.26.26-.5.52-.75.78-.49.52-1,1-1.43,1.53s-.92,1-1.36,1.5l-1,1.08c-.32.35-.62.71-.93,1.05h0a12.16,12.16,0,0,1,.87,1.22c.27.44.54.9.78,1.38a19.91,19.91,0,0,1,1.27,3.15,23.32,23.32,0,0,1,.65,2.65c.11.62.21,1.25.28,1.89a29,29,0,0,1,.16,3c0,.36,0,.71,0,1.07v0c0,.28,0,.55-.05.83s-.07.82-.12,1.23a24.1,24.1,0,0,1-.95,4.52c0,.09-.07.19-.1.28-.1.32-.22.64-.34.95s-.2.52-.32.77-.08.21-.13.31a4.09,4.09,0,0,1-.23.47l-.28.57,0,.05-.32.55a5.07,5.07,0,0,1-.34.55l-.36.52a10.46,10.46,0,0,1-3,2.93c-.14.09-.29.17-.44.25l-.25.13a4.35,4.35,0,0,1-.59.25l-.34.13-.12,0-.09,0-.11,0-.21.05a5.29,5.29,0,0,1-.78.13l-.22,0-.44,0-.46,0a3.78,3.78,0,0,1-.47-.06l-.4-.07a.32.32,0,0,1-.14,0l-.13,0-.25-.06-.34-.11-.25-.1a.26.26,0,0,1-.1,0h0l0,0-.23-.1-.42-.21a8.88,8.88,0,0,1-.81-.5l-.39-.29-.61-.54-.48-.46,0,0c-.16-.16-.31-.33-.45-.5s-.34-.41-.5-.63l-.37-.53,0,0-.09-.17-.06-.07c-.1-.15-.2-.31-.29-.47s0-.09-.08-.14q-.24-.39-.45-.81s0,0,0-.05,0,0,0,0c-.2-.4-.39-.81-.57-1.24l-.1-.25-.14-.39-.06-.15-.21-.59-.27-.87c-.09-.35-.18-.69-.26-1.05l0-.14c-.06-.28-.13-.56-.18-.85s-.09-.45-.12-.68-.1-.57-.14-.87-.07-.53-.09-.8l-.06-.81c0-.07,0-.12,0-.19s0,0,0,0v-.08a0,0,0,0,1,0-.06,4.31,4.31,0,0,0,0-.15,1.09,1.09,0,0,1,0-.18c0-.05,0-.1,0-.15v-.12h0a0,0,0,0,1,0,0h0V282s0,0,0-.05a0,0,0,0,1,0,0s0,0,0,0,0,0,0,0h0s0,0,0,0,0,0,0,0,0,0,0,0,0,0,0,0,0,0,0,0,0,0,0,0,0,0,0,0,0,0,0,0,0,0,0,0,0,0,0,0,0,0,0,0,0,0,0,0,0,0,0,0a0,0,0,0,1,0,0s0,0,0,0,0,0,0,0,0,0,0,0,0,0,0,0a.49.49,0,0,1,0-.12.53.53,0,0,1,0-.13.13.13,0,0,1,0-.06v-.11a0,0,0,0,0,0,0V281h0s0,0,0,0h0s0,0,0,0,0,0,0,0h0s0,0,0,0,0,0,0,0v-.16c0-.08,0-.17,0-.25v-.09a.25.25,0,0,0,0-.08v0c0-.26,0-.52,0-.77a.71.71,0,0,1,0-.15,6,6,0,0,1,.05-.61c0-.36.07-.7.11-1s.09-.67.15-1a1.86,1.86,0,0,1,.06-.34c0-.08,0-.17.05-.25l.12-.59h0l.09-.41a.09.09,0,0,1,0-.05,9.32,9.32,0,0,1,.23-.91c.06-.24.14-.47.21-.7l.06-.2.18-.49c0-.07,0-.12.07-.19a1.17,1.17,0,0,1,.09-.24c.17-.46.37-.91.57-1.34l0,0a.37.37,0,0,1,.05-.11.64.64,0,0,0,0-.07l.05-.1a15,15,0,0,1,1.25-2.12c.11-.16.23-.33.35-.48l.1-.12c.16-.21.32-.4.49-.59l-.14-.16h0c-1-1.19-2.14-2.37-3.25-3.54-.3-.33-.6-.64-.9-.94-4.75-5-9.93-9.91-15.1-14.54-.59-.53-1.16-1.05-1.74-1.55-1.55-1.37-3.1-2.72-4.62-4l-.57-.49-.57-.48-.57-.49-.57-.48-.77-.66-.34-.27-1.12-.94c-.37-.31-.74-.63-1.11-.92l-2.17-1.79-2.2-1.78-2-1.59-2.3-1.81-1.11-.87c-2.05-1.61-4-3.07-5.65-4.36l-.25-.18-.52-.4-.73-.55c-2.2-1.65-4-3-5.19-3.84l-.2-.14-.13-.09a.94.94,0,0,0-.12-.09c-.46-.34-.82-.59-1-.75l-.3-.22,0,0a113.69,113.69,0,0,0-13.75-8.56c-1.81-1-3.56-1.91-5.16-2.73h0c-.63-.33-1.25-.65-1.83-.93h0l-.84-.43h0c-.41-.19-.81-.38-1.17-.58-2.37-1.15-3.88-1.83-3.88-1.83h0c-.93-.38-2.17-.86-3.64-1.4l-1-.37-2.21-.79-1.8-.63c-.35-.13-.72-.25-1.08-.37l-2.26-.77-1.17-.39-2.15-.7-2.84-.92c-2.78-.89-5.61-1.76-8.35-2.55l-.73-.21c-1-.29-1.93-.56-2.87-.81l-1.39-.38-2-.53-1.24-.31c-1.61-.39-3.1-.72-4.4-1-.56.82-1.09,1.58-1.58,2.28a23.75,23.75,0,0,1-2,2.53l-.81,1.49c.21.77.4,2.59.58,3.36.08.31.14.62.2.94.13.54.23,1.08.35,1.62s.17.89.25,1.33c.18,1,8.83,28.74,9,29.74.07.48.15,1,.21,1.44s.14.95.2,1.42h0a.53.53,0,0,0,0,.12c0,.32.08.64.11,1s.09.73.13,1.1c.29,2.61.5,5.2.65,7.69h0c.25,4.23.33,8.17.33,11.48,1.2.71,2.41,1.44,3.61,2.17s2.42,1.47,3.62,2.22,2.43,1.51,3.64,2.28c2.35,1.48,4.71,3,7.07,4.56l.95.62h0l.16.1.27.18.51.34c.85.56,1.7,1.12,2.55,1.7s1.69,1.14,2.55,1.72q3.06,2.08,6.12,4.24l2.05,1.44.5.37c1,.69,1.95,1.39,2.91,2.1,3.3,2.37,6.59,4.8,9.89,7.32l2.88,2.19,1.13.88c.74.57,1.49,1.15,2.23,1.74.19.13.36.27.54.42s.12.11.2.14l.1.08a.1.1,0,0,0,.05,0l0,0,0,0a.05.05,0,0,1,0,0l.05,0c.25.18.5.38.74.58l.09.07.29.22.31.26c.89.7,1.79,1.41,2.68,2.13l0,0h0l1,.8,1,.82q2.37,1.92,4.76,3.9l2.75,2.29,1.25,1.05c.42.34.83.69,1.24,1.05l1.84,1.57,1.83,1.59c1,.89,2.07,1.78,3.1,2.7.24.2.48.42.74.65q1.78,1.56,3.55,3.15l1.77,1.6,1.77,1.6c.41.37.82.74,1.22,1.12l1.22,1.13,2.44,2.28c1.14,1.06,2.28,2.13,3.4,3.21,1.44,1.36,2.88,2.74,4.3,4.13.72.69,1.43,1.39,2.14,2.09.36.35.72.7,1.07,1.06l1.06,1.05h0c.64.63,1.3,1.28,1.94,1.93q6.62,6.66,13.07,13.62h0l1.07-1q8.61-7.66,17.42-14.83H261q1.78-1.46,3.58-2.88,3.85-3.07,7.73-6l1.53-1.17,2.43-1.83,1.21-.91c.4-.31.81-.61,1.21-.9l3.19-2.35,3.6-2.61q1.88-1.35,3.75-2.66c1.59-1.12,3.19-2.23,4.78-3.32,1.11-.77,2.22-1.52,3.32-2.26q8-5.37,15.88-10.27l.68-.42c1.22-.76,2.44-1.5,3.66-2.24s2.68-1.62,4-2.41,2.66-1.58,4-2.35c-.3-1.14-.56-2.37-.77-3.65-.1-.64-.19-1.29-.28-2s-.15-1.34-.21-2-.1-1.37-.15-2.06-.09-1.55-.12-2.33c0-.43,0-.86,0-1.28a140,140,0,0,1,.69-16.44c.08-.58.17-1.17.27-1.78s.19-1.26.31-1.91.19-1.14.29-1.73c0-.25.09-.51.14-.77.09-.52.18-1,.28-1.56,0-.09.05-.21.08-.36s.15-.52.26-.88q.09-.3.21-.66c.13-.42.29-.89.46-1.42l.16-.48c.12-.35.24-.73.38-1.13.38-1.14.82-2.43,1.3-3.83,1.53-4.43,3.47-10,5.32-15.22l.3-.86c.34-1,.68-1.95,1-2.9l.59-1.71c.45-1.28.88-2.51,1.28-3.67l.15-.44a1.27,1.27,0,0,0,.06-.18l.11-.3c0-.1.07-.2.1-.3l.21-.58.12-.36a1.72,1.72,0,0,0,.07-.21c0-.09.07-.19.1-.28a.78.78,0,0,0,0-.14l0-.08a.11.11,0,0,0,0,0c.06-.18.13-.35.19-.53l.34-1c.56-1.65,1-2.92,1.21-3.66C338.47,213.21,336.82,210.94,335.09,208.5ZM241.46,309.56a1.42,1.42,0,0,1,0-.16,3.27,3.27,0,0,1,.46-.89,1.33,1.33,0,0,1,.14-.19h0a2.2,2.2,0,0,1,.24-.28,2,2,0,0,1,.3-.28l.24-.18.28-.19a2.31,2.31,0,0,1,.35-.18,2.37,2.37,0,0,1,.5-.2l.22-.07.31-.07a3.68,3.68,0,0,1,.82-.09,4.26,4.26,0,0,1,1.15.16,3.35,3.35,0,0,1,.53.19,4,4,0,0,1,.46.23,3.13,3.13,0,0,1,.34.21,2.24,2.24,0,0,1,.34.27h0l.32.32a.05.05,0,0,1,0,0,3,3,0,0,1,.27.35l0,0a1.32,1.32,0,0,1,.12.2,1.51,1.51,0,0,1,.15.28l0,.09a1.08,1.08,0,0,1,.08.19.58.58,0,0,1,.06.17,3.2,3.2,0,0,1,.09.34,1.67,1.67,0,0,1,.05.31,3,3,0,0,1,0,.42,3.65,3.65,0,0,1-1.2,2.68,4.27,4.27,0,0,1-2.89,1.11l-.27,0a3.55,3.55,0,0,1-.57-.06.65.65,0,0,1-.19,0h0l-.07,0-.08,0-.27-.08-.25-.1a3.17,3.17,0,0,1-.49-.24l-.27-.18a2,2,0,0,1-.23-.18,3.45,3.45,0,0,1-.77-.85,3.21,3.21,0,0,1-.19-.31l-.06-.13,0,0c-.05-.12-.1-.23-.14-.35a.84.84,0,0,1,0-.17,3.1,3.1,0,0,1-.11-.51,4,4,0,0,1,0-.49,3.87,3.87,0,0,1,0-.48A2.82,2.82,0,0,1,241.46,309.56Zm-.36,26,.1-.27c0-.09.07-.17.11-.26a5.6,5.6,0,0,1,.36-.74l.17-.31c.12-.22.26-.44.4-.66s.2-.28.3-.42v0l.17-.24.16-.21c.14-.19.29-.37.43-.54s.11-.13.17-.2l.13-.15.22-.24.28-.31.08-.09.19-.19c.22-.23.41-.41.56-.54l.1-.1.18-.16c.07.07.13.15.2.23a14.35,14.35,0,0,1,1,1.42c.1.15.19.3.28.45l.16.28.25.43c.14.26.26.52.37.77s.09.21.13.32a1.59,1.59,0,0,1,.07.2,4.73,4.73,0,0,1,.26.81l.06.2a5.44,5.44,0,0,1,.14.77c0,.07,0,.16,0,.24s0,.22,0,.32,0,.28,0,.42a3.64,3.64,0,0,1,0,.48c0,.15,0,.31-.06.46a1.67,1.67,0,0,1-.08.32l0,.11,0,0,0,.1a3.11,3.11,0,0,1-.28.65c-.06.13-.13.25-.2.37l-.14.21-.21.28-.3.32-.31.28a3.3,3.3,0,0,1-.6.4,2.64,2.64,0,0,1-.29.15l-.25.11-.11,0a5,5,0,0,1-.55.16,3.67,3.67,0,0,1-1.36,0,3.86,3.86,0,0,1-.58-.17h0l-.27-.14a2.58,2.58,0,0,1-.7-.58l-.28-.35-.22-.34c0-.09-.09-.17-.13-.26a2.72,2.72,0,0,1-.11-.25,2.08,2.08,0,0,1-.12-.32,4.25,4.25,0,0,1-.22-1.36c0-.14,0-.29,0-.43a.77.77,0,0,1,0-.15c0-.12,0-.23.05-.35s.06-.31.1-.46v0C241,335.88,241,335.7,241.1,335.52Zm-12.14-39h1v0l-.06.42c0,.08,0,.18-.06.29s-.05.27-.08.43-.07.34-.12.53-.11.46-.19.71-.15.52-.24.78-.1.27-.14.4-.1.27-.16.4a11.6,11.6,0,0,1-.91,1.79c-.09.15-.19.3-.29.44s-.25.34-.38.5a6.05,6.05,0,0,1-1.32,1.21l-.22.14-.34.19a1.81,1.81,0,0,1-.35.16L225,305l-.13.05-.09,0s0,0,0,0l-.3.09-.19.05-.25,0H224l-.2,0h-.12a3.83,3.83,0,0,1-.68,0,3.14,3.14,0,0,1-2.76-4,2.86,2.86,0,0,1,.07-.28,1.43,1.43,0,0,1,.09-.27c0-.09.07-.19.11-.28s.08-.18.13-.27a5.57,5.57,0,0,1,.49-.74,3.17,3.17,0,0,1,.3-.34,2.39,2.39,0,0,1,.22-.23,6.52,6.52,0,0,1,1.42-1,2.31,2.31,0,0,1,.35-.18l.37-.17a3.52,3.52,0,0,1,.39-.16c.2-.08.41-.15.63-.22l.45-.13a6.38,6.38,0,0,1,.66-.15q.7-.15,1.5-.24a8.56,8.56,0,0,1,1.05-.09Zm-13.27-8.9a2.54,2.54,0,0,1,.1-.37,3.08,3.08,0,0,1,.31-.73c.07-.11.14-.23.22-.34s0,0,.06-.07a2,2,0,0,1,.19-.24.53.53,0,0,1,.1-.12l.05,0a3,3,0,0,1,.41-.39l.19-.15.29-.21a4.52,4.52,0,0,1,.88-.44l.5-.16a3.53,3.53,0,0,1,.54-.13l.47-.07h.05l.53,0h.85l.37.05.37,0c.25,0,.51.1.78.16l.35.09.91.3.66.26.4.17.29.13.12.05.35.18c.48.24,1,.51,1.48.81l-.1.13a11.19,11.19,0,0,1-.78.82c-.23.23-.5.48-.81.76-.13.13-.28.25-.42.37l-.46.38h0c-.28.23-.59.46-.91.68-.16.11-.32.22-.49.32l-.51.31c-.17.1-.35.19-.53.28l-.54.26-.74.28-.47.13a4.74,4.74,0,0,1-.49.1l-.49.07-.44,0a4.55,4.55,0,0,1-2.8-.95,1.72,1.72,0,0,1-.31-.29,1.3,1.3,0,0,1-.18-.23l-.1-.17a.7.7,0,0,1-.09-.17,2.44,2.44,0,0,1-.1-.24,0,0,0,0,0,0,0,1.4,1.4,0,0,1-.06-.28.85.85,0,0,1,0-.22v0a.57.57,0,0,0,0-.12A2.87,2.87,0,0,1,215.69,287.65Zm55,14.24a5.81,5.81,0,0,1,0,.59,4.1,4.1,0,0,1-.11.61,1.61,1.61,0,0,1-.09.29.65.65,0,0,1,0,.13.61.61,0,0,1-.07.14h0a1.19,1.19,0,0,1-.08.16c-.05.1-.11.19-.16.28l0,.06a2.75,2.75,0,0,1-.49.53l-.14.11a.9.9,0,0,1-.2.14,1,1,0,0,1-.23.13,1.21,1.21,0,0,1-.2.09l-.17.06a1.8,1.8,0,0,1-.4.1l-.17,0-.23,0h-.15a5.28,5.28,0,0,1-1-.09,3.78,3.78,0,0,1-.83-.24l-.26-.1a3.42,3.42,0,0,1-.43-.21,3.77,3.77,0,0,1-.54-.34h0l-.34-.28a3.2,3.2,0,0,1-.39-.36c-.1-.1-.2-.2-.29-.31a4.12,4.12,0,0,1-.33-.4,3.55,3.55,0,0,1-.23-.31,2.11,2.11,0,0,1-.21-.31c-.09-.13-.17-.27-.25-.41s-.24-.42-.34-.64-.26-.55-.37-.82-.11-.28-.16-.41l-.15-.41-.09-.29c-.05-.16-.1-.32-.14-.48h0a1.21,1.21,0,0,1-.05-.18,1.16,1.16,0,0,1,0-.18h0l0-.14c0-.07,0-.14-.05-.21a.83.83,0,0,1,0-.15c0-.13-.06-.24-.08-.35s0-.05,0-.07a.29.29,0,0,0,0-.09c0-.06,0-.12,0-.18a1.48,1.48,0,0,1,0-.19.29.29,0,0,1,0-.09.69.69,0,0,1,0-.13.17.17,0,0,0,0-.07s0-.06,0-.09v0c0-.17,0-.26,0-.26h0c.39,0,.76,0,1.11,0h0c.27,0,.53,0,.77,0h.12a16.72,16.72,0,0,1,1.74.23l.07,0a3,3,0,0,1,.43.09.23.23,0,0,1,.11,0q.42.09.81.21a7.21,7.21,0,0,1,.7.25l.13.05.5.22.28.13.21.12a5.44,5.44,0,0,1,.62.39l.35.26.37.32.13.13.13.14.26.3a3.19,3.19,0,0,1,.23.32l.2.31a4.28,4.28,0,0,1,.31.7,2.25,2.25,0,0,1,.08.24l.06.24,0,.13a.58.58,0,0,1,0,.14l0,.25Zm3.61-11.51a1.85,1.85,0,0,1-.34.23,2,2,0,0,1-.34.2l-.34.17-.53.18a4.61,4.61,0,0,1-.81.15l-.44,0h-.44l-.34,0-.29,0-.47-.11-.42-.13-.38-.15-.39-.15-.38-.18a6.85,6.85,0,0,1-.84-.46l-.43-.26-.61-.42-.34-.25a19.77,19.77,0,0,1-2.7-2.48.6.6,0,0,0-.08-.08l0-.06-.05-.05h0a18.91,18.91,0,0,1,2-1l.59-.26.57-.23c.19-.07.37-.14.55-.19l.49-.16.41-.1.39-.09.26-.05.44-.07h.1l.41,0c.2,0,.41,0,.61,0h0a6.57,6.57,0,0,1,1.11.09h.1a2.83,2.83,0,0,1,.52.13,2.06,2.06,0,0,1,.44.14l.15.06a2.09,2.09,0,0,1,.37.17,4.32,4.32,0,0,1,.8.5l0,0a3.73,3.73,0,0,1,.36.32,3,3,0,0,1,.34.38,3.18,3.18,0,0,1,.27.37.43.43,0,0,1,0,.07,2.82,2.82,0,0,1,.21.38,1.78,1.78,0,0,1,.12.29.52.52,0,0,1,.06.16c0,.05,0,.11.05.16a2.9,2.9,0,0,1,.12.57,2.93,2.93,0,0,1,0,.41A2.42,2.42,0,0,1,274.31,290.38Z" />
        <path class="BUNTAI_WALRUS_OUTFIT_BUNTAI_WALRUS_OUTFIT-49_cls-6" d="M230.59,323.27h0l.31-.1a.67.67,0,0,1,.15-.06l.16,0a1.05,1.05,0,0,1,.21-.06l.27,0a3.4,3.4,0,0,1,.46-.06h.19a4.41,4.41,0,0,1,.52,0,3.85,3.85,0,0,1,.48,0l.26,0,.34,0,.36.05.17,0,.25.05.25.05a1.53,1.53,0,0,1,.29.07l.32.08a7.09,7.09,0,0,1,.9.28l.52.18c.49.18,1,.4,1.54.66h0c-.07.06-.44.4-1,.85l-.05,0-.19.13c-.27.19-.56.4-.89.6l-.4.25-.5.28-.71.35-.3.13-.12,0,0,0-.39.15-.05,0-.4.12-.64.16-.53.08a7.44,7.44,0,0,1-.94,0l-.23,0-.17,0-.18,0h-.1a4.58,4.58,0,0,1-.53-.14l-.26-.11-.1,0-.08,0a.3.3,0,0,1-.11-.06l-.28-.16a1.46,1.46,0,0,1-.34-.26,1.6,1.6,0,0,1-.21-.26,1.37,1.37,0,0,1-.19-.51,1.46,1.46,0,0,1,0-.29,1.7,1.7,0,0,1,.12-.67l0-.07.06-.14a2.14,2.14,0,0,1,.23-.38l.1-.12,0,0,0,0,.28-.28,0,0,.19-.17a5.55,5.55,0,0,1,.48-.29A3,3,0,0,1,230.59,323.27Z" />
        <path class="BUNTAI_WALRUS_OUTFIT_BUNTAI_WALRUS_OUTFIT-49_cls-6" d="M262.18,326.11a1.55,1.55,0,0,1-.08.23.94.94,0,0,1-.12.22,1.13,1.13,0,0,1-.1.13,2,2,0,0,1-.41.33l-.15.09-.22.12-.23.1-.34.12a1.89,1.89,0,0,1-.34.09,2,2,0,0,1-.34.06l-.19,0-.23,0a4.17,4.17,0,0,1-.5,0l-.21,0-.27,0-.52-.08h-.08l-.47-.12-.47-.15-.51-.19-.5-.22-.45-.21-.54-.3-.38-.23c-.42-.26-.8-.52-1.12-.76l-.09,0-.17-.14c-.36-.28-.63-.51-.77-.63l-.11-.09,0,0h0l.58-.26c.16-.08.32-.14.47-.2s.53-.22.79-.31l.57-.19a5.54,5.54,0,0,1,.6-.17l.54-.14.13,0,.59-.1.24,0,.59-.06.3,0a6.28,6.28,0,0,1,1.25.06l.28,0a5.07,5.07,0,0,1,.56.13,2.17,2.17,0,0,1,.36.12h0c.16.06.3.13.45.2l.27.16a1.51,1.51,0,0,1,.17.1l0,0,.24.18a2.64,2.64,0,0,1,.49.52.88.88,0,0,1,.12.17,1.93,1.93,0,0,1,.19.34.14.14,0,0,1,0,.06.84.84,0,0,1,.05.17.94.94,0,0,1,0,.09.15.15,0,0,1,0,.09.63.63,0,0,1,0,.19,1.82,1.82,0,0,1,0,.57A0,0,0,0,1,262.18,326.11Z" />
        <path class="BUNTAI_WALRUS_OUTFIT_BUNTAI_WALRUS_OUTFIT-49_cls-6" d="M163.24,454.91c-33.34-.11-49.9-11.05-49.9-11.05q-3.37-2.07-6.35-4.29A73.4,73.4,0,0,1,90.23,423a61.43,61.43,0,0,1-10.75-25.87c-.16-1-.31-1.95-.42-2.92-.07-.48-.12-1-.17-1.44s-.1-1-.13-1.45c0-.08,0-.17,0-.25v0a72.58,72.58,0,0,1,0-10.42c.14-2.11.35-4.19.63-6.21v0a18.09,18.09,0,0,1-1.74-3.56,26,26,0,0,1-1.13-4.25c-1.29-6.9-.29-14.33.13-16.95,2.43,2.21,4.79,4.44,7.12,6.67q3.92,3.76,7.69,7.54c1,1,1.9,1.91,2.84,2.88l2.64,2.72c.23.26.47.5.71.75,1.12,1.16,2.2,2.32,3.29,3.47q2.13,2.26,4.2,4.52c.72.78,1.44,1.58,2.15,2.37,1.25,1.37,2.47,2.74,3.68,4.1l2.37,2.7c1.06,1.22,2.11,2.42,3.13,3.62l0,.06c7.06,8.25,13.4,16.16,19,23.45l1.13,1.47c2.94,3.88,5.67,7.58,8.15,11.05l.92,1.29c3.69,5.16,6.83,9.75,9.39,13.62.29.44.58.86.85,1.28,1.09,1.67,2.08,3.18,2.93,4.53C161.71,452.29,163.24,454.91,163.24,454.91Z" />
        <path class="BUNTAI_WALRUS_OUTFIT_BUNTAI_WALRUS_OUTFIT-49_cls-7" d="M400.29,377.85a3.79,3.79,0,0,1-2.26,3.43c-13.95,6.34-18.2,6.49-23.43,7.26l-1.41.19h-.07a74.86,74.86,0,0,0-.06-7.5h.13s.29,0,.84-.12c4.1-.59,8.43-.53,20.15-6.63a4.28,4.28,0,0,1,5.57,1.45A3.78,3.78,0,0,1,400.29,377.85Z" />
        <path class="BUNTAI_WALRUS_OUTFIT_BUNTAI_WALRUS_OUTFIT-49_cls-7" d="M332.62,290.05v0l-1.77,1c-1.76,1-3.54,2-5.3,3h0c-.3-1.14-.56-2.37-.77-3.65-.1-.64-.19-1.29-.28-2s-.15-1.34-.21-2-.1-1.37-.15-2.06-.09-1.55-.12-2.33c0-.43,0-.86,0-1.28a140,140,0,0,1,.69-16.44c.08-.58.17-1.17.27-1.78s.2-1.25.31-1.91.19-1.14.29-1.73c0-.25.09-.51.14-.77.09-.52.18-1,.28-1.56,0-.09.05-.21.08-.36s.15-.52.26-.88q.09-.3.21-.66c.13-.42.29-.89.46-1.42.05-.15.11-.31.16-.48.12-.35.24-.73.38-1.13.38-1.14.82-2.43,1.3-3.83,1.53-4.43,3.47-10,5.32-15.22l.3-.86c.34-1,.68-1.95,1-2.9l.59-1.71c.45-1.28.88-2.51,1.28-3.67.59-1.67,1.11-3.17,1.54-4.45.56-1.65,1-2.92,1.21-3.66,1.36,1.84,2.67,3.6,3.95,5.29-2.1,7.71-11.19,37.69-11.56,40.43C332.45,261.08,330.86,278.68,332.62,290.05Z" />
        <path class="BUNTAI_WALRUS_OUTFIT_BUNTAI_WALRUS_OUTFIT-49_cls-7" d="M263.3,286.43s6.34,7.48,11,3.95C277.09,288.29,273.48,280.28,263.3,286.43Z" />
        <path class="BUNTAI_WALRUS_OUTFIT_BUNTAI_WALRUS_OUTFIT-49_cls-7" d="M260.85,296.54s1,9,7,8.82C272.08,305.25,273,296.4,260.85,296.54Z" />
        <path class="BUNTAI_WALRUS_OUTFIT_BUNTAI_WALRUS_OUTFIT-49_cls-7" d="M252.24,324.39s5.31,5,9.24,2.64C263.82,325.63,260.79,320.29,252.24,324.39Z" />
        <path class="BUNTAI_WALRUS_OUTFIT_BUNTAI_WALRUS_OUTFIT-49_cls-7" d="M333.15,205.74l-1.76-2.88c-7.05,4-20.24,11.48-21.45,12.14l-1.79,1c-1.73,1-3.5,2-5.27,3.09-.87.53-1.75,1.07-2.62,1.62q-2.68,1.67-5.37,3.45c-.9.59-1.8,1.19-2.69,1.8s-1.47,1-2.2,1.48l-2.17,1.51c-.63.43-1.25.87-1.87,1.31l-.3.22c-.87.61-1.73,1.23-2.58,1.85a1,1,0,0,0-.17.12c-1.43,1-2.84,2.08-4.24,3.12-1.79,1.34-3.56,2.69-5.28,4L271.6,241c-3.43,2.69-6.7,5.35-9.71,7.91L259.47,251c-1.58,1.35-3.06,2.68-4.46,3.94-.69.63-1.37,1.25-2,1.86l-1,.9c-.45.43-.9.85-1.32,1.27-.11.09-.2.19-.31.3s-.22.21-.33.32l-1,1-.92.94-.78.82c-.75.8-1.4,1.54-2,2.22h-.06c-2.32-2.87-4.87-5.76-7.6-8.65-.68-.73-1.38-1.45-2.08-2.17-1.75-1.8-3.56-3.6-5.39-5.36-.73-.71-1.47-1.41-2.21-2.11-.37-.36-.74-.7-1.12-1.05q-1.11-1-2.22-2.07-2.81-2.57-5.59-5c-.73-.64-1.46-1.29-2.19-1.91-1.09-.95-2.18-1.88-3.24-2.78-12.09-10.25-22-17.52-22-17.52a150.27,150.27,0,0,0-18.47-11.63l-1.43-.77-1.34-.72-1.23-.64h0c-.58-.31-1.12-.6-1.61-.84l-.47-.24h0l-1-.51-.69-.34-.07,0-.15-.07-.27-.15-.21-.1-.45-.17-.44-.18h0c-.58-.25-1.2-.48-1.84-.72h0c-1.27-.5-2.61-1-4-1.51l-2.49-.89-1.55-.53-1.48-.51c-3.16-1.06-6.49-2.09-9.87-3-.71-.2-1.43-.39-2.15-.57-2.2-.56-11.9-3.45-17.87-5.08-.32.39-.63.8-.93,1.2l0,0c-1.12,1.49-2.15,3-3.1,4.36,1.3.24,2.79.57,4.4,1l1.24.31,2,.53,1.39.38c.94.25,1.89.52,2.87.81l.73.21c2.74.79,5.57,1.66,8.35,2.55l2.84.92,2.15.7,1.17.39,2.26.77c.36.12.73.24,1.08.37l1.8.63,2.21.79,1,.37c1.47.54,2.71,1,3.64,1.4h0s1.51.68,3.88,1.83l1.17.58h0l.84.43h0c.58.28,1.2.6,1.83.93h0c1.6.82,3.35,1.73,5.16,2.73a113.69,113.69,0,0,1,13.75,8.56l0,0,.3.22c.23.16.59.41,1,.75a.94.94,0,0,1,.12.09l.13.09.2.14c1.22.89,3,2.19,5.19,3.84l.73.55.52.4.25.18c1.7,1.29,3.6,2.75,5.65,4.36l1.11.87,2.3,1.81,2,1.59,2.2,1.78,2.17,1.79c.37.29.74.61,1.11.92l1.12.94.34.27.77.66.57.48.57.49.57.48.57.49c1.52,1.29,3.07,2.64,4.62,4,.58.5,1.15,1,1.74,1.55,5.17,4.63,10.35,9.54,15.1,14.54.3.3.6.61.9.94,1.11,1.17,2.2,2.35,3.25,3.54h0l.14.16c-.17.19-.33.38-.49.59l-.1.12c-.12.15-.24.32-.35.48a15,15,0,0,0-1.25,2.12l-.05.1a.64.64,0,0,1,0,.07.37.37,0,0,0-.05.11l0,0c-.2.43-.4.88-.57,1.34a1.17,1.17,0,0,0-.09.24c0,.06-.05.12-.07.19s-.12.32-.17.49a1.59,1.59,0,0,0-.07.2c-.07.23-.15.46-.21.7a9.32,9.32,0,0,0-.23.91,0,0,0,0,0,0,0v0c0,.06,0,.12-.05.18a2,2,0,0,0,0,.24h0l-.12.59c0,.08,0,.17-.05.25a1.86,1.86,0,0,0-.06.34q-.09.48-.15,1c0,.33-.09.67-.11,1a6,6,0,0,0-.05.61.71.71,0,0,0,0,.15c0,.25,0,.51,0,.77v0a.25.25,0,0,1,0,.08v.09c0,.08,0,.17,0,.25v.16s0,0,0,0,0,0,0,0h0V281h0v0h0v.6s0,0,0,0,0,0,0,0,0,0,0,0,0,0,0,0a0,0,0,0,0,0,0s0,0,0,0,0,0,0,0,0,0,0,0,0,0,0,0,0,0,0,0,0,0,0,0,0,0,0,0,0,0,0,0,0,0,0,0,0,0,0,0,0,0,0,0,0,0,0,0v0h0v0a0,0,0,0,0,0,0v.15h0a0,0,0,0,0,0,0h0v.12c0,.05,0,.1,0,.15a1.09,1.09,0,0,0,0,.18,4.31,4.31,0,0,1,0,.15v.14s0,0,0,0,0,.12,0,.19l.06.81c0,.27,0,.54.09.8s.08.59.14.87.07.45.12.68.12.57.18.85l0,.14c.08.36.17.7.26,1.05l.27.87.21.59.06.15.14.39.1.25c.18.43.37.84.57,1.24,0,0,0,0,0,0s0,0,0,.05q.21.42.45.81c0,.05,0,.1.08.14s.19.32.29.47l.06.07.09.17,0,0,.37.53c.16.22.33.43.5.63s.29.34.45.5l0,0,.48.46.61.54.39.29a8.88,8.88,0,0,0,.81.5l.42.21.23.1,0,0h0a.26.26,0,0,0,.1,0l.25.1.34.11.25.06.13,0a.32.32,0,0,0,.14,0l.4.07a3.78,3.78,0,0,0,.47.06l.46,0,.44,0,.22,0a5.29,5.29,0,0,0,.78-.13l.21-.05.11,0,.09,0,.12,0,.34-.13a4.35,4.35,0,0,0,.59-.25l.25-.13c.15-.08.3-.16.44-.25a10.46,10.46,0,0,0,3-2.93l.36-.52c.12-.18.23-.36.34-.55l.32-.55,0-.05.28-.57a4.09,4.09,0,0,0,.23-.47c0-.1.09-.21.13-.31s.22-.51.32-.77.24-.63.34-.95c0-.09.06-.19.1-.28a24.1,24.1,0,0,0,.95-4.52q.08-.61.12-1.23c0-.28,0-.55.05-.83v0c0-.36,0-.71,0-1.07a29,29,0,0,0-.16-3c-.07-.64-.17-1.27-.28-1.89a23.32,23.32,0,0,0-.65-2.65,19.91,19.91,0,0,0-1.27-3.15c-.24-.48-.51-.94-.78-1.38a12.16,12.16,0,0,0-.87-1.22h0c.31-.34.61-.7.93-1.05l1-1.08c.44-.5.89-1,1.36-1.5s.94-1,1.43-1.53c.25-.26.49-.52.75-.78l1.55-1.6c.27-.26.53-.53.8-.81l.82-.81c.28-.29.56-.56.85-.83.56-.56,1.14-1.11,1.73-1.69l1.81-1.7c1.85-1.71,3.82-3.48,5.9-5.26.69-.6,1.4-1.19,2.12-1.79l2.19-1.8c.75-.6,1.51-1.22,2.28-1.82s1.55-1.22,2.35-1.82c1.29-1,2.61-2,4-2.95.68-.5,1.37-1,2.07-1.48,1.12-.8,2.26-1.59,3.43-2.38.64-.44,1.29-.88,2-1.31.5-.35,1-.68,1.52-1,.92-.62,1.87-1.22,2.82-1.81l1.45-.91,2.26-1.37c.8-.48,1.6-1,2.42-1.43s1.47-.86,2.22-1.28c2.58-1.47,26.26-15,29-16.36l.95-.48c.45-.24.9-.46,1.35-.68l.24-.12C334.45,207.61,333.81,206.68,333.15,205.74Zm-83,76.51v.12q0,.81-.15,1.56c0,.15,0,.3-.06.45,0,.31-.1.62-.16.91a.43.43,0,0,1,0,.11c0,.1,0,.2-.07.29l0,.11c0,.15-.07.3-.11.44s-.15.55-.24.82l-.06.19-.12.32-.12.3a.06.06,0,0,1,0,0l-.09.19c-.09.21-.18.41-.28.6l-.17.32-.1.15a.21.21,0,0,1-.06.08h0a2.59,2.59,0,0,1-.25.39,3.55,3.55,0,0,1-.23.31l-.06.07-.07.08-.06.07a2.23,2.23,0,0,1-.26.27l-.26.23a4.27,4.27,0,0,1-.44.3,2.45,2.45,0,0,1-1.08.34h-.44l-.13,0-.27-.07a.6.6,0,0,1-.21-.08,2.3,2.3,0,0,1-.46-.25,1.43,1.43,0,0,1-.22-.15l0,0h0a.52.52,0,0,1-.11-.1l-.26-.22-.06-.05a6.37,6.37,0,0,1-1-1.39c-.1-.18-.2-.37-.29-.57s-.21-.46-.31-.71a.14.14,0,0,0,0-.06c-.06-.15-.12-.32-.17-.49a.25.25,0,0,1,0-.07c-.07-.2-.13-.41-.19-.62s-.1-.36-.14-.54c-.14-.55-.25-1.13-.34-1.73,0-.23-.07-.48-.09-.73v0c0-.05,0-.1,0-.14s0-.29,0-.44a.22.22,0,0,1,0-.08c0-.15,0-.32,0-.48h0c0-.35,0-.68,0-1s0-.69,0-1c0-.12,0-.24,0-.36a4.07,4.07,0,0,1,0-.5s0,0,0-.06c0-.3.07-.6.11-.89a.35.35,0,0,1,0-.06s0-.07,0-.1a1.66,1.66,0,0,0,0-.22,14.6,14.6,0,0,1,.32-1.6s0,0,0-.06c.07-.26.15-.52.23-.76a11.07,11.07,0,0,1,.74-1.83c.05-.11.1-.22.16-.33l.19-.29h0l.18-.28h0l0,0v0l.05-.07.07-.09.24-.29v0l.2-.2q.17-.17.33-.3a3.92,3.92,0,0,1,.32-.25l.26-.15a.93.93,0,0,1,.19-.11l.24-.07a2.22,2.22,0,0,1,.37-.09l.17,0h.18c2.63,0,4.75,4.52,4.75,10.1C250.16,281.56,250.15,281.9,250.13,282.25Z" />
        <path class="BUNTAI_WALRUS_OUTFIT_BUNTAI_WALRUS_OUTFIT-49_cls-7" d="M245.4,306.77a3.8,3.8,0,1,0,4.09,3.79A3.95,3.95,0,0,0,245.4,306.77Z" />
        <path class="BUNTAI_WALRUS_OUTFIT_BUNTAI_WALRUS_OUTFIT-49_cls-7" d="M241.82,340.35c2.59,3.06,10.8-1.53,3.41-10.49C245.23,329.86,238.09,336,241.82,340.35Z" />
        <path class="BUNTAI_WALRUS_OUTFIT_BUNTAI_WALRUS_OUTFIT-49_cls-7" d="M229.33,327c3.93,2.34,9.23-2.64,9.23-2.64C230,320.29,227,325.63,229.33,327Z" />
        <path class="BUNTAI_WALRUS_OUTFIT_BUNTAI_WALRUS_OUTFIT-49_cls-7" d="M223,305.36c6,.14,7-8.82,7-8.82C217.83,296.4,218.76,305.25,223,305.36Z" />
        <path class="BUNTAI_WALRUS_OUTFIT_BUNTAI_WALRUS_OUTFIT-49_cls-7" d="M227.52,286.43c-10.18-6.15-13.8,1.86-11,3.95C221.2,293.91,227.52,286.43,227.52,286.43Z" />
        <path class="BUNTAI_WALRUS_OUTFIT_BUNTAI_WALRUS_OUTFIT-49_cls-7" d="M118.88,255.6c0-1.77,0-3.73-.06-5.83-.16-5.57-9.21-38.8-10.61-45,.07-.12.14-.24.2-.36a4.82,4.82,0,0,1,0-.93q2.57-2.49,5.2-5.1a2.72,2.72,0,0,1,.54.15c.21.77.4,2.59.58,3.36.07.31.13.62.2.94.13.54.23,1.08.35,1.62s.17.89.25,1.33c.18,1,8.83,28.74,9,29.74.07.48.15,1,.21,1.44s.14.95.2,1.42h0a.53.53,0,0,0,0,.12c0,.32.08.64.11,1s.09.73.13,1.1c.29,2.61.5,5.2.65,7.69h0c.25,4.23.33,8.17.33,11.48C123.69,258.36,121.29,257,118.88,255.6Z" />
        <path class="BUNTAI_WALRUS_OUTFIT_BUNTAI_WALRUS_OUTFIT-49_cls-7" d="M31.12,358.34a5.46,5.46,0,0,0-7,1.85,4.6,4.6,0,0,0-.7,2.41A4.83,4.83,0,0,0,26.26,367a148.85,148.85,0,0,0,52.28,13.63h.16c.13-2.11.34-4.19.63-6.21v0a17.85,17.85,0,0,1-1.75-3.56A122.5,122.5,0,0,1,31.12,358.34Z" />
        <path class="BUNTAI_WALRUS_OUTFIT_BUNTAI_WALRUS_OUTFIT-49_cls-8" d="M83.7,356.27a97.92,97.92,0,0,0-4.37,18.09" />
        <path class="BUNTAI_WALRUS_OUTFIT_BUNTAI_WALRUS_OUTFIT-49_cls-8" d="M372.91,379c.06.77.12,1.53.15,2.28a74.86,74.86,0,0,1,.06,7.5,65.54,65.54,0,0,1-.74,7.56c-2.57,16.56-11.72,33.85-34,47.57a101.94,101.94,0,0,1-27,6.24l-.56,0-1.22.09h-.08c-17.75,1.15-34.18-2.76-67.15-1.87-6.25.16-13.12.51-20.69,1.08-2.54.22-5.14.43-7.85.68q-7.15.66-15.17,1.64c-1.77.2-3.58.43-5.41.67s-3.93.5-6,.78a171.29,171.29,0,0,1-24.11,1.69c-33.34-.11-49.9-11.05-49.9-11.05q-3.37-2.07-6.35-4.29A73.6,73.6,0,0,1,90.23,423a61.43,61.43,0,0,1-10.75-25.87c-.16-1-.31-1.95-.42-2.92-.07-.48-.13-1-.17-1.44s-.1-1-.13-1.45c0-.08,0-.17,0-.25v0a72.58,72.58,0,0,1,0-10.42c.14-2.11.35-4.19.63-6.21" />
        <path class="BUNTAI_WALRUS_OUTFIT_BUNTAI_WALRUS_OUTFIT-49_cls-8" d="M79.34,374.39h0v0a17.85,17.85,0,0,1-1.75-3.56,27.12,27.12,0,0,1-1.14-4.25,53.49,53.49,0,0,1,.15-16.95" />
        <path class="BUNTAI_WALRUS_OUTFIT_BUNTAI_WALRUS_OUTFIT-49_cls-8" d="M31.92,314.41c.83.54,1.65,1.09,2.47,1.65,1,.7,2.09,1.41,3.12,2.14s2.12,1.48,3.18,2.23l1,.68c.9.65,1.8,1.3,2.69,2,.47.34.94.68,1.4,1,2,1.48,4,3,5.95,4.5,1.22.93,2.44,1.88,3.64,2.85s2.26,1.8,3.38,2.71q.84.68,1.68,1.38a.12.12,0,0,1,.07,0c.77.62,1.53,1.26,2.29,1.9l1.62,1.36c1.55,1.3,3.07,2.62,4.58,3.94.57.48,1.14,1,1.7,1.48l2.91,2.6c1,.9,2,1.82,3,2.73h0c2.43,2.21,4.78,4.43,7.11,6.66q2,1.88,3.88,3.77t3.8,3.77q3.16,3.18,6.2,6.35c1.11,1.16,2.2,2.32,3.29,3.47s2.15,2.3,3.21,3.45,2.11,2.3,3.14,3.44l2.86,3.19.2.22,3,3.4c.86,1,1.71,2,2.54,2.94l.2.22.11.13.06.07a2.32,2.32,0,0,1,.21.25.34.34,0,0,1,.06.06.71.71,0,0,0,.07.09c.86,1,1.71,2,2.54,3,.65.76,1.28,1.52,1.9,2.27q2.87,3.42,5.53,6.74c.79,1,1.57,2,2.33,2.91.38.48.76.95,1.12,1.42s1,1.22,1.43,1.82c.65.82,1.28,1.64,1.91,2.45l2.12,2.77,1,1.28,1,1.27,1.35,1.79c1.42,1.89,2.78,3.74,4.08,5.52l1.91,2.65.92,1.29c.47.65.91,1.28,1.35,1.9l.42.6c.26.36.51.72.75,1.07s.43.61.64.91c.1.15.21.28.3.43s.27.4.41.59l.4.57.85,1.22,2.16,3.19c.23.35.47.69.7,1l.67,1,.74,1.11.85,1.28q1.64,2.5,2.93,4.53c2.94,4.6,4.47,7.22,4.47,7.22" />
        <path class="BUNTAI_WALRUS_OUTFIT_BUNTAI_WALRUS_OUTFIT-49_cls-8" d="M311.43,450.09c-.68-1.28-1.38-2.58-2.1-3.86-1-1.84-2-3.67-3.07-5.48l-1.49-2.59c-.23-.39-.46-.79-.69-1.17s-.46-.79-.69-1.17c-.32-.55-.64-1.11-1-1.66l-.52-.86c-.25-.43-.51-.86-.77-1.29l-.27-.44c-.33-.56-.66-1.11-1-1.65l-.82-1.34-.83-1.33-.83-1.34c-.27-.45-.55-.89-.83-1.33l-1.92-3c-.32-.5-.64-1-1-1.5s-.64-1-1-1.5c-.54-.83-1.08-1.66-1.64-2.48s-.88-1.34-1.33-2c-1-1.49-2-3-3-4.44l-.51-.73-.51-.74q-.49-.74-1-1.47c-.18-.27-.38-.54-.57-.82l-1.48-2.09-2.09-2.91-.79-1.08c-.67-1-1.36-1.88-2.06-2.82l-.73-1c-.15-.21-.3-.42-.46-.62s-.3-.41-.46-.61l-.51-.68-1-1.27-1-1.26c-.48-.64-1-1.28-1.46-1.91l-.3-.4c-.67-.86-1.33-1.72-2-2.57h0c-.55-.69-1.09-1.39-1.63-2.08-.86-1.09-1.72-2.17-2.59-3.24l-.19-.23-1.54-1.91-.35-.43c-.64-.77-1.27-1.56-1.92-2.33-.3-.38-.62-.76-.94-1.14q-2.12-2.57-4.26-5.07c-.67-.78-1.33-1.56-2-2.34l-1.05-1.21a2.91,2.91,0,0,0-.24-.27l-.24-.29c-.15-.16-.29-.33-.43-.49l-.27-.31-.72-.81-.73-.82a2.32,2.32,0,0,0-.21-.25l-.15-.17c-.16-.18-.31-.37-.48-.55s-.17-.19-.26-.29l-.25-.27-.12-.14-.9-1-.18-.19-.44-.49c-.56-.63-1.12-1.25-1.69-1.87-.29-.32-.56-.64-.86-.95l-.78-.85c-.65-.72-1.3-1.42-2-2.14h0q-6.45-7-13.07-13.62c-.64-.65-1.3-1.3-1.94-1.93s-1.41-1.42-2.13-2.12-1.42-1.4-2.14-2.09c-1.42-1.39-2.86-2.77-4.3-4.13-1.12-1.08-2.26-2.15-3.4-3.21L213,325.11,211.79,324l-1.22-1.11-1.77-1.61-1.77-1.6q-1.77-1.59-3.55-3.15c-.26-.23-.5-.45-.74-.65-1-.92-2.06-1.81-3.1-2.7l-1.83-1.59L196,310,194.73,309l-1.25-1.05-2.75-2.29q-2.39-2-4.76-3.9l-1-.82-1-.79a0,0,0,0,0,0,0h0l0,0c-.89-.72-1.79-1.43-2.68-2.13l-.31-.26-.29-.22-.09-.07c-.24-.2-.49-.4-.74-.58l-.05,0-.1-.09-.05,0-.1-.09-.2-.14c-.18-.15-.35-.29-.54-.42-.74-.59-1.49-1.17-2.23-1.74l-1.13-.88-2.88-2.19c-3.3-2.52-6.59-4.95-9.89-7.32-1-.71-1.94-1.41-2.91-2.1l-.5-.36-2.05-1.45q-3.06-2.16-6.12-4.24c-.86-.58-1.7-1.16-2.55-1.72s-1.7-1.14-2.55-1.69l-.51-.35-.27-.18-.16-.11-.95-.62q-3.54-2.32-7.07-4.56c-1.21-.77-2.43-1.53-3.64-2.28s-2.42-1.49-3.62-2.22-2.41-1.46-3.61-2.17c-2.43-1.45-4.83-2.85-7.24-4.2-.82-.47-1.66-.95-2.49-1.4l-.75-.41-.14-.08-.11-.08q-3.27-1.81-6.5-3.54c-.66-.36-1.34-.71-2-1.06-8.28-4.36-16.36-8.25-24.15-11.61l-2.12-.9c-.94-.4-1.87-.8-2.8-1.17s-2.12-.87-3.16-1.28l-2-.78" />
        <path class="BUNTAI_WALRUS_OUTFIT_BUNTAI_WALRUS_OUTFIT-49_cls-8" d="M242.43,354.49q.54-.47,1.08-1,8.61-7.66,17.42-14.83H261c1.19-1,2.39-1.93,3.58-2.88q3.85-3.07,7.73-6l1.53-1.17,2.43-1.83c.4-.31.81-.62,1.21-.91s.81-.61,1.21-.9c1.06-.8,2.13-1.58,3.19-2.35l3.6-2.61,3.75-2.66c1.59-1.12,3.19-2.23,4.78-3.32l3.32-2.26q8-5.37,15.88-10.27l.68-.42c1.22-.76,2.44-1.5,3.66-2.24l4-2.41c1.33-.79,2.66-1.56,4-2.34h0l1.77-1c.59-.34,1.17-.68,1.77-1s1.18-.67,1.76-1,1.18-.67,1.77-1a391.12,391.12,0,0,1,45.59-21.78" />
        <path class="BUNTAI_WALRUS_OUTFIT_BUNTAI_WALRUS_OUTFIT-49_cls-8" d="M398.41,358.52c-8.41,6.16-16.39,12.57-23.92,19.06-.18.15-.35.31-.54.46s-.69.61-1,.9v0a492.66,492.66,0,0,0-63.58,67.27" />
        <path class="BUNTAI_WALRUS_OUTFIT_BUNTAI_WALRUS_OUTFIT-49_cls-8" d="M77.58,370.8a122.5,122.5,0,0,1-46.46-12.46,5.46,5.46,0,0,0-7,1.85,4.6,4.6,0,0,0-.7,2.41A4.83,4.83,0,0,0,26.26,367a148.85,148.85,0,0,0,52.28,13.63" />
        <path class="BUNTAI_WALRUS_OUTFIT_BUNTAI_WALRUS_OUTFIT-49_cls-8" d="M373.19,388.73l1.41-.19c5.23-.77,9.83-1.14,23.43-7.26a3.72,3.72,0,0,0,1.72-5.35,4.3,4.3,0,0,0-5.57-1.45c-12.51,6.41-16.05,6-20.15,6.63-.55.09-.84.12-.84.12" />
        <path class="BUNTAI_WALRUS_OUTFIT_BUNTAI_WALRUS_OUTFIT-49_cls-8" d="M118.88,255.6c0-1.77,0-3.73-.06-5.83-.16-5.57-9.21-38.8-10.61-45" />
        <path class="BUNTAI_WALRUS_OUTFIT_BUNTAI_WALRUS_OUTFIT-49_cls-8" d="M126.12,259.8c0-3.31-.08-7.25-.33-11.48-.15-2.49-.35-5.09-.65-7.71,0-.36-.08-.73-.13-1.09s-.06-.65-.1-1c0-.05,0-.08,0-.12h0c-.06-.47-.13-.94-.2-1.42s-.14-1-.21-1.44c-.15-1-8.79-28.74-9-29.74-.07-.44-.16-.88-.25-1.34s-.22-1.07-.35-1.61c-.05-.32-.12-.63-.2-.94-.18-.77-.36-2.59-.58-3.36" />
        <path class="BUNTAI_WALRUS_OUTFIT_BUNTAI_WALRUS_OUTFIT-49_cls-8" d="M325.54,294.07h0c-.3-1.14-.56-2.37-.77-3.65-.1-.64-.2-1.29-.28-2s-.15-1.34-.21-2-.11-1.37-.15-2.06-.09-1.55-.12-2.33c0-.43,0-.86,0-1.28a140,140,0,0,1,.69-16.44c.08-.58.17-1.17.27-1.78s.2-1.25.31-1.91.19-1.14.29-1.73c0-.25.09-.51.14-.77.09-.52.18-1,.28-1.56,0-.09,0-.21.08-.36s.15-.52.26-.88q.09-.3.21-.66c.13-.42.29-.89.46-1.42l.16-.48c.12-.35.24-.73.38-1.13.38-1.14.82-2.43,1.3-3.83,1.53-4.43,3.47-10,5.32-15.22l.3-.86c.34-1,.68-1.95,1-2.9l.59-1.71c.45-1.28.88-2.51,1.28-3.67l.63-1.8.57-1.65.34-1c.56-1.65,1-2.92,1.21-3.66" />
        <path class="BUNTAI_WALRUS_OUTFIT_BUNTAI_WALRUS_OUTFIT-49_cls-8" d="M344,220.65c-2.1,7.71-11.19,37.69-11.56,40.43,0,0-1.59,17.6.17,29h0" />
        <path class="BUNTAI_WALRUS_OUTFIT_BUNTAI_WALRUS_OUTFIT-49_cls-8" d="M245.4,264.52h0c-2.32-2.87-4.87-5.76-7.6-8.65-.68-.73-1.38-1.45-2.08-2.17-1.75-1.8-3.56-3.6-5.39-5.36-.73-.71-1.47-1.41-2.21-2.11-.37-.36-.74-.7-1.12-1.05q-1.11-1-2.22-2.07-2.81-2.57-5.59-5c-.73-.64-1.46-1.29-2.19-1.91-1.09-.95-2.18-1.88-3.24-2.78-12.09-10.25-22-17.52-22-17.52a150.27,150.27,0,0,0-18.47-11.63l-1.43-.77-1.34-.72-1.23-.64h0l-1.61-.84-.47-.24h0l-1-.51-.69-.34-.07,0-.15-.07-.49-.24-.44-.18-.44-.18h0l-1.84-.72h0c-1.27-.49-2.61-1-4-1.51l-2.49-.89-1.55-.53-1.48-.51c-3.16-1.06-6.49-2.09-9.87-3-.71-.2-1.43-.39-2.15-.57-2.2-.56-11.9-3.45-17.87-5.08" />
        <path class="BUNTAI_WALRUS_OUTFIT_BUNTAI_WALRUS_OUTFIT-49_cls-8" d="M118.52,192.27c1.3.24,2.79.57,4.4,1l1.24.31,2,.53,1.39.38c.94.25,1.89.52,2.87.81l.73.21c2.74.79,5.57,1.66,8.35,2.55l2.84.92,2.15.7,1.17.39,2.26.77c.36.12.73.24,1.08.37l1.8.63,2.21.79,1,.37c1.47.54,2.71,1,3.64,1.4h0s1.51.68,3.88,1.83l1.17.58h0l.84.43h0c.58.28,1.2.6,1.83.93h0c1.6.82,3.35,1.73,5.16,2.73a113.69,113.69,0,0,1,13.75,8.56l0,0,.3.22c.23.16.59.41,1,.75a.94.94,0,0,1,.12.09l.13.09.2.14c1.22.89,3,2.19,5.19,3.84l.73.55.52.4.25.18c1.7,1.29,3.6,2.75,5.65,4.36l1.11.87,2.3,1.81,2,1.59,2.2,1.78,2.17,1.79c.37.29.74.61,1.11.92s1,.8,1.46,1.21l.77.66.57.48c.38.31.76.63,1.14,1l.57.49c1.52,1.29,3.07,2.64,4.62,4,.58.5,1.15,1,1.74,1.55,5.17,4.63,10.35,9.54,15.1,14.54.3.3.6.61.9.94,1.11,1.17,2.2,2.35,3.25,3.54h0l.14.16" />
        <path class="BUNTAI_WALRUS_OUTFIT_BUNTAI_WALRUS_OUTFIT-49_cls-8" d="M331.39,202.86c-7.05,4-20.24,11.48-21.45,12.14l-1.79,1c-1.73,1-3.5,2-5.27,3.09-.87.53-1.75,1.07-2.62,1.62q-2.68,1.67-5.37,3.45c-.9.58-1.8,1.18-2.69,1.8s-1.47,1-2.2,1.48l-2.17,1.51c-.63.43-1.25.87-1.87,1.31l-.3.22c-.87.6-1.73,1.23-2.58,1.85a1,1,0,0,0-.17.12c-1.43,1-2.84,2.08-4.24,3.12-1.79,1.34-3.56,2.69-5.28,4L271.6,241c-3.43,2.69-6.7,5.35-9.71,7.91L259.47,251c-1.58,1.35-3.06,2.68-4.46,3.94-.69.63-1.37,1.25-2,1.86l-1,.9c-.45.43-.9.85-1.32,1.27-.11.09-.2.19-.31.3s-.22.21-.33.32l-1,1-.92.94-.78.82c-.75.8-1.4,1.54-2,2.22h0" />
        <path class="BUNTAI_WALRUS_OUTFIT_BUNTAI_WALRUS_OUTFIT-49_cls-8" d="M335.09,208.5l-.24.12c-.45.22-.9.44-1.35.68l-.95.48c-2.74,1.4-26.42,14.89-29,16.36-.75.42-1.49.85-2.22,1.28s-1.62,1-2.42,1.43l-2.26,1.37-1.45.91c-.95.6-1.9,1.19-2.82,1.81-.51.32-1,.65-1.52,1-.67.43-1.32.87-2,1.31-1.17.79-2.31,1.58-3.43,2.38-.7.49-1.39,1-2.07,1.48-1.35,1-2.67,2-4,2.95-.8.6-1.58,1.22-2.35,1.82s-1.53,1.22-2.28,1.82l-2.19,1.8c-.72.6-1.43,1.19-2.12,1.79-2.08,1.78-4.05,3.55-5.9,5.26l-1.81,1.7c-.59.58-1.17,1.13-1.73,1.69l-.85.83-.82.81c-.27.28-.53.55-.8.81L257,262c-.26.26-.5.52-.75.78-.49.52-1,1-1.43,1.53s-.92,1-1.36,1.5l-1,1.08c-.32.35-.62.71-.93,1.05h0" />
        <path class="BUNTAI_WALRUS_OUTFIT_BUNTAI_WALRUS_OUTFIT-49_cls-8" d="M255.61,281.21c0,.36,0,.71,0,1.07v0c0,.28,0,.55-.05.83s-.07.82-.12,1.23a24.1,24.1,0,0,1-.95,4.52c0,.09-.07.19-.1.28-.1.32-.22.64-.34.95s-.29.73-.45,1.08a4.09,4.09,0,0,1-.23.47l-.28.57,0,.05-.32.55a5.07,5.07,0,0,1-.34.55l-.36.52a10.46,10.46,0,0,1-3,2.93c-.14.09-.29.17-.44.25l-.25.13a4.35,4.35,0,0,1-.59.25l-.34.13-.12,0a2.75,2.75,0,0,1-.41.11,5.29,5.29,0,0,1-.78.13l-.22,0-.44,0-.46,0a3.78,3.78,0,0,1-.47-.06l-.4-.07a.32.32,0,0,1-.14,0,2.36,2.36,0,0,1-.38-.1l-.34-.11a1.63,1.63,0,0,1-.25-.1.26.26,0,0,1-.1,0h0a1.42,1.42,0,0,1-.25-.12l-.42-.21a8.88,8.88,0,0,1-.81-.5l-.39-.29a9.22,9.22,0,0,1-1.09-1l0,0c-.16-.16-.31-.33-.45-.5s-.34-.41-.5-.63l-.37-.53v0a14.92,14.92,0,0,1-1-1.67l0,0,0,0c-.2-.4-.39-.81-.57-1.24l-.1-.25-.14-.39-.06-.15-.21-.59-.27-.87c-.09-.35-.18-.69-.26-1.05l0-.14c-.18-.78-.33-1.57-.44-2.4,0-.26-.07-.53-.09-.8s-.07-.68-.09-1a2.81,2.81,0,0,1,0-.29,1.09,1.09,0,0,1,0-.18c0-.05,0-.1,0-.15a.57.57,0,0,0,0-.13s0,0,0,0v-.2a0,0,0,0,1,0,0v-.08s0,0,0,0a0,0,0,0,1,0,0,0,0,0,0,1,0,0,0,0,0,0,1,0,0,0,0,0,0,1,0,0s0,0,0,0,0,0,0,0a0,0,0,0,1,0,0s0,0,0,0,0,0,0,0,0,0,0,0a0,0,0,0,1,0,0,.49.49,0,0,1,0-.12v-.3h0V281h0s0,0,0,0,0,0,0,0v-.14c0-.09,0-.16,0-.25v0a.09.09,0,0,1,0,0c0-.3,0-.6,0-.89a.71.71,0,0,1,0-.15,6,6,0,0,1,.05-.61c0-.36.07-.7.11-1s.09-.67.15-1a1.86,1.86,0,0,1,.06-.34c0-.08,0-.17.05-.25l.12-.59s0,0,0,0a2,2,0,0,1,0-.24c0-.07,0-.14.05-.21a0,0,0,0,1,0,0,9.32,9.32,0,0,1,.23-.91c.09-.3.18-.61.28-.9s.11-.33.17-.49,0-.13.07-.19a1.17,1.17,0,0,1,.09-.24c.17-.46.37-.91.57-1.34a1.47,1.47,0,0,0,.1-.22.41.41,0,0,0,.05-.09,15,15,0,0,1,1.25-2.12l.45-.6c.16-.21.32-.4.49-.59a8,8,0,0,1,5-2.84,4.74,4.74,0,0,1,.65-.05h.06a8.05,8.05,0,0,1,6.16,3.43h0c.3.38.59.79.87,1.22s.54.9.78,1.38a19.91,19.91,0,0,1,1.27,3.15,23.32,23.32,0,0,1,.65,2.65c.11.62.21,1.25.28,1.89A29,29,0,0,1,255.61,281.21Z" />
        <path class="BUNTAI_WALRUS_OUTFIT_BUNTAI_WALRUS_OUTFIT-49_cls-8" d="M250.16,281.21c0,5.59-2.12,10.11-4.74,10.11s-4.75-4.52-4.75-10.11,2.12-10.11,4.75-10.11S250.16,275.63,250.16,281.21Z" />
        <path class="BUNTAI_WALRUS_OUTFIT_BUNTAI_WALRUS_OUTFIT-49_cls-8" d="M227.52,286.43c-10.18-6.15-13.8,1.86-11,3.95C221.2,293.91,227.52,286.43,227.52,286.43Z" />
        <path class="BUNTAI_WALRUS_OUTFIT_BUNTAI_WALRUS_OUTFIT-49_cls-8" d="M230,296.54c-12.16-.14-11.23,8.71-7,8.82C229,305.5,230,296.54,230,296.54Z" />
        <path class="BUNTAI_WALRUS_OUTFIT_BUNTAI_WALRUS_OUTFIT-49_cls-8" d="M263.3,286.43c10.18-6.15,13.79,1.86,11,3.95C269.64,293.91,263.3,286.43,263.3,286.43Z" />
        <path class="BUNTAI_WALRUS_OUTFIT_BUNTAI_WALRUS_OUTFIT-49_cls-8" d="M260.85,296.54c12.14-.14,11.23,8.71,7,8.82C261.85,305.5,260.85,296.54,260.85,296.54Z" />
        <ellipse class="BUNTAI_WALRUS_OUTFIT_BUNTAI_WALRUS_OUTFIT-49_cls-8" cx="245.4" cy="310.56" rx="4.09" ry="3.79" />
        <path class="BUNTAI_WALRUS_OUTFIT_BUNTAI_WALRUS_OUTFIT-49_cls-8" d="M238.56,324.39c-8.54-4.1-11.57,1.24-9.23,2.64C233.26,329.37,238.56,324.39,238.56,324.39Z" />
        <path class="BUNTAI_WALRUS_OUTFIT_BUNTAI_WALRUS_OUTFIT-49_cls-8" d="M252.24,324.39c8.55-4.1,11.58,1.24,9.24,2.64C257.55,329.37,252.24,324.39,252.24,324.39Z" />
        <path class="BUNTAI_WALRUS_OUTFIT_BUNTAI_WALRUS_OUTFIT-49_cls-8" d="M245.23,329.86c7.39,9-.82,13.55-3.41,10.49C238.09,336,245.23,329.86,245.23,329.86Z" />
        <path class="BUNTAI_WALRUS_OUTFIT_BUNTAI_WALRUS_OUTFIT-49_cls-8" d="M114.33,197.67q-.1.41-.21.9a2.72,2.72,0,0,0-.54-.15" />
        <path class="BUNTAI_WALRUS_OUTFIT_BUNTAI_WALRUS_OUTFIT-49_cls-8" d="M108.38,203.52a4.82,4.82,0,0,0,0,.93c-.06.12-.13.24-.2.36" />
        <g class="BUNTAI_WALRUS_OUTFIT_BUNTAI_WALRUS_OUTFIT-49_cls-9">
          <path d="M242.43,448.37c-6.26.16-13.12.51-20.69,1.09-2.54.21-5.15.42-7.85.68q-7.17.64-15.17,1.63-2.66.32-5.42.67c-1.94.25-3.93.5-6,.78a171.29,171.29,0,0,1-24.11,1.69c-33.34-.11-49.91-11.05-49.91-11.05-2.24-1.38-4.36-2.81-6.34-4.28A73.43,73.43,0,0,1,90.23,423a61.43,61.43,0,0,1-10.75-25.87c-.16-1-.31-1.95-.42-2.92-.07-.47-.12-1-.18-1.44s-.09-1-.12-1.45c0-.08,0-.17,0-.25,5.12,8.86,27.31,42.42,69.38,40.8-10.89-14.47-21.24-28.11-31.6-40.74a.71.71,0,0,1-.07-.09.34.34,0,0,0-.06-.06,2.32,2.32,0,0,0-.21-.25l-.06-.07-.11-.13C98.37,369,80.7,350.39,60.46,335.59a.12.12,0,0,0-.07,0C48.67,327,39.15,320.15,31.78,315c0-.18.09-.36.14-.55,2.81-11.2,7.77-28.08,15.14-42.94,1.58-3.19,3.23-6.24,4.9-9.14,26.47,18,112.12,78.82,136.39,125.71C175.4,362,173.77,358.7,173.57,358.28,175.21,360.33,222.77,420.41,242.43,448.37Z" />
          <path d="M374.16,387.78l.44.76c-.92.14-1.41.19-1.41.19h-.07a67.88,67.88,0,0,1-.75,7.56c-2.56,16.56-11.72,33.85-33.95,47.57a102,102,0,0,1-27,6.24,5.07,5.07,0,0,1-.56,0c-4.49-8-13.75-23.92-28.26-46.37,3.31-21.09,74.83-70.27,76.7-71.52-.24.33-2.58,3.42-24.58,32.53,14.59-14.61,36.93-31.81,58-46.9.11.54.21,1.08.31,1.61,2.94,15.79,4.53,30.11,5.33,39-8.41,6.16-16.39,12.57-23.92,19.06-.35.24-.54.35-.54.35V378l.07,3.07Z" />
          <path d="M261,338.68l-16.49,15.81-1-1c-6.31-6.18-41.5-40.32-63.91-56.9l-.1-.09a.9.9,0,0,1-.19-.15c-23.93-17.65-61.48-41.23-63.81-42.69l.9.49,2.48,1.41c0-1.77,0-3.73-.06-5.83a6.78,6.78,0,0,0,7-1.46s56,32,71.51,46.26,40,54.17,51.86,49.14l11.77-5Z" />
          <path d="M242.79,272.8s-.24,8.36,2.3,12.08,2.67,3.56,3.2,4.38,1.2,5.31-1.87,7.28l-3.55.85s-8-7.14-7.64-16.64,5.26-17,9.26-16.25l4,.79A9.14,9.14,0,0,0,242.79,272.8Z" />
        </g>
        <path class="BUNTAI_WALRUS_OUTFIT_BUNTAI_WALRUS_OUTFIT-49_cls-10" d="M108.38,203.52q2.57-2.49,5.2-5.1.38-.36.75-.75l.43-.42.12-.12.05,0a23.75,23.75,0,0,0,2-2.53c.49-.7,1-1.46,1.58-2.28,1-1.37,2-2.87,3.1-4.36l0,0c.3-.4.61-.81.93-1.2,6,1.63,15.67,4.52,17.87,5.08.72.18,1.44.37,2.15.57,3.38.9,6.71,1.93,9.87,3l1.48.51,1.55.53,2.49.89c1.4.51,2.74,1,4,1.51h0c.64.24,1.26.47,1.84.72h0l.44.18.45.17.21.1.27.15.15.07.07,0,.69.34,1,.51h0l.47.24c.49.24,1,.53,1.61.84h0l1.23.64,1.34.72,1.43.77a150.27,150.27,0,0,1,18.47,11.63s9.94,7.27,22,17.52c1.06.9,2.15,1.83,3.24,2.78.73.62,1.46,1.27,2.19,1.91q2.79,2.44,5.59,5,1.11,1,2.22,2.07c.38.35.75.69,1.12,1.05.74.7,1.48,1.4,2.21,2.11,1.83,1.76,3.64,3.56,5.39,5.36.7.72,1.4,1.44,2.08,2.17,2.73,2.89,5.28,5.78,7.6,8.65h.06c.57-.68,1.22-1.42,2-2.22l.78-.82.92-.94,1-1c.11-.11.23-.21.33-.32s.2-.21.31-.3c.42-.42.87-.84,1.32-1.27l1-.9c.64-.61,1.32-1.23,2-1.86,1.4-1.26,2.88-2.59,4.46-3.94l2.42-2.07c3-2.56,6.28-5.22,9.71-7.91l1.79-1.39c1.72-1.34,3.49-2.69,5.28-4,1.4-1,2.81-2.09,4.24-3.12a1,1,0,0,1,.17-.12c.85-.62,1.71-1.24,2.58-1.85l.3-.22c.62-.44,1.24-.88,1.87-1.31l2.17-1.51c.73-.5,1.46-1,2.2-1.48s1.79-1.21,2.69-1.8q2.69-1.78,5.37-3.45c.87-.55,1.75-1.09,2.62-1.62,1.77-1.07,3.54-2.11,5.27-3.09l1.79-1c1.21-.66,14.4-8.18,21.45-12.14l1.76,2.88c.66.94,1.3,1.87,1.94,2.76,1.73,2.44,3.38,4.71,5,6.86,1.36,1.84,2.67,3.6,3.95,5.29" />
        <path class="BUNTAI_WALRUS_OUTFIT_BUNTAI_WALRUS_OUTFIT-49_cls-10" d="M72.65,233.29a186.31,186.31,0,0,0-20.69,29c-1.67,2.9-3.32,5.95-4.9,9.14-7.37,14.86-12.33,31.74-15.14,42.94" />
        <path class="BUNTAI_WALRUS_OUTFIT_BUNTAI_WALRUS_OUTFIT-49_cls-8" d="M398.41,358.52c-.8-8.91-2.39-23.23-5.33-39-.1-.53-.2-1.07-.31-1.61-3.38-17.17-10.26-37.63-14.56-49.61" />
      </g>
    </g>
  </g>
</svg>