<svg xmlns="http://www.w3.org/2000/svg" xmlns:xlink="http://www.w3.org/1999/xlink" viewBox="0 0 432 432">
  <defs>
    <style>.BUNTAI_WALRUS_OUTFIT_BUNTAI_WALRUS_OUTFIT-42_cls-1,.BUNTAI_WALRUS_OUTFIT_BUNTAI_WALRUS_OUTFIT-42_cls-10,.BUNTAI_WALRUS_OUTFIT_BUNTAI_WALRUS_OUTFIT-42_cls-8{fill:none;}.BUNTAI_WALRUS_OUTFIT_BUNTAI_WALRUS_OUTFIT-42_cls-2{isolation:isolate;}.BUNTAI_WALRUS_OUTFIT_BUNTAI_WALRUS_OUTFIT-42_cls-3{clip-path:url(#BUNTAI_WALRUS_OUTFIT_BUNTAI_WALRUS_OUTFIT-42_clip-path);}.BUNTAI_WALRUS_OUTFIT_BUNTAI_WALRUS_OUTFIT-42_cls-4{fill:#14161a;}.BUNTAI_WALRUS_OUTFIT_BUNTAI_WALRUS_OUTFIT-42_cls-5{fill:#3a206c;}.BUNTAI_WALRUS_OUTFIT_BUNTAI_WALRUS_OUTFIT-42_cls-6{fill:#f2fffb;}.BUNTAI_WALRUS_OUTFIT_BUNTAI_WALRUS_OUTFIT-42_cls-7{fill:#fff;}.BUNTAI_WALRUS_OUTFIT_BUNTAI_WALRUS_OUTFIT-42_cls-10,.BUNTAI_WALRUS_OUTFIT_BUNTAI_WALRUS_OUTFIT-42_cls-8{stroke:#000;stroke-linecap:round;stroke-linejoin:round;}.BUNTAI_WALRUS_OUTFIT_BUNTAI_WALRUS_OUTFIT-42_cls-8{stroke-width:2.13px;}.BUNTAI_WALRUS_OUTFIT_BUNTAI_WALRUS_OUTFIT-42_cls-9{opacity:0.43;mix-blend-mode:multiply;}.BUNTAI_WALRUS_OUTFIT_BUNTAI_WALRUS_OUTFIT-42_cls-10{stroke-width:1.93px;}</style>
    <clipPath id="clip-path">
      <path class="BUNTAI_WALRUS_OUTFIT_BUNTAI_WALRUS_OUTFIT-42_cls-1" d="M-6.89-3.42v441H443.29v-441Zm321.36,270.9a.93.93,0,0,1-.59.21,1,1,0,0,1-.68-.28,25,25,0,0,1-4.38-6.56c-.48,8.51-1.27,18.22-2.5,23.12a1,1,0,0,1-.94.73h-.14a1,1,0,0,1-.82-1c.07-2.06.16-5.08.18-8.62a52.61,52.61,0,0,1-2,7.72c.07,6.19-.69,7.94-.77,8.12a1,1,0,0,1-.87.54h-.08a1,1,0,0,1-.85-.7,54.24,54.24,0,0,0-6.15-12.86l-3.59-2.16c-.63,3-1.3,6-2,9-.37,17.11-1,41.18-1.77,58.86a198.36,198.36,0,0,1-5.17,36.19.05.05,0,0,1,0,0c-.08.38-.18.76-.26,1.14l-.41,1.62c-3.93,16-10.43,33.75-13.44,33.75-2.42,0-2.54-1.74-3.05-9.06l-.4-5.52a1.11,1.11,0,0,1,0-.17c-.41-5.35-1-11.16-1.7-17.67-.1-.94-.21-2-.32-3l-.05-.53c-.07-.67-.13-1.37-.2-2.08l-.09-1c0-.43-.08-.86-.12-1.31l-.13-1.46c-.39-4.49-.8-9.82-1.22-15.86l-.22-3.14c0-.12,0-.18,0-.23-.25-3.7-.51-7.61-.76-11.61l-.18-2.88c-.19-2.91-.37-5.86-.54-8.83-.07-.94-.12-1.9-.18-2.86v-.25c-.38-6.48-.75-13-1.1-19.21l.95-.17-1,.06c0-.06,0-.12,0-.17a.86.86,0,0,1,0-.16s0-.09,0-.13v-.26c0-.14,0-.24,0-.31s0-.27,0-.42V308l0-.5a.66.66,0,0,1,0-.14c0-.17,0-.43,0-.68l0-.52c-.31-5.66-.6-11.06-.86-16l-.14-2.64c-.21-4-.4-7.7-.55-10.89l-.17-3.36c-.29-5.9-.46-9.45-.46-9.45l-.54-9.16a18.64,18.64,0,0,1-2.21,1.44l-.07,0h0a22.3,22.3,0,0,1-7.52,2.43,29,29,0,0,1-3.94.27,30.26,30.26,0,0,1-9.77-1.58l-.08,0a24.67,24.67,0,0,1-8.79-5.1l-.24.19-.44.34-.16.13-.09.06-.06,0-.71.52c-.08,4.76-.19,10.72-.33,17.42l-.08,4.11c-.06,3.41-.14,7-.22,10.61l-.06,2.58c0,1.1,0,2.2-.07,3.32-.12,5-.25,10.12-.38,15.18l-.1,3.69c-.17,6.26-.36,12.44-.56,18.29,0,.56,0,1.13-.05,1.69l-.12,3.41c0,.84-.06,1.67-.1,2.49l-.2,5c0,.75-.06,1.48-.1,2.2v.14c-.17,3.75-.41,7.42-.73,11,0,.37-.06.74-.1,1.1s-.05.7-.09,1.07a2.11,2.11,0,0,0,0,.32c-.06.58-.11,1.09-.17,1.61-.08.8-.16,1.61-.26,2.42-.31,2.82-.68,5.73-1.13,8.86a4.19,4.19,0,0,1-.08.56c-.11.76-.22,1.53-.34,2.28-.23,1.51-.46,3-.71,4.46l-.06.34c-.17,1-.34,2-.52,3-2.79,15.6-6.23,27.62-8.42,32.6-1,2.35-1.75,3.22-2.66,3.22-1.33,0-2.41-.74-3.31-2.28a7.16,7.16,0,0,1-.35-.66,27.35,27.35,0,0,1-1.67-4.87.19.19,0,0,0,0-.07c-.11-.48-.23-1-.36-1.52l.91-.34-.93.24s0-.1,0-.11c0-.19-.08-.41-.13-.62C195.21,401,194.14,393.76,193,384l-.08-.71c-.06-.55-.12-1.11-.17-1.68s-.11-1-.16-1.51a.53.53,0,0,1,0-.15c-.54-5.39-1.1-12.27-1.73-21.12,0-.26,0-.49,0-.72-.06-.83-.12-1.65-.17-2.48l0-.38c-.09-1.2-.17-2.44-.25-3.68,0-.31,0-.65-.07-1q-.21-3-.4-6.07l-.15-2.29c-.05-.72-.09-1.43-.13-2.12,0-.49-.07-1-.1-1.53l-.12-1.91a1.68,1.68,0,0,1,0-.2c0-.08,0-.25,0-.4s0-.4,0-.64c0-.51-.08-1.05-.11-1.59l0-.75c-.08-1.25-.16-2.52-.23-3.78,0-.59-.08-1.21-.12-1.82-.21-3.73-.43-7.47-.64-11.15-.06-1-.12-2.06-.17-3.09-.13-2.16-.25-4.31-.36-6.42-.05-.81-.09-1.6-.14-2.4l0-.81c-.17-3.1-.33-6.14-.48-9.05l-.08-1.45c-.06-1.22-.13-2.41-.18-3.57l-.08-1.39-.09-1.76,0-.73c-.05-.92-.09-1.82-.13-2.7,0-.47,0-.93-.07-1.4a1.47,1.47,0,0,1,0-.27l-.19-3.82v-.11l-.23-4.78c0-.32,0-.61,0-.91l0-.79-1.43.58-1.34.51a3.05,3.05,0,0,1-.29.11l-.25.09-1,.36-.18.07-.29.1-.22.07-.15,0-.13.05-.1,0-.27.08h0l0,0-.11,0-.23.06h0l-.33.11h0l-.23.08a.88.88,0,0,1-.15,0l-.26.07-.16,0-.24.08-.13,0h0l-11,4.43a47.92,47.92,0,0,0-9.2,12.85,1,1,0,0,1-.78.58h-.11a1,1,0,0,1-.78-.4c-.22-.3-1.29-2.1-1.2-8.19a49,49,0,0,1-4-11.39c0,5.08.13,9.48.28,12.2a1,1,0,0,1-.76,1l-.2,0a1,1,0,0,1-.9-.63c-1.93-5.15-3.14-15.57-3.85-24.38a34.29,34.29,0,0,1-3.65,4.62,22.51,22.51,0,0,1-3.76,3.21.91.91,0,0,1-.54.17,1,1,0,0,1-.73-.33,1,1,0,0,1,0-1.28,17.85,17.85,0,0,0,2.82-4.47v0c4.09-8.93,3.82-22.41,3.7-28.16v-.53a26.44,26.44,0,0,1,3.94-13.81,83.21,83.21,0,0,1,3.71-15.81l-.09-.17a1,1,0,0,1-.13-.47,1,1,0,0,1,.82-.94,2.44,2.44,0,0,0,.1-.24,14.72,14.72,0,0,1,3-4.29c.08-.27.16-.55.24-.85l.32-1c.27-.88.57-1.81.89-2.72s.66-1.77,1-2.5l.13-.27c.06-.14.12-.26.18-.38v0c0-.16,0-.33,0-.49a1.1,1.1,0,0,1,0-.18c-.1-1.55-.17-3.3-.21-5.56v-1.34c0-1.76,0-3.7,0-5.84v-.25c0-.4,0-.78,0-1.17v-.47c0-1.34,0-2.51-.12-3.58s-.19-2.12-.35-3.13c0,0,0-.1,0-.12-.18-1.18-.4-2.35-.69-3.72-.14-.63-.27-1.25-.41-1.87a1.42,1.42,0,0,1,0-.2l-.23-1.1s0-.1,0-.11v0a1.13,1.13,0,0,1,0-.18v0a.7.7,0,0,1,0-.14l-.19-1s0,0,0-.06a44.1,44.1,0,0,1-.64-5.67l0-.67c-.05-1.73,0-3.5.12-5.42.51-7.72,3.1-13.73,8.15-18.92.23-.24.48-.49.73-.73a52.12,52.12,0,0,1,8.85-6.71,31.48,31.48,0,0,1,5.13-9.79,1.46,1.46,0,0,1,.15-.2,31.86,31.86,0,0,1,10.58-8.9c15.19-7.94,35.31-16.16,56.36-9.18l3.7.51c15.92,2.16,28.48,3.87,36,17.3a37.94,37.94,0,0,1,2.32,4.9l.19.16q.41.34.81.72l0,0,0,0c.58.52,1.18,1,1.76,1.58a82,82,0,0,1,7.67,7.88c.26.32.47.58.66.83s.42.53.61.79l.21.29c.11.17.23.33.33.49a14.06,14.06,0,0,1,.89,1.47l.12.21c3.22,6.08,4.55,8.6,3.49,24.53,0,.55-.07,1.1-.1,1.64s-.07,1.07-.09,1.6-.06,1-.09,1.55v.05h0c-.06,1-.11,2-.16,3-.25,5.42-.4,10.79-.45,16,0,.6,0,1.2,0,1.8,0,2.15,0,4.26,0,6.31,0,1.33,0,2.62.06,3.9h0c0,1.3.06,2.59.1,3.84,0,.24,0,.45,0,.65a.92.92,0,0,1,0,.16c0,.23,0,.47,0,.69,0,.48,0,.9.05,1.32l0,.62a5.73,5.73,0,0,1,.38.62l0,.06.38.68a5.64,5.64,0,0,1,.26.55,1.17,1.17,0,0,1,.1.2c.06.14.12.26.17.4l.08.19c0,.09.1.25.16.4s.11.32.15.45.1.3.16.5.17.65.26,1l.12.46.13.55c.17.73.33,1.44.49,2.17.07.33.14.69.2,1,.11.53.19,1,.27,1.44a0,0,0,0,0,0,0,.09.09,0,0,0,0,.05c.05.27.1.56.14.83l0,.11v0c.1.55.19,1.11.27,1.66s.16,1.09.25,1.66.13.94.19,1.42a7.07,7.07,0,0,1,.09.72c.05.33.09.7.13,1.07l.06.47s0,.08,0,.12l.11.95v.11c.05.42.1.93.15,1.43l0,.29a36.27,36.27,0,0,1,2.62,13.71v.52c-.09,6.81-.33,24.89,4.39,32.82A1,1,0,0,1,314.47,267.48Z" />
    </clipPath>
  </defs>
  <g class="BUNTAI_WALRUS_OUTFIT_BUNTAI_WALRUS_OUTFIT-42_cls-2">
    <g id="outfit">
      <g class="BUNTAI_WALRUS_OUTFIT_BUNTAI_WALRUS_OUTFIT-42_cls-3">
        <path class="BUNTAI_WALRUS_OUTFIT_BUNTAI_WALRUS_OUTFIT-42_cls-4" d="M117.81,438.63H11.88l3.9-17.2q8.53-42.84,17.09-85.67c13.32,9.68,23.34,20.65,35.55,32.71l-6.33,6.68L81.7,388.43c0,.29,0,.57,0,.86a47.43,47.43,0,0,0,.16,6.42A50.51,50.51,0,0,0,86,411.45a52.73,52.73,0,0,0,12.49,17.34h0c.85.79,1.75,1.55,2.66,2.29,0,0,1.85,1.06,5.19,2.66h0C109.17,435.1,113.07,436.84,117.81,438.63Z" />
        <path class="BUNTAI_WALRUS_OUTFIT_BUNTAI_WALRUS_OUTFIT-42_cls-4" d="M390.33,340.31q7.95,49.15,15.91,98.32H330a108.73,108.73,0,0,0,11.85-7.55c1.1-.89,2.17-1.81,3.2-2.78a52.38,52.38,0,0,0,10.57-13.95c.31-.59.61-1.19.89-1.79q.85-1.8,1.56-3.66.19-.5.36-1a.3.3,0,0,0,.05-.15,4.68,4.68,0,0,0,.18-.48c0-.08.05-.17.08-.25s.11-.34.17-.51c.16-.46.3-.91.43-1.37s.26-.88.37-1.32a.58.58,0,0,0,0-.14v0c0-.14.07-.28.11-.43l.12-.48c.12-.47.23-1,.33-1.44.14-.64.26-1.28.37-1.93h0a47.44,47.44,0,0,0,.65-10.09c0-.29,0-.56,0-.85h0c.18-.26.37-.51.56-.77l.56-.78.05-.07,3.72-5.16,3.68-5.09-.3-.39c-1.54-2-3.11-4-4.73-6l-.08-.1-.75-.9a1.46,1.46,0,0,0-.16-.19l-.75-.9h0v0c1.37-1.35,2.69-2.68,4-4s2.54-2.64,3.76-3.94c0,0,0,0,0,0l4.48-4.78,1.47-1.57v0l2.32-2.46c1.56-1.65,3.12-3.27,4.72-4.86.79-.79,1.59-1.58,2.4-2.35h0c.82-.78,1.64-1.55,2.48-2.31h0l.8-.72.81-.72Z" />
        <path class="BUNTAI_WALRUS_OUTFIT_BUNTAI_WALRUS_OUTFIT-42_cls-5" d="M79.45,359.11c-.94.77-1.86,1.54-2.79,2.33l-.27.22c-2.67,2.25-5.34,4.51-8,6.81-12.21-12.06-22.23-23-35.55-32.71.06-.29.11-.57.17-.86.56-2.78,1.11-5.57,1.68-8.35s1.18-5.7,1.81-8.54c17.57,10.13,29.39,23.71,41.81,39.67Z" />
        <path class="BUNTAI_WALRUS_OUTFIT_BUNTAI_WALRUS_OUTFIT-42_cls-5" d="M390.33,340.31l-.82.71-.8.72h0c-.84.76-1.66,1.53-2.48,2.31h0c-.81.77-1.61,1.56-2.4,2.35-1.6,1.59-3.16,3.21-4.72,4.86l-2.32,2.46v0l-1.47,1.57c-1.47,1.57-3,3.16-4.48,4.78,0,0,0,0,0,0-1.22,1.3-2.48,2.62-3.76,3.94s-2.62,2.68-4,4h0q-2.76-3.3-5.64-6.5l-.46-.51-.19-.2c-.6-.67-1.22-1.34-1.84-2s-1.13-1.21-1.7-1.81c11.11-14.11,20-26.35,34-35.95.7,4.06,1.36,8.13,2,12.19.09.53.17,1.06.26,1.59.13.82.27,1.64.4,2.46.16,1,.32,2,.47,2.94Z" />
        <path class="BUNTAI_WALRUS_OUTFIT_BUNTAI_WALRUS_OUTFIT-42_cls-5" d="M369.82,376.56l-7.37,10.17,0,.08c-.39.53-.78,1.08-1.17,1.62-.11.14-.21.3-.32.44-2.18-2.44-4.4-4.85-6.69-7.21-.66-.7-1.34-1.39-2-2.08l-2.26-2.26c-.82-.81-1.65-1.61-2.49-2.42-1.48-1.41-3-2.8-4.48-4.18q-1.65-1.5-3.33-3c-.84-.74-1.69-1.47-2.55-2.2l-1.19-1c-2.14-1.81-4.33-3.58-6.54-5.32l-.06-.05-1.9-1.48c-.62-.49-1.27-1-1.91-1.45q-2.06-1.56-4.16-3.07c-1.07-.78-2.15-1.55-3.23-2.3-2.67-1.86-5.36-3.68-8.11-5.44-.79-.51-1.58-1-2.39-1.51l-2.4-1.5c-4.84-3-9.81-5.77-14.86-8.41q-6.64,4.39-13.15,8.94c-1.27.89-2.55,1.79-3.81,2.69s-2.7,1.92-4,2.88-2.86,2.08-4.28,3.12q-4.14,3.06-8.21,6.14c-1.37,1-2.75,2.09-4.11,3.15-1.67,1.29-3.33,2.58-5,3.9-.79.62-1.6,1.25-2.39,1.89s-1.65,1.31-2.47,2l-3.1,2.5h0l-4,3.26c-1.31,1.08-2.61,2.17-3.92,3.28l-3.88,3.3-.13.11q-3.69,3.18-7.32,6.4-5.83,5.18-11.51,10.48-3.63,3.39-7.21,6.86c-.86.82-1.71,1.66-2.56,2.49-.68.65-1.35,1.31-2,2l0,0q-1.72,1.71-3.44,3.43c-.67.65-1.31,1.31-2,2q-1.76,1.77-3.49,3.56-2.34,2.4-4.65,4.85c-1.36,1.43-2.71,2.86-4.05,4.31q-1.78,1.91-3.55,3.83c-1.18,1.28-2.34,2.57-3.5,3.86l-2.89,3.41L168.61,440l-6.82,8a131.39,131.39,0,0,1-20.72-2.57c1.28-2,2.92-4.32,4.7-6.77,1.37-1.91,2.83-3.88,4.27-5.78l1.06-1.41.86-1.12c.25-.34.52-.69.78-1s.48-.64.71-.94c.55-.72,1.08-1.41,1.6-2.07.33-.44.65-.86,1-1.26.14-.21.3-.4.45-.59.29-.39.58-.75.84-1.09l1.46-1.86.3-.38c.39-.51.62-.78.62-.78.5-.55,1-1.11,1.51-1.66a.2.2,0,0,0,.06-.07,3.6,3.6,0,0,1,.33-.36c1.33-1.48,2.67-2.94,4-4.4s2.73-2.95,4.14-4.42c.25-.29.53-.58.81-.87q2.51-2.66,5-5.26l.35-.35c1.65-1.7,3.32-3.4,5-5.08q2.06-2.06,4.12-4.08,1.29-1.29,2.61-2.55a.46.46,0,0,1,.07-.07q4.37-4.25,8.83-8.4c1.15-1.09,2.32-2.17,3.49-3.23,1.38-1.28,2.78-2.55,4.18-3.81q6-5.4,12.17-10.67,10.48-9,21.41-17.48,6.89-5.38,13.94-10.56h0q3.48-2.56,7-5.08l0,0q16-11.43,32.79-21.91,9.66,5.25,18.77,11.28c1.07.71,2.13,1.42,3.19,2.15s2.11,1.44,3.16,2.18,2.07,1.49,3.11,2.24,1.81,1.32,2.7,2c.36.26.7.53,1.06.8.64.48,1.29,1,1.93,1.48.31.23.62.48.93.73l1.78,1.39,1.35,1.08,1.64,1.33,1.07.9c.84.69,1.68,1.4,2.52,2.11,1,.86,2,1.74,3,2.62.45.38.88.76,1.32,1.16.87.77,1.72,1.55,2.57,2.35a2.12,2.12,0,0,1,.31.28c.94.86,1.86,1.72,2.77,2.6.24.22.48.44.71.68q1.59,1.52,3.13,3.06l.05.05c1.53,1.51,3,3.06,4.52,4.61.58.6,1.15,1.21,1.71,1.82a1.14,1.14,0,0,1,.15.16c.56.6,1.13,1.21,1.69,1.83.15.17.31.34.45.51.54.58,1.06,1.18,1.59,1.77,1.45,1.63,2.86,3.27,4.25,4.94,2.21,2.64,4.37,5.34,6.46,8.07C369.61,376.29,369.71,376.43,369.82,376.56Z" />
        <path class="BUNTAI_WALRUS_OUTFIT_BUNTAI_WALRUS_OUTFIT-42_cls-6" d="M360.64,399.39a50.74,50.74,0,0,1-5.07,14.95,52.21,52.21,0,0,1-10.57,14c-1,1-2.1,1.89-3.2,2.77A107.24,107.24,0,0,1,330,438.63c-33.37,18.23-69.1,13.06-104.58,0-3-1.1-6-2.25-8.94-3.45h0c-1.7,1-3.4,1.89-5.11,2.74-16.7,8.3-33.85,10.66-49.51,10l6.82-8,1.12-1.33,2.89-3.41q1.74-1.94,3.5-3.86t3.55-3.83c1.31-1.41,2.61-2.8,3.93-4.19.13-.14.26-.29.4-.42,1.45-1.52,2.91-3.05,4.37-4.55l3.42-3.49c.67-.69,1.34-1.37,2-2q1.59-1.6,3.19-3.18a2,2,0,0,1,.29-.29q5.8-5.75,11.79-11.33l.74-.68c1.55-1.45,3.1-2.89,4.67-4.31l.73-.66c1.78-1.62,3.56-3.23,5.37-4.83,2.46-2.19,4.94-4.35,7.45-6.51l3.88-3.3c1.31-1.11,2.61-2.2,3.92-3.28l4-3.26h0c1.85-1.49,3.7-3,5.57-4.48.79-.64,1.6-1.27,2.39-1.89q2.49-2,5-3.93,2-1.57,4.07-3.12,4.08-3.09,8.21-6.14c1.42-1,2.85-2.09,4.28-3.12s2.69-1.93,4-2.88c.62-.45,1.27-.9,1.9-1.34Q282.74,339,290.34,334c1.15.6,2.3,1.21,3.44,1.84,1.37.73,2.72,1.48,4.07,2.24s2.47,1.42,3.69,2.14,2.44,1.45,3.66,2.19q4.5,2.76,8.87,5.7c.68.44,1.35.9,2,1.37s1.34.91,2,1.38l1.62,1.14c.53.38,1.08.76,1.61,1.16q2.1,1.51,4.16,3.07c.33.24.64.49,1,.73,1,.72,1.91,1.45,2.85,2.2l.28.22c1,.81,2.06,1.63,3.07,2.46l.15.11c1.05.86,2.07,1.71,3.1,2.58l1.19,1c.86.73,1.71,1.46,2.55,2.2q1.68,1.47,3.33,3c.76.69,1.51,1.38,2.25,2.08s1.5,1.4,2.23,2.1,1.67,1.61,2.49,2.42l2.26,2.26c.69.69,1.37,1.38,2,2.08,2.29,2.36,4.51,4.77,6.69,7.21a3.62,3.62,0,0,1,.36.42A47.52,47.52,0,0,1,360.64,399.39Z" />
        <path class="BUNTAI_WALRUS_OUTFIT_BUNTAI_WALRUS_OUTFIT-42_cls-6" d="M204.26,375.72c-1.4,1.26-2.8,2.53-4.18,3.81-1.17,1.06-2.34,2.14-3.49,3.23q-4.47,4.15-8.83,8.4a.46.46,0,0,0-.07.07q-1.32,1.26-2.61,2.55-2.07,2-4.12,4.08c-1.68,1.68-3.35,3.38-5,5.08l-.35.35q-2.54,2.61-5,5.26c-.28.29-.56.58-.81.87-1.41,1.47-2.78,2.94-4.14,4.42s-2.69,2.92-4,4.4a3.6,3.6,0,0,0-.33.36.2.2,0,0,1-.06.07c-.52.55-1,1.11-1.51,1.66,0,0-.23.27-.62.78l-.3.38-1.46,1.86c-.26.34-.55.7-.84,1.09-.15.19-.31.38-.45.59-.33.4-.65.82-1,1.26-.52.66-1.05,1.35-1.6,2.07-.23.3-.48.62-.71.94s-.53.68-.78,1l-.86,1.12L150,432.85c-1.44,1.9-2.9,3.87-4.27,5.78-1.78,2.45-3.42,4.78-4.7,6.77a155,155,0,0,1-19.9-5.54c-1.16-.41-2.28-.83-3.35-1.23-4.74-1.79-8.65-3.53-11.48-4.88h0c-3.33-1.6-5.19-2.67-5.19-2.67-.91-.73-1.8-1.49-2.66-2.28h0A52.44,52.44,0,0,1,86,411.45a50.31,50.31,0,0,1-4.15-15.74,47.44,47.44,0,0,1-.17-6.42c0-.29,0-.57,0-.86a37.49,37.49,0,0,1,2.68-7.69h0q5.86-5,11.86-9.91,6.69-5.46,13.56-10.75Q127.53,346.44,146.3,334a253.52,253.52,0,0,1,35.89,22.8q9.42,7.14,18,15.09h0C201.6,373.17,202.94,374.43,204.26,375.72Z" />
        <path class="BUNTAI_WALRUS_OUTFIT_BUNTAI_WALRUS_OUTFIT-42_cls-5" d="M216.43,365.05q-6.17,5.26-12.17,10.67c-.88-.86-1.77-1.7-2.67-2.55l-1.35-1.25h0c-.7-.66-1.42-1.32-2.16-2s-1.29-1.18-2-1.76l-.34-.28c-.69-.62-1.39-1.24-2.1-1.83-1.38-1.19-2.76-2.36-4.16-3.5l-.69-.56c-.6-.5-1.21-1-1.82-1.48l-.57-.45c-1.4-1.11-2.8-2.19-4.22-3.26-1.23-.95-2.46-1.87-3.72-2.78-.27-.21-.55-.41-.83-.61-.48-.35-1-.7-1.45-1-1.13-.83-2.26-1.62-3.41-2.4-.93-.65-1.86-1.28-2.8-1.91l-.73-.49c-1.13-.75-2.27-1.5-3.43-2.24s-2.18-1.39-3.28-2.07c-1.57-1-3.14-1.93-4.74-2.87-1.18-.7-2.36-1.39-3.56-2.06s-2.53-1.43-3.81-2.14l-.33-.17c-1.26-.69-2.53-1.36-3.8-2q-5.38,3.56-10.67,7.22l-2.77,1.93c-3.28,2.28-6.52,4.6-9.75,6.94-1.47,1.08-2.92,2.14-4.38,3.23l-.32.24q-3.9,2.9-7.74,5.84c-.29.21-.57.44-.86.66q-6.86,5.28-13.56,10.75l-.33.26c-.14.11-.29.23-.43.36q-2.49,2-4.95,4.09L90,376c-1.87,1.57-3.74,3.14-5.59,4.73h0a37.49,37.49,0,0,0-2.68,7.69L62.1,375.15l6.32-6.68c2.63-2.3,5.3-4.57,8-6.81l.26-.23c.93-.78,1.85-1.55,2.79-2.32q2.35-2,4.73-3.88c.22-.19.45-.36.67-.54q7.37-6,14.94-11.74,23-17.51,47.78-33,9.66,5.25,18.77,11.28c1.84,1.22,3.66,2.45,5.47,3.72,2.09,1.47,4.17,3,6.21,4.49q1.88,1.39,3.7,2.82c.82.62,1.62,1.25,2.42,1.9l.87.69c.62.48,1.23,1,1.83,1.48,2.6,2.11,5.15,4.3,7.66,6.51.76.67,1.51,1.34,2.26,2l.58.53c.87.8,1.73,1.6,2.57,2.4l.17.16c.67.63,1.34,1.27,2,1.91.31.28.61.58.9.86l.08.08,0,0a.53.53,0,0,1,.13.13c1.09,1.07,2.17,2.14,3.24,3.23l.16.17c1.06,1.08,2.11,2.16,3.15,3.26,1.26,1.33,2.5,2.69,3.73,4.06Q215,363.37,216.43,365.05Z" />
        <path class="BUNTAI_WALRUS_OUTFIT_BUNTAI_WALRUS_OUTFIT-42_cls-5" d="M240.06,276.48c-2.75,2.24-5.5,4.44-8.29,6.6q-2.69-1.31-5.32-2.64c-.84-.42-1.67-.85-2.5-1.28-.33-.16-.65-.33-1-.51-.72-.37-1.44-.74-2.15-1.13q-6.24-3.28-12.19-6.73c-.8-.45-1.59-.91-2.38-1.38-5.68-3.33-11.14-6.73-16.36-10.15l-2.23-1.46-2.45-1.64c-1.17-.79-2.32-1.58-3.46-2.37-11.53-8-21.78-15.93-30.61-23.38l-2-1.69c-.78-.67-2.63-2.45-5.16-4.93l-1.4-1.38-3.68-3.64c-.18-.19-.37-.38-.56-.56-.57-.58-1.15-1.16-1.75-1.74l-.6-.6-1.21-1.21-.83-.83c-5.94-5.92-12.58-12.56-18-17.92.32-.41.66-.87,1-1.36,1.33-1.87,2.9-4.27,4.68-6.64l0,0c.59-.79,1.21-1.58,1.87-2.34C158.43,217.15,210,260.07,240.06,276.48Z" />
        <path class="BUNTAI_WALRUS_OUTFIT_BUNTAI_WALRUS_OUTFIT-42_cls-5" d="M329.81,200.26l-8.34,9.43-2.7,3c-3.7,4.18-7.33,8.26-10.28,11.58l-.46.51c-3.59,4-6.08,6.83-6.28,7-16.14,16.52-37.52,37-60.84,55.52-19.4,15.36-40.77,30.25-62.89,42.12-.84-.63-1.69-1.26-2.54-1.87l-2.11-1.51-.22-.16-.3-.22-1-.74.81-1q11.67-7.11,23-14.71s.34-.22,1.09-.74l.23-.16a4,4,0,0,0,.5-.34c.39-.25.78-.51,1.17-.79h0c.31-.2.61-.41.91-.62.7-.46,1.39-.94,2.09-1.43,3.21-2.2,6.39-4.42,9.55-6.69l2.81-2,1.61-1.17,0,0,.08-.06.41-.29.08-.06.09-.07a1,1,0,0,0,.17-.12l.82-.6q.82-.6,1.65-1.23c1.27-.93,2.54-1.88,3.79-2.83a5.07,5.07,0,0,0,.46-.35c1.12-.84,2.23-1.68,3.34-2.54l1.69-1.3c1.21-.92,2.4-1.85,3.6-2.8,2.79-2.16,5.54-4.36,8.29-6.6,18-14.61,58.57-56.56,84.72-84.46Z" />
        <path class="BUNTAI_WALRUS_OUTFIT_BUNTAI_WALRUS_OUTFIT-42_cls-7" d="M231.77,283.08q-1.78,1.41-3.6,2.8l-1.69,1.3c-1.11.86-2.22,1.7-3.34,2.54a5.07,5.07,0,0,1-.46.35c-1.25.95-2.52,1.9-3.79,2.83q-.82.63-1.65,1.23l-.82.6a1,1,0,0,1-.17.12l-.09.07-.08.06-.41.29-.08.06,0,0L214,296.52l-2.81,2c-3.16,2.27-6.34,4.49-9.55,6.69l-2.09,1.43c-.3.21-.6.42-.91.62h0l-.66.43-.26.18-.25.18-.5.34-.23.16c-.75.52-1.09.74-1.09.74-25.35-17.17-77.11-65.67-101.75-91.78,4.75-4.61,9.7-9.32,14.87-14.35,2-1.93,4-3.9,6-5.94l.12-.12a14.11,14.11,0,0,0,1.05-1.22c5.45,5.36,12.09,12,18,17.92l.83.83,1.21,1.21.6.6c.6.58,1.18,1.16,1.75,1.74.19.18.38.37.56.56l3.68,3.64,1.4,1.38c2.53,2.48,4.38,4.26,5.16,4.93s1.31,1.13,2,1.69c8.83,7.45,19.08,15.42,30.61,23.38,1.14.8,2.29,1.58,3.46,2.37l2.45,1.64,2.23,1.46c5.22,3.42,10.68,6.82,16.36,10.15.79.47,1.58.93,2.38,1.38q5.94,3.45,12.19,6.73c.71.39,1.43.76,2.15,1.13.33.18.65.35,1,.51.83.43,1.66.86,2.5,1.28Q229.09,281.77,231.77,283.08Z" />
        <path class="BUNTAI_WALRUS_OUTFIT_BUNTAI_WALRUS_OUTFIT-42_cls-7" d="M341,216.61c3.42,4.62,6.55,8.69,9.48,12.6-24.08,28.71-75.83,85.08-98.68,107.79h0q-7,5.19-13.94,10.56c-1.4,1.09-2.79,2.18-4.18,3.29l-2.79,2.24a3,3,0,0,0-.41.33c-1.14.9-2.29,1.83-3.43,2.77q-3.57,2.91-7.09,5.89c-1.06.88-2.11,1.77-3.16,2.67l0,0-.33.27-.12-.13c-.19-.23-.39-.45-.58-.67l-.59-.67-.43-.48-1.24-1.38c-.79-.89-1.59-1.77-2.41-2.64s-1.44-1.55-2.19-2.32a2.38,2.38,0,0,0-.27-.29l-1.23-1.28-.68-.7c-.08-.08-.16-.17-.26-.26-.54-.55-1.07-1.09-1.61-1.62t0,0l-.87-.87-.78-.77-.09-.09-.08-.08-.64-.62-.78-.74-.47-.46-1-.95,0,0h0s0,0,0,0a.3.3,0,0,0-.08-.08h0l0,0-1.61-1.51-.55-.49-.14-.14-.26-.23c-.42-.4-.86-.79-1.29-1.18l-.21-.19-.19-.17-.09-.07-1.05-.95-.69-.61-1.2-1c-.27-.23-.53-.47-.8-.69l0,0-1.29-1.11L190,339c-.51-.44-1-.87-1.55-1.3l-.05-.05-.45-.37,0,0c-.33-.28-.68-.56-1-.83l-.91-.75-.06,0-.18-.15-1-.82-1.18-.93-.28-.22h0a2.43,2.43,0,0,0-.25-.2l-1.38-1.07-.78-.61-.36-.27-2.39-1.8c22.12-11.87,43.49-26.76,62.89-42.12,23.32-18.47,44.7-39,60.84-55.52.2-.2,2.69-3,6.28-7l.46-.51c2.95-3.32,6.58-7.4,10.28-11.58l2.7-3,8.34-9.43,3.34,5.48C335.94,209.74,338.54,213.32,341,216.61Z" />
        <path class="BUNTAI_WALRUS_OUTFIT_BUNTAI_WALRUS_OUTFIT-42_cls-8" d="M172.62,324q11.67-7.11,23-14.71s.34-.22,1.09-.74l.23-.16a4,4,0,0,0,.5-.34c.39-.25.78-.51,1.17-.79h0c.31-.2.61-.41.91-.62.7-.46,1.39-.94,2.09-1.43,3.21-2.2,6.39-4.42,9.55-6.69l2.81-2,1.61-1.17,0,0,.08-.06.41-.29.08-.06.09-.07a1,1,0,0,0,.17-.12l.82-.6q.82-.6,1.65-1.23c1.27-.93,2.54-1.88,3.79-2.83a5.07,5.07,0,0,0,.46-.35c1.12-.84,2.23-1.68,3.34-2.54l1.69-1.3c1.21-.92,2.4-1.85,3.6-2.8,2.79-2.16,5.54-4.36,8.29-6.6,18-14.61,58.57-56.56,84.72-84.46" />
        <path class="BUNTAI_WALRUS_OUTFIT_BUNTAI_WALRUS_OUTFIT-42_cls-8" d="M251.79,337c22.85-22.71,74.6-79.08,98.68-107.79" />
        <path class="BUNTAI_WALRUS_OUTFIT_BUNTAI_WALRUS_OUTFIT-42_cls-8" d="M123.51,185.54c34.92,31.61,86.44,74.53,116.55,90.94" />
        <path class="BUNTAI_WALRUS_OUTFIT_BUNTAI_WALRUS_OUTFIT-42_cls-8" d="M93.85,217.54c24.64,26.11,76.4,74.61,101.75,91.78" />
        <path class="BUNTAI_WALRUS_OUTFIT_BUNTAI_WALRUS_OUTFIT-42_cls-8" d="M369.82,376.56q-3.29-4.31-6.77-8.47-4.73-5.65-9.84-11a246.6,246.6,0,0,0-42.83-35.79q-9.09-6-18.77-11.28" />
        <path class="BUNTAI_WALRUS_OUTFIT_BUNTAI_WALRUS_OUTFIT-42_cls-8" d="M369.81,376.56q-4.29,5.94-8.57,11.87h0c-.11.14-.21.29-.33.43" />
        <path class="BUNTAI_WALRUS_OUTFIT_BUNTAI_WALRUS_OUTFIT-42_cls-8" d="M141.07,445.4c1.28-2,2.92-4.32,4.7-6.77,2-2.77,4.16-5.66,6.19-8.31,4.19-5.53,7.74-10,7.74-10,.5-.55,1-1.11,1.51-1.66a3.79,3.79,0,0,1,.39-.43q12.59-13.94,26.16-27.08,8.09-7.86,16.5-15.44,6-5.4,12.17-10.67,10.48-9,21.41-17.48,6.89-5.38,13.94-10.56h0q3.48-2.56,7-5.08l0,0q16-11.43,32.79-21.91" />
        <path class="BUNTAI_WALRUS_OUTFIT_BUNTAI_WALRUS_OUTFIT-42_cls-8" d="M290.34,334A612.83,612.83,0,0,0,172.62,435.22l-2.88,3.41-8,9.34" />
        <path class="BUNTAI_WALRUS_OUTFIT_BUNTAI_WALRUS_OUTFIT-42_cls-8" d="M361.28,389.29a4.71,4.71,0,0,0-.36-.42A248.77,248.77,0,0,0,290.34,334" />
        <path class="BUNTAI_WALRUS_OUTFIT_BUNTAI_WALRUS_OUTFIT-42_cls-8" d="M68.42,368.47c2.63-2.3,5.3-4.57,8-6.81l.26-.23c.93-.78,1.85-1.55,2.79-2.32q2.35-2,4.73-3.88c.22-.19.45-.36.67-.54q7.37-6,14.94-11.74,23-17.51,47.78-33" />
        <path class="BUNTAI_WALRUS_OUTFIT_BUNTAI_WALRUS_OUTFIT-42_cls-8" d="M146.3,334a623.16,623.16,0,0,0-61.91,46.72" />
        <path class="BUNTAI_WALRUS_OUTFIT_BUNTAI_WALRUS_OUTFIT-42_cls-8" d="M147.57,310q9.66,5.25,18.77,11.28c1.84,1.22,3.66,2.45,5.47,3.72,2.1,1.47,4.17,3,6.21,4.5a241.44,241.44,0,0,1,38.41,35.56" />
        <path class="BUNTAI_WALRUS_OUTFIT_BUNTAI_WALRUS_OUTFIT-42_cls-8" d="M146.3,334a250.74,250.74,0,0,1,58,41.71" />
        <path class="BUNTAI_WALRUS_OUTFIT_BUNTAI_WALRUS_OUTFIT-42_cls-8" d="M361.24,388.43c0,.29,0,.57,0,.86a47.52,47.52,0,0,1-.64,10.1,50.74,50.74,0,0,1-5.07,14.95,52.21,52.21,0,0,1-10.57,14c-1,1-2.1,1.89-3.2,2.77A107.24,107.24,0,0,1,330,438.63c-33.37,18.23-69.1,13.06-104.58,0-3-1.1-6-2.25-8.94-3.45h0c-1.7,1-3.4,1.89-5.11,2.74-16.7,8.3-33.85,10.66-49.51,10a131.39,131.39,0,0,1-20.72-2.57,155,155,0,0,1-19.9-5.54c-1.16-.41-2.28-.83-3.35-1.23-4.74-1.79-8.65-3.53-11.48-4.88h0c-3.33-1.6-5.19-2.67-5.19-2.67-.91-.73-1.8-1.49-2.66-2.28h0A52.44,52.44,0,0,1,86,411.45a50.31,50.31,0,0,1-4.15-15.74,47.44,47.44,0,0,1-.17-6.42c0-.29,0-.57,0-.86a37.49,37.49,0,0,1,2.68-7.69h0" />
        <path class="BUNTAI_WALRUS_OUTFIT_BUNTAI_WALRUS_OUTFIT-42_cls-8" d="M390.33,340.31l-.82.71-.8.72h0c-.84.76-1.66,1.53-2.48,2.31h0c-.81.78-1.61,1.56-2.4,2.35-1.6,1.59-3.16,3.21-4.72,4.86l-2.32,2.46v0l-1.47,1.57c-1.47,1.57-3,3.16-4.48,4.78,0,0,0,0,0,0-1.22,1.3-2.48,2.62-3.76,3.94s-2.62,2.68-4,4" />
        <path class="BUNTAI_WALRUS_OUTFIT_BUNTAI_WALRUS_OUTFIT-42_cls-8" d="M353.21,357.07c11.11-14.11,20-26.35,34-35.95" />
        <path class="BUNTAI_WALRUS_OUTFIT_BUNTAI_WALRUS_OUTFIT-42_cls-8" d="M79.45,359.11l-1.11-1.43c-12.42-16-24.24-29.54-41.81-39.67" />
        <polyline class="BUNTAI_WALRUS_OUTFIT_BUNTAI_WALRUS_OUTFIT-42_cls-8" points="15.78 421.43 11.88 438.63 117.81 438.63" />
        <path class="BUNTAI_WALRUS_OUTFIT_BUNTAI_WALRUS_OUTFIT-42_cls-8" d="M178,329.49c22.12-11.87,43.49-26.76,62.89-42.12,23.32-18.47,44.7-39,60.84-55.52.2-.2,2.69-3,6.28-7l.46-.51c2.95-3.32,6.58-7.4,10.28-11.58l2.7-3,8.34-9.43" />
        <path class="BUNTAI_WALRUS_OUTFIT_BUNTAI_WALRUS_OUTFIT-42_cls-8" d="M115.93,195.91c5.45,5.36,12.09,12,18,17.92l.83.83,1.21,1.21q.3.28.6.6c.6.58,1.18,1.16,1.75,1.74.19.18.38.37.56.56l3.68,3.64,1.4,1.38c2.53,2.48,4.38,4.26,5.16,4.93l2,1.69c8.83,7.45,19.08,15.42,30.61,23.38,1.14.79,2.29,1.58,3.46,2.37l2.45,1.64,2.23,1.46c5.22,3.42,10.68,6.82,16.36,10.15.79.47,1.58.93,2.38,1.38q5.94,3.45,12.19,6.73c.71.39,1.43.76,2.15,1.13.33.18.65.35,1,.51.83.43,1.66.86,2.5,1.28q2.64,1.33,5.32,2.64" />
        <path class="BUNTAI_WALRUS_OUTFIT_BUNTAI_WALRUS_OUTFIT-42_cls-8" d="M81.7,388.43,62.09,375.15l6.33-6.68c-12.21-12.06-22.23-23-35.55-32.71" />
        <path class="BUNTAI_WALRUS_OUTFIT_BUNTAI_WALRUS_OUTFIT-42_cls-8" d="M109.81,360.07a14.46,14.46,0,0,0,9.4,3.16c12.47,0,12.47-11.71,25-11.71s12.47,11.71,24.94,11.71c6.65,0,9.75-3.32,13.09-6.42" />
        <path class="BUNTAI_WALRUS_OUTFIT_BUNTAI_WALRUS_OUTFIT-42_cls-8" d="M256.85,357.79c3,2.78,6.09,5.44,12,5.44,12.48,0,12.48-11.71,24.95-11.71s12.48,11.71,24.95,11.71a14.92,14.92,0,0,0,10.52-4.06" />
        <path class="BUNTAI_WALRUS_OUTFIT_BUNTAI_WALRUS_OUTFIT-42_cls-8" d="M76.66,361.43c3-1.64,5-4.13,7.52-6.2.22-.19.45-.36.67-.54" />
        <path class="BUNTAI_WALRUS_OUTFIT_BUNTAI_WALRUS_OUTFIT-42_cls-8" d="M200.24,371.93h0a15.06,15.06,0,0,0-6.17-1.2c-12.47,0-12.47,11.71-25,11.71s-12.47-11.71-24.94-11.71-12.48,11.71-25,11.71c-11.76,0-12.43-10.44-23-11.6" />
        <path class="BUNTAI_WALRUS_OUTFIT_BUNTAI_WALRUS_OUTFIT-42_cls-8" d="M239.8,371.2h0a16,16,0,0,1,4.12-.5c12.48,0,12.48,11.71,24.95,11.71s12.48-11.71,24.95-11.71,12.48,11.71,24.95,11.71c12.22,0,12.48-11.23,24.19-11.69" />
        <path class="BUNTAI_WALRUS_OUTFIT_BUNTAI_WALRUS_OUTFIT-42_cls-8" d="M209.09,398A14.68,14.68,0,0,0,219,401.6c12.47,0,12.47-11.71,24.93-11.71s12.48,11.71,24.95,11.71,12.48-11.71,24.95-11.71,12.48,11.71,24.95,11.71,12.48-11.71,25-11.71c9,0,11.52,6.11,16.91,9.5" />
        <path class="BUNTAI_WALRUS_OUTFIT_BUNTAI_WALRUS_OUTFIT-42_cls-8" d="M81.83,395.71c3.1-2.92,6.22-5.82,12.43-5.82,12.48,0,12.48,11.71,24.95,11.71s12.47-11.71,25-11.71,12.47,11.71,24.94,11.71c9.93,0,12-7.41,18.66-10.44" />
        <path class="BUNTAI_WALRUS_OUTFIT_BUNTAI_WALRUS_OUTFIT-42_cls-8" d="M197.29,409.37c9.34,1.83,10.42,11.42,21.71,11.42,12.47,0,12.47-11.71,24.93-11.71s12.48,11.71,24.95,11.71,12.48-11.71,24.95-11.71,12.48,11.71,24.95,11.71,12.48-11.71,25-11.71c5.81,0,8.92,2.55,11.84,5.26" />
        <path class="BUNTAI_WALRUS_OUTFIT_BUNTAI_WALRUS_OUTFIT-42_cls-8" d="M86,411.45a14.32,14.32,0,0,1,8.28-2.37c12.48,0,12.48,11.71,24.95,11.71s12.47-11.71,25-11.71c9.09,0,11.56,6.22,17.05,9.59" />
        <path class="BUNTAI_WALRUS_OUTFIT_BUNTAI_WALRUS_OUTFIT-42_cls-8" d="M225.38,438.67c6.62-3.06,8.67-10.41,18.55-10.41,12.48,0,12.48,11.71,24.95,11.71s12.48-11.71,24.95-11.71S306.31,440,318.78,440s12.48-11.71,25-11.71c.44,0,.86,0,1.27,0" />
        <path class="BUNTAI_WALRUS_OUTFIT_BUNTAI_WALRUS_OUTFIT-42_cls-8" d="M121.18,439.86c10.54-1.16,11.19-11.6,23-11.6a14.39,14.39,0,0,1,7.8,2.06" />
        <path class="BUNTAI_WALRUS_OUTFIT_BUNTAI_WALRUS_OUTFIT-42_cls-8" d="M168.61,440h.49c12.48,0,12.48-11.71,25-11.71,9.2,0,11.61,6.37,17.25,9.71" />
        <g class="BUNTAI_WALRUS_OUTFIT_BUNTAI_WALRUS_OUTFIT-42_cls-9">
          <path d="M216.42,294.73a1,1,0,0,1-.17.12l-.09.07-.08.06-.41.29-.08.06,0,0c-9.36,6.62-14.87,10.45-17.64,12.37l-.26.18-.25.18-.5.34-.23.16c-.75.52-1.09.74-1.09.74-25.35-17.17-77.11-65.67-101.75-91.78,4.75-4.61,9.7-9.32,14.87-14.35C137.85,230.3,192.15,280.39,216.42,294.73Z" />
          <path d="M216.43,435.22v0a0,0,0,0,1,0,0c-1.7,1-3.41,1.89-5.11,2.74-2.22,1.11-4.46,2.11-6.69,3a102.28,102.28,0,0,1-42.82,7,129.94,129.94,0,0,1-20.72-2.57,154,154,0,0,1-16.6-4.42c-1.13-.37-2.23-.74-3.3-1.12s-2.28-.82-3.36-1.23H11.88l3.9-17.2q8.53-42.84,17.09-85.67c.06-.29.11-.57.17-.86.56-2.78,1.11-5.57,1.68-8.35,22.3,8.9,43.43,32.56,43.43,32.56l.19-1.43,1.11,1.43c1.57-1.3,3.14-2.59,4.73-3.87a8.33,8.33,0,0,1,.67-.54q7.35-6,14.94-11.74c3.88,7.14,7.63,13.71,10,17.11h0c1.6,7.34,5.45,14.9,10.86,22.28A110.28,110.28,0,0,0,132,395.43h0a149.13,149.13,0,0,0,16.79,14.29h0c2.77,2.05,5.59,4,8.49,5.85a0,0,0,0,1,0,0h0l0,0c1.41.88,2.8,1.76,4.23,2.61a148,148,0,0,0,18.07,9.29c2.27,1,4.53,1.87,6.78,2.67h0a85.2,85.2,0,0,0,21.22,5,47.87,47.87,0,0,0,8.71,0h0Z" />
          <path d="M362.36,386.88l-1,1.55a24.66,24.66,0,0,0,8.48-4.17c-3.49,12.49-14.24,31.91-14.24,31.91a35.78,35.78,0,0,0,14.24-3.73c-13.82,14.4-38,25.94-38,25.94l-.1.25H330c-1.52.83-3.05,1.62-4.59,2.35-30,14.41-61.73,10.71-93.43,0-2.19-.74-4.37-1.51-6.56-2.31-3-1.1-6-2.25-8.93-3.45a55.24,55.24,0,0,0,14.73-.84h0a98.48,98.48,0,0,0,18-5.25h0A142.39,142.39,0,0,0,267,420.69,157,157,0,0,0,303.19,393a106.15,106.15,0,0,0,9.71-11.68,62.64,62.64,0,0,0,9.39-18.44h0c.28-.94.52-1.87.73-2.81.71-1,1.55-2.3,2.47-3.82h0c2.64-4.32,6-10.37,9.32-16.58a0,0,0,0,0,0,0l.25-.48a173.51,173.51,0,0,1,13.5,13.16l.06.07.06.05,0,0,0,0c3.55,3.82,5.94,6.62,5.94,6.62h0l.23-.22c2.11-1.95,17.27-15.72,34.28-25.57.09.53.17,1.06.26,1.59.13.82.27,1.64.4,2.46-14,14.68-26.34,30.14-26.8,30.71v0h0l6.77,7.62-.3.45-7.06,10.57,0,.07Z" />
          <path d="M350.47,229.21c-24.08,28.71-75.83,85.08-98.68,107.79l3.49-2.55c1.17-.85,2.34-1.7,3.51-2.53l-.55.41,0,0-.08.06-20.29,15.16-20.93,17.09-.13.1,0,0-.33.27-.12-.13h0L203.21,351l-.07-.08-.09-.09-.08-.08c.82-.72,40.28-35.25,72.44-62.44,12.09-10.22,48.14-50.89,65.58-71.72C344.41,221.23,347.54,225.3,350.47,229.21Z" />
        </g>
        <path class="BUNTAI_WALRUS_OUTFIT_BUNTAI_WALRUS_OUTFIT-42_cls-10" d="M36.53,318c-.63,2.84-1.22,5.69-1.81,8.54S33.6,332.12,33,334.9c-.06.29-.11.57-.17.86q-8.55,42.84-17.09,85.67L11.88,441H406.62c-.13-.78-.25-1.57-.38-2.35q-8-49.15-15.91-98.32h0c-.15-1-.31-2-.47-2.94-.13-.82-.27-1.64-.4-2.46-.09-.53-.17-1.06-.26-1.59-.66-4.06-1.32-8.13-2-12.19" />
        <path class="BUNTAI_WALRUS_OUTFIT_BUNTAI_WALRUS_OUTFIT-42_cls-10" d="M350.47,229.21c-2.93-3.91-6.06-8-9.48-12.6-2.45-3.29-5.05-6.87-7.84-10.87l-3.34-5.48-5-8.24c-26.15,27.9-66.72,69.85-84.72,84.46-30.11-16.41-81.63-59.33-116.55-90.94-.66.76-1.28,1.55-1.87,2.34l0,0c-1.78,2.37-3.35,4.77-4.68,6.64-.35.49-.69.95-1,1.36a14.11,14.11,0,0,1-1.05,1.22l-.12.12c-2.05,2-4.06,4-6,5.94-5.17,5-10.12,9.74-14.87,14.35" />
      </g>
    </g>
  </g>
</svg>