<svg xmlns="http://www.w3.org/2000/svg" xmlns:xlink="http://www.w3.org/1999/xlink" viewBox="0 0 432 432">
  <defs>
    <style>.BUNTAI_WALRUS_OUTFIT_BUNTAI_WALRUS_OUTFIT-20_cls-1,.BUNTAI_WALRUS_OUTFIT_BUNTAI_WALRUS_OUTFIT-20_cls-7{fill:none;}.BUNTAI_WALRUS_OUTFIT_BUNTAI_WALRUS_OUTFIT-20_cls-2{isolation:isolate;}.BUNTAI_WALRUS_OUTFIT_BUNTAI_WALRUS_OUTFIT-20_cls-3{clip-path:url(#BUNTAI_WALRUS_OUTFIT_BUNTAI_WALRUS_OUTFIT-20_clip-path);}.BUNTAI_WALRUS_OUTFIT_BUNTAI_WALRUS_OUTFIT-20_cls-4{fill:#3c3835;}.BUNTAI_WALRUS_OUTFIT_BUNTAI_WALRUS_OUTFIT-20_cls-5,.BUNTAI_WALRUS_OUTFIT_BUNTAI_WALRUS_OUTFIT-20_cls-9{fill:#fff;}.BUNTAI_WALRUS_OUTFIT_BUNTAI_WALRUS_OUTFIT-20_cls-6{fill:#1b1f20;}.BUNTAI_WALRUS_OUTFIT_BUNTAI_WALRUS_OUTFIT-20_cls-7,.BUNTAI_WALRUS_OUTFIT_BUNTAI_WALRUS_OUTFIT-20_cls-9{stroke:#000;stroke-linecap:round;stroke-linejoin:round;}.BUNTAI_WALRUS_OUTFIT_BUNTAI_WALRUS_OUTFIT-20_cls-7{stroke-width:2.04px;}.BUNTAI_WALRUS_OUTFIT_BUNTAI_WALRUS_OUTFIT-20_cls-8{opacity:0.43;mix-blend-mode:multiply;}.BUNTAI_WALRUS_OUTFIT_BUNTAI_WALRUS_OUTFIT-20_cls-9{stroke-width:2.16px;}</style>
    <clipPath id="clip-path">
      <path class="BUNTAI_WALRUS_OUTFIT_BUNTAI_WALRUS_OUTFIT-20_cls-1" d="M-6.89-3.42v441H443.29v-441Zm321.36,270.9a.93.93,0,0,1-.59.21,1,1,0,0,1-.68-.28,25,25,0,0,1-4.38-6.56c-.48,8.51-1.27,18.22-2.5,23.12a1,1,0,0,1-.94.73h-.14a1,1,0,0,1-.82-1c.07-2.06.16-5.08.18-8.62a52.61,52.61,0,0,1-2,7.72c.07,6.19-.69,7.94-.77,8.12a1,1,0,0,1-.87.54h-.08a1,1,0,0,1-.85-.7,54.24,54.24,0,0,0-6.15-12.86l-3.59-2.16c-.63,3-1.3,6-2,9-.37,17.11-1,41.18-1.77,58.86a198.36,198.36,0,0,1-5.17,36.19.05.05,0,0,1,0,0c-.08.38-.18.76-.26,1.14l-.41,1.62c-3.93,16-10.43,33.75-13.44,33.75-2.42,0-2.54-1.74-3.05-9.06l-.4-5.52a1.11,1.11,0,0,1,0-.17c-.41-5.35-1-11.16-1.7-17.67-.1-.94-.21-2-.32-3l-.05-.53c-.07-.67-.13-1.37-.2-2.08l-.09-1c0-.43-.08-.86-.12-1.31l-.13-1.46c-.39-4.49-.8-9.82-1.22-15.86l-.22-3.14c0-.12,0-.18,0-.23-.25-3.7-.51-7.61-.76-11.61l-.18-2.88c-.19-2.91-.37-5.86-.54-8.83-.07-.94-.12-1.9-.18-2.86v-.25c-.38-6.48-.75-13-1.1-19.21l.95-.17-1,.06c0-.06,0-.12,0-.17a.86.86,0,0,1,0-.16s0-.09,0-.13v-.26c0-.14,0-.24,0-.31s0-.27,0-.42V308l0-.5a.66.66,0,0,1,0-.14c0-.17,0-.43,0-.68l0-.52c-.31-5.66-.6-11.06-.86-16l-.14-2.64c-.21-4-.4-7.7-.55-10.89l-.17-3.36c-.29-5.9-.46-9.45-.46-9.45l-.54-9.16a18.64,18.64,0,0,1-2.21,1.44l-.07,0h0a22.3,22.3,0,0,1-7.52,2.43,29,29,0,0,1-3.94.27,30.26,30.26,0,0,1-9.77-1.58l-.08,0a24.67,24.67,0,0,1-8.79-5.1l-.24.19-.44.34-.16.13-.09.06-.06,0-.71.52c-.08,4.76-.19,10.72-.33,17.42l-.08,4.11c-.06,3.41-.14,7-.22,10.61l-.06,2.58c0,1.1,0,2.2-.07,3.32-.12,5-.25,10.12-.38,15.18l-.1,3.69c-.17,6.26-.36,12.44-.56,18.29,0,.56,0,1.13-.05,1.69l-.12,3.41c0,.84-.06,1.67-.1,2.49l-.2,5c0,.75-.06,1.48-.1,2.2v.14c-.17,3.75-.41,7.42-.73,11,0,.37-.06.74-.1,1.1s-.05.7-.09,1.07a2.11,2.11,0,0,0,0,.32c-.06.58-.11,1.09-.17,1.61-.08.8-.16,1.61-.26,2.42-.31,2.82-.68,5.73-1.13,8.86a4.19,4.19,0,0,1-.08.56c-.11.76-.22,1.53-.34,2.28-.23,1.51-.46,3-.71,4.46l-.06.34c-.17,1-.34,2-.52,3-2.79,15.6-6.23,27.62-8.42,32.6-1,2.35-1.75,3.22-2.66,3.22-1.33,0-2.41-.74-3.31-2.28a7.16,7.16,0,0,1-.35-.66,27.35,27.35,0,0,1-1.67-4.87.19.19,0,0,0,0-.07c-.11-.48-.23-1-.36-1.52l.91-.34-.93.24s0-.1,0-.11c0-.19-.08-.41-.13-.62C195.21,401,194.14,393.76,193,384l-.08-.71c-.06-.55-.12-1.11-.17-1.68s-.11-1-.16-1.51a.53.53,0,0,1,0-.15c-.54-5.39-1.1-12.27-1.73-21.12,0-.26,0-.49,0-.72-.06-.83-.12-1.65-.17-2.48l0-.38c-.09-1.2-.17-2.44-.25-3.68,0-.31,0-.65-.07-1q-.21-3-.4-6.07l-.15-2.29c-.05-.72-.09-1.43-.13-2.12,0-.49-.07-1-.1-1.53l-.12-1.91a1.68,1.68,0,0,1,0-.2c0-.08,0-.25,0-.4s0-.4,0-.64c0-.51-.08-1.05-.11-1.59l0-.75c-.08-1.25-.16-2.52-.23-3.78,0-.59-.08-1.21-.12-1.82-.21-3.73-.43-7.47-.64-11.15-.06-1-.12-2.06-.17-3.09-.13-2.16-.25-4.31-.36-6.42-.05-.81-.09-1.6-.14-2.4l0-.81c-.17-3.1-.33-6.14-.48-9.05l-.08-1.45c-.06-1.22-.13-2.41-.18-3.57l-.08-1.39-.09-1.76,0-.73c-.05-.92-.09-1.82-.13-2.7,0-.47,0-.93-.07-1.4a1.47,1.47,0,0,1,0-.27l-.19-3.82v-.11l-.23-4.78c0-.32,0-.61,0-.91l0-.79-1.43.58-1.34.51a3.05,3.05,0,0,1-.29.11l-.25.09-1,.36-.18.07-.29.1-.22.07-.15,0-.13.05-.1,0-.27.08h0l0,0-.11,0-.23.06h0l-.33.11h0l-.23.08a.88.88,0,0,1-.15,0l-.26.07-.16,0-.24.08-.13,0h0l-11,4.43a47.92,47.92,0,0,0-9.2,12.85,1,1,0,0,1-.78.58h-.11a1,1,0,0,1-.78-.4c-.22-.3-1.29-2.1-1.2-8.19a49,49,0,0,1-4-11.39c0,5.08.13,9.48.28,12.2a1,1,0,0,1-.76,1l-.2,0a1,1,0,0,1-.9-.63c-1.93-5.15-3.14-15.57-3.85-24.38a34.29,34.29,0,0,1-3.65,4.62,22.51,22.51,0,0,1-3.76,3.21.91.91,0,0,1-.54.17,1,1,0,0,1-.73-.33,1,1,0,0,1,0-1.28,17.85,17.85,0,0,0,2.82-4.47v0c4.09-8.93,3.82-22.41,3.7-28.16v-.53a26.44,26.44,0,0,1,3.94-13.81,83.21,83.21,0,0,1,3.71-15.81l-.09-.17a1,1,0,0,1-.13-.47,1,1,0,0,1,.82-.94,2.44,2.44,0,0,0,.1-.24,14.72,14.72,0,0,1,3-4.29c.08-.27.16-.55.24-.85l.32-1c.27-.88.57-1.81.89-2.72s.66-1.77,1-2.5l.13-.27c.06-.14.12-.26.18-.38v0c0-.16,0-.33,0-.49a1.1,1.1,0,0,1,0-.18c-.1-1.55-.17-3.3-.21-5.56v-1.34c0-1.76,0-3.7,0-5.84v-.25c0-.4,0-.78,0-1.17v-.47c0-1.34,0-2.51-.12-3.58s-.19-2.12-.35-3.13c0,0,0-.1,0-.12-.18-1.18-.4-2.35-.69-3.72-.14-.63-.27-1.25-.41-1.87a1.42,1.42,0,0,1,0-.2l-.23-1.1s0-.1,0-.11v0a1.13,1.13,0,0,1,0-.18v0a.7.7,0,0,1,0-.14l-.19-1s0,0,0-.06a44.1,44.1,0,0,1-.64-5.67l0-.67c-.05-1.73,0-3.5.12-5.42.51-7.72,3.1-13.73,8.15-18.92.23-.24.48-.49.73-.73a52.12,52.12,0,0,1,8.85-6.71,31.48,31.48,0,0,1,5.13-9.79,1.46,1.46,0,0,1,.15-.2,31.86,31.86,0,0,1,10.58-8.9c15.19-7.94,35.31-16.16,56.36-9.18l3.7.51c15.92,2.16,28.48,3.87,36,17.3a37.94,37.94,0,0,1,2.32,4.9l.19.16q.41.34.81.72l0,0,0,0c.58.52,1.18,1,1.76,1.58a82,82,0,0,1,7.67,7.88c.26.32.47.58.66.83s.42.53.61.79l.21.29c.11.17.23.33.33.49a14.06,14.06,0,0,1,.89,1.47l.12.21c3.22,6.08,4.55,8.6,3.49,24.53,0,.55-.07,1.1-.1,1.64s-.07,1.07-.09,1.6-.06,1-.09,1.55v.05h0c-.06,1-.11,2-.16,3-.25,5.42-.4,10.79-.45,16,0,.6,0,1.2,0,1.8,0,2.15,0,4.26,0,6.31,0,1.33,0,2.62.06,3.9h0c0,1.3.06,2.59.1,3.84,0,.24,0,.45,0,.65a.92.92,0,0,1,0,.16c0,.23,0,.47,0,.69,0,.48,0,.9.05,1.32l0,.62a5.73,5.73,0,0,1,.38.62l0,.06.38.68a5.64,5.64,0,0,1,.26.55,1.17,1.17,0,0,1,.1.2c.06.14.12.26.17.4l.08.19c0,.09.1.25.16.4s.11.32.15.45.1.3.16.5.17.65.26,1l.12.46.13.55c.17.73.33,1.44.49,2.17.07.33.14.69.2,1,.11.53.19,1,.27,1.44a0,0,0,0,0,0,0,.09.09,0,0,0,0,.05c.05.27.1.56.14.83l0,.11v0c.1.55.19,1.11.27,1.66s.16,1.09.25,1.66.13.94.19,1.42a7.07,7.07,0,0,1,.09.72c.05.33.09.7.13,1.07l.06.47s0,.08,0,.12l.11.95v.11c.05.42.1.93.15,1.43l0,.29a36.27,36.27,0,0,1,2.62,13.71v.52c-.09,6.81-.33,24.89,4.39,32.82A1,1,0,0,1,314.47,267.48Z" />
    </clipPath>
  </defs>
  <g class="BUNTAI_WALRUS_OUTFIT_BUNTAI_WALRUS_OUTFIT-20_cls-2">
    <g id="outfit">
      <g class="BUNTAI_WALRUS_OUTFIT_BUNTAI_WALRUS_OUTFIT-20_cls-3">
        <path class="BUNTAI_WALRUS_OUTFIT_BUNTAI_WALRUS_OUTFIT-20_cls-4" d="M93.65,443H51.86c-7.2-145.38-11.26-72.16,35-179.5C86.59,265.67,69.78,383.86,93.65,443Z" />
        <path class="BUNTAI_WALRUS_OUTFIT_BUNTAI_WALRUS_OUTFIT-20_cls-5" d="M290.69,369.77c2.68,14.69,6.52,26.57,12.79,37.43C315.32,427.71,326,443,326,443H132.54c1.84-11.44,5.3-29.7,11.51-53.91V389c4.1-16,9.4-34.54,16.24-55.41,1.21-3.66,2.4-7.21,3.58-10.61,2.71,1.58,5.51,3.08,8.39,4.46s5.9,2.7,9,3.86a128.06,128.06,0,0,0,45.84,8.32,129.72,129.72,0,0,0,37.11-5.35,119.51,119.51,0,0,0,21.49-8.73C287,343,288.44,357.39,290.69,369.77Z" />
        <path class="BUNTAI_WALRUS_OUTFIT_BUNTAI_WALRUS_OUTFIT-20_cls-6" d="M285.67,325.56a117.14,117.14,0,0,1-11.75,5.37c-1.49.6-3,1.16-4.52,1.68-1.71.6-3.46,1.16-5.22,1.69-3.58,1.06-7.23,2-11,2.73h0c-2.79.56-5.62,1-8.48,1.42a132.52,132.52,0,0,1-35.66,0c-1.54-.21-3.07-.45-4.57-.72-3.06-.52-6-1.16-9-1.9l-.06,0a122.67,122.67,0,0,1-14.23-4.47c-1.77-.67-3.53-1.39-5.24-2.15l-.07,0c-1.24-.55-2.45-1.11-3.65-1.68-2.88-1.38-5.68-2.88-8.39-4.46,3.95-11.43,7.71-21.39,11.25-30,1.38-3.39,2.75-6.54,4-9.53h0c2.76-6.28,5.34-11.7,7.72-16.39,0,0,0,0,0,0,3-5.86,5.65-10.57,8-14.34a102.94,102.94,0,0,1,6.24-9.18,40.15,40.15,0,0,1,3.48-4.06l-.73-2.4c7.35-2.54,13.85-5.42,17.63-5.42h0c.24.1.48.18.73.26l.56.21,2.51-.13,4.47-.21,1,0,4.22-.21h0l.25-.11.22-.11c9.7,2,10.06,3.93,17.64,8.49v0h0c3.76,6.18,9.43,15.95,15,27.44,8.1,16.81,16,37.28,17.36,55.55C285.52,323.71,285.6,324.63,285.67,325.56Z" />
        <path class="BUNTAI_WALRUS_OUTFIT_BUNTAI_WALRUS_OUTFIT-20_cls-4" d="M154.86,230.44c15.9,3.18,32.81,7.19,42,8.1l1.74.16c1.78-.51,3.53-1.08,5.25-1.67l4.15-.77c-.55.55-5.17,5-6.9,7.22a105.61,105.61,0,0,0-6.24,9.19c-2.33,3.76-5,8.47-8,14.33l0,0c-2.38,4.7-5,10.12-7.71,16.4h0c-1.31,3-2.67,6.15-4.06,9.53-3.54,8.64-7.3,18.6-11.25,30-1.18,3.4-2.37,6.95-3.58,10.61C153.45,354.48,148.15,373,144.05,389v.06c-6.21,24.21-9.67,42.47-11.51,53.91H93.65c-23.87-59.13-7.06-177.32-6.76-179.5C40.6,370.83,44.66,297.61,51.86,443H13.57s-1.93-3.85-2.31-26.07,8.48-65.57,8.48-65.57-10-20,.44-29.64,21.17-33.78,21.17-33.78-.76-8,10.39-29.59,37.41-39.58,37.41-39.58l3.46.25c3.47.23,18.21,6.27,36.69,7.48A154.43,154.43,0,0,1,145,228.57C148.15,229.13,151.48,229.77,154.86,230.44Z" />
        <path class="BUNTAI_WALRUS_OUTFIT_BUNTAI_WALRUS_OUTFIT-20_cls-4" d="M221.51,231.6c-3.78,0-10.28,2.88-17.63,5.42-1.72.6-3.47,1.18-5.25,1.68l-1.74-.16c-.75-.07-1.56-.17-2.41-.29-.45-.05-.91-.12-1.38-.19-1.39-.21-2.87-.45-4.43-.72l-1.94-.36-.47-.08-1.71-.33c-3.68-.71-7.68-1.53-11.84-2.4l-4-.85-4.87-1c-1-.22-2-.42-3-.63l-.52-.11-1-.2-1.77-.36-2.74-.56-3.78-.72-1.26-.25c-.38-.08-.77-.15-1.16-.21-1.25-.25-2.5-.47-3.71-.69a157.79,157.79,0,0,0-15.66-2.09c-1.89-.12-3.75-.3-5.54-.51-.4,0-.8-.1-1.2-.15l-1.9-.26-1.94-.3-1.28-.22c-.4-.06-.79-.14-1.18-.21-1-.17-2-.37-3-.57l-.34-.07c-2.24-.48-4.35-1-6.3-1.47l-1.52-.4-3.23-.87-.7-.19c-1.31-.37-2.5-.73-3.55-1l-1.24-.35a23.44,23.44,0,0,0-3.81-.87c-.64,0-1.16-.09-1.6-.11l-.65-.06h-.15c-.36,0-.61,0-.76-.07h-.3s1.16-9.9,4-10.37c4.62-11.82,10.11-12.55,16.47-16.16a22.87,22.87,0,0,0,9-9.42,71.46,71.46,0,0,1,9-1.14c-.42,1.18-.86,2.34-1.33,3.49-.2.49-.4,1-.61,1.46h0c-.37,1.16-.76,2.3-1.18,3.42l1.1,1.44c.43.53.94,1.15,1.55,1.83l.16.16A108,108,0,0,0,138,203.25l0,0a150.45,150.45,0,0,0,17.38,11.52A136.41,136.41,0,0,0,196.92,230l.2,0q4.74.74,9.74,1.06l.84.06Q214.95,231.58,221.51,231.6Z" />
        <path class="BUNTAI_WALRUS_OUTFIT_BUNTAI_WALRUS_OUTFIT-20_cls-4" d="M235.93,225.68a29.62,29.62,0,0,0-.66,5.6l-.48,0c-1.31.07-2.64.14-4,.18l-1,0c-1.46.05-3,.08-4.47.09l-2.6,0c1.2-.74,2.08-1.23,2.63-1.53a2.46,2.46,0,0,1,0-1.54,2,2,0,0,1,.31-.62c.09-.56.19-1.13.31-1.72a2.23,2.23,0,0,1,2.65-1.84,2.42,2.42,0,0,1,1.7,2.87c0,.25-.11.53-.14.79h0l.71.38a34.7,34.7,0,0,1,.61-3.82,2.24,2.24,0,0,1,2.68-1.82A2.43,2.43,0,0,1,235.93,225.68Z" />
        <path class="BUNTAI_WALRUS_OUTFIT_BUNTAI_WALRUS_OUTFIT-20_cls-4" d="M353.63,213.94v0l-.05.05s0,0,0,0a0,0,0,0,1,0,0s0,0-.05.07h0l-.1.13-.12.16s0,0,0,.07h0s0,0,0,0a.24.24,0,0,1-.06.08l0,0-.15.2-.11.13-.17.22-.06.07a.35.35,0,0,1-.1.11c-.6.76-1.5,1.8-2.64,3l-.33.34-.24.25c-.17.16-.34.34-.52.52l-.4.39c-.14.14-.27.28-.41.4l-.38.35c-.13.14-.28.26-.42.4l-.1.08c-.62.56-1.28,1.13-2,1.71l-.71.58-.74.59-.38.29-.58.43c-.19.15-.4.29-.61.44l-.8.56c-.41.29-.83.57-1.26.85l-1.33.84h0l-.15.08c-.45.28-.9.55-1.37.81l-.26.14c-.42.24-.86.47-1.31.69-.13.08-.27.15-.41.22-.53.27-1.08.53-1.62.78s-1.13.5-1.71.74-1,.38-1.46.56l-.18.06c-.33.13-.67.25-1,.36s-.81.27-1.22.39a5.18,5.18,0,0,1-.56.17l-.36.11a1.9,1.9,0,0,1-.36.09c-.24.07-.48.14-.72.19a5,5,0,0,1-.52.14c-.68.16-1.36.31-2,.45l-.74.15-.39.08-.54.11c-.87.18-1.65.36-2.37.53l-.73.18a5.18,5.18,0,0,0-.53.14l-.4.09-.55.14c-.73.18-1.44.37-2.18.53l-.89.21c-.24,0-.48.11-.73.15s-.49.11-.76.15l-1.12.2-.12,0-.47.08-.69.11-1.11.16-.36,0-.25,0c-.27,0-.55.07-.83.09l-.72.09-.75.08-.85.08c-.57.06-1.18.11-1.83.16l-2,.17c-7.12.52-14.34.94-20.89,1.31-18.36,1.6-20.87,1.62-27.45,1.28-7.58-4.56-7.94-6.47-17.64-8.49q4.32-.27,8.33-.68h0c5.27-.55,10.13-1.3,14.62-2.19l1-.2c2.32-.49,4.79-1.07,7.35-1.71a5.29,5.29,0,0,0,.63-.16,132.17,132.17,0,0,0,19.81-7c4-1.81,7.51-3.58,10.56-5.2a191.8,191.8,0,0,0,23.56-14.88l0,0h0c.09-.06.17-.13.26-.18-1.75-4-1-8-2.26-12.41-.08-.24-.14-.5-.22-.75q-.36-1-.69-1.95c-.18-.53-.33-2.41-.5-2.94l5.38.8a5.45,5.45,0,0,0-.69,2.1,3.36,3.36,0,0,0,.06,1c.48,2.18,1.31,4.13,13.1,2.17,2.68-.44.29,11.27.29,11.27s5.77,4.33,9.61,5.94,5,3.38,5,3.38Z" />
        <path class="BUNTAI_WALRUS_OUTFIT_BUNTAI_WALRUS_OUTFIT-20_cls-4" d="M417.87,443H326s-10.69-15.28-22.53-35.79c-6.27-10.86-10.11-22.74-12.79-37.43-2.25-12.38-3.67-26.76-5-44.21-.07-.93-.15-1.85-.22-2.8-1.39-18.28-9.25-38.75-17.35-55.55-5.53-11.49-11.19-21.27-15-27.45h0c6.56.35,9.07.31,27.44-1.29,6.55-.35,13.76-.79,20.89-1.31,13.07-1,13.75-2.19,21.94-3.76,19.35-3.72,30.22-19.45,30.22-19.45h0s8.36,18,16.44,33.45,6.38,26.07,16.4,40.87,7,42.45,11.27,60.47,14.62,32.82,15.78,35.39,8.09,38.29,8.09,38.29L419.69,443Z" />
        <path class="BUNTAI_WALRUS_OUTFIT_BUNTAI_WALRUS_OUTFIT-20_cls-7" d="M126.12,192.23s.34.39,1,1.1l.16.17A109.58,109.58,0,0,0,138,203.25l0,0c11.3,9.15,30.27,21.33,55.18,26.06" />
        <path class="BUNTAI_WALRUS_OUTFIT_BUNTAI_WALRUS_OUTFIT-20_cls-7" d="M221.55,231.6c.39,0,.78,0,1.15,0h.06l2.6,0c1.51,0,3,0,4.47-.09l1,0c1.36,0,2.69-.11,4-.18l.48,0,.22,0" />
        <path class="BUNTAI_WALRUS_OUTFIT_BUNTAI_WALRUS_OUTFIT-20_cls-7" d="M327.1,194.14l-2.92,2.92s-.9.72-2.53,1.95c-.09.05-.17.12-.26.18h0l0,0a191.8,191.8,0,0,1-23.56,14.88c-3.05,1.62-6.54,3.39-10.56,5.2" />
        <path class="BUNTAI_WALRUS_OUTFIT_BUNTAI_WALRUS_OUTFIT-20_cls-7" d="M193.18,229.34c1.23.23,2.48.45,3.74.63l.2,0q4.74.74,9.74,1.06l.84.06q7.25.45,13.81.47" />
        <path class="BUNTAI_WALRUS_OUTFIT_BUNTAI_WALRUS_OUTFIT-20_cls-7" d="M235.49,231.26q4.32-.27,8.33-.68h0c5.27-.55,10.13-1.3,14.62-2.19l1-.2c2.57-.52,5-1.11,7.35-1.71a5.29,5.29,0,0,0,.63-.16,132.17,132.17,0,0,0,19.81-7" />
        <path class="BUNTAI_WALRUS_OUTFIT_BUNTAI_WALRUS_OUTFIT-20_cls-7" d="M221.55,231.6h0c-3.78,0-10.28,2.88-17.63,5.42-1.72.6-3.47,1.18-5.25,1.68l-1.74-.16c-8.06-.79-22-4-36-6.87l-.52-.11-5.49-1.12c-1.68-.32-3.34-.65-5-.95l0,0c-.38-.08-.77-.15-1.16-.21-1.25-.25-2.5-.47-3.71-.69a157.79,157.79,0,0,0-15.66-2.09A117.19,117.19,0,0,1,113,224.19c-2.24-.48-4.35-1-6.3-1.47l-1.52-.4c-6.33-1.65-10.81-3.19-12.53-3.31l-2.25-.17h-.14l-1.07-.08s1.16-9.9,4-10.37c4.62-11.82,10.11-12.55,16.47-16.16a22.87,22.87,0,0,0,9-9.42,70.5,70.5,0,0,1,9-1.13l-3.11,8.38" />
        <path class="BUNTAI_WALRUS_OUTFIT_BUNTAI_WALRUS_OUTFIT-20_cls-7" d="M235.49,231.26c9.7,2,10.06,3.93,17.64,8.49,6.58.34,9.09.32,27.45-1.28,6.55-.37,13.77-.79,20.88-1.31l2-.17c.65-.05,1.26-.1,1.83-.16l.85-.08.75-.08.72-.08.83-.1.61-.07,1.11-.16.69-.11.47-.08.12,0,1.12-.2c.27,0,.51-.1.76-.15s.49-.1.73-.15l.89-.21c.74-.16,1.45-.35,2.18-.53l.55-.14.4-.09a5.18,5.18,0,0,1,.53-.14l.73-.18c.72-.17,1.5-.35,2.37-.53l.54-.11.39-.08.74-.15c.69-.14,1.37-.29,2-.45a5,5,0,0,0,.52-.14c.24-.05.48-.12.72-.19a1.9,1.9,0,0,0,.36-.09l.36-.11a5.18,5.18,0,0,0,.56-.17c.41-.12.82-.25,1.22-.39s.68-.23,1-.36l.18-.06c.5-.18,1-.37,1.46-.56s1.15-.48,1.71-.74,1.09-.51,1.62-.78c.14-.07.28-.14.41-.22.45-.22.89-.45,1.31-.69l.26-.14c.47-.26.92-.53,1.37-.81l.15-.08h0l1.33-.84c.43-.28.85-.56,1.26-.85l.8-.56c.21-.15.42-.29.61-.44l.58-.43.38-.29.74-.59.71-.58c.69-.58,1.35-1.15,2-1.71l.1-.08c.14-.14.29-.26.42-.4l.38-.35c.14-.12.27-.26.41-.4l.4-.39c.18-.18.35-.36.52-.52l.24-.25.33-.34c1.14-1.2,2-2.24,2.64-3a.35.35,0,0,0,.1-.11l.06-.07.17-.22.11-.13.15-.2a.05.05,0,0,0,0,0h0l.08-.11h0s0,0,0-.07l.12-.16.1-.13h0s0-.06,0-.07a0,0,0,0,0,0,0s0,0,0,0l.05-.05v0l-2.89-6.28s-1.15-1.77-5-3.38-9.61-5.94-9.61-5.94,2.39-11.71-.29-11.27c-11.79,2-12.62,0-13.1-2.17a3.36,3.36,0,0,1-.06-1,5.26,5.26,0,0,1,.69-2.1L318,181a81.1,81.1,0,0,1,1.89,7.91c.28,2.28.75,8.48,1.78,10.14" />
        <path class="BUNTAI_WALRUS_OUTFIT_BUNTAI_WALRUS_OUTFIT-20_cls-7" d="M221.55,231.6c.24.1.48.18.73.26l.56.21,2.51-.13,4.47-.21,1,0,4.22-.21h0l.25-.11.22-.11" />
        <path class="BUNTAI_WALRUS_OUTFIT_BUNTAI_WALRUS_OUTFIT-20_cls-7" d="M144.05,389c4.1-16,9.4-34.54,16.24-55.41,1.21-3.66,2.4-7.21,3.58-10.61,3.95-11.43,7.71-21.39,11.25-30,1.39-3.38,2.75-6.54,4.06-9.53h0c2.75-6.28,5.33-11.7,7.71-16.4l0,0c3-5.86,5.65-10.57,8-14.33a105.61,105.61,0,0,1,6.24-9.19,41.41,41.41,0,0,1,3.47-4l.31-.3h0v0s5-3.81,6.33-4.76" />
        <path class="BUNTAI_WALRUS_OUTFIT_BUNTAI_WALRUS_OUTFIT-20_cls-7" d="M132.54,443c1.84-11.44,5.3-29.7,11.51-53.91" />
        <path class="BUNTAI_WALRUS_OUTFIT_BUNTAI_WALRUS_OUTFIT-20_cls-7" d="M93.65,443H13.57s-1.93-3.85-2.31-26.07,8.48-65.57,8.48-65.57-10-20,.44-29.64,21.17-33.78,21.17-33.78-.76-8,10.39-29.59,37.41-39.58,37.41-39.58" />
        <path class="BUNTAI_WALRUS_OUTFIT_BUNTAI_WALRUS_OUTFIT-20_cls-7" d="M353.64,213.94s8.36,18,16.44,33.45,6.38,26.07,16.4,40.87,7,42.45,11.27,60.47,14.62,32.82,15.78,35.39,8.09,38.29,8.09,38.29L419.69,443H95.38" />
        <path class="BUNTAI_WALRUS_OUTFIT_BUNTAI_WALRUS_OUTFIT-20_cls-7" d="M253.14,239.75h0c3.76,6.18,9.42,16,15,27.45,8.1,16.8,16,37.27,17.35,55.55.07.95.15,1.87.22,2.8,1.35,17.45,2.77,31.83,5,44.21,2.68,14.69,6.52,26.57,12.79,37.43C315.32,427.71,326,443,326,443" />
        <path class="BUNTAI_WALRUS_OUTFIT_BUNTAI_WALRUS_OUTFIT-20_cls-7" d="M154.86,230.44s-8.42,9.46-24.21,50-16.08,70.87-16.08,70.87" />
        <path class="BUNTAI_WALRUS_OUTFIT_BUNTAI_WALRUS_OUTFIT-20_cls-7" d="M145,228.57s-20.56,35.07-28.64,59.2" />
        <path class="BUNTAI_WALRUS_OUTFIT_BUNTAI_WALRUS_OUTFIT-20_cls-7" d="M86.91,263.47a314.4,314.4,0,0,1,15-30.75" />
        <path class="BUNTAI_WALRUS_OUTFIT_BUNTAI_WALRUS_OUTFIT-20_cls-7" d="M29.23,443c-3.73-42-2.51-96.67-2.51-96.67" />
        <path class="BUNTAI_WALRUS_OUTFIT_BUNTAI_WALRUS_OUTFIT-20_cls-7" d="M301.46,237.14h0c.33.5,11.31,16.53,32.92,62.64" />
        <path class="BUNTAI_WALRUS_OUTFIT_BUNTAI_WALRUS_OUTFIT-20_cls-7" d="M287.35,251.46s45.31,83.28,47,191.53" />
        <path class="BUNTAI_WALRUS_OUTFIT_BUNTAI_WALRUS_OUTFIT-20_cls-7" d="M163.87,323c2.71,1.58,5.51,3.08,8.39,4.46s5.9,2.7,9,3.86a128.06,128.06,0,0,0,45.84,8.32,129.72,129.72,0,0,0,37.11-5.35,119.51,119.51,0,0,0,21.49-8.73" />
        <path class="BUNTAI_WALRUS_OUTFIT_BUNTAI_WALRUS_OUTFIT-20_cls-7" d="M181.23,331.32a457.47,457.47,0,0,0,1.22,64.07" />
        <path class="BUNTAI_WALRUS_OUTFIT_BUNTAI_WALRUS_OUTFIT-20_cls-7" d="M172.26,327.46s-2.3,65.26,6.55,97.6" />
        <path class="BUNTAI_WALRUS_OUTFIT_BUNTAI_WALRUS_OUTFIT-20_cls-7" d="M264.18,334.29s3.19,51.32-11,82.63" />
        <path class="BUNTAI_WALRUS_OUTFIT_BUNTAI_WALRUS_OUTFIT-20_cls-7" d="M290.69,369.77s.95,27.05-13.21,51.42" />
        <path class="BUNTAI_WALRUS_OUTFIT_BUNTAI_WALRUS_OUTFIT-20_cls-7" d="M144.05,389v.06a79.24,79.24,0,0,0,7.2,34.05" />
        <path class="BUNTAI_WALRUS_OUTFIT_BUNTAI_WALRUS_OUTFIT-20_cls-7" d="M86.91,263.47l0,0c-.3,2.18-17.11,120.37,6.76,179.5h1.73" />
        <path class="BUNTAI_WALRUS_OUTFIT_BUNTAI_WALRUS_OUTFIT-20_cls-7" d="M392.47,443c-.68-59.51-32-115.53-32-115.53" />
        <g class="BUNTAI_WALRUS_OUTFIT_BUNTAI_WALRUS_OUTFIT-20_cls-8">
          <path d="M125.65,186.62h0c-.37,1.16-.76,2.3-1.18,3.42a13.14,13.14,0,0,1-.73-1.11l2.37-4,.14.21C126.06,185.65,125.86,186.14,125.65,186.62Z" />
          <path d="M127.29,193.49A108,108,0,0,0,138,203.25,81.73,81.73,0,0,1,127.29,193.49Z" />
          <path d="M207.7,231.13a8.64,8.64,0,0,0-1.26.13,60.63,60.63,0,0,1-9.32-1.25q4.74.74,9.74,1.06Z" />
          <path d="M243.84,230.57c5.27-.55,10.13-1.3,14.62-2.19-9.45,2-16.28,2.7-16.28,2.7.55-.16,1.09-.32,1.64-.5Z" />
          <path d="M321.36,199.23c-.44.45-4.55,4.34-24.58,15.91-8.81,5.09-19.66,8.7-29.35,11.17a132.17,132.17,0,0,0,19.81-7c4-1.81,7.51-3.58,10.56-5.2A191.8,191.8,0,0,0,321.36,199.23Z" />
          <path d="M160.89,231.67s-27,57.82-31.24,108c-.2-31.65,1-47,1-47s-15.4,41.34-11.79,93.71S124,443,124,443H111.43S103,366.53,115,317a381.8,381.8,0,0,1,33.64-87.79Z" />
          <path d="M113.63,222.71s-22.47,48.26-21.85,84,1.63,92.13,5.83,110.24,7,27,7,27H67.18c1-124.08.53-122.74,16.83-173.56a350.5,350.5,0,0,1,22.6-47.63Z" />
          <path d="M90.41,218.76s-36.55,49.26-40,70.33S43,340.5,42.21,382.89,44.35,443,44.35,443H13.57s-3.13-22.46-.46-53.19c1.14-13.1,5.34-27.76,6.63-38.45-7-14.31-4.54-24.34.75-30,9.21-9.89,19.36-30.52,20.29-34.13C47.32,262.68,83.33,221.3,90.41,218.76Z" />
          <path d="M292.45,261.78s2.4,23.82,11.81,68.78,12.41,73.94,12.41,73.94-14.4-34.62-22.62-55.82c2,36.57,9.37,55.74,12.39,63.58S326,443,326,443h8.37s-.89-41-5.89-93.61-19.24-93.77-19.24-93.77,8.12,40.65,8.67,60.47c-20.07-60-30.57-64.62-30.57-64.62Z" />
          <path d="M301.46,237.14s39.11,67.71,44.92,99.38c1.13-34.81-19.73-101.76-19.73-101.76Z" />
          <path d="M361.58,327.46c26.91,44.81,19.46,45.16,29.84,73.23,9.81,26.55,12.81,42.3,12.21,42.3H392.47S374.19,373.11,361.58,327.46Z" />
          <path d="M163.35,324.5s-29.28,87.8-31,119.83h72.59s-7.32-47.26-8.12-78.74c-2.94,45.85-3.62,63.16-3.62,63.16s-8-47.66,2.33-92.94C182.85,331.93,163.35,324.5,163.35,324.5Z" />
          <path d="M244.74,338.46a309.4,309.4,0,0,1-12,72.11C250.46,373.64,253.22,337,253.22,337Z" />
        </g>
        <polyline class="BUNTAI_WALRUS_OUTFIT_BUNTAI_WALRUS_OUTFIT-20_cls-7" points="121.88 186.62 124.48 190.06 125.58 191.5 126.12 192.23" />
        <path class="BUNTAI_WALRUS_OUTFIT_BUNTAI_WALRUS_OUTFIT-20_cls-9" d="M275.4,379.58a2.18,2.18,0,0,1-1.85-1.06c-5.93-9.4-5.29-22.29-4.55-37.22.76-15.27,1.63-32.58-3.8-51.43-10.57-36.71-29-50.34-29.23-50.47a2.54,2.54,0,0,1-.62-3.35,2.13,2.13,0,0,1,3.09-.67c.82.58,20,14.72,31,53.06,5.67,19.68,4.78,37.44,4,53.12-.73,14.63-1.3,26.19,3.78,34.24a2.54,2.54,0,0,1-.59,3.36A2.11,2.11,0,0,1,275.4,379.58Z" />
        <path class="BUNTAI_WALRUS_OUTFIT_BUNTAI_WALRUS_OUTFIT-20_cls-9" d="M213.48,374.7a2.25,2.25,0,0,1-2.11-1.62c-.42-1.3-10.28-32.36-6.34-58.26,1.67-10.91,5.25-22.21,8.71-33.13,4.73-15,9.21-29.09,8.28-40.4a2.37,2.37,0,0,1,2-2.62,2.29,2.29,0,0,1,2.42,2.19c1,12.34-3.61,26.94-8.51,42.39-3.4,10.74-6.92,21.84-8.52,32.36-3.76,24.66,6.05,55.58,6.15,55.89a2.46,2.46,0,0,1-1.37,3.07A2.18,2.18,0,0,1,213.48,374.7Z" />
        <path class="BUNTAI_WALRUS_OUTFIT_BUNTAI_WALRUS_OUTFIT-20_cls-9" d="M249.71,255.26l0-.09c-.74-1.7-1.3-2.93-1.6-3.57a82.67,82.67,0,0,0-9.31-16h0a1,1,0,0,0-.21-.25,36.47,36.47,0,0,0-3.29-3.66l-.26-.23a.72.72,0,0,0-.21-.18,22.59,22.59,0,0,0-3.82-2.89l-.71-.38h0a15.8,15.8,0,0,0-2-.92,2.16,2.16,0,0,0-2.56.82,2,2,0,0,0-.31.62,2.46,2.46,0,0,0,0,1.54c-.55.3-1.43.79-2.63,1.53h-.06l-.42.24c-1.28.78-2.85,1.79-4.67,3.06a123.58,123.58,0,0,0-17.89,15.3c-1,1-1.94,2-2.92,3.07-11.31,12.33-18.33,31.82-15.34,42.57.14.45.28.9.45,1.31a8.7,8.7,0,0,0,6.13,5.74c10,2.29,15-11.46,20.33-26,1.39-3.88,2.85-7.89,4.41-11.61,3.47-8.3,6.37-14.58,9.3-18.74l0,0h0a17,17,0,0,1,4.34-4.55h0l.08-.07c.24-.13.45-.28.67-.39a8,8,0,0,1,3.52-1h.13c.12,0,.23,0,.43.3a8.86,8.86,0,0,1,1,4h0a28,28,0,0,1,.09,3h0s0,0,0,0c-.11,10.63-4.15,30.2-10,46.54-5.28,14.63.93,28.53,9.81,34.72a18,18,0,0,0,10.31,3.49c4.64,0,9.15-2.11,12.87-6.2C271,309,255.39,268.36,249.71,255.26Zm-19-19.56c-.27,0-.54,0-.8.07h0a12.11,12.11,0,0,0-4.36,1.25h0a2.49,2.49,0,0,0-.28.15c-6.12,3.26-10.37,11.36-16.53,26.11-1.62,3.87-3.08,7.93-4.5,11.86-4.58,12.6-8.87,24.5-15.25,23-.57-.13-2.35-.53-3.23-3.71a21.35,21.35,0,0,1-.19-8.37v0a55.57,55.57,0,0,1,7-19.09s0,0,0-.06A59.13,59.13,0,0,1,200,256.7a115.73,115.73,0,0,1,25.43-21.17l.59-.34c1.14-.65,1.78-1,1.8-1a2.39,2.39,0,0,0,1.2-1.43,7.47,7.47,0,0,1,.81.53,10.15,10.15,0,0,1,1.05.78c.47.38.93.78,1.42,1.23s.75.75,1.14,1.16a4.11,4.11,0,0,0-2.41-.77h-.28ZM252.13,323c-5,5.49-11.54,6.25-17.58,2-7.35-5.12-12.47-16.7-8.05-28.9,5.15-14.3,10.39-36.1,10.25-49.08h0c0-3.55-.51-6.47-1.47-8.37l.27.34c.29.38.59.79.88,1.2,0,0,0,0,0,0v0a84.35,84.35,0,0,1,7.61,13.52C252.43,271.57,264.82,308.92,252.13,323Z" />
        <path class="BUNTAI_WALRUS_OUTFIT_BUNTAI_WALRUS_OUTFIT-20_cls-9" d="M232.37,247.79h0a2.32,2.32,0,0,1-.62.63,2,2,0,0,1-1.19.37,2.16,2.16,0,0,1-1.88-1.1,24.23,24.23,0,0,1-2.1-5.27c0-.15-.08-.3-.12-.47-.22-.78-.41-1.62-.58-2.54-.14-.76-.26-1.55-.35-2.4-.05-.48-.09-1-.13-1.49a35.38,35.38,0,0,1,0-3.59c0-.1,0-.21,0-.34.06-1.17.18-2.4.37-3.67.09-.56.19-1.13.31-1.72a2.23,2.23,0,0,1,2.65-1.84,2.42,2.42,0,0,1,1.7,2.87c0,.25-.11.53-.14.79a27.9,27.9,0,0,0-.42,3.48c0,.08,0,.15,0,.22,0,.53,0,1.06,0,1.58,0,.86,0,1.68.1,2.46a28.73,28.73,0,0,0,.83,4.77,22.36,22.36,0,0,0,1.56,4.25h0l.16.3A2.57,2.57,0,0,1,232.37,247.79Z" />
        <path class="BUNTAI_WALRUS_OUTFIT_BUNTAI_WALRUS_OUTFIT-20_cls-9" d="M237,246.88a1.61,1.61,0,0,1-.29.15h0a1.4,1.4,0,0,1-.46.16,2.17,2.17,0,0,1-2.32-1.09,28.44,28.44,0,0,1-3-10.4c-.06-.52-.09-1.06-.13-1.62q-.08-1.16-.06-2.4a1.48,1.48,0,0,1,0-.21c0-1,.07-2,.18-3.07a34.7,34.7,0,0,1,.61-3.82,2.24,2.24,0,0,1,2.68-1.82,2.43,2.43,0,0,1,1.67,2.91,29.62,29.62,0,0,0-.66,5.6v.09c0,.12,0,.23,0,.34a27.75,27.75,0,0,0,.25,4.11,24.84,24.84,0,0,0,.78,3.82,5.25,5.25,0,0,0,.17.6v0a18.23,18.23,0,0,0,1.3,3.3A2.54,2.54,0,0,1,237,246.88Z" />
      </g>
    </g>
  </g>
</svg>