<svg xmlns="http://www.w3.org/2000/svg" xmlns:xlink="http://www.w3.org/1999/xlink" viewBox="0 0 432 432">
  <defs>
    <style>.BUNTAI_WALRUS_OUTFIT_BUNTAI_WALRUS_OUTFIT-12_cls-1,.BUNTAI_WALRUS_OUTFIT_BUNTAI_WALRUS_OUTFIT-12_cls-7{fill:none;}.BUNTAI_WALRUS_OUTFIT_BUNTAI_WALRUS_OUTFIT-12_cls-2{isolation:isolate;}.BUNTAI_WALRUS_OUTFIT_BUNTAI_WALRUS_OUTFIT-12_cls-3{clip-path:url(#BUNTAI_WALRUS_OUTFIT_BUNTAI_WALRUS_OUTFIT-12_clip-path);}.BUNTAI_WALRUS_OUTFIT_BUNTAI_WALRUS_OUTFIT-12_cls-4{fill:#420901;}.BUNTAI_WALRUS_OUTFIT_BUNTAI_WALRUS_OUTFIT-12_cls-5{fill:#1a151c;}.BUNTAI_WALRUS_OUTFIT_BUNTAI_WALRUS_OUTFIT-12_cls-6{fill:#55484f;}.BUNTAI_WALRUS_OUTFIT_BUNTAI_WALRUS_OUTFIT-12_cls-7,.BUNTAI_WALRUS_OUTFIT_BUNTAI_WALRUS_OUTFIT-12_cls-9{stroke:#000;stroke-linecap:round;stroke-linejoin:round;}.BUNTAI_WALRUS_OUTFIT_BUNTAI_WALRUS_OUTFIT-12_cls-7{stroke-width:1.93px;}.BUNTAI_WALRUS_OUTFIT_BUNTAI_WALRUS_OUTFIT-12_cls-8{opacity:0.43;mix-blend-mode:multiply;}.BUNTAI_WALRUS_OUTFIT_BUNTAI_WALRUS_OUTFIT-12_cls-9{fill:#fff;stroke-width:2.53px;}</style>
    <clipPath id="clip-path">
      <path class="BUNTAI_WALRUS_OUTFIT_BUNTAI_WALRUS_OUTFIT-12_cls-1" d="M-6.89-3.42v441H443.29v-441Zm321.36,270.9a.93.93,0,0,1-.59.21,1,1,0,0,1-.68-.28,25,25,0,0,1-4.38-6.56c-.48,8.51-1.27,18.22-2.5,23.12a1,1,0,0,1-.94.73h-.14a1,1,0,0,1-.82-1c.07-2.06.16-5.08.18-8.62a52.61,52.61,0,0,1-2,7.72c.07,6.19-.69,7.94-.77,8.12a1,1,0,0,1-.87.54h-.08a1,1,0,0,1-.85-.7,54.24,54.24,0,0,0-6.15-12.86l-3.59-2.16c-.63,3-1.3,6-2,9-.37,17.11-1,41.18-1.77,58.86a198.36,198.36,0,0,1-5.17,36.19.05.05,0,0,1,0,0c-.08.38-.18.76-.26,1.14l-.41,1.62c-3.93,16-10.43,33.75-13.44,33.75-2.42,0-2.54-1.74-3.05-9.06l-.4-5.52a1.11,1.11,0,0,1,0-.17c-.41-5.35-1-11.16-1.7-17.67-.1-.94-.21-2-.32-3l-.05-.53c-.07-.67-.13-1.37-.2-2.08l-.09-1c0-.43-.08-.86-.12-1.31l-.13-1.46c-.39-4.49-.8-9.82-1.22-15.86l-.22-3.14c0-.12,0-.18,0-.23-.25-3.7-.51-7.61-.76-11.61l-.18-2.88c-.19-2.91-.37-5.86-.54-8.83-.07-.94-.12-1.9-.18-2.86v-.25c-.38-6.48-.75-13-1.1-19.21l.95-.17-1,.06c0-.06,0-.12,0-.17a.86.86,0,0,1,0-.16s0-.09,0-.13v-.26c0-.14,0-.24,0-.31s0-.27,0-.42V308l0-.5a.66.66,0,0,1,0-.14c0-.17,0-.43,0-.68l0-.52c-.31-5.66-.6-11.06-.86-16l-.14-2.64c-.21-4-.4-7.7-.55-10.89l-.17-3.36c-.29-5.9-.46-9.45-.46-9.45l-.54-9.16a18.64,18.64,0,0,1-2.21,1.44l-.07,0h0a22.3,22.3,0,0,1-7.52,2.43,29,29,0,0,1-3.94.27,30.26,30.26,0,0,1-9.77-1.58l-.08,0a24.67,24.67,0,0,1-8.79-5.1l-.24.19-.44.34-.16.13-.09.06-.06,0-.71.52c-.08,4.76-.19,10.72-.33,17.42l-.08,4.11c-.06,3.41-.14,7-.22,10.61l-.06,2.58c0,1.1,0,2.2-.07,3.32-.12,5-.25,10.12-.38,15.18l-.1,3.69c-.17,6.26-.36,12.44-.56,18.29,0,.56,0,1.13-.05,1.69l-.12,3.41c0,.84-.06,1.67-.1,2.49l-.2,5c0,.75-.06,1.48-.1,2.2v.14c-.17,3.75-.41,7.42-.73,11,0,.37-.06.74-.1,1.1s-.05.7-.09,1.07a2.11,2.11,0,0,0,0,.32c-.06.58-.11,1.09-.17,1.61-.08.8-.16,1.61-.26,2.42-.31,2.82-.68,5.73-1.13,8.86a4.19,4.19,0,0,1-.08.56c-.11.76-.22,1.53-.34,2.28-.23,1.51-.46,3-.71,4.46l-.06.34c-.17,1-.34,2-.52,3-2.79,15.6-6.23,27.62-8.42,32.6-1,2.35-1.75,3.22-2.66,3.22-1.33,0-2.41-.74-3.31-2.28a7.16,7.16,0,0,1-.35-.66,27.35,27.35,0,0,1-1.67-4.87.19.19,0,0,0,0-.07c-.11-.48-.23-1-.36-1.52l.91-.34-.93.24s0-.1,0-.11c0-.19-.08-.41-.13-.62C195.21,401,194.14,393.76,193,384l-.08-.71c-.06-.55-.12-1.11-.17-1.68s-.11-1-.16-1.51a.53.53,0,0,1,0-.15c-.54-5.39-1.1-12.27-1.73-21.12,0-.26,0-.49,0-.72-.06-.83-.12-1.65-.17-2.48l0-.38c-.09-1.2-.17-2.44-.25-3.68,0-.31,0-.65-.07-1q-.21-3-.4-6.07l-.15-2.29c-.05-.72-.09-1.43-.13-2.12,0-.49-.07-1-.1-1.53l-.12-1.91a1.68,1.68,0,0,1,0-.2c0-.08,0-.25,0-.4s0-.4,0-.64c0-.51-.08-1.05-.11-1.59l0-.75c-.08-1.25-.16-2.52-.23-3.78,0-.59-.08-1.21-.12-1.82-.21-3.73-.43-7.47-.64-11.15-.06-1-.12-2.06-.17-3.09-.13-2.16-.25-4.31-.36-6.42-.05-.81-.09-1.6-.14-2.4l0-.81c-.17-3.1-.33-6.14-.48-9.05l-.08-1.45c-.06-1.22-.13-2.41-.18-3.57l-.08-1.39-.09-1.76,0-.73c-.05-.92-.09-1.82-.13-2.7,0-.47,0-.93-.07-1.4a1.47,1.47,0,0,1,0-.27l-.19-3.82v-.11l-.23-4.78c0-.32,0-.61,0-.91l0-.79-1.43.58-1.34.51a3.05,3.05,0,0,1-.29.11l-.25.09-1,.36-.18.07-.29.1-.22.07-.15,0-.13.05-.1,0-.27.08h0l0,0-.11,0-.23.06h0l-.33.11h0l-.23.08a.88.88,0,0,1-.15,0l-.26.07-.16,0-.24.08-.13,0h0l-11,4.43a47.92,47.92,0,0,0-9.2,12.85,1,1,0,0,1-.78.58h-.11a1,1,0,0,1-.78-.4c-.22-.3-1.29-2.1-1.2-8.19a49,49,0,0,1-4-11.39c0,5.08.13,9.48.28,12.2a1,1,0,0,1-.76,1l-.2,0a1,1,0,0,1-.9-.63c-1.93-5.15-3.14-15.57-3.85-24.38a34.29,34.29,0,0,1-3.65,4.62,22.51,22.51,0,0,1-3.76,3.21.91.91,0,0,1-.54.17,1,1,0,0,1-.73-.33,1,1,0,0,1,0-1.28,17.85,17.85,0,0,0,2.82-4.47v0c4.09-8.93,3.82-22.41,3.7-28.16v-.53a26.44,26.44,0,0,1,3.94-13.81,83.21,83.21,0,0,1,3.71-15.81l-.09-.17a1,1,0,0,1-.13-.47,1,1,0,0,1,.82-.94,2.44,2.44,0,0,0,.1-.24,14.72,14.72,0,0,1,3-4.29c.08-.27.16-.55.24-.85l.32-1c.27-.88.57-1.81.89-2.72s.66-1.77,1-2.5l.13-.27c.06-.14.12-.26.18-.38v0c0-.16,0-.33,0-.49a1.1,1.1,0,0,1,0-.18c-.1-1.55-.17-3.3-.21-5.56v-1.34c0-1.76,0-3.7,0-5.84v-.25c0-.4,0-.78,0-1.17v-.47c0-1.34,0-2.51-.12-3.58s-.19-2.12-.35-3.13c0,0,0-.1,0-.12-.18-1.18-.4-2.35-.69-3.72-.14-.63-.27-1.25-.41-1.87a1.42,1.42,0,0,1,0-.2l-.23-1.1s0-.1,0-.11v0a1.13,1.13,0,0,1,0-.18v0a.7.7,0,0,1,0-.14l-.19-1s0,0,0-.06a44.1,44.1,0,0,1-.64-5.67l0-.67c-.05-1.73,0-3.5.12-5.42.51-7.72,3.1-13.73,8.15-18.92.23-.24.48-.49.73-.73a52.12,52.12,0,0,1,8.85-6.71,31.48,31.48,0,0,1,5.13-9.79,1.46,1.46,0,0,1,.15-.2,31.86,31.86,0,0,1,10.58-8.9c15.19-7.94,35.31-16.16,56.36-9.18l3.7.51c15.92,2.16,28.48,3.87,36,17.3a37.94,37.94,0,0,1,2.32,4.9l.19.16q.41.34.81.72l0,0,0,0c.58.52,1.18,1,1.76,1.58a82,82,0,0,1,7.67,7.88c.26.32.47.58.66.83s.42.53.61.79l.21.29c.11.17.23.33.33.49a14.06,14.06,0,0,1,.89,1.47l.12.21c3.22,6.08,4.55,8.6,3.49,24.53,0,.55-.07,1.1-.1,1.64s-.07,1.07-.09,1.6-.06,1-.09,1.55v.05h0c-.06,1-.11,2-.16,3-.25,5.42-.4,10.79-.45,16,0,.6,0,1.2,0,1.8,0,2.15,0,4.26,0,6.31,0,1.33,0,2.62.06,3.9h0c0,1.3.06,2.59.1,3.84,0,.24,0,.45,0,.65a.92.92,0,0,1,0,.16c0,.23,0,.47,0,.69,0,.48,0,.9.05,1.32l0,.62a5.73,5.73,0,0,1,.38.62l0,.06.38.68a5.64,5.64,0,0,1,.26.55,1.17,1.17,0,0,1,.1.2c.06.14.12.26.17.4l.08.19c0,.09.1.25.16.4s.11.32.15.45.1.3.16.5.17.65.26,1l.12.46.13.55c.17.73.33,1.44.49,2.17.07.33.14.69.2,1,.11.53.19,1,.27,1.44a0,0,0,0,0,0,0,.09.09,0,0,0,0,.05c.05.27.1.56.14.83l0,.11v0c.1.55.19,1.11.27,1.66s.16,1.09.25,1.66.13.94.19,1.42a7.07,7.07,0,0,1,.09.72c.05.33.09.7.13,1.07l.06.47s0,.08,0,.12l.11.95v.11c.05.42.1.93.15,1.43l0,.29a36.27,36.27,0,0,1,2.62,13.71v.52c-.09,6.81-.33,24.89,4.39,32.82A1,1,0,0,1,314.47,267.48Z" />
    </clipPath>
  </defs>
  <g class="BUNTAI_WALRUS_OUTFIT_BUNTAI_WALRUS_OUTFIT-12_cls-2">
    <g id="outfit">
      <g class="BUNTAI_WALRUS_OUTFIT_BUNTAI_WALRUS_OUTFIT-12_cls-3">
        <path class="BUNTAI_WALRUS_OUTFIT_BUNTAI_WALRUS_OUTFIT-12_cls-4" d="M178.66,264.65c1.66,1.7,3.38,3.41,5.16,5.09l0,0s-.65.68-1.48,1.41C181,268.94,179.8,266.77,178.66,264.65Z" />
        <path class="BUNTAI_WALRUS_OUTFIT_BUNTAI_WALRUS_OUTFIT-12_cls-5" d="M66.35,444.92H-.87L7,415.28l11-31.57L28,345.15l-4.47-5.43,8.73-26q2,1.07,4.25,2.25c14.38,7.68,22.89,7.68,44.23,22.54a400.35,400.35,0,0,1,36.71,28.79s39.35,5.71,66.49,2.23,38-3.76,42.61-1.86c-7.63-13-9.15-20.69-4.81-49.57.14-1,.29-2,.46-3.05,1.53-9.82,3-17.93,4.3-24.45a114.15,114.15,0,0,1,12,15.49c11.14,17.22,16.54,35.65,26.71,59.56,7.19-2,57.39-15.58,57.39-15.58s.13-7.1-13-39.3c15.61,15.43,32.56,43.33,32.56,43.33a14.33,14.33,0,0,0,4.8-.37s5,59.49,5.52,69.14h0l1.09,22Z" />
        <path class="BUNTAI_WALRUS_OUTFIT_BUNTAI_WALRUS_OUTFIT-12_cls-5" d="M352.41,422.91c-.55-9.65-5.52-69.14-5.52-69.14a59.94,59.94,0,0,0,7.38-1.95,154.89,154.89,0,0,0,19.17-8,167.12,167.12,0,0,0,24.31-14.19l3.57,6.47L398,346.71,410.71,377l19.68,35.71,4.69,32.23H353.49l-1.09-22Z" />
        <path class="BUNTAI_WALRUS_OUTFIT_BUNTAI_WALRUS_OUTFIT-12_cls-6" d="M407.22,321.8a47.31,47.31,0,0,1-4.4,3.95c-1.35,1.1-3,2.4-5.07,3.87a167.12,167.12,0,0,1-24.31,14.19,154.89,154.89,0,0,1-19.17,8s-1.59-2.64-6.74-12.71-16.56-29-31.35-50.71-27.72-37-27.72-37l59.23,10.93,35.78,19.76s.95,16.91,2.18,19.45S407.22,321.8,407.22,321.8Z" />
        <path class="BUNTAI_WALRUS_OUTFIT_BUNTAI_WALRUS_OUTFIT-12_cls-6" d="M183.82,269.74h0l0,0c-.16.17-.75.76-1.44,1.37-1,.86-2.15,1.77-2.86,1.81-1.34.11-36.89-20.48-43.22-26l-2.2-2c-6.36-3.53-24.58-6.29-25.11-6.29s-9.73.82-16.12,1.27l-2.33.15c-6.15.37-9.41,1.25-17.19,5.91s-27.77,8.68-27.77,8.68h0l0-.06a99.9,99.9,0,0,1-4.59-11.21.83.83,0,0,1,.15-.65,3.35,3.35,0,0,1,.28-.41c2.73-3.43,16.94-11.64,16.94-11.64s1.45-4.74,6.32-16.36,9.78-17.16,17.56-20.93,13.55-11.27,13.55-11.27l16.3,9.13c1.83,1.5,4.63,3.89,7.76,6.64.52.44,1,.91,1.59,1.38,1.27,1.1,2.56,2.24,3.85,3.38l1.35,1.19a3.4,3.4,0,0,0,.29.26c1,.9,2,1.8,3,2.68s2.15,1.9,3.14,2.79l.81.72,1,.92.44.39c.51.45,1,.88,1.45,1.3l.85.76.07.05.71.64,2.75,2.47v4l.18.31a4.73,4.73,0,0,0,.28.47,4.89,4.89,0,0,0,.27.46,71.56,71.56,0,0,0,6.74,8.83c.21.24.41.49.63.72.67.79,1.42,1.6,2.2,2.45l.82.87c.26.3.55.59.84.89,6.33,6.66,14.8,17.74,25.58,28.8C180.33,266.36,182,268.05,183.82,269.74Z" />
        <path class="BUNTAI_WALRUS_OUTFIT_BUNTAI_WALRUS_OUTFIT-12_cls-6" d="M387,270.15c-2-4.7-7.19-11.82-7.72-19.59.42-10.06-15.86-16.22-17.63-17.31s-7.73-11.37-7.73-11.37v0c0-.24-.33-2.52-1.22-6.85-1-4.55.91-16.67-14.55-29.69-7.08-2.89-10.23-7-16.14-5.63-1.07.21-2.18.45-3.37.68,1.56,5.46,5.89,9.78,8,14.73-2.72,4.08-20.41,10.78-20.41,10.78-.32.35-.65.69-1,1-7.41,7.76-14.47,9.23-25.6,11.56l-6.06,1.29c-16.09,3.42-43.57,9.25-56.88,9.72-15.19.56-40.69-3.5-51-3a39.1,39.1,0,0,1-9.44-.84,86.67,86.67,0,0,1-15-4.52c.07.13.17.28.28.47l.28.46a70.35,70.35,0,0,0,6.74,8.84c.21.23.4.48.63.71.68.79,1.42,1.61,2.2,2.44l.81.87c.27.31.56.61.85.9,6.33,6.65,14.8,17.75,25.57,28.8,1.67,1.72,3.39,3.41,5.17,5.09l.39.41.08.06.54.48c.68.66,1.39,1.3,2.09,1.95.48.43,1,.87,1.45,1.28s.73.65,1.1,1,1,.84,1.46,1.24l.26.23c.61.53,1.23,1,1.84,1.52s1.21,1,1.83,1.46c.47-.11,1-.22,1.5-.31.25-.07.53-.11.81-.16.54-.11,1.13-.2,1.75-.31.29-.05.6-.11.92-.14.63-.11,1.3-.2,2-.29l2.08-.28c.72-.09,1.45-.19,2.2-.26a1.33,1.33,0,0,1,.21,0h0a.16.16,0,0,0,.09,0h.07l1.86-.2,1.9-.2c.56-.05,1.1-.11,1.66-.14,1.19-.13,2.41-.25,3.61-.34h0c.43,0,.87-.06,1.3-.11l1.16-.09,4.85-.36c1.5-.11,3-.22,4.45-.31h0c.84-.06,1.65-.09,2.46-.15,1.08-.07,2.12-.13,3.12-.17.62-.05,1.25-.08,1.84-.11H235c.82-.06,1.6-.1,2.33-.14.06,0,.42-.33,1.06-.85l.54-.45c.13-.09.26-.22.4-.34s.45-.37.7-.59c1.76-1.47,4.3-3.62,7.37-6.24h0a.05.05,0,0,1,.05,0c1.67-1.46,3.55-3,5.52-4.72l1.57-.24h0c1.64-.26,3.32-.54,4.87-.85.82-.15,1.61-.31,2.33-.48.56-.14,1.1-.26,1.58-.4s.92-.28,1.52-.5l1-.35c1-.39,2.22-.87,3.54-1.44l1.37-.59c.46-.2.95-.42,1.44-.62l1.49-.66c1-.47,2.06-.93,3.11-1.41,2.65-1.19,5.41-2.48,8-3.69l2.16.41h0l1.46.26,22.82,4.21,21.94,4.07.29,0a.22.22,0,0,0,.1,0h.05l.1,0,.12,0,11.34,2.09,2.47.45,6.11,3.37,1.45.81,8,4.42.07,0,.1,0,20.06,11.08s.5-.65,1.15-1.69C386.13,278,388.43,273.43,387,270.15ZM285.28,234.31l.06-.05,0,0-.06.05ZM95.71,182.19,112,191.31c1.22,1,2.84,2.37,4.7,4,1.76-3.73,5.83-6.36,7.22-10.46A110.35,110.35,0,0,1,95.71,182.19Z" />
        <path class="BUNTAI_WALRUS_OUTFIT_BUNTAI_WALRUS_OUTFIT-12_cls-6" d="M229.81,275.62c-.86,3.42-2,8.39-3.34,15h0c-1.29,6.52-2.77,14.63-4.3,24.45-.17,1-.32,2.06-.46,3.05-4.34,28.88-2.82,36.58,4.81,49.57-4.62-1.9-15.48-1.62-42.61,1.86s-66.49-2.23-66.49-2.23a400.35,400.35,0,0,0-36.71-28.79C59.37,323.69,50.86,323.69,36.48,316q-2.2-1.18-4.25-2.25c-5.65-2.95-10.33-5.27-13.7-6.87-3.78-1.86-5.92-2.79-5.92-2.79s.26-1.61,3.16-5.91S31.43,278.78,38,270.74c3.73-4.55,6.12-11.14,7.51-16,0,0,20-4,27.76-8.68s11-5.54,17.19-5.91,17.91-1.42,18.45-1.42S127.68,241.47,134,245c.6.54,1.33,1.17,2.2,1.94,6.33,5.54,41.88,26.13,43.23,26,.7,0,1.89-1,2.85-1.8s1.48-1.41,1.48-1.41l0,0a143,143,0,0,0,11,9.59C202.29,277.58,218.09,276.32,229.81,275.62Z" />
        <path class="BUNTAI_WALRUS_OUTFIT_BUNTAI_WALRUS_OUTFIT-12_cls-6" d="M288.46,251.41s12.94,15.25,27.72,37,26.19,40.66,31.35,50.71,6.74,12.71,6.74,12.71a59.94,59.94,0,0,1-7.38,1.95,14.33,14.33,0,0,1-4.8.37s-16.95-27.9-32.56-43.33c13.17,32.2,13,39.3,13,39.3s-50.2,13.57-57.39,15.58c-10.17-23.91-15.57-42.34-26.71-59.56a114.15,114.15,0,0,0-12-15.49h0c1.33-6.62,2.48-11.59,3.34-15,2.81-.17,5.38-.31,7.56-.41.29-.16,6.64-5.54,15.64-13.24,2.13-.31,4.42-.68,6.48-1.1,1.45-.26,2.8-.56,3.91-.87,3.26-.87,13.13-5.38,21.43-9.26Z" />
        <path class="BUNTAI_WALRUS_OUTFIT_BUNTAI_WALRUS_OUTFIT-12_cls-7" d="M141.29,221.15a86.67,86.67,0,0,0,15,4.52,39.1,39.1,0,0,0,9.44.84c10.32-.53,35.82,3.53,51,3,13.31-.47,40.79-6.3,56.88-9.72l6.06-1.29c11.13-2.33,18.19-3.8,25.6-11.56.32-.34.65-.68,1-1,0,0,17.69-6.7,20.41-10.78a9,9,0,0,0,1.8-4.36" />
        <polyline class="BUNTAI_WALRUS_OUTFIT_BUNTAI_WALRUS_OUTFIT-12_cls-7" points="322.38 231.92 346.35 228.07 353.9 221.85" />
        <polyline class="BUNTAI_WALRUS_OUTFIT_BUNTAI_WALRUS_OUTFIT-12_cls-7" points="284.83 250.74 288.46 251.41 347.69 262.34 383.47 282.1" />
        <path class="BUNTAI_WALRUS_OUTFIT_BUNTAI_WALRUS_OUTFIT-12_cls-7" d="M253,262c2.13-.31,4.42-.68,6.48-1.1,1.45-.26,2.8-.56,3.91-.87,3.26-.87,13.13-5.38,21.43-9.26,6.93-3.28,12.77-6.13,12.77-6.13" />
        <path class="BUNTAI_WALRUS_OUTFIT_BUNTAI_WALRUS_OUTFIT-12_cls-7" d="M285.47,234.16c17.28-14.84,32.57-28,32.57-28" />
        <path class="BUNTAI_WALRUS_OUTFIT_BUNTAI_WALRUS_OUTFIT-12_cls-7" d="M270.85,246.72l14.35-12.34.06,0a.38.38,0,0,0,.09-.09" />
        <path class="BUNTAI_WALRUS_OUTFIT_BUNTAI_WALRUS_OUTFIT-12_cls-7" d="M45.52,254.72h0l0-.05a100.59,100.59,0,0,1-4.6-11.21.86.86,0,0,1,.17-.65,3.16,3.16,0,0,1,.27-.41c2.74-3.42,16.94-11.64,16.94-11.64s1.45-4.74,6.32-16.36,9.79-17.17,17.56-20.93,13.55-11.27,13.55-11.27L112,191.31c1.22,1,2.84,2.37,4.7,4,1,.83,2,1.72,3.07,2.66l1.6,1.39c1.26,1.1,2.55,2.23,3.84,3.38l1.36,1.19a1.8,1.8,0,0,0,.29.26l3,2.68,3.15,2.79.81.72,1,.92c.16.12.3.26.45.38l1.44,1.3.85.76.07.06.7.64,2.76,2.46v4l.17.31c.07.13.17.28.28.47l.28.46a70.35,70.35,0,0,0,6.74,8.84c.21.23.4.48.63.71.68.79,1.42,1.61,2.2,2.44l.81.87c.27.31.56.61.85.9,6.33,6.65,14.8,17.75,25.57,28.8,1.67,1.72,3.39,3.41,5.17,5.09l.45.45,0,0,.36.31c.74.73,1.51,1.42,2.27,2.12.48.43,1,.87,1.45,1.28s.73.65,1.1,1,1,.92,1.58,1.35l.14.12c.61.53,1.23,1,1.84,1.52s1.21,1,1.83,1.46c.47-.11,1-.22,1.5-.31.25-.07.53-.11.81-.16.54-.11,1.13-.2,1.75-.31.29-.05.6-.11.92-.14.63-.11,1.3-.2,2-.29l2.08-.28,2.2-.26a1.9,1.9,0,0,1,.25,0,.16.16,0,0,0,.09,0h.07l1.86-.2,1.9-.2c.56-.05,1.1-.11,1.66-.14l3.61-.34h0c.43,0,.87-.06,1.3-.11l1.16-.09,4.85-.36c1.5-.11,3-.22,4.45-.31h0c.84-.06,1.65-.09,2.46-.15,1.08-.07,2.12-.13,3.12-.17.62-.05,1.25-.08,1.84-.11H235c.82-.06,1.6-.1,2.32-.14.07,0,.43-.33,1.07-.85l.54-.45c.13-.09.26-.22.4-.34s.45-.37.7-.59c1.76-1.47,4.3-3.62,7.37-6.24h0s0,0,0,0c1.69-1.45,3.57-3,5.55-4.73l8.92-7.62,1.46-1.25s.05-.07.08-.08c2.39-2,4.84-4.16,7.36-6.32" />
        <path class="BUNTAI_WALRUS_OUTFIT_BUNTAI_WALRUS_OUTFIT-12_cls-7" d="M226.47,290.64c-1.29,6.52-2.77,14.63-4.3,24.45-.17,1-.32,2.06-.46,3.05-4.34,28.88-2.82,36.58,4.81,49.57-4.62-1.9-15.48-1.62-42.61,1.86s-66.49-2.23-66.49-2.23a400.35,400.35,0,0,0-36.71-28.79C59.37,323.69,50.86,323.69,36.48,316q-2.2-1.18-4.25-2.25c-5.65-2.95-10.33-5.27-13.7-6.87-3.78-1.86-5.92-2.79-5.92-2.79s.26-1.61,3.16-5.91S31.43,278.78,38,270.74c3.73-4.55,6.12-11.14,7.51-16v0" />
        <path class="BUNTAI_WALRUS_OUTFIT_BUNTAI_WALRUS_OUTFIT-12_cls-7" d="M229.81,275.62c-.86,3.42-2,8.39-3.34,15" />
        <path class="BUNTAI_WALRUS_OUTFIT_BUNTAI_WALRUS_OUTFIT-12_cls-7" d="M183.82,269.74l0,0s-.65.68-1.48,1.41-2.15,1.76-2.85,1.8c-1.35.11-36.9-20.48-43.23-26-.87-.77-1.6-1.4-2.2-1.94-3.84-3.36-3-2.69-4.13-3.61-1.26-1.08-25.5-19.5-38.16-16.28s-16.12,7.2-25.14,6.61" />
        <path class="BUNTAI_WALRUS_OUTFIT_BUNTAI_WALRUS_OUTFIT-12_cls-7" d="M45.53,254.73s20-4,27.76-8.68,11-5.54,17.19-5.91,17.91-1.42,18.45-1.42S127.68,241.47,134,245" />
        <path class="BUNTAI_WALRUS_OUTFIT_BUNTAI_WALRUS_OUTFIT-12_cls-7" d="M270.83,246.72h0c.39,0,8.52-.51,9.92-1.2s21.35-7.7,28-9.13" />
        <path class="BUNTAI_WALRUS_OUTFIT_BUNTAI_WALRUS_OUTFIT-12_cls-7" d="M206.43,255.88s17-.89,28.76-2.86,25.2-7.68,35.64-11.46c8.93-3.24,13.29-6.35,14.37-7.18l.15-.13.12-.09" />
        <polyline class="BUNTAI_WALRUS_OUTFIT_BUNTAI_WALRUS_OUTFIT-12_cls-7" points="397.75 329.62 401.32 336.09 397.97 346.71 410.71 376.98 430.38 412.69 435.08 444.92 353.49 444.92 66.35 444.92 -0.87 444.92 6.96 415.28 17.91 383.71 27.97 345.15 23.5 339.72 32.23 313.76" />
        <polyline class="BUNTAI_WALRUS_OUTFIT_BUNTAI_WALRUS_OUTFIT-12_cls-7" points="72.39 345.15 70.22 376.25 76.19 359.07" />
        <path class="BUNTAI_WALRUS_OUTFIT_BUNTAI_WALRUS_OUTFIT-12_cls-7" d="M66.35,444.92c-.18-14.06.07-42.81,3.88-68.67" />
        <path class="BUNTAI_WALRUS_OUTFIT_BUNTAI_WALRUS_OUTFIT-12_cls-7" d="M346.89,353.77s5,59.49,5.52,69.14c8.68-48.84,9.23-69.14,9.23-69.14" />
        <line class="BUNTAI_WALRUS_OUTFIT_BUNTAI_WALRUS_OUTFIT-12_cls-7" x1="353.49" y1="444.92" x2="352.4" y2="422.91" />
        <path class="BUNTAI_WALRUS_OUTFIT_BUNTAI_WALRUS_OUTFIT-12_cls-7" d="M288.46,251.41s12.94,15.25,27.72,37,26.19,40.66,31.35,50.71,6.74,12.71,6.74,12.71" />
        <path class="BUNTAI_WALRUS_OUTFIT_BUNTAI_WALRUS_OUTFIT-12_cls-7" d="M226.47,290.63h0a112.53,112.53,0,0,1,12,15.5c.47.68.9,1.37,1.32,2.07.35.54.65,1.08,1,1.63l0,.06c6.28,10.52,10.71,21.6,15.66,34.19v0c2.64,6.7,5.43,13.85,8.72,21.57.29-.07.61-.18,1-.29l3.85-1c.67-.19,1.39-.39,2.16-.59l1.94-.53c1.38-.37,2.87-.79,4.43-1.2l17.68-4.8,26.28-7.11s.12-6.47-11.26-34.91c0,0,0,0,0,0-.56-1.4-1.14-2.87-1.76-4.37,8.76,8.65,17.93,21.24,24.3,30.62l.06.07c4.95,7.29,8.19,12.63,8.19,12.63a13.86,13.86,0,0,0,4.81-.35,59.26,59.26,0,0,0,7.37-2,155.16,155.16,0,0,0,19.19-8c1.2-.59,2.36-1.16,3.49-1.75a159.85,159.85,0,0,0,20.81-12.44c.89-.64,1.7-1.24,2.45-1.81,1-.76,1.86-1.44,2.62-2.06a45.55,45.55,0,0,0,4.4-3.95s-5.77-5-11.33-10.09c-4.9-4.46-9.67-9-10.24-10.15-1.23-2.56-2.18-19.46-2.18-19.46s.5-.65,1.15-1.69c1.51-2.43,3.81-7,2.37-10.26-2-4.7-7.19-11.82-7.72-19.59.42-10.06-15.86-16.22-17.63-17.31s-7.73-11.37-7.73-11.37v0c0-.24-.33-2.52-1.22-6.85-1-4.55.91-16.67-14.55-29.69-7.08-2.89-10.23-7-16.14-5.63-1.07.21-2.18.45-3.37.68" />
        <path class="BUNTAI_WALRUS_OUTFIT_BUNTAI_WALRUS_OUTFIT-12_cls-7" d="M95.71,182.19a110.35,110.35,0,0,0,28.21,2.64" />
        <path class="BUNTAI_WALRUS_OUTFIT_BUNTAI_WALRUS_OUTFIT-12_cls-7" d="M159.8,444.92c17.47-22.32,35-52.73,49.26-78h0" />
        <path class="BUNTAI_WALRUS_OUTFIT_BUNTAI_WALRUS_OUTFIT-12_cls-7" d="M239.79,308.22s-7.95,16.63-20.26,39.57" />
        <path class="BUNTAI_WALRUS_OUTFIT_BUNTAI_WALRUS_OUTFIT-12_cls-7" d="M129.4,444.92s25.52-36.15,46.5-74.59" />
        <g class="BUNTAI_WALRUS_OUTFIT_BUNTAI_WALRUS_OUTFIT-12_cls-8">
          <path d="M184.29,270.2s-27.47-20.12-45.5-39.44-46.36-33.9-46.36-33.9,33.57,26.38,39.66,37.3c-45.17-26-61.5-22.35-61.5-22.35l13.42,7s-10.44,12-17.4,12.91l23-4.77S71,240.4,62.48,242.47s-21.59-.15-21.59-.15l4.64,12.41a101.26,101.26,0,0,1-8.08,14.68c-5.79,9-19,25.14-19,25.14S67,275.79,82.3,267.16s41.43-5.54,48.29-2.51,48,16.85,55.59,17.45,29.06-1,29.66-1.13,5.66,11.56,5.66,11.56l5-1.89,2.87-13.13s-12.49-.31-22.91,0-13.54.33-13.54.33Z" />
          <path d="M274.41,241.55s-24,5.11-36.14,6.56-39.87,1-40.46,0-35.17-18-35.17-18,31.11,28.64,43.79,33.82a76,76,0,0,1,20.09,11.73l6.46,1.21s14.44-10.55,18-12.18S274.41,241.55,274.41,241.55Z" />
          <path d="M70.23,346.36s-11.67,49-15.23,70-3.55,29.34-3.55,29.34l24.74-.82s-3.5-43.18,5.18-72.34c-9.8,30.89-11.14,46.93-11.14,46.93s0-33.25,6.55-58.81l-6,11.88,1.57-27.43Z" />
          <path d="M63.33,328S39.6,377,34.9,404.15c2.24-36.49,2.24-38,2.24-38S22.38,424.6,27.08,444.92c-24.37,0-26.83.82-26.83.82s4.89-17.84,15.93-57S28,345.15,28,345.15l-4.21-6.21,9.73-25.71s14.83,8.89,22.2,11.56S63.33,328,63.33,328Z" />
          <path d="M274.41,246.72s16.33-5.68,25.37-8,29.69-6.44,39.91-8.65,14.21-8.22,14.21-8.22-21.15,3.41-35.86,5-21.11,3.7-20.44,3.87,34.64-19,34.64-19-36.56,11.56-39.5,15.11S278.66,242,278.1,242.32A51.89,51.89,0,0,0,274.41,246.72Z" />
          <path d="M286.64,251.41s19.88,5,33.08,6.61,13.93,1.73,13.93,1.73l9.82,2.22,32.74,14.86s-19.67-19.73-27-22.12-21.16-5.49-21.16-5.49-17.35-.34-19.26-.86S295.3,245,295.3,245Z" />
          <path d="M295.3,262s23.09,28.62,33.95,46.25,25.81,42.11,25.81,42.11-9.62,4-11.59,3.44c-29-37.72-35.05-41.06-35.05-41.06s-24.24-27.52-31.17-33.38c41.8,29.07,50.07,43.05,50.3,42.27S295.3,262,295.3,262Z" />
          <path d="M237,301.61s25.71,23.09,30.86,33.45L273,345.41l23.28,11.82-30.06,8.17Z" />
          <path d="M211.69,366.72s-26.55,27.6-37.06,35.36-28.55,43.66-28.55,43.66H83s1.79-40,5.14-58.15,7.6-38.08,7.6-38.08,19.9,19.3,32.09,19.12c48.1,1.7,60,1.7,60,1.7Z" />
        </g>
        <path class="BUNTAI_WALRUS_OUTFIT_BUNTAI_WALRUS_OUTFIT-12_cls-9" d="M319.14,278a1.72,1.72,0,0,0,.91.27,1.89,1.89,0,0,0,1.69-1.16,2.4,2.4,0,0,0-.77-3,66.83,66.83,0,0,0-12-5.51c1-6.11,2-11,2-11.11a2.24,2.24,0,0,0-1.44-2.66,1.93,1.93,0,0,0-2.3,1.67c-.08.38-1,5-2,10.81-5.92-2-10.91-3.24-11.3-3.34a1.92,1.92,0,0,0-2.28,1.7,2.23,2.23,0,0,0,1.47,2.64c.09,0,5.32,1.35,11.4,3.39-.77,4.92-1.47,10.12-1.73,14.11a2.15,2.15,0,0,0,1.77,2.39h.14a2.06,2.06,0,0,0,1.92-2.05c.24-3.67.88-8.5,1.6-13.15A62.79,62.79,0,0,1,319.14,278Z" />
        <path class="BUNTAI_WALRUS_OUTFIT_BUNTAI_WALRUS_OUTFIT-12_cls-9" d="M339.26,303a67.53,67.53,0,0,0-12-5.51c1-6.1,2-11,2-11.11a2.25,2.25,0,0,0-1.44-2.66,1.93,1.93,0,0,0-2.3,1.68c-.08.38-1,5-2,10.8-5.92-2-10.91-3.24-11.3-3.34a1.93,1.93,0,0,0-2.28,1.7,2.25,2.25,0,0,0,1.46,2.65c.1,0,5.32,1.35,11.41,3.39-.77,4.91-1.47,10.12-1.73,14.11a2.14,2.14,0,0,0,1.76,2.38H323a2.06,2.06,0,0,0,1.91-2.06c.24-3.66.89-8.49,1.61-13.14a61.68,61.68,0,0,1,10.9,5,1.72,1.72,0,0,0,.91.27A1.9,1.9,0,0,0,340,306,2.41,2.41,0,0,0,339.26,303Z" />
        <path class="BUNTAI_WALRUS_OUTFIT_BUNTAI_WALRUS_OUTFIT-12_cls-7" d="M326.65,195.1c-2.13-4.95-6.46-9.27-8-14.73" />
        <path class="BUNTAI_WALRUS_OUTFIT_BUNTAI_WALRUS_OUTFIT-12_cls-7" d="M123.92,184.83c-1.39,4.1-5.46,6.73-7.22,10.46" />
      </g>
    </g>
  </g>
</svg>