<svg xmlns="http://www.w3.org/2000/svg" xmlns:xlink="http://www.w3.org/1999/xlink" viewBox="0 0 432 432">
  <defs>
    <style>.BUNTAI_WALRUS_OUTFIT_BUNTAI_WALRUS_OUTFIT-47_cls-1,.BUNTAI_WALRUS_OUTFIT_BUNTAI_WALRUS_OUTFIT-47_cls-10,.BUNTAI_WALRUS_OUTFIT_BUNTAI_WALRUS_OUTFIT-47_cls-11,.BUNTAI_WALRUS_OUTFIT_BUNTAI_WALRUS_OUTFIT-47_cls-12,.BUNTAI_WALRUS_OUTFIT_BUNTAI_WALRUS_OUTFIT-47_cls-13,.BUNTAI_WALRUS_OUTFIT_BUNTAI_WALRUS_OUTFIT-47_cls-14{fill:none;}.BUNTAI_WALRUS_OUTFIT_BUNTAI_WALRUS_OUTFIT-47_cls-2{isolation:isolate;}.BUNTAI_WALRUS_OUTFIT_BUNTAI_WALRUS_OUTFIT-47_cls-3{clip-path:url(#BUNTAI_WALRUS_OUTFIT_BUNTAI_WALRUS_OUTFIT-47_clip-path);}.BUNTAI_WALRUS_OUTFIT_BUNTAI_WALRUS_OUTFIT-47_cls-4{fill:#141423;}.BUNTAI_WALRUS_OUTFIT_BUNTAI_WALRUS_OUTFIT-47_cls-5{fill:#eceac0;}.BUNTAI_WALRUS_OUTFIT_BUNTAI_WALRUS_OUTFIT-47_cls-6{fill:#9b775d;}.BUNTAI_WALRUS_OUTFIT_BUNTAI_WALRUS_OUTFIT-47_cls-7{fill:#6591ac;}.BUNTAI_WALRUS_OUTFIT_BUNTAI_WALRUS_OUTFIT-47_cls-8{fill:#fff;}.BUNTAI_WALRUS_OUTFIT_BUNTAI_WALRUS_OUTFIT-47_cls-9{fill:#4f9c6a;}.BUNTAI_WALRUS_OUTFIT_BUNTAI_WALRUS_OUTFIT-47_cls-10,.BUNTAI_WALRUS_OUTFIT_BUNTAI_WALRUS_OUTFIT-47_cls-11,.BUNTAI_WALRUS_OUTFIT_BUNTAI_WALRUS_OUTFIT-47_cls-12,.BUNTAI_WALRUS_OUTFIT_BUNTAI_WALRUS_OUTFIT-47_cls-13,.BUNTAI_WALRUS_OUTFIT_BUNTAI_WALRUS_OUTFIT-47_cls-14{stroke:#000;stroke-linecap:round;stroke-linejoin:round;}.BUNTAI_WALRUS_OUTFIT_BUNTAI_WALRUS_OUTFIT-47_cls-10{stroke-width:2.45px;}.BUNTAI_WALRUS_OUTFIT_BUNTAI_WALRUS_OUTFIT-47_cls-11{stroke-width:2.17px;}.BUNTAI_WALRUS_OUTFIT_BUNTAI_WALRUS_OUTFIT-47_cls-12{stroke-width:2.39px;}.BUNTAI_WALRUS_OUTFIT_BUNTAI_WALRUS_OUTFIT-47_cls-13{stroke-width:2.12px;}.BUNTAI_WALRUS_OUTFIT_BUNTAI_WALRUS_OUTFIT-47_cls-14{stroke-width:1.21px;}.BUNTAI_WALRUS_OUTFIT_BUNTAI_WALRUS_OUTFIT-47_cls-15{opacity:0.43;mix-blend-mode:multiply;}</style>
    <clipPath id="clip-path">
      <path class="BUNTAI_WALRUS_OUTFIT_BUNTAI_WALRUS_OUTFIT-47_cls-1" d="M-6.89-3.42v441H443.29v-441Zm321.36,270.9a.93.93,0,0,1-.59.21,1,1,0,0,1-.68-.28,25,25,0,0,1-4.38-6.56c-.48,8.51-1.27,18.22-2.5,23.12a1,1,0,0,1-.94.73h-.14a1,1,0,0,1-.82-1c.07-2.06.16-5.08.18-8.62a52.61,52.61,0,0,1-2,7.72c.07,6.19-.69,7.94-.77,8.12a1,1,0,0,1-.87.54h-.08a1,1,0,0,1-.85-.7,54.24,54.24,0,0,0-6.15-12.86l-3.59-2.16c-.63,3-1.3,6-2,9-.37,17.11-1,41.18-1.77,58.86a198.36,198.36,0,0,1-5.17,36.19.05.05,0,0,1,0,0c-.08.38-.18.76-.26,1.14l-.41,1.62c-3.93,16-10.43,33.75-13.44,33.75-2.42,0-2.54-1.74-3.05-9.06l-.4-5.52a1.11,1.11,0,0,1,0-.17c-.41-5.35-1-11.16-1.7-17.67-.1-.94-.21-2-.32-3l-.05-.53c-.07-.67-.13-1.37-.2-2.08l-.09-1c0-.43-.08-.86-.12-1.31l-.13-1.46c-.39-4.49-.8-9.82-1.22-15.86l-.22-3.14c0-.12,0-.18,0-.23-.25-3.7-.51-7.61-.76-11.61l-.18-2.88c-.19-2.91-.37-5.86-.54-8.83-.07-.94-.12-1.9-.18-2.86v-.25c-.38-6.48-.75-13-1.1-19.21l.95-.17-1,.06c0-.06,0-.12,0-.17a.86.86,0,0,1,0-.16s0-.09,0-.13v-.26c0-.14,0-.24,0-.31s0-.27,0-.42V308l0-.5a.66.66,0,0,1,0-.14c0-.17,0-.43,0-.68l0-.52c-.31-5.66-.6-11.06-.86-16l-.14-2.64c-.21-4-.4-7.7-.55-10.89l-.17-3.36c-.29-5.9-.46-9.45-.46-9.45l-.54-9.16a18.64,18.64,0,0,1-2.21,1.44l-.07,0h0a22.3,22.3,0,0,1-7.52,2.43,29,29,0,0,1-3.94.27,30.26,30.26,0,0,1-9.77-1.58l-.08,0a24.67,24.67,0,0,1-8.79-5.1l-.24.19-.44.34-.16.13-.09.06-.06,0-.71.52c-.08,4.76-.19,10.72-.33,17.42l-.08,4.11c-.06,3.41-.14,7-.22,10.61l-.06,2.58c0,1.1,0,2.2-.07,3.32-.12,5-.25,10.12-.38,15.18l-.1,3.69c-.17,6.26-.36,12.44-.56,18.29,0,.56,0,1.13-.05,1.69l-.12,3.41c0,.84-.06,1.67-.1,2.49l-.2,5c0,.75-.06,1.48-.1,2.2v.14c-.17,3.75-.41,7.42-.73,11,0,.37-.06.74-.1,1.1s-.05.7-.09,1.07a2.11,2.11,0,0,0,0,.32c-.06.58-.11,1.09-.17,1.61-.08.8-.16,1.61-.26,2.42-.31,2.82-.68,5.73-1.13,8.86a4.19,4.19,0,0,1-.08.56c-.11.76-.22,1.53-.34,2.28-.23,1.51-.46,3-.71,4.46l-.06.34c-.17,1-.34,2-.52,3-2.79,15.6-6.23,27.62-8.42,32.6-1,2.35-1.75,3.22-2.66,3.22-1.33,0-2.41-.74-3.31-2.28a7.16,7.16,0,0,1-.35-.66,27.35,27.35,0,0,1-1.67-4.87.19.19,0,0,0,0-.07c-.11-.48-.23-1-.36-1.52l.91-.34-.93.24s0-.1,0-.11c0-.19-.08-.41-.13-.62C195.21,401,194.14,393.76,193,384l-.08-.71c-.06-.55-.12-1.11-.17-1.68s-.11-1-.16-1.51a.53.53,0,0,1,0-.15c-.54-5.39-1.1-12.27-1.73-21.12,0-.26,0-.49,0-.72-.06-.83-.12-1.65-.17-2.48l0-.38c-.09-1.2-.17-2.44-.25-3.68,0-.31,0-.65-.07-1q-.21-3-.4-6.07l-.15-2.29c-.05-.72-.09-1.43-.13-2.12,0-.49-.07-1-.1-1.53l-.12-1.91a1.68,1.68,0,0,1,0-.2c0-.08,0-.25,0-.4s0-.4,0-.64c0-.51-.08-1.05-.11-1.59l0-.75c-.08-1.25-.16-2.52-.23-3.78,0-.59-.08-1.21-.12-1.82-.21-3.73-.43-7.47-.64-11.15-.06-1-.12-2.06-.17-3.09-.13-2.16-.25-4.31-.36-6.42-.05-.81-.09-1.6-.14-2.4l0-.81c-.17-3.1-.33-6.14-.48-9.05l-.08-1.45c-.06-1.22-.13-2.41-.18-3.57l-.08-1.39-.09-1.76,0-.73c-.05-.92-.09-1.82-.13-2.7,0-.47,0-.93-.07-1.4a1.47,1.47,0,0,1,0-.27l-.19-3.82v-.11l-.23-4.78c0-.32,0-.61,0-.91l0-.79-1.43.58-1.34.51a3.05,3.05,0,0,1-.29.11l-.25.09-1,.36-.18.07-.29.1-.22.07-.15,0-.13.05-.1,0-.27.08h0l0,0-.11,0-.23.06h0l-.33.11h0l-.23.08a.88.88,0,0,1-.15,0l-.26.07-.16,0-.24.08-.13,0h0l-11,4.43a47.92,47.92,0,0,0-9.2,12.85,1,1,0,0,1-.78.58h-.11a1,1,0,0,1-.78-.4c-.22-.3-1.29-2.1-1.2-8.19a49,49,0,0,1-4-11.39c0,5.08.13,9.48.28,12.2a1,1,0,0,1-.76,1l-.2,0a1,1,0,0,1-.9-.63c-1.93-5.15-3.14-15.57-3.85-24.38a34.29,34.29,0,0,1-3.65,4.62,22.51,22.51,0,0,1-3.76,3.21.91.91,0,0,1-.54.17,1,1,0,0,1-.73-.33,1,1,0,0,1,0-1.28,17.85,17.85,0,0,0,2.82-4.47v0c4.09-8.93,3.82-22.41,3.7-28.16v-.53a26.44,26.44,0,0,1,3.94-13.81,83.21,83.21,0,0,1,3.71-15.81l-.09-.17a1,1,0,0,1-.13-.47,1,1,0,0,1,.82-.94,2.44,2.44,0,0,0,.1-.24,14.72,14.72,0,0,1,3-4.29c.08-.27.16-.55.24-.85l.32-1c.27-.88.57-1.81.89-2.72s.66-1.77,1-2.5l.13-.27c.06-.14.12-.26.18-.38v0c0-.16,0-.33,0-.49a1.1,1.1,0,0,1,0-.18c-.1-1.55-.17-3.3-.21-5.56v-1.34c0-1.76,0-3.7,0-5.84v-.25c0-.4,0-.78,0-1.17v-.47c0-1.34,0-2.51-.12-3.58s-.19-2.12-.35-3.13c0,0,0-.1,0-.12-.18-1.18-.4-2.35-.69-3.72-.14-.63-.27-1.25-.41-1.87a1.42,1.42,0,0,1,0-.2l-.23-1.1s0-.1,0-.11v0a1.13,1.13,0,0,1,0-.18v0a.7.7,0,0,1,0-.14l-.19-1s0,0,0-.06a44.1,44.1,0,0,1-.64-5.67l0-.67c-.05-1.73,0-3.5.12-5.42.51-7.72,3.1-13.73,8.15-18.92.23-.24.48-.49.73-.73a52.12,52.12,0,0,1,8.85-6.71,31.48,31.48,0,0,1,5.13-9.79,1.46,1.46,0,0,1,.15-.2,31.86,31.86,0,0,1,10.58-8.9c15.19-7.94,35.31-16.16,56.36-9.18l3.7.51c15.92,2.16,28.48,3.87,36,17.3a37.94,37.94,0,0,1,2.32,4.9l.19.16q.41.34.81.72l0,0,0,0c.58.52,1.18,1,1.76,1.58a82,82,0,0,1,7.67,7.88c.26.32.47.58.66.83s.42.53.61.79l.21.29c.11.17.23.33.33.49a14.06,14.06,0,0,1,.89,1.47l.12.21c3.22,6.08,4.55,8.6,3.49,24.53,0,.55-.07,1.1-.1,1.64s-.07,1.07-.09,1.6-.06,1-.09,1.55v.05h0c-.06,1-.11,2-.16,3-.25,5.42-.4,10.79-.45,16,0,.6,0,1.2,0,1.8,0,2.15,0,4.26,0,6.31,0,1.33,0,2.62.06,3.9h0c0,1.3.06,2.59.1,3.84,0,.24,0,.45,0,.65a.92.92,0,0,1,0,.16c0,.23,0,.47,0,.69,0,.48,0,.9.05,1.32l0,.62a5.73,5.73,0,0,1,.38.62l0,.06.38.68a5.64,5.64,0,0,1,.26.55,1.17,1.17,0,0,1,.1.2c.06.14.12.26.17.4l.08.19c0,.09.1.25.16.4s.11.32.15.45.1.3.16.5.17.65.26,1l.12.46.13.55c.17.73.33,1.44.49,2.17.07.33.14.69.2,1,.11.53.19,1,.27,1.44a0,0,0,0,0,0,0,.09.09,0,0,0,0,.05c.05.27.1.56.14.83l0,.11v0c.1.55.19,1.11.27,1.66s.16,1.09.25,1.66.13.94.19,1.42a7.07,7.07,0,0,1,.09.72c.05.33.09.7.13,1.07l.06.47s0,.08,0,.12l.11.95v.11c.05.42.1.93.15,1.43l0,.29a36.27,36.27,0,0,1,2.62,13.71v.52c-.09,6.81-.33,24.89,4.39,32.82A1,1,0,0,1,314.47,267.48Z" />
    </clipPath>
  </defs>
  <g class="BUNTAI_WALRUS_OUTFIT_BUNTAI_WALRUS_OUTFIT-47_cls-2">
    <g id="outfit">
      <g class="BUNTAI_WALRUS_OUTFIT_BUNTAI_WALRUS_OUTFIT-47_cls-3">
        <path class="BUNTAI_WALRUS_OUTFIT_BUNTAI_WALRUS_OUTFIT-47_cls-4" d="M112.3,438.93H-8.3L2,384.31S.39,380.53.5,378.05c.07-2,2.19-5.58,4.49-11.14v0l0,0c.6-1.48,1.25-3.11,1.85-4.89,2.49-7.24,8.17-32.69,15.63-51.83a4.87,4.87,0,0,1,.21-.53c.07-.19.14-.38.22-.56,1.06-2.68,2.16-5.22,3.29-7.56.93-1.92,1.9-3.81,2.88-5.63,7.33-12.6.54-27.17,14.2-40.08l.19-.2c.26,3,.63,5.85,1.07,8.64v0c.5,3.31,16.07,16.94,16.75,20q1.24,5.49,2.77,10.44a143,143,0,0,0,10.11,24.78,106.64,106.64,0,0,0,7.66,12.63l0,0c.76,1.09,1.2,1.63,1.2,1.63h0a135.36,135.36,0,0,0-4.29,17c-.41,2.29-.79,4.68-1.08,7.12h0c0,.16,0,.33-.06.49v.09c0,.07,0,.16,0,.23,0,.25-.06.5-.08.75,0,.05,0,.1,0,.13a.57.57,0,0,0,0,.13,1.15,1.15,0,0,0,0,.16,1,1,0,0,1,0,.17s0,0,0,.07v.07c-.15,1.52-.28,3.06-.37,4.62a.28.28,0,0,0,0,.09,1,1,0,0,0,0,.18c0,.1,0,.2,0,.29v.1c0,.49,0,1-.06,1.44s0,.8,0,1.19c0,.12,0,.25,0,.36,0,.38,0,.76,0,1.15s0,.52,0,.79v.49c0,.38,0,.77,0,1.15s0,.48,0,.73v.08c0,.13,0,.24,0,.37,0,.86,0,1.71.1,2.58,0,.42,0,.82.07,1.24,0,.11,0,.21,0,.32,0,.56.08,1.11.13,1.67h0v.06c0,.17,0,.36.06.54s0,.33,0,.49,0,.33,0,.49a1.49,1.49,0,0,1,0,.21c0,.47.1.94.16,1.41a2.2,2.2,0,0,0,.06.37c0,.12,0,.25,0,.38,0,.42.11.85.17,1.28a77.67,77.67,0,0,0,10.78,30,80.35,80.35,0,0,0,16.82,19.29c2,1.72,4.12,3.37,6.38,5Z" />
        <path class="BUNTAI_WALRUS_OUTFIT_BUNTAI_WALRUS_OUTFIT-47_cls-4" d="M449.57,438.1l-52.6.13-58.91.15c14-10.05,22.75-21.72,28-33.78a79.94,79.94,0,0,0,5.82-21.22,91.18,91.18,0,0,0,.79-13.29,108.15,108.15,0,0,0-.77-12.13c-.11-.92-.23-1.84-.36-2.75s-.27-1.8-.42-2.69c-.06-.38-.13-.77-.2-1.15s-.13-.77-.2-1.16l-.06-.31-.12-.59c-.12-.66-.25-1.31-.39-2h0l0-.17c-.22-1.06-.46-2.11-.7-3.13l-.36-1.47c0-.09,0-.18-.07-.28l-.24-1c-.18-.68-.35-1.33-.53-2-.08-.3-.17-.61-.26-.92s-.11-.38-.16-.57-.17-.57-.25-.85l-.39-1.3-.24-.79c-.28-.89-.56-1.77-.85-2.61-.49-1.5-1-2.91-1.47-4.23,0,0,.47-.63,1.28-1.81h0l.29-.43c.14-.2.3-.42.45-.65l.32-.49c.23-.34.46-.7.71-1.09l.43-.68c.24-.38.49-.77.74-1.18l.18-.29.48-.8.65-1.08c.29-.49.59-1,.89-1.54.64-1.12,1.31-2.32,2-3.59.44-.84.9-1.72,1.37-2.65.05-.09.1-.18.15-.29.72-1.43,1.46-2.93,2.17-4.51.39-.84.77-1.7,1.15-2.58s.76-1.78,1.12-2.69.74-1.84,1.08-2.78c0,0,0,0,0,0q.48-1.26.93-2.55a2.55,2.55,0,0,0,.11-.33c.17-.49.34-1,.5-1.48.33-1,.64-1.94.93-2.93.15-.48.29-1,.43-1.46s.26-.92.38-1.39c.08-.28.15-.57.22-.85s.1-.37.14-.56c.11-.43.21-.85.31-1.25a.29.29,0,0,0,0-.09h0V286l0-.08a.37.37,0,0,0,0-.09.15.15,0,0,0,0-.06s0,0,0,0v0a.31.31,0,0,1,0-.13.11.11,0,0,1,0,0,.25.25,0,0,1,0-.07s0,0,0,0h0s0,0,0-.05a0,0,0,0,0,0,0,.11.11,0,0,0,0,0l0-.11c0-.15.07-.3.1-.45s.07-.29.1-.44.06-.27.08-.4a.08.08,0,0,1,0,0c0-.14.07-.28.09-.4h0c0-.17.08-.32.11-.47s.07-.33.1-.49.07-.36.1-.55,0-.28.08-.4a2.38,2.38,0,0,0,.05-.26c0-.18,0-.31.07-.41h0s0-.07,0-.1a.09.09,0,0,0,0-.05s0,0,0,0h0c.24-1.41.47-2.85.65-4.29.06-.47,9.15-8.54,9.2-9l.09-.82a1.11,1.11,0,0,1,0-.17v-.05c0-.27.06-.52.07-.79l0,0a2.93,2.93,0,0,0,.18.26c8.39,6.29,12.82,34.11,21.94,62.63l0,.11c4.36,17.4,8.1,33.44,9.67,37,2.51,5.71,5.92,8.86,3.21,14.36A608.76,608.76,0,0,0,449.57,438.1Z" />
        <path class="BUNTAI_WALRUS_OUTFIT_BUNTAI_WALRUS_OUTFIT-47_cls-5" d="M372.64,370.09a92.72,92.72,0,0,1-.8,13.29A80.12,80.12,0,0,1,366,404.59c-5.22,12.07-14,23.74-28,33.79l-.32.23c-16.78,7-28.37,8.1-41.45,7.53-12.64-.55-26.69-2.65-48.19-2.43h-.24c-4.15.05-8.58.17-13.33.42-.1,0-.21,0-.31,0q-6.39.31-13.58.95c-2.54.23-5.16.49-7.88.78q-7.19.75-15.23,1.9l-.41,0c-1.64.21-3.32.48-5,.73-1.94.29-3.94.59-5.95.91a153.28,153.28,0,0,1-17,1.79h0A121,121,0,0,1,138,449l-.1,0a79.71,79.71,0,0,1-23.15-8.5l0,0c-1.13-.65-1.91-1.16-2.37-1.48l-.45-.32c-2.26-1.61-4.39-3.26-6.38-5a80.38,80.38,0,0,1-16.82-19.29,77.54,77.54,0,0,1-10.77-30c-.88-15.85,7.88-55.56,54.41-87.44,0,0,6.93,4.37,6.66,11.39,9.82-4.68,14.72.13,14,8.63,5.2-1.08,10.31.79,12.54,5.69a15.77,15.77,0,0,1,1,9c8.31-1.61,18,2,18.67,14.19,6.54-3.65,15.27-2.2,18.39,8.63,7.5-6.43,14.59-3.21,18,2.79C228.91,352,239,352,245,359.49c4.7-7.46,12.64-7.46,18.41-2.34,2.68-6,8.23-9.22,14.12-2.79,2.45-10.83,9.3-12.28,14.43-8.63.53-12.14,8.12-15.8,14.65-14.19-1.29-11.42,4.6-16.24,10.59-14.65-.54-8.5,3.31-13.31,11-8.63a15,15,0,0,1,4.63-10.85,130.14,130.14,0,0,1,22.54,26.94l.11.18A121.83,121.83,0,0,1,372.64,370.09Z" />
        <path class="BUNTAI_WALRUS_OUTFIT_BUNTAI_WALRUS_OUTFIT-47_cls-6" d="M253,273.17a279,279,0,0,1,2.43,31.14s-7.2,5.4-15.61,1.77c-.94-10.31.35-29.64,1-38.75.23-2.91.4-4.77.42-5a9,9,0,0,0,4.74,1.36,8.86,8.86,0,0,0,4.76-1.38A88.15,88.15,0,0,1,253,273.17Z" />
        <path class="BUNTAI_WALRUS_OUTFIT_BUNTAI_WALRUS_OUTFIT-47_cls-7" d="M178,290.59s11.14,5.83,26.67-3.83c23.62,5.38,36.2-19.43,36.2-19.43.23-2.91.4-4.77.42-5v0a9.6,9.6,0,0,1-2.74-2.58c-.41.65-15,23.85-35.84,18.66-9.41,8.63-19.49,7.6-25.35,4.82-6,5.57-20.61,3-23.12.71-2.62,1.32-5.16,2.66-7.6,4C160.8,301.39,178,290.59,178,290.59Z" />
        <path class="BUNTAI_WALRUS_OUTFIT_BUNTAI_WALRUS_OUTFIT-47_cls-7" d="M324.51,290.39c-2.28-1.77-4.66-3.52-7.15-5.21-4.82,3.68-15.13,4.32-19.32-.34-3.67,1.81-14,1.25-19.63-4.56-18-.44-24.87-20.54-24.87-20.54a9.71,9.71,0,0,1-2.71,2.6A88.15,88.15,0,0,1,253,273.17a26.21,26.21,0,0,0,23.23,14.08c6.24,6.75,20.34,5.28,20.34,5.28s10.17,6,17.74,3.54a16.15,16.15,0,0,0-1,7.26c-5.73-1.61-11.36,3.23-10.13,14.64-6.24-1.6-13.51,2-14,14.2-4.92-3.66-11.47-2.2-13.83,8.63-5.63-6.43-10.95-3.22-13.51,2.79-5.52-5.13-13.13-5.13-17.62,2.33-5.72-7.46-15.42-7.46-22.46-2.33-3.27-6-10.05-9.22-17.23-2.79-3-10.83-11.35-12.29-17.61-8.63-.66-12.15-9.92-15.8-17.88-14.2,1.56-11.41-5.61-16.24-12.92-14.64.65-8.51-4-13.32-13.43-8.63a11.12,11.12,0,0,0-.64-4.11q-5.18,3.09-9.83,6.28s6.93,4.37,6.66,11.39c9.82-4.68,14.72.13,14,8.63,7.64-1.59,15.13,3.23,13.5,14.65,8.31-1.61,18,2,18.67,14.19,6.54-3.65,15.27-2.2,18.39,8.63,7.5-6.43,14.59-3.21,18,2.79C228.91,352,239,352,245,359.49c4.7-7.46,12.64-7.46,18.41-2.34,2.68-6,8.23-9.22,14.12-2.79,2.45-10.83,9.3-12.28,14.43-8.63.53-12.14,8.12-15.8,14.65-14.19-1.29-11.42,4.6-16.24,10.59-14.65-.54-8.5,3.31-13.31,11-8.63a15,15,0,0,1,4.63-10.85C330.23,295,327.46,292.68,324.51,290.39Z" />
        <path class="BUNTAI_WALRUS_OUTFIT_BUNTAI_WALRUS_OUTFIT-47_cls-5" d="M254.2,258.7a8,8,0,0,1-.66,1s6.89,20.1,24.87,20.54c5.63,5.81,16,6.37,19.63,4.56,4.19,4.66,14.5,4,19.32.34C301.16,274.1,280.49,264.7,254.2,258.7Z" />
        <path class="BUNTAI_WALRUS_OUTFIT_BUNTAI_WALRUS_OUTFIT-47_cls-5" d="M154.28,284c2.51,2.31,17.11,4.86,23.12-.71,5.86,2.78,15.94,3.81,25.35-4.82,20.82,5.19,35.43-18,35.84-18.66a10.37,10.37,0,0,1-.88-1.52C203.13,264,175.81,273.12,154.28,284Z" />
        <path class="BUNTAI_WALRUS_OUTFIT_BUNTAI_WALRUS_OUTFIT-47_cls-8" d="M255.44,252.75c0,.29,0,.57,0,.88a10.62,10.62,0,0,1-1.27,5.07,8,8,0,0,1-.66,1,9.71,9.71,0,0,1-2.71,2.6,8.86,8.86,0,0,1-4.76,1.38,9,9,0,0,1-4.74-1.36v0a9.6,9.6,0,0,1-2.74-2.58,10.37,10.37,0,0,1-.88-1.52,10.75,10.75,0,0,1-1-4.61,11,11,0,0,1,.1-1.42,10,10,0,0,1,4.93-7.51,8.7,8.7,0,0,1,4.37-1.16A9,9,0,0,1,251,245,10.24,10.24,0,0,1,255.44,252.75Z" />
        <path class="BUNTAI_WALRUS_OUTFIT_BUNTAI_WALRUS_OUTFIT-47_cls-6" d="M236.77,252.21c-91.9,14.55-147.27,63.3-158,98.6h0c-.41,2.3-.79,4.68-1.08,7.12h0a100.1,100.1,0,0,0,.17,26.37c-.88-15.85,7.88-55.56,54.41-87.44q4.67-3.19,9.83-6.28c1.48-.88,3-1.74,4.54-2.61h0c2.44-1.37,5-2.71,7.6-4,21.53-10.83,48.85-19.95,83.43-25.71a10.75,10.75,0,0,1-1-4.61A11,11,0,0,1,236.77,252.21Z" />
        <path class="BUNTAI_WALRUS_OUTFIT_BUNTAI_WALRUS_OUTFIT-47_cls-6" d="M371.86,358A131.64,131.64,0,0,0,366,332.29c-15.81-31.59-53.82-66.92-110.59-79.54,0,.29,0,.57,0,.88a10.62,10.62,0,0,1-1.27,5.07c26.29,6,47,15.4,63.16,26.48,2.49,1.69,4.87,3.44,7.15,5.21,2.95,2.29,5.72,4.64,8.34,7,26.82,24.48,36.88,53.46,39.79,72.68A110.19,110.19,0,0,0,371.86,358Z" />
        <path class="BUNTAI_WALRUS_OUTFIT_BUNTAI_WALRUS_OUTFIT-47_cls-6" d="M321.91,187.78c-.06.19-.11.38-.16.57s-.11.39-.15.6a51.25,51.25,0,0,0-1,6.25v0c0,.21-.05.41-.07.64a28.33,28.33,0,0,0-4.5-.35l-1.08,0c-.31,0-.62,0-.93.07h0a9.92,9.92,0,0,0-1.11.12c-.36,0-.72.1-1.07.17s-.66.13-1,.21-.46.11-.69.18-.4.1-.6.16l-.55.18-.37.12-.68.26c-.26.11-.52.21-.78.33a5.77,5.77,0,0,0-.56.27,19,19,0,0,0-6.51,5.11,18.42,18.42,0,0,0-1.12,1.51c-.16.23-.31.46-.46.71a21.13,21.13,0,0,0-2.12,4.54,5.76,5.76,0,0,0-.18.59,1.23,1.23,0,0,0-.09.29c-.08.26-.15.51-.21.78s-.2.82-.27,1.24q-.08.33-.12.66c-.06.32-.1.64-.14,1a24.74,24.74,0,0,0-.07,5.31l-1.21-.22-.79-.11c-.33-.06-.65-.1-1-.13a8.4,8.4,0,0,0-.85-.08.15.15,0,0,0-.09,0,1,1,0,0,0-.24,0c-.31,0-.62-.06-.92-.07-.11,0-.21,0-.31,0a19.93,19.93,0,0,0-8.21,1.23q-.76.3-1.47.66l-.94.55c-.37.22-.72.47-1.06.72l-.6.49a12.16,12.16,0,0,0-1.1,1c-2.79,3-4.29,7.15-4.66,12l-.66-.24-.65-.21h0l-.65-.2a17.79,17.79,0,0,0-1.91-.42,16.48,16.48,0,0,0-1.81-.17,13.57,13.57,0,0,0-5.31.82,12.6,12.6,0,0,0-1.93.9,10.37,10.37,0,0,0-.91.54,16.34,16.34,0,0,0-2.42,1.92c-.22.21-.44.43-.65.66a21.51,21.51,0,0,0-4,6.05,8.91,8.91,0,0,0-4.87-1.46,8.8,8.8,0,0,0-4.37,1.15,19.4,19.4,0,0,0-1.17-2c-.18-.28-.38-.54-.59-.82l-.31-.42-.68-.83-.37-.41c-.24-.27-.5-.52-.77-.8h0a16.86,16.86,0,0,0-1.73-1.51l-.23-.17h0l-.72-.51a13.7,13.7,0,0,0-10.2-2.14,17.61,17.61,0,0,0-5,1.78c-.08-.46-.17-.92-.27-1.36-.06-.28-.13-.56-.2-.83a1.17,1.17,0,0,0,0-.2l-.18-.67c0-.11-.07-.2-.1-.31-.13-.43-.27-.85-.43-1.25s-.18-.48-.28-.72-.19-.46-.3-.68l-.3-.62c0-.06-.05-.12-.08-.17-.19-.36-.38-.71-.59-1a2.13,2.13,0,0,0-.16-.25l-.3-.47c-.27-.39-.55-.76-.85-1.14l-.45-.52c-.3-.33-.61-.64-.93-.95l-.64-.54c-.16-.13-.32-.26-.49-.38s-.35-.25-.54-.38a13.37,13.37,0,0,0-2.31-1.23,5.83,5.83,0,0,0-.58-.23l-.59-.2-.6-.17a6.23,6.23,0,0,0-.62-.15h0l-.46-.11-.49-.08-.49-.08-.5-.06a4.91,4.91,0,0,0-.67-.06,5.12,5.12,0,0,0-.56,0c-.29,0-.59,0-.89,0l-.91,0-.67,0a8.4,8.4,0,0,0-.85.08,6.53,6.53,0,0,0-.86.11h0c-.38,0-.77.1-1.17.19l-.3,0c-.35.07-.7.14-1.06.24l-.11,0c-.41.09-.82.2-1.24.31s-1,.27-1.5.43c0-.34,0-.69,0-1s0-.81-.08-1.2,0-.49-.08-.74c-.05-.45-.11-.9-.19-1.33s-.12-.64-.19-.95-.15-.7-.25-1.05-.16-.59-.25-.88a20.68,20.68,0,0,0-1.56-3.82c-.11-.23-.23-.44-.36-.67-.34-.59-.7-1.17-1.1-1.73-.12-.18-.24-.34-.37-.5s-.24-.33-.37-.48-.4-.48-.61-.71c-.41-.47-.84-.91-1.29-1.34a20.76,20.76,0,0,0-1.68-1.4l-.55-.39a17.57,17.57,0,0,0-2.61-1.48,4,4,0,0,0-.56-.25,15.27,15.27,0,0,0-1.56-.6h0c-.28-.09-.54-.17-.82-.24a4.5,4.5,0,0,0-.49-.14l-.77-.18c-.33-.07-.67-.13-1-.18s-.72-.11-1.09-.14a5.44,5.44,0,0,0-.58,0l-.7-.05c-.63,0-1.27,0-1.92,0a4.73,4.73,0,0,0-.65,0c-.27,0-.53,0-.8.06l-1,.11c-.29,0-.58.08-.87.14s-.5.08-.75.14c-.63.13-1.28.28-1.93.46-.1-.52-.21-1-.32-1.52-.32-1.48-.66-2.87-1.06-4.15-.12-.44-.26-.86-.41-1.27s-.24-.69-.38-1c-.05-.14-.11-.28-.17-.42-.12-.31-.25-.61-.39-.89s-.35-.73-.54-1.07a5.3,5.3,0,0,0-.33-.57c-.18-.32-.38-.62-.59-.93l-.34-.45c-.09-.13-.19-.24-.29-.36s-.29-.35-.44-.51a11.68,11.68,0,0,0-1.79-1.65,9.91,9.91,0,0,0-.85-.59c-.17-.12-.34-.22-.51-.32s-.53-.3-.81-.44-.57-.28-.87-.41l-.22-.1-.46-.18c-.42-.16-.85-.31-1.31-.45l-.61-.18a19.35,19.35,0,0,0-2.05-.46l-1.11-.19c-.37-.06-.75-.12-1.15-.16s-1-.11-1.46-.14-1-.09-1.6-.11-.83,0-1.26,0-1,0-1.55,0c-.88,0-1.8,0-2.76,0a22.7,22.7,0,0,0-5.63-8.78,34.28,34.28,0,0,0,4.07-3.39c.34.33.68.7,1,1.07a23.78,23.78,0,0,1,1.48,1.89,30.06,30.06,0,0,1,2.24,3.74h0c16.77.13,23,6.4,26.19,17.79a24.64,24.64,0,0,1,18.92,5.39,26.61,26.61,0,0,1,8.75,14.85c6.13-.95,11.41,0,15.72,2.86A20.86,20.86,0,0,1,223.27,230c10.15-2.29,18.69,4.1,22.84,12.11l.43.22c3.62-8,11.36-14.6,21.31-13.48a21.23,21.23,0,0,1,6.95-11c4.05-3.32,9.26-4.84,15.51-4.57a26.88,26.88,0,0,1,7.39-15.71,25.3,25.3,0,0,1,18.48-7.44c.09-.46.18-.91.28-1.36,0-.19.09-.38.14-.57a22.39,22.39,0,0,1,.69-2.37c.06-.19.12-.38.19-.56q.22-.63.48-1.23c.16-.38.33-.77.52-1.14.1-.21.2-.43.32-.64Z" />
        <path class="BUNTAI_WALRUS_OUTFIT_BUNTAI_WALRUS_OUTFIT-47_cls-9" d="M241.7,244.69l-.48.29-.36.25-.27.2a7.43,7.43,0,0,0-.62.52l-.11.1a9.6,9.6,0,0,0-1.12,1.26c-.11.15-.23.31-.33.47s-.18.28-.26.42-.17.29-.25.44-.13.25-.19.38-.15.32-.22.49-.23.6-.33.91a2.76,2.76,0,0,0-.08.27,6,6,0,0,0-.15.61,1.74,1.74,0,0,0-.05.22,2.23,2.23,0,0,0,0,.23c0,.15-.05.3-.07.45h0c-1.41.22-2.81.46-4.21.7-1,.18-2.05.35-3.07.54l-1.23.23-.52.09c-1.22.23-2.44.47-3.65.72l-.78.15-2.43.51-2.27.49-3.93.88-4.2,1c-.52.12-1.05.25-1.56.39l-1.31.33h-.06l-.29.07-.51.14-1.89.5-2,.55c-.59.15-1.18.32-1.76.49l-1.74.5h-.05c-.72.2-1.44.41-2.15.63l-2,.6-2,.62-2,.64-3.36,1.1c-1,.32-1.94.64-2.9,1l-.19.06-2.89,1q-1.36.48-2.7,1l-1.83.69c-.64.24-1.27.48-1.89.73l-2.29.91-2.28.92q-.62.24-1.23.51c-.76.31-1.5.64-2.25,1l-1.33.57h0c-.35.14-.7.3-1,.45l-1,.47c-1.29.57-2.57,1.16-3.84,1.75s-2.52,1.18-3.76,1.79l-2.05,1q-4.09,2-8,4.16c-.34.18-.67.37-1,.54l0,0-.6.34c-1.05.58-2.09,1.17-3.12,1.78q-1,.54-1.89,1.11a3.47,3.47,0,0,0-.45.26l-1.38.82-2.14,1.32,0,0c-.64.4-1.28.8-1.91,1.21q-3.27,2.07-6.38,4.22l-.26.17-1.1.77v0h0c-.28.18-.55.38-.83.57h0c-.39.27-.77.55-1.15.83-1.17.83-2.31,1.68-3.44,2.54l-1.83,1.41-1.35,1.05c-.6.47-1.18.94-1.76,1.41-.73.6-1.46,1.19-2.17,1.8s-1.27,1.07-1.88,1.6c-.19.16-.38.32-.56.49q-1.65,1.44-3.22,2.89c-.29.27-.58.53-.87.81q-1.63,1.51-3.18,3.06l-.54.54q-2.58,2.58-4.91,5.18l-1,1.09h0c-.74.83-1.45,1.66-2.14,2.5l-.46.56c-.26.3-.5.6-.74.9l-.34.43c-.49.6-1,1.21-1.44,1.82s-.71.93-1,1.38q-1.52,2-2.87,4.07l-.19.27c-.24.36-.47.72-.69,1.07-.11.15-.21.31-.3.46-.3.46-.58.92-.86,1.37l0,.07c-.22.36-.43.72-.64,1.08l-.11.19-.1.16a.5.5,0,0,0-.08.14l-.16.28-.17.28c-.28.47-.55,1-.8,1.43l-.42.78c-.3.55-.58,1.09-.86,1.64-.19.38-.38.74-.55,1.12l0,.07-.21.45q-.69,1.44-1.26,2.85l-.3.72c-.19.46-.37.92-.54,1.37a.08.08,0,0,1,0,.05h0s0,0,0,0v.05s0,0,0,0a.64.64,0,0,0,0,.07,0,0,0,0,1,0,0c-.1.26-.19.52-.28.78s-.24.67-.35,1-.28.85-.41,1.28h0q.43-2.38.93-4.65t1-4.41c.19-.71.37-1.41.56-2.1s.38-1.37.57-2c0,0,0,0,0,0,.19-.67.38-1.32.58-2l.59-1.88h0s-.44-.54-1.2-1.63l0,0a109.48,109.48,0,0,1-7.66-12.63A144.63,144.63,0,0,1,64.07,294.7v0q-1.51-4.94-2.76-10.42c-.68-3.07-16.25-16.7-16.75-20h0c-.44-2.79-.81-5.67-1.07-8.64.61-.64,1.31-1.35,2.09-2.11l0,0c5-4.08,9.62-7.87,13.94-11.42l.72-.59.71-.59q4.25-3.49,8.09-6.7l5.48-4.58,1.65-1.4c2.2-1.86,4.29-3.64,6.29-5.37l.08-.07c.61-.52,1.2-1,1.79-1.56,6.89-6,12.6-11.27,17.51-16.3L103,203.7c.38-.39.75-.77,1.11-1.16s.61-.64.9-1l.88-1q1.88-2.06,3.66-3.94c2.83-3,5.47-5.71,7.92-8.16l1.22-1.22,0,0,0,0a59,59,0,0,1,10.15-6.93c1.51-.83,3.08-1.66,4.86-2.67a35.27,35.27,0,0,0,3.28-2.1,22.7,22.7,0,0,1,5.63,8.78c1,0,1.88,0,2.76,0,.54,0,1.05,0,1.55,0s.85,0,1.26,0,1.08.06,1.6.11,1,.08,1.46.14.78.1,1.15.16l1.11.19a19.35,19.35,0,0,1,2.05.46l.61.18c.46.14.89.29,1.31.45l.46.18a1.45,1.45,0,0,1,.22.09h0c.3.13.59.26.87.4s.55.28.81.44.34.2.51.32a9.91,9.91,0,0,1,.85.59,11.68,11.68,0,0,1,1.79,1.65c.15.16.3.33.44.51s.2.23.29.36l.34.45c.21.31.4.61.59.93a5.3,5.3,0,0,1,.33.57c.19.34.37.7.54,1.07s.27.58.39.89c.06.14.12.28.17.42.14.32.26.66.38,1s.28.84.41,1.27c.4,1.28.74,2.67,1.06,4.15.11.49.22,1,.32,1.52.65-.18,1.3-.33,1.93-.46.25-.06.5-.1.75-.14s.58-.09.87-.14l1-.11c.27,0,.53,0,.8-.06a4.73,4.73,0,0,1,.65,0c.65,0,1.29,0,1.92,0l.7.05a5.44,5.44,0,0,1,.58,0c.37,0,.74.08,1.09.14s.68.11,1,.18l.77.18a4.5,4.5,0,0,1,.49.14c.28.07.54.15.82.24h0a15.27,15.27,0,0,1,1.56.6,4,4,0,0,1,.56.25,17.57,17.57,0,0,1,2.61,1.48l.55.39a20.76,20.76,0,0,1,1.68,1.4c.45.43.88.87,1.29,1.34.21.23.42.46.61.71s.25.31.37.48.25.32.37.5c.4.56.76,1.14,1.1,1.73.13.23.25.44.36.67a20.68,20.68,0,0,1,1.56,3.82c.09.29.18.59.25.88s.18.7.25,1.05.14.63.19.95.14.88.19,1.33c0,.25.06.49.08.74s.06.79.08,1.2,0,.69,0,1c.51-.16,1-.3,1.5-.43s.83-.22,1.24-.31l.11,0c.36-.1.71-.17,1.06-.24l.3,0c.4-.09.79-.14,1.17-.19h0c.29-.05.58-.08.86-.11l.85-.08.67,0,.91,0c.3,0,.6,0,.89,0a5.12,5.12,0,0,1,.56,0c.23,0,.45,0,.67.06l.5.06.49.08.49.08.46.11h0a6.23,6.23,0,0,1,.62.15l.6.17.59.2a5.83,5.83,0,0,1,.58.23,13.37,13.37,0,0,1,2.31,1.23c.19.13.37.24.54.38s.33.25.49.38l.64.54c.32.31.63.62.93.95l.45.52c.3.38.58.75.85,1.14l.3.47a2.13,2.13,0,0,1,.16.25c.21.33.4.68.59,1,0,0,.05.11.08.17l.3.62c.11.22.21.45.3.68s.19.47.28.72.3.82.43,1.25c0,.11.06.2.1.31l.18.67a1.17,1.17,0,0,1,0,.2c.07.27.14.55.2.83.1.44.19.9.27,1.36a17.61,17.61,0,0,1,5-1.78,13.7,13.7,0,0,1,10.2,2.14l.72.51a0,0,0,0,1,0,0l.23.17a16.86,16.86,0,0,1,1.73,1.51h0c.27.28.53.53.77.8l.37.41.68.83.31.42c.21.28.41.54.59.82A19.4,19.4,0,0,1,241.7,244.69Z" />
        <path class="BUNTAI_WALRUS_OUTFIT_BUNTAI_WALRUS_OUTFIT-47_cls-9" d="M395.2,265.47c0,.13,0,.26,0,.39s0,.25-.05.38v.05a.22.22,0,0,0,0,.08s0,0,0,0a.25.25,0,0,0,0,.08l-.09.82c0,.07,0,.15,0,.22s-.58.57-1.43,1.33h0l-2.08,1.85,0,0c-2.56,2.26-5.56,4.9-5.57,5l-.06.45s0,.07,0,.1a0,0,0,0,1,0,0c0,.32-.07.63-.11.94-.15,1.13-.34,2.24-.54,3.35h0s0,0,0,0a.09.09,0,0,1,0,.05s0,.05,0,.09a0,0,0,0,0,0,0h0c0,.1,0,.23-.07.41s0,.23-.07.37,0,.18-.06.29,0,.09,0,.13-.07.35-.11.55,0,.24-.07.36-.07.34-.1.5-.07.33-.11.49a1.24,1.24,0,0,1,0,.16c0,.06,0,.12,0,.17s-.09.39-.14.6a1.5,1.5,0,0,1-.06.29l0,.11a.11.11,0,0,1,0,0,0,0,0,0,1,0,0,.43.43,0,0,0,0,.05h0s0,0,0,0l0,.12a.13.13,0,0,0,0,.06v0a.06.06,0,0,1,0,0,0,0,0,0,0,0,0,1.38,1.38,0,0,1-.06.26h0V286h0a.29.29,0,0,1,0,.09c-.06.23-.11.46-.17.7s-.08.36-.14.55-.09.37-.14.56-.09.38-.14.57h0c0,.09-.05.18-.08.27-.12.47-.25.93-.38,1.39s-.28,1-.43,1.46l-.45,1.44-.48,1.49c-.16.5-.33,1-.5,1.48a2.55,2.55,0,0,1-.11.33q-.45,1.29-.93,2.55s0,0,0,0c-.35.94-.72,1.87-1.08,2.78s-.74,1.82-1.12,2.69-.77,1.74-1.16,2.58c-.71,1.58-1.44,3.08-2.16,4.51-.05.11-.1.2-.15.29q-.34.69-.69,1.35c-.23.44-.45.88-.68,1.3-.68,1.27-1.35,2.47-2,3.59-.3.54-.6,1.05-.89,1.54l-.65,1.08-.48.8-.18.29c-.25.41-.51.8-.75,1.18l-.43.68c-.25.39-.48.75-.71,1.09l-.32.49-.44.65-.27.4s0,0,0,0h0c-.81,1.18-1.28,1.81-1.28,1.81.48,1.32,1,2.73,1.47,4.23-.24-.49-.5-1-.76-1.48-.34-.66-.69-1.33-1.06-2-.18-.33-.36-.67-.55-1s-.51-.9-.77-1.35-.45-.77-.68-1.16l-.29-.49c-.12-.21-.25-.42-.38-.63s-.11-.18-.17-.27-.1-.16-.14-.24c-.35-.57-.71-1.14-1.09-1.73-.28-.44-.56-.87-.85-1.3l-.29-.43c-.09-.15-.19-.29-.29-.44-.29-.44-.58-.87-.88-1.3l-1-1.48a.81.81,0,0,0-.06-.08c-.61-.88-1.25-1.75-1.9-2.62l-.05-.07-.19-.24-.13-.16c-.13-.18-.25-.35-.39-.52-.72-1-1.48-1.92-2.25-2.88l-1-1.25c-.18-.23-.37-.45-.57-.68l-.57-.67-.08-.09-.19-.23c-.46-.55-.93-1.1-1.41-1.64-.27-.31-.54-.61-.82-.91v0l-.19-.21c-.43-.49-.87-1-1.32-1.45s-1-1.11-1.55-1.66h0l-1-1-.05-.06-.35-.37c-.23-.24-.47-.47-.71-.71-.43-.44-.87-.88-1.32-1.31l-.8-.79-1.59-1.53c-.59-.56-1.2-1.13-1.81-1.68l-.47-.44c-.82-.75-1.66-1.49-2.51-2.23l-.26-.24-.41-.34c-.54-.47-1.09-.93-1.64-1.39q-1.65-1.39-3.36-2.75l-1.73-1.35c-.58-.46-1.17-.9-1.76-1.34l-1.78-1.32c-.6-.45-1.2-.88-1.82-1.31l-.29-.21h0l-.58-.4-.57-.39-1.17-.82-2.28-1.53h-.08l-.88-.58c-1.26-.82-2.53-1.63-3.83-2.42-.6-.37-1.22-.75-1.84-1.11l-.65-.38h0c-.4-.25-.8-.49-1.21-.72q-2.65-1.54-5.42-3c-.61-.33-1.23-.65-1.85-1s-1.22-.63-1.83-.93q-1.23-.63-2.49-1.23c-1.22-.6-2.46-1.18-3.72-1.75l-.77-.35L290,264l-.49-.22c-.53-.24-1.07-.47-1.62-.7-1.82-.77-3.68-1.53-5.57-2.25l-1.62-.62q-1-.39-2-.75l-.69-.25c-.69-.25-1.39-.5-2.09-.73s-1.41-.49-2.13-.73l-.14,0-.35-.12-2.31-.73-1.77-.54-1.69-.5-.33-.1-1.26-.36-.78-.22-1.78-.49c-1-.27-2.08-.54-3.14-.8-.71-.18-1.42-.36-2.13-.52s-1.72-.4-2.59-.6a10.22,10.22,0,0,0-4.5-7.75,21.51,21.51,0,0,1,4-6.05c.21-.23.43-.45.65-.66a16.34,16.34,0,0,1,2.42-1.92,10.37,10.37,0,0,1,.91-.54,12.6,12.6,0,0,1,1.93-.9,13.57,13.57,0,0,1,5.31-.82,14.35,14.35,0,0,1,1.81.17,17.79,17.79,0,0,1,1.91.42l.65.2h0l.65.21.66.24c.37-4.82,1.87-9,4.66-12a12.16,12.16,0,0,1,1.1-1l.6-.49c.34-.25.69-.5,1.06-.72l.94-.55q.7-.36,1.47-.66a19.93,19.93,0,0,1,8.21-1.23c.1,0,.2,0,.31,0,.3,0,.61,0,.92.07a1,1,0,0,1,.24,0,.15.15,0,0,1,.09,0,8.4,8.4,0,0,1,.85.08c.31,0,.63.07,1,.13l.79.11,1.21.22a24.74,24.74,0,0,1,.07-5.31c0-.33.08-.65.14-1s.07-.44.12-.66c.07-.42.16-.83.27-1.24s.13-.52.21-.78a1.23,1.23,0,0,1,.09-.29,5.76,5.76,0,0,1,.18-.59,21.13,21.13,0,0,1,2.12-4.54c.15-.25.3-.48.46-.71a18.42,18.42,0,0,1,1.12-1.51,19,19,0,0,1,6.51-5.11,5.77,5.77,0,0,1,.56-.27c.26-.12.52-.22.78-.33l.68-.26.37-.12.55-.18c.2-.06.4-.12.6-.16s.46-.13.69-.18.65-.15,1-.21.71-.13,1.07-.17l1.11-.12h0c.31,0,.62-.06.93-.07l1.08,0a28.33,28.33,0,0,1,4.5.35c0-.23.05-.43.07-.64v0a51.25,51.25,0,0,1,1-6.25c0-.21.1-.4.15-.6s.1-.38.16-.57l2.43,4.33c2.14,4.28,5.45,8,8.69,11.45l.24-.05a2.51,2.51,0,0,0,.26.58,4.26,4.26,0,0,0,1.12,1.17l0,0a51.84,51.84,0,0,1,6.75,7.87c.14.19.3.39.5.62l.35.4.07.08c.35.39.76.83,1.23,1.31l.09.1.53.53c.33.33.68.68,1.06,1l1.42,1.36,1.32,1.25c1.25,1.17,2.64,2.44,4.13,3.79,3,2.74,6.45,5.81,10.05,9.05.7.63,1.42,1.27,2.14,1.93l1,.87,4.46,4.05.36.32,1.82,1.67,1.08,1,1.08,1q1.85,1.69,3.62,3.38h0l.62.58,2.05,1.95,1,1c1,1,2,1.91,2.9,2.85.32.31.62.62.93.93l.91.91,1.74,1.8a1.59,1.59,0,0,0,.13.13h0v0a88.94,88.94,0,0,1,6.24,7.12h0c.33.43.64.85.92,1.26C395.19,265.46,395.2,265.46,395.2,265.47Z" />
        <path class="BUNTAI_WALRUS_OUTFIT_BUNTAI_WALRUS_OUTFIT-47_cls-10" d="M232.26,311.23s7.88,2,12.75,13.19a45.06,45.06,0,0,1,3.33,13.06" />
        <path class="BUNTAI_WALRUS_OUTFIT_BUNTAI_WALRUS_OUTFIT-47_cls-10" d="M245,324.42s5.51-14.23,15.44-17.1" />
        <path class="BUNTAI_WALRUS_OUTFIT_BUNTAI_WALRUS_OUTFIT-47_cls-10" d="M77.71,357.93c.29-2.44.67-4.82,1.08-7.12a135.18,135.18,0,0,1,4.29-17c.83-2.63,1.69-5,2.48-7.1" />
        <path class="BUNTAI_WALRUS_OUTFIT_BUNTAI_WALRUS_OUTFIT-47_cls-10" d="M77.71,357.94c0,.17,0,.33-.06.49s0,.06,0,.09l-.1,1a5.9,5.9,0,0,0-.06.59.45.45,0,0,0,0,.11v0c-.1.8-.17,1.62-.23,2.45,0,.07,0,.15,0,.24-.06.82-.12,1.65-.16,2.5v.08c0,.68-.07,1.35-.09,2,0,.32,0,.65,0,1,0,.76,0,1.54,0,2.32v.1c0,.65,0,1.31,0,2,0,.44,0,.89,0,1.36l.06,1.31q.09,1.74.24,3.51v.05h0c0,.18,0,.37.06.55,0,.66.12,1.31.21,2a.41.41,0,0,0,0,.1q.14,1.26.33,2.55a77.54,77.54,0,0,0,10.77,30,80.38,80.38,0,0,0,16.82,19.29c2,1.72,4.12,3.37,6.38,5l.45.32c.46.32,1.24.83,2.37,1.49h0a79.71,79.71,0,0,0,23.15,8.5l.1,0a121,121,0,0,0,31.13,2.31h0a153.28,153.28,0,0,0,17-1.79c2-.32,4-.62,5.95-.91,1.71-.25,3.39-.52,5-.73l.41,0q8.06-1.14,15.23-1.9c2.72-.29,5.34-.55,7.88-.78q7.2-.63,13.58-.95c.1,0,.21,0,.31,0,4.75-.25,9.18-.37,13.33-.42h.24c21.5-.22,35.55,1.88,48.19,2.43,13.08.57,24.67-.52,41.45-7.53l.32-.23c14-10.05,22.74-21.72,28-33.79a80.12,80.12,0,0,0,5.81-21.21,92.72,92.72,0,0,0,.8-13.29,110.19,110.19,0,0,0-.78-12.12c-.44-3.71-1.05-7.26-1.75-10.63a137,137,0,0,0-4.08-15c-.5-1.5-1-2.91-1.48-4.23-.63-1.72-1.25-3.28-1.81-4.63-.08-.22-.18-.42-.27-.62-1.58-3.78-2.7-5.92-2.7-5.92" />
        <path class="BUNTAI_WALRUS_OUTFIT_BUNTAI_WALRUS_OUTFIT-47_cls-10" d="M75.14,328.06s-1.9,10.89-.32,20.81a27.84,27.84,0,0,0,2.89,9.06h0a0,0,0,0,1,0,0" />
        <path class="BUNTAI_WALRUS_OUTFIT_BUNTAI_WALRUS_OUTFIT-47_cls-10" d="M374.45,328.06a77.23,77.23,0,0,1,.71,17.37,31.53,31.53,0,0,1-3.3,12.54" />
        <path class="BUNTAI_WALRUS_OUTFIT_BUNTAI_WALRUS_OUTFIT-47_cls-10" d="M146.66,288c-1.54.87-3.06,1.73-4.54,2.61q-5.18,3.09-9.83,6.28C85.76,328.75,77,368.46,77.88,384.31" />
        <path class="BUNTAI_WALRUS_OUTFIT_BUNTAI_WALRUS_OUTFIT-47_cls-10" d="M237.71,258.24c-34.58,5.76-61.9,14.88-83.43,25.71-2.62,1.32-5.16,2.66-7.6,4" />
        <path class="BUNTAI_WALRUS_OUTFIT_BUNTAI_WALRUS_OUTFIT-47_cls-10" d="M236.77,252.21c-91.9,14.55-147.27,63.3-158,98.6" />
        <path class="BUNTAI_WALRUS_OUTFIT_BUNTAI_WALRUS_OUTFIT-47_cls-10" d="M366,332.29c-15.81-31.59-53.82-66.92-110.59-79.54" />
        <path class="BUNTAI_WALRUS_OUTFIT_BUNTAI_WALRUS_OUTFIT-47_cls-10" d="M241.33,262.34a9.6,9.6,0,0,1-2.74-2.58,10.37,10.37,0,0,1-.88-1.52,10.75,10.75,0,0,1-1-4.61,11,11,0,0,1,.1-1.42,10,10,0,0,1,4.93-7.51,8.7,8.7,0,0,1,4.37-1.16A9,9,0,0,1,251,245a10.24,10.24,0,0,1,4.49,7.75c0,.29,0,.57,0,.88a10.62,10.62,0,0,1-1.27,5.07,8,8,0,0,1-.66,1,9.71,9.71,0,0,1-2.71,2.6,8.86,8.86,0,0,1-4.76,1.38,9,9,0,0,1-4.74-1.36" />
        <path class="BUNTAI_WALRUS_OUTFIT_BUNTAI_WALRUS_OUTFIT-47_cls-10" d="M241.33,262.34v0c0,.2-.19,2.06-.42,5-.7,9.11-2,28.44-1,38.75,8.41,3.63,15.61-1.77,15.61-1.77A279,279,0,0,0,253,273.17a88.15,88.15,0,0,0-2.21-10.83" />
        <path class="BUNTAI_WALRUS_OUTFIT_BUNTAI_WALRUS_OUTFIT-47_cls-10" d="M83.07,333.77s-.44-.54-1.2-1.63l0,0a106.64,106.64,0,0,1-7.66-12.63A143,143,0,0,1,64.08,294.7q-1.53-4.95-2.77-10.44c-.68-3.07-16.25-16.7-16.75-20v0c-.44-2.79-.81-5.67-1.07-8.64" />
        <path class="BUNTAI_WALRUS_OUTFIT_BUNTAI_WALRUS_OUTFIT-47_cls-10" d="M338.07,438.38l58.9-.15,52.6-.13a604.46,604.46,0,0,1-19.34-58.23" />
        <path class="BUNTAI_WALRUS_OUTFIT_BUNTAI_WALRUS_OUTFIT-47_cls-10" d="M29.1,295.87c-1,1.82-2,3.71-2.88,5.63-1.13,2.34-2.23,4.88-3.29,7.56-.08.18-.15.37-.22.56a4.87,4.87,0,0,0-.21.53C15,329.29,9.36,354.74,6.87,362c-.6,1.79-1.25,3.42-1.85,4.9l0,0v0C2.69,372.47.57,376.09.5,378.05.39,380.53,2,384.31,2,384.31L-8.3,438.93H112.3" />
        <path class="BUNTAI_WALRUS_OUTFIT_BUNTAI_WALRUS_OUTFIT-47_cls-10" d="M141.09,172.18c.34.33.68.7,1,1.07a23.78,23.78,0,0,1,1.48,1.89,28.92,28.92,0,0,1,2.25,3.74c16.77.13,23,6.4,26.19,17.79a24.64,24.64,0,0,1,18.92,5.39,26.61,26.61,0,0,1,8.75,14.85c6.13-.95,11.41,0,15.72,2.86A20.86,20.86,0,0,1,223.27,230c10.15-2.29,18.69,4.1,22.84,12.11" />
        <path class="BUNTAI_WALRUS_OUTFIT_BUNTAI_WALRUS_OUTFIT-47_cls-10" d="M45.58,253.48l0,0c5-4.08,9.62-7.87,13.94-11.42.24-.21.48-.4.72-.6l.71-.58q4.25-3.49,8.09-6.7l5.48-4.58,1.65-1.4c2.2-1.86,4.29-3.64,6.29-5.37l.08-.07c.61-.52,1.2-1,1.79-1.56,6.89-6,12.6-11.27,17.51-16.3.39-.39.77-.78,1.13-1.17s.75-.77,1.11-1.16.61-.64.9-1l.88-1q1.88-2.06,3.66-3.94c2.83-3,5.47-5.71,7.92-8.16l.94-.94.28-.28,0,0,0,0" />
        <path class="BUNTAI_WALRUS_OUTFIT_BUNTAI_WALRUS_OUTFIT-47_cls-10" d="M241.7,244.69a19.4,19.4,0,0,0-1.17-2c-.19-.28-.38-.54-.59-.82l-.31-.42-.68-.83-.37-.41c-.24-.27-.5-.52-.77-.8h0a16.86,16.86,0,0,0-1.73-1.51l-.23-.18h0l-.72-.51a13.7,13.7,0,0,0-10.2-2.14,17.61,17.61,0,0,0-5,1.78c-.08-.46-.17-.92-.27-1.36-.06-.28-.13-.56-.2-.83a1.17,1.17,0,0,0,0-.2l-.18-.67c0-.11-.07-.2-.1-.31-.13-.43-.27-.85-.43-1.25s-.18-.48-.28-.72-.19-.46-.3-.68l-.3-.62c0-.06-.05-.12-.08-.17-.19-.36-.38-.71-.59-1a2.13,2.13,0,0,0-.16-.25l-.3-.47c-.27-.39-.55-.76-.85-1.14l-.45-.52c-.3-.33-.61-.64-.93-.95l-.64-.54c-.16-.13-.32-.26-.49-.38s-.35-.25-.54-.38a13.37,13.37,0,0,0-2.31-1.23,5.83,5.83,0,0,0-.58-.23l-.59-.2-.6-.17-.63-.16-.46-.1-.49-.08-.49-.08-.5-.06a4.91,4.91,0,0,0-.67-.06,5.12,5.12,0,0,0-.56,0c-.29,0-.59,0-.89,0l-.91,0-.67,0a8.4,8.4,0,0,0-.85.08,6.53,6.53,0,0,0-.86.11h0c-.38,0-.77.1-1.17.19l-.3,0c-.35.07-.7.14-1.06.24l-.11,0c-.41.09-.82.2-1.24.31s-1,.27-1.5.43c0-.34,0-.69,0-1s0-.81-.08-1.2,0-.49-.08-.74c-.05-.45-.11-.9-.19-1.33s-.12-.64-.19-.95-.15-.7-.25-1.05-.16-.59-.25-.88a20.68,20.68,0,0,0-1.56-3.82c-.11-.23-.23-.44-.36-.67-.34-.59-.7-1.17-1.1-1.73-.12-.18-.24-.34-.37-.5s-.24-.33-.37-.48-.4-.48-.61-.71c-.41-.47-.84-.91-1.29-1.34a20.76,20.76,0,0,0-1.68-1.4l-.55-.39a17.57,17.57,0,0,0-2.61-1.48,4,4,0,0,0-.56-.25,15.27,15.27,0,0,0-1.56-.6h0c-.28-.09-.54-.17-.82-.24a4.5,4.5,0,0,0-.49-.14l-.77-.18c-.33-.07-.67-.13-1-.18s-.72-.11-1.09-.14a5.44,5.44,0,0,0-.58,0l-.7-.05c-.63,0-1.27,0-1.92,0a4.73,4.73,0,0,0-.65,0c-.27,0-.53,0-.8.06l-1,.11c-.29,0-.58.08-.87.14s-.5.08-.75.14c-.63.13-1.28.28-1.93.46-.1-.52-.21-1-.32-1.52-.32-1.48-.66-2.87-1.06-4.15-.12-.44-.26-.86-.41-1.27s-.24-.69-.38-1c-.05-.14-.11-.28-.17-.42-.12-.31-.25-.61-.39-.89s-.35-.73-.54-1.07a5.3,5.3,0,0,0-.33-.57c-.18-.32-.38-.62-.59-.93l-.34-.45c-.09-.13-.2-.24-.29-.36s-.29-.35-.44-.51a11.68,11.68,0,0,0-1.79-1.65,9.91,9.91,0,0,0-.85-.59c-.17-.12-.34-.22-.51-.32s-.53-.3-.81-.44-.57-.28-.87-.41l-.22-.1-.46-.18c-.42-.16-.85-.31-1.31-.45l-.61-.18a19.35,19.35,0,0,0-2.05-.46l-1.11-.19c-.37-.06-.75-.12-1.15-.16s-1-.11-1.46-.14-1-.09-1.6-.11-.83,0-1.26,0-1,0-1.55,0c-.88,0-1.8,0-2.76,0a22.7,22.7,0,0,0-5.63-8.78" />
        <path class="BUNTAI_WALRUS_OUTFIT_BUNTAI_WALRUS_OUTFIT-47_cls-10" d="M364.55,328.06s.47-.63,1.28-1.81h0l.29-.43c.14-.2.3-.42.45-.65l.32-.49c.23-.34.46-.7.71-1.09l.43-.68c.24-.38.49-.77.74-1.18l.18-.29.48-.8.65-1.08c.29-.49.59-1,.89-1.54.64-1.12,1.31-2.32,2-3.59.45-.85.91-1.72,1.37-2.65.05-.09.1-.18.15-.29.72-1.43,1.46-2.93,2.17-4.51.39-.84.77-1.7,1.15-2.58s.76-1.78,1.12-2.69.74-1.84,1.08-2.78c0,0,0,0,0,0q.48-1.26.93-2.55a2.55,2.55,0,0,0,.11-.33c.17-.49.34-1,.5-1.48.33-1,.64-1.94.93-2.93.15-.48.29-1,.43-1.46s.26-.92.38-1.39c0-.09.05-.19.08-.28s.09-.38.14-.57.1-.37.14-.56c.11-.43.21-.85.31-1.25a.29.29,0,0,0,0-.09h0a.65.65,0,0,0,0-.13.37.37,0,0,0,0-.09.15.15,0,0,0,0-.06.08.08,0,0,1,0,0,0,0,0,0,0,0,0,.31.31,0,0,1,0-.13.11.11,0,0,1,0,0,.25.25,0,0,1,0-.07,0,0,0,0,0,0,0h0s0,0,0-.05a0,0,0,0,0,0,0,.11.11,0,0,0,0,0l0-.11c0-.15.07-.3.1-.45s.07-.29.1-.44.06-.23.08-.33.07-.33.11-.49.07-.34.1-.5.07-.33.1-.49.07-.36.1-.55,0-.28.08-.4a2.38,2.38,0,0,0,.05-.26c0-.18,0-.31.07-.41h0s0-.07,0-.1a.09.09,0,0,0,0-.05s0,0,0,0h0c.2-1.11.39-2.22.54-3.35s9.32-9.81,9.43-10.93h0c0-.15,0-.29,0-.44s0-.26,0-.39" />
        <path class="BUNTAI_WALRUS_OUTFIT_BUNTAI_WALRUS_OUTFIT-47_cls-10" d="M246.07,243.35c.14-.36.3-.72.47-1.07,3.62-8,11.36-14.6,21.31-13.48a21.23,21.23,0,0,1,6.95-11c4.05-3.32,9.26-4.84,15.51-4.57a26.88,26.88,0,0,1,7.39-15.71,25.3,25.3,0,0,1,18.48-7.44c.09-.46.18-.91.28-1.36,0-.19.09-.38.14-.57a22.39,22.39,0,0,1,.69-2.37c.06-.19.12-.38.19-.56q.22-.63.48-1.23c.16-.38.33-.77.52-1.14.1-.21.2-.43.32-.64" />
        <path class="BUNTAI_WALRUS_OUTFIT_BUNTAI_WALRUS_OUTFIT-47_cls-10" d="M250.94,245a21.51,21.51,0,0,1,4-6.05c.21-.23.43-.45.65-.66a16.34,16.34,0,0,1,2.42-1.92,10.37,10.37,0,0,1,.91-.54,12.6,12.6,0,0,1,1.93-.9,13.57,13.57,0,0,1,5.31-.82,14.35,14.35,0,0,1,1.81.17,17.79,17.79,0,0,1,1.91.42l.65.2h0l.65.21.66.24c.37-4.82,1.87-9,4.66-12a12.16,12.16,0,0,1,1.1-1l.6-.49c.34-.25.69-.5,1.06-.72l.94-.55q.7-.36,1.47-.66a19.93,19.93,0,0,1,8.21-1.23c.1,0,.2,0,.31,0,.3,0,.61,0,.92.07a1,1,0,0,1,.24,0,.15.15,0,0,1,.09,0,8.4,8.4,0,0,1,.85.08c.31,0,.63.07,1,.13l.79.11,1.21.22a24.74,24.74,0,0,1,.07-5.31c0-.33.08-.65.14-1s.07-.44.12-.66c.07-.42.16-.83.27-1.24s.13-.52.21-.78a1.23,1.23,0,0,1,.09-.29,5.76,5.76,0,0,1,.18-.59,21.13,21.13,0,0,1,2.12-4.54c.14-.25.3-.48.46-.71a18.42,18.42,0,0,1,1.12-1.51,19,19,0,0,1,6.51-5.11,4.77,4.77,0,0,1,.56-.27c.26-.12.52-.22.78-.33l.68-.26.37-.12.55-.18c.2-.06.4-.12.6-.16s.46-.13.69-.18.65-.15,1-.21.71-.13,1.07-.17a9.92,9.92,0,0,1,1.11-.12h0c.31,0,.62-.06.93-.07l1.08,0a28.33,28.33,0,0,1,4.5.35c0-.23.05-.43.07-.64h0a51.25,51.25,0,0,1,1-6.25c0-.21.1-.4.15-.6s.1-.38.16-.57" />
        <path class="BUNTAI_WALRUS_OUTFIT_BUNTAI_WALRUS_OUTFIT-47_cls-10" d="M428.05,383.2a18,18,0,0,0,2.18-3.33c2.71-5.5-.7-8.65-3.21-14.36-1.57-3.6-5.31-19.64-9.67-37l0-.11" />
        <path class="BUNTAI_WALRUS_OUTFIT_BUNTAI_WALRUS_OUTFIT-47_cls-10" d="M410.93,408.1s3.73-18.4,12.75-29.32" />
        <path class="BUNTAI_WALRUS_OUTFIT_BUNTAI_WALRUS_OUTFIT-47_cls-10" d="M132.29,296.87s6.93,4.37,6.66,11.39c9.82-4.68,14.72.13,14,8.63,7.64-1.59,15.13,3.23,13.5,14.65,8.31-1.61,18,2,18.67,14.19,6.54-3.65,15.27-2.2,18.39,8.63,7.5-6.43,14.59-3.21,18,2.79C228.91,352,239,352,245,359.49" />
        <path class="BUNTAI_WALRUS_OUTFIT_BUNTAI_WALRUS_OUTFIT-47_cls-11" d="M245,359.49c4.7-7.46,12.64-7.46,18.41-2.34,2.68-6,8.23-9.22,14.12-2.79,2.45-10.83,9.3-12.28,14.43-8.63.53-12.14,8.12-15.8,14.65-14.19-1.29-11.42,4.6-16.24,10.59-14.65-.54-8.5,3.31-13.31,11-8.63a15,15,0,0,1,4.63-10.85" />
        <path class="BUNTAI_WALRUS_OUTFIT_BUNTAI_WALRUS_OUTFIT-47_cls-12" d="M142.12,290.59a11.12,11.12,0,0,1,.64,4.11c9.39-4.69,14.08.12,13.43,8.63,7.31-1.6,14.48,3.23,12.92,14.64,8-1.6,17.22,2,17.88,14.2,6.26-3.66,14.61-2.2,17.61,8.63,7.18-6.43,14-3.22,17.23,2.79,7-5.13,16.74-5.13,22.46,2.33" />
        <path class="BUNTAI_WALRUS_OUTFIT_BUNTAI_WALRUS_OUTFIT-47_cls-13" d="M244.29,345.92c4.49-7.46,12.1-7.46,17.62-2.33,2.56-6,7.88-9.22,13.51-2.79,2.36-10.83,8.91-12.29,13.83-8.63.5-12.15,7.77-15.8,14-14.2-1.23-11.41,4.4-16.25,10.13-14.64a16.15,16.15,0,0,1,1-7.26c1.54-3.44,4.78-4.44,9.6-1.37a13.4,13.4,0,0,1,.56-4.31" />
        <path class="BUNTAI_WALRUS_OUTFIT_BUNTAI_WALRUS_OUTFIT-47_cls-10" d="M238.6,259.74v0c-.41.65-15,23.85-35.84,18.66-9.41,8.63-19.49,7.6-25.35,4.82-6,5.57-20.61,3-23.12.71" />
        <path class="BUNTAI_WALRUS_OUTFIT_BUNTAI_WALRUS_OUTFIT-47_cls-10" d="M240.91,267.33s-12.58,24.81-36.2,19.43c-15.53,9.66-26.67,3.83-26.67,3.83s-17.24,10.8-31.36-2.61h0" />
        <path class="BUNTAI_WALRUS_OUTFIT_BUNTAI_WALRUS_OUTFIT-47_cls-10" d="M253.54,259.74s6.89,20.1,24.87,20.54c5.63,5.81,16,6.37,19.64,4.56,4.18,4.66,14.49,4,19.31.34" />
        <path class="BUNTAI_WALRUS_OUTFIT_BUNTAI_WALRUS_OUTFIT-47_cls-10" d="M253,273.17a26.21,26.21,0,0,0,23.23,14.08c6.24,6.75,20.34,5.28,20.34,5.28s10.17,6,17.74,3.54" />
        <path class="BUNTAI_WALRUS_OUTFIT_BUNTAI_WALRUS_OUTFIT-47_cls-10" d="M4.7,376.12s26.45,20.54,30.81,30.19,10.9,17.27,13.35,19" />
        <path class="BUNTAI_WALRUS_OUTFIT_BUNTAI_WALRUS_OUTFIT-47_cls-10" d="M76.92,368s-8.16-5-11.43-29" />
        <path class="BUNTAI_WALRUS_OUTFIT_BUNTAI_WALRUS_OUTFIT-47_cls-10" d="M382,352.46s.89,11.84-9.4,17.63c-2.91-19.22-13-48.2-39.79-72.68-2.62-2.38-5.39-4.73-8.34-7-2.28-1.77-4.66-3.52-7.15-5.21-16.2-11.08-36.87-20.48-63.16-26.48" />
        <path class="BUNTAI_WALRUS_OUTFIT_BUNTAI_WALRUS_OUTFIT-47_cls-10" d="M366,404.6s8.17,19.57,15.12,24S384,418,384,418" />
        <path class="BUNTAI_WALRUS_OUTFIT_BUNTAI_WALRUS_OUTFIT-47_cls-10" d="M48.5,250.71l-1.25,1.16c-.58.55-1.13,1.07-1.64,1.58l0,0c-.78.76-1.48,1.47-2.09,2.11l-.19.2c-13.66,12.91-6.87,27.48-14.21,40.08a82.25,82.25,0,0,0-5.36,11.21c-.13.32-.27.65-.4,1s-.27.66-.4,1c-.08.18-.15.37-.22.56a4.87,4.87,0,0,0-.21.53" />
        <path class="BUNTAI_WALRUS_OUTFIT_BUNTAI_WALRUS_OUTFIT-47_cls-10" d="M417.35,328.47l0-.11c-9.12-28.52-13.55-56.34-21.94-62.63a2.93,2.93,0,0,1-.18-.26s0,0,0,0c-.28-.41-.59-.83-.92-1.26h0a88.94,88.94,0,0,0-6.24-7.12v0h0a1.59,1.59,0,0,1-.13-.13l-1.74-1.8-.91-.91c-.31-.31-.61-.62-.93-.93-.94-.93-1.91-1.89-2.9-2.85l-1-1-2.05-1.95-.62-.58h0q-1.77-1.68-3.62-3.38l-1.08-1-1.08-1-1.82-1.66h0l-.36-.32-4.46-4.05-1-.87-2.14-1.93c-3.6-3.24-7-6.31-10.05-9.05-1.49-1.35-2.88-2.62-4.13-3.79l-1.32-1.25-1.42-1.36c-.38-.36-.73-.71-1.06-1l-.53-.53-.09-.1c-.47-.48-.88-.92-1.23-1.31l-.07-.08c-.13-.14-.25-.27-.35-.4s-.36-.43-.5-.62a51.84,51.84,0,0,0-6.75-7.87l0,0c-.36-.39-.74-.77-1.12-1.17l-.5-.53c-3.24-3.41-6.55-7.17-8.69-11.45" />
        <path class="BUNTAI_WALRUS_OUTFIT_BUNTAI_WALRUS_OUTFIT-47_cls-14" d="M128.88,180.34c5.28,4.16,10,8.86,11.21,12.64" />
        <path class="BUNTAI_WALRUS_OUTFIT_BUNTAI_WALRUS_OUTFIT-47_cls-14" d="M129.21,230.42s10.22,1.61,10.77-5-22.08-5.19-23.44,3.37,5.69,12.73,19.89,11,19.84,10.1,17.89,21.18-9.07,21.69-9.07,21.69" />
        <path class="BUNTAI_WALRUS_OUTFIT_BUNTAI_WALRUS_OUTFIT-47_cls-14" d="M169.68,236.69a13.45,13.45,0,0,0-2.24-6.41c-2.81-4.59-16.19-.19-16.74,0" />
        <path class="BUNTAI_WALRUS_OUTFIT_BUNTAI_WALRUS_OUTFIT-47_cls-14" d="M150.68,230.28s0,0,0,0c9-4.54,9.86-10.84,4.38-15.33v0a20.1,20.1,0,0,0-5.49-3.07,15.28,15.28,0,0,0-1.69-.57,14,14,0,0,0-7.32-.15,15.45,15.45,0,0,0-8.17,5.54" />
        <path class="BUNTAI_WALRUS_OUTFIT_BUNTAI_WALRUS_OUTFIT-47_cls-14" d="M170,249.44a6.22,6.22,0,0,1,4.45-6.91c5.37-1.81,10.68,1.64,5.27,7.79s-21.11,13.94-22.39,2.58,17-19.81,25.25-20.53,15.59,3.63,14.26,8.89-14.87,15.5-12.16,23.88" />
        <path class="BUNTAI_WALRUS_OUTFIT_BUNTAI_WALRUS_OUTFIT-47_cls-14" d="M104.11,202.54c5.68,3.44,16,10.5,17.2,11.78,8.86-9.29,19.27-3.2,19.27-3.2" />
        <path class="BUNTAI_WALRUS_OUTFIT_BUNTAI_WALRUS_OUTFIT-47_cls-14" d="M82.49,222.8c-2.07,7.75,16.14,24.88,33.36,24.52-1.5,7.61,6,12.14,24.2,5.56a23.27,23.27,0,0,1,2.67,13.91A32.07,32.07,0,0,1,139.08,278h0a51.45,51.45,0,0,1-4.59,7.16h0a79.57,79.57,0,0,1-8.52,9.46v0h0" />
        <path class="BUNTAI_WALRUS_OUTFIT_BUNTAI_WALRUS_OUTFIT-47_cls-14" d="M64.07,294.7S72.24,281.05,83,279s11.45,1.87,20.55-1.31,21.51,4.23,21.59,17.64" />
        <path class="BUNTAI_WALRUS_OUTFIT_BUNTAI_WALRUS_OUTFIT-47_cls-14" d="M61.31,284.26s7.34-14.08,20.33-14.62,12.27,2.3,26.58-.33,23.82,6.43,26.27,15.89" />
        <path class="BUNTAI_WALRUS_OUTFIT_BUNTAI_WALRUS_OUTFIT-47_cls-14" d="M44.55,264.26s4.08-11.24,14.7-10.8,29.14,12.33,39.26,7.94S132,259.54,139.08,278" />
        <path class="BUNTAI_WALRUS_OUTFIT_BUNTAI_WALRUS_OUTFIT-47_cls-14" d="M76.2,228.17a23,23,0,0,1,1,3.73s0,0,0,0c1,5,1,12.09-1.87,21.67" />
        <path class="BUNTAI_WALRUS_OUTFIT_BUNTAI_WALRUS_OUTFIT-47_cls-14" d="M69.07,234.15a24.63,24.63,0,0,1-7.27,19.44" />
        <path class="BUNTAI_WALRUS_OUTFIT_BUNTAI_WALRUS_OUTFIT-47_cls-14" d="M142.65,184.35s-6.59,14.68-1,26.55" />
        <path class="BUNTAI_WALRUS_OUTFIT_BUNTAI_WALRUS_OUTFIT-47_cls-14" d="M149.83,184.47s-8.24,13.22-1.93,26.8" />
        <path class="BUNTAI_WALRUS_OUTFIT_BUNTAI_WALRUS_OUTFIT-47_cls-14" d="M158.19,186.33s-8,13.5-3.11,28.59" />
        <path class="BUNTAI_WALRUS_OUTFIT_BUNTAI_WALRUS_OUTFIT-47_cls-14" d="M109.55,196.69c8.57,4.69,25,10.47,29.84,3.93" />
        <path class="BUNTAI_WALRUS_OUTFIT_BUNTAI_WALRUS_OUTFIT-47_cls-14" d="M200.72,222.24s5.47,13.49,1.22,21.74a66,66,0,0,0-5.7,17.42" />
        <path class="BUNTAI_WALRUS_OUTFIT_BUNTAI_WALRUS_OUTFIT-47_cls-14" d="M208.07,222.42s6.39,14.55,3,21.22a37,37,0,0,0-3.46,14.6" />
        <path class="BUNTAI_WALRUS_OUTFIT_BUNTAI_WALRUS_OUTFIT-47_cls-14" d="M181.64,202.92s7.27,17.36-1.79,29.9" />
        <path class="BUNTAI_WALRUS_OUTFIT_BUNTAI_WALRUS_OUTFIT-47_cls-14" d="M172.81,202s4.58,19.71-5.37,28.23" />
        <path class="BUNTAI_WALRUS_OUTFIT_BUNTAI_WALRUS_OUTFIT-47_cls-14" d="M219,255.54s-.33-9.28,4.51-11.86,6.47,4.13,5,5.93" />
        <path class="BUNTAI_WALRUS_OUTFIT_BUNTAI_WALRUS_OUTFIT-47_cls-14" d="M94.59,278.8s-9.84,13.75-4.13,23.26A51.84,51.84,0,0,1,97.27,320" />
        <path class="BUNTAI_WALRUS_OUTFIT_BUNTAI_WALRUS_OUTFIT-47_cls-14" d="M103.52,277.65s-4.5,6.24-3.27,12.94S112,297.43,111,306.42" />
        <path class="BUNTAI_WALRUS_OUTFIT_BUNTAI_WALRUS_OUTFIT-47_cls-14" d="M166.19,258.37a23.12,23.12,0,0,1-5.33,16.37" />
        <path class="BUNTAI_WALRUS_OUTFIT_BUNTAI_WALRUS_OUTFIT-47_cls-14" d="M159.32,257.32a9.31,9.31,0,0,1-5.67,6.74" />
        <path class="BUNTAI_WALRUS_OUTFIT_BUNTAI_WALRUS_OUTFIT-47_cls-14" d="M320.44,281.23h0c-.06-.13-.12-.27-.19-.41-.17-.37-.36-.79-.56-1.26a78,78,0,0,1-4.94-15.49h0c-.19-1-.37-2-.51-3.09-1.48-11.08,2.79-22.94,13.6-21.18,9.72,1.59,24.08-9.25,24.28-16.15" />
        <path class="BUNTAI_WALRUS_OUTFIT_BUNTAI_WALRUS_OUTFIT-47_cls-14" d="M333.33,230.41s-7.77,1.61-8.19-5c-.2-3.14,12.64-12.08,16.78-11.68" />
        <path class="BUNTAI_WALRUS_OUTFIT_BUNTAI_WALRUS_OUTFIT-47_cls-14" d="M317,230.26c-.42-.17-10.6-4.57-12.73,0a16.36,16.36,0,0,0-1.7,6.41" />
        <path class="BUNTAI_WALRUS_OUTFIT_BUNTAI_WALRUS_OUTFIT-47_cls-14" d="M317,230.27h0l0,0c-6.79-4.56-7.45-10.83-3.29-15.31v0a14.52,14.52,0,0,1,4.17-3.07,10.75,10.75,0,0,1,1.28-.57c1.93-.7,11-6.93,13.92-7.71l.24-.05" />
        <path class="BUNTAI_WALRUS_OUTFIT_BUNTAI_WALRUS_OUTFIT-47_cls-14" d="M291.26,264.59c1.49-8.29-8.38-18.17-9.37-23.32s4.6-9.61,10.84-8.9a14.93,14.93,0,0,1,2.1.44c6.81,2,18,9.88,17.11,20.09a7.58,7.58,0,0,1-1.51,4.42c-3.54,4.16-12.14-2-15.51-7-4.13-6.15-.08-9.61,4-7.8s3.38,6.92,3.38,6.92" />
        <path class="BUNTAI_WALRUS_OUTFIT_BUNTAI_WALRUS_OUTFIT-47_cls-14" d="M333.23,291.24h0c-.08-.1-.16-.22-.23-.32-1.41-2-2.63-3.86-3.69-5.7v0c-.62-1.07-1.18-2.13-1.69-3.16-.68-1.37-1.28-2.7-1.79-4-4.6-11.57-2.83-20.06-.74-25.15,13.84,6.57,19.54,2,18.41-5.57,6.56.18,19.65-9.16,21.78-11.84" />
        <path class="BUNTAI_WALRUS_OUTFIT_BUNTAI_WALRUS_OUTFIT-47_cls-14" d="M382,293.05c-1.93-3.69-7.13-12.46-13.55-14.09a17.92,17.92,0,0,0-8.83-.16,10.67,10.67,0,0,1-6.78-1.15h0c-6.72-3.09-15.82,3.82-16.39,16.51" />
        <path class="BUNTAI_WALRUS_OUTFIT_BUNTAI_WALRUS_OUTFIT-47_cls-14" d="M329.32,285.2h0c1.87-9.46,9.09-18.51,20-15.89s10.34-.21,20.21.34c8.4.47,13.69,10.7,15.09,13.77" />
        <path class="BUNTAI_WALRUS_OUTFIT_BUNTAI_WALRUS_OUTFIT-47_cls-14" d="M325.83,278c5.37-18.49,23.16-21,30.84-16.64,7.05,4,19-4.44,25.6-5,.61-.05,1.25-.08,1.94-.12A7.82,7.82,0,0,1,388,257v0" />
        <path class="BUNTAI_WALRUS_OUTFIT_BUNTAI_WALRUS_OUTFIT-47_cls-14" d="M394.25,264.18h0a21.52,21.52,0,0,1,.85,2.09h0" />
        <path class="BUNTAI_WALRUS_OUTFIT_BUNTAI_WALRUS_OUTFIT-47_cls-14" d="M362.91,264.05c-1.5-6.72,7.07-19.81,7.19-24.2" />
        <path class="BUNTAI_WALRUS_OUTFIT_BUNTAI_WALRUS_OUTFIT-47_cls-14" d="M377.7,246.9a27.26,27.26,0,0,0,4.57,9.54" />
        <path class="BUNTAI_WALRUS_OUTFIT_BUNTAI_WALRUS_OUTFIT-47_cls-14" d="M320.58,195.21a34.38,34.38,0,0,1-1.47,16.06" />
        <path class="BUNTAI_WALRUS_OUTFIT_BUNTAI_WALRUS_OUTFIT-47_cls-14" d="M313.66,214.93v0a46,46,0,0,0,.33-19.3" />
        <path class="BUNTAI_WALRUS_OUTFIT_BUNTAI_WALRUS_OUTFIT-47_cls-14" d="M279,222.24S274.79,235.73,278,244a81.83,81.83,0,0,1,4.27,16.87" />
        <path class="BUNTAI_WALRUS_OUTFIT_BUNTAI_WALRUS_OUTFIT-47_cls-14" d="M270.56,234.9c-.37,3.24-.36,6.45.53,8.74a47.22,47.22,0,0,1,2.62,14.13h0" />
        <path class="BUNTAI_WALRUS_OUTFIT_BUNTAI_WALRUS_OUTFIT-47_cls-14" d="M294.83,232.81a30.76,30.76,0,0,1-3.44-14" />
        <path class="BUNTAI_WALRUS_OUTFIT_BUNTAI_WALRUS_OUTFIT-47_cls-14" d="M304.26,230.28c-6.74-7.59-4.72-24-4.19-27.56" />
        <path class="BUNTAI_WALRUS_OUTFIT_BUNTAI_WALRUS_OUTFIT-47_cls-14" d="M257.82,249.61c-1.08-1.8.16-8.51,3.84-5.93,3.22,2.27,3.42,9.68,3.42,11.48" />
        <path class="BUNTAI_WALRUS_OUTFIT_BUNTAI_WALRUS_OUTFIT-47_cls-14" d="M359.66,278.8s7.48,13.75,3.15,23.26a65.24,65.24,0,0,0-5,16.43" />
        <path class="BUNTAI_WALRUS_OUTFIT_BUNTAI_WALRUS_OUTFIT-47_cls-14" d="M347.16,305c.12-7.57,7.32-8,8.2-14.37.91-6.52-2.31-12.61-2.48-12.94h0" />
        <path class="BUNTAI_WALRUS_OUTFIT_BUNTAI_WALRUS_OUTFIT-47_cls-14" d="M305.21,258.37a28.64,28.64,0,0,0,4.05,16.37" />
        <path class="BUNTAI_WALRUS_OUTFIT_BUNTAI_WALRUS_OUTFIT-47_cls-14" d="M310.43,257.32s.48,4.56,4.32,6.74" />
        <path class="BUNTAI_WALRUS_OUTFIT_BUNTAI_WALRUS_OUTFIT-47_cls-8" d="M233.7,385.22a4,4,0,0,0-.06-.47,8.9,8.9,0,0,0-.24-1.23c0-.13-.06-.26-.1-.38a16.64,16.64,0,0,0-.6-1.85c0-.14-.11-.29-.17-.43s-.17-.42-.26-.62l-.27-.61c-.12-.26-.24-.51-.37-.76,0-.06,0-.11-.07-.16l-.21-.43h-4.14a2.25,2.25,0,0,1-.52-.07,1.34,1.34,0,0,1-.26-.09l-.21-.12a2.83,2.83,0,0,1-.28-.2,2.13,2.13,0,0,1-.21-.22,1.46,1.46,0,0,1-.17-.24.52.52,0,0,1-.1-.18,2.08,2.08,0,0,1-.21-.59,2,2,0,0,1,0-.88,2.08,2.08,0,0,1,.31-.77,1,1,0,0,1,.24-.31l.14-.14a1.8,1.8,0,0,1,.82-.43l.14,0a1.55,1.55,0,0,1,.31,0h4.13c.22-.43.45-.88.66-1.35.14-.31.29-.64.42-1,.21-.49.4-1,.57-1.51.09-.26.17-.52.24-.77s.15-.51.21-.77h0c.06-.26.11-.51.15-.76a2.63,2.63,0,0,0,.06-.39c0-.13,0-.25,0-.38a7.93,7.93,0,0,0-.11-2.54c0-.17-.08-.33-.13-.49a6.62,6.62,0,0,0-.24-.62,4.62,4.62,0,0,0-.66-1l-.23-.25a5.07,5.07,0,0,0-1.77-1.18l-.3-.11-.57-.16a3,3,0,0,0-.43-.09l-.75-.1q-.4,0-.84,0a9.37,9.37,0,0,0-1.47.11l-.48.09a6.84,6.84,0,0,0-.87.26l-.38.16-.46.24a5.3,5.3,0,0,0-.77.57,4.17,4.17,0,0,0-.36.37h0c-.11.13-.21.25-.3.38a4.54,4.54,0,0,0-.46.78c-1.07,2.26-.39,5.29.69,8-.92-.36-1.88-.71-2.86-1-.65-.19-1.31-.36-2-.49a16.9,16.9,0,0,0-1.95-.27c-.32,0-.63,0-.94,0a7,7,0,0,0-3.8,1,4.89,4.89,0,0,0-.92.74,2.66,2.66,0,0,0-.23.24,1.46,1.46,0,0,0-.16.19c-.06.07-.11.15-.16.22a4.66,4.66,0,0,0-.3.47,4.93,4.93,0,0,0-.35.73,5.81,5.81,0,0,0-.21.63l-.09.35a5.57,5.57,0,0,0-.15.85l0,.3c0,.13,0,.28,0,.42s0,.29,0,.44,0,.3,0,.45,0,.28,0,.41a.31.31,0,0,0,0,.1c0,.13,0,.25,0,.37l0,.18c0,.17.06.34.1.5l.09.34c0,.11.06.22.1.33s.07.2.11.3a4.49,4.49,0,0,0,.35.73l.15.24.15.23a3.43,3.43,0,0,0,.32.41l.23.24a5.33,5.33,0,0,0,.92.74,4.39,4.39,0,0,0,.47.27l.37.17.45.17a7.48,7.48,0,0,0,1,.24l.37,0,.39,0c.26,0,.52,0,.79,0a22,22,0,0,0,7.71-1.81c-1.08,2.69-1.76,5.7-.69,8l.17.32a4.55,4.55,0,0,0,.43.65l.28.32a5,5,0,0,0,1.2.91,5.22,5.22,0,0,0,.79.35l.46.14.29.07h.05l.34.07c.23,0,.46.07.71.09s.45,0,.7,0h.14a8.79,8.79,0,0,0,1.19-.08,7.49,7.49,0,0,0,1-.21,2.29,2.29,0,0,0,.37-.12.64.64,0,0,0,.18-.06l.32-.13.33-.16.28-.16.27-.18a3.15,3.15,0,0,0,.29-.22,3.51,3.51,0,0,0,.4-.37l.23-.25a4.62,4.62,0,0,0,.66-1h0a6.44,6.44,0,0,0,.24-.61s0,0,0,0a6.43,6.43,0,0,0,.26-1.32A8.3,8.3,0,0,0,233.7,385.22Zm-8.1-19.51a.39.39,0,0,1,0-.18.75.75,0,0,1,.05-.16.61.61,0,0,1,.1-.14.63.63,0,0,1,.12-.1l.13-.08a.85.85,0,0,1,.22-.09l.22-.07.22-.05a3.16,3.16,0,0,1,.47-.06l.49,0c1.06,0,1.78.23,2,.61a1.13,1.13,0,0,1,.1.34,2.77,2.77,0,0,1,0,.42,6.12,6.12,0,0,1-.24,1.55c-.06.23-.14.48-.22.74s-.18.51-.28.78a28,28,0,0,1-1.35,2.94l-.23-.42-.11-.22c-.11-.21-.21-.42-.31-.63s-.26-.56-.38-.84a18.2,18.2,0,0,1-.73-2c0-.17-.1-.34-.14-.51A4.43,4.43,0,0,1,225.6,365.71Zm-3.16,10.64-1.06.44c-.54.21-1.07.41-1.6.59l-.53.18-.86.25q-.54.17-1,.27l-.5.1a9.66,9.66,0,0,1-1.32.18l-.49,0a3.24,3.24,0,0,1-1.7-.38c-.17-.12-.65-.44-.65-1.88s.48-1.76.65-1.87a1.92,1.92,0,0,1,.35-.18,2.34,2.34,0,0,1,.4-.12,4.1,4.1,0,0,1,1-.1h.4a9.52,9.52,0,0,1,1.8.26l.49.11.62.17.65.19c.25.08.52.16.78.26,1.06.36,2.14.79,3.19,1.26Zm7.29,10.17a1.13,1.13,0,0,1-.1.34.41.41,0,0,1-.1.13,1.07,1.07,0,0,1-.33.23,2.64,2.64,0,0,1-.81.21,5.54,5.54,0,0,1-.73,0,5.41,5.41,0,0,1-.59,0l-.26,0-.24-.05a2.39,2.39,0,0,1-.45-.14,1.26,1.26,0,0,1-.33-.22.41.41,0,0,1-.1-.13.43.43,0,0,1-.05-.16.39.39,0,0,1,0-.18,3.18,3.18,0,0,1,0-1c0-.09,0-.19,0-.29a3.4,3.4,0,0,1,.07-.34c0-.1.05-.21.08-.32a7.67,7.67,0,0,1,.22-.74,2.79,2.79,0,0,1,.12-.34,3.29,3.29,0,0,1,.16-.44,4.3,4.3,0,0,1,.16-.41,1.89,1.89,0,0,1,.09-.21q.12-.32.27-.63a.93.93,0,0,1,0-.1c.11-.25.23-.5.35-.75s.29-.56.44-.84c.15.28.3.56.43.84l.4.85c.13.28.25.57.36.84s.16.41.23.61a2.69,2.69,0,0,1,.16.45l.08.24a1.53,1.53,0,0,1,.08.26,3.31,3.31,0,0,1,.12.42,2.51,2.51,0,0,1,.1.44,2.79,2.79,0,0,1,.07.38c0,.11,0,.22,0,.32s0,.24,0,.35A2.77,2.77,0,0,1,229.73,386.52Z" />
        <path class="BUNTAI_WALRUS_OUTFIT_BUNTAI_WALRUS_OUTFIT-47_cls-8" d="M269,374a2.16,2.16,0,0,1,0,4.31H227.21a2.16,2.16,0,0,1,0-4.31H269Z" />
        <path class="BUNTAI_WALRUS_OUTFIT_BUNTAI_WALRUS_OUTFIT-47_cls-8" d="M288,375.68c0-.14,0-.29,0-.42l0-.3a5.57,5.57,0,0,0-.15-.85l-.09-.35a5.81,5.81,0,0,0-.21-.63,4.93,4.93,0,0,0-.35-.73,4.66,4.66,0,0,0-.3-.47c-.05-.07-.1-.15-.16-.22a1.46,1.46,0,0,0-.16-.19,2.66,2.66,0,0,0-.23-.24,4.55,4.55,0,0,0-.91-.74l-.31-.18-.32-.16a3.85,3.85,0,0,0-.47-.19,3.8,3.8,0,0,0-.51-.16h0l-.34-.08-.44-.08a4.43,4.43,0,0,0-.51-.06h-.13l-.37,0h-.38c-.31,0-.62,0-.94,0s-.55.05-.83.09l-.41.06c-.24,0-.48.08-.71.12-.65.13-1.31.3-2,.49s-1.13.35-1.67.55-.8.29-1.18.45q.14-.33.24-.66c.07-.18.14-.37.2-.56a5.22,5.22,0,0,0,.18-.56c.06-.19.11-.37.16-.56s.13-.49.18-.74.1-.51.14-.77,0-.25.05-.37,0-.37,0-.56a6.58,6.58,0,0,0-.51-3.18l-.17-.32a5.6,5.6,0,0,0-.44-.65l-.28-.32a2.83,2.83,0,0,0-.25-.24,5.3,5.3,0,0,0-.77-.57l-.46-.24-.38-.16a6.84,6.84,0,0,0-.87-.26l-.48-.09a9.37,9.37,0,0,0-1.47-.11q-.43,0-.84,0l-.75.1a3,3,0,0,0-.43.09l-.57.16-.3.11a5.07,5.07,0,0,0-1.77,1.18l-.23.25a4.62,4.62,0,0,0-.66,1,6.62,6.62,0,0,0-.24.62c-.05.16-.09.32-.13.48s0,.24-.07.36a2.51,2.51,0,0,0,0,.27c0,.15,0,.3,0,.46s0,.3,0,.46,0,.22,0,.34a1.7,1.7,0,0,0,0,.22c0,.28.05.57.09.85s0,.29.07.44l.09.43c.06.25.12.51.19.77.14.52.31,1,.49,1.54a28.17,28.17,0,0,0,1.49,3.31H269a2.08,2.08,0,0,1,2,2.15,2.2,2.2,0,0,1-.59,1.52,2,2,0,0,1-1.43.63h-3.67c-.22.43-.45.88-.66,1.35-.14.31-.29.64-.42,1h0c-.13.33-.26.66-.38,1s-.2.57-.29.85-.19.62-.26.94-.12.47-.17.71a2,2,0,0,0,0,.24c-.05.24-.08.48-.11.72s0,.38-.05.56,0,.37,0,.56a6.28,6.28,0,0,0,.53,2.65,4.62,4.62,0,0,0,.66,1l.23.25a3.51,3.51,0,0,0,.4.37,3.15,3.15,0,0,0,.29.22l.27.18.28.16a4.14,4.14,0,0,0,.83.35,2.29,2.29,0,0,0,.37.12,7.49,7.49,0,0,0,1,.21,8.79,8.79,0,0,0,1.19.08,9.1,9.1,0,0,0,1.21-.08l.53-.09a3.51,3.51,0,0,0,.49-.12l.46-.14a5.22,5.22,0,0,0,.79-.35,5,5,0,0,0,1.2-.91l.28-.32a5.6,5.6,0,0,0,.44-.65l.17-.32a6.64,6.64,0,0,0,.51-3.19c0-.18,0-.37,0-.55s0-.25-.05-.37c-.05-.29-.1-.57-.16-.86s-.14-.58-.22-.87-.15-.54-.24-.8c-.15-.45-.31-.9-.48-1.33a21.93,21.93,0,0,0,7.69,1.81l.78,0q.4,0,.78-.09a7.48,7.48,0,0,0,1-.24,4.7,4.7,0,0,0,.45-.17l.35-.16a5.08,5.08,0,0,0,1.41-1l.23-.24a3.43,3.43,0,0,0,.32-.41l.15-.23.15-.24a4.49,4.49,0,0,0,.35-.73c0-.1.08-.2.11-.3s.07-.22.1-.33l.09-.34c0-.16.07-.33.1-.5l0-.18c0-.12,0-.24,0-.37a.31.31,0,0,0,0-.1c0-.13,0-.27,0-.41s0-.3,0-.45S288,375.82,288,375.68Zm-17-8.54c0,.15-.07.31-.11.47-.08.32-.19.67-.32,1-.06.18-.13.36-.2.55a4.3,4.3,0,0,1-.16.41c-.12.31-.26.62-.41.94s-.23.49-.35.74-.28.57-.43.85h0c-.15-.29-.3-.58-.43-.86l-.21-.42c-.14-.29-.26-.57-.38-.85-.24-.55-.44-1.09-.61-1.59l-.12-.39,0-.1c-.06-.21-.11-.41-.16-.6a3.34,3.34,0,0,1,0-2c.18-.38.92-.61,2-.61a2.79,2.79,0,0,1,1.87.47.61.61,0,0,1,.1.14.56.56,0,0,1,0,.12s0,.05,0,.08a.87.87,0,0,1,.05.28.71.71,0,0,1,0,.15,3.45,3.45,0,0,1,0,.7C271.06,366.84,271,367,271,367.14Zm0,19.57a.43.43,0,0,1-.05.16.41.41,0,0,1-.1.13,1.26,1.26,0,0,1-.33.22,2,2,0,0,1-.51.16,5.19,5.19,0,0,1-1,.09,5.54,5.54,0,0,1-.73,0,2.64,2.64,0,0,1-.81-.21.93.93,0,0,1-.31-.21.44.44,0,0,1-.12-.15,1.88,1.88,0,0,1-.14-.76,3.19,3.19,0,0,1,0-.42c0-.12,0-.25.05-.38a1.77,1.77,0,0,1,0-.2,1.55,1.55,0,0,1,0-.21c0-.14.07-.28.11-.43s.08-.29.13-.44a1.42,1.42,0,0,0,.07-.22,20.43,20.43,0,0,1,.8-2l.3-.63c.1-.21.21-.42.32-.64a3.42,3.42,0,0,1,.21-.43,0,0,0,0,0,0,0c.15.28.3.56.43.84s.24.5.35.75l.05.1q.15.31.27.63a1.89,1.89,0,0,1,.09.21,4.3,4.3,0,0,1,.16.41c.07.19.14.37.2.55a11.16,11.16,0,0,1,.43,1.52l.06.35c0,.12,0,.23,0,.33a3,3,0,0,1,0,.74A.39.39,0,0,1,271,386.71Zm12.3-8.72a1.59,1.59,0,0,1-.32.16,1.69,1.69,0,0,1-.34.11l-.19,0a.69.69,0,0,1-.2,0,5.72,5.72,0,0,1-1.11,0,11,11,0,0,1-1.5-.21l-.35-.07-.88-.22-1-.31c-.35-.1-.71-.23-1.06-.36l-1.07-.4c-.53-.21-1.07-.44-1.59-.67,1.05-.47,2.14-.9,3.2-1.26.26-.1.52-.18.78-.26l.9-.26.86-.21a9.54,9.54,0,0,1,1.79-.26h.4a4.1,4.1,0,0,1,1,.1,2.34,2.34,0,0,1,.4.12,1.83,1.83,0,0,1,.34.18c.18.11.66.42.66,1.87S283.52,377.88,283.34,378Z" />
        <path class="BUNTAI_WALRUS_OUTFIT_BUNTAI_WALRUS_OUTFIT-47_cls-11" d="M225.7,365.37c.18-.38.91-.61,2-.61s1.77.23,2,.61c.52,1.1-.49,4-2,6.78C226.18,369.37,225.19,366.47,225.7,365.37Z" />
        <path class="BUNTAI_WALRUS_OUTFIT_BUNTAI_WALRUS_OUTFIT-47_cls-11" d="M213.33,378c-.17-.12-.65-.44-.65-1.88s.48-1.76.65-1.87a3.12,3.12,0,0,1,1.71-.39c2.07,0,5.14,1,7.93,2.26C219.23,377.79,215,379,213.33,378Z" />
        <path class="BUNTAI_WALRUS_OUTFIT_BUNTAI_WALRUS_OUTFIT-47_cls-11" d="M229.63,386.86c-.19.37-.91.61-2,.61s-1.79-.24-2-.6c-.51-1.09.49-4,2-6.78C229.14,382.86,230.15,385.76,229.63,386.86Z" />
        <path class="BUNTAI_WALRUS_OUTFIT_BUNTAI_WALRUS_OUTFIT-47_cls-11" d="M231.34,378.28c1.63,3.11,3.3,7.5,1.88,10.54-.64,1.35-2.13,3-5.55,3s-4.92-1.62-5.56-3c-1.07-2.26-.39-5.28.69-8a22,22,0,0,1-7.71,1.81,6.88,6.88,0,0,1-3.8-1c-1.21-.76-2.63-2.34-2.63-5.57s1.42-4.83,2.63-5.58c2.92-1.87,7.66-.69,11.51.84-1.08-2.67-1.76-5.7-.69-8,.64-1.36,2.13-3,5.56-3s4.91,1.61,5.55,3c1.43,3-.27,7.45-1.88,10.55" />
        <path class="BUNTAI_WALRUS_OUTFIT_BUNTAI_WALRUS_OUTFIT-47_cls-11" d="M269,372.15c-1.49-2.78-2.48-5.68-2-6.78.17-.38.91-.61,2-.61s1.78.23,2,.61C271.5,366.47,270.49,369.37,269,372.15Z" />
        <path class="BUNTAI_WALRUS_OUTFIT_BUNTAI_WALRUS_OUTFIT-47_cls-11" d="M273.71,376.12c2.8-1.25,5.86-2.26,7.93-2.26a3.06,3.06,0,0,1,1.7.39c.19.11.67.42.67,1.87s-.48,1.76-.67,1.87C281.7,379,277.46,377.79,273.71,376.12Z" />
        <path class="BUNTAI_WALRUS_OUTFIT_BUNTAI_WALRUS_OUTFIT-47_cls-11" d="M269,380.09c1.47,2.77,2.48,5.69,2,6.78-.19.36-.92.6-2,.6s-1.79-.24-2-.61C266.54,385.76,267.53,382.86,269,380.09Z" />
        <path class="BUNTAI_WALRUS_OUTFIT_BUNTAI_WALRUS_OUTFIT-47_cls-11" d="M265.36,374c-1.63-3.1-3.32-7.51-1.9-10.55.65-1.36,2.13-3,5.56-3s4.91,1.61,5.56,3c1.05,2.26.38,5.29-.69,8,3.83-1.53,8.58-2.71,11.51-.84,1.2.75,2.63,2.36,2.63,5.58s-1.43,4.81-2.63,5.57a7,7,0,0,1-3.82,1,21.88,21.88,0,0,1-7.69-1.81c1.07,2.69,1.74,5.71.69,8-.65,1.35-2.13,3-5.56,3s-4.91-1.62-5.56-3c-1.41-3,.26-7.43,1.89-10.54" />
        <path class="BUNTAI_WALRUS_OUTFIT_BUNTAI_WALRUS_OUTFIT-47_cls-11" d="M265.36,374H269a2.16,2.16,0,0,1,0,4.31H227.21a2.16,2.16,0,0,1,0-4.31h38.15Z" />
        <g class="BUNTAI_WALRUS_OUTFIT_BUNTAI_WALRUS_OUTFIT-47_cls-15">
          <path d="M183.52,417S208.37,404.93,245,404.6s71.7-5.31,73.12-5.9,18.35-5.26,18.35-5.26-18,12.63-40.1,14.66-47-1.2-71.6,5.82-61.15,9.37-61.15,9.37Z" />
          <path d="M174.8,410.41A484,484,0,0,1,223,400.73c23.25-3.2,50.74-6.12,50.74-6.12s-48.1,0-65,4.09A223,223,0,0,0,174.8,410.41Z" />
          <path d="M248.1,443.71h-.23c-3.74-.07-8.26.09-13.33.42l-.42,0c-10.44.67-23.17,2.05-36.48,3.61l-.51.06c-9.28,1.11-18.81,2.29-28,3.43H169A86.28,86.28,0,0,1,138,449l-.09,0h0a115.2,115.2,0,0,1-23.15-8.51h0c-1.83-.9-2.82-1.48-2.82-1.48H74.18s-1.33-18.06-1.33-28.53c0-10.11,4.14-29.93,4.41-31.23v0h0v0h0v0L64.4,353.36l6,5,3.79,3.17c-2.81-13.62-1.61-32.19-1.61-32.19l1.61,10.24s0,.06,0,.08v.11c.62,3.84,1.46,9.07,2.61,16.27v0l.66,4.13h0v-.06a.43.43,0,0,1,0-.05,1,1,0,0,0,0-.17,1.15,1.15,0,0,1,0-.16.57.57,0,0,1,0-.13s0-.08,0-.13c0-.25,0-.5.08-.75,0,0,0-.07,0-.11s0-.08,0-.12v-.09s0,0,0-.06h0a.06.06,0,0,1,0,0,2.33,2.33,0,0,1,.06-.35h0c.38-2.56,1.15-6.14,2.11-10.22a0,0,0,0,0,0,0,.64.64,0,0,1,0-.07s0,0,0,0v-.05s0,0,0,0h0c1.31-5.61,3-12.09,4.65-18.1l0-.05a.43.43,0,0,1,0-.05,0,0,0,0,0,0,0,.06.06,0,0,1,0,0h0c2.87-10.71,5.49-19.86,5.26-19.62-7.78,8.23-8,22.53-8,22.53l0,0c-.33-.76-5.78-13.14-7.66-12.63S59.36,305.49,43,322C26.9,338.3,5.83,365.61,5,366.87c.6-1.48,1.25-3.11,1.85-4.9,2.49-7.24,8.17-32.68,15.63-51.82a4.87,4.87,0,0,1,.21-.53c.07-.19.14-.38.22-.56.13-.34.27-.67.4-1s.27-.66.4-1l.21-.49c.2-.49.4-1,.61-1.44.27-.63.55-1.25.83-1.86s.56-1.21.84-1.79c.93-1.92,1.89-3.81,2.87-5.63,7.34-12.6.55-27.17,14.21-40.08l.19-.2c.61-.64,1.31-1.35,2.09-2.11l0,0c8.86-7.25,16.62-13.6,23.46-19.3l5.48-4.58c.87.8,1.76,1.57,2.67,2.33,0,0,0,0,0,0,15.59,13,50.28,30.69,65.49,34.87,3.36.92,6.5,1.7,9.32,2.36h0c4.69,1.09,8.48,1.86,11,2.45h0a19.55,19.55,0,0,1,2.92.85h0a1.13,1.13,0,0,1,.27.14c3.74,2.48,36.61-7.33,40.27-8.44l-10,3.4h0l-.06,0h0l-.07,0a.49.49,0,0,0-.16.05l-.16.05c-9.11,3.11-21.79,7.51-29,10.37-.54.21-1.06.45-1.6.65h0l-.15.06-.18.07-.1.05a2,2,0,0,0-.22.09l0,0-.5.22c-2.75,1.17-5.46,2.44-8,3.71l-.62.3c-.91.45-1.79.89-2.63,1.33l-.73.38-.22.11-1.33.7-1.32.71-.79.42-.14.07h0l-.33.17-.15.08-.18.1-.72.4-.23.13-.22.13h0l-.49.28-.24.13c-.6.34-1.13.63-1.57.9l-.58.33c-.26.14-.48.28-.65.38l-.35.2-.19.11,0,0h0l.16,2.86v.24l0,.67h0l1.59-.14h0l7.54-.63h0a24.91,24.91,0,0,1,4.1,5.95,36.89,36.89,0,0,1,1.74,3.78h0c1.35,0,2.38.07,3.21.15h0c1.9.18,2.71.53,3.41,1.34l0,0c.9,1.06,1.65,2.88,4.28,6v0a9.12,9.12,0,0,0,.54,5.07h0a3.83,3.83,0,0,0,2,1.92h0a6.68,6.68,0,0,0,3.81.16l-8.93,4.57a4.27,4.27,0,0,0-.64.16h0c-13.41,3.52-46,35.41-40.55,69.32C130.51,426.36,168.53,433.82,248.1,443.71Z" />
          <path d="M11,380.09s-2.18,10.42,7.36,26.81A87.9,87.9,0,0,0,41.5,432.66s-9.81-17.27-13.08-24.3a73,73,0,0,1-3.82-9.07s12.54,19,16.9,21.07l4.36,2.08s-7.48-13.28-11.77-18.59S11,380.09,11,380.09Z" />
          <path d="M397,438.23l-58.9.15-.32.23c-16.78,7-28.37,8.1-41.45,7.53h0s34-16.48,48.88-34.69,25.55-51,25.55-51-7.09-21.93-15.22-35.92l-.11-.18c-1.72-6.09-7.44-16.21-10.73-21.76,0,0,0,0,0,0-.19-.32-.37-.64-.55-.93-1-1.62-1.65-2.7-1.79-2.94l4.87,6.06,2.22,2.77,5.07,6.32,3.42,4.27.12.14h0l2.55,3.18,2.18,2,3.1,2.82,4.27,21.09L375,323.85l1.64,12.3c1.06,8-.73,23.15-2.08,32.68-.69,4.81-1.28,8.19-1.34,8.56.05-.26.66-2.79,2.95-9.9,1.71-5.3,4.37-13.14,8.41-24.47.94,10.64-2.16,23.89-2.5,25.31.69-2.14,10.13-31.83,10.92-51.44,6.13,24.21-5.53,61.19-6.93,73.7C384.83,401.87,395,431.57,397,438.23Z" />
          <path d="M315.76,278s13.55,6,35.28,8.56,34.11-6,34.11-6-5,29-19.31,45.66l-9.22-9.42S336.48,289.72,315.76,278Z" />
        </g>
        <path class="BUNTAI_WALRUS_OUTFIT_BUNTAI_WALRUS_OUTFIT-47_cls-10" d="M118.69,187.31l0,0,0,0a59,59,0,0,1,10.15-6.93c1.51-.83,3.08-1.66,4.86-2.67a35.27,35.27,0,0,0,3.28-2.1,34.28,34.28,0,0,0,4.07-3.39" />
        <polyline class="BUNTAI_WALRUS_OUTFIT_BUNTAI_WALRUS_OUTFIT-47_cls-10" points="324.34 192.11 321.91 187.78 318.8 182.23" />
      </g>
    </g>
  </g>
</svg>