<svg id="jewelries" xmlns="http://www.w3.org/2000/svg" viewBox="0 0 432 432">
  <defs>
    <style>.BUNTAI_WOLF_JEWELRY_WOLF_JEWELRY_4_cls-1{fill:#e2cb6e;}.BUNTAI_WOLF_JEWELRY_WOLF_JEWELRY_4_cls-1,.BUNTAI_WOLF_JEWELRY_WOLF_JEWELRY_4_cls-2,.BUNTAI_WOLF_JEWELRY_WOLF_JEWELRY_4_cls-3,.BUNTAI_WOLF_JEWELRY_WOLF_JEWELRY_4_cls-6,.BUNTAI_WOLF_JEWELRY_WOLF_JEWELRY_4_cls-7{stroke:#000;}.BUNTAI_WOLF_JEWELRY_WOLF_JEWELRY_4_cls-1,.BUNTAI_WOLF_JEWELRY_WOLF_JEWELRY_4_cls-2,.BUNTAI_WOLF_JEWELRY_WOLF_JEWELRY_4_cls-3,.BUNTAI_WOLF_JEWELRY_WOLF_JEWELRY_4_cls-6{stroke-linecap:round;stroke-linejoin:round;}.BUNTAI_WOLF_JEWELRY_WOLF_JEWELRY_4_cls-1,.BUNTAI_WOLF_JEWELRY_WOLF_JEWELRY_4_cls-2{stroke-width:1.38px;}.BUNTAI_WOLF_JEWELRY_WOLF_JEWELRY_4_cls-2,.BUNTAI_WOLF_JEWELRY_WOLF_JEWELRY_4_cls-3,.BUNTAI_WOLF_JEWELRY_WOLF_JEWELRY_4_cls-6{fill:none;}.BUNTAI_WOLF_JEWELRY_WOLF_JEWELRY_4_cls-3{stroke-width:1.57px;}.BUNTAI_WOLF_JEWELRY_WOLF_JEWELRY_4_cls-4{fill:#c0c380;}.BUNTAI_WOLF_JEWELRY_WOLF_JEWELRY_4_cls-5{fill:#057948;}.BUNTAI_WOLF_JEWELRY_WOLF_JEWELRY_4_cls-6{stroke-width:1.16px;}.BUNTAI_WOLF_JEWELRY_WOLF_JEWELRY_4_cls-7{fill:#ad7d2f;stroke-miterlimit:10;stroke-width:1.49px;}</style>
  </defs>
  <path class="BUNTAI_WOLF_JEWELRY_WOLF_JEWELRY_4_cls-1" d="M167.29,111.25a7,7,0,0,1-3.13,4.46c-5.44,3.53-12.69,2.39-12.72-4.56,0-8.44,5.77-11.91,5.77-11.91s-.55.94-.74,4.22c-1.18.84-2.45,2.53-2.27,7.43s7.91,3.59,9.07.07c0-.13.08-.26.11-.4a6.88,6.88,0,0,0-2.37-6.85,5.52,5.52,0,0,1,1.52-2.18C166.44,104.32,168,108.09,167.29,111.25Z" />
  <path class="BUNTAI_WOLF_JEWELRY_WOLF_JEWELRY_4_cls-2" d="M161.46,108.67a5.61,5.61,0,0,1,1.07-7.14,3.57,3.57,0,0,1,5.1.81" />
  <path class="BUNTAI_WOLF_JEWELRY_WOLF_JEWELRY_4_cls-1" d="M318.2,111.25a7,7,0,0,0,3.14,4.46c5.43,3.53,12.69,2.39,12.72-4.56,0-8.44-5.78-11.91-5.78-11.91s.55.94.74,4.22c1.19.84,2.46,2.53,2.27,7.43s-7.91,3.59-9.06.07a2.64,2.64,0,0,1-.12-.4,6.87,6.87,0,0,1,2.38-6.85,5.65,5.65,0,0,0-1.53-2.18C319.05,104.32,317.52,108.09,318.2,111.25Z" />
  <path class="BUNTAI_WOLF_JEWELRY_WOLF_JEWELRY_4_cls-2" d="M324,108.67a5.56,5.56,0,0,0,.71-1.76,5.57,5.57,0,0,0-1.78-5.38,3.57,3.57,0,0,0-5.1.81" />
  <line class="BUNTAI_WOLF_JEWELRY_WOLF_JEWELRY_4_cls-3" x1="240.36" y1="363.94" x2="240.36" y2="368.53" />
  <path class="BUNTAI_WOLF_JEWELRY_WOLF_JEWELRY_4_cls-4" d="M258.05,403.67a9.66,9.66,0,0,1-2.16,5.69s-.57.28-1.5.71h0L245,416.37a21,21,0,0,0-4.32,4.69,20.6,20.6,0,0,0-4.33-4.69l-9.34-6.3c-.93-.43-1.5-.71-1.5-.71a9.66,9.66,0,0,1-2.16-5.69,16.21,16.21,0,0,0,2.08,1.35,11,11,0,0,1-1.72-6.31,18.86,18.86,0,0,1,1.74-7.91c1.14-2,4.84-6.56,5.19-8.79-1.66-2-2.26-4.91.95-4.91a3.57,3.57,0,0,1,3.76,2.6h-1.87s-.65-.8-1.27-.48.26,1,.79,2.27-.29,3.07-1.41,4.51a26.44,26.44,0,0,1,6.05-4.41v-2.47s-2-5.65-2.43-7.86,1.14-2.73,1.14-2.73H245s1.57.51,1.15,2.73-2.42,7.86-2.42,7.86v2.47a26.34,26.34,0,0,1,6,4.41c-1.11-1.44-1.92-3.23-1.4-4.51s1.4-1.94.78-2.27-1.27.48-1.27.48H246a3.57,3.57,0,0,1,3.76-2.6c3.23,0,2.61,2.89,1,4.91.36,2.23,4.05,6.78,5.18,8.79s3.32,9.5,0,14.22A16.8,16.8,0,0,0,258.05,403.67Z" />
  <path class="BUNTAI_WOLF_JEWELRY_WOLF_JEWELRY_4_cls-5" d="M240.2,386.23s-8.92,2.81-10.13,9.61,3.16,13.4,10,13.4,9.82-3.43,10.15-4.57-.53,1.66.57-3.25,1.18-6.93-2.25-10.57A17.36,17.36,0,0,0,240.2,386.23Z" />
  <path class="BUNTAI_WOLF_JEWELRY_WOLF_JEWELRY_4_cls-6" d="M245.36,408.71h0c4.1-1.72,6.53-5.88,6.53-11.47,0-7.46-11.18-11.58-11.18-11.58s-11.18,4.12-11.18,11.58c0,5.59,2.43,9.75,6.53,11.47h0" />
  <path class="BUNTAI_WOLF_JEWELRY_WOLF_JEWELRY_4_cls-6" d="M236.08,408.71a12,12,0,0,0,4.64.88" />
  <path class="BUNTAI_WOLF_JEWELRY_WOLF_JEWELRY_4_cls-6" d="M251.38,406.94c.34-.54,1.73-3.11,1.73-10,0-7.82-12.39-15.17-12.39-15.17s-12.4,7.35-12.4,15.17c0,6.89,1.4,9.46,1.74,10-4.74-6-4.42-12.38-1.31-17.38a19.31,19.31,0,0,1,2.88-3.56,26.44,26.44,0,0,1,6.05-4.41v-2.47s-2-5.65-2.43-7.86,1.14-2.73,1.14-2.73H245s1.57.51,1.15,2.73-2.42,7.86-2.42,7.86v2.47a26.34,26.34,0,0,1,6,4.41,19.77,19.77,0,0,1,2.89,3.56C255.8,394.56,256.13,400.94,251.38,406.94Z" />
  <path class="BUNTAI_WOLF_JEWELRY_WOLF_JEWELRY_4_cls-6" d="M230.11,407v0h0a56.75,56.75,0,0,0,5.94,1.66" />
  <path class="BUNTAI_WOLF_JEWELRY_WOLF_JEWELRY_4_cls-6" d="M231.63,386c1.12-1.44,1.94-3.23,1.41-4.51s-1.41-1.94-.79-2.27,1.27.48,1.27.48h1.87a3.57,3.57,0,0,0-3.76-2.6c-3.21,0-2.61,2.89-.95,4.91-.35,2.23-4.05,6.78-5.19,8.79a18.86,18.86,0,0,0-1.74,7.91,11,11,0,0,0,1.72,6.31c.17.26.37.5.57.75" />
  <path class="BUNTAI_WOLF_JEWELRY_WOLF_JEWELRY_4_cls-6" d="M236.08,408.7h0a55.87,55.87,0,0,1-5.94-1.67,29.74,29.74,0,0,1-4.66-2,16.21,16.21,0,0,1-2.08-1.35,9.66,9.66,0,0,0,2.16,5.69s.57.28,1.5.71c3,1.41,9.9,4.4,13.67,4.4v-4.89" />
  <path class="BUNTAI_WOLF_JEWELRY_WOLF_JEWELRY_4_cls-6" d="M227.05,410.07l9.34,6.3a20.6,20.6,0,0,1,4.33,4.69v-6.59" />
  <path class="BUNTAI_WOLF_JEWELRY_WOLF_JEWELRY_4_cls-6" d="M240.72,409.59a12,12,0,0,0,4.64-.88" />
  <path class="BUNTAI_WOLF_JEWELRY_WOLF_JEWELRY_4_cls-6" d="M251.31,407h0l0,0" />
  <path class="BUNTAI_WOLF_JEWELRY_WOLF_JEWELRY_4_cls-6" d="M256,405h0c3.28-4.72,1-12.32,0-14.22s-4.82-6.56-5.18-8.79c1.65-2,2.27-4.91-1-4.91a3.57,3.57,0,0,0-3.76,2.6h1.87s.67-.8,1.27-.48-.26,1-.78,2.27.29,3.07,1.4,4.51" />
  <path class="BUNTAI_WOLF_JEWELRY_WOLF_JEWELRY_4_cls-6" d="M240.72,409.58v4.89a23.6,23.6,0,0,0,7.12-1.68c2.55-.91,5-2,6.53-2.71h0c.93-.43,1.5-.71,1.5-.71a9.66,9.66,0,0,0,2.16-5.69A16.8,16.8,0,0,1,256,405h0a29.11,29.11,0,0,1-4.64,2h0a54,54,0,0,1-5.94,1.67" />
  <path class="BUNTAI_WOLF_JEWELRY_WOLF_JEWELRY_4_cls-6" d="M240.72,414.47v6.59a21,21,0,0,1,4.32-4.69l9.33-6.29h0" />
  <path class="BUNTAI_WOLF_JEWELRY_WOLF_JEWELRY_4_cls-7" d="M243.94,364.66c-66.9,0-108.22-67.41-109.72-70.54-5.33-9.83,4.26-11,8.34-7.07-1.26.83-1.54,1.31-3.59,2.82,9.12,13.53,50.37,69.62,106.8,69.62.76,0,1.51,0,2.27,0,11.72-.31,22.06-3.72,30.73-10.15,20.35-15.1,32.21-50.84,33.59-56.72a38.82,38.82,0,0,0-3.78-2.16c5.11-4.48,10.43-1.75,9.56,5.13-.17,1.39-10.77,38.57-35.66,57-10.29,7.63-22.41,11.68-36,12Z" />
</svg>