<svg id="jewelries" xmlns="http://www.w3.org/2000/svg" viewBox="0 0 432 432">
  <defs>
    <style>.BUNTAI_WOLF_JEWELRY_WOLF_JEWELRY_15_cls-1{fill:#e2cb6e;}.BUNTAI_WOLF_JEWELRY_WOLF_JEWELRY_15_cls-1,.BUNTAI_WOLF_JEWELRY_WOLF_JEWELRY_15_cls-2,.BUNTAI_WOLF_JEWELRY_WOLF_JEWELRY_15_cls-3,.BUNTAI_WOLF_JEWELRY_WOLF_JEWELRY_15_cls-8,.BUNTAI_WOLF_JEWELRY_WOLF_JEWELRY_15_cls-9{stroke:#000;}.BUNTAI_WOLF_JEWELRY_WOLF_JEWELRY_15_cls-1,.BUNTAI_WOLF_JEWELRY_WOLF_JEWELRY_15_cls-2,.BUNTAI_WOLF_JEWELRY_WOLF_JEWELRY_15_cls-8{stroke-linecap:round;stroke-linejoin:round;}.BUNTAI_WOLF_JEWELRY_WOLF_JEWELRY_15_cls-1,.BUNTAI_WOLF_JEWELRY_WOLF_JEWELRY_15_cls-2{stroke-width:1.38px;}.BUNTAI_WOLF_JEWELRY_WOLF_JEWELRY_15_cls-2,.BUNTAI_WOLF_JEWELRY_WOLF_JEWELRY_15_cls-8,.BUNTAI_WOLF_JEWELRY_WOLF_JEWELRY_15_cls-9{fill:none;}.BUNTAI_WOLF_JEWELRY_WOLF_JEWELRY_15_cls-3{fill:#754c24;stroke-width:0.95px;}.BUNTAI_WOLF_JEWELRY_WOLF_JEWELRY_15_cls-3,.BUNTAI_WOLF_JEWELRY_WOLF_JEWELRY_15_cls-9{stroke-miterlimit:10;}.BUNTAI_WOLF_JEWELRY_WOLF_JEWELRY_15_cls-4{fill:#4d4d4d;}.BUNTAI_WOLF_JEWELRY_WOLF_JEWELRY_15_cls-5{fill:#333;}.BUNTAI_WOLF_JEWELRY_WOLF_JEWELRY_15_cls-6{fill:#8c6239;}.BUNTAI_WOLF_JEWELRY_WOLF_JEWELRY_15_cls-7{fill:#006837;}.BUNTAI_WOLF_JEWELRY_WOLF_JEWELRY_15_cls-8,.BUNTAI_WOLF_JEWELRY_WOLF_JEWELRY_15_cls-9{stroke-width:0.71px;}</style>
  </defs>
  <path class="BUNTAI_WOLF_JEWELRY_WOLF_JEWELRY_15_cls-1" d="M163,108.49a7,7,0,0,1-3.14,4.46c-5.44,3.53-12.69,2.39-12.72-4.56,0-8.43,5.77-11.91,5.77-11.91s-.55.94-.74,4.23c-1.18.83-2.45,2.52-2.27,7.42s7.91,3.59,9.07.08l.12-.41A6.87,6.87,0,0,0,156.7,101a5.48,5.48,0,0,1,1.53-2.19C162.13,101.57,163.66,105.33,163,108.49Z" />
  <path class="BUNTAI_WOLF_JEWELRY_WOLF_JEWELRY_15_cls-2" d="M157.15,105.92a5.67,5.67,0,0,1-.45-5,5.48,5.48,0,0,1,1.53-2.19,3.58,3.58,0,0,1,5.1.81" />
  <path class="BUNTAI_WOLF_JEWELRY_WOLF_JEWELRY_15_cls-3" d="M312.11,284.7a0,0,0,0,0,0,0c-9.8,21.86-34.07,57.54-79.21,72.75a1.44,1.44,0,0,1-.51.08,2.28,2.28,0,0,1-.36,0c-43.87-10.18-64.64-35.52-75.19-58.36a141.37,141.37,0,0,1-7.38-19.88c-.9-2.41-.33-6,4.88-3.34a13.5,13.5,0,0,0-2.14,1.77,138.07,138.07,0,0,0,7.49,20.36c10.24,22.11,30.31,46.51,72.62,56.49,43.72-14.87,67.39-49.66,76.93-70.88,0,0-2.58-2.08-3.12-2.38.53-.65,2.43-2.23,5.6,0C312.73,282,312.3,284.18,312.11,284.7Z" />
  <path class="BUNTAI_WOLF_JEWELRY_WOLF_JEWELRY_15_cls-4" d="M239.79,379.1c2,1.74,3.58,10.23-4.4,11.31s-12.13-7.12-7.46-14.09c4.54-6.75,13.31-3.7,13.86-3.5-3.68-.93-8.85-.79-12.48,4.5-5.24,7.61,4.88,12.67,7.75,8.77s-.71-7.9-5.34-8.43C234.06,376.26,237.75,377.37,239.79,379.1Z" />
  <path class="BUNTAI_WOLF_JEWELRY_WOLF_JEWELRY_15_cls-5" d="M248.88,381.7c-.55-5.92-9.61-12-17.16-4,2.34-1.4,6-.29,8.07,1.44s3.58,10.23-4.4,11.31-12.13-7.12-7.46-14.09c4.54-6.75,13.31-3.7,13.86-3.5h0a13.9,13.9,0,0,1,3.7,1.5s-.9-7.05-12-7.79c-.6,0-1.24-.06-1.91-.06h-.68c-12.38.47-17.07,13.63-13.51,21.91,3.62,8.43,13.94,11.46,21.44,9.15S249.44,387.63,248.88,381.7Z" />
  <path class="BUNTAI_WOLF_JEWELRY_WOLF_JEWELRY_15_cls-6" d="M233.54,359.42v7.07a.07.07,0,0,1,0,.05c-.6,0-1.24-.06-1.91-.06h-.68v-7.07a.89.89,0,0,1,0-.22,3.53,3.53,0,0,0,1.27.22,3.86,3.86,0,0,0,1.28-.21A1.49,1.49,0,0,1,233.54,359.42Z" />
  <path class="BUNTAI_WOLF_JEWELRY_WOLF_JEWELRY_15_cls-7" d="M232.24,352.41a3.59,3.59,0,0,1,3.67,3.5,3.54,3.54,0,0,1-2.39,3.3,3.86,3.86,0,0,1-1.28.21,3.64,3.64,0,0,1-3.66-3.51A3.59,3.59,0,0,1,232.24,352.41Z" />
  <path class="BUNTAI_WOLF_JEWELRY_WOLF_JEWELRY_15_cls-8" d="M241.81,372.83a13.9,13.9,0,0,1,3.7,1.5s-.9-7.05-12-7.79c-.6,0-1.24-.06-1.91-.06h-.68c-12.38.47-17.07,13.63-13.51,21.91,3.62,8.43,13.94,11.46,21.44,9.15s10.57-9.92,10-15.85-9.61-12-17.16-4c4.63.53,8.21,4.52,5.34,8.43s-13-1.16-7.75-8.77c3.63-5.29,8.8-5.43,12.48-4.5" />
  <path class="BUNTAI_WOLF_JEWELRY_WOLF_JEWELRY_15_cls-8" d="M243.07,371.81h0" />
  <path class="BUNTAI_WOLF_JEWELRY_WOLF_JEWELRY_15_cls-8" d="M235.39,367.92a9.38,9.38,0,0,1,.15,3,25,25,0,0,1,7.52.84A10.85,10.85,0,0,0,235.39,367.92Z" />
  <path class="BUNTAI_WOLF_JEWELRY_WOLF_JEWELRY_15_cls-8" d="M229.23,368.31s-5.56,2.43-6.92,5.45a16.79,16.79,0,0,1,4.3,2.26l2.12-2.55a22.35,22.35,0,0,0-3-2l-1.07,1.25a7.76,7.76,0,0,1,2,1.08" />
  <path class="BUNTAI_WOLF_JEWELRY_WOLF_JEWELRY_15_cls-8" d="M221.4,380.9l1.67.19v3.57h-3.3s.1-4.87.58-5.89a29.83,29.83,0,0,1,4.43.6s-.38,6.09,0,7.42c-4.53,1.42-6.17.48-6.17.48S217.3,380.33,220,376a19.91,19.91,0,0,1,5.89,2" />
  <path class="BUNTAI_WOLF_JEWELRY_WOLF_JEWELRY_15_cls-8" d="M241.81,372.83h0c-.55-.2-9.32-3.25-13.86,3.5-4.67,7-.52,15.17,7.46,14.09s6.44-9.57,4.4-11.31-5.73-2.84-8.07-1.44" />
  <path class="BUNTAI_WOLF_JEWELRY_WOLF_JEWELRY_15_cls-8" d="M225.26,387.57a13.63,13.63,0,0,1-5.17,2.31C226,395.22,231,396,231,396l2.08-3.75s-4.95-1.59-6.5-3.33c-1.88,1.2-2.15,1.71-2.15,1.71a26.68,26.68,0,0,0,4.53,2.95c1-1,1-1.22,1-1.22" />
  <path class="BUNTAI_WOLF_JEWELRY_WOLF_JEWELRY_15_cls-8" d="M234.47,391.77a41.65,41.65,0,0,1-.72,4.36,9.58,9.58,0,0,0,7-2.18,11.24,11.24,0,0,0-1.21-2.68A50,50,0,0,1,234.47,391.77Z" />
  <path class="BUNTAI_WOLF_JEWELRY_WOLF_JEWELRY_15_cls-8" d="M242.56,379.92s-2.23-2.77-5.2-3.25a8.43,8.43,0,0,1,6.72.43A14.05,14.05,0,0,0,242.56,379.92Z" />
  <path class="BUNTAI_WOLF_JEWELRY_WOLF_JEWELRY_15_cls-8" d="M245.94,378.77s-2.68,1.81-3.32,3.75c0,2.6-.22,4.1-.82,5.37a8,8,0,0,1-1.08,1.65,14.23,14.23,0,0,1,2.61,3.15s5.06-3.45,3.59-11.06a5.43,5.43,0,0,0-3,.89s-.26,4.29-1.06,5.61a.76.76,0,0,0-.08.11,10.92,10.92,0,0,0,1.58,1" />
  <path class="BUNTAI_WOLF_JEWELRY_WOLF_JEWELRY_15_cls-8" d="M231,359.2a3.51,3.51,0,0,1-2.39-3.29,3.67,3.67,0,0,1,7.33,0,3.54,3.54,0,0,1-2.39,3.3,3.86,3.86,0,0,1-1.28.21A3.53,3.53,0,0,1,231,359.2Z" />
  <path class="BUNTAI_WOLF_JEWELRY_WOLF_JEWELRY_15_cls-9" d="M230.94,366.49h0v-7.07a.89.89,0,0,1,0-.22" />
  <path class="BUNTAI_WOLF_JEWELRY_WOLF_JEWELRY_15_cls-9" d="M233.52,359.21a1.49,1.49,0,0,1,0,.21v7.07a.07.07,0,0,1,0,.05" />
</svg>