<svg id="jewelries" xmlns="http://www.w3.org/2000/svg" viewBox="0 0 432 432">
  <defs>
    <style>.BUNTAI_WOLF_JEWELRY_WOLF_JEWELRY_6_cls-1{fill:#c7a858;}.BUNTAI_WOLF_JEWELRY_WOLF_JEWELRY_6_cls-2{fill:#fff;}.BUNTAI_WOLF_JEWELRY_WOLF_JEWELRY_6_cls-3{fill:#c74c58;}.BUNTAI_WOLF_JEWELRY_WOLF_JEWELRY_6_cls-4,.BUNTAI_WOLF_JEWELRY_WOLF_JEWELRY_6_cls-5{fill:none;stroke:#000;stroke-width:1.26px;}.BUNTAI_WOLF_JEWELRY_WOLF_JEWELRY_6_cls-4{stroke-linecap:round;stroke-linejoin:round;}.BUNTAI_WOLF_JEWELRY_WOLF_JEWELRY_6_cls-5{stroke-miterlimit:10;}</style>
  </defs>
  <path class="BUNTAI_WOLF_JEWELRY_WOLF_JEWELRY_6_cls-1" d="M166,143.49a1.24,1.24,0,1,1,0,2.47h-6.7v-.39a1.22,1.22,0,0,0,1.23-1.23v-.85Z" />
  <polygon class="BUNTAI_WOLF_JEWELRY_WOLF_JEWELRY_6_cls-2" points="159.29 145.96 161.76 145.96 161.76 167.84 159.29 174.01 156.83 167.84 156.83 145.96 159.29 145.96" />
  <path class="BUNTAI_WOLF_JEWELRY_WOLF_JEWELRY_6_cls-3" d="M159.29,132.88a1.23,1.23,0,0,1,1.23,1.24v10.22a1.23,1.23,0,0,1-2.46,0V134.12A1.24,1.24,0,0,1,159.29,132.88Z" />
  <path class="BUNTAI_WOLF_JEWELRY_WOLF_JEWELRY_6_cls-1" d="M159.29,145.57V146h-6.7a1.24,1.24,0,0,1,0-2.47h5.47v.85A1.22,1.22,0,0,0,159.29,145.57Z" />
  <line class="BUNTAI_WOLF_JEWELRY_WOLF_JEWELRY_6_cls-4" x1="159.29" y1="132.89" x2="159.29" y2="125.51" />
  <path class="BUNTAI_WOLF_JEWELRY_WOLF_JEWELRY_6_cls-5" d="M159.29,145.57a1.22,1.22,0,0,1-1.23-1.23V134.12a1.23,1.23,0,1,1,2.46,0v10.22A1.22,1.22,0,0,1,159.29,145.57Z" />
  <polyline class="BUNTAI_WOLF_JEWELRY_WOLF_JEWELRY_6_cls-5" points="161.76 145.96 161.76 167.84 159.29 174.01 156.83 167.84 156.83 145.96" />
  <path class="BUNTAI_WOLF_JEWELRY_WOLF_JEWELRY_6_cls-5" d="M158.06,143.49h-5.47a1.24,1.24,0,0,0,0,2.47H166a1.24,1.24,0,1,0,0-2.47h-5.47" />
  <polyline class="BUNTAI_WOLF_JEWELRY_WOLF_JEWELRY_6_cls-5" points="159.29 145.57 159.29 145.96 159.29 167.35" />
  <path class="BUNTAI_WOLF_JEWELRY_WOLF_JEWELRY_6_cls-1" d="M159.28,125.51c-2,0-1.66-2.71-1.66-2.71h0a5.47,5.47,0,0,0,2.45.52,2.28,2.28,0,0,0,1.09-.27C161.17,123.2,161.2,125.51,159.28,125.51Z" />
  <path class="BUNTAI_WOLF_JEWELRY_WOLF_JEWELRY_6_cls-1" d="M162.71,114.8c.73,2.43.58,7.07-1.55,8.24a2.28,2.28,0,0,1-1.09.27,5.47,5.47,0,0,1-2.45-.52c-1.83-.89-2.75-3-2.63-6.09a10.36,10.36,0,0,1,.57-3.06,6.47,6.47,0,0,1,1.78-2.76,2.27,2.27,0,0,1,1.62-.68,2.74,2.74,0,0,1,2,1.17,4.06,4.06,0,0,1-.87.17h0a5,5,0,0,0-2.24,3.43c-.55,2.67.38,5.66,1.73,5.66,1.5,0,1.51-3.47,1.42-5.32l.11,0A6.28,6.28,0,0,0,162.71,114.8Z" />
  <path class="BUNTAI_WOLF_JEWELRY_WOLF_JEWELRY_6_cls-1" d="M156.78,101.8c.47,2.44.72,3.37.72,3.37s-2.44,2.11-1,4.72a2.63,2.63,0,0,0,.88,1,6.47,6.47,0,0,0-1.78,2.76C152.33,110.78,151.46,105.09,156.78,101.8Z" />
  <path class="BUNTAI_WOLF_JEWELRY_WOLF_JEWELRY_6_cls-1" d="M165.9,110.5a5.75,5.75,0,0,1-3.19,4.3,6.72,6.72,0,0,1-1.66.5l-.12,0a6.12,6.12,0,0,1-3.14-.33,5,5,0,0,1,2.22-3.44h.06a4.41,4.41,0,0,0,.88-.17,2.59,2.59,0,0,0,1.85-1.61,2.21,2.21,0,0,0,.1-.69c0-2.83-1.11-3-1.11-3s-.06-.15-.13-.38a3.64,3.64,0,0,1,2.83-2.38A9.63,9.63,0,0,1,165.9,110.5Z" />
  <path class="BUNTAI_WOLF_JEWELRY_WOLF_JEWELRY_6_cls-4" d="M155.56,113.64c-3.23-2.86-4.1-8.55,1.22-11.84.49,2,.72,3.37.72,3.37s-2.44,2.11-1,4.72a2.63,2.63,0,0,0,.88,1" />
  <path class="BUNTAI_WOLF_JEWELRY_WOLF_JEWELRY_6_cls-4" d="M157.79,115a6.12,6.12,0,0,0,3.14.33l.12,0a6.72,6.72,0,0,0,1.66-.5,5.75,5.75,0,0,0,3.19-4.3,9.63,9.63,0,0,0-1.41-7.16" />
  <path class="BUNTAI_WOLF_JEWELRY_WOLF_JEWELRY_6_cls-4" d="M161.66,105.72c.07.23.13.38.13.38s1.08.14,1.11,3a2.21,2.21,0,0,1-.1.69,2.59,2.59,0,0,1-1.85,1.61,4.41,4.41,0,0,1-.88.17" />
  <path class="BUNTAI_WOLF_JEWELRY_WOLF_JEWELRY_6_cls-4" d="M162.71,114.8c.73,2.43.58,7.07-1.55,8.24a2.28,2.28,0,0,1-1.09.27,5.47,5.47,0,0,1-2.45-.52c-1.83-.89-2.75-3-2.63-6.09a10.36,10.36,0,0,1,.57-3.06,6.47,6.47,0,0,1,1.78-2.76,2.27,2.27,0,0,1,1.62-.68,2.74,2.74,0,0,1,2,1.17" />
  <path class="BUNTAI_WOLF_JEWELRY_WOLF_JEWELRY_6_cls-4" d="M160.93,115.32c.09,1.85.08,5.32-1.42,5.32-1.35,0-2.28-3-1.73-5.66a5,5,0,0,1,2.24-3.43h0" />
  <path class="BUNTAI_WOLF_JEWELRY_WOLF_JEWELRY_6_cls-4" d="M157.62,122.8s-.33,2.71,1.66,2.71,1.89-2.31,1.88-2.47h0" />
  <path class="BUNTAI_WOLF_JEWELRY_WOLF_JEWELRY_6_cls-4" d="M161.87,108.63a3.63,3.63,0,0,1-.42-1.7,3.46,3.46,0,0,1,.21-1.21,3.64,3.64,0,0,1,2.83-2.38,3,3,0,0,1,.62-.06,2.48,2.48,0,0,1,2.46,1.84" />
</svg>