<svg id="jewelries" xmlns="http://www.w3.org/2000/svg" viewBox="0 0 432 432">
  <defs>
    <style>.BUNTAI_WOLF_JEWELRY_WOLF_JEWELRY_28_cls-1{fill:#c32b2a;}.BUNTAI_WOLF_JEWELRY_WOLF_JEWELRY_28_cls-2{fill:#bdb079;}.BUNTAI_WOLF_JEWELRY_WOLF_JEWELRY_28_cls-3{fill:#273462;}.BUNTAI_WOLF_JEWELRY_WOLF_JEWELRY_28_cls-11,.BUNTAI_WOLF_JEWELRY_WOLF_JEWELRY_28_cls-4,.BUNTAI_WOLF_JEWELRY_WOLF_JEWELRY_28_cls-7{fill:none;stroke-linecap:round;stroke-linejoin:round;}.BUNTAI_WOLF_JEWELRY_WOLF_JEWELRY_28_cls-11,.BUNTAI_WOLF_JEWELRY_WOLF_JEWELRY_28_cls-4,.BUNTAI_WOLF_JEWELRY_WOLF_JEWELRY_28_cls-5,.BUNTAI_WOLF_JEWELRY_WOLF_JEWELRY_28_cls-7{stroke:#000;}.BUNTAI_WOLF_JEWELRY_WOLF_JEWELRY_28_cls-4{stroke-width:1.63px;}.BUNTAI_WOLF_JEWELRY_WOLF_JEWELRY_28_cls-5{fill:#754c24;stroke-miterlimit:10;}.BUNTAI_WOLF_JEWELRY_WOLF_JEWELRY_28_cls-5,.BUNTAI_WOLF_JEWELRY_WOLF_JEWELRY_28_cls-7{stroke-width:1.09px;}.BUNTAI_WOLF_JEWELRY_WOLF_JEWELRY_28_cls-6{fill:#333;}.BUNTAI_WOLF_JEWELRY_WOLF_JEWELRY_28_cls-8{fill:#fff;}.BUNTAI_WOLF_JEWELRY_WOLF_JEWELRY_28_cls-9{fill:#666;}.BUNTAI_WOLF_JEWELRY_WOLF_JEWELRY_28_cls-10{fill:#c7a858;}.BUNTAI_WOLF_JEWELRY_WOLF_JEWELRY_28_cls-11{stroke-width:0.98px;}</style>
  </defs>
  <ellipse class="BUNTAI_WOLF_JEWELRY_WOLF_JEWELRY_28_cls-1" cx="235.99" cy="344.57" rx="3.39" ry="3.44" />
  <path class="BUNTAI_WOLF_JEWELRY_WOLF_JEWELRY_28_cls-2" d="M254.52,332.15l-4.91-3.71,3.07,4.14s2.5,17.05-16.69,28.11c-19.19-11.06-16.69-28.11-16.69-28.11l3.07-4.14-4.91,3.71S213.59,357,236,363.49C258.39,357,254.52,332.15,254.52,332.15Z" />
  <path class="BUNTAI_WOLF_JEWELRY_WOLF_JEWELRY_28_cls-2" d="M245.39,333.11c.53,3.12-.23,8.91-4.3,11.87a6.13,6.13,0,0,0-3.33-6.58v-4.25h-3.53v4.25a6.15,6.15,0,0,0-3.35,6.58c-4.07-3-4.82-8.75-4.29-11.87-3.69,5.62-3.27,11.8,3.84,16.22l-1.57,2.8a21.71,21.71,0,0,0,2.5,1.5c1.48-2.37,1.77-2.93,1.77-2.93a4.27,4.27,0,0,0,5.72,0s.29.56,1.76,2.93a20.85,20.85,0,0,0,2.5-1.5l-1.56-2.8C248.66,344.91,249.08,338.73,245.39,333.11ZM236,348a3.44,3.44,0,1,1,3.4-3.43A3.42,3.42,0,0,1,236,348Z" />
  <path class="BUNTAI_WOLF_JEWELRY_WOLF_JEWELRY_28_cls-3" d="M252.68,332.58l-3.07-4.14-6,3.21H228.33l-6-3.21-3.07,4.14s-2.5,17.06,16.69,28.11C255.18,349.64,252.68,332.58,252.68,332.58Zm-11.13,16.75,1.56,2.8a20.85,20.85,0,0,1-2.5,1.5c-1.47-2.37-1.76-2.93-1.76-2.93a4.27,4.27,0,0,1-5.72,0s-.29.56-1.77,2.93a21.71,21.71,0,0,1-2.5-1.5l1.57-2.8c-7.11-4.42-7.53-10.6-3.84-16.22-.53,3.12.22,8.91,4.29,11.87a6.15,6.15,0,0,1,3.35-6.58v-4.25h3.53v4.25a6.13,6.13,0,0,1,3.33,6.58c4.07-3,4.83-8.75,4.3-11.87C249.08,338.73,248.66,344.91,241.55,349.33Z" />
  <path class="BUNTAI_WOLF_JEWELRY_WOLF_JEWELRY_28_cls-4" d="M236,348a3.44,3.44,0,0,1,0-6.88" />
  <path class="BUNTAI_WOLF_JEWELRY_WOLF_JEWELRY_28_cls-4" d="M236,331.65h-7.66l-6-3.21-4.91,3.71S213.59,357,236,363.49" />
  <path class="BUNTAI_WOLF_JEWELRY_WOLF_JEWELRY_28_cls-4" d="M222.37,328.44l-3.07,4.14s-2.5,17.05,16.69,28.11" />
  <path class="BUNTAI_WOLF_JEWELRY_WOLF_JEWELRY_28_cls-4" d="M236,334.15h-1.77v4.26a6.13,6.13,0,0,0-3.34,6.57c-4.07-3-4.82-8.75-4.29-11.87-3.69,5.62-3.28,11.8,3.85,16.22l-1.58,2.8a19.16,19.16,0,0,0,2.51,1.5c1.47-2.37,1.76-2.93,1.76-2.93a5.81,5.81,0,0,0,2.86,1.11" />
  <path class="BUNTAI_WOLF_JEWELRY_WOLF_JEWELRY_28_cls-4" d="M236,341.13a3.44,3.44,0,0,1,0,6.88" />
  <path class="BUNTAI_WOLF_JEWELRY_WOLF_JEWELRY_28_cls-4" d="M236,360.69v2.8c22.4-6.51,18.53-31.34,18.53-31.34l-4.91-3.71-6,3.21H236" />
  <path class="BUNTAI_WOLF_JEWELRY_WOLF_JEWELRY_28_cls-4" d="M249.61,328.44l3.07,4.14s2.5,17.05-16.69,28.11" />
  <path class="BUNTAI_WOLF_JEWELRY_WOLF_JEWELRY_28_cls-4" d="M236,334.15h1.77v4.26a6.13,6.13,0,0,1,3.33,6.57c4.08-3,4.83-8.75,4.3-11.87,3.69,5.62,3.27,11.8-3.85,16.22l1.58,2.8a19.87,19.87,0,0,1-2.51,1.5c-1.48-2.37-1.76-2.93-1.76-2.93a5.81,5.81,0,0,1-2.86,1.11" />
  <path class="BUNTAI_WOLF_JEWELRY_WOLF_JEWELRY_28_cls-5" d="M297.37,273.65c-2.17-2-4.38.18-4.38.18a21.6,21.6,0,0,0,1.91,2.73c-9.73,16.73-30.27,39.69-56.58,50.09h0c-.44.19-.88.35-1.34.53l-.08,0h0l-.83.31-1.06-.28-1.5-.41c-26.51-7.77-61-34.53-77.25-50.91a28.33,28.33,0,0,0,2.27-2.76s-2.1-1.87-4.06-.75c-1.8,1-1.21,4.75-.81,5.16,16.3,16.62,52,43.55,79.6,51.5h.1l.42.12.59.17.1,0h.05l1.34.34a1.15,1.15,0,0,0,.26,0,1.19,1.19,0,0,0,.37-.06l1-.35h0c.52-.2,1-.4,1.54-.61h0c26.8-10.56,49.16-35.52,59.26-52.64A2.3,2.3,0,0,0,297.37,273.65Z" />
  <path class="BUNTAI_WOLF_JEWELRY_WOLF_JEWELRY_28_cls-6" d="M233.51,326.75l1.49.41s1.55-.88,2.19.36.34,2.14-.49,2.53a1.79,1.79,0,0,1-2.29-.64,3.15,3.15,0,0,0-1.43-.32s.6,2.33,2.59,2.54a2.93,2.93,0,0,0,3.4-2.71,2.85,2.85,0,0,0-1.6-3A3,3,0,0,0,233.51,326.75Z" />
  <path class="BUNTAI_WOLF_JEWELRY_WOLF_JEWELRY_28_cls-7" d="M232.9,329a3.06,3.06,0,0,0,2.72,2.7l.3,0a3,3,0,0,0,2-.79,3.09,3.09,0,0,0,1-2.14.91.91,0,0,0,0-.17,3.13,3.13,0,0,0-.68-2,3.08,3.08,0,0,0-2.37-1.12,3,3,0,0,0-2.48,1.3l1.51.41a1.63,1.63,0,0,1,1-.32,1.61,1.61,0,0,1,.92.28,1.69,1.69,0,0,1,.75,1.41,1.64,1.64,0,0,1-.18.76,1.65,1.65,0,0,1-2.95.05h0Z" />
  <path class="BUNTAI_WOLF_JEWELRY_WOLF_JEWELRY_28_cls-8" d="M174.94,152a14.21,14.21,0,0,1-12.59-4,7,7,0,0,0,4.72-3.83A25.44,25.44,0,0,0,174.94,152Z" />
  <path class="BUNTAI_WOLF_JEWELRY_WOLF_JEWELRY_28_cls-8" d="M175.11,152.09c-2.39,1-11.35,3.81-19.58-6.12a7,7,0,0,0,2.76-.4,32.48,32.48,0,0,1-3.3-1.39,36.43,36.43,0,0,1-.4-12.52l2.33-1.43-.4,2.08,1.61-1.28c-.57,4.87-.37,10.34,2.16,14.34a15.39,15.39,0,0,0,2.06,2.64,14.21,14.21,0,0,0,12.59,4Z" />
  <path class="BUNTAI_WOLF_JEWELRY_WOLF_JEWELRY_28_cls-9" d="M160,125.33a22.79,22.79,0,0,0,3.9,1l-2.62,1.19,1.81.65-2,.64s2.26,3,3.79,3.43c-3.46-.09-4.87-.94-4.87-.94l-.94,2.33-1-2.56a55,55,0,0,1,1-5.7Z" />
  <path class="BUNTAI_WOLF_JEWELRY_WOLF_JEWELRY_28_cls-8" d="M159.1,133.59l.94-2.33.05,1.69s1.63,5.29,4.1,6.63c-1.73,4.06-1.73,4.9-1.73,4.9l3.22-3.56a10.17,10.17,0,0,0,1.39,3.26,7,7,0,0,1-4.72,3.83,15.39,15.39,0,0,1-2.06-2.64c-2.53-4-2.73-9.47-2.16-14.34Z" />
  <path class="BUNTAI_WOLF_JEWELRY_WOLF_JEWELRY_28_cls-9" d="M159.15,125.33a55,55,0,0,0-1,5.7l-1.61,1.28.4-2.08-2.33,1.43a5.9,5.9,0,0,1-2.22,1.29,11.29,11.29,0,0,0,2-3.66l-1.13-.5,1.53-1.24-1.39-1.68s2.63-.05,2.93-.09l2-.45Z" />
  <path class="BUNTAI_WOLF_JEWELRY_WOLF_JEWELRY_28_cls-10" d="M161.06,115.53a2.61,2.61,0,0,1-.17,5.21,2.12,2.12,0,0,1-.44,0,2.61,2.61,0,0,1,.44-5.18Z" />
  <path class="BUNTAI_WOLF_JEWELRY_WOLF_JEWELRY_28_cls-10" d="M159.53,104.26a4.91,4.91,0,0,0,2.25.48,2.1,2.1,0,0,0,1-.25c0,.15,0,2.28-1.73,2.28s-1.53-2.5-1.53-2.5Z" />
  <path class="BUNTAI_WOLF_JEWELRY_WOLF_JEWELRY_28_cls-10" d="M158,85.11a13.66,13.66,0,0,1,.41,3.22,3.78,3.78,0,0,0,0,4,2.53,2.53,0,0,0,.81.91,5.86,5.86,0,0,0-1.64,2.54C154.65,93.2,153.11,88.13,158,85.11Z" />
  <path class="BUNTAI_WOLF_JEWELRY_WOLF_JEWELRY_28_cls-10" d="M161.75,93.9h0a4.7,4.7,0,0,0-2.06,3.17c-.52,2.46.34,5.22,1.59,5.22s1.39-3.21,1.31-4.91l.1,0a5.9,5.9,0,0,0,1.54-.46c.67,2.24.53,6.51-1.43,7.59a2.1,2.1,0,0,1-1,.25,4.91,4.91,0,0,1-2.25-.48c-1.69-.81-2.54-2.72-2.42-5.61a9.26,9.26,0,0,1,.52-2.82,5.86,5.86,0,0,1,1.64-2.54,2.09,2.09,0,0,1,1.5-.63,2.55,2.55,0,0,1,1.82,1.08,3.52,3.52,0,0,1-.81.15Z" />
  <path class="BUNTAI_WOLF_JEWELRY_WOLF_JEWELRY_28_cls-10" d="M165.36,85.6c2.22,2.13,3.27,9.28-1.14,11.3a5.9,5.9,0,0,1-1.54.46l-.1,0a5.76,5.76,0,0,1-2.9-.31,4.7,4.7,0,0,1,2.06-3.17h0a3.52,3.52,0,0,0,.81-.15,2.25,2.25,0,0,0,1.81-2.12c0-2.6-1.61-3.39-1.61-3.39S161.84,85.24,165.36,85.6Z" />
  <path class="BUNTAI_WOLF_JEWELRY_WOLF_JEWELRY_28_cls-11" d="M157.63,95.83c-3-2.63-4.52-7.7.39-10.72.32,2.2.41,3.22.41,3.22a3.78,3.78,0,0,0,0,4,2.53,2.53,0,0,0,.81.91" />
  <path class="BUNTAI_WOLF_JEWELRY_WOLF_JEWELRY_28_cls-11" d="M161.78,93.89a3.52,3.52,0,0,0,.81-.15,2.25,2.25,0,0,0,1.81-2.12c0-2.6-1.61-3.39-1.61-3.39s-.95-3,2.57-2.63c2.22,2.13,3.27,9.28-1.14,11.3a5.9,5.9,0,0,1-1.54.46l-.1,0a5.76,5.76,0,0,1-2.9-.31" />
  <path class="BUNTAI_WOLF_JEWELRY_WOLF_JEWELRY_28_cls-11" d="M164.22,96.9c.67,2.24.53,6.51-1.43,7.59a2.1,2.1,0,0,1-1,.25,4.91,4.91,0,0,1-2.25-.48c-1.69-.81-2.54-2.72-2.42-5.61a9.26,9.26,0,0,1,.52-2.82,5.86,5.86,0,0,1,1.64-2.54,2.09,2.09,0,0,1,1.5-.63,2.55,2.55,0,0,1,1.82,1.08" />
  <path class="BUNTAI_WOLF_JEWELRY_WOLF_JEWELRY_28_cls-11" d="M162.58,97.38c.08,1.7.07,4.91-1.31,4.91s-2.11-2.76-1.59-5.22a4.7,4.7,0,0,1,2.06-3.17h0" />
  <path class="BUNTAI_WOLF_JEWELRY_WOLF_JEWELRY_28_cls-11" d="M159.53,104.27s-.3,2.5,1.53,2.5,1.73-2.13,1.73-2.28h0" />
  <path class="BUNTAI_WOLF_JEWELRY_WOLF_JEWELRY_28_cls-11" d="M161.06,115.53a2.61,2.61,0,0,1-.17,5.21,2.12,2.12,0,0,1-.44,0,2.61,2.61,0,0,1,.44-5.18Z" />
  <path class="BUNTAI_WOLF_JEWELRY_WOLF_JEWELRY_28_cls-11" d="M159.15,125.33h-.86l-2,.45c-.3,0-2.93.09-2.93.09l1.39,1.68-1.53,1.24,1.13.5a11.29,11.29,0,0,1-2,3.66,5.9,5.9,0,0,0,2.22-1.29,36.43,36.43,0,0,0,.4,12.52,32.48,32.48,0,0,0,3.3,1.39,7,7,0,0,1-2.76.4c8.23,9.93,17.19,7.12,19.58,6.12l-.17-.12a25.44,25.44,0,0,1-7.87-7.79,10.17,10.17,0,0,1-1.39-3.26l-3.22,3.56s0-.84,1.73-4.9c-2.47-1.34-4.1-6.63-4.1-6.63l-.05-1.69s1.41.85,4.87.94c-1.53-.44-3.79-3.43-3.79-3.43l2-.64-1.81-.65,2.62-1.19a22.79,22.79,0,0,1-3.9-1h-.84" />
  <path class="BUNTAI_WOLF_JEWELRY_WOLF_JEWELRY_28_cls-11" d="M160.45,120.7c-.33,1-.83,2.64-1.3,4.63a55,55,0,0,0-1,5.7c-.57,4.87-.37,10.34,2.16,14.34a15.39,15.39,0,0,0,2.06,2.64,14.21,14.21,0,0,0,12.59,4" />
  <path class="BUNTAI_WOLF_JEWELRY_WOLF_JEWELRY_28_cls-11" d="M162.35,148a7,7,0,0,0,4.72-3.83" />
  <polyline class="BUNTAI_WOLF_JEWELRY_WOLF_JEWELRY_28_cls-11" points="160.04 131.26 159.1 133.59 158.13 131.03 156.52 132.31 156.91 130.23 154.59 131.66" />
  <line class="BUNTAI_WOLF_JEWELRY_WOLF_JEWELRY_28_cls-11" x1="161.06" y1="115.53" x2="161.06" y2="106.77" />
  <path class="BUNTAI_WOLF_JEWELRY_WOLF_JEWELRY_28_cls-11" d="M168,86.86s-2.48-2.57-4.82-.77.11,4.82.11,4.82" />
</svg>