<svg id="jewelries" xmlns="http://www.w3.org/2000/svg" viewBox="0 0 432 432">
  <defs>
    <style>.BUNTAI_WOLF_JEWELRY_WOLF_JEWELRY_21_cls-1{fill:#e2cb6e;}.BUNTAI_WOLF_JEWELRY_WOLF_JEWELRY_21_cls-1,.BUNTAI_WOLF_JEWELRY_WOLF_JEWELRY_21_cls-2,.BUNTAI_WOLF_JEWELRY_WOLF_JEWELRY_21_cls-3,.BUNTAI_WOLF_JEWELRY_WOLF_JEWELRY_21_cls-4,.BUNTAI_WOLF_JEWELRY_WOLF_JEWELRY_21_cls-6{stroke:#000;}.BUNTAI_WOLF_JEWELRY_WOLF_JEWELRY_21_cls-1,.BUNTAI_WOLF_JEWELRY_WOLF_JEWELRY_21_cls-2,.BUNTAI_WOLF_JEWELRY_WOLF_JEWELRY_21_cls-6{stroke-linecap:round;stroke-linejoin:round;}.BUNTAI_WOLF_JEWELRY_WOLF_JEWELRY_21_cls-1,.BUNTAI_WOLF_JEWELRY_WOLF_JEWELRY_21_cls-2{stroke-width:1.38px;}.BUNTAI_WOLF_JEWELRY_WOLF_JEWELRY_21_cls-2,.BUNTAI_WOLF_JEWELRY_WOLF_JEWELRY_21_cls-6{fill:none;}.BUNTAI_WOLF_JEWELRY_WOLF_JEWELRY_21_cls-3{fill:#fff;}.BUNTAI_WOLF_JEWELRY_WOLF_JEWELRY_21_cls-3,.BUNTAI_WOLF_JEWELRY_WOLF_JEWELRY_21_cls-4{stroke-miterlimit:10;stroke-width:0.83px;}.BUNTAI_WOLF_JEWELRY_WOLF_JEWELRY_21_cls-4{fill:#754c24;}.BUNTAI_WOLF_JEWELRY_WOLF_JEWELRY_21_cls-5{fill:#333;}.BUNTAI_WOLF_JEWELRY_WOLF_JEWELRY_21_cls-6{stroke-width:0.62px;}</style>
  </defs>
  <path class="BUNTAI_WOLF_JEWELRY_WOLF_JEWELRY_21_cls-1" d="M310.68,93.83a7,7,0,0,0,3.14,4.46c5.43,3.53,12.69,2.38,12.72-4.56,0-8.44-5.78-11.91-5.78-11.91s.55.93.74,4.22c1.19.83,2.46,2.53,2.27,7.43s-7.91,3.59-9.06.07c0-.13-.09-.26-.12-.4A6.89,6.89,0,0,1,317,86.29a5.65,5.65,0,0,0-1.53-2.19C311.53,86.9,310,90.67,310.68,93.83Z" />
  <path class="BUNTAI_WOLF_JEWELRY_WOLF_JEWELRY_21_cls-2" d="M316.51,91.25a5.61,5.61,0,0,0,.46-5,5.65,5.65,0,0,0-1.53-2.19,3.57,3.57,0,0,0-5.1.82" />
  <path class="BUNTAI_WOLF_JEWELRY_WOLF_JEWELRY_21_cls-3" d="M196.49,377l1.42.5c.77.28,1.83.65,3.06,1.07L202,379l1.42.47.31.1,1,.34c.77.25,1.55.5,2.35.74l1.71.53,2.12.62.68.18.73.2,1.53.4.81.19.94.21c.52-1.79,1.05-3.32,1.05-3.32l-.95-.27h0l-.66-.18-.29-.08-1.78-.51-1.32-.37-1.8-.52-2.68-.78-1.07-.31-1.73-.54-.47-.14-.67-.22-1-.33-1.25-.42-.78-.27-1.12-.39-.08,0-1.71-.61a7.12,7.12,0,0,0-1.08,2A2.57,2.57,0,0,0,196.49,377Z" />
  <polyline class="BUNTAI_WOLF_JEWELRY_WOLF_JEWELRY_21_cls-3" points="216.72 379.61 217.59 377.42 218.14 377.53 217.71 380.12 217.18 380 216.42 382.71 216.91 382.82 215.74 385.1 215.32 384.92 215.67 382.93" />
  <line class="BUNTAI_WOLF_JEWELRY_WOLF_JEWELRY_21_cls-3" x1="218.63" y1="380.3" x2="217.71" y2="380.11" />
  <line class="BUNTAI_WOLF_JEWELRY_WOLF_JEWELRY_21_cls-3" x1="217.9" y1="383.03" x2="216.91" y2="382.82" />
  <path class="BUNTAI_WOLF_JEWELRY_WOLF_JEWELRY_21_cls-3" d="M215.77,379.34s-.7,2.1-1,3.38" />
  <path class="BUNTAI_WOLF_JEWELRY_WOLF_JEWELRY_21_cls-3" d="M197.91,377.52a11.32,11.32,0,0,1,1.23-3.24" />
  <path class="BUNTAI_WOLF_JEWELRY_WOLF_JEWELRY_21_cls-3" d="M198.5,377.73s.91-1.4,1.76-3.06" />
  <path class="BUNTAI_WOLF_JEWELRY_WOLF_JEWELRY_21_cls-3" d="M201,374.94a6.25,6.25,0,0,1-1.07,3.3" />
  <path class="BUNTAI_WOLF_JEWELRY_WOLF_JEWELRY_21_cls-3" d="M203.3,375.69A21.77,21.77,0,0,1,202,379" />
  <path class="BUNTAI_WOLF_JEWELRY_WOLF_JEWELRY_21_cls-3" d="M202.29,375.36a5.64,5.64,0,0,1-1.32,3.23" />
  <path class="BUNTAI_WOLF_JEWELRY_WOLF_JEWELRY_21_cls-3" d="M204,375.91a17.27,17.27,0,0,1-.13,3.18c0,.14-.05.29-.07.43" />
  <path class="BUNTAI_WOLF_JEWELRY_WOLF_JEWELRY_21_cls-3" d="M203.46,379.42l.38-.33a17,17,0,0,0,2.33-2.5" />
  <path class="BUNTAI_WOLF_JEWELRY_WOLF_JEWELRY_21_cls-3" d="M207.24,376.9c-.05.09-.12.18-.19.28a19.75,19.75,0,0,1-2.25,2.68" />
  <path class="BUNTAI_WOLF_JEWELRY_WOLF_JEWELRY_21_cls-3" d="M207.05,377.18a5.14,5.14,0,0,1,.22,2.23c0,.41-.07.82-.12,1.19" />
  <path class="BUNTAI_WOLF_JEWELRY_WOLF_JEWELRY_21_cls-3" d="M207.27,379.41a6.89,6.89,0,0,0,1.67-.93l.46-.35c.19-.15.36-.3.52-.45" />
  <path class="BUNTAI_WOLF_JEWELRY_WOLF_JEWELRY_21_cls-3" d="M208.94,378.48a7.28,7.28,0,0,1-.08,2.65" />
  <path class="BUNTAI_WOLF_JEWELRY_WOLF_JEWELRY_21_cls-3" d="M211.72,378.2a7.42,7.42,0,0,1-.42,2.77,8.05,8.05,0,0,1-.32.78" />
  <path class="BUNTAI_WOLF_JEWELRY_WOLF_JEWELRY_21_cls-3" d="M209.4,378.13a12.21,12.21,0,0,1,1.9,2.84" />
  <path class="BUNTAI_WOLF_JEWELRY_WOLF_JEWELRY_21_cls-3" d="M215.11,379.16a11.51,11.51,0,0,1-1.19,3.37" />
  <path class="BUNTAI_WOLF_JEWELRY_WOLF_JEWELRY_21_cls-3" d="M214.82,379.08a11.84,11.84,0,0,1-2.43,3.05" />
  <line class="BUNTAI_WOLF_JEWELRY_WOLF_JEWELRY_21_cls-3" x1="211.66" y1="381.93" x2="213.04" y2="378.57" />
  <path class="BUNTAI_WOLF_JEWELRY_WOLF_JEWELRY_21_cls-3" d="M266.14,384a40.24,40.24,0,0,1-14.2,3.24c-14.83,1-31.57-2.81-34.23-3.45l1.1-4.12c2.35.57,24.79,6.84,48.33,1.74C268.41,381.09,267.29,383.41,266.14,384Z" />
  <line class="BUNTAI_WOLF_JEWELRY_WOLF_JEWELRY_21_cls-3" x1="218.81" y1="379.62" x2="217.71" y2="383.74" />
  <path class="BUNTAI_WOLF_JEWELRY_WOLF_JEWELRY_21_cls-4" d="M231.1,379.31a1.65,1.65,0,0,1-.32,0c-39.86-8.65-59.65-33.61-69.23-53-10.35-21-12.76-45.38-12.76-45.57a3.2,3.2,0,0,1,1.26-2.71,2.73,2.73,0,0,1,3.89.5,22.38,22.38,0,0,0-2.4,2.37c0,.19,2.43,23.94,12.59,44.48,9.3,18.8,28.46,42.95,66.9,51.44,40.58-12.92,59.14-37.27,67.57-55.46,9.18-19.77,8.79-32.41,8.71-32.56-.79-.47-2.9-1.54-3.5-1.85.48-.69,1.71-2.83,4.16-2.24,1.28.3,2.07,2.36,2.1,3.05s.51,14.3-8.89,34.56c-8.68,18.71-27.8,43.78-69.61,57A1.84,1.84,0,0,1,231.1,379.31Z" />
  <path class="BUNTAI_WOLF_JEWELRY_WOLF_JEWELRY_21_cls-5" d="M227.88,375.91l1.88.46s2-1,2.77.4.43,2.38-.62,2.82-2.59.05-2.89-.71a4.19,4.19,0,0,0-1.81-.36,4.06,4.06,0,0,0,3.27,2.83c2.52.22,4.06-1.17,4.31-3a3.15,3.15,0,0,0-2-3.36A4.14,4.14,0,0,0,227.88,375.91Z" />
  <path class="BUNTAI_WOLF_JEWELRY_WOLF_JEWELRY_21_cls-6" d="M227.11,378.42a3.66,3.66,0,0,0,3.44,3l.38,0a4.08,4.08,0,0,0,2.57-.88,3.26,3.26,0,0,0,1.28-2.39,1.09,1.09,0,0,0,0-.18,3.26,3.26,0,0,0-.87-2.19,4,4,0,0,0-3-1.26A4,4,0,0,0,227.8,376l1.91.46a2.31,2.31,0,0,1,2.38,0A1.84,1.84,0,0,1,233,378a1.66,1.66,0,0,1-.23.84,2.22,2.22,0,0,1-3.73.05h0Z" />
</svg>