<svg id="jewelries" xmlns="http://www.w3.org/2000/svg" viewBox="0 0 432 432">
  <defs>
    <style>.BUNTAI_WOLF_JEWELRY_WOLF_JEWELRY_9_cls-1{fill:#7367ff;}.BUNTAI_WOLF_JEWELRY_WOLF_JEWELRY_9_cls-2{fill:#ff5e63;}.BUNTAI_WOLF_JEWELRY_WOLF_JEWELRY_9_cls-3{fill:#fff;}.BUNTAI_WOLF_JEWELRY_WOLF_JEWELRY_9_cls-4{fill:none;stroke:#000;stroke-linecap:round;stroke-linejoin:round;stroke-width:1.12px;}.BUNTAI_WOLF_JEWELRY_WOLF_JEWELRY_9_cls-5{fill:#c7a858;}</style>
  </defs>
  <path class="BUNTAI_WOLF_JEWELRY_WOLF_JEWELRY_9_cls-1" d="M313.53,180.31l-1.18,36.39h14.4a23.88,23.88,0,0,0-13.22-36.39Z" />
  <circle class="BUNTAI_WOLF_JEWELRY_WOLF_JEWELRY_9_cls-2" cx="324.13" cy="170.17" r="5.15" />
  <path class="BUNTAI_WOLF_JEWELRY_WOLF_JEWELRY_9_cls-3" d="M324,155.92a1.35,1.35,0,0,0,1.35-1.35h0a1.35,1.35,0,0,0-2.69,0h0A1.35,1.35,0,0,0,324,155.92Zm0-4.19a2.84,2.84,0,0,1,2.84,2.83h6.78l2,62.14h-8.85a23.88,23.88,0,0,0-13.22-36.39l.84-25.75h6.76A2.83,2.83,0,0,1,324,151.73Zm.17,23.59a5.15,5.15,0,1,0-5.16-5.15A5.15,5.15,0,0,0,324.13,175.32Z" />
  <polyline class="BUNTAI_WOLF_JEWELRY_WOLF_JEWELRY_9_cls-4" points="323.96 140.46 323.96 151.73 323.96 153.22 323.96 154.57" />
  <path class="BUNTAI_WOLF_JEWELRY_WOLF_JEWELRY_9_cls-4" d="M313.53,180.31l.84-25.75h6.76a2.84,2.84,0,0,1,5.67,0h6.78l2,62.14h-8.85" />
  <path class="BUNTAI_WOLF_JEWELRY_WOLF_JEWELRY_9_cls-4" d="M325.31,154.56a1.35,1.35,0,0,0-2.69,0" />
  <path class="BUNTAI_WOLF_JEWELRY_WOLF_JEWELRY_9_cls-4" d="M325.31,154.56h0a1.35,1.35,0,1,1-2.69,0h0" />
  <path class="BUNTAI_WOLF_JEWELRY_WOLF_JEWELRY_9_cls-4" d="M313.53,180.31h0l-1.18,36.39h14.4a23.88,23.88,0,0,0-13.22-36.39Z" />
  <circle class="BUNTAI_WOLF_JEWELRY_WOLF_JEWELRY_9_cls-4" cx="324.13" cy="170.17" r="5.15" />
  <path class="BUNTAI_WOLF_JEWELRY_WOLF_JEWELRY_9_cls-5" d="M324.07,140.63c2.17,0,1.81-2.95,1.81-2.95h0a5.92,5.92,0,0,1-2.65.56,2.44,2.44,0,0,1-1.19-.3C322,138.12,322,140.63,324.07,140.63Z" />
  <path class="BUNTAI_WOLF_JEWELRY_WOLF_JEWELRY_9_cls-5" d="M320.36,129c-.79,2.63-.63,7.67,1.68,8.93a2.44,2.44,0,0,0,1.19.3,5.92,5.92,0,0,0,2.65-.56c2-1,3-3.21,2.85-6.61a11.11,11.11,0,0,0-.61-3.33,7,7,0,0,0-1.93-3,2.47,2.47,0,0,0-1.77-.73,3,3,0,0,0-2.15,1.26,3.79,3.79,0,0,0,1,.18h0a0,0,0,0,0,0,0,5.47,5.47,0,0,1,2.42,3.73c.61,2.89-.41,6.14-1.87,6.14-1.62,0-1.64-3.78-1.54-5.78l-.12,0A7.12,7.12,0,0,1,320.36,129Z" />
  <path class="BUNTAI_WOLF_JEWELRY_WOLF_JEWELRY_9_cls-5" d="M326.79,114.91a10,10,0,0,1-.78,3.64s2.65,2.3,1.13,5.13a3,3,0,0,1-.95,1.07,7,7,0,0,1,1.93,3C331.62,124.64,332.56,118.47,326.79,114.91Z" />
  <path class="BUNTAI_WOLF_JEWELRY_WOLF_JEWELRY_9_cls-5" d="M316.89,124.34a6.24,6.24,0,0,0,3.47,4.66,6.89,6.89,0,0,0,1.8.55l.13,0a6.74,6.74,0,0,0,3.41-.36,5.46,5.46,0,0,0-2.42-3.73h0a4.3,4.3,0,0,1-1-.19,2.85,2.85,0,0,1-2-1.74,2.31,2.31,0,0,1-.11-.75c0-3.07,1.2-3.22,1.2-3.22s.07-.17.15-.42a4,4,0,0,0-3.07-2.58A10.49,10.49,0,0,0,316.89,124.34Z" />
  <path class="BUNTAI_WOLF_JEWELRY_WOLF_JEWELRY_9_cls-4" d="M328.12,127.74c3.5-3.1,4.44-9.27-1.33-12.83-.53,2.19-.78,3.64-.78,3.64s2.65,2.3,1.13,5.13a3,3,0,0,1-.95,1.07" />
  <path class="BUNTAI_WOLF_JEWELRY_WOLF_JEWELRY_9_cls-4" d="M325.7,129.21a6.74,6.74,0,0,1-3.41.36l-.13,0a6.89,6.89,0,0,1-1.8-.55,6.24,6.24,0,0,1-3.47-4.66,10.49,10.49,0,0,1,1.54-7.77" />
  <path class="BUNTAI_WOLF_JEWELRY_WOLF_JEWELRY_9_cls-4" d="M321.5,119.15c-.08.25-.15.42-.15.42s-1.17.15-1.2,3.22a2.31,2.31,0,0,0,.11.75,2.85,2.85,0,0,0,2,1.74,4.3,4.3,0,0,0,1,.19" />
  <path class="BUNTAI_WOLF_JEWELRY_WOLF_JEWELRY_9_cls-4" d="M320.36,129c-.79,2.63-.63,7.67,1.68,8.93a2.44,2.44,0,0,0,1.19.3,5.92,5.92,0,0,0,2.65-.56c2-1,3-3.21,2.85-6.61a11.11,11.11,0,0,0-.61-3.33,7,7,0,0,0-1.93-3,2.47,2.47,0,0,0-1.77-.73,3,3,0,0,0-2.15,1.26" />
  <path class="BUNTAI_WOLF_JEWELRY_WOLF_JEWELRY_9_cls-4" d="M322.29,129.57c-.1,2-.08,5.78,1.54,5.78,1.46,0,2.48-3.25,1.87-6.14a5.47,5.47,0,0,0-2.42-3.73,0,0,0,0,1,0,0h0" />
  <path class="BUNTAI_WOLF_JEWELRY_WOLF_JEWELRY_9_cls-4" d="M325.88,137.68s.36,2.95-1.81,2.95-2-2.51-2-2.69h0" />
  <path class="BUNTAI_WOLF_JEWELRY_WOLF_JEWELRY_9_cls-4" d="M321.27,122.31a3.94,3.94,0,0,0,.45-1.84,3.85,3.85,0,0,0-.22-1.32,4,4,0,0,0-3.07-2.58,3.63,3.63,0,0,0-.67-.06,2.69,2.69,0,0,0-2.68,2" />
</svg>