<svg id="jewelries" xmlns="http://www.w3.org/2000/svg" viewBox="0 0 432 432">
  <defs>
    <style>.BUNTAI_WOLF_JEWELRY_WOLF_JEWELRY_14_cls-1{fill:#754c24;}.BUNTAI_WOLF_JEWELRY_WOLF_JEWELRY_14_cls-1,.BUNTAI_WOLF_JEWELRY_WOLF_JEWELRY_14_cls-3,.BUNTAI_WOLF_JEWELRY_WOLF_JEWELRY_14_cls-7{stroke:#000;stroke-linecap:round;stroke-linejoin:round;}.BUNTAI_WOLF_JEWELRY_WOLF_JEWELRY_14_cls-1,.BUNTAI_WOLF_JEWELRY_WOLF_JEWELRY_14_cls-3{stroke-width:1.01px;}.BUNTAI_WOLF_JEWELRY_WOLF_JEWELRY_14_cls-2{fill:#666;}.BUNTAI_WOLF_JEWELRY_WOLF_JEWELRY_14_cls-3,.BUNTAI_WOLF_JEWELRY_WOLF_JEWELRY_14_cls-7{fill:none;}.BUNTAI_WOLF_JEWELRY_WOLF_JEWELRY_14_cls-4{fill:#333;}.BUNTAI_WOLF_JEWELRY_WOLF_JEWELRY_14_cls-5{fill:#fff;}.BUNTAI_WOLF_JEWELRY_WOLF_JEWELRY_14_cls-6{fill:#c7a858;}.BUNTAI_WOLF_JEWELRY_WOLF_JEWELRY_14_cls-7{stroke-width:0.98px;}</style>
  </defs>
  <path class="BUNTAI_WOLF_JEWELRY_WOLF_JEWELRY_14_cls-1" d="M315,293.06c0,.17-1.89,7.36-1.94,7.54A54.3,54.3,0,0,1,309,310.87c-9.61,19.32-30.49,45-75.52,59.28,0,0,0,0,0,0l-2.24.7h0l-1.38.41a1.88,1.88,0,0,1-.52.08,1.53,1.53,0,0,1-.38,0l-1.93-.41H227l-.06,0-1.67-.37h0l-.42-.09h0c-42.56-9.9-64-35.37-74.6-55.31-4.77-9-7.14-17.84-9.68-24.88-.57-1.59,0-7,5.58-4.71-1.78,1-3,2.29-2.76,3.14a115.73,115.73,0,0,0,9.81,25.46c10.46,19.7,31.87,45,74.6,54.22l1.51.33,1.2-.37h0l.13,0,1.94-.61h0c43.85-13.94,64.18-39,73.54-57.78,3.11-6.24,4.13-11.83,5.6-17.14.21.06-.49-.49-1.8-1.09C312.87,289.35,315.6,290.94,315,293.06Z" />
  <path class="BUNTAI_WOLF_JEWELRY_WOLF_JEWELRY_14_cls-2" d="M227.88,404.15l5.31,14.09-4.28.42-2.73-14.22a8.22,8.22,0,0,0,1.08-.15h0C227.45,404.25,227.66,404.21,227.88,404.15Z" />
  <path class="BUNTAI_WOLF_JEWELRY_WOLF_JEWELRY_14_cls-2" d="M230.56,403.15l10.18,12.37-3.63,1.29-3.91,1.43h0l-5.31-14.09a12.33,12.33,0,0,0,2.16-.74C230.21,403.33,230.39,403.25,230.56,403.15Z" />
  <path class="BUNTAI_WOLF_JEWELRY_WOLF_JEWELRY_14_cls-2" d="M246.38,411.42l-2.88,2-2.76,2.09-10.18-12.37A9.09,9.09,0,0,0,232.3,402l.19-.16Z" />
  <path class="BUNTAI_WOLF_JEWELRY_WOLF_JEWELRY_14_cls-2" d="M250,406.35l-1.94,2.51-1.69,2.56-13.89-9.59a7.79,7.79,0,0,0,1.39-1.69l.18-.3Z" />
  <path class="BUNTAI_WOLF_JEWELRY_WOLF_JEWELRY_14_cls-2" d="M252.3,400.55l-1.13,2.66L250,406.35l-15.95-6.51a7.58,7.58,0,0,0,.66-1.65c0-.12.07-.25.1-.38Z" />
  <path class="BUNTAI_WOLF_JEWELRY_WOLF_JEWELRY_14_cls-2" d="M252.58,395.53l-.41,2.14.13,2.88-17.48-2.74a10.08,10.08,0,0,0,.25-2.28Z" />
  <path class="BUNTAI_WOLF_JEWELRY_WOLF_JEWELRY_14_cls-2" d="M252.17,393.38l.41,2.15H235.07a10,10,0,0,0-.25-2.28l17.48-2.74Z" />
  <path class="BUNTAI_WOLF_JEWELRY_WOLF_JEWELRY_14_cls-2" d="M251.17,387.84l1.13,2.67-17.48,2.74c0-.13-.06-.26-.1-.39a7.3,7.3,0,0,0-.66-1.64L250,384.7Z" />
  <path class="BUNTAI_WOLF_JEWELRY_WOLF_JEWELRY_14_cls-2" d="M248.07,382.19,250,384.7l-15.95,6.52-.18-.31a8,8,0,0,0-1.39-1.68l13.89-9.6Z" />
  <path class="BUNTAI_WOLF_JEWELRY_WOLF_JEWELRY_14_cls-2" d="M246.38,379.63l-13.89,9.6-.19-.17a9.09,9.09,0,0,0-1.74-1.16l10.18-12.37,2.76,2.09Z" />
  <path class="BUNTAI_WOLF_JEWELRY_WOLF_JEWELRY_14_cls-2" d="M240.74,375.53,230.56,387.9l-.52-.26a13.22,13.22,0,0,0-2.16-.74l5.31-14.09h0l3.91,1.44Z" />
  <path class="BUNTAI_WOLF_JEWELRY_WOLF_JEWELRY_14_cls-2" d="M233.19,372.81l-5.31,14.09-.62-.13h0c-.66-.12-1.08-.15-1.08-.15l2.73-14.22Z" />
  <path class="BUNTAI_WOLF_JEWELRY_WOLF_JEWELRY_14_cls-3" d="M227.26,386.76c-.66-.12-1.08-.15-1.08-.15l2.73-14.22,4.28.42h0l3.91,1.44,3.63,1.28,2.76,2.09,2.88,2,1.69,2.56L250,384.7l1.16,3.14,1.13,2.67-.13,2.87.41,2.15" />
  <path class="BUNTAI_WOLF_JEWELRY_WOLF_JEWELRY_14_cls-3" d="M235.07,395.53a10,10,0,0,0-.25-2.28c0-.13-.06-.26-.1-.39a7.3,7.3,0,0,0-.66-1.64l-.18-.31a8,8,0,0,0-1.39-1.68l-.19-.17a9.09,9.09,0,0,0-1.74-1.16l-.52-.26a13.22,13.22,0,0,0-2.16-.74l-.62-.13" />
  <line class="BUNTAI_WOLF_JEWELRY_WOLF_JEWELRY_14_cls-3" x1="234.06" y1="391.22" x2="250.01" y2="384.7" />
  <polyline class="BUNTAI_WOLF_JEWELRY_WOLF_JEWELRY_14_cls-3" points="232.49 389.23 232.49 389.23 246.38 379.63" />
  <line class="BUNTAI_WOLF_JEWELRY_WOLF_JEWELRY_14_cls-3" x1="230.56" y1="387.9" x2="240.74" y2="375.53" />
  <line class="BUNTAI_WOLF_JEWELRY_WOLF_JEWELRY_14_cls-3" x1="227.88" y1="386.9" x2="233.19" y2="372.81" />
  <line class="BUNTAI_WOLF_JEWELRY_WOLF_JEWELRY_14_cls-3" x1="234.82" y1="393.25" x2="252.3" y2="390.51" />
  <polyline class="BUNTAI_WOLF_JEWELRY_WOLF_JEWELRY_14_cls-3" points="227.26 386.76 227.26 386.77 225.35 395.53" />
  <polyline class="BUNTAI_WOLF_JEWELRY_WOLF_JEWELRY_14_cls-3" points="234.72 392.86 225.35 395.53 233.88 390.91" />
  <polyline class="BUNTAI_WOLF_JEWELRY_WOLF_JEWELRY_14_cls-3" points="232.29 389.06 225.35 395.53 230.04 387.64" />
  <path class="BUNTAI_WOLF_JEWELRY_WOLF_JEWELRY_14_cls-3" d="M227.26,404.29a8.22,8.22,0,0,1-1.08.15l2.73,14.22,4.28-.42h0l3.91-1.43,3.63-1.29,2.76-2.09,2.88-2,1.69-2.56,1.94-2.51,1.16-3.14,1.13-2.66-.13-2.88.41-2.14H235.07a10.08,10.08,0,0,1-.25,2.28c0,.13-.06.26-.1.38a7.58,7.58,0,0,1-.66,1.65l-.18.3a7.79,7.79,0,0,1-1.39,1.69l-.19.16a9.09,9.09,0,0,1-1.74,1.16c-.17.1-.35.18-.52.26a12.33,12.33,0,0,1-2.16.74c-.22.06-.43.1-.62.14" />
  <line class="BUNTAI_WOLF_JEWELRY_WOLF_JEWELRY_14_cls-3" x1="250.01" y1="406.35" x2="234.06" y2="399.84" />
  <polyline class="BUNTAI_WOLF_JEWELRY_WOLF_JEWELRY_14_cls-3" points="246.38 411.42 232.49 401.83 232.49 401.82" />
  <line class="BUNTAI_WOLF_JEWELRY_WOLF_JEWELRY_14_cls-3" x1="240.74" y1="415.52" x2="230.56" y2="403.15" />
  <line class="BUNTAI_WOLF_JEWELRY_WOLF_JEWELRY_14_cls-3" x1="233.19" y1="418.24" x2="227.88" y2="404.15" />
  <line class="BUNTAI_WOLF_JEWELRY_WOLF_JEWELRY_14_cls-3" x1="252.3" y1="400.55" x2="234.82" y2="397.81" />
  <polyline class="BUNTAI_WOLF_JEWELRY_WOLF_JEWELRY_14_cls-3" points="227.26 404.29 227.26 404.29 225.35 395.53 235.07 395.53" />
  <polyline class="BUNTAI_WOLF_JEWELRY_WOLF_JEWELRY_14_cls-3" points="234.72 398.19 225.35 395.53 233.88 400.14" />
  <polyline class="BUNTAI_WOLF_JEWELRY_WOLF_JEWELRY_14_cls-3" points="232.29 401.99 225.35 395.53 230.04 403.41" />
  <path class="BUNTAI_WOLF_JEWELRY_WOLF_JEWELRY_14_cls-4" d="M225.64,367.74l2.15.49s2.23-1.05,3.14.42.49,2.54-.7,3-2.95.06-3.29-.75a5.42,5.42,0,0,0-2.06-.39,4.47,4.47,0,0,0,3.73,3c2.86.24,4.61-1.24,4.9-3.21a3.36,3.36,0,0,0-2.31-3.57A5,5,0,0,0,225.64,367.74Z" />
  <path class="BUNTAI_WOLF_JEWELRY_WOLF_JEWELRY_14_cls-3" d="M224.77,370.41a4.08,4.08,0,0,0,3.91,3.2l.44,0a4.89,4.89,0,0,0,2.92-.93,3.39,3.39,0,0,0,1.45-2.54.65.65,0,0,0,0-.2,3.36,3.36,0,0,0-1-2.32,4.81,4.81,0,0,0-3.4-1.34,4.63,4.63,0,0,0-3.57,1.55l2.17.48a2.75,2.75,0,0,1,1.4-.37,2.65,2.65,0,0,1,1.31.33,1.93,1.93,0,0,1,1.09,1.67,1.81,1.81,0,0,1-.26.9,2.47,2.47,0,0,1-2.14,1.11,2.51,2.51,0,0,1-2.11-1.05h0Z" />
  <path class="BUNTAI_WOLF_JEWELRY_WOLF_JEWELRY_14_cls-5" d="M170.08,181.35a14.24,14.24,0,0,1-12.59-4,6.92,6.92,0,0,0,4.71-3.83A25.84,25.84,0,0,0,170.08,181.35Z" />
  <path class="BUNTAI_WOLF_JEWELRY_WOLF_JEWELRY_14_cls-5" d="M170.25,181.47c-2.39,1-11.35,3.8-19.58-6.13a7,7,0,0,0,2.76-.39,32.48,32.48,0,0,1-3.3-1.39,36.43,36.43,0,0,1-.4-12.52l2.32-1.44-.39,2.09,1.61-1.28c-.57,4.87-.37,10.34,2.15,14.34a15.94,15.94,0,0,0,2.07,2.64,14.24,14.24,0,0,0,12.59,4Z" />
  <path class="BUNTAI_WOLF_JEWELRY_WOLF_JEWELRY_14_cls-2" d="M155.12,154.7a22.81,22.81,0,0,0,3.91,1l-2.62,1.19,1.81.64-2,.64s2.26,3,3.79,3.44c-3.46-.1-4.87-.94-4.87-.94l-.94,2.33-1-2.56a55.7,55.7,0,0,1,1-5.71Z" />
  <path class="BUNTAI_WOLF_JEWELRY_WOLF_JEWELRY_14_cls-5" d="M154.24,163l.94-2.33,0,1.69s1.63,5.29,4.1,6.63c-1.73,4.06-1.73,4.9-1.73,4.9l3.22-3.57a10.25,10.25,0,0,0,1.38,3.27,6.92,6.92,0,0,1-4.71,3.83,15.94,15.94,0,0,1-2.07-2.64c-2.52-4-2.72-9.47-2.15-14.34Z" />
  <path class="BUNTAI_WOLF_JEWELRY_WOLF_JEWELRY_14_cls-2" d="M154.29,154.7a55.7,55.7,0,0,0-1,5.71l-1.61,1.28.39-2.09L149.73,161a5.9,5.9,0,0,1-2.22,1.29,11.26,11.26,0,0,0,2-3.67l-1.13-.49,1.53-1.24-1.39-1.68s2.63-.05,2.93-.1,2-.45,2-.45Z" />
  <path class="BUNTAI_WOLF_JEWELRY_WOLF_JEWELRY_14_cls-6" d="M156.2,144.91a2.61,2.61,0,0,1-.17,5.21,2.12,2.12,0,0,1-.44,0,2.61,2.61,0,0,1,.44-5.18Z" />
  <path class="BUNTAI_WOLF_JEWELRY_WOLF_JEWELRY_14_cls-6" d="M154.67,133.64a4.91,4.91,0,0,0,2.25.48,2.22,2.22,0,0,0,1-.25c0,.14,0,2.28-1.73,2.28s-1.53-2.5-1.53-2.5Z" />
  <path class="BUNTAI_WOLF_JEWELRY_WOLF_JEWELRY_14_cls-6" d="M153.15,114.48a13.49,13.49,0,0,1,.42,3.22,3.8,3.8,0,0,0,0,4.06,2.42,2.42,0,0,0,.81.9,6,6,0,0,0-1.64,2.55C149.79,122.57,148.25,117.51,153.15,114.48Z" />
  <path class="BUNTAI_WOLF_JEWELRY_WOLF_JEWELRY_14_cls-6" d="M156.89,123.27h0a4.63,4.63,0,0,0-2.05,3.17c-.52,2.45.34,5.21,1.58,5.21s1.4-3.2,1.32-4.9l.1,0a6.31,6.31,0,0,0,1.54-.46c.67,2.23.53,6.51-1.43,7.59a2.22,2.22,0,0,1-1,.25,4.91,4.91,0,0,1-2.25-.48c-1.69-.82-2.54-2.72-2.42-5.61a9.2,9.2,0,0,1,.52-2.82,6,6,0,0,1,1.64-2.55,2.08,2.08,0,0,1,1.5-.62,2.55,2.55,0,0,1,1.82,1.08,4.15,4.15,0,0,1-.81.15Z" />
  <path class="BUNTAI_WOLF_JEWELRY_WOLF_JEWELRY_14_cls-6" d="M160.5,115c2.22,2.12,3.27,9.27-1.14,11.3a6.31,6.31,0,0,1-1.54.46l-.1,0a5.76,5.76,0,0,1-2.9-.31,4.63,4.63,0,0,1,2.05-3.17h0a4.15,4.15,0,0,0,.81-.15,2.26,2.26,0,0,0,1.81-2.12c0-2.61-1.61-3.4-1.61-3.4S157,114.61,160.5,115Z" />
  <path class="BUNTAI_WOLF_JEWELRY_WOLF_JEWELRY_14_cls-7" d="M152.77,125.21c-3-2.64-4.52-7.7.38-10.73.33,2.21.42,3.22.42,3.22a3.8,3.8,0,0,0,0,4.06,2.42,2.42,0,0,0,.81.9" />
  <path class="BUNTAI_WOLF_JEWELRY_WOLF_JEWELRY_14_cls-7" d="M156.92,123.27a4.15,4.15,0,0,0,.81-.15,2.26,2.26,0,0,0,1.81-2.12c0-2.61-1.61-3.4-1.61-3.4s-1-3,2.57-2.62c2.22,2.12,3.27,9.27-1.14,11.3a6.31,6.31,0,0,1-1.54.46l-.1,0a5.76,5.76,0,0,1-2.9-.31" />
  <path class="BUNTAI_WOLF_JEWELRY_WOLF_JEWELRY_14_cls-7" d="M159.36,126.28c.67,2.23.53,6.51-1.43,7.59a2.22,2.22,0,0,1-1,.25,4.91,4.91,0,0,1-2.25-.48c-1.69-.82-2.54-2.72-2.42-5.61a9.2,9.2,0,0,1,.52-2.82,6,6,0,0,1,1.64-2.55,2.08,2.08,0,0,1,1.5-.62,2.55,2.55,0,0,1,1.82,1.08" />
  <path class="BUNTAI_WOLF_JEWELRY_WOLF_JEWELRY_14_cls-7" d="M157.72,126.76c.08,1.7.07,4.9-1.32,4.9s-2.1-2.76-1.58-5.21a4.63,4.63,0,0,1,2.05-3.17h0" />
  <path class="BUNTAI_WOLF_JEWELRY_WOLF_JEWELRY_14_cls-7" d="M154.67,133.65s-.3,2.5,1.53,2.5,1.73-2.14,1.73-2.28h0" />
  <path class="BUNTAI_WOLF_JEWELRY_WOLF_JEWELRY_14_cls-7" d="M156.2,144.91a2.61,2.61,0,0,1-.17,5.21,2.12,2.12,0,0,1-.44,0,2.61,2.61,0,0,1,.44-5.18Z" />
  <path class="BUNTAI_WOLF_JEWELRY_WOLF_JEWELRY_14_cls-7" d="M154.29,154.7h-.86s-1.67.4-2,.45-2.93.1-2.93.1l1.39,1.68-1.53,1.24,1.13.49a11.26,11.26,0,0,1-2,3.67,5.9,5.9,0,0,0,2.22-1.29,36.43,36.43,0,0,0,.4,12.52,32.48,32.48,0,0,0,3.3,1.39,7,7,0,0,1-2.76.39c8.23,9.93,17.19,7.13,19.58,6.13l-.17-.12a25.84,25.84,0,0,1-7.88-7.79,10.25,10.25,0,0,1-1.38-3.27l-3.22,3.57s0-.84,1.73-4.9c-2.47-1.34-4.1-6.63-4.1-6.63l0-1.69s1.41.84,4.87.94c-1.53-.44-3.79-3.44-3.79-3.44l2-.64-1.81-.64,2.62-1.19a22.81,22.81,0,0,1-3.91-1h-.83" />
  <path class="BUNTAI_WOLF_JEWELRY_WOLF_JEWELRY_14_cls-7" d="M155.59,150.08c-.34,1-.83,2.64-1.3,4.62a55.7,55.7,0,0,0-1,5.71c-.57,4.87-.37,10.34,2.15,14.34a15.94,15.94,0,0,0,2.07,2.64,14.24,14.24,0,0,0,12.59,4" />
  <path class="BUNTAI_WOLF_JEWELRY_WOLF_JEWELRY_14_cls-7" d="M157.49,177.39a6.92,6.92,0,0,0,4.71-3.83" />
  <polyline class="BUNTAI_WOLF_JEWELRY_WOLF_JEWELRY_14_cls-7" points="155.18 160.64 154.24 162.97 153.27 160.41 151.66 161.69 152.05 159.6 149.73 161.04" />
  <line class="BUNTAI_WOLF_JEWELRY_WOLF_JEWELRY_14_cls-7" x1="156.2" y1="144.91" x2="156.2" y2="136.15" />
  <path class="BUNTAI_WOLF_JEWELRY_WOLF_JEWELRY_14_cls-7" d="M163.13,116.23s-2.48-2.57-4.82-.77.11,4.83.11,4.83" />
</svg>