<svg xmlns="http://www.w3.org/2000/svg" viewBox="0 0 432 432">
  <defs>
    <style>.BUNTAI_WOLF_JEWELRY_WOLF_JEWELRY_3_cls-1{isolation:isolate;}.BUNTAI_WOLF_JEWELRY_WOLF_JEWELRY_3_cls-2{fill:#87e04a;}.BUNTAI_WOLF_JEWELRY_WOLF_JEWELRY_3_cls-3{fill:#f4f4f2;}.BUNTAI_WOLF_JEWELRY_WOLF_JEWELRY_3_cls-4{fill:#184098;}.BUNTAI_WOLF_JEWELRY_WOLF_JEWELRY_3_cls-5{fill:#2dbcd5;}.BUNTAI_WOLF_JEWELRY_WOLF_JEWELRY_3_cls-6{fill:#e1a04c;}.BUNTAI_WOLF_JEWELRY_WOLF_JEWELRY_3_cls-7{fill:#a64e42;}.BUNTAI_WOLF_JEWELRY_WOLF_JEWELRY_3_cls-8{fill:#ccc;}.BUNTAI_WOLF_JEWELRY_WOLF_JEWELRY_3_cls-9{fill:#e7ff87;}.BUNTAI_WOLF_JEWELRY_WOLF_JEWELRY_3_cls-10,.BUNTAI_WOLF_JEWELRY_WOLF_JEWELRY_3_cls-12{fill:none;stroke:#000;stroke-linecap:round;stroke-linejoin:round;}.BUNTAI_WOLF_JEWELRY_WOLF_JEWELRY_3_cls-10{stroke-width:1.2px;}.BUNTAI_WOLF_JEWELRY_WOLF_JEWELRY_3_cls-11{opacity:0.43;mix-blend-mode:multiply;}.BUNTAI_WOLF_JEWELRY_WOLF_JEWELRY_3_cls-12{stroke-width:1.06px;}.BUNTAI_WOLF_JEWELRY_WOLF_JEWELRY_3_cls-13{fill:#c7a858;}</style>
  </defs>
  <g class="BUNTAI_WOLF_JEWELRY_WOLF_JEWELRY_3_cls-1">
    <g id="jewelries">
      <path class="BUNTAI_WOLF_JEWELRY_WOLF_JEWELRY_3_cls-2" d="M160.94,213.07c2.54,1.14,4.53,5.63,4.53,5.63s-4.67,1.49-7.21.35c-2-.9-3.14-3.65-3.53-4.77v0l-.09-.48C155.14,213.55,158.6,212,160.94,213.07Z" />
      <path class="BUNTAI_WOLF_JEWELRY_WOLF_JEWELRY_3_cls-3" d="M154.2,207.12s-.94,4.16-3.42,5.42-7.23,0-7.23,0,1.78-4.58,4.25-5.84S154.2,207.12,154.2,207.12Z" />
      <path class="BUNTAI_WOLF_JEWELRY_WOLF_JEWELRY_3_cls-4" d="M167.71,197.1c2.48,1.79,3.63,7.05,3.63,7.05s-5.36.58-7.83-1.21-2.8-6.45-2.8-6.45S165.23,195.32,167.71,197.1Z" />
      <path class="BUNTAI_WOLF_JEWELRY_WOLF_JEWELRY_3_cls-5" d="M162.06,185.53s0,.06,0,.09h0c-.28,1.05-1.37,4.48-3.67,5.65-2.73,1.38-7.93,0-7.93,0s1.94-5,4.66-6.41,6.67.32,7,.46h0A1.77,1.77,0,0,1,162.06,185.53Z" />
      <path class="BUNTAI_WOLF_JEWELRY_WOLF_JEWELRY_3_cls-6" d="M171.77,169.94c3.53,1.28,6.65,7.1,6.65,7.1s-6.13,2.48-9.65,1.21c-1.91-.69-3.36-2.6-4.28-4.2,0,0,0,0,0,0a8.35,8.35,0,0,0-.67-1.62c-.15-.28-.3-.56-.44-.86C163.94,171.22,168.48,168.75,171.77,169.94Z" />
      <path class="BUNTAI_WOLF_JEWELRY_WOLF_JEWELRY_3_cls-7" d="M156.32,160.68s0,0,0,0c.24.83.52,1.72.82,2.63v0a9,9,0,0,1-.26,5.81c-1.67,3.35-7.82,5.77-7.82,5.77s-1.75-6.37-.07-9.72,7.27-4.65,7.27-4.65l0,.07Z" />
      <path class="BUNTAI_WOLF_JEWELRY_WOLF_JEWELRY_3_cls-8" d="M164.49,174.05c2.36,7.7-3.08,22-8.27,31.24a13,13,0,0,0-1.58,8.49l-.06,0s0,.17.15.45v0a20.19,20.19,0,0,0,8.62,12.39c-3.88-2.08-13.16-11.69-8.21-21.38a75.77,75.77,0,0,0,6.9-19.66h0a2.35,2.35,0,0,0,.08-.29h0c.9-5.15.81-9.83-1-12.91a49.76,49.76,0,0,1-3.92-9v0a17.33,17.33,0,0,0-.82-2.63s0,0,0,0h0c-.67-2.21-1.16-4.16-1.46-5.45a4.14,4.14,0,0,0,1.22.18,4,4,0,0,0,2.26-.68c.53,2.94,2.16,11.05,5,16.82a0,0,0,0,0,0,0l-.06,0a16.61,16.61,0,0,0,1.17,2.45S164.49,174,164.49,174.05Z" />
      <path class="BUNTAI_WOLF_JEWELRY_WOLF_JEWELRY_3_cls-9" d="M158.34,151.29a2.26,2.26,0,1,0-2.26,2.26A2.26,2.26,0,0,0,158.34,151.29Zm-2.26-4.1a4.11,4.11,0,0,1,2.26,7.53,4,4,0,0,1-2.26.68,4.11,4.11,0,0,1,0-8.21Z" />
      <path class="BUNTAI_WOLF_JEWELRY_WOLF_JEWELRY_3_cls-10" d="M157.16,163.36a17.33,17.33,0,0,0-.82-2.63" />
      <path class="BUNTAI_WOLF_JEWELRY_WOLF_JEWELRY_3_cls-10" d="M156.32,160.67l0-.07s-5.59,1.3-7.27,4.65.07,9.72.07,9.72,6.15-2.42,7.82-5.77a9,9,0,0,0,.26-5.81" />
      <path class="BUNTAI_WOLF_JEWELRY_WOLF_JEWELRY_3_cls-10" d="M162.1,185.32c-.33-.14-4.39-1.78-7-.46s-4.66,6.41-4.66,6.41,5.2,1.39,7.93,0c2.3-1.17,3.39-4.6,3.67-5.65" />
      <path class="BUNTAI_WOLF_JEWELRY_WOLF_JEWELRY_3_cls-10" d="M162,185.62a2.35,2.35,0,0,0,.08-.29h0" />
      <path class="BUNTAI_WOLF_JEWELRY_WOLF_JEWELRY_3_cls-10" d="M154.2,207.12s-3.92-1.68-6.4-.42-4.25,5.84-4.25,5.84,4.75,1.26,7.23,0S154.2,207.12,154.2,207.12Z" />
      <path class="BUNTAI_WOLF_JEWELRY_WOLF_JEWELRY_3_cls-10" d="M154.73,214.28c.39,1.12,1.52,3.87,3.53,4.77,2.54,1.14,7.21-.35,7.21-.35s-2-4.49-4.53-5.63c-2.34-1.06-5.8.48-6.3.71l-.06,0s0,.17.15.45" />
      <path class="BUNTAI_WOLF_JEWELRY_WOLF_JEWELRY_3_cls-10" d="M160.71,196.49s.32,4.67,2.8,6.45,7.83,1.21,7.83,1.21-1.15-5.26-3.63-7.05S160.71,196.49,160.71,196.49Z" />
      <path class="BUNTAI_WOLF_JEWELRY_WOLF_JEWELRY_3_cls-10" d="M164.49,174.05c.92,1.6,2.37,3.51,4.28,4.2,3.52,1.27,9.65-1.21,9.65-1.21s-3.12-5.82-6.65-7.1c-3.29-1.19-7.83,1.28-8.4,1.61l-.06,0a16.61,16.61,0,0,0,1.17,2.45" />
      <path class="BUNTAI_WOLF_JEWELRY_WOLF_JEWELRY_3_cls-10" d="M163.35,226.67c-3.88-2.08-13.16-11.69-8.21-21.38a75.77,75.77,0,0,0,6.9-19.66h0s0-.06,0-.09a1.77,1.77,0,0,0,0-.2h0c.9-5.15.81-9.83-1-12.91a49.76,49.76,0,0,1-3.92-9v0c-.3-.91-.58-1.8-.82-2.63,0,0,0,0,0,0h0c-.67-2.21-1.16-4.16-1.46-5.45h0" />
      <path class="BUNTAI_WOLF_JEWELRY_WOLF_JEWELRY_3_cls-10" d="M160.89,231c-3.34,1.94,3.08,3.49,2.55,0-3.08-6.69-10.55,4.81-1.81,5.31,5.19,0,5.68-7.79,2-9.52" />
      <path class="BUNTAI_WOLF_JEWELRY_WOLF_JEWELRY_3_cls-10" d="M163.63,226.81l-.28-.14a20.19,20.19,0,0,1-8.62-12.39v0l-.09-.48a13,13,0,0,1,1.58-8.49c5.19-9.25,10.63-23.54,8.27-31.24,0,0,0,0,0,0a8.35,8.35,0,0,0-.67-1.62c-.15-.28-.3-.56-.44-.86a0,0,0,0,1,0,0c-2.86-5.77-4.49-13.88-5-16.82" />
      <path class="BUNTAI_WOLF_JEWELRY_WOLF_JEWELRY_3_cls-10" d="M154.86,155.22a4.11,4.11,0,1,1,3.48-.5,4,4,0,0,1-2.26.68A4.14,4.14,0,0,1,154.86,155.22Z" />
      <path class="BUNTAI_WOLF_JEWELRY_WOLF_JEWELRY_3_cls-10" d="M158.34,151.29a2.26,2.26,0,1,1-2.26-2.25A2.26,2.26,0,0,1,158.34,151.29Z" />
      <g class="BUNTAI_WOLF_JEWELRY_WOLF_JEWELRY_3_cls-11">
        <path d="M152,151.78s1.38,2.91,3.25,3.53c.77,4.27,1.06,5.29,1.06,5.29a34.31,34.31,0,0,1-3.77,8.66,28.88,28.88,0,0,0-3,5.53s7.73-3.34,8.51-9c1.76,4.18,4.67,7.46,4.58,12.06a70.88,70.88,0,0,1-.47,7.39,18,18,0,0,1-6,3.87c-3.46,1.22-5.57,2-5.57,2a6.29,6.29,0,0,0,6.11.69,11.57,11.57,0,0,0,4.83-3.39s-2.79,12.85-4.88,16.25a19.22,19.22,0,0,1-2.55,2.4s-6.94,4.68-10.78,5.32c3.49,1,9.11.23,11-3.26.3,3.37-.88,13.37,11.18,9.39a91.68,91.68,0,0,1-9.91-5.08s-2.11-2.19-.2-6.08c4.28-7.85,5.53-10.09,5.53-10.09s-1.07,8.1,10.28,6.92c-5-3.34-9.49-6.08-10-8.06,2-6.17,4.2-9.25,4-15l-.23-5.79s2.64,5.49,13.41,1.36c-8.69-2.85-12.48-3.1-14.89-5.21-2.42-6.26-5.44-15.71-5.27-16.55s2.41-2.17,2.14-4.33C158.09,153.65,156.46,156.1,152,151.78Z" />
      </g>
      <line class="BUNTAI_WOLF_JEWELRY_WOLF_JEWELRY_3_cls-12" x1="156.01" y1="146.89" x2="156.01" y2="140.68" />
      <path class="BUNTAI_WOLF_JEWELRY_WOLF_JEWELRY_3_cls-13" d="M156,140.68c-1.68,0-1.41-2.29-1.41-2.29h0a4.57,4.57,0,0,0,2.06.44,2,2,0,0,0,.93-.23C157.59,138.72,157.62,140.68,156,140.68Z" />
      <path class="BUNTAI_WOLF_JEWELRY_WOLF_JEWELRY_3_cls-13" d="M158.89,131.65c.62,2,.49,5.95-1.3,6.94a2,2,0,0,1-.93.23,4.57,4.57,0,0,1-2.06-.44c-1.53-.74-2.31-2.48-2.21-5.13a8.47,8.47,0,0,1,.48-2.58,5.5,5.5,0,0,1,1.5-2.33,1.92,1.92,0,0,1,1.37-.57,2.36,2.36,0,0,1,1.67,1,3.68,3.68,0,0,1-.75.14h0a4.29,4.29,0,0,0-1.88,2.89c-.47,2.25.32,4.77,1.45,4.77s1.28-2.93,1.2-4.48l.1,0A5.22,5.22,0,0,0,158.89,131.65Z" />
      <path class="BUNTAI_WOLF_JEWELRY_WOLF_JEWELRY_3_cls-13" d="M153.9,120.7c.4,2.06.6,2.83.6,2.83s-2.05,1.78-.88,4a2.37,2.37,0,0,0,.75.82,5.5,5.5,0,0,0-1.5,2.33A6,6,0,0,1,153.9,120.7Z" />
      <path class="BUNTAI_WOLF_JEWELRY_WOLF_JEWELRY_3_cls-13" d="M161.59,128a4.89,4.89,0,0,1-2.7,3.63,5.33,5.33,0,0,1-1.4.42l-.1,0a5.25,5.25,0,0,1-2.65-.28,4.28,4.28,0,0,1,1.88-2.9h0a3.72,3.72,0,0,0,.74-.14A2.2,2.2,0,0,0,159,127.4a1.81,1.81,0,0,0,.09-.58c0-2.38-.94-2.5-.94-2.5s-.05-.13-.11-.32a3.07,3.07,0,0,1,2.38-2A8.18,8.18,0,0,1,161.59,128Z" />
      <path class="BUNTAI_WOLF_JEWELRY_WOLF_JEWELRY_3_cls-12" d="M152.87,130.67a6,6,0,0,1,1-10c.41,1.7.6,2.83.6,2.83s-2.05,1.78-.88,4a2.37,2.37,0,0,0,.75.82" />
      <path class="BUNTAI_WOLF_JEWELRY_WOLF_JEWELRY_3_cls-12" d="M154.74,131.81a5.25,5.25,0,0,0,2.65.28l.1,0a5.33,5.33,0,0,0,1.4-.42,4.89,4.89,0,0,0,2.7-3.63,8.18,8.18,0,0,0-1.2-6" />
      <path class="BUNTAI_WOLF_JEWELRY_WOLF_JEWELRY_3_cls-12" d="M158,124c.06.19.11.32.11.32s.91.12.94,2.5a1.81,1.81,0,0,1-.09.58,2.2,2.2,0,0,1-1.56,1.36,3.72,3.72,0,0,1-.74.14" />
      <path class="BUNTAI_WOLF_JEWELRY_WOLF_JEWELRY_3_cls-12" d="M158.89,131.65c.62,2,.49,5.95-1.3,6.94a2,2,0,0,1-.93.23,4.57,4.57,0,0,1-2.06-.44c-1.53-.74-2.31-2.48-2.21-5.13a8.47,8.47,0,0,1,.48-2.58,5.5,5.5,0,0,1,1.5-2.33,1.92,1.92,0,0,1,1.37-.57,2.36,2.36,0,0,1,1.67,1" />
      <path class="BUNTAI_WOLF_JEWELRY_WOLF_JEWELRY_3_cls-12" d="M157.39,132.09c.08,1.55.07,4.48-1.2,4.48s-1.92-2.52-1.45-4.77a4.29,4.29,0,0,1,1.88-2.89h0" />
      <path class="BUNTAI_WOLF_JEWELRY_WOLF_JEWELRY_3_cls-12" d="M154.6,138.39s-.27,2.29,1.41,2.29,1.58-2,1.58-2.09h0" />
      <path class="BUNTAI_WOLF_JEWELRY_WOLF_JEWELRY_3_cls-12" d="M158.18,126.45a3.15,3.15,0,0,1-.35-1.43,2.84,2.84,0,0,1,.18-1,3.07,3.07,0,0,1,2.38-2,3,3,0,0,1,.52,0,2.08,2.08,0,0,1,2.08,1.54" />
      <path class="BUNTAI_WOLF_JEWELRY_WOLF_JEWELRY_3_cls-2" d="M319.51,213.07C317,214.21,315,218.7,315,218.7s4.67,1.49,7.21.35c2-.9,3.14-3.65,3.53-4.77v0l.09-.48C325.31,213.55,321.85,212,319.51,213.07Z" />
      <path class="BUNTAI_WOLF_JEWELRY_WOLF_JEWELRY_3_cls-3" d="M326.25,207.12s.94,4.16,3.42,5.42,7.23,0,7.23,0-1.78-4.58-4.25-5.84S326.25,207.12,326.25,207.12Z" />
      <path class="BUNTAI_WOLF_JEWELRY_WOLF_JEWELRY_3_cls-4" d="M312.74,197.1c-2.48,1.79-3.63,7.05-3.63,7.05s5.36.58,7.83-1.21,2.8-6.45,2.8-6.45S315.22,195.32,312.74,197.1Z" />
      <path class="BUNTAI_WOLF_JEWELRY_WOLF_JEWELRY_3_cls-5" d="M318.39,185.53s0,.06,0,.09h0c.28,1.05,1.37,4.48,3.67,5.65,2.73,1.38,7.93,0,7.93,0s-1.94-5-4.66-6.41-6.67.32-7,.46h0A1.77,1.77,0,0,0,318.39,185.53Z" />
      <path class="BUNTAI_WOLF_JEWELRY_WOLF_JEWELRY_3_cls-6" d="M308.68,169.94c-3.53,1.28-6.65,7.1-6.65,7.1s6.13,2.48,9.65,1.21c1.91-.69,3.36-2.6,4.28-4.2,0,0,0,0,0,0a8.35,8.35,0,0,1,.67-1.62c.15-.28.3-.56.44-.86C316.51,171.22,312,168.75,308.68,169.94Z" />
      <path class="BUNTAI_WOLF_JEWELRY_WOLF_JEWELRY_3_cls-7" d="M324.13,160.68s0,0,0,0c-.24.83-.52,1.72-.82,2.63v0a9,9,0,0,0,.26,5.81c1.67,3.35,7.82,5.77,7.82,5.77s1.75-6.37.07-9.72-7.27-4.65-7.27-4.65l0,.07Z" />
      <path class="BUNTAI_WOLF_JEWELRY_WOLF_JEWELRY_3_cls-8" d="M316,174.05c-2.36,7.7,3.08,22,8.27,31.24a13,13,0,0,1,1.58,8.49l.06,0s-.05.17-.15.45v0a20.19,20.19,0,0,1-8.62,12.39c3.88-2.08,13.16-11.69,8.21-21.38a75.77,75.77,0,0,1-6.9-19.66h0a2.35,2.35,0,0,1-.08-.29h0c-.9-5.15-.81-9.83,1-12.91a49.76,49.76,0,0,0,3.92-9v0a17.33,17.33,0,0,1,.82-2.63s0,0,0,0h0c.67-2.21,1.16-4.16,1.46-5.45a4.14,4.14,0,0,1-1.22.18,4,4,0,0,1-2.26-.68c-.53,2.94-2.16,11.05-5,16.82a0,0,0,0,1,0,0l.06,0A16.61,16.61,0,0,1,316,174S316,174,316,174.05Z" />
      <path class="BUNTAI_WOLF_JEWELRY_WOLF_JEWELRY_3_cls-9" d="M324.37,153.55a2.26,2.26,0,1,0-2.26-2.26A2.26,2.26,0,0,0,324.37,153.55Zm4.1-2.26a4.08,4.08,0,0,1-4.1,4.11,4,4,0,0,1-2.26-.68,4.1,4.1,0,1,1,6.36-3.43Z" />
      <path class="BUNTAI_WOLF_JEWELRY_WOLF_JEWELRY_3_cls-10" d="M323.29,163.36a17.33,17.33,0,0,1,.82-2.63" />
      <path class="BUNTAI_WOLF_JEWELRY_WOLF_JEWELRY_3_cls-10" d="M324.13,160.67l0-.07s5.59,1.3,7.27,4.65-.07,9.72-.07,9.72-6.15-2.42-7.82-5.77a9,9,0,0,1-.26-5.81" />
      <path class="BUNTAI_WOLF_JEWELRY_WOLF_JEWELRY_3_cls-10" d="M318.35,185.32c.33-.14,4.39-1.78,7-.46s4.66,6.41,4.66,6.41-5.2,1.39-7.93,0c-2.3-1.17-3.39-4.6-3.67-5.65" />
      <path class="BUNTAI_WOLF_JEWELRY_WOLF_JEWELRY_3_cls-10" d="M318.41,185.62a2.35,2.35,0,0,1-.08-.29h0" />
      <path class="BUNTAI_WOLF_JEWELRY_WOLF_JEWELRY_3_cls-10" d="M326.25,207.12s3.92-1.68,6.4-.42,4.25,5.84,4.25,5.84-4.75,1.26-7.23,0S326.25,207.12,326.25,207.12Z" />
      <path class="BUNTAI_WOLF_JEWELRY_WOLF_JEWELRY_3_cls-10" d="M325.72,214.28c-.39,1.12-1.52,3.87-3.53,4.77-2.54,1.14-7.21-.35-7.21-.35s2-4.49,4.53-5.63c2.34-1.06,5.8.48,6.3.71l.06,0s-.05.17-.15.45" />
      <path class="BUNTAI_WOLF_JEWELRY_WOLF_JEWELRY_3_cls-10" d="M319.74,196.49s-.32,4.67-2.8,6.45-7.83,1.21-7.83,1.21,1.15-5.26,3.63-7.05S319.74,196.49,319.74,196.49Z" />
      <path class="BUNTAI_WOLF_JEWELRY_WOLF_JEWELRY_3_cls-10" d="M316,174.05c-.92,1.6-2.37,3.51-4.28,4.2C308.16,179.52,302,177,302,177s3.12-5.82,6.65-7.1c3.29-1.19,7.83,1.28,8.4,1.61l.06,0A16.61,16.61,0,0,1,316,174" />
      <path class="BUNTAI_WOLF_JEWELRY_WOLF_JEWELRY_3_cls-10" d="M317.1,226.67c3.88-2.08,13.16-11.69,8.21-21.38a75.77,75.77,0,0,1-6.9-19.66h0s0-.06,0-.09a1.77,1.77,0,0,1,0-.2h0c-.9-5.15-.81-9.83,1-12.91a49.76,49.76,0,0,0,3.92-9v0c.3-.91.58-1.8.82-2.63,0,0,0,0,0,0h0c.67-2.21,1.16-4.16,1.46-5.45h0" />
      <path class="BUNTAI_WOLF_JEWELRY_WOLF_JEWELRY_3_cls-10" d="M319.56,231c3.34,1.94-3.08,3.49-2.55,0,3.08-6.69,10.55,4.81,1.81,5.31-5.19,0-5.68-7.79-2-9.52" />
      <path class="BUNTAI_WOLF_JEWELRY_WOLF_JEWELRY_3_cls-10" d="M316.82,226.81l.28-.14a20.19,20.19,0,0,0,8.62-12.39v0l.09-.48a13,13,0,0,0-1.58-8.49C319,196,313.6,181.75,316,174.05c0,0,0,0,0,0a8.35,8.35,0,0,1,.67-1.62c.15-.28.3-.56.44-.86a0,0,0,0,0,0,0c2.86-5.77,4.49-13.88,5-16.82" />
      <path class="BUNTAI_WOLF_JEWELRY_WOLF_JEWELRY_3_cls-10" d="M325.59,155.22a4.11,4.11,0,1,0-3.48-.5,4,4,0,0,0,2.26.68A4.14,4.14,0,0,0,325.59,155.22Z" />
      <path class="BUNTAI_WOLF_JEWELRY_WOLF_JEWELRY_3_cls-10" d="M322.11,151.29a2.26,2.26,0,1,0,2.26-2.25A2.26,2.26,0,0,0,322.11,151.29Z" />
      <g class="BUNTAI_WOLF_JEWELRY_WOLF_JEWELRY_3_cls-11">
        <path d="M328.47,151.78s-1.38,2.91-3.25,3.53c-.77,4.27-1.06,5.29-1.06,5.29a34.31,34.31,0,0,0,3.77,8.66,28.88,28.88,0,0,1,3,5.53s-7.73-3.34-8.51-9c-1.76,4.18-4.67,7.46-4.58,12.06a70.88,70.88,0,0,0,.47,7.39,18,18,0,0,0,6,3.87c3.46,1.22,5.57,2,5.57,2a6.29,6.29,0,0,1-6.11.69A11.57,11.57,0,0,1,319,188.4s2.79,12.85,4.88,16.25a19.22,19.22,0,0,0,2.55,2.4s6.94,4.68,10.78,5.32c-3.49,1-9.11.23-11-3.26-.3,3.37.88,13.37-11.18,9.39a91.68,91.68,0,0,0,9.91-5.08s2.11-2.19.2-6.08c-4.28-7.85-5.53-10.09-5.53-10.09s1.07,8.1-10.28,6.92c5-3.34,9.49-6.08,10-8.06-2-6.17-4.2-9.25-4-15l.23-5.79s-2.64,5.49-13.41,1.36c8.69-2.85,12.48-3.1,14.89-5.21,2.42-6.26,5.44-15.71,5.27-16.55s-2.41-2.17-2.14-4.33C322.36,153.65,324,156.1,328.47,151.78Z" />
      </g>
      <line class="BUNTAI_WOLF_JEWELRY_WOLF_JEWELRY_3_cls-12" x1="324.44" y1="146.89" x2="324.44" y2="140.68" />
      <path class="BUNTAI_WOLF_JEWELRY_WOLF_JEWELRY_3_cls-13" d="M324.44,140.68c1.68,0,1.41-2.29,1.41-2.29h0a4.57,4.57,0,0,1-2.06.44,2,2,0,0,1-.93-.23C322.86,138.72,322.83,140.68,324.44,140.68Z" />
      <path class="BUNTAI_WOLF_JEWELRY_WOLF_JEWELRY_3_cls-13" d="M321.56,131.65c-.62,2-.49,5.95,1.3,6.94a2,2,0,0,0,.93.23,4.57,4.57,0,0,0,2.06-.44c1.53-.74,2.31-2.48,2.21-5.13a8.47,8.47,0,0,0-.48-2.58,5.5,5.5,0,0,0-1.5-2.33,1.92,1.92,0,0,0-1.37-.57,2.36,2.36,0,0,0-1.67,1,3.68,3.68,0,0,0,.75.14h0a4.29,4.29,0,0,1,1.88,2.89c.47,2.25-.32,4.77-1.45,4.77s-1.28-2.93-1.2-4.48l-.1,0A5.22,5.22,0,0,1,321.56,131.65Z" />
      <path class="BUNTAI_WOLF_JEWELRY_WOLF_JEWELRY_3_cls-13" d="M326.55,120.7c-.4,2.06-.6,2.83-.6,2.83s2.05,1.78.88,4a2.37,2.37,0,0,1-.75.82,5.5,5.5,0,0,1,1.5,2.33A6,6,0,0,0,326.55,120.7Z" />
      <path class="BUNTAI_WOLF_JEWELRY_WOLF_JEWELRY_3_cls-13" d="M318.87,128a4.85,4.85,0,0,0,2.69,3.63,5.33,5.33,0,0,0,1.4.42l.1,0a5.25,5.25,0,0,0,2.65-.28,4.28,4.28,0,0,0-1.88-2.9h-.05a3.72,3.72,0,0,1-.74-.14,2.2,2.2,0,0,1-1.56-1.36,1.81,1.81,0,0,1-.09-.58c0-2.38.94-2.5.94-2.5s.05-.13.11-.32a3.07,3.07,0,0,0-2.38-2A8.14,8.14,0,0,0,318.87,128Z" />
      <path class="BUNTAI_WOLF_JEWELRY_WOLF_JEWELRY_3_cls-12" d="M327.58,130.67a6,6,0,0,0-1-10c-.41,1.7-.6,2.83-.6,2.83s2.05,1.78.88,4a2.37,2.37,0,0,1-.75.82" />
      <path class="BUNTAI_WOLF_JEWELRY_WOLF_JEWELRY_3_cls-12" d="M325.71,131.81a5.25,5.25,0,0,1-2.65.28l-.1,0a5.33,5.33,0,0,1-1.4-.42,4.85,4.85,0,0,1-2.69-3.63,8.14,8.14,0,0,1,1.19-6" />
      <path class="BUNTAI_WOLF_JEWELRY_WOLF_JEWELRY_3_cls-12" d="M322.44,124c-.06.19-.11.32-.11.32s-.91.12-.94,2.5a1.81,1.81,0,0,0,.09.58,2.2,2.2,0,0,0,1.56,1.36,3.72,3.72,0,0,0,.74.14" />
      <path class="BUNTAI_WOLF_JEWELRY_WOLF_JEWELRY_3_cls-12" d="M321.56,131.65c-.62,2-.49,5.95,1.3,6.94a2,2,0,0,0,.93.23,4.57,4.57,0,0,0,2.06-.44c1.53-.74,2.31-2.48,2.21-5.13a8.47,8.47,0,0,0-.48-2.58,5.5,5.5,0,0,0-1.5-2.33,1.92,1.92,0,0,0-1.37-.57,2.36,2.36,0,0,0-1.67,1" />
      <path class="BUNTAI_WOLF_JEWELRY_WOLF_JEWELRY_3_cls-12" d="M323.06,132.09c-.08,1.55-.07,4.48,1.2,4.48s1.92-2.52,1.45-4.77a4.29,4.29,0,0,0-1.88-2.89h0" />
      <path class="BUNTAI_WOLF_JEWELRY_WOLF_JEWELRY_3_cls-12" d="M325.85,138.39s.27,2.29-1.41,2.29-1.58-2-1.58-2.09h0" />
      <path class="BUNTAI_WOLF_JEWELRY_WOLF_JEWELRY_3_cls-12" d="M322.27,126.45a3.15,3.15,0,0,0,.35-1.43,2.84,2.84,0,0,0-.18-1,3.07,3.07,0,0,0-2.38-2,3,3,0,0,0-.52,0,2.08,2.08,0,0,0-2.08,1.54" />
    </g>
  </g>
</svg>