<svg id="jewelries" xmlns="http://www.w3.org/2000/svg" viewBox="0 0 432 432">
  <defs>
    <style>.BUNTAI_WOLF_JEWELRY_WOLF_JEWELRY_24_cls-1{fill:#e2d93c;}.BUNTAI_WOLF_JEWELRY_WOLF_JEWELRY_24_cls-1,.BUNTAI_WOLF_JEWELRY_WOLF_JEWELRY_24_cls-2,.BUNTAI_WOLF_JEWELRY_WOLF_JEWELRY_24_cls-5,.BUNTAI_WOLF_JEWELRY_WOLF_JEWELRY_24_cls-6,.BUNTAI_WOLF_JEWELRY_WOLF_JEWELRY_24_cls-8{stroke:#000;}.BUNTAI_WOLF_JEWELRY_WOLF_JEWELRY_24_cls-1,.BUNTAI_WOLF_JEWELRY_WOLF_JEWELRY_24_cls-2,.BUNTAI_WOLF_JEWELRY_WOLF_JEWELRY_24_cls-5,.BUNTAI_WOLF_JEWELRY_WOLF_JEWELRY_24_cls-8{stroke-linecap:round;stroke-linejoin:round;}.BUNTAI_WOLF_JEWELRY_WOLF_JEWELRY_24_cls-1,.BUNTAI_WOLF_JEWELRY_WOLF_JEWELRY_24_cls-2{stroke-width:1.42px;}.BUNTAI_WOLF_JEWELRY_WOLF_JEWELRY_24_cls-2,.BUNTAI_WOLF_JEWELRY_WOLF_JEWELRY_24_cls-5,.BUNTAI_WOLF_JEWELRY_WOLF_JEWELRY_24_cls-8{fill:none;}.BUNTAI_WOLF_JEWELRY_WOLF_JEWELRY_24_cls-3{fill:#c7a858;}.BUNTAI_WOLF_JEWELRY_WOLF_JEWELRY_24_cls-4{fill:#fff;}.BUNTAI_WOLF_JEWELRY_WOLF_JEWELRY_24_cls-5{stroke-width:1.08px;}.BUNTAI_WOLF_JEWELRY_WOLF_JEWELRY_24_cls-6{fill:#754c24;stroke-miterlimit:10;}.BUNTAI_WOLF_JEWELRY_WOLF_JEWELRY_24_cls-6,.BUNTAI_WOLF_JEWELRY_WOLF_JEWELRY_24_cls-8{stroke-width:1.1px;}.BUNTAI_WOLF_JEWELRY_WOLF_JEWELRY_24_cls-7{fill:#333;}</style>
  </defs>
  <path class="BUNTAI_WOLF_JEWELRY_WOLF_JEWELRY_24_cls-1" d="M169.81,109.14c0-.22,0-.43,0-.64a52.44,52.44,0,0,0-2.62-14.11,17.27,17.27,0,0,0-3.48-6.23,3.85,3.85,0,0,0-3,2.24c.76.5,1.95,2.31,3,5.42a42.79,42.79,0,0,1,1.8,7.59,64.08,64.08,0,0,1,.66,8.92v.59c0,10.68-2.25,17.6-4.1,20.73a4.26,4.26,0,0,1-1.71,1.92c-1.65-.53-5.81-8.1-5.81-22.65,0-10.33,1.08-15.47,2.89-18.74.15-2.4.47-4.85.49-6.68-3.42,4.06-7.18,14.56-7.18,25.42,0,14.61,4.3,26.46,9.61,26.46a3.63,3.63,0,0,0,1.59-.37c4.55-2.08,8-13,8-26.09C169.91,111.64,169.88,110.38,169.81,109.14Z" />
  <path class="BUNTAI_WOLF_JEWELRY_WOLF_JEWELRY_24_cls-2" d="M160.59,93.54a4,4,0,0,1-.32-1.54,3.9,3.9,0,0,1,.35-1.6,3.85,3.85,0,0,1,3-2.24,3.44,3.44,0,0,1,.46,0A4.09,4.09,0,0,1,167,89a4.35,4.35,0,0,1,1.33,2.9" />
  <path class="BUNTAI_WOLF_JEWELRY_WOLF_JEWELRY_24_cls-3" d="M244.56,404A18.45,18.45,0,0,0,233,386.84a18.06,18.06,0,0,0-6.88-1.34A18.46,18.46,0,1,0,244.56,404Zm-18.42-20.63A20.63,20.63,0,1,1,205.56,404,20.61,20.61,0,0,1,226.14,383.33Z" />
  <path class="BUNTAI_WOLF_JEWELRY_WOLF_JEWELRY_24_cls-4" d="M233,386.84a18.46,18.46,0,0,1-12.37,34.75c-6.61-9.47,3.81-15,11.07-19.81S233,386.84,233,386.84Zm-3.58,28a3.3,3.3,0,1,0-3.3,3.31A3.3,3.3,0,0,0,229.44,414.85Z" />
  <path d="M233,386.84s6,10.08-1.3,14.94S214,412.12,220.65,421.59a18.47,18.47,0,0,1,5.49-36.09A18.06,18.06,0,0,1,233,386.84Zm-3.58,8.57a3.3,3.3,0,1,0-3.3,3.32A3.3,3.3,0,0,0,229.44,395.41Z" />
  <path class="BUNTAI_WOLF_JEWELRY_WOLF_JEWELRY_24_cls-4" d="M229.44,395.41a3.3,3.3,0,1,1-3.3-3.3A3.31,3.31,0,0,1,229.44,395.41Z" />
  <path d="M229.44,414.85a3.3,3.3,0,1,1-3.3-3.31A3.31,3.31,0,0,1,229.44,414.85Z" />
  <path class="BUNTAI_WOLF_JEWELRY_WOLF_JEWELRY_24_cls-5" d="M233,386.84a18.41,18.41,0,1,1-6.88-1.34A18.06,18.06,0,0,1,233,386.84Z" />
  <path class="BUNTAI_WOLF_JEWELRY_WOLF_JEWELRY_24_cls-5" d="M229.44,395.41a3.3,3.3,0,1,1-3.3-3.3A3.31,3.31,0,0,1,229.44,395.41Z" />
  <path class="BUNTAI_WOLF_JEWELRY_WOLF_JEWELRY_24_cls-5" d="M229.44,414.85a3.3,3.3,0,1,1-3.3-3.31A3.31,3.31,0,0,1,229.44,414.85Z" />
  <path class="BUNTAI_WOLF_JEWELRY_WOLF_JEWELRY_24_cls-5" d="M246.72,404a20.58,20.58,0,1,1-20.58-20.63A20.6,20.6,0,0,1,246.72,404Z" />
  <path class="BUNTAI_WOLF_JEWELRY_WOLF_JEWELRY_24_cls-5" d="M233,386.84s6,10.08-1.3,14.94S214,412.12,220.65,421.59" />
  <path class="BUNTAI_WOLF_JEWELRY_WOLF_JEWELRY_24_cls-6" d="M317.11,288.91a3.81,3.81,0,0,0-1-.75,4.46,4.46,0,0,0-4.28-.08l-.83.49,3.87,2.4c-10.9,24-35.45,68.33-80.21,84.73h-.07c-.7.28-1.39.54-2.12.79,0,0,0,0,0,0s-.08,0-.14.05h0L231,377c-.56-.12-1.11-.26-1.67-.39-.8-.21-1.6-.41-2.39-.63-45.57-12.27-68.6-43.72-79.93-68.35a146.13,146.13,0,0,1-6.75-17.39c.94-1,1.7-2,2.55-2.91-6.52-2.45-6.29,3-5.7,4.54a159.36,159.36,0,0,0,6.65,17c11.67,25.37,35.34,57.74,82.32,70.35l.43.12h0l1.83.47h0l0,0h.1v0l2.12.5a2.13,2.13,0,0,0,.42.06,1.91,1.91,0,0,0,.58-.1c.51-.18,1-.35,1.54-.55h0c.83-.28,1.63-.57,2.46-.87l0,0h0c44.95-16.4,70.49-61.09,81.88-85.8.09-.18.16-.36.25-.54A4.33,4.33,0,0,0,317.11,288.91Z" />
  <path class="BUNTAI_WOLF_JEWELRY_WOLF_JEWELRY_24_cls-7" d="M227,375.84l2.37.62s2.46-1.33,3.47.54.54,3.23-.77,3.81-3.26.08-3.63-.95a5.15,5.15,0,0,0-2.28-.49s.95,3.52,4.11,3.82a4.6,4.6,0,0,0,5.41-4.08,4.29,4.29,0,0,0-2.55-4.54A4.93,4.93,0,0,0,227,375.84Z" />
  <path class="BUNTAI_WOLF_JEWELRY_WOLF_JEWELRY_24_cls-8" d="M226.07,379.24a4.74,4.74,0,0,0,4.31,4.07l.48,0a4.94,4.94,0,0,0,3.23-1.19,4.49,4.49,0,0,0,1.6-3.22,1.06,1.06,0,0,0,0-.25,4.54,4.54,0,0,0-1.1-3,4.94,4.94,0,0,0-3.75-1.7,4.85,4.85,0,0,0-3.93,2l2.39.63a2.71,2.71,0,0,1,3-.06,2.5,2.5,0,0,1,1.2,2.13,2.32,2.32,0,0,1-.29,1.13,2.62,2.62,0,0,1-2.36,1.42,2.65,2.65,0,0,1-2.32-1.34h0Z" />
</svg>