<svg xmlns="http://www.w3.org/2000/svg" viewBox="0 0 432 432">
  <defs>
    <style>.BUNTAI_WOLF_JEWELRY_WOLF_JEWELRY_1_cls-1{isolation:isolate;}.BUNTAI_WOLF_JEWELRY_WOLF_JEWELRY_1_cls-2{fill:#d2a548;}.BUNTAI_WOLF_JEWELRY_WOLF_JEWELRY_1_cls-3{fill:#5897a8;}.BUNTAI_WOLF_JEWELRY_WOLF_JEWELRY_1_cls-10,.BUNTAI_WOLF_JEWELRY_WOLF_JEWELRY_1_cls-4,.BUNTAI_WOLF_JEWELRY_WOLF_JEWELRY_1_cls-5,.BUNTAI_WOLF_JEWELRY_WOLF_JEWELRY_1_cls-7{fill:none;stroke-linecap:round;stroke-linejoin:round;}.BUNTAI_WOLF_JEWELRY_WOLF_JEWELRY_1_cls-10,.BUNTAI_WOLF_JEWELRY_WOLF_JEWELRY_1_cls-11,.BUNTAI_WOLF_JEWELRY_WOLF_JEWELRY_1_cls-4,.BUNTAI_WOLF_JEWELRY_WOLF_JEWELRY_1_cls-5,.BUNTAI_WOLF_JEWELRY_WOLF_JEWELRY_1_cls-7{stroke:#000;}.BUNTAI_WOLF_JEWELRY_WOLF_JEWELRY_1_cls-4{stroke-width:0.46px;}.BUNTAI_WOLF_JEWELRY_WOLF_JEWELRY_1_cls-5{stroke-width:1.2px;}.BUNTAI_WOLF_JEWELRY_WOLF_JEWELRY_1_cls-6{opacity:0.43;mix-blend-mode:multiply;}.BUNTAI_WOLF_JEWELRY_WOLF_JEWELRY_1_cls-7{stroke-width:1.06px;}.BUNTAI_WOLF_JEWELRY_WOLF_JEWELRY_1_cls-8{fill:#c7a858;}.BUNTAI_WOLF_JEWELRY_WOLF_JEWELRY_1_cls-9{fill:#fc9819;}.BUNTAI_WOLF_JEWELRY_WOLF_JEWELRY_1_cls-10{stroke-width:1.6px;}.BUNTAI_WOLF_JEWELRY_WOLF_JEWELRY_1_cls-11{fill:#834932;stroke-miterlimit:10;stroke-width:1.66px;}</style>
  </defs>
  <g class="BUNTAI_WOLF_JEWELRY_WOLF_JEWELRY_1_cls-1">
    <g id="jewelries">
      <path class="BUNTAI_WOLF_JEWELRY_WOLF_JEWELRY_1_cls-2" d="M166,122a6.46,6.46,0,0,1-3.16,5.55,6.37,6.37,0,0,0-1.05-2.24,4,4,0,1,0-4.48,0,6.2,6.2,0,0,0-1.05,2.24A6.45,6.45,0,1,1,166,122Z" />
      <path class="BUNTAI_WOLF_JEWELRY_WOLF_JEWELRY_1_cls-3" d="M181.86,154.73a48.44,48.44,0,0,1-16.34-8.92,12.85,12.85,0,0,1-2.59-2.67c-1.62-2.4-1.69-5.47-1.67-8.37v-.26s.28-3.38-.49-4.19-2.74-1.14-3.12,1.46c0,0-.12.88-.44,2.29-.79,3.42-2.85,9.89-7.65,14h0a37.58,37.58,0,0,1-15.6,3.59,5.85,5.85,0,0,0-.13,2.35c-1.05.12-2.1.21-3.15.26a4.28,4.28,0,0,0-.59,1.85,1.92,1.92,0,0,0,.59,1.33,2,2,0,0,0,1.37.51,2.14,2.14,0,0,0,.13,1.8s0,0,0,0a2.58,2.58,0,0,0,1,.91,7.66,7.66,0,0,0,1.26.49,7,7,0,0,0-.22,1.11h0a10.27,10.27,0,0,0-.1,1.57,2.78,2.78,0,0,1,1.72,1.54,5.3,5.3,0,0,1,.34,2.57l.7.16,1.34.33c.05.36.11.72.16,1.09a2.44,2.44,0,0,1,1.15.4,3.82,3.82,0,0,1,1.06,1.06,3.1,3.1,0,0,1,.42,2.64l.29-.06a2.09,2.09,0,0,1,1.72.52,2.17,2.17,0,0,1,.29.24,4.5,4.5,0,0,0,1.78,1.36,3.29,3.29,0,0,0,1.36,0l.26,0a8.13,8.13,0,0,1,5,.95,8,8,0,0,1,2.88,2.67c.16.26.32.53.46.8s.29.58.42.89a2.16,2.16,0,0,0,.66,1c.31-.36.68-.59,1-.95a5.83,5.83,0,0,1,1.28-1.2,2,2,0,0,1,1.69-.24,3.37,3.37,0,0,1,4.34-.3,5.42,5.42,0,0,1,6.08-.57c0-.11,0-.22.05-.33a3.42,3.42,0,0,1,2-2.37,2.44,2.44,0,0,0,.9-.44c.39-.4.32-1.08.54-1.6,0,0,0,0,0,0a2.82,2.82,0,0,1,1-1,3,3,0,0,0,1.06-1,1,1,0,0,0-.23-1.32l0-.14c.11-.56.37-1.16.46-1.71l.15-.93a7.63,7.63,0,0,1,.43-1.77,2.58,2.58,0,0,1,1.2-1.34.58.58,0,0,1,.17-.06c.31-.11.64-.16,1-.27a1.2,1.2,0,0,0,.82-.77c.14-.57-.38-1.05-.68-1.55a2.26,2.26,0,0,1-.29-1.37,2.35,2.35,0,0,1,.78-1.58,12,12,0,0,1,1.13-.72,1.74,1.74,0,0,0,.73-.92s0-.09,0-.13,0-.08,0-.13A3.75,3.75,0,0,1,181.86,154.73Z" />
      <path class="BUNTAI_WOLF_JEWELRY_WOLF_JEWELRY_1_cls-2" d="M163.12,129.73a6.8,6.8,0,0,1-1.86,5v-.26s.28-3.38-.49-4.19-2.74-1.14-3.12,1.46c0,0-.12.88-.44,2.29a7.51,7.51,0,0,1-1.23-4.34,8.78,8.78,0,0,1,.28-2.23,6.2,6.2,0,0,1,1.05-2.24,2.89,2.89,0,0,1,2.24-1.27,2.92,2.92,0,0,1,2.24,1.27,6.37,6.37,0,0,1,1.05,2.24A8.78,8.78,0,0,1,163.12,129.73Z" />
      <path class="BUNTAI_WOLF_JEWELRY_WOLF_JEWELRY_1_cls-4" d="M163.15,146.4c2.63,3,6.21,4.95,9.8,6.65a94.57,94.57,0,0,1,8.78,4.39" />
      <path class="BUNTAI_WOLF_JEWELRY_WOLF_JEWELRY_1_cls-4" d="M179.09,160.66A115.52,115.52,0,0,0,169,152.85" />
      <path class="BUNTAI_WOLF_JEWELRY_WOLF_JEWELRY_1_cls-4" d="M165.63,152.67a51.38,51.38,0,0,1,12.66,12" />
      <path class="BUNTAI_WOLF_JEWELRY_WOLF_JEWELRY_1_cls-4" d="M161.69,149.44c2.06,3.5,4.38,6.86,6.68,10.2l5.22,7.59c.75,1.08,1.49,2.16,2.29,3.2" />
      <path class="BUNTAI_WOLF_JEWELRY_WOLF_JEWELRY_1_cls-4" d="M170.59,178.39a96.4,96.4,0,0,1-10.39-27.62l-.09-.45A69.37,69.37,0,0,0,174,174" />
      <path class="BUNTAI_WOLF_JEWELRY_WOLF_JEWELRY_1_cls-4" d="M162.07,178.66A96.35,96.35,0,0,1,158.91,151" />
      <path class="BUNTAI_WOLF_JEWELRY_WOLF_JEWELRY_1_cls-4" d="M151.73,176.65h0A74.12,74.12,0,0,0,157.44,151l0-.75" />
      <path class="BUNTAI_WOLF_JEWELRY_WOLF_JEWELRY_1_cls-4" d="M157.11,162.24a68.58,68.58,0,0,1-2,17.87" />
      <path class="BUNTAI_WOLF_JEWELRY_WOLF_JEWELRY_1_cls-4" d="M143,174.16a106.07,106.07,0,0,0,9.13-17.2h0c.22-.53.44-1.07.65-1.61,1-2.49,1.91-5,2.71-7.57" />
      <path class="BUNTAI_WOLF_JEWELRY_WOLF_JEWELRY_1_cls-4" d="M146.45,175.73a29.25,29.25,0,0,0,3.5-7.17,78.16,78.16,0,0,0,2.6-11.43" />
      <path class="BUNTAI_WOLF_JEWELRY_WOLF_JEWELRY_1_cls-4" d="M136.88,168.18a58.17,58.17,0,0,0,14.37-13.45" />
      <path class="BUNTAI_WOLF_JEWELRY_WOLF_JEWELRY_1_cls-4" d="M144.38,164.71q-2.41,2.65-4.85,5.29" />
      <path class="BUNTAI_WOLF_JEWELRY_WOLF_JEWELRY_1_cls-4" d="M134.23,162.34A101.3,101.3,0,0,0,151,151.8" />
      <path class="BUNTAI_WOLF_JEWELRY_WOLF_JEWELRY_1_cls-4" d="M132.18,159.81a111.1,111.1,0,0,0,12.29-5.8" />
      <path class="BUNTAI_WOLF_JEWELRY_WOLF_JEWELRY_1_cls-5" d="M157.21,134.07a7.51,7.51,0,0,1-1.23-4.34,8.78,8.78,0,0,1,.28-2.23,6.2,6.2,0,0,1,1.05-2.24,2.89,2.89,0,0,1,2.24-1.27,2.92,2.92,0,0,1,2.24,1.27,6.37,6.37,0,0,1,1.05,2.24,8.78,8.78,0,0,1,.28,2.23,6.8,6.8,0,0,1-1.86,5" />
      <path class="BUNTAI_WOLF_JEWELRY_WOLF_JEWELRY_1_cls-5" d="M149.56,148.11a37,37,0,0,0,4.6-2.58" />
      <path class="BUNTAI_WOLF_JEWELRY_WOLF_JEWELRY_1_cls-5" d="M133.83,154.06a5.85,5.85,0,0,1,.13-2.35,37.58,37.58,0,0,0,15.6-3.59" />
      <path class="BUNTAI_WOLF_JEWELRY_WOLF_JEWELRY_1_cls-5" d="M149.56,148.12h0c4.8-4.15,6.86-10.62,7.65-14,.32-1.41.44-2.29.44-2.29.38-2.6,2.35-2.27,3.12-1.46s.49,4.19.49,4.19v.26c0,2.9.05,6,1.67,8.37a12.85,12.85,0,0,0,2.59,2.67,48.44,48.44,0,0,0,16.34,8.92,3.75,3.75,0,0,0-.1,2.45s0,.08,0,.13,0,.09,0,.13a1.74,1.74,0,0,1-.73.92,12,12,0,0,0-1.13.72,2.35,2.35,0,0,0-.78,1.58,2.26,2.26,0,0,0,.29,1.37c.3.5.82,1,.68,1.55a1.2,1.2,0,0,1-.82.77c-.31.11-.64.16-1,.27a.58.58,0,0,0-.17.06,2.58,2.58,0,0,0-1.2,1.34,7.63,7.63,0,0,0-.43,1.77l-.15.93c-.09.55-.35,1.15-.46,1.71l0,.14a1,1,0,0,1,.23,1.32,3,3,0,0,1-1.06,1,2.82,2.82,0,0,0-1,1s0,0,0,0c-.22.52-.15,1.2-.54,1.6a2.44,2.44,0,0,1-.9.44,3.42,3.42,0,0,0-2,2.37c0,.11,0,.22-.05.33a5.42,5.42,0,0,0-6.08.57,3.37,3.37,0,0,0-4.34.3,2,2,0,0,0-1.69.24,5.83,5.83,0,0,0-1.28,1.2c-.32.36-.69.59-1,.95a2.16,2.16,0,0,1-.66-1c-.13-.31-.27-.6-.42-.89s-.3-.54-.46-.8a8,8,0,0,0-2.88-2.67,8.13,8.13,0,0,0-5-.95l-.26,0a3.29,3.29,0,0,1-1.36,0,4.5,4.5,0,0,1-1.78-1.36,2.17,2.17,0,0,0-.29-.24,2.09,2.09,0,0,0-1.72-.52l-.29.06a3.1,3.1,0,0,0-.42-2.64,3.82,3.82,0,0,0-1.06-1.06,2.44,2.44,0,0,0-1.15-.4c0-.37-.11-.73-.16-1.09l-1.34-.33-.7-.16a5.3,5.3,0,0,0-.34-2.57,2.78,2.78,0,0,0-1.72-1.54,10.27,10.27,0,0,1,.1-1.57h0a7,7,0,0,1,.22-1.11,7.66,7.66,0,0,1-1.26-.49,2.58,2.58,0,0,1-1-.91s0,0,0,0a2.14,2.14,0,0,1-.13-1.8,2,2,0,0,1-1.37-.51,1.92,1.92,0,0,1-.59-1.33,4.28,4.28,0,0,1,.59-1.85c1,0,2.1-.14,3.15-.26a51.29,51.29,0,0,0,20-6.66" />
      <path class="BUNTAI_WOLF_JEWELRY_WOLF_JEWELRY_1_cls-5" d="M157.31,125.26a4,4,0,1,1,4.48,0" />
      <path class="BUNTAI_WOLF_JEWELRY_WOLF_JEWELRY_1_cls-5" d="M162.84,127.5a6.45,6.45,0,1,0-6.58,0" />
      <g class="BUNTAI_WOLF_JEWELRY_WOLF_JEWELRY_1_cls-6">
        <path d="M159.55,115.5a2.06,2.06,0,0,0,0,2.66c-2.46.31-6,2.67-2.24,7.1a5.91,5.91,0,0,1,2.53-1.27s-2.5,3.12-.29,5.75c-.19,1.88-2.65,17.15-4.48,22.93s-2.52,7.71-2.52,7.71A34.06,34.06,0,0,0,157.12,150a183.87,183.87,0,0,1-4.57,20.48c-.94,3.41-1.86,5.73-1.86,5.73a26.41,26.41,0,0,0-5-.43c-1.25.2-3.24-1.95-3.9-2.36a2.82,2.82,0,0,1-.79-.61,4.23,4.23,0,0,0-2.42-3.5c-.7-1.07-.84-1.08-.84-1.08l-1.31-.26a4.79,4.79,0,0,0-2.32-4.22c0-2.13,0-2.73,0-2.73a3.1,3.1,0,0,1-2.41-3c-1.71-1-1.83-1.75-1.83-1.75l.82-2.18s1.19,1.19,10,.41a20.29,20.29,0,0,0,13.22-6.12s-9.86,4.3-15.41,5a40.13,40.13,0,0,1-5.32.49l.81-2.09s8.51.4,14.87-3.42a22.39,22.39,0,0,0,7.65-10.92c1.25-4.17.49-4.05.49-4.05a5.18,5.18,0,0,1-1-5.1,53.71,53.71,0,0,0-3.06-4.57c0-.09-.46-4.74,2.1-6.29A13.9,13.9,0,0,1,159.55,115.5Z" />
        <path d="M158.87,152.4s-.94,18.94,1,27.12c1.46-.68,3.13-1.43,4.65,0C160,162.24,158.72,156.59,158.87,152.4Z" />
      </g>
      <line class="BUNTAI_WOLF_JEWELRY_WOLF_JEWELRY_1_cls-7" x1="159.72" y1="115.5" x2="159.72" y2="109.29" />
      <path class="BUNTAI_WOLF_JEWELRY_WOLF_JEWELRY_1_cls-8" d="M159.71,109.29c-1.68,0-1.4-2.29-1.4-2.29h0a4.57,4.57,0,0,0,2.06.44,1.87,1.87,0,0,0,.92-.23C161.29,107.34,161.33,109.29,159.71,109.29Z" />
      <path class="BUNTAI_WOLF_JEWELRY_WOLF_JEWELRY_1_cls-8" d="M162.59,100.26c.62,2,.49,6-1.3,6.94a1.87,1.87,0,0,1-.92.23,4.57,4.57,0,0,1-2.06-.44c-1.54-.74-2.32-2.48-2.22-5.13a8.78,8.78,0,0,1,.48-2.58,5.46,5.46,0,0,1,1.5-2.32,1.88,1.88,0,0,1,1.37-.57,2.31,2.31,0,0,1,1.67,1,3.59,3.59,0,0,1-.74.14h0a4.24,4.24,0,0,0-1.88,2.9c-.48,2.24.31,4.77,1.45,4.77s1.28-2.94,1.2-4.49h.09A5.61,5.61,0,0,0,162.59,100.26Z" />
      <path class="BUNTAI_WOLF_JEWELRY_WOLF_JEWELRY_1_cls-8" d="M157.6,89.31c.4,2.06.6,2.84.6,2.84s-2,1.78-.87,4a2.36,2.36,0,0,0,.74.83,5.46,5.46,0,0,0-1.5,2.32A6,6,0,0,1,157.6,89.31Z" />
      <path class="BUNTAI_WOLF_JEWELRY_WOLF_JEWELRY_1_cls-8" d="M165.29,96.64a4.87,4.87,0,0,1-2.7,3.62,5.11,5.11,0,0,1-1.4.42l-.09,0a5.23,5.23,0,0,1-2.65-.28,4.26,4.26,0,0,1,1.87-2.9h.05a3.59,3.59,0,0,0,.74-.14A2.18,2.18,0,0,0,162.67,96a1.81,1.81,0,0,0,.09-.58c0-2.38-.94-2.5-.94-2.5s0-.12-.11-.32a3.07,3.07,0,0,1,2.38-2A8.16,8.16,0,0,1,165.29,96.64Z" />
      <path class="BUNTAI_WOLF_JEWELRY_WOLF_JEWELRY_1_cls-7" d="M156.57,99.28a6,6,0,0,1,1-10c.42,1.7.6,2.84.6,2.84s-2,1.78-.87,4a2.36,2.36,0,0,0,.74.83" />
      <path class="BUNTAI_WOLF_JEWELRY_WOLF_JEWELRY_1_cls-7" d="M158.45,100.42a5.23,5.23,0,0,0,2.65.28l.09,0a5.11,5.11,0,0,0,1.4-.42,4.87,4.87,0,0,0,2.7-3.62,8.16,8.16,0,0,0-1.2-6" />
      <path class="BUNTAI_WOLF_JEWELRY_WOLF_JEWELRY_1_cls-7" d="M161.71,92.61c.06.2.11.32.11.32s.91.12.94,2.5a1.81,1.81,0,0,1-.09.58,2.18,2.18,0,0,1-1.56,1.36,3.59,3.59,0,0,1-.74.14" />
      <path class="BUNTAI_WOLF_JEWELRY_WOLF_JEWELRY_1_cls-7" d="M162.59,100.26c.62,2,.49,6-1.3,6.94a1.87,1.87,0,0,1-.92.23,4.57,4.57,0,0,1-2.06-.44c-1.54-.74-2.32-2.48-2.22-5.13a8.78,8.78,0,0,1,.48-2.58,5.46,5.46,0,0,1,1.5-2.32,1.88,1.88,0,0,1,1.37-.57,2.31,2.31,0,0,1,1.67,1" />
      <path class="BUNTAI_WOLF_JEWELRY_WOLF_JEWELRY_1_cls-7" d="M161.1,100.7c.08,1.55.06,4.49-1.2,4.49s-1.93-2.53-1.45-4.77a4.24,4.24,0,0,1,1.88-2.9h0" />
      <path class="BUNTAI_WOLF_JEWELRY_WOLF_JEWELRY_1_cls-7" d="M158.31,107s-.28,2.29,1.4,2.29,1.58-2,1.58-2.09h0" />
      <path class="BUNTAI_WOLF_JEWELRY_WOLF_JEWELRY_1_cls-7" d="M161.89,95.06a3,3,0,0,1-.36-1.43,2.88,2.88,0,0,1,.18-1,3.07,3.07,0,0,1,2.38-2,3,3,0,0,1,.52,0,2.07,2.07,0,0,1,2.08,1.54" />
      <path class="BUNTAI_WOLF_JEWELRY_WOLF_JEWELRY_1_cls-9" d="M244.82,337.87c-2.41-3.88-8.4-3.71-11.65-2.84a9.82,9.82,0,0,0-7.36,6.46c-2.27,5.84-1.7,9.51,2.18,13s5.76,3.78,4.32,7.67-3.63,3-3.49,5.41,5.77,5,10.53,1.76,7.68-6.61,8.22-14.67S247.24,341.76,244.82,337.87Zm-3.7,11.21c-1.19,3.63-3.16,6-7.1,2.35s-.36-9.25-.36-9.25c.42-.74,3-2.4,5.18-1.38S242.3,345.45,241.12,349.08Z" />
      <path class="BUNTAI_WOLF_JEWELRY_WOLF_JEWELRY_1_cls-10" d="M241.26,334.65a14.86,14.86,0,0,0-12.13,1.74c-13.2,17.77,6.06,18.32,3.39,25.23-.82,2.16-1.9,3.23-3,3.68-1.43.59-1.58,3-.28,3.9a8.4,8.4,0,0,0,6.91,1.64C251.48,367.2,249.44,336.78,241.26,334.65Z" />
      <path class="BUNTAI_WOLF_JEWELRY_WOLF_JEWELRY_1_cls-10" d="M233.66,342.19s-3.59,5.55.36,9.24,5.91,1.28,7.1-2.35-.14-7.27-2.28-8.28S234.08,341.44,233.66,342.19Z" />
      <path class="BUNTAI_WOLF_JEWELRY_WOLF_JEWELRY_1_cls-11" d="M233.93,344h-.69c-38.77,0-79.77-47.59-87.82-57.34a16.34,16.34,0,0,1,2.52-2.42c-5.65-5.52-10,.69-6.75,5.13.39.39,47.61,59.22,92.05,59.22H234a2.34,2.34,0,0,0,0-4.58Z" />
      <path class="BUNTAI_WOLF_JEWELRY_WOLF_JEWELRY_1_cls-11" d="M305,287.17c1.27,1.15,1.71,1.35,2.72,2.33-28.09,42.64-57.85,54-67.29,54.56A2.15,2.15,0,0,0,238.3,346a2.26,2.26,0,0,0,1.6,2.6,5.62,5.62,0,0,0,4.12.26c28-8.39,51.64-31.9,67.16-56.44C313.66,288.59,310.3,283.67,305,287.17Z" />
    </g>
  </g>
</svg>