<svg id="jewelries" xmlns="http://www.w3.org/2000/svg" viewBox="0 0 432 432">
  <defs>
    <style>.BUNTAI_WOLF_JEWELRY_WOLF_JEWELRY_7_cls-1{fill:#ffc33e;stroke-width:2px;}.BUNTAI_WOLF_JEWELRY_WOLF_JEWELRY_7_cls-1,.BUNTAI_WOLF_JEWELRY_WOLF_JEWELRY_7_cls-2,.BUNTAI_WOLF_JEWELRY_WOLF_JEWELRY_7_cls-5{stroke:#000;}.BUNTAI_WOLF_JEWELRY_WOLF_JEWELRY_7_cls-1,.BUNTAI_WOLF_JEWELRY_WOLF_JEWELRY_7_cls-5{stroke-linecap:round;stroke-linejoin:round;}.BUNTAI_WOLF_JEWELRY_WOLF_JEWELRY_7_cls-2{fill:#754c24;stroke-miterlimit:10;stroke-width:1.87px;}.BUNTAI_WOLF_JEWELRY_WOLF_JEWELRY_7_cls-3{fill:#22b573;}.BUNTAI_WOLF_JEWELRY_WOLF_JEWELRY_7_cls-4{fill:#c7a858;}.BUNTAI_WOLF_JEWELRY_WOLF_JEWELRY_7_cls-5{fill:none;stroke-width:1px;}</style>
  </defs>
  <circle class="BUNTAI_WOLF_JEWELRY_WOLF_JEWELRY_7_cls-1" cx="157.22" cy="111.21" r="3.15" />
  <path class="BUNTAI_WOLF_JEWELRY_WOLF_JEWELRY_7_cls-1" d="M157.22,114.35s-4.16,41.06-4.16,51.43,4.16,12.88,4.16,12.88,4.16-2.51,4.16-12.88S157.22,114.35,157.22,114.35Z" />
  <path class="BUNTAI_WOLF_JEWELRY_WOLF_JEWELRY_7_cls-2" d="M227.41,368.34l-.11,0-.71.26c-.19.06-.38.14-.59.2l-.57.19h0l-.07,0-.41.14a1.8,1.8,0,0,1-.38.07h-.25l-.24,0-.08,0-.09,0-.57-.13-1.22-.29-.73-.18-.66-.18-.13,0c-1.26-.32-2.51-.66-3.73-1C177.36,356,157.23,329,147.18,307.72a133.65,133.65,0,0,1-7-18.25l0-.08c-.12-.52-1-4.31,1.73-5.37a5.32,5.32,0,0,1,4.9.68.49.49,0,0,1,0,.82c-.78.47-1.43.87-3.59,2a135.63,135.63,0,0,0,6.91,19.13c9.65,20.41,28.91,46.27,66.31,57.56h0c1.76.53,3.54,1,5.38,1.49l2.56.62,1.12-.38Z" />
  <path class="BUNTAI_WOLF_JEWELRY_WOLF_JEWELRY_7_cls-2" d="M310.82,289.46s-.57,1.62-.57,1.62c-.65,1.64-1.34,3.32-2.09,5-9.15,20.59-34.68,54.83-76.3,70.63l-4.45,1.62-.11,0c-.14.05-.4.16-.71.26l-1.2.4-.07,0c-.33.1-.62.18-.79.21h-.25l-.32,0-.09,0c-.67-.14-1.77-.41-2.52-.6l-.79-.21-.13-3,1.33.32,2.56.62,1.12-.38,4.9-1.76c40.88-15.41,66-49.07,75-69.2.89-2,1.71-3.91,2.44-5.85-1.59-.89-2.29-1.54-3.19-1.94,1.07-2,5-1.79,6.17-.33C311.4,287.74,310.84,289.25,310.82,289.46Z" />
  <path class="BUNTAI_WOLF_JEWELRY_WOLF_JEWELRY_7_cls-3" d="M243.89,378c1.89,4.87-2.55,10.85-9.92,13.35s-14.87.58-16.76-4.28v0c-1.86-4.86,2.58-10.82,9.93-13.31s14.82-.6,16.74,4.23h0Z" />
  <path class="BUNTAI_WOLF_JEWELRY_WOLF_JEWELRY_7_cls-4" d="M243.46,376a6.23,6.23,0,0,1,.41,1.94c-1.92-4.83-9.4-6.73-16.74-4.23s-11.79,8.45-9.93,13.31a6.52,6.52,0,0,1-1-1.75c-1.36-3.5.62-7.59,4.63-10.56a19.92,19.92,0,0,1,5-2.67l.62-.22a23.28,23.28,0,0,1,2.5-.69,20.22,20.22,0,0,1,4.44-.45C238.15,370.73,242.16,372.66,243.46,376Z" />
  <path class="BUNTAI_WOLF_JEWELRY_WOLF_JEWELRY_7_cls-4" d="M222.86,358.71c-2.26,1-2.62,2.86-2.09,4.79a6.67,6.67,0,0,0,.34.91,63.08,63.08,0,0,0,4.67,7.63,19.92,19.92,0,0,0-5,2.67c-1.29-1.77-5-7.31-4.38-10.87A6.31,6.31,0,0,1,222.86,358.71Z" />
  <path class="BUNTAI_WOLF_JEWELRY_WOLF_JEWELRY_7_cls-4" d="M230.35,364.18c-1.61.6-3.24,1.19-4.91,1.76a5,5,0,0,0-4.33-1.53,7.2,7.2,0,0,1-.34-.91c-.53-1.93-.17-3.81,2.1-4.78a5.73,5.73,0,0,1,1.72.27l.28.1.25.11,0,0a6.74,6.74,0,0,1,.87.51h0l.3.21a16.86,16.86,0,0,1,3.51,3.58l.3.41Z" />
  <path class="BUNTAI_WOLF_JEWELRY_WOLF_JEWELRY_7_cls-4" d="M233.34,370.68a20.22,20.22,0,0,0-4.44.45,19.56,19.56,0,0,0-1.49-2.79c1.51-.52,3-1.06,4.45-1.62A17.86,17.86,0,0,1,233.34,370.68Z" />
  <path class="BUNTAI_WOLF_JEWELRY_WOLF_JEWELRY_7_cls-5" d="M243.87,377.94l0,.05c1.89,4.87-2.55,10.85-9.92,13.35s-14.87.58-16.76-4.28v0c-1.86-4.86,2.58-10.82,9.93-13.31s14.82-.6,16.74,4.23" />
  <path class="BUNTAI_WOLF_JEWELRY_WOLF_JEWELRY_7_cls-5" d="M243.87,377.94h0a6.23,6.23,0,0,0-.41-1.94c-1.3-3.34-5.31-5.27-10.12-5.32a20.22,20.22,0,0,0-4.44.45,23.28,23.28,0,0,0-2.5.69l-.62.22a19.92,19.92,0,0,0-5,2.67c-4,3-6,7.06-4.63,10.56a6.52,6.52,0,0,0,1,1.75" />
  <path class="BUNTAI_WOLF_JEWELRY_WOLF_JEWELRY_7_cls-5" d="M222.87,358.72a5.73,5.73,0,0,1,1.72.27l.28.1.25.11,0,0,.21.11c.22.12.44.25.66.4h0l.3.21a16.86,16.86,0,0,1,3.51,3.58l.3.41.18.24" />
  <path class="BUNTAI_WOLF_JEWELRY_WOLF_JEWELRY_7_cls-5" d="M228.9,371.13a19.56,19.56,0,0,0-1.49-2.79l4.45-1.62a17.86,17.86,0,0,1,1.48,4" />
  <path class="BUNTAI_WOLF_JEWELRY_WOLF_JEWELRY_7_cls-5" d="M220.81,374.71c-1.29-1.77-5-7.31-4.38-10.87a6.31,6.31,0,0,1,6.43-5.13" />
  <path class="BUNTAI_WOLF_JEWELRY_WOLF_JEWELRY_7_cls-5" d="M225.78,372a63.08,63.08,0,0,1-4.67-7.63,6.67,6.67,0,0,1-.34-.91c-.53-1.93-.17-3.81,2.09-4.79h0" />
  <path class="BUNTAI_WOLF_JEWELRY_WOLF_JEWELRY_7_cls-5" d="M221.11,364.41a5,5,0,0,1,4.33,1.53" />
  <path class="BUNTAI_WOLF_JEWELRY_WOLF_JEWELRY_7_cls-5" d="M219.64,382.36s3.7,1.57,9.79-.78,6.67-5.76,6.67-5.76" />
  <path class="BUNTAI_WOLF_JEWELRY_WOLF_JEWELRY_7_cls-5" d="M232.89,374.71a10.9,10.9,0,0,1-2.83,6.61" />
  <path class="BUNTAI_WOLF_JEWELRY_WOLF_JEWELRY_7_cls-5" d="M230.06,376.34s.88,2.79-3.16,6" />
  <path class="BUNTAI_WOLF_JEWELRY_WOLF_JEWELRY_7_cls-5" d="M225.25,382.7a7.32,7.32,0,0,0,2.62-4.68" />
  <path class="BUNTAI_WOLF_JEWELRY_WOLF_JEWELRY_7_cls-5" d="M228.22,382s-3.72,4.21-5.75,4.12,0-2.43,1.05-2.36.35,1.18-.07,1.34" />
  <path class="BUNTAI_WOLF_JEWELRY_WOLF_JEWELRY_7_cls-5" d="M222.78,388.61a23.4,23.4,0,0,1,6.61-4.54A31.32,31.32,0,0,1,239,382" />
  <path class="BUNTAI_WOLF_JEWELRY_WOLF_JEWELRY_7_cls-5" d="M230.55,388.06s-1.4-2.76-4.11-2.4" />
  <path class="BUNTAI_WOLF_JEWELRY_WOLF_JEWELRY_7_cls-5" d="M228.22,384.61s3.85,1.42,4.62,4.13" />
  <path class="BUNTAI_WOLF_JEWELRY_WOLF_JEWELRY_7_cls-5" d="M230.35,383.7s3.38,1.77,3.9,3.6" />
  <path class="BUNTAI_WOLF_JEWELRY_WOLF_JEWELRY_7_cls-5" d="M233.75,382.74s3.68.87,4.38,2.57" />
  <path class="BUNTAI_WOLF_JEWELRY_WOLF_JEWELRY_7_cls-5" d="M224,378.27s-.21,1.88,1,2.09l1.24.2S226.59,378.77,224,378.27Z" />
  <path class="BUNTAI_WOLF_JEWELRY_WOLF_JEWELRY_7_cls-5" d="M228.63,375.36s-1.2.95-.62,1.7l.57.74S229.79,377,228.63,375.36Z" />
  <path class="BUNTAI_WOLF_JEWELRY_WOLF_JEWELRY_7_cls-5" d="M233.53,381.46a3.86,3.86,0,0,1,3.29-1.8C235.93,381.3,235.6,381.2,233.53,381.46Z" />
  <path class="BUNTAI_WOLF_JEWELRY_WOLF_JEWELRY_7_cls-5" d="M238.06,379.42a2.56,2.56,0,0,1,3.34-1.28C240.47,379.43,239.46,379.48,238.06,379.42Z" />
  <path class="BUNTAI_WOLF_JEWELRY_WOLF_JEWELRY_7_cls-5" d="M236.47,378.69s.17-2.71,1.69-3.3A2.73,2.73,0,0,1,236.47,378.69Z" />
  <path class="BUNTAI_WOLF_JEWELRY_WOLF_JEWELRY_7_cls-5" d="M237.26,380.87a2.87,2.87,0,0,1,3.49,0A3.07,3.07,0,0,1,237.26,380.87Z" />
  <path class="BUNTAI_WOLF_JEWELRY_WOLF_JEWELRY_7_cls-5" d="M237.68,383.51s.27,1.34,2.78,1.13C239.86,383.66,239.84,383.3,237.68,383.51Z" />
  <path class="BUNTAI_WOLF_JEWELRY_WOLF_JEWELRY_7_cls-5" d="M234,384.2a2.76,2.76,0,0,1,2.11.85,4.36,4.36,0,0,1,1,2.11S234.14,386.58,234,384.2Z" />
  <path class="BUNTAI_WOLF_JEWELRY_WOLF_JEWELRY_7_cls-5" d="M231.21,388.74a1.36,1.36,0,0,0,.37,1.8A1.41,1.41,0,0,0,231.21,388.74Z" />
</svg>