<svg xmlns="http://www.w3.org/2000/svg" viewBox="0 0 432 432">
  <defs>
    <style>.BUNTAI_WALRUS_BODY_BUNTAI_WALRUS_BODY-19_cls-1{isolation:isolate;}.BUNTAI_WALRUS_BODY_BUNTAI_WALRUS_BODY-19_cls-11,.BUNTAI_WALRUS_BODY_BUNTAI_WALRUS_BODY-19_cls-2{opacity:0.33;}.BUNTAI_WALRUS_BODY_BUNTAI_WALRUS_BODY-19_cls-11,.BUNTAI_WALRUS_BODY_BUNTAI_WALRUS_BODY-19_cls-2,.BUNTAI_WALRUS_BODY_BUNTAI_WALRUS_BODY-19_cls-4{mix-blend-mode:multiply;}.BUNTAI_WALRUS_BODY_BUNTAI_WALRUS_BODY-19_cls-3{fill:#68605a;}.BUNTAI_WALRUS_BODY_BUNTAI_WALRUS_BODY-19_cls-4{opacity:0.22;}.BUNTAI_WALRUS_BODY_BUNTAI_WALRUS_BODY-19_cls-10,.BUNTAI_WALRUS_BODY_BUNTAI_WALRUS_BODY-19_cls-13,.BUNTAI_WALRUS_BODY_BUNTAI_WALRUS_BODY-19_cls-5{fill:none;stroke:#000;stroke-linecap:round;stroke-linejoin:round;}.BUNTAI_WALRUS_BODY_BUNTAI_WALRUS_BODY-19_cls-5{stroke-width:1.93px;}.BUNTAI_WALRUS_BODY_BUNTAI_WALRUS_BODY-19_cls-6{fill:#fff;}.BUNTAI_WALRUS_BODY_BUNTAI_WALRUS_BODY-19_cls-7{fill:#b6aa68;}.BUNTAI_WALRUS_BODY_BUNTAI_WALRUS_BODY-19_cls-8{fill:#373135;}.BUNTAI_WALRUS_BODY_BUNTAI_WALRUS_BODY-19_cls-9{fill:#7d6541;}.BUNTAI_WALRUS_BODY_BUNTAI_WALRUS_BODY-19_cls-10{stroke-width:1.7px;}.BUNTAI_WALRUS_BODY_BUNTAI_WALRUS_BODY-19_cls-12{fill:#e8cf8c;}.BUNTAI_WALRUS_BODY_BUNTAI_WALRUS_BODY-19_cls-13{stroke-width:1.37px;}</style>
  </defs>
  <g class="BUNTAI_WALRUS_BODY_BUNTAI_WALRUS_BODY-19_cls-1">
    <g id="body">
      <path class="BUNTAI_WALRUS_BODY_BUNTAI_WALRUS_BODY-19_cls-2" d="M218.88,91.74Z" />
      <path class="BUNTAI_WALRUS_BODY_BUNTAI_WALRUS_BODY-19_cls-3" d="M138.29,174.34l0,0,0,0v0c-.56.57-.89.93-1,1l0,0-.21.13c-1.95,1.27-3.68,2.34-5,3.14l-1.78,1-.24.14-.23.13a18.74,18.74,0,0,0-3.59,2.68l-.18.18-.11.11-.08.08,0,0-.21.2-.28.28-.13.14a42.19,42.19,0,0,0-3.5,4.15l0,0c-.65.86-1.27,1.73-1.86,2.57l0,.05,0,0-.71,1c-.73,1.07-1.42,2.08-2.06,3a21.82,21.82,0,0,1-2.06,2.58l-.12.12C99.92,212,86.69,223.69,75.11,236.93l-.1.12A162.49,162.49,0,0,0,60,257c-.11.15-.2.31-.3.46l0,0,0,.05c-.43.68-.86,1.37-1.28,2.07s-.71,1.18-1.06,1.78-.67,1.14-1,1.72-.67,1.16-1,1.75-.66,1.19-1,1.79l-.3.55c-.23.42-.45.84-.67,1.27l-.12.22-.51,1-.57,1.12-.29.57c-.26.53-.53,1.06-.78,1.61-.5,1-1,2.06-1.48,3.12-.38.82-.74,1.64-1.1,2.47l-.06.14a165.64,165.64,0,0,0-6.38,17.55l0,.13s0,0,0,.06a.24.24,0,0,0,0,.08s0,.1-.05.15-.09.33-.14.49c-.23.78-.46,1.55-.68,2.33-.3,1-.59,2.09-.87,3.13q-.86,3.14-1.63,6.29t-1.48,6.3q-.72,3.19-1.39,6.4a1.84,1.84,0,0,0,0,.25c-.09.42-.18.84-.26,1.26s-.16.75-.23,1.13q-.26,1.17-.48,2.34c-.58,2.76-1.13,5.53-1.69,8.29s-1.05,5.27-1.57,7.91c-.07.32-.13.64-.19,1a.14.14,0,0,0,0,.07l-.18.89c-.06.3-.12.59-.17.89-.18.87-.35,1.75-.52,2.62-.06.26-.11.52-.16.78-.2,1-.4,2-.59,3-.1.47-.19.93-.28,1.4-.05.23-.09.45-.14.68s-.09.43-.13.65c-.08.42-.17.84-.25,1.26s-.16.78-.23,1.17-.15.73-.22,1.09-.13.66-.2,1l-.18.89c0,.14-.06.27-.08.41l-.21,1c0,.18-.07.37-.11.55s-.06.28-.08.42l-.06.29,0,.16L19,405.37c0,.18-.07.37-.11.55l-7,35.06H406.62q-8.58-53-17.17-106.08c-3.24-20-6.53-40.24-13.44-58.79-13.08-35.14-23.45-42.51-42.86-70.37l-16.64-27.29-.05-.08c-.3-.5-.63-1-1-1.6,0,0-1.41-2-3.58-5l-.11-.15c-2.06-2.81-4.78-6.46-7.64-10.1l0,0-.61-.79c-.13-.15-.25-.31-.38-.47l-.13-.17-.12-.14-.62-.78c.06-1.07.11-2.15.18-3.22,0-.56.06-1.1.1-1.65.23-3.47.35-6.28.36-8.63,0-1.67,0-3.11-.14-4.37q-.06-.76-.15-1.44l-.09-.67a21.42,21.42,0,0,0-.66-2.92c-.05-.18-.11-.35-.17-.52-.11-.35-.24-.69-.37-1a48.05,48.05,0,0,0-2.28-4.66c-.12-.24-.26-.48-.41-.73l0-.05c-.14-.24-.3-.48-.47-.72l0-.05c-.17-.25-.35-.51-.55-.77l0,0c-.2-.26-.41-.54-.64-.82h0a73.21,73.21,0,0,0-6.84-7.22c-1.38-1.3-2.79-2.56-4.16-3.74-.21-.53-.42-1-.64-1.56-.07-.15-.14-.29-.2-.44-.16-.36-.33-.71-.49-1-.09-.17-.17-.34-.25-.51l-.39-.73a29.68,29.68,0,0,0-3.53-5.27l-.13-.15c-.24-.28-.49-.56-.74-.82l-.2-.22-.73-.73-.24-.23c-.24-.23-.49-.45-.74-.67l-.25-.22c-.25-.21-.51-.43-.77-.63l-.24-.18c-.27-.21-.54-.42-.82-.61l-.17-.12a28.67,28.67,0,0,0-4.21-2.41l-.06,0-.95-.42-.28-.12c-.29-.13-.6-.25-.9-.36l-.36-.14-.89-.32-.39-.14-.9-.29-.4-.13-.94-.27L264.7,97l-1-.26-.32-.08-1.08-.26-.08,0c-1.72-.39-3.5-.73-5.34-1l-.23,0-1.21-.19-.31-.05-1.2-.19-.33,0-1.26-.19-.23,0-5-.69c-6.27-1.42-13.65-3.54-20.52-2.94a60,60,0,0,0-6.21.5c-.5.06-1,.14-1.48.22h-.06c-2,.3-4,.71-5.88,1.18-9.61,2.38-18,6.48-24.26,9.74-.5.27-1,.54-1.45.82l-.45.27c-.39.24-.77.49-1.14.74l-.47.32-.91.67-.25.19-.24.19c-.3.24-.59.47-.87.72l-.52.45-.71.66-.4.38c-.31.31-.61.61-.9.92l-.17.19-.82.92a1.83,1.83,0,0,1-.13.16l-.26.31,0,0c-.2.25-.4.49-.58.74h0s0,0,0,0a33.13,33.13,0,0,0-4.28,7.42s0,0,0,0l-.22.55s0,0,0,0c-.07.18-.13.34-.18.5s0,0,0,0a13.94,13.94,0,0,0-.44,1.39h0c-1,.65-2,1.29-3,1.94l-.09.06a40.85,40.85,0,0,0-8.24,7.28A26.63,26.63,0,0,0,155.84,145c-.09.69-.15,1.39-.2,2.12,0,.57-.07,1.12-.09,1.66,0,.14,0,.29,0,.43q0,.61,0,1.2v.36c0,.49,0,1,0,1.41a1.93,1.93,0,0,0,0,.24c0,.37,0,.73,0,1.07l0,.43.06.86,0,.38c0,.36.07.7.11,1,0,.18,0,.35.07.53s0,.34.07.5.06.41.1.61,0,.18,0,.27l.09.56-.27.23-.18.15L140.4,172.63l-1.05.64Zm0,0,0,0,0,0v0c-.56.57-.89.93-1,1l0,0-.21.13c-1.95,1.27-3.68,2.34-5,3.14l-1.78,1-.24.14-.23.13a18.74,18.74,0,0,0-3.59,2.68l-.18.18-.11.11-.08.08,0,0-.21.2-.28.28-.13.14a42.19,42.19,0,0,0-3.5,4.15l0,0c-.65.86-1.27,1.73-1.86,2.57l0,.05,0,0-.71,1c-.73,1.07-1.42,2.08-2.06,3a21.82,21.82,0,0,1-2.06,2.58l-.12.12C99.92,212,86.69,223.69,75.11,236.93l-.1.12A162.49,162.49,0,0,0,60,257c-.11.15-.2.31-.3.46l0,0,0,.05c-.43.68-.86,1.37-1.28,2.07s-.71,1.18-1.06,1.78-.67,1.14-1,1.72-.67,1.16-1,1.75-.66,1.19-1,1.79l-.3.55c-.23.42-.45.84-.67,1.27l-.12.22-.51,1-.57,1.12-.29.57c-.26.53-.53,1.06-.78,1.61-.5,1-1,2.06-1.48,3.12-.38.82-.74,1.64-1.1,2.47l-.06.14a165.64,165.64,0,0,0-6.38,17.55l0,.13s0,0,0,.06a.24.24,0,0,0,0,.08s0,.1-.05.15-.09.33-.14.49c-.23.78-.46,1.55-.68,2.33-.3,1-.59,2.09-.87,3.13q-.86,3.14-1.63,6.29t-1.48,6.3q-.72,3.19-1.39,6.4a1.84,1.84,0,0,0,0,.25c-.09.42-.18.84-.26,1.26s-.16.75-.23,1.13q-.26,1.17-.48,2.34c-.58,2.76-1.13,5.53-1.69,8.29s-1.05,5.27-1.57,7.91c-.07.32-.13.64-.19,1a.14.14,0,0,0,0,.07l-.18.89c-.06.3-.12.59-.17.89-.18.87-.35,1.75-.52,2.62-.06.26-.11.52-.16.78-.2,1-.4,2-.59,3-.1.47-.19.93-.28,1.4-.05.23-.09.45-.14.68s-.09.43-.13.65c-.08.42-.17.84-.25,1.26s-.16.78-.23,1.17-.15.73-.22,1.09-.13.66-.2,1l-.18.89c0,.14-.06.27-.08.41l-.21,1c0,.18-.07.37-.11.55s-.06.28-.08.42l-.06.29,0,.16L19,405.37c0,.18-.07.37-.11.55l-7,35.06H406.62q-8.58-53-17.17-106.08c-3.24-20-6.53-40.24-13.44-58.79-13.08-35.14-23.45-42.51-42.86-70.37l-16.64-27.29-.05-.08c-.3-.5-.63-1-1-1.6h-.26c-.45-.72-.94-1.49-1.49-2.31l-.11-.16c-.52-.78-1.09-1.62-1.72-2.51l-.11-.15c-2.07-2.93-4.74-6.48-8.27-10.92-.13-.15-.25-.31-.38-.47l-.13-.17a1.34,1.34,0,0,1-.11-.14h0l-.62-.78c.06-1.07.11-2.15.18-3.22,0-.56.06-1.1.1-1.65.23-3.47.35-6.28.36-8.63,0-1.67,0-3.11-.14-4.37q-.06-.76-.15-1.44l-.09-.67a21.42,21.42,0,0,0-.66-2.92c-.05-.18-.11-.35-.17-.52-.11-.35-.24-.69-.37-1a48.05,48.05,0,0,0-2.28-4.66c-.12-.24-.26-.48-.41-.73l0-.05c-.14-.24-.3-.48-.47-.72l0-.05c-.17-.25-.35-.51-.55-.77l0,0c-.2-.26-.41-.54-.64-.82h0a73.21,73.21,0,0,0-6.84-7.22c-1.38-1.3-2.79-2.56-4.16-3.74-.21-.53-.42-1-.64-1.56-.07-.15-.14-.29-.2-.44-.16-.36-.33-.71-.49-1-.09-.17-.17-.34-.25-.51l-.39-.73a29.68,29.68,0,0,0-3.53-5.27l-.13-.15c-.24-.28-.49-.56-.74-.82l-.2-.22-.73-.73-.24-.23c-.24-.23-.49-.45-.74-.67l-.25-.22c-.25-.21-.51-.43-.77-.63l-.24-.18c-.27-.21-.54-.42-.82-.61l-.17-.12a28.67,28.67,0,0,0-4.21-2.41l-.06,0-.95-.42-.28-.12c-.29-.13-.6-.25-.9-.36l-.36-.14-.89-.32-.39-.14-.9-.29-.4-.13-.94-.27L264.7,97l-1-.26-.32-.08-1.08-.26-.08,0c-1.72-.39-3.5-.73-5.34-1l-.23,0-1.21-.19-.31-.05-1.2-.19-.33,0-1.26-.19-.23,0-5-.69c-6.27-1.42-13.65-3.54-20.52-2.94a60,60,0,0,0-6.21.5c-.5.06-1,.14-1.48.22h-.06c-2,.3-4,.71-5.88,1.18-9.61,2.38-18,6.48-24.26,9.74-.5.27-1,.54-1.45.82l-.45.27c-.39.24-.77.49-1.14.74l-.47.32-.91.67-.25.19-.24.19c-.3.24-.59.47-.87.72l-.52.45-.71.66-.4.38c-.31.31-.61.61-.9.92l-.17.19-.82.92a1.83,1.83,0,0,1-.13.16l-.26.31,0,0c-.2.25-.4.49-.58.74h0s0,0,0,0a33.13,33.13,0,0,0-4.28,7.42s0,0,0,0l-.22.55s0,0,0,0c-.07.18-.13.34-.18.5s0,0,0,0a13.94,13.94,0,0,0-.44,1.39h0c-1,.65-2,1.29-3,1.94l-.09.06a40.85,40.85,0,0,0-8.24,7.28A26.63,26.63,0,0,0,155.84,145c-.09.69-.15,1.39-.2,2.12,0,.57-.07,1.12-.09,1.66,0,.14,0,.29,0,.43q0,.61,0,1.2v.36c0,.49,0,1,0,1.41a1.93,1.93,0,0,0,0,.24c0,.37,0,.73,0,1.07l0,.43.06.86,0,.38c0,.36.07.7.11,1,0,.18,0,.35.07.53s0,.34.07.5.06.41.1.61,0,.18,0,.27l.09.56-.27.23-.18.15L140.4,172.63l-1.05.64Z" />
      <g class="BUNTAI_WALRUS_BODY_BUNTAI_WALRUS_BODY-19_cls-4">
        <path d="M136.86,175.33l15.8,26.89c-1.55,2.74-3.14,15.51-3.26,15.69s-4.62,6.61-4.31,17.29-.58,18.51-6.17,30.3c3.41-2,7.29-8.36,7.29-8.36l.26,6.7S128.64,274,120.25,294.46s-24.87,86-24.87,86,5.3-17.25,25.34-61.41c-8.39,20.62-17.48,73.75-17.48,74.92s8.39-30.76,19.11-50.78C113,374,106.5,441,106.5,441H11.88c-.67,0,6-30.51,7-35.06,0-.18.07-.37.11-.55v0L27.44,363l0-.16.06-.29c0-.14,0-.28.08-.42s.07-.37.11-.55l.21-1c0-.14.05-.27.08-.41l.18-.89c.07-.33.13-.66.2-1s.14-.73.22-1.09.15-.78.23-1.17.17-.84.25-1.26c0-.22.08-.43.13-.65s.09-.45.14-.68c.09-.47.18-.93.28-1.4.19-1,.39-2,.59-3,.05-.26.1-.52.16-.78.17-.87.34-1.75.52-2.62,0-.13.05-.26.08-.39.1-.48.2-1,.29-1.46.06-.32.12-.64.19-1,1.33-6.56,2.76-13.69,4-19.67.08-.42.17-.84.26-1.26a1.84,1.84,0,0,1,0-.25,229.56,229.56,0,0,1,6.19-24.94c0-.05,0-.1.05-.15a.24.24,0,0,1,0-.08s0,0,0-.06l0-.13c1.65-5.16,3.67-10.73,6.38-17.55l.06-.14a120.75,120.75,0,0,1,11.13-21l0-.05,0,0c.1-.15.19-.31.3-.46a231.5,231.5,0,0,1,15-19.95l.1-.12c7.14-8.68,23.31-23.81,32.48-32.84a156.31,156.31,0,0,0,12.1-13.52l0,0,0-.05c2.47-3.07,4.25-5.47,5.38-6.75l.13-.14.28-.28.21-.2,0,0,.08-.08Z" />
        <path d="M348.37,441s-8.39-20.41-9.67-43.24c6.84,23.91,13.63,30.17,13.63,30.17s2.45-30.65,2.91-59,.47-35,.47-35,11.3,35.19,10.72,59.19-1.63,37.05-1.63,37.05l-.24,4.66,1.89-7.81v9l.91,5Z" />
        <path d="M138.29,174.34l0,0,0,0c-.56.57-.89.93-1,1l0,0-.08.35v.07L136,181.25l5.59,22.57,11.06-1.6s-.17-35.06,3.51-43.54l-.27.23-.18.15-16.37,14.21Z" />
      </g>
      <path class="BUNTAI_WALRUS_BODY_BUNTAI_WALRUS_BODY-19_cls-5" d="M389.45,334.9c-3.24-20-6.53-40.24-13.44-58.79-13.08-35.14-23.45-42.51-42.86-70.37l-16.64-27.29c-.32-.53-.66-1.09-1-1.68,0,0-6.55-9.32-13.21-17.61.06-1.07.11-2.15.18-3.22,0-.56.06-1.1.1-1.65.23-3.47.35-6.28.36-8.63,0-1.67,0-3.11-.14-4.37q-.06-.76-.15-1.44l-.09-.67a21.42,21.42,0,0,0-.66-2.92c-.05-.18-.11-.35-.17-.52-.11-.35-.24-.69-.37-1a48.05,48.05,0,0,0-2.28-4.66c-.12-.24-.26-.48-.41-.73l0-.05c-.14-.24-.3-.48-.47-.72l0-.05c-.17-.25-.35-.51-.55-.77l0,0c-.2-.26-.41-.54-.64-.82h0a73.21,73.21,0,0,0-6.84-7.22c-1.38-1.3-2.79-2.56-4.16-3.74-.21-.53-.42-1-.64-1.56-.07-.15-.14-.29-.2-.44-.16-.36-.33-.71-.49-1-.09-.17-.17-.34-.25-.51l-.39-.73a29.68,29.68,0,0,0-3.53-5.27l-.13-.15c-.24-.28-.49-.56-.74-.82l-.2-.22-.73-.73-.24-.23c-.24-.23-.49-.45-.74-.67l-.25-.22c-.25-.21-.51-.43-.77-.63l-.24-.18c-.27-.21-.54-.42-.82-.61l-.17-.12a28.67,28.67,0,0,0-4.21-2.41l-.06,0-.95-.42-.28-.12c-.29-.13-.6-.25-.9-.36l-.36-.14-.89-.32-.39-.14-.9-.29-.4-.13-.94-.27L264.7,97l-1-.26-.32-.08-1.08-.26-.08,0c-1.72-.39-3.5-.73-5.34-1l-.23,0-1.21-.19-.31-.05-1.2-.19-.33,0-1.26-.19-.23,0-5-.69c-6.27-1.42-13.65-3.54-20.52-2.94a60,60,0,0,0-6.21.5c-.5.06-1,.14-1.48.22h-.06c-2,.3-4,.71-5.88,1.18-9.61,2.38-18,6.48-24.26,9.74-.5.27-1,.54-1.45.82l-.45.27c-.39.24-.77.49-1.14.74l-.47.32-.91.67-.25.19-.24.19c-.3.24-.59.47-.87.72l-.52.45-.71.66-.4.38c-.31.31-.61.61-.9.92l-.17.19-.82.92a1.83,1.83,0,0,1-.13.16l-.29.34c-.2.25-.4.49-.58.74h0s0,0,0,0a33.13,33.13,0,0,0-4.28,7.42s0,0,0,0l-.22.55s0,0,0,0c-.07.18-.13.34-.18.5s0,0,0,0a13.94,13.94,0,0,0-.44,1.39h0c-1.08.67-2.11,1.33-3.08,2a40.85,40.85,0,0,0-8.24,7.28A26.63,26.63,0,0,0,155.84,145c-.09.69-.15,1.39-.2,2.12,0,.57-.07,1.12-.09,1.66,0,.14,0,.29,0,.43q0,.61,0,1.2v.36c0,.49,0,1,0,1.41a1.93,1.93,0,0,0,0,.24c0,.37,0,.73,0,1.07l0,.43.06.86,0,.38c0,.36.07.7.11,1,0,.18,0,.35.07.53s0,.34.07.5.06.41.1.61,0,.18,0,.27l.09.56-.27.23-15.5,13.72c-.81.71-1.61,1.33-2.11,1.71l0,0,0,0-.44.33c-3.62,2.39-6.53,4.43-7.8,5.19l-.23.13a18.74,18.74,0,0,0-3.59,2.68c-.13.13-.27.25-.4.39l-.21.2-.28.28-.13.14a42.19,42.19,0,0,0-3.5,4.15l0,0c-.65.86-1.27,1.73-1.86,2.57-1,1.48-2,2.88-2.82,4.07a21.82,21.82,0,0,1-2.06,2.58l-.12.12C99.92,212,86.69,223.69,75.11,236.93l-.1.12A162.49,162.49,0,0,0,60,257c-.11.15-.2.31-.3.46a160.2,160.2,0,0,0-10.08,18.65c-.38.82-.74,1.64-1.1,2.47l-.06.14a165.64,165.64,0,0,0-6.38,17.55c-2.52,8.32-4.52,16.82-6.32,25.36a1.84,1.84,0,0,0,0,.25c-.92,4.34-1.79,8.68-2.66,13q-1.91,9.59-3.82,19.18c0,.22-.09.43-.13.65l-.9,4.51-.18.89c0,.14-.06.27-.08.41l-.21,1c0,.18-.07.37-.11.55s-.06.28-.08.42l-.06.29q-4.3,21.54-8.6,43.08l-7,35.06H406.62Q398,387.94,389.45,334.9ZM137.18,175.12l-.21.14c-3.11,2-5.45,3.77-6.75,4.51l-.24.14-.23.13a18.74,18.74,0,0,0-3.59,2.68l-.18.18-.11.11-.08.08,0,0-.21.2-.28.28-.13.14a42.19,42.19,0,0,0-3.5,4.15l0,0c-.65.86-1.27,1.73-1.86,2.57l0,.05c-1,1.46-2,2.84-2.79,4a21.82,21.82,0,0,1-2.06,2.58l-.12.12C99.92,212,86.69,223.69,75.11,236.93l-.1.12A162.49,162.49,0,0,0,60,257c-.11.15-.2.31-.3.46l0,0,0,.05c-.43.68-.86,1.37-1.28,2.07s-.71,1.18-1.06,1.78a159.15,159.15,0,0,0-7.69,14.72c-.38.82-.74,1.64-1.1,2.47l-.06.14a165.64,165.64,0,0,0-6.38,17.55l0,.13s0,0,0,.06c-.3,1-.6,2-.89,3.05s-.59,2.09-.87,3.13q-.86,3.14-1.63,6.29t-1.48,6.3q-.72,3.19-1.39,6.4a1.84,1.84,0,0,0,0,.25c-.09.42-.18.84-.26,1.26-.83,3.92-1.61,7.84-2.4,11.76-.88,4.44-1.78,8.89-2.65,13.34-.06.26-.11.52-.16.78-.2,1-.4,2-.59,3-.1.47-.19.93-.28,1.4-.05.23-.09.45-.14.68s-.09.43-.13.65c-.08.42-.17.84-.25,1.26s-.16.78-.23,1.17-.15.73-.22,1.09-.13.66-.2,1l-.18.89c0,.14-.06.27-.08.41l-.21,1c0,.18-.07.37-.11.55s-.06.28-.08.42l-.06.29,0,.16L19,405.37c0,.18-.07.37-.11.55l-7,35.06H406.62q-8.58-53-17.17-106.08c-3.24-20-6.53-40.24-13.44-58.79-13.08-35.14-23.45-42.51-42.86-70.37l-16.64-27.29c-.32-.53-7.58-11-14.24-19.29.06-1.07.11-2.15.18-3.22,0-.56.06-1.1.1-1.65.23-3.47.35-6.28.36-8.63,0-1.67,0-3.11-.14-4.37q-.06-.76-.15-1.44l-.09-.67a21.42,21.42,0,0,0-.66-2.92c-.05-.18-.11-.35-.17-.52-.11-.35-.24-.69-.37-1a48.05,48.05,0,0,0-2.28-4.66c-.12-.24-.26-.48-.41-.73l0-.05c-.14-.24-.3-.48-.47-.72l0-.05c-.17-.25-.35-.51-.55-.77l0,0c-.2-.26-.41-.54-.64-.82h0a73.21,73.21,0,0,0-6.84-7.22c-1.38-1.3-2.79-2.56-4.16-3.74-.21-.53-.42-1-.64-1.56-.07-.15-.14-.29-.2-.44-.16-.36-.33-.71-.49-1-.09-.17-.17-.34-.25-.51l-.39-.73a29.68,29.68,0,0,0-3.53-5.27l-.13-.15c-.24-.28-.49-.56-.74-.82l-.2-.22-.73-.73-.24-.23c-.24-.23-.49-.45-.74-.67l-.25-.22c-.25-.21-.51-.43-.77-.63l-.24-.18c-.27-.21-.54-.42-.82-.61l-.17-.12a28.67,28.67,0,0,0-4.21-2.41l-.06,0-.95-.42-.28-.12c-.29-.13-.6-.25-.9-.36l-.36-.14-.89-.32-.39-.14-.9-.29-.4-.13-.94-.27L264.7,97l-1-.26-.32-.08-1.08-.26-.08,0c-1.72-.39-3.5-.73-5.34-1l-.23,0-1.21-.19-.31-.05-1.2-.19-.33,0-1.26-.19-.23,0-5-.69c-6.27-1.42-13.65-3.54-20.52-2.94a60,60,0,0,0-6.21.5c-.5.06-1,.14-1.48.22h-.06c-2,.3-4,.71-5.88,1.18-9.61,2.38-18,6.48-24.26,9.74-.5.27-1,.54-1.45.82l-.45.27c-.39.24-.77.49-1.14.74l-.47.32-.91.67-.25.19-.24.19c-.3.24-.59.47-.87.72l-.52.45-.71.66-.4.38c-.31.31-.61.61-.9.92l-.17.19-.82.92a1.83,1.83,0,0,1-.13.16l-.26.31,0,0c-.2.25-.4.49-.58.74h0s0,0,0,0a33.13,33.13,0,0,0-4.28,7.42s0,0,0,0l-.22.55s0,0,0,0c-.07.18-.13.34-.18.5s0,0,0,0a13.94,13.94,0,0,0-.44,1.39h0c-1,.65-2,1.29-3,1.94l-.09.06a40.85,40.85,0,0,0-8.24,7.28A26.63,26.63,0,0,0,155.84,145c-.09.69-.15,1.39-.2,2.12,0,.57-.07,1.12-.09,1.66,0,.14,0,.29,0,.43q0,.61,0,1.2v.36c0,.49,0,1,0,1.41a1.93,1.93,0,0,0,0,.24c0,.37,0,.73,0,1.07l0,.43.06.86,0,.38c0,.36.07.7.11,1,0,.18,0,.35.07.53s0,.34.07.5.06.41.1.61,0,.18,0,.27l.09.56-.27.23-.18.15L140.4,172.63m-2.18,1.78v0l0,0,0,0" />
      <polyline class="BUNTAI_WALRUS_BODY_BUNTAI_WALRUS_BODY-19_cls-5" points="341.23 399.73 346.65 419.09 352.78 440.98" />
      <path class="BUNTAI_WALRUS_BODY_BUNTAI_WALRUS_BODY-19_cls-5" d="M359.07,441c1.62-25.38,4.06-57.05,4.06-57.05" />
      <path class="BUNTAI_WALRUS_BODY_BUNTAI_WALRUS_BODY-19_cls-5" d="M94.77,441c1.57-17.37,4.11-42.39,7.16-60.27l5.12-30.1" />
      <path class="BUNTAI_WALRUS_BODY_BUNTAI_WALRUS_BODY-19_cls-5" d="M83.08,326.21s.06.92,3.19,40.35c2,25.22,4.12,55.1,5.45,74.42" />
      <path class="BUNTAI_WALRUS_BODY_BUNTAI_WALRUS_BODY-19_cls-3" d="M302.55,154.28c-.42,10.45-.24,23.68-1,34-.26,3.93-3.52,4.66-4.48,9,2.43,24.5-3.23,32.24-16.13,43.22-5.92,5.05-13.5,10-21.59,7.74a16.11,16.11,0,0,1-4.78-2.12l-.09.13c0,.09.37,6.14.38,6.47-9.11,8.07-24.71,6.23-33.19-1.87-.33-.6-1-1.84-1.45-2.63a33,33,0,0,1-6.43.53c-10.34.1-19.61-5.1-28.31-10.1a11.58,11.58,0,0,1-3.47-2.86,0,0,0,0,1,0,0c-9.54-9-16.61-26.09-13.14-40.93h0c-1.27-1.43-9,2.33-8.8.89-1.44-4.86-1.27-13.8-1.67-19.56a0,0,0,0,1,0,0c0-.65,0-1.34,0-2,0,0,0,0,0,0h0a47.17,47.17,0,0,0-.39-6.21c0-.21,0-.42-.08-.62,0,0,0,0,0,0-4.93-17.77-2.94-36.5,15.38-45.91h0c5.76-19,29.2-26.35,47.18-29.8,9-1.58,17.91.44,26.63,2.43,9,1.32,18.33,2.09,26.38,6.61,7,3.35,9.61,10.62,13.7,16.45C300.68,130.66,303.73,130.5,302.55,154.28Z" />
      <path class="BUNTAI_WALRUS_BODY_BUNTAI_WALRUS_BODY-19_cls-2" d="M274.44,101.17c-.33-.22-.67-.42-1-.62a30.9,30.9,0,0,0-3.1-1.55l-1-.43-1.15-.44c-.28-.11-.57-.21-.86-.3-.6-.21-1.22-.4-1.85-.58l-.82-.23c-.22-.07-.44-.13-.67-.18l-1.48-.37c-.57-.14-1.16-.27-1.76-.39l-1-.2-2-.36-1.3-.22c-2.07-.34-4.2-.65-6.41-1L247.62,94l-.57-.08h0l-2.62-.36-1-.31-.35-.1c-.4-.13-.81-.24-1.21-.35l-1-.28c-.53-.14-1.05-.26-1.58-.38-.69-.15-1.39-.28-2.08-.41s-1.33-.21-2-.3-1-.13-1.55-.18l-.74-.07c-1.19-.11-2.37-.18-3.55-.19l-1.18,0c-.52,0-1,0-1.56,0-1.66,0-3.3.16-4.92.35l-1.07.13-.19,0-1,.14-.58.09c-12.93-.1-27.91,9.78-33.52,12.52-2.42,1.19-4.58,3.71-6.4,6.44-.18.21-.35.43-.52.65l0,0-.09.13-.08.12c-.44.58-.84,1.16-1.22,1.72a31.81,31.81,0,0,0-2.31,4.13c-.12.24-.22.47-.32.7s-.19.44-.27.64-.12.31-.18.45l-.23.61a.08.08,0,0,1,0,0,13.23,13.23,0,0,1-3.67,3.52l0,0c-.73.5-1.43,1-2.1,1.52l0,.18a77.51,77.51,0,0,0-5.93,5.44c-7.65,7.7-7,22.46-5.88,27.26a.19.19,0,0,1,0,.07c0,.26.08.52.13.78h0q.1.63.24,1.23a.13.13,0,0,1,0,.06c.14.71.29,1.4.44,2.1s.3,1.39.44,2.1l.24,1.2a.43.43,0,0,0,0,.11c0,.15.05.3.08.45s.1.59.15.9l0,.21s0,.06,0,.1,0,0,0,.06v0h0c0,.19,0,.38.07.58a.06.06,0,0,0,0,0c.09.64.16,1.31.21,2s.11,1.49.14,2.3c0,.2,0,.4,0,.6v.08a2.25,2.25,0,0,1,0,.26v.1c0,.12,0,.24,0,.37s0,.32,0,.48h0s0,0,0,0v.44c0,.4,0,.79,0,1.17,0,.13,0,.27,0,.4a0,0,0,0,0,0,0,7.07,7.07,0,0,0,.21,1.22c0,.18.11.35.17.53.38,1.07.14,18.89.91,19.86,1.61,2,4.66-12.91,6.18-11.25a5.87,5.87,0,0,1,1.81,3.08h0a8.42,8.42,0,0,0-.06,1.18v0a6.25,6.25,0,0,0,1.25,4h0c-.22,1-.41,2-.54,2.94,0,0-5.94,5.43-2.9-1.76-6.84-6.19,5.47-22.47,5.47-22.47h0a10.35,10.35,0,0,0,1.12-.85c7.58-6.49,12.53-20.53,12.53-20.53l.73-4.24a40.11,40.11,0,0,0-6.65,7.13l.59-1.11c-5.34,7.29-10.75,9.09-13.6,5.89-1.79-2-2.55-6.52-2.87-9.6a23,23,0,0,1,1-4.71c-2.14-4.1,2.45-8.46,2.45-8.46s1.38-.4,3.25-.74a43.07,43.07,0,0,1,14-16.2c2-1.4,4.3-3,6.81-4.7a61.57,61.57,0,0,0,7.4-5.88,22.19,22.19,0,0,0,4.56-5.42c-.48.32-16,10.53-22,12.59A28.61,28.61,0,0,1,191,104.55h0c5.37-3.34,12.13-8,31.83-10.27,6.77-.66,15.91,2.09,24.33,2.75,8.14.64,19.28,1.59,30,6.14A24,24,0,0,0,274.44,101.17Z" />
      <path class="BUNTAI_WALRUS_BODY_BUNTAI_WALRUS_BODY-19_cls-6" d="M287.54,273h0c-.07,3.72-.15,7.65-.24,11.7,0,.55,0,1.11,0,1.67,0,1.06,0,2.13-.07,3.21-.11,5-.23,10.1-.37,15.22l-.06,2.32q-.09,3.2-.18,6.35c0,.6,0,1.2-.05,1.79s0,.89,0,1.34c-.13,4.4-.27,8.73-.41,12.88,0,.42,0,.84,0,1.25s0,.89-.05,1.33l-.06,1.61-.09,2.41c-.1,2.62-.2,5.15-.31,7.55q-.25,5.65-.87,11.2c-.06.59-.13,1.18-.2,1.77s-.14,1.18-.22,1.77-.15,1.17-.23,1.75-.16,1.17-.25,1.75c-.89,6.1-2,12-3.31,17.47,0,.1-.05.21-.07.31h0c-.15.65-.31,1.3-.46,1.94l-.21.82c-4.76,19.29-10.91,33-12.51,33s-1.61-1.51-2.22-10.11c-.08-1.09-.17-2.29-.27-3.62a.13.13,0,0,1,0-.06c-.34-4.41-.86-10.2-1.71-17.78-.12-1.09-.24-2.28-.37-3.55-.1-1-.19-2-.29-3.07-.07-.72-.13-1.47-.2-2.24,0-.19,0-.37-.05-.55-.4-4.65-.81-10-1.22-15.82h0c0-.1,0-.2,0-.3-.07-.93-.13-1.87-.2-2.83,0-.05,0-.11,0-.16-.26-3.76-.52-7.67-.77-11.67l-.18-2.88c-.19-2.91-.37-5.86-.54-8.82-.07-1-.13-2.07-.19-3.11-.38-6.48-.75-13-1.1-19.21,0-.08,0-.16,0-.23a.81.81,0,0,0,0-.16.53.53,0,0,0,0-.13c0-.1,0-.19,0-.26s0-.24,0-.31,0-.31,0-.47h0c0-.21,0-.42,0-.63v-.09l0-.72,0-.53c-.31-5.66-.6-11.06-.86-16,0-.56-.05-1.1-.08-1.65-.23-4.42-.44-8.43-.61-11.88-.06-1.19-.12-2.31-.17-3.35-.29-5.91-.46-9.45-.46-9.45l-.65-11-.38-6.46a44.21,44.21,0,0,0,2.64,3.74c.18.24.38.49.59.73s.41.51.63.75l0,0,.05.06.69.79c.19.21.38.41.58.61l.46.48c.35.35.7.7,1.06,1l0,0h0c.36.34.73.68,1.11,1l-.21-.27-.15-.19-.22-.29-.09-.12-.07-.1c-.14-.19-.28-.38-.41-.58h0l-.09-.14c-.21-.3-.41-.61-.62-.94a.05.05,0,0,1,0,0c-.24-.38-.48-.77-.72-1.18l-.09-.16-.09-.15-.3-.54-.61-1.13c-.22-.42-.43-.84-.65-1.28-.34-.69-.67-1.41-1-2.15-.15-.32-.29-.64-.43-1,.07,0,.67.54,1.64,1.38l.41.36.61.53.43.39.94.87c.17.15.34.3.51.47.68.64,1.41,1.34,2.18,2.1h0l1.15,1.18c.76.78,1.54,1.61,2.33,2.48l0,0,.06.06s0,0,0,0l.11.12c1,1.15,2.07,2.38,3.06,3.64l.05.06.93,1.22c.19.26.39.51.59.76a5.17,5.17,0,0,0,.42.51c.13.17.26.32.4.48s.29.34.45.51c.3.34.61.67.92,1s.49.5.74.73c.75.73,1.5,1.4,2.26,2,.45.37.89.73,1.34,1.07.22.17.44.34.67.5l.33.24.27.2.05,0,.14.1.05,0,.46.31.29.2,0,0,.05,0,.08.06.1.07.07,0,.1.07.4.26a.37.37,0,0,0,.12.07l.6.38,1.13.68.53.31.06,0a3.07,3.07,0,0,1,.31.17l.13.07a1.71,1.71,0,0,1,.23.13l.06,0,.48.26.11.06h0l.58.3.16.08h0l.27.14.05,0,.86.4,0,0h.06Z" />
      <path class="BUNTAI_WALRUS_BODY_BUNTAI_WALRUS_BODY-19_cls-6" d="M219,247.85c0,.21,0,.42,0,.64,0,.9,0,1.86,0,2.91h0l-.35.4-.67.74-.17.17-.18.19-.16.17-.33.35s0,0,0,0l-.17.18,0,0c-.5.5-1,1-1.51,1.41h0c-.18.16-.35.31-.53.45l0,0s0,0,0,0h0a.05.05,0,0,0,.05,0l.92-.54q.66-.39,1.29-.81l.44-.29.34-.23.33-.22.66-.46c-.08,4.84-.19,11-.33,17.9h0c0,.08,0,.63,0,1.56,0,.24,0,.48,0,.72,0,.61,0,1.21,0,1.83-.08,4.2-.18,8.63-.28,13.18,0,1.13,0,2.26-.08,3.4-.11,5-.24,10-.37,15.1,0,1.24-.07,2.47-.1,3.69-.17,6.25-.36,12.43-.56,18.28,0,1-.07,2.05-.1,3.05-.06,1.54-.11,3.05-.17,4.53h0c0,1.14-.09,2.26-.13,3.36-.06,1.32-.11,2.61-.17,3.86,0,.08,0,.15,0,.22-.16,3.65-.4,7.28-.72,10.87,0,.36-.06.72-.1,1.07s-.05.72-.09,1.07c0,.13,0,.27,0,.4-.05.51-.1,1-.16,1.53-.08.8-.17,1.61-.26,2.41-.34,3-.71,6-1.12,8.85,0,.18-.05.36-.08.54-.11.76-.22,1.52-.34,2.28-.23,1.51-.46,3-.71,4.45l-.06.33c-.17,1-.34,2-.52,3-2.72,15.23-6.12,27.29-8.35,32.39-.75,1.71-1.36,2.64-1.78,2.64-.82,0-1.64-.37-2.47-1.8a4.86,4.86,0,0,1-.3-.56,25.42,25.42,0,0,1-1.63-4.76,0,0,0,0,1,0,0c-.12-.49-.24-1-.37-1.57l0-.12c0-.2-.09-.42-.14-.64-1-4.73-2.1-11.74-3.26-22.09,0-.24-.05-.48-.08-.72-.06-.53-.12-1.08-.17-1.64s-.11-1-.16-1.52c0-.07,0-.15,0-.24-.56-5.65-1.14-12.9-1.72-21,0-.24,0-.49,0-.73-.06-.81-.12-1.63-.17-2.46l0-.39c-.09-1.2-.17-2.43-.25-3.67,0-.33,0-.66-.07-1-.18-2.57-.34-5.19-.51-7.86-.06-.9-.12-1.77-.17-2.62,0-.5-.07-1-.1-1.52q-.06-1-.12-1.92c0-.05,0-.09,0-.14s0-.26,0-.4,0-.45,0-.68c-.06-.79-.1-1.57-.15-2.36-.08-1.25-.16-2.51-.23-3.77,0-.6-.08-1.21-.11-1.82-.22-3.73-.44-7.47-.65-11.15-.06-1-.12-2.06-.17-3.08-.13-2.17-.25-4.32-.36-6.43,0-.81-.09-1.6-.13-2.4,0-.27,0-.53,0-.79-.18-3.12-.34-6.16-.49-9.07h0c-.09-1.72-.18-3.39-.26-5-.06-1.08-.11-2.13-.17-3.16s-.12-2.31-.17-3.41c0-.48,0-.94-.07-1.4a1.77,1.77,0,0,1,0-.23c0-.54-.05-1.06-.08-1.58s0-.82-.06-1.21l-.06-1.18c-.08-1.73-.16-3.32-.23-4.78,0-.56-.05-1.09-.07-1.6,0-.13,0-.26,0-.39h0c0-.22,0-.41,0-.56s0-.11,0-.15,0-.3,0-.36v0h.08l0,0h0l.07,0,.71-.32.05,0,.14-.07c.55-.25,1.11-.5,1.69-.78s1.28-.63,1.93-1c.33-.17.66-.34,1-.52l.69-.37.15-.08,1.13-.65c.33-.19.66-.38,1-.59s.46-.27.68-.42l.3-.18,1-.64h0c.32-.21.63-.43.94-.65s.63-.45.93-.68h0l.95-.74c.22-.17.44-.34.65-.52s.71-.6,1.05-.91l.85-.75,0,0c.54-.47,1.08-.93,1.63-1.38s1.28-1.05,1.93-1.55,1.53-1.18,2.3-1.74l.08-.06.18-.14.05,0c.83-.6,1.65-1.19,2.45-1.74l1.19-.82c1.5-1,2.93-1.94,4.23-2.75l.77-.48c.19-.13.38-.24.57-.35S218.72,248,219,247.85Z" />
      <path class="BUNTAI_WALRUS_BODY_BUNTAI_WALRUS_BODY-19_cls-7" d="M218.23,288.1c0,1.13,0,2.26-.08,3.4a34.36,34.36,0,0,0-16.05-4.73c-.34,0-.69,0-1,0h-.16a34.12,34.12,0,0,0-13.12,2.68l-.07,0c-.06-1.08-.11-2.13-.17-3.16l.07,0a36.86,36.86,0,0,1,13.46-2.52l1,0A37.6,37.6,0,0,1,218.23,288.1Z" />
      <path class="BUNTAI_WALRUS_BODY_BUNTAI_WALRUS_BODY-19_cls-7" d="M188.47,303.54l.09,1.75c0,.48.05.95.08,1.44a27.54,27.54,0,0,1,16.57-2.27,27.24,27.24,0,0,1,12.47,5.83c0-1.23.07-2.46.1-3.69a29.81,29.81,0,0,0-29.31-3.06Z" />
      <path class="BUNTAI_WALRUS_BODY_BUNTAI_WALRUS_BODY-19_cls-7" d="M194.29,345.64a53,53,0,0,0-2.94,5.83q.24,3.72.5,7.25a56.76,56.76,0,0,1,5-11.56c3.9-6.66,11.09-13.85,20.14-15.54,0-1,.07-2,.1-3.05C208.3,330,199.76,336.34,194.29,345.64Z" />
      <path class="BUNTAI_WALRUS_BODY_BUNTAI_WALRUS_BODY-19_cls-7" d="M206.33,315.31a1.5,1.5,0,0,0-.43-2.75,34,34,0,0,0-16.9.6c.05,1,.11,2,.17,3.08a31,31,0,0,1,12.33-1.34,44.3,44.3,0,0,0-11.68,12.49c.1,1.79.21,3.58.32,5.37,0,.08,0,.16,0,.24A41.35,41.35,0,0,1,206.33,315.31Z" />
      <path class="BUNTAI_WALRUS_BODY_BUNTAI_WALRUS_BODY-19_cls-7" d="M199.66,358.28a1.5,1.5,0,0,0,.21,1.77,1.48,1.48,0,0,0,1.75.33,22.52,22.52,0,0,1,13.81-1.84.17.17,0,0,0,0-.07c.1-1,.2-2,.28-2.93a25.68,25.68,0,0,0-11.13.54,56.35,56.35,0,0,1,12-12.7c.06-1.25.11-2.54.17-3.86A59.7,59.7,0,0,0,199.66,358.28Z" />
      <path class="BUNTAI_WALRUS_BODY_BUNTAI_WALRUS_BODY-19_cls-7" d="M218.55,273.09c0,.61,0,1.21,0,1.83s0,1,0,1.57a40.71,40.71,0,0,0-16.42-5.38,38.55,38.55,0,0,0-7.67-.05,39.68,39.68,0,0,0-7.48,1.43h0c0-.56-.05-1.09-.07-1.6a3,3,0,0,0,0-.31.25.25,0,0,1,0-.08h0c0-.22,0-.41,0-.56s0-.11,0-.15,0-.3,0-.36A41.47,41.47,0,0,1,202,268.1,43.83,43.83,0,0,1,218.55,273.09Z" />
      <path class="BUNTAI_WALRUS_BODY_BUNTAI_WALRUS_BODY-19_cls-7" d="M202,376.46a22.31,22.31,0,0,0-8.41,3.27c.12,1.21.23,2.34.35,3.4a19.16,19.16,0,0,1,18.42-2.74c.18-1,.35-2,.52-3A22.46,22.46,0,0,0,202,376.46Z" />
      <path class="BUNTAI_WALRUS_BODY_BUNTAI_WALRUS_BODY-19_cls-7" d="M287.26,286.34c0,1.06,0,2.13-.07,3.21a34.16,34.16,0,0,0-13.42-2.81h-.15c-.88,0-1.76.05-2.64.13a34.67,34.67,0,0,0-14.05,4.39l-.07,0c0-.41,0-.81-.07-1.21,0-.56-.05-1.1-.08-1.65,0-.16,0-.31,0-.46l.08,0a37.89,37.89,0,0,1,14.12-4.08c.9-.07,1.81-.11,2.72-.12A36.9,36.9,0,0,1,287.26,286.34Z" />
      <path class="BUNTAI_WALRUS_BODY_BUNTAI_WALRUS_BODY-19_cls-7" d="M286.84,303.82c0,.32,0,.63,0,.95l-.06,2.32a27.63,27.63,0,0,0-15.27-2.91c-.67.07-1.34.16-2,.28a27.37,27.37,0,0,0-11.63,5.16h0c0-.08,0-.16,0-.23a.81.81,0,0,0,0-.16.53.53,0,0,0,0-.13c0-.1,0-.19,0-.26s0-.24,0-.31,0-.15,0-.15,0-.22,0-.32a.28.28,0,0,1,0-.09l0-.55v-.09l0-.72,0-.53h0A29.79,29.79,0,0,1,269,301.51c.81-.15,1.63-.26,2.45-.33A30.44,30.44,0,0,1,286.84,303.82Z" />
      <path class="BUNTAI_WALRUS_BODY_BUNTAI_WALRUS_BODY-19_cls-7" d="M284.66,354.8c-.06.59-.13,1.18-.2,1.77s-.14,1.18-.22,1.77-.15,1.17-.23,1.75-.16,1.17-.25,1.75a60.87,60.87,0,0,0-5.95-14.68,37.11,37.11,0,0,0-4.9-6.55A29.11,29.11,0,0,0,259.24,332l-.11,0c-.07-1-.13-2.07-.19-3.11a.38.38,0,0,1,.1,0,30.87,30.87,0,0,1,13.66,7.29,39.57,39.57,0,0,1,7.69,9.48A55.53,55.53,0,0,1,284.66,354.8Z" />
      <path class="BUNTAI_WALRUS_BODY_BUNTAI_WALRUS_BODY-19_cls-7" d="M268.79,312.56a1.49,1.49,0,0,0-.44,2.75,41.38,41.38,0,0,1,16.42,18.17c.39.84.74,1.7,1.07,2.57q.07-2,.15-4,0-1.27.09-2.58a44.34,44.34,0,0,0-12.89-14.55,31.16,31.16,0,0,1,13.3,1.67c0-1,.06-2.08.1-3.13A34,34,0,0,0,268.79,312.56Z" />
      <path class="BUNTAI_WALRUS_BODY_BUNTAI_WALRUS_BODY-19_cls-7" d="M274.82,360.05a1.43,1.43,0,0,1-1.18.47,1.26,1.26,0,0,1-.57-.14,22.43,22.43,0,0,0-12.13-2.08h-.11c-.07-.93-.13-1.87-.2-2.83,0-.05,0-.11,0-.16h.13a25.65,25.65,0,0,1,9.35.77,57.06,57.06,0,0,0-10-11.13l-.14-.12c0-.39-.05-.78-.08-1.18l-.18-2.88.13.11a59.84,59.84,0,0,1,13.81,15.06c.49.77,1,1.55,1.42,2.34A1.51,1.51,0,0,1,274.82,360.05Z" />
      <path class="BUNTAI_WALRUS_BODY_BUNTAI_WALRUS_BODY-19_cls-7" d="M285,271.69l.31.16a38.4,38.4,0,0,0-5-.79,39.63,39.63,0,0,0-9.73.31,40.45,40.45,0,0,0-14.37,5.13l-.11.06c-.06-1.19-.12-2.31-.17-3.35l.11-.06a43.83,43.83,0,0,1,14.47-4.79,42.2,42.2,0,0,1,8.33-.41H279l.11.07.27.2h0l0,0h0l.14.09.05,0,.2.14.26.18.22.15.07,0,0,0,.05,0,.06,0h0l.1.07.07,0,.1.07.4.26a.37.37,0,0,0,.12.07h0l.6.37h0c.33.21.66.4,1,.59l.15.08h0l.53.3h0l.06,0,.31.17.13.08.23.12.12.07.09.05,0,0,.18.09.12.06.11.06h0Z" />
      <path class="BUNTAI_WALRUS_BODY_BUNTAI_WALRUS_BODY-19_cls-7" d="M262.32,377.23c.1,1.07.19,2.09.29,3.07a19.06,19.06,0,0,1,17.1,2.09c.22-.91.44-1.82.66-2.75,0,0,0,0,0,0s.05-.2.07-.31a22.24,22.24,0,0,0-7.74-2.85A22.57,22.57,0,0,0,262.32,377.23Z" />
      <path class="BUNTAI_WALRUS_BODY_BUNTAI_WALRUS_BODY-19_cls-8" d="M243.28,168.19a43.24,43.24,0,0,0,7.36-7.08c2.59-3.49,5.79-4.89,7.56-2.36s2.52,3.95,2.18,5.17c-.29,1-1.33,4.36-1.6,5.25-2.94.34-5.56.4-5.56.4l3.3-5.65a15.71,15.71,0,0,0-5.83,3.44c-2.14,2.27-7.41,3.72-7.41,3.72s-7.87-1.45-11.07-3.72-8.71-3.44-8.71-3.44l4.92,5.65s-2.09,0-4.92-.18c0,0-1.72-4.26-2.15-5.47s.52-2.63,2.79-5.17,6.38-1.13,9.7,2.36S243.28,168.19,243.28,168.19Z" />
      <path class="BUNTAI_WALRUS_BODY_BUNTAI_WALRUS_BODY-19_cls-6" d="M313.88,266.73c-.16-.16-.32-.32-.47-.5s-.31-.35-.46-.53-.38-.48-.57-.73-.39-.53-.57-.8-.28-.42-.41-.63c-.32-.5-.62-1-.91-1.55l-.47-.88c-.75-1.47-1.39-3-1.92-4.31h0l0-.08c-.08,1.64-.17,3.41-.28,5.24,0,.46-.05.92-.08,1.39-.09,1.39-.19,2.82-.29,4.24,0,.48-.07.95-.11,1.42-.14,1.79-.3,3.56-.48,5.24,0,.32-.06.63-.1.94-.08.8-.18,1.58-.27,2.32,0,0,0,.06,0,.09v0h0c-.1.78-.2,1.52-.31,2.22-.05.32-.1.64-.15.94-.12.73-.25,1.4-.38,2l-.09.37c0,.19-.08.38-.13.56.06-1.47.1-3.13.14-4.92,0-.88,0-1.8,0-2.74v0c0-2.45,0-5.06,0-7.74v0l0-1.6c0-.53,0-1.07-.05-1.6,0-.12,0-.23,0-.35,0-1-.07-1.92-.12-2.87-.14,2.25-.32,4.22-.32,4.22a.32.32,0,0,1,0,.07s0,.11,0,.2c0,.38-.14,1.18-.29,2.24,0,.1,0,.2,0,.3a3.56,3.56,0,0,1-.06.44c-.07.48-.14,1-.22,1.54-.06.35-.12.7-.18,1.07,0,.15-.05.31-.08.48s-.11.65-.17,1-.1.57-.16.85-.1.58-.16.87l-.21,1-.15.69c-.15.66-.3,1.32-.46,2-.21.83-.44,1.64-.68,2.41h0l-.09.26c-.11.33-.22.67-.34,1h0l-.06.17h0a45.53,45.53,0,0,1-.18,5.3l0,.27a1.49,1.49,0,0,1,0,.21v0c0,.17-.05.33-.07.47v0h0a11,11,0,0,1-.24,1.16.5.5,0,0,1,0,.13,1.22,1.22,0,0,1-.09.26s-.16-.56-.51-1.54l-.17-.48a58.5,58.5,0,0,0-2.62-6l-.12-.22c-.52-1-1.11-2.08-1.76-3.17l-.35-.56v0c-.26-.44-.55-.88-.84-1.33l-4.94-3L287.54,273l-.48-.29H287l-.05,0-.12-.06-.11,0-.09,0h0l-.52-.24h0l-.05,0-.27-.13h0l-.16-.08-.18-.08-.06,0h0s0,0,0,0h0l-.29-.16,0,0-.23-.12-.18-.09h0l-.09-.05-.12-.07-.23-.12h0l-.13-.07-.31-.17-.06,0-.53-.31-.15-.09c-.32-.19-.65-.38-1-.59l-.3-.19-.3-.19-.06,0-.46-.3-.1-.06h0l-.07,0-.12-.08-.06,0-.05,0,0,0-.07,0-.22-.15h0l-.26-.17-.25-.18-.14-.09,0,0-.28-.21L279,268l-.22-.17c-.77-.56-1.54-1.17-2.32-1.83l-.16-.14c-.37-.31-.73-.63-1.1-1-.08-.06-.15-.14-.23-.21s-.31-.29-.46-.44l-.74-.73c-.31-.32-.62-.65-.92-1-.16-.17-.3-.34-.45-.51l-.4-.48a5.17,5.17,0,0,1-.42-.51c-.2-.25-.4-.5-.59-.76l-.43-.57-.36-.47-.14-.18-.05-.06c-1-1.26-2-2.49-3.06-3.64l-.11-.12s0,0,0,0l-.05,0v0l0,0-.52-.57-.61-.66-.05,0-.25-.27c-.3-.32-.6-.64-.9-.94s-.77-.8-1.15-1.18h0c-.77-.76-1.5-1.46-2.18-2.1l-.51-.47c-.74-.69-1.41-1.29-2-1.79l-.41-.36-.45-.39-.25-.21-.23-.19c-.42-.36-.67-.56-.71-.59.14.33.28.65.43,1,.33.74.66,1.46,1,2.15.21.44.43.86.65,1.28l.3.57c.1.19.2.38.31.56l.3.54.18.31c.24.41.48.8.72,1.18s.48.76.73,1.12h0c.13.2.27.39.41.58a.86.86,0,0,0,.07.1c.1.14.2.28.31.41l.14.18c.07.09.13.18.2.26l0,.06-.36-.33a1.37,1.37,0,0,1-.23-.2.71.71,0,0,1-.13-.12l-.42-.38h0l0,0c-.36-.34-.71-.69-1.06-1s-.6-.62-.9-.94l-.11-.13,0,0q-.35-.37-.66-.75l0,0-.05-.06,0,0q-.33-.37-.63-.75a.45.45,0,0,1-.11-.13c-.13-.15-.26-.31-.37-.46l-.11-.14c-.38-.48-.74-1-1.09-1.45-.22-.3-.43-.6-.64-.91a.8.8,0,0,1-.09-.14c-.15-.2-.28-.41-.41-.61s-.28-.42-.41-.63v0c-.18-.27-.34-.54-.5-.81s-.28-.45-.41-.68a.75.75,0,0,1-.07-.12,4,4,0,0,1-.2-.35c-.16-.27-.32-.55-.47-.83l-.06-.11-.2-.36c-.3-.56-.59-1.12-.86-1.68q-.27-.54-.51-1.08l-.06-.12a2.1,2.1,0,0,1-.13-.26c-.07-.14-.14-.28-.2-.43-.14-.31-.29-.64-.42-1a1.42,1.42,0,0,1-.08-.18c-.14-.31-.27-.63-.4-.95-.21-.5-.41-1-.6-1.51a.42.42,0,0,1,0-.1q-.25-.64-.48-1.29c-.17-.45-.33-.9-.47-1.35-.07-.18-.13-.37-.19-.55s-.06-.17-.08-.25c-.1-.28-.19-.57-.28-.86,0,0,0,0,0,0-.1-.3-.19-.59-.27-.89s-.17-.55-.25-.83c-.14-.45-.26-.9-.38-1.35,0-.13-.07-.25-.1-.37s-.13-.45-.18-.67-.12-.44-.17-.66c-.11-.44-.22-.88-.32-1.31s-.19-.82-.28-1.22c-.06-.24-.11-.48-.16-.73l-.12-.58c-.14-.66-.27-1.32-.39-2s-.21-1.12-.3-1.68c0-.24-.09-.48-.12-.71s-.07-.47-.11-.71a.08.08,0,0,1,0,0c-.08-.51-.16-1-.23-1.51s-.16-1.2-.24-1.78c0-.36-.09-.72-.13-1.07-.08-.69-.15-1.35-.21-2v0q0-.5-.09-1c0-.28,0-.55-.07-.81-.05-.58-.09-1.12-.12-1.63v0c0-.29,0-.57-.05-.84s0-.81-.06-1.18,0-.62,0-.9,0-.38,0-.55v-.29s0,0,0,0c0-.35,0-.66,0-.91a.81.81,0,0,1,0,.15c0,.22,0,.46,0,.75a1.27,1.27,0,0,0,0,.2s0,.06,0,.09v.28c0,.11,0,.23,0,.35a1.09,1.09,0,0,1,0,.18c0,.12,0,.24,0,.37v.07c0,.11,0,.22,0,.32,0,.32,0,.66-.08,1s-.05.63-.08,1c0,0,0,0,0,0h0v0s0,0,0,0h0c0,.59-.12,1.21-.21,1.87,0,.22-.05.44-.08.66s-.06.46-.1.69-.06.46-.1.7c-.07.48-.15,1-.24,1.46,0,.24-.08.49-.13.73s-.09.51-.14.76l0,.17c0,.12,0,.24-.07.36l-.06.25-.18.87v0c-.12.54-.25,1.09-.38,1.64s-.31,1.24-.48,1.88-.29,1.06-.45,1.6q-.12.45-.27.9c0,.15-.09.3-.14.45s-.09.3-.14.45l-.3.92c-.22.64-.45,1.28-.69,1.94,0,.11-.09.23-.13.35-.2.54-.42,1.08-.64,1.63a3.42,3.42,0,0,0-.13.34l-.21.49-.21.48c-.17.39-.34.78-.52,1.17s-.25.54-.38.81c-.2.42-.4.83-.61,1.25l-.37.75,0,.06a1.09,1.09,0,0,1-.08.15c-.37.71-.76,1.42-1.18,2.13-.06.12-.14.25-.21.37l-.2.34-.54.9-.85,1.31c-.13.21-.27.42-.41.63h0c-.33.48-.67,1-1,1.45l-.35.48-.73,1-.26.33-.16.2-.17.2c-.25.32-.52.63-.78,1s-.35.42-.54.62l-.45.52-.42.46-.42.45c-.46.49-.94,1-1.43,1.46l-.88.85c-.3.28-.6.56-.91.83l-.94.82-.93.77,0,0c-.29.23-.58.47-.87.69l-.35.27-.21.17-.19.14-1.09.79-.66.46-.33.22h0l-.34.22-.44.29q-.63.42-1.29.81l-.75.45a.56.56,0,0,1-.17.09.05.05,0,0,1-.05,0l.43-.38h0c.51-.44,1-.91,1.51-1.41l0,0,.17-.18s0,0,0,0l.33-.35a.85.85,0,0,0,.16-.17l.18-.19a.91.91,0,0,0,.17-.17l.67-.74.35-.4h0c.36-.42.72-.85,1.07-1.29,1.06-1.32,2.08-2.74,3.07-4.23l.41-.63s-1.78,1-4.5,2.6c-.28.17-.57.34-.86.53s-.38.22-.57.35l-.77.48c-1.3.81-2.73,1.73-4.23,2.75l-1.19.82c-.8.55-1.62,1.14-2.45,1.74l-.05,0-.11.08a.19.19,0,0,1-.07.06l-.08.06c-.77.56-1.53,1.14-2.3,1.74s-1.29,1-1.93,1.55-1.09.91-1.63,1.38l0,0-.85.75c-.34.31-.69.61-1.05.91s-.43.35-.65.52l-.95.74h0c-.3.22-.61.45-.93.67s-.62.44-.94.65h0l-1,.63-.3.18c-.22.15-.45.29-.68.42l-1,.59-1.13.65-.15.08-.47.26-.22.11h0c-.32.17-.65.35-1,.51-.65.34-1.29.66-1.93,1s-1.14.53-1.69.78l-.14.07-.05,0-.25.12-.33.15-.13.05-.07,0h-.1l0,0-.18.08c-.88.37-1.71.72-2.5,1l-.65.24h0l-.64.25-.28.1h0l-.28.1-1,.37-.1,0h0l-.38.13-.25.08h0l-.19.06-.1,0h0l-.29.09h0l-.23.07h0l-.14,0-.1,0-.23.08h0l-.2.06h0l-.11,0-.08,0h0l-.18.05-.29.09-.12,0H178l-.08,0h-.1l-1.17.47-.18.07-.29.12-9.56,3.86-.11.12h0c-.81.82-1.55,1.63-2.24,2.43l-.78.92-.87,1.07c-1.11,1.4-2,2.72-2.8,3.88l0,0c-.18.27-.34.53-.49.78s-.19.3-.28.45c-.27.44-.5.85-.71,1.22-.84,1.49-1.23,2.39-1.23,2.39l-.05-.09a.2.2,0,0,1,0-.08,2.88,2.88,0,0,1-.22-.54v0c0-.08-.05-.16-.08-.26a.83.83,0,0,1,0-.12h0c-.05-.18-.1-.38-.15-.62a2,2,0,0,0-.05-.24c-.07-.34-.13-.73-.18-1.18h0s0,0,0,0v0h0v0h0a0,0,0,0,1,0,0v0l0-.2c0-.26,0-.55-.08-.85l0-.46c0-.16,0-.32,0-.49s0-.32,0-.49c0-.63,0-1.31,0-2.07h0c-.13-.23-.25-.46-.37-.7l-.05-.11,0,0,0-.11-.18-.37-.13-.27c-.06-.14-.14-.29-.22-.46v-.06c-.11-.24-.21-.49-.31-.74-.2-.47-.38-.95-.56-1.43l-.3-.83c-.22-.65-.43-1.31-.63-2l-.24-.8c-.13-.45-.25-.9-.37-1.35-.18-.66-.34-1.31-.49-1.93a.07.07,0,0,1,0-.05c-.09-.35-.16-.69-.24-1-.29-1.3-.51-2.41-.66-3.18l-.06-.32c0-.2-.06-.36-.08-.49s0-.16,0-.22a1.13,1.13,0,0,0,0-.12s-.27-2-.48-4.22c0,.57-.08,1.13-.11,1.69l-.09,1.69v.07c0,.61-.06,1.22-.08,1.83l0,1.14q0,.63,0,1.26c0,.41,0,.83,0,1.24-.07,4.89.08,9.43.27,12.95a33.55,33.55,0,0,1-1.21-4.3.18.18,0,0,0,0-.05s0,0,0,0a.43.43,0,0,1,0-.05s0,0,0-.05,0-.09,0-.15c-.35-1.64-.66-3.45-.95-5.36l-.15-1c-.05-.34-.1-.69-.14-1,0-.12,0-.23,0-.35l-.15-1.22c-.07-.53-.13-1.06-.2-1.59l-.18-1.61a.25.25,0,0,0,0-.08,1.49,1.49,0,0,0,0-.21c-.06-.63-.13-1.26-.19-1.88l-.09-.94-.09-.93c-.05-.62-.11-1.23-.16-1.84,0-.3-.05-.6-.07-.9-.05-.59-.1-1.18-.14-1.75s-.09-1.13-.13-1.68a36.66,36.66,0,0,1-5.09,6.94,21.49,21.49,0,0,1-3.6,3.08,18.59,18.59,0,0,0,3-4.72h0q.31-.69.6-1.41a.14.14,0,0,1,0-.06c.18-.47.35-.94.51-1.42.21-.64.41-1.29.59-2,.07-.22.13-.44.18-.67q.17-.62.3-1.26c.09-.37.17-.74.24-1.12.05-.2.09-.41.13-.62l.12-.68c.05-.27.1-.54.14-.81.07-.43.13-.85.19-1.28,0-.12,0-.24.05-.36.06-.45.12-.89.17-1.34,0,0,0,0,0,0,0-.36.08-.72.11-1.07s.06-.54.08-.81c.06-.58.1-1.16.14-1.74s.07-1,.09-1.42c0-.26,0-.52,0-.77s0-.24,0-.36c0-.32,0-.62,0-.9.06-1.41.08-2.75.08-4,0-2.06,0-3.81-.06-5.05a25.43,25.43,0,0,1,3.9-13.48c.1-.74.21-1.5.34-2.28.21-1.29.46-2.63.74-4q.19-1,.42-1.92l.42-1.76h0c.14-.55.28-1.1.43-1.64s.33-1.18.51-1.76.29-.93.45-1.39.34-1,.52-1.49v0c.18-.46.35-.9.53-1.33a14,14,0,0,1,3-4.18h0q.14-.5.3-1.05l.31-1c.27-.87.56-1.78.87-2.67h0c.3-.86.62-1.69,1-2.43.14-.3.27-.6.41-.87l.24-.46a.75.75,0,0,0,.07-.12l.16-.26a2.5,2.5,0,0,1,.16-.24l.15-.2a2.29,2.29,0,0,1,.46-.47l.27-.19.72-.47.92-.57,1.73-1h0c1.81-1.06,4.09-2.35,6.56-3.72s5.15-2.8,7.74-4.15q.66-.34,1.35-.63l.9-.34.13-.05.13,0,.22-.07c.46-.16.93-.29,1.39-.4l.7-.16.7-.14h0l-.24-.17-.17-.12-.28-.22h0l-.44-.32-.81-.63,0,0-.3-.23-.15-.13a.83.83,0,0,0-.16-.12l-.5-.42-.09-.07-.18-.16c-.36-.3-.59-.51-.66-.57h.2l.27,0,.38,0a41.14,41.14,0,0,0,4.51.06h0l.38,0h.13l.57,0c.38,0,.78,0,1.19-.07s.95-.06,1.46-.11l1.65-.15a157.14,157.14,0,0,0,17-3.08l-4.26-2.57s2.22-1.1,6.82.73c.18.07.37.14.57.2l.32.1.33.09.18.05.11,0h.07l.17.05h.06c.42.1.86.19,1.33.28l.37.06c.55.1,1.13.19,1.73.27l.66.09.68.08.68.07.85.08.13,0,1,.09.61,0,.85.07h.21l.63.05,1.22.08h.27l.88,0c2.83.14,4.92.18,4.92.18l-4.92-5.65s5.51,1.16,8.71,3.44,11.07,3.72,11.07,3.72,5.27-1.45,7.41-3.72a15.71,15.71,0,0,1,5.83-3.44l-3.3,5.65s2.62-.06,5.56-.4L260,169c.41-.05.81-.11,1.22-.18l.77-.13.4-.08.12,0,.64-.14h.05l.55-.15.57-.17.12,0,.41-.15.26-.1.09,0,.16-.07.16-.08a2.69,2.69,0,0,0,.29-.16c3.08-1.83,4.57-.73,4.57-.73l-2.85,2.57a74.87,74.87,0,0,0,11.38,3.08c.91.14,1.72.24,2.45.3l.22,0h.17l.43,0h.08a19.87,19.87,0,0,0,2.54,0l.55,0,.32,0h0l.1,0h0l.13,0,.11,0h0c-.06.08-.42.57-1,1.24l0,0c-.3.37-.66.8-1.07,1.25-.15.17-.31.33-.46.51l-.16.18h0l.47.14.1,0,.13,0a.38.38,0,0,1,.12.05l.11,0a7.44,7.44,0,0,1,.93.4c.31.15.62.32.93.5s.6.4.9.63l1,.75c.38.3.77.6,1.14.91s.77.6,1.14.91l.07.06.53.42c.31.26.63.51.93.77s.31.25.46.38l.08.06.48.4a.94.94,0,0,1,.12.09l.48.4,1.42,1.2.14.13.24.2h0l.18.17.2.16.12.11.5.44.1.08c.22.19.44.38.65.58s.67.59,1,.86l.2.19c.2.18.38.35.53.51l.19.19.16.16a5.35,5.35,0,0,1,.83,1.75c.27.78.53,1.74.78,2.75v0l.15.63c.09.36.17.72.25,1.08h0c.08.36.16.72.23,1.07v0c0,.16.07.32.1.48l.06.26.33,1.7h0l.09.13v0c.17.27.34.53.49.8v0l.37.68c.09.16.17.33.24.49s.08.17.12.26a1.89,1.89,0,0,1,.11.25l.09.22c.07.16.13.33.19.49s.07.2.1.3.11.33.16.5c.13.46.25.94.38,1.43,0,.18.08.36.13.55.16.69.32,1.4.47,2.12.08.36.15.73.22,1.1s.17.9.25,1.35a.36.36,0,0,0,0,.1v0l.15.89h0c.1.55.19,1.11.27,1.67s.17,1.1.25,1.66.13.93.19,1.4q.06.35.09.69c.06.44.11.89.16,1.32l0,.25h0l.12,1.05h0c.07.66.13,1.31.19,1.94a35.42,35.42,0,0,1,2.61,13.48c0,.74,0,1.65,0,2.7,0,2.17,0,4.94.09,8q0,1,.09,2.1a.86.86,0,0,0,0,.16v0c0,.46.05.93.08,1.4.06,1,.13,1.92.21,2.88l.15,1.59.15,1.31.12,1c.08.59.16,1.17.26,1.75.07.43.14.86.22,1.29s.18,1,.29,1.5a.52.52,0,0,0,0,.11c.1.45.2.9.31,1.34s.16.66.25,1,.24.86.37,1.28.2.62.31.92.24.67.37,1a.09.09,0,0,0,0,.07,7.11,7.11,0,0,0,.34.8,1.19,1.19,0,0,0,.08.2c.08.18.16.34.25.5s.18.36.27.53S313.78,266.57,313.88,266.73Z" />
      <path class="BUNTAI_WALRUS_BODY_BUNTAI_WALRUS_BODY-19_cls-6" d="M295.16,144.44c-2.47-1.79-4.51-7.09-11.61,1.79,1.39.44,2.49,1.86,3.7,2.9,1.61,1.39,3.74,4,6.68,2.68s5.35-5.85,5.5-6.14C299.26,145.71,297.52,146.17,295.16,144.44Z" />
      <path class="BUNTAI_WALRUS_BODY_BUNTAI_WALRUS_BODY-19_cls-6" d="M170,144.44a10.35,10.35,0,0,1-6.23,1.23c.22.29,3.86,4.89,8,6.14s7.4-1.29,9.74-2.68c1.77-1,3.36-2.48,5.4-2.9C176.56,137.35,173.58,142.65,170,144.44Z" />
      <path class="BUNTAI_WALRUS_BODY_BUNTAI_WALRUS_BODY-19_cls-9" d="M218.57,272.37c-.08,7.74-.49,42.35-1.59,63.67a9.9,9.9,0,0,0,.59,1l-.72-.9h0c.06-1.48.11-3,.17-4.53,0-1,.07-2,.1-3.05.2-5.85.39-12,.56-18.28,0-1.22.07-2.45.1-3.69.13-5.06.26-10.14.37-15.1,0-1.14.06-2.27.08-3.4.1-4.55.2-9,.28-13.18,0-.62,0-1.22,0-1.83C218.56,272.85,218.56,272.61,218.57,272.37Z" />
      <path class="BUNTAI_WALRUS_BODY_BUNTAI_WALRUS_BODY-19_cls-9" d="M220,252.1c.14-.09.27-.2.4-.3l-.21.17-.19.14-1.09.79C219.29,252.64,219.65,252.37,220,252.1Z" />
      <path class="BUNTAI_WALRUS_BODY_BUNTAI_WALRUS_BODY-19_cls-9" d="M257.75,308l0-.55c0,.21,0,.42,0,.63h0c0,.16,0,.31,0,.47,0-.1,0-.15,0-.15Z" />
      <path class="BUNTAI_WALRUS_BODY_BUNTAI_WALRUS_BODY-19_cls-9" d="M178.13,272.59l.12,0-.12,0-.09,0-.08,0-.06,0h0l-1.17.47,1.17-.48h0l.05,0,.08,0h0Z" />
      <path class="BUNTAI_WALRUS_BODY_BUNTAI_WALRUS_BODY-19_cls-9" d="M178.72,272.41l.08,0-.08,0-.18.05Z" />
      <path class="BUNTAI_WALRUS_BODY_BUNTAI_WALRUS_BODY-19_cls-9" d="M178.91,272.35l.2-.06-.2.07-.11,0Z" />
      <path class="BUNTAI_WALRUS_BODY_BUNTAI_WALRUS_BODY-19_cls-9" d="M179.59,272.13l.25-.08h0l-.23.08-.47.15h0l.24-.08.1,0Z" />
      <path class="BUNTAI_WALRUS_BODY_BUNTAI_WALRUS_BODY-19_cls-9" d="M180.13,272l.1,0-.1,0-.29.09Z" />
      <path class="BUNTAI_WALRUS_BODY_BUNTAI_WALRUS_BODY-19_cls-9" d="M181.05,271.63l.1,0-.1,0-.38.13-.25.09-.19.06.19-.07Z" />
      <path class="BUNTAI_WALRUS_BODY_BUNTAI_WALRUS_BODY-19_cls-9" d="M182.46,271.12l.92-.35-.64.25-.28.11-.28.1Z" />
      <path class="BUNTAI_WALRUS_BODY_BUNTAI_WALRUS_BODY-19_cls-9" d="M186.55,269.47l.18-.07h0l-.18.08c-.88.37-1.71.72-2.5,1l-.65.24c1-.37,2-.8,3.15-1.28Z" />
      <path class="BUNTAI_WALRUS_BODY_BUNTAI_WALRUS_BODY-19_cls-9" d="M152,202.64l.31.53c.18-.46.35-.9.53-1.33a14,14,0,0,1,3-4.18h0q.14-.5.3-1.05c-1.22,1.31-3.89,4.34-4.1,6Z" />
      <path class="BUNTAI_WALRUS_BODY_BUNTAI_WALRUS_BODY-19_cls-9" d="M305.29,208.49c.06.3.11.61.16.91h0l.09,0c-.09-.31-.17-.62-.24-.92Z" />
      <path class="BUNTAI_WALRUS_BODY_BUNTAI_WALRUS_BODY-19_cls-9" d="M155.93,195.87l.19-.12.26-.16c.27-.87.56-1.78.87-2.67l-1.47,3Z" />
      <path class="BUNTAI_WALRUS_BODY_BUNTAI_WALRUS_BODY-19_cls-9" d="M301.83,194.89v0c0-.25,0-.5,0-.76Z" />
      <path class="BUNTAI_WALRUS_BODY_BUNTAI_WALRUS_BODY-19_cls-5" d="M173.24,121.32c1.64-1,3.4-2,5.29-3,15.12-8.12,17.56-10.66,17.56-10.66" />
      <path class="BUNTAI_WALRUS_BODY_BUNTAI_WALRUS_BODY-19_cls-5" d="M173.23,121.33a52,52,0,0,0-9,6.79c-.24.23-.48.47-.71.71-4.89,5-7.38,10.72-7.88,18.3-.13,2-.16,3.75-.12,5.32l0,.67a41.86,41.86,0,0,0,.63,5.59h0c.06.34.13.68.19,1l0,.2V160l0,.17c.08.37.15.73.23,1.09a1.42,1.42,0,0,1,0,.2c.14.62.28,1.25.41,1.88.26,1.19.5,2.41.7,3.75,0,.05,0,.1,0,.15.15,1,.27,2.05.35,3.2s.13,2.32.13,3.65v.47c0,.4,0,.79,0,1.17v.16c0,2.17,0,4.14,0,5.93,0,.45,0,.9,0,1.33,0,2,.09,3.84.21,5.46v.11h0c0,.3,0,.59.06.88" />
      <path class="BUNTAI_WALRUS_BODY_BUNTAI_WALRUS_BODY-19_cls-5" d="M285.89,115.93a36.86,36.86,0,0,0-2.35-5c-7.92-14.05-21.81-14.9-39.13-17.34-22-7.34-43.22,2.57-55.69,9.09a31,31,0,0,0-10.3,8.68l0,0-.09.13a30.08,30.08,0,0,0-5.07,9.81h0" />
      <path class="BUNTAI_WALRUS_BODY_BUNTAI_WALRUS_BODY-19_cls-5" d="M301.7,190.23q0-1.92-.06-3.9h0c0-2,0-4.17,0-6.32,0-.6,0-1.21,0-1.81,0-5.18.19-10.56.45-16v0c0-1,.1-2,.16-3h0c0-.53.06-1.07.1-1.6s.05-1.07.09-1.61.06-1.1.1-1.65c1.05-15.84-.23-18-3.5-24.23a13.45,13.45,0,0,0-.84-1.38l-.52-.75c-.18-.25-.38-.51-.59-.77l-.64-.8a81.63,81.63,0,0,0-7.58-7.79c-.58-.53-1.17-1-1.75-1.56l-.08-.07c-.38-.35-.78-.68-1.16-1a56.35,56.35,0,0,0-8-6l-.45-.24s0,0,0,0c-4.21-2.26-10.42-6.21-10.42-6.21" />
      <path class="BUNTAI_WALRUS_BODY_BUNTAI_WALRUS_BODY-19_cls-5" d="M301.7,190.26c0,1.31.06,2.6.1,3.85,0,.26,0,.51,0,.76v0c0,.26,0,.52,0,.77,0,.47,0,.93,0,1.39l0,.74h0" />
      <path class="BUNTAI_WALRUS_BODY_BUNTAI_WALRUS_BODY-19_cls-5" d="M183.32,175.89a47.92,47.92,0,0,1-4.06-3.23s3.44.52,10.78-.24a157.14,157.14,0,0,0,17-3.08l-4.26-2.57s2.22-1.1,6.82.73c2.84,1.13,9.33,1.66,13.89,1.89,2.83.14,4.92.18,4.92.18l-4.92-5.65s5.51,1.16,8.71,3.44,11.07,3.72,11.07,3.72" />
      <path class="BUNTAI_WALRUS_BODY_BUNTAI_WALRUS_BODY-19_cls-5" d="M155.77,197.65q.14-.5.3-1.05l.31-1c.27-.87.56-1.79.88-2.68s.62-1.69,1-2.43c.14-.3.27-.6.41-.87l.24-.46a.75.75,0,0,0,.07-.12l.16-.26a2.5,2.5,0,0,1,.16-.24l.15-.2a2.29,2.29,0,0,1,.46-.47l.27-.19.72-.47.92-.57,1.73-1" />
      <path class="BUNTAI_WALRUS_BODY_BUNTAI_WALRUS_BODY-19_cls-5" d="M195.28,176.21a32,32,0,0,0-12-.32,19.58,19.58,0,0,0-5.52,1.83c-5.19,2.7-10.68,5.75-14.3,7.87" />
      <path class="BUNTAI_WALRUS_BODY_BUNTAI_WALRUS_BODY-19_cls-5" d="M152.28,203.19a81.21,81.21,0,0,0-3.84,16.22" />
      <path class="BUNTAI_WALRUS_BODY_BUNTAI_WALRUS_BODY-19_cls-5" d="M177.28,184.19s-14.64,6.36-21.51,13.46h0a14,14,0,0,0-3,4.18c-.18.43-.35.88-.53,1.34" />
      <path class="BUNTAI_WALRUS_BODY_BUNTAI_WALRUS_BODY-19_cls-5" d="M140.76,262a18.59,18.59,0,0,1-3,4.72,21.49,21.49,0,0,0,3.6-3.08,36.66,36.66,0,0,0,5.09-6.94" />
      <path class="BUNTAI_WALRUS_BODY_BUNTAI_WALRUS_BODY-19_cls-5" d="M160,202.31A41.92,41.92,0,0,1,152.46,214a35.4,35.4,0,0,0-4,5.39,25.43,25.43,0,0,0-3.9,13.48c.1,5.29.53,19.68-3.78,29.11" />
      <path class="BUNTAI_WALRUS_BODY_BUNTAI_WALRUS_BODY-19_cls-5" d="M157.12,238.25c-4,4.2-5.86,13.78-6.55,23.62a180.08,180.08,0,0,0-.09,21.87c-2.16-5.76-3.38-18.3-4-27-.38-5.38-.53-9.32-.53-9.32" />
      <path class="BUNTAI_WALRUS_BODY_BUNTAI_WALRUS_BODY-19_cls-5" d="M243.28,202.64v.12h0v.08c0,.12,0,.25,0,.4s0,.46,0,.75a1.27,1.27,0,0,0,0,.2s0,.06,0,.09v.28c0,.11,0,.23,0,.35a1.09,1.09,0,0,1,0,.18c0,.1,0,.2,0,.3a.66.66,0,0,0,0,.14c0,.11,0,.22,0,.32,0,.32,0,.66-.08,1s-.05.63-.08,1h0s0,0,0,0h0a.25.25,0,0,1,0,.08c0,.59-.12,1.21-.21,1.87,0,.22-.05.44-.08.66s-.06.46-.1.69-.06.46-.1.7c-.07.48-.15,1-.24,1.46,0,.24-.08.49-.13.73s-.09.51-.14.76l0,.17c0,.2-.09.41-.13.61l-.18.87v0c-.12.54-.25,1.09-.38,1.64s-.31,1.24-.48,1.88-.29,1.06-.45,1.6q-.12.45-.27.9c0,.15-.09.3-.14.45s-.09.3-.14.45l-.3.92c-.22.64-.45,1.28-.69,1.94,0,.11-.09.23-.13.35-.2.54-.42,1.08-.64,1.63-.1.25-.2.49-.31.74l-.24.57c-.17.39-.34.78-.52,1.17s-.25.54-.38.81c-.2.42-.4.83-.61,1.25s-.3.6-.46.9c0,0,0,0,0,.05h0c-.37.71-.76,1.42-1.18,2.13-.06.12-.14.25-.21.37l-.2.34-.54.9-.85,1.31c-.13.21-.27.42-.41.63l0,0c-.33.48-.67,1-1,1.45l-.35.48-.73,1-.26.33-.36.45q-.36.45-.75.9c-.18.21-.35.42-.54.62l-.45.52-.42.46-.42.45c-.46.49-.94,1-1.43,1.46l-.88.85c-.3.28-.6.56-.91.83l-.94.82-.93.77,0,0c-.29.23-.58.47-.87.69l-.35.27-.21.17-.19.13h0l-1.09.79-.66.46-.33.23-.34.22-.44.29q-.63.42-1.29.81l-.75.45-.28.16" />
      <path class="BUNTAI_WALRUS_BODY_BUNTAI_WALRUS_BODY-19_cls-5" d="M214.79,255.55l0,0,0,0,.45-.39,0,0c.51-.44,1-.91,1.51-1.41h0l0,0c.08-.08.27-.27.53-.55a.85.85,0,0,0,.16-.17l.18-.19a.91.91,0,0,0,.17-.17l.23-.25.21-.24.22-.24h0l.35-.4" />
      <path class="BUNTAI_WALRUS_BODY_BUNTAI_WALRUS_BODY-19_cls-5" d="M223.5,245.25A55.38,55.38,0,0,1,219,251.4" />
      <path class="BUNTAI_WALRUS_BODY_BUNTAI_WALRUS_BODY-19_cls-5" d="M233.32,222a76.2,76.2,0,0,1-9.79,23.21" />
      <path class="BUNTAI_WALRUS_BODY_BUNTAI_WALRUS_BODY-19_cls-5" d="M223.53,245.21l0,0s-1.78,1-4.5,2.6c-.28.17-.57.34-.86.53s-.38.22-.57.35l-.77.48c-1.3.81-2.73,1.73-4.23,2.75l-1.19.82c-.8.55-1.62,1.14-2.45,1.74l-.05,0-.18.14-.08.06c-.77.56-1.53,1.14-2.3,1.74s-1.29,1-1.93,1.55-1.09.91-1.63,1.38l0,0-.85.75c-.34.31-.69.61-1.05.91s-.43.35-.65.52l-.95.74h0c-.3.22-.61.45-.93.67s-.62.44-.94.65h0l-1,.63-.3.18c-.22.15-.45.29-.68.42l-1,.59-1.13.65-.15.08-.47.26-.22.12c-.32.17-.65.35-1,.51-.65.34-1.29.66-1.93,1s-1.14.54-1.69.78l-.14.07-.05,0-.25.12-.33.15-.13.05-.07,0h-.1l0,0-.18.08c-.88.37-1.71.72-2.5,1-.45.18-.89.35-1.31.5l-.28.11-.28.1c-.36.14-.71.26-1,.37l-.1,0-.38.13-.25.09-.19.06-.1,0-.29.09h0l-.23.08-.14,0-.33.11h0l-.2.07-.11,0-.08,0-.18.05-.29.09-.12,0-.09,0-.08,0-.06,0h0l.05,0,1-.49h0l1.48-.77,0,0a58.7,58.7,0,0,0,5.29-3.21c.43-.29.68-.48.68-.48,4.72-3.32,10.05-8.17,12.24-14.2" />
      <path class="BUNTAI_WALRUS_BODY_BUNTAI_WALRUS_BODY-19_cls-5" d="M156.11,282.64c0-1.68.16-3.7.43-6.12,2.8-25.75,12.32-34.83,12.32-34.83" />
      <path class="BUNTAI_WALRUS_BODY_BUNTAI_WALRUS_BODY-19_cls-5" d="M186.48,260.21c-6.52,8.5-10.37,8-18.29,15.5-.53.5-1,1-1.53,1.49a48.54,48.54,0,0,0-9.54,13.3s-1.14-1.56-1-7.85" />
      <polyline class="BUNTAI_WALRUS_BODY_BUNTAI_WALRUS_BODY-19_cls-5" points="166.66 277.2 176.22 273.34 176.51 273.22 176.69 273.15 177.86 272.68" />
      <path class="BUNTAI_WALRUS_BODY_BUNTAI_WALRUS_BODY-19_cls-5" d="M150.57,261.87c.21,2.25.48,4.22.48,4.22s1.68,10.54,5.06,16.55h0" />
      <path class="BUNTAI_WALRUS_BODY_BUNTAI_WALRUS_BODY-19_cls-5" d="M243.28,171.08s5.27-1.45,7.41-3.72a15.71,15.71,0,0,1,5.83-3.44l-3.3,5.65s2.62-.06,5.56-.4c2.65-.28,5.57-.8,7-1.67,3.08-1.83,4.57-.73,4.57-.73l-2.85,2.57a74.87,74.87,0,0,0,11.38,3.08c4.91.76,7.21.24,7.21.24a40.15,40.15,0,0,1-2.71,3.23" />
      <path class="BUNTAI_WALRUS_BODY_BUNTAI_WALRUS_BODY-19_cls-5" d="M301.84,197.65a69.28,69.28,0,0,0-1.91-8,5.35,5.35,0,0,0-.83-1.75,156.12,156.12,0,0,0-12-10.14,10.52,10.52,0,0,0-3.69-1.83,14.59,14.59,0,0,0-8,.32" />
      <path class="BUNTAI_WALRUS_BODY_BUNTAI_WALRUS_BODY-19_cls-5" d="M306.75,219.41c-.06-.63-.12-1.28-.19-1.94h0l-.12-1.05h0l0-.25c-.05-.43-.1-.88-.16-1.32q0-.35-.09-.69c-.06-.47-.12-.93-.19-1.4s-.16-1.11-.25-1.66-.17-1.12-.27-1.67h0c-.05-.3-.1-.61-.16-.91a.36.36,0,0,1,0-.1c-.08-.45-.16-.9-.25-1.35s-.14-.74-.22-1.1c-.15-.72-.31-1.43-.47-2.12-.05-.19-.09-.37-.13-.55-.13-.49-.25-1-.38-1.43-.05-.17-.1-.34-.16-.5s-.06-.2-.1-.3-.12-.33-.19-.49l-.09-.22a1.89,1.89,0,0,0-.11-.25c0-.09-.07-.17-.12-.26s-.15-.33-.24-.49l-.37-.68v0c-.15-.27-.32-.53-.49-.8h0l-.09-.13h0c-4.6-7.1-14.39-13.46-14.39-13.46" />
      <path class="BUNTAI_WALRUS_BODY_BUNTAI_WALRUS_BODY-19_cls-5" d="M308.07,256.71c1.26,3.27,3.25,7.47,5.81,10-5-8.38-4.6-27.55-4.52-33.84a35.42,35.42,0,0,0-2.61-13.48,39.25,39.25,0,0,0-2.69-5.39,46.44,46.44,0,0,1-2.33-4.41h0a46.53,46.53,0,0,1-2.71-7.29" />
      <path class="BUNTAI_WALRUS_BODY_BUNTAI_WALRUS_BODY-19_cls-5" d="M300.94,238.25c2.7,4.2,3.92,13.78,4.38,23.62.39,8,.27,16.27.06,21.87,1.45-5.76,2.27-18.3,2.69-27,.25-5.38.35-9.32.35-9.32" />
      <path class="BUNTAI_WALRUS_BODY_BUNTAI_WALRUS_BODY-19_cls-5" d="M254.44,246.24c-10.8-17-11.16-40.56-11.16-43.6v-.33" />
      <path class="BUNTAI_WALRUS_BODY_BUNTAI_WALRUS_BODY-19_cls-5" d="M256.53,245.27a45.21,45.21,0,0,0,5.81,10.28,41.78,41.78,0,0,1-7.9-9.3" />
      <path class="BUNTAI_WALRUS_BODY_BUNTAI_WALRUS_BODY-19_cls-5" d="M250,222a99.45,99.45,0,0,0,6.55,23.21" />
      <path class="BUNTAI_WALRUS_BODY_BUNTAI_WALRUS_BODY-19_cls-5" d="M273.1,253.45c2.89,11.89,14,19.23,14,19.23s-9.91-4.2-16.06-12.47a93.41,93.41,0,0,0-14.47-14.94v0l0,0" />
      <path class="BUNTAI_WALRUS_BODY_BUNTAI_WALRUS_BODY-19_cls-5" d="M301.61,282.64c0-1.68-.11-3.7-.28-6.12-1.88-25.75-8.25-34.83-8.25-34.83" />
      <path class="BUNTAI_WALRUS_BODY_BUNTAI_WALRUS_BODY-19_cls-5" d="M281.29,260.21a29.74,29.74,0,0,0,6.33,8.7,46.06,46.06,0,0,1,5.91,6.79q.54.75,1,1.5a54.38,54.38,0,0,1,6.39,13.3s.76-1.56.67-7.85" />
      <polyline class="BUNTAI_WALRUS_BODY_BUNTAI_WALRUS_BODY-19_cls-5" points="294.55 277.19 289.61 274.21 287.54 272.96 287.06 272.68" />
      <path class="BUNTAI_WALRUS_BODY_BUNTAI_WALRUS_BODY-19_cls-5" d="M301.61,282.65h0c2.27-6,3.39-16.55,3.39-16.55s.18-2,.32-4.22" />
      <path class="BUNTAI_WALRUS_BODY_BUNTAI_WALRUS_BODY-19_cls-5" d="M219,247.85c0,1.07,0,2.25-.05,3.55h0" />
      <path class="BUNTAI_WALRUS_BODY_BUNTAI_WALRUS_BODY-19_cls-5" d="M186.73,269.41v0c0,.06,0,.18,0,.36a.76.76,0,0,0,0,.15c0,.15,0,.34,0,.56h0c0,.13,0,.26,0,.39,0,.51,0,1,.07,1.6.07,1.46.15,3.05.23,4.78l.06,1.18c0,.39,0,.8.06,1.21s.05,1,.08,1.58a1.77,1.77,0,0,0,0,.23c0,.46,0,.92.07,1.4.05,1.1.11,2.24.17,3.41s.11,2.08.17,3.16c.08,1.62.17,3.29.26,5h0c.15,2.91.31,5.95.49,9.07,0,.26,0,.52,0,.79,0,.8.08,1.59.13,2.4.11,2.11.23,4.26.36,6.43.05,1,.11,2,.17,3.08.21,3.68.43,7.42.65,11.15,0,.61.07,1.22.11,1.82.07,1.26.15,2.52.23,3.77.05.79.09,1.57.15,2.36,0,.23,0,.46,0,.68s0,.27,0,.4,0,.09,0,.14q.06.93.12,1.92c0,.51.06,1,.1,1.52.05.85.11,1.72.17,2.62.17,2.67.33,5.29.51,7.86,0,.33,0,.66.07,1,.08,1.24.16,2.47.25,3.67l0,.39c.05.83.11,1.65.17,2.46,0,.24,0,.49,0,.73.58,8.11,1.16,15.36,1.72,21,0,.09,0,.17,0,.24,0,.52.1,1,.16,1.52s.11,1.11.17,1.64c0,.24.05.48.08.72,1.16,10.35,2.24,17.36,3.26,22.09.05.22.1.44.14.64l0,.12c.13.56.25,1.08.37,1.57a0,0,0,0,0,0,0,25.42,25.42,0,0,0,1.63,4.76,4.86,4.86,0,0,0,.3.56c.83,1.43,1.65,1.8,2.47,1.8.42,0,1-.93,1.78-2.64,2.23-5.1,5.63-17.16,8.35-32.39.18-1,.35-2,.52-3l.06-.33c.25-1.46.48-2.94.71-4.45.12-.75.23-1.51.34-2.28,0-.18.06-.36.08-.54.41-2.89.79-5.84,1.12-8.85.1-.8.18-1.6.26-2.41.06-.51.11-1,.16-1.53,0-.13,0-.27,0-.4,0-.35.07-.71.09-1.07s.07-.71.1-1.07c.32-3.59.56-7.22.72-10.87,0-.07,0-.14,0-.22.06-1.25.11-2.54.17-3.86,0-1.1.09-2.22.13-3.36h0c.06-1.48.11-3,.17-4.53,0-1,.07-2,.1-3.05.2-5.85.39-12,.56-18.28,0-1.22.07-2.45.1-3.69.13-5.06.26-10.14.37-15.1,0-1.14.06-2.27.08-3.4.1-4.55.2-9,.28-13.18,0-.62,0-1.22,0-1.83,0-.24,0-.48,0-.72,0-.93,0-1.48,0-1.56h0c.14-6.92.25-13.06.33-17.9" />
      <path class="BUNTAI_WALRUS_BODY_BUNTAI_WALRUS_BODY-19_cls-5" d="M280.38,379.62a199.87,199.87,0,0,0,5.15-36c.74-16.72,1.34-39.28,1.77-58.93.09-4.05.17-8,.24-11.7" />
      <path class="BUNTAI_WALRUS_BODY_BUNTAI_WALRUS_BODY-19_cls-5" d="M280.37,379.63c-.15.65-.31,1.3-.46,1.94l-.21.82c-4.76,19.29-10.91,33-12.51,33s-1.61-1.51-2.22-10.11c-.08-1.09-.17-2.29-.27-3.62a.13.13,0,0,1,0-.06c-.34-4.41-.86-10.2-1.71-17.78-.12-1.09-.24-2.28-.37-3.55-.1-1-.19-2-.29-3.07-.07-.72-.13-1.47-.2-2.24,0-.19,0-.37-.05-.55-.4-4.65-.81-10-1.22-15.82h0c0-.1,0-.2,0-.3-.07-.93-.13-1.87-.2-2.83,0-.05,0-.11,0-.16-.26-3.76-.52-7.67-.77-11.67l-.18-2.88c-.19-2.91-.37-5.86-.54-8.82-.07-1-.13-2.07-.19-3.11-.38-6.48-.75-13-1.1-19.21,0-.08,0-.16,0-.23a.81.81,0,0,0,0-.16.53.53,0,0,0,0-.13c0-.1,0-.19,0-.26s0-.24,0-.31,0-.31,0-.47h0a.19.19,0,0,1,0-.08l0-.55v-.09c0-.24,0-.48,0-.72l0-.53c-.31-5.66-.6-11.06-.86-16,0-.56-.05-1.1-.08-1.65-.23-4.42-.44-8.43-.61-11.88-.06-1.19-.12-2.31-.17-3.35-.29-5.91-.46-9.45-.46-9.45l-.65-11-.38-6.46h0" />
      <path class="BUNTAI_WALRUS_BODY_BUNTAI_WALRUS_BODY-19_cls-5" d="M152,202.63h0l.31.53h0" />
      <path class="BUNTAI_WALRUS_BODY_BUNTAI_WALRUS_BODY-19_cls-5" d="M302.27,159.16h0l-.45-.55" />
      <path class="BUNTAI_WALRUS_BODY_BUNTAI_WALRUS_BODY-19_cls-5" d="M243.28,168.19s-6.12-3.58-9.44-7.08-7.43-4.89-9.7-2.36-3.23,3.95-2.79,5.17,2.15,5.47,2.15,5.47" />
      <path class="BUNTAI_WALRUS_BODY_BUNTAI_WALRUS_BODY-19_cls-10" d="M243.28,168.19a43.24,43.24,0,0,0,7.36-7.08c2.59-3.49,5.79-4.89,7.56-2.36s2.52,3.95,2.18,5.17c-.29,1-1.33,4.36-1.6,5.25" />
      <path class="BUNTAI_WALRUS_BODY_BUNTAI_WALRUS_BODY-19_cls-5" d="M289.61,274.22q-1,5.11-2.31,10.45" />
      <path class="BUNTAI_WALRUS_BODY_BUNTAI_WALRUS_BODY-19_cls-5" d="M187,146.22h-.06c-2,.43-3.63,1.86-5.4,2.9-2.34,1.39-5.45,4-9.74,2.68s-7.79-5.85-8-6.14" />
      <path class="BUNTAI_WALRUS_BODY_BUNTAI_WALRUS_BODY-19_cls-5" d="M187.12,146.41l-.15-.19a107.2,107.2,0,0,0-8.53-9.15c-3.13-2.68-12.31,0-12.31,0s-4.69,4.45-2.38,8.59" />
      <path class="BUNTAI_WALRUS_BODY_BUNTAI_WALRUS_BODY-19_cls-5" d="M163.5,185.6h0c5.84-9,17.48-27.25,23.64-39.16" />
      <path class="BUNTAI_WALRUS_BODY_BUNTAI_WALRUS_BODY-19_cls-5" d="M187.14,146.43a39.41,39.41,0,0,0-9.79,10.5c-3.67,6.18-7.89,10.32-10.07,9.62-6.05-3.56-6.86-15.41-3.53-20.89h0a10.21,10.21,0,0,0,6.23-1.22c3.59-1.8,6.57-7.1,16.92,1.78l.21.18,0,0" />
      <path class="BUNTAI_WALRUS_BODY_BUNTAI_WALRUS_BODY-19_cls-5" d="M283.51,146.22h0c1.39.44,2.49,1.86,3.7,2.9,1.61,1.39,3.74,4,6.68,2.68s5.35-5.85,5.5-6.14" />
      <path class="BUNTAI_WALRUS_BODY_BUNTAI_WALRUS_BODY-19_cls-5" d="M283.4,146.41l.11-.19a99.89,99.89,0,0,1,5.85-9.15c2.15-2.68,8.44,0,8.44,0s3.22,4.45,1.64,8.59" />
      <path class="BUNTAI_WALRUS_BODY_BUNTAI_WALRUS_BODY-19_cls-5" d="M283.4,146.44c.41,1.16.86,2.38,1.34,3.65h0c2.08,5.54,4.7,12,7.28,18.05v0l0,0c.89,2.12,1.78,4.19,2.63,6.17h0c3.07,7.11,5.71,13,6.81,15.43.07.16.13.3.19.42h0" />
      <path class="BUNTAI_WALRUS_BODY_BUNTAI_WALRUS_BODY-19_cls-5" d="M299.44,145.66h0c-.17.05-1.91.51-4.27-1.22s-4.51-7.1-11.61,1.78l-.15.18v0h0" />
      <path class="BUNTAI_WALRUS_BODY_BUNTAI_WALRUS_BODY-19_cls-5" d="M283.4,146.44a36.62,36.62,0,0,1,6.71,10.49c2.52,6.18,5.41,10.32,6.9,9.62,1.81-1.56,2.94-4.68,3.45-8.16.11-.84.2-1.7.25-2.56a24.61,24.61,0,0,0-1.27-10.16" />
      <path class="BUNTAI_WALRUS_BODY_BUNTAI_WALRUS_BODY-19_cls-5" d="M217.59,158.61s4.54-5.89,7.46-5.94a13.24,13.24,0,0,1,6,1.8" />
      <path class="BUNTAI_WALRUS_BODY_BUNTAI_WALRUS_BODY-19_cls-5" d="M263.29,158.61s-3.46-5.89-5.69-5.94-4.57,1.8-4.57,1.8" />
      <path class="BUNTAI_WALRUS_BODY_BUNTAI_WALRUS_BODY-19_cls-5" d="M254.82,252.71l-.38.34a17.52,17.52,0,0,1-3.14,2.18s-.05,0-.08,0a21.37,21.37,0,0,1-7.2,2.33,28,28,0,0,1-3.8.26,29.3,29.3,0,0,1-9.46-1.53h0a23.73,23.73,0,0,1-8.52-4.93l0,0-.17-.16-.19-.18-.21-.19" />
      <g class="BUNTAI_WALRUS_BODY_BUNTAI_WALRUS_BODY-19_cls-11">
        <path d="M159.13,203.19a82.7,82.7,0,0,1-6.38,5.36c-1.66,1-2.39.92-2.39.92l-1.92,8s5.62-5.68,7.76-8.22A16,16,0,0,0,159.13,203.19Z" />
        <path d="M174.38,185.53l.06,0-.37.19c-.85.44-2.73,1.41-6.15,3.22l-.15.08c-4.48,2.36-8.91,5.05-10.9,6.28l-.49.31-.61.38,1.48-3.05h0l.35-.28c.57-.45,1.75-1.37,3.18-2.43C162.74,188.77,173.12,186,174.38,185.53Z" />
        <path d="M169.41,229.9c-5.82,9.91-15.14,36.83-15.14,36.83l-2.92-12.38a122.92,122.92,0,0,1,.18-14c.53-9.09,10.95-28,10.95-28s-10.43,10.48-14,30.06a95.69,95.69,0,0,0,.83,36.95s.45-3.05,1.1-14.19c.64,7.5,5.37,16.69,5.37,16.69l3.39-18.29S160.21,253.09,169.41,229.9Z" />
        <path d="M183.51,257.86c10.14-7.59,15.73-17.82,24.76-37.66-9,18-21.12,28.58-30.65,37.53l-10,7.71s9.43-10.58,13.45-16.34c3.59-5.14,9.39-15.07,10.61-17.17a145.71,145.71,0,0,1-9.57,13.67c-7.18,9.35-13.71,17-13.71,17l4.47-11.21.75-1.27C178.85,241.22,189,222.8,189,222.8s-10.72,15.14-18.64,28a140.53,140.53,0,0,0-10.24,21.65c.41-2.47,1.13-6.8,1.77-10.46,1-5.46,5.64-18.35,5.64-18.35s-3.63,3.1-5.15,9.74c-1.24,5.37-2.16,15.83-2.47,19.63-1.42,3.7-2.5,6.81-3.14,8.71,2.36-6.17,9.52-19.08,14.51-27.7-2.74,6.1-6,13.41-7.23,16.32-.92,2.21-2.19,5.64-3.36,8.92a53.54,53.54,0,0,0-4,10.09l.82-1h0l8.19-9.7S173.37,265.44,183.51,257.86Z" />
        <path d="M156.76,281.76a16.48,16.48,0,0,0-.65,2S156.34,283,156.76,281.76Z" />
        <path d="M243.28,202.31l-2.43,2.08a320,320,0,0,1-17.14,32.12c2.79-6.67,9.61-29.56,9.61-29.56s-8.1,19.92-14.19,30.18-18.44,14.68-18.44,14.68,1.69-3.62,8.45-19.57c-10.83,20.17-18.06,26.56-25.51,32.27s-14.77,10.84-14.77,10.84,11.55-3.49,17.87-6,11.34-5.13,16.09-10,11.91-7.89,20.3-13.49c-1.75,3.27-6.27,7.81-6.27,7.81s10.82-6.29,19.1-20.74S243.28,202.31,243.28,202.31Z" />
        <path d="M172.26,235.2S182.64,222.45,190,213s28.94-22.26,28.94-22.26-19.86,10.44-28.42,18.6S172.26,235.2,172.26,235.2Z" />
        <path d="M194.83,176.16c6.16.7,21.84,3,21.84,3s-13.19-5.68-21.39-5.37a83,83,0,0,1-14.13-.61h-.78l2,2.56A91.78,91.78,0,0,1,194.83,176.16Z" />
        <path d="M191.67,231.93c.15-.25.23-.4.23-.4S191.82,231.68,191.67,231.93Z" />
        <path d="M150.36,225.19c3.49-7.87,7.86-15.9,7.86-15.9a120,120,0,0,0-7.86,12.92,78.11,78.11,0,0,0-5.76,15.73s.23,1.75-.6,11.07C145.62,245.05,146.87,233.05,150.36,225.19Z" />
        <path d="M177.28,193.26c12.2-5.94,27.11-7.85,27.11-7.85s-17.65.69-27.87,6.21-14.71,8.46-14.71,8.46S165.07,199.2,177.28,193.26Z" />
        <path d="M306.4,212.87c-.29-1.21-.58-2.36-.86-3.44a.57.57,0,0,0,.31,0Z" />
        <path d="M306.44,216.4c-1.17-1.77-3.49-5.3-4.55-7.15a20.59,20.59,0,0,1-2-6.06s3.2,4.32,4.32,5.36a4,4,0,0,0,1.23.85h0c.1.55.19,1.11.27,1.67s.17,1.1.25,1.66.13.93.19,1.4q.06.35.09.69c.06.44.11.89.16,1.32Z" />
        <path d="M302.18,196l-.33-.31-.34-.31a1.07,1.07,0,0,0-.16-.14h0c-1.39-1.26-4.32-3.89-7.29-6.2s-4.13-3.19-4.52-3.49c.58.36,7.89,3.23,9.24,4.69.81.89,1.51,1.68,1.94,2.18h0l.46.53.33,1,.31.94v0Z" />
        <path d="M292.94,229.9c3.95,9.91,10.26,36.83,10.26,36.83l2-12.38s.24-4.87-.12-14-7.42-28-7.42-28,7.07,10.48,9.52,30.06a140.15,140.15,0,0,1-.57,36.95s-.3-3.05-.74-14.19c-.44,7.5-3.64,16.69-3.64,16.69l-2.3-18.29S299.17,253.09,292.94,229.9Z" />
        <path d="M283.39,257.85c-6.86-7.58-10.65-17.81-16.76-37.65,6.05,18,14.3,28.58,20.76,37.53l6.77,7.71s-6.39-10.58-9.11-16.34c-2.43-5.14-6.36-15.07-7.18-17.17.52,1.3,2.42,5.87,6.48,13.67,4.86,9.35,9.28,17,9.28,17l-3-11.21-.51-1.27c-3.55-8.85-10.41-27.27-10.41-27.27s7.25,15.14,12.62,28a178.88,178.88,0,0,1,6.93,21.65c-.28-2.47-.76-6.8-1.2-10.46-.65-5.46-3.82-18.35-3.82-18.35s2.46,3.1,3.49,9.74c.84,5.37,1.47,15.83,1.67,19.63,1,3.7,1.7,6.81,2.13,8.71-1.6-6.17-6.45-19.08-9.83-27.7,1.86,6.1,4.07,13.41,4.9,16.32.62,2.21,1.48,5.64,2.28,8.92a70.89,70.89,0,0,1,2.7,10.09l-.55-1h0l-5.54-9.7S290.26,265.44,283.39,257.85Z" />
        <path d="M301.51,281.76c.2.77.35,1.44.44,2C302,283.73,301.8,283,301.51,281.76Z" />
        <path d="M242.92,202.31l1.64,2.08s4,13.28,11.61,32.12c-1.89-6.67-6.51-29.56-6.51-29.56s5.49,19.92,9.61,30.18a30.38,30.38,0,0,0,12.49,14.68s-1.15-3.62-5.73-19.57c7.34,20.17,12.23,26.56,17.28,32.27s10,10.84,10,10.84-7.82-3.49-12.11-6a29.33,29.33,0,0,1-10.9-10c-3.21-4.91-8.06-7.89-13.74-13.49a46,46,0,0,0,4.25,7.81s-7.33-6.29-12.94-20.74S242.92,202.31,242.92,202.31Z" />
        <path d="M291,235.2s-7-12.75-12-22.25-19.6-22.26-19.6-22.26,13.45,10.44,19.25,18.6S291,235.2,291,235.2Z" />
        <path d="M275.73,176.16c-4.17.7-14.79,3-14.79,3s8.93-5.68,14.48-5.37a38.34,38.34,0,0,0,9.57-.61h.53l-1.36,2.56A42.13,42.13,0,0,0,275.73,176.16Z" />
        <path d="M277.87,231.93l-.16-.4Z" />
        <path d="M305.85,225.19c-2.37-7.87-5.33-15.9-5.33-15.9a138.78,138.78,0,0,1,5.33,12.92,105.36,105.36,0,0,1,3.9,15.73s-.16,1.75.4,11.07C309.06,245.05,308.21,233.05,305.85,225.19Z" />
        <path d="M287.61,193.26a52.22,52.22,0,0,0-18.36-7.85s11.95.69,18.88,6.21,10,8.46,10,8.46S295.88,199.2,287.61,193.26Z" />
        <path d="M254.44,246.24v7.08a13,13,0,0,1-3.14,1.91s-.05,0-.08,0a36.26,36.26,0,0,1-7.07,2.3l-.13,0a21.28,21.28,0,0,1-13.26-1.27h0a44,44,0,0,1-8.52-4.93l0,0-.43-.3.07,0c3.47-1.7,8.56-8.25,8.56-8.25s7.75,1.22,12.49.52a15.31,15.31,0,0,0,7.55-3.26Z" />
        <path d="M170.63,144.47c5.38-2.89,6.78-3.23,12.53-1.67-8.95-7.25-13.54-1.09-15.42-1.31s-2.58-2.4-2.58-2.4c-2.62,2-1.66,6.26-1.66,6.26S165.25,147.35,170.63,144.47Z" />
        <path d="M298.16,166.56c-3.17,1.5-6.7-5-9.79-12.62,4.14,7.29,8.34,9.09,10.56,5.89s2.4-12.75,2.4-12.75C302.64,155.31,301.33,165.07,298.16,166.56Z" />
        <path d="M295,144.47c-4.18-2.89-5.27-3.23-9.74-1.67,7-7.25,10.53-1.09,12-1.31s2-2.4,2-2.4c2,2,1.29,6.26,1.29,6.26S299.18,147.35,295,144.47Z" />
        <path d="M287.13,117c-4.3-3.18-8.46-6.35-9.73-7.33,0,0,0,0,0,0l-.38-.29-1.55-2.07a29.82,29.82,0,0,0,8.09,3.63,37.44,37.44,0,0,1,2.35,5C286.3,116.27,286.72,116.63,287.13,117Z" />
        <path d="M202,260.29v-.08S202,260.22,202,260.29Z" />
        <path d="M204,412.78c-1.2,1.78-2.67,3.4-4.25.84a4.86,4.86,0,0,1-.3-.56,22.33,22.33,0,0,1-1.63-4.76,0,0,0,0,1,0,0c-.13-.49-.25-1-.37-1.57l0-.12c0-.2-.09-.42-.14-.64-.94-4.62-2-13.16-3-23-.11-1.11-.23-2.23-.35-3.37-.68-6.84-1.34-14.16-1.91-21.14-.2-2.4-.39-4.76-.56-7-.23-3.06-.45-6-.63-8.73-.06-.9-.12-1.77-.17-2.62,0-.5-.07-1-.1-1.52q-.06-1-.12-1.92c0-.05,0-.09,0-.14s0-.26,0-.4,0-.45,0-.68c-.05-.76-.09-1.55-.14-2.38-.1-1.74-.21-3.62-.33-5.61-.19-3.46-.4-7.23-.61-11.13-.06-1-.11-2.05-.17-3.08-.12-2.13-.23-4.29-.35-6.44-.06-1.07-.12-2.13-.17-3.19-.27-4.89-.52-9.7-.75-14.09-.06-1.08-.12-2.14-.17-3.16-.31-5.9-.57-10.8-.72-13.77,0-.62-.07-1.15-.1-1.59a3,3,0,0,0,0-.31.28.28,0,0,0,0-.09c0-.22,0-.41,0-.56s0-.11,0-.15,0-.3,0-.36v0h.08l0,0c.77-.38,5.57-2.75,9.22-4.82l.3-.18a32.64,32.64,0,0,0,2.88-1.8l.59-.43a8.94,8.94,0,0,0,2.15-1.83c0,.51,0,3.39.05,7.81,0,.94,0,1.94,0,3,0,3.62,0,7.93,0,12.65v3c0,4.57,0,9.43,0,14.33,0,1,0,2,0,3,0,2.63,0,5.26,0,7.85q0,3.19-.06,6.27v.08c0,4.73-.15,11-.24,18.1h0q0,2.12-.06,4.32c-.06,4.65-.11,9.56-.15,14.55,0,1.71,0,3.43,0,5.15,0,5.46,0,10.92,0,16.14,0,1,0,2.06,0,3.06C201.63,398.1,202.26,412.92,204,412.78Z" />
        <path d="M273.64,360.52c0,5.44-.25,10.84-.61,16-.07,1-.15,2-.23,3-1.62,19.94-5.08,35.65-5.84,35.41-.53-.17-1.39-5.78-2.26-13.26a.13.13,0,0,1,0-.06c-1-8.22-1.95-18.67-2.57-26.64,0-.19,0-.37-.05-.55s0-.13,0-.19c-.28-3.66-.68-9.38-1.12-15.95-.06-1-.13-2-.19-3-.23-3.34-.45-6.84-.68-10.36l-.27-4.07c-.18-3-.38-6-.56-8.9-.07-1.05-.13-2.09-.2-3.11-.56-9-1-16.42-1.19-19.25,0-.08,0-.15,0-.22a.81.81,0,0,0,0-.16.53.53,0,0,0,0-.13c0-.1,0-.19,0-.26s0-.24,0-.31,0-.15,0-.15l0-.41,0-.55v-.09l0-.72,0-.53-.73-14.83-.16-3.32-.56-11.44-.17-3.35-1.22-25s1.69,1.68,3.5,3.33l.05.06c1,.9,2,1.79,2.78,2.39h0c.12.1.24.18.35.26a49.69,49.69,0,0,1-3.41-6.89h0c.25.19,2.81,2,5.13,4h0a19.31,19.31,0,0,1,3.48,3.66l0,0v0h0a16.37,16.37,0,0,0,3.51,4.22l0,0s.07,3.4.2,9c0,.94,0,1.95.07,3,.09,3.59.19,7.83.31,12.49,0,1,.06,2,.09,3,.12,4.5.26,9.33.42,14.31q0,1.5.09,3c.08,2.6.17,5.23.26,7.87.06,1.88.13,3.77.19,5.66.24,6.33.49,12.59.76,18.45.07,1.51.14,3,.21,4.45.14,2.81.28,5.5.43,8s.23,4.87.27,7.31C273.64,357.47,273.65,359,273.64,360.52Z" />
        <path d="M302.18,196l-.33-.31c0,.47,0,.93,0,1.39-.25-.74-.39-1.1-.39-1.1v-16.8s0-.42,0-1.14c-.06-3.09-.13-11.66.61-15.82-.26,5.44-.41,10.82-.45,16,0,.6,0,1.21,0,1.81,0,2.15,0,4.27,0,6.32h0q0,2,.06,3.9v0c0,1.31.06,2.6.1,3.85l0,.78Z" />
        <path d="M305,207c.09.45.17.9.25,1.35-1.18-4.45-2.16-7.69-2.83-9.74l.37.68c.09.16.17.33.24.49s.08.17.12.26a1.89,1.89,0,0,1,.11.25l.09.22c.07.16.13.33.19.49s.07.2.1.3.11.33.16.5c.13.46.25.94.38,1.43,0,.18.08.36.13.55.16.69.32,1.4.47,2.12C304.88,206.3,305,206.67,305,207Z" />
        <path d="M306.4,212.87c-.29-1.21-.58-2.36-.86-3.44a.57.57,0,0,0,.31,0Z" />
        <path d="M158.21,190.48l-.6,2.15-.74,2.65-.19.69-.61.63.31-1-.61.38,1.48-3.05h0C157.56,192.05,157.88,191.22,158.21,190.48Z" />
        <path d="M186.55,269.47v0c-.88.37-1.71.72-2.5,1l-1.31.5-.28.11-.28.1-1,.37-.1,0-.38.13-.25.09-.19.06-.1,0-.29.09h0l-.23.08-.47.15h0l-.2.07-.11,0-.08,0-.18.05-.29.09-.12,0-.09,0-.08,0-.06,0h0l-1.17.47-.18.07-.12-.23-.17-.31a11.56,11.56,0,0,0,4.24-1.31l0,0a38.67,38.67,0,0,0,5.29-3.21c.43-.29.68-.48.68-.48Z" />
        <path d="M153.34,269.4s-5.05-12.81-1.68-22.28,12.86-26.71,17.2-34.69c-7.89,21.55-4.49,28.49-4.49,28.49Z" />
        <path d="M156.43,290.5s-1-9.2,2.07-23.44S165,247.18,165,247.18s-2.71,15.91-1.68,17.6c7.22-20.75,12.29-32,12.29-32l-6.7,21.14-4,14.46-6.13,17.7Z" />
        <path d="M156.68,208.63a87.85,87.85,0,0,1,20.6-15.37c11.22-5.75,19.36-6.43,19.36-6.43s-12.31,6-20.59,12.32-14.83,15.65-14.83,15.65,4-7.73,16.06-18.33C166.15,202.52,156.68,208.63,156.68,208.63Z" />
        <path d="M220.21,212.43s-4.37,26.23-15.82,43.12C218.29,241,220.21,212.43,220.21,212.43Z" />
      </g>
      <path class="BUNTAI_WALRUS_BODY_BUNTAI_WALRUS_BODY-19_cls-12" d="M290.46,143.05a4,4,0,1,0,4,4A4,4,0,0,0,290.46,143.05Z" />
      <circle cx="290.46" cy="147.08" r="1.95" />
      <circle class="BUNTAI_WALRUS_BODY_BUNTAI_WALRUS_BODY-19_cls-6" cx="289.4" cy="145.35" r="0.89" />
      <circle class="BUNTAI_WALRUS_BODY_BUNTAI_WALRUS_BODY-19_cls-13" cx="290.46" cy="147.08" r="4.04" />
      <path class="BUNTAI_WALRUS_BODY_BUNTAI_WALRUS_BODY-19_cls-12" d="M174.66,143.05a4,4,0,1,0,4,4A4,4,0,0,0,174.66,143.05Z" />
      <circle cx="174.66" cy="147.08" r="1.95" />
      <circle class="BUNTAI_WALRUS_BODY_BUNTAI_WALRUS_BODY-19_cls-6" cx="173.6" cy="145.35" r="0.89" />
      <circle class="BUNTAI_WALRUS_BODY_BUNTAI_WALRUS_BODY-19_cls-13" cx="174.66" cy="147.08" r="4.04" />
    </g>
  </g>
</svg>