<svg xmlns="http://www.w3.org/2000/svg" viewBox="0 0 432 432">
  <defs>
    <style>.BUNTAI_WALRUS_BODY_BUNTAI_WALRUS_BODY-45_cls-1{isolation:isolate;}.BUNTAI_WALRUS_BODY_BUNTAI_WALRUS_BODY-45_cls-2{fill:#bf927d;}.BUNTAI_WALRUS_BODY_BUNTAI_WALRUS_BODY-45_cls-19,.BUNTAI_WALRUS_BODY_BUNTAI_WALRUS_BODY-45_cls-3{opacity:0.22;}.BUNTAI_WALRUS_BODY_BUNTAI_WALRUS_BODY-45_cls-18,.BUNTAI_WALRUS_BODY_BUNTAI_WALRUS_BODY-45_cls-19,.BUNTAI_WALRUS_BODY_BUNTAI_WALRUS_BODY-45_cls-3,.BUNTAI_WALRUS_BODY_BUNTAI_WALRUS_BODY-45_cls-9{mix-blend-mode:multiply;}.BUNTAI_WALRUS_BODY_BUNTAI_WALRUS_BODY-45_cls-11,.BUNTAI_WALRUS_BODY_BUNTAI_WALRUS_BODY-45_cls-12,.BUNTAI_WALRUS_BODY_BUNTAI_WALRUS_BODY-45_cls-13,.BUNTAI_WALRUS_BODY_BUNTAI_WALRUS_BODY-45_cls-14,.BUNTAI_WALRUS_BODY_BUNTAI_WALRUS_BODY-45_cls-16,.BUNTAI_WALRUS_BODY_BUNTAI_WALRUS_BODY-45_cls-4,.BUNTAI_WALRUS_BODY_BUNTAI_WALRUS_BODY-45_cls-5{fill:none;stroke-linecap:round;stroke-linejoin:round;}.BUNTAI_WALRUS_BODY_BUNTAI_WALRUS_BODY-45_cls-11,.BUNTAI_WALRUS_BODY_BUNTAI_WALRUS_BODY-45_cls-12,.BUNTAI_WALRUS_BODY_BUNTAI_WALRUS_BODY-45_cls-13,.BUNTAI_WALRUS_BODY_BUNTAI_WALRUS_BODY-45_cls-14,.BUNTAI_WALRUS_BODY_BUNTAI_WALRUS_BODY-45_cls-16,.BUNTAI_WALRUS_BODY_BUNTAI_WALRUS_BODY-45_cls-4,.BUNTAI_WALRUS_BODY_BUNTAI_WALRUS_BODY-45_cls-5,.BUNTAI_WALRUS_BODY_BUNTAI_WALRUS_BODY-45_cls-7{stroke:#000;}.BUNTAI_WALRUS_BODY_BUNTAI_WALRUS_BODY-45_cls-4{stroke-width:1.93px;}.BUNTAI_WALRUS_BODY_BUNTAI_WALRUS_BODY-45_cls-5{stroke-width:1.85px;}.BUNTAI_WALRUS_BODY_BUNTAI_WALRUS_BODY-45_cls-6{fill:#e8dbda;}.BUNTAI_WALRUS_BODY_BUNTAI_WALRUS_BODY-45_cls-7{fill:#ccb0ae;stroke-miterlimit:10;}.BUNTAI_WALRUS_BODY_BUNTAI_WALRUS_BODY-45_cls-8{fill:#353137;}.BUNTAI_WALRUS_BODY_BUNTAI_WALRUS_BODY-45_cls-18,.BUNTAI_WALRUS_BODY_BUNTAI_WALRUS_BODY-45_cls-9{opacity:0.33;}.BUNTAI_WALRUS_BODY_BUNTAI_WALRUS_BODY-45_cls-10{fill:#fff;}.BUNTAI_WALRUS_BODY_BUNTAI_WALRUS_BODY-45_cls-11{stroke-width:1.7px;}.BUNTAI_WALRUS_BODY_BUNTAI_WALRUS_BODY-45_cls-12{stroke-width:1.89px;}.BUNTAI_WALRUS_BODY_BUNTAI_WALRUS_BODY-45_cls-14{stroke-width:0.83px;}.BUNTAI_WALRUS_BODY_BUNTAI_WALRUS_BODY-45_cls-15{fill:#f3ad5c;}.BUNTAI_WALRUS_BODY_BUNTAI_WALRUS_BODY-45_cls-16{stroke-width:1.37px;}.BUNTAI_WALRUS_BODY_BUNTAI_WALRUS_BODY-45_cls-17{fill:#f0ceb1;}</style>
  </defs>
  <g class="BUNTAI_WALRUS_BODY_BUNTAI_WALRUS_BODY-45_cls-1">
    <g id="body">
      <path class="BUNTAI_WALRUS_BODY_BUNTAI_WALRUS_BODY-45_cls-2" d="M389.45,334.9c-3.24-20-6.53-40.24-13.44-58.79-13.08-35.14-23.45-42.51-42.86-70.37l-16.64-27.29c-.32-.53-.66-1.09-1-1.68h-.26a188.47,188.47,0,0,0-13-17.61c.06-1.07.11-2.15.18-3.22,0-.56.06-1.1.1-1.65.23-3.47.35-6.28.36-8.63,0-1.67,0-3.11-.14-4.37q-.06-.76-.15-1.44l-.09-.67a21.42,21.42,0,0,0-.66-2.92c-.05-.18-.11-.35-.17-.52-.11-.35-.24-.69-.37-1a48.05,48.05,0,0,0-2.28-4.66c-.12-.24-.26-.48-.41-.73l0-.05c-.14-.24-.3-.48-.47-.72l0-.05c-.17-.25-.35-.51-.55-.77l0,0c-.2-.26-.41-.54-.64-.82h0a73.21,73.21,0,0,0-6.84-7.22c-1.38-1.3-2.79-2.56-4.16-3.74-.21-.53-.42-1-.64-1.56-.07-.15-.14-.29-.2-.44-.16-.36-.33-.71-.49-1-.09-.17-.17-.34-.25-.51l-.39-.73a29.68,29.68,0,0,0-3.53-5.27l-.13-.15c-.24-.28-.49-.56-.74-.82l-.2-.22-.73-.73-.24-.23c-.24-.23-.49-.45-.74-.67l-.25-.22c-.25-.21-.51-.43-.77-.63l-.24-.18c-.27-.21-.54-.42-.82-.61l-.17-.12a28.67,28.67,0,0,0-4.21-2.41l-.06,0-.95-.42-.28-.12c-.29-.13-.6-.25-.9-.36l-.36-.14-.89-.32-.39-.14-.9-.29-.4-.13-.94-.27L264.7,97l-1-.26-.32-.08-1.08-.26-.08,0c-1.72-.39-3.5-.73-5.34-1l-.23,0-1.21-.19-.31-.05-1.2-.19-.33,0-1.26-.19-.23,0-5-.69c-6.28-1.42-13.66-3.54-20.54-2.94h0a60,60,0,0,0-6.21.5A68,68,0,0,0,213,92.93c-9.61,2.38-18,6.48-24.26,9.74-.5.27-1,.54-1.45.82l-.45.27c-.39.24-.77.49-1.14.74l-.47.32-.91.67-.49.38c-.3.24-.59.47-.87.72l-.52.45-.71.66-.4.38c-.31.31-.61.61-.9.92l-.17.19-.82.92a1.83,1.83,0,0,1-.13.16c-.3.36-.6.72-.87,1.08h0l0,0a33.13,33.13,0,0,0-4.28,7.42v0l-.22.55v0a16.3,16.3,0,0,0-.63,1.91h0c-10.73,6.62-16.13,13.36-17.39,23.69-.09.69-.15,1.39-.2,2.11h0c0,.57-.07,1.12-.09,1.66,0,.14,0,.29,0,.43q0,.61,0,1.2v.36c0,.49,0,1,0,1.41a1.93,1.93,0,0,0,0,.24c0,.37,0,.73,0,1.07l0,.43.06.86,0,.38c0,.36.07.7.11,1,0,.18,0,.35.07.53s0,.34.07.5.06.41.1.61,0,.18,0,.27l.09.56L140.4,172.63c-1.34.83-2.24,1.34-2.24,1.34a2.07,2.07,0,0,1,.07.57l-.33.3.34-.23h0l-.34.23h0V175c-3.87,2.55-7,4.41-8.16,5a18.74,18.74,0,0,0-3.59,2.68,39.21,39.21,0,0,0-4.52,5.16l0,0c-1.78,2.37-3.35,4.77-4.68,6.64a21.82,21.82,0,0,1-2.06,2.58l-.12.12c-27.22,27.1-49,43.72-65.15,78.86C41.1,294.66,37,314.88,33,334.9Q22.46,387.94,11.88,441H406.62Q398,387.94,389.45,334.9Zm0,0c-3.24-20-6.53-40.24-13.44-58.79-13.08-35.14-23.45-42.51-42.86-70.37l-16.64-27.29c-.32-.53-.66-1.09-1-1.68h-.26a188.47,188.47,0,0,0-13-17.61c.06-1.07.11-2.15.18-3.22,0-.56.06-1.1.1-1.65.23-3.47.35-6.28.36-8.63,0-1.67,0-3.11-.14-4.37q-.06-.76-.15-1.44l-.09-.67a21.42,21.42,0,0,0-.66-2.92c-.05-.18-.11-.35-.17-.52-.11-.35-.24-.69-.37-1a48.05,48.05,0,0,0-2.28-4.66c-.12-.24-.26-.48-.41-.73l0-.05c-.14-.24-.3-.48-.47-.72l0-.05c-.17-.25-.35-.51-.55-.77l0,0c-.2-.26-.41-.54-.64-.82h0a73.21,73.21,0,0,0-6.84-7.22c-1.38-1.3-2.79-2.56-4.16-3.74-.21-.53-.42-1-.64-1.56-.07-.15-.14-.29-.2-.44-.16-.36-.33-.71-.49-1-.09-.17-.17-.34-.25-.51l-.39-.73a29.68,29.68,0,0,0-3.53-5.27l-.13-.15c-.24-.28-.49-.56-.74-.82l-.2-.22-.73-.73-.24-.23c-.24-.23-.49-.45-.74-.67l-.25-.22c-.25-.21-.51-.43-.77-.63l-.24-.18c-.27-.21-.54-.42-.82-.61l-.17-.12a28.67,28.67,0,0,0-4.21-2.41l-.06,0-.95-.42-.28-.12c-.29-.13-.6-.25-.9-.36l-.36-.14-.89-.32-.39-.14-.9-.29-.4-.13-.94-.27L264.7,97l-1-.26-.32-.08-1.08-.26-.08,0c-1.72-.39-3.5-.73-5.34-1l-.23,0-1.21-.19-.31-.05-1.2-.19-.33,0-1.26-.19-.23,0-5-.69c-6.28-1.42-13.66-3.54-20.54-2.94h0a60,60,0,0,0-6.21.5A68,68,0,0,0,213,92.93c-9.61,2.38-18,6.48-24.26,9.74-.5.27-1,.54-1.45.82l-.45.27c-.39.24-.77.49-1.14.74l-.47.32-.91.67-.49.38c-.3.24-.59.47-.87.72l-.52.45-.71.66-.4.38c-.31.31-.61.61-.9.92l-.17.19-.82.92a1.83,1.83,0,0,1-.13.16c-.3.36-.6.72-.87,1.08h0l0,0a33.13,33.13,0,0,0-4.28,7.42v0l-.22.55v0a16.3,16.3,0,0,0-.63,1.91h0c-10.73,6.62-16.13,13.36-17.39,23.69-.09.69-.15,1.39-.2,2.11h0c0,.57-.07,1.12-.09,1.66,0,.14,0,.29,0,.43q0,.61,0,1.2v.36c0,.49,0,1,0,1.41a1.93,1.93,0,0,0,0,.24c0,.37,0,.73,0,1.07l0,.43.06.86,0,.38c0,.36.07.7.11,1,0,.18,0,.35.07.53s0,.34.07.5.06.41.1.61,0,.18,0,.27l.09.56L140.4,172.63c-1.34.83-9.54,6.79-10.65,7.41a18.74,18.74,0,0,0-3.59,2.68,39.21,39.21,0,0,0-4.52,5.16l0,0c-1.78,2.37-3.35,4.77-4.68,6.64a21.82,21.82,0,0,1-2.06,2.58l-.12.12c-27.22,27.1-49,43.72-65.15,78.86C41.1,294.66,37,314.88,33,334.9Q22.46,387.94,11.88,441H406.62Q398,387.94,389.45,334.9Z" />
      <g class="BUNTAI_WALRUS_BODY_BUNTAI_WALRUS_BODY-45_cls-3">
        <path d="M149.41,217.91c-.13.18-4.63,6.61-4.32,17.29s-.57,18.51-6.16,30.3c-4.69,8.18-11.34,13.45-15.45,22.33l0,.08a56.82,56.82,0,0,0-3.19,6.55c-3.9,9.49-9.52,28.69-14.44,46.55h0C99,356.73,92,373,88.31,391.21c-2.71,13.21-.87,31.82,18.56,46.28-.24,2.24-.36,3.49-.36,3.49H11.89c-.72,0,7.1-35.63,7.1-35.63L27.44,363s5.1-25.56,8.31-41.37,5.63-25.13,12.76-43.05,19.47-33,26.61-41.65,23.3-23.81,32.48-32.84,15-17.49,17.54-20.36,12.76-8.27,12.76-8.27c-.14,4.67,3,8.94,14.76,26.76C151.12,205,149.53,217.73,149.41,217.91Z" />
        <path d="M141.6,203.82l11.06-1.6s-.17-35.06,3.51-43.54c0,0-11,9.11-14,11.93s-4.91,4.85-4.91,4.85L136,181.25Z" />
        <path d="M218.88,91.74S191.93,100.48,186.4,109a66.52,66.52,0,0,0-7.75,16.37s1.16-12.79,5.41-19.68c-7.56,12.63-8,16.36-9.31,19.68S163.1,140.61,162.63,151,168,169.91,168,169.91s-10.8-7.26-12-12.06-1.78-19.56,5.87-27.25,10-7.8,11.78-10.69,6-12.89,11.66-15.65,20.8-12.76,33.79-12.52" />
        <path d="M349.16,317.24a71,71,0,0,0,6.7,48.9c-3.09-17.8-.88-34.34,3.9-46.93A59.6,59.6,0,0,0,353,335.29s-.88-17.77,5.33-29.39C352.18,314.32,349.16,317.24,349.16,317.24Z" />
      </g>
      <path class="BUNTAI_WALRUS_BODY_BUNTAI_WALRUS_BODY-45_cls-4" d="M389.45,334.9c-3.24-20-6.53-40.24-13.44-58.79-13.08-35.14-23.45-42.51-42.86-70.37l-16.64-27.29c-.32-.53-.66-1.09-1-1.68,0,0-6.55-9.32-13.21-17.61.06-1.07.11-2.15.18-3.22,0-.56.06-1.1.1-1.65.23-3.47.35-6.28.36-8.63,0-1.67,0-3.11-.14-4.37q-.06-.76-.15-1.44l-.09-.67a21.42,21.42,0,0,0-.66-2.92c-.05-.18-.11-.35-.17-.52-.11-.35-.24-.69-.37-1a48.05,48.05,0,0,0-2.28-4.66c-.12-.24-.26-.48-.41-.73l0-.05c-.14-.24-.3-.48-.47-.72l0-.05c-.17-.25-.35-.51-.55-.77l0,0c-.2-.26-.41-.54-.64-.82h0a73.21,73.21,0,0,0-6.84-7.22c-1.38-1.3-2.79-2.56-4.16-3.74-.21-.53-.42-1-.64-1.56-.07-.15-.14-.29-.2-.44-.16-.36-.33-.71-.49-1-.09-.17-.17-.34-.25-.51l-.39-.73a29.68,29.68,0,0,0-3.53-5.27l-.13-.15c-.24-.28-.49-.56-.74-.82l-.2-.22-.73-.73-.24-.23c-.24-.23-.49-.45-.74-.67l-.25-.22c-.25-.21-.51-.43-.77-.63l-.24-.18c-.27-.21-.54-.42-.82-.61l-.17-.12a28.67,28.67,0,0,0-4.21-2.41l-.06,0-.95-.42-.28-.12c-.29-.13-.6-.25-.9-.36l-.36-.14-.89-.32-.39-.14-.9-.29-.4-.13-.94-.27L264.7,97l-1-.26-.32-.08-1.08-.26-.08,0c-1.72-.39-3.5-.73-5.34-1l-.23,0-1.21-.19-.31-.05-1.2-.19-.33,0-1.26-.19-.23,0-5-.69c-6.28-1.42-13.66-3.54-20.54-2.94h0a60,60,0,0,0-6.21.5A68,68,0,0,0,213,92.93c-9.61,2.38-18,6.48-24.26,9.74-.5.27-1,.54-1.45.82l-.45.27c-.39.24-.77.49-1.14.74l-.47.32-.91.67-.49.38c-.3.24-.59.47-.87.72l-.52.45-.71.66-.4.38c-.31.31-.61.61-.9.92l-.17.19-.82.92a1.83,1.83,0,0,1-.13.16c-.3.36-.6.72-.87,1.08h0l0,0a33.13,33.13,0,0,0-4.28,7.42v0l-.22.55v0a16.3,16.3,0,0,0-.63,1.91h0c-10.73,6.62-16.13,13.36-17.39,23.69-.09.69-.15,1.39-.2,2.11h0c0,.57-.07,1.12-.09,1.66,0,.14,0,.29,0,.43q0,.61,0,1.2v.36c0,.49,0,1,0,1.41a1.93,1.93,0,0,0,0,.24c0,.37,0,.73,0,1.07l0,.43.06.86,0,.38c0,.36.07.7.11,1,0,.18,0,.35.07.53s0,.34.07.5.06.41.1.61,0,.18,0,.27l.09.56L140.4,172.63a10.84,10.84,0,0,0-2.49,2.38c-3.87,2.55-7,4.41-8.16,5a18.74,18.74,0,0,0-3.59,2.68,39.21,39.21,0,0,0-4.52,5.16l0,0c-1.78,2.37-3.35,4.77-4.68,6.64a21.82,21.82,0,0,1-2.06,2.58l-.12.12c-27.22,27.1-49,43.72-65.15,78.86C41.1,294.66,37,314.88,33,334.9Q22.46,387.94,11.88,441H406.62Q398,387.94,389.45,334.9Zm0,0c-3.24-20-6.53-40.24-13.44-58.79-13.08-35.14-23.45-42.51-42.86-70.37l-16.64-27.29c-1.71-3.1-7.58-11-14.24-19.29.06-1.07.11-2.15.18-3.22,0-.56.06-1.1.1-1.65.23-3.47.35-6.28.36-8.63,0-1.67,0-3.11-.14-4.37q-.06-.76-.15-1.44l-.09-.67a21.42,21.42,0,0,0-.66-2.92c-.05-.18-.11-.35-.17-.52-.11-.35-.24-.69-.37-1a48.05,48.05,0,0,0-2.28-4.66c-.12-.24-.26-.48-.41-.73l0-.05c-.14-.24-.3-.48-.47-.72l0-.05c-.17-.25-.35-.51-.55-.77l0,0c-.2-.26-.41-.54-.64-.82h0a73.21,73.21,0,0,0-6.84-7.22c-1.38-1.3-2.79-2.56-4.16-3.74-.21-.53-.42-1-.64-1.56-.07-.15-.14-.29-.2-.44-.16-.36-.33-.71-.49-1-.09-.17-.17-.34-.25-.51l-.39-.73a29.68,29.68,0,0,0-3.53-5.27l-.13-.15c-.24-.28-.49-.56-.74-.82l-.2-.22-.73-.73-.24-.23c-.24-.23-.49-.45-.74-.67l-.25-.22c-.25-.21-.51-.43-.77-.63l-.24-.18c-.27-.21-.54-.42-.82-.61l-.17-.12a28.67,28.67,0,0,0-4.21-2.41l-.06,0-.95-.42-.28-.12c-.29-.13-.6-.25-.9-.36l-.36-.14-.89-.32-.39-.14-.9-.29-.4-.13-.94-.27L264.7,97l-1-.26-.32-.08-1.08-.26-.08,0c-1.72-.39-3.5-.73-5.34-1l-.23,0-1.21-.19-.31-.05-1.2-.19-.33,0-1.26-.19-.23,0-5-.69c-6.28-1.42-13.66-3.54-20.54-2.94h0a60,60,0,0,0-6.21.5A68,68,0,0,0,213,92.93c-9.61,2.38-18,6.48-24.26,9.74-.5.27-1,.54-1.45.82l-.45.27c-.39.24-.77.49-1.14.74l-.47.32-.91.67-.49.38c-.3.24-.59.47-.87.72l-.52.45-.71.66-.4.38c-.31.31-.61.61-.9.92l-.17.19-.82.92a1.83,1.83,0,0,1-.13.16c-.3.36-.6.72-.87,1.08h0l0,0a33.13,33.13,0,0,0-4.28,7.42v0l-.22.55v0a16.3,16.3,0,0,0-.63,1.91h0c-10.73,6.62-16.13,13.36-17.39,23.69-.09.69-.15,1.39-.2,2.11h0c0,.57-.07,1.12-.09,1.66,0,.14,0,.29,0,.43q0,.61,0,1.2v.36c0,.49,0,1,0,1.41a1.93,1.93,0,0,0,0,.24c0,.37,0,.73,0,1.07l0,.43.06.86,0,.38c0,.36.07.7.11,1,0,.18,0,.35.07.53s0,.34.07.5.06.41.1.61,0,.18,0,.27l.09.56L140.4,172.63a10.84,10.84,0,0,0-2.49,2.38c-3.87,2.55-7,4.41-8.16,5a18.74,18.74,0,0,0-3.59,2.68,39.21,39.21,0,0,0-4.52,5.16l0,0c-1.78,2.37-3.35,4.77-4.68,6.64a21.82,21.82,0,0,1-2.06,2.58l-.12.12c-27.22,27.1-49,43.72-65.15,78.86C41.1,294.66,37,314.88,33,334.9Q22.46,387.94,11.88,441H406.62Q398,387.94,389.45,334.9Z" />
      <path class="BUNTAI_WALRUS_BODY_BUNTAI_WALRUS_BODY-45_cls-5" d="M99.16,310.54c6.08,9.2,6.64,21.11,4.44,31.91a91.39,91.39,0,0,1-2.94,10.66c-2.31,6.94-5.23,13.72-7.76,20.59-3.79,10.35-6.76,21.38-5.29,32.31,1.73,12.89,9.53,24.09,19.79,32.32A70.38,70.38,0,0,0,119,445.84c15.59,8.08,33.28,11,50.63,13.74" />
      <path class="BUNTAI_WALRUS_BODY_BUNTAI_WALRUS_BODY-45_cls-5" d="M349.48,348.26c2.46,8.66,6.17,17,9.28,25.44,3.8,10.35,6.76,21.38,5.29,32.31-1.68,12.63-9.21,23.63-19.17,31.81a68.88,68.88,0,0,1-12.18,8c-15.59,8.08-33.28,11-50.63,13.74" />
      <path class="BUNTAI_WALRUS_BODY_BUNTAI_WALRUS_BODY-45_cls-5" d="M352.5,310.54c-6.08,9.2-6.64,21.11-4.43,31.91.4,1.95.88,3.88,1.41,5.8" />
      <path class="BUNTAI_WALRUS_BODY_BUNTAI_WALRUS_BODY-45_cls-5" d="M100.66,353.11a97.38,97.38,0,0,0-10.24-34.93" />
      <path class="BUNTAI_WALRUS_BODY_BUNTAI_WALRUS_BODY-45_cls-5" d="M358.33,315.48a127.94,127.94,0,0,0-8.85,32.77h0" />
      <path class="BUNTAI_WALRUS_BODY_BUNTAI_WALRUS_BODY-45_cls-6" d="M219,248.4h0l-.08,4.49c-.31,18.49-1,56-2.07,83.25h0c-.1,2.58-.2,5.07-.31,7.44a276.67,276.67,0,0,1-3.62,33.47c-3.69,22-9,38.35-10.71,38.35-2.56,0-5.07-3.61-8.21-31.57-.86-7.59-1.8-19.69-2.72-33.37-1.23-18.18-2.42-39.15-3.3-56h0c-.56-10.5-1-19.4-1.25-25l-1.49-30.89c2.8,1.63,5.76,3.19,8.92,4.89C201.71,247.49,210.59,249.63,219,248.4Z" />
      <path class="BUNTAI_WALRUS_BODY_BUNTAI_WALRUS_BODY-45_cls-6" d="M254.53,246.11a17.16,17.16,0,0,0,1.59.92c6.86,3.48,14.64,1.39,21-3.62,4.71-3.69,8.77-6.67,12.46-11.21L287.54,273c-.07,3.72-.15,7.65-.24,11.7-.21,9.3-.44,19.26-.72,28.93-.31,10.77-.66,21.2-1.05,30a199.87,199.87,0,0,1-5.15,36h0c-4.84,20.73-11.5,35.79-13.18,35.79s-1.61-1.51-2.22-10.11c-.34-4.71-.88-11.56-2-21.46-.67-6-1.4-14.9-2.13-25.23h0c-2.68-37.94-5.38-94.85-5.38-94.85l-.65-11-.38-6.46h0Z" />
      <path class="BUNTAI_WALRUS_BODY_BUNTAI_WALRUS_BODY-45_cls-6" d="M287.53,273c-.07,3.72-.15,7.65-.24,11.7-.22,9.94-.48,20.63-.78,30.92,0,.76,0,1.51-.07,2.26,0,1.5-.09,3-.14,4.47,0,.74,0,1.48-.07,2.21-.16,4.9-.32,9.63-.5,14,0,.45,0,.89-.05,1.32,0,.84-.07,1.67-.11,2.48,0,.41,0,.82-.05,1.23,0,.85-.08,1.7-.13,2.55,0,.65-.08,1.3-.13,2,0,.09,0,.19,0,.28-.08,1-.16,2-.25,3s-.19,2-.29,3l0,.3q-.44,4-1,7.82-.33,2.17-.69,4.29c-.23,1.32-.46,2.63-.71,3.92-.51,2.68-1.06,5.3-1.64,7.83-.08.37-.17.74-.25,1.1h0c-4.84,20.73-11.5,35.79-13.18,35.79s-1.61-1.51-2.22-10.11q-.12-1.76-.3-3.93v0c-.35-4.38-.86-10.09-1.69-17.51-.11-1-.21-2-.32-3.09-.16-1.57-.32-3.28-.49-5.12,0-.4-.06-.81-.1-1.2-.07-.81-.14-1.63-.21-2.48-.21-2.62-.44-5.44-.65-8.41q-.18-2.4-.36-4.92h0q-.13-1.89-.27-3.84c0-.22,0-.43,0-.65,0-.76-.1-1.52-.16-2.29,0-.41-.05-.82-.08-1.24-.06-1-.12-1.91-.19-2.88-.09-1.44-.19-2.91-.28-4.38-.08-1.19-.15-2.4-.23-3.61,0-.11,0-.22,0-.33q-.26-4.09-.5-8.27c-.27-4.47-.53-9-.78-13.4-.08-1.29-.15-2.57-.22-3.85a2.44,2.44,0,0,1,0-.27c0-.24,0-.47-.05-.71s0-.65-.05-1c0-.47,0-.95-.08-1.42,0-.32,0-.65-.05-1l0-.58c0-.37,0-.57,0-.57v-.11s0-.09,0-.14v-.07c-.08-1.28-.14-2.54-.21-3.79-.05-1-.11-1.94-.16-2.9s-.1-1.76-.14-2.63c0-.6-.06-1.19-.1-1.79s-.06-1.18-.09-1.76c-.06-1.17-.12-2.32-.18-3.44l-.09-1.67c0-.64-.06-1.28-.1-1.9-.05-1-.1-2-.15-2.9v-.09c0-.44,0-.87-.06-1.29-.08-1.36-.14-2.67-.21-3.93l-.06-1.16,0-.7c0-.44,0-.87-.07-1.29-.06-1.27-.12-2.47-.18-3.58,0-.37,0-.74,0-1.09a.86.86,0,0,0,0-.16l0-.61c0-.09,0-.17,0-.25,0-.32,0-.62,0-.91s0-.66,0-1c0-.14,0-.29,0-.43s0-.28,0-.41,0-.48,0-.71c0-.75-.07-1.39-.09-1.94,0-.1,0-.19,0-.28,0-1.13-.08-1.73-.08-1.73l-.65-11-.38-6.46a44.14,44.14,0,0,0,3.93,5.31,38.34,38.34,0,0,0,4,4c-.4-.49-.79-1-1.19-1.59a49.32,49.32,0,0,1-4.18-7.7c-.15-.32-.3-.66-.44-1a91.43,91.43,0,0,1,6.78,6.17h0c1.08,1.09,2.23,2.29,3.39,3.57l.31.35c1,1.14,2,2.34,3,3.59.33.41.65.83,1,1.25a38.69,38.69,0,0,0,9.4,8.72l0,0a43.85,43.85,0,0,0,6.63,3.73Z" />
      <path class="BUNTAI_WALRUS_BODY_BUNTAI_WALRUS_BODY-45_cls-6" d="M219,247.85c0,.21,0,.43,0,.65,0,.89,0,1.86,0,2.9h0l-.35.4-.44.48-.4.43c-.33.36-.6.63-.75.79l-.07.07-.06.07,0,0c-.68.68-1.37,1.31-2.06,1.88,1.45-.84,2.82-1.72,4.13-2.65q0,.82,0,1.71c0,.43,0,.86,0,1.31s0,1,0,1.44v.44c0,.35,0,.71,0,1.07,0,2-.08,4.05-.11,6.25,0,.61,0,1.24,0,1.87l0,1.67c0,.71,0,1.42,0,2.14-.07,3.07-.13,6.31-.2,9.65,0,1.67-.07,3.37-.11,5.09-.06,2.8-.13,5.66-.2,8.55,0,1.54-.07,3.09-.11,4.64,0,1.12-.06,2.24-.08,3.36l-.09,3.37-.09,3.35-.09,3.37c-.1,3.52-.2,7-.32,10.42,0,1.18-.06,2.34-.11,3.5,0,.08,0,.17,0,.25,0,.64,0,1.27-.06,1.91-.09,2.7-.18,5.35-.28,7.9,0,.14,0,.28,0,.42,0,1.22-.09,2.41-.14,3.58s-.1,2.32-.15,3.44c0,.34,0,.68-.05,1,0,1-.1,2.06-.16,3.09,0,.05,0,.1,0,.15-.1,1.49-.2,3-.32,4.46-.05.67-.11,1.34-.17,2s-.1,1.21-.16,1.82c-.08.87-.17,1.74-.25,2.6a1.11,1.11,0,0,0,0,.17c-.35,3.36-.76,6.66-1.2,9.87-.4,2.83-.83,5.6-1.28,8.28-.07.43-.14.86-.22,1.28-2.78,16.19-6.38,29.1-8.7,34.43-.75,1.71-1.37,2.64-1.79,2.64-.82,0-1.64-.37-2.47-1.8-.1-.17-.2-.35-.3-.56a2.1,2.1,0,0,1-.13-.26,19.49,19.49,0,0,1-1.11-3.07c0-.15-.09-.3-.13-.46s-.09-.32-.13-.49-.14-.52-.21-.8l-.32-1.4q-.06-.25-.12-.54c-1-4.72-2.12-11.76-3.29-22.19-.15-1.37-.31-2.88-.47-4.52,0-.07,0-.14,0-.21-.08-.79-.15-1.61-.23-2.46-.13-1.38-.26-2.84-.38-4.37,0-.51-.09-1-.13-1.55-.09-1-.17-2.12-.26-3.21-.16-2-.32-4.15-.48-6.34-.08-1.05-.15-2.12-.23-3.2-.09-1.27-.18-2.57-.27-3.88l-.06-.87c-.07-.91-.13-1.83-.19-2.76,0-.36-.05-.71-.07-1.07-.12-1.86-.25-3.76-.37-5.67-.06-.91-.12-1.8-.17-2.67,0-.36,0-.72-.07-1.07s-.07-1-.1-1.52q-.06-1-.12-1.92c0-.41-.05-.84-.08-1.28s-.06-.91-.08-1.36-.06-.92-.08-1.39c-.26-4-.5-8.11-.73-12.14-.17-2.8-.32-5.58-.47-8.32-.35-6.14-.67-12.09-1-17.6v0q-.21-3.93-.4-7.52-.07-1.56-.15-3c0-.55,0-1.08-.08-1.61-.09-1.85-.18-3.6-.26-5.23,0-.42,0-.84-.06-1.24-.08-1.62-.15-3.12-.21-4.47,0-.11,0-.22,0-.33s0-.29,0-.42a.22.22,0,0,1,0-.08c0-.09,0-.18,0-.27,0-.54,0-.83,0-.83h0l.07,0,.12-.06.68-.29,1.44-.67,1.15-.56c.59-.29,1.19-.59,1.79-.91.39-.2.77-.41,1.16-.63,1-.55,2-1.13,3-1.75l.08-.05.14-.09c.41-.26.81-.53,1.21-.81a1.37,1.37,0,0,0,.2-.13c.33-.23.65-.45,1-.69l.59-.44.92-.71.34-.28.08-.06c.4-.34.81-.67,1.19-1l1-.85.12-.11c.45-.39.92-.78,1.39-1.17l1.41-1.14q.72-.57,1.44-1.11c.48-.37.95-.73,1.43-1.08,0,0,0,0,0,0l.06,0h0s0,0,0,0l2.22-1.59c.72-.51,1.44-1,2.15-1.47l.91-.6c.29-.2.58-.38.87-.57l1.26-.81C217.17,249,218.13,248.37,219,247.85Z" />
      <path class="BUNTAI_WALRUS_BODY_BUNTAI_WALRUS_BODY-45_cls-7" d="M203.84,289.47c-1.56.06-3.91.15-13.76,20.23q-.59,1.19-1.14,2.37c.15,2.74.31,5.52.47,8.32,5.9-12.73,12.07-24.51,14.55-26.72,2.59,2.38,8.56,16,13.35,28.93.12-3.41.22-6.9.32-10.42C208.54,289.28,205.09,289.4,203.84,289.47Z" />
      <path class="BUNTAI_WALRUS_BODY_BUNTAI_WALRUS_BODY-45_cls-7" d="M201.93,385.47c-1.84-1.57-5.86-9.6-9.42-17.94.34,4.39.69,8.38,1,11.8,4.55,9.12,6.45,10.09,8,10.24h.24c2.5,0,6.17-3.76,10.95-11.23.08-.42.15-.85.22-1.28.45-2.68.88-5.45,1.28-8.28l-.34-.19C209.71,376,204.11,384.22,201.93,385.47Z" />
      <path class="BUNTAI_WALRUS_BODY_BUNTAI_WALRUS_BODY-45_cls-7" d="M203.55,313.45c-1.35.05-3.38.14-11.89,17.48-.49,1-1,2-1.44,3,.14,2.4.29,4.79.45,7.15,5.21-11.35,10.78-22,13-24,2.42,2.23,8.24,15.73,12.51,27.66l.33-.12c0-.34,0-.68,0-1,.1-2.24.2-4.59.29-7C208,313.28,204.7,313.42,203.55,313.45Z" />
      <path class="BUNTAI_WALRUS_BODY_BUNTAI_WALRUS_BODY-45_cls-7" d="M201.93,370.44c-2.07-1.77-6.88-11.69-10.72-21,0,.36,0,.71.07,1.07.25,3.71.5,7.3.75,10.71,5.66,12,7.79,13.19,9.48,13.35h.24c2.95,0,7.53-5.25,13.65-15.63.38-3.68.7-7.43.93-11.22l-2.53,6C209.67,361,204.1,369.2,201.93,370.44Z" />
      <path class="BUNTAI_WALRUS_BODY_BUNTAI_WALRUS_BODY-45_cls-7" d="M204.05,350.43c1-2.94,2.3-6.87,2.58-8.06s-1.21-4.62-2.41-7a1.46,1.46,0,0,0-2.63,0c-1.32,2.81-3.19,7-3.12,7.95s1.62,4.5,2.86,7.26A1.46,1.46,0,0,0,204.05,350.43Z" />
      <path class="BUNTAI_WALRUS_BODY_BUNTAI_WALRUS_BODY-45_cls-7" d="M286.51,315.59c0,.76,0,1.51-.07,2.26,0,1.5-.09,3-.14,4.47,0,.74,0,1.48-.07,2.21-5.51-12.22-11.65-24.41-15-29.16a9.65,9.65,0,0,0-1.41-1.7c-2.26,2.07-7.1,12.66-11.46,23.94l0,.12c-.08-1.29-.15-2.57-.22-3.85l-.06-1c0-.32,0-.65-.05-1,0-.47,0-.95-.08-1.42,0-.32,0-.65-.05-1s-.05-.84-.07-1.26c0,0,0-.09,0-.14h0c7.87-18.84,11-18.73,12.16-18.66a2.91,2.91,0,0,1,1.13.22c1.72.73,4.81,4.07,12.63,20C284.65,311.69,285.61,313.68,286.51,315.59Z" />
      <path class="BUNTAI_WALRUS_BODY_BUNTAI_WALRUS_BODY-45_cls-7" d="M271.83,385.47c-1.84-1.06-6.17-7.17-10-13.51.27,3.26.54,6.22.8,8.8,4,5.86,7.14,8.82,9.36,8.82h.23c1.59-.16,3.55-1.18,8.38-11.05,1.16-5.07,2.2-10.46,3-16l-.28-.11C279.45,372.27,274.05,383.57,271.83,385.47Z" />
      <path class="BUNTAI_WALRUS_BODY_BUNTAI_WALRUS_BODY-45_cls-7" d="M285.26,348.1c0,.09,0,.19,0,.28-.08,1-.16,2-.25,3s-.19,2-.29,3l0,.3c-.84,1.93-1.83,4.15-2.87,6.38-4.75,10.11-7,12.63-8.64,13.28a3.06,3.06,0,0,1-.92.22H272c-2.46,0-6.05-3.63-10.71-10.84h0l-.1-.15q-.18-2.4-.36-4.92h0q-.13-1.89-.27-3.84l.15.24c4,7,9.07,14.25,11.1,15.42a10.14,10.14,0,0,0,1.65-2.13c2.64-4.15,6.74-13,9.91-21Z" />
      <path class="BUNTAI_WALRUS_BODY_BUNTAI_WALRUS_BODY-45_cls-7" d="M285.73,338.57c0,.45,0,.89-.05,1.32,0,.84-.07,1.67-.11,2.48,0,.41,0,.82-.05,1.23,0,.85-.08,1.7-.13,2.55-4.68-10.54-10.13-21.55-13.39-26.58a13.38,13.38,0,0,0-1.9-2.49c-2,1.88-6.5,11.79-10.41,22l-.12.31q-.26-4.09-.5-8.27l.1-.24c7.2-17.59,10-17.47,11-17.44a2.42,2.42,0,0,1,1.59.55c1.61,1.18,4.4,4.91,10.29,16.93C283.38,333.57,284.63,336.2,285.73,338.57Z" />
      <path class="BUNTAI_WALRUS_BODY_BUNTAI_WALRUS_BODY-45_cls-7" d="M272.43,350.56c1.24-2.76,2.79-6.35,2.86-7.26s-1.79-5.14-3.12-7.95a1.46,1.46,0,0,0-2.63,0c-1.19,2.42-2.69,5.82-2.41,7s1.59,5.12,2.58,8.06A1.46,1.46,0,0,0,272.43,350.56Z" />
      <path class="BUNTAI_WALRUS_BODY_BUNTAI_WALRUS_BODY-45_cls-2" d="M296.64,202.21v.57c0,.77,0,1.52-.05,2.25s0,1.24-.08,1.83c0,.16,0,.32,0,.48s0,.13,0,.2,0,.13,0,.19h0l0,.39c0,.55-.09,1.07-.14,1.56,0,.23-.06.44-.09.65a17,17,0,0,1-.43,2.26c-.3,1.07-.6,2.13-.91,3.15a1.87,1.87,0,0,1-.07.22.14.14,0,0,1,0,.06,1,1,0,0,1-.05.16c-.13.42-.25.84-.39,1.25s-.21.68-.33,1-.29.87-.45,1.3c-.38,1.07-.8,2.13-1.26,3.16-.17.4-.35.79-.54,1.18a.36.36,0,0,1,0,.09c-.18.38-.38.77-.58,1.14s-.46.87-.71,1.3a3.39,3.39,0,0,0-.23.47,3.6,3.6,0,0,0-.23,1.59h0c0,.48.11.94.15,1.39a4.84,4.84,0,0,1,0,.53c0,.12,0,.23,0,.35a2.17,2.17,0,0,1,0,.25,2,2,0,0,1-.32.77,1.33,1.33,0,0,1-.14.19c-.42.51-.84,1-1.27,1.48s-.64.71-1,1.05c-.65.68-1.31,1.32-2,1.95-.34.32-.68.63-1,.93-.56.49-1.12,1-1.7,1.45l-1.76,1.43-1.13.88-.17.14-2.11,1.65-.14.1-.19.15-.48.37c-.46.34-.92.67-1.39,1l-.46.3a25.28,25.28,0,0,1-4.72,2.4h0l-.21.07-.58.2-.58.19c-.21.07-.43.13-.64.18a16.39,16.39,0,0,1-2.06.43c-.21,0-.43.07-.65.09s-.6.06-.9.08-.49,0-.74,0h-.36c-.31,0-.62,0-.92,0l-.35,0-.63-.06a2.76,2.76,0,0,1-.4-.06,14.2,14.2,0,0,1-1.7-.34h0c-.32-.08-.65-.17-1-.28l-.56-.19-.78-.32-.44-.2c-.15-.06-.29-.14-.44-.21-.43-.22-.87-.47-1.3-.74l-.29-.18-.32-.22-.67-.49c-.23-.16-.45-.34-.67-.52h0l-.66-.58-.15-.13-.53-.5-.58-.59c-.41-.43-.82-.89-1.21-1.36l-.59-.72c-.21-.28-.42-.57-.62-.87s-.41-.59-.61-.89-.41-.64-.61-1-.35-.6-.51-.91c-.34-.61-.65-1.24-.95-1.89l0-.1q-.24-.53-.45-1.05c-.1-.26-.21-.52-.3-.78s-.24-.66-.35-1-.17-.53-.25-.8-.16-.55-.23-.82-.18-.71-.26-1.07a3,3,0,0,1-.07-.32c-.11-.49-.2-1-.27-1.49q-.08-.43-.12-.87c-.09-.73-.15-1.47-.17-2.21,0-.29,0-.59,0-.88h0c0,.32,0,.64,0,.95s0,.43-.05.65a.66.66,0,0,1,0,.14c0,.19,0,.37-.07.56v0c0,.22-.06.45-.1.67-.08.5-.19,1-.31,1.48,0,.17-.08.33-.13.5s-.16.55-.25.82-.18.55-.29.82c0,0,0,.07,0,.11-.07.2-.15.39-.23.59l0,.05c-.21.52-.45,1-.7,1.53-.11.21-.21.42-.33.62-.22.42-.46.82-.71,1.23-.1.16-.21.32-.31.49l-.12.18-.36.52c-.13.19-.26.38-.41.57h0a.09.09,0,0,1,0,0l0,0s0,0,0,0a.18.18,0,0,0,0,.07l-.45.57c-.31.39-.64.78-1,1.16l0,0c-.19.22-.39.43-.59.64s-.58.61-.89.91-.55.53-.83.78-.59.52-.89.78l-.87.7c-.3.24-.61.47-.92.69h0l-.88.61c-.4.27-.79.53-1.2.77s-.58.35-.87.51c-.14.08-.28.16-.43.23s-.58.31-.87.46h0c-.32.17-.65.31-1,.46h0l-1,.43-.2.08c-.38.15-.75.29-1.13.42l-.79.26-.75.23-.7.19c-.21.05-.42.11-.63.15a1.31,1.31,0,0,1-.27.06h-.06c-.43.1-.87.19-1.31.27s-.78.14-1.18.19a33,33,0,0,1-3.29.31c-.62,0-1.24,0-1.86,0h-.32c-.49,0-1,0-1.48-.06l-1.21-.09h-.07l-1.09-.12c-.6-.07-1.2-.16-1.79-.26L207,248l-.61-.12c-.43-.09-.85-.18-1.28-.29l-.8-.2c-.74-.19-1.48-.41-2.21-.64l-.5-.16h0l-.12,0-.11,0c-.6-.21-1.2-.42-1.79-.65l-.75-.3h0l-.09,0,0,0-1-.41c-.57-.25-1.14-.52-1.7-.79s-1.22-.61-1.82-.93l-1.13-.6-2.56-1.39-.21-.12c-1.55-.82-3-1.64-4.49-2.48l-.33-.18h0l-.19-.11-.49-.3a5,5,0,0,1-.45-.29c-.2-.14-.39-.27-.56-.41s-.27-.21-.39-.31l0,0-.19-.17-.56-.53c-.22-.23-.42-.47-.61-.71a0,0,0,0,1,0,0,18.54,18.54,0,0,1-2-3.63,23.2,23.2,0,0,0-3.4-5.5l-.09-.1h0a0,0,0,0,1,0,0c-.17-.2-.33-.41-.48-.62a.1.1,0,0,1,0-.05c-.14-.19-.28-.39-.4-.58s-.27-.42-.39-.64h0c-.1-.16-.19-.34-.28-.51l0-.05-.18-.38s0,0,0-.05l-.14-.3c-.08-.18-.16-.35-.22-.53l-.1-.25-.3-.84-.21-.71c-.1-.33-.19-.67-.28-1-.17-.69-.33-1.38-.49-2.09-.11-.47-.22-1-.34-1.43-.05-.24-.12-.48-.18-.72a.19.19,0,0,1,0-.07c-.1-.37-.21-.75-.33-1.13s-.23-.72-.36-1.09c0,0,0,0,0,0s0,0,0-.05c-.09-.25-.19-.5-.29-.75-1.26-3.12-2.64-10.77-1.9-17.25.07-.64.17-1.28.27-1.89,0,0,0-.09,0-.13a.78.78,0,0,0,0-.14v-.1h0V193a0,0,0,0,0,0,0h0c.05-.33.11-.66.18-1s.11-.59.18-.87.12-.52.19-.77.16-.63.25-.93h0c.1-.31.19-.61.3-.89a4.09,4.09,0,0,1,.16-.42.61.61,0,0,1,.05-.12,2.88,2.88,0,0,1,.13-.31,3.73,3.73,0,0,1,.16-.35l.18-.36c.12-.23.25-.44.38-.64a.08.08,0,0,0,0,0h0a4.31,4.31,0,0,1,.57-.72h0c.47-.48.95-1,1.42-1.42.94-.93,1.87-1.82,2.78-2.66s1.81-1.66,2.69-2.43l1.32-1.12,1.31-1.07c.43-.35.86-.68,1.28-1l1.27-1q.63-.46,1.26-.9c.41-.29.83-.58,1.24-.85l.85-.55.84-.53c.56-.35,1.11-.68,1.66-1l.83-.46.58-.31.58-.3.11-.06.9-.44.85-.4.29-.13q1-.47,2.1-.87c.39-.15.79-.3,1.18-.43l1.17-.39,1.17-.35c.78-.21,1.56-.41,2.34-.58a47.08,47.08,0,0,1,12-.91l2.51.15c1.69.13,3.42.32,5.21.56,3.47.45,6.8,1.09,9.94,1.82,1.17.27,2.3.55,3.41.84,2.76.72,5.35,1.49,7.71,2.23h0a61.42,61.42,0,0,1,16.48-5.22c11.91-1.75,22,1.32,34.45,19.74a14.87,14.87,0,0,1,1.62,5.38,65.4,65.4,0,0,1,.69,7.37C296.61,199.63,296.64,200.94,296.64,202.21Z" />
      <path class="BUNTAI_WALRUS_BODY_BUNTAI_WALRUS_BODY-45_cls-8" d="M260.38,163.92c-.11.4-.33,1.14-.58,1.94a11,11,0,0,0-4.94,2.29,6.27,6.27,0,0,0-4.62.7c-1.54,1-1.77,3.32-1.66,5.25a18.17,18.17,0,0,1-4.7,3.8,26.75,26.75,0,0,1-6.66-3.78c.12-1.94-.1-4.28-1.65-5.27-2.85-1.83-6.48-.14-6.48-.14a19.67,19.67,0,0,0-6.87-2.53c-.37-.92-.71-1.81-.87-2.26-.44-1.22.52-2.63,2.79-5.17s6.38-1.13,9.7,2.36,9.44,7.07,9.44,7.07a43,43,0,0,0,7.36-7.07c2.59-3.49,5.79-4.89,7.56-2.36S260.72,162.7,260.38,163.92Z" />
      <path class="BUNTAI_WALRUS_BODY_BUNTAI_WALRUS_BODY-45_cls-2" d="M218.57,272.36c-.08,7.72-.48,42.35-1.59,63.68a9.9,9.9,0,0,0,.59,1l-.72-.91h0C217.6,316.57,218.18,291.68,218.57,272.36Z" />
      <path class="BUNTAI_WALRUS_BODY_BUNTAI_WALRUS_BODY-45_cls-2" d="M220.18,248.21a2.6,2.6,0,0,0,.15.28c-.43.06-.88.11-1.33.15v-.25c.4,0,.79-.11,1.18-.19Z" />
      <path class="BUNTAI_WALRUS_BODY_BUNTAI_WALRUS_BODY-45_cls-2" d="M222.15,251.32l.07.07-.45-.32-.05-.16.13.12.06.06.12.11Z" />
      <path class="BUNTAI_WALRUS_BODY_BUNTAI_WALRUS_BODY-45_cls-2" d="M243.13,257.7l1-.13a21.27,21.27,0,0,1-13.52-1.3,26.72,26.72,0,0,0,3.25.91c.34.08.68.14,1,.2q.77.15,1.56.24l1,.11c.39,0,.78.06,1.18.08s1,0,1.54,0l1.12,0,.6,0c.25,0,.49,0,.73-.06Z" />
      <path class="BUNTAI_WALRUS_BODY_BUNTAI_WALRUS_BODY-45_cls-2" d="M252.61,254.43a16.73,16.73,0,0,0,1.83-1.39v.28a13,13,0,0,1-3.22,1.94c.26-.14.5-.28.74-.43S252.4,254.57,252.61,254.43Z" />
      <path class="BUNTAI_WALRUS_BODY_BUNTAI_WALRUS_BODY-45_cls-2" d="M257.76,308.06c0,.1,0,.21,0,.32l0-.5A1.09,1.09,0,0,0,257.76,308.06Z" />
      <path class="BUNTAI_WALRUS_BODY_BUNTAI_WALRUS_BODY-45_cls-2" d="M257.85,309.64c0,.11,0,.22,0,.34l0-.54C257.84,309.51,257.84,309.57,257.85,309.64Z" />
      <path class="BUNTAI_WALRUS_BODY_BUNTAI_WALRUS_BODY-45_cls-2" d="M254.82,252.7l-.38.34a16.73,16.73,0,0,1-1.83,1.39c-.21.13-.42.27-.65.4s-.49.29-.74.43l-.1.05c-.32.18-.65.34-1,.5l-.58.26c-.34.15-.7.29-1.07.42l-.79.27-.7.2c-.25.08-.5.14-.75.2l-.12,0-.88.19q-.49.11-1,.18h-.06l-1,.13-.46,0-.73.06-.6,0-1.12,0c-.53,0-1,0-1.54,0s-.79,0-1.18-.08l-1-.11q-.79-.09-1.56-.24c-.36-.06-.7-.12-1-.2a26.72,26.72,0,0,1-3.25-.91q-1.2-.42-2.25-.9l-.49-.23a23,23,0,0,1-2.3-1.24l-.48-.3c-.32-.2-.61-.4-.87-.59l-.38-.27a16.37,16.37,0,0,1-1.37-1.1l-.17-.15-.08-.08,0,0-.07-.07-.12-.12-.12-.11-.06-.06-.13-.12-.09-.08a0,0,0,0,0,0,0l-.07-.12c-.15-.26-.48-.85-.8-1.44-.08-.13-.15-.26-.22-.39l-.2-.37a2.6,2.6,0,0,1-.15-.28h0c.44-.08.88-.17,1.31-.27h0l.29-.07c.21,0,.42-.1.63-.15l.7-.19.06,0,.69-.21.79-.26c.37-.13.73-.26,1.1-.41h0l.2-.08,1-.43h0c.32-.15.65-.29,1-.46h0l.44-.23c.15-.07.29-.15.43-.23s.29-.15.43-.23l.16-.09c.24-.14.48-.27.71-.42.41-.24.8-.5,1.2-.77s.59-.4.88-.61h0c.31-.22.62-.45.92-.69s.59-.46.87-.7.6-.51.89-.78l.42-.39c.14-.12.28-.26.41-.39.31-.3.6-.6.89-.91s.39-.41.57-.62l0,0,0,0c.33-.38.65-.76,1-1.16l.5-.64s0,0,0,0l0,0q.24-.31.45-.63a6,6,0,0,0,.36-.52l.12-.18h0l.3-.48c.25-.41.49-.81.71-1.23.12-.2.23-.41.33-.62.25-.5.49-1,.7-1.53l0-.05c.08-.2.16-.39.23-.59,0,0,0-.07,0-.11.11-.27.21-.55.29-.82a8.54,8.54,0,0,0,.25-.82,4.6,4.6,0,0,0,.13-.5,15,15,0,0,0,.31-1.48c0-.22.08-.44.1-.67v0a5,5,0,0,0,.07-.56.66.66,0,0,0,0-.14c0-.22,0-.43.05-.65s0-.63,0-.95h0c0,.29,0,.59,0,.88,0,.11,0,.21,0,.31a1.27,1.27,0,0,0,0,.2l0,.47c0,.2,0,.4.05.61s0,.31,0,.47a.77.77,0,0,0,0,.15q0,.44.12.87t.12.72a.15.15,0,0,0,0,.07c0,.23.09.47.14.7a3,3,0,0,0,.07.32s0,.06,0,.08c.08.33.16.66.25,1s.15.55.23.82.16.54.25.8l.27.8.3.78a1.54,1.54,0,0,0,.08.19c.28.71.6,1.4.93,2.08q.24.5.51,1c.16.31.33.61.51.91a.22.22,0,0,1,0,.08c.09.15.17.29.27.43l.29.46c.19.3.39.6.61.89s.41.59.62.87l.59.72s0,0,0,0c.19.23.38.46.59.68l.3.33c.09.11.2.22.31.33s.38.4.58.59l.5.47a1.29,1.29,0,0,0,.18.16v0l.65.56h0a8,8,0,0,0,.67.52,7.63,7.63,0,0,0,.67.49l.32.22-.09.13h0l0,.56Z" />
      <path class="BUNTAI_WALRUS_BODY_BUNTAI_WALRUS_BODY-45_cls-2" d="M297,197.26c2.59,17.91-2.34,28.27-7.28,34.74a2,2,0,0,0,.32-.77,2.17,2.17,0,0,0,0-.25c0-.12,0-.23,0-.35a4.84,4.84,0,0,0,0-.53c0-.45-.13-.91-.15-1.39h0a3.6,3.6,0,0,1,.23-1.59,5.08,5.08,0,0,1,.23-.47c.25-.43.49-.86.71-1.3s.4-.76.58-1.14a.36.36,0,0,0,0-.09c.19-.39.37-.78.54-1.18.46-1,.88-2.09,1.26-3.16.16-.43.31-.86.45-1.3s.23-.68.33-1,.23-.7.34-1.06a1.8,1.8,0,0,0,0-.19,1,1,0,0,0,.05-.16.14.14,0,0,0,0-.06,1.87,1.87,0,0,0,.07-.22c.31-1,.61-2.07.91-3.15a17,17,0,0,0,.43-2.26l.09-.65c.05-.49.1-1,.14-1.56,0-.18,0-.37.05-.55v0c0-.07,0-.14,0-.2s0-.32,0-.48c0-.59.07-1.2.08-1.83s0-1.48.05-2.25v-.57c0-1.27,0-2.58-.08-3.87h.2C296.86,198,297,197.64,297,197.26Z" />
      <path class="BUNTAI_WALRUS_BODY_BUNTAI_WALRUS_BODY-45_cls-2" d="M298.64,178.19h0c0,.6,0,1.2,0,1.8,0,.17,0,.33,0,.5v0c-.09,2.5-.6,7.94-.57,9.13a8.89,8.89,0,0,1-.35,3.13c0,.11-.07.22-.12.33.12-1.64.12-2.9.12-2.9q0-1.92-.06-3.9h0a3.17,3.17,0,0,1,0-.43l0-.39c0-.13,0-.25.05-.38.12-.92.38-1.86.58-2.8a13.37,13.37,0,0,0,.3-1.88c0-.16,0-.31,0-.44C298.62,179.39,298.63,178.79,298.64,178.19Z" />
      <path class="BUNTAI_WALRUS_BODY_BUNTAI_WALRUS_BODY-45_cls-2" d="M300.06,169.81c-.65,3.41-1.18,6.77-1.42,8.37A35.28,35.28,0,0,1,300.06,169.81Z" />
      <path class="BUNTAI_WALRUS_BODY_BUNTAI_WALRUS_BODY-45_cls-2" d="M299.44,145.66h0c-.17.05-1.91.51-4.27-1.22s-4.51-7.1-11.61,1.78h0a99.89,99.89,0,0,1,5.85-9.15c2.15-2.68,8.44,0,8.44,0S301,141.52,299.44,145.66Z" />
      <path class="BUNTAI_WALRUS_BODY_BUNTAI_WALRUS_BODY-45_cls-2" d="M302.26,159.14h0a23.7,23.7,0,0,1-.3,2.64,79.15,79.15,0,0,1-1.9,8,35.28,35.28,0,0,0-1.42,8.37h0c0,.6,0,1.2,0,1.8,0,.13,0,.28,0,.44a13.29,13.29,0,0,1-.2,1.41.15.15,0,0,1,0,.07l-.09.4c-.2.94-.46,1.88-.58,2.8,0,.13,0,.25-.05.38l0,.39c0,.07,0,.14,0,.22a1.48,1.48,0,0,0,0,.21h0q0,2,.06,3.9s0,1.26-.12,2.9v0a31.45,31.45,0,0,1-.54,4.12c-.08.38-.17.74-.27,1.07h-.2a65.4,65.4,0,0,0-.69-7.37l.19-3.33c-.11-.25-.22-.52-.32-.82-.2-.61-.38-1.32-.59-2.17-.06-.22-.11-.44-.17-.67-.16-.61-.33-1.28-.55-2l-.18-.62c0-.05,0-.1-.05-.15s-.09-.31-.14-.46c-.34-1.11-.76-2.35-1.31-3.75-.15-.4-.31-.81-.48-1.24l-.28-.66-.3-.71h0c-.24-.56-.48-1.13-.7-1.71-.15-.36-.29-.73-.42-1.1s-.17-.47-.26-.71c-.41-1.15-.79-2.33-1.15-3.51-.2-.66-.4-1.32-.58-2s-.36-1.28-.53-1.92q-.39-1.44-.75-2.88c-.25-1-.49-1.91-.73-2.85-.17-.71-.34-1.41-.52-2.1-.22-.88-.44-1.75-.67-2.6v0s0-.05,0-.07c-.28-1.07-.57-2.11-.86-3.12h0a1.55,1.55,0,0,1-.07-.23c-.33-1.08-.66-2.13-1-3.13.08.08.52.55,1.17,1.34l.42.52a38.09,38.09,0,0,1,2.89,4.19c.14.24.28.48.41.72a28,28,0,0,1,1.29,2.51l.2.45a.61.61,0,0,1,.07.14s0,0,0,0c.09.19.17.39.25.59,2.52,6.18,5.41,10.32,6.9,9.62,1.81-1.56,2.94-4.68,3.45-8.16l1.07.17.28,0Z" />
      <path class="BUNTAI_WALRUS_BODY_BUNTAI_WALRUS_BODY-45_cls-2" d="M299.44,145.67a24.61,24.61,0,0,1,1.27,10.16c0,.86-.14,1.72-.25,2.56-.51,3.48-1.64,6.6-3.45,8.16-1.49.7-4.38-3.44-6.9-9.62a36.62,36.62,0,0,0-6.71-10.49h0v0l.15-.18c1.39.44,2.49,1.86,3.7,2.9,1.61,1.39,3.74,4,6.68,2.68s5.35-5.85,5.5-6.14Z" />
      <path class="BUNTAI_WALRUS_BODY_BUNTAI_WALRUS_BODY-45_cls-2" d="M157.94,167.84l-.09-.61s0,0,0-.06c-.08-.31-.39-1.51-.73-3.21v0c-.22-1.06-.44-2.33-.64-3.69-.1-.5-.2-1-.29-1.52h0q.1.63.24,1.23a.13.13,0,0,1,0,.06c.14.71.29,1.4.44,2.1s.3,1.39.44,2.1l.24,1.2a.43.43,0,0,0,0,.11c0,.15.05.3.08.45s.1.59.15.9l0,.21,0,.18h0C157.9,167.45,157.92,167.64,157.94,167.84Z" />
      <path class="BUNTAI_WALRUS_BODY_BUNTAI_WALRUS_BODY-45_cls-2" d="M158.16,169.9c-.06-.71-.13-1.38-.21-2C158,168.52,158.11,169.19,158.16,169.9Z" />
      <path class="BUNTAI_WALRUS_BODY_BUNTAI_WALRUS_BODY-45_cls-2" d="M158.3,172.2c0-.81-.08-1.57-.14-2.3C158.23,170.63,158.27,171.39,158.3,172.2Z" />
      <path class="BUNTAI_WALRUS_BODY_BUNTAI_WALRUS_BODY-45_cls-2" d="M158.31,173c0-.27,0-.53,0-.78,0,.2,0,.4,0,.6v.08a2.25,2.25,0,0,1,0,.26A.81.81,0,0,0,158.31,173Z" />
      <path class="BUNTAI_WALRUS_BODY_BUNTAI_WALRUS_BODY-45_cls-2" d="M158.32,173.24v-.1c0,.31,0,.63,0,1h0v-.24a.37.37,0,0,0,0-.11A4.34,4.34,0,0,0,158.32,173.24Z" />
      <path class="BUNTAI_WALRUS_BODY_BUNTAI_WALRUS_BODY-45_cls-2" d="M158.33,174.57v-.47s0,0,0,0v.44c0,.4,0,.79,0,1.17,0,.13,0,.27,0,.4a2.55,2.55,0,0,1,0-.39C158.33,175.36,158.33,175,158.33,174.57Z" />
      <path class="BUNTAI_WALRUS_BODY_BUNTAI_WALRUS_BODY-45_cls-2" d="M158.34,176.16a7.07,7.07,0,0,0,.21,1.22A5.67,5.67,0,0,1,158.34,176.16Z" />
      <path class="BUNTAI_WALRUS_BODY_BUNTAI_WALRUS_BODY-45_cls-2" d="M168.81,194.83a5.27,5.27,0,0,1-1.25-4A6.25,6.25,0,0,0,168.81,194.83Z" />
      <path class="BUNTAI_WALRUS_BODY_BUNTAI_WALRUS_BODY-45_cls-2" d="M168.82,194.83a2.73,2.73,0,0,0,.35.33h0l.23.18c-.74,6.48.64,14.13,1.9,17.25.1.25.2.5.29.75,0,0,0,0,0,.05a0,0,0,0,0,0,0c.13.37.25.73.36,1.09s.23.76.33,1.13a.19.19,0,0,0,0,.07c.06.24.13.48.18.72.12.48.23,1,.34,1.43.16.71.32,1.4.49,2.09.09.34.18.68.28,1l.21.71.3.84.1.25c.06.18.14.35.22.53l.14.3s0,0,0,.05l.18.38,0,.05c.09.17.18.35.28.51h0c.12.22.25.43.39.64s.26.39.4.58a.1.1,0,0,0,0,.05c.15.21.31.42.48.62v0a0,0,0,0,0,0,0l.09.09a23.2,23.2,0,0,1,3.4,5.5,18.54,18.54,0,0,0,2,3.63C172.44,226.71,165.35,209.89,168.82,194.83Z" />
      <path class="BUNTAI_WALRUS_BODY_BUNTAI_WALRUS_BODY-45_cls-2" d="M186.74,269.54l0,.69C186.76,269.9,186.74,269.67,186.74,269.54Z" />
      <path class="BUNTAI_WALRUS_BODY_BUNTAI_WALRUS_BODY-45_cls-2" d="M186.81,271c0,.61.06,1.24.08,1.91,0-.85-.07-1.66-.11-2.41C186.8,270.65,186.8,270.82,186.81,271Z" />
      <path class="BUNTAI_WALRUS_BODY_BUNTAI_WALRUS_BODY-45_cls-2" d="M187.12,146.41l0,0a39.41,39.41,0,0,0-9.79,10.5c-3.67,6.18-7.89,10.32-10.07,9.62-6.05-3.56-6.86-15.41-3.53-20.89h0c.22.29,3.86,4.89,8,6.14s7.4-1.29,9.74-2.68c1.77-1,3.36-2.47,5.4-2.9Z" />
      <path class="BUNTAI_WALRUS_BODY_BUNTAI_WALRUS_BODY-45_cls-2" d="M163.75,145.66c-2.31-4.14,2.38-8.59,2.38-8.59s9.18-2.68,12.31,0a107.2,107.2,0,0,1,8.53,9.15h-.06c-10.35-8.88-13.33-3.58-16.92-1.78a10.21,10.21,0,0,1-6.23,1.22Z" />
      <path class="BUNTAI_WALRUS_BODY_BUNTAI_WALRUS_BODY-45_cls-2" d="M299.05,130.05c-1.83-3.48-7-8.74-11.92-13.05-.41-.37-.83-.73-1.24-1.08a36.86,36.86,0,0,0-2.35-5,27.55,27.55,0,0,0-1.49-2.38c-.19-.28-.38-.56-.59-.82-.32-.45-.67-.89-1-1.3-.12-.15-.24-.29-.37-.43s-.44-.51-.67-.74-.61-.64-.93-.94a25.57,25.57,0,0,0-4-3.14c-.33-.22-.67-.42-1-.62a30.9,30.9,0,0,0-3.1-1.55l-1-.43-1.15-.44c-.28-.11-.57-.21-.86-.3-.6-.21-1.22-.4-1.85-.58l-.82-.23c-.22-.07-.44-.13-.67-.18l-1.48-.37c-.57-.14-1.16-.27-1.76-.39l-1-.2-2-.36-1.3-.22c-2.07-.34-4.2-.65-6.41-1L247.62,94l-.57-.08h0l-2.62-.36-1-.31-.35-.1c-.4-.13-.81-.24-1.21-.35l-1-.28c-.53-.14-1.05-.26-1.58-.38-.69-.15-1.39-.28-2.08-.41s-1.33-.21-2-.3-1-.13-1.55-.18l-.74-.07c-1.19-.11-2.37-.18-3.55-.19l-1.18,0c-.52,0-1,0-1.56,0-1.66,0-3.3.16-4.92.35l-1.07.13-.19,0-1,.14c-.94.14-1.88.3-2.81.48s-1.83.37-2.73.57l-1.63.41q-1.22.31-2.4.66a91,91,0,0,0-9.9,3.54c-.77.32-1.53.65-2.27,1l-1.78.81c-1.74.8-3.38,1.61-4.92,2.4l-.59.3-1.69.87a31,31,0,0,0-10.3,8.68l0,0-.09.13-.08.12c-.44.58-.84,1.16-1.22,1.72a31.81,31.81,0,0,0-2.31,4.13c-.12.24-.22.47-.32.7s-.19.44-.27.64-.12.31-.18.45a20.76,20.76,0,0,0-.69,2h0c-11.45,7.06-16.83,14.25-17.59,25.8a45.29,45.29,0,0,0,.54,11.58h0q.1.63.24,1.23a.13.13,0,0,1,0,.06c.14.71.29,1.4.44,2.1s.3,1.39.44,2.1l.24,1.2a.43.43,0,0,0,0,.11c0,.15.05.3.08.45s.1.59.15.9l0,.21s0,.06,0,.1,0,0,0,.06v0h0c0,.19,0,.38.07.58a.06.06,0,0,0,0,0c.09.64.16,1.31.21,2s.11,1.49.14,2.3c0,.2,0,.4,0,.6v.08a2.25,2.25,0,0,1,0,.26v.1c0,.12,0,.24,0,.37s0,.32,0,.48h0s0,0,0,0v.44c0,.4,0,.79,0,1.17,0,.13,0,.27,0,.4a0,0,0,0,0,0,0,7.07,7.07,0,0,0,.21,1.22c0,.18.11.35.17.53A10.85,10.85,0,0,0,160.5,181c1.61,2.05,3.79,3.89,5.31,5.55a5.87,5.87,0,0,1,1.81,3.08h0a8.42,8.42,0,0,0-.06,1.18v0a6.25,6.25,0,0,0,1.25,4h0a2.73,2.73,0,0,0,.35.33h0l.23.18c.07-.64.17-1.28.27-1.89,0,0,0-.09,0-.13a.78.78,0,0,0,0-.14v-.1h0V193a0,0,0,0,0,0,0h0c.05-.33.11-.66.18-1s.11-.59.18-.87.12-.52.19-.77.16-.63.25-.93h0c.1-.31.19-.61.3-.89a4.09,4.09,0,0,1,.16-.42.61.61,0,0,1,.05-.12,2.88,2.88,0,0,1,.13-.31,3.73,3.73,0,0,1,.16-.35l.18-.36c.12-.23.25-.44.38-.64a.08.08,0,0,0,0,0h0a4.31,4.31,0,0,1,.57-.72h0c.47-.48.95-1,1.42-1.42.94-.93,1.87-1.82,2.78-2.66s1.81-1.66,2.69-2.43l1.32-1.12c.44-.37.88-.73,1.31-1.07s.86-.68,1.28-1,.85-.65,1.27-1,.84-.61,1.26-.9.83-.58,1.24-.85l.85-.55.84-.53c.56-.35,1.11-.68,1.66-1l.83-.46.58-.31.58-.3.11-.06.9-.44.85-.4.29-.13q1-.48,2.1-.87c.39-.15.79-.3,1.18-.43l1.17-.39c.39-.13.78-.24,1.17-.35.78-.21,1.56-.41,2.34-.58a47.08,47.08,0,0,1,12-.91c.83,0,1.66.09,2.51.15,1.69.13,3.42.32,5.21.56-.37-.93-.71-1.81-.87-2.27-.44-1.22.52-2.63,2.79-5.17s6.38-1.13,9.7,2.36,9.44,7.08,9.44,7.08a43.24,43.24,0,0,0,7.36-7.08c2.59-3.49,5.79-4.89,7.56-2.36s2.52,3.95,2.18,5.17c-.11.4-.33,1.14-.58,1.94,11.91-1.75,22,1.32,34.45,19.74a14.87,14.87,0,0,1,1.62,5.38l.19-3.33a7,7,0,0,1-.32-.82c-.2-.61-.38-1.32-.59-2.17-.06-.22-.11-.44-.17-.67-.16-.61-.33-1.28-.55-2l-.18-.62c0-.05,0-.1-.05-.15s-.09-.31-.14-.46c-.34-1.11-.76-2.35-1.31-3.75-.15-.4-.31-.81-.48-1.24l-.28-.66-.3-.71h0c-.24-.56-.48-1.13-.7-1.71s-.46-1.2-.68-1.81c-.41-1.15-.79-2.33-1.15-3.51-.2-.66-.4-1.32-.58-2s-.36-1.28-.53-1.92q-.39-1.44-.75-2.88c-.25-1-.49-1.91-.73-2.85-.17-.71-.34-1.41-.52-2.1-.22-.88-.44-1.75-.67-2.6v0s0-.05,0-.07c-.28-1.07-.57-2.11-.86-3.12h0a1.55,1.55,0,0,1-.07-.23c-.33-1.08-.66-2.13-1-3.13h0v0l.11-.19c.29-.51,1.11-1.91,2.09-3.52h0c.12-.18.23-.37.35-.56,0,0,0,0,0,0a58.72,58.72,0,0,1,3.4-5c2.15-2.68,8.44,0,8.44,0s.11.15.28.43l.1.17c.08.13.16.27.25.44a9.41,9.41,0,0,1,.45.9c.08.17.15.35.22.53h0q.16.39.3.81a9.92,9.92,0,0,1,.27,1c0,.12.05.24.07.36s.05.32.07.48a7.86,7.86,0,0,1,0,1.61,7.53,7.53,0,0,1-.21,1.23c-.06.2-.12.4-.2.61h0a2.33,2.33,0,0,1,.11.28c.1.26.19.53.28.81s.13.42.18.64q.19.71.33,1.47c.06.35.12.7.17,1.06s.09.72.13,1.09c.05.57.09,1.14.11,1.73,0,.18,0,.37,0,.56s0,.28,0,.42h0c0,.69,0,1.39-.06,2.09,0,.86-.14,1.72-.25,2.56l1.07.17.28,0,.45.55c.06-1.07.12-2.14.19-3.21,0-.55.06-1.1.1-1.65C303.6,138.44,302.32,136.23,299.05,130.05ZM187.13,146.43c-.09.06-.64.46-1.46,1.14l-.28.23-.27.23c-.65.54-1.42,1.23-2.24,2l-.35.35c-.36.35-.73.73-1.09,1.13l-.63.7a.7.7,0,0,0-.14.16l-.69.82c-.22.27-.45.55-.66.83a.13.13,0,0,0-.06.07l-.43.57c-.06.08-.13.17-.18.25l0,.05,0,.05s0,0,0,0a8.59,8.59,0,0,0-.5.73c-.25.36-.48.73-.71,1.11-3.67,6.18-7.89,10.32-10.07,9.62-.21-.12-.41-.26-.61-.4a7.92,7.92,0,0,1-1.15-1,2,2,0,0,1-.24-.26,4.15,4.15,0,0,1-.43-.51,8.78,8.78,0,0,1-.54-.77,7.23,7.23,0,0,1-.4-.66c-.14-.25-.28-.52-.4-.79a4.58,4.58,0,0,1-.25-.56s0,0,0,0c-.08-.18-.15-.36-.22-.55a2.08,2.08,0,0,1-.12-.32c-.06-.16-.11-.32-.16-.48s-.14-.43-.2-.65a8.52,8.52,0,0,1-.22-.87,1.89,1.89,0,0,1-.05-.23c0-.15-.07-.29-.09-.44A9.53,9.53,0,0,1,162,157c0-.27-.07-.54-.1-.81l-.06-.79a.88.88,0,0,1,0-.17.81.81,0,0,1,0-.16c0-.36,0-.73,0-1.1s0-.74,0-1.11v-.06a.49.49,0,0,1,0-.12v0l0-.42c0-.24,0-.47.07-.71s.08-.66.14-1,.13-.69.2-1,.08-.36.13-.53.09-.3.13-.45,0,0,0,0q.13-.47.3-.9t.33-.81c.08-.18.16-.35.25-.52s.21-.39.32-.58a.91.91,0,0,1-.07-.14,3.59,3.59,0,0,1-.24-.53,0,0,0,0,1,0,0s0,0,0,0h0s0,0,0,0a3,3,0,0,1-.19-.63,1.55,1.55,0,0,1,0-.21c-.64-3.62,2.94-7,2.94-7s9.18-2.68,12.31,0a107.2,107.2,0,0,1,8.53,9.15l.15.19,0,0Z" />
      <path class="BUNTAI_WALRUS_BODY_BUNTAI_WALRUS_BODY-45_cls-9" d="M298.16,166.56c-3.17,1.5-6.7-5-9.79-12.62,4.14,7.29,8.34,9.09,10.56,5.89s2.4-12.75,2.4-12.75C302.64,155.31,301.33,165.07,298.16,166.56Z" />
      <path class="BUNTAI_WALRUS_BODY_BUNTAI_WALRUS_BODY-45_cls-9" d="M295,144.47c-4.18-2.89-5.27-3.23-9.74-1.67,7-7.25,10.53-1.09,12-1.31s2-2.4,2-2.4c2,2,1.29,6.26,1.29,6.26S299.18,147.35,295,144.47Z" />
      <path class="BUNTAI_WALRUS_BODY_BUNTAI_WALRUS_BODY-45_cls-9" d="M274.44,101.17c-.33-.22-.67-.42-1-.62a30.9,30.9,0,0,0-3.1-1.55l-1-.43-1.15-.44c-.28-.11-.57-.21-.86-.3-.6-.21-1.22-.4-1.85-.58l-.82-.23c-.22-.07-.44-.13-.67-.18l-1.48-.37c-.57-.14-1.16-.27-1.76-.39l-1-.2-2-.36-1.3-.22c-2.07-.34-4.2-.65-6.41-1L247.62,94l-.57-.08h0l-2.62-.36-1-.31-.35-.1c-.4-.13-.81-.24-1.21-.35l-1-.28c-.53-.14-1.05-.26-1.58-.38-.69-.15-1.39-.28-2.08-.41s-1.33-.21-2-.3-1-.13-1.55-.18l-.74-.07c-1.19-.11-2.37-.18-3.55-.19l-1.18,0c-.52,0-1,0-1.56,0-1.66,0-3.3.16-4.92.35l-1.07.13-.19,0-1,.14-.58.09c-12.93-.1-27.91,9.78-33.52,12.52-2.42,1.19-4.58,3.71-6.4,6.44-.18.21-.35.43-.52.65l0,0-.09.13-.08.12c-.44.58-.84,1.16-1.22,1.72a31.81,31.81,0,0,0-2.31,4.13c-.12.24-.22.47-.32.7s-.19.44-.27.64-.12.31-.18.45l-.23.61a.08.08,0,0,1,0,0,13.23,13.23,0,0,1-3.67,3.52l0,0c-.73.5-1.43,1-2.1,1.52l0,.18a77.51,77.51,0,0,0-5.93,5.44c-7.65,7.7-7,22.46-5.88,27.26a.19.19,0,0,1,0,.07c0,.26.08.52.13.78h0q.1.63.24,1.23a.13.13,0,0,1,0,.06c.14.71.29,1.4.44,2.1s.3,1.39.44,2.1l.24,1.2a.43.43,0,0,0,0,.11c0,.15.05.3.08.45s.1.59.15.9l0,.21s0,.06,0,.1,0,0,0,.06v0h0c0,.19,0,.38.07.58a.06.06,0,0,0,0,0c.09.64.16,1.31.21,2s.11,1.49.14,2.3c0,.2,0,.4,0,.6v.08a2.25,2.25,0,0,1,0,.26v.1c0,.12,0,.24,0,.37s0,.32,0,.48h0s0,0,0,0v.44c0,.4,0,.79,0,1.17,0,.13,0,.27,0,.4a0,0,0,0,0,0,0,7.07,7.07,0,0,0,.21,1.22c0,.18.11.35.17.53.38,1.07,9.16,10.44,9.93,11.41,1.61,2.05-4.36-4.46-2.84-2.8a5.87,5.87,0,0,1,1.81,3.08h0a8.42,8.42,0,0,0-.06,1.18v0a6.25,6.25,0,0,0,1.25,4h0c-.22,1-.41,2-.54,2.94,0,0-5.94,5.43-2.9-1.76-6.84-6.19,5.47-22.47,5.47-22.47h0a10.35,10.35,0,0,0,1.12-.85c7.58-6.49,12.53-20.53,12.53-20.53l.73-4.24a40.11,40.11,0,0,0-6.65,7.13l.59-1.11c-5.34,7.29-10.75,9.09-13.6,5.89-1.79-2-2.55-6.52-2.87-9.6a23,23,0,0,1,1-4.71c-2.14-4.1,2.45-8.46,2.45-8.46s1.38-.4,3.25-.74a43.07,43.07,0,0,1,14-16.2c2-1.4,4.3-3,6.81-4.7a61.57,61.57,0,0,0,7.4-5.88,22.19,22.19,0,0,0,4.56-5.42c-.48.32-16,10.53-22,12.59A28.61,28.61,0,0,1,191,104.55h0c5.37-3.34,12.13-8,31.83-10.27,6.77-.66,15.91,2.09,24.33,2.75,8.14.64,19.28,1.59,30,6.14A24,24,0,0,0,274.44,101.17Z" />
      <path class="BUNTAI_WALRUS_BODY_BUNTAI_WALRUS_BODY-45_cls-10" d="M295.16,144.44c-2.47-1.8-4.51-7.1-11.61,1.78,1.39.44,2.49,1.86,3.7,2.9,1.61,1.39,3.74,4,6.68,2.68s5.35-5.85,5.5-6.14C299.26,145.71,297.52,146.17,295.16,144.44Z" />
      <path class="BUNTAI_WALRUS_BODY_BUNTAI_WALRUS_BODY-45_cls-10" d="M170,144.44a10.21,10.21,0,0,1-6.23,1.22c.22.29,3.86,4.89,8,6.14s7.4-1.29,9.74-2.68c1.77-1,3.36-2.47,5.4-2.9C176.56,137.34,173.58,142.64,170,144.44Z" />
      <path class="BUNTAI_WALRUS_BODY_BUNTAI_WALRUS_BODY-45_cls-4" d="M173.24,121.32c1.64-1,3.4-2,5.29-3,15.12-8.12,17.56-10.66,17.56-10.66" />
      <path class="BUNTAI_WALRUS_BODY_BUNTAI_WALRUS_BODY-45_cls-4" d="M168.81,194.83a5.27,5.27,0,0,1-1.25-4v0c0-.43.05-.83.06-1.18h0c0-1-.68-2-1.7-3.15-1.56-1.71-3.88-3.6-5.55-5.72,0,0,0,0,0,0a10.52,10.52,0,0,1-1.64-2.79c-.06-.18-.12-.35-.17-.53a5.67,5.67,0,0,1-.21-1.22,0,0,0,0,1,0,0,2.55,2.55,0,0,1,0-.39c0-.38,0-.77,0-1.17v-.71a.37.37,0,0,0,0-.11.71.71,0,0,0,0-.14c0-.13,0-.25,0-.37v-.1a.81.81,0,0,0,0-.16c0-.27,0-.53,0-.78,0-.81-.08-1.57-.14-2.3s-.13-1.38-.21-2a.06.06,0,0,1,0,0l-.09-.61s0,0,0-.06,0-.07,0-.1l0-.21c-.05-.31-.11-.61-.15-.9s-.06-.3-.08-.45a.43.43,0,0,1,0-.11l-.24-1.2c-.14-.71-.29-1.41-.44-2.1s-.28-1.23-.41-1.86-.2-1-.29-1.52" />
      <path class="BUNTAI_WALRUS_BODY_BUNTAI_WALRUS_BODY-45_cls-4" d="M173.23,121.33c-11.45,7.06-16.83,14.25-17.59,25.8a45.29,45.29,0,0,0,.54,11.58" />
      <path class="BUNTAI_WALRUS_BODY_BUNTAI_WALRUS_BODY-45_cls-4" d="M285.89,115.93a36.86,36.86,0,0,0-2.35-5c-7.92-14.05-21.81-14.9-39.13-17.34-22-7.34-43.22,2.57-55.69,9.09a31,31,0,0,0-10.3,8.68l0,0-.09.13a30.08,30.08,0,0,0-5.07,9.81h0" />
      <path class="BUNTAI_WALRUS_BODY_BUNTAI_WALRUS_BODY-45_cls-4" d="M296.64,194.83a6,6,0,0,0,.93-1.69v0c.05-.11.08-.22.12-.33a8.89,8.89,0,0,0,.35-3.13c0-1.19.48-6.63.57-9.13v-.1c0-.16,0-.31,0-.44,0-.6,0-1.2,0-1.8h0a35.28,35.28,0,0,1,1.42-8.37,79.15,79.15,0,0,0,1.9-8,23.7,23.7,0,0,0,.3-2.64" />
      <path class="BUNTAI_WALRUS_BODY_BUNTAI_WALRUS_BODY-45_cls-4" d="M267,103.44s6.21,4,10.42,6.21c0,0,0,0,0,0l.45.24a56.35,56.35,0,0,1,8,6c.41.35.83.71,1.24,1.08,4.91,4.31,10.09,9.57,11.92,13,3.27,6.18,4.55,8.39,3.5,24.23,0,.55-.07,1.1-.1,1.65-.07,1.07-.13,2.14-.19,3.21" />
      <path class="BUNTAI_WALRUS_BODY_BUNTAI_WALRUS_BODY-45_cls-4" d="M216.85,336.14c.75-19.57,1.33-44.46,1.72-63.78,0-.53,0-1,0-1.55.14-6.93.25-13.08.33-17.92l.08-4.25v-.24" />
      <path class="BUNTAI_WALRUS_BODY_BUNTAI_WALRUS_BODY-45_cls-4" d="M216.85,336.15c-.1,2.58-.2,5.07-.31,7.44a276.67,276.67,0,0,1-3.62,33.47c-3.69,22-9,38.35-10.71,38.35a2.72,2.72,0,0,1-2.35-1.6q-.09-.13-.18-.3a22.25,22.25,0,0,1-1.87-5.22s0,0,0,0c-.12-.49-.24-1-.37-1.58-.06-.25-.11-.51-.17-.78-1-4.73-2.1-11.74-3.26-22.07-.86-7.59-1.8-19.69-2.72-33.37-.17-2.49-.33-5-.5-7.61,0-.08,0-.17,0-.25q-.24-3.93-.5-7.94c-.07-1.08-.13-2.16-.19-3.25-.79-12.78-1.51-25.78-2.09-37h0c-.07-1.23-.13-2.44-.19-3.62q-.07-1.49-.15-2.91t-.15-2.79c-.06-1.17-.11-2.3-.17-3.4,0-.55,0-1.09-.08-1.62-.05-1.06-.1-2.09-.15-3.07,0-.31,0-.61,0-.91q0-.9-.09-1.74c0-.51,0-1-.07-1.48,0-.85-.07-1.66-.11-2.41,0-.09,0-.18,0-.27l0-.69a.71.71,0,0,1,0-.14" />
      <path class="BUNTAI_WALRUS_BODY_BUNTAI_WALRUS_BODY-45_cls-4" d="M289.61,232.19,287.54,273c-.07,3.72-.15,7.65-.24,11.7-.21,9.3-.44,19.26-.72,28.93-.31,10.77-.66,21.2-1.05,30a199.87,199.87,0,0,1-5.15,36" />
      <path class="BUNTAI_WALRUS_BODY_BUNTAI_WALRUS_BODY-45_cls-4" d="M260.85,358.62c.73,10.33,1.46,19.25,2.13,25.23,1.11,9.9,1.65,16.75,2,21.46.61,8.6.57,10.11,2.22,10.11s8.34-15.06,13.18-35.79" />
      <path class="BUNTAI_WALRUS_BODY_BUNTAI_WALRUS_BODY-45_cls-4" d="M222.22,166.19c-.37-.93-.71-1.81-.87-2.27-.44-1.22.52-2.63,2.79-5.17s6.38-1.13,9.7,2.36,9.44,7.08,9.44,7.08" />
      <path class="BUNTAI_WALRUS_BODY_BUNTAI_WALRUS_BODY-45_cls-11" d="M243.28,168.19a43.24,43.24,0,0,0,7.36-7.08c2.59-3.49,5.79-4.89,7.56-2.36s2.52,3.95,2.18,5.17c-.11.4-.33,1.14-.58,1.94" />
      <path class="BUNTAI_WALRUS_BODY_BUNTAI_WALRUS_BODY-45_cls-4" d="M187,146.22h-.06c-2,.43-3.63,1.86-5.4,2.9-2.34,1.39-5.45,4-9.74,2.68s-7.79-5.85-8-6.14" />
      <path class="BUNTAI_WALRUS_BODY_BUNTAI_WALRUS_BODY-45_cls-4" d="M187.12,146.41l-.15-.19a107.2,107.2,0,0,0-8.53-9.15c-3.13-2.68-12.31,0-12.31,0s-4.69,4.45-2.38,8.59" />
      <path class="BUNTAI_WALRUS_BODY_BUNTAI_WALRUS_BODY-45_cls-4" d="M172.51,185.6h0c5.84-9,8.47-27.25,14.63-39.16" />
      <path class="BUNTAI_WALRUS_BODY_BUNTAI_WALRUS_BODY-45_cls-4" d="M187.14,146.43a39.41,39.41,0,0,0-9.79,10.5c-3.67,6.18-7.89,10.32-10.07,9.62-6.05-3.56-6.86-15.41-3.53-20.89h0a10.21,10.21,0,0,0,6.23-1.22c3.59-1.8,6.57-7.1,16.92,1.78l.21.18,0,0" />
      <path class="BUNTAI_WALRUS_BODY_BUNTAI_WALRUS_BODY-45_cls-4" d="M283.51,146.22h0c1.39.44,2.49,1.86,3.7,2.9,1.61,1.39,3.74,4,6.68,2.68s5.35-5.85,5.5-6.14" />
      <path class="BUNTAI_WALRUS_BODY_BUNTAI_WALRUS_BODY-45_cls-4" d="M283.4,146.41l.11-.19a99.89,99.89,0,0,1,5.85-9.15c2.15-2.68,8.44,0,8.44,0s3.22,4.45,1.64,8.59" />
      <path class="BUNTAI_WALRUS_BODY_BUNTAI_WALRUS_BODY-45_cls-4" d="M295.88,191a65.17,65.17,0,0,0-4.18-16.6h0c-3.89-9-5.44-19.92-8.29-27.94" />
      <path class="BUNTAI_WALRUS_BODY_BUNTAI_WALRUS_BODY-45_cls-4" d="M299.44,145.66h0c-.17.05-1.91.51-4.27-1.22s-4.51-7.1-11.61,1.78l-.15.18v0h0" />
      <path class="BUNTAI_WALRUS_BODY_BUNTAI_WALRUS_BODY-45_cls-4" d="M283.4,146.44a36.62,36.62,0,0,1,6.71,10.49c2.52,6.18,5.41,10.32,6.9,9.62,1.81-1.56,2.94-4.68,3.45-8.16.11-.84.2-1.7.25-2.56a24.61,24.61,0,0,0-1.27-10.16" />
      <path class="BUNTAI_WALRUS_BODY_BUNTAI_WALRUS_BODY-45_cls-4" d="M217.59,158.61s4.54-5.89,7.46-5.94a13.24,13.24,0,0,1,6,1.8" />
      <path class="BUNTAI_WALRUS_BODY_BUNTAI_WALRUS_BODY-45_cls-4" d="M263.29,158.61s-3.46-5.89-5.69-5.94-4.57,1.8-4.57,1.8" />
      <path class="BUNTAI_WALRUS_BODY_BUNTAI_WALRUS_BODY-45_cls-4" d="M220.18,248.21a2.6,2.6,0,0,0,.15.28l.2.37c.07.13.14.26.22.39.32.59.65,1.18.8,1.44l.07.12a0,0,0,0,1,0,0l.09.08.13.12.06.06.12.11.12.12.07.07,0,0,.08.08.17.15a16.37,16.37,0,0,0,1.37,1.1l.38.27c.26.19.55.39.87.59l.48.3a23,23,0,0,0,2.3,1.24l.49.23q1.05.48,2.25.9a26.72,26.72,0,0,0,3.25.91c.34.08.68.15,1,.2q.77.15,1.56.24l1,.11c.39,0,.78.06,1.18.08s1,0,1.54,0l1.12,0,.6,0,.73-.06.46,0,1-.13h.06q.53-.07,1-.18l.88-.19.12,0c.26-.06.51-.12.75-.2l.7-.2.79-.27c.37-.13.73-.27,1.07-.42l.58-.26c.35-.16.68-.32,1-.5l.1-.05c.25-.14.5-.28.74-.43s.44-.27.65-.4a16.73,16.73,0,0,0,1.83-1.39l.38-.34" />
      <path class="BUNTAI_WALRUS_BODY_BUNTAI_WALRUS_BODY-45_cls-4" d="M243.88,177.9a27,27,0,0,1-6.66-3.77" />
      <path class="BUNTAI_WALRUS_BODY_BUNTAI_WALRUS_BODY-45_cls-4" d="M229.09,168.71a19.45,19.45,0,0,0-6.87-2.52" />
      <path class="BUNTAI_WALRUS_BODY_BUNTAI_WALRUS_BODY-45_cls-12" d="M259.8,165.86a11,11,0,0,0-4.94,2.29" />
      <path class="BUNTAI_WALRUS_BODY_BUNTAI_WALRUS_BODY-45_cls-12" d="M248.58,174.1a18.17,18.17,0,0,1-4.7,3.8" />
      <line class="BUNTAI_WALRUS_BODY_BUNTAI_WALRUS_BODY-45_cls-4" x1="186.73" y1="269.4" x2="185.24" y2="238.51" />
      <path class="BUNTAI_WALRUS_BODY_BUNTAI_WALRUS_BODY-45_cls-4" d="M254.26,242.67l.18,3.57,0,.56.35,5.9.65,11.05s0,.35.05,1a1.41,1.41,0,0,0,0,.2c0,.23,0,.49,0,.77,0,.11,0,.22,0,.33,0,.29,0,.61,0,.95s0,.4,0,.62,0,.3,0,.45c0,.46,0,1,.07,1.49q0,.31,0,.66c.05.83.09,1.73.14,2.7,0,.05,0,.11,0,.18l0,.66c.19,3.85.44,8.65.71,14.1,0,.22,0,.45,0,.67.06,1,.11,2.11.17,3.21,0,.53.05,1.07.09,1.62q.15,3,.32,6.12c0,.89.09,1.78.15,2.69.09,1.71.18,3.45.28,5.22l0,.48a1.09,1.09,0,0,0,0,.18c0,.15,0,.31,0,.47s0,.6.05.91l0,.54c.16,2.85.32,5.75.49,8.68l.18,3.12c.06,1.06.12,2.12.19,3.19s.1,1.87.16,2.81c.2,3.37.4,6.74.61,10.07l.18,2.86.21,3.41.18,2.74c.06,1,.13,2,.19,3s.14,2,.2,3c.13,2,.27,3.88.4,5.76" />
      <path class="BUNTAI_WALRUS_BODY_BUNTAI_WALRUS_BODY-45_cls-4" d="M172.5,185.59a33.23,33.23,0,0,0-1.95,3.86c-6.83,15.79.65,36.22,11.41,46.31a0,0,0,0,0,0,0c12.06,9.84,50.17,33.64,61.58-26.3" />
      <path class="BUNTAI_WALRUS_BODY_BUNTAI_WALRUS_BODY-45_cls-12" d="M295.87,191c5.24,23.39-.77,39.21-15,49.51-5.92,5.05-33.56,21.58-37.3-31" />
      <path class="BUNTAI_WALRUS_BODY_BUNTAI_WALRUS_BODY-45_cls-12" d="M229.09,168.71s3.63-1.69,6.48.14c1.55,1,1.77,3.34,1.65,5.28" />
      <path class="BUNTAI_WALRUS_BODY_BUNTAI_WALRUS_BODY-45_cls-12" d="M248.58,174.1c-.11-1.93.12-4.26,1.66-5.25a6.27,6.27,0,0,1,4.62-.7" />
      <path class="BUNTAI_WALRUS_BODY_BUNTAI_WALRUS_BODY-45_cls-13" d="M240.07,206.79a16.36,16.36,0,0,1-2.62,5.39" />
      <path class="BUNTAI_WALRUS_BODY_BUNTAI_WALRUS_BODY-45_cls-13" d="M237.29,207.45A19.13,19.13,0,0,1,234,215" />
      <path class="BUNTAI_WALRUS_BODY_BUNTAI_WALRUS_BODY-45_cls-13" d="M236.05,207.17a34.82,34.82,0,0,1-4.44,5.87" />
      <path class="BUNTAI_WALRUS_BODY_BUNTAI_WALRUS_BODY-45_cls-13" d="M235.83,203.4a14.06,14.06,0,0,0-5.08-5.88" />
      <path class="BUNTAI_WALRUS_BODY_BUNTAI_WALRUS_BODY-45_cls-13" d="M229.69,202.57a24.59,24.59,0,0,0-5.84-5.94" />
      <path class="BUNTAI_WALRUS_BODY_BUNTAI_WALRUS_BODY-45_cls-13" d="M225.62,201.44,220,197.37" />
      <path class="BUNTAI_WALRUS_BODY_BUNTAI_WALRUS_BODY-45_cls-13" d="M219.33,199l-5.62-3" />
      <path class="BUNTAI_WALRUS_BODY_BUNTAI_WALRUS_BODY-45_cls-13" d="M231.77,208.69a75.05,75.05,0,0,1-5.8,10.5" />
      <path class="BUNTAI_WALRUS_BODY_BUNTAI_WALRUS_BODY-45_cls-13" d="M229.68,208.18l-5.87,4.11" />
      <path class="BUNTAI_WALRUS_BODY_BUNTAI_WALRUS_BODY-45_cls-13" d="M221.7,207.06l-7.89-1.37" />
      <path class="BUNTAI_WALRUS_BODY_BUNTAI_WALRUS_BODY-45_cls-13" d="M221.32,205.27a41.33,41.33,0,0,0-11.31-3.9" />
      <path class="BUNTAI_WALRUS_BODY_BUNTAI_WALRUS_BODY-45_cls-13" d="M208.65,202.76a48.5,48.5,0,0,0-14.28.49" />
      <path class="BUNTAI_WALRUS_BODY_BUNTAI_WALRUS_BODY-45_cls-13" d="M204.67,204.13a21.62,21.62,0,0,0-13.44-4.21" />
      <path class="BUNTAI_WALRUS_BODY_BUNTAI_WALRUS_BODY-45_cls-13" d="M214.39,207.75a29.4,29.4,0,0,0-11.59-1.36" />
      <path class="BUNTAI_WALRUS_BODY_BUNTAI_WALRUS_BODY-45_cls-13" d="M221.64,215.08l-2.35,16.86" />
      <path class="BUNTAI_WALRUS_BODY_BUNTAI_WALRUS_BODY-45_cls-13" d="M223.84,215.65a39.62,39.62,0,0,1-6.13,21.61" />
      <path class="BUNTAI_WALRUS_BODY_BUNTAI_WALRUS_BODY-45_cls-13" d="M221.3,223.7a29.08,29.08,0,0,1-.91,18.56" />
      <path class="BUNTAI_WALRUS_BODY_BUNTAI_WALRUS_BODY-45_cls-13" d="M217.2,219.74a67.5,67.5,0,0,0-19,12.21" />
      <path class="BUNTAI_WALRUS_BODY_BUNTAI_WALRUS_BODY-45_cls-13" d="M213,223.78l-14.54,15.39" />
      <path class="BUNTAI_WALRUS_BODY_BUNTAI_WALRUS_BODY-45_cls-13" d="M218.33,221.69a150.84,150.84,0,0,0-18.24,30.36" />
      <path class="BUNTAI_WALRUS_BODY_BUNTAI_WALRUS_BODY-45_cls-13" d="M215,229.51l-7,14.13" />
      <path class="BUNTAI_WALRUS_BODY_BUNTAI_WALRUS_BODY-45_cls-13" d="M218.33,229.52A53.45,53.45,0,0,1,209,252" />
      <path class="BUNTAI_WALRUS_BODY_BUNTAI_WALRUS_BODY-45_cls-13" d="M214.37,233.08a51.35,51.35,0,0,1-16,22.4" />
      <path class="BUNTAI_WALRUS_BODY_BUNTAI_WALRUS_BODY-45_cls-13" d="M207.88,231.22A123.78,123.78,0,0,0,187.77,253" />
      <path class="BUNTAI_WALRUS_BODY_BUNTAI_WALRUS_BODY-45_cls-13" d="M214.81,214.18a62.2,62.2,0,0,1-16,8" />
      <path class="BUNTAI_WALRUS_BODY_BUNTAI_WALRUS_BODY-45_cls-13" d="M220.84,213a84.56,84.56,0,0,0-11.65,8.51" />
      <path class="BUNTAI_WALRUS_BODY_BUNTAI_WALRUS_BODY-45_cls-13" d="M205.14,222.5a40.53,40.53,0,0,0-17.55,15.31" />
      <path class="BUNTAI_WALRUS_BODY_BUNTAI_WALRUS_BODY-45_cls-13" d="M197.65,223.61l-21,9.22" />
      <path class="BUNTAI_WALRUS_BODY_BUNTAI_WALRUS_BODY-45_cls-13" d="M191.67,223.79a36.92,36.92,0,0,0-16.94,8.4" />
      <path class="BUNTAI_WALRUS_BODY_BUNTAI_WALRUS_BODY-45_cls-13" d="M184.11,223.42l-12.63,3.5a56.35,56.35,0,0,0-8.59,2.9,18.74,18.74,0,0,0-7.17,5.42" />
      <path class="BUNTAI_WALRUS_BODY_BUNTAI_WALRUS_BODY-45_cls-13" d="M191.35,219.55a69.07,69.07,0,0,1-21.72,4.82" />
      <path class="BUNTAI_WALRUS_BODY_BUNTAI_WALRUS_BODY-45_cls-13" d="M210,213.14a24.65,24.65,0,0,1-21.91,4.12" />
      <path class="BUNTAI_WALRUS_BODY_BUNTAI_WALRUS_BODY-45_cls-13" d="M219.94,210.15c-4-.63-8.1.85-12.07.11" />
      <path class="BUNTAI_WALRUS_BODY_BUNTAI_WALRUS_BODY-45_cls-13" d="M202.6,209.23a60.33,60.33,0,0,0-21.21,1.2" />
      <path class="BUNTAI_WALRUS_BODY_BUNTAI_WALRUS_BODY-45_cls-13" d="M192.65,207.28,178,205.37" />
      <path class="BUNTAI_WALRUS_BODY_BUNTAI_WALRUS_BODY-45_cls-13" d="M191.26,212.25a158.8,158.8,0,0,0-29.73-1" />
      <path class="BUNTAI_WALRUS_BODY_BUNTAI_WALRUS_BODY-45_cls-13" d="M208,211.59a80.82,80.82,0,0,1-26.31,3.48" />
      <path class="BUNTAI_WALRUS_BODY_BUNTAI_WALRUS_BODY-45_cls-13" d="M182.49,212.09a71.56,71.56,0,0,0-25.86,3.46" />
      <path class="BUNTAI_WALRUS_BODY_BUNTAI_WALRUS_BODY-45_cls-13" d="M182.11,216.47a50.4,50.4,0,0,0-22.72,8.83" />
      <path class="BUNTAI_WALRUS_BODY_BUNTAI_WALRUS_BODY-45_cls-13" d="M180.11,226.47a63.59,63.59,0,0,0-28.25,19.7" />
      <path class="BUNTAI_WALRUS_BODY_BUNTAI_WALRUS_BODY-45_cls-13" d="M181.28,231.8a42.43,42.43,0,0,0-24.9,18" />
      <path class="BUNTAI_WALRUS_BODY_BUNTAI_WALRUS_BODY-45_cls-13" d="M188,233.65a51,51,0,0,0-19.6,21.12" />
      <path class="BUNTAI_WALRUS_BODY_BUNTAI_WALRUS_BODY-45_cls-13" d="M159.07,253.82a70.89,70.89,0,0,1,19.36-16s7.38-5.43,12.26-8.25" />
      <path class="BUNTAI_WALRUS_BODY_BUNTAI_WALRUS_BODY-45_cls-13" d="M201.85,231.57a75.33,75.33,0,0,0-26,25.63" />
      <path class="BUNTAI_WALRUS_BODY_BUNTAI_WALRUS_BODY-45_cls-13" d="M194.81,231.86A67.29,67.29,0,0,0,186.56,242" />
      <path class="BUNTAI_WALRUS_BODY_BUNTAI_WALRUS_BODY-45_cls-13" d="M208.32,231.58,194,253.76" />
      <path class="BUNTAI_WALRUS_BODY_BUNTAI_WALRUS_BODY-45_cls-13" d="M185,259.51l10.37-11.77,5.8-8.57" />
      <path class="BUNTAI_WALRUS_BODY_BUNTAI_WALRUS_BODY-45_cls-13" d="M192.32,201.89a62.9,62.9,0,0,0-15,.27" />
      <path class="BUNTAI_WALRUS_BODY_BUNTAI_WALRUS_BODY-45_cls-13" d="M217.72,201.92a16.38,16.38,0,0,0-10.29-5.72" />
      <path class="BUNTAI_WALRUS_BODY_BUNTAI_WALRUS_BODY-45_cls-13" d="M204.33,199.6a28.37,28.37,0,0,0-8.35-2.51" />
      <path class="BUNTAI_WALRUS_BODY_BUNTAI_WALRUS_BODY-45_cls-13" d="M172.88,207.9l-7.33,2.42" />
      <path class="BUNTAI_WALRUS_BODY_BUNTAI_WALRUS_BODY-45_cls-13" d="M184,208.18a101.83,101.83,0,0,0-18.68-1.8" />
      <path class="BUNTAI_WALRUS_BODY_BUNTAI_WALRUS_BODY-45_cls-13" d="M227,206.34l.19.26a20.1,20.1,0,0,1-7.69-3.18" />
      <path class="BUNTAI_WALRUS_BODY_BUNTAI_WALRUS_BODY-45_cls-13" d="M239.84,212.08l0-.66a61.63,61.63,0,0,1-6.39,10.4" />
      <path class="BUNTAI_WALRUS_BODY_BUNTAI_WALRUS_BODY-45_cls-13" d="M232.38,215.61l-3.9,5.4" />
      <path class="BUNTAI_WALRUS_BODY_BUNTAI_WALRUS_BODY-45_cls-14" d="M246.42,206.79a20,20,0,0,0,1.79,5.39" />
      <path class="BUNTAI_WALRUS_BODY_BUNTAI_WALRUS_BODY-45_cls-14" d="M248.32,207.45a24.4,24.4,0,0,0,2.25,7.55" />
      <path class="BUNTAI_WALRUS_BODY_BUNTAI_WALRUS_BODY-45_cls-14" d="M249.17,207.17a35.29,35.29,0,0,0,3,5.87" />
      <path class="BUNTAI_WALRUS_BODY_BUNTAI_WALRUS_BODY-45_cls-14" d="M249.32,203.4a13.89,13.89,0,0,1,3.47-5.88" />
      <path class="BUNTAI_WALRUS_BODY_BUNTAI_WALRUS_BODY-45_cls-14" d="M253.52,202.57a22.63,22.63,0,0,1,4-5.94" />
      <path class="BUNTAI_WALRUS_BODY_BUNTAI_WALRUS_BODY-45_cls-14" d="M256.3,201.44l3.86-4.07" />
      <path class="BUNTAI_WALRUS_BODY_BUNTAI_WALRUS_BODY-45_cls-14" d="M252.1,208.69a88.58,88.58,0,0,0,4,10.5" />
      <path class="BUNTAI_WALRUS_BODY_BUNTAI_WALRUS_BODY-45_cls-14" d="M253.53,208.18l4,4.11" />
      <path class="BUNTAI_WALRUS_BODY_BUNTAI_WALRUS_BODY-45_cls-14" d="M259,207.06l5.4-1.37" />
      <path class="BUNTAI_WALRUS_BODY_BUNTAI_WALRUS_BODY-45_cls-14" d="M259.24,205.27a23,23,0,0,1,7.74-3.9" />
      <path class="BUNTAI_WALRUS_BODY_BUNTAI_WALRUS_BODY-45_cls-14" d="M267.91,202.76a22.89,22.89,0,0,1,9.77.49" />
      <path class="BUNTAI_WALRUS_BODY_BUNTAI_WALRUS_BODY-45_cls-14" d="M270.63,204.13a11.91,11.91,0,0,1,9.19-4.21" />
      <path class="BUNTAI_WALRUS_BODY_BUNTAI_WALRUS_BODY-45_cls-14" d="M264,207.75a14.18,14.18,0,0,1,7.92-1.36" />
      <path class="BUNTAI_WALRUS_BODY_BUNTAI_WALRUS_BODY-45_cls-14" d="M259,215.08l1.61,16.86" />
      <path class="BUNTAI_WALRUS_BODY_BUNTAI_WALRUS_BODY-45_cls-14" d="M257.52,215.65a54,54,0,0,0,4.19,21.61" />
      <path class="BUNTAI_WALRUS_BODY_BUNTAI_WALRUS_BODY-45_cls-14" d="M259.25,223.7a41.94,41.94,0,0,0,.63,18.56" />
      <path class="BUNTAI_WALRUS_BODY_BUNTAI_WALRUS_BODY-45_cls-14" d="M262.06,219.74a48.43,48.43,0,0,1,13,12.21" />
      <path class="BUNTAI_WALRUS_BODY_BUNTAI_WALRUS_BODY-45_cls-14" d="M265,223.78l9.94,15.39" />
      <path class="BUNTAI_WALRUS_BODY_BUNTAI_WALRUS_BODY-45_cls-14" d="M261.29,221.69a175.89,175.89,0,0,1,12.48,30.36" />
      <path class="BUNTAI_WALRUS_BODY_BUNTAI_WALRUS_BODY-45_cls-14" d="M263.59,229.51l4.76,14.13" />
      <path class="BUNTAI_WALRUS_BODY_BUNTAI_WALRUS_BODY-45_cls-14" d="M261.29,229.52A68.39,68.39,0,0,0,267.7,252" />
      <path class="BUNTAI_WALRUS_BODY_BUNTAI_WALRUS_BODY-45_cls-14" d="M264,233.08a55.32,55.32,0,0,0,11,22.4" />
      <path class="BUNTAI_WALRUS_BODY_BUNTAI_WALRUS_BODY-45_cls-14" d="M268.43,231.22A118.17,118.17,0,0,1,282.19,253" />
      <path class="BUNTAI_WALRUS_BODY_BUNTAI_WALRUS_BODY-45_cls-14" d="M263.7,214.18a39.58,39.58,0,0,0,11,8" />
      <path class="BUNTAI_WALRUS_BODY_BUNTAI_WALRUS_BODY-45_cls-14" d="M259.57,213a64.91,64.91,0,0,1,8,8.51" />
      <path class="BUNTAI_WALRUS_BODY_BUNTAI_WALRUS_BODY-45_cls-14" d="M270.31,222.5c4.91,3.24,9.14,8.64,12,15.31" />
      <path class="BUNTAI_WALRUS_BODY_BUNTAI_WALRUS_BODY-45_cls-14" d="M275.43,223.61l14.35,9.22" />
      <path class="BUNTAI_WALRUS_BODY_BUNTAI_WALRUS_BODY-45_cls-14" d="M279.52,223.79a23.57,23.57,0,0,1,11.59,8.4" />
      <path class="BUNTAI_WALRUS_BODY_BUNTAI_WALRUS_BODY-45_cls-14" d="M284.69,223.42l8.64,3.5a31.15,31.15,0,0,1,5.88,2.9,14.74,14.74,0,0,1,4.9,5.42" />
      <path class="BUNTAI_WALRUS_BODY_BUNTAI_WALRUS_BODY-45_cls-14" d="M279.75,219.55a35.06,35.06,0,0,0,14.85,4.82" />
      <path class="BUNTAI_WALRUS_BODY_BUNTAI_WALRUS_BODY-45_cls-14" d="M267,213.14c4.16,4.76,9.93,6.34,15,4.12" />
      <path class="BUNTAI_WALRUS_BODY_BUNTAI_WALRUS_BODY-45_cls-14" d="M260.19,210.15c2.73-.63,5.54.85,8.25.11" />
      <path class="BUNTAI_WALRUS_BODY_BUNTAI_WALRUS_BODY-45_cls-14" d="M272,209.23a28.62,28.62,0,0,1,14.51,1.2" />
      <path class="BUNTAI_WALRUS_BODY_BUNTAI_WALRUS_BODY-45_cls-14" d="M278.85,207.28l10-1.91" />
      <path class="BUNTAI_WALRUS_BODY_BUNTAI_WALRUS_BODY-45_cls-14" d="M279.8,212.25a74.3,74.3,0,0,1,20.34-1" />
      <path class="BUNTAI_WALRUS_BODY_BUNTAI_WALRUS_BODY-45_cls-14" d="M268.33,211.59a39.22,39.22,0,0,0,18,3.48" />
      <path class="BUNTAI_WALRUS_BODY_BUNTAI_WALRUS_BODY-45_cls-14" d="M285.8,212.09a34.81,34.81,0,0,1,17.69,3.46" />
      <path class="BUNTAI_WALRUS_BODY_BUNTAI_WALRUS_BODY-45_cls-14" d="M286.06,216.47a29.25,29.25,0,0,1,15.54,8.83" />
      <path class="BUNTAI_WALRUS_BODY_BUNTAI_WALRUS_BODY-45_cls-14" d="M287.43,226.47c7.51,3.8,14.28,10.7,19.32,19.7" />
      <path class="BUNTAI_WALRUS_BODY_BUNTAI_WALRUS_BODY-45_cls-14" d="M286.63,231.8c6.95,2.61,13.16,9.17,17,18" />
      <path class="BUNTAI_WALRUS_BODY_BUNTAI_WALRUS_BODY-45_cls-14" d="M282.06,233.65c5.73,5,10.44,12.39,13.4,21.12" />
      <path class="BUNTAI_WALRUS_BODY_BUNTAI_WALRUS_BODY-45_cls-14" d="M301.82,253.82a58.57,58.57,0,0,0-13.24-16s-5.05-5.43-8.38-8.25" />
      <path class="BUNTAI_WALRUS_BODY_BUNTAI_WALRUS_BODY-45_cls-14" d="M272.56,231.57c7.25,6.24,13.42,15.13,17.79,25.63" />
      <path class="BUNTAI_WALRUS_BODY_BUNTAI_WALRUS_BODY-45_cls-14" d="M277.37,231.86A68,68,0,0,1,283,242" />
      <path class="BUNTAI_WALRUS_BODY_BUNTAI_WALRUS_BODY-45_cls-14" d="M268.14,231.58l9.78,22.18" />
      <path class="BUNTAI_WALRUS_BODY_BUNTAI_WALRUS_BODY-45_cls-14" d="M284.09,259.51,277,247.74l-4-8.57" />
      <path class="BUNTAI_WALRUS_BODY_BUNTAI_WALRUS_BODY-45_cls-14" d="M279.07,201.89a29.6,29.6,0,0,1,10.28.27" />
      <path class="BUNTAI_WALRUS_BODY_BUNTAI_WALRUS_BODY-45_cls-14" d="M261.7,201.92c1.76-3.09,4.32-5.18,7-5.72" />
      <path class="BUNTAI_WALRUS_BODY_BUNTAI_WALRUS_BODY-45_cls-14" d="M270.86,199.6a15.28,15.28,0,0,1,5.72-2.51" />
      <path class="BUNTAI_WALRUS_BODY_BUNTAI_WALRUS_BODY-45_cls-14" d="M284.77,208.18a48.56,48.56,0,0,1,12.78-1.8" />
      <path class="BUNTAI_WALRUS_BODY_BUNTAI_WALRUS_BODY-45_cls-14" d="M255.35,206.34l-.13.26a12,12,0,0,0,5.26-3.18" />
      <path class="BUNTAI_WALRUS_BODY_BUNTAI_WALRUS_BODY-45_cls-14" d="M246.58,212.08l0-.66a71.27,71.27,0,0,0,4.37,10.4" />
      <path class="BUNTAI_WALRUS_BODY_BUNTAI_WALRUS_BODY-45_cls-14" d="M251.68,215.61l2.67,5.4" />
      <path class="BUNTAI_WALRUS_BODY_BUNTAI_WALRUS_BODY-45_cls-15" d="M290.47,143.05a4,4,0,1,0,4,4A4,4,0,0,0,290.47,143.05Z" />
      <circle cx="290.47" cy="147.08" r="1.95" />
      <circle class="BUNTAI_WALRUS_BODY_BUNTAI_WALRUS_BODY-45_cls-10" cx="289.4" cy="145.35" r="0.89" />
      <circle class="BUNTAI_WALRUS_BODY_BUNTAI_WALRUS_BODY-45_cls-16" cx="290.47" cy="147.08" r="4.04" />
      <path class="BUNTAI_WALRUS_BODY_BUNTAI_WALRUS_BODY-45_cls-15" d="M174.67,143.05a4,4,0,1,0,4,4A4,4,0,0,0,174.67,143.05Z" />
      <circle cx="174.67" cy="147.08" r="1.95" />
      <circle class="BUNTAI_WALRUS_BODY_BUNTAI_WALRUS_BODY-45_cls-10" cx="173.6" cy="145.35" r="0.89" />
      <circle class="BUNTAI_WALRUS_BODY_BUNTAI_WALRUS_BODY-45_cls-16" cx="174.67" cy="147.08" r="4.04" />
      <path class="BUNTAI_WALRUS_BODY_BUNTAI_WALRUS_BODY-45_cls-17" d="M313.88,266.73c-.16-.16-.32-.32-.47-.5s-.31-.35-.46-.53-.38-.48-.57-.73-.39-.53-.57-.8-.28-.42-.41-.63c-.32-.5-.62-1-.91-1.55l-.47-.88c-.75-1.47-1.39-3-1.92-4.31h0l0-.08c-.08,1.64-.17,3.41-.28,5.24,0,.46-.05.92-.08,1.39-.09,1.39-.19,2.82-.29,4.24,0,.48-.07.95-.11,1.42-.14,1.79-.3,3.56-.48,5.24,0,.32-.06.63-.1.94-.08.8-.18,1.58-.27,2.32,0,0,0,.06,0,.09v0h0c-.1.78-.2,1.52-.31,2.22-.05.32-.1.64-.15.94-.12.73-.25,1.4-.38,2l-.09.37c0,.19-.08.38-.13.56.06-1.47.1-3.13.14-4.92,0-.88,0-1.8,0-2.74v0c0-2.45,0-5.06,0-7.74v0l0-1.6c0-.53,0-1.07-.05-1.6,0-.12,0-.23,0-.35,0-1-.07-1.92-.12-2.87-.14,2.25-.32,4.22-.32,4.22a.32.32,0,0,1,0,.07s0,.11,0,.2c0,.38-.14,1.18-.29,2.24,0,.1,0,.2,0,.3a3.56,3.56,0,0,1-.06.44c-.07.48-.14,1-.22,1.54-.06.35-.12.7-.18,1.07,0,.15-.05.31-.08.48s-.11.65-.17,1-.1.57-.16.85-.1.58-.16.87l-.21,1-.15.69c-.15.66-.3,1.32-.46,2-.21.83-.44,1.64-.68,2.41h0l-.09.26c-.11.33-.22.67-.34,1h0l-.06.17h0a45.53,45.53,0,0,1-.18,5.3l0,.27a1.49,1.49,0,0,1,0,.21v0c0,.17-.05.33-.07.47v0h0a11,11,0,0,1-.24,1.16.5.5,0,0,1,0,.13,1.22,1.22,0,0,1-.09.26s-.16-.56-.51-1.54l-.17-.48a58.5,58.5,0,0,0-2.62-6l-.12-.22c-.52-1-1.11-2.08-1.76-3.17l-.35-.56v0c-.26-.44-.55-.88-.84-1.33l-4.94-3L287.54,273l-.48-.29H287l-.05,0-.12-.06-.11,0-.09,0h0l-.52-.24h0l-.05,0-.27-.13h0l-.16-.08-.18-.08-.06,0h0s0,0,0,0h0l-.29-.16,0,0-.23-.12-.18-.09h0l-.09-.05-.12-.07-.23-.12h0l-.13-.07-.31-.17-.06,0-.53-.31-.15-.09c-.32-.19-.65-.38-1-.59l-.3-.19-.3-.19-.06,0-.46-.3-.1-.06h0l-.07,0-.12-.08-.06,0-.05,0,0,0-.07,0-.22-.15h0l-.26-.17-.25-.18-.14-.09,0,0-.28-.21L279,268l-.22-.17c-.77-.56-1.54-1.17-2.32-1.83l-.16-.14c-.37-.31-.73-.63-1.1-1-.08-.06-.15-.14-.23-.21s-.31-.29-.46-.44l-.74-.73c-.31-.32-.62-.65-.92-1-.16-.17-.3-.34-.45-.51l-.4-.48a5.17,5.17,0,0,1-.42-.51c-.2-.25-.4-.5-.59-.76l-.43-.57-.36-.47-.14-.18-.05-.06c-1-1.26-2-2.49-3.06-3.64l-.11-.12s0,0,0,0l-.05,0v0l0,0-.52-.57-.61-.66-.05,0-.25-.27c-.3-.32-.6-.64-.9-.94s-.77-.8-1.15-1.18h0c-.77-.76-1.5-1.46-2.18-2.1l-.51-.47c-.74-.69-1.41-1.29-2-1.79l-.41-.36-.45-.39-.25-.21-.23-.19c-.42-.36-.67-.56-.71-.59.14.33.28.65.43,1,.33.74.66,1.46,1,2.15.21.44.43.86.65,1.28l.3.57c.1.19.2.38.31.56l.3.54.18.31c.24.41.48.8.72,1.18s.48.76.73,1.12h0c.13.2.27.39.41.58a.86.86,0,0,0,.07.1c.1.14.2.28.31.41l.14.18c.07.09.13.18.2.26l0,.06-.36-.33a1.37,1.37,0,0,1-.23-.2.71.71,0,0,1-.13-.12l-.42-.38h0l0,0c-.36-.34-.71-.69-1.06-1s-.6-.62-.9-.94l-.11-.13,0,0q-.35-.37-.66-.75l0,0-.05-.06,0,0q-.33-.37-.63-.75a.45.45,0,0,1-.11-.13c-.13-.15-.26-.31-.37-.46l-.11-.14c-.38-.48-.74-1-1.09-1.45-.22-.3-.43-.6-.64-.91a.8.8,0,0,1-.09-.14c-.15-.2-.28-.41-.41-.61s-.28-.42-.41-.63v0c-.18-.27-.34-.54-.5-.81s-.28-.45-.41-.68a.75.75,0,0,1-.07-.12,4,4,0,0,1-.2-.35c-.16-.27-.32-.55-.47-.83l-.06-.11-.2-.36c-.3-.56-.59-1.12-.86-1.68q-.27-.54-.51-1.08l-.06-.12a2.1,2.1,0,0,1-.13-.26c-.07-.14-.14-.28-.2-.43-.14-.31-.29-.64-.42-1a1.42,1.42,0,0,1-.08-.18c-.14-.31-.27-.63-.4-.95-.21-.5-.41-1-.6-1.51a.42.42,0,0,1,0-.1q-.25-.64-.48-1.29c-.17-.45-.33-.9-.47-1.35-.07-.18-.13-.37-.19-.55s-.06-.17-.08-.25c-.1-.28-.19-.57-.28-.86,0,0,0,0,0,0-.1-.3-.19-.59-.27-.89s-.17-.55-.25-.83c-.14-.45-.26-.9-.38-1.35,0-.13-.07-.25-.1-.37s-.13-.45-.18-.67-.12-.44-.17-.66c-.11-.44-.22-.88-.32-1.31s-.19-.82-.28-1.22c-.06-.24-.11-.48-.16-.73l-.12-.58c-.14-.66-.27-1.32-.39-2s-.21-1.12-.3-1.68c0-.24-.09-.48-.12-.71s-.07-.47-.11-.71a.08.08,0,0,1,0,0c-.08-.51-.16-1-.23-1.51s-.16-1.2-.24-1.78c0-.36-.09-.72-.13-1.07-.08-.69-.15-1.35-.21-2v0q0-.5-.09-1c0-.28,0-.55-.07-.81-.05-.58-.09-1.12-.12-1.63v0c0-.29,0-.57-.05-.84s0-.81-.06-1.18,0-.62,0-.9,0-.38,0-.55v-.29s0,0,0,0c0-.35,0-.66,0-.91a.81.81,0,0,1,0,.15c0,.22,0,.46,0,.75a1.27,1.27,0,0,0,0,.2s0,.06,0,.09v.28c0,.11,0,.23,0,.35a1.09,1.09,0,0,1,0,.18c0,.12,0,.24,0,.37v.07c0,.11,0,.22,0,.32,0,.32,0,.66-.08,1s-.05.63-.08,1c0,0,0,0,0,0h0v0s0,0,0,0h0c0,.59-.12,1.21-.21,1.87,0,.22-.05.44-.08.66s-.06.46-.1.69-.06.46-.1.7c-.07.48-.15,1-.24,1.46,0,.24-.08.49-.13.73s-.09.51-.14.76l0,.17c0,.12,0,.24-.07.36l-.06.25-.18.87v0c-.12.54-.25,1.09-.38,1.64s-.31,1.24-.48,1.88-.29,1.06-.45,1.6q-.12.45-.27.9c0,.15-.09.3-.14.45s-.09.3-.14.45l-.3.92c-.22.64-.45,1.28-.69,1.94,0,.11-.09.23-.13.35-.2.54-.42,1.08-.64,1.63a3.42,3.42,0,0,0-.13.34l-.21.49-.21.48c-.17.39-.34.78-.52,1.17s-.25.54-.38.81c-.2.42-.4.83-.61,1.25l-.37.75,0,.06a1.09,1.09,0,0,1-.08.15c-.37.71-.76,1.42-1.18,2.13-.06.12-.14.25-.21.37l-.2.34-.54.9-.85,1.31c-.13.21-.27.42-.41.63h0c-.33.48-.67,1-1,1.45l-.35.48-.73,1-.26.33-.16.2-.17.2c-.25.32-.52.63-.78,1s-.35.42-.54.62l-.45.52-.42.46-.42.45c-.46.49-.94,1-1.43,1.46l-.88.85c-.3.28-.6.56-.91.83l-.94.82-.93.77,0,0c-.29.23-.58.47-.87.69l-.35.27-.21.17-.19.14-1.09.79-.66.46-.33.22h0l-.34.22-.44.29q-.63.42-1.29.81l-.75.45a.56.56,0,0,1-.17.09.05.05,0,0,1-.05,0l.43-.38h0c.51-.44,1-.91,1.51-1.41l0,0,.17-.18s0,0,0,0l.33-.35a.85.85,0,0,0,.16-.17l.18-.19a.91.91,0,0,0,.17-.17l.67-.74.35-.4h0c.36-.42.72-.85,1.07-1.29,1.06-1.32,2.08-2.74,3.07-4.23l.41-.63s-1.78,1-4.5,2.6c-.28.17-.57.34-.86.53s-.38.22-.57.35l-.77.48c-1.3.81-2.73,1.73-4.23,2.75l-1.19.82c-.8.55-1.62,1.14-2.45,1.74l-.05,0-.11.08a.19.19,0,0,1-.07.06l-.08.06c-.77.56-1.53,1.14-2.3,1.74s-1.29,1-1.93,1.55-1.09.91-1.63,1.38l0,0-.85.75c-.34.31-.69.61-1.05.91s-.43.35-.65.52l-.95.74h0c-.3.22-.61.45-.93.67s-.62.44-.94.65h0l-1,.63-.3.18c-.22.15-.45.29-.68.42l-1,.59-1.13.65-.15.08-.47.26-.22.11h0c-.32.17-.65.35-1,.51-.65.34-1.29.66-1.93,1s-1.14.53-1.69.78l-.14.07-.05,0-.25.12-.33.15-.13.05-.07,0h-.1l0,0-.18.08c-.88.37-1.71.72-2.5,1l-.65.24h0l-.64.25-.28.1h0l-.28.1-1,.37-.1,0h0l-.38.13-.25.08h0l-.19.06-.1,0h0l-.29.09h0l-.23.07h0l-.14,0-.1,0-.23.08h0l-.2.06h0l-.11,0-.08,0h0l-.18.05-.29.09-.12,0H178l-.08,0h-.1l-1.17.47-.18.07-.29.12-9.56,3.86-.11.12h0c-.81.82-1.55,1.63-2.24,2.43l-.78.92-.87,1.07c-1.11,1.4-2,2.72-2.8,3.88l0,0c-.18.27-.34.53-.49.78s-.19.3-.28.45c-.27.44-.5.85-.71,1.22-.84,1.49-1.23,2.39-1.23,2.39l-.05-.09a.2.2,0,0,1,0-.08,2.88,2.88,0,0,1-.22-.54v0c0-.08-.05-.16-.08-.26a.83.83,0,0,1,0-.12h0c-.05-.18-.1-.38-.15-.62a2,2,0,0,0-.05-.24c-.07-.34-.13-.73-.18-1.18h0s0,0,0,0v0h0v0h0a0,0,0,0,1,0,0v0l0-.2c0-.26,0-.55-.08-.85l0-.46c0-.16,0-.32,0-.49s0-.32,0-.49c0-.63,0-1.31,0-2.07h0c-.13-.23-.25-.46-.37-.7l-.05-.11,0,0,0-.11-.18-.37-.13-.27c-.06-.14-.14-.29-.22-.46v-.06c-.11-.24-.21-.49-.31-.74-.2-.47-.38-.95-.56-1.43l-.3-.83c-.22-.65-.43-1.31-.63-2l-.24-.8c-.13-.45-.25-.9-.37-1.35-.18-.66-.34-1.31-.49-1.93a.07.07,0,0,1,0-.05c-.09-.35-.16-.69-.24-1-.29-1.3-.51-2.41-.66-3.18l-.06-.32c0-.2-.06-.36-.08-.49s0-.16,0-.22a1.13,1.13,0,0,0,0-.12s-.27-2-.48-4.22c0,.57-.08,1.13-.11,1.69l-.09,1.69v.07c0,.61-.06,1.22-.08,1.83l0,1.14q0,.63,0,1.26c0,.41,0,.83,0,1.24-.07,4.89.08,9.43.27,12.95a33.55,33.55,0,0,1-1.21-4.3.18.18,0,0,0,0-.05s0,0,0,0a.43.43,0,0,1,0-.05s0,0,0-.05,0-.09,0-.15c-.35-1.64-.66-3.45-.95-5.36l-.15-1c-.05-.34-.1-.69-.14-1,0-.12,0-.23,0-.35l-.15-1.22c-.07-.53-.13-1.06-.2-1.59l-.18-1.61a.25.25,0,0,0,0-.08,1.49,1.49,0,0,0,0-.21c-.06-.63-.13-1.26-.19-1.88l-.09-.94-.09-.93c-.05-.62-.11-1.23-.16-1.84,0-.3-.05-.6-.07-.9-.05-.59-.1-1.18-.14-1.75s-.09-1.13-.13-1.68a36.66,36.66,0,0,1-5.09,6.94,21.49,21.49,0,0,1-3.6,3.08,18.59,18.59,0,0,0,3-4.72h0q.31-.69.6-1.41a.14.14,0,0,1,0-.06c.18-.47.35-.94.51-1.42.21-.64.41-1.29.59-2,.07-.22.13-.44.18-.67q.17-.62.3-1.26c.09-.37.17-.74.24-1.12.05-.2.09-.41.13-.62l.12-.68c.05-.27.1-.54.14-.81.07-.43.13-.85.19-1.28,0-.12,0-.24.05-.36.06-.45.12-.89.17-1.34,0,0,0,0,0,0,0-.36.08-.72.11-1.07s.06-.54.08-.81c.06-.58.1-1.16.14-1.74s.07-1,.09-1.42c0-.26,0-.52,0-.77s0-.24,0-.36c0-.32,0-.62,0-.9.06-1.41.08-2.75.08-4,0-2.06,0-3.81-.06-5.05a25.43,25.43,0,0,1,3.9-13.48c.1-.74.21-1.5.34-2.28.21-1.29.46-2.63.74-4q.19-1,.42-1.92l.42-1.76h0c.14-.55.28-1.1.43-1.64s.33-1.18.51-1.76.29-.93.45-1.39.34-1,.52-1.49v0c.18-.46.35-.9.53-1.33a14,14,0,0,1,3-4.18h0q.14-.5.3-1.05l.31-1c.27-.87.56-1.78.87-2.67h0c.3-.86.62-1.69,1-2.43.14-.3.27-.6.41-.87l.24-.46a.75.75,0,0,0,.07-.12l.16-.26a2.5,2.5,0,0,1,.16-.24l.15-.2a2.29,2.29,0,0,1,.46-.47l.27-.19.72-.47.92-.57,1.73-1h0c1.81-1.06,4.09-2.35,6.56-3.72s5.15-2.8,7.74-4.15q.66-.34,1.35-.63l.9-.34.13-.05.13,0,.22-.07c.46-.16.93-.29,1.39-.4l.7-.16.7-.14h0l-.24-.17-.17-.12-.28-.22h0l-.44-.32-.81-.63,0,0-.3-.23-.15-.13a.83.83,0,0,0-.16-.12l-.5-.42-.09-.07-.18-.16c-.36-.3-.59-.51-.66-.57h.2l.27,0,.38,0a41.14,41.14,0,0,0,4.51.06h0l.38,0h.13l.57,0c.38,0,.78,0,1.19-.07s.95-.06,1.46-.11l1.65-.15a157.14,157.14,0,0,0,17-3.08l-4.26-2.57s2.22-1.1,6.82.73c.18.07.37.14.57.2l.32.1.33.09.18.05.11,0h.07l.17.05h.06c.42.1.86.19,1.33.28l.37.06c.55.1,1.13.19,1.73.27l.66.09.68.08.68.07.85.08.13,0,1,.09.61,0,.85.07h.21l.63.05,1.22.08h.27l.88,0c2.83.14,4.92.18,4.92.18l-4.92-5.65s5.51,1.16,8.71,3.44,11.07,3.72,11.07,3.72,5.27-1.45,7.41-3.72a15.71,15.71,0,0,1,5.83-3.44l-3.3,5.65s2.62-.06,5.56-.4L260,169c.41-.05.81-.11,1.22-.18l.77-.13.4-.08.12,0,.64-.14h.05l.55-.15.57-.17.12,0,.41-.15.26-.1.09,0,.16-.07.16-.08a2.69,2.69,0,0,0,.29-.16c3.08-1.83,4.57-.73,4.57-.73l-2.85,2.57a74.87,74.87,0,0,0,11.38,3.08c.91.14,1.72.24,2.45.3l.22,0h.17l.43,0h.08a19.87,19.87,0,0,0,2.54,0l.55,0,.32,0h0l.1,0h0l.13,0,.11,0h0c-.06.08-.42.57-1,1.24l0,0c-.3.37-.66.8-1.07,1.25-.15.17-.31.33-.46.51l-.16.18h0l.47.14.1,0,.13,0a.38.38,0,0,1,.12.05l.11,0a7.44,7.44,0,0,1,.93.4c.31.15.62.32.93.5s.6.4.9.63l1,.75c.38.3.77.6,1.14.91s.77.6,1.14.91l.07.06.53.42c.31.26.63.51.93.77s.31.25.46.38l.08.06.48.4a.94.94,0,0,1,.12.09l.48.4,1.42,1.2.14.13.24.2h0l.18.17.2.16.12.11.5.44.1.08c.22.19.44.38.65.58s.67.59,1,.86l.2.19c.2.18.38.35.53.51l.19.19.16.16a5.35,5.35,0,0,1,.83,1.75c.27.78.53,1.74.78,2.75v0l.15.63c.09.36.17.72.25,1.08h0c.08.36.16.72.23,1.07v0c0,.16.07.32.1.48l.06.26.33,1.7h0l.09.13v0c.17.27.34.53.49.8v0l.37.68c.09.16.17.33.24.49s.08.17.12.26a1.89,1.89,0,0,1,.11.25l.09.22c.07.16.13.33.19.49s.07.2.1.3.11.33.16.5c.13.46.25.94.38,1.43,0,.18.08.36.13.55.16.69.32,1.4.47,2.12.08.36.15.73.22,1.1s.17.9.25,1.35a.36.36,0,0,0,0,.1v0l.15.89h0c.1.55.19,1.11.27,1.67s.17,1.1.25,1.66.13.93.19,1.4q.06.35.09.69c.06.44.11.89.16,1.32l0,.25h0l.12,1.05h0c.07.66.13,1.31.19,1.94a35.42,35.42,0,0,1,2.61,13.48c0,.74,0,1.65,0,2.7,0,2.17,0,4.94.09,8q0,1,.09,2.1a.86.86,0,0,0,0,.16v0c0,.46.05.93.08,1.4.06,1,.13,1.92.21,2.88l.15,1.59.15,1.31.12,1c.08.59.16,1.17.26,1.75.07.43.14.86.22,1.29s.18,1,.29,1.5a.52.52,0,0,0,0,.11c.1.45.2.9.31,1.34s.16.66.25,1,.24.86.37,1.28.2.62.31.92.24.67.37,1a.09.09,0,0,0,0,.07,7.11,7.11,0,0,0,.34.8,1.19,1.19,0,0,0,.08.2c.08.18.16.34.25.5s.18.36.27.53S313.78,266.57,313.88,266.73Z" />
      <path class="BUNTAI_WALRUS_BODY_BUNTAI_WALRUS_BODY-45_cls-4" d="M301.7,190.26c0,1.31.06,2.6.1,3.85,0,.26,0,.51,0,.76v0c0,.26,0,.52,0,.77,0,.47,0,.93,0,1.39l0,.74h0" />
      <path class="BUNTAI_WALRUS_BODY_BUNTAI_WALRUS_BODY-45_cls-4" d="M183.32,175.89a47.92,47.92,0,0,1-4.06-3.23s3.44.52,10.78-.24a157.14,157.14,0,0,0,17-3.08l-4.26-2.57s2.22-1.1,6.82.73c2.84,1.13,9.33,1.66,13.89,1.89,2.83.14,4.92.18,4.92.18l-4.92-5.65s5.51,1.16,8.71,3.44,11.07,3.72,11.07,3.72" />
      <path class="BUNTAI_WALRUS_BODY_BUNTAI_WALRUS_BODY-45_cls-4" d="M155.77,197.65q.14-.5.3-1.05l.31-1c.27-.87.56-1.79.88-2.68s.62-1.69,1-2.43c.14-.3.27-.6.41-.87l.24-.46a.75.75,0,0,0,.07-.12l.16-.26a2.5,2.5,0,0,1,.16-.24l.15-.2a2.29,2.29,0,0,1,.46-.47l.27-.19.72-.47.92-.57,1.73-1" />
      <path class="BUNTAI_WALRUS_BODY_BUNTAI_WALRUS_BODY-45_cls-4" d="M195.28,176.21a32,32,0,0,0-12-.32,19.58,19.58,0,0,0-5.52,1.83c-5.19,2.7-10.68,5.75-14.3,7.87" />
      <path class="BUNTAI_WALRUS_BODY_BUNTAI_WALRUS_BODY-45_cls-4" d="M152.28,203.19a81.21,81.21,0,0,0-3.84,16.22" />
      <path class="BUNTAI_WALRUS_BODY_BUNTAI_WALRUS_BODY-45_cls-4" d="M177.28,184.19s-14.64,6.36-21.51,13.46h0a14,14,0,0,0-3,4.18c-.18.43-.35.88-.53,1.34" />
      <path class="BUNTAI_WALRUS_BODY_BUNTAI_WALRUS_BODY-45_cls-4" d="M140.76,262a18.59,18.59,0,0,1-3,4.72,21.49,21.49,0,0,0,3.6-3.08,36.66,36.66,0,0,0,5.09-6.94" />
      <path class="BUNTAI_WALRUS_BODY_BUNTAI_WALRUS_BODY-45_cls-4" d="M160,202.31A41.92,41.92,0,0,1,152.46,214a35.4,35.4,0,0,0-4,5.39,25.43,25.43,0,0,0-3.9,13.48c.1,5.29.53,19.68-3.78,29.11" />
      <path class="BUNTAI_WALRUS_BODY_BUNTAI_WALRUS_BODY-45_cls-4" d="M157.12,238.25c-4,4.2-5.86,13.78-6.55,23.62a180.08,180.08,0,0,0-.09,21.87c-2.16-5.76-3.38-18.3-4-27-.38-5.38-.53-9.32-.53-9.32" />
      <path class="BUNTAI_WALRUS_BODY_BUNTAI_WALRUS_BODY-45_cls-4" d="M243.28,202.64v.12h0v.08c0,.12,0,.25,0,.4s0,.46,0,.75a1.27,1.27,0,0,0,0,.2s0,.06,0,.09v.28c0,.11,0,.23,0,.35a1.09,1.09,0,0,1,0,.18c0,.1,0,.2,0,.3a.66.66,0,0,0,0,.14c0,.11,0,.22,0,.32,0,.32,0,.66-.08,1s-.05.63-.08,1h0s0,0,0,0h0a.25.25,0,0,1,0,.08c0,.59-.12,1.21-.21,1.87,0,.22-.05.44-.08.66s-.06.46-.1.69-.06.46-.1.7c-.07.48-.15,1-.24,1.46,0,.24-.08.49-.13.73s-.09.51-.14.76l0,.17c0,.2-.09.41-.13.61l-.18.87v0c-.12.54-.25,1.09-.38,1.64s-.31,1.24-.48,1.88-.29,1.06-.45,1.6q-.12.45-.27.9c0,.15-.09.3-.14.45s-.09.3-.14.45l-.3.92c-.22.64-.45,1.28-.69,1.94,0,.11-.09.23-.13.35-.2.54-.42,1.08-.64,1.63-.1.25-.2.49-.31.74l-.24.57c-.17.39-.34.78-.52,1.17s-.25.54-.38.81c-.2.42-.4.83-.61,1.25s-.3.6-.46.9c0,0,0,0,0,.05h0c-.37.71-.76,1.42-1.18,2.13-.06.12-.14.25-.21.37l-.2.34-.54.9-.85,1.31c-.13.21-.27.42-.41.63l0,0c-.33.48-.67,1-1,1.45l-.35.48-.73,1-.26.33-.36.45q-.36.45-.75.9c-.18.21-.35.42-.54.62l-.45.52-.42.46-.42.45c-.46.49-.94,1-1.43,1.46l-.88.85c-.3.28-.6.56-.91.83l-.94.82-.93.77,0,0c-.29.23-.58.47-.87.69l-.35.27-.21.17-.19.13h0l-1.09.79-.66.46-.33.23-.34.22-.44.29q-.63.42-1.29.81l-.75.45-.28.16" />
      <path class="BUNTAI_WALRUS_BODY_BUNTAI_WALRUS_BODY-45_cls-4" d="M214.79,255.55l0,0,0,0,.45-.39,0,0c.51-.44,1-.91,1.51-1.41h0l0,0c.08-.08.27-.27.53-.55a.85.85,0,0,0,.16-.17l.18-.19a.91.91,0,0,0,.17-.17l.23-.25.21-.24.22-.24h0l.35-.4" />
      <path class="BUNTAI_WALRUS_BODY_BUNTAI_WALRUS_BODY-45_cls-4" d="M223.5,245.25A55.38,55.38,0,0,1,219,251.4" />
      <path class="BUNTAI_WALRUS_BODY_BUNTAI_WALRUS_BODY-45_cls-4" d="M233.32,222a76.2,76.2,0,0,1-9.79,23.21" />
      <path class="BUNTAI_WALRUS_BODY_BUNTAI_WALRUS_BODY-45_cls-4" d="M223.53,245.21l0,0s-1.78,1-4.5,2.6c-.28.17-.57.34-.86.53s-.38.22-.57.35l-.77.48c-1.3.81-2.73,1.73-4.23,2.75l-1.19.82c-.8.55-1.62,1.14-2.45,1.74l-.05,0-.18.14-.08.06c-.77.56-1.53,1.14-2.3,1.74s-1.29,1-1.93,1.55-1.09.91-1.63,1.38l0,0-.85.75c-.34.31-.69.61-1.05.91s-.43.35-.65.52l-.95.74h0c-.3.22-.61.45-.93.67s-.62.44-.94.65h0l-1,.63-.3.18c-.22.15-.45.29-.68.42l-1,.59-1.13.65-.15.08-.47.26-.22.12c-.32.17-.65.35-1,.51-.65.34-1.29.66-1.93,1s-1.14.54-1.69.78l-.14.07-.05,0-.25.12-.33.15-.13.05-.07,0h-.1l0,0-.18.08c-.88.37-1.71.72-2.5,1-.45.18-.89.35-1.31.5l-.28.11-.28.1c-.36.14-.71.26-1,.37l-.1,0-.38.13-.25.09-.19.06-.1,0-.29.09h0l-.23.08-.14,0-.33.11h0l-.2.07-.11,0-.08,0-.18.05-.29.09-.12,0-.09,0-.08,0-.06,0h0l.05,0,1-.49h0l1.48-.77,0,0a58.7,58.7,0,0,0,5.29-3.21c.43-.29.68-.48.68-.48,4.72-3.32,10.05-8.17,12.24-14.2" />
      <path class="BUNTAI_WALRUS_BODY_BUNTAI_WALRUS_BODY-45_cls-4" d="M156.11,282.64c0-1.68.16-3.7.43-6.12,2.8-25.75,12.32-34.83,12.32-34.83" />
      <path class="BUNTAI_WALRUS_BODY_BUNTAI_WALRUS_BODY-45_cls-4" d="M186.48,260.21c-6.52,8.5-10.37,8-18.29,15.5-.53.5-1,1-1.53,1.49a48.54,48.54,0,0,0-9.54,13.3s-1.14-1.56-1-7.85" />
      <polyline class="BUNTAI_WALRUS_BODY_BUNTAI_WALRUS_BODY-45_cls-4" points="166.66 277.2 176.22 273.34 176.51 273.22 176.69 273.15 177.86 272.68" />
      <path class="BUNTAI_WALRUS_BODY_BUNTAI_WALRUS_BODY-45_cls-4" d="M150.57,261.87c.21,2.25.48,4.22.48,4.22s1.68,10.54,5.06,16.55h0" />
      <path class="BUNTAI_WALRUS_BODY_BUNTAI_WALRUS_BODY-45_cls-4" d="M243.28,171.08s5.27-1.45,7.41-3.72a15.71,15.71,0,0,1,5.83-3.44l-3.3,5.65s2.62-.06,5.56-.4c2.65-.28,5.57-.8,7-1.67,3.08-1.83,4.57-.73,4.57-.73l-2.85,2.57a74.87,74.87,0,0,0,11.38,3.08c4.91.76,7.21.24,7.21.24a40.15,40.15,0,0,1-2.71,3.23" />
      <path class="BUNTAI_WALRUS_BODY_BUNTAI_WALRUS_BODY-45_cls-4" d="M301.84,197.65a69.28,69.28,0,0,0-1.91-8,5.35,5.35,0,0,0-.83-1.75,156.12,156.12,0,0,0-12-10.14,10.52,10.52,0,0,0-3.69-1.83,14.59,14.59,0,0,0-8,.32" />
      <path class="BUNTAI_WALRUS_BODY_BUNTAI_WALRUS_BODY-45_cls-4" d="M306.75,219.41c-.06-.63-.12-1.28-.19-1.94h0l-.12-1.05h0l0-.25c-.05-.43-.1-.88-.16-1.32q0-.35-.09-.69c-.06-.47-.12-.93-.19-1.4s-.16-1.11-.25-1.66-.17-1.12-.27-1.67h0c-.05-.3-.1-.61-.16-.91a.36.36,0,0,1,0-.1c-.08-.45-.16-.9-.25-1.35s-.14-.74-.22-1.1c-.15-.72-.31-1.43-.47-2.12-.05-.19-.09-.37-.13-.55-.13-.49-.25-1-.38-1.43-.05-.17-.1-.34-.16-.5s-.06-.2-.1-.3-.12-.33-.19-.49l-.09-.22a1.89,1.89,0,0,0-.11-.25c0-.09-.07-.17-.12-.26s-.15-.33-.24-.49l-.37-.68v0c-.15-.27-.32-.53-.49-.8h0l-.09-.13h0c-4.6-7.1-14.39-13.46-14.39-13.46" />
      <path class="BUNTAI_WALRUS_BODY_BUNTAI_WALRUS_BODY-45_cls-4" d="M308.07,256.71c1.26,3.27,3.25,7.47,5.81,10-5-8.38-4.6-27.55-4.52-33.84a35.42,35.42,0,0,0-2.61-13.48,39.25,39.25,0,0,0-2.69-5.39,46.44,46.44,0,0,1-2.33-4.41h0a46.53,46.53,0,0,1-2.71-7.29" />
      <path class="BUNTAI_WALRUS_BODY_BUNTAI_WALRUS_BODY-45_cls-4" d="M300.94,238.25c2.7,4.2,3.92,13.78,4.38,23.62.39,8,.27,16.27.06,21.87,1.45-5.76,2.27-18.3,2.69-27,.25-5.38.35-9.32.35-9.32" />
      <path class="BUNTAI_WALRUS_BODY_BUNTAI_WALRUS_BODY-45_cls-4" d="M254.44,246.24c-10.8-17-11.16-40.56-11.16-43.6v-.33" />
      <path class="BUNTAI_WALRUS_BODY_BUNTAI_WALRUS_BODY-45_cls-4" d="M256.53,245.27a45.21,45.21,0,0,0,5.81,10.28,41.78,41.78,0,0,1-7.9-9.3" />
      <path class="BUNTAI_WALRUS_BODY_BUNTAI_WALRUS_BODY-45_cls-4" d="M250,222a99.45,99.45,0,0,0,6.55,23.21" />
      <path class="BUNTAI_WALRUS_BODY_BUNTAI_WALRUS_BODY-45_cls-4" d="M273.1,253.45c2.89,11.89,14,19.23,14,19.23s-9.91-4.2-16.06-12.47a93.41,93.41,0,0,0-14.47-14.94v0l0,0" />
      <path class="BUNTAI_WALRUS_BODY_BUNTAI_WALRUS_BODY-45_cls-4" d="M301.61,282.64c0-1.68-.11-3.7-.28-6.12-1.88-25.75-8.25-34.83-8.25-34.83" />
      <path class="BUNTAI_WALRUS_BODY_BUNTAI_WALRUS_BODY-45_cls-4" d="M281.29,260.21a29.74,29.74,0,0,0,6.33,8.7,46.06,46.06,0,0,1,5.91,6.79q.54.75,1,1.5a54.38,54.38,0,0,1,6.39,13.3s.76-1.56.67-7.85" />
      <polyline class="BUNTAI_WALRUS_BODY_BUNTAI_WALRUS_BODY-45_cls-4" points="294.55 277.19 289.61 274.21 287.54 272.96 287.06 272.68" />
      <path class="BUNTAI_WALRUS_BODY_BUNTAI_WALRUS_BODY-45_cls-4" d="M301.61,282.65h0c2.27-6,3.39-16.55,3.39-16.55s.18-2,.32-4.22" />
      <path class="BUNTAI_WALRUS_BODY_BUNTAI_WALRUS_BODY-45_cls-4" d="M219,247.85c0,1.07,0,2.25-.05,3.55h0" />
      <path class="BUNTAI_WALRUS_BODY_BUNTAI_WALRUS_BODY-45_cls-4" d="M152,202.63h0l.31.53h0" />
      <path class="BUNTAI_WALRUS_BODY_BUNTAI_WALRUS_BODY-45_cls-4" d="M221.63,250.84l.21.19.19.18.17.16,0,0a23.73,23.73,0,0,0,8.52,4.93h0a29.3,29.3,0,0,0,9.46,1.53,28,28,0,0,0,3.8-.26,21.37,21.37,0,0,0,7.2-2.33s.05,0,.08,0a17.52,17.52,0,0,0,3.14-2.18l.38-.34-.3-6.34" />
      <g class="BUNTAI_WALRUS_BODY_BUNTAI_WALRUS_BODY-45_cls-18">
        <path d="M159.13,203.19a82.7,82.7,0,0,1-6.38,5.36c-1.66,1-2.39.92-2.39.92l-1.92,8s5.62-5.68,7.76-8.22A16,16,0,0,0,159.13,203.19Z" />
        <path d="M174.38,185.53l.06,0-.37.19c-.85.44-2.73,1.41-6.15,3.22l-.15.08c-4.48,2.36-8.91,5.05-10.9,6.28l-.49.31-.61.38,1.48-3.05h0l.35-.28c.57-.45,1.75-1.37,3.18-2.43C162.74,188.77,173.12,186,174.38,185.53Z" />
        <path d="M169.41,229.9c-5.82,9.91-15.14,36.83-15.14,36.83l-2.92-12.38a122.92,122.92,0,0,1,.18-14c.53-9.09,10.95-28,10.95-28s-10.43,10.48-14,30.06a95.69,95.69,0,0,0,.83,36.95s.45-3.05,1.1-14.19c.64,7.5,5.37,16.69,5.37,16.69l3.39-18.29S160.21,253.09,169.41,229.9Z" />
        <path d="M183.51,257.86c10.14-7.59,15.73-17.82,24.76-37.66-9,18-21.12,28.58-30.65,37.53l-10,7.71s9.43-10.58,13.45-16.34c3.59-5.14,9.39-15.07,10.61-17.17a145.71,145.71,0,0,1-9.57,13.67c-7.18,9.35-13.71,17-13.71,17l4.47-11.21.75-1.27C178.85,241.22,189,222.8,189,222.8s-10.72,15.14-18.64,28a140.53,140.53,0,0,0-10.24,21.65c.41-2.47,1.13-6.8,1.77-10.46,1-5.46,5.64-18.35,5.64-18.35s-3.63,3.1-5.15,9.74c-1.24,5.37-2.16,15.83-2.47,19.63-1.42,3.7-2.5,6.81-3.14,8.71,2.36-6.17,9.52-19.08,14.51-27.7-2.74,6.1-6,13.41-7.23,16.32-.92,2.21-2.19,5.64-3.36,8.92a53.54,53.54,0,0,0-4,10.09l.82-1h0l8.19-9.7S173.37,265.44,183.51,257.86Z" />
        <path d="M156.76,281.76a16.48,16.48,0,0,0-.65,2S156.34,283,156.76,281.76Z" />
        <path d="M243.28,202.31l-2.43,2.08a320,320,0,0,1-17.14,32.12c2.79-6.67,9.61-29.56,9.61-29.56s-8.1,19.92-14.19,30.18-18.44,14.68-18.44,14.68,1.69-3.62,8.45-19.57c-10.83,20.17-18.06,26.56-25.51,32.27s-14.77,10.84-14.77,10.84,11.55-3.49,17.87-6,11.34-5.13,16.09-10,11.91-7.89,20.3-13.49c-1.75,3.27-6.27,7.81-6.27,7.81s10.82-6.29,19.1-20.74S243.28,202.31,243.28,202.31Z" />
        <path d="M172.26,235.2S182.64,222.45,190,213s28.94-22.26,28.94-22.26-19.86,10.44-28.42,18.6S172.26,235.2,172.26,235.2Z" />
        <path d="M194.83,176.16c6.16.7,21.84,3,21.84,3s-13.19-5.68-21.39-5.37a83,83,0,0,1-14.13-.61h-.78l2,2.56A91.78,91.78,0,0,1,194.83,176.16Z" />
        <path d="M191.67,231.93c.15-.25.23-.4.23-.4S191.82,231.68,191.67,231.93Z" />
        <path d="M150.36,225.19c3.49-7.87,7.86-15.9,7.86-15.9a120,120,0,0,0-7.86,12.92,78.11,78.11,0,0,0-5.76,15.73s.23,1.75-.6,11.07C145.62,245.05,146.87,233.05,150.36,225.19Z" />
        <path d="M177.28,193.26c12.2-5.94,27.11-7.85,27.11-7.85s-17.65.69-27.87,6.21-14.71,8.46-14.71,8.46S165.07,199.2,177.28,193.26Z" />
        <path d="M306.4,212.87c-.29-1.21-.58-2.36-.86-3.44a.57.57,0,0,0,.31,0Z" />
        <path d="M306.44,216.4c-1.17-1.77-3.49-5.3-4.55-7.15a20.59,20.59,0,0,1-2-6.06s3.2,4.32,4.32,5.36a4,4,0,0,0,1.23.85h0c.1.55.19,1.11.27,1.67s.17,1.1.25,1.66.13.93.19,1.4q.06.35.09.69c.06.44.11.89.16,1.32Z" />
        <path d="M302.18,196l-.33-.31-.34-.31a1.07,1.07,0,0,0-.16-.14h0c-1.39-1.26-4.32-3.89-7.29-6.2s-4.13-3.19-4.52-3.49c.58.36,7.89,3.23,9.24,4.69.81.89,1.51,1.68,1.94,2.18h0l.46.53.33,1,.31.94v0Z" />
        <path d="M292.94,229.9c3.95,9.91,10.26,36.83,10.26,36.83l2-12.38s.24-4.87-.12-14-7.42-28-7.42-28,7.07,10.48,9.52,30.06a140.15,140.15,0,0,1-.57,36.95s-.3-3.05-.74-14.19c-.44,7.5-3.64,16.69-3.64,16.69l-2.3-18.29S299.17,253.09,292.94,229.9Z" />
        <path d="M283.39,257.85c-6.86-7.58-10.65-17.81-16.76-37.65,6.05,18,14.3,28.58,20.76,37.53l6.77,7.71s-6.39-10.58-9.11-16.34c-2.43-5.14-6.36-15.07-7.18-17.17.52,1.3,2.42,5.87,6.48,13.67,4.86,9.35,9.28,17,9.28,17l-3-11.21-.51-1.27c-3.55-8.85-10.41-27.27-10.41-27.27s7.25,15.14,12.62,28a178.88,178.88,0,0,1,6.93,21.65c-.28-2.47-.76-6.8-1.2-10.46-.65-5.46-3.82-18.35-3.82-18.35s2.46,3.1,3.49,9.74c.84,5.37,1.47,15.83,1.67,19.63,1,3.7,1.7,6.81,2.13,8.71-1.6-6.17-6.45-19.08-9.83-27.7,1.86,6.1,4.07,13.41,4.9,16.32.62,2.21,1.48,5.64,2.28,8.92a70.89,70.89,0,0,1,2.7,10.09l-.55-1h0l-5.54-9.7S290.26,265.44,283.39,257.85Z" />
        <path d="M301.51,281.76c.2.77.35,1.44.44,2C302,283.73,301.8,283,301.51,281.76Z" />
        <path d="M242.92,202.31l1.64,2.08s4,13.28,11.61,32.12c-1.89-6.67-6.51-29.56-6.51-29.56s5.49,19.92,9.61,30.18a30.38,30.38,0,0,0,12.49,14.68s-1.15-3.62-5.73-19.57c7.34,20.17,12.23,26.56,17.28,32.27s10,10.84,10,10.84-7.82-3.49-12.11-6a29.33,29.33,0,0,1-10.9-10c-3.21-4.91-8.06-7.89-13.74-13.49a46,46,0,0,0,4.25,7.81s-7.33-6.29-12.94-20.74S242.92,202.31,242.92,202.31Z" />
        <path d="M291,235.2s-7-12.75-12-22.25-19.6-22.26-19.6-22.26,13.45,10.44,19.25,18.6S291,235.2,291,235.2Z" />
        <path d="M275.73,176.16c-4.17.7-14.79,3-14.79,3s8.93-5.68,14.48-5.37a38.34,38.34,0,0,0,9.57-.61h.53l-1.36,2.56A42.13,42.13,0,0,0,275.73,176.16Z" />
        <path d="M277.87,231.93l-.16-.4Z" />
        <path d="M305.85,225.19c-2.37-7.87-5.33-15.9-5.33-15.9a138.78,138.78,0,0,1,5.33,12.92,105.36,105.36,0,0,1,3.9,15.73s-.16,1.75.4,11.07C309.06,245.05,308.21,233.05,305.85,225.19Z" />
        <path d="M287.61,193.26a52.22,52.22,0,0,0-18.36-7.85s11.95.69,18.88,6.21,10,8.46,10,8.46S295.88,199.2,287.61,193.26Z" />
        <path d="M254.44,246.24v7.08a13,13,0,0,1-3.14,1.91s-.05,0-.08,0a36.26,36.26,0,0,1-7.07,2.3l-.13,0a21.28,21.28,0,0,1-13.26-1.27h0a44,44,0,0,1-8.52-4.93l0,0-.43-.3.07,0c3.47-1.7,8.56-8.25,8.56-8.25s7.75,1.22,12.49.52a15.31,15.31,0,0,0,7.55-3.26Z" />
        <path d="M202,260.29v-.08S202,260.22,202,260.29Z" />
        <path d="M305,207c.09.45.17.9.25,1.35-1.18-4.45-2.16-7.69-2.83-9.74l.37.68c.09.16.17.33.24.49s.08.17.12.26a1.89,1.89,0,0,1,.11.25l.09.22c.07.16.13.33.19.49s.07.2.1.3.11.33.16.5c.13.46.25.94.38,1.43,0,.18.08.36.13.55.16.69.32,1.4.47,2.12C304.88,206.3,305,206.67,305,207Z" />
        <path d="M306.4,212.87c-.29-1.21-.58-2.36-.86-3.44a.57.57,0,0,0,.31,0Z" />
        <path d="M158.21,190.48l-.6,2.15-.74,2.65-.19.69-.61.63.31-1-.61.38,1.48-3.05h0C157.56,192.05,157.88,191.22,158.21,190.48Z" />
        <path d="M186.55,269.47v0c-.88.37-1.71.72-2.5,1l-1.31.5-.28.11-.28.1-1,.37-.1,0-.38.13-.25.09-.19.06-.1,0-.29.09h0l-.23.08-.47.15h0l-.2.07-.11,0-.08,0-.18.05-.29.09-.12,0-.09,0-.08,0-.06,0h0l-1.17.47-.18.07-.12-.23-.17-.31a11.56,11.56,0,0,0,4.24-1.31l0,0a38.67,38.67,0,0,0,5.29-3.21c.43-.29.68-.48.68-.48Z" />
        <path d="M153.34,269.4s-5.05-12.81-1.68-22.28,12.86-26.71,17.2-34.69c-7.89,21.55-4.49,28.49-4.49,28.49Z" />
        <path d="M156.43,290.5s-1-9.2,2.07-23.44S165,247.18,165,247.18s-2.71,15.91-1.68,17.6c7.22-20.75,12.29-32,12.29-32l-6.7,21.14-4,14.46-6.13,17.7Z" />
        <path d="M156.68,208.63a87.85,87.85,0,0,1,20.6-15.37c11.22-5.75,19.36-6.43,19.36-6.43s-12.31,6-20.59,12.32-14.83,15.65-14.83,15.65,4-7.73,16.06-18.33C166.15,202.52,156.68,208.63,156.68,208.63Z" />
        <path d="M220.21,212.43s-4.37,26.23-15.82,43.12C218.29,241,220.21,212.43,220.21,212.43Z" />
      </g>
      <path class="BUNTAI_WALRUS_BODY_BUNTAI_WALRUS_BODY-45_cls-4" d="M289.61,274.22q-1,5.11-2.31,10.45" />
      <path class="BUNTAI_WALRUS_BODY_BUNTAI_WALRUS_BODY-45_cls-9" d="M204,412.78c-1.2,1.78-2.67,3.4-4.25.84a4.86,4.86,0,0,1-.3-.56,22.33,22.33,0,0,1-1.63-4.76,0,0,0,0,1,0,0c-.13-.49-.25-1-.37-1.57l0-.12c0-.2-.09-.42-.14-.64-.94-4.62-2-13.16-3-23-.11-1.11-.23-2.23-.35-3.37-.68-6.84-1.34-14.16-1.91-21.14-.2-2.4-.39-4.76-.56-7-.23-3.06-.45-6-.63-8.73-.06-.9-.12-1.77-.17-2.62,0-.5-.07-1-.1-1.52q-.06-1-.12-1.92c0-.05,0-.09,0-.14s0-.26,0-.4,0-.45,0-.68c-.05-.76-.09-1.55-.14-2.38-.1-1.74-.21-3.62-.33-5.61-.19-3.46-.4-7.23-.61-11.13-.06-1-.11-2.05-.17-3.08-.12-2.13-.23-4.29-.35-6.44-.06-1.07-.12-2.13-.17-3.19-.27-4.89-.52-9.7-.75-14.09-.06-1.08-.12-2.14-.17-3.16-.31-5.9-.57-10.8-.72-13.77,0-.62-.07-1.15-.1-1.59a3,3,0,0,0,0-.31.28.28,0,0,0,0-.09c0-.22,0-.41,0-.56s0-.11,0-.15,0-.3,0-.36v0h.08l0,0c.77-.38,5.57-2.75,9.22-4.82l.3-.18a32.64,32.64,0,0,0,2.88-1.8l.59-.43a8.94,8.94,0,0,0,2.15-1.83c0,.51,0,3.39.05,7.81,0,.94,0,1.94,0,3,0,3.62,0,7.93,0,12.65v3c0,4.57,0,9.43,0,14.33,0,1,0,2,0,3,0,2.63,0,5.26,0,7.85q0,3.19-.06,6.27v.08c0,4.73-.15,11-.24,18.1h0q0,2.12-.06,4.32c-.06,4.65-.11,9.56-.15,14.55,0,1.71,0,3.43,0,5.15,0,5.46,0,10.92,0,16.14,0,1,0,2.06,0,3.06C201.63,398.1,202.26,412.92,204,412.78Z" />
      <path class="BUNTAI_WALRUS_BODY_BUNTAI_WALRUS_BODY-45_cls-9" d="M273.64,360.52c0,5.44-.25,10.84-.61,16-.07,1-.15,2-.23,3-1.62,19.94-5.08,35.65-5.84,35.41-.53-.17-1.39-5.78-2.26-13.26a.13.13,0,0,1,0-.06c-1-8.22-1.95-18.67-2.57-26.64,0-.19,0-.37-.05-.55s0-.13,0-.19c-.28-3.66-.68-9.38-1.12-15.95-.06-1-.13-2-.19-3-.23-3.34-.45-6.84-.68-10.36l-.27-4.07c-.18-3-.38-6-.56-8.9-.07-1.05-.13-2.09-.2-3.11-.56-9-1-16.42-1.19-19.25,0-.08,0-.15,0-.22a.81.81,0,0,0,0-.16.53.53,0,0,0,0-.13c0-.1,0-.19,0-.26s0-.24,0-.31,0-.15,0-.15l0-.41,0-.55v-.09l0-.72,0-.53-.73-14.83-.16-3.32-.56-11.44-.17-3.35-1.22-25s1.69,1.68,3.5,3.33l.05.06c1,.9,2,1.79,2.78,2.39h0c.12.1.24.18.35.26a49.69,49.69,0,0,1-3.41-6.89h0c.25.19,2.81,2,5.13,4h0a19.31,19.31,0,0,1,3.48,3.66l0,0v0h0a16.37,16.37,0,0,0,3.51,4.22l0,0s.07,3.4.2,9c0,.94,0,1.95.07,3,.09,3.59.19,7.83.31,12.49,0,1,.06,2,.09,3,.12,4.5.26,9.33.42,14.31q0,1.5.09,3c.08,2.6.17,5.23.26,7.87.06,1.88.13,3.77.19,5.66.24,6.33.49,12.59.76,18.45.07,1.51.14,3,.21,4.45.14,2.81.28,5.5.43,8s.23,4.87.27,7.31C273.64,357.47,273.65,359,273.64,360.52Z" />
      <path class="BUNTAI_WALRUS_BODY_BUNTAI_WALRUS_BODY-45_cls-17" d="M243.65,94.71a23,23,0,0,0-1.55-4.34,18.34,18.34,0,0,0-2.3-3.71c-.27-.33-.55-.66-.85-1s-.41-.41-.62-.6a17.09,17.09,0,0,1-1.53-1.56,26,26,0,0,1-2.62-3.66,0,0,0,0,1,0,0,32.16,32.16,0,0,0-1.85-2.73,20.21,20.21,0,0,0-2.76-2.94c-4.6-4.08-23.15-12.39-39.83-2.31-12.83,8.75-10.95,11.06-23.45,19.54C151,101.79,151,109.69,151,109.71a27.93,27.93,0,0,0-8.93,17.9h0C138,132.36,139,136.9,139.69,140c1.05,4.34,3.91,7.88,2.53,17.17,3.83-3.81,3.64-9,3.45-10.78,1.42,8.61,9.05,12.92,11.9,18.2a26.57,26.57,0,0,1,3.68-20.89,32.27,32.27,0,0,1,3-3.92,38.78,38.78,0,0,1,6.42-5.79c18.52-13.46,15.45-14,30.93-20.32,11.95-3.71,17.73-7.4,24.61-11.91,7.71-5.07,17.61-6.5,17.61-6.5S243.74,95.07,243.65,94.71Z" />
      <path class="BUNTAI_WALRUS_BODY_BUNTAI_WALRUS_BODY-45_cls-17" d="M327.89,140.35c-3.24,10.13-3.85,13.71-.49,17.56-5-2.19-6-8.63-5.41-14.06-1.45,7.52-12.05,17.72-19.88,16.94,1.65-19.53-6.6-28.36-6.6-28.36a26.18,26.18,0,0,1,.49,7.26c-4.37-14.82-14.9-18.47-26.27-31.37l-.08-.09a37.93,37.93,0,0,0-24.88-12.91c-.64,0-1,0-1,0s0-.2-.13-.56a23,23,0,0,0-1.55-4.34,18.34,18.34,0,0,0-2.3-3.71c-.27-.33-.55-.66-.85-1s-.41-.41-.62-.6a17.09,17.09,0,0,1-1.53-1.56,26,26,0,0,1-2.62-3.66,0,0,0,0,1,0,0,32.16,32.16,0,0,0-1.85-2.73s7.17-8.72,24.57-10.32S285.67,81.64,295,87.49c0,0,7.76,4.92,14.2,9.76,5.62,4.23,6.18,8,6.34,10.91,0,.43,0,.83.06,1.22a27,27,0,0,1,9,16.76C328.05,129.85,329.78,134.47,327.89,140.35Z" />
      <path class="BUNTAI_WALRUS_BODY_BUNTAI_WALRUS_BODY-45_cls-19" d="M315.57,108.16l-4.14-1.68a18.81,18.81,0,0,0-10.76-11.93c-7-3.08-10.87-6-19.4-13.37S264.59,68.9,256.5,70,236,75.84,236.9,83.44c8.81-9.53,18.94-9,27.85-7-19.53-2.3-25.92,8.48-25.92,8.48A9.14,9.14,0,0,0,240,86.5a25.2,25.2,0,0,0,2.31,2.38c7.43-6.82,17-6.22,21.08-2.15-6.6-3.26-19,1.6-18.61,8.59l-1.12-.61c-10.44-5.52-22.92-8.61-45.56-3.29,9.58-6,22.57-11.89,39.38-5.54-16.39-11.4-30.23-5.66-30.67-5.48.29-.31,5.5-5.69,20.8-4.51-17.07-9.35-27.74-5.39-36.88,1.33S180.59,90.65,174.44,96c-13.42,7-19.94,16.84-20.91,23.9a112.19,112.19,0,0,0,21.22-13.22c-6.49,10.46-23.11,18.61-23.24,22.45a105.72,105.72,0,0,1,26.44-15c-.22.22-24.33,17-16.7,29.5a26.57,26.57,0,0,0-3.68,20.89c-2.85-5.28-10.48-9.59-11.9-18.2.19,1.74.38,7-3.45,10.78,1.38-9.29-1.48-12.83-2.53-17.17-.74-3.11-1.74-7.65,2.37-12.39h0a27.93,27.93,0,0,1,8.93-17.9s0-7.92,15.29-18.29c12.5-8.48,10.62-10.79,23.45-19.54,16.68-10.08,35.23-1.77,39.83,2.31a20.21,20.21,0,0,1,2.76,2.94s7.17-8.72,24.57-10.32S285.67,81.64,295,87.49c0,0,7.76,4.92,14.2,9.76C314.85,101.48,315.41,105.26,315.57,108.16Z" />
      <path class="BUNTAI_WALRUS_BODY_BUNTAI_WALRUS_BODY-45_cls-4" d="M157.58,164.63v0c-.2-.66-3.75-13,6.64-24.81a38.78,38.78,0,0,1,6.42-5.79c18.52-13.46,15.45-14,30.93-20.32" />
      <path class="BUNTAI_WALRUS_BODY_BUNTAI_WALRUS_BODY-45_cls-4" d="M145.67,146.4c1.42,8.61,9.05,12.92,11.9,18.2" />
      <path class="BUNTAI_WALRUS_BODY_BUNTAI_WALRUS_BODY-45_cls-4" d="M156.7,125.49a20.19,20.19,0,0,0-11.17,16.24,18.27,18.27,0,0,0,.06,4.07,1.86,1.86,0,0,0,0,.34.69.69,0,0,0,0,.2" />
      <path class="BUNTAI_WALRUS_BODY_BUNTAI_WALRUS_BODY-45_cls-4" d="M142.06,127.61a25.94,25.94,0,0,1,7.65-5.64c6.83-3.36,17.23-10.35,17.23-10.35" />
      <path class="BUNTAI_WALRUS_BODY_BUNTAI_WALRUS_BODY-45_cls-4" d="M145.59,145.8s0,.12,0,.34c0,.06,0,.12,0,.2v.06c.19,1.74.38,7-3.45,10.78,1.38-9.29-1.48-12.83-2.53-17.17-.74-3.11-1.74-7.65,2.37-12.39" />
      <path class="BUNTAI_WALRUS_BODY_BUNTAI_WALRUS_BODY-45_cls-4" d="M142.06,127.62h0a27.93,27.93,0,0,1,8.93-17.9,25,25,0,0,1,2.74-2.09c3.84-2.52,6.69-4.34,8.77-5.65a69.37,69.37,0,0,1,7.53-4.1c9.11-4.23,10-9.26,10-9.26" />
      <path class="BUNTAI_WALRUS_BODY_BUNTAI_WALRUS_BODY-45_cls-4" d="M234.18,79.87a22.27,22.27,0,0,0,4.15,5.22,17,17,0,0,1,3.77,5.28,22.66,22.66,0,0,1,1.68,4.9s-9.9,1.43-17.61,6.5c-6.88,4.51-12.66,8.2-24.61,11.91-1.45.45-3,.9-4.62,1.35a110.67,110.67,0,0,0-25.1,10.13A52.92,52.92,0,0,1,193.53,111c13.54-4.51,17.28-8.86,17.28-8.86" />
      <path class="BUNTAI_WALRUS_BODY_BUNTAI_WALRUS_BODY-45_cls-4" d="M151,109.71s0-7.92,15.29-18.29c12.5-8.48,10.62-10.79,23.45-19.54,16.68-10.08,35.23-1.77,39.83,2.31a20.21,20.21,0,0,1,2.76,2.94,32.16,32.16,0,0,1,1.85,2.73" />
      <path class="BUNTAI_WALRUS_BODY_BUNTAI_WALRUS_BODY-45_cls-4" d="M215.05,76.72s9.95-2.5,19.12,3.14a0,0,0,0,0,0,0" />
      <path class="BUNTAI_WALRUS_BODY_BUNTAI_WALRUS_BODY-45_cls-4" d="M208.11,85.64s18.49-7.13,32.2,1.85" />
      <path class="BUNTAI_WALRUS_BODY_BUNTAI_WALRUS_BODY-45_cls-4" d="M232.32,77.13s7.17-8.72,24.57-10.32S285.67,81.64,295,87.49c0,0,7.76,4.92,14.2,9.76s6.24,9.11,6.4,12.13" />
      <path class="BUNTAI_WALRUS_BODY_BUNTAI_WALRUS_BODY-45_cls-4" d="M288.81,90.37s5.56,6.53,19.32,14.22a26.72,26.72,0,0,1,7.5,4.79,27,27,0,0,1,9,16.76v0" />
      <path class="BUNTAI_WALRUS_BODY_BUNTAI_WALRUS_BODY-45_cls-4" d="M322,143.83a24.56,24.56,0,0,1,1.17-5.51c1.87-5.34-6.16-11.95-13.43-14" />
      <path class="BUNTAI_WALRUS_BODY_BUNTAI_WALRUS_BODY-45_cls-4" d="M300.1,108.15a63.19,63.19,0,0,0,15,11.23,35.4,35.4,0,0,1,9.52,6.76c3.46,3.71,5.19,8.33,3.3,14.21-3.24,10.13-3.85,13.71-.49,17.56-5-2.19-6-8.63-5.41-14.06" />
      <path class="BUNTAI_WALRUS_BODY_BUNTAI_WALRUS_BODY-45_cls-4" d="M269.73,108.32c11.37,12.9,21.9,16.55,26.27,31.37a26.18,26.18,0,0,0-.49-7.26,22.69,22.69,0,0,0-3.43-8.23" />
      <path class="BUNTAI_WALRUS_BODY_BUNTAI_WALRUS_BODY-45_cls-4" d="M243.78,95.27a37.36,37.36,0,0,1,25.87,13" />
      <path class="BUNTAI_WALRUS_BODY_BUNTAI_WALRUS_BODY-45_cls-4" d="M295.51,132.43s8.25,8.83,6.6,28.36c7.83.78,18.43-9.42,19.88-16.94v0" />
      <path class="BUNTAI_WALRUS_BODY_BUNTAI_WALRUS_BODY-45_cls-4" d="M242.1,90.37s4.22-9.63,17.21-6.22" />
      <path class="BUNTAI_WALRUS_BODY_BUNTAI_WALRUS_BODY-45_cls-4" d="M236.63,82.82s8.05-11.55,27.91-6.65" />
      <path class="BUNTAI_WALRUS_BODY_BUNTAI_WALRUS_BODY-45_cls-4" d="M269.65,108.23l.08.09a24.85,24.85,0,0,0,16.7,6.6c-11.16-4.87-11.16-14.12-22.72-21" />
    </g>
  </g>
</svg>