<svg xmlns="http://www.w3.org/2000/svg" viewBox="0 0 432 432">
  <defs>
    <style>.BUNTAI_WALRUS_BODY_BUNTAI_WALRUS_BODY-23_cls-1{isolation:isolate;}.BUNTAI_WALRUS_BODY_BUNTAI_WALRUS_BODY-23_cls-2{fill:#584f48;}.BUNTAI_WALRUS_BODY_BUNTAI_WALRUS_BODY-23_cls-3{opacity:0.22;}.BUNTAI_WALRUS_BODY_BUNTAI_WALRUS_BODY-23_cls-14,.BUNTAI_WALRUS_BODY_BUNTAI_WALRUS_BODY-23_cls-3{mix-blend-mode:multiply;}.BUNTAI_WALRUS_BODY_BUNTAI_WALRUS_BODY-23_cls-11,.BUNTAI_WALRUS_BODY_BUNTAI_WALRUS_BODY-23_cls-13,.BUNTAI_WALRUS_BODY_BUNTAI_WALRUS_BODY-23_cls-4{fill:none;stroke:#000;stroke-linecap:round;stroke-linejoin:round;}.BUNTAI_WALRUS_BODY_BUNTAI_WALRUS_BODY-23_cls-4{stroke-width:1.93px;}.BUNTAI_WALRUS_BODY_BUNTAI_WALRUS_BODY-23_cls-5{fill:#e8dfda;}.BUNTAI_WALRUS_BODY_BUNTAI_WALRUS_BODY-23_cls-6{fill:#ccb9ae;}.BUNTAI_WALRUS_BODY_BUNTAI_WALRUS_BODY-23_cls-7{fill:#9b999a;}.BUNTAI_WALRUS_BODY_BUNTAI_WALRUS_BODY-23_cls-8{fill:#373135;}.BUNTAI_WALRUS_BODY_BUNTAI_WALRUS_BODY-23_cls-9{fill:#ecd3bd;}.BUNTAI_WALRUS_BODY_BUNTAI_WALRUS_BODY-23_cls-10{fill:#fff;}.BUNTAI_WALRUS_BODY_BUNTAI_WALRUS_BODY-23_cls-11{stroke-width:1.7px;}.BUNTAI_WALRUS_BODY_BUNTAI_WALRUS_BODY-23_cls-12{fill:#e8cf8c;}.BUNTAI_WALRUS_BODY_BUNTAI_WALRUS_BODY-23_cls-13{stroke-width:1.37px;}.BUNTAI_WALRUS_BODY_BUNTAI_WALRUS_BODY-23_cls-14{opacity:0.43;}</style>
  </defs>
  <g class="BUNTAI_WALRUS_BODY_BUNTAI_WALRUS_BODY-23_cls-1">
    <g id="body">
      <path class="BUNTAI_WALRUS_BODY_BUNTAI_WALRUS_BODY-23_cls-2" d="M138.29,174.34l0,0,0,0v0c-.56.57-.89.93-1,1l0,0-.21.13c-1.95,1.27-3.68,2.34-5,3.14l-1.78,1-.24.14-.23.13a18.74,18.74,0,0,0-3.59,2.68l-.18.18-.11.11-.08.08,0,0-.21.2-.28.28-.13.14a42.19,42.19,0,0,0-3.5,4.15l0,0c-.65.86-1.27,1.73-1.86,2.57l0,.05,0,0-.71,1c-.73,1.07-1.42,2.08-2.06,3a21.82,21.82,0,0,1-2.06,2.58l-.12.12C99.92,212,86.69,223.69,75.11,236.93l-.1.12A162.49,162.49,0,0,0,60,257c-.11.15-.2.31-.3.46l0,0,0,.05c-.43.68-.86,1.37-1.28,2.07s-.71,1.18-1.06,1.78-.67,1.14-1,1.72-.67,1.16-1,1.75-.66,1.19-1,1.79l-.3.55c-.23.42-.45.84-.67,1.27l-.12.22-.51,1-.57,1.12-.29.57c-.26.53-.53,1.06-.78,1.61-.5,1-1,2.06-1.48,3.12-.38.82-.74,1.64-1.1,2.47l-.06.14a165.64,165.64,0,0,0-6.38,17.55l0,.13s0,0,0,.06a.24.24,0,0,0,0,.08s0,.1-.05.15-.09.33-.14.49c-.23.78-.46,1.55-.68,2.33-.3,1-.59,2.09-.87,3.13q-.86,3.14-1.63,6.29t-1.48,6.3q-.72,3.19-1.39,6.4a1.84,1.84,0,0,0,0,.25c-.09.42-.18.84-.26,1.26s-.16.75-.23,1.13q-.26,1.17-.48,2.34c-.58,2.76-1.13,5.53-1.69,8.29s-1.05,5.27-1.57,7.91c-.07.32-.13.64-.19,1a.14.14,0,0,0,0,.07l-.18.89c-.06.3-.12.59-.17.89-.18.87-.35,1.75-.52,2.62-.06.26-.11.52-.16.78-.2,1-.4,2-.59,3-.1.47-.19.93-.28,1.4-.05.23-.09.45-.14.68s-.09.43-.13.65c-.08.42-.17.84-.25,1.26s-.16.78-.23,1.17-.15.73-.22,1.09-.13.66-.2,1l-.18.89c0,.14-.06.27-.08.41l-.21,1c0,.18-.07.37-.11.55s-.06.28-.08.42l-.06.29,0,.16L19,405.37c0,.18-.07.37-.11.55l-7,35.06H406.62q-8.58-53-17.17-106.08c-3.24-20-6.53-40.24-13.44-58.79-13.08-35.14-23.45-42.51-42.86-70.37l-16.64-27.29-.05-.08c-.3-.5-.63-1-1-1.6,0,0-1.41-2-3.58-5l-.11-.15c-2.06-2.81-4.78-6.46-7.64-10.1l0,0-.61-.79c-.13-.15-.25-.31-.38-.47l-.13-.17-.12-.14-.62-.78c.06-1.07.11-2.15.18-3.22,0-.56.06-1.1.1-1.65.23-3.47.35-6.28.36-8.63,0-1.67,0-3.11-.14-4.37q-.06-.76-.15-1.44l-.09-.67a21.42,21.42,0,0,0-.66-2.92c-.05-.18-.11-.35-.17-.52-.11-.35-.24-.69-.37-1a48.05,48.05,0,0,0-2.28-4.66c-.12-.24-.26-.48-.41-.73l0-.05c-.14-.24-.3-.48-.47-.72l0-.05c-.17-.25-.35-.51-.55-.77l0,0c-.2-.26-.41-.54-.64-.82h0a73.21,73.21,0,0,0-6.84-7.22c-1.38-1.3-2.79-2.56-4.16-3.74-.21-.53-.42-1-.64-1.56-.07-.15-.14-.29-.2-.44-.16-.36-.33-.71-.49-1-.09-.17-.17-.34-.25-.51l-.39-.73a29.68,29.68,0,0,0-3.53-5.27l-.13-.15c-.24-.28-.49-.56-.74-.82l-.2-.22-.73-.73-.24-.23c-.24-.23-.49-.45-.74-.67l-.25-.22c-.25-.21-.51-.43-.77-.63l-.24-.18c-.27-.21-.54-.42-.82-.61l-.17-.12a28.67,28.67,0,0,0-4.21-2.41l-.06,0-.95-.42-.28-.12c-.29-.13-.6-.25-.9-.36l-.36-.14-.89-.32-.39-.14-.9-.29-.4-.13-.94-.27L264.7,97l-1-.26-.32-.08-1.08-.26-.08,0c-1.72-.39-3.5-.73-5.34-1l-.23,0-1.21-.19-.31-.05-1.2-.19-.33,0-1.26-.19-.23,0-5-.69c-6.27-1.42-13.65-3.54-20.52-2.94a60,60,0,0,0-6.21.5c-.5.06-1,.14-1.48.22h-.06c-2,.3-4,.71-5.88,1.18-9.61,2.38-18,6.48-24.26,9.74-.5.27-1,.54-1.45.82l-.45.27c-.39.24-.77.49-1.14.74l-.47.32-.91.67-.25.19-.24.19c-.3.24-.59.47-.87.72l-.52.45-.71.66-.4.38c-.31.31-.61.61-.9.92l-.17.19-.82.92a1.83,1.83,0,0,1-.13.16l-.26.31,0,0c-.2.25-.4.49-.58.74h0s0,0,0,0a33.13,33.13,0,0,0-4.28,7.42s0,0,0,0l-.22.55s0,0,0,0c-.07.18-.13.34-.18.5s0,0,0,0a13.94,13.94,0,0,0-.44,1.39h0c-1,.65-2,1.29-3,1.94l-.09.06a40.85,40.85,0,0,0-8.24,7.28A26.63,26.63,0,0,0,155.84,145c-.09.69-.15,1.39-.2,2.12,0,.57-.07,1.12-.09,1.66,0,.14,0,.29,0,.43q0,.61,0,1.2v.36c0,.49,0,1,0,1.41a1.93,1.93,0,0,0,0,.24c0,.37,0,.73,0,1.07l0,.43.06.86,0,.38c0,.36.07.7.11,1,0,.18,0,.35.07.53s0,.34.07.5.06.41.1.61,0,.18,0,.27l.09.56-.27.23-.18.15L140.4,172.63l-1.05.64Zm0,0,0,0,0,0v0c-.56.57-.89.93-1,1l0,0-.21.13c-1.95,1.27-3.68,2.34-5,3.14l-1.78,1-.24.14-.23.13a18.74,18.74,0,0,0-3.59,2.68l-.18.18-.11.11-.08.08,0,0-.21.2-.28.28-.13.14a42.19,42.19,0,0,0-3.5,4.15l0,0c-.65.86-1.27,1.73-1.86,2.57l0,.05,0,0-.71,1c-.73,1.07-1.42,2.08-2.06,3a21.82,21.82,0,0,1-2.06,2.58l-.12.12C99.92,212,86.69,223.69,75.11,236.93l-.1.12A162.49,162.49,0,0,0,60,257c-.11.15-.2.31-.3.46l0,0,0,.05c-.43.68-.86,1.37-1.28,2.07s-.71,1.18-1.06,1.78-.67,1.14-1,1.72-.67,1.16-1,1.75-.66,1.19-1,1.79l-.3.55c-.23.42-.45.84-.67,1.27l-.12.22-.51,1-.57,1.12-.29.57c-.26.53-.53,1.06-.78,1.61-.5,1-1,2.06-1.48,3.12-.38.82-.74,1.64-1.1,2.47l-.06.14a165.64,165.64,0,0,0-6.38,17.55l0,.13s0,0,0,.06a.24.24,0,0,0,0,.08s0,.1-.05.15-.09.33-.14.49c-.23.78-.46,1.55-.68,2.33-.3,1-.59,2.09-.87,3.13q-.86,3.14-1.63,6.29t-1.48,6.3q-.72,3.19-1.39,6.4a1.84,1.84,0,0,0,0,.25c-.09.42-.18.84-.26,1.26s-.16.75-.23,1.13q-.26,1.17-.48,2.34c-.58,2.76-1.13,5.53-1.69,8.29s-1.05,5.27-1.57,7.91c-.07.32-.13.64-.19,1a.14.14,0,0,0,0,.07l-.18.89c-.06.3-.12.59-.17.89-.18.87-.35,1.75-.52,2.62-.06.26-.11.52-.16.78-.2,1-.4,2-.59,3-.1.47-.19.93-.28,1.4-.05.23-.09.45-.14.68s-.09.43-.13.65c-.08.42-.17.84-.25,1.26s-.16.78-.23,1.17-.15.73-.22,1.09-.13.66-.2,1l-.18.89c0,.14-.06.27-.08.41l-.21,1c0,.18-.07.37-.11.55s-.06.28-.08.42l-.06.29,0,.16L19,405.37c0,.18-.07.37-.11.55l-7,35.06H406.62q-8.58-53-17.17-106.08c-3.24-20-6.53-40.24-13.44-58.79-13.08-35.14-23.45-42.51-42.86-70.37l-16.64-27.29-.05-.08c-.3-.5-.63-1-1-1.6h-.26c-.45-.72-.94-1.49-1.49-2.31l-.11-.16c-.52-.78-1.09-1.62-1.72-2.51l-.11-.15c-2.07-2.93-4.74-6.48-8.27-10.92-.13-.15-.25-.31-.38-.47l-.13-.17a1.34,1.34,0,0,1-.11-.14h0l-.62-.78c.06-1.07.11-2.15.18-3.22,0-.56.06-1.1.1-1.65.23-3.47.35-6.28.36-8.63,0-1.67,0-3.11-.14-4.37q-.06-.76-.15-1.44l-.09-.67a21.42,21.42,0,0,0-.66-2.92c-.05-.18-.11-.35-.17-.52-.11-.35-.24-.69-.37-1a48.05,48.05,0,0,0-2.28-4.66c-.12-.24-.26-.48-.41-.73l0-.05c-.14-.24-.3-.48-.47-.72l0-.05c-.17-.25-.35-.51-.55-.77l0,0c-.2-.26-.41-.54-.64-.82h0a73.21,73.21,0,0,0-6.84-7.22c-1.38-1.3-2.79-2.56-4.16-3.74-.21-.53-.42-1-.64-1.56-.07-.15-.14-.29-.2-.44-.16-.36-.33-.71-.49-1-.09-.17-.17-.34-.25-.51l-.39-.73a29.68,29.68,0,0,0-3.53-5.27l-.13-.15c-.24-.28-.49-.56-.74-.82l-.2-.22-.73-.73-.24-.23c-.24-.23-.49-.45-.74-.67l-.25-.22c-.25-.21-.51-.43-.77-.63l-.24-.18c-.27-.21-.54-.42-.82-.61l-.17-.12a28.67,28.67,0,0,0-4.21-2.41l-.06,0-.95-.42-.28-.12c-.29-.13-.6-.25-.9-.36l-.36-.14-.89-.32-.39-.14-.9-.29-.4-.13-.94-.27L264.7,97l-1-.26-.32-.08-1.08-.26-.08,0c-1.72-.39-3.5-.73-5.34-1l-.23,0-1.21-.19-.31-.05-1.2-.19-.33,0-1.26-.19-.23,0-5-.69c-6.27-1.42-13.65-3.54-20.52-2.94a60,60,0,0,0-6.21.5c-.5.06-1,.14-1.48.22h-.06c-2,.3-4,.71-5.88,1.18-9.61,2.38-18,6.48-24.26,9.74-.5.27-1,.54-1.45.82l-.45.27c-.39.24-.77.49-1.14.74l-.47.32-.91.67-.25.19-.24.19c-.3.24-.59.47-.87.72l-.52.45-.71.66-.4.38c-.31.31-.61.61-.9.92l-.17.19-.82.92a1.83,1.83,0,0,1-.13.16l-.26.31,0,0c-.2.25-.4.49-.58.74h0s0,0,0,0a33.13,33.13,0,0,0-4.28,7.42s0,0,0,0l-.22.55s0,0,0,0c-.07.18-.13.34-.18.5s0,0,0,0a13.94,13.94,0,0,0-.44,1.39h0c-1,.65-2,1.29-3,1.94l-.09.06a40.85,40.85,0,0,0-8.24,7.28A26.63,26.63,0,0,0,155.84,145c-.09.69-.15,1.39-.2,2.12,0,.57-.07,1.12-.09,1.66,0,.14,0,.29,0,.43q0,.61,0,1.2v.36c0,.49,0,1,0,1.41a1.93,1.93,0,0,0,0,.24c0,.37,0,.73,0,1.07l0,.43.06.86,0,.38c0,.36.07.7.11,1,0,.18,0,.35.07.53s0,.34.07.5.06.41.1.61,0,.18,0,.27l.09.56-.27.23-.18.15L140.4,172.63l-1.05.64Z" />
      <g class="BUNTAI_WALRUS_BODY_BUNTAI_WALRUS_BODY-23_cls-3">
        <path d="M136.86,175.33l15.8,26.89c-1.55,2.74-3.14,15.51-3.26,15.69s-4.62,6.61-4.31,17.29-.58,18.51-6.17,30.3c3.41-2,7.29-8.36,7.29-8.36l.26,6.7S128.64,274,120.25,294.46s-24.87,86-24.87,86,5.3-17.25,25.34-61.41c-8.39,20.62-17.48,73.75-17.48,74.92s8.39-30.76,19.11-50.78C113,374,106.5,441,106.5,441H11.88c-.67,0,6-30.51,7-35.06,0-.18.07-.37.11-.55v0L27.44,363l0-.16.06-.29c0-.14,0-.28.08-.42s.07-.37.11-.55l.21-1c0-.14.05-.27.08-.41l.18-.89c.07-.33.13-.66.2-1s.14-.73.22-1.09.15-.78.23-1.17.17-.84.25-1.26c0-.22.08-.43.13-.65s.09-.45.14-.68c.09-.47.18-.93.28-1.4.19-1,.39-2,.59-3,.05-.26.1-.52.16-.78.17-.87.34-1.75.52-2.62,0-.13.05-.26.08-.39.1-.48.2-1,.29-1.46.06-.32.12-.64.19-1,1.33-6.56,2.76-13.69,4-19.67.08-.42.17-.84.26-1.26a1.84,1.84,0,0,1,0-.25,229.56,229.56,0,0,1,6.19-24.94c0-.05,0-.1.05-.15a.24.24,0,0,1,0-.08s0,0,0-.06l0-.13c1.65-5.16,3.67-10.73,6.38-17.55l.06-.14a120.75,120.75,0,0,1,11.13-21l0-.05,0,0c.1-.15.19-.31.3-.46a231.5,231.5,0,0,1,15-19.95l.1-.12c7.14-8.68,23.31-23.81,32.48-32.84a156.31,156.31,0,0,0,12.1-13.52l0,0,0-.05c2.47-3.07,4.25-5.47,5.38-6.75l.13-.14.28-.28.21-.2,0,0,.08-.08Z" />
        <path d="M348.37,441s-8.39-20.41-9.67-43.24c6.84,23.91,13.63,30.17,13.63,30.17s2.45-30.65,2.91-59,.47-35,.47-35,11.3,35.19,10.72,59.19-1.63,37.05-1.63,37.05l-.24,4.66,1.89-7.81v9l.91,5Z" />
        <path d="M138.29,174.34l0,0,0,0c-.56.57-.89.93-1,1l0,0-.08.35v.07L136,181.25l5.59,22.57,11.06-1.6s-.17-35.06,3.51-43.54l-.27.23-.18.15-16.37,14.21Z" />
        <path d="M218.88,91.74S191.93,100.48,186.4,109a66.52,66.52,0,0,0-7.75,16.37s1.16-12.79,5.41-19.68c-7.57,12.63-8,16.36-9.31,19.68S163.1,140.61,162.63,151,168,169.91,168,169.91s-10.8-7.26-12-12.06-1.78-19.56,5.87-27.25,10-7.8,11.78-10.69,6-12.89,11.66-15.65,20.8-12.76,33.79-12.52Z" />
      </g>
      <path class="BUNTAI_WALRUS_BODY_BUNTAI_WALRUS_BODY-23_cls-4" d="M389.45,334.9c-3.24-20-6.53-40.24-13.44-58.79-13.08-35.14-23.45-42.51-42.86-70.37l-16.64-27.29c-.32-.53-.66-1.09-1-1.68,0,0-6.55-9.32-13.21-17.61.06-1.07.11-2.15.18-3.22,0-.56.06-1.1.1-1.65.23-3.47.35-6.28.36-8.63,0-1.67,0-3.11-.14-4.37q-.06-.76-.15-1.44l-.09-.67a21.42,21.42,0,0,0-.66-2.92c-.05-.18-.11-.35-.17-.52-.11-.35-.24-.69-.37-1a48.05,48.05,0,0,0-2.28-4.66c-.12-.24-.26-.48-.41-.73l0-.05c-.14-.24-.3-.48-.47-.72l0-.05c-.17-.25-.35-.51-.55-.77l0,0c-.2-.26-.41-.54-.64-.82h0a73.21,73.21,0,0,0-6.84-7.22c-1.38-1.3-2.79-2.56-4.16-3.74-.21-.53-.42-1-.64-1.56-.07-.15-.14-.29-.2-.44-.16-.36-.33-.71-.49-1-.09-.17-.17-.34-.25-.51l-.39-.73a29.68,29.68,0,0,0-3.53-5.27l-.13-.15c-.24-.28-.49-.56-.74-.82l-.2-.22-.73-.73-.24-.23c-.24-.23-.49-.45-.74-.67l-.25-.22c-.25-.21-.51-.43-.77-.63l-.24-.18c-.27-.21-.54-.42-.82-.61l-.17-.12a28.67,28.67,0,0,0-4.21-2.41l-.06,0-.95-.42-.28-.12c-.29-.13-.6-.25-.9-.36l-.36-.14-.89-.32-.39-.14-.9-.29-.4-.13-.94-.27L264.7,97l-1-.26-.32-.08-1.08-.26-.08,0c-1.72-.39-3.5-.73-5.34-1l-.23,0-1.21-.19-.31-.05-1.2-.19-.33,0-1.26-.19-.23,0-5-.69c-6.27-1.42-13.65-3.54-20.52-2.94a60,60,0,0,0-6.21.5c-.5.06-1,.14-1.48.22h-.06c-2,.3-4,.71-5.88,1.18-9.61,2.38-18,6.48-24.26,9.74-.5.27-1,.54-1.45.82l-.45.27c-.39.24-.77.49-1.14.74l-.47.32-.91.67-.25.19-.24.19c-.3.24-.59.47-.87.72l-.52.45-.71.66-.4.38c-.31.31-.61.61-.9.92l-.17.19-.82.92a1.83,1.83,0,0,1-.13.16l-.29.34c-.2.25-.4.49-.58.74h0s0,0,0,0a33.13,33.13,0,0,0-4.28,7.42s0,0,0,0l-.22.55s0,0,0,0c-.07.18-.13.34-.18.5s0,0,0,0a13.94,13.94,0,0,0-.44,1.39h0c-1.08.67-2.11,1.33-3.08,2a40.85,40.85,0,0,0-8.24,7.28A26.63,26.63,0,0,0,155.84,145c-.09.69-.15,1.39-.2,2.12,0,.57-.07,1.12-.09,1.66,0,.14,0,.29,0,.43q0,.61,0,1.2v.36c0,.49,0,1,0,1.41a1.93,1.93,0,0,0,0,.24c0,.37,0,.73,0,1.07l0,.43.06.86,0,.38c0,.36.07.7.11,1,0,.18,0,.35.07.53s0,.34.07.5.06.41.1.61,0,.18,0,.27l.09.56-.27.23-15.5,13.72c-.81.71-1.61,1.33-2.11,1.71l0,0,0,0-.44.33c-3.62,2.39-6.53,4.43-7.8,5.19l-.23.13a18.74,18.74,0,0,0-3.59,2.68c-.13.13-.27.25-.4.39l-.21.2-.28.28-.13.14a42.19,42.19,0,0,0-3.5,4.15l0,0c-.65.86-1.27,1.73-1.86,2.57-1,1.48-2,2.88-2.82,4.07a21.82,21.82,0,0,1-2.06,2.58l-.12.12C99.92,212,86.69,223.69,75.11,236.93l-.1.12A162.49,162.49,0,0,0,60,257c-.11.15-.2.31-.3.46a160.2,160.2,0,0,0-10.08,18.65c-.38.82-.74,1.64-1.1,2.47l-.06.14a165.64,165.64,0,0,0-6.38,17.55c-2.52,8.32-4.52,16.82-6.32,25.36a1.84,1.84,0,0,0,0,.25c-.92,4.34-1.79,8.68-2.66,13q-1.91,9.59-3.82,19.18c0,.22-.09.43-.13.65l-.9,4.51-.18.89c0,.14-.06.27-.08.41l-.21,1c0,.18-.07.37-.11.55s-.06.28-.08.42l-.06.29q-4.3,21.54-8.6,43.08l-7,35.06H406.62Q398,387.94,389.45,334.9ZM137.18,175.12l-.21.14c-3.11,2-5.45,3.77-6.75,4.51l-.24.14-.23.13a18.74,18.74,0,0,0-3.59,2.68l-.18.18-.11.11-.08.08,0,0-.21.2-.28.28-.13.14a42.19,42.19,0,0,0-3.5,4.15l0,0c-.65.86-1.27,1.73-1.86,2.57l0,.05c-1,1.46-2,2.84-2.79,4a21.82,21.82,0,0,1-2.06,2.58l-.12.12C99.92,212,86.69,223.69,75.11,236.93l-.1.12A162.49,162.49,0,0,0,60,257c-.11.15-.2.31-.3.46l0,0,0,.05c-.43.68-.86,1.37-1.28,2.07s-.71,1.18-1.06,1.78a159.15,159.15,0,0,0-7.69,14.72c-.38.82-.74,1.64-1.1,2.47l-.06.14a165.64,165.64,0,0,0-6.38,17.55l0,.13s0,0,0,.06c-.3,1-.6,2-.89,3.05s-.59,2.09-.87,3.13q-.86,3.14-1.63,6.29t-1.48,6.3q-.72,3.19-1.39,6.4a1.84,1.84,0,0,0,0,.25c-.09.42-.18.84-.26,1.26-.83,3.92-1.61,7.84-2.4,11.76-.88,4.44-1.78,8.89-2.65,13.34-.06.26-.11.52-.16.78-.2,1-.4,2-.59,3-.1.47-.19.93-.28,1.4-.05.23-.09.45-.14.68s-.09.43-.13.65c-.08.42-.17.84-.25,1.26s-.16.78-.23,1.17-.15.73-.22,1.09-.13.66-.2,1l-.18.89c0,.14-.06.27-.08.41l-.21,1c0,.18-.07.37-.11.55s-.06.28-.08.42l-.06.29,0,.16L19,405.37c0,.18-.07.37-.11.55l-7,35.06H406.62q-8.58-53-17.17-106.08c-3.24-20-6.53-40.24-13.44-58.79-13.08-35.14-23.45-42.51-42.86-70.37l-16.64-27.29c-.32-.53-7.58-11-14.24-19.29.06-1.07.11-2.15.18-3.22,0-.56.06-1.1.1-1.65.23-3.47.35-6.28.36-8.63,0-1.67,0-3.11-.14-4.37q-.06-.76-.15-1.44l-.09-.67a21.42,21.42,0,0,0-.66-2.92c-.05-.18-.11-.35-.17-.52-.11-.35-.24-.69-.37-1a48.05,48.05,0,0,0-2.28-4.66c-.12-.24-.26-.48-.41-.73l0-.05c-.14-.24-.3-.48-.47-.72l0-.05c-.17-.25-.35-.51-.55-.77l0,0c-.2-.26-.41-.54-.64-.82h0a73.21,73.21,0,0,0-6.84-7.22c-1.38-1.3-2.79-2.56-4.16-3.74-.21-.53-.42-1-.64-1.56-.07-.15-.14-.29-.2-.44-.16-.36-.33-.71-.49-1-.09-.17-.17-.34-.25-.51l-.39-.73a29.68,29.68,0,0,0-3.53-5.27l-.13-.15c-.24-.28-.49-.56-.74-.82l-.2-.22-.73-.73-.24-.23c-.24-.23-.49-.45-.74-.67l-.25-.22c-.25-.21-.51-.43-.77-.63l-.24-.18c-.27-.21-.54-.42-.82-.61l-.17-.12a28.67,28.67,0,0,0-4.21-2.41l-.06,0-.95-.42-.28-.12c-.29-.13-.6-.25-.9-.36l-.36-.14-.89-.32-.39-.14-.9-.29-.4-.13-.94-.27L264.7,97l-1-.26-.32-.08-1.08-.26-.08,0c-1.72-.39-3.5-.73-5.34-1l-.23,0-1.21-.19-.31-.05-1.2-.19-.33,0-1.26-.19-.23,0-5-.69c-6.27-1.42-13.65-3.54-20.52-2.94a60,60,0,0,0-6.21.5c-.5.06-1,.14-1.48.22h-.06c-2,.3-4,.71-5.88,1.18-9.61,2.38-18,6.48-24.26,9.74-.5.27-1,.54-1.45.82l-.45.27c-.39.24-.77.49-1.14.74l-.47.32-.91.67-.25.19-.24.19c-.3.24-.59.47-.87.72l-.52.45-.71.66-.4.38c-.31.31-.61.61-.9.92l-.17.19-.82.92a1.83,1.83,0,0,1-.13.16l-.26.31,0,0c-.2.25-.4.49-.58.74h0s0,0,0,0a33.13,33.13,0,0,0-4.28,7.42s0,0,0,0l-.22.55s0,0,0,0c-.07.18-.13.34-.18.5s0,0,0,0a13.94,13.94,0,0,0-.44,1.39h0c-1,.65-2,1.29-3,1.94l-.09.06a40.85,40.85,0,0,0-8.24,7.28A26.63,26.63,0,0,0,155.84,145c-.09.69-.15,1.39-.2,2.12,0,.57-.07,1.12-.09,1.66,0,.14,0,.29,0,.43q0,.61,0,1.2v.36c0,.49,0,1,0,1.41a1.93,1.93,0,0,0,0,.24c0,.37,0,.73,0,1.07l0,.43.06.86,0,.38c0,.36.07.7.11,1,0,.18,0,.35.07.53s0,.34.07.5.06.41.1.61,0,.18,0,.27l.09.56-.27.23-.18.15L140.4,172.63m-2.18,1.78v0l0,0,0,0" />
      <polyline class="BUNTAI_WALRUS_BODY_BUNTAI_WALRUS_BODY-23_cls-4" points="341.23 399.73 346.65 419.09 352.78 440.98" />
      <path class="BUNTAI_WALRUS_BODY_BUNTAI_WALRUS_BODY-23_cls-4" d="M359.07,441c1.62-25.38,4.06-57.05,4.06-57.05" />
      <path class="BUNTAI_WALRUS_BODY_BUNTAI_WALRUS_BODY-23_cls-4" d="M94.77,441c1.57-17.37,4.11-42.39,7.16-60.27l5.12-30.1" />
      <path class="BUNTAI_WALRUS_BODY_BUNTAI_WALRUS_BODY-23_cls-4" d="M83.08,326.21s.06.92,3.19,40.35c2,25.22,4.12,55.1,5.45,74.42" />
      <path class="BUNTAI_WALRUS_BODY_BUNTAI_WALRUS_BODY-23_cls-5" d="M287.53,273q-.07,4.08-.17,8.45c0,1,0,2.12-.07,3.19v.06c0,1.59-.07,3.2-.11,4.82q0,1.9-.09,3.84c-.12,5.36-.26,10.84-.41,16.27l-.09,3.37,0,.88c0,1.27-.07,2.52-.11,3.77-.18,6.22-.38,12.24-.6,17.86h0c0,.17,0,.34,0,.51,0,.92-.07,1.83-.11,2.72-.06,1.68-.13,3.31-.2,4.89,0,.12,0,.23,0,.35,0,.67-.07,1.34-.11,2s-.09,1.47-.14,2.21a1.09,1.09,0,0,1,0,.18c-.05.78-.12,1.56-.18,2.34,0,0,0,0,0,0-.07.78-.14,1.55-.22,2.33,0,.43-.09.85-.14,1.27,0,.14,0,.29-.05.43,0,.42-.09.84-.14,1.26h0c-.2,1.65-.41,3.29-.64,4.91h0l0,.24c0,.19,0,.38-.08.57,0,0,0,0,0,.06l0,.21c0,.26-.07.52-.11.78-.14.94-.29,1.87-.44,2.78-.06.39-.13.79-.2,1.18l-.15.85h0c-.72,4.16-1.55,8.2-2.45,12h0c-1.08,4.63-2.26,9-3.45,12.94-4.12,13.77-8.43,22.85-9.73,22.85-1.65,0-1.61-1.51-2.22-10.11q-.12-1.76-.3-3.93v0c-.29-3.65-.69-8.22-1.3-13.94-.06-.57-.13-1.15-.19-1.74s-.13-1.21-.2-1.83c-.28-2.5-.57-5.52-.87-8.94,0-.16,0-.32,0-.47,0-.52-.09-1-.13-1.57-.36-4.26-.73-9.07-1.09-14.23v0c-.09-1.24-.18-2.5-.26-3.78s-.2-2.87-.29-4.33-.2-3-.3-4.55c-.07-1.12-.15-2.24-.21-3.37-.1-1.58-.2-3.19-.29-4.79h0c0-.59-.07-1.18-.11-1.77q-.25-4.09-.5-8.22c-.26-4.45-.52-8.9-.76-13.26-.1-1.67-.19-3.33-.28-5l0-.6c0-.18,0-.33,0-.42s0-.15,0-.15l0-.37q0-.54-.06-1.08c-.34-6.17-.66-12-.93-17.37l-.06-1.13c-.08-1.5-.16-2.95-.23-4.35,0-.36,0-.72-.05-1.08,0-.66-.06-1.31-.1-1.94l0-.64c-.52-10.13-.83-16.68-.83-16.68l-.65-11.05-.38-6.46c.32.5.65,1,1,1.49s.83,1.18,1.27,1.76c.17.23.34.45.53.68s.42.53.64.79.36.43.55.64l0,0c.24.29.5.59.77.87.43.47.87.94,1.33,1.38s1.17,1.13,1.79,1.66c-.26-.32-.51-.65-.77-1-.13-.17-.25-.35-.38-.53a.1.1,0,0,0,0-.05v0c-.27-.4-.55-.82-.82-1.26s-.42-.68-.62-1c-.37-.63-.73-1.29-1.09-2-.2-.38-.4-.77-.59-1.17s-.37-.76-.55-1.15-.34-.72-.5-1.09h0c-.15-.31-.29-.64-.43-1h0s0,0,0,0h0l.08.06h0l.3.25.47.39.28.24.32.28h0l.35.3.79.7.43.39c.3.27.62.55.94.86l1,1,1.09,1.05.58.58.07.06,1,1.06c.76.79,1.55,1.63,2.35,2.51l.28.31,0,0c1,1.14,2,2.34,3,3.59a.05.05,0,0,1,0,0l.36.45.57.76c.3.41.61.8.94,1.19s.45.55.69.81a2,2,0,0,0,.19.22c.26.29.53.58.8.86s.54.56.81.82l0,0c.33.32.65.63,1,.92l.09.08c.34.31.67.6,1,.88l.25.21q.47.39.93.75c.36.29.72.56,1.08.82s.87.64,1.3.93l.31.21,0,0c.24.16.47.32.7.46l.71.45.68.42,1.11.65.52.29c.67.37,1.24.67,1.7.89l.42.2c.38.19.64.3.74.35h.05Z" />
      <path class="BUNTAI_WALRUS_BODY_BUNTAI_WALRUS_BODY-23_cls-5" d="M219,247.85c0,.21,0,.42,0,.64,0,.89,0,1.86,0,2.9h0l-.51.58a.27.27,0,0,1-.07.08l-.32.35-.65.7-.12.12-.13.13c-.39.4-.79.78-1.18,1.14l-.59.53c-.2.18-.39.35-.59.51,1.45-.84,2.82-1.72,4.13-2.65-.08,4.84-.19,11-.32,17.91,0,.24,0,.49,0,.73-.06,2.72-.12,5.56-.19,8.48,0,.87,0,1.75,0,2.63,0,.18,0,.37,0,.56,0,1.25-.06,2.52-.09,3.8,0,.19,0,.38,0,.57,0,.75,0,1.5,0,2.26,0,.22,0,.44,0,.67s0,.62,0,.93c-.11,4.78-.23,9.66-.36,14.54,0,.19,0,.37,0,.56-.06,2.43-.13,4.86-.2,7.27-.11,3.75-.22,7.46-.34,11.07,0,1.16-.07,2.32-.11,3.46,0,.18,0,.36,0,.54,0,.54,0,1.07,0,1.59q-.06,1.68-.12,3.3c0,.79-.06,1.56-.09,2.33v.06c0,.44,0,.87-.05,1.3-.08,2-.16,4-.25,5.86,0,.1,0,.19,0,.28h0a276.5,276.5,0,0,1-3.62,33.46c-.48,2.84-1,5.58-1.5,8.2,0,.27-.1.54-.16.81-.1.48-.19,1-.29,1.43s-.19.94-.29,1.4c-.19.93-.39,1.84-.59,2.73l0,.13c-2.16,9.77-4.43,17.28-6.06,21,0,0,0,0,0,0-.75,1.69-1.36,2.61-1.78,2.61-.8,0-1.6-.35-2.41-1.69-.11-.19-.24-.41-.36-.66l-.13-.26h0l-.07-.14a.61.61,0,0,1,0-.12l-.25-.6c-.16-.43-.33-.9-.49-1.42l-.12-.34c-.21-.7-.43-1.49-.64-2.38h0s0,0,0,0l-.09-.4c-.06-.24-.11-.49-.17-.75s-.07-.31-.11-.46c-.72-3.3-1.47-7.74-2.25-13.68a2.51,2.51,0,0,1,0-.27c-.05-.36-.1-.72-.14-1.09-.14-1.1-.29-2.25-.43-3.46,0-.3-.07-.61-.11-.93s-.07-.61-.1-.92c-.08-.63-.16-1.27-.23-1.93-.49-4.36-1-10.22-1.54-17-.07-.9-.14-1.8-.21-2.73s-.12-1.57-.18-2.38l0-.44c-.13-1.71-.25-3.46-.37-5.26,0-.33,0-.66-.07-1-.11-1.5-.22-3-.32-4.57l-.15-2.32c-.09-1.26-.17-2.52-.26-3.8,0-.11,0-.23,0-.34,0-.46-.06-.93-.08-1.39-.06-.9-.12-1.78-.17-2.63,0-.36-.05-.72-.07-1.09,0-.2,0-.4,0-.6s0-.52,0-.79l-.06-.95c0-.44-.05-.9-.08-1.37-.06-.75-.09-1.51-.15-2.26v-.08c-.34-5.56-.67-11.18-1-16.68,0-.46-.06-.92-.08-1.37l-.06-1.1,0-.61c0-.61-.08-1.22-.11-1.83s-.07-1.17-.1-1.75c-.29-5.24-.56-10.31-.81-15.05v0c0-.32,0-.64-.05-1v-.07c0-.3,0-.61,0-.9s0-.65-.05-1,0-.64,0-.95-.05-.82-.06-1.22,0-.49,0-.74l-.06-1.09c0-.22,0-.43,0-.64s0-.23,0-.34a.34.34,0,0,1,0-.1c0-.47-.05-.93-.07-1.39s0-1.08-.08-1.61c0-.18,0-.35,0-.53l-.06-1q-.07-1.54-.15-3c0-.63-.06-1.25-.09-1.85-.05-1.23-.11-2.4-.17-3.5,0-.65-.06-1.28-.09-1.88,0-.4,0-.79,0-1.17,0-.72-.05-1.1-.05-1.1l.11,0,.8-.35,1.44-.67.3-.14.85-.42a61.4,61.4,0,0,0,5.91-3.29l.08-.05.14-.09c.41-.26.81-.53,1.21-.81a39,39,0,0,0,4.29-3.33l1-.85.12-.11c.45-.39.92-.78,1.39-1.17l1.41-1.14,1.44-1.11c.48-.37.95-.73,1.43-1.08a.72.72,0,0,1,.15-.11h0l.05,0,.19-.15.19-.13.85-.61.17-.12a3.43,3.43,0,0,1,.33-.24l.32-.22.41-.29.4-.28.31-.21,1-.66.07,0,.06,0,.54-.36.54-.36,2.05-1.32.23-.15.05,0,.13-.09.18-.11.19-.12.19-.11Z" />
      <path class="BUNTAI_WALRUS_BODY_BUNTAI_WALRUS_BODY-23_cls-6" d="M218.39,280c0,.87,0,1.75,0,2.63,0,.18,0,.37,0,.56,0,1.25-.06,2.52-.09,3.8,0,.19,0,.38,0,.57,0,.75,0,1.5,0,2.26,0,.22,0,.44,0,.66h0c0,.31,0,.62,0,.93s0,.51,0,.76a153.49,153.49,0,0,1-16,1.44c-1.94.07-3.88.11-5.82.11h-1.49c-2.42,0-4.68-.11-6.8-.26h-.07v-.07c0-.3,0-.61,0-.9s0-.58,0-.87a.28.28,0,0,0,0-.09c0-.32,0-.64,0-.95s-.05-.82-.06-1.22,0-.49,0-.74l-.06-1.09c0-.33,0-.66-.05-1a.34.34,0,0,1,0-.1c0-.47-.05-.93-.07-1.39s0-1.08-.08-1.61c0-.18,0-.35,0-.53s0-.19,0-.28c0-.43-.05-.85-.06-1.26h0c2.3.2,4.81.31,7.56.34q3.59,0,7.17-.11A143.88,143.88,0,0,0,218.39,280Z" />
      <path class="BUNTAI_WALRUS_BODY_BUNTAI_WALRUS_BODY-23_cls-6" d="M190.85,344c0,.63.09,1.24.13,1.86.1,1.53.2,3.05.3,4.55,0,.32,0,.66.07,1,.1,1.57.21,3.1.31,4.62,1.37.06,2.73.08,4.1.08a134.34,134.34,0,0,0,20-1.5c.05-.5.09-1,.13-1.5q.11-1.14.18-2.28c0-.51.08-1,.11-1.55.08-1.08.15-2.17.2-3.28,0-.32,0-.65.05-1s.06-1,.08-1.46c0-.08,0-.15,0-.23,0-.33,0-.65,0-1A121.19,121.19,0,0,1,190.85,344Z" />
      <path class="BUNTAI_WALRUS_BODY_BUNTAI_WALRUS_BODY-23_cls-6" d="M217.78,306c0,.19,0,.37,0,.56-.06,2.43-.13,4.86-.2,7.27a10.33,10.33,0,0,1-3.32,2.3c-3.57,1.34-9.57-2.84-12.19-7.14-1.37-2.25-1.82-4.52-.54-6.06.18-.22.37-.42.56-.62,3.82-3.92,9.94-4.3,11.74-2.55s1.31,7.41-.45,8.07-3.17-2.2-3.17-2.2.88-2.91-1.3-2.56-4.14,2.62-3.16,4.81,3.79,5.33,6.86,3.72C214.54,310.55,216.35,308.34,217.78,306Z" />
      <path class="BUNTAI_WALRUS_BODY_BUNTAI_WALRUS_BODY-23_cls-6" d="M195.22,367.16c-1.66.89-1.5,6.48.61,8s8.65.21,11.77-4.74-9.23-14.16-14.34-11.42A6.44,6.44,0,0,0,192,360c0,.33,0,.65.07,1,0,.12,0,.23,0,.35a2.64,2.64,0,0,0,0,.28c0,.05,0,.11,0,.16q.12,1.65.24,3.24c0,.48.07,1,.11,1.43,0,.15,0,.29,0,.44a11.45,11.45,0,0,1,3-3.53c2.84-2,6,.75,7.3,2.79s-.39,4.56-2.51,5.17-1.63-2.36-1.63-2.36S196.88,366.26,195.22,367.16Z" />
      <path class="BUNTAI_WALRUS_BODY_BUNTAI_WALRUS_BODY-23_cls-6" d="M192.39,312.32c2.83-2,6,.75,7.29,2.8s-.39,4.56-2.51,5.18-1.62-2.37-1.62-2.37-1.77-2.67-3.43-1.77-1.5,6.49.61,8.06,8.65.21,11.77-4.75-9.22-14.15-14.34-11.42a6.92,6.92,0,0,0-1.39,1c0,.26,0,.53,0,.79.06,1.06.13,2.13.19,3.19v.07s0,.11,0,.15c0,.31,0,.6.05.91s.05.91.07,1.36c0,.22,0,.44,0,.66h0A12.08,12.08,0,0,1,192.39,312.32Z" />
      <path class="BUNTAI_WALRUS_BODY_BUNTAI_WALRUS_BODY-23_cls-6" d="M217.23,324.87c0,1.16-.07,2.32-.11,3.46a1,1,0,0,0,0,.17c0,.12,0,.25,0,.37,0,.54,0,1.06,0,1.59q-.06,1.68-.12,3.3c0,.79-.06,1.56-.09,2.33v.06c0,.44,0,.87-.05,1.3a70.62,70.62,0,0,1-15.11,2c-2.13.06-4.26,0-6.38-.11-1.6-.1-3.19-.26-4.78-.47,0-.15,0-.3,0-.45s0-.36,0-.54,0-.38,0-.58,0-.18,0-.27c-.08-1.37-.17-2.74-.25-4.13v-.08s0,0,0,0c.58-2.11,1.15-4.21,1.73-6.31l5,10.85q1.47-5.49,2.93-11c.67,1.51,1.35,3,2,4.52s1.43,3.21,2.15,4.82a35.22,35.22,0,0,0,4.71-10.48l4.4,9.39Z" />
      <path class="BUNTAI_WALRUS_BODY_BUNTAI_WALRUS_BODY-23_cls-6" d="M203.47,388.82l-4.17-9.34q-1.47,5.47-2.93,11c-.71-1.55-1.43-3.11-2.14-4.67.07.63.14,1.22.21,1.82.11.91.22,1.81.33,2.67s.19,1.48.28,2.19a71.12,71.12,0,0,0,15-.69l0-.12c.4-1.79.79-3.65,1.17-5.56v0c0-.07,0-.13,0-.2s.08-.39.12-.6c-1.08-2.3-2.17-4.61-3.25-6.92A35.19,35.19,0,0,1,203.47,388.82Z" />
      <path class="BUNTAI_WALRUS_BODY_BUNTAI_WALRUS_BODY-23_cls-6" d="M287.36,281.41c0,.85,0,1.72-.06,2.59,0,.2,0,.4,0,.6v.06c0,.51,0,1,0,1.54v.07c0,.72,0,1.44-.05,2.16,0,.35,0,.7,0,1.05q0,1.9-.09,3.84a.76.76,0,0,0,0,.15c-2.19.15-4.52.24-7,.27h-1.48c-2.47,0-4.95-.06-7.42-.19-4.74-.22-9.48-.66-14.18-1.33h-.08c0-.26,0-.51,0-.76,0-.08,0-.15,0-.22l-.09-1.66-.06-1.13c0-.17,0-.33,0-.5v0c0-.06,0-.11,0-.17-.05-.88-.09-1.74-.14-2.59,0-.36,0-.71-.06-1.06s0-.72-.05-1.08c0-.66-.06-1.31-.1-1.94l0-.64c0-.15,0-.3,0-.45l.1,0a140.35,140.35,0,0,0,14.46,1.53q4.56.25,9.12.21C282.65,281.71,285.1,281.61,287.36,281.41Z" />
      <path class="BUNTAI_WALRUS_BODY_BUNTAI_WALRUS_BODY-23_cls-6" d="M285.5,343.94c0,.67-.07,1.34-.11,2s-.09,1.47-.14,2.21a1.09,1.09,0,0,1,0,.18c-.05.67-.1,1.35-.16,2s-.13,1.46-.2,2.19-.15,1.45-.23,2.18c0,.42-.09.84-.14,1.26-1.8.07-3.61.11-5.41.11s-3.67,0-5.5-.12a129.31,129.31,0,0,1-12.89-1.13l-.13,0c-.1-1.42-.2-2.87-.29-4.33l-.09-1.38c-.07-1.05-.14-2.1-.21-3.17,0-.39,0-.79-.07-1.19,0-.07,0-.13,0-.2,0-.65-.09-1.31-.13-2l.13,0A118.53,118.53,0,0,0,273.07,344,119.85,119.85,0,0,0,285.5,343.94Z" />
      <path class="BUNTAI_WALRUS_BODY_BUNTAI_WALRUS_BODY-23_cls-6" d="M271.69,310.52c-2.95,3.68-8,6.76-11.09,5.58a8.32,8.32,0,0,1-2.45-1.53l0,0c-.1-1.67-.19-3.33-.28-5a2.72,2.72,0,0,1,0-.28,3,3,0,0,0,0-.32c0-.18,0-.33,0-.42s0-.15,0-.15l0-.37q0-.54-.06-1.08h0a13.59,13.59,0,0,0,4.55,4.62c3.07,1.61,5.89-1.53,6.86-3.72s-1-4.47-3.16-4.81-1.3,2.56-1.3,2.56-1.4,2.87-3.16,2.2-2.34-6.23-.45-8.07c1.59-1.55,6.57-1.43,10.34,1.35a10.76,10.76,0,0,1,1.95,1.82C274.92,304.8,273.85,307.82,271.69,310.52Z" />
      <path class="BUNTAI_WALRUS_BODY_BUNTAI_WALRUS_BODY-23_cls-6" d="M281.61,359.05c-5.11-2.74-17.47,6.46-14.34,11.42s9.66,6.33,11.77,4.74,2.27-7.16.61-8-3.42,1.76-3.42,1.76.48,3-1.63,2.36-3.76-3.12-2.5-5.17,4.46-4.79,7.29-2.79a12.39,12.39,0,0,1,3.44,4.26l.15-.85c.07-.39.14-.79.2-1.18.15-.93.3-1.85.44-2.79,0-.19.06-.38.08-.58s0-.27.06-.41,0,0,0,0c0-.2.05-.38.08-.57l0-.24A8.69,8.69,0,0,0,281.61,359.05Z" />
      <path class="BUNTAI_WALRUS_BODY_BUNTAI_WALRUS_BODY-23_cls-6" d="M270.37,319.47c3.12,5,9.66,6.34,11.77,4.75s2.27-7.17.61-8.06-3.42,1.77-3.42,1.77.48,3-1.63,2.37-3.76-3.13-2.51-5.18,4.46-4.79,7.3-2.8a14,14,0,0,1,4,5.31c0-.39,0-.73,0-1.13l0-1c0-.53,0-1.06.05-1.59v0c0-.16,0-.32,0-.47s0-.27,0-.41l.09-3.37a8.36,8.36,0,0,0-2-1.55C279.6,305.32,267.24,314.51,270.37,319.47Z" />
      <path class="BUNTAI_WALRUS_BODY_BUNTAI_WALRUS_BODY-23_cls-6" d="M285.85,335.47c0,.17,0,.34,0,.51,0,.92-.07,1.83-.11,2.72-2,.31-4.1.54-6.17.67-2.23.14-4.47.18-6.7.1a71.14,71.14,0,0,1-13.24-1.65l-.13,0c0-.59-.07-1.18-.11-1.77q-.25-4.09-.5-8.22c0,.1.08.19.13.29q1.38,3.29,2.79,6.57l4.41-9.39a34.94,34.94,0,0,0,4.7,10.48l1.61-3.6c.85-1.92,1.71-3.83,2.56-5.74q1.47,5.47,2.93,11l5-10.85q1.31,4.77,2.62,9.55Z" />
      <path class="BUNTAI_WALRUS_BODY_BUNTAI_WALRUS_BODY-23_cls-6" d="M271.41,388.82a35.22,35.22,0,0,1-4.71-10.48c-1.17,2.48-2.33,5-3.5,7.46l0,.28,0,.26c.2,1.84.38,3.57.54,5.17,0,0,0,.07,0,.1a70.21,70.21,0,0,0,13.11,1c.16-.56.32-1.11.49-1.68.21-.73.42-1.46.62-2.21-.81-3.07-1.64-6.15-2.45-9.2Z" />
      <path class="BUNTAI_WALRUS_BODY_BUNTAI_WALRUS_BODY-23_cls-2" d="M251.21,255.26l-.1.05a21.18,21.18,0,0,1-6.9,2.25h-.06a21.29,21.29,0,0,1-13.53-1.3,24,24,0,0,1-8.39-4.86l-.47-.34.08,0-.22-.2s0,0,0,0c.32-.24.63-.5.93-.77l.94-.82c.31-.27.61-.55.91-.83s.59-.56.88-.85c.87-.85,1.7-1.73,2.49-2.62.27-.29.52-.59.77-.89s.63-.75.93-1.13q.28-.34.54-.69c.24-.3.46-.59.68-.89s.44-.59.65-.89c.67-.95,1.31-1.91,1.91-2.88.2-.31.39-.63.58-.95s.37-.63.55-.94c.32-.57.64-1.14.94-1.71,0-.05,0-.09.07-.14l0-.06c.17-.31.34-.63.49-.95.48-.95.93-1.9,1.34-2.85.29-.64.56-1.27.8-1.9.13-.31.25-.62.37-.93s.31-.78.44-1.17.19-.5.27-.75c.32-.91.62-1.8.88-2.68.14-.45.27-.9.4-1.34s.22-.77.32-1.15a.83.83,0,0,0,0-.15c.16-.59.3-1.17.44-1.73.27-1.13.51-2.22.71-3.27a.08.08,0,0,1,0,0c.05-.26.1-.51.14-.76s.09-.49.13-.73c.07-.41.14-.81.2-1.2,0-.11,0-.22.05-.33s.07-.43.09-.64.07-.46.1-.68.06-.45.08-.66q.13-1,.21-1.86s0,0,0,0a.41.41,0,0,1,0-.11.08.08,0,0,1,0-.07c0-.31.06-.61.08-.9s.06-.68.08-1,0-.63,0-.91,0-.27,0-.39a2.72,2.72,0,0,0,0-.28h0a.22.22,0,0,0,0-.08v-.14a.07.07,0,0,1,0-.05v-.16c0-.2,0-.38,0-.54v-.06c0-.19,0-.35,0-.48v.37a1.85,1.85,0,0,0,0,.23c0,.24,0,.53,0,.85v.12c0,.17,0,.35,0,.55s0,.58,0,.9q0,1,.12,2.22c0,.46.07.95.11,1.46.08,1,.18,2.06.31,3.19,0,.43.09.86.15,1.31,0,.14,0,.27.05.41,0,.3.07.6.12.91.23,1.73.52,3.58.88,5.49.1.54.2,1.09.32,1.63s.19.94.3,1.41a3.38,3.38,0,0,0,.09.41c.08.37.16.74.26,1.12s.2.87.32,1.31.22.88.35,1.33a78.16,78.16,0,0,0,2.45,7.62c.13.34.27.69.41,1a1.88,1.88,0,0,0,.12.3c.24.6.49,1.2.76,1.79q.28.66.6,1.32l.08.16c.2.46.43.92.66,1.37s.4.79.61,1.18c0,.08.08.17.13.25.59,1.09,1.21,2.17,1.88,3.22h0l.38,6.46-.38.34v.28A13,13,0,0,1,251.21,255.26Z" />
      <path class="BUNTAI_WALRUS_BODY_BUNTAI_WALRUS_BODY-23_cls-7" d="M182.56,271.08c.72-.28,1.51-.58,2.34-.92C184.07,270.5,183.28,270.81,182.56,271.08Z" />
      <path class="BUNTAI_WALRUS_BODY_BUNTAI_WALRUS_BODY-23_cls-2" d="M305.53,209.43c-.09-.33-.17-.66-.26-1,.06.31.12.63.17,1h0Zm.31,0a.57.57,0,0,1-.31,0c.27,1.06.56,2.18.85,3.37ZM185.3,144.92c-.19-.16-.38-.3-.56-.43l-.19-.13-.36-.26-.67-.46c-.59-.39-1.15-.72-1.69-1l-.29-.15-.14-.08-.14-.07h-.06a9.53,9.53,0,0,0-4.15-1.08h-.84l-.12,0-.16,0-.14,0a.8.8,0,0,0-.21.05l-.05,0-.09,0h0l-.16,0a.17.17,0,0,0-.1,0l-.08,0a.49.49,0,0,0-.17.06h0a2.09,2.09,0,0,0-.35.13L174,142l-.44.23-.42.24h0l-.21.12-.21.13h0c-.14.08-.27.17-.4.26l-1.16.79c-.19.12-.38.25-.58.36s-.38.22-.57.32-.54.26-.8.37-.51.21-.76.29a.16.16,0,0,1-.09,0,4,4,0,0,1-.45.15l-.36.1-.49.12-.62.12-.57.08a7.58,7.58,0,0,1-1.22,0h-.25l-.21,0-.17,0h0l-.22,0,0,.06.07.09.23.27.26.31.52.57.2.22a2.4,2.4,0,0,1,.21.23l.23.22h0l.25.24.52.49h0l0,0,.37.33.38.33,0,0,.25.21,0,0,0,0,.05,0h0l.1.08.52.4h0l.68.47a14.56,14.56,0,0,0,1.38.8l.25.12.19.09.38.16.09,0,0,0h0l.63.22a8.06,8.06,0,0,0,1.19.27,7.5,7.5,0,0,0,2.27,0,8.8,8.8,0,0,0,1.07-.24,10.64,10.64,0,0,0,2-.78l.89-.48.42-.25h0l.41-.25.4-.25.76-.48.36-.22c1.77-1,3.36-2.47,5.4-2.9C186.34,145.74,185.81,145.31,185.3,144.92Zm109.85-.48c-.13-.1-.26-.2-.39-.32s-.27-.23-.4-.36l-.8-.79a3.45,3.45,0,0,0-.28-.26h0l-.24-.22,0,0h0l-.29-.24-.3-.23-.3-.2h0a1.19,1.19,0,0,0-.22-.12.76.76,0,0,0-.18-.09l-.26-.11h0l-.24-.08s0,0,0,0h-.07a1.55,1.55,0,0,0-.23-.05l-.21,0h0a.74.74,0,0,0-.21,0H290l-.19,0h-.1l-.14,0h0a.2.2,0,0,0-.1,0l-.13,0-.17,0-.31.11-.32.14-.34.17-.34.2h0l-.37.25h0l-.11.07-.14.11-.05,0-.3.23-.08.06,0,0-.28.24a1.62,1.62,0,0,0-.2.18l-.59.57a3,3,0,0,0-.31.31l-.14.15-.05.05c-.51.54-1,1.15-1.61,1.86a3.38,3.38,0,0,1,.44.18l.24.12.18.11a5.64,5.64,0,0,1,.81.6h0l.39.35.57.55.56.53c.16.16.33.31.49.45l.25.22.25.23h0a2.91,2.91,0,0,1,.27.24l.27.25.29.25h0l.29.25.3.24h0l.11.08.06.05h0l.13.1a6.24,6.24,0,0,0,1.34.78,4.91,4.91,0,0,0,.74.24,3.52,3.52,0,0,0,1.55,0,3.93,3.93,0,0,0,.82-.27l.44-.22,0,0,.06,0,.26-.16.13-.09.06,0,.07,0h0c.24-.18.48-.38.71-.59l.27-.25.05,0,0,0,.3-.31a.76.76,0,0,1,.09-.09c.29-.31.56-.63.82-.95l0-.05,0,0,.29-.37.25-.34h0l.17-.24h0a.86.86,0,0,0,.07-.1c.09-.12.17-.25.25-.37l.06-.07.09-.15.4-.63.07-.11.12-.21.13-.23.19-.34C299.25,145.71,297.51,146.17,295.15,144.44ZM155.77,196l.21-.13.13-.08.26-.16c.26-.85.55-1.75.86-2.63ZM299,130.05c-.06-.11-.12-.23-.2-.35s-.14-.24-.22-.37a13.58,13.58,0,0,0-.79-1.19c-.09-.13-.19-.27-.3-.41-.29-.41-.63-.83-1-1.27l-.37-.45-.77-.9c-.27-.3-.54-.61-.83-.92l-.88-.93c-.3-.31-.6-.63-.91-.94L291.41,121c-1.4-1.36-2.85-2.7-4.29-4-.41-.37-.83-.73-1.24-1.08-.18-.46-.36-.9-.55-1.34s-.37-.86-.57-1.28-.39-.82-.6-1.22-.42-.78-.63-1.16-.5-.86-.75-1.27-.59-.9-.88-1.33-.5-.69-.75-1-.49-.62-.74-.92l-.21-.25c-.27-.31-.54-.6-.81-.89s-.59-.62-.9-.91a23.11,23.11,0,0,0-2.67-2.22l-.58-.41c-.56-.39-1.13-.75-1.71-1.09-.3-.18-.61-.35-.92-.51s-.71-.37-1.08-.55-.84-.41-1.28-.59l-.66-.28-1.18-.46-.4-.14-.57-.2-.57-.19c-.38-.13-.76-.25-1.15-.36s-.91-.27-1.38-.39a2.36,2.36,0,0,0-.38-.1q-.7-.19-1.44-.36l-.73-.17-.74-.16c-1-.21-2.05-.41-3.11-.6l-2.69-.45-.53-.08c-1.64-.25-3.32-.48-5-.72l-.5-.07L247.61,94l-.48-.06h0l-.92-.13-1.79-.25c-.44-.15-.88-.29-1.31-.41s-.81-.24-1.21-.35l-1-.28c-.53-.14-1.05-.26-1.58-.38-.69-.15-1.38-.28-2.07-.41l-1-.17-1-.13c-.59-.08-1.17-.15-1.76-.2l-1.27-.11-.74,0q-.63,0-1.26-.06c-1.14,0-2.27,0-3.39,0h-.08q-.73,0-1.47.06c-.42,0-.85,0-1.27.08l-1.27.11-1.32.14-1,.12c-.71.09-1.41.19-2.11.31l-1,.19c-1.7.3-3.37.67-5,1.09-.8.21-1.6.43-2.38.66-1.32.38-2.6.79-3.86,1.23-.84.28-1.67.58-2.48.89-3.25,1.22-6.29,2.56-9.05,3.89l-1.53.74-1.47.73-2.76,1.42c-.38.2-.75.41-1.12.62s-.59.35-.88.53-.75.47-1.11.72-.72.49-1.06.75l-.92.72-.87.72a29.51,29.51,0,0,0-2.64,2.59c-.23.25-.44.49-.65.74l-.36.43c-.24.29-.47.57-.69.86a0,0,0,0,1,0,0s0,0,0,0l0,0c-.26.34-.51.67-.73,1s-.43.61-.62.92a30.47,30.47,0,0,0-1.95,3.38c-.26.52-.49,1-.68,1.45-.1.22-.19.44-.27.64l-.18.45c-.17.43-.3.8-.4,1.1,0,.14-.08.26-.12.37-.1.33-.16.53-.17.58h0c-11.45,7.06-16.83,14.25-17.59,25.8,0,.73-.08,1.43-.1,2.1a43.32,43.32,0,0,0,.26,6.93c.05.45.12.89.18,1.31l.21,1.25.15.81c0,.07,0,.15,0,.22s0,.14,0,.21,0,0,0,0a.17.17,0,0,1,0,.07h0a.43.43,0,0,1,0,.11,63.41,63.41,0,0,0,1.39,7,.73.73,0,0,0,0,.08c.17,1.2.31,2.49.39,3.95,0,.35,0,.71.05,1.08q0,1.08,0,2.28c0,.4,0,.79,0,1.17v6.1c0,2.64.08,4.9.23,6.9,0,.3,0,.59.06.87a5,5,0,0,1,1.24-1.75l.6-.41.83-.52c.53-.33,1.17-.72,1.9-1.14l.31-.18v0c3.62-2.12,9.11-5.17,14.3-7.87a19.58,19.58,0,0,1,5.52-1.83l-.23-.17c-.65-.46-1.25-.92-1.77-1.33-.33-.26-.63-.51-.89-.73s-.35-.28-.49-.41-.25-.21-.35-.3h0v0l0,0h0l0,0-.23-.21s3.44.52,10.78-.24a157.14,157.14,0,0,0,17-3.08l-4.25-2.56.16-.07a2.25,2.25,0,0,1,.33-.1,5.49,5.49,0,0,1,.63-.12l.22,0,.31,0h.63l.36,0a5.24,5.24,0,0,1,.53,0,1.55,1.55,0,0,1,.29,0,3.54,3.54,0,0,1,.45.08l.2,0,.65.15a1,1,0,0,1,.23.06l.35.1a14.42,14.42,0,0,1,1.47.51c2.84,1.13,9.33,1.66,13.89,1.89,0,0-1.72-4.26-2.15-5.47s.52-2.63,2.79-5.17,6.38-1.13,9.7,2.36,9.44,7.08,9.44,7.08a43.24,43.24,0,0,0,7.36-7.08c2.59-3.49,5.79-4.89,7.56-2.36s2.52,3.95,2.18,5.17c-.29,1-1.33,4.36-1.6,5.25,2.65-.28,5.57-.8,7-1.67a8.94,8.94,0,0,1,1-.5l.17-.07a4.68,4.68,0,0,1,.67-.25l.26-.07a3.8,3.8,0,0,1,.74-.14,1.83,1.83,0,0,1,.32,0h.3l.22,0,.33.06h.07l.08,0a1.45,1.45,0,0,1,.34.14l.1.07-2.84,2.56a74.87,74.87,0,0,0,11.38,3.08c4.91.76,7.21.24,7.21.24l-.15.2a.15.15,0,0,0,0,.06l-.07.08-.16.2-.15.19c-.11.15-.24.31-.38.48l0,0c-.24.3-.52.63-.82,1l-.7.78-.06.06-.16.18a10.52,10.52,0,0,1,3.69,1.83,156.12,156.12,0,0,1,12,10.14,5.35,5.35,0,0,1,.83,1.75c.13.38.26.81.39,1.26a.29.29,0,0,1,0,.09l0,.07c0,.14.07.28.11.42s.09.34.13.51l.12.44h0l.39,1.7c0,.18.08.36.11.54h0c0,.18.08.35.11.53v0c0,.17.08.34.11.51s0,.16.05.24c.12.6.23,1.18.33,1.69h0l.09.14h0c.17.27.34.54.49.81l-.52-1.56c0-.46,0-.93-.05-1.4l.34.32-.37-1.1q-.07-2.25-.12-4.62v0c0-1.11,0-2.24-.05-3.39,0-.17,0-.34,0-.51,0-.64,0-1.28,0-1.92v-1.06c0-1.11,0-2.22,0-3.35,0-.6,0-1.2,0-1.8,0-5.17.19-10.55.45-16l.17-3,.18-3.22c0-.55.06-1.1.1-1.65C303.59,138.44,302.31,136.23,299,130.05Z" />
      <path class="BUNTAI_WALRUS_BODY_BUNTAI_WALRUS_BODY-23_cls-7" d="M283.5,146.21l-.11.19.15-.18Z" />
      <path class="BUNTAI_WALRUS_BODY_BUNTAI_WALRUS_BODY-23_cls-7" d="M156.79,161.75c0,.11.05.23.07.34h0C156.85,162,156.82,161.87,156.79,161.75Z" />
      <path class="BUNTAI_WALRUS_BODY_BUNTAI_WALRUS_BODY-23_cls-7" d="M187,146.21h-.06l.21.18Z" />
      <path class="BUNTAI_WALRUS_BODY_BUNTAI_WALRUS_BODY-23_cls-8" d="M243.28,168.19a43.24,43.24,0,0,0,7.36-7.08c2.59-3.49,5.79-4.89,7.56-2.36s2.52,3.95,2.18,5.17c-.29,1-1.33,4.36-1.6,5.25-2.94.34-5.56.4-5.56.4l3.3-5.65a15.71,15.71,0,0,0-5.83,3.44c-2.14,2.27-7.41,3.72-7.41,3.72s-7.87-1.45-11.07-3.72-8.71-3.44-8.71-3.44l4.92,5.65s-2.09,0-4.92-.18c0,0-1.72-4.26-2.15-5.47s.52-2.63,2.79-5.17,6.38-1.13,9.7,2.36S243.28,168.19,243.28,168.19Z" />
      <path class="BUNTAI_WALRUS_BODY_BUNTAI_WALRUS_BODY-23_cls-9" d="M313.87,266.72c-.16-.16-.32-.33-.47-.5s-.31-.35-.46-.53-.19-.23-.28-.35l-.36-.47a32.87,32.87,0,0,1-3.44-6.22l-.29-.68c-.17-.41-.33-.8-.48-1.18h0l0-.08c-.09,1.84-.19,3.85-.32,5.93,0,.38,0,.77-.07,1.16-.16,2.5-.35,5.07-.57,7.54,0,.46-.08.92-.13,1.38-.16,1.7-.34,3.34-.53,4.87h0c0,.24-.07.48-.1.72-.07.53-.14,1-.22,1.54l-.18,1.1q-.09.51-.18,1c-.08.43-.17.84-.26,1.23,0,.19-.08.38-.13.56.15-4.1.26-9.61.16-15.43v0c0-.22,0-.45,0-.68,0-.95-.05-1.91-.08-2.86s-.07-1.91-.12-2.87c-.14,2.25-.32,4.22-.32,4.22a.32.32,0,0,1,0,.07s0,.11,0,.2,0,.32-.06.56,0,.31-.06.49c-.07.49-.15,1.1-.25,1.81-.07.48-.15,1-.23,1.57-.16,1-.34,2.13-.56,3.29-.07.4-.15.79-.23,1.2-.15.74-.31,1.49-.48,2.24-.1.43-.2.85-.31,1.26s-.21.82-.33,1.22-.23.78-.35,1.16h0c-.09.31-.19.61-.29.89,0,.12-.09.24-.14.36h0v0s0,0,0,0h0a1.22,1.22,0,0,0-.07.17h0a42.65,42.65,0,0,1-.23,5.76h0c0,.19-.05.36-.07.52s0,.13,0,.18c-.07.39-.13.68-.18.89l0,.1c0,.06,0,.11-.05.16s-.08.23-.08.23-.06-.2-.18-.56c-.05-.15-.1-.32-.17-.52l-.11-.31c-.06-.19-.14-.41-.23-.64-.21-.57-.48-1.26-.8-2-.06-.15-.12-.31-.2-.47-.35-.82-.76-1.73-1.24-2.69l-.35-.72v0c-.36-.69-.74-1.41-1.16-2.15l-.52-.89c-.14-.25-.29-.49-.44-.74,0-.08-.09-.15-.14-.23l0,0c-.26-.43-.54-.86-.82-1.29l-4.94-3L287.53,273l-.48-.29H287c-.17-.07-.74-.33-1.6-.77l-.19-.1-.14-.07-.37-.2-.56-.3-.52-.29-1.11-.65c-.23-.13-.45-.27-.68-.42l-.5-.31-.91-.6,0,0-.31-.21-1.3-.93c-.36-.26-.72-.53-1.08-.82s-.62-.49-.93-.75l-.25-.21-.5-.43c-.81-.71-1.62-1.47-2.41-2.29l-.36-.38c-.33-.36-.66-.72-1-1.1-.12-.13-.23-.27-.34-.41-.33-.39-.64-.78-.94-1.19l-.57-.76-.31-.38a.18.18,0,0,0-.05-.07.05.05,0,0,0,0,0c-1-1.25-2-2.45-3-3.59l0,0-.28-.31c-.88-1-1.76-1.91-2.62-2.78-.09-.09-.17-.19-.26-.27l-.51-.52-.07-.06-.58-.58-1.09-1.05-1-1c-.33-.31-.64-.6-.94-.86l-.43-.39-.79-.7-.35-.3h0l-.32-.27-.28-.24c-.18-.16-.34-.29-.47-.39l-.17-.15-.13-.1h0l-.08-.06h0s0,0,0,0h0c.14.32.28.65.43,1h0c.16.37.33.73.5,1.09.56,1.2,1.13,2.35,1.73,3.42l.5.88c.2.35.41.7.62,1s.55.86.82,1.26v0l0,0c.2.3.41.59.62.86s.36.48.54.7c-.36-.31-.72-.63-1.06-1-.8-.74-1.55-1.51-2.27-2.31q-.22-.24-.42-.48a.67.67,0,0,1-.14-.16l0,0h0q-.43-.48-.84-1c-.09-.1-.17-.21-.26-.32-.4-.5-.78-1-1.15-1.51l-.09-.12c-.22-.31-.44-.61-.64-.92-.34-.49-.67-1-1-1.49h0c-.67-1-1.29-2.13-1.88-3.22-.05-.08-.09-.17-.13-.25-.21-.39-.42-.78-.61-1.18-.08-.17-.17-.33-.25-.5l-.24-.51s0,0,0,0a1.11,1.11,0,0,1-.13-.27,2,2,0,0,0-.1-.21q-.31-.66-.6-1.32c-.26-.6-.51-1.19-.76-1.79a1.88,1.88,0,0,1-.12-.3c-.11-.27-.22-.55-.32-.82-.26-.65-.49-1.3-.72-1.94-.08-.21-.15-.43-.22-.64-.14-.4-.27-.8-.4-1.2-.07-.21-.14-.42-.2-.63-.16-.5-.31-1-.45-1.49a2.71,2.71,0,0,1-.13-.44c-.09-.28-.16-.56-.24-.84s-.13-.44-.18-.66c-.13-.45-.24-.89-.35-1.33-.06-.22-.11-.45-.17-.66v0l-.15-.63c-.1-.38-.18-.75-.26-1.12a1.94,1.94,0,0,1-.05-.2s0,0,0,0c-.12-.54-.23-1-.33-1.58s-.22-1.09-.32-1.63c-.36-1.91-.65-3.76-.88-5.49-.05-.31-.09-.61-.12-.91,0-.14,0-.27-.05-.41-.06-.45-.11-.88-.15-1.31q-.06-.42-.09-.84c0-.39-.08-.78-.12-1.15s-.07-.81-.1-1.2-.07-1-.11-1.46c0-.07,0-.14,0-.2,0-.34,0-.66-.06-1s0-.72-.05-1.05,0-.62,0-.9,0-.38,0-.55v-.45c0-.1,0-.18,0-.27a2.18,2.18,0,0,1,0-.25,1.85,1.85,0,0,1,0-.23.41.41,0,0,1,0,.11v.06c0,.16,0,.35,0,.54V204a.07.07,0,0,0,0,.05,1.62,1.62,0,0,1,0,.22h0a2.72,2.72,0,0,1,0,.28c0,.13,0,.26,0,.39,0,.28,0,.58,0,.91s-.05.65-.08,1,0,.59-.08.9c0,0,0,0,0,0a0,0,0,0,0,0,0v.06a.15.15,0,0,0,0,.07s0,0,0,0q-.08.87-.21,1.86c0,.21,0,.43-.08.66s-.06.45-.1.68l-.09.64c0,.11,0,.22-.05.33-.06.39-.13.79-.2,1.2,0,.24-.08.48-.13.73s-.09.5-.14.76a.08.08,0,0,0,0,0c-.2,1-.44,2.14-.71,3.27-.14.56-.28,1.14-.44,1.73,0,0,0,.1,0,.15-.07.23-.13.47-.2.7l-.12.45c-.13.44-.26.89-.4,1.34s-.23.75-.36,1.13-.34,1-.52,1.55l-.27.75c-.14.39-.29.78-.44,1.17s-.24.62-.37.93c-.25.63-.52,1.26-.8,1.9-.41.95-.86,1.9-1.34,2.85-.16.32-.32.64-.49.95l0,.06c0,.05-.05.09-.07.14-.3.57-.62,1.14-.94,1.71l-.55.94c-.19.32-.38.64-.58.95-.6,1-1.24,1.93-1.91,2.88-.22.3-.43.6-.65.89s-.45.6-.68.89l-.54.69c-.3.38-.61.75-.93,1.13s-.51.6-.77.89c-.79.89-1.62,1.77-2.49,2.62l-.88.85c-.3.28-.6.56-.91.83l-.94.82-.93.77s0,0,0,0c-.87.71-1.77,1.4-2.71,2.06-1.31.93-2.68,1.81-4.13,2.65.2-.16.39-.33.59-.51l.59-.53c.39-.36.79-.74,1.18-1.14l.13-.13.12-.12.65-.7c.11-.11.21-.23.32-.35a.27.27,0,0,0,.07-.08l.51-.58h0c.36-.42.71-.84,1.06-1.28s.7-.89,1-1.35.69-.92,1-1.4.6-.85.89-1.29a1.63,1.63,0,0,1,.11-.17l.43-.66s-1.78,1-4.5,2.6l-1.78,1.09h0l-.19.11-.19.12-.18.11-.13.09-.05,0-.23.14h0a.09.09,0,0,0-.06,0c-.64.4-1.3.83-2,1.28h0l-.54.36-.54.35h0l-.06,0-.07,0-1,.65h0l-.31.21-.4.28-.41.28h0l-.32.22a3.43,3.43,0,0,0-.33.24l-.17.12-.85.61-.19.13-.19.15-.05,0,0,0h0a.72.72,0,0,0-.15.11c-.48.35-1,.71-1.43,1.08l-1.44,1.11c-.47.37-1,.75-1.41,1.14s-.94.78-1.39,1.17l-.12.11-1,.85a39,39,0,0,1-4.29,3.33c-.4.28-.8.55-1.21.81l-.14.09-.08.05a61.4,61.4,0,0,1-5.91,3.29l-.85.42-.3.14-1.44.67-.68.29-.12.06-.11,0-.18.07h0l-1.64.68-.61.25-1.18.46-.55.21c-1.44.53-2.63.94-3.45,1.2l-.4.13-.32.1-.07,0-.14,0-.27.08h-.06l-1.35.54-.28.12h0l-9.56,3.86-.09.1,0,0c-.56.57-1.09,1.14-1.59,1.69l-.5.56-.77.9-.58.7c-.42.52-.82,1-1.19,1.52l-.25.33-.52.72-.69,1c-.23.33-.43.64-.63.94v0a36,36,0,0,0-2.7,4.81l-.05-.09a.16.16,0,0,1,0-.06s0,0,0,0a4.09,4.09,0,0,1-.22-.53c0-.11-.08-.25-.12-.4a13.11,13.11,0,0,1-.39-2.06s0,0,0,0v0h0a.31.31,0,0,0,0-.1l0-.17c0-.15,0-.3,0-.46s0-.31,0-.48l0-.48a2.53,2.53,0,0,1,0-.28c0-.18,0-.37,0-.57s0-.4,0-.61c0-.46,0-1,0-1.48h0c-.13-.23-.25-.46-.37-.7l0,0,0-.07c-.09-.18-.28-.56-.54-1.1-.07-.18-.15-.36-.23-.54-.18-.43-.36-.87-.53-1.32-.34-.9-.66-1.82-.95-2.74-.12-.37-.23-.75-.34-1.12s-.21-.74-.31-1.11a4.67,4.67,0,0,1-.14-.5c-.12-.44-.23-.88-.34-1.3-.37-1.48-.65-2.82-.86-3.85-.05-.22-.09-.43-.12-.62a.5.5,0,0,1,0-.12,2,2,0,0,1-.06-.32c0-.14-.05-.26-.07-.37a2.4,2.4,0,0,1,0-.24l0-.15c0-.1,0-.17,0-.23a1.13,1.13,0,0,0,0-.12s-.27-2-.48-4.22c0,.56-.08,1.13-.11,1.7l-.09,1.69v0a1.48,1.48,0,0,0,0,.21c0,.05,0,.1,0,.15s0,.35,0,.53c0,.95-.07,1.9-.09,2.84-.13,5.55,0,10.78.24,14.72a33.83,33.83,0,0,1-1.21-4.29h0v0a.41.41,0,0,0,0-.07.35.35,0,0,0,0-.13s0-.08,0-.12c-.36-1.69-.69-3.57-1-5.54-.08-.52-.15-1-.22-1.57l-.21-1.58c-.14-1.09-.26-2.18-.38-3.28a.19.19,0,0,1,0-.08s0-.08,0-.13a2.89,2.89,0,0,0,0-.29c-.06-.55-.11-1.1-.17-1.65l-.15-1.64c0-.47-.09-.93-.13-1.39-.06-.61-.11-1.21-.15-1.81-.08-.85-.14-1.68-.2-2.47,0-.33-.05-.65-.07-1a36.66,36.66,0,0,1-5.09,6.94,21.49,21.49,0,0,1-3.6,3.08,18.59,18.59,0,0,0,3-4.72h0q.31-.69.6-1.41c.28-.73.54-1.47.77-2.24.07-.21.14-.44.2-.66a.83.83,0,0,0,0-.15c.1-.32.19-.65.27-1s.13-.52.19-.78c.15-.62.29-1.25.41-1.88s.25-1.27.35-1.91c.06-.36.11-.71.16-1.07s.13-.92.19-1.39c0-.17,0-.34.07-.51s0-.12,0-.18a.49.49,0,0,1,0-.12c.12-1.08.22-2.16.29-3.22,0-.4.06-.8.08-1.2s0-.95.07-1.41q0-.25,0-.48c0-.05,0-.1,0-.16s0-.39,0-.58l0-.91c0-1,0-1.93,0-2.81,0-2.07,0-3.82-.06-5.06a25.43,25.43,0,0,1,3.9-13.48c.1-.74.21-1.5.34-2.27.09-.57.19-1.14.3-1.72s.26-1.39.4-2.09.3-1.4.46-2.1l.42-1.75a63,63,0,0,1,1.92-6.29h0c.18-.46.35-.91.53-1.34a14,14,0,0,1,3-4.18h0q.13-.48.3-1c.09-.33.2-.68.31-1,.26-.85.55-1.75.86-2.63l0,0c.3-.86.62-1.7.95-2.44h0c.14-.31.27-.6.41-.87a5,5,0,0,1,1.24-1.75l.6-.41.83-.52c.53-.33,1.17-.72,1.9-1.14l.31-.19h0c3.62-2.12,9.11-5.17,14.3-7.87a19.58,19.58,0,0,1,5.52-1.83l-.23-.17c-.65-.46-1.25-.92-1.77-1.33-.33-.26-.63-.51-.89-.73l-.49-.41c-.14-.11-.25-.21-.35-.3h0l0-.05h0l0,0-.23-.21s3.44.52,10.78-.24a157.14,157.14,0,0,0,17-3.08l-4.25-2.56h0l.09,0h0a2.25,2.25,0,0,1,.33-.1,5.49,5.49,0,0,1,.63-.12l.22,0,.31,0h.63l.36,0a5.24,5.24,0,0,1,.53,0l.29,0a3.54,3.54,0,0,1,.45.08l.2,0,.65.15a1,1,0,0,1,.23.06l.35.1a14.42,14.42,0,0,1,1.47.51c2.84,1.13,9.33,1.66,13.89,1.89,2.83.14,4.92.18,4.92.18l-4.92-5.65s5.51,1.16,8.71,3.44,11.07,3.72,11.07,3.72,5.27-1.45,7.41-3.72a15.71,15.71,0,0,1,5.83-3.44l-3.3,5.65s2.62-.06,5.56-.4c2.65-.28,5.57-.8,7-1.67a8.94,8.94,0,0,1,1-.5l.17-.07a4.68,4.68,0,0,1,.67-.25l.26-.07a3.8,3.8,0,0,1,.74-.14,1.83,1.83,0,0,1,.32,0h.1a4.83,4.83,0,0,1,.59,0h0l.19,0,.08,0a1.45,1.45,0,0,1,.34.14l.11.06h0l-2.84,2.56a74.87,74.87,0,0,0,11.38,3.08c4.91.76,7.21.24,7.21.24l-.15.2a.15.15,0,0,0,0,.06h0a.18.18,0,0,1,0,.07l-.16.2-.15.19c-.11.15-.24.31-.38.48l0,0c-.24.3-.52.63-.82,1l-.7.78-.06.06-.16.18a10.52,10.52,0,0,1,3.69,1.83,156.12,156.12,0,0,1,12,10.14,5.35,5.35,0,0,1,.83,1.75c.13.38.26.81.39,1.26a1,1,0,0,0,.05.16c0,.14.07.28.11.42s.09.34.13.51l.12.44h0l.39,1.7c0,.18.08.36.11.54l.12.54v0c0,.17.08.34.11.51s0,.16.05.24c.12.6.23,1.18.33,1.69h0l.09.14h0c.17.27.34.54.49.81v0a13.49,13.49,0,0,1,.94,1.91c.07.16.13.33.19.49s.07.2.1.3.11.33.16.5c.13.48.27,1,.39,1.5l.12.48c.08.36.17.73.25,1.1l.24,1.13c.08.38.16.77.23,1.17s.15.78.22,1.18c0,0,0,0,0,.06.06.31.12.63.17,1h0c.19,1.1.37,2.21.52,3.32.07.49.14,1,.2,1.46,0,.21.06.41.08.61l.06.5c0,.29.07.57.1.85l0,.24h0l.12,1.06c.07.66.13,1.31.19,1.94a35.42,35.42,0,0,1,2.61,13.48c0,.74,0,1.65,0,2.71s0,2.27,0,3.58c0,.28,0,.57,0,.86,0,.58,0,1.18,0,1.79,0,1.22.08,2.51.14,3.82a.49.49,0,0,0,0,.12v0c.07,1.4.17,2.84.29,4.28.09,1,.19,1.94.3,2.9.06.48.12,1,.19,1.44s.13,1,.21,1.42.15.93.24,1.39.18,1,.29,1.47.21.95.33,1.42.19.74.29,1.1l.18.62c.06.21.12.41.19.61s.22.67.34,1,.22.6.34.89A17.28,17.28,0,0,0,313.87,266.72Z" />
      <path class="BUNTAI_WALRUS_BODY_BUNTAI_WALRUS_BODY-23_cls-10" d="M295.16,144.44c-2.47-1.79-4.51-7.09-11.61,1.79,1.39.44,2.49,1.86,3.7,2.9,1.61,1.39,3.74,4,6.68,2.68s5.35-5.85,5.5-6.14C299.26,145.71,297.52,146.17,295.16,144.44Z" />
      <path class="BUNTAI_WALRUS_BODY_BUNTAI_WALRUS_BODY-23_cls-10" d="M170,144.44a10.35,10.35,0,0,1-6.23,1.23c.22.29,3.86,4.89,8,6.14s7.4-1.29,9.74-2.68c1.77-1,3.36-2.48,5.4-2.9C176.56,137.35,173.58,142.65,170,144.44Z" />
      <path class="BUNTAI_WALRUS_BODY_BUNTAI_WALRUS_BODY-23_cls-4" d="M173.24,121.32c1.64-1,3.4-2,5.29-3,15.12-8.12,17.56-10.66,17.56-10.66" />
      <path class="BUNTAI_WALRUS_BODY_BUNTAI_WALRUS_BODY-23_cls-4" d="M173.22,121.32c-11.45,7.06-16.83,14.25-17.59,25.8,0,.73-.08,1.43-.1,2.1a43.16,43.16,0,0,0,.64,9.49h0c0,.14.05.28.08.43l.12.59a2.38,2.38,0,0,0,0,.26s0,0,0,0h0a.43.43,0,0,1,0,.11v0c.1.51.2,1,.31,1.5a.64.64,0,0,1,0,.07c0,.11.05.23.07.34.09.39.17.79.26,1.18.25,1.18.5,2.39.7,3.72a1.1,1.1,0,0,0,0,.18.73.73,0,0,0,0,.08c.17,1.2.31,2.49.39,3.95,0,.35,0,.71.05,1.08q0,1.08,0,2.28c0,.4,0,.79,0,1.17,0,2.24,0,4.26,0,6.1,0,2.64.08,4.9.23,6.9,0,.3,0,.59.06.87" />
      <path class="BUNTAI_WALRUS_BODY_BUNTAI_WALRUS_BODY-23_cls-4" d="M285.89,115.93a36.86,36.86,0,0,0-2.35-5c-7.92-14.05-21.81-14.9-39.13-17.34-22-7.34-43.22,2.57-55.69,9.09a31,31,0,0,0-10.3,8.68l0,0-.09.13a30.08,30.08,0,0,0-5.07,9.81h0" />
      <path class="BUNTAI_WALRUS_BODY_BUNTAI_WALRUS_BODY-23_cls-4" d="M301.69,190.22c0-1.11,0-2.24-.05-3.39,0-.17,0-.34,0-.51,0-.64,0-1.28,0-1.92q0-2.18,0-4.41c0-.6,0-1.2,0-1.8,0-5.17.19-10.55.45-16,.05-1,.1-2,.16-3h0c.06-1.07.12-2.14.19-3.21,0-.55.06-1.1.1-1.65,1-15.84-.23-18.05-3.5-24.23-.06-.11-.12-.23-.2-.35s-.14-.24-.22-.37a13.58,13.58,0,0,0-.79-1.19c-.09-.13-.19-.27-.3-.41-.29-.41-.63-.83-1-1.27a4.88,4.88,0,0,0-.37-.45c-.24-.3-.5-.6-.77-.9s-.54-.61-.83-.92-.57-.62-.88-.93-.59-.63-.91-.94L291.41,121c-1.4-1.36-2.85-2.7-4.29-4-.41-.37-.83-.73-1.24-1.08a56.35,56.35,0,0,0-8-6l-.45-.24,0,0c-4.21-2.26-10.42-6.21-10.42-6.21" />
      <path class="BUNTAI_WALRUS_BODY_BUNTAI_WALRUS_BODY-23_cls-4" d="M301.69,190.25q0,2.37.12,4.62l0,.78c0,.47,0,.94.05,1.4l0,.74" />
      <path class="BUNTAI_WALRUS_BODY_BUNTAI_WALRUS_BODY-23_cls-4" d="M183.32,175.89a47.92,47.92,0,0,1-4.06-3.23s3.44.52,10.78-.24a157.14,157.14,0,0,0,17-3.08l-4.26-2.57s2.22-1.1,6.82.73c2.84,1.13,9.33,1.66,13.89,1.89,2.83.14,4.92.18,4.92.18l-4.92-5.65s5.51,1.16,8.71,3.44,11.07,3.72,11.07,3.72" />
      <path class="BUNTAI_WALRUS_BODY_BUNTAI_WALRUS_BODY-23_cls-4" d="M163.49,185.59l-.31.19c-.73.42-1.37.81-1.9,1.14l-.83.52-.6.41a5,5,0,0,0-1.24,1.75c-.14.27-.27.56-.41.87h0c-.33.74-.65,1.58-.95,2.44l0,0c-.31.88-.6,1.78-.86,2.63-.11.35-.22.7-.31,1s-.21.7-.3,1" />
      <path class="BUNTAI_WALRUS_BODY_BUNTAI_WALRUS_BODY-23_cls-4" d="M195.28,176.21a32,32,0,0,0-12-.32,19.58,19.58,0,0,0-5.52,1.83c-5.19,2.7-10.68,5.75-14.3,7.87" />
      <path class="BUNTAI_WALRUS_BODY_BUNTAI_WALRUS_BODY-23_cls-4" d="M152.28,203.19a81.21,81.21,0,0,0-3.84,16.22" />
      <path class="BUNTAI_WALRUS_BODY_BUNTAI_WALRUS_BODY-23_cls-4" d="M152.27,203.17c.18-.46.35-.91.53-1.34a14,14,0,0,1,3-4.18h0a54.76,54.76,0,0,1,11.6-8.42l.17-.1,0,0c2.56-1.46,5-2.68,6.72-3.54s3-1.38,3-1.38" />
      <path class="BUNTAI_WALRUS_BODY_BUNTAI_WALRUS_BODY-23_cls-4" d="M140.76,262a18.59,18.59,0,0,1-3,4.72,21.49,21.49,0,0,0,3.6-3.08,36.66,36.66,0,0,0,5.09-6.94" />
      <path class="BUNTAI_WALRUS_BODY_BUNTAI_WALRUS_BODY-23_cls-4" d="M160,202.31A41.92,41.92,0,0,1,152.46,214a35.4,35.4,0,0,0-4,5.39,25.43,25.43,0,0,0-3.9,13.48c.1,5.29.53,19.68-3.78,29.11" />
      <path class="BUNTAI_WALRUS_BODY_BUNTAI_WALRUS_BODY-23_cls-4" d="M157.12,238.25c-4,4.2-5.86,13.78-6.55,23.62a180.08,180.08,0,0,0-.09,21.87c-2.16-5.76-3.38-18.3-4-27-.38-5.38-.53-9.32-.53-9.32" />
      <path class="BUNTAI_WALRUS_BODY_BUNTAI_WALRUS_BODY-23_cls-4" d="M243.27,202.63v.13c0,.13,0,.29,0,.48v.06c0,.16,0,.35,0,.54V204a.07.07,0,0,0,0,.05v.14s0,.06,0,.09a2.72,2.72,0,0,1,0,.28c0,.13,0,.26,0,.39,0,.28,0,.58,0,.91s-.05.65-.08,1,0,.59-.08.9a.08.08,0,0,0,0,.07s0,.09,0,.13q-.08.87-.21,1.86c0,.21,0,.43-.08.66s-.06.45-.1.68l-.09.64c0,.11,0,.22-.05.33-.06.39-.13.79-.2,1.2,0,.24-.08.48-.13.73s-.09.5-.14.76a.08.08,0,0,0,0,0c-.2,1-.44,2.14-.71,3.27-.14.56-.28,1.14-.44,1.73l-.24.85-.12.45c-.13.44-.26.89-.4,1.34s-.23.75-.36,1.13-.34,1-.52,1.55l-.27.75c-.14.39-.29.78-.44,1.17s-.24.62-.37.93c-.25.63-.52,1.26-.8,1.9-.41.95-.86,1.9-1.34,2.85-.16.32-.32.64-.49.95l0,.06c0,.05-.05.09-.07.14-.3.57-.62,1.14-.94,1.71l-.55.94c-.19.32-.38.64-.58.95-.6,1-1.24,1.93-1.91,2.88-.22.3-.43.6-.65.89s-.45.6-.68.89l-.54.69c-.3.38-.61.75-.93,1.13s-.51.6-.77.89c-.79.89-1.62,1.77-2.49,2.62l-.88.85c-.3.28-.6.56-.91.83l-.94.82-.93.77s0,0,0,0c-.87.71-1.77,1.4-2.71,2.06-1.31.93-2.68,1.81-4.13,2.65.2-.16.39-.33.59-.51s.39-.34.59-.53c.39-.36.79-.74,1.18-1.14l.8-.84.42-.46a.27.27,0,0,0,.07-.08l.51-.58" />
      <path class="BUNTAI_WALRUS_BODY_BUNTAI_WALRUS_BODY-23_cls-4" d="M223.5,245.25A55.38,55.38,0,0,1,219,251.4" />
      <path class="BUNTAI_WALRUS_BODY_BUNTAI_WALRUS_BODY-23_cls-4" d="M233.32,222a76.2,76.2,0,0,1-9.79,23.21" />
      <path class="BUNTAI_WALRUS_BODY_BUNTAI_WALRUS_BODY-23_cls-4" d="M223.52,245.2l0,0s-1.78,1-4.5,2.6l-1.78,1.09-.19.12-.19.12-.18.11-.13.09-.05,0-.23.14-.06,0c-.64.4-1.3.83-2,1.28l-1.08.72-.06,0-.07,0-1,.65-.31.22-.4.28-.41.28-.32.23a3.43,3.43,0,0,0-.33.24l-.17.12c-.28.19-.56.39-.85.61l-.19.13-.19.15-.05,0h0a.72.72,0,0,0-.15.11c-.48.35-1,.71-1.43,1.08l-1.44,1.11c-.47.37-1,.75-1.41,1.14s-.94.78-1.39,1.17l-.12.11-1,.85a39,39,0,0,1-4.29,3.33c-.4.28-.8.55-1.21.81l-.14.09-.08.05a61.4,61.4,0,0,1-5.91,3.29l-.85.42-.3.14-1.44.67-.8.35-.11,0-.18.07h0l-1.64.68-.61.25-1.18.46-.55.21c-1.44.53-2.63.94-3.45,1.2l-.4.13-.32.1-.07,0-.14,0-.27.08" />
      <path class="BUNTAI_WALRUS_BODY_BUNTAI_WALRUS_BODY-23_cls-4" d="M177.85,272.67h.06l1-.49c.41-.2.93-.46,1.53-.79l.06,0a61.33,61.33,0,0,0,5.87-3.62l.08-.06h0c4.72-3.33,10.05-8.18,12.24-14.21" />
      <path class="BUNTAI_WALRUS_BODY_BUNTAI_WALRUS_BODY-23_cls-4" d="M156.11,282.64c0-1.68.16-3.7.43-6.12,2.8-25.75,12.32-34.83,12.32-34.83" />
      <path class="BUNTAI_WALRUS_BODY_BUNTAI_WALRUS_BODY-23_cls-4" d="M186.48,260.21c-6.52,8.5-10.37,8-18.29,15.5-.53.5-1,1-1.53,1.49a48.54,48.54,0,0,0-9.54,13.3s-1.14-1.56-1-7.85" />
      <polyline class="BUNTAI_WALRUS_BODY_BUNTAI_WALRUS_BODY-23_cls-4" points="166.66 277.19 176.22 273.33 176.22 273.33 176.5 273.21 177.85 272.67" />
      <path class="BUNTAI_WALRUS_BODY_BUNTAI_WALRUS_BODY-23_cls-4" d="M150.57,261.87c.21,2.25.48,4.22.48,4.22s1.68,10.54,5.06,16.55h0" />
      <path class="BUNTAI_WALRUS_BODY_BUNTAI_WALRUS_BODY-23_cls-4" d="M243.28,171.08s5.27-1.45,7.41-3.72a15.71,15.71,0,0,1,5.83-3.44l-3.3,5.65s2.62-.06,5.56-.4c2.65-.28,5.57-.8,7-1.67,3.08-1.83,4.57-.73,4.57-.73l-2.85,2.57a74.87,74.87,0,0,0,11.38,3.08c4.91.76,7.21.24,7.21.24a40.15,40.15,0,0,1-2.71,3.23" />
      <path class="BUNTAI_WALRUS_BODY_BUNTAI_WALRUS_BODY-23_cls-4" d="M301.84,197.65a69.28,69.28,0,0,0-1.91-8,5.35,5.35,0,0,0-.83-1.75,156.12,156.12,0,0,0-12-10.14,10.52,10.52,0,0,0-3.69-1.83,14.59,14.59,0,0,0-8,.32" />
      <path class="BUNTAI_WALRUS_BODY_BUNTAI_WALRUS_BODY-23_cls-4" d="M306.74,219.4c-.06-.63-.12-1.28-.19-1.94l-.12-1.06h0l0-.24c0-.28-.06-.56-.1-.85l-.06-.5c0-.2-.05-.4-.08-.61-.06-.48-.13-1-.2-1.46-.15-1.11-.33-2.22-.52-3.32h0c-.05-.32-.11-.64-.17-1,0,0,0,0,0-.06-.07-.4-.14-.79-.22-1.18s-.15-.79-.23-1.17l-.24-1.13c-.08-.37-.17-.74-.25-1.1l-.12-.48c-.12-.52-.26-1-.39-1.5-.05-.17-.1-.34-.16-.5s-.06-.2-.1-.3-.12-.33-.19-.49a13.49,13.49,0,0,0-.94-1.91v0c-.15-.27-.32-.54-.49-.81h0l-.09-.14h0c-4.6-7.1-14.39-13.46-14.39-13.46" />
      <path class="BUNTAI_WALRUS_BODY_BUNTAI_WALRUS_BODY-23_cls-4" d="M308.07,256.71c1.26,3.27,3.25,7.47,5.81,10-5-8.38-4.6-27.55-4.52-33.84a35.42,35.42,0,0,0-2.61-13.48,39.25,39.25,0,0,0-2.69-5.39,46.44,46.44,0,0,1-2.33-4.41h0a46.53,46.53,0,0,1-2.71-7.29" />
      <path class="BUNTAI_WALRUS_BODY_BUNTAI_WALRUS_BODY-23_cls-4" d="M300.94,238.25c2.7,4.2,3.92,13.78,4.38,23.62.39,8,.27,16.27.06,21.87,1.45-5.76,2.27-18.3,2.69-27,.25-5.38.35-9.32.35-9.32" />
      <path class="BUNTAI_WALRUS_BODY_BUNTAI_WALRUS_BODY-23_cls-4" d="M254.44,246.24c-10.8-17-11.16-40.56-11.16-43.6v-.33" />
      <path class="BUNTAI_WALRUS_BODY_BUNTAI_WALRUS_BODY-23_cls-4" d="M256.53,245.27a45.21,45.21,0,0,0,5.81,10.28,41.78,41.78,0,0,1-7.9-9.3" />
      <path class="BUNTAI_WALRUS_BODY_BUNTAI_WALRUS_BODY-23_cls-4" d="M250,222a99.45,99.45,0,0,0,6.55,23.21" />
      <path class="BUNTAI_WALRUS_BODY_BUNTAI_WALRUS_BODY-23_cls-4" d="M273.1,253.45c2.89,11.89,14,19.23,14,19.23s-9.91-4.2-16.06-12.47a93.41,93.41,0,0,0-14.47-14.94v0l0,0" />
      <path class="BUNTAI_WALRUS_BODY_BUNTAI_WALRUS_BODY-23_cls-4" d="M301.61,282.64c0-1.68-.11-3.7-.28-6.12-1.88-25.75-8.25-34.83-8.25-34.83" />
      <path class="BUNTAI_WALRUS_BODY_BUNTAI_WALRUS_BODY-23_cls-4" d="M281.29,260.21a29.74,29.74,0,0,0,6.33,8.7,46.06,46.06,0,0,1,5.91,6.79q.54.75,1,1.5a54.38,54.38,0,0,1,6.39,13.3s.76-1.56.67-7.85" />
      <polyline class="BUNTAI_WALRUS_BODY_BUNTAI_WALRUS_BODY-23_cls-4" points="294.55 277.19 289.61 274.21 287.54 272.96 287.06 272.68" />
      <path class="BUNTAI_WALRUS_BODY_BUNTAI_WALRUS_BODY-23_cls-4" d="M301.61,282.65h0c2.27-6,3.39-16.55,3.39-16.55s.18-2,.32-4.22" />
      <path class="BUNTAI_WALRUS_BODY_BUNTAI_WALRUS_BODY-23_cls-4" d="M219,247.85c0,1.07,0,2.25-.05,3.55h0" />
      <path class="BUNTAI_WALRUS_BODY_BUNTAI_WALRUS_BODY-23_cls-4" d="M218.91,252.89c-.08,4.84-.19,11-.32,17.91,0,.24,0,.49,0,.73-.06,2.72-.12,5.56-.19,8.48,0,.87,0,1.75,0,2.63,0,.18,0,.37,0,.56,0,1.25-.06,2.52-.09,3.8,0,.19,0,.38,0,.57,0,.75,0,1.5,0,2.26,0,.22,0,.44,0,.67s0,.62,0,.93c-.11,4.78-.23,9.66-.36,14.54,0,.19,0,.37,0,.56-.06,2.43-.13,4.86-.2,7.27-.11,3.75-.22,7.46-.34,11.07,0,1.16-.07,2.32-.11,3.46,0,.18,0,.36,0,.54,0,.54,0,1.07,0,1.59q-.06,1.68-.12,3.3c0,.79-.06,1.56-.09,2.33v.06c0,.44,0,.87-.05,1.3-.08,2-.16,4-.25,5.86,0,.1,0,.19,0,.28h0a276.5,276.5,0,0,1-3.62,33.46c-.48,2.84-1,5.58-1.5,8.2,0,.27-.1.54-.16.81-.1.48-.19,1-.29,1.43s-.19.94-.29,1.4c-.19.93-.39,1.84-.59,2.73l0,.13c-2.16,9.77-4.43,17.28-6.06,21,0,0,0,0,0,0-.75,1.69-1.36,2.61-1.78,2.61-.8,0-1.6-.35-2.41-1.69-.11-.19-.24-.41-.36-.66l-.13-.26h0l-.07-.14a.61.61,0,0,1,0-.12l-.25-.6c-.16-.43-.33-.9-.49-1.42l-.12-.34c-.21-.7-.43-1.49-.64-2.38h0c0-.15-.08-.3-.11-.45s-.11-.49-.17-.75-.07-.31-.11-.46c-.72-3.3-1.47-7.74-2.25-13.68a2.51,2.51,0,0,1,0-.27c-.05-.36-.1-.72-.14-1.09-.14-1.1-.29-2.25-.43-3.46,0-.3-.07-.61-.11-.93s-.07-.61-.1-.92c-.08-.63-.16-1.27-.23-1.93-.49-4.36-1-10.22-1.54-17-.07-.9-.14-1.8-.21-2.73s-.12-1.57-.18-2.38l0-.44c-.13-1.71-.25-3.46-.37-5.26,0-.33,0-.66-.07-1-.11-1.5-.22-3-.32-4.57l-.15-2.32c-.09-1.26-.17-2.52-.26-3.8,0-.11,0-.23,0-.34,0-.46-.06-.93-.08-1.39-.06-.9-.12-1.78-.17-2.63,0-.36-.05-.72-.07-1.09,0-.2,0-.4,0-.6s0-.52,0-.79l-.06-.95c0-.44-.05-.9-.08-1.37-.06-.75-.09-1.51-.15-2.26v-.08c-.34-5.56-.67-11.18-1-16.68,0-.46-.06-.92-.08-1.37l-.06-1.1,0-.61c0-.61-.08-1.22-.11-1.83s-.07-1.17-.1-1.75c-.29-5.24-.56-10.31-.81-15.05v0c0-.32,0-.64-.05-1v-.07c0-.3,0-.61,0-.9s0-.65-.05-1,0-.64,0-.95-.05-.82-.06-1.22,0-.49,0-.74l-.06-1.09c0-.22,0-.43,0-.64s0-.23,0-.34a.34.34,0,0,1,0-.1c0-.47-.05-.93-.07-1.39s0-1.08-.08-1.61c0-.18,0-.35,0-.53l-.06-1q-.07-1.54-.15-3c0-.63-.06-1.25-.09-1.85-.05-1.23-.11-2.4-.17-3.5,0-.65-.06-1.28-.09-1.88,0-.4,0-.79,0-1.17,0-.72-.05-1.1-.05-1.1" />
      <path class="BUNTAI_WALRUS_BODY_BUNTAI_WALRUS_BODY-23_cls-4" d="M280.38,379.62a199.87,199.87,0,0,0,5.15-36c.74-16.72,1.34-39.28,1.77-58.93.09-4.05.17-8,.24-11.7" />
      <path class="BUNTAI_WALRUS_BODY_BUNTAI_WALRUS_BODY-23_cls-4" d="M280.36,379.62c-1.08,4.63-2.26,9-3.45,12.94-4.12,13.77-8.43,22.85-9.73,22.85-1.65,0-1.61-1.51-2.22-10.11q-.12-1.76-.3-3.93v0c-.29-3.65-.69-8.22-1.3-13.94-.05-.44-.1-.89-.14-1.34,0-.13,0-.27-.05-.4-.06-.6-.13-1.21-.2-1.83-.28-2.5-.57-5.52-.87-8.94,0-.16,0-.32,0-.47s0-.12,0-.18c0-.45-.08-.92-.12-1.39-.36-4.26-.73-9.07-1.09-14.23v0c-.09-1.24-.18-2.5-.26-3.78s-.2-2.87-.29-4.33-.2-3-.3-4.55c-.07-1.12-.15-2.24-.21-3.37q-.21-3.25-.41-6.56-.25-4.09-.5-8.22c-.26-4.45-.52-8.9-.76-13.26-.1-1.67-.19-3.33-.28-5l0-.6c0-.14,0-.28,0-.42s0-.15,0-.15l0-.37q0-.54-.06-1.08c-.34-6.17-.66-12-.93-17.37l-.06-1.13c-.08-1.5-.16-2.95-.23-4.35,0-.36,0-.72-.05-1.08,0-.66-.07-1.3-.1-1.94l0-.64c-.52-10.13-.83-16.68-.83-16.68l-.65-11.05-.38-6.46h0" />
      <path class="BUNTAI_WALRUS_BODY_BUNTAI_WALRUS_BODY-23_cls-4" d="M302.26,159.15h0l-.44-.54" />
      <path class="BUNTAI_WALRUS_BODY_BUNTAI_WALRUS_BODY-23_cls-4" d="M243.28,168.19s-6.12-3.58-9.44-7.08-7.43-4.89-9.7-2.36-3.23,3.95-2.79,5.17,2.15,5.47,2.15,5.47" />
      <path class="BUNTAI_WALRUS_BODY_BUNTAI_WALRUS_BODY-23_cls-11" d="M243.28,168.19a43.24,43.24,0,0,0,7.36-7.08c2.59-3.49,5.79-4.89,7.56-2.36s2.52,3.95,2.18,5.17c-.29,1-1.33,4.36-1.6,5.25" />
      <path class="BUNTAI_WALRUS_BODY_BUNTAI_WALRUS_BODY-23_cls-4" d="M289.61,274.22q-1,5.11-2.31,10.45" />
      <path class="BUNTAI_WALRUS_BODY_BUNTAI_WALRUS_BODY-23_cls-4" d="M187,146.22h-.06c-2,.43-3.63,1.86-5.4,2.9-2.34,1.39-5.45,4-9.74,2.68s-7.79-5.85-8-6.14" />
      <path class="BUNTAI_WALRUS_BODY_BUNTAI_WALRUS_BODY-23_cls-4" d="M187.12,146.41l-.15-.19a107.2,107.2,0,0,0-8.53-9.15c-3.13-2.68-12.31,0-12.31,0s-4.69,4.45-2.38,8.59" />
      <path class="BUNTAI_WALRUS_BODY_BUNTAI_WALRUS_BODY-23_cls-4" d="M163.5,185.6h0c5.84-9,17.48-27.25,23.64-39.16" />
      <path class="BUNTAI_WALRUS_BODY_BUNTAI_WALRUS_BODY-23_cls-4" d="M187.14,146.43a39.41,39.41,0,0,0-9.79,10.5c-3.67,6.18-7.89,10.32-10.07,9.62-6.05-3.56-6.86-15.41-3.53-20.89h0a10.21,10.21,0,0,0,6.23-1.22c3.59-1.8,6.57-7.1,16.92,1.78l.21.18,0,0" />
      <path class="BUNTAI_WALRUS_BODY_BUNTAI_WALRUS_BODY-23_cls-4" d="M283.51,146.22h0c1.39.44,2.49,1.86,3.7,2.9,1.61,1.39,3.74,4,6.68,2.68s5.35-5.85,5.5-6.14" />
      <path class="BUNTAI_WALRUS_BODY_BUNTAI_WALRUS_BODY-23_cls-4" d="M283.4,146.41l.11-.19a99.89,99.89,0,0,1,5.85-9.15c2.15-2.68,8.44,0,8.44,0s3.22,4.45,1.64,8.59" />
      <path class="BUNTAI_WALRUS_BODY_BUNTAI_WALRUS_BODY-23_cls-4" d="M283.39,146.43c.41,1.16.86,2.38,1.34,3.65h0c2.08,5.55,4.71,12,7.29,18.08l0,0c.89,2.11,1.78,4.19,2.63,6.17h0c3.07,7.11,5.71,13,6.81,15.43.07.16.13.3.19.42h0" />
      <path class="BUNTAI_WALRUS_BODY_BUNTAI_WALRUS_BODY-23_cls-4" d="M299.44,145.66h0c-.17.05-1.91.51-4.27-1.22s-4.51-7.1-11.61,1.78l-.15.18v0h0" />
      <path class="BUNTAI_WALRUS_BODY_BUNTAI_WALRUS_BODY-23_cls-4" d="M283.4,146.44a36.62,36.62,0,0,1,6.71,10.49c2.52,6.18,5.41,10.32,6.9,9.62,1.81-1.56,2.94-4.68,3.45-8.16.11-.84.2-1.7.25-2.56a24.61,24.61,0,0,0-1.27-10.16" />
      <path class="BUNTAI_WALRUS_BODY_BUNTAI_WALRUS_BODY-23_cls-4" d="M217.59,158.61s4.54-5.89,7.46-5.94a13.24,13.24,0,0,1,6,1.8" />
      <path class="BUNTAI_WALRUS_BODY_BUNTAI_WALRUS_BODY-23_cls-4" d="M263.29,158.61s-3.46-5.89-5.69-5.94-4.57,1.8-4.57,1.8" />
      <path class="BUNTAI_WALRUS_BODY_BUNTAI_WALRUS_BODY-23_cls-4" d="M254.81,252.7l-.38.34a18.06,18.06,0,0,1-3.22,2.22l-.1.05a21.18,21.18,0,0,1-6.9,2.25h-.06a26.75,26.75,0,0,1-3.94.28,29.11,29.11,0,0,1-9.59-1.58,24,24,0,0,1-8.39-4.86l-.21-.21-.18-.17-.22-.2" />
      <g class="BUNTAI_WALRUS_BODY_BUNTAI_WALRUS_BODY-23_cls-3">
        <path d="M159.13,203.19a82.7,82.7,0,0,1-6.38,5.36c-1.66,1-2.39.92-2.39.92l-1.92,8s5.62-5.68,7.76-8.22A16,16,0,0,0,159.13,203.19Z" />
        <path d="M174.44,185.51c-.58.29-2.51,1.29-6.68,3.49l-.23.12-.17.1c-4.33,2.29-8.56,4.86-10.49,6.06l-.5.31-.61.38,1.47-3,0,0,.35-.28c.56-.44,1.75-1.38,3.19-2.44,1.91-1.4,11.91-4.1,13.5-4.64Z" />
        <path d="M169.41,229.9c-5.82,9.91-15.14,36.83-15.14,36.83l-2.92-12.38a122.92,122.92,0,0,1,.18-14c.53-9.09,10.95-28,10.95-28s-10.43,10.48-14,30.06a95.69,95.69,0,0,0,.83,36.95s.45-3.05,1.1-14.19c.64,7.5,5.37,16.69,5.37,16.69l3.39-18.29S160.21,253.09,169.41,229.9Z" />
        <path d="M183.51,257.86c10.14-7.59,15.73-17.82,24.76-37.66-9,18-21.12,28.58-30.65,37.53l-10,7.71s9.43-10.58,13.45-16.34c3.59-5.14,9.39-15.07,10.61-17.17a145.71,145.71,0,0,1-9.57,13.67c-7.18,9.35-13.71,17-13.71,17l4.47-11.21.75-1.27C178.85,241.22,189,222.8,189,222.8s-10.72,15.14-18.64,28a140.53,140.53,0,0,0-10.24,21.65c.41-2.47,1.13-6.8,1.77-10.46,1-5.46,5.64-18.35,5.64-18.35s-3.63,3.1-5.15,9.74c-1.24,5.37-2.16,15.83-2.47,19.63-1.42,3.7-2.5,6.81-3.14,8.71,2.36-6.17,9.52-19.08,14.51-27.7-2.74,6.1-6,13.41-7.23,16.32-.92,2.21-2.19,5.64-3.36,8.92a53.54,53.54,0,0,0-4,10.09l.82-1h0l8.19-9.7S173.37,265.44,183.51,257.86Z" />
        <path d="M156.76,281.76a16.48,16.48,0,0,0-.65,2S156.34,283,156.76,281.76Z" />
        <path d="M243.3,203.88v.45c0,1.17-.07,2.81-.24,4.78a59.28,59.28,0,0,1-7.12,23.82c-.17.29-.33.58-.51.86,0,.05-.05.09-.07.14-7.94,13.3-17.86,19.35-18.49,19.72l.27-.29.13-.13.12-.12.65-.7c.11-.11.21-.23.32-.35a.27.27,0,0,0,.07-.08,35.32,35.32,0,0,0,4.69-6.12l-.06,0q-2.1,1.4-4.08,2.59c-3.74,2.28-7.16,4.15-10.14,6.09l-.05,0,0,0h0a.72.72,0,0,0-.15.11,32.65,32.65,0,0,0-5.67,4.5l-.12.11-.85.85c-.68.66-1.37,1.29-2.07,1.86a44.26,44.26,0,0,1-13.07,7.29l-.11,0-.18.07c-2.17.84-4.94,1.8-7.63,2.69l-2.53.83c-3.89,1.26-7.14,2.24-7.5,2.35.5-.37,7.56-5.34,14.74-10.83,7.46-5.71,14.68-12.1,25.52-32.27-6.76,15.95-8.45,19.57-8.45,19.57a42.22,42.22,0,0,0,8.43-4.47c.67-.45,1.36-.94,2-1.47a31.68,31.68,0,0,0,8-8.74c5.88-9.92,13.64-28.86,14.16-30.11-.4,1.34-6.88,23-9.59,29.49a321.64,321.64,0,0,0,17.15-32.12l2.05-1.76.16-.14.21-.18s0,.16,0,.46S243.3,203.41,243.3,203.88Z" />
        <path d="M172.26,235.2S182.64,222.45,190,213s28.94-22.26,28.94-22.26-19.86,10.44-28.42,18.6S172.26,235.2,172.26,235.2Z" />
        <path d="M194.83,176.16c6.16.7,21.84,3,21.84,3s-13.19-5.68-21.39-5.37a83,83,0,0,1-14.13-.61h-.78l2,2.56A91.78,91.78,0,0,1,194.83,176.16Z" />
        <path d="M191.67,231.93c.15-.25.23-.4.23-.4S191.82,231.68,191.67,231.93Z" />
        <path d="M150.36,225.19c3.49-7.87,7.86-15.9,7.86-15.9a120,120,0,0,0-7.86,12.92,78.11,78.11,0,0,0-5.76,15.73s.23,1.75-.6,11.07C145.62,245.05,146.87,233.05,150.36,225.19Z" />
        <path d="M177.28,193.26c12.2-5.94,27.11-7.85,27.11-7.85s-17.65.69-27.87,6.21-14.71,8.46-14.71,8.46S165.07,199.2,177.28,193.26Z" />
        <path d="M306.38,212.8c-.29-1.19-.58-2.31-.85-3.37a.57.57,0,0,0,.31,0Z" />
        <path d="M306.4,216.15l0,.24c-1.18-1.77-3.49-5.29-4.55-7.14a20.45,20.45,0,0,1-2-6.07s3.2,4.33,4.32,5.37a4,4,0,0,0,1.22.85h0c.19,1.1.37,2.21.52,3.32.07.49.14,1,.2,1.46,0,.21.06.41.08.61l.06.5C306.34,215.59,306.37,215.87,306.4,216.15Z" />
        <path d="M302.18,196l-.34-.32-.34-.3-.16-.15c-1.39-1.27-4.33-3.9-7.29-6.2s-4.13-3.2-4.52-3.49c.58.36,7.89,3.23,9.25,4.69.82.89,1.51,1.69,1.94,2.19h0l.45.52.33,1,.31,1Z" />
        <path d="M292.94,229.9c3.95,9.91,10.26,36.83,10.26,36.83l2-12.38s.24-4.87-.12-14-7.42-28-7.42-28,7.07,10.48,9.52,30.06a140.15,140.15,0,0,1-.57,36.95s-.3-3.05-.74-14.19c-.44,7.5-3.64,16.69-3.64,16.69l-2.3-18.29S299.17,253.09,292.94,229.9Z" />
        <path d="M283.39,257.85c-6.86-7.58-10.65-17.81-16.76-37.65,6.05,18,14.3,28.58,20.76,37.53l6.77,7.71s-6.39-10.58-9.11-16.34c-2.43-5.14-6.36-15.07-7.18-17.17.52,1.3,2.42,5.87,6.48,13.67,4.86,9.35,9.28,17,9.28,17l-3-11.21-.51-1.27c-3.55-8.85-10.41-27.27-10.41-27.27s7.25,15.14,12.62,28a178.88,178.88,0,0,1,6.93,21.65c-.28-2.47-.76-6.8-1.2-10.46-.65-5.46-3.82-18.35-3.82-18.35s2.46,3.1,3.49,9.74c.84,5.37,1.47,15.83,1.67,19.63,1,3.7,1.7,6.81,2.13,8.71-1.6-6.17-6.45-19.08-9.83-27.7,1.86,6.1,4.07,13.41,4.9,16.32.62,2.21,1.48,5.64,2.28,8.92a70.89,70.89,0,0,1,2.7,10.09l-.55-1h0l-5.54-9.7S290.26,265.44,283.39,257.85Z" />
        <path d="M301.51,281.76c.2.77.35,1.44.44,2C302,283.73,301.8,283,301.51,281.76Z" />
        <path d="M242.92,202.31l1.64,2.08s4,13.28,11.61,32.12c-1.89-6.67-6.51-29.56-6.51-29.56s5.49,19.92,9.61,30.18a30.38,30.38,0,0,0,12.49,14.68s-1.15-3.62-5.73-19.57c7.34,20.17,12.23,26.56,17.28,32.27s10,10.84,10,10.84-7.82-3.49-12.11-6a29.33,29.33,0,0,1-10.9-10c-3.21-4.91-8.06-7.89-13.74-13.49a46,46,0,0,0,4.25,7.81s-7.33-6.29-12.94-20.74S242.92,202.31,242.92,202.31Z" />
        <path d="M291,235.2s-7-12.75-12-22.25-19.6-22.26-19.6-22.26,13.45,10.44,19.25,18.6S291,235.2,291,235.2Z" />
        <path d="M275.73,176.16c-4.17.7-14.79,3-14.79,3s8.93-5.68,14.48-5.37a38.34,38.34,0,0,0,9.57-.61h.53l-1.36,2.56A42.13,42.13,0,0,0,275.73,176.16Z" />
        <path d="M277.87,231.93l-.16-.4Z" />
        <path d="M305.85,225.19c-2.37-7.87-5.33-15.9-5.33-15.9a138.78,138.78,0,0,1,5.33,12.92,105.36,105.36,0,0,1,3.9,15.73s-.16,1.75.4,11.07C309.06,245.05,308.21,233.05,305.85,225.19Z" />
        <path d="M287.61,193.26a52.22,52.22,0,0,0-18.36-7.85s11.95.69,18.88,6.21,10,8.46,10,8.46S295.88,199.2,287.61,193.26Z" />
        <path d="M254.43,246.23v7.09a13,13,0,0,1-3.22,1.94l-.1.05a34.72,34.72,0,0,1-6.9,2.25h-.06a21.29,21.29,0,0,1-13.53-1.3,45.06,45.06,0,0,1-8.39-4.86l-.47-.34.08,0c3.47-1.71,8.56-8.25,8.56-8.25s7.75,1.22,12.49.52a15.31,15.31,0,0,0,7.55-3.26Z" />
        <path d="M166.56,166.56c4.08,1.5,8.62-5,12.61-12.62-5.34,7.29-10.75,9.09-13.6,5.89s-3.09-12.75-3.09-12.75C160.79,155.31,162.48,165.07,166.56,166.56Z" />
        <path d="M165.57,173.28a35.6,35.6,0,0,0,7.4-5.42s-11.42,11.54-14.39,12.94l0,7.93,5.21-3.55s14.18-22.58,14.42-23,6.5-12.34,6.5-12.34v-.52l-3.56,3.15S171.39,168.33,165.57,173.28Z" />
        <path d="M170.63,144.47c5.38-2.89,6.78-3.23,12.53-1.67-8.95-7.25-13.54-1.09-15.42-1.31s-2.58-2.4-2.58-2.4c-2.62,2-1.66,6.26-1.66,6.26S165.25,147.35,170.63,144.47Z" />
        <path d="M164,171.41c-4.88-2-6.18-4.16-6.18-4.16a.73.73,0,0,1,0-.08,63.41,63.41,0,0,1-1.39-7,.43.43,0,0,0,0-.11h0a.28.28,0,0,0,0-.09c-.06-.44-.11-.89-.16-1.35a32.87,32.87,0,0,1-.07-7.8S158,167.72,164,171.41Z" />
        <path d="M185.2,111c-4.95.82-6.79.4-6.79.4s-4.12,6.15-4.29,9.43c8.2-4.56,19.67-11.42,19.67-11.42l2-2.08A44,44,0,0,1,185.2,111Z" />
        <path d="M298.16,166.56c-3.17,1.5-6.7-5-9.79-12.62,4.14,7.29,8.34,9.09,10.56,5.89s2.4-12.75,2.4-12.75C302.64,155.31,301.33,165.07,298.16,166.56Z" />
        <path d="M301.62,184.4c0,.64,0,1.28,0,1.92l-.13-.11-1.17-1s-5-10.16-8.28-17l0,0-2.91-6c-.18-.4-5-12.33-5-12.33v-.51l.65.73h0l2.1,2.39s7.56,15.85,12.08,20.81a30.51,30.51,0,0,1-5.42-5c1.14,1.48,5.06,6.49,8,9.73l.16.18c0,.6,0,1.2,0,1.8Q301.61,182.22,301.62,184.4Z" />
        <path d="M295,144.47c-4.18-2.89-5.27-3.23-9.74-1.67,7-7.25,10.53-1.09,12-1.31s2-2.4,2-2.4c2,2,1.29,6.26,1.29,6.26S299.18,147.35,295,144.47Z" />
        <path d="M287.13,117c-4.3-3.18-8.46-6.35-9.73-7.33,0,0,0,0,0,0l-.38-.29-1.55-2.07a29.82,29.82,0,0,0,8.09,3.63,37.44,37.44,0,0,1,2.35,5C286.3,116.27,286.72,116.63,287.13,117Z" />
        <path d="M202,260.28v-.08S202,260.21,202,260.28Z" />
        <path d="M204,412.78s0,0,0,0c-1.19,1.74-2.63,3.32-4.19.92-.11-.19-.24-.41-.36-.66l-.13-.26a1,1,0,0,1-.07-.15.61.61,0,0,1,0-.12l-.25-.6c-.21-.51-.41-1.09-.61-1.76s-.43-1.49-.64-2.38l0-.06-.09-.4c-.06-.24-.11-.49-.17-.75-.66-3-1.38-8-2.12-14.13-.22-1.85-.44-3.8-.67-5.82-.68-6.24-1.35-13.19-2-20.11-.19-2.23-.38-4.46-.57-6.66-.1-1.29-.21-2.56-.31-3.83-.34-4.23-.65-8.3-.91-12l-.09-1.39c-.06-.9-.12-1.78-.17-2.63,0-.36-.05-.72-.07-1.09,0-.2,0-.4,0-.6l0-.39c0-.14,0-.27,0-.4l-.06-.95c0-.44-.05-.9-.08-1.37,0-.75-.09-1.54-.14-2.36-.27-4.8-.6-10.61-.93-16.75-.13-2.33-.26-4.71-.39-7.1-.29-5.26-.57-10.57-.84-15.5-.23-4.42-.45-8.54-.64-12.08-.27-5.16-.48-9.09-.58-10.9,0-.72-.05-1.1-.05-1.1l.11,0,.12-.06c1.09-.54,5.69-2.82,9.18-4.81l.08-.05a35.43,35.43,0,0,0,3-1.88l.67-.49c1.62-1.2,2-1.62,2.07-1.78,0,.92.08,9.71.11,21.35,0,3.76,0,7.81,0,12,0,2.84,0,5.74,0,8.65,0,2.23,0,4.46,0,6.67,0,0,0,0,0,0,0,1.12,0,2.22,0,3.32,0,2,0,4-.06,5.93,0,1.26,0,2.62-.05,4.09,0,2.6-.08,5.5-.12,8.63,0,2.7-.08,5.56-.12,8.55,0,1.47,0,3-.05,4.49,0,3.89-.09,7.92-.12,12l0,4.53c0,1.33,0,2.66,0,4,0,2.08,0,4.16,0,6.21,0,1.53,0,3,0,4.54,0,3.18,0,6.28.07,9.25,0,2.81.09,5.51.16,8C202,404.53,202.68,412.89,204,412.78Z" />
        <path d="M273.63,360.34c0,1.32,0,2.65,0,4q-.07,3.22-.22,6.38c-.07,1.5-.16,3-.26,4.46-.27,4.25-.64,8.36-1.06,12.22-.19,1.76-.4,3.46-.61,5.09-1.71,13.4-3.9,22.68-4.49,22.5s-1.4-5.94-2.29-13.58v0c-1-8.2-1.94-18.56-2.56-26.45,0-.16,0-.32,0-.47s0-.12,0-.18c-.33-4.29-.82-11.4-1.34-19.4-.26-4-.53-8.11-.8-12.25-.1-1.6-.2-3.2-.3-4.78-.22-3.36-.42-6.64-.61-9.73-.34-5.31-.64-10-.85-13.52-.15-2.44-.26-4.28-.33-5.29a3,3,0,0,0,0-.32c0-.18,0-.33,0-.42s0-.15,0-.15l0-.37L257.7,307,257,292.22,256.37,280l-1.56-31.83s1.75,1.74,3.6,3.43l0,0c.95.87,1.92,1.72,2.69,2.3v0l.37.27a51.27,51.27,0,0,1-3.42-6.89h0c.25.19,2.81,2,5.14,4l.07.06a19.32,19.32,0,0,1,3.39,3.57l.06.09h0a16.31,16.31,0,0,0,3.52,4.22l0,0s.18,9.16.52,22.18c.1,3.74.21,7.78.33,12,.07,2.45.15,5,.22,7.53.1,3.1.2,6.26.31,9.44l.09,2.88s0,0,0,0c.1,2.72.2,5.45.3,8.15.14,3.6.28,7.15.43,10.59.11,2.5.22,5,.34,7.32.07,1.53.14,3,.22,4.48.09,1.61.17,3.17.26,4.67.15,2.44.24,4.9.27,7.36C273.64,357.43,273.65,358.89,273.63,360.34Z" />
        <path d="M302.18,196l-.34-.32c0,.47,0,.94.05,1.4-.25-.74-.39-1.1-.39-1.1v-16.8s0-.42,0-1.14c-.06-3.09-.13-11.64.61-15.81-.26,5.44-.41,10.82-.45,16,0,.6,0,1.2,0,1.8v3.35c0,.59,0,1.17,0,1.75s0,1.16,0,1.74c0,1.15,0,2.28.05,3.39v0q0,2.37.12,4.62Z" />
        <path d="M305,207.21c.08.39.15.78.22,1.18-1.18-4.46-2.17-7.71-2.84-9.76a13.49,13.49,0,0,1,.94,1.91c.07.16.13.33.19.49s.07.2.1.3.11.33.16.5c.13.48.27,1,.39,1.5l.12.48c.08.36.17.73.25,1.1l.24,1.13C304.89,206.42,305,206.81,305,207.21Z" />
        <path d="M306.38,212.8c-.29-1.19-.58-2.31-.85-3.37a.57.57,0,0,0,.31,0Z" />
        <path d="M158.2,190.48l-.6,2.16-.73,2.64-.19.69-.62.65c.09-.33.2-.68.31-1l-.61.38,1.47-3,0,0C157.55,192.06,157.87,191.22,158.2,190.48Z" />
        <path d="M186.54,269.47h0l-1.64.68-.61.25-1.18.46-.55.21c-1.44.53-2.63.94-3.45,1.2l-.4.13-.32.1-.07,0-.14,0-.27.08h-.06l-1.35.54-.12-.22-.17-.32a11.29,11.29,0,0,0,4.23-1.3l.06,0a40.25,40.25,0,0,0,5.87-3.62l.08-.06h0Z" />
        <path d="M226.59,91s6.78,1.52,19.48,5.14,16.31,3.61,16.31,3.61-9-4.39-15.24-5.81S233.47,90.42,226.59,91Z" />
        <path d="M153.34,269.4s-5.05-12.81-1.68-22.28,12.86-26.71,17.2-34.69c-7.89,21.55-4.49,28.49-4.49,28.49Z" />
        <path d="M156.43,290.5s-1-9.2,2.07-23.44S165,247.18,165,247.18s-2.71,15.91-1.68,17.6c7.22-20.75,12.29-32,12.29-32l-6.7,21.14-4,14.46-6.13,17.7Z" />
        <path d="M156.68,208.63a87.85,87.85,0,0,1,20.6-15.37c11.22-5.75,19.36-6.43,19.36-6.43s-12.31,6-20.59,12.32-14.83,15.65-14.83,15.65,4-7.73,16.06-18.33C166.15,202.52,156.68,208.63,156.68,208.63Z" />
        <path d="M220.21,212.43s-4.37,26.23-15.82,43.12C218.29,241,220.21,212.43,220.21,212.43Z" />
      </g>
      <path class="BUNTAI_WALRUS_BODY_BUNTAI_WALRUS_BODY-23_cls-12" d="M290.46,143.05a4,4,0,1,0,4,4A4,4,0,0,0,290.46,143.05Z" />
      <circle cx="290.46" cy="147.08" r="1.95" />
      <circle class="BUNTAI_WALRUS_BODY_BUNTAI_WALRUS_BODY-23_cls-10" cx="289.4" cy="145.35" r="0.89" />
      <circle class="BUNTAI_WALRUS_BODY_BUNTAI_WALRUS_BODY-23_cls-13" cx="290.46" cy="147.08" r="4.04" />
      <path class="BUNTAI_WALRUS_BODY_BUNTAI_WALRUS_BODY-23_cls-12" d="M174.66,143.05a4,4,0,1,0,4,4A4,4,0,0,0,174.66,143.05Z" />
      <circle cx="174.66" cy="147.08" r="1.95" />
      <circle class="BUNTAI_WALRUS_BODY_BUNTAI_WALRUS_BODY-23_cls-10" cx="173.6" cy="145.35" r="0.89" />
      <circle class="BUNTAI_WALRUS_BODY_BUNTAI_WALRUS_BODY-23_cls-13" cx="174.66" cy="147.08" r="4.04" />
      <path class="BUNTAI_WALRUS_BODY_BUNTAI_WALRUS_BODY-23_cls-9" d="M321.35,120.26c-3.27,2.91-9.16,1-13-1.17s-6.56-5.75-9.18-9.24l-6.53-8.67v0c-1.63-5.79-4-11.3-8-15.7-4.95-5.41-11.94-8.51-19-10.49A81,81,0,0,0,226,74c3-3.15,5.93-6.4,8.92-9.55-6.18,6.07-15.19,7.94-23.56,10.11S194,80,189.65,87.45c-6.52-1.57-14.39-.17-19.39,4.3a17.23,17.23,0,0,1,9-2.13,30.94,30.94,0,0,0-8.94,6.66c-.36.39-.72.8-1.06,1.21a35.44,35.44,0,0,0-6.48,4.38c-6.54,5.57-11.51,13.65-17.17,20.11a14.65,14.65,0,0,0,11.53-3.38,38.77,38.77,0,0,0-6.95,26.76c1.08,9.37,7.37,18.13,14.47,24.33a29.76,29.76,0,0,1,3.52-40.88c5.35-4.74,12.21-7.38,18.26-11.2s12.91-8.52,13.29-15.67c1.3,7.71,9.81,12.33,17.63,12.53s15.32-2.79,22.92-4.61a78.68,78.68,0,0,1,14.33-2,63.51,63.51,0,0,1,20.23,8.44c5.31,3.41,10.1,7.6,15.49,10.88a34.65,34.65,0,0,0,11.23,4.58,41.82,41.82,0,0,1,.57,32.58,28.71,28.71,0,0,0,9.36-21,28.31,28.31,0,0,0-2.44-11.43C315,130.8,320.59,126.25,321.35,120.26Z" />
      <path class="BUNTAI_WALRUS_BODY_BUNTAI_WALRUS_BODY-23_cls-4" d="M169.26,97.49a35.44,35.44,0,0,0-6.48,4.38c-6.54,5.57-11.51,13.65-17.17,20.11a14.65,14.65,0,0,0,11.53-3.38,38.77,38.77,0,0,0-6.95,26.76c1.08,9.37,7.37,18.13,14.47,24.33a29.76,29.76,0,0,1,3.52-40.88c5.35-4.74,12.21-7.38,18.26-11.2s12.91-8.52,13.29-15.67c1.3,7.71,9.81,12.33,17.63,12.53s15.32-2.79,22.92-4.61a78.84,78.84,0,0,1,38.82.6" />
      <path class="BUNTAI_WALRUS_BODY_BUNTAI_WALRUS_BODY-23_cls-4" d="M292.67,101.18l6.53,8.67c2.62,3.49,5.36,7.09,9.18,9.24s9.7,4.08,13,1.17c-.76,6-6.33,10.54-12.3,11.61-.27,0-.53.09-.8.12a21.15,21.15,0,0,1-6.69-.27,34.65,34.65,0,0,1-11.23-4.58c-5.39-3.28-10.18-7.47-15.49-10.88a63.51,63.51,0,0,0-20.23-8.44" />
      <path class="BUNTAI_WALRUS_BODY_BUNTAI_WALRUS_BODY-23_cls-4" d="M283.83,89.41l8.84,11.75" />
      <path class="BUNTAI_WALRUS_BODY_BUNTAI_WALRUS_BODY-23_cls-4" d="M292.67,101.18v0c-1.63-5.79-4-11.3-8-15.7-4.95-5.41-11.94-8.51-19-10.49A81,81,0,0,0,226,74c3-3.15,5.93-6.4,8.92-9.55-6.18,6.07-15.19,7.94-23.56,10.11S194,80,189.65,87.45c-6.52-1.57-14.39-.17-19.39,4.3a17.23,17.23,0,0,1,9-2.13" />
      <path class="BUNTAI_WALRUS_BODY_BUNTAI_WALRUS_BODY-23_cls-4" d="M163.21,109.17a30.84,30.84,0,0,1,6-11.68c.34-.41.7-.82,1.06-1.21a30.94,30.94,0,0,1,8.94-6.66" />
      <path class="BUNTAI_WALRUS_BODY_BUNTAI_WALRUS_BODY-23_cls-4" d="M309.05,131.87a28.31,28.31,0,0,1,2.44,11.43,28.71,28.71,0,0,1-9.36,21,41.82,41.82,0,0,0-.57-32.58" />
      <g class="BUNTAI_WALRUS_BODY_BUNTAI_WALRUS_BODY-23_cls-14">
        <path d="M162.11,165.93s-13.14-13.84-4.85-32.19,26.93-29.19,28-30.93c-22.34,12.58-30,20.67-38.77,19.25,9.62-4.23,22-11.74,34.18-20.3s18.11-7.68,19.06.18c3.74-9.79,28.26-13.13,41.42-6.66s27.94,13.75,38,15.18L265.62,108s15.36,5.36,24,10.9,25.57,11.61,31.77,1.32c-1,5.61-6.65,12.25-16,12.34,3.32,12.06,2.81,26.08-1.78,30.3.82-22.11-2.5-31.18-2.5-31.18s-7.89-1.86-25.32-15.06c-15.14-7.74-21.14-9-21.14-9s-7.89,3.13-25.72,5.27-23.48,2.27-29.35-9.46c-3.06,7.33-3.5,9.16-17.13,16.59s-23.2,14.7-23.91,28.56C157.85,157.16,162.11,165.93,162.11,165.93Z" />
        <path d="M177.56,90.53s14.2-3.39,21.65,4.18c-3.84-7.57,3.85-13.28,14.92-17.59s15.14-7.58,15.14-7.58-19.53,4.78-27.88,8.33-11.73,8.92-11.73,8.92A81.56,81.56,0,0,0,174.42,89l3.82-.12Z" />
        <path d="M169.86,96.79s-9.33,15.63-14.57,17.68c11.42-5,14.59-15,21.63-24.07C171.38,95.19,169.86,96.79,169.86,96.79Z" />
        <path d="M242.26,78.86s35.8,2.43,49.53,21.14c-1.68-6.06-8.4-15.19-22.24-18.86A85.54,85.54,0,0,0,242.26,78.86Z" />
      </g>
    </g>
  </g>
</svg>