<svg id="jewelry" xmlns="http://www.w3.org/2000/svg" xmlns:xlink="http://www.w3.org/1999/xlink" viewBox="0 0 432 432">
  <defs>
    <style>.BUNTAI_WALRUS_JEWELRY_BUNTAI_WALRUS_JEWELRY-06_cls-1,.BUNTAI_WALRUS_JEWELRY_BUNTAI_WALRUS_JEWELRY-06_cls-5{fill:none;}.BUNTAI_WALRUS_JEWELRY_BUNTAI_WALRUS_JEWELRY-06_cls-2{clip-path:url(#BUNTAI_WALRUS_JEWELRY_BUNTAI_WALRUS_JEWELRY-06_clip-path);}.BUNTAI_WALRUS_JEWELRY_BUNTAI_WALRUS_JEWELRY-06_cls-3{fill:#754c24;}.BUNTAI_WALRUS_JEWELRY_BUNTAI_WALRUS_JEWELRY-06_cls-3,.BUNTAI_WALRUS_JEWELRY_BUNTAI_WALRUS_JEWELRY-06_cls-5,.BUNTAI_WALRUS_JEWELRY_BUNTAI_WALRUS_JEWELRY-06_cls-6,.BUNTAI_WALRUS_JEWELRY_BUNTAI_WALRUS_JEWELRY-06_cls-7{stroke:#000;}.BUNTAI_WALRUS_JEWELRY_BUNTAI_WALRUS_JEWELRY-06_cls-3,.BUNTAI_WALRUS_JEWELRY_BUNTAI_WALRUS_JEWELRY-06_cls-6,.BUNTAI_WALRUS_JEWELRY_BUNTAI_WALRUS_JEWELRY-06_cls-7{stroke-miterlimit:10;}.BUNTAI_WALRUS_JEWELRY_BUNTAI_WALRUS_JEWELRY-06_cls-3,.BUNTAI_WALRUS_JEWELRY_BUNTAI_WALRUS_JEWELRY-06_cls-5{stroke-width:1.17px;}.BUNTAI_WALRUS_JEWELRY_BUNTAI_WALRUS_JEWELRY-06_cls-4,.BUNTAI_WALRUS_JEWELRY_BUNTAI_WALRUS_JEWELRY-06_cls-6{fill:#333;}.BUNTAI_WALRUS_JEWELRY_BUNTAI_WALRUS_JEWELRY-06_cls-5{stroke-linecap:round;stroke-linejoin:round;}.BUNTAI_WALRUS_JEWELRY_BUNTAI_WALRUS_JEWELRY-06_cls-6,.BUNTAI_WALRUS_JEWELRY_BUNTAI_WALRUS_JEWELRY-06_cls-7{stroke-width:0.89px;}.BUNTAI_WALRUS_JEWELRY_BUNTAI_WALRUS_JEWELRY-06_cls-7{fill:#fff;}</style>
    <clipPath id="clip-path">
      <path class="BUNTAI_WALRUS_JEWELRY_BUNTAI_WALRUS_JEWELRY-06_cls-1" d="M-6.89-3.42v441H443.29v-441Zm321.36,270.9a.93.93,0,0,1-.59.21,1,1,0,0,1-.68-.28,25,25,0,0,1-4.38-6.56c-.48,8.51-1.27,18.22-2.5,23.12a1,1,0,0,1-.94.73h-.14a1,1,0,0,1-.82-1c.07-2.06.16-5.08.18-8.62a52.61,52.61,0,0,1-2,7.72c.07,6.19-.69,7.94-.77,8.12a1,1,0,0,1-.87.54h-.08a1,1,0,0,1-.85-.7,54.24,54.24,0,0,0-6.15-12.86l-3.59-2.16c-.63,3-1.3,6-2,9-.37,17.11-1,41.18-1.77,58.86a198.36,198.36,0,0,1-5.17,36.19.05.05,0,0,1,0,0c-.08.38-.18.76-.26,1.14l-.41,1.62c-3.93,16-10.43,33.75-13.44,33.75-2.42,0-2.54-1.74-3.05-9.06l-.4-5.52a1.11,1.11,0,0,1,0-.17c-.41-5.35-1-11.16-1.7-17.67-.1-.94-.21-2-.32-3l-.05-.53c-.07-.67-.13-1.37-.2-2.08l-.09-1c0-.43-.08-.86-.12-1.31l-.13-1.46c-.39-4.49-.8-9.82-1.22-15.86l-.22-3.14c0-.12,0-.18,0-.23-.25-3.7-.51-7.61-.76-11.61l-.18-2.88c-.19-2.91-.37-5.86-.54-8.83-.07-.94-.12-1.9-.18-2.86v-.25c-.38-6.48-.75-13-1.1-19.21l.95-.17-1,.06c0-.06,0-.12,0-.17a.86.86,0,0,1,0-.16s0-.09,0-.13v-.26c0-.14,0-.24,0-.31s0-.27,0-.42V308l0-.5a.66.66,0,0,1,0-.14c0-.17,0-.43,0-.68l0-.52c-.31-5.66-.6-11.06-.86-16l-.14-2.64c-.21-4-.4-7.7-.55-10.89l-.17-3.36c-.29-5.9-.46-9.45-.46-9.45l-.54-9.16a18.64,18.64,0,0,1-2.21,1.44l-.07,0h0a22.3,22.3,0,0,1-7.52,2.43,29,29,0,0,1-3.94.27,30.26,30.26,0,0,1-9.77-1.58l-.08,0a24.67,24.67,0,0,1-8.79-5.1l-.24.19-.44.34-.16.13-.09.06-.06,0-.71.52c-.08,4.76-.19,10.72-.33,17.42l-.08,4.11c-.06,3.41-.14,7-.22,10.61l-.06,2.58c0,1.1,0,2.2-.07,3.32-.12,5-.25,10.12-.38,15.18l-.1,3.69c-.17,6.26-.36,12.44-.56,18.29,0,.56,0,1.13-.05,1.69l-.12,3.41c0,.84-.06,1.67-.1,2.49l-.2,5c0,.75-.06,1.48-.1,2.2v.14c-.17,3.75-.41,7.42-.73,11,0,.37-.06.74-.1,1.1s-.05.7-.09,1.07a2.11,2.11,0,0,0,0,.32c-.06.58-.11,1.09-.17,1.61-.08.8-.16,1.61-.26,2.42-.31,2.82-.68,5.73-1.13,8.86a4.19,4.19,0,0,1-.08.56c-.11.76-.22,1.53-.34,2.28-.23,1.51-.46,3-.71,4.46l-.06.34c-.17,1-.34,2-.52,3-2.79,15.6-6.23,27.62-8.42,32.6-1,2.35-1.75,3.22-2.66,3.22-1.33,0-2.41-.74-3.31-2.28a7.16,7.16,0,0,1-.35-.66,27.35,27.35,0,0,1-1.67-4.87.19.19,0,0,0,0-.07c-.11-.48-.23-1-.36-1.52l.91-.34-.93.24s0-.1,0-.11c0-.19-.08-.41-.13-.62C195.21,401,194.14,393.76,193,384l-.08-.71c-.06-.55-.12-1.11-.17-1.68s-.11-1-.16-1.51a.53.53,0,0,1,0-.15c-.54-5.39-1.1-12.27-1.73-21.12,0-.26,0-.49,0-.72-.06-.83-.12-1.65-.17-2.48l0-.38c-.09-1.2-.17-2.44-.25-3.68,0-.31,0-.65-.07-1q-.21-3-.4-6.07l-.15-2.29c-.05-.72-.09-1.43-.13-2.12,0-.49-.07-1-.1-1.53l-.12-1.91a1.68,1.68,0,0,1,0-.2c0-.08,0-.25,0-.4s0-.4,0-.64c0-.51-.08-1.05-.11-1.59l0-.75c-.08-1.25-.16-2.52-.23-3.78,0-.59-.08-1.21-.12-1.82-.21-3.73-.43-7.47-.64-11.15-.06-1-.12-2.06-.17-3.09-.13-2.16-.25-4.31-.36-6.42-.05-.81-.09-1.6-.14-2.4l0-.81c-.17-3.1-.33-6.14-.48-9.05l-.08-1.45c-.06-1.22-.13-2.41-.18-3.57l-.08-1.39-.09-1.76,0-.73c-.05-.92-.09-1.82-.13-2.7,0-.47,0-.93-.07-1.4a1.47,1.47,0,0,1,0-.27l-.19-3.82v-.11l-.23-4.78c0-.32,0-.61,0-.91l0-.79-1.43.58-1.34.51a3.05,3.05,0,0,1-.29.11l-.25.09-1,.36-.18.07-.29.1-.22.07-.15,0-.13.05-.1,0-.27.08h0l0,0-.11,0-.23.06h0l-.33.11h0l-.23.08a.88.88,0,0,1-.15,0l-.26.07-.16,0-.24.08-.13,0h0l-11,4.43a47.92,47.92,0,0,0-9.2,12.85,1,1,0,0,1-.78.58h-.11a1,1,0,0,1-.78-.4c-.22-.3-1.29-2.1-1.2-8.19a49,49,0,0,1-4-11.39c0,5.08.13,9.48.28,12.2a1,1,0,0,1-.76,1l-.2,0a1,1,0,0,1-.9-.63c-1.93-5.15-3.14-15.57-3.85-24.38a34.29,34.29,0,0,1-3.65,4.62,22.51,22.51,0,0,1-3.76,3.21.91.91,0,0,1-.54.17,1,1,0,0,1-.73-.33,1,1,0,0,1,0-1.28,17.85,17.85,0,0,0,2.82-4.47v0c4.09-8.93,3.82-22.41,3.7-28.16v-.53a26.44,26.44,0,0,1,3.94-13.81,83.21,83.21,0,0,1,3.71-15.81l-.09-.17a1,1,0,0,1-.13-.47,1,1,0,0,1,.82-.94,2.44,2.44,0,0,0,.1-.24,14.72,14.72,0,0,1,3-4.29c.08-.27.16-.55.24-.85l.32-1c.27-.88.57-1.81.89-2.72s.66-1.77,1-2.5l.13-.27c.06-.14.12-.26.18-.38v0c0-.16,0-.33,0-.49a1.1,1.1,0,0,1,0-.18c-.1-1.55-.17-3.3-.21-5.56v-1.34c0-1.76,0-3.7,0-5.84v-.25c0-.4,0-.78,0-1.17v-.47c0-1.34,0-2.51-.12-3.58s-.19-2.12-.35-3.13c0,0,0-.1,0-.12-.18-1.18-.4-2.35-.69-3.72-.14-.63-.27-1.25-.41-1.87a1.42,1.42,0,0,1,0-.2l-.23-1.1s0-.1,0-.11v0a1.13,1.13,0,0,1,0-.18v0a.7.7,0,0,1,0-.14l-.19-1s0,0,0-.06a44.1,44.1,0,0,1-.64-5.67l0-.67c-.05-1.73,0-3.5.12-5.42.51-7.72,3.1-13.73,8.15-18.92.23-.24.48-.49.73-.73a52.12,52.12,0,0,1,8.85-6.71,31.48,31.48,0,0,1,5.13-9.79,1.46,1.46,0,0,1,.15-.2,31.86,31.86,0,0,1,10.58-8.9c15.19-7.94,35.31-16.16,56.36-9.18l3.7.51c15.92,2.16,28.48,3.87,36,17.3a37.94,37.94,0,0,1,2.32,4.9l.19.16q.41.34.81.72l0,0,0,0c.58.52,1.18,1,1.76,1.58a82,82,0,0,1,7.67,7.88c.26.32.47.58.66.83s.42.53.61.79l.21.29c.11.17.23.33.33.49a14.06,14.06,0,0,1,.89,1.47l.12.21c3.22,6.08,4.55,8.6,3.49,24.53,0,.55-.07,1.1-.1,1.64s-.07,1.07-.09,1.6-.06,1-.09,1.55v.05h0c-.06,1-.11,2-.16,3-.25,5.42-.4,10.79-.45,16,0,.6,0,1.2,0,1.8,0,2.15,0,4.26,0,6.31,0,1.33,0,2.62.06,3.9h0c0,1.3.06,2.59.1,3.84,0,.24,0,.45,0,.65a.92.92,0,0,1,0,.16c0,.23,0,.47,0,.69,0,.48,0,.9.05,1.32l0,.62a5.73,5.73,0,0,1,.38.62l0,.06.38.68a5.64,5.64,0,0,1,.26.55,1.17,1.17,0,0,1,.1.2c.06.14.12.26.17.4l.08.19c0,.09.1.25.16.4s.11.32.15.45.1.3.16.5.17.65.26,1l.12.46.13.55c.17.73.33,1.44.49,2.17.07.33.14.69.2,1,.11.53.19,1,.27,1.44a0,0,0,0,0,0,0,.09.09,0,0,0,0,.05c.05.27.1.56.14.83l0,.11v0c.1.55.19,1.11.27,1.66s.16,1.09.25,1.66.13.94.19,1.42a7.07,7.07,0,0,1,.09.72c.05.33.09.7.13,1.07l.06.47s0,.08,0,.12l.11.95v.11c.05.42.1.93.15,1.43l0,.29a36.27,36.27,0,0,1,2.62,13.71v.52c-.09,6.81-.33,24.89,4.39,32.82A1,1,0,0,1,314.47,267.48Z" />
    </clipPath>
  </defs>
  <g class="BUNTAI_WALRUS_JEWELRY_BUNTAI_WALRUS_JEWELRY-06_cls-2">
    <path class="BUNTAI_WALRUS_JEWELRY_BUNTAI_WALRUS_JEWELRY-06_cls-3" d="M316.53,176.9c.44,8.61.15,27-5.48,40.59-9.71,23.36-30.79,54.44-76.22,71.68h0c-.74.28-1.5.57-2.26.84h0l-1.41.5a1.64,1.64,0,0,1-.54.08,1.69,1.69,0,0,1-.38,0c-.65-.17-1.3-.32-1.94-.5h-.11l-1.7-.46-.45-.11c-42.95-12-64.62-42.77-75.29-66.87-11.88-26.88-10.51-49.83-10.51-50.07-.13-4.4,3.06-6.58,5.15-4.55l-1.88,1.92a123.68,123.68,0,0,0,10.21,51.5c10.38,23.42,31.44,53.32,73.11,65L229,287h0l1.52.39c.41-.14.81-.29,1.22-.45l.14,0c.66-.24,1.32-.48,2-.73l.06,0c44.25-16.84,64.75-47.11,74.21-69.84,6.26-15.07,5.26-39,5.49-42.63l-1.44-1.6C313.31,171.31,316,170.86,316.53,176.9Z" />
    <path class="BUNTAI_WALRUS_JEWELRY_BUNTAI_WALRUS_JEWELRY-06_cls-4" d="M226.88,286.25l2.16.59s2.26-1.27,3.18.51.49,3.06-.71,3.62-3,.07-3.32-.91a4.46,4.46,0,0,0-2.08-.46s.87,3.34,3.76,3.63a4.25,4.25,0,0,0,4.95-3.88,4.12,4.12,0,0,0-2.33-4.31A4.38,4.38,0,0,0,226.88,286.25Z" />
    <path class="BUNTAI_WALRUS_JEWELRY_BUNTAI_WALRUS_JEWELRY-06_cls-5" d="M226,289.48a4.4,4.4,0,0,0,3.95,3.86,3.17,3.17,0,0,0,.44,0,4.43,4.43,0,0,0,3-1.12,4.36,4.36,0,0,0,1.46-3.07,1,1,0,0,0,0-.24,4.4,4.4,0,0,0-4.43-4.42,4.38,4.38,0,0,0-3.6,1.86L229,287a2.42,2.42,0,0,1,1.41-.45,2.29,2.29,0,0,1,1.32.4,2.38,2.38,0,0,1,1.1,2,2.46,2.46,0,0,1-.26,1.08,2.41,2.41,0,0,1-4.29.07h0Z" />
    <path class="BUNTAI_WALRUS_JEWELRY_BUNTAI_WALRUS_JEWELRY-06_cls-6" d="M195,288.39l1.53.53,3.32,1.12,1.16.38,1.54.5.33.11,1.12.35,2.54.79,1.85.55,2.3.65.73.2.79.21,1.65.41.89.21,1,.22c.56-1.88,1.14-3.5,1.14-3.5l-1-.28h0l-.71-.2-.32-.08-1.93-.53-1.42-.4-1.95-.54-2.9-.82-1.16-.33-1.88-.57-.5-.15-.73-.23-1.09-.35-1.36-.44-.83-.28-1.22-.41-.09,0-1.85-.63a7,7,0,0,0-1.16,2A2.58,2.58,0,0,0,195,288.39Z" />
    <polyline class="BUNTAI_WALRUS_JEWELRY_BUNTAI_WALRUS_JEWELRY-06_cls-7" points="216.92 291.12 217.86 288.81 218.45 288.93 217.99 291.65 217.41 291.53 216.59 294.39 217.13 294.5 215.85 296.9 215.41 296.71 215.78 294.62" />
    <line class="BUNTAI_WALRUS_JEWELRY_BUNTAI_WALRUS_JEWELRY-06_cls-7" x1="218.98" y1="291.85" x2="217.99" y2="291.65" />
    <line class="BUNTAI_WALRUS_JEWELRY_BUNTAI_WALRUS_JEWELRY-06_cls-7" x1="218.2" y1="294.72" x2="217.13" y2="294.5" />
    <path class="BUNTAI_WALRUS_JEWELRY_BUNTAI_WALRUS_JEWELRY-06_cls-7" d="M215.89,290.84s-.76,2.21-1.12,3.56" />
    <path class="BUNTAI_WALRUS_JEWELRY_BUNTAI_WALRUS_JEWELRY-06_cls-7" d="M196.56,288.92a11.37,11.37,0,0,1,1.33-3.41" />
    <path class="BUNTAI_WALRUS_JEWELRY_BUNTAI_WALRUS_JEWELRY-06_cls-7" d="M197.19,289.14s1-1.47,1.91-3.22" />
    <path class="BUNTAI_WALRUS_JEWELRY_BUNTAI_WALRUS_JEWELRY-06_cls-7" d="M200,286.2a6.51,6.51,0,0,1-1.16,3.48" />
    <path class="BUNTAI_WALRUS_JEWELRY_BUNTAI_WALRUS_JEWELRY-06_cls-7" d="M202.39,287a21.13,21.13,0,0,1-1.36,3.43" />
    <path class="BUNTAI_WALRUS_JEWELRY_BUNTAI_WALRUS_JEWELRY-06_cls-7" d="M201.3,286.64a5.81,5.81,0,0,1-1.43,3.4" />
    <path class="BUNTAI_WALRUS_JEWELRY_BUNTAI_WALRUS_JEWELRY-06_cls-7" d="M203.12,287.22a17,17,0,0,1-.15,3.36c0,.14,0,.3-.07.45" />
    <path class="BUNTAI_WALRUS_JEWELRY_BUNTAI_WALRUS_JEWELRY-06_cls-7" d="M202.57,290.92l.4-.34a18,18,0,0,0,2.53-2.64" />
    <path class="BUNTAI_WALRUS_JEWELRY_BUNTAI_WALRUS_JEWELRY-06_cls-7" d="M206.66,288.27l-.21.3a20.88,20.88,0,0,1-2.43,2.81" />
    <path class="BUNTAI_WALRUS_JEWELRY_BUNTAI_WALRUS_JEWELRY-06_cls-7" d="M206.45,288.57a5.3,5.3,0,0,1,.24,2.34,12.48,12.48,0,0,1-.13,1.26" />
    <path class="BUNTAI_WALRUS_JEWELRY_BUNTAI_WALRUS_JEWELRY-06_cls-7" d="M206.69,290.91a7.41,7.41,0,0,0,1.81-1l.49-.37c.21-.16.4-.32.57-.47" />
    <path class="BUNTAI_WALRUS_JEWELRY_BUNTAI_WALRUS_JEWELRY-06_cls-7" d="M208.5,289.93a7.61,7.61,0,0,1-.09,2.79" />
    <path class="BUNTAI_WALRUS_JEWELRY_BUNTAI_WALRUS_JEWELRY-06_cls-7" d="M211.51,289.63a7.73,7.73,0,0,1-.46,2.92,7.93,7.93,0,0,1-.34.82" />
    <path class="BUNTAI_WALRUS_JEWELRY_BUNTAI_WALRUS_JEWELRY-06_cls-7" d="M209,289.56a13.3,13.3,0,0,1,2.06,3" />
    <path class="BUNTAI_WALRUS_JEWELRY_BUNTAI_WALRUS_JEWELRY-06_cls-7" d="M215.18,290.64a11.82,11.82,0,0,1-1.3,3.55" />
    <path class="BUNTAI_WALRUS_JEWELRY_BUNTAI_WALRUS_JEWELRY-06_cls-7" d="M214.86,290.56a12.59,12.59,0,0,1-2.63,3.22" />
    <line class="BUNTAI_WALRUS_JEWELRY_BUNTAI_WALRUS_JEWELRY-06_cls-7" x1="211.44" y1="293.57" x2="212.93" y2="290.03" />
    <path class="BUNTAI_WALRUS_JEWELRY_BUNTAI_WALRUS_JEWELRY-06_cls-7" d="M270.4,295.7A44.82,44.82,0,0,1,255,299.11c-16,1.09-34.17-3-37-3.64l1.19-4.34c2.55.6,26.83,7.2,52.31,1.84C272.86,292.68,271.65,295.12,270.4,295.7Z" />
    <line class="BUNTAI_WALRUS_JEWELRY_BUNTAI_WALRUS_JEWELRY-06_cls-7" x1="219.18" y1="291.13" x2="217.99" y2="295.47" />
  </g>
</svg>