<svg id="jewelries" xmlns="http://www.w3.org/2000/svg" viewBox="0 0 432 432">
  <defs>
    <style>.BUNTAI_PUMA_JEWELRY_PUMA_JEWELRY_28_cls-1,.BUNTAI_PUMA_JEWELRY_PUMA_JEWELRY_28_cls-4{fill:none;stroke-linecap:round;stroke-linejoin:round;}.BUNTAI_PUMA_JEWELRY_PUMA_JEWELRY_28_cls-1,.BUNTAI_PUMA_JEWELRY_PUMA_JEWELRY_28_cls-4,.BUNTAI_PUMA_JEWELRY_PUMA_JEWELRY_28_cls-5{stroke:#000;}.BUNTAI_PUMA_JEWELRY_PUMA_JEWELRY_28_cls-1{stroke-width:1.59px;}.BUNTAI_PUMA_JEWELRY_PUMA_JEWELRY_28_cls-2{fill:#c0c380;}.BUNTAI_PUMA_JEWELRY_PUMA_JEWELRY_28_cls-3{fill:#057948;}.BUNTAI_PUMA_JEWELRY_PUMA_JEWELRY_28_cls-4{stroke-width:1.17px;}.BUNTAI_PUMA_JEWELRY_PUMA_JEWELRY_28_cls-5{fill:#ad7d2f;stroke-miterlimit:10;stroke-width:1.96px;}</style>
  </defs>
  <line class="BUNTAI_PUMA_JEWELRY_PUMA_JEWELRY_28_cls-1" x1="243.73" y1="374.26" x2="243.73" y2="378.73" />
  <path class="BUNTAI_PUMA_JEWELRY_PUMA_JEWELRY_28_cls-2" d="M262.4,413a9.06,9.06,0,0,1-2.28,5.54l-1.58.7h0l-9.85,6.12a21.4,21.4,0,0,0-4.56,4.57,20.89,20.89,0,0,0-4.56-4.57l-9.86-6.13-1.58-.7a9.06,9.06,0,0,1-2.28-5.54,18.13,18.13,0,0,0,2.19,1.32,10.09,10.09,0,0,1-1.82-6.16,17.17,17.17,0,0,1,1.84-7.7c1.21-2,5.11-6.39,5.48-8.56-1.75-2-2.39-4.78,1-4.78s4,2.52,4,2.52h-2s-.69-.77-1.34-.46.27,1,.83,2.21-.3,3-1.48,4.4a28,28,0,0,1,6.37-4.3v-2.41a79,79,0,0,1-2.56-7.66,2.07,2.07,0,0,1,1.21-2.65h9.12a2.08,2.08,0,0,1,1.22,2.65,79,79,0,0,1-2.56,7.66v2.41a27.78,27.78,0,0,1,6.37,4.3c-1.17-1.41-2-3.15-1.48-4.4s1.48-1.89.83-2.21-1.34.46-1.34.46h-2s.57-2.52,4-2.52,2.75,2.81,1,4.78c.37,2.17,4.27,6.6,5.46,8.56s3.5,9.26,0,13.86A18.94,18.94,0,0,0,262.4,413Z" />
  <path class="BUNTAI_PUMA_JEWELRY_PUMA_JEWELRY_28_cls-3" d="M243.56,396s-9.42,2.74-10.69,9.37,3.33,13.06,10.51,13.06,10.37-3.35,10.72-4.46-.56,1.62.61-3.17,1.24-6.74-2.38-10.29A19,19,0,0,0,243.56,396Z" />
  <path class="BUNTAI_PUMA_JEWELRY_PUMA_JEWELRY_28_cls-4" d="M249,417.88h0c4.33-1.68,6.9-5.72,6.9-11.17,0-7.27-11.8-11.29-11.8-11.29s-11.81,4-11.81,11.29c0,5.45,2.57,9.49,6.9,11.17h0" />
  <path class="BUNTAI_PUMA_JEWELRY_PUMA_JEWELRY_28_cls-4" d="M239.21,417.88a13.46,13.46,0,0,0,4.9.85" />
  <path class="BUNTAI_PUMA_JEWELRY_PUMA_JEWELRY_28_cls-4" d="M255.36,416.15c.35-.52,1.83-3,1.83-9.74,0-7.62-13.09-14.78-13.09-14.78S231,398.79,231,406.41c0,6.72,1.48,9.22,1.84,9.74-5-5.84-4.67-12.06-1.39-16.92a19,19,0,0,1,3.05-3.47,28,28,0,0,1,6.37-4.3v-2.41a79,79,0,0,1-2.56-7.66,2.07,2.07,0,0,1,1.21-2.65h9.12a2.08,2.08,0,0,1,1.22,2.65,79,79,0,0,1-2.56,7.66v2.41a27.78,27.78,0,0,1,6.37,4.3,19,19,0,0,1,3.05,3.47C260,404.09,260.37,410.31,255.36,416.15Z" />
  <path class="BUNTAI_PUMA_JEWELRY_PUMA_JEWELRY_28_cls-4" d="M232.91,416.22v0h0a62,62,0,0,0,6.27,1.62" />
  <path class="BUNTAI_PUMA_JEWELRY_PUMA_JEWELRY_28_cls-4" d="M234.52,395.76c1.18-1.41,2-3.15,1.48-4.4s-1.48-1.89-.83-2.21,1.34.46,1.34.46h2s-.57-2.52-4-2.52-2.76,2.81-1,4.78c-.37,2.17-4.27,6.6-5.48,8.56a17.17,17.17,0,0,0-1.84,7.7,10.09,10.09,0,0,0,1.82,6.16c.18.25.4.48.61.72" />
  <path class="BUNTAI_PUMA_JEWELRY_PUMA_JEWELRY_28_cls-4" d="M239.21,417.87h0a60.3,60.3,0,0,1-6.27-1.63,33.39,33.39,0,0,1-4.92-1.95,18.13,18.13,0,0,1-2.19-1.32,9.06,9.06,0,0,0,2.28,5.54l1.58.7c3.19,1.36,10.44,4.29,14.42,4.29v-4.77" />
  <path class="BUNTAI_PUMA_JEWELRY_PUMA_JEWELRY_28_cls-4" d="M229.68,419.21l9.86,6.13a20.89,20.89,0,0,1,4.56,4.57V423.5" />
  <path class="BUNTAI_PUMA_JEWELRY_PUMA_JEWELRY_28_cls-4" d="M244.11,418.73a13.44,13.44,0,0,0,4.89-.85" />
  <path class="BUNTAI_PUMA_JEWELRY_PUMA_JEWELRY_28_cls-4" d="M255.28,416.25h0l0,0" />
  <path class="BUNTAI_PUMA_JEWELRY_PUMA_JEWELRY_28_cls-4" d="M260.2,414.29h0c3.46-4.6,1.1-12,0-13.86s-5.09-6.39-5.46-8.56c1.73-2,2.38-4.78-1-4.78s-4,2.52-4,2.52h2s.7-.77,1.34-.46-.28,1-.83,2.21.31,3,1.48,4.4" />
  <path class="BUNTAI_PUMA_JEWELRY_PUMA_JEWELRY_28_cls-4" d="M244.1,418.73v4.77a26.85,26.85,0,0,0,7.52-1.64c2.69-.89,5.29-2,6.89-2.64h0l1.58-.7A9.06,9.06,0,0,0,262.4,413a18.94,18.94,0,0,1-2.19,1.32h0a33.26,33.26,0,0,1-4.91,1.95h0a59.66,59.66,0,0,1-6.27,1.63" />
  <path class="BUNTAI_PUMA_JEWELRY_PUMA_JEWELRY_28_cls-4" d="M244.1,423.5v6.41a21.4,21.4,0,0,1,4.56-4.57l9.85-6.12h0" />
  <path class="BUNTAI_PUMA_JEWELRY_PUMA_JEWELRY_28_cls-5" d="M247.51,375c-70.61,0-117.06-67.19-118.63-70.23-5.63-9.58,4.49-10.71,8.79-6.9-1.32.82-1.62,1.28-3.79,2.75,9.63,13.18,56,69.34,115.56,69.34l2.4,0c12.36-.29,23.27-3.62,32.43-9.89,21.47-14.7,28.79-42.75,30.24-48.48a41,41,0,0,0-4-2.11c5.39-4.36,11-1.71,10.09,5-.18,1.36-6.17,30.81-32.43,48.8-10.86,7.43-23.65,11.37-38,11.72Z" />
</svg>