<svg id="jewelries" xmlns="http://www.w3.org/2000/svg" viewBox="0 0 432 432">
  <defs>
    <style>.BUNTAI_PUMA_JEWELRY_PUMA_JEWELRY_7_cls-1{fill:#c7a858;}.BUNTAI_PUMA_JEWELRY_PUMA_JEWELRY_7_cls-2{fill:#fff;}.BUNTAI_PUMA_JEWELRY_PUMA_JEWELRY_7_cls-3,.BUNTAI_PUMA_JEWELRY_PUMA_JEWELRY_7_cls-7{fill:none;stroke-linecap:round;stroke-linejoin:round;}.BUNTAI_PUMA_JEWELRY_PUMA_JEWELRY_7_cls-3,.BUNTAI_PUMA_JEWELRY_PUMA_JEWELRY_7_cls-4,.BUNTAI_PUMA_JEWELRY_PUMA_JEWELRY_7_cls-7{stroke:#000;}.BUNTAI_PUMA_JEWELRY_PUMA_JEWELRY_7_cls-3,.BUNTAI_PUMA_JEWELRY_PUMA_JEWELRY_7_cls-4{stroke-width:0.92px;}.BUNTAI_PUMA_JEWELRY_PUMA_JEWELRY_7_cls-4{fill:#754c24;stroke-miterlimit:10;}.BUNTAI_PUMA_JEWELRY_PUMA_JEWELRY_7_cls-5{fill:#333;}.BUNTAI_PUMA_JEWELRY_PUMA_JEWELRY_7_cls-6{fill:#39b54a;}.BUNTAI_PUMA_JEWELRY_PUMA_JEWELRY_7_cls-7{stroke-width:0.86px;}</style>
  </defs>
  <path class="BUNTAI_PUMA_JEWELRY_PUMA_JEWELRY_7_cls-1" d="M241.69,389.43a15.27,15.27,0,0,0-10.17-14.12,17.07,17.07,0,0,0-6.06-1.1c-9,0-16.24,6.82-16.24,15.22A15.39,15.39,0,0,0,220.62,404a17.47,17.47,0,0,0,4.84.68C234.42,404.66,241.69,397.85,241.69,389.43Zm-16.23-17c10,0,18.13,7.62,18.13,17s-8.12,17-18.13,17-18.14-7.62-18.14-17S215.44,372.42,225.46,372.42Z" />
  <path class="BUNTAI_PUMA_JEWELRY_PUMA_JEWELRY_7_cls-2" d="M231.52,375.31a15.27,15.27,0,0,1,10.17,14.12c0,8.42-7.27,15.23-16.23,15.23a17.47,17.47,0,0,1-4.84-.68c-5.83-7.81,3.35-12.34,9.75-16.34S231.52,375.31,231.52,375.31Zm-3.15,23.11a2.92,2.92,0,1,0-2.91,2.73A2.83,2.83,0,0,0,228.37,398.42Z" />
  <path d="M231.52,375.31s5.26,8.32-1.15,12.33-15.58,8.53-9.75,16.34a15.39,15.39,0,0,1-11.4-14.55c0-8.4,7.27-15.22,16.24-15.22A17.07,17.07,0,0,1,231.52,375.31Zm-3.15,7.08a2.92,2.92,0,1,0-2.91,2.73A2.83,2.83,0,0,0,228.37,382.39Z" />
  <path class="BUNTAI_PUMA_JEWELRY_PUMA_JEWELRY_7_cls-3" d="M231.52,375.31a15.27,15.27,0,0,1,10.17,14.12c0,8.42-7.27,15.23-16.23,15.23a17.47,17.47,0,0,1-4.84-.68,15.39,15.39,0,0,1-11.4-14.55c0-8.4,7.27-15.22,16.24-15.22A17.07,17.07,0,0,1,231.52,375.31Z" />
  <path class="BUNTAI_PUMA_JEWELRY_PUMA_JEWELRY_7_cls-3" d="M228.37,382.39a2.92,2.92,0,1,1-2.91-2.73A2.83,2.83,0,0,1,228.37,382.39Z" />
  <path class="BUNTAI_PUMA_JEWELRY_PUMA_JEWELRY_7_cls-3" d="M228.37,398.42a2.92,2.92,0,1,1-2.91-2.73A2.83,2.83,0,0,1,228.37,398.42Z" />
  <path class="BUNTAI_PUMA_JEWELRY_PUMA_JEWELRY_7_cls-3" d="M243.59,389.43c0,9.4-8.12,17-18.13,17s-18.14-7.62-18.14-17,8.12-17,18.14-17S243.59,380,243.59,389.43Z" />
  <path class="BUNTAI_PUMA_JEWELRY_PUMA_JEWELRY_7_cls-3" d="M231.52,375.31s5.26,8.32-1.15,12.33-15.58,8.53-9.75,16.34" />
  <path class="BUNTAI_PUMA_JEWELRY_PUMA_JEWELRY_7_cls-4" d="M297.57,299.49a3.4,3.4,0,0,0-.83-.62,3.84,3.84,0,0,0-3.62-.07l-.7.41,3.27,2c-9.22,19.82-28.3,51.41-66.17,64.94h-.06c-.59.22-1.18.44-1.79.64h0c-.05,0-.07,0-.12.05h0l-1.12.37q-.71-.15-1.41-.33l-2-.52c-38.55-10.12-58-36.06-67.62-56.37a166.54,166.54,0,0,1-6.74-16.92,11.47,11.47,0,0,1,2.82-1.85c-5.52-2-5.58,2.43-5.07,3.67A165,165,0,0,0,152.59,311c9.87,20.93,29.9,47.63,69.65,58l.36.1h0l1.55.38,0,0h.09c.61.13,1.2.28,1.8.42a2.21,2.21,0,0,0,.35,0,1.69,1.69,0,0,0,.5-.08c.43-.14.88-.29,1.3-.45h0l2.08-.72,0,0h0c38-13.52,57.94-45.43,67.58-65.82.07-.15.13-.29.21-.44A3.51,3.51,0,0,0,297.57,299.49Z" />
  <path class="BUNTAI_PUMA_JEWELRY_PUMA_JEWELRY_7_cls-5" d="M223,366.24l2,.52s2.08-1.1,2.94.44.45,2.66-.66,3.14-2.76.07-3.07-.78a4.43,4.43,0,0,0-1.93-.41s.81,2.9,3.48,3.16,4.32-1.31,4.58-3.37a3.55,3.55,0,0,0-2.15-3.75A4.26,4.26,0,0,0,223,366.24Z" />
  <path class="BUNTAI_PUMA_JEWELRY_PUMA_JEWELRY_7_cls-3" d="M222.23,369.05a4,4,0,0,0,3.65,3.35l.41,0a4.22,4.22,0,0,0,2.73-1,3.68,3.68,0,0,0,1.35-2.66.75.75,0,0,0,0-.21,3.67,3.67,0,0,0-.93-2.43,4.18,4.18,0,0,0-3.17-1.4,4.13,4.13,0,0,0-3.33,1.61l2,.52a2.28,2.28,0,0,1,1.3-.4,2.3,2.3,0,0,1,1.23.35,2.05,2.05,0,0,1,1,1.75,2,2,0,0,1-.24.94,2.24,2.24,0,0,1-2,1.17,2.28,2.28,0,0,1-2-1.11h0Z" />
  <path class="BUNTAI_PUMA_JEWELRY_PUMA_JEWELRY_7_cls-6" d="M319.23,151.34c0,4.5,2.28,8.15,5.09,8.15s5.08-3.65,5.08-8.15-2.28-8.16-5.08-8.16S319.23,146.83,319.23,151.34Z" />
  <path class="BUNTAI_PUMA_JEWELRY_PUMA_JEWELRY_7_cls-1" d="M317.83,151.34c0,5.75,2.9,10.39,6.48,10.39s6.49-4.64,6.49-10.39-2.91-10.4-6.49-10.4S317.83,145.59,317.83,151.34Zm1.41,0c0-4.5,2.27-8.16,5.07-8.16s5.09,3.66,5.09,8.16-2.27,8.15-5.09,8.15S319.24,155.84,319.24,151.34Z" />
  <ellipse class="BUNTAI_PUMA_JEWELRY_PUMA_JEWELRY_7_cls-1" cx="324.32" cy="139.2" rx="2.71" ry="1.74" />
  <path class="BUNTAI_PUMA_JEWELRY_PUMA_JEWELRY_7_cls-1" d="M324.39,128.25c1.91,0,1.6-2.6,1.6-2.6h0a5.19,5.19,0,0,1-2.35.5,2.19,2.19,0,0,1-1-.26C322.59,126,322.56,128.25,324.39,128.25Z" />
  <path class="BUNTAI_PUMA_JEWELRY_PUMA_JEWELRY_7_cls-1" d="M321.11,118c-.7,2.32-.55,6.77,1.49,7.89a2.19,2.19,0,0,0,1,.26,5.19,5.19,0,0,0,2.35-.5c1.75-.85,2.63-2.83,2.51-5.83a9.69,9.69,0,0,0-.54-2.94,6.25,6.25,0,0,0-1.7-2.64,2.18,2.18,0,0,0-1.56-.65,2.66,2.66,0,0,0-1.9,1.12,4,4,0,0,0,.84.16h.05a4.84,4.84,0,0,1,2.14,3.29c.54,2.56-.36,5.43-1.65,5.43s-1.45-3.34-1.37-5.1l-.1,0A6.53,6.53,0,0,1,321.11,118Z" />
  <path class="BUNTAI_PUMA_JEWELRY_PUMA_JEWELRY_7_cls-1" d="M326,105.43a7.92,7.92,0,0,0,.12,3.33s2.33,2,1,4.53a2.62,2.62,0,0,1-.84.94,6.25,6.25,0,0,1,1.7,2.64C331.06,114.13,331.31,107.69,326,105.43Z" />
  <path class="BUNTAI_PUMA_JEWELRY_PUMA_JEWELRY_7_cls-1" d="M318.05,113.86a5.5,5.5,0,0,0,3.06,4.12,6.25,6.25,0,0,0,1.6.49h.11a5.86,5.86,0,0,0,3-.31,4.83,4.83,0,0,0-2.14-3.3h-.05a4,4,0,0,1-.84-.16,2.5,2.5,0,0,1-1.77-1.54,2,2,0,0,1-.11-.67c0-2.71,1.07-2.83,1.07-2.83s.06-.15.13-.37a3.51,3.51,0,0,0-2.71-2.29A9.27,9.27,0,0,0,318.05,113.86Z" />
  <path class="BUNTAI_PUMA_JEWELRY_PUMA_JEWELRY_7_cls-7" d="M328,116.87c3.1-2.74,3.52-9.13-2-11.44a5.72,5.72,0,0,0,.12,3.33s2.33,2,1,4.53a2.62,2.62,0,0,1-.84.94" />
  <path class="BUNTAI_PUMA_JEWELRY_PUMA_JEWELRY_7_cls-7" d="M325.83,118.17a5.86,5.86,0,0,1-3,.31h-.11a6.25,6.25,0,0,1-1.6-.49,5.5,5.5,0,0,1-3.06-4.12,9.27,9.27,0,0,1,1.36-6.86" />
  <path class="BUNTAI_PUMA_JEWELRY_PUMA_JEWELRY_7_cls-7" d="M322.12,109.29c-.07.22-.13.37-.13.37s-1,.12-1.07,2.83a2,2,0,0,0,.11.67,2.5,2.5,0,0,0,1.77,1.54,4,4,0,0,0,.84.16" />
  <path class="BUNTAI_PUMA_JEWELRY_PUMA_JEWELRY_7_cls-7" d="M321.11,118c-.7,2.32-.55,6.77,1.49,7.89a2.19,2.19,0,0,0,1,.26,5.19,5.19,0,0,0,2.35-.5c1.75-.85,2.63-2.83,2.51-5.83a9.69,9.69,0,0,0-.54-2.94,6.25,6.25,0,0,0-1.7-2.64,2.18,2.18,0,0,0-1.56-.65,2.66,2.66,0,0,0-1.9,1.12" />
  <path class="BUNTAI_PUMA_JEWELRY_PUMA_JEWELRY_7_cls-7" d="M322.81,118.49c-.08,1.76-.07,5.1,1.37,5.1s2.19-2.87,1.65-5.43a4.84,4.84,0,0,0-2.14-3.29h-.05" />
  <path class="BUNTAI_PUMA_JEWELRY_PUMA_JEWELRY_7_cls-7" d="M326,125.65s.31,2.6-1.6,2.6-1.8-2.22-1.79-2.37h0" />
  <ellipse class="BUNTAI_PUMA_JEWELRY_PUMA_JEWELRY_7_cls-7" cx="324.32" cy="139.2" rx="2.71" ry="1.74" />
  <path class="BUNTAI_PUMA_JEWELRY_PUMA_JEWELRY_7_cls-7" d="M317.83,151.34c0,5.74,2.91,10.39,6.49,10.39s6.48-4.65,6.48-10.39-2.9-10.4-6.48-10.4S317.83,145.59,317.83,151.34Z" />
  <path class="BUNTAI_PUMA_JEWELRY_PUMA_JEWELRY_7_cls-7" d="M319.23,151.34c0,4.5,2.28,8.15,5.09,8.15s5.08-3.65,5.08-8.15-2.28-8.16-5.08-8.16S319.23,146.83,319.23,151.34Z" />
  <line class="BUNTAI_PUMA_JEWELRY_PUMA_JEWELRY_7_cls-7" x1="324.39" y1="128.25" x2="324.39" y2="137.45" />
  <path class="BUNTAI_PUMA_JEWELRY_PUMA_JEWELRY_7_cls-7" d="M323.87,144.92s-3.06,1.11-2.92,6.91" />
  <path class="BUNTAI_PUMA_JEWELRY_PUMA_JEWELRY_7_cls-7" d="M321.92,112.07a3.53,3.53,0,0,0,.4-1.62,3.41,3.41,0,0,0-.2-1.16,3.51,3.51,0,0,0-2.71-2.29,3.81,3.81,0,0,0-.59,0,2.38,2.38,0,0,0-2.37,1.76" />
</svg>