<svg id="jewelries" xmlns="http://www.w3.org/2000/svg" viewBox="0 0 432 432">
  <defs>
    <style>.BUNTAI_PUMA_JEWELRY_PUMA_JEWELRY_13_cls-1{fill:#fca423;}.BUNTAI_PUMA_JEWELRY_PUMA_JEWELRY_13_cls-2,.BUNTAI_PUMA_JEWELRY_PUMA_JEWELRY_13_cls-7{fill:none;stroke-linecap:round;stroke-linejoin:round;}.BUNTAI_PUMA_JEWELRY_PUMA_JEWELRY_13_cls-2,.BUNTAI_PUMA_JEWELRY_PUMA_JEWELRY_13_cls-3,.BUNTAI_PUMA_JEWELRY_PUMA_JEWELRY_13_cls-7{stroke:#000;}.BUNTAI_PUMA_JEWELRY_PUMA_JEWELRY_13_cls-2{stroke-width:1.43px;}.BUNTAI_PUMA_JEWELRY_PUMA_JEWELRY_13_cls-3{fill:#834932;stroke-miterlimit:10;stroke-width:1.48px;}.BUNTAI_PUMA_JEWELRY_PUMA_JEWELRY_13_cls-4{fill:#fff;}.BUNTAI_PUMA_JEWELRY_PUMA_JEWELRY_13_cls-5{fill:#666;}.BUNTAI_PUMA_JEWELRY_PUMA_JEWELRY_13_cls-6{fill:#c7a858;}.BUNTAI_PUMA_JEWELRY_PUMA_JEWELRY_13_cls-7{stroke-width:1.01px;}</style>
  </defs>
  <path class="BUNTAI_PUMA_JEWELRY_PUMA_JEWELRY_13_cls-1" d="M237.87,341.52c-2.17-3.45-7.54-3.29-10.45-2.52a8.77,8.77,0,0,0-6.6,5.73c-2,5.19-1.53,8.45,2,11.55s5.16,3.35,3.87,6.81-3.25,2.7-3.13,4.8,5.17,4.45,9.44,1.57,6.89-5.87,7.37-13S240,345,237.87,341.52Zm-3.32,10c-1.07,3.23-2.84,5.36-6.37,2.08s-.32-8.21-.32-8.21a4.28,4.28,0,0,1,4.64-1.23C234.43,345,235.61,348.25,234.55,351.48Z" />
  <path class="BUNTAI_PUMA_JEWELRY_PUMA_JEWELRY_13_cls-2" d="M234.67,338.66a13.39,13.39,0,0,0-10.87,1.55c-11.84,15.78,5.43,16.27,3,22.41a5.27,5.27,0,0,1-2.68,3.27,2.1,2.1,0,0,0-.25,3.46,7.6,7.6,0,0,0,6.2,1.46C243.84,367.58,242,340.56,234.67,338.66Z" />
  <path class="BUNTAI_PUMA_JEWELRY_PUMA_JEWELRY_13_cls-2" d="M227.86,345.36s-3.22,4.93.32,8.2,5.3,1.14,6.36-2.08-.11-6.46-2-7.36A4.27,4.27,0,0,0,227.86,345.36Z" />
  <path class="BUNTAI_PUMA_JEWELRY_PUMA_JEWELRY_13_cls-3" d="M228.1,347h-.62c-34.76,0-71.85-45.34-79.06-54a27.64,27.64,0,0,0,2.58-1.93c-5.07-4.91-9,.62-6.05,4.56.35.34,42.69,55.45,82.53,55.45h.64a2.07,2.07,0,0,0,0-4.07Z" />
  <path class="BUNTAI_PUMA_JEWELRY_PUMA_JEWELRY_13_cls-3" d="M290.69,298.93c1.3.79,1.51.89,2.56,1.6-25.19,37.88-50.87,46-59.33,46.49a1.92,1.92,0,0,0-1.9,1.74,2,2,0,0,0,1.43,2.3,5,5,0,0,0,3.7.23c25.14-7.45,46.08-27.15,60-49C299.36,298.93,295.2,294.29,290.69,298.93Z" />
  <path class="BUNTAI_PUMA_JEWELRY_PUMA_JEWELRY_13_cls-4" d="M307.92,177.86a14.6,14.6,0,0,0,12.93-4.07,7.11,7.11,0,0,1-4.84-3.93A26.29,26.29,0,0,1,307.92,177.86Z" />
  <path class="BUNTAI_PUMA_JEWELRY_PUMA_JEWELRY_13_cls-4" d="M307.74,178c2.45,1,11.66,3.91,20.11-6.29a7.25,7.25,0,0,1-2.82-.4,34.1,34.1,0,0,0,3.38-1.43,37.44,37.44,0,0,0,.41-12.87l-2.39-1.47.4,2.14-1.65-1.31c.59,5,.39,10.62-2.21,14.73a15.84,15.84,0,0,1-2.12,2.71,14.6,14.6,0,0,1-12.93,4.07Z" />
  <path class="BUNTAI_PUMA_JEWELRY_PUMA_JEWELRY_13_cls-5" d="M323.28,150.49a23.72,23.72,0,0,1-4,1l2.7,1.22-1.86.66,2,.66s-2.32,3.08-3.89,3.53c3.56-.1,5-1,5-1l1,2.39,1-2.63a52.56,52.56,0,0,0-1.05-5.86Z" />
  <path class="BUNTAI_PUMA_JEWELRY_PUMA_JEWELRY_13_cls-4" d="M324.19,159l-1-2.39-.06,1.73s-1.67,5.44-4.21,6.81c1.78,4.17,1.78,5,1.78,5l-3.31-3.66a10.4,10.4,0,0,1-1.42,3.36,7.11,7.11,0,0,0,4.84,3.93,15.84,15.84,0,0,0,2.12-2.71c2.6-4.11,2.8-9.73,2.21-14.73Z" />
  <path class="BUNTAI_PUMA_JEWELRY_PUMA_JEWELRY_13_cls-5" d="M324.13,150.49a52.56,52.56,0,0,1,1.05,5.86l1.65,1.31-.4-2.14,2.39,1.47a6.07,6.07,0,0,0,2.29,1.33,11.77,11.77,0,0,1-2.09-3.76l1.17-.51-1.57-1.28,1.42-1.72s-2.69-.06-3-.1-2-.46-2-.46Z" />
  <path class="BUNTAI_PUMA_JEWELRY_PUMA_JEWELRY_13_cls-6" d="M322.17,140.42a2.68,2.68,0,0,0,.18,5.35,2.15,2.15,0,0,0,.45,0,2.67,2.67,0,0,0-.45-5.31Z" />
  <path class="BUNTAI_PUMA_JEWELRY_PUMA_JEWELRY_13_cls-6" d="M323.75,128.85a5.19,5.19,0,0,1-2.32.49,2.15,2.15,0,0,1-1-.26c0,.15,0,2.34,1.77,2.34s1.58-2.57,1.58-2.57Z" />
  <path class="BUNTAI_PUMA_JEWELRY_PUMA_JEWELRY_13_cls-6" d="M325.3,109.17a13.44,13.44,0,0,0-.42,3.3,3.92,3.92,0,0,1,0,4.17,2.66,2.66,0,0,1-.83.93,6.18,6.18,0,0,1,1.68,2.61C328.76,117.48,330.34,112.27,325.3,109.17Z" />
  <path class="BUNTAI_PUMA_JEWELRY_PUMA_JEWELRY_13_cls-6" d="M321.47,118.2h0a4.79,4.79,0,0,1,2.11,3.26c.53,2.52-.35,5.36-1.63,5.36s-1.43-3.3-1.35-5l-.1,0a6.09,6.09,0,0,1-1.58-.48c-.69,2.3-.54,6.69,1.47,7.8a2.15,2.15,0,0,0,1,.26,5.19,5.19,0,0,0,2.32-.49c1.73-.84,2.6-2.8,2.49-5.77a9.73,9.73,0,0,0-.54-2.9,6.18,6.18,0,0,0-1.68-2.61,2.18,2.18,0,0,0-1.54-.64,2.63,2.63,0,0,0-1.88,1.1,3.3,3.3,0,0,0,.83.16Z" />
  <path class="BUNTAI_PUMA_JEWELRY_PUMA_JEWELRY_13_cls-6" d="M317.75,109.67c-2.27,2.19-3.35,9.53,1.18,11.61a6.09,6.09,0,0,0,1.58.48l.1,0a6,6,0,0,0,3-.32,4.79,4.79,0,0,0-2.11-3.26h-.05a3.3,3.3,0,0,1-.83-.16,2.29,2.29,0,0,1-1.85-2.17c0-2.68,1.65-3.49,1.65-3.49S321.38,109.3,317.75,109.67Z" />
  <path class="BUNTAI_PUMA_JEWELRY_PUMA_JEWELRY_13_cls-7" d="M325.7,120.18c3.06-2.7,4.64-7.91-.4-11-.33,2.26-.42,3.3-.42,3.3a3.92,3.92,0,0,1,0,4.17,2.66,2.66,0,0,1-.83.93" />
  <path class="BUNTAI_PUMA_JEWELRY_PUMA_JEWELRY_13_cls-7" d="M321.43,118.19a3.3,3.3,0,0,1-.83-.16,2.29,2.29,0,0,1-1.85-2.17c0-2.68,1.65-3.49,1.65-3.49s1-3.07-2.65-2.7c-2.27,2.19-3.35,9.53,1.18,11.61a6.09,6.09,0,0,0,1.58.48l.1,0a6,6,0,0,0,3-.32" />
  <path class="BUNTAI_PUMA_JEWELRY_PUMA_JEWELRY_13_cls-7" d="M318.93,121.28c-.69,2.3-.54,6.69,1.47,7.8a2.15,2.15,0,0,0,1,.26,5.19,5.19,0,0,0,2.32-.49c1.73-.84,2.6-2.8,2.49-5.77a9.73,9.73,0,0,0-.54-2.9,6.18,6.18,0,0,0-1.68-2.61,2.18,2.18,0,0,0-1.54-.64,2.63,2.63,0,0,0-1.88,1.1" />
  <path class="BUNTAI_PUMA_JEWELRY_PUMA_JEWELRY_13_cls-7" d="M320.61,121.78c-.08,1.74-.07,5,1.35,5s2.16-2.84,1.63-5.36a4.79,4.79,0,0,0-2.11-3.26h-.05" />
  <path class="BUNTAI_PUMA_JEWELRY_PUMA_JEWELRY_13_cls-7" d="M323.75,128.85s.31,2.57-1.58,2.57-1.78-2.19-1.77-2.34h0" />
  <path class="BUNTAI_PUMA_JEWELRY_PUMA_JEWELRY_13_cls-7" d="M322.17,140.42a2.68,2.68,0,0,0,.18,5.35,2.15,2.15,0,0,0,.45,0,2.67,2.67,0,0,0-.45-5.31Z" />
  <path class="BUNTAI_PUMA_JEWELRY_PUMA_JEWELRY_13_cls-7" d="M324.13,150.49h.9s1.71.41,2,.46,3,.1,3,.1l-1.42,1.72,1.57,1.28-1.17.51a11.77,11.77,0,0,0,2.09,3.76,6.07,6.07,0,0,1-2.29-1.33,37.44,37.44,0,0,1-.41,12.87,34.1,34.1,0,0,1-3.38,1.43,7.25,7.25,0,0,0,2.82.4c-8.45,10.2-17.66,7.32-20.11,6.29l.18-.12a26.29,26.29,0,0,0,8.09-8,10.4,10.4,0,0,0,1.42-3.36l3.31,3.66s0-.86-1.78-5c2.54-1.37,4.21-6.81,4.21-6.81l.06-1.73s-1.45.86-5,1c1.57-.45,3.89-3.53,3.89-3.53l-2-.66,1.86-.66-2.7-1.22a23.72,23.72,0,0,0,4-1h.85" />
  <path class="BUNTAI_PUMA_JEWELRY_PUMA_JEWELRY_13_cls-7" d="M322.8,145.73c.35,1.05.86,2.72,1.33,4.76a52.56,52.56,0,0,1,1.05,5.86c.59,5,.39,10.62-2.21,14.73a15.84,15.84,0,0,1-2.12,2.71,14.6,14.6,0,0,1-12.93,4.07" />
  <path class="BUNTAI_PUMA_JEWELRY_PUMA_JEWELRY_13_cls-7" d="M320.85,173.79a7.11,7.11,0,0,1-4.84-3.93" />
  <polyline class="BUNTAI_PUMA_JEWELRY_PUMA_JEWELRY_13_cls-7" points="323.23 156.59 324.19 158.98 325.18 156.35 326.83 157.66 326.43 155.52 328.82 156.99" />
  <line class="BUNTAI_PUMA_JEWELRY_PUMA_JEWELRY_13_cls-7" x1="322.17" y1="140.43" x2="322.17" y2="131.43" />
  <path class="BUNTAI_PUMA_JEWELRY_PUMA_JEWELRY_13_cls-7" d="M315.06,111s2.55-2.63,4.95-.79-.12,5-.12,5" />
</svg>