<svg xmlns="http://www.w3.org/2000/svg" viewBox="0 0 432 432">
  <defs>
    <style>.BUNTAI_PUMA_JEWELRY_PUMA_JEWELRY_21_cls-1{isolation:isolate;}.BUNTAI_PUMA_JEWELRY_PUMA_JEWELRY_21_cls-2{fill:#d2a548;}.BUNTAI_PUMA_JEWELRY_PUMA_JEWELRY_21_cls-3{fill:#5897a8;}.BUNTAI_PUMA_JEWELRY_PUMA_JEWELRY_21_cls-4,.BUNTAI_PUMA_JEWELRY_PUMA_JEWELRY_21_cls-5,.BUNTAI_PUMA_JEWELRY_PUMA_JEWELRY_21_cls-7{fill:none;stroke:#000;stroke-linecap:round;stroke-linejoin:round;}.BUNTAI_PUMA_JEWELRY_PUMA_JEWELRY_21_cls-4{stroke-width:0.46px;}.BUNTAI_PUMA_JEWELRY_PUMA_JEWELRY_21_cls-5{stroke-width:1.2px;}.BUNTAI_PUMA_JEWELRY_PUMA_JEWELRY_21_cls-6{opacity:0.43;mix-blend-mode:multiply;}.BUNTAI_PUMA_JEWELRY_PUMA_JEWELRY_21_cls-7{stroke-width:1.06px;}.BUNTAI_PUMA_JEWELRY_PUMA_JEWELRY_21_cls-8{fill:#c7a858;}</style>
  </defs>
  <g class="BUNTAI_PUMA_JEWELRY_PUMA_JEWELRY_21_cls-1">
    <g id="jewelries">
      <path class="BUNTAI_PUMA_JEWELRY_PUMA_JEWELRY_21_cls-2" d="M156.58,147.58a6.46,6.46,0,0,1-3.16,5.55,6.37,6.37,0,0,0-1-2.24,4,4,0,1,0-4.48,0,6.2,6.2,0,0,0-1,2.24,6.45,6.45,0,1,1,9.74-5.55Z" />
      <path class="BUNTAI_PUMA_JEWELRY_PUMA_JEWELRY_21_cls-3" d="M172.44,180.36a48.44,48.44,0,0,1-16.34-8.92,12.85,12.85,0,0,1-2.59-2.67c-1.62-2.4-1.69-5.47-1.67-8.37v-.26s.28-3.38-.49-4.19-2.74-1.14-3.12,1.46c0,0-.12.88-.44,2.29-.79,3.42-2.85,9.89-7.65,14h0a37.58,37.58,0,0,1-15.6,3.59,5.85,5.85,0,0,0-.13,2.35c-1,.12-2.1.21-3.15.26a4.28,4.28,0,0,0-.59,1.85,1.92,1.92,0,0,0,.59,1.33,2,2,0,0,0,1.37.51,2.14,2.14,0,0,0,.13,1.8s0,0,0,0a2.58,2.58,0,0,0,1,.91,7.66,7.66,0,0,0,1.26.49,7,7,0,0,0-.22,1.11h0a10.27,10.27,0,0,0-.1,1.57,2.78,2.78,0,0,1,1.72,1.54,5.3,5.3,0,0,1,.34,2.57l.7.16,1.34.33c0,.36.11.72.16,1.09a2.44,2.44,0,0,1,1.15.4,3.82,3.82,0,0,1,1.06,1.06,3.1,3.1,0,0,1,.42,2.64l.29-.06a2.09,2.09,0,0,1,1.72.52,2.17,2.17,0,0,1,.29.24,4.5,4.5,0,0,0,1.78,1.36,3.29,3.29,0,0,0,1.36,0l.26,0a8.13,8.13,0,0,1,5,1,8,8,0,0,1,2.88,2.67c.16.26.32.53.46.8s.29.58.42.89a2.16,2.16,0,0,0,.66,1c.31-.36.68-.59,1-1a5.83,5.83,0,0,1,1.28-1.2,2,2,0,0,1,1.69-.24,3.37,3.37,0,0,1,4.34-.3,5.42,5.42,0,0,1,6.08-.57c0-.11,0-.22,0-.33a3.42,3.42,0,0,1,2-2.37,2.44,2.44,0,0,0,.9-.44c.39-.4.32-1.08.54-1.6,0,0,0,0,0,0a2.82,2.82,0,0,1,1-1.05,3,3,0,0,0,1.06-1,1,1,0,0,0-.23-1.32l0-.14c.11-.56.37-1.16.46-1.71l.15-.93a7.63,7.63,0,0,1,.43-1.77,2.58,2.58,0,0,1,1.2-1.34.58.58,0,0,1,.17-.06c.31-.11.64-.16.95-.27a1.2,1.2,0,0,0,.82-.77c.14-.57-.38-1.05-.68-1.55a2.26,2.26,0,0,1-.29-1.37,2.35,2.35,0,0,1,.78-1.58,12,12,0,0,1,1.13-.72,1.74,1.74,0,0,0,.73-.92s0-.09,0-.13,0-.08,0-.13A3.75,3.75,0,0,1,172.44,180.36Z" />
      <path class="BUNTAI_PUMA_JEWELRY_PUMA_JEWELRY_21_cls-2" d="M153.7,155.36a6.8,6.8,0,0,1-1.86,5v-.26s.28-3.38-.49-4.19-2.74-1.14-3.12,1.46c0,0-.12.88-.44,2.29a7.51,7.51,0,0,1-1.23-4.34,8.78,8.78,0,0,1,.28-2.23,6.2,6.2,0,0,1,1-2.24,2.89,2.89,0,0,1,2.24-1.27,2.92,2.92,0,0,1,2.24,1.27,6.37,6.37,0,0,1,1,2.24A8.78,8.78,0,0,1,153.7,155.36Z" />
      <path class="BUNTAI_PUMA_JEWELRY_PUMA_JEWELRY_21_cls-4" d="M153.73,172c2.63,3,6.21,4.95,9.8,6.65a94.57,94.57,0,0,1,8.78,4.39" />
      <path class="BUNTAI_PUMA_JEWELRY_PUMA_JEWELRY_21_cls-4" d="M169.67,186.29a115.52,115.52,0,0,0-10.12-7.81" />
      <path class="BUNTAI_PUMA_JEWELRY_PUMA_JEWELRY_21_cls-4" d="M156.21,178.3a51.38,51.38,0,0,1,12.66,11.95" />
      <path class="BUNTAI_PUMA_JEWELRY_PUMA_JEWELRY_21_cls-4" d="M152.27,175.07c2.06,3.5,4.38,6.86,6.68,10.2l5.22,7.59c.75,1.08,1.49,2.16,2.29,3.2" />
      <path class="BUNTAI_PUMA_JEWELRY_PUMA_JEWELRY_21_cls-4" d="M161.17,204a96.4,96.4,0,0,1-10.39-27.62l-.09-.45a69.37,69.37,0,0,0,13.89,23.66" />
      <path class="BUNTAI_PUMA_JEWELRY_PUMA_JEWELRY_21_cls-4" d="M152.65,204.29a96.35,96.35,0,0,1-3.16-27.62" />
      <path class="BUNTAI_PUMA_JEWELRY_PUMA_JEWELRY_21_cls-4" d="M142.31,202.28h0A74.12,74.12,0,0,0,148,176.61l0-.75" />
      <path class="BUNTAI_PUMA_JEWELRY_PUMA_JEWELRY_21_cls-4" d="M147.69,187.87a68.58,68.58,0,0,1-2,17.87" />
      <path class="BUNTAI_PUMA_JEWELRY_PUMA_JEWELRY_21_cls-4" d="M133.6,199.79a106.07,106.07,0,0,0,9.13-17.2h0c.22-.53.44-1.07.65-1.61,1-2.49,1.91-5,2.71-7.57" />
      <path class="BUNTAI_PUMA_JEWELRY_PUMA_JEWELRY_21_cls-4" d="M137,201.36a29.25,29.25,0,0,0,3.5-7.17,78.16,78.16,0,0,0,2.6-11.43" />
      <path class="BUNTAI_PUMA_JEWELRY_PUMA_JEWELRY_21_cls-4" d="M127.46,193.81a58.17,58.17,0,0,0,14.37-13.45" />
      <path class="BUNTAI_PUMA_JEWELRY_PUMA_JEWELRY_21_cls-4" d="M135,190.34q-2.42,2.66-4.85,5.29" />
      <path class="BUNTAI_PUMA_JEWELRY_PUMA_JEWELRY_21_cls-4" d="M124.81,188a101.3,101.3,0,0,0,16.81-10.54" />
      <path class="BUNTAI_PUMA_JEWELRY_PUMA_JEWELRY_21_cls-4" d="M122.76,185.44a111.1,111.1,0,0,0,12.29-5.8" />
      <path class="BUNTAI_PUMA_JEWELRY_PUMA_JEWELRY_21_cls-5" d="M147.79,159.7a7.51,7.51,0,0,1-1.23-4.34,8.78,8.78,0,0,1,.28-2.23,6.2,6.2,0,0,1,1-2.24,2.89,2.89,0,0,1,2.24-1.27,2.92,2.92,0,0,1,2.24,1.27,6.37,6.37,0,0,1,1,2.24,8.78,8.78,0,0,1,.28,2.23,6.8,6.8,0,0,1-1.86,5" />
      <path class="BUNTAI_PUMA_JEWELRY_PUMA_JEWELRY_21_cls-5" d="M140.14,173.74a37,37,0,0,0,4.6-2.58" />
      <path class="BUNTAI_PUMA_JEWELRY_PUMA_JEWELRY_21_cls-5" d="M124.41,179.69a5.85,5.85,0,0,1,.13-2.35,37.58,37.58,0,0,0,15.6-3.59" />
      <path class="BUNTAI_PUMA_JEWELRY_PUMA_JEWELRY_21_cls-5" d="M140.14,173.75h0c4.8-4.15,6.86-10.62,7.65-14,.32-1.41.44-2.29.44-2.29.38-2.6,2.35-2.27,3.12-1.46s.49,4.19.49,4.19v.26c0,2.9,0,6,1.67,8.37a12.85,12.85,0,0,0,2.59,2.67,48.44,48.44,0,0,0,16.34,8.92,3.75,3.75,0,0,0-.1,2.45c0,.05,0,.08,0,.13s0,.09,0,.13a1.74,1.74,0,0,1-.73.92,12,12,0,0,0-1.13.72,2.35,2.35,0,0,0-.78,1.58,2.26,2.26,0,0,0,.29,1.37c.3.5.82,1,.68,1.55a1.2,1.2,0,0,1-.82.77c-.31.11-.64.16-.95.27a.58.58,0,0,0-.17.06,2.58,2.58,0,0,0-1.2,1.34,7.63,7.63,0,0,0-.43,1.77l-.15.93c-.09.55-.35,1.15-.46,1.71l0,.14a1,1,0,0,1,.23,1.32,3,3,0,0,1-1.06,1,2.82,2.82,0,0,0-1,1.05s0,0,0,0c-.22.52-.15,1.2-.54,1.6a2.44,2.44,0,0,1-.9.44,3.42,3.42,0,0,0-2,2.37c0,.11,0,.22,0,.33a5.42,5.42,0,0,0-6.08.57,3.37,3.37,0,0,0-4.34.3,2,2,0,0,0-1.69.24,5.83,5.83,0,0,0-1.28,1.2c-.32.36-.69.59-1,1a2.16,2.16,0,0,1-.66-1c-.13-.31-.27-.6-.42-.89s-.3-.54-.46-.8a8,8,0,0,0-2.88-2.67,8.13,8.13,0,0,0-5-1l-.26,0a3.29,3.29,0,0,1-1.36,0,4.5,4.5,0,0,1-1.78-1.36,2.17,2.17,0,0,0-.29-.24,2.09,2.09,0,0,0-1.72-.52l-.29.06a3.1,3.1,0,0,0-.42-2.64,3.82,3.82,0,0,0-1.06-1.06,2.44,2.44,0,0,0-1.15-.4c-.05-.37-.11-.73-.16-1.09l-1.34-.33-.7-.16a5.3,5.3,0,0,0-.34-2.57,2.78,2.78,0,0,0-1.72-1.54,10.27,10.27,0,0,1,.1-1.57h0a7,7,0,0,1,.22-1.11,7.66,7.66,0,0,1-1.26-.49,2.58,2.58,0,0,1-1-.91s0,0,0,0a2.14,2.14,0,0,1-.13-1.8,2,2,0,0,1-1.37-.51,1.92,1.92,0,0,1-.59-1.33,4.28,4.28,0,0,1,.59-1.85c1,0,2.1-.14,3.15-.26a51.29,51.29,0,0,0,20-6.66" />
      <path class="BUNTAI_PUMA_JEWELRY_PUMA_JEWELRY_21_cls-5" d="M147.89,150.89a4,4,0,1,1,4.48,0" />
      <path class="BUNTAI_PUMA_JEWELRY_PUMA_JEWELRY_21_cls-5" d="M153.42,153.13a6.45,6.45,0,1,0-6.58,0" />
      <g class="BUNTAI_PUMA_JEWELRY_PUMA_JEWELRY_21_cls-6">
        <path d="M150.13,141.13a2,2,0,0,0,0,2.66c-2.47.31-5.95,2.67-2.24,7.1a6,6,0,0,1,2.52-1.27s-2.5,3.12-.28,5.75c-.2,1.88-2.66,17.15-4.48,22.93s-2.52,7.71-2.52,7.71a34.08,34.08,0,0,0,4.57-10.42,188.45,188.45,0,0,1-4.57,20.47c-.94,3.41-1.87,5.74-1.87,5.74a26.13,26.13,0,0,0-5-.44c-1.25.21-3.24-2-3.9-2.36a2.59,2.59,0,0,1-.79-.61,4.19,4.19,0,0,0-2.41-3.49c-.7-1.08-.85-1.09-.85-1.09l-1.31-.25a4.78,4.78,0,0,0-2.32-4.23c0-2.12,0-2.73,0-2.73a3.1,3.1,0,0,1-2.41-3c-1.71-1-1.82-1.74-1.82-1.74l.81-2.19s1.2,1.2,10,.41A20.34,20.34,0,0,0,144.46,174s-9.86,4.31-15.42,5a40.8,40.8,0,0,1-5.32.48l.82-2.09s8.51.4,14.87-3.41A22.39,22.39,0,0,0,147.05,163c1.25-4.16.49-4.05.49-4.05a5.15,5.15,0,0,1-1-5.09c-.67-1.41-3.06-4.49-3.06-4.58s-.47-4.74,2.09-6.29A13.9,13.9,0,0,1,150.13,141.13Z" />
        <path d="M149.44,178s-.93,18.94,1,27.12c1.47-.67,3.13-1.42,4.65,0C150.57,187.88,149.29,182.23,149.44,178Z" />
      </g>
      <line class="BUNTAI_PUMA_JEWELRY_PUMA_JEWELRY_21_cls-7" x1="150.29" y1="141.13" x2="150.29" y2="134.92" />
      <path class="BUNTAI_PUMA_JEWELRY_PUMA_JEWELRY_21_cls-8" d="M150.28,134.92c-1.67,0-1.4-2.29-1.4-2.29h0a4.57,4.57,0,0,0,2.06.43,1.85,1.85,0,0,0,.92-.23C151.87,133,151.9,134.92,150.28,134.92Z" />
      <path class="BUNTAI_PUMA_JEWELRY_PUMA_JEWELRY_21_cls-8" d="M153.17,125.89c.61,2,.48,6-1.31,6.94a1.85,1.85,0,0,1-.92.23,4.57,4.57,0,0,1-2.06-.43c-1.54-.75-2.32-2.49-2.21-5.14a8.41,8.41,0,0,1,.47-2.57,5.53,5.53,0,0,1,1.5-2.33A1.91,1.91,0,0,1,150,122a2.31,2.31,0,0,1,1.67,1,3,3,0,0,1-.74.14h0a4.27,4.27,0,0,0-1.88,2.9c-.47,2.25.32,4.77,1.45,4.77s1.28-2.93,1.2-4.49h.09A5.29,5.29,0,0,0,153.17,125.89Z" />
      <path class="BUNTAI_PUMA_JEWELRY_PUMA_JEWELRY_21_cls-8" d="M148.18,115c.39,2,.6,2.83.6,2.83s-2.05,1.78-.88,4a2.37,2.37,0,0,0,.74.83,5.53,5.53,0,0,0-1.5,2.33A6,6,0,0,1,148.18,115Z" />
      <path class="BUNTAI_PUMA_JEWELRY_PUMA_JEWELRY_21_cls-8" d="M155.86,122.27a4.84,4.84,0,0,1-2.69,3.62,5.74,5.74,0,0,1-1.4.43h-.1a5.13,5.13,0,0,1-2.65-.28,4.24,4.24,0,0,1,1.88-2.9h0a3.6,3.6,0,0,0,.74-.15,2.17,2.17,0,0,0,1.56-1.35,1.81,1.81,0,0,0,.09-.58c0-2.39-.93-2.5-.93-2.5a2.76,2.76,0,0,1-.12-.33,3.09,3.09,0,0,1,2.39-2A8.17,8.17,0,0,1,155.86,122.27Z" />
      <path class="BUNTAI_PUMA_JEWELRY_PUMA_JEWELRY_21_cls-7" d="M147.14,124.92a6,6,0,0,1,1-10c.41,1.7.6,2.83.6,2.83s-2.05,1.78-.88,4a2.37,2.37,0,0,0,.74.83" />
      <path class="BUNTAI_PUMA_JEWELRY_PUMA_JEWELRY_21_cls-7" d="M149,126.05a5.13,5.13,0,0,0,2.65.28h.1a5.74,5.74,0,0,0,1.4-.43,4.84,4.84,0,0,0,2.69-3.62,8.17,8.17,0,0,0-1.19-6" />
      <path class="BUNTAI_PUMA_JEWELRY_PUMA_JEWELRY_21_cls-7" d="M152.28,118.24a2.76,2.76,0,0,0,.12.33s.9.11.93,2.5a1.81,1.81,0,0,1-.09.58,2.17,2.17,0,0,1-1.56,1.35,3.6,3.6,0,0,1-.74.15" />
      <path class="BUNTAI_PUMA_JEWELRY_PUMA_JEWELRY_21_cls-7" d="M153.17,125.89c.61,2,.48,6-1.31,6.94a1.85,1.85,0,0,1-.92.23,4.57,4.57,0,0,1-2.06-.43c-1.54-.75-2.32-2.49-2.21-5.14a8.41,8.41,0,0,1,.47-2.57,5.53,5.53,0,0,1,1.5-2.33A1.91,1.91,0,0,1,150,122a2.31,2.31,0,0,1,1.67,1" />
      <path class="BUNTAI_PUMA_JEWELRY_PUMA_JEWELRY_21_cls-7" d="M151.67,126.33c.08,1.56.06,4.49-1.2,4.49s-1.92-2.52-1.45-4.77a4.27,4.27,0,0,1,1.88-2.9h0" />
      <path class="BUNTAI_PUMA_JEWELRY_PUMA_JEWELRY_21_cls-7" d="M148.88,132.63s-.27,2.29,1.4,2.29,1.59-1.95,1.58-2.09h0" />
      <path class="BUNTAI_PUMA_JEWELRY_PUMA_JEWELRY_21_cls-7" d="M152.46,120.69a3,3,0,0,1-.35-1.43,3.16,3.16,0,0,1,.17-1,3.09,3.09,0,0,1,2.39-2,2.87,2.87,0,0,1,.52,0,2.1,2.1,0,0,1,2.08,1.55" />
      <path class="BUNTAI_PUMA_JEWELRY_PUMA_JEWELRY_21_cls-2" d="M315.17,147.58a6.46,6.46,0,0,0,3.16,5.55,6.37,6.37,0,0,1,1.05-2.24,4,4,0,1,1,4.48,0,6.2,6.2,0,0,1,1.05,2.24,6.45,6.45,0,1,0-9.74-5.55Z" />
      <path class="BUNTAI_PUMA_JEWELRY_PUMA_JEWELRY_21_cls-3" d="M299.31,180.36a48.44,48.44,0,0,0,16.34-8.92,12.85,12.85,0,0,0,2.59-2.67c1.62-2.4,1.69-5.47,1.67-8.37v-.26s-.28-3.38.49-4.19,2.74-1.14,3.12,1.46c0,0,.12.88.44,2.29.79,3.42,2.85,9.89,7.65,14h0a37.58,37.58,0,0,0,15.6,3.59,5.85,5.85,0,0,1,.13,2.35c1.05.12,2.1.21,3.15.26a4.28,4.28,0,0,1,.59,1.85,1.92,1.92,0,0,1-.59,1.33,2,2,0,0,1-1.37.51,2.14,2.14,0,0,1-.13,1.8s0,0,0,0a2.58,2.58,0,0,1-1,.91,7.66,7.66,0,0,1-1.26.49,7,7,0,0,1,.22,1.11h0a10.27,10.27,0,0,1,.1,1.57,2.78,2.78,0,0,0-1.72,1.54,5.3,5.3,0,0,0-.34,2.57l-.7.16-1.34.33c-.05.36-.11.72-.16,1.09a2.44,2.44,0,0,0-1.15.4,3.82,3.82,0,0,0-1.06,1.06,3.1,3.1,0,0,0-.42,2.64l-.29-.06a2.09,2.09,0,0,0-1.72.52,2.17,2.17,0,0,0-.29.24,4.5,4.5,0,0,1-1.78,1.36,3.29,3.29,0,0,1-1.36,0l-.26,0a8.13,8.13,0,0,0-5,1,8,8,0,0,0-2.88,2.67c-.16.26-.32.53-.46.8s-.29.58-.42.89a2.16,2.16,0,0,1-.66,1c-.31-.36-.68-.59-1-1a5.83,5.83,0,0,0-1.28-1.2,2,2,0,0,0-1.69-.24,3.37,3.37,0,0,0-4.34-.3,5.42,5.42,0,0,0-6.08-.57c0-.11,0-.22-.05-.33a3.42,3.42,0,0,0-2-2.37,2.44,2.44,0,0,1-.9-.44c-.39-.4-.32-1.08-.54-1.6,0,0,0,0,0,0a2.82,2.82,0,0,0-1-1.05,3,3,0,0,1-1.06-1,1,1,0,0,1,.23-1.32l0-.14c-.11-.56-.37-1.16-.46-1.71l-.15-.93a7.63,7.63,0,0,0-.43-1.77,2.58,2.58,0,0,0-1.2-1.34.58.58,0,0,0-.17-.06c-.31-.11-.64-.16-.95-.27a1.2,1.2,0,0,1-.82-.77c-.14-.57.38-1.05.68-1.55a2.26,2.26,0,0,0,.29-1.37,2.35,2.35,0,0,0-.78-1.58,12,12,0,0,0-1.13-.72,1.74,1.74,0,0,1-.73-.92s0-.09,0-.13,0-.08,0-.13A3.75,3.75,0,0,0,299.31,180.36Z" />
      <path class="BUNTAI_PUMA_JEWELRY_PUMA_JEWELRY_21_cls-2" d="M318.05,155.36a6.8,6.8,0,0,0,1.86,5v-.26s-.28-3.38.49-4.19,2.74-1.14,3.12,1.46c0,0,.12.88.44,2.29a7.51,7.51,0,0,0,1.23-4.34,8.78,8.78,0,0,0-.28-2.23,6.2,6.2,0,0,0-1.05-2.24,2.89,2.89,0,0,0-2.24-1.27,2.92,2.92,0,0,0-2.24,1.27,6.37,6.37,0,0,0-1.05,2.24A8.78,8.78,0,0,0,318.05,155.36Z" />
      <path class="BUNTAI_PUMA_JEWELRY_PUMA_JEWELRY_21_cls-4" d="M318,172c-2.63,3-6.21,4.95-9.8,6.65a94.57,94.57,0,0,0-8.78,4.39" />
      <path class="BUNTAI_PUMA_JEWELRY_PUMA_JEWELRY_21_cls-4" d="M302.08,186.29a115.52,115.52,0,0,1,10.12-7.81" />
      <path class="BUNTAI_PUMA_JEWELRY_PUMA_JEWELRY_21_cls-4" d="M315.54,178.3a51.38,51.38,0,0,0-12.66,11.95" />
      <path class="BUNTAI_PUMA_JEWELRY_PUMA_JEWELRY_21_cls-4" d="M319.48,175.07c-2.06,3.5-4.38,6.86-6.68,10.2l-5.22,7.59c-.75,1.08-1.49,2.16-2.29,3.2" />
      <path class="BUNTAI_PUMA_JEWELRY_PUMA_JEWELRY_21_cls-4" d="M310.58,204A96.4,96.4,0,0,0,321,176.4l.09-.45a69.37,69.37,0,0,1-13.89,23.66" />
      <path class="BUNTAI_PUMA_JEWELRY_PUMA_JEWELRY_21_cls-4" d="M319.1,204.29a96.35,96.35,0,0,0,3.16-27.62" />
      <path class="BUNTAI_PUMA_JEWELRY_PUMA_JEWELRY_21_cls-4" d="M329.44,202.28h0a74.12,74.12,0,0,1-5.71-25.66l0-.75" />
      <path class="BUNTAI_PUMA_JEWELRY_PUMA_JEWELRY_21_cls-4" d="M324.06,187.87a68.58,68.58,0,0,0,2,17.87" />
      <path class="BUNTAI_PUMA_JEWELRY_PUMA_JEWELRY_21_cls-4" d="M338.15,199.79a106.07,106.07,0,0,1-9.13-17.2h0c-.22-.53-.44-1.07-.65-1.61-1-2.49-1.91-5-2.71-7.57" />
      <path class="BUNTAI_PUMA_JEWELRY_PUMA_JEWELRY_21_cls-4" d="M334.72,201.36a29.25,29.25,0,0,1-3.5-7.17,78.16,78.16,0,0,1-2.6-11.43" />
      <path class="BUNTAI_PUMA_JEWELRY_PUMA_JEWELRY_21_cls-4" d="M344.29,193.81a58.17,58.17,0,0,1-14.37-13.45" />
      <path class="BUNTAI_PUMA_JEWELRY_PUMA_JEWELRY_21_cls-4" d="M336.79,190.34q2.41,2.66,4.85,5.29" />
      <path class="BUNTAI_PUMA_JEWELRY_PUMA_JEWELRY_21_cls-4" d="M346.94,188a101.3,101.3,0,0,1-16.81-10.54" />
      <path class="BUNTAI_PUMA_JEWELRY_PUMA_JEWELRY_21_cls-4" d="M349,185.44a111.1,111.1,0,0,1-12.29-5.8" />
      <path class="BUNTAI_PUMA_JEWELRY_PUMA_JEWELRY_21_cls-5" d="M324,159.7a7.51,7.51,0,0,0,1.23-4.34,8.78,8.78,0,0,0-.28-2.23,6.2,6.2,0,0,0-1.05-2.24,2.89,2.89,0,0,0-2.24-1.27,2.92,2.92,0,0,0-2.24,1.27,6.37,6.37,0,0,0-1.05,2.24,8.78,8.78,0,0,0-.28,2.23,6.8,6.8,0,0,0,1.86,5" />
      <path class="BUNTAI_PUMA_JEWELRY_PUMA_JEWELRY_21_cls-5" d="M331.61,173.74a37,37,0,0,1-4.6-2.58" />
      <path class="BUNTAI_PUMA_JEWELRY_PUMA_JEWELRY_21_cls-5" d="M347.34,179.69a5.85,5.85,0,0,0-.13-2.35,37.58,37.58,0,0,1-15.6-3.59" />
      <path class="BUNTAI_PUMA_JEWELRY_PUMA_JEWELRY_21_cls-5" d="M331.61,173.75h0c-4.8-4.15-6.86-10.62-7.65-14-.32-1.41-.44-2.29-.44-2.29-.38-2.6-2.35-2.27-3.12-1.46s-.49,4.19-.49,4.19v.26c0,2.9-.05,6-1.67,8.37a12.85,12.85,0,0,1-2.59,2.67,48.44,48.44,0,0,1-16.34,8.92,3.75,3.75,0,0,1,.1,2.45c0,.05,0,.08,0,.13s0,.09,0,.13a1.74,1.74,0,0,0,.73.92,12,12,0,0,1,1.13.72,2.35,2.35,0,0,1,.78,1.58,2.26,2.26,0,0,1-.29,1.37c-.3.5-.82,1-.68,1.55a1.2,1.2,0,0,0,.82.77c.31.11.64.16.95.27a.58.58,0,0,1,.17.06,2.58,2.58,0,0,1,1.2,1.34,7.63,7.63,0,0,1,.43,1.77l.15.93c.09.55.35,1.15.46,1.71l0,.14a1,1,0,0,0-.23,1.32,3,3,0,0,0,1.06,1,2.82,2.82,0,0,1,1,1.05s0,0,0,0c.22.52.15,1.2.54,1.6a2.44,2.44,0,0,0,.9.44,3.42,3.42,0,0,1,2,2.37c0,.11,0,.22.05.33a5.42,5.42,0,0,1,6.08.57,3.37,3.37,0,0,1,4.34.3,2,2,0,0,1,1.69.24,5.83,5.83,0,0,1,1.28,1.2c.32.36.69.59,1,1a2.16,2.16,0,0,0,.66-1c.13-.31.27-.6.42-.89s.3-.54.46-.8a8,8,0,0,1,2.88-2.67,8.13,8.13,0,0,1,5-1l.26,0a3.29,3.29,0,0,0,1.36,0,4.5,4.5,0,0,0,1.78-1.36,2.17,2.17,0,0,1,.29-.24,2.09,2.09,0,0,1,1.72-.52l.29.06a3.1,3.1,0,0,1,.42-2.64,3.82,3.82,0,0,1,1.06-1.06,2.44,2.44,0,0,1,1.15-.4c0-.37.11-.73.16-1.09l1.34-.33.7-.16a5.3,5.3,0,0,1,.34-2.57,2.78,2.78,0,0,1,1.72-1.54A10.27,10.27,0,0,0,347,188h0a7,7,0,0,0-.22-1.11,7.66,7.66,0,0,0,1.26-.49,2.58,2.58,0,0,0,1-.91s0,0,0,0a2.14,2.14,0,0,0,.13-1.8,2,2,0,0,0,1.37-.51,1.92,1.92,0,0,0,.59-1.33,4.28,4.28,0,0,0-.59-1.85c-1.05,0-2.1-.14-3.15-.26a51.29,51.29,0,0,1-20-6.66" />
      <path class="BUNTAI_PUMA_JEWELRY_PUMA_JEWELRY_21_cls-5" d="M323.86,150.89a4,4,0,1,0-4.48,0" />
      <path class="BUNTAI_PUMA_JEWELRY_PUMA_JEWELRY_21_cls-5" d="M318.33,153.13a6.45,6.45,0,1,1,6.58,0" />
      <g class="BUNTAI_PUMA_JEWELRY_PUMA_JEWELRY_21_cls-6">
        <path d="M321.62,141.13a2,2,0,0,1,0,2.66c2.47.31,5.95,2.67,2.24,7.1a6,6,0,0,0-2.52-1.27s2.49,3.12.28,5.75c.2,1.88,2.66,17.15,4.48,22.93s2.52,7.71,2.52,7.71a34.08,34.08,0,0,1-4.57-10.42,185.93,185.93,0,0,0,4.57,20.47c.94,3.41,1.87,5.74,1.87,5.74a26.13,26.13,0,0,1,5-.44c1.25.21,3.24-2,3.9-2.36a2.59,2.59,0,0,0,.79-.61,4.19,4.19,0,0,1,2.41-3.49c.7-1.08.85-1.09.85-1.09l1.31-.25a4.79,4.79,0,0,1,2.31-4.23c0-2.12,0-2.73,0-2.73a3.11,3.11,0,0,0,2.42-3c1.71-1,1.82-1.74,1.82-1.74l-.81-2.19s-1.2,1.2-10,.41A20.33,20.33,0,0,1,327.29,174s9.86,4.31,15.42,5a40.66,40.66,0,0,0,5.32.48l-.82-2.09s-8.51.4-14.87-3.41A22.39,22.39,0,0,1,324.7,163c-1.25-4.16-.5-4.05-.5-4.05a5.14,5.14,0,0,0,1-5.09c.67-1.41,3.06-4.49,3.06-4.58s.47-4.74-2.09-6.29A13.9,13.9,0,0,0,321.62,141.13Z" />
        <path d="M322.31,178s.93,18.94-1,27.12c-1.47-.67-3.14-1.42-4.65,0C321.18,187.88,322.46,182.23,322.31,178Z" />
      </g>
      <line class="BUNTAI_PUMA_JEWELRY_PUMA_JEWELRY_21_cls-7" x1="321.46" y1="141.13" x2="321.46" y2="134.92" />
      <path class="BUNTAI_PUMA_JEWELRY_PUMA_JEWELRY_21_cls-8" d="M321.47,134.92c1.67,0,1.4-2.29,1.4-2.29h0a4.57,4.57,0,0,1-2.06.43,1.85,1.85,0,0,1-.92-.23C319.88,133,319.85,134.92,321.47,134.92Z" />
      <path class="BUNTAI_PUMA_JEWELRY_PUMA_JEWELRY_21_cls-8" d="M318.58,125.89c-.62,2-.49,6,1.31,6.94a1.85,1.85,0,0,0,.92.23,4.57,4.57,0,0,0,2.06-.43c1.54-.75,2.31-2.49,2.21-5.14a8.4,8.4,0,0,0-.48-2.57,5.43,5.43,0,0,0-1.49-2.33,1.91,1.91,0,0,0-1.37-.57,2.31,2.31,0,0,0-1.67,1,2.94,2.94,0,0,0,.74.14h0a4.27,4.27,0,0,1,1.88,2.9c.47,2.25-.32,4.77-1.45,4.77s-1.28-2.93-1.2-4.49H320A5.33,5.33,0,0,1,318.58,125.89Z" />
      <path class="BUNTAI_PUMA_JEWELRY_PUMA_JEWELRY_21_cls-8" d="M323.57,115c-.39,2-.6,2.83-.6,2.83s2,1.78.88,4a2.37,2.37,0,0,1-.74.83,5.43,5.43,0,0,1,1.49,2.33A6,6,0,0,0,323.57,115Z" />
      <path class="BUNTAI_PUMA_JEWELRY_PUMA_JEWELRY_21_cls-8" d="M315.89,122.27a4.84,4.84,0,0,0,2.69,3.62,5.74,5.74,0,0,0,1.4.43h.1a5.14,5.14,0,0,0,2.65-.28,4.27,4.27,0,0,0-1.88-2.9h0a3.6,3.6,0,0,1-.74-.15,2.17,2.17,0,0,1-1.56-1.35,1.81,1.81,0,0,1-.09-.58c0-2.39.93-2.5.93-2.5a2.76,2.76,0,0,0,.12-.33,3.09,3.09,0,0,0-2.39-2A8.13,8.13,0,0,0,315.89,122.27Z" />
      <path class="BUNTAI_PUMA_JEWELRY_PUMA_JEWELRY_21_cls-7" d="M324.6,124.92a6,6,0,0,0-1-10c-.41,1.7-.6,2.83-.6,2.83s2,1.78.88,4a2.37,2.37,0,0,1-.74.83" />
      <path class="BUNTAI_PUMA_JEWELRY_PUMA_JEWELRY_21_cls-7" d="M322.73,126.05a5.14,5.14,0,0,1-2.65.28H320a5.74,5.74,0,0,1-1.4-.43,4.84,4.84,0,0,1-2.69-3.62,8.13,8.13,0,0,1,1.19-6" />
      <path class="BUNTAI_PUMA_JEWELRY_PUMA_JEWELRY_21_cls-7" d="M319.47,118.24a2.76,2.76,0,0,1-.12.33s-.9.11-.93,2.5a1.81,1.81,0,0,0,.09.58,2.17,2.17,0,0,0,1.56,1.35,3.6,3.6,0,0,0,.74.15" />
      <path class="BUNTAI_PUMA_JEWELRY_PUMA_JEWELRY_21_cls-7" d="M318.58,125.89c-.62,2-.49,6,1.31,6.94a1.85,1.85,0,0,0,.92.23,4.57,4.57,0,0,0,2.06-.43c1.54-.75,2.31-2.49,2.21-5.14a8.4,8.4,0,0,0-.48-2.57,5.43,5.43,0,0,0-1.49-2.33,1.91,1.91,0,0,0-1.37-.57,2.31,2.31,0,0,0-1.67,1" />
      <path class="BUNTAI_PUMA_JEWELRY_PUMA_JEWELRY_21_cls-7" d="M320.08,126.33c-.08,1.56-.06,4.49,1.2,4.49s1.92-2.52,1.45-4.77a4.27,4.27,0,0,0-1.88-2.9h0" />
      <path class="BUNTAI_PUMA_JEWELRY_PUMA_JEWELRY_21_cls-7" d="M322.87,132.63s.27,2.29-1.4,2.29-1.59-1.95-1.58-2.09h0" />
      <path class="BUNTAI_PUMA_JEWELRY_PUMA_JEWELRY_21_cls-7" d="M319.29,120.69a3.09,3.09,0,0,0,.35-1.43,3.16,3.16,0,0,0-.17-1,3.09,3.09,0,0,0-2.39-2,2.87,2.87,0,0,0-.52,0,2.1,2.1,0,0,0-2.08,1.55" />
    </g>
  </g>
</svg>