<svg id="jewelries" xmlns="http://www.w3.org/2000/svg" viewBox="0 0 432 432">
  <defs>
    <style>.BUNTAI_PUMA_JEWELRY_PUMA_JEWELRY_18_cls-1{fill:#e2cb6e;}.BUNTAI_PUMA_JEWELRY_PUMA_JEWELRY_18_cls-1,.BUNTAI_PUMA_JEWELRY_PUMA_JEWELRY_18_cls-2,.BUNTAI_PUMA_JEWELRY_PUMA_JEWELRY_18_cls-6,.BUNTAI_PUMA_JEWELRY_PUMA_JEWELRY_18_cls-7{stroke:#000;}.BUNTAI_PUMA_JEWELRY_PUMA_JEWELRY_18_cls-1,.BUNTAI_PUMA_JEWELRY_PUMA_JEWELRY_18_cls-2,.BUNTAI_PUMA_JEWELRY_PUMA_JEWELRY_18_cls-6{stroke-linecap:round;stroke-linejoin:round;}.BUNTAI_PUMA_JEWELRY_PUMA_JEWELRY_18_cls-1,.BUNTAI_PUMA_JEWELRY_PUMA_JEWELRY_18_cls-2{stroke-width:1.38px;}.BUNTAI_PUMA_JEWELRY_PUMA_JEWELRY_18_cls-2,.BUNTAI_PUMA_JEWELRY_PUMA_JEWELRY_18_cls-6{fill:none;}.BUNTAI_PUMA_JEWELRY_PUMA_JEWELRY_18_cls-3{fill:#594739;}.BUNTAI_PUMA_JEWELRY_PUMA_JEWELRY_18_cls-4{fill:#917244;}.BUNTAI_PUMA_JEWELRY_PUMA_JEWELRY_18_cls-5{fill:#c91629;}.BUNTAI_PUMA_JEWELRY_PUMA_JEWELRY_18_cls-6{stroke-width:1.52px;}.BUNTAI_PUMA_JEWELRY_PUMA_JEWELRY_18_cls-7{fill:#754c24;stroke-miterlimit:10;stroke-width:1.26px;}.BUNTAI_PUMA_JEWELRY_PUMA_JEWELRY_18_cls-8{fill:#333;}</style>
  </defs>
  <path class="BUNTAI_PUMA_JEWELRY_PUMA_JEWELRY_18_cls-1" d="M158.27,112.43a7,7,0,0,1-2.53,4.84c-4.93,4.2-12.27,4-13.21-2.87-1.14-8.36,4.17-12.56,4.17-12.56s-.42,1-.18,4.29c-1.07,1-2.1,2.82-1.28,7.65s8.31,2.53,9-1.11a2.7,2.7,0,0,0,.07-.41,6.88,6.88,0,0,0-3.25-6.48,5.47,5.47,0,0,1,1.23-2.36C156.52,105.68,158.52,109.21,158.27,112.43Z" />
  <path class="BUNTAI_PUMA_JEWELRY_PUMA_JEWELRY_18_cls-2" d="M152.15,110.64a5.64,5.64,0,0,1-1.1-4.86,5.47,5.47,0,0,1,1.23-2.36,3.56,3.56,0,0,1,5.16.14" />
  <path class="BUNTAI_PUMA_JEWELRY_PUMA_JEWELRY_18_cls-3" d="M226.28,385.5a11.79,11.79,0,0,1,9.72,9,11.53,11.53,0,0,1-9.35,13.59,12,12,0,0,1-14.19-9,11.42,11.42,0,0,1,7.9-13.19,44,44,0,0,0,.62,6.63l-2.66.52,2,9.38,9.8-1.93-2-9.38-2.48.49A27.42,27.42,0,0,0,226.28,385.5Z" />
  <path class="BUNTAI_PUMA_JEWELRY_PUMA_JEWELRY_18_cls-4" d="M228.42,382.68a15,15,0,0,1,10.86,11.19c1.72,7.95-3.63,15.73-11.95,17.37s-16.44-3.49-18.15-11.44a14.7,14.7,0,0,1,11.32-17.23,5.67,5.67,0,0,0-.17,1.41c0,.51,0,1.19,0,2a11.42,11.42,0,0,0-7.9,13.19,12,12,0,0,0,14.19,9A11.53,11.53,0,0,0,236,394.51a11.79,11.79,0,0,0-9.72-9c0-.58,0-1.18-.07-1.81a10.71,10.71,0,0,0-.09-1.45A16.1,16.1,0,0,1,228.42,382.68Z" />
  <path class="BUNTAI_PUMA_JEWELRY_PUMA_JEWELRY_18_cls-5" d="M228.42,382.68a16.1,16.1,0,0,0-2.3-.44,10.46,10.46,0,0,1,.1,1.45c0,.63.06,1.23.06,1.81a27.18,27.18,0,0,1-.64,6.16,16.81,16.81,0,0,1-1,3.31c-.46.57-1,.45-1.4-.38a1.2,1.2,0,0,1-.1-.37c-.45.29-1.29.63-1.83-.64a5.79,5.79,0,0,1-.3-1,45.26,45.26,0,0,1-.61-6.63c0-.78,0-1.46,0-2a5.67,5.67,0,0,1,.17-1.41,3.37,3.37,0,0,1,.46-1.09,3.21,3.21,0,0,1-.17-.75l0-.36a2.8,2.8,0,0,1,0-.41,3.75,3.75,0,0,1,0-.45A1.34,1.34,0,0,1,221,379a1.37,1.37,0,0,1,.13-.2l0-.05.14-.15.24-.19a1.12,1.12,0,0,1,.24-.13,1.42,1.42,0,0,1,.25-.12l.28-.09-1.07-4.94a1.57,1.57,0,0,1,.2-1.13,1.68,1.68,0,0,1,1.1-.75,1.72,1.72,0,0,1,1.25.22,1.68,1.68,0,0,1,.45.43h0a1.66,1.66,0,0,1,.26.59l1.23,5.74A3.72,3.72,0,0,1,228.42,382.68Z" />
  <path class="BUNTAI_PUMA_JEWELRY_PUMA_JEWELRY_18_cls-6" d="M226.12,382.24a16.1,16.1,0,0,1,2.3.44,15,15,0,0,1,10.86,11.19c1.72,7.95-3.63,15.73-11.95,17.37s-16.44-3.49-18.15-11.44a14.7,14.7,0,0,1,11.32-17.23" />
  <path class="BUNTAI_PUMA_JEWELRY_PUMA_JEWELRY_18_cls-6" d="M226.28,385.5a11.79,11.79,0,0,1,9.72,9,11.53,11.53,0,0,1-9.35,13.59,12,12,0,0,1-14.19-9,11.42,11.42,0,0,1,7.9-13.19" />
  <polyline class="BUNTAI_PUMA_JEWELRY_PUMA_JEWELRY_18_cls-6" points="225.64 391.67 228.12 391.18 230.14 400.56 220.34 402.49 218.32 393.11 220.98 392.59" />
  <path class="BUNTAI_PUMA_JEWELRY_PUMA_JEWELRY_18_cls-6" d="M223.09,394.21a1.61,1.61,0,0,0,.11.38c.38.83.94,1,1.41.38a17.35,17.35,0,0,0,1-3.3,27.42,27.42,0,0,0,.64-6.17c0-.58,0-1.18-.07-1.81a10.71,10.71,0,0,0-.09-1.45c-.17-1.11-.55-1.33-1.23-1.45-.53-.1-.82,0-1.07,1a28.71,28.71,0,0,0-.54,3.5A38.85,38.85,0,0,0,223.09,394.21Z" />
  <path class="BUNTAI_PUMA_JEWELRY_PUMA_JEWELRY_18_cls-6" d="M223.82,381.78c-.17-.81-1.08-1-1.69-1a1.27,1.27,0,0,0-.37.05,1.54,1.54,0,0,0-.8.69,3.37,3.37,0,0,0-.46,1.09,5.67,5.67,0,0,0-.17,1.41c0,.51,0,1.19,0,2a44,44,0,0,0,.62,6.63,5.17,5.17,0,0,0,.29,1c.53,1.27,1.39.92,1.82.63" />
  <path class="BUNTAI_PUMA_JEWELRY_PUMA_JEWELRY_18_cls-6" d="M222.13,380.74a9.9,9.9,0,0,1,1-1.26,4.5,4.5,0,0,1,1.39-1.08,2,2,0,0,1,.4-.16,1.91,1.91,0,0,1,.86,0,3.73,3.73,0,0,1,2.69,4.46" />
  <path class="BUNTAI_PUMA_JEWELRY_PUMA_JEWELRY_18_cls-6" d="M224.47,378.39a2.25,2.25,0,0,0-2.17-.33,1.9,1.9,0,0,0-1.5,1.45,4.21,4.21,0,0,0,.16,2" />
  <path class="BUNTAI_PUMA_JEWELRY_PUMA_JEWELRY_18_cls-6" d="M225.73,378.22l-.64-3-.59-2.76a1.66,1.66,0,0,0-.26-.59" />
  <path class="BUNTAI_PUMA_JEWELRY_PUMA_JEWELRY_18_cls-6" d="M224.23,371.89a1.68,1.68,0,0,0-.45-.43,1.72,1.72,0,0,0-1.25-.22,1.68,1.68,0,0,0-1.1.75,1.57,1.57,0,0,0-.2,1.13l.52,2.41.55,2.53" />
  <line class="BUNTAI_PUMA_JEWELRY_PUMA_JEWELRY_18_cls-6" x1="224.24" y1="371.89" x2="224.23" y2="371.89" />
  <path class="BUNTAI_PUMA_JEWELRY_PUMA_JEWELRY_18_cls-7" d="M298.65,299a3.1,3.1,0,0,0-.66-.32,3.67,3.67,0,0,0-4.58,1.74l3.95,2.32c-9.5,21.39-30.11,49.59-74.38,64.65-42.58-10-63.78-38.6-74.08-60.84-1.67-3.59-3.56-7.82-4.79-11.3l3.86-2.42a3.25,3.25,0,0,0-4.11-1.23,3.88,3.88,0,0,0-2.35,5c0,.12.08.24.13.37,1.26,3.47,2.71,7.06,4.39,10.68,10.61,23,32.52,52.48,76.66,62.71a1.41,1.41,0,0,0,.35.05,1.77,1.77,0,0,0,.52-.09c45.36-15.28,66.59-44.07,76.47-66l.6-1.36c.13-.29.25-.57.36-.86A4.76,4.76,0,0,0,298.65,299Z" />
  <path class="BUNTAI_PUMA_JEWELRY_PUMA_JEWELRY_18_cls-8" d="M219.48,366.37l2.09.54s2.17-1.16,3.06.48.47,2.82-.68,3.34-2.88.07-3.2-.84a4.74,4.74,0,0,0-2-.43s.85,3.09,3.63,3.36a4,4,0,0,0,4.77-3.58,3.77,3.77,0,0,0-2.24-4A4.38,4.38,0,0,0,219.48,366.37Z" />
  <path class="BUNTAI_PUMA_JEWELRY_PUMA_JEWELRY_18_cls-6" d="M218.63,369.35a4.17,4.17,0,0,0,3.8,3.57l.43,0a4.37,4.37,0,0,0,2.85-1,4,4,0,0,0,1.41-2.83,1.62,1.62,0,0,0,0-.22,4,4,0,0,0-1-2.59,4.37,4.37,0,0,0-3.31-1.49,4.28,4.28,0,0,0-3.47,1.72l2.11.54a2.41,2.41,0,0,1,1.36-.42,2.29,2.29,0,0,1,1.28.37,2.21,2.21,0,0,1,1.06,1.87,2.12,2.12,0,0,1-.26,1,2.37,2.37,0,0,1-4.13.07h0Z" />
</svg>