<svg id="jewelries" xmlns="http://www.w3.org/2000/svg" viewBox="0 0 432 432">
  <defs>
    <style>.BUNTAI_PUMA_JEWELRY_PUMA_JEWELRY_24_cls-1{fill:#fff;}.BUNTAI_PUMA_JEWELRY_PUMA_JEWELRY_24_cls-1,.BUNTAI_PUMA_JEWELRY_PUMA_JEWELRY_24_cls-2,.BUNTAI_PUMA_JEWELRY_PUMA_JEWELRY_24_cls-4,.BUNTAI_PUMA_JEWELRY_PUMA_JEWELRY_24_cls-7{stroke:#000;}.BUNTAI_PUMA_JEWELRY_PUMA_JEWELRY_24_cls-1,.BUNTAI_PUMA_JEWELRY_PUMA_JEWELRY_24_cls-4,.BUNTAI_PUMA_JEWELRY_PUMA_JEWELRY_24_cls-7{stroke-linecap:round;stroke-linejoin:round;}.BUNTAI_PUMA_JEWELRY_PUMA_JEWELRY_24_cls-1,.BUNTAI_PUMA_JEWELRY_PUMA_JEWELRY_24_cls-4{stroke-width:1.04px;}.BUNTAI_PUMA_JEWELRY_PUMA_JEWELRY_24_cls-2{fill:#754c24;stroke-miterlimit:10;stroke-width:0.93px;}.BUNTAI_PUMA_JEWELRY_PUMA_JEWELRY_24_cls-3{fill:#333;}.BUNTAI_PUMA_JEWELRY_PUMA_JEWELRY_24_cls-4,.BUNTAI_PUMA_JEWELRY_PUMA_JEWELRY_24_cls-7{fill:none;}.BUNTAI_PUMA_JEWELRY_PUMA_JEWELRY_24_cls-5{fill:#39b54a;}.BUNTAI_PUMA_JEWELRY_PUMA_JEWELRY_24_cls-6{fill:#c7a858;}.BUNTAI_PUMA_JEWELRY_PUMA_JEWELRY_24_cls-7{stroke-width:1.19px;}</style>
  </defs>
  <path class="BUNTAI_PUMA_JEWELRY_PUMA_JEWELRY_24_cls-1" d="M218.32,410.94a31.12,31.12,0,0,1,4.21,10.61s5.57-2.7,6-20a101.09,101.09,0,0,0-.33-11.48c0-.16,0-.31,0-.47s0-.12,0-.18,0-.24,0-.36c-.05-.5-.1-1-.15-1.45l0-.29c0-.1,0-.2,0-.3s0-.27,0-.4l-.12-.93c0-.12,0-.24-.05-.36s0-.24-.05-.36,0-.3-.07-.44,0-.24,0-.35l-.06-.43a1.42,1.42,0,0,0,0-.2c0-.1,0-.2,0-.3a.11.11,0,0,1,0,0l-.06-.34-.06-.36-.14-.77,0-.13a.07.07,0,0,0,0-.05c0-.08,0-.15,0-.21s-.06-.28-.08-.4l2.47-.17-.08-1-3.2.23-1.5-18.67a1.6,1.6,0,0,0-1.74-1.4,1.67,1.67,0,0,0-1.12.52,1.49,1.49,0,0,0-.39,1.11l1.5,18.67-3.37.23.08,1,2.72-.19c0,.26.06.66.1,1.18,0,.11,0,.21,0,.33a.53.53,0,0,1,0,.13.61.61,0,0,1,0,.14c0,.1,0,.22,0,.33,0,.35,0,.73.06,1.15,0,.19,0,.39,0,.59,0,.41,0,.84,0,1.29s0,.84,0,1.28v1c0,.32,0,.66,0,1v.19l0,1.3c0,.17,0,.34,0,.51l0,.78c0,.09,0,.17,0,.26s0,.28,0,.41c0,.28,0,.55,0,.83,0,.59-.08,1.19-.14,1.79,0,.3,0,.6-.09.91,0,.15,0,.3,0,.45l-.12,1c0,.23-.06.46-.1.7-.06.43-.12.87-.19,1.31,0,.14-.05.29-.08.44,0,.32-.11.63-.17.94s-.11.55-.17.83a5.23,5.23,0,0,1-.12.54c0,.21-.09.42-.14.63s0,.12,0,.19-.06.23-.08.35-.06.23-.1.35-.12.44-.18.66a.74.74,0,0,1,0,.14c0,.12-.07.24-.11.36s-.1.35-.16.52c-.19.61-.4,1.2-.63,1.78a1.43,1.43,0,0,1-.08.22c-.12.3-.24.58-.37.87l-.1.22a2.4,2.4,0,0,1-.11.23c0,.1-.09.2-.14.3h0l-.21.42a.47.47,0,0,0-.05.1C218.57,410.5,218.45,410.72,218.32,410.94Z" />
  <path class="BUNTAI_PUMA_JEWELRY_PUMA_JEWELRY_24_cls-1" d="M221.42,361.6l.1,1.31,3.26-.23-.11-1.31a1.6,1.6,0,0,0-1.74-1.4,1.67,1.67,0,0,0-1.12.52A1.49,1.49,0,0,0,221.42,361.6Z" />
  <polygon class="BUNTAI_PUMA_JEWELRY_PUMA_JEWELRY_24_cls-1" points="221.53 362.91 222.92 380.27 226.17 380.04 224.78 362.68 221.53 362.91" />
  <polygon class="BUNTAI_PUMA_JEWELRY_PUMA_JEWELRY_24_cls-1" points="219.55 380.5 219.63 381.48 229.45 380.79 229.37 379.81 219.55 380.5" />
  <polygon class="BUNTAI_PUMA_JEWELRY_PUMA_JEWELRY_24_cls-1" points="219.55 380.5 219.63 381.48 229.45 380.79 229.37 379.81 219.55 380.5" />
  <path class="BUNTAI_PUMA_JEWELRY_PUMA_JEWELRY_24_cls-1" d="M222.35,381.29c.05.53.14,1.68.21,3.26.26,6.14.16,18.73-4.24,26.39a31.12,31.12,0,0,1,4.21,10.61s5.57-2.7,6-20a98.61,98.61,0,0,0-1-17.37c-.23-1.55-.45-2.65-.57-3.24" />
  <path class="BUNTAI_PUMA_JEWELRY_PUMA_JEWELRY_24_cls-1" d="M226.17,380l-.08-1-.15-1.88-.1-1.28-.17-2.15-.07-.87-.06-.7-.14-1.8-.06-.71-.13-1.62,0-.49-.15-1.88L225,365l-.14-1.68-.05-.67-.11-1.31a1.6,1.6,0,0,0-1.74-1.4,1.63,1.63,0,0,0-1.12.53,1.42,1.42,0,0,0-.39,1.1l.11,1.31h0l.12,1.6,0,.25.13,1.68.06.83.13,1.49,0,.42.15,1.93,0,.53.1,1.29.08.93v.1l.11,1.3.12,1.55.14,1.66.09,1.22,0,.57" />
  <line class="BUNTAI_PUMA_JEWELRY_PUMA_JEWELRY_24_cls-1" x1="224.78" y1="362.68" x2="221.52" y2="362.91" />
  <polyline class="BUNTAI_PUMA_JEWELRY_PUMA_JEWELRY_24_cls-1" points="222.87 379.69 226.09 379.05 222.78 378.46 225.94 377.17 222.64 376.81 225.84 375.9 222.52 375.26 225.69 374.07 222.41 373.86" />
  <line class="BUNTAI_PUMA_JEWELRY_PUMA_JEWELRY_24_cls-1" x1="225.6" y1="372.87" x2="222.33" y2="372.93" />
  <path class="BUNTAI_PUMA_JEWELRY_PUMA_JEWELRY_24_cls-1" d="M221.65,364.51c.93-.35,2.72-1,3.18-1.16" />
  <line class="BUNTAI_PUMA_JEWELRY_PUMA_JEWELRY_24_cls-1" x1="225.02" y1="365.67" x2="221.81" y2="366.44" />
  <line class="BUNTAI_PUMA_JEWELRY_PUMA_JEWELRY_24_cls-1" x1="224.97" y1="365.03" x2="221.68" y2="364.76" />
  <line class="BUNTAI_PUMA_JEWELRY_PUMA_JEWELRY_24_cls-1" x1="225.21" y1="368.04" x2="222" y2="368.76" />
  <line class="BUNTAI_PUMA_JEWELRY_PUMA_JEWELRY_24_cls-1" x1="225.17" y1="367.55" x2="221.87" y2="367.27" />
  <path class="BUNTAI_PUMA_JEWELRY_PUMA_JEWELRY_24_cls-1" d="M225.34,369.66l-3.31-.48" />
  <path class="BUNTAI_PUMA_JEWELRY_PUMA_JEWELRY_24_cls-1" d="M225.4,370.37l-3.22.74" />
  <line class="BUNTAI_PUMA_JEWELRY_PUMA_JEWELRY_24_cls-1" x1="225.54" y1="372.17" x2="222.23" y2="371.64" />
  <path class="BUNTAI_PUMA_JEWELRY_PUMA_JEWELRY_24_cls-2" d="M294.35,295.08a1.56,1.56,0,0,0-.79-.25c-1.61-.08-3.33,2.16-3.33,2.16l2,.82c-9.15,19.06-28,43.26-66.67,57l-.06,0-1.79.62-.13,0h0c-.37.13-.73.26-1.11.38l-1.38-.33h0l-2-.5c-38.12-10-57.39-35.47-66.88-55.48-1.51-3.17-2.5-5.46-3.64-8.5l1.86-.8s-1.4-2.25-2.75-2.12l-.18,0c-1.4.28-2.57,1.31-2,3.06a1,1,0,0,0,.05.16h0c1.13,3,2.42,6.08,3.9,9.2,9.75,20.59,29.58,46.88,68.88,57.11l.39.1h0l1.56.39h.09c.59.15,1.18.28,1.79.42a1.32,1.32,0,0,0,.34,0,1.61,1.61,0,0,0,.49-.07l1.28-.43h0a0,0,0,0,0,0,0h0c.7-.23,1.38-.47,2.06-.71h0c39.7-14.06,59.07-38.91,68.47-58.5l.07-.16C295.17,298.17,295.87,296,294.35,295.08Z" />
  <path class="BUNTAI_PUMA_JEWELRY_PUMA_JEWELRY_24_cls-3" d="M219.12,354.93l2,.51s2.06-1.08,2.91.44.45,2.61-.65,3.09-2.73.06-3-.78a4.42,4.42,0,0,0-1.9-.39s.8,2.85,3.44,3.1,4.26-1.28,4.52-3.31a3.47,3.47,0,0,0-2.13-3.69A4.22,4.22,0,0,0,219.12,354.93Z" />
  <path class="BUNTAI_PUMA_JEWELRY_PUMA_JEWELRY_24_cls-4" d="M218.32,357.69a3.91,3.91,0,0,0,3.61,3.3,2.68,2.68,0,0,0,.4,0,4.19,4.19,0,0,0,2.7-1,3.64,3.64,0,0,0,1.34-2.62,1.34,1.34,0,0,0,0-.2,3.65,3.65,0,0,0-.91-2.4,4.19,4.19,0,0,0-3.14-1.38A4.11,4.11,0,0,0,219,355l2,.51a2.26,2.26,0,0,1,1.29-.39,2.22,2.22,0,0,1,1.21.34,2,2,0,0,1,1,1.73,1.94,1.94,0,0,1-.24.92,2.28,2.28,0,0,1-3.93.06h0Z" />
  <path class="BUNTAI_PUMA_JEWELRY_PUMA_JEWELRY_24_cls-5" d="M156.05,166.08c0,6.2-3.13,11.23-7,11.23s-7-5-7-11.23,3.13-11.23,7-11.23S156.05,159.87,156.05,166.08Z" />
  <path class="BUNTAI_PUMA_JEWELRY_PUMA_JEWELRY_24_cls-6" d="M149.06,151.76c-4.93,0-8.94,6.4-8.94,14.32s4,14.31,8.94,14.31S158,174,158,166.08,154,151.76,149.06,151.76Zm0,25.54c-3.88,0-7-5-7-11.22s3.13-11.24,7-11.24,7,5,7,11.24S152.92,177.3,149.06,177.3Z" />
  <ellipse class="BUNTAI_PUMA_JEWELRY_PUMA_JEWELRY_24_cls-6" cx="149.05" cy="149.35" rx="3.73" ry="2.4" />
  <path class="BUNTAI_PUMA_JEWELRY_PUMA_JEWELRY_24_cls-6" d="M149,134.28c-2.63,0-2.2-3.59-2.2-3.59h0a7.09,7.09,0,0,0,3.23.68,3.07,3.07,0,0,0,1.44-.35C151.43,131.22,151.48,134.28,149,134.28Z" />
  <path class="BUNTAI_PUMA_JEWELRY_PUMA_JEWELRY_24_cls-6" d="M153.47,120.14c1,3.2.76,9.33-2.05,10.87a3.07,3.07,0,0,1-1.44.35,7.09,7.09,0,0,1-3.23-.68c-2.41-1.16-3.63-3.89-3.46-8a13.17,13.17,0,0,1,.74-4,8.64,8.64,0,0,1,2.35-3.65,3,3,0,0,1,2.15-.89,3.63,3.63,0,0,1,2.61,1.54,5,5,0,0,1-1.16.22h-.07a6.68,6.68,0,0,0-2.94,4.53c-.74,3.52.49,7.47,2.27,7.47,2,0,2-4.59,1.88-7l.15,0A8.34,8.34,0,0,0,153.47,120.14Z" />
  <path class="BUNTAI_PUMA_JEWELRY_PUMA_JEWELRY_24_cls-6" d="M146.75,102.85c.33,3.4-.16,4.58-.16,4.58s-3.21,2.79-1.37,6.24a3.6,3.6,0,0,0,1.16,1.29,8.64,8.64,0,0,0-2.35,3.65C139.77,114.83,139.42,106,146.75,102.85Z" />
  <path class="BUNTAI_PUMA_JEWELRY_PUMA_JEWELRY_24_cls-6" d="M157.68,114.46a7.59,7.59,0,0,1-4.22,5.68,8.65,8.65,0,0,1-2.19.66l-.15,0a8.26,8.26,0,0,1-4.15-.44,6.65,6.65,0,0,1,2.94-4.54H150a5.68,5.68,0,0,0,1.16-.23,3.42,3.42,0,0,0,2.44-2.12,2.71,2.71,0,0,0,.15-.91c0-3.74-1.47-3.92-1.47-3.92a4.48,4.48,0,0,1-.18-.5,4.82,4.82,0,0,1,3.73-3.15A12.77,12.77,0,0,1,157.68,114.46Z" />
  <path class="BUNTAI_PUMA_JEWELRY_PUMA_JEWELRY_24_cls-7" d="M144,118.61c-4.26-3.78-4.85-12.59,2.72-15.76a7.88,7.88,0,0,1-.16,4.58s-3.21,2.79-1.37,6.24a3.6,3.6,0,0,0,1.16,1.29" />
  <path class="BUNTAI_PUMA_JEWELRY_PUMA_JEWELRY_24_cls-7" d="M147,120.39a8.26,8.26,0,0,0,4.15.44l.15,0a8.65,8.65,0,0,0,2.19-.66,7.59,7.59,0,0,0,4.22-5.68,12.77,12.77,0,0,0-1.87-9.45" />
  <path class="BUNTAI_PUMA_JEWELRY_PUMA_JEWELRY_24_cls-7" d="M152.08,108.16a4.48,4.48,0,0,0,.18.5s1.42.18,1.47,3.92a2.71,2.71,0,0,1-.15.91,3.42,3.42,0,0,1-2.44,2.12,5.68,5.68,0,0,1-1.16.23" />
  <path class="BUNTAI_PUMA_JEWELRY_PUMA_JEWELRY_24_cls-7" d="M153.47,120.14c1,3.2.76,9.33-2.05,10.87a3.07,3.07,0,0,1-1.44.35,7.09,7.09,0,0,1-3.23-.68c-2.41-1.16-3.63-3.89-3.46-8a13.17,13.17,0,0,1,.74-4,8.64,8.64,0,0,1,2.35-3.65,3,3,0,0,1,2.15-.89,3.63,3.63,0,0,1,2.61,1.54" />
  <path class="BUNTAI_PUMA_JEWELRY_PUMA_JEWELRY_24_cls-7" d="M151.12,120.83c.12,2.43.1,7-1.88,7-1.78,0-3-3.95-2.27-7.47a6.68,6.68,0,0,1,2.94-4.53H150" />
  <path class="BUNTAI_PUMA_JEWELRY_PUMA_JEWELRY_24_cls-7" d="M146.75,130.69s-.43,3.59,2.2,3.59,2.48-3.06,2.47-3.27h0" />
  <ellipse class="BUNTAI_PUMA_JEWELRY_PUMA_JEWELRY_24_cls-7" cx="149.05" cy="149.35" rx="3.73" ry="2.4" />
  <path class="BUNTAI_PUMA_JEWELRY_PUMA_JEWELRY_24_cls-7" d="M158,166.08c0,7.91-4,14.32-8.93,14.32s-8.93-6.41-8.93-14.32,4-14.32,8.93-14.32S158,158.16,158,166.08Z" />
  <path class="BUNTAI_PUMA_JEWELRY_PUMA_JEWELRY_24_cls-7" d="M156.05,166.08c0,6.2-3.13,11.23-7,11.23s-7-5-7-11.23,3.13-11.23,7-11.23S156.05,159.87,156.05,166.08Z" />
  <line class="BUNTAI_PUMA_JEWELRY_PUMA_JEWELRY_24_cls-7" x1="148.95" y1="134.28" x2="148.95" y2="146.95" />
  <path class="BUNTAI_PUMA_JEWELRY_PUMA_JEWELRY_24_cls-7" d="M149.67,157.23s4.21,1.54,4,9.53" />
  <path class="BUNTAI_PUMA_JEWELRY_PUMA_JEWELRY_24_cls-7" d="M152.36,112a4.73,4.73,0,0,1-.55-2.24,4.67,4.67,0,0,1,.27-1.6,4.82,4.82,0,0,1,3.73-3.15,5.33,5.33,0,0,1,.82-.07,3.29,3.29,0,0,1,3.26,2.42" />
</svg>