<svg id="jewelries" xmlns="http://www.w3.org/2000/svg" viewBox="0 0 432 432">
  <defs>
    <style>.BUNTAI_PUMA_JEWELRY_PUMA_JEWELRY_14_cls-1{fill:#e2cb6e;}.BUNTAI_PUMA_JEWELRY_PUMA_JEWELRY_14_cls-1,.BUNTAI_PUMA_JEWELRY_PUMA_JEWELRY_14_cls-2{stroke:#000;stroke-linecap:round;stroke-linejoin:round;stroke-width:1.38px;}.BUNTAI_PUMA_JEWELRY_PUMA_JEWELRY_14_cls-2{fill:none;}</style>
  </defs>
  <path class="BUNTAI_PUMA_JEWELRY_PUMA_JEWELRY_14_cls-1" d="M158.21,111.64a6.91,6.91,0,0,1-2.53,4.83c-4.92,4.21-12.26,4-13.2-2.86-1.14-8.36,4.17-12.56,4.17-12.56s-.42,1-.18,4.28c-1.07,1-2.1,2.83-1.28,7.66s8.31,2.53,9-1.11a2.83,2.83,0,0,0,.07-.42A6.87,6.87,0,0,0,151,105a5.56,5.56,0,0,1,1.23-2.37C156.47,104.89,158.47,108.42,158.21,111.64Z" />
  <path class="BUNTAI_PUMA_JEWELRY_PUMA_JEWELRY_14_cls-2" d="M152.1,109.85a5.51,5.51,0,0,1-.93-1.66,5.59,5.59,0,0,1,1.06-5.57,3.57,3.57,0,0,1,5.16.14" />
</svg>