<svg id="jewelries" xmlns="http://www.w3.org/2000/svg" viewBox="0 0 432 432">
  <defs>
    <style>.BUNTAI_PUMA_JEWELRY_PUMA_JEWELRY_3_cls-1{fill:#e2d93c;stroke-miterlimit:10;stroke-width:2px;}.BUNTAI_PUMA_JEWELRY_PUMA_JEWELRY_3_cls-1,.BUNTAI_PUMA_JEWELRY_PUMA_JEWELRY_3_cls-5{stroke:#000;}.BUNTAI_PUMA_JEWELRY_PUMA_JEWELRY_3_cls-2{fill:#7367ff;}.BUNTAI_PUMA_JEWELRY_PUMA_JEWELRY_3_cls-3{fill:#ff5e63;}.BUNTAI_PUMA_JEWELRY_PUMA_JEWELRY_3_cls-4{fill:#fff;}.BUNTAI_PUMA_JEWELRY_PUMA_JEWELRY_3_cls-5{fill:none;stroke-linecap:round;stroke-linejoin:round;stroke-width:1.2px;}.BUNTAI_PUMA_JEWELRY_PUMA_JEWELRY_3_cls-6{fill:#c7a858;}</style>
  </defs>
  <circle class="BUNTAI_PUMA_JEWELRY_PUMA_JEWELRY_3_cls-1" cx="253.21" cy="217.42" r="2.6" />
  <circle class="BUNTAI_PUMA_JEWELRY_PUMA_JEWELRY_3_cls-1" cx="271.31" cy="217.42" r="2.6" />
  <path class="BUNTAI_PUMA_JEWELRY_PUMA_JEWELRY_3_cls-2" d="M161.88,181.51l1.27,38.92h-15.4a25.53,25.53,0,0,1,14.13-38.92Z" />
  <circle class="BUNTAI_PUMA_JEWELRY_PUMA_JEWELRY_3_cls-3" cx="150.55" cy="170.67" r="5.51" />
  <path class="BUNTAI_PUMA_JEWELRY_PUMA_JEWELRY_3_cls-4" d="M152.16,154h0a1.44,1.44,0,0,0-2.88,0h0a1.44,1.44,0,1,0,2.88,0Zm1.6,0H161l.9,27.53a25.53,25.53,0,0,0-14.13,38.92h-9.46L140.44,154h7.25a3,3,0,0,1,6.07,0Zm2.3,16.69a5.51,5.51,0,1,0-5.51,5.5A5.51,5.51,0,0,0,156.06,170.67Z" />
  <polyline class="BUNTAI_PUMA_JEWELRY_PUMA_JEWELRY_3_cls-5" points="150.72 138.9 150.72 150.95 150.72 152.54 150.72 153.98" />
  <path class="BUNTAI_PUMA_JEWELRY_PUMA_JEWELRY_3_cls-5" d="M161.88,181.51,161,154h-7.22a3,3,0,0,0-6.07,0h-7.25l-2.15,66.45h9.46" />
  <path class="BUNTAI_PUMA_JEWELRY_PUMA_JEWELRY_3_cls-5" d="M149.28,154a1.44,1.44,0,0,1,2.88,0" />
  <path class="BUNTAI_PUMA_JEWELRY_PUMA_JEWELRY_3_cls-5" d="M149.28,154h0a1.44,1.44,0,1,0,2.88,0h0" />
  <path class="BUNTAI_PUMA_JEWELRY_PUMA_JEWELRY_3_cls-5" d="M161.88,181.51h0l1.27,38.92h-15.4a25.53,25.53,0,0,1,14.13-38.92Z" />
  <circle class="BUNTAI_PUMA_JEWELRY_PUMA_JEWELRY_3_cls-5" cx="150.55" cy="170.67" r="5.51" />
  <path class="BUNTAI_PUMA_JEWELRY_PUMA_JEWELRY_3_cls-6" d="M150.61,139.08c-2.31,0-1.94-3.15-1.94-3.15h0a6.29,6.29,0,0,0,2.84.6,2.62,2.62,0,0,0,1.27-.31C152.79,136.39,152.83,139.08,150.61,139.08Z" />
  <path class="BUNTAI_PUMA_JEWELRY_PUMA_JEWELRY_3_cls-6" d="M154.58,126.65c.85,2.82.67,8.2-1.8,9.56a2.62,2.62,0,0,1-1.27.31,6.29,6.29,0,0,1-2.84-.6c-2.11-1-3.18-3.42-3-7.07a11.89,11.89,0,0,1,.65-3.55,7.62,7.62,0,0,1,2.07-3.2,2.65,2.65,0,0,1,1.89-.79,3.2,3.2,0,0,1,2.29,1.36,4.84,4.84,0,0,1-1,.19h0a5.83,5.83,0,0,0-2.59,4c-.65,3.1.43,6.57,2,6.57,1.74,0,1.77-4,1.66-6.18l.13,0A7.66,7.66,0,0,0,154.58,126.65Z" />
  <path class="BUNTAI_PUMA_JEWELRY_PUMA_JEWELRY_3_cls-6" d="M147.7,111.57a11.14,11.14,0,0,0,.83,3.9s-2.82,2.46-1.2,5.49a3.21,3.21,0,0,0,1,1.14,7.62,7.62,0,0,0-2.07,3.2C142.53,122,141.53,115.38,147.7,111.57Z" />
  <path class="BUNTAI_PUMA_JEWELRY_PUMA_JEWELRY_3_cls-6" d="M158.29,121.66a6.69,6.69,0,0,1-3.71,5,7.27,7.27,0,0,1-1.93.58l-.14,0a7.18,7.18,0,0,1-3.64-.38,5.86,5.86,0,0,1,2.58-4h.06a5.06,5.06,0,0,0,1-.19,3,3,0,0,0,2.14-1.87,2.32,2.32,0,0,0,.13-.8c0-3.28-1.29-3.44-1.29-3.44a4.06,4.06,0,0,1-.16-.45,4.22,4.22,0,0,1,3.28-2.76A11.22,11.22,0,0,1,158.29,121.66Z" />
  <path class="BUNTAI_PUMA_JEWELRY_PUMA_JEWELRY_3_cls-5" d="M146.28,125.3c-3.75-3.32-4.75-9.92,1.42-13.73.57,2.34.83,3.9.83,3.9s-2.82,2.46-1.2,5.49a3.21,3.21,0,0,0,1,1.14" />
  <path class="BUNTAI_PUMA_JEWELRY_PUMA_JEWELRY_3_cls-5" d="M148.87,126.87a7.18,7.18,0,0,0,3.64.38l.14,0a7.27,7.27,0,0,0,1.93-.58,6.69,6.69,0,0,0,3.71-5,11.22,11.22,0,0,0-1.65-8.31" />
  <path class="BUNTAI_PUMA_JEWELRY_PUMA_JEWELRY_3_cls-5" d="M153.36,116.11a4.06,4.06,0,0,0,.16.45s1.25.16,1.29,3.44a2.32,2.32,0,0,1-.13.8,3,3,0,0,1-2.14,1.87,5.06,5.06,0,0,1-1,.19" />
  <path class="BUNTAI_PUMA_JEWELRY_PUMA_JEWELRY_3_cls-5" d="M154.58,126.65c.85,2.82.67,8.2-1.8,9.56a2.62,2.62,0,0,1-1.27.31,6.29,6.29,0,0,1-2.84-.6c-2.11-1-3.18-3.42-3-7.07a11.89,11.89,0,0,1,.65-3.55,7.62,7.62,0,0,1,2.07-3.2,2.65,2.65,0,0,1,1.89-.79,3.2,3.2,0,0,1,2.29,1.36" />
  <path class="BUNTAI_PUMA_JEWELRY_PUMA_JEWELRY_3_cls-5" d="M152.52,127.25c.11,2.14.08,6.18-1.66,6.18-1.56,0-2.64-3.47-2-6.57a5.83,5.83,0,0,1,2.59-4h0" />
  <path class="BUNTAI_PUMA_JEWELRY_PUMA_JEWELRY_3_cls-5" d="M148.67,135.93s-.37,3.15,1.94,3.15,2.18-2.69,2.17-2.87h0" />
  <path class="BUNTAI_PUMA_JEWELRY_PUMA_JEWELRY_3_cls-5" d="M153.6,119.49a4.22,4.22,0,0,1-.48-2,4.14,4.14,0,0,1,.24-1.41,4.23,4.23,0,0,1,4-2.82,2.88,2.88,0,0,1,2.87,2.13" />
</svg>