<svg id="jewelries" xmlns="http://www.w3.org/2000/svg" viewBox="0 0 432 432">
  <defs>
    <style>.BUNTAI_PUMA_JEWELRY_PUMA_JEWELRY_26_cls-1{fill:#fff;}.BUNTAI_PUMA_JEWELRY_PUMA_JEWELRY_26_cls-1,.BUNTAI_PUMA_JEWELRY_PUMA_JEWELRY_26_cls-2,.BUNTAI_PUMA_JEWELRY_PUMA_JEWELRY_26_cls-4,.BUNTAI_PUMA_JEWELRY_PUMA_JEWELRY_26_cls-5{stroke:#000;}.BUNTAI_PUMA_JEWELRY_PUMA_JEWELRY_26_cls-1,.BUNTAI_PUMA_JEWELRY_PUMA_JEWELRY_26_cls-2{stroke-miterlimit:10;stroke-width:0.79px;}.BUNTAI_PUMA_JEWELRY_PUMA_JEWELRY_26_cls-2{fill:#754c24;}.BUNTAI_PUMA_JEWELRY_PUMA_JEWELRY_26_cls-3{fill:#333;}.BUNTAI_PUMA_JEWELRY_PUMA_JEWELRY_26_cls-4{fill:none;stroke-width:0.59px;}.BUNTAI_PUMA_JEWELRY_PUMA_JEWELRY_26_cls-4,.BUNTAI_PUMA_JEWELRY_PUMA_JEWELRY_26_cls-5{stroke-linecap:round;stroke-linejoin:round;}.BUNTAI_PUMA_JEWELRY_PUMA_JEWELRY_26_cls-5{fill:#ffc33e;stroke-width:2px;}</style>
  </defs>
  <path class="BUNTAI_PUMA_JEWELRY_PUMA_JEWELRY_26_cls-1" d="M193.26,389.12l1.38.47,3,1,1.05.33,1.38.44.3.09,1,.31,2.29.69,1.67.48,2.07.57.66.17.71.19,1.49.36.79.18.91.19c.51-1.65,1-3.06,1-3.06l-.92-.24h0l-.64-.17-.28-.08-1.74-.46-1.28-.35-1.75-.47-2.62-.72-1-.29-1.69-.49-.46-.14-.65-.2-1-.3-1.21-.39-.76-.24-1.1-.36-.08,0L194.1,386a6.42,6.42,0,0,0-1,1.79A2.21,2.21,0,0,0,193.26,389.12Z" />
  <polyline class="BUNTAI_PUMA_JEWELRY_PUMA_JEWELRY_26_cls-1" points="212.98 391.51 213.83 389.49 214.36 389.6 213.95 391.98 213.43 391.87 212.68 394.37 213.17 394.47 212.02 396.57 211.62 396.4 211.95 394.57" />
  <line class="BUNTAI_PUMA_JEWELRY_PUMA_JEWELRY_26_cls-1" x1="214.84" y1="392.15" x2="213.94" y2="391.98" />
  <line class="BUNTAI_PUMA_JEWELRY_PUMA_JEWELRY_26_cls-1" x1="214.13" y1="394.66" x2="213.17" y2="394.47" />
  <path class="BUNTAI_PUMA_JEWELRY_PUMA_JEWELRY_26_cls-1" d="M212.06,391.27s-.69,1.92-1,3.11" />
  <path class="BUNTAI_PUMA_JEWELRY_PUMA_JEWELRY_26_cls-1" d="M194.64,389.59a10,10,0,0,1,1.21-3" />
  <path class="BUNTAI_PUMA_JEWELRY_PUMA_JEWELRY_26_cls-1" d="M195.22,389.78s.89-1.29,1.72-2.81" />
  <path class="BUNTAI_PUMA_JEWELRY_PUMA_JEWELRY_26_cls-1" d="M197.7,387.21a5.53,5.53,0,0,1-1,3" />
  <path class="BUNTAI_PUMA_JEWELRY_PUMA_JEWELRY_26_cls-1" d="M199.9,387.9a19.1,19.1,0,0,1-1.22,3" />
  <path class="BUNTAI_PUMA_JEWELRY_PUMA_JEWELRY_26_cls-1" d="M198.91,387.6a4.89,4.89,0,0,1-1.28,3" />
  <path class="BUNTAI_PUMA_JEWELRY_PUMA_JEWELRY_26_cls-1" d="M200.55,388.1a14,14,0,0,1-.13,2.94l-.06.39" />
  <path class="BUNTAI_PUMA_JEWELRY_PUMA_JEWELRY_26_cls-1" d="M200.06,391.34l.36-.3a15.62,15.62,0,0,0,2.28-2.31" />
  <path class="BUNTAI_PUMA_JEWELRY_PUMA_JEWELRY_26_cls-1" d="M203.74,389c-.05.08-.12.16-.19.26a17.86,17.86,0,0,1-2.19,2.46" />
  <path class="BUNTAI_PUMA_JEWELRY_PUMA_JEWELRY_26_cls-1" d="M203.55,389.28a4.49,4.49,0,0,1,.22,2.05c0,.38-.07.75-.12,1.1" />
  <path class="BUNTAI_PUMA_JEWELRY_PUMA_JEWELRY_26_cls-1" d="M203.77,391.33a6.9,6.9,0,0,0,1.63-.86l.44-.32.52-.41" />
  <path class="BUNTAI_PUMA_JEWELRY_PUMA_JEWELRY_26_cls-1" d="M205.4,390.47a6.58,6.58,0,0,1-.08,2.44" />
  <path class="BUNTAI_PUMA_JEWELRY_PUMA_JEWELRY_26_cls-1" d="M208.11,390.21a6.64,6.64,0,0,1-.41,2.55,7.44,7.44,0,0,1-.31.72" />
  <path class="BUNTAI_PUMA_JEWELRY_PUMA_JEWELRY_26_cls-1" d="M205.85,390.15a11.75,11.75,0,0,1,1.85,2.61" />
  <path class="BUNTAI_PUMA_JEWELRY_PUMA_JEWELRY_26_cls-1" d="M211.41,391.1a10.13,10.13,0,0,1-1.16,3.1" />
  <path class="BUNTAI_PUMA_JEWELRY_PUMA_JEWELRY_26_cls-1" d="M211.13,391a11.47,11.47,0,0,1-2.37,2.82" />
  <line class="BUNTAI_PUMA_JEWELRY_PUMA_JEWELRY_26_cls-1" x1="208.05" y1="393.65" x2="209.39" y2="390.56" />
  <path class="BUNTAI_PUMA_JEWELRY_PUMA_JEWELRY_26_cls-1" d="M261.13,395.51a41.07,41.07,0,0,1-13.83,3c-14.45,1-30.76-2.59-33.36-3.18l1.07-3.79c2.3.53,24.16,6.3,47.1,1.6C263.35,392.87,262.25,395,261.13,395.51Z" />
  <line class="BUNTAI_PUMA_JEWELRY_PUMA_JEWELRY_26_cls-1" x1="215.01" y1="391.52" x2="213.94" y2="395.31" />
  <path class="BUNTAI_PUMA_JEWELRY_PUMA_JEWELRY_26_cls-2" d="M227,391.23a1.66,1.66,0,0,1-.32,0c-38.84-8-58.13-30.94-67.46-48.8-10.09-19.31-15.11-49-15.12-49.14a3.11,3.11,0,0,1,1.27-2.25,3.69,3.69,0,0,1,4.27,1,26.09,26.09,0,0,0-2.77,1.86c0,.18,5,28.77,14.87,47.68,9.06,17.3,27.72,39.53,65.18,47.35,39.54-11.9,57.63-34.31,65.85-51.05,8.94-18.2,8.54-32.56,8.46-32.7-.77-.43-2.35-1.22-2.93-1.5a4,4,0,0,1,4.26-1.29c1.24.28,1.36,2.08,1.38,2.72s.5,15-8.66,33.65c-8.46,17.22-27.09,40.3-67.83,52.45A1.74,1.74,0,0,1,227,391.23Z" />
  <path class="BUNTAI_PUMA_JEWELRY_PUMA_JEWELRY_26_cls-3" d="M223.85,388.1l1.84.43s1.91-.91,2.69.36.42,2.2-.6,2.6-2.53.05-2.81-.65a4.59,4.59,0,0,0-1.77-.34,3.86,3.86,0,0,0,3.19,2.61c2.45.21,4-1.08,4.2-2.78a2.92,2.92,0,0,0-2-3.1A4.22,4.22,0,0,0,223.85,388.1Z" />
  <path class="BUNTAI_PUMA_JEWELRY_PUMA_JEWELRY_26_cls-4" d="M223.11,390.42a3.5,3.5,0,0,0,3.34,2.77h.38a4.15,4.15,0,0,0,2.5-.8,3,3,0,0,0,1.24-2.2.52.52,0,0,0,0-.17,2.9,2.9,0,0,0-.85-2,4.09,4.09,0,0,0-2.91-1.15,4,4,0,0,0-3.06,1.33l1.86.43a2.24,2.24,0,0,1,1.2-.33,2.17,2.17,0,0,1,1.12.29,1.66,1.66,0,0,1,.93,1.45,1.5,1.5,0,0,1-.22.77,2.1,2.1,0,0,1-1.83,1,2.12,2.12,0,0,1-1.81-.91h0Z" />
  <circle class="BUNTAI_PUMA_JEWELRY_PUMA_JEWELRY_26_cls-5" cx="325.14" cy="101.16" r="3.15" />
  <path class="BUNTAI_PUMA_JEWELRY_PUMA_JEWELRY_26_cls-5" d="M325.14,104.31S321,145.37,321,155.74s4.15,12.88,4.15,12.88,4.16-2.51,4.16-12.88S325.14,104.31,325.14,104.31Z" />
</svg>