<svg xmlns="http://www.w3.org/2000/svg" viewBox="0 0 432 432">
  <defs>
    <style>.BUNTAI_PUMA_JEWELRY_PUMA_JEWELRY_1_cls-1{isolation:isolate;}.BUNTAI_PUMA_JEWELRY_PUMA_JEWELRY_1_cls-2{fill:#563838;stroke-miterlimit:10;stroke-width:2px;}.BUNTAI_PUMA_JEWELRY_PUMA_JEWELRY_1_cls-2,.BUNTAI_PUMA_JEWELRY_PUMA_JEWELRY_1_cls-7{stroke:#000;}.BUNTAI_PUMA_JEWELRY_PUMA_JEWELRY_1_cls-3{fill:#fff;opacity:0.54;mix-blend-mode:screen;}.BUNTAI_PUMA_JEWELRY_PUMA_JEWELRY_1_cls-4{fill:#3d1b1b;opacity:0.68;mix-blend-mode:multiply;}.BUNTAI_PUMA_JEWELRY_PUMA_JEWELRY_1_cls-5{fill:#39b54a;}.BUNTAI_PUMA_JEWELRY_PUMA_JEWELRY_1_cls-6{fill:#c7a858;}.BUNTAI_PUMA_JEWELRY_PUMA_JEWELRY_1_cls-7{fill:none;stroke-linecap:round;stroke-linejoin:round;stroke-width:0.86px;}</style>
  </defs>
  <g class="BUNTAI_PUMA_JEWELRY_PUMA_JEWELRY_1_cls-1">
    <g id="jewelries">
      <path class="BUNTAI_PUMA_JEWELRY_PUMA_JEWELRY_1_cls-2" d="M153.68,269.13c0-.94.09-1.89.13-2.84.19-3.62.39-7.32.62-11.15,0-.7.09-1.41.13-2.13s.11-1.66.16-2.5a18.16,18.16,0,0,0-9.4,11.15,15.91,15.91,0,0,0-.44,1.81,18.28,18.28,0,0,0-.28,2.24c0,.36,0,.73,0,1.1a18,18,0,0,0,2.25,8.76,18.22,18.22,0,0,0,3.73,4.72l.11.09a17,17,0,0,0,2.5,1.87l.05,0,.09-2.92-.05,0c.12-3.36.26-6.74.43-10.18" />
      <path class="BUNTAI_PUMA_JEWELRY_PUMA_JEWELRY_1_cls-2" d="M153.81,266.29c0,.95-.09,1.9-.13,2.84,0,0,0,.05,0,.07-.17,3.44-.31,6.82-.43,10.18l.05,0-.09,2.92-.34,11a18.12,18.12,0,0,1-2.32,1.66,17.31,17.31,0,0,1-3.43,1.6,5,5,0,0,1-.62.2s0,0,0,0a18.24,18.24,0,0,1-5.31.79c-.53,0-1,0-1.56-.07h0a18.18,18.18,0,0,1-16.46-16,16.84,16.84,0,0,1-.13-2.14,17.55,17.55,0,0,1,1.4-7c0-.1,0-.15,0-.15a18.14,18.14,0,0,1,16.71-11.05,17.61,17.61,0,0,1,4.13.48A18,18,0,0,1,153.81,266.29Z" />
      <circle class="BUNTAI_PUMA_JEWELRY_PUMA_JEWELRY_1_cls-2" cx="132.52" cy="297.05" r="18.16" />
      <circle class="BUNTAI_PUMA_JEWELRY_PUMA_JEWELRY_1_cls-2" cx="135.93" cy="333.38" r="18.16" />
      <circle class="BUNTAI_PUMA_JEWELRY_PUMA_JEWELRY_1_cls-2" cx="145.8" cy="368.13" r="18.16" />
      <circle class="BUNTAI_PUMA_JEWELRY_PUMA_JEWELRY_1_cls-2" cx="154.09" cy="403.78" r="18.16" />
      <circle class="BUNTAI_PUMA_JEWELRY_PUMA_JEWELRY_1_cls-2" cx="179.26" cy="430.55" r="18.16" />
      <path class="BUNTAI_PUMA_JEWELRY_PUMA_JEWELRY_1_cls-2" d="M284.32,268.29c6.32-2.69,10.36-9.8,10.36-9.8a18.26,18.26,0,0,1,11.4,9.27h0c.05.12.11.23.17.35a18.24,18.24,0,0,1,1.56,5,18.17,18.17,0,0,1-11,19.72l-.31.12h0a18.37,18.37,0,0,1-3.65,1,18,18,0,0,1-4,.2h-.27C287.12,289.47,285.11,274.76,284.32,268.29Z" />
      <circle class="BUNTAI_PUMA_JEWELRY_PUMA_JEWELRY_1_cls-2" cx="313.17" cy="284.92" r="18.16" />
      <circle class="BUNTAI_PUMA_JEWELRY_PUMA_JEWELRY_1_cls-2" cx="324.58" cy="300.99" r="18.16" />
      <circle class="BUNTAI_PUMA_JEWELRY_PUMA_JEWELRY_1_cls-2" cx="327.06" cy="337.4" r="18.16" />
      <circle class="BUNTAI_PUMA_JEWELRY_PUMA_JEWELRY_1_cls-2" cx="322.9" cy="373.29" r="18.16" />
      <circle class="BUNTAI_PUMA_JEWELRY_PUMA_JEWELRY_1_cls-2" cx="320.45" cy="409.8" r="18.16" />
      <circle class="BUNTAI_PUMA_JEWELRY_PUMA_JEWELRY_1_cls-2" cx="299.92" cy="440.27" r="18.16" />
      <path class="BUNTAI_PUMA_JEWELRY_PUMA_JEWELRY_1_cls-3" d="M147.16,299.29s.68-10.48-5.2-14.78-15.33,0-15.33,0C145,283.36,147.16,299.29,147.16,299.29Z" />
      <path class="BUNTAI_PUMA_JEWELRY_PUMA_JEWELRY_1_cls-3" d="M151.26,330.83c-5.34-15.33-16.91-12.64-16.91-12.64C139.08,318.79,145.88,323,151.26,330.83Z" />
      <path class="BUNTAI_PUMA_JEWELRY_PUMA_JEWELRY_1_cls-3" d="M155,355.93c-5.3-4.36-14.65-1.9-14.65-1.9,10.7.4,20.31,10.05,20.31,10.05S160.33,360.28,155,355.93Z" />
      <path class="BUNTAI_PUMA_JEWELRY_PUMA_JEWELRY_1_cls-3" d="M143.77,265.71a18.31,18.31,0,0,1,8.55,3.49v-.07a14.57,14.57,0,0,0-8.29-5.66,11.71,11.71,0,0,0-2.44-.31,16,16,0,0,0-11.34,4.15A27.21,27.21,0,0,1,143.77,265.71Z" />
      <path class="BUNTAI_PUMA_JEWELRY_PUMA_JEWELRY_1_cls-3" d="M153.55,253.51a26.23,26.23,0,0,0-6.74,7.33,28.49,28.49,0,0,1,6.61-5.2C153.46,254.94,153.51,254.23,153.55,253.51Z" />
      <path class="BUNTAI_PUMA_JEWELRY_PUMA_JEWELRY_1_cls-3" d="M145.8,390.47c4.91-.83,13.18-.09,20.21,3.1C157.58,384.75,145.8,390.47,145.8,390.47Z" />
      <path class="BUNTAI_PUMA_JEWELRY_PUMA_JEWELRY_1_cls-3" d="M171.49,417a47,47,0,0,1,16.8,1.38C180.68,411.8,171.49,417,171.49,417Z" />
      <path class="BUNTAI_PUMA_JEWELRY_PUMA_JEWELRY_1_cls-3" d="M328.38,287.7s-10-2.74-15.13,2.44-2.76,15.42-2.76,15.42S310,289.5,328.38,287.7Z" />
      <path class="BUNTAI_PUMA_JEWELRY_PUMA_JEWELRY_1_cls-3" d="M311.51,337.35c4.05-8.62,10.1-13.84,14.66-15.19C326.17,322.16,314.32,321.36,311.51,337.35Z" />
      <path class="BUNTAI_PUMA_JEWELRY_PUMA_JEWELRY_1_cls-3" d="M326,358.5s-9.63-.93-14.16,4.22-4.28,9-4.28,9S315.5,360.61,326,358.5Z" />
      <path class="BUNTAI_PUMA_JEWELRY_PUMA_JEWELRY_1_cls-3" d="M307,401.65c6.43-4.28,14.47-6.34,19.45-6.31C326.49,395.34,314,391.58,307,401.65Z" />
      <path class="BUNTAI_PUMA_JEWELRY_PUMA_JEWELRY_1_cls-3" d="M289,429.68a46.94,46.94,0,0,1,16.36-4.07S295.5,422,289,429.68Z" />
      <path class="BUNTAI_PUMA_JEWELRY_PUMA_JEWELRY_1_cls-3" d="M307,276.33s6.55-5.41,18.08-1.74C318.78,269.61,311.71,266.29,307,276.33Z" />
      <path class="BUNTAI_PUMA_JEWELRY_PUMA_JEWELRY_1_cls-4" d="M133.29,314.84c13.54,0,17.07-14.4,17.07-14.4s-4.44,5.43-16.15,4.79c-13.17-1.4-19.86-7.41-19.86-7.41C116.17,305.44,119.76,314.84,133.29,314.84Z" />
      <path class="BUNTAI_PUMA_JEWELRY_PUMA_JEWELRY_1_cls-4" d="M148.53,346.46c3.94-3.83,5.56-13.08,5.56-13.08a20.46,20.46,0,0,1-20.47,7.94c-13.66-2.45-15.83-8.83-15.83-8.83s-1.27,13,12.64,17.92C136.91,352.29,144.59,350.29,148.53,346.46Z" />
      <path class="BUNTAI_PUMA_JEWELRY_PUMA_JEWELRY_1_cls-4" d="M163,373.85c.52-1.9.93-9.36.93-9.36a21,21,0,0,1-17.18,9.95c-12.23.61-19.15-6.31-19.15-6.31S129,383.23,142.76,386,162.52,375.76,163,373.85Z" />
      <path class="BUNTAI_PUMA_JEWELRY_PUMA_JEWELRY_1_cls-4" d="M171.07,410.23s-12.13,3.7-20.44-2.24-10.09-16.31-10.09-16.31-5.2,7.48-4.62,12.81,4.4,16.08,17.29,17S171.07,410.23,171.07,410.23Z" />
      <path class="BUNTAI_PUMA_JEWELRY_PUMA_JEWELRY_1_cls-4" d="M182.09,433.77c-9.61-3.59-18.83-11.83-18.83-11.83l-1.79,6.54s-1.05,18,15.2,19.79S196.87,435,196.87,435,191.7,437.35,182.09,433.77Z" />
      <path class="BUNTAI_PUMA_JEWELRY_PUMA_JEWELRY_1_cls-4" d="M145,283.82s3.38,3.6,4.28,5.63,1.66,4.86,1.75,4.86,2.51-1.14,2.51-1.14l-.68-14.44c-.05-1.17-.07-2.36,0-3.56v-.11c0-.48,0-1,0-1.44a25.12,25.12,0,0,1-11.38,2.43c-11.59.06-17-3.82-17-3.82s-1.82,5.26-.88,9C131.24,278.26,140.27,278.19,145,283.82Z" />
      <path class="BUNTAI_PUMA_JEWELRY_PUMA_JEWELRY_1_cls-4" d="M307.51,307.21s5.81,13.65,19.17,11.47,15.39-12,15.95-19.85c0,0-5.63,7-18.4,10.51C312.78,311.86,307.51,307.21,307.51,307.21Z" />
      <path class="BUNTAI_PUMA_JEWELRY_PUMA_JEWELRY_1_cls-4" d="M330.61,344.86a20.44,20.44,0,0,1-21.48-4.54s3.09,8.87,7.59,12,12.4,3.89,18.5,1c12.94-7.07,9.6-19.71,9.6-19.71S343.7,340.25,330.61,344.86Z" />
      <path class="BUNTAI_PUMA_JEWELRY_PUMA_JEWELRY_1_cls-4" d="M322.94,379.67a20.94,20.94,0,0,1-18.55-7.05s1.59,7.29,2.41,9.09,8.88,13.75,22,8.76,12.05-20.1,12.05-20.1S335.11,378.31,322.94,379.67Z" />
      <path class="BUNTAI_PUMA_JEWELRY_PUMA_JEWELRY_1_cls-4" d="M331.88,395.68s-.1,10.52-7.34,17.72-19.81,5.5-19.81,5.5,6.85,11.13,19.43,8.2,14.62-14.16,14.34-19.51S331.88,395.68,331.88,395.68Z" />
      <path class="BUNTAI_PUMA_JEWELRY_PUMA_JEWELRY_1_cls-4" d="M314.32,429.2s-7.77,9.62-16.68,14.7-14.39,3.61-14.39,3.61,6.31,14.18,22.07,9.84,11.82-22,11.82-22Z" />
      <path class="BUNTAI_PUMA_JEWELRY_PUMA_JEWELRY_1_cls-4" d="M296.5,292.93l2.49,3.34s2.72,1.93,3,2,4.08,3.68,4.08,3.68l3.79-12.21a2.49,2.49,0,0,0,.28.15c3.72-6.31,12.64-7.69,20.66-6,.32-3.84-2.32-8.73-2.32-8.73s-4.66,4.68-16.11,6.49a25.07,25.07,0,0,1-11.63-.57s-2.48-1.53-1.72-7.65c-4.95,1.46-13.34,1.2-14.74-2.63,2.85,20,4.24,23.33,4.24,23.33Z" />
      <path class="BUNTAI_PUMA_JEWELRY_PUMA_JEWELRY_1_cls-5" d="M319.48,149c0,4.5,2.27,8.15,5.08,8.15s5.08-3.65,5.08-8.15-2.27-8.15-5.08-8.15S319.48,144.5,319.48,149Z" />
      <path class="BUNTAI_PUMA_JEWELRY_PUMA_JEWELRY_1_cls-6" d="M318.08,149c0,5.75,2.9,10.4,6.48,10.4s6.49-4.65,6.49-10.4-2.91-10.39-6.49-10.39S318.08,143.25,318.08,149Zm1.4,0c0-4.5,2.27-8.16,5.08-8.16s5.08,3.66,5.08,8.16-2.27,8.15-5.08,8.15S319.48,153.5,319.48,149Z" />
      <ellipse class="BUNTAI_PUMA_JEWELRY_PUMA_JEWELRY_1_cls-6" cx="324.56" cy="136.86" rx="2.71" ry="1.74" />
      <path class="BUNTAI_PUMA_JEWELRY_PUMA_JEWELRY_1_cls-6" d="M324.64,125.91c1.9,0,1.59-2.6,1.59-2.6h0a5.31,5.31,0,0,1-2.34.49,2.12,2.12,0,0,1-1.05-.26C322.83,123.69,322.8,125.91,324.64,125.91Z" />
      <path class="BUNTAI_PUMA_JEWELRY_PUMA_JEWELRY_1_cls-6" d="M321.36,115.65c-.71,2.33-.56,6.77,1.48,7.89a2.12,2.12,0,0,0,1.05.26,5.31,5.31,0,0,0,2.34-.49c1.75-.85,2.63-2.83,2.52-5.84a9.92,9.92,0,0,0-.55-2.93,6.3,6.3,0,0,0-1.7-2.65,2.22,2.22,0,0,0-1.56-.65,2.66,2.66,0,0,0-1.89,1.12,3.29,3.29,0,0,0,.84.16h0a4.84,4.84,0,0,1,2.14,3.3c.54,2.55-.36,5.42-1.65,5.42s-1.45-3.33-1.36-5.1l-.11,0A6.17,6.17,0,0,1,321.36,115.65Z" />
      <path class="BUNTAI_PUMA_JEWELRY_PUMA_JEWELRY_1_cls-6" d="M326.23,103.1a7.88,7.88,0,0,0,.12,3.32s2.33,2,1,4.53a2.54,2.54,0,0,1-.84.94,6.3,6.3,0,0,1,1.7,2.65C331.3,111.8,331.55,105.35,326.23,103.1Z" />
      <path class="BUNTAI_PUMA_JEWELRY_PUMA_JEWELRY_1_cls-6" d="M318.29,111.53a5.53,5.53,0,0,0,3.07,4.12,6.05,6.05,0,0,0,1.59.48l.11,0a6,6,0,0,0,3-.32,4.87,4.87,0,0,0-2.13-3.3h-.05a4,4,0,0,1-.85-.17,2.48,2.48,0,0,1-1.77-1.54,2,2,0,0,1-.1-.66c0-2.71,1.06-2.84,1.06-2.84s.06-.15.13-.37a3.47,3.47,0,0,0-2.71-2.28A9.26,9.26,0,0,0,318.29,111.53Z" />
      <path class="BUNTAI_PUMA_JEWELRY_PUMA_JEWELRY_1_cls-7" d="M328.2,114.54c3.1-2.74,3.53-9.14-2-11.44a5.7,5.7,0,0,0,.12,3.32s2.33,2,1,4.53a2.54,2.54,0,0,1-.84.94" />
      <path class="BUNTAI_PUMA_JEWELRY_PUMA_JEWELRY_1_cls-7" d="M326.07,115.83a6,6,0,0,1-3,.32l-.11,0a6.05,6.05,0,0,1-1.59-.48,5.53,5.53,0,0,1-3.07-4.12,9.26,9.26,0,0,1,1.36-6.86" />
      <path class="BUNTAI_PUMA_JEWELRY_PUMA_JEWELRY_1_cls-7" d="M322.36,107c-.07.22-.13.37-.13.37s-1,.13-1.06,2.84a2,2,0,0,0,.1.66,2.48,2.48,0,0,0,1.77,1.54,4,4,0,0,0,.85.17" />
      <path class="BUNTAI_PUMA_JEWELRY_PUMA_JEWELRY_1_cls-7" d="M321.36,115.65c-.71,2.33-.56,6.77,1.48,7.89a2.12,2.12,0,0,0,1.05.26,5.31,5.31,0,0,0,2.34-.49c1.75-.85,2.63-2.83,2.52-5.84a9.92,9.92,0,0,0-.55-2.93,6.3,6.3,0,0,0-1.7-2.65,2.22,2.22,0,0,0-1.56-.65,2.66,2.66,0,0,0-1.89,1.12" />
      <path class="BUNTAI_PUMA_JEWELRY_PUMA_JEWELRY_1_cls-7" d="M323.06,116.15c-.09,1.77-.07,5.1,1.36,5.1s2.19-2.87,1.65-5.42a4.84,4.84,0,0,0-2.14-3.3h0" />
      <path class="BUNTAI_PUMA_JEWELRY_PUMA_JEWELRY_1_cls-7" d="M326.23,123.31s.31,2.6-1.59,2.6-1.81-2.22-1.8-2.37h0" />
      <ellipse class="BUNTAI_PUMA_JEWELRY_PUMA_JEWELRY_1_cls-7" cx="324.56" cy="136.86" rx="2.71" ry="1.74" />
      <path class="BUNTAI_PUMA_JEWELRY_PUMA_JEWELRY_1_cls-7" d="M318.08,149c0,5.75,2.9,10.4,6.48,10.4S331,154.75,331,149s-2.9-10.4-6.48-10.4S318.08,143.26,318.08,149Z" />
      <path class="BUNTAI_PUMA_JEWELRY_PUMA_JEWELRY_1_cls-7" d="M319.48,149c0,4.5,2.27,8.15,5.08,8.15s5.08-3.65,5.08-8.15-2.27-8.15-5.08-8.15S319.48,144.5,319.48,149Z" />
      <line class="BUNTAI_PUMA_JEWELRY_PUMA_JEWELRY_1_cls-7" x1="324.64" y1="125.91" x2="324.64" y2="135.12" />
      <path class="BUNTAI_PUMA_JEWELRY_PUMA_JEWELRY_1_cls-7" d="M324.11,142.58s-3.05,1.12-2.92,6.92" />
      <path class="BUNTAI_PUMA_JEWELRY_PUMA_JEWELRY_1_cls-7" d="M322.16,109.74a3.5,3.5,0,0,0-2.51-5.07,2.82,2.82,0,0,0-.59,0,2.38,2.38,0,0,0-2.37,1.76" />
    </g>
  </g>
</svg>