<svg id="jewelries" xmlns="http://www.w3.org/2000/svg" viewBox="0 0 432 432">
  <defs>
    <style>.BUNTAI_PUMA_JEWELRY_PUMA_JEWELRY_2_cls-1{fill:#754c24;stroke-width:0.88px;}.BUNTAI_PUMA_JEWELRY_PUMA_JEWELRY_2_cls-1,.BUNTAI_PUMA_JEWELRY_PUMA_JEWELRY_2_cls-11,.BUNTAI_PUMA_JEWELRY_PUMA_JEWELRY_2_cls-12,.BUNTAI_PUMA_JEWELRY_PUMA_JEWELRY_2_cls-6,.BUNTAI_PUMA_JEWELRY_PUMA_JEWELRY_2_cls-7{stroke:#000;}.BUNTAI_PUMA_JEWELRY_PUMA_JEWELRY_2_cls-1,.BUNTAI_PUMA_JEWELRY_PUMA_JEWELRY_2_cls-12,.BUNTAI_PUMA_JEWELRY_PUMA_JEWELRY_2_cls-7{stroke-miterlimit:10;}.BUNTAI_PUMA_JEWELRY_PUMA_JEWELRY_2_cls-2{fill:#4d4d4d;}.BUNTAI_PUMA_JEWELRY_PUMA_JEWELRY_2_cls-3{fill:#333;}.BUNTAI_PUMA_JEWELRY_PUMA_JEWELRY_2_cls-4{fill:#8c6239;}.BUNTAI_PUMA_JEWELRY_PUMA_JEWELRY_2_cls-5{fill:#006837;}.BUNTAI_PUMA_JEWELRY_PUMA_JEWELRY_2_cls-11,.BUNTAI_PUMA_JEWELRY_PUMA_JEWELRY_2_cls-12,.BUNTAI_PUMA_JEWELRY_PUMA_JEWELRY_2_cls-6,.BUNTAI_PUMA_JEWELRY_PUMA_JEWELRY_2_cls-7{fill:none;}.BUNTAI_PUMA_JEWELRY_PUMA_JEWELRY_2_cls-11,.BUNTAI_PUMA_JEWELRY_PUMA_JEWELRY_2_cls-6{stroke-linecap:round;stroke-linejoin:round;}.BUNTAI_PUMA_JEWELRY_PUMA_JEWELRY_2_cls-6,.BUNTAI_PUMA_JEWELRY_PUMA_JEWELRY_2_cls-7{stroke-width:0.66px;}.BUNTAI_PUMA_JEWELRY_PUMA_JEWELRY_2_cls-8{fill:#c7a858;}.BUNTAI_PUMA_JEWELRY_PUMA_JEWELRY_2_cls-9{fill:#fff;}.BUNTAI_PUMA_JEWELRY_PUMA_JEWELRY_2_cls-10{fill:#c74c58;}.BUNTAI_PUMA_JEWELRY_PUMA_JEWELRY_2_cls-11,.BUNTAI_PUMA_JEWELRY_PUMA_JEWELRY_2_cls-12{stroke-width:1.62px;}</style>
  </defs>
  <path class="BUNTAI_PUMA_JEWELRY_PUMA_JEWELRY_2_cls-1" d="M296.65,302.44v0c-8.93,20.6-31,54.23-72.13,68.57a1.26,1.26,0,0,1-.47.08,1.73,1.73,0,0,1-.32,0c-39.95-9.6-59.78-37.25-69.38-58.77a135.59,135.59,0,0,1-6.72-18.74c-.82-2.27-.3-5.7,4.44-3.15a12.26,12.26,0,0,0-1.95,1.67,133.91,133.91,0,0,0,6.82,19.19c9.32,20.84,28.52,47.61,67,57,39.81-14,61.54-47.43,70.22-67.43,0,0-2.56-.91-3.06-1.19.48-.61,2.26-2.53,5.15-.41C297.2,299.94,296.81,302,296.65,302.44Z" />
  <path class="BUNTAI_PUMA_JEWELRY_PUMA_JEWELRY_2_cls-2" d="M230.79,391.42c1.85,1.64,3.26,9.64-4,10.66s-11.05-6.71-6.79-13.28c4.13-6.36,12.12-3.49,12.62-3.3-3.35-.88-8.05-.74-11.37,4.24-4.76,7.18,4.45,11.94,7.06,8.27s-.64-7.45-4.86-7.95C225.58,388.74,228.93,389.79,230.79,391.42Z" />
  <path class="BUNTAI_PUMA_JEWELRY_PUMA_JEWELRY_2_cls-3" d="M239.07,393.87c-.51-5.58-8.76-11.35-15.63-3.81,2.14-1.32,5.49-.27,7.35,1.36s3.26,9.64-4,10.66-11.05-6.71-6.79-13.28c4.13-6.36,12.12-3.49,12.62-3.3h0a12.37,12.37,0,0,1,3.37,1.42s-.82-6.65-10.91-7.34q-.83-.06-1.74-.06h-.61c-11.28.44-15.55,12.84-12.31,20.64S223.12,411,230,408.81,239.57,399.46,239.07,393.87Z" />
  <path class="BUNTAI_PUMA_JEWELRY_PUMA_JEWELRY_2_cls-4" d="M225.1,372.88v6.66a.11.11,0,0,1,0,0q-.83-.06-1.74-.06h-.61v-6.66a.75.75,0,0,1,0-.21,3.41,3.41,0,0,0,1.16.21,3.5,3.5,0,0,0,1.16-.21A1.49,1.49,0,0,1,225.1,372.88Z" />
  <path class="BUNTAI_PUMA_JEWELRY_PUMA_JEWELRY_2_cls-5" d="M223.92,366.26a3.31,3.31,0,0,1,1.16,6.41,3.5,3.5,0,0,1-1.16.21,3.41,3.41,0,0,1-1.16-.21,3.3,3.3,0,0,1,1.16-6.41Z" />
  <path class="BUNTAI_PUMA_JEWELRY_PUMA_JEWELRY_2_cls-6" d="M232.63,385.51a12.37,12.37,0,0,1,3.37,1.42s-.82-6.65-10.91-7.34q-.83-.06-1.74-.06h-.61c-11.28.44-15.55,12.84-12.31,20.64S223.12,411,230,408.81s9.62-9.35,9.12-14.94-8.76-11.35-15.63-3.81c4.22.5,7.47,4.27,4.86,7.95s-11.82-1.09-7.06-8.27c3.32-5,8-5.12,11.37-4.24" />
  <path class="BUNTAI_PUMA_JEWELRY_PUMA_JEWELRY_2_cls-6" d="M233.78,384.55h0" />
  <path class="BUNTAI_PUMA_JEWELRY_PUMA_JEWELRY_2_cls-6" d="M226.78,380.88a9,9,0,0,1,.14,2.87,21.76,21.76,0,0,1,6.85.79A9.82,9.82,0,0,0,226.78,380.88Z" />
  <path class="BUNTAI_PUMA_JEWELRY_PUMA_JEWELRY_2_cls-6" d="M221.17,381.25s-5.06,2.29-6.3,5.14a15,15,0,0,1,3.92,2.13l1.93-2.41a21.28,21.28,0,0,0-2.7-1.84l-1,1.18a6.86,6.86,0,0,1,1.81,1" />
  <path class="BUNTAI_PUMA_JEWELRY_PUMA_JEWELRY_2_cls-6" d="M214.05,393.12l1.51.17v3.37h-3s.09-4.59.53-5.55a28,28,0,0,1,4,.56s-.34,5.75,0,7c-4.13,1.34-5.61.46-5.61.46s-1.2-6.54,1.25-10.6a17.58,17.58,0,0,1,5.37,1.85" />
  <path class="BUNTAI_PUMA_JEWELRY_PUMA_JEWELRY_2_cls-6" d="M232.63,385.51h0c-.5-.19-8.49-3.06-12.62,3.3-4.26,6.57-.48,14.3,6.79,13.28s5.86-9,4-10.66-5.21-2.68-7.35-1.36" />
  <path class="BUNTAI_PUMA_JEWELRY_PUMA_JEWELRY_2_cls-6" d="M217.56,399.4a12.34,12.34,0,0,1-4.71,2.18c5.39,5,9.93,5.74,9.93,5.74l1.89-3.54s-4.5-1.5-5.92-3.13c-1.71,1.12-1.95,1.61-1.95,1.61a24.15,24.15,0,0,0,4.12,2.78c.86-.92.86-1.15.86-1.15" />
  <path class="BUNTAI_PUMA_JEWELRY_PUMA_JEWELRY_2_cls-6" d="M225.94,403.36a41.13,41.13,0,0,1-.65,4.11,8.55,8.55,0,0,0,6.35-2.05,10.79,10.79,0,0,0-1.09-2.53A44.92,44.92,0,0,1,225.94,403.36Z" />
  <path class="BUNTAI_PUMA_JEWELRY_PUMA_JEWELRY_2_cls-6" d="M233.32,392.2s-2-2.62-4.74-3.07a7.4,7.4,0,0,1,6.11.41A12.84,12.84,0,0,0,233.32,392.2Z" />
  <path class="BUNTAI_PUMA_JEWELRY_PUMA_JEWELRY_2_cls-6" d="M236.39,391.11s-2.44,1.71-3,3.53a12.28,12.28,0,0,1-.74,5.06,7.4,7.4,0,0,1-1,1.56,13.3,13.3,0,0,1,2.38,3s4.61-3.24,3.27-10.42a4.84,4.84,0,0,0-2.7.84s-.24,4-1,5.29l-.07.11A10.34,10.34,0,0,0,235,401" />
  <path class="BUNTAI_PUMA_JEWELRY_PUMA_JEWELRY_2_cls-6" d="M222.76,372.67a3.33,3.33,0,1,1,2.32,0,3.5,3.5,0,0,1-1.16.21A3.41,3.41,0,0,1,222.76,372.67Z" />
  <path class="BUNTAI_PUMA_JEWELRY_PUMA_JEWELRY_2_cls-7" d="M222.74,379.54h0v-6.66a.75.75,0,0,1,0-.21" />
  <path class="BUNTAI_PUMA_JEWELRY_PUMA_JEWELRY_2_cls-7" d="M225.08,372.67a1.49,1.49,0,0,1,0,.21v6.66a.11.11,0,0,1,0,0" />
  <path class="BUNTAI_PUMA_JEWELRY_PUMA_JEWELRY_2_cls-8" d="M158.72,160.9a1.59,1.59,0,0,1,0,3.18h-8.63v-.5a1.57,1.57,0,0,0,1.58-1.58v-1.1Z" />
  <polygon class="BUNTAI_PUMA_JEWELRY_PUMA_JEWELRY_2_cls-9" points="150.09 164.08 153.26 164.08 153.26 192.24 150.09 200.18 146.92 192.24 146.92 164.08 150.09 164.08" />
  <path class="BUNTAI_PUMA_JEWELRY_PUMA_JEWELRY_2_cls-10" d="M150.09,147.25a1.58,1.58,0,0,1,1.58,1.59V162a1.59,1.59,0,0,1-3.17,0V148.84A1.59,1.59,0,0,1,150.09,147.25Z" />
  <path class="BUNTAI_PUMA_JEWELRY_PUMA_JEWELRY_2_cls-8" d="M150.09,163.58v.5h-8.63a1.59,1.59,0,0,1,0-3.18h7V162A1.59,1.59,0,0,0,150.09,163.58Z" />
  <line class="BUNTAI_PUMA_JEWELRY_PUMA_JEWELRY_2_cls-11" x1="150.09" y1="147.25" x2="150.09" y2="137.76" />
  <path class="BUNTAI_PUMA_JEWELRY_PUMA_JEWELRY_2_cls-12" d="M150.09,163.58A1.59,1.59,0,0,1,148.5,162V148.84a1.59,1.59,0,1,1,3.17,0V162A1.57,1.57,0,0,1,150.09,163.58Z" />
  <polyline class="BUNTAI_PUMA_JEWELRY_PUMA_JEWELRY_2_cls-12" points="153.26 164.08 153.26 192.24 150.09 200.18 146.92 192.24 146.92 164.08" />
  <path class="BUNTAI_PUMA_JEWELRY_PUMA_JEWELRY_2_cls-12" d="M148.5,160.9h-7a1.59,1.59,0,0,0,0,3.18h17.26a1.59,1.59,0,0,0,0-3.18h-7.05" />
  <polyline class="BUNTAI_PUMA_JEWELRY_PUMA_JEWELRY_2_cls-12" points="150.09 163.59 150.09 164.08 150.09 191.61" />
  <path class="BUNTAI_PUMA_JEWELRY_PUMA_JEWELRY_2_cls-8" d="M150.08,137.76c-2.56,0-2.14-3.49-2.14-3.49h0a7,7,0,0,0,3.14.66,2.94,2.94,0,0,0,1.41-.34C152.5,134.78,152.55,137.76,150.08,137.76Z" />
  <path class="BUNTAI_PUMA_JEWELRY_PUMA_JEWELRY_2_cls-8" d="M154.49,124c.94,3.13.74,9.1-2,10.61a2.94,2.94,0,0,1-1.41.34,7,7,0,0,1-3.14-.66c-2.35-1.14-3.54-3.8-3.38-7.84a12.63,12.63,0,0,1,.73-3.94,8.23,8.23,0,0,1,2.28-3.55,2.94,2.94,0,0,1,2.1-.87,3.56,3.56,0,0,1,2.55,1.5,5.34,5.34,0,0,1-1.14.21H151a6.48,6.48,0,0,0-2.87,4.42c-.72,3.43.48,7.29,2.21,7.29,1.93,0,2-4.48,1.84-6.85l.14,0A8.07,8.07,0,0,0,154.49,124Z" />
  <path class="BUNTAI_PUMA_JEWELRY_PUMA_JEWELRY_2_cls-8" d="M146.86,107.25c.61,3.14.92,4.33.92,4.33s-3.14,2.72-1.34,6.08a3.64,3.64,0,0,0,1.13,1.27,8.23,8.23,0,0,0-2.28,3.55C141.12,118.8,140,111.47,146.86,107.25Z" />
  <path class="BUNTAI_PUMA_JEWELRY_PUMA_JEWELRY_2_cls-8" d="M158.6,118.44a7.39,7.39,0,0,1-4.12,5.53,8.3,8.3,0,0,1-2.13.65l-.15,0a8,8,0,0,1-4-.42,6.48,6.48,0,0,1,2.87-4.43h.07a6.1,6.1,0,0,0,1.13-.22,3.35,3.35,0,0,0,2.38-2.07,2.86,2.86,0,0,0,.14-.89c-.05-3.64-1.43-3.82-1.43-3.82a3.83,3.83,0,0,1-.18-.49,4.7,4.7,0,0,1,3.64-3.07A12.43,12.43,0,0,1,158.6,118.44Z" />
  <path class="BUNTAI_PUMA_JEWELRY_PUMA_JEWELRY_2_cls-11" d="M145.29,122.48c-4.17-3.68-5.28-11,1.57-15.23.63,2.6.92,4.33.92,4.33s-3.14,2.72-1.34,6.08a3.64,3.64,0,0,0,1.13,1.27" />
  <path class="BUNTAI_PUMA_JEWELRY_PUMA_JEWELRY_2_cls-11" d="M148.15,124.22a8,8,0,0,0,4,.42l.15,0a8.3,8.3,0,0,0,2.13-.65,7.39,7.39,0,0,0,4.12-5.53,12.43,12.43,0,0,0-1.83-9.22" />
  <path class="BUNTAI_PUMA_JEWELRY_PUMA_JEWELRY_2_cls-11" d="M153.13,112.29a3.83,3.83,0,0,0,.18.49s1.38.18,1.43,3.82a2.86,2.86,0,0,1-.14.89,3.35,3.35,0,0,1-2.38,2.07,6.1,6.1,0,0,1-1.13.22" />
  <path class="BUNTAI_PUMA_JEWELRY_PUMA_JEWELRY_2_cls-11" d="M154.49,124c.94,3.13.74,9.1-2,10.61a2.94,2.94,0,0,1-1.41.34,7,7,0,0,1-3.14-.66c-2.35-1.14-3.54-3.8-3.38-7.84a12.63,12.63,0,0,1,.73-3.94,8.23,8.23,0,0,1,2.28-3.55,2.94,2.94,0,0,1,2.1-.87,3.56,3.56,0,0,1,2.55,1.5" />
  <path class="BUNTAI_PUMA_JEWELRY_PUMA_JEWELRY_2_cls-11" d="M152.2,124.65c.12,2.37.09,6.85-1.84,6.85-1.73,0-2.93-3.86-2.21-7.29a6.48,6.48,0,0,1,2.87-4.42h.06" />
  <path class="BUNTAI_PUMA_JEWELRY_PUMA_JEWELRY_2_cls-11" d="M147.94,134.27s-.42,3.49,2.14,3.49,2.42-3,2.41-3.18h0" />
  <path class="BUNTAI_PUMA_JEWELRY_PUMA_JEWELRY_2_cls-11" d="M153.4,116a4.7,4.7,0,0,1,3.37-6.81,5.18,5.18,0,0,1,.8-.07,3.2,3.2,0,0,1,3.18,2.36" />
</svg>