<svg xmlns="http://www.w3.org/2000/svg" viewBox="0 0 432 432">
  <defs>
    <style>.BUNTAI_WOLF_BODY_WOLF_BODY_46_cls-1{isolation:isolate;}.BUNTAI_WOLF_BODY_WOLF_BODY_46_cls-2{fill:#ffeee8;}.BUNTAI_WOLF_BODY_WOLF_BODY_46_cls-3{fill:#a79372;}.BUNTAI_WOLF_BODY_WOLF_BODY_46_cls-10,.BUNTAI_WOLF_BODY_WOLF_BODY_46_cls-4,.BUNTAI_WOLF_BODY_WOLF_BODY_46_cls-7{fill:none;stroke:#000;stroke-linecap:round;}.BUNTAI_WOLF_BODY_WOLF_BODY_46_cls-4,.BUNTAI_WOLF_BODY_WOLF_BODY_46_cls-7{stroke-linejoin:round;}.BUNTAI_WOLF_BODY_WOLF_BODY_46_cls-4{stroke-width:2px;}.BUNTAI_WOLF_BODY_WOLF_BODY_46_cls-5{fill:#424c55;}.BUNTAI_WOLF_BODY_WOLF_BODY_46_cls-6{fill:#fff;}.BUNTAI_WOLF_BODY_WOLF_BODY_46_cls-7{stroke-width:1.72px;}.BUNTAI_WOLF_BODY_WOLF_BODY_46_cls-8{opacity:0.22;mix-blend-mode:multiply;}.BUNTAI_WOLF_BODY_WOLF_BODY_46_cls-9{fill:#e51002;}.BUNTAI_WOLF_BODY_WOLF_BODY_46_cls-10{stroke-miterlimit:10;stroke-width:1.72px;}</style>
  </defs>
  <g class="BUNTAI_WOLF_BODY_WOLF_BODY_46_cls-1">
    <g id="body">
      <path class="BUNTAI_WOLF_BODY_WOLF_BODY_46_cls-2" d="M254.29,275.07c1.55.27,6.5.76,10.11.93l1.06.07c0,.4-.28,8.17-13.23,8.17-13.27,0-21-1-21.93-8.81,7.39,2.6,19.63.18,22.46-.62Z" />
      <path class="BUNTAI_WOLF_BODY_WOLF_BODY_46_cls-2" d="M409.68,460.39H348.41c-4.59-19.8-11.71-49.65-15.24-60.32h0A28.44,28.44,0,0,0,332,397c-.51,15.73-3.63,43-4.41,63.43H109.82c-.23-4.64-.69-9.48-1.23-14.5-1.45-13.22-3.52-27.71-3.68-43.17q0-2.85,0-5.76c-.14.35-.29.7-.43,1.07h0c-5.6,14.18-13.45,43.17-18.41,62.35H25.74a364,364,0,0,1,10.61-41.71h0s0,0,0-.05C49.65,376,68.81,334.46,75.08,327.37c9.4-10.63,52.23-31.21,52.23-31.21s34.77-12.66,38.59-42.5c.17-1.3,0,0-4.54,2.63,4.71-6.23,10.38-22.07,10.78-23.21,0,0,0,0,0,0-.11,1-2.68,22.33,7.46,31.9,3.47-11.32,7.85-18.41,20.42-23.29l.32-.13c9.44,9.09,14.68,18.64,19.11,22.37a24,24,0,0,0,2.33,1.75c1.31,3.63,3,6.55,5.73,8.4a10.33,10.33,0,0,0,1.49.86,12.22,12.22,0,0,0,1.28.52h0c.89,7.77,8.66,8.81,21.93,8.81,13,0,13.22-7.77,13.23-8.17h0a6.32,6.32,0,0,0,2.72-.12c3.91-1.75,6.3-4.46,10.58-11.28,1.31-2.09,2.33-5.8,3.1-8.39,5.34-5.49,5.26-13.13,5.26-13.13a8.05,8.05,0,0,1,3.68,2.06c-.54,6.14-.4,17.47,6.1,26.89-3.67.77-4.31.19-4.41,0,.3.71,4.7,11.07,9.31,13.88l4.77,2.92s33.2,23.23,47.71,31.26,21.32,23.6,29,47c1.38,4.2,3,9.46,4.75,15.31a0,0,0,0,1,0,0c8,26.81,18.71,66.14,20.58,73.45C409,457.36,409.36,458.85,409.68,460.39Z" />
      <path class="BUNTAI_WOLF_BODY_WOLF_BODY_46_cls-3" d="M169.69,315c-3.82,16.08-1.76,45.9,2.1,56.85C158,361.16,153.29,356,153.29,356s-19.11,55.87,2.79,104.36H109.82l-1.23-14.5-3.68-43.17-.4-4.68h0s4.62-31.86,14.06-44.8c-13.63,11.89-16.43,21.32-16.43,21.32a100.57,100.57,0,0,1,0-22.37C89.56,372.11,85,376.65,85,376.65s-25.51,11.88-33.2,24.12c11.17-19,13.82-24.81,14-25.15-.59.6-19.42,20.13-29.41,43C49.65,376,68.81,334.46,75.08,327.37c9.4-10.63,52.23-31.21,52.23-31.21s34.77-12.66,38.59-42.5c.17-1.3,0,0-4.54,2.63,4.71-6.23,10.38-22.07,10.78-23.21,0,0,0,0,0,0-.11,1-2.68,22.33,7.46,31.9,3.47-11.32,7.85-18.41,20.42-23.29-3.46,8.54-11.08,27.59-18.33,47.27l-.7-10S173.52,298.94,169.69,315Z" />
      <path class="BUNTAI_WOLF_BODY_WOLF_BODY_46_cls-3" d="M389.65,418.68c-8.22-22.82-23.73-42.34-24.32-43.06.12.34,2.31,6.18,11.54,25.15-6.35-12.24-27.45-24.12-27.45-24.12s-3.75-4.54-14.15-24.47a122.3,122.3,0,0,1,0,22.37s-2.32-9.43-13.59-21.32c7.81,12.94,11.63,44.8,11.63,44.8l-.14,2A28.44,28.44,0,0,0,332,397c-.51,15.73-3.63,43-4.41,63.43H290.67C308.78,411.9,293,356,293,356s-3.85,5.13-15.29,15.84c15.85-22.26,11.58-40.83,8.71-56.65s-8.23-41.41-8.23-41.41l.09,10.43c-.51-2.69-3-9.25-4.3-12.7a57.19,57.19,0,0,0,4.84-6.87c1.31-2.09,2.33-5.8,3.1-8.39,5.34-5.49,5.26-13.13,5.26-13.13a8.05,8.05,0,0,1,3.68,2.06c-.54,6.14-.4,17.47,6.1,26.89-3.67.77-4.31.19-4.41,0,.3.71,4.7,11.07,9.31,13.88l4.77,2.92s33.2,23.23,47.71,31.26,21.32,23.6,29,47c1.38,4.2,3,9.46,4.75,15.31a0,0,0,0,1,0,0A233.06,233.06,0,0,1,389.65,418.68Z" />
      <path class="BUNTAI_WOLF_BODY_WOLF_BODY_46_cls-2" d="M150.84,175.93l-5.7-2.8c7.22-5,12.93-15.14,12.93-15.14l-9.67-.7,8.15-9L150.84,146s1.52-.24,7.46-5.48c0-1.74.2-4.9.58-8.86h0a36.94,36.94,0,0,1-1.79-3.37l-2-3-2.48-2.78h3a12.81,12.81,0,0,1-4.05-3.94l2.72-.4-3.34-2.57,3.81.07c-2.18-1.72-3.67-7.27-3.76-7.62.06,0,.65.68,4.13,4.55-2.59-3-4.25-8.8-4.35-9.15.07.05.73.68,4.49,3.54-5.42-8,.44-22.1.44-22.1l1.57,3.51c.66-5.82,10.49-22.3,18.35-24.28s9.53.46,11.78,8.16,6.52,12.2,14.39,20.09a37.14,37.14,0,0,1,3.74,4.37h0c3.4,1.76,5.58,3.09,5.58,3.09S223.54,96.59,240.9,98s33.79,4.19,35.77,2.56a43.14,43.14,0,0,1,5.2-3.09h0c.55-.85,1.17-1.71,1.85-2.58C290.64,86,294.39,81,296.37,72.38s3.45-11.36,10.35-9.14,15.54,20.67,16.12,27.19l1.38-3.93s5.15,15.83.39,24.76c3.3-3.21,3.88-3.91,3.94-4-.09.4-1.54,6.83-3.82,10.25,3.06-4.33,3.58-5,3.63-5.09-.08.39-1.39,6.6-3.3,8.53l3.34-.07-2.93,2.87,2.39.45s-1.61,3.19-3.56,4.41h2.63l-2.18,3.12L323,135.07s-.67,1.9-1.77,4.2c-.32,3.44-.53,5.63-.53,5.63l3.19,10.41,5.24,4.89-6.18,3.49s1.75,8.39,2,12.12c-5.94-7-8.39-7.22-8.39-7.22s4.08,26.44,5.95,30.87,2.68,6.53,2.68,6.53l-9.32-5.36s1.51,18.87,3.72,23.76l2.22,4.9-8.62-3.85a37,37,0,0,1-2.33,8.27c-3.62-9.67-5.95-10.48-5.95-10.48s-3.49,24.81-9.2,30.64c-1.23-4.5-3.14-7.13-4.82-8.66a8.05,8.05,0,0,0-3.68-2.06s.08,7.64-5.26,13.13c-.77,2.59-1.79,6.3-3.1,8.39-4.28,6.82-6.67,9.53-10.58,11.28a6.5,6.5,0,0,1-2.76.12L264.4,276c-3.61-.17-8.56-.66-10.11-.93l-1.53-.26c-2.83.8-15.07,3.22-22.46.62h0a12.22,12.22,0,0,1-1.28-.52,10.33,10.33,0,0,1-1.49-.86c-2.69-1.85-4.42-4.77-5.73-8.4a24,24,0,0,1-2.33-1.75c-4.43-3.73-9.67-13.28-19.11-22.37-12.82,4.89-17.24,12-20.74,23.42-10.14-9.57-7.57-30.94-7.46-31.9,0,0,0,0,0,0-.23.42-2,2.92-13.26,8.09,2.85-7.29-.11-16.89-1.66-21-3.85,2.86-7.64,6.22-8.24,8.68-.7-5.67-1.29-12-1.7-16.64a35.75,35.75,0,0,0-3.78,8.48c-2.61-22.64,3.1-36.49,8.22-44Z" />
      <path class="BUNTAI_WOLF_BODY_WOLF_BODY_46_cls-3" d="M325.25,175.28,323.45,164l5.27-3.63-4.41-4.69-2.5-8.21-.55-.19-.26-5.77s0,0,.48-2.87c.93-2,1.49-3.61,1.49-3.61l1.78-3.31,2.17-3.12H324.3c1.95-1.22,3.56-4.41,3.56-4.41l-2.39-.45,2.93-2.87-3.35.07c1.92-1.93,3.23-8.14,3.31-8.53-.06.06-.57.75-3.63,5.09,2.27-3.42,3.73-9.85,3.82-10.25-.06.07-.64.77-3.95,4,4.77-8.93-.38-24.75-.38-24.75l-1.38,3.93c-.58-6.52-9.22-25-16.12-27.2s-8.38.52-10.35,9.15a36.75,36.75,0,0,1-2.69,7.81c-6.38,7.08-8.7,16.56-17,20.36-5.1,1.45-13.17-1.11-34.85-2.49s-30.5,1.73-30.5,1.73a28.61,28.61,0,0,1-7.67-5.37c-.58-.67-1.2-1.35-1.89-2l-.91-.91a36.83,36.83,0,0,1-3.08-4.16,5.75,5.75,0,0,0-1.38-1.11l-.25.39c-4.41-4.77-7.13-8.68-8.77-14.3-2.25-7.7-3.93-10.14-11.78-8.16S157.9,82.59,157.24,88.41l-1.57-3.51S149.81,99,155.23,107c-3.76-2.86-4.42-3.49-4.49-3.55.1.36,1.76,6.1,4.35,9.15-3.48-3.87-4.07-4.49-4.13-4.54.09.35,1.58,5.9,3.76,7.62l-3.81-.07,3.34,2.56-2.72.41a12.81,12.81,0,0,0,4.05,3.94h-3l2.48,2.78,2,3s.23.52.65,1.32c.28,6.44.56,10.92.56,10.92l-6.62,5.1s0,.7,4.76,2.29c-1.11,2.62-7.62,8.92-7.62,8.92s.92.29,8.9.75c-4.08,9.44-12.26,15.72-12.26,15.72l5.38,2.64.27,1.6c-14.18,25.73-7.61,43.13-7.61,43.13l3.83-7.89a136.45,136.45,0,0,1,1.65,16c3.49-24.59,28.19-36.47,28.19-36.47s1.4,2.45,4,6.64c5.6-19.81,17.13-18.32,17.13-18.32s-4.25-11.24.06-15.44c21.35,1.31,35.59,10,37.87,17.16,2.74,8.1.52,18.67-1.81,29.65-4.82,22.66,5,36.68,5,36.68,9.79-3.32,18.94-5.11,26.91-1.09,6.59-19.84-3.28-36.89-4.39-47.66-.68-6.69-.69-14.55,4.79-23.52s31.34-11,31.34-11,3.19,6.72,0,15.64c7.68,2.88,7.58,18.23,7.58,18.23s5.42-3,6.73-6.55c5.33,2.62,8.65,8.34,12.46,13-4.84-7.81-6.58-29.25-7.59-36.95C319.84,169.53,325.25,175.28,325.25,175.28Z" />
      <path class="BUNTAI_WOLF_BODY_WOLF_BODY_46_cls-4" d="M265.46,276.06h0c0,.4-.28,8.17-13.23,8.17-13.27,0-21-1-21.93-8.81" />
      <path class="BUNTAI_WOLF_BODY_WOLF_BODY_46_cls-4" d="M316.12,146.53a7.24,7.24,0,0,0,.91-.79,24.69,24.69,0,0,0,4.17-6.47c1.1-2.3,1.77-4.2,1.77-4.2l1.78-3.31,2.18-3.12H324.3c1.95-1.22,3.56-4.41,3.56-4.41l-2.39-.45,2.93-2.87-3.34.07c1.91-1.93,3.22-8.14,3.3-8.53" />
      <path class="BUNTAI_WOLF_BODY_WOLF_BODY_46_cls-4" d="M328.37,112.42h0c-.05.06-.57.76-3.63,5.09,2.28-3.42,3.73-9.85,3.82-10.25" />
      <path class="BUNTAI_WOLF_BODY_WOLF_BODY_46_cls-4" d="M281.87,97.46a30.69,30.69,0,0,0-5.1,12.58,11.09,11.09,0,0,0-.11,1.11" />
      <path class="BUNTAI_WOLF_BODY_WOLF_BODY_46_cls-4" d="M328.56,107.26h0c-.06.07-.64.77-3.94,4,4.76-8.93-.39-24.76-.39-24.76l-1.38,3.93c-.58-6.52-9.21-25-16.12-27.19s-8.37.52-10.35,9.14S290.64,86,283.73,94.88c-.68.87-1.3,1.73-1.85,2.58" />
      <path class="BUNTAI_WOLF_BODY_WOLF_BODY_46_cls-4" d="M322.37,96.12c2.42,9.35,2.24,15.14,2.24,15.14" />
      <path class="BUNTAI_WOLF_BODY_WOLF_BODY_46_cls-4" d="M286.12,119.91s-1.27-13.16,3.48-22.72,7-14.21,8.64-21.87,5.74-12.1,10.05-8.24,11,17.8,13.76,27.85c.11.4.21.79.31,1.17" />
      <path class="BUNTAI_WOLF_BODY_WOLF_BODY_46_cls-4" d="M312.72,91.73h0a58.46,58.46,0,0,1-6.5,1.72,12.87,12.87,0,0,0,5.15-4.61" />
      <path class="BUNTAI_WOLF_BODY_WOLF_BODY_46_cls-4" d="M308.23,102.41h0c.22.15,3.77,2.52,5,2.73a16.06,16.06,0,0,1-4.11-5.52l4.58,1.21a46.21,46.21,0,0,1-4.9-4.45c5.93,0,7.64-2.77,7.64-2.77L310.2,94l2.51-2.27" />
      <path class="BUNTAI_WOLF_BODY_WOLF_BODY_46_cls-4" d="M299.38,128s1,1.37,4.56-6.43S307,109,307,109l2.27,1.39L308,105.68l2.5,2.85-2.23-6.11" />
      <path class="BUNTAI_WOLF_BODY_WOLF_BODY_46_cls-4" d="M158.88,131.65a22.8,22.8,0,0,0,5,6.14,8.25,8.25,0,0,0,1,.71" />
      <path class="BUNTAI_WOLF_BODY_WOLF_BODY_46_cls-4" d="M151,108.06c.09.35,1.58,5.9,3.76,7.62l-3.81-.07,3.34,2.57-2.72.4a12.81,12.81,0,0,0,4.05,3.94h-3l2.48,2.78,2,3a36.94,36.94,0,0,0,1.79,3.37" />
      <path class="BUNTAI_WOLF_BODY_WOLF_BODY_46_cls-4" d="M150.74,103.46c.1.35,1.76,6.1,4.35,9.15-3.48-3.87-4.07-4.5-4.13-4.55h0" />
      <path class="BUNTAI_WOLF_BODY_WOLF_BODY_46_cls-4" d="M205.5,96.75a37.14,37.14,0,0,0-3.74-4.37c-7.87-7.89-12.14-12.39-14.39-20.09s-3.93-10.14-11.78-8.16S157.9,82.59,157.24,88.41l-1.57-3.51S149.81,99,155.23,107c-3.76-2.86-4.42-3.49-4.49-3.54h0" />
      <path class="BUNTAI_WOLF_BODY_WOLF_BODY_46_cls-4" d="M209.8,106.91a7.86,7.86,0,0,0-.12-1,22.8,22.8,0,0,0-4.18-9.16" />
      <path class="BUNTAI_WOLF_BODY_WOLF_BODY_46_cls-4" d="M193,91.21c-4.05-6.47-6.22-10.38-7.79-16.29-1.82-6.84-6.53-10.8-11.43-7.36s-12.54,15.9-15.67,24.87S155.23,107,155.23,107" />
      <path class="BUNTAI_WOLF_BODY_WOLF_BODY_46_cls-4" d="M199,114.74s1.45-11.76-3.95-20.29l-2-3.24" />
      <path class="BUNTAI_WOLF_BODY_WOLF_BODY_46_cls-4" d="M168.76,89.57h0c.35.08,5.95,1.47,7.39,1.54-4.43-1.93-5.86-4.12-5.86-4.12" />
      <path class="BUNTAI_WOLF_BODY_WOLF_BODY_46_cls-4" d="M173.87,99.11h0c-.25.13-4.29,2.24-5.64,2.43a14.93,14.93,0,0,0,4.67-4.93l-5.21,1.09a49.46,49.46,0,0,0,5.57-4c-6.74,0-8.69-2.47-8.69-2.47l7.07.35-2.85-2" />
      <path class="BUNTAI_WOLF_BODY_WOLF_BODY_46_cls-4" d="M184,122s-1.11,1.22-5.19-5.74S175.32,105,175.32,105l-2.59,1.25,1.43-4.17-2.83,2.54,2.53-5.45" />
      <path class="BUNTAI_WOLF_BODY_WOLF_BODY_46_cls-4" d="M205.5,96.75h0c3.4,1.76,5.58,3.09,5.58,3.09S223.54,96.59,240.9,98s33.79,4.19,35.77,2.56a43.14,43.14,0,0,1,5.2-3.09h0" />
      <path class="BUNTAI_WOLF_BODY_WOLF_BODY_46_cls-4" d="M321.2,139.27c-.32,3.44-.53,5.63-.53,5.63l3.19,10.41,5.24,4.89-6.18,3.49s1.75,8.39,2,12.12c-5.94-7-8.39-7.22-8.39-7.22s4.08,26.44,5.95,30.87,2.68,6.53,2.68,6.53l-9.32-5.36s1.51,18.87,3.72,23.76l2.22,4.9-8.62-3.85a37,37,0,0,1-2.33,8.27c-3.62-9.67-5.95-10.48-5.95-10.48s-3.49,24.81-9.2,30.64c-1.23-4.5-3.14-7.13-4.82-8.66a8.05,8.05,0,0,0-3.68-2.06s.08,7.64-5.26,13.13" />
      <path class="BUNTAI_WOLF_BODY_WOLF_BODY_46_cls-4" d="M322.36,96.1a0,0,0,0,1,0,0h0" />
      <path class="BUNTAI_WOLF_BODY_WOLF_BODY_46_cls-4" d="M151.72,176.61l-.88-.68-5.7-2.8c7.22-5,12.93-15.14,12.93-15.14l-9.67-.7,8.15-9L150.84,146s1.52-.24,7.46-5.48c0-1.74.2-4.9.58-8.86h0" />
      <line class="BUNTAI_WOLF_BODY_WOLF_BODY_46_cls-4" x1="193.04" y1="91.21" x2="193.03" y2="91.21" />
      <path class="BUNTAI_WOLF_BODY_WOLF_BODY_46_cls-4" d="M160.51,196.78a68.27,68.27,0,0,0-13.23,15.4,35.75,35.75,0,0,0-3.78,8.48c-2.61-22.64,3.1-36.49,8.22-44a29.39,29.39,0,0,1,6.81-7.44" />
      <path class="BUNTAI_WOLF_BODY_WOLF_BODY_46_cls-4" d="M166,214.26s-4.43,2.62-8.77,5.88c-3.85,2.86-7.64,6.22-8.24,8.68-.7-5.67-1.29-12-1.7-16.64" />
      <path class="BUNTAI_WOLF_BODY_WOLF_BODY_46_cls-4" d="M172.16,233c-.11,1-2.68,22.33,7.46,31.9,3.5-11.42,7.92-18.53,20.74-23.42,9.44,9.09,14.68,18.64,19.11,22.37a24,24,0,0,0,2.33,1.75" />
      <path class="BUNTAI_WOLF_BODY_WOLF_BODY_46_cls-4" d="M157.22,220.14c1.55,4.14,4.51,13.74,1.66,21,11.3-5.17,13-7.67,13.26-8.09" />
      <path class="BUNTAI_WOLF_BODY_WOLF_BODY_46_cls-4" d="M252.76,274.81c-2.83.8-15.07,3.22-22.46.62h0a12.22,12.22,0,0,1-1.28-.52,10.33,10.33,0,0,1-1.49-.86c-2.69-1.85-4.42-4.77-5.73-8.4-1.55-4.31-2.5-9.62-3.73-15.3-2.45-11.27-11.71-17.65-11.71-17.65" />
      <path class="BUNTAI_WOLF_BODY_WOLF_BODY_46_cls-4" d="M292.53,272.14c.3.71,4.7,11.07,9.31,13.88l4.77,2.92s33.2,23.23,47.71,31.26,21.32,23.6,29,47,23.06,79.87,25.34,88.78c.35,1.37.69,2.86,1,4.4H348.41C343.23,438,334.82,402.87,332,397c-.51,15.73-3.63,43-4.41,63.43H109.82c-.91-18.36-5.4-39.85-4.88-63.43-5.62,13.74-13.75,43.75-18.84,63.43H25.74c9.71-52.89,41-123.56,49.33-133,9.4-10.63,52.24-31.21,52.24-31.21s34.77-12.66,38.59-42.5c.17-1.3,0,0-4.54,2.63,4.71-6.23,10.38-22.07,10.78-23.21,0,0,0,0,0,0a.08.08,0,0,0,0,0" />
      <path class="BUNTAI_WOLF_BODY_WOLF_BODY_46_cls-4" d="M292.51,272.1l0,0c.1.15.74.73,4.41,0-6.5-9.42-6.64-20.75-6.1-26.89" />
      <path class="BUNTAI_WOLF_BODY_WOLF_BODY_46_cls-4" d="M286.4,270s-6.82,22.72-10.66,29.71l-2.62-4s-12.93,26.74-23.94,36.7l-3.15-7s-17.3,20.1-23.77,24.64c-26.73-14.85-32-25.86-32-25.86" />
      <path class="BUNTAI_WOLF_BODY_WOLF_BODY_46_cls-4" d="M284,240.21a60.77,60.77,0,0,1-2.14,16.07c-.77,2.59-1.79,6.3-3.1,8.39-4.28,6.82-6.67,9.53-10.58,11.28a6.5,6.5,0,0,1-2.76.12L264.4,276c-3.61-.17-8.56-.66-10.11-.93l-1.53-.26" />
      <path class="BUNTAI_WOLF_BODY_WOLF_BODY_46_cls-5" d="M265.45,256.88c-.14.53-.3,1.07-.49,1.59-1.67,4.58-5.23,8.36-12.2,7.19-7,1.17-10.53-2.61-12.2-7.19-.19-.52-.35-1.06-.5-1.59a22.92,22.92,0,0,1-.36-10.43c1.18-4.07,13.06-5.21,13.06-5.21s11.88,1.14,13.06,5.21A23,23,0,0,1,265.45,256.88Z" />
      <path class="BUNTAI_WOLF_BODY_WOLF_BODY_46_cls-4" d="M252.76,241.24s-11.88,1.14-13.06,5.21a22.92,22.92,0,0,0,.36,10.43c.15.53.31,1.07.5,1.59,1.67,4.58,5.23,8.36,12.2,7.19v-10.3" />
      <path d="M246.75,260.13a7.62,7.62,0,0,1-6.19-1.66c-.19-.52-.35-1.06-.5-1.59.18.05,3.7.94,4.55-1.76s2.44-3.9,4.1-2.14S251.23,259.27,246.75,260.13Z" />
      <path class="BUNTAI_WOLF_BODY_WOLF_BODY_46_cls-4" d="M252.76,255.36v10.3c7,1.17,10.53-2.61,12.2-7.19.19-.52.35-1.06.49-1.59a23,23,0,0,0,.37-10.43c-1.18-4.07-13.06-5.21-13.06-5.21" />
      <path d="M265.45,256.88c-.14.53-.3,1.07-.49,1.59a7.62,7.62,0,0,1-6.19,1.66c-4.49-.86-3.63-5.39-2-7.15s3.25-.62,4.11,2.14S265.28,256.93,265.45,256.88Z" />
      <path class="BUNTAI_WOLF_BODY_WOLF_BODY_46_cls-6" d="M222.2,180.48c5.73,3.16,7.2,17.41,7.2,17.41s-2.11-4-6.26-4.45-10.58-2.71-12.39-7.12-4.83-5.31-4.83-5.31S216.47,177.31,222.2,180.48Z" />
      <path class="BUNTAI_WOLF_BODY_WOLF_BODY_46_cls-6" d="M291,181s-3,.9-4.83,5.31S278,193,273.82,193.44s-6.26,4.45-6.26,4.45,1.47-14.25,7.2-17.41S291,181,291,181Z" />
      <path class="BUNTAI_WOLF_BODY_WOLF_BODY_46_cls-7" d="M229.4,197.89s-1.47-14.25-7.2-17.41-16.28.53-16.28.53,3,.9,4.83,5.31,8.25,6.63,12.39,7.12S229.4,197.89,229.4,197.89Z" />
      <path class="BUNTAI_WOLF_BODY_WOLF_BODY_46_cls-7" d="M267.56,197.89s1.47-14.25,7.2-17.41S291,181,291,181s-3,.9-4.83,5.31S278,193,273.82,193.44,267.56,197.89,267.56,197.89Z" />
      <path d="M214.42,179.83s-4.65,1.52-3.66,6.11c-3.26-3.94-3.66-5-3.66-5A14.58,14.58,0,0,1,214.42,179.83Z" />
      <path d="M227.15,187.8a6.09,6.09,0,0,1-4.16,5.48c2.25.75,5.47,2.27,5.47,2.27S228,189.84,227.15,187.8Z" />
      <path d="M282.54,179.83s4.65,1.52,3.66,6.11c3.26-3.94,3.65-5,3.65-5A14.53,14.53,0,0,0,282.54,179.83Z" />
      <path d="M269.81,187.8a6.09,6.09,0,0,0,4.16,5.48c-2.26.75-5.48,2.27-5.48,2.27S269,189.84,269.81,187.8Z" />
      <g class="BUNTAI_WOLF_BODY_WOLF_BODY_46_cls-8">
        <path d="M284.52,276.06s-6.69,29.42-13.68,41.47c.7-11.18,0-12,0-12a73.4,73.4,0,0,1-16.07,34.42c-13.64,15.91-26.22,33.21-26.22,33.21v-8.22s-9.63,21-15.39,27.27c-21.38-25.59-31.7-33.79-41.37-49s-20.16-33.26-22.2-61.23c8.79-4,15.17-22.37,16.4-27.29l-3.23.83s7-14.3,9-20.77c.64,14.2,1,17.77,3.19,23.43,7.35-11.63,20.33-23.52,33.81-23.43,7.27,7.25,18.68,17.17,20.14,19.16a94.75,94.75,0,0,0,25.31,4.32c8.32,1,27.75-5.3,29.78-16.31,1.42-.7,8.32-3.94,8.32-3.94s4.14-2.59,8.23,5.43c-2.81,8.64-4.91,9.95-4.91,9.95s-2.59-7.42-4.48-7.77c-.41,7.6-3.05,17,1.81,27.64-4.41-3.09-6.59-3.18-6.59-3.18Z" />
        <path d="M158.3,240.7s8-9.44,11.42-12.58a29.05,29.05,0,0,1,8.39-5l-6.32,10.43a68.13,68.13,0,0,1-8.77,5.64C159.41,240.92,158.3,240.7,158.3,240.7Z" />
        <path d="M310.51,232.93s-3.14-8.1-6.64-10C308.5,223,311.47,220.24,310.51,232.93Z" />
        <path d="M283.69,240.21s-1.23-12.46-3.15-17.79c.57,11.71,2,20.73-3.46,34.47,5.3-7.22,7-12.23,7-12.23Z" />
        <path d="M199.1,114s2.11-8.89-2.52-16.69a178.25,178.25,0,0,1-9.76-18c-2.06-4.66-2.79-13.53-8.54-12.88s-10.91,6.12-16.46,18.27A98.9,98.9,0,0,0,154.57,107l-2.45-1.32a64,64,0,0,0,.7,7.39c.57,3.32-.1,3.63.09,4.45s-1,1.2-.36,2.42a8.79,8.79,0,0,1,1,2.58c.05.38.79,2.43.79,2.43s6.57,11.19,10.54,14.16C175.06,129.06,183.94,122,183.94,122Z" />
        <path d="M306.53,66s7,14.44,7.34,18A27.08,27.08,0,0,1,311,90.08l.76,2.18-.07,1.66h2.52V95l-2.7,1.15-1.32.43,2.43,3.34-3.39.76,1.84,2.8-1.92.57.17,2.71-.32,2.53-1.13.18s-1.82,8.17-4,12.31a32.14,32.14,0,0,1-4.7,6.78S287.74,122.85,286,119c.67-15.12,1.63-17.47,5.08-24.75s6-12.86,7.39-18.42,3.82-9.42,5.24-9.89A5.06,5.06,0,0,1,306.53,66Z" />
        <path d="M300.71,128s6.68-10,8.56-15.35c1.66.87,1.88,0,1.88,0l.26-3.28.66.66a1.48,1.48,0,0,0,.74-1.54l-.13-1.13s2.1.09,2-2.35a11.11,11.11,0,0,1,.66-4.37,52.43,52.43,0,0,1,1.79,17.91,183.57,183.57,0,0,1-3.45,23.24,57,57,0,0,0-13.58-13.19Z" />
        <path d="M74.88,460.39H25.74s2-18.61,15-55S68.42,336,74,328.7s29.44-20.51,47.85-29.87,28.25-16.43,28.25-16.43l6.76,4s1.35,67.57,14.71,85.75c-18.58-15.31-19.49-17.48-19.49-17.48S135,378.05,133.25,408.11c-2.45-19.93-9.44-50.33-4.55-74.28-7.51,13.81-10.5,19.92-10.5,19.92s-16.59,29.36-21.13,42.65-17.53,64-17.53,64Z" />
        <path d="M332.56,398.33s12.84,24.45,13.54,29.61c-2.45-17.65-2.88-19.49-2.88-19.49s11.88,30.33,14.85,40.37,3.5,11.19,3.5,11.19l-13.16.38S335.19,404.8,332.56,398.33Z" />
        <path d="M331.51,399.11S328.7,430,328.84,440a163.4,163.4,0,0,1-1.25,20.4H312.28s5.68-29.22,11.63-45.64,7.6-17.48,7.6-17.48Z" />
      </g>
      <path class="BUNTAI_WOLF_BODY_WOLF_BODY_46_cls-9" d="M276.82,180.7a5.36,5.36,0,1,1-5.49,5.36A5.43,5.43,0,0,1,276.82,180.7Z" />
      <ellipse cx="276.72" cy="186.17" rx="2.65" ry="2.59" />
      <ellipse class="BUNTAI_WOLF_BODY_WOLF_BODY_46_cls-6" cx="275" cy="183.58" rx="1.21" ry="1.18" />
      <ellipse class="BUNTAI_WOLF_BODY_WOLF_BODY_46_cls-10" cx="276.82" cy="186.06" rx="5.49" ry="5.36" />
      <path class="BUNTAI_WOLF_BODY_WOLF_BODY_46_cls-9" d="M218.13,180.7a5.36,5.36,0,1,0,5.49,5.36A5.43,5.43,0,0,0,218.13,180.7Z" />
      <ellipse cx="218.13" cy="186.06" rx="2.65" ry="2.59" />
      <ellipse class="BUNTAI_WOLF_BODY_WOLF_BODY_46_cls-6" cx="216.41" cy="183.47" rx="1.21" ry="1.18" />
      <ellipse class="BUNTAI_WOLF_BODY_WOLF_BODY_46_cls-10" cx="218.13" cy="186.06" rx="5.49" ry="5.36" />
    </g>
  </g>
</svg>