<svg xmlns="http://www.w3.org/2000/svg" viewBox="0 0 432 432">
  <defs>
    <style>.BUNTAI_WOLF_BODY_WOLF_BODY_31_cls-1{isolation:isolate;}.BUNTAI_WOLF_BODY_WOLF_BODY_31_cls-2{fill:#a28b6c;}.BUNTAI_WOLF_BODY_WOLF_BODY_31_cls-3{fill:#493824;}.BUNTAI_WOLF_BODY_WOLF_BODY_31_cls-4,.BUNTAI_WOLF_BODY_WOLF_BODY_31_cls-7,.BUNTAI_WOLF_BODY_WOLF_BODY_31_cls-9{fill:none;stroke:#000;stroke-linecap:round;}.BUNTAI_WOLF_BODY_WOLF_BODY_31_cls-4,.BUNTAI_WOLF_BODY_WOLF_BODY_31_cls-7{stroke-linejoin:round;}.BUNTAI_WOLF_BODY_WOLF_BODY_31_cls-4{stroke-width:2px;}.BUNTAI_WOLF_BODY_WOLF_BODY_31_cls-5{fill:#161719;}.BUNTAI_WOLF_BODY_WOLF_BODY_31_cls-6{fill:#fff;}.BUNTAI_WOLF_BODY_WOLF_BODY_31_cls-7{stroke-width:1.72px;}.BUNTAI_WOLF_BODY_WOLF_BODY_31_cls-8{fill:#4efff7;}.BUNTAI_WOLF_BODY_WOLF_BODY_31_cls-9{stroke-miterlimit:10;stroke-width:1.72px;}.BUNTAI_WOLF_BODY_WOLF_BODY_31_cls-10{opacity:0.22;mix-blend-mode:multiply;}</style>
  </defs>
  <g class="BUNTAI_WOLF_BODY_WOLF_BODY_31_cls-1">
    <g id="body">
      <path class="BUNTAI_WOLF_BODY_WOLF_BODY_31_cls-2" d="M221.8,266.14a24,24,0,0,1-2.33-1.75c-4.43-3.73-9.67-13.28-19.11-22.37-12.82,4.89-17.24,12-20.74,23.42-10.14-9.57-7.57-30.94-7.46-31.9,0,0,0,0,0,0-.23.42-2,2.92-13.26,8.09,2.85-7.29-.11-16.89-1.66-21-3.85,2.86-7.64,6.22-8.24,8.68-.7-5.67-1.29-12-1.7-16.64a35.75,35.75,0,0,0-3.78,8.48c-2.61-22.64,3.1-36.49,8.22-44l-.88-.68-5.7-2.8c7.22-5,12.93-15.14,12.93-15.14l-9.67-.7,8.15-9-5.71-2.33s1.52-.24,7.46-5.48c.12-8.16-5.24-67.11,7.22-70.95s45.56,30.29,45.56,30.29,12.46-3.26,29.82-1.86,33.79,4.19,35.77,2.56,28.66-38.91,37.86-36.35c5,1.86,9.56,26,9.32,38.24s-3.18,42.46-3.18,42.46l3.19,10.41,5.24,4.89-6.18,3.49s1.75,8.39,2,12.12c-5.94-7-8.39-7.22-8.39-7.22s4.08,26.44,5.95,30.87,2.68,6.53,2.68,6.53l-9.32-5.36s1.51,18.87,3.72,23.76l2.22,4.9-8.62-3.85a37,37,0,0,1-2.33,8.27c-3.62-9.67-5.95-10.48-5.95-10.48s-3.49,24.81-9.2,30.64c-1.23-4.5-3.14-7.13-4.82-8.66a8.05,8.05,0,0,0-3.68-2.06s.08,7.64-5.26,13.13c-.77,2.59-1.79,6.3-3.1,8.39-4.29,6.82-6.67,9.53-10.58,11.28a6.54,6.54,0,0,1-2.77.12l-1.05-.07c-3.61-.17-8.56-.66-10.11-.93l-1.53-.26c-2.83.8-15.07,3.22-22.46.62h0a12.22,12.22,0,0,1-1.28-.52,10.33,10.33,0,0,1-1.49-.86C224.84,272.69,223.11,269.77,221.8,266.14Z" />
      <path class="BUNTAI_WOLF_BODY_WOLF_BODY_31_cls-2" d="M264.4,276.5l1.05.07c0,.4-.28,8.17-13.22,8.17-13.27,0-21-1-21.93-8.81,7.39,2.6,19.63.18,22.46-.62l1.53.26C255.84,275.84,260.79,276.33,264.4,276.5Z" />
      <path class="BUNTAI_WOLF_BODY_WOLF_BODY_31_cls-2" d="M409.68,460.89H348.41c-5.18-22.35-13.59-57.52-16.41-63.43-.51,15.73-3.63,43-4.41,63.43H109.82c-.91-18.36-5.4-39.85-4.88-63.43-5.62,13.74-13.75,43.75-18.84,63.43H25.74c5.52-30.09,18-65.93,29.31-93,0,0,0,0,0,0,8.55-20.5,16.42-35.94,20-40,9.4-10.63,52.23-31.21,52.23-31.21s34.77-12.66,38.59-42.5c.17-1.3,0,0-4.54,2.63,3.48-4.6,7.48-14.43,9.49-19.73.72-1.88,1.19-3.18,1.29-3.48,0,0,0,0,0,0,0,.2-.15,1.24-.24,2.87-.37,5.92-.37,19.53,6.26,27.49a17.49,17.49,0,0,0,1.44,1.54c2.81-9.18,6.22-15.58,14.11-20.27a43.18,43.18,0,0,1,6.63-3.15c9.44,9.09,14.68,18.64,19.11,22.37a24,24,0,0,0,2.33,1.75c1.31,3.63,3,6.55,5.73,8.4a10.33,10.33,0,0,0,1.49.86,12.22,12.22,0,0,0,1.28.52h0c.88,7.77,8.66,8.81,21.93,8.81,12.94,0,13.21-7.77,13.22-8.17a6.54,6.54,0,0,0,2.77-.12c3.91-1.75,6.29-4.46,10.58-11.28,1.31-2.09,2.33-5.8,3.1-8.39l.28-.3a16.86,16.86,0,0,0,2.39-3.31,21.19,21.19,0,0,0,2.59-9.52,8.05,8.05,0,0,1,3.68,2.06c-.54,6.14-.4,17.47,6.1,26.89-3.67.77-4.31.19-4.41,0,.3.71,4.7,11.07,9.31,13.88l4.77,2.92s33.2,23.23,47.71,31.26c14.08,7.81,20.92,22.71,28.35,45l.66,2c7.68,23.42,23.06,79.87,25.34,88.78C409,457.86,409.36,459.35,409.68,460.89Z" />
      <path class="BUNTAI_WOLF_BODY_WOLF_BODY_31_cls-3" d="M178.18,263.9c-.56,4.56-1,9.14-1.05,13.2l-2.8-6.25s-2.13,35.48-13.82,49.63a43.5,43.5,0,0,0,4.19-14.85s-12.56,26-42.62,34.25-45-3.12-67,28c8.55-20.5,16.42-35.94,20-40,9.4-10.63,52.23-31.21,52.23-31.21s34.77-12.66,38.59-42.5c.17-1.3,0,0-4.54,2.63,3.48-4.6,7.48-14.43,9.49-19.73l1.07-.65C171.55,242.33,171.55,255.94,178.18,263.9Z" />
      <path class="BUNTAI_WOLF_BODY_WOLF_BODY_31_cls-3" d="M382.67,365.72c-17.33-28.42-29.61-17.83-53.66-25.84-24.64-8.21-34.93-34.25-34.93-34.25a51,51,0,0,0,3.43,14.85c-9.59-14.15-11.34-49.63-11.34-49.63l-2.29,6.25a202.28,202.28,0,0,0-1.7-20.62,16.86,16.86,0,0,0,2.39-3.31,21.19,21.19,0,0,0,2.59-9.52,8.05,8.05,0,0,1,3.68,2.06c-.54,6.14-.4,17.47,6.1,26.89-3.67.77-4.31.19-4.41,0,.3.71,4.7,11.07,9.31,13.88l4.77,2.92s33.2,23.23,47.71,31.26C368.4,328.51,375.24,343.41,382.67,365.72Z" />
      <path class="BUNTAI_WOLF_BODY_WOLF_BODY_31_cls-3" d="M239.34,249.23s-9.78-14-5-36.69c2.33-11,4.55-21.55,1.81-29.65-2.28-7.16-16.52-15.84-37.87-17.15-4.31,4.19-.06,15.44-.06,15.44s-11.53-1.49-17.12,18.31c-2.57-4.19-4-6.64-4-6.64s-24.7,11.89-28.19,36.47a136.77,136.77,0,0,0-1.65-16l-3.83,7.89s-6.57-17.4,7.61-43.13l-.27-1.6-5.37-2.64s8.17-6.28,12.25-15.71c-8-.47-8.9-.76-8.9-.76s6.51-6.29,7.62-8.91c-4.8-1.59-4.76-2.3-4.76-2.3l6.62-5.1S156,104,158,89.52s2.5-19.76,11.07-19.46,17.06,8.37,28.69,17.76,13.55,12.47,13.55,12.47,8.83-3.1,30.51-1.73,29.74,4,34.84,2.49c9.63-11.92,29.42-37,37.31-36,3,.7,7.11,10.05,9.2,22.46s-.61,45.09-1.39,49.81l-.79,4.72.26,5.76.55.19,2.5,8.22,4.41,4.68-5.27,3.63,1.8,11.24s-5.4-5.74-8.12-6.48c1,7.71,2.76,29.14,7.59,36.95-3.81-4.65-7.13-10.37-12.46-13-1.31,3.52-6.73,6.55-6.73,6.55s.11-15.35-7.58-18.23c3.23-8.91,0-15.64,0-15.64s-25.86,2-31.34,11-5.47,16.83-4.79,23.52c1.11,10.78,11,27.83,4.39,47.66C258.28,244.11,249.13,245.91,239.34,249.23Z" />
      <path class="BUNTAI_WOLF_BODY_WOLF_BODY_31_cls-4" d="M151.72,177.11l-.88-.68-5.7-2.8c7.22-5,12.93-15.14,12.93-15.14l-9.67-.7,8.15-9-5.71-2.33s1.52-.24,7.46-5.48c.12-8.16-5.24-67.11,7.22-70.95s45.56,30.29,45.56,30.29,12.46-3.26,29.82-1.86,33.79,4.19,35.77,2.56,28.66-38.91,37.86-36.35c5,1.86,9.56,26,9.32,38.24s-3.18,42.46-3.18,42.46l3.19,10.41,5.24,4.89-6.18,3.49s1.75,8.39,2,12.12c-5.94-7-8.39-7.22-8.39-7.22s4.08,26.44,5.95,30.87,2.68,6.53,2.68,6.53l-9.32-5.36s1.51,18.87,3.72,23.76l2.22,4.9-8.62-3.85a37,37,0,0,1-2.33,8.27c-3.62-9.67-5.95-10.48-5.95-10.48s-3.49,24.81-9.2,30.64c-1.23-4.5-3.14-7.13-4.82-8.66a8.05,8.05,0,0,0-3.68-2.06s.08,7.64-5.26,13.13" />
      <path class="BUNTAI_WOLF_BODY_WOLF_BODY_31_cls-4" d="M292.53,272.64c.3.71,4.7,11.07,9.31,13.88l4.77,2.92s33.2,23.23,47.71,31.26,21.32,23.6,29,47,23.06,79.87,25.34,88.78c.35,1.37.69,2.86,1,4.4H348.41c-5.18-22.35-13.59-57.52-16.41-63.43-.51,15.73-3.63,43-4.41,63.43H109.82c-.91-18.36-5.4-39.85-4.88-63.43-5.62,13.74-13.75,43.75-18.84,63.43H25.74c9.71-52.89,41-123.56,49.34-133,9.4-10.63,52.23-31.21,52.23-31.21s34.77-12.66,38.59-42.5c.17-1.3,0,0-4.54,2.63,4.71-6.23,10.38-22.07,10.78-23.21" />
      <path class="BUNTAI_WOLF_BODY_WOLF_BODY_31_cls-4" d="M160.51,197.28a68.27,68.27,0,0,0-13.23,15.4,35.75,35.75,0,0,0-3.78,8.48c-2.61-22.64,3.1-36.49,8.22-44a29.39,29.39,0,0,1,6.81-7.44" />
      <path class="BUNTAI_WOLF_BODY_WOLF_BODY_31_cls-4" d="M166,214.76s-4.43,2.62-8.77,5.88c-3.85,2.86-7.64,6.22-8.24,8.68-.7-5.67-1.29-12-1.7-16.64" />
      <path class="BUNTAI_WOLF_BODY_WOLF_BODY_31_cls-4" d="M172.16,233.54c-.11,1-2.68,22.33,7.46,31.9,3.5-11.42,7.92-18.53,20.74-23.42,9.44,9.09,14.68,18.64,19.11,22.37a24,24,0,0,0,2.33,1.75" />
      <path class="BUNTAI_WOLF_BODY_WOLF_BODY_31_cls-4" d="M157.22,220.64c1.55,4.14,4.51,13.74,1.66,21,11.3-5.17,13-7.67,13.26-8.09,0,0,0,0,0,0a.08.08,0,0,0,0,0" />
      <path class="BUNTAI_WOLF_BODY_WOLF_BODY_31_cls-4" d="M230.3,275.92a12.22,12.22,0,0,1-1.28-.52,10.33,10.33,0,0,1-1.49-.86c-2.69-1.85-4.42-4.77-5.73-8.4-1.55-4.31-2.5-9.62-3.73-15.3-2.45-11.27-11.71-17.65-11.71-17.65" />
      <path class="BUNTAI_WOLF_BODY_WOLF_BODY_31_cls-4" d="M252.76,275.31c-2.83.8-15.07,3.22-22.46.62" />
      <path class="BUNTAI_WOLF_BODY_WOLF_BODY_31_cls-4" d="M292.51,272.6l0,0c.1.15.74.73,4.41,0-6.5-9.42-6.64-20.75-6.1-26.89" />
      <path class="BUNTAI_WOLF_BODY_WOLF_BODY_31_cls-4" d="M286.4,270.5s-6.82,22.72-10.66,29.71l-2.62-4s-12.94,26.74-24,36.7l-3.14-7s-17.3,20.1-23.77,24.64c-26.74-14.85-32-25.86-32-25.86" />
      <path class="BUNTAI_WOLF_BODY_WOLF_BODY_31_cls-4" d="M178.69,127.26l4.43-6.87,6.52,2.21,1.28-4.31,9.32,2.1S197.91,108,193.83,98.6a71.16,71.16,0,0,0-12.78-19.25c-4.62-4.84-10-8.63-15.53-9.29" />
      <path class="BUNTAI_WOLF_BODY_WOLF_BODY_31_cls-4" d="M314.53,64.7s-3.18,2-8.56,7.64a138.1,138.1,0,0,0-12.41,15.37c-12.58,17.82-14.26,31.1-14.26,31.1l8.58,6.21s4.28-4.29,7.87-4.81a17.3,17.3,0,0,0-2.36,6.12,47,47,0,0,1,13.72-3.41,27.2,27.2,0,0,0-7.69,6.81,62.24,62.24,0,0,1,9,8" />
      <path class="BUNTAI_WOLF_BODY_WOLF_BODY_31_cls-4" d="M181.05,79.35s-6.9,1.66-11.22,14-5.12,30.17-5.12,30.17" />
      <path class="BUNTAI_WOLF_BODY_WOLF_BODY_31_cls-4" d="M306,72.34s8.21,4.36,10,21.6-1.4,39.73-1.4,39.73" />
      <path class="BUNTAI_WOLF_BODY_WOLF_BODY_31_cls-4" d="M284,240.71a60.77,60.77,0,0,1-2.14,16.07c-.77,2.59-1.79,6.3-3.1,8.39-4.29,6.82-6.67,9.53-10.58,11.28a6.54,6.54,0,0,1-2.77.12l-1.05-.07c-3.61-.17-8.56-.66-10.11-.93l-1.53-.26" />
      <path class="BUNTAI_WOLF_BODY_WOLF_BODY_31_cls-4" d="M265.45,276.56h0c0,.4-.28,8.17-13.22,8.17-13.27,0-21-1-21.93-8.81h0" />
      <path class="BUNTAI_WOLF_BODY_WOLF_BODY_31_cls-5" d="M265.45,257.38c-.14.54-.3,1.07-.49,1.59-1.67,4.59-5.23,8.36-12.2,7.19-7,1.17-10.53-2.6-12.2-7.19-.19-.52-.35-1.05-.5-1.59A22.92,22.92,0,0,1,239.7,247c1.18-4.07,13.06-5.21,13.06-5.21s11.88,1.14,13.06,5.21A22.81,22.81,0,0,1,265.45,257.38Z" />
      <path class="BUNTAI_WOLF_BODY_WOLF_BODY_31_cls-4" d="M252.76,241.74s-11.88,1.14-13.06,5.21a22.92,22.92,0,0,0,.36,10.43c.15.54.31,1.07.5,1.59,1.67,4.59,5.23,8.36,12.2,7.19V255.87" />
      <path d="M246.75,260.63a7.59,7.59,0,0,1-6.19-1.66c-.19-.52-.35-1.05-.5-1.59.18.05,3.7.95,4.55-1.76s2.45-3.9,4.11-2.14S251.24,259.77,246.75,260.63Z" />
      <path class="BUNTAI_WOLF_BODY_WOLF_BODY_31_cls-4" d="M252.76,255.87v10.29c7,1.17,10.53-2.6,12.2-7.19.19-.52.35-1.05.49-1.59a22.81,22.81,0,0,0,.37-10.43c-1.18-4.07-13.06-5.21-13.06-5.21" />
      <path d="M265.45,257.38c-.14.54-.3,1.07-.49,1.59a7.59,7.59,0,0,1-6.19,1.66c-4.49-.86-3.63-5.39-2-7.15s3.25-.62,4.11,2.14S265.28,257.43,265.45,257.38Z" />
      <path class="BUNTAI_WOLF_BODY_WOLF_BODY_31_cls-6" d="M222.2,181c-5.73-3.16-16.28.53-16.28.53s3,.9,4.83,5.31,8.25,6.63,12.39,7.12,6.26,4.45,6.26,4.45S227.93,184.15,222.2,181Z" />
      <path class="BUNTAI_WOLF_BODY_WOLF_BODY_31_cls-6" d="M274.76,181c-5.73,3.17-7.2,17.41-7.2,17.41s2.11-4,6.25-4.45,10.59-2.71,12.4-7.12,4.83-5.31,4.83-5.31S280.48,177.82,274.76,181Z" />
      <path class="BUNTAI_WOLF_BODY_WOLF_BODY_31_cls-7" d="M229.4,198.39s-1.47-14.24-7.2-17.41-16.28.53-16.28.53,3,.9,4.83,5.31,8.25,6.63,12.39,7.12S229.4,198.39,229.4,198.39Z" />
      <path class="BUNTAI_WOLF_BODY_WOLF_BODY_31_cls-8" d="M218.13,181.2a5.36,5.36,0,1,0,5.49,5.36A5.43,5.43,0,0,0,218.13,181.2Z" />
      <ellipse cx="218.13" cy="186.56" rx="2.65" ry="2.59" />
      <ellipse class="BUNTAI_WOLF_BODY_WOLF_BODY_31_cls-6" cx="216.41" cy="183.97" rx="1.21" ry="1.18" />
      <ellipse class="BUNTAI_WOLF_BODY_WOLF_BODY_31_cls-9" cx="218.13" cy="186.56" rx="5.49" ry="5.36" />
      <path d="M214.42,180.33s-4.65,1.53-3.66,6.11c-3.26-3.94-3.66-5-3.66-5A14.58,14.58,0,0,1,214.42,180.33Z" />
      <path d="M227.15,188.3a6.09,6.09,0,0,1-4.16,5.48c2.25.75,5.48,2.28,5.48,2.28S228,190.34,227.15,188.3Z" />
      <path class="BUNTAI_WOLF_BODY_WOLF_BODY_31_cls-7" d="M267.56,198.39s1.47-14.24,7.2-17.41,16.27.53,16.27.53-3,.9-4.82,5.31-8.25,6.63-12.4,7.12S267.56,198.39,267.56,198.39Z" />
      <path class="BUNTAI_WOLF_BODY_WOLF_BODY_31_cls-8" d="M276.82,181.2a5.36,5.36,0,1,1-5.49,5.36A5.43,5.43,0,0,1,276.82,181.2Z" />
      <ellipse cx="276.72" cy="186.67" rx="2.65" ry="2.59" />
      <ellipse class="BUNTAI_WOLF_BODY_WOLF_BODY_31_cls-6" cx="275" cy="184.08" rx="1.21" ry="1.18" />
      <ellipse class="BUNTAI_WOLF_BODY_WOLF_BODY_31_cls-9" cx="276.82" cy="186.56" rx="5.49" ry="5.36" />
      <path d="M282.54,180.33s4.65,1.53,3.66,6.11c3.26-3.94,3.66-5,3.66-5A14.58,14.58,0,0,0,282.54,180.33Z" />
      <path d="M269.81,188.3a6.09,6.09,0,0,0,4.16,5.48c-2.25.75-5.48,2.28-5.48,2.28S269,190.34,269.81,188.3Z" />
      <g class="BUNTAI_WOLF_BODY_WOLF_BODY_31_cls-10">
        <path d="M284.52,276.56S277.83,306,270.84,318c.7-11.19,0-12.06,0-12.06a73.46,73.46,0,0,1-16.07,34.43c-13.63,15.9-26.22,33.2-26.22,33.2V365.4s-9.63,21-15.39,27.26c-21.38-25.58-31.7-33.78-41.37-49s-21.64-36.79-23.68-64.76c8.79-4,16.66-18.84,17.88-23.76l-3.23.84s7-14.31,9-20.78c.64,14.2,1,17.77,3.19,23.43,7.35-11.63,20.33-23.52,33.81-23.43,7.27,7.25,18.68,17.17,20.14,19.16a94.75,94.75,0,0,0,25.31,4.32c8.32,1,27.75-5.29,29.78-16.31,1.42-.7,8.32-3.94,8.32-3.94s4.14-2.59,8.23,5.44c-2.81,8.63-4.91,9.94-4.91,9.94s-2.59-7.42-4.48-7.77c-.41,7.6-3.05,17,1.81,27.64-4.41-3.09-6.59-3.18-6.59-3.18Z" />
        <path d="M158.3,241.2s8-9.44,11.42-12.58a29.05,29.05,0,0,1,8.39-5l-6.32,10.44a67.35,67.35,0,0,1-8.77,5.63C159.41,241.42,158.3,241.2,158.3,241.2Z" />
        <path d="M310.51,233.43s-3.14-8.1-6.64-10C308.5,223.49,311.48,220.74,310.51,233.43Z" />
        <path d="M181.72,79.35s-8.22-.5-13.46,19.31-3.55,35-3.55,35l.81,4.1s9.49-4.61,12.09-9.19a62.44,62.44,0,0,1,5.35-8l6,1.76,2-4.07s9.39,1.21,9.19,1.13-3.32-13.69-6.46-22.07S181.72,79.35,181.72,79.35Z" />
        <path d="M279.3,118.81s3.55-22.15,27-46.25c6.27,4.66,10.28,13,10.11,31.49a282.87,282.87,0,0,1-1.57,29.62l-1.66,5.94s-5.4-2.49-5.53-2.62l-7.63-7.31a69.59,69.59,0,0,1,6.32-6.26c-8.91,1.25-11.62,2.12-11.62,2.12l-1.14-.3L295,120l-7.11,5.12Z" />
        <path d="M283.69,240.71s-1.22-12.45-3.15-17.79c.57,11.71,2,20.73-3.46,34.48,5.3-7.23,7-12.24,7-12.24Z" />
        <path d="M74.88,460.89H25.74s2-18.61,15-55S68.42,336.47,74,329.2s29.44-20.51,47.85-29.87,28.25-16.43,28.25-16.43l6.76,4s1.36,67.57,14.72,85.75c-18.58-15.3-19.5-17.48-19.5-17.48S135,378.55,133.25,408.61c-2.45-19.92-9.44-50.33-4.55-74.27-7.51,13.8-10.5,19.92-10.5,19.92s-16.58,29.36-21.13,42.64-17.53,64-17.53,64Z" />
        <path d="M332.57,398.83s12.83,24.46,13.53,29.61c-2.44-17.65-2.88-19.48-2.88-19.48s11.88,30.32,14.85,40.37,3.5,11.18,3.5,11.18l-13.16.38S335.19,405.3,332.57,398.83Z" />
        <path d="M331.51,399.61s-2.81,30.91-2.67,40.88a161.23,161.23,0,0,1-1.25,20.4h-15.3s5.68-29.21,11.62-45.64,7.6-17.48,7.6-17.48Z" />
      </g>
    </g>
  </g>
</svg>