<svg xmlns="http://www.w3.org/2000/svg" viewBox="0 0 432 432">
  <defs>
    <style>.BUNTAI_WOLF_BODY_WOLF_BODY_35_cls-1{isolation:isolate;}.BUNTAI_WOLF_BODY_WOLF_BODY_35_cls-2{fill:#ffeee8;}.BUNTAI_WOLF_BODY_WOLF_BODY_35_cls-3{fill:#515966;}.BUNTAI_WOLF_BODY_WOLF_BODY_35_cls-10,.BUNTAI_WOLF_BODY_WOLF_BODY_35_cls-4,.BUNTAI_WOLF_BODY_WOLF_BODY_35_cls-7{fill:none;stroke:#000;stroke-linecap:round;}.BUNTAI_WOLF_BODY_WOLF_BODY_35_cls-4,.BUNTAI_WOLF_BODY_WOLF_BODY_35_cls-7{stroke-linejoin:round;}.BUNTAI_WOLF_BODY_WOLF_BODY_35_cls-4{stroke-width:2px;}.BUNTAI_WOLF_BODY_WOLF_BODY_35_cls-5{fill:#424c55;}.BUNTAI_WOLF_BODY_WOLF_BODY_35_cls-6{fill:#fff;}.BUNTAI_WOLF_BODY_WOLF_BODY_35_cls-7{stroke-width:1.72px;}.BUNTAI_WOLF_BODY_WOLF_BODY_35_cls-8{opacity:0.22;mix-blend-mode:multiply;}.BUNTAI_WOLF_BODY_WOLF_BODY_35_cls-9{fill:#50674a;}.BUNTAI_WOLF_BODY_WOLF_BODY_35_cls-10{stroke-miterlimit:10;stroke-width:1.72px;}</style>
  </defs>
  <g class="BUNTAI_WOLF_BODY_WOLF_BODY_35_cls-1">
    <g id="body">
      <path class="BUNTAI_WOLF_BODY_WOLF_BODY_35_cls-2" d="M254.16,274.94c1.55.27,6.5.76,10.11.93l1.06.07c0,.4-.28,8.17-13.23,8.17-13.27,0-21-1-21.93-8.81,7.39,2.6,19.63.18,22.46-.62Z" />
      <path class="BUNTAI_WOLF_BODY_WOLF_BODY_35_cls-2" d="M409.55,460.26H348.28c-4.59-19.8-11.71-49.65-15.24-60.32h0a28.44,28.44,0,0,0-1.17-3.1c-.51,15.73-3.63,43-4.41,63.43H109.69c-.23-4.64-.69-9.48-1.23-14.5-1.45-13.22-3.52-27.71-3.68-43.17q0-2.85,0-5.76c-.14.35-.29.7-.43,1.07h0c-5.6,14.18-13.45,43.17-18.41,62.35H25.61a364,364,0,0,1,10.61-41.71h0s0,0,0-.05C49.52,375.86,68.68,334.33,75,327.24c9.4-10.63,52.23-31.21,52.23-31.21s34.77-12.66,38.59-42.5c.17-1.3,0,0-4.54,2.63,4.71-6.23,10.38-22.07,10.78-23.21l0,0c-.11,1-2.68,22.33,7.46,31.9,3.47-11.32,7.85-18.41,20.42-23.29l.32-.13c9.44,9.09,14.68,18.64,19.11,22.37a24,24,0,0,0,2.33,1.75c1.31,3.63,3,6.55,5.73,8.4a10.33,10.33,0,0,0,1.49.86,12.22,12.22,0,0,0,1.28.52h0c.89,7.77,8.66,8.81,21.93,8.81,13,0,13.22-7.77,13.23-8.17h0a6.32,6.32,0,0,0,2.72-.12c3.91-1.75,6.3-4.46,10.58-11.28,1.31-2.09,2.33-5.8,3.1-8.39C287.11,250.66,287,243,287,243a8.05,8.05,0,0,1,3.68,2.06c-.54,6.14-.4,17.47,6.1,26.89-3.67.77-4.31.19-4.41,0,.3.71,4.7,11.07,9.31,13.88l4.77,2.92s33.2,23.23,47.71,31.26,21.32,23.6,29,47c1.38,4.2,3,9.46,4.75,15.31a0,0,0,0,1,0,0c8,26.81,18.71,66.14,20.58,73.45C408.89,457.23,409.23,458.72,409.55,460.26Z" />
      <path class="BUNTAI_WOLF_BODY_WOLF_BODY_35_cls-3" d="M169.56,314.89c-3.82,16.08-1.76,45.9,2.1,56.85-13.84-10.71-18.5-15.84-18.5-15.84S134.05,411.77,156,460.26H109.69l-1.23-14.5-3.68-43.17-.4-4.68h0S109,366,118.44,353.1C104.81,365,102,374.42,102,374.42a100.57,100.57,0,0,1,0-22.37C89.43,372,84.88,376.52,84.88,376.52s-25.51,11.88-33.2,24.12c11.17-19,13.82-24.81,14-25.15-.59.6-19.42,20.13-29.41,43C49.52,375.86,68.68,334.33,75,327.24c9.4-10.63,52.23-31.21,52.23-31.21s34.77-12.66,38.59-42.5c.17-1.3,0,0-4.54,2.63,4.71-6.23,10.38-22.07,10.78-23.21l0,0c-.11,1-2.68,22.33,7.46,31.9,3.47-11.32,7.85-18.41,20.42-23.29-3.46,8.54-11.08,27.59-18.33,47.27l-.7-10S173.39,298.81,169.56,314.89Z" />
      <path class="BUNTAI_WOLF_BODY_WOLF_BODY_35_cls-3" d="M389.52,418.55c-8.22-22.82-23.73-42.34-24.32-43.06.12.34,2.31,6.18,11.54,25.15-6.35-12.24-27.45-24.12-27.45-24.12s-3.75-4.54-14.15-24.47a122.3,122.3,0,0,1,0,22.37s-2.32-9.43-13.59-21.32c7.81,12.94,11.63,44.8,11.63,44.8l-.14,2a28.44,28.44,0,0,0-1.17-3.1c-.51,15.73-3.63,43-4.41,63.43H290.54c18.11-48.49,2.31-104.36,2.31-104.36S289,361,277.56,371.74c15.85-22.26,11.58-40.83,8.71-56.65S278,273.68,278,273.68l.09,10.43c-.51-2.69-3-9.25-4.3-12.7a57.19,57.19,0,0,0,4.84-6.87c1.31-2.09,2.33-5.8,3.1-8.39C287.11,250.66,287,243,287,243a8.05,8.05,0,0,1,3.68,2.06c-.54,6.14-.4,17.47,6.1,26.89-3.67.77-4.31.19-4.41,0,.3.71,4.7,11.07,9.31,13.88l4.77,2.92s33.2,23.23,47.71,31.26,21.32,23.6,29,47c1.38,4.2,3,9.46,4.75,15.31a0,0,0,0,1,0,0A233.06,233.06,0,0,1,389.52,418.55Z" />
      <path class="BUNTAI_WOLF_BODY_WOLF_BODY_35_cls-2" d="M150.71,175.8,145,173c7.22-5,12.93-15.14,12.93-15.14l-9.67-.7,8.15-9-5.71-2.33s1.52-.24,7.46-5.48c0-1.74.2-4.9.58-8.86h0a36.94,36.94,0,0,1-1.79-3.37l-2-3-2.48-2.78h3a12.81,12.81,0,0,1-4-3.94l2.72-.4-3.34-2.57,3.81.07c-2.18-1.72-3.67-7.27-3.76-7.62.06,0,.65.68,4.13,4.55-2.59-3-4.25-8.8-4.35-9.15.07,0,.73.68,4.49,3.54-5.42-8,.44-22.1.44-22.1l1.57,3.51C157.77,82.46,167.6,66,175.46,64s9.53.46,11.78,8.16,6.52,12.2,14.39,20.09a37.14,37.14,0,0,1,3.74,4.37h0c3.4,1.76,5.58,3.09,5.58,3.09s12.46-3.26,29.82-1.86,33.79,4.19,35.77,2.56a43.14,43.14,0,0,1,5.2-3.09h0c.55-.85,1.17-1.71,1.85-2.58,6.91-8.85,10.66-13.88,12.64-22.5s3.45-11.36,10.35-9.14,15.54,20.67,16.12,27.19l1.38-3.93s5.15,15.83.39,24.76c3.3-3.21,3.88-3.91,3.94-4-.09.4-1.54,6.83-3.82,10.25,3.06-4.33,3.58-5,3.63-5.09-.08.39-1.39,6.6-3.3,8.53l3.34-.07-2.93,2.87,2.39.45s-1.61,3.19-3.56,4.41h2.63l-2.18,3.12-1.78,3.31s-.67,1.9-1.77,4.2c-.32,3.44-.53,5.63-.53,5.63l3.19,10.41,5.24,4.89-6.18,3.49s1.75,8.39,2,12.12c-5.94-7-8.39-7.22-8.39-7.22s4.08,26.44,5.95,30.87,2.68,6.53,2.68,6.53l-9.32-5.36s1.51,18.87,3.72,23.76l2.22,4.9L313,225.31a37,37,0,0,1-2.33,8.27c-3.62-9.67-5.95-10.48-5.95-10.48s-3.49,24.81-9.2,30.64c-1.23-4.5-3.14-7.13-4.82-8.66A8.05,8.05,0,0,0,287,243s.08,7.64-5.26,13.13c-.77,2.59-1.79,6.3-3.1,8.39-4.28,6.82-6.67,9.53-10.58,11.28a6.5,6.5,0,0,1-2.76.12l-1.06-.07c-3.61-.17-8.56-.66-10.11-.93l-1.53-.26c-2.83.8-15.07,3.22-22.46.62h0a12.22,12.22,0,0,1-1.28-.52,10.33,10.33,0,0,1-1.49-.86c-2.69-1.85-4.42-4.77-5.73-8.4a24,24,0,0,1-2.33-1.75c-4.43-3.73-9.67-13.28-19.11-22.37-12.82,4.89-17.24,12-20.74,23.42-10.14-9.57-7.57-30.94-7.46-31.9l0,0c-.23.42-2,2.92-13.26,8.09,2.85-7.29-.11-16.89-1.66-21-3.85,2.86-7.64,6.22-8.24,8.68-.7-5.67-1.29-12-1.7-16.64a35.75,35.75,0,0,0-3.78,8.48c-2.61-22.64,3.1-36.49,8.22-44.05Z" />
      <path class="BUNTAI_WOLF_BODY_WOLF_BODY_35_cls-3" d="M325.12,175.15l-1.8-11.24,5.27-3.63-4.41-4.69-2.49-8.21-.56-.19-.26-5.77.48-2.87c.93-2,1.49-3.61,1.49-3.61l1.78-3.31,2.18-3.12h-2.63c1.95-1.22,3.56-4.41,3.56-4.41l-2.39-.45,2.93-2.87-3.34.07c1.91-1.93,3.22-8.14,3.3-8.53-.05.06-.57.75-3.63,5.09,2.28-3.42,3.74-9.85,3.82-10.25-.06.07-.64.77-3.94,4,4.76-8.93-.39-24.75-.39-24.75l-1.38,3.93c-.58-6.52-9.21-25-16.12-27.2s-8.37.52-10.35,9.15a37.6,37.6,0,0,1-2.68,7.82c-5.07,7.74-9,17.26-17,20.35-5.09,1.45-13.16-1.11-34.84-2.49s-30.51,1.73-30.51,1.73a28.61,28.61,0,0,1-7.67-5.37c-.58-.67-1.2-1.35-1.89-2l-.9-.91a36.86,36.86,0,0,1-3.09-4.16c-.32-.5-.92-.74-1.37-1.11l-.26.39c-4.4-4.77-7.13-8.68-8.77-14.3C185,64.46,183.31,62,175.46,64s-17.69,18.46-18.35,24.28l-1.57-3.51s-5.86,14.13-.44,22.1c-3.76-2.86-4.42-3.49-4.49-3.54.1.35,1.76,6.1,4.35,9.14-3.48-3.87-4.07-4.49-4.13-4.54.09.35,1.58,5.9,3.76,7.62l-3.81-.07,3.34,2.56-2.72.41a12.81,12.81,0,0,0,4,3.94h-3l2.48,2.78,2,3s.24.52.65,1.33c.28,6.43.56,10.91.56,10.91l-6.62,5.1s0,.7,4.76,2.29c-1.11,2.62-7.61,8.92-7.61,8.92s.91.29,8.89.75c-4.08,9.44-12.25,15.72-12.25,15.72l5.37,2.64.27,1.6c-14.18,25.73-7.61,43.13-7.61,43.13l3.84-7.89a137.79,137.79,0,0,1,1.64,16.05c3.5-24.59,28.2-36.47,28.2-36.47s1.4,2.45,4,6.64c5.59-19.81,17.12-18.32,17.12-18.32s-4.25-11.24.06-15.44c21.35,1.31,35.6,10,37.87,17.16,2.74,8.1.53,18.67-1.81,29.65-4.82,22.66,5,36.68,5,36.68,9.79-3.32,18.94-5.11,26.92-1.09,6.58-19.83-3.29-36.88-4.39-47.66-.69-6.69-.69-14.55,4.78-23.52s31.34-11,31.34-11,3.19,6.72,0,15.64c7.69,2.88,7.59,18.23,7.59,18.23s5.41-3,6.72-6.55c5.33,2.62,8.66,8.34,12.47,13-4.84-7.81-6.58-29.24-7.6-37C319.72,169.4,325.12,175.15,325.12,175.15Z" />
      <path class="BUNTAI_WOLF_BODY_WOLF_BODY_35_cls-4" d="M265.33,275.93h0c0,.4-.28,8.17-13.23,8.17-13.27,0-21-1-21.93-8.81" />
      <path class="BUNTAI_WOLF_BODY_WOLF_BODY_35_cls-4" d="M316,146.4a7.24,7.24,0,0,0,.91-.79,24.69,24.69,0,0,0,4.17-6.47c1.1-2.3,1.77-4.2,1.77-4.2l1.78-3.31,2.18-3.12h-2.63c1.95-1.22,3.56-4.41,3.56-4.41l-2.39-.45,2.93-2.87-3.34.07c1.91-1.93,3.22-8.14,3.3-8.53" />
      <path class="BUNTAI_WOLF_BODY_WOLF_BODY_35_cls-4" d="M328.24,112.29h0c-.05.06-.57.76-3.63,5.09,2.28-3.42,3.73-9.85,3.82-10.25" />
      <path class="BUNTAI_WOLF_BODY_WOLF_BODY_35_cls-4" d="M281.74,97.33a30.69,30.69,0,0,0-5.1,12.58,11.09,11.09,0,0,0-.11,1.11" />
      <path class="BUNTAI_WOLF_BODY_WOLF_BODY_35_cls-4" d="M328.43,107.13h0c-.06.07-.64.77-3.94,4,4.76-8.93-.39-24.76-.39-24.76l-1.38,3.93c-.58-6.52-9.21-25-16.12-27.19s-8.37.52-10.35,9.14-5.73,13.65-12.64,22.5c-.68.87-1.3,1.73-1.85,2.58" />
      <path class="BUNTAI_WOLF_BODY_WOLF_BODY_35_cls-4" d="M322.24,96c2.42,9.35,2.24,15.14,2.24,15.14" />
      <path class="BUNTAI_WOLF_BODY_WOLF_BODY_35_cls-4" d="M286,119.78s-1.27-13.16,3.48-22.72,7-14.21,8.64-21.87,5.74-12.1,10.05-8.24,11,17.8,13.76,27.85c.11.4.21.79.31,1.17" />
      <path class="BUNTAI_WOLF_BODY_WOLF_BODY_35_cls-4" d="M312.59,91.6h0a58.46,58.46,0,0,1-6.5,1.72,12.87,12.87,0,0,0,5.15-4.61" />
      <path class="BUNTAI_WOLF_BODY_WOLF_BODY_35_cls-4" d="M308.1,102.28h0c.22.15,3.77,2.52,5,2.73A16.06,16.06,0,0,1,309,99.5l4.58,1.21a46.21,46.21,0,0,1-4.9-4.45c5.93,0,7.64-2.77,7.64-2.77l-6.21.39,2.51-2.27" />
      <path class="BUNTAI_WOLF_BODY_WOLF_BODY_35_cls-4" d="M299.25,127.88s1,1.37,4.56-6.43,3-12.62,3-12.62l2.27,1.39-1.26-4.67,2.5,2.85-2.23-6.11" />
      <path class="BUNTAI_WOLF_BODY_WOLF_BODY_35_cls-4" d="M158.75,131.52a22.8,22.8,0,0,0,5,6.14,8.25,8.25,0,0,0,1,.71" />
      <path class="BUNTAI_WOLF_BODY_WOLF_BODY_35_cls-4" d="M150.83,107.93c.09.35,1.58,5.9,3.76,7.62l-3.81-.07,3.34,2.57-2.72.4a12.81,12.81,0,0,0,4,3.94h-3l2.48,2.78,2,3a36.94,36.94,0,0,0,1.79,3.37" />
      <path class="BUNTAI_WOLF_BODY_WOLF_BODY_35_cls-4" d="M150.61,103.33c.1.35,1.76,6.1,4.35,9.15-3.48-3.87-4.07-4.5-4.13-4.55h0" />
      <path class="BUNTAI_WOLF_BODY_WOLF_BODY_35_cls-4" d="M205.37,96.62a37.14,37.14,0,0,0-3.74-4.37c-7.87-7.89-12.14-12.39-14.39-20.09S183.31,62,175.46,64s-17.69,18.46-18.35,24.28l-1.57-3.51s-5.86,14.13-.44,22.1c-3.76-2.86-4.42-3.49-4.49-3.54h0" />
      <path class="BUNTAI_WOLF_BODY_WOLF_BODY_35_cls-4" d="M209.67,106.78a7.86,7.86,0,0,0-.12-1,22.8,22.8,0,0,0-4.18-9.16" />
      <path class="BUNTAI_WOLF_BODY_WOLF_BODY_35_cls-4" d="M192.9,91.08c-4.05-6.47-6.22-10.38-7.79-16.29-1.82-6.84-6.53-10.8-11.43-7.36S161.14,83.33,158,92.3s-2.91,14.57-2.91,14.57" />
      <path class="BUNTAI_WOLF_BODY_WOLF_BODY_35_cls-4" d="M198.9,114.61s1.45-11.76-4-20.29l-2-3.24" />
      <path class="BUNTAI_WOLF_BODY_WOLF_BODY_35_cls-4" d="M168.63,89.44h0c.35.08,5.95,1.47,7.39,1.54-4.43-1.93-5.86-4.12-5.86-4.12" />
      <path class="BUNTAI_WOLF_BODY_WOLF_BODY_35_cls-4" d="M173.74,99h0c-.25.13-4.29,2.24-5.64,2.43a14.93,14.93,0,0,0,4.67-4.93l-5.21,1.09a49.46,49.46,0,0,0,5.57-4c-6.74,0-8.69-2.47-8.69-2.47l7.07.35-2.85-2" />
      <path class="BUNTAI_WOLF_BODY_WOLF_BODY_35_cls-4" d="M183.82,121.83s-1.11,1.22-5.19-5.74-3.44-11.27-3.44-11.27l-2.59,1.25L174,101.9l-2.83,2.54L173.73,99" />
      <path class="BUNTAI_WOLF_BODY_WOLF_BODY_35_cls-4" d="M205.37,96.62h0c3.4,1.76,5.58,3.09,5.58,3.09s12.46-3.26,29.82-1.86,33.79,4.19,35.77,2.56a43.14,43.14,0,0,1,5.2-3.09h0" />
      <path class="BUNTAI_WOLF_BODY_WOLF_BODY_35_cls-4" d="M321.07,139.14c-.32,3.44-.53,5.63-.53,5.63l3.19,10.41,5.24,4.89-6.18,3.49s1.75,8.39,2,12.12c-5.94-7-8.39-7.22-8.39-7.22s4.08,26.44,5.95,30.87,2.68,6.53,2.68,6.53l-9.32-5.36s1.51,18.87,3.72,23.76l2.22,4.9L313,225.31a37,37,0,0,1-2.33,8.27c-3.62-9.67-5.95-10.48-5.95-10.48s-3.49,24.81-9.2,30.64c-1.23-4.5-3.14-7.13-4.82-8.66A8.05,8.05,0,0,0,287,243s.08,7.64-5.26,13.13" />
      <path class="BUNTAI_WOLF_BODY_WOLF_BODY_35_cls-4" d="M322.23,96a0,0,0,0,1,0,0h0" />
      <path class="BUNTAI_WOLF_BODY_WOLF_BODY_35_cls-4" d="M151.59,176.48l-.88-.68L145,173c7.22-5,12.93-15.14,12.93-15.14l-9.67-.7,8.15-9-5.71-2.33s1.52-.24,7.46-5.48c0-1.74.2-4.9.58-8.86h0" />
      <line class="BUNTAI_WOLF_BODY_WOLF_BODY_35_cls-4" x1="192.91" y1="91.08" x2="192.9" y2="91.08" />
      <path class="BUNTAI_WOLF_BODY_WOLF_BODY_35_cls-4" d="M160.38,196.65a68.27,68.27,0,0,0-13.23,15.4,35.75,35.75,0,0,0-3.78,8.48c-2.61-22.64,3.1-36.49,8.22-44.05A29.39,29.39,0,0,1,158.4,169" />
      <path class="BUNTAI_WOLF_BODY_WOLF_BODY_35_cls-4" d="M165.86,214.13s-4.43,2.62-8.77,5.88c-3.85,2.86-7.64,6.22-8.24,8.68-.7-5.67-1.29-12-1.7-16.64" />
      <path class="BUNTAI_WOLF_BODY_WOLF_BODY_35_cls-4" d="M172,232.91c-.11,1-2.68,22.33,7.46,31.9,3.5-11.42,7.92-18.53,20.74-23.42,9.44,9.09,14.68,18.64,19.11,22.37a24,24,0,0,0,2.33,1.75" />
      <path class="BUNTAI_WOLF_BODY_WOLF_BODY_35_cls-4" d="M157.09,220c1.55,4.14,4.51,13.74,1.66,21,11.3-5.17,13-7.67,13.26-8.09" />
      <path class="BUNTAI_WOLF_BODY_WOLF_BODY_35_cls-4" d="M252.63,274.68c-2.83.8-15.07,3.22-22.46.62h0a12.22,12.22,0,0,1-1.28-.52,10.33,10.33,0,0,1-1.49-.86c-2.69-1.85-4.42-4.77-5.73-8.4-1.55-4.31-2.5-9.62-3.73-15.3-2.45-11.27-11.71-17.65-11.71-17.65" />
      <path class="BUNTAI_WOLF_BODY_WOLF_BODY_35_cls-4" d="M292.4,272c.3.71,4.7,11.07,9.31,13.88l4.77,2.92s33.2,23.23,47.71,31.26,21.32,23.6,29,47,23.06,79.87,25.34,88.78c.35,1.37.69,2.86,1,4.4H348.28c-5.18-22.35-13.59-57.52-16.41-63.43-.51,15.73-3.63,43-4.41,63.43H109.69c-.91-18.36-5.4-39.85-4.88-63.43C99.19,410.57,91.06,440.58,86,460.26H25.61c9.71-52.89,41-123.56,49.34-133,9.4-10.63,52.23-31.21,52.23-31.21s34.77-12.66,38.59-42.5c.17-1.3,0,0-4.54,2.63,4.71-6.23,10.38-22.07,10.78-23.21l0,0v0" />
      <path class="BUNTAI_WOLF_BODY_WOLF_BODY_35_cls-4" d="M292.38,272l0,0c.1.15.74.73,4.41,0-6.5-9.42-6.64-20.75-6.1-26.89" />
      <path class="BUNTAI_WOLF_BODY_WOLF_BODY_35_cls-4" d="M286.27,269.87s-6.82,22.72-10.66,29.71l-2.62-4s-12.93,26.74-23.94,36.7l-3.15-7s-17.3,20.1-23.77,24.64c-26.73-14.85-32-25.86-32-25.86" />
      <path class="BUNTAI_WOLF_BODY_WOLF_BODY_35_cls-4" d="M283.91,240.08a60.77,60.77,0,0,1-2.14,16.07c-.77,2.59-1.79,6.3-3.1,8.39-4.28,6.82-6.67,9.53-10.58,11.28a6.5,6.5,0,0,1-2.76.12l-1.06-.07c-3.61-.17-8.56-.66-10.11-.93l-1.53-.26" />
      <path class="BUNTAI_WOLF_BODY_WOLF_BODY_35_cls-5" d="M265.33,256.75c-.14.54-.31,1.07-.5,1.59-1.67,4.58-5.22,8.36-12.2,7.19-7,1.17-10.53-2.61-12.19-7.19-.19-.52-.36-1-.5-1.59a22.77,22.77,0,0,1-.36-10.43c1.17-4.07,13-5.21,13-5.21s11.89,1.14,13.06,5.21A22.92,22.92,0,0,1,265.33,256.75Z" />
      <path class="BUNTAI_WOLF_BODY_WOLF_BODY_35_cls-4" d="M252.63,241.11s-11.88,1.14-13,5.21a22.77,22.77,0,0,0,.36,10.43c.14.54.31,1.07.5,1.59,1.66,4.58,5.22,8.36,12.19,7.19v-10.3" />
      <path d="M246.62,260a7.6,7.6,0,0,1-6.18-1.66c-.19-.52-.36-1-.5-1.59.17.05,3.7.94,4.54-1.76s2.45-3.9,4.11-2.14S251.11,259.14,246.62,260Z" />
      <path class="BUNTAI_WOLF_BODY_WOLF_BODY_35_cls-4" d="M252.63,255.23v10.3c7,1.17,10.53-2.61,12.2-7.19.19-.52.36-1,.5-1.59a22.92,22.92,0,0,0,.36-10.43c-1.17-4.07-13.06-5.21-13.06-5.21" />
      <path d="M265.33,256.75c-.14.54-.31,1.07-.5,1.59a7.61,7.61,0,0,1-6.18,1.66c-4.49-.86-3.63-5.39-2-7.15s3.25-.62,4.11,2.14S265.16,256.8,265.33,256.75Z" />
      <path class="BUNTAI_WOLF_BODY_WOLF_BODY_35_cls-6" d="M222.07,180.35c5.73,3.16,7.2,17.41,7.2,17.41s-2.11-4-6.26-4.45-10.58-2.71-12.39-7.12-4.83-5.31-4.83-5.31S216.34,177.18,222.07,180.35Z" />
      <path class="BUNTAI_WOLF_BODY_WOLF_BODY_35_cls-6" d="M290.91,180.88s-3,.9-4.83,5.31-8.25,6.63-12.39,7.12-6.26,4.45-6.26,4.45,1.47-14.25,7.2-17.41S290.91,180.88,290.91,180.88Z" />
      <path class="BUNTAI_WOLF_BODY_WOLF_BODY_35_cls-7" d="M229.27,197.76s-1.47-14.25-7.2-17.41-16.28.53-16.28.53,3,.9,4.83,5.31,8.25,6.63,12.39,7.12S229.27,197.76,229.27,197.76Z" />
      <path class="BUNTAI_WOLF_BODY_WOLF_BODY_35_cls-7" d="M267.43,197.76s1.47-14.25,7.2-17.41,16.28.53,16.28.53-3,.9-4.83,5.31-8.25,6.63-12.39,7.12S267.43,197.76,267.43,197.76Z" />
      <path d="M214.29,179.7s-4.65,1.52-3.66,6.11c-3.26-3.94-3.66-5-3.66-5A14.58,14.58,0,0,1,214.29,179.7Z" />
      <path d="M227,187.67a6.09,6.09,0,0,1-4.16,5.48c2.25.75,5.48,2.27,5.48,2.27S227.83,189.71,227,187.67Z" />
      <path d="M282.41,179.7s4.65,1.52,3.66,6.11c3.26-3.94,3.66-5,3.66-5A14.58,14.58,0,0,0,282.41,179.7Z" />
      <path d="M269.68,187.67a6.09,6.09,0,0,0,4.16,5.48c-2.25.75-5.48,2.27-5.48,2.27S268.87,189.71,269.68,187.67Z" />
      <g class="BUNTAI_WOLF_BODY_WOLF_BODY_35_cls-8">
        <path d="M284.39,275.93s-6.68,29.42-13.67,41.47c.7-11.18,0-12,0-12a73.48,73.48,0,0,1-16.08,34.42C241,355.68,228.43,373,228.43,373v-8.22S218.8,385.73,213,392c-21.38-25.58-31.71-33.79-41.38-49s-20.16-33.26-22.2-61.23c8.79-4,15.18-22.37,16.4-27.29l-3.23.84s7-14.31,9-20.78c.64,14.2,1,17.77,3.2,23.43,7.34-11.63,20.33-23.52,33.8-23.43,7.27,7.25,18.68,17.17,20.14,19.16a94.77,94.77,0,0,0,25.32,4.32c8.31,1,27.74-5.3,29.77-16.31,1.42-.7,8.32-3.94,8.32-3.94s4.15-2.59,8.23,5.43c-2.81,8.64-4.91,10-4.91,10s-2.58-7.42-4.48-7.77c-.41,7.6-3.05,17,1.81,27.64-4.4-3.09-6.59-3.18-6.59-3.18Z" />
        <path d="M158.17,240.57s8-9.44,11.42-12.58a29.05,29.05,0,0,1,8.39-5l-6.32,10.43a68.13,68.13,0,0,1-8.77,5.64C159.28,240.79,158.17,240.57,158.17,240.57Z" />
        <path d="M310.39,232.8s-3.15-8.1-6.64-10C308.38,222.86,311.35,220.11,310.39,232.8Z" />
        <path d="M283.56,240.08s-1.22-12.46-3.14-17.79c.56,11.71,2,20.73-3.47,34.47,5.3-7.22,7-12.23,7-12.23Z" />
        <path d="M199,113.83s2.11-8.89-2.52-16.69a180.31,180.31,0,0,1-9.76-18c-2.06-4.66-2.79-13.53-8.54-12.88s-10.91,6.12-16.46,18.27a98.9,98.9,0,0,0-7.25,22.37L152,105.55a66.55,66.55,0,0,0,.7,7.39c.57,3.32-.1,3.63.1,4.45s-1,1.2-.37,2.42a8.93,8.93,0,0,1,1,2.58c0,.38.78,2.43.78,2.43S160.79,136,164.76,139c10.17-10,19.06-17.07,19.06-17.07Z" />
        <path d="M306.4,65.82s7,14.44,7.35,18.05A27.59,27.59,0,0,1,310.83,90l.76,2.18-.08,1.66H314v1.1L311.33,96l-1.31.43,2.42,3.34-3.38.76,1.83,2.8-1.92.57.17,2.71-.32,2.53-1.13.18s-1.81,8.17-4,12.31a32.58,32.58,0,0,1-4.7,6.78s-11.4-5.73-13.17-9.57c.67-15.12,1.64-17.47,5.08-24.75s6-12.86,7.39-18.42,3.82-9.42,5.24-9.89A5.06,5.06,0,0,1,306.4,65.82Z" />
        <path d="M300.58,127.85s6.69-10,8.56-15.35c1.66.88,1.88,0,1.88,0l.27-3.28.65.66a1.48,1.48,0,0,0,.74-1.54l-.13-1.12a2,2,0,0,0,2-2.36,11.22,11.22,0,0,1,.65-4.37A52.43,52.43,0,0,1,317,118.4a181.74,181.74,0,0,1-3.45,23.24,57,57,0,0,0-13.57-13.19Z" />
        <path d="M74.75,460.26H25.61s2-18.61,15-55,27.73-69.4,33.35-76.67,29.44-20.51,47.85-29.87S150,282.27,150,282.27l6.76,4s1.36,67.57,14.72,85.75C152.91,356.67,152,354.5,152,354.5S134.87,377.92,133.12,408c-2.45-19.93-9.44-50.33-4.54-74.28-7.52,13.81-10.5,19.92-10.5,19.92S101.49,383,96.94,396.27s-17.53,64-17.53,64Z" />
        <path d="M332.44,398.2s12.83,24.46,13.53,29.61c-2.44-17.65-2.88-19.48-2.88-19.48s11.88,30.32,14.85,40.36,3.5,11.19,3.5,11.19l-13.16.38S335.07,404.67,332.44,398.2Z" />
        <path d="M331.38,399s-2.81,30.91-2.67,40.88a161.23,161.23,0,0,1-1.25,20.4h-15.3s5.68-29.22,11.62-45.64,7.6-17.48,7.6-17.48Z" />
      </g>
      <path class="BUNTAI_WOLF_BODY_WOLF_BODY_35_cls-9" d="M276.7,180.57a5.36,5.36,0,1,1-5.5,5.36A5.43,5.43,0,0,1,276.7,180.57Z" />
      <ellipse cx="276.59" cy="186.04" rx="2.65" ry="2.59" />
      <ellipse class="BUNTAI_WOLF_BODY_WOLF_BODY_35_cls-6" cx="274.87" cy="183.45" rx="1.21" ry="1.18" />
      <ellipse class="BUNTAI_WOLF_BODY_WOLF_BODY_35_cls-10" cx="276.7" cy="185.93" rx="5.49" ry="5.36" />
      <path class="BUNTAI_WOLF_BODY_WOLF_BODY_35_cls-9" d="M218,180.57a5.36,5.36,0,1,0,5.5,5.36A5.43,5.43,0,0,0,218,180.57Z" />
      <ellipse cx="218" cy="185.93" rx="2.65" ry="2.59" />
      <ellipse class="BUNTAI_WOLF_BODY_WOLF_BODY_35_cls-6" cx="216.28" cy="183.34" rx="1.21" ry="1.18" />
      <ellipse class="BUNTAI_WOLF_BODY_WOLF_BODY_35_cls-10" cx="218" cy="185.93" rx="5.49" ry="5.36" />
    </g>
  </g>
</svg>