<svg xmlns="http://www.w3.org/2000/svg" viewBox="0 0 432 432">
  <defs>
    <style>.BUNTAI_OTTER_OUTFIT_BUNTAI_OTTER_OUTFIT_19_cls-1{isolation:isolate;}.BUNTAI_OTTER_OUTFIT_BUNTAI_OTTER_OUTFIT_19_cls-2{fill:#5883dd;}.BUNTAI_OTTER_OUTFIT_BUNTAI_OTTER_OUTFIT_19_cls-3{fill:#eebe90;}.BUNTAI_OTTER_OUTFIT_BUNTAI_OTTER_OUTFIT_19_cls-4{fill:#0f0f18;}.BUNTAI_OTTER_OUTFIT_BUNTAI_OTTER_OUTFIT_19_cls-5{fill:#1b1b24;}.BUNTAI_OTTER_OUTFIT_BUNTAI_OTTER_OUTFIT_19_cls-6{fill:#200b3e;}.BUNTAI_OTTER_OUTFIT_BUNTAI_OTTER_OUTFIT_19_cls-7{fill:#fff;}.BUNTAI_OTTER_OUTFIT_BUNTAI_OTTER_OUTFIT_19_cls-8{fill:none;stroke:#000;stroke-linecap:round;stroke-linejoin:round;stroke-width:1.64px;}.BUNTAI_OTTER_OUTFIT_BUNTAI_OTTER_OUTFIT_19_cls-9{opacity:0.43;mix-blend-mode:multiply;}</style>
  </defs>
  <g class="BUNTAI_OTTER_OUTFIT_BUNTAI_OTTER_OUTFIT_19_cls-1">
    <g id="outfit">
      <path class="BUNTAI_OTTER_OUTFIT_BUNTAI_OTTER_OUTFIT_19_cls-2" d="M239.76,416.55a2.07,2.07,0,0,0,2.7-.22l1.26-1.37c.05,2.8-2.67,7.8-7.14,12.68s-9.4,8.21-12.45,8.68l-.07,0a1.63,1.63,0,0,0-.62-1.77l0,0a2.1,2.1,0,0,0-2.26-.1c-.06-2.8,2.66-8.08,7.13-13s9.4-8.21,12.46-8.68l-1.24,1.36A1.62,1.62,0,0,0,239.76,416.55Z" />
      <path class="BUNTAI_OTTER_OUTFIT_BUNTAI_OTTER_OUTFIT_19_cls-3" d="M251,407a14.13,14.13,0,0,1-1.75-1.25,10.07,10.07,0,0,1-1.1-1.06l-.53.56-.26.29h0l0,0,0,0-3.51,3.84a7.13,7.13,0,0,0-2.59-.37c-5.17.15-11.67,5.29-16,10.06-5.42,5.9-10,14-7,18.44L215.92,440a7.42,7.42,0,0,0-2.65-.41c-5.17.15-11.68,5.29-16.05,10.06-3.77,4.12-7.15,9.31-7.81,13.58,1.42-.19,2.81-.36,4.18-.51.87-2.92,3.27-7,6.75-10.74,4.46-4.88,9.4-8.21,12.45-8.68l.06,0-1.27,1.39a1.61,1.61,0,0,0,.26,2.42v0a2,2,0,0,0,2.68-.23l1.23-1.33c0,2.83-2.72,7.77-7.13,12.58-1.12,1.2-2.25,2.32-3.38,3.31,2.09-.19,4.1-.35,6-.5.17-.16.31-.32.45-.48a38.19,38.19,0,0,0,6.86-10c1.78-4.11,1.34-6.7.27-8.31l2.32-2.53a7.57,7.57,0,0,0,2.49.34c5.15-.16,11.65-5.3,16-10.07a38,38,0,0,0,6.85-10c1.81-4.17,1.34-6.77.24-8.38l3.61-3.94Zm-14.45,20.66c-.35.38-.7.76-1.06,1.11s-.62.63-.93.93c-.46.45-.93.88-1.4,1.29l-.29.26c-.76.67-1.51,1.27-2.25,1.81-.21.16-.4.3-.61.44-.62.44-1.23.83-1.81,1.17-.26.16-.52.3-.77.43s-.49.26-.73.37a2.83,2.83,0,0,1-.36.16c-.23.11-.46.2-.68.28a2.3,2.3,0,0,1-.34.12l-.32.1a3.78,3.78,0,0,1-.62.16l-.28.05-.07,0a1.62,1.62,0,0,0-.62-1.77h0a2.08,2.08,0,0,0-2.26-.11c-.06-2.8,2.66-8.08,7.13-13s9.4-8.2,12.46-8.67l-1.23,1.36a1.61,1.61,0,0,0,.24,2.43,2.07,2.07,0,0,0,2.7-.22l1.26-1.37C243.77,417.76,241.05,422.76,236.58,427.64Z" />
      <path class="BUNTAI_OTTER_OUTFIT_BUNTAI_OTTER_OUTFIT_19_cls-4" d="M306,310.73h0v0l-1.79-1.94s3.38-2.73,7.09,1.48l-1.61,4.37a100.22,100.22,0,0,1-6,12.55c-4.24,7.57-23.92,35.62-46.5,54.35-4.8,4.22-7.53,9.42-7.47,14.28a8.64,8.64,0,0,0,2.87,6.72,11,11,0,0,0,8.25,2.29c5.74-.52,11.79-4.47,17-11.11,9.74-12.36,38.3-45.94,56-56.16l1.23-.68,3.24-1.62c2.14,2.27,3.16,4.83,2,7.72l-2.78-2.32c-15.64,8.3-43.84,40.52-55.72,55.6C270.85,410.12,258.34,411.4,251,407a13.41,13.41,0,0,1-1.75-1.25,11.17,11.17,0,0,1-1.11-1.06c-5.68-6.16-4.24-17.68,5.68-26.35,21.39-17.72,40.8-44.75,45.51-53.14A90.09,90.09,0,0,0,306,310.73Z" />
      <path class="BUNTAI_OTTER_OUTFIT_BUNTAI_OTTER_OUTFIT_19_cls-5" d="M337.89,334.82c-.14-.14-.28-.28-.43-.41l-.37-.34c-.33-.29-.68-.58-1.06-.87h0l0,0h0c-.42-.33-.86-.64-1.31-1a53.08,53.08,0,0,0-4.77-2.91c-.56-.3-1.11-.64-1.67-1a50,50,0,0,1-9.66-8.56,63.79,63.79,0,0,1-6.1-7.95,14.2,14.2,0,0,0-1.17-1.55l-1.61,4.38a103.54,103.54,0,0,1-6,12.54l-.25.44c-.08.15-.18.31-.28.47s-.2.33-.31.51l-.26.43c-.37.6-.79,1.27-1.25,2l-.45.69c-.56.84-1.17,1.75-1.83,2.72l-.41.58c-1.31,1.9-2.81,4-4.5,6.3-.21.28-.42.57-.65.86s-.5.68-.76,1l-.79,1.05-1.65,2.14c-.23.31-.48.62-.73.93-2,2.6-4.23,5.32-6.57,8.09-.75.89-1.51,1.79-2.3,2.7L279,360c-1.31,1.48-2.66,3-4,4.45q-.64.71-1.32,1.41c-2.51,2.69-5.13,5.34-7.82,7.91l-1.71,1.6c-.56.53-1.14,1.05-1.71,1.57s-1.07,1-1.61,1.45c-1.2,1.06-2.4,2.1-3.63,3.11-4.81,4.22-7.53,9.43-7.47,14.28a8.64,8.64,0,0,0,2.87,6.72,11.07,11.07,0,0,0,8.26,2.3c5.73-.53,11.78-4.48,17-11.12.64-.82,1.37-1.72,2.17-2.7l1.05-1.3c1.9-2.33,4.14-5,6.64-7.95l1.33-1.56c2.85-3.31,6-6.86,9.28-10.47.21-.23.41-.46.64-.69s.21-.24.32-.35l1.38-1.5a.23.23,0,0,1,.07-.07.13.13,0,0,1,.06-.07l.06-.07h0c3.28-3.53,6.68-7.07,10.09-10.44.54-.54,1.07-1.07,1.61-1.59l1.4-1.35c.51-.49,1-1,1.53-1.45L317,350.7c.67-.61,1.33-1.23,2-1.82.83-.75,1.66-1.48,2.48-2.19l1.46-1.24c.62-.52,1.24-1,1.85-1.53a74.93,74.93,0,0,1,9-6.39c.41-.24.82-.47,1.22-.68l3.25-1.62C338.16,335.09,338,335,337.89,334.82ZM261,399.28a4.89,4.89,0,1,1,5.38-4.87A5.15,5.15,0,0,1,261,399.28Zm9.9-14.15a2.18,2.18,0,1,1,2.39-2.16A2.29,2.29,0,0,1,270.9,385.13Zm20.29-27.92a4.9,4.9,0,1,1-5.39,4.88A5.14,5.14,0,0,1,291.19,357.21Zm-12.4,18.4a.28.28,0,0,1-.11-.08.46.46,0,0,1-.15-.09,2.47,2.47,0,0,1-.5-.52,1,1,0,0,1-.13-.23,1,1,0,0,1-.13-.29,3,3,0,0,1-.08-.32,1.63,1.63,0,0,1,0-.31,2,2,0,0,1,.13-.68,1.36,1.36,0,0,1,.11-.25.62.62,0,0,1,.1-.17,1.44,1.44,0,0,1,.18-.25l0,0a1.75,1.75,0,0,1,.24-.23,0,0,0,0,1,0,0,1.1,1.1,0,0,1,.14-.09.23.23,0,0,1,.12-.08,2,2,0,0,1,.49-.23,1.47,1.47,0,0,1,.28-.08l.12,0a3.27,3.27,0,0,1,.45,0,2.18,2.18,0,1,1,0,4.34l-.28,0a1.09,1.09,0,0,1-.26,0,1.11,1.11,0,0,1-.26-.07,1.34,1.34,0,0,1-.24-.09Zm23-23.72a2.31,2.31,0,0,1-2.46-2.11,2.28,2.28,0,0,1,2.35-2.22,2.18,2.18,0,1,1,.11,4.33Zm8.91-9.41a2.31,2.31,0,0,1-2.45-2.12,2.27,2.27,0,0,1,2.33-2.22,2.32,2.32,0,0,1,2.46,2.12A2.29,2.29,0,0,1,310.7,342.48Zm10.63-11.38a1.47,1.47,0,0,1-.1.22,1,1,0,0,1-.14.24l0,.05a1.7,1.7,0,0,1-.29.31.16.16,0,0,1-.07.07.57.57,0,0,1-.15.12l-.12.08-.27.15-.29.11a2.68,2.68,0,0,1-.75.13,2.33,2.33,0,0,1-2.47-2.11v-.05a2.11,2.11,0,0,1,0-.26,1.74,1.74,0,0,1,.05-.22,1.13,1.13,0,0,1,0-.15l.06-.17a2.5,2.5,0,0,1,.23-.39l.13-.17.16-.15a1.84,1.84,0,0,1,.34-.27l.19-.11.18-.09a3.06,3.06,0,0,1,.63-.17l.32,0a2.31,2.31,0,0,1,2.46,2.11v.15a.78.78,0,0,1,0,.22,3,3,0,0,1-.08.32h0S321.34,331.09,321.33,331.1Z" />
      <path class="BUNTAI_OTTER_OUTFIT_BUNTAI_OTTER_OUTFIT_19_cls-2" d="M358.41,357.39a80.66,80.66,0,0,1-28.7,39.33c0,.4-.08.8-.14,1.19-.09.63-.21,1.26-.35,1.89-.05.2-.09.39-.15.59-.09.36-.19.71-.31,1.05a.75.75,0,0,1-.05.16,5.54,5.54,0,0,1-.21.57.58.58,0,0,1-.05.14c-.07.19-.15.37-.23.55s-.09.22-.14.33-.21.42-.32.63a2.37,2.37,0,0,1-.19.34c-.12.22-.25.44-.39.65a57.65,57.65,0,0,1,.61,8.32c0,.27,0,.54,0,.84v.15l0,1.13-.06,1.17c0,.47-.07.94-.11,1.41,0,.2,0,.4-.07.61s0,.46-.07.69c0,.05,0,.1,0,.15,0,.29-.07.59-.1.89s-.1.68-.16,1a45.53,45.53,0,0,1-4.05,12.9c-4,8.11-10.87,16-22.08,22.72-19.27,6.78-29.59,5-48.26,3.85a292.31,292.31,0,0,0-41.49.34c.17-.16.31-.32.45-.48a38.19,38.19,0,0,0,6.86-10c1.78-4.11,1.34-6.7.27-8.31l2.32-2.53a7.57,7.57,0,0,0,2.49.34c5.15-.16,11.65-5.3,16-10.07a38,38,0,0,0,6.85-10c1.81-4.17,1.34-6.77.24-8.38l3.61-3.94.64-.7a16.83,16.83,0,0,0,10.21,2.2,22.35,22.35,0,0,0,6.89-1.8l.16-.07c4.46-2,9.11-5.5,13.5-11.08s11.06-13.55,18.48-21.77c12.59-13.92,27.4-28.61,37.24-33.83.91.77,1.84,1.54,2.78,2.32h0c2.83,2.36,5.8,4.86,9.14,7.75A68.38,68.38,0,0,0,358.41,357.39Z" />
      <path class="BUNTAI_OTTER_OUTFIT_BUNTAI_OTTER_OUTFIT_19_cls-2" d="M306,310.72a90.24,90.24,0,0,1-6.66,14.47c-3.22,5.73-13.32,20.18-26.22,34.42l-.08.08a190.66,190.66,0,0,1-19.21,18.63,30.68,30.68,0,0,0-4.14,4.38,26.29,26.29,0,0,0-2,2.9c-.13.23-.26.46-.38.69l0,0a22.06,22.06,0,0,0-1.48,3.43c-1.93,5.71-1.07,11.25,2.31,14.9l-.53.56-.26.29h0l0,0-3.55,3.87a7.13,7.13,0,0,0-2.59-.37c-5.17.15-11.67,5.29-16,10.06-5.42,5.9-10,14-7,18.44L215.92,440a7.42,7.42,0,0,0-2.65-.41c-5.17.15-11.68,5.29-16.05,10.06-3.77,4.12-7.15,9.31-7.81,13.58-1.49.18-3,.37-4.56.59a126.88,126.88,0,0,1-28.58.79c-12.27-1.14-20.55-4.08-24.85-6l-.1-.05a29,29,0,0,1-3.41-1.75c-1.73-1-3.36-2.1-4.88-3.21a.43.43,0,0,0,0-.05.14.14,0,0,1,0-.06l.13-.34a2.11,2.11,0,0,1,.08-.22c.07-.18.15-.4.26-.65a4.92,4.92,0,0,1,.21-.5c.07-.18.15-.36.24-.56s.18-.42.28-.64a92.25,92.25,0,0,1,6.12-11.24c.28-.45.57-.9.88-1.36,2.13-3.29,4.77-7,8-11l.49-.59c2.51-3.09,5.37-6.37,8.63-9.76l.47-.48,1.33-1.37c.89-.91,1.83-1.83,2.78-2.75l.26-.25c1.33-1.28,2.72-2.59,4.17-3.9l1.46-1.32,1.51-1.32c1-.88,2.06-1.77,3.12-2.66.54-.45,1.08-.9,1.63-1.34s1.1-.9,1.66-1.35l1.7-1.34c.56-.44,1.13-.89,1.7-1.32s1.29-1,2-1.48l1.71-1.26,1.57-1.15c.52-.38,1-.76,1.59-1.13.84-.6,1.7-1.2,2.57-1.8,11.69-8,29-16.64,47.41-26.6,1.39-.74,2.79-1.51,4.2-2.28l2.24-1.22,2.15-1.19,2.16-1.21,1.92-1.08.31-.17c1.78-1,3.55-2,5.33-3.06l.9-.53c1-.58,2-1.18,3-1.78l2.66-1.6.91-.56,2.13-1.31c3.48-2.16,6.93-4.38,10.3-6.67.75-.5,1.48-1,2.22-1.51,1-.68,2-1.36,2.92-2.06s1.81-1.3,2.71-1.95l.51-.39q1.08-.79,2.16-1.62c1.06-.79,2.11-1.6,3.15-2.44.83-.64,1.63-1.29,2.44-1.95.3-.24.59-.49.89-.75.6-.48,1.2-1,1.79-1.5a4,4,0,0,0,.39-.33c.85-.72,1.7-1.46,2.53-2.2s1.49-1.34,2.22-2,1.43-1.34,2.12-2l.08-.08c.7-.66,1.37-1.33,2-2,2.36-2.37,4.61-4.8,6.71-7.31.5-.59,1-1.18,1.46-1.78l0-.05c.49-.6,1-1.2,1.42-1.8.15.15.28.3.42.45l.85.9,1.78,2Z" />
      <path class="BUNTAI_OTTER_OUTFIT_BUNTAI_OTTER_OUTFIT_19_cls-3" d="M319,328.25a2.27,2.27,0,0,0-2.33,2.22,2.31,2.31,0,0,0,2.46,2.11,2.27,2.27,0,0,0,2.33-2.22A2.3,2.3,0,0,0,319,328.25Z" />
      <path class="BUNTAI_OTTER_OUTFIT_BUNTAI_OTTER_OUTFIT_19_cls-3" d="M301.67,347.56a2.27,2.27,0,0,0-2.33,2.22,2.3,2.3,0,0,0,2.46,2.11,2.27,2.27,0,0,0,2.33-2.22A2.3,2.3,0,0,0,301.67,347.56Z" />
      <path class="BUNTAI_OTTER_OUTFIT_BUNTAI_OTTER_OUTFIT_19_cls-3" d="M261,389.55a4.89,4.89,0,1,0,5.38,4.86A5.15,5.15,0,0,0,261,389.55Z" />
      <path class="BUNTAI_OTTER_OUTFIT_BUNTAI_OTTER_OUTFIT_19_cls-3" d="M310.58,338.14a2.27,2.27,0,0,0-2.33,2.22,2.3,2.3,0,0,0,2.46,2.11,2.27,2.27,0,0,0,2.33-2.22A2.31,2.31,0,0,0,310.58,338.14Z" />
      <path class="BUNTAI_OTTER_OUTFIT_BUNTAI_OTTER_OUTFIT_19_cls-3" d="M324.08,317.19a7,7,0,0,0-5.51,2.55,49.74,49.74,0,0,0,9.66,8.56,6,6,0,0,0,2.7-4.92C330.93,320,327.87,317.19,324.08,317.19Z" />
      <path class="BUNTAI_OTTER_OUTFIT_BUNTAI_OTTER_OUTFIT_19_cls-3" d="M280.06,371.61a2.18,2.18,0,1,0,2.4,2.16A2.29,2.29,0,0,0,280.06,371.61Z" />
      <path class="BUNTAI_OTTER_OUTFIT_BUNTAI_OTTER_OUTFIT_19_cls-3" d="M270.9,380.8a2.18,2.18,0,1,0,2.39,2.17A2.3,2.3,0,0,0,270.9,380.8Z" />
      <path class="BUNTAI_OTTER_OUTFIT_BUNTAI_OTTER_OUTFIT_19_cls-3" d="M291.18,357.22a4.89,4.89,0,1,0,5.38,4.87A5.14,5.14,0,0,0,291.18,357.22Z" />
      <path class="BUNTAI_OTTER_OUTFIT_BUNTAI_OTTER_OUTFIT_19_cls-6" d="M377.63,364.11c-4,23.35-23.48,45.07-50.45,57.07h0c.06-.34.11-.68.16-1s.09-.69.12-1a47.71,47.71,0,0,0,.34-5.16c0-.3,0-.57,0-.84a57.65,57.65,0,0,0-.61-8.32c.14-.21.27-.43.39-.65a12.88,12.88,0,0,0,.93-2,20.74,20.74,0,0,0,1.21-5.45,80.66,80.66,0,0,0,28.7-39.33,51.33,51.33,0,0,0,10.2,4.94A27.08,27.08,0,0,0,377.63,364.11Z" />
      <path class="BUNTAI_OTTER_OUTFIT_BUNTAI_OTTER_OUTFIT_19_cls-6" d="M301.77,305.47c-.37.5,1.57,1.42,1.18,1.93s-.93,1.2-1.42,1.8l0,.05c-.48.6-1,1.19-1.46,1.78-2.1,2.51-4.35,4.94-6.71,7.31-.66.68-1.34,1.35-2,2l-.08.08-2.12,2c-.73.67-1.47,1.35-2.22,2a2.75,2.75,0,0,1-.26.22c-.74.67-1.5,1.33-2.27,2a4,4,0,0,1-.39.33c-.59.51-1.19,1-1.79,1.5-.3.26-.59.51-.89.75-.81.66-1.61,1.3-2.44,1.95-1,.84-2.09,1.65-3.15,2.44q-1.08.83-2.16,1.62l-.51.39-2.71,1.95c-1,.7-1.94,1.38-2.92,2.06-.74.51-1.47,1-2.22,1.51-3.37,2.29-6.82,4.51-10.3,6.67l-2.13,1.31-.91.56c-.88.54-1.77,1.07-2.66,1.6s-2,1.2-3,1.78l-.9.53c-1.57.91-3.15,1.82-4.72,2.7l-.61.36-.31.17-1.92,1.08-2.16,1.21-2.15,1.19-2.24,1.22-4.2,2.28c-18.45,10-35.72,18.57-47.41,26.6-.87.6-1.73,1.2-2.57,1.8-.54.38-1.07.75-1.59,1.13l-1.57,1.15-1.71,1.26c-.66.49-1.31,1-2,1.48s-1.14.88-1.7,1.32l-1.7,1.34c-.56.45-1.12.9-1.66,1.35s-1.09.89-1.63,1.34c-1.06.89-2.11,1.78-3.12,2.66l-1.51,1.32-1.46,1.32c-1.44,1.31-2.84,2.62-4.17,3.9l-.26.25c-1,.92-1.89,1.84-2.78,2.75-.45.46-.9.91-1.33,1.37l-.47.48c-3.26,3.39-6.12,6.67-8.63,9.76l-.49.59c-3.2,4-5.84,7.7-8,11-.31.46-.6.91-.88,1.36a92.25,92.25,0,0,0-6.12,11.24c-.1.22-.2.43-.28.64s-.17.38-.24.56a4.92,4.92,0,0,0-.21.5c-.11.25-.19.47-.26.65a2.11,2.11,0,0,0-.08.22l-.13.34a.14.14,0,0,0,0,.06.43.43,0,0,1,0,.05,55.69,55.69,0,0,1-12.9-12.43h0a1,1,0,0,0,.06-.15c.06-.11.14-.28.24-.5a1.51,1.51,0,0,1,.09-.18c.21-.46.53-1.1.94-1.89l.33-.63c.55-1,1.24-2.29,2.08-3.74l.64-1.09c.33-.55.69-1.14,1.07-1.75l.38-.61c1.7-2.72,3.82-5.89,6.39-9.38.37-.5.75-1,1.14-1.53,2.4-3.19,5.17-6.63,8.34-10.23.39-.45.78-.9,1.18-1.34q3.74-4.2,8.2-8.63l2-2c.7-.66,1.4-1.34,2.12-2,2.07-1.93,4.23-3.88,6.51-5.84.56-.49,1.15-1,1.73-1.47q3.69-3.12,7.77-6.25l1.44-1.1c.67-.51,1.34-1,2-1.51l2-1.48,2.08-1.47,2.11-1.47q2.35-1.62,5-3.27c1-.6,1.95-1.21,3-1.82,5.17-3.11,11-6.32,17.26-9.68l2.1-1.13,2.13-1.13.91-.49c-26.48-14.33-55.31-31.43-73.51-53.6-.64-.77,2.78-2.47,2.16-3.25h0l3.62-6.9,2.32-6.25c20.39,26.11,54.41,44.17,84.18,60,27.46-14.89,56.29-32.42,74-55.89l3.93,8.85Z" />
      <path class="BUNTAI_OTTER_OUTFIT_BUNTAI_OTTER_OUTFIT_19_cls-6" d="M101.75,404.79h0a15.78,15.78,0,0,1-2.21-5.84h0C71.75,383,63.63,357.39,63.63,357.39,50.84,364.44,42,364.12,42,364.12c4.64,24.13,27.34,52.17,59.86,57.67A54.24,54.24,0,0,1,101.75,404.79Z" />
      <path class="BUNTAI_OTTER_OUTFIT_BUNTAI_OTTER_OUTFIT_19_cls-7" d="M201.42,357.39l-.91.49c-11.44,6.09-21.68,11.69-29.46,17a218.78,218.78,0,0,0-25.69,20.59c-23,21.53-32.85,40.65-34.84,44.83-.25.5-.37.79-.39.83a44.71,44.71,0,0,1-7.39-15.42c-.35-1.32-.64-2.64-.87-3.95a54.48,54.48,0,0,1-.12-17v0a12.66,12.66,0,0,1-1.18-2.25,18.77,18.77,0,0,1-1-3.59h0c-1-.57-1.94-1.15-2.89-1.74q-2.1-1.31-4-2.69c-22.22-15.81-29-37.12-29-37.12a78.82,78.82,0,0,0,10.1-6.68c17.91-13.84,28.85-22.39,53.83-46.59l.35-.33C146.11,326,174.94,343.06,201.42,357.39Z" />
      <path class="BUNTAI_OTTER_OUTFIT_BUNTAI_OTTER_OUTFIT_19_cls-8" d="M301.77,305.47A7.77,7.77,0,0,1,303,307.4c-.47.6-.93,1.2-1.42,1.8l0,.05c-.48.6-1,1.19-1.46,1.78-2.1,2.51-4.35,4.94-6.71,7.31-.66.68-1.33,1.35-2,2l-.08.08c-.69.67-1.4,1.34-2.12,2s-1.47,1.35-2.22,2-1.68,1.48-2.53,2.2a4,4,0,0,1-.39.33c-.59.51-1.19,1-1.79,1.5-.3.26-.59.51-.89.75-.81.66-1.61,1.31-2.44,1.95-1,.84-2.09,1.65-3.15,2.44q-1.08.83-2.16,1.62l-.51.39c-.9.65-1.8,1.31-2.71,1.95s-1.94,1.38-2.92,2.06c-.74.51-1.47,1-2.22,1.51-3.37,2.29-6.82,4.51-10.3,6.67l-2.13,1.31-.91.56-2.66,1.6c-1,.6-2,1.2-3,1.78l-.9.53c-1.78,1-3.55,2.05-5.33,3.06l-.31.17-1.92,1.08-2.16,1.21-2.15,1.19-2.24,1.22c-1.41.77-2.81,1.54-4.2,2.28-18.45,10-35.72,18.57-47.41,26.6-.87.6-1.73,1.2-2.57,1.8-.54.37-1.07.75-1.59,1.13l-1.57,1.15-1.71,1.26c-.66.49-1.31,1-2,1.48s-1.14.87-1.7,1.32-1.14.89-1.7,1.34-1.12.89-1.66,1.35-1.1.88-1.63,1.34c-1.06.88-2.11,1.77-3.12,2.66l-1.51,1.32c-.5.44-1,.88-1.46,1.32-1.45,1.31-2.84,2.62-4.17,3.9l-.26.25c-1,.92-1.89,1.84-2.78,2.75l-1.33,1.37-.47.48c-3.26,3.39-6.12,6.67-8.63,9.76l-.49.59c-3.2,4-5.84,7.7-8,11-.31.46-.6.91-.88,1.36a92.25,92.25,0,0,0-6.12,11.24c-.1.22-.2.43-.28.64s-.17.38-.24.56a4.92,4.92,0,0,0-.21.5c-.11.25-.19.47-.26.65a2.11,2.11,0,0,0-.08.22l-.13.34a.14.14,0,0,0,0,.06.43.43,0,0,1,0,.05h0" />
      <path class="BUNTAI_OTTER_OUTFIT_BUNTAI_OTTER_OUTFIT_19_cls-8" d="M110.13,441.17h0c.23-.53,15.39-35,60.91-66.25,8-5.49,18.58-11.24,30.38-17.52,6-3.2,12.33-6.52,18.77-10,27.47-14.88,56.29-32.41,74-55.88" />
      <path class="BUNTAI_OTTER_OUTFIT_BUNTAI_OTTER_OUTFIT_19_cls-8" d="M201.42,357.39c-26.48-14.33-55.31-31.43-73.51-53.6" />
      <path class="BUNTAI_OTTER_OUTFIT_BUNTAI_OTTER_OUTFIT_19_cls-8" d="M136,287.4c20.39,26.09,54.41,44.16,84.18,60" />
      <polyline class="BUNTAI_OTTER_OUTFIT_BUNTAI_OTTER_OUTFIT_19_cls-8" points="294.15 291.48 298.08 300.32 301.77 305.47" />
      <polyline class="BUNTAI_OTTER_OUTFIT_BUNTAI_OTTER_OUTFIT_19_cls-8" points="136.01 287.39 133.69 293.64 130.07 300.54 130.07 300.54" />
      <path class="BUNTAI_OTTER_OUTFIT_BUNTAI_OTTER_OUTFIT_19_cls-8" d="M127.91,303.79l-.35.33c-25,24.2-35.92,32.75-53.83,46.59a78.82,78.82,0,0,1-10.1,6.68,61,61,0,0,1-10.71,4.7l-.11,0a34.69,34.69,0,0,1-10.8,2c.14.76.31,1.52.48,2.27C45.6,379.5,53.86,393.51,66,404.27a1.37,1.37,0,0,0,.18.16A75,75,0,0,0,85.1,416.69c.67.3,1.33.58,2,.86h0c1.07.44,2.15.86,3.25,1.25,2.09.73,4.22,1.38,6.41,1.92h0c1.42.35,2.86.66,4.32.92l.73.13" />
      <path class="BUNTAI_OTTER_OUTFIT_BUNTAI_OTTER_OUTFIT_19_cls-8" d="M63.63,357.39S71.75,383,99.52,398.94" />
      <path class="BUNTAI_OTTER_OUTFIT_BUNTAI_OTTER_OUTFIT_19_cls-8" d="M303,307.4l.42.45.85.9,1.78,2h0" />
      <path class="BUNTAI_OTTER_OUTFIT_BUNTAI_OTTER_OUTFIT_19_cls-8" d="M327.16,421.19h0c27-12,46.46-33.72,50.45-57.07a27.08,27.08,0,0,1-9-1.78,51.33,51.33,0,0,1-10.2-4.94,68.38,68.38,0,0,1-9-6.68c-3.34-2.89-6.31-5.39-9.14-7.75" />
      <path class="BUNTAI_OTTER_OUTFIT_BUNTAI_OTTER_OUTFIT_19_cls-8" d="M337.51,340.63l2.78,2.32" />
      <path class="BUNTAI_OTTER_OUTFIT_BUNTAI_OTTER_OUTFIT_19_cls-8" d="M329.71,396.73a80.63,80.63,0,0,0,28.7-39.34" />
      <path class="BUNTAI_OTTER_OUTFIT_BUNTAI_OTTER_OUTFIT_19_cls-8" d="M101.75,404.78A75.52,75.52,0,0,1,111,378.32" />
      <path class="BUNTAI_OTTER_OUTFIT_BUNTAI_OTTER_OUTFIT_19_cls-8" d="M101.75,404.8a54.48,54.48,0,0,0,.12,17c.12.66.25,1.31.39,2,0,.29.13.57.2.87a2.61,2.61,0,0,0,.06.27c.06.28.14.55.22.84s.16.61.24.92c0,0,0,0,0,0,.17.61.36,1.22.56,1.82.38,1.14.8,2.27,1.29,3.4.11.28.24.56.36.84s.34.73.51,1.09a44.91,44.91,0,0,0,2.56,4.6c.17.27.34.55.53.81.41.64.86,1.27,1.32,1.89h0A55.69,55.69,0,0,0,123,453.6c1.52,1.11,3.15,2.17,4.88,3.21a29,29,0,0,0,3.41,1.75l.1.05a63.12,63.12,0,0,0,7.42,2.72c.41.12.82.25,1.25.36l.08,0c.48.14,1,.27,1.48.4l.8.2c1.44.36,3,.7,4.64,1l2.29.4c2,.33,4.1.61,6.36.83l.53.05,1.34.11q1.06.09,2.16.15l1.11.06c.24,0,.47,0,.71,0s.67,0,1,0a132,132,0,0,0,22.25-1.18c1.55-.22,3.07-.41,4.56-.59s2.81-.36,4.18-.51q6.16-.74,11.66-1.22c2.09-.19,4.1-.35,6-.5a292.31,292.31,0,0,1,41.49-.34c18.67,1.12,29,2.93,48.26-3.85,11.21-6.73,18.1-14.61,22.08-22.72a45.53,45.53,0,0,0,4.05-12.9c.06-.34.11-.68.16-1s.08-.6.1-.89c0,0,0-.1,0-.15,0-.23.05-.46.07-.69s.05-.41.07-.61c0-.47.08-.94.11-1.41l.06-1.17,0-1.13V414c0-.29,0-.57,0-.84a57.65,57.65,0,0,0-.61-8.32,75.5,75.5,0,0,0-9.26-26.49" />
      <path class="BUNTAI_OTTER_OUTFIT_BUNTAI_OTTER_OUTFIT_19_cls-8" d="M99.77,385.53a39.7,39.7,0,0,0-.23,13.41,15.78,15.78,0,0,0,2.21,5.84h0" />
      <path class="BUNTAI_OTTER_OUTFIT_BUNTAI_OTTER_OUTFIT_19_cls-8" d="M329.16,385.53a42,42,0,0,1,.55,11.2,17.82,17.82,0,0,1-2.53,8.07" />
      <path class="BUNTAI_OTTER_OUTFIT_BUNTAI_OTTER_OUTFIT_19_cls-8" d="M338.29,335.23l-3.24,1.62-1.23.68c-17.68,10.22-46.24,43.8-56,56.16-5.22,6.64-11.27,10.59-17,11.11a11,11,0,0,1-8.25-2.29,8.64,8.64,0,0,1-2.87-6.72c-.06-4.86,2.67-10.06,7.47-14.28,22.58-18.73,42.26-46.78,46.5-54.35a100.22,100.22,0,0,0,6-12.55l1.61-4.37" />
      <path class="BUNTAI_OTTER_OUTFIT_BUNTAI_OTTER_OUTFIT_19_cls-8" d="M306,310.72h0a90.09,90.09,0,0,1-6.66,14.45c-4.71,8.39-24.12,35.42-45.51,53.14-9.92,8.67-11.36,20.19-5.68,26.35a11.17,11.17,0,0,0,1.11,1.06A13.41,13.41,0,0,0,251,407c7.31,4.42,19.82,3.14,30.76-10.75,11.88-15.08,40.08-47.3,55.72-55.6" />
      <path class="BUNTAI_OTTER_OUTFIT_BUNTAI_OTTER_OUTFIT_19_cls-8" d="M304.21,308.76s3.38-2.73,7.09,1.48a13.29,13.29,0,0,1,1.17,1.55,63.79,63.79,0,0,0,6.1,7.95,49.74,49.74,0,0,0,9.66,8.56c.56.36,1.11.7,1.67,1a34.74,34.74,0,0,1,8.39,5.93c2.14,2.27,3.16,4.83,2,7.72h0" />
      <path class="BUNTAI_OTTER_OUTFIT_BUNTAI_OTTER_OUTFIT_19_cls-8" d="M328.23,328.3a6,6,0,0,0,2.7-4.92c0-3.41-3.06-6.19-6.85-6.19a7,7,0,0,0-5.51,2.55" />
      <path class="BUNTAI_OTTER_OUTFIT_BUNTAI_OTTER_OUTFIT_19_cls-8" d="M266.38,394.41a5.41,5.41,0,1,1-5.38-4.86A5.14,5.14,0,0,1,266.38,394.41Z" />
      <path class="BUNTAI_OTTER_OUTFIT_BUNTAI_OTTER_OUTFIT_19_cls-8" d="M273.29,383a2.41,2.41,0,1,1-2.39-2.17A2.28,2.28,0,0,1,273.29,383Z" />
      <path class="BUNTAI_OTTER_OUTFIT_BUNTAI_OTTER_OUTFIT_19_cls-8" d="M282.46,373.77a2.41,2.41,0,1,1-2.4-2.17A2.3,2.3,0,0,1,282.46,373.77Z" />
      <path class="BUNTAI_OTTER_OUTFIT_BUNTAI_OTTER_OUTFIT_19_cls-8" d="M304.13,349.67a2.27,2.27,0,0,1-2.33,2.22,2.3,2.3,0,0,1-2.46-2.11,2.27,2.27,0,0,1,2.33-2.22A2.3,2.3,0,0,1,304.13,349.67Z" />
      <path class="BUNTAI_OTTER_OUTFIT_BUNTAI_OTTER_OUTFIT_19_cls-8" d="M321.45,330.36a2.27,2.27,0,0,1-2.33,2.22,2.31,2.31,0,0,1-2.46-2.11,2.27,2.27,0,0,1,2.33-2.22A2.3,2.3,0,0,1,321.45,330.36Z" />
      <path class="BUNTAI_OTTER_OUTFIT_BUNTAI_OTTER_OUTFIT_19_cls-8" d="M313,340.25a2.27,2.27,0,0,1-2.33,2.22,2.3,2.3,0,0,1-2.46-2.11,2.27,2.27,0,0,1,2.33-2.22A2.31,2.31,0,0,1,313,340.25Z" />
      <path class="BUNTAI_OTTER_OUTFIT_BUNTAI_OTTER_OUTFIT_19_cls-8" d="M296.56,362.09a5.41,5.41,0,1,1-5.38-4.87A5.14,5.14,0,0,1,296.56,362.09Z" />
      <path class="BUNTAI_OTTER_OUTFIT_BUNTAI_OTTER_OUTFIT_19_cls-8" d="M243.82,409.42a7.41,7.41,0,0,0-2.6-.37c-5.17.15-11.67,5.29-16,10.06-5.41,5.9-10,14-7,18.44l0,0" />
      <path class="BUNTAI_OTTER_OUTFIT_BUNTAI_OTTER_OUTFIT_19_cls-8" d="M246.78,411.61c1.1,1.62,1.57,4.22-.23,8.38a38.19,38.19,0,0,1-6.86,10c-4.37,4.77-10.87,9.91-16,10.06a7.37,7.37,0,0,1-2.49-.33" />
      <path class="BUNTAI_OTTER_OUTFIT_BUNTAI_OTTER_OUTFIT_19_cls-8" d="M240.75,412.76c-3.06.47-8,3.79-12.46,8.68s-7.19,10.17-7.13,13" />
      <path class="BUNTAI_OTTER_OUTFIT_BUNTAI_OTTER_OUTFIT_19_cls-8" d="M243.72,415c.05,2.8-2.67,7.8-7.14,12.68s-9.4,8.21-12.45,8.68" />
      <path class="BUNTAI_OTTER_OUTFIT_BUNTAI_OTTER_OUTFIT_19_cls-8" d="M248.17,404.67l-4.35,4.75-3.07,3.34-1.24,1.36a1.62,1.62,0,0,0,.25,2.43,2.07,2.07,0,0,0,2.7-.22l1.26-1.37,3.06-3.35L251,407" />
      <g class="BUNTAI_OTTER_OUTFIT_BUNTAI_OTTER_OUTFIT_19_cls-9">
        <path d="M249.71,382.7s-26.69,5.65-46.52,10.93-39.46,19.13-39.46,19.13,21.68-3.07,37.69-9.68,38.29-11.49,38.29-11.49l6.9-2A12.13,12.13,0,0,1,249.71,382.7Z" />
        <path d="M210.51,405.53s17.28-.3,26.22-.86,9.72,0,9.72,0l.94-.24v1.09l-2.34,1.9s-11.67.15-22.65,0-26.71,0-25.71.07S210.51,405.53,210.51,405.53Z" />
        <path d="M105.62,361.34s-8.28,32.13-4.38,44.18l-9.1-16.42s1.72,16.15,0,19.27-5,9.18-5,9.18,10.32,3.8,14,4.11c4.48,12,14.52,35.23,43.69,41.57,18.66,3.22,35.32,1.08,44.59,0C155.18,453,148.28,416.3,148.28,416.3l-2.92-20.8S116.76,389.81,105.62,361.34Z" />
        <path d="M52.93,362.08s8.73,22.34,23.79,33.09L96.16,409,90.31,419a87.28,87.28,0,0,1-24.13-14.52C53.71,394,44.74,378.61,42,364.12A88.94,88.94,0,0,0,52.93,362.08Z" />
        <path d="M211.77,351.89l-10.35,5.5-.91.49s-35.67-19.53-53.28-34.39a179.86,179.86,0,0,1-19.67-19.37l.35-.33a11.62,11.62,0,0,0,2.16-3.25l3.62-6.9h0s10.62,15.71,30,31.78S211.77,351.89,211.77,351.89Z" />
        <path d="M303,307.4c.15.15.28.3.42.45a142.86,142.86,0,0,1-11.49,12.08q-2.38,2.26-5,4.53a2.75,2.75,0,0,1-.26.22c-11.67,10.08-26.94,20.47-46.08,31.63l-.61.36-.31.17c-9.83,5.72-20.68,11.63-32.58,17.82a265.17,265.17,0,0,0-53.84,37.13l-.26.25c-1.84,1.65-3.4,3.11-4.64,4.31-2.48,2.39-3.77,3.78-3.77,3.78l-.63-6.1s.54-1.56,3.37-5c3.06-3.77,8.83-9.78,19.52-18.49,20.55-16.73,42.5-28.19,78.1-48.31a232,232,0,0,0,53.2-41.88l3.69,5.14C302,306.45,302.49,306.18,303,307.4Z" />
        <path d="M283,355.38s-7.22,13.86-3.46,21.67S300.85,367,300.85,367l.89,5.2S283.55,402,268.13,407.38s-21.5-.41-23.08-8.11.15-12.51,10.89-22.21a189.42,189.42,0,0,0,17.2-17.45C273.6,359.1,283,355.38,283,355.38Z" />
        <path d="M336,333.19a126.48,126.48,0,0,1-14.57-4.94c-8-3.37-10.82-7.34-10.82-7.34s4.34,6.44,9.57,9.5a43.31,43.31,0,0,0,10.14,4.29l3,2,3.4-1.18Z" />
        <path d="M377.63,364.11c-4,23.35-23.48,45.07-50.45,57.07.05-.34.1-.67.14-1s.09-.69.12-1,.09-.92.13-1.38c.11-1.34.17-2.63.21-3.78,0-.3,0-.57,0-.84,0-2.17,0-3.65,0-3.65s11.19-4.09,22.95-16.3,17.87-30.85,17.87-30.85A27.08,27.08,0,0,0,377.63,364.11Z" />
        <path d="M320,380.8s6.27,14.25,7.79,24.73a60.77,60.77,0,0,0-.61-31.16,98.54,98.54,0,0,1,0,20S325.44,386.09,320,380.8Z" />
        <path d="M323.11,434.09c-4,8.11-10.87,16-22.08,22.72-19.27,6.78-29.59,5-48.26,3.85h0s42,.13,57.41-20.88c15.12-20.68,7.86-41.38,7.63-42A73.85,73.85,0,0,1,323.11,434.09Z" />
      </g>
      <path class="BUNTAI_OTTER_OUTFIT_BUNTAI_OTTER_OUTFIT_19_cls-8" d="M130.07,300.54a18.29,18.29,0,0,1-2.16,3.25" />
    </g>
  </g>
</svg>