<svg xmlns="http://www.w3.org/2000/svg" viewBox="0 0 432 432">
  <defs>
    <style>.BUNTAI_OTTER_OUTFIT_BUNTAI_OTTER_OUTFIT_31_cls-1{isolation:isolate;}.BUNTAI_OTTER_OUTFIT_BUNTAI_OTTER_OUTFIT_31_cls-2{fill:#650f0e;}.BUNTAI_OTTER_OUTFIT_BUNTAI_OTTER_OUTFIT_31_cls-3{fill:#fff;}.BUNTAI_OTTER_OUTFIT_BUNTAI_OTTER_OUTFIT_31_cls-4{fill:#af524d;}.BUNTAI_OTTER_OUTFIT_BUNTAI_OTTER_OUTFIT_31_cls-5{fill:#2d3740;}.BUNTAI_OTTER_OUTFIT_BUNTAI_OTTER_OUTFIT_31_cls-6{fill:#caa771;}.BUNTAI_OTTER_OUTFIT_BUNTAI_OTTER_OUTFIT_31_cls-7{fill:#562c3a;}.BUNTAI_OTTER_OUTFIT_BUNTAI_OTTER_OUTFIT_31_cls-8{fill:none;stroke:#000;stroke-linecap:round;stroke-linejoin:round;stroke-width:1.64px;}.BUNTAI_OTTER_OUTFIT_BUNTAI_OTTER_OUTFIT_31_cls-9{opacity:0.43;mix-blend-mode:multiply;}</style>
  </defs>
  <g class="BUNTAI_OTTER_OUTFIT_BUNTAI_OTTER_OUTFIT_31_cls-1">
    <g id="outfit">
      <path class="BUNTAI_OTTER_OUTFIT_BUNTAI_OTTER_OUTFIT_31_cls-2" d="M246.65,349.37v3.2H236.59v-3.2a5,5,0,0,1,10.06,0Z" />
      <path class="BUNTAI_OTTER_OUTFIT_BUNTAI_OTTER_OUTFIT_31_cls-3" d="M231.86,381.6a31.79,31.79,0,0,1-1,3.95c-.44,1.14.62,2,2.47,2.67a118,118,0,0,1-13.9,27.57q-2,2.88-4.2,5.65c-1.8,2.24-3.71,4.42-5.77,6.54q-3.09-3.18-5.77-6.54-2.22-2.78-4.2-5.65a118.05,118.05,0,0,1-13.91-27.57c1.85-.64,2.92-1.53,2.48-2.67a32.21,32.21,0,0,1-1.1-4.47c3.36-.49,11.05-5.85,16.21-7.43s11.56.33,16.26,3.65S231.86,381.6,231.86,381.6Z" />
      <path class="BUNTAI_OTTER_OUTFIT_BUNTAI_OTTER_OUTFIT_31_cls-4" d="M247.39,360.16c.26,2.62.54,5.44.76,7.59.54,5.46,5.16,18.89,1.31,20.74a10.21,10.21,0,0,1-2.93.72,33.65,33.65,0,0,1-4.07.22,38.89,38.89,0,0,1-6.19-.5,18.25,18.25,0,0,1-2.93-.71,118,118,0,0,1-13.9,27.57c18.62,5.09,33.66,3.66,44.77-4.26,18-12.85,21.12-39.53,21.65-48.13h0Q266.57,362.63,247.39,360.16Z" />
      <path class="BUNTAI_OTTER_OUTFIT_BUNTAI_OTTER_OUTFIT_31_cls-4" d="M182.67,388.93a38.92,38.92,0,0,1-6.2.5,33.76,33.76,0,0,1-4.07-.22,10.22,10.22,0,0,1-2.92-.72c-3.86-1.85.76-15.28,1.31-20.74.22-2.15.5-5,.75-7.59q-19.15,2.44-38.47,3.23h0c.53,8.6,3.63,35.28,21.65,48.13,11.11,7.92,26.15,9.35,44.78,4.26a118.05,118.05,0,0,1-13.91-27.57A18.38,18.38,0,0,1,182.67,388.93Z" />
      <path class="BUNTAI_OTTER_OUTFIT_BUNTAI_OTTER_OUTFIT_31_cls-5" d="M180.7,324.49A50.26,50.26,0,0,0,199,333.55a40.8,40.8,0,0,0,6.75,1.14c.47.05.95.07,1.44.1q1,.06,2.07.06c1.33,0,2.66-.07,4-.2a41.38,41.38,0,0,0,6.73-1.22,52.81,52.81,0,0,0,18-9.07h0c1.87-1.41,3.73-2.94,5.57-4.63a2.79,2.79,0,0,0,.17-4,2.84,2.84,0,0,0-4-.17,68.63,68.63,0,0,1-5.38,4.44,47.11,47.11,0,0,1-15.87,8,35.83,35.83,0,0,1-11,1.18l-.3,0a36.33,36.33,0,0,1-6.75-1,45,45,0,0,1-15.92-7.85h0a38.93,38.93,0,0,1-5.09-4.47,2.86,2.86,0,0,0-4-.24,2.8,2.8,0,0,0-.24,4A42.59,42.59,0,0,0,180.7,324.49Z" />
      <path class="BUNTAI_OTTER_OUTFIT_BUNTAI_OTTER_OUTFIT_31_cls-5" d="M397.12,424.69c-1.65-3.27-15.18-19.81-24.91-35.7v0c-2-7.47-12.66-31.05-16-38.29a71,71,0,0,1-20.9,9.3c-13.25,3.58-27.17,4-40.9,3.67l-1.91,0c-.51,9.4-3.75,38.49-24.4,53.24-7.94,5.67-17.45,8.51-28.46,8.51a86.51,86.51,0,0,1-24.39-3.91c-1.8,2.24-3.71,4.42-5.77,6.54q-3.09-3.18-5.77-6.54a86.57,86.57,0,0,1-24.4,3.91c-11,0-20.52-2.84-28.46-8.51C130.19,402.09,127,373,126.45,363.6l-1.91,0c-13.74.29-27.65-.09-40.91-3.67a71.1,71.1,0,0,1-20.9-9.3c-3.33,7.24-14,30.82-16,38.29v0c-9.74,15.89-23.26,32.43-24.92,35.7s-3,22.95-3,22.95h86a54.65,54.65,0,0,0,7,8H307.09a54.73,54.73,0,0,0,7-8h86S398.77,428,397.12,424.69Z" />
      <path class="BUNTAI_OTTER_OUTFIT_BUNTAI_OTTER_OUTFIT_31_cls-6" d="M185,317.6v0a7.54,7.54,0,0,1-.46,2.61,40.73,40.73,0,0,1-5.09-4.47,2.83,2.83,0,0,0-2.12-1l-.3,0-.2,0a2.14,2.14,0,0,0-.34.09,3,3,0,0,0-.38.15,2.82,2.82,0,0,0-.44.26l-.21.16h0a1.15,1.15,0,0,0-.22.22,1.54,1.54,0,0,0-.27.36,2.17,2.17,0,0,0-.19.33,2.44,2.44,0,0,0-.14.34,2.77,2.77,0,0,0,.57,2.72l0,.05.17.18.45.47.2.2.22.22.49.47a50,50,0,0,0,3.94,3.38,6.76,6.76,0,0,1-.78.33h0l-.4.14-.53.13-.45.09h-.11a5,5,0,0,1-.54.06l-.56,0c-.21,0-.42,0-.62,0h-.2l-.5-.07-.35-.07-.22,0-.23-.07a3.86,3.86,0,0,1-.48-.16l-.12,0-.06,0-.16.29h0l0,0h0a9,9,0,0,1-.46.79l0,0c-.15.25-.31.5-.49.76s-.25.35-.38.53-.35.48-.53.71-.55.7-.86,1l-.39.45a31,31,0,0,1-2.76,2.73c-.2.17-.39.34-.61.51s-.47.39-.71.58l-.11.08-.75.57-.53.38-.54.38-.51.33c-.2.14-.41.27-.63.4a4.11,4.11,0,0,1-.39.24l-.92.53c-.39.22-.78.42-1.18.62a6.39,6.39,0,0,1-.65.31l-.19.09-.07,0-.31.14-.2.09-.05,0-.83.35c-.57.23-1.15.45-1.73.63a24.12,24.12,0,0,1-7.49,1.23,21.72,21.72,0,0,1-9.92-2.39,34.93,34.93,0,0,1-5.06-3.3l-.17-.12-1.38-1.08A134.53,134.53,0,0,1,123,323.11l0,0h0v0l0,0h0c-2.17-2.18-4.33-4.44-6.43-6.71h0q-1.5-1.62-2.93-3.21c1.63-1.09,3.15-2.22,4.57-3.37.67.75,1.36,1.5,2,2.26h0c8,8.63,16.81,17.37,22.56,20.29a16.56,16.56,0,0,0,13,.82,23.92,23.92,0,0,0,5.12-2.4c.27-.16.53-.32.79-.5q.78-.49,1.5-1.05l.36-.28.36-.28.68-.57.66-.58c.42-.39.83-.79,1.21-1.18A18.83,18.83,0,0,0,169.6,322a2.44,2.44,0,0,1,.28-.43,2.5,2.5,0,0,1,.54-.54h0l-.18-.38h0l-.15-.39a7.93,7.93,0,0,1-.25-.83c-.06-.28-.11-.57-.15-.86s-.05-.6-.05-.9v0c0-.15,0-.3,0-.44a7.27,7.27,0,0,1,.22-1.41c.07-.24.14-.48.23-.71a5.28,5.28,0,0,1,.29-.69c.11-.22.22-.43.35-.64l.2-.32a3.06,3.06,0,0,1,.21-.29h0l.22-.29.25-.27.12-.14a.74.74,0,0,1,.13-.12l.27-.25a3.93,3.93,0,0,1,.57-.47,6.49,6.49,0,0,1,.61-.41l.28-.16.12-.07.25-.12.38-.17a2,2,0,0,1,.31-.12,5.85,5.85,0,0,1,.84-.26,3.86,3.86,0,0,1,.49-.09,4.85,4.85,0,0,1,.55-.08h.05a1.55,1.55,0,0,1,.31,0h.4a7,7,0,0,1,1.3.12,3.55,3.55,0,0,1,.47.09l.5.13a5.4,5.4,0,0,1,.67.25l.2.09a4.09,4.09,0,0,1,.42.2l.08,0,.32.19.32.2a4.73,4.73,0,0,1,.39.28,3.34,3.34,0,0,1,.47.4l.27.25a.74.74,0,0,1,.13.12l.12.14.25.27s0,0,0,0a5.9,5.9,0,0,1,.44.58l.2.32a5.71,5.71,0,0,1,.35.64,5.28,5.28,0,0,1,.29.69,5.88,5.88,0,0,1,.23.71,7.27,7.27,0,0,1,.22,1.41C185,317.3,185,317.45,185,317.6Z" />
      <path class="BUNTAI_OTTER_OUTFIT_BUNTAI_OTTER_OUTFIT_31_cls-6" d="M307.56,310.68c-.24.27-.48.55-.73.82-.47.53-.95,1.07-1.44,1.6-1,1.07-2,2.16-3,3.25-2.19,2.37-4.47,4.75-6.74,7l0,.05-.23.23-.24.24s0,0-.05.05a.08.08,0,0,0,0,0c-.86.86-1.73,1.7-2.59,2.52-2.57,2.46-5.09,4.71-7.44,6.58a.88.88,0,0,1-.17.12,38.16,38.16,0,0,1-6.08,4.08,21.62,21.62,0,0,1-9.91,2.39,24.4,24.4,0,0,1-7-1.08h0l-.54-.16A30.32,30.32,0,0,1,257,336.6l-.18-.09-.16-.09h0a31.23,31.23,0,0,1-11.81-10.86,0,0,0,0,1,0,0c-.16-.26-.3-.52-.44-.77l-.13.05h0l-.12,0a.17.17,0,0,1-.1,0,3.4,3.4,0,0,1-.38.12l-.12,0a4.15,4.15,0,0,1-.48.11l-.09,0-.12,0-.25,0-.24,0-.18,0h-.55a7.64,7.64,0,0,1-3.66-.91c.78-.59,1.55-1.2,2.33-1.83l.82-.68c.65-.55,1.31-1.12,2-1.71l.46-.42a2.78,2.78,0,0,0,.17-4,3.19,3.19,0,0,0-.33-.31,3,3,0,0,0-.37-.25l-.27-.13a.8.8,0,0,0-.2-.07,2.34,2.34,0,0,0-.58-.14l-.34,0h0a2,2,0,0,0-.34,0,2.33,2.33,0,0,0-.51.11,1.15,1.15,0,0,0-.17.06,1,1,0,0,0-.21.09l-.33.19,0,0-.3.24c-1.79,1.62-3.57,3.11-5.37,4.45a7.24,7.24,0,0,1-.39-2.38c0-.22,0-.44,0-.65s.05-.43.09-.64a3.55,3.55,0,0,1,.09-.47,2.29,2.29,0,0,1,.07-.28.79.79,0,0,1,.06-.22h0a.44.44,0,0,1,.06-.16,4.24,4.24,0,0,1,.18-.5c.05-.13.11-.26.17-.38a1.19,1.19,0,0,1,.08-.16.8.8,0,0,1,.08-.16h0a7.41,7.41,0,0,1,1.61-2,5.71,5.71,0,0,1,.47-.39l.24-.18,0,0,.1-.07h0a4.57,4.57,0,0,1,.47-.29l.38-.2a1.42,1.42,0,0,1,.25-.12l.32-.14a5.71,5.71,0,0,1,.58-.21l.5-.13a3.55,3.55,0,0,1,.47-.09,7.09,7.09,0,0,1,1.31-.12,7.83,7.83,0,0,1,1.29.11,3,3,0,0,1,.54.11l.1,0,.42.12a7.24,7.24,0,0,1,1.31.55s.05,0,.06,0l.25.15a3.83,3.83,0,0,1,.61.41,3.09,3.09,0,0,1,.57.47l.27.25.13.12a4.72,4.72,0,0,1,.37.41s0,0,0,0a5.9,5.9,0,0,1,.44.58h0l.2.31a5.71,5.71,0,0,1,.35.64,5.28,5.28,0,0,1,.29.69,5.88,5.88,0,0,1,.23.71c0,.12.06.24.08.37a2,2,0,0,1,.06.34,5.35,5.35,0,0,1,.08.7c0,.11,0,.23,0,.34v.15a7.59,7.59,0,0,1-.78,3.37,2.81,2.81,0,0,1,.82,1,18.83,18.83,0,0,0,3.15,4.25c.38.39.79.79,1.21,1.18l.66.58.68.57c.24.19.47.38.72.56q.72.56,1.5,1.05c.26.18.52.34.79.5a24.15,24.15,0,0,0,5.12,2.4,16.56,16.56,0,0,0,13-.82c5.75-2.93,14.64-11.68,22.59-20.32,1.79-1.94,3.53-3.88,5.18-5.75C305.09,307.71,306.29,309.2,307.56,310.68Z" />
      <path class="BUNTAI_OTTER_OUTFIT_BUNTAI_OTTER_OUTFIT_31_cls-6" d="M231.86,381.6c.24-1.13.48-2.42.73-3.83-.08,0-5,0-10-4.83s-16.39-7.27-21.56-3.77-14.89,7.54-14.89,7.54c.28,1.6.56,3.09.82,4.37,3.36-.49,11.05-5.85,16.21-7.43s11.56.33,16.26,3.65S231.86,381.6,231.86,381.6Z" />
      <path class="BUNTAI_OTTER_OUTFIT_BUNTAI_OTTER_OUTFIT_31_cls-6" d="M220,333.43a41.38,41.38,0,0,1-6.73,1.22c1.68,5.91,3.76,11.84,8.06,16.19,3.88,3.92,9,6.05,14.48,7.37.5-3.36.83-5.64.83-5.64v-1.1c-4.11-1.06-7.81-2.67-10.46-5.36C223,343,221.29,338.15,220,333.43Z" />
      <path class="BUNTAI_OTTER_OUTFIT_BUNTAI_OTTER_OUTFIT_31_cls-6" d="M203.7,421.43a86.15,86.15,0,0,1-24.39,3.91c-11,0-20.53-2.83-28.47-8.51a44.31,44.31,0,0,1-5.36-4.5c-.55-.54-1.08-1.08-1.59-1.63-.77-.84-1.51-1.69-2.22-2.57a53.36,53.36,0,0,1-4.44-6.39c-.38-.63-.74-1.26-1.09-1.9s-.69-1.27-1-1.92l-.48-1c-.31-.65-.62-1.3-.91-1.95a80.58,80.58,0,0,1-4.57-13.41c-.23-.92-.44-1.82-.63-2.71a97.19,97.19,0,0,1-2.09-15.29l-1.91,0-3.17.05-3.62,0h-.07l-2.4,0-1.84,0-2-.05-.86,0H110c-.59,0-1.18,0-1.78-.08s-1.41-.06-2.11-.11l-2.12-.14h-.14c-.28,0-.55,0-.82-.06l-.32,0-1-.08-.28,0-.17,0-1.21-.12L99,362.81l-.32,0-.35,0-.19,0h-.07l-.31,0-.16,0h-.15l-1.25-.16-.23,0-.33,0-.11,0h-.26l-1.19-.16-.11,0-1.47-.24-.11,0h0c-.31,0-.62-.1-.93-.16l-1-.18-.78-.15-.17,0-.29-.06-.78-.16-.28-.07L88,361l-.44-.1-.13,0-.48-.1-.12,0q-.36-.07-.72-.18l-.22-.05-.2-.05-.17,0-.6-.14L83.64,360q-.69-.18-1.38-.39l-.12,0-.81-.25-1.23-.38c-.28-.09-.55-.17-.82-.27l-.74-.25-.05,0-.79-.28-.9-.32-.9-.34L74.82,357l-.7-.29-.42-.17-.16-.07-.16-.07-.22-.1-1.13-.5-.69-.32-.77-.36-.38-.19-.4-.19-.54-.27-.5-.26-.11-.06c-.31-.16-.62-.32-.92-.49l-.63-.35c-.21-.11-.43-.22-.63-.34,0,0,0,0,0,0l0,0-1.25-.74h0l-.74-.47c-.3-.17-.59-.36-.88-.55l-.79-.52c-1.31-.88-2.61-1.82-3.84-2.8h0a49.81,49.81,0,0,1-9.24-9.5c2-.46,4.43-1.06,7.22-1.82a46.08,46.08,0,0,0,8.92,8l0,0a63.51,63.51,0,0,0,19.58,8.88c9,2.43,19,3.52,32.32,3.52,2.06,0,4.24,0,6.66-.07a439.53,439.53,0,0,0,47.81-3.64c-.12,1.24-.37,3.93-.66,6.89q-4.78.61-9.59,1.12h0c-1.2.13-2.38.25-3.58.36l-.64.06-.22,0-.22,0-.14,0h-.05c-.19,0-.39,0-.58.06l-4.18.37-3.78.3h-.16c-1,.08-1.89.14-2.83.2l-.53,0-1.2.08-.88.05c-.33,0-.66.05-1,.06l-1,.07-2.39.13-.64,0c-.83,0-1.65.09-2.48.12l-.7,0-1.64.07h0c0,.27,0,.56,0,.86,0,.15,0,.31,0,.47.07.82.15,1.75.26,2.78,0,.16,0,.31,0,.47s.05.42.08.65.06.51.1.78.07.53.11.8,0,.27,0,.4c.05.35.1.7.16,1.06s.15,1,.23,1.45c0,.15,0,.29.08.44.08.48.16.95.26,1.44s.22,1.16.35,1.76.26,1.21.4,1.82c.1.42.2.85.31,1.28.06.28.14.56.21.84l.06.24c.13.48.26,1,.4,1.46a1.52,1.52,0,0,0,.06.2c.19.67.39,1.36.6,2l.12.36c.19.58.38,1.17.58,1.75s.41,1.18.63,1.77c.06.14.12.29.17.43l.09.23a2,2,0,0,0,.08.22c.21.53.42,1.07.65,1.6a.76.76,0,0,0,.06.16h0c.21.49.42,1,.64,1.44s.36.8.55,1.19a1.59,1.59,0,0,0,.12.27c.27.58.56,1.15.87,1.73s.53,1,.8,1.47a.47.47,0,0,1,0,.1c.29.52.59,1,.91,1.54,0,0,0,0,0,.06l.84,1.33q.23.36.48.72c.17.24.33.48.5.71a.27.27,0,0,0,.06.1.47.47,0,0,0,.09.12c.17.25.35.49.54.74s.59.78.9,1.17l.35.42c.23.29.47.58.71.86s.48.56.73.83.55.6.84.9a4,4,0,0,0,.36.35q.51.54,1.05,1.05l0,0c.37.34.75.69,1.14,1l.16.13c.38.34.79.67,1.2,1s1,.74,1.45,1.09c.27.19.54.38.81.55s.48.32.72.47.57.37.87.54.42.26.64.38.72.41,1.09.6l.05,0,0,0h0a.18.18,0,0,0,.11.05c.59.32,1.19.61,1.79.88l.49.22.52.22c.56.24,1.12.46,1.7.66.19.08.38.14.56.2l.21.08c1,.34,2,.64,3,.9l.79.19c.39.1.78.18,1.18.26.14,0,.28.06.43.09.32.07.65.13,1,.18l.33.06,1.11.17c.64.09,1.28.16,1.92.23l.24,0,1.19.09.6,0,.84,0,.58,0h.24c.26,0,.52,0,.79,0,.63,0,1.28,0,1.92,0h.16c.7,0,1.41,0,2.12-.08h.08l1.21-.08,1.12-.1,1.32-.14a4.62,4.62,0,0,0,.65-.08h0c.66-.08,1.34-.17,2-.27s1.14-.18,1.72-.28l.65-.11.77-.14.53-.11,1.62-.33.55-.12.45-.11c1.12-.25,2.24-.53,3.38-.83l.11,0,.55-.15C200.82,417.7,202.22,419.59,203.7,421.43Z" />
      <path class="BUNTAI_OTTER_OUTFIT_BUNTAI_OTTER_OUTFIT_31_cls-6" d="M192.8,346.11c-2.65,2.69-6.35,4.3-10.46,5.36v1.1s.33,2.28.84,5.64c5.45-1.32,10.6-3.45,14.48-7.37,4.28-4.34,6.37-10.25,8.05-16.15a40.8,40.8,0,0,1-6.75-1.14C197.62,338.23,195.89,343,192.8,346.11Z" />
      <path class="BUNTAI_OTTER_OUTFIT_BUNTAI_OTTER_OUTFIT_31_cls-6" d="M207.19,329.15c-.62,0-1.23-.09-1.84-.15s-1.08-.14-1.61-.22c-1.13-.17-2.22-.4-3.29-.67h0c1.37-5.27,2.16-9.94.64-13.57-1.74-4.19-6.6-7.15-12.31-10.31l-49.3-27.39-1.05-.58a39.89,39.89,0,0,0,.81-7.28l2.13,1.19,50.73,28.17c6.1,3.38,12.62,7.22,15.29,13.63C209.62,317.36,208.64,323.4,207.19,329.15Z" />
      <path class="BUNTAI_OTTER_OUTFIT_BUNTAI_OTTER_OUTFIT_31_cls-6" d="M370,337.19h.1c-.25.37-.51.74-.78,1.1-.42.58-.86,1.14-1.31,1.7a.59.59,0,0,1-.08.11,51.21,51.21,0,0,1-6.92,7,59.08,59.08,0,0,1-4.82,3.59l-.85.55h0c-.4.26-.8.52-1.2.76-.25.17-.51.32-.77.47l-.1.06h0c-.08.06-.17.1-.25.15l-.13.07a.2.2,0,0,0-.09.05c-.17.1-.35.21-.53.3l-.61.35-.85.46-.23.12-.82.42-1,.5-.62.3-.54.25-1.08.5-.68.3-1.45.61-.07,0-1.46.57-1.41.53a1.15,1.15,0,0,1-.17.06l-.38.14-.1,0h0l-.64.22-.29.09c-.26.1-.53.19-.79.27l-1,.32c-.91.28-1.84.55-2.76.8l-.21.06c-.53.14-1,.28-1.58.4l-.3.07-1.25.3-1,.22-.4.08-.94.19-.24.05-.24,0-.14,0-.17,0-.32.06-.12,0-.24,0-.52.1-.42.07-.54.1-.32.06h-.14l-.11,0-.9.14-.52.08-.25,0-.13,0h-.13q-.72.12-1.47.21l-.19,0-.11,0-1.18.14-1.2.14-1.35.15-.2,0-.83.08-.63.06-1.31.1h-.1l-.26,0h-.18l-.17,0-.21,0-.46,0h-.06l-.5,0-.54,0-1.28.08h-.35l-.47,0-.76,0-.58,0-1.09,0h-1.06l-1.74,0h-.42l-1.85,0h-2.43l-3.41,0-3.41-.05-1.91,0c0,.61-.08,1.29-.14,2,0,.25,0,.52-.06.78s0,.27,0,.4c0,.29-.05.59-.08.9l0,.25c0,.35-.07.71-.11,1.08a98.58,98.58,0,0,1-2.5,13.46q-.58,2.33-1.37,4.73c-.21.64-.42,1.28-.65,1.93-.55,1.61-1.18,3.24-1.89,4.86q-.42,1-.87,1.95c-.6,1.3-1.25,2.58-1.95,3.85-.35.64-.71,1.27-1.09,1.9s-.76,1.26-1.16,1.87-.82,1.24-1.25,1.84-.87,1.21-1.33,1.8-.92,1.17-1.41,1.75-1,1.17-1.56,1.75l-.58.62c-.91.94-1.87,1.85-2.87,2.73l-1,.84q-1.19,1-2.46,1.89c-7.94,5.68-17.46,8.51-28.47,8.51a86.21,86.21,0,0,1-24.39-3.91c1.48-1.84,2.88-3.73,4.2-5.64l.46.12h0c.69.19,1.37.37,2.05.53l.62.15c.37.09.73.18,1.1.25.81.19,1.62.37,2.42.52l1.55.29c1.2.21,2.39.39,3.55.55.83.11,1.66.2,2.47.28l1.21.1.9.07.7,0,.84,0,1.06,0h1.23l1.5,0h.29l1.35-.06.74-.05c1-.07,1.94-.16,2.89-.29l.62-.09a6,6,0,0,0,.61-.09c.37-.05.74-.11,1.1-.19l.44-.08.49-.1.32-.07c.41-.08.81-.17,1.21-.27s.86-.22,1.29-.35c.26-.06.52-.14.78-.22a36.12,36.12,0,0,0,3.9-1.41l.94-.41.1,0,.23-.11.09-.05.42-.19.4-.2.06,0a34.39,34.39,0,0,0,3.29-1.87q.22-.13.45-.3h0c.36-.23.72-.48,1.07-.73.17-.12.34-.24.5-.37l.49-.37,1-.76c.78-.64,1.54-1.32,2.27-2,.3-.28.59-.57.88-.87.59-.59,1.15-1.19,1.68-1.81l.4-.48q.31-.36.6-.72c.26-.32.52-.63.75-.95s.63-.84.94-1.27.6-.85.89-1.28.64-1,.93-1.47a1.58,1.58,0,0,0,.15-.24l0,0h0s.05-.05.05-.07l0-.05s0,0,0,0,0,0,0,0c.14-.22.27-.46.41-.69.32-.54.62-1.08.91-1.61s.56-1.08.83-1.62a.34.34,0,0,0,.06-.12c.29-.58.57-1.16.84-1.75l.26-.6a.08.08,0,0,0,0,0,2.56,2.56,0,0,0,.11-.24.14.14,0,0,1,0-.06c0-.09.07-.18.11-.27s.17-.37.25-.55l.13-.31c.16-.38.32-.78.47-1.17s.3-.78.45-1.17.22-.59.32-.88.12-.3.17-.46.1-.28.14-.42c.38-1.08.72-2.15,1-3.2.11-.39.23-.78.33-1.16.07-.23.13-.46.19-.69s.19-.67.27-1,.19-.73.27-1.08.17-.68.24-1,.13-.54.19-.8l.09-.41q.19-.9.36-1.77c.05-.2.08-.4.12-.6l.06-.34c.06-.31.11-.62.17-.92,0-.09,0-.18.05-.27.07-.41.13-.81.2-1.2,0-.09,0-.18,0-.26,0-.3.09-.6.13-.9s.06-.34.08-.51c.21-1.49.37-2.87.49-4.08,0-.31.05-.61.08-.9,0-.14,0-.28,0-.41s0-.5.06-.74c0-.39,0-.75.07-1.08h0l-1.74-.07-3.08-.15-3.61-.2-.35,0-2.21-.14-1.05-.07-3.12-.22-4.1-.32-4.81-.43-3.79-.38-1-.11-1.15-.12c-.75-.07-1.49-.16-2.24-.24l-1.41-.17L251,360.6l-3.59-.44c-.29-3-.54-5.65-.66-6.89a439.72,439.72,0,0,0,47.81,3.64c2.42,0,4.6.07,6.65.07,13.37,0,23.35-1.09,32.34-3.52a63.37,63.37,0,0,0,20-9.18l0,0c1-.73,2-1.48,2.95-2.26.39-.32.77-.64,1.14-1,.91-.79,1.78-1.62,2.6-2.47.22-.21.43-.44.62-.66a2,2,0,0,0,.25-.26c.28-.3.55-.6.8-.9Q365.83,337.1,370,337.19Z" />
      <path class="BUNTAI_OTTER_OUTFIT_BUNTAI_OTTER_OUTFIT_31_cls-6" d="M289.07,270.35a57.83,57.83,0,0,0,1.36,6.95l-11,6.15-49.22,20.78-2.09,1.18c-1,.59-2,1.17-2.94,1.77l-.91.6-.76.52-.11.08-.79.59-.23.18-.59.48-.46.4-.27.24h0l0,0-.32.3c-.11.11-.22.21-.33.33a13.82,13.82,0,0,0-1.19,1.38,7.11,7.11,0,0,0-.5.72,9.87,9.87,0,0,0-.79,1.51l-.21.53a9.66,9.66,0,0,0-.4,1.54,3.91,3.91,0,0,0-.07.39c0,.11,0,.23,0,.35a3.87,3.87,0,0,0,0,.49c-.26,3,.41,6.41,1.37,10.15l-.21.06c-.42.11-.85.21-1.27.3a34,34,0,0,1-5.24.78c-1.45-5.75-2.41-11.78-.17-17.16,2.67-6.41,9.18-10.25,15.28-13.63,16.88-9.37,33.76-12.18,50.64-21.56Z" />
      <path class="BUNTAI_OTTER_OUTFIT_BUNTAI_OTTER_OUTFIT_31_cls-2" d="M187,381.08c-.26-1.28-.54-2.77-.82-4.37-1.06-5.94-2.22-13.45-3-18.5-.51-3.36-.84-5.64-.84-5.64v-3.2a5,5,0,0,0-1.47-3.53,5,5,0,0,0-8.59,3.53v3.2s0,.25-.08.7c-.11,1.24-.36,3.94-.66,6.89-.25,2.62-.53,5.44-.75,7.59-.55,5.46-5.17,18.89-1.31,20.74a10.22,10.22,0,0,0,2.92.72,33.76,33.76,0,0,0,4.07.22,38.92,38.92,0,0,0,6.2-.5,18.38,18.38,0,0,0,2.92-.71c1.85-.64,2.92-1.53,2.48-2.67A32.21,32.21,0,0,1,187,381.08Z" />
      <path class="BUNTAI_OTTER_OUTFIT_BUNTAI_OTTER_OUTFIT_31_cls-2" d="M248.15,367.75c-.22-2.15-.5-5-.76-7.59-.29-3-.55-5.65-.66-6.89,0-.45-.08-.7-.08-.7H236.59s-.33,2.28-.83,5.64c-.8,5.36-2.06,13.48-3.17,19.56-.25,1.41-.49,2.7-.73,3.83a31.79,31.79,0,0,1-1,3.95c-.44,1.14.62,2,2.47,2.67a18.25,18.25,0,0,0,2.93.71,38.89,38.89,0,0,0,6.19.5,33.65,33.65,0,0,0,4.07-.22,10.21,10.21,0,0,0,2.93-.72C253.31,386.64,248.69,373.21,248.15,367.75Z" />
      <path class="BUNTAI_OTTER_OUTFIT_BUNTAI_OTTER_OUTFIT_31_cls-7" d="M199,333.55a54.81,54.81,0,0,1-1.73,5.21c-.22.56-.46,1.11-.7,1.65a24.72,24.72,0,0,1-1.21,2.35c-.29.5-.59,1-.92,1.43a14.94,14.94,0,0,1-1.6,1.92c-2.66,2.69-6.36,4.29-10.46,5.36v-2.1a5,5,0,0,0-1.48-3.53,5,5,0,0,0-2.06-1.24,5.22,5.22,0,0,0-3,0,5,5,0,0,0-3.52,4.77v3.2a.1.1,0,0,1,0,0c0,.06,0,.18,0,.36s0,.18,0,.3a439.53,439.53,0,0,1-47.81,3.64c-2.42,0-4.6.07-6.66.07-13.36,0-23.34-1.09-32.32-3.52a63.51,63.51,0,0,1-19.58-8.88l0,0a46.08,46.08,0,0,1-8.92-8,238.77,238.77,0,0,0,51-20c2-1.1,3.9-2.24,5.66-3.44q1.42,1.59,2.93,3.21h0c2.1,2.27,4.26,4.53,6.43,6.71h0l.06.06a123.24,123.24,0,0,0,11.92,10.75l.16.11a34.93,34.93,0,0,0,5.06,3.3,21.72,21.72,0,0,0,9.92,2.39,24.12,24.12,0,0,0,7.49-1.23c.58-.18,1.16-.4,1.73-.63l.73-.31.1,0,.05,0,.2-.09.31-.14.07,0a1.63,1.63,0,0,0,.19-.09,6.39,6.39,0,0,0,.65-.31c.4-.2.79-.4,1.18-.62l.92-.53a4.11,4.11,0,0,0,.39-.24c.22-.13.43-.26.63-.4l.51-.33.54-.38.53-.38.75-.57.11-.08c.24-.19.49-.39.71-.58s.41-.34.61-.51a31,31,0,0,0,2.76-2.73l.39-.45c.31-.34.59-.69.86-1a8.72,8.72,0,0,0,.53-.71c.13-.18.26-.35.38-.53s.34-.51.49-.76l0,0a9,9,0,0,0,.46-.79h0l0,0,.16-.29.06,0a.25.25,0,0,0,.12,0,3.86,3.86,0,0,0,.48.16l.23.07.22,0,.35.07a4.29,4.29,0,0,0,.5.07,7.38,7.38,0,0,0,.82,0,7.94,7.94,0,0,0,2.19-.31,7.64,7.64,0,0,0,.8-.29l.39-.18.35.26c.67.52,1.41,1.05,2.19,1.59A49.5,49.5,0,0,0,199,333.55Z" />
      <path class="BUNTAI_OTTER_OUTFIT_BUNTAI_OTTER_OUTFIT_31_cls-7" d="M304,306.2c-1.65,1.87-3.39,3.81-5.18,5.75-7.95,8.64-16.84,17.39-22.59,20.32a16.56,16.56,0,0,1-13,.82,24.15,24.15,0,0,1-5.12-2.4c-.27-.16-.53-.33-.79-.5l-.76-.52c-.75-.53-1.47-1.09-2.14-1.66l-.66-.58c-.42-.39-.83-.79-1.21-1.18a18.83,18.83,0,0,1-3.15-4.25,2.81,2.81,0,0,0-.82-1,7.59,7.59,0,0,0,.78-3.37v-.07c0-.14,0-.28,0-.42v-.06s0-.09,0-.13a8,8,0,0,0-.21-1.22,5.88,5.88,0,0,0-.23-.71,5.28,5.28,0,0,0-.29-.69,5.71,5.71,0,0,0-.35-.64l-.2-.32a5.9,5.9,0,0,0-.44-.58s0,0,0,0l-.25-.27-.12-.14-.13-.12-.27-.25a3.09,3.09,0,0,0-.57-.47,3.83,3.83,0,0,0-.61-.41l-.23-.14-.05,0,0,0a8.26,8.26,0,0,0-1.25-.54l-.47-.13-.1,0a3,3,0,0,0-.54-.11l-.51-.07a6.79,6.79,0,0,0-.78,0,6.57,6.57,0,0,0-.78,0,3.11,3.11,0,0,0-.44.06l-.09,0a3.55,3.55,0,0,0-.47.09l-.5.13a7.86,7.86,0,0,0-2,1h0l-.1.06,0,0-.24.18a4.22,4.22,0,0,0-.47.39l-.2.18-.09.09a7.18,7.18,0,0,0-1.32,1.76h0a.8.8,0,0,0-.08.16,1.19,1.19,0,0,0-.08.16c-.06.12-.12.25-.17.38l-.12.31a.53.53,0,0,0,0,.15,1.88,1.88,0,0,0-.14.42,2.29,2.29,0,0,0-.07.28,3.55,3.55,0,0,0-.09.47,6.88,6.88,0,0,0-.12,1.29,7.24,7.24,0,0,0,.39,2.38,47,47,0,0,1-15.87,8h0c-1-3.74-1.63-7.18-1.37-10.15a3.87,3.87,0,0,1,0-.49c0-.12,0-.24,0-.35a3.91,3.91,0,0,1,.07-.39,9.66,9.66,0,0,1,.4-1.54l.21-.53a9.87,9.87,0,0,1,.79-1.51,7.11,7.11,0,0,1,.5-.72,13.82,13.82,0,0,1,1.19-1.38c.11-.12.22-.22.33-.33l.18-.18.14-.12,0,0,.27-.24.46-.4.59-.48.23-.18.79-.59.11-.08.76-.52.91-.6,1.12-.7c.59-.36,1.19-.71,1.82-1.07l2.09-1.18,49.22-20.78,11-6.15A83.87,83.87,0,0,0,304,306.2Z" />
      <path class="BUNTAI_OTTER_OUTFIT_BUNTAI_OTTER_OUTFIT_31_cls-7" d="M361.92,336.74l-.8.9a2,2,0,0,1-.25.26c-.2.22-.4.44-.62.66-.82.85-1.69,1.68-2.6,2.47-.37.33-.75.65-1.14,1-.94.78-1.93,1.53-2.95,2.26l0,0a63.37,63.37,0,0,1-20,9.18c-9,2.43-19,3.52-32.34,3.52-2.05,0-4.23,0-6.65-.07a439.72,439.72,0,0,1-47.81-3.64c0-.45-.07-.7-.07-.7v-3.2a4.93,4.93,0,0,0-1.48-3.53,5,5,0,0,0-3.55-1.46h-.3a.19.19,0,0,0-.13,0l-.33,0a3.66,3.66,0,0,0-.73.16h0l-.54.21-.09,0a2.32,2.32,0,0,0-.41.22.42.42,0,0,0-.13.07,2.73,2.73,0,0,0-.3.21l-.23.17a3.73,3.73,0,0,0-.36.32,5,5,0,0,0-1.48,3.53v2.1c-4.1-1.07-7.8-2.67-10.46-5.36-3.1-3.15-4.84-8-6.18-12.68h0c.77-.2,1.53-.43,2.29-.67s1.53-.52,2.29-.81c.37-.14.75-.29,1.12-.45l.68-.29c.29-.12.59-.25.88-.39.67-.3,1.33-.61,2-.95s1.31-.68,2-1.05l1-.56,1-.59q.91-.56,1.83-1.17c1-.67,2-1.38,3-2.13h0a7.64,7.64,0,0,0,3.66.91h.55l.18,0,.24,0,.25,0,.12,0,.09,0a2.57,2.57,0,0,0,.48-.11,5.26,5.26,0,0,0,.6-.18l.12,0h0l.13-.05c.14.25.28.51.44.77a0,0,0,0,0,0,0,31.23,31.23,0,0,0,11.81,10.86,3.13,3.13,0,0,0,.36.19,30,30,0,0,0,4.27,1.8c.19.07.39.12.58.18a24.4,24.4,0,0,0,7,1.08,21.62,21.62,0,0,0,9.91-2.39,38,38,0,0,0,6-4l.25-.18c2.35-1.87,4.87-4.12,7.44-6.58.86-.82,1.72-1.66,2.59-2.52l.09-.09a2.72,2.72,0,0,1,.24-.24l.23-.23,0-.05c2.27-2.26,4.55-4.64,6.74-7,1-1.09,2-2.18,3-3.25.49-.53,1-1.07,1.44-1.6.25-.27.49-.55.73-.82C318.37,323.17,335.34,334.32,361.92,336.74Z" />
      <path class="BUNTAI_OTTER_OUTFIT_BUNTAI_OTTER_OUTFIT_31_cls-7" d="M200.44,328.11a45,45,0,0,1-15.92-7.84h0a7.54,7.54,0,0,0,.46-2.61v0c0-.16,0-.32,0-.47s0-.25,0-.38l0-.23a7.08,7.08,0,0,0-.16-.8,5.88,5.88,0,0,0-.23-.71,5.28,5.28,0,0,0-.29-.69,5.71,5.71,0,0,0-.35-.64l-.07-.11a1.13,1.13,0,0,0-.13-.2h0a5.9,5.9,0,0,0-.44-.58s0,0,0,0a4.72,4.72,0,0,0-.37-.41,3.44,3.44,0,0,0-.4-.37,3.34,3.34,0,0,0-.47-.4l-.09-.07a.21.21,0,0,0-.08-.06,5.49,5.49,0,0,0-.54-.35A2.46,2.46,0,0,0,181,311s-.05,0-.08,0a4.09,4.09,0,0,0-.42-.2,3.56,3.56,0,0,0-.41-.17,3.61,3.61,0,0,0-.46-.17l-.5-.13a3.55,3.55,0,0,0-.47-.09l-.09,0a3,3,0,0,0-.43-.06h0a6.51,6.51,0,0,0-.77,0h-.27a3.15,3.15,0,0,0-.44,0h-.05l-.26,0-.15,0-.1,0a4.51,4.51,0,0,0-.53.1l-.48.13-.08,0-.28.1a2.48,2.48,0,0,0-.35.13l-.34.16-.19.09a4.17,4.17,0,0,0-.46.26,3.83,3.83,0,0,0-.61.41,3.93,3.93,0,0,0-.57.47,3.44,3.44,0,0,0-.4.37,4.72,4.72,0,0,0-.37.41s0,0,0,0a5.9,5.9,0,0,0-.44.58h0a1.13,1.13,0,0,0-.13.2l-.07.11a5.71,5.71,0,0,0-.35.64,5.28,5.28,0,0,0-.29.69,5.88,5.88,0,0,0-.23.71,7.08,7.08,0,0,0-.16.8l0,.23c0,.13,0,.25,0,.38s0,.31,0,.47v0c0,.3,0,.6.05.9s.09.58.15.86a7.93,7.93,0,0,0,.25.83c0,.13.1.26.16.39h0l.18.38h0a2.5,2.5,0,0,0-.54.54,2.44,2.44,0,0,0-.28.43,18.83,18.83,0,0,1-3.15,4.25c-.38.39-.79.79-1.21,1.18l-.66.58a29.65,29.65,0,0,1-2.9,2.18c-.26.17-.52.34-.79.5a23.92,23.92,0,0,1-5.12,2.4,16.56,16.56,0,0,1-13-.82c-5.75-2.92-14.61-11.66-22.56-20.29h0c-.69-.76-1.38-1.51-2-2.26a56.83,56.83,0,0,0,20.31-33.46l1.05.58,49.3,27.39c5.71,3.16,10.57,6.12,12.31,10.31C202.6,318.17,201.81,322.84,200.44,328.11Z" />
      <path class="BUNTAI_OTTER_OUTFIT_BUNTAI_OTTER_OUTFIT_31_cls-8" d="M183.18,358.21c5.45-1.32,10.6-3.45,14.48-7.37,4.28-4.34,6.37-10.25,8.05-16.15" />
      <path class="BUNTAI_OTTER_OUTFIT_BUNTAI_OTTER_OUTFIT_31_cls-8" d="M171.55,360.16q-4.78.61-9.59,1.12h0c-1.2.13-2.38.25-3.58.36l-.64.06-.22,0-.22,0-.14,0h-.05l-.58.06-4.18.37-3.78.3h-.16c-1,.08-1.89.14-2.83.2l-.53,0-1.2.08-.88.05c-.33,0-.66.05-1,.06l-.76.05-.27,0-2.39.13-.64,0c-.83,0-1.65.09-2.48.12l-.7,0-1.64.07q-3.32.14-6.63.22l-1.91,0-3.17.05-3.62,0h-2.47l-1.84,0-2-.05-.92,0H110c-.59,0-1.18,0-1.78-.08s-1.41-.06-2.11-.11l-2.12-.14h-.14l-.82-.06-.32,0-1-.08-.28,0-.17,0-1.21-.12L99,362.81l-.32,0-.35,0-.19,0h-.05l-.23,0h-.1l-.16,0h-.17l-.08,0L96,362.43l-.33,0-.11,0h-.26l-.59-.08-.6-.08-.11,0-1.43-.23H92.5l-.11,0-.38-.06-.55-.1-1-.18-.78-.15-.17,0-.37-.08-.22,0-.59-.12-.17,0L88,361l-.44-.1-.13,0-.22-.05h-.08l-.18,0-.12,0q-.36-.07-.72-.18l-.22-.05-.2-.05h-.08l-.34-.08-.35-.09L83.64,360q-.69-.18-1.38-.39l-.12,0-.49-.14-.32-.1-.67-.21-.52-.16h0c-.28-.09-.55-.17-.82-.27l-.74-.25-.05,0-.79-.28-.9-.32-.9-.34L74.82,357l-.7-.29-.42-.17-.16-.07-.16-.07-.22-.1-1-.46-.1,0-.69-.32-.77-.36-.38-.19-.4-.19-.54-.27-.5-.26-.11-.06c-.31-.16-.62-.32-.92-.49l-.63-.35c-.21-.11-.43-.22-.63-.34,0,0,0,0,0,0l0,0-1.25-.74h0l-.74-.47c-.3-.17-.59-.36-.88-.55l-.79-.52c-1.31-.88-2.61-1.82-3.84-2.8h0a49.81,49.81,0,0,1-9.24-9.5" />
      <path class="BUNTAI_OTTER_OUTFIT_BUNTAI_OTTER_OUTFIT_31_cls-8" d="M139.23,269l2.13,1.19,50.73,28.17c6.1,3.38,12.62,7.22,15.29,13.63,2.24,5.39,1.26,11.43-.19,17.18" />
      <path class="BUNTAI_OTTER_OUTFIT_BUNTAI_OTTER_OUTFIT_31_cls-8" d="M138.42,276.26l1.05.58,49.3,27.39c5.71,3.16,10.57,6.12,12.31,10.31,1.52,3.63.73,8.3-.64,13.57" />
      <path class="BUNTAI_OTTER_OUTFIT_BUNTAI_OTTER_OUTFIT_31_cls-8" d="M56.87,336.54a46.08,46.08,0,0,0,8.92,8l0,0a63.51,63.51,0,0,0,19.58,8.88c9,2.43,19,3.52,32.32,3.52,2.06,0,4.24,0,6.66-.07a439.53,439.53,0,0,0,47.81-3.64" />
      <path class="BUNTAI_OTTER_OUTFIT_BUNTAI_OTTER_OUTFIT_31_cls-8" d="M182.34,351.47c4.11-1.06,7.81-2.67,10.46-5.36,3.09-3.12,4.82-7.88,6.16-12.56" />
      <path class="BUNTAI_OTTER_OUTFIT_BUNTAI_OTTER_OUTFIT_31_cls-8" d="M184.52,320.26a7.44,7.44,0,0,0,.46-2.6,7.67,7.67,0,0,0-15.34,0,7.55,7.55,0,0,0,.78,3.36,7.67,7.67,0,0,0,4.12,3.74,7.65,7.65,0,0,0,6.16-.27" />
      <path class="BUNTAI_OTTER_OUTFIT_BUNTAI_OTTER_OUTFIT_31_cls-8" d="M170.43,321h0a2.5,2.5,0,0,0-.54.54,2.44,2.44,0,0,0-.28.43,18.83,18.83,0,0,1-3.15,4.25c-.38.39-.79.79-1.21,1.18l-.66.58-.68.57-.36.28-.36.28q-.72.56-1.5,1.05c-.26.18-.52.34-.79.5a23.92,23.92,0,0,1-5.12,2.4,16.56,16.56,0,0,1-13-.82c-5.75-2.92-14.61-11.66-22.56-20.29h0c-.69-.76-1.38-1.51-2-2.26" />
      <path class="BUNTAI_OTTER_OUTFIT_BUNTAI_OTTER_OUTFIT_31_cls-8" d="M113.54,313.09q1.42,1.59,2.93,3.21h0c2.1,2.27,4.26,4.53,6.43,6.71h0l0,0v0h0l0,0a134.53,134.53,0,0,0,10.53,9.66c.46.38.93.74,1.38,1.08l.17.12a34.93,34.93,0,0,0,5.06,3.3,21.72,21.72,0,0,0,9.92,2.39,24.12,24.12,0,0,0,7.49-1.23c.58-.18,1.16-.4,1.73-.63l.83-.35.05,0,.2-.09.31-.14.07,0,.19-.09a6.39,6.39,0,0,0,.65-.31c.4-.2.79-.4,1.18-.62l.92-.53a4.11,4.11,0,0,0,.39-.24c.22-.13.43-.26.63-.4l.51-.33.54-.38.53-.38.75-.57.11-.08c.24-.19.49-.39.71-.58s.41-.34.61-.51a31,31,0,0,0,2.76-2.73l.39-.45c.31-.34.59-.69.86-1s.36-.47.53-.71.26-.35.38-.53.34-.51.49-.76l0,0a9,9,0,0,0,.46-.79h0l0,0h0l.16-.29" />
      <path class="BUNTAI_OTTER_OUTFIT_BUNTAI_OTTER_OUTFIT_31_cls-8" d="M209.47,428q-3.09-3.18-5.77-6.54-2.22-2.78-4.2-5.65a118.05,118.05,0,0,1-13.91-27.57" />
      <path class="BUNTAI_OTTER_OUTFIT_BUNTAI_OTTER_OUTFIT_31_cls-8" d="M46.73,389c-9.74,15.89-23.26,32.43-24.92,35.7s-3,22.95-3,22.95h86" />
      <path class="BUNTAI_OTTER_OUTFIT_BUNTAI_OTTER_OUTFIT_31_cls-8" d="M62.73,350.68c-3.33,7.24-14,30.82-16,38.29" />
      <path class="BUNTAI_OTTER_OUTFIT_BUNTAI_OTTER_OUTFIT_31_cls-8" d="M102.66,366.87a119.35,119.35,0,0,0-7.57,27c-2.58,16.27-2.29,37,9.75,53.79a54.65,54.65,0,0,0,7,8" />
      <path class="BUNTAI_OTTER_OUTFIT_BUNTAI_OTTER_OUTFIT_31_cls-8" d="M93.78,368.18s-3.45,17.44,1.31,25.67" />
      <path class="BUNTAI_OTTER_OUTFIT_BUNTAI_OTTER_OUTFIT_31_cls-8" d="M93.83,406.68s-8.08-23.54-11.2-22.44-1.15,11.2-1.15,11.2" />
      <path class="BUNTAI_OTTER_OUTFIT_BUNTAI_OTTER_OUTFIT_31_cls-8" d="M46.73,389v0c.6-.62,20.91-21.52,22.86-19.36s-9,17.47-9,17.47" />
      <path class="BUNTAI_OTTER_OUTFIT_BUNTAI_OTTER_OUTFIT_31_cls-8" d="M133.07,363.4c.53,8.6,3.63,35.28,21.65,48.13,11.11,7.92,26.15,9.35,44.78,4.26" />
      <path class="BUNTAI_OTTER_OUTFIT_BUNTAI_OTTER_OUTFIT_31_cls-8" d="M126.45,363.6c.51,9.4,3.74,38.49,24.39,53.24,7.94,5.67,17.46,8.51,28.46,8.51a86.57,86.57,0,0,0,24.4-3.91" />
      <line class="BUNTAI_OTTER_OUTFIT_BUNTAI_OTTER_OUTFIT_31_cls-8" x1="177.31" y1="325.28" x2="177.31" y2="344.38" />
      <path class="BUNTAI_OTTER_OUTFIT_BUNTAI_OTTER_OUTFIT_31_cls-8" d="M182.34,352.57H172.28v-3.2a5,5,0,0,1,10.06,0v3.2Z" />
      <path class="BUNTAI_OTTER_OUTFIT_BUNTAI_OTTER_OUTFIT_31_cls-8" d="M182.34,352.57s.33,2.28.84,5.64c.75,5.05,1.91,12.56,3,18.5.28,1.6.56,3.09.82,4.37a32.21,32.21,0,0,0,1.1,4.47c.44,1.14-.63,2-2.48,2.67a18.38,18.38,0,0,1-2.92.71,38.92,38.92,0,0,1-6.2.5,33.76,33.76,0,0,1-4.07-.22,10.22,10.22,0,0,1-2.92-.72c-3.86-1.85.76-15.28,1.31-20.74.22-2.15.5-5,.75-7.59.3-3,.55-5.65.66-6.89.05-.45.08-.7.08-.7" />
      <path class="BUNTAI_OTTER_OUTFIT_BUNTAI_OTTER_OUTFIT_31_cls-8" d="M172.4,389.21c-.9-7.76,2-29.39,3.07-36.64" />
      <path class="BUNTAI_OTTER_OUTFIT_BUNTAI_OTTER_OUTFIT_31_cls-8" d="M176.47,389.43c-.23-8.81.9-28.92,1.38-36.86" />
      <path class="BUNTAI_OTTER_OUTFIT_BUNTAI_OTTER_OUTFIT_31_cls-8" d="M179.82,352.57c.66,8.37,2.26,28.88,2.85,36.36" />
      <path class="BUNTAI_OTTER_OUTFIT_BUNTAI_OTTER_OUTFIT_31_cls-8" d="M289.07,270.35l-11.58,6.43c-16.88,9.38-33.76,12.19-50.64,21.56-6.1,3.38-12.61,7.22-15.28,13.63-2.24,5.38-1.28,11.41.17,17.16" />
      <path class="BUNTAI_OTTER_OUTFIT_BUNTAI_OTTER_OUTFIT_31_cls-8" d="M370.12,337.2c-.25.37-.51.74-.78,1.1-.42.58-.86,1.14-1.31,1.7a.59.59,0,0,1-.08.11,51.21,51.21,0,0,1-6.92,7,59.08,59.08,0,0,1-4.82,3.59l-.85.55h0c-.4.26-.8.52-1.2.76-.25.17-.51.32-.77.47l-.1.06h0c-.08.06-.17.1-.25.15l-.18.09,0,0c-.17.1-.35.21-.53.3l-.61.35-.85.46-.23.12-.82.42-1,.5-.62.3-.54.25-1.08.5-.68.3-1.45.61-.07,0-1.46.57-1.41.53a1.15,1.15,0,0,1-.17.06l-.38.14-.1,0h0l-.64.22-.29.1-.79.26-1,.32c-.91.28-1.84.55-2.76.8l-.21.06c-.53.14-1,.28-1.58.4l-.3.07-1.25.3-1,.22-.4.08-.94.19-.24.05-.24,0-.14,0-.17,0-.32.06-.12,0-.24,0-.52.1-.42.07-.54.1-.32.06h-.14l-.11,0-.9.14-.52.08-.25,0-.13,0h-.13q-.72.12-1.47.21l-.19,0-.11,0-1.18.14-1.2.14-1.35.15-.2,0-.83.08-.63.06-1.31.1h-.1l-.26,0h-.18l-.17,0-.21,0-.46,0h-.06l-.5,0-.54,0-1.28.08h-.35l-.47,0-.76,0-.58,0-1.09,0h-1.06l-1.74,0h-.42l-1.85,0h-2.43l-3.41,0-3.41-.05-1.91,0q-3.32-.09-6.63-.22l-1.74-.07-3.08-.15-3.61-.2-.35,0-2.21-.14-1.05-.07-3.12-.22-4.1-.32-4.81-.43-4.8-.49-1.15-.12-1.12-.12-.64-.07-.48,0-.42-.05-1-.12L251,360.6l-.39-.05c-1.07-.12-2.13-.26-3.2-.39" />
      <path class="BUNTAI_OTTER_OUTFIT_BUNTAI_OTTER_OUTFIT_31_cls-8" d="M213.22,334.65c1.68,5.91,3.76,11.84,8.06,16.19,3.88,3.92,9,6.05,14.48,7.37" />
      <path class="BUNTAI_OTTER_OUTFIT_BUNTAI_OTTER_OUTFIT_31_cls-8" d="M220,333.43c1.34,4.72,3.07,9.53,6.18,12.68,2.65,2.69,6.35,4.3,10.46,5.36" />
      <path class="BUNTAI_OTTER_OUTFIT_BUNTAI_OTTER_OUTFIT_31_cls-8" d="M246.73,353.27a439.72,439.72,0,0,0,47.81,3.64c2.42,0,4.6.07,6.65.07,13.37,0,23.35-1.09,32.34-3.52a63.37,63.37,0,0,0,20-9.18l0,0c1-.73,2-1.48,2.95-2.26.39-.32.77-.64,1.14-1,.91-.79,1.78-1.62,2.6-2.47.22-.21.43-.44.62-.66a2,2,0,0,0,.25-.26c.28-.3.55-.6.8-.9" />
      <path class="BUNTAI_OTTER_OUTFIT_BUNTAI_OTTER_OUTFIT_31_cls-8" d="M290.43,277.3l-11,6.15-49.22,20.78-2.09,1.18c-.63.36-1.23.71-1.82,1.07l-1.12.7-.91.6-.76.52-.11.08-.79.59-.23.18-.59.48-.46.4-.27.24h0l-.16.15-.18.18c-.11.11-.22.21-.33.33a11.76,11.76,0,0,0-1.19,1.38,7.11,7.11,0,0,0-.5.72,9.11,9.11,0,0,0-.8,1.51c-.07.17-.14.35-.2.53a9.66,9.66,0,0,0-.4,1.54,3.91,3.91,0,0,0-.07.39c0,.11,0,.23,0,.35a3.87,3.87,0,0,0,0,.49c-.26,3,.41,6.41,1.37,10.15" />
      <path class="BUNTAI_OTTER_OUTFIT_BUNTAI_OTTER_OUTFIT_31_cls-8" d="M234.33,320a7.49,7.49,0,0,1-.38-2.37,7.68,7.68,0,0,1,15.35,0,7.56,7.56,0,0,1-.79,3.36,7.68,7.68,0,0,1-4.11,3.74,7.7,7.7,0,0,1-6.43-.4" />
      <path class="BUNTAI_OTTER_OUTFIT_BUNTAI_OTTER_OUTFIT_31_cls-8" d="M244.4,324.76c.14.25.28.51.44.77a0,0,0,0,0,0,0,31.23,31.23,0,0,0,11.81,10.86,3.13,3.13,0,0,0,.36.19,30,30,0,0,0,4.27,1.8c.19.07.39.12.58.18a24.4,24.4,0,0,0,7,1.08,21.62,21.62,0,0,0,9.91-2.39,38,38,0,0,0,6-4l.25-.18c2.35-1.87,4.87-4.12,7.44-6.58.86-.82,1.72-1.66,2.59-2.52l.09-.09a2.72,2.72,0,0,1,.24-.24l.23-.23,0-.05c2.27-2.26,4.55-4.64,6.74-7,1-1.09,2-2.18,3-3.25.49-.53,1-1.07,1.44-1.6.25-.27.49-.55.73-.82" />
      <path class="BUNTAI_OTTER_OUTFIT_BUNTAI_OTTER_OUTFIT_31_cls-8" d="M248.52,321a2.81,2.81,0,0,1,.82,1,18.83,18.83,0,0,0,3.15,4.25c.38.39.79.79,1.21,1.18l.66.58.68.57c.24.19.47.38.72.56q.72.56,1.5,1.05c.26.18.52.34.79.5a24.15,24.15,0,0,0,5.12,2.4,16.56,16.56,0,0,0,13-.82c5.75-2.93,14.64-11.68,22.59-20.32,1.79-1.94,3.53-3.88,5.18-5.75" />
      <path class="BUNTAI_OTTER_OUTFIT_BUNTAI_OTTER_OUTFIT_31_cls-8" d="M233.34,388.22a118,118,0,0,1-13.9,27.57q-2,2.88-4.2,5.65c-1.8,2.24-3.71,4.42-5.77,6.54" />
      <path class="BUNTAI_OTTER_OUTFIT_BUNTAI_OTTER_OUTFIT_31_cls-8" d="M372.2,389c-2-7.47-12.66-31.05-16-38.29" />
      <path class="BUNTAI_OTTER_OUTFIT_BUNTAI_OTTER_OUTFIT_31_cls-8" d="M314.1,447.64h86s-1.32-19.67-3-22.95-15.18-19.81-24.91-35.7" />
      <path class="BUNTAI_OTTER_OUTFIT_BUNTAI_OTTER_OUTFIT_31_cls-8" d="M325.1,406.68c.46,13.5-2,28.35-11,41a54.73,54.73,0,0,1-7,8H111.84" />
      <path class="BUNTAI_OTTER_OUTFIT_BUNTAI_OTTER_OUTFIT_31_cls-8" d="M316.28,366.87a119,119,0,0,1,7.56,27,104.67,104.67,0,0,1,1.26,12.82" />
      <path class="BUNTAI_OTTER_OUTFIT_BUNTAI_OTTER_OUTFIT_31_cls-8" d="M325.15,368.18s3.45,17.44-1.31,25.67" />
      <path class="BUNTAI_OTTER_OUTFIT_BUNTAI_OTTER_OUTFIT_31_cls-8" d="M325.1,406.68h0c.2-.58,8.12-23.52,11.2-22.43s1.15,11.2,1.15,11.2" />
      <path class="BUNTAI_OTTER_OUTFIT_BUNTAI_OTTER_OUTFIT_31_cls-8" d="M372.21,389v0c-.61-.62-20.92-21.52-22.87-19.36s9,17.47,9,17.47" />
      <path class="BUNTAI_OTTER_OUTFIT_BUNTAI_OTTER_OUTFIT_31_cls-8" d="M219.44,415.79c18.62,5.09,33.66,3.66,44.77-4.26,18-12.85,21.12-39.53,21.65-48.13" />
      <path class="BUNTAI_OTTER_OUTFIT_BUNTAI_OTTER_OUTFIT_31_cls-8" d="M215.24,421.44a86.51,86.51,0,0,0,24.39,3.91c11,0,20.52-2.84,28.46-8.51C288.74,402.09,292,373,292.49,363.6" />
      <line class="BUNTAI_OTTER_OUTFIT_BUNTAI_OTTER_OUTFIT_31_cls-8" x1="241.62" y1="325.28" x2="241.62" y2="344.38" />
      <path class="BUNTAI_OTTER_OUTFIT_BUNTAI_OTTER_OUTFIT_31_cls-8" d="M236.59,352.57h10.06v-3.2a5,5,0,0,0-5-5,5,5,0,0,0-5,5v3.2Z" />
      <path class="BUNTAI_OTTER_OUTFIT_BUNTAI_OTTER_OUTFIT_31_cls-8" d="M246.65,352.57s0,.25.08.7c.11,1.24.37,3.94.66,6.89.26,2.62.54,5.44.76,7.59.54,5.46,5.16,18.89,1.31,20.74a10.21,10.21,0,0,1-2.93.72,33.65,33.65,0,0,1-4.07.22,38.89,38.89,0,0,1-6.19-.5,18.25,18.25,0,0,1-2.93-.71c-1.85-.64-2.91-1.53-2.47-2.67a31.79,31.79,0,0,0,1-3.95c.24-1.13.48-2.42.73-3.83,1.11-6.08,2.37-14.2,3.17-19.56.5-3.36.83-5.64.83-5.64" />
      <path class="BUNTAI_OTTER_OUTFIT_BUNTAI_OTTER_OUTFIT_31_cls-8" d="M243.46,352.57c1,7.25,4,28.88,3.07,36.64" />
      <path class="BUNTAI_OTTER_OUTFIT_BUNTAI_OTTER_OUTFIT_31_cls-8" d="M241.08,352.57c.49,7.94,1.62,28.05,1.38,36.86" />
      <path class="BUNTAI_OTTER_OUTFIT_BUNTAI_OTTER_OUTFIT_31_cls-8" d="M236.27,388.93c.59-7.48,2.19-28,2.84-36.36" />
      <path class="BUNTAI_OTTER_OUTFIT_BUNTAI_OTTER_OUTFIT_31_cls-8" d="M213.22,334.65c-1.34.13-2.67.2-4,.2q-1,0-2.07-.06c-.49,0-1-.05-1.44-.1a40.8,40.8,0,0,1-6.75-1.14,50.26,50.26,0,0,1-18.26-9.06,42.59,42.59,0,0,1-5.51-5,2.8,2.8,0,0,1,.24-4,2.86,2.86,0,0,1,4,.24,38.93,38.93,0,0,0,5.09,4.47h0a45,45,0,0,0,15.92,7.85,36.33,36.33,0,0,0,6.75,1l.3,0a35.83,35.83,0,0,0,11-1.18,47.11,47.11,0,0,0,15.87-8,68.63,68.63,0,0,0,5.38-4.44,2.84,2.84,0,0,1,4,.17,2.79,2.79,0,0,1-.17,4c-1.84,1.69-3.7,3.22-5.57,4.63h0a52.81,52.81,0,0,1-18,9.07A41.38,41.38,0,0,1,213.22,334.65Z" />
      <path class="BUNTAI_OTTER_OUTFIT_BUNTAI_OTTER_OUTFIT_31_cls-8" d="M186.15,376.71s9.72-4,14.89-7.54,16.5-1.09,21.56,3.77,9.91,4.83,10,4.83" />
      <path class="BUNTAI_OTTER_OUTFIT_BUNTAI_OTTER_OUTFIT_31_cls-8" d="M231.86,381.6s-7.73-1-12.42-4.3-11.09-5.24-16.26-3.65-12.85,6.94-16.21,7.43" />
      <g class="BUNTAI_OTTER_OUTFIT_BUNTAI_OTTER_OUTFIT_31_cls-9">
        <path d="M146.53,273.05c-.42,1.88-1.06,4.14-1.89,6.67C141.24,290,144,302,120.74,312.6l-.58-.62c-5.69-1.45-3.79,4-3.69,4.32h0S88.19,335.2,65.84,344.58l0,0c-5.47-3.31-8.05,1-6.9,3.3h0a37.77,37.77,0,0,1-9.26-9.5h0c2-.46,4.43-1.06,7.22-1.82a238.77,238.77,0,0,0,51-20c2-1.1,3.9-2.24,5.66-3.44s3.15-2.22,4.57-3.37a56.83,56.83,0,0,0,20.31-33.46,39.89,39.89,0,0,0,.81-7.28Z" />
        <path d="M63.52,351.2S56.07,366.76,52.39,374a96.75,96.75,0,0,0-6,15.49s-21.79,31.74-24,34.25-3.52,23.88-3.52,23.88H46.73s9.12-17.87,20.67-43.31,11.11-15.29,6.38,4.91c18.37-36.69,18.79-47.31,18.79-47.31S80,359,71.2,355.14,63.52,351.2,63.52,351.2Z" />
        <path d="M102.66,366.87S99.35,407.49,116,429s59.83,34.72,93.35,14.41v12.29H111.84a59.67,59.67,0,0,1-16.28-32.34c-4.78-17.45-8.21-32.22-8.21-32.22l5.22,8.33s-3.11-13.41-1.3-26.34c1.37,10.52,4.86,15.14,4.86,15.14S99,371.78,102.66,366.87Z" />
        <path d="M134.72,363.32s9.46,31.4,27.27,40.79,33.45,5.33,33.45,5.33l3.51,6.5s-24.69,7.77-39.87-1.73S134.94,391.2,134.72,363.32Z" />
        <path d="M122.91,323S137,342.4,146.54,344s22.19-5.37,28.38-19.62c-7.26,9.34-13.61,14.34-22.85,15.07S132.44,333.81,122.91,323Z" />
        <path d="M361.92,336.74q3.91.36,8.1.45c-.61.94-1.27,1.88-2,2.81a.59.59,0,0,1-.08.11,38,38,0,0,1-6.92,7c-.35.27-.71.53-1.08.79,1.12-2.21-1.26-6.35-6.39-3.61l0,0-.53.3c-21.76-9.13-49.17-27.3-50.58-28.23l-.06,0s2.13-5.73-3.56-4.36a.5.5,0,0,1-.13,0c-9.19-10.26-15.88-18.25-19.28-28.53-.84-2.53-1.47-4.79-1.9-6.67a.43.43,0,0,1,0,0l11.58-6.43a.11.11,0,0,0,0,.05,57.83,57.83,0,0,0,1.36,6.95A83.87,83.87,0,0,0,304,306.2c1.11,1.51,2.31,3,3.58,4.48C318.37,323.17,335.34,334.32,361.92,336.74Z" />
        <path d="M355.32,351.2s7.44,15.56,11.13,22.82a97.87,97.87,0,0,1,6,15.49s21.78,31.74,24,34.25S400,447.64,400,447.64H372.11s-9.13-17.87-20.68-43.31-11.11-15.29-6.38,4.91c-18.36-36.69-18.79-47.31-18.79-47.31s12.61-3,21.38-6.79S355.32,351.2,355.32,351.2Z" />
        <path d="M316.18,366.87s3.3,40.62-13.36,62.08S243,463.67,209.47,443.36v12.29H307a59.6,59.6,0,0,0,16.28-32.34c4.79-17.45,8.22-32.22,8.22-32.22l-5.23,8.33s3.12-13.41,1.31-26.34c-1.38,10.52-4.86,15.14-4.86,15.14S319.81,371.78,316.18,366.87Z" />
        <path d="M284.12,363.32s-9.46,31.4-27.28,40.79-33.44,5.33-33.44,5.33l-3.51,6.5s24.69,7.77,39.87-1.73S283.9,391.2,284.12,363.32Z" />
        <path d="M295.93,323s-14.07,19.37-23.63,21-22.19-5.37-28.38-19.62c7.26,9.34,13.61,14.34,22.85,15.07S286.4,333.81,295.93,323Z" />
      </g>
      <path class="BUNTAI_OTTER_OUTFIT_BUNTAI_OTTER_OUTFIT_31_cls-8" d="M209.37,367.59s-.66-6.8-4.55-10.5" />
      <path class="BUNTAI_OTTER_OUTFIT_BUNTAI_OTTER_OUTFIT_31_cls-8" d="M213.92,357.09s-4.25,3.8-5,7.81" />
      <path class="BUNTAI_OTTER_OUTFIT_BUNTAI_OTTER_OUTFIT_31_cls-8" d="M139.23,269a39.89,39.89,0,0,1-.81,7.28,56.83,56.83,0,0,1-20.31,33.46c-1.42,1.15-2.94,2.28-4.57,3.37s-3.65,2.34-5.66,3.44a238.77,238.77,0,0,1-51,20c-2.79.76-5.23,1.36-7.22,1.82h0" />
      <path class="BUNTAI_OTTER_OUTFIT_BUNTAI_OTTER_OUTFIT_31_cls-8" d="M289.06,270.29h0a.11.11,0,0,0,0,.05,57.83,57.83,0,0,0,1.36,6.95A83.87,83.87,0,0,0,304,306.2c1.11,1.51,2.31,3,3.58,4.48,10.81,12.49,27.78,23.64,54.36,26.06q3.91.36,8.1.45h.1" />
    </g>
  </g>
</svg>