<svg xmlns="http://www.w3.org/2000/svg" viewBox="0 0 432 432">
  <defs>
    <style>.BUNTAI_OTTER_OUTFIT_BUNTAI_OTTER_OUTFIT_18_cls-1{isolation:isolate;}.BUNTAI_OTTER_OUTFIT_BUNTAI_OTTER_OUTFIT_18_cls-2{fill:#0e1b3b;}.BUNTAI_OTTER_OUTFIT_BUNTAI_OTTER_OUTFIT_18_cls-3{fill:#471e7c;}.BUNTAI_OTTER_OUTFIT_BUNTAI_OTTER_OUTFIT_18_cls-4{fill:#fff;}.BUNTAI_OTTER_OUTFIT_BUNTAI_OTTER_OUTFIT_18_cls-5{fill:#06041a;}.BUNTAI_OTTER_OUTFIT_BUNTAI_OTTER_OUTFIT_18_cls-6{fill:#c00321;}.BUNTAI_OTTER_OUTFIT_BUNTAI_OTTER_OUTFIT_18_cls-7{fill:none;stroke:#000;stroke-linecap:round;stroke-linejoin:round;stroke-width:1.81px;}.BUNTAI_OTTER_OUTFIT_BUNTAI_OTTER_OUTFIT_18_cls-8{opacity:0.43;mix-blend-mode:multiply;}</style>
  </defs>
  <g class="BUNTAI_OTTER_OUTFIT_BUNTAI_OTTER_OUTFIT_18_cls-1">
    <g id="outfit">
      <path class="BUNTAI_OTTER_OUTFIT_BUNTAI_OTTER_OUTFIT_18_cls-2" d="M124.19,282.85l-15.82,5.8c-.44-.64-.91-1.29-1.38-2-.83-1.19-1.7-2.42-2.58-3.66-3.89-5.47-3-8-1.9-9.12a2.91,2.91,0,0,1,1.12-.75c9,.42,20.14,6.89,20.14,6.89C123.87,281,124,281.92,124.19,282.85Z" />
      <path class="BUNTAI_OTTER_OUTFIT_BUNTAI_OTTER_OUTFIT_18_cls-3" d="M69.21,437.61,59.07,409.77s3.06,1.48,6.52,3.48a23.3,23.3,0,0,0-.29,6.12,2.3,2.3,0,0,0,2.42,1.83H68A2.16,2.16,0,0,0,70.13,419a16.23,16.23,0,0,1,0-2.88c2.47,1.72,4.5,3.49,5,4.91,1.39,4.17-.74,17.19-1.59,21.45s-19.78,10.09-30.51,5h0C55.52,446.25,69.21,437.61,69.21,437.61Z" />
      <path class="BUNTAI_OTTER_OUTFIT_BUNTAI_OTTER_OUTFIT_18_cls-3" d="M55.39,399.64l-.67-1.84c6.34-.12,16.06-1.3,16.18-2.42.09-.64-1.08-9.29-2.55-20,0,0,3.1,1.77,6.48,4a22,22,0,0,0-2.15,6.14,2.13,2.13,0,0,0,2.11,2.25l.29,0a2.32,2.32,0,0,0,2.42-1.79A15.64,15.64,0,0,1,78.77,382c3.84,3.07,4.23,7.1,2.41,11.63-1.91,4.72-3.4,16.36-7.65,16.71a5.58,5.58,0,0,1-2.3-.48c.63-2.45,1.28-4.27,1.3-4.31a2,2,0,0,0-1.63-2.53,2.55,2.55,0,0,0-3,1.36c-.05.15-.51,1.41-1,3.27A122.24,122.24,0,0,1,55.39,399.64Z" />
      <path class="BUNTAI_OTTER_OUTFIT_BUNTAI_OTTER_OUTFIT_18_cls-3" d="M80.19,360.9a2,2,0,0,0,1.65,2.52,2.58,2.58,0,0,0,.68.08A2.43,2.43,0,0,0,84.86,362,17.78,17.78,0,0,1,86,359.61c2.27,1.88,4.13,3.68,4.41,4.64.78,2.72-2.76,9.22-3.89,12.34-.94,2.59-1.83,5.39-6.37,2.73h0c.93-1.72,1.86-3.22,2.4-4a1.86,1.86,0,0,0-.93-2.76,2.71,2.71,0,0,0-3.32.79c-.09.12-.94,1.39-2,3.2-7.31-6.13-8.94-8.23-8.94-8.23h0l-.18-1.4h0l10.52-2.51-1.4-10.87s0-.4,0-1.11c0,0,2.8,1.92,5.9,4.28A24.58,24.58,0,0,0,80.19,360.9Z" />
      <path class="BUNTAI_OTTER_OUTFIT_BUNTAI_OTTER_OUTFIT_18_cls-3" d="M117.8,331.4c-5,4-7.39,6.33-9.21,7.08a3.68,3.68,0,0,1-.49.18,2.66,2.66,0,0,1-1.74-.09,6.62,6.62,0,0,1-1.55-1.12c-.63-.56-1.39-1.29-2.22-2.16,1-.85,1.94-1.62,2.73-2.25h0c1.24-1,2.09-1.62,2.12-1.64a3,3,0,0,0,.32-.29,1.94,1.94,0,0,0,.21-.29.75.75,0,0,0,.07-.12,1.53,1.53,0,0,0,.11-.27,1.37,1.37,0,0,0,.08-.35h0a.65.65,0,0,0,0-.24,2.19,2.19,0,0,0-.16-.69,1.69,1.69,0,0,0-.45-.61,2.78,2.78,0,0,0-3.43-.15c-.14.11-1.92,1.44-4.14,3.28a2.92,2.92,0,0,1-.32.28l-.11.09h0c-.47-.53-.93-1.07-1.4-1.62-.61-.73-1.22-1.46-1.8-2.18-1.17-1.47-2.24-2.87-3-4.06-.12-.18-.25-.35-.36-.52a14.84,14.84,0,0,1-.88-1.45c0-.09-.09-.17-.12-.25s-.1-.22-.15-.32l17.06-16.28c3,3.17,9.39,9.64,13,12.47a8.26,8.26,0,0,1,.76.67h0C126.5,322.12,124.56,326,117.8,331.4Z" />
      <path class="BUNTAI_OTTER_OUTFIT_BUNTAI_OTTER_OUTFIT_18_cls-3" d="M102.51,340.33c1.9,3.19.48,6.31-3,10.66s-4.16,6.41-7.67,5.58a9.58,9.58,0,0,1-2.95-1.51c1.39-1.89,2.57-3.26,2.6-3.29a1.81,1.81,0,0,0-.54-2.83,2.73,2.73,0,0,0-3.39.44c-.08.1-1.06,1.2-2.28,2.81a44.89,44.89,0,0,1-6.74-7.34,16.75,16.75,0,0,0,6.38-2.4c.1-.73,1.62-7.09,3.58-14.75,0,0,4.36,3.4,8.27,6.82a40.24,40.24,0,0,0-4.39,4.58,1.84,1.84,0,0,0,.7,2.81,2.73,2.73,0,0,0,1.33.33,2.56,2.56,0,0,0,2-.92,37.62,37.62,0,0,1,3.61-3.79A16.77,16.77,0,0,1,102.51,340.33Z" />
      <path class="BUNTAI_OTTER_OUTFIT_BUNTAI_OTTER_OUTFIT_18_cls-3" d="M133.25,287.72l9.05,10.58s-8.19-3-12.7-2.57-4.72,11.6-4.72,11.6l2.88,7.15-2,2.58-3.85,1.34-5.32-4.31-7.34-7.72s7.87-2.77,8.22-3.06,12.15-10.53,12.15-10.53Z" />
      <path class="BUNTAI_OTTER_OUTFIT_BUNTAI_OTTER_OUTFIT_18_cls-3" d="M138.15,277.17l.71-7.94.35-1.28-.51-.59-.59-1s-9.85-2.82-13.23,3.93a15.49,15.49,0,0,0-.69,12.6l-15.82,5.8,6.8,9.87-6.26,6.83,8.36,7.88,5.93-5.73,1.41-.86s-.07-7.4,3.73-9.05l3.79-1.65,5.81-15.2-.18-1.39,0-1.24Z" />
      <path class="BUNTAI_OTTER_OUTFIT_BUNTAI_OTTER_OUTFIT_18_cls-3" d="M145,304.81a.67.67,0,0,1-.47.49c-1.35.36-7.29-6.73-12.32-3.6s-1.35,10.75-1.35,10.75l-1,1.06h0l0,0-1.6,1.72s-7.84-11.73-1.25-16.76a15.32,15.32,0,0,1,3.76-2.17l.35-.12.36-.12c.35-.1.68-.18,1-.24l.3-.05.42-.05.3,0c3.39-.21,6.07,1.79,8.07,4.5C142.71,301.78,143.87,303.3,145,304.81Z" />
      <path class="BUNTAI_OTTER_OUTFIT_BUNTAI_OTTER_OUTFIT_18_cls-3" d="M115.52,299l-6.61,6.31L91.85,321.63l-2.36,2.25c-.34,1.29-.67,2.57-1,3.82l-.18.71c-.11.46-.23.91-.34,1.36-.54,2.13-1,4.13-1.46,5.87-.13.53-.26,1-.37,1.53l-.12.5c-.07.3-.15.59-.22.87l-.56,2.37c-.09.41-.17.75-.22,1s0,.24-.07.33a1.78,1.78,0,0,1,0,.2q-.86.53-1.68.93h0a17.91,17.91,0,0,1-2,.81,13.35,13.35,0,0,1-1.4.41l-.69.15-.63.11a13.47,13.47,0,0,1-1.77.15c-.22,3.14-.35,5.9-.42,7.37h0c0,.71,0,1.11,0,1.11l.72,5.56h0l.29,2.31v0l.23,1.67h0l.16,1.28-1.89.45-8.63,2.06h0l.18,1.4c.34,2.4.67,4.77,1,7.05h0c1.47,10.75,2.64,19.4,2.55,20-.12,1.13-9.83,2.3-16.19,2.42l.67,1.84,3.69,10.13,10.14,27.84s-.38.25-1.09.66l-.33.19c-.57.33-1.3.74-2.16,1.2l-1,.55c-.21.11-.43.23-.66.33-1.08.57-2.3,1.16-3.63,1.76l-1.36.61-.13,0h0l-.06,0-.06,0-.22.09-.59.26-.32.13c-.72.29-1.44.58-2.18.86s-1.78.65-2.71.94c-.42.14-.83.27-1.25.39s-.88.27-1.33.38l-1.31.34-.07,0c-.48.12-.94.22-1.42.32s-.74.16-1.12.22l-.59.1c-.85.15-1.7.26-2.55.34-.66.07-1.31.11-2,.13-1.39,0-2.62.06-3.76.07h-2.7l-.6,0c-.44,0-.85,0-1.26-.08-.21,0-.44,0-.64-.06l-.41-.05-.37-.05a10.35,10.35,0,0,1-3-.84l-.28-.15-.39-.23a3.27,3.27,0,0,1-.36-.25,7.25,7.25,0,0,1-2.34-3.15c-.12-.27-.23-.56-.34-.86l0-.08v0c-.05-.14-.11-.28-.15-.42s-.1-.29-.14-.43c-.27-.89-.53-1.89-.78-3l.09,0,.37.06.1,0,1.4.21.3,0,.34,0,.71.09,1.37.15.76.07.54,0,.94.07c.87.06,1.79.11,2.78.15l.6,0h.15l.9,0c6.76.11,15.65-.55,24.09-3.66-4.25-11.62-13.12-35.48-18.55-46.7a36.72,36.72,0,0,1-8.49.74l-.72,0c-.44,0-.89,0-1.31-.06l-.7-.05a58.54,58.54,0,0,1-9.53-1.52l-.42-.11c-1.16-.29-1.95-.53-2.24-.62l-.13,0c0-1.16,0-2.13,0-2.84,0-.24,0-.47.07-.7s.07-.43.12-.64a8.94,8.94,0,0,1,1.34-3.08c.1-.16.22-.31.33-.46a.47.47,0,0,0,.09-.12c.13-.17.27-.33.41-.49a13.19,13.19,0,0,1,1.3-1.29c.21-.18.41-.35.63-.52L22,376c.26-.17.53-.35.8-.51l.84-.5,0,0,.92-.47q.93-.46,1.89-.84c.31-.13.62-.25.94-.36l.52-.19,1.08-.34.74-.2.43-.11.86-.2c.33-.07.65-.14,1-.19h.07l.4-.07.64-.09.4,8c1.52.06,3.22,0,5-.06l4.92-.31,1-.06,2.38-.15,1.12-.07,4.68,12.84,11.46-1.74a271.54,271.54,0,0,0-7.37-38.51c-1.55,0-3.11,0-4.65-.1l-1.32-.07c-2-.11-4-.26-5.9-.44-1.48-.15-2.88-.3-4.19-.46l-.89-.11-1.71-.22-1.28-.18c-2.25-.33-3.86-.61-4.51-.72l-.18,0-.14,0a6.14,6.14,0,0,1-.68-.94c-.06-.12-.14-.25-.22-.38s-.16-.3-.23-.46a2.73,2.73,0,0,1-.23-.52h0a2.87,2.87,0,0,1-.15-.37,5.1,5.1,0,0,1-.29-.86c-.05-.19-.09-.38-.13-.57a4.34,4.34,0,0,1-.09-.52,2.92,2.92,0,0,1-.06-.44,2.86,2.86,0,0,1,0-.42c0-.17,0-.36,0-.54a1.32,1.32,0,0,1,0-.34,1.35,1.35,0,0,1,.11-.32v0a2.38,2.38,0,0,1,.18-.3,2.86,2.86,0,0,1,.22-.3l.1-.08a1.45,1.45,0,0,1,.21-.22l.08-.07a2.79,2.79,0,0,1,.31-.24,5.15,5.15,0,0,1,.45-.32c.13-.09.28-.17.42-.25s.46-.25.7-.37.33-.17.52-.25a41.57,41.57,0,0,1,7.21-2.26l.73-.17.45-.1.7-.14,1.14-.22.17,0a47.73,47.73,0,0,0,.59,5.71c1.34.12,2.86.26,4.45.38l1.21.1.34,0h.34l.47,0,.54,0,.23,0,1.24.09c.83.06,1.67.12,2.49.16l.55,0h.29l.3,0c1.47.08,2.9.14,4.23.17l1.09,0h2.21c.69,5.33,1.56,11.78,2.43,18.28,1.21-.24,3.12-.69,6.06-1.45-1.8-10.1,0-35.08,0-35.08s-.41,0-1.17-.06h-.22l-.74-.05-.27,0c-.9-.06-2-.16-3.3-.29l-.67-.07c-2-.21-4.24-.51-6.72-.93h0l-1.26-.22c-1.21-.21-2.45-.46-3.72-.74l-1.16-.26L53,323.3l-1-.23c-1.5-.37-3-.79-4.51-1.26l-1.7-.56-.64-3a2.56,2.56,0,0,1,0-.39,1.9,1.9,0,0,1,0-.41v0a1.7,1.7,0,0,1,.1-.37,1.43,1.43,0,0,1,.14-.34l.09-.16a3.3,3.3,0,0,1,.69-.81h0l.42-.36.45-.31a4.61,4.61,0,0,1,.58-.33,11.51,11.51,0,0,1,1.17-.55,21,21,0,0,1,2.54-.84l.59-.15.58-.14.26-.06c.65-.14,1.29-.26,1.87-.36.39-.07.75-.13,1.09-.17h0l.3,0,.53-.07.19,0,.24,0,.58-.06c-1,1.55-2,3-2.84,4.15l1.31.42,1,.32,1.12.33,1.68.48.08,0c1.74.47,3.41.87,5,1.21a84.45,84.45,0,0,0,9.37,1.55l.68.06c.41,0,.78.06,1.11.08,3.5.18,3.35,3.77,2.07,9.88A91.43,91.43,0,0,0,77.14,340l3.69-1.42s4.66-20,6.86-29.3l-.77-.2-.81-.23c-.55-.16-1.12-.34-1.7-.54-.74-.25-1.51-.53-2.3-.83l-1.3-.5-.22-.09c-1-.41-2-.84-3-1.27l-.45-.19L76,305c-1.62-.72-3.17-1.44-4.56-2.11l-.78-.37-.52-.25c-1.88-.92-3.35-1.67-4.14-2.07l-.23-.12-.17-.09-.1-.05-.13-.07-.06-.14,0-.1a1.12,1.12,0,0,0,0-.13l-.05-.15-.06-.18a.19.19,0,0,0,0-.07h0l-.06-.22-.09-.35c0-.17-.07-.35-.1-.54a6.59,6.59,0,0,1,3-6.87,9.08,9.08,0,0,1,5.18-1.53l.6,0,.55,0c.32,0,.65.08,1,.13l.31.06a13.32,13.32,0,0,1,2,.54l.32.11a7.31,7.31,0,0,1,.79.33l.18.08h0l.17.08.15.07.09,0,0,0c-1.34,1.12-2.6,2.21-3.68,3.18.74.6,1.7,1.35,2.89,2.15l.46.31c.47.32,1,.63,1.47.95l1.08.65c.36.22.75.43,1.14.65.6.33,1.23.66,1.9,1l.75.36c.58.27,1.18.53,1.8.79l.08,0h0l1.55.61c.46.17,1,.34,1.44.5s1,.34,1.56.49,1.26.35,1.91.5,1.07.25,1.61.36c-.87,2.66-1.88,6.15-2.93,9.92.3-.31,5.28-5.42,15.36-14.05-.34-.21-.71-.46-1.09-.74l-.64-.5c-.21-.16-.42-.34-.63-.52s-.43-.37-.64-.56c-.44-.39-.89-.81-1.33-1.24s-.77-.76-1.17-1.16l-.2-.21c-.46-.48-.93-1-1.38-1.46s-.93-1-1.38-1.52c-.23-.25-.45-.5-.67-.76s-.66-.75-1-1.12l-.61-.71-.37-.44c-.74-.86-1.43-1.69-2.06-2.46l-.51-.64c-1.54-1.88-2.61-3.29-2.89-3.65l-.07-.09s-2.55-2.51,6.06-7.29a12.12,12.12,0,0,1,6.55-1.23,2.91,2.91,0,0,0-1.12.75c-1.07,1.1-2,3.65,1.9,9.12.88,1.24,1.75,2.47,2.58,3.66.47.67.94,1.32,1.38,2C112.45,294.5,115.52,299,115.52,299Z" />
      <path class="BUNTAI_OTTER_OUTFIT_BUNTAI_OTTER_OUTFIT_18_cls-2" d="M40.35,388.49c5.43,11.23,14.31,35.09,18.55,46.71-16.83,6.21-35.44,2.64-35.44,2.64-1.94-8.67-6.19-39.67-6.65-51C16.81,386.82,29.18,390.89,40.35,388.49Z" />
      <path class="BUNTAI_OTTER_OUTFIT_BUNTAI_OTTER_OUTFIT_18_cls-2" d="M107.65,299.46c-10.08,8.63-15.07,13.74-15.37,14.05,1-3.77,2.06-7.26,2.93-9.92a46.32,46.32,0,0,1-19.65-9.35c1.08-1,2.34-2.06,3.68-3.18h0c5.39-4.48,11.77-9.39,11.77-9.39S101.91,296,107.65,299.46Z" />
      <path class="BUNTAI_OTTER_OUTFIT_BUNTAI_OTTER_OUTFIT_18_cls-2" d="M87.69,309.26c-2.2,9.33-6.87,29.31-6.87,29.31L77.14,340a88.63,88.63,0,0,1,1.13-9.26c1.28-6.12,1.43-9.7-2.07-9.88a92,92,0,0,1-21.35-4.47c.84-1.15,1.82-2.6,2.83-4.16,3.63-5.53,7.74-12.41,7.74-12.41S79.62,307.31,87.69,309.26Z" />
      <path class="BUNTAI_OTTER_OUTFIT_BUNTAI_OTTER_OUTFIT_18_cls-2" d="M72.64,326s-1.8,25,0,35.09c-2.94.76-4.85,1.2-6.06,1.45-.87-6.5-1.75-12.95-2.44-18.28-5.33.11-14.19-.6-20-1.13a45.28,45.28,0,0,1,1.69-21.91C58.51,325.59,72.64,326,72.64,326Z" />
      <path class="BUNTAI_OTTER_OUTFIT_BUNTAI_OTTER_OUTFIT_18_cls-2" d="M64.1,390.36l-11.46,1.73L48,379.26l-9.43.59c-1.82.11-3.51.12-5,.06l-.4-8L32,349.49a155.1,155.1,0,0,0,24.78,2.36A272.29,272.29,0,0,1,64.1,390.36Z" />
      <path class="BUNTAI_OTTER_OUTFIT_BUNTAI_OTTER_OUTFIT_18_cls-2" d="M178.35,438.14v23.19H118.86s-1.91-9.48-3.4-34.47,6.48-31.81,16.47-38.63a35,35,0,0,0,2.94-2.24h0c.62,0,20.58-.54,43.47-.95v15.18L173,396.05a3.41,3.41,0,0,0-4.22.12,2.28,2.28,0,0,0-.8,1.69,2.32,2.32,0,0,0,.95,1.83l5.33,4.16-5,4.45a2.22,2.22,0,0,0,.15,3.53,3.34,3.34,0,0,0,2,.66,3.27,3.27,0,0,0,2.18-.79l4.7-4.18v23.32L173,426.67a3.41,3.41,0,0,0-4.22.12,2.29,2.29,0,0,0-.8,1.69,2.32,2.32,0,0,0,.95,1.83l5.33,4.16-5,4.45a2.22,2.22,0,0,0,.15,3.53,3.42,3.42,0,0,0,4.22-.12Z" />
      <path class="BUNTAI_OTTER_OUTFIT_BUNTAI_OTTER_OUTFIT_18_cls-4" d="M175.91,345.11c-1.6-.18-4.26-1.34-7.28-2.63v18.63c0,4.48,4.34,8.11,9.72,8.11s9.73-3.63,9.73-8.11V345.2C182.07,345.28,177.32,345.27,175.91,345.11Zm2.44,19.21c-2.81,0-5.08-1.9-5.08-4.25s2.27-4.23,5.08-4.23,5.08,1.9,5.08,4.23S181.16,364.32,178.35,364.32Z" />
      <path class="BUNTAI_OTTER_OUTFIT_BUNTAI_OTTER_OUTFIT_18_cls-3" d="M178.35,355.83c-2.81,0-5.08,1.91-5.08,4.24s2.27,4.25,5.08,4.25,5.08-1.9,5.08-4.25S181.16,355.83,178.35,355.83Z" />
      <path class="BUNTAI_OTTER_OUTFIT_BUNTAI_OTTER_OUTFIT_18_cls-3" d="M269.25,355.83c-2.81,0-5.08,1.91-5.08,4.24s2.27,4.25,5.08,4.25,5.08-1.9,5.08-4.25S272.06,355.83,269.25,355.83Z" />
      <path class="BUNTAI_OTTER_OUTFIT_BUNTAI_OTTER_OUTFIT_18_cls-2" d="M315.68,388.23c10,6.82,17.94,13.65,16.46,38.63s-3.39,34.47-3.39,34.47H178.35V438.14l.29-.27L184,442a3.44,3.44,0,0,0,4.22-.12,2.2,2.2,0,0,0-.15-3.52l-5.33-4.17,5-4.45a2.21,2.21,0,0,0-.14-3.52,3.41,3.41,0,0,0-4.22.12l-5,4.46V407.52l.29-.27,5.34,4.17a3.42,3.42,0,0,0,4.22-.12,2.2,2.2,0,0,0-.15-3.52l-5.33-4.17,5-4.45a2.21,2.21,0,0,0-.14-3.52,3.42,3.42,0,0,0-4.22.11l-5,4.47V385c15.41-.29,32.14-.52,45.21-.53H224c32.48,0,87.65,1.45,88.68,1.48h0A36.85,36.85,0,0,0,315.68,388.23Z" />
      <path class="BUNTAI_OTTER_OUTFIT_BUNTAI_OTTER_OUTFIT_18_cls-3" d="M339.47,412.33c-1.06-21.09-11.15-24.45-19.76-31.28s-11.48-12.4-11.48-20.2c0-5.93.11-13.44-3.41-20.29l-.11-.05c-.82,1.14-1.63,2.21-2.46,3.2a32.35,32.35,0,0,1-2.9,3.08c1.31,5.53,1.2,12.48,1.13,17s2,10.34,6.17,15.83c-25.58-.29-78.22-1.54-82.78-1.65-3.41.08-57.05,1.36-82.93,1.65,4.12-5.49,6.25-11.43,6.17-15.83s-.18-11.45,1.15-17a30.09,30.09,0,0,1-2.91-3.08c-.9-1.08-1.76-2.12-2.56-3.15-3.53,6.85-3.42,14.36-3.42,20.29,0,7.8-2.87,13.38-11.48,20.2s-18.7,10.19-19.76,31.28c-.3,6-.37,12-.29,17.73.16,9.95.79,18.94,1.53,25,0,0,0,.06,0,.09l0,0c.18,1.5.37,2.82.55,3.94.15.88.29,1.63.44,2.25h8.5s-1.91-9.48-3.4-34.47,6.48-31.81,16.47-38.63a35,35,0,0,0,2.94-2.24h0c.62,0,20.58-.54,43.47-.95,15.41-.29,32.14-.52,45.21-.53H224c32.48,0,87.65,1.45,88.68,1.48h0a36.85,36.85,0,0,0,2.95,2.24c10,6.82,17.94,13.65,16.46,38.63s-3.39,34.47-3.39,34.47h8.5a.66.66,0,0,0,0-.09c0-.05,0-.09,0-.13a.57.57,0,0,0,0-.14c.11-.55.23-1.17.35-1.89.19-1.12.37-2.45.55-3.95l-.06.05.06-.11h0c.73-6.09,1.36-15.06,1.52-25C339.84,424.36,339.77,418.32,339.47,412.33Z" />
      <path class="BUNTAI_OTTER_OUTFIT_BUNTAI_OTTER_OUTFIT_18_cls-3" d="M168.62,342.48c3,1.29,5.69,2.44,7.29,2.63,1.41.16,6.16.17,12.17.09,13.6-.16,33.63-.73,35.78-.79h0c2.85.08,22.31.64,35.61.79,6,.08,10.75.07,12.16-.09,1.6-.19,4.27-1.34,7.3-2.63,4.24-1.8,9.2-3.87,12.92-3.91a42.25,42.25,0,0,0,4.36-6.48c-7-1.7-16.43,5.2-24.35,7.28h0a15.65,15.65,0,0,1-4.29.55c-4.33-.16-13.06-.59-21.62-1-10.11-.53-20-1.07-22-1.2h-.11c-1.57.1-11.77.65-22.23,1.2-8.56.45-17.3.88-21.63,1a15.46,15.46,0,0,1-4.26-.54h0c-7.91-2.06-17.35-9-24.36-7.28a41.47,41.47,0,0,0,4.35,6.48C159.42,338.61,164.38,340.68,168.62,342.48Z" />
      <path class="BUNTAI_OTTER_OUTFIT_BUNTAI_OTTER_OUTFIT_18_cls-4" d="M223.87,378c-3.41.08-57.05,1.36-82.93,1.65,4.12-5.49,6.25-11.43,6.17-15.83s-.18-11.45,1.15-17a15.87,15.87,0,0,0,2.59,2,11.63,11.63,0,0,0,7.71,1.7c1.84-.29,3.69-1.35,4-2.9s-1.24-3.15-2.59-4.42a45.44,45.44,0,0,1-4.24-4.56c3.72,0,8.68,2.11,12.92,3.91v18.63c0,4.48,4.36,8.11,9.73,8.11s9.73-3.63,9.73-8.11V345.2c13.6-.16,33.63-.73,35.78-.79h0c2.85.08,22.31.64,35.61.79v15.91c0,4.48,4.36,8.11,9.73,8.11s9.73-3.63,9.73-8.11V342.48c4.24-1.8,9.2-3.87,12.92-3.91a44.31,44.31,0,0,1-4.24,4.56c-1.35,1.27-2.91,2.74-2.59,4.42s2.13,2.61,4,2.9a11.7,11.7,0,0,0,7.73-1.7,16.77,16.77,0,0,0,2.59-2c1.31,5.53,1.2,12.48,1.13,17s2,10.34,6.17,15.83C281.07,379.31,228.43,378.06,223.87,378Z" />
      <path class="BUNTAI_OTTER_OUTFIT_BUNTAI_OTTER_OUTFIT_18_cls-4" d="M271.68,345.11c-1.41.16-6.15.17-12.16.09v15.91c0,4.48,4.36,8.11,9.73,8.11s9.73-3.63,9.73-8.11V342.48C276,343.77,273.28,344.93,271.68,345.11Zm-2.43,19.21c-2.8,0-5.08-1.9-5.08-4.25s2.28-4.23,5.08-4.23,5.08,1.9,5.08,4.23S272.06,364.32,269.25,364.32Z" />
      <path class="BUNTAI_OTTER_OUTFIT_BUNTAI_OTTER_OUTFIT_18_cls-5" d="M155.7,338.57a41.47,41.47,0,0,1-4.35-6.48,38.87,38.87,0,0,1-3.8-9.89,100,100,0,0,1-3-16.9c-1.35.35-7.29-6.73-12.33-3.6s-1.35,10.75-1.35,10.75c1.34,11.68,4.7,19,11.9,28.11.8,1,1.66,2.07,2.56,3.15a30.09,30.09,0,0,0,2.91,3.08,15.87,15.87,0,0,0,2.59,2,11.63,11.63,0,0,0,7.71,1.7c1.84-.29,3.69-1.35,4-2.9s-1.24-3.15-2.59-4.42A45.44,45.44,0,0,1,155.7,338.57Z" />
      <path class="BUNTAI_OTTER_OUTFIT_BUNTAI_OTTER_OUTFIT_18_cls-5" d="M104.2,328.37c-.15.12-2.16,1.62-4.59,3.66h0c-.91.76-1.89,1.6-2.83,2.48a40.24,40.24,0,0,0-4.39,4.58,1.84,1.84,0,0,0,.7,2.81,2.73,2.73,0,0,0,1.33.33,2.56,2.56,0,0,0,2-.92,37.62,37.62,0,0,1,3.61-3.79c.83-.78,1.69-1.53,2.52-2.24,2.56-2.19,4.81-3.87,4.86-3.9a1.81,1.81,0,0,0,.18-2.87A2.78,2.78,0,0,0,104.2,328.37Z" />
      <path class="BUNTAI_OTTER_OUTFIT_BUNTAI_OTTER_OUTFIT_18_cls-5" d="M70.9,403.06a2.55,2.55,0,0,0-3,1.36c-.05.15-.51,1.41-1,3.27a51.32,51.32,0,0,0-1.25,5.56,23.3,23.3,0,0,0-.29,6.12,2.3,2.3,0,0,0,2.42,1.83H68A2.16,2.16,0,0,0,70.13,419a16.23,16.23,0,0,1,0-2.88,36.6,36.6,0,0,1,1.11-6.2c.63-2.45,1.28-4.27,1.3-4.31A2,2,0,0,0,70.9,403.06Z" />
      <path class="BUNTAI_OTTER_OUTFIT_BUNTAI_OTTER_OUTFIT_18_cls-5" d="M81.59,372.52a2.71,2.71,0,0,0-3.32.79c-.09.12-.94,1.39-2,3.2-.47.84-1,1.79-1.48,2.8a22,22,0,0,0-2.15,6.14,2.13,2.13,0,0,0,2.11,2.25l.29,0a2.32,2.32,0,0,0,2.42-1.79A15.64,15.64,0,0,1,78.77,382c.41-.92.87-1.84,1.35-2.72h0c.93-1.72,1.86-3.22,2.4-4A1.86,1.86,0,0,0,81.59,372.52Z" />
      <path class="BUNTAI_OTTER_OUTFIT_BUNTAI_OTTER_OUTFIT_18_cls-5" d="M91,348.94a2.73,2.73,0,0,0-3.39.44c-.08.1-1.06,1.2-2.28,2.81a48.22,48.22,0,0,0-3,4.48,24.58,24.58,0,0,0-2.07,4.23,2,2,0,0,0,1.65,2.52,2.58,2.58,0,0,0,.68.08A2.43,2.43,0,0,0,84.86,362,17.78,17.78,0,0,1,86,359.61a36.62,36.62,0,0,1,2.93-4.55c1.39-1.89,2.57-3.26,2.6-3.29A1.81,1.81,0,0,0,91,348.94Z" />
      <path class="BUNTAI_OTTER_OUTFIT_BUNTAI_OTTER_OUTFIT_18_cls-5" d="M182.72,434.23l5-4.45a2.21,2.21,0,0,0-.14-3.52,3.41,3.41,0,0,0-4.22.12l-5,4.46L173,426.67a3.41,3.41,0,0,0-4.22.12,2.29,2.29,0,0,0-.8,1.69,2.32,2.32,0,0,0,.95,1.83l5.33,4.16-5,4.45a2.22,2.22,0,0,0,.15,3.53,3.42,3.42,0,0,0,4.22-.12l4.7-4.19v-.49l.29.22L184,442a3.44,3.44,0,0,0,4.22-.12,2.2,2.2,0,0,0-.15-3.52Z" />
      <path class="BUNTAI_OTTER_OUTFIT_BUNTAI_OTTER_OUTFIT_18_cls-5" d="M182.72,403.61l5-4.45a2.21,2.21,0,0,0-.14-3.52,3.42,3.42,0,0,0-4.22.11l-5,4.47L173,396.05a3.41,3.41,0,0,0-4.22.12,2.28,2.28,0,0,0-.8,1.69,2.32,2.32,0,0,0,.95,1.83l5.33,4.16-5,4.45a2.22,2.22,0,0,0,.15,3.53,3.34,3.34,0,0,0,2,.66,3.27,3.27,0,0,0,2.18-.79l4.7-4.18V407l.29.22,5.34,4.17a3.42,3.42,0,0,0,4.22-.12,2.2,2.2,0,0,0-.15-3.52Z" />
      <path class="BUNTAI_OTTER_OUTFIT_BUNTAI_OTTER_OUTFIT_18_cls-5" d="M315,301.68a43.9,43.9,0,0,0-6.22-1.42,23.67,23.67,0,0,1-2.44-.69l-.34.68c-1.16,1.59-2.34,3.18-3.54,4.75l.56.3a99.79,99.79,0,0,1-3,16.9,39.18,39.18,0,0,1-3.78,9.89,42.25,42.25,0,0,1-4.36,6.48,44.31,44.31,0,0,1-4.24,4.56c-1.35,1.27-2.91,2.74-2.59,4.42s2.13,2.61,4,2.9a11.7,11.7,0,0,0,7.73-1.7,16.77,16.77,0,0,0,2.59-2,32.35,32.35,0,0,0,2.9-3.08c.83-1,1.64-2.06,2.46-3.2,8-11.29,14.82-29.43,15.83-33A8.75,8.75,0,0,0,315,301.68Z" />
      <path class="BUNTAI_OTTER_OUTFIT_BUNTAI_OTTER_OUTFIT_18_cls-4" d="M201.61,338.88l-2.1.11-9.17.47-1.77.09h-.16l-2.56.13h0l-2.23.1-3.61.14a15.09,15.09,0,0,1-4.26-.54h0l-.65-.63h0l-1.43-1.41c-.7-.68-1.39-1.37-2.07-2.06-1.38-1.38-2.73-2.77-4.07-4.18-.51-.53-1-1.06-1.51-1.6A313.14,313.14,0,0,1,145,304.81c.42-1.17-.58-4-.58-4L135,289.9s2.62-4.57,1.75-5.57c1.25-.9.19-3.36,1.95-4.73,10.38,10.54,35.29,31.3,45.68,41.83Q193,330.17,201.61,338.88Z" />
      <path class="BUNTAI_OTTER_OUTFIT_BUNTAI_OTTER_OUTFIT_18_cls-4" d="M293.28,290.93q-15,15.26-30,30.5-8.58,8.74-17.24,17.45c8.56.45,17.29.88,21.62,1a15.65,15.65,0,0,0,4.29-.55h0A301.72,301.72,0,0,0,302.47,305c1.2-1.57,2.38-3.16,3.54-4.75l.34-.68C301.21,297.86,297,294.58,293.28,290.93Z" />
      <path class="BUNTAI_OTTER_OUTFIT_BUNTAI_OTTER_OUTFIT_18_cls-6" d="M68.35,375.34s3.1,1.77,6.48,4c.48-1,1-2,1.48-2.8-7.31-6.13-8.94-8.23-8.94-8.23h0c.34,2.4.67,4.77,1,7.05Z" />
      <path class="BUNTAI_OTTER_OUTFIT_BUNTAI_OTTER_OUTFIT_18_cls-6" d="M65.59,413.25a51.32,51.32,0,0,1,1.25-5.56,122.24,122.24,0,0,1-11.45-8.05l3.68,10.13S62.13,411.25,65.59,413.25Z" />
      <path class="BUNTAI_OTTER_OUTFIT_BUNTAI_OTTER_OUTFIT_18_cls-6" d="M96.78,334.52c.94-.88,1.92-1.72,2.83-2.48h0c-3.48-4-7-8.57-7.76-10.41l-2.36,2.25c-.34,1.3-.67,2.58-1,3.83C88.51,327.7,92.87,331.1,96.78,334.52Z" />
      <path class="BUNTAI_OTTER_OUTFIT_BUNTAI_OTTER_OUTFIT_18_cls-6" d="M85.29,352.19a44.89,44.89,0,0,1-6.74-7.34,12.25,12.25,0,0,1-1.78.16c-.2,3.14-.34,5.9-.41,7.37h0s2.8,1.92,5.9,4.28A48.22,48.22,0,0,1,85.29,352.19Z" />
      <path class="BUNTAI_OTTER_OUTFIT_BUNTAI_OTTER_OUTFIT_18_cls-6" d="M144.57,305.3a100,100,0,0,0,3,16.9,38.87,38.87,0,0,0,3.8,9.89c7-1.71,16.45,5.22,24.36,7.28A310.3,310.3,0,0,1,145,304.81.66.66,0,0,1,144.57,305.3Z" />
      <path class="BUNTAI_OTTER_OUTFIT_BUNTAI_OTTER_OUTFIT_18_cls-6" d="M142.78,340.57a23,23,0,0,0-1.3,3,8.82,8.82,0,0,0-.31.86c-.14.41-.26.83-.38,1.24s-.28,1.06-.39,1.59c-.09.37-.16.75-.23,1.12s-.16.85-.22,1.27a.43.43,0,0,0,0,.11c0,.22-.06.44-.08.66s0,.39-.08.58-.05.39-.07.58,0,.13,0,.2c0,.37-.07.75-.1,1.12-.05.62-.08,1.23-.12,1.84s0,1-.05,1.45c0,.71,0,1.42,0,2.1s0,1.36,0,2v.51a23.55,23.55,0,0,1-.59,5.48c-.09.43-.21.86-.34,1.28-.06.21-.13.42-.2.63-.15.42-.31.83-.48,1.24a21,21,0,0,1-2.71,4.57l-.41.52c-.24.31-.51.62-.78.93s-.72.8-1.12,1.21l-.6.6A49.94,49.94,0,0,1,127.9,381h0c-.81.64-1.64,1.25-2.46,1.85l-.18.13-1.46,1.05c-.8.57-1.61,1.14-2.4,1.72-1.1.81-2.18,1.65-3.22,2.56,0,0,0,0,0,0-.55.48-1.08,1-1.61,1.5-.17.18-.36.37-.53.56l-.35.37h0l0,.06-.73.84,0,0c-.24.31-.49.62-.73.94a24.78,24.78,0,0,0-1.41,2.1l-.28.48a6.29,6.29,0,0,0-.37.67l-.31.6h0q-.28.61-.57,1.26c-.19.44-.37.89-.55,1.35-.08.23-.17.47-.26.71l0,.06c-.25.72-.47,1.47-.69,2.27-.16.6-.31,1.22-.44,1.86l-.09.44c-.19.86-.34,1.77-.47,2.73,0,.31-.09.62-.12.94s-.09.65-.12,1-.07.68-.1,1c0,.17,0,.35,0,.52,0,.53-.07,1.07-.1,1.62-.3,6-.37,12-.29,17.73,0,2.66.12,5.24.22,7.72.06,1.49.13,2.94.21,4.34,0,.09,0,.19,0,.29.06,1.23.15,2.42.23,3.57,0,.58.08,1.14.13,1.7.08,1.11.17,2.17.27,3.19,0,.5.09,1,.14,1.48,0,.24.06.48.08.71,0,.45.1.88.14,1.3l.09.73v.05c.18,1.5.37,2.82.55,3.94l-1.2.19h0q-8.56,1.31-17.1,2.65c-8.9,1.38-17.86,2.75-26.91,2.77a84.7,84.7,0,0,1-34.64-7.15c.34-.28.67-.56,1-.86s.53-.49.78-.74a3.26,3.26,0,0,0,.31-.33c.24-.25.48-.51.71-.78l0,0c.26-.31.52-.63.76-1l0-.06c.23-.29.43-.58.63-.88s.43-.66.62-1a8.35,8.35,0,0,0,.43-.77l.06-.11c.15-.29.3-.6.44-.9a.08.08,0,0,0,0,0l.06-.13.21-.51c.06-.15.12-.3.17-.45a.61.61,0,0,0,.07-.17q.12-.3.21-.6c.07-.21.13-.41.19-.62h.48c1.14,0,2.37,0,3.76-.07.66,0,1.31-.06,2-.13h0l.4.19h0a18.85,18.85,0,0,0,3.18,1.07c.49.12,1,.23,1.5.32h0c.36.06.72.12,1.09.16s.45.06.67.08c.54.07,1.09.11,1.63.13a10.11,10.11,0,0,0,1.1,0A41.16,41.16,0,0,0,63.71,448a35.08,35.08,0,0,0,4.2-1.38l.39-.16,1-.48.57-.28c.38-.19.72-.39,1-.59,1.44-.89,2.35-1.82,2.53-2.68.85-4.26,3-17.28,1.59-21.45-.46-1.42-2.49-3.19-5-4.9a36.72,36.72,0,0,1,1.1-6.21,5.43,5.43,0,0,0,2.3.48c4.25-.35,5.73-12,7.64-16.71,1.83-4.53,1.44-8.56-2.4-11.63.41-.92.87-1.84,1.35-2.72a9,9,0,0,0,.8.42,2.1,2.1,0,0,0,.3.15l.11.06h0a7.48,7.48,0,0,0,1,.35,2.2,2.2,0,0,0,.37.06,2.39,2.39,0,0,0,2.18-.68,2.29,2.29,0,0,0,.21-.23c.07-.08.13-.17.2-.26s.23-.38.34-.58a17.36,17.36,0,0,0,.81-2c1.13-3.12,4.66-9.62,3.89-12.34-.28-1-2.14-2.76-4.41-4.64a35.38,35.38,0,0,1,2.93-4.54l.6.39,0,0a10.63,10.63,0,0,0,1.24.69l.28.13a5.53,5.53,0,0,0,2.46.44h0a1.09,1.09,0,0,0,.26,0l.29-.06a1.07,1.07,0,0,0,.27-.09l.17-.06a1.13,1.13,0,0,0,.22-.11l.09-.05a1.28,1.28,0,0,0,.25-.15.41.41,0,0,1,.11-.07,2.39,2.39,0,0,0,.26-.21,7.15,7.15,0,0,0,.58-.54l.33-.38c.85-1,1.78-2.31,3.13-4,3.47-4.35,4.89-7.47,3-10.66a16.93,16.93,0,0,0-2.45-2.8c.83-.78,1.69-1.53,2.52-2.24.83.87,1.59,1.6,2.22,2.16a6.62,6.62,0,0,0,1.55,1.12,2.66,2.66,0,0,0,1.74.09,3.68,3.68,0,0,0,.49-.18c1.82-.75,4.24-3.09,9.21-7.08,6.76-5.43,8.7-9.28,4.86-12.91h0a8.26,8.26,0,0,0-.76-.67h4l2.39-2.54,1.6-1.72,0,0h0l1-1.06q.09.85.21,1.68c.14,1.05.3,2.07.49,3.06.1.54.2,1.08.31,1.6a.06.06,0,0,0,0,0l.18.82c.07.29.14.56.21.84a1.33,1.33,0,0,0,.05.19q.13.58.3,1.14c.12.47.27.93.4,1.38a.14.14,0,0,1,0,.06q.21.66.42,1.29c.16.42.31.83.46,1.24.08.21.16.41.25.62a45.85,45.85,0,0,0,3.38,6.76c.31.54.65,1.07,1,1.61.15.25.32.5.49.75.37.56.77,1.12,1.18,1.69.18.27.38.55.6.83C141.47,338.88,142.11,339.71,142.78,340.57Z" />
      <path class="BUNTAI_OTTER_OUTFIT_BUNTAI_OTTER_OUTFIT_18_cls-6" d="M391.85,441.93l.57-4c-2.74-3.21-2.32-7.53-3.53-11.34a29.27,29.27,0,0,0-2.68-5.52l-7.74-13.44c-5.77-10-8.74-20.18-6.73-31.17.37-2,.74-4.16-.08-6.1-.64-1.56,3.09-2.83,1.78-4.06-3.27-3.08-5.57-7-8.84-10l-.31.25a170.63,170.63,0,0,0-.14-24.87l-.29-.07A42.51,42.51,0,0,1,353,327.43c-.12-2.21-1.89-4.15-4.08-5.41a33.14,33.14,0,0,0-7.25-2.66c-9.79-2.87-12.49-7-21.15-11.82-1,3.54-7.86,21.68-15.83,33l.11.05c3.52,6.85,3.41,14.36,3.41,20.29,0,7.8,2.87,13.38,11.48,20.2s18.7,10.19,19.76,31.28c.3,6,.37,12,.28,17.73-.16,9.94-.79,18.91-1.52,25,.35-.64.71-1.28,1-1.92-.13.5-.24,1-.36,1.41-.46,1.88-.84,3.41-1.12,4.55,6.07.93,6,1.87,12.1,2.81,8.9,1.38,12.77,2.76,21.81,2.78,12.23,0,16.73-2.4,27.54-7.16A19.09,19.09,0,0,1,391.85,441.93Z" />
      <path class="BUNTAI_OTTER_OUTFIT_BUNTAI_OTTER_OUTFIT_18_cls-6" d="M271.91,339.37c7.92-2.08,17.34-9,24.35-7.28A39.18,39.18,0,0,0,300,322.2a99.79,99.79,0,0,0,3-16.9l-.56-.3A301.72,301.72,0,0,1,271.91,339.37Z" />
      <path class="BUNTAI_OTTER_OUTFIT_BUNTAI_OTTER_OUTFIT_18_cls-7" d="M70.12,416.1a16.23,16.23,0,0,0,0,2.88A2.16,2.16,0,0,1,68,421.2h-.23a2.3,2.3,0,0,1-2.42-1.83,23.3,23.3,0,0,1,.29-6.12,51.32,51.32,0,0,1,1.25-5.56c.52-1.86,1-3.12,1-3.27a2.55,2.55,0,0,1,3-1.36,2,2,0,0,1,1.63,2.53s-.67,1.86-1.3,4.31A36.6,36.6,0,0,0,70.12,416.1Z" />
      <path class="BUNTAI_OTTER_OUTFIT_BUNTAI_OTTER_OUTFIT_18_cls-7" d="M80.12,379.32c-.48.88-.94,1.8-1.35,2.72a15.64,15.64,0,0,0-1.27,3.89,2.32,2.32,0,0,1-2.42,1.79l-.29,0a2.13,2.13,0,0,1-2.11-2.25,22,22,0,0,1,2.15-6.14c.48-1,1-2,1.48-2.8,1-1.81,1.87-3.08,2-3.2a2.71,2.71,0,0,1,3.32-.79,1.86,1.86,0,0,1,.93,2.76c-.54.81-1.47,2.31-2.4,4" />
      <path class="BUNTAI_OTTER_OUTFIT_BUNTAI_OTTER_OUTFIT_18_cls-7" d="M86,359.61A17.78,17.78,0,0,0,84.86,362a2.43,2.43,0,0,1-2.34,1.46,2.58,2.58,0,0,1-.68-.08,2,2,0,0,1-1.65-2.52,24.58,24.58,0,0,1,2.07-4.23,48.22,48.22,0,0,1,3-4.48c1.22-1.61,2.2-2.71,2.28-2.81a2.73,2.73,0,0,1,3.39-.44,1.81,1.81,0,0,1,.54,2.83s-1.21,1.4-2.6,3.29A36.62,36.62,0,0,0,86,359.61Z" />
      <path class="BUNTAI_OTTER_OUTFIT_BUNTAI_OTTER_OUTFIT_18_cls-7" d="M99.61,332c2.43-2,4.44-3.54,4.59-3.66a2.78,2.78,0,0,1,3.43.15,1.81,1.81,0,0,1-.18,2.87s-2.3,1.71-4.86,3.9c-.83.71-1.69,1.46-2.52,2.24a37.62,37.62,0,0,0-3.61,3.79,2.56,2.56,0,0,1-2,.92,2.73,2.73,0,0,1-1.33-.33,1.84,1.84,0,0,1-.7-2.81,40.24,40.24,0,0,1,4.39-4.58c.94-.88,1.92-1.72,2.83-2.48" />
      <path class="BUNTAI_OTTER_OUTFIT_BUNTAI_OTTER_OUTFIT_18_cls-7" d="M70.12,416.1c2.47,1.72,4.5,3.49,5,4.91,1.39,4.17-.74,17.19-1.59,21.45s-19.78,10.09-30.51,5" />
      <path class="BUNTAI_OTTER_OUTFIT_BUNTAI_OTTER_OUTFIT_18_cls-7" d="M65.59,413.25c-3.46-2-6.52-3.48-6.52-3.48" />
      <path class="BUNTAI_OTTER_OUTFIT_BUNTAI_OTTER_OUTFIT_18_cls-7" d="M68.35,375.34s3.1,1.77,6.48,4" />
      <path class="BUNTAI_OTTER_OUTFIT_BUNTAI_OTTER_OUTFIT_18_cls-7" d="M55.39,399.64a122.24,122.24,0,0,0,11.45,8.05" />
      <path class="BUNTAI_OTTER_OUTFIT_BUNTAI_OTTER_OUTFIT_18_cls-7" d="M78.77,382c3.84,3.07,4.23,7.1,2.41,11.63-1.91,4.72-3.4,16.36-7.65,16.71a5.58,5.58,0,0,1-2.3-.48" />
      <path class="BUNTAI_OTTER_OUTFIT_BUNTAI_OTTER_OUTFIT_18_cls-7" d="M86,359.61c2.27,1.88,4.13,3.68,4.41,4.64.78,2.72-2.76,9.22-3.89,12.34-.94,2.59-1.83,5.39-6.37,2.73h0" />
      <path class="BUNTAI_OTTER_OUTFIT_BUNTAI_OTTER_OUTFIT_18_cls-7" d="M67.37,368.28s1.63,2.1,8.94,8.23" />
      <path class="BUNTAI_OTTER_OUTFIT_BUNTAI_OTTER_OUTFIT_18_cls-7" d="M82.26,356.67c-3.1-2.36-5.9-4.28-5.9-4.28" />
      <path class="BUNTAI_OTTER_OUTFIT_BUNTAI_OTTER_OUTFIT_18_cls-7" d="M100.07,337.53a16.77,16.77,0,0,1,2.44,2.8c1.9,3.19.48,6.31-3,10.66s-4.16,6.41-7.67,5.58a9.58,9.58,0,0,1-2.95-1.51" />
      <path class="BUNTAI_OTTER_OUTFIT_BUNTAI_OTTER_OUTFIT_18_cls-7" d="M78.55,344.85a44.89,44.89,0,0,0,6.74,7.34" />
      <path class="BUNTAI_OTTER_OUTFIT_BUNTAI_OTTER_OUTFIT_18_cls-7" d="M88.51,327.7s4.36,3.4,8.27,6.82" />
      <path class="BUNTAI_OTTER_OUTFIT_BUNTAI_OTTER_OUTFIT_18_cls-7" d="M91.85,321.62c.72,1.84,4.28,6.44,7.76,10.41h0" />
      <path class="BUNTAI_OTTER_OUTFIT_BUNTAI_OTTER_OUTFIT_18_cls-7" d="M108.91,305.35c3,3.17,9.39,9.64,13,12.47a8.26,8.26,0,0,1,.76.67h0c3.84,3.63,1.9,7.48-4.86,12.91-5,4-7.39,6.33-9.21,7.08a3.68,3.68,0,0,1-.49.18,2.66,2.66,0,0,1-1.74-.09,6.62,6.62,0,0,1-1.55-1.12c-.63-.56-1.39-1.29-2.22-2.16" />
      <path class="BUNTAI_OTTER_OUTFIT_BUNTAI_OTTER_OUTFIT_18_cls-7" d="M128.26,315.28s-7.84-11.73-1.25-16.76a15.32,15.32,0,0,1,3.76-2.17l.35-.12.36-.12c.35-.1.68-.18,1-.24l.3-.05.42-.05.3,0c3.39-.21,6.07,1.79,8.07,4.5,1.13,1.53,2.29,3.05,3.46,4.56.58.76,1.16,1.51,1.75,2.26s1,1.25,1.47,1.88l.08.1c.66.84,1.33,1.68,2,2.51l2.21,2.7c.2.23.38.46.57.69.43.51.84,1,1.28,1.53l.72.85a.1.1,0,0,0,0,.05l.23.27c.22.26.43.52.66.77l1.11,1.3c.08.09.15.18.24.27.24.29.49.58.76.87l.39.46c.63.73,1.27,1.44,1.91,2.16s1.16,1.3,1.75,1.94l1,1.07c.93,1,1.85,2,2.79,3,.49.54,1,1.07,1.51,1.6,1.34,1.41,2.69,2.8,4.07,4.18.68.69,1.37,1.38,2.07,2.06l1.43,1.41h0l.65.63" />
      <path class="BUNTAI_OTTER_OUTFIT_BUNTAI_OTTER_OUTFIT_18_cls-7" d="M337.68,459.08l.12,0c6.07.93,6,1.87,12.1,2.81,8.9,1.38,12.77,2.76,21.81,2.78,12.23,0,16.73-2.4,27.54-7.16a19.09,19.09,0,0,1-7.4-15.6l.57-4c-2.74-3.21-2.32-7.53-3.53-11.34a29.27,29.27,0,0,0-2.68-5.52l-7.74-13.44c-5.77-10-8.74-20.18-6.73-31.17.37-2,.74-4.16-.08-6.1-.64-1.56,3.09-2.83,1.78-4.06-3.27-3.08-5.57-7-8.84-10l-.31.25a170.63,170.63,0,0,0-.14-24.87l-.29-.07A42.51,42.51,0,0,1,353,327.43c-.12-2.21-1.89-4.15-4.08-5.41a33.14,33.14,0,0,0-7.25-2.66c-9.79-2.87-12.49-7-21.15-11.82a8.75,8.75,0,0,0-5.53-5.86,43.9,43.9,0,0,0-6.22-1.42,23.67,23.67,0,0,1-2.44-.69c-5.14-1.71-9.34-5-13.07-8.64" />
      <path class="BUNTAI_OTTER_OUTFIT_BUNTAI_OTTER_OUTFIT_18_cls-7" d="M144.57,305.3a100,100,0,0,0,3,16.9,38.87,38.87,0,0,0,3.8,9.89,41.47,41.47,0,0,0,4.35,6.48,45.44,45.44,0,0,0,4.24,4.56c1.35,1.27,2.9,2.74,2.59,4.42s-2.13,2.61-4,2.9a11.63,11.63,0,0,1-7.71-1.7,15.87,15.87,0,0,1-2.59-2,30.09,30.09,0,0,1-2.91-3.08c-.9-1.08-1.76-2.12-2.56-3.15-7.2-9.11-10.56-16.43-11.9-28.11" />
      <path class="BUNTAI_OTTER_OUTFIT_BUNTAI_OTTER_OUTFIT_18_cls-7" d="M91.83,417.14c.91,7.2,4.53,13.93,8.11,20.52q4.73,8.71,9.43,17.43s0,.06,0,.09l0,0q-11.15-9.31-22.29-18.62" />
      <path class="BUNTAI_OTTER_OUTFIT_BUNTAI_OTTER_OUTFIT_18_cls-7" d="M79.25,291.06c5.39-4.48,11.77-9.39,11.77-9.39s-2.55-2.5,6.06-7.29a12.14,12.14,0,0,1,6.55-1.22c9,.42,20.14,6.89,20.14,6.89" />
      <path class="BUNTAI_OTTER_OUTFIT_BUNTAI_OTTER_OUTFIT_18_cls-7" d="M75.56,294.24c1.08-1,2.34-2.06,3.68-3.18" />
      <path class="BUNTAI_OTTER_OUTFIT_BUNTAI_OTTER_OUTFIT_18_cls-7" d="M201.61,338.88q-8.66-8.69-17.24-17.45c-10.4-10.53-35.3-31.29-45.67-41.84l-2.25,6.74c-.63,1.5-1.28,3-1.28,3l9.29,11.44s1,2.85.58,4a.67.67,0,0,1-.47.49c-1.35.36-7.29-6.73-12.32-3.6s-1.35,10.75-1.35,10.75l-1,1.06h0l0,0-1.6,1.72-2.39,2.54h-4" />
      <path class="BUNTAI_OTTER_OUTFIT_BUNTAI_OTTER_OUTFIT_18_cls-7" d="M126.58,290.89a40.94,40.94,0,0,1-2.39-8c-.18-.93-.32-1.86-.42-2.8-.69-6.49.63-12.68,6.34-14.32a13.65,13.65,0,0,1,9.1,1,50.74,50.74,0,0,0-.76,12" />
      <line class="BUNTAI_OTTER_OUTFIT_BUNTAI_OTTER_OUTFIT_18_cls-7" x1="96.34" y1="394.44" x2="106.09" y2="418.24" />
      <path class="BUNTAI_OTTER_OUTFIT_BUNTAI_OTTER_OUTFIT_18_cls-7" d="M134.88,386c.62,0,20.58-.54,43.47-.95,15.41-.29,32.14-.52,45.21-.53" />
      <path class="BUNTAI_OTTER_OUTFIT_BUNTAI_OTTER_OUTFIT_18_cls-7" d="M178.35,400.22l5-4.47a3.42,3.42,0,0,1,4.22-.11,2.21,2.21,0,0,1,.14,3.52l-5,4.45" />
      <path class="BUNTAI_OTTER_OUTFIT_BUNTAI_OTTER_OUTFIT_18_cls-7" d="M174.27,403.85l-5,4.45a2.22,2.22,0,0,0,.15,3.53,3.34,3.34,0,0,0,2,.66,3.27,3.27,0,0,0,2.18-.79l4.7-4.18.29-.27" />
      <path class="BUNTAI_OTTER_OUTFIT_BUNTAI_OTTER_OUTFIT_18_cls-7" d="M174.27,403.85l-5.33-4.16a2.32,2.32,0,0,1-.95-1.83,2.28,2.28,0,0,1,.8-1.69,3.41,3.41,0,0,1,4.22-.12l5.34,4.17,4.37,3.39,5.33,4.17a2.2,2.2,0,0,1,.15,3.52,3.42,3.42,0,0,1-4.22.12l-5.34-4.17-.29-.22Z" />
      <path class="BUNTAI_OTTER_OUTFIT_BUNTAI_OTTER_OUTFIT_18_cls-7" d="M178.35,430.84l5-4.46a3.41,3.41,0,0,1,4.22-.12,2.21,2.21,0,0,1,.14,3.52l-5,4.45" />
      <path class="BUNTAI_OTTER_OUTFIT_BUNTAI_OTTER_OUTFIT_18_cls-7" d="M174.27,434.47l-5.33-4.16a2.32,2.32,0,0,1-.95-1.83,2.29,2.29,0,0,1,.8-1.69,3.41,3.41,0,0,1,4.22-.12l5.34,4.17,4.37,3.39,5.33,4.17a2.2,2.2,0,0,1,.15,3.52A3.44,3.44,0,0,1,184,442l-5.34-4.17-.29-.22Z" />
      <path class="BUNTAI_OTTER_OUTFIT_BUNTAI_OTTER_OUTFIT_18_cls-7" d="M183.43,360.07c0,2.35-2.27,4.25-5.08,4.25s-5.08-1.9-5.08-4.25,2.27-4.24,5.08-4.24S183.43,357.74,183.43,360.07Z" />
      <path class="BUNTAI_OTTER_OUTFIT_BUNTAI_OTTER_OUTFIT_18_cls-7" d="M188.08,345.2v15.91c0,4.48-4.36,8.11-9.73,8.11s-9.73-3.63-9.73-8.11V342.48" />
      <polyline class="BUNTAI_OTTER_OUTFIT_BUNTAI_OTTER_OUTFIT_18_cls-7" points="178.35 385.04 178.35 400.22 178.35 407.03 178.35 407.52 178.35 430.84 178.35 437.65 178.35 438.14 178.35 461.33 178.35 462.07" />
      <path class="BUNTAI_OTTER_OUTFIT_BUNTAI_OTTER_OUTFIT_18_cls-7" d="M224,378h-.17c-3.41.08-57.05,1.36-82.93,1.65" />
      <path class="BUNTAI_OTTER_OUTFIT_BUNTAI_OTTER_OUTFIT_18_cls-7" d="M107.84,430.06s-.81-4.92-1.75-11.82a289.49,289.49,0,0,1-2.75-28.94c-.42-16.13.65-20.56-1.26-20,0,0-5.11,3-2.91,14.06" />
      <path class="BUNTAI_OTTER_OUTFIT_BUNTAI_OTTER_OUTFIT_18_cls-7" d="M118.86,461.33s-1.91-9.48-3.4-34.47,6.48-31.81,16.47-38.63a35,35,0,0,0,2.94-2.24h0a38.6,38.6,0,0,0,6.06-6.39c4.12-5.49,6.25-11.43,6.17-15.83s-.18-11.45,1.15-17" />
      <path class="BUNTAI_OTTER_OUTFIT_BUNTAI_OTTER_OUTFIT_18_cls-7" d="M223.91,344.41H224" />
      <path class="BUNTAI_OTTER_OUTFIT_BUNTAI_OTTER_OUTFIT_18_cls-7" d="M155.7,338.57c3.72,0,8.68,2.11,12.92,3.91,3,1.29,5.69,2.44,7.29,2.63,1.41.16,6.16.17,12.17.09,13.6-.16,33.63-.73,35.78-.79" />
      <line class="BUNTAI_OTTER_OUTFIT_BUNTAI_OTTER_OUTFIT_18_cls-7" x1="124.19" y1="282.85" x2="108.37" y2="288.65" />
      <path class="BUNTAI_OTTER_OUTFIT_BUNTAI_OTTER_OUTFIT_18_cls-7" d="M16.81,386.82s12.37,4.07,23.54,1.67c5.43,11.23,14.31,35.09,18.55,46.71" />
      <path class="BUNTAI_OTTER_OUTFIT_BUNTAI_OTTER_OUTFIT_18_cls-7" d="M32,349.49a155.1,155.1,0,0,0,24.78,2.36,272.29,272.29,0,0,1,7.36,38.51l-11.46,1.73" />
      <path class="BUNTAI_OTTER_OUTFIT_BUNTAI_OTTER_OUTFIT_18_cls-7" d="M79.25,291.06h0c-.36-.2-6.44-3.33-11.33,0-5,3.43-2.49,8.75-2.49,8.75s-4.11,6.88-7.74,12.41c-1,1.56-2,3-2.83,4.16a92,92,0,0,0,21.35,4.47c3.5.18,3.35,3.76,2.07,9.88A88.63,88.63,0,0,0,77.14,340c-.14,1.69-.26,3.4-.37,5-.2,3.14-.34,5.9-.41,7.37h0c0,.71,0,1.11,0,1.11l1.4,10.87-10.52,2.51" />
      <path class="BUNTAI_OTTER_OUTFIT_BUNTAI_OTTER_OUTFIT_18_cls-7" d="M91,281.67s10.89,14.33,16.63,17.79c-10.08,8.63-15.07,13.74-15.37,14.05h0" />
      <path class="BUNTAI_OTTER_OUTFIT_BUNTAI_OTTER_OUTFIT_18_cls-7" d="M23.46,378.19a33.28,33.28,0,0,0,10,1.72c1.53.06,3.22,0,5-.06l9.43-.59,4.68,12.83,2.08,5.71.67,1.84,3.68,10.13,10.14,27.84s-13.69,8.64-26.23,9.8c-.65.07-1.31.11-2,.13-1.56,0-3,.07-4.23.07-9.37,0-11.46-1.34-13.32-9.77-1.94-8.67-6.19-39.67-6.65-51,0-1.16,0-2.13,0-2.84.43-7.56,10.64-11.33,16.3-12" />
      <path class="BUNTAI_OTTER_OUTFIT_BUNTAI_OTTER_OUTFIT_18_cls-7" d="M33.49,379.91l-.4-8L32,349.49a9.68,9.68,0,0,1-2.13-6c0-3.66,13.75-6,13.75-6" />
      <path class="BUNTAI_OTTER_OUTFIT_BUNTAI_OTTER_OUTFIT_18_cls-7" d="M54.72,397.8c6.34-.12,16.06-1.3,16.18-2.42.09-.64-1.08-9.29-2.55-20h0c-.32-2.28-.65-4.65-1-7.05l-.18-1.4c-.19-1.43-.4-2.87-.6-4.31-.87-6.5-1.75-12.95-2.44-18.28-5.33.11-14.19-.6-20-1.13-3.35-.31-5.65-.56-5.65-.56" />
      <path class="BUNTAI_OTTER_OUTFIT_BUNTAI_OTTER_OUTFIT_18_cls-7" d="M45.87,321.25C58.51,325.59,72.64,326,72.64,326s-1.8,25,0,35.09c-2.94.76-4.85,1.2-6.06,1.45" />
      <path class="BUNTAI_OTTER_OUTFIT_BUNTAI_OTTER_OUTFIT_18_cls-7" d="M44.18,343.16a45.28,45.28,0,0,1,1.69-21.91l-.64-3c-.74-4.87,12.45-6,12.45-6" />
      <path class="BUNTAI_OTTER_OUTFIT_BUNTAI_OTTER_OUTFIT_18_cls-7" d="M65.42,299.81s14.2,7.5,22.27,9.45c-2.2,9.33-6.87,29.31-6.87,29.31L77.14,340" />
      <path class="BUNTAI_OTTER_OUTFIT_BUNTAI_OTTER_OUTFIT_18_cls-7" d="M76.77,345a12.25,12.25,0,0,0,1.78-.16,16.75,16.75,0,0,0,6.38-2.4c.1-.73,1.62-7.09,3.58-14.75.31-1.25.64-2.53,1-3.83.9-3.45,1.86-7,2.79-10.36,1-3.77,2.06-7.26,2.93-9.92a46.32,46.32,0,0,1-19.65-9.35c-1.1-.89-1.68-1.46-1.68-1.46" />
      <path class="BUNTAI_OTTER_OUTFIT_BUNTAI_OTTER_OUTFIT_18_cls-7" d="M89.49,323.88l2.36-2.25,17.06-16.28,6.61-6.31s-3.07-4.54-7.15-10.39c-.44-.64-.91-1.29-1.38-2-.83-1.19-1.7-2.42-2.58-3.66-3.89-5.47-3-8-1.9-9.12a2.91,2.91,0,0,1,1.12-.75" />
      <path class="BUNTAI_OTTER_OUTFIT_BUNTAI_OTTER_OUTFIT_18_cls-7" d="M136.09,278c-2.42-4.22-3-8.14,2.72-8.23" />
      <path class="BUNTAI_OTTER_OUTFIT_BUNTAI_OTTER_OUTFIT_18_cls-7" d="M337.25,461.33H110.36c-.15-.62-.29-1.37-.44-2.25-.18-1.12-.37-2.44-.55-3.94v-.05c-.74-6.09-1.37-15.08-1.53-25-.08-5.71,0-11.74.29-17.73,1.06-21.09,11.15-24.45,19.76-31.28s11.48-12.4,11.48-20.2c0-5.93-.11-13.44,3.42-20.29" />
      <path class="BUNTAI_OTTER_OUTFIT_BUNTAI_OTTER_OUTFIT_18_cls-7" d="M224,337.68H224" />
      <path class="BUNTAI_OTTER_OUTFIT_BUNTAI_OTTER_OUTFIT_18_cls-7" d="M151.35,332.09c7-1.71,16.45,5.22,24.36,7.28h0a15.46,15.46,0,0,0,4.26.54c4.33-.16,13.07-.59,21.63-1,10.46-.55,20.66-1.1,22.23-1.2" />
      <path class="BUNTAI_OTTER_OUTFIT_BUNTAI_OTTER_OUTFIT_18_cls-7" d="M271.91,339.37A301.72,301.72,0,0,0,302.47,305c1.2-1.57,2.38-3.16,3.54-4.75" />
      <path class="BUNTAI_OTTER_OUTFIT_BUNTAI_OTTER_OUTFIT_18_cls-7" d="M303,305.3a99.79,99.79,0,0,1-3,16.9,39.18,39.18,0,0,1-3.78,9.89,42.25,42.25,0,0,1-4.36,6.48,44.31,44.31,0,0,1-4.24,4.56c-1.35,1.27-2.91,2.74-2.59,4.42s2.13,2.61,4,2.9a11.7,11.7,0,0,0,7.73-1.7,16.77,16.77,0,0,0,2.59-2,32.35,32.35,0,0,0,2.9-3.08c.83-1,1.64-2.06,2.46-3.2,8-11.29,14.82-29.43,15.83-33" />
      <path class="BUNTAI_OTTER_OUTFIT_BUNTAI_OTTER_OUTFIT_18_cls-7" d="M349.67,417.14c-.92,7.2-4.53,13.93-8.1,20.52-2.8,5.16.51,10.31-2.29,15.47" />
      <path class="BUNTAI_OTTER_OUTFIT_BUNTAI_OTTER_OUTFIT_18_cls-7" d="M246,338.88q8.67-8.69,17.24-17.45,15-15.24,30-30.5" />
      <path class="BUNTAI_OTTER_OUTFIT_BUNTAI_OTTER_OUTFIT_18_cls-7" d="M363.86,331.6c-1.29,4.69-4,15.33-7.4,28.63-7.73,30.45-12.67,74.77-17.18,92.9h0c-.13.5-.24,1-.36,1.41-.46,1.88-.84,3.41-1.12,4.55-.21.88-.37,1.52-.47,1.87" />
      <path class="BUNTAI_OTTER_OUTFIT_BUNTAI_OTTER_OUTFIT_18_cls-7" d="M337.25,461.33a.66.66,0,0,0,0-.09c0-.05,0-.09,0-.13a.57.57,0,0,0,0-.14c.11-.55.23-1.17.35-1.89.19-1.12.37-2.45.55-3.95v-.06h0c.73-6.09,1.36-15.06,1.52-25,.09-5.7,0-11.74-.28-17.73-1.06-21.09-11.15-24.45-19.76-31.28s-11.48-12.4-11.48-20.2c0-5.93.11-13.44-3.41-20.29" />
      <path class="BUNTAI_OTTER_OUTFIT_BUNTAI_OTTER_OUTFIT_18_cls-7" d="M296.26,332.09c-7-1.7-16.43,5.2-24.35,7.28h0a15.65,15.65,0,0,1-4.29.55c-4.33-.16-13.06-.59-21.62-1-10.11-.53-20-1.07-22-1.2h-.39" />
      <path class="BUNTAI_OTTER_OUTFIT_BUNTAI_OTTER_OUTFIT_18_cls-7" d="M312.72,386c-1,0-56.2-1.47-88.68-1.48h-.48" />
      <path class="BUNTAI_OTTER_OUTFIT_BUNTAI_OTTER_OUTFIT_18_cls-7" d="M264.17,360.07c0,2.35,2.27,4.25,5.08,4.25s5.08-1.9,5.08-4.25-2.27-4.24-5.08-4.24S264.17,357.74,264.17,360.07Z" />
      <path class="BUNTAI_OTTER_OUTFIT_BUNTAI_OTTER_OUTFIT_18_cls-7" d="M279,342.48v18.63c0,4.48-4.35,8.11-9.73,8.11s-9.73-3.63-9.73-8.11V345.2" />
      <path class="BUNTAI_OTTER_OUTFIT_BUNTAI_OTTER_OUTFIT_18_cls-7" d="M223.56,378h.31c4.56.11,57.2,1.36,82.78,1.65h0" />
      <path class="BUNTAI_OTTER_OUTFIT_BUNTAI_OTTER_OUTFIT_18_cls-7" d="M339.75,430.06s4.07-24.64,4.5-40.76-6.73-20.56-4.82-20c0,0,5-.77,6.72,10.33" />
      <path class="BUNTAI_OTTER_OUTFIT_BUNTAI_OTTER_OUTFIT_18_cls-7" d="M328.75,461.33s1.91-9.48,3.39-34.47-6.48-31.81-16.46-38.63a36.85,36.85,0,0,1-2.95-2.24h0a38.68,38.68,0,0,1-6.07-6.39c-4.12-5.49-6.23-11.43-6.17-15.83s.18-11.45-1.13-17" />
      <path class="BUNTAI_OTTER_OUTFIT_BUNTAI_OTTER_OUTFIT_18_cls-7" d="M291.9,338.57c-3.72,0-8.68,2.11-12.92,3.91-3,1.29-5.7,2.44-7.3,2.63-1.41.16-6.15.17-12.16.09-13.3-.15-32.76-.71-35.61-.79h-.35" />
      <g class="BUNTAI_OTTER_OUTFIT_BUNTAI_OTTER_OUTFIT_18_cls-8">
        <path d="M303,305.91s-6.09,14.81-11.06,19.68a63.36,63.36,0,0,1-8.47,7.18s-2.31,3-2,2.86,6.12-3.07,10.47-3.3,4.7.44,5,0,5.64-15.12,5.85-20.41S303,305.91,303,305.91Z" />
        <path d="M341.9,422.92c.3-.87-1.84-12.46-.57-36.8s1-50.41,3.69-39.33-4.35,34.83-3.6,41.56,1.82,15,1.82,15,4.6-32.44,9.28-43.27,5.52-9.51,5.52-9.51-16.52,66.3-16.62,66.57S343,430.88,343,430.88s.14-11.82,7.51-26.82S361.44,386,361.44,386s-4.75,21.35-6.41,27.21-9.61,17.06-9.91,17.68-2.46,16-2.46,16-2.89-4.4,9.29-10.39,20-11.67,18-8.95-16.32,17.84-20.63,19.73-8.43,7.88-8.43,7.88S339.63,429.49,341.9,422.92Z" />
        <path d="M115.52,391.28a50.22,50.22,0,0,0,1.57-10.88c.14-5.75-5-33.61-5-33.61s8.36,23,9.07,27,1.21,10.72,1.21,10.72l-1.64,2.07Z" />
        <path d="M124.61,323.14s-4.41,14.27,3.81,25.38,11,11.83,11,11.83-.82-12.5,3.68-19.48a149.82,149.82,0,0,1-13.15-27.36l-3.75,4.79-3.5.18S126.36,319.77,124.61,323.14Z" />
        <path d="M224,337.67s-3.18,4,0,6.73c-2.55,18.49-5.11,30.49-3,33.62-4.88,4.89-.79,7.23-.79,7.23s-5.58,23.48-6.22,42.38a134.85,134.85,0,0,0,3.4,34.44H110.36s-6.64-48.08,0-62.2,17.56-18.82,17.56-18.82,15.19-8.49,16.57-20.32,3.8-15.88,3.8-15.88,8.85,1,9.06-2.16A8.18,8.18,0,0,0,155,337l-3.35-5s11,1.32,19.61,5.9c7.51,4,23.27,1.94,27.2,1.46S224,337.67,224,337.67Z" />
        <path d="M107.81,448.3s-3.19-6.85-9.92-22.56-10.13-23.63-10.13-23.63,6.18,22.56,10.49,32.78-3,4-3,4l-17.49-8.8s26.48,23.62,29.21,27l3.37,4.23Z" />
        <path d="M106.09,418.24s-12.87-13-15.14-27.88,8.08,1.77,9.18,4.61-3.76-12.46-3.35-18.46a39.12,39.12,0,0,1,3.35-12.19,221.68,221.68,0,0,0,4.49,22.5c2.76,10.27,3.19,15.05,3.19,15.05l1.36,2.19Z" />
        <path d="M76.36,357.93s6.91,11.81,8.18,12.86,1.95,5.8,1.95,5.8l-1.95,3-3.72.39s2.23-6.38,1.6-6.64a21.52,21.52,0,0,0-4.15,0l-1.54,3.2s-6.45-5.29-6.91-5.72-2.46-3.56-2.46-3.56l7.47-1.41,2.91-2.93Z" />
        <path d="M88,331.57s3.56,15.2,6.27,17.37S96.4,355,96.4,355l-4.16,2.54-2.74-2.07s3.12-5.38,2-6-4.29.23-5.35,1.6-1.56,2-1.56,2l-5-7.34L85,342.24Z" />
        <path d="M108.38,306.37s5.8,11.18,4.85,19.36a27.31,27.31,0,0,1-4.85,13l-3.57-1.31L103.36,335l5-5.11L107,328.78s-1.26-.69-3.63.71a32.93,32.93,0,0,0-3.89,2.66l-7.62-10.53Z" />
        <path d="M29.4,448.21s11.62.69,19.35-1.8,10.19-3.5,10.19-3.5l5.16-2s-16-38.54-17.35-43.74S43.54,380,43.54,380l3.21.41s2.25-30.11,9.87-36.3l-6.45-.43s5.22-18,15.25-24.78l-5.43-1s11-14.47,28.52-17l-5.91-2S94.72,288.71,107,286.69c-5-8-4.48-13.53-4.48-13.53S91,274.22,91,282.85c-9.23,6.13-11.78,8.21-11.78,8.21s-8.11-4.08-12.19,1.72a9.65,9.65,0,0,0-1.63,8.12L56.6,312.45s-10.69-.36-11.37,5.79a76.13,76.13,0,0,1-2.51,12.17l.82,8.35a15.49,15.49,0,0,0-4.44,0c-2.5.35-10.12,2.49-8.55,8.23s1.9,25.06,1.9,25.06-9.07.83-13.25,7.86-1.56,13.1-1.34,22.14,5.35,35.6,6.67,39.71S27.49,447.89,29.4,448.21Z" />
      </g>
      <path class="BUNTAI_OTTER_OUTFIT_BUNTAI_OTTER_OUTFIT_18_cls-7" d="M131.48,296.11l2.28-4.21a62.34,62.34,0,0,0,4.15-11.07c.19-.69.38-1.39.54-2.09" />
    </g>
  </g>
</svg>