<svg xmlns="http://www.w3.org/2000/svg" viewBox="0 0 432 432">
  <defs>
    <style>.BUNTAI_OTTER_OUTFIT_BUNTAI_OTTER_OUTFIT_15_cls-1{isolation:isolate;}.BUNTAI_OTTER_OUTFIT_BUNTAI_OTTER_OUTFIT_15_cls-2{fill:#b0a6da;}.BUNTAI_OTTER_OUTFIT_BUNTAI_OTTER_OUTFIT_15_cls-3,.BUNTAI_OTTER_OUTFIT_BUNTAI_OTTER_OUTFIT_15_cls-7{fill:#fff;}.BUNTAI_OTTER_OUTFIT_BUNTAI_OTTER_OUTFIT_15_cls-4{fill:#49227d;}.BUNTAI_OTTER_OUTFIT_BUNTAI_OTTER_OUTFIT_15_cls-5{fill:none;stroke-width:1.64px;}.BUNTAI_OTTER_OUTFIT_BUNTAI_OTTER_OUTFIT_15_cls-5,.BUNTAI_OTTER_OUTFIT_BUNTAI_OTTER_OUTFIT_15_cls-7{stroke:#000;stroke-linecap:round;stroke-linejoin:round;}.BUNTAI_OTTER_OUTFIT_BUNTAI_OTTER_OUTFIT_15_cls-6{opacity:0.43;mix-blend-mode:multiply;}.BUNTAI_OTTER_OUTFIT_BUNTAI_OTTER_OUTFIT_15_cls-7{stroke-width:1.69px;}</style>
  </defs>
  <g class="BUNTAI_OTTER_OUTFIT_BUNTAI_OTTER_OUTFIT_15_cls-1">
    <g id="outfit">
      <path class="BUNTAI_OTTER_OUTFIT_BUNTAI_OTTER_OUTFIT_15_cls-2" d="M108,481.49H73.12C69.18,411.57,81.7,392,102.36,350,102.11,351.58,88.08,438.17,108,481.49Z" />
      <path class="BUNTAI_OTTER_OUTFIT_BUNTAI_OTTER_OUTFIT_15_cls-3" d="M272.45,427.85c2.24,10.76,5.45,19.46,10.69,27.42,9.88,15,18.8,26.22,18.8,26.22H140.46A395.72,395.72,0,0,1,150.07,442V442c3.42-11.7,7.85-25.31,13.56-40.59,1-2.69,2-5.29,3-7.78,2.27,1.16,4.6,2.26,7,3.27s4.92,2,7.49,2.83a120.19,120.19,0,0,0,38.26,6.09,122.22,122.22,0,0,0,31-3.92,109.15,109.15,0,0,0,17.93-6.39C269.39,408.24,270.58,418.78,272.45,427.85Z" />
      <path class="BUNTAI_OTTER_OUTFIT_BUNTAI_OTTER_OUTFIT_15_cls-4" d="M268.27,395.46a103.92,103.92,0,0,1-9.81,3.93c-1.24.44-2.5.85-3.77,1.23-1.43.44-2.89.85-4.36,1.24q-4.47,1.17-9.15,2h0c-2.33.41-4.68.76-7.07,1a126.25,126.25,0,0,1-29.76,0c-1.29-.16-2.57-.33-3.82-.53-2.55-.38-5.05-.85-7.51-1.39l-.05,0a112,112,0,0,1-11.88-3.27c-1.48-.49-2.94-1-4.37-1.58l-.06,0c-1-.4-2-.81-3-1.23-2.4-1-4.74-2.11-7-3.27,3.3-8.37,6.44-15.67,9.39-22,1.16-2.48,2.3-4.79,3.38-7h0c2.3-4.6,4.46-8.57,6.44-12l0,0c2.5-4.29,4.72-7.74,6.66-10.5a79,79,0,0,1,5.2-6.73,30.33,30.33,0,0,1,2.91-3l-.61-1.76c6.14-1.86,11.56-4,14.72-4h0l.61.19.46.15,2.1-.09,3.74-.16.79,0,3.53-.15h0l.2-.08.18-.08c8.1,1.48,8.4,2.88,14.73,6.22h0a229,229,0,0,1,12.48,20.11c6.77,12.31,13.32,27.31,14.49,40.7C268.14,394.1,268.21,394.78,268.27,395.46Z" />
      <path class="BUNTAI_OTTER_OUTFIT_BUNTAI_OTTER_OUTFIT_15_cls-2" d="M159.09,325.77c13.27,2.33,27.38,5.27,35.08,5.93l1.45.12c1.49-.37,2.95-.79,4.38-1.23l.61,1.76a30.69,30.69,0,0,0-2.9,3,76.74,76.74,0,0,0-5.21,6.73c-1.94,2.76-4.16,6.21-6.66,10.5l0,0c-2,3.44-4.14,7.41-6.43,12h0c-1.09,2.19-2.23,4.5-3.39,7-2.95,6.33-6.09,13.62-9.39,22-1,2.49-2,5.09-3,7.78-5.71,15.28-10.14,28.89-13.56,40.59V442a395.72,395.72,0,0,0-9.61,39.49H108c-19.93-43.32-5.9-129.91-5.65-131.51C81.7,392,69.18,411.57,73.12,481.49H41.17s-1.62-2.82-1.93-19.1,7.07-48,7.07-48-.85-14.65,7.89-21.71,17.67-24.76,17.67-24.76-.63-5.88,8.67-21.67,23.71-29,23.71-29l2.89.18c2.89.17,15.19,4.59,30.62,5.48,3.72.22,8.21.78,13.06,1.53C153.49,324.8,156.27,325.28,159.09,325.77Z" />
      <path class="BUNTAI_OTTER_OUTFIT_BUNTAI_OTTER_OUTFIT_15_cls-2" d="M214.72,326.61c-2.05,0-5.05.89-8.58,2h0c-1.91.61-4,1.29-6.12,1.94-1.43.44-2.89.86-4.38,1.23l-1.45-.12c-1.26-.11-2.7-.28-4.27-.5l-1.62-.23c-2.22-.33-4.67-.74-7.28-1.2l-3.17-.57-11.23-2.07-2.48-.46-.44-.08-4.58-.82h0l-3.14-.53-1-.18-1-.16c-1-.18-2.08-.34-3.09-.5h0c-4.85-.75-9.34-1.31-13.06-1.53a112.48,112.48,0,0,1-13.64-1.68c-1.87-.35-3.63-.71-5.26-1.08l-1.27-.29c-4.41-1-7.75-2-9.56-2.3l-.33-.06-.26,0-.3,0-.31,0-.55,0-.47,0h0l-.29,0-.25,0h-.13l-.64-.05h-.24s1-7.25,3.37-7.6c3.86-8.66,8.43-9.19,13.75-11.84a17.73,17.73,0,0,0,7.47-6.9s2.67-.49,6.61-.77c-.19,1-.37,1.84-.56,2.66-.08.37-.15.72-.23,1.07v0c-.29.79-.6,1.55-.91,2.31l.15.18.76.88c.36.39.79.84,1.3,1.34l.13.12a86.5,86.5,0,0,0,8.91,7.15l0,0a127.73,127.73,0,0,0,14.5,8.44,124.48,124.48,0,0,0,34.67,11.11l.17,0q4,.54,8.13.78l.7,0C207.22,326.48,211.07,326.59,214.72,326.61Z" />
      <path class="BUNTAI_OTTER_OUTFIT_BUNTAI_OTTER_OUTFIT_15_cls-2" d="M226.76,322.28a19,19,0,0,0-.56,4.1l-.39,0c-1.1.05-2.21.1-3.34.13l-.8,0c-1.23,0-2.47.06-3.74.07h-2.17c1-.54,1.73-.9,2.2-1.12a1.57,1.57,0,0,1,0-1.13,1.43,1.43,0,0,1,.26-.45c.07-.41.16-.83.26-1.26a1.85,1.85,0,0,1,2.21-1.35,1.76,1.76,0,0,1,1.42,2.1c0,.19-.09.39-.12.58h0l.6.28a21.5,21.5,0,0,1,.5-2.8,1.88,1.88,0,0,1,2.24-1.33A1.78,1.78,0,0,1,226.76,322.28Z" />
      <path class="BUNTAI_OTTER_OUTFIT_BUNTAI_OTTER_OUTFIT_15_cls-2" d="M294.19,292.45v0l.18.44c.06.18.11.37.18.55.57,1.82,1.22,3.58,1.94,5.31,0,0,0,0,0,.05v0c.55,1.32,1.14,2.62,1.77,3.89l-.22.13h0l0,0a163.26,163.26,0,0,1-19.66,10.9c-2.55,1.19-5.45,2.49-8.81,3.81a119.77,119.77,0,0,1-16.53,5.13l-.53.12c-2.14.47-4.2.89-6.13,1.25l-.83.15c-3.75.65-7.81,1.2-12.2,1.6h0q-3.34.3-7,.5c8.1,1.48,8.41,2.88,14.73,6.22h0c5.48.25,7.58.23,22.9-.94l4.2-.21,2.15-.11,4.4-.24c2.21-.12,4.45-.26,6.68-.4l1.7-.12,1.53-.12.71-.06.32,0,.31,0,.59-.06.69-.07.32,0,.2,0,.92-.12.58-.08.39-.06h.1l.93-.15.64-.11.61-.11.74-.15c.62-.12,1.21-.26,1.82-.39l.46-.1.33-.07.45-.1.6-.13.95-.19.51-.1.14,0,.39-.07.44-.08.33-.06.61-.11c.58-.1,1.15-.21,1.72-.33l.43-.1.61-.14.29-.07.31-.08c.16,0,.31-.08.46-.12l1-.29.84-.26.16,0,.61-.2.6-.21c.25-.08.49-.17.72-.26l.71-.28.68-.28.67-.29.35-.16c.37-.16.74-.33,1.09-.51l.21-.1c.4-.19.77-.39,1.15-.59l.12-.06h0c.18-.11.37-.21.56-.31l.55-.31c.36-.2.71-.41,1.06-.62l.66-.41.51-.32.49-.32.31-.21.62-.43.59-.43.85-.63.4-.31.39-.31.09-.06.35-.29.31-.26.35-.29.33-.29.44-.38.2-.18.27-.25c.95-.88,1.7-1.64,2.21-2.2a.3.3,0,0,0,.08-.08l.05,0,.14-.16.09-.1.13-.14,0,0,.05-.06s0,0,0,0h0l0-.05.1-.12.08-.09h0l0-.05h0l0,0v0l-2.41-4.6s-1-1.3-4.18-2.48a52.31,52.31,0,0,1-8-4.35s2-8.58-.24-8.26c-9.84,1.44-12.38-.17-12.79-1.77a2.48,2.48,0,0,1,0-.76,3.81,3.81,0,0,1,.58-1.54l-4.21.37Z" />
      <path class="BUNTAI_OTTER_OUTFIT_BUNTAI_OTTER_OUTFIT_15_cls-2" d="M385.29,481.49H301.94s-8.92-11.2-18.8-26.22c-5.24-8-8.45-16.66-10.69-27.42-1.87-9.07-3.06-19.61-4.18-32.39-.06-.68-.13-1.36-.19-2-1.15-13.4-7.71-28.39-14.47-40.71a233.52,233.52,0,0,0-12.48-20.1h0c5.48.25,7.57.23,22.9-.95,5.47-.26,11.49-.58,17.43-1,10.92-.7,11.49-1.6,18.31-2.76A43.63,43.63,0,0,0,325,313.68h0s13.66,13.19,20.4,24.51,5.33,19.1,13.69,29.94,5.86,31.1,9.41,44.3,12.2,24.05,13.17,25.93,6.75,28.05,6.75,28.05l-1.61,15.08Z" />
      <path class="BUNTAI_OTTER_OUTFIT_BUNTAI_OTTER_OUTFIT_15_cls-5" d="M135.1,297.77s.29.29.84.81l.14.12a87.19,87.19,0,0,0,8.9,7.15l0,0A112.16,112.16,0,0,0,191.07,325" />
      <path class="BUNTAI_OTTER_OUTFIT_BUNTAI_OTTER_OUTFIT_15_cls-5" d="M214.75,326.62h3.18c1.27,0,2.51,0,3.74-.07l.8,0c1.13,0,2.24-.08,3.34-.13l.39,0h.18" />
      <path class="BUNTAI_OTTER_OUTFIT_BUNTAI_OTTER_OUTFIT_15_cls-5" d="M302.85,299.17l-2.44,2.14s-.75.53-2.11,1.43l-.22.13h0l0,0a163.26,163.26,0,0,1-19.66,10.9c-2.55,1.19-5.45,2.49-8.81,3.81" />
      <path class="BUNTAI_OTTER_OUTFIT_BUNTAI_OTTER_OUTFIT_15_cls-5" d="M191.07,325c1,.17,2.07.33,3.12.46l.17,0q4,.54,8.13.78l.7,0c4,.22,7.88.33,11.53.35" />
      <path class="BUNTAI_OTTER_OUTFIT_BUNTAI_OTTER_OUTFIT_15_cls-5" d="M226.38,326.37q3.62-.19,7-.5h0c4.39-.4,8.45-.95,12.2-1.6l.83-.15c2.14-.38,4.19-.81,6.13-1.25l.53-.12a119.77,119.77,0,0,0,16.53-5.13" />
      <path class="BUNTAI_OTTER_OUTFIT_BUNTAI_OTTER_OUTFIT_15_cls-5" d="M135.45,290.09c-3.94.28-6.61.77-6.61.77a17.73,17.73,0,0,1-7.47,6.9c-5.32,2.65-9.89,3.18-13.75,11.84-2.41.35-3.37,7.6-3.37,7.6h.24l.64.05h.13l.25,0,.29,0h0l.47,0,.55,0,.31,0,.3,0,.26,0,.33.06c1.81.33,5.15,1.29,9.56,2.3l1.27.29c1.63.37,3.39.73,5.26,1.08a112.48,112.48,0,0,0,13.64,1.68c3.72.22,8.21.78,13.06,1.53h0c1,.16,2,.32,3.09.5l1,.16,1,.18,3.14.53h0l4.58.82.44.08,2.48.46,11.23,2.07,3.17.57c2.61.46,5.06.87,7.28,1.2l1.62.23c1.57.22,3,.39,4.27.5l1.45.12c1.49-.37,2.95-.79,4.38-1.23,2.15-.65,4.22-1.33,6.13-1.94h0c3.53-1.13,6.53-2,8.58-2h0" />
      <path class="BUNTAI_OTTER_OUTFIT_BUNTAI_OTTER_OUTFIT_15_cls-5" d="M226.38,326.36c8.1,1.48,8.41,2.88,14.73,6.22h0c5.48.25,7.58.23,22.9-.94l6.35-.32,4.4-.24c2.21-.12,4.45-.26,6.68-.4l1.7-.12,1.53-.12.71-.06.32,0,.31,0,.59-.06.69-.07.32,0,.2,0,.92-.12.58-.08.39-.06h.1l.93-.15.64-.11.61-.11.74-.15c.62-.12,1.21-.26,1.82-.39l.46-.1.33-.07.45-.1.6-.13.95-.19.51-.1.14,0,.39-.07.44-.08.33-.06.61-.11c.58-.1,1.15-.21,1.72-.33l.43-.1.61-.14.29-.07.31-.08c.16,0,.31-.08.46-.12l1-.29.84-.26.16,0,.61-.2.6-.21c.25-.08.49-.17.72-.26l.71-.28.68-.28.67-.29.35-.16c.37-.16.74-.33,1.09-.51l.21-.1c.4-.19.77-.39,1.15-.59l.12-.06h0c.18-.11.37-.21.56-.31l.55-.31c.36-.2.71-.41,1.06-.62l.66-.41.51-.32.49-.32.31-.21.62-.43.59-.43.85-.63.79-.62.09-.06.35-.29.31-.26.35-.29.33-.29.44-.38.2-.18.27-.25c.95-.88,1.7-1.64,2.21-2.2a.3.3,0,0,0,.08-.08l.05,0,.14-.16.09-.1.13-.14,0,0h0l.05-.06s0,0,0,0h0l0-.05.1-.12.08-.09h0l0-.05h0l0,0v0l-2.41-4.6s-1-1.3-4.18-2.48a52.31,52.31,0,0,1-8-4.35s2-8.58-.24-8.26c-9.84,1.44-12.38-.17-12.79-1.77a2.48,2.48,0,0,1,0-.76,3.81,3.81,0,0,1,.58-1.54l-4.21.37" />
      <path class="BUNTAI_OTTER_OUTFIT_BUNTAI_OTTER_OUTFIT_15_cls-5" d="M214.75,326.62l.61.19.46.15,2.1-.09,3.74-.16.79,0,3.53-.15h0l.2-.08.18-.08" />
      <path class="BUNTAI_OTTER_OUTFIT_BUNTAI_OTTER_OUTFIT_15_cls-5" d="M150.07,442c3.42-11.7,7.85-25.31,13.56-40.59,1-2.69,2-5.29,3-7.78,3.3-8.38,6.44-15.67,9.39-22,1.16-2.48,2.3-4.79,3.39-7h0c2.29-4.6,4.44-8.57,6.43-12l0,0c2.5-4.29,4.72-7.74,6.66-10.5a76.74,76.74,0,0,1,5.21-6.73,30.69,30.69,0,0,1,2.9-3l.25-.22,5.28-3.49" />
      <path class="BUNTAI_OTTER_OUTFIT_BUNTAI_OTTER_OUTFIT_15_cls-5" d="M108,481.49H41.17s-1.62-2.82-1.93-19.1,7.07-48,7.07-48-.85-14.65,7.89-21.71,17.67-24.76,17.67-24.76-.63-5.88,8.67-21.67,23.71-29,23.71-29" />
      <path class="BUNTAI_OTTER_OUTFIT_BUNTAI_OTTER_OUTFIT_15_cls-5" d="M325,313.68s13.66,13.19,20.4,24.51,5.33,19.1,13.69,29.94,5.86,31.1,9.41,44.3,12.2,24.05,13.17,25.93,6.75,28.05,6.75,28.05l-1.61,15.08H109.45" />
      <path class="BUNTAI_OTTER_OUTFIT_BUNTAI_OTTER_OUTFIT_15_cls-5" d="M241.12,332.59h0a233.52,233.52,0,0,1,12.48,20.1c6.76,12.32,13.32,27.31,14.47,40.71.06.69.13,1.37.19,2,1.12,12.78,2.31,23.32,4.18,32.39,2.24,10.76,5.45,19.46,10.69,27.42,9.88,15,18.8,26.22,18.8,26.22" />
      <path class="BUNTAI_OTTER_OUTFIT_BUNTAI_OTTER_OUTFIT_15_cls-5" d="M159.09,325.77s-7,6.93-20.2,36.66-13.43,51.92-13.43,51.92" />
      <path class="BUNTAI_OTTER_OUTFIT_BUNTAI_OTTER_OUTFIT_15_cls-5" d="M150.82,324.4s-17.17,25.69-23.91,43.37" />
      <path class="BUNTAI_OTTER_OUTFIT_BUNTAI_OTTER_OUTFIT_15_cls-5" d="M102.37,350a222.4,222.4,0,0,1,12.49-22.53" />
      <path class="BUNTAI_OTTER_OUTFIT_BUNTAI_OTTER_OUTFIT_15_cls-5" d="M54.23,481.49c-3.11-30.75,5.42-70.83,5.42-70.83" />
      <path class="BUNTAI_OTTER_OUTFIT_BUNTAI_OTTER_OUTFIT_15_cls-5" d="M281.44,330.67h0c.28.37,9.44,12.12,27.48,45.9" />
      <path class="BUNTAI_OTTER_OUTFIT_BUNTAI_OTTER_OUTFIT_15_cls-5" d="M269.67,341.16s37.81,61,39.26,140.33" />
      <path class="BUNTAI_OTTER_OUTFIT_BUNTAI_OTTER_OUTFIT_15_cls-5" d="M166.61,393.58c2.27,1.16,4.6,2.26,7,3.27s4.92,2,7.49,2.83a120.19,120.19,0,0,0,38.26,6.09,122.22,122.22,0,0,0,31-3.92,109.15,109.15,0,0,0,17.93-6.39" />
      <path class="BUNTAI_OTTER_OUTFIT_BUNTAI_OTTER_OUTFIT_15_cls-5" d="M181.1,399.68a293.52,293.52,0,0,0,1,46.93" />
      <path class="BUNTAI_OTTER_OUTFIT_BUNTAI_OTTER_OUTFIT_15_cls-5" d="M173.61,396.85s-1.91,47.81,5.47,71.5" />
      <path class="BUNTAI_OTTER_OUTFIT_BUNTAI_OTTER_OUTFIT_15_cls-5" d="M250.34,401.85s2.65,37.6-9.16,60.54" />
      <path class="BUNTAI_OTTER_OUTFIT_BUNTAI_OTTER_OUTFIT_15_cls-5" d="M272.45,427.85s.8,19.82-11,37.67" />
      <path class="BUNTAI_OTTER_OUTFIT_BUNTAI_OTTER_OUTFIT_15_cls-5" d="M102.37,350a0,0,0,0,1,0,0c-.25,1.6-14.28,88.19,5.65,131.51h1.44" />
      <path class="BUNTAI_OTTER_OUTFIT_BUNTAI_OTTER_OUTFIT_15_cls-5" d="M364.09,481.49c-.57-43.6-33.39-84.64-33.39-84.64" />
      <g class="BUNTAI_OTTER_OUTFIT_BUNTAI_OTTER_OUTFIT_15_cls-6">
        <path d="M134.89,292.75c-.08.37-.15.72-.23,1.07v0c-.29.79-.6,1.55-.91,2.31a9.48,9.48,0,0,1-.62-.81Z" />
        <path d="M136.08,298.7a87.19,87.19,0,0,0,8.9,7.15A66.56,66.56,0,0,1,136.08,298.7Z" />
        <path d="M203.19,326.27a8.15,8.15,0,0,0-1.05.1,57.56,57.56,0,0,1-7.78-.92q4,.54,8.13.78Z" />
        <path d="M233.36,325.86c4.39-.4,8.45-.95,12.2-1.6-7.89,1.44-13.59,2-13.59,2l1.37-.37Z" />
        <path d="M298.05,302.9c-.36.33-3.79,3.18-20.51,11.66-7.36,3.73-16.41,6.37-24.49,8.18a119.77,119.77,0,0,0,16.53-5.13c3.36-1.32,6.26-2.62,8.81-3.81A163.26,163.26,0,0,0,298.05,302.9Z" />
        <path d="M164.12,326.67s-22.56,42.36-26.07,79.1c-.17-23.19.82-34.45.82-34.45S126,401.61,129,440s4.34,41.51,4.34,41.51H122.84s-7-56,3-92.29a260.92,260.92,0,0,1,28.08-64.31Z" />
        <path d="M124.68,320.11s-18.75,35.35-18.23,61.52,1.35,67.5,4.86,80.76,5.85,19.77,5.85,19.77H85.91c.8-90.91.44-89.93,14-127.16a243.94,243.94,0,0,1,18.86-34.89Z" />
        <path d="M105.29,317.21s-23,36.09-25.88,51.52S65.74,406.4,65.07,437.46s1.79,44,1.79,44H41.17s-2.61-16.46-.39-39,6-42.91,13.68-50.16,16.15-22.36,16.93-25C76.85,349.39,99.39,319.07,105.29,317.21Z" />
        <path d="M273.93,348.73s2,17.45,9.85,50.39,10.36,54.17,10.36,54.17-12-25.36-18.88-40.9c1.67,26.8,7.82,40.84,10.34,46.58s16.34,22.52,16.34,22.52h7s-.74-30-4.92-68.58A294.21,294.21,0,0,0,288,344.21s6.78,29.78,7.24,44.3c-16.76-44-25.52-47.35-25.52-47.35Z" />
        <path d="M281.44,330.67s32.65,49.62,37.5,72.82c.94-25.51-16.47-74.56-16.47-74.56Z" />
        <path d="M331.62,396.85c22.46,32.83,22.93,33.08,31.59,53.65,8.19,19.45,10.7,31,10.19,31h-9.31S342.15,430.3,331.62,396.85Z" />
        <path d="M166.18,394.68s-24.45,64.33-25.9,87.8h60.59s-6.11-34.63-6.78-57.7c-2.45,33.59-3,46.28-3,46.28S184.36,436.14,193,403C182.46,400.12,166.18,394.68,166.18,394.68Z" />
        <path d="M234.11,404.91a201.15,201.15,0,0,1-10,52.83,152.82,152.82,0,0,0,17.06-53.88Z" />
      </g>
      <polyline class="BUNTAI_OTTER_OUTFIT_BUNTAI_OTTER_OUTFIT_15_cls-5" points="131.56 293.66 133.74 296.18 134.65 297.24 135.1 297.77" />
      <path class="BUNTAI_OTTER_OUTFIT_BUNTAI_OTTER_OUTFIT_15_cls-7" d="M259.69,435a1.9,1.9,0,0,1-1.54-.77c-4.95-6.89-4.41-16.34-3.79-27.27.63-11.19,1.35-23.87-3.18-37.68-8.82-26.9-24.24-36.88-24.39-37a1.71,1.71,0,0,1-.52-2.45,1.93,1.93,0,0,1,2.58-.49c.68.42,16.68,10.78,25.89,38.87,4.73,14.41,4,27.43,3.34,38.92-.61,10.72-1.09,19.19,3.15,25.08a1.72,1.72,0,0,1-.49,2.46A1.89,1.89,0,0,1,259.69,435Z" />
      <path class="BUNTAI_OTTER_OUTFIT_BUNTAI_OTTER_OUTFIT_15_cls-7" d="M208,431.46a1.87,1.87,0,0,1-1.76-1.19c-.35-.95-8.59-23.71-5.29-42.68,1.39-8,4.37-16.27,7.26-24.28,4-11,7.69-21.31,6.92-29.6a1.78,1.78,0,0,1,1.69-1.91,1.82,1.82,0,0,1,2,1.6c.84,9-3,19.73-7.1,31.06-2.84,7.86-5.78,16-7.11,23.7-3.14,18.07,5,40.72,5.13,40.95a1.75,1.75,0,0,1-1.15,2.25A1.86,1.86,0,0,1,208,431.46Z" />
      <path class="BUNTAI_OTTER_OUTFIT_BUNTAI_OTTER_OUTFIT_15_cls-7" d="M238.26,344l0-.06c-.62-1.25-1.09-2.15-1.34-2.62a59.58,59.58,0,0,0-7.76-11.7h0a1,1,0,0,0-.18-.18,27.49,27.49,0,0,0-2.75-2.68l-.21-.17a.7.7,0,0,0-.17-.13,19.61,19.61,0,0,0-3.19-2.12L222,324h0a14.32,14.32,0,0,0-1.63-.67c-.79-.27.17.79-.31,1.4a1.43,1.43,0,0,0-.26.45c-.16.37-2,0-1.85.33-.47.22-1.19.58-2.2,1.12h0l-.35.18c-1.06.57-2.38,1.31-3.9,2.24a100.73,100.73,0,0,0-14.93,11.21c-.81.71-1.62,1.47-2.44,2.25-9.43,9-15.3,23.31-12.79,31.19a9.1,9.1,0,0,0,.37,1,7,7,0,0,0,5.11,4.2c8.38,1.68,12.55-8.39,17-19.06,1.16-2.84,2.38-5.78,3.68-8.51,2.9-6.08,5.32-10.68,7.77-13.73h0a13.49,13.49,0,0,1,3.62-3.33h0l.07,0c.19-.1.38-.21.56-.29a7.38,7.38,0,0,1,2.93-.7h.12c.1,0,.19,0,.35.22a5.81,5.81,0,0,1,.84,2.9h0a18.77,18.77,0,0,1,.07,2.19h0c-.09,7.79-3.46,22.13-8.38,34.1A20.53,20.53,0,0,0,223.59,398a16.49,16.49,0,0,0,8.6,2.55,15.32,15.32,0,0,0,10.74-4.54C256,383.31,243,353.55,238.26,344Zm-15.87-14.33-.66.05h0a11.14,11.14,0,0,0-3.65.92h0l-.23.11c-5.1,2.39-8.66,8.32-13.8,19.13-1.34,2.83-2.57,5.81-3.75,8.69-3.82,9.23-7.4,18-12.73,16.88-.47-.1-2-.39-2.69-2.72a13.52,13.52,0,0,1-.16-6.13s0,0,0,0h0a37.51,37.51,0,0,1,5.81-14v0a44,44,0,0,1,6.2-7.48A95.08,95.08,0,0,1,218,329.5l.49-.25c1-.48,1.48-.71,1.5-.72a1.89,1.89,0,0,0,1-1,7.59,7.59,0,0,1,.66.39,8.85,8.85,0,0,1,.89.57c.39.28.77.57,1.18.9s.63.55.95.85a3.78,3.78,0,0,0-2-.56h-.24Zm17.88,63.95c-4.14,4-9.63,4.58-14.67,1.49a17.05,17.05,0,0,1-6.72-21.17c4.3-10.48,8.68-26.45,8.56-36h0a13.11,13.11,0,0,0-1.23-6.13l.22.25c.25.28.5.58.74.88l0,0h0a60.37,60.37,0,0,1,6.36,9.91C240.52,355.9,250.87,383.27,240.27,393.57Z" />
      <path class="BUNTAI_OTTER_OUTFIT_BUNTAI_OTTER_OUTFIT_15_cls-7" d="M223.78,338.48h0a1.67,1.67,0,0,1-.52.46,1.82,1.82,0,0,1-1,.27,1.89,1.89,0,0,1-1.57-.81,16.62,16.62,0,0,1-1.75-3.86,3.37,3.37,0,0,1-.1-.34q-.27-.85-.48-1.86c-.12-.56-.22-1.14-.3-1.76,0-.35-.07-.72-.1-1.09a22.76,22.76,0,0,1,0-2.63,2,2,0,0,0,0-.25,24.14,24.14,0,0,1,.31-2.69c.07-.41.16-.83.26-1.26a1.85,1.85,0,0,1,2.21-1.35,1.76,1.76,0,0,1,1.42,2.1c0,.19-.09.39-.12.58a18.66,18.66,0,0,0-.34,2.55c0,.06,0,.11,0,.16,0,.39,0,.78,0,1.16a17.13,17.13,0,0,0,.1,1.8,18.73,18.73,0,0,0,.68,3.5,15.13,15.13,0,0,0,1.31,3.11h0l.13.22A1.68,1.68,0,0,1,223.78,338.48Z" />
      <path class="BUNTAI_OTTER_OUTFIT_BUNTAI_OTTER_OUTFIT_15_cls-7" d="M227.68,337.81a.86.86,0,0,1-.24.11h0a1.46,1.46,0,0,1-.39.12,1.91,1.91,0,0,1-1.93-.8,19,19,0,0,1-2.5-7.62c-.05-.38-.08-.78-.11-1.19s-.07-1.15-.06-1.76a.39.39,0,0,1,0-.15,22.36,22.36,0,0,1,.15-2.25,21.5,21.5,0,0,1,.5-2.8,1.88,1.88,0,0,1,2.24-1.33,1.78,1.78,0,0,1,1.4,2.13,19,19,0,0,0-.56,4.1v.07a2.18,2.18,0,0,0,0,.25,18.8,18.8,0,0,0,.21,3,17.09,17.09,0,0,0,.65,2.8c0,.15.09.3.14.44h0a12.88,12.88,0,0,0,1.09,2.42A1.72,1.72,0,0,1,227.68,337.81Z" />
      <path class="BUNTAI_OTTER_OUTFIT_BUNTAI_OTTER_OUTFIT_15_cls-5" d="M134.13,295.92c.17-.62.34-1.31.52-2.06v0c.08-.35.15-.7.23-1.07.19-.82.37-1.71.56-2.66" />
      <path class="BUNTAI_OTTER_OUTFIT_BUNTAI_OTTER_OUTFIT_15_cls-5" d="M295,295.92c-.28-1.17-.56-2.33-.83-3.47-.18-.73-.35-1.45-.53-2.17" />
      <path class="BUNTAI_OTTER_OUTFIT_BUNTAI_OTTER_OUTFIT_15_cls-5" d="M134.13,295.92l-.24.43" />
      <path class="BUNTAI_OTTER_OUTFIT_BUNTAI_OTTER_OUTFIT_15_cls-5" d="M295,295.92c.49,1,1,2,1.5,2.9v0c.7,1.28,1.42,2.48,2.17,3.63" />
    </g>
  </g>
</svg>