<svg xmlns="http://www.w3.org/2000/svg" viewBox="0 0 432 432">
  <defs>
    <style>.BUNTAI_OTTER_OUTFIT_BUNTAI_OTTER_OUTFIT_35_cls-1{isolation:isolate;}.BUNTAI_OTTER_OUTFIT_BUNTAI_OTTER_OUTFIT_35_cls-2{fill:#fff;}.BUNTAI_OTTER_OUTFIT_BUNTAI_OTTER_OUTFIT_35_cls-3{fill:#e0f66e;}.BUNTAI_OTTER_OUTFIT_BUNTAI_OTTER_OUTFIT_35_cls-4{fill:#87582e;}.BUNTAI_OTTER_OUTFIT_BUNTAI_OTTER_OUTFIT_35_cls-5,.BUNTAI_OTTER_OUTFIT_BUNTAI_OTTER_OUTFIT_35_cls-7,.BUNTAI_OTTER_OUTFIT_BUNTAI_OTTER_OUTFIT_35_cls-9{fill:none;}.BUNTAI_OTTER_OUTFIT_BUNTAI_OTTER_OUTFIT_35_cls-6{fill:#b6e4a3;}.BUNTAI_OTTER_OUTFIT_BUNTAI_OTTER_OUTFIT_35_cls-7,.BUNTAI_OTTER_OUTFIT_BUNTAI_OTTER_OUTFIT_35_cls-9{stroke:#000;stroke-linecap:round;stroke-linejoin:round;}.BUNTAI_OTTER_OUTFIT_BUNTAI_OTTER_OUTFIT_35_cls-7{stroke-width:1.64px;}.BUNTAI_OTTER_OUTFIT_BUNTAI_OTTER_OUTFIT_35_cls-8{opacity:0.43;mix-blend-mode:multiply;}.BUNTAI_OTTER_OUTFIT_BUNTAI_OTTER_OUTFIT_35_cls-9{stroke-width:2.12px;}</style>
  </defs>
  <g class="BUNTAI_OTTER_OUTFIT_BUNTAI_OTTER_OUTFIT_35_cls-1">
    <g id="outfit">
      <path class="BUNTAI_OTTER_OUTFIT_BUNTAI_OTTER_OUTFIT_35_cls-2" d="M264,386.7a3.19,3.19,0,0,0,0-.45,1.94,1.94,0,0,0,0-.24c0-.12,0-.23-.05-.34l0-.13a2.56,2.56,0,0,0,0-.27v0s0,0,0,0a1.18,1.18,0,0,0,0-.2.93.93,0,0,1,0-.13,2.17,2.17,0,0,0-.07-.24,2.17,2.17,0,0,0-.07-.24c-.07-.19-.14-.37-.22-.55a4.65,4.65,0,0,0-.3-.59c-.07-.13-.15-.25-.23-.37a.22.22,0,0,0-.05-.08l-.06-.09-.07-.09c-.12-.15-.24-.3-.36-.43l0,0c-.06-.07-.13-.13-.2-.2l-.1-.1-.2-.18-.39-.3-.4-.26c-3.37-2-8.85-.75-13.29.91,1.25-2.91,2-6.19.8-8.65a4.79,4.79,0,0,0-.33-.56,2.43,2.43,0,0,0-.2-.28.76.76,0,0,0-.11-.14l-.12-.14a1.8,1.8,0,0,0-.19-.2.08.08,0,0,0,0-.05.12.12,0,0,0-.07-.07.64.64,0,0,0-.15-.14l-.21-.18-.35-.26a2.55,2.55,0,0,0-.39-.24l-.23-.12h0l-.05,0-.07,0-.08,0-.19-.08-.28-.11-.34-.12-.09,0-.11,0a.08.08,0,0,0-.07,0l-.28-.07-.19-.05-.11,0a4.68,4.68,0,0,0-.56-.09l-.17,0h0a11.94,11.94,0,0,0-2.76,0h0l-.17,0a4.37,4.37,0,0,0-.56.09l-.19,0-.09,0a4.74,4.74,0,0,0-.57.15l-.34.12-.28.11-.19.08-.08,0-.07,0-.05,0h0l-.23.12-.39.24-.14.09h0a.46.46,0,0,1-.1.07l-.09.08-.21.18h0a7.5,7.5,0,0,0-.68.73,2.43,2.43,0,0,0-.2.28,4.79,4.79,0,0,0-.33.56l-.15.33a4.45,4.45,0,0,0-.24.7s0,0,0,.06a.64.64,0,0,0,0,.07,5.6,5.6,0,0,0-.12.59c0,.24-.06.49-.07.75s0,.31,0,.47a1.34,1.34,0,0,0,0,.2,2.09,2.09,0,0,0,0,.25c0,.16,0,.32,0,.48s0,.23,0,.34.07.47.12.7.07.35.11.52c.08.35.18.7.29,1.05.05.18.11.35.17.53s.15.43.23.64a29,29,0,0,0,1.52,3.32l.26.46H198.57l.26-.46c.17-.32.34-.66.51-1l.24-.52c.09-.17.17-.35.24-.52s.16-.36.23-.54.15-.37.22-.55.1-.25.14-.37l.15-.43a1.59,1.59,0,0,0,.07-.2,1.42,1.42,0,0,0,.07-.22c.1-.3.19-.61.26-.92,0-.13.07-.27.1-.4a7.55,7.55,0,0,0,.16-.8l.06-.38,0-.26c0-.33.05-.66.05-1a1.69,1.69,0,0,0,0-.23c0-.15,0-.3,0-.44a4.35,4.35,0,0,0-.06-.52,3.57,3.57,0,0,0-.11-.55l-.06-.23a6.26,6.26,0,0,0-.21-.61c0-.11-.09-.22-.14-.33l-.16-.28-.18-.28-.2-.28a4.33,4.33,0,0,0-.69-.74l-.21-.18-.35-.26-.39-.24a3.49,3.49,0,0,0-.58-.29l-.32-.13-.34-.12a1.68,1.68,0,0,0-.32-.09l-.34-.09-.09,0-.83-.14a12.64,12.64,0,0,0-2.84,0c-.3,0-.57.09-.84.14s-.51.13-.74.2l-.34.12-.32.13a3.92,3.92,0,0,0-.58.29,3.14,3.14,0,0,0-.39.24l-.35.26-.21.18-.21.19-.1.11-.15.16a5.28,5.28,0,0,0-.76,1.12,5.62,5.62,0,0,0-.47,1.38c0,.12,0,.24-.07.36s-.06.5-.07.75,0,.27,0,.4,0,.45,0,.68.06.59.11.89a.69.69,0,0,0,0,.2c0,.12,0,.24.07.36s.05.25.08.37l0,.13c.06.26.13.51.2.77s.15.49.24.74.13.37.2.55c.14.36.28.72.43,1.07h0c-4.43-1.66-9.9-2.94-13.28-.91-1.38.83-3,2.56-3,6.06s1.65,5.24,3,6.07c.16.09.31.18.48.26a6.85,6.85,0,0,0,1.56.54l.57.11a11,11,0,0,0,1.17.12h.88l.82,0,.55-.05h.16c.32,0,.64-.08,1-.14L183,394l.46-.09.79-.17,1-.25.23-.07.27-.08.27-.08h0l.21-.07.27-.08h0l.52-.17c.56-.18,1.1-.37,1.63-.57h0c-.15.36-.29.72-.43,1.08-.07.17-.13.35-.19.52a15.35,15.35,0,0,0-.56,2c0,.18-.07.36-.1.53s0,.2,0,.29-.06.42-.07.63a6.71,6.71,0,0,0,.59,3.58c.75,1.47,2.45,3.23,6.41,3.23l.71,0,.54-.05h.13l.46-.07.54-.11.6-.16.44-.16.4-.17a3.55,3.55,0,0,0,.39-.2,3.13,3.13,0,0,0,.36-.22l.3-.21a3,3,0,0,0,.33-.28,1.54,1.54,0,0,0,.19-.17l.14-.15,0,0c.1-.1.19-.21.28-.32l0-.05a.66.66,0,0,0,.12-.17l.07-.09a.08.08,0,0,0,0,0c.06-.09.12-.17.17-.26s.11-.19.16-.28.1-.22.14-.33.09-.23.13-.35a3.58,3.58,0,0,0,.11-.35,5.59,5.59,0,0,0,.15-.71c.46-3.1-1.14-6.9-2.71-9.71h39.24c-1.87,3.37-3.81,8.15-2.17,11.45.74,1.47,2.45,3.23,6.41,3.23s5.67-1.76,6.41-3.23c1.22-2.46.45-5.74-.8-8.66q.71.27,1.44.51c.49.17,1,.33,1.5.47l.24.07.32.09.41.11.1,0,.38.09.18,0,.7.15.3.06.43.08.14,0,.56.09.44.05h.12l.34,0h.21l.24,0h1.58l.33,0h.15l.61-.08.53-.1.55-.14.15-.06.18-.06.66-.27,0,0h0l.46-.25a6.11,6.11,0,0,0,1.06-.81l.26-.26,0-.05.25-.3c.09-.11.17-.22.25-.34s.16-.24.23-.37a4.65,4.65,0,0,0,.3-.59c.08-.18.15-.36.22-.55s.1-.32.14-.49h0c0-.14.07-.29.1-.45l0-.17,0-.17s0-.05,0-.08,0-.17,0-.27a.37.37,0,0,0,0-.11.09.09,0,0,0,0-.05.17.17,0,0,1,0-.07c0-.07,0-.15,0-.23v0a1.08,1.08,0,0,0,0-.18h0v-.16c0-.11,0-.22,0-.33S264,386.86,264,386.7Zm-76.16.93-.73.28-1.32.47-1.14.37-.17.05-.83.23-.47.12-.82.19h0l-.89.16c-.28,0-.56.08-.83.1a8.53,8.53,0,0,1-.86,0h-.4l-.37,0h-.06l-.35-.07-.34-.1a2.32,2.32,0,0,1-.39-.18l-.1-.07-.11-.09a.88.88,0,0,1-.2-.25,1.45,1.45,0,0,1-.1-.18,2.92,2.92,0,0,1-.23-.92,4.39,4.39,0,0,1,0-.54,4.22,4.22,0,0,1,0-.53,5.07,5.07,0,0,1,.11-.6,1.46,1.46,0,0,1,.11-.3l.06-.12a.91.91,0,0,1,.13-.19,1.12,1.12,0,0,1,.33-.29,3.89,3.89,0,0,1,2-.42c2.39,0,5.93,1.1,9.15,2.45Zm52-12.13a.72.72,0,0,1,.11-.15,1.24,1.24,0,0,1,.38-.24l.27-.09a3.79,3.79,0,0,1,.67-.13,7.08,7.08,0,0,1,1.68,0,3.79,3.79,0,0,1,.67.13l.27.09a1.24,1.24,0,0,1,.38.24.72.72,0,0,1,.11.15,2.9,2.9,0,0,1,.07,1.7,3.43,3.43,0,0,1-.09.44,15.88,15.88,0,0,1-.55,1.71c-.08.2-.16.4-.25.6-.2.5-.44,1-.71,1.54-.15.3-.31.61-.48.92l-.26.46-.29-.52-.34-.65a2.12,2.12,0,0,1-.11-.21l-.44-.92c-.13-.27-.24-.53-.34-.79s-.14-.33-.2-.49c-.15-.37-.27-.74-.37-1.08s-.11-.39-.16-.57h0c-.05-.24-.1-.47-.13-.69A2.51,2.51,0,0,1,239.78,375.5Zm-47.72,0a.72.72,0,0,1,.11-.15,1.13,1.13,0,0,1,.38-.24l.27-.09a3.79,3.79,0,0,1,.67-.13,7.3,7.3,0,0,1,.84-.05,7.16,7.16,0,0,1,.84.05,4.11,4.11,0,0,1,.68.13l.26.09a1.19,1.19,0,0,1,.39.24.72.72,0,0,1,.11.15c.59,1.19-.57,4.35-2.28,7.37C192.62,379.85,191.47,376.69,192.06,375.5Zm4.55,23.36a1,1,0,0,1-.52.4,1.34,1.34,0,0,1-.24.09,5.41,5.41,0,0,1-1.52.18h-.47a6.16,6.16,0,0,1-.67-.08,2.88,2.88,0,0,1-.64-.19.9.9,0,0,1-.22-.11.53.53,0,0,1-.16-.13.49.49,0,0,1-.11-.14,2.59,2.59,0,0,1-.11-1.44,6.38,6.38,0,0,1,.13-.69,22.51,22.51,0,0,1,2.25-5.24C196,394.52,197.2,397.67,196.61,398.86Zm47.71,0a.49.49,0,0,1-.11.14.7.7,0,0,1-.16.13,1.13,1.13,0,0,1-.22.11,1.69,1.69,0,0,1-.27.1,4,4,0,0,1-.6.12l-.37,0h-.87l-.31,0a3.85,3.85,0,0,1-.52-.07l-.23-.05a2.11,2.11,0,0,1-.3-.1.89.89,0,0,1-.26-.12l-.13-.09a.52.52,0,0,1-.11-.1.38.38,0,0,1-.08-.11,2.5,2.5,0,0,1-.11-1.44c0-.22.08-.44.13-.69a13.47,13.47,0,0,1,.63-1.89l.12-.29c.1-.26.22-.53.35-.8l.41-.86.48-.92.26-.47.35.64c.12.21.23.42.33.64a7.33,7.33,0,0,1,.34.69l.16.34c.11.24.22.48.31.71s.15.37.22.55a4.68,4.68,0,0,1,.18.48,4,4,0,0,1,.15.45c.06.18.11.36.15.53s.08.3.11.45a1.62,1.62,0,0,1,0,.19,5.15,5.15,0,0,1,.07.53c0,.12,0,.23,0,.34A1.86,1.86,0,0,1,244.32,398.87Zm14.46-9.8a1,1,0,0,1-.21.14l-.18.1a.37.37,0,0,1-.16.07.49.49,0,0,1-.17.06,1.68,1.68,0,0,1-.32.09l-.17,0-.18,0a1.84,1.84,0,0,1-.33,0,3.39,3.39,0,0,1-.45,0l-.52,0-.47,0-.34,0-.35-.05-.85-.15-.56-.12-.87-.22-.91-.26-.6-.19q-1-.33-2-.72c-.24-.09-.49-.18-.72-.28l-.91-.37c3.22-1.35,6.76-2.45,9.14-2.45a3.87,3.87,0,0,1,2,.42l.07.05.09.06s0,0,0,0l0,0a.85.85,0,0,1,.17.2.41.41,0,0,1,.07.11.84.84,0,0,1,.09.19,1,1,0,0,1,.08.23.06.06,0,0,1,0,0c0,.07,0,.14,0,.22a5.18,5.18,0,0,1,.07.87,6.18,6.18,0,0,1,0,.65,2,2,0,0,1,0,.26q0,.14-.06.24a2.09,2.09,0,0,1-.11.3l-.06.12a1.48,1.48,0,0,1-.25.32Z" />
      <path class="BUNTAI_OTTER_OUTFIT_BUNTAI_OTTER_OUTFIT_35_cls-3" d="M352.17,388.46c3.05,6.25,19.86,41.11,23.42,58.24h-75.9l.38-.17a4.25,4.25,0,0,0,.54-.24c.21-.08.42-.17.62-.27a3.39,3.39,0,0,0,.39-.18c.38-.17.76-.35,1.13-.54a1,1,0,0,0,.23-.12c.52-.25,1-.52,1.53-.8s1-.57,1.55-.88.81-.48,1.2-.74.68-.42,1-.66.37-.23.56-.36l1-.73c.18-.12.37-.26.55-.4a4.59,4.59,0,0,0,.44-.33c.69-.51,1.37-1,2-1.61.33-.27.66-.55,1-.84s.65-.56,1-.86.62-.57.92-.87.61-.58.89-.89a.68.68,0,0,0,.12-.12c.21-.2.4-.4.59-.61s.55-.58.81-.88.58-.64.85-1q.78-.9,1.5-1.83c.15-.18.3-.37.44-.56.28-.37.56-.75.83-1.13s.72-1,1.06-1.54.68-1,1-1.57c0,0,0,0,0,0,.11-.16.21-.33.31-.5a52.64,52.64,0,0,0,6-37.62c-.07-.34-.15-.68-.23-1a84.5,84.5,0,0,0-4.71-13.33c3,1.29,7.81,3,11.08,2.35,5.1-1,5.92-4,9.56-3.27a15.4,15.4,0,0,1,3.55,1.37l1.23,7.22,1.07,6.31s.11.21.31.62C352.05,388.21,352.1,388.33,352.17,388.46Z" />
      <path class="BUNTAI_OTTER_OUTFIT_BUNTAI_OTTER_OUTFIT_35_cls-3" d="M136.69,446.7H47.51c3.74-18,22.1-55.56,23.77-59l.13-.25,0-.11,1.45-8.54.92-5.41c2.6-.79,5.43-1.67,7.59.39,2.91,2.79,5.51-.48,9.15-1.23s4.46,2.3,9.56,3.27c3.28.62,8.06-1.06,11.09-2.35-1,2.34-2,4.7-2.82,7.08-.05.13-.1.27-.14.4-.51,1.44-1,2.88-1.37,4.35-.13.5-.26,1-.38,1.5a4.7,4.7,0,0,0-.12.51l-.12.51h0a51.29,51.29,0,0,0-1.1,13.76c0,.47.05.93.09,1.39s.07.92.13,1.38a.38.38,0,0,0,0,.15,7.46,7.46,0,0,0,.1.81,0,0,0,0,0,0,0c0,.29.06.57.11.85.16,1.22.38,2.43.64,3.63.12.63.26,1.25.43,1.87s.29,1.14.46,1.71a.07.07,0,0,0,0,.07.53.53,0,0,0,0,.17c.13.45.26.89.41,1.33,0,0,0,0,0,0,.15.49.31,1,.48,1.45.09.25.18.51.28.76s.16.45.25.67.2.53.32.8.18.45.28.68a.69.69,0,0,1,0,.13c.11.26.22.52.34.78s.17.39.26.58c.47,1,1,2.06,1.53,3.06.18.33.37.66.56,1a5.39,5.39,0,0,0,.3.52v0l.12.2c.24.42.5.83.76,1.23l.34.53q.36.56.75,1.11a1.13,1.13,0,0,0,.1.13c.15.23.31.46.49.69.29.42.59.82.9,1.22l.29.37c.11.13.21.27.33.4l0,0c.3.38.61.76.94,1.13s.63.74,1,1.1l.12.13c.38.42.76.83,1.16,1.23.18.19.36.38.55.56.43.43.87.86,1.32,1.27s.87.79,1.31,1.18l.14.12q.63.56,1.29,1.08l0,0c.34.28.69.55,1,.81s.69.53,1,.79l1.2.84a3.87,3.87,0,0,0,.37.24l.18.13c.46.31.93.61,1.4.9.32.2.65.4,1,.59a.72.72,0,0,0,.19.11c.42.26.85.5,1.29.73s.85.47,1.29.69.87.44,1.31.64.72.35,1.09.5S136.31,446.54,136.69,446.7Z" />
      <path class="BUNTAI_OTTER_OUTFIT_BUNTAI_OTTER_OUTFIT_35_cls-4" d="M225.65,404.4a72.76,72.76,0,0,1,.89-14.86h-6.37c-3.62,22-1.87,45.49,17.53,59.78a101.1,101.1,0,0,0,26.27,4.3l-15.79-8.07C236.18,440.79,226.79,424.4,225.65,404.4Z" />
      <path class="BUNTAI_OTTER_OUTFIT_BUNTAI_OTTER_OUTFIT_35_cls-4" d="M209.84,389.54a73.45,73.45,0,0,1,.88,14.86c-1.13,20-10.53,36.39-22.53,41.15l-15.78,6.05a172.46,172.46,0,0,0,26.26-2.28c19.4-14.29,21.15-37.81,17.53-59.78Z" />
      <path class="BUNTAI_OTTER_OUTFIT_BUNTAI_OTTER_OUTFIT_35_cls-4" d="M113.93,365.85l-.37-.28h0l-.09-.07-.07-.06-.09-.07-1-.78c-1.31-1-2.59-2.06-3.82-3.16-.66-.57-1.3-1.16-1.94-1.77-.36-.35-.73-.7-1.08-1.06s-.71-.72-1.06-1.08a64.33,64.33,0,0,1-4.91-5.78q-.9-1.22-1.74-2.46c-.28-.42-.56-.84-.83-1.27-.46-.72-.91-1.44-1.33-2.19s-.73-1.31-1.06-2c-.26-.48-.5-1-.73-1.47s-.5-1.07-.73-1.61a1.15,1.15,0,0,1-.1-.23c-.25-.57-.48-1.14-.7-1.71a50.14,50.14,0,0,1,6.54-8.54,94.69,94.69,0,0,0,13.91,32.65c.4.59.8,1.17,1.22,1.76v0Q113.9,365.28,113.93,365.85Z" />
      <path class="BUNTAI_OTTER_OUTFIT_BUNTAI_OTTER_OUTFIT_35_cls-4" d="M337.77,350.59c-.52.74-1.07,1.46-1.62,2.17-.28.36-.56.71-.85,1.06s-.53.64-.8.95c-1.25,1.48-2.58,2.9-4,4.25q-.87.86-1.77,1.68c-.53.49-1.07,1-1.61,1.43-.21.18-.43.37-.66.55s-.28.24-.42.34c-.48.41-1,.8-1.45,1.18,0,0,0,0,0,0-.71.56-1.43,1.1-2.16,1.63,0-.38,0-.76,0-1.14v0a93.85,93.85,0,0,0,11.75-22.64A82.66,82.66,0,0,1,337.77,350.59Z" />
      <path class="BUNTAI_OTTER_OUTFIT_BUNTAI_OTTER_OUTFIT_35_cls-5" d="M133.29,286.29h0a0,0,0,0,0,0,0" />
      <path class="BUNTAI_OTTER_OUTFIT_BUNTAI_OTTER_OUTFIT_35_cls-4" d="M294.17,292.25h0c-.78.39-1.57.76-2.36,1.13l-2.4,1.1c-1.55.7-3.09,1.39-4.65,2l-.22.1-2.12.88-.41.17-1.53.62c-.62.24-1.24.49-1.86.72-2.12.83-4.25,1.61-6.39,2.37-1.8.63-3.62,1.24-5.44,1.83l-.65.2-2.46.77-2.48.73c-1.16.35-2.33.68-3.5,1l-3,.81c-9,2.31-18.17,4.65-27.41,5.17,0,0,17.55,11.2,12.69,28.41-3.4,12-9.56,28.73-12.57,44.54H221c3-14.94,8.06-28.76,11.27-38a34.53,34.53,0,0,0,2-11.37c0-.5,0-1,0-1.46s0-.68-.07-1a.34.34,0,0,0,0-.1,5.51,5.51,0,0,0-.06-.57,21.36,21.36,0,0,0-.33-2.17,3.58,3.58,0,0,0-.09-.45.85.85,0,0,0,0-.17c-.05-.25-.1-.49-.17-.72-.09-.39-.19-.77-.31-1.14a4.58,4.58,0,0,0-.15-.49,8.87,8.87,0,0,0-.29-.87c0-.09-.06-.19-.1-.28-.08-.25-.18-.49-.28-.73,0-.08-.07-.15-.1-.23a1.34,1.34,0,0,0-.07-.18c-.1-.26-.22-.52-.33-.77a27.37,27.37,0,0,0-2.76-4.73c-.15-.22-.31-.43-.46-.63a26,26,0,0,0-1.89-2.25c-.11-.13-.23-.26-.35-.38s-.22-.24-.35-.36c-.39-.4-.77-.76-1.13-1.1s-.89-.79-1.28-1.1l-.56-.45c-.46-.37-.85-.64-1.14-.84l-.32-.21-.1-.06-.13-.08c-.77,0-1.54-.08-2.31-.13a7.59,7.59,0,0,1-.93-.11h0a7.59,7.59,0,0,1-.93.11c-.78.05-1.55.11-2.32.13l-.13.08-.1.06a2.85,2.85,0,0,0-.32.21c-.29.2-.68.47-1.14.84l-.56.45c-.39.31-.82.68-1.28,1.1s-.74.7-1.13,1.1c-.13.12-.24.24-.35.36s-.24.25-.35.38a26,26,0,0,0-1.89,2.25c-.15.2-.31.41-.46.63a27.37,27.37,0,0,0-2.76,4.73c-.11.25-.23.51-.33.77a1.34,1.34,0,0,0-.07.18c0,.08-.07.15-.1.23-.1.24-.2.48-.28.73,0,.09-.07.19-.1.28a8.87,8.87,0,0,0-.29.87,4.58,4.58,0,0,0-.15.49c-.12.37-.22.75-.31,1.14-.07.23-.12.47-.17.72a.85.85,0,0,0,0,.17,3.58,3.58,0,0,0-.09.45,21.36,21.36,0,0,0-.33,2.17,5.51,5.51,0,0,0-.06.57.34.34,0,0,0,0,.1c0,.33-.06.67-.07,1s0,1,0,1.46a34.53,34.53,0,0,0,2.05,11.37c3.21,9.21,8.31,23,11.27,38H209c-.38-2-.8-4-1.28-5.95-.22-1-.46-2-.72-3s-.5-2-.77-3c-1-3.74-2.07-7.44-3.17-11.05l-.33-1.07c-.1-.36-.21-.72-.32-1.07-1.95-6.3-3.89-12.24-5.4-17.42L197,342a.31.31,0,0,1,0-.08l-.15-.48c-.11-.38-.21-.76-.32-1.14-4.87-17.21,12.67-28.41,12.67-28.41-9.23-.53-18.39-2.86-27.39-5.17a211.55,211.55,0,0,1-30.89-10.53l-.11,0c-5.07-2.18-10.07-4.57-15.07-7.18.51-2.64,1-5.67,1.6-9,.12-.72.24-1.45.36-2.2a6.64,6.64,0,0,1,.74-.38l.1-.05h0l.84.57a159.35,159.35,0,0,0,75.5,27.82,8.43,8.43,0,0,0,1.8-.09h0c.47-.06.94-.13,1.41-.16h.2c.46,0,.94.1,1.42.16h0a8.39,8.39,0,0,0,1.8.09c3.53-.34,7.06-.8,10.56-1.39l1.63-.27,1.54-.28.38-.07,1.62-.32,1.27-.26c1.05-.22,2.09-.45,3.13-.69l2.06-.49c2.57-.63,5.13-1.32,7.66-2.08.43-.11.85-.25,1.27-.38l1.09-.34c.75-.23,1.5-.47,2.24-.72,1.49-.49,3-1,4.44-1.54.62-.23,1.23-.45,1.84-.69,1-.36,1.91-.72,2.86-1.1.63-.25,1.26-.51,1.88-.78s1.41-.58,2.11-.89l1.36-.59,2-.9.5-.22,2.1-1,1.59-.78c2.51-1.24,5-2.55,7.43-3.92.74-.41,1.48-.83,2.21-1.26s1.16-.68,1.73-1l1.41-.85,2.16-1.35c.79,3.4,1.63,6.89,2.5,10.5h0s0,0,0,0h0Z" />
      <path class="BUNTAI_OTTER_OUTFIT_BUNTAI_OTTER_OUTFIT_35_cls-6" d="M196.6,375.5c-.21-.41-1.06-.66-2.27-.66s-2.07.25-2.27.66c-.6,1.19.55,4.35,2.27,7.37C196,379.85,197.19,376.69,196.6,375.5Z" />
      <path class="BUNTAI_OTTER_OUTFIT_BUNTAI_OTTER_OUTFIT_35_cls-6" d="M177.79,385.15c-.2.13-.76.46-.76,2s.56,1.91.76,2.05c1.9,1.14,6.8-.23,11.12-2.05-3.22-1.35-6.76-2.45-9.14-2.45A3.81,3.81,0,0,0,177.79,385.15Z" />
      <path class="BUNTAI_OTTER_OUTFIT_BUNTAI_OTTER_OUTFIT_35_cls-6" d="M192.06,398.87c.2.4,1.05.66,2.27.66s2.06-.26,2.27-.67c.59-1.19-.56-4.34-2.27-7.36C192.62,394.52,191.46,397.68,192.06,398.87Z" />
      <path class="BUNTAI_OTTER_OUTFIT_BUNTAI_OTTER_OUTFIT_35_cls-6" d="M239.77,398.86c.22.41,1.06.67,2.28.67s2.06-.26,2.27-.66c.59-1.19-.57-4.35-2.27-7.37C240.34,394.52,239.18,397.67,239.77,398.86Z" />
      <path class="BUNTAI_OTTER_OUTFIT_BUNTAI_OTTER_OUTFIT_35_cls-6" d="M244.32,375.5c-.21-.41-1.06-.66-2.27-.66s-2.06.25-2.28.66c-.59,1.19.57,4.35,2.28,7.37C243.75,379.85,244.91,376.69,244.32,375.5Z" />
      <path class="BUNTAI_OTTER_OUTFIT_BUNTAI_OTTER_OUTFIT_35_cls-6" d="M258.57,389.22c.22-.13.77-.46.77-2s-.55-1.9-.77-2a3.75,3.75,0,0,0-2-.42c-2.39,0-5.93,1.1-9.15,2.45C251.78,389,256.68,390.37,258.57,389.22Z" />
      <path class="BUNTAI_OTTER_OUTFIT_BUNTAI_OTTER_OUTFIT_35_cls-6" d="M210.72,404.4c0,.63-.08,1.25-.13,1.86s-.11,1.17-.17,1.75c-.14,1.36-.33,2.7-.56,4-.08.49-.16,1-.26,1.45s-.18.95-.29,1.42-.23,1.07-.36,1.59-.21.85-.32,1.27-.22.83-.34,1.25c-.3,1.08-.63,2.13-1,3.16-.14.41-.29.82-.44,1.22a51.86,51.86,0,0,1-2.8,6.31c-.15.3-.31.6-.48.89s-.28.52-.43.76-.38.66-.58,1c-.39.65-.79,1.28-1.22,1.89q-.3.45-.63.9c-.21.3-.43.59-.65.87-.42.57-.87,1.13-1.34,1.66-.22.26-.45.52-.68.77a.05.05,0,0,1,0,0l-.7.74c-.23.25-.47.48-.72.72l-.33.31c-.5.49-1,.94-1.53,1.36-.26.22-.53.44-.8.64s-.76.58-1.15.84c-.18.13-.37.25-.55.36a7.93,7.93,0,0,1-.82.51c-.31.2-.63.37-1,.54a.3.3,0,0,1-.11.06q-.36.19-.72.36c-.48.24-1,.46-1.46.65l-5.27,2-10.5,4c-1,0-2,0-3.09,0-.39,0-.79,0-1.19,0l-1.4,0c-3.2-.06-6.51-.24-9.85-.55-.34,0-.67-.06-1-.09l-.2,0c-1.74-.18-3.5-.4-5.24-.66l-1.83-.29-1.53-.27c-1.32-.24-2.63-.5-3.93-.8l-1.33-.37-.77-.24c-.7-.22-1.4-.45-2.08-.7l-1.08-.39-.28-.11-.92-.38-1.13-.49-1.09-.5c-.88-.41-1.75-.85-2.6-1.33-.43-.23-.86-.47-1.29-.73s-.88-.51-1.31-.78L128,442l-.18-.13-.37-.24c-.41-.27-.81-.56-1.2-.84s-.7-.52-1-.79a48.29,48.29,0,0,1-4.16-3.54l-1-.95q-.94-.93-1.83-1.92c-.33-.36-.65-.72-1-1.1s-.64-.75-.94-1.13l0,0c-.12-.13-.22-.27-.33-.4l-.29-.37c-.31-.4-.61-.81-.9-1.22l-.59-.82c-.38-.54-.74-1.09-1.09-1.64s-.52-.81-.76-1.23l-.12-.2h0a5.39,5.39,0,0,1-.3-.52c-.19-.32-.38-.65-.56-1-.54-1-1.06-2-1.53-3.06q-.21-.44-.39-.87l-.21-.49a.69.69,0,0,0,0-.13c-.12-.3-.25-.59-.37-.89s-.16-.39-.23-.59c-.17-.45-.33-.88-.49-1.33a.42.42,0,0,1,0-.1c-.17-.48-.33-1-.48-1.45,0,0,0,0,0,0-.12-.37-.23-.74-.34-1.12a.19.19,0,0,0,0-.08l-.09-.3a.07.07,0,0,1,0-.07c-.16-.57-.31-1.14-.46-1.71s-.31-1.24-.43-1.87c-.25-1.2-.47-2.42-.64-3.63,0-.28-.07-.57-.11-.85s-.09-.66-.11-1-.09-.92-.13-1.38l-.09-1.39a51.78,51.78,0,0,1,1.11-13.77h0l.12-.51c0-.17.07-.34.11-.5.12-.5.25-1,.39-1.51.41-1.47.86-2.91,1.37-4.35l0-.07.12-.33c.1-.28.2-.56.31-.84s.25-.7.39-1c.66-1.75,1.38-3.48,2.12-5.2.91-2.13,1.86-4.24,2.78-6.36h0c.15-.32.29-.63.43-.95l.2-.48h0c-.24-.32-.48-.65-.7-1v0c-.42-.59-.82-1.17-1.22-1.76a94.69,94.69,0,0,1-13.91-32.65q1.39-1.44,2.94-2.79c10.5-9.13,22.92-14.68,31.87-30.57.19-.33.38-.66.56-1,.46-1.67.94-3.88,1.46-6.48l.09-.47c5,2.61,10,5,15.07,7.18l.11,0a211.55,211.55,0,0,0,30.89,10.53c9,2.31,18.16,4.64,27.39,5.17,0,0-17.54,11.2-12.67,28.41.18.65.38,1.32.58,2,.25.88.52,1.79.81,2.72.12.41.25.82.38,1.24s.25.83.39,1.26c.26.85.53,1.71.81,2.59,1,3.06,2,6.29,3,9.61.26.86.53,1.73.79,2.6l.52,1.72c.29,1,.58,1.95.86,2.93s.57,2,.84,3,.55,2,.81,3,.52,2,.77,3,.49,2,.72,3c.48,2,.9,4,1.28,5.95H198.57l.26-.46c.17-.32.34-.66.51-1a23.28,23.28,0,0,0,1.5-3.8,11.46,11.46,0,0,0,.28-1.12c0-.18.07-.37.1-.55a2.89,2.89,0,0,0,.07-.49c0-.06,0-.11,0-.15a9.55,9.55,0,0,0,0-1.77l-.06-.43a1.7,1.7,0,0,0-.06-.31,4.38,4.38,0,0,0-.19-.71,2,2,0,0,0-.13-.34c0-.11-.09-.22-.14-.33l-.16-.28a2.2,2.2,0,0,0-.18-.28,1.62,1.62,0,0,0-.2-.28,2.83,2.83,0,0,0-.23-.28,4,4,0,0,0-.46-.46l-.21-.18a6,6,0,0,0-.74-.5,3.49,3.49,0,0,0-.58-.29l-.32-.13-.34-.12-.73-.2h0a6.83,6.83,0,0,0-.83-.14,12.64,12.64,0,0,0-2.84,0c-.3,0-.57.09-.84.14a5.33,5.33,0,0,0-.74.2l-.34.12-.32.13a3.92,3.92,0,0,0-.58.29,5,5,0,0,0-.74.5l-.21.18a5,5,0,0,0-.71.76c-.06.09-.13.17-.18.26a4.79,4.79,0,0,0-.33.56,6.31,6.31,0,0,0-.62,2.87c0,.23,0,.47,0,.71s0,.42.07.63,0,.3.07.45a10.82,10.82,0,0,0,.24,1.1c.06.24.13.48.2.73s.24.73.38,1.09.28.72.43,1.07h0c-4.43-1.66-9.9-2.94-13.28-.91-1.38.83-3,2.56-3,6.06s1.65,5.24,3,6.07c.16.09.31.18.48.26a6.85,6.85,0,0,0,1.56.54l.57.11a7.48,7.48,0,0,0,1.17.12c.2,0,.41,0,.61,0a4.87,4.87,0,0,0,.54,0,15.63,15.63,0,0,0,2.22-.23c.6-.1,1.21-.22,1.81-.37.23-.05.46-.1.68-.17a36.89,36.89,0,0,0,3.64-1.18h0c-.15.36-.29.72-.43,1.08s-.26.72-.38,1.09-.18.61-.25.92a5.23,5.23,0,0,0-.12.54,8.27,8.27,0,0,0-.14.82c0,.21-.06.42-.07.63s0,.48,0,.71a6.31,6.31,0,0,0,.62,2.87c.75,1.47,2.45,3.23,6.41,3.23a11.93,11.93,0,0,0,1.38-.08l.37-.05.34-.06.47-.11a5.93,5.93,0,0,0,3.09-1.8l.2-.24a6.52,6.52,0,0,0,.41-.61c.06-.09.11-.19.16-.28s.1-.22.14-.33a1.66,1.66,0,0,0,.13-.35,3.58,3.58,0,0,0,.11-.35,5.59,5.59,0,0,0,.15-.71.09.09,0,0,1,0-.05c0-.16,0-.33.05-.49.22-3-1.29-6.51-2.77-9.17h11.27c.1.65.19,1.29.27,1.93,0,.36.1.72.14,1.08s.11,1,.16,1.49c0,.26.06.52.07.78h0v0c.05.53.1,1.07.14,1.6A60.67,60.67,0,0,1,210.72,404.4Z" />
      <path class="BUNTAI_OTTER_OUTFIT_BUNTAI_OTTER_OUTFIT_35_cls-6" d="M330.14,387.86a52.64,52.64,0,0,1-6,37.62c-.1.17-.2.34-.31.5,0,0,0,0,0,0-.64,1.06-1.32,2.1-2.05,3.11-.84,1.18-1.74,2.33-2.69,3.43-.31.37-.63.74-1,1.1l-.2.21c-.38.42-.77.84-1.17,1.24a.68.68,0,0,1-.12.12c-.59.6-1.19,1.19-1.81,1.76l-1,.86c-.33.29-.65.57-1,.84-.67.56-1.34,1.09-2,1.61-.29.23-.59.44-.89.66-.88.64-1.79,1.25-2.71,1.82-.4.26-.79.5-1.2.74s-1,.6-1.55.88-1.16.63-1.76.92c-.41.21-.83.41-1.25.59s-.69.33-1.05.47-.51.22-.76.33c-.75.31-1.51.61-2.27.88-1.37.5-2.77.94-4.18,1.31-9.75,4-20.14,5-29.25,4.74h0l-4-2h0l-7.81-4-3.95-2a25.08,25.08,0,0,1-7.43-4.71c-.33-.3-.66-.6-1-.92a43.65,43.65,0,0,1-9.65-15,65.14,65.14,0,0,1-4.46-20.56c0-.5,0-1-.07-1.51,0-1,0-2,0-3,0-.39,0-.78,0-1.18a3.55,3.55,0,0,1,0-.46c0-.36,0-.72.05-1.09.06-1,.15-2,.26-3.05,0-.16,0-.33.05-.49q.09-.87.21-1.77c.07-.55.15-1.1.23-1.66v0c0-.2,0-.39.08-.59h11.27c-1.87,3.37-3.81,8.15-2.17,11.45.74,1.47,2.45,3.23,6.41,3.23s5.67-1.76,6.41-3.23c1.22-2.46.45-5.74-.8-8.66.66.25,1.34.49,2,.71.32.11.65.21,1,.3l1,.27c.66.17,1.33.31,2,.42l.7.11.44.05.46.05.45,0h1.58l.33,0,.27,0c.35,0,.69-.1,1-.17l.55-.14c.18-.06.37-.12.55-.2a6.29,6.29,0,0,0,.94-.46,5.58,5.58,0,0,0,.79-.57l.14-.12a4.36,4.36,0,0,0,.43-.43l.25-.3c.09-.11.17-.22.25-.34s.16-.24.23-.37a4.65,4.65,0,0,0,.3-.59,5.25,5.25,0,0,0,.22-.55c.05-.16.1-.32.14-.49s.07-.29.11-.45a.86.86,0,0,1,0-.17c0-.08,0-.16,0-.25s0-.17,0-.27l0-.46v-.21a4.1,4.1,0,0,0,0-.5c0-.16,0-.32,0-.48a3.19,3.19,0,0,0,0-.45,1.94,1.94,0,0,0,0-.24c0-.12,0-.23-.05-.34l0-.13a2.56,2.56,0,0,0,0-.27v0s0,0,0,0,0-.22-.08-.33a2.17,2.17,0,0,0-.07-.24,2.17,2.17,0,0,0-.07-.24,4.5,4.5,0,0,0-.22-.55,4.65,4.65,0,0,0-.3-.59,3.32,3.32,0,0,0-.23-.37,3.7,3.7,0,0,0-.37-.49,3.28,3.28,0,0,0-.4-.43l0,0a1.49,1.49,0,0,0-.14-.12l-.13-.12-.39-.3-.4-.26c-3.37-2-8.85-.75-13.29.91,1.25-2.91,2-6.19.8-8.65a4.79,4.79,0,0,0-.33-.56,2.43,2.43,0,0,0-.2-.28,5.31,5.31,0,0,0-.68-.73h0l-.21-.18-.35-.26a2.55,2.55,0,0,0-.39-.24l-.23-.12-.05,0a2.11,2.11,0,0,0-.34-.16l-.28-.11-.34-.12a4.41,4.41,0,0,0-.55-.15l-.3-.07a5,5,0,0,0-.56-.09l-.21,0a11.94,11.94,0,0,0-2.76,0,1.46,1.46,0,0,0-.22,0,5,5,0,0,0-.56.09l-.28.07a4.58,4.58,0,0,0-.56.15l-.34.12-.28.11a2.11,2.11,0,0,0-.34.16l-.05,0-.23.12-.39.24-.14.1h0l-.14.11-.05,0-.21.18h0a2.06,2.06,0,0,0-.33.33,2.57,2.57,0,0,0-.35.4,2.43,2.43,0,0,0-.2.28,4.79,4.79,0,0,0-.33.56,6,6,0,0,0-.41,1.09l-.06.29c0,.12,0,.24-.07.37a6,6,0,0,0-.07.75,9.51,9.51,0,0,0,.05,1.4c0,.11,0,.23,0,.34s.07.47.12.7.07.35.11.52c.08.35.18.7.29,1.05.05.18.11.35.17.53s.15.43.23.64.22.58.35.87.27.63.41.93.33.69.5,1c.09.16.18.32.26.48h0l.26.46H227.35c3-15.81,9.17-32.53,12.57-44.54,4.86-17.21-12.69-28.41-12.69-28.41,9.24-.52,18.39-2.86,27.41-5.17l3-.81c1.17-.31,2.34-.64,3.5-1l2.48-.73,2.46-.77.65-.2c1.82-.59,3.64-1.2,5.44-1.83,2.14-.76,4.27-1.54,6.39-2.37.62-.23,1.24-.48,1.86-.72l1.53-.62.41-.17,2.12-.88.22-.1c1.56-.65,3.1-1.34,4.65-2l2.4-1.1c.79-.37,1.58-.74,2.36-1.13.29,1.21.58,2.43.88,3.66,8.06,16.66,19.47,22.25,29.08,31.57a49.61,49.61,0,0,1,10.15,14.56,93.85,93.85,0,0,1-11.75,22.64v0c-.22.34-.46.67-.71,1h0c.07.16.13.32.21.48l.42.95h0c.92,2.12,1.88,4.23,2.79,6.36a84.5,84.5,0,0,1,4.71,13.33C330,387.18,330.07,387.52,330.14,387.86Z" />
      <path class="BUNTAI_OTTER_OUTFIT_BUNTAI_OTTER_OUTFIT_35_cls-7" d="M214.94,312h0q-2.89.09-5.78-.08c-9.23-.53-18.39-2.86-27.39-5.17a211.55,211.55,0,0,1-30.89-10.53l-.11,0c-5.07-2.18-10.07-4.57-15.07-7.18" />
      <path class="BUNTAI_OTTER_OUTFIT_BUNTAI_OTTER_OUTFIT_35_cls-7" d="M138.5,277.38c.29.18.57.38.84.57,22.3,15.55,48.47,26.3,75.51,27.82,1.66.09,5,.08,6.68,0a89.77,89.77,0,0,0,10.56-1.39l1.63-.27,1.54-.28.38-.07,1.62-.32,1.27-.26c1.05-.22,2.09-.45,3.13-.69l2.06-.49c2.57-.63,5.13-1.32,7.66-2.08l1.27-.38,1.09-.34c.74-.23,1.5-.47,2.24-.72,1.49-.49,3-1,4.44-1.54.62-.23,1.23-.45,1.84-.69,1-.36,1.91-.72,2.86-1.1.63-.25,1.26-.51,1.88-.78s1.41-.58,2.11-.89l1.36-.59,2-.9.5-.22,2.1-1,1.59-.78c2.51-1.24,5-2.55,7.43-3.92.74-.41,1.48-.83,2.21-1.26s1.16-.68,1.73-1l1.41-.85,2.16-1.35" />
      <path class="BUNTAI_OTTER_OUTFIT_BUNTAI_OTTER_OUTFIT_35_cls-7" d="M114.4,366.19c-.17-.11-.31-.22-.47-.34l-.37-.28h0l-.09-.07-.07-.06-.09-.07q-.52-.37-1-.78c-1.31-1-2.59-2.06-3.82-3.16-.66-.57-1.3-1.16-1.94-1.77-.36-.35-.73-.7-1.08-1.06s-.71-.72-1.06-1.08a64.33,64.33,0,0,1-4.91-5.78q-.9-1.22-1.74-2.46c-.28-.42-.56-.84-.83-1.27-.46-.72-.91-1.44-1.33-2.19s-.73-1.31-1.06-2c-.26-.49-.5-1-.73-1.47s-.51-1.07-.73-1.61a1.15,1.15,0,0,1-.1-.23c-.25-.57-.48-1.14-.7-1.71" />
      <path class="BUNTAI_OTTER_OUTFIT_BUNTAI_OTTER_OUTFIT_35_cls-7" d="M114.6,365.7c-.24-.32-.48-.65-.7-1v0c-.42-.59-.82-1.17-1.22-1.76a94.69,94.69,0,0,1-13.91-32.65" />
      <path class="BUNTAI_OTTER_OUTFIT_BUNTAI_OTTER_OUTFIT_35_cls-7" d="M114,367.14c0-.43,0-.86,0-1.29s0-.76,0-1.14v0q-.36-11.13-.74-22.25" />
      <path class="BUNTAI_OTTER_OUTFIT_BUNTAI_OTTER_OUTFIT_35_cls-7" d="M73.8,373.43c2.6-.79,5.43-1.67,7.59.39,2.91,2.79,5.51-.48,9.15-1.23s4.46,2.3,9.56,3.27c3.28.62,8.06-1.06,11.09-2.35" />
      <path class="BUNTAI_OTTER_OUTFIT_BUNTAI_OTTER_OUTFIT_35_cls-7" d="M71.43,387.38c8.71.78,17.61.89,24.22.81h.06c1.93,0,3.66-.07,5.14-.11l3.26-.12.42,0h.08c.19,0,.36,0,.51,0H106l.27,0" />
      <path class="BUNTAI_OTTER_OUTFIT_BUNTAI_OTTER_OUTFIT_35_cls-7" d="M119.89,350.27a79.55,79.55,0,0,1-5.29,15.44c-.07.16-.13.32-.21.48s-.28.63-.43.95h0c-.91,2.12-1.87,4.23-2.78,6.36a84.5,84.5,0,0,0-4.71,13.33c-.08.34-.16.68-.23,1v0a52.64,52.64,0,0,0,6,37.6,51.69,51.69,0,0,0,24.46,21.22,49.91,49.91,0,0,0,6.45,2.18,126.76,126.76,0,0,0,29.27,2.72,172.46,172.46,0,0,0,26.26-2.28c19.4-14.29,21.15-37.81,17.53-59.78" />
      <path class="BUNTAI_OTTER_OUTFIT_BUNTAI_OTTER_OUTFIT_35_cls-7" d="M172.39,451.61h0l15.78-6.05c12-4.76,21.4-21.15,22.53-41.15a73.45,73.45,0,0,0-.88-14.86" />
      <path class="BUNTAI_OTTER_OUTFIT_BUNTAI_OTTER_OUTFIT_35_cls-7" d="M209.14,311.89s-17.55,11.2-12.68,28.41c3.39,12,9.55,28.74,12.57,44.54" />
      <path class="BUNTAI_OTTER_OUTFIT_BUNTAI_OTTER_OUTFIT_35_cls-7" d="M192.06,375.5c.2-.41,1.05-.66,2.27-.66s2.06.25,2.27.66c.59,1.19-.56,4.35-2.27,7.37C192.61,379.85,191.46,376.69,192.06,375.5Z" />
      <path class="BUNTAI_OTTER_OUTFIT_BUNTAI_OTTER_OUTFIT_35_cls-7" d="M177.79,389.23c-.2-.14-.76-.47-.76-2.05s.56-1.9.76-2a3.81,3.81,0,0,1,2-.42c2.38,0,5.92,1.1,9.14,2.45C184.59,389,179.69,390.37,177.79,389.23Z" />
      <path class="BUNTAI_OTTER_OUTFIT_BUNTAI_OTTER_OUTFIT_35_cls-7" d="M196.6,398.86c-.21.41-1.06.67-2.27.67s-2.07-.26-2.27-.66c-.6-1.19.56-4.35,2.27-7.37C196,394.52,197.19,397.67,196.6,398.86Z" />
      <path class="BUNTAI_OTTER_OUTFIT_BUNTAI_OTTER_OUTFIT_35_cls-7" d="M198.57,389.54c1.87,3.37,3.81,8.15,2.17,11.45-.74,1.47-2.46,3.23-6.41,3.23s-5.67-1.76-6.41-3.23c-1.23-2.46-.45-5.74.79-8.66a26.66,26.66,0,0,1-8.9,2,8.43,8.43,0,0,1-4.38-1c-1.38-.83-3-2.56-3-6.07s1.66-5.23,3-6.06c3.37-2,8.85-.75,13.28.91-1.24-2.91-2-6.19-.79-8.65.74-1.47,2.45-3.23,6.41-3.23s5.67,1.76,6.41,3.23c1.65,3.3-.31,8.1-2.17,11.46" />
      <path class="BUNTAI_OTTER_OUTFIT_BUNTAI_OTTER_OUTFIT_35_cls-7" d="M221.44,312h0c1.92.06,3.85,0,5.77-.08,9.24-.52,18.39-2.86,27.41-5.17l3-.81c1.17-.31,2.34-.64,3.5-1l2.48-.73,2.46-.77.65-.2c1.82-.59,3.64-1.2,5.44-1.83,2.14-.76,4.27-1.54,6.39-2.37.62-.23,1.24-.48,1.86-.72l1.53-.62.41-.17,2.12-.88.22-.1c1.56-.65,3.1-1.34,4.65-2l2.4-1.1c.79-.37,1.58-.74,2.36-1.13h0" />
      <path class="BUNTAI_OTTER_OUTFIT_BUNTAI_OTTER_OUTFIT_35_cls-7" d="M322,366.19l.46-.34c.73-.53,1.45-1.07,2.16-1.63,0,0,0,0,0,0,.49-.38,1-.77,1.45-1.18.14-.1.28-.22.42-.34s.45-.37.66-.55c.55-.47,1.08-.94,1.61-1.43s1.19-1.11,1.77-1.68c1.38-1.35,2.71-2.77,4-4.25.28-.31.54-.63.8-.95s.58-.7.85-1.06c.56-.71,1.1-1.43,1.62-2.17" />
      <path class="BUNTAI_OTTER_OUTFIT_BUNTAI_OTTER_OUTFIT_35_cls-7" d="M321.78,365.7c.25-.32.49-.65.71-1v0a93.85,93.85,0,0,0,11.75-22.64" />
      <path class="BUNTAI_OTTER_OUTFIT_BUNTAI_OTTER_OUTFIT_35_cls-7" d="M323.24,342.43q-.37,11.11-.75,22.25v0q0,.57,0,1.14c0,.43,0,.86,0,1.29" />
      <path class="BUNTAI_OTTER_OUTFIT_BUNTAI_OTTER_OUTFIT_35_cls-7" d="M325.2,373.51c3,1.29,7.81,3,11.08,2.35,5.1-1,5.92-4,9.56-3.27a15.4,15.4,0,0,1,3.55,1.37" />
      <path class="BUNTAI_OTTER_OUTFIT_BUNTAI_OTTER_OUTFIT_35_cls-7" d="M352,388.11c-10.36.28-19.06-.1-21.3-.22l-.56,0" />
      <path class="BUNTAI_OTTER_OUTFIT_BUNTAI_OTTER_OUTFIT_35_cls-7" d="M221,384.84c3-14.93,8.07-28.76,11.28-38,8.21-23.54-10.86-34.91-10.86-34.91h-6.5s-19.07,11.37-10.86,34.91c3.21,9.21,8.31,23,11.26,38" />
      <path class="BUNTAI_OTTER_OUTFIT_BUNTAI_OTTER_OUTFIT_35_cls-7" d="M264,453.62c9.12.27,19.51-.74,29.25-4.74a50.57,50.57,0,0,0,6.46-2.18,51.87,51.87,0,0,0,22.09-17.59c.84-1.18,1.63-2.39,2.36-3.63a52.59,52.59,0,0,0,6-37.62c-.08-.34-.15-.68-.24-1a83.5,83.5,0,0,0-4.71-13.33c-.91-2.13-1.86-4.24-2.78-6.36h0c-.15-.32-.29-.64-.43-.95s-.14-.32-.2-.48a80.25,80.25,0,0,1-5.3-15.44" />
      <path class="BUNTAI_OTTER_OUTFIT_BUNTAI_OTTER_OUTFIT_35_cls-7" d="M220.17,389.54c-3.62,22-1.87,45.49,17.53,59.78a101.1,101.1,0,0,0,26.27,4.3" />
      <path class="BUNTAI_OTTER_OUTFIT_BUNTAI_OTTER_OUTFIT_35_cls-7" d="M264,453.62h0l-15.79-8.07c-12-4.76-21.39-21.15-22.53-41.15a72.76,72.76,0,0,1,.89-14.86" />
      <path class="BUNTAI_OTTER_OUTFIT_BUNTAI_OTTER_OUTFIT_35_cls-7" d="M227.23,311.89s17.54,11.2,12.68,28.41c-3.39,12-9.55,28.74-12.56,44.54" />
      <path class="BUNTAI_OTTER_OUTFIT_BUNTAI_OTTER_OUTFIT_35_cls-7" d="M242.05,382.87c-1.71-3-2.87-6.18-2.28-7.37.22-.41,1.06-.66,2.28-.66s2.06.25,2.27.66C244.91,376.69,243.75,379.85,242.05,382.87Z" />
      <path class="BUNTAI_OTTER_OUTFIT_BUNTAI_OTTER_OUTFIT_35_cls-7" d="M247.46,387.18c3.22-1.35,6.76-2.45,9.15-2.45a3.75,3.75,0,0,1,2,.42c.22.13.77.46.77,2s-.55,1.91-.77,2C256.68,390.37,251.78,389,247.46,387.18Z" />
      <path class="BUNTAI_OTTER_OUTFIT_BUNTAI_OTTER_OUTFIT_35_cls-7" d="M242.05,391.5c1.7,3,2.86,6.18,2.27,7.37-.21.4-1.06.66-2.27.66s-2.06-.26-2.28-.67C239.18,397.67,240.34,394.52,242.05,391.5Z" />
      <path class="BUNTAI_OTTER_OUTFIT_BUNTAI_OTTER_OUTFIT_35_cls-7" d="M237.82,384.84c-1.88-3.36-3.83-8.16-2.18-11.46.74-1.47,2.45-3.23,6.41-3.23s5.66,1.76,6.41,3.23c1.22,2.46.45,5.74-.8,8.65,4.43-1.66,9.91-2.95,13.29-.91,1.38.83,3,2.56,3,6.06s-1.65,5.24-3,6.07a8.51,8.51,0,0,1-4.4,1,26.71,26.71,0,0,1-8.89-2c1.25,2.92,2,6.2.8,8.66-.75,1.47-2.45,3.23-6.41,3.23s-5.67-1.76-6.41-3.23c-1.64-3.3.29-8.08,2.17-11.45" />
      <path class="BUNTAI_OTTER_OUTFIT_BUNTAI_OTTER_OUTFIT_35_cls-7" d="M58.36,419.59s16.48-31.27,21.24-31.38-5.4,32-12.54,43.18" />
      <path class="BUNTAI_OTTER_OUTFIT_BUNTAI_OTTER_OUTFIT_35_cls-7" d="M106.24,387.86v0c-.39.95-12.84,31.68-15.17,43.51" />
      <path class="BUNTAI_OTTER_OUTFIT_BUNTAI_OTTER_OUTFIT_35_cls-7" d="M100.34,446.7s7.13-16.18,9.29-15.31,3.51,9,3.51,9" />
      <line class="BUNTAI_OTTER_OUTFIT_BUNTAI_OTTER_OUTFIT_35_cls-7" x1="321.78" y1="429.11" x2="326.29" y2="441.12" />
      <path class="BUNTAI_OTTER_OUTFIT_BUNTAI_OTTER_OUTFIT_35_cls-7" d="M336,429.11s-4.13-40.43,3.77-37.48S359,435.11,359,435.11" />
      <path class="BUNTAI_OTTER_OUTFIT_BUNTAI_OTTER_OUTFIT_35_cls-7" d="M237.82,384.84h4.23a2.35,2.35,0,0,1,0,4.7H193.81a2.35,2.35,0,0,1,0-4.7h44Z" />
      <path class="BUNTAI_OTTER_OUTFIT_BUNTAI_OTTER_OUTFIT_35_cls-7" d="M137.64,277.82a6.64,6.64,0,0,1,.74-.38l.1-.05h0" />
      <path class="BUNTAI_OTTER_OUTFIT_BUNTAI_OTTER_OUTFIT_35_cls-7" d="M294.1,292.08h0s0,0,0,0h0l.06.13" />
      <g class="BUNTAI_OTTER_OUTFIT_BUNTAI_OTTER_OUTFIT_35_cls-8">
        <path class="BUNTAI_OTTER_OUTFIT_BUNTAI_OTTER_OUTFIT_35_cls-5" d="M133.29,286.29h0a0,0,0,0,0,0,0" />
        <path d="M218.19,311.73c-30.43-1.76-47.08-7.56-67.33-15.54l-.11,0a154.58,154.58,0,0,1-15.16-6.71l.09-.47c.51-2.64,1-5.67,1.6-9,2.72,1.9,6.06,4.22,9.64,6.66C155.89,292.81,176.34,307.48,218.19,311.73Z" />
        <path d="M133.57,296.92c-1,5.4-2.12,12.53-3,19.71-1.69,14.37-10.56,33.8-10.9,34.55h0v0l-2.59,7.4v-3.07l-1.3-13.1-1.87,11-.45-.95h0a83.51,83.51,0,0,1-6-17.5c.09,10.59,3.53,22.69,5.19,27.93.5,1.56.84,2.51.88,2.63l-.09-.07-.07-.06-.09-.07c-1-.86-5.09-4.5-14.57-14.87-.66-.82-1.29-1.65-1.86-2.49a41,41,0,0,1-4.72-9.07.41.41,0,0,1,.07-.11,50.14,50.14,0,0,1,6.54-8.54q1.39-1.44,2.94-2.79C112.2,318.36,124.62,312.81,133.57,296.92Z" />
        <path class="BUNTAI_OTTER_OUTFIT_BUNTAI_OTTER_OUTFIT_35_cls-5" d="M133.29,286.29h0a0,0,0,0,0,0,0" />
        <path d="M108.25,380.92l0,.07-1.78,6.87H106l-.33,0h-.52l-.51,0h-.08l-.42,0-3.09.1c-1.54.05-3.34.09-5.31.13h-.06c-4.76.09-10.5.13-16,0h-.28c-1.77-.06-3.5-.13-5.16-.22-1.06-.06-2-.13-3-.2l.13-.25,0-.11,1.45-8.54c.81.07,2.05.24,2.4.75.54.76,2.38,2.08,7.46,1.73s6.37-2.71,6.37-2.5a7.63,7.63,0,0,0,4.32,2.3C96,381.67,108.25,380.92,108.25,380.92Z" />
        <path d="M66,405.94s9-7.31,10.1-5S78,405.06,78,405.06s4.4-16.34,1.73-16.9S66,405.94,66,405.94Z" />
        <path d="M98.65,388.26s-4.34,20.15-5.05,33.83c6.42-18.28,12-32.75,12-32.75v-1.66Z" />
        <path d="M107.31,431.86s-6.08,11.15-7,14.84h34.53s-18.24-10.33-25.25-26.15c-4.25-10.82-4.57-15.67-4.57-15.67s.16,14.52,5.75,22.88l7.78,11.64s-5.83-2.83-7-5.1S108.94,430.22,107.31,431.86Z" />
        <path d="M107.4,386.2s9.15,24.43,34,38.64,68-8.13,68.72-20.62c.22-10.74.67-12.72.67-12.72l-1-2,5.5.11s5.11,13.15,1,32.26-17.65,27.41-17.65,27.41-25.94,4.41-44.63,1.33-34.14-11.71-41.92-25.27c14.48,14.32,34.15,19.46,34.15,19.46s-26.69-17.38-32.85-34.32S107.4,386.2,107.4,386.2Z" />
        <path d="M329.19,386.2s-9.16,24.43-34,38.64-68-8.13-68.72-20.62c-.22-10.74-.68-12.72-.68-12.72l1-2-5.51.11s-5.11,13.15-1,32.26,17.65,27.41,17.65,27.41,25.94,4.41,44.63,1.33,34.13-11.71,41.91-25.27c-14.48,14.32-34.14,19.46-34.14,19.46s26.69-17.38,32.85-34.32S329.19,386.2,329.19,386.2Z" />
        <path d="M321.78,363.41s-.53-12.38-1.3-20.9l-.76-8.53s5.65,8.86,5.46,16.48A28.69,28.69,0,0,1,321.78,363.41Z" />
        <path d="M352,388.11c.05.1.1.22.17.35-9.87.14-21.39-.25-21.39-.25l-.08-.32-1.51-6.11,2.61-.19,9.94,1.06,6.92-1.06c.8-.13,1.37-.26,2-.41l1.07,6.31S351.8,387.7,352,388.11Z" />
        <path d="M334.93,424.73s3-14.76,7.56-13.23,15.06,18.6,15.06,18.6-11.73-38.74-18.74-38.61C336.22,392.16,334.07,410.08,334.93,424.73Z" />
      </g>
      <path class="BUNTAI_OTTER_OUTFIT_BUNTAI_OTTER_OUTFIT_35_cls-9" d="M217.93,384.73s.79-15.75-3.66-24.3" />
      <path class="BUNTAI_OTTER_OUTFIT_BUNTAI_OTTER_OUTFIT_35_cls-9" d="M221,359.62s-3.29,5.55-3.82,10.95" />
      <path class="BUNTAI_OTTER_OUTFIT_BUNTAI_OTTER_OUTFIT_35_cls-7" d="M137.64,277.82c-.12.75-.24,1.48-.36,2.2-.55,3.28-1.09,6.31-1.6,9l-.09.47c-.52,2.6-1,4.81-1.46,6.48" />
      <path class="BUNTAI_OTTER_OUTFIT_BUNTAI_OTTER_OUTFIT_35_cls-7" d="M295,295.92c-.3-1.23-.59-2.45-.88-3.66l0-.14h0v0c-.87-3.61-1.71-7.1-2.5-10.5" />
      <path class="BUNTAI_OTTER_OUTFIT_BUNTAI_OTTER_OUTFIT_35_cls-7" d="M92.15,338.93a.41.41,0,0,1,.07-.11,50.14,50.14,0,0,1,6.54-8.54q1.39-1.44,2.94-2.79c10.5-9.13,22.92-14.68,31.87-30.57.19-.33.38-.66.56-1" />
      <path class="BUNTAI_OTTER_OUTFIT_BUNTAI_OTTER_OUTFIT_35_cls-7" d="M337.77,350.59a82.66,82.66,0,0,0-3.52-8.54,49.61,49.61,0,0,0-10.15-14.56c-9.61-9.32-21-14.91-29.08-31.57" />
      <path class="BUNTAI_OTTER_OUTFIT_BUNTAI_OTTER_OUTFIT_35_cls-7" d="M47.51,446.7c3.74-18,22.1-55.56,23.77-59l.13-.25,0-.11,1.45-8.54.92-5.41" />
      <path class="BUNTAI_OTTER_OUTFIT_BUNTAI_OTTER_OUTFIT_35_cls-7" d="M375.59,446.7c-3.56-17.13-20.37-52-23.42-58.24-.07-.13-.12-.25-.17-.35-.2-.41-.31-.62-.31-.62l-1.07-6.31L349.39,374" />
    </g>
  </g>
</svg>