<?xml version="1.0" encoding="utf-8"?>
<!-- Generator: Adobe Illustrator 25.2.0, SVG Export Plug-In . SVG Version: 6.00 Build 0)  -->
<svg version="1.1" id="Layer_1" xmlns="http://www.w3.org/2000/svg" xmlns:xlink="http://www.w3.org/1999/xlink" x="0px" y="0px" viewBox="0 0 432 432" style="enable-background:new 0 0 432 432;" xml:space="preserve">
<style type="text/css">
	.st0{fill:#FFA020;}
	.st1{fill:#FFFFFF;}
	.st2{fill:#1F1B1A;}
	.st3{fill:#D7CDC2;}
	.st4{fill:#B6C2CF;}
	.st5{fill:none;stroke:#000000;stroke-width:1.86;stroke-linecap:round;stroke-linejoin:round;}
	.st6{fill:none;stroke:#000000;stroke-width:2.31;stroke-linecap:round;stroke-linejoin:round;}
	.st7{fill:none;stroke:#000000;stroke-width:1.57;stroke-linecap:round;stroke-linejoin:round;}
	.st8{opacity:0.22;}
</style>
<g>
	<g id="body">
		<path class="st0" d="M208.3,196.5c-0.8-0.8-1.7-1.6-2.6-2.5l0,0c-1.6,0.2-3.1,0.7-4.4,1.5l0,0c-2.5,1.6-4.3,4.1-5,7&#xD;&#xA;			c-0.2,0.8-0.3,1.6-0.3,2.4c-0.2,6.1,4.5,11.2,10.6,11.4s11.2-4.5,11.4-10.6l0,0C215.5,203.5,212,200.4,208.3,196.5z" />
		<path class="st0" d="M276.1,203.2c-0.8-4.6-4-8.1-7.9-8.7c-0.8,0.9-1.5,1.7-2.2,2.5c-3.2,3.9-6.1,7.1-8.3,9.4&#xD;&#xA;			c0.4,5.8,4.4,10.3,9.3,10.3c5.1,0,9.3-5,9.3-11.2C276.4,204.8,276.3,204,276.1,203.2z" />
		<circle cx="206.5" cy="205.6" r="5.7" />
		<circle class="st1" cx="211.1" cy="202.4" r="1.1" />
		<circle cx="265.8" cy="205.6" r="5.7" />
		<circle class="st1" cx="270.4" cy="202.4" r="1.1" />
		<path class="st2" d="M251.7,234.8c1.1,2.2,1,3.8-1.1,12.2c-1.5,5.7-3.8,11.2-6.6,16.4c0,0,0-1.5-1.6-4.5s-10.7-15.1-10-21.5&#xD;&#xA;			c0.5-4.4,5.8-6.9,9.1-8c2.2-0.8,4.5-0.4,6.4,1C249.4,231.6,250.7,233.1,251.7,234.8z" />
		<path class="st3" d="M353.9,420l2.5,1.9l-7.9-24.2c-0.5-1.5-1-3.1-1.5-4.6l1.6,0.4c-1.9-3.5-3.8-7-5.6-10.4l2.7,2.5&#xD;&#xA;			c-1.8-6.6-3.7-13.3-5.9-19.8c-2.9-8.4-6.2-16.3-10.7-23.1c-1.9-2.8-3.9-5.4-6.2-7.9c-2.1-2.3-4.2-4.6-6.3-6.8l-2.2-2.2&#xD;&#xA;			c-1-1-2.1-2.2-3.3-3.5c-0.9-1.1-1.9-2.2-2.9-3.5c-3.5-4.2-6.1-9-7.8-14.2c-0.1-0.2-0.1-0.5-0.2-0.8c-0.4-0.6-0.7-1.2-1.1-1.9&#xD;&#xA;			c-2.1-3.8-4-7.6-5.7-11.6c-1-2.5-1.9-5-2.6-7.6l0,0c-1.3-4.6-1.8-9.3-1.7-14c0.4-7.8,3.1-15.2,5.2-22.8s3.1-15.8,0.7-23.2&#xD;&#xA;			c0.9,1.3,1.9,2.2,2.8,3.5c0-10.8-1.9-21.6-5.4-31.9c1.6,1.2,3.2,2.2,4.8,3.4c-1.4-4.2-3.3-8.3-5.6-12.2c-0.2,0.1-0.3,0.1-0.5,0.2&#xD;&#xA;			s-0.3,0.1-0.4,0.2l-0.5,0.2l-0.3,0.1l-0.1,0.1l0,0l-0.2,0.1c0,0-0.9,1.5-2.3,3.6l0.1,0.2c0,0,0.1,0.1,0.1,0.1l0.6,0.7&#xD;&#xA;			c0.3,0.3,0.5,0.7,0.8,1.1c0.1,0.1,0.1,0.2,0.2,0.3s0.3,0.4,0.5,0.7l0.3,0.5c1.5,2.5,2.6,5.1,3.5,7.9c0.1,0.4,0.2,0.7,0.3,1.1l0,0&#xD;&#xA;			c0.1,0.3,0.1,0.6,0.2,0.9c0.2,0.7,0.3,1.3,0.4,2c0,0.3,0.1,0.5,0.1,0.8l0,0c0,0.3,0.1,0.6,0.1,0.8s0.1,0.4,0.1,0.7s0.1,0.7,0.1,1&#xD;&#xA;			c0,0.1,0,0.1,0,0.2c0,0.4,0,0.8,0.1,1.1c0,0.2,0,0.3,0,0.5c0,0.5,0,1,0,1.4c-0.5-1.4-1.5-2.5-2.9-3c1.1,3.6,1.3,7.4,0.7,11.1&#xD;&#xA;			c-0.6,3.7-1.6,7.2-2.8,10.7c-1.5,4.4-3.5,8.3-5.4,12.5c-5.5-6.5-11.6-12.4-18.4-17.5c0.9,1.9,1.5,3.9,1.9,6c-2.8-2.4-5.3-5-7.4-8&#xD;&#xA;			c-3-4.6-4.6-10-4.7-15.6l0,0l0.7-0.7l0.3-0.3l0,0l0.2-0.2l0.1-0.1l0.6-0.6l0.2-0.2l0,0l0,0l0.6-0.6l0.2-0.2&#xD;&#xA;			c0.6-0.7,1.3-1.4,2.1-2.3l0,0c0.7-0.8,1.4-1.6,2.1-2.4l0,0c1-1.2,2.1-2.5,3.2-3.8c0.7-0.8,1.4-1.7,2.2-2.5l0-0.1&#xD;&#xA;			c0.5-0.6,1.1-1.1,1.7-1.7c0.3-0.3,0.6-0.6,0.9-0.9s0.6-0.6,1-0.9s0.7-0.6,1-0.9c0.7-0.6,1.4-1.2,2.2-1.8c2.7-2.1,5.5-4,8.4-5.7&#xD;&#xA;			c0.6-0.3,1.1-0.7,1.7-1c0.9-0.5,1.8-1,2.7-1.4l0.6-0.3l0.7-0.4l1.4-0.7l1.4-0.7l1.5-0.6l1.5-0.6c0.5-0.2,1-0.4,1.5-0.6&#xD;&#xA;			c0.8-0.3,1.6-0.6,2.5-1l1.2-0.4c0.4-0.2,0.8-0.3,1.2-0.4l0,0l1.4-0.5l2.2-0.7l1.9-0.6l0.9-0.3l1-0.3c-1.6,0.2-3,0.4-4.4,0.6&#xD;&#xA;			l-0.9,0.1l-0.4,0.1l-1,0.2h-0.2L301,173c-0.8,0.1-1.5,0.3-2.1,0.4l-1,0.2l-0.3,0.1l-1.1,0.2h-0.2h-0.1h-0.1l0,0l-0.7,0.1h-0.1&#xD;&#xA;			l-0.6,0.1l-1.5,0.4l0,0c0.2-0.1,0.3-0.1,0.5-0.2l0.5-0.2l0.4-0.2c0.3-0.1,0.7-0.3,1.1-0.5l0.4-0.2l0.8-0.4l0,0l0.8-0.4&#xD;&#xA;			c0.5-0.3,1.1-0.6,1.7-0.9s1.1-0.6,1.6-1l0.8-0.5c1.3-0.8,2.8-1.8,4.4-2.9h0.1l0,0l0.3-0.2l0.9-0.6l1.7-1.2l1-0.8l1-0.8&#xD;&#xA;			c2.5-2,5.3-4.2,8.3-6.9c6.1-5.5,12-10.9,17.3-16.2c2.6-5.9,4.9-11.9,6.9-18l0,0c6.3-9.9,11.1-21.6,14.9-33.9&#xD;&#xA;			c-9.9,21.3-22.5,31.6-30.5,39.2s-20,18.7-20.4,19c0.7-1.5,1.3-3,1.8-4.6c-8,9.4-18.7,18.7-25.4,24.1c-0.3-0.2-0.6-0.4-0.8-0.7&#xD;&#xA;			c-1.4-1.3-2.7-2.8-4-4.2c-2.5-2.7-5.4-4.9-8.6-6.6l2.7-0.4c-4.4-3.3-9.1-6.2-14-8.7c-0.9-0.5-1-1-0.4-1.9&#xD;&#xA;			c-5.8,0.5-9.3-1.8-15.1-1.8c0,0-7.1-0.5-10.2-0.7l-1-0.1c-0.6-0.1-1-0.1-1.5-0.2l-0.4-0.1c-0.5-0.1-1-0.2-1.4-0.3h-0.2l-0.2-0.1&#xD;&#xA;			l0.9,1l0.4,0.5c-3.2-0.3-6.5-0.5-9.8-0.4l0,0c-1.9,0-3.7,0.2-5.6,0.4l-2.3,0.3h-0.1l-3.2,0.4l-1.4,0.2l-3.5,0.4l-1.3,0.1l-4.1,0.4&#xD;&#xA;			l-1.1,0.1h-0.3l-0.5,0.1h-0.4h-0.4l-0.4,0.1h-0.2h-0.1h-0.2h-0.1l2.1,0.7l1.5,0.6l-1.9,1l-0.5,0.2l-1.1,0.4l-1,0.3l-2.2,0.8h-0.1&#xD;&#xA;			c-1.1,0.4-2.3,0.9-3.4,1.3l-1.2,0.5l-0.6,0.2l-1,0.4l-0.7,0.3l0,0l-0.1,0.1c-0.4,0.2-0.7,0.4-1,0.5l1.3,0.3l0.8,0.2l-0.6,0.4&#xD;&#xA;			l-0.2,0.1c-2.7,1.9-5.1,4-7.4,6.4c-0.4,0.4-0.7,0.7-1,1.1c-7.2-5.2-14-10.8-20.3-16.9c0.5,1.6,1.2,3.1,2.1,4.5&#xD;&#xA;			c-0.4-0.3-14.8-11.4-24.1-18.7c-9.4-7.5-24.3-17.6-36.1-38.6c4.5,12.1,10.2,23.6,17.7,33.4l0,0c2.3,6.1,5.1,12,8.1,17.8&#xD;&#xA;			c6.2,5.2,13.2,10.5,20.5,15.9l1.8,1.3l1.6,1.2c1.3,0.9,2.5,1.8,3.7,2.6c0.9,0.6,1.8,1.2,2.6,1.7c0.4,0.3,0.8,0.6,1.3,0.8h0.1&#xD;&#xA;			c0.5,0.3,0.9,0.6,1.4,0.9l1.1,0.7c0.7,0.4,1.4,0.9,2.1,1.2c1,0.6,2,1.1,2.9,1.6c0.6,0.3,1.2,0.7,1.8,1c0.7,0.4,1.4,0.8,2.1,1.1&#xD;&#xA;			s1.3,0.6,1.9,0.9l0.9,0.4c1.2,0.6,2.2,1,3.1,1.3l0,0l0.8,0.3l0.7,0.3c0.8,0.3,1.3,0.4,1.5,0.5l0,0h-0.1h-0.1h-0.2l-0.3-0.1&#xD;&#xA;			c-0.8-0.2-2.2-0.4-4-0.8l0,0c-0.8-0.1-1.6-0.3-2.6-0.4l-1.1-0.2c-2-0.3-4.2-0.6-6.8-1l-0.6-0.1c-0.8-0.1-1.6-0.2-2.5-0.3l2.4,0.6&#xD;&#xA;			c1.4,0.4,2.9,0.8,4.2,1.1l0.2,0.1c0.7,0.2,1.4,0.4,2.1,0.6l0.2,0.1l0.2,0.1h0.1l0.4,0.1l1.5,0.6l1,0.3c0.6,0.2,1.2,0.4,1.7,0.6&#xD;&#xA;			l1.1,0.4l1.3,0.4c3.9,1.4,7.4,2.8,10.6,4.2l1.7,0.8l1.6,0.8c1.1,0.5,2.1,1.1,3.1,1.6c1.3,0.7,2.6,1.4,3.8,2.1&#xD;&#xA;			c2.7,1.6,5.3,3.4,7.8,5.3l0.3,0.2l0.2,0.1l0,0c0.6,0.5,1.2,1,1.7,1.4c0.3,0.2,0.6,0.5,0.8,0.7l0,0l0.3,0.3&#xD;&#xA;			c0.8,0.8,1.6,1.5,2.3,2.2c3.8,3.8,7.2,7,9.8,9.3l0,0l2.5,2.2l0,0c-0.1,5.6-2,11-5.5,15.4c-2.6,3-5.5,5.6-8.7,7.8&#xD;&#xA;			c0.4-2.1,1.2-4.1,2.2-6c-7.9,4.9-15.2,10.7-21.8,17.3c-2.2-4.1-4.6-8-6.3-12.3c-1.5-3.4-2.6-6.9-3.3-10.5&#xD;&#xA;			c-0.7-3.7-0.4-7.4,0.8-10.9c-1.5,0.5-2.8,1.5-3.4,3v-0.1c0-0.5,0-0.9,0-1.4s0-0.7,0.1-1.1s0-0.5,0.1-0.7c0-0.4,0.1-0.8,0.2-1.3&#xD;&#xA;			l0,0c0.1-0.4,0.1-0.9,0.2-1.3c0-0.2,0.1-0.3,0.1-0.5c0.1-0.3,0.1-0.6,0.2-0.9c0.1-0.3,0.2-0.6,0.2-0.9c0.1-0.5,0.3-1,0.4-1.5&#xD;&#xA;			c0.1-0.3,0.2-0.6,0.3-0.9s0.2-0.6,0.3-0.9c0.2-0.5,0.4-1,0.7-1.6c0.1-0.3,0.3-0.6,0.4-0.9c0-0.1,0.1-0.1,0.1-0.2&#xD;&#xA;			c0.1-0.3,0.3-0.5,0.4-0.8c0.6-1.1,1.3-2.2,2-3.2c0.1-0.2,0.3-0.4,0.4-0.6c0.2-0.3,0.5-0.7,0.8-1s0.6-0.7,0.9-1s0.6-0.6,0.9-1&#xD;&#xA;			l0.1-0.1l-0.3-0.4c-0.2-0.2-0.4-0.4-0.5-0.6c-0.7-0.9-1.2-1.6-1.5-2l-0.1-0.1l-0.2-0.2l-0.1-0.1l0,0l0,0l0,0&#xD;&#xA;			c-1.7-0.7-3.5-1.4-5.2-1.9l-0.6-0.2l-0.2-0.1l-0.7-0.2c-0.5-0.1-1-0.3-1.5-0.4l-0.8-0.2L170,183l-0.8-0.2l-2.5-0.5l-0.9-0.2&#xD;&#xA;			l-0.8-0.2l0,0H165l0,0l-0.6-0.1c-0.3,0.5-0.6,0.9-0.9,1.4c0,0.1-0.1,0.1-0.1,0.2l-0.5,0.9l0,0c-0.1,0.2-0.3,0.4-0.4,0.7&#xD;&#xA;			c0,0,0,0,0,0.1c-0.2,0.4-0.5,0.8-0.7,1.2v0.1c-0.3,0.6-0.6,1.1-0.9,1.7c-0.1,0.2-0.2,0.4-0.3,0.6c-0.2,0.5-0.5,1-0.7,1.4l0,0&#xD;&#xA;			c-0.1,0.1-0.2,0.3-0.2,0.5c-0.3,0.5-0.5,1.1-0.8,1.6c-0.1,0.1-0.1,0.2-0.1,0.3c-0.1,0.3-0.3,0.6-0.4,0.9l-0.4,0.9&#xD;&#xA;			c0,0,0,0.1-0.1,0.1l0,0c-0.2,0.4-0.3,0.8-0.5,1.2c-0.2,0.6-0.5,1.3-0.7,1.9l-0.1,0.2l0.7-0.5l0,0h0.1l1-0.7c1-0.7,2-1.4,3-2.1&#xD;&#xA;			c-3.5,10.3-5.4,21-5.4,31.9l0,0h0.1c0.1-0.1,0.2-0.3,0.3-0.4s0.4-0.5,0.6-0.8s0.6-0.7,0.9-1.1l0.3-0.4c0.2-0.3,0.4-0.5,0.6-0.8&#xD;&#xA;			c-0.1,0.3-0.2,0.7-0.3,1c0,0.1-0.1,0.2-0.1,0.3l0,0c0,0,0,0.1,0,0.1c-0.1,0.3-0.1,0.6-0.2,0.8c-0.1,0.4-0.2,0.8-0.2,1.2&#xD;&#xA;			s-0.1,0.8-0.2,1.2s-0.1,0.8-0.1,1.1c0,0,0,0.1,0,0.1c0,0.4-0.1,0.7-0.1,1.1c-0.1,0.8-0.1,1.6-0.1,2.5v0.5c0,0.1,0,0.2,0,0.3&#xD;&#xA;			c0,0.6,0,1.2,0.1,1.8l0.1,0.9c0.1,1.2,0.2,2.3,0.4,3.5c0,0.3,0.1,0.6,0.1,0.9c0.1,0.5,0.2,1,0.3,1.5s0.2,1,0.3,1.5&#xD;&#xA;			c0,0.1,0.1,0.3,0.1,0.4c0.1,0.4,0.2,0.7,0.3,1.1c0.1,0.5,0.2,1,0.4,1.5c0.7,2.6,1.5,5.2,2.2,7.9l0,0c0.6,2,1.1,3.9,1.6,5.9&#xD;&#xA;			c0,0.1,0.1,0.2,0.1,0.3c0.2,1,0.4,1.9,0.6,2.9c0.1,0.4,0.1,0.7,0.2,1.1c0,0.2,0.1,0.4,0.1,0.6c0.1,0.4,0.1,0.8,0.2,1.2&#xD;&#xA;			c0.1,0.4,0.1,0.8,0.1,1.2c0,0,0,0.1,0,0.1c0,0.2,0,0.3,0,0.5s0,0.2,0,0.3c0,0.1,0,0.1,0,0.2c0,0.2,0,0.4,0,0.6&#xD;&#xA;			c0.1,2.3,0,4.7-0.3,7c-0.1,0.5-0.1,0.9-0.2,1.4s-0.2,1.2-0.3,1.7c0,0.2-0.1,0.5-0.1,0.7c0,0.1,0,0.1,0,0.2c0,0,0,0.1,0,0.1&#xD;&#xA;			c-0.3,1.6-0.8,3.2-1.2,4.7c-0.1,0.2-0.1,0.5-0.2,0.7c-0.2,0.6-0.4,1.2-0.6,1.8c-0.2,0.5-0.3,1-0.5,1.4s-0.4,1.2-0.7,1.8&#xD;&#xA;			c-0.5,1.3-1.1,2.6-1.7,3.8c-0.2,0.5-0.5,1-0.7,1.5s-0.5,1-0.7,1.5s-0.6,1.1-0.8,1.6s-0.6,1.1-0.9,1.7c-0.5,0.9-1,1.8-1.5,2.7&#xD;&#xA;			l-0.1,0.2l0,0c-0.1,0.2-0.2,0.5-0.3,0.8c-0.2,0.5-0.4,1-0.7,1.5c-0.1,0.2-0.2,0.5-0.4,0.8l-0.4,0.7c-0.4,0.8-0.9,1.6-1.5,2.4&#xD;&#xA;			c-0.2,0.4-0.5,0.8-0.8,1.1l0,0c-0.3,0.4-0.6,0.9-1,1.3c-0.8,1-1.6,1.9-2.4,2.9s-1.6,1.8-2.5,2.6c-0.2,0.2-0.4,0.4-0.6,0.5l0,0&#xD;&#xA;			c-3,2.8-6.1,5.3-9.4,7.7l0,0l-0.2,0.2l-2.7,1.9l-0.3,0.2c-1.4,1-2.8,2-4.1,3.1c-4.7,3.5-9.2,7.4-13.3,11.6&#xD;&#xA;			c-3.5,3.8-6.5,7.9-9.2,12.2c-5.8,9.5-10,20.2-14,30.6l0.7-0.5l0,0L94,383l-1.3,1.7l-0.9,1.2l-5.7,7.5l0.9-0.1l1.3-0.2&#xD;&#xA;			c-0.2,0.4-0.4,0.8-0.6,1.2L76,420.4l-0.7,1.5l2.2-1.2l1.2-0.7l-0.4,0.8l-9.5,16.9c-1.7,3-3.3,5.9-5,8.9l0,0l-0.2,0.4H135&#xD;&#xA;			c0.3-1.3,0.6-2.6,0.9-4c0,1.3,0,2.6,0,4h46.9c-0.2-0.7-0.4-1.5-0.5-2.4c0.8,0.8,1.6,1.6,2.4,2.4h104.8c0.5-0.8,1-1.6,1.5-2.4&#xD;&#xA;			c-0.1,0.9-0.2,1.6-0.3,2.4h74.1L353.9,420z M247.9,230.4c1.5,1.2,2.8,2.7,3.8,4.4c1.1,2.2,1,3.8-1.1,12.2&#xD;&#xA;			c-1.5,5.7-3.7,11.3-6.6,16.5c-0.1-0.8-0.3-1.6-0.6-2.3c-0.1-0.3-0.2-0.6-0.4-1c-0.1-0.1-0.1-0.2-0.2-0.4s-0.2-0.5-0.4-0.8&#xD;&#xA;			s-0.4-0.7-0.7-1.1l-0.4-0.6c-0.5-0.8-1.2-1.8-1.9-2.9c0,0-0.1-0.1-0.1-0.2c-2.4-3.5-4.4-7.3-6-11.2c-0.1-0.3-0.2-0.6-0.3-0.9&#xD;&#xA;			c-0.1-0.3-0.2-0.6-0.3-0.9c-0.2-0.5-0.3-1.1-0.4-1.6c0,0,0-0.1,0-0.1c0,0,0-0.1,0-0.1l0,0c0-0.2,0-0.4-0.1-0.5c0-0.4,0-0.9,0-1.3&#xD;&#xA;			c0.5-4.4,5.8-6.9,9.1-8C243.7,228.7,246.1,229,247.9,230.4L247.9,230.4z" />
		<path class="st4" d="M341.1,136.2c-1.3,1.4-2.8,2.9-4.2,4.3c-5.3,5.3-11.2,10.7-17.3,16.2c-3,2.7-5.8,4.9-8.3,6.9l-1,0.8l-1,0.8&#xD;&#xA;			c-0.6,0.4-1.1,0.8-1.7,1.2l-0.9,0.6l-0.3,0.2h-0.1c-1.6,1.1-3,2.1-4.4,2.9l-0.8,0.5c-0.6,0.4-1.1,0.7-1.6,1l-1.7,0.9l-0.8,0.4&#xD;&#xA;			l-0.8,0.4l-0.4,0.2c-0.4,0.2-0.8,0.4-1.1,0.5l-0.4,0.2l-0.5,0.2c-0.2,0.1-0.3,0.1-0.5,0.2l1.5-0.4l0.6-0.1h0.1l0.7-0.2h0.2l0.2,0&#xD;&#xA;			l1.1-0.2l0.3-0.1l1-0.2c0.6-0.1,1.4-0.3,2.1-0.4l0.6-0.1h0.2l1-0.2l0.3-0.1l0.9-0.1c1.4-0.2,2.8-0.4,4.4-0.7l-1,0.3l-0.9,0.3&#xD;&#xA;			l-1.9,0.6l-2.2,0.7l-1.4,0.5c-0.4,0.1-0.8,0.3-1.2,0.5l-1.2,0.4c-0.8,0.3-1.7,0.6-2.5,1l-1.5,0.6l-1.5,0.6l-1.4,0.6l-1.4,0.7&#xD;&#xA;			l-1.4,0.7l-0.7,0.4l-0.6,0.3c-0.9,0.5-1.8,1-2.7,1.5c-0.6,0.3-1.2,0.7-1.7,1c-2.9,1.7-5.7,3.6-8.4,5.7c-0.8,0.6-1.5,1.2-2.2,1.8&#xD;&#xA;			c-0.4,0.3-0.7,0.6-1,0.9c-0.3,0.3-0.7,0.6-1,0.9l-0.9,0.9c-0.6,0.6-1.2,1.2-1.7,1.7l-0.1,0.1c0.5,0.1,1,0.2,1.4,0.3&#xD;&#xA;			c0.2,0.1,0.5,0.2,0.7,0.3c0.2,0.1,0.4,0.2,0.5,0.3c0.9,0.5,1.7,1.1,2.4,1.9c0.1,0.1,0.2,0.2,0.3,0.3c0.3,0.3,0.5,0.6,0.7,0.9&#xD;&#xA;			l0.3,0.4c0.1,0.2,0.3,0.5,0.4,0.7c0.1,0.2,0.2,0.4,0.3,0.6c0.2,0.4,0.4,0.9,0.5,1.3c0.1,0.2,0.1,0.5,0.2,0.7c0,0.1,0,0.2,0.1,0.3&#xD;&#xA;			c0,0.1,0.1,0.3,0.1,0.4c0,0.1,0,0.2,0.1,0.2c0.1,0.8,0.2,1.6,0.2,2.4c0,6.2-4.2,11.2-9.3,11.2h-0.6c-0.2,0-0.3,0-0.5-0.1h-0.2&#xD;&#xA;			l-0.5-0.1h-0.1l-0.4-0.1l-0.2-0.1h-0.1l-0.2-0.1l-0.1,0h-0.1c-0.3-0.1-0.6-0.2-0.8-0.4c-0.2-0.1-0.3-0.2-0.5-0.3&#xD;&#xA;			c-0.7-0.4-1.3-1-1.8-1.5l-0.1-0.1l-0.2-0.2l-0.2-0.3c0,0,0-0.1-0.1-0.1c-0.2-0.3-0.4-0.6-0.6-0.9c0,0,0-0.1-0.1-0.1&#xD;&#xA;			c-0.1-0.2-0.2-0.3-0.3-0.5v-0.1c-0.1-0.2-0.2-0.4-0.3-0.6c0,0,0-0.1-0.1-0.1c-0.1-0.1-0.1-0.2-0.2-0.4s-0.6-1.9-0.7-2.1&#xD;&#xA;			c0,0,0,0,0,0c0-0.1,0-0.2-0.1-0.3c-0.1-0.2-0.1-0.5-0.1-0.8c0-0.2,0-0.3-0.1-0.4s0-0.4,0-0.6l-0.2,0.2l-0.6,0.6l-0.1,0.1l-0.2,0.2&#xD;&#xA;			l-0.3,0.3l-0.7,0.7l0,0.8c-0.4,0.1-0.8,0.3-1.3,0.4c-0.4,0.5-0.7,0.7-0.7,0.7l-0.7,1c0.9-0.3,1.8-0.6,2.7-0.9&#xD;&#xA;			c0.7,4.6,0.9,5.4,1.1,6.2c0.8,2.6,2,5.1,3.5,7.5c2.1,3,4.6,5.6,7.4,8c-0.4-2.1-1-4.1-1.9-6c6.8,5.1,13,11,18.4,17.5&#xD;&#xA;			c1.8-4.2,3.8-8.2,5.4-12.5c1.3-3.5,2.2-7.1,2.8-10.7c0.6-3.7,0.4-7.5-0.7-11.1c1.4,0.5,2.4,1.6,2.9,3v-2c0-0.4,0-0.8-0.1-1.1v-0.2&#xD;&#xA;			c0-0.3-0.1-0.7-0.1-1c0-0.3,0-0.4-0.1-0.7c0-0.2-0.1-0.6-0.1-0.8c0-0.3-0.1-0.5-0.1-0.8c-0.1-0.7-0.2-1.3-0.4-2&#xD;&#xA;			c-0.1-0.3-0.1-0.6-0.2-0.9c-0.1-0.4-0.2-0.8-0.3-1.1c-0.8-2.8-2-5.4-3.5-7.9l-0.3-0.5c-0.2-0.2-0.3-0.5-0.5-0.7&#xD;&#xA;			c-0.2-0.2-0.2-0.2-0.2-0.3c-0.2-0.4-0.5-0.7-0.8-1c-0.2-0.2-0.4-0.5-0.6-0.7c0,0-0.1-0.1-0.1-0.1l-0.1-0.2&#xD;&#xA;			c1.4-2.1,2.3-3.6,2.3-3.6l0.2-0.1l0.1-0.1l0.3-0.1l0.5-0.2c0.1-0.1,0.3-0.1,0.4-0.2c0.2-0.1,0.3-0.2,0.5-0.2&#xD;&#xA;			c3.7-1.6,7.6-2.8,11.5-3.7c8.7-1.9,22.3-9.9,22.7-10.2c-0.4,0.1-9.3,2.9-15,2.9l3.3-1.4c7.5-3.3,13.4-8.1,18.5-13.8&#xD;&#xA;			c5.8-6.5,10.3-14.4,14.5-23c3.2-6.6,6.2-13.8,9.2-21.1C353.7,121.7,348.2,128.7,341.1,136.2z" />
		<path class="st4" d="M218,206c-0.3,6.1-5.4,10.8-11.5,10.5s-10.8-5.4-10.5-11.5c0-0.8,0.1-1.5,0.2-2.3l0,0c0.7-2.9,2.5-5.4,5-7&#xD;&#xA;			l0,0c1.3-0.8,2.8-1.4,4.4-1.5c-8.5-7.6-22.8-16-48-22.2c6.2,0.6,12.3,1.6,18.4,2.9c-1-0.3-12.4-3.9-31.2-17.9&#xD;&#xA;			c-7.3-5.4-14.3-10.8-20.5-15.9c-1.7-1.4-3.4-2.9-5-4.2c-8.3-7.3-14.9-14.2-18.2-20.4c3.7,7.2,7.2,14.2,11,20.8&#xD;&#xA;			c9.9,17,21.7,30.9,42.9,37.5c-6.6,0-16.9-2.7-17.7-2.9c1,0.5,16.7,8.2,26.9,10h0.2c10.4,1.9,16.1,4.5,16.1,4.5s1.1,1.5,2.7,3.6&#xD;&#xA;			c-5.7,5.8-8.9,13.7-8.9,21.8c0.7-1.5,1.9-2.5,3.4-3c-1.2,3.5-1.5,7.3-0.8,10.9c0.7,3.6,1.9,7.2,3.4,10.6c1.8,4.3,4.2,8.2,6.3,12.3&#xD;&#xA;			c6.6-6.5,13.9-12.3,21.8-17.3c-1,1.9-1.8,3.9-2.2,6c3.2-2.3,6.1-4.9,8.7-7.8c3.5-4.4,5.4-9.8,5.5-15.3l0,0l-2.5-2.2&#xD;&#xA;			C218,205.8,218,205.9,218,206z" />
		<path class="st5" d="M177.1,159.4c2.7-3,5.8-5.7,9.1-8l-2.1-0.5c2.6-1.5,14.9-5.7,14.9-5.7l-3.6-1.2c0,0,12.2-1.3,19.6-2.2&#xD;&#xA;			c5.1-0.5,10.3-0.5,15.4,0l-1.3-1.5c1.5,0.5,3.1,0.7,4.7,0.8c3.1,0.2,10.2,0.7,10.2,0.7c5.8,0,9.3,2.4,15.1,1.8&#xD;&#xA;			c-0.6,0.9-0.6,1.4,0.4,1.9c4.9,2.5,9.5,5.4,14,8.7l-2.7,0.4c3.2,1.7,6.1,4,8.6,6.6c1.4,1.4,2.6,2.9,4,4.2c0.3,0.2,0.5,0.5,0.8,0.7&#xD;&#xA;			" />
		<path class="st5" d="M153.8,303.1c0.5-0.9,1-1.8,1.5-2.7c1.8-3.3,3.4-6.6,4.9-10.1c2-4.7,3.3-9.5,4-14.5c0.3-2.3,0.4-4.7,0.3-7&#xD;&#xA;			c-0.4-7.8-3.1-15.2-5.1-22.8s-3.1-15.8-0.7-23.2c-0.9,1.3-1.9,2.2-2.8,3.5c0-10.8,1.9-21.6,5.4-31.9c-1.6,1.2-3.2,2.2-4.8,3.4&#xD;&#xA;			c1.9-5.7,4.6-11.1,8-16" />
		<path class="st5" d="M290.8,282.7c-1.3-4.6-1.8-9.3-1.7-14c0.4-7.8,3.1-15.2,5.2-22.8s3.1-15.8,0.7-23.2c0.9,1.3,1.9,2.2,2.8,3.5&#xD;&#xA;			c0-10.8-1.9-21.6-5.4-31.9c1.6,1.2,3.2,2.2,4.8,3.4c-1.4-4.2-3.3-8.3-5.6-12.2" />
		<path class="st5" d="M300.1,303.8c-0.4-0.6-0.7-1.2-1.1-1.9c-2.1-3.8-4-7.6-5.7-11.6c-1-2.5-1.9-5-2.6-7.6" />
		<path class="st5" d="M116.3,123.1c3,4,6.5,7.8,10.2,11.2c12.6,11.3,16.8,13.7,16.8,13.7" />
		<path class="st5" d="M158.9,147L158.9,147c-0.4-0.3-14.8-11.4-24.1-18.7c-9.4-7.5-24.3-17.6-36.1-38.6&#xD;&#xA;			c4.5,12.1,10.2,23.6,17.7,33.4" />
		<path class="st5" d="M193.9,170.9c0,0-7.6-4.7-16.8-11.5c-7.2-5.2-14-10.8-20.3-16.9c0.5,1.6,1.2,3.1,2.1,4.5" />
		<path class="st5" d="M116.3,123.1L116.3,123.1c2.3,6.1,5.1,12,8.1,17.8" />
		<path class="st5" d="M196.3,202.6c-4.8-3-9.9-9-13-12.8c-1.7-2.1-2.7-3.6-2.7-3.6s-5.8-2.6-16.1-4.5h-0.2&#xD;&#xA;			c-10.1-1.8-25.9-9.5-26.9-10" />
		<path class="st5" d="M137.3,171.7L137.3,171.7c0.8,0.2,11.1,2.9,17.7,2.9c-21.2-6.7-33-20.6-42.9-37.6c-3.8-6.5-7.3-13.6-11-20.8&#xD;&#xA;			c3.3,6.1,9.9,13,18.2,20.4c1.6,1.4,3.3,2.8,5,4.2c6.2,5.2,13.2,10.5,20.5,15.9c18.9,14,30.2,17.6,31.2,17.9" />
		<path class="st5" d="M220.5,208c1.4,1.2,2.2,1.8,2.2,1.8l4,4.4" />
		<path class="st5" d="M218,205.8l2.5,2.2" />
		<path class="st5" d="M205.7,194.1c0.9,0.8,1.8,1.7,2.6,2.5c3.8,3.8,7.2,7,9.8,9.3" />
		<path class="st5" d="M176.2,174.8L176.2,174.8c-6.2-1.3-12.3-2.2-18.5-2.9c25.2,6.2,39.5,14.6,48,22.2" />
		<path class="st5" d="M127.1,149.3c-4.5-3.4-9.5-7.4-14.9-12.2" />
		<path class="st5" d="M128,150c-0.1-0.1-0.2-0.1-0.2-0.2" />
		<path class="st5" d="M128.9,150.6l-0.7-0.5" />
		<path class="st5" d="M129.9,151.3c-0.2-0.1-0.4-0.3-0.7-0.5" />
		<path class="st5" d="M153,165.9c0,0-7-3.1-19.5-11.9l0,0l-2.6-1.9" />
		<path class="st5" d="M208.5,225.2c-7.9,4.9-15.2,10.7-21.8,17.3c-2.2-4.1-4.6-8-6.3-12.3c-1.5-3.4-2.6-6.9-3.3-10.6&#xD;&#xA;			c-0.7-3.7-0.4-7.4,0.8-10.9c-1.5,0.5-2.8,1.5-3.4,3c0-8.2,3.3-16,8.9-21.8" />
		<path class="st5" d="M208.5,225.2L208.5,225.2" />
		<path class="st5" d="M208.5,225.2L208.5,225.2C208.5,225.2,208.5,225.2,208.5,225.2z" />
		<path class="st5" d="M208.5,225.2L208.5,225.2" />
		<path class="st5" d="M208.5,225.2L208.5,225.2" />
		<line class="st5" x1="208.5" y1="225.2" x2="208.5" y2="225.2" />
		<path class="st5" d="M220.5,208L220.5,208c-0.1,5.6-2,11-5.5,15.4c-2.6,3-5.5,5.6-8.7,7.8c0.4-2.1,1.2-4.1,2.2-6" />
		<line class="st5" x1="218" y1="205.8" x2="218" y2="205.8" />
		<path class="st5" d="M196.3,202.7c-0.2,0.8-0.3,1.5-0.3,2.3c-0.3,6.1,4.4,11.2,10.5,11.5s11.2-4.4,11.5-10.5" />
		<path class="st5" d="M201.3,195.6c-2.5,1.6-4.3,4.1-5,7" />
		<path class="st5" d="M205.7,194.1L205.7,194.1c-1.6,0.2-3.1,0.7-4.4,1.5" />
		<path class="st5" d="M155,174.6c0,0-18.2-13-24.1-22.5l0,0l-0.7-0.5l-0.4-0.3l-0.7-0.5l-0.3-0.2l-0.7-0.5L128,150l-0.2-0.2&#xD;&#xA;			l-0.7-0.5l0,0c-0.5-0.4-7.8-6.9-7.7-12.6" />
		<path class="st5" d="M185,186.8c0,0,7.9,7.7,16.3,8.8l0,0" />
		<path class="st5" d="M307.8,146.7L307.8,146.7c0.4-0.4,12.5-11.6,20.4-19s20.6-17.9,30.5-39.2c-3.8,12.2-8.7,24-14.9,33.9&#xD;&#xA;			c-2.5,4-5.4,7.8-8.6,11.4c-10.6,11.4-14.2,13.9-14.2,13.9" />
		<path class="st5" d="M278.1,171c0,0,2.4-1.8,6.1-4.8c6.6-5.4,17.4-14.6,25.4-24.1c-0.4,1.6-1,3.1-1.8,4.6" />
		<path class="st5" d="M336.9,140.5c2.6-5.9,4.9-11.9,6.9-18l0,0" />
		<path class="st5" d="M329.2,153.8L329.2,153.8" />
		<path class="st5" d="M276.1,203.2l0.1-0.1c4-3.1,8.3-9,10.9-12.9c1.4-2.1,2.3-3.6,2.3-3.6s0.7-0.4,2.1-1c3.8-1.6,7.7-2.8,11.7-3.6&#xD;&#xA;			c8.7-1.9,22.3-9.9,22.7-10.2" />
		<path class="st5" d="M341.1,136.2c-1.4,1.4-2.8,2.9-4.2,4.3c-5.3,5.3-11.2,10.7-17.3,16.2c-3,2.7-5.8,4.9-8.3,6.9l-1,0.8&#xD;&#xA;			c-10,7.7-16.1,10.1-17.1,10.5" />
		<path class="st5" d="M347.2,136.6c3.2-6.6,6.2-13.8,9.2-21.1c-2.8,6.2-8.3,13.2-15.4,20.7" />
		<path class="st5" d="M311,174.8c18-6.8,27.9-20.8,36.2-38.1" />
		<path class="st5" d="M326,171.8L326,171.8c-0.4,0.1-9.3,2.9-15,2.9" />
		<path class="st5" d="M251.1,214.2l2-2.8l0.7-1c0,0,0.2-0.2,0.7-0.7c0.3-0.3,0.7-0.7,1.2-1.2" />
		<path class="st5" d="M257.8,206.4L257.8,206.4c-0.8,0.9-1.5,1.6-2.1,2.2" />
		<path class="st5" d="M293.1,174.9L293.1,174.9h0.1c5.1-1.3,10.3-2.3,15.5-2.9c-7.2,2-14.1,4.7-20.8,8.1&#xD;&#xA;			c-7.4,3.6-14.1,8.5-19.8,14.4c-0.8,0.9-1.5,1.7-2.2,2.5c-3.2,3.9-6,7.1-8.2,9.4" />
		<path class="st5" d="M334.6,149c3.8-3.5,8-7.6,12.6-12.4l0,0" />
		<path class="st5" d="M312.7,165.9l0.6-0.3c1.9-1.1,8.2-5,18.1-13.7" />
		<path class="st5" d="M265.8,226.1c0.9,1.9,1.5,3.9,1.9,6c-2.8-2.4-5.3-5-7.4-8c-3-4.6-4.6-10-4.7-15.6l0,0" />
		<path class="st5" d="M265.8,226.1L265.8,226.1" />
		<path class="st5" d="M265.8,226.1L265.8,226.1L265.8,226.1z" />
		<path class="st5" d="M265.8,226.1L265.8,226.1" />
		<line class="st5" x1="265.8" y1="226.1" x2="265.8" y2="226.1" />
		<path class="st5" d="M287.1,190.2c4.9,6.3,7.6,14.1,7.5,22.1c-0.5-1.4-1.5-2.5-2.9-3c1.1,3.6,1.3,7.4,0.7,11.1&#xD;&#xA;			c-0.6,3.7-1.6,7.2-2.8,10.7c-1.5,4.4-3.5,8.3-5.4,12.5c-5.5-6.5-11.6-12.4-18.4-17.5" />
		<path class="st5" d="M259.3,211.8c-0.9-1.7-1.4-3.5-1.5-5.4" />
		<path class="st5" d="M268.2,194.5c3.9,0.6,7.1,4.1,7.9,8.7c0.1,0.8,0.2,1.6,0.2,2.4c0,6.2-4.2,11.2-9.3,11.2&#xD;&#xA;			c-3.2-0.1-6.2-2-7.7-4.9" />
		<path class="st5" d="M311,174.8L311,174.8c0.5-0.4,15.5-13.4,20.4-22.9l0.5-0.4l0.5-0.5c0.3-0.3,0.6-0.5,0.8-0.7l1.3-1.2l0,0&#xD;&#xA;			c0.4-0.4,6.5-7,6.5-12.8l0,0" />
		<path class="st5" d="M285.7,187.1c0,0-6.7,7.8-13.8,9" />
		<path class="st5" d="M247.9,230.4c-1.8-1.4-4.2-1.8-6.4-1c-3.2,1.1-8.6,3.6-9.1,8c-0.7,6.4,8.4,18.5,10,21.5s1.6,4.5,1.6,4.5&#xD;&#xA;			c2.8-5.2,5-10.7,6.5-16.4c2-8.4,2.2-10,1.1-12.2C250.7,233.1,249.4,231.6,247.9,230.4z" />
		<path class="st5" d="M244.1,280.6L244.1,280.6c-3.3-4.9-7.7-9-12.9-11.9c-2.5-1.4-5.2-2.6-7-4.7c0.4,2.4,1.9,4.6,4,5.9&#xD;&#xA;			c-5.1-0.7-9.9-3.1-14.6-5.2s-9.7-4-14.8-3.3c1.1,2,2.9,3.5,5.1,4.3c-7.4,0.7-14.8-2.1-21.2-5.7c-5.9-3.5-11.7-7.3-17.1-11.5" />
		<path class="st5" d="M244,280.6L244,280.6c1.6-4.5,4-8.5,7.2-11.9c1.4-1.4,2.9-2.6,3.9-4.7c-0.1,2.1-0.9,4.2-2.2,5.9&#xD;&#xA;			c2.8-0.7,5.5-3.1,8.1-5.3s5.4-4,8.2-3.3c-0.4,1.7-1.4,3.2-2.8,4.3c4.1,0.7,8.2-2.1,11.8-5.7c3.4-3.6,6.6-7.5,9.5-11.5" />
		<path class="st5" d="M164.2,275.8c2,4.9,5.3,9.1,9.6,12.2c0-1.7,0-3,0-4.7c5.6,9.1,14.7,15.5,25.2,17.5c-0.2-1.4-0.5-2.2-0.8-3.6&#xD;&#xA;			c7.3,7.7,16.6,13.4,26.8,16.4c-0.4-2.4-0.5-4.3-0.9-6.7c4.2,7.5,11.5,12.9,19.9,14.8" />
		<path class="st5" d="M244.1,321.7c5-1.8,9.6-7.3,12.2-14.8c-0.2,2.4-0.3,4.3-0.6,6.7c6.2-2.9,12-8.6,16.5-16.4&#xD;&#xA;			c-0.1,1.4-0.3,2.2-0.5,3.6c6.3-1.8,12.1-8.4,15.6-17.5c0,1.7,0,3,0,4.7c1.4-1.6,2.5-3.4,3.4-5.3l0,0" />
		<path class="st5" d="M155.4,300.4c2,2.6,4.4,5,7.1,6.9c0-2,0-3.4,0-5.4c6.6,10.5,17.4,17.8,29.6,20.1c-0.3-1.5-0.6-2.6-0.9-4.1&#xD;&#xA;			c8.6,8.9,19.5,15.4,31.4,18.8c-0.4-2.7-0.6-4.9-1.1-7.6c5,8.7,13.5,14.8,23.2,17" />
		<path class="st5" d="M244.8,345.9c5.9-2,11.2-8.4,14.3-17c-0.3,2.8-0.4,4.9-0.6,7.6c7.3-3.3,14-9.9,19.4-18.8&#xD;&#xA;			c-0.2,1.6-0.4,2.6-0.6,4.1c7.4-2.1,14.2-9.6,18.2-20.1c0,2,0,3.4,0,5.4c1.4-1.6,2.6-3.4,3.6-5.3" />
		<path class="st5" d="M126.6,331.1c8.1,14.9,28.7,26.2,28.7,26.2v-3.9c2,2.6,4.4,5,7.1,6.9c0-2,0-3.4,0-5.4&#xD;&#xA;			c6.6,10.5,17.4,17.8,29.6,20.1c-0.3-1.5-0.6-2.6-0.9-4.1c8.6,8.9,19.5,15.4,31.4,18.8c-0.4-2.7-0.6-4.9-1.1-7.6&#xD;&#xA;			c5,8.7,13.5,14.8,23.2,17" />
		<path class="st5" d="M244.8,398.9c5.9-2,11.2-8.4,14.3-17c-0.3,2.8-0.4,4.9-0.6,7.6c7.3-3.3,14-9.9,19.4-18.8&#xD;&#xA;			c-0.2,1.6-0.4,2.6-0.6,4.1c7.4-2.1,14.2-9.6,18.2-20.1c0,2,0,3.4,0,5.4c1.4-1.6,2.6-3.4,3.6-5.3l1.1,3.2c0,0,14.4-9.1,22.7-23.4" />
		<path class="st5" d="M140.1,381.5c1.9,2,4,3.8,6.2,5.4c-0.1-2.5,0-4.3,0-6.8c8.3,13.2,21.8,22.4,37.1,25.2c-0.3-2-0.8-3.2-1.1-5.2&#xD;&#xA;			c10.8,11.2,24.4,19.3,39.4,23.5c-0.6-3.4-0.8-6.1-1.3-9.6c6.3,10.9,16.9,18.6,29.1,21.3" />
		<path class="st5" d="M104.2,354.9c11.4,16.4,33.2,28.3,33.2,28.3v-4.9l0.1,0.1" />
		<path class="st5" d="M319.6,383.9c7.5-5.1,14.2-11.2,20.1-18.1" />
		<path class="st5" d="M249.6,435.4c7.4-2.5,14.1-10.5,18-21.3c-0.4,3.5-0.5,6.2-0.8,9.6c9.1-4.2,17.6-12.4,24.3-23.5&#xD;&#xA;			c-0.2,2-0.5,3.2-0.7,5.2c9.3-2.6,17.8-12,22.9-25.2c0,2.5,0,4.3,0,6.8c1.6-1.9,3.1-3.9,4.2-6.1" />
		<path class="st5" d="M91.8,386c0.3,3.8,5.4,8.2,5.4,8.2l1.1-6.9c4.6,17.3,25.5,32.1,34.7,37.9" />
		<path class="st5" d="M173.4,447c-11.2-4.4-20.7-12.2-27.1-22.4c0.1,2.5,0,4.3,0,6.8c-2.8-2-5.4-4.3-7.6-7l-6.5-6.1" />
		<path class="st5" d="M296.5,447c6.8-4.3,12.8-12.2,16.7-22.4c0,2.5,0,4.3,0,6.8c1.8-2,3.3-4.3,4.5-6.6l1.3,4.1&#xD;&#xA;			c0,0,1.9-1.2,4.7-3.4" />
		<path class="st5" d="M348.5,397.7c-5.2,9.5-12.6,17.4-18.8,22.8l-4.7,3.3" />
		<path class="st5" d="M146.4,314.9c13.8,18,45.8,29,45.8,29l-0.8-6.3c2.9,6.6,26.5,18.1,26.5,18.1c1.6,0.6,3.1,1.1,4.7,1.5&#xD;&#xA;			c-0.4-2.7-0.6-4.9-1.1-7.6c5,8.7,13.5,14.8,23.2,17" />
		<path class="st5" d="M244.8,366.6c5.9-2,11.2-8.4,14.3-17c-0.3,2.8-0.4,4.9-0.6,7.6c3.1-1.4,5.9-3.3,8.5-5.6&#xD;&#xA;			c0,0,12.7-10.2,15-16.3v6.3c0,0,14.1-6.9,26.2-22.9" />
		<path class="st5" d="M196.3,202.6L196.3,202.6c-1.4,4-1.6,8.3-0.7,12.4" />
		<path class="st5" d="M218,205.8c0,0,0,0,0,0.1c-0.1,1.5-1.4,13.5-14.6,14.4" />
		<path class="st5" d="M276.1,202.6c0,0,0.1,0.1,0.1,0.4c1.2,3.9,1.5,8,0.6,12" />
		<path class="st5" d="M272.4,220.4c-7.6-0.5-11.2-4.7-13-8.5v-0.1l0,0c-0.8-1.7-1.3-3.6-1.5-5.4l0,0" />
		<line class="st6" x1="239.5" y1="236.5" x2="241.2" y2="239.7" />
		<line class="st6" x1="247.1" y1="236.5" x2="246.5" y2="239.7" />
		<path class="st5" d="M364.8,447H63.7l0.2-0.4l0,0c1.7-3,3.3-5.9,5-8.9l9.5-16.9l0.4-0.8l-1.2,0.7l-2.2,1.2l0.7-1.5l11.9-26.1&#xD;&#xA;			c0.2-0.4,0.4-0.8,0.6-1.2l-1.3,0.2l-0.9,0.1l5.7-7.5l0.9-1.2L94,383l-3.1,2l0,0l-0.7,0.5c4.1-10.5,8.2-21.1,14-30.6&#xD;&#xA;			c2.6-4.4,5.7-8.5,9.2-12.2c4.1-4.2,8.5-8.1,13.3-11.6c1.4-1,2.8-2.1,4.1-3.1l0.3-0.2l2.5-1.9l0.2-0.2" />
		<path class="st5" d="M133.8,325.7c4.5-3.2,8.7-6.8,12.5-10.9c3.3-3.4,5.8-7.4,7.5-11.8" />
		<path class="st7" d="M300.1,303.8c0.1,0.3,0.1,0.5,0.2,0.8c1.7,5.2,4.3,10,7.8,14.2c1,1.2,1.9,2.4,2.9,3.5&#xD;&#xA;			c1.2,1.3,2.3,2.5,3.3,3.5" />
		<path class="st7" d="M314.4,325.7L314.4,325.7l2.2,2.2c2.1,2.2,4.3,4.4,6.3,6.8c2.2,2.5,4.3,5.2,6.2,7.9&#xD;&#xA;			c4.5,6.8,7.9,14.7,10.7,23.1c2.2,6.4,4.1,13.1,5.9,19.8l-2.8-2.5c1.9,3.5,3.8,7,5.6,10.4l-1.6-0.4c0.5,1.5,1,3.1,1.5,4.6l7.9,24.2&#xD;&#xA;			l-2.5-1.9l10.9,27" />
		<path class="st5" d="M144.3,447c-3.9-4-6.9-8.7-9-13.8c-1-2.6-1.8-5.3-2.3-8.1c-0.4-2.3-0.7-4.5-0.8-6.8c-0.3-6.6,0.4-13.2,2-19.6&#xD;&#xA;			c1.1-4.5,2.6-8.9,4.3-13.1c0.5-1.3,1.1-2.7,1.6-4c2.2-5.2,4.7-10.4,7.1-15.5" />
		<path class="st5" d="M138.5,385.5c-1.3-5.7-1.4-11.6-0.3-17.4" />
		<path class="st5" d="M313.5,447c3.9-4,6.9-8.7,9-13.8c4.3-10.9,3.9-23.2,1.1-34.6c-1.1-4.5-2.6-8.9-4.3-13.1&#xD;&#xA;			c-0.6-1.6-1.3-3.2-2-4.7c-2.1-5-4.5-9.9-6.8-14.7" />
		<path class="st5" d="M319.6,368.1c1.1,5.8,1,11.7-0.3,17.4" />
		<g class="st8">
			<path d="M129.3,447.4c3.3-7,4.5-14.8,3.2-22.4c-2.1-12.7-7.4-30.4-7.4-30.4l8.7,20.8c0,0-2.8-13.1-4.4-26.1s-1.8-25.3-1.8-25.3&#xD;&#xA;				s2.8,19.7,6,29.5s5.5,17.9,5.5,17.9s1.9-15.6,1.9-19.3c0.3,22.5-0.9,32.4-2.2,40.7s-2.5,15.2-2.5,15.2L129.3,447.4z" />
			<path d="M218.7,206.9c0,0-1.3,16.2-19.7,17.9c2.9-0.9,9.5-5.2,9.5-5.2s-6.3,1.8-9.1,1.8c8.3-2.1,10.8-5.4,10.8-5.4&#xD;&#xA;				c-5.7,2.4-12.3,0.2-15.6-5.1c0.4,2.2,1.1,4.4,2.1,6.4c-2.2-2.3-3.4-5.4-3.6-8.5c-0.5-5.6,0.4-8.2,0.4-8.2s-10.3-9.2-12.9-14.3&#xD;&#xA;				c-5.5-4.4-14.7-9-21.7-12.7c-5-2.8-9.7-6-14.1-9.6c0,0,8.6,4.6,12.9,6c-13.2-10.5-30.1-19.4-35.9-26.9&#xD;&#xA;				c8.5,6.8,26.7,17.2,26.7,17.2l24.6,13.2l-6.2,0.7c6.6,2,13,4.4,19.3,7.3c8.8,4.2,17.5,10.3,19.9,12.7c-4.4,1-7.1,2-8.9,5.9&#xD;&#xA;				s-0.6,10.2,2.5,13s9.7,3.3,13,1c1.7-1,3.2-2.4,4.4-4l1-3.7L218.7,206.9z" />
			<path d="M257,206.9c0,0,1.1,16.2,17,17.9c-2.5-0.9-8.2-5.2-8.2-5.2s5.4,1.8,7.8,1.8c-7.1-2.1-9.3-5.4-9.3-5.4s8,4.2,13.4-5.1&#xD;&#xA;				c-0.4,2.2-1,4.3-1.8,6.4c1.9-2.4,3-5.4,3-8.5c0.4-5.6-0.4-8.2-0.4-8.2s8.9-9.2,11.1-14.3c4.8-4.4,12.7-9,18.6-12.7&#xD;&#xA;				c4.3-2.8,8.4-6,12.1-9.6c0,0-7.4,4.6-11.1,6c11.4-10.5,25.9-19.4,30.9-26.9c-7.3,6.8-22.9,17.2-22.9,17.2l-21.2,13.2l5.4,0.7&#xD;&#xA;				c-5.7,2-11.2,4.5-16.6,7.3c-7.6,4.2-15.1,10.3-17.1,12.7c3.8,1,6.1,2,7.6,5.9s0.5,10.2-2.1,13s-8.3,3.3-11.2,1&#xD;&#xA;				c-1.5-1.1-2.8-2.4-3.8-4l-0.8-3.7L257,206.9z" />
			<path d="M268.2,265.6c-1.3,1.4-2.9,2.4-4.7,3.1l1-3.1c0,0-4.6,7.2-9.8,10.6l1.7-3.6c0,0-9.7,7.3-12.8,11.9&#xD;&#xA;				c-9.1-8.9-16.2-10.4-27.3-10.4c-6.7,0-13.3-2-19-5.6l2.6,4.2c0,0-24.2-14-29.8-20.8c18.8,11.1,19.9,14.2,33,13.6&#xD;&#xA;				c-1.9-1-3.5-2.4-4.5-4.2c0,0,4.7-0.7,13.3,2.7s13.6,5.4,15.4,5.5c-1.1-1.2-2-2.5-2.8-3.9c0,0,7.4,3.2,10.4,5.3s8.9,9.1,8.9,9.1&#xD;&#xA;				c1-3.6,2.9-6.8,5.5-9.4c4.4-4.5,5.2-4.9,5.2-4.9c0.4,1.3,0,2.6-0.9,3.6c5-2.1,7.8-5.9,11-7.3s4.2-1.1,4.2-1.1l-1.2,3.6&#xD;&#xA;				L268.2,265.6z" />
			<path d="M252.1,237.7c0,0-3.6-4.1-7.6-4s-10.8,3-12,5.6c3.2,10.2,11.3,21.3,11.6,23.5c2.9-5.6,5.3-11.4,6.9-17.5&#xD;&#xA;				C251.6,242.7,251.9,240.2,252.1,237.7z" />
			<path d="M172.5,184c0,0-5.1,8.3-6.3,15.4c-1.5,8-2.2,12.5-2.2,12.5l3.1-6.1c0,0-2.4,12.7-2.7,21.8s9.5,21.4,14.4,26.2&#xD;&#xA;				c4.9,4.8,13.5,9.6,13.5,9.6s-14.9-6.7-19.7-10l-4.8-3.3c0,0,4.5,14.5,5.5,19.2s4.9,16.6,5.4,20.4l-2.5-2.9&#xD;&#xA;				c-0.1,5.5,0.2,11,0.9,16.4c1.1,7.2,1.8,11.8,1.8,11.8l0.6,2.7l7.8,10.7c0,0-12.2-12.1-18.9-15.5c-4.9-2.6-9.6-5.7-13.9-9.3&#xD;&#xA;				c0,0,5.5-11.4,7.5-17.5s4-16.3,1.2-26.2s-6.9-27-4.9-35.8l-2.4,2.3c-0.1-5.8,0.3-11.7,1.3-17.4c1.6-9.5,3.1-13.2,3.1-13.2&#xD;&#xA;				l-4.2,2.3c0,0,3.9-8.2,5.6-11.8s3.3-4.2,3.3-4.2L172.5,184z" />
			<path d="M239.5,142.1c0,0-8.4,1.6-13.4,1.4l3.9,1.4c0,0-14.5,2-21.6,2.1c-4.7,0.1-9.3,0.8-13.8,2h4.2c0,0-17.2,6.7-21.3,11.2&#xD;&#xA;				l0.7-2.7l7.1-6.3l-0.3-0.8l12.7-5l-0.6-2c0,0,18.9-1.7,23.6-2.1c2.8-0.2,5.6-0.2,8.4,0l0.9-0.1l0.5-0.1l2.1-0.2L239.5,142.1z" />
			<path d="M179.3,290.3c0,0,12.6,12.7,22.7,15.6l-0.2-2.4c0,0,18.5,12.6,24.7,14.7c1.2-0.8,2.2-4.7,2.2-4.7s9.4,9,11.9,10.4&#xD;&#xA;				c1.6,0.8,3.5,0.8,5.2,0l3.3-5.2c0,0-4.1,2.8-5.5,2.8s-11.6-4.3-12.8-6.5s-5.6-6.4-5.6-6.4l-0.3,4.9c0,0-15.3-5.5-25.8-15.4&#xD;&#xA;				l-0.3,2.2c0,0-8.5-1.5-14-5.8L179.3,290.3z" />
			<path d="M246.6,344.5c0,0-2.2,4.1-4.5,4.9c-13.5-5-16-14.1-16-14.1l-4.3-3.8l0.5,5l1.1,3.9c0,0-14.6-6.4-20.4-10.2&#xD;&#xA;				s-9.9-6.4-9.9-6.4l1.3,3.8l-14.8-7.7l-0.3-2.5c0,0,11.9,5.3,12.1,4.1c0.1-1.8,0.3-3.2,0.3-3.2s9.5,9.3,16,12.1s13.9,5.7,13.9,5.7&#xD;&#xA;				l-0.3-6.3l6,5.9c0,0,6.1,6.1,10.8,8s6.3,1.9,6.3,1.9L246.6,344.5z" />
			<path d="M244.8,366.6c-8.7,10.9-1,13.4-9.1,28.5c-2.8-1.5-5.4-3.2-7.9-5.3l0,0c-2.4-2-4.5-4.3-6.1-6.9c-0.3-0.5-0.4-0.7-0.4-0.7&#xD;&#xA;				l1.3,7.3l-9.7-3.6h-0.1c0,0,0,7,5.6,23.9c-6.5,0.4-28.7-4.9-31.9-5.6l-0.4-0.1c0,0-0.2,4.9,0,9.1c-3.8-0.7-17.5-4.5-27.5-12.6&#xD;&#xA;				c-1.4,9-6,18.2-11.1,26c-0.4,0.7-0.9,1.3-1.3,2s-0.8,1.2-1.3,1.8c-2.3,3.4-4.7,6.3-6.7,8.8c-0.2,0.3-0.5,0.6-0.7,0.8&#xD;&#xA;				c-3.4,4.1-5.9,6.5-5.9,6.5H63.8l5-8.9l9.5-16.9l-0.8-0.1l-1.5-0.3l11.9-26.1l-0.8-1l4.8-6.9l1.2-1.7l-0.4,0.1l-1.8,0.3l0,0&#xD;&#xA;				c3.6-10.4,8.1-20.4,13.4-29.9c0.8-1.4,1.7-2.8,2.6-4.2c6-9.2,14.5-15.9,19.8-19.6c3-2.1,5-3.1,5-3.1l-0.8-0.5l2.5-1.9l1-0.2&#xD;&#xA;				c1.6-0.3,5-3.3,8.7-7.7l0,0c3.9-4.6,7.4-9.4,10.4-14.6l0,0c0.6-1,1.1-2,1.6-3c0.3-0.6,0.6-1.1,0.9-1.7c0,0.2,0,0.5,0,0.7&#xD;&#xA;				c0.1,1,0.3,1.9,0.6,2.8c0.3,0.9,0.7,1.8,1.2,2.7c0.4,0.7,0.8,1.4,1.2,2.2c8.6,14.6,32.8,36.4,32.8,36.4l-0.1-0.5&#xD;&#xA;				c-0.1-0.6-0.2-1.9-0.5-5c0.6,0.9,1.2,1.7,1.9,2.4c3.6,3.8,9.5,7.5,15.1,10.4l0.2,0.1c4.5,2.3,9.1,4.4,13.8,6.3l0,0c0,0,0,0,0-0.1&#xD;&#xA;				s0-0.1,0-0.2c-0.1-0.8-0.4-3.3-0.5-6.4c0-0.4,0-0.7,0-1.1c0.9,2,2,4,3.4,5.7c3.3,4,7.5,7.2,12.4,9.2l0.2,0.1l0.8,0.4&#xD;&#xA;				c0.2,0.1,0.4,0.2,0.7,0.3l0.1,0C241.3,365.8,243,366.3,244.8,366.6z" />
			<path d="M171.7,294.3c0,0,1.4,15.4,5.1,21.6s10.4,12.4,10.4,12.4s30.9,26.8,44.8,35.3c-74.3-21.1-77.7-37.8-77.7-37.8l3.7-20.7&#xD;&#xA;				l12.2-9L171.7,294.3z" />
		</g>
	</g>
</g>
</svg>