<svg xmlns="http://www.w3.org/2000/svg" viewBox="0 0 432 432">
  <defs>
    <style>.BUNTAI_OWL_BODY_BUNTAI_OWL_BODY_37_cls-1{isolation:isolate;}.BUNTAI_OWL_BODY_BUNTAI_OWL_BODY_37_cls-2{fill:#c9ff51;}.BUNTAI_OWL_BODY_BUNTAI_OWL_BODY_37_cls-3{fill:#fff;}.BUNTAI_OWL_BODY_BUNTAI_OWL_BODY_37_cls-4{fill:#1f1b1a;}.BUNTAI_OWL_BODY_BUNTAI_OWL_BODY_37_cls-5{fill:#a87826;}.BUNTAI_OWL_BODY_BUNTAI_OWL_BODY_37_cls-6,.BUNTAI_OWL_BODY_BUNTAI_OWL_BODY_37_cls-7,.BUNTAI_OWL_BODY_BUNTAI_OWL_BODY_37_cls-8{fill:none;stroke:#000;stroke-linecap:round;stroke-linejoin:round;}.BUNTAI_OWL_BODY_BUNTAI_OWL_BODY_37_cls-6{stroke-width:1.86px;}.BUNTAI_OWL_BODY_BUNTAI_OWL_BODY_37_cls-7{stroke-width:2.31px;}.BUNTAI_OWL_BODY_BUNTAI_OWL_BODY_37_cls-8{stroke-width:1.57px;}.BUNTAI_OWL_BODY_BUNTAI_OWL_BODY_37_cls-9{opacity:0.22;mix-blend-mode:multiply;}</style>
  </defs>
  <g class="BUNTAI_OWL_BODY_BUNTAI_OWL_BODY_37_cls-1">
    <g id="body">
      <path class="BUNTAI_OWL_BODY_BUNTAI_OWL_BODY_37_cls-2" d="M208.26,196.54c-.8-.81-1.66-1.63-2.59-2.47h0a10.68,10.68,0,0,0-4.38,1.54h0a11.09,11.09,0,0,0-5,7A11.35,11.35,0,0,0,196,205a11,11,0,0,0,22,.84h0C215.46,203.54,212,200.37,208.26,196.54Z" />
      <path class="BUNTAI_OWL_BODY_BUNTAI_OWL_BODY_37_cls-2" d="M276.14,203.2c-.83-4.58-4-8.12-7.93-8.71-.79.85-1.52,1.69-2.19,2.51-3.2,3.89-6.08,7.1-8.26,9.42.35,5.78,4.38,10.34,9.28,10.34,5.14,0,9.31-5,9.31-11.18A13.25,13.25,0,0,0,276.14,203.2Z" />
      <circle cx="206.5" cy="205.62" r="5.68" />
      <circle class="BUNTAI_OWL_BODY_BUNTAI_OWL_BODY_37_cls-3" cx="211.05" cy="202.42" r="1.15" />
      <circle cx="265.83" cy="205.62" r="5.68" />
      <circle class="BUNTAI_OWL_BODY_BUNTAI_OWL_BODY_37_cls-3" cx="270.38" cy="202.42" r="1.15" />
      <path class="BUNTAI_OWL_BODY_BUNTAI_OWL_BODY_37_cls-4" d="M251.69,234.78c1.14,2.24,1,3.82-1.08,12.21A74.38,74.38,0,0,1,244,263.41s0-1.45-1.57-4.48-10.66-15.15-10-21.5c.48-4.4,5.82-6.89,9.06-8a6.72,6.72,0,0,1,6.36,1A14.85,14.85,0,0,1,251.69,234.78Z" />
      <path class="BUNTAI_OWL_BODY_BUNTAI_OWL_BODY_37_cls-5" d="M353.91,420c.82.62,1.66,1.24,2.48,1.87q-3.94-12.09-7.91-24.17c-.5-1.54-1-3.08-1.51-4.62l1.62.35c-1.89-3.48-3.76-7-5.64-10.43l2.74,2.51c-1.84-6.63-3.72-13.33-5.9-19.77-2.85-8.38-6.22-16.32-10.74-23.09a74.63,74.63,0,0,0-6.18-7.94c-2.05-2.34-4.19-4.56-6.33-6.77l-2.19-2.25c-1-1-2.12-2.18-3.31-3.51-.94-1.06-1.92-2.21-2.88-3.46a44.57,44.57,0,0,1-7.79-14.22q-.12-.37-.21-.75c-.36-.62-.71-1.24-1.06-1.87a108.59,108.59,0,0,1-5.71-11.61,61.28,61.28,0,0,1-2.59-7.6h0a45.55,45.55,0,0,1-1.68-14c.39-7.8,3.13-15.25,5.17-22.79s3.12-15.77.67-23.18c.93,1.28,1.87,2.23,2.8,3.52a99.11,99.11,0,0,0-5.4-31.87c1.6,1.2,3.18,2.18,4.78,3.38a66.77,66.77,0,0,0-5.56-12.2c-.19.07-.34.15-.49.22s-.3.13-.43.19l-.54.25-.3.15-.13.07h0l-.22.12s-.89,1.49-2.32,3.63a1,1,0,0,1,.13.16.45.45,0,0,1,.1.14c.2.24.39.49.58.74s.51.69.75,1.05c.07.11.15.22.22.34s.3.45.45.69l.31.52a34.08,34.08,0,0,1,3.46,7.92c.13.37.23.74.33,1.12,0,0,0,0,0,0,.08.29.14.58.22.87.16.66.3,1.32.41,2,.05.26.1.53.13.79,0,0,0,0,0,0a7.9,7.9,0,0,1,.12.83q.06.33.09.66c0,.33.07.66.1,1,0,.06,0,.12,0,.17,0,.37,0,.75.06,1.13a4.35,4.35,0,0,1,0,.51c0,.48,0,1,0,1.45a5,5,0,0,0-2.91-3,25.21,25.21,0,0,1,.68,11.11,57.39,57.39,0,0,1-2.85,10.72c-1.5,4.35-3.52,8.34-5.35,12.51a113.64,113.64,0,0,0-18.42-17.54,26.57,26.57,0,0,1,1.86,6,45.15,45.15,0,0,1-7.38-8,28.68,28.68,0,0,1-4.66-15.58h0l.7-.72.27-.28s0,0,0,0l.22-.23a.94.94,0,0,0,.1-.1l.59-.63.19-.2,0,0h0l.61-.65.2-.21c.64-.69,1.32-1.45,2.06-2.26l0,0c.67-.75,1.37-1.55,2.1-2.39a0,0,0,0,1,0,0c1-1.19,2.1-2.46,3.22-3.82.67-.82,1.4-1.66,2.19-2.51l0-.06c.54-.57,1.1-1.15,1.69-1.73l.93-.9,1-.9c.34-.3.69-.61,1.05-.91q1.05-.92,2.22-1.83a74.63,74.63,0,0,1,8.4-5.68c.56-.33,1.14-.66,1.73-1,.87-.49,1.77-1,2.7-1.45l.62-.32.73-.35,1.37-.66,1.41-.66,1.45-.65,1.5-.64c.51-.22,1-.43,1.54-.63.8-.33,1.61-.65,2.45-1l1.17-.43c.41-.16.83-.31,1.25-.45h0c.45-.17.89-.33,1.37-.49l2.16-.72,1.85-.58.94-.29,1-.29c-1.57.21-3,.43-4.4.65l-.95.15-.34.06-1,.17-.22,0-.65.12c-.76.13-1.47.27-2.12.4l-1,.21-.29.06-1.1.24-.2,0-.09,0-.1,0h0l-.7.15-.07,0-.64.15-1.49.37h0c.12,0,.28-.11.5-.21l.48-.21.44-.19c.31-.15.68-.32,1.09-.53l.38-.19.82-.42,0,0,.76-.41c.5-.28,1.06-.59,1.66-.94s1.06-.63,1.63-1c.28-.16.54-.33.82-.5,1.32-.83,2.77-1.79,4.36-2.91l.05,0,0,0,.31-.23.86-.61,1.67-1.24,1-.78,1-.78c2.52-2,5.29-4.25,8.27-6.91,6.15-5.48,12.05-10.91,17.32-16.17a190.55,190.55,0,0,0,6.85-18v0c6.26-9.88,11.1-21.64,14.91-33.88-9.93,21.29-22.55,31.58-30.51,39.15s-20,18.65-20.38,19a25.16,25.16,0,0,0,1.77-4.61c-8,9.45-18.73,18.7-25.35,24.09a8.83,8.83,0,0,1-.81-.68c-1.44-1.3-2.67-2.82-4-4.22a34.08,34.08,0,0,0-8.6-6.64l2.66-.43a101,101,0,0,0-13.95-8.73c-.94-.47-1-1-.36-1.92-5.76.54-9.28-1.81-15.08-1.81,0,0-7.11-.46-10.25-.7l-1-.09c-.56-.06-1-.13-1.46-.2l-.39-.07a12.4,12.4,0,0,1-1.45-.34l-.17,0-.17-.05.86,1,.41.49a77.94,77.94,0,0,0-9.77-.39h0a53.43,53.43,0,0,0-5.59.39l-2.32.29h-.1l-3.19.37-1.36.16-3.51.4-1.3.14-4.15.45-1.12.12-.27,0-.47.05-.4,0-.35,0-.44.05-.18,0h-.14l-.2,0h-.07l2.08.74,1.53.55L197,146l-.49.17-1.09.38-1,.34-2.16.78-.11,0c-1.15.42-2.33.86-3.42,1.28l-1.18.47-.56.22-1,.43-.7.31,0,0-.13.06c-.39.18-.72.35-1,.49l1.29.29.8.17-.56.39-.16.11a52,52,0,0,0-7.39,6.35c-.35.36-.69.72-1,1.1a190.59,190.59,0,0,1-20.34-16.92,23.81,23.81,0,0,0,2.08,4.53c-.45-.34-14.82-11.41-24.1-18.74-9.44-7.46-24.35-17.6-36.12-38.57,4.51,12.06,10.25,23.64,17.65,33.38a0,0,0,0,0,0,0,166.4,166.4,0,0,0,8.1,17.78c6.22,5.18,13.21,10.53,20.5,15.93l1.75,1.28,1.64,1.18c1.28.91,2.53,1.77,3.73,2.58.89.61,1.76,1.18,2.6,1.73.43.28.85.55,1.27.8l.06,0c.48.32,1,.61,1.41.89l1.07.66c.69.44,1.39.85,2,1.23,1,.58,2,1.13,2.87,1.64.61.34,1.2.67,1.77,1,.73.39,1.43.75,2.1,1.09s1.3.65,1.89.93l.87.41c1.18.55,2.2,1,3.05,1.34h0l.79.32.67.26c.75.28,1.26.45,1.52.53l0,0-.11,0-.15,0-.18,0-.28-.06c-.82-.18-2.17-.45-4-.78h0c-.77-.14-1.62-.28-2.55-.43l-1.13-.18c-2-.32-4.25-.64-6.8-1l-.64-.08c-.8-.1-1.63-.2-2.49-.29l2.38.6c1.45.37,2.85.75,4.22,1.14l.2.06c.73.2,1.44.41,2.14.62l.18.05.23.07.13,0,.36.11L169,175l1,.33c.58.17,1.16.36,1.73.55l1.13.38,1.29.45c3.87,1.35,7.38,2.77,10.58,4.22l1.67.77,1.61.78c1,.52,2.07,1.05,3,1.58,1.32.7,2.58,1.42,3.77,2.14a75.62,75.62,0,0,1,7.77,5.34l.32.24.16.13h0q.91.72,1.74,1.44c.26.23.55.47.81.71h0l.28.26c.83.75,1.59,1.48,2.31,2.21,3.78,3.83,7.2,7,9.77,9.28h0l2.49,2.16h0A25.17,25.17,0,0,1,215,223.35a49.41,49.41,0,0,1-8.73,7.84,22.83,22.83,0,0,1,2.2-6,127.24,127.24,0,0,0-21.8,17.28c-2.16-4.11-4.56-8-6.34-12.33A49.92,49.92,0,0,1,177,219.62a20.85,20.85,0,0,1,.81-10.94,5.49,5.49,0,0,0-3.45,3v-.14q0-.69,0-1.38c0-.37,0-.73.08-1.08s0-.47.07-.71c0-.42.1-.84.16-1.26a.06.06,0,0,1,0,0c.06-.43.14-.86.23-1.28,0-.17.06-.33.1-.49.06-.32.14-.63.22-.94a9.05,9.05,0,0,1,.25-.93c.13-.49.28-1,.44-1.46.1-.32.21-.63.33-.94s.22-.59.34-.88c.21-.53.44-1,.68-1.56.13-.29.27-.57.42-.86a1.24,1.24,0,0,1,.1-.2c.13-.26.27-.52.41-.78a30.76,30.76,0,0,1,2-3.18q.2-.28.42-.57c.24-.34.5-.67.75-1s.59-.7.89-1,.58-.64.88-1l.14-.15-.31-.39-.52-.65c-.68-.87-1.21-1.57-1.53-2a.72.72,0,0,1-.11-.15l-.17-.23-.06-.07,0,0s0,0,0,0h0a49.13,49.13,0,0,0-5.23-1.89l-.59-.18-.24-.07-.69-.2c-.47-.14-1-.28-1.48-.41l-.8-.21L170,183l-.77-.18-2.46-.54-.87-.17-.82-.16h0l-.08,0h0l-.55-.1c-.32.47-.64.95-.93,1.43a1,1,0,0,0-.13.18l-.54.88s0,0,0,0c-.15.22-.28.44-.41.67a.1.1,0,0,0,0,.07c-.25.41-.5.82-.72,1.24a.43.43,0,0,0,0,.07c-.32.55-.62,1.11-.93,1.68-.11.21-.23.43-.33.65-.25.48-.5,1-.73,1.45,0,0,0,0,0,0a3.88,3.88,0,0,0-.22.46c-.28.54-.53,1.09-.76,1.65a1.48,1.48,0,0,0-.12.29c-.15.3-.28.61-.4.92s-.25.59-.36.88a.47.47,0,0,0-.06.15s0,0,0,0c-.17.39-.32.78-.46,1.17-.25.64-.48,1.29-.7,1.94l-.06.17.7-.51h0l.06,0c.32-.23.63-.45,1-.67,1-.71,2-1.38,3-2.15a99.38,99.38,0,0,0-5.4,31.87l0,0,0,0c.09-.14.19-.27.28-.4s.41-.52.61-.77.62-.73.92-1.1l.31-.38c.21-.26.41-.52.62-.8q-.17.5-.3,1a3.18,3.18,0,0,0-.09.33.08.08,0,0,0,0,0s0,.05,0,.08q-.12.42-.21.84c-.09.38-.17.77-.25,1.16s-.14.78-.19,1.17-.1.75-.14,1.12a.77.77,0,0,0,0,.15c0,.36-.07.72-.09,1.09-.06.81-.09,1.63-.08,2.46v.46c0,.11,0,.22,0,.33,0,.58,0,1.16.08,1.75l.06.87c.1,1.17.23,2.33.44,3.48,0,.29.09.58.14.87.09.5.19,1,.29,1.51s.21,1,.32,1.5c0,.14.07.29.1.43.08.36.17.71.26,1.06.12.5.25,1,.38,1.48.71,2.62,1.5,5.24,2.25,7.86a0,0,0,0,1,0,0c.56,2,1.1,3.93,1.54,5.92a2,2,0,0,1,.09.33c.22.95.41,1.9.58,2.86.07.37.13.74.19,1.11,0,.19.05.38.08.57.06.4.12.8.16,1.2a11.4,11.4,0,0,1,.12,1.16.49.49,0,0,1,0,.12c0,.17,0,.34,0,.51l0,.33a1.09,1.09,0,0,1,0,.18c0,.2,0,.41,0,.61a42.32,42.32,0,0,1-.27,7c-.06.47-.12.93-.2,1.39s-.19,1.16-.3,1.73c0,.23-.09.46-.14.69a1.18,1.18,0,0,1,0,.2c0,.05,0,.09,0,.13-.34,1.59-.76,3.16-1.24,4.71-.07.24-.14.49-.22.73q-.28.9-.6,1.77c-.17.48-.34,1-.53,1.44s-.45,1.18-.69,1.76c-.53,1.29-1.1,2.57-1.69,3.84-.23.49-.47,1-.71,1.47s-.48,1-.73,1.46-.55,1.09-.84,1.63-.59,1.11-.89,1.66c-.5.92-1,1.83-1.53,2.74l-.09.24v0c-.1.25-.18.5-.28.75-.19.52-.42,1-.66,1.53-.12.25-.24.51-.37.76l-.4.74c-.44.81-.93,1.61-1.46,2.39-.25.38-.52.76-.79,1.14h0c-.32.43-.64.86-1,1.28-.77,1-1.58,1.94-2.43,2.87s-1.65,1.75-2.51,2.58c-.18.19-.37.37-.56.55l0,0a95.35,95.35,0,0,1-9.43,7.71h0l-.24.18L131,327.79l-.26.19c-1.38,1-2.77,2-4.14,3.1a101.82,101.82,0,0,0-13.26,11.61,76.21,76.21,0,0,0-9.15,12.24c-5.8,9.52-10,20.16-14,30.62l.71-.47h0L94,383l-1.29,1.72-.9,1.2-5.65,7.51.94-.15,1.31-.2c-.18.4-.36.8-.55,1.2L76,420.44l-.67,1.47,2.24-1.21,1.23-.66-.44.79-9.49,16.92q-2.51,4.44-5,8.9h0l-.19.35H135c.31-1.32.59-2.64.86-4,0,1.32,0,2.64,0,4h46.93c-.18-.73-.36-1.48-.51-2.36.78.8,1.58,1.59,2.39,2.36H289.53c.5-.77,1-1.56,1.47-2.36-.11.88-.2,1.63-.32,2.36h74.09Q359.33,433.52,353.91,420Zm-106-189.61a14.85,14.85,0,0,1,3.77,4.35c1.14,2.24,1,3.82-1.08,12.21A74.38,74.38,0,0,1,244,263.41a7.44,7.44,0,0,0-.58-2.29c-.11-.3-.25-.63-.42-1,0-.13-.11-.25-.17-.38s-.25-.52-.4-.81-.38-.69-.67-1.15l-.36-.58c-.52-.82-1.16-1.8-1.86-2.91a.86.86,0,0,1-.1-.16,63.91,63.91,0,0,1-6-11.22q-.18-.47-.33-.93c-.09-.3-.18-.61-.26-.9a11.9,11.9,0,0,1-.35-1.65.19.19,0,0,1,0-.08.22.22,0,0,1,0-.08s0,0,0,0a5,5,0,0,1-.06-.54,7.73,7.73,0,0,1,0-1.28c.48-4.4,5.82-6.89,9.06-8A6.72,6.72,0,0,1,247.93,230.43Z" />
      <path class="BUNTAI_OWL_BODY_BUNTAI_OWL_BODY_37_cls-3" d="M341.12,136.18h0c-1.35,1.42-2.76,2.86-4.21,4.31-5.27,5.26-11.17,10.69-17.32,16.17-3,2.66-5.75,4.94-8.27,6.91l-1,.78-1,.78c-.57.43-1.13.85-1.67,1.24l-.86.61-.31.23,0,0-.05,0c-1.59,1.12-3,2.08-4.36,2.91-.28.17-.54.34-.82.5-.57.36-1.11.69-1.63,1l-1.66.94-.76.41,0,0-.82.42-.38.19c-.41.21-.78.38-1.09.53l-.44.19-.48.21c-.22.1-.38.17-.5.21h0l1.49-.37.64-.15.07,0,.7-.15h0l.19,0,.2-.05,1.1-.24.29-.06,1-.21c.65-.13,1.36-.27,2.12-.4l.65-.12.22,0,1-.17.34-.06.95-.15c1.36-.22,2.83-.44,4.4-.65l-1,.29-.94.29-1.85.58-2.16.72c-.48.16-.92.32-1.37.49h0c-.42.14-.84.29-1.25.45l-1.17.43c-.84.31-1.65.63-2.45,1l-1.54.63-1.5.64-1.45.65-1.41.66-1.37.66-.73.35-.62.32c-.93.48-1.83,1-2.7,1.45-.59.32-1.16.65-1.73,1a74.63,74.63,0,0,0-8.4,5.68q-1.17.92-2.22,1.83c-.36.3-.71.61-1.05.91l-1,.9-.93.9c-.59.58-1.15,1.16-1.69,1.73l0,.06a7.37,7.37,0,0,1,1.42.35c.23.08.47.18.7.28a3.84,3.84,0,0,1,.53.28,8.78,8.78,0,0,1,2.38,1.85,3.17,3.17,0,0,1,.3.34,9.35,9.35,0,0,1,.71.92c.09.13.18.28.27.42a7.69,7.69,0,0,1,.39.69,5.23,5.23,0,0,1,.29.58,11.13,11.13,0,0,1,.52,1.33c.07.23.14.46.2.7a2.68,2.68,0,0,1,.07.27,3,3,0,0,1,.09.41v0h0c0,.08,0,.17,0,.25a12.4,12.4,0,0,1,.22,2.38c0,6.17-4.17,11.18-9.31,11.18l-.49,0h-.15a3.86,3.86,0,0,1-.49-.06h-.08l-.14,0-.49-.1-.07,0-.4-.11-.23-.08h0s0,0,0,0h0s0,0,0,0l-.07,0-.15-.06a.39.39,0,0,1-.13-.05l-.09,0a7.15,7.15,0,0,1-.84-.4l-.5-.3a8.81,8.81,0,0,1-.94-.7,8.05,8.05,0,0,1-.68-.63l-.08-.09-.24-.25-.23-.27-.08-.09a10.68,10.68,0,0,1-.63-.87.61.61,0,0,1-.07-.1c-.11-.17-.22-.34-.32-.52l0-.07,0,0c-.11-.2-.21-.4-.31-.6a1,1,0,0,1-.07-.15c-.07-.13-.12-.25-.18-.39s-.18-.44-.26-.67a1.59,1.59,0,0,1-.07-.2.53.53,0,0,1-.07-.2c0-.11-.06-.22-.1-.33s-.09-.31-.12-.47-.1-.38-.13-.57-.1-.5-.14-.76,0-.29-.05-.44,0-.41-.05-.61l-.19.2-.59.63a.94.94,0,0,1-.1.1l-.21.23,0,0-.27.28-.7.72h0a28.68,28.68,0,0,0,4.66,15.58,45.15,45.15,0,0,0,7.38,8,26.57,26.57,0,0,0-1.86-6,113.64,113.64,0,0,1,18.42,17.54c1.83-4.17,3.85-8.16,5.35-12.51a57.39,57.39,0,0,0,2.85-10.72,25.21,25.21,0,0,0-.68-11.11,5,5,0,0,1,2.91,3c0-.48,0-1,0-1.45a4.35,4.35,0,0,0,0-.51c0-.38,0-.75-.06-1.13,0-.05,0-.11,0-.17,0-.33-.06-.66-.1-1s0-.44-.09-.66-.07-.56-.12-.83c0,0,0,0,0,0,0-.26-.08-.53-.13-.79-.11-.68-.25-1.34-.41-2-.08-.29-.14-.58-.22-.87,0,0,0,0,0,0-.1-.38-.2-.75-.33-1.12a34.08,34.08,0,0,0-3.46-7.92l-.31-.52c-.15-.24-.29-.46-.45-.69s-.15-.23-.22-.34q-.36-.54-.75-1.05c-.18-.25-.37-.5-.58-.74a.45.45,0,0,0-.1-.14,1,1,0,0,0-.13-.16c1.43-2.14,2.32-3.63,2.32-3.63l.22-.12h0l.13-.07.3-.15.54-.25c.13-.06.27-.13.43-.19s.3-.15.49-.22A62.11,62.11,0,0,1,303.25,182c8.72-1.86,22.31-9.91,22.73-10.16-.41.12-9.28,2.94-15,2.94h0c17.93-6.74,27.88-20.83,36.22-38.13h0c3.2-6.64,6.16-13.75,9.25-21.1C353.69,121.73,348.17,128.74,341.12,136.18Zm-75.31,89.93s0,0,0,0l0,0Z" />
      <path class="BUNTAI_OWL_BODY_BUNTAI_OWL_BODY_37_cls-3" d="M218,206a11,11,0,0,1-22-1,11.67,11.67,0,0,1,.24-2.31.06.06,0,0,1,0,0,11.09,11.09,0,0,1,5-7h0a10.68,10.68,0,0,1,4.38-1.54c-8.47-7.58-22.78-16-48-22.23a180,180,0,0,1,18.44,2.89c-1-.31-12.38-3.93-31.25-17.92-7.29-5.4-14.27-10.75-20.5-15.93-1.72-1.43-3.39-2.85-5-4.25-8.35-7.33-14.88-14.24-18.22-20.36,3.66,7.23,7.16,14.24,11,20.78C122,154.09,133.8,168,155,174.64c-6.61,0-16.89-2.7-17.66-2.9,1,.48,16.71,8.2,26.86,10l.2,0c10.36,1.86,16.11,4.51,16.11,4.51s1.05,1.47,2.74,3.57a31.53,31.53,0,0,0-8.94,21.81,5.51,5.51,0,0,1,3.45-3,20.85,20.85,0,0,0-.81,10.94,49.92,49.92,0,0,0,3.36,10.56c1.79,4.29,4.18,8.22,6.34,12.33a127.24,127.24,0,0,1,21.8-17.28,22.83,22.83,0,0,0-2.2,6,49.41,49.41,0,0,0,8.73-7.84A25.17,25.17,0,0,0,220.52,208h0L218,205.83S218,205.88,218,206Z" />
      <path class="BUNTAI_OWL_BODY_BUNTAI_OWL_BODY_37_cls-6" d="M177.11,159.4a51.89,51.89,0,0,1,9.13-8l-2.09-.46c2.56-1.52,14.91-5.71,14.91-5.71L195.45,144s12.23-1.28,19.57-2.21a74.15,74.15,0,0,1,15.38,0l-1.28-1.51a18,18,0,0,0,4.66.81c3.14.24,10.25.7,10.25.7,5.8,0,9.32,2.35,15.09,1.81-.63.95-.59,1.45.35,1.92a101,101,0,0,1,13.95,8.73l-2.66.43a34.08,34.08,0,0,1,8.6,6.64c1.35,1.4,2.58,2.92,4,4.22a10.41,10.41,0,0,0,.81.68" />
      <path class="BUNTAI_OWL_BODY_BUNTAI_OWL_BODY_37_cls-6" d="M153.82,303.11c.52-.91,1-1.82,1.53-2.74a99,99,0,0,0,4.86-10.06,57.33,57.33,0,0,0,4-14.55,42.32,42.32,0,0,0,.27-7c-.37-7.8-3.12-15.25-5.15-22.79s-3.13-15.77-.67-23.18c-.94,1.28-1.88,2.23-2.81,3.52a99.38,99.38,0,0,1,5.4-31.87c-1.59,1.2-3.17,2.18-4.77,3.38a66.67,66.67,0,0,1,8-16" />
      <path class="BUNTAI_OWL_BODY_BUNTAI_OWL_BODY_37_cls-6" d="M290.79,282.7a45.24,45.24,0,0,1-1.67-14c.38-7.8,3.12-15.25,5.16-22.79s3.12-15.77.67-23.18c.93,1.28,1.87,2.23,2.8,3.52a99.11,99.11,0,0,0-5.4-31.87c1.6,1.2,3.18,2.18,4.78,3.38a66.77,66.77,0,0,0-5.56-12.2" />
      <path class="BUNTAI_OWL_BODY_BUNTAI_OWL_BODY_37_cls-6" d="M300.15,303.79c-.36-.62-.71-1.24-1.06-1.87a108.59,108.59,0,0,1-5.71-11.61,63,63,0,0,1-2.59-7.6" />
      <path class="BUNTAI_OWL_BODY_BUNTAI_OWL_BODY_37_cls-6" d="M116.29,123.1a79.4,79.4,0,0,0,10.21,11.17C139.09,145.54,143.28,148,143.28,148" />
      <path class="BUNTAI_OWL_BODY_BUNTAI_OWL_BODY_37_cls-6" d="M158.86,147h0c-.45-.34-14.82-11.41-24.1-18.74-9.44-7.46-24.35-17.6-36.12-38.57,4.51,12.06,10.25,23.64,17.65,33.38" />
      <path class="BUNTAI_OWL_BODY_BUNTAI_OWL_BODY_37_cls-6" d="M193.93,170.91s-7.58-4.72-16.82-11.51a190.59,190.59,0,0,1-20.34-16.92,23.81,23.81,0,0,0,2.08,4.53" />
      <path class="BUNTAI_OWL_BODY_BUNTAI_OWL_BODY_37_cls-6" d="M116.28,123.08a0,0,0,0,0,0,0,166.4,166.4,0,0,0,8.1,17.78" />
      <path class="BUNTAI_OWL_BODY_BUNTAI_OWL_BODY_37_cls-6" d="M196.28,202.64c-4.78-3-9.95-9-13-12.78-1.69-2.1-2.74-3.57-2.74-3.57s-5.75-2.65-16.11-4.51l-.2,0c-10.15-1.8-25.89-9.52-26.86-10" />
      <path class="BUNTAI_OWL_BODY_BUNTAI_OWL_BODY_37_cls-6" d="M137.31,171.72h.05c.77.2,11,2.9,17.66,2.9-21.22-6.66-33-20.55-42.88-37.59-3.79-6.54-7.29-13.55-11-20.78,3.34,6.12,9.87,13,18.22,20.36,1.59,1.4,3.26,2.82,5,4.25,6.23,5.18,13.21,10.53,20.5,15.93,18.87,14,30.23,17.61,31.25,17.92" />
      <path class="BUNTAI_OWL_BODY_BUNTAI_OWL_BODY_37_cls-6" d="M220.52,208c1.39,1.18,2.19,1.82,2.19,1.82l4,4.42" />
      <path class="BUNTAI_OWL_BODY_BUNTAI_OWL_BODY_37_cls-6" d="M218,205.83l2.49,2.16" />
      <path class="BUNTAI_OWL_BODY_BUNTAI_OWL_BODY_37_cls-6" d="M205.67,194.07c.93.84,1.79,1.66,2.59,2.47,3.78,3.83,7.2,7,9.77,9.28" />
      <path class="BUNTAI_OWL_BODY_BUNTAI_OWL_BODY_37_cls-6" d="M176.22,174.75h-.08a180,180,0,0,0-18.44-2.89c25.18,6.19,39.49,14.65,48,22.23" />
      <path class="BUNTAI_OWL_BODY_BUNTAI_OWL_BODY_37_cls-6" d="M127.1,149.26c-4.48-3.41-9.49-7.45-14.95-12.21" />
      <path class="BUNTAI_OWL_BODY_BUNTAI_OWL_BODY_37_cls-6" d="M128,150a2.07,2.07,0,0,1-.25-.19" />
      <path class="BUNTAI_OWL_BODY_BUNTAI_OWL_BODY_37_cls-6" d="M128.91,150.62l-.69-.51" />
      <path class="BUNTAI_OWL_BODY_BUNTAI_OWL_BODY_37_cls-6" d="M129.85,151.32c-.22-.15-.44-.32-.66-.49" />
      <path class="BUNTAI_OWL_BODY_BUNTAI_OWL_BODY_37_cls-6" d="M153,165.9S146,162.84,133.49,154h0l-2.58-1.85" />
      <path class="BUNTAI_OWL_BODY_BUNTAI_OWL_BODY_37_cls-6" d="M208.47,225.23a127.24,127.24,0,0,0-21.8,17.28c-2.16-4.11-4.55-8-6.34-12.33A49.92,49.92,0,0,1,177,219.62a20.85,20.85,0,0,1,.81-10.94,5.51,5.51,0,0,0-3.45,3,31.53,31.53,0,0,1,8.94-21.81" />
      <path class="BUNTAI_OWL_BODY_BUNTAI_OWL_BODY_37_cls-6" d="M208.49,225.21h0" />
      <path class="BUNTAI_OWL_BODY_BUNTAI_OWL_BODY_37_cls-6" d="M208.51,225.21s0,0,0,0S208.53,225.22,208.51,225.21Z" />
      <path class="BUNTAI_OWL_BODY_BUNTAI_OWL_BODY_37_cls-6" d="M208.51,225.21h0" />
      <path class="BUNTAI_OWL_BODY_BUNTAI_OWL_BODY_37_cls-6" d="M208.47,225.22s0,0,0,0" />
      <line class="BUNTAI_OWL_BODY_BUNTAI_OWL_BODY_37_cls-6" x1="208.47" y1="225.22" x2="208.47" y2="225.23" />
      <path class="BUNTAI_OWL_BODY_BUNTAI_OWL_BODY_37_cls-6" d="M220.52,208h0A25.17,25.17,0,0,1,215,223.35a49.41,49.41,0,0,1-8.73,7.84,22.83,22.83,0,0,1,2.2-6" />
      <line class="BUNTAI_OWL_BODY_BUNTAI_OWL_BODY_37_cls-6" x1="218.03" y1="205.83" x2="218.03" y2="205.82" />
      <path class="BUNTAI_OWL_BODY_BUNTAI_OWL_BODY_37_cls-6" d="M196.27,202.68A11.67,11.67,0,0,0,196,205a11,11,0,0,0,22,1" />
      <path class="BUNTAI_OWL_BODY_BUNTAI_OWL_BODY_37_cls-6" d="M201.27,195.61a11.09,11.09,0,0,0-5,7" />
      <path class="BUNTAI_OWL_BODY_BUNTAI_OWL_BODY_37_cls-6" d="M205.67,194.07h0a10.68,10.68,0,0,0-4.38,1.54" />
      <path class="BUNTAI_OWL_BODY_BUNTAI_OWL_BODY_37_cls-6" d="M155,174.64s-18.18-13-24.12-22.53c0,0,0,0,0,0l-.67-.49-.37-.28-.66-.49-.28-.21-.69-.51L128,150l-.25-.19-.67-.5,0,0c-.46-.4-7.75-6.92-7.69-12.63" />
      <path class="BUNTAI_OWL_BODY_BUNTAI_OWL_BODY_37_cls-6" d="M185,186.78s7.9,7.68,16.31,8.83h0" />
      <path class="BUNTAI_OWL_BODY_BUNTAI_OWL_BODY_37_cls-6" d="M307.76,146.74h0c.41-.38,12.54-11.6,20.38-19s20.58-17.86,30.52-39.15c-3.82,12.24-8.66,24-14.92,33.88a77.14,77.14,0,0,1-8.64,11.36c-10.63,11.44-14.18,13.92-14.18,13.92" />
      <path class="BUNTAI_OWL_BODY_BUNTAI_OWL_BODY_37_cls-6" d="M278.13,171s2.4-1.8,6.06-4.77c6.62-5.39,17.35-14.64,25.35-24.09a25.16,25.16,0,0,1-1.77,4.61" />
      <path class="BUNTAI_OWL_BODY_BUNTAI_OWL_BODY_37_cls-6" d="M336.9,140.5a190.55,190.55,0,0,0,6.85-18v0" />
      <path class="BUNTAI_OWL_BODY_BUNTAI_OWL_BODY_37_cls-6" d="M329.22,153.78h0" />
      <path class="BUNTAI_OWL_BODY_BUNTAI_OWL_BODY_37_cls-6" d="M276.14,203.2l.15-.12c4-3.13,8.28-9,10.85-12.86,1.42-2.14,2.31-3.63,2.31-3.63s.72-.4,2.12-1A62.11,62.11,0,0,1,303.24,182c8.72-1.86,22.31-9.91,22.73-10.16" />
      <path class="BUNTAI_OWL_BODY_BUNTAI_OWL_BODY_37_cls-6" d="M341.11,136.19c-1.35,1.42-2.76,2.86-4.21,4.31-5.27,5.26-11.17,10.69-17.32,16.17-3,2.66-5.75,4.94-8.27,6.91l-1,.78c-10,7.66-16.06,10.09-17.06,10.48" />
      <path class="BUNTAI_OWL_BODY_BUNTAI_OWL_BODY_37_cls-6" d="M347.25,136.61c3.2-6.64,6.17-13.75,9.25-21.1-2.82,6.22-8.33,13.23-15.39,20.67" />
      <path class="BUNTAI_OWL_BODY_BUNTAI_OWL_BODY_37_cls-6" d="M311,174.75C329,168,338.9,153.92,347.24,136.62" />
      <path class="BUNTAI_OWL_BODY_BUNTAI_OWL_BODY_37_cls-6" d="M326,171.81h0c-.41.12-9.28,2.94-15,2.94" />
      <path class="BUNTAI_OWL_BODY_BUNTAI_OWL_BODY_37_cls-6" d="M255.66,208.63c-1.18,1.2-1.85,1.85-1.85,1.85l-2.68,3.76" />
      <path class="BUNTAI_OWL_BODY_BUNTAI_OWL_BODY_37_cls-6" d="M257.8,206.38s0,0,0,0c-.8.86-1.51,1.6-2.1,2.2" />
      <path class="BUNTAI_OWL_BODY_BUNTAI_OWL_BODY_37_cls-6" d="M293.09,174.88h.07l.08,0a129.49,129.49,0,0,1,15.51-2.91A119.57,119.57,0,0,0,288,180.05a70.15,70.15,0,0,0-19.75,14.44c-.79.85-1.52,1.69-2.19,2.51-3.18,3.86-6,7.06-8.22,9.37" />
      <path class="BUNTAI_OWL_BODY_BUNTAI_OWL_BODY_37_cls-6" d="M334.61,149c3.79-3.46,8-7.56,12.63-12.38h0" />
      <path class="BUNTAI_OWL_BODY_BUNTAI_OWL_BODY_37_cls-6" d="M312.69,165.89l.6-.33c1.9-1.1,8.25-5,18.12-13.68" />
      <path class="BUNTAI_OWL_BODY_BUNTAI_OWL_BODY_37_cls-6" d="M265.84,226.12a26.57,26.57,0,0,1,1.86,6,45.15,45.15,0,0,1-7.38-8,28.77,28.77,0,0,1-4.66-15.58h0" />
      <path class="BUNTAI_OWL_BODY_BUNTAI_OWL_BODY_37_cls-6" d="M265.82,226.1s0,0,0,0" />
      <path class="BUNTAI_OWL_BODY_BUNTAI_OWL_BODY_37_cls-6" d="M265.82,226.1h0s0,0,0,0Z" />
      <path class="BUNTAI_OWL_BODY_BUNTAI_OWL_BODY_37_cls-6" d="M265.84,226.11h0" />
      <line class="BUNTAI_OWL_BODY_BUNTAI_OWL_BODY_37_cls-6" x1="265.84" y1="226.11" x2="265.84" y2="226.12" />
      <path class="BUNTAI_OWL_BODY_BUNTAI_OWL_BODY_37_cls-6" d="M287.14,190.22a35.57,35.57,0,0,1,7.55,22.14,5,5,0,0,0-2.91-3,25.21,25.21,0,0,1,.68,11.11,58.15,58.15,0,0,1-2.84,10.72c-1.51,4.35-3.53,8.34-5.36,12.51a113.64,113.64,0,0,0-18.42-17.54" />
      <path class="BUNTAI_OWL_BODY_BUNTAI_OWL_BODY_37_cls-6" d="M259.31,211.81a12.58,12.58,0,0,1-1.55-5.39" />
      <path class="BUNTAI_OWL_BODY_BUNTAI_OWL_BODY_37_cls-6" d="M268.21,194.49c3.93.59,7.1,4.13,7.93,8.71a13.25,13.25,0,0,1,.21,2.38c0,6.17-4.17,11.18-9.31,11.18a9,9,0,0,1-7.68-4.85" />
      <path class="BUNTAI_OWL_BODY_BUNTAI_OWL_BODY_37_cls-6" d="M311,174.76h0c.47-.4,15.46-13.38,20.39-22.87l.5-.45.55-.49c.3-.28.57-.51.79-.71l1.34-1.21,0,0c.38-.41,6.54-7,6.5-12.81h0" />
      <path class="BUNTAI_OWL_BODY_BUNTAI_OWL_BODY_37_cls-6" d="M285.71,187.09s-6.69,7.81-13.79,9" />
      <path class="BUNTAI_OWL_BODY_BUNTAI_OWL_BODY_37_cls-6" d="M247.92,230.43a6.72,6.72,0,0,0-6.36-1c-3.24,1.12-8.58,3.61-9.06,8-.7,6.35,8.38,18.47,10,21.5s1.57,4.48,1.57,4.48A74.38,74.38,0,0,0,250.61,247c2-8.39,2.22-10,1.08-12.21A14.85,14.85,0,0,0,247.92,230.43Z" />
      <path class="BUNTAI_OWL_BODY_BUNTAI_OWL_BODY_37_cls-6" d="M244.09,280.57l0-.05a39.1,39.1,0,0,0-12.89-11.88c-2.47-1.4-5.16-2.59-7-4.72a8.68,8.68,0,0,0,4,5.88c-5.09-.69-9.94-3.1-14.6-5.25s-9.74-4-14.83-3.34a9.54,9.54,0,0,0,5.11,4.29c-7.37.67-14.8-2.07-21.25-5.68a172.51,172.51,0,0,1-17.15-11.48" />
      <path class="BUNTAI_OWL_BODY_BUNTAI_OWL_BODY_37_cls-6" d="M244,280.57l0-.05a34.65,34.65,0,0,1,7.17-11.88c1.37-1.4,2.87-2.59,3.92-4.72a10.44,10.44,0,0,1-2.24,5.88c2.83-.69,5.52-3.1,8.11-5.26s5.42-4,8.25-3.33a7.8,7.8,0,0,1-2.84,4.29c4.1.67,8.23-2.07,11.82-5.68a117.29,117.29,0,0,0,9.53-11.48" />
      <path class="BUNTAI_OWL_BODY_BUNTAI_OWL_BODY_37_cls-6" d="M164.19,275.76a28.16,28.16,0,0,0,9.6,12.23c0-1.72,0-3,0-4.71A38,38,0,0,0,199,300.78c-.24-1.35-.54-2.24-.77-3.59a60.54,60.54,0,0,0,26.81,16.35c-.37-2.39-.52-4.27-.89-6.66A30.68,30.68,0,0,0,244,321.66" />
      <path class="BUNTAI_OWL_BODY_BUNTAI_OWL_BODY_37_cls-6" d="M244.09,321.66c5-1.77,9.59-7.27,12.23-14.78-.24,2.39-.32,4.27-.56,6.66,6.22-2.91,12-8.61,16.53-16.35-.14,1.35-.33,2.24-.48,3.59,6.32-1.83,12.11-8.35,15.57-17.5,0,1.71,0,3,0,4.71a24.39,24.39,0,0,0,3.42-5.28h0" />
      <path class="BUNTAI_OWL_BODY_BUNTAI_OWL_BODY_37_cls-6" d="M155.35,300.37a31.22,31.22,0,0,0,7.1,6.86c0-2,0-3.44,0-5.41a44.55,44.55,0,0,0,29.6,20.1c-.27-1.55-.63-2.57-.9-4.13a71,71,0,0,0,31.41,18.78c-.44-2.74-.61-4.9-1.05-7.65a35.91,35.91,0,0,0,23.24,17" />
      <path class="BUNTAI_OWL_BODY_BUNTAI_OWL_BODY_37_cls-6" d="M244.79,345.9c5.91-2,11.24-8.35,14.33-17-.28,2.75-.38,4.91-.65,7.65,7.28-3.34,14-9.88,19.36-18.78-.17,1.56-.39,2.58-.56,4.13,7.4-2.11,14.19-9.59,18.24-20.1,0,2,0,3.44,0,5.41a26.56,26.56,0,0,0,3.6-5.31" />
      <path class="BUNTAI_OWL_BODY_BUNTAI_OWL_BODY_37_cls-6" d="M126.63,331.08c8.11,14.9,28.72,26.17,28.72,26.17v-3.93a31.22,31.22,0,0,0,7.1,6.86c0-2,0-3.44,0-5.41a44.55,44.55,0,0,0,29.6,20.1c-.27-1.55-.63-2.57-.9-4.13a71,71,0,0,0,31.41,18.78c-.44-2.74-.61-4.9-1.05-7.65a35.91,35.91,0,0,0,23.24,17" />
      <path class="BUNTAI_OWL_BODY_BUNTAI_OWL_BODY_37_cls-6" d="M244.79,398.85c5.91-2,11.24-8.35,14.33-17-.28,2.75-.38,4.91-.65,7.65,7.28-3.34,14-9.88,19.36-18.78-.17,1.56-.39,2.58-.56,4.13,7.4-2.11,14.19-9.59,18.24-20.1,0,2,0,3.44,0,5.41a26.56,26.56,0,0,0,3.6-5.31l1.06,3.25s14.37-9.06,22.72-23.37" />
      <path class="BUNTAI_OWL_BODY_BUNTAI_OWL_BODY_37_cls-6" d="M140.09,381.47a37.74,37.74,0,0,0,6.22,5.41c-.06-2.47,0-4.31,0-6.78a55.91,55.91,0,0,0,37.12,25.21c-.34-1.95-.79-3.23-1.13-5.18a89.1,89.1,0,0,0,39.39,23.55c-.55-3.44-.77-6.15-1.32-9.6a45,45,0,0,0,29.14,21.29" />
      <path class="BUNTAI_OWL_BODY_BUNTAI_OWL_BODY_37_cls-6" d="M104.22,354.93c11.44,16.39,33.19,28.28,33.19,28.28v-4.93l.08.1" />
      <path class="BUNTAI_OWL_BODY_BUNTAI_OWL_BODY_37_cls-6" d="M319.65,383.86a103,103,0,0,0,20.13-18.08" />
      <path class="BUNTAI_OWL_BODY_BUNTAI_OWL_BODY_37_cls-6" d="M249.56,435.37c7.41-2.54,14.1-10.47,18-21.29-.35,3.45-.48,6.16-.81,9.6,9.12-4.19,17.58-12.39,24.27-23.55-.21,1.95-.49,3.23-.7,5.18,9.28-2.65,17.79-12,22.87-25.21,0,2.47,0,4.31,0,6.78a32.22,32.22,0,0,0,4.24-6.15" />
      <path class="BUNTAI_OWL_BODY_BUNTAI_OWL_BODY_37_cls-6" d="M91.83,386c.32,3.76,5.38,8.17,5.38,8.17l1.06-6.93c4.58,17.29,25.48,32.07,34.72,37.88" />
      <path class="BUNTAI_OWL_BODY_BUNTAI_OWL_BODY_37_cls-6" d="M173.35,447a56.36,56.36,0,0,1-27.08-22.39c.07,2.47,0,4.31,0,6.78a38.38,38.38,0,0,1-7.63-7l-6.52-6.15" />
      <path class="BUNTAI_OWL_BODY_BUNTAI_OWL_BODY_37_cls-6" d="M296.47,447c6.79-4.29,12.77-12.21,16.69-22.39,0,2.47,0,4.31,0,6.78a33.26,33.26,0,0,0,4.51-6.65l1.33,4.07s1.86-1.17,4.73-3.36" />
      <path class="BUNTAI_OWL_BODY_BUNTAI_OWL_BODY_37_cls-6" d="M348.47,397.74c-5.18,9.55-12.63,17.37-18.75,22.78L325,423.79" />
      <path class="BUNTAI_OWL_BODY_BUNTAI_OWL_BODY_37_cls-6" d="M146.35,314.86c13.77,18.05,45.75,29.05,45.75,29.05l-.81-6.29c2.91,6.64,26.5,18.13,26.5,18.13q2.34.86,4.74,1.53c-.44-2.74-.61-4.9-1.05-7.65a36,36,0,0,0,23.24,17" />
      <path class="BUNTAI_OWL_BODY_BUNTAI_OWL_BODY_37_cls-6" d="M244.79,366.62c5.91-2,11.24-8.36,14.33-17-.28,2.75-.38,4.91-.65,7.65a35.62,35.62,0,0,0,8.49-5.56s12.7-10.24,15-16.34v6.32s14.15-6.94,26.23-22.94" />
      <path class="BUNTAI_OWL_BODY_BUNTAI_OWL_BODY_37_cls-6" d="M196.28,202.64a.06.06,0,0,0,0,0,23.29,23.29,0,0,0-.74,12.41" />
      <path class="BUNTAI_OWL_BODY_BUNTAI_OWL_BODY_37_cls-6" d="M218,205.83s0,0,0,.15c-.11,1.5-1.37,13.48-14.59,14.41" />
      <path class="BUNTAI_OWL_BODY_BUNTAI_OWL_BODY_37_cls-6" d="M276.14,202.64s.06.15.15.44a23.2,23.2,0,0,1,.59,12" />
      <path class="BUNTAI_OWL_BODY_BUNTAI_OWL_BODY_37_cls-6" d="M272.36,220.4c-7.61-.54-11.25-4.74-13-8.49l0-.07,0,0a18.11,18.11,0,0,1-1.51-5.43h0" />
      <line class="BUNTAI_OWL_BODY_BUNTAI_OWL_BODY_37_cls-7" x1="239.49" y1="236.5" x2="241.16" y2="239.73" />
      <line class="BUNTAI_OWL_BODY_BUNTAI_OWL_BODY_37_cls-7" x1="247.15" y1="236.5" x2="246.48" y2="239.73" />
      <path class="BUNTAI_OWL_BODY_BUNTAI_OWL_BODY_37_cls-6" d="M364.77,447H63.67l.19-.35h0q2.49-4.45,5-8.9l9.49-16.92.44-.79-1.23.66-2.24,1.21.67-1.47,11.9-26.12c.19-.4.37-.8.55-1.2l-1.31.2-.94.15L91.84,386l.9-1.2L94,383l-3.09,2h0l-.71.47c4-10.46,8.21-21.1,14-30.62a76.21,76.21,0,0,1,9.15-12.24,101.82,101.82,0,0,1,13.26-11.61C128,330,129.4,329,130.78,328l.26-.19,2.54-1.88.24-.18" />
      <path class="BUNTAI_OWL_BODY_BUNTAI_OWL_BODY_37_cls-6" d="M133.82,325.73a83.87,83.87,0,0,0,12.53-10.87,34.66,34.66,0,0,0,7.47-11.75" />
      <path class="BUNTAI_OWL_BODY_BUNTAI_OWL_BODY_37_cls-8" d="M300.15,303.79q.09.38.21.75a44.4,44.4,0,0,0,7.8,14.22c1,1.25,1.93,2.4,2.87,3.46,1.19,1.33,2.32,2.51,3.31,3.51" />
      <path class="BUNTAI_OWL_BODY_BUNTAI_OWL_BODY_37_cls-8" d="M314.36,325.73h0l2.19,2.25c2.14,2.21,4.28,4.43,6.34,6.77a75.88,75.88,0,0,1,6.17,7.94c4.52,6.77,7.89,14.71,10.74,23.09,2.18,6.44,4.06,13.14,5.9,19.77L343,383c1.88,3.48,3.75,6.95,5.64,10.43l-1.62-.35c.5,1.54,1,3.08,1.51,4.62l7.92,24.17L353.91,420l10.86,27" />
      <path class="BUNTAI_OWL_BODY_BUNTAI_OWL_BODY_37_cls-6" d="M144.28,447a42.27,42.27,0,0,1-9-13.8,44.51,44.51,0,0,1-2.33-8.12,50.49,50.49,0,0,1-.83-6.84,67,67,0,0,1,2-19.63,106,106,0,0,1,4.26-13.14c.52-1.34,1.07-2.67,1.63-4,2.22-5.23,4.68-10.35,7.15-15.46" />
      <path class="BUNTAI_OWL_BODY_BUNTAI_OWL_BODY_37_cls-6" d="M138.46,385.47a43.57,43.57,0,0,1-.31-17.4" />
      <path class="BUNTAI_OWL_BODY_BUNTAI_OWL_BODY_37_cls-6" d="M313.51,447a42.27,42.27,0,0,0,9-13.8c4.32-10.91,3.94-23.21,1.12-34.59a106,106,0,0,0-4.26-13.14q-.93-2.39-1.95-4.74c-2.13-5-4.48-9.85-6.83-14.72" />
      <path class="BUNTAI_OWL_BODY_BUNTAI_OWL_BODY_37_cls-6" d="M319.64,368.07a43.57,43.57,0,0,1-.31,17.4" />
      <g class="BUNTAI_OWL_BODY_BUNTAI_OWL_BODY_37_cls-9">
        <path d="M129.3,447.4A37.84,37.84,0,0,0,132.53,425c-2.09-12.67-7.42-30.38-7.42-30.38l8.74,20.78s-2.8-13.12-4.37-26.14S127.67,364,127.67,364s2.77,19.66,6,29.45,5.47,17.92,5.47,17.92S141,395.79,141,392.12c.26,22.45-.87,32.41-2.18,40.71S136.28,448,136.28,448Z" />
        <path d="M218.66,206.91s-1.28,16.25-19.7,17.88c2.89-.94,9.51-5.2,9.51-5.2s-6.32,1.82-9.06,1.82c8.27-2.1,10.78-5.41,10.78-5.41a12.67,12.67,0,0,1-15.6-5.08,27.22,27.22,0,0,0,2.08,6.41,13.59,13.59,0,0,1-3.61-8.53c-.47-5.63.41-8.23.41-8.23s-10.29-9.18-12.94-14.28c-5.53-4.41-14.74-9-21.67-12.71A98.24,98.24,0,0,1,144.77,164s8.56,4.63,12.93,6c-13.19-10.49-30.08-19.45-35.92-26.85,8.48,6.75,26.66,17.24,26.66,17.24L173,173.58l-6.22.73a158.8,158.8,0,0,1,19.28,7.29c8.82,4.17,17.5,10.34,19.91,12.72-4.4,1-7.11,2-8.86,5.87s-.61,10.24,2.49,13,9.66,3.26,13,1a14.56,14.56,0,0,0,4.37-4l1-3.66Z" />
        <path d="M257,206.91s1.1,16.25,17,17.88c-2.5-.94-8.19-5.2-8.19-5.2s5.44,1.82,7.8,1.82c-7.12-2.1-9.28-5.41-9.28-5.41s8,4.18,13.43-5.08a29.88,29.88,0,0,1-1.8,6.41A14.57,14.57,0,0,0,279,208.8c.4-5.63-.35-8.23-.35-8.23s8.86-9.18,11.13-14.28c4.76-4.41,12.69-9,18.65-12.71A86,86,0,0,0,320.54,164s-7.37,4.63-11.13,6c11.36-10.49,25.88-19.45,30.92-26.85-7.31,6.75-22.95,17.24-22.95,17.24l-21.17,13.19,5.35.73A125.15,125.15,0,0,0,285,181.6c-7.59,4.17-15.06,10.34-17.14,12.72,3.8,1,6.13,2,7.63,5.87s.53,10.24-2.14,13-8.31,3.26-11.17,1a13.6,13.6,0,0,1-3.76-4l-.83-3.66Z" />
        <path d="M268.23,265.57a13.24,13.24,0,0,1-4.71,3.08l1-3.06s-4.63,7.25-9.78,10.58l1.66-3.59s-9.7,7.26-12.76,11.89c-9.09-8.92-16.16-10.4-27.26-10.4a35.45,35.45,0,0,1-19-5.65l2.61,4.19s-24.18-14-29.82-20.8c18.78,11.11,19.87,14.16,33,13.64a11.23,11.23,0,0,1-4.54-4.24s4.72-.71,13.34,2.72,13.63,5.36,15.38,5.48a22.25,22.25,0,0,1-2.84-3.88s7.38,3.18,10.35,5.33S243.8,280,243.8,280a21.14,21.14,0,0,1,5.48-9.38c4.43-4.48,5.24-4.89,5.24-4.89a3.72,3.72,0,0,1-.88,3.58c5-2.07,7.79-5.94,11-7.26s4.24-1.12,4.24-1.12l-1.16,3.57Z" />
        <path d="M252.07,237.66s-3.55-4.14-7.57-4-10.75,3-12,5.59c3.16,10.2,11.32,21.26,11.55,23.48A88.08,88.08,0,0,0,251,245.21,43.33,43.33,0,0,0,252.07,237.66Z" />
        <path d="M172.47,184s-5.07,8.26-6.29,15.45c-1.49,8-2.19,12.52-2.19,12.52l3.15-6.11s-2.45,12.67-2.71,21.84,9.46,21.41,14.36,26.18,13.51,9.56,13.51,9.56-14.89-6.73-19.7-10l-4.81-3.31s4.47,14.51,5.52,19.17,4.87,16.57,5.35,20.4l-2.5-2.91a121.19,121.19,0,0,0,.88,16.39c1.05,7.25,1.75,11.79,1.75,11.79l.64,2.67,7.8,10.67s-12.16-12.11-18.95-15.52a88.72,88.72,0,0,1-13.89-9.26s5.46-11.39,7.5-17.51,4-16.26,1.24-26.2-6.86-27-4.86-35.77l-2.44,2.3a96.73,96.73,0,0,1,1.29-17.42c1.57-9.47,3.14-13.25,3.14-13.25l-4.19,2.26s4-8.19,5.64-11.75,3.27-4.24,3.27-4.24Z" />
        <path d="M239.54,142.13s-8.44,1.57-13.45,1.45L230,145s-14.5,2-21.55,2.1a60.78,60.78,0,0,0-13.81,2h4.25s-17.18,6.7-21.26,11.18l.7-2.74,7.13-6.29-.33-.78,12.66-5-.64-2s18.94-1.73,23.59-2.09a54.9,54.9,0,0,1,8.45,0l.93-.1.54-.06,2.13-.23Z" />
        <path d="M179.29,290.28S191.84,303,202,305.93l-.23-2.44s18.46,12.58,24.7,14.68c1.16-.76,2.21-4.66,2.21-4.66s9.44,9,11.88,10.35a6.19,6.19,0,0,0,5.16,0l3.27-5.2s-4.06,2.77-5.45,2.77-11.62-4.33-12.76-6.54-5.56-6.39-5.56-6.39l-.3,4.89s-15.33-5.46-25.8-15.36l-.32,2.25s-8.49-1.53-14-5.77Z" />
        <path d="M246.65,344.5s-2.18,4.1-4.46,4.89c-13.54-5-16-14.12-16-14.12l-4.34-3.75.51,5,1.14,3.93s-14.6-6.44-20.45-10.2-9.87-6.39-9.87-6.39l1.31,3.8L179.72,320l-.29-2.46s11.89,5.32,12.09,4.09c.06-1.78.26-3.21.26-3.21s9.52,9.27,16,12.06,13.86,5.66,13.86,5.66l-.26-6.3,6,5.86s6.09,6.11,10.75,8,6.26,1.89,6.26,1.89Z" />
        <path d="M244.8,366.62c-8.71,10.94-1,13.41-9.11,28.53a44.57,44.57,0,0,1-7.85-5.28l0,0a30.52,30.52,0,0,1-6.15-6.86c-.28-.47-.41-.73-.41-.73l1.3,7.28L212.9,386l-.09,0s0,7,5.63,23.89c-6.49.44-28.72-4.85-31.89-5.61l-.38-.09s-.23,4.89,0,9.08c-3.84-.7-17.48-4.54-27.49-12.62-1.41,9-6,18.24-11.06,26-.44.68-.88,1.34-1.32,2s-.83,1.23-1.26,1.82c-2.34,3.35-4.66,6.34-6.71,8.81l-.69.84c-3.41,4.08-5.85,6.54-5.85,6.54H63.86l5-8.9,9.49-16.92-.79-.13L76,420.44l11.9-26.12-.76-1,4.77-6.89,1.21-1.74-.37.07-1.81.32h0a184.1,184.1,0,0,1,13.45-29.91c.84-1.43,1.71-2.84,2.6-4.2,6-9.17,14.51-15.91,19.83-19.57,3-2.06,5-3.15,5-3.15l-.78-.45,2.54-1.88.95-.18c1.63-.3,5-3.34,8.73-7.71l0,0a105.61,105.61,0,0,0,10.43-14.6v0c.59-1,1.14-2,1.64-3,.32-.57.61-1.13.88-1.69a5.88,5.88,0,0,0,0,.72,11.36,11.36,0,0,0,.63,2.84,23.73,23.73,0,0,0,1.16,2.69c.35.7.75,1.43,1.2,2.18,8.61,14.61,32.8,36.41,32.8,36.41l-.05-.46c0-.59-.18-1.93-.48-5a17.54,17.54,0,0,0,1.92,2.4c3.57,3.8,9.51,7.45,15.08,10.37l.19.1a149.05,149.05,0,0,0,13.8,6.32h0s0,0,0-.15,0-.1,0-.17c-.1-.84-.38-3.27-.47-6.43q0-.55,0-1.14a24.79,24.79,0,0,0,3.4,5.7,31.81,31.81,0,0,0,12.36,9.23.78.78,0,0,0,.21.09l.82.35c.22.1.44.19.67.27l.14.05A32.79,32.79,0,0,0,244.8,366.62Z" />
        <path d="M171.72,294.28s1.44,15.42,5.13,21.56,10.38,12.4,10.38,12.4,30.86,26.79,44.84,35.33c-74.33-21.06-77.74-37.84-77.74-37.84L158.05,305l12.17-9Z" />
      </g>
    </g>
  </g>
</svg>