<svg xmlns="http://www.w3.org/2000/svg" xmlns:xlink="http://www.w3.org/1999/xlink" viewBox="0 0 432 432">
  <defs>
    <style>.GUNDAN_MONKEY_OUTFIT_MONKEY_OUTFIT_28_cls-1,.GUNDAN_MONKEY_OUTFIT_MONKEY_OUTFIT_28_cls-7{fill:none;}.GUNDAN_MONKEY_OUTFIT_MONKEY_OUTFIT_28_cls-2{isolation:isolate;}.GUNDAN_MONKEY_OUTFIT_MONKEY_OUTFIT_28_cls-3{clip-path:url(#GUNDAN_MONKEY_OUTFIT_MONKEY_OUTFIT_28_clip-path);}.GUNDAN_MONKEY_OUTFIT_MONKEY_OUTFIT_28_cls-4{fill:#756626;}.GUNDAN_MONKEY_OUTFIT_MONKEY_OUTFIT_28_cls-5{fill:#612a1f;}.GUNDAN_MONKEY_OUTFIT_MONKEY_OUTFIT_28_cls-6{opacity:0.22;mix-blend-mode:multiply;}.GUNDAN_MONKEY_OUTFIT_MONKEY_OUTFIT_28_cls-7{stroke:#000;stroke-linecap:round;stroke-linejoin:round;stroke-width:2px;}</style>
    <clipPath id="clip-path">
      <path class="GUNDAN_MONKEY_OUTFIT_MONKEY_OUTFIT_28_cls-1" d="M303.07,216.51a.8.8,0,0,1,.07.36.91.91,0,0,1-.65.82l-1.28.44c.07.9.15,1.73.26,2.51a65.28,65.28,0,0,1,9.95,6.19c.38.29,1.15.9,2,1.64.33.29.68.6,1,.91a.91.91,0,0,1,.11,1.15.89.89,0,0,1-.74.39h0a1,1,0,0,1-.35-.07,41.57,41.57,0,0,0-3.92-1.52l-.11,0c-.51-.17-1-.34-1.51-.48l-.44-.13-.52-.15a57.15,57.15,0,0,0-5.92-1.33l0,.14a146.6,146.6,0,0,0,15.83,6.06A102.31,102.31,0,0,0,329,236.46a66,66,0,0,0,11.45,1.17.89.89,0,0,1,.35,1.71,20.21,20.21,0,0,1-2.13.79A47.53,47.53,0,0,1,328.42,242l0,.14.26.1q.48.17,1,.39l.89.37.12,0,1,.42c.21.09.44.2.65.31s.71.33,1.08.53c1,.5,1.91,1,2.83,1.59l.13.08a4.53,4.53,0,0,1,.4.26l.71.46.6.41c.76.52,1.58,1.16,2.44,1.88l.15.12a3.76,3.76,0,0,1,.32.28c.34.29.72.64,1.09,1l.43.42c.11.1.21.21.31.32a3.5,3.5,0,0,1,.37.39c.17.17.35.36.52.56s.28.3.44.49c.73.86,1.39,1.73,2,2.64.16.22.32.46.47.71l.08.12.28.47a31.6,31.6,0,0,1,1.53,2.88c.09.23.18.43.3.68s.31.78.49,1.24l0,.11c.09.24.18.49.27.76,0,0,0,.08,0,.14s.14.84.26,2.06c1.19,1.64,2.28,3.3,3.24,4.94,9.54,16.31,11.44,39.67,4.73,58.13a55,55,0,0,1-17.93,25c-1.11.85-2.28,1.66-3.57,2.47a37.52,37.52,0,0,1-14.55,5.38q-.76.11-1.56.18h-.1l-.41,0c-.74.06-1.5.09-2.27.09h-.59c-.51,0-1,0-1.57-.05s-1.37-.09-2.15-.18a36.5,36.5,0,0,1-4.27-.79l-.13,0-.35-.1a40,40,0,0,1-12.72-5.89,51.47,51.47,0,0,1-16.93-20.07.89.89,0,0,1,.41-1.19.9.9,0,0,1,1.2.41A49.64,49.64,0,0,0,296.65,352a39.14,39.14,0,0,0,12.46,3c.67,0,1.37.08,2.08.08.4,0,.8,0,1.19,0l.63,0c8.33-.49,16.63-4.53,23.36-11.38a47.91,47.91,0,0,0,8.93-12.74,31.09,31.09,0,0,0,.55-11.57c-.07-.54-.16-1.08-.25-1.6a50.87,50.87,0,0,0-5.57-15.1,77.07,77.07,0,0,0-9.13-13.39l-.13.07c.5,1.57.91,3,1.24,4.45.25,1.06.47,2.18.68,3.34a51.32,51.32,0,0,1,.36,16.08v.16c-.14,1-.35,2.16-.63,3.42l-.06.27c-.07.29-.14.56-.21.83a1.05,1.05,0,0,1-.71.68s0,.08,0,.11v-.07l-.06-.06h-.07a.64.64,0,0,1-.24,0,.85.85,0,0,1-.54-.42.93.93,0,0,1-.06-.74c0-.18.09-.36.12-.55a29.65,29.65,0,0,0-2.19-7.72,44.57,44.57,0,0,0-5.79-9.54c-.85-1.11-1.71-2.15-2.53-3.1l-.45-.52a65.33,65.33,0,0,0-10.8-9.73,57,57,0,0,0-6.14-3.82l-.09.11a40.21,40.21,0,0,1,4.29,5.46c.31.47.6.94.88,1.43.05.07.2.37.2.37.13.23.26.47.39.74a20.07,20.07,0,0,1,.86,2,28,28,0,0,1,1.5,5.08,4.64,4.64,0,0,1,.11.65,12.65,12.65,0,0,1,.16,1.88c0,5.4-3.67,9.4-9.78,15.35a.89.89,0,0,1-1.25,0,.9.9,0,0,1,0-1.25,26.8,26.8,0,0,0,5.92-8.79,14.43,14.43,0,0,0,.26-9.92A18,18,0,0,0,305,293a20.63,20.63,0,0,0-1.35-2.2l-.06-.09c-.28-.39-.59-.81-.92-1.22a4.19,4.19,0,0,0-.26-.33,38.31,38.31,0,0,0-6.88-6.31,60.12,60.12,0,0,0-6.66-4.2l-.17-.09c-.85-.47-1.78-.95-3.12-1.62a48,48,0,0,1-7.57-1l-.14,0,.06.13c4.13,10.13,5.22,19.61,3.22,28.22a35.6,35.6,0,0,1-1,3.51,33.59,33.59,0,0,1-1.56,3.75.9.9,0,0,1-.81.5,1,1,0,0,1-.37-.08.89.89,0,0,1-.45-1.16,27.46,27.46,0,0,0,1.71-6.08c2.47-15.42-8-30.58-9.27-32.28l-.69-.5-.5-.43a2.76,2.76,0,0,1-.27-.23l-.18-.16c-.23-.23-.46-.46-.66-.68s-.47-.54-.68-.81a10.14,10.14,0,0,1-.83-1.27l-.05-.07-.06.06c-.84.68-1.6,1.25-2.37,1.77a32.27,32.27,0,0,1-4.89,2.82,22.79,22.79,0,0,1-9.63,2.3c-1.12,0-2.13,0-3-.06-1.71-.06-3.31-.18-4.76-.34a63.9,63.9,0,0,1-6.91-1.08A57.83,57.83,0,0,1,227.8,272c-1.65-.57-3.21-1.21-4.73-1.88a16.8,16.8,0,0,1-3.19,2.31c-1.5,1.66-14.59,16.65-11.49,32.24a24.17,24.17,0,0,0,2.11,6,.91.91,0,0,1-.36,1.19.86.86,0,0,1-.44.12.91.91,0,0,1-.77-.44,30,30,0,0,1-3.23-7.34c-2.47-8.58-1.12-18.09,4-28.26l.06-.13-.14,0a71.42,71.42,0,0,1-9.79,1.08,93.26,93.26,0,0,0-11.14,5.21c-.44.24-.87.48-1.29.73-5.55,3.26-9.51,6.68-11.79,10.17-4.42,6.77-2.28,13.86,6.35,21.07a.9.9,0,0,1,.12,1.24.94.94,0,0,1-.7.34.87.87,0,0,1-.55-.2c-11.48-9-14.79-12.78-10-23.08a21,21,0,0,1,1.82-3.08,40,40,0,0,1,6.59-7l-.08-.12a77,77,0,0,0-25.43,17.47,43.65,43.65,0,0,0-7.19,9.55,24.86,24.86,0,0,0-2.75,7.82l0,.08h0l-.09,0-.05.15a.78.78,0,0,1-.13.18.5.5,0,0,1-.07.08.85.85,0,0,1-.17.12l-.1.05-.16,0a.31.31,0,0,1-.15,0h-.07l-.12,0a1.09,1.09,0,0,1-.31-.13,1,1,0,0,1-.24-.23.92.92,0,0,1-.15-.3l-.06-.21a41.34,41.34,0,0,1-.35-19.73,47,47,0,0,1,2.59-8.32l-.12-.08a77.62,77.62,0,0,0-12,14,45.25,45.25,0,0,0-6.92,15.07c-.11.52-.22,1.05-.31,1.64a24.82,24.82,0,0,0,.68,11.42,49.09,49.09,0,0,0,12,13.42l0-.06,0,.14a50.32,50.32,0,0,0,29.08,10.72c.49,0,1,0,1.46,0a57.51,57.51,0,0,0,18.3-3.15,54.23,54.23,0,0,0,20.28-19.36.9.9,0,0,1,.77-.43.93.93,0,0,1,.46.12.88.88,0,0,1,.4.56.83.83,0,0,1-.1.67,56,56,0,0,1-21,20,57.78,57.78,0,0,1-9.55,4.19l-1.19.39-.33.1-.13,0c-1.57.48-3.18.88-4.78,1.21l-.7.13-.25.05-1,.17-.21,0c-.41.07-.85.15-1.28.2s-1.06.14-1.61.2l-1.41.13-.14,0h-.11c-1.16.09-2.31.14-3.42.15h-.54l-1.63,0-1,0-.47,0-1.77-.15c-.6-.05-1.19-.12-1.79-.2l-.15,0c-.52-.08-1.06-.15-1.6-.25l-1.09-.19-.2,0-.68-.14c-.52-.1-1.05-.22-1.56-.35l-.12,0a10.56,10.56,0,0,0-1.32-.26l.09-1.06h-.15v.06l-.22.86c-.55-.16-1.1-.32-1.65-.5s-1-.31-1.5-.49l-.28-.1-.43-.15-.36-.13-.66-.24-1.62-.65c-.46-.19-.93-.39-1.4-.61s-1.1-.49-1.65-.76l-.37-.18c-.57-.29-1.16-.59-1.74-.91l-.32-.18c-.3-.16-.61-.32-.9-.5-1-.6-2-1.17-2.86-1.75s-1.48-1-2.21-1.51c-.95-.67-1.91-1.41-2.93-2.25l-.79-.65-1.06-.94c-.55-.48-1.05-.94-1.53-1.41s-.77-.75-1.15-1.13l-.55-.57-.28-.3L120,342c-.17-.18-.34-.36-.49-.55l-.07-.07-.08-.12h0l-.07-.1c-.53-.59-1-1.18-1.5-1.79-.33-.39-.65-.8-1-1.22l-.11,0V338l-.09-.12c-.1-.13-.18-.25-.26-.37s-.42-.54-.63-.85l-.42-.59c-.36-.53-.73-1.08-1.07-1.62s-.64-1-1-1.54l-.18-.32c-.21-.36-.42-.71-.61-1.08-.08-.12-.38-.67-.38-.67a.53.53,0,0,1-.06-.13l-.33-.61-.16-.31-.21-.41-.06-.13c-.3-.59-.59-1.19-.86-1.8a58.17,58.17,0,0,1-4.92-26.72c0-1.19.16-2.47.31-3.9.2-1.68.42-3.17.69-4.55a57.78,57.78,0,0,1,9.82-23.09c.33-.45.66-.89,1-1.33s.55-.7.84-1.05.81-1,1.23-1.47l.94-1.09c.15-1.15.3-2,.31-2a.58.58,0,0,1,.06-.17c.2-.48.42-.95.65-1.42s.34-.68.55-1l0-.09a27.1,27.1,0,0,1,2-3c.17-.24.36-.48.55-.72.42-.54.9-1.1,1.52-1.77l.23-.24c.39-.41.81-.83,1.24-1.23.2-.2.43-.41.66-.61s.37-.32.58-.5c.45-.4.94-.78,1.43-1.16l.09-.07c.18-.14.37-.29.56-.42a47.75,47.75,0,0,1,10-5.54l1.34-.53.1,0,.57-.21.18-.07,1.15-.41.65-.21a6.48,6.48,0,0,1,.62-.2c.4-.14.81-.27,1.22-.39l.24-.07V242l-2-.15h-.16a65.83,65.83,0,0,1-10.46-1.64l-.15,0c-.87-.23-1.72-.49-2.5-.77a.89.89,0,0,1,.29-1.73,102.5,102.5,0,0,0,14.3-1.17c4.79-.71,9.89-1.75,15.15-3.07,6.34-1.6,13.15-3.69,19.69-6.06l0-.14c-1.43.18-3,.44-4.87.8a77.64,77.64,0,0,0-9.57,2.43l-.3.09h0l-1,.34a.87.87,0,0,1-.32.06.89.89,0,0,1-.52-1.6c1-.75,2-1.47,3-2.13a92.83,92.83,0,0,1,16.91-8.12l.22-.09-5.47-1.28a.88.88,0,0,1-.69-.84.89.89,0,0,1,.63-.88,34.73,34.73,0,0,1,9.14-1.07h1.09L139.5,117-6.93,133V442.5H445V120.86Z" />
    </clipPath>
  </defs>
  <g class="GUNDAN_MONKEY_OUTFIT_MONKEY_OUTFIT_28_cls-2">
    <g id="Outfit">
      <g class="GUNDAN_MONKEY_OUTFIT_MONKEY_OUTFIT_28_cls-3">
        <path class="GUNDAN_MONKEY_OUTFIT_MONKEY_OUTFIT_28_cls-4" d="M324.56,420.79a68.83,68.83,0,0,1-17.68,28.75c0,.12-.09.25-.12.37h-.29a27,27,0,0,1-8.83-1.64,28.35,28.35,0,0,1-3-1.26h0a.42.42,0,0,1,.08-.12c.14-.22.28-.44.41-.67a50.85,50.85,0,0,0,4.76-10.16c.11-.31.22-.63.32-.94a1.66,1.66,0,0,0,.06-.21h0a78.87,78.87,0,0,0,3.51-24.7V410c-.11-13-2.87-24-5-27.22,8.21-1.76,26.51-1,26.51-1a18.29,18.29,0,0,0,1.21,2.5A73.32,73.32,0,0,1,324.56,420.79Z" />
        <path class="GUNDAN_MONKEY_OUTFIT_MONKEY_OUTFIT_28_cls-5" d="M325.54,381.76l-.37,0h0c-.38,0-.79,0-1.24,0-1.65,0-3.72,0-6.27-.18-1.55-.1-3.27-.23-5.19-.39a61.11,61.11,0,0,0-13.7,1.55c-1.7.35-3.52.8-5.43,1.34a80,80,0,0,0-17.3,7.26c-.72.41-1.45.84-2.17,1.28q-2.19,1.32-4.36,2.86l-1.09.77-.72.54-.77.58-.95.73c-.87.7-1.76,1.42-2.63,2.17l-.91.79c-.89.8-1.79,1.63-2.68,2.49-.65.63-1.29,1.27-1.93,1.93-.48-.33-1-.64-1.47-1l-.19-.13c-.53-.33-1.05-.67-1.57-1l-.27-.17-1.71-1a2.28,2.28,0,0,0-.3-.17c-.48-.29-.95-.56-1.43-.82s-1-.58-1.55-.86l-1.35-.71-.75-.39c-.46-.23-.93-.47-1.4-.69-.16-.09-.33-.17-.49-.24-.53-.27-1.06-.52-1.6-.76l-.28-.13c-.64-.3-1.28-.59-1.93-.87s-1.38-.6-2.07-.88-1.28-.53-1.93-.78l-.37-.14c-.5-.2-1-.38-1.51-.57L235,394l-1.51-.53-.54-.19-1.81-.61-1.82-.57-.51-.16-1.79-.52-2.05-.57c-.69-.19-1.37-.36-2-.53l-1.79-.44c-.77-.17-1.53-.35-2.3-.51l-1.7-.35-.43-.09-1-.2-1.32-.24-1.51-.26L211,388c-1.59-.25-3.17-.46-4.73-.63l-1.38-.16-1.84-.19-3.61-.3c-1.17-.08-2.33-.15-3.47-.2l-1.75-.07c-1.74-.06-3.42-.1-5.06-.1h-2.63c-1.15,0-2.28.05-3.36.09h-.52c-1.21.05-2.38.11-3.49.18l-.62,0c-3.36.22-6.29.52-8.72.83l-.7.09-1.6.22-1,.15-1.91.31-.37.06-1.24.24-.18,0-.39.07-.12,0h-.07c0-.06-.17,0-.55.11h0c-.75.26-2.15.84-3.9,1.57l-.76.32c-4.91,2.07-11.84,5.09-14.18,5.87-.51.17-.8.23-.8.15s0-.28,0-.42c0-.32,0-.64,0-.95a49.75,49.75,0,0,1,.63-6.1c.09-.51.18-1,.29-1.47a116.73,116.73,0,0,1,13.57-4.64c2.6-.75,5.57-1.54,8.88-2.33.28.06.47,0,.53-.13s49.25-12.83,91.88,15.75C281.54,373,309,374.83,309,374.83c.43.83,9.25.36,13.36.63h0c1.14.08,1.91.21,2.05.45C324.78,377.27,325.17,379.26,325.54,381.76Z" />
        <path class="GUNDAN_MONKEY_OUTFIT_MONKEY_OUTFIT_28_cls-4" d="M312.69,435.91c-.19.37-.38.72-.55,1.08a89.34,89.34,0,0,0-5.66,12.9,119,119,0,0,0-3.36,13.8c-1,5.26-1,12.88-.79,19.21H282.75a12.4,12.4,0,0,0-21.67,0H227.61v-1.6H215.55v13.2H199.72c1.75-20.27-.05-28.93-4.1-42.8-1.46-5-3.2-10.66-5.18-17.79-.45-1.62-.83-3.23-1.14-4.82a73.19,73.19,0,0,1,4.92-42.68c18.12.64,41.26,4.69,62.13,18.16l1.47,1a56.83,56.83,0,0,0,8.57,18.22h0A65.1,65.1,0,0,0,278,436.57l.24.21a68.23,68.23,0,0,0,12.17,8.16h0c1.35.71,2.76,1.4,4.22,2.05a35.62,35.62,0,0,0,4.39-1.26c.34-.12.67-.24,1-.37s.64-.25,1-.39c.64-.27,1.26-.56,1.85-.86l.73-.37.57-.32.54-.31a30.67,30.67,0,0,0,2.79-1.87l.57-.43.3-.24.5-.43a26.72,26.72,0,0,0,2.12-2l.32-.35c.31-.35.57-.66.77-.93a1.84,1.84,0,0,0,.19-.25C312.45,436.27,312.6,436,312.69,435.91Z" />
        <path class="GUNDAN_MONKEY_OUTFIT_MONKEY_OUTFIT_28_cls-5" d="M298.76,382.79c.25.65,13.55,35.39-4.15,64.21-1.46-.65-2.87-1.34-4.22-2.05h0c14.53-30.8,2.94-60.81,2.94-60.81C295.24,383.59,297.06,383.14,298.76,382.79Z" />
        <path class="GUNDAN_MONKEY_OUTFIT_MONKEY_OUTFIT_28_cls-4" d="M297,422.07a76.5,76.5,0,0,1-6.64,22.87,68.23,68.23,0,0,1-12.17-8.16l-.24-.21a65.1,65.1,0,0,1-11.58-12.81h0a56.83,56.83,0,0,1-8.57-18.22c.64-.66,1.28-1.3,1.93-1.93a79.65,79.65,0,0,1,33.58-19.47A85.11,85.11,0,0,1,297,422.07Z" />
        <path class="GUNDAN_MONKEY_OUTFIT_MONKEY_OUTFIT_28_cls-5" d="M294.19,300.91c-.73.65-1.46,1.27-2.21,1.88-32.76,26.91-77.55,21.39-108.09,9.27-10.54-4.18-19.39-9.14-25.45-13.83-.43-.33-.85-.66-1.24-1A33.08,33.08,0,0,0,163.45,285a108.18,108.18,0,0,0,27,15.69c47.19,18.95,95-1.05,99.13-11.84A64,64,0,0,0,294.19,300.91Z" />
        <path class="GUNDAN_MONKEY_OUTFIT_MONKEY_OUTFIT_28_cls-5" d="M190.44,433.91c7.48,26.93,11.65,33,9.28,60.59h-5.07c2.38-27.56-1.79-33.66-9.28-60.59-7.09-25.52,3.79-47.51,3.79-47.51v-.09c1.64,0,3.32,0,5.06.1C194,386.92,183.43,408.69,190.44,433.91Z" />
        <path class="GUNDAN_MONKEY_OUTFIT_MONKEY_OUTFIT_28_cls-4" d="M194.7,494v0a4,4,0,0,1,0,.49h-34.6s5.55-12.49-1.16-38.94A98.55,98.55,0,0,0,155,444h0c-.08-.22-.18-.45-.26-.67l-.08-.13-.06-.1a.87.87,0,0,1-.08-.14l-.16-.28a91.1,91.1,0,0,1-4.3-8.73c-.16-.36-.31-.73-.48-1.11-.32-.76-.64-1.56-1-2.39-.15-.41-.31-.81-.46-1.23-.32-.84-.64-1.72-1-2.63-.15-.45-.31-.91-.46-1.38-.31-.92-.6-1.88-.89-2.86-.13-.41-.25-.83-.37-1.26l-.09-.35c-.25-.86-.47-1.74-.69-2.63,0-.13-.06-.27-.1-.41-.11-.48-.22-1-.32-1.44s-.19-.87-.28-1.32-.2-1-.29-1.53l-.12-.63-.21-1.29s0-.05,0-.07h0a60.69,60.69,0,0,1-.45-16c.19-.45,8.41-2.93,14.05-4.76a29.28,29.28,0,0,0,5.25-1.94l.38-.07.42-.09c.63-.12,1.59-.3,2.89-.5a147.46,147.46,0,0,1,23.26-1.72v.09a73.45,73.45,0,0,0-5.26,40.89c.08.47.17.95.26,1.43.33,1.71.72,3.44,1.21,5.19,1.24,4.48,2.4,8.37,3.44,11.9,1.75,5.86,3.2,10.65,4.27,15.29.06.21.11.43.15.64.2.85.38,1.7.54,2.54,0,.17.07.35.1.52s.1.49.14.74c.11.59.21,1.19.31,1.78.31,2,.56,4,.72,6.1,0,.24,0,.46.06.7.09,1.36.16,2.76.19,4.22,0,.4,0,.81,0,1.22C195.36,483.72,195.17,488.42,194.7,494Z" />
        <path class="GUNDAN_MONKEY_OUTFIT_MONKEY_OUTFIT_28_cls-6" d="M195.07,488.9c0,.48-.06,1-.1,1.45l-.06.88c0,.75-.11,1.51-.17,2.29l-.05.49c0,.16-.1.33-.15.49H160.05s5.55-12.49-1.16-38.94A98.55,98.55,0,0,0,155,444h0c-.08-.22-.18-.45-.26-.67,0,0,0,0,0,0l-.06-.1-.06-.1a.87.87,0,0,1-.08-.14l-.16-.28a91.1,91.1,0,0,1-4.3-8.73c-.16-.36-.31-.73-.48-1.11-.32-.76-.64-1.56-1-2.39-.15-.41-.31-.81-.46-1.23-.32-.84-.64-1.72-1-2.63-.15-.45-.31-.91-.46-1.38-.31-.92-.6-1.88-.89-2.86-.13-.41-.25-.83-.37-1.26l-.09-.35c-.25-.86-.47-1.74-.69-2.63,0-.13-.06-.27-.1-.41-.11-.48-.22-1-.32-1.44s-.19-.87-.28-1.32c0-.17-.07-.33-.1-.5-.07-.33-.13-.68-.19-1l-.12-.63-.21-1.29s0-.05,0-.07h0l-.21-.32A64.11,64.11,0,0,1,142,396.72c0-.14,0-.28,0-.42,0-.32,0-.64,0-.95a49.75,49.75,0,0,1,.63-6.1c.09-.51.18-1,.29-1.47a116.73,116.73,0,0,1,13.57-4.64,61.94,61.94,0,0,0,.36,6.91c0,.19.05.38.07.58,0,0,0,.05,0,.07,1.58,13,8,28.4,27.19,38,.2,1,.42,2.1.69,3.16.06.28.13.57.21.86s.2.78.31,1.17c.39,1.4.77,2.74,1.14,4,.17.6.34,1.19.51,1.76,1.67,5.77,3.14,10.52,4.35,14.84.12.42.24.83.35,1.23s.15.53.22.79c.18.67.36,1.33.52,2,.07.28.14.54.2.81q.22.87.42,1.74c.15.63.3,1.27.43,1.91.09.42.18.84.26,1.25s.17.86.24,1.28c.11.59.21,1.19.31,1.78q.23,1.49.42,3c0,.51.12,1,.16,1.53s.11,1,.14,1.56l.06.71c0,.34.05.68.06,1a2.42,2.42,0,0,1,0,.38c0,.56.06,1.15.08,1.73,0,.36,0,.72,0,1.09,0,.2,0,.4,0,.6s0,.42,0,.62C195.35,482.4,195.27,485.47,195.07,488.9Z" />
        <path class="GUNDAN_MONKEY_OUTFIT_MONKEY_OUTFIT_28_cls-6" d="M297,422.07a76.5,76.5,0,0,1-6.64,22.87,68.23,68.23,0,0,1-12.17-8.16l-.24-.21a81.38,81.38,0,0,1-11.58-12.81h0c-5.75-7.8-8.65-14.12-9.43-13.83-9.3,32.72-52.91,40.56-61.34,41.78-1.46-5-3.2-10.66-5.18-17.79-.45-1.62-.83-3.23-1.14-4.82,42,11.72,61.57-15.87,67.05-24.52a18.63,18.63,0,0,1,1.64-2.5l1.76,1.53C273.72,415.46,286.36,420.55,297,422.07Z" />
        <path class="GUNDAN_MONKEY_OUTFIT_MONKEY_OUTFIT_28_cls-6" d="M306.88,449.54c0,.12-.09.25-.12.37h0l-.26,0-.79-.09a43.82,43.82,0,0,1-8.05-1.53,30.9,30.9,0,0,1-3.1-1.11.6.6,0,0,0,.09-.15v0a.33.33,0,0,0,.06-.1l.4-.68c.27-.46.53-.91.77-1.37.16-.29.32-.57.47-.86l.69-1.32a.42.42,0,0,0,0-.06,58.82,58.82,0,0,0,3.19-7.7h0c.17-.51.35-1,.51-1.55s.25-.8.36-1.21l.15-.52c.1-.36.2-.73.29-1.1.07-.22.12-.44.17-.66s.13-.53.19-.8a6.74,6.74,0,0,0,.17-.75c.15-.65.29-1.29.4-1.94.25-1.26.46-2.53.62-3.78a156.36,156.36,0,0,0,21.45-1.79A68.83,68.83,0,0,1,306.88,449.54Z" />
        <path class="GUNDAN_MONKEY_OUTFIT_MONKEY_OUTFIT_28_cls-6" d="M190.42,300.67h0s-6.95.26-6.53,11.38c-10.54-4.18-19.39-9.14-25.45-13.83-.43-.33-.85-.66-1.24-1A33.08,33.08,0,0,0,163.45,285,108.18,108.18,0,0,0,190.42,300.67Z" />
        <path d="M158,298.23h.46c-.05.06-.1.14-.16.2Z" />
        <path class="GUNDAN_MONKEY_OUTFIT_MONKEY_OUTFIT_28_cls-7" d="M292,302.79c.75-.61,1.48-1.23,2.21-1.88a64.09,64.09,0,0,1-4.64-12.07c-4.9,12.86-72.06,38.86-126.1-3.85a33.08,33.08,0,0,1-6.25,12.25c.39.34.81.66,1.24,1C182.08,316.51,247.92,339,292,302.79Z" />
        <path class="GUNDAN_MONKEY_OUTFIT_MONKEY_OUTFIT_28_cls-7" d="M142.71,389a2.34,2.34,0,0,1,0,.26c-.31,2.09-.51,4.12-.63,6.1,0,.32,0,.63,0,.95,0,.14,0,.28,0,.42a64.11,64.11,0,0,0,1.16,14.37c.22,1.13.47,2.25.74,3.35,2.53,10.35,7.08,19.5,10.83,28.86,0,0,0,0,0,0,.08.22.18.45.26.67" />
        <path class="GUNDAN_MONKEY_OUTFIT_MONKEY_OUTFIT_28_cls-7" d="M142.91,387.79H143a116.73,116.73,0,0,1,13.57-4.64c2.6-.75,5.57-1.54,8.88-2.33l.53-.13s49.25-12.83,91.88,15.75C281.54,373,309,374.83,309,374.83a86.44,86.44,0,0,1,13.36.63h0c.75.13,1.44.28,2.05.45" />
        <path class="GUNDAN_MONKEY_OUTFIT_MONKEY_OUTFIT_28_cls-7" d="M142,396.71c9.08-5.9,20.22-8,20.22-8a134.88,134.88,0,0,1,26.95-2.39c1.64,0,3.32,0,5.06.1,18.55.65,42.36,4.88,63.6,19.12a79.84,79.84,0,0,1,35.51-21.4c1.91-.54,3.73-1,5.43-1.34a61.11,61.11,0,0,1,13.7-1.55s7.93-.5,13.14.95" />
        <path class="GUNDAN_MONKEY_OUTFIT_MONKEY_OUTFIT_28_cls-7" d="M250.77,373.83c3.5,4.14,7.48,5.31,7,22.6" />
        <path class="GUNDAN_MONKEY_OUTFIT_MONKEY_OUTFIT_28_cls-7" d="M257.29,385.31s-.55-8.05,5.64-12.8" />
        <path class="GUNDAN_MONKEY_OUTFIT_MONKEY_OUTFIT_28_cls-7" d="M257.82,405.53s5.38,25.06,32.57,39.41" />
        <path class="GUNDAN_MONKEY_OUTFIT_MONKEY_OUTFIT_28_cls-7" d="M293.33,384.13s11.59,30-2.94,60.81h0" />
        <path class="GUNDAN_MONKEY_OUTFIT_MONKEY_OUTFIT_28_cls-7" d="M298.75,382.78h0c.25.65,13.55,35.39-4.15,64.21" />
        <path class="GUNDAN_MONKEY_OUTFIT_MONKEY_OUTFIT_28_cls-7" d="M254.32,417.33S249.4,434.26,218.63,446" />
        <path class="GUNDAN_MONKEY_OUTFIT_MONKEY_OUTFIT_28_cls-7" d="M194.22,386.4h0c-.25.51-10.79,22.28-3.78,47.5,7.48,26.93,11.65,33,9.28,60.59" />
        <path class="GUNDAN_MONKEY_OUTFIT_MONKEY_OUTFIT_28_cls-7" d="M189.16,386.4s-10.88,22-3.79,47.51c7.49,26.93,11.66,33,9.28,60.59" />
        <path class="GUNDAN_MONKEY_OUTFIT_MONKEY_OUTFIT_28_cls-7" d="M324.48,375.91c.83,2.86,1.5,5.66,2,8.37a73.32,73.32,0,0,1-1.92,36.51,68.83,68.83,0,0,1-17.68,28.75l-.4.35" />
      </g>
    </g>
  </g>
</svg>