<svg xmlns="http://www.w3.org/2000/svg" xmlns:xlink="http://www.w3.org/1999/xlink" viewBox="0 0 432 432">
  <defs>
    <style>.GUNDAN_MONKEY_OUTFIT_MONKEY_OUTFIT_36_cls-1,.GUNDAN_MONKEY_OUTFIT_MONKEY_OUTFIT_36_cls-9{fill:none;}.GUNDAN_MONKEY_OUTFIT_MONKEY_OUTFIT_36_cls-2{isolation:isolate;}.GUNDAN_MONKEY_OUTFIT_MONKEY_OUTFIT_36_cls-3{clip-path:url(#GUNDAN_MONKEY_OUTFIT_MONKEY_OUTFIT_36_clip-path);}.GUNDAN_MONKEY_OUTFIT_MONKEY_OUTFIT_36_cls-4{opacity:0.22;mix-blend-mode:multiply;}.GUNDAN_MONKEY_OUTFIT_MONKEY_OUTFIT_36_cls-5{fill:#a05514;}.GUNDAN_MONKEY_OUTFIT_MONKEY_OUTFIT_36_cls-6{fill:#1c100d;}.GUNDAN_MONKEY_OUTFIT_MONKEY_OUTFIT_36_cls-7{fill:#7a6658;}.GUNDAN_MONKEY_OUTFIT_MONKEY_OUTFIT_36_cls-8{fill:#d19c16;}.GUNDAN_MONKEY_OUTFIT_MONKEY_OUTFIT_36_cls-9{stroke:#000;stroke-linecap:round;stroke-linejoin:round;stroke-width:2px;}.GUNDAN_MONKEY_OUTFIT_MONKEY_OUTFIT_36_cls-10{fill:#aa6217;}.GUNDAN_MONKEY_OUTFIT_MONKEY_OUTFIT_36_cls-11{fill:#7a3609;}.GUNDAN_MONKEY_OUTFIT_MONKEY_OUTFIT_36_cls-12{fill:#974c12;}</style>
    <clipPath id="clip-path">
      <path class="GUNDAN_MONKEY_OUTFIT_MONKEY_OUTFIT_36_cls-1" d="M303.07,216.51a.8.8,0,0,1,.07.36.91.91,0,0,1-.65.82l-1.28.44c.07.9.15,1.73.26,2.51a65.28,65.28,0,0,1,9.95,6.19c.38.29,1.15.9,2,1.64.33.29.68.6,1,.91a.91.91,0,0,1,.11,1.15.89.89,0,0,1-.74.39h0a1,1,0,0,1-.35-.07,41.57,41.57,0,0,0-3.92-1.52l-.11,0c-.51-.17-1-.34-1.51-.48l-.44-.13-.52-.15a57.15,57.15,0,0,0-5.92-1.33l0,.14a146.6,146.6,0,0,0,15.83,6.06A102.31,102.31,0,0,0,329,236.46a66,66,0,0,0,11.45,1.17.89.89,0,0,1,.35,1.71,20.21,20.21,0,0,1-2.13.79A47.53,47.53,0,0,1,328.42,242l0,.14.26.1q.48.17,1,.39l.89.37.12,0,1,.42c.21.09.44.2.65.31s.71.33,1.08.53c1,.5,1.91,1,2.83,1.59l.13.08a4.53,4.53,0,0,1,.4.26l.71.46.6.41c.76.52,1.58,1.16,2.44,1.88l.15.12a3.76,3.76,0,0,1,.32.28c.34.29.72.64,1.09,1l.43.42c.11.1.21.21.31.32a3.5,3.5,0,0,1,.37.39c.17.17.35.36.52.56s.28.3.44.49c.73.86,1.39,1.73,2,2.64.16.22.32.46.47.71l.08.12.28.47a31.6,31.6,0,0,1,1.53,2.88c.09.23.18.43.3.68s.31.78.49,1.24l0,.11c.09.24.18.49.27.76,0,0,0,.08,0,.14s.14.84.26,2.06c1.19,1.64,2.28,3.3,3.24,4.94,9.54,16.31,11.44,39.67,4.73,58.13a55,55,0,0,1-17.93,25c-1.11.85-2.28,1.66-3.57,2.47a37.52,37.52,0,0,1-14.55,5.38q-.76.11-1.56.18h-.1l-.41,0c-.74.06-1.5.09-2.27.09h-.59c-.51,0-1,0-1.57-.05s-1.37-.09-2.15-.18a36.5,36.5,0,0,1-4.27-.79l-.13,0-.35-.1a40,40,0,0,1-12.72-5.89,51.47,51.47,0,0,1-16.93-20.07.89.89,0,0,1,.41-1.19.9.9,0,0,1,1.2.41A49.64,49.64,0,0,0,296.65,352a39.14,39.14,0,0,0,12.46,3c.67,0,1.37.08,2.08.08.4,0,.8,0,1.19,0l.63,0c8.33-.49,16.63-4.53,23.36-11.38a47.91,47.91,0,0,0,8.93-12.74,31.09,31.09,0,0,0,.55-11.57c-.07-.54-.16-1.08-.25-1.6a50.87,50.87,0,0,0-5.57-15.1,77.07,77.07,0,0,0-9.13-13.39l-.13.07c.5,1.57.91,3,1.24,4.45.25,1.06.47,2.18.68,3.34a51.32,51.32,0,0,1,.36,16.08v.16c-.14,1-.35,2.16-.63,3.42l-.06.27c-.07.29-.14.56-.21.83a1.05,1.05,0,0,1-.71.68s0,.08,0,.11v-.07l-.06-.06h-.07a.64.64,0,0,1-.24,0,.85.85,0,0,1-.54-.42.93.93,0,0,1-.06-.74c0-.18.09-.36.12-.55a29.65,29.65,0,0,0-2.19-7.72,44.57,44.57,0,0,0-5.79-9.54c-.85-1.11-1.71-2.15-2.53-3.1l-.45-.52a65.33,65.33,0,0,0-10.8-9.73,57,57,0,0,0-6.14-3.82l-.09.11a40.21,40.21,0,0,1,4.29,5.46c.31.47.6.94.88,1.43.05.07.2.37.2.37.13.23.26.47.39.74a20.07,20.07,0,0,1,.86,2,28,28,0,0,1,1.5,5.08,4.64,4.64,0,0,1,.11.65,12.65,12.65,0,0,1,.16,1.88c0,5.4-3.67,9.4-9.78,15.35a.89.89,0,0,1-1.25,0,.9.9,0,0,1,0-1.25,26.8,26.8,0,0,0,5.92-8.79,14.43,14.43,0,0,0,.26-9.92A18,18,0,0,0,305,293a20.63,20.63,0,0,0-1.35-2.2l-.06-.09c-.28-.39-.59-.81-.92-1.22a4.19,4.19,0,0,0-.26-.33,38.31,38.31,0,0,0-6.88-6.31,60.12,60.12,0,0,0-6.66-4.2l-.17-.09c-.85-.47-1.78-.95-3.12-1.62a48,48,0,0,1-7.57-1l-.14,0,.06.13c4.13,10.13,5.22,19.61,3.22,28.22a35.6,35.6,0,0,1-1,3.51,33.59,33.59,0,0,1-1.56,3.75.9.9,0,0,1-.81.5,1,1,0,0,1-.37-.08.89.89,0,0,1-.45-1.16,27.46,27.46,0,0,0,1.71-6.08c2.47-15.42-8-30.58-9.27-32.28l-.69-.5-.5-.43a2.76,2.76,0,0,1-.27-.23l-.18-.16c-.23-.23-.46-.46-.66-.68s-.47-.54-.68-.81a10.14,10.14,0,0,1-.83-1.27l-.05-.07-.06.06c-.84.68-1.6,1.25-2.37,1.77a32.27,32.27,0,0,1-4.89,2.82,22.79,22.79,0,0,1-9.63,2.3c-1.12,0-2.13,0-3-.06-1.71-.06-3.31-.18-4.76-.34a63.9,63.9,0,0,1-6.91-1.08A57.83,57.83,0,0,1,227.8,272c-1.65-.57-3.21-1.21-4.73-1.88a16.8,16.8,0,0,1-3.19,2.31c-1.5,1.66-14.59,16.65-11.49,32.24a24.17,24.17,0,0,0,2.11,6,.91.91,0,0,1-.36,1.19.86.86,0,0,1-.44.12.91.91,0,0,1-.77-.44,30,30,0,0,1-3.23-7.34c-2.47-8.58-1.12-18.09,4-28.26l.06-.13-.14,0a71.42,71.42,0,0,1-9.79,1.08,93.26,93.26,0,0,0-11.14,5.21c-.44.24-.87.48-1.29.73-5.55,3.26-9.51,6.68-11.79,10.17-4.42,6.77-2.28,13.86,6.35,21.07a.9.9,0,0,1,.12,1.24.94.94,0,0,1-.7.34.87.87,0,0,1-.55-.2c-11.48-9-14.79-12.78-10-23.08a21,21,0,0,1,1.82-3.08,40,40,0,0,1,6.59-7l-.08-.12a77,77,0,0,0-25.43,17.47,43.65,43.65,0,0,0-7.19,9.55,24.86,24.86,0,0,0-2.75,7.82l0,.08h0l-.09,0-.05.15a.78.78,0,0,1-.13.18.5.5,0,0,1-.07.08.85.85,0,0,1-.17.12l-.1.05-.16,0a.31.31,0,0,1-.15,0h-.07l-.12,0a1.09,1.09,0,0,1-.31-.13,1,1,0,0,1-.24-.23.92.92,0,0,1-.15-.3l-.06-.21a41.34,41.34,0,0,1-.35-19.73,47,47,0,0,1,2.59-8.32l-.12-.08a77.62,77.62,0,0,0-12,14,45.25,45.25,0,0,0-6.92,15.07c-.11.52-.22,1.05-.31,1.64a24.82,24.82,0,0,0,.68,11.42,49.09,49.09,0,0,0,12,13.42l0-.06,0,.14a50.32,50.32,0,0,0,29.08,10.72c.49,0,1,0,1.46,0a57.51,57.51,0,0,0,18.3-3.15,54.23,54.23,0,0,0,20.28-19.36.9.9,0,0,1,.77-.43.93.93,0,0,1,.46.12.88.88,0,0,1,.4.56.83.83,0,0,1-.1.67,56,56,0,0,1-21,20,57.78,57.78,0,0,1-9.55,4.19l-1.19.39-.33.1-.13,0c-1.57.48-3.18.88-4.78,1.21l-.7.13-.25.05-1,.17-.21,0c-.41.07-.85.15-1.28.2s-1.06.14-1.61.2l-1.41.13-.14,0h-.11c-1.16.09-2.31.14-3.42.15h-.54l-1.63,0-1,0-.47,0-1.77-.15c-.6-.05-1.19-.12-1.79-.2l-.15,0c-.52-.08-1.06-.15-1.6-.25l-1.09-.19-.2,0-.68-.14c-.52-.1-1.05-.22-1.56-.35l-.12,0a10.56,10.56,0,0,0-1.32-.26l.09-1.06h-.15v.06l-.22.86c-.55-.16-1.1-.32-1.65-.5s-1-.31-1.5-.49l-.28-.1-.43-.15-.36-.13-.66-.24-1.62-.65c-.46-.19-.93-.39-1.4-.61s-1.1-.49-1.65-.76l-.37-.18c-.57-.29-1.16-.59-1.74-.91l-.32-.18c-.3-.16-.61-.32-.9-.5-1-.6-2-1.17-2.86-1.75s-1.48-1-2.21-1.51c-.95-.67-1.91-1.41-2.93-2.25l-.79-.65-1.06-.94c-.55-.48-1.05-.94-1.53-1.41s-.77-.75-1.15-1.13l-.55-.57-.28-.3L120,342c-.17-.18-.34-.36-.49-.55l-.07-.07-.08-.12h0l-.07-.1c-.53-.59-1-1.18-1.5-1.79-.33-.39-.65-.8-1-1.22l-.11,0V338l-.09-.12c-.1-.13-.18-.25-.26-.37s-.42-.54-.63-.85l-.42-.59c-.36-.53-.73-1.08-1.07-1.62s-.64-1-1-1.54l-.18-.32c-.21-.36-.42-.71-.61-1.08-.08-.12-.38-.67-.38-.67a.53.53,0,0,1-.06-.13l-.33-.61-.16-.31-.21-.41-.06-.13c-.3-.59-.59-1.19-.86-1.8a58.17,58.17,0,0,1-4.92-26.72c0-1.19.16-2.47.31-3.9.2-1.68.42-3.17.69-4.55a57.78,57.78,0,0,1,9.82-23.09c.33-.45.66-.89,1-1.33s.55-.7.84-1.05.81-1,1.23-1.47l.94-1.09c.15-1.15.3-2,.31-2a.58.58,0,0,1,.06-.17c.2-.48.42-.95.65-1.42s.34-.68.55-1l0-.09a27.1,27.1,0,0,1,2-3c.17-.24.36-.48.55-.72.42-.54.9-1.1,1.52-1.77l.23-.24c.39-.41.81-.83,1.24-1.23.2-.2.43-.41.66-.61s.37-.32.58-.5c.45-.4.94-.78,1.43-1.16l.09-.07c.18-.14.37-.29.56-.42a47.75,47.75,0,0,1,10-5.54l1.34-.53.1,0,.57-.21.18-.07,1.15-.41.65-.21a6.48,6.48,0,0,1,.62-.2c.4-.14.81-.27,1.22-.39l.24-.07V242l-2-.15h-.16a65.83,65.83,0,0,1-10.46-1.64l-.15,0c-.87-.23-1.72-.49-2.5-.77a.89.89,0,0,1,.29-1.73,102.5,102.5,0,0,0,14.3-1.17c4.79-.71,9.89-1.75,15.15-3.07,6.34-1.6,13.15-3.69,19.69-6.06l0-.14c-1.43.18-3,.44-4.87.8a77.64,77.64,0,0,0-9.57,2.43l-.3.09h0l-1,.34a.87.87,0,0,1-.32.06.89.89,0,0,1-.52-1.6c1-.75,2-1.47,3-2.13a92.83,92.83,0,0,1,16.91-8.12l.22-.09-5.47-1.28a.88.88,0,0,1-.69-.84.89.89,0,0,1,.63-.88,34.73,34.73,0,0,1,9.14-1.07h1.09L139.5,117-6.93,133V442.5H445V120.86Z" />
    </clipPath>
  </defs>
  <g class="GUNDAN_MONKEY_OUTFIT_MONKEY_OUTFIT_36_cls-2">
    <g id="Outfit">
      <g class="GUNDAN_MONKEY_OUTFIT_MONKEY_OUTFIT_36_cls-3">
        <path class="GUNDAN_MONKEY_OUTFIT_MONKEY_OUTFIT_36_cls-4" d="M203.43,331.59c-.15.22-.31.42-.44.63a23.34,23.34,0,0,0-2.81,5.22c-1.81-1.65-3.56-3.31-5.24-4.94-4.6-4.46-8.79-8.83-12.51-13a224.68,224.68,0,0,1-22-28.28l2.35-6.16,1.54-5a160.42,160.42,0,0,0,40.93,20.27C201.78,304.56,195.21,315.58,203.43,331.59Z" />
        <path class="GUNDAN_MONKEY_OUTFIT_MONKEY_OUTFIT_36_cls-4" d="M349,512.63c-5.18-.18-11.18-.66-18.07-1.55-4-8.35-2.71-49.88-2.71-49.88,1.09-4.86,1.75-8.76,1.52-10.92a2.8,2.8,0,0,0-.1-.59l.15,0c0-.05,0-.11,0-.15a353.1,353.1,0,0,0,9.68-43.59c-1.23,9.27-3.74,33.51.31,54.4,2-21,8.13-27.86,8.13-27.86S339,478.52,349,512.63Z" />
        <path class="GUNDAN_MONKEY_OUTFIT_MONKEY_OUTFIT_36_cls-5" d="M339.91,340.77c5.57,26.37,2.37,65.29-10.08,108.74,0,.05,0,.1,0,.15l-.15,0a5.16,5.16,0,0,0-.95-2.1,1.09,1.09,0,0,0-.17-.22A9.49,9.49,0,0,0,326,445c2.59-15.46,6.41-50.94,2.77-115.08,4.61,2.94,8.74,6.23,10.9,9.52C339.72,339.87,339.82,340.32,339.91,340.77Z" />
        <path class="GUNDAN_MONKEY_OUTFIT_MONKEY_OUTFIT_36_cls-6" d="M328.72,329.92c3.64,64.14-.18,99.62-2.77,115.08-4-2.67-10.46-3.72-16.05-2.05,4.44-26.84,5.36-65.06,4-97.86a20.49,20.49,0,0,1,5.13,3.24c.33-5.51-2.32-12.8-6-19.85-.17-2.47-.35-4.87-.55-7.22,0-.28-.05-.55-.08-.84,14.76-.89,16.32,8.73,16.32,8.73C328.7,329.4,328.71,329.67,328.72,329.92Z" />
        <path class="GUNDAN_MONKEY_OUTFIT_MONKEY_OUTFIT_36_cls-4" d="M179.65,316.39c-4.4.93-20.83,5.23-27.44,19.2l-.19.1c-.6-9.11-1.61-29.53.52-38.53,2.8-11.78,10.2-12.07,10.2-12.07l-2.35,6.16A218.3,218.3,0,0,0,179.65,316.39Z" />
        <path class="GUNDAN_MONKEY_OUTFIT_MONKEY_OUTFIT_36_cls-7" d="M312.44,321.26c.2,2.35.38,4.75.55,7.22a107.2,107.2,0,0,0-5.64-9.4S309.37,319.88,312.44,321.26Z" />
        <path class="GUNDAN_MONKEY_OUTFIT_MONKEY_OUTFIT_36_cls-5" d="M313,328.48a107.2,107.2,0,0,0-5.64-9.4c-5.42-8.09-11.13-16.35-13.24-16.65,1.7,4.95,2.5,6.75,2.5,6.75v0c-.3,1-11.36,40.71-46.12,63.29-22.4-11.07-41.1-26-55.55-40h0c-4.6-4.46-8.79-8.83-12.51-13-1-1.07-1.88-2.11-2.78-3.14a218.3,218.3,0,0,1-19.26-25.14l2.35-6.16s-7.4.29-10.2,12.07c0,0-2.33,3.42-10.72,9.24-.37,11-.39,23.76,0,37.24.77,31,3.5,65.63,8.5,89.85,5.91,1.26,11.1,5,13,12.35,2,7.76,0,14.34-2.85,19.85h0c-3.36,6.58-7.87,11.63-8.05,15.38-.35,6.87-3.69,9.84,1.61,28.12a343.46,343.46,0,0,0,43,9.28l.2,0c6.53,1,13.36,1.78,20.4,2.34,0,0,0-.56.1-1.7-.08,1.14-.1,1.7-.1,1.7,28.35,2.22,60,.39,88.39-11.33l1.13-.48c3.77-14.58,2.57-17.53,1.55-22.87-1.17-6.21-13-16.82-9.1-32.4A14.54,14.54,0,0,1,309.9,443c4.44-26.84,5.36-65.06,4-97.86a20.49,20.49,0,0,1,5.13,3.24C319.36,342.82,316.71,335.53,313,328.48Zm-146.17,19a1.85,1.85,0,0,0-.66,2.23A1.85,1.85,0,0,1,166.82,347.53Zm8.37,7.53c-1.1-.5-2.16-1-3.16-1.51C173,354.05,174.09,354.56,175.19,355.06Zm13,5.32q-2.59-1-5.06-1.93,2.46,1,5.06,1.93c4.1,1.53,8.42,3,12.77,4.47C196.62,363.4,192.3,361.91,188.2,360.38ZM218.69,509.6c.47-3.55,1.13-8,2.05-13.36C219.82,501.63,219.16,506.05,218.69,509.6Zm-.89,7.86c0-.4.08-.83.12-1.3C217.88,516.63,217.84,517.06,217.8,517.46Zm.28-2.83c.1-.88.21-1.85.34-2.93C218.29,512.78,218.18,513.75,218.08,514.63ZM221.14,494c.16-.9.32-1.83.5-2.77C221.46,492.13,221.3,493.06,221.14,494Zm8.29-58.1c-.18,5.55-.51,11.16-1,16.65-.11,1.22-.24,2.43-.37,3.63.13-1.2.26-2.41.37-3.63.52-5.49.85-11.1,1-16.65s.23-11,.19-16.18C229.66,424.87,229.62,430.33,229.43,435.86Zm-1.11-47.2q.06.76.12,1.62Q228.38,389.42,228.32,388.66Zm.34,4.82c0,.68.08,1.4.13,2.14C228.74,394.88,228.7,394.16,228.66,393.48Zm.14,2.29c.11,2,.23,4.08.33,6.37C229,399.85,228.91,397.72,228.8,395.77Zm.46,9.39c0,.95.07,1.92.11,2.91C229.33,407.08,229.3,406.11,229.26,405.16Zm.32,11.11c0,1.11,0,2.23,0,3.36C229.61,418.5,229.59,417.38,229.58,416.27Zm-1.69-32.86h0a100.11,100.11,0,0,0,11.46-4.68A98.33,98.33,0,0,1,227.89,383.41Zm12.67-5.26c-7.44-3.23-22.9-7.76-38.24-12.85,15.34,5.09,30.8,9.62,38.24,12.85Z" />
        <path class="GUNDAN_MONKEY_OUTFIT_MONKEY_OUTFIT_36_cls-4" d="M152,335.69a35.22,35.22,0,0,0-10.24,7.95c-.35-13.48-.33-26.28,0-37.24,8.39-5.82,10.72-9.24,10.72-9.24C150.41,306.16,151.42,326.58,152,335.69Z" />
        <path class="GUNDAN_MONKEY_OUTFIT_MONKEY_OUTFIT_36_cls-5" d="M90.11,334.72c8-4.32,20.1-10.09,35.88-18.78-.3,63.56,5.08,101.78,8.45,119.37h0a17.33,17.33,0,0,0-5.29,3.49,11.72,11.72,0,0,0-3.55,6l-.19,0c-2.78-9.27-15.9-30.77-15.9-30.77s10.34-39.16-20.42-72a40.17,40.17,0,0,0-3.64,4.34S81.4,339.45,90.11,334.72Z" />
        <path class="GUNDAN_MONKEY_OUTFIT_MONKEY_OUTFIT_36_cls-4" d="M90.11,334.72c8-4.32,20.1-10.09,35.88-18.78-.3,63.56,5.08,101.78,8.45,119.37h0a17.33,17.33,0,0,0-5.29,3.49,11.72,11.72,0,0,0-3.55,6l-.19,0c-2.78-9.27-15.9-30.77-15.9-30.77s10.34-39.16-20.42-72a40.17,40.17,0,0,0-3.64,4.34S81.4,339.45,90.11,334.72Z" />
        <path class="GUNDAN_MONKEY_OUTFIT_MONKEY_OUTFIT_36_cls-6" d="M150.28,433.49a26.65,26.65,0,0,0-15.84,1.82c-3.37-17.59-8.75-55.81-8.45-119.37,0,0,1-9.67,15.83-9.54C140.62,342.54,143.11,398.74,150.28,433.49Z" />
        <path class="GUNDAN_MONKEY_OUTFIT_MONKEY_OUTFIT_36_cls-8" d="M288.49,283.69a67.55,67.55,0,0,1-42.17,21.48h0c-14.24,1.75-28.54-.78-41.11-4.82a160.42,160.42,0,0,1-40.93-20.27l-1.54,5-2.35,6.16a224.68,224.68,0,0,0,22,28.28c3.72,4.14,7.91,8.51,12.51,13,1.68,1.63,3.43,3.29,5.24,4.94,13.63,12.51,30.53,25.27,50.31,35.05,34.76-22.57,45.82-62.27,46.11-63.29h0v0s-.8-1.8-2.5-6.75C292.63,298.15,291.35,293.56,288.49,283.69Zm-38.58,26.25-.21-.28Zm3.54,4.69-.22-.3Z" />
        <path class="GUNDAN_MONKEY_OUTFIT_MONKEY_OUTFIT_36_cls-8" d="M375.2,461.94c-5-22.37.41-59.29-6.8-91.1A37.18,37.18,0,0,0,357,351.18a59.2,59.2,0,0,0-17-10.41c3.44,16.27,3.54,37.33.17,61.27-.17,1.27-.35,2.53-.56,3.81a.17.17,0,0,1,0,.07,353.1,353.1,0,0,1-9.68,43.59s0,.1,0,.15l-.15,0a2.8,2.8,0,0,1,.1.59c.23,2.16-.43,6.06-1.52,10.92,0,0-1.28,41.53,2.71,49.88,6.89.89,12.89,1.37,18.07,1.55,22.29.78,29.79-3.84,29.79-3.84A178.09,178.09,0,0,0,375.2,461.94Z" />
        <path class="GUNDAN_MONKEY_OUTFIT_MONKEY_OUTFIT_36_cls-8" d="M125.93,451c-.11-.49-.2-1-.28-1.45v0a12.94,12.94,0,0,1,0-4.76l-.19,0c-2.78-9.27-15.9-30.77-15.9-30.77a51.54,51.54,0,0,0,1-5.91A81.4,81.4,0,0,0,89.09,342a40.17,40.17,0,0,0-3.64,4.34,64.79,64.79,0,0,0-12.94,36.15c-.9,25-2.74,49.38-3.92,67.18s-2.93,54.17-2.93,54.17,21.57,10.78,46.15,8a71.38,71.38,0,0,0,11.59-2.32c6.92-29.58,3.62-52.55,2.53-58.46Z" />
        <path class="GUNDAN_MONKEY_OUTFIT_MONKEY_OUTFIT_36_cls-4" d="M111.81,511.84c-24.58,2.8-46.15-8-46.15-8s1.74-36.38,2.93-54.17,3-42.21,3.92-67.18a64.79,64.79,0,0,1,12.94-36.15A40.17,40.17,0,0,1,89.09,342a81.4,81.4,0,0,1,21.47,66.08c-6.22,4.75-13.09,15.54-13.43,40-1.6,29-15.21,56.59,13.83,63.51Z" />
        <path class="GUNDAN_MONKEY_OUTFIT_MONKEY_OUTFIT_36_cls-9" d="M328.69,447.59a5.16,5.16,0,0,1,.95,2.1,2.8,2.8,0,0,1,.1.59c.23,2.16-.43,6.06-1.52,10.92-2.82,12.49-8.55,31.24-9.67,42.32q-5.32,2.89-10.85,5.26l-.62.26-1.13.48c-28.38,11.72-60,13.55-88.39,11.33A334.31,334.31,0,0,1,154,509.2c-5.3-18.28-2-21.25-1.61-28.12s15.25-18.2,10.9-35.24c-1.87-7.36-7.06-11.09-13-12.35a26.65,26.65,0,0,0-15.84,1.82" />
        <path class="GUNDAN_MONKEY_OUTFIT_MONKEY_OUTFIT_36_cls-9" d="M125.41,444.78c-2.78-9.27-15.9-30.77-15.9-30.77s10.34-39.16-20.42-72c-.39-.44-.8-.87-1.22-1.29" />
        <path class="GUNDAN_MONKEY_OUTFIT_MONKEY_OUTFIT_36_cls-9" d="M89.09,342a40.17,40.17,0,0,0-3.64,4.34,64.79,64.79,0,0,0-12.94,36.15c-.9,25-2.74,49.38-3.92,67.18s-2.93,54.17-2.93,54.17,27,14.48,57.74,5.66c6.92-29.58,3.62-52.55,2.53-58.46v0c-.15-.84-.26-1.33-.28-1.45v0" />
        <path class="GUNDAN_MONKEY_OUTFIT_MONKEY_OUTFIT_36_cls-9" d="M141.82,306.4c8.39-5.82,10.72-9.24,10.72-9.24" />
        <path class="GUNDAN_MONKEY_OUTFIT_MONKEY_OUTFIT_36_cls-9" d="M85.45,346.36s-4-6.91,4.66-11.64c8-4.32,20.1-10.09,35.88-18.78" />
        <path class="GUNDAN_MONKEY_OUTFIT_MONKEY_OUTFIT_36_cls-9" d="M250.49,372.49c-22.4-11.07-41.1-26-55.55-40-4.6-4.46-8.79-8.83-12.51-13a224.68,224.68,0,0,1-22-28.28l2.35-6.16s-7.4.29-10.2,12.07c-2.21,9.37-1,31.11-.45,39.59a3.32,3.32,0,0,0,3.73,3c5.51-.67,16.74-1.91,27.59-2.3" />
        <path class="GUNDAN_MONKEY_OUTFIT_MONKEY_OUTFIT_36_cls-9" d="M194.82,332.61a104.54,104.54,0,0,0-11.33,5,145,145,0,0,0-16.67,9.89,1.84,1.84,0,0,0,0,3.06c16.07,10.48,59.5,21.4,73.72,27.56h0" />
        <path class="GUNDAN_MONKEY_OUTFIT_MONKEY_OUTFIT_36_cls-9" d="M246.32,305.18c-.15.39-9.25,26.38-21.7,36.88-14.34-4-38.34-19.94-42.19-22.53l-.53-.37" />
        <path class="GUNDAN_MONKEY_OUTFIT_MONKEY_OUTFIT_36_cls-9" d="M296.61,309.2c-.27.61-8.77,22.55-24.39,30.17-18.28-24-25.6-33.8-25.9-34.19" />
        <path class="GUNDAN_MONKEY_OUTFIT_MONKEY_OUTFIT_36_cls-9" d="M162.74,285.09l1.54-5s41.27,30.09,82,25.09h0a67.55,67.55,0,0,0,42.17-21.48c2.86,9.87,4.14,14.46,5.62,18.74,1.7,4.95,2.5,6.75,2.5,6.75" />
        <path class="GUNDAN_MONKEY_OUTFIT_MONKEY_OUTFIT_36_cls-9" d="M296.61,309.18v0c-.3,1-11.36,40.71-46.12,63.29a101,101,0,0,1-22.6,10.92s5.19,53.65-2.33,88.27-8,49.17-8,49.17" />
        <path class="GUNDAN_MONKEY_OUTFIT_MONKEY_OUTFIT_36_cls-9" d="M232.68,387.07s46.65,4.59,72.37-21.74a101.9,101.9,0,0,0-8.23-23.3,63.55,63.55,0,0,0-4.48-7.77" />
        <path class="GUNDAN_MONKEY_OUTFIT_MONKEY_OUTFIT_36_cls-9" d="M296.82,342s9.31-.47,17.08,3.06a20.49,20.49,0,0,1,5.13,3.24c.33-5.51-2.32-12.8-6-19.85a107.2,107.2,0,0,0-5.64-9.4c-5.42-8.09-11.13-16.35-13.24-16.65" />
        <path class="GUNDAN_MONKEY_OUTFIT_MONKEY_OUTFIT_36_cls-9" d="M329.79,449.66c0-.05,0-.1,0-.15,12.45-43.45,15.65-82.37,10.08-108.74-.09-.45-.19-.9-.29-1.33-2.16-3.29-6.29-6.58-10.9-9.52" />
        <path class="GUNDAN_MONKEY_OUTFIT_MONKEY_OUTFIT_36_cls-9" d="M312.44,321.26c-3.07-1.38-5.09-2.18-5.09-2.18" />
        <path class="GUNDAN_MONKEY_OUTFIT_MONKEY_OUTFIT_36_cls-9" d="M339.91,340.77a59.2,59.2,0,0,1,17,10.41,37.18,37.18,0,0,1,11.44,19.66c7.21,31.81,1.84,68.73,6.8,91.1a178.09,178.09,0,0,1,3.59,46.85s-11.41,7-47.86,2.29c-4-8.35-2.71-49.88-2.71-49.88" />
        <path class="GUNDAN_MONKEY_OUTFIT_MONKEY_OUTFIT_36_cls-9" d="M134.44,435.32h0c-3.37-17.59-8.75-55.81-8.45-119.37,0,0,1-9.67,15.83-9.54-1.2,36.14,1.29,92.34,8.46,127.09" />
        <path class="GUNDAN_MONKEY_OUTFIT_MONKEY_OUTFIT_36_cls-9" d="M313.9,345.09c1.36,32.8.44,71-4,97.86" />
        <path class="GUNDAN_MONKEY_OUTFIT_MONKEY_OUTFIT_36_cls-9" d="M313,328.48c-.17-2.47-.35-4.87-.55-7.22,0-.28-.05-.55-.08-.84,14.76-.89,16.32,8.73,16.32,8.73,0,.25,0,.52,0,.77,3.64,64.14-.18,99.62-2.77,115.08" />
        <path class="GUNDAN_MONKEY_OUTFIT_MONKEY_OUTFIT_36_cls-10" d="M319.86,356.44a1.88,1.88,0,0,0,1.9,1.89h.12a1.89,1.89,0,0,0,1.8-1.88v-.27l0-3.78v-.21a1.9,1.9,0,0,0-1.92-1.89,1.88,1.88,0,0,0-1.91,1.88v.27l0,3.78Z" />
        <path class="GUNDAN_MONKEY_OUTFIT_MONKEY_OUTFIT_36_cls-10" d="M319.87,352.45a19.67,19.67,0,0,0-8.14,2.1,1.9,1.9,0,0,0-1,1.76c.26,4.47-.12,21.77-.13,21.94a1.88,1.88,0,0,0,1.1,1.76c.33.15,2.72,1.11,9.59.73a93.31,93.31,0,0,0,9.74-1.11,1.91,1.91,0,0,0,1.6-1.65c1.13-9.7.21-22.39.18-22.93a1.9,1.9,0,0,0-1.49-1.71,46.34,46.34,0,0,0-7.66-.94l0,3.78a44.21,44.21,0,0,1,5.43.58,143.85,143.85,0,0,1-.1,19.36c-8.33,1.24-12.64,1-14.52.69.09-4,.28-14.64.15-19.46a17.44,17.44,0,0,1,5.21-1.12Z" />
        <path class="GUNDAN_MONKEY_OUTFIT_MONKEY_OUTFIT_36_cls-9" d="M323.68,356.18v.27a1.89,1.89,0,0,1-1.8,1.88h-.12a1.88,1.88,0,0,1-1.9-1.89v-.21" />
        <path class="GUNDAN_MONKEY_OUTFIT_MONKEY_OUTFIT_36_cls-9" d="M319.87,352.45a19.67,19.67,0,0,0-8.14,2.1,1.9,1.9,0,0,0-1,1.76c.26,4.47-.12,21.77-.13,21.94a1.88,1.88,0,0,0,1.1,1.76c.33.15,2.72,1.11,9.59.73a93.31,93.31,0,0,0,9.74-1.11,1.91,1.91,0,0,0,1.6-1.65c1.13-9.7.21-22.39.18-22.93a1.9,1.9,0,0,0-1.49-1.71,46.34,46.34,0,0,0-7.66-.94l0,3.78a44.21,44.21,0,0,1,5.43.58,143.85,143.85,0,0,1-.1,19.36c-8.33,1.24-12.64,1-14.52.69.09-4,.28-14.64.15-19.46a17.44,17.44,0,0,1,5.21-1.12Z" />
        <path class="GUNDAN_MONKEY_OUTFIT_MONKEY_OUTFIT_36_cls-9" d="M319.87,352.45v-.27a1.88,1.88,0,0,1,1.91-1.88,1.9,1.9,0,0,1,1.92,1.89v.21" />
        <ellipse class="GUNDAN_MONKEY_OUTFIT_MONKEY_OUTFIT_36_cls-11" cx="240.66" cy="409.3" rx="6.19" ry="6.27" transform="translate(-169.72 648.11) rotate(-89.74)" />
        <ellipse class="GUNDAN_MONKEY_OUTFIT_MONKEY_OUTFIT_36_cls-12" cx="242.38" cy="408.17" rx="2.7" ry="3.65" transform="translate(-192.14 217) rotate(-35.55)" />
        <ellipse class="GUNDAN_MONKEY_OUTFIT_MONKEY_OUTFIT_36_cls-9" cx="240.66" cy="409.3" rx="6.19" ry="6.27" transform="translate(-169.72 648.11) rotate(-89.74)" />
        <ellipse class="GUNDAN_MONKEY_OUTFIT_MONKEY_OUTFIT_36_cls-11" cx="294.92" cy="409.54" rx="6.19" ry="6.27" transform="translate(-115.94 702.62) rotate(-89.74)" />
        <ellipse class="GUNDAN_MONKEY_OUTFIT_MONKEY_OUTFIT_36_cls-12" cx="296.64" cy="408.42" rx="2.7" ry="3.65" transform="matrix(0.81, -0.58, 0.58, 0.81, -182.17, 248.6)" />
        <ellipse class="GUNDAN_MONKEY_OUTFIT_MONKEY_OUTFIT_36_cls-9" cx="294.92" cy="409.54" rx="6.19" ry="6.27" transform="translate(-115.94 702.62) rotate(-89.74)" />
        <path class="GUNDAN_MONKEY_OUTFIT_MONKEY_OUTFIT_36_cls-10" d="M136.39,355.7a1.89,1.89,0,0,1-1.8,2h-.12a1.9,1.9,0,0,1-1.9-1.79l0-.27-.21-3.77v-.21a1.91,1.91,0,0,1,3.82-.21l0,.27.21,3.78Z" />
        <path class="GUNDAN_MONKEY_OUTFIT_MONKEY_OUTFIT_36_cls-10" d="M136.17,351.72a19.52,19.52,0,0,1,8.23,1.68,1.92,1.92,0,0,1,1.06,1.71c0,4.47,1.27,21.73,1.29,21.91a1.91,1.91,0,0,1-1,1.81c-.31.16-2.65,1.25-9.53,1.22a95.65,95.65,0,0,1-9.79-.61,1.92,1.92,0,0,1-1.68-1.57c-1.64-9.62-1.39-22.35-1.39-22.89a1.9,1.9,0,0,1,1.4-1.78,45.51,45.51,0,0,1,7.6-1.33l.21,3.77a46.43,46.43,0,0,0-5.39.86,145.89,145.89,0,0,0,1.12,19.33c8.39.81,12.68.33,14.54-.05-.3-4-1-14.62-1.17-19.43a17.27,17.27,0,0,0-5.27-.85Z" />
        <path class="GUNDAN_MONKEY_OUTFIT_MONKEY_OUTFIT_36_cls-9" d="M132.55,355.64l0,.27a1.9,1.9,0,0,0,1.9,1.79h.12a1.89,1.89,0,0,0,1.8-2v-.2" />
        <path class="GUNDAN_MONKEY_OUTFIT_MONKEY_OUTFIT_36_cls-9" d="M136.17,351.72a19.52,19.52,0,0,1,8.23,1.68,1.92,1.92,0,0,1,1.06,1.71c0,4.47,1.27,21.73,1.29,21.91a1.91,1.91,0,0,1-1,1.81c-.31.16-2.65,1.25-9.53,1.22a95.65,95.65,0,0,1-9.79-.61,1.92,1.92,0,0,1-1.68-1.57c-1.64-9.62-1.39-22.35-1.39-22.89a1.9,1.9,0,0,1,1.4-1.78,45.51,45.51,0,0,1,7.6-1.33l.21,3.77a46.43,46.43,0,0,0-5.39.86,145.89,145.89,0,0,0,1.12,19.33c8.39.81,12.68.33,14.54-.05-.3-4-1-14.62-1.17-19.43a17.27,17.27,0,0,0-5.27-.85Z" />
        <path class="GUNDAN_MONKEY_OUTFIT_MONKEY_OUTFIT_36_cls-9" d="M136.17,351.72l0-.27a1.91,1.91,0,0,0-3.82.21v.21" />
      </g>
    </g>
  </g>
</svg>