<svg id="Jewelry_Front" data-name="Jewelry Front" xmlns="http://www.w3.org/2000/svg" viewBox="0 0 432 432">
  <defs>
    <style>.GUNDAN_OTTER_JEWELRY_GUNDAN_OTTER_JEWELRY_7_cls-1{fill:#aeaeaf;}.GUNDAN_OTTER_JEWELRY_GUNDAN_OTTER_JEWELRY_7_cls-2{fill:#4a4a4a;}.GUNDAN_OTTER_JEWELRY_GUNDAN_OTTER_JEWELRY_7_cls-11,.GUNDAN_OTTER_JEWELRY_GUNDAN_OTTER_JEWELRY_7_cls-3{fill:#8b8b8b;}.GUNDAN_OTTER_JEWELRY_GUNDAN_OTTER_JEWELRY_7_cls-12,.GUNDAN_OTTER_JEWELRY_GUNDAN_OTTER_JEWELRY_7_cls-17,.GUNDAN_OTTER_JEWELRY_GUNDAN_OTTER_JEWELRY_7_cls-4,.GUNDAN_OTTER_JEWELRY_GUNDAN_OTTER_JEWELRY_7_cls-5{fill:none;}.GUNDAN_OTTER_JEWELRY_GUNDAN_OTTER_JEWELRY_7_cls-11,.GUNDAN_OTTER_JEWELRY_GUNDAN_OTTER_JEWELRY_7_cls-12,.GUNDAN_OTTER_JEWELRY_GUNDAN_OTTER_JEWELRY_7_cls-17,.GUNDAN_OTTER_JEWELRY_GUNDAN_OTTER_JEWELRY_7_cls-4,.GUNDAN_OTTER_JEWELRY_GUNDAN_OTTER_JEWELRY_7_cls-5{stroke:#000;stroke-linecap:round;stroke-linejoin:round;}.GUNDAN_OTTER_JEWELRY_GUNDAN_OTTER_JEWELRY_7_cls-4{stroke-width:0.74px;}.GUNDAN_OTTER_JEWELRY_GUNDAN_OTTER_JEWELRY_7_cls-5{stroke-width:0.7px;}.GUNDAN_OTTER_JEWELRY_GUNDAN_OTTER_JEWELRY_7_cls-6{fill:#254922;}.GUNDAN_OTTER_JEWELRY_GUNDAN_OTTER_JEWELRY_7_cls-7{fill:#45793b;}.GUNDAN_OTTER_JEWELRY_GUNDAN_OTTER_JEWELRY_7_cls-8{fill:#92cb7b;}.GUNDAN_OTTER_JEWELRY_GUNDAN_OTTER_JEWELRY_7_cls-9{fill:silver;}.GUNDAN_OTTER_JEWELRY_GUNDAN_OTTER_JEWELRY_7_cls-10{fill:#878c84;}.GUNDAN_OTTER_JEWELRY_GUNDAN_OTTER_JEWELRY_7_cls-11{stroke-width:0.6px;}.GUNDAN_OTTER_JEWELRY_GUNDAN_OTTER_JEWELRY_7_cls-12{stroke-width:0.95px;}.GUNDAN_OTTER_JEWELRY_GUNDAN_OTTER_JEWELRY_7_cls-13{fill:#b7866d;}.GUNDAN_OTTER_JEWELRY_GUNDAN_OTTER_JEWELRY_7_cls-14{fill:#f49092;}.GUNDAN_OTTER_JEWELRY_GUNDAN_OTTER_JEWELRY_7_cls-15{fill:#e12d2b;}.GUNDAN_OTTER_JEWELRY_GUNDAN_OTTER_JEWELRY_7_cls-16{fill:#9e1d20;}.GUNDAN_OTTER_JEWELRY_GUNDAN_OTTER_JEWELRY_7_cls-17{stroke-width:0.76px;}</style>
  </defs>
  <circle cx="236.56" cy="350.19" r="3.01" />
  <path d="M137.09,285.17l.84-3.82a5.14,5.14,0,0,0-4.29,1.42" />
  <path class="GUNDAN_OTTER_JEWELRY_GUNDAN_OTTER_JEWELRY_7_cls-1" d="M190.35,334.55s-2.55-2-4.76-3.34c0,0,0,0,0,0a3.64,3.64,0,0,0,1.09-.88,3.11,3.11,0,0,0,.58-1.05,17.62,17.62,0,0,1,3.39,2.1c.4.37.73.68,1,.95A3.46,3.46,0,0,0,190.35,334.55Z" />
  <path class="GUNDAN_OTTER_JEWELRY_GUNDAN_OTTER_JEWELRY_7_cls-1" d="M176.1,326.59c.48.87,4.42,3.33,6.89,3.17h0a2,2,0,0,0,1.46-.6,1.56,1.56,0,0,0,.44-.94h.1s1,.43,2.28,1a3.11,3.11,0,0,1-.58,1.05,3.64,3.64,0,0,1-1.09.88s0,0,0,0a7.62,7.62,0,0,1-6.44-.32c-3-1.4-5.26-3.06-5.19-4.84a3.54,3.54,0,0,1,1.29-2.25,5.57,5.57,0,0,1,.95,1.14,1.45,1.45,0,0,0-.28,1A1.42,1.42,0,0,0,176.1,326.59Z" />
  <path class="GUNDAN_OTTER_JEWELRY_GUNDAN_OTTER_JEWELRY_7_cls-1" d="M139,290.64a1.51,1.51,0,0,1-.61.77,3.17,3.17,0,0,1-2.84.46,1.75,1.75,0,0,1,.19-.67,1.89,1.89,0,0,1,.81-.78h0a4.92,4.92,0,0,0-.23-1.38,4.69,4.69,0,0,0-2.37,1.56s-.47-1-1.12-2.32l0,0c-.78-1.91-.26-5.27,2.28-6h0c2.57-.81,1.83,2.63,1.92,2.76a10.58,10.58,0,0,1,1.9,3.68A3.11,3.11,0,0,1,139,290.64Z" />
  <path class="GUNDAN_OTTER_JEWELRY_GUNDAN_OTTER_JEWELRY_7_cls-2" d="M139,290.64a2.94,2.94,0,0,0-.08-2,11.18,11.18,0,0,1,5.28,4.15,6,6,0,0,1,.91,3.17c-.11-.07-.18-.15-.26-.2a5.65,5.65,0,0,0-2.26-1.14A8.34,8.34,0,0,0,139,290.64Z" />
  <path class="GUNDAN_OTTER_JEWELRY_GUNDAN_OTTER_JEWELRY_7_cls-1" d="M133.9,290.58a4.6,4.6,0,0,1,2.37-1.54,4.8,4.8,0,0,1,.23,1.36h0a1.94,1.94,0,0,0-.81.8,1.42,1.42,0,0,0-.19.65c0,.85,1.65,3.83,3.65,5a2.6,2.6,0,0,0,2.4.36,2.79,2.79,0,0,0,.72-.46c.2.12,1,.66,1.94,1.36a4.06,4.06,0,0,1-1.29.94,4.59,4.59,0,0,1-1.21.37,6.59,6.59,0,0,1-5.82-2.62C133.94,294.46,132.87,292.15,133.9,290.58Z" />
  <path class="GUNDAN_OTTER_JEWELRY_GUNDAN_OTTER_JEWELRY_7_cls-1" d="M141.72,299.46a4.59,4.59,0,0,0,1.21-.37,4.06,4.06,0,0,0,1.29-.94h0a14.63,14.63,0,0,1,2.83,2.57c.32.42.56.78.76,1.08a3.78,3.78,0,0,0-1.8,2h0A51.47,51.47,0,0,0,141.72,299.46Z" />
  <path class="GUNDAN_OTTER_JEWELRY_GUNDAN_OTTER_JEWELRY_7_cls-3" d="M141.56,297.25a2.6,2.6,0,0,1-2.4-.36,1.12,1.12,0,0,1,.17-1.19,3.28,3.28,0,0,1,3.21-1.05,5.65,5.65,0,0,1,2.26,1.14c.08,0,.15.13.26.2h0a27.47,27.47,0,0,1,5.16,4.88,3.29,3.29,0,0,1,.74,1.86,1.38,1.38,0,0,1-.36.86,3,3,0,0,1-2.6,1.06,1.35,1.35,0,0,1,0-.66,1.64,1.64,0,0,1,.51-.94h0a4.9,4.9,0,0,0-.66-1.26c-.2-.3-.44-.66-.76-1.08a14.63,14.63,0,0,0-2.83-2.57h0c-.92-.7-1.74-1.24-1.94-1.36A2.79,2.79,0,0,1,141.56,297.25Z" />
  <path class="GUNDAN_OTTER_JEWELRY_GUNDAN_OTTER_JEWELRY_7_cls-2" d="M163.92,314.28a3,3,0,0,0-.54-1.9h0a12.33,12.33,0,0,1,6.16,3.22,6.42,6.42,0,0,1,1.63,3l-.3-.16a5.85,5.85,0,0,0-2.48-.75A9.34,9.34,0,0,0,163.92,314.28Z" />
  <path class="GUNDAN_OTTER_JEWELRY_GUNDAN_OTTER_JEWELRY_7_cls-2" d="M155.49,305.56a9.75,9.75,0,0,0-4.53-2.82,3.29,3.29,0,0,0-.74-1.86,12.7,12.7,0,0,1,6.44,2.8,5.8,5.8,0,0,1,2,3.49c-.08-.08-.16-.14-.21-.2A4.72,4.72,0,0,0,155.49,305.56Z" />
  <path class="GUNDAN_OTTER_JEWELRY_GUNDAN_OTTER_JEWELRY_7_cls-1" d="M155.5,310.87a7.86,7.86,0,0,1-5.51-1.5c-2.65-1.86-4.44-3.84-4-5.57a3.78,3.78,0,0,1,1.8-2,4.9,4.9,0,0,1,.66,1.26h0a1.64,1.64,0,0,0-.51.94,1.35,1.35,0,0,0,0,.66c.25.85,3,3.48,5.38,4.12,0,0,0,0,0,0a2.48,2.48,0,0,0,2.2-.26,1.48,1.48,0,0,0,.5-.54c.38.3,1.12.89,1.89,1.56h0a3.68,3.68,0,0,1-.45.43A4.08,4.08,0,0,1,155.5,310.87Z" />
  <path class="GUNDAN_OTTER_JEWELRY_GUNDAN_OTTER_JEWELRY_7_cls-3" d="M153.4,308.78s0,0,0,0c-.71-.83-1-1.58-.36-2.24a3.25,3.25,0,0,1,2.47-1,4.72,4.72,0,0,1,3,1.41c.05.06.13.12.21.2h0a26.64,26.64,0,0,1,4.7,5.19h0a3,3,0,0,1,.54,1.9h0a1.37,1.37,0,0,1-.43.83,3,3,0,0,1-2.67.9,1.25,1.25,0,0,1,0-.67,1.78,1.78,0,0,1,.6-.91,5.12,5.12,0,0,0-.55-1.31c-.16-.32-.38-.69-.64-1.12a12.48,12.48,0,0,0-2.28-2.47c-.77-.67-1.51-1.26-1.89-1.56a1.48,1.48,0,0,1-.5.54A2.48,2.48,0,0,1,153.4,308.78Z" />
  <path class="GUNDAN_OTTER_JEWELRY_GUNDAN_OTTER_JEWELRY_7_cls-1" d="M158,309.54a12.48,12.48,0,0,1,2.28,2.47c.26.43.48.8.64,1.12a4.17,4.17,0,0,0-2,1.9s-1.75-2.36-3.44-4.16a4.08,4.08,0,0,0,2-.89,3.68,3.68,0,0,0,.45-.43Z" />
  <path class="GUNDAN_OTTER_JEWELRY_GUNDAN_OTTER_JEWELRY_7_cls-1" d="M160.83,316c.15.85,2.52,3.5,4.76,4.36a2.62,2.62,0,0,0,2.44,0,2,2,0,0,0,.59-.56c.21.09,1.15.47,2.24,1a3.71,3.71,0,0,1-1.06,1.15,4,4,0,0,1-1.1.54,7,7,0,0,1-6.33-1.64c-2.48-2-4.08-4.11-3.43-5.81a4.17,4.17,0,0,1,2-1.9,5.12,5.12,0,0,1,.55,1.31,1.78,1.78,0,0,0-.6.91A1.25,1.25,0,0,0,160.83,316Z" />
  <path class="GUNDAN_OTTER_JEWELRY_GUNDAN_OTTER_JEWELRY_7_cls-1" d="M174.27,322.85c.39.37.72.67,1,.94h0a3.54,3.54,0,0,0-1.29,2.25h0a55.14,55.14,0,0,0-5.25-3.57h0a4,4,0,0,0,1.1-.54,3.71,3.71,0,0,0,1.06-1.15A16.82,16.82,0,0,1,174.27,322.85Z" />
  <path class="GUNDAN_OTTER_JEWELRY_GUNDAN_OTTER_JEWELRY_7_cls-3" d="M175.24,323.79c-.25-.27-.58-.57-1-.94a16.82,16.82,0,0,0-3.41-2.06c-1.09-.54-2-.92-2.24-1a2,2,0,0,1-.59.56,2.62,2.62,0,0,1-2.44,0,1.08,1.08,0,0,1-.11-1.19,3,3,0,0,1,2.91-1.54,5.85,5.85,0,0,1,2.48.75l.3.16a47.63,47.63,0,0,1,6.22,4l1.06,1.41a2.81,2.81,0,0,1,.1.31,1.3,1.3,0,0,1-.15.9,2.72,2.72,0,0,1-2.3,1.45,1.42,1.42,0,0,1-.18-.65,1.45,1.45,0,0,1,.28-1,5.57,5.57,0,0,0-.95-1.14Z" />
  <path class="GUNDAN_OTTER_JEWELRY_GUNDAN_OTTER_JEWELRY_7_cls-2" d="M183.65,326.26a10.91,10.91,0,0,0-5.1-2,2.81,2.81,0,0,0-.1-.31l-1.06-1.41a13.58,13.58,0,0,1,7,1.75,7.48,7.48,0,0,1,2.48,2.38,4.88,4.88,0,0,0-2.84-.48Z" />
  <path class="GUNDAN_OTTER_JEWELRY_GUNDAN_OTTER_JEWELRY_7_cls-3" d="M183,329.72c-.95-.64-1.43-1.31-1-2.08a2.81,2.81,0,0,1,1.71-1.38l.37-.09a4.88,4.88,0,0,1,2.84.48l.47.24a1.4,1.4,0,0,1,.26.16h0a32.12,32.12,0,0,1,6.2,4h0a3.6,3.6,0,0,1,1.14,1.73,1.42,1.42,0,0,1-.14.9,2.77,2.77,0,0,1-2.32,1.43,1.33,1.33,0,0,1-.19-.65,1.52,1.52,0,0,1,.31-1h0a5.94,5.94,0,0,0-.95-1.14c-.24-.27-.57-.58-1-.95a17.62,17.62,0,0,0-3.39-2.1c-1.25-.6-2.28-1-2.28-1h-.1a1.56,1.56,0,0,1-.44.94,2,2,0,0,1-1.46.6v0Z" />
  <path class="GUNDAN_OTTER_JEWELRY_GUNDAN_OTTER_JEWELRY_7_cls-2" d="M200.78,332.83a7.3,7.3,0,0,1,2.52,2.5l-.33-.08a6.18,6.18,0,0,0-2.65-.2,10.69,10.69,0,0,0-5.37-2.28,3.6,3.6,0,0,0-1.14-1.73A13.53,13.53,0,0,1,200.78,332.83Z" />
  <path class="GUNDAN_OTTER_JEWELRY_GUNDAN_OTTER_JEWELRY_7_cls-1" d="M202.16,339.64c-1.61,1-4.17.94-6.66-.22-3-1.42-5.23-3.09-5.15-4.86h0a3.46,3.46,0,0,1,1.3-2.24,5.94,5.94,0,0,1,.95,1.14h0a1.52,1.52,0,0,0-.31,1,1.33,1.33,0,0,0,.19.65c.43.78,3.55,2.82,6,3.17a2.5,2.5,0,0,0,2.35-.54,1.83,1.83,0,0,0,.4-.67c.25,0,1.29.22,2.49.49a3.05,3.05,0,0,1-.66,1.32,4.06,4.06,0,0,1-.88.77Z" />
  <path class="GUNDAN_OTTER_JEWELRY_GUNDAN_OTTER_JEWELRY_7_cls-1" d="M208.38,342a65.51,65.51,0,0,0-6.2-2.31,4.06,4.06,0,0,0,.88-.77,3.05,3.05,0,0,0,.66-1.32,20.18,20.18,0,0,1,3.95,1.26c.5.26.92.49,1.25.69A3.24,3.24,0,0,0,208.38,342Z" />
  <path class="GUNDAN_OTTER_JEWELRY_GUNDAN_OTTER_JEWELRY_7_cls-3" d="M198.48,338.27a1.11,1.11,0,0,1-.48-1.11,2.65,2.65,0,0,1,2.32-2.11,6.18,6.18,0,0,1,2.65.2l.33.08h0a36.41,36.41,0,0,1,7.26,2.48,4.16,4.16,0,0,1,1.65,1.41,1.17,1.17,0,0,1,.16.89,2.39,2.39,0,0,1-1.76,1.89,1.65,1.65,0,0,1-.39-.58,1.39,1.39,0,0,1,0-1h0a7,7,0,0,0-1.29-.9c-.33-.2-.75-.43-1.25-.69a20.18,20.18,0,0,0-3.95-1.26c-1.2-.27-2.24-.45-2.49-.49a1.83,1.83,0,0,1-.4.67A2.5,2.5,0,0,1,198.48,338.27Z" />
  <path class="GUNDAN_OTTER_JEWELRY_GUNDAN_OTTER_JEWELRY_7_cls-3" d="M208.92,339.5a7,7,0,0,1,1.29.9h0a1.39,1.39,0,0,0,0,1,1.65,1.65,0,0,0,.39.58c.92.91,7.78,3.05,8.91.69,1.28-2.65-5.22-3.88-7.31-3.47a4.16,4.16,0,0,0-1.65-1.41,14.14,14.14,0,0,1,7.33.19c3.54,1.21,5,3.36,4.16,5.31s-3.74,2.86-7.12,2.18-6.08-1.82-6.57-3.54h0A3.24,3.24,0,0,1,208.92,339.5Z" />
  <path class="GUNDAN_OTTER_JEWELRY_GUNDAN_OTTER_JEWELRY_7_cls-4" d="M136.5,290.4a4.8,4.8,0,0,0-.23-1.36c-.08-.33-.2-.74-.36-1.21a11,11,0,0,0-1.51-2.6" />
  <path class="GUNDAN_OTTER_JEWELRY_GUNDAN_OTTER_JEWELRY_7_cls-4" d="M133.9,290.59s-.47-1-1.12-2.32l0,0" />
  <path class="GUNDAN_OTTER_JEWELRY_GUNDAN_OTTER_JEWELRY_7_cls-4" d="M135,282.22l2.35-.53c.08.12-.6,3.26-.52,3.39,1.11,1.59,1.38,1.57,2,3.59a3.07,3.07,0,0,1,.09,2,1.51,1.51,0,0,1-.61.77,3.17,3.17,0,0,1-2.84.46" />
  <path class="GUNDAN_OTTER_JEWELRY_GUNDAN_OTTER_JEWELRY_7_cls-4" d="M136.51,290.41a1.94,1.94,0,0,0-.81.8,1.42,1.42,0,0,0-.19.65c0,.85,1.65,3.83,3.65,5a2.6,2.6,0,0,0,2.4.36,2.79,2.79,0,0,0,.72-.46" />
  <path class="GUNDAN_OTTER_JEWELRY_GUNDAN_OTTER_JEWELRY_7_cls-4" d="M142.54,294.65a8.34,8.34,0,0,0-3.59-4" />
  <path class="GUNDAN_OTTER_JEWELRY_GUNDAN_OTTER_JEWELRY_7_cls-4" d="M144.22,298.15a4.06,4.06,0,0,1-1.29.94,4.59,4.59,0,0,1-1.21.37,6.59,6.59,0,0,1-5.82-2.62c-2-2.38-3-4.69-2-6.26a4.6,4.6,0,0,1,2.37-1.54h0" />
  <path class="GUNDAN_OTTER_JEWELRY_GUNDAN_OTTER_JEWELRY_7_cls-4" d="M145.06,296a6,6,0,0,0-.91-3.17,11.18,11.18,0,0,0-5.28-4.15" />
  <path class="GUNDAN_OTTER_JEWELRY_GUNDAN_OTTER_JEWELRY_7_cls-4" d="M148.49,303.05a4.9,4.9,0,0,0-.66-1.26c-.2-.3-.44-.66-.76-1.08a14.63,14.63,0,0,0-2.83-2.57h0c-.92-.7-1.74-1.24-1.94-1.36l-.06,0" />
  <path class="GUNDAN_OTTER_JEWELRY_GUNDAN_OTTER_JEWELRY_7_cls-4" d="M146,303.8a51.47,51.47,0,0,0-4.3-4.34" />
  <path class="GUNDAN_OTTER_JEWELRY_GUNDAN_OTTER_JEWELRY_7_cls-4" d="M139.16,296.89a1.12,1.12,0,0,1,.17-1.19,3.28,3.28,0,0,1,3.21-1.05,5.65,5.65,0,0,1,2.26,1.14c.08,0,.15.13.26.2h0a27.47,27.47,0,0,1,5.16,4.88,3.29,3.29,0,0,1,.74,1.86,1.38,1.38,0,0,1-.36.86,3,3,0,0,1-2.6,1.06" />
  <path class="GUNDAN_OTTER_JEWELRY_GUNDAN_OTTER_JEWELRY_7_cls-4" d="M153.4,308.78a2.48,2.48,0,0,0,2.2-.26,1.48,1.48,0,0,0,.5-.54" />
  <path class="GUNDAN_OTTER_JEWELRY_GUNDAN_OTTER_JEWELRY_7_cls-4" d="M148.49,303.06a1.64,1.64,0,0,0-.51.94,1.35,1.35,0,0,0,0,.66c.25.85,3,3.48,5.38,4.12" />
  <path class="GUNDAN_OTTER_JEWELRY_GUNDAN_OTTER_JEWELRY_7_cls-4" d="M155.49,305.56a9.75,9.75,0,0,0-4.53-2.82h0" />
  <path class="GUNDAN_OTTER_JEWELRY_GUNDAN_OTTER_JEWELRY_7_cls-4" d="M147.84,301.77v0a3.78,3.78,0,0,0-1.8,2c-.48,1.73,1.31,3.71,4,5.57a7.86,7.86,0,0,0,5.51,1.5,4.08,4.08,0,0,0,2-.89,3.68,3.68,0,0,0,.45-.43" />
  <path class="GUNDAN_OTTER_JEWELRY_GUNDAN_OTTER_JEWELRY_7_cls-4" d="M158.68,307.17a5.8,5.8,0,0,0-2-3.49,12.7,12.7,0,0,0-6.44-2.8h0" />
  <path class="GUNDAN_OTTER_JEWELRY_GUNDAN_OTTER_JEWELRY_7_cls-4" d="M161.46,314.44a5.12,5.12,0,0,0-.55-1.31c-.16-.32-.38-.69-.64-1.12a12.48,12.48,0,0,0-2.28-2.47c-.77-.67-1.51-1.26-1.89-1.56l-.29-.22" />
  <path class="GUNDAN_OTTER_JEWELRY_GUNDAN_OTTER_JEWELRY_7_cls-4" d="M158.94,315s-1.75-2.36-3.44-4.16" />
  <path class="GUNDAN_OTTER_JEWELRY_GUNDAN_OTTER_JEWELRY_7_cls-4" d="M153.4,308.78s0,0,0,0c-.71-.83-1-1.58-.36-2.24a3.25,3.25,0,0,1,2.47-1,4.72,4.72,0,0,1,3,1.41c.05.06.13.12.21.2h0a26.64,26.64,0,0,1,4.7,5.19h0a3,3,0,0,1,.54,1.9h0a1.37,1.37,0,0,1-.43.83,3,3,0,0,1-2.67.9h0" />
  <path class="GUNDAN_OTTER_JEWELRY_GUNDAN_OTTER_JEWELRY_7_cls-4" d="M161.46,314.44a1.78,1.78,0,0,0-.6.91,1.25,1.25,0,0,0,0,.67c.15.85,2.52,3.5,4.76,4.36a2.62,2.62,0,0,0,2.44,0,2,2,0,0,0,.59-.56" />
  <path class="GUNDAN_OTTER_JEWELRY_GUNDAN_OTTER_JEWELRY_7_cls-4" d="M168.39,317.65a9.34,9.34,0,0,0-4.47-3.37" />
  <path class="GUNDAN_OTTER_JEWELRY_GUNDAN_OTTER_JEWELRY_7_cls-4" d="M170.86,320.79a3.71,3.71,0,0,1-1.06,1.15,4,4,0,0,1-1.1.54,7,7,0,0,1-6.33-1.64c-2.48-2-4.08-4.11-3.43-5.81a4.17,4.17,0,0,1,2-1.9h0" />
  <path class="GUNDAN_OTTER_JEWELRY_GUNDAN_OTTER_JEWELRY_7_cls-4" d="M171.17,318.56a6.42,6.42,0,0,0-1.63-3,12.33,12.33,0,0,0-6.16-3.22" />
  <path class="GUNDAN_OTTER_JEWELRY_GUNDAN_OTTER_JEWELRY_7_cls-4" d="M175.24,323.79c-.25-.27-.58-.57-1-.94a16.82,16.82,0,0,0-3.41-2.06c-1.09-.54-2-.92-2.24-1l-.05,0" />
  <path class="GUNDAN_OTTER_JEWELRY_GUNDAN_OTTER_JEWELRY_7_cls-4" d="M176.2,324.94a5.57,5.57,0,0,0-.95-1.14" />
  <path class="GUNDAN_OTTER_JEWELRY_GUNDAN_OTTER_JEWELRY_7_cls-4" d="M174,326.06a55.14,55.14,0,0,0-5.25-3.57" />
  <path class="GUNDAN_OTTER_JEWELRY_GUNDAN_OTTER_JEWELRY_7_cls-4" d="M165.59,320.38a1.08,1.08,0,0,1-.11-1.19,3,3,0,0,1,2.91-1.54,5.85,5.85,0,0,1,2.48.75l.3.16a47.63,47.63,0,0,1,6.22,4l1.06,1.41a2.81,2.81,0,0,1,.1.31,1.3,1.3,0,0,1-.15.9,2.72,2.72,0,0,1-2.3,1.45" />
  <path class="GUNDAN_OTTER_JEWELRY_GUNDAN_OTTER_JEWELRY_7_cls-4" d="M178.53,324.24h0a10.91,10.91,0,0,1,5.1,2" />
  <path class="GUNDAN_OTTER_JEWELRY_GUNDAN_OTTER_JEWELRY_7_cls-4" d="M184.91,328.22a1.56,1.56,0,0,1-.44.94,2,2,0,0,1-1.46.6h0c-2.47.16-6.41-2.3-6.89-3.17a1.42,1.42,0,0,1-.18-.65,1.45,1.45,0,0,1,.28-1" />
  <path class="GUNDAN_OTTER_JEWELRY_GUNDAN_OTTER_JEWELRY_7_cls-4" d="M177.38,322.52h0a13.58,13.58,0,0,1,7,1.75,7.48,7.48,0,0,1,2.48,2.38" />
  <path class="GUNDAN_OTTER_JEWELRY_GUNDAN_OTTER_JEWELRY_7_cls-4" d="M187.29,329.26a3.11,3.11,0,0,1-.58,1.05,3.64,3.64,0,0,1-1.09.88s0,0,0,0a7.62,7.62,0,0,1-6.44-.32c-3-1.4-5.26-3.06-5.19-4.84a3.54,3.54,0,0,1,1.29-2.25h0" />
  <path class="GUNDAN_OTTER_JEWELRY_GUNDAN_OTTER_JEWELRY_7_cls-4" d="M185,328.23s1,.43,2.28,1a17.62,17.62,0,0,1,3.39,2.1c.4.37.73.68,1,.95a5.94,5.94,0,0,1,.95,1.14" />
  <path class="GUNDAN_OTTER_JEWELRY_GUNDAN_OTTER_JEWELRY_7_cls-4" d="M190.35,334.55s-2.55-2-4.76-3.34" />
  <path class="GUNDAN_OTTER_JEWELRY_GUNDAN_OTTER_JEWELRY_7_cls-4" d="M192.48,335.1h0a2.77,2.77,0,0,0,2.32-1.43,1.42,1.42,0,0,0,.14-.9,3.6,3.6,0,0,0-1.14-1.73h0a32.12,32.12,0,0,0-6.2-4h0a1.4,1.4,0,0,0-.26-.16l-.47-.24a4.88,4.88,0,0,0-2.84-.48l-.37.09a2.81,2.81,0,0,0-1.71,1.38c-.39.77.09,1.44,1,2.08h0" />
  <path class="GUNDAN_OTTER_JEWELRY_GUNDAN_OTTER_JEWELRY_7_cls-4" d="M192.61,333.46a1.52,1.52,0,0,0-.31,1,1.33,1.33,0,0,0,.19.65c.43.78,3.55,2.82,6,3.17a2.5,2.5,0,0,0,2.35-.54,1.83,1.83,0,0,0,.4-.67" />
  <path class="GUNDAN_OTTER_JEWELRY_GUNDAN_OTTER_JEWELRY_7_cls-4" d="M200.32,335.05a10.69,10.69,0,0,0-5.37-2.28h0" />
  <path class="GUNDAN_OTTER_JEWELRY_GUNDAN_OTTER_JEWELRY_7_cls-4" d="M202.16,339.64c-1.61,1-4.17.94-6.66-.22-3-1.42-5.23-3.09-5.15-4.86h0a3.46,3.46,0,0,1,1.3-2.24h0" />
  <path class="GUNDAN_OTTER_JEWELRY_GUNDAN_OTTER_JEWELRY_7_cls-4" d="M203.72,337.55a3.05,3.05,0,0,1-.66,1.32,4.06,4.06,0,0,1-.88.77" />
  <path class="GUNDAN_OTTER_JEWELRY_GUNDAN_OTTER_JEWELRY_7_cls-4" d="M203.3,335.33a7.3,7.3,0,0,0-2.52-2.5,13.53,13.53,0,0,0-7-1.79h0" />
  <path class="GUNDAN_OTTER_JEWELRY_GUNDAN_OTTER_JEWELRY_7_cls-4" d="M210.21,340.4a7,7,0,0,0-1.29-.9c-.33-.2-.75-.43-1.25-.69a20.18,20.18,0,0,0-3.95-1.26c-1.2-.27-2.24-.45-2.49-.49l-.07,0" />
  <path class="GUNDAN_OTTER_JEWELRY_GUNDAN_OTTER_JEWELRY_7_cls-4" d="M208.38,342a65.51,65.51,0,0,0-6.2-2.31h0" />
  <path class="GUNDAN_OTTER_JEWELRY_GUNDAN_OTTER_JEWELRY_7_cls-4" d="M198.48,338.27a1.11,1.11,0,0,1-.48-1.11,2.65,2.65,0,0,1,2.32-2.11,6.18,6.18,0,0,1,2.65.2l.33.08h0a36.41,36.41,0,0,1,7.26,2.48,4.16,4.16,0,0,1,1.65,1.41,1.17,1.17,0,0,1,.16.89,2.39,2.39,0,0,1-1.76,1.89" />
  <path class="GUNDAN_OTTER_JEWELRY_GUNDAN_OTTER_JEWELRY_7_cls-4" d="M212.23,339.23c2.09-.41,8.59.82,7.31,3.47-1.13,2.36-8,.22-8.91-.69a1.65,1.65,0,0,1-.39-.58,1.39,1.39,0,0,1,0-1" />
  <path class="GUNDAN_OTTER_JEWELRY_GUNDAN_OTTER_JEWELRY_7_cls-4" d="M210.56,337.82h0a14.14,14.14,0,0,1,7.33.19c3.54,1.21,5,3.36,4.16,5.31s-3.74,2.86-7.12,2.18-6.08-1.82-6.57-3.54h0a3.24,3.24,0,0,1,.54-2.45" />
  <path class="GUNDAN_OTTER_JEWELRY_GUNDAN_OTTER_JEWELRY_7_cls-4" d="M135.05,282.22h0c-2.54.75-3.06,4.11-2.28,6l0,0" />
  <path d="M296.49,299.28c-.33-1.53-.5-2.29-.84-3.82a4.68,4.68,0,0,1,4,1.48" />
  <path class="GUNDAN_OTTER_JEWELRY_GUNDAN_OTTER_JEWELRY_7_cls-1" d="M240.74,341.55s2.9-1.34,5.33-2.21l0,0a3.32,3.32,0,0,1-.87-1.08,3.24,3.24,0,0,1-.34-1.14,18.11,18.11,0,0,0-3.7,1.3c-.46.27-.85.49-1.14.7A3.42,3.42,0,0,1,240.74,341.55Z" />
  <path class="GUNDAN_OTTER_JEWELRY_GUNDAN_OTTER_JEWELRY_7_cls-1" d="M256.13,336.63c-.61.77-4.9,2.47-7.26,1.83h0a1.87,1.87,0,0,1-1.28-.87,1.52,1.52,0,0,1-.24-1l-.1,0s-1.08.22-2.4.54a3.24,3.24,0,0,0,.34,1.14,3.32,3.32,0,0,0,.87,1.08l0,0a7.34,7.34,0,0,0,6.31,1c3.23-.8,5.69-2.07,5.92-3.83a3.56,3.56,0,0,0-.86-2.43,6.35,6.35,0,0,0-1.12,1,1.49,1.49,0,0,1,.11,1A1.45,1.45,0,0,1,256.13,336.63Z" />
  <path class="GUNDAN_OTTER_JEWELRY_GUNDAN_OTTER_JEWELRY_7_cls-1" d="M294.79,304.69a1.54,1.54,0,0,0,.56.78A2.81,2.81,0,0,0,298,306a1.75,1.75,0,0,0-.95-1.47h0a5.16,5.16,0,0,1,.21-1.37,4.54,4.54,0,0,1,2.24,1.59s.43-1,1-2.31v0c.7-1.91.12-5.25-2.24-6h0c-2.39-.83-1.64,2.59-1.71,2.72a11,11,0,0,0-1.74,3.62A3.28,3.28,0,0,0,294.79,304.69Z" />
  <path class="GUNDAN_OTTER_JEWELRY_GUNDAN_OTTER_JEWELRY_7_cls-2" d="M294.79,304.69a3.21,3.21,0,0,1,.08-2,10.6,10.6,0,0,0-5,3.94,6.27,6.27,0,0,0-.93,3.12,2.48,2.48,0,0,1,.25-.18,5.08,5.08,0,0,1,2.15-1A8.1,8.1,0,0,1,294.79,304.69Z" />
  <path class="GUNDAN_OTTER_JEWELRY_GUNDAN_OTTER_JEWELRY_7_cls-1" d="M299.54,304.74a4.47,4.47,0,0,0-2.25-1.59,5.72,5.72,0,0,0-.21,1.36v0a1.91,1.91,0,0,1,.76.8,1.65,1.65,0,0,1,.18.66c0,.85-1.58,3.8-3.5,4.93a2.32,2.32,0,0,1-2.28.28,2.55,2.55,0,0,1-.67-.5c-.19.12-1,.63-1.88,1.27a3.85,3.85,0,0,0,1.2,1,4,4,0,0,0,1.13.42,6,6,0,0,0,5.61-2.44C299.52,308.63,300.51,306.31,299.54,304.74Z" />
  <path class="GUNDAN_OTTER_JEWELRY_GUNDAN_OTTER_JEWELRY_7_cls-1" d="M292,313.4a4,4,0,0,1-1.13-.42,3.85,3.85,0,0,1-1.2-1h0a14.14,14.14,0,0,0-2.8,2.4c-.32.4-.57.74-.77,1a3.88,3.88,0,0,1,1.62,2.11h0A55,55,0,0,1,292,313.4Z" />
  <path class="GUNDAN_OTTER_JEWELRY_GUNDAN_OTTER_JEWELRY_7_cls-3" d="M292.24,311.2a2.32,2.32,0,0,0,2.28-.28,1.16,1.16,0,0,0-.14-1.19,3.07,3.07,0,0,0-3-1.17,5.08,5.08,0,0,0-2.15,1,2.48,2.48,0,0,0-.25.18h0a28.08,28.08,0,0,0-5.08,4.54,3.33,3.33,0,0,0-.8,1.8,1.42,1.42,0,0,0,.28.88,2.75,2.75,0,0,0,2.42,1.24,1.36,1.36,0,0,0,.06-.65,1.62,1.62,0,0,0-.44-1v0a4.93,4.93,0,0,1,.69-1.21c.2-.29.45-.63.77-1a14.14,14.14,0,0,1,2.8-2.4h0c.9-.64,1.69-1.15,1.88-1.27A2.55,2.55,0,0,0,292.24,311.2Z" />
  <path class="GUNDAN_OTTER_JEWELRY_GUNDAN_OTTER_JEWELRY_7_cls-2" d="M269.68,326.3a3.06,3.06,0,0,1,.74-1.81h0a12.09,12.09,0,0,0-6.28,2.36,6.52,6.52,0,0,0-2,2.69c.11,0,.23-.07.31-.11A5.72,5.72,0,0,1,265,329,9.24,9.24,0,0,1,269.68,326.3Z" />
  <path class="GUNDAN_OTTER_JEWELRY_GUNDAN_OTTER_JEWELRY_7_cls-2" d="M278.58,318.56a9.3,9.3,0,0,1,4.51-2.43,3.33,3.33,0,0,1,.8-1.8,12,12,0,0,0-6.27,2.26,5.79,5.79,0,0,0-2.2,3.26c.08-.07.17-.12.22-.17A4.39,4.39,0,0,1,278.58,318.56Z" />
  <path class="GUNDAN_OTTER_JEWELRY_GUNDAN_OTTER_JEWELRY_7_cls-1" d="M278.14,323.84a7.18,7.18,0,0,0,5.43-1c2.69-1.64,4.53-3.54,4.16-5.3a3.88,3.88,0,0,0-1.62-2.11,4.93,4.93,0,0,0-.69,1.21v0a1.62,1.62,0,0,1,.44,1,1.36,1.36,0,0,1-.06.65c-.29.84-3.13,3.26-5.44,3.7h0a2.29,2.29,0,0,1-2.09-.46,1.51,1.51,0,0,1-.43-.58c-.39.26-1.15.77-1.94,1.36v0a4.51,4.51,0,0,0,.4.47A3.86,3.86,0,0,0,278.14,323.84Z" />
  <path class="GUNDAN_OTTER_JEWELRY_GUNDAN_OTTER_JEWELRY_7_cls-3" d="M280.33,322h0c.75-.76,1-1.49.51-2.2a3.09,3.09,0,0,0-2.28-1.19,4.39,4.39,0,0,0-2.94,1.12c-.05.05-.14.1-.22.17h0a27.6,27.6,0,0,0-5,4.62h0a3.06,3.06,0,0,0-.74,1.81h0a1.39,1.39,0,0,0,.31.88,2.88,2.88,0,0,0,2.48,1.21,1.43,1.43,0,0,0,0-.67,1.87,1.87,0,0,0-.48-1,5.27,5.27,0,0,1,.67-1.24c.19-.3.43-.64.73-1a12.64,12.64,0,0,1,2.43-2.21c.79-.59,1.55-1.1,1.94-1.36a1.51,1.51,0,0,0,.43.58A2.29,2.29,0,0,0,280.33,322Z" />
  <path class="GUNDAN_OTTER_JEWELRY_GUNDAN_OTTER_JEWELRY_7_cls-1" d="M275.87,322.27a12.64,12.64,0,0,0-2.43,2.21c-.3.4-.54.74-.73,1a4.21,4.21,0,0,1,1.7,2.1s1.94-2.15,3.73-3.78a3.86,3.86,0,0,1-1.87-1.08,4.51,4.51,0,0,1-.4-.47Z" />
  <path class="GUNDAN_OTTER_JEWELRY_GUNDAN_OTTER_JEWELRY_7_cls-1" d="M272.47,328.4c-.25.82-2.87,3.17-5.16,3.73a2.53,2.53,0,0,1-2.37-.38,2.07,2.07,0,0,1-.49-.64c-.22.06-1.17.3-2.3.67a3.73,3.73,0,0,0,.84,1.29,3.88,3.88,0,0,0,1,.69,6.68,6.68,0,0,0,6.39-.76c2.68-1.7,4.46-3.61,4-5.38a4.21,4.21,0,0,0-1.7-2.1,5.27,5.27,0,0,0-.67,1.24,1.87,1.87,0,0,1,.48,1A1.43,1.43,0,0,1,272.47,328.4Z" />
  <path class="GUNDAN_OTTER_JEWELRY_GUNDAN_OTTER_JEWELRY_7_cls-1" d="M258.54,333.27c-.44.29-.8.53-1.09.75h0a3.49,3.49,0,0,1,.86,2.43h0s3.18-1.72,5.66-2.7h0a3.88,3.88,0,0,1-1-.69,3.73,3.73,0,0,1-.84-1.29A17.05,17.05,0,0,0,258.54,333.27Z" />
  <path class="GUNDAN_OTTER_JEWELRY_GUNDAN_OTTER_JEWELRY_7_cls-3" d="M257.45,334c.29-.22.65-.46,1.09-.75a17.05,17.05,0,0,1,3.61-1.49c1.13-.37,2.08-.61,2.3-.67a2.07,2.07,0,0,0,.49.64,2.53,2.53,0,0,0,2.37.38,1.1,1.1,0,0,0,.26-1.17A3,3,0,0,0,265,329a5.72,5.72,0,0,0-2.49.38c-.08,0-.2.07-.31.11a60.64,60.64,0,0,0-6.58,2.88c-.5.48-.75.72-1.26,1.19-.05.09-.1.2-.14.29a1.3,1.3,0,0,0,0,.91,2.65,2.65,0,0,0,2,1.83,1.45,1.45,0,0,0,.3-.61,1.49,1.49,0,0,0-.11-1,6.35,6.35,0,0,1,1.12-1Z" />
  <path class="GUNDAN_OTTER_JEWELRY_GUNDAN_OTTER_JEWELRY_7_cls-2" d="M248.91,334.91a11,11,0,0,1,5.28-1c0-.09.09-.2.14-.29.51-.47.76-.71,1.26-1.19a13.74,13.74,0,0,0-7,.41,7.61,7.61,0,0,0-2.83,1.82,4.76,4.76,0,0,1,2.81.11Z" />
  <path class="GUNDAN_OTTER_JEWELRY_GUNDAN_OTTER_JEWELRY_7_cls-3" d="M248.89,338.41c1-.43,1.64-1,1.41-1.82a2.77,2.77,0,0,0-1.39-1.68l-.33-.16a4.76,4.76,0,0,0-2.81-.11,4.5,4.5,0,0,0-.49.14,2.46,2.46,0,0,0-.29.09h0a33.17,33.17,0,0,0-6.77,2.49h0a3.56,3.56,0,0,0-1.49,1.39,1.39,1.39,0,0,0-.07.9,2.79,2.79,0,0,0,1.9,1.94,1.47,1.47,0,0,0,.33-.59,1.49,1.49,0,0,0-.07-1h0a6.58,6.58,0,0,1,1.17-.88c.29-.21.68-.43,1.14-.7a17.73,17.73,0,0,1,3.7-1.3c1.31-.33,2.4-.54,2.4-.54l.1,0a1.52,1.52,0,0,0,.24,1,1.87,1.87,0,0,0,1.28.87v0Z" />
  <path class="GUNDAN_OTTER_JEWELRY_GUNDAN_OTTER_JEWELRY_7_cls-2" d="M231.16,337.38a7.34,7.34,0,0,0-3,1.74h.34a6.18,6.18,0,0,1,2.57.51,10.73,10.73,0,0,1,5.66-.88,3.56,3.56,0,0,1,1.49-1.39A13.65,13.65,0,0,0,231.16,337.38Z" />
  <path class="GUNDAN_OTTER_JEWELRY_GUNDAN_OTTER_JEWELRY_7_cls-1" d="M228.11,343.54c1.29,1.36,3.78,2,6.48,1.49,3.29-.61,5.83-1.74,6.15-3.47h0a3.42,3.42,0,0,0-.75-2.46,6.58,6.58,0,0,0-1.17.88h0a1.49,1.49,0,0,1,.07,1,1.47,1.47,0,0,1-.33.59c-.6.65-4.1,1.88-6.55,1.59a2.46,2.46,0,0,1-2.11-1.13,1.74,1.74,0,0,1-.21-.74c-.25,0-1.28-.13-2.5-.19a3,3,0,0,0,.28,1.44,3.83,3.83,0,0,0,.64,1Z" />
  <path class="GUNDAN_OTTER_JEWELRY_GUNDAN_OTTER_JEWELRY_7_cls-1" d="M221.53,344s3.75-.43,6.57-.48a3.83,3.83,0,0,1-.64-1,3,3,0,0,1-.28-1.44,20,20,0,0,0-4.09.11q-.83.15-1.38.3A3.16,3.16,0,0,1,221.53,344Z" />
  <path class="GUNDAN_OTTER_JEWELRY_GUNDAN_OTTER_JEWELRY_7_cls-3" d="M232,343.19a1.12,1.12,0,0,0,.75-.95,2.62,2.62,0,0,0-1.69-2.6,6.18,6.18,0,0,0-2.57-.51h-.35a38.9,38.9,0,0,0-7.53.35,3.93,3.93,0,0,0-2,.85,1.14,1.14,0,0,0-.41.79,2.42,2.42,0,0,0,1.13,2.31,1.58,1.58,0,0,0,.53-.44,1.33,1.33,0,0,0,.32-1h0a7.15,7.15,0,0,1,1.47-.47q.56-.15,1.38-.3a20,20,0,0,1,4.09-.11c1.22.06,2.25.16,2.5.19a1.74,1.74,0,0,0,.21.74A2.46,2.46,0,0,0,232,343.19Z" />
  <path class="GUNDAN_OTTER_JEWELRY_GUNDAN_OTTER_JEWELRY_7_cls-5" d="M297.08,304.51a5.72,5.72,0,0,1,.21-1.36q.12-.48.33-1.2a11.31,11.31,0,0,1,1.37-2.56" />
  <path class="GUNDAN_OTTER_JEWELRY_GUNDAN_OTTER_JEWELRY_7_cls-5" d="M299.54,304.74s.43-1,1-2.31v0" />
  <path class="GUNDAN_OTTER_JEWELRY_GUNDAN_OTTER_JEWELRY_7_cls-5" d="M298.33,296.38l-2.17-.56c-.08.11.61,3.25.54,3.38-1,1.56-1.26,1.53-1.83,3.52a3.13,3.13,0,0,0-.08,2,1.54,1.54,0,0,0,.56.78A2.81,2.81,0,0,0,298,306" />
  <path class="GUNDAN_OTTER_JEWELRY_GUNDAN_OTTER_JEWELRY_7_cls-5" d="M297.08,304.53a1.91,1.91,0,0,1,.76.8,1.65,1.65,0,0,1,.18.66c0,.85-1.58,3.8-3.5,4.93a2.32,2.32,0,0,1-2.28.28,2.55,2.55,0,0,1-.67-.5" />
  <path class="GUNDAN_OTTER_JEWELRY_GUNDAN_OTTER_JEWELRY_7_cls-5" d="M291.37,308.56a8.1,8.1,0,0,1,3.42-3.87" />
  <path class="GUNDAN_OTTER_JEWELRY_GUNDAN_OTTER_JEWELRY_7_cls-5" d="M289.69,312a3.85,3.85,0,0,0,1.2,1,4,4,0,0,0,1.13.42,6,6,0,0,0,5.61-2.44c1.89-2.33,2.88-4.65,1.91-6.22a4.47,4.47,0,0,0-2.25-1.59h0" />
  <path class="GUNDAN_OTTER_JEWELRY_GUNDAN_OTTER_JEWELRY_7_cls-5" d="M289,309.78a6.27,6.27,0,0,1,.93-3.12,10.6,10.6,0,0,1,5-3.94" />
  <path class="GUNDAN_OTTER_JEWELRY_GUNDAN_OTTER_JEWELRY_7_cls-5" d="M285.42,316.61a4.93,4.93,0,0,1,.69-1.21c.2-.29.45-.63.77-1a14.14,14.14,0,0,1,2.8-2.4h0c.9-.64,1.69-1.15,1.88-1.27l.06,0" />
  <path class="GUNDAN_OTTER_JEWELRY_GUNDAN_OTTER_JEWELRY_7_cls-5" d="M287.74,317.52A55,55,0,0,1,292,313.4" />
  <path class="GUNDAN_OTTER_JEWELRY_GUNDAN_OTTER_JEWELRY_7_cls-5" d="M294.52,310.92a1.16,1.16,0,0,0-.14-1.19,3.07,3.07,0,0,0-3-1.17,5.08,5.08,0,0,0-2.15,1,2.48,2.48,0,0,0-.25.18h0a28.08,28.08,0,0,0-5.08,4.54,3.33,3.33,0,0,0-.8,1.8,1.42,1.42,0,0,0,.28.88,2.75,2.75,0,0,0,2.42,1.24" />
  <path class="GUNDAN_OTTER_JEWELRY_GUNDAN_OTTER_JEWELRY_7_cls-5" d="M280.33,322a2.29,2.29,0,0,1-2.09-.46,1.51,1.51,0,0,1-.43-.58" />
  <path class="GUNDAN_OTTER_JEWELRY_GUNDAN_OTTER_JEWELRY_7_cls-5" d="M285.41,316.63a1.62,1.62,0,0,1,.44,1,1.36,1.36,0,0,1-.06.65c-.29.84-3.13,3.26-5.44,3.7" />
  <path class="GUNDAN_OTTER_JEWELRY_GUNDAN_OTTER_JEWELRY_7_cls-5" d="M278.58,318.56a9.3,9.3,0,0,1,4.51-2.43h0" />
  <path class="GUNDAN_OTTER_JEWELRY_GUNDAN_OTTER_JEWELRY_7_cls-5" d="M286.11,315.39h0a3.88,3.88,0,0,1,1.62,2.11c.37,1.76-1.47,3.65-4.16,5.3a7.18,7.18,0,0,1-5.43,1,3.86,3.86,0,0,1-1.87-1.08,4.51,4.51,0,0,1-.4-.47" />
  <path class="GUNDAN_OTTER_JEWELRY_GUNDAN_OTTER_JEWELRY_7_cls-5" d="M275.42,319.85a5.79,5.79,0,0,1,2.2-3.26,12,12,0,0,1,6.27-2.26h0" />
  <path class="GUNDAN_OTTER_JEWELRY_GUNDAN_OTTER_JEWELRY_7_cls-5" d="M272,326.76a5.27,5.27,0,0,1,.67-1.24c.19-.3.43-.64.73-1a12.64,12.64,0,0,1,2.43-2.21c.79-.59,1.55-1.1,1.94-1.36l.3-.19" />
  <path class="GUNDAN_OTTER_JEWELRY_GUNDAN_OTTER_JEWELRY_7_cls-5" d="M274.41,327.62s1.94-2.15,3.73-3.78" />
  <path class="GUNDAN_OTTER_JEWELRY_GUNDAN_OTTER_JEWELRY_7_cls-5" d="M280.33,322h0c.75-.76,1-1.49.51-2.2a3.09,3.09,0,0,0-2.28-1.19,4.39,4.39,0,0,0-2.94,1.12c-.05.05-.14.1-.22.17h0a27.6,27.6,0,0,0-5,4.62h0a3.06,3.06,0,0,0-.74,1.81h0a1.39,1.39,0,0,0,.31.88,2.88,2.88,0,0,0,2.48,1.21h0" />
  <path class="GUNDAN_OTTER_JEWELRY_GUNDAN_OTTER_JEWELRY_7_cls-5" d="M272,326.76a1.87,1.87,0,0,1,.48,1,1.43,1.43,0,0,1,0,.67c-.25.82-2.87,3.17-5.16,3.73a2.53,2.53,0,0,1-2.37-.38,2.07,2.07,0,0,1-.49-.64" />
  <path class="GUNDAN_OTTER_JEWELRY_GUNDAN_OTTER_JEWELRY_7_cls-5" d="M265,329a9.24,9.24,0,0,1,4.71-2.74" />
  <path class="GUNDAN_OTTER_JEWELRY_GUNDAN_OTTER_JEWELRY_7_cls-5" d="M262.15,331.78a3.73,3.73,0,0,0,.84,1.29,3.88,3.88,0,0,0,1,.69,6.68,6.68,0,0,0,6.39-.76c2.68-1.7,4.46-3.61,4-5.38a4.21,4.21,0,0,0-1.7-2.1h0" />
  <path class="GUNDAN_OTTER_JEWELRY_GUNDAN_OTTER_JEWELRY_7_cls-5" d="M262.17,329.53a6.52,6.52,0,0,1,2-2.69,12.09,12.09,0,0,1,6.28-2.36" />
  <path class="GUNDAN_OTTER_JEWELRY_GUNDAN_OTTER_JEWELRY_7_cls-5" d="M257.45,334c.29-.22.65-.46,1.09-.75a17.05,17.05,0,0,1,3.61-1.49c1.13-.37,2.08-.61,2.3-.67h.06" />
  <path class="GUNDAN_OTTER_JEWELRY_GUNDAN_OTTER_JEWELRY_7_cls-5" d="M256.32,335a6.35,6.35,0,0,1,1.12-1" />
  <path class="GUNDAN_OTTER_JEWELRY_GUNDAN_OTTER_JEWELRY_7_cls-5" d="M258.32,336.47s3.18-1.72,5.66-2.7" />
  <path class="GUNDAN_OTTER_JEWELRY_GUNDAN_OTTER_JEWELRY_7_cls-5" d="M267.31,332.13a1.1,1.1,0,0,0,.26-1.17A3,3,0,0,0,265,329a5.72,5.72,0,0,0-2.49.38c-.08,0-.2.07-.31.11a60.64,60.64,0,0,0-6.58,2.88c-.5.48-.75.72-1.26,1.19-.05.09-.1.2-.14.29a1.3,1.3,0,0,0,0,.91,2.65,2.65,0,0,0,2,1.83" />
  <path class="GUNDAN_OTTER_JEWELRY_GUNDAN_OTTER_JEWELRY_7_cls-5" d="M254.2,333.9h0a11,11,0,0,0-5.28,1" />
  <path class="GUNDAN_OTTER_JEWELRY_GUNDAN_OTTER_JEWELRY_7_cls-5" d="M247.33,336.57a1.52,1.52,0,0,0,.24,1,1.87,1.87,0,0,0,1.28.87h0c2.36.64,6.65-1.06,7.26-1.83a1.45,1.45,0,0,0,.3-.61,1.49,1.49,0,0,0-.11-1" />
  <path class="GUNDAN_OTTER_JEWELRY_GUNDAN_OTTER_JEWELRY_7_cls-5" d="M255.6,332.42h0a13.74,13.74,0,0,0-7,.41,7.61,7.61,0,0,0-2.83,1.82" />
  <path class="GUNDAN_OTTER_JEWELRY_GUNDAN_OTTER_JEWELRY_7_cls-5" d="M244.83,337.09a3.24,3.24,0,0,0,.34,1.14,3.32,3.32,0,0,0,.87,1.08l0,0a7.34,7.34,0,0,0,6.31,1c3.23-.8,5.7-2.06,5.92-3.83a3.49,3.49,0,0,0-.86-2.43h0" />
  <path class="GUNDAN_OTTER_JEWELRY_GUNDAN_OTTER_JEWELRY_7_cls-5" d="M247.23,336.55s-1.08.22-2.4.54a18.11,18.11,0,0,0-3.7,1.3c-.46.27-.85.49-1.14.7a6.58,6.58,0,0,0-1.17.88" />
  <path class="GUNDAN_OTTER_JEWELRY_GUNDAN_OTTER_JEWELRY_7_cls-5" d="M240.74,341.55s2.9-1.34,5.33-2.21" />
  <path class="GUNDAN_OTTER_JEWELRY_GUNDAN_OTTER_JEWELRY_7_cls-5" d="M238.56,341.6h0a2.79,2.79,0,0,1-1.9-1.94,1.39,1.39,0,0,1,.07-.9,3.56,3.56,0,0,1,1.49-1.39h0a33.17,33.17,0,0,1,6.77-2.49h0a2.46,2.46,0,0,1,.29-.09,4.5,4.5,0,0,1,.49-.14,4.76,4.76,0,0,1,2.81.11l.33.16a2.77,2.77,0,0,1,1.39,1.68c.23.83-.37,1.39-1.41,1.82h0" />
  <path class="GUNDAN_OTTER_JEWELRY_GUNDAN_OTTER_JEWELRY_7_cls-5" d="M238.81,340a1.49,1.49,0,0,1,.07,1,1.47,1.47,0,0,1-.33.59c-.6.65-4.1,1.88-6.55,1.59a2.46,2.46,0,0,1-2.11-1.13,1.74,1.74,0,0,1-.21-.74" />
  <path class="GUNDAN_OTTER_JEWELRY_GUNDAN_OTTER_JEWELRY_7_cls-5" d="M231.06,339.64a10.73,10.73,0,0,1,5.66-.88h0" />
  <path class="GUNDAN_OTTER_JEWELRY_GUNDAN_OTTER_JEWELRY_7_cls-5" d="M228.11,343.54c1.29,1.36,3.78,2,6.48,1.49,3.29-.61,5.83-1.74,6.15-3.47h0a3.42,3.42,0,0,0-.75-2.46h0" />
  <path class="GUNDAN_OTTER_JEWELRY_GUNDAN_OTTER_JEWELRY_7_cls-5" d="M227.18,341.13a3,3,0,0,0,.28,1.44,3.83,3.83,0,0,0,.64,1" />
  <path class="GUNDAN_OTTER_JEWELRY_GUNDAN_OTTER_JEWELRY_7_cls-5" d="M228.15,339.12a7.34,7.34,0,0,1,3-1.74,13.65,13.65,0,0,1,7.05,0h0" />
  <path class="GUNDAN_OTTER_JEWELRY_GUNDAN_OTTER_JEWELRY_7_cls-5" d="M228.11,343.54h0a59.48,59.48,0,0,0-6.57.63s.83-.56.63-2.73" />
  <path class="GUNDAN_OTTER_JEWELRY_GUNDAN_OTTER_JEWELRY_7_cls-5" d="M232,343.19a1.12,1.12,0,0,0,.75-.95,2.62,2.62,0,0,0-1.69-2.6,6.18,6.18,0,0,0-2.57-.51h-.35a38.9,38.9,0,0,0-7.53.35,3.93,3.93,0,0,0-2,.85,1.14,1.14,0,0,0-.41.79,2.2,2.2,0,0,0,.79,2.17,5.52,5.52,0,0,0,1.2-1.27,7.15,7.15,0,0,1,1.47-.47q.56-.15,1.38-.3a20,20,0,0,1,4.09-.11c1.22.06,2.25.16,2.5.19h.07" />
  <path class="GUNDAN_OTTER_JEWELRY_GUNDAN_OTTER_JEWELRY_7_cls-5" d="M298.32,296.38h0c2.36.78,2.94,4.12,2.24,6v0" />
  <ellipse cx="239.13" cy="364.58" rx="14.31" ry="14.4" />
  <polygon class="GUNDAN_OTTER_JEWELRY_GUNDAN_OTTER_JEWELRY_7_cls-6" points="236.43 373.43 238.33 372.79 235.12 371.09 236.43 373.43" />
  <polygon class="GUNDAN_OTTER_JEWELRY_GUNDAN_OTTER_JEWELRY_7_cls-7" points="239.94 372.79 243.15 371.09 241.84 373.43 239.94 372.79" />
  <polygon class="GUNDAN_OTTER_JEWELRY_GUNDAN_OTTER_JEWELRY_7_cls-7" points="231.71 365.65 233.41 369.53 230.61 368.3 231.71 365.65" />
  <path class="GUNDAN_OTTER_JEWELRY_GUNDAN_OTTER_JEWELRY_7_cls-6" d="M229,372.42a13,13,0,0,1-1.56-2.71l2.15-.76Z" />
  <path class="GUNDAN_OTTER_JEWELRY_GUNDAN_OTTER_JEWELRY_7_cls-7" d="M226.41,363.65a13.12,13.12,0,0,1,.78-3.62l2.26.81Z" />
  <polygon class="GUNDAN_OTTER_JEWELRY_GUNDAN_OTTER_JEWELRY_7_cls-6" points="233.41 359.64 231.71 363.52 230.61 360.87 233.41 359.64" />
  <path class="GUNDAN_OTTER_JEWELRY_GUNDAN_OTTER_JEWELRY_7_cls-6" d="M227.42,359.45a13.18,13.18,0,0,1,1.56-2.7l.59,3.47Z" />
  <path class="GUNDAN_OTTER_JEWELRY_GUNDAN_OTTER_JEWELRY_7_cls-7" d="M227.19,369.13a13.05,13.05,0,0,1-.78-3.61l3,2.81Z" />
  <polygon class="GUNDAN_OTTER_JEWELRY_GUNDAN_OTTER_JEWELRY_7_cls-8" points="231.25 364.58 229.92 367.76 226.47 364.58 229.92 361.4 231.25 364.58" />
  <polygon class="GUNDAN_OTTER_JEWELRY_GUNDAN_OTTER_JEWELRY_7_cls-7" points="236.43 355.74 238.33 356.38 235.12 358.08 236.43 355.74" />
  <path class="GUNDAN_OTTER_JEWELRY_GUNDAN_OTTER_JEWELRY_7_cls-7" d="M238.42,377.51a12.32,12.32,0,0,1-4.29-1l2-2.06Z" />
  <polygon class="GUNDAN_OTTER_JEWELRY_GUNDAN_OTTER_JEWELRY_7_cls-9" points="239.14 372.47 234.54 370.04 232.16 364.58 234.54 359.13 239.14 356.7 243.73 359.13 246.11 364.58 243.73 370.04 239.14 372.47" />
  <polygon class="GUNDAN_OTTER_JEWELRY_GUNDAN_OTTER_JEWELRY_7_cls-8" points="233.8 370.4 235.53 373.5 229.75 373.1 230.46 368.93 233.8 370.4" />
  <polygon class="GUNDAN_OTTER_JEWELRY_GUNDAN_OTTER_JEWELRY_7_cls-6" points="243.15 358.08 239.94 356.38 241.84 355.74 243.15 358.08" />
  <polygon class="GUNDAN_OTTER_JEWELRY_GUNDAN_OTTER_JEWELRY_7_cls-6" points="244.87 369.53 246.56 365.65 247.66 368.3 244.87 369.53" />
  <polygon class="GUNDAN_OTTER_JEWELRY_GUNDAN_OTTER_JEWELRY_7_cls-7" points="246.56 363.52 244.87 359.64 247.66 360.87 246.56 363.52" />
  <path class="GUNDAN_OTTER_JEWELRY_GUNDAN_OTTER_JEWELRY_7_cls-7" d="M233.41,376.15a12.83,12.83,0,0,1-3.32-2.44l5.34.37Z" />
  <polygon class="GUNDAN_OTTER_JEWELRY_GUNDAN_OTTER_JEWELRY_7_cls-8" points="239.13 377.17 236.77 373.97 239.14 373.17 241.5 373.97 239.13 377.17" />
  <polygon class="GUNDAN_OTTER_JEWELRY_GUNDAN_OTTER_JEWELRY_7_cls-8" points="247.81 368.93 248.52 373.1 242.74 373.5 244.47 370.4 247.81 368.93" />
  <path class="GUNDAN_OTTER_JEWELRY_GUNDAN_OTTER_JEWELRY_7_cls-7" d="M250.85,369.71a13,13,0,0,1-1.56,2.71L248.7,369Z" />
  <polygon class="GUNDAN_OTTER_JEWELRY_GUNDAN_OTTER_JEWELRY_7_cls-8" points="247.02 364.58 248.35 361.4 251.79 364.58 248.35 367.76 247.02 364.58" />
  <path class="GUNDAN_OTTER_JEWELRY_GUNDAN_OTTER_JEWELRY_7_cls-7" d="M251.86,365.52a13.05,13.05,0,0,1-.78,3.61l-2.26-.8Z" />
  <path class="GUNDAN_OTTER_JEWELRY_GUNDAN_OTTER_JEWELRY_7_cls-6" d="M248.18,373.71a13.1,13.1,0,0,1-3.32,2.45l-2-2.08Z" />
  <path class="GUNDAN_OTTER_JEWELRY_GUNDAN_OTTER_JEWELRY_7_cls-7" d="M244.14,376.49a12.32,12.32,0,0,1-4.29,1l2.29-3.08Z" />
  <polygon class="GUNDAN_OTTER_JEWELRY_GUNDAN_OTTER_JEWELRY_7_cls-8" points="244.47 358.77 242.74 355.67 248.52 356.06 247.81 360.23 244.47 358.77" />
  <path class="GUNDAN_OTTER_JEWELRY_GUNDAN_OTTER_JEWELRY_7_cls-7" d="M251.08,360a13.12,13.12,0,0,1,.78,3.62l-3-2.81Z" />
  <path class="GUNDAN_OTTER_JEWELRY_GUNDAN_OTTER_JEWELRY_7_cls-7" d="M239.85,351.65a12.54,12.54,0,0,1,4.29,1l-2,2.07Z" />
  <path class="GUNDAN_OTTER_JEWELRY_GUNDAN_OTTER_JEWELRY_7_cls-7" d="M244.86,353a13.06,13.06,0,0,1,3.32,2.44l-5.34-.36Z" />
  <path class="GUNDAN_OTTER_JEWELRY_GUNDAN_OTTER_JEWELRY_7_cls-7" d="M230.09,355.45a13.06,13.06,0,0,1,3.32-2.44l2,2.08Z" />
  <path class="GUNDAN_OTTER_JEWELRY_GUNDAN_OTTER_JEWELRY_7_cls-10" d="M234.13,352.67a12.54,12.54,0,0,1,4.29-1l-2.29,3.09Z" />
  <polygon class="GUNDAN_OTTER_JEWELRY_GUNDAN_OTTER_JEWELRY_7_cls-8" points="230.46 360.23 229.75 356.06 235.53 355.67 233.8 358.77 230.46 360.23" />
  <polygon class="GUNDAN_OTTER_JEWELRY_GUNDAN_OTTER_JEWELRY_7_cls-8" points="236.77 355.2 239.13 352 241.5 355.2 239.14 356 236.77 355.2" />
  <path class="GUNDAN_OTTER_JEWELRY_GUNDAN_OTTER_JEWELRY_7_cls-6" d="M249.29,356.75a13.18,13.18,0,0,1,1.56,2.7l-2.15.77Z" />
  <rect class="GUNDAN_OTTER_JEWELRY_GUNDAN_OTTER_JEWELRY_7_cls-11" x="234.49" y="341.8" width="2.68" height="9.89" rx="1.34" transform="translate(-55.95 45.56) rotate(-9.87)" />
  <path class="GUNDAN_OTTER_JEWELRY_GUNDAN_OTTER_JEWELRY_7_cls-12" d="M144.25,147.85c-1.5.45-1.66,2.21-1.66,2.91v1.64" />
  <path class="GUNDAN_OTTER_JEWELRY_GUNDAN_OTTER_JEWELRY_7_cls-12" d="M148.71,173.91V151.6a3.88,3.88,0,0,0-1.65-3.18" />
  <path class="GUNDAN_OTTER_JEWELRY_GUNDAN_OTTER_JEWELRY_7_cls-13" d="M147.64,185.6l-.81-.1a.35.35,0,0,1-.29-.39l.12-.74-.39-.08a9.82,9.82,0,0,1-1.12-.33l-.26.71a.37.37,0,0,1-.18.19.35.35,0,0,1-.14,0l-.12,0c-.26-.1-.51-.2-.76-.32a.34.34,0,0,1-.17-.45l.31-.68a11.58,11.58,0,0,1-1.35-.79l-.44.6a.35.35,0,0,1-.28.14.31.31,0,0,1-.2-.07,8,8,0,0,1-.64-.51.34.34,0,0,1,0-.48l.49-.57a10.53,10.53,0,0,1-1.09-1.13l-.59.46a.34.34,0,0,1-.21.08h0a.35.35,0,0,1-.23-.12c-.17-.22-.33-.44-.48-.67a.33.33,0,0,1-.06-.25.34.34,0,0,1,.15-.22l.63-.43a9.63,9.63,0,0,1-.75-1.37l-.7.29-.13,0a.31.31,0,0,1-.13,0,.32.32,0,0,1-.18-.18c-.11-.25-.2-.51-.29-.77a.34.34,0,0,1,.22-.43l.71-.24a11.28,11.28,0,0,1-.34-1.53l-.79.09a.34.34,0,0,1-.34-.3c0-.27-.06-.55-.07-.82a.35.35,0,0,1,.33-.36l.75,0a10.13,10.13,0,0,1,.09-1.56l-.75-.12a.35.35,0,0,1-.29-.39c.05-.27.1-.54.16-.81a.38.38,0,0,1,.16-.23.47.47,0,0,1,.2-.06h.06l.72.17a10,10,0,0,1,.51-1.48l-.68-.31a.34.34,0,0,1-.17-.45c.11-.25.24-.5.37-.74a.32.32,0,0,1,.2-.16l.1,0a.3.3,0,0,1,.16.05l.66.36a11.78,11.78,0,0,1,.89-1.29l-.58-.49a.33.33,0,0,1,0-.48c.17-.21.36-.41.55-.61a.37.37,0,0,1,.24-.1.31.31,0,0,1,.24.1l.55.53a10.33,10.33,0,0,1,1.19-1l-.42-.63a.34.34,0,0,1-.05-.26.35.35,0,0,1,.14-.22l.7-.43a.34.34,0,0,1,.17,0h.09a.35.35,0,0,1,.2.16l.39.66a10.09,10.09,0,0,1,1.42-.64l-.24-.72a.33.33,0,0,1,0-.26.31.31,0,0,1,.2-.17c.25-.09.52-.17.79-.24h.08a.34.34,0,0,1,.33.25l.19.74a11.13,11.13,0,0,1,1.55-.24l0-.75a.38.38,0,0,1,.09-.25.41.41,0,0,1,.24-.11H149a.34.34,0,0,1,.33.35v.74a11.53,11.53,0,0,1,1.55.2l.17-.73a.32.32,0,0,1,.15-.21.35.35,0,0,1,.18,0h.07c.27.06.54.13.8.21a.32.32,0,0,1,.2.16.39.39,0,0,1,0,.26l-.22.73a10.15,10.15,0,0,1,1.44.6l.36-.67a.34.34,0,0,1,.3-.17.29.29,0,0,1,.16,0c.24.13.48.27.71.42a.34.34,0,0,1,.11.47l-.41.64a10.39,10.39,0,0,1,1.22,1l.53-.55a.37.37,0,0,1,.24-.1h0a.3.3,0,0,1,.23.1c.2.19.39.39.57.59a.34.34,0,0,1,0,.48l-.57.51a11.63,11.63,0,0,1,.92,1.26l.65-.38a.41.41,0,0,1,.18,0,.34.34,0,0,1,.29.17c.14.24.27.48.39.73a.34.34,0,0,1-.15.45l-.68.34a10.3,10.3,0,0,1,.54,1.47l.73-.2h.09a.35.35,0,0,1,.33.26c.07.27.13.54.18.8a.34.34,0,0,1-.27.4l-.74.14a10.26,10.26,0,0,1,.13,1.56l.75,0a.37.37,0,0,1,.24.1.36.36,0,0,1,.09.24c0,.28,0,.55,0,.83a.36.36,0,0,1-.13.23.32.32,0,0,1-.21.08l-.79-.07a8.92,8.92,0,0,1-.18,1.13c0,.13-.07.27-.11.4l.72.22a.36.36,0,0,1,.2.16.39.39,0,0,1,0,.26q-.12.41-.27.78a.33.33,0,0,1-.32.22.25.25,0,0,1-.12,0l-.7-.27a11.43,11.43,0,0,1-.7,1.4l.64.41a.35.35,0,0,1,.1.47c-.14.23-.3.46-.46.68a.36.36,0,0,1-.23.13h-.05a.37.37,0,0,1-.2-.07l-.61-.45a11.45,11.45,0,0,1-1.05,1.16l.5.56a.34.34,0,0,1,0,.48c-.2.18-.42.36-.63.53a.35.35,0,0,1-.21.07.37.37,0,0,1-.27-.13l-.46-.59a12.89,12.89,0,0,1-1.33.83l.34.67a.35.35,0,0,1-.16.46c-.24.12-.5.23-.75.34l-.13,0-.13,0a.34.34,0,0,1-.18-.19l-.29-.7a10.68,10.68,0,0,1-1.5.45l.14.74a.35.35,0,0,1-.27.4c-.27.05-.55.09-.82.12h0a.32.32,0,0,1-.21-.08.32.32,0,0,1-.13-.22l-.09-.76c-.31,0-.62,0-.93,0h-.63l-.07.75a.33.33,0,0,1-.34.31Zm1.06-20.48a8.46,8.46,0,1,0,1.88.21A8.53,8.53,0,0,0,148.7,165.12Z" />
  <path d="M148.7,161.87H149l0,1.08a10.54,10.54,0,0,1,2.14.27h0l.24-1.05.77.2-.32,1a9.92,9.92,0,0,1,2,.84l.52-1c.23.12.47.26.69.4l-.59.93a10.14,10.14,0,0,1,1.7,1.34l.77-.78c.19.19.37.38.55.58l-.81.73a11.48,11.48,0,0,1,1.27,1.75l1-.55c.13.23.26.47.37.71l-1,.48a10.38,10.38,0,0,1,.75,2l1.06-.27c.07.25.12.52.17.78l-1.06.2a10.33,10.33,0,0,1,.18,2.16l1.08,0c0,.26,0,.53,0,.8l-1.09-.1a11.87,11.87,0,0,1-.21,1.42c-.06.24-.13.48-.2.71l1,.31c-.08.26-.16.51-.26.76l-1-.38a10.34,10.34,0,0,1-1,1.94l.92.59c-.14.22-.29.44-.45.65l-.87-.64a10.66,10.66,0,0,1-1.47,1.6l.73.82c-.2.17-.4.35-.61.51l-.67-.86a10.36,10.36,0,0,1-1.84,1.16l.48,1c-.24.12-.48.23-.73.33l-.41-1a10.73,10.73,0,0,1-2.09.63l.2,1.06-.79.13-.13-1.09a10,10,0,0,1-1.23.07c-.31,0-.63,0-.94,0l-.1,1.09-.79-.1.17-1.08-.71-.12a10.67,10.67,0,0,1-1.39-.43l-.38,1c-.25-.09-.5-.2-.74-.31l.45-1a10.6,10.6,0,0,1-1.87-1.11l-.65.88-.62-.5.7-.83a11.14,11.14,0,0,1-1.51-1.56l-.85.67c-.16-.21-.32-.43-.47-.65l.9-.61a11,11,0,0,1-1-1.92l-1,.42c-.1-.24-.19-.5-.28-.75l1-.35a10.7,10.7,0,0,1-.48-2.12l-1.08.13c0-.26-.06-.53-.07-.8l1.09,0a10.62,10.62,0,0,1,.12-2.17l-1.08-.17q.06-.39.15-.78v0l1.05.24a11.61,11.61,0,0,1,.7-2.06l-1-.45c.11-.24.23-.48.36-.71l1,.52a10.65,10.65,0,0,1,1.22-1.79l-.83-.71.54-.59.79.77a11.09,11.09,0,0,1,1.66-1.4l-.61-.9c.22-.15.45-.29.68-.43l.55,1a11,11,0,0,1,2-.89l-.35-1c.26-.09.51-.16.77-.23l.27,1.06a11.06,11.06,0,0,1,2.15-.33l0-1.09h.55m0,20.52A8.8,8.8,0,0,0,150.66,165a8.73,8.73,0,0,0-2-.22,8.81,8.81,0,0,0,0,17.61m0-21.2h-.58a.68.68,0,0,0-.65.71l0,.43c-.32,0-.63.09-.94.15l-.11-.42a.68.68,0,0,0-.66-.51l-.17,0c-.27.07-.55.15-.81.24a.71.71,0,0,0-.4.34.67.67,0,0,0,0,.52l.13.42a7.34,7.34,0,0,0-.86.39l-.22-.38a.69.69,0,0,0-.59-.34.67.67,0,0,0-.34.09c-.25.14-.49.3-.72.45a.69.69,0,0,0-.18.95l.24.36a8.42,8.42,0,0,0-.73.61l-.31-.31a.68.68,0,0,0-1,0c-.2.2-.39.41-.57.62a.68.68,0,0,0,.07,1l.33.28q-.28.38-.54.78l-.37-.2a.67.67,0,0,0-.93.27c-.13.25-.26.5-.38.76a.67.67,0,0,0,.34.9l.38.18a8.67,8.67,0,0,0-.31.9l-.41-.1h-.15a.65.65,0,0,0-.36.1.64.64,0,0,0-.3.42c-.07.31-.13.59-.17.86a.67.67,0,0,0,.57.78l.42.07c0,.32,0,.64,0,1l-.43,0a.66.66,0,0,0-.47.23.68.68,0,0,0-.18.49c0,.28,0,.56.07.84a.68.68,0,0,0,.26.46.71.71,0,0,0,.42.14h.08l.43,0a7.77,7.77,0,0,0,.21.93l-.41.13a.73.73,0,0,0-.4.35.67.67,0,0,0,0,.52c.09.26.19.53.29.79a.69.69,0,0,0,.63.42.58.58,0,0,0,.26,0l.4-.16c.14.28.29.56.45.83l-.35.25a.67.67,0,0,0-.19.94l.5.69a.68.68,0,0,0,.46.25h.08a.66.66,0,0,0,.42-.15l.33-.26c.21.24.43.46.66.68l-.27.33a.66.66,0,0,0-.16.5.64.64,0,0,0,.24.46c.21.18.43.36.66.53a.66.66,0,0,0,.4.13.68.68,0,0,0,.55-.28l.25-.34c.27.17.55.34.82.49l-.17.38a.67.67,0,0,0,.34.9q.38.18.78.33a.67.67,0,0,0,.24,0,.71.71,0,0,0,.28-.06.74.74,0,0,0,.36-.38l.15-.4a7.45,7.45,0,0,0,.83.23l.08,0-.06.41a.67.67,0,0,0,.12.51.65.65,0,0,0,.45.27c.27,0,.56.08.83.11h.07a.68.68,0,0,0,.67-.62l0-.43h1l0,.42a.69.69,0,0,0,.68.61h.08a8.13,8.13,0,0,0,.84-.13.67.67,0,0,0,.54-.79l-.08-.42c.31-.08.62-.17.92-.27l.16.39a.67.67,0,0,0,.37.37.7.7,0,0,0,.52,0,7.59,7.59,0,0,0,.77-.35.71.71,0,0,0,.35-.39.72.72,0,0,0,0-.52l-.19-.38q.42-.24.81-.51l.26.34a.74.74,0,0,0,.45.26h.09a.71.71,0,0,0,.42-.14c.22-.18.44-.36.65-.55a.69.69,0,0,0,.22-.47.69.69,0,0,0-.17-.49l-.29-.32a8.42,8.42,0,0,0,.64-.7l.35.25a.65.65,0,0,0,.4.14h.1a.73.73,0,0,0,.45-.27c.17-.23.33-.46.48-.7a.66.66,0,0,0,.09-.51.7.7,0,0,0-.3-.43l-.37-.23c.16-.28.3-.56.43-.85l.4.15a.7.7,0,0,0,.88-.4c.1-.26.19-.53.27-.8a.68.68,0,0,0-.45-.85l-.4-.12s0-.07,0-.1c.06-.26.11-.54.15-.83l.42,0h.07a.67.67,0,0,0,.67-.62,8.08,8.08,0,0,0,0-.85.63.63,0,0,0-.19-.48.61.61,0,0,0-.48-.21H160c0-.32,0-.64-.08-1l.42-.07a.68.68,0,0,0,.54-.8c0-.27-.11-.55-.18-.83a.71.71,0,0,0-.31-.41.74.74,0,0,0-.35-.1.47.47,0,0,0-.17,0l-.42.1c-.09-.3-.21-.6-.33-.89l.39-.19a.69.69,0,0,0,.34-.39.67.67,0,0,0,0-.52c-.13-.25-.26-.51-.4-.75a.69.69,0,0,0-.59-.34.73.73,0,0,0-.35.09l-.37.22c-.18-.26-.36-.52-.56-.77l.32-.28a.69.69,0,0,0,.06-1c-.19-.21-.39-.41-.59-.61a.66.66,0,0,0-.47-.19.7.7,0,0,0-.49.2l-.3.31c-.24-.2-.49-.4-.75-.58l.23-.37a.68.68,0,0,0-.2-.94c-.24-.15-.49-.3-.73-.43a.67.67,0,0,0-.33-.08.68.68,0,0,0-.6.35l-.2.38c-.29-.13-.58-.26-.88-.37l.12-.41a.68.68,0,0,0-.45-.85c-.27-.08-.55-.15-.82-.21a.39.39,0,0,0-.15,0,.69.69,0,0,0-.67.53l-.09.4c-.32,0-.63-.09-.95-.11v-.42a.65.65,0,0,0-.19-.49.68.68,0,0,0-.47-.21Zm0,20.52a8.51,8.51,0,0,1-1.81-.2,8.14,8.14,0,0,1-6.12-9.73,8.2,8.2,0,0,1,7.92-6.32,7.86,7.86,0,0,1,1.81.21,8.13,8.13,0,0,1,6.12,9.72,8.2,8.2,0,0,1-7.92,6.32Z" />
  <ellipse cx="148.69" cy="173.57" rx="6.61" ry="6.65" />
  <polygon class="GUNDAN_OTTER_JEWELRY_GUNDAN_OTTER_JEWELRY_7_cls-14" points="149.95 177.66 149.07 177.36 150.55 176.58 149.95 177.66" />
  <polygon class="GUNDAN_OTTER_JEWELRY_GUNDAN_OTTER_JEWELRY_7_cls-15" points="148.32 177.36 146.84 176.58 147.44 177.66 148.32 177.36" />
  <polygon class="GUNDAN_OTTER_JEWELRY_GUNDAN_OTTER_JEWELRY_7_cls-15" points="152.13 174.06 151.34 175.86 152.64 175.29 152.13 174.06" />
  <path class="GUNDAN_OTTER_JEWELRY_GUNDAN_OTTER_JEWELRY_7_cls-14" d="M153.39,177.19a5.73,5.73,0,0,0,.72-1.25l-1-.35Z" />
  <path class="GUNDAN_OTTER_JEWELRY_GUNDAN_OTTER_JEWELRY_7_cls-15" d="M154.58,173.14a6.44,6.44,0,0,0-.36-1.67l-1.05.37Z" />
  <polygon class="GUNDAN_OTTER_JEWELRY_GUNDAN_OTTER_JEWELRY_7_cls-14" points="151.34 171.29 152.13 173.08 152.64 171.85 151.34 171.29" />
  <path class="GUNDAN_OTTER_JEWELRY_GUNDAN_OTTER_JEWELRY_7_cls-14" d="M154.11,171.2a5.73,5.73,0,0,0-.72-1.25l-.28,1.6Z" />
  <path class="GUNDAN_OTTER_JEWELRY_GUNDAN_OTTER_JEWELRY_7_cls-15" d="M154.22,175.67a6.44,6.44,0,0,0,.36-1.67l-1.41,1.3Z" />
  <polygon class="GUNDAN_OTTER_JEWELRY_GUNDAN_OTTER_JEWELRY_7_cls-16" points="152.34 173.57 152.95 175.04 154.55 173.57 152.95 172.1 152.34 173.57" />
  <polygon class="GUNDAN_OTTER_JEWELRY_GUNDAN_OTTER_JEWELRY_7_cls-15" points="149.95 169.48 149.07 169.78 150.55 170.56 149.95 169.48" />
  <path class="GUNDAN_OTTER_JEWELRY_GUNDAN_OTTER_JEWELRY_7_cls-15" d="M149,179.55a6,6,0,0,0,2-.47l-.93-1Z" />
  <polygon class="GUNDAN_OTTER_JEWELRY_GUNDAN_OTTER_JEWELRY_7_cls-14" points="148.69 177.22 150.82 176.09 151.92 173.57 150.82 171.05 148.69 169.93 146.57 171.05 145.47 173.57 146.57 176.09 148.69 177.22" />
  <polygon class="GUNDAN_OTTER_JEWELRY_GUNDAN_OTTER_JEWELRY_7_cls-16" points="151.16 176.26 150.36 177.69 153.03 177.51 152.71 175.58 151.16 176.26" />
  <polygon class="GUNDAN_OTTER_JEWELRY_GUNDAN_OTTER_JEWELRY_7_cls-14" points="146.84 170.56 148.32 169.78 147.44 169.48 146.84 170.56" />
  <polygon class="GUNDAN_OTTER_JEWELRY_GUNDAN_OTTER_JEWELRY_7_cls-14" points="146.05 175.86 145.26 174.06 144.75 175.29 146.05 175.86" />
  <polygon class="GUNDAN_OTTER_JEWELRY_GUNDAN_OTTER_JEWELRY_7_cls-15" points="145.26 173.08 146.05 171.29 144.75 171.85 145.26 173.08" />
  <path class="GUNDAN_OTTER_JEWELRY_GUNDAN_OTTER_JEWELRY_7_cls-15" d="M151.34,178.92a5.68,5.68,0,0,0,1.53-1.13l-2.46.17Z" />
  <polygon class="GUNDAN_OTTER_JEWELRY_GUNDAN_OTTER_JEWELRY_7_cls-16" points="148.69 179.39 149.79 177.91 148.69 177.54 147.6 177.91 148.69 179.39" />
  <polygon class="GUNDAN_OTTER_JEWELRY_GUNDAN_OTTER_JEWELRY_7_cls-16" points="144.68 175.58 144.35 177.51 147.03 177.69 146.23 176.26 144.68 175.58" />
  <path class="GUNDAN_OTTER_JEWELRY_GUNDAN_OTTER_JEWELRY_7_cls-15" d="M143.28,175.94a5.73,5.73,0,0,0,.72,1.25l.28-1.6Z" />
  <polygon class="GUNDAN_OTTER_JEWELRY_GUNDAN_OTTER_JEWELRY_7_cls-16" points="145.05 173.57 144.44 172.1 142.84 173.57 144.44 175.04 145.05 173.57" />
  <path class="GUNDAN_OTTER_JEWELRY_GUNDAN_OTTER_JEWELRY_7_cls-15" d="M142.81,174a6.44,6.44,0,0,0,.36,1.67l1.05-.37Z" />
  <path class="GUNDAN_OTTER_JEWELRY_GUNDAN_OTTER_JEWELRY_7_cls-14" d="M144.52,177.79a5.68,5.68,0,0,0,1.53,1.13l.93-1Z" />
  <path class="GUNDAN_OTTER_JEWELRY_GUNDAN_OTTER_JEWELRY_7_cls-15" d="M146.38,179.08a5.92,5.92,0,0,0,2,.47l-1.05-1.43Z" />
  <polygon class="GUNDAN_OTTER_JEWELRY_GUNDAN_OTTER_JEWELRY_7_cls-16" points="146.23 170.88 147.03 169.45 144.35 169.63 144.68 171.56 146.23 170.88" />
  <path class="GUNDAN_OTTER_JEWELRY_GUNDAN_OTTER_JEWELRY_7_cls-15" d="M143.17,171.47a6.44,6.44,0,0,0-.36,1.67l1.41-1.3Z" />
  <path class="GUNDAN_OTTER_JEWELRY_GUNDAN_OTTER_JEWELRY_7_cls-15" d="M148.36,167.6a5.48,5.48,0,0,0-2,.47l.93,1Z" />
  <path class="GUNDAN_OTTER_JEWELRY_GUNDAN_OTTER_JEWELRY_7_cls-15" d="M146.05,168.22a5.89,5.89,0,0,0-1.53,1.13l2.46-.17Z" />
  <path class="GUNDAN_OTTER_JEWELRY_GUNDAN_OTTER_JEWELRY_7_cls-15" d="M152.87,169.35a5.89,5.89,0,0,0-1.53-1.13l-.93,1Z" />
  <path class="GUNDAN_OTTER_JEWELRY_GUNDAN_OTTER_JEWELRY_7_cls-14" d="M151,168.07a5.74,5.74,0,0,0-2-.47l1.05,1.42Z" />
  <polygon class="GUNDAN_OTTER_JEWELRY_GUNDAN_OTTER_JEWELRY_7_cls-16" points="152.71 171.56 153.03 169.63 150.36 169.45 151.16 170.88 152.71 171.56" />
  <polygon class="GUNDAN_OTTER_JEWELRY_GUNDAN_OTTER_JEWELRY_7_cls-16" points="149.79 169.23 148.69 167.76 147.6 169.23 148.69 169.6 149.79 169.23" />
  <path class="GUNDAN_OTTER_JEWELRY_GUNDAN_OTTER_JEWELRY_7_cls-14" d="M144,170a5.73,5.73,0,0,0-.72,1.25l1,.35Z" />
  <path class="GUNDAN_OTTER_JEWELRY_GUNDAN_OTTER_JEWELRY_7_cls-17" d="M148.43,147a3.23,3.23,0,0,0-2,3.47" />
</svg>