<svg id="Jewelry_Front" data-name="Jewelry Front" xmlns="http://www.w3.org/2000/svg" viewBox="0 0 432 432">
  <defs>
    <style>.GUNDAN_OTTER_JEWELRY_GUNDAN_OTTER_JEWELRY_9_cls-1{fill:#d0b240;}.GUNDAN_OTTER_JEWELRY_GUNDAN_OTTER_JEWELRY_9_cls-10,.GUNDAN_OTTER_JEWELRY_GUNDAN_OTTER_JEWELRY_9_cls-2,.GUNDAN_OTTER_JEWELRY_GUNDAN_OTTER_JEWELRY_9_cls-5,.GUNDAN_OTTER_JEWELRY_GUNDAN_OTTER_JEWELRY_9_cls-6,.GUNDAN_OTTER_JEWELRY_GUNDAN_OTTER_JEWELRY_9_cls-9{fill:none;stroke:#000;stroke-linecap:round;}.GUNDAN_OTTER_JEWELRY_GUNDAN_OTTER_JEWELRY_9_cls-10,.GUNDAN_OTTER_JEWELRY_GUNDAN_OTTER_JEWELRY_9_cls-2,.GUNDAN_OTTER_JEWELRY_GUNDAN_OTTER_JEWELRY_9_cls-5,.GUNDAN_OTTER_JEWELRY_GUNDAN_OTTER_JEWELRY_9_cls-6{stroke-linejoin:round;}.GUNDAN_OTTER_JEWELRY_GUNDAN_OTTER_JEWELRY_9_cls-2{stroke-width:1.89px;}.GUNDAN_OTTER_JEWELRY_GUNDAN_OTTER_JEWELRY_9_cls-3{fill:#ecbe38;}.GUNDAN_OTTER_JEWELRY_GUNDAN_OTTER_JEWELRY_9_cls-4{fill:#ad8c2f;}.GUNDAN_OTTER_JEWELRY_GUNDAN_OTTER_JEWELRY_9_cls-5{stroke-width:0.46px;}.GUNDAN_OTTER_JEWELRY_GUNDAN_OTTER_JEWELRY_9_cls-6{stroke-width:0.57px;}.GUNDAN_OTTER_JEWELRY_GUNDAN_OTTER_JEWELRY_9_cls-7{fill:#ed9547;}.GUNDAN_OTTER_JEWELRY_GUNDAN_OTTER_JEWELRY_9_cls-8{fill:#facf56;}.GUNDAN_OTTER_JEWELRY_GUNDAN_OTTER_JEWELRY_9_cls-9{stroke-miterlimit:10;stroke-width:0.9px;}.GUNDAN_OTTER_JEWELRY_GUNDAN_OTTER_JEWELRY_9_cls-10{stroke-width:0.81px;}</style>
  </defs>
  <path class="GUNDAN_OTTER_JEWELRY_GUNDAN_OTTER_JEWELRY_9_cls-1" d="M175.73,322.06a1.9,1.9,0,0,1,1.24.64,2.28,2.28,0,0,1,.61,1.4,1.81,1.81,0,0,1-.58,1.45,2.1,2.1,0,0,1-1.6.54,2.45,2.45,0,0,1-.87-.26,2.28,2.28,0,0,1-.66-.55,1.55,1.55,0,0,1-.28-1.54,2.73,2.73,0,0,1,.85-1.25,1.51,1.51,0,0,1,.6-.35A1.75,1.75,0,0,1,175.73,322.06Z" />
  <path class="GUNDAN_OTTER_JEWELRY_GUNDAN_OTTER_JEWELRY_9_cls-1" d="M136.11,283.34a2,2,0,1,1,1.87,3.57,2.12,2.12,0,0,1-1.54.1,2,2,0,0,1-1.15-.95A2,2,0,0,1,136.11,283.34Z" />
  <path class="GUNDAN_OTTER_JEWELRY_GUNDAN_OTTER_JEWELRY_9_cls-1" d="M172.77,321.13a1.73,1.73,0,0,1,.81,1.09,2.79,2.79,0,0,1,0,1.52,1.67,1.67,0,0,1-1.11,1.11,2.25,2.25,0,0,1-1.72-.21,1.76,1.76,0,0,1-.34-.25,1.23,1.23,0,0,1-.22-.25,2.37,2.37,0,0,1-.31-.64A2.25,2.25,0,0,1,170,322a1.84,1.84,0,0,1,1.15-1.05,1.81,1.81,0,0,1,.84-.06l.44.11A3,3,0,0,1,172.77,321.13Z" />
  <path class="GUNDAN_OTTER_JEWELRY_GUNDAN_OTTER_JEWELRY_9_cls-1" d="M138,286.91a2,2,0,0,1,2.69,1,2,2,0,0,1-3.67,1.7A2,2,0,0,1,138,286.91Z" />
  <path class="GUNDAN_OTTER_JEWELRY_GUNDAN_OTTER_JEWELRY_9_cls-1" d="M168.87,319.34a2.07,2.07,0,0,1,1.1,1.08,1.9,1.9,0,0,1,0,1.55,2,2,0,0,1-1.08,1.08,2,2,0,0,1-1.55,0,2.13,2.13,0,0,1-1.17-1.17,1.8,1.8,0,0,1,.11-1.55,2.34,2.34,0,0,1,1.16-1A1.86,1.86,0,0,1,168.87,319.34Z" />
  <path class="GUNDAN_OTTER_JEWELRY_GUNDAN_OTTER_JEWELRY_9_cls-1" d="M139.68,290.56a2,2,0,0,1,1.77,3.62,2,2,0,1,1-1.77-3.62Z" />
  <path class="GUNDAN_OTTER_JEWELRY_GUNDAN_OTTER_JEWELRY_9_cls-1" d="M166,317.64a1.21,1.21,0,0,1,.42.57,3,3,0,0,1,.17.64,2.59,2.59,0,0,1-.29,1.51,1.72,1.72,0,0,1-1.28.88,1.8,1.8,0,0,1-.88-.11,2.7,2.7,0,0,1-.77-.44,2.08,2.08,0,0,1-.28-2.75A2,2,0,0,1,166,317.64Z" />
  <path class="GUNDAN_OTTER_JEWELRY_GUNDAN_OTTER_JEWELRY_9_cls-1" d="M141.45,294.18a2.1,2.1,0,0,1,2.72.66,2.13,2.13,0,0,1-.55,2.72,2,2,0,1,1-2.17-3.38Z" />
  <path class="GUNDAN_OTTER_JEWELRY_GUNDAN_OTTER_JEWELRY_9_cls-1" d="M162.81,315.17a2.11,2.11,0,0,1,.26,2.77,2,2,0,1,1-3-2.62A2.06,2.06,0,0,1,162.81,315.17Z" />
  <path class="GUNDAN_OTTER_JEWELRY_GUNDAN_OTTER_JEWELRY_9_cls-1" d="M149.15,300.65a2,2,0,0,1-.1,2.86h0a2,2,0,0,1-2.82-.1,2,2,0,0,1,0-2.81l0,0,0,0A2,2,0,0,1,149.15,300.65Z" />
  <path class="GUNDAN_OTTER_JEWELRY_GUNDAN_OTTER_JEWELRY_9_cls-1" d="M143.62,297.56a2.09,2.09,0,0,1,2.81.19,2.06,2.06,0,0,1-.11,2.81l0,0,0,0a2,2,0,0,1-2.84-.16A2,2,0,0,1,143.62,297.56Z" />
  <path class="GUNDAN_OTTER_JEWELRY_GUNDAN_OTTER_JEWELRY_9_cls-1" d="M160.08,312.49a2.06,2.06,0,0,1-.06,2.83,2,2,0,1,1-2.78-2.92h0A2,2,0,0,1,160.08,312.49Z" />
  <path class="GUNDAN_OTTER_JEWELRY_GUNDAN_OTTER_JEWELRY_9_cls-1" d="M149.05,303.51a2,2,0,1,1-.11,2.84,2,2,0,0,1,.11-2.84Z" />
  <path class="GUNDAN_OTTER_JEWELRY_GUNDAN_OTTER_JEWELRY_9_cls-1" d="M153.24,305.93a2,2,0,0,1,1.39.65,2,2,0,1,1-2.84-.11A2.05,2.05,0,0,1,153.24,305.93Z" />
  <path class="GUNDAN_OTTER_JEWELRY_GUNDAN_OTTER_JEWELRY_9_cls-1" d="M156,308.89a2,2,0,0,1,1.4.65,2,2,0,0,1-.1,2.84h0a2,2,0,0,1-2.72-3A2,2,0,0,1,156,308.89Z" />
  <path class="GUNDAN_OTTER_JEWELRY_GUNDAN_OTTER_JEWELRY_9_cls-2" d="M136.11,283.34a2,2,0,0,0-.82,2.72,2,2,0,0,0,1.15.95,2.12,2.12,0,0,0,1.54-.1,2,2,0,0,0,1-1.17,2,2,0,0,0-2.89-2.4Z" />
  <path class="GUNDAN_OTTER_JEWELRY_GUNDAN_OTTER_JEWELRY_9_cls-1" d="M135.06,279a2,2,0,0,1,2.74.82,2.06,2.06,0,0,1,.15,1.57,2,2,0,0,1-1,1.17,2.09,2.09,0,0,1-1.55.1,2,2,0,0,1-1.14-.95A2,2,0,0,1,135.06,279Z" />
  <path class="GUNDAN_OTTER_JEWELRY_GUNDAN_OTTER_JEWELRY_9_cls-2" d="M135.06,279a2,2,0,0,0-.82,2.71,2,2,0,0,0,1.14.95,2.09,2.09,0,0,0,1.55-.1,2,2,0,0,0,1-1.17,2.06,2.06,0,0,0-.15-1.57A2,2,0,0,0,135.06,279Z" />
  <path class="GUNDAN_OTTER_JEWELRY_GUNDAN_OTTER_JEWELRY_9_cls-2" d="M138,286.91a2,2,0,1,0,1.7,3.65,2,2,0,0,0,1-2.68A2,2,0,0,0,138,286.91Z" />
  <path class="GUNDAN_OTTER_JEWELRY_GUNDAN_OTTER_JEWELRY_9_cls-2" d="M139.68,290.56a2,2,0,1,0,1.77,3.62,2,2,0,0,0-1.77-3.62Z" />
  <path class="GUNDAN_OTTER_JEWELRY_GUNDAN_OTTER_JEWELRY_9_cls-2" d="M141.45,294.18a2,2,0,1,0,2.17,3.38,2.13,2.13,0,0,0,.55-2.72A2.1,2.1,0,0,0,141.45,294.18Z" />
  <path class="GUNDAN_OTTER_JEWELRY_GUNDAN_OTTER_JEWELRY_9_cls-2" d="M146.32,300.56a2.06,2.06,0,0,0,.11-2.81,2.09,2.09,0,0,0-2.81-.19,2,2,0,0,0-.2,2.89,2,2,0,0,0,2.84.16" />
  <path class="GUNDAN_OTTER_JEWELRY_GUNDAN_OTTER_JEWELRY_9_cls-2" d="M149.05,303.51a2,2,0,1,0-2.73-2.95l0,0,0,0a2,2,0,0,0,0,2.81,2,2,0,0,0,2.82.1" />
  <path class="GUNDAN_OTTER_JEWELRY_GUNDAN_OTTER_JEWELRY_9_cls-2" d="M149,303.52a2,2,0,1,0,2.86.1,2,2,0,0,0-2.86-.1Z" />
  <path class="GUNDAN_OTTER_JEWELRY_GUNDAN_OTTER_JEWELRY_9_cls-2" d="M151.67,309.31a2,2,0,1,0,3-2.73,2,2,0,0,0-2.84-.11A2,2,0,0,0,151.67,309.31Z" />
  <path class="GUNDAN_OTTER_JEWELRY_GUNDAN_OTTER_JEWELRY_9_cls-2" d="M157.26,312.38a2,2,0,0,0,.1-2.84,2,2,0,0,0-2.84-.11" />
  <path class="GUNDAN_OTTER_JEWELRY_GUNDAN_OTTER_JEWELRY_9_cls-2" d="M154.52,309.43a2,2,0,0,0,2.72,3" />
  <path class="GUNDAN_OTTER_JEWELRY_GUNDAN_OTTER_JEWELRY_9_cls-2" d="M157.24,312.4a2,2,0,1,0,2.78,2.92,2.06,2.06,0,0,0,.06-2.83,2,2,0,0,0-2.82-.11h0Z" />
  <path class="GUNDAN_OTTER_JEWELRY_GUNDAN_OTTER_JEWELRY_9_cls-2" d="M160,315.32a2,2,0,1,0,3,2.62,2.11,2.11,0,0,0-.26-2.77A2.06,2.06,0,0,0,160,315.32Z" />
  <path class="GUNDAN_OTTER_JEWELRY_GUNDAN_OTTER_JEWELRY_9_cls-2" d="M163.07,317.94a2.08,2.08,0,0,0,.28,2.75,2.7,2.7,0,0,0,.77.44,1.8,1.8,0,0,0,.88.11,1.72,1.72,0,0,0,1.28-.88,2.59,2.59,0,0,0,.29-1.51,3,3,0,0,0-.17-.64,1.21,1.21,0,0,0-.42-.57A2,2,0,0,0,163.07,317.94Z" />
  <path class="GUNDAN_OTTER_JEWELRY_GUNDAN_OTTER_JEWELRY_9_cls-2" d="M166.28,320.36a1.8,1.8,0,0,0-.11,1.55,2.13,2.13,0,0,0,1.17,1.17,2,2,0,0,0,1.55,0A2,2,0,0,0,170,322a1.9,1.9,0,0,0,0-1.55,2.07,2.07,0,0,0-1.1-1.08,1.86,1.86,0,0,0-1.43,0A2.34,2.34,0,0,0,166.28,320.36Z" />
  <path class="GUNDAN_OTTER_JEWELRY_GUNDAN_OTTER_JEWELRY_9_cls-2" d="M170,322a2.25,2.25,0,0,0-.08,1.53,2.37,2.37,0,0,0,.31.64,1.23,1.23,0,0,0,.22.25,1.76,1.76,0,0,0,.34.25,2.25,2.25,0,0,0,1.72.21,1.67,1.67,0,0,0,1.11-1.11,2.79,2.79,0,0,0,0-1.52,1.73,1.73,0,0,0-.81-1.09,3,3,0,0,0-.37-.16l-.44-.11a1.81,1.81,0,0,0-.84.06A1.84,1.84,0,0,0,170,322Z" />
  <path class="GUNDAN_OTTER_JEWELRY_GUNDAN_OTTER_JEWELRY_9_cls-2" d="M173.87,325.28a2.28,2.28,0,0,0,.66.55,2.45,2.45,0,0,0,.87.26,2.1,2.1,0,0,0,1.6-.54,1.81,1.81,0,0,0,.58-1.45,2.28,2.28,0,0,0-.61-1.4,1.9,1.9,0,0,0-1.24-.64,1.75,1.75,0,0,0-.69.08,1.51,1.51,0,0,0-.6.35,2.73,2.73,0,0,0-.85,1.25A1.55,1.55,0,0,0,173.87,325.28Z" />
  <path class="GUNDAN_OTTER_JEWELRY_GUNDAN_OTTER_JEWELRY_9_cls-1" d="M284.24,322.87a1.93,1.93,0,0,0-.64,1.25,2.25,2.25,0,0,0,.32,1.49,1.79,1.79,0,0,0,1.31.84,2.06,2.06,0,0,0,1.62-.49,2.47,2.47,0,0,0,.55-.71,2.56,2.56,0,0,0,.23-.83A1.61,1.61,0,0,0,287,323a2.75,2.75,0,0,0-1.42-.52,1.62,1.62,0,0,0-.69.06A1.91,1.91,0,0,0,284.24,322.87Z" />
  <path class="GUNDAN_OTTER_JEWELRY_GUNDAN_OTTER_JEWELRY_9_cls-1" d="M286.11,320.4a1.67,1.67,0,0,0,0,1.35A2.65,2.65,0,0,0,287,323a1.68,1.68,0,0,0,1.55.26,2.18,2.18,0,0,0,1.27-1.17,1.53,1.53,0,0,0,.14-.39,1.38,1.38,0,0,0,0-.34,2.38,2.38,0,0,0-.12-.69,2.24,2.24,0,0,0-.95-1.21,1.87,1.87,0,0,0-1.54-.19,2,2,0,0,0-.73.44,3.17,3.17,0,0,0-.29.35A2.8,2.8,0,0,0,286.11,320.4Z" />
  <path class="GUNDAN_OTTER_JEWELRY_GUNDAN_OTTER_JEWELRY_9_cls-1" d="M288.25,316.68a2.07,2.07,0,0,0-.27,1.52,1.92,1.92,0,0,0,.9,1.26,2,2,0,0,0,1.51.26,2,2,0,0,0,1.28-.88,2.17,2.17,0,0,0,.27-1.64,1.79,1.79,0,0,0-1-1.19,2.35,2.35,0,0,0-1.53-.15A1.86,1.86,0,0,0,288.25,316.68Z" />
  <path class="GUNDAN_OTTER_JEWELRY_GUNDAN_OTTER_JEWELRY_9_cls-1" d="M289.62,313.62a1.31,1.31,0,0,0,0,.71A2.51,2.51,0,0,0,291,316a1.72,1.72,0,0,0,1.56,0,1.82,1.82,0,0,0,.65-.59,2.55,2.55,0,0,0,.37-.81,2.07,2.07,0,0,0-1.37-2.4A1.94,1.94,0,0,0,289.62,313.62Z" />
  <path class="GUNDAN_OTTER_JEWELRY_GUNDAN_OTTER_JEWELRY_9_cls-1" d="M290.77,309.77a2.12,2.12,0,0,0,1.39,2.41,2,2,0,1,0,1-3.91A2.08,2.08,0,0,0,290.77,309.77Z" />
  <path class="GUNDAN_OTTER_JEWELRY_GUNDAN_OTTER_JEWELRY_9_cls-1" d="M291.44,306a2.05,2.05,0,0,0,1.7,2.26,2,2,0,1,0,.56-4h0A2,2,0,0,0,291.44,306Z" />
  <path class="GUNDAN_OTTER_JEWELRY_GUNDAN_OTTER_JEWELRY_9_cls-1" d="M295.22,292.29a2,2,0,1,0,1.74,2.26,2,2,0,0,0-1.74-2.26Z" />
  <path class="GUNDAN_OTTER_JEWELRY_GUNDAN_OTTER_JEWELRY_9_cls-1" d="M293.22,296.69a2,2,0,0,0,1,3.59,2,2,0,1,0,.51-4A2,2,0,0,0,293.22,296.69Z" />
  <path class="GUNDAN_OTTER_JEWELRY_GUNDAN_OTTER_JEWELRY_9_cls-1" d="M292.71,300.68A2,2,0,0,0,292,302a2,2,0,0,0,1.73,2.25h0a2,2,0,1,0,.5-4A2.08,2.08,0,0,0,292.71,300.68Z" />
  <path class="GUNDAN_OTTER_JEWELRY_GUNDAN_OTTER_JEWELRY_9_cls-2" d="M295.24,292.29A2,2,0,1,1,293,294a2,2,0,0,1,2.28-1.75Z" />
  <path class="GUNDAN_OTTER_JEWELRY_GUNDAN_OTTER_JEWELRY_9_cls-2" d="M296.45,298.54a2,2,0,1,1-4-.51,2,2,0,0,1,.76-1.34,2,2,0,0,1,1.49-.4A2,2,0,0,1,296.45,298.54Z" />
  <path class="GUNDAN_OTTER_JEWELRY_GUNDAN_OTTER_JEWELRY_9_cls-2" d="M293.68,304.28A2,2,0,0,1,292,302a2,2,0,0,1,.76-1.35,2.08,2.08,0,0,1,1.49-.39" />
  <path class="GUNDAN_OTTER_JEWELRY_GUNDAN_OTTER_JEWELRY_9_cls-2" d="M294.2,300.29a2,2,0,1,1-.5,4" />
  <path class="GUNDAN_OTTER_JEWELRY_GUNDAN_OTTER_JEWELRY_9_cls-2" d="M293.7,304.28a2,2,0,1,1-.56,4,2.05,2.05,0,0,1-1.7-2.26,2,2,0,0,1,2.24-1.73h0Z" />
  <path class="GUNDAN_OTTER_JEWELRY_GUNDAN_OTTER_JEWELRY_9_cls-2" d="M293.14,308.27a2,2,0,1,1-1,3.91,2.12,2.12,0,0,1-1.39-2.41A2.08,2.08,0,0,1,293.14,308.27Z" />
  <path class="GUNDAN_OTTER_JEWELRY_GUNDAN_OTTER_JEWELRY_9_cls-2" d="M292.16,312.18a2.07,2.07,0,0,1,1.37,2.4,2.55,2.55,0,0,1-.37.81,1.82,1.82,0,0,1-.65.59,1.72,1.72,0,0,1-1.56,0,2.51,2.51,0,0,1-1.34-1.68,1.31,1.31,0,0,1,0-.71A1.94,1.94,0,0,1,292.16,312.18Z" />
  <path class="GUNDAN_OTTER_JEWELRY_GUNDAN_OTTER_JEWELRY_9_cls-2" d="M291,316a1.79,1.79,0,0,1,1,1.19,2.17,2.17,0,0,1-.27,1.64,2,2,0,0,1-1.28.88,2,2,0,0,1-1.51-.26,1.92,1.92,0,0,1-.9-1.26,2.07,2.07,0,0,1,.27-1.52,1.86,1.86,0,0,1,1.17-.82A2.35,2.35,0,0,1,291,316Z" />
  <path class="GUNDAN_OTTER_JEWELRY_GUNDAN_OTTER_JEWELRY_9_cls-2" d="M288.88,319.46a2.24,2.24,0,0,1,.95,1.21,2.38,2.38,0,0,1,.12.69,1.38,1.38,0,0,1,0,.34,1.53,1.53,0,0,1-.14.39,2.18,2.18,0,0,1-1.27,1.17A1.68,1.68,0,0,1,287,323a2.65,2.65,0,0,1-.87-1.25,1.67,1.67,0,0,1,0-1.35,2.8,2.8,0,0,1,.21-.34,3.17,3.17,0,0,1,.29-.35,2,2,0,0,1,.73-.44A1.87,1.87,0,0,1,288.88,319.46Z" />
  <path class="GUNDAN_OTTER_JEWELRY_GUNDAN_OTTER_JEWELRY_9_cls-2" d="M287.63,324.42a2.56,2.56,0,0,1-.23.83,2.47,2.47,0,0,1-.55.71,2.06,2.06,0,0,1-1.62.49,1.79,1.79,0,0,1-1.31-.84,2.25,2.25,0,0,1-.32-1.49,1.78,1.78,0,0,1,1.25-1.58,1.62,1.62,0,0,1,.69-.06A2.75,2.75,0,0,1,287,323,1.61,1.61,0,0,1,287.63,324.42Z" />
  <path d="M233.4,336.23a5.24,5.24,0,0,1-3.79-1.43c-.44,0-.92,0-1.37,0-.74,0-1.41,0-1.79,0a3.91,3.91,0,0,1-2.82.88,13.64,13.64,0,0,1-2.15-.2,5.94,5.94,0,0,1-3.81-2.11h-.61c-.84,0-1.67,0-2.12.05a4,4,0,0,1-2.88.91,14.19,14.19,0,0,1-2.1-.19,5.69,5.69,0,0,1-4-2.38c-1.18-.35-2.58-.65-3.25-.79a3.18,3.18,0,0,1-1.49.33,9.84,9.84,0,0,1-3.71-.94c-2.41-1-3.84-2.93-3.48-4.67a2.67,2.67,0,0,1,1.23-1.75,3.91,3.91,0,0,1,2.06-.51,7.24,7.24,0,0,1,1.89.27,10,10,0,0,1,4.08,2.51,23.52,23.52,0,0,1,4.2,1.17,5.56,5.56,0,0,1,2-.36h.25a9.7,9.7,0,0,1,4.44,1.49,11.57,11.57,0,0,1,1.24-.06c1.14,0,2.36.13,3.25.22h0l.2,0h.1a5.69,5.69,0,0,1,2-.34h.29a9.69,9.69,0,0,1,4.49,1.55H227a25.88,25.88,0,0,1,2.82.12,5.2,5.2,0,0,1,2-.91,12.09,12.09,0,0,1,1.6-.12,8,8,0,0,1,2.94.53,18.17,18.17,0,0,1,3.86-.92,4.89,4.89,0,0,1,2.57-1.14l.82,0a8.67,8.67,0,0,1,3.73.76,18.23,18.23,0,0,1,3.87-.6,4.69,4.69,0,0,1,1.68-1.28,8.76,8.76,0,0,1,3-.58,8.54,8.54,0,0,1,1.39.13,4.65,4.65,0,0,1,1.58-.81l.31-.11.27-.59c.51-1.16.58-1.34,1-1.48l.1,0h.19a.92.92,0,0,1,.66.29l1,1.11a.93.93,0,0,1,.23.82,274,274,0,0,0,.17,3.4,4.34,4.34,0,0,1-1.78,2.84.94.94,0,0,1-.52.16.89.89,0,0,1-.52-.16.87.87,0,0,1-.22-.21,6.28,6.28,0,0,1-3.39,1.94,5.64,5.64,0,0,1-1.67.25,4.69,4.69,0,0,1-2.79-.86c-1.07.14-2.29.42-2.91.57-.67,1.05-2.19,1.58-4.62,1.62h0a6,6,0,0,1-3.62-1.09c-.92.23-1.87.53-2.36.69-.57,1.12-2,1.77-4.44,2Zm.17-4.15a2.41,2.41,0,0,1,.23,1,7.19,7.19,0,0,0,1-.12,3.36,3.36,0,0,1-.32-.88v0l-.43,0Zm-11.47.43a8.72,8.72,0,0,0,1.09.13,3,3,0,0,1-.06-.81,8.07,8.07,0,0,0-.88-.22,2.1,2.1,0,0,1,0,.43A1.49,1.49,0,0,1,222.1,332.51Zm22.5-2a2.72,2.72,0,0,1,.13.49,2.09,2.09,0,0,1,0,.5l.73,0a3,3,0,0,1-.24-.86v0A5.48,5.48,0,0,0,244.6,330.53Zm-34,.62a8.73,8.73,0,0,0,1.06.13,3,3,0,0,1-.06-.81,6.45,6.45,0,0,0-1-.22A2.28,2.28,0,0,1,210.59,331.15Zm44.59-2.23a3,3,0,0,1,.46,1.05,6.36,6.36,0,0,0,.84-.29,3.25,3.25,0,0,1-.52-.85.14.14,0,0,0,0-.06A6,6,0,0,0,255.18,328.92Zm-57.56-2.37a.78.78,0,0,0-.27,0s0,.14.21.31a6.86,6.86,0,0,0,2.48,1.23,2.56,2.56,0,0,1,.14-.7A6.19,6.19,0,0,0,197.62,326.55Z" />
  <path d="M197.75,329.75a9.44,9.44,0,0,0,3.45.88,2.33,2.33,0,0,0,1.36-.37c.41.08,2.36.47,3.84.94a4.9,4.9,0,0,0,3.67,2.27,11.73,11.73,0,0,0,2,.19,3,3,0,0,0,2.56-.9c.39,0,2-.1,3.42-.05a5.13,5.13,0,0,0,3.55,2.11,12.37,12.37,0,0,0,2,.19,3,3,0,0,0,2.5-.87,35.18,35.18,0,0,1,3.8,0,4.5,4.5,0,0,0,3.47,1.41l.53,0c2.32-.21,3.65-.84,4-1.86.38-.13,1.78-.59,3-.88a5.13,5.13,0,0,0,3.38,1.15h.07q3.53-.06,4.17-1.53a31.5,31.5,0,0,1,3.56-.69,4,4,0,0,0,2.6.89,5.11,5.11,0,0,0,1.48-.22c2.16-.63,3.3-1.51,3.4-2.62.2-.12.7-.42,1.3-.75h0L261,329a.23.23,0,0,0,0-.28,3.24,3.24,0,0,0,.72-.83,2.28,2.28,0,0,1,0,.46,3.21,3.21,0,0,1-1.28,2.05h0a.23.23,0,0,0-.07.07.23.23,0,0,0,.06.32.22.22,0,0,0,.13,0,.23.23,0,0,0,.14,0h0a3.67,3.67,0,0,0,1.48-2.37,2.52,2.52,0,0,0-.11-1.2,2.35,2.35,0,0,0-.17-2.11l0,0a.23.23,0,0,0,0-.33l-1-1.1a.23.23,0,0,0-.25-.06c-.12,0-.14.07-.59,1.08-.14.32-.33.74-.41.89l-.58.2a4.61,4.61,0,0,0-1.64.9,7.25,7.25,0,0,0-4.25.33,4,4,0,0,0-1.62,1.32h0a17.32,17.32,0,0,0-4.27.69,8.32,8.32,0,0,0-4.4-.8,4,4,0,0,0-2.35,1.11,17.62,17.62,0,0,0-4.17,1,8,8,0,0,0-4.4-.47,4.28,4.28,0,0,0-1.92.95,28.78,28.78,0,0,0-4.49-.13,8.75,8.75,0,0,0-4.31-1.56,4.93,4.93,0,0,0-2.17.35l-.27,0-.2,0h0a20,20,0,0,0-4.58-.13,8.82,8.82,0,0,0-4.31-1.52,4.76,4.76,0,0,0-2.2.4,22.62,22.62,0,0,0-4.55-1.25,9.23,9.23,0,0,0-3.93-2.5,4.39,4.39,0,0,0-3.41.16,1.94,1.94,0,0,0-.92,1.31C194.39,327.26,195.65,328.87,197.75,329.75ZM235.11,332a2.27,2.27,0,0,0,.85,1.37,7,7,0,0,1-3,.43,1.07,1.07,0,0,0,.15-.4,2,2,0,0,0-.71-1.78,6.23,6.23,0,0,1,2.73-.1A1.29,1.29,0,0,0,235.11,332Zm11.52-.05a7.56,7.56,0,0,1-3.06.21,1,1,0,0,0,.48-1,2.17,2.17,0,0,0-.64-1.21,6.44,6.44,0,0,1,2.53.14,1.05,1.05,0,0,0-.05.47A2.15,2.15,0,0,0,246.63,331.92Zm10-3.35a2.38,2.38,0,0,0,1.1,1.23,6.35,6.35,0,0,1-2.75,1,1,1,0,0,0,.07-.44,2.24,2.24,0,0,0-1.07-1.68,5.52,5.52,0,0,1,2.57-.6A1.25,1.25,0,0,0,256.59,328.57Zm-32.33,4.74a8.08,8.08,0,0,1-3.54-.51,1,1,0,0,0,.84-.85,1.89,1.89,0,0,0-.22-1.13,7,7,0,0,1,2.61.61,1,1,0,0,0-.13.42A2,2,0,0,0,224.26,333.31Zm-23.4-5.75a1.69,1.69,0,0,0,0,1.45,8.16,8.16,0,0,1-3.8-1.64,1,1,0,0,1-.42-.88.66.66,0,0,1,.47-.56c1-.32,3.09.61,4,1.29A.82.82,0,0,0,200.86,327.56Zm11.87,4.38a8.14,8.14,0,0,1-3.16-.35,1.05,1.05,0,0,0,.25-.3,1.8,1.8,0,0,0-.21-1.81,6.84,6.84,0,0,1,2.8.59,1,1,0,0,0-.14.41A2,2,0,0,0,212.73,331.94Zm48.06-7.78.24.26a.73.73,0,0,0-.43.17A4.54,4.54,0,0,1,260.79,324.16Z" />
  <path d="M237.35,360.72a6.73,6.73,0,0,1-4.62-1.61c-.7,0-1.54-.05-2.48-.05s-1.69,0-2.13,0a4.54,4.54,0,0,1-3.17,1,15.77,15.77,0,0,1-3.53-.48,7.73,7.73,0,0,1-4.85-3.2c-1.47-.24-3.11-.44-4-.54a3.7,3.7,0,0,1-2.21.61,13.38,13.38,0,0,1-4.47-1,7.55,7.55,0,0,1-4.54-4.21c-1.52-.93-3.38-1.95-4.2-2.39a2.57,2.57,0,0,1-.55.06c-1.92,0-4.15-1.69-5.69-3.1-2.49-2.29-3.39-5.18-2.18-7a3,3,0,0,1,2-1.33,3.63,3.63,0,0,1,.67-.06,7.16,7.16,0,0,1,4,1.6,14.8,14.8,0,0,1,3.93,4.71,38.27,38.27,0,0,1,4.5,2.7l.46.31a5.69,5.69,0,0,1,.72,0,8.77,8.77,0,0,1,2.18.3,14.25,14.25,0,0,1,5.25,3,33.49,33.49,0,0,1,5,.88l1.26.29a7.26,7.26,0,0,1,1.75-.2,9.57,9.57,0,0,1,1.18.07,14.22,14.22,0,0,1,5.66,2.31c3.09.05,4.52.12,5.49.2a6.85,6.85,0,0,1,2.51-1.23,15.31,15.31,0,0,1,2.79-.28,11.86,11.86,0,0,1,3.07.41,27.54,27.54,0,0,1,4.65-1.7l.3-.09a6.26,6.26,0,0,1,3-1.93,15.51,15.51,0,0,1,3.55-.46,11.6,11.6,0,0,1,2.27.23,27,27,0,0,1,4.45-1.94l.32-.12a6.49,6.49,0,0,1,1.62-2.17,11.46,11.46,0,0,1,5.07-2.26A6.38,6.38,0,0,1,268,340.3l.44-.37c0-.27,0-.66.07-1l0-.54c0-.31,0-1.79,0-1.79l.7,0a4.76,4.76,0,0,1,2.82,1.24,3.59,3.59,0,0,1,1.36,2.13,5.31,5.31,0,0,1-.81,4.09l-.07.08-1.07,1.29c.12,1.2-.47,3-3.54,5.06a7.36,7.36,0,0,1-4.11,1.34,5.2,5.2,0,0,1-1.71-.28c-1.5.64-3.21,1.52-3.87,1.86-.54,1.51-2.44,2.65-5.55,3.3a8.54,8.54,0,0,1-1.8.19,6.93,6.93,0,0,1-3.21-.73c-1.32.52-2.72,1.14-3.35,1.42-.58,1.49-2.53,2.52-5.68,3A9.36,9.36,0,0,1,237.35,360.72Zm.1-5.2a3.06,3.06,0,0,1,.48,1.62,9.79,9.79,0,0,0,1.91-.38,3.51,3.51,0,0,1-.62-1.19,1.36,1.36,0,0,1,0-.17h-.25A9.15,9.15,0,0,0,237.45,355.52Zm-15.34.62a13,13,0,0,0,2.11.4,3.25,3.25,0,0,1-.07-1.23s0-.06,0-.09a10.63,10.63,0,0,0-1.69-.52,2.38,2.38,0,0,1-.06.75A1.74,1.74,0,0,1,222.11,356.14Zm29.58-4.42a3,3,0,0,1,.4.78,1.87,1.87,0,0,1,.11.76,11.78,11.78,0,0,0,1.54-.43,3.19,3.19,0,0,1-.65-1.14l0-.13A8.37,8.37,0,0,0,251.69,351.72Zm-44.61.4a11.38,11.38,0,0,0,2,.67,3.28,3.28,0,0,1,.07-1.23l0-.09a9.29,9.29,0,0,0-1.7-.79A2.73,2.73,0,0,1,207.08,352.12Zm57.51-5.79a3.3,3.3,0,0,1,1.19,1.31,8.43,8.43,0,0,0,1.4-1.07,3.76,3.76,0,0,1-1.1-.86,1.83,1.83,0,0,1-.13-.16A7.12,7.12,0,0,0,264.59,346.33Zm-72.47-5.22c-.08,0-.08,0-.13.08s0,.21.13.55a10,10,0,0,0,2.91,3,2.76,2.76,0,0,1,.57-1c-1-1.22-2.67-2.58-3.47-2.59v0Z" />
  <path d="M272.76,340.17a2.83,2.83,0,0,0-1.14-1.75,4,4,0,0,0-2.41-1.09c0,.44,0,.79,0,1.13,0,.15,0,.32,0,.54,0,.45-.07,1.06-.11,1.26-.25.23-.46.41-.64.56a6,6,0,0,0-1.55,1.77,10.41,10.41,0,0,0-5,2.14,5.64,5.64,0,0,0-1.56,2.19l-.6.23a24.61,24.61,0,0,0-4.57,2,12,12,0,0,0-5.72.16,5.34,5.34,0,0,0-2.78,1.87l-.52.15a24.41,24.41,0,0,0-4.75,1.78,12,12,0,0,0-5.77-.21,6.08,6.08,0,0,0-2.47,1.28c-.94-.08-2.31-.17-5.93-.22a13.46,13.46,0,0,0-5.52-2.31,7.45,7.45,0,0,0-2.85.15l-.36-.08-.22-.05h0l-.8-.18a29.39,29.39,0,0,0-5.15-.88,13.62,13.62,0,0,0-5.14-3,6.88,6.88,0,0,0-2.89-.21l-.68-.45a34.15,34.15,0,0,0-4.61-2.75,14.26,14.26,0,0,0-3.83-4.68,5.87,5.87,0,0,0-4.21-1.42,2.3,2.3,0,0,0-1.56,1c-1,1.54-.13,4.12,2.07,6.15,1.26,1.16,3.47,2.91,5.23,2.91a2.32,2.32,0,0,0,.65-.09c.49.26,2.88,1.55,4.68,2.67a6.75,6.75,0,0,0,4.21,4,12.74,12.74,0,0,0,4.22,1,2.85,2.85,0,0,0,2-.64c.52.06,2.75.32,4.63.63a6.83,6.83,0,0,0,4.57,3.16,15.24,15.24,0,0,0,3.37.46,3.66,3.66,0,0,0,2.87-1c.55,0,3.18-.07,5.21,0a5.94,5.94,0,0,0,4.32,1.6,8.08,8.08,0,0,0,1.2-.09c3.06-.45,4.89-1.45,5.22-2.81.47-.21,2.31-1,4-1.67a6.18,6.18,0,0,0,3.16.8,8,8,0,0,0,1.66-.18c3-.63,4.82-1.73,5.12-3.1.45-.24,2.65-1.38,4.43-2.13a4.47,4.47,0,0,0,1.72.34,6.72,6.72,0,0,0,3.72-1.22c2.41-1.65,3.53-3.31,3.2-4.69.19-.22.68-.83,1.28-1.54h0l0,0A4.64,4.64,0,0,0,272.76,340.17Zm-7.52,7.92a2.74,2.74,0,0,0-1.92-1.58,7.64,7.64,0,0,1,3-1.81,1.54,1.54,0,0,0,.29.55,2.81,2.81,0,0,0,1.83,1,8.61,8.61,0,0,1-3.1,2.43A1.44,1.44,0,0,0,265.24,348.09Zm-13.79,4.63a2.71,2.71,0,0,0-1.09-1.35,9.05,9.05,0,0,1,3.33-.48,1.28,1.28,0,0,0,.05.58A2.54,2.54,0,0,0,255,353a10.2,10.2,0,0,1-4,1.1A1.21,1.21,0,0,0,251.45,352.72Zm-15.28,2.41a8.87,8.87,0,0,1,3.67-.36,1.36,1.36,0,0,0,0,.6,2.69,2.69,0,0,0,1.27,1.62,9.64,9.64,0,0,1-4.09.85,1.12,1.12,0,0,0,.19-.52A2.49,2.49,0,0,0,236.17,355.13Zm-14.42.17a2.32,2.32,0,0,0-.18-1.45,11,11,0,0,1,3.47,1,1.12,1.12,0,0,0-.21.52,2.34,2.34,0,0,0,.52,1.87,11.19,11.19,0,0,1-4.83-1A1.24,1.24,0,0,0,221.75,355.3ZM206.33,352a2.16,2.16,0,0,0,.19-2.3,10.38,10.38,0,0,1,3.52,1.54,1.47,1.47,0,0,0-.27.49,2.47,2.47,0,0,0,.3,1.93,11.41,11.41,0,0,1-4.13-1.35A1.44,1.44,0,0,0,206.33,352Zm-10.21-7.86a2,2,0,0,0-.49,1.74,11.37,11.37,0,0,1-4.12-3.85,1.25,1.25,0,0,1-.12-1.16.78.78,0,0,1,.73-.44h0c1.32,0,3.57,2.12,4.41,3.4A1.07,1.07,0,0,0,196.12,344.14Z" />
  <path d="M259.39,327.42l.92-2.29a3.24,3.24,0,0,1,1.73,2.26" />
  <path class="GUNDAN_OTTER_JEWELRY_GUNDAN_OTTER_JEWELRY_9_cls-3" d="M214.51,332.54s2-.13,3.65-.06c0,0,0,0,0,0a2.19,2.19,0,0,1-.25-.84,2,2,0,0,1,.07-.75,11,11,0,0,0-2.51-.11q-.51.08-.84.15A2.15,2.15,0,0,1,214.51,332.54Z" />
  <path class="GUNDAN_OTTER_JEWELRY_GUNDAN_OTTER_JEWELRY_9_cls-3" d="M224.73,333.43a7,7,0,0,1-4.7-.78h0a1.24,1.24,0,0,1-.55-.83.94.94,0,0,1,.11-.64l-.06,0s-.69-.14-1.55-.26a2,2,0,0,0-.07.75,2.19,2.19,0,0,0,.25.84s0,0,0,0a4.83,4.83,0,0,0,3.47,2.11c2.07.35,3.82.27,4.4-.68a2.21,2.21,0,0,0,.13-1.63,4,4,0,0,0-.9.26,1,1,0,0,1-.2.62A.91.91,0,0,1,224.73,333.43Z" />
  <path class="GUNDAN_OTTER_JEWELRY_GUNDAN_OTTER_JEWELRY_9_cls-3" d="M256.76,327.87a.93.93,0,0,0,.05.61,2,2,0,0,0,1.31,1.24,1.11,1.11,0,0,0,.14-.41,1.23,1.23,0,0,0-.15-.7h0a3,3,0,0,1,.61-.63,3,3,0,0,1,.68,1.64s.61-.37,1.4-.81h0c1.08-.71,2-2.64.94-3.93h0c-1-1.33-1.88.72-2,.76a6.59,6.59,0,0,0-2.3,1.24A1.89,1.89,0,0,0,256.76,327.87Z" />
  <path class="GUNDAN_OTTER_JEWELRY_GUNDAN_OTTER_JEWELRY_9_cls-4" d="M256.76,327.87a1.86,1.86,0,0,1,.75-1,7,7,0,0,0-4.22.29,3.71,3.71,0,0,0-1.59,1.33h.2a3.42,3.42,0,0,1,1.58.2A5.22,5.22,0,0,1,256.76,327.87Z" />
  <path class="GUNDAN_OTTER_JEWELRY_GUNDAN_OTTER_JEWELRY_9_cls-3" d="M259.41,329.62a2.89,2.89,0,0,0-.69-1.64,3.07,3.07,0,0,0-.6.63h0a1.23,1.23,0,0,1,.15.7,1.18,1.18,0,0,1-.14.41,5.65,5.65,0,0,1-3.68,1.32,1.62,1.62,0,0,1-1.37-.66,1.58,1.58,0,0,1-.21-.49c-.15,0-.77,0-1.49,0a2.43,2.43,0,0,0,.34.95,2.85,2.85,0,0,0,.49.61,4.16,4.16,0,0,0,4,.7C258,331.63,259.39,330.8,259.41,329.62Z" />
  <path class="GUNDAN_OTTER_JEWELRY_GUNDAN_OTTER_JEWELRY_9_cls-3" d="M252.2,331.47a2.85,2.85,0,0,1-.49-.61,2.43,2.43,0,0,1-.34-.95h0a9.36,9.36,0,0,0-2.38.33c-.32.11-.57.21-.77.3a2.43,2.43,0,0,1,.22,1.68h0A31.84,31.84,0,0,1,252.2,331.47Z" />
  <path class="GUNDAN_OTTER_JEWELRY_GUNDAN_OTTER_JEWELRY_9_cls-1" d="M253.07,330.38a1.62,1.62,0,0,0,1.37.66.7.7,0,0,0,.34-.68,2.06,2.06,0,0,0-1.3-1.68,3.42,3.42,0,0,0-1.58-.2h-.21a17.23,17.23,0,0,0-4.41.72,2.09,2.09,0,0,0-1,.7,1,1,0,0,0-.12.58,1.86,1.86,0,0,0,1,1.47.93.93,0,0,0,.24-.34,1,1,0,0,0,.07-.67h0a3.26,3.26,0,0,1,.8-.42c.2-.09.45-.19.77-.3a9.36,9.36,0,0,1,2.38-.33h0c.72,0,1.34,0,1.49,0A1.58,1.58,0,0,0,253.07,330.38Z" />
  <path class="GUNDAN_OTTER_JEWELRY_GUNDAN_OTTER_JEWELRY_9_cls-4" d="M235.42,331.33a1.88,1.88,0,0,1,1-.79h0A7.84,7.84,0,0,0,232,330a4.15,4.15,0,0,0-1.9,1l.22,0a3.72,3.72,0,0,1,1.55.49A6,6,0,0,1,235.42,331.33Z" />
  <path class="GUNDAN_OTTER_JEWELRY_GUNDAN_OTTER_JEWELRY_9_cls-4" d="M242.89,329.78a6.16,6.16,0,0,1,3.35.13,2.09,2.09,0,0,1,1-.7,8,8,0,0,0-4.34-.82,3.63,3.63,0,0,0-2.28,1.1l.18,0A3,3,0,0,1,242.89,329.78Z" />
  <path class="GUNDAN_OTTER_JEWELRY_GUNDAN_OTTER_JEWELRY_9_cls-3" d="M241,332.54a4.92,4.92,0,0,0,3.39,1.17c2,0,3.67-.43,4-1.5a2.43,2.43,0,0,0-.22-1.68,3.26,3.26,0,0,0-.8.42h0a1,1,0,0,1-.07.67.93.93,0,0,1-.24.34,6.65,6.65,0,0,1-4.25.24h0a1.6,1.6,0,0,1-1.05-.92,1.12,1.12,0,0,1-.07-.46c-.3,0-.89.07-1.53.15h0c0,.12,0,.26.08.38A2.59,2.59,0,0,0,241,332.54Z" />
  <path class="GUNDAN_OTTER_JEWELRY_GUNDAN_OTTER_JEWELRY_9_cls-1" d="M242.83,332.2h0c.66-.18,1.06-.48,1-1a2,2,0,0,0-.93-1.38,3,3,0,0,0-2-.32l-.18,0h0a17,17,0,0,0-4.27,1h0a1.88,1.88,0,0,0-1,.79h0a.82.82,0,0,0-.07.58,2,2,0,0,0,1.07,1.42,1,1,0,0,0,.23-.37,1.12,1.12,0,0,0,0-.68,3.26,3.26,0,0,1,.75-.49c.2-.11.44-.22.73-.36a8,8,0,0,1,2.06-.47c.64-.08,1.23-.13,1.53-.15a1.12,1.12,0,0,0,.07.46A1.6,1.6,0,0,0,242.83,332.2Z" />
  <path class="GUNDAN_OTTER_JEWELRY_GUNDAN_OTTER_JEWELRY_9_cls-3" d="M240.18,331a8,8,0,0,0-2.06.47c-.29.14-.53.25-.73.36a2.62,2.62,0,0,1,.36,1.69s1.74-.61,3.26-.95a2.59,2.59,0,0,1-.75-1.18c0-.12-.06-.26-.08-.38Z" />
  <path class="GUNDAN_OTTER_JEWELRY_GUNDAN_OTTER_JEWELRY_9_cls-3" d="M236.41,333.34a6.3,6.3,0,0,1-4,.58,1.66,1.66,0,0,1-1.25-.88,1.24,1.24,0,0,1-.11-.51c-.14,0-.77-.16-1.52-.26a2.22,2.22,0,0,0,.14,1,2.26,2.26,0,0,0,.39.67,4.4,4.4,0,0,0,3.87,1.39c2-.18,3.57-.7,3.84-1.81a2.62,2.62,0,0,0-.36-1.69,3.26,3.26,0,0,0-.75.49,1.12,1.12,0,0,1,0,.68A1,1,0,0,1,236.41,333.34Z" />
  <path class="GUNDAN_OTTER_JEWELRY_GUNDAN_OTTER_JEWELRY_9_cls-3" d="M227,332.14c-.34.05-.61.09-.84.14h0a2.21,2.21,0,0,1-.13,1.63h0a36.68,36.68,0,0,1,4,0h0a2.26,2.26,0,0,1-.39-.67,2.22,2.22,0,0,1-.14-1A10.41,10.41,0,0,0,227,332.14Z" />
  <path class="GUNDAN_OTTER_JEWELRY_GUNDAN_OTTER_JEWELRY_9_cls-1" d="M226.17,332.28c.23,0,.5-.09.84-.14a10.41,10.41,0,0,1,2.5.13c.75.1,1.38.23,1.52.26a1.24,1.24,0,0,0,.11.51,1.66,1.66,0,0,0,1.25.88.68.68,0,0,0,.48-.59,1.87,1.87,0,0,0-1-1.82,3.72,3.72,0,0,0-1.55-.49l-.22,0a29.34,29.34,0,0,0-4.63-.14l-1.05.36-.16.12a.81.81,0,0,0-.24.53,1.7,1.7,0,0,0,.68,1.56.91.91,0,0,0,.33-.27,1,1,0,0,0,.2-.62,4,4,0,0,1,.9-.26Z" />
  <path class="GUNDAN_OTTER_JEWELRY_GUNDAN_OTTER_JEWELRY_9_cls-4" d="M220.92,330.59a7,7,0,0,1,3.37.75l.16-.12,1.05-.36a8.47,8.47,0,0,0-4.25-1.56,4.76,4.76,0,0,0-2.14.36,3.1,3.1,0,0,1,1.65.75Z" />
  <path class="GUNDAN_OTTER_JEWELRY_GUNDAN_OTTER_JEWELRY_9_cls-1" d="M220.05,332.63c.72,0,1.2-.18,1.28-.72a1.75,1.75,0,0,0-.41-1.32l-.16-.18a3.1,3.1,0,0,0-1.65-.75l-.32,0a.67.67,0,0,0-.2,0h0a20,20,0,0,0-4.64-.12h0a2.3,2.3,0,0,0-1.21.49.93.93,0,0,0-.24.52,1.78,1.78,0,0,0,.7,1.57.93.93,0,0,0,.33-.28,1,1,0,0,0,.19-.62h0a4,4,0,0,1,.89-.25q.33-.07.84-.15a11,11,0,0,1,2.51.11c.86.12,1.55.26,1.55.26l.06,0a.94.94,0,0,0-.11.64,1.24,1.24,0,0,0,.55.83v0Z" />
  <path class="GUNDAN_OTTER_JEWELRY_GUNDAN_OTTER_JEWELRY_9_cls-4" d="M209.69,328a4.7,4.7,0,0,0-2.19.41l.2.08a3.85,3.85,0,0,1,1.44.83,6.83,6.83,0,0,1,3.6.71,2.3,2.3,0,0,1,1.21-.49A8.58,8.58,0,0,0,209.69,328Z" />
  <path class="GUNDAN_OTTER_JEWELRY_GUNDAN_OTTER_JEWELRY_9_cls-3" d="M206.56,331a4.67,4.67,0,0,0,3.55,2.24c2.07.33,3.81.24,4.39-.71h0a2.15,2.15,0,0,0,.11-1.63,4,4,0,0,0-.89.25h0a1,1,0,0,1-.19.62.93.93,0,0,1-.33.28,7.29,7.29,0,0,1-4.24-.47,1.58,1.58,0,0,1-1-1.12,1.3,1.3,0,0,1,0-.49c-.14-.06-.74-.34-1.47-.62a1.89,1.89,0,0,0-.12.92,2.2,2.2,0,0,0,.19.71Z" />
  <path class="GUNDAN_OTTER_JEWELRY_GUNDAN_OTTER_JEWELRY_9_cls-3" d="M202.51,330s2.35.45,4.05,1a2.2,2.2,0,0,1-.19-.71,1.89,1.89,0,0,1,.12-.92,12.15,12.15,0,0,0-2.5-.74c-.35,0-.65-.07-.89-.08A2,2,0,0,1,202.51,330Z" />
  <path class="GUNDAN_OTTER_JEWELRY_GUNDAN_OTTER_JEWELRY_9_cls-1" d="M209,331.6a.74.74,0,0,0,.65-.41,1.68,1.68,0,0,0-.47-1.92,3.85,3.85,0,0,0-1.44-.83l-.2-.08h0a22,22,0,0,0-4.65-1.27,2.48,2.48,0,0,0-1.36.15.71.71,0,0,0-.4.4,1.51,1.51,0,0,0,.25,1.61,1.1,1.1,0,0,0,.41-.17.88.88,0,0,0,.38-.52h0a4,4,0,0,1,1,0c.24,0,.54,0,.89.08a12.15,12.15,0,0,1,2.5.74c.73.28,1.33.56,1.47.62a1.3,1.3,0,0,0,0,.49A1.58,1.58,0,0,0,209,331.6Z" />
  <path class="GUNDAN_OTTER_JEWELRY_GUNDAN_OTTER_JEWELRY_9_cls-4" d="M203.1,328.55a4,4,0,0,0-1,0h0a.88.88,0,0,1-.38.52,1.1,1.1,0,0,1-.41.17c-.8.15-5.12-1.17-4.88-2.8.28-1.83,4.09-.17,5,.79a2.48,2.48,0,0,1,1.36-.15,8.88,8.88,0,0,0-3.88-2.5c-2.27-.62-3.78,0-4,1.29s.93,2.81,2.93,3.65,3.8,1.21,4.67.49h0A2,2,0,0,0,203.1,328.55Z" />
  <path class="GUNDAN_OTTER_JEWELRY_GUNDAN_OTTER_JEWELRY_9_cls-5" d="M258.12,328.61a3.07,3.07,0,0,1,.6-.63c.16-.14.37-.31.62-.5a7.09,7.09,0,0,1,1.7-.82" />
  <path class="GUNDAN_OTTER_JEWELRY_GUNDAN_OTTER_JEWELRY_9_cls-5" d="M259.41,329.62s.61-.37,1.4-.81h0" />
  <path class="GUNDAN_OTTER_JEWELRY_GUNDAN_OTTER_JEWELRY_9_cls-5" d="M261.77,324.87l-1-1.1c-.08,0-.84,1.9-.93,1.94a5.61,5.61,0,0,0-2.31,1.16,1.89,1.89,0,0,0-.74,1,.93.93,0,0,0,.05.61,2,2,0,0,0,1.31,1.24" />
  <path class="GUNDAN_OTTER_JEWELRY_GUNDAN_OTTER_JEWELRY_9_cls-5" d="M258.11,328.61a1.23,1.23,0,0,1,.15.7,1.18,1.18,0,0,1-.14.41,5.65,5.65,0,0,1-3.68,1.32,1.62,1.62,0,0,1-1.37-.66,1.58,1.58,0,0,1-.21-.49" />
  <path class="GUNDAN_OTTER_JEWELRY_GUNDAN_OTTER_JEWELRY_9_cls-5" d="M253.48,328.68a5.22,5.22,0,0,1,3.28-.81" />
  <path class="GUNDAN_OTTER_JEWELRY_GUNDAN_OTTER_JEWELRY_9_cls-5" d="M251.37,329.91a2.43,2.43,0,0,0,.34.95,2.85,2.85,0,0,0,.49.61,4.16,4.16,0,0,0,4,.7c1.86-.54,3.23-1.37,3.25-2.55a2.89,2.89,0,0,0-.69-1.64h0" />
  <path class="GUNDAN_OTTER_JEWELRY_GUNDAN_OTTER_JEWELRY_9_cls-5" d="M251.7,328.49a3.71,3.71,0,0,1,1.59-1.33,7,7,0,0,1,4.22-.29" />
  <path class="GUNDAN_OTTER_JEWELRY_GUNDAN_OTTER_JEWELRY_9_cls-5" d="M247.41,331a3.26,3.26,0,0,1,.8-.42c.2-.09.45-.19.77-.3a9.36,9.36,0,0,1,2.38-.33h0c.72,0,1.34,0,1.49,0h0" />
  <path class="GUNDAN_OTTER_JEWELRY_GUNDAN_OTTER_JEWELRY_9_cls-5" d="M248.44,332.21a31.84,31.84,0,0,1,3.76-.74" />
  <path class="GUNDAN_OTTER_JEWELRY_GUNDAN_OTTER_JEWELRY_9_cls-5" d="M254.44,331a.7.7,0,0,0,.34-.68,2.06,2.06,0,0,0-1.3-1.68,3.42,3.42,0,0,0-1.58-.2h-.21a17.23,17.23,0,0,0-4.41.72,2.09,2.09,0,0,0-1,.7,1,1,0,0,0-.12.58,1.86,1.86,0,0,0,1,1.47" />
  <path class="GUNDAN_OTTER_JEWELRY_GUNDAN_OTTER_JEWELRY_9_cls-5" d="M242.83,332.2a1.6,1.6,0,0,1-1.05-.92,1.12,1.12,0,0,1-.07-.46" />
  <path class="GUNDAN_OTTER_JEWELRY_GUNDAN_OTTER_JEWELRY_9_cls-5" d="M247.41,331a1,1,0,0,1-.07.67.93.93,0,0,1-.24.34,6.65,6.65,0,0,1-4.25.24" />
  <path class="GUNDAN_OTTER_JEWELRY_GUNDAN_OTTER_JEWELRY_9_cls-5" d="M242.89,329.78a6.16,6.16,0,0,1,3.35.13h0" />
  <path class="GUNDAN_OTTER_JEWELRY_GUNDAN_OTTER_JEWELRY_9_cls-5" d="M248.21,330.52h0a2.43,2.43,0,0,1,.22,1.68c-.36,1.07-2,1.46-4,1.5a4.92,4.92,0,0,1-3.39-1.17,2.59,2.59,0,0,1-.75-1.18c0-.12-.06-.26-.08-.38" />
  <path class="GUNDAN_OTTER_JEWELRY_GUNDAN_OTTER_JEWELRY_9_cls-5" d="M240.66,329.49a3.63,3.63,0,0,1,2.28-1.1,8,8,0,0,1,4.34.82h0" />
  <path class="GUNDAN_OTTER_JEWELRY_GUNDAN_OTTER_JEWELRY_9_cls-5" d="M236.64,332.29a3.26,3.26,0,0,1,.75-.49c.2-.11.44-.22.73-.36a8,8,0,0,1,2.06-.47c.64-.08,1.23-.13,1.53-.15h.23" />
  <path class="GUNDAN_OTTER_JEWELRY_GUNDAN_OTTER_JEWELRY_9_cls-5" d="M237.75,333.49s1.74-.61,3.26-.95" />
  <path class="GUNDAN_OTTER_JEWELRY_GUNDAN_OTTER_JEWELRY_9_cls-5" d="M242.83,332.2h0c.66-.18,1.06-.48,1-1a2,2,0,0,0-.93-1.38,3,3,0,0,0-2-.32l-.18,0h0a17,17,0,0,0-4.27,1h0a1.88,1.88,0,0,0-1,.79h0a.82.82,0,0,0-.07.58,2,2,0,0,0,1.07,1.42h0" />
  <path class="GUNDAN_OTTER_JEWELRY_GUNDAN_OTTER_JEWELRY_9_cls-5" d="M236.64,332.29a1.12,1.12,0,0,1,0,.68,1,1,0,0,1-.23.37,6.3,6.3,0,0,1-4,.58,1.66,1.66,0,0,1-1.25-.88,1.24,1.24,0,0,1-.11-.51" />
  <path class="GUNDAN_OTTER_JEWELRY_GUNDAN_OTTER_JEWELRY_9_cls-5" d="M231.9,331.51a6,6,0,0,1,3.52-.18" />
  <path class="GUNDAN_OTTER_JEWELRY_GUNDAN_OTTER_JEWELRY_9_cls-5" d="M229.51,332.27a2.22,2.22,0,0,0,.14,1,2.26,2.26,0,0,0,.39.67,4.4,4.4,0,0,0,3.87,1.39c2-.18,3.57-.7,3.84-1.81a2.62,2.62,0,0,0-.36-1.69h0" />
  <path class="GUNDAN_OTTER_JEWELRY_GUNDAN_OTTER_JEWELRY_9_cls-5" d="M230.13,331a4.15,4.15,0,0,1,1.9-1,7.84,7.84,0,0,1,4.35.5" />
  <path class="GUNDAN_OTTER_JEWELRY_GUNDAN_OTTER_JEWELRY_9_cls-5" d="M226.17,332.28c.23,0,.5-.09.84-.14a10.41,10.41,0,0,1,2.5.13c.75.1,1.38.23,1.52.26h0" />
  <path class="GUNDAN_OTTER_JEWELRY_GUNDAN_OTTER_JEWELRY_9_cls-5" d="M225.26,332.54a4,4,0,0,1,.9-.26" />
  <path class="GUNDAN_OTTER_JEWELRY_GUNDAN_OTTER_JEWELRY_9_cls-5" d="M226,333.91a36.68,36.68,0,0,1,4,0" />
  <path class="GUNDAN_OTTER_JEWELRY_GUNDAN_OTTER_JEWELRY_9_cls-5" d="M232.39,333.92a.68.68,0,0,0,.48-.59,1.87,1.87,0,0,0-1-1.82,3.72,3.72,0,0,0-1.55-.49l-.22,0a29.34,29.34,0,0,0-4.63-.14l-1.05.36-.16.12a.81.81,0,0,0-.24.53,1.7,1.7,0,0,0,.68,1.56" />
  <path class="GUNDAN_OTTER_JEWELRY_GUNDAN_OTTER_JEWELRY_9_cls-5" d="M224.3,331.35h0a7,7,0,0,0-3.37-.75" />
  <path class="GUNDAN_OTTER_JEWELRY_GUNDAN_OTTER_JEWELRY_9_cls-5" d="M219.58,331.17a.94.94,0,0,0-.11.64,1.24,1.24,0,0,0,.55.83h0a7,7,0,0,0,4.7.78.91.91,0,0,0,.33-.27,1,1,0,0,0,.2-.62" />
  <path class="GUNDAN_OTTER_JEWELRY_GUNDAN_OTTER_JEWELRY_9_cls-5" d="M225.51,330.87h0a8.47,8.47,0,0,0-4.25-1.56,4.76,4.76,0,0,0-2.14.36" />
  <path class="GUNDAN_OTTER_JEWELRY_GUNDAN_OTTER_JEWELRY_9_cls-5" d="M218,330.87a2,2,0,0,0-.07.75,2.19,2.19,0,0,0,.25.84s0,0,0,0a4.83,4.83,0,0,0,3.47,2.11c2.07.35,3.82.27,4.4-.68a2.21,2.21,0,0,0,.13-1.63h0" />
  <path class="GUNDAN_OTTER_JEWELRY_GUNDAN_OTTER_JEWELRY_9_cls-5" d="M219.52,331.13s-.69-.14-1.55-.26a11,11,0,0,0-2.51-.11q-.51.08-.84.15a4,4,0,0,0-.89.25" />
  <path class="GUNDAN_OTTER_JEWELRY_GUNDAN_OTTER_JEWELRY_9_cls-5" d="M214.51,332.54s2-.13,3.65-.06" />
  <path class="GUNDAN_OTTER_JEWELRY_GUNDAN_OTTER_JEWELRY_9_cls-5" d="M213.2,332.07h0a1.78,1.78,0,0,1-.7-1.57.93.93,0,0,1,.24-.52,2.3,2.3,0,0,1,1.21-.49h0a20,20,0,0,1,4.64.12h0a.67.67,0,0,1,.2,0l.32,0a3.1,3.1,0,0,1,1.65.75l.16.18a1.75,1.75,0,0,1,.41,1.32c-.08.54-.56.72-1.28.72h0" />
  <path class="GUNDAN_OTTER_JEWELRY_GUNDAN_OTTER_JEWELRY_9_cls-5" d="M213.72,331.17a1,1,0,0,1-.19.62.93.93,0,0,1-.33.28,7.29,7.29,0,0,1-4.24-.47,1.58,1.58,0,0,1-1-1.12,1.3,1.3,0,0,1,0-.49" />
  <path class="GUNDAN_OTTER_JEWELRY_GUNDAN_OTTER_JEWELRY_9_cls-5" d="M209.14,329.27a6.83,6.83,0,0,1,3.6.71h0" />
  <path class="GUNDAN_OTTER_JEWELRY_GUNDAN_OTTER_JEWELRY_9_cls-5" d="M206.56,331a4.67,4.67,0,0,0,3.55,2.24c2.07.33,3.81.24,4.39-.71h0a2.15,2.15,0,0,0,.11-1.63h0" />
  <path class="GUNDAN_OTTER_JEWELRY_GUNDAN_OTTER_JEWELRY_9_cls-5" d="M206.49,329.37a1.89,1.89,0,0,0-.12.92,2.2,2.2,0,0,0,.19.71" />
  <path class="GUNDAN_OTTER_JEWELRY_GUNDAN_OTTER_JEWELRY_9_cls-5" d="M207.5,328.36a4.7,4.7,0,0,1,2.19-.41,8.58,8.58,0,0,1,4.26,1.54h0" />
  <path class="GUNDAN_OTTER_JEWELRY_GUNDAN_OTTER_JEWELRY_9_cls-5" d="M202.11,328.56a4,4,0,0,1,1,0c.24,0,.54,0,.89.08a12.15,12.15,0,0,1,2.5.74c.73.28,1.33.56,1.47.62l0,0" />
  <path class="GUNDAN_OTTER_JEWELRY_GUNDAN_OTTER_JEWELRY_9_cls-5" d="M202.51,330s2.35.45,4.05,1h0" />
  <path class="GUNDAN_OTTER_JEWELRY_GUNDAN_OTTER_JEWELRY_9_cls-5" d="M209,331.6a.74.74,0,0,0,.65-.41,1.68,1.68,0,0,0-.47-1.92,3.85,3.85,0,0,0-1.44-.83l-.2-.08h0a22,22,0,0,0-4.65-1.27,2.48,2.48,0,0,0-1.36.15.71.71,0,0,0-.4.4,1.51,1.51,0,0,0,.25,1.61" />
  <path class="GUNDAN_OTTER_JEWELRY_GUNDAN_OTTER_JEWELRY_9_cls-5" d="M201.47,327.24c-.94-1-4.75-2.62-5-.79-.24,1.63,4.08,2.95,4.88,2.8a1.1,1.1,0,0,0,.41-.17.88.88,0,0,0,.38-.52" />
  <path class="GUNDAN_OTTER_JEWELRY_GUNDAN_OTTER_JEWELRY_9_cls-5" d="M202.84,327.09h0a8.88,8.88,0,0,0-3.88-2.5c-2.27-.62-3.78,0-4,1.29s.93,2.81,2.93,3.65,3.8,1.21,4.67.49h0a2,2,0,0,0,.59-1.46" />
  <path class="GUNDAN_OTTER_JEWELRY_GUNDAN_OTTER_JEWELRY_9_cls-5" d="M261.5,326.61h0c1.06,1.29.14,3.22-.94,3.94h0" />
  <path d="M269.11,340.45c.05-1.25.07-1.87.1-3.12a3.88,3.88,0,0,1,3,1.79" />
  <path class="GUNDAN_OTTER_JEWELRY_GUNDAN_OTTER_JEWELRY_9_cls-3" d="M212.29,354.82s2.72.3,4.9.67c0,0,0,0,0,0a2.53,2.53,0,0,1-.23-1.1,2.33,2.33,0,0,1,.2-.92,17.07,17.07,0,0,0-3.28-.61c-.45,0-.83,0-1.13,0A2.52,2.52,0,0,1,212.29,354.82Z" />
  <path class="GUNDAN_OTTER_JEWELRY_GUNDAN_OTTER_JEWELRY_9_cls-3" d="M225.94,357.46c-.76.32-4.73-.1-6.27-1.47h0a1.58,1.58,0,0,1-.64-1.11,1.17,1.17,0,0,1,.22-.8l-.07-.05s-.9-.27-2-.58a2.33,2.33,0,0,0-.2.92,2.53,2.53,0,0,0,.23,1.1s0,0,0,0a6.42,6.42,0,0,0,4.45,3.14c2.81.68,5.23.66,6.06-.51a2.62,2.62,0,0,0,.21-2,6,6,0,0,0-1.21.28,1.23,1.23,0,0,1-.76,1.1Z" />
  <path class="GUNDAN_OTTER_JEWELRY_GUNDAN_OTTER_JEWELRY_9_cls-3" d="M266.51,344.36a1.11,1.11,0,0,0,.29.71,2.37,2.37,0,0,0,2.09.87,1.46,1.46,0,0,0,0-.55,1.41,1.41,0,0,0-.46-.75h0a4.76,4.76,0,0,1,.48-1,3.45,3.45,0,0,1,1.51,1.61s.6-.74,1.37-1.64v0c1-1.39,1.19-4.09-.6-5.07h0c-1.81-1-1.89,1.76-2,1.85a10.27,10.27,0,0,0-2.22,2.51A2.64,2.64,0,0,0,266.51,344.36Z" />
  <path class="GUNDAN_OTTER_JEWELRY_GUNDAN_OTTER_JEWELRY_9_cls-4" d="M266.51,344.36a2.51,2.51,0,0,1,.51-1.51,10.09,10.09,0,0,0-5,2.09,5.22,5.22,0,0,0-1.53,2.2l.25-.09a4.9,4.9,0,0,1,2-.35A7.51,7.51,0,0,1,266.51,344.36Z" />
  <path class="GUNDAN_OTTER_JEWELRY_GUNDAN_OTTER_JEWELRY_9_cls-3" d="M270.44,345.21a3.4,3.4,0,0,0-1.51-1.61,4.51,4.51,0,0,0-.48,1h0a1.41,1.41,0,0,1,.46.76,1.28,1.28,0,0,1,0,.55,7.64,7.64,0,0,1-4.1,3.2,2.08,2.08,0,0,1-2-.23,2,2,0,0,1-.43-.52c-.19.05-1,.28-1.87.58a2.75,2.75,0,0,0,.73,1,3.46,3.46,0,0,0,.83.56,5.58,5.58,0,0,0,5.29-.81C269.54,348.27,270.91,346.6,270.44,345.21Z" />
  <path class="GUNDAN_OTTER_JEWELRY_GUNDAN_OTTER_JEWELRY_9_cls-3" d="M262.09,350.56a3.46,3.46,0,0,1-.83-.56,2.75,2.75,0,0,1-.73-1h0a13.74,13.74,0,0,0-2.93,1.23c-.37.23-.66.43-.9.6a2.9,2.9,0,0,1,.74,2h0S260.05,351.4,262.09,350.56Z" />
  <path class="GUNDAN_OTTER_JEWELRY_GUNDAN_OTTER_JEWELRY_9_cls-1" d="M262.83,348.91a2.08,2.08,0,0,0,2,.23.89.89,0,0,0,.18-.95,2.51,2.51,0,0,0-2.2-1.49,4.9,4.9,0,0,0-2,.35l-.25.09h0a28.87,28.87,0,0,0-5.32,2.32,2.82,2.82,0,0,0-1.15,1.17,1.1,1.1,0,0,0,0,.74,2.25,2.25,0,0,0,1.63,1.52,1.09,1.09,0,0,0,.24-.48,1.26,1.26,0,0,0-.09-.85h0a4.37,4.37,0,0,1,.91-.77c.24-.17.53-.37.9-.6a13.74,13.74,0,0,1,2.93-1.23h0c.91-.3,1.68-.53,1.87-.58A2,2,0,0,0,262.83,348.91Z" />
  <path class="GUNDAN_OTTER_JEWELRY_GUNDAN_OTTER_JEWELRY_9_cls-4" d="M240.19,354.55a2.48,2.48,0,0,1,1.17-1.11h0a11.72,11.72,0,0,0-5.72-.23,5.76,5.76,0,0,0-2.46,1.29l.29,0a5.4,5.4,0,0,1,2.08.55A8.66,8.66,0,0,1,240.19,354.55Z" />
  <path class="GUNDAN_OTTER_JEWELRY_GUNDAN_OTTER_JEWELRY_9_cls-4" d="M249.69,351.33a8.87,8.87,0,0,1,4.33-.69,2.82,2.82,0,0,1,1.15-1.17,11.71,11.71,0,0,0-5.69.13,5.07,5.07,0,0,0-2.71,1.84l.23-.07A4.12,4.12,0,0,1,249.69,351.33Z" />
  <path class="GUNDAN_OTTER_JEWELRY_GUNDAN_OTTER_JEWELRY_9_cls-3" d="M247.75,355.16a6.51,6.51,0,0,0,4.75.66c2.7-.57,4.75-1.61,4.93-3a2.9,2.9,0,0,0-.74-2,4.37,4.37,0,0,0-.91.77h0a1.26,1.26,0,0,1,.09.85,1.09,1.09,0,0,1-.24.48,8.91,8.91,0,0,1-5.51,1.44,0,0,0,0,1,0,0,2,2,0,0,1-1.56-.9,1.24,1.24,0,0,1-.17-.55c-.39.08-1.15.26-2,.48h0a2.54,2.54,0,0,0,.17.46A3,3,0,0,0,247.75,355.16Z" />
  <path class="GUNDAN_OTTER_JEWELRY_GUNDAN_OTTER_JEWELRY_9_cls-1" d="M250.1,354.34a0,0,0,0,0,0,0c.83-.37,1.29-.85,1.06-1.52a2.5,2.5,0,0,0-1.49-1.49,4.12,4.12,0,0,0-2.69,0l-.23.07h0a26.91,26.91,0,0,0-5.4,2h0a2.48,2.48,0,0,0-1.17,1.11h0a1,1,0,0,0,0,.74,2.43,2.43,0,0,0,1.59,1.65,1.14,1.14,0,0,0,.25-.49,1.27,1.27,0,0,0-.07-.85,4.64,4.64,0,0,1,.94-.72c.25-.17.55-.35.92-.56a12,12,0,0,1,2.62-.95c.83-.22,1.59-.4,2-.48a1.24,1.24,0,0,0,.17.55A2,2,0,0,0,250.1,354.34Z" />
  <path class="GUNDAN_OTTER_JEWELRY_GUNDAN_OTTER_JEWELRY_9_cls-3" d="M246.39,353.37a12,12,0,0,0-2.62.95c-.37.21-.67.39-.92.56a3.09,3.09,0,0,1,.69,2.05s2.26-1,4.21-1.77a3,3,0,0,1-1.18-1.32,2.54,2.54,0,0,1-.17-.46Z" />
  <path class="GUNDAN_OTTER_JEWELRY_GUNDAN_OTTER_JEWELRY_9_cls-3" d="M241.73,356.94c-.47.52-3.37,1.45-5.38,1.12a2.21,2.21,0,0,1-1.75-1,1.4,1.4,0,0,1-.16-.63c-.19,0-1-.17-2.05-.29a2.79,2.79,0,0,0,.21,1.22,3.25,3.25,0,0,0,.54.84,6.06,6.06,0,0,0,5.37,1.51c2.74-.4,4.82-1.3,5-2.74a3.09,3.09,0,0,0-.69-2.05,4.64,4.64,0,0,0-.94.72,1.27,1.27,0,0,1,.07.85A1.14,1.14,0,0,1,241.73,356.94Z" />
  <path class="GUNDAN_OTTER_JEWELRY_GUNDAN_OTTER_JEWELRY_9_cls-3" d="M229.05,355.93c-.45.05-.82.09-1.13.15h0a2.57,2.57,0,0,1-.21,2h0s3.12-.09,5.43,0h0a3.25,3.25,0,0,1-.54-.84,2.79,2.79,0,0,1-.21-1.22A17.09,17.09,0,0,0,229.05,355.93Z" />
  <path class="GUNDAN_OTTER_JEWELRY_GUNDAN_OTTER_JEWELRY_9_cls-1" d="M227.92,356.08c.31-.06.68-.1,1.13-.15a17.09,17.09,0,0,1,3.34.17c1,.12,1.86.26,2.05.29a1.4,1.4,0,0,0,.16.63,2.21,2.21,0,0,0,1.75,1,.88.88,0,0,0,.61-.77,2.38,2.38,0,0,0-1.4-2.23,5.4,5.4,0,0,0-2.08-.55l-.29,0c-1.07-.09-2.44-.17-6.11-.23l-1.4.39a1.21,1.21,0,0,0-.22.15,1,1,0,0,0-.35.64,2.14,2.14,0,0,0,.83,2,1.23,1.23,0,0,0,.76-1.1,6,6,0,0,1,1.21-.28Z" />
  <path class="GUNDAN_OTTER_JEWELRY_GUNDAN_OTTER_JEWELRY_9_cls-4" d="M221.06,353.53a10.27,10.27,0,0,1,4.4,1.27,1.21,1.21,0,0,1,.22-.15l1.4-.39a13.11,13.11,0,0,0-5.46-2.31,6.62,6.62,0,0,0-2.82.17,4.21,4.21,0,0,1,2.07,1.17Z" />
  <path class="GUNDAN_OTTER_JEWELRY_GUNDAN_OTTER_JEWELRY_9_cls-1" d="M219.69,356c1,.1,1.64-.06,1.78-.73a2.14,2.14,0,0,0-.41-1.71l-.19-.24a4.21,4.21,0,0,0-2.07-1.17l-.42-.11a1,1,0,0,0-.25,0h0a33.87,33.87,0,0,0-6-1.06h0a3.06,3.06,0,0,0-1.66.32,1,1,0,0,0-.42.58,2.2,2.2,0,0,0,.59,2.12,1,1,0,0,0,.49-.26,1.09,1.09,0,0,0,.38-.72h0a5.38,5.38,0,0,1,1.22-.1c.3,0,.68,0,1.13,0a16.2,16.2,0,0,1,3.28.61c1.11.3,2,.58,2,.58l.07.05a1.17,1.17,0,0,0-.22.8,1.58,1.58,0,0,0,.64,1.11l0,0Z" />
  <path class="GUNDAN_OTTER_JEWELRY_GUNDAN_OTTER_JEWELRY_9_cls-4" d="M207,347.86a6.72,6.72,0,0,0-2.88-.19c.07.06.16.11.23.16a5.82,5.82,0,0,1,1.62,1.49,10.16,10.16,0,0,1,4.47,1.9,3.06,3.06,0,0,1,1.66-.32A13.15,13.15,0,0,0,207,347.86Z" />
  <path class="GUNDAN_OTTER_JEWELRY_GUNDAN_OTTER_JEWELRY_9_cls-3" d="M202.19,350.58c.33,1.49,1.87,3.07,4.08,3.93,2.69,1.06,5.07,1.36,6,.32h0a2.52,2.52,0,0,0,.45-2,5.38,5.38,0,0,0-1.22.1h0a1.09,1.09,0,0,1-.38.72,1,1,0,0,1-.49.26,9.88,9.88,0,0,1-5.48-1.8,2.06,2.06,0,0,1-1-1.7,1.14,1.14,0,0,1,.17-.59c-.17-.14-.87-.67-1.71-1.27a2.17,2.17,0,0,0-.43,1.08,2.92,2.92,0,0,0,0,.93Z" />
  <path class="GUNDAN_OTTER_JEWELRY_GUNDAN_OTTER_JEWELRY_9_cls-3" d="M197.3,347.79s2.84,1.51,4.89,2.78a2.92,2.92,0,0,1,0-.93,2.17,2.17,0,0,1,.43-1.08,20.44,20.44,0,0,0-2.94-1.84c-.43-.19-.79-.34-1.1-.46A2.31,2.31,0,0,1,197.3,347.79Z" />
  <path class="GUNDAN_OTTER_JEWELRY_GUNDAN_OTTER_JEWELRY_9_cls-1" d="M205.16,352.12a.92.92,0,0,0,1-.3,2.07,2.07,0,0,0-.11-2.5,5.82,5.82,0,0,0-1.62-1.49c-.07-.05-.16-.1-.23-.16h0a41.1,41.1,0,0,0-5.42-3.28A3.57,3.57,0,0,0,197,344a.94.94,0,0,0-.64.32,1.89,1.89,0,0,0-.27,2,1.48,1.48,0,0,0,.57,0,1,1,0,0,0,.66-.46h0a7.89,7.89,0,0,1,1.24.4c.31.12.67.27,1.1.46a20.44,20.44,0,0,1,2.94,1.84c.84.6,1.54,1.13,1.71,1.27a1.14,1.14,0,0,0-.17.59A2.06,2.06,0,0,0,205.16,352.12Z" />
  <path class="GUNDAN_OTTER_JEWELRY_GUNDAN_OTTER_JEWELRY_9_cls-4" d="M198.54,346.26a7.89,7.89,0,0,0-1.24-.4h0a1,1,0,0,1-.66.46,1.48,1.48,0,0,1-.57,0c-1.06-.18-5.9-3.84-4.91-5.63,1.11-2,5,1.73,5.82,3.27a3.57,3.57,0,0,1,1.74.39,13.79,13.79,0,0,0-3.79-4.66c-2.46-1.77-4.47-1.83-5.36-.46s-.14,3.81,2,5.79,4.37,3.23,5.71,2.73h0A2.31,2.31,0,0,0,198.54,346.26Z" />
  <path class="GUNDAN_OTTER_JEWELRY_GUNDAN_OTTER_JEWELRY_9_cls-6" d="M268.45,344.63a4.51,4.51,0,0,1,.48-1c.14-.24.31-.53.54-.88a9.79,9.79,0,0,1,1.68-1.78" />
  <path class="GUNDAN_OTTER_JEWELRY_GUNDAN_OTTER_JEWELRY_9_cls-6" d="M270.44,345.21s.6-.74,1.37-1.64v0" />
  <path class="GUNDAN_OTTER_JEWELRY_GUNDAN_OTTER_JEWELRY_9_cls-6" d="M271.22,338.48l-1.67-.78c-.08.07-.17,2.63-.26,2.72a8.39,8.39,0,0,0-2.27,2.42,2.55,2.55,0,0,0-.51,1.52,1.11,1.11,0,0,0,.29.71,2.38,2.38,0,0,0,2.09.87" />
  <path class="GUNDAN_OTTER_JEWELRY_GUNDAN_OTTER_JEWELRY_9_cls-6" d="M268.44,344.63a1.41,1.41,0,0,1,.46.76,1.28,1.28,0,0,1,0,.55,7.64,7.64,0,0,1-4.1,3.2,2.08,2.08,0,0,1-2-.23,2,2,0,0,1-.43-.52" />
  <path class="GUNDAN_OTTER_JEWELRY_GUNDAN_OTTER_JEWELRY_9_cls-6" d="M262.77,346.7a7.51,7.51,0,0,1,3.74-2.34" />
  <path class="GUNDAN_OTTER_JEWELRY_GUNDAN_OTTER_JEWELRY_9_cls-6" d="M260.53,349a2.75,2.75,0,0,0,.73,1,3.46,3.46,0,0,0,.83.56,5.58,5.58,0,0,0,5.29-.81c2.16-1.48,3.52-3.15,3.06-4.54a3.45,3.45,0,0,0-1.51-1.61h0" />
  <path class="GUNDAN_OTTER_JEWELRY_GUNDAN_OTTER_JEWELRY_9_cls-6" d="M260.5,347.14a5.22,5.22,0,0,1,1.53-2.2,10.09,10.09,0,0,1,5-2.09" />
  <path class="GUNDAN_OTTER_JEWELRY_GUNDAN_OTTER_JEWELRY_9_cls-6" d="M255.78,351.57a4.37,4.37,0,0,1,.91-.77c.24-.17.53-.37.9-.6a13.74,13.74,0,0,1,2.93-1.23h0c.91-.3,1.68-.53,1.87-.58h.06" />
  <path class="GUNDAN_OTTER_JEWELRY_GUNDAN_OTTER_JEWELRY_9_cls-6" d="M257.44,352.79s2.61-1.39,4.65-2.23" />
  <path class="GUNDAN_OTTER_JEWELRY_GUNDAN_OTTER_JEWELRY_9_cls-6" d="M264.79,349.14a.89.89,0,0,0,.18-.95,2.51,2.51,0,0,0-2.2-1.49,4.9,4.9,0,0,0-2,.35l-.25.09h0a28.87,28.87,0,0,0-5.32,2.32,2.82,2.82,0,0,0-1.15,1.17,1.1,1.1,0,0,0,0,.74,2.25,2.25,0,0,0,1.63,1.52" />
  <path class="GUNDAN_OTTER_JEWELRY_GUNDAN_OTTER_JEWELRY_9_cls-6" d="M250.1,354.34a2,2,0,0,1-1.56-.9,1.24,1.24,0,0,1-.17-.55" />
  <path class="GUNDAN_OTTER_JEWELRY_GUNDAN_OTTER_JEWELRY_9_cls-6" d="M255.78,351.57a1.26,1.26,0,0,1,.09.85,1.09,1.09,0,0,1-.24.48,8.91,8.91,0,0,1-5.51,1.44" />
  <path class="GUNDAN_OTTER_JEWELRY_GUNDAN_OTTER_JEWELRY_9_cls-6" d="M249.69,351.33a8.87,8.87,0,0,1,4.33-.69h0" />
  <path class="GUNDAN_OTTER_JEWELRY_GUNDAN_OTTER_JEWELRY_9_cls-6" d="M256.68,350.79h0a2.9,2.9,0,0,1,.74,2c-.18,1.43-2.23,2.46-4.93,3a6.51,6.51,0,0,1-4.75-.66,3,3,0,0,1-1.18-1.32,2.54,2.54,0,0,1-.17-.46" />
  <path class="GUNDAN_OTTER_JEWELRY_GUNDAN_OTTER_JEWELRY_9_cls-6" d="M246.77,351.44a5.07,5.07,0,0,1,2.71-1.84,11.71,11.71,0,0,1,5.69-.13s0,0,0,0" />
  <path class="GUNDAN_OTTER_JEWELRY_GUNDAN_OTTER_JEWELRY_9_cls-6" d="M241.91,355.6a4.64,4.64,0,0,1,.94-.72c.25-.17.55-.35.92-.56a12,12,0,0,1,2.62-.95c.83-.22,1.59-.4,2-.48l.3-.07" />
  <path class="GUNDAN_OTTER_JEWELRY_GUNDAN_OTTER_JEWELRY_9_cls-6" d="M243.54,356.93s2.26-1,4.21-1.77" />
  <path class="GUNDAN_OTTER_JEWELRY_GUNDAN_OTTER_JEWELRY_9_cls-6" d="M250.1,354.34a0,0,0,0,0,0,0c.83-.37,1.29-.85,1.06-1.52a2.5,2.5,0,0,0-1.49-1.49,4.12,4.12,0,0,0-2.69,0l-.23.07h0a26.91,26.91,0,0,0-5.4,2h0a2.48,2.48,0,0,0-1.17,1.11h0a1,1,0,0,0,0,.74,2.43,2.43,0,0,0,1.59,1.65h0" />
  <path class="GUNDAN_OTTER_JEWELRY_GUNDAN_OTTER_JEWELRY_9_cls-6" d="M241.91,355.6a1.27,1.27,0,0,1,.07.85,1.14,1.14,0,0,1-.25.49c-.47.52-3.37,1.45-5.38,1.12a2.21,2.21,0,0,1-1.75-1,1.4,1.4,0,0,1-.16-.63" />
  <path class="GUNDAN_OTTER_JEWELRY_GUNDAN_OTTER_JEWELRY_9_cls-6" d="M235.56,355.06a8.66,8.66,0,0,1,4.63-.51" />
  <path class="GUNDAN_OTTER_JEWELRY_GUNDAN_OTTER_JEWELRY_9_cls-6" d="M232.39,356.1a2.79,2.79,0,0,0,.21,1.22,3.25,3.25,0,0,0,.54.84,6.06,6.06,0,0,0,5.37,1.51c2.74-.4,4.82-1.3,5-2.74a3.09,3.09,0,0,0-.69-2.05h0" />
  <path class="GUNDAN_OTTER_JEWELRY_GUNDAN_OTTER_JEWELRY_9_cls-6" d="M233.19,354.49a5.76,5.76,0,0,1,2.46-1.29,11.72,11.72,0,0,1,5.72.23" />
  <path class="GUNDAN_OTTER_JEWELRY_GUNDAN_OTTER_JEWELRY_9_cls-6" d="M227.92,356.08c.31-.06.68-.1,1.13-.15a17.09,17.09,0,0,1,3.34.17c1,.12,1.86.26,2.05.29h0" />
  <path class="GUNDAN_OTTER_JEWELRY_GUNDAN_OTTER_JEWELRY_9_cls-6" d="M226.7,356.36a6,6,0,0,1,1.21-.28" />
  <path class="GUNDAN_OTTER_JEWELRY_GUNDAN_OTTER_JEWELRY_9_cls-6" d="M227.7,358.13s3.12-.09,5.43,0" />
  <path class="GUNDAN_OTTER_JEWELRY_GUNDAN_OTTER_JEWELRY_9_cls-6" d="M236.35,358.06a.88.88,0,0,0,.61-.77,2.38,2.38,0,0,0-1.4-2.23,5.4,5.4,0,0,0-2.08-.55l-.29,0c-1.07-.09-2.44-.17-6.11-.23l-1.4.39a1.21,1.21,0,0,0-.22.15,1,1,0,0,0-.35.64,2.14,2.14,0,0,0,.83,2" />
  <path class="GUNDAN_OTTER_JEWELRY_GUNDAN_OTTER_JEWELRY_9_cls-6" d="M225.46,354.81h0a10.27,10.27,0,0,0-4.4-1.27" />
  <path class="GUNDAN_OTTER_JEWELRY_GUNDAN_OTTER_JEWELRY_9_cls-6" d="M219.23,354.07a1.17,1.17,0,0,0-.22.8,1.58,1.58,0,0,0,.64,1.11h0c1.54,1.37,5.51,1.79,6.27,1.47a1.23,1.23,0,0,0,.76-1.1" />
  <path class="GUNDAN_OTTER_JEWELRY_GUNDAN_OTTER_JEWELRY_9_cls-6" d="M227.09,354.27h0a13.11,13.11,0,0,0-5.46-2.31,6.62,6.62,0,0,0-2.82.17" />
  <path class="GUNDAN_OTTER_JEWELRY_GUNDAN_OTTER_JEWELRY_9_cls-6" d="M217.15,353.44a2.33,2.33,0,0,0-.2.92,2.53,2.53,0,0,0,.23,1.1s0,0,0,0a6.42,6.42,0,0,0,4.45,3.14c2.81.68,5.23.67,6.06-.51a2.57,2.57,0,0,0,.21-2h0" />
  <path class="GUNDAN_OTTER_JEWELRY_GUNDAN_OTTER_JEWELRY_9_cls-6" d="M219.16,354s-.9-.27-2-.58a17.07,17.07,0,0,0-3.28-.61c-.45,0-.83,0-1.13,0a5.38,5.38,0,0,0-1.22.1" />
  <path class="GUNDAN_OTTER_JEWELRY_GUNDAN_OTTER_JEWELRY_9_cls-6" d="M212.29,354.82s2.72.3,4.9.67" />
  <path class="GUNDAN_OTTER_JEWELRY_GUNDAN_OTTER_JEWELRY_9_cls-6" d="M210.65,353.93h0a2.2,2.2,0,0,1-.59-2.12,1,1,0,0,1,.42-.58,3.06,3.06,0,0,1,1.66-.32h0a33.87,33.87,0,0,1,6,1.06h0a1,1,0,0,1,.25,0l.42.11a4.21,4.21,0,0,1,2.07,1.17l.19.24a2.14,2.14,0,0,1,.41,1.71c-.14.67-.81.83-1.78.73l0,0" />
  <path class="GUNDAN_OTTER_JEWELRY_GUNDAN_OTTER_JEWELRY_9_cls-6" d="M211.51,352.94a1.09,1.09,0,0,1-.38.72,1,1,0,0,1-.49.26,9.88,9.88,0,0,1-5.48-1.8,2.06,2.06,0,0,1-1-1.7,1.14,1.14,0,0,1,.17-.59" />
  <path class="GUNDAN_OTTER_JEWELRY_GUNDAN_OTTER_JEWELRY_9_cls-6" d="M206,349.32a10.16,10.16,0,0,1,4.47,1.9h0" />
  <path class="GUNDAN_OTTER_JEWELRY_GUNDAN_OTTER_JEWELRY_9_cls-6" d="M202.19,350.58c.33,1.49,1.87,3.07,4.08,3.93,2.69,1.06,5.07,1.36,6,.32h0a2.52,2.52,0,0,0,.45-2h0" />
  <path class="GUNDAN_OTTER_JEWELRY_GUNDAN_OTTER_JEWELRY_9_cls-6" d="M202.58,348.56a2.17,2.17,0,0,0-.43,1.08,2.92,2.92,0,0,0,0,.93" />
  <path class="GUNDAN_OTTER_JEWELRY_GUNDAN_OTTER_JEWELRY_9_cls-6" d="M204.15,347.67a6.72,6.72,0,0,1,2.88.19,13.15,13.15,0,0,1,5.1,3h0" />
  <path class="GUNDAN_OTTER_JEWELRY_GUNDAN_OTTER_JEWELRY_9_cls-6" d="M197.3,345.86a7.89,7.89,0,0,1,1.24.4c.31.12.67.27,1.1.46a20.44,20.44,0,0,1,2.94,1.84c.84.6,1.54,1.13,1.71,1.27l.05,0" />
  <path class="GUNDAN_OTTER_JEWELRY_GUNDAN_OTTER_JEWELRY_9_cls-6" d="M197.3,347.79s2.84,1.51,4.89,2.78h0" />
  <path class="GUNDAN_OTTER_JEWELRY_GUNDAN_OTTER_JEWELRY_9_cls-6" d="M205.16,352.12a.92.92,0,0,0,1-.3,2.07,2.07,0,0,0-.11-2.5,5.82,5.82,0,0,0-1.62-1.49c-.07-.05-.16-.1-.23-.16h0a41.1,41.1,0,0,0-5.42-3.28A3.57,3.57,0,0,0,197,344a.94.94,0,0,0-.64.32,1.89,1.89,0,0,0-.27,2" />
  <path class="GUNDAN_OTTER_JEWELRY_GUNDAN_OTTER_JEWELRY_9_cls-6" d="M197,344c-.81-1.54-4.71-5.28-5.82-3.27-1,1.79,3.85,5.45,4.91,5.63a1.48,1.48,0,0,0,.57,0,1,1,0,0,0,.66-.46" />
  <path class="GUNDAN_OTTER_JEWELRY_GUNDAN_OTTER_JEWELRY_9_cls-6" d="M198.71,344.4h0a13.79,13.79,0,0,0-3.79-4.66c-2.46-1.77-4.47-1.83-5.36-.46s-.14,3.81,2,5.79,4.37,3.23,5.71,2.73h0a2.31,2.31,0,0,0,1.24-1.53" />
  <path class="GUNDAN_OTTER_JEWELRY_GUNDAN_OTTER_JEWELRY_9_cls-6" d="M271.22,338.48h0c1.79,1,1.6,3.68.6,5.07v0" />
  <path class="GUNDAN_OTTER_JEWELRY_GUNDAN_OTTER_JEWELRY_9_cls-1" d="M185.18,345.83a1.14,1.14,0,0,1-1.14-1.08l-.06-1-.23,0-.21,1a1.15,1.15,0,0,1-1.12.92l-.24,0-.81-.17a1.15,1.15,0,0,1-.89-1.35l.21-1-.22-.08-.46.9a1.14,1.14,0,0,1-1,.63,1.06,1.06,0,0,1-.52-.13l-.74-.37a1.15,1.15,0,0,1-.51-1.54l.46-.91-.19-.13-.68.76a1.15,1.15,0,0,1-1.62.09l-.62-.56a1.13,1.13,0,0,1-.38-.79,1.15,1.15,0,0,1,.3-.83l.67-.75-.16-.18-.84.56a1.18,1.18,0,0,1-.63.18,1.14,1.14,0,0,1-1-.51l-.45-.7a1.15,1.15,0,0,1,.33-1.59l.84-.55-.1-.21-1,.31a1.09,1.09,0,0,1-.36.06,1.15,1.15,0,0,1-1.09-.79l-.26-.79a1.17,1.17,0,0,1,.73-1.45l1-.31a2.23,2.23,0,0,1,0-.23l-1,.05a1.17,1.17,0,0,1-1.21-1.08l0-.83a1.15,1.15,0,0,1,1.08-1.21l1-.05c0-.08,0-.16,0-.24l-1-.21a1.14,1.14,0,0,1-.89-1.35l.17-.82a1.16,1.16,0,0,1,1.12-.91l.23,0,1,.21.07-.22-.9-.45a1.15,1.15,0,0,1-.5-1.55l.37-.74a1.14,1.14,0,0,1,1-.63,1.18,1.18,0,0,1,.52.13l.9.45.14-.19-.76-.68a1.12,1.12,0,0,1-.38-.78,1.17,1.17,0,0,1,.29-.84l.56-.61a1.12,1.12,0,0,1,.85-.39,1.14,1.14,0,0,1,.77.3l.75.67.18-.15-.55-.85a1.14,1.14,0,0,1,.33-1.59l.69-.45a1.19,1.19,0,0,1,.63-.19,1.15,1.15,0,0,1,1,.52l.55.84.21-.1-.31-.95a1.15,1.15,0,0,1,.72-1.45l.8-.26a1.09,1.09,0,0,1,.36-.06,1.15,1.15,0,0,1,1.09.79l.32,1,.22,0-.05-1a1.1,1.1,0,0,1,.29-.83,1.13,1.13,0,0,1,.79-.38l.83,0a1.17,1.17,0,0,1,1.21,1.08l.05,1,.24,0,.2-1a1.16,1.16,0,0,1,1.13-.91l.24,0,.81.17a1.13,1.13,0,0,1,.72.5,1.12,1.12,0,0,1,.16.87l-.2,1,.22.08.45-.9a1.15,1.15,0,0,1,1-.63,1.17,1.17,0,0,1,.52.12l.74.37a1.15,1.15,0,0,1,.5,1.54l-.45.91.19.13.68-.75a1.1,1.1,0,0,1,.85-.39,1.16,1.16,0,0,1,.77.3l.61.55a1.16,1.16,0,0,1,.1,1.62l-.68.76.15.17.85-.55a1.17,1.17,0,0,1,.63-.19,1.15,1.15,0,0,1,1,.52l.45.7a1.13,1.13,0,0,1,.17.86,1.18,1.18,0,0,1-.5.73l-.84.55a2,2,0,0,0,.1.21l1-.32a1,1,0,0,1,.35-.06,1.14,1.14,0,0,1,1.09.8l.26.78a1.16,1.16,0,0,1-.06.88,1.14,1.14,0,0,1-.67.57l-1,.32a1.57,1.57,0,0,1,0,.23l1-.06a1.16,1.16,0,0,1,1.2,1.08l0,.83a1.14,1.14,0,0,1-1.08,1.21l-1,.06c0,.08,0,.15,0,.23l1,.21a1.15,1.15,0,0,1,.89,1.35l-.17.82a1.15,1.15,0,0,1-1.12.91l-.24,0-1-.21a1.43,1.43,0,0,1-.08.22l.9.46a1.14,1.14,0,0,1,.51,1.54L198,338a1.15,1.15,0,0,1-1,.63,1.13,1.13,0,0,1-.51-.12l-.91-.46c0,.07-.09.13-.13.19l.75.68a1.16,1.16,0,0,1,.1,1.62l-.56.62a1.15,1.15,0,0,1-1.62.09l-.75-.68-.18.16.55.84a1.15,1.15,0,0,1-.33,1.59l-.69.46a1.18,1.18,0,0,1-.63.18,1.13,1.13,0,0,1-1-.52l-.56-.84-.21.1.32,1a1.19,1.19,0,0,1-.06.87,1.16,1.16,0,0,1-.67.58l-.8.26a1.34,1.34,0,0,1-.35,0,1.14,1.14,0,0,1-1.09-.78l-.32-1-.23.05.06,1a1.16,1.16,0,0,1-1.08,1.21Zm-.34-23.33h-.47a8.41,8.41,0,0,0,.45,16.8h.48a8.41,8.41,0,0,0-.46-16.8Z" />
  <path d="M184.48,316.64a.49.49,0,0,1,.49.46l.09,1.61a12.44,12.44,0,0,1,1.38.1l.33-1.57a.49.49,0,0,1,.48-.39h.1l.81.17a.5.5,0,0,1,.38.58l-.33,1.57a12,12,0,0,1,1.31.46l.73-1.44a.48.48,0,0,1,.43-.26.59.59,0,0,1,.22.05l.74.38a.48.48,0,0,1,.21.65l-.72,1.43c.39.24.77.51,1.14.79l1.08-1.2a.48.48,0,0,1,.36-.16.47.47,0,0,1,.32.12l.62.55a.49.49,0,0,1,0,.69l-1.07,1.2a12.79,12.79,0,0,1,.9,1.05l1.35-.88a.53.53,0,0,1,.27-.08.47.47,0,0,1,.4.22l.46.7a.49.49,0,0,1-.14.67l-1.35.88a10.42,10.42,0,0,1,.6,1.26l1.53-.51a.39.39,0,0,1,.15,0,.47.47,0,0,1,.46.33l.26.79a.47.47,0,0,1-.3.61l-1.54.51a12.1,12.1,0,0,1,.26,1.36l1.61-.09h0a.48.48,0,0,1,.48.46l0,.83a.48.48,0,0,1-.46.51l-1.61.09a12.81,12.81,0,0,1-.1,1.39l1.58.33a.49.49,0,0,1,.37.57l-.17.81a.49.49,0,0,1-.47.39h-.1l-1.58-.33a11.26,11.26,0,0,1-.46,1.31l1.43.73a.48.48,0,0,1,.22.65l-.37.74a.5.5,0,0,1-.44.27.59.59,0,0,1-.22-.05l-1.43-.73a13,13,0,0,1-.79,1.15l1.2,1.07a.49.49,0,0,1,0,.69l-.55.62a.52.52,0,0,1-.36.16.46.46,0,0,1-.33-.13l-1.2-1.07c-.34.32-.68.62-1.05.91l.88,1.34a.5.5,0,0,1-.14.68l-.7.45a.42.42,0,0,1-.26.08.49.49,0,0,1-.41-.22l-.88-1.35a11.11,11.11,0,0,1-1.25.61l.5,1.53a.49.49,0,0,1-.31.61l-.79.26-.15,0a.48.48,0,0,1-.46-.33l-.5-1.53a12.69,12.69,0,0,1-1.37.25l.09,1.61a.48.48,0,0,1-.46.51l-.83.05h0a.48.48,0,0,1-.48-.46l-.09-1.61a12.81,12.81,0,0,1-1.39-.1l-.33,1.58a.47.47,0,0,1-.47.38h-.1l-.82-.17a.48.48,0,0,1-.37-.57l.33-1.58a11.26,11.26,0,0,1-1.31-.46l-.73,1.44a.5.5,0,0,1-.43.27.43.43,0,0,1-.22-.06l-.74-.37a.47.47,0,0,1-.21-.65l.72-1.44a13,13,0,0,1-1.15-.79l-1.07,1.21a.52.52,0,0,1-.36.16.48.48,0,0,1-.33-.13l-.61-.55a.47.47,0,0,1,0-.68l1.07-1.21a13.18,13.18,0,0,1-.91-1.05l-1.35.88a.42.42,0,0,1-.26.08.47.47,0,0,1-.4-.22l-.46-.69a.5.5,0,0,1,.14-.68l1.34-.88a13.08,13.08,0,0,1-.6-1.25l-1.53.5-.15,0a.49.49,0,0,1-.46-.34l-.26-.79a.49.49,0,0,1,.31-.61l1.53-.5a12.26,12.26,0,0,1-.25-1.37l-1.61.09h0a.49.49,0,0,1-.49-.46l0-.83a.49.49,0,0,1,.46-.51l1.61-.09a12.44,12.44,0,0,1,.1-1.38l-1.58-.33a.48.48,0,0,1-.37-.58l.17-.81a.49.49,0,0,1,.47-.39h.1l1.58.33a12.74,12.74,0,0,1,.46-1.31l-1.44-.72a.49.49,0,0,1-.21-.66l.37-.74a.49.49,0,0,1,.44-.26.41.41,0,0,1,.21.05l1.44.73a10.17,10.17,0,0,1,.79-1.15l-1.2-1.08a.47.47,0,0,1,0-.68l.55-.62a.48.48,0,0,1,.36-.16.52.52,0,0,1,.33.12l1.2,1.08a10.07,10.07,0,0,1,1-.91l-.88-1.35a.47.47,0,0,1,.14-.67l.7-.46a.5.5,0,0,1,.26-.08.47.47,0,0,1,.4.22l.89,1.35a13.08,13.08,0,0,1,1.25-.6l-.5-1.53a.48.48,0,0,1,.31-.61l.79-.26a.4.4,0,0,1,.15,0,.49.49,0,0,1,.46.34l.5,1.53a12.27,12.27,0,0,1,1.37-.26l-.09-1.61a.48.48,0,0,1,.46-.51l.83-.05h0m.34,23.33h.52a9.07,9.07,0,0,0-.5-18.12h-.51a9.07,9.07,0,0,0,.49,18.12m-.34-24.65h-.1l-.83.05a1.74,1.74,0,0,0-1.47.92,1.82,1.82,0,0,0-1.15-.41,1.9,1.9,0,0,0-.58.09l-.77.26a1.83,1.83,0,0,0-1.19,1.27,1.9,1.9,0,0,0-.75-.16,1.75,1.75,0,0,0-1,.3l-.7.45a1.81,1.81,0,0,0-.78,1.14,2.58,2.58,0,0,0,0,.39l-.29,0a1.84,1.84,0,0,0-1.35.6l-.55.62a1.83,1.83,0,0,0-.46,1.32,2.32,2.32,0,0,0,.06.38,1.78,1.78,0,0,0-1.43,1l-.37.75a1.78,1.78,0,0,0-.11,1.38,2.83,2.83,0,0,0,.16.36,1.81,1.81,0,0,0-1.13,1.32l-.17.81a1.79,1.79,0,0,0,.26,1.37.28.28,0,0,1,0,.56,1.75,1.75,0,0,0-.46,1.31l0,.83a2.37,2.37,0,0,1,.6,3.18l.26.8a2.39,2.39,0,0,1,1.41,2.92l.46.7a1.8,1.8,0,0,0,1.51.82h0a1.59,1.59,0,0,0,0,.38,1.84,1.84,0,0,0,.6,1.26l.62.55a1.79,1.79,0,0,0,1.21.46,2.05,2.05,0,0,0,.49-.06,1.79,1.79,0,0,0,1,1.43l.74.38a1.93,1.93,0,0,0,.82.19,1.88,1.88,0,0,0,.93-.25,1.82,1.82,0,0,0,1.3,1.13l.83.17a2.1,2.1,0,0,0,.37,0,1.8,1.8,0,0,0,1.29-.55,1.81,1.81,0,0,0,1.47.76h.1l.83,0a1.82,1.82,0,0,0,1.48-.92,1.82,1.82,0,0,0,1.15.41,1.59,1.59,0,0,0,.57-.1l.78-.25a1.86,1.86,0,0,0,1.19-1.27,1.9,1.9,0,0,0,.75.16,1.79,1.79,0,0,0,1-.3l.7-.45a1.81,1.81,0,0,0,.82-1.54,1.51,1.51,0,0,0,.3,0,1.8,1.8,0,0,0,1.35-.61l.55-.61a2.4,2.4,0,0,1,1.83-2.68l.37-.74a1.82,1.82,0,0,0,.11-1.39,2.26,2.26,0,0,0-.17-.35A1.83,1.83,0,0,0,200,334.5l.17-.81a1.86,1.86,0,0,0-.51-1.66,1.81,1.81,0,0,0,.75-1.57l0-.83a1.78,1.78,0,0,0-.92-1.48,1.8,1.8,0,0,0,.32-1.71l-.26-.79a1.79,1.79,0,0,0-1.27-1.19,1.23,1.23,0,0,0,.12-.37,1.83,1.83,0,0,0-.25-1.37l-.46-.69a1.78,1.78,0,0,0-1.51-.82h0a1.81,1.81,0,0,0-.57-1.64l-.63-.56a1.79,1.79,0,0,0-1.2-.46,1.61,1.61,0,0,0-.49.07,1.8,1.8,0,0,0-.08-.39,1.83,1.83,0,0,0-.9-1.05l-.74-.37a1.84,1.84,0,0,0-.82-.2,1.81,1.81,0,0,0-.92.25,2.21,2.21,0,0,0-.18-.34,1.77,1.77,0,0,0-1.14-.78l-.82-.18a2.31,2.31,0,0,0-.37,0,1.83,1.83,0,0,0-1.3.54,1.82,1.82,0,0,0-1.47-.75Zm.34,23.33a7.74,7.74,0,0,1-.42-15.47l.44,0a7.75,7.75,0,0,1,.42,15.48Z" />
  <path class="GUNDAN_OTTER_JEWELRY_GUNDAN_OTTER_JEWELRY_9_cls-1" d="M273.53,344a1.16,1.16,0,0,1-1.15-1.08l-.05-1-.24,0-.21,1a1.13,1.13,0,0,1-1.11.91,1,1,0,0,1-.25,0l-.81-.16a1.15,1.15,0,0,1-.88-1.36l.2-1-.22-.08-.46.91a1.14,1.14,0,0,1-1,.62,1.1,1.1,0,0,1-.51-.12l-.75-.37a1.15,1.15,0,0,1-.5-1.54l.45-.91-.19-.13-.68.75a1.1,1.1,0,0,1-.85.39,1.14,1.14,0,0,1-.76-.3l-.62-.55a1.13,1.13,0,0,1-.38-.8,1.08,1.08,0,0,1,.29-.82l.67-.75-.15-.18-.85.55a1.17,1.17,0,0,1-.63.19,1.15,1.15,0,0,1-1-.52l-.45-.7a1.13,1.13,0,0,1,.33-1.58l.84-.56a2,2,0,0,0-.1-.21l-1,.32a1.36,1.36,0,0,1-.36.05,1.13,1.13,0,0,1-1.08-.79l-.26-.78a1.15,1.15,0,0,1,.73-1.45l1-.32c0-.07,0-.15,0-.23l-1,.06a1.16,1.16,0,0,1-1.2-1.08l-.05-.84a1.14,1.14,0,0,1,1.08-1.2l1-.06a1.79,1.79,0,0,0,0-.23l-1-.21a1.15,1.15,0,0,1-.89-1.35l.17-.82a1.16,1.16,0,0,1,1.13-.91l.23,0,1,.21a1.43,1.43,0,0,1,.08-.22l-.9-.46a1.14,1.14,0,0,1-.51-1.54l.37-.74a1.15,1.15,0,0,1,1-.63,1.17,1.17,0,0,1,.52.12l.9.46c0-.07.09-.13.13-.19l-.75-.68a1.09,1.09,0,0,1-.38-.79,1.12,1.12,0,0,1,.29-.83l.55-.62a1.17,1.17,0,0,1,.86-.38,1.13,1.13,0,0,1,.76.29l.75.68.18-.16-.55-.85a1.09,1.09,0,0,1-.16-.86,1.1,1.1,0,0,1,.49-.72l.7-.46a1.12,1.12,0,0,1,.62-.18,1.14,1.14,0,0,1,1,.51l.56.85.21-.1-.32-1a1.16,1.16,0,0,1,.73-1.45l.8-.26a1.36,1.36,0,0,1,.36-.05,1.13,1.13,0,0,1,1.08.79l.32,1,.23-.05-.06-1a1.16,1.16,0,0,1,1.08-1.21l.84,0a1.16,1.16,0,0,1,1.2,1.08l.06,1,.23,0,.21-1a1.15,1.15,0,0,1,1.12-.92,1,1,0,0,1,.24,0l.81.17a1.14,1.14,0,0,1,.73.5,1.17,1.17,0,0,1,.16.86l-.21,1,.22.08.46-.9a1.14,1.14,0,0,1,1-.63,1.17,1.17,0,0,1,.52.12l.74.38a1.15,1.15,0,0,1,.51,1.54l-.46.9.19.14.68-.76a1.13,1.13,0,0,1,.85-.38,1.1,1.1,0,0,1,.77.3l.62.55a1.15,1.15,0,0,1,.09,1.62l-.68.75.16.18.84-.56a1.18,1.18,0,0,1,.63-.18,1.14,1.14,0,0,1,1,.51l.46.7a1.18,1.18,0,0,1,.16.86,1.11,1.11,0,0,1-.5.73l-.84.55.1.21,1-.31a1.13,1.13,0,0,1,.36-.06,1.16,1.16,0,0,1,1.09.79l.26.79a1.17,1.17,0,0,1-.07.88,1.15,1.15,0,0,1-.67.57l-1,.31c0,.08,0,.16,0,.23l1,0a1.17,1.17,0,0,1,1.21,1.08l0,.83a1.15,1.15,0,0,1-1.08,1.21l-1,.06a2,2,0,0,1,0,.23l1,.2a1.16,1.16,0,0,1,.89,1.36l-.17.82a1.16,1.16,0,0,1-1.12.91,1,1,0,0,1-.24,0l-1-.2-.07.22.9.45a1.18,1.18,0,0,1,.57.67,1.14,1.14,0,0,1-.06.87l-.38.75a1.14,1.14,0,0,1-1,.63,1.32,1.32,0,0,1-.52-.12l-.91-.46a2.14,2.14,0,0,1-.13.19l.76.68a1.14,1.14,0,0,1,.09,1.61l-.56.63a1.13,1.13,0,0,1-.85.38,1.14,1.14,0,0,1-.77-.3l-.75-.67-.18.15.56.85a1.17,1.17,0,0,1-.33,1.59l-.7.45a1.19,1.19,0,0,1-.63.19,1.13,1.13,0,0,1-1-.52l-.55-.85-.21.11.31.95a1.17,1.17,0,0,1-.06.88,1.14,1.14,0,0,1-.67.57l-.79.26a1.09,1.09,0,0,1-.36.06,1.16,1.16,0,0,1-1.09-.79l-.31-1-.23,0,.05,1a1.14,1.14,0,0,1-1.08,1.21Zm-.35-23.33h-.47a8.41,8.41,0,0,0-7.93,8.86,8.41,8.41,0,0,0,8.39,7.94l.47,0a8.4,8.4,0,0,0-.46-16.79Z" />
  <path d="M272.83,314.78a.48.48,0,0,1,.48.46l.09,1.61a12.81,12.81,0,0,1,1.39.1l.33-1.58a.48.48,0,0,1,.47-.38h.1l.81.17a.47.47,0,0,1,.38.57l-.33,1.58a13.45,13.45,0,0,1,1.31.45l.73-1.43a.47.47,0,0,1,.43-.27.43.43,0,0,1,.22.06l.74.37a.48.48,0,0,1,.22.65l-.73,1.44a11.16,11.16,0,0,1,1.15.79l1.07-1.21a.52.52,0,0,1,.36-.16.48.48,0,0,1,.33.13l.62.55a.49.49,0,0,1,0,.68L282,320.58a13.18,13.18,0,0,1,.91,1.05l1.34-.88a.56.56,0,0,1,.27-.08.5.5,0,0,1,.41.22l.45.69a.49.49,0,0,1-.14.68l-1.35.88a9.57,9.57,0,0,1,.6,1.25l1.54-.5.15,0a.49.49,0,0,1,.46.34l.26.79a.49.49,0,0,1-.31.61l-1.53.5a12.26,12.26,0,0,1,.25,1.37l1.61-.09h0a.47.47,0,0,1,.48.45l.05.83a.49.49,0,0,1-.46.52l-1.61.09a12.44,12.44,0,0,1-.1,1.38l1.58.33a.48.48,0,0,1,.37.58l-.17.81a.48.48,0,0,1-.47.39l-.1,0-1.58-.32a12.74,12.74,0,0,1-.46,1.31l1.44.72a.5.5,0,0,1,.21.66l-.37.74a.49.49,0,0,1-.43.26.42.42,0,0,1-.22-.05l-1.44-.72a12.84,12.84,0,0,1-.79,1.14l1.21,1.08a.49.49,0,0,1,0,.68l-.55.62a.48.48,0,0,1-.36.16.47.47,0,0,1-.32-.12l-1.21-1.08a11.42,11.42,0,0,1-1.05.91l.88,1.35a.47.47,0,0,1-.14.67l-.69.46a.56.56,0,0,1-.27.08.5.5,0,0,1-.41-.22l-.87-1.35q-.61.33-1.26.6l.5,1.53a.47.47,0,0,1-.31.61l-.79.26-.15,0a.49.49,0,0,1-.46-.34l-.5-1.53a12.27,12.27,0,0,1-1.37.26l.09,1.61a.48.48,0,0,1-.46.51l-.83.05h0a.49.49,0,0,1-.49-.46l-.09-1.61a12.62,12.62,0,0,1-1.38-.1l-.33,1.57a.49.49,0,0,1-.47.39h-.11l-.81-.17a.5.5,0,0,1-.38-.58l.33-1.57a12.74,12.74,0,0,1-1.31-.46l-.73,1.44a.48.48,0,0,1-.43.26.59.59,0,0,1-.22-.05l-.74-.38a.48.48,0,0,1-.21-.65l.72-1.44a12.74,12.74,0,0,1-1.14-.78l-1.08,1.2a.46.46,0,0,1-.36.16A.49.49,0,0,1,264,340l-.62-.55a.49.49,0,0,1,0-.69l1.07-1.2a12.79,12.79,0,0,1-.9-1.05l-1.35.88a.53.53,0,0,1-.27.08.49.49,0,0,1-.4-.22l-.46-.7a.49.49,0,0,1,.14-.67l1.35-.88a13.08,13.08,0,0,1-.6-1.25l-1.53.5-.16,0a.47.47,0,0,1-.45-.33l-.26-.79a.47.47,0,0,1,.31-.61l1.53-.51a12.1,12.1,0,0,1-.26-1.36l-1.61.09h0a.48.48,0,0,1-.48-.46l0-.83a.48.48,0,0,1,.46-.51l1.61-.09a12.81,12.81,0,0,1,.1-1.39l-1.57-.33a.48.48,0,0,1-.38-.57l.17-.81a.49.49,0,0,1,.48-.39h.09l1.58.33a11.26,11.26,0,0,1,.46-1.31l-1.44-.73a.49.49,0,0,1-.21-.65l.38-.74a.47.47,0,0,1,.43-.27.59.59,0,0,1,.22,0l1.43.73a13,13,0,0,1,.79-1.15l-1.2-1.07a.49.49,0,0,1,0-.69l.55-.62a.52.52,0,0,1,.37-.16.45.45,0,0,1,.32.13l1.2,1.07c.34-.32.69-.63,1.05-.91l-.88-1.35a.49.49,0,0,1,.14-.67l.7-.45a.5.5,0,0,1,.26-.08.49.49,0,0,1,.41.22l.88,1.34a12.19,12.19,0,0,1,1.26-.6l-.51-1.53a.49.49,0,0,1,.31-.61l.79-.26.15,0a.47.47,0,0,1,.46.33l.51,1.53a12.08,12.08,0,0,1,1.36-.25l-.09-1.61a.48.48,0,0,1,.46-.51l.83-.05h0m.34,23.33h.51a9.07,9.07,0,0,0-.5-18.13l-.51,0a9.07,9.07,0,0,0,.5,18.12m-.34-24.66h-.1l-.83,0a1.8,1.8,0,0,0-1.25.6,1.72,1.72,0,0,0-.23.32,1.82,1.82,0,0,0-1.15-.41,1.85,1.85,0,0,0-.57.1l-.78.25a1.84,1.84,0,0,0-1.19,1.28,1.72,1.72,0,0,0-.75-.17,1.85,1.85,0,0,0-1,.3l-.69.45a1.79,1.79,0,0,0-.78,1.15,1.72,1.72,0,0,0,0,.39,1.46,1.46,0,0,0-.29,0,1.81,1.81,0,0,0-1.35.6l-.56.62a1.85,1.85,0,0,0-.46,1.31,1.06,1.06,0,0,1-1.36,1.37l-.38.74a1.79,1.79,0,0,0,.06,1.74,1.83,1.83,0,0,0-1.14,1.33l-.17.81a1.8,1.8,0,0,0,.26,1.36,2.48,2.48,0,0,0,.25.3,2.35,2.35,0,0,0-.29.26,1.81,1.81,0,0,0-.46,1.31l0,.83a2.38,2.38,0,0,1,.6,3.19l.27.79a1.79,1.79,0,0,0,1.27,1.19,1.84,1.84,0,0,0,.13,1.73l.46.7a1.79,1.79,0,0,0,1.51.82h0a2.55,2.55,0,0,0,0,.39,1.82,1.82,0,0,0,.6,1.25l.62.56a1.81,1.81,0,0,0,1.21.46,1.61,1.61,0,0,0,.49-.07,1.8,1.8,0,0,0,1,1.44l.74.37a1.77,1.77,0,0,0,1.74-.06,1.79,1.79,0,0,0,1.3,1.13l.84.18a2.13,2.13,0,0,0,.37,0,1.81,1.81,0,0,0,1.29-.54,1.79,1.79,0,0,0,1.47.75h.1l.83-.05a1.75,1.75,0,0,0,1.24-.6,1.44,1.44,0,0,0,.23-.32,1.82,1.82,0,0,0,1.15.41,1.79,1.79,0,0,0,.57-.09l.78-.26a1.77,1.77,0,0,0,1.19-1.27,1.74,1.74,0,0,0,.75.16,1.84,1.84,0,0,0,1-.29l.7-.46a1.8,1.8,0,0,0,.81-1.53l.3,0a1.78,1.78,0,0,0,1.35-.61l.55-.61a1.81,1.81,0,0,0,.39-1.7,1.79,1.79,0,0,0,1.44-1l.38-.75a1.79,1.79,0,0,0,.1-1.38,2,2,0,0,0-.16-.36,1.81,1.81,0,0,0,1.13-1.32l.17-.81a1.79,1.79,0,0,0-.51-1.66,1.93,1.93,0,0,0,.3-.27,1.8,1.8,0,0,0,.45-1.31l0-.83a2.39,2.39,0,0,1-.6-3.18l-.27-.8a1.8,1.8,0,0,0-1.26-1.19,2,2,0,0,0,.12-.37,1.77,1.77,0,0,0-.26-1.36l-.45-.7a1.83,1.83,0,0,0-1.52-.82h0a1.83,1.83,0,0,0-.57-1.63l-.63-.56a1.79,1.79,0,0,0-1.21-.46,2.05,2.05,0,0,0-.49.06,1.81,1.81,0,0,0-1-1.43l-.74-.38a2,2,0,0,0-.82-.19,1.81,1.81,0,0,0-.92.25,2.31,2.31,0,0,0-.18-.35,1.81,1.81,0,0,0-1.14-.78l-.82-.17a2.1,2.1,0,0,0-.37,0,1.8,1.8,0,0,0-1.29.55,1.81,1.81,0,0,0-1.47-.76Zm.34,23.33a7.74,7.74,0,0,1-.42-15.47h.43A7.74,7.74,0,0,1,279,334.2a7.65,7.65,0,0,1-5.34,2.57Z" />
  <path class="GUNDAN_OTTER_JEWELRY_GUNDAN_OTTER_JEWELRY_9_cls-7" d="M146.74,165.53a3.93,3.93,0,0,1,3.92,3.92,4.24,4.24,0,0,1-.09.88,3.84,3.84,0,0,1-1.12,1.94,3.32,3.32,0,0,1-.86.64,3.82,3.82,0,0,1-1.85.47,4,4,0,0,1-1.84-.45,4.54,4.54,0,0,1-.87-.64,3.89,3.89,0,0,1-1.11-2,4.24,4.24,0,0,1-.09-.88A3.91,3.91,0,0,1,146.74,165.53Z" />
  <path class="GUNDAN_OTTER_JEWELRY_GUNDAN_OTTER_JEWELRY_9_cls-8" d="M146.74,165.53a3.06,3.06,0,0,1,3,3.05,3.62,3.62,0,0,1-.07.67,3,3,0,0,1-.88,1.52,2.63,2.63,0,0,1-.66.49,3,3,0,0,1-1.44.37,3.25,3.25,0,0,1-1.43-.35,3.65,3.65,0,0,1-.67-.5,3,3,0,0,1-.86-1.53,2.93,2.93,0,0,1-.08-.67A3,3,0,0,1,146.74,165.53Z" />
  <path class="GUNDAN_OTTER_JEWELRY_GUNDAN_OTTER_JEWELRY_9_cls-7" d="M149.46,172.29c2.37,4.56,5.94,11.51,5.25,18.64s-4.44,9.78-8,9.78-7.29-2.6-8-9.78,2.89-14.08,5.26-18.64a4.54,4.54,0,0,0,.87.64c-1.6,3.73-4,8.81-3.57,14.62s3,8,5.41,8,4.95-2.12,5.42-8-2-10.9-3.57-14.64a3.32,3.32,0,0,0,.86-.64Z" />
  <path class="GUNDAN_OTTER_JEWELRY_GUNDAN_OTTER_JEWELRY_9_cls-8" d="M149.2,172.29c2.15,4.12,5.37,10.41,4.75,16.86s-4,9.53-7.21,9.53-6.59-3-7.21-9.53,2.62-12.74,4.76-16.86a3.69,3.69,0,0,0,.79.57c-1.45,3.38-4.3,9.08-3.91,14.36s3.4,8.32,5.57,8.32,5.15-3.37,5.12-9.06c0-5.29-2-10.25-3.44-13.63a3.31,3.31,0,0,0,.77-.58Z" />
  <path class="GUNDAN_OTTER_JEWELRY_GUNDAN_OTTER_JEWELRY_9_cls-7" d="M146.73,217.88c-9.45,0-19.52-10.06-16.38-25.2,2.76-13.31,12.57-22.35,12.57-22.35a.6.6,0,0,0,.06.19,3.88,3.88,0,0,0,1,1.78c-14.48,18.2-5.18,32.59,2.71,32.59s17.2-14.39,2.73-32.59l0,0a3.67,3.67,0,0,0,1.06-1.76.6.6,0,0,0,.06-.19s9.82,9,12.57,22.35C166.28,207.82,156.19,217.88,146.73,217.88Z" />
  <path class="GUNDAN_OTTER_JEWELRY_GUNDAN_OTTER_JEWELRY_9_cls-8" d="M146.73,214.54c-8.78,0-18.15-9.36-15.23-23.43,2.34-11.29,10.13-19.27,11.48-20.59a3.88,3.88,0,0,0,1,1.78c-14.48,18.2-5.18,32.59,2.71,32.59s17.2-14.39,2.73-32.59l0,0a3.67,3.67,0,0,0,1.06-1.76c1.36,1.32,9.16,9.3,11.49,20.59C164.91,205.18,155.53,214.54,146.73,214.54Z" />
  <path class="GUNDAN_OTTER_JEWELRY_GUNDAN_OTTER_JEWELRY_9_cls-9" d="M142.92,170.33a4.24,4.24,0,0,1-.09-.88,3.92,3.92,0,1,1,7.83,0,4.24,4.24,0,0,1-.09.88,3.84,3.84,0,0,1-1.12,1.94,3.32,3.32,0,0,1-.86.64,3.82,3.82,0,0,1-1.85.47,4,4,0,0,1-1.84-.45,4.54,4.54,0,0,1-.87-.64A3.89,3.89,0,0,1,142.92,170.33Z" />
  <path class="GUNDAN_OTTER_JEWELRY_GUNDAN_OTTER_JEWELRY_9_cls-9" d="M146.74,217.87c-9.45,0-19.53-10.06-16.38-25.2,2.75-13.31,12.56-22.34,12.56-22.34" />
  <path class="GUNDAN_OTTER_JEWELRY_GUNDAN_OTTER_JEWELRY_9_cls-9" d="M146.74,204.88c-7.9,0-17.19-14.39-2.71-32.59" />
  <path class="GUNDAN_OTTER_JEWELRY_GUNDAN_OTTER_JEWELRY_9_cls-9" d="M144,172.29c-2.37,4.56-5.93,11.51-5.26,18.64s4.43,9.78,8,9.78" />
  <path class="GUNDAN_OTTER_JEWELRY_GUNDAN_OTTER_JEWELRY_9_cls-9" d="M144.9,172.91v0c-1.6,3.73-4,8.81-3.57,14.62s3,8,5.41,8" />
  <path class="GUNDAN_OTTER_JEWELRY_GUNDAN_OTTER_JEWELRY_9_cls-9" d="M146.74,217.87c9.45,0,19.54-10.06,16.4-25.2-2.76-13.31-12.57-22.34-12.57-22.34" />
  <path class="GUNDAN_OTTER_JEWELRY_GUNDAN_OTTER_JEWELRY_9_cls-9" d="M146.74,204.88c7.91,0,17.19-14.39,2.72-32.59" />
  <path class="GUNDAN_OTTER_JEWELRY_GUNDAN_OTTER_JEWELRY_9_cls-9" d="M149.46,172.29c2.37,4.56,5.94,11.51,5.25,18.64s-4.44,9.78-8,9.78" />
  <path class="GUNDAN_OTTER_JEWELRY_GUNDAN_OTTER_JEWELRY_9_cls-9" d="M148.59,172.91c1.61,3.74,4,8.81,3.57,14.64s-3,8-5.42,8" />
  <path class="GUNDAN_OTTER_JEWELRY_GUNDAN_OTTER_JEWELRY_9_cls-9" d="M146.74,173.38c3.41,3.83,4.79,15.55.84,16.33s-5.2-4.5-2.54-5.88a2,2,0,0,1,2.8,1.12" />
  <path class="GUNDAN_OTTER_JEWELRY_GUNDAN_OTTER_JEWELRY_9_cls-9" d="M147.66,150.64a4.31,4.31,0,0,1,4.16,4.08c.39,3.87-5.14,4.65-5.14,10.68" />
  <path class="GUNDAN_OTTER_JEWELRY_GUNDAN_OTTER_JEWELRY_9_cls-9" d="M141.54,155.84a6.71,6.71,0,0,1,2.94-4.12" />
  <path class="GUNDAN_OTTER_JEWELRY_GUNDAN_OTTER_JEWELRY_9_cls-10" d="M147.83,152.32a2.78,2.78,0,0,1-.06-3.36" />
</svg>