<svg id="Jewelry_Front" data-name="Jewelry Front" xmlns="http://www.w3.org/2000/svg" viewBox="0 0 432 432">
  <defs>
    <style>.GUNDAN_OTTER_JEWELRY_GUNDAN_OTTER_JEWELRY_12_cls-1{fill:#dec96c;}.GUNDAN_OTTER_JEWELRY_GUNDAN_OTTER_JEWELRY_12_cls-1,.GUNDAN_OTTER_JEWELRY_GUNDAN_OTTER_JEWELRY_12_cls-2{stroke:#000;stroke-miterlimit:10;stroke-width:0.89px;}.GUNDAN_OTTER_JEWELRY_GUNDAN_OTTER_JEWELRY_12_cls-2{fill:#be3f27;}.GUNDAN_OTTER_JEWELRY_GUNDAN_OTTER_JEWELRY_12_cls-3{fill:#fff;}</style>
  </defs>
  <path class="GUNDAN_OTTER_JEWELRY_GUNDAN_OTTER_JEWELRY_12_cls-1" d="M243.06,167s-2.4,1.94-.79,4.39a4.33,4.33,0,0,0,6.7.88c1.76-1.87,1.13-4.12.2-4.68a13.27,13.27,0,0,1-2.17-1.25,2.48,2.48,0,0,0,0,2.12c.56,1-1.94,3.39-2.81,2.55s-.27-3.16-.11-3.21C243.53,167,243.06,167,243.06,167Z" />
  <path class="GUNDAN_OTTER_JEWELRY_GUNDAN_OTTER_JEWELRY_12_cls-2" d="M244.55,173.22a2.46,2.46,0,0,1,1.76-1.66,3.15,3.15,0,0,1,2.54.85,1.85,1.85,0,0,1-.89,2.84A2.26,2.26,0,0,1,244.55,173.22Z" />
  <path class="GUNDAN_OTTER_JEWELRY_GUNDAN_OTTER_JEWELRY_12_cls-3" d="M246.21,172.75s1.18,0,1.48.74a1.73,1.73,0,0,1,.14,1.19s.9-1.27.1-2A1.31,1.31,0,0,0,246.21,172.75Z" />
  <path class="GUNDAN_OTTER_JEWELRY_GUNDAN_OTTER_JEWELRY_12_cls-1" d="M260.4,167s2.4,1.94.79,4.39a4.33,4.33,0,0,1-6.7.88c-1.75-1.87-1.12-4.12-.2-4.68a12.64,12.64,0,0,0,2.17-1.25,2.44,2.44,0,0,1,0,2.12c-.55,1,1.94,3.39,2.82,2.55s.26-3.16.1-3.21C259.93,167,260.4,167,260.4,167Z" />
  <path class="GUNDAN_OTTER_JEWELRY_GUNDAN_OTTER_JEWELRY_12_cls-2" d="M258.91,173.22a2.44,2.44,0,0,0-1.76-1.66,3.15,3.15,0,0,0-2.54.85,1.85,1.85,0,0,0,.89,2.84A2.26,2.26,0,0,0,258.91,173.22Z" />
  <path class="GUNDAN_OTTER_JEWELRY_GUNDAN_OTTER_JEWELRY_12_cls-3" d="M257.25,172.75s-1.18,0-1.48.74a1.73,1.73,0,0,0-.14,1.19s-.9-1.27-.1-2A1.31,1.31,0,0,1,257.25,172.75Z" />
</svg>