<svg id="Jewelry_Front" data-name="Jewelry Front" xmlns="http://www.w3.org/2000/svg" viewBox="0 0 432 432">
  <defs>
    <style>.GUNDAN_OTTER_JEWELRY_GUNDAN_OTTER_JEWELRY_11_cls-1{fill:#aeaeaf;}.GUNDAN_OTTER_JEWELRY_GUNDAN_OTTER_JEWELRY_11_cls-2{fill:#4a4a4a;}.GUNDAN_OTTER_JEWELRY_GUNDAN_OTTER_JEWELRY_11_cls-3{fill:#8b8b8b;}.GUNDAN_OTTER_JEWELRY_GUNDAN_OTTER_JEWELRY_11_cls-4,.GUNDAN_OTTER_JEWELRY_GUNDAN_OTTER_JEWELRY_11_cls-7{fill:none;stroke:#000;stroke-linecap:round;stroke-linejoin:round;}.GUNDAN_OTTER_JEWELRY_GUNDAN_OTTER_JEWELRY_11_cls-4{stroke-width:0.68px;}.GUNDAN_OTTER_JEWELRY_GUNDAN_OTTER_JEWELRY_11_cls-5{fill:#686868;}.GUNDAN_OTTER_JEWELRY_GUNDAN_OTTER_JEWELRY_11_cls-6{fill:#a1a1a1;}.GUNDAN_OTTER_JEWELRY_GUNDAN_OTTER_JEWELRY_11_cls-7{stroke-width:1.23px;}.GUNDAN_OTTER_JEWELRY_GUNDAN_OTTER_JEWELRY_11_cls-8{fill:#24123e;}.GUNDAN_OTTER_JEWELRY_GUNDAN_OTTER_JEWELRY_11_cls-9{fill:#593c82;}.GUNDAN_OTTER_JEWELRY_GUNDAN_OTTER_JEWELRY_11_cls-10{fill:#846aae;}</style>
  </defs>
  <path d="M139,270.22l.78-3.86a3.76,3.76,0,0,0-3.61,1.35" />
  <path class="GUNDAN_OTTER_JEWELRY_GUNDAN_OTTER_JEWELRY_11_cls-1" d="M182.44,321.49s-2.08-2.05-3.9-3.49c0,0,0,0,0,0a3.17,3.17,0,0,0,.92-.87,3.27,3.27,0,0,0,.5-1.05,14.61,14.61,0,0,1,2.79,2.21c.32.38.59.7.78,1A3.69,3.69,0,0,0,182.44,321.49Z" />
  <path class="GUNDAN_OTTER_JEWELRY_GUNDAN_OTTER_JEWELRY_11_cls-1" d="M170.73,313.1c.38.89,3.61,3.47,5.67,3.37h0a1.49,1.49,0,0,0,1.22-.57A1.76,1.76,0,0,0,178,315h.09s.85.46,1.87,1.1a3.27,3.27,0,0,1-.5,1.05,3.17,3.17,0,0,1-.92.87s0,0,0,0c-1.34.81-3.38.68-5.35-.48-2.51-1.48-4.33-3.22-4.23-5a3.67,3.67,0,0,1,1.11-2.25,6,6,0,0,1,.78,1.18,1.73,1.73,0,0,0-.26,1A1.54,1.54,0,0,0,170.73,313.1Z" />
  <path class="GUNDAN_OTTER_JEWELRY_GUNDAN_OTTER_JEWELRY_11_cls-1" d="M140.49,275.81a1.47,1.47,0,0,1-.52.76,2.21,2.21,0,0,1-2.36.4,1.69,1.69,0,0,1,.16-.67,1.79,1.79,0,0,1,.7-.78h0a6.94,6.94,0,0,0-.17-1.39,3.8,3.8,0,0,0-2,1.51s-.37-1.06-.88-2.37v0c-.62-2-.12-5.34,2-6.05h0c2.16-.76,1.47,2.71,1.54,2.85a11.71,11.71,0,0,1,1.52,3.77A3.62,3.62,0,0,1,140.49,275.81Z" />
  <path class="GUNDAN_OTTER_JEWELRY_GUNDAN_OTTER_JEWELRY_11_cls-2" d="M140.49,275.81a3.72,3.72,0,0,0,0-2,10,10,0,0,1,4.32,4.33,7,7,0,0,1,.69,3.24l-.21-.21a4.31,4.31,0,0,0-1.86-1.2A8.18,8.18,0,0,0,140.49,275.81Z" />
  <path class="GUNDAN_OTTER_JEWELRY_GUNDAN_OTTER_JEWELRY_11_cls-1" d="M136.28,275.63a3.8,3.8,0,0,1,2-1.51,6,6,0,0,1,.17,1.39h0a1.73,1.73,0,0,0-.69.78,1.65,1.65,0,0,0-.16.67,9.35,9.35,0,0,0,2.94,5.17,1.85,1.85,0,0,0,2,.43,2.08,2.08,0,0,0,.61-.46c.16.14.84.7,1.59,1.42a3.55,3.55,0,0,1-1.09.94,3.35,3.35,0,0,1-1,.34c-1.63.25-3.5-.78-4.8-2.79C136.25,279.57,135.4,277.2,136.28,275.63Z" />
  <path class="GUNDAN_OTTER_JEWELRY_GUNDAN_OTTER_JEWELRY_11_cls-1" d="M142.63,284.81a3.35,3.35,0,0,0,1-.34,3.55,3.55,0,0,0,1.09-.94h0a13.66,13.66,0,0,1,2.31,2.67c.25.43.45.8.61,1.11a3.61,3.61,0,0,0-1.54,2h0A49.88,49.88,0,0,0,142.63,284.81Z" />
  <path class="GUNDAN_OTTER_JEWELRY_GUNDAN_OTTER_JEWELRY_11_cls-3" d="M142.53,282.57a1.85,1.85,0,0,1-2-.43,1.28,1.28,0,0,1,.16-1.19,2.42,2.42,0,0,1,2.69-1,4.31,4.31,0,0,1,1.86,1.2l.21.21h0a26.52,26.52,0,0,1,4.21,5.06,3.75,3.75,0,0,1,.57,1.9,1.58,1.58,0,0,1-.31.87,2.2,2.2,0,0,1-2.18,1,1.9,1.9,0,0,1,0-.67,1.78,1.78,0,0,1,.45-.95h0a5.25,5.25,0,0,0-.52-1.29c-.16-.31-.36-.68-.61-1.11a13.66,13.66,0,0,0-2.31-2.67h0c-.75-.72-1.43-1.28-1.59-1.42A2.08,2.08,0,0,1,142.53,282.57Z" />
  <path class="GUNDAN_OTTER_JEWELRY_GUNDAN_OTTER_JEWELRY_11_cls-2" d="M160.83,300.34a3.62,3.62,0,0,0-.42-1.94h0a9.84,9.84,0,0,1,5.07,3.41,7.15,7.15,0,0,1,1.3,3.05l-.25-.17a4.2,4.2,0,0,0-2.05-.82A8.32,8.32,0,0,0,160.83,300.34Z" />
  <path class="GUNDAN_OTTER_JEWELRY_GUNDAN_OTTER_JEWELRY_11_cls-2" d="M154,291.3a8.21,8.21,0,0,0-3.73-3,3.75,3.75,0,0,0-.57-1.9,9.84,9.84,0,0,1,5.3,3A6.41,6.41,0,0,1,156.6,293c-.06-.08-.13-.14-.18-.2A3.74,3.74,0,0,0,154,291.3Z" />
  <path class="GUNDAN_OTTER_JEWELRY_GUNDAN_OTTER_JEWELRY_11_cls-1" d="M153.88,296.69a5.78,5.78,0,0,1-4.56-1.65c-2.17-1.94-3.62-4-3.19-5.74a3.61,3.61,0,0,1,1.54-2,5.25,5.25,0,0,1,.52,1.29h0a1.78,1.78,0,0,0-.45.95,1.9,1.9,0,0,0,0,.67,9.4,9.4,0,0,0,4.4,4.29h0a1.74,1.74,0,0,0,1.84-.22,1.5,1.5,0,0,0,.43-.53c.31.31.91.92,1.54,1.62h0a3.89,3.89,0,0,1-.38.43A3.16,3.16,0,0,1,153.88,296.69Z" />
  <path class="GUNDAN_OTTER_JEWELRY_GUNDAN_OTTER_JEWELRY_11_cls-3" d="M152.17,294.53h0c-.58-.85-.78-1.62-.26-2.28a2.49,2.49,0,0,1,2.08-.94,3.74,3.74,0,0,1,2.44,1.51c.05.06.12.12.18.2h0a26.51,26.51,0,0,1,3.81,5.37h0a3.62,3.62,0,0,1,.42,1.94h0a1.47,1.47,0,0,1-.37.83,2.22,2.22,0,0,1-2.24.86,1.73,1.73,0,0,1,0-.69,1.9,1.9,0,0,1,.52-.9,5.87,5.87,0,0,0-.43-1.35c-.12-.32-.3-.7-.51-1.15A12.2,12.2,0,0,0,156,295.4c-.63-.7-1.23-1.31-1.54-1.62a1.5,1.5,0,0,1-.43.53A1.74,1.74,0,0,1,152.17,294.53Z" />
  <path class="GUNDAN_OTTER_JEWELRY_GUNDAN_OTTER_JEWELRY_11_cls-1" d="M156,295.4a12.2,12.2,0,0,1,1.85,2.55c.21.45.39.83.51,1.15a3.86,3.86,0,0,0-1.68,1.88s-1.41-2.43-2.78-4.29a3.16,3.16,0,0,0,1.71-.85,3.89,3.89,0,0,0,.38-.43Z" />
  <path class="GUNDAN_OTTER_JEWELRY_GUNDAN_OTTER_JEWELRY_11_cls-1" d="M158.22,302a9.36,9.36,0,0,0,3.88,4.52,1.83,1.83,0,0,0,2,0,1.76,1.76,0,0,0,.5-.56c.18.1,1,.51,1.85,1.08a3.53,3.53,0,0,1-.9,1.14,3.3,3.3,0,0,1-.93.52c-1.55.57-3.58-.08-5.24-1.81-2-2.11-3.31-4.26-2.75-6a3.86,3.86,0,0,1,1.68-1.88,5.87,5.87,0,0,1,.43,1.35,1.9,1.9,0,0,0-.52.9A1.73,1.73,0,0,0,158.22,302Z" />
  <path class="GUNDAN_OTTER_JEWELRY_GUNDAN_OTTER_JEWELRY_11_cls-1" d="M169.27,309.27c.33.38.59.69.8,1h0A3.67,3.67,0,0,0,169,312.5h0a48.21,48.21,0,0,0-4.3-3.74h0a3.3,3.3,0,0,0,.93-.52,3.53,3.53,0,0,0,.9-1.14A14.12,14.12,0,0,1,169.27,309.27Z" />
  <path class="GUNDAN_OTTER_JEWELRY_GUNDAN_OTTER_JEWELRY_11_cls-3" d="M170.07,310.24c-.21-.28-.47-.59-.8-1a14.12,14.12,0,0,0-2.79-2.17c-.9-.57-1.67-1-1.85-1.08a1.76,1.76,0,0,1-.5.56,1.83,1.83,0,0,1-2,0,1.29,1.29,0,0,1-.07-1.21,2.42,2.42,0,0,1,2.45-1.49,4.2,4.2,0,0,1,2.05.82l.25.17a40.39,40.39,0,0,1,5.1,4.15l.86,1.45c0,.1,0,.22.07.32a1.51,1.51,0,0,1-.14.91,2.19,2.19,0,0,1-1.94,1.42,1.54,1.54,0,0,1-.14-.66,1.73,1.73,0,0,1,.26-1,6,6,0,0,0-.78-1.18Z" />
  <path class="GUNDAN_OTTER_JEWELRY_GUNDAN_OTTER_JEWELRY_11_cls-2" d="M177,312.93a8.36,8.36,0,0,0-4.21-2.16c0-.1,0-.22-.07-.32l-.86-1.45a9.77,9.77,0,0,1,5.78,1.93,7.14,7.14,0,0,1,2,2.48,3.38,3.38,0,0,0-2.35-.56Z" />
  <path class="GUNDAN_OTTER_JEWELRY_GUNDAN_OTTER_JEWELRY_11_cls-3" d="M176.4,316.42c-.78-.66-1.17-1.35-.83-2.13a2.47,2.47,0,0,1,1.45-1.36l.31-.08a3.38,3.38,0,0,1,2.35.56,3.6,3.6,0,0,1,.39.25l.22.16h0a26.71,26.71,0,0,1,5.08,4.18v0a3.76,3.76,0,0,1,.91,1.77,1.66,1.66,0,0,1-.13.91,2.24,2.24,0,0,1-2,1.4,1.55,1.55,0,0,1-.14-.67,1.72,1.72,0,0,1,.27-1h0a6.4,6.4,0,0,0-.78-1.18c-.19-.28-.46-.6-.78-1a14.61,14.61,0,0,0-2.79-2.21c-1-.64-1.87-1.1-1.87-1.1H178a1.76,1.76,0,0,1-.39.95,1.49,1.49,0,0,1-1.22.57v0Z" />
  <path class="GUNDAN_OTTER_JEWELRY_GUNDAN_OTTER_JEWELRY_11_cls-2" d="M191.15,320a7,7,0,0,1,2,2.59l-.27-.09a4.41,4.41,0,0,0-2.2-.26,8.33,8.33,0,0,0-4.43-2.44,3.76,3.76,0,0,0-.91-1.77A9.67,9.67,0,0,1,191.15,320Z" />
  <path class="GUNDAN_OTTER_JEWELRY_GUNDAN_OTTER_JEWELRY_11_cls-1" d="M192.18,326.92c-1.36.95-3.5.86-5.54-.38-2.5-1.5-4.3-3.25-4.2-5h0a3.69,3.69,0,0,1,1.12-2.24,6.4,6.4,0,0,1,.78,1.18h0a1.72,1.72,0,0,0-.27,1,1.55,1.55,0,0,0,.14.67,9.35,9.35,0,0,0,4.93,3.35,1.79,1.79,0,0,0,2-.5,1.93,1.93,0,0,0,.35-.66c.21,0,1.06.25,2.06.55a3.42,3.42,0,0,1-.57,1.33,3.81,3.81,0,0,1-.75.75Z" />
  <path class="GUNDAN_OTTER_JEWELRY_GUNDAN_OTTER_JEWELRY_11_cls-1" d="M197.31,329.41a51.69,51.69,0,0,0-5.12-2.49,3.81,3.81,0,0,0,.75-.75,3.42,3.42,0,0,0,.57-1.33,15.08,15.08,0,0,1,3.26,1.37c.42.28.76.52,1,.73A3.73,3.73,0,0,0,197.31,329.41Z" />
  <path class="GUNDAN_OTTER_JEWELRY_GUNDAN_OTTER_JEWELRY_11_cls-3" d="M189.14,325.45a1.29,1.29,0,0,1-.39-1.14,2.44,2.44,0,0,1,2-2.08,4.41,4.41,0,0,1,2.2.26l.27.09h0a26.58,26.58,0,0,1,6,2.68,3.76,3.76,0,0,1,1.35,1.47,1.44,1.44,0,0,1,.12.91,2.2,2.2,0,0,1-1.51,1.87,1.78,1.78,0,0,1-.3-.6,1.66,1.66,0,0,1,0-1h0a6.36,6.36,0,0,0-1-.93c-.27-.21-.61-.45-1-.73a15.08,15.08,0,0,0-3.26-1.37c-1-.3-1.85-.51-2.06-.55a1.93,1.93,0,0,1-.35.66A1.79,1.79,0,0,1,189.14,325.45Z" />
  <path class="GUNDAN_OTTER_JEWELRY_GUNDAN_OTTER_JEWELRY_11_cls-3" d="M197.8,326.94a6.36,6.36,0,0,1,1,.93h0a1.66,1.66,0,0,0,0,1,1.78,1.78,0,0,0,.3.6c.76,1,6.42,3.27,7.41.9,1.11-2.66-4.27-4.05-6-3.68a3.76,3.76,0,0,0-1.35-1.47,9.82,9.82,0,0,1,6.1.36c2.93,1.31,4.08,3.53,3.36,5.48s-3.16,2.82-6,2-5-2-5.4-3.73h0A3.73,3.73,0,0,1,197.8,326.94Z" />
  <path class="GUNDAN_OTTER_JEWELRY_GUNDAN_OTTER_JEWELRY_11_cls-4" d="M138.46,275.51a6,6,0,0,0-.17-1.39c-.06-.34-.15-.75-.28-1.24a11.4,11.4,0,0,0-1.21-2.66" />
  <path class="GUNDAN_OTTER_JEWELRY_GUNDAN_OTTER_JEWELRY_11_cls-4" d="M136.28,275.63s-.37-1.06-.88-2.37v0" />
  <path class="GUNDAN_OTTER_JEWELRY_GUNDAN_OTTER_JEWELRY_11_cls-4" d="M137.39,267.18l2-.48c.06.12-.57,3.29-.5,3.43a9.68,9.68,0,0,1,1.6,3.67,3.62,3.62,0,0,1,0,2,1.47,1.47,0,0,1-.52.76,2.21,2.21,0,0,1-2.36.4" />
  <path class="GUNDAN_OTTER_JEWELRY_GUNDAN_OTTER_JEWELRY_11_cls-4" d="M138.46,275.52a1.73,1.73,0,0,0-.69.78,1.65,1.65,0,0,0-.16.67,9.35,9.35,0,0,0,2.94,5.17,1.85,1.85,0,0,0,2,.43,2.08,2.08,0,0,0,.61-.46" />
  <path class="GUNDAN_OTTER_JEWELRY_GUNDAN_OTTER_JEWELRY_11_cls-4" d="M143.4,280a8.18,8.18,0,0,0-2.91-4.15" />
  <path class="GUNDAN_OTTER_JEWELRY_GUNDAN_OTTER_JEWELRY_11_cls-4" d="M144.73,283.53a3.55,3.55,0,0,1-1.09.94,3.35,3.35,0,0,1-1,.34c-1.63.25-3.5-.78-4.8-2.79-1.58-2.45-2.43-4.82-1.55-6.39a3.8,3.8,0,0,1,2-1.51h0" />
  <path class="GUNDAN_OTTER_JEWELRY_GUNDAN_OTTER_JEWELRY_11_cls-4" d="M145.47,281.37a7,7,0,0,0-.69-3.24,10,10,0,0,0-4.32-4.33" />
  <path class="GUNDAN_OTTER_JEWELRY_GUNDAN_OTTER_JEWELRY_11_cls-4" d="M148.19,288.6a5.25,5.25,0,0,0-.52-1.29c-.16-.31-.36-.68-.61-1.11a13.66,13.66,0,0,0-2.31-2.67h0c-.75-.72-1.43-1.28-1.59-1.42l0,0" />
  <path class="GUNDAN_OTTER_JEWELRY_GUNDAN_OTTER_JEWELRY_11_cls-4" d="M146.12,289.31a49.88,49.88,0,0,0-3.49-4.5" />
  <path class="GUNDAN_OTTER_JEWELRY_GUNDAN_OTTER_JEWELRY_11_cls-4" d="M140.55,282.14a1.28,1.28,0,0,1,.16-1.19,2.42,2.42,0,0,1,2.69-1,4.31,4.31,0,0,1,1.86,1.2l.21.21h0a26.52,26.52,0,0,1,4.21,5.06,3.75,3.75,0,0,1,.57,1.9,1.58,1.58,0,0,1-.31.87,2.2,2.2,0,0,1-2.18,1" />
  <path class="GUNDAN_OTTER_JEWELRY_GUNDAN_OTTER_JEWELRY_11_cls-4" d="M152.17,294.53a1.74,1.74,0,0,0,1.84-.22,1.5,1.5,0,0,0,.43-.53" />
  <path class="GUNDAN_OTTER_JEWELRY_GUNDAN_OTTER_JEWELRY_11_cls-4" d="M148.2,288.61a1.78,1.78,0,0,0-.45.95,1.9,1.9,0,0,0,0,.67,9.4,9.4,0,0,0,4.4,4.29" />
  <path class="GUNDAN_OTTER_JEWELRY_GUNDAN_OTTER_JEWELRY_11_cls-4" d="M154,291.3a8.21,8.21,0,0,0-3.73-3h0" />
  <path class="GUNDAN_OTTER_JEWELRY_GUNDAN_OTTER_JEWELRY_11_cls-4" d="M147.67,287.29v0a3.61,3.61,0,0,0-1.54,2c-.43,1.75,1,3.8,3.19,5.74a5.78,5.78,0,0,0,4.56,1.65,3.16,3.16,0,0,0,1.71-.85,3.89,3.89,0,0,0,.38-.43" />
  <path class="GUNDAN_OTTER_JEWELRY_GUNDAN_OTTER_JEWELRY_11_cls-4" d="M156.6,293a6.41,6.41,0,0,0-1.62-3.58,9.84,9.84,0,0,0-5.3-3h0" />
  <path class="GUNDAN_OTTER_JEWELRY_GUNDAN_OTTER_JEWELRY_11_cls-4" d="M158.77,300.45a5.87,5.87,0,0,0-.43-1.35c-.12-.32-.3-.7-.51-1.15A12.2,12.2,0,0,0,156,295.4c-.63-.7-1.23-1.31-1.54-1.62l-.25-.23" />
  <path class="GUNDAN_OTTER_JEWELRY_GUNDAN_OTTER_JEWELRY_11_cls-4" d="M156.66,301s-1.41-2.43-2.78-4.29" />
  <path class="GUNDAN_OTTER_JEWELRY_GUNDAN_OTTER_JEWELRY_11_cls-4" d="M152.17,294.53h0c-.58-.85-.78-1.62-.26-2.28a2.49,2.49,0,0,1,2.08-.94,3.74,3.74,0,0,1,2.44,1.51c.05.06.12.12.18.2h0a26.51,26.51,0,0,1,3.81,5.37h0a3.62,3.62,0,0,1,.42,1.94h0a1.47,1.47,0,0,1-.37.83,2.22,2.22,0,0,1-2.24.86h0" />
  <path class="GUNDAN_OTTER_JEWELRY_GUNDAN_OTTER_JEWELRY_11_cls-4" d="M158.77,300.45a1.9,1.9,0,0,0-.52.9,1.73,1.73,0,0,0,0,.69,9.36,9.36,0,0,0,3.88,4.52,1.83,1.83,0,0,0,2,0,1.76,1.76,0,0,0,.5-.56" />
  <path class="GUNDAN_OTTER_JEWELRY_GUNDAN_OTTER_JEWELRY_11_cls-4" d="M164.48,303.86a8.32,8.32,0,0,0-3.65-3.52" />
  <path class="GUNDAN_OTTER_JEWELRY_GUNDAN_OTTER_JEWELRY_11_cls-4" d="M166.48,307.1a3.53,3.53,0,0,1-.9,1.14,3.3,3.3,0,0,1-.93.52c-1.55.57-3.58-.08-5.24-1.81-2-2.11-3.31-4.26-2.75-6a3.86,3.86,0,0,1,1.68-1.88h0" />
  <path class="GUNDAN_OTTER_JEWELRY_GUNDAN_OTTER_JEWELRY_11_cls-4" d="M166.78,304.85a7.15,7.15,0,0,0-1.3-3.05,9.84,9.84,0,0,0-5.07-3.41" />
  <path class="GUNDAN_OTTER_JEWELRY_GUNDAN_OTTER_JEWELRY_11_cls-4" d="M170.07,310.24c-.21-.28-.47-.59-.8-1a14.12,14.12,0,0,0-2.79-2.17c-.9-.57-1.67-1-1.85-1.08l0,0" />
  <path class="GUNDAN_OTTER_JEWELRY_GUNDAN_OTTER_JEWELRY_11_cls-4" d="M170.85,311.43a6,6,0,0,0-.78-1.18" />
  <path class="GUNDAN_OTTER_JEWELRY_GUNDAN_OTTER_JEWELRY_11_cls-4" d="M169,312.51a48.21,48.21,0,0,0-4.3-3.74" />
  <path class="GUNDAN_OTTER_JEWELRY_GUNDAN_OTTER_JEWELRY_11_cls-4" d="M162.1,306.56a1.29,1.29,0,0,1-.07-1.21,2.42,2.42,0,0,1,2.45-1.49,4.2,4.2,0,0,1,2.05.82l.25.17a40.39,40.39,0,0,1,5.1,4.15l.86,1.45c0,.1,0,.22.07.32a1.51,1.51,0,0,1-.14.91,2.19,2.19,0,0,1-1.94,1.42" />
  <path class="GUNDAN_OTTER_JEWELRY_GUNDAN_OTTER_JEWELRY_11_cls-4" d="M172.8,310.77h0a8.36,8.36,0,0,1,4.21,2.16" />
  <path class="GUNDAN_OTTER_JEWELRY_GUNDAN_OTTER_JEWELRY_11_cls-4" d="M178,315a1.76,1.76,0,0,1-.39.95,1.49,1.49,0,0,1-1.22.57h0c-2.06.1-5.29-2.48-5.67-3.37a1.54,1.54,0,0,1-.14-.66,1.73,1.73,0,0,1,.26-1" />
  <path class="GUNDAN_OTTER_JEWELRY_GUNDAN_OTTER_JEWELRY_11_cls-4" d="M171.87,309h0a9.77,9.77,0,0,1,5.78,1.93,7.14,7.14,0,0,1,2,2.48" />
  <path class="GUNDAN_OTTER_JEWELRY_GUNDAN_OTTER_JEWELRY_11_cls-4" d="M180,316.06a3.27,3.27,0,0,1-.5,1.05,3.17,3.17,0,0,1-.92.87s0,0,0,0c-1.34.81-3.38.68-5.35-.48-2.51-1.48-4.33-3.22-4.23-5a3.67,3.67,0,0,1,1.11-2.25h0" />
  <path class="GUNDAN_OTTER_JEWELRY_GUNDAN_OTTER_JEWELRY_11_cls-4" d="M178.12,315s.85.46,1.87,1.1a14.61,14.61,0,0,1,2.79,2.21c.32.38.59.7.78,1a6.4,6.4,0,0,1,.78,1.18" />
  <path class="GUNDAN_OTTER_JEWELRY_GUNDAN_OTTER_JEWELRY_11_cls-4" d="M182.44,321.49s-2.08-2.05-3.9-3.49" />
  <path class="GUNDAN_OTTER_JEWELRY_GUNDAN_OTTER_JEWELRY_11_cls-4" d="M184.2,322.1h0a2.24,2.24,0,0,0,2-1.4,1.66,1.66,0,0,0,.13-.91,3.76,3.76,0,0,0-.91-1.77v0a26.71,26.71,0,0,0-5.08-4.18h0l-.22-.16a3.6,3.6,0,0,0-.39-.25,3.38,3.38,0,0,0-2.35-.56l-.31.08a2.47,2.47,0,0,0-1.45,1.36c-.34.78.05,1.47.83,2.13h0" />
  <path class="GUNDAN_OTTER_JEWELRY_GUNDAN_OTTER_JEWELRY_11_cls-4" d="M184.34,320.44a1.72,1.72,0,0,0-.27,1,1.55,1.55,0,0,0,.14.67,9.35,9.35,0,0,0,4.93,3.35,1.79,1.79,0,0,0,2-.5,1.93,1.93,0,0,0,.35-.66" />
  <path class="GUNDAN_OTTER_JEWELRY_GUNDAN_OTTER_JEWELRY_11_cls-4" d="M190.73,322.23a8.33,8.33,0,0,0-4.43-2.44h0" />
  <path class="GUNDAN_OTTER_JEWELRY_GUNDAN_OTTER_JEWELRY_11_cls-4" d="M192.18,326.92c-1.36.95-3.5.86-5.54-.38-2.5-1.5-4.3-3.25-4.2-5h0a3.69,3.69,0,0,1,1.12-2.24h0" />
  <path class="GUNDAN_OTTER_JEWELRY_GUNDAN_OTTER_JEWELRY_11_cls-4" d="M193.51,324.84a3.42,3.42,0,0,1-.57,1.33,3.81,3.81,0,0,1-.75.75" />
  <path class="GUNDAN_OTTER_JEWELRY_GUNDAN_OTTER_JEWELRY_11_cls-4" d="M193.2,322.58a7,7,0,0,0-2-2.59,9.67,9.67,0,0,0-5.76-2h0" />
  <path class="GUNDAN_OTTER_JEWELRY_GUNDAN_OTTER_JEWELRY_11_cls-4" d="M198.85,327.87a6.36,6.36,0,0,0-1-.93c-.27-.21-.61-.45-1-.73a15.08,15.08,0,0,0-3.26-1.37c-1-.3-1.85-.51-2.06-.55l-.06,0" />
  <path class="GUNDAN_OTTER_JEWELRY_GUNDAN_OTTER_JEWELRY_11_cls-4" d="M197.31,329.41a51.69,51.69,0,0,0-5.12-2.49h0" />
  <path class="GUNDAN_OTTER_JEWELRY_GUNDAN_OTTER_JEWELRY_11_cls-4" d="M189.14,325.45a1.29,1.29,0,0,1-.39-1.14,2.44,2.44,0,0,1,2-2.08,4.41,4.41,0,0,1,2.2.26l.27.09h0a26.58,26.58,0,0,1,6,2.68,3.76,3.76,0,0,1,1.35,1.47,1.44,1.44,0,0,1,.12.91,2.2,2.2,0,0,1-1.51,1.87" />
  <path class="GUNDAN_OTTER_JEWELRY_GUNDAN_OTTER_JEWELRY_11_cls-4" d="M200.56,326.74c1.75-.37,7.13,1,6,3.68-1,2.37-6.65.05-7.41-.9a1.78,1.78,0,0,1-.3-.6,1.66,1.66,0,0,1,0-1" />
  <path class="GUNDAN_OTTER_JEWELRY_GUNDAN_OTTER_JEWELRY_11_cls-4" d="M199.2,325.28h0a9.82,9.82,0,0,1,6.1.36c2.93,1.31,4.08,3.53,3.36,5.48s-3.16,2.82-6,2-5-2-5.4-3.73h0a3.73,3.73,0,0,1,.49-2.47" />
  <path class="GUNDAN_OTTER_JEWELRY_GUNDAN_OTTER_JEWELRY_11_cls-4" d="M137.4,267.18h0c-2.12.71-2.62,4.09-2,6.05v0" />
  <path d="M292.81,287.6l-1.18-3.75a3.75,3.75,0,0,1,3.73,1" />
  <path class="GUNDAN_OTTER_JEWELRY_GUNDAN_OTTER_JEWELRY_11_cls-1" d="M292,293.32a1.49,1.49,0,0,0,.6.69,2.22,2.22,0,0,0,2.4.15,2.19,2.19,0,0,0-.23-.64,1.73,1.73,0,0,0-.78-.7h0a6.21,6.21,0,0,1,0-1.41,3.79,3.79,0,0,1,2.15,1.3s.26-1.1.63-2.46c0,0,0,0,0,0,.41-2-.44-5.32-2.63-5.8h0c-2.22-.53-1.18,2.85-1.23,3a11.78,11.78,0,0,0-1.11,3.91A3.69,3.69,0,0,0,292,293.32Z" />
  <path class="GUNDAN_OTTER_JEWELRY_GUNDAN_OTTER_JEWELRY_11_cls-2" d="M292,293.31a3.65,3.65,0,0,1-.18-2,10,10,0,0,0-3.84,4.77,7.09,7.09,0,0,0-.35,3.29c.08-.08.13-.17.19-.23a4.31,4.31,0,0,1,1.72-1.39A8.17,8.17,0,0,1,292,293.31Z" />
  <path class="GUNDAN_OTTER_JEWELRY_GUNDAN_OTTER_JEWELRY_11_cls-1" d="M296.12,292.7a3.76,3.76,0,0,0-2.15-1.3,6.1,6.1,0,0,0,0,1.4h0a1.75,1.75,0,0,1,.77.71,1.86,1.86,0,0,1,.24.64,9.41,9.41,0,0,1-2.38,5.46,1.85,1.85,0,0,1-1.93.63,2,2,0,0,1-.65-.39c-.15.15-.76.78-1.44,1.58a3.4,3.4,0,0,0,1.19.81,3.15,3.15,0,0,0,1,.24c1.65.08,3.4-1.15,4.47-3.28C296.57,296.6,297.16,294.16,296.12,292.7Z" />
  <path class="GUNDAN_OTTER_JEWELRY_GUNDAN_OTTER_JEWELRY_11_cls-1" d="M290.78,302.49a3.15,3.15,0,0,1-1-.24,3.4,3.4,0,0,1-1.19-.81h0a13.49,13.49,0,0,0-2,2.9c-.21.46-.36.85-.49,1.17a3.56,3.56,0,0,1,1.74,1.82h0A49,49,0,0,1,290.78,302.49Z" />
  <path class="GUNDAN_OTTER_JEWELRY_GUNDAN_OTTER_JEWELRY_11_cls-3" d="M290.64,300.25a1.85,1.85,0,0,0,1.93-.63,1.31,1.31,0,0,0-.29-1.17,2.42,2.42,0,0,0-2.78-.7,4.31,4.31,0,0,0-1.72,1.39c-.06.06-.11.15-.19.23h0a26.29,26.29,0,0,0-3.65,5.48,3.88,3.88,0,0,0-.37,1.95,1.55,1.55,0,0,0,.4.82,2.21,2.21,0,0,0,2.28.79,2,2,0,0,0-.06-.67,1.7,1.7,0,0,0-.55-.89h0a5.25,5.25,0,0,1,.38-1.34c.13-.32.28-.71.49-1.17a13.49,13.49,0,0,1,2-2.9h0c.68-.8,1.29-1.43,1.44-1.58A2,2,0,0,0,290.64,300.25Z" />
  <path class="GUNDAN_OTTER_JEWELRY_GUNDAN_OTTER_JEWELRY_11_cls-2" d="M274.32,319.85a3.52,3.52,0,0,1,.21-2h0a9.88,9.88,0,0,0-4.68,3.92,7.3,7.3,0,0,0-1,3.17,2.59,2.59,0,0,0,.23-.19,4.24,4.24,0,0,1,2-1A8.32,8.32,0,0,1,274.32,319.85Z" />
  <path class="GUNDAN_OTTER_JEWELRY_GUNDAN_OTTER_JEWELRY_11_cls-2" d="M280.18,310.15a8.12,8.12,0,0,1,3.39-3.34,3.88,3.88,0,0,1,.37-1.95,9.77,9.77,0,0,0-5,3.53,6.46,6.46,0,0,0-1.23,3.73c.06-.09.12-.16.15-.22A3.69,3.69,0,0,1,280.18,310.15Z" />
  <path class="GUNDAN_OTTER_JEWELRY_GUNDAN_OTTER_JEWELRY_11_cls-1" d="M280.85,315.49a5.71,5.71,0,0,0,4.35-2.12c1.95-2.16,3.18-4.35,2.57-6a3.56,3.56,0,0,0-1.74-1.82,5.25,5.25,0,0,0-.38,1.34h0a1.7,1.7,0,0,1,.55.89,2,2,0,0,1,.06.67,9.45,9.45,0,0,1-3.92,4.73,0,0,0,0,1,0,0,1.77,1.77,0,0,1-1.86,0,1.59,1.59,0,0,1-.48-.49c-.27.34-.81,1-1.36,1.78h0a3.89,3.89,0,0,0,.43.38A3.13,3.13,0,0,0,280.85,315.49Z" />
  <path class="GUNDAN_OTTER_JEWELRY_GUNDAN_OTTER_JEWELRY_11_cls-3" d="M282.32,313.16a0,0,0,0,0,0,0c.48-.9.6-1.69,0-2.29a2.45,2.45,0,0,0-2.16-.71,3.69,3.69,0,0,0-2.28,1.75c0,.06-.09.13-.15.22h0a26.48,26.48,0,0,0-3.22,5.74h0a3.52,3.52,0,0,0-.21,2h0a1.5,1.5,0,0,0,.45.79,2.25,2.25,0,0,0,2.32.62,1.6,1.6,0,0,0-.1-.68,1.88,1.88,0,0,0-.62-.84,6.62,6.62,0,0,1,.29-1.39c.09-.34.23-.73.39-1.2a12.5,12.5,0,0,1,1.57-2.73c.55-.76,1.09-1.44,1.36-1.78a1.59,1.59,0,0,0,.48.49A1.77,1.77,0,0,0,282.32,313.16Z" />
  <path class="GUNDAN_OTTER_JEWELRY_GUNDAN_OTTER_JEWELRY_11_cls-1" d="M278.62,314.43a12.5,12.5,0,0,0-1.57,2.73c-.16.47-.3.86-.39,1.2a3.77,3.77,0,0,1,1.87,1.69s1.15-2.56,2.32-4.56a3.13,3.13,0,0,1-1.79-.67,3.89,3.89,0,0,1-.43-.38Z" />
  <path class="GUNDAN_OTTER_JEWELRY_GUNDAN_OTTER_JEWELRY_11_cls-1" d="M277.09,321.27a9.37,9.37,0,0,1-3.38,4.91,1.85,1.85,0,0,1-2,.23,2,2,0,0,1-.56-.5c-.16.11-.89.6-1.72,1.26a3.61,3.61,0,0,0,1,1,3.13,3.13,0,0,0,1,.42c1.6.4,3.55-.45,5-2.35,1.79-2.31,2.84-4.58,2.1-6.23a3.77,3.77,0,0,0-1.87-1.69,6.62,6.62,0,0,0-.29,1.39,1.88,1.88,0,0,1,.62.84A1.6,1.6,0,0,1,277.09,321.27Z" />
  <path class="GUNDAN_OTTER_JEWELRY_GUNDAN_OTTER_JEWELRY_11_cls-4" d="M294,292.8a6.1,6.1,0,0,1,0-1.4c0-.34.07-.76.14-1.26a12.29,12.29,0,0,1,.92-2.77" />
  <path class="GUNDAN_OTTER_JEWELRY_GUNDAN_OTTER_JEWELRY_11_cls-4" d="M296.12,292.7s.26-1.1.64-2.46c0,0,0,0,0,0" />
  <path class="GUNDAN_OTTER_JEWELRY_GUNDAN_OTTER_JEWELRY_11_cls-4" d="M294.13,284.41l-2-.27c-.06.12.9,3.21.85,3.35a9.8,9.8,0,0,0-1.2,3.83,3.67,3.67,0,0,0,.17,2,1.49,1.49,0,0,0,.6.69,2.22,2.22,0,0,0,2.4.15" />
  <path class="GUNDAN_OTTER_JEWELRY_GUNDAN_OTTER_JEWELRY_11_cls-4" d="M293.94,292.81a1.75,1.75,0,0,1,.77.71,1.86,1.86,0,0,1,.24.64,9.41,9.41,0,0,1-2.38,5.46,1.85,1.85,0,0,1-1.93.63,2,2,0,0,1-.65-.39" />
  <path class="GUNDAN_OTTER_JEWELRY_GUNDAN_OTTER_JEWELRY_11_cls-4" d="M289.5,297.75a8.17,8.17,0,0,1,2.46-4.44" />
  <path class="GUNDAN_OTTER_JEWELRY_GUNDAN_OTTER_JEWELRY_11_cls-4" d="M288.55,301.44a3.4,3.4,0,0,0,1.19.81,3.15,3.15,0,0,0,1,.24c1.65.08,3.4-1.15,4.47-3.28,1.32-2.61,1.91-5,.87-6.51a3.76,3.76,0,0,0-2.15-1.3h0" />
  <path class="GUNDAN_OTTER_JEWELRY_GUNDAN_OTTER_JEWELRY_11_cls-4" d="M287.59,299.37a7.09,7.09,0,0,1,.35-3.29,10,10,0,0,1,3.84-4.77" />
  <path class="GUNDAN_OTTER_JEWELRY_GUNDAN_OTTER_JEWELRY_11_cls-4" d="M285.65,306.85a5.25,5.25,0,0,1,.38-1.34c.13-.32.28-.71.49-1.17a13.49,13.49,0,0,1,2-2.9h0c.68-.8,1.29-1.43,1.44-1.58l0,0" />
  <path class="GUNDAN_OTTER_JEWELRY_GUNDAN_OTTER_JEWELRY_11_cls-4" d="M287.78,307.33a49,49,0,0,1,3-4.84" />
  <path class="GUNDAN_OTTER_JEWELRY_GUNDAN_OTTER_JEWELRY_11_cls-4" d="M292.57,299.62a1.31,1.31,0,0,0-.29-1.17,2.42,2.42,0,0,0-2.78-.7,4.31,4.31,0,0,0-1.72,1.39c-.06.06-.11.15-.19.23h0a26.29,26.29,0,0,0-3.65,5.48,3.88,3.88,0,0,0-.37,1.95,1.55,1.55,0,0,0,.4.82,2.21,2.21,0,0,0,2.28.79" />
  <path class="GUNDAN_OTTER_JEWELRY_GUNDAN_OTTER_JEWELRY_11_cls-4" d="M282.32,313.16a1.77,1.77,0,0,1-1.86,0,1.59,1.59,0,0,1-.48-.49" />
  <path class="GUNDAN_OTTER_JEWELRY_GUNDAN_OTTER_JEWELRY_11_cls-4" d="M285.64,306.86a1.7,1.7,0,0,1,.55.89,2,2,0,0,1,.06.67,9.45,9.45,0,0,1-3.92,4.73" />
  <path class="GUNDAN_OTTER_JEWELRY_GUNDAN_OTTER_JEWELRY_11_cls-4" d="M280.18,310.15a8.12,8.12,0,0,1,3.39-3.34h0" />
  <path class="GUNDAN_OTTER_JEWELRY_GUNDAN_OTTER_JEWELRY_11_cls-4" d="M286,305.49v0a3.56,3.56,0,0,1,1.74,1.82c.61,1.69-.62,3.88-2.57,6a5.71,5.71,0,0,1-4.35,2.12,3.13,3.13,0,0,1-1.79-.67,3.89,3.89,0,0,1-.43-.38" />
  <path class="GUNDAN_OTTER_JEWELRY_GUNDAN_OTTER_JEWELRY_11_cls-4" d="M277.75,312.12a6.46,6.46,0,0,1,1.23-3.73,9.77,9.77,0,0,1,5-3.53h0" />
  <path class="GUNDAN_OTTER_JEWELRY_GUNDAN_OTTER_JEWELRY_11_cls-4" d="M276.37,319.75a6.62,6.62,0,0,1,.29-1.39c.09-.34.23-.73.39-1.2a12.5,12.5,0,0,1,1.57-2.73c.55-.76,1.09-1.44,1.36-1.78l.22-.25" />
  <path class="GUNDAN_OTTER_JEWELRY_GUNDAN_OTTER_JEWELRY_11_cls-4" d="M278.53,320.05s1.15-2.56,2.32-4.56" />
  <path class="GUNDAN_OTTER_JEWELRY_GUNDAN_OTTER_JEWELRY_11_cls-4" d="M282.32,313.16a0,0,0,0,0,0,0c.48-.9.6-1.69,0-2.29a2.45,2.45,0,0,0-2.16-.71,3.69,3.69,0,0,0-2.28,1.75c0,.06-.09.13-.15.22h0a26.48,26.48,0,0,0-3.22,5.74h0a3.52,3.52,0,0,0-.21,2h0a1.5,1.5,0,0,0,.45.79,2.25,2.25,0,0,0,2.32.62h0" />
  <path class="GUNDAN_OTTER_JEWELRY_GUNDAN_OTTER_JEWELRY_11_cls-4" d="M276.37,319.75a1.88,1.88,0,0,1,.62.84,1.6,1.6,0,0,1,.1.68,9.37,9.37,0,0,1-3.38,4.91,1.85,1.85,0,0,1-2,.23,2,2,0,0,1-.56-.5" />
  <path class="GUNDAN_OTTER_JEWELRY_GUNDAN_OTTER_JEWELRY_11_cls-4" d="M271.06,323.74a8.32,8.32,0,0,1,3.26-3.89" />
  <path class="GUNDAN_OTTER_JEWELRY_GUNDAN_OTTER_JEWELRY_11_cls-4" d="M269.41,327.17a3.61,3.61,0,0,0,1,1,3.13,3.13,0,0,0,1,.42c1.6.4,3.55-.45,5-2.35,1.79-2.31,2.84-4.58,2.1-6.23a3.77,3.77,0,0,0-1.87-1.69h0" />
  <path class="GUNDAN_OTTER_JEWELRY_GUNDAN_OTTER_JEWELRY_11_cls-4" d="M268.87,325a7.3,7.3,0,0,1,1-3.17,9.88,9.88,0,0,1,4.68-3.92" />
  <path class="GUNDAN_OTTER_JEWELRY_GUNDAN_OTTER_JEWELRY_11_cls-4" d="M294.12,284.41h0c2.19.48,3,3.79,2.63,5.8,0,0,0,0,0,0" />
  <polygon points="243.34 361.6 236.7 361.95 236.2 361.98 229.55 362.33 221.29 371.08 222.57 395.46 231.14 403.9 239.97 403.44 242.25 403.31 246.15 403.11 253.78 393.81 252.49 369.44 243.34 361.6" />
  <path class="GUNDAN_OTTER_JEWELRY_GUNDAN_OTTER_JEWELRY_11_cls-5" d="M274.71,330.74a5.57,5.57,0,0,0,.57,1.54s-2.86-.68-4.31,1.48c-.21-2.62-5-7.68-13-11.07C270.6,321.91,274,328,274.71,330.74Z" />
  <path class="GUNDAN_OTTER_JEWELRY_GUNDAN_OTTER_JEWELRY_11_cls-5" d="M241.07,331.93s4.18,2.52,5.8.77,7.66-8.79,7.66-8.79,8.43,3,11.52,7.48a14.66,14.66,0,0,0,3.11,3.52s-10.77.93-13.4,8.08c-8.24-.51-11.2,2.69-13.13,5.57a5.08,5.08,0,0,0-.81-2.39C236.78,337.13,241.07,331.93,241.07,331.93Z" />
  <path class="GUNDAN_OTTER_JEWELRY_GUNDAN_OTTER_JEWELRY_11_cls-2" d="M236.85,355.21a4.91,4.91,0,0,0,2.81-5,5.67,5.67,0,0,0-.38-1.82,3.49,3.49,0,0,0,1,.91,2.89,2.89,0,0,0,1.26.4l0,.41c.19,3.57-1.79,6.65-4.57,7.39h0l-.12-2.3v0Z" />
  <path class="GUNDAN_OTTER_JEWELRY_GUNDAN_OTTER_JEWELRY_11_cls-3" d="M236.82,355.21v0l.12,2.3.29,5.54a1,1,0,0,1-2.08.11l-.3-5.54-.12-2.3v0a1,1,0,0,1,2.08-.11Z" />
  <path class="GUNDAN_OTTER_JEWELRY_GUNDAN_OTTER_JEWELRY_11_cls-2" d="M236.55,343.33a35.2,35.2,0,0,0,1.59,3.33,3.7,3.7,0,0,0-2.85-1.17h0a3.73,3.73,0,0,0-2.7,1.46c.45-1.08.87-2.31,1.24-3.47a4.68,4.68,0,0,1,1.34-.26h0a4.79,4.79,0,0,1,1.37.11Z" />
  <path class="GUNDAN_OTTER_JEWELRY_GUNDAN_OTTER_JEWELRY_11_cls-5" d="M238.64,324.05a3.36,3.36,0,0,1-1.52,2.92,5.57,5.57,0,0,1-2.77.79h0a5.51,5.51,0,0,1-2.84-.49,3.36,3.36,0,0,1-1.81-2.75s-1.52-2.51-.69-3.68a1,1,0,0,1,.32-.31c1.74-1.12,2.92,2.28,2.92,2.28l1.82-.28h0l1.84.08s.82-3.5,2.67-2.57C240.16,320.82,238.64,324.05,238.64,324.05Z" />
  <path class="GUNDAN_OTTER_JEWELRY_GUNDAN_OTTER_JEWELRY_11_cls-2" d="M229.53,350.38a3.07,3.07,0,0,0,1.22-.54,3.55,3.55,0,0,0,.86-1,5.85,5.85,0,0,0-.19,1.84,4.9,4.9,0,0,0,3.32,4.64v0l.12,2.3c-2.84-.45-5.13-3.3-5.32-6.87C229.54,350.65,229.53,350.51,229.53,350.38Z" />
  <path class="GUNDAN_OTTER_JEWELRY_GUNDAN_OTTER_JEWELRY_11_cls-5" d="M228.84,346.86a5,5,0,0,0-.54,2.46c-2.22-2.66-5.49-5.51-13.58-4.17h-.07a9.15,9.15,0,0,0-1-1.59,10.82,10.82,0,0,0-3.43-2.79,19.06,19.06,0,0,0-5.72-1.88,23.8,23.8,0,0,0-4-.36,14.8,14.8,0,0,0,2.71-3.83c2.6-4.82,10.67-8.65,10.67-8.65l.74.69,3.79,3.54c.53.5,1.05,1,1.55,1.44l2,1.86.44.4c1.79,1.57,5.68-1.38,5.68-1.38S232.91,337.33,228.84,346.86Z" />
  <path class="GUNDAN_OTTER_JEWELRY_GUNDAN_OTTER_JEWELRY_11_cls-3" d="M214.6,326.75a19.68,19.68,0,0,0-10.11,12.15,23.8,23.8,0,0,0-4-.36,14.8,14.8,0,0,0,2.71-3.83c2.6-4.82,10.67-8.65,10.67-8.65Z" />
  <path class="GUNDAN_OTTER_JEWELRY_GUNDAN_OTTER_JEWELRY_11_cls-3" d="M228.84,346.86a5,5,0,0,0-.54,2.46,15.62,15.62,0,0,0-1.75-1.82c-2.23-1.93-5.6-3.38-11.83-2.35A26.92,26.92,0,0,0,222,333.59l.44.4c1,.87,2.62.36,3.88-.28a12.86,12.86,0,0,0,1.8-1.1S232.91,337.33,228.84,346.86Z" />
  <path class="GUNDAN_OTTER_JEWELRY_GUNDAN_OTTER_JEWELRY_11_cls-5" d="M210.29,325.21c-7.6,4.22-11.8,9.75-11.74,12.38a3.47,3.47,0,0,0-2.25-1.22,5.51,5.51,0,0,0-2.18.19,5.33,5.33,0,0,0,.4-1.58C194.89,332.14,197.67,325.77,210.29,325.21Z" />
  <path class="GUNDAN_OTTER_JEWELRY_GUNDAN_OTTER_JEWELRY_11_cls-2" d="M210.29,325.21c-11.08,2.78-13.48,8.45-14,11.16a5.51,5.51,0,0,0-2.18.19,5.33,5.33,0,0,0,.4-1.58C194.89,332.14,197.67,325.77,210.29,325.21Z" />
  <path class="GUNDAN_OTTER_JEWELRY_GUNDAN_OTTER_JEWELRY_11_cls-2" d="M219.94,331.73a31.28,31.28,0,0,1-6.3,11.84,10.82,10.82,0,0,0-3.43-2.79,43.42,43.42,0,0,0,8.18-10.49C218.92,330.79,219.44,331.28,219.94,331.73Z" />
  <path class="GUNDAN_OTTER_JEWELRY_GUNDAN_OTTER_JEWELRY_11_cls-5" d="M277,332c-.41.9-1.13,1.34-1.75.33a5.57,5.57,0,0,1-.57-1.54c-.67-2.78-4.11-8.83-16.72-8.05,8,3.39,12.77,8.45,13,11.07.13,1.59-.56,2-1.81,1.15a14.66,14.66,0,0,1-3.11-3.52c-3.09-4.52-11.52-7.48-11.52-7.48s-6.05,7-7.66,8.79-5.8-.77-5.8-.77-4.29,5.2.75,14.24a5.08,5.08,0,0,1,.81,2.39c0,.77-.42,1.21-1.12,1.18a2.89,2.89,0,0,1-1.26-.4,3.49,3.49,0,0,1-1-.91,13.61,13.61,0,0,1-1.14-1.77,35.2,35.2,0,0,1-1.59-3.33c-.93-2.14-1.59-4-1.59-4h0s-.46,1.94-1.14,4.18c-.37,1.16-.79,2.39-1.24,3.47a13.82,13.82,0,0,1-.95,1.89,3.55,3.55,0,0,1-.86,1,3.07,3.07,0,0,1-1.22.54,1.27,1.27,0,0,1-.56,0,1.11,1.11,0,0,1-.67-1,5,5,0,0,1,.54-2.46c4.07-9.53-.75-14.25-.75-14.25a12.86,12.86,0,0,1-1.8,1.1c-1.26.64-2.89,1.15-3.88.28-1.79-1.58-8.55-7.93-8.55-7.93s-8.07,3.83-10.67,8.65a14.8,14.8,0,0,1-2.71,3.83h0c-1.15,1-1.88.64-1.92-1-.06-2.63,4.14-8.16,11.74-12.38-12.62.56-15.4,6.93-15.77,9.77a5.33,5.33,0,0,1-.4,1.58h0c-.28.59-.65.75-1,.62a1.66,1.66,0,0,1-.78-.76,12.23,12.23,0,0,1,3.55-9.35c5.35-5.24,14.92-5.65,17.15-4.88s8.28,6.78,10.95,8.29l.48.24a2.39,2.39,0,0,0,1.2.08c2.44-.39,5.82-3.53,5.82-3.53h0a5.51,5.51,0,0,0,2.84.49h0a5.57,5.57,0,0,0,2.77-.79h0s5.15,3.84,7.34,2.69S252.81,321,255,320s11.7-1.61,17.57,3A12.21,12.21,0,0,1,277,332Z" />
  <path class="GUNDAN_OTTER_JEWELRY_GUNDAN_OTTER_JEWELRY_11_cls-2" d="M234.31,327l0,.78.16,3c-2.38.13-3.52-1.69-3.84.2s.33,1.27,1.39,7.3S229.2,350,229.2,350l-.23.3a1.11,1.11,0,0,1-.67-1,5,5,0,0,1,.54-2.46c4.07-9.53-.75-14.25-.75-14.25a12.86,12.86,0,0,1-1.8,1.1,6.73,6.73,0,0,0-.41-.83l-.22-2.07c2.44-.39,5.82-3.53,5.82-3.53h0a3.36,3.36,0,0,1-1.81-2.75s-1.52-2.51-.69-3.68h.85s-.81,1.44.87,3.1C231,327,234.31,327,234.31,327Z" />
  <path class="GUNDAN_OTTER_JEWELRY_GUNDAN_OTTER_JEWELRY_11_cls-2" d="M234.2,327l0,.78.16,3c2.38-.13,3.33-2,3.84-.21s-.2,1.29-.62,7.4,4.09,11.41,4.09,11.41l.26.27a1.1,1.1,0,0,0,.56-1.09,5,5,0,0,0-.8-2.38c-5-9.05-.75-14.25-.75-14.25a13.38,13.38,0,0,0,1.9.91,7.21,7.21,0,0,1,.33-.88v-2.07C240.74,329.75,237,327,237,327h0a3.39,3.39,0,0,0,1.51-2.93s1.24-2.65.3-3.73l-.85.09s1,1.35-.54,3.17C237.47,326.66,234.2,327,234.2,327Z" />
  <path class="GUNDAN_OTTER_JEWELRY_GUNDAN_OTTER_JEWELRY_11_cls-6" d="M224.34,331.13a48.23,48.23,0,0,1-8.93-5.8c-2.94-2.6-4.25-2-4.25-2-4.44-.29-12,1.81-15.08,5.48a13.2,13.2,0,0,0-2.73,8.37l-.24,0a1.66,1.66,0,0,1-.78-.76,12.23,12.23,0,0,1,3.55-9.35c5.35-5.24,14.92-5.65,17.15-4.88s8.28,6.78,10.95,8.29C224.27,330.9,224.41,331.14,224.34,331.13Z" />
  <path class="GUNDAN_OTTER_JEWELRY_GUNDAN_OTTER_JEWELRY_11_cls-3" d="M253.86,324.68a19.65,19.65,0,0,1,11.33,11,23.27,23.27,0,0,1,4-.78,14.88,14.88,0,0,1-3.1-3.52c-3.1-4.52-11.53-7.48-11.53-7.48Z" />
  <path class="GUNDAN_OTTER_JEWELRY_GUNDAN_OTTER_JEWELRY_11_cls-3" d="M241.82,346.17a5.16,5.16,0,0,1,.8,2.39c1.92-2.87,4.87-6.06,13.06-5.57a26.9,26.9,0,0,1-8.42-10.74l-.4.45c-1.62,1.75-5.8-.77-5.8-.77S236.77,337.13,241.82,346.17Z" />
  <path class="GUNDAN_OTTER_JEWELRY_GUNDAN_OTTER_JEWELRY_11_cls-2" d="M258,322.69c11.31,1.6,14.3,7,15.1,9.62a5.28,5.28,0,0,1,2.18,0,5.52,5.52,0,0,1-.56-1.53C274,328,270.59,321.91,258,322.69Z" />
  <path class="GUNDAN_OTTER_JEWELRY_GUNDAN_OTTER_JEWELRY_11_cls-2" d="M249.08,330.19a31.35,31.35,0,0,0,7.51,11.11,10.86,10.86,0,0,1,3.12-3.14,43.11,43.11,0,0,1-9.25-9.56Z" />
  <path class="GUNDAN_OTTER_JEWELRY_GUNDAN_OTTER_JEWELRY_11_cls-6" d="M244.63,330.05a47.85,47.85,0,0,0,8.27-6.7c2.66-2.9,4-2.47,4-2.47,4.39-.76,12.16.53,15.57,3.86a13.15,13.15,0,0,1,3.6,8h.24a1.68,1.68,0,0,0,.7-.84,12.25,12.25,0,0,0-4.52-8.92c-5.87-4.65-15.43-4-17.57-3s-7.52,7.61-10,9.39C244.69,329.82,244.57,330.07,244.63,330.05Z" />
  <path class="GUNDAN_OTTER_JEWELRY_GUNDAN_OTTER_JEWELRY_11_cls-7" d="M194.12,336.57c-.51,1.07-1.29.71-1.79-.14a12.23,12.23,0,0,1,3.55-9.35c5.35-5.24,14.92-5.65,17.15-4.88s9.12,7.61,11.44,8.53,7-3.45,7-3.45" />
  <path class="GUNDAN_OTTER_JEWELRY_GUNDAN_OTTER_JEWELRY_11_cls-7" d="M200.47,338.54c-1.15,1-1.88.64-1.92-1-.06-2.63,4.14-8.16,11.74-12.38-12.62.56-15.4,6.93-15.77,9.77a5.33,5.33,0,0,1-.4,1.58" />
  <path class="GUNDAN_OTTER_JEWELRY_GUNDAN_OTTER_JEWELRY_11_cls-7" d="M234.94,339.3s-.46,1.94-1.14,4.18c-.37,1.16-.79,2.39-1.24,3.47a13.82,13.82,0,0,1-.95,1.89,3.55,3.55,0,0,1-.86,1,3.07,3.07,0,0,1-1.22.54,1,1,0,0,1-1.23-1.06,5,5,0,0,1,.54-2.46c4.07-9.53-.75-14.25-.75-14.25s-3.89,2.95-5.68,1.38-8.55-7.93-8.55-7.93-8.07,3.83-10.67,8.65a14.8,14.8,0,0,1-2.71,3.83" />
  <path class="GUNDAN_OTTER_JEWELRY_GUNDAN_OTTER_JEWELRY_11_cls-7" d="M234.05,322.53l-1.82.28s-1.18-3.4-2.92-2.28c-1.48.94.37,4,.37,4a3.36,3.36,0,0,0,1.81,2.75,5.51,5.51,0,0,0,2.84.49" />
  <path class="GUNDAN_OTTER_JEWELRY_GUNDAN_OTTER_JEWELRY_11_cls-7" d="M194.11,336.57h0c.23-.07,2.84-.88,4.43,1" />
  <path class="GUNDAN_OTTER_JEWELRY_GUNDAN_OTTER_JEWELRY_11_cls-7" d="M200.47,338.54h0c.33,0,10.85-.11,14.17,6.62,8.14-1.37,11.43,1.5,13.65,4.16l0,0" />
  <path class="GUNDAN_OTTER_JEWELRY_GUNDAN_OTTER_JEWELRY_11_cls-7" d="M235.14,343.22a4.68,4.68,0,0,0-1.34.26" />
  <path class="GUNDAN_OTTER_JEWELRY_GUNDAN_OTTER_JEWELRY_11_cls-7" d="M234.86,357.65c-2.84-.45-5.13-3.3-5.32-6.87,0-.13,0-.27,0-.4" />
  <path class="GUNDAN_OTTER_JEWELRY_GUNDAN_OTTER_JEWELRY_11_cls-7" d="M235.26,345.49a3.73,3.73,0,0,0-2.7,1.46" />
  <path class="GUNDAN_OTTER_JEWELRY_GUNDAN_OTTER_JEWELRY_11_cls-7" d="M231.61,348.84a5.85,5.85,0,0,0-.19,1.84,4.9,4.9,0,0,0,3.32,4.64" />
  <path class="GUNDAN_OTTER_JEWELRY_GUNDAN_OTTER_JEWELRY_11_cls-7" d="M235,339.3s.66,1.89,1.59,4a35.2,35.2,0,0,0,1.59,3.33,13.61,13.61,0,0,0,1.14,1.77,3.49,3.49,0,0,0,1,.91,2.89,2.89,0,0,0,1.26.4c.7,0,1.12-.41,1.12-1.18a5.08,5.08,0,0,0-.81-2.39c-5-9-.75-14.24-.75-14.24s4.18,2.52,5.8.77,7.66-8.79,7.66-8.79,8.43,3,11.52,7.48a14.66,14.66,0,0,0,3.11,3.52c1.25.89,1.94.44,1.81-1.15-.21-2.62-5-7.68-13-11.07,12.61-.78,16.05,5.27,16.72,8.05a5.57,5.57,0,0,0,.57,1.54c.62,1,1.34.57,1.75-.33a12.21,12.21,0,0,0-4.51-8.92c-5.87-4.65-15.44-4-17.57-3s-8.27,8.53-10.48,9.68-7.34-2.69-7.34-2.69" />
  <path class="GUNDAN_OTTER_JEWELRY_GUNDAN_OTTER_JEWELRY_11_cls-7" d="M234.08,322.53l1.84.08s.82-3.5,2.66-2.57c1.58.78.06,4,.06,4a3.36,3.36,0,0,1-1.52,2.92,5.57,5.57,0,0,1-2.77.79" />
  <path class="GUNDAN_OTTER_JEWELRY_GUNDAN_OTTER_JEWELRY_11_cls-7" d="M275.28,332.28s-2.86-.68-4.31,1.48" />
  <path class="GUNDAN_OTTER_JEWELRY_GUNDAN_OTTER_JEWELRY_11_cls-7" d="M269.16,334.91s-10.77.93-13.4,8.08c-8.24-.51-11.2,2.69-13.13,5.57l0,0" />
  <path class="GUNDAN_OTTER_JEWELRY_GUNDAN_OTTER_JEWELRY_11_cls-7" d="M235.17,343.22a4.79,4.79,0,0,1,1.37.11" />
  <path class="GUNDAN_OTTER_JEWELRY_GUNDAN_OTTER_JEWELRY_11_cls-7" d="M237,357.54c2.78-.74,4.76-3.82,4.57-7.39l0-.41" />
  <path class="GUNDAN_OTTER_JEWELRY_GUNDAN_OTTER_JEWELRY_11_cls-7" d="M235.29,345.49a3.7,3.7,0,0,1,2.85,1.17" />
  <path class="GUNDAN_OTTER_JEWELRY_GUNDAN_OTTER_JEWELRY_11_cls-7" d="M236.85,355.21a4.91,4.91,0,0,0,2.81-5,5.67,5.67,0,0,0-.38-1.82" />
  <path class="GUNDAN_OTTER_JEWELRY_GUNDAN_OTTER_JEWELRY_11_cls-7" d="M237,357.54l.29,5.54a1,1,0,0,1-2.08.11l-.3-5.54-.12-2.3v0a1,1,0,0,1,2.08-.11v0Z" />
  <polygon class="GUNDAN_OTTER_JEWELRY_GUNDAN_OTTER_JEWELRY_11_cls-8" points="243.73 371.09 247.4 371.81 246.81 374.13 245.72 378.43 244.03 372.21 243.73 371.09" />
  <polygon class="GUNDAN_OTTER_JEWELRY_GUNDAN_OTTER_JEWELRY_11_cls-8" points="244.84 400.36 244.84 400.39 250.95 393.24 249.36 393.32 244.38 398.48 244.84 400.36" />
  <polygon class="GUNDAN_OTTER_JEWELRY_GUNDAN_OTTER_JEWELRY_11_cls-9" points="243.43 397.67 243.73 395.14 240.65 396.56 243.43 397.67" />
  <polygon class="GUNDAN_OTTER_JEWELRY_GUNDAN_OTTER_JEWELRY_11_cls-8" points="245.74 388.53 244.92 393.66 246.66 393.13 248.5 392.56 247.64 390.24 246.12 386.15 245.74 388.53" />
  <polygon class="GUNDAN_OTTER_JEWELRY_GUNDAN_OTTER_JEWELRY_11_cls-10" points="244.49 390.13 245.44 384.21 245.24 380.44 243.69 374.71 242.64 370.84 237.9 369.23 235.77 369.35 231.22 371.44 229.65 381.26 229.85 385.03 232.45 394.63 237.19 396.23 239.32 396.12 243.87 394.03 244.49 390.13" />
  <polygon class="GUNDAN_OTTER_JEWELRY_GUNDAN_OTTER_JEWELRY_11_cls-9" points="228.67 381.33 226.62 375.8 227.41 390.78 228.87 385.06 228.67 381.33" />
  <polygon class="GUNDAN_OTTER_JEWELRY_GUNDAN_OTTER_JEWELRY_11_cls-10" points="246.42 384.13 248.47 389.67 247.68 374.69 246.22 380.4 246.42 384.13" />
  <polygon class="GUNDAN_OTTER_JEWELRY_GUNDAN_OTTER_JEWELRY_11_cls-9" points="230.59 368.5 227.6 371.6 230.33 370.76 230.59 368.5" />
  <polygon class="GUNDAN_OTTER_JEWELRY_GUNDAN_OTTER_JEWELRY_11_cls-9" points="241.82 367.26 239.18 368.66 242.38 369.74 241.82 367.26" />
  <polygon class="GUNDAN_OTTER_JEWELRY_GUNDAN_OTTER_JEWELRY_11_cls-9" points="231.37 370.32 234.44 368.91 231.66 367.8 231.37 370.32" />
  <polygon class="GUNDAN_OTTER_JEWELRY_GUNDAN_OTTER_JEWELRY_11_cls-10" points="242.02 363.91 231.11 364.48 231.3 365.25 231.63 366.63 241.73 366.09 242.02 363.91" />
  <polygon class="GUNDAN_OTTER_JEWELRY_GUNDAN_OTTER_JEWELRY_11_cls-10" points="230.25 365.06 223.97 372.24 225.74 372.14 230.71 366.99 230.25 365.06" />
  <polygon class="GUNDAN_OTTER_JEWELRY_GUNDAN_OTTER_JEWELRY_11_cls-9" points="248.17 370.96 249.94 370.86 242.94 364.39 242.72 366.08 242.68 366.35 248.17 370.96" />
  <rect class="GUNDAN_OTTER_JEWELRY_GUNDAN_OTTER_JEWELRY_11_cls-10" x="224.28" y="373.14" width="1.75" height="20.5" transform="translate(-19.92 12.42) rotate(-3.03)" />
  <rect class="GUNDAN_OTTER_JEWELRY_GUNDAN_OTTER_JEWELRY_11_cls-10" x="249.06" y="371.83" width="1.76" height="20.5" transform="translate(-19.82 13.73) rotate(-3.03)" />
  <polygon class="GUNDAN_OTTER_JEWELRY_GUNDAN_OTTER_JEWELRY_11_cls-8" points="226.59 372.91 228.97 379.32 230.17 371.81 226.59 372.91" />
  <polygon class="GUNDAN_OTTER_JEWELRY_GUNDAN_OTTER_JEWELRY_11_cls-8" points="237.83 368.29 240.02 367.13 233.44 367.48 235.74 368.4 237.83 368.29" />
  <polygon class="GUNDAN_OTTER_JEWELRY_GUNDAN_OTTER_JEWELRY_11_cls-9" points="247.49 393.86 244.77 394.7 244.58 396.28 244.5 396.97 247.49 393.86" />
  <polygon class="GUNDAN_OTTER_JEWELRY_GUNDAN_OTTER_JEWELRY_11_cls-8" points="227.69 393.66 229.47 394.01 231.36 394.38 229.38 387.04 227.69 393.66" />
  <polygon class="GUNDAN_OTTER_JEWELRY_GUNDAN_OTTER_JEWELRY_11_cls-8" points="243.18 368.81 243.47 370.07 246.26 370.62 245.75 370.18 242.96 367.85 243.18 368.81" />
  <polygon class="GUNDAN_OTTER_JEWELRY_GUNDAN_OTTER_JEWELRY_11_cls-9" points="233.27 398.2 235.92 396.81 232.71 395.73 233.27 398.2" />
  <polygon class="GUNDAN_OTTER_JEWELRY_GUNDAN_OTTER_JEWELRY_11_cls-8" points="233.37 399.38 233.18 400.78 233.07 401.56 243.98 400.99 243.46 398.84 233.37 399.38" />
  <polygon class="GUNDAN_OTTER_JEWELRY_GUNDAN_OTTER_JEWELRY_11_cls-9" points="232.4 399.23 232.41 399.12 226.92 394.51 225.32 394.6 232.15 401.06 232.4 399.23" />
  <polygon class="GUNDAN_OTTER_JEWELRY_GUNDAN_OTTER_JEWELRY_11_cls-8" points="237.26 397.18 235.07 398.33 241.65 397.99 239.35 397.07 237.26 397.18" />
  <polygon class="GUNDAN_OTTER_JEWELRY_GUNDAN_OTTER_JEWELRY_11_cls-9" points="231.91 396.66 231.63 395.4 228.83 394.85 229.25 395.2 232.13 397.62 231.91 396.66" />
</svg>