<svg id="Jewelry_Front" data-name="Jewelry Front" xmlns="http://www.w3.org/2000/svg" viewBox="0 0 432 432">
  <defs>
    <style>.GUNDAN_OTTER_JEWELRY_GUNDAN_OTTER_JEWELRY_2_cls-1{fill:#ee3742;}.GUNDAN_OTTER_JEWELRY_GUNDAN_OTTER_JEWELRY_2_cls-2{fill:#f493a2;}.GUNDAN_OTTER_JEWELRY_GUNDAN_OTTER_JEWELRY_2_cls-3{fill:#b32126;}.GUNDAN_OTTER_JEWELRY_GUNDAN_OTTER_JEWELRY_2_cls-4{fill:#ed9547;}.GUNDAN_OTTER_JEWELRY_GUNDAN_OTTER_JEWELRY_2_cls-5{fill:#facf56;}.GUNDAN_OTTER_JEWELRY_GUNDAN_OTTER_JEWELRY_2_cls-6,.GUNDAN_OTTER_JEWELRY_GUNDAN_OTTER_JEWELRY_2_cls-7,.GUNDAN_OTTER_JEWELRY_GUNDAN_OTTER_JEWELRY_2_cls-8{fill:none;stroke:#000;stroke-miterlimit:10;}.GUNDAN_OTTER_JEWELRY_GUNDAN_OTTER_JEWELRY_2_cls-6,.GUNDAN_OTTER_JEWELRY_GUNDAN_OTTER_JEWELRY_2_cls-7{stroke-width:0.9px;}.GUNDAN_OTTER_JEWELRY_GUNDAN_OTTER_JEWELRY_2_cls-7,.GUNDAN_OTTER_JEWELRY_GUNDAN_OTTER_JEWELRY_2_cls-8{stroke-linecap:round;}.GUNDAN_OTTER_JEWELRY_GUNDAN_OTTER_JEWELRY_2_cls-8{stroke-width:0.67px;}</style>
  </defs>
  <path class="GUNDAN_OTTER_JEWELRY_GUNDAN_OTTER_JEWELRY_2_cls-1" d="M140.74,187.09a19.18,19.18,0,0,0,6.69,6.49l.46-.27a19.67,19.67,0,0,0,5.78-5.54,6,6,0,0,0,.43-.68,73.72,73.72,0,0,0-6.67-14c-.64,1.07-1.35,2.3-2.1,3.67-.62,1.14-1.25,2.38-1.87,3.69A62.22,62.22,0,0,0,140.74,187.09Z" />
  <path class="GUNDAN_OTTER_JEWELRY_GUNDAN_OTTER_JEWELRY_2_cls-2" d="M145.33,177.39c4.31,3.54,7.62,9.61,8.34,11a7,7,0,0,0,.43-.68,73.13,73.13,0,0,0-6.67-14C146.79,174.79,146.08,176,145.33,177.39Z" />
  <path class="GUNDAN_OTTER_JEWELRY_GUNDAN_OTTER_JEWELRY_2_cls-3" d="M140.74,187.09a19.18,19.18,0,0,0,6.69,6.49l.46-.27c-3-4.3-4.44-8.18-4.43-12.84A62.22,62.22,0,0,0,140.74,187.09Z" />
  <path class="GUNDAN_OTTER_JEWELRY_GUNDAN_OTTER_JEWELRY_2_cls-4" d="M145.6,169.68s0,0,0,0a3.06,3.06,0,0,0-.33-2.68,2.46,2.46,0,0,1,1.38-3.84,3.55,3.55,0,0,1,.76-.08,2.46,2.46,0,0,1,2.14,3.92,3.1,3.1,0,0,0-.34,2.67.08.08,0,0,1,0,0,76.84,76.84,0,0,1,8.49,17.73,22.2,22.2,0,0,1-10.3,9.94s-.39-.17-1-.51a22.11,22.11,0,0,1-9.27-9.43A78.14,78.14,0,0,1,145.6,169.68Zm.92,5a72.81,72.81,0,0,0-5.78,12.44,18.61,18.61,0,0,0,5.68,5.85c.37.25.71.47,1,.64a19.15,19.15,0,0,0,6.67-6.49,73.72,73.72,0,0,0-6.67-14C147.14,173.59,146.84,174.1,146.52,174.65Z" />
  <path class="GUNDAN_OTTER_JEWELRY_GUNDAN_OTTER_JEWELRY_2_cls-5" d="M146,169.68a0,0,0,0,1,0,0,3,3,0,0,0-.33-2.68,2.47,2.47,0,0,1,1.38-3.84,2.48,2.48,0,0,1,1,3.73,3.1,3.1,0,0,0-.34,2.67.16.16,0,0,1,0,0,76.73,76.73,0,0,1,8.49,17.72,22.06,22.06,0,0,1-9.47,9.54,22.18,22.18,0,0,1-9.28-9.43A78.53,78.53,0,0,1,146,169.68Zm1.11,23.46c.26-.15-.61,0-.3-.2.37.25.71.47,1,.64a19.15,19.15,0,0,0,6.67-6.49,74.33,74.33,0,0,0-6.67-14c-.29.48-.6,1-.91,1.54-.33-.59.65.11.34-.4a62.93,62.93,0,0,0-6.12,12.84A16.42,16.42,0,0,0,147.12,193.14Z" />
  <path class="GUNDAN_OTTER_JEWELRY_GUNDAN_OTTER_JEWELRY_2_cls-6" d="M147.43,193.58a19.17,19.17,0,0,0,6.68-6.49,73.68,73.68,0,0,0-6.68-14,75.52,75.52,0,0,0-6.69,14A19.18,19.18,0,0,0,147.43,193.58Z" />
  <path class="GUNDAN_OTTER_JEWELRY_GUNDAN_OTTER_JEWELRY_2_cls-6" d="M147.43,163.06a2.46,2.46,0,0,1,2.14,3.92,3.1,3.1,0,0,0-.34,2.67.08.08,0,0,1,0,0,76.84,76.84,0,0,1,8.49,17.73,22.2,22.2,0,0,1-10.3,9.94,22.2,22.2,0,0,1-10.31-9.94,77.67,77.67,0,0,1,8.49-17.73,0,0,0,0,1,0,0,3.06,3.06,0,0,0-.33-2.68,2.46,2.46,0,0,1,2.14-3.92" />
  <circle class="GUNDAN_OTTER_JEWELRY_GUNDAN_OTTER_JEWELRY_2_cls-6" cx="147.43" cy="159.85" r="1.83" />
  <polyline class="GUNDAN_OTTER_JEWELRY_GUNDAN_OTTER_JEWELRY_2_cls-7" points="147.43 160.86 147.43 161.67 147.43 163.06 147.43 163.92" />
  <polyline class="GUNDAN_OTTER_JEWELRY_GUNDAN_OTTER_JEWELRY_2_cls-7" points="147.43 151.2 147.43 158.02 147.43 158.95" />
  <path class="GUNDAN_OTTER_JEWELRY_GUNDAN_OTTER_JEWELRY_2_cls-8" d="M146,151a2.54,2.54,0,0,1,2.87,1.12" />
</svg>