<svg id="Jewelry_Front" data-name="Jewelry Front" xmlns="http://www.w3.org/2000/svg" viewBox="0 0 432 432">
  <defs>
    <style>.GUNDAN_OTTER_JEWELRY_GUNDAN_OTTER_JEWELRY_1_cls-1,.GUNDAN_OTTER_JEWELRY_GUNDAN_OTTER_JEWELRY_1_cls-4{fill:#dfca6d;}.GUNDAN_OTTER_JEWELRY_GUNDAN_OTTER_JEWELRY_1_cls-1,.GUNDAN_OTTER_JEWELRY_GUNDAN_OTTER_JEWELRY_1_cls-2,.GUNDAN_OTTER_JEWELRY_GUNDAN_OTTER_JEWELRY_1_cls-5,.GUNDAN_OTTER_JEWELRY_GUNDAN_OTTER_JEWELRY_1_cls-6{stroke:#000;}.GUNDAN_OTTER_JEWELRY_GUNDAN_OTTER_JEWELRY_1_cls-1,.GUNDAN_OTTER_JEWELRY_GUNDAN_OTTER_JEWELRY_1_cls-2,.GUNDAN_OTTER_JEWELRY_GUNDAN_OTTER_JEWELRY_1_cls-5{stroke-linecap:round;stroke-linejoin:round;}.GUNDAN_OTTER_JEWELRY_GUNDAN_OTTER_JEWELRY_1_cls-1,.GUNDAN_OTTER_JEWELRY_GUNDAN_OTTER_JEWELRY_1_cls-2{stroke-width:1.23px;}.GUNDAN_OTTER_JEWELRY_GUNDAN_OTTER_JEWELRY_1_cls-2{fill:#c03d00;}.GUNDAN_OTTER_JEWELRY_GUNDAN_OTTER_JEWELRY_1_cls-3{fill:#fff;}.GUNDAN_OTTER_JEWELRY_GUNDAN_OTTER_JEWELRY_1_cls-5{fill:none;stroke-width:1.23px;}.GUNDAN_OTTER_JEWELRY_GUNDAN_OTTER_JEWELRY_1_cls-6,.GUNDAN_OTTER_JEWELRY_GUNDAN_OTTER_JEWELRY_1_cls-7{fill:#85432d;}.GUNDAN_OTTER_JEWELRY_GUNDAN_OTTER_JEWELRY_1_cls-6{stroke-miterlimit:10;stroke-width:1.9px;}</style>
  </defs>
  <path class="GUNDAN_OTTER_JEWELRY_GUNDAN_OTTER_JEWELRY_1_cls-1" d="M143.48,144s-4.67-.16-5.87,3.68,1.42,7.63,4.93,7.85,5.33-2.41,5.12-3.88a22.3,22.3,0,0,0-.79-3.32,3,3,0,0,0-2,1.76c-.56,1.46-4.52,1.59-4.4-.71.12-2.08,3.21-3.31,3.4-3.19Z" />
  <path class="GUNDAN_OTTER_JEWELRY_GUNDAN_OTTER_JEWELRY_1_cls-2" d="M137.68,151.72a3.33,3.33,0,0,1,3.29.41,4.33,4.33,0,0,1,1.33,3.42,2.54,2.54,0,0,1-3.79,1.54C135.57,155.73,136.29,153,137.68,151.72Z" />
  <path class="GUNDAN_OTTER_JEWELRY_GUNDAN_OTTER_JEWELRY_1_cls-3" d="M139.63,153.06s1,1.25.52,2.21a2.45,2.45,0,0,1-1.14,1.19s2.12-.17,2.21-1.66S139.63,153.06,139.63,153.06Z" />
  <line class="GUNDAN_OTTER_JEWELRY_GUNDAN_OTTER_JEWELRY_1_cls-1" x1="148.31" y1="154.1" x2="146.56" y2="147.12" />
  <path class="GUNDAN_OTTER_JEWELRY_GUNDAN_OTTER_JEWELRY_1_cls-4" d="M231.49,380.34a1.79,1.79,0,0,1-1.8,1.79h-1.15v32.42h-3.48V410.3h-2.73v-1.68h-1v1.68H216.6v-1.69h1.26v-1.68h1.44v-2.44h-1.44V402.8H216.6v-1.69h4.74v1.69h1v-1.69h2.73v-19h-1.28a1.79,1.79,0,0,1-1.8-1.79,1.81,1.81,0,0,1,1.8-1.8h5.91A1.79,1.79,0,0,1,231.49,380.34Z" />
  <path class="GUNDAN_OTTER_JEWELRY_GUNDAN_OTTER_JEWELRY_1_cls-4" d="M233.33,361.12a7.4,7.4,0,0,0-1.57.17,5.07,5.07,0,0,0-10,0,7.4,7.4,0,0,0-1.57-.17,7.64,7.64,0,0,0,0,15.28,7.76,7.76,0,0,0,1.94-.25,1.61,1.61,0,0,0-.1.58,1.79,1.79,0,0,0,1.8,1.8h5.91a1.79,1.79,0,0,0,1.8-1.8,1.61,1.61,0,0,0-.1-.58,7.76,7.76,0,0,0,1.94.25,7.64,7.64,0,1,0,0-15.28Zm-6.6-1.49a2.88,2.88,0,0,1,2.87,2.47,7.62,7.62,0,0,0-2.87,2.82,7.59,7.59,0,0,0-2.86-2.82A2.88,2.88,0,0,1,226.73,359.63Zm-6.59,14.67a5.54,5.54,0,0,1,0-11.07,5.88,5.88,0,0,1,1.75.27h0a5.54,5.54,0,0,1-1.75,10.79Zm4.5.63a7.69,7.69,0,0,0,2.09-2.31,7.86,7.86,0,0,0,2.1,2.31Zm8.69-.63a5.54,5.54,0,1,1,5.53-5.54A5.55,5.55,0,0,1,233.33,374.3Z" />
  <path class="GUNDAN_OTTER_JEWELRY_GUNDAN_OTTER_JEWELRY_1_cls-5" d="M233.33,361.12a7.77,7.77,0,0,0-3.73,1,7.62,7.62,0,0,0-2.87,2.82,7.59,7.59,0,0,0-2.86-2.82,7.77,7.77,0,0,0-3.73-1,7.64,7.64,0,0,0,0,15.28,7.76,7.76,0,0,0,1.94-.25,7.47,7.47,0,0,0,2.56-1.22,7.69,7.69,0,0,0,2.09-2.31,7.86,7.86,0,0,0,2.1,2.31,7.47,7.47,0,0,0,2.56,1.22,7.76,7.76,0,0,0,1.94.25,7.64,7.64,0,1,0,0-15.28ZM220.14,374.3a5.54,5.54,0,0,1,0-11.07,5.88,5.88,0,0,1,1.75.27h0a5.54,5.54,0,0,1-1.75,10.79Zm13.19,0a5.54,5.54,0,1,1,5.53-5.54A5.55,5.55,0,0,1,233.33,374.3Z" />
  <line class="GUNDAN_OTTER_JEWELRY_GUNDAN_OTTER_JEWELRY_1_cls-5" x1="228.83" y1="374.93" x2="224.64" y2="374.93" />
  <path class="GUNDAN_OTTER_JEWELRY_GUNDAN_OTTER_JEWELRY_1_cls-5" d="M231.39,376.15a1.61,1.61,0,0,1,.1.58,1.79,1.79,0,0,1-1.8,1.8h-5.91a1.79,1.79,0,0,1-1.8-1.8,1.61,1.61,0,0,1,.1-.58" />
  <path class="GUNDAN_OTTER_JEWELRY_GUNDAN_OTTER_JEWELRY_1_cls-5" d="M231.49,380.34a1.79,1.79,0,0,1-1.8,1.79h-5.91a1.79,1.79,0,0,1-1.8-1.79,1.81,1.81,0,0,1,1.8-1.8h5.91A1.79,1.79,0,0,1,231.49,380.34Z" />
  <rect class="GUNDAN_OTTER_JEWELRY_GUNDAN_OTTER_JEWELRY_1_cls-5" x="225.06" y="382.13" width="3.48" height="32.41" />
  <polygon class="GUNDAN_OTTER_JEWELRY_GUNDAN_OTTER_JEWELRY_1_cls-5" points="225.06 401.11 225.06 410.3 222.33 410.3 222.33 408.62 221.34 408.62 221.34 410.3 216.6 410.3 216.6 408.61 217.86 408.61 217.86 406.93 219.3 406.93 219.3 404.49 217.86 404.49 217.86 402.8 216.6 402.8 216.6 401.11 221.34 401.11 221.34 402.8 222.33 402.8 222.33 401.11 225.06 401.11" />
  <path class="GUNDAN_OTTER_JEWELRY_GUNDAN_OTTER_JEWELRY_1_cls-5" d="M221.71,361.29a5.07,5.07,0,0,1,10,0" />
  <path class="GUNDAN_OTTER_JEWELRY_GUNDAN_OTTER_JEWELRY_1_cls-5" d="M229.61,362.12v0a2.9,2.9,0,0,0-5.73,0v0" />
  <line class="GUNDAN_OTTER_JEWELRY_GUNDAN_OTTER_JEWELRY_1_cls-5" x1="221.89" y1="363.51" x2="221.89" y2="363.5" />
  <path class="GUNDAN_OTTER_JEWELRY_GUNDAN_OTTER_JEWELRY_1_cls-6" d="M226.69,358.76a2,2,0,0,1-.48-.06A189.57,189.57,0,0,1,185,341.48c-28.16-16-45.8-36.82-51-60.25-.23-1-.56-5.61,3.7-5.81-.29,3.14-.21,3.95,0,5,11.54,51.88,82.28,72.63,89,74.47,5-1.55,47.25-16.54,67.48-60.78.44-1,.09-1.39-.47-5,4.1.18,4.84,6,3.87,7.33-22.17,48.49-69.87,62.16-70.35,62.3A2.08,2.08,0,0,1,226.69,358.76Z" />
  <path class="GUNDAN_OTTER_JEWELRY_GUNDAN_OTTER_JEWELRY_1_cls-7" d="M254.23,356.52l-1.26-.8a8.15,8.15,0,0,0,.43-1.35l1.5.07a.56.56,0,0,0,.39-.15.59.59,0,0,0,.18-.37l.08-1.94a.54.54,0,0,0-.39-.54l-.12,0-1.5-.07a7.88,7.88,0,0,0-.3-1.38l1.33-.69a.57.57,0,0,0,.27-.32.56.56,0,0,0,0-.42l-.89-1.71a.52.52,0,0,0-.33-.27.51.51,0,0,0-.4,0l-1.32.68-.33-.4c-.17.09-.33.18-.5.25-.4.21-.82.4-1.23.59l-.54.23a6,6,0,0,1,1.85,3.2,6.15,6.15,0,0,1-7.79,7.2,6.23,6.23,0,0,1-1.53-.7,6.15,6.15,0,0,1,5.1-11.06l.18.06.6-.35c1.07-.62,2.18-1.3,3.13-1.9.17-.12.34-.22.5-.32l-1.39-.89a.33.33,0,0,0-.13-.07.53.53,0,0,0-.28,0,.55.55,0,0,0-.34.24l-.81,1.26c-.27-.11-.53-.21-.8-.29l-.55-.15.07-1.48a.54.54,0,0,0-.38-.55l-.12,0-.62,0-1.33-.06a.54.54,0,0,0-.56.52L244,344a8.19,8.19,0,0,0-1.39.3l-.69-1.33a.49.49,0,0,0-.32-.26h0a.53.53,0,0,0-.41,0l-1.72.89a.55.55,0,0,0-.23.73l.69,1.33a7.84,7.84,0,0,0-1,.95l-1.26-.81a.84.84,0,0,0-.14-.06.49.49,0,0,0-.27,0,.53.53,0,0,0-.34.24l-1,1.63a.55.55,0,0,0,.16.75l1.26.8a8.25,8.25,0,0,0-.43,1.36l-1.5-.07a.57.57,0,0,0-.39.14.52.52,0,0,0-.17.38l-.08,1.93a.54.54,0,0,0,.38.54l.13,0,1.49.07A8.44,8.44,0,0,0,237,355l-1.33.68a.57.57,0,0,0-.27.32.56.56,0,0,0,0,.42l.88,1.72a.59.59,0,0,0,.32.26h0a.58.58,0,0,0,.41,0l1.32-.69a9.48,9.48,0,0,0,1,1l-.81,1.25a.56.56,0,0,0,.17.75l1.63,1,.13.07a.53.53,0,0,0,.61-.23l.81-1.26h0a5,5,0,0,0,.49.2l.32.1.52.14-.06,1.37v.14a.55.55,0,0,0,.39.52l.1,0h.12l1.85.09a.54.54,0,0,0,.56-.52l.07-1.49a9.6,9.6,0,0,0,1.39-.31l.68,1.33a.53.53,0,0,0,.32.27.54.54,0,0,0,.41,0l.84-.43.88-.45a.54.54,0,0,0,.23-.73l-.68-1.33c.14-.12.29-.23.43-.36s.41-.38.61-.6l1.26.81.14.06a.5.5,0,0,0,.27,0,.52.52,0,0,0,.34-.24l1.05-1.63A.55.55,0,0,0,254.23,356.52Z" />
  <path d="M254.52,356.07l-.88-.57.18-.57,1.05,0a1.13,1.13,0,0,0,.79-.28,1.1,1.1,0,0,0,.35-.75l.08-1.93a1.09,1.09,0,0,0-.76-1.08,1.28,1.28,0,0,0-.27-.05l-1.05-.05c0-.2-.08-.4-.13-.59l.94-.48a1.05,1.05,0,0,0,.53-.64,1.06,1.06,0,0,0-.07-.82l-.9-1.72a1.06,1.06,0,0,0-.64-.54,1,1,0,0,0-.81.08l-.34.17-.06,0-1,.55c-.17.09-.33.18-.5.25h0a7.81,7.81,0,0,1,.65.84l1.74-.91.9,1.72-1.76.91a7.67,7.67,0,0,1,.48,2.17l2,.09-.09,1.93-2-.09a7.49,7.49,0,0,1-.68,2.12l1.66,1.06-1.05,1.63-1.65-1.06a6.72,6.72,0,0,1-.87.9,6.36,6.36,0,0,1-.77.6l.9,1.74-.88.46-.84.43-.9-1.74a8.11,8.11,0,0,1-2.17.48l-.09,2-1.85-.09h-.09v-.13l.08-1.82a6.14,6.14,0,0,1-.92-.22l-.31-.1-.44-.17-.44-.19-1.06,1.65-1.63-1L240,358.6a7.51,7.51,0,0,1-1.5-1.64l-1.74.9-.89-1.72,1.74-.89a8.27,8.27,0,0,1-.48-2.18l-1.95-.09.08-1.93,2,.09a7.35,7.35,0,0,1,.66-2.12L236.28,348l1-1.63.55.35,1.11.71a7.26,7.26,0,0,1,1.65-1.49l-.91-1.75,1.72-.89.9,1.74a8.1,8.1,0,0,1,2.17-.47l.1-2,1.33.06.6,0-.09,1.95a8.2,8.2,0,0,1,.95.23,9.36,9.36,0,0,1,1.17.45l1.06-1.65,1.18.76c.17-.12.34-.22.5-.32l.5-.32-1.6-1a1.66,1.66,0,0,0-.27-.13,1.09,1.09,0,0,0-1.22.45l-.58.9-.43-.15-.14,0,.05-1.05a1.07,1.07,0,0,0-.77-1.08.6.6,0,0,0-.24-.05l-.61,0-1.34-.07a1.08,1.08,0,0,0-1.13,1l-.06,1.06-.59.13-.48-.93a1.08,1.08,0,0,0-.63-.54h0a1.09,1.09,0,0,0-.81.08l-1.71.89a1.08,1.08,0,0,0-.47,1.46l.48.93-.44.41-.35-.22-.54-.35a.93.93,0,0,0-.27-.12,1,1,0,0,0-.55,0,1.08,1.08,0,0,0-.68.48l-1,1.63a1.08,1.08,0,0,0,.33,1.49l.89.57c-.07.19-.13.39-.18.58l-1.07,0a1.08,1.08,0,0,0-.78.28,1.09,1.09,0,0,0-.34.75l-.09,1.94a1.1,1.1,0,0,0,.77,1.08,1.17,1.17,0,0,0,.27,0l1.05.05c0,.2.08.39.13.59l-.94.48a1,1,0,0,0-.53.64,1.06,1.06,0,0,0,.07.82l.89,1.73a1.1,1.1,0,0,0,.63.53h0a1.11,1.11,0,0,0,.82-.07l.93-.49c.13.15.26.3.41.45l-.57.88a1.07,1.07,0,0,0,.33,1.49l1.63,1a1.13,1.13,0,0,0,.27.13,1.09,1.09,0,0,0,1.22-.46l.57-.88.13,0,.33.11.11,0,0,.92s0,0,0,0v.13a1.09,1.09,0,0,0,.77,1.06l.21,0h.14l1.85.08a1.08,1.08,0,0,0,1.13-1l.05-1.05.59-.13.48.94a1.06,1.06,0,0,0,.64.54,1,1,0,0,0,.81-.08l.84-.43.89-.45a1.08,1.08,0,0,0,.46-1.46l-.48-.94a.52.52,0,0,1,.11-.1l.33-.3.89.56a1.11,1.11,0,0,0,.27.13,1.13,1.13,0,0,0,.55,0,1.07,1.07,0,0,0,.68-.48l1-1.62A1.08,1.08,0,0,0,254.52,356.07ZM246.41,347l.66-.37.6-.35a5.92,5.92,0,0,0-.62-.23,6.69,6.69,0,0,0-7.58,2.8,7.58,7.58,0,0,0-.73,1.52,6.7,6.7,0,0,0,2.76,7.71,6.56,6.56,0,0,0,1.66.77,6.68,6.68,0,0,0,6.64-11.15l-.54.23-.56.22a5.52,5.52,0,0,1,1.88,3.09,5.61,5.61,0,0,1-7.1,6.57,5.36,5.36,0,0,1-1.4-.64,5.62,5.62,0,0,1-2.31-6.46,6.11,6.11,0,0,1,.62-1.29A5.62,5.62,0,0,1,246.41,347Zm3.39.7-.54.23-.56.22a5.52,5.52,0,0,1,1.88,3.09,5.61,5.61,0,0,1-7.1,6.57,5.36,5.36,0,0,1-1.4-.64,5.62,5.62,0,0,1-2.31-6.46,6.11,6.11,0,0,1,.62-1.29,5.62,5.62,0,0,1,6-2.42l.66-.37.6-.35a5.92,5.92,0,0,0-.62-.23,6.69,6.69,0,0,0-7.58,2.8,7.58,7.58,0,0,0-.73,1.52,6.7,6.7,0,0,0,2.76,7.71,6.56,6.56,0,0,0,1.66.77,6.68,6.68,0,0,0,6.64-11.15Zm0,0-.54.23-.56.22a5.52,5.52,0,0,1,1.88,3.09,5.61,5.61,0,0,1-7.1,6.57,5.36,5.36,0,0,1-1.4-.64,5.62,5.62,0,0,1-2.31-6.46,6.11,6.11,0,0,1,.62-1.29,5.62,5.62,0,0,1,6-2.42l.66-.37.6-.35a5.92,5.92,0,0,0-.62-.23,6.69,6.69,0,0,0-7.58,2.8,7.58,7.58,0,0,0-.73,1.52,6.7,6.7,0,0,0,2.76,7.71,6.56,6.56,0,0,0,1.66.77,6.68,6.68,0,0,0,6.64-11.15Z" />
</svg>