<svg xmlns="http://www.w3.org/2000/svg" viewBox="0 0 432 432">
  <defs>
    <style>.GUNDAN_OTTER_OUTFIT_GUNDAN_OTTER_OUTFIT_28_cls-1{isolation:isolate;}.GUNDAN_OTTER_OUTFIT_GUNDAN_OTTER_OUTFIT_28_cls-2,.GUNDAN_OTTER_OUTFIT_GUNDAN_OTTER_OUTFIT_28_cls-5{fill:none;stroke:#000;stroke-linecap:round;stroke-linejoin:round;}.GUNDAN_OTTER_OUTFIT_GUNDAN_OTTER_OUTFIT_28_cls-2{stroke-width:1.7px;}.GUNDAN_OTTER_OUTFIT_GUNDAN_OTTER_OUTFIT_28_cls-3{fill:#51593c;}.GUNDAN_OTTER_OUTFIT_GUNDAN_OTTER_OUTFIT_28_cls-4{fill:#fff;}.GUNDAN_OTTER_OUTFIT_GUNDAN_OTTER_OUTFIT_28_cls-5{stroke-width:1.66px;}.GUNDAN_OTTER_OUTFIT_GUNDAN_OTTER_OUTFIT_28_cls-6{fill:#ad502d;}.GUNDAN_OTTER_OUTFIT_GUNDAN_OTTER_OUTFIT_28_cls-7{fill:#191813;}.GUNDAN_OTTER_OUTFIT_GUNDAN_OTTER_OUTFIT_28_cls-8{fill:#22211b;}.GUNDAN_OTTER_OUTFIT_GUNDAN_OTTER_OUTFIT_28_cls-9{fill:#431c5b;}.GUNDAN_OTTER_OUTFIT_GUNDAN_OTTER_OUTFIT_28_cls-10{fill:#38383a;opacity:0.4;mix-blend-mode:multiply;}.GUNDAN_OTTER_OUTFIT_GUNDAN_OTTER_OUTFIT_28_cls-11{fill:#ad6f5e;}.GUNDAN_OTTER_OUTFIT_GUNDAN_OTTER_OUTFIT_28_cls-12{fill:#a9545a;}.GUNDAN_OTTER_OUTFIT_GUNDAN_OTTER_OUTFIT_28_cls-13{fill:#494a47;}</style>
  </defs>
  <g class="GUNDAN_OTTER_OUTFIT_GUNDAN_OTTER_OUTFIT_28_cls-1">
    <g id="outfit">
      <path class="GUNDAN_OTTER_OUTFIT_GUNDAN_OTTER_OUTFIT_28_cls-2" d="M234.7,371.81c14.73,11.79,14,26.86,14,26.86" />
      <path class="GUNDAN_OTTER_OUTFIT_GUNDAN_OTTER_OUTFIT_28_cls-2" d="M245.9,386.14A25.42,25.42,0,0,1,255.44,371" />
      <path class="GUNDAN_OTTER_OUTFIT_GUNDAN_OTTER_OUTFIT_28_cls-3" d="M267.83,438.18H247.67C196.14,427.06,144,380.27,144,380.27a18.12,18.12,0,0,0-.37-3.64q1-4,1.65-7.95c.33-.13,7.67-3,19.7,8.29,12.3,11.6,9.93,23,25,26.64,8.75,2.12,16.23-1.85,25.28-2.4,2.57-.15,4.85-.29,7.09-.38C222.32,400.83,256,417,267.83,438.18Z" />
      <path class="GUNDAN_OTTER_OUTFIT_GUNDAN_OTTER_OUTFIT_28_cls-4" d="M242.5,414.85a174.55,174.55,0,0,1-16.16,12c-9-7.31-17.78-15.09-26.08-23.05a610.06,610.06,0,0,1-55.1-60.92c-4.61-5.81-8.68-11.14-12.13-15.77-1-1.4-2-2.72-2.93-4-4.77-6.51-8-11.24-9.5-13.48l.18-.3,4.38-7.2,9.24-8.53s2.09,4.64,10.32,16v0a638.7,638.7,0,0,0,50,60.86c9.56,10.21,19.94,20.5,30.91,30.23q2.84,2.5,5.72,5Q236.83,410.41,242.5,414.85Z" />
      <path class="GUNDAN_OTTER_OUTFIT_GUNDAN_OTTER_OUTFIT_28_cls-4" d="M299.89,304l18,18.28c-7.95,50.7-36,84.38-59.11,104.05a175.17,175.17,0,0,1-14.41,11c-.38.27-.75.52-1.13.77h-37.5a130.94,130.94,0,0,0,20.62-11.33,174.55,174.55,0,0,0,16.16-12C267.88,393.68,294.79,363.42,299.89,304Z" />
      <path class="GUNDAN_OTTER_OUTFIT_GUNDAN_OTTER_OUTFIT_28_cls-5" d="M242.5,414.85q-5.67-4.46-11.18-9.14-2.88-2.46-5.72-5c-11-9.73-21.35-20-30.91-30.23a638.7,638.7,0,0,1-50-60.86v0c-8.23-11.37-10.32-16-10.32-16l-9.24,8.53-4.38,7.2-.18.3" />
      <path class="GUNDAN_OTTER_OUTFIT_GUNDAN_OTTER_OUTFIT_28_cls-5" d="M120.6,309.65c6.73,10.18,50.31,72.34,105.74,117.2" />
      <path class="GUNDAN_OTTER_OUTFIT_GUNDAN_OTTER_OUTFIT_28_cls-5" d="M317.87,322.32c-7.95,50.7-36,84.38-59.11,104.05a175.17,175.17,0,0,1-14.41,11c-.38.27-.75.52-1.13.77h-37.5a130.94,130.94,0,0,0,20.62-11.33,174.55,174.55,0,0,0,16.16-12c25.38-21.17,52.29-51.43,57.39-110.81l18,18.28" />
      <path class="GUNDAN_OTTER_OUTFIT_GUNDAN_OTTER_OUTFIT_28_cls-6" d="M222.32,400.83c3.17-.14,6.25-.18,9.91,0h0a113.31,113.31,0,0,1,18.51,11.86,4.77,4.77,0,0,1,3.83-2,5,5,0,0,1,4.85,5.07,5.2,5.2,0,0,1-1.17,3.3,89.63,89.63,0,0,1,8.23,8.76,4.62,4.62,0,0,1,3.1-1.19,5,5,0,0,1,4.84,5.07,5.12,5.12,0,0,1-2.17,4.23c.44.72.87,1.45,1.28,2.2h-5.7C256,417,222.32,400.83,222.32,400.83Z" />
      <path class="GUNDAN_OTTER_OUTFIT_GUNDAN_OTTER_OUTFIT_28_cls-7" d="M247.67,438.18H189c-22.63-10.59-44-27.12-59.28-40.64a15.28,15.28,0,0,0,4-1.17A17.45,17.45,0,0,0,144,380.27S196.14,427.06,247.67,438.18Z" />
      <path class="GUNDAN_OTTER_OUTFIT_GUNDAN_OTTER_OUTFIT_28_cls-8" d="M247.67,438.18H198.23c-23.75-11.21-48.14-27.87-64.52-41.81A17.45,17.45,0,0,0,144,380.27S196.14,427.06,247.67,438.18Z" />
      <path class="GUNDAN_OTTER_OUTFIT_GUNDAN_OTTER_OUTFIT_28_cls-9" d="M389.83,425.85a30.08,30.08,0,0,1-10.9,12.33H273.53c-.41-.75-.84-1.48-1.28-2.2a5.12,5.12,0,0,0,2.17-4.23,5,5,0,0,0-4.84-5.07,4.62,4.62,0,0,0-3.1,1.19c-.89-1.09-1.8-2.15-2.74-3.17h0c-1.78-2-3.62-3.84-5.49-5.58a5.2,5.2,0,0,0,1.17-3.3,5,5,0,0,0-4.85-5.07,4.77,4.77,0,0,0-3.83,2,113.31,113.31,0,0,0-18.51-11.86h0c-3.66-.19-6.74-.15-9.91,0-2.24.09-4.52.23-7.09.38-9,.55-16.53,4.52-25.28,2.4-15.09-3.66-12.72-15-25-26.64-12-11.33-19.37-8.42-19.7-8.29a83.53,83.53,0,0,0-1.5-32.87c9.21,4,23.41,12.4,38.63,29.95h0c.43.08,11.7,2.06,24,13,11.33,10.1,23.73,13.71,43.6,12l1.15-.09c1.79-.17,3.66-.38,5.58-.63,8.62-1.12,18.26-6.83,27.79-14v0c.5-.71,13.28-18.93,19.66-30.57a181,181,0,0,0,11-25.13s.9-1.61,9,5.54,16.3,4.61,16.46,18.55c13.33,6.23,17,9.45,23.18,22.24s13.87,15.28,13.87,20.69a21.24,21.24,0,0,0-5.42,1.51,65.3,65.3,0,0,1,8.17,18.31C382.9,417.1,387.19,424.12,389.83,425.85Z" />
      <path class="GUNDAN_OTTER_OUTFIT_GUNDAN_OTTER_OUTFIT_28_cls-10" d="M324.11,360.51s-4.66,14.84-17.46,32.64-27.84,18.75-38.82,17.59a104.64,104.64,0,0,0-19.8-.08,110.7,110.7,0,0,0-15.8-9.81h0c4.23.23,9.24.75,16.1,1.79,19.83,3,41.08,3.8,60.35-20.06a193.72,193.72,0,0,0,15.42-22.06Z" />
      <path class="GUNDAN_OTTER_OUTFIT_GUNDAN_OTTER_OUTFIT_28_cls-10" d="M380.2,434.79l-5,3.39H273.53c-.41-.75-.84-1.48-1.28-2.2a5.12,5.12,0,0,0,2.17-4.23,5,5,0,0,0-4.84-5.07,4.62,4.62,0,0,0-3.1,1.19c-.89-1.09-1.8-2.15-2.74-3.17h0s33.7-21.12,57.13-16.43,38,16.44,56.18,12.29c-17.17,8.81-40.63-3.67-57.41-2.53s-21.59.6-28.61,9.34c22.72-5.25,26.28.92,53.82,6C370.33,438.14,379.3,435.24,380.2,434.79Z" />
      <path class="GUNDAN_OTTER_OUTFIT_GUNDAN_OTTER_OUTFIT_28_cls-11" d="M145.23,368.68q-.61,3.93-1.65,7.95a17.48,17.48,0,0,0-4.78-9A76,76,0,0,0,133,327.11c-.6-1.33-1.24-2.62-1.91-3.87a53.93,53.93,0,0,0-9.88-13.34,3.44,3.44,0,0,1-.46-.55,3.87,3.87,0,0,1-.53-.93,4.74,4.74,0,0,1-.19-3.09,4.46,4.46,0,0,1,2.17-2.87,3.85,3.85,0,0,1,2.93-.31,4.68,4.68,0,0,1,2.11,1.25,56.33,56.33,0,0,1,9.46,13.66,85,85,0,0,1,7,18.75q.84,3.42,1.43,7.07A83.1,83.1,0,0,1,145.23,368.68Z" />
      <path class="GUNDAN_OTTER_OUTFIT_GUNDAN_OTTER_OUTFIT_28_cls-12" d="M144,380.27c0,8.76-6.17,16-14.21,17.27a15.53,15.53,0,0,1-2.47.19,16.21,16.21,0,0,1-11.58-4.9,17.41,17.41,0,0,1-4.07-6.49,18.08,18.08,0,0,1-1-6.07A17.57,17.57,0,0,1,119,365.12a16,16,0,0,1,8.28-2.31,16.19,16.19,0,0,1,11.53,4.86,17.48,17.48,0,0,1,4.78,9A18.12,18.12,0,0,1,144,380.27Z" />
      <path class="GUNDAN_OTTER_OUTFIT_GUNDAN_OTTER_OUTFIT_28_cls-11" d="M142.94,378.38a14.75,14.75,0,0,1-12.17,14.78,13.35,13.35,0,0,1-2.11.16,13.86,13.86,0,0,1-9.91-4.19,14.82,14.82,0,0,1-3.48-5.56,15.29,15.29,0,0,1-.89-5.19,15,15,0,0,1,7.19-13,13.68,13.68,0,0,1,7.09-2,13.88,13.88,0,0,1,9.87,4.16,14.87,14.87,0,0,1,4.09,7.67A15.14,15.14,0,0,1,142.94,378.38Z" />
      <path class="GUNDAN_OTTER_OUTFIT_GUNDAN_OTTER_OUTFIT_28_cls-11" d="M115.69,392.83c0,.15-.11.28-.15.43a72.69,72.69,0,0,1-30-9.8,78.91,78.91,0,0,1-15.43-11.88c-9.49-9.37-15.32-19.67-17.45-26.49A4.79,4.79,0,0,1,54,339.92a4.12,4.12,0,0,1,3.41-.8A4.35,4.35,0,0,1,60,340.57a4.45,4.45,0,0,1,.9,1.64c3.34,11.4,11.85,24.27,25.79,33.54a74.87,74.87,0,0,0,25,10.59h0A17.41,17.41,0,0,0,115.69,392.83Z" />
      <path class="GUNDAN_OTTER_OUTFIT_GUNDAN_OTTER_OUTFIT_28_cls-8" d="M93.65,401.13a105.59,105.59,0,0,0,19,3.55,71.55,71.55,0,0,0-.69,13.5,117.49,117.49,0,0,1-22.82-3.64C90.15,411.69,91.81,406.88,93.65,401.13Z" />
      <path class="GUNDAN_OTTER_OUTFIT_GUNDAN_OTTER_OUTFIT_28_cls-3" d="M189,438.18H115.23A82.18,82.18,0,0,1,112.94,428v0c-.13-.79-.25-1.62-.35-2.47-.3-2.27-.53-4.73-.63-7.35a71.55,71.55,0,0,1,.69-13.5c0-.28.09-.56.14-.85v0a59.44,59.44,0,0,1,1.94-8.21q.36-1.17.81-2.34a1.29,1.29,0,0,1,.07-.21c0-.07,0-.14.08-.22a16.1,16.1,0,0,0,11.58,4.9,15.53,15.53,0,0,0,2.47-.19C145.06,411.06,166.39,427.59,189,438.18Z" />
      <path class="GUNDAN_OTTER_OUTFIT_GUNDAN_OTTER_OUTFIT_28_cls-11" d="M93.65,401.13c-1.84,5.75-3.5,10.56-4.51,13.41q-.12.38-.24.69a2.65,2.65,0,0,1-3,1.77,64.69,64.69,0,0,1-14.89-4.6,2.84,2.84,0,0,1-1.33-3.59l.12-.31q1.18-3,2.24-5.52l3.79,1.41c-1,2.37-1.9,4.57-2.33,5.44,3.67,1.29,7.74,2.6,12.06,3.78,1.11-2.27,4.74-13.42,4.74-13.42-4-1.19-7.76-2.51-11.22-3.83l-1.8,4.46-3.74-1.39c.77-1.78,1.43-3.28,2-4.47.15-.34.29-.64.42-.92a2.62,2.62,0,0,1,3.35-1.4c3,1.23,8.47,3.36,12.67,4.67a2.82,2.82,0,0,1,1.75,3.55Z" />
      <path class="GUNDAN_OTTER_OUTFIT_GUNDAN_OTTER_OUTFIT_28_cls-13" d="M107.72,392.07a73.45,73.45,0,0,0,7.82,1.19q-.45,1.17-.81,2.34a59.44,59.44,0,0,0-1.94,8.21c-.65-5.83-5.11-11.51-5.11-11.51Z" />
      <path class="GUNDAN_OTTER_OUTFIT_GUNDAN_OTTER_OUTFIT_28_cls-8" d="M115.23,438.18h-28c.39-3,.9-7.21,1.41-12,6.32.29,17.37.27,23.73-.61l.25,0c.1.85.22,1.68.35,2.47v0A82.18,82.18,0,0,0,115.23,438.18Z" />
      <path class="GUNDAN_OTTER_OUTFIT_GUNDAN_OTTER_OUTFIT_28_cls-3" d="M138.8,367.67a16.19,16.19,0,0,0-11.53-4.86,16,16,0,0,0-8.28,2.31,17.25,17.25,0,0,0-6.65,7.34,18.22,18.22,0,0,0-.72,13.88h0a74.87,74.87,0,0,1-25-10.59c-13.94-9.27-22.45-22.14-25.79-33.54a4.45,4.45,0,0,0-.9-1.64c.14-.39,1.83-4.59,11.86-5.47a24.77,24.77,0,0,0,7.57-1.79c5.42-2.3,8.41-6.38,10.55-10.65a17,17,0,0,1,15.91-9.26h0s3.47-6.29,14.4-5a3.87,3.87,0,0,0,.53.93,3.44,3.44,0,0,0,.46.55,53.93,53.93,0,0,1,9.88,13.34c.67,1.25,1.31,2.54,1.91,3.87A76,76,0,0,1,138.8,367.67Z" />
      <path class="GUNDAN_OTTER_OUTFIT_GUNDAN_OTTER_OUTFIT_28_cls-13" d="M112.79,403.81v0c-.05.29-.1.57-.14.85a105.59,105.59,0,0,1-19-3.55l.09-.27A2.82,2.82,0,0,0,92,397.31c-4-1.24-9.09-3.22-12.18-4.47l-.49-.2A2.62,2.62,0,0,0,76,394c-.13.28-.27.58-.42.92-6-2.45-10.79-4.73-13.39-6a121.5,121.5,0,0,1,7.93-17.34,78.91,78.91,0,0,0,15.43,11.88,72.73,72.73,0,0,0,22.2,8.61l0,.23S112.14,398,112.79,403.81Z" />
      <path class="GUNDAN_OTTER_OUTFIT_GUNDAN_OTTER_OUTFIT_28_cls-11" d="M88.61,426.17c-.51,4.8-1,9-1.41,12H83.63c.64-4.06,1.51-11.82,1.55-12.19-4.13-.29-8.09-.74-11.74-1.25,0,0-.38,2.11-.86,4.75L68.64,429c.38-1.91.73-3.53,1-4.81h0c.08-.35.15-.69.22-1a2.67,2.67,0,0,1,3-2.11c3.2.54,9,1.42,13.33,1.76a2.76,2.76,0,0,1,2.43,3.08Z" />
      <path class="GUNDAN_OTTER_OUTFIT_GUNDAN_OTTER_OUTFIT_28_cls-12" d="M79.83,401.76a2,2,0,0,1,1.11,2.47,1.85,1.85,0,0,1-1.74,1.29,1.67,1.67,0,0,1-.62-.12l-2.71-1L72.08,403l-2.38-.89a2,2,0,0,1-1.11-2.49,1.85,1.85,0,0,1,1.74-1.27,1.88,1.88,0,0,1,.62.11l2.63,1,3.74,1.39Z" />
      <path class="GUNDAN_OTTER_OUTFIT_GUNDAN_OTTER_OUTFIT_28_cls-8" d="M78.58,405.4a1.67,1.67,0,0,0,.62.12,1.85,1.85,0,0,0,1.74-1.29,2,2,0,0,0-1.11-2.47l-2.51-.94,1.8-4.46c3.46,1.32,7.24,2.64,11.22,3.83,0,0-3.63,11.15-4.74,13.42-4.32-1.18-8.39-2.49-12.06-3.78.43-.87,1.35-3.07,2.33-5.44Z" />
      <path class="GUNDAN_OTTER_OUTFIT_GUNDAN_OTTER_OUTFIT_28_cls-13" d="M112.59,425.53l-.25,0c-6.36.88-17.41.9-23.73.61l0-.28a2.76,2.76,0,0,0-2.43-3.08c-4.37-.34-10.13-1.22-13.33-1.76a2.48,2.48,0,0,0-1.09.08,2.67,2.67,0,0,0-1.91,2c-.07.3-.14.64-.22,1h0C62.58,423,57.1,421.66,54.55,421a147.79,147.79,0,0,1,3.16-17.43c2.22,1,6.53,2.86,12.13,4.92l-.12.31a2.84,2.84,0,0,0,1.33,3.59c.61.29,1.24.56,1.88.82a66,66,0,0,0,13,3.78,2.65,2.65,0,0,0,3-1.77q.12-.32.24-.69A117.49,117.49,0,0,0,112,418.18C112.06,420.8,112.29,423.26,112.59,425.53Z" />
      <path class="GUNDAN_OTTER_OUTFIT_GUNDAN_OTTER_OUTFIT_28_cls-8" d="M85.18,426c0,.37-.91,8.13-1.55,12.19H70.92c.18-.81.39-1.91.63-3.13.11-.57.22-1.15.33-1.75l2.86.39.24,0A1.88,1.88,0,0,0,76.81,432a1.91,1.91,0,0,0-1.59-2.16l-2.65-.37c.49-2.64.87-4.75.87-4.75C77.09,425.25,81.05,425.7,85.18,426Z" />
      <path class="GUNDAN_OTTER_OUTFIT_GUNDAN_OTTER_OUTFIT_28_cls-12" d="M72.58,429.49l2.64.37A1.91,1.91,0,0,1,76.81,432,1.88,1.88,0,0,1,75,433.71l-.24,0-2.86-.39-4-.54-2.5-.35a1.93,1.93,0,0,1-1.6-2.17,1.89,1.89,0,0,1,1.82-1.68l.25,0,2.77.38Z" />
      <path class="GUNDAN_OTTER_OUTFIT_GUNDAN_OTTER_OUTFIT_28_cls-8" d="M63.8,430.24a1.93,1.93,0,0,0,1.6,2.17l2.5.35q-.5,2.49-1,5.42H63.37c-4.55-.68-8-1.36-9.8-1.74L52,436.05s-1.27-8.14,1.76-15.25l.79.21c2.55.65,8,2,15.1,3.14-.28,1.28-.63,2.9-1,4.81l-2.77-.38-.25,0A1.89,1.89,0,0,0,63.8,430.24Z" />
      <path class="GUNDAN_OTTER_OUTFIT_GUNDAN_OTTER_OUTFIT_28_cls-8" d="M68.59,399.6a2,2,0,0,0,1.11,2.49l2.38.89q-1,2.52-2.24,5.52c-5.6-2.06-9.91-3.92-12.13-4.92L56,402.8s.71-8.47,4.66-14.65l1.48.77c2.6,1.31,7.34,3.59,13.39,6-.54,1.19-1.2,2.69-2,4.47l-2.63-1a1.88,1.88,0,0,0-.62-.11A1.85,1.85,0,0,0,68.59,399.6Z" />
      <path class="GUNDAN_OTTER_OUTFIT_GUNDAN_OTTER_OUTFIT_28_cls-5" d="M182.37,365.76a181.48,181.48,0,0,1,16.91,23.16" />
      <path class="GUNDAN_OTTER_OUTFIT_GUNDAN_OTTER_OUTFIT_28_cls-5" d="M143.73,335.81c9.21,4,23.41,12.4,38.63,29.95" />
      <path class="GUNDAN_OTTER_OUTFIT_GUNDAN_OTTER_OUTFIT_28_cls-5" d="M284.51,376C301.44,363.31,318,345.93,328,341.21" />
      <path class="GUNDAN_OTTER_OUTFIT_GUNDAN_OTTER_OUTFIT_28_cls-5" d="M182.36,365.76h0c.43.08,11.7,2.06,24,13,11.33,10.1,23.73,13.71,43.6,12l1.15-.09c1.79-.17,3.66-.38,5.58-.63,8.62-1.12,18.26-6.83,27.79-14" />
      <path class="GUNDAN_OTTER_OUTFIT_GUNDAN_OTTER_OUTFIT_28_cls-5" d="M284.5,376.06v0c.5-.71,13.28-18.93,19.66-30.57a181,181,0,0,0,11-25.13s.9-1.61,9,5.54,16.3,4.61,16.46,18.55" />
      <path class="GUNDAN_OTTER_OUTFIT_GUNDAN_OTTER_OUTFIT_28_cls-5" d="M161.56,360.66s13.88,7.86,22.47,21.8,11,19.59,25.55,19l5.65-.27c2.57-.15,4.85-.29,7.09-.38,1,0,2-.07,3.07-.09,2.15-.05,4.36,0,6.84.1,4.23.23,9.24.75,16.1,1.79,19.83,3,41.08,3.8,60.35-20.06a193.72,193.72,0,0,0,15.42-22.06h0c4.95-8,7.76-12.36,16.5-16.08,13.33,6.23,17,9.45,23.18,22.24s13.87,15.28,13.87,20.69a21.24,21.24,0,0,0-5.42,1.51,26.63,26.63,0,0,0-12.31,11.23" />
      <path class="GUNDAN_OTTER_OUTFIT_GUNDAN_OTTER_OUTFIT_28_cls-5" d="M70.09,371.58a121.5,121.5,0,0,0-7.93,17.34" />
      <path class="GUNDAN_OTTER_OUTFIT_GUNDAN_OTTER_OUTFIT_28_cls-5" d="M53.57,436.44c0,1.13,0,1.74,0,1.74H378.93a30.08,30.08,0,0,0,10.9-12.33c-2.64-1.73-6.93-8.75-9.42-18.67a65.3,65.3,0,0,0-8.17-18.31" />
      <path class="GUNDAN_OTTER_OUTFIT_GUNDAN_OTTER_OUTFIT_28_cls-5" d="M57.71,403.58A147.79,147.79,0,0,0,54.55,421" />
      <path class="GUNDAN_OTTER_OUTFIT_GUNDAN_OTTER_OUTFIT_28_cls-5" d="M293.92,418.42s9.92-12.22,30-9.92,23.39,13.49,50.37,13.84" />
      <path class="GUNDAN_OTTER_OUTFIT_GUNDAN_OTTER_OUTFIT_28_cls-5" d="M286.88,433.39s8.14-20.13,38.87-14.49" />
      <path class="GUNDAN_OTTER_OUTFIT_GUNDAN_OTTER_OUTFIT_28_cls-5" d="M292.27,408.22s11-1.68,28.85-16.08,31.55-16,39-14.06" />
      <path class="GUNDAN_OTTER_OUTFIT_GUNDAN_OTTER_OUTFIT_28_cls-5" d="M342.59,385.92s19.47-4.84,33.09,0" />
      <path class="GUNDAN_OTTER_OUTFIT_GUNDAN_OTTER_OUTFIT_28_cls-5" d="M222.32,400.83S256,417,267.83,438.18" />
      <path class="GUNDAN_OTTER_OUTFIT_GUNDAN_OTTER_OUTFIT_28_cls-5" d="M266.48,427.87a89.63,89.63,0,0,0-8.23-8.76" />
      <path class="GUNDAN_OTTER_OUTFIT_GUNDAN_OTTER_OUTFIT_28_cls-5" d="M250.74,412.71c-.92-.71-1.82-1.4-2.71-2a110.7,110.7,0,0,0-15.8-9.81" />
      <path class="GUNDAN_OTTER_OUTFIT_GUNDAN_OTTER_OUTFIT_28_cls-5" d="M258.25,419.11a5.2,5.2,0,0,0,1.17-3.3,5,5,0,0,0-4.85-5.07,4.77,4.77,0,0,0-3.83,2" />
      <path class="GUNDAN_OTTER_OUTFIT_GUNDAN_OTTER_OUTFIT_28_cls-5" d="M272.25,436a5.12,5.12,0,0,0,2.17-4.23,5,5,0,0,0-4.84-5.07,4.62,4.62,0,0,0-3.1,1.19" />
      <path class="GUNDAN_OTTER_OUTFIT_GUNDAN_OTTER_OUTFIT_28_cls-5" d="M144,380.27c0,8.76-6.17,16-14.21,17.27a15.53,15.53,0,0,1-2.47.19,16.21,16.21,0,0,1-11.58-4.9,17.41,17.41,0,0,1-4.07-6.49,18.08,18.08,0,0,1-1-6.07A17.57,17.57,0,0,1,119,365.12a16,16,0,0,1,8.28-2.31,16.19,16.19,0,0,1,11.53,4.86,17.48,17.48,0,0,1,4.78,9A18.12,18.12,0,0,1,144,380.27Z" />
      <path class="GUNDAN_OTTER_OUTFIT_GUNDAN_OTTER_OUTFIT_28_cls-5" d="M116.18,393.32l-.64-.06a72.69,72.69,0,0,1-30-9.8,78.91,78.91,0,0,1-15.43-11.88c-9.49-9.37-15.32-19.67-17.45-26.49A4.79,4.79,0,0,1,54,339.92a4.12,4.12,0,0,1,3.41-.8A4.35,4.35,0,0,1,60,340.57a4.45,4.45,0,0,1,.9,1.64c3.34,11.4,11.86,24.27,25.79,33.54a74.87,74.87,0,0,0,25,10.59" />
      <path class="GUNDAN_OTTER_OUTFIT_GUNDAN_OTTER_OUTFIT_28_cls-5" d="M143.58,376.63q1-4,1.65-7.95a83.1,83.1,0,0,0-.07-25.8q-.58-3.64-1.43-7.07a85,85,0,0,0-7-18.75,56.33,56.33,0,0,0-9.46-13.66,4.68,4.68,0,0,0-2.11-1.25,3.85,3.85,0,0,0-2.93.31,4.46,4.46,0,0,0-2.17,2.87,4.74,4.74,0,0,0,.19,3.09,3.87,3.87,0,0,0,.53.93,3.44,3.44,0,0,0,.46.55,53.93,53.93,0,0,1,9.88,13.34c.67,1.25,1.31,2.54,1.91,3.87a76,76,0,0,1,5.77,40.56" />
      <path class="GUNDAN_OTTER_OUTFIT_GUNDAN_OTTER_OUTFIT_28_cls-5" d="M110.19,314.13a19.22,19.22,0,0,0-4.34-.73,17,17,0,0,0-15.91,9.26c-2.14,4.27-5.13,8.35-10.55,10.65a24.77,24.77,0,0,1-7.57,1.79c-10,.88-11.72,5.08-11.86,5.47a.08.08,0,0,0,0,0" />
      <path class="GUNDAN_OTTER_OUTFIT_GUNDAN_OTTER_OUTFIT_28_cls-5" d="M120.25,308.42c-10.93-1.32-14.4,5-14.4,5" />
      <path class="GUNDAN_OTTER_OUTFIT_GUNDAN_OTTER_OUTFIT_28_cls-5" d="M112.34,318s12.34,10.15,11.68,33.54" />
      <path class="GUNDAN_OTTER_OUTFIT_GUNDAN_OTTER_OUTFIT_28_cls-5" d="M114.43,333.48s7.89,15.11,4.56,31.64" />
      <path class="GUNDAN_OTTER_OUTFIT_GUNDAN_OTTER_OUTFIT_28_cls-5" d="M73.81,342s10.46,26.89,38.53,30.45" />
      <path class="GUNDAN_OTTER_OUTFIT_GUNDAN_OTTER_OUTFIT_28_cls-5" d="M85.08,333.48s1.07,19,20.77,29.85" />
      <path class="GUNDAN_OTTER_OUTFIT_GUNDAN_OTTER_OUTFIT_28_cls-5" d="M145.22,368.69h0c.33-.13,7.67-3,19.7,8.29,12.3,11.6,9.93,23,25,26.64,8.75,2.12,16.23-1.85,25.28-2.4l.48,0" />
      <path class="GUNDAN_OTTER_OUTFIT_GUNDAN_OTTER_OUTFIT_28_cls-5" d="M144,380.27s52.19,46.79,103.72,57.91" />
      <path class="GUNDAN_OTTER_OUTFIT_GUNDAN_OTTER_OUTFIT_28_cls-5" d="M129.74,397.54c15.32,13.52,36.65,30.06,59.28,40.64" />
      <path class="GUNDAN_OTTER_OUTFIT_GUNDAN_OTTER_OUTFIT_28_cls-5" d="M112.79,403.81a59.44,59.44,0,0,1,1.94-8.21q.36-1.17.81-2.34c0-.14.1-.28.15-.43" />
      <path class="GUNDAN_OTTER_OUTFIT_GUNDAN_OTTER_OUTFIT_28_cls-5" d="M115.23,438.18A82.18,82.18,0,0,1,112.94,428v0c-.13-.79-.25-1.62-.35-2.47-.3-2.27-.53-4.73-.63-7.35a71.55,71.55,0,0,1,.69-13.5c0-.28.09-.56.14-.85" />
      <path class="GUNDAN_OTTER_OUTFIT_GUNDAN_OTTER_OUTFIT_28_cls-5" d="M107.68,392.3s4.46,5.68,5.11,11.51v0" />
      <path class="GUNDAN_OTTER_OUTFIT_GUNDAN_OTTER_OUTFIT_28_cls-5" d="M112.65,404.68a105.59,105.59,0,0,1-19-3.55" />
      <path class="GUNDAN_OTTER_OUTFIT_GUNDAN_OTTER_OUTFIT_28_cls-5" d="M75.55,395c-6-2.45-10.79-4.73-13.39-6l-1.48-.77" />
      <path class="GUNDAN_OTTER_OUTFIT_GUNDAN_OTTER_OUTFIT_28_cls-5" d="M90.34,400.19c-4-1.19-7.76-2.51-11.22-3.83" />
      <path class="GUNDAN_OTTER_OUTFIT_GUNDAN_OTTER_OUTFIT_28_cls-5" d="M112,418.18a117.49,117.49,0,0,1-22.82-3.64" />
      <path class="GUNDAN_OTTER_OUTFIT_GUNDAN_OTTER_OUTFIT_28_cls-5" d="M60.68,388.15c-4,6.18-4.66,14.65-4.66,14.65l1.69.78c2.22,1,6.53,2.86,12.13,4.92" />
      <path class="GUNDAN_OTTER_OUTFIT_GUNDAN_OTTER_OUTFIT_28_cls-5" d="M85.6,413.61c-4.32-1.18-8.39-2.49-12.06-3.78" />
      <path class="GUNDAN_OTTER_OUTFIT_GUNDAN_OTTER_OUTFIT_28_cls-5" d="M73.58,399.43c.77-1.78,1.43-3.28,2-4.47.15-.34.29-.64.42-.92a2.62,2.62,0,0,1,3.35-1.4c3,1.23,8.47,3.36,12.67,4.67a2.82,2.82,0,0,1,1.75,3.55l-.09.27c-1.84,5.75-3.5,10.56-4.51,13.41q-.12.38-.24.69a2.65,2.65,0,0,1-3,1.77,64.69,64.69,0,0,1-14.89-4.6,2.84,2.84,0,0,1-1.33-3.59l.12-.31q1.18-3,2.24-5.52" />
      <path class="GUNDAN_OTTER_OUTFIT_GUNDAN_OTTER_OUTFIT_28_cls-5" d="M90.34,400.19s-3.63,11.15-4.74,13.42" />
      <path class="GUNDAN_OTTER_OUTFIT_GUNDAN_OTTER_OUTFIT_28_cls-5" d="M75.87,404.39c-1,2.37-1.9,4.57-2.33,5.44" />
      <path class="GUNDAN_OTTER_OUTFIT_GUNDAN_OTTER_OUTFIT_28_cls-5" d="M79.12,396.36l-1.8,4.46" />
      <path class="GUNDAN_OTTER_OUTFIT_GUNDAN_OTTER_OUTFIT_28_cls-5" d="M77.32,400.82l2.51.94a2,2,0,0,1,1.11,2.47,1.85,1.85,0,0,1-1.74,1.29,1.67,1.67,0,0,1-.62-.12l-2.71-1L72.08,403l-2.38-.89a2,2,0,0,1-1.11-2.49,1.85,1.85,0,0,1,1.74-1.27,1.88,1.88,0,0,1,.62.11l2.63,1Z" />
      <path class="GUNDAN_OTTER_OUTFIT_GUNDAN_OTTER_OUTFIT_28_cls-5" d="M112.34,425.56c-6.36.88-17.41.9-23.73.61" />
      <path class="GUNDAN_OTTER_OUTFIT_GUNDAN_OTTER_OUTFIT_28_cls-5" d="M85.18,426c-4.13-.29-8.09-.74-11.74-1.25" />
      <path class="GUNDAN_OTTER_OUTFIT_GUNDAN_OTTER_OUTFIT_28_cls-5" d="M63.37,438.18c-4.55-.68-8-1.36-9.8-1.74L52,436.05s-1.27-8.14,1.76-15.25l.79.21c2.55.65,8,2,15.1,3.14" />
      <path class="GUNDAN_OTTER_OUTFIT_GUNDAN_OTTER_OUTFIT_28_cls-5" d="M87.2,438.18c.39-3,.9-7.21,1.41-12l0-.28a2.76,2.76,0,0,0-2.43-3.08c-4.37-.34-10.13-1.22-13.33-1.76a2.67,2.67,0,0,0-3,2.11c-.07.3-.14.64-.22,1h0c-.28,1.28-.63,2.9-1,4.81" />
      <path class="GUNDAN_OTTER_OUTFIT_GUNDAN_OTTER_OUTFIT_28_cls-5" d="M67.9,432.76q-.5,2.49-1,5.42" />
      <path class="GUNDAN_OTTER_OUTFIT_GUNDAN_OTTER_OUTFIT_28_cls-5" d="M85.18,426h0c0,.37-.91,8.13-1.55,12.19" />
      <path class="GUNDAN_OTTER_OUTFIT_GUNDAN_OTTER_OUTFIT_28_cls-5" d="M73.44,424.74s-.38,2.11-.86,4.75" />
      <path class="GUNDAN_OTTER_OUTFIT_GUNDAN_OTTER_OUTFIT_28_cls-5" d="M72.58,429.49l2.64.37A1.91,1.91,0,0,1,76.81,432,1.88,1.88,0,0,1,75,433.71l-.24,0-2.86-.39-4-.54-2.5-.35a1.93,1.93,0,0,1-1.6-2.17,1.89,1.89,0,0,1,1.82-1.68l.25,0,2.77.38Z" />
      <path class="GUNDAN_OTTER_OUTFIT_GUNDAN_OTTER_OUTFIT_28_cls-10" d="M144.73,309.65s-1.77.79-5.32,7.53a21.82,21.82,0,0,0-2.68-.12c-8.36.12-4.67,6.34-4.67,6.34s-.35-.07-.94-.16c-.29,0-.63-.08-1-.11-3.3-.29-9.65-.09-10.29,5.65v0c-15.23-9.29-29.38-1.77-32.61,13.41-11.1-3.76-4.94,6.87-10,6.24a1.87,1.87,0,0,1-.32,0c-5.19,3-3.06,13.2,9.82,27.34.85.93,1.75,1.88,2.7,2.86-1.38,1.6-2.65,3.22-3.83,4.85a71.1,71.1,0,0,0-5.71,9.38,72.3,72.3,0,0,0-3.35,7.65c-.46,1.23-.87,2.44-1.25,3.66-.56,1.76-1,3.49-1.44,5.21,0,.17-.09.34-.12.5-.27,1.13-.51,2.26-.72,3.36-.52,2.74-.89,5.38-1.14,7.91-.27,2.91-.39,5.66-.4,8.2,0,1.37,0,2.68.07,3.92q0,.93.09,1.8c.06,1.12.14,2.15.23,3.13H53.6s0-.61,0-1.74L52,436.05s-1.27-8.14,1.76-15.25l.79.21a147.79,147.79,0,0,1,3.16-17.43L56,402.8s.71-8.47,4.66-14.65l1.48.77a121.5,121.5,0,0,1,7.93-17.34c-9.49-9.37-15.32-19.67-17.45-26.49A4.79,4.79,0,0,1,54,339.92a4.12,4.12,0,0,1,3.41-.8A4.35,4.35,0,0,1,60,340.57c.14-.39,1.83-4.59,11.86-5.47a24.77,24.77,0,0,0,7.57-1.79c5.42-2.3,8.41-6.38,10.55-10.65a17,17,0,0,1,15.91-9.26h0s3.47-6.29,14.4-5a4.74,4.74,0,0,1-.19-3.09,4.46,4.46,0,0,1,2.17-2.87,3.85,3.85,0,0,1,2.93-.31l9.24-8.53s2.09,4.64,10.32,16Z" />
      <path class="GUNDAN_OTTER_OUTFIT_GUNDAN_OTTER_OUTFIT_28_cls-10" d="M129.1,438.18H115.23A82.18,82.18,0,0,1,112.94,428v0c-.13-.79-.25-1.62-.35-2.47-.3-2.27-.53-4.73-.63-7.35a71.55,71.55,0,0,1,.69-13.5c0-.28.09-.56.14-.85v0a59.44,59.44,0,0,1,1.94-8.21q.36-1.17.81-2.34a1.29,1.29,0,0,1,.07-.21c0-.07,0-.14.08-.22a16.38,16.38,0,0,0,7.47,4.37A60.7,60.7,0,0,0,129.1,438.18Z" />
    </g>
  </g>
</svg>