<svg xmlns="http://www.w3.org/2000/svg" viewBox="0 0 432 432">
  <defs>
    <style>.GUNDAN_OTTER_OUTFIT_GUNDAN_OTTER_OUTFIT_5_cls-1{isolation:isolate;}.GUNDAN_OTTER_OUTFIT_GUNDAN_OTTER_OUTFIT_5_cls-2{fill:#cf9e4f;}.GUNDAN_OTTER_OUTFIT_GUNDAN_OTTER_OUTFIT_5_cls-3{fill:#d5d5d5;}.GUNDAN_OTTER_OUTFIT_GUNDAN_OTTER_OUTFIT_5_cls-4{fill:#272123;}.GUNDAN_OTTER_OUTFIT_GUNDAN_OTTER_OUTFIT_5_cls-5{fill:#622206;}.GUNDAN_OTTER_OUTFIT_GUNDAN_OTTER_OUTFIT_5_cls-6{fill:#414572;}.GUNDAN_OTTER_OUTFIT_GUNDAN_OTTER_OUTFIT_5_cls-7{fill:#fff;}.GUNDAN_OTTER_OUTFIT_GUNDAN_OTTER_OUTFIT_5_cls-8{fill:none;stroke:#000;stroke-linecap:round;stroke-linejoin:round;stroke-width:1.57px;}.GUNDAN_OTTER_OUTFIT_GUNDAN_OTTER_OUTFIT_5_cls-9{opacity:0.22;mix-blend-mode:multiply;}</style>
  </defs>
  <g class="GUNDAN_OTTER_OUTFIT_GUNDAN_OTTER_OUTFIT_5_cls-1">
    <g id="outfit">
      <path class="GUNDAN_OTTER_OUTFIT_GUNDAN_OTTER_OUTFIT_5_cls-2" d="M60.46,358.23c0-.3,0-.59.09-.85a21.14,21.14,0,0,0-6.7.2A16.54,16.54,0,0,0,49,359.31a16.07,16.07,0,0,0-5.42,4.83,21.89,21.89,0,0,0-3.27,7.22,25.13,25.13,0,0,0-.7,3.81,26.22,26.22,0,0,0,1.94,12.24,37.87,37.87,0,0,0,4.36,7.84,47.46,47.46,0,0,0,6.56,7.44c.74-2.77,1.48-5.74,2.16-8.6a37.51,37.51,0,0,1-3.75-5h0A26,26,0,0,1,48,382.72a17.16,17.16,0,0,1-.45-8.85,4.2,4.2,0,0,1,.14-.59,13.11,13.11,0,0,1,2.77-5.55h0a8.18,8.18,0,0,1,2.22-1.78,9.44,9.44,0,0,1,2.89-1,14.84,14.84,0,0,1,5.07.06A41.2,41.2,0,0,1,60.46,358.23Z" />
      <path class="GUNDAN_OTTER_OUTFIT_GUNDAN_OTTER_OUTFIT_5_cls-3" d="M75.36,321.5c4.26,1.44,3.67,7.52,2,11.27-.3-.12-.61-.24-1-.35-3-.93-7.29-3.43-9.75-4.92C68,325.25,71.57,320.21,75.36,321.5Z" />
      <path class="GUNDAN_OTTER_OUTFIT_GUNDAN_OTTER_OUTFIT_5_cls-3" d="M62.69,349c1.37,2.79,3-.95,4.38-5.41A57.34,57.34,0,0,1,70.8,335c3.53,1.33,6.87,2.21,8,1.91a1.51,1.51,0,0,0,.84-2.6s5.39-11.1,0-15.05c-5.18-3.79-10.92-.08-11.4.25a19,19,0,0,1,10.4-7.07s11.73,4.26,9.2,15.74S73.58,360.39,60,350a27.86,27.86,0,0,1,2.69-18.86,33,33,0,0,0,3.78,2.07C65.06,337,61.61,346.79,62.69,349Z" />
      <path class="GUNDAN_OTTER_OUTFIT_GUNDAN_OTTER_OUTFIT_5_cls-3" d="M115.39,353.35c-.51,2.06-1.07,4-1.63,5.62-1.65,4.81-6.62,9-10.54,11.74-5.46-3.61-9.08-14.28-2.53-20.47S115.39,353.35,115.39,353.35Z" />
      <path class="GUNDAN_OTTER_OUTFIT_GUNDAN_OTTER_OUTFIT_5_cls-3" d="M92.21,356.65A16.64,16.64,0,0,0,98,373.87c-8,10.89-20.11,10.3-25.31,8.11s-11.79-13.71-11.79-13.71-.19-1.4-.35-3.29a41.2,41.2,0,0,1-.13-6.75c0-.3,0-.59.09-.85.17-1.07.44-1.86.91-2.15a.92.92,0,0,1,1,0c17,9.26,28.13-14.09,30.87-28s-11-15.38-11-15.38c8.66-9.8,26.68-9.18,26.68-9.18,9.29,4.5,11.21,22.4,10.74,27.37-.29,3.18-1.45,10.62-3,17.78h0a36,36,0,0,0-8-4.86C103.06,340.29,95,345.57,92.21,356.65Z" />
      <path class="GUNDAN_OTTER_OUTFIT_GUNDAN_OTTER_OUTFIT_5_cls-2" d="M92.21,356.65A16.64,16.64,0,0,0,98,373.87c-8,10.89-20.11,10.3-25.31,8.11s-11.79-13.71-11.79-13.71-4.52,1.32-4.85,7.79a5.24,5.24,0,0,0,1.71,3.56h0c2,2.14,5.35,4.35,9.09,6.27a60.44,60.44,0,0,0,12.68,4.85,10.84,10.84,0,0,0,4.27.34c2.85-.71,7.78-4.37,11.44-7.36,2.72-2.21,4.75-4.05,4.75-4.05s1.77-.53,4.24-1.53V378c-1.69.31-5.33.44-6.23-4.13a49,49,0,0,0,5.18-3.16c-5.46-3.61-9.08-14.28-2.53-20.47s14.7,3.11,14.7,3.11c.46-1.76.89-3.61,1.29-5.5a36,36,0,0,0-8-4.86C103.06,340.29,95,345.57,92.21,356.65Z" />
      <path class="GUNDAN_OTTER_OUTFIT_GUNDAN_OTTER_OUTFIT_5_cls-2" d="M66.47,333.17C65.06,337,61.61,346.79,62.69,349c1.37,2.78,3-.95,4.38-5.41A57.34,57.34,0,0,1,70.8,335c3.53,1.33,6.86,2.21,8,1.91a1.51,1.51,0,0,0,.84-2.6s5.39-11.1,0-15.05c-5.18-3.79-10.92-.08-11.4.25l0,0a24.38,24.38,0,0,0-3.49,6.75c-2.44.22-4.09,3-2,4.82A33,33,0,0,0,66.47,333.17Zm8.89-11.67c4.26,1.44,3.67,7.52,2,11.27-.3-.12-.61-.24-1-.35-3-.93-7.29-3.43-9.75-4.92C68,325.25,71.57,320.21,75.36,321.5Z" />
      <path class="GUNDAN_OTTER_OUTFIT_GUNDAN_OTTER_OUTFIT_5_cls-2" d="M62.43,355.28c17,9.26,28.13-14.09,30.87-28s-11-15.38-11-15.38a15.73,15.73,0,0,0-3.65.56s11.73,4.26,9.2,15.74S73.58,360.39,60,350a33.07,33.07,0,0,0,1.46,5.27A.92.92,0,0,1,62.43,355.28Z" />
      <path class="GUNDAN_OTTER_OUTFIT_GUNDAN_OTTER_OUTFIT_5_cls-2" d="M118.77,303.48a10.22,10.22,0,0,0-4.09-3.09c-4.53-1.53-5.74,2.31-5.74,2.31,9.29,4.5,11.21,22.4,10.74,27.37-.29,3.18-1.45,10.62-3,17.78,5.64-.33,6.24,5.56,6.24,5.56,2.37-11.45,3.84-25.67,3.09-32.17C125.16,313.86,122.1,307.26,118.77,303.48Z" />
      <path class="GUNDAN_OTTER_OUTFIT_GUNDAN_OTTER_OUTFIT_5_cls-2" d="M220.11,363.21C209.4,363,209,374.37,209,374.37q2,1.74,4,3.43s-.65-12.93,11.48-11.77C223.05,365.12,221.58,364.18,220.11,363.21Z" />
      <path class="GUNDAN_OTTER_OUTFIT_GUNDAN_OTTER_OUTFIT_5_cls-4" d="M138.32,372.34c.66,1,33,32.47,77.44,65.26q7.34,5.41,15.5,10.82c43.35,28.63,69.41,38.9,79.85,44.39,3,1.58,4.7,2.76,5.16,3.86a9,9,0,0,1,.34,5.22H292.05c-20-9.3-52.94-26.63-79.36-46.34-4.3-3.2-8.42-6.48-12.29-9.79-.26-.21-.52-.44-.78-.66-39-33.74-66.85-50.54-70.09-55.18-5,2.13-7.78-3.94-7.78-3.94,6.16-2.55,10.06-17.22,10.06-20.81C131.81,365.17,138.91,364.82,138.32,372.34Z" />
      <path class="GUNDAN_OTTER_OUTFIT_GUNDAN_OTTER_OUTFIT_5_cls-5" d="M122.93,353.41s-.6-5.89-6.24-5.56h0c-.4,1.89-.83,3.74-1.29,5.5-.51,2.06-1.07,4-1.63,5.62-1.65,4.81-6.62,9-10.54,11.74A49,49,0,0,1,98,373.87c.9,4.57,4.54,4.44,6.23,4.13a7.81,7.81,0,0,0,.8-.2l.05,0s8.85,9.75,15.6,8.51a4.08,4.08,0,0,0,1-.31c6.16-2.55,10.06-17.22,10.06-20.81C131.81,361.37,122.93,353.41,122.93,353.41Zm-3.83,27.84a2.41,2.41,0,1,1,2.42-2.41A2.41,2.41,0,0,1,119.1,381.25Zm8-19a2.41,2.41,0,1,1-2.42,2.41A2.41,2.41,0,0,1,127.11,362.25Z" />
      <path class="GUNDAN_OTTER_OUTFIT_GUNDAN_OTTER_OUTFIT_5_cls-5" d="M68.64,441.52A43.48,43.48,0,0,1,44,426.27c-2.83,8.27-7.45,24.2-11.4,39.83,6.06,3.93,30.1,17.71,59.4,10.12,4.29-18.71,8.86-37.55,8.86-37.55C93.42,441,80.71,443.94,68.64,441.52Z" />
      <path class="GUNDAN_OTTER_OUTFIT_GUNDAN_OTTER_OUTFIT_5_cls-5" d="M369.41,464l8.84-5.67c0-14.07.3-31.79.3-31.79s-5.47,11.1-27.79,17.1A41.94,41.94,0,0,1,316.39,438s.12,3.13.29,8.17c.06.15.14.31.2.48l-.18.15c.18,5.12.38,12,.56,19.59C322.17,468.54,347.1,478.26,369.41,464Z" />
      <path class="GUNDAN_OTTER_OUTFIT_GUNDAN_OTTER_OUTFIT_5_cls-2" d="M74,437.86l-1.07-.07a36.16,36.16,0,0,1-15.3-4.8v0A51.67,51.67,0,0,1,44,421.67s-1.5,1.39,0,4.6a43.48,43.48,0,0,0,24.66,15.25c12.07,2.42,24.78-.56,32.2-2.85,2.17-.66,3.89-1.28,5-1.68.08-1.58.15-3.33.23-5.23-2.74,1.83-7.22,3.76-13.45,5A76.66,76.66,0,0,1,74,437.86Z" />
      <path class="GUNDAN_OTTER_OUTFIT_GUNDAN_OTTER_OUTFIT_5_cls-2" d="M377.91,419.15a94.21,94.21,0,0,1-15.36,12.14c-5.2,3.24-11.08,6-16.68,6.47a48.6,48.6,0,0,1-19.29-2.61,47.51,47.51,0,0,1-9.34-4.22c-.8,2-1.65,3.93-2.53,5.87.45.34,1,.74,1.68,1.18a41.94,41.94,0,0,0,34.37,5.62c22.32-6,27.79-17.1,27.79-17.1C380.2,423.42,377.91,419.15,377.91,419.15Z" />
      <path class="GUNDAN_OTTER_OUTFIT_GUNDAN_OTTER_OUTFIT_5_cls-4" d="M104.27,378.15c-2.47,1-4.24,1.53-4.24,1.53s-2,1.84-4.75,4.05c-3.66,3-8.59,6.65-11.44,7.36a10.84,10.84,0,0,1-4.27-.34,60.44,60.44,0,0,1-12.68-4.85c-3.74-1.92-7.13-4.13-9.09-6.27-.07.35-1.41,7-3.15,14.46-.68,2.86-1.42,5.83-2.16,8.6-.32,1.16-.63,2.27-1,3.34-2.61,1-6.64,2.88-7,4.78C44,413.67,44,421.67,44,421.67A51.67,51.67,0,0,0,57.64,433v0a36.16,36.16,0,0,0,15.3,4.8l1.07.07a76.66,76.66,0,0,0,18.61-1.12c6.23-1.22,10.71-3.15,13.45-5q.29-6.33.68-15C103.1,403.38,103.78,385.29,104.27,378.15Z" />
      <path class="GUNDAN_OTTER_OUTFIT_GUNDAN_OTTER_OUTFIT_5_cls-4" d="M377.19,411.63a22.14,22.14,0,0,0-7.61-5.3,141.1,141.1,0,0,1-7.81-34.48q-4.63,5.94-9.52,11.66T342.08,395c-5.24,5.73-10.62,11.35-16.07,16.91l-3.12,3.16s0,0,0,0c-1.63,5.34-3.51,10.63-5.64,15.81a47.51,47.51,0,0,0,9.34,4.22,48.6,48.6,0,0,0,19.29,2.61c5.6-.51,11.48-3.23,16.68-6.47a94.21,94.21,0,0,0,15.36-12.14C377.73,416.51,377.37,414.26,377.19,411.63Z" />
      <ellipse class="GUNDAN_OTTER_OUTFIT_GUNDAN_OTTER_OUTFIT_5_cls-6" cx="119.1" cy="378.84" rx="2.42" ry="2.41" />
      <path class="GUNDAN_OTTER_OUTFIT_GUNDAN_OTTER_OUTFIT_5_cls-6" d="M129.53,364.66a2.42,2.42,0,1,0-2.42,2.41A2.41,2.41,0,0,0,129.53,364.66Z" />
      <path class="GUNDAN_OTTER_OUTFIT_GUNDAN_OTTER_OUTFIT_5_cls-6" d="M200.4,445.76c-.26-.21-.52-.44-.78-.66-39-33.73-66.85-50.54-70.09-55.18-5,2.13-7.78-3.94-7.78-3.94a4.08,4.08,0,0,1-1,.31c-6.75,1.24-15.6-8.51-15.6-8.51l-.05,0-.8.35c-.49,7.14-1.17,25.23,2.48,38.59q-.41,8.68-.68,15c-.08,1.9-.15,3.65-.23,5.23-.36,8.29-.54,12.31-.54,12.31S98.84,460.93,98.92,466h0A5,5,0,0,0,99,467c1.09,4.39.88,6.15.88,6.15l-3.74,9.63v6s-4.38,11.91,3.26,13.11H292.05c-20-9.3-52.94-26.63-79.36-46.34C208.39,452.35,204.27,449.07,200.4,445.76ZM99,491.85a4.16,4.16,0,0,1-.29-1.34,4.16,4.16,0,0,0,.29,1.34,6.89,6.89,0,0,0,.78,1.38A6.63,6.63,0,0,1,99,491.85Zm8.61,9.4.7.6Z" />
      <path class="GUNDAN_OTTER_OUTFIT_GUNDAN_OTTER_OUTFIT_5_cls-6" d="M355.78,356.59c.82-5,1.76-9.36,2.58-14.38-5.44-2.75-11.07-5.34-16.53-8.08l-.42.3a25.9,25.9,0,0,0-4.43-6.34,3.83,3.83,0,0,0-3.62-1.32c-.86-3.51,1.4-9.2.55-12.72-1.31.94-2.81,2.17-4.12,3.12-.28-2-.55-3.64-.82-5.65-1.88.74-3.92-.47-5.47-1.73-4-3.29-3.89-10.73-6.12-15.39q-3.72,2.64-7.43,5.25l4.43,1.76c-2.94,29.44-21,63.81-38.86,87.44a160.36,160.36,0,0,1-20.13,22,164.22,164.22,0,0,1-18.09,14.3C191.45,395,143.86,351.28,122.14,301c-.71.42-1.4.89-2.1,1.35l-1.27,1.13c3.33,3.78,6.39,10.38,7.25,17.76.75,6.5-.72,20.72-3.09,32.17,0,0,8.88,8,8.88,11.76,0,0,7.1-.35,6.51,7.17.66,1,33,32.47,77.44,65.26q7.34,5.41,15.5,10.82c43.35,28.63,69.41,38.9,79.85,44.39a24.63,24.63,0,0,0-2.32-10.34s.06,0,.07-.05c.22-3.6,2-6.53,3.77-9.67-1.54-4.54-3.5-8.82-3-13.59s3.39-9.23,7.08-12.38c0-.22,0-.43,0-.63-1-2.45-2-4.58-3-7.06.36-.77.71-1.52,1.06-2.29.88-1.94,1.73-3.9,2.53-5.87,2.13-5.18,4-10.47,5.64-15.81,0,0,0,0,0,0l3.12-3.16c5.45-5.56,10.83-11.18,16.07-16.91q5.18-5.67,10.17-11.52t9.52-11.66c1.73-2.22,3.45-4.48,5.12-6.77C363.16,362.14,359.51,359.55,355.78,356.59Z" />
      <path class="GUNDAN_OTTER_OUTFIT_GUNDAN_OTTER_OUTFIT_5_cls-2" d="M310,299.65,305.78,298c-11.76,35.91-37.54,75.46-62.56,103.88q-7.87-5.92-15.61-12.1-7.38-5.91-14.59-12h0q-2-1.69-4-3.43c-11.26-9.66-33.07-19.66-43.7-30-14.44-14.06-25.4-29.52-31.15-48.82-2.9,2-9.11,3.61-12,5.47,21.72,50.28,69.31,94,115.16,124.18a164.22,164.22,0,0,0,18.09-14.3,160.36,160.36,0,0,0,20.13-22c17.88-23.63,35.92-58,38.86-87.44Z" />
      <path class="GUNDAN_OTTER_OUTFIT_GUNDAN_OTTER_OUTFIT_5_cls-7" d="M134.13,295.53c5.75,19.3,16.71,34.76,31.15,48.82,10.63,10.36,32.44,20.36,43.7,30,0,0,.42-11.34,11.13-11.16C182.91,338.68,134.13,295.53,134.13,295.53Z" />
      <path class="GUNDAN_OTTER_OUTFIT_GUNDAN_OTTER_OUTFIT_5_cls-7" d="M293.61,289.86C282.25,318.5,261,351.42,241.07,375A134.6,134.6,0,0,1,224.5,366C212.37,364.87,213,377.8,213,377.8h0q7.22,6.07,14.59,12,7.72,6.16,15.61,12.1c25-28.42,50.8-68,62.56-103.88.21-.64.43-1.27.63-1.91A57.7,57.7,0,0,1,293.61,289.86Z" />
      <path class="GUNDAN_OTTER_OUTFIT_GUNDAN_OTTER_OUTFIT_5_cls-8" d="M293.61,289.86C282.25,318.5,261,351.42,241.07,375q-6.47,7.65-13.46,14.82" />
      <path class="GUNDAN_OTTER_OUTFIT_GUNDAN_OTTER_OUTFIT_5_cls-8" d="M293.61,289.86a57.7,57.7,0,0,0,12.8,6.24c-.2.64-.42,1.27-.63,1.91-11.76,35.91-37.54,75.46-62.56,103.88" />
      <path class="GUNDAN_OTTER_OUTFIT_GUNDAN_OTTER_OUTFIT_5_cls-8" d="M213,377.8q-2-1.69-4-3.43c-11.26-9.66-33.07-19.66-43.7-30-14.44-14.06-25.4-29.52-31.15-48.82-2.9,2-9.11,3.61-12,5.47-.71.42-1.4.89-2.1,1.35l-1.27,1.13" />
      <path class="GUNDAN_OTTER_OUTFIT_GUNDAN_OTTER_OUTFIT_5_cls-8" d="M255.39,410.88q-6.13-4.42-12.17-9-7.87-5.92-15.61-12.1-7.38-5.91-14.59-12" />
      <path class="GUNDAN_OTTER_OUTFIT_GUNDAN_OTTER_OUTFIT_5_cls-8" d="M122.14,301c21.72,50.28,69.31,94,115.16,124.18" />
      <path class="GUNDAN_OTTER_OUTFIT_GUNDAN_OTTER_OUTFIT_5_cls-8" d="M305.78,298l4.17,1.64,4.43,1.76c-2.94,29.44-21,63.81-38.86,87.44a160.36,160.36,0,0,1-20.13,22,164.4,164.4,0,0,1-39.63,26.72" />
      <path class="GUNDAN_OTTER_OUTFIT_GUNDAN_OTTER_OUTFIT_5_cls-8" d="M322.89,415.1l3.12-3.16c5.45-5.56,10.83-11.18,16.07-16.91q5.18-5.67,10.17-11.52t9.52-11.66c1.73-2.22,3.45-4.48,5.12-6.77-3.73-2.94-7.38-5.53-11.11-8.49.82-5,1.76-9.36,2.58-14.38-5.44-2.75-11.07-5.34-16.53-8.08l-.42.3a25.9,25.9,0,0,0-4.43-6.34,3.83,3.83,0,0,0-3.62-1.32c-.86-3.51,1.4-9.2.55-12.72-1.31.94-2.81,2.17-4.12,3.12-.28-2-.55-3.64-.82-5.65-1.88.74-3.92-.47-5.47-1.73-4-3.29-3.89-10.73-6.12-15.39q-3.72,2.64-7.43,5.25" />
      <path class="GUNDAN_OTTER_OUTFIT_GUNDAN_OTTER_OUTFIT_5_cls-8" d="M322.37,415.62l.51-.5" />
      <path class="GUNDAN_OTTER_OUTFIT_GUNDAN_OTTER_OUTFIT_5_cls-8" d="M308.79,482.47s.06,0,.07-.05c.22-3.6,2-6.53,3.77-9.67-1.54-4.54-3.5-8.82-3-13.59s3.39-9.23,7.08-12.38l.18-.15c-.06-.17-.14-.33-.2-.48-1-2.45-2-4.58-3-7.06.36-.77.71-1.52,1.06-2.29.88-1.94,1.73-3.9,2.53-5.87,2.13-5.18,4-10.47,5.64-15.81,0,0,0,0,0,0a178.44,178.44,0,0,0,7.61-45.85" />
      <path class="GUNDAN_OTTER_OUTFIT_GUNDAN_OTTER_OUTFIT_5_cls-8" d="M372.45,413.64q-1.54-3.61-2.87-7.31a141.1,141.1,0,0,1-7.81-34.48" />
      <path class="GUNDAN_OTTER_OUTFIT_GUNDAN_OTTER_OUTFIT_5_cls-8" d="M369.58,406.33a22.14,22.14,0,0,1,7.61,5.3c.18,2.63.54,4.88.72,7.52,0,0,2.29,4.27.64,7.35" />
      <path class="GUNDAN_OTTER_OUTFIT_GUNDAN_OTTER_OUTFIT_5_cls-8" d="M314.71,436.8c.45.34,1,.74,1.68,1.18a41.94,41.94,0,0,0,34.37,5.62c22.32-6,27.79-17.1,27.79-17.1s-.31,17.72-.3,31.79c0,4.73,0,9,.12,12.13.05,1.46.11,2.65.18,3.48.71,7.86,1.88,17.21,1.88,17.21s2.05,8.12,1.17,10.78" />
      <path class="GUNDAN_OTTER_OUTFIT_GUNDAN_OTTER_OUTFIT_5_cls-8" d="M317.24,430.93a47.51,47.51,0,0,0,9.34,4.22,48.6,48.6,0,0,0,19.29,2.61c5.6-.51,11.48-3.23,16.68-6.47a94.21,94.21,0,0,0,15.36-12.14" />
      <path class="GUNDAN_OTTER_OUTFIT_GUNDAN_OTTER_OUTFIT_5_cls-8" d="M241.07,375A134.6,134.6,0,0,1,224.5,366c-1.45-.91-2.92-1.85-4.39-2.82-37.2-24.53-86-67.68-86-67.68" />
      <path class="GUNDAN_OTTER_OUTFIT_GUNDAN_OTTER_OUTFIT_5_cls-8" d="M57.8,379.62a5.24,5.24,0,0,1-1.71-3.56c.33-6.47,4.85-7.79,4.85-7.79s-.19-1.4-.35-3.29a41.2,41.2,0,0,1-.13-6.75c0-.3,0-.59.09-.85.17-1.07.44-1.86.91-2.15a.92.92,0,0,1,1,0c17,9.26,28.13-14.09,30.87-28s-11-15.38-11-15.38c8.66-9.8,26.68-9.18,26.68-9.18s1.21-3.84,5.74-2.31a10.22,10.22,0,0,1,4.09,3.09c3.33,3.78,6.39,10.38,7.25,17.76.75,6.5-.72,20.72-3.09,32.17,0,0-.6-5.89-6.24-5.56" />
      <path class="GUNDAN_OTTER_OUTFIT_GUNDAN_OTTER_OUTFIT_5_cls-8" d="M98,373.87c.9,4.57,4.54,4.44,6.23,4.13a7.81,7.81,0,0,0,.8-.2l-.8.35c-2.47,1-4.24,1.53-4.24,1.53s-2,1.84-4.75,4.05c-3.66,3-8.59,6.65-11.44,7.36a10.84,10.84,0,0,1-4.27-.34,60.44,60.44,0,0,1-12.68-4.85c-3.74-1.92-7.13-4.13-9.09-6.27" />
      <path class="GUNDAN_OTTER_OUTFIT_GUNDAN_OTTER_OUTFIT_5_cls-8" d="M98,373.87c-8,10.89-20.11,10.3-25.31,8.11s-11.79-13.71-11.79-13.71" />
      <path class="GUNDAN_OTTER_OUTFIT_GUNDAN_OTTER_OUTFIT_5_cls-8" d="M108.94,302.7c9.29,4.5,11.21,22.4,10.74,27.37-.29,3.18-1.45,10.62-3,17.78h0" />
      <path class="GUNDAN_OTTER_OUTFIT_GUNDAN_OTTER_OUTFIT_5_cls-8" d="M103.22,370.71A49,49,0,0,1,98,373.87a16.64,16.64,0,0,1-5.83-17.22C95,345.57,103.06,340.29,108.67,343a36,36,0,0,1,8,4.86c-.4,1.89-.83,3.74-1.29,5.5-.51,2.06-1.07,4-1.63,5.62C112.11,363.78,107.14,368,103.22,370.71Z" />
      <path class="GUNDAN_OTTER_OUTFIT_GUNDAN_OTTER_OUTFIT_5_cls-8" d="M131.81,365.17c0,3.59-3.9,18.26-10.06,20.81a4.08,4.08,0,0,1-1,.31c-6.75,1.24-15.6-8.51-15.6-8.51,4.25-1.8,10-4.85,12.86-9,1.77-2.59,3.53-8.49,5-15.41C122.93,353.41,131.81,361.37,131.81,365.17Z" />
      <path class="GUNDAN_OTTER_OUTFIT_GUNDAN_OTTER_OUTFIT_5_cls-8" d="M115.39,353.35s-8.15-9.31-14.7-3.11-2.93,16.86,2.53,20.47" />
      <path class="GUNDAN_OTTER_OUTFIT_GUNDAN_OTTER_OUTFIT_5_cls-8" d="M68.21,319.51a19,19,0,0,1,10.4-7.07,15.73,15.73,0,0,1,3.65-.56" />
      <path class="GUNDAN_OTTER_OUTFIT_GUNDAN_OTTER_OUTFIT_5_cls-8" d="M61.46,355.23A33.07,33.07,0,0,1,60,350a27.86,27.86,0,0,1,2.69-18.86c-2.09-1.87-.44-4.6,2-4.82a24.38,24.38,0,0,1,3.49-6.75" />
      <path class="GUNDAN_OTTER_OUTFIT_GUNDAN_OTTER_OUTFIT_5_cls-8" d="M64.69,326.28s.75.49,1.91,1.22c2.46,1.49,6.76,4,9.75,4.92.36.11.67.23,1,.35a5.57,5.57,0,0,1,2.29,1.54,1.51,1.51,0,0,1-.84,2.6c-1.1.3-4.44-.58-8-1.91-1.46-.55-3-1.18-4.33-1.83a33,33,0,0,1-3.78-2.07" />
      <path class="GUNDAN_OTTER_OUTFIT_GUNDAN_OTTER_OUTFIT_5_cls-8" d="M66.6,327.5c1.37-2.25,5-7.29,8.76-6,4.26,1.44,3.67,7.52,2,11.27" />
      <path class="GUNDAN_OTTER_OUTFIT_GUNDAN_OTTER_OUTFIT_5_cls-8" d="M68.18,319.53l0,0c.48-.33,6.22-4,11.4-.25,5.39,3.95,0,15.05,0,15.05" />
      <path class="GUNDAN_OTTER_OUTFIT_GUNDAN_OTTER_OUTFIT_5_cls-8" d="M66.47,333.17C65.06,337,61.61,346.79,62.69,349c1.37,2.79,3-.95,4.38-5.41A57.34,57.34,0,0,1,70.8,335" />
      <path class="GUNDAN_OTTER_OUTFIT_GUNDAN_OTTER_OUTFIT_5_cls-8" d="M78.61,312.44s11.73,4.26,9.2,15.74S73.58,360.39,60,350" />
      <path class="GUNDAN_OTTER_OUTFIT_GUNDAN_OTTER_OUTFIT_5_cls-8" d="M104.27,378v.15c-.49,7.14-1.17,25.23,2.48,38.59q-.41,8.68-.68,15c-.08,1.9-.15,3.65-.23,5.23-.36,8.29-.54,12.31-.54,12.31S98.84,460.93,98.92,466" />
      <path class="GUNDAN_OTTER_OUTFIT_GUNDAN_OTTER_OUTFIT_5_cls-8" d="M48.28,414.21c.94-1.09,2.09-4.21,3.26-8.18.32-1.07.63-2.18,1-3.34.74-2.77,1.48-5.74,2.16-8.6,1.74-7.43,3.08-14.11,3.15-14.46h0" />
      <path class="GUNDAN_OTTER_OUTFIT_GUNDAN_OTTER_OUTFIT_5_cls-8" d="M51.54,406c-2.61,1-6.64,2.88-7,4.78C44,413.67,44,421.67,44,421.67s-1.5,1.39,0,4.6c-2.83,8.27-7.45,24.2-11.4,39.83-.62,2.41-1.21,4.82-1.78,7.18-2.8,11.51-5,22.15-5.65,28.61H381.6" />
      <path class="GUNDAN_OTTER_OUTFIT_GUNDAN_OTTER_OUTFIT_5_cls-8" d="M75.88,422c5.78-3.19,13-8.75,18.36-13.11,3.05-2.51,5.47-4.62,6.6-5.66" />
      <path class="GUNDAN_OTTER_OUTFIT_GUNDAN_OTTER_OUTFIT_5_cls-8" d="M61.38,419.48s3.31,8,12.44,3.62c.66-.32,1.35-.68,2.06-1.07" />
      <path class="GUNDAN_OTTER_OUTFIT_GUNDAN_OTTER_OUTFIT_5_cls-8" d="M57.64,433a36.16,36.16,0,0,0,15.3,4.8l1.07.07a76.66,76.66,0,0,0,18.61-1.12c6.23-1.22,10.71-3.15,13.45-5" />
      <path class="GUNDAN_OTTER_OUTFIT_GUNDAN_OTTER_OUTFIT_5_cls-8" d="M44,421.67A51.67,51.67,0,0,0,57.64,433" />
      <path class="GUNDAN_OTTER_OUTFIT_GUNDAN_OTTER_OUTFIT_5_cls-8" d="M106.07,436.91l-.23.08c-1.11.4-2.83,1-5,1.68-7.42,2.29-20.13,5.27-32.2,2.85A43.48,43.48,0,0,1,44,426.27" />
      <path class="GUNDAN_OTTER_OUTFIT_GUNDAN_OTTER_OUTFIT_5_cls-8" d="M135.41,381.25a25.34,25.34,0,0,0,2.91-8.91c.59-7.52-6.51-7.17-6.51-7.17" />
      <path class="GUNDAN_OTTER_OUTFIT_GUNDAN_OTTER_OUTFIT_5_cls-8" d="M121.75,386s2.79,6.07,7.78,3.94a7.81,7.81,0,0,0,1.28-.7" />
      <path class="GUNDAN_OTTER_OUTFIT_GUNDAN_OTTER_OUTFIT_5_cls-8" d="M138.32,372.34c.66,1,33,32.47,77.44,65.26q7.34,5.41,15.5,10.82c43.35,28.63,69.41,38.9,79.85,44.39,3,1.58,4.7,2.76,5.16,3.86a9,9,0,0,1,.34,5.22" />
      <path class="GUNDAN_OTTER_OUTFIT_GUNDAN_OTTER_OUTFIT_5_cls-8" d="M292.05,501.89c-20-9.3-52.94-26.63-79.36-46.34-4.3-3.2-8.42-6.48-12.29-9.79-.26-.21-.52-.44-.78-.66-39-33.74-66.85-50.54-70.09-55.18" />
      <path class="GUNDAN_OTTER_OUTFIT_GUNDAN_OTTER_OUTFIT_5_cls-8" d="M66.89,385.9c-1.23,6-4.35,21.27-6.7,33.37C59.08,425,58.13,430,57.64,433v0" />
      <path class="GUNDAN_OTTER_OUTFIT_GUNDAN_OTTER_OUTFIT_5_cls-8" d="M79.57,390.75c-.75,6.27-2.35,19.87-3.69,31.27h0c-.79,6.68-1.49,12.59-1.87,15.83" />
      <path class="GUNDAN_OTTER_OUTFIT_GUNDAN_OTTER_OUTFIT_5_cls-8" d="M95.28,383.73c-.2,5.1-.58,15-1,25.18-.51,11.08-1.1,22.38-1.62,27.83" />
      <path class="GUNDAN_OTTER_OUTFIT_GUNDAN_OTTER_OUTFIT_5_cls-8" d="M60.45,358.22h0c.47.37,13.1,9.95,26.51-4.83" />
      <path class="GUNDAN_OTTER_OUTFIT_GUNDAN_OTTER_OUTFIT_5_cls-8" d="M224.5,366C212.37,364.87,213,377.8,213,377.8h0" />
      <path class="GUNDAN_OTTER_OUTFIT_GUNDAN_OTTER_OUTFIT_5_cls-8" d="M209,374.37s.42-11.34,11.13-11.16" />
      <path class="GUNDAN_OTTER_OUTFIT_GUNDAN_OTTER_OUTFIT_5_cls-8" d="M231.26,448.42s26.28-4.16,44.56-16.44,41.18-45.55,33.91-41.63-25.77,26.29-37,32.42" />
      <path class="GUNDAN_OTTER_OUTFIT_GUNDAN_OTTER_OUTFIT_5_cls-8" d="M333.36,326.77s-2.81,27.12-2.86,35.48" />
      <path class="GUNDAN_OTTER_OUTFIT_GUNDAN_OTTER_OUTFIT_5_cls-8" d="M329.79,317.17s-5.53,23.8-9,33.88" />
      <path class="GUNDAN_OTTER_OUTFIT_GUNDAN_OTTER_OUTFIT_5_cls-8" d="M317.38,294.4s-5.54,26.11-6.26,40.94S306,359.41,306,359.41" />
      <path class="GUNDAN_OTTER_OUTFIT_GUNDAN_OTTER_OUTFIT_5_cls-8" d="M355.78,356.59s-7.65,18.22-12.5,26.38" />
      <line class="GUNDAN_OTTER_OUTFIT_GUNDAN_OTTER_OUTFIT_5_cls-8" x1="352.25" y1="383.51" x2="362.37" y2="431" />
      <line class="GUNDAN_OTTER_OUTFIT_GUNDAN_OTTER_OUTFIT_5_cls-8" x1="342.08" y1="395.03" x2="345.87" y2="437.76" />
      <line class="GUNDAN_OTTER_OUTFIT_GUNDAN_OTTER_OUTFIT_5_cls-8" x1="326.01" y1="411.94" x2="326.58" y2="435.15" />
      <path class="GUNDAN_OTTER_OUTFIT_GUNDAN_OTTER_OUTFIT_5_cls-8" d="M50.41,367.72a8.18,8.18,0,0,1,2.22-1.78,9.44,9.44,0,0,1,2.89-1,14.84,14.84,0,0,1,5.07.06" />
      <path class="GUNDAN_OTTER_OUTFIT_GUNDAN_OTTER_OUTFIT_5_cls-8" d="M50.89,389.05A26,26,0,0,1,48,382.72a17.16,17.16,0,0,1-.45-8.85,4.2,4.2,0,0,1,.14-.59,13.11,13.11,0,0,1,2.77-5.55" />
      <path class="GUNDAN_OTTER_OUTFIT_GUNDAN_OTTER_OUTFIT_5_cls-8" d="M54.65,394.09a37.51,37.51,0,0,1-3.75-5" />
      <path class="GUNDAN_OTTER_OUTFIT_GUNDAN_OTTER_OUTFIT_5_cls-8" d="M52.49,402.69a47.46,47.46,0,0,1-6.56-7.44,37.87,37.87,0,0,1-4.36-7.84,26.22,26.22,0,0,1-1.94-12.24,25.13,25.13,0,0,1,.7-3.81,21.89,21.89,0,0,1,3.27-7.22A16.07,16.07,0,0,1,49,359.31a16.54,16.54,0,0,1,4.83-1.73,21.14,21.14,0,0,1,6.7-.2" />
      <path class="GUNDAN_OTTER_OUTFIT_GUNDAN_OTTER_OUTFIT_5_cls-8" d="M53.85,357.58s3.64,1.63,1.67,7.34h0" />
      <path class="GUNDAN_OTTER_OUTFIT_GUNDAN_OTTER_OUTFIT_5_cls-8" d="M43.6,364.14s5-2.62,6.81,3.58h0" />
      <path class="GUNDAN_OTTER_OUTFIT_GUNDAN_OTTER_OUTFIT_5_cls-8" d="M39.65,375.17s3.9-4.23,7.85-1.3" />
      <path class="GUNDAN_OTTER_OUTFIT_GUNDAN_OTTER_OUTFIT_5_cls-8" d="M41.57,387.41S42.92,381,48,382.72" />
      <path class="GUNDAN_OTTER_OUTFIT_GUNDAN_OTTER_OUTFIT_5_cls-8" d="M45.93,395.28v0c0-.47-.13-6.27,5-6.2h0" />
      <ellipse class="GUNDAN_OTTER_OUTFIT_GUNDAN_OTTER_OUTFIT_5_cls-8" cx="127.11" cy="364.66" rx="2.42" ry="2.41" />
      <ellipse class="GUNDAN_OTTER_OUTFIT_GUNDAN_OTTER_OUTFIT_5_cls-8" cx="119.1" cy="378.84" rx="2.42" ry="2.41" />
      <g class="GUNDAN_OTTER_OUTFIT_GUNDAN_OTTER_OUTFIT_5_cls-9">
        <path d="M118.94,303.34c.26-.23,6-4.07,6-4.07s30.19,40,66.16,74.16,57.64,43.24,57.64,43.24l-13.31,9.8s-40-8.62-65.34-37.42c9.87,16.38,43.62,36.13,43.62,36.13s-40.65-22.11-58.26-41l-17.62-18.93,13.84,23.83-13.08-16.38s.18-5.53-3.13-6.67l-3.3-1.14s-3.78-6.95-8.8-11.1c1.75-13.17,4-28.92,1.86-37.15A38.26,38.26,0,0,0,118.94,303.34Z" />
        <path d="M115.78,351.82s-1.76,11.24-7.94,15.25-9.8,6.8-9.8,6.8-7.43,8.26-14.6,8.87-12.17.87-17.16-7c-4.77.79-1.24,9.14-1.24,9.14s6.7,11.77,9,22.71,2.78,14.05,2.78,14.05l11.57-8.11S82.28,427.15,77.88,432s-5.68,5.7-5.68,5.7,18.14,2.79,33.86-5.7l.68-15s-3-15.35-2.95-23.68.52-15.06.52-15.06h1.31s13.77,15.65,21.49,1.9A8.5,8.5,0,0,0,136,380L131.81,386l6-4.73v-8s-5,.64-8-1.55c-9.25-3.22-10.11-6.49-10.11-6.49S124.39,351.64,115.78,351.82Z" />
        <path d="M129.28,390c.25-.1,6.19-2.69,9.07-7.49l-1.16,6.67s64.14,54.1,113.91,81.22S310,501.55,310,501.55l-17.9.34s-47.26-20.32-86.75-52.54S129.28,390,129.28,390Z" />
        <path d="M231.87,448.42c1.49-.38,31.15-6,49.38-20.56s31.88-32.65,31.88-33.52.56,9.26-4.34,16.54S283,440.63,268.32,446.44,248.26,454,248.26,454l-3.79,3Z" />
        <path d="M323.5,309.79s-1,11.43-5.85,31.49-14.18,40.47-14.18,40.47,10.46-19.32,16.17-35.86a262.23,262.23,0,0,1,10.15-25.71v-3.69l-.77-4.62S325.12,312.15,323.5,309.79Z" />
        <path d="M315.71,295.59s-3,14.61-3.35,24.26-17.51,71.25-31.16,83.39c18.2-24.56,27.13-52.85,30.19-65.35,3.17-19.74,8.71-31.26,8.71-31.26l-2.47-12.23Z" />
        <path d="M310.62,299.92s-25.79,55-26.78,57.26-35.58,47.7-35.58,47.7l7.13,6s24.54-21.94,37.95-51.47a423.7,423.7,0,0,0,21-58Z" />
        <path d="M302.73,294.59s-15,34-27.26,54.37c8.92-21.49,15-33.28,15-33.28s-22.17,35.22-31.86,50.15-24.89,28.79-24.89,28.79l8.81,7.27s26-29.52,41.7-61.18c13.36-29.14,22.16-44.61,22.16-44.61Z" />
        <path d="M337.14,400.36s3.5,18.69,4.94,24.82,2.51,12.67,2.51,12.67V409.27L351,436.73s3,.72,1.64,6.75a191.77,191.77,0,0,0,5.21,25.86s3.21,2.88.65,8.74c2,16.61,2.62,23.81,2.18,23.81H317.53l-1.14-62.8-1.68-2.29L324,414a83.62,83.62,0,0,0,13.51-32.37,138.16,138.16,0,0,1,12.06-35.27s-8.32,29.33-9.75,39.53A122.23,122.23,0,0,1,337.14,400.36Z" />
        <path d="M89.8,338.62s5.66,5.71,9.57,6c2.66-2,3.55-1.92,3.55-1.92a19.31,19.31,0,0,0,6,6c1.68,4.12,6.45,8.45,6.45,8.45s-3.57,14.69-17.35,18c-12.82,11-24.08,11.45-29.86,4.45a98.77,98.77,0,0,1-7.24-11l-.57-3.86s-9.62-2.48-12.61,8.11,6.89,21.25,6.89,21.25L53,400.59s-10.83-11.68-9.44-25.72,16.77-15.46,16.77-15.46.11-3.8.92-4.57l-1.47-4.45s8.81,1.46,17.62-9.14S85.2,318.7,83.27,316c4,6.8,5.89,17.77-.16,27.36C85.37,343,89.8,338.62,89.8,338.62Z" />
        <path d="M96.56,304.11s-7.93,5.78-7.39,10.49a19,19,0,0,0-7.51-2.69S88.3,305.39,96.56,304.11Z" />
      </g>
    </g>
  </g>
</svg>