<svg xmlns="http://www.w3.org/2000/svg" viewBox="0 0 432 432">
  <defs>
    <style>.GUNDAN_OTTER_OUTFIT_GUNDAN_OTTER_OUTFIT_30_cls-1{isolation:isolate;}.GUNDAN_OTTER_OUTFIT_GUNDAN_OTTER_OUTFIT_30_cls-2{fill:#503213;}.GUNDAN_OTTER_OUTFIT_GUNDAN_OTTER_OUTFIT_30_cls-3{fill:#5b0f15;}.GUNDAN_OTTER_OUTFIT_GUNDAN_OTTER_OUTFIT_30_cls-4{fill:#67461e;}.GUNDAN_OTTER_OUTFIT_GUNDAN_OTTER_OUTFIT_30_cls-5{fill:#1a171a;}.GUNDAN_OTTER_OUTFIT_GUNDAN_OTTER_OUTFIT_30_cls-6{opacity:0.3;mix-blend-mode:multiply;}.GUNDAN_OTTER_OUTFIT_GUNDAN_OTTER_OUTFIT_30_cls-7{fill:#191e1d;}.GUNDAN_OTTER_OUTFIT_GUNDAN_OTTER_OUTFIT_30_cls-11,.GUNDAN_OTTER_OUTFIT_GUNDAN_OTTER_OUTFIT_30_cls-8,.GUNDAN_OTTER_OUTFIT_GUNDAN_OTTER_OUTFIT_30_cls-9{fill:none;stroke:#000;stroke-linecap:round;stroke-linejoin:round;}.GUNDAN_OTTER_OUTFIT_GUNDAN_OTTER_OUTFIT_30_cls-8{stroke-width:1.64px;}.GUNDAN_OTTER_OUTFIT_GUNDAN_OTTER_OUTFIT_30_cls-9{stroke-width:1.6px;}.GUNDAN_OTTER_OUTFIT_GUNDAN_OTTER_OUTFIT_30_cls-10{fill:#775223;}.GUNDAN_OTTER_OUTFIT_GUNDAN_OTTER_OUTFIT_30_cls-11{stroke-width:1.7px;}</style>
  </defs>
  <g class="GUNDAN_OTTER_OUTFIT_GUNDAN_OTTER_OUTFIT_30_cls-1">
    <g id="outfit">
      <path class="GUNDAN_OTTER_OUTFIT_GUNDAN_OTTER_OUTFIT_30_cls-2" d="M375.53,425.33V438H372l-5.29,0-1.51-2c-13.49-12.12-26-27.79-31.44-42.09a156,156,0,0,1-5.41-17.32c-.8-3.25-1.44-6.25-1.95-8.9-.89-4.75-.38-8.4-.6-10.42a58.36,58.36,0,0,0,14.39,1.59c.31,1.89.7,4,1.19,6.37.09.46.19.92.29,1.4,3.44,15.5,14.27,38.83,32.06,56.91C374.33,424.16,374.92,424.74,375.53,425.33Z" />
      <path class="GUNDAN_OTTER_OUTFIT_GUNDAN_OTTER_OUTFIT_30_cls-3" d="M340.2,358.87a58.36,58.36,0,0,1-14.39-1.59,79.36,79.36,0,0,1-21.41-8.51s-2.47-33.18-6.37-46.69c24-1.62,35.34,5.94,51.12,11.08s42.07,12,46,17.17.17,9.46-5.91,12c-5.65,2.39-16.41,21.7-41.84,22.93a55.29,55.29,0,0,1-6-.05C340.9,362.9,340.51,360.76,340.2,358.87Z" />
      <path class="GUNDAN_OTTER_OUTFIT_GUNDAN_OTTER_OUTFIT_30_cls-4" d="M352.63,357.2s23.82,21.47,21.11,66.35c-17.79-18.08-28.62-41.41-32.06-56.91-.1-.48-.2-.94-.29-1.4,2.09.13-2.81-6-.89-6.11Z" />
      <path class="GUNDAN_OTTER_OUTFIT_GUNDAN_OTTER_OUTFIT_30_cls-4" d="M246.91,437.24v.3l-15.69-.06c-1.12-2.34-7.06-12-30.86-19.73-34.69-11.34-72.14-8.42-84.2-38.21a124.61,124.61,0,0,0,1.55-14.1c1.13-.16,2.23-.35,3.3-.55l.06.35c11.87,30.24,49.43,27.55,84.39,38.64C236.23,413.63,246.91,437.24,246.91,437.24Z" />
      <path class="GUNDAN_OTTER_OUTFIT_GUNDAN_OTTER_OUTFIT_30_cls-3" d="M80.82,361.45h0c-1.43,2-2.78,4-4,6.13-12.3-6.27-22.47-17.45-35.41-26.33a3.34,3.34,0,0,1,.14-5.55c17.13-10.55,40.91-11.47,52.94-18.43,14.67-8.46,20.84-15.68,36.07-21.86,8.32,4.7,23.88,14.43,30,47.05-4.69,6.3-14.37,16.08-33.38,21-2,.51-4,1-6.14,1.37-1.07.2-2.17.39-3.3.55a107.87,107.87,0,0,1-11,1.07c-1.11.06-2.22.08-3.29.06A56.92,56.92,0,0,1,80.82,361.45Z" />
      <path class="GUNDAN_OTTER_OUTFIT_GUNDAN_OTTER_OUTFIT_30_cls-5" d="M366.72,438l-20.93-.06-31.09-.12-43.31-.18c.94-2.07-.27-11.93,24.06-19.89,0,0,15-5.29,24-9.94,5.23-2.71,9-5.69,11.63-9.09a21.66,21.66,0,0,0,2.73-4.8c.79,2.11,1.67,4.25,2.61,6.41q1.08,2.48,2.3,4.95c.14.3.3.62.45.92.55,1.1,1.66,1.27,2.26,2.38,0,0,1.86.4.5.77,1.56,2.89,3.85,5.11,5.73,7.93,0,0,.41.11.43.15,4.19,6.32,11.2,13.23,17.16,18.58Z" />
      <path class="GUNDAN_OTTER_OUTFIT_GUNDAN_OTTER_OUTFIT_30_cls-6" d="M345.79,437.94l-31.09-.12S331.56,431,331,398.76c0,0,0,0,0,0a4.43,4.43,0,0,1,1.5-2.28c1.23-.7,2.47,1.15,3.84,3.89.73,1.48,1.49,3.22,2.3,4.95.14.3.3.62.45.92.54,1.15,1.11,2.29,1.72,3.32,0,0,2.1.73,2.12.76a66.81,66.81,0,0,0,4.22,6.74.47.47,0,0,0,.06.09S343.51,428.74,345.79,437.94Z" />
      <path class="GUNDAN_OTTER_OUTFIT_GUNDAN_OTTER_OUTFIT_30_cls-4" d="M328.36,376.6a156,156,0,0,0,5.41,17.32c-2.18,5.51-6.79,10-14.36,13.89-9,4.65-24,9.94-24,9.94-24.33,8-23.12,17.82-24.06,19.89l-15.61-.07v-.33s3.81-23.61,34.58-33.36c1.29-.42,2.6-.8,3.89-1.18,0,0,12.58-3.69,20.73-9.08C321.57,389.26,326.07,384.21,328.36,376.6Z" />
      <path class="GUNDAN_OTTER_OUTFIT_GUNDAN_OTTER_OUTFIT_30_cls-7" d="M239.09,321.24c21.36-14.31,33.73-23.85,51-46.3l3.59,13.5h0c-15.18,18.82-25.56,26.19-43.8,39q-4.66,3.3-9.37,6.33c-43,27.93-86.07,40.93-99.81,44.61a38.51,38.51,0,0,1-9.76-8.87s48.21-11,98.2-41.88C232.47,325.6,235.78,323.48,239.09,321.24Z" />
      <path class="GUNDAN_OTTER_OUTFIT_GUNDAN_OTTER_OUTFIT_30_cls-7" d="M239.09,321.24c-3.31,2.24-6.62,4.36-9.94,6.41-44.72-24-85.59-44.78-92.09-47.91L139,268.51C171.69,282.68,206.09,302.39,239.09,321.24Z" />
      <path class="GUNDAN_OTTER_OUTFIT_GUNDAN_OTTER_OUTFIT_30_cls-5" d="M231.22,437.48l-93.91-.35L108,437l-32.64-.12c14.94-4.53,24.59-15,30.83-26.7,5.61-10.44,8.47-21.82,10-30.62v0l0,0a37.26,37.26,0,0,0,9,13.34c16.68,15.82,46.85,15.57,75.18,24.83C224.16,425.53,230.1,435.14,231.22,437.48Z" />
      <path class="GUNDAN_OTTER_OUTFIT_GUNDAN_OTTER_OUTFIT_30_cls-2" d="M326.41,367.7c.51,2.65,1.15,5.65,1.95,8.9-2.29,7.61-6.79,12.66-13.38,17-8.15,5.39-20.73,9.08-20.73,9.08-1.29.38-2.6.76-3.89,1.18-30.77,9.75-34.58,33.36-34.58,33.36v.33l-8.87,0v-.3s-10.68-23.61-41.45-33.36c-35-11.09-72.52-8.4-84.39-38.64l-.06-.35c2.15-.4,4.19-.86,6.14-1.37a37.42,37.42,0,0,0,3.8,6,38.51,38.51,0,0,0,9.76,8.87c17.3,11.26,43.92,12.07,69.19,20.08,30.77,9.76,41.44,33.37,41.44,33.37s10.68-23.61,41.45-33.37c1.62-.51-3.63-1-2-1.45,0,0,14.95-3.33,25.51-12.1a31,31,0,0,0,7.23-8.33A22.24,22.24,0,0,0,326.41,367.7Z" />
      <path class="GUNDAN_OTTER_OUTFIT_GUNDAN_OTTER_OUTFIT_30_cls-7" d="M323.53,376.6a31,31,0,0,1-7.23,8.33,500.76,500.76,0,0,0-75.78-51.14q4.69-3,9.37-6.33C295.32,353.8,323.53,376.6,323.53,376.6Z" />
      <path class="GUNDAN_OTTER_OUTFIT_GUNDAN_OTTER_OUTFIT_30_cls-2" d="M117.71,365.44a124.61,124.61,0,0,1-1.55,14.1c-2.57,15.32-9.32,38.39-27.36,50.89a47.81,47.81,0,0,1-13.43,6.47l-20.83-.09,1.33-11.5s.5,0,1.39-.06a45.28,45.28,0,0,0,19.47-6.33l.13-.09A48.92,48.92,0,0,0,95,399.12a66.79,66.79,0,0,0,4.39-10.6,84.48,84.48,0,0,0,2.7-11,109.74,109.74,0,0,0,1.4-11h0c1.07,0,2.18,0,3.29-.06A107.87,107.87,0,0,0,117.71,365.44Z" />
      <path class="GUNDAN_OTTER_OUTFIT_GUNDAN_OTTER_OUTFIT_30_cls-4" d="M103.44,366.57h0a109.74,109.74,0,0,1-1.4,11,84.48,84.48,0,0,1-2.7,11A66.79,66.79,0,0,1,95,399.12a48.92,48.92,0,0,1-18.09,19.71l-.13.09a45.28,45.28,0,0,1-19.47,6.33,158.33,158.33,0,0,1,3.62-18.05c2.88-11.35,7.82-26.3,15.89-39.61,1.27-2.09,2.62-4.14,4-6.13h0A56.92,56.92,0,0,0,103.44,366.57Z" />
      <path class="GUNDAN_OTTER_OUTFIT_GUNDAN_OTTER_OUTFIT_30_cls-8" d="M74.19,437.24l1.18-.34c28.35-8.58,37.66-38.71,40.79-57.36a124.61,124.61,0,0,0,1.55-14.1" />
      <path class="GUNDAN_OTTER_OUTFIT_GUNDAN_OTTER_OUTFIT_30_cls-8" d="M372,438l-5.29,0-95.33-.36-15.61-.07-8.87,0-15.69-.06L75.37,436.9l-20.83-.09,1.33-11.5s.5,0,1.39-.06c7.42-.52,42.08-5.8,46.18-58.67" />
      <path class="GUNDAN_OTTER_OUTFIT_GUNDAN_OTTER_OUTFIT_30_cls-8" d="M52.39,339a78.78,78.78,0,0,0,28.43,22.41,56.92,56.92,0,0,0,22.62,5.12c1.07,0,2.18,0,3.29-.06a107.87,107.87,0,0,0,11-1.07c1.13-.16,2.23-.35,3.3-.55,2.15-.4,4.19-.86,6.14-1.37,19-5,28.69-14.75,33.38-21-6.14-32.62-21.7-42.35-30-47.05-15.23,6.18-21.4,13.4-36.07,21.86-12,7-35.81,7.88-52.94,18.43a3.34,3.34,0,0,0-.14,5.55c12.94,8.88,23.11,20.06,35.41,26.33" />
      <path class="GUNDAN_OTTER_OUTFIT_GUNDAN_OTTER_OUTFIT_30_cls-8" d="M116.16,379.54c12.06,29.79,49.51,26.87,84.2,38.21,23.8,7.78,29.74,17.39,30.86,19.73a3.92,3.92,0,0,1,.24.54" />
      <path class="GUNDAN_OTTER_OUTFIT_GUNDAN_OTTER_OUTFIT_30_cls-8" d="M246.91,437.24s-10.68-23.61-41.45-33.36c-35-11.09-72.52-8.4-84.39-38.64" />
      <path class="GUNDAN_OTTER_OUTFIT_GUNDAN_OTTER_OUTFIT_30_cls-8" d="M127.15,363.52a37.42,37.42,0,0,0,3.8,6,38.51,38.51,0,0,0,9.76,8.87c17.3,11.26,43.92,12.07,69.19,20.08,30.77,9.76,41.44,33.37,41.44,33.37" />
      <path class="GUNDAN_OTTER_OUTFIT_GUNDAN_OTTER_OUTFIT_30_cls-8" d="M271.23,438s0-.13.16-.38c.94-2.07-.27-11.93,24.06-19.89,0,0,15-5.29,24-9.94,7.57-3.93,12.18-8.38,14.36-13.89" />
      <path class="GUNDAN_OTTER_OUTFIT_GUNDAN_OTTER_OUTFIT_30_cls-8" d="M328.36,376.6c-2.29,7.61-6.79,12.66-13.38,17-8.15,5.39-20.73,9.08-20.73,9.08-1.29.38-2.6.76-3.89,1.18-30.77,9.75-34.58,33.36-34.58,33.36" />
      <path class="GUNDAN_OTTER_OUTFIT_GUNDAN_OTTER_OUTFIT_30_cls-8" d="M326.41,367.7a22.24,22.24,0,0,1-2.88,8.9,31,31,0,0,1-7.23,8.33c-10.56,8.77-25.51,12.1-25.51,12.1-1.63.45,3.62.94,2,1.45-30.77,9.76-41.45,33.37-41.45,33.37" />
      <path class="GUNDAN_OTTER_OUTFIT_GUNDAN_OTTER_OUTFIT_30_cls-8" d="M340.2,358.87c.31,1.89.7,4,1.19,6.37.09.46.19.92.29,1.4,3.44,15.5,14.27,38.83,32.06,56.91.59.61,1.18,1.19,1.79,1.78" />
      <path class="GUNDAN_OTTER_OUTFIT_GUNDAN_OTTER_OUTFIT_30_cls-8" d="M57.26,425.25s3.89-31.92,19.51-57.66c1.27-2.09,2.62-4.14,4-6.13" />
      <path class="GUNDAN_OTTER_OUTFIT_GUNDAN_OTTER_OUTFIT_30_cls-8" d="M387.76,336.86c-14.08,6.33-19,16.3-35.13,20.34a59.06,59.06,0,0,1-9.68,1.53c-.92.07-1.84.13-2.75.14a58.3,58.3,0,0,1-14.39-1.6,79.7,79.7,0,0,1-21.42-8.5s-2.47-33.19-6.37-46.7c24-1.62,35.35,5.94,51.12,11.09s42.08,12,46,17.17c3.24,4.24,1.28,7.89-2.9,10.48a21.2,21.2,0,0,1-3,1.54c-4.79,2-13.23,16.17-31.13,21.21" />
      <path class="GUNDAN_OTTER_OUTFIT_GUNDAN_OTTER_OUTFIT_30_cls-8" d="M352.63,357.2s24.59,22.25,21.11,66.35" />
      <path class="GUNDAN_OTTER_OUTFIT_GUNDAN_OTTER_OUTFIT_30_cls-8" d="M325.81,357.28c.22,2-.29,5.67.6,10.42.51,2.65,1.15,5.65,1.95,8.9a156,156,0,0,0,5.41,17.32c5.42,14.3,18,30,31.44,42.09l1.51,2,0,0h8.79V425.33" />
      <path class="GUNDAN_OTTER_OUTFIT_GUNDAN_OTTER_OUTFIT_30_cls-8" d="M131,369.53s48.21-11,98.2-41.88c3.32-2,6.63-4.17,9.94-6.41,21.36-14.31,33.73-23.85,51-46.3l3.59,13.5" />
      <path class="GUNDAN_OTTER_OUTFIT_GUNDAN_OTTER_OUTFIT_30_cls-8" d="M140.71,378.4c13.74-3.68,56.81-16.68,99.81-44.61q4.69-3,9.37-6.33c18.24-12.82,28.62-20.19,43.8-39h0" />
      <path class="GUNDAN_OTTER_OUTFIT_GUNDAN_OTTER_OUTFIT_30_cls-8" d="M316.3,384.93a500.76,500.76,0,0,0-75.78-51.14" />
      <path class="GUNDAN_OTTER_OUTFIT_GUNDAN_OTTER_OUTFIT_30_cls-8" d="M137.06,279.74c6.5,3.13,47.37,23.94,92.09,47.91" />
      <path class="GUNDAN_OTTER_OUTFIT_GUNDAN_OTTER_OUTFIT_30_cls-8" d="M137.06,279.74,139,268.51c32.74,14.17,67.14,33.88,100.14,52.73" />
      <path class="GUNDAN_OTTER_OUTFIT_GUNDAN_OTTER_OUTFIT_30_cls-8" d="M249.89,327.46c45.43,26.34,73.64,49.14,73.64,49.14" />
      <path class="GUNDAN_OTTER_OUTFIT_GUNDAN_OTTER_OUTFIT_30_cls-9" d="M119.25,385.66a52.2,52.2,0,0,0-3.12,7.74,56,56,0,0,0-1.94,8.18,75.87,75.87,0,0,0,.15,24v0A75.34,75.34,0,0,0,117,436.77l.17.47" />
      <path class="GUNDAN_OTTER_OUTFIT_GUNDAN_OTTER_OUTFIT_30_cls-9" d="M114.19,401.58a19.76,19.76,0,0,0-1.85-6.07" />
      <path class="GUNDAN_OTTER_OUTFIT_GUNDAN_OTTER_OUTFIT_30_cls-9" d="M338.87,405.68a80.19,80.19,0,0,1-2,26.23c-.58,2.39-1.1,4.08-1.35,4.86" />
      <path class="GUNDAN_OTTER_OUTFIT_GUNDAN_OTTER_OUTFIT_30_cls-9" d="M338,426.59s-.44,7.51.56,10.17" />
      <path class="GUNDAN_OTTER_OUTFIT_GUNDAN_OTTER_OUTFIT_30_cls-10" d="M106.09,360.63a.34.34,0,0,1-.25-.11.32.32,0,0,1-.1-.25l0-1.65c-.35,0-.69,0-1-.06l-.16,1.64a.34.34,0,0,1-.13.24.35.35,0,0,1-.22.08h0c-.42,0-.85-.11-1.26-.18a.35.35,0,0,1-.29-.4l.26-1.63c-.32-.06-.66-.13-1-.22l-.4,1.58a.36.36,0,0,1-.16.22.41.41,0,0,1-.18.05h-.09l-.45-.13-.77-.25a.34.34,0,0,1-.22-.43l.49-1.58c-.33-.12-.65-.25-1-.38l-.62,1.51a.41.41,0,0,1-.2.19l-.12,0-.15,0c-.38-.17-.77-.36-1.15-.56a.36.36,0,0,1-.15-.46l.71-1.47-.89-.54-.83,1.38a.36.36,0,0,1-.22.16h-.08a.31.31,0,0,1-.19-.06c-.36-.23-.71-.48-1.06-.74a.35.35,0,0,1-.08-.47l.93-1.36c-.28-.21-.55-.44-.81-.67l-1,1.24a.39.39,0,0,1-.25.12h0a.34.34,0,0,1-.24-.09q-.48-.43-.93-.9a.34.34,0,0,1,0-.48l1.1-1.17c-.25-.26-.48-.53-.71-.8L91,353a.33.33,0,0,1-.23.09h0a.38.38,0,0,1-.24-.13c-.27-.34-.54-.69-.79-1a.35.35,0,0,1,.07-.48l1.27-1c-.2-.29-.4-.6-.59-.9l-1.33.85a.37.37,0,0,1-.18.05h-.09a.36.36,0,0,1-.22-.16c-.22-.37-.43-.76-.63-1.15a.35.35,0,0,1,.15-.46l1.39-.78c-.17-.33-.32-.66-.46-1l-1.43.63a.32.32,0,0,1-.14,0,.31.31,0,0,1-.13,0,.32.32,0,0,1-.19-.19c-.16-.41-.32-.82-.46-1.24a.36.36,0,0,1,.22-.44l1.48-.54c-.11-.34-.21-.7-.3-1.06l-1.51.4h-.09a.37.37,0,0,1-.18-.05.36.36,0,0,1-.16-.22q-.15-.64-.27-1.29a.36.36,0,0,1,.28-.41l1.54-.3c0-.36-.1-.73-.14-1.09l-1.59.15a.35.35,0,0,1-.22-.08.34.34,0,0,1-.13-.24c0-.44-.06-.88-.08-1.32a.36.36,0,0,1,.34-.37l1.56,0c0-.35,0-.72,0-1.11L86,338a.35.35,0,0,1-.32-.37q0-.66.12-1.32a.34.34,0,0,1,.13-.23.34.34,0,0,1,.21-.08l1.6.21q.07-.54.18-1.08l-1.54-.36a.35.35,0,0,1-.26-.41c.09-.43.19-.86.31-1.28a.4.4,0,0,1,.17-.24.44.44,0,0,1,.21-.07h.07l1.48.45c.1-.34.22-.68.34-1l-1.46-.59a.35.35,0,0,1-.19-.45c.15-.41.32-.82.49-1.22a.37.37,0,0,1,.2-.19l.12,0a.28.28,0,0,1,.15,0l1.42.68c.15-.33.32-.66.48-1l-1.37-.82a.36.36,0,0,1-.13-.47c.21-.38.44-.76.67-1.13a.35.35,0,0,1,.23-.16h.07a.36.36,0,0,1,.2.06l1.28.89c.21-.31.41-.6.62-.88l-1.22-1a.35.35,0,0,1-.06-.48c.27-.34.55-.68.83-1a.37.37,0,0,1,.25-.12h0a.35.35,0,0,1,.24.1l1.16,1.1c.23-.26.48-.52.73-.77l-1.07-1.23a.35.35,0,0,1,0-.48c.31-.3.64-.59,1-.86a.35.35,0,0,1,.23-.09h0a.38.38,0,0,1,.24.13l1,1.27c.28-.23.56-.44.84-.64l-.88-1.38a.35.35,0,0,1,.1-.48c.35-.24.71-.48,1.08-.7a.35.35,0,0,1,.18-.05l.09,0a.31.31,0,0,1,.21.16l.78,1.41c.3-.17.61-.33.92-.49l-.67-1.51a.35.35,0,0,1,.17-.45c.38-.19.78-.36,1.17-.52a.31.31,0,0,1,.13,0,.32.32,0,0,1,.14,0,.34.34,0,0,1,.19.2l.57,1.53c.32-.13.65-.24,1-.35l-.44-1.59a.35.35,0,0,1,.24-.43q.61-.19,1.23-.33h.08a.41.41,0,0,1,.19,0,.34.34,0,0,1,.15.23l.34,1.58c.33-.07.66-.13,1-.18l-.2-1.63a.36.36,0,0,1,.31-.39c.41-.05.84-.1,1.26-.12h0a.41.41,0,0,1,.23.09.32.32,0,0,1,.11.24l.11,1.65.86,0h.16l0-1.65a.44.44,0,0,1,.11-.25.38.38,0,0,1,.25-.09h0c.43,0,.85,0,1.27.07a.36.36,0,0,1,.32.38l-.14,1.64c.36,0,.7.08,1,.14l.28-1.61a.33.33,0,0,1,.14-.22.31.31,0,0,1,.2-.07H110c.41.08.83.17,1.24.28a.34.34,0,0,1,.25.42l-.37,1.6.33.08.65.23.51-1.55a.34.34,0,0,1,.18-.21.4.4,0,0,1,.15,0,.25.25,0,0,1,.12,0c.4.14.8.3,1.19.47a.35.35,0,0,1,.18.45l-.6,1.52c.33.15.64.3.93.46l.73-1.44a.37.37,0,0,1,.21-.18h.1a.33.33,0,0,1,.17,0l1.1.65a.37.37,0,0,1,.12.48l-.83,1.42c.29.19.57.39.86.6l.93-1.31a.33.33,0,0,1,.24-.14h0a.34.34,0,0,1,.21.08c.34.26.67.53,1,.82a.34.34,0,0,1,0,.48l-1,1.27c.27.24.53.48.77.73l1.1-1.14a.35.35,0,0,1,.25-.1h0a.36.36,0,0,1,.25.11c.29.31.58.64.86,1a.35.35,0,0,1,0,.48l-1.19,1.08c.21.28.43.56.64.86l1.26-1a.4.4,0,0,1,.21-.07h.06a.31.31,0,0,1,.23.14c.25.36.49.73.71,1.1a.34.34,0,0,1-.11.47l-1.33.89c.18.31.35.63.52.95l1.38-.74a.33.33,0,0,1,.17,0h.11a.35.35,0,0,1,.2.18c.19.39.38.8.54,1.2a.34.34,0,0,1-.17.45l-1.43.65c.13.34.26.68.37,1l1.47-.5a.2.2,0,0,1,.11,0,.45.45,0,0,1,.16,0,.35.35,0,0,1,.17.21c.14.42.26.85.37,1.27a.35.35,0,0,1-.25.42l-1.52.43c.08.35.15.71.22,1.07l1.54-.27h.06a.39.39,0,0,1,.21.06.43.43,0,0,1,.14.23c.07.43.13.88.17,1.31a.35.35,0,0,1-.31.39l-1.55.17c0,.38,0,.74.06,1.1l1.56,0a.39.39,0,0,1,.25.1.37.37,0,0,1,.1.25c0,.44,0,.88,0,1.32a.37.37,0,0,1-.12.24.32.32,0,0,1-.23.09l-1.58-.08c0,.36-.06.73-.1,1.1l1.55.23a.37.37,0,0,1,.3.4c-.06.43-.14.87-.22,1.3a.34.34,0,0,1-.15.22.35.35,0,0,1-.19.06h-.08l-1.52-.32c-.08.36-.15.72-.25,1.07l1.49.47a.34.34,0,0,1,.23.43c-.12.42-.25.84-.4,1.26a.39.39,0,0,1-.18.2l-.15,0-.12,0-1.46-.57c-.13.34-.27.67-.41,1l1.42.71a.35.35,0,0,1,.16.46c-.18.4-.37.8-.58,1.18a.33.33,0,0,1-.21.17l-.1,0a.34.34,0,0,1-.17,0l-1.36-.79c-.18.32-.37.63-.55.93l1.3.93a.34.34,0,0,1,.09.48c-.23.36-.49.72-.74,1.07a.35.35,0,0,1-.24.14h0a.4.4,0,0,1-.23-.08l-1.22-1c-.21.27-.44.55-.68.82l1.15,1.14a.34.34,0,0,1,0,.48c-.29.32-.59.63-.89.94a.39.39,0,0,1-.25.1h0a.37.37,0,0,1-.25-.12l-1.07-1.19c-.26.25-.52.48-.79.71l1,1.31a.35.35,0,0,1-.06.48c-.33.27-.67.54-1,.78a.31.31,0,0,1-.2.07h-.07a.35.35,0,0,1-.23-.15l-.87-1.33c-.28.2-.58.39-.88.57l.77,1.44a.36.36,0,0,1-.13.47c-.37.21-.75.42-1.13.61a.42.42,0,0,1-.15,0l-.12,0a.34.34,0,0,1-.2-.19l-.68-1.47c-.32.15-.63.29-1,.42l.56,1.56a.35.35,0,0,1-.2.44c-.4.16-.8.3-1.2.43l-.11,0a.47.47,0,0,1-.17,0,.41.41,0,0,1-.17-.22l-.46-1.56q-.5.15-1,.27l.32,1.61a.36.36,0,0,1-.27.42l-1.25.23h0a.31.31,0,0,1-.21-.07.33.33,0,0,1-.14-.23l-.23-1.63c-.33,0-.67.08-1,.1l.09,1.65a.35.35,0,0,1-.34.37c-.35,0-.71,0-1.07,0Zm-.62-10.34a1.61,1.61,0,0,0-1.55,1.21,1.84,1.84,0,0,0,.26,1.52,1.48,1.48,0,0,0,1.09.64c.34,0,.69,0,1,0a13.64,13.64,0,0,0,4-.63,1.72,1.72,0,0,0,1.05-1,1.77,1.77,0,0,0-.08-1.49,1.56,1.56,0,0,0-1.39-.85,1.67,1.67,0,0,0-.49.08,10.28,10.28,0,0,1-3.16.49l-.7,0Zm-8.55-4.41a1.5,1.5,0,0,0-.76.21,1.63,1.63,0,0,0-.79,1.17,1.82,1.82,0,0,0,.39,1.47,14.21,14.21,0,0,0,4,3.3,1.45,1.45,0,0,0,.67.17A1.64,1.64,0,0,0,102,351a1.74,1.74,0,0,0-.81-2,10.84,10.84,0,0,1-3-2.52A1.61,1.61,0,0,0,96.92,345.88Zm20.35-2.47a1.62,1.62,0,0,0-1.42.91,10.92,10.92,0,0,1-2.41,3.18,1.75,1.75,0,0,0-.37,2.11,1.57,1.57,0,0,0,1.4.86h0a1.62,1.62,0,0,0,1.09-.44,14.42,14.42,0,0,0,3.16-4.21,1.7,1.7,0,0,0-1-2.34A1.33,1.33,0,0,0,117.27,343.41Zm-10.19,1a1.6,1.6,0,0,0-1.55,1.22l-.17.61a1.81,1.81,0,0,0,.31,1.56,1.46,1.46,0,0,0,1.15.6h.11a6,6,0,0,0,.61-.06,1.64,1.64,0,0,0,1.23-.91,1.73,1.73,0,0,0,0-1.61l-.29-.54A1.54,1.54,0,0,0,107.08,344.38Zm-5-1.49a1.58,1.58,0,0,0-.78.21l-.52.31a1.65,1.65,0,0,0-.81,1.29,1.79,1.79,0,0,0,.59,1.52,6,6,0,0,0,.49.39,1.38,1.38,0,0,0,.84.29h0a1.64,1.64,0,0,0,1.56-1.25l.16-.6a1.71,1.71,0,0,0-.28-1.52A1.61,1.61,0,0,0,102.07,342.89Zm9.53-1.16a1.57,1.57,0,0,0-1.34.8,1.71,1.71,0,0,0,0,1.72l.29.54a1.55,1.55,0,0,0,1.39.86h0a1.64,1.64,0,0,0,1.26-.62l.37-.51a1.62,1.62,0,0,0,.19-1.48,1.71,1.71,0,0,0-1.09-1.07l-.58-.17A1.41,1.41,0,0,0,111.6,341.73Zm-17.73-5.27A1.59,1.59,0,0,0,92.29,338a15,15,0,0,0,.57,5.33,1.64,1.64,0,0,0,1.55,1.23h0a1.51,1.51,0,0,0,.77-.21,1.74,1.74,0,0,0,.74-2,11.87,11.87,0,0,1-.45-4,1.67,1.67,0,0,0-1.15-1.75A1.41,1.41,0,0,0,93.87,336.46ZM99,338a1.59,1.59,0,0,0-1.17.52,1.57,1.57,0,0,0-.43,1.2c0,.22,0,.43.07.64a1.66,1.66,0,0,0,1.6,1.49,1.51,1.51,0,0,0,.77-.21l.52-.3a1.68,1.68,0,0,0,.81-1.69,1.63,1.63,0,0,0-1.15-1.41l-.58-.18A1.67,1.67,0,0,0,99,338Zm19.21-4.45a1.51,1.51,0,0,0-.77.21,1.73,1.73,0,0,0-.74,2,11.87,11.87,0,0,1,.45,4,1.68,1.68,0,0,0,1.15,1.75,1.76,1.76,0,0,0,.45.07,1.6,1.6,0,0,0,1.58-1.49,15,15,0,0,0-.57-5.33A1.64,1.64,0,0,0,118.16,333.52Zm-4.61,2.68a1.51,1.51,0,0,0-.77.21l-.52.31a1.68,1.68,0,0,0-.81,1.69,1.64,1.64,0,0,0,1.15,1.41l.58.17a1.31,1.31,0,0,0,.44.07,1.63,1.63,0,0,0,1.6-1.73c0-.21,0-.42-.07-.64A1.66,1.66,0,0,0,113.55,336.2Zm-12.88-3.82a1.64,1.64,0,0,0-1.26.62c-.13.17-.26.33-.38.51a1.64,1.64,0,0,0-.18,1.48,1.68,1.68,0,0,0,1.09,1.07l.58.17a1.76,1.76,0,0,0,.45.07h0a1.57,1.57,0,0,0,1.34-.8,1.71,1.71,0,0,0,0-1.72l-.29-.54A1.55,1.55,0,0,0,100.67,332.38Zm10-1.25a1.64,1.64,0,0,0-1.55,1.24L109,333a1.71,1.71,0,0,0,.28,1.52,1.61,1.61,0,0,0,1.25.64h0a1.49,1.49,0,0,0,.78-.22l.52-.3a1.65,1.65,0,0,0,.81-1.3,1.81,1.81,0,0,0-.59-1.51l-.49-.4A1.44,1.44,0,0,0,110.68,331.13ZM98.1,327.56A1.61,1.61,0,0,0,97,328a14.6,14.6,0,0,0-3.16,4.22,1.68,1.68,0,0,0,1,2.34,1.56,1.56,0,0,0,1.84-.84,11.13,11.13,0,0,1,2.42-3.18,1.75,1.75,0,0,0,.37-2.11A1.57,1.57,0,0,0,98.1,327.56Zm7.54,2.1-.61.07a1.64,1.64,0,0,0-1.23.91,1.71,1.71,0,0,0,0,1.6l.28.54a1.56,1.56,0,0,0,1.39.87h0a1.59,1.59,0,0,0,1.55-1.23l.16-.6a1.78,1.78,0,0,0-.3-1.56,1.46,1.46,0,0,0-1.15-.6Zm6.47-3.83a1.64,1.64,0,0,0-1.54,1.24,1.71,1.71,0,0,0,.81,2,10.88,10.88,0,0,1,3.05,2.53,1.53,1.53,0,0,0,2,.38,1.65,1.65,0,0,0,.79-1.17,1.81,1.81,0,0,0-.39-1.47,14,14,0,0,0-4-3.3A1.45,1.45,0,0,0,112.11,325.83Zm-5.84-1.5a13.33,13.33,0,0,0-4,.63,1.72,1.72,0,0,0-1,1,1.77,1.77,0,0,0,.08,1.49,1.56,1.56,0,0,0,1.39.85h0a1.67,1.67,0,0,0,.49-.08,10.22,10.22,0,0,1,3.15-.5c.24,0,.48,0,.71,0h.11a1.6,1.6,0,0,0,1.55-1.21,1.83,1.83,0,0,0-.26-1.51,1.48,1.48,0,0,0-1.09-.64C107,324.35,106.61,324.33,106.27,324.33Z" />
      <path d="M106.82,317.76c.41,0,.83,0,1.24.07l-.17,2c.56.06,1.12.13,1.68.23l.34-2c.41.08.82.17,1.22.28l-.46,1.94c.22.06.44.09.66.16s.65.23,1,.34l.62-1.89c.39.14.79.29,1.17.46l-.73,1.84c.53.23,1,.47,1.54.74l.88-1.75c.37.2.73.42,1.09.64l-1,1.71c.49.31.95.64,1.4,1l1.15-1.61c.33.26.66.53,1,.81l-1.23,1.52c.44.39.85.79,1.25,1.21l1.35-1.4c.29.3.58.63.85.95l-1.44,1.31c.38.45.73.91,1.06,1.39l1.54-1.17c.25.35.48.71.7,1.08l-1.62,1.07a15.31,15.31,0,0,1,.84,1.54l1.71-.91c.19.38.37.78.53,1.17l-1.73.8q.33.81.6,1.65l1.8-.62c.13.41.25.83.36,1.25l-1.85.51c.14.57.26,1.15.35,1.73l1.89-.33c.07.42.13.86.17,1.29l-1.9.21c.06.58.1,1.17.11,1.77l1.9,0c0,.43,0,.87,0,1.3L124.7,340c0,.58-.09,1.17-.17,1.76l1.9.28c-.06.43-.13.86-.21,1.28l-1.88-.4c-.09.47-.18.95-.31,1.42l-.1.3,1.83.57c-.12.42-.25.83-.4,1.24l-1.79-.69c-.2.56-.42,1.1-.66,1.63l1.73.86c-.18.39-.38.78-.58,1.16l-1.67-1c-.27.51-.57,1-.88,1.5l1.57,1.13c-.23.36-.48.71-.73,1.05l-1.51-1.22c-.35.47-.72.91-1.1,1.34l1.39,1.37c-.28.31-.58.62-.88.92L118.94,353c-.42.41-.84.79-1.29,1.15l1.18,1.58c-.32.27-.66.53-1,.77l-1.08-1.63c-.46.33-.94.65-1.44.94l.93,1.72c-.36.21-.73.42-1.1.61l-.84-1.8c-.51.25-1,.48-1.55.69l.67,1.88c-.39.15-.79.29-1.18.42l-.56-1.91c-.54.17-1.09.32-1.64.44l.39,1.95c-.41.09-.82.17-1.23.23l-.28-2c-.55.08-1.12.14-1.68.17l.1,2-1,0h-.2l0-2c-.56,0-1.13,0-1.69-.1l-.2,2c-.41-.05-.82-.1-1.23-.18l.31-2a16.47,16.47,0,0,1-1.66-.37l-.48,1.93-.44-.13c-.25-.07-.51-.15-.76-.24l.6-1.9c-.54-.19-1.07-.39-1.59-.62l-.75,1.83c-.38-.17-.76-.35-1.13-.55l.86-1.77c-.51-.27-1-.57-1.48-.88l-1,1.69c-.35-.23-.7-.47-1-.73l1.12-1.62c-.46-.35-.9-.71-1.33-1.1L93,355.08c-.32-.28-.62-.58-.92-.88l1.33-1.41c-.41-.42-.79-.85-1.15-1.3l-1.45,1.28c-.27-.33-.53-.68-.78-1l1.54-1.2a17.37,17.37,0,0,1-1-1.46l-1.64,1c-.21-.37-.42-.75-.61-1.13l1.68-.93c-.27-.53-.51-1.06-.73-1.6l-1.76.77c-.16-.4-.31-.81-.44-1.22l1.8-.66c-.19-.55-.35-1.12-.49-1.69l-1.85.48c-.1-.42-.19-.85-.27-1.27l1.89-.37c-.11-.58-.18-1.16-.24-1.75l-1.9.18c0-.43-.06-.87-.08-1.3l1.9-.06c0-.59,0-1.18,0-1.77l-1.9-.13c0-.43.06-.87.11-1.3l1.91.25c.07-.58.16-1.16.28-1.74l-1.87-.43c.09-.42.19-.85.31-1.26v-.05l1.82.55c.16-.58.34-1.13.55-1.68l-1.77-.72c.15-.4.31-.81.48-1.2l1.74.84c.24-.54.5-1.06.78-1.57l-1.66-1q.31-.57.66-1.11l1.58,1.1a16,16,0,0,1,1-1.44l-1.48-1.24c.26-.33.53-.67.81-1L92.66,326c.38-.44.78-.85,1.19-1.25l-1.29-1.48c.31-.29.63-.57,1-.84l1.2,1.55c.44-.37.89-.72,1.36-1l-1-1.66c.34-.24.7-.47,1.06-.69l1,1.73a16.9,16.9,0,0,1,1.51-.82l-.81-1.81c.38-.18.77-.35,1.15-.51l.7,1.86c.52-.21,1.06-.4,1.6-.57l-.53-1.92c.4-.12.81-.23,1.21-.32l.41,1.93a15.79,15.79,0,0,1,1.67-.3l-.24-2c.41-.05.83-.1,1.25-.13l.12,2c.4,0,.79,0,1.19,0h.5l.06-2m-4.18,10.87a1.7,1.7,0,0,0,.59-.1,10.12,10.12,0,0,1,3-.47c.23,0,.46,0,.69,0h.13a2,2,0,0,0,1.88-1.46h0a2,2,0,0,0-1.66-2.59c-.35,0-.71,0-1.06,0a13.91,13.91,0,0,0-4.16.65,2.09,2.09,0,0,0-1.17,3h0a1.93,1.93,0,0,0,1.7,1m13,3.87a1.84,1.84,0,0,0,.93-.26h0a2.11,2.11,0,0,0,.5-3.16,14.42,14.42,0,0,0-4.13-3.39,1.83,1.83,0,0,0-.84-.21,2,2,0,0,0-1.87,1.5h0a2.07,2.07,0,0,0,1,2.35,10.54,10.54,0,0,1,3,2.44,2,2,0,0,0,1.49.72M95.3,335A2,2,0,0,0,97,333.87a10.7,10.7,0,0,1,2.33-3.08,2.1,2.1,0,0,0,.44-2.54h0a1.91,1.91,0,0,0-3-.51,14.8,14.8,0,0,0-3.24,4.31,2,2,0,0,0,1.23,2.84h0a1.86,1.86,0,0,0,.52.07m10.19-1a2,2,0,0,0,1.89-1.48l.16-.61a2,2,0,0,0-1.79-2.6h-.14l-.63.07a2.07,2.07,0,0,0-1.47,3l.29.54a1.89,1.89,0,0,0,1.69,1.05m5,1.49a1.87,1.87,0,0,0,1-.26l.52-.3a2.11,2.11,0,0,0,.28-3.38,6.54,6.54,0,0,0-.51-.41,1.7,1.7,0,0,0-1.06-.36,2,2,0,0,0-1.89,1.5l-.16.61a2,2,0,0,0,1.87,2.6M101,336.65a2,2,0,0,0,1.69-3l-.29-.54a1.9,1.9,0,0,0-1.7-1,2,2,0,0,0-1.53.75,6.55,6.55,0,0,0-.39.53,2,2,0,0,0,1.09,3.08l.58.18a2.15,2.15,0,0,0,.55.08m17.73,5.27a2,2,0,0,0,1.93-1.81,15.79,15.79,0,0,0-.58-5.46,2,2,0,0,0-1.89-1.48,1.87,1.87,0,0,0-1,.26h0a2.09,2.09,0,0,0-.9,2.4,11.29,11.29,0,0,1,.44,3.9,2,2,0,0,0,1.4,2.1h0a2,2,0,0,0,.54.08m-5.08-1.51a2,2,0,0,0,1.95-2.1c0-.22,0-.44-.07-.66a2,2,0,0,0-2-1.8,1.87,1.87,0,0,0-1,.26l-.51.3a2.08,2.08,0,0,0,.41,3.75l.58.17a2,2,0,0,0,.54.08m-19.21,4.45a1.81,1.81,0,0,0,.94-.26h0a2.06,2.06,0,0,0,.9-2.4,11.53,11.53,0,0,1-.43-3.9,2,2,0,0,0-1.4-2.11h0a2,2,0,0,0-.54-.08,2,2,0,0,0-1.93,1.81,15.5,15.5,0,0,0,.58,5.45,2,2,0,0,0,1.89,1.49M99,342.18a2,2,0,0,0,1-.26l.51-.3a2.08,2.08,0,0,0-.41-3.75l-.58-.17a2,2,0,0,0-.54-.08,2,2,0,0,0-2,2.1c0,.22,0,.44.07.66a2,2,0,0,0,2,1.8M111.9,346a1.94,1.94,0,0,0,1.53-.76,6.41,6.41,0,0,0,.39-.52,2.06,2.06,0,0,0-1.09-3.09l-.58-.17a2.22,2.22,0,0,0-.55-.08,2,2,0,0,0-1.69,3l.29.54a1.9,1.9,0,0,0,1.7,1m-10,1.25a2,2,0,0,0,1.9-1.5l.16-.61a2,2,0,0,0-1.87-2.6,1.93,1.93,0,0,0-1,.26l-.51.3a2.11,2.11,0,0,0-.28,3.38c.17.14.33.28.51.41a1.69,1.69,0,0,0,1,.36m12.59,3.57a1.92,1.92,0,0,0,1.32-.53A14.72,14.72,0,0,0,119,346a2,2,0,0,0-1.23-2.83h0a1.88,1.88,0,0,0-.52-.08,2,2,0,0,0-1.73,1.1,10.84,10.84,0,0,1-2.33,3.08,2.1,2.1,0,0,0-.45,2.53h0a1.94,1.94,0,0,0,1.71,1m-7.65-2.1H107c.21,0,.42,0,.63-.07a2.06,2.06,0,0,0,1.47-3l-.29-.54a1.89,1.89,0,0,0-1.69-1.05,2,2,0,0,0-1.89,1.48l-.16.61a2,2,0,0,0,1.79,2.6m-6.36,3.83a2,2,0,0,0,1.87-1.5h0a2.08,2.08,0,0,0-1-2.35,10.4,10.4,0,0,1-3-2.44,1.94,1.94,0,0,0-1.49-.72,1.75,1.75,0,0,0-.93.26,2.11,2.11,0,0,0-.5,3.16,14.59,14.59,0,0,0,4.13,3.39,1.83,1.83,0,0,0,.84.21m5.83-2.58-.69,0h-.13a2,2,0,0,0-1.89,1.47h0a2,2,0,0,0,1.66,2.58c.35,0,.71.05,1.06.05a13.91,13.91,0,0,0,4.16-.65,2.09,2.09,0,0,0,1.17-3,1.93,1.93,0,0,0-1.7-1,1.7,1.7,0,0,0-.59.1,10.12,10.12,0,0,1-3,.47m.53-32.91a.68.68,0,0,0-.7.68l0,1.31h-.35l-.09-1.31a.67.67,0,0,0-.23-.48.74.74,0,0,0-.46-.18h0c-.43,0-.87.07-1.29.13a.7.7,0,0,0-.6.78l.16,1.29-.36.06-.26-1.25a.74.74,0,0,0-.31-.44.76.76,0,0,0-.38-.11.44.44,0,0,0-.16,0c-.42.09-.84.21-1.25.33a.69.69,0,0,0-.47.86l.35,1.27-.34.12L99.54,319a.71.71,0,0,0-.38-.4.67.67,0,0,0-.28-.06.75.75,0,0,0-.26.05c-.4.17-.8.34-1.19.53a.71.71,0,0,0-.34.92l.54,1.2-.33.17-.61-1.1a.72.72,0,0,0-.43-.33l-.18,0a.7.7,0,0,0-.37.11c-.36.22-.73.46-1.09.71a.7.7,0,0,0-.19.95l.7,1.1-.31.23-.75-1a.71.71,0,0,0-.48-.27h-.08a.69.69,0,0,0-.45.16c-.34.28-.66.58-1,.88a.69.69,0,0,0,0,1l.85,1-.27.28-.89-.85a.71.71,0,0,0-.49-.2h0a.74.74,0,0,0-.5.24c-.28.33-.56.68-.83,1a.7.7,0,0,0,.1,1l1,.82-.23.33-1-.69a.72.72,0,0,0-.4-.12h-.14a.69.69,0,0,0-.45.31c-.24.37-.47.76-.68,1.15a.71.71,0,0,0,.25.94l1.09.66-.18.37-1.1-.53a.67.67,0,0,0-.31-.07.74.74,0,0,0-.64.42c-.18.4-.35.82-.5,1.24a.7.7,0,0,0,.39.89l1.15.47-.13.4-1.15-.34a.64.64,0,0,0-.2,0,.7.7,0,0,0-.67.51l0,.05c-.12.43-.22.87-.31,1.31a.69.69,0,0,0,.53.82l1.21.28c0,.14,0,.29-.07.43l-1.21-.16h-.1a.66.66,0,0,0-.42.15.69.69,0,0,0-.27.47c-.05.44-.1.89-.12,1.34a.7.7,0,0,0,.65.74l1.21.08v.44l-1.22,0a.7.7,0,0,0-.68.71c0,.45,0,.9.08,1.35a.73.73,0,0,0,.25.48.75.75,0,0,0,.45.16h.07l1.21-.12.06.43-1.22.24a.69.69,0,0,0-.55.81c.07.43.16.88.27,1.31a.69.69,0,0,0,.32.44.65.65,0,0,0,.36.1l.18,0,1.17-.31.12.42-1.17.42a.7.7,0,0,0-.43.88c.14.43.3.85.46,1.26a.74.74,0,0,0,.39.39.75.75,0,0,0,.26.05.72.72,0,0,0,.29-.06l1.1-.49.18.39-1.1.61a.7.7,0,0,0-.29.93c.2.4.42.79.64,1.17a.71.71,0,0,0,.44.32.47.47,0,0,0,.16,0,.63.63,0,0,0,.38-.11l1-.66.23.35-1,.79a.71.71,0,0,0-.14,1c.26.35.53.71.8,1a.72.72,0,0,0,.49.26h.06a.67.67,0,0,0,.46-.18l.91-.8.27.3-.88.93a.7.7,0,0,0,0,1c.3.31.62.62.95.91a.67.67,0,0,0,.47.18H93a.69.69,0,0,0,.49-.25l.79-1,.3.24-.74,1.09a.68.68,0,0,0,.15,1c.35.27.71.52,1.07.76a.77.77,0,0,0,.39.11l.15,0a.71.71,0,0,0,.45-.32l.64-1.07.33.19-.57,1.18a.69.69,0,0,0,.3.92c.38.2.78.39,1.17.57a.72.72,0,0,0,.29.06.56.56,0,0,0,.25-.05.66.66,0,0,0,.39-.38l.49-1.18.34.13L99.3,359a.7.7,0,0,0,.44.88l.78.24.46.13.18,0a.62.62,0,0,0,.35-.1.68.68,0,0,0,.33-.43l.31-1.25.35.08-.21,1.29a.7.7,0,0,0,.58.8c.42.08.85.14,1.28.18h.07a.72.72,0,0,0,.7-.63l.13-1.3.35,0v1.31a.7.7,0,0,0,.69.71h.21c.36,0,.73,0,1.08,0a.71.71,0,0,0,.67-.73l-.07-1.31.36,0,.17,1.29a.72.72,0,0,0,.28.46.71.71,0,0,0,.42.14h.1c.43-.06.86-.14,1.28-.23a.69.69,0,0,0,.53-.82l-.25-1.29.34-.1.37,1.23a.72.72,0,0,0,.67.51.52.52,0,0,0,.21,0c.41-.13.82-.28,1.22-.43a.7.7,0,0,0,.41-.89l-.45-1.25a2.52,2.52,0,0,0,.34-.15l.53,1.16a.75.75,0,0,0,.41.37.85.85,0,0,0,.23,0,.68.68,0,0,0,.31-.08c.39-.19.77-.4,1.15-.62a.71.71,0,0,0,.26-.94l-.62-1.14.32-.21.68,1a.72.72,0,0,0,.46.3h.13a.69.69,0,0,0,.41-.13c.35-.26.7-.52,1-.8a.69.69,0,0,0,.11-1l-.78-1.05.29-.26.83.93a.73.73,0,0,0,.5.23h0a.7.7,0,0,0,.49-.2c.31-.31.62-.63.91-1a.69.69,0,0,0,0-1l-.92-.91.26-.31.94.77a.69.69,0,0,0,.45.16h.08a.77.77,0,0,0,.48-.28c.26-.35.52-.72.76-1.09a.71.71,0,0,0-.18-.95l-1-.74.21-.36,1,.61a.74.74,0,0,0,.35.1.7.7,0,0,0,.62-.38c.21-.39.41-.79.59-1.19a.7.7,0,0,0-.32-.92l-1.13-.56.16-.4,1.13.44a.74.74,0,0,0,.25.05.66.66,0,0,0,.3-.07.65.65,0,0,0,.36-.4c.15-.41.29-.84.41-1.27a.69.69,0,0,0-.46-.86l-1.17-.37.09-.43,1.18.26h.15a.73.73,0,0,0,.38-.11.69.69,0,0,0,.3-.45c.09-.44.16-.89.22-1.33a.68.68,0,0,0-.59-.78l-1.22-.19c0-.14,0-.29,0-.43l1.22.06h0a.7.7,0,0,0,.7-.66c0-.45,0-.9,0-1.35a.71.71,0,0,0-.21-.49.7.7,0,0,0-.49-.2h0l-1.21,0,0-.44,1.22-.13a.71.71,0,0,0,.62-.77c0-.45-.11-.9-.18-1.33a.68.68,0,0,0-.28-.46.67.67,0,0,0-.41-.13h-.12L125,335l-.09-.43,1.2-.33a.71.71,0,0,0,.5-.85c-.11-.43-.24-.86-.37-1.28a.74.74,0,0,0-.36-.42.64.64,0,0,0-.31-.07.62.62,0,0,0-.23,0l-1.13.39-.15-.4,1.13-.52a.71.71,0,0,0,.36-.91c-.17-.4-.36-.81-.55-1.21a.74.74,0,0,0-.42-.36.76.76,0,0,0-.21,0,.62.62,0,0,0-.33.08l-1.08.57c-.06-.12-.13-.24-.2-.36l1.07-.71a.69.69,0,0,0,.21-.94c-.23-.38-.47-.76-.72-1.12a.73.73,0,0,0-.47-.29h-.11a.71.71,0,0,0-.42.14l-1,.74-.25-.33,1-.86a.7.7,0,0,0,.07-1c-.28-.34-.58-.67-.88-1a.68.68,0,0,0-.5-.22h0a.69.69,0,0,0-.5.21l-.86.88-.28-.27.82-1a.71.71,0,0,0-.08-1l-1-.83a.7.7,0,0,0-.43-.15h-.11a.7.7,0,0,0-.46.29l-.73,1-.31-.22.66-1.14a.69.69,0,0,0-.23-.94c-.37-.23-.74-.46-1.12-.67a.81.81,0,0,0-.34-.08.76.76,0,0,0-.21,0,.69.69,0,0,0-.42.35l-.56,1.12-.33-.16.48-1.21a.7.7,0,0,0-.37-.9c-.4-.18-.81-.34-1.21-.48a.67.67,0,0,0-.24,0,.63.63,0,0,0-.3.07.7.7,0,0,0-.36.41l-.4,1.2-.33-.1h0l.3-1.26a.7.7,0,0,0-.51-.84c-.41-.11-.83-.2-1.26-.28l-.13,0a.73.73,0,0,0-.4.13.69.69,0,0,0-.29.45l-.22,1.27-.35-.05.11-1.3a.71.71,0,0,0-.64-.76c-.42,0-.85-.06-1.28-.07Zm-4.18,10.87a1.2,1.2,0,0,1-1.08-.67,1.38,1.38,0,0,1-.06-1.19,1.3,1.3,0,0,1,.83-.77,12.88,12.88,0,0,1,3.94-.62c.33,0,.67,0,1,0a1.12,1.12,0,0,1,.82.49,1.48,1.48,0,0,1,.21,1.21,1.25,1.25,0,0,1-1.21,1H107c-.25,0-.49,0-.74,0a10.68,10.68,0,0,0-3.26.52,1.26,1.26,0,0,1-.38.06Zm13,3.87a1.26,1.26,0,0,1-1-.47,11.19,11.19,0,0,0-3.14-2.6,1.37,1.37,0,0,1-.64-1.56,1.3,1.3,0,0,1,1.2-1,1,1,0,0,1,.5.13,13.5,13.5,0,0,1,3.93,3.22,1.44,1.44,0,0,1,.32,1.18,1.35,1.35,0,0,1-.63.93,1.21,1.21,0,0,1-.58.16ZM95.3,334.26a1.12,1.12,0,0,1-.32,0,1.35,1.35,0,0,1-.82-1.85,14.11,14.11,0,0,1,3.09-4.12,1.26,1.26,0,0,1,.85-.34,1.23,1.23,0,0,1,1.09.67,1.42,1.42,0,0,1-.3,1.69,11.63,11.63,0,0,0-2.49,3.28,1.24,1.24,0,0,1-1.1.71Zm10.19-1a1.22,1.22,0,0,1-1.08-.68l-.28-.54a1.37,1.37,0,0,1,0-1.29,1.29,1.29,0,0,1,1-.71l.58-.07h.09a1.11,1.11,0,0,1,.87.46,1.48,1.48,0,0,1,.25,1.26l-.17.6a1.25,1.25,0,0,1-1.21,1Zm5,1.49a1.24,1.24,0,0,1-1-.51,1.33,1.33,0,0,1-.23-1.21l.17-.6a1.3,1.3,0,0,1,1.21-1,1,1,0,0,1,.64.21l.47.38a1.43,1.43,0,0,1,.47,1.22,1.32,1.32,0,0,1-.64,1l-.52.3a1.19,1.19,0,0,1-.6.17ZM101,336a1.12,1.12,0,0,1-.35-.06l-.58-.17a1.35,1.35,0,0,1-.86-.85,1.28,1.28,0,0,1,.14-1.16c.12-.17.24-.33.37-.49a1.23,1.23,0,0,1,1-.49,1.2,1.2,0,0,1,1.08.67l.29.54a1.36,1.36,0,0,1,0,1.38,1.22,1.22,0,0,1-1,.63Zm17.73,5.27a1.27,1.27,0,0,1-.34-.05,1.34,1.34,0,0,1-.91-1.4,12.08,12.08,0,0,0-.46-4.14,1.38,1.38,0,0,1,.58-1.6,1.21,1.21,0,0,1,.59-.16,1.29,1.29,0,0,1,1.22,1,14.76,14.76,0,0,1,.55,5.21,1.25,1.25,0,0,1-1.23,1.16Zm-5.08-1.51a1.33,1.33,0,0,1-.34,0l-.58-.17a1.27,1.27,0,0,1-.9-1.12,1.32,1.32,0,0,1,.64-1.35l.52-.3a1.12,1.12,0,0,1,.59-.17,1.32,1.32,0,0,1,1.25,1.19c0,.21,0,.41.07.62a1.29,1.29,0,0,1-.33.94,1.27,1.27,0,0,1-.92.41Zm-19.21,4.45a1.3,1.3,0,0,1-1.22-1,14.8,14.8,0,0,1-.55-5.21,1.25,1.25,0,0,1,1.23-1.16,1.27,1.27,0,0,1,.34.05,1.33,1.33,0,0,1,.91,1.39,12.11,12.11,0,0,0,.46,4.15A1.36,1.36,0,0,1,95,344a1.12,1.12,0,0,1-.59.17ZM99,341.47a1.33,1.33,0,0,1-1.26-1.18c0-.21-.05-.41-.06-.62a1.24,1.24,0,0,1,.33-.94,1.27,1.27,0,0,1,.92-.41,1.33,1.33,0,0,1,.34.05l.58.17a1.27,1.27,0,0,1,.9,1.12,1.34,1.34,0,0,1-.64,1.35l-.52.3a1.11,1.11,0,0,1-.59.16Zm12.88,3.83a1.23,1.23,0,0,1-1.09-.67l-.28-.54a1.36,1.36,0,0,1,0-1.38,1.22,1.22,0,0,1,1-.63,1.48,1.48,0,0,1,.35.05l.58.18a1.33,1.33,0,0,1,.86.84,1.3,1.3,0,0,1-.14,1.17c-.12.17-.24.33-.37.49a1.26,1.26,0,0,1-1,.49Zm-10,1.25a1,1,0,0,1-.63-.22,5.58,5.58,0,0,1-.47-.38,1.4,1.4,0,0,1-.47-1.21,1.3,1.3,0,0,1,.64-1l.52-.3a1.09,1.09,0,0,1,.6-.17,1.26,1.26,0,0,1,1,.5,1.39,1.39,0,0,1,.23,1.22l-.17.6a1.31,1.31,0,0,1-1.22,1Zm12.59,3.57a1.23,1.23,0,0,1-1.09-.67,1.4,1.4,0,0,1,.3-1.69,11.63,11.63,0,0,0,2.49-3.28,1.25,1.25,0,0,1,1.1-.72,1.13,1.13,0,0,1,.32.05,1.35,1.35,0,0,1,.82,1.85,14.11,14.11,0,0,1-3.09,4.12,1.25,1.25,0,0,1-.85.34Zm-7.65-2.1a1.11,1.11,0,0,1-.87-.46,1.46,1.46,0,0,1-.25-1.26l.17-.6a1.24,1.24,0,0,1,1.21-1,1.22,1.22,0,0,1,1.08.68l.28.54a1.37,1.37,0,0,1,0,1.29,1.29,1.29,0,0,1-1,.71l-.58.07Zm-6.36,3.83a1,1,0,0,1-.5-.13A13.66,13.66,0,0,1,96,348.5a1.45,1.45,0,0,1-.32-1.18,1.32,1.32,0,0,1,.63-.93,1.21,1.21,0,0,1,.58-.16,1.22,1.22,0,0,1,1,.47,11.37,11.37,0,0,0,3.15,2.6,1.36,1.36,0,0,1,.64,1.56,1.3,1.3,0,0,1-1.2,1Zm5.83-1.18a10.67,10.67,0,0,0,3.26-.51,1.21,1.21,0,0,1,1.46.61,1.36,1.36,0,0,1,.06,1.18,1.31,1.31,0,0,1-.83.78,12.92,12.92,0,0,1-3.94.62c-.34,0-.67,0-1,0a1.12,1.12,0,0,1-.82-.49,1.46,1.46,0,0,1-.21-1.22,1.27,1.27,0,0,1,1.21-1h.08l.74,0Z" />
      <path class="GUNDAN_OTTER_OUTFIT_GUNDAN_OTTER_OUTFIT_30_cls-10" d="M338.49,354a.35.35,0,0,1-.34-.36v-1.46l-.86-.05-.14,1.45a.38.38,0,0,1-.13.24.35.35,0,0,1-.22.08h0l-1.14-.16a.36.36,0,0,1-.29-.4l.23-1.45c-.27,0-.55-.11-.85-.19l-.35,1.41a.31.31,0,0,1-.16.21.29.29,0,0,1-.18.05h-.09l-.41-.11-.69-.23a.34.34,0,0,1-.22-.43l.43-1.41c-.28-.1-.55-.2-.81-.31l-.55,1.33a.32.32,0,0,1-.19.19l-.13,0a.4.4,0,0,1-.15,0c-.35-.16-.7-.33-1-.51a.36.36,0,0,1-.15-.47l.63-1.3-.76-.45-.73,1.22a.36.36,0,0,1-.22.16h-.08a.33.33,0,0,1-.19-.06c-.33-.21-.65-.44-1-.67a.36.36,0,0,1-.08-.48l.83-1.2q-.36-.27-.69-.57l-.91,1.09a.34.34,0,0,1-.24.13h0a.33.33,0,0,1-.23-.09c-.29-.26-.58-.54-.85-.82a.34.34,0,0,1,0-.48l1-1-.6-.67-1,.92a.36.36,0,0,1-.23.08h0a.34.34,0,0,1-.24-.13c-.25-.3-.49-.62-.72-.94a.35.35,0,0,1,.07-.48l1.13-.87c-.17-.25-.34-.51-.5-.77l-1.17.75a.35.35,0,0,1-.19.06h-.08a.33.33,0,0,1-.23-.17c-.19-.34-.38-.69-.56-1a.33.33,0,0,1,.14-.46l1.23-.69q-.21-.42-.39-.84l-1.26.55a.32.32,0,0,1-.14,0,.3.3,0,0,1-.13,0,.34.34,0,0,1-.19-.2c-.15-.36-.29-.74-.42-1.12a.36.36,0,0,1,.22-.44l1.31-.48c-.09-.29-.18-.59-.26-.89l-1.33.35h-.09a.37.37,0,0,1-.18,0,.36.36,0,0,1-.16-.22c-.09-.39-.18-.78-.25-1.18a.35.35,0,0,1,.28-.4l1.37-.27c-.05-.31-.09-.62-.12-.92l-1.41.13a.4.4,0,0,1-.23-.08.37.37,0,0,1-.12-.24c0-.4-.06-.8-.07-1.2a.35.35,0,0,1,.34-.36l1.37,0c0-.3,0-.61,0-.94l-1.37-.09a.35.35,0,0,1-.33-.37c0-.4.06-.8.11-1.2a.34.34,0,0,1,.13-.23.35.35,0,0,1,.22-.08l1.42.19q.06-.46.15-.93l-1.36-.31a.35.35,0,0,1-.27-.41c.08-.39.18-.78.28-1.17a.38.38,0,0,1,.18-.23.36.36,0,0,1,.2-.06h.07l1.31.39c.09-.29.18-.58.29-.88l-1.29-.53a.36.36,0,0,1-.2-.44q.21-.57.45-1.11a.37.37,0,0,1,.2-.19l.12,0a.28.28,0,0,1,.15,0l1.26.6c.13-.28.26-.56.41-.83l-1.22-.73a.36.36,0,0,1-.13-.47c.2-.35.4-.69.61-1a.35.35,0,0,1,.23-.16h.07a.31.31,0,0,1,.19.06l1.14.79c.18-.27.35-.52.52-.75l-1.08-.91a.36.36,0,0,1,0-.49c.24-.31.49-.61.75-.91A.37.37,0,0,1,325,321h0a.35.35,0,0,1,.24.1l1,1c.2-.22.41-.44.62-.65l-.95-1.09a.35.35,0,0,1,0-.48c.29-.27.58-.53.88-.78a.31.31,0,0,1,.22-.09h0a.36.36,0,0,1,.24.13l.86,1.12.71-.54-.78-1.22a.36.36,0,0,1,.1-.48c.32-.22.65-.43,1-.63a.3.3,0,0,1,.18-.06l.09,0a.34.34,0,0,1,.22.17l.69,1.24.77-.42-.59-1.33a.35.35,0,0,1,.17-.46l1.05-.47a.34.34,0,0,1,.28,0,.37.37,0,0,1,.19.2l.5,1.36c.28-.11.55-.21.83-.3l-.39-1.41a.35.35,0,0,1,.23-.43c.37-.11.74-.21,1.12-.3h.08a.35.35,0,0,1,.19.06.38.38,0,0,1,.15.22l.3,1.4.86-.15-.18-1.44a.36.36,0,0,1,.3-.39c.38-.05.77-.09,1.15-.12h0a.32.32,0,0,1,.23.09.33.33,0,0,1,.12.24l.09,1.46.77,0h.1l0-1.47a.36.36,0,0,1,.11-.25.34.34,0,0,1,.24-.09h0c.38,0,.77,0,1.15.07a.34.34,0,0,1,.31.38l-.12,1.45.86.11.25-1.42a.33.33,0,0,1,.14-.22.31.31,0,0,1,.2-.07H342c.37.07.75.16,1.12.25a.36.36,0,0,1,.26.42l-.34,1.42.28.07.56.19.45-1.37a.32.32,0,0,1,.18-.2.26.26,0,0,1,.15,0l.12,0c.36.13.72.27,1.07.43a.34.34,0,0,1,.19.45l-.54,1.35c.29.13.55.25.79.38l.65-1.27a.35.35,0,0,1,.2-.18h.11a.35.35,0,0,1,.17,0l1,.59a.35.35,0,0,1,.11.48l-.73,1.26c.24.16.49.33.73.51l.82-1.16a.38.38,0,0,1,.24-.15h.05a.33.33,0,0,1,.21.07q.47.36.9.75a.35.35,0,0,1,0,.48l-.9,1.12c.22.21.44.42.64.63l1-1a.36.36,0,0,1,.25-.11h0a.36.36,0,0,1,.25.11c.27.29.53.58.78.88a.36.36,0,0,1,0,.49l-1.06,1c.19.23.37.48.55.72l1.11-.84a.4.4,0,0,1,.21-.07h.06a.35.35,0,0,1,.23.14c.22.33.44.66.64,1a.35.35,0,0,1-.1.47l-1.19.79c.16.26.3.53.44.8l1.23-.65a.32.32,0,0,1,.16,0,.2.2,0,0,1,.11,0,.33.33,0,0,1,.21.17c.17.36.34.72.49,1.09a.35.35,0,0,1-.18.45l-1.26.58c.11.28.21.58.32.87l1.29-.44a.22.22,0,0,1,.11,0,.33.33,0,0,1,.34.24c.12.38.23.77.33,1.15a.37.37,0,0,1-.25.43l-1.35.37c.07.3.13.61.19.91l1.36-.24h.06a.37.37,0,0,1,.21.06.37.37,0,0,1,.14.23c.06.4.12.8.16,1.19a.36.36,0,0,1-.31.39l-1.38.15c0,.32.05.63.06.94l1.38,0a.31.31,0,0,1,.24.1.32.32,0,0,1,.11.24c0,.4,0,.81,0,1.2a.37.37,0,0,1-.12.25.33.33,0,0,1-.23.09l-1.4-.07q0,.45-.09.93l1.38.2a.35.35,0,0,1,.29.4c0,.39-.12.79-.2,1.18a.35.35,0,0,1-.15.23.38.38,0,0,1-.19.05h-.07l-1.35-.29c-.06.32-.13.62-.21.92l1.32.41a.35.35,0,0,1,.23.43c-.11.38-.23.77-.36,1.14a.34.34,0,0,1-.19.2.32.32,0,0,1-.14,0,.27.27,0,0,1-.13,0l-1.29-.5c-.11.28-.22.57-.35.86l1.27.63a.36.36,0,0,1,.16.46c-.17.36-.34.72-.53,1.07a.36.36,0,0,1-.21.17h-.1a.33.33,0,0,1-.17,0l-1.21-.7c-.15.27-.31.54-.46.79l1.15.82a.34.34,0,0,1,.09.48c-.21.33-.44.66-.67,1a.35.35,0,0,1-.24.14h0a.32.32,0,0,1-.22-.08l-1.08-.88c-.18.24-.37.47-.57.7l1,1a.34.34,0,0,1,0,.48c-.26.29-.53.58-.81.85a.31.31,0,0,1-.24.1h0a.33.33,0,0,1-.25-.11l-.95-1.05c-.22.2-.44.4-.67.59l.87,1.16a.36.36,0,0,1-.06.49l-.92.71a.37.37,0,0,1-.21.06h-.06a.36.36,0,0,1-.23-.15l-.77-1.18c-.25.17-.49.33-.75.48L348,351a.34.34,0,0,1-.13.47c-.33.2-.67.38-1,.56a.42.42,0,0,1-.16,0l-.11,0a.37.37,0,0,1-.2-.19l-.61-1.3c-.26.12-.52.24-.8.35l.5,1.38a.36.36,0,0,1-.2.45c-.36.14-.73.27-1.09.39h-.11a.29.29,0,0,1-.16,0,.34.34,0,0,1-.18-.21l-.4-1.38c-.28.08-.56.16-.84.22l.28,1.44a.35.35,0,0,1-.27.41c-.37.08-.75.15-1.13.21h-.05a.31.31,0,0,1-.21-.07.33.33,0,0,1-.14-.23l-.2-1.44-.86.08.07,1.47a.35.35,0,0,1-.33.36c-.33,0-.65,0-1,0Zm-.56-9.36a1.41,1.41,0,0,0-1.36,1.07,1.59,1.59,0,0,0,.23,1.34,1.29,1.29,0,0,0,1,.57l.93,0a12,12,0,0,0,3.66-.57,1.48,1.48,0,0,0,.93-.87,1.54,1.54,0,0,0-.07-1.31,1.39,1.39,0,0,0-1.23-.75,1.54,1.54,0,0,0-.43.06,9.35,9.35,0,0,1-2.87.45l-.65,0Zm-7.74-4a1.35,1.35,0,0,0-.67.18,1.48,1.48,0,0,0-.7,1,1.58,1.58,0,0,0,.35,1.3,12.55,12.55,0,0,0,3.64,3,1.11,1.11,0,0,0,.59.16,1.46,1.46,0,0,0,1.36-1.1,1.51,1.51,0,0,0-.72-1.74,9.82,9.82,0,0,1-2.76-2.3A1.44,1.44,0,0,0,330.19,340.59Zm18.43-2.24a1.42,1.42,0,0,0-1.25.81,10,10,0,0,1-2.19,2.89,1.54,1.54,0,0,0-.32,1.87,1.39,1.39,0,0,0,1.23.76h0a1.42,1.42,0,0,0,1-.39,12.93,12.93,0,0,0,2.86-3.81,1.43,1.43,0,0,0,0-1.23,1.47,1.47,0,0,0-.92-.84A1.32,1.32,0,0,0,348.62,338.35Zm-9.23.88a1.41,1.41,0,0,0-1.37,1.08l-.15.55a1.6,1.6,0,0,0,.27,1.39,1.31,1.31,0,0,0,1,.53c.28,0,.47,0,.65-.07a1.45,1.45,0,0,0,1.09-.8,1.54,1.54,0,0,0,0-1.43l-.26-.49A1.38,1.38,0,0,0,339.39,339.23Zm-4.54-1.35a1.32,1.32,0,0,0-.68.19l-.47.27a1.48,1.48,0,0,0-.72,1.15,1.59,1.59,0,0,0,.53,1.35c.14.12.28.24.43.35a1.22,1.22,0,0,0,.75.26,1.47,1.47,0,0,0,1.38-1.11l.15-.55a1.49,1.49,0,0,0-.26-1.34A1.39,1.39,0,0,0,334.85,337.88Zm8.64-1.05a1.4,1.4,0,0,0-1.19.7,1.55,1.55,0,0,0,0,1.53l.26.49a1.37,1.37,0,0,0,1.23.76h0a1.45,1.45,0,0,0,1.12-.55c.11-.15.23-.3.34-.46a1.44,1.44,0,0,0,.16-1.31,1.5,1.5,0,0,0-1-.95l-.52-.15A1.44,1.44,0,0,0,343.49,336.83Zm-16.06-4.77a1.41,1.41,0,0,0-1.4,1.31,13.77,13.77,0,0,0,.51,4.82,1.46,1.46,0,0,0,1.38,1.09h0a1.27,1.27,0,0,0,.68-.19,1.52,1.52,0,0,0,.65-1.77,10.76,10.76,0,0,1-.4-3.66,1.5,1.5,0,0,0-1-1.55A1.37,1.37,0,0,0,327.43,332.06Zm4.6,1.36a1.43,1.43,0,0,0-1,.46,1.4,1.4,0,0,0-.37,1.07c0,.19,0,.38.06.58a1.48,1.48,0,0,0,1.42,1.32h0a1.43,1.43,0,0,0,.68-.19l.46-.27a1.51,1.51,0,0,0,.73-1.5,1.45,1.45,0,0,0-1-1.25l-.52-.16A1.32,1.32,0,0,0,332,333.42Zm17.4-4a1.27,1.27,0,0,0-.68.19,1.52,1.52,0,0,0-.65,1.77,10.49,10.49,0,0,1,.4,3.65,1.49,1.49,0,0,0,1,1.55,1.44,1.44,0,0,0,.4.06,1.41,1.41,0,0,0,1.4-1.31,13.77,13.77,0,0,0-.51-4.82A1.46,1.46,0,0,0,349.43,329.39Zm-4.18,2.43a1.26,1.26,0,0,0-.67.19l-.47.27a1.5,1.5,0,0,0-.72,1.5,1.43,1.43,0,0,0,1,1.25l.52.16a1.32,1.32,0,0,0,.39.06,1.44,1.44,0,0,0,1.42-1.53l-.06-.58A1.5,1.5,0,0,0,345.25,331.82Zm-11.66-3.46a1.42,1.42,0,0,0-1.11.55c-.12.15-.24.3-.35.46a1.44,1.44,0,0,0-.16,1.31,1.51,1.51,0,0,0,1,.94l.52.16a1.44,1.44,0,0,0,.4.06,1.4,1.4,0,0,0,1.19-.7,1.55,1.55,0,0,0,0-1.53l-.26-.49A1.37,1.37,0,0,0,333.59,328.36Zm9.07-1.14a1.47,1.47,0,0,0-1.38,1.11l-.14.55a1.46,1.46,0,0,0,.25,1.34,1.41,1.41,0,0,0,1.11.57h0a1.32,1.32,0,0,0,.68-.19l.47-.27a1.46,1.46,0,0,0,.72-1.15,1.61,1.61,0,0,0-.52-1.35l-.44-.35A1.22,1.22,0,0,0,342.66,327.22ZM331.26,324a1.42,1.42,0,0,0-1,.39,12.93,12.93,0,0,0-2.86,3.81,1.43,1.43,0,0,0,0,1.23,1.47,1.47,0,0,0,.92.84,1.32,1.32,0,0,0,.39.06h0a1.41,1.41,0,0,0,1.25-.81,10,10,0,0,1,2.19-2.89,1.56,1.56,0,0,0,.33-1.87A1.41,1.41,0,0,0,331.26,324Zm6.83,1.91-.55.06a1.45,1.45,0,0,0-1.09.8,1.54,1.54,0,0,0,0,1.43l.26.49a1.38,1.38,0,0,0,1.23.76,1.41,1.41,0,0,0,1.37-1.08l.15-.55a1.6,1.6,0,0,0-.27-1.39,1.31,1.31,0,0,0-1-.53Zm5.86-3.48a1.46,1.46,0,0,0-1.36,1.1,1.52,1.52,0,0,0,.72,1.74,10,10,0,0,1,2.77,2.3,1.42,1.42,0,0,0,1.08.52h0a1.35,1.35,0,0,0,.67-.18,1.48,1.48,0,0,0,.7-1,1.57,1.57,0,0,0-.35-1.3,12.75,12.75,0,0,0-3.64-3A1.2,1.2,0,0,0,344,322.42Zm-5.29-1.35a12,12,0,0,0-3.66.57,1.48,1.48,0,0,0-.92.86,1.56,1.56,0,0,0,.06,1.32,1.38,1.38,0,0,0,1.23.75h0a1.67,1.67,0,0,0,.44-.06,9.29,9.29,0,0,1,2.86-.45l.65,0h0a1.44,1.44,0,0,0,1.45-1.07,1.59,1.59,0,0,0-.23-1.34,1.26,1.26,0,0,0-.95-.57Z" />
      <path d="M339.16,315.08c.37,0,.75,0,1.12.07l-.15,1.79c.51.05,1,.11,1.52.21l.31-1.77c.37.07.74.16,1.11.25l-.42,1.76.6.14c.3.09.58.21.87.32l.57-1.72c.35.13.71.27,1.05.42l-.66,1.66c.48.21.95.43,1.4.68l.8-1.59c.33.18.66.38,1,.58l-.9,1.55c.44.28.86.58,1.27.89l1-1.45c.3.23.59.48.88.73L349.43,321c.4.35.77.71,1.13,1.09l1.23-1.27c.27.28.52.57.77.87l-1.3,1.18c.33.41.65.83.95,1.26l1.4-1.06c.22.32.43.65.63,1l-1.46,1c.27.45.53.92.76,1.39l1.54-.82c.17.35.34.71.49,1.06l-1.58.72a15.82,15.82,0,0,1,.55,1.5l1.63-.56c.12.37.23.75.33,1.13l-1.68.46c.13.52.24,1,.32,1.57l1.71-.3c.07.39.12.78.16,1.17l-1.72.19c0,.53.09,1.06.09,1.6l1.73,0c0,.39,0,.79,0,1.18l-1.73-.09q0,.79-.15,1.59l1.71.26c-.05.39-.11.78-.19,1.16l-1.7-.36c-.08.43-.16.86-.28,1.28a2.14,2.14,0,0,1-.09.27l1.66.53c-.11.37-.23.75-.36,1.11l-1.63-.62q-.27.75-.6,1.47l1.57.78c-.16.36-.34.71-.52,1.05l-1.51-.88c-.25.47-.52.93-.81,1.37l1.43,1c-.21.32-.43.64-.67,1l-1.36-1.11a14.75,14.75,0,0,1-1,1.22l1.26,1.24c-.25.28-.52.56-.79.83L350.14,347c-.38.37-.76.72-1.17,1.05L350,349.5c-.29.24-.6.47-.91.69l-1-1.47c-.42.3-.86.58-1.31.84l.85,1.57c-.33.19-.67.37-1,.54l-.75-1.63a12.64,12.64,0,0,1-1.41.63l.61,1.7c-.35.14-.71.27-1.07.38l-.51-1.72c-.49.15-1,.29-1.48.4l.35,1.76c-.37.08-.74.15-1.12.21l-.24-1.79c-.51.08-1,.13-1.53.16l.09,1.8c-.31,0-.63,0-.95,0h-.18l0-1.82c-.51,0-1,0-1.54-.08l-.17,1.8c-.37,0-.75-.1-1.12-.16l.28-1.78a13.49,13.49,0,0,1-1.5-.34L334,353l-.4-.11-.68-.22.54-1.72q-.74-.26-1.44-.57l-.68,1.67-1-.5.78-1.61c-.46-.24-.9-.51-1.33-.79l-.92,1.53c-.32-.21-.63-.43-.94-.66l1-1.48c-.41-.31-.82-.64-1.2-1l-1.14,1.37-.83-.8,1.21-1.28c-.37-.38-.72-.77-1.05-1.18l-1.31,1.16c-.24-.3-.48-.61-.7-.92l1.39-1.08a14.36,14.36,0,0,1-.86-1.33l-1.48,1c-.2-.34-.39-.68-.56-1l1.52-.85q-.36-.7-.66-1.44l-1.59.69c-.14-.36-.28-.73-.4-1.1l1.63-.59c-.17-.51-.32-1-.44-1.54l-1.68.44c-.09-.38-.17-.77-.24-1.16l1.7-.33q-.13-.78-.21-1.59l-1.72.17c0-.39-.06-.79-.07-1.18l1.72,0c0-.54,0-1.07,0-1.61l-1.72-.11c0-.39.06-.79.11-1.18l1.72.23c.06-.53.15-1.05.26-1.58l-1.7-.39c.08-.38.18-.77.28-1.14V329l1.65.5a15,15,0,0,1,.5-1.52l-1.61-.65c.14-.37.29-.73.44-1.09l1.58.76c.21-.49.45-1,.7-1.42l-1.5-.91c.19-.34.39-.68.59-1l1.44,1c.28-.45.58-.88.9-1.3l-1.34-1.12c.24-.31.49-.61.74-.9l1.28,1.22c.35-.39.71-.77,1.09-1.13l-1.17-1.34c.27-.26.56-.52.85-.77l1.09,1.41c.4-.33.81-.65,1.24-.95l-1-1.5c.31-.22.63-.43,1-.62l.86,1.56a15.12,15.12,0,0,1,1.37-.74l-.73-1.64c.34-.17.69-.32,1-.46l.63,1.68c.48-.19,1-.36,1.45-.51l-.48-1.74c.36-.11.73-.21,1.1-.3l.37,1.75c.5-.11,1-.2,1.52-.27l-.22-1.78c.37-.05.75-.09,1.12-.12l.12,1.81c.35,0,.71,0,1.07,0h.46l.05-1.81m-3.79,9.84a1.68,1.68,0,0,0,.54-.08,9.2,9.2,0,0,1,2.76-.43c.21,0,.42,0,.63,0h.12a1.77,1.77,0,0,0,1.7-1.33h0a1.83,1.83,0,0,0-1.5-2.35l-1,0a12.47,12.47,0,0,0-3.76.58,1.9,1.9,0,0,0-1.07,2.69h0a1.74,1.74,0,0,0,1.54.93m11.79,3.51a1.59,1.59,0,0,0,.84-.23h0a1.91,1.91,0,0,0,.45-2.87,13.05,13.05,0,0,0-3.74-3.06,1.49,1.49,0,0,0-.76-.2,1.82,1.82,0,0,0-1.7,1.36h0a1.87,1.87,0,0,0,.89,2.13,9.82,9.82,0,0,1,2.67,2.21,1.77,1.77,0,0,0,1.35.65m-18.43,2.24a1.78,1.78,0,0,0,1.56-1,10,10,0,0,1,2.12-2.79,1.92,1.92,0,0,0,.4-2.29h0a1.75,1.75,0,0,0-1.55-.95,1.78,1.78,0,0,0-1.2.48,13.33,13.33,0,0,0-2.93,3.91,1.84,1.84,0,0,0,1.11,2.56h0a2,2,0,0,0,.48.07m9.23-.88a1.77,1.77,0,0,0,1.71-1.34l.15-.55a1.83,1.83,0,0,0-1.63-2.36h-.12a5.42,5.42,0,0,0-.58.06,1.88,1.88,0,0,0-1.33,2.74l.26.49a1.73,1.73,0,0,0,1.54,1m4.54,1.35a1.65,1.65,0,0,0,.86-.24l.47-.27a1.91,1.91,0,0,0,.25-3.06l-.46-.37a1.55,1.55,0,0,0-1-.33,1.8,1.8,0,0,0-1.71,1.37l-.15.54a1.84,1.84,0,0,0,1.7,2.36m-8.64,1.05a1.85,1.85,0,0,0,1.53-2.75l-.26-.49a1.73,1.73,0,0,0-1.54-.94,1.77,1.77,0,0,0-1.39.68,5.92,5.92,0,0,0-.35.48,1.85,1.85,0,0,0,1,2.79l.52.16a1.77,1.77,0,0,0,.5.07M349.92,337a1.76,1.76,0,0,0,1.75-1.64,14.24,14.24,0,0,0-.52-4.93,1.83,1.83,0,0,0-1.72-1.35,1.65,1.65,0,0,0-.85.23h0a1.89,1.89,0,0,0-.82,2.18,10.15,10.15,0,0,1,.39,3.53,1.86,1.86,0,0,0,1.27,1.91h0a1.66,1.66,0,0,0,.49.07m-4.6-1.36a1.78,1.78,0,0,0,1.76-1.9,5.8,5.8,0,0,0-.06-.6,1.82,1.82,0,0,0-1.77-1.63,1.62,1.62,0,0,0-.85.24l-.47.27a1.88,1.88,0,0,0,.38,3.39l.52.16a2.14,2.14,0,0,0,.49.07m-17.4,4a1.66,1.66,0,0,0,.85-.24,1.87,1.87,0,0,0,.82-2.17,10.15,10.15,0,0,1-.39-3.53,1.85,1.85,0,0,0-1.27-1.91h0a1.66,1.66,0,0,0-.49-.07,1.76,1.76,0,0,0-1.75,1.64,14,14,0,0,0,.53,4.93,1.81,1.81,0,0,0,1.71,1.35m4.18-2.43A1.72,1.72,0,0,0,333,337l.47-.27a1.88,1.88,0,0,0-.38-3.39l-.52-.16a2.14,2.14,0,0,0-.49-.07,1.77,1.77,0,0,0-1.76,1.9q0,.3.06.6a1.82,1.82,0,0,0,1.77,1.63m11.66,3.46a1.77,1.77,0,0,0,1.39-.68c.12-.16.24-.31.35-.48a1.85,1.85,0,0,0-1-2.79l-.52-.16a1.77,1.77,0,0,0-.5-.07,1.85,1.85,0,0,0-1.53,2.75l.26.49a1.73,1.73,0,0,0,1.54.94m-9.07,1.14a1.8,1.8,0,0,0,1.71-1.37l.15-.55a1.83,1.83,0,0,0-1.7-2.35,1.68,1.68,0,0,0-.86.24l-.47.27a1.91,1.91,0,0,0-.25,3.06l.46.37a1.62,1.62,0,0,0,1,.33m11.4,3.23a1.78,1.78,0,0,0,1.2-.48,13.46,13.46,0,0,0,2.93-3.91,1.85,1.85,0,0,0-1.11-2.57h0a2,2,0,0,0-.48-.07,1.78,1.78,0,0,0-1.56,1,9.92,9.92,0,0,1-2.11,2.79,1.89,1.89,0,0,0-.4,2.29,1.74,1.74,0,0,0,1.54.95m-6.93-1.9h.13l.57-.06a1.88,1.88,0,0,0,1.33-2.74l-.26-.49a1.71,1.71,0,0,0-1.54-.95,1.76,1.76,0,0,0-1.7,1.34l-.15.55a1.82,1.82,0,0,0,1.62,2.36m-5.76,3.47a1.82,1.82,0,0,0,1.7-1.36h0a1.87,1.87,0,0,0-.89-2.13,9.82,9.82,0,0,1-2.67-2.21,1.75,1.75,0,0,0-1.35-.65,1.59,1.59,0,0,0-.84.23,1.92,1.92,0,0,0-.45,2.87,13.05,13.05,0,0,0,3.74,3.06,1.52,1.52,0,0,0,.76.2m5.28-2.34-.62,0h-.13a1.77,1.77,0,0,0-1.7,1.33h0a1.82,1.82,0,0,0,1.5,2.34c.32,0,.64,0,1,0a12.47,12.47,0,0,0,3.76-.58,1.9,1.9,0,0,0,1.07-2.69,1.74,1.74,0,0,0-1.54-.94,1.7,1.7,0,0,0-.54.09,9.2,9.2,0,0,1-2.76.43m.48-29.88a.75.75,0,0,0-.49.19.69.69,0,0,0-.21.49l0,1.13h-.2l-.07-1.12a.68.68,0,0,0-.24-.48.65.65,0,0,0-.46-.18h0l-1.17.12a.7.7,0,0,0-.6.78l.14,1.11-.2,0-.23-1.07a.7.7,0,0,0-.68-.56l-.16,0c-.38.09-.76.19-1.14.31a.7.7,0,0,0-.47.85l.3,1.1-.19.07-.38-1a.74.74,0,0,0-.38-.4.69.69,0,0,0-.28-.05.65.65,0,0,0-.27.05c-.36.15-.72.31-1.07.48a.69.69,0,0,0-.34.91l.46,1-.19.1-.52-.93a.7.7,0,0,0-.43-.34.55.55,0,0,0-.18,0,.65.65,0,0,0-.36.1c-.34.2-.67.42-1,.64a.7.7,0,0,0-.19.95l.6.95-.17.14-.65-.84a.71.71,0,0,0-.48-.27h-.08a.7.7,0,0,0-.45.17c-.3.25-.6.52-.89.79a.7.7,0,0,0,0,1l.74.85-.17.16-.76-.72a.67.67,0,0,0-.48-.2h0a.74.74,0,0,0-.5.24c-.26.3-.52.61-.76.93a.7.7,0,0,0,.1,1l.84.71a1.43,1.43,0,0,0-.14.2l-.85-.59a.68.68,0,0,0-.4-.12h-.13a.74.74,0,0,0-.46.31c-.21.34-.42.69-.61,1a.71.71,0,0,0,.25.94l.93.56a1.63,1.63,0,0,1-.11.23l-.93-.45a.67.67,0,0,0-.31-.07,1,1,0,0,0-.24,0,.74.74,0,0,0-.4.38c-.16.36-.31.74-.46,1.12a.72.72,0,0,0,.4.9l1,.4c0,.08-.05.16-.08.25l-1-.3a.64.64,0,0,0-.2,0,.72.72,0,0,0-.34.09.7.7,0,0,0-.33.42l0,.05c-.1.39-.2.79-.28,1.18a.7.7,0,0,0,.53.83l1,.24a2,2,0,0,1,0,.26l-1-.13h-.09a.66.66,0,0,0-.43.15.67.67,0,0,0-.27.47c-.05.4-.08.81-.11,1.21a.71.71,0,0,0,.65.75l1,.07c0,.09,0,.18,0,.27l-1,0a.7.7,0,0,0-.68.72c0,.41,0,.82.07,1.22a.73.73,0,0,0,.25.48.75.75,0,0,0,.45.16h.06l1-.1a2.34,2.34,0,0,0,0,.26l-1,.2a.7.7,0,0,0-.56.81c.07.4.15.81.25,1.2a.71.71,0,0,0,.32.44.75.75,0,0,0,.36.1l.18,0,1-.26a2.5,2.5,0,0,0,.07.26l-1,.36a.72.72,0,0,0-.42.89q.19.57.42,1.14a.69.69,0,0,0,.39.38.58.58,0,0,0,.26.05.87.87,0,0,0,.28-.05l1-.42c0,.08.07.16.1.23l-.94.53a.7.7,0,0,0-.29.93c.19.36.38.72.58,1.06a.73.73,0,0,0,.44.33l.17,0a.76.76,0,0,0,.38-.11l.87-.57.14.21-.87.68a.69.69,0,0,0-.14,1c.23.32.47.64.73,1a.66.66,0,0,0,.48.26h.06a.69.69,0,0,0,.46-.17l.78-.69.16.18-.76.8a.71.71,0,0,0,0,1l.86.83a.69.69,0,0,0,.47.18h0a.71.71,0,0,0,.49-.25l.68-.82.17.14-.64.93a.71.71,0,0,0,.16,1c.32.24.65.47,1,.68a.69.69,0,0,0,.39.12l.15,0a.71.71,0,0,0,.45-.32l.55-.92.18.11-.49,1a.71.71,0,0,0,.31.93c.34.18.7.35,1.06.52a.72.72,0,0,0,.29.06.85.85,0,0,0,.26-.05.69.69,0,0,0,.38-.39l.42-1,.19.08-.34,1.08a.71.71,0,0,0,.44.87l.71.23.42.12.18,0a.74.74,0,0,0,.36-.09.71.71,0,0,0,.32-.44l.27-1.07.19.05-.17,1.11a.69.69,0,0,0,.57.8c.38.07.78.12,1.16.16h.08a.72.72,0,0,0,.44-.16.69.69,0,0,0,.25-.47l.11-1.12h.2v1.13a.7.7,0,0,0,.69.71h.19q.49,0,1,0a.7.7,0,0,0,.66-.73l-.06-1.13.2,0,.15,1.11a.72.72,0,0,0,.28.46.68.68,0,0,0,.41.14h.11c.39-.06.78-.13,1.16-.21a.71.71,0,0,0,.54-.82l-.23-1.11.2-.05.31,1.05a.68.68,0,0,0,.34.42.64.64,0,0,0,.33.08l.21,0c.38-.12.75-.25,1.11-.4a.69.69,0,0,0,.41-.89l-.39-1.06.19-.09.46,1a.73.73,0,0,0,.4.37,1,1,0,0,0,.23,0,.72.72,0,0,0,.32-.08c.35-.18.7-.37,1-.57a.69.69,0,0,0,.26-.93l-.52-1,.18-.12.58.88a.67.67,0,0,0,.46.3h.12a.67.67,0,0,0,.41-.13c.32-.23.64-.47.95-.72a.69.69,0,0,0,.11-1l-.67-.9.17-.16.71.79a.66.66,0,0,0,.5.23h0a.7.7,0,0,0,.49-.2c.28-.28.56-.57.83-.86a.7.7,0,0,0,0-1l-.79-.78.16-.18.8.66a.71.71,0,0,0,.44.15h.09a.77.77,0,0,0,.48-.28c.23-.32.47-.65.69-1a.71.71,0,0,0-.18-.95l-.89-.64.12-.21.9.52a.73.73,0,0,0,.35.09l.19,0a.72.72,0,0,0,.43-.35c.19-.35.37-.72.54-1.08a.71.71,0,0,0-.33-.92l-1-.49c0-.08.07-.16.1-.23l1,.37a.69.69,0,0,0,.25,0,.72.72,0,0,0,.29-.06.69.69,0,0,0,.37-.4c.13-.39.26-.78.37-1.16a.7.7,0,0,0-.46-.86l-1-.32.06-.26,1,.22h.15a.68.68,0,0,0,.69-.56c.08-.4.14-.8.2-1.21a.69.69,0,0,0-.59-.78l-1-.16,0-.27,1,.06h0a.74.74,0,0,0,.47-.18.71.71,0,0,0,.23-.49c0-.41,0-.82,0-1.22a.69.69,0,0,0-.21-.49.7.7,0,0,0-.49-.2h-1.05a2.45,2.45,0,0,0,0-.27l1-.11a.7.7,0,0,0,.62-.77c0-.4-.09-.81-.15-1.21a.71.71,0,0,0-.29-.46.67.67,0,0,0-.41-.13h-.12l-1,.18c0-.09,0-.18,0-.26l1-.29a.7.7,0,0,0,.5-.84c-.1-.4-.22-.79-.34-1.18a.68.68,0,0,0-.67-.48l-.23,0-1,.34-.09-.25,1-.44a.7.7,0,0,0,.35-.91c-.15-.37-.32-.74-.5-1.1a.7.7,0,0,0-.41-.36.78.78,0,0,0-.22,0,.8.8,0,0,0-.33.08l-.91.49-.12-.22.91-.6a.69.69,0,0,0,.21-.95,11.61,11.61,0,0,0-.65-1,.71.71,0,0,0-.47-.3h-.11a.71.71,0,0,0-.42.14l-.83.63-.14-.19.81-.74a.7.7,0,0,0,.07-1c-.26-.31-.53-.61-.8-.9a.68.68,0,0,0-.5-.22h0a.68.68,0,0,0-.5.22l-.73.75-.17-.16.71-.87a.7.7,0,0,0-.09-1c-.29-.27-.6-.52-.91-.76a.7.7,0,0,0-.43-.15h-.11a.7.7,0,0,0-.47.28l-.61.88-.18-.13.57-1a.7.7,0,0,0-.23-.94c-.34-.21-.68-.42-1-.61a.84.84,0,0,0-.34-.08l-.21,0a.73.73,0,0,0-.42.35l-.48,1-.19-.09.42-1a.72.72,0,0,0-.38-.91c-.36-.15-.73-.3-1.09-.43a.73.73,0,0,0-.55,0,.7.7,0,0,0-.36.41l-.34,1-.19-.06.26-1.09a.71.71,0,0,0-.51-.84c-.38-.1-.76-.18-1.15-.25l-.13,0a.73.73,0,0,0-.4.13.69.69,0,0,0-.29.45l-.19,1.09-.19,0,.09-1.11a.7.7,0,0,0-.63-.76c-.39,0-.78-.06-1.17-.07Zm-3.79,9.84a1,1,0,0,1-.92-.56,1.18,1.18,0,0,1-.05-1,1.15,1.15,0,0,1,.71-.67,11.59,11.59,0,0,1,3.55-.55c.3,0,.61,0,.91,0a1,1,0,0,1,.7.42,1.28,1.28,0,0,1,.18,1,1.07,1.07,0,0,1-1,.82h-.08c-.22,0-.44,0-.67,0a9.69,9.69,0,0,0-3,.46,1,1,0,0,1-.33.05Zm11.79,3.51a1.1,1.1,0,0,1-.82-.4,10,10,0,0,0-2.86-2.37,1.19,1.19,0,0,1-.55-1.34,1.11,1.11,0,0,1,1-.85.88.88,0,0,1,.42.11,12.37,12.37,0,0,1,3.55,2.9,1.3,1.3,0,0,1,.27,1,1.08,1.08,0,0,1-.54.79,1,1,0,0,1-.49.14ZM328.73,330a.87.87,0,0,1-.28-.05,1.1,1.1,0,0,1-.71-.64,1.14,1.14,0,0,1,0-.94,12.75,12.75,0,0,1,2.79-3.71,1,1,0,0,1,1.65.29,1.21,1.21,0,0,1-.26,1.45,10.18,10.18,0,0,0-2.26,3,1.09,1.09,0,0,1-.94.62Zm9.23-.88a1,1,0,0,1-.92-.58l-.26-.49a1.16,1.16,0,0,1,0-1.1,1.11,1.11,0,0,1,.82-.62l.53-.05h.07a1,1,0,0,1,.74.39,1.28,1.28,0,0,1,.21,1.09l-.15.54a1.07,1.07,0,0,1-1,.83Zm4.54,1.35a1,1,0,0,1-.83-.43,1.16,1.16,0,0,1-.2-1l.15-.55a1.12,1.12,0,0,1,1-.85.83.83,0,0,1,.54.19l.42.34a1.21,1.21,0,0,1,.4,1,1.12,1.12,0,0,1-.55.89l-.46.27a1.09,1.09,0,0,1-.51.14Zm-8.64,1.05a1.65,1.65,0,0,1-.3,0l-.52-.16a1.14,1.14,0,0,1-.74-.73,1.08,1.08,0,0,1,.12-1l.33-.44a1.08,1.08,0,0,1,.84-.42,1,1,0,0,1,.92.57l.26.49a1.19,1.19,0,0,1,0,1.19,1,1,0,0,1-.89.53Zm16.06,4.77a.92.92,0,0,1-.29,0,1.14,1.14,0,0,1-.78-1.19,11,11,0,0,0-.42-3.78,1.18,1.18,0,0,1,.5-1.37,1,1,0,0,1,.5-.14,1.1,1.1,0,0,1,1,.84,13.3,13.3,0,0,1,.5,4.69,1.06,1.06,0,0,1-1.05,1Zm-4.6-1.36a1,1,0,0,1-.29,0l-.52-.15a1.11,1.11,0,0,1-.78-1,1.18,1.18,0,0,1,.55-1.16l.47-.27a1,1,0,0,1,.5-.14,1.13,1.13,0,0,1,1.08,1l.06.56a1,1,0,0,1-.29.8,1.07,1.07,0,0,1-.78.35Zm-17.4,4a1.1,1.1,0,0,1-1-.84,13.33,13.33,0,0,1-.5-4.7,1.06,1.06,0,0,1,1.05-1,.92.92,0,0,1,.29,0,1.14,1.14,0,0,1,.78,1.19,11,11,0,0,0,.42,3.78,1.18,1.18,0,0,1-.5,1.37,1,1,0,0,1-.5.14Zm4.18-2.43a1.13,1.13,0,0,1-1.08-1c0-.19,0-.37,0-.56a1,1,0,0,1,.28-.8,1.07,1.07,0,0,1,.78-.35,1,1,0,0,1,.29.05l.52.15a1.11,1.11,0,0,1,.78,1,1.18,1.18,0,0,1-.55,1.16l-.47.27a1,1,0,0,1-.5.14ZM343.76,340a1,1,0,0,1-.92-.57l-.26-.49a1.21,1.21,0,0,1,0-1.19,1,1,0,0,1,.89-.53,1,1,0,0,1,.3,0l.52.16a1.14,1.14,0,0,1,.74.73,1.08,1.08,0,0,1-.12,1c-.11.15-.21.3-.33.44a1.05,1.05,0,0,1-.84.42Zm-9.07,1.14a.91.91,0,0,1-.54-.19c-.14-.11-.28-.22-.41-.34a1.2,1.2,0,0,1-.41-1,1.12,1.12,0,0,1,.55-.89l.46-.27a1.09,1.09,0,0,1,.51-.14,1.08,1.08,0,0,1,.84.43,1.16,1.16,0,0,1,.19,1l-.15.55a1.12,1.12,0,0,1-1,.85Zm11.4,3.23a1.06,1.06,0,0,1-.93-.58,1.21,1.21,0,0,1,.26-1.45,10.43,10.43,0,0,0,2.27-3,1.07,1.07,0,0,1,.93-.61,1.26,1.26,0,0,1,.28,0,1.14,1.14,0,0,1,.71.65,1.1,1.1,0,0,1,0,.94,13,13,0,0,1-2.78,3.71,1.08,1.08,0,0,1-.73.29Zm-6.93-1.9a1,1,0,0,1-.74-.39,1.28,1.28,0,0,1-.21-1.09l.15-.54a1.07,1.07,0,0,1,1-.83,1,1,0,0,1,.92.58l.26.49a1.19,1.19,0,0,1,0,1.1,1.09,1.09,0,0,1-.83.61,4.78,4.78,0,0,1-.53.06Zm-5.76,3.47a.88.88,0,0,1-.42-.11,12.19,12.19,0,0,1-3.54-2.9,1.27,1.27,0,0,1-.28-1,1.12,1.12,0,0,1,.54-.8,1.05,1.05,0,0,1,.49-.13,1.07,1.07,0,0,1,.82.4,10.14,10.14,0,0,0,2.86,2.37,1.19,1.19,0,0,1,.55,1.34,1.11,1.11,0,0,1-1,.85Zm5.28-.94a9.65,9.65,0,0,0,3-.46,1,1,0,0,1,.33-.05,1,1,0,0,1,.92.56,1.18,1.18,0,0,1,.05,1,1.15,1.15,0,0,1-.71.67,11.59,11.59,0,0,1-3.55.55c-.3,0-.61,0-.91,0a1,1,0,0,1-.7-.42,1.28,1.28,0,0,1-.18-1,1.07,1.07,0,0,1,1-.82H338l.67,0Z" />
      <path class="GUNDAN_OTTER_OUTFIT_GUNDAN_OTTER_OUTFIT_30_cls-6" d="M99.34,388.52a38.15,38.15,0,0,0,2-6.31,59.27,59.27,0,0,1-24.49,36.62l-.13.09c-5,6.67,3.89,13.94,12.07,11.51a47.81,47.81,0,0,1-13.43,6.47l-20.83-.09,1.33-11.5s.5,0,1.39-.06a158.33,158.33,0,0,1,3.62-18.05c2.95.56,12,1.35,24.52-4A26.51,26.51,0,0,0,99.34,388.52Z" />
      <path d="M101.45,381.71c.16-.8.27-1.5.37-2.08C101.73,380.22,101.61,380.93,101.45,381.71Z" />
      <path d="M102,377.84c0,.24,0,.61-.11,1.1C102,378.45,102,378.08,102,377.84Z" />
      <path class="GUNDAN_OTTER_OUTFIT_GUNDAN_OTTER_OUTFIT_30_cls-6" d="M108,437c.53-6.1,1.15-18.65-1.81-26.82,0,0,0,0,0-.06,7.21-18.37,9.82-29.86,10-30.56v0l0,0c.45.74,7.69,12.6,9,13.15l0,.19c-.29,2.35-2.86,26.38,12.13,44.21Z" />
      <path class="GUNDAN_OTTER_OUTFIT_GUNDAN_OTTER_OUTFIT_30_cls-11" d="M230.17,382.2a43.11,43.11,0,0,1,17.21,18.27,44.07,44.07,0,0,1,4.73,19.94A40.76,40.76,0,0,1,251,431.33" />
      <path class="GUNDAN_OTTER_OUTFIT_GUNDAN_OTTER_OUTFIT_30_cls-11" d="M248,401a25.13,25.13,0,0,1,17.51-19.06" />
    </g>
  </g>
</svg>