<svg xmlns="http://www.w3.org/2000/svg" viewBox="0 0 432 432">
  <defs>
    <style>.GUNDAN_OTTER_OUTFIT_GUNDAN_OTTER_OUTFIT_22_cls-1{isolation:isolate;}.GUNDAN_OTTER_OUTFIT_GUNDAN_OTTER_OUTFIT_22_cls-2{fill:#b2476f;}.GUNDAN_OTTER_OUTFIT_GUNDAN_OTTER_OUTFIT_22_cls-3{fill:#4f4033;}.GUNDAN_OTTER_OUTFIT_GUNDAN_OTTER_OUTFIT_22_cls-4{fill:#8e6b29;}.GUNDAN_OTTER_OUTFIT_GUNDAN_OTTER_OUTFIT_22_cls-5{fill:#863a2c;}.GUNDAN_OTTER_OUTFIT_GUNDAN_OTTER_OUTFIT_22_cls-6,.GUNDAN_OTTER_OUTFIT_GUNDAN_OTTER_OUTFIT_22_cls-7,.GUNDAN_OTTER_OUTFIT_GUNDAN_OTTER_OUTFIT_22_cls-8{fill:none;stroke:#000;stroke-linecap:round;stroke-linejoin:round;}.GUNDAN_OTTER_OUTFIT_GUNDAN_OTTER_OUTFIT_22_cls-6{stroke-width:1.72px;}.GUNDAN_OTTER_OUTFIT_GUNDAN_OTTER_OUTFIT_22_cls-7{stroke-width:1.76px;}.GUNDAN_OTTER_OUTFIT_GUNDAN_OTTER_OUTFIT_22_cls-8{stroke-width:1.7px;}.GUNDAN_OTTER_OUTFIT_GUNDAN_OTTER_OUTFIT_22_cls-9{fill:#31252a;opacity:0.4;mix-blend-mode:multiply;}</style>
  </defs>
  <g class="GUNDAN_OTTER_OUTFIT_GUNDAN_OTTER_OUTFIT_22_cls-1">
    <g id="outfit">
      <path class="GUNDAN_OTTER_OUTFIT_GUNDAN_OTTER_OUTFIT_22_cls-2" d="M231.36,425.14a2.65,2.65,0,1,1-2.64-2.64A2.65,2.65,0,0,1,231.36,425.14Z" />
      <path class="GUNDAN_OTTER_OUTFIT_GUNDAN_OTTER_OUTFIT_22_cls-3" d="M100.76,439.18a3,3,0,0,1-.38.15,1.45,1.45,0,0,1-.26.11c-6.68,2.52-18.23,1-28.41-2.93a54.39,54.39,0,0,1-10.07-5.14l0,0c-.78-.51-1.54-1-2.25-1.6-6.16-4.75-11.64-7.46-16.85-8.46a39.89,39.89,0,0,0,1.84-8.54c.46-4.55.1-10-3.07-14a22,22,0,0,1,6.3,1.46l.72.3c6.67,2.77,13,8.3,17.24,13.43A55.44,55.44,0,0,0,72,420.67a35.35,35.35,0,0,0,5.65,4.05,28.79,28.79,0,0,0,3.43,1.7,33.33,33.33,0,0,0,17.48,2,.58.58,0,0,0,.19,0c.19,0,.37,0,.55-.07.2,2.73.51,5.28.91,7.58,0,0,0,.09,0,.13v0C100.36,437.17,100.56,438.21,100.76,439.18Z" />
      <path class="GUNDAN_OTTER_OUTFIT_GUNDAN_OTTER_OUTFIT_22_cls-4" d="M108.68,389.77a49.46,49.46,0,0,0-4,6.85c-.19-.45-.38-.89-.57-1.35-1.36-3.12-3-6.39-4.83-9.7-6.24-11.27-15-23.11-23.79-31.22-1.14-1.06-2.29-2.05-3.43-3a3.7,3.7,0,0,1-.7-.73,4,4,0,0,1-.34-4.36,5.4,5.4,0,0,1,1-1.3,4,4,0,0,1,4.61-.55,3.61,3.61,0,0,1,.69.46c1.33,1.1,2.61,2.22,3.84,3.38a109.89,109.89,0,0,1,19.42,24.84A112.43,112.43,0,0,1,108.68,389.77Z" />
      <path class="GUNDAN_OTTER_OUTFIT_GUNDAN_OTTER_OUTFIT_22_cls-4" d="M138.74,429c-9.29-5-28.14.3-35.93,18a69.34,69.34,0,0,1-2-7.79c-.2-1-.4-2-.59-3.11v0c0-.05,0-.09,0-.13,7.7-10.47,21.08-16.86,31.18-17a19.06,19.06,0,0,1,12.39,4.58A61.21,61.21,0,0,0,171,436.31C158,441.24,145,432.35,138.74,429Z" />
      <path class="GUNDAN_OTTER_OUTFIT_GUNDAN_OTTER_OUTFIT_22_cls-3" d="M99.25,428.33c-.18,0-.36.06-.55.07a.58.58,0,0,1-.19,0,33.33,33.33,0,0,1-17.48-2,28.79,28.79,0,0,1-3.43-1.7A35.35,35.35,0,0,1,72,420.67,55.44,55.44,0,0,1,65.53,414c-4.22-5.13-10.57-10.66-17.24-13.43l-.72-.3a22.52,22.52,0,0,0-2.24-20.64,23.07,23.07,0,0,1,8.57,1.82c.74.31,1.49.65,2.22,1,6.7,3.38,13,9.54,17.25,17a48.06,48.06,0,0,0,6.64,9c.86.92,1.76,1.79,2.67,2.6l0,0c.63.58,1.29,1.12,2,1.65a38.07,38.07,0,0,0,13.76,7.05l.19,0,.48.12A73.18,73.18,0,0,0,99.25,428.33Z" />
      <path class="GUNDAN_OTTER_OUTFIT_GUNDAN_OTTER_OUTFIT_22_cls-5" d="M104.69,396.62l-.56,1.19a44.4,44.4,0,0,0-1.65,4.13h0s-.26-.33-.76-.85A19,19,0,0,0,88,395.27a9.06,9.06,0,0,1,7.24-2.2s-3.42-6.16-16.24-7c5.91-3.44,9.89-3.44,9.89-3.44a26.84,26.84,0,0,0-20.5-3.95c5.23-5.46,13.08-6.34,13.08-6.34s-9.8-4.8-17.94-.77c1.77-5.66,7.69-10.15,7.69-10.15a9.81,9.81,0,0,0-1.64-.1,15.21,15.21,0,0,0-11.26,5.12,37.26,37.26,0,0,1,13.05-15.75,3.7,3.7,0,0,0,.7.73c1.14.92,2.29,1.91,3.43,3,8.82,8.11,17.55,19.95,23.79,31.22,1.85,3.31,3.47,6.58,4.83,9.7C104.31,395.73,104.5,396.17,104.69,396.62Z" />
      <path class="GUNDAN_OTTER_OUTFIT_GUNDAN_OTTER_OUTFIT_22_cls-3" d="M103,447.49H36.5s-.47-4,2.4-11.35a15.07,15.07,0,0,0,.52-1.51,14,14,0,0,0,.61-3.5,12.73,12.73,0,0,0-4.54-10.19,24,24,0,0,1,6.64.27l.37.07c5.21,1,10.69,3.71,16.85,8.46.71.55,1.47,1.09,2.25,1.6l0,0a54.39,54.39,0,0,0,10.07,5.14c10.18,4,21.73,5.45,28.41,2.93a1.45,1.45,0,0,0,.26-.11,3,3,0,0,0,.38-.15,70.66,70.66,0,0,0,2,7.69.49.49,0,0,0,0,.11C102.87,447.18,102.92,447.35,103,447.49Z" />
      <path class="GUNDAN_OTTER_OUTFIT_GUNDAN_OTTER_OUTFIT_22_cls-3" d="M102.48,401.94c-.14.36-.28.74-.4,1.1-.53,1.59-1,3.17-1.34,4.75-.22.94-.42,1.88-.59,2.81-.06.27-.11.55-.15.83a63.13,63.13,0,0,0-.88,8.46l-.48-.12-.19,0a38.07,38.07,0,0,1-13.76-7.05c-.67-.53-1.33-1.07-2-1.65l0,0c-.91-.81-1.81-1.68-2.67-2.6a48.06,48.06,0,0,1-6.64-9c-4.27-7.43-10.55-13.59-17.25-17-.73-.38-1.48-.72-2.22-1,0,0,4.78-11.73,11.82-19.59a15.13,15.13,0,0,1,3.86-.53,9.81,9.81,0,0,1,1.64.1s-5.92,4.49-7.69,10.15c8.14-4,17.94.77,17.94.77s-7.85.88-13.08,6.34a26.84,26.84,0,0,1,20.5,3.95s-4,0-9.89,3.44c12.82.88,16.24,7,16.24,7a9.06,9.06,0,0,0-7.24,2.2,19,19,0,0,1,13.71,5.82c.5.52.76.85.76.85Z" />
      <path class="GUNDAN_OTTER_OUTFIT_GUNDAN_OTTER_OUTFIT_22_cls-3" d="M352,409.35a16.4,16.4,0,0,0-.39,2.07h0a58.07,58.07,0,0,0-2.34-9.13h0a21.59,21.59,0,0,1,10.32-10.41l-6.85.23a15.61,15.61,0,0,1,10.47-6.51,17.46,17.46,0,0,0-6.85-2.42,10.47,10.47,0,0,1,6.89-1.06,34.88,34.88,0,0,1,4.47,8.09c-1.37,2.36-2.42,5.19-4.16,8.33A28.34,28.34,0,0,1,352,409.35Z" />
      <path class="GUNDAN_OTTER_OUTFIT_GUNDAN_OTTER_OUTFIT_22_cls-2" d="M269.18,422.5a2.65,2.65,0,1,1-2.65,2.64A2.65,2.65,0,0,1,269.18,422.5Z" />
      <path class="GUNDAN_OTTER_OUTFIT_GUNDAN_OTTER_OUTFIT_22_cls-3" d="M367.74,390.2c1.87-3.21,4.28-5.54,9.76-6.55-4.95,5.5-4,17-.91,21.74-4.83,2.62-6.19,5.79-12.79,13.11-8.48,9.41-11.21,5.11-11.21,5.11a68.35,68.35,0,0,0-1-12.19h0a16.4,16.4,0,0,1,.39-2.07,28.34,28.34,0,0,0,11.55-10.82C365.32,395.39,366.37,392.56,367.74,390.2Z" />
      <path class="GUNDAN_OTTER_OUTFIT_GUNDAN_OTTER_OUTFIT_22_cls-5" d="M366.46,383.38a9.54,9.54,0,0,0-3.19-1.27,10.47,10.47,0,0,0-6.89,1.06,17.46,17.46,0,0,1,6.85,2.42,15.61,15.61,0,0,0-10.47,6.51l6.85-.23a21.59,21.59,0,0,0-10.32,10.41,53.37,53.37,0,0,0-4.05-8.9c5.44-14.53,12.54-22.11,15.4-24.74C360.64,368.64,366.11,378.72,366.46,383.38Z" />
      <path class="GUNDAN_OTTER_OUTFIT_GUNDAN_OTTER_OUTFIT_22_cls-3" d="M351.21,439s11.24,3.75,20-4.12a85.17,85.17,0,0,1,9.7-7.64,35.47,35.47,0,0,1,4.78-2.79c-.2.32-3.62,6-2.94,12.43.71,6.57,1.53,10.73,1.53,10.73l-32.36-.09c-.66-1.69-.72-5.3-.68-7.8C351.2,439.43,351.21,439.18,351.21,439Z" />
      <path class="GUNDAN_OTTER_OUTFIT_GUNDAN_OTTER_OUTFIT_22_cls-4" d="M360.64,368.64c-2.86,2.63-10,10.21-15.4,24.74-.64-1.11-1.33-2.22-2.08-3.31l-.2-.31-1.74-2.85S346.9,371,356.6,363.85a2.75,2.75,0,0,1,3.26-.05,4.51,4.51,0,0,1,1.35,1.64A2.66,2.66,0,0,1,360.64,368.64Z" />
      <path class="GUNDAN_OTTER_OUTFIT_GUNDAN_OTTER_OUTFIT_22_cls-4" d="M352.13,431.19c-.32,3-.79,5.76-1.28,8.11-5.77-6-13.16-8-18.8-6-5.91,2.13-18.54,8.25-29.31,2.21a54.4,54.4,0,0,0,25.67-7.75,16.93,16.93,0,0,1,11.49-2.41A26,26,0,0,1,352.13,431.19Z" />
      <path class="GUNDAN_OTTER_OUTFIT_GUNDAN_OTTER_OUTFIT_22_cls-3" d="M351.21,439c0,.22,0,.47,0,.72-.11-.13-.23-.25-.35-.38.49-2.35,1-5.09,1.28-8.11.26-2.37.43-4.92.46-7.58,0,0,2.73,4.3,11.21-5.11,6.6-7.32,8-10.49,12.79-13.11a33.42,33.42,0,0,1,5.24-2.21c-3.8,5.64-3.32,17.31-1,24a85.17,85.17,0,0,0-9.7,7.64C362.45,442.71,351.21,439,351.21,439Z" />
      <path class="GUNDAN_OTTER_OUTFIT_GUNDAN_OTTER_OUTFIT_22_cls-4" d="M341.22,368.79A59.41,59.41,0,0,0,325,393.35a18.57,18.57,0,0,1-8,10.09c-10.67,6.22-26.42,4.36-40.89-4.58-4.28,3.6-11.17,6.73-16.31,9.27a65.1,65.1,0,0,1,.88,10.58,62.92,62.92,0,0,1-.55,8.31A58.41,58.41,0,0,1,257,439.75a50.26,50.26,0,0,1-3.27,7.12c-.11.2-.22.42-.34.62H233.94c.12-.2.23-.42.35-.62a50.44,50.44,0,0,0,3.46-7.71,58.59,58.59,0,0,0,3-12.39,64.6,64.6,0,0,0,.5-8.06,63.28,63.28,0,0,0-.64-9h0c-6.91-1.89-12.78-5.36-21.25-10.15h0c-17,12.29-36.69,15-48.9,7.05a18.93,18.93,0,0,1-7.68-10.7A61.06,61.06,0,0,0,147.41,370c13.51,3.18,19.29,17.82,22.59,24.06,5.29,10.07,23.5,14.38,41.24.61a177.87,177.87,0,0,1-39.78-34.91c-.42-.5-.92-1.12-1.49-1.84l-.33-.42c-5.85-7.48-10-14.9-15.52-20.42-3.83-5.12-7.77-10.43-11.33-15.23l-2.34-3.16-1.57-2.12-.37-.51-.78-1-2.51-3.4c-.14-.2-.29-.39-.43-.58-1.54-2.08-1.43-2.11-2.26-3.24l-.32-.41-.25-.27c-.18-.2-.37-.39-.56-.57a1.59,1.59,0,0,0-.05-.24l0-.09-.07,0L129,303.39s-2.25-3.81-.11-5.7a5.27,5.27,0,0,1,.81-.6,10.11,10.11,0,0,1,5.74,1.48c3.48,1.93,8.18,8.5,15.31,18.54l1,1.4c2.41,3.4,4.93,7,7.52,10.57.52.73,1,1.47,1.59,2.2,1.59,2.2,3.21,4.4,4.83,6.55a175.36,175.36,0,0,0,13.16,15.81c23.51,28.24,54.54,46.26,70.05,48l.4,0c.41,0,.8.07,1.17.09.52-.2,1-.41,1.55-.63,32.26-13.63,43.05-53.44,46.83-85.22.21-1.85.39-3.68.54-5.47.22-2.81.35-5.54.39-8.17,5-1.77,7.38.95,8.47,3.51a11.43,11.43,0,0,1,.81,5.2c-.08,1.15-.18,2.31-.28,3.48q-.54,6.23-1.58,12.61h0c0,.33-.11.66-.16,1-4,23.56-8.59,48.23-24.95,65.19,15.31,10.27,30.71,6.71,35.88-2C321.5,385.27,327.86,371.24,341.22,368.79Z" />
      <path class="GUNDAN_OTTER_OUTFIT_GUNDAN_OTTER_OUTFIT_22_cls-5" d="M356.61,363.85l-.23-.56s-9.5-11.82-24.66-27.13c-14.12-14.26-22.9-21.71-22.9-21.71h0q-.54,6.23-1.58,12.61h0c0,.33-.1.66-.16,1-4,23.56-8.59,48.23-24.95,65.19,15.31,10.27,30.72,6.71,35.89-2,3.5-6,9.86-20,23.22-22.43A59.51,59.51,0,0,0,325,393.35a18.52,18.52,0,0,1-8,10.09c-10.67,6.22-26.42,4.36-40.89-4.58-4.28,3.6-11.17,6.73-16.31,9.27a64,64,0,0,1,.88,10.58,62.92,62.92,0,0,1-.55,8.31A59,59,0,0,1,257,439.75a50.3,50.3,0,0,1-3.28,7.12c-.1.2-.22.42-.34.62h95.28c.05-.16.13-.38.2-.62l.15-.42c.28-.93.69-2.28,1.11-3.94.24-1,.49-2,.73-3.21a27.59,27.59,0,0,0-2.69-2.44l-.13-.1a21,21,0,0,0-4.74-2.78,15,15,0,0,0-1.87-.68,14.79,14.79,0,0,0-9.35,0c-5.93,2.13-18.56,8.25-29.32,2.22a54.63,54.63,0,0,0,25.67-7.75,16.94,16.94,0,0,1,11.49-2.42,23.23,23.23,0,0,1,3.63.91c.67.24,1.34.5,2,.78a27.78,27.78,0,0,1,3.63,2,31.68,31.68,0,0,1,3,2.19c.26-2.37.43-4.9.46-7.57h0c0-2,0-4-.2-6.08v0c-.15-2-.39-4-.75-6.08-.2-1.13-.42-2.27-.68-3.41,0,0,0,0,0,0-.25-1-.51-2.06-.82-3.1-.25-.86-.53-1.72-.83-2.59h0a52.93,52.93,0,0,0-4.05-8.9c-.65-1.11-1.33-2.22-2.08-3.3a3.28,3.28,0,0,0-.2-.31l-1.74-2.86s3.72-10.4,10.29-18.16A29.84,29.84,0,0,1,356.61,363.85ZM269.18,422.5a2.65,2.65,0,1,1-2.65,2.65A2.65,2.65,0,0,1,269.18,422.5Zm-1.85,12.56a2.64,2.64,0,1,1-2.66,2.63A2.64,2.64,0,0,1,267.33,435.06Z" />
      <path class="GUNDAN_OTTER_OUTFIT_GUNDAN_OTTER_OUTFIT_22_cls-5" d="M240.58,409.7h0c-6.91-1.89-12.78-5.36-21.25-10.15h0c-17,12.29-36.69,15-48.9,7.05a18.93,18.93,0,0,1-7.68-10.7A61.06,61.06,0,0,0,147.41,370c13.51,3.18,19.29,17.82,22.59,24.06,5.29,10.07,23.5,14.38,41.24.61a177.87,177.87,0,0,1-39.78-34.91c-.46-.55-1-1.24-1.66-2.05-3.48-4.38-9.43-12.26-15.68-20.63-.49-.64-1-1.29-1.45-1.94L151.08,333c-2.12-2.84-4.23-5.68-6.26-8.42l-4.37-5.9-1.94-2.63-3.29-4.44-.84-1.13c-1.35-1.83-1.09-1.67-1.85-2.69a7.33,7.33,0,0,0-.57-.68c-.18-.2-.37-.39-.56-.57a7.91,7.91,0,0,0-.63-.52h0l.36-1.27-1.3-.09c-.83-.29-.38-.52-.78-1.27-23.76,22.87-52.41,41.05-52.41,41.05a3.61,3.61,0,0,1,.69.46c1.32,1.1,2.61,2.22,3.84,3.38a110.46,110.46,0,0,1,19.42,24.84,111.65,111.65,0,0,1,8.09,16.65,49.38,49.38,0,0,0-4,6.85l-.56,1.19c-.63,1.37-1.18,2.76-1.66,4.13-.13.36-.27.74-.39,1.1-.53,1.59-1,3.17-1.34,4.75-.23.94-.43,1.88-.6,2.81l-.15.83a64.76,64.76,0,0,0-.87,8.46,73.26,73.26,0,0,0,.12,8.44c.2,2.73.52,5.28.91,7.58a48.54,48.54,0,0,1,11.52-11.36c5.21-3.56,14-5.58,19.66-5.67a12.53,12.53,0,0,1,1.5.05,14.73,14.73,0,0,1,2.95.46,18.49,18.49,0,0,1,3.33,1.16,20.71,20.71,0,0,1,4.6,2.9A61.41,61.41,0,0,0,171,436.32c-10.33,3.92-20.68-.91-27.63-4.73-1.78-1-3.35-1.89-4.62-2.57-6.26-3.35-18.61-2-26.3,4.56a37.18,37.18,0,0,0-9.58,13.29.24.24,0,0,0-.06.11c.07.2.12.37.17.51h131c.12-.2.23-.42.35-.62a50.44,50.44,0,0,0,3.46-7.71,58.59,58.59,0,0,0,3-12.39,64.6,64.6,0,0,0,.5-8.06A63.28,63.28,0,0,0,240.58,409.7Zm-13.73,30.64a2.64,2.64,0,1,1,2.65-2.65A2.66,2.66,0,0,1,226.85,440.34Zm1.87-12.55a2.65,2.65,0,1,1,2.63-2.64A2.64,2.64,0,0,1,228.72,427.79Z" />
      <path class="GUNDAN_OTTER_OUTFIT_GUNDAN_OTTER_OUTFIT_22_cls-6" d="M103,447.49c0-.14-.1-.31-.16-.51a.49.49,0,0,1,0-.11,70.66,70.66,0,0,1-2-7.69c-.2-1-.4-2-.58-3.11v0s0-.09,0-.13c-.4-2.3-.71-4.85-.91-7.58a73.18,73.18,0,0,1-.13-8.44,63.13,63.13,0,0,1,.88-8.46c0-.28.09-.56.15-.83.17-.93.37-1.87.59-2.81q.56-2.37,1.34-4.75c.12-.36.26-.74.4-1.1a44.4,44.4,0,0,1,1.65-4.13l.56-1.19" />
      <path class="GUNDAN_OTTER_OUTFIT_GUNDAN_OTTER_OUTFIT_22_cls-6" d="M100.58,373.12a112.43,112.43,0,0,1,8.1,16.65,49.46,49.46,0,0,0-4,6.85c-.19-.45-.38-.89-.57-1.35-1.36-3.12-3-6.39-4.83-9.7-6.24-11.27-15-23.11-23.79-31.22-1.14-1.06-2.29-2.05-3.43-3a3.7,3.7,0,0,1-.7-.73,4,4,0,0,1-.34-4.36,5.4,5.4,0,0,1,1-1.3,4,4,0,0,1,4.61-.55,3.61,3.61,0,0,1,.69.46c1.33,1.1,2.61,2.22,3.84,3.38a109.89,109.89,0,0,1,19.42,24.84" />
      <path class="GUNDAN_OTTER_OUTFIT_GUNDAN_OTTER_OUTFIT_22_cls-6" d="M94.54,399.68s4.78,5.8,5.46,11.74" />
      <path class="GUNDAN_OTTER_OUTFIT_GUNDAN_OTTER_OUTFIT_22_cls-6" d="M349.29,402.28a53.37,53.37,0,0,0-4.05-8.9c-.64-1.11-1.33-2.22-2.08-3.31l-.2-.31-1.74-2.85S346.9,371,356.6,363.85a2.75,2.75,0,0,1,3.26-.05,4.51,4.51,0,0,1,1.35,1.64,2.66,2.66,0,0,1-.57,3.2c-2.86,2.63-10,10.21-15.4,24.74" />
      <path class="GUNDAN_OTTER_OUTFIT_GUNDAN_OTTER_OUTFIT_22_cls-6" d="M348.65,447.5v0c.27-.79.84-2.53,1.46-5,.24-1,.49-2,.74-3.21.49-2.35,1-5.09,1.28-8.11.26-2.37.43-4.92.46-7.58a68.35,68.35,0,0,0-1-12.19,58.07,58.07,0,0,0-2.34-9.13" />
      <path class="GUNDAN_OTTER_OUTFIT_GUNDAN_OTTER_OUTFIT_22_cls-6" d="M351.64,411.42a16.4,16.4,0,0,1,.39-2.07c.06-.22.11-.43.17-.63a29.78,29.78,0,0,1,4.89-9" />
      <path class="GUNDAN_OTTER_OUTFIT_GUNDAN_OTTER_OUTFIT_22_cls-6" d="M100.76,439.18a3,3,0,0,1-.38.15,1.45,1.45,0,0,1-.26.11c-6.68,2.52-18.23,1-28.41-2.93a54.39,54.39,0,0,1-10.07-5.14l0,0c-.78-.51-1.54-1-2.25-1.6-6.16-4.75-11.64-7.46-16.85-8.46l-.37-.07a24,24,0,0,0-6.64-.27A12.73,12.73,0,0,1,40,431.13a14,14,0,0,1-.61,3.5,15.07,15.07,0,0,1-.52,1.51c-2.87,7.33-2.4,11.35-2.4,11.35H351.88a4.54,4.54,0,0,1-.19-.62,31.88,31.88,0,0,1-.49-7.18c0-.26,0-.51,0-.73,0-1.13.09-1.9.09-1.9" />
      <path class="GUNDAN_OTTER_OUTFIT_GUNDAN_OTTER_OUTFIT_22_cls-7" d="M233.94,447.48a49.39,49.39,0,0,0,3.82-8.32,58.07,58.07,0,0,0,3-12.4,64.47,64.47,0,0,0,.51-8.06,63.13,63.13,0,0,0-.65-9" />
      <path class="GUNDAN_OTTER_OUTFIT_GUNDAN_OTTER_OUTFIT_22_cls-7" d="M253.37,447.48a49.87,49.87,0,0,0,3.62-7.73A58.4,58.4,0,0,0,260.11,427a61.3,61.3,0,0,0,.55-8.32,64,64,0,0,0-.88-10.57" />
      <path class="GUNDAN_OTTER_OUTFIT_GUNDAN_OTTER_OUTFIT_22_cls-6" d="M129,303.39c-24.35,23.32-52.41,41.05-52.41,41.05" />
      <path class="GUNDAN_OTTER_OUTFIT_GUNDAN_OTTER_OUTFIT_22_cls-6" d="M308.82,314.45s8.26,5.81,22.9,21.71c14.34,15.56,24.66,27.13,24.66,27.13" />
      <path class="GUNDAN_OTTER_OUTFIT_GUNDAN_OTTER_OUTFIT_22_cls-6" d="M360.64,368.64s5.47,10.08,5.82,14.74a9.54,9.54,0,0,0-3.19-1.27,10.47,10.47,0,0,0-6.89,1.06,17.46,17.46,0,0,1,6.85,2.42,15.61,15.61,0,0,0-10.47,6.51l6.85-.23a21.59,21.59,0,0,0-10.32,10.41h0" />
      <path class="GUNDAN_OTTER_OUTFIT_GUNDAN_OTTER_OUTFIT_22_cls-6" d="M71.37,350.65A37.26,37.26,0,0,0,58.32,366.4a15.21,15.21,0,0,1,11.26-5.12,9.81,9.81,0,0,1,1.64.1s-5.92,4.49-7.69,10.15c8.14-4,17.94.77,17.94.77s-7.85.88-13.08,6.34a26.84,26.84,0,0,1,20.5,3.95s-4,0-9.89,3.44c12.82.88,16.24,7,16.24,7a9.06,9.06,0,0,0-7.24,2.2,19,19,0,0,1,13.71,5.82c.5.52.76.85.76.85" />
      <path class="GUNDAN_OTTER_OUTFIT_GUNDAN_OTTER_OUTFIT_22_cls-6" d="M231.36,425.14a2.65,2.65,0,1,1-2.64-2.64A2.65,2.65,0,0,1,231.36,425.14Z" />
      <path class="GUNDAN_OTTER_OUTFIT_GUNDAN_OTTER_OUTFIT_22_cls-6" d="M271.83,425.14a2.65,2.65,0,1,1-2.65-2.64A2.65,2.65,0,0,1,271.83,425.14Z" />
      <path class="GUNDAN_OTTER_OUTFIT_GUNDAN_OTTER_OUTFIT_22_cls-6" d="M231.36,425.14s3.93.92,9.36,1.62a89.57,89.57,0,0,0,9.95.8,51.34,51.34,0,0,0,9.44-.54,23.87,23.87,0,0,0,6.42-1.88" />
      <path class="GUNDAN_OTTER_OUTFIT_GUNDAN_OTTER_OUTFIT_22_cls-8" d="M211.24,394.67a177.87,177.87,0,0,1-39.78-34.91c-.42-.5-.92-1.12-1.49-1.84l-.33-.42c-3.51-4.41-9.37-12.18-15.52-20.42-3.83-5.12-7.77-10.43-11.33-15.23l-2.34-3.16-1.57-2.12L137.73,315l-2.51-3.4-.43-.58c-1.54-2.08-1.43-2.11-2.26-3.24l-.32-.41-.86-1.08-.09-.11L129,303.39s-2.25-3.81-.11-5.7a5.27,5.27,0,0,1,.81-.6c1.88-1.17,3.76-.62,5.74,1.48,3.8,3.37,8.2,8.62,15.31,18.54.32.46.65.93,1,1.4,2.41,3.4,4.93,7,7.52,10.57.52.73,1,1.47,1.59,2.2,1.59,2.2,3.21,4.4,4.83,6.55a175.36,175.36,0,0,0,13.16,15.81c23.51,28.24,54.54,46.26,70.05,48l.4,0c.41,0,.8.07,1.17.09.52-.2,1-.41,1.55-.63,32.29-13.52,44-50.3,46.83-85.22.21-1.85.39-3.68.54-5.47.22-2.81.35-5.54.39-8.17,5-1.77,7.38.95,8.47,3.51a11.43,11.43,0,0,1,.81,5.2c-.08,1.15-.18,2.31-.28,3.48q-.54,6.23-1.58,12.61h0c0,.33-.11.66-.16,1-4,23.56-8.59,48.23-24.95,65.19" />
      <path class="GUNDAN_OTTER_OUTFIT_GUNDAN_OTTER_OUTFIT_22_cls-8" d="M219.33,399.54c8.48,4.78,14.35,8.26,21.25,10.15h0a43.29,43.29,0,0,0,9.54,1.64l.76,0,1.25,0,1.87-.72q3-1.15,5.78-2.56c5.14-2.55,12-5.67,16.31-9.27" />
      <path class="GUNDAN_OTTER_OUTFIT_GUNDAN_OTTER_OUTFIT_22_cls-8" d="M219.32,399.55c-17,12.29-36.69,15-48.89,7.05a19,19,0,0,1-7.69-10.71A61,61,0,0,0,147.41,370c13.51,3.18,19.29,17.81,22.59,24.06,5.3,10.06,23.5,14.38,41.24.61" />
      <path class="GUNDAN_OTTER_OUTFIT_GUNDAN_OTTER_OUTFIT_22_cls-8" d="M100.15,435.91c7.7-10.47,21.08-16.86,31.18-17a19.06,19.06,0,0,1,12.39,4.58A61.21,61.21,0,0,0,171,436.31c-13,4.93-26-4-32.25-7.3-9.29-5-28.14.3-35.93,18" />
      <path class="GUNDAN_OTTER_OUTFIT_GUNDAN_OTTER_OUTFIT_22_cls-8" d="M282.11,393.24c15.31,10.26,30.71,6.7,35.88-2,3.51-5.94,9.87-20,23.23-22.42A59.61,59.61,0,0,0,325,393.35a18.52,18.52,0,0,1-8,10.09c-10.66,6.21-26.41,4.36-40.88-4.58" />
      <path class="GUNDAN_OTTER_OUTFIT_GUNDAN_OTTER_OUTFIT_22_cls-8" d="M352.13,431.19a26,26,0,0,0-12.23-5.84,16.93,16.93,0,0,0-11.49,2.41,54.4,54.4,0,0,1-25.67,7.75c10.77,6,23.4-.08,29.31-2.21,5.64-2,13,0,18.8,6,.12.13.24.25.35.38" />
      <path class="GUNDAN_OTTER_OUTFIT_GUNDAN_OTTER_OUTFIT_22_cls-6" d="M99.25,428.33c-.18,0-.36.06-.55.07a.58.58,0,0,1-.19,0,33.33,33.33,0,0,1-17.48-2,28.79,28.79,0,0,1-3.43-1.7A35.35,35.35,0,0,1,72,420.67,54.71,54.71,0,0,1,65.53,414c-4.22-5.13-10.57-10.66-17.24-13.43l-.72-.3a22,22,0,0,0-6.3-1.46c3.17,4,3.53,9.43,3.07,14a39.89,39.89,0,0,1-1.84,8.54" />
      <path class="GUNDAN_OTTER_OUTFIT_GUNDAN_OTTER_OUTFIT_22_cls-6" d="M99.12,419.89l-.48-.12-.19,0a38.07,38.07,0,0,1-13.76-7.05c-.67-.53-1.33-1.07-2-1.65l0,0c-.91-.81-1.81-1.68-2.67-2.6a48.06,48.06,0,0,1-6.64-9c-4.27-7.43-10.55-13.59-17.25-17-.73-.38-1.48-.72-2.22-1a23.07,23.07,0,0,0-8.57-1.82,22.52,22.52,0,0,1,2.24,20.64" />
      <path class="GUNDAN_OTTER_OUTFIT_GUNDAN_OTTER_OUTFIT_22_cls-6" d="M65.72,361.81c-7,7.86-11.82,19.59-11.82,19.59" />
      <path class="GUNDAN_OTTER_OUTFIT_GUNDAN_OTTER_OUTFIT_22_cls-6" d="M385.66,424.4h0c-.2.32-3.62,6-2.94,12.43.71,6.57,1.53,10.73,1.53,10.73l-32.36-.09" />
      <path class="GUNDAN_OTTER_OUTFIT_GUNDAN_OTTER_OUTFIT_22_cls-6" d="M351.21,439s11.24,3.75,20-4.12a85.17,85.17,0,0,1,9.7-7.64,35.47,35.47,0,0,1,4.78-2.79" />
      <path class="GUNDAN_OTTER_OUTFIT_GUNDAN_OTTER_OUTFIT_22_cls-6" d="M352.59,423.61s2.73,4.3,11.21-5.11c6.6-7.32,8-10.49,12.79-13.11a33.42,33.42,0,0,1,5.24-2.21c-3.8,5.64-3.32,17.31-1,24" />
      <path class="GUNDAN_OTTER_OUTFIT_GUNDAN_OTTER_OUTFIT_22_cls-6" d="M352,409.35a28.34,28.34,0,0,0,11.55-10.82c1.74-3.14,2.79-6,4.16-8.33,1.87-3.21,4.28-5.54,9.76-6.55-4.95,5.5-4,17-.91,21.74" />
      <path class="GUNDAN_OTTER_OUTFIT_GUNDAN_OTTER_OUTFIT_22_cls-6" d="M363.27,382.11a34.88,34.88,0,0,1,4.47,8.09h0" />
      <path class="GUNDAN_OTTER_OUTFIT_GUNDAN_OTTER_OUTFIT_22_cls-7" d="M243.87,446.87a51.17,51.17,0,0,0,3.32-6.81,58.42,58.42,0,0,0,3.4-12.5,64.72,64.72,0,0,0,.77-10q0-3.18-.3-6.22a60.18,60.18,0,0,0-1.73-9.71" />
      <path class="GUNDAN_OTTER_OUTFIT_GUNDAN_OTTER_OUTFIT_22_cls-9" d="M366,446.87H333c19.83-12.9,13.12-49.23,12.85-50.3,8.79,18.16,11.52,30.36,11.52,30.36a209.1,209.1,0,0,0,3.83-24.77c1,11.85-.68,26.93-1.53,33.52a108.22,108.22,0,0,1,5.84-21.55C361.89,428.93,366,446.87,366,446.87Z" />
      <path class="GUNDAN_OTTER_OUTFIT_GUNDAN_OTTER_OUTFIT_22_cls-9" d="M128.66,401.11s-30.23,19.7-8.89,46.37c-17.15,0-17.28-.61-17.28-.61S85,408.1,122.59,376c-16.64,21.77-15.77,31.32-15.77,37.76C115.57,398,128.66,401.11,128.66,401.11Z" />
      <path class="GUNDAN_OTTER_OUTFIT_GUNDAN_OTTER_OUTFIT_22_cls-9" d="M153.11,320.65c-1.05.86-3.58,2.94-7,5.88-9.42,8-25.75,22.25-38,35.13a33.71,33.71,0,0,0-7.52,11.73,25.78,25.78,0,0,0-1.3,12.45A29.44,29.44,0,0,0,103.43,397c.26.43.5.78.7,1.05s.38.53.46.64l.1.12-3.81,9.32-.14-.1-.79-.49-1.36-.87-.25-.16c-3.78-2.4-10.85-6.87-14.5-9-1.32,5.65.07,12.43.84,15.43.18.69.32,1.17.4,1.41a12.86,12.86,0,0,0-2.36-3.06l0,0c-.69-.71-1.56-1.58-2.67-2.6-3,7.85-.18,15.43,1,18,.25.56.43.89.46,1-.16-.1-1.76-1.18-3.89-2.66-1.7-1.18-3.74-2.63-5.65-4.06h0c-3.23,6.27-1.3,13-.25,15.84.3.77.53,1.24.57,1.32a54.7,54.7,0,0,1-10.63-6.46l0,0a20.19,20.19,0,0,0-3.29,15.53l-.19.62H36.5s-.47-4,2.4-11.35c.2-.52.37-1,.52-1.51.18-1.11.38-2.28.6-3.5a12.72,12.72,0,0,0-4.53-10.19,23.88,23.88,0,0,1,6.63.27c.64-2.69,1.38-5.53,2.22-8.47.45-4.55.09-10-3.08-14a21.93,21.93,0,0,1,6.31,1.46,22.5,22.5,0,0,0-2.25-20.64,23,23,0,0,1,8.57,1.82s4.78-11.73,11.83-19.59a15.07,15.07,0,0,0-7.41,4.59,37.32,37.32,0,0,1,13.06-15.75,4,4,0,0,1-.34-4.36,5.14,5.14,0,0,1,1-1.3,4,4,0,0,1,4.62-.55s28.93-18.92,52.41-41.32c-.13-.25-1-.81-1-1.1s-.08-.44-.12-.68-.08-.61-.11-.94a1.11,1.11,0,0,1,0-.17,3.67,3.67,0,0,1,0-.46,2.09,2.09,0,0,1,0-.25,1,1,0,0,1,0-.24c0-.12,0-.25,0-.37a3.41,3.41,0,0,1,.09-.48l.08-.29c.85-2.51,3.05-1.93,7.54.42,3.64,2,8.74,9.28,16.3,19.95Z" />
      <path class="GUNDAN_OTTER_OUTFIT_GUNDAN_OTTER_OUTFIT_22_cls-8" d="M228.71,370.37c21.58,12,20.63,31.29,20.63,31.29" />
      <path class="GUNDAN_OTTER_OUTFIT_GUNDAN_OTTER_OUTFIT_22_cls-8" d="M246.54,389.13a25.13,25.13,0,0,1,17.51-19.07" />
    </g>
  </g>
</svg>